<?xml version="1.0" encoding="utf-8"?>
<svg xmlns="http://www.w3.org/2000/svg" xmlns:svg="http://www.w3.org/2000/svg" version="1.1" viewBox="0 0 454 194">
  <title>A set of scales stand next to an upturned box with “Till” written inside it and a book with “Ledger” written on the spine.</title>
  <path d="M283 193.5a210.7 210.7 0 0 0-28.8-1 106.9 106.9 0 0 1-17.7.3c-.7-.3-1-1.2-.7-1.8.2-.5 1.2-.5 21-.3 20.4.1 29.6.4 30.6.8.8.3 1 1 .4 1.7-.4.4-.8.5-2.4.5l-2.5-.2zm-57.5-5.6-8-.2a98.7 98.7 0 0 1-10.5-.6c-.4 0-1-.2-1.4-.4-.6-.4-.8-1.5-.3-1.8h6.1a1093.9 1093.9 0 0 0 41.5 1c.1.1 4.4.2 9.5.2 8.9 0 9.3 0 9.8.5.3.3.5.7.4.9-.2.4-1.7.7-2.4.4a6 6 0 0 0-2 0h-4.7c-1.8-.2-4.2-.2-5.3 0-2 .2-8.6.2-15.9-.1h-7.2c-1.6.2-3.1.3-3.6.1h-3.3a17 17 0 0 1-2.7 0zm84.5-4.6c-.8-.1-10.7-.5-13.6-.5-.7 0-3.3 0-5.8-.2l-14.1-.4a861.5 861.5 0 0 1-23-.6l-9.8-.2a2463 2463 0 0 0-47.8-.5c-15.6 0-28.6-.2-29-.2-1.2 0-3.8-.5-4.1-.8-.5-.4-.5-1.1 0-1.6.4-.4 1-.4 3.3-.3l19 .2 20 .3a4407.9 4407.9 0 0 0 58.5 1.2l8.6.2 29.8.7c16 .6 16.9.7 17 1.6.2 1-.5 1.2-4.4 1.3-2 0-4.1 0-4.6-.2zm-57.5-6.8c-5.4-.9-14.7-1.6-23-1.7-6.4-.1-27.4-.2-36.6 0-2.7 0-7.5-.2-10.6-.4a261 261 0 0 0-32.3.2c-2.1 0-6.3 0-9.4-.2-6.3-.3-13.4-.3-17-.1-2.3.2-4-.1-4.7-.8-.7-.7-1.5-2-1.5-2.4 0-1 1.9-1.6 3-.8.5.3 1.7.4 5.1.4 5.7 0 14.5.2 19.6.5 2.2.2 8.8.4 14.7.4l15.3.3 4.7.1-.1-.7c0-.5 0-.9.3-1 .6-.6 24.5-.8 42.8-.5 21.9.4 41.8.5 54 .2 8.3-.1 9.2-.1 9.8.3.9.5 1 1.6.1 2.1-.5.3-1.3.4-4.2.2a290 290 0 0 0-18.5 0c0 .2-1.4 0-3 0a320.2 320.2 0 0 0-24.9-.5L223 172c-6.1 0-13.5-.2-16.4-.4a220.5 220.5 0 0 0-22.3.5 69.4 69.4 0 0 0 16 .8c13.9-.1 35 0 38.6.1 5 .3 12.3 1.1 13.6 1.6 1.4.4 2.4 1.2 2.4 1.8 0 .5-.2.6-2.3.2zm-61-8.2-3.3-.2a15 15 0 0 1-2.8-.2l-1.8-.5c-1.3-.2-1.5-.3-1.5-1 0-.6.1-.6 1.9-.7a172.5 172.5 0 0 0 23.7.3h11l15.4-.2a1583 1583 0 0 0 58.5-2.4 271.5 271.5 0 0 0 19-.9c1.1.1 1.3.2 1.3.8 0 .5 0 .8-.4 1-.5.3-7.4.7-13.2.7a26 26 0 0 0-4.3.3c-.6.3.2 1 1 .8.8-.2 9-.2 17.6 0a281 281 0 0 0 24.8-.1h2.6c2-.3 19.8.1 20.9.5.6.2.8.4.8 1 0 .8-.8 1.2-2.3 1-3.4-.5-15.4-.6-34.3-.5-6 0-9.6 0-17.2-.4-4.8-.2-30.4-.2-38 0-14.2.5-14.6.5-15.2-.1-.7-.6-.7-.6-5.9-.3a400.2 400.2 0 0 1-21 .4 1219.7 1219.7 0 0 0-37.2.7zm-7-10.8c-1.8-.6-3.7-1-5.3-1.2a9 9 0 0 1-2.5-.7c-.7-.4-1.9-.6-4-.7-3-.2-3.2-.3-4-1-.7-.8-.8-.8-4.8-1a277 277 0 0 0-5.5-.2c-1.7 0-2.5-.5-2.2-1.5.1-.6 0-.6-1-.6-.8 0-1.7-.2-2.4-.6-1.3-.6 0-.6-23-.5-3.6 0-4.8-.3-5-1.4v-.8l-4-.1-3.9-.2-.6-.8c-.7-.8-.8-.8-2-.7-3.7.3-10.7.6-15.5.7a4777.6 4777.6 0 0 0-29.1 1c-2.2.5-9 .7-18 .7-5.2 0-9.4.1-10.3.3-2.2.4-12.7.4-16.7 0-1.7 0-4.5-.2-6-.1-3.2.1-4.4-.2-5-1.2-.2-.5-.6-.5-3-.6-3 0-3.5 0-4-1-.3-.8-2.5-1.4-3.2-.9-.9.7-1.8.4-2.7-.7-1.2-1.4-1-2 .4-3.4l1.3-1 5.3-.4c6.4-.5 7-.6 7.1-1.4.1-.3.4-.8.7-1 .5-.6.5-.7.1-2-.3-1-.7-1.5-1.2-1.8-.6-.3-.8-.5-.8-1.3a4 4 0 0 0-.5-1.8c-1-1.5-.6-3.3.8-4.1.7-.4 1.6-.5 4.8-.7l6.6-.5a16 16 0 0 1 4.2 0l2.8-.1a44 44 0 0 1 4.8-.6c4-.2 4.3-.3 4.5-2.2.2-1.3 1-2.3 1.8-2.3 8 .4 7.8.5 7.8-1.2 0-2.4.4-3.5 1.6-4.7.6-.7 1-1.4 1-1.6l.5-.8c.4-.5.9-.6 4.6-.8l7.3-.3a2055 2055 0 0 0 31.4-.8 275 275 0 0 0 18.9-.7c2.8-.3 3.1-.2 7 .8 1.3.3 2.5.3 6 .2 7.6-.3 8-.3 8.9-.7.5-.2 1-.2 1.7 0 1.2.5 1.5.7 2.1 2 .5 1 .7 1.2 1.8 1.5.7.2 1.4.7 1.7 1 .5.7.5.9.2 2.6-.5 2.5-.8 3-2.3 3.1l-2.8.5c-1 .3-2.2.4-3 .3-1.7-.2-2.3.1-2 1.2.1.5.3.6 1.8.5 2.6 0 10.7.3 12.4.6l8.3.4c9 .2 10 .2 10.3 0a157 157 0 0 0-.7-22.1c-.2-.5-.3-3.6-.3-6.7 0-7 0-6.8 3-7.3l2.5-.6a6 6 0 0 1 1.8-.3 8 8 0 0 0 2.3-.4c1.1-.4 2.7-.7 6.2-1.1 1-.1 2.2-.4 2.7-.7a4 4 0 0 1 1.5-.4l1.4-.4c1.2-.7 3.1-.5 5 .4 1.8 1 5 1.6 9.7 2 2.5.2 4.1.4 4.3.7l.8.2c.4 0 1.7.3 2.8.7 1.9.7 2.2.7 3.1.4 1.2-.4 2.2-.2 5 1a18 18 0 0 0 4.9 1.9l2.6.6 3 .9c.6 0 1.4.5 2 1 .5.5 1.2 1 1.4 1 .8 0 1.5 1.5 1.3 2.7a320 320 0 0 0 .3 27c.2.8 2 1.6 4 1.8 1.8.2 3.8 1 4.4 1.7l1 1.6c1.1 2.3.2 4-2 4-1 0-1.2-.1-2.4-1.5-1.4-1.4-1.6-1.5-3-1.6-1.1-.1-1.5 0-1.7.3-.3.3-.3.7-.2 1 .1.2.3 2.2.3 4.5l.1 4.1s4.4.2 9.7.2c6.7 0 9.6.1 9.8.3.4.4 0 1.4-.5 1.4-.3 0-.6.2-.7.3l-.8.4c-.7.2 15.7 0 17.6-.3 1.8-.2 2.4.2 2.2 1.4l-.1.7 5.2-.2c3 0 6.2-.2 7.4-.3 2.8-.2 3.5.4 3 2.2-.2.5-.1.6.6.7l2.6.2c2.1 0 3 .5 2.6 1.5-.2.5-.2.6-4.9.4l-5.4-.1h-43.5c-4.3-.1-4.5 0-4.5.4 0 .5.3.6 2.5 1a535.7 535.7 0 0 0 57.2-.7c1.8-.2 2-.1 2.6.4.8.8.7 1.3-.6 1.8l-1.1.6h1.3c2.5 0 6.4 0 9.7-.3 2.7-.3 3.5-.3 3.8 0 .5.4.5 1.4 0 1.8-.4.3-6.1.6-17.6.7l-20.3.3c-11.6.1-11.4.1-11.2-1.1 0-.5 0-.7-.5-.7-1-.2-5-.5-6.5-.5h-8l-8.6-.1c-2.9-.2-3.2 0-2.8 1.9.5 2.1.2 3-1.6 3.9l-1.5.8-2.2-.5a1352.2 1352.2 0 0 1-6.8-1.2l-2.9-.5A79 79 0 0 0 209 154a80 80 0 0 0-18.2 2.6 9.6 9.6 0 0 1-6.3 1zm47.6-4.2v-4a42.1 42.1 0 0 1-.2-8.2c0-5.8.1-8.4.4-9 .2-.7.2-1 0-1.4-.7-1-.9-4.7-.4-5.4.3-.5.3-1 0-3.9v-3.9c.2-.4.2-1 0-1.7a25 25 0 0 1-.5-3.9c-.2-2.6-.2-2.8.4-3.5.5-.7.5-.9.4-5.5-.2-5.4-.6-8.5-1.4-9-.2-.2-1.2-.5-2-.7l-4.2-1c-2.8-1-5.4-1.6-7.8-2-.8 0-1.9-.4-2.4-.6l-1.6-.5c-.7 0-.8 0-.7 1l.4 9.8c0 .5-.3 1.7-.7 2.7-.5 1.4-.7 2-.6 2.8l.2 8.1c-.1 13.6 0 15 .5 15.9.6 1 .7 2 .3 2.2-.2 0 0 .5.4 1 .8 1.1.8 1.4 0 2.2-.4.3-.7 1-.8 1.5-.2.7-.1.8.6 1.1.4.2.9.5 1 .7l.5 9c0 .6.2 1.3.4 1.7.5.7.8.8 4 1.9l4.8 1.7a38.7 38.7 0 0 0 7 2l1.1.1c.6 0 .7-.2.9-1.2zm-13.4-13c-.7-.6-.7-.7-.7-3.3a29 29 0 0 0-.3-4c-.3-1.8-.1-2.2.8-2.2.5 0 4.7 1.9 5 2.3.5.6 3.5 1 3.5.6 0-.2.2-.3.5-.3.7 0 1 1 1 2.4s-.4 1.5-2.5.4a114.6 114.6 0 0 0-5.1-2.6c-1.4-1-1.6-.7-1.6 2 0 2.1 0 2.4.7 3.2 1.3 1.5.3 2.6-1.3 1.5zm-.4-12.1c-.5-.4-.8-2.4-.8-5.4v-3c0-.7 1-.5 1.3.2l.4 3c.1 2.2.3 2.7.8 3.3.7.9.8 1.3.3 1.8-.3.3-1.5.4-2 0zm7.9-1.5c-.6-1-1.5-1.7-3.1-2.5-1.4-.7-3.3-2.4-3.3-2.9 0-.6 1-.7 2 0l2.5 1.6c2.9 1.7 3.8 2.8 3.3 4.2-.2.7-.8.6-1.4-.4zm-1.7-10.8-2.6-1.5-2-1.1c-.2-.3-.4-.3-.7 0-.5.4-1.5 0-1.7-.6-.5-1.3-.6-3-.2-3.3.5-.5 1-.2 1.6.8.3.6.9 1.1 1.4 1.4a361.8 361.8 0 0 1 6.2 2.8c.6 0 1 .6 1 1.5-.2 1-1.6 1-3 0zm.8-3.8c-.5-.7-.6-1.9-.2-2.1.2-.1.3-1 .3-1.8 0-1.7 0-1.7-1-2.2-2.2-1-3.6-1.8-4.6-2.5-1.1-.8-1.3-.7-1.3 1.3 0 1.5 0 2-.4 2h-.7c-.4-.4-.7-3-1-6.2 0-2.4 0-2.9.4-3.3.6-.6 1.3-.1 1.5 1.1.2 1.1.8 1.7 3 3.3 2.6 1.9 3.9 2.2 4.7 1.3.5-.5.4-.6-.2-1.8-.6-1.1-.6-1.3-.2-1.7.5-.6 1.5-.6 1.9-.1.2.2 1 9.1 1 11.3 0 .7-1.4 2-2.1 2-.4 0-.8-.2-1.1-.6zm-36 42c3.7-.9 4.2-1 4-1.5-.2-.7.4-1.1 2.4-1.7 2-.6 2.2-.7 2-1.3 0-.3 0-.6.2-.7l.2-.4c0-.4-3.4-.3-4 0-1 .6-2.3.7-2.7.4-.5-.3-.4-.4.3-.7.4-.3 1.4-.5 2-.6 1.5-.2 2.9-.9 2.9-1.4 0-.3-1.3-.7-2.7-.7-1.5 0-3.5.5-5 1.2-.8.4-2 .9-2.7 1-1.4.5-1.6 1-1.3 3.6.3 2.6.6 3 2 3 .8 0 1.8-.1 2.4-.3zm-7-2c.5-.7.4-6.1-.2-8-.2-.7-.3-2.5-.3-4.4l-.2-3.4c0-.1-.2-3.9-.2-8.4s-.3-10.3-.4-13c-.3-4.3-.3-4.8 0-5.6.5-.7.5-1.6.4-7-.2-8-.4-10.6-.8-11-.2-.4-1.3-.5-4.3-.7H172c-.2.2-.2 1.1-.2 3a2020.5 2020.5 0 0 1 .6 16.2 182.5 182.5 0 0 1 .8 11.8c.1 1.3-.4 2.3-1.2 2.5l-.7.2v4.9l.1 7.3c.1 2.2.2 2.6.8 3 .6.5.8 1.8.3 2.2-.4.5-.5 4.5-.1 5.2l.3 1.2c0 .8.7 1.3 2.4 2 .8.2 2.4.9 3.6 1.4 2.4 1 3 1.1 3.6.5zm-6-25.4-1-1.4c-.5-.8-.5-1-.2-2s.5-1.1 1.8-1.7c1.5-.7 3.2-.8 3.6 0 .4.6 0 1.6-1.1 2.4-1 .6-1 .7-.8 1.5.6 1.5-1.2 2.5-2.3 1.2zm23.8 25h-.8c-.3.1-.1.2.3.2s.6 0 .5-.2zm2.7-.5h-.5c-.2.1-.1.2.2.2.3 0 .4 0 .3-.2zm71.6 0h-1.3c-.4 0-.1.1.6.1h.7zm13.1 0h-.5c-.2.1-.2.2.2.2.2 0 .4 0 .3-.2zm7.9-.3c.6-.2.1-.3-1.5-.3-1.9 0-2.4 0-2.4.4 0 .3.4.3 1.6.2.8 0 1.8-.2 2.3-.3zm-87.8-.9c1.1-.4 1-.9-.3-.9-1 0-1.1.1-1.2.6 0 .7.2.8 1.5.3zm2-1v-.5l-.2-5.7c-.2-7 0-9.4 1.3-10.5.4-.4.7-.8.5-.8-.4 0-1.4-1.6-1.8-3-.4-1.3-.5-6.4-.8-22.5a60.4 60.4 0 0 0-1.8-15.1c-.6-.7-.7-.7-1-.4-.4.4-.4.9-.2 3.7.4 4.3.3 8.3-.1 8.7-.3.3-.5.3-.8 0-.3-.3-.5-1-.6-3.9-.1-2.7-.6-7.2-1-8.4 0-.3-.7 0-.8.4-.1.2 0 2.8.2 5.6.7 7.6.3 11-1 9.8-.4-.2-.4-1-.4-3.3a59.6 59.6 0 0 0-1.5-11.8c-.5 0-.6.7-.3 5.2.3 5.4 0 9.1-.5 9.6-.7.5-.8.1-1.1-2.8-.4-2.7-.5-3-1.1-3-1 .1-1 0-1.2-1a15 15 0 0 0-1-4c-.4 0-.5 3-.2 9.4.2 5.6.3 19 .2 28.7 0 .9.2 1.8.3 2 .2.2.3 1.5.3 3.5-.1 5-.3 4.5 1.9 4.8l3.5.8 3.2 1c2 .5 4.6 1.6 5.2 2.1.3.3.4.7.3 1 0 .4 0 .7.2.7l.3-.4zM65 144.5l1-1.8c.4-1 .6-1.3 1.1-1.3.6 0 .6 0 .6 1.4 0 1.2 0 1.3.5 1.3.3 0 .6-.3 1-1 .5-1.3 1.6-1.4 1.7-.1l.1.6c0 .4 1.6.4 2.6 0 .3-.1.8-.6 1.1-1 .6-1.1 1.5-1 1.6 0 0 1 .7 1.5 1.4 1.5.3 0 .5-.3.6-.9.2-1.1 1-1.6 1.8-1 .8.5 1.5 0 2-1.3.4-.7.7-1.3 1-1.5.2-.2.4-1.1.5-2.5.2-2 .1-2.4-.4-3.5-1.2-2.9-2.5-3.4-8.6-3.3l-10.5.1c-3.7 0-6.3.2-6.3.3l.6 1.1c.6 1 1.1 1.1 1.4.6.3-.4 1.3-.3 1.8.2.7.8.7 1.7.3 4.2a46 46 0 0 0-.5 5.4l-.1 3h1.7c1.2 0 1.7-.2 2-.5zm123-.7c2.3-.4 2.9-.7 4-1.6l.6-.6-.2-4.2a376.4 376.4 0 0 1-.5-18.8 412.2 412.2 0 0 0-.7-23.1c-.2-2.8-.2-2.8-1-3.2a8.7 8.7 0 0 0-5.1-.2l-1.2.4v6.7c0 3.7-.2 8-.3 9.6a226.1 226.1 0 0 0 .6 30.2l.2 4.7c.2.5.7.6 3.5 0zm-98.7-.2c.5-.2 6.6-.7 15-1 3.2-.2 6.9-.4 8.2-.6 12.4-1.4 14.7-1.5 15.5-.9.3.2 1 .4 1.6.4 1.6 0 6.9-.8 7.5-1.1.4-.2.9-.9 1.2-1.5l1-1.7c.2-.3.3-.6.1-1l-.3-2.4c-.2-1.6-.4-2.2-1-3.1a8.4 8.4 0 0 0-3.7-3.3 125.2 125.2 0 0 0-26 .9c-3.7.3-13.4.6-18.4.5h-3.8l.2.7.7 2.2a46.5 46.5 0 0 1 .2 11.4c-.2.8-.2.8.7.8.4 0 1-.1 1.3-.3zm.8-3.6c-.5-.4-.5-.4-.1-1 .3-.6.4-1.1.3-2.5 0-1-.2-2-.3-2.3-.3-.7.6-1.3 1.4-1 .6.1 1 1.5 1 3l.3 1.4c.3.6.5.7 1.4.7 1.2 0 2.2-.8 2-1.5-.9-3-.9-3-.2-3.5.7-.6 1-.6 2.5-.2 1.8.5 2.5 3.1.8 3.1-.4 0-.7.2-1 .6-.4.8.2 1.2 2 1.3 1.3 0 1.7.2 1.8.5.1.9-1.3 1.3-5.5 1.6-5.2.3-5.7.3-6.4-.2zm16.1-.6c-1.7-.2-2.1-.7-1.8-2.6.3-1.5-.1-2.4-1.3-2.8-.8-.2-1-.4-1-1 0-.5.2-.7 1-1 1-.3 1.4-.3 3.2.1 1.8.4 2.3.7 3.3 1.6l1.2 1.1.6-1c.8-1.8 3.3-2.9 4-2 .5.5.2 1.5-.3 1.5-.6 0-1.7 1-1.7 1.7 0 .6.1.7.9.7l2-.4 1.6-.3c.5.2.5 0 .5-1.3 0-1.7.3-2 2.3-2.2 2.3-.2 3 1 1.2 1.7l-1 .5 1.3.1c2 .3 2.3 1.2.6 2-1.7.9-1.2 1.4 1.4 1.5 1.1.1 1.2.2 1.3.8.1 1-.7 1.3-3.4 1.3-2.3 0-2.5-.1-2.8-1.9 0-.7-.2-1.4-.4-1.5-.2-.5-.8-.2-.8.5 0 .6-.7 1.3-1.2 1.1-.6-.2-1.7.2-1.7.7 0 .7-.5 1-1.5 1s-2.2-.5-2.2-1.1c0-.5-.4-.5-.8 0s-2.3 1.5-2.7 1.4l-1.8-.2zm2.2-2.4c.4-.6 0-1.8-.7-2.2-.3-.2-.5-.2-.7 0-.3.6-.3 2.3 0 2.6.3.3 1.1 0 1.4-.4zm24.2 1c-.7-.7-1.7-1.5-2.1-1.7-.7-.4-.7-.4-1 .4-.2.7-.4.8-1 .8-.7 0-.8-.1-1-1l-.5-2c-.2-.7-.4-1-1-1.4-1.7-1-1.1-2 1.5-2.7 1.5-.4 3.3-.2 4.3.4.6.4.7.6.6 1.5 0 .6-.2 1.3-.3 1.5-.2.3.1.7 1 1.3 2.1 1.3 2.9 3.5 1.5 4-.5.2-.8 0-2-1zm-2.6-5.4c0-.4 0-.6-.3-.6-.5 0-.8.4-.6 1 .2.5.8.3.9-.4zm11.6 11.1h-1c-.4 0-.2.1.4.1.6 0 .9 0 .6-.1zm110-2.6c0-.1-.2-.1-.4 0-.2 0-.2.1.1.1.3 0 .5 0 .4-.1zm-110-1.6c0-.2 0-.3-.2-.2l-.2.4c0 .1 0 .2.2.2s.3-.2.3-.4zm9.7-.1c2.4-.4 3.6-.3 4.3.1 1 .7 2.8.3 3.8-1 .4-.5.8-1.1.8-1.4 0-.9 1.2-2.6 1.9-2.7.4-.1.7-.4.7-.8.1-1-.4-3.4-1-4.6-.5-1-.5-1.1-.2-1.5.6-.6 1.8 0 2.4 1.1.8 1.5 1.3 4 1 5.3 0 .6-.4 1.7-.7 2.4-1 1.8-1 1.8 1.1 1.6l2.5.1c1.3.5 1.4.4 1.2-5.3l-.3-6c-.2-.8-1.4-1-4.7-.6-1.6.2-5.1.5-7.7.6-15.1.6-13.8.4-13 2.2.8 2 1.2 4 1 5.2-.4 1.8-.4 5.1 0 5.5.4.4 3.8.2 7-.2zm-9.6-2.4c0-.6-.1-.8-.5-.8-.7 0-.7.5-.1 1.1.5.7.6.6.6-.3zm-107.4-3.6c.2-.3.2-.4-.4-.4-.4 0-.7.2-.7.4 0 .3.2.4.4.4s.5-.1.7-.4zm7.5.1c-.2-.1-1.6-.3-3.1-.3-2.2 0-2.8 0-2.8.3s.7.3 3 .3 3 0 2.9-.3zm5.2.1c0-.3-3.9-.2-4.2 0 0 .1.8.2 2 .2s2.2 0 2.2-.2zm-20-.3c0-.1 0-.3-.3-.3-.2 0-.3.2-.2.3l.2.3.3-.3zm45.4-5.9H76c1.4 0 2.2 0 2.6-.3 1.2-.8 0-1-12-1a296.4 296.4 0 0 1-20.6-.7l-3.8.5-3.6.4c-.3.3 1.6.6 4.8.6 5.7 0 14.2.3 15.5.6H72.5zm-35.3-1.1h-.5l.2.1c.2 0 .4 0 .3-.1zm65.8-1.7c.1-.1.2-.5.1-.9 0-.5-.2-.6-1.4-.7a102.3 102.3 0 0 0-18.7-.8c-1.1.2-2.8.2-4 0-2.7-.3-4.5-.1-4.4.5.1.5 1.2.7 1.7.3.4-.5 1.3-.3 2 .4l.8.7.6-.5c.8-.8 1.6-.9 2.7-.3 1 .4 1 .5 2 0 .8-.4 2.7-.3 3 .2l2.8.3c6.6 0 8.3.2 9.7.7 1.2.6 2.6.6 3 0zm36-.4c.5-.3 1-.6 1-.8 0 0-.7-.2-1.5-.2-1.2 0-1.5.1-1.7.6-.2.3-.3.6-.2.8.3.4 1.6.3 2.5-.4zm-79.2-1c.7-1.2 0-1.5-4.1-1.6h-3.5v.8c-.1.9-.1.9 1.7 1.2 1.5.3 5.7 0 5.9-.4zm5.3.2c.2-.1.5-.6.6-.9.1-.5 0-.6-1.3-.6-1.6 0-2 .3-1.4 1.2.3.7 1.4.9 2.1.3zm7-.5.4-.8a51.3 51.3 0 0 0-4.8.1l.3.9c.2.6.3.7 2 .7 1.9 0 1.9 0 2.2-.9zm-22.4-.1c0-1-.8-1.4-2.7-1.4-2 0-2.5.3-1.4 1.2.7.5 1.1.6 2.5.6 1.3 0 1.6 0 1.6-.4zm27-3.7c1.6-.5 2.4-.5 4.5-.5 14 .5 16 .6 18.8.4 1.7-.2 6.4-.4 10.4-.5 5.3-.1 7.4-.2 7.5-.5.1-.3-4.4-.5-8.8-.3H102a428.3 428.3 0 0 0-33 .4c-.3.4.2 1.4.8 1.7 1 .3 5 0 7-.7zm-9.6.4c.4 0 .4-.5 0-1.2-.4-.4-.8-.5-6.5-.5-6.5 0-7 .1-5.4 1.1.6.4 1.5.5 5.7.7a96.8 96.8 0 0 0 6.2 0zm3.3-6c1.2-.6 1.8-1.2 1.3-1.7a13 13 0 0 0-3.2-.1c-3 0-3 0-3.1.6 0 .3 0 .8.2 1.1.4.8 3 .8 4.8 0zm-7.5-.7v-1h-2.6c-2.7.1-3.9.5-3.3 1.1.4.4 2.6.7 4.7.8h1.2zm17.5.7c1.6-.3 2-.4 2.6-1.1 1-1 1.5-1 1.8-.2.3.5.6.7 1.7.8l2-.1c.5-.3 6.7-.3 8.2 0 1.2.3 4.2 0 5-.4.6-.2 1-.2 2.5 0 2 .5 10.2.5 10.2 0-.1-.3-.4-.4-2.3-1-1.5-.5-3.1-.6-10-.5h-9.3c-2.8 0-8 0-11.3.2-5.1.1-6.3.2-6.7.6-.6.5-.6 1.3 0 1.6.6.4 3 .4 5.6 0zm39.1-1h-1l.4.1c.6 0 .9 0 .6-.1zm77.3-19.3c0-.8 0-1.2-.2-1-.2.2-.1 2.2.1 2.2l.1-1.2zm-4.3-4.5 3.5-.4c1.4 0 3.5-.5 4-.9.2-.3 0-.4-.8-.6a45.3 45.3 0 0 0-19 .2c-3.3.4-3.6.8-.7.8 2.5 0 4.2.4 5.5 1.1 1 .6 3.4.5 7.5-.2zm137.8 60.8a6 6 0 0 0-1.9-.1c-1.6 0-1.8 0-3-.9-2-1.3-2.6-1.6-5.7-2.4-2.5-.6-3.5-.7-7.8-.7-4.6 0-5-.1-5.7-.6-.7-.6-.8-.7-.8-2.7 0-3.3.2-3.8 1.7-4.6.7-.4 2.3-1 3.5-1.4a250.2 250.2 0 0 0 10.6-4c1.6-.7 1.7-.8 2-2.1.2-.8.4-3.8.5-7 .2-10 .3-11.4.8-12 .6-.6.6-2.4 0-3-.1-.3-.3-1.2-.3-2.3l-.3-3.9c-.2-1-.2-2.6-.2-3.4.1-.8.2-2.2.1-3.1 0-1 .1-2 .4-2.5.5-1 .5-1.5 0-2.1l-.7-2c0-.9-.3-2-.4-2.4a55 55 0 0 0 .6-9.1l.3-7.5c.4-5 .4-6.2 0-7.8a6.7 6.7 0 0 1 0-3.2c.6-2.4.5-3.8-.4-5-1-1.2-1-1.8 0-2.8 1.2-1 1.3-1.6.4-2.4-1-.8-1-2.4 0-4.2.4-.8.6-1.6.6-2.3-.1-.8-.3-1-1.3-1.5-1.1-.5-1.3-.7-1.8-2.1-.6-1.6-1.6-3-2.7-3.5-.3-.2-1.6-.3-3-.3l-6.1-.4c-4.7-.4-9-.7-11-.7-1 0-1.9 0-2.4-.3l-.8-.5v1l.8 4 .8 3.6c0 .7.2 1.5 1 4.7a65 65 0 0 1 1.3 6.1c.1.2.4 1.6.8 4.7a34 34 0 0 0 1.2 5 307.9 307.9 0 0 0 1 7.3c.2 1.2.4 4.3.5 7a41.1 41.1 0 0 0 1.7 11.3l.8 3c.3.8.6 2.7.7 5.3a53.5 53.5 0 0 0 1.4 11.3c0 .2 0 1.3.3 2.5.2 1.2.4 2.3.3 2.6-.2.6.5 6 1 7.5l1 2.6c.5.7.8 1.7.7 2-.1 1-1.8 2.1-4 2.6-1.3.2-2.4.7-3.1 1.2-.6.4-1.4.8-1.8.8a28 28 0 0 0-8.5 5.2 6 6 0 0 1-1.6 1l-1.4.7c-.5.4-1.1.5-3 .5-1.4 0-2.8.2-3.5.4-.6.2-1.4.4-1.6.3a45.6 45.6 0 0 0-9-1.2c-1.5 0-4.7-1.3-7-2.9l-1.6-1c-.5-.1-2.1-1.1-3.7-2.1a22.6 22.6 0 0 0-4.8-2.8l-2.2-1-2.3-1c-1.6-.7-2.7-4-1.7-5 .5-.4 2.7-.8 8.7-1.4 8.1-.8 36.9 0 42.7 1.2 3 .6 3 .7 2.4-4a31020.8 31020.8 0 0 0-3.4-25.2c-.2-.7-.4-2-.4-2.8 0-1-.2-2.3-.4-3.2a51 51 0 0 1-.8-6.3c-.3-4.2-.4-4.8-.9-5.5-.7-1-.7-1.2-.3-3 .2-.8.2-1.7.1-2l-.3-2.5a190.7 190.7 0 0 0-2.2-13.8 12 12 0 0 0-1.3-5c-.5-1-.7-1.8-.9-3.5a16 16 0 0 0-.5-3.2l-.4-2c0-1.7-1.6-3.7-3.7-4.8a16.2 16.2 0 0 1-5.3-4.2c-1-1.4-1.2-1.7-1.2-3 0-2 1.1-5 2.3-6.2a8 8 0 0 1 2.3-1.4c1.4-.5 1.5-.6 2-2.2.3-.9.9-2 1.2-2.3l1.1-1.2c.7-.8 2.5-1.1 4.8-1 2.4.2 3.5.5 5.2 1.6.6.4 1.3.7 1.5.6l.4.1c0 .2.3 1.1.8 2 .7 1.6.8 2.2.9 4.3 0 1.4.2 2.6.4 2.8l.2 1.1c0 .5.2 1 .4 1.2.5.4 13.8.4 15 0 1-.4 1.2-1 1-4-.2-3.3-1.1-4.9-2.3-3.8-.6.5-1.7.6-2.3.1-.5-.4-.5-3.1 0-3.9 1-1.4 2.9-1.7 4.7-.8 1.3.6 1.6.6 2.3.2.4-.3.4-.4-.3-1.9-.7-1.3-.8-1.7-.5-2 .2-.3.3-1 .3-1.7s.2-2 .6-2.9l.6-2.7c0-1.2.5-1.7 1.9-1.8 1.5 0 1.8.3 2.6 3.1.3 1.3.9 3 1.2 3.8 1 2.3 1.1 2.8.5 4.1-.7 1.6-.7 1.9 0 1.6l2.3-.3c2.4-.2 4.3 1 4.8 2.8.4 1.1-.1 1.9-1.5 2.4-1.8.6-2.2 1.5-2.2 5 0 1.9.2 3 .4 3.3.4.6 3.8 1.2 6.3 1.2 1.6 0 1.8 0 2.4-.7.4-.5 1-1.8 1.4-3a8 8 0 0 1 2.4-3.9c2-2 2.6-2.4 4.8-2.6 1.6-.1 2 0 3.4.6 3.1 1.4 4.6 3.3 4.2 5.2 0 .6 0 1 .9 1.7l1.7 1.4c1.3.7 2.2 3.5 1.9 5.7-.2 1.2-.2 1.2-3.6 5-.9 1-1 1.2-.8 2.1 0 .6.3 1.3.6 1.5.7.7 1.1 2 1 3.1-.6 3.3-.6 4.2.3 5.9l.8 2c0 .5 1.6 5.2 1.9 5.5l.2 1.1c0 .5.4 1.7.8 2.6.4 1 .8 2.2.8 2.6l.2 1.7.6 2.4a21 21 0 0 0 1.4 4.7l1 2.5c.2.5.5 1.8.6 2.8.1 1.2.4 2.2.8 3 .5.7.8 1.8 1 3.3.1 1.2.5 2.8.8 3.5l.5 2.1c0 1 .7 2.5 1.8 4 .9 1.2 1 1.4 1.6 5.3.3 1.6.8 3.6 1.2 4.6.5 1.1.7 2 .6 2.5-.5 2.8-.5 2.7.3 4.4.6 1.2.8 2 .8 3 0 .9.3 1.7.8 2.8a6 6 0 0 1 .8 3.4c0 1-.1 2.1-.3 2.6-.3.7-.2 1 .3 1.6l.5 1.2c0 .5.7 2.2 1 2.4l.8.2c.8 0 1.4.8 1.4 2 0 1-.8 2-3.7 4.2-1 .7-2.5 2-3.4 3a28.4 28.4 0 0 1-3.5 3.2c0 .5 24.9-.4 27-1 1.5-.3 1.7-.3 2.5.1 1 .5 3 .4 12.7-.5 4.1-.4 11-.3 11.5.1.5.5.4 1.3-.3 1.7-.5.3-2.2.4-8.1.5a53 53 0 0 0-13.9.8c-.5.4-.5.4.3.5 4 0 5.3.2 5.8.4.7.4.8 1.2.3 1.6-.2 0-3.8.3-8.1.3l-14.3.4c-6 .2-13 .2-21.2 0-2.9 0-3.5 0-4-.5-.6-.6-.6-1 0-1.6.3-.4.1-.4-2-.4-1.9 0-2.6-.1-4-.7-.8-.4-2.4-1-3.5-1.3-1-.4-2.3-1-2.8-1.4-.8-.8-4.7-3-5.2-3-.2 0-.6-.2-.8-.5l-1.7-1c-1.5-.7-2-1.9-2.3-4.7-.2-2.4 0-3 1.1-4.4.8-.9.8-1 .5-2-.4-1.1-.3-1.6.7-2.1l.7-.4-.5-.6c-.7-.7-.6-1.8.4-3.6.4-.8.7-1.8.7-2.3 0-.6.2-1.4.7-2 .6-1 .7-1.4.7-3.2 0-1.2.2-3.2.4-4.5.1-1.3.2-3 0-3.6 0-1 0-1.3.8-2.2.8-1 .8-1 .4-1.8-.6-1-.4-2 .6-4l.7-1.5-.5-1.7c-.5-2-.3-2.7 1-4l.8-.9-.5-.8c-.5-.8-.6-1-.2-2.2.2-.7.7-1.8 1.1-2.4l.9-1-.5-1c-.5-1-.5-1.3-.3-2a13 13 0 0 1 2-4c.4-.3.5-1.2.6-3.8.4-7.3 1-9.7 2.5-9.5.4 0 .5.3.5 1.2-.2 3.8-.3 5.1-.5 5.3l-.4 3.3c-.2 1.9-.5 3.8-1 5-.3 1.3-.6 2.6-.6 3.5 0 .7 0 2-.2 2.7-.2.7-.3 2-.3 3a7 7 0 0 1-.6 3 8 8 0 0 0-.7 2.7c0 .7-.3 1.9-.6 2.6-.3.8-.5 2-.5 3 0 2.7-.9 7.4-1.9 10-.4 1.2-.6 2.4-.7 4.8-.2 2.6-.3 3.4-.8 4.5-.4.7-.8 2-1 3a17 17 0 0 1-1 2.9c-.7 1.3-.7 1.4-.3 1.8.7.5.6 2.1-.3 3.2-.8 1.1-.8 2.6 0 3 .6.5 3.8.5 10.1.1 4.5-.2 4.6-.3 4.6-2.9 0-1.8 0-2.1.7-3 .7-.8 1.7-1.3 2.4-1 .7.3 1 1.5.7 3.8-.1 2 0 2.2.4 2.4.2.1 3.4.3 6.9.4l6.4.2v-4.5a14 14 0 0 0-.8-5.7c-.3-.4-.6-1.3-.7-2a58.4 58.4 0 0 1-1.7-11c0-.8-.1-1.2-.7-1.7-.5-.5-.6-.8-.6-1.7a9 9 0 0 0-.3-2.5l-.6-2.4c-.1-.6-.3-1.1-.6-1.3-.4-.4-1.3-3-1-3.4a8 8 0 0 0-.7-2.4c-.5-1.5-.8-2.7-.8-3.7 0-1.3 0-1.7-.6-2.4a6 6 0 0 1-1-2.2 7611.5 7611.5 0 0 1-1-3.7l-.4-1.6c0-.7-.4-1.6-.7-2-.3-.7-.5-1.4-.5-2.4 0-.8-.2-2.1-.5-2.9-.3-.7-.7-2.2-.8-3.3-.2-1-.6-2.2-.9-2.7-.3-.4-.6-1.4-.7-2.4-.2-1.4-.4-2-1-2.6-.7-.7-.9-1-.9-2 0-.6 0-1-.2-1-.2.2 0 3.8.6 6.4l.4 3c0 .6.3 1.8.6 2.8.2 1 .5 2.6.5 3.4l.2 1.7c.4.4.8 5.1.5 7.6l-.1 4.7a7 7 0 0 1-.4 3.3l-.5 1 .7 1c.6.6.8 1 .8 2l.3 2.3c.6 2.3-.5 4.6-2 4.3-1.8-.5-2.6-2.2-2-4.3a51.6 51.6 0 0 0 1.1-5.1c-.6 0-1.5-1.2-1.5-2.1-.2-2.5 0-3.2.7-3.9.5-.4.7-1 .9-1.9.3-2.4-.2-8.4-.9-9.7v-1.4a2 2 0 0 0-.3-1.5 12 12 0 0 1-.7-4c-.2-1.9-.5-3.8-.8-4.7-.5-1.3-.6-1.4-1.2-1.3-.8.1-1.1-.6-.9-2.6l.2-6.2c0-2.6.2-5.2.4-5.8.2-1 .2-1.2-.4-1.8-.6-.6-.7-1-.7-2s0-1.1 2.6-3.4c3.1-2.9 3.5-3.6 2.6-5.2-.9-1.6-1.4-1.8-2-.9-.5.6-.8.7-1.4.6h-1.6c-1.3.3-1.7.2-2-.7-.4-.7-.3-1 .1-1.8.5-1 .5-1.2.3-2-.4-1.1-.9-1.6-1.8-1.9-.6-.1-.8 0-.9.5-.2.8-.2 2.4 0 4 .1 1 .3 1.2.8 1.4.8.2.8.6.1 1.2-.4.3-.4.6-.2 1.7l.4 3.2c.1 1.9 0 2-.5 2.5-.8.6-2.9.6-5.3 0l-5.8-.8c-4.8-.4-6.6-.2-7.1 1l-.3.9c0 .4-2.5 2.8-2.8 2.8-.1 0-.4.2-.6.6-.3.4-.2.7.6 2.4 1.2 2.5 1.3 3 .8 4.8a9 9 0 0 0-.2 3.4c.2 1.6.1 1.8-.6 3-.7 1-.9 1.5-1 3.5a65 65 0 0 0 0 6.3 511.2 511.2 0 0 1 .4 28.6c-.5 1-.5 1.2-.3 1.7.2.4.4 2 .4 3.8 0 1.7.3 3.9.4 4.8.3 1.3.3 2 0 3.3-.2 1.1-.2 1.7 0 2.1.2.3.3 1 .2 1.7v1.9c.5 1.1.6 5.2.3 8.1a30 30 0 0 0 1 10.8c.4 1 .6 1.2 1.8 1.5l3.7 1.1c1.4.4 3.3.9 4.3 1 3.3.4 5 1.7 5.4 4 .5 3 1.2 3.4 5.9 3 3.5-.2 4.5 0 4.3 1.2 0 .5-.4.9-1.3 1.4-1.2.8-1.3.8-5.6.9-4.2 0-4.4 0-5.2.7-.8.8-1 .8-6.6 1.2-2.7.2-3.3.4-5 1.2-2 1-3.2 1.2-3.6.8zm-.3-3.6c.3-.3.4-1 .4-1.8 0-1.2.1-1.3 1.2-2 .6-.5 1.6-1 2.2-1.1l2.2-.6 3.5-.2c2 0 2.4 0 3.4-.6s1.3-1.3.8-1.6l-2.1-.5a12 12 0 0 1-2.4-.5l-2-.3c-1.6 0-1.6 0-1.6.6-.1 1-.6 1.7-1.4 2.3l-.9.6c-.2.4-7.1.3-9 0-2.3-.5-2.9-1-2.9-2s0-1-1.2-1c-1.5 0-3 .5-3.5 1-.7.6-.3.7 4 1.3.4.1 1.3.5 1.8.9.8.6.8.7.7 1.7l-.1 1.2 2 1 3 1.6c1.4.8 1.4.8 2 0zm60-4.3h-.8l.4.1c.4 0 .6 0 .4-.1zm8.4-.6h-1.9c-.5.1 0 .2 1 .2s1.4-.1.9-.2zm4.6 0c-.3-.2-.9-.2-1.3 0-.6.2-.6.2.6.2 1 0 1.2 0 .7-.2zm-38.2-4.9a4 4 0 0 1 3.4-1.7c.6 0 .9-.2.9-.4 0-.5-.5-.6-.7-.1-.2.3-1.6.2-8.8-.3-1.8-.1-3.4-.2-3.6-.1-.3 0-1 1.3-1 1.7l.5.2 2.2.7c1.8.7 4.3 1.1 5.7 1 .6 0 1-.2 1.4-1zm-40.8.2c.2-.3.4-.8.4-1.3 0-.6-.2-.9-.6-1-.9-.2-1.3 0-1.3 1a3 3 0 0 1-.4 1.4l-.4.6 1-.1c.5-.1 1.1-.4 1.3-.6zm7.2.4c0-.1-.3-.2-.8-.2l-.8.2c0 .2.4.3.8.3.5 0 .8-.1.8-.3zm23.3-2.5c-.1-.6-.4-.9-1.9-1.4-1.7-.5-4.3-.8-4.5-.3-.3.4 4.3 2.3 5.8 2.4.8 0 .8 0 .6-.7zm-71.2-1.2.7-1.3c.4-.8.4-.9 0-1.2-.4-.3-.5-.4-.2-.7.3-.3.9 0 .9.5s0 .5 2.4-.7c2-.9 3.3-1.8 2.7-1.9a73 73 0 0 0-7.7 0c-1.8 0-2 .1-2 .7 0 .4.3.8.5.8.3.2.3.4.2 1.3l.1 1.8c.5 1.1 2 1.6 2.4.7zm-9-1-.8-1.4c-.4-.6-.5-1-.4-2.1l.1-1.3-4.6.1c-2.5 0-4.7.2-4.8.3-.2.3.5.8 2.3 1.8l3 1.6c1.7 1 3.8 1.7 4.7 1.8.5 0 .6-.1.4-.7zm96.5-.6c3-.2 7.3-1.1 8.1-1.7.5-.3.4-.3-.2-1-.6-.7-.7-.7-3.9-.7-1.8 0-4.1 0-5.2-.3-3-.5-10.3-.2-10.3.4 0 .2.3.7 2.4 2.9.7.7.8.7 3.4.7 1.5 0 4-.1 5.7-.3zm-44.4-1.6c-.1-.2-.2-.1-.2.2 0 .3 0 .4.2.3v-.5zm-49.6-1.4c-.1-.7-1.2-1.4-1.5-1.1-.3.2 1.3 2.3 1.5 2v-.9zm24.4-3.3c2-.3 2.6-.5 3.3-1.1.9-.7 1-.8.5-1.1-.3-.2-1-.4-1.4-.4a80.8 80.8 0 0 0-16-1.6l-20.6-.4c-.6-.3-10.2.4-11.6.7-1.4.3-1.6.5-1.2 1.2.2.3 1 .4 4 .5 4.6 0 6.5.3 7.5.8.8.4 4.2.6 8.5.4 2.2-.1 2.4 0 2.9.5.5.6.5.6 8 .8 8.5.2 12.5.1 16-.3zm26.6-79c.2-.2.3-.4.2-.5-.1-.2-1.8.6-1.8.9 0 .3 1.3 0 1.6-.4zm1.5-8.1c1.3-.5 1.6-.8 2-1.7.6-1.2.6-1 .4-9.4a28 28 0 0 1 .2-8.3c.2-1 .6-2 .7-2.1.3-.4.3-.7-.2-.7-.2 0-.4.2-.4.5 0 .5-.7 1-1.3 1.1-.3 0-.9-.3-1.3-.7-.5-.4-1-.6-1-.5l.1 1.3c.4 1.6.6 6.1.3 6.5-.2.1-.4 1.7-.5 3.5-.3 4-.6 5.8-1.2 8.4-.8 3-.6 3.1 2.2 2zm18.7-4.8c1.3-.4 1.4-.4 1.3-1.3 0-.5-.2-1.2-.4-1.7l-.2-.9-.8.7c-1 .7-2.3.9-3.6.3l-3.1-.5a20 20 0 0 1-4-.7c-2.3-.8-2.9-.7-3 .5-.2 2 .6 2.6 3.3 2.6 1.5 0 4.4.6 6 1.2 1.1.4 2.2.3 4.5-.2zm-52.2-3.5c.3-.9.7-2 1-2.3a11.6 11.6 0 0 0 .8-7.5l-.2-.6c0-.5-1.6-2.2-2-2.2-.4 0-1.2 1.3-1.2 1.9 0 .1.4.9 1 1.6l.8 1.8c0 1.2-1.6 1.5-3 .6-.7-.4-1.3-.5-2.8-.5-1.8.1-2 .2-2.8 1-1 1-1.2 2.2-.3 3.4.7 1 2 1.6 3.7 1.6 1.8 0 3.7 1.1 3.7 2.1l.3 1.2c.3.7.3.7.4.1l.6-2.2zm26.2 1c1.2 0 1.5-.3 1.6-1.4 0-1.6-.5-1.9-1.9-1.2-.7.4-1.3.4-4.2.2-1.8-.2-5.7-.4-8.6-.4-3 0-5.5-.2-5.8-.3-1.1-.5-2 1.8-1 2.8.4.6.5.6 9.6.4l10.3-.2zm26.7-7.8c0-.6 0-.6-.4 0-.2.2-.4.8-.4 1.3v.8l.4-.8.4-1.3zM301.6 19c0-.1-.1-.3-.3-.3-.1 0-.2.2-.1.3l.3.3.1-.3zm23.2-2c.1-.8 0-1-.6-1-.5 0-.6.2-.6.8 0 1 .2 1.2.7 1 .3 0 .5-.3.5-.9zm2.1-8.4c0-.2-.1-.1-.1.2v.3c.2 0 .2-.3.1-.5zM387.4 136c-2-.1-2.5-.2-2.9-.7-.8-.9-.2-1.4 1.7-1.4h9.7a269.1 269.1 0 0 0 16.6-.6 96 96 0 0 0 13.7-.7c1.4-.4 1.1-.4-4-.3l-7.6.2-10.3.2c-4.5 0-9.2.2-10.5.3-2.4.2-3.7 0-4-1-.4-1 .4-1.2 5.8-1.3 2.9-.1 5.2-.3 5.2-.4 0 0-.2-.4-.5-.6-.7-.7-.7-1.4 0-1.6l6-.3a76.3 76.3 0 0 0 4.1-.4l-2.4-.1c-1-.2-1.3-1-.8-1.7.5-.4.3-.4 11-.8l7.5-.4 7.5-.3c11.6-.2 14.6-.3 15.8-.5 2.2-.3 4.9.9 4 1.7-.1.2-.8.4-1.4.5l-1.1.1.6.5c.3.3.8.5 1.2.5.6 0 1 .5.7 1-.1.2-1 .4-2 .5-1 .2-1.3.3-.8.3a9 9 0 0 1 2 .4c.7.2 1 .4 1 .9 0 .3-.2.6-.6.7-3.4.8-4.3.9-9.8.9-4 0-5.9.1-6.1.3-.3.2-.9.3-1.8.1-1.9-.2-2.2 0-1.7.9.5.8.5 1.5 0 2-.3.2-1.4.3-4.4.2l-5.9-.1a630.1 630.1 0 0 0-30.2 1h-5.3zm18-5.7c.1-.1 0-.2-.5-.2-.4 0-.6 0-.5.2 0 .2.3.3.5.3s.5-.1.5-.3zm8.4 0h1.2l-1.4-.2c-1.8-.2-6.3 0-5.9.2.4.3 1.4.2 6 0zm21.8-.4a71.3 71.3 0 0 0 8.7-.6c.4 0 .7-.1.7-.3 0-.1.3-.3.6-.3.8-.2-5.6 0-8.7.2l-12.7.5c-4.7.2-6.3.3-6.7.6-.3.3.4.3 5.3.2l12.8-.3zm12.4-1.3c-.2-.1-.6-.1-.8 0h.8zm-32.9-1.2-.2-.2c-.2 0-.4 0-.5.2 0 .2 0 .3.3.3.2 0 .4-.1.4-.3zm6.6-.2c2.8-.2 3.3-.6.6-.6-3 .1-4.8.3-4.8.6s1 .3 4.2 0zm19.6-.3c2-.2 3.6-.4 3.7-.6l2-.3c1.1 0 .5 0-1.7-.2l-8.5.1-11.7.4c-.5 0-.7.2-.7.4 0 .4 1 .4 6.6.4 3.7 0 8.3 0 10.3-.2zm-80-8.6c-.8-.8-.9-1.3-.2-2.8.7-1.4.7-2.6.2-2.8-.6-.2-1.2-1.5-1.2-2.3 0-1.1.5-2.5 1.3-3.5.7-1 .8-1.2.7-2.2-.1-1-.4-1.4-1-1.9-1.1-.8-1.3-1.6-1-3.1.7-2.3 1.5-3 2.4-2 .1.2.6.3.9.3 1.2 0 1.5 1.6.8 3.5-.4.9-.4 1 0 1.6.2.5.3 1.5.2 5.4 0 2.6 0 5.2.2 5.8.3 1.2-.1 3.5-.7 4.2-.7.7-1.9.6-2.7-.2z"/>
</svg>
