<?xml version="1.0" encoding="utf-8"?>
<svg xmlns="http://www.w3.org/2000/svg" xmlns:svg="http://www.w3.org/2000/svg" version="1.1" viewBox="0 0 161 135">
  <title>In the dark kitchen, the light of the moon falls on the shut door of the large oven.</title>
  <path d="M44.7 134.5c-.1-.1-5.2-.2-11.4-.2a757.8 757.8 0 0 1-25.2-.1c-.8.1-2 0-3.4-.2-2.2-.4-3.3-1-3.3-1.6 0-.2-.3-.7-.6-1-.6-.8-.6-1-.7-7.3v-18.7c.1-3.2.3-16.6.3-29.7 0-13.2.2-30.3.3-38A330.6 330.6 0 0 0 .3 4.5c0-2.1.1-2.6.6-3.4.3-.5.9-.9 1.3-1a1920.9 1920.9 0 0 0 57.9.7C88.7.8 126.6.7 126.8.8l-.4 1.6c-.4.8-.7 2-.7 2.7 0 .9.1 1 .6 1 .7 0 2.6-1.8 3.7-3.6l.9-1.6h3.8c8.4-.2 12.3-.1 17.7 0 8.6.5 8.4.2 7.9 10.7a510 510 0 0 0-1.2 46.7 1076.3 1076.3 0 0 1-.3 37c.1.6.3 3.6.3 8.6 0 4.2 0 9 .2 10.5.1 2 0 3.2-.2 4.2l-.4 2.5c0 1.4.5 5.4.8 6 0 .3 0 1.8-.2 3.3-.4 3.3-.6 3.6-3 3a171 171 0 0 0-23 .5 125.2 125.2 0 0 1-16.4 0c-3.8 0-8.7-.2-10.8-.3-2.7-.2-4.1-.1-4.6 0-.5.2-4.7.4-11.8.5-6 0-13.6.2-16.8.3-9.2.2-28 .3-28.2.2zM74 131c0-.1-.6-.6-1.4-1-.8-.5-1.5-1-1.5-1.2 0-.1-.3-.4-.7-.6l-1.7-.8-3.1-1.7-3.8-2.3a51.2 51.2 0 0 0-11-6.1c-1-.5-1.7-.6-2.2-.5-1.5.3-2.7-.5-3.6-2.3l-.9-2c0-.7-1.3-2.6-2-3-.4-.1-.6-.5-.6-.8a14.3 14.3 0 0 0-4.1-6.6 23 23 0 0 1-2.5-2.5l-.8-1.1-3.2-.2c-2.5-.1-3.4-.3-4-.7l-1.2-.6c-.3-.1-1-.7-1.4-1.2a4 4 0 0 0-1-1c-.2 0-.4.2-.6.6-.4.9-.9.5-.7-.5.2-.8.1-1-.8-1.6a6 6 0 0 0-1.2-.7c-.1 0-.2 1.2-.2 2.8 0 1.5 0 2.9-.2 3-.3.5-.6 0-.6-1.1 0-1.3-.3-2-1-1.7-.2.1-.3.6-.4 2l.2 5.5 5.7.3c5.8.1 6.9.2 6.9.7a168.3 168.3 0 0 0-9.1 0h-3.2v1.9h5.6c4 .2 5.7.3 6 .6v.3a958.2 958.2 0 0 1-13.6.3c-1.4 0-1.6-.1-1.6-.6 0-.4.2-.5 1.3-.5 1.4 0 1.7-.3 1.3-1.3-.2-.6-.3-.6-3.9-.7-1.3 0-1.9 0-2 .3l.1 3.7c.2 3.4.2 4-.3 4-.2 0-.2.3-.4-4.4-.2-3.4-.2-3.6-.7-3.6-.5 0-.6.2-.6 5.8l.2 7c.2 1.4-.1 2.3-.5 1.6-.4-.6-.7-6.2-.5-10.5.2-4 .2-4-.3-4s-.6.2-.6 1.5c0 .9-.2 1.5-.4 1.4-.1-.1-.3.5-.4 1.3-.2 2-.6 1.7-.8-.5-.1-1.5-.2-1.6-.3-1-.3.7-.1 4.6.2 8.4.2 1.6.1 1.8-.2 1.8-.2 0-.5-.2-.6-.4-.1-.6.1 4.7.3 6 .1.9.1 1-.2 1-.5-.2-.7-1.5-.9-6.1-.2-3.3-.1-3.7.2-3.6.4.2.5-.7.5-8.2.1-10.1-.2-15.5-.9-15.6-.4 0-.5.4-.5 7.3L3.6 114c-.1 9.2-.1 9.4.5 11.2.5 1.4.8 1.9 1.3 2.2l1 .7c.1.5.8.8 3.8 1.4 2 .5 3.3.6 6.8.5h4.3l.2-.8c.1-.5 0-.9-.3-1.4l-.6-.7.6-.1c.7-.2.7-.3-.3-1.4-1.4-1.6-.3-2.3 1.3-.7l1.1 1c.5 0 .3-.6-.5-1.2-.5-.3-1.5-1.2-2.3-2-1.2-1-1.5-1.4-1.2-1.6.4-.5 1.3 0 4.2 2.5 6.4 5.4 7.5 6.2 8.4 6.4l1-.1c0-.3-1.3-1.4-2.6-2.3l-2.5-1.7c-4-2.7-8.9-7-8.6-7.5.4-.6 1-.1 4.5 2.6a193 193 0 0 0 10.5 8.2c1 .7 1.8 1.1 2.2 1.1.8 0 .8 0 .3-.5a116.5 116.5 0 0 1-13.5-10l-1-.7c-.7-.4-1-1.5-.4-1.5.5 0 3 1.6 5.5 3.7 4.2 3.4 4.7 3.8 5 3.7.2 0-1-1.2-2.9-2.6-2-1.6-3.2-2.7-3.2-3 0-.9 1-.5 3.7 1.7l3.4 2.4 2 1.6c2.3 2 6.1 5 6.7 5.3.8.3 1.1 0 .6-.5l-3.5-2.8-3.7-3c-.4-.2-.5-.4-.3-.7.5-.4 2 .5 6.2 3.9 3.1 2.4 4 3 4.7 3h.9L45 129c-2.5-1.8-4-3.3-4-4 0-.6-1.6-2-3.3-3.2a4 4 0 0 1-1.1-1.4c-.3-.6-1.1-1.6-2-2.3-1.2-1.1-1.3-1.3-1-1.7.3-.2.5-.6.5-.7 0-.6 1-.4 2.1.5 2.1 1.6 2.5 1.6.8 0-1.7-1.5-2-2.2-1-2.2.7 0 2.1.8 4.4 2.5 2.2 1.5 4.7 3 5 3l-.7-.7c-1-.9-1-1.5-.2-1.4.3 0 3.2 1.9 6.5 4l9.3 6.3a17 17 0 0 0 3.3 1.9l1.6.7c.2.3.5.4.7.3a99 99 0 0 1-4-3.1 20 20 0 0 0-2.6-1.6c-1.1-.5-1.7-1.1-1.3-1.5.3-.3 2 .5 3.7 1.6 2.7 1.9 4.5 2.9 5.3 3 1 .2 3 1.3 3 1.7 0 .3.7.5 2.5.5.8 0 1.5 0 1.5-.2zm-45.5-18.1-3.2-.3c-3.1 0-4.6-.5-3.6-.8.6-.3 8.2 0 9.3.3 1.2.4.9.7-.8.8h-1.7zm13.1-2.6.1-.2c.2 0 .3 0 .3.2l-.1.3-.3-.3zM21 109.1a.9.9 0 0 1-.2-.5c0-.3 1.2-.4 5.5-.3 5 0 6 0 5.3.6-.3.2-10.4.4-10.6.2zm105 18c.1-3.8 0-4.8-.4-4.5-.2.1-.3 1.3-.3 2.8 0 1.5-.1 2.6-.2 2.6-.3 0-.6-1.4-.6-3 0-.6-.2.2-.3 1.8-.2 2.6-.5 3.7-.9 3.3l.2-4.6c.3-4.5.2-5.4-.3-5.4-.2 0-.3 1.8-.4 5 0 3.7-.1 5-.4 5-.2 0-.3-.4-.3-2.2.1-5.5 0-8-.2-8-.2.2-.3 1.7-.3 3.9 0 3.9-.2 5.6-.6 5.6l-.4-.6c0-.2-.2-.5-.4-.5a57.6 57.6 0 0 1 .8-14c.3-3.9.7-3.3.6.7 0 2.3 0 3.3.2 3.3s.3-.2.3-.4c0-.7.5-.5.6.2.1.8.9.9 1 .1.3-.7.7-.4.9.5l.1-1.3c0-1.9.6-2.6.6-.8 0 2.7.1 2.8.7 3 .6 0 .6 0 .6-2.4v-2.4l-.8-.4c-1-.5-1.5-.4-1.6.6-.1.6-.2.6-.2-.2 0-.5-.3-1.3-.6-1.7-1-1.3 0-1.6 1.8-.5 1.3.8 1.7.8 1.6 0 0-1.2 0-2 .4-2 .2 0 .2.5.2 1.5-.1 1.4 0 1.5.4 1.5s.7 0 .7.4c.1.3.3.6.5.6s.3-1.1.3-3.3v-3.2l-2.2-1c-1.6-.8-2-1.1-2-1.5 0-.4.1-.6.5-.6s2.6 1 4.8 2c1.4.8 1.4.8 2-3 .2-2.3.7-1.5.7 1.5l.1 2.8.8.3c.4.1.6 0 .6-.4 0-.3.1-.6.3-.7.3 0 .4-.4.4-.8 0-.3.2-.6.3-.6.3 0 .3-.4.4 2.8l.5 7.5c.3 6 .6 5.3.8-2 .2-5 .6-8.3 1-8.6.2 0 .3-1 .4-2.1.2-2.4-.1-2.8-1.5-2.4-.8.2-1 .3-1 1 0 2 0 2.7-.3 2.7-.2 0-.3-.9-.3-2l-.1-2-1.5-.8a45.2 45.2 0 0 0-6.9-3c-1.7-.7-2.3-1.3-1.8-1.8.3-.3 4.4 1.1 7.5 2.6 1.3.7 2.5 1.1 2.6 1l.2-1.6c0-1 .1-1.5.4-1.8.4-.2.5-1 .7-3.4.2-3.6.8-16.9.8-20 0-2 0-2.1-.7-2.1-.5 0-.7.1-.7.7l-.1 1.4-.2 6a158.3 158.3 0 0 1-2.2 19.7c-.5 0-.6-1-.6-8 0-3.7-.1-7-.2-7.2 0-.2-.4-.4-.6-.4-.4 0-.5.5-.8 4.1a511 511 0 0 0-.5 7.1c-.1 1.8-.3 3-.5 3-.5.1-.5-.9-.2-6.8.5-8.3.5-7.8-.3-8.2-1-.4-1-.4-1 .9a141.3 141.3 0 0 1-1.2 12.6c-.4 0-.4-3.1 0-6.2l.4-6.7c.2-3.8.1-4.3-.2-4.3-.4 0-.5.5-.6 2.6-.5 8-.8 10.4-1.3 9.6l.2-6c.1-3.2.2-6 0-6.3 0-.3-.4-.5-.8-.5h-.6v4.3c-.1 5.5-.3 8-.8 8.1-.3.1-.3-1.1-.1-6.2.1-4.5 0-6.4-.1-6.4-.3 0-.5 1.2-.7 4.2 0 .5-.2 1-.3 1-.2 0-.3-1-.2-2.8 0-2.6 0-3-.3-3-.4 0-.5.4-.5 2.1a28.8 28.8 0 0 1-.2 3.6c0 .7-.1 1-.4 1-.3 0-.4-.6-.4-3.3l-.1-3.6c-.3-.5-.8-.2-.9.5 0 1.7 0 2.1-.3 2.1-.2 0-.3-.6-.3-1.4 0-1.3-.3-2-.8-2-.2 0-.3.2-.3.4 0 .6-.5.5-.6-.2l-.8-4.8c-1-5.4-1-5.5-2.2-5.5h-1l.3 4.3c.1 3.5.1 4.2-.2 4.2-.3-.1-.4-1-.6-3.5-.3-5.2-.3-5.5-1-5.5-.6 0-.7.2-.8 1.1-.1 1.8-.7 1.6-.7-.1 0-.9-.2-1.6-.4-1.7l-2.4-.4a42.7 42.7 0 0 1-11.3-2.6c-.2-.1-.4.3-.4 1.4 0 1.1-.2 1.5-.5 1.5s-.4-.4-.4-1.6c0-1.2 0-1.6-.5-1.8-.7-.4-.8-.1-.8 1.4 0 1.2 0 1.5-.6 1.6l-.8.2c-.1 0-.3.2-.4.5-.2 1-.5.5-.8-2l-.5-2.6a2 2 0 0 0-.9-.2l-.6-.1v4.9c0 2.7-.1 5-.2 5.2-.6.9-.8-.3-.8-4.8l-.1-5.3c-.1-.2-.4-.4-.6-.4-.7 0-.8 1.5-.8 7 0 3.4-.1 4.1-.4 4.3-.3 0-.4.5-.4 1.7 0 1.1-.1 1.5-.4 1.5a198 198 0 0 1-1.2-15.3c-.2 0-.3 2.6-.3 7.4 0 6.7-.2 9.2-.7 8.7l-.1-7.3c0-8-.1-9.2-1-9.3h-.5V67c0 8.8 0 10.5-.6 10-.1-.1-.3-4.6-.4-10-.1-5.2-.3-9.7-.4-9.8-.2-.2-.4-.1-.6 0-.2.3-.3 2.7-.3 10.3 0 7.6 0 10-.3 10.2-.5.4-.4.6-.5-2.7a165.7 165.7 0 0 1 .2-18.2c-.2 0-.9 2-1 3.4-.1.4 0 3.6.2 7 .2 5.2.2 6.6 0 6.9a1 1 0 0 0-.2.9c0 .2 0 .7-.2 1-.3.3-.5.4-.9.1-.5-.2-.5-.2-.4.5 0 .7 0 .8-.8.9-.6 0-.9.2-1 .7-.2 1-.7.8-.8-.3 0-.7-.2-1-.4-1-.4 0-.4.3-.4 2.2.1 1.8 0 2.2-.3 2.2-.4.1-.4-.6-.6-6.7 0-4.4-.2-6.9-.4-7-.2-.3-.2-.5.1-.8.6-.6.3-1.8-.4-1.8-.5 0-.5.2-.5 2.4a88 88 0 0 1-.7 10.6c-.3.5-.6-.4-.4-1.7 0-.8 0-1.3-.2-1.3-.1 0-.3.9-.4 2-.2 1.4-.3 1.8-.7 2-.3 0-.6.4-.7 1-.3 1.7-.6.8-.6-2 0-3.3-.3-4.3-1-4.3-.6 0-.6.2-.6 3.7 0 2.3-.1 3.7-.3 3.7-.2 0-.3-1.5-.4-6.2 0-1.4-.2-2-.8-2-.3 0-.4.5-.4 2.8a9 9 0 0 1-.2 2.9c-.2.1-.3-.2-.3-.8l-.1-1.4-.1-2.4c0-1-.2-1.9-.3-1.9-.2 0-.3 1.2-.3 3.1 0 1.7 0 3.8-.2 4.5-.3 2.7-.6 1.4-.6-2.6s-.1-4.7-1-4.7c-.4 0-.4.7-.3 5v4l1.5.5 2.5.7c.8.1 1.7.4 3.2 1.2.6.3.7 0 .7-1s.7-1.7 1.2-1.2l.2 1.6c0 1 0 1.4.3 1.5l1.3.4a657.3 657.3 0 0 0 5.7 2.1c.6 0 1.1.5 1.1 1.1 0 .8-.6.8-2.4 0-1-.4-2.3-.9-3-1l-1.6-.6-1.6-.6-1.4-.5c0-.2-.3-.3-.5-.3-.3 0-1.2-.2-2-.6a8 8 0 0 0-1.9-.7l-1.7-.5c-.7-.2-1.4-.4-1.5-.3l-.1 1c0 1.3-.6 1-.7-.4-.1-1-.2-1-1-1.2-1-.3-1.2 0-1.2 2.3 0 1-.1 1.8-.3 1.9-.1.1-.2-.7-.3-2.2 0-3.2 0-3.7-.3-4-.5-.4-.7.9-.7 4 0 1.8 0 3.4-.2 3.5 0 0-.4-.3-.6-.8-.4-.8-.5-1.6-.5-4 0-1.6-.1-3-.2-3a10 10 0 0 0-.4 3l-.4 3.8c-.1.5 0 .7 1 1.1.5.3 1.9.8 3 1 1 .2 2.5.7 3.2 1 .7.4 1.8.8 2.4.9 1.1.2 1.7 1 1.2 1.4-.2.3-.5.3-1.2 0l-3.5-1.1a358.2 358.2 0 0 1-6.7-2.1c-.3 0-.4.1-.5.7 0 .5-.2 1-.3 1-.2 0-.3-1.4-.3-3 0-2.8 0-3-.3-1.6-.6 3.8-.7 5.2-.7 7 0 1.2-.2 2-.4 2.4-.4.5-.4.5-.6 0v-2.7c.2-1.8.1-2.3-.1-2-.2.2-.3.8-.3 1.3 0 1.5-.2 2.4-.7 2.6-.4 0-.5.2-.4.7.2 1 .6 1.2 1.9 1.8 2 1 1 2-1.2 1.2-.6-.2-.6-.1-.5.5.2.6.1.8-.3.9-1.2.3-.4 1.7 1.3 2.6.4.2.6.5.6 1s0 .6-1 .5c-1.3 0-1.5.2-1.5 2 0 1.1 0 1.4.4 1.4.3 0 .9.3 1.3.6a6 6 0 0 0 1.8.9c.6.2.9.4 1 .8 0 .5.4.8 1.5 1.3 3.1 1.4 6.4 3 6.8 3.4.3.3.4.5.2 1-.4.6-.6.6-2.2-.5-1.5-1-3.4-1.8-3.6-1.6 0 0 0 .4.2.7.2.3.2.5 0 .7-.4.2-2.1-1.5-2.1-2 0-.3-.4-.7-1.1-1-1.4-.5-2-1-2-1.7 0-.5-1.2-1-1.5-.7-.2.1 2 3.4 2.2 3.4l2.5 1.4 2.5 1.5a29.6 29.6 0 0 0 3.6 3.3c4.6 3.8 6 4.5 6.5 3.2.4-1 1.3-1 1.5.3.1.8.4 1 2.2 2.2 2.1 1.4 2.5 1.5 2.7.9.4-1 1.5 0 1.5 1.2 0 .6.4.8 2.4 1.8l2.5 1.1 2.9-.3a148 148 0 0 1 21.2.1l8.7.6h4.4l.1-1v-3.8c-.3-2.1-.5-7.1-.4-8.5 0-.6.6-.3.6.3a35.6 35.6 0 0 1 1 10.3l-.3 2.8h.7c.7 0 .9-.4 1-2.9 0-1.2 0-1.5-.4-1.5s-.5-.5-.5-2.3c-.1-5.4 0-6 .3-6.2.2 0 .3.6.3 2.5 0 1.5.1 3.3.3 4v-2c0-2 0-3.5.2-3.6.1 0 .3 0 .4.3a54.4 54.4 0 0 1 .2 11.6c.2.2 4.6.6 6.2.5.4 0 .5-.2.7-3.7zm-12.1 1.7c-.2-1.2.1-8.9.3-9 .6-.7.8 1.3.6 5.2-.1 3.2-.3 4.1-.5 4.1s-.4-.1-.4-.3zm-30.4-1.6-2.4-1.5c-.4-.4-2.2-1.4-4-2.3-1.8-1-3-1.7-3-2-.1-.3 0-.5.3-.5a31 31 0 0 1 7.2 3.6c2 1.4 3 2 3.7 2 .8 0 1.5.7 1 1.2-.4.6-1.2.4-2.8-.5zm28.9 0c-.2-.2-.3-1.9-.3-5.6 0-4.5 0-5.4.4-6l.7-.7a37.4 37.4 0 0 1 0 10.6c0 1.6-.3 2.2-.8 1.7zm-2.2-2.5-.2-1.2c-.5 0-.6-.8-.2-1.3.3-.3.4-.8.1-3.5-.2-2.3-.2-3.2 0-3.4.7-.7 1 .3 1 5.5 0 4.4 0 5.1-.3 5.1s-.4-.3-.4-1.2zm-2.5-1c-.2-.7-.3-6.4-.1-6.8.3-.5.5-.2.8 1.7.3 2.6.3 4.8-.2 5.2-.3.3-.4.3-.5 0zm-2.7-.3v-.8c.2-.4.2-.4.5-.1.3.5.3 1.3 0 1.3-.2 0-.4-.2-.5-.4zm-15.4-2.2c-.2-.3-.3-1.3-.3-2.1 0-1.3.1-1.7.4-1.8.8-.3 1.1.6 1.2 2.6 0 1.6 0 1.8-.5 1.8-.3 0-.7-.2-.8-.5zm8.3-.3-3-1.5c-2.2-1-3-1.4-3-1.9 0-.4 1.4-.4 2.1 0 .3 0 1.2.4 2 .8 1.7.6 3.9 2.2 3.9 2.7 0 .3-.5.7-.9.7l-1.1-.8zm7-.4c-.4-.7-.3-1.9.1-2.4s.4-.4.4 1.2c0 1.5-.2 2-.6 1.2zm-36.6-1c-.4-.2-.6-.6-.5-.7.2-.4 1.3-.3 1.8.2 1 1.1 0 1.5-1.3.5zm45.9-1.1c0-.3 0-.4.2-.2v.5c-.1.1-.2 0-.2-.3zm-51.4-1c-1.2-.6-1.6-1-1.3-1.5.2-.3.4-.4.7 0 .3 0 1 .5 1.5.8 1 .5 1.2 1.1.5 1.2-.3 0-.9-.1-1.4-.4zm2.6 0v-1l.2-1.8c.2-1.5.5-2.2 1-1.8v2.7c-.1 1.9-.3 2.4-.6 2.4s-.5-.1-.6-.5zm23-1.7-2.7-1c-2.5-.8-4.2-1.7-4.3-2.3-.1-.7.7-.8 2-.1l2.6 1c1.6.5 3 1.2 3.4 1.6.5.9-.2 1.5-1 .8zM74.6 114c0-.3 0-.8.2-1.3l.4-1.7c.2-1 .6-1.3 1.1-.8.5.4.4 2-.1 3.5-.3.8-1.3 1-1.6.3zm-5-6.5c-2-1-4-1.8-4.3-1.8-.4 0-1.4-.4-2.2-.8a51.4 51.4 0 0 1-11.5-6c-.3-.5-.2-1.2.3-1.2l4.3 2.1c4.7 2.5 5.3 2.7 5.4 1.8.2-.9 1.4-.8 1.5 0 .2 1.3.7 2 1.7 2.2l1.2.5a30.5 30.5 0 0 1 7.5 3.1c.7.4 1 .7 1 1.2 0 1-1.1.8-5-1.1zm43 .3c-1.6-1.3-3.4-2-4.1-1.6-.5.2-1 0-3.2-1.3a24.5 24.5 0 0 0-5.3-2.7l-1-.6a36 36 0 0 0-8.5-2.7c-2-.6-2.9-1.4-3-3-.2-1-.1-1.3.3-1.8.5-.5.5-.8.2-6-.3-5.5-.3-5.5.2-6 .4-.3.6-.6.5-1-.2-.7 1.2-2.7 2-2.9.4 0 1.2-.3 1.8-.5 2.2-.8 14.2-.4 15.6.6.2 0 .5.4.6.8.2.4.7.9 1.7 1.3 1.6.7 2 1.4 1 2-.5.2-.8.2-1.3-.1a5 5 0 0 0-1.8-.6c-1.1 0-1.2 0-1.2.5 0 .4-.2.8-.4 1l-.4.5c0 .2 1.8 1.3 3.2 1.9.7.2 2 1 2.7 1.5l1.5 1.1c.2 0 2.3 2.9 2.5 3.5 0 .3.2.3.5 0 .6-.5.6-2-.1-3.5l-.8-1.8c0-.4-.4-.9-.8-1.2-.7-.5-.8-.5-1.2 0-.5.4-.7.5-1.1 0-.4-.5 0-2.5.5-2.7.6-.2 1.3.1 1.3.6 0 .2.3.5.6.6 1 .3 2.9 2.3 3.9 4l.9 1.3-.6.6c-1 1-1 2-.6 7.2.2 2 .3 4.4.2 5.7l-.2 3.6c0 1.1 0 1.5-.4 1.6-.3.1-.6 0-1-.5-.4-.6-.5-1.3-.6-6v-6.4c0-1.5-.4-2-1.1-1.7-.6.2-.6.3-.6 5.7 0 3.8 0 5.6-.3 5.7-.2.1-.2.7-.1 1.9.2 1.6 0 2.4-.6 2.4-.2 0-.8-.4-1.4-1zm.6-6.5c0-1.2 0-2.5.2-3 .2-.7.2-.9-.6-1.5l-1-.7-.3 1.5-.5 1.4c-.3 0-.4-.7-.3-2.7 0-2.2 0-2.8-.3-2.8-.2 0-.4.2-.3.5v2.7c0 2-.2 2.3-.5 2.3-.4 0-.4-.5-.3-4 0-4 .4-5 1-4 .1.4.4.6.6.5.3-.1.6 0 .8 0 .3.3 1.5.2 1.5 0l-.8-1.6c-1-1.8-1.7-2.3-2.4-1.9-.4.3-.6.2-1-.4-.3-.4-1.1-.9-1.8-1.1-.8-.3-1.2-.7-1.2-1 0-.5-.5-.7-1.6-.7-.5 0-1-.2-1.2-.3a10 10 0 0 0-2.2-.8 9.7 9.7 0 0 1-2.8-1c-.9-.7-2-.7-3.4 0-1.1.5-1.2.5-1.6.1-.3-.2-.4-.6-.3-.8.2-.6 2.1-1.5 3.2-1.5s1.3-.3.7-1c-.4-.5-.5-.5-1.6-.2l-2.4.6c-.7 0-1.6.4-2 .7-.7.6-.7.3-.1 4 .3 2.4.3 5.4-.2 7.5l-.4 2 1 1c.6.6 1.3 1 1.6 1.2a27.3 27.3 0 0 0 4.3 1.9l2.8 1.1c.1.2.7.3 1.3.3.6 0 1.9.3 2.8.6a2157 2157 0 0 1 9.1 3.2c.2 0 .2-1 .2-2.1zm-1.6.7c0-.6.3-1.1.7-1.1.4 0 .4.2.2.9-.2.4-.9.6-.9.2zm-3.9-7.3.3-4.9c.1 0 .3 0 .4.2.5.4 0 9.1-.5 9.3-.3 0-.3-.6-.2-4.6zm-1.3 2v-3.3c-.2-2-.2-2.3.2-2.2.5 0 1 5 .5 6-.4.9-.9.7-.7-.5zm-5.9-2c-1-.5-1.5-.7-1.7-.5-.5.6-1.2.4-1.8-.6-.5-.7-.6-.8-.9-.4-.5.6-.8.2-.8-1.2s.5-1.9 1-.9l.1.6.2-.6c0-.3.3-.5.4-.4.2.1.3-.2.3-.9s.2-1.1.8-1.7c.4-.4.8-.7 1-.7l.6-.4c.2-.2.8-.4 1.4-.4.8 0 1 .1 1.2.5 0 .4.3.5.7.5.3 0 .5 0 .5.3s-.2.4-.5.4c-.7 0-1 .3-1 1.7 0 1.6.9 3 1.8 3 .7 0 1.2.6.7 1-.2.2-.6.4-1 .3-.7 0-.9.1-.9.5 0 .8-.6.8-2 0zm.4-2.1c0-.3-.3-.4-.4-.4-.4 0-.3 1 0 1 .4.2.6-.1.4-.6zm-1.2-2-.3-1.5c-.1-.3-.2-.2-.4.5-.1.7 0 1.1.2 1.4.5.6.7.4.5-.5zm-7.9-2.6c-.4-.1-.5-4.2 0-4.4.6-.4 1 .2 1.2 1.9.2 2-.2 3-1.2 2.5zm22.2 6.2v-1.3l-1 .2c-1.2.2-1.4.3-1.4.8 0 .4 1.8 2 2.1 1.8.2 0 .3-.7.3-1.5zm-8.4-12v-1.3c0-.5-.8-.8-3-1.2-.8-.1-1.5-.4-1.6-.6-.2-.3-.7-.4-1.4-.4-1.2 0-1.2 0-1 .6.3.5.3.8 0 1l-.2.5 3 1c1.7.3 3.2.8 3.3 1 .5.6.8.4.9-.6zm-8 24.8c-1-1-.8-1.4.5-1 1.2.2 1.7.8 1.5 1.4-.2.6-1.1.4-2-.4zm-9.3-1-.3-1.2c0-1-.6-1.4-3.5-2.5-4.4-1.5-7-3.3-4.5-3 1 .2 3.3 1.1 7.4 3L91 104c1.3.6 1.8 1 1.8 1.3 0 .7-.8.7-1.6 0l-1.4-.7c-.7-.2-.7-.1-.5.8.1.8 0 1-.3 1-.2 0-.5-.3-.7-.6zm-14.6-8.5L72 97c-1.6-.4-2.3-1-1.7-1.5.2-.3.7-.2 2.3.2 2 .4 2 .5 2.2 1.2 0 .6 0 .7-.4.7-.3 0-.6 0-.7-.2zm5.6-16.7c0-.2.1-.3.3-.3.2 0 .2.1.1.3l-.3.3v-.3zm27-10.8c-.1 0-.3-.6-.3-1.1 0-.6-.2-1.6-.5-2.4-.5-1-.5-1.4-.3-1.7.5-.5 1.2.1 1.7 1.7.5 1.5.5 3.5 0 3.6h-.5zm23.4 60.4c.3-1 .2-1.7-.4-1.7-.5 0-.5-.2-.5-2.9 0-3.6 0-3.5-.4-3.5-.3 0-.4.3-.4 1.3 0 .8.1 1.4.3 1.5a9 9 0 0 1 .2 3c0 2.5 0 2.7.5 2.7.3 0 .6-.2.7-.4zm1.7-6.3c.1-7 .1-7-1-7-.5 0-.5.3-.5 3.3s0 3.4.5 3.9c.5.4.5.6.4 3.5-.1 2.3 0 3 .2 3s.3-1.5.4-6.7zm1.9 6.5c.2-.2.4-1.1.5-2.8.2-3 .1-4.1-.4-4.3-.2-.1-.4-.6-.4-1.2 0-1.7-.3-4.3-.5-4l-.2 6c0 3.1-.1 5.9-.2 6-.2.5.5.6 1.2.3zm-76-.6c-.6-.6-.9-.5-.6.1 0 .2.4.4.7.4h.6l-.6-.5zm3.7.2c0-.2-1-.9-2-1.6a52.6 52.6 0 0 1-4-3 56 56 0 0 1-4-2.4c-.6-.3-1.3-.7-1.5-1h-.5l2.9 2.2c1.6 1.2 4.1 3 5.5 4.2 1.5 1.2 2.7 2 3 2 .5 0 .7-.2.6-.4zm66.5-1.4c0-1-.1-1.7-.3-1.7-.1 0-.3.4-.3.9l-.1 1.7c-.2.7-.1.8.2.8.4 0 .5-.3.5-1.7zm8.8.4c-.1-2.7-.8-9.5-1-9.6-.3-.4-.4 1.7-.4 6.3v4.7l.8-.1c.6-.1.6-.2.6-1.3zm2 1-.1-1c-.1-.2-.2-4.4-.2-9.4s0-8-.1-6.9l-.4 8.4c-.1 3.5-.2 7 0 7.8 0 1.4.4 1.8.7 1zm3-1.6c.4-3.3.5-10.1.2-11.3-.2-1-.2-1-.3 1.6a110.2 110.2 0 0 1-.7 11.2c0 .3 0 .4.3.3.2-.1.4-.7.5-1.8zm2.5 1.8.6-.4c0-.1-.2-.2-.4-.1-.2 0-.6 0-.9-.2-.5-.2-.6-.5-.6-2.8v-2.6l-.2 3v3c0 .3.7.3 1.5 0zm5.1-.5c.6-.2.6-.4.4-2.5-.5-8-.4-19.9.2-19.9 0 0 .2 2 .2 4.3 0 7 .5 2.6.8-8.7a114.1 114.1 0 0 1 .9-14c-.3-.4-1 .7-1 1.8 0 .5 0 1-.2 1a41 41 0 0 1-.3-7.3c0-4 0-7.9-.2-8.4l-.2-1.1-.2 1.5c-.3 2.2-.5 1.6-.4-1.1 0-2 0-2.4-.4-2.6l-.6.1V77l.2 8.3c0 2.4.2 4.4.3 4.4.1 0 .2-.7.2-1.5 0-1.6.3-2.5.7-2a736.9 736.9 0 0 0-1 33.8c0 2.3 0 3.9-.3 5.8l-.3 3.2c.3.9-.7.9-1.1 0-.4-.9-.8-.9-1 0-.3 1.2 0 1.4 1.4 1.1.8 0 1.6-.2 2-.3zm-9.3-1c-.1-.4-.2-.1-.2.4 0 .6 0 .9.2.6v-1zm-116-.5c-.6-.7-.8-.4-.2.4.3.4.5.6.6.4 0-.1-.1-.5-.4-.8zm129 0c.2-.4.3-1.7.2-4.2-.2-2.3-.1-4.4 0-6 .3-1.3.4-4.2.5-6.5 0-2.7.3-5.2.6-7.1.7-3.8.8-11.7.2-11.1-.2.1-.4.7-.5 1.1-.5 3.2-.7 5.6-.8 11a170.3 170.3 0 0 1-1 15l-.4 5.8-.2 3.1.6-.3c.3-.1.7-.5.8-.8zM49.1 127c-.2-.3-.9-.8-.9-.5 0 .2.8.9 1 1l-.1-.5zm90-4.3c.1-.9.2-1.2.6-1.3.4-.1.6-.5.7-2 .3-2.6 0-8.6-.3-8.9-.1-.1-.4-.3-.7-.3-.5-.1-.5.3-.5 8v6.8c.2-.6.3-1.7.3-2.3zm6.4 2.6c.2-2.6.3-15.3.2-19.3a103.3 103.3 0 0 1 .2-14.6l.2-2.7-.3 2.2c-.6 5.4-.7 4.3-.7-7.5 0-12 0-12-.6-12.6-.8-.7-1-.7-1.2 0 0 .4-.2 6.3-.2 13-.2 12.5-.3 14.2-.8 14.2-.1 0-.2-4.8 0-13.7.1-9.8 0-13.8-.1-13.8-.4 0-.6.7-.7 4.1l-.4 7.6a200.7 200.7 0 0 0 0 18.4c0 .3 1.5 1 1.7.8.3-.2.6-4.8.6-7.8 0-2.1.1-3 .3-2.9.4.1.4 2.9.1 8l-.2 3 .8.6c.8.8.7 1.6 0 1.6-.4 0-.5.3-.4 2.7.1 2.1.3 2.7.6 3 .5.3.5.6.2 3.3-.3 3.6-.4 12.5-.2 13 .3.4.8 0 .9-.6zm2-1.5c.2-1 .2-1.7 0-1.7-.3 0-.6 1.5-.6 3 0 1.6.4.7.7-1.3zM48 124a47.3 47.3 0 0 0-9-6.2l1.8 1.5c1 .7 3 2 4.3 3.1 2.4 1.8 3 2.1 2.9 1.6zm95.5-12.3c-.1-.3-.5-.4-1.1-.4h-1v2c0 1.5.1 1.9.4 1.8.6-.2.7.4.9 4.9l.2 4.1.3-6c.3-3.3.3-6.2.3-6.4zm2.9 10.8-.1.4v.5-1zm5-6c1-11.3 1.7-28.1 1.2-29-.3-.4-.3-.3-.3.5l-.5 5c-.2 1.5-.3 4.9-.3 7.5l-.3 8.7a189 189 0 0 0-.4 14l.6-6.6zm-16.9 3.7c0-1-.2-1.6-.4-1.7-.3 0-.3.4-.3 1.8l.1 2.2c.4.4.7-.7.6-2.3zm-9.8.8c-.1-.2-.2-.1-.2.2 0 .3 0 .4.2.3v-.5zm1.6 0s-.2-.2-.5-.2-.5.1-.5.3c0 .1.2.2.5.2s.5 0 .5-.2zm20.8-4v-2.5c-.3-.6-.3-.5-.4.9l-.1 3.4c-.2 2.5.3.9.5-1.8zm-18 2.1c.2-1.4.1-3-.2-3-.2 0-.3 1-.3 2.1-.1 2.2.3 2.8.5 1zm-1.2-1.5c0-1 0-2-.2-2.2-.2-.2-.3 0-.3.8l-.1 2.3c0 .8 0 1.2.2 1.2s.3-1 .4-2zm7.6-1.6v1-1zm-1-2.2c0-3.2-.1-3.8-1-3.8-.3 0-.3.5-.1 3.2.1 3 .3 3.9 1 3.9 0 0 .2-1.5.2-3.3zm-1.8 0-.2-1.6v1.9l.1 2c.3.4.4-.6.1-2.3zm-1-1.4c0-3.3 0-3.5-.6-3.6h-.7c-.1 0-.3 1.4-.3 3 0 2.5 0 3 .4 3.5 1 1 1.1.7 1.1-3zm23.2-3.2c0-3.7-.1-5-.3-3.9-.2 2.3-.2 10.5 0 9.8.2-.3.3-3 .3-6zm-7.1-3.3a156.2 156.2 0 0 1 .2-11.4l-.5-10c-.3-10.7-.4-11.5-.7-12-.8-.6-.9.3-.9 7.4 0 6.2 0 7.3.4 7.3l.5.2c.1.1 0 2-.1 4.2-.5 7-.3 16.7.4 19 .5 2 .7.8.7-4.7zm-4.5 1-.2-3.3c-.1-.4-1.6-1.2-1.9-1l-.2 2.4c-.2 3.4.3 4.7 2.1 5 .1 0 .2-1.4.2-3zm-3-1.3c0-2.9-.2-3.8-.7-3.8-.2 0-.8 6-.6 6.6 0 .4.3.5.7.4.5 0 .5-.2.6-3.2zM6.9 101.9c0-2.4 0-3-.4-3-.3 0-.3.3-.2 1.2a195.5 195.5 0 0 1 .5 4.7l.1-3zm10 1-.3-.5c-.3-.2-.4-.8-.4-1.6 0-.7 0-2.2-.2-3.3l-.2-2h-1.4c-1.5 0-1.8.2-1.5 1.2.1.6.3.7 1.3.7s1.7.3 1.3.7l-1.2.3-1.2.2.1 2 .2 2.2c.1.4 3.2.5 3.4.1zm-8-.6.4-.6.2.6c.2.7 1 .7 1 0v-2l-.1-1.6H7.7v2.1c0 2.3.3 2.7 1.2 1.5zm3.6-.7c0-2-.3-3-.8-3s-.5.3-.5 2.2c0 2 0 2.1.6 2.1s.7 0 .7-1.3zm127.9-1.7c.3-1 .2-2.5-.2-2.6-.3-.1-.6-1-.8-2.5l.7-20c.1-3 .1-3.7-.2-4-.5-.5-1.1-.6-1.3-.2 0 0-.3 4-.4 8.5a244.1 244.1 0 0 1-1.5 20c-.1.5 0 .6.6.9.5.2 1 .2 1.1.1.2 0 .3-1 .3-2l.2-2c.3-.1.4.2.3 2.1 0 1.5.2 2.3.7 2.3.2 0 .4-.2.5-.6zM6.9 96.7c0-.8 0-1-.5-1-.4 0-.5.2-.5.7 0 1.7.8 2 1 .3zm1-.5-.1.5c0 .6 0 .8.1.6v-1zm2.4.5c.1-1-.2-1.3-1-1-.4 0-.5.3-.5 1 0 .9 0 1 .7.9.6 0 .7-.3.8-.9zm1.8.5c.3-.6-.1-1.7-.5-1.7-.5 0-.8 1.1-.6 1.7 0 .2.3.4.6.4.2 0 .4-.2.5-.4zm17.6-3c0-1.2 0-1.2-.4-.6-.5.6-1 .8-1.4.3a16 16 0 0 1-.3-3.3c-.2-2.7-.2-2.9-.8-2.9-.3 0-.8-.2-1-.5-.5-.4-.5-.4-.7 1.4-.3 4.1.4 6.2 2.3 6.5 2.3.2 2.3.2 2.3-1zm-22.8-.3c0-.3-.9-.3-1.1 0l.1.5c.2.2.4.2.7 0 .2-.1.3-.4.3-.5zm11.9-1c0-1.2-.2-1.5-.6-1.6-.4 0-.4.2-.4 1.5 0 1 0 1.6.3 1.7.6.2.8-.2.7-1.7zm-10.9 1c0-.2-.2-.2-.2.1 0 .3 0 .5.2.4v-.5zm2.5 0c0-.4-.2-.5-.7-.5-.5 0-.7.1-.7.5s.2.5.7.5c.5 0 .7-.1.7-.5zm1.6.2c.2-.5 0-.7-.5-.7-.2 0-.3.2-.3.5 0 .6.6.7.8.2zm3.9-1.5c0-2.5-.1-3.2-1.1-3.9-1.7-1.1-1.7-1.1-1.9 1.2V92l2 .3c.3 0 .5.2.5.4 0 .4-.8.7-2 .7-.5 0-.7.1-.7.5 0 .5.2.6 1.6.5h1.5zm1.3-.2c0-1 0-1.7-.2-1.7s-.3.8-.3 2c0 1 .1 1.7.3 1.6l.2-1.9zm19.3 1c-.1-1.2-.7-1.4-.7-.3l.1.9c.4.4.7.1.6-.7zm2 .4c0-.4-.6-.8-.8-.6-.2.2.1 1 .4 1 .2 0 .3-.2.3-.4zM6.8 91.2c0-1 0-1.3-.4-1.4-.6-.3-.9.3-.9 1.7 0 1 0 1.1.6 1 .5 0 .6-.2.7-1.3zm3.4.9c.2-.1.3-.6.3-1.3-.1-.9-.2-1-.8-1-.5 0-.6.2-.7.9-.2 1.5.3 2 1.2 1.4zm2-2.4c.2-2 .1-2.5-.2-2.9-.6-.6-1-.1-.8 1 .2 1.2.2 1.5 0 2.7-.2 1.2 0 2 .5 1.8.2-.1.4-1 .5-2.6zm27.4-.2c-.1-1-.1-1-.3-.3-.2.4-.2 1.3 0 2l.2 1.3v-3zM8.2 91.3c0-1-.4-1.6-.6-.7-.2.7 0 1.5.4 1.5l.2-.8zm140.5-.5c0-.3 0-.5-.2-.5-.2.1-.3.6-.3 1 0 .7 0 .8.3.5l.2-1zM24 91.2c0-1-.4-2.3-.6-2.3-.2 0-.2 2.1 0 2.8l.3.1c.1 0 .3-.3.3-.6zm26.5-5.4c.3-3.7 0-9.1-.4-7.9-.3 1-.6 11-.3 12l.2.7.2-.9.3-3.9zm-29 1.9c0-1.3 0-2.3-.2-2.3-.3 0-.4 4 0 4.4.2.3.3.2.3-2.1zm27.3.3c0-1.4-.2-2.3-.5-2.1-.3.1-.3 1.8-.1 2.7.3 1 .6.6.6-.6zM4.5 85.4c0-2 0-3.4-.2-3.4s-.3.6-.3 1.3c0 .7 0 2.2-.2 3.4-.1 2 0 2.2.3 2.2.4 0 .4-.4.4-3.5zM7 88l.3-2.5c.2-1.7.2-1.8-.5-2.2l-.8-.4c-.1.2-.4 5.5-.2 5.7.4.4 1 0 1.2-.6zm3.6-.8c0-1.3 0-1.6-.5-1.9-.3-.2-.7-.2-.7-.2-.1.1-.3 1-.3 2L9 88.5h1.6zm-2.4-.5c0-1.3 0-1.4-.2-.8-.3 1.2-.3 2.6 0 2.4l.2-1.6zm21.2 1.2c0-.1-.1-.2-.3-.2-.1 0-.2 0 0 .2 0 .2.1.3.2.3l.1-.3zm124.2-5.7c0-2.6-.3-4.8-.4-5-.3-.3-.3 3.6 0 7.7.2 4.6.6 2.6.4-2.7zm-136.3 3c0-2.9 0-2.8-.5-2.8-.4 0-.4.2-.2 1.2l.2 2.2c0 .8.3 1.6.5 1.6v-2.2zm116.9.2c0-1.4-.1-2-.3-1.8-.2.2 0 3.8.2 3.8v-2zm-110.6 1c0-.2-.1-.3-.3-.3l-.2.2c0 .2 0 .3.2.3s.3-.1.3-.3zM15 84l-.3-2.2c0-1.4-.4 0-.5 1.7 0 1 .2 1.6.5 2 .6.6.7.2.3-1.5zm137.2-2.8c-.2-3.4-.2-3.5-.4-2l-.2 4.3c0 2.4 0 2.5.4 1.9.3-.5.4-1.1.2-4.2zm-124 3.2c1-.2 1-.8 0-.7-2.4.3-5.2-.2-5.2-.9 0-.3.4-.4 3.7-.2l3.7.2v-1l-.2-.8h-2c-3 .2-5.5-.3-6.4-1.2-.8-.7-2-1.4-2.1-1.3 0 0-.2.8-.2 1.7l-.1 1.5 2 1.4c2.5 1.7 3.7 2 6.9 1.3zm8.8-1.2c0-.3-.2-.5-.5-.5s-.6-.2-.7-.5l-.1.6c0 .9 0 1 .6 1 .5 0 .7-.2.7-.6zm-2.4-.4c0-.5-.2-.7-.5-.8-.7-.2-.7-.5-.1-.7.3-.2.3-.3.1-.5-.2-.2-.4-.2-.8 0-.4.3-.5.6-.5 1.3 0 1.2 0 1.4 1 1.4.7 0 .8-.1.8-.7zm13.8-2.1V78c-.3 0-.5 2-.4 4l.2 1.5s.2-1.3.2-2.7zM32 82c-.1-1.1-.6-1.3-.8-.3-.1 1 0 1.1.5 1.1.3 0 .4-.3.3-.8zm19.6.6c0-.1 0-.4-.2-.6-.2-.3-.3-.3-.3.2 0 .3.1.6.3.6.1 0 .2 0 .2-.2zm-40.3-2.2c0-.7 0-1.3-.2-1.3-.1 0-.2.6-.2 1.3 0 .8.1 1.3.2 1.3.2 0 .2-.5.2-1.3zm123.3-.3.2-5.7c.1-3.2 0-4.3-.2-4.7-.2-.3-.4-.4-.5-.2-.1.2-.3 3-.3 6.2-.1 4.9 0 5.8.2 5.8.3 0 .5-.4.6-1.4zM37 80c0-.7-.1-1-.5-1-.7-.3-.8 0-.8 1.1 0 1 0 1 .6 1s.7 0 .7-1zm2 .7c0-.3-.9-.8-1.1-.6-.3.3.1 1 .6 1 .2 0 .4-.2.4-.4zm20.2-2.3-.2-4.7c-.2-1.9-.2-2-.9-2-.7-.1-.7-.1-.9 1.8V78c0 2.8.2 3.1 1.4 3.1.6 0 .6 0 .6-2.7zm-40.7.9c0-1.3-.1-1.7-.5-1.9-1-.5-1.1-.3-1.1 1.2 0 1.4.4 2.3 1.2 2.3.3 0 .4-.4.4-1.6zM132.9 75c0-5.2 0-6-.5-6.1-.2-.1-.5 0-.6.1a52 52 0 0 0 0 10.4c-.4.9-.2 1.6.5 1.6.6 0 .6-.2.6-6zm-2.3 5c.3-.7-.3-1.7-1.1-1.7-.4 0-.5 1.6-.2 2 .4.3 1.1.1 1.3-.3zm-113.9-.7c0-.7-.4-1.3-.7-1.2-.1 0-.3-.3-.3-.8s-.3-1-.6-1.1c-.7-.4-.7-.3-1 1.1-.1 1.2 0 1.2 1 1.9 1.2.8 1.6.9 1.6.1zm-7.4-.6c0-.4-.4-.5-.7-.1-.2.3.1.8.5.6l.2-.5zm-2.4-.3c0-.6 0-.7-.2-.4a1 1 0 0 0-.1.7c.2.6.3.5.3-.3zm144.3-3.6c-.3-1.5-.6-.4-.5 1.7.2 3 .2 3 .4.9.1-1 .2-2.2 0-2.6zm-94.9-.3c0-3 0-3.5-.5-3.6-.4 0-.5.2-.5 3l.2 4c.2 1 .2 1 .6.5.2-.4.3-1.3.2-4zm-1.6.9c0-3.6-.1-5-.4-5-.3 0-.7 1.7-.7 2.9.1 5.3.1 5.3.6 5.2.4 0 .5-.4.5-3.1zm-41.2 1.3c0-1.2 0-1.3-.9-1.8-1-.5-1.4-.3-1.6 1-.1.7 0 .8 1 1.4l1.3.7c.1 0 .2-.6.2-1.3zm23.5.7c-.1-.4-1.5-.6-1.5-.2 0 .3.5.5 1.3.5.2 0 .3 0 .2-.3zm1.4.1c0-.1-.1-.3-.3-.3l-.2.3c0 .2.1.3.2.3.2 0 .3-.1.3-.3zm92.3-4.6c0-4.2 0-4.3-.5-4.5h-.7a44.5 44.5 0 0 0 0 8.8c.3.2.7.3.8.2.2 0 .3-1.7.4-4.5zm-99 4c0-.3 0-.4-.2-.4-.1 0-.2.1-.2.4 0 .2 0 .3.2.3s.3-.1.3-.3zm2.7 0s-.3-.2-.8-.2c-.4 0-.7.1-.6.3l.8.2c.3 0 .6 0 .6-.2zm-12.2-.4c0-.3-.3-.4-.6-.4s-.6-.1-.7-.3c-.3-.6-1-.5-1 .1s.7 1 1.7 1c.5 0 .7 0 .6-.4zm1.5.2c.1-.1 0-.2 0-.2-.2 0-.4 0-.4.2l.1.3.3-.3zm6.8 0-.4-.2c-.6 0-.8-.6-.3-1.1.5-.6.5-.6-.4-.5-.8 0-1 .2-1 .8 0 .4.3.7.7 1 .8.3 1.4.4 1.4 0zm97.7-.2c.1-.2 0-.3-.2-.3-.3 0-.4.1-.3.3l.3.2.2-.2zm-60.2-1c-.1-.3-.2-.1-.2.3s0 .6.1.5c.1-.2.1-.6 0-.8zm-41.4 0c0-.3-.2-.5-.6-.6-.6 0-.8.4-.2 1 .4.4.8.2.8-.4zm1.3.4c.3-.3 0-1.6-.4-1.4-.3.2-.3 1.7 0 1.7.2 0 .4-.1.4-.3zm98.4-1.6c0-6.3 0-6.8-.5-6.8-1 0-1 .5-1 4.3 0 3.2.2 3.8.6 4 .7.6.8.4.9-1.5zm-116 .7c0-.8 0-1-1.6-1.9-1.3-.8-1.7-.9-2-.7-.4.3-.5.2-.7-.3 0-.4-.3-.7-.4-.7-.4 0-.3.9 0 1.4.4.5 4.2 3.1 4.6 3.1 0 0 .2-.4.2-.9zm8.5.1c0-.3-.1-.5-.3-.5-.3 0-.6 0-.8-.2-.6-.2-.6.6 0 1 .7.4 1.1.3 1.1-.3zm31.5-2.8c0-3 0-3.3-.4-3.2-.5 0-.5.5-.6 3.1 0 3 0 3.4.8 3.5.1 0 .2-1.5.2-3.4zm25-.1c0-3-.2-7.1-.4-5.4-.2 3.3-.3 8.9 0 8.9.1 0 .3-1.3.3-3.5zm48.4-4.7c-.3-.4-.5.5-.4 3.2.2 5.7.4 6 .5.9v-4zm-99.3 7.3c0-.5-.7-.8-1-.4 0 .1 0 .4.2.5.5.3.8.3.8-.1zm7.4 0-.1-.2-.3.3.1.2c.2 0 .3 0 .3-.2zm90.7-3c0-4.2 0-4.9-1-4.9-.6 0-.6 0-.5 1.3l.4 3.5c.2 3 .3 3.4.8 3.4.3 0 .3-.5.3-3.2zM73.7 74a42.6 42.6 0 0 0-.2-8.3h-.6c-.2.2-.1 8.6 0 9 .3.4.6.2.8-.7zm-25.3-1c0-2.7-.4-3.2-.4-.6 0 1.3 0 2.2.2 2.2.1 0 .3-.7.2-1.7zm70.3-.4c0-3-.4-6.3-.7-6.5-.6-.4-1.3-.2-1.3.3a64.8 64.8 0 0 0 1.7 8.1c.2 0 .3-.7.3-2zm1.7 0c0-2.2-.4-5.9-.6-6.1-.5-.5-.6.6-.4 3.9.3 3.9.3 4.2.8 4.2.1 0 .2-.8.2-2zm-98.1 1.5c0-.2-.2-.3-.3-.3-.1 0-.3.1-.3.3l.3.2c.1 0 .3 0 .3-.2zm14.8-.2-.4-1.5c-.2-.6-.4-1.8-.4-2.6 0-1-.1-1.5-.4-1.6-.2-.1-.4-.5-.5-.8 0-.6 0-.6-.3-.1v2.8c.6 3.9.6 4 1.8 4.2l.2-.4zm-21.4-.7c0-.5-.2-1.1-.4-1.4-.4-.5-.4-.6-.8.8-.2.6.3 1.5.8 1.5.2 0 .4-.3.4-.9zm5.2.6c0-.2-.6-.5-1.1-.5-.2 0 0 .2.2.4.6.4 1 .5 1 .1zm56.4-1.5c0-3-.3-5.1-.7-5.1-.2 0-.3.8-.4 3.4 0 3.4 0 3.5.5 3.5.6 0 .6-.1.6-1.8zm51.1-4c0-.2-.3-.3-.6-.3-.4 0-.5.2-.5 2.4 0 2 .1 2.6.5 3.2.4.6.4.6.6-2.2v-3zM53.2 70c-.2-.5-.2-.8 0-1 .1-.2.3-.9.3-1.5s.2-1 .4-1c.1 0 .2.5.2 1.2l.1 1c.2 0 .4-1.7.5-4 .1-3.7.1-4-.3-4.3-.3-.2-.7-.3-1-.3-.5 0-.6.3-.7 3.8v10l.4-1.5c.3-1.3.3-1.8.1-2.4zM69.6 69c0-2.6 0-4.6-.1-4.5-.3.3-.4 9.1-.1 9.1.1 0 .2-1.7.2-4.6zm-36 4.1-.3-.4c-.6-.2-.8 0-.6.4.2.4.6.4.8 0zm-20-.3c0-.2-.4-.5-.7-.7-1-.4-.9-1.1 0-1.1 1 0 .7-.4-.6-1.2L11 69l.1 1.4c0 1.3.1 1.4 1.1 2 1.3.7 1.2.7 1.2.3zm14.5 0c0-.3-.1-.5-.3-.5l-.2.4c0 .2 0 .4.2.4s.3-.2.3-.4zm2.3-.6c.1-.8-.4-1.5-1.3-1.5-.4 0-.5.2-.5 1 0 1.3.2 1.5 1 1.4.6-.1.8-.3.8-.9zm1.4.4c0-.3-.1-.5-.3-.5-.1 0-.2.2-.2.5s0 .5.2.5.3-.2.3-.5zm36.5-5c0-2.9 0-3.8-.6-3.3-.1.2-.2 1.8 0 4.5.2 4.7.5 4.2.6-1.1zm83.3-2a35 35 0 0 0 0-9c-.3-.3-.5.8-.7 5.8-.4 5.6-.4 10-.1 10.3.3.3.5-1.8.8-7.1zM24.4 71.7c0-.8-.4-1.4-1-1.2-.4.2-.5 1.2 0 1.7s1 .3 1-.5zm2.1.5c0-.3-1-.8-1.1-.6v.5c.1.4 1.1.5 1.1.1zM66.7 68c-.1-3.6-.2-4.3-.5-4.3s-.4.5-.5 2.4a7 7 0 0 0 .2 2.6c.2.2.3 1 .3 2s.1 1.6.3 1.6c.1 0 .2-1.5.2-4.3zm86.3.1c0-2.3-.2-3.7-.3-3.5-.2.1-.4 1.8-.4 3.7-.2 2.9-.1 3.6.2 3.8h.5v-4zM4.5 71c0-.3-.1-.7-.4-.9-.3-.3-.4-.2-.4.5l.2 1c.4.3.6 0 .6-.5zm17.9.4c.2-.3-.1-1.6-.4-1.4-.3.2-.3 1.7 0 1.7l.4-.3zm-1.4-.3c.3-.7-.1-1.6-.8-1.8-1.1-.4-1.4-.3-1.4.6 0 .8.1 1 .9 1.2 1.2.4 1.2.4 1.3 0zm128-3.3-.1-3.5-.8.2c-.6.3-.6.3-.6 3.3 0 3.1.2 3.7 1 3.6.3-.1.4-.6.4-3.6zm-138.6 0c0-3 0-3.1-.7-3.7-1.1-1-1.3-.6-1.2 2.6 0 1.7 0 1.9.7 2.1.8.4.7.9-.1 1-.8.1-.7.4 0 1 1.2.8 1.4.5 1.3-3zm52.4-6.7-.4.2c-.5.5-.6 9-.1 9.5.3.4.3-.3.4-4.6l.1-5zm-28.7 3.7c0-4.4-.1-6.1-.4-6.4-.2-.2-.3-1-.3-2l-.2-2c-.1 0-.2 2.3-.2 5.2 0 4.1 0 5.3.4 5.5.3.2.2 2.2-.3 3.3-.2.4-.2.8.2 1.5.2.6.5 1 .7 1 .1 0 .2-2.2.1-6zm27 1.1c-.3-5.3-.5-7.6-.8-6.4l-.3 5.7c-.2 5-.1 5.7.8 5.7.4 0 .4-.6.3-5zm85.8 2c0-2.9-.1-3-.7-3-.3 0-.4.4-.4 2.6 0 1.8.1 2.9.3 3 .7.8.9.2.8-2.5zM52 64a143.2 143.2 0 0 1 1.2-14.2c0-.4-.7-.4-.8 0-.5 1.2-1.4 20.4-1 20.7.3.3.4-1.4.6-6.5zm12.5 6.3c.2-.2.4-1.8.4-3.7.2-3 .1-3.3-.4-3.6-.3-.2-.4-.5-.3-1 .2-.7-.1-3.4-.4-3a55.5 55.5 0 0 0 0 11.6c.3 0 .6-.1.7-.3zM18 69.1c0-.5-.2-.7-.6-.7-.5 0-.5.1-.5.8.1.8.6 1.3 1 1v-1zm41 0c0-2.8.6-9.3 1-11.4.5-2.9.3-6-.4-6.4-.3-.1-.6-.2-.6 0v5.3c.2 5 0 6.7-.3 5.3l-.2-2.8c0-2.2-.3-3.1-.6-1.8a99.4 99.4 0 0 0 0 12.7c.9.7 1.1.5 1.2-.9zm-51.4.2c-.2-.3-1-.4-1 0l.4.5c.3.4.9 0 .6-.5zm134.8-2v-2L142 67c-.3 1.6-.2 2.6.1 2.6.1 0 .2-1 .2-2.2zm12.6 1-.1.5c0 .5 0 .7.1.4v-.9zm-139.3 0c0-.4-.2-.8-.3-.8-.2 0-.3.4-.3.9s.1 1 .3 1c.1 0 .3-.5.3-1zm40.8-.6.2-4.2c0-2.4 0-2.5-.5-2.6-.4 0-.5.1-.7 1.2-.2 1.6-.2 6.8 0 7 .5.6.8 0 1-1.4zm88.3 1.2c.1-.2.2-1 .2-2.1 0-1.5-.2-1.9-.6-2-1-.1-1.2.5-1.2 2.6 0 1.8 0 2 .6 2 .4 0 .8-.3 1-.5zM6 68.2c-.1-.5-.3-1-.5-1-.1-.1-.1-.3 0-.4.4-.2.5-3.5.1-3.7-.2-.1-.3.2-.3.6 0 .5 0 .9-.2 1-.3.1-.6-.5-.6-1.4 0-.4-.1-.6-.5-.6-.5 0-.5.2-.5 2.3 0 1.3 0 2.5.2 2.7C4 68 5.5 68.9 6 69v-.8zm134.2-1c0-1.6 0-1.8-.4-2-.7-.1-.7-.7 0-.7.3 0 .5-.1.5-.5s-.2-.5-.7-.5l-.8.2-.3 2.6c-.1 2.4 0 2.8 1.1 2.7.5 0 .5-.3.6-1.8zm-127 .4c0-.8 0-1-.6-1.2-.3-.1-.7-.4-.7-.6-.4-1-.7-.4-.7 1v1.6h1c1 0 1 0 1-.8zm1.4.1c0-.3-.1-.5-.3-.5-.1 0-.2.3-.2.7 0 .4 0 .6.2.5.2-.1.3-.4.3-.7zM86 63.5c0-4.5 0-5-.5-5-.4 0-.4.1-.3 4 .2 3.9.4 6.1.6 6l.2-5zm51.4 1.9c0-3 0-3.2-1-2.8-.4.1-.5.6-.5 2.9 0 2.7.1 3 1.1 3 .3-.1.4-.7.4-3.1zm-111 2.3c0-.3-1-.9-1.3-.6 0 0 0 .3.4.5.6.4.9.5.9.1zM135 65.5c0-2.3 0-2.6-.5-2.5-.4 0-.5.4-.5 2.2-.1 2.3 0 2.8.6 2.8.3 0 .4-.4.4-2.5zm-127.3.7c0-2-.3-3.2-.7-3.2-.4 0-.5 3.4 0 4.2.4.8.7.4.7-1zm42.7 1 .3-4.2c0-3.1 0-3.5-.4-3.7-.9-.5-1 .1-1 4.4 0 3.8 0 4 .5 4 .3 0 .5-.2.6-.6zm82.7-1.9c0-1.9 0-2.3-.4-2.5-.5-.4-.5-.4 0-.7.6-.5.5-.9-.2-1.2l-.7-.3V64c0 3.4.1 3.8 1 3.6l.3-2.3zm-96.3-1V63l-.3 1.3-.2 2.3v.9l.3-1 .2-2.3zm-12.4 2.2c0-.2-.2-.4-.4-.4-.5 0-.8.5-.3.7.5.2.7.1.7-.3zm6-4.4-.1-4.7c-.2 0-.2-4.4-.2-9.9 0-6.4 0-9.6-.1-9.2-.4.8-.8 8.2-1.1 18.6-.2 9-.2 9.1.3 9.6.3.2.7.4.8.3.2 0 .4-1.6.4-4.7zm18 1.2v-3.4l-.2 2.8-.4 3c-.2.5 0 1 .4 1 .2 0 .2-1.5.2-3.4zm77.8-.3c0-3.6-.1-4.2-1.1-3.9-.4.2-.4.7-.4 3.5 0 3 0 3.2.6 3.5l.8.3.1-3.4zm2.3-.2c0-3.3 0-3.5-.5-3.6-.8-.3-1 .3-.8 2.6l.1 3.4c0 1.1 0 1.2.6 1.2.6-.1.6-.2.6-3.6zm21.8-3.8v-3.1c-.5-.7-.7-.3-.6 1.2v5.3c.2 3.8.2 3.8.4 1.6l.2-5zm-19.5 6 .2-2.7c0-1.5 0-2-.4-2-.8-.4-1 .4-1.1 3-.1 2.6-.1 2.6.5 2.6s.7-.2.8-.9zM28.1 65c0-.4-.1-.8-.3-.9-.3-.2-.6.6-.4 1.1.2.6.7.5.7-.2zm95.8-2.9c0-2.4-.1-3.1-.4-3-.2 0-.3 1-.4 3 0 3 0 3.7.5 3.4.2-.1.3-1.5.3-3.4zm-1.6 0c0-2.9 0-3.1-.6-3.4-.4-.2-.4-.4-.2-.7.2-.2.5-.3.7-.3.2 0 .3-.2.3-.4 0-.6-1.7-.6-2 0-.2.6.2 7.3.5 7.7.2.2.5.3.8.3.4 0 .5-.2.5-3.1zM20.9 64.9c0-.2-1.6-1.6-1.9-1.6-.5 0 0 1.1.6 1.5.8.4 1.3.5 1.3.1zm5.6-.5c0-.7-.1-.8-.7-.8-.8 0-.9.9-.2 1.3.8.4.9.3.9-.5zm10.3-12.5c.2-5 .2-10.3 0-13a411.5 411.5 0 0 1 0-32.5s-.3.4-.3.9c-.3 2-.8 9-1 14.4 0 5.3-.2 6.6-.7 6l-.1-2.4c0-1.4-.1-2.5-.3-2.5-.1 0-.2 1.8-.2 4.5 0 2.6.1 4.1.2 3.7.2-.3.3-1 .3-1.4 0-.8.7-1.2 1-.6a484 484 0 0 0-.4 28.8l.3 7.5.5-2.4c.4-1.9.5-4.1.7-11zm40 11.6.2-4.1c.2-1.6.2-2.7 0-2.8l-.3-.1a53.6 53.6 0 0 0-.2 8.7c.2 0 .3-.7.3-1.7zm42.9-2.4c0-2-.2-3.8-.2-3.8h-.4c-.3.3-.4 7.1 0 7.4.6.7.7 0 .6-3.6zm-1.5 2.7L118 60v-2.9h-.7c-.6.2-.7.3-1 1.2-.2 1.2 0 5.4.3 6l1 .2c.7 0 .8 0 .6-.8zm-43-2.7c-.1-.6-.2 0-.2 1.2s0 1.7.1 1V61zm69.5 3c.2-.3.3-.5.2-.6-.4-.3-1.5-.2-1.5.2 0 .7.8 1 1.3.3zm-120.3-.5-.1-.5-.6-.2c-.2-.1-.4 0-.4.4 0 .6.2.8.7.8.2 0 .4-.2.4-.5zm49.5-2.9c0-4.3-.3-5.2-.7-2.1-.4 2.5-.5 5-.2 5.3l.5.2c.3 0 .4-.7.4-3.4zm41.8 2.6c0-1.2-.3-1.5-1.4-1.6-.9 0-.9 0-1 .9 0 .8 0 1 .6 1.2.3.2.8.3 1.2.3.5 0 .6-.1.6-.8zm31 .1c0-.2-.3-.3-.5-.3-.4 0-.5.5-.2.8.2.3.6 0 .6-.5zM18 63.2c-.1-.8-1-1-1-.3 0 .6.2.9.7.9.2 0 .3-.3.3-.6zm13.8-7.4a124.8 124.8 0 0 0 .6-18.8c-.1-5 0-11 .2-15 .4-9.3.5-16.3 0-16.7-.1-.3-.3.3-.4 2.3l-.4 7a447 447 0 0 0-.5 13.7c-.2 8.5-.2 9.4.2 10 .4.4.4.9.2 2.6a129 129 0 0 0-.4 22.3c.2-.3.4-3.7.5-7.4zm117 4.6c0-4.2 0-4.1-.3-4-.3.2-.5-.4-.5-1.8 0-1.1-.2-1.3-.6-1a73.7 73.7 0 0 0 .1 9.9c.1.1.4.3.8.2.6 0 .6-.1.5-3.3zm-36.3.1c0-2-.1-3.1-.3-3.3-.3-.2-.2-.4 0-.8 1.2-1.2.8-2.2-.6-1.8-.7.2-.7.2-.7 2.7 0 2.2 0 2.5.5 2.8.7.4.7.6 0 .8-.6.2-.4 1 .2 1 .5 0 .8.6.4.8-.2.1-.3.3-.2.5.5.8.7 0 .7-2.7zm-40.3 0 .4-4c0-1.2 0-1.3-.5-1.3s-.5.1-.5 4c0 2.2 0 4 .2 4 0 0 .3-1.2.4-2.7zm19.8-.4c-.3-.3-.4.2-.2 1.7l.2 1.6V60zm48.3 2.5c0-.5-1.2-.6-1.5-.2-.2.3.2.6.9.6.3 0 .6-.2.6-.4zm-124.6-.4c0-.7-1-1.6-1.5-1.6-.7 0-.5 1.2.3 1.7 1 .5 1.2.5 1.2-.1zm54.3-2c.4-4.2.4-5.8-.2-6-.6 0-.9 2-.3 3.3l.3 1.2a13 13 0 0 0-.5 3.7c.3.8.5.1.7-2.2zm.9 2c-.1-.3-.2-.2-.2 0 0 .4 0 .5.1.4v-.5zm-2.6 0 .3-2.3c.2-1.2.2-2.8 0-3.8-.1-1.7-.1-1.7-.3-.8a45 45 0 0 0-.6 7c.2.2.6.2.6-.1zM110 62c.4-.9.2-1.4-.4-1.5-.9-.1-1 0-1 .9 0 .7.2.8 1.1 1 .1 0 .3-.2.3-.4zm34.9 0c0-.5-.6-.5-1.2 0-.5.4-.5.4.3.4.6 0 .9 0 .9-.4zm-78-2.5c.2-1.2.2-2.2 0-2-.2.2-.9 4.2-.7 4.5.3.5.6-.4.8-2.5zm40.8 1.5c0-1-.1-1.1-.8-1.3-.6-.2-.8-.2-1 .2-.5.5-.6.5-.8-.1 0-.4-.5-.6-1.7-.8-1-.2-1.7-.4-1.8-.6-.3-.4.7-.5 2-.3 1.4.3 1.7.2 1.4-.5-.1-.4-.4-.4-1.6-.3-2 .2-3.2.6-3.3 1-.1.3-.4.4-.6.4-.3 0-.4.2-.4.9l.1.8 3.3.9c1.9.5 3.8.8 4.3.8.9 0 .9-.1.9-1.1zm38.8.9-.2-.3-.2.3v.3c.2 0 .4-.2.4-.3zm-125.2-.5c0-.5-1-1.4-1.7-1.4-1 0-.8.8.3 1.3 1 .5 1.4.5 1.4 0zM66 58.8l.6-3.8c0-1-.1-1-.7-1l-1-.2c-.5-.2-.5 0-.4 3.4.3 5.6.6 6 1.5 1.6zM7.5 61.4c0-.2-.2-.3-.4-.3-.3 0-.4.1-.4.3 0 .1.1.2.4.2.2 0 .4 0 .4-.2zm127.5-.7c0-1.2-.6-1.1-.8.1 0 .6 0 .8.4.8.3 0 .4-.2.4-1zm19.8-2.8.3-7.7c.3-4.8.3-5.2-.1-5.9l-.6-.6c-.2.2-.3 11-.2 14.6.2 3.9.6 3.6.6-.4zm-17.2 2.5c0-.6 0-.9-.3-.9-.9 0-1.3.4-1.3 1.1 0 .7.1.8.8.7.6 0 .7-.2.8-1zM5.9 61l-.3-.3-.3.1c0 .2.2.3.3.3l.3-.1zm7.1-.3c0-.2-.1-.7-.3-1-.2-.4-.2-.6 0-.8.4-.4.4-1.8 0-2.2-.5-.5-1.2-.4-1.4.2l-.1 2c0 1.1 0 1.5.5 1.8.8.5 1.3.5 1.3 0zm13.4-1.2c-.4-4.1-.5-5.9-.2-6.7a23 23 0 0 0 0-9.6c0-.5 0-.9-.2-.9-.1 0-.3.8-.4 1.7-.2 2-.5 16.6-.3 16.9l.7.2c.5 0 .5-.1.4-1.6zm89.3-.4v-1.7h-1.2l-1 .1-.2 1.5v1.5l.8.2 1.2.1c.3 0 .4-.5.4-1.7zm24.7-2.5v-4l-.7-.2h-.8v6.3l-.3 2.2 1-.1h.8v-4.2zm6 1.2c-.1-4.3-.6-4.7-.5-.5 0 2.5.1 3.5.3 3.5.2-.1.3-1 .2-3zM4.5 60.2s0-.2-.2-.3L4 60c0 .2.1.3.3.3l.2-.1zm13.5-.5c-.1-.7-1-1-1-.2 0 .6.2.8.7.8.2 0 .3-.2.3-.6zm123.5-1c0-.4-.1-.1-.1.6 0 .6 0 .9.1.6v-1.2zm3.2 1.3c.2-.2.3-1 .3-1.9 0-1.1 0-1.5-.4-1.5s-.6-.6-.7-2.1c0-.5-.2-.9-.3-.9-.2 0-.3 1.5-.4 3.4v3.3h.6c.3 0 .7-.1 1-.3zM10.4 57.7v-2.3l-.8-.4c-.5-.2-1-.2-1 0-.2 0-.2 1-.2 2.2.2 2 .2 2.1.9 2.4.4.3.8.4.9.4 0 0 .2-1 .2-2.3zm88 1.4c0-1.2-.4-1.7-1.6-1.7-.9-.1-1.1 0-1.2.4-.2.9.2 1.7 1 2 1.2.4 1.7.2 1.8-.7zm11.7-1.8v-2.6l-.7.1c-.7 0-.7.1-.8 2.2 0 2 0 2.2.5 2.5l.8.3a8 8 0 0 0 .2-2.5zm-86 .4c-.1-.3-.4-.5-.5-.4-.4.2-.3 1.5.2 1.8.4.3.5.3.5-.2 0-.4 0-1-.2-1.2zm33 1.2c.7-3.3.9-7.8.3-8.3-.9-1-1-.3-1.4 6-.2 2.9-.2 3 .4 3 .3 0 .6-.3.6-.7zm76.2-.6c0-.6-.1-.8-.7-.8-.5 0-.7.2-.7.7-.2 1 0 1.3.8 1 .4 0 .6-.3.6-.9zm-117.6.4c0-.5-1-1.3-1.6-1.3-.5 0-.3 1 .3 1.4.8.6 1.3.6 1.3 0zm47.5-1c.3-2.7.2-5.8-.3-5.3a31 31 0 0 0-.2 6.9c.2 0 .4-.7.5-1.6zm12.2-.9-.1.9v.8-1.7zm19.4 1.3c0-1.1 0-1.2-.7-1.2-.6 0-.7 0-.7.8 0 1 .4 1.6 1 1.6.3 0 .4-.4.4-1.2zm40.3 0c.1-1-.2-5.4-.5-5.7l-.4 5.5c0 1.7.5 1.8.9.1zm17.5.3-.1.3c0 .4 0 .5.1.4v-.7zm-97.7.1.5-4.2c.3-3.6.3-3.9-.2-4.2-.3-.2-.6-.3-.7-.2-.5.3-1.8 7.7-1.4 8.3.2.3 1 .7 1.5.8l.3-.5zm52.8-1.6-.1-2h-.8l-.8.2-.2 1.8c0 1.6 0 1.7.6 1.9 1.3.3 1.4.3 1.3-1.9zm30.1-1.3c.1-3.5 0-3.7-1.2-3.7-.6 0-.6 0-.6 3.5V59h.9l.9-.1zm-130.3 3 .1-9.1c.1-6 .3-9.5.5-10.9.6-3.2.4-5.8-.5-5.8l-.1 4.9c0 4-.1 5-.5 5.3-.3.3-.4 1.4-.4 7.7l.1 7.7c.3.4.7.4.8.1zm15-1.2c0-.4 0-.8-.2-1-.2 0-.3.3-.3.9 0 .5.1.9.3.9l.2-.8zM131 58c0-.1-.2-.2-.5-.2s-.5 0-.5.2.2.3.5.3.5-.1.5-.3zm-80-2c0-1.1.3-3 .4-4.3.3-2.2.2-2.3-.3-2.7-.8-.7-1-.6-1.2.4l-.6 7.6c0 1 0 1 .7 1 .8 0 .8 0 1-2zm-45.3-.6c0-2.2 0-2.5-.6-2.2-.4.3 0 4.6.3 4.5.2 0 .3-1 .3-2.3zm15.4 2c.3-.5-.2-1.4-1-1.7-.4-.2-1-.2-1-.2-.6.4-.2 1.2.6 1.7 1 .6 1.1.7 1.4.3zm66.8-.8c0-.9-.1-1.2-.4-1.2-.6 0-1 1.7-.5 2.2.5.5.9.1.9-1zm2.5.2c0-.7-.1-.8-.9-.8-.7-.1-.8 0-.8.4 0 1 .3 1.4 1 1.3.6 0 .7-.2.7-.9zm33.5.6c0-.2-.2-.4-.3-.4-.1 0-.3.2-.3.4s.2.4.3.4c.1 0 .3-.2.3-.4zm-37.6-.8c.2-1-.1-1.7-.5-1.7s-.7 1.8-.3 2.2c.5.6.7.5.8-.5zm5.8.4c0-.3-.2-.6-.4-.6s-.4.3-.4.6.2.5.4.5.4-.2.4-.5zm33.9 0c0-.4-.9-.3-1 .2 0 .1.1.3.4.2.3 0 .6-.2.6-.4zm2.8-2.5c.1-2.7-.1-3.6-1-3.6-.4 0-.5.2-.5 1 0 .5.2 1 .4 1 .6.2.5.7-.1 1.2-.3.3-.6.6-.6.8 0 .1.3.4.6.5.6.4.7 1 .1 1-.2 0-.4.2-.4.5s.2.4.7.3h.8zM4.4 56.3a132.5 132.5 0 0 1 .1-25c.2.1.3.7.3 1.3 0 1 0 1 .2.3a55.4 55.4 0 0 0 .1-10.5c.2-.4.2-.7 0-1.1A151.8 151.8 0 0 0 5 3c-.4.4-.8 7.8-1 18 0 3.8-.1 5.4-.4 5.9a358.8 358.8 0 0 0 0 29.7c.2.3.7 0 .7-.4zm57.6-.5c0-.2-.2-.5-.4-.6-.3-.1-.4 0-.4.8s0 .9.4.6c.2-.2.4-.5.4-.8zm69.3-2.3c0-2.4 0-2.5-.6-2.4-.6 0-.6.2-.6 2.2 0 1.2.2 2.5.4 3 .3.6.3.7.5.2l.3-3zM133 56l-.4-2.4c-.3-1.4-.4-1.6-.6-1l-.2 2.4c0 1.7 0 1.8.7 1.8.6 0 .7-.1.5-.8zm-36.3.2-.5-.2c-.2 0-.3.1-.2.2 0 .2.3.3.5.3s.3-.1.2-.3zm4-.3c0-.8 0-1-.5-.8-.6.2-.5 1.4.1 1.4.1 0 .3-.3.3-.6zm2.4.3c1.8-.3 2.3-.6 1.7-1-.3-.2-3.1-.1-3.3 0l-.2.7c-.3.7-.3.7 1.8.3zm-20-.5.5-4c.4-3.4.4-3.5 0-3.8-.4-.3-.7-.3-.8-.1-.2.1-.3 2-.4 4.3-.1 3.7-.1 4.1.3 4.1.3 0 .4-.2.4-.5zm31.7.4c.8-.2.9-1.6 0-1.8-.6-.3-1.3.2-1.3 1 0 1 .3 1 1.3.8zM18 55.4c0-.4-.1-.6-.4-.6-.2 0-.4.2-.4.6 0 .4.2.7.4.7.3 0 .4-.3.4-.7zm100.3-.3c0-.9 0-.9-1-.9s-1.1 0-1.1 1c0 .9 0 1 1 .8.9 0 1-.1 1-1zm-69.4-2.8.4-3.3c0-1-.1-1.2-.4-.8-.3.2-.4 1.4-.5 4v3l.5-3zm31.5 1.5c0-1.2 0-3.2-.2-4.5l-.1-2.3h-1.6V51c-.2 3.7-.1 4.2.2 4.2.3 0 .5-.3.5-1s0-1.1.2-1.1.3.5.3 1.1c0 .6 0 1.2.2 1.3.4.5.6 0 .5-1.8zm1.3.6-.1.5c0 .6 0 .8.1.6v-1zm3.1 1c.3-.7.5-6.9.2-6.6a18 18 0 0 0-1 6.7c.3.4.6.4.8 0zm13.5.2c0-.1-.1-.4-.4-.7-.5-.4-.5-.5-.1-.8.8-.6.5-1-.9-.9-1.2.1-1.2.1-1.3 1 0 1 0 1 1 1.3 1.6.3 1.6.3 1.7.1zm21.5-.8c.1-.7 0-.8-.3-.7-.2.1-.4.5-.4 1 0 1 .6.8.7-.3zm2.6.7c.3-.2.4-.6.4-1-.1-.5-.3-.7-.8-.6-1.1.1-1.3.3-1.3 1.1 0 .7.1.8.6.8.3 0 .8-.1 1-.3zm2-.8c0-.5 0-.7-.4-.7s-.7 1-.5 1.3c.3.5.8 0 .8-.6zm1.8 0c0-.6 0-.7-.4-.7-.6 0-.9.6-.7 1.2.2.6 1 .2 1.1-.5zm25.4.3c-.1-.2-.2-.2-.2.1 0 .3 0 .5.1.4V55zm-136-1.2c0-.9 0-1.2-.5-1.5l-.5-.5c0-.1.2-.2.5-.2.8 0 .7-.5-.2-.8-1.1-.5-1.4-.2-1.4 1.7 0 1.6 0 1.7.8 2.1 1.2.7 1.4.5 1.4-.8zm8.8-.3c.1-4.2.2-6.1.4-6.4.2-.4.4-11.8.2-12.3-.4-1-1 4.8-1.3 10.5a20.6 20.6 0 0 0 .3 6.9c-.1.1-.3.9-.3 1.6 0 1 0 1.2.3 1.2s.4-.4.4-1.5zm53.2.8c0-.2-.2-.3-.4-.3-.4 0-.6.5-.3.8.3.3.7 0 .7-.5zm17.1-.3c0-.5-.2-.7-.6-.7-.4 0-.6.2-.6.7 0 .7 0 .8.6.8s.7-.1.6-.8zm-72.3-.2c-.2-.3-.5.1-.2.5.1.2.2.2.3 0v-.5zm69.8-.7c.1-.8.2-2.1.1-3 0-1.2-.1-1.6-.5-1.6-.4-.1-.5.2-.5 3 0 2.4.1 3 .4 3 .3 0 .4-.4.5-1.4zm49.6.1-.1.5v.5-1zm-51-1.8c0-2.5 0-2.8-.4-2.7-.8.2-1.4 1.4-1.6 3-.2 2.2 0 2.6 1 2.5l.9-.1zm-77.8 1c0-2-.1-2.7-1-2.7-.6 0-.6 0-.6 1.9 0 1.4.1 1.9.5 2 .8.5 1 .3 1-1.2zm5 1.3c0-.1 0-.3-.2-.3s-.3.2-.3.3c0 .1.1.3.3.3l.2-.3zm24.6 0v-.3l-.4.3c0 .1 0 .3.2.3l.2-.3zm58.4.1c.2 0 .4-.3.4-.5 0-.6-1.4-.4-1.6.2 0 .5.4.6 1.2.3zm4-.2V53c-.2-.3-.4-.4-1.4-.3-1.3.2-1.9.5-1.6 1 .2.3 2.7.2 3-.1zm-84-.3c0-.4-1.6-1-1.8-.6-.2.3-.2.3.7.7.9.4 1 .4 1 0zm67-.6c.3-2 .3-3.6 0-3.7-.4-.1-.6.4-.8 2.8-.1 1.6-.1 1.9.2 1.9.3 0 .5-.3.6-1zm19.3.8c.6-.2.5-1.1 0-1.1-.7 0-1.5.6-1.3 1 .2.3.7.4 1.3.1zm-20.7-2.1c.2-1.9 0-2.8-.5-2.4l-.3 2.3c0 1.8 0 2.1.3 2.1s.4-.4.5-2zm22.3 1.3c-.2-.3-.4.1-.2.5.1.3.2.3.3 0v-.5zm3.5.6c.9-.3.8-1.2 0-1.2-.7 0-1.4.6-1.1 1 .2.4.3.4 1.1.2zm-2.4-.7c0-.2-.1-.2-.1.2 0 .2 0 .4.1.3v-.5zm7.5.3h.9l-.2-1.8c-.3-3.2-.3-3.2-1.5-3.2h-1V49c-.2 1.6-.7 1.7-.8.2 0-.8-.2-1.2-.6-1.4-.2-.2-.5-.2-.6 0v2.7l.2 2.6 1.3-.1 2.3-.2zm16.2-.5c0-.4-.2-.9-.3-1-.2 0-.3.3-.3.8s.1 1 .3 1c.1 0 .3-.4.3-.8zM10.6 51c0-1 0-1.8-.3-2-.2-.4-.2-.6 0-1.1.4-.7.4-.8-.1-1.1-.8-.5-.8-.9-.1-.9.6 0 .7-.6.1-.9l-1-.1h-.7v8l1-.1 1-.1zm67 .3c0-1.3 0-1.4-.7-1.7-1-.3-1-.2-.6.6.3.4.3.6 0 .7-.2 0-.3.5-.3 1 0 .8 0 1 .8 1s.8-.1.8-1.6zm42.5-.7c0-2.5-.3-2.9-.9-2.2-.4.3-.4.7-.2 2.4.1 1.8.2 2 .7 2 .5 0 .5-.1.4-2.2zm2.6 1.6c.2-.3.4-1 .4-1.6 0-1-.5-1.5-1.6-1.5-.5 0-.5.2-.5 1.7l.1 1.8c.4.4 1.2.2 1.6-.4zm1.9-1.3c0-1-.1-1.2-.3-1-.4.3-.8 2.3-.5 2.7.3.5.7-.4.8-1.7zM18 52.4c.1-.1 0-.4-.2-.5-.4-.4-.8 0-.5.5.2.3.6.3.7 0zm57-.5c0-.8-.3-1.4-.9-1.4-.5 0-.4 1.5.1 1.9.7.4.9.3.9-.5zm50.8.1-.2-1c0-.5 0-.4-.3.1-.3.8-.1 1.5.3 1.5.2 0 .3-.2.2-.6zm25.5-2c-.3-.3-.3-.2-.2.7a47.4 47.4 0 0 1 .4 1c0-.7 0-1.4-.2-1.6zM22.5 52c0-.2 0-.4-.2-.4s-.3.2-.3.4.1.4.3.4l.2-.4zM95 52c.3-.9.2-1.7-.3-1.6-.2.1-.4 0-.4-.4v-.7l-.2.7-.3 1.5c0 .7.1.9.5.9.3 0 .6-.2.7-.4zm-89-9.2c.1-5.1.3-9.7.5-10.4.2-.8.3-2 .1-3.8-.3-3-.3-2.9-.6 3.5-.4 6.6-.5 7.6-1 8.2-.4.3-.4 1.2-.3 5.7 0 4 .2 5.4.4 5.7l.5.3.4-9.2zm67 8.5c0-.6 0-.9-.4-1-.5-.3-2-.4-1.7-.1l.5.2c.2 0 .3.2.4.5.2 1.5 1 1.7 1.2.4zm25.3.4c.3-.3.2-2-.2-3.4-.2-.8-.7-.3-.9 1-.1 1.4-.6 1.4-.7 0-.1-1.5-.6-1.5-.6 0l-.1 2-.2.8h1.2c.7 0 1.3-.1 1.5-.4zm-77.3-.2c0-.3-1-1-1.6-1-.5 0-.2.8.5 1 1 .4 1.1.4 1.1 0zm80.7-.2c.4-.6.8-3.8.6-4-.3-.4-.7.2-1 1.4-.3 1.4-1 1.9-.8.4v-1c-.3 0-.7 3.1-.5 3.5.3.4 1.5.3 1.7-.3zm3-2.2c0-2.4 0-2.4-.6-2.5-.7 0-.7 0-1 1.7l-.5 2.6c-.1.7-.1.7 1 .6h1.2zm-34.5 1.8c.1-.4-.4-1.4-.7-1.4-.3 0-.4 1.4-.1 1.6.3.3.6.2.8-.2zm36.8-1.3c0-2-.1-2.8-.6-2.8-.3 0-.4.3-.4 1.2l.2 1.3c.2.1.2.6.1 1.1 0 .8 0 1 .2.9.3-.1.4-.7.5-1.7zm38.3-.2c-.2-2-.9-5.5-1-5.7-.3-.2 0 7 .1 7.3.1.2.4.3.6.3.4 0 .4-.3.3-1.9zm-32.5.1c0-1.4-.3-2.3-.8-2l-.2 1.9c0 1.5 0 1.7.5 1.6.3 0 .4-.4.5-1.5zm-94.5 1c-.1-.5-.7-.6-.7-.1 0 .2.2.4.4.4.3 0 .4-.2.3-.3zm4.7-3.3v-3.3c-.7 0-1.3 6.1-.7 6.7.4.4.5-.4.7-3.4zm85.2 1.9c.2-1.6.1-2.3-.2-2a10 10 0 0 0-.2 3.7c.1 0 .3-.8.4-1.7zm2.3 1c.2-1 0-2.8-.3-2.7-.2 0-.3.2-.3.3v1.6c0 1.5.4 2 .6.8zm31.9-.6c.3-2 .2-6.4-.2-8.1l-.4-1.6v1.4c-.1 1-.2 1.4-.5 1.3-.3-.1-.4.3-.5 1.8l.1 2.5c.2.5.2.3.2-.7 0-.9.2-1.4.4-1.4s.2.8.1 2.9v3c.4.4.6.1.8-1zm-75.6-.2c0-.6-.1-1.4-.3-1.7-.2-.4-.2-.7 0-.9.7-.7 0-2.2-.7-1.7a3 3 0 0 1-1.3.2c-.7 0-.9.1-.9.7 0 .4.3.9.6 1.2.3.4.5.9.5 1.7 0 1 .1 1.3.6 1.5 1.3.5 1.5.3 1.5-1zm1.4.1c-.3-.3-.4-.3-.6 0a1 1 0 0 0 0 .8c0 .3.1.3.5 0 .3-.4.3-.5 0-.8zm13.1-.7-.1.6v.8c.2-.4.2-1 .1-1.4zm58.2-.2c0-1.1 0-1.2-.2-.5-.3 1.2-.3 2.7 0 2.3.2-.3.3-1 .2-1.8zM21.1 50c.2-.3-1.4-1.1-1.8-1-.4.4-.2.7.7 1l.9.2.2-.2zm125.8-1.7c0-1.9-.5-2.5-.6-.8v2c.2 1.2.6.3.6-1.2zM15.7 49.5c0-.4-1-1-1.6-1-.6 0-.3 1 .4 1.2 1 .4 1.2.4 1.2-.2zm118.2-.7c0-1.3-.5-4.6-.8-4.6-.2 0-.2.8-.1 2 .1 1.5 0 2.2-.1 2.3-.4.3-.4 1.2 0 1.3.7.3.9 0 1-1zm-71.2-1.1c0-2-.1-2-.7-2.2-.9 0-1 .4-1.1 2.3 0 1.7 0 1.8 1.4 1.9.4 0 .5-.2.4-2zm12.2 1.8c0-.2-.2-.3-.5-.3s-.5.1-.5.3c0 .1.2.2.5.2s.5 0 .5-.2zm56.2 0c0-.2-.2-.3-.4-.3-.1 0-.2.1-.2.3l.4.2c.2 0 .3 0 .2-.2zM72.7 49c0-.1-.5-.3-1.1-.4h-1l.7.4c1 .4 1.6.5 1.4 0zm-54.5-.4c0-.2-.2-.4-.4-.5-.2 0-.3.1-.3.5 0 .3.1.5.3.4.2 0 .4-.2.4-.4zm42-1c0-1.1 0-1.6-.2-1.9-.6-.6-1.2.3-1.2 1.8 0 1.4.1 1.7.8 1.5.2 0 .4-.5.6-1.5zM128 49c0-.2-1.3-.3-1.5-.1 0 .1.2.2.7.2l.8-.1zM13 48.5c-.2-.7-1-1-1.4-.7-.2.3-.2.4.2.8.7.5 1.3.4 1.2-.1zm45-1c-.1-1.4-.2-1.6-.7-1.6-.4 0-.5.3-.7 1.1-.3 1.3 0 2 .9 2 .5 0 .5-.2.4-1.6zm19.4 1c-.5-.4-1.7-.5-1.7-.1 0 .3.5.5 1.5.5.7 0 .7 0 .2-.4zm74-4.5c-.2-1.4-.2-1.2-.2 1.8s0 3.2.2 1.5c.2-1 .2-2.4 0-3.3zM70 48.4c0-.1-.2-.3-.4-.3s-.4.2-.4.3c0 .2.2.3.4.3s.4-.1.4-.3zm79.1-2c-.2-.4-.2-.1-.2 1 0 1.4 0 1.4.2.4.2-.6.2-1.2 0-1.5zM21 48.1c.3-.5-1.2-1.5-1.7-1.2-.4.2-.2.6.5 1 .9.5 1 .5 1.2.2zm34.3-.5c0-.3.2-.6.3-.6.2 0 .3-.3.3-.6 0-.4-.2-.5-.8-.4-.6 0-.7.2-.8 1.2 0 1 0 1.1.5 1.1.4 0 .5-.2.5-.7zm12.7.4c0-.1 0-.2-.2-.2s-.3.1-.3.2c0 .2.1.3.3.3.1 0 .2-.1.2-.3zm7 0-.6-.2c-.3 0-.5.1-.5.2 0 .2.2.3.5.3s.5-.1.5-.3zm64-4.5c0-1.4-.9-4.9-1.1-4.4a19.8 19.8 0 0 0 .2 9c.2.4.8-3.1.8-4.6zM15.6 47.8c0-.5-.5-.9-1.3-1-.4-.2-.6 0-.6.3 0 .2.3.6.6.7.8.4 1.3.4 1.3 0zM53 47c-.2-.5-.3-.5-.4-.1-.3.7 0 1.4.4 1 .2-.2.2-.4 0-.9zm20 .9c.1-.3-.1-.5-1.4-.7-.8-.1-1-.1-.9.2.1.3.7.5 1.9.7 0 0 .2 0 .3-.2zm58.5-.5c0-.8-.6-4.3-.9-4.5-.2-.2-.6 1.2-.6 2 0 .3 0 .6.2.7.2.1.3.6.3 1.2 0 1 .1 1.3.7 1.3.2 0 .3-.3.3-.7zm-61.9-.2c0-.2 0-.4-.2-.5-.2-.1-.3 0-.3.4 0 .3.1.5.3.5l.2-.4zm8.1 0c.2-.5 0-.8-1-1-.5-.2-.7-.1-.8.4-.1.4 0 .6.4.7.9.4 1.3.4 1.4-.1zm-26-.1c0-.2-.3-.3-.6-.3s-.6.1-.7.3c0 .1.2.2.6.2.3 0 .6 0 .6-.2zm40.2 0c.5-.6.4-10.9-.2-10.9-.2 0-.4.1-.4.3 0 .1-.3.3-.8.4-.6.1-.7.3-.6.9a1238.9 1238.9 0 0 0 .6 5.2c0 1.5.5 4.3.8 4.3l.6-.3zM13 46.6c0-.2-.2-.4-.4-.4-.4 0-.7.4-.5.6.3.3 1 .2 1-.2zm5.2.1c0-.2-.2-.3-.3-.3-.1 0-.3.1-.3.3-.1.2 0 .3.3.3.2 0 .4-.1.3-.3zm49.8-.5c0-.8-.3-1-.6-.5-.2.3 0 1.3.4 1.3l.2-.8zm7.1.2c0-.4-.3-.6-.6-.7-.5 0-.6 0-.6.6s0 .7.6.7.7-.1.6-.6zM20.8 46l-.9-.2h-.7l.8.3c.9.4 1.1.4.8 0zm52.3.2c0-.6-.5-.8-1.5-.6-1.5.3-1 .8.7 1 .5 0 .8-.2.8-.4zm22.9.2c.4-.3.6-10.2.2-10.3-.7-.3-.8.5-1 5.4-.2 5.2-.2 5.5.8 4.9zm-26.4-.6c0-.2 0-.3-.3-.3-.1.1-.4.3-.4.5s0 .3.2.2c.2 0 .4-.2.5-.4zm28.6-2.3c.3-4.1.3-7.5 0-7.5-.8 0-1 .8-1 5.5-.1 4.6 0 4.8.4 4.7.4 0 .5-.4.6-2.7zm28-1.4c.1-4.6-.2-5.7-.7-2.6a10 10 0 0 0 0 3.5 350 350 0 0 1 .6 3.2s.2-1.9.2-4.1zm3-2.5c.2-1.5.2-1.5-.4-1.4-.6 0-.6 0-.7-3.4-.2-4.8-.5-3.5-.5 2 0 4 .4 7.9 1 9.2l.3-2.2.4-4.2zM16 46l-.8-.5c-1-.5-1.7-.3-.7.3.6.3 1.5.4 1.5.2zm78-.6c.3.2.3-.2.3-1.6l.2-4.6.2-2.9h-.7c-.6 0-.7.1-.8 1.6-.1 1.8.1 8.6.3 7.9 0-.3.2-.4.5-.4zm27.5-.1-.1.3c0 .4 0 .5.1.3v-.6zm25.8-9.3c-.2-1.4-.6-2.6-.7-2.5-.3 0-.2 8.1.2 9.6.8 3.4.8 3.4 1-.7 0-2.7-.1-4.5-.5-6.4zm-61.5 9.3c0-.3 0-.4-.2-.4-.3.2-.3 1 0 1l.2-.6zm14.2-.2c0-.3.2-.7.4-.8a39.8 39.8 0 0 0 .6-8l-.7-.2c-.8 0-.9.1-1 5.5-.2 4-.2 4.3.2 4.2.3 0 .5-.3.5-.7zm20.8-.5c0-2-.5-8.9-.7-9.8 0-.5-.3-.8-.4-.8-.4 0-.1 9.6.3 10.9.4 1.3.8 1.2.8-.3zm-36.4-8.7c-.4-1-.5 0-.5 3.5.1 6.2.5 7.2.6 1.6v-5.1zm39.4 7.8.3-3a14 14 0 0 0-1-4.5c-.1-.1-.5 2.7-.5 4.9 0 1.6.6 4.5.8 4.4l.4-1.8zm12.3 1.3c-.1-.2-.2-.1-.2.2 0 .3 0 .4.1.3V45zm-114.8-.7c0-1-.5-1.6-1.4-1.6-.7 0-.5.5.4.8.4.2.7.4.7.6h-.7c-.7 0-.8 0-.8.3 0 .4.7 1 1.3 1 .4 0 .5-.3.5-1.1zm22.6.8c.1-.1 0-.3-.1-.4-.1-.1-.3 0-.3.2 0 .5.2.6.4.2zm33.5-1.7c0-3.2-.3-8.4-.5-8.2-.4.3-.5 9.6-.2 9.7.6.3.7.1.7-1.5zm2.6-3c0-3.2-.2-4.7-.4-5-.3-.2-.4.7-.3 4.6l.1 5c.6.5.7-.3.6-4.6zm34.6 4-.1.2c0 .3 0 .5.1.4v-.5zm-98.8.2c0-.3-1.6-1-1.8-.8 0 .1.2.4.6.6.9.4 1.2.5 1.2.2zm92.5-4.4c0-3.9-.2-5.5-.6-3.9-.2 1.1-.2 4.4 0 6.8.3 2.9.6 1.3.6-3zm26.7 2.5c.3-2 .1-3.6-.3-4.8-.3-.8-.8-.6-.6.3l.2 3.7c0 1.6 0 2.9.2 2.9.1 0 .4-1 .5-2.1zm-59.6-3c0-4.7 0-4.8-.6-4.9-.5 0-.5 0-.6 4.5l.1 5 .7.2c.4 0 .4-.7.4-4.9zm13.3.4c0-1.8 0-3.3-.2-3.4-.1 0-.3 0-.4.2a52 52 0 0 0-.2 7.5c.1 0 .3-.1.5-.4.3-.5.4-1.7.3-3.9zm27.4 2a63 63 0 0 0-.2-7c0-4 0-3.8-.4-3.3-.5.8-.2 12.7.3 12.7.1 0 .3-1 .3-2.4zm1.4 1.5-.1.3c0 .4 0 .6.1.4v-.7zm-107 .4c0-.1-.2-.3-.5-.3-.2 0-.3.2-.3.3 0 .2.2.3.5.3s.5-.1.4-.3zm8-.1c0-.2-.3-.4-.4-.4l-.2.4c0 .2.1.4.4.4.2 0 .3-.2.2-.4zM46 42.4l-.2-2.3c-.2-1-.2-1-.4-.4a11 11 0 0 0 0 3.8c.2.7.6.1.6-1.1zm-30.2.8c0-.4-.6-.9-1-.9-.7 0-.7.4-.1.8.6.3 1.1.4 1.1 0zm32.2-11.5c0-6.4-.1-11.2-.2-10.7-.3 1.4-.8 18-.6 20.1.2 2 .3 2.3.6 2.3.1 0 .2-5.3.2-11.7zm25.2 11.4-.2-1c-.2-.4-.3-.3-.3.4 0 .5.1.9.3.9l.2-.3zm58.8-2.9c0-2.5-.3-3.4-.8-3-.5.2-.5-.2-.6-5.5-.2-4.8-.3-5.8-.8-5.8a334.4 334.4 0 0 1 .3 7.4 58.7 58.7 0 0 0 1.6 9.8c.1-.2.3-1.5.3-2.9zm13.2 1.4-.4-3.5c-.2-1.2-.5-3.2-.5-4.3-.1-2-.1-2 .4-2 .4.2.5.1.5-.8 0-2.6-.3-5-.7-5-.2 0-.4-.3-.5-.5-.2-.5-1.3-.5-1.5 0-.2.4 0 1.7.4 2.6.2.3.1.5 0 .5-.2 0-.3.3-.3.8 0 .6.1.8.5 1 .6 0 .7.4.2.7-.4.2-.3.6.2.6.4 0 .5.5.1.7-.2.1-.2.4-.1.6l.2 3.2a35.7 35.7 0 0 0 1 6.7c0 .2 0 .2.2 0 .2 0 .3-.6.3-1.3zm-134.7 1c0-.3-.7-.7-1-.5-.2.3.2.8.6.8.3 0 .4-.2.4-.3zm8-.3-.4-.2c-.4 0-.6.3-.3.6.3.2.7 0 .7-.4zm62.6-.3c-.1-.2-.2-.1-.2.2 0 .2 0 .4.2.3V42zm5.8-5.7c-.1-.2-.4-.3-.8-.3-.7.1-1 1.2-.3 1.8.3.3.6 1.4.8 2.7l.3 2.2v-6.4zm62.9 3c.2-3.7 0-7.4-.5-7.2a53.3 53.3 0 0 0 .1 10.2c.1 0 .3-1.4.4-3zM12.5 41.8c0-.2-.1-.3-.3-.3-.2 0-.2.1-.1.3l.3.3v-.3zm8.7 0c0-.3-.8-.8-1.3-.8-.2 0-.3.2-.3.4 0 .3.3.4 1.4.6.1 0 .2 0 .2-.2zm85-.3c0-.3-.2-.5-.3-.4-.2.1-.3.4-.3.6 0 .2.1.4.3.4l.2-.6zm-90.3 0c0-.4-1-.8-1.2-.5-.2.3.3.8.9.8.2 0 .3-.1.3-.3zm-5.2-.4v-2.7l-.2-3c0-.4-.2-.6-.5-.7-.4 0-.4.2-.4 3.2 0 3.2 0 3.5.8 3.6l.3-.4zm33.4.2c0-.2-.3-.3-.4-.3-.2 0-.2.1-.1.3l.4.2c.1 0 .2 0 .1-.2zm5.7-3c0-1.2-.2-1.5-.3-1.1-.3.6-.3 3 0 3.8.1.7.1.7.3-.1v-2.6zm23.4-.9c-.2-2.7-.4-3.7-.6-3.8-.3 0-.3.2-.2 1.3l.3 3.5c0 3 0 3.3.4 3 .2-.3.2-1.4 0-4zm-54.5 3.3c-.2-.3-1-.3-1 0s.6.5 1 .4v-.4zm64 0v.1c-.1.3 0 .5 0 .4.1-.1.2-.3 0-.5zm56.8-8.2c0-.5-.4-1-.7-1-.4 0-.4 0-.3 1.2l.2 3.2c0 1 .2 2.6.5 3.6l.4 1.9v-9zM53 39.9c-.1-.2-.2 0-.2.3 0 .4.1.5.2.3V40zm99.4-6c.2-5.4.2-5.4-1-4.8-.3.2-.4.4-.3.7l.2 4.8c0 2.5.2 4.8.3 5.3l.3 1 .1-1c.2-.5.3-3.2.4-6zm-135 6.5L17 40h-.3c0 .2.1.4.3.4l.2-.1zm38.4-10c.4-19.8.4-24 .1-23.3-.5 1.2-.9 9.7-1 21.7 0 11 0 11.7.4 9.6.2-1.3.5-4.8.5-8zM16 39.8c0-.2-.2-.4-.7-.4-.6 0-.6 0-.3.4.1.2.5.4.7.4.2 0 .3-.2.3-.4zm120.9-4-.2-4c-.2-1-.2 0-.2 3.5 0 3.3 0 4.7.2 4l.2-3.6zm-54 2.8c0-.4-.1-.2-.1.4v.6-1zm21.2-.4c0-1.7 0-1.8-.3-.8-.3 1.5-.3 2.5 0 2.5.2 0 .3-.7.3-1.7zm9.2 0c0-.4-.1-.2-.1.6 0 .7 0 1 .1.7v-1.3zm-3.2-1.6c-.2-.6-.7-.4-.7.2l.3 1.8.4 1.2v-3.2zm-86.2-1.5c0-1.1 0-2-.2-2-.4 0-.5.8-.5 3.5 0 2.6 0 2.6.4 1.6.2-.6.3-2 .3-3zm118.9 2.3c-.2-.4-.3-1-.3-1.5 0-1.8-.3-3.4-.7-3.4-.5 0-.5 0 .2 3.7.5 2.4.6 2.9.8 2.4.2-.4.1-.9 0-1.2zm-121 .2c0-1 0-1-.5-.9-.5.2-.6.4-.6 1.2v1h.5c.4-.1.5-.5.6-1.3zm5.5-1V38v-1.4zm54-1.1c-.4-.4-.5.3-.3 1.7l.2 1.6.1-1.6v-1.7zm-65.4 2.6c-.1-.2-.4-.3-.6-.3-.2 0-.3.1-.2.3 0 .1.3.3.6.3.2 0 .3-.2.2-.3zm101.4-.3c-.1-.2-.2-.2-.2.1 0 .3 0 .5.1.4v-.5zm36.6-.7c-.3-.4-.3-.4-.3 0 0 .2 0 .6.2.9.2.4.2.4.3 0 0-.2 0-.6-.2-.9zm-124.1-.4c0-.7 0-.8-.3-.5-.3.6-.3 1.7 0 1.5.2-.1.3-.6.3-1zm21.9-7.1a156 156 0 0 1 1-22.3v-.8l-.5 1c-.3.6-.5 1.6-.5 2.9 0 1 0 3.6-.2 5.6-.5 6.2-.6 17.2-.2 19.6l.3 2.2v-8.2zm70.4 1-.4-4.5-.3-3c-.8 0-.9.4-.6 6 .4 8.3.7 9.8 1.2 5.5.3-1.9.3-3.1.1-4zm33.8 0c-.2-3-.5-4.3-.9-4.2-.4.3.2 10 .7 10.7.3.5.4-3.7.2-6.6zM19.4 36.4c0-.1-.2-.3-.4-.3-.3 0-.4.2-.4.3 0 .1.1.3.4.3.2 0 .4-.2.4-.3zM46 28.1h-.6c-.3.2-.4.8-.4 4 0 2.4.1 3.8.4 4.2.2.5.3 0 .5-3.7.1-2.4.2-4.4.1-4.5zM44.2 34c0-2.1-.3-4.5-.5-4l-.2 3.4c-.1 2.8 0 3.2.3 3.2.4 0 .4-.4.4-2.6zm80.9-3c0-3.5 0-4.4-.2-3.9-.5 1.3-.9 1-.7-.6v-1.1c-.4.2-.4 3.8 0 7.9.4 4.5.8 3.6.9-2.4zM22 34.3c0-1.3-.1-1.9-.4-2.1-.6-.6-1 0-1 1.8 0 1 .2 1.5.5 1.8.8.6.9.4.9-1.5zm20.6-.8c0-1.5 0-1.9-.3-1.9s-.5.3-.5 1l-.1 1.8c0 1 0 1.3.5 1.1.2 0 .3-.8.4-2zm76-3.5v-5.6l-.6 1.8c-.4 1.6-.4 2.3-.2 5.2a171 171 0 0 1 .5 4.2s.2-2.5.2-5.6zm16.4 2.7-.4-3c-.7-1-1 1.5-.3 4 .8 2.9 1 2.5.7-1zM19.6 34.4c0-.9-.3-1-.6-.4-.3.7-.2 1.2.2 1.2.3 0 .4-.3.4-.8zm72.2.4c.6-.7.3-1.4-.6-1.3-1 .1-1.6.7-1.4 1.3.2.5 1.6.5 2 0zm-65.6-.5c-.1-.2-.2-.1-.2.2 0 .3 0 .4.1.3v-.5zm27.3-8.6c0-5 0-10.7.2-12.6.2-3.2.2-3.9 0-3.6l-.3 5-.3 4.9a171.1 171.1 0 0 0 .3 15.5v-9.2zm35.2 8.6c0-.4-.1-.7-.3-.7-.1 0-.3.3-.3.7 0 .3.2.6.3.6.2 0 .3-.3.3-.6zM87 34c0-.4-1-.8-1.3-.5-.5.2-.3.6.3.9.7.2 1 .1 1-.4zm7.3.2c.2-.4-.7-.8-1-.4-.2.1-.2.4-.1.6.2.4 1 .2 1.1-.2zm19.9-.5c-.1-.3-.2-.1-.2.3s0 .6.2.5v-.8zm-97.8-.4v-1.7c.2-.7 0-1.1-.8-1.2-.7-.1-.7 0-.8 1.6-.2 1.9 0 2.4.9 2.4.6 0 .6-.1.7-1.1zm1.2.5c-.1-.2-.2-.1-.2.2 0 .2 0 .4.2.3v-.5zm79 .3L96 34c-.3 0-.5 0-.5.2s.2.3.5.3.5-.1.5-.3zm1.6.1a1 1 0 0 0-.7 0l.3.1h.4zm11.2-1c0-.3-.1-.1-.1.4s0 .7.1.5v-1zm-60-1.5c-.1-.5-.2-.1-.2.8 0 1 0 1.4.1.9v-1.7zm35 2.2c0-.2-.4-.3-1-.3s-.7 0-.4.3c.5.3 1.3.3 1.3 0zm-70.6-2c.2-1.2.1-1.9 0-2.1-.6-.5-1 .3-.8 1.4l.2 1.7c0 1.4.4.7.6-1zM30 30.4c.3-.4-.3-1-.6-.7-.3.2-.3 3.4 0 3.6l.3-1.2c0-.8.2-1.5.3-1.7zm51.1 2.8-1-.2c-.6 0-1 0-.8.2 0 .2.6.3 1 .3.6 0 1-.1.8-.3zM69.4 32c0-.4-.2-.7-.3-.7-.1 0-.3.5-.3 1.1 0 .9.1 1 .3.8l.3-1.2zm8.7 1c0-.2-.3-.4-.7-.4-.7 0-1 .4-.6.7.7.2 1.3.1 1.3-.3zm-65.9-1.7c0-1.8-.3-2.4-.6-1.2-.2.8-.2 2.7 0 2.9.5.4.6 0 .6-1.7zm102-3.4v3.6-3.6zM10.7 30.5c0-1.8 0-2-.5-2-.4 0-.5.2-.6.7v1.3c-.2 1.3 0 2 .6 2 .5 0 .5-.2.5-2zm9.4 1.8-.1-.6c-.2-.3-.3-.3-.5 0l-.3.6c0 .3.7.3.9 0zm8.1-.2c0-.1-.2-.3-.5-.3-.6-.1-.7.2-.4.6.3.2 1 0 1-.3zm71.3-2.4c.1-1.8.1-2.5-.1-2.5s-.3.8-.3 2.3c0 1.2 0 2.4-.2 2.7 0 .3 0 .4.1.2.2-.1.4-1.4.5-2.7zm-91-1.5c0-3.7 0-3.7-.6-3.8-.7-.1-.7 0-.5 1.8l.2 3.5c0 1.5.2 2.3.8 2.3.1 0 .2-1.7.1-3.8zm15.7 3c-.5-.3-.8-.3-.8 0 0 .2.3.3.6.3.5 0 .5 0 .2-.3zm59.2-2.1c-.1-1.3-.3-2.4-.4-2.5l-.3 2.4c0 2 0 2.5.4 2.5.3 0 .3-.4.3-2.4zm3.3 1.4c0-2-.4-3.8-.7-3.8-.3 0-.4.6-.4 2.4 0 2.2 0 2.4.5 2.4s.6-.2.6-1zm5 .6c0-.2-.2-.4-.5-.4-.7 0-.7.4-.1.6l.5.1v-.3zm37.6-1.1c-.2-1.5-.2-1.5-.2-.4-.1 1 0 1.9.2 1.9V30zm3.3.9-.3-2c-.2-1.7-.7-1.8-.7-.2 0 1.7.3 2.8.8 2.8.2 0 .3-.2.2-.6zm13.8-.7-.1.5v.4-.9zm1.6 1.2c0-.3-.5-.4-.6-.2-.1.2 0 .3.2.3l.4-.1zm-125.7-.5c-.1-.4-1.3-.6-1.3-.3 0 .4.4.6.9.6.3 0 .5-.1.4-.3zm20.4-.4c0-.2-.1-.3-.4-.3-.4 0-.5.3-.2.6s.6.2.6-.3zm54.7-2.9c.1-1.7.1-2-.3-2-.3 0-.4.4-.4 2.8 0 3 .4 2.6.7-.8zm13.3 1c0-.5 0-.8-.2-.7-.2 0-.3.8-.3 1.7 0 1.2.1 1.3.3.7l.2-1.7zM19.8 30c-.3-.3-.5 0-.3.5.2.2.2.2.3 0V30zm8.4.1c.1-.5-.2-1-.7-1-.3 0-.5.7-.4 1.2.3.6 1 .5 1-.2zm49-1.8c0-3-.5-3-.6 0-.1 2 0 2.4.3 2.4s.3-.5.3-2.4zm2.2 1c0-1-.1-1.5-.3-1.5-.1 0-.2.4-.1 1a48.5 48.5 0 0 1 .3 1.9l.1-1.5zm21.9 0c0-.3-.1-.1-.1.5 0 .5 0 .8.1.6v-1.1zm2.2 0c-.4-.4-.5-.1-.3.7.1.8.1.8.3.2v-1zm-14.8.1c0-.8 0-.9-.3-.5-.2.3-.2.7-.1 1 .2.8.4.6.4-.5zm3.3-.7c-.1-.5-.4-1.1-.6-1.3-.4-.5-1.4-.6-1.4-.2 0 .2.2.3.4.3.5 0 1 1.1.8 1.7v.9c.1.4.2.4.5 0 .3-.3.4-.7.3-1.4zm55.9 1.4c.1-.2.2-1 0-2v-1.8l-.7 1-.9 1c-.1 0-.2.3-.2.7 0 .4.1.6.4.5.2-.1.4 0 .5.4.2.6.5.7.9.2zm-123-.5c0-.3-.2-.6-.5-.8-.5-.2-.7-.2-1 .1-.4.4-.4.5 0 .9.4.5 1.3.4 1.5-.2zm117 0c-.1-.3-1.1-.3-1.1 0s.8.5 1.1.4c.1-.1.2-.3 0-.4zm-115.7-.1c0-.2 0-.4-.2-.4s-.3.2-.3.4.1.4.3.4l.2-.4zm113.8-.1c0-.3-.2-.7-.4-.8-.3-.3-.4-.3-.4 0s-.2.5-.4.5l-.4.2c0 .3.3.3 1.4.6.1 0 .2-.2.2-.5zM22.3 29c0-.4-.2-.7-.6-.8-1-.4-1.5.7-.4 1.1.9.4 1 .4 1-.3zm127.1-3.6c-.2-3.8-.3-4.4-1-4.2-.3.1-.3.9-.1 3.7.3 4.4.3 4.7.9 4.5.4-.1.4-.6.2-4zm-87 3.2c-.3-.2-.5.2-.3.5s.2.3.3 0v-.5zm53.5-2c0-1.3 0-2-.2-2-.4 0-.6.7-.6 2.9 0 1.6.1 1.9.4 1.5l.4-2.5zm-73.3 2.1c0-.2 0-.4-.2-.5-.3-.2-.6.3-.4.6.2.4.6.3.6 0zm21.9.1-.1-.2c-.2 0-.3 0-.3.2v.3c.2 0 .3-.1.4-.3zm62.5-1c-.1-.2-.2 0-.2.5s0 .7.2.5v-1zm-107.1.5c0-.3-.1-.5-.3-.5-.1 0-.2.2-.2.5s0 .5.2.5.3-.2.3-.5zm-1.4-.5c0-.4 0-.6-.4-.6s-.6.2-.6.5c0 1 .9 1.1 1 .1zm118.4-.6c-.5-.8-1-2-1.1-2.5-.2-.7-.5-1.2-.6-1.2-.3 0-.3.3.2 1.9.4 1.3 1.6 3.2 2 3.2.1 0-.1-.7-.5-1.4zm4.6 1c-.3-.3-.7-.4-.8-.4-.2 0 0 .2.2.4l.8.4c.2 0 0-.2-.2-.4zm-13.5-2c-.4-.8-.6.3-.3 1.3l.3 1v-2.3zM151 28c.3-.2.3-.2-.2-.2-.3 0-.6 0-.6.2 0 .4.3.4.8 0zm-134.7-.6c-.1-.8-1.5-1-1.5-.2 0 .5.3.8 1.1.8.4 0 .5-.1.4-.6zm112.7-.2c-.1-.2-.2-.2-.2.2 0 .2 0 .4.2.3v-.5zm-100.9-.3.3-8.8a118 118 0 0 1 .8-14.4c-.3-.4-1.7-.3-1.8.1-.3.6-.6 23-.3 23.4.3.5.9.3 1-.3zM14 27c-.2-.5-.7-.5-.7 0 0 .2.2.3.4.3s.4-.1.3-.3zm12-1.4-.2-1.3v1.6c0 1 0 1.5.2 1.3.1-.2.1-.8 0-1.6zM46.2 23c.5-13.8.3-16.3-.5-5.8-.5 5.7-.6 9.4-.3 9.8.5.8.6 0 .8-4zm34 3.5c-.1-.2-.2-.1 0 .3 0 .4.2.5.2.3l-.1-.6zm-68.1.3-.1-.3c-.2 0-.3.2-.3.3l.1.3.3-.3zm12.5-1.5c0-1.6-.1-1.8-.7-1.9-.5 0-.6 0-.6 1.6 0 1.9.1 2 .9 2 .4 0 .5-.1.4-1.7zm18.2 1.5c0-.1 0-.3-.3-.3-.2 0-.4.2-.4.3 0 .2.1.3.3.3l.4-.3zm98.8-4.2c-.3 0-.4-.8 0-.8.2 0 .3-1.2.3-3 0-2.4-.1-3.2-.4-3.4-1-.9-1.2-1.1-1.4-2.1-.2-1.6-.6-1-.6 1 0 .9-.1 1.7-.3 1.7-.2 0-.5-2-.5-3.7 0-.7-.2-1.4-.3-1.6-.2-.2-.2-.8 0-2.3a9 9 0 0 0 .2-2.1c-.3-.4-.7 2-.9 4.9 0 1.8-.2 3.5-.4 3.7a10 10 0 0 0 0 3.1c.1 2 .3 2.9.9 4l.7 1.9.4.4c.3.2.1-3.3-.3-6.2l.1-1c.2 0 1 5.6 1 7.5 0 .6.2 1.1.8 1.7l.8 1 .1-2.3c0-1.4 0-2.3-.2-2.4zm14.6 3c-.1-.6-.3-1-.4-.7-.2.3.1 2.3.4 2v-1.3zm-145.6.7c0-.5-.4-1-.8-1-.1 0-.2.3-.2.7 0 .6 0 .8.5.8.3 0 .5-.2.5-.5zm64 .1c0-.2 0-.3-.2-.2-.2 0-.2.2-.1.4.2.3.4.3.4-.2zm77-.5c.6-.9.7-1.4.4-2.5-.1-.4-.3-.5-.6-.4-.7.2-.7-.2 0-1.5.5-.9.5-1.5.5-3.9 0-2-.2-2.6-.3-2-.1.4-.5 1.7-1 2.7-.6 1.8-.6 2.3-.6 5 0 1.7.2 3.2.2 3.3.3.4.8.2 1.4-.7zm-129.3-.4c0-1 0-1-.7-.8-.8.4-1 1-.5 1.5.8.6 1.2.4 1.2-.7zm81.9.5c.2-.4-.2-.7-1.2-1-.7 0-.8 0-.8.4l.1.7c.3.3 1.7.2 1.9-.1zm2.3 0c.1-.1.1-.2 0-.2l-.8-.2c-.5-.1-.6 0-.6.3 0 .4 1.2.6 1.4.1zm-44-1c0-.7-.1-1-.3-1L62 25c0 .5 0 1 .2 1s.3-.6.3-1.2zm2.1.4c0-.4-.1-.7-.3-.7-.1 0-.2.3-.2.7 0 .3 0 .6.2.6s.3-.3.3-.6zm82.6-.1c.5-.4.5-.8.4-4.8-.2-3-.4-4.5-.6-4.8a8 8 0 0 1-.5-2.6c0-1.3-.2-2.6-.3-3-.2-.5-.1-.6.4-.4.5.1.6 0 .6-.9 0-1.2-.8-2.3-1.7-2.2-.4 0-.6.2-.7.7 0 .4-.2.7-.4.7-.3 0-.4-.4-.4-1.8 0-1.8-.4-2.7-.6-1.5l-.4 2.6-.1 2 1 1 1 .8.2-1.6c0-.9.2-1.6.4-1.6a85.2 85.2 0 0 0 .5 13.9c0 .6.2 1.2.3 1.3.4 0 .4.9 0 1.5-.6.7-.6 1.4 0 1.2l1-.5zM20 25c0-.4-.1-.6-.3-.5l-.2.6c0 .3 0 .6.2.6s.3-.4.3-.7zm90.8.3c.1-.3.4-.4.6-.4.3 0 .4-.3.4-.7v-.7l-.8.6c-1 .6-1.1 1-1 1.3.3.4.7.3.8-.1zm-92.1-.8c0-.8-.7-1.1-1-.4-.2.6.3 1.4.7 1.1.2 0 .3-.4.3-.7zm22.9-6.3a188.4 188.4 0 0 1 0-8.3c-.2.3-.7 7-.7 9.3l-.1 3.4c-.2 2.4 0 3.5.4 2.1l.4-6.5zm1.3 6.9c.2-.7.5-11.8.4-14.1-.2-2.8-.2-2.6-.6 4.7l-.4 7.6c0 1.4 0 2 .2 2 .1 0 .3 0 .4-.2zm7-2.2c0-2.1-.2-1.8-.4.6 0 1.2 0 1.8.1 1.5.1-.3.3-1.2.3-2.1zm-33.1 1.3c0-.6-.6-1.2-1.4-1.2-.7 0-.6 1.3.2 1.6.7.3 1 .2 1.2-.4zM69.6 23c0-.4 0-.6-.2-.6s-.3.5-.3 1.2c0 1 0 1.2.3.6l.2-1.2zm64.3 1.2-.2-.2c-.2 0-.3.2-.3.4s.1.3.3.2l.2-.4zm-56.5 0c.1 0 0-.2-.2-.3-.4-.2-.8.1-.5.4.2.3.5.2.7 0zm4.2-1c0-2 .1-2.6.3-5.2.2-3 0-3-1 .2-.6 2.5-.6 6 .2 6 .3 0 .4-.2.5-1zm45.2-1.4c-.2-.2-.3 0-.3.9 0 1.5.4 2 .5.5 0-.7 0-1.3-.2-1.4zm10.2 1a250.7 250.7 0 0 1-.6-10.7l-.2-1.5-.3.8c-.2.4-.4 1.1-.4 1.5 0 .4-.1.7-.3.7-.4 0-.5 2.3-.1 3 .1.1 0 .5-.1 1-.4.5-.3.6 0 1 .3.1.6.9.8 1.7.6 3.7 1.4 5.3 1.2 2.4zm7.4 1c.5-.4.5-.4-.2-.3l-1 .2c-.3 0-.5.1-.5.3 0 .4 1.1.3 1.7-.2zM14 23.6c0-.7-.5-1-.9-.7-.3.4 0 1.2.5 1.2.2 0 .4-.3.4-.5zm-2-.6c0-.3-.1-.2-.1.1 0 .3 0 .5.1.4V23zm10.2.3c0-.2-.4-.3-.8-.3-.6 0-.6 0-.2.3.8.3 1 .3 1 0zm78.8-.4c0-.4-.4-1.5-1-2.6l-.8-2V20a4 4 0 0 0 .7 2.5c.8 1.3 1.1 1.4 1.1.5zm54.4-1.4c.1-1.7-.2-2-.5-.6-.2.9 0 2.8.3 2.5 0 0 .2-.9.2-1.9zm-88 1.5c0-.1-.3-.3-.6-.3-.4 0-.7.2-.7.3 0 .2.3.3.7.3.3 0 .6-.1.6-.3zm5.8-1c0-.8 0-1.4-.2-1.4-.3 0-.7 1.7-.5 2.3.4.8.7.3.7-1zm3-.4c0-.5-.1-.5-.3-.2-.2.2-.3.8-.3 1.2 0 .8 0 .8.3.1l.2-1.1zm8.5-.8a103 103 0 0 1-.1-4c-.3.4-.8 5-.6 5.7.3 1.1.6.4.7-1.7zm24.3 1.4-.2-.8-.5.8c-.3.8-.3.8.1.8s.6-.2.6-.8zm2 .4c.5-.4.6-.7.6-2.3 0-1-.1-1.8-.2-1.8s-.4-.3-.5-.7c-.8-1.5-1.3-.2-1.2 2.9 0 2.5.2 2.7 1.3 1.9zm2-.1c.1-.3.4-.6.7-.6.6 0 .7-.3 1-3.4.1-2.7-.2-3.2-.9-1.3-.2.7-.5 1.3-.7 1.3-.1 0-.2-.2 0-.5.6-2 1.1-4.5 1-5v-.7l-.5.8c-.8 1.1-1 2.7-1 6.5-.2 3.2 0 4.2.5 2.9zm40.3-1c.1-1.4-.2-1.9-.5-.8-.3 1-.2 2.4.1 2.2.2 0 .4-.6.4-1.4zm-142.8.8c0-.2-.2-.4-.4-.4-.4 0-.5.4-.2.7.3.3.6.2.6-.3zm122.5-2.9c-.2-2.5-.2-3.6.1-6l.4-3.6c0-1.3.4-2.8.8-3.3.3-.6.4-1.5.1-1.5-.3 0-1 1.4-1.4 2.7l-.5 2.2a49 49 0 0 0-.1 11.3l.5 1.1c.4 1.2.4 0 .1-2.9zm11.5 3 .1-.3c-.2-.2-1.5.2-1.5.4 0 .3 1.2.3 1.4 0zM26 21.7c0-.2-.2 0-.2.3 0 .4.1.6.2.4v-.7zm36.6.6c0-.1-.1-.3-.3-.3l-.2.3c0 .2 0 .3.2.3s.3-.1.3-.3zm2.1 0c0-.1-.1-.3-.3-.3l-.2.3c0 .2 0 .3.2.3s.3-.1.3-.3zm33.9.1-.5-1c-.2-.4-.6-1.3-.7-1.9-.4-1-.4-1-.4-.2 0 .7.4 2.3.9 3 .2.3.7.4.7.1zm-90-.4-.4-.2c-.2 0-.3.1-.3.2.1.2.3.3.5.3.1 0 .2-.1.2-.3zm15.9 0c0-.2-.8-.5-1-.2l.1.3c.3.3.9.2.9 0zm10.2-3v2.3V19zm-12.3 2.5c0-.1-.3-.2-.7-.2-.4 0-.7 0-.7.2s.3.3.7.3c.4 0 .7-.1.7-.3zm47.4-2v-2.7c0-.2 0-.4-.2-.5-.2 0-.3.8-.3 2.7 0 1.6 0 2.8.2 2.8l.3-2.3zm-2.4 1.8a1 1 0 0 0-.6 0c-.2.1 0 .2.3.2s.5 0 .3-.2zm35.1-.3c0-.3 0-.5-.2-.5s-.3.2-.3.5.1.5.3.5c.1 0 .2-.2.2-.5zm3.3 0c-.6-.7-1-.6-.8.1.1.2.4.4.8.4h.6zm18.4-.5c-.1-.2-.2 0-.2.4s0 .6.1.4c.1-.2.1-.5 0-.8zm20.6-2.4c0-2.2 0-2.4-.3-2.3l-.8.2c-.9 0-1.2.8-1.2 3 0 2.5.2 2.7 1.4 2 .8-.4.8-.5 1-2.9zM18.2 20.4c-.3-.2-.5.2-.3.5s.3.3.3 0v-.5zM88 17.7c.2-2.3.1-3-.1-3.3-.4-.4-.4-.3-.6 1-.2 1.8 0 5.6.3 5.3.2-.1.3-1.5.4-3zm21 2.3-.1-1.8c-.2-1-.2-1-.7-.5-.6.5-.6 1.8 0 2.1.4.3.4.3 0 .7-.6.4-.6.4.1.4s.8-.1.7-.9zm-100.5.2c0-.5-.6-.8-1-.5-.3.2-.3.3 0 .6.7.4 1 .4 1 0zm8 .2c0-.2-.2-.3-.3-.3-.1 0-.4 0-.7-.2-.2 0-.4 0-.4.3s.3.4.7.4c.3 0 .6 0 .6-.2zm86.6-1.2A12 12 0 0 0 102 18v.4c0 .5 1.7 2.4 2 2.1l-1-1.3zm3.8 1.2c0-.3-1-1.1-1.4-1.1-.1 0 0 .3.4.7.6.6 1 .8 1 .4zm9-.9c.2-.6.4-2 .5-3.1l.3-3.4c.3-1.6.4-4.7 0-5.5-.2-.7-.5 1-.5 3.4 0 1-.2 2.5-.4 3.3a18 18 0 0 0-.4 6.4c.1 0 .4-.5.6-1.1zm-91.5.7-.3-.6c-.3-.4-.2-1 .1-2.9l.5-2.8c0-.7-1-.4-1.1.4-.3.8-.3 5.7-.1 5.9.2.2.9.2.9 0zm76-2.4c-1-1.5-1-1.4-.4.5.7 2 1 2.4 1 1.5.1-.4-.2-1.2-.7-2zm48.5 2.1c.5-.5.6-4.5 0-5v-1.7l.4-2.3c0-.9 0-1-.4-.5-.2.2-.5.4-.8.4-.3 0-.4.6-.3 4.5.2 5.4.2 5.5 1 4.6zM14 20c0-.2-.2-.4-.3-.5-.2-.1-.3-.8-.2-2v-1.5c-.2.2-.3 1.2-.3 2.3 0 1.5 0 1.9.4 1.9.2 0 .4-.1.4-.3zm8.4-1.4v-1.6l-.7.3c-.8.3-.9.4-.9 1.4 0 1.3.2 1.6 1 1.4.4 0 .5-.3.6-1.5zm45.3 1c0-.2-.1-.5-.3-.6-.1 0-.3.1-.3.5s.2.7.3.7c.2 0 .3-.2.3-.5zm54.2-4v-1c-.1-1.3-.5 1.5-.5 3.6v2.1l.2-2.2.3-2.5zm3.1 2v1.9-1.9zm29.8 0a5 5 0 0 1-.3-1.2l-.3-.6c-.3-.2-.4 2.7 0 3.7 0 .5.1.4.5-.2.3-.6.3-1 0-1.6zm-134.7.6c0-.8-.2-1.4-.3-1.4-.3 0-.6 2.2-.4 2.6.4.6.7.2.7-1.2zm29.5.2-.1.5c0 .5 0 .7.1.4v-.9zm27 .3c.5-1.3.5-5.4 0-5.4-.3 0-.5-.1-.5-.3 0-.1 0-.2-.2 0-.4.1-.4 6.7 0 6.7l.6-1zm-66.3 0c0-.3-.2-.6-.3-.6-.3 0-.4.9 0 1.1.2.3.3.2.3-.5zm8.1-5.3c0-3.2.2-6.7.3-7.9.3-2.5.2-2.8-1.7-3-1 0-1.2 0-1.4.6-.3.7-.9 15-.7 15.3.3.5.7-.2.7-1.1 0-.7.1-1.3.4-1.6.5-.4.6-1 .7-5.3.3-6 .4-7 1-7 .5-.2.5 0 .4.4-.3.9-.5 13-.3 14.4.4 2.5.6.7.6-4.8zm29.9-.7v-2.4l-.2 2.8-.2 4.6v1.8l.2-2.2.2-4.6zM83 15.9c0-.9 0-1.1-.2-.8-.2.2-.3 1.3-.3 2.4 0 1.8 0 1.9.3.7L83 16zm24 2.5c0-.7-1.3-2-2-2-.6 0-.3 1 .5 1.8 1 1 1.5 1 1.5.2zm-34.2-3c.2-2.8.2-2.8-.3-2-.4 1-.8 4.3-.5 5 .4 1 .7-.1.8-3zm25.2-1.3a187 187 0 0 0-.4-4.5H97c-.6 0-.6.1-.6 2 0 1.4 0 1.9.4 2.2.4.3.6 1.1.9 2.5.3 2 .5 2.6.6 2.4l-.2-4.6zm5.1 3.3a20 20 0 0 1-.9-2c-.2-.5-.4-.8-.5-.7-.2.3.5 2 1.2 3.1.8 1.2 1 1 .2-.4zM8.6 15.1v-4.5c-.1-.8 0-1.3.3-1.6.4-.5.4-.7.2-1.2s-.2-1.2 0-2.5V3.5c-.5-.6-1.4 5.3-1.8 11.2-.2 2.8 0 3.8.8 3.8.3 0 .4-.6.5-3.4zM29.3 18c0-.2-.1-.1-.1.2 0 .3 0 .4.1.3V18zm9.6-1.7v-2l-.3 1.7v2c.2.8.3.2.3-1.7zm40 .4c-.2-.3-.2-.1-.2.5 0 .5 0 .8.1.6v-1.1zm77.3-.1c0-2 0-3.2-.3-3.9-.4-1-.6 1.6-.4 3.7.2 2 .6 2.2.7.2zM44.8 11.8l-.1-3a66.8 66.8 0 0 1-.5 8.7c.2.5.5-2.4.6-5.7zm5.2 3.3c0-.5-.1-.1-.1.9v1V15zm17.8 2c0-.6-.6-1.1-1.1-.8-.3.1-.3 1 0 1.2l.6.2c.3 0 .5-.2.5-.6zm-33.2-.5c0-.2-.1-.1-.1.2 0 .2 0 .4.1.3v-.5zm55.6 0c-.1-.2-.2-.1-.2.2 0 .2 0 .4.2.3v-.5zm10.8-1c-.2-1.3-.7-2.1-1.2-2.1-.3 0-.1 1 .6 2.6.6 1.5.8 1.3.6-.5zm49.3.6c.4-1.5.7-7 .4-7-.2 0-.3.6-.3 1.2s-.1 1.4-.3 1.8c-.4 1-.7 5-.3 5 .1 0 .4-.5.5-1zm-85.4 0c0-.4-.5-.5-.7 0-.2.3.1.8.4.6.2-.1.3-.3.3-.6zm-35.3 0 .2-4.2c0-2.3 0-3.5-.1-3.1a57 57 0 0 0 0 7.3zm-19.3-1.5-.1.5v.6-1zm94 1-.4-1.1-.5-1.7c-.2-1-.5-1.5-.8-1-.1.1.4 2.3.9 3.5.3.8.8 1 .8.3zm-8.6-4c0-3 0-4.2-.2-4-.4.3-.2 8.2.2 8.2v-4.3zm24.1 3.6c0-.2-.1-.2-.1.1v.4c.2-.1.2-.3.1-.5zm-50-.3c0-.1 0-.2-.2-.3-.1-.1-.2 0-.2 0 0 .2 0 .4.2.4l.3-.1zm15.4-4.6c0-1.8 0-3.3-.2-3.3-.4 0-.5 1.2-.5 4.7 0 3.1 0 3.3.4 2.6.2-.5.3-1.9.3-4zm23.5 4c0-.6-.6-.6-.7.1 0 .4 0 .6.3.5.2 0 .4-.3.4-.5zm-41 .2c0-.2 0-.4-.2-.5-.4-.2-1.1.1-1 .4.3.4 1.3.4 1.3 0zm77.1-1v-1.4l-.7.2c-.7.3-.7.3-.2.7.5.4.5.4 0 .7-.4.2-.4.3-.2.6.6.7 1 .4 1.1-.9zM65 14l-.3-.3c-.1 0-.3.1-.3.3 0 .3.2.4.3.4.2 0 .3-.2.3-.4zm42.3-.2c0-.7-.9-1.7-1.5-1.7s-.4.8.4 1.6c.8 1 1.1 1 1.1 0zm-85.2 0-.2-.5c-.4-.2-.7.3-.5.6.3.4.7.3.7-.1zm40.7.1c0-.1 0-.3-.2-.3s-.3.2-.3.3c0 .2.1.3.3.3.1 0 .2-.1.2-.3zm90.5-.3c-.1-.2-.2-.2-.2.2 0 .2 0 .4.1.3v-.5zM82 13c.2-.5.4-2 .4-3 .2-2.2.2-2.2-.2-1.3-.5 1-1 5.3-.6 5.3 0 0 .3-.4.4-1zm-71.7-.5-.1.5v.4-1zm116.6-.2c-.2-.6-.8-1.4-1.8-2.2a2 2 0 0 0-1.1-.3c-.5 0-.8-.2-1-.6-.1-.5-.2-.5-.2-.1 0 .9-2.1.3-2.1-.6 0-.8-.4-.9-1.6-.5-1.3.4-1.3 1 0 1.3.5 0 1.1.4 1.3.7l1 .7c.4 0 .6.3.6.4l1.5 1 2.2 1.1c.5.5.7.5 1 .2.2-.2.3-.6.2-1zM14.3 8.6c0-5.1-.4-4.5-.6 1-.1 3.5 0 4 .2 3.5.3-.4.4-1.4.4-4.5zM90.8 13l-.1-.6-.2.6v.5c.2 0 .3-.3.3-.5zm19.3-1.4V9.9l-.3 1.5c-.1 1.4 0 2.2.3 2v-1.8zm-71 .8-.1.3c0 .4 0 .5.1.3v-.6zm70 .6c0-.2-.2-.4-.3-.4-.2-.1-.3-1-.3-1.8V9l-.3 1.7c-.2 1.2-.2 1.7 0 2 .4.5.9.5.9.2zM50.2 7.3v3.9-3.9zm17.5 5.5h-.5c-.2 0-.2.1.2.1.2 0 .4 0 .3-.1zm11.4-4c0-2 0-3.5-.2-3.5-.4 0-.7 6.2-.4 7.2.4 1.2.6-.3.6-3.7zm56 3.3-.1.2c0 .2 0 .4.1.3v-.5zm-16.7-.8-.3-.9v.9l.1 1c.4.3.4 0 .2-1zm-105.8-1c.2-1.7 0-2.6-.4-2.6-.1 0-.3 1-.3 2 0 1.2.2 2.2.3 2.2.1 0 .3-.8.4-1.7zm12.2.5V6.5c0-3 0-3.2-.5-3.2-.8 0-1 1.1-1 4.9 0 2.4 0 3.3.3 3.5.7.4 1 .2 1.2-1zm82.8-1.5c0-1.3.2-2.8.3-3.4l.1-1-.5.6c-.6.8-1 .6-1-.4 0-.5-.2-.6-.6-.6-.2.1-.4.3-.3.5l.1 2.2c0 1.3 0 1.8.3 1.8s.4.3.4 1.1c0 1.1.4 2 .8 1.7.1-.1.3-1.2.4-2.5zm3.7 2c0-.2-.1-.1-.1.2 0 .3 0 .4.1.3v-.5zM63 10.8c0-.6 0-.6-.4 0-.2.2-.3.5-.2.6.2.4.6 0 .6-.6zM73 9c0-.7 0-1.7-.2-2.3a43.3 43.3 0 0 0-.5 4.2v.9l.4-.8c.2-.5.3-1.4.3-2zM89 11.3a7 7 0 0 0 .1-2.4c-.1-2-.1-2-.5-1.5-.4.7-.5 4.2-.1 4.2l.5-.3zm-68.4-.5a50.9 50.9 0 0 0 0-7.6c-.1 0-.4 0-.5.2a44 44 0 0 0-.5 7.3c.1.5.9.5 1 0zm2-2.9.1-3.9c.2-.7.2-.8-.2-.8-.5 0-.6.5-.8 4.5-.1 3.2-.1 3.4.3 3.4.4-.1.5-.5.5-3.2zm82 1.7c0-.8-.1-1.4-.2-1.4-.4 0-.4 2.2-.1 2.7.2.4.3.2.3-1.3zm-93.6-.2c0-.4-.1-.7-.3-.7-.1 0-.2.5-.2 1.1 0 .9 0 1 .2.8.2-.2.3-.8.3-1.2zm124.3.6c-.1-.2-.2 0-.2.3 0 .4 0 .5.2.3V10zm6.8-2.3-.1-2.4c-.3 0-.5 1.3-.6 3.5 0 2.7.5 1.9.7-1zM92 9.3l-.1.3c0 .5 0 .7.1.5.1-.2.1-.5 0-.8zM48.3 6.6c-.1-2.2-.3-3.2-.5-3l-.2.4c.3 1.2.6 3.5.6 4.7 0 .8 0 1.4.2 1.3V6.6zm28 .3-.2-1.5-.2 1c0 .7-.2 1.7-.1 2.5v1.3l.3-.9c.3-.6.4-1.3.2-2.4zm24.8 2.9c0-.2-.2-.4-.5-.6-.3-.1-.5-.4-.5-.6 0-.2-.2-.4-.3-.4-.5 0-.3.6.3 1.2.6.7 1 .8 1 .4zm55.1-.6c-.2-.2-.3-.2-.3 0 0 .3.3.6.5.4l-.2-.4zm-4.5-2.6c0-.4-.3-.8-.4-.9-.5 0-.5 1.8 0 2.8l.5 1V6.5zM92 7.1v1.2V7zm-48.8.3c0-.3-.1-.5-.3-.4-.1 0-.2.3 0 .5.1.6.3.5.3-.1zM148 6.8c-.2-.1-.2 0-.1.5.1.6.2.6.3.3 0-.3 0-.6-.2-.8zm-44.3.4c.3-.2.3-.3-.1-.6-.6-.3-.9-.1-.9.4 0 .4.5.5 1 .2zm1.4 0c0-.2-.2-.3-.4-.3-.3 0-.4 0-.3.2.1.2.3.3.4.3.2 0 .3-.1.3-.3zM147.5 5c0-.3-.3-.6-.4-.6-.3 0-.3 1.1 0 1.4.3.3.6-.2.4-.8zm-31.7 0c-.2-.3-.4-.7-.4-1-.1-.3-.2-.4-.3-.3-.2.4.5 2 .9 1.9.1-.1.1-.4-.2-.6zm-31-.4c-.3-.2-.4-.2-.4.3s.1.6.4.3c.2-.2.2-.4 0-.6zm4.1 0c0-.1 0-.2-.2 0-.2 0-.3.3-.3.5 0 .4 0 .4.3 0l.2-.5zM7.8 4c0-.6 0-1-.3-1-.2-.1-.3.2-.3 1.1 0 1.5.4 1.3.6-.1zm5 .7c-.2-1.6.3-2 1-1 .4.5.5.5.6.1.5-1.1.2-1.4-1-1.4-1.4 0-2 .2-2 .6 0 .2-.2.4-.4.5-.2.1-.4.5-.4.9 0 .5.1.6.4.4.2-.2.5-.2.8 0 .8.6 1 .6 1-.1zm30.4.1c0-.2-.1-.6-.3-.8-.1-.3-.2-.3-.3 0-.2.6 0 1.3.3 1.3.2 0 .3-.2.3-.5zm11.2-.3c-.2-.7-.4-.7-.4.1 0 .4.1.6.3.6v-.7zm85.3-.3c0-.2-.1-.2-.4 0l-.4.6c0 .2.2.1.4 0 .3-.2.4-.5.4-.6zM26.4 3.6l-.1.4c0 .3 0 .5.1.3v-.7zm83.2.6c0-.1-.1-.2-.3-.2-.2 0-.2 0-.1.2 0 .2.2.3.3.3v-.3z"/>
</svg>
