<?xml version="1.0" encoding="utf-8"?>
<svg xmlns="http://www.w3.org/2000/svg" xmlns:svg="http://www.w3.org/2000/svg" version="1.1" viewBox="0 0 591 369">
  <title>Mittens’ tail pokes out of a large jar that stands next to some large bowls on a windowsill.</title>
  <path d="M442.2 367.7c-.2-.5 0-1.3.3-1.4.4-.1.8 1.1.5 1.5-.2.4-.6.3-.8-.1zm14.8-2.4c-.2-.6 0-2 .4-2.2.2 0 .3.3.3 1.1 0 1.2-.4 1.9-.7 1.1zm-73-.3v-2.6c.2-1.7.3-2.3.6-2.3.5 0 .7 1.3.6 3.5 0 1.4-.2 1.7-.6 1.8a.6.6 0 0 1-.6-.4zm-14.6-.6c0-.2.1-.3.4-.3.2 0 .3.1.3.3 0 .1-.1.2-.3.2-.3 0-.4 0-.4-.2zm-181-1.9c0-.7.5-1.5.9-1.1.2.3.2 1.3-.2 1.6-.5.5-.7.4-.7-.5zm30.4.6c0-.5.3-1.1.6-1.1s.1 1.1-.3 1.2c-.1.1-.3 0-.3-.1zm5.5-.8c-.6-.6.6-3 1.3-2.6.4.3.4 2 0 2.5-.3.3-1 .4-1.3.1zm208.5-2c-.3-.3-.3-2.7 0-5a890.2 890.2 0 0 1 2.1-35.5c.6-11.4 1-19.5 1.6-25.5.3-3.1 0-7.2-.5-7.8-.1-.2-.8-.5-1.4-.7-1.7-.5-2.2-.1-2.4 1.6-.2 1.8-.2 19.8 0 31 .1 9 0 14.5-.5 15.1-.8 1.1-1 0-1.1-13-.3-16.9-.3-25.5 0-29.7.2-3 .2-3.4-.3-3.8-.3-.4-.7-.4-1.4-.3l-4.5.4c-2 .1-3.7.4-3.9.6a192.8 192.8 0 0 0-25.6 0c-1.2.2-4.4.3-8.8.1-2 0-2.1.1-2.2 2.3v2.6a619.2 619.2 0 0 1 1.2 39.7 113.4 113.4 0 0 1-.4 25.3c0-.5-.3-1.1-.6-1.5-.5-.5-.5-.7-.3-1.4.3-.7.3-1-.3-2.4-.7-1.7-.7-2.3 0-2.3.4 0 .6-.7.2-.9-.2 0-.4-1.7-.4-3.6-.2-4.2-.9-12.2-1.3-14.3-.4-2-.5-13.2-.2-15 .5-2.5.6-6 .2-5.9-.5 0-1.3 1.3-1.2 1.8a198 198 0 0 0-.7 27.7 112.2 112.2 0 0 1-.4 11.5s-.2 0-.4-.3c-.3-.2-.4-1.2-.4-5 0-2.6 0-7.8-.2-11.5l-.2-17c-.2-14.4-.4-19.1-1-19.5-1-.6-1.1 0-1 5.9v7.2c0 1 .1 2.9.3 4.3.3 2.7.2 3-1 4.2-.3.4-.3.7-.1 1.5.3 1.3.2 7.7-.2 8.4-.2.4-.3.3-.6-.7-.2-.8-.2-2.2-.1-4.6a214.7 214.7 0 0 0-.7-25.5 8 8 0 0 1-.6-2.2c-.2-1-.3-1.3-.6-1.2-1.2.2-1.5 2.3-1.6 12.3-.1 27.4-.4 45-.8 45.3-.3.3-.5-.4-.6-2l-.1-19a185 185 0 0 0-.6-20.3c-.5-3.5-.5-8.7-.1-13.3.1-1.5.2-3 0-3.4-.1-1-.6-1.4-1.2-1-.3.3-.4.9-.4 3.2 0 3.4-.6 9-1.3 12.7-1.4 7.3-1.4 7.4-2 7.4-.5 0-.5-.4.1-5.2a117.2 117.2 0 0 0 .2-13c-.3-.3-.4-.2-.6.4a9.5 9.5 0 0 0-.4 4.4c.2.6.2 1 0 2-.3.6-.5 1.8-.5 2.5v3.8c-.2 7 0 22.7.2 29a33 33 0 0 1 0 8c-.5 1.1-.7.7-.7-1.5a87.5 87.5 0 0 0-.8-10.7l-.1-4.5c-.3-6.2-.3-10.3 0-16.6.2-6.7.3-13.1 0-17.8-.3-3.8-.4-4.4-.8-4.4-.3 0-.4.5-.5 1.7a731.6 731.6 0 0 1-1.1 14.1c-.1 3-.2 3.6-.7 4.4-.3.5-.5 1-.5 1.3 0 .3-.1.5-.3.5a143.1 143.1 0 0 1 .4 13.9c0 7.1.2 13.2.2 13.6.1 1-.6.9-1 0-.2-.6-.1-1 0-1.3.5-.7.5-1.3.1-1.3-.3 0-.3-.8 0-.9a349.8 349.8 0 0 1 .3-41.2c0-4.5-.2-5.3-1.4-5.3-1.1 0-1.5 1-1.7 3.9l-.2 3.4-.3 15.8c-.1 20.8-.3 27.3-.8 27.7l-.4.2-.2-5.1-.1-5h-.9c-1 .1-1.5-.4-1.3-1.2.2-.4.4-.5 1.2-.5h1l.1-3.7a1495.2 1495.2 0 0 0 0-29.4c.2-5.5.2-5.4-.5-5.8-.5-.2-.8-.2-1 0-.4.3-.7 2.3-.7 4 0 .8 0 2.7-.2 4.2l-.4 9a115.7 115.7 0 0 1-.6 11.6c0 .8 0 2.2-.2 3.1-.1 1.2-.1 1.7.1 1.7s.3.7.3 2.2c0 1.3-.1 2.3-.3 2.3-.3 0-.3 1 0 1.1.2.1.3 2.2.3 4.6a43.3 43.3 0 0 0 0 5.7v.9l-.3-.8v-1.3c0-.3 0-.6-.2-.7-.2-.1-.3-3.6-.4-10.3-.3-14.7-.3-17.2 0-23.7.3-5.7.2-8-.4-11.5-.4-2.5-.5-2.6-1.3-3-2.4-1.3-3.3.1-3 4.3l-.1 3.3c-.1 1.3 0 5 .1 8a399.6 399.6 0 0 1-.2 37.2c-.5.3-.6 0-.6-1v-13.5a1016.1 1016.1 0 0 0-.6-26l.1-4.7c.2-1.6.1-2.6-.1-3.3-.2-.5-.4-1.7-.4-2.7 0-2.3-.5-3-2.2-2.8h-1.1v3c0 2.5 0 3-.5 3.5-.5.6-.6 3.2-.1 3.2a676 676 0 0 0-.4 28.3c-.1 7.2-.3 13.2-.4 13.3h-.6a301.9 301.9 0 0 1 .6-44.1l-.2-2.5c0-1.1-.2-2.6-.5-3.5-.3-1.2-.6-1.6-1.4-2-.5-.4-1.4-.7-1.8-.8-1.4-.2-1.6.3-1.6 4.7 0 3.9-.1 4.5-.8 4.5-.7 0-1-1-1-3.3.1-2.6-.3-5.4-.8-5.7-.4-.3-3.9-.1-4.1.2 0 .1-1.1.2-2.3.2-2.9 0-3.5.4-3.6 2.3v1.4l-.1-1.2c-.1-1-.3-1.3-1-1.7-.7-.4-1.3-.4-3.1-.3-3.6.2-3.4-.1-3.2 5.4 0 4.3 0 4.6-.3 4.2-.3-.2-.5-.8-.5-1.4 0-.6-.2-1.5-.5-2-.4-.9-.5-1.6-.5-3.2 0-1.4-.1-2.3-.3-2.5-.4-.4-2-.4-3.1 0-1 .3-1.3 1-1.1 4v4.1c-.2 7-.1 17.8 0 21.5.3 5.8.4 11.8 0 12.3-1 1.8-1.4-5.5-1.5-25.2a164 164 0 0 0-.3-16.6c-.6-.6-2.6-1-3.2-.7-.4.2-1 .2-1.6.1-.7 0-1.1 0-1.3.2 0 .2-.2 2.4-.2 4.9 0 2.4-.2 5-.3 5.5 0 .7 0 1 .2 1.2a213 213 0 0 1-.2 28.5c-.3-.2-.4-1.2-.2-6.1a204.7 204.7 0 0 0-.5-24.7c-.3-.5-.5-2-.6-4.2 0-2-.3-3.6-.4-3.8-.4-.8-5.3-1-6.2-.4-.6.4-.6.7-.8 5.1a136560.6 136560.6 0 0 1-.6 27.6c0 3.5 0 4.2-.4 4.5-.2.1-.6.2-.9.1-.3-.1-.4-1-.2-9 .3-13.2.4-16.2 1-16.6.6-.4.6-1.3.1-2.2-.3-.5-.4-2-.4-4.4l-.2-4.3c-.2-.8-.5-.9-3-1-3.2-.1-3-.2-3.1 6 0 5.5-.3 7-1.2 7.6-.4.4-.5.7-.4 4.2 0 2.6 0 3.8-.3 4-.4 0-.4 1.8 0 1.8.1 0 .2 1.2.2 3 0 2.4 0 3.1-.4 3.4-.3.3-.4-.4-.4-5.4a123.9 123.9 0 0 0 0-21.9c-.3-2.2-.7-2.9-2-2.9l-2.8-.3c-1.8-.3-2.1-.3-2.5 0-.3.4-.3.7-.1 1.5.2.6.3 3.9.4 7.3.1 5.7.4 10 .8 14.6.2 1.4.1 1.7-.2 1.9-.5.2-.9-.9-1-3.2-.5-5-.7-9.5-.8-12.4a54.7 54.7 0 0 0-1.3-10.2c-.7-.6-2.4-1.1-3.4-1-.6 0-.7.2-.8 1.8v4.8c.2 2.4.2 3.2-.1 3.7l-.4.7-.2-1-.5-2.8c0-.9-.3-2.2-.5-2.8-.3-.7-.5-2.1-.6-3.2l-.2-2h-2.4l-.2 1.7a166.7 166.7 0 0 0-1 10c-.2 1.2-.3 4.8-.3 8.1v16.7c.1 10-.2 17.5-.7 17.8l-.6-.1c-.3-.2-.3-1-.3-3.6a539.5 539.5 0 0 0-1.3-51.4c-.2-.2-1.3-.3-3.5-.3s-3.4.1-3.7.3c-.2.2-.5 1-.6 2.2-.2 2-.5 2.7-1.1 2.2-.3-.2-.4-.8-.3-2.2 0-1.7 0-2-.4-2.2-1-.4-3.2-.4-3.5 0-.5.6-1 3.3-1 6 0 2.9 0 3.5-.6 3.5-.7 0-1-1.4-.8-4.8 0-3 0-3.4-.5-4-.6-.6-2-.6-2.6 0-.5.6-.7 1.3-.7 3.1 0 2.7-.2 3.3-1 3.3-.7 0-.8-.3-.6-2.1a5 5 0 0 0-.5-2.9c-.6-1.3-.7-1.3-1.6-1.3-1.2 0-1.4.3-1.2 1.8.1.5 0 1.7-.1 2.6-.3 1.3-.2 1.9.1 3 .5 1.6.3 2.6-.5 2.6-.6 0-.7-.4-.8-3.7-.1-3.9-.6-5.6-1.7-5.5-.6 0-.7.2-.7 1 0 .5-.2 1.2-.4 1.6-.1.3-.2.9-.1 1.3a1449.3 1449.3 0 0 1 0 55.2c-.2 2-.2 2.7.2 4.3.6 2.5.3 4.6-.8 4.6-.2 0-.2-.5-.2-1.9.2-1.7.2-1.8-.7-2.6-.9-.8-1-1-1-2.8 0-1.7 0-1.9-.5-2.1-.6-.3-.6-.4-.5-1.4a13.4 13.4 0 0 0 .2-2.5l.1-3.4c.3-4.3.3-44.2 0-45-.5-1.7-1.8-.8-2 1.4-.4 3.1-1.3 17.3-1.4 21.5 0 1.9 0 4.7.2 6.3l.3 7.3.2 9.8v6.8c-.4 1.7-.8 3.4-.9 3.3l-.4-12a399.6 399.6 0 0 0-.5-13.6c-.1-1.6-.3-3-.5-3.3-.2-.2-.3-1.3-.2-3 0-2 0-3-.3-3.8-.4-.8-.5-3.2-.6-12.4 0-6.2-.2-11.5-.3-11.8-.2-.6-1-.8-1.6-.5-.5.3-.5.7-.5 7.4 0 3.9.2 8.1.3 9.4.2 2.4.2 2.4-.5 3.5l-.8 1 .2 4.1c.8 14.5.6 31.4-.3 33-.3.5-.3.4-.4-.4v-1.5a368.6 368.6 0 0 0-.5-31.7c0-1 0-3.2-.3-5-.3-2-.4-5.2-.4-9.4 0-4-.2-6.6-.3-7-.5-.8-.7-.3-.7 1.5l-.2 4.7-.4 8.4-.5 7c-.3 1.3-.3 3.1.4 12a181.6 181.6 0 0 1-.2 16.2c-.3.2-.4-.2-.4-2.8a268.3 268.3 0 0 0-.7-15.6 154 154 0 0 1-1.7-22.6c-.1-8.9-.3-10.8-1-11.1-.9-.5-1.5 0-1.5 1a267.4 267.4 0 0 0-.3 26.8c.4 14.5-.5 28.4-1.9 29.1-.7.4-.8-.3-.5-2l.5-3.4.4-4c.3-2.5.1-25.3-.3-31.5a111.2 111.2 0 0 0-1.2-11.7c-.2-2.3-.6-3.7-1.3-4-1-.3-2.7-.2-3.2.1-.5.4-.5.8-.5 7.7 0 6.4 0 7.2-.5 7.7-.4.4-.4 1-.2 5.2l.5 6.5c.4 2.2.6 6.8.3 7.2l-.6.2c-.5-.1-.5-.5-.6-3.7 0-2-.2-4.3-.3-5.1-.5-2.5-.9-9.2-1.1-17.2-.1-4.1-.3-7.7-.4-8-.4-.7-.7-.9-2-.9-1 0-1.1.1-1.6.8-.7 1.3-1 3-1.3 12.4a212 212 0 0 0 0 20.5l.3 16.3c.1 9.2 0 10.4-.7 9.3-.3-.3-.4-2.6-.5-8.1l-.5-13.6c-.3-7-.3-8.6-.3-22.1 0-5.6-.2-11.3-.3-12.8-.2-2.7-.2-2.8-1-3.3-1-.5-1.9-.6-2.3-.1-.7 1-.8 17.6-.1 32.7.2 4.4.2 3.7.1 13.2 0 7.6 0 8.3-.5 8.2-.5-.1-.5 0-.7-8.3a499 499 0 0 1-1-40c.5-1.5.4-4.9 0-5.5-.3-.4-1-.7-2-1-1.6-.3-1.7-.2-2.3.3-.3.3-1.1.7-1.8.8-.7.1-1.4.3-1.5.5-.6.6-.4 13.2.4 21.9a475 475 0 0 1 1.3 17.5c.3 1 0 24.8-.3 26.5-.3 1.7-.5-.3-.5-7.3a336 336 0 0 0-1.4-31.3l-.4-4.8a90.4 90.4 0 0 1-1-14.4l-.2-5.2v-3.1l-.7-.3c-.5-.1-1.5-.1-3.2 0-3.5.4-3.6.5-3.5 3.8a248.4 248.4 0 0 0 1.4 28.1 404.6 404.6 0 0 1 .8 11.8c.5 9 .5 11-.2 10.3-.3-.2-.4-1.4-.6-4.2a379.1 379.1 0 0 0-2.2-28.9 295.5 295.5 0 0 1-1.2-20.3c-.1-.2-1.2-.3-3-.3-2.7 0-2.8 0-3.5.8l-.8.8v3.6c0 3.4.1 3.6.7 4 .8.5.8.7 0 1.6-.4.7-.5 1.1-.5 4l.2 4.4c.3 2.2.1 8-.3 11.2-.3 2.8-.4 4.5-.2 11 .3 9.9.3 10.3.6 13.8.3 3 .4 10.8.2 11.2-.1.1-.3.2-.5.1-.3-.1-.4-1-.4-4.8 0-5.2-.1-8.9-.6-12.2-.5-3.1-.5-15.8 0-18.7.5-3.2.6-8.9.2-15.2-.3-4.8-.3-5.8 0-6.5.4-.8.5-2 0-2-.3 0-.3-1.7 0-2 .2 0 .3-.9.3-1.8 0-1.4 0-1.7-.6-2.2-.6-.6-.7-.6-3.1-.3l-2.6.4c-.1 0-.2 2.4-.2 5.2 0 3.5-.2 5.5-.5 6.5-.2 1-.3 2.1-.2 3.2l.2 9.3c.1 7.7.3 13.4.6 19.3l.2 9.8c0 3.6.2 6.9.3 7.3.2 1 0 2-.6 2-.4 0-.4 0-.5-3a148307.3 148307.3 0 0 1-1.7-45.5c-.4-2.3-.4-6 .1-7.5.4-1 .5-2 .4-4.2 0-1.5-.2-2.8-.3-3-.3-.3-4 .2-4.4.7-.5.4-.5 1-.7 7a73 73 0 0 0 0 13.7c-.2 0-.3.8-.3 2 0 1.4-.1 2-.4 2.3-.4.4-.5.3-.5-1.3 0-1 .1-1.8.3-1.9.3-.2.3-2.5 0-3.9a70 70 0 0 1 0-9.5v-8.7c-.2-.2-7.9.4-9.7.8h-8c-5-.2-9-.2-13.4 0a28 28 0 0 1-7.6 0 556.7 556.7 0 0 0-36.5 0c-.4.2-2.5.3-8.3.4l-5.8.1v4.5c-.2 7.6-.3 11.3-.5 11.7-.3.4-1.4.3-1.6-.2v-4.8l.2-7.3v-2.9H46c-7.6.2-17.7.2-20.2 0-2.5-.3-5.8-1.2-6.3-1.7a6 6 0 0 0-2.2-.3c-3.6 0-3.6-1.4 0-1.7 1.7-.1 2.4 0 4.3.5 2.8.8 10.2 1.2 18.3 1.1 6.4 0 6 0 5.8-.7 0-.6-.2-.6-2.3-.6-16 .3-19.3.2-20.2-.8l-.5-.5.6-.3c.5-.3 1.5-.3 4-.1h6.2c3.9-.1 20-.5 26.2-.5 4.3 0 5.4.1 5.8.4.4.4.4.4-.2.9-.5.4-1.2.5-8.4.5-4.8 0-8 0-8 .2 0 .4 2.4.6 3.2.3.6-.2.9-.2 1.3 0 .5.2 2 .3 5.3.1l7-.1a342.5 342.5 0 0 0 14.5-.6l7.8-.2 15-.4c4.1 0 8.1-.2 8.9-.4.8-.1 3.7-.3 6.6-.3 4.6 0 5.2 0 6-.5.8-.5 4.9-.8 20.2-1.3l12-.5c2.7-.2 8.7-.3 13.4-.3a436.3 436.3 0 0 0 29.1-.8 148 148 0 0 0 12-.7c2.8-.4 12-.8 13-.5l.7.2-.6.5c-.3.3-.5.6-.4.7l3-.2c2-.1 3-.4 3.3-.7.4-.3 1.4-.4 6.6-.5a286.7 286.7 0 0 0 13.9-.4h4.6l18.3.3c15.3.3 14.6.3 16 0 .6-.2 1.7-.3 2.3-.2 4.2.6 10.7.7 39 .7h31.6c.3 0 .4-.1.3-.4-.1-.3-1-.4-6.6-.4-4.4 0-6.5 0-6.6-.3 0-.1 0-.4.2-.5.2-.1 5.2-.2 11-.2a483.2 483.2 0 0 0 23.1-.5 2840.1 2840.1 0 0 0 69.8-3c1.2 0 2.2-.3 1.9-.7l-5.2.2-13.1.5c-8.6.3-9 .3-9-.8 0-.5.3-.5 2.4-.5a65 65 0 0 1 13.5-.9l14-.3c5.3-.2 5.5-.2 6.8-1 1.3-.6 3-1 6-1.1 1.5 0 5.5-.6 7.8-1 1-.3 3-.6 4.4-.7a72.8 72.8 0 0 0 8.7-1.4c1.4 0 2.2-.7 1.1-1.1a165 165 0 0 0-16.4.1c-1.5.3-12.6.6-13.5.4-.8-.2-.8-.8 0-1 .3-.2 3.9-.4 7.9-.5 5.6-.2 7.3-.4 7.6-.7.4-.3.4-.4 0-.6a3 3 0 0 0-1.2-.3c-.8 0-1.9-.6-1.6-1l8.8-.2c8.7-.1 9.7-.2 10.8-1 .5-.6.6-2.2 0-2.4-.2-.1-.7 0-1.2.1-1.1.4-13.6 1.1-18.9 1.1-3.6 0-8 .3-13 .7-1.8.1-2.2 0-2.6-.3-.4-.5-.4-.5.1-1 .5-.3 1-.5 2.3-.5 1 0 2.5 0 3.6-.2l7.6-.4a229.5 229.5 0 0 0 19-1l3-.1 1-1.1c1.2-1.3 1.7-1.4 4.1-.5a8 8 0 0 0 4.2.5c1.3 0 2.3-.2 2.3-.4 0 0-.2-.2-.5-.2s-.7-.2-1-.4c-.3-.5-.3-.5.1-.7.8-.3 11 0 12.2.3 1 .2 1.1.4.9.7-.2.2-.1.3.4.4a940.2 940.2 0 0 0 45-.4c6.3 0 12.6-.2 14.2-.3 2.3-.1 3 0 3.5.2.6.5.3 1.1-.7 1.4-1.4.2-7.6.4-24.6.5a1672.3 1672.3 0 0 0-57 .7c-.8-.3-1-.3-1.3 0-.3.3-.3.5 0 1.3l.4 1h3c3 0 4.3 0 8.7.8a977.7 977.7 0 0 0 11 1.9 996.3 996.3 0 0 0 37.7 6.5c.8 0 2.2.4 3.3.7l3.5.6 4 .9 4.6 1c2.1.4 3 .6 7 1.7l7 1.7c1.4.2 1.6.4 1.7 1 0 .4-.1.8-.4 1-.4.3-.7.3-2.6-.3l-3.2-1c-.6 0-1.7-.3-2.5-.6l-3-.8a76.3 76.3 0 0 1-6.5-1.5 1436.7 1436.7 0 0 1-18.4-3.6 74.7 74.7 0 0 1-7.7-1.5 544.9 544.9 0 0 0-28.6-5l-4.2-.7a40.1 40.1 0 0 0-12.6-1.1c-2 .3-2.8 1-3 2.4l-.2 1 1.8.5c1 .3 2.8.7 4 .8a59.5 59.5 0 0 1 7 1.3h.6l-.6-.5c-.6-.6-.6-.6-.2-.8.3 0 1.7 0 3.2.3l4.8.8A48.2 48.2 0 0 0 530 277a225.5 225.5 0 0 1 19.1 2.6c2 .3 3.2.8 3.2 1.5 0 .5-1 .7-2.4.3l-3-.5-3.4-.6c-.9-.3-2-.4-2.4-.4l-2.3-.4c-.8-.3-2.5-.6-3.9-.7l-9-1a9.8 9.8 0 0 1-2.9-.7c-.8-.5-.9-.5-.9 0 0 .2.2.4.4.4s.8.2 1.1.5c.4.3 1.5.7 2.4 1a182.5 182.5 0 0 1 7.1 1.8 513.7 513.7 0 0 1 19.6 4.7l3.2.8a36 36 0 0 1 7.6 2.3c.4.3.4.4 0 .7-.3.4-.7.4-3-.1a120.1 120.1 0 0 0-11-3c-4.4-1-6.3-1.5-10.2-2.6-2.3-.7-2.8-.8-7.5-1.9a227 227 0 0 1-9.6-2.2 26 26 0 0 1-4.2-1c-1.4-.3-2.8-.5-2.8-.3 0 .3 2 .9 2.7.9l3 .7a119.1 119.1 0 0 0 9.7 2.7l14 3.7a110.1 110.1 0 0 1 11.1 3.2c.8 0 3.1.8 3.7 1.2.4.4.5.6.3.9-.2.3-2 0-7.5-1.7l-2.6-.7-1.9-.5a34.3 34.3 0 0 0-5.7-1.6c-1.1-.4-7.7-2.2-9.3-2.5l-6.6-1.9-11.1-2.9c-3-.7-4.3-1.1-4.3-1.7 0-.4.2-.5 1.2-.5h1l-1-.4a25 25 0 0 0-3.4-.7 52.4 52.4 0 0 1-10.4-2.4c-1.6-.7-2-.5-2.3.6-.1.7 0 1.2.6 2.4l.8 1.4h7.2l1 1.1c1 1.3 2.1 1.9 5 2.7l3.6 1c1.8.7 3 1 7.3 1.7l4 .8c2.1.7 3.7 1.1 5.7 1.4 6.2 1 12 2.5 16.7 4 2 .7 5.2 1.6 7.2 2a115 115 0 0 1 12.9 3l4.2 1.1c2.3.7 4 3 2.3 3.3l-4.2-.9a82.3 82.3 0 0 0-7.2-1.7l-8.8-1.9a124.4 124.4 0 0 1-9.5-2.2l-4-.4a27 27 0 0 1-4.7-.7l-4.1-.7a134.5 134.5 0 0 1-7.5-.7l-.5 1.2-.3 1-.2-1.5c-.2-1.3-.3-1.4-1.2-1.6-.5-.1-2-.5-3.2-1-2.3-.6-4.8-.9-5.1-.5-.2.1-.1 1.6 0 3.3.5 4.3.7 11.2.5 12.2-.1.6-.3.8-.5.7-.3-.1-.4-.8-.4-3.5 0-1.8-.1-4.9-.3-6.8-.3-2.5-.3-3.5 0-3.9.7-1.2-.1-3.1-1.7-3.8-.5-.2-1.6-.4-2.4-.4-1 0-2.2-.2-3.4-.6a14 14 0 0 0-6.3-1.2 9 9 0 0 1-2.5 0c-2.3-.1-2.6 0-2.3 2.4.2 1.9-.2 3.4-.8 3.4-.3 0 0 9.6.4 10.9a91.6 91.6 0 0 1-.6 15.8l-.4 5.6a112.4 112.4 0 0 1-.9 13.2c-.1 2-.4 4.3-.6 5.2l-.4 1.6-.1-2c-.2-1.8 0-10.6.2-11.8a202.3 202.3 0 0 0 1.2-17.8c.2-.8.3-3.6.3-8.2s0-7 .2-7a51.5 51.5 0 0 0-.2-10.3c0-1.2-.7-1.6-2.4-1.4-.8 0-1.8.3-2 .6l-.7.3.1 9c0 4.9.1 9 .2 9.1a57.5 57.5 0 0 1-.7 9c-.3 0-.4-.4-.4-1.3 0-.6.1-1.2.3-1.2.1 0 .3-.2.3-.5s-.2-.6-.3-.7a30 30 0 0 1-.3-5.9c0-3.1 0-6.5-.2-7.6a36 36 0 0 1 0-5c.1-2.8.1-3.2-.3-4.3-.3-.6-.8-1.2-1.1-1.4-.6-.3-3.1-.2-4.3.3-.7.2-.7.3-.7 2.2 0 1.1.2 2.3.5 3 .3 1 .4 1.8.1 6.4v12.2a2024 2024 0 0 0 1.6 49.5c-.2.4-.8.3-1-.2l-.3-5.2c-.1-5.7-.2-6.9-.6-10.4l-.4-8.9a254 254 0 0 0-.5-12.8l-.3-10.6c-.2-6.2-.1-10 .1-13.5.3-4.4.3-5.1 0-6.4a13 13 0 0 1-.5-3c0-2.2-.4-2.6-2.5-2.6a6 6 0 0 0-2.3.5l-.8.4.1 3c.1 1.7 0 3-.1 3.3-.5 1-1 9.2-1 18v22.4c0 10.2 0 13.6-.2 13.9-.2.1-.4.2-.5 0-.2 0-.3-3.2-.3-7 0-7-.2-12.3-.5-22.7-.2-6.7.3-16.5 1-22.2.6-4.7.6-8.4.1-9-.4-.4-4.8-.1-5.3.4s-.8.4-1 0c-.2-.4-.7-.4-3-.3-2.3 0-2.9.1-3.2.6-.2.3-.2.5 0 .7l.2 3.4c0 1.8 0 3.6.2 4 .2.5.1 1.3-.1 2.3-.3.9-.4 2.5-.3 4.3 0 1.6 0 5.6-.2 8.8-.2 5.7-.5 31.7-.4 39.3 0 2.7 0 4-.3 4-.8.6-.8.3-.9-20.6 0-16.7.3-31.9.8-35.2.6-4 .5-10.6-.2-11-.5-.4-3.6.2-4.1.7-.5.4-.6 1.4-.8 6.9a80.5 80.5 0 0 1-.2 5.8c.1.4 0 4.7-.1 9.5a940 940 0 0 0-.7 16.8l-.3 10.6a202.2 202.2 0 0 1-.7 15.6c-.6 0-.8-1-.6-3.2l.3-12.1A355.4 355.4 0 0 1 452 300c-.3-.7-.4-2.1-.1-8.4.1-3.5 0-5-.1-5.2l-3.1-.2c-3.8-.2-4 0-4 2.3 0 2.4-.5 8.2-.8 9-.3.4-.5.6-.8.5-.3-.1-.3-.5-.2-2.5.2-1.4.3-4 .3-5.8 0-4.2-.2-4.4-2.2-3.4-1.2.7-1.2.8-1.3 1.9 0 .6-.2 1.6-.4 2.2l-.5 2c0 .5-.2 1.3-.5 1.7-.4.6-.5 1.3-.5 2.7a286 286 0 0 0-1.3 23.4 325.8 325.8 0 0 1-1.3 19.3c-.2.2-.3 2.5-.4 5a159.7 159.7 0 0 1-1.5 15.8h-.6zm-50-56.3-.5-.2c-.2 0-.2.1-.1.2 0 .2.3.3.4.3.2 0 .2-.1.1-.3zm0-1-.5-.3c-.2 0-.2.2 0 .4.4.5.7.4.4-.1zm-18-7.7c0-1 0-1-.3-.8-.5.4-.6 1-.2 1 .2 0 .3.3.3.5l.1.4c.1 0 .2-.5.2-1.1zm12.4-8.5c.7-.5-.2-.7-2.6-.6l-5 .1c-2.6 0-2.9 0-2.5.4.2.3 1 .4 2.4.5 3.4 0 7.4-.1 7.7-.4zm4.7-.5c-1.5-.2-2.4-.2-2.7 0-.3.2.3.3 2.2.2h2.6zm4.9.1h-1.1c-.3 0-.1.1.5.1.5 0 .8 0 .6-.1zm87.9-5.2c3.3-.2 5.2-.5 5.2-1 0-.3-1.3-.3-8.7.2l-8.6.4c-3 0-5.2.2-5 .5.1.2 9.6.1 17-.1zm39.5-3.3h-.8c-.3.1-.2.2.3.2.4 0 .6 0 .5-.2zm7.5-1h-.5c-.2 0-.2.1.1.1.3 0 .5 0 .4-.1zm-58.1 80.8c0-.3.1-1 .3-1.3l.4-.6v1c0 .5-.1 1-.4 1.2-.3.3-.4.2-.3-.3zm-207.8-2.2a6 6 0 0 1 0-2c.3-4.3.4-4.9.8-4.9.6 0 .8 1.7.6 5 0 2.3-.2 2.6-.6 2.6-.3 0-.6-.3-.8-.7zm86.8-1.7c0-.3.1-.5.3-.5.1 0 .3.2.3.5s-.2.5-.3.5c-.2 0-.3-.2-.3-.5zm107.7 0c0-.3.2-.5.4-.5.3 0 .4.1.4.4-.2.7-.8.8-.8.1zm-7.5-.2v-1.5l.2-1 .4 1c.3 1.2.3 2-.2 2-.1 0-.3-.2-.4-.5zm-316.5-.4-.3-8.1c0-4.3-.2-9.3-.3-11.2a268.6 268.6 0 0 1-.3-34.9c0-1.6.2-2 .9-2.2.7-.3 1 .7.7 2.3-.8 4-1 15-.3 29.4.4 8 .7 23.5.5 24.3-.2.8-.6 1-.9.4zm13.4-2.1c0-.9 0-1 .3-.8.3.6.3 1.9 0 1.9-.2 0-.3-.5-.3-1.1zm332.3.1c0-.5 0-.6.4-.3l.4.7c0 .2-.2.3-.4.3s-.4-.2-.4-.7zm18.7.3c-.4-.3-.4-.8-.3-2.7.2-2.4.6-3.4 1-2.5.2.6 0 5.3-.1 5.5-.1.1-.4 0-.6-.3zm-154.2-1c0-.3.2-.4.3-.3.2.1.3.3.3.4 0 .2-.1.3-.3.3-.1 0-.3-.2-.3-.4zm-218.6-.3c0-.1-.2-2.2-.2-4.7a198 198 0 0 0-.6-16.5l-.4-5.4a268 268 0 0 1 0-24c.3-2.8.6-3.6 1.3-3.4.5 0 .5 2 0 13.5a88 88 0 0 0 0 11 227.7 227.7 0 0 1 .6 18.2 82.8 82.8 0 0 1 .2 11c-.3.5-.6.6-.9.3zm48.7 0c-.3-.3-.2-2 0-2 .2-.2.4 0 .5.2.1.6-.2 2-.5 1.8zm276.5-6.7.1-8.1a520.2 520.2 0 0 1 .7-35.5c.2-.6.8-.4 1 .2.3.9.2 6.1 0 12-.3 3-.4 6.8-.4 8.6 0 1.8-.1 4.1-.3 5.1-.2 1-.3 5-.4 8.7a111 111 0 0 1-.7 15.7c-.2.2-.2-2 0-6.7zm21.2 6.2c0-.4.2-.7.3-.7.1 0 .3.3.3.7 0 .3-.2.6-.3.6-.1 0-.3-.3-.3-.6zm36-.3c-.2-.2-.2-1.4 0-4.4l.6-8.3a232 232 0 0 1 1.9-19 135.6 135.6 0 0 1 .3-22.3c.1-1 .3-1.6.3-1.4l.4 1a77.4 77.4 0 0 0-.3 11.4 34 34 0 0 1-.3 9c1 2 1.1 2.2.7 6a258 258 0 0 0-1.2 11l-.4 3.1-.7 11.3c0 2.3-.5 3.5-1.3 2.6zm-360.6-1.2c0-1.1.2-1.8.6-1.8.2 0 .3 1.8 0 2.5s-.6.4-.6-.7zm190.9.5c-.3-.6 0-1 .4-.5.3.2.3.4 0 .6-.2.2-.3.2-.4-.1zm-190.9-3.5c0-.2.2-.4.4-.4s.4.2.4.4-.2.4-.4.4a.4.4 0 0 1-.4-.4zm-4.2-1c0-.8.1-1 .4-.7.5.4.5 1.6 0 1.6-.3 0-.4-.3-.4-1zm374.5-.3c-.1-.5.2-8.4.5-11 .1-.8.4-1.8.6-2.2.2-.5.3-1.6.3-3.6l.1-7.6c.2-2.6.2-5.8.2-7 0-2 0-2.4.4-2.4.5 0 1 3.4.8 5.3-.2 1.7-.4 7.7-.4 12 0 2.3 0 3-.5 3.8-.3.6-.5 1.3-.5 1.6 0 2-.4 10.9-.7 11.1-.3.5-.6.4-.8 0zm-185.7 0c-.2-.3-.2-2.8 0-3.9l.2-.8.3 1a4 4 0 0 1 0 2.4c-.2 1.5-.2 1.5-.5 1.2zm-188.8-2-.2-4.7a129 129 0 0 1-.3-5.4l-.3-4.2a109.6 109.6 0 0 1-.8-9.4c-.5-4-.6-21.6-.2-22.2.5-.7 1 0 1 1.2 0 11.6 0 12.9 1 28.5a326 326 0 0 1 .7 13.7c.2.8-.2 3-.6 3.2-.2 0-.3-.1-.3-.6zm4.6 0c-.2-1.1.1-3 .5-2.9.3.1.3 1.8 0 3l-.3.8zm190.5-.8c-.4-.7-.7-26.4-.4-32.7.3-5.8.4-6.2.9-6 .3 0 .4 2.8.4 16.4a1271.4 1271.4 0 0 0 .1 22c-.1.6-.7.8-1 .3zm-221.4-.2v-3.5c0-1.8 0-4.5-.2-5.9-.5-5-1-16.6-1-28.6-.1-6 0-6.3.9-6.3s1 .3.8 9.6l.1 13.2c.3 5.3.5 12.2.5 16.5.1 5.3.1 5.2-.5 5.2l-.6-.2zm208.6-2.3c-.3-.3-.3-1.5 0-5.5l.3-11.7c0-4.1.2-6.9.4-7.2.3-.5.3-.5.4.2a93 93 0 0 1 0 21c0 2.4-.5 3.9-1.1 3.2zm-216.9-.2-.1-3.2-.1-5.1a466.9 466.9 0 0 1-1.5-33.4c.1-.5 1-.4 1.2.1 0 .3.3 4 .4 8.3l.6 12a251.4 251.4 0 0 1 .4 21c-.2.6-.6.8-.9.3zm39.9-1.8c0-.4-.2-.8-.3-.8-.2 0-.3-2.4-.3-6a76 76 0 0 0 0-7.2c0-.7.1-.8.5-.4.3.3.3 1.7.3 7.7a102 102 0 0 1-.2 6.7zm169.6.4c-.4-.5-.4-1.8 0-2.2.2-.2.2-.5 0-1-.2-.4-.3-1 0-2.4l.2-4a7 7 0 0 1 .4-2.9c.4-.7.4-.4.3 3.8-.2 6.6-.5 9.1-.9 8.7zm14.5-1.5a785.9 785.9 0 0 1 .3-32.8l.1 7.4c0 3.7 0 6.7.2 6.8.3.2.2 13.2-.2 16.8-.3 2.6-.3 3-.4 1.8zm198.7.2-.1-1.4c-.4-2.3-.7-6.1-.8-11l-.4-9c-.5-6.4-.3-16 .4-19.2l.2-.9.3.7c.3.6.3 1.2.1 3.3-.2 2.4-.2 9 .1 15.5l.2 8c0 4.5.2 6.8 1 12.1.3 2.2.2 2.6-.4 2.7-.5.1-.6 0-.6-.8zm-58.8 0c.2-.2.4-.2.5 0h-.5zm-.2-3.1.2-6a15 15 0 0 0 0-3.5c-.3 0-.3-3.4 0-3.4.2 0 .3-.4.4-1l.3 4.6a59.3 59.3 0 0 1-.5 11.7c-.3 0-.4-.5-.4-2.4zm-373.2-9.7a255 255 0 0 1 0-17.2c.2-.4 1.1-.4 1.3 0l.1 6.5c0 3.4.2 6.7.3 7.4.4 1.7-.1 4-1 4-.3 0-.6-.2-.7-.7zm440.2.2c-.3-.2-.3-.8-.1-3.5l.6-10.7c.5-14.1.5-14.6 1.2-14.6.3 0 .4.4.2 3l-.9 20.8a27 27 0 0 1-.4 5h-.6zM311.2 322c0-.7 0-1 .1-.6v1.3-.7zm-237.7 0c-.2-.4-.2-18.3 0-18.8 0-.2.3-.4.4-.4.8 0 1 1.5.9 10.3 0 8.9 0 8.9-.6 9-.3 0-.7 0-.7-.2zm238-2.4c-.4-.4-.5-1 0-1 0 0 .2-.8.2-2.2 0-1.3-.1-2.2-.3-2.2a19 19 0 0 1-.3-5c0-4.3 0-4.8.4-4.4.5.4.6 3 .2 3-.4 0-.4 2.4 0 2.5.2 0 .2 1.8.2 4.9 0 3.8-.2 4.7-.4 4.4zm-48.8-1c0-.8.8-3.8 1.1-4.3.3-.4.3-.8 0-1.2v-1.3l.2-4c0-3.1 0-3.4.5-3 .3.3.4 1 .3 4.2-.2 3.5-.5 7.6-.9 9.2-.1.5-.3.8-.7.8-.2 0-.5-.2-.5-.4zm203-1.6c0-.4 0-.4.1-.2v.5l-.1-.3zM59 316.4c-.2-.3-.4-2.9-.4-6.9 0-3.5-.2-7.4-.3-8.6 0-1.7 0-2.4.2-2.7.5-.7 1-.3 1.3 1.1.3 1.4.7 15.2.4 16.5-.2 1-.8 1.4-1.2.6zm483.2-2c-.7-1.7-.6-15.9 0-19.3.2-.8.8-1.2 1-.6l-.1 3c-.2 1.5-.3 6-.3 10s0 7.4-.2 7.5c0 .1-.3-.2-.4-.6zm10.1-2.4c0-.1-.2-1.7-.2-3.5l-.3-6c-.1-2.4 0-3 .3-3.3.7-.8 1-.2.8 1.6-.1 1 0 3.7.2 6.1.2 2.4.3 4.5.2 4.7-.1.4-.8.7-1 .4zm-232.7-1c0-.3.1-.3.2-.1v.5c-.1 0-.2 0-.2-.4zm146-1.2c0-1 .2-1.8.3-1.8.2 0 .3-.5.3-1.2s-.1-1.2-.3-1.2c-.3 0-.2-6.8.2-12.7.1-2 0-2.6-.1-2.6-.2 0-.3-.6-.3-1.7 0-1.4 0-1.8.4-1.8s.5 2.9.4 15.5c-.1 6.7-.2 8.6-.5 8.8-.3.3-.3.1-.3-1.3zm-146.1-1a37 37 0 0 1 0-8.2c.2 0 .4.2.4.7 0 .3-.1.6-.3.6-.3 0-.3.7 0 .9.3 0 .5 6.1.2 6.4 0 0-.2 0-.3-.3zm89-.8c-.2-.6 0-1.6.4-1.6.5 0 .5 1.2 0 1.6-.2.2-.4.2-.4 0zm-6-3.4V301l.2-5c0-2.7 0-2.7.3-1.2.3 1.6.3 6.3 0 9.1l-.2 1.9zm6.2-2h.5l-.3.1c-.3 0-.4 0-.2-.2zm-83.7-6.2v-3.3l.1 2.9c0 1.6.2 3 .3 3l-.1.5c-.3.3-.4-.2-.3-3zm70.8 1.8c0-.3.1-.5.3-.5l.2.4c0 .2 0 .4-.2.5-.2.1-.3 0-.3-.4zm-6.8-1.4c0-.5 0-.6.1-.4v.8l-.1-.4zm6.8 0c0-.4.1-.7.3-.7.1 0 .2.3.2.7 0 .3 0 .6-.2.6s-.3-.3-.3-.6zm29-1c0-1.3.2-4 .5-4.4.4-.3.4-.2.4.6 0 .5-.1 1-.3 1-.2 0-.2.4-.1 1.2l-.1 1.6c-.2.4-.3.4-.3 0zm-35.8-3c0-.6 0-.8.1-.5v1.1l-.1-.6zm7-1.9c0-.3.2-.6.3-.6.2 0 .3.3.3.6 0 .4-.1.7-.3.7-.1 0-.2-.3-.2-.7zm106.5-1.4c-.5-2-.4-3.2 0-3 .5.2.8 2.6.5 3.6-.2.8-.2.7-.5-.6zm-317.6-3.3-6-.2c-3.4 0-6.2-.2-6.4-.4-.7-.4.8-.6 4.2-.4 9.4.5 23.4.1 40.1-1A334.6 334.6 0 0 1 248 283c3 0 3.2 0 2.5.4-.5.3-.9.4-1 .3l-5-.1c-5.3 0-13 .4-32 1.5-10.4.7-27.3 1.3-27.6 1zm341.7-.8-4.1-1c-1.2-.3-2.5-.7-3-1-1-.5-3-1-3.7-1-.6 0-4.8-1.4-6-2-1.7-.7.5-1 2.5-.3l3 1 5.5 1.5 6.4 1.6c2.8.6 3.5.9 3 1.5-.4.5-1 .4-3.6-.3zM357.1 284c-.4-.1.4-.2 2-.2 1.3 0 2.3 0 2.2.1-.7.2-3.8.3-4.2.1zm8.8-.5c0-.1 1.2-.3 2.6-.3a733.4 733.4 0 0 0 8.3 0c0 .2-.8.3-1.8.3l-5.4.2c-2.2 0-3.7 0-3.7-.2zm12.7-.3c0-.1.5-.2 1.2-.2s1.2.1 1.2.2c0 .2-.5.3-1.2.3s-1.2-.1-1.2-.3zm12.4-.2c-.3-.2-.2-.3.4-.3.4 0 .7.1.7.3 0 .3-.5.3-1 0zm-205-.2 4.3-.3c2.4 0 7-.3 10.1-.6l7-.5c1 0 1.4-.1 1.4-.4 0-.4-.6-.4-4.1-.2-3.8.1-4.2 0-5.2-.4-1.3-.7-2.8-.7-18.8-.5-6.8.1-12.8.2-13.4 0-1-.1-1-.2-.5-.5a803.1 803.1 0 0 0 26.5-.5c22.3-.5 58-.1 60.7.6l2.8.5c3.9.4-.3.5-19 .5-10.6 0-19.5 0-20 .2-1.2.3-13.6 1.8-17.8 2-4.8.3-14 .3-14 0zm26.5-3.2zm187.5 2h-3.6c-1.8.1-10.5-.2-10.3-.4a378.1 378.1 0 0 1 20.3.3c-.3.2-4.5.3-6.4.1zm7.7-.2c0-.1 2.3-.3 5-.4a236.5 236.5 0 0 0 9-.2l-.4.5c-.7.3-13.6.4-13.6.1zm-386.3-.5-1.5-.5c-.7-.4-5.6-.4-6.6 0l-3.6.3c-2.4 0-2.9 0-3.3-.4-.4-.5-.4-.5 0-1 .5-.5 1.1-.5 8.7-1a205.3 205.3 0 0 0 10-.9c2.4 0 2.8-.4.9-.7-2-.4-3-1-2.8-1.6.1-.2.3-.3.7-.2 2.7.7 14.3 1 15.6.4.4-.3 3-.3 11-.2 22.2.2 38.5 0 43.7-.5l1.7-.2-1.2-.3c-1.1-.2-18.3-.3-53.3-.2-14.6.1-19.9-.3-20.6-1.3-.8-1.4.3-1.6 7.8-1.4l6.5.2.5-.7c.3-.4 1-.7 1.5-.8l7.5-.2c6.4-.1 6.7-.1 8-.8l1.4-.7-2-1c-3-1.3-4.9-2.4-5.2-3a86.6 86.6 0 0 0-6.2-17.8l-1-2-1.2.1c-.7 0-1.6.3-2 .4a7801.5 7801.5 0 0 0-26 .3 22 22 0 0 1-7.1-.8l-1.9-.7c-1-.2-1.3-.4-1.4-.9 0-.7-.4-.6 5.1-.6 3.9 0 4.7.2 5.5.6.8.5 1.6.5 12.1.5a115 115 0 0 0 13.7-.6c1 0 1.8-.2 2-.4.4-.5-2.5-7-3.2-7-.3 0-.3.6-.2 3.2.2 2.5.2 3.2-.1 3.4-.3.2-.5.2-.8 0-.4-.2-.4-.6-.9-9.6-.1-2.4-.3-3.5-.8-4.8-.4-.9-.7-2-.7-2.7 0-.7-.2-1.4-.5-2-.3-.3-1-1.7-1.6-3-.6-1.2-1.3-2.6-1.6-2.9-.4-.6-.4-.6-.6 0v1c0 .2.2 3 .2 6.3.2 6.4.5 11 1 13.6.2 1.6 0 2.3-.7 2.3-.8 0-1-1.4-1.5-14.3-.4-12-.8-15.3-2-17-.4-.4-.6-.9-.6-1.2 0-.7-1.8-4-2.6-4.8-1-1-2.9-6.9-3.5-11.1a68.3 68.3 0 0 1-.6-23.5 35.4 35.4 0 0 1 1.6-6.5c.2-1 .8-2.7 1.3-3.6a1696.6 1696.6 0 0 0 8.4-16.8c.6-.4 1-1.6 1-2.7 0-.7-.2-1-1-1.4-2.8-1.4-4.9-4.3-4.8-6.6 0-1.4 0-1.5 1.4-2.6 2-1.5 3-1.8 6-1.8a169.8 169.8 0 0 0 17.4-1.2c6-.6 8-.9 8.1-1 0-.2-.5-1-1.2-2l-1.3-1.5.4-.8.5-.8-2-1.8c-1-1-1.8-2-1.8-2.3 0-.6.7-1.4 1.2-1.4.6 0 .3-.5-.3-.7-.4-.1-1-.7-1.5-1.3-.4-.6-1-1.4-1.5-1.8-1-.9-1-1.6-.5-2.5.4-.5.4-.6-.5-1.3l-1.7-1.3c-.7-.5-.8-.6-.7-1.4.1-.8 0-1-.7-1.8l-1.3-2c-.2-.7-.8-1.4-1.2-1.7-1-.6-1.5-1.4-1.4-3v-2.2c0-.6.2-1.4.4-1.8.4-.7.4-1 .1-1.6-.6-1.4.8-1.6 1.7-.2l.6.5c.2-.3-.4-1.6-.7-1.6-.3 0-.7-1-.6-1.5.1-.2.6-.3 1.2-.3 1 0 1.2-.3.7-1.1-.1-.4-.1-.6.2-.9.5-.5 1.1-.3 1.7.5.4.5.6.5 1 .2 1.3-.8 3.2 0 4 1.5.7 1.3 1 1.5 1.5 1 .3-.2.3-.5.2-1 0-.5 0-.9.4-1.3.9-.8 1.8-.7 2.5.4.3.6.9 1.1 1.5 1.4.7.2 1 .6 1.2 1.2.3.7.4.8 1.3.9 1.3 0 1.7.5 1.9 2.5.1.8.3 1.7.5 1.8.3.3.4.2.4 0 0-.8.6-1.8 1.1-2 .3 0 .9 0 1.3.3l1.3.7c.3.1.4.6.3 2.2 0 1.6 0 2 .3 2 .2 0 .5-.1.6-.3 0-.1.3-.2.5 0 .3 0 .4.5.4 1.3s.2 1.4.6 1.8c.4.6.5 1 .3 2.1-.1 1.4-.1 1.4.5 1.4 1 0 1.4.4 1.2 1.3-.2.4-.3 1.5-.3 2.4l-.3 3.1c-.2 1.8 0 1.8 1.3.3l1.4-1.6c.3-.4.5-.4.8-.2.3.3.2.6-.2 1.8-.3.7-.5 1.5-.4 1.6 0 .2.6.2 1.2.1 1 0 1 0 1.4 1 .3.6.5 1.4.5 1.7 0 .4.2.8.5.9.6.3.8.7.6 1.7-.1 1 0 1 .6 1 .7 0 .7 0 .5.9-.2 1.4-1.3 3.5-2.4 4.6-.5.6-1 1.2-.8 1.3.2.2 1.8-1 1.8-1.3l.6-.2c.8 0 1 .8.1 1.6l-.5.5.6.7c.8.9 1.7.7 2.1-.4.4-1 1.5-1.2 5-.8 3.6.4 37.6.4 43.8 0 6.5-.4 9-.3 12.2.3 3.5.7 5 1.1 6 2 1.7 1.2 1.7 1.2 1.7 3.7-.1 2.7-.6 3.8-2.3 5.5-.6.6-1 1.2-1 1.4 0 .1.9 1.1 2.1 2.2 1.5 1.3 2.3 2.2 2.5 2.8l.7 1.8c1.4 3 1.9 5.3 2.8 13.8.5 4 .8 10.5.8 16 0 5.4-.1 5.8-1.1 6.1-.3.1-.3.3 0 .7.3.6.5 3.9.2 4.7v1c.2.4 0 1.2-.5 2.6l-1.7 5.6a24.4 24.4 0 0 1-1.4 4.6l-.2.7a90 90 0 0 1-6.9 16.3c0 .2.2.1.5 0 .4-.3.6-.3 1 0 .4.4.3.6 0 1.9l-1.2 2.8-1.2 3.2c-.2 1-.7 2.2-1 2.8l-1.2 3a333 333 0 0 1-4.6 12.7c-.6 1.5-.5 1.5 3.9 1.7h8.3a87.4 87.4 0 0 1 16.4-.3c.2-.2.3-1.4.3-3.4-.1-2.8 0-3 .3-2.6.3.2.4.9.4 1.6l.3 2.4.3 1.3 3-.2c3.6-.1 4.1-.3 4.1-1.8 0-.5.1-1 .3-1 .1 0 .2-.4.2-1 0-.5 0-.9-.2-.9s-.3-1-.2-2.6c0-2.3 0-2.4.1-.6 0 1 .2 1.9.3 1.9.2 0 .3 1.2.3 2.8 0 2.4 0 2.8.5 2.8h4.5c3.6 0 4.2 0 4.6.4.4.3.4.5.2.8-.4.4-1.2.5-7.7.9-4.4.2-5.3.4-6.6 1-1.6.6-3.3.8-7.2.9-2.2 0-2.7-.1-3.5-.6l-1-.6-4.3.4c-6.3.7-13.7.9-15.8.5-2.2-.5-3-.3-3.3.7a80.4 80.4 0 0 1-4 11.9 12 12 0 0 1-3 2.8c-4 2.9-4.7 3.3-5.8 3.3a2 2 0 0 0-1.6.7c-.3.4-.7.7-.8.7l-1.6.9c-1 .6-1.7 1-2.3 1-.5 0-1.3.1-1.8.4-.4.2-1.7.5-2.9.6-2.5.2-10 1.5-10.1 1.8h3c3-.2 3.4-.2 3.8.3.3.3.5.7.4 1-.2.4-1.7.7-3 .5a34 34 0 0 0-7.3.3c0 .2 1.6.3 3.4.4 3.6.2 5 .5 5 1.2s-.6.8-3 .8c-1.4 0-2 .1-2 .3a1022.7 1022.7 0 0 1 31.9 0c1.3 0 8.8-.2 14.6-.5 12-.7 29-1 43.6-.9 11 0 20.4-.2 20.8-.6.3-.2-.6-.3-5.1-.5a405.7 405.7 0 0 1-29-2c-2.6-.3-4-.7-4.4-1.2-.4-.5.4-1 2-1 3.6 0 11.6 0 16.3.2 5.4.2 5.4.2 6-.4.6-.5.8-.6 3-.4l13 .4a1777 1777 0 0 1 49 1.5c4.5 0 8.5.2 8.8.3.3 0 .6.2.6.5 0 .4-1 .6-5.4.8-3.2 0-7.9.5-9.7.8-.9.1-1 0-1.2-.4-.1-.6-.3-.6-2.4-.5-1.3 0-2.8.2-3.4.4l-1 .2 1.1.2a99 99 0 0 0 14 .4 843.5 843.5 0 0 1 49.8-.7 333.1 333.1 0 0 0 29.6-.6c14.3-.3 24.9-.7 30.2-1 2.4-.2 8.5-.4 13.5-.4 23.7-.4 32.3-.7 33.5-1.3.5-.3 0-.4-4-.6l-11.1-.4a613 613 0 0 0-30.3-.3c-10.1.1-13.2 0-13.2-.8 0-.6 1.6-.8 7.2-.7h12.3c6.6 0 7 0 6.6-.5-.4-.3-.6-.4-1.1-.1-.8.3-3.4.1-8-.6-1.3-.2-3.5-.3-5.9-.2-3.2.1-3.8 0-3.7-.2.1-.3.8-.4 3-.5 1.6 0 3.6-.2 4.4-.3l1.5-.4-1-.3c-1.7-.6-4-.7-10.2-.7-5.2 0-6-.1-6-.5 0-.3 1.4-.5 7-1 .6 0-1.3-.9-2-.9-.5 0-.9-.2-1.2-.7-.2-.4-.8-1-1.4-1.4-.6-.4-1-.9-1-1.1 0-.4-2.4-2.3-4-3.3l-.8-.6-1.3-1.1a5 5 0 0 1-1.8-2.4c-.6-1.3-1-1.8-3.6-3.5-1.5-1-9-1.2-22.4-.7l-10 .7-8.7.2c-5.2 0-6.3 0-7.6.4-1.2.4-1.6.4-2.1.1-.9-.3-3.1-.3-6.6 0-3.5.4-14.9.3-15.6 0-1-.6-1.7 0-3.4 2.4a84.6 84.6 0 0 1-5.3 7.1 23 23 0 0 1-2.2 2.6c-.5.6-1 1.1-1 1.3l-.7 1.3c-.5.5-.8 1.1-.8 1.3 0 .5-.8 2-1.2 2.3a32.5 32.5 0 0 1 3.4-.3c2.5-.2 3.4 0 3.2.6-.1.3-.8.4-2.5.6a19.4 19.4 0 0 0-4.4.7c-.3 0-.2 0 .3.2.5 0 .8.3.9.7v.5h-13.2a60.5 60.5 0 0 1-16-.7l-27.4-.1c-4.6-.1-6-.3-6.6-.6-1.1-.7-.3-1 4-.9 5.5.1 5.5.1 5.4-.3-.2-.5-1.8-1-4-1.1-2.2-.2-3.7-.7-4.5-1.7-.4-.4-1-.7-1.7-.8-.9-.1-1.2-.3-1.3-.6 0-.4.1-.6.5-.7.7-.1.7-1 0-1.6-.2-.3-.5-.9-.5-1.3-.1-.6-.5-.9-1.6-1.5a10 10 0 0 1-2-1.1c-.7-.9-2.2-3.1-3-4.7-.5-1-1.1-1.9-1.4-2.2a19 19 0 0 1-1.5-2.4c-.9-1.7-1-2-.7-2.7.3-.8.3-.9-.6-1.8l-.9-1.2c0-.2-.2-.5-.6-.8a18 18 0 0 1-1.6-1.9 8 8 0 0 0-1.5-1.6 31.8 31.8 0 0 1-7-9.3l-1.8-3.1-1.3-1.8a3 3 0 0 0-1.2-1l-3.8-1.7c-2.6-1.2-4.6-3-4.3-3.8 0-.1-.2-.5-.6-.7-1.8-1.2-2.4-2-1.4-2.4.5-.2 2.5 1 4.2 2.5 1.6 1.3 5.5 3 8.4 3.7l2.4 1a13 13 0 0 0 5.4 1 114.3 114.3 0 0 0 10 .9l5.5.5c3.2.6 6.7 1 9.5 1a117.2 117.2 0 0 0 13.6.6c2.1 0 4.6.2 5.5.3a125.3 125.3 0 0 0 31.6 0l4.1-.2c2.2 0 2.3 0 2.2 1a45.5 45.5 0 0 0 15-.5c2.7-.7 3.3-.9 4-1.7.4-.5.8-.7 1.6-.7 1.2 0 2.6-.5 5.5-2l2.6-1.2c.2 0 .5-.3.8-.7l.4-.7-.9.2-2.8.8a61.7 61.7 0 0 1-16.2 3.3l-3.7.4a141 141 0 0 1-26.3.6c-.5-.4-.5-.4.1-.5.4-.1 4.1-.3 8.2-.3 11-.3 18.4-.9 28.8-2.5.9-.2 2.1-.6 2.8-1 .7-.3 1.8-.7 2.7-.7 2-.3 4-.9 5.8-1.8a26.5 26.5 0 0 0 7-6c.2 0 .8-.5 1.4-.9 2-1.3 2.3-.3.7 2.7-.4.8-.7 1.7-.7 2 0 1.5-2.8 4.5-5 5.6-2.3 1-6.1 5-7 7.3-.3.5-1 1.3-1.7 1.9-1.6 1.2-6.2 6-6.2 6.3l-.6 1.5c-.4.8-.7 1.5-.7 1.8l-.8 2.2c-.8 1.5-1 2.2-1.5 4.6l-.1.8 1.6.3c1.5.3 1.8.3 2.2-.1.4-.4.6-.4 1-.2.2.2 1.7.4 3.2.4 2.6 0 2.9 0 3.5-.5.5-.5.6-.6.8-.2.1.3.7.4 4 .3l13.8-.3c5.5 0 10.4-.2 10.9-.4 1.3-.4 11.5-.8 20-.8 4 0 7.2-.1 7.3-.2l.7-.6c.6-.4.6-.4-1-2a97.6 97.6 0 0 1-5.6-6.5c-1.4-1.7-2-2.3-2.5-2.3-.3 0-.6.1-.7.3 0 .2-.2-.3-.3-1-.2-1.5-.6-2.2-2-3.6a72 72 0 0 1-3.5-4.5 134 134 0 0 0-7.7-9.2 27 27 0 0 1-2.2-1c-1.2-.6-1.4-.8-2.7-3.5-1-2-1.4-3.3-1.6-4.8l-.3-2 1.3-1c1.6-1.5 3.2-2.3 6.7-3.3a55.7 55.7 0 0 1 14.8-2.2c.5 0 3.4 0 6.6-.3 6-.4 8.5-.6 15.7-.9 4.3-.1 4.4-.2 4.3-.7-.1-.3-.3-1.4-.3-2.5-.2-2.2-.6-3.7-1-4.2-.6-.5-4.5-.5-5 0-.2.3-.2 1 0 2.7 0 1.9 0 2.3-.3 2.3s-.4-.5-.5-2.1c-.2-2.7-.5-3-3.7-3-1.8 0-2.6.1-3.2.5-.7.4-.7.4-1.4-.2-.6-.6-.9-.6-3.4-.6-1.4 0-3 .2-3.4.4-.7.3-.8.3-.7 1.9 0 2.5 0 2.8-.4 2.8-.5 0-.5-.4-.5-2.8.1-1.6 0-1.7-.7-2-1.3-.4-4.6-.3-5 .1-.2.2-.3 1.6-.3 3.7 0 2.3 0 3.5-.2 3.7-.3.2-.3.2-.4 0 0-.5-.1-2.7-.4-5.3-.1-2.3-.2-2.4-3.3-2.6-3-.2-3.6 0-3.8 1-.1.6-.3 1-.4 1-.2 0-.3 1-.2 2 0 2.9 0 3.4-.2 3.2l-.1-3.6v-3.4l-.7-.2a1161.3 1161.3 0 0 0-72 1.5c-4.7-.2-31.7.1-32 .3-.3.2-.4 1.3-.4 4 0 2 0 3.4-.1 2.9s-.3-.9-.4-.9l-.2-.6c0-.4 0-.7.2-.7.4 0 .4-4 0-4.4-.2-.2-.6-.4-1-.4l-1.9-.5c-1.3-.5-1.6-.5-12.9-.2a565.8 565.8 0 0 1-21.2.4c-3.1.2-6 .3-6.5.2l-3.7-.4c-3.9-.3-4.8-.6-5.1-1.5-.4-.9 0-2.3.6-2.8.4-.3.4-.4-.4-.6-1.3-.3-1.6-.5-1.3-1.5.3-1.4 1.2-2.5 2.7-3.3 1.3-.8 1.6-.8 6-1 4-.2 4.8-.3 5.3-.8.6-.5.7-2 .3-2.8-.4-.6-.3.3-.3-11.2l-.1-10c-.1 0-.3-6.6-.3-14.4a1226 1226 0 0 0-1-46l-.2-13.7-.1-11.8c-.5-11-.5-10.6 0-10.6.2 0 .3.6.5 2.8.3 3.4.4 5.7.4 9.1a94.9 94.9 0 0 1 .7 17.9 177.5 177.5 0 0 0 .5 21.4l.4 10.2c.2 3.1.3 9.2.3 13.5 0 19.1.2 24 1 24.6.1.2 1.4.4 3 .4a449.4 449.4 0 0 1 17.3.9l3.8.1c5 .3 13 .2 14.2-.2 1-.4 4.3-.4 23.7-.5 31.1 0 34 0 35.2.4l1.1.3-1 .2-28.2.3c-24.7.1-27.5.2-28.7.6-1.2.4-2.1.4-6.6.3a1091.7 1091.7 0 0 0-33.6-.5c-.5.2-.7.5-.8 1.4 0 .8 0 1.3.2 1.5.1.2 1.6.6 3.2.9 2.8.6 3.5.6 15.9.6a840.2 840.2 0 0 0 41-.6 11594 11594 0 0 0 33.7-.6h11.8c9-.3 10-.3 11 .1 1.4.5 1.8 1 1.8 2.1 0 .8 0 .8 4.4 1.4a175.5 175.5 0 0 1 15.7 2.5 550.7 550.7 0 0 0 23.2 4.1l3.6.7a516.9 516.9 0 0 0 18 3.2c2.6.5 4 .6 10.7.6 7.5 0 7.6 0 8.8-.6l1-.6v-1.4c-.2-1.2-.1-1.8.3-3 .5-1.4.6-2.2.6-4.7 0-3.6.2-12.5.4-13.3 0-.5.2-.6.4-.4.3.2.4 3.1.4 12v11.7l8.3-.1c8.5-.2 11.3 0 12.4.7.8.5 1 1.5.4 2.7-.4 1-.4 1 0 2 .5.9.5 1.1.2 1.8-.2.5-.5 2.4-.7 4.2-.4 4.2-.6 5-1 5.4-.3.3-.3.2-.3-2.4v-2H407l-4 .2c-2.7.2-2.8.2-3 .9-.1.4-.2 1-.1 1.4.1.8-.3 1.2-.9.7-.3-.2-.3-.4-.1-.8l.3-1c0-1-2.2-1.8-3-1-.3.5-1 .6-1 .2 0-.2-.8-.3-1.8-.3-1.7 0-1.9 0-2.1.7a5 5 0 0 0-.3 1.7c0 .6-.2 1-.3 1-.3 0-.3-.4-.4-2.2 0-.6-.2-.9-1-1.2-1-.6-4-.7-4.3-.2-.1.1-.5 0-1-.3-.7-.6-.9-.6-2.4-.3l-2 .6c-.4.3-.7.3-1 0-.4-.2-1-.3-1.7-.3-.6 0-1.6-.1-2.3-.3-1.6-.4-2.4 0-2.4 1.4 0 .6-.2 1-.3 1-.1 0-.3-.5-.3-1 0-1 0-1.1-.7-1.3-.9-.2-5.1.1-5.3.4-.2.4 0 5.5.3 5.8 0 0 1.6.2 3.3.2 1.7 0 3.2 0 3.2.2l13.7.3c12.3 0 13.6 0 14.7-.4 1-.4 2.1-.5 4.3-.5l8.5-.2h.8l.2-3.2.4-4c.2-.5.3-4.7.3-9.2 0-8.4.2-9.3 1-8.8a41.3 41.3 0 0 1 .1 9.3c-.2.4-.3 13.5-.1 14.5.1.7.4 1 1 1.4.7.3.8.5.6.7-.4.3-2.8.5-5.7.6-1.5 0-1.7 0-1.1.3a9 9 0 0 0 2.3.4 494.3 494.3 0 0 1 28.2 1.4c3.4.3 4.1.3 4.1-.1 0-.7 1.1-.7 6.9-.3 1.4 0 3.8.3 5.4.4 2.1.2 3 .2 3.7 0 1.1-.4 3 0 4 .8.3.3 1.4.8 2.4 1.2 1 .3 2.1 1 2.5 1.3l1.1.7c1.3 0 4.4 3.2 4.4 4.5 0 .5-1 2.3-2.1 4.1-.8 1.2-3.1 2.7-4.1 2.7-.3 0-.7.1-.7.3l-2.4.6-2.8.7c-.4.2-.6.2-.6-.1 0-.4.4-.5 1-.4 0 0 .3 0 .3-.2a347.6 347.6 0 0 1 7.3-4.1c.4-.2.7-.7.9-1.1l.6-1.6c.7-1.7-.3-3.4-2.3-3.6-1.1-.1-1.3-.2-1.8-1-.6-1.3-2.4-2-3.4-1.3-.7.6-1.5.6-3.4 0l-3.6-.5c-1.2 0-2.6-.2-3.3-.3-.6-.2-2.1-.4-3.4-.5l-3.8-.3h-3c-.7.2-1.8.1-2.7 0-.8-.2-2.8-.4-4.5-.5l-7.3-.4c-5.5-.4-7.5-.4-16.9-.6-4.4 0-9.8-.2-12.2-.3h-8c-2.8.3-3.9.3-5 0-1.9-.6-11.8-1.2-18.2-1.2a333.8 333.8 0 0 0-29.5 1.6c-8.3.5-11 .8-13.9 1.6-5.7 1.5-6 1.6-7.2 2.7l-1.7 1.4c-.8.7-.6 2.5.5 4.6 1.7 3.4 3.5 4.7 8 6.1a14431.1 14431.1 0 0 0 5.3 1.3c.4 0 .8.2 1 .3 0 .2.6.3 1.1.3.6 0 1.1 0 1.2.2.1.2.6.3 1 .3.9 0 .9 0 .2-.3a6 6 0 0 0-1.3-.4c-1.2-.1-2-.4-3.8-1.3l-3-1.3c-1.4-.6-1.5-1.3-.2-1.4 1-.1 2.6.4 5.6 1.6a28.3 28.3 0 0 0 5 1.6 88 88 0 0 0 14.5 2.7c1.4 0 3 .3 3.3.5 1.1.6 5.2 1 11.6 1.1 4.3.1 6.2.1 6.6-.1.4-.3.4-.3-.3-.3-1.1 0-3-1-3-1.5s.3-.5 2.2 0c1.5.4 3.6.6 11.1 1.3a305.5 305.5 0 0 0 23.1.1c.3-.3 1.4-.4 4.4-.6 2.2 0 4.5-.3 5.2-.4.9-.2 1.8-.3 3 0h2c.1-.2.4-.2.7 0 .4.2.4.2-.2.4l-.6.2.7.4c.8.4 1.3.4 2.2 0l.7-.3-.6-.3-.7-.3.8-.3a20 20 0 0 1 4-.3c5 0 16.5-.5 18.3-.8l4.2-.8c1.6-.4 3.4-.6 4.5-.5 1.3 0 2.2-.1 2.7-.4 1.1-.5 2.5-.7 2.9-.4.4.4.2 1-1.3 2.7l-1.8 2.8a17.4 17.4 0 0 1-1.8 3.1c-.7 1.4-2.7 4.1-4 5.6-.7.7-2 2.2-2.7 3.3-.8 1-2.1 2.6-3 3.3l-3.3 3.5a180.1 180.1 0 0 1-5.6 6.3c-.2.4-1 1.2-1.6 1.9l-1.8 2.1a5 5 0 0 1-1 1.2c-.3.1-1 1-1.8 1.7-1.2 1.3-1.3 1.5-1 1.8.8.8.1 1.8-1.7 2.6-2.3 1-2.3 1-2.2 2.3 0 1.6-.4 2-3 2.4-3.6.4-5.2.8-4.8 1.1.2.2 2.6.4 7.5.4 7.1 0 10.1.3 11.5.8.8.3 1.2 1 .9 1.3l-6.6.3a324.4 324.4 0 0 0-19.8 1.1c-9.2.5-9.9.6-9.5 1 .3.2 2.8.3 7.8.5 7 .2 7.5.2 8.4-.3.8-.4 1.3-.4 3.8-.3l4.5.2a75 75 0 0 0 9-.6c4-.5 5.3-.5 5.7-.3.7.5-.2.8-3.2 1-3.2.1-7.8.6-8.6.8-.3 0-.7.4-.9.7l-.3.7h3.5a245.4 245.4 0 0 0 24.4-1.1l3 .2c4.7 0 7.3.8 5.4 1.6-.7.3-17.7.8-22.9.7-1.1 0-5 0-8.6.2a2157.3 2157.3 0 0 1-48.2 1.4h-8c-2.4 0-5.5 0-7 .2a24 24 0 0 1-3.9.2h-4.5l-8.5.6a31 31 0 0 0-6.2.6c-3 1-2.8 1-19.6.8l-24.6-.2c-25.8 0-33.6.1-37.8.4-5.7.3-9 .3-11.4 0-2.5-.4-6.8-.4-16.3-.2a97 97 0 0 0-15.2 1 92.5 92.5 0 0 0-16.2.4h-9.4a442.9 442.9 0 0 0-42 .9l-11 .4c-16.3 1-32.5 1.4-35.5 1-3-.2-8.1-.2-17.9.2a1262 1262 0 0 1-18.1.7c-1.8.2-5.8.3-9 .4-3.2 0-8 .2-10.7.4-3.1.2-8.8.3-15.2.3a180 180 0 0 0-17.4.6zm31.2-2.9h-1c-.4 0-.2.1.4.1h.6zm2.4 0h-.6c-.2.1-.1.2.2.2l.4-.1zm24.6-.7c3.1-.4 1-.7-3.5-.5a68 68 0 0 0-4.6.2c-.6.6 4.4.7 8 .3zm154-4.1a1250.6 1250.6 0 0 1 12.7-.1c.8-.3.8-1.4-.2-1.7-1-.2-15 .1-18 .5-2.4.3-2.6.2-3-.3-.5-.6-3.5-1-5.6-.8a574.7 574.7 0 0 1-30 .2c-.6.3-.4.3 1.9.3a130.5 130.5 0 0 0 12 .8c6.4.3 19.2 1 19.3 1.2h4.9l6-.1zm-175.4-2.3c0-.3-.4-.4-1.8-.4-2 0-2.7.2-2.7.6 0 .1 1 .2 2.3.2 1.8 0 2.2 0 2.2-.4zm1.4.3c-.2-.1-.5-.1-.8 0h.8zm32.5-1.2a132.6 132.6 0 0 0 13.7-1.6c0-.3-2.2-.6-2.7-.4l-13.3.2a189.4 189.4 0 0 1-23.1-.8h-1.5l1.2.4c1.1.3 3.4.7 6.2 1 .8.1 1.5.4 2 .8.7.7.7.7 6.9.7 3.4 0 8.2-.1 10.6-.3zM55 268.4h-.6c-.2 0-.1.2.2.2.3 0 .4 0 .4-.2zm53.3-.6a15.2 15.2 0 0 0 6.2-2.2 46.8 46.8 0 0 0 11.7-7.3c1.6-.9 2.5-2.5 5-9.8.5-1.2.8-2.5.8-3 0-.3.3-1 .7-1.6.3-.5.8-1.5 1-2.2 0-.7.3-1.4.4-1.5l1-2.3a278.5 278.5 0 0 1 3-8.1c.2-.9 1-2.8 2.3-6 1.4-3.4 2-4.9 2.1-6 .2-1.1.2-1.2-.2-.8-.3.2-.5.5-.5.7 0 .8-1.3 2.2-2 2.2-.9 0-.9-1 0-2.1.8-1 1-1.4 4-8 3-6.5 5-12 7.2-19.8.5-2 .7-3.2.7-5.8 0-2.9.1-3.3.6-3.5.7-.4.7-.4.5-.8-.1-.2-.3-4.3-.3-9a50 50 0 0 0-2-17.3c0-1.6-.5-2.9-1.6-3.6-.5-.3-1.2-1-1.5-1.6l-1.8-2.4c-.6-.7-1.1-1.5-1.1-1.8 0-.8-.7-2-1.4-2.3-.4-.2-.9-.8-1.1-1.3-.5-1-.5-1-1.7-.7l-8.4.4c-4 0-8.1.3-9.3.4-5 .7-9.9 1-19.5 1-5.7 0-11.4.2-12.7.4-8.6 1-8.3 1-10.6.3-1.7-.6-1.8-.6-2.3-.2-.2.3-.9.5-1.3.5a192.5 192.5 0 0 1-18.2-1.1c-1.9-.3-4.2-.3-4.8 0-.3.1-2.4.3-4.7.3-2.4.1-4.4.2-4.6.4-.2 0-2.2.2-4.5.2-3.3 0-4.5.2-6.3.7-4 1-4 1.1-7.1 7.6a165.3 165.3 0 0 1-4 8.1c-2 4.3-2.1 4.8-2.3 7.5 0 1.4-.3 3-.5 3.6a84.1 84.1 0 0 0 2.4 28c0 .7.4 1.4 1 1.9.9 1 2 3.2 2.6 5 .1.6.6 1.7 1 2.5.5.7 1 2.1 1.4 3.1a69.8 69.8 0 0 0 4.1 9.3l.5 1.2 1 2.2c.3 1 .4 1 .4.3 0-.4-.1-1-.3-1.2-.2-.4-.1-.6.2-1 .8-.8 1.4-.4 2 1.3.1.6.6 1.7.9 2.5a73.1 73.1 0 0 1 3.3 8.8 67.4 67.4 0 0 1 2.6 6.8c.3.4.6 1 .6 1.3l.4 1.7c.6 1 1 2.4 1 2.8-.1.2.2 1 .5 1.6.4.7.7 1.8.8 2.3.1.6.5 1.3.7 1.6l.6.6-.2-1-.5-1.5-.5-1.8c-.1-.6-.5-1.7-.9-2.4-.3-.7-.6-1.6-.6-2 0-.4-.2-1-.4-1.3a16 16 0 0 1-1-2.7 58 58 0 0 0-1.3-3.6 59 59 0 0 1-1.9-5.8l-2-6.6c-.2-1-.2-1.1.1-1.5.4-.4 1.2-.2 1.5.3.2.2 1 2.7 1.1 3.6a87.3 87.3 0 0 0 4.3 13.7c.5 1.5 1 3.1 1.3 3.6a77.9 77.9 0 0 1 3.3 10.1c.4.9.3 1.5-.1 2-.4.2-.6.2-1 0-.6-.4-.6-.6 0 2 0 .5 0 1.1-.2 1.5-.3.6-.3.8.7 2.2 1.2 1.6 3 2.8 4.8 3.1l1.1.2v-1.2l-.1-1.1 1.4-.3c.7-.2 2.7-.4 4.4-.4 3.6-.2 4.2-.5 2-1.2-3-.8-4.5-2-3.3-2.4.2-.1 1.5 0 2.7.4 4.4 1 6 1.3 10.6 1.6 4.6.4 5 .4 5.2.2.4-.3-.1-.5-1.8-.6-.9 0-2-.2-2.4-.4-1.2-.4-4-1-5.8-1-.9 0-1.8-.2-2.2-.3l-2.4-.4c-1.2-.1-2.4-.4-3.7-1-1-.5-2.5-1.2-3.3-1.4l-1.4-.5 1-.2 2.2-.2c1 0 1.1 0 1.2-.7 0-.7.1-.8 1.7-.7.8 0 2.4.1 3.5.3 2 .3 4.1.2 5.4-.3.7-.3 1-.1-3.5-1.9-.5-.2-2-.6-3.5-.8-4.5-.8-8.2-2.4-8.2-3.5 0-.5 1-.6 2.3-.2 1.6.6 3.7.6 7.8.1 3.5-.4 3.5-.5 0-1.4-2-.5-4.3-1.5-5-2.2-.3-.2-1.3-.4-2.3-.6-2-.2-3-.6-3-1 0-.6 1.2-1 3.8-1a40 40 0 0 0 4-.4l3-.3c.8 0 1.8 0 2.1-.2.6-.1.5-.2-.8-.5a124.7 124.7 0 0 0-7.3-1.4l-2.1-.5c-1.2-.2-2.5-.9-3-1.4-.5-.7.1-1.2 1.1-1.1h.4c-.6-.2-.6-.6.1-.8.5-.2 1.5 0 4.6.7 1.8.3 5.8.5 6.2.2.4-.2.3-.2-.3-.2a6 6 0 0 1-1.8-.6c-.9-.3-1.7-.5-3.3-.5-2 0-2.2 0-2.2-.5 0-.7-.6-1-1.4-1-.7 0-1.7-1-1.4-1.2.3-.3 1.6-.2 1.9 0 0 .2 1.5.6 3 1 2.5.5 3 .6 5.8.4l3.6-.4h1.3c.8.3.7.3-.5.5-2.5.3-4 .7-3.7 1 .4.4 5 1.5 7.3 1.8 1.2.1 2.7.5 3.5.7 1.5.6 5.1 1 10.8 1.3 2.8.1 4 .3 4.2.5.2.3.2.4 0 .5-1.2.4-4 .4-7 .1-3.6-.3-5-.2-5 .4 0 .6 7.5 1.2 9.8.8 3.1-.6 3.7-.6 4.2-.2.4.3.4.4-.5.7-1.1.5-2.2.7-4.8 1a1291 1291 0 0 0-19.3 2.4c.5.5 5.5 1.3 8.6 1.3 1.4 0 2 .1 2.6.6.6.5 1.2.6 4.6.7 3.8.2 3.9.2 4.5.9.3.4.8.7 1.2.8.3 0 .5.2.5.3a69.5 69.5 0 0 1-18.7-.8 30.3 30.3 0 0 0-9.8.5l-1.1.3 1.2.4a112.4 112.4 0 0 0 10.7 1.6c3-.7 3.2-.7 3.2 0 0 .5.2.7 1 1 .6.2 1.7.3 2.5.3s2.3.1 3.4.3l6.3.4c4.5.1 5.8.4 5.3 1.2-.3.4-2.4.5-11.8.2h-3.4a19.4 19.4 0 0 1 3.9.7c.5.1.6.2.5.8 0 .6 0 .6 3 .7 3.2.2 4.2.5 3.5 1.2-.3.3-1 .4-2.8.4a66.6 66.6 0 0 0-8.1-.4 42.5 42.5 0 0 1-7.3-.5c-3.2 0-9.6-.5-9.9-.8-.3-.3-4.2-.3-4 0 .4.6 3 1.2 5.3 1.2 1.5 0 3 .2 3.9.5.8.2 2.3.6 3.4.7l4.2.7c5.6 1 13.1 1.3 21 .7 2.8-.2 3.6-.2 3.8 0 .3.3.3.5 0 .7-.4.4-5.3 1.1-7.8 1.1-1.6 0-1.8.1-1 .3 1.3.2 1.9.7 1.4 1.2-.2.4-1.4.4-7.6.3-7.3 0-7.3 0-7.8.5-.3.3-1.1.8-1.8 1.1l-1.4.5 1.4.2c.7 0 2 .3 2.7.4 2.4.4 11.8.8 19.9.9 4.2 0 7.6.1 7.7.3.3.4 0 1-.7 1.2-.8.3 0 .3 1.8 0zM78 249.7c0-.3.3-.4.7-.4.4 0 .7.1.7.4 0 .2-.3.4-.7.4-.4 0-.7-.2-.7-.4zm-4-18.3h.5l-.3.1c-.3 0-.4 0-.2-.1zm3.7-.6h.5c.1.1 0 .2-.3.2s-.4 0-.2-.2zm1.4.1.3-.7c.2-.4 0-.5-1.3-.7a72.7 72.7 0 0 0-8-1.1c-2.5-.5-12.8-1.8-15.8-2-2.8-.3-3.9-.5-3.9-1 0-.3.4-.3 2-.3h1.8l-1.4-.8c-1.4-.7-1.7-1-1.2-1.3.1-.1 1.9.2 3.9.7 2.3.6 4.4 1 5.6 1 2.2 0 2.5.1 2.1.6-.5.7 5.5 1.7 12 2.1 1.3.1 2.8.4 3.2.6 1.2.5 2.7.7 8 .9 2.7 0 5 .2 5 .3v.6c-.3.2-1.7.3-4.7.3-3.1 0-4.3.1-4.4.4-.2.3-3.2.7-3.2.4zm-7.7-6.4h.5c0 .1 0 .2-.4.1-.3 0-.3 0-.1-.1zm2.2 0c-.3-.2-.4-.4-.3-.5.3-.2 4.2-1 5.4-1 1 0 1 0 .5-.2-.5-.4-1.8-.6-5.3-1a71 71 0 0 1-6.4-1c-4-1-8.2-1.7-12.2-2.3-4.3-.7-7-1.4-7.9-2.2-.2-.2-.2-.3.1-.5.7-.3 1.7-.1 3 .4 1.8.7 3.5.7 3.4 0 0-.5 1-.5 2.3.1.5.3 1.6.6 2.4.9a96 96 0 0 1 4.4 1.2 50.6 50.6 0 0 0 17.8 1.1 95.3 95.3 0 0 0 15.6-1.2 828.8 828.8 0 0 1 8.3-1.3c1.3-.3 4.8-.3 5.3 0 .8.4-.3 1-2.8 1.3l-7.9 1.3c-3.2.7-11.6 1.5-16.8 1.6-1.1 0-1.8.1-1.7.3.1.1.3.2.6 0 .2 0 .4.1.4.5 0 .6 0 .6 1.6.5 1 0 3-.4 4.5-.6 3-.5 3.7-.4 3.6.3 0 .3-.4.5-1.2.6l-2.9.5a128 128 0 0 1-13.8 1.1zM55.2 217h-.5c-.2 0-.1.1.2.1.3 0 .4 0 .3-.1zm18-1.2L62 215l-7.7-.2c-5.8-.2-8.2-.4-8.2-1 0-.4.9-.5 2-.4a187.7 187.7 0 0 0 52.7-3.2c5.9-1 7.7-1 7.4-.2-.3.6-2.6 1.3-6 1.7a65.3 65.3 0 0 0-9.7 1.6c-.7 0-1.7.1-2.2.3l-2.4.3c-4.3.4-5.3.5-5.3.9s2.3.5 2.6 0c0 0 1-.2 2.2-.2 1.9 0 4.6-.4 5.2-.8.1-.1 1-.3 2.1-.4 1.6-.1 2-.1 2 .2 0 .7-4.4 1.8-7.2 1.8a92 92 0 0 1-16.1.5zm7.4-1a7 7 0 0 0-1.6 0c-.4.1-.1.2.8.2.8 0 1.2 0 .8-.1zm-8.8-4-2-.5c-2.2-.6-6.6-1.6-7.3-1.6-.4 0-1.4-.4-2.2-.8-2-1-5.3-2.1-7.3-2.4-1.5-.2-1.8-.3-2.6-1.1-.5-.6-1.2-1-2-1.3-1.3-.3-2-.9-1.5-1 .5-.3 2.5.4 3 .9.3.2.8.4 1.1.4.4 0 1 .2 1.3.4 1 .5 2.2.6 5.9.7l4 .2c.6.1.6.1.1.3l-1.7.2c-.6 0-1.3.2-1.5.5-.4.3-.4.3 0 .3.3 0 1 .3 1.5.6.6.3 1.3.5 1.7.5.4 0 .7.1.7.3 0 .1.4.2 1 .2 1 0 1 0 0-.2-.6 0-.8-.2-.8-.7 0-.3.1-.7.3-.8.1 0 1.9 0 3.9.3 2.2.2 4.4.3 5.5.2a415.5 415.5 0 0 1 11.1-.9c7.3-.7 8.7-.8 12.6-.6 3.7.1 4.2.1 5.1-.4 1-.4 2.2-.7 6.4-1.4l2.8-.5 5-1 10.2-2.2c1.5-.3 2.7-.2 2.7.4 0 .5-1.6 1.2-2.7 1.2-.5 0-2 .2-3.2.5l-4 .7c-2.9.3-4 .7-4.3 1.3-.2.5-.7.7-2.6 1.2a75.7 75.7 0 0 1-8.3 1.5l-4.6.6c-4 .4-8.9 1-10.4 1.5-1.6.5-3.2.6-4.8.2-1.8-.4-9.8-.1-9.8.3 0 .2-.5.5-1.1.6-.7.2-1 .3-.6.3 1 0 2 .9 1.6 1.1-.4.3-.8.3-2.2 0zm38-2c-.5-.5.4-1 2.5-1.2 6.3-.6 8.7-.6 8.5.1-.2.5-1.6 1-4.3 1.2-3.4.4-6.3.4-6.7 0zm-60.5-1.6-3.7-.6c-3.7-.6-5.8-1.5-4.7-1.9.4-.1 2.6.2 6 1l3.4.5c2 0 3.1.5 3.1 1s-1.4.5-4 0zm16-2.5c0-.1.3-.2.7-.2.4 0 .7 0 .7.2s-.3.3-.7.3c-.4 0-.7-.1-.7-.3zm3.2-.2c0-.2.4-.3.9-.3l1.5-.1c5.7-.5 5.8-.5 5.8 0 0 .3-.3.4-1.6.4l-4.1.1c-1.8.1-2.5.1-2.5-.1zm-11-3c-2.9-.2-4.2-.5-5.2-1-.7-.4-.7-.5-.3-.9.2-.2.7-.4 1-.3l4.6.5a63 63 0 0 0 13-.3l-2.7-.3a44.3 44.3 0 0 1-5.8-1c-1.1 0-1.2-.6-.1-.7l.8-.1h-1c-.5 0-1-.2-1-.3-.2-.2-.6-.3-1-.3a25.4 25.4 0 0 1-16.6-4.3c-.5-.2-.6-.5-.6-1.1.2-1.2 1-1.2 3.7 0 1.3.4 3.2 1 4.5 1.1l3.2.6 2 .2 3.6.3c2.1.3 2.6.3 3.7 0a10 10 0 0 1 2.7-.5c3.3 0 1.4-.8-3.2-1.2a43.6 43.6 0 0 1-8.9-2.1c-.4-.4-1.2-.7-1.7-.8l-3.1-.8-3.2-.8c-.6-.1-1.8-.6-2.8-1a14 14 0 0 0-3-1c-1.6-.2-3-.8-2.9-1.2.1-.4 2.7-.2 5.7.4A79.5 79.5 0 0 0 53 186l3 .5c2 .3 3 .8 1.5.8-.4 0-.8.1-1 .4-.5.4-.5.4 2.7.5l1 .2 1.2.2 2.2.2c.6.2 4 .4 7.8.6 6.3.3 7.6.5 7 1 0 0-3.8.2-8.4.1-7.6 0-9 .2-5 .6l4.3.6c3.4.4 7.8.7 12.6 1 2.7.2 7.5-.5 7.5-1l.8-.2c.4 0 .8-.2.9-.3 0-.2.1-.2.2.1 0 .3-.2.5-.5.5s-.7.1-.9.4c-.1.2-.5.3-.7.2a124.4 124.4 0 0 0 17.7.1c3.5-.3 5.2-.1 4.8.5-.5.8-11.8 1.6-19 1.4-2.5 0-3.8 0-5 .4l-2.5.4h-1l1.1.3 4.1.5 5.7.5c4.2.5 13.4.8 21 .8 5.6 0 6.9.1 7 .4.1.2 0 .4-.6.5-.9.2-14 .3-19.7.2-4.2 0-4.6 0-6.2.5-.9.4-1.6.8-1.6 1 0 .3 11.2.4 16.2 0 3.9-.2 4.7-.1 4.5.5-.2.5-3.1.9-8.7 1-5 .3-16 .1-19.2-.2-2.4-.3-7.5-.2-13 0-7.4.5-14.9.6-17.4.3zm26.5-2.5c4-.2 8.6-.6 10-.8l1.1-.2-1.8-.3a104.2 104.2 0 0 0-10-1.3l-4-.5c-1.1-.3-4.5-.4-13-.6l-7.2-.2.7.6c.3.3 1 .6 1.3.7l1 .3 1.8.4c.7 0 1.9.4 2.5.6a69.5 69.5 0 0 0 17.6 1.3zm-24-9h-.5c-.2 0-.2.1.1.2.3 0 .5-.1.4-.2zm-5 7.8a110.6 110.6 0 0 1-20.6-3.6c-.6-.3-.6-.4-.2-.8.4-.4.8-.4 4.5.5 4.3 1 12 2.4 18 3.2 2.5.3 3 .4 3 .8 0 .2-1.6.2-4.7 0zm48.8-1.7c-.4-.3-.4-.3 0-.5l2.3-.4a124.2 124.2 0 0 0 12-2.5c6.1-1.5 7.3-1.6 7.3-.8 0 .7-1.7 1.3-6 2l-4.8 1a80.3 80.3 0 0 1-10.8 1.2zm-20-7 1.6-.4c8.1-.8 11.3-1.2 11.4-1.3.4-.4-1-.5-7-.6a105.7 105.7 0 0 1-10.7-.6c-1.1 0-1.4 0-1.5-.5-.1-.5-1.1-1-1.9-1l-1.2-.3-4.3-1.1-5.8-1.6a70.4 70.4 0 0 0-17.6-3.5l-5.5-.7c-3-.3-3.5-.5-3.3-1 .2-.5 2.6-.5 5.5.2 1.3.2 4.1.7 6.2.9 2.1.2 5.5.6 7.4 1l4.9.3c.7-.1 1.8 0 2.5.2 2.8.7 6 1 8 .8 3.1-.4 8-.7 8-.5l-1 .4c-1 .4 11.7.2 17.3-.2 9.1-.6 15.2-1.3 17.5-2 1.7-.6 3-.5 3 .1 0 .7-.5 1-2.3 1.6l-3 1a61.7 61.7 0 0 1-8.7 2.6l-3.4.8-4.6.8c-4.4.8-3.4 1 6 .8l10.3-.1c.7 0 1.4.1 1.6.3.5.5-.5.8-5.5 1.6l-6.5 1c-4.5 1-17.3 1.6-17.3 1zm6.3-4.5c3.8-.4 16-3.4 16.2-3.9.1-.4-1.1-.4-3.2 0-2 .3-7.3.5-20.8.6-6.5 0-12 .2-12.5.2-1.9 0 6.8 2.3 12.5 3.2 1.2.2 5.9.2 7.8 0zm-22.2-3.6h-.5c-.2 0-.1.1.2.2.3 0 .4-.1.3-.2zm-8.8 6.6c-.4 0-.6-.2-.6-.3 0-.4 1-.5 3.8-.3 1.7 0 2.6.2 2.7.5.1.2-.5.3-2.6.3l-3.3-.2zm2.7-1v-.5c.5-.2 5.1 0 5.3.2 0 0 0 .2-.3.2l-2.7.1h-2.3zm8.8-.6.3-.5c.2-.2.1-.4-.5-.5-.5 0-.8-.3-.8-.4 0-.4.6-.4 5 .4.8.2.7.8-.3 1-1.2.3-3.7.2-3.7 0zm-5.3-2a59.3 59.3 0 0 1-6.3-1.8c0-.3 1.2-.3 2.8.2l7 1.6c.5 0 .5.2.2.4-.5.3-1 .3-3.7-.3zm16.3-5.1h.8l-.5.1c-.5 0-.6 0-.3-.1zm2.7-1-9.6-1a35.2 35.2 0 0 1-5.8-.8 158.6 158.6 0 0 1-14.1-2.5c-1.3-.3-3-1-4.5-1.7-1.3-.7-2.7-1.3-3-1.3-.5 0-.7-.2-.7-.4 0-.3.3-.4 1.4-.4 1 0 1.8.2 3.3 1 1.6.7 2.2.9 3.6.9 1 0 2.3 0 3 .3 1 .2 2.2.2 4.9 0a411.9 411.9 0 0 0 17.2-2s.2-.1.2-.3c0-.3-.5-.4-1.6-.5-6-.8-13-2.3-14-3.2-.4-.3-.4-1 0-1l2 .6c3.2 1 9 2.1 16.6 3 3.4.4 4 .4 7.8-.1 6-.9 7.5-1 7.6-.7 0 .3-.8.6-3.2 1.3l-1.3.3 1.3.2 4 .2c2.2 0 2.7 0 2.7.4 0 .6-2 .8-6.8.5A67.4 67.4 0 0 0 75 172l-5.4.6c-5.5.4-7.4.6-6.7.7l1 .3c.6.3 4.1 1 6.5 1.2a196.2 196.2 0 0 0 23.7 2.1c4.3.2 4.8.3 4.8.8 0 .2-.2.4-.5.5-1.6.1-14 0-14-.1zm-32.6-10.7-1-.8a31 31 0 0 0-8.4-4c-1.2-.4-1.3-.4-2.1 0a2 2 0 0 1-1.5.4c-.6-.2-.7-.2-.5-1.3.2-1.2 1.4-3 2.6-3.5 1-.5 2.8-.5 4.5.2 1 .3 2.1 1.2 3.8 2.7l2.7 2.3c.5 0 .8.9 1 2.6.2 1.7 0 1.8-1 1.4zm-17.1-.6c-1-.7-1.8-2.4-1.8-3.5 0-2.9 2.3-7.5 5.4-10.6 1-1.1 1.6-1.5 2.5-1.6a12 12 0 0 1 8 2.2l2.5 1.5 2.2 1.3c1.3 1 5 4.7 5.4 5.3l.6 1.2c.5.9.4 2-.2 2-.3 0-.6-.2-.7-.4l-.8-1.6a26 26 0 0 0-10.2-8.2 14.3 14.3 0 0 0-5-1.9c-2 0-4.2 2.1-6.6 6.5a7 7 0 0 0-1 3.3v2l1 1c.5.5.9 1.1.8 1.4-.1.7-1.3.8-2.1.1zm50.9.3c0-.1.6-.3 1.3-.4 9.5-1.1 14.2-2 18.9-3.3 1.9-.5 3.4-.7 4.2-.4.4.2.4.2 0 .6-.4.4-1.9.7-5.7 1.4l-3.5.6A72.7 72.7 0 0 1 91 167c-2.2.3-5.5.3-5.5 0zm-7.2-2.6c-3-.3-4.3-.5-4.2-1 .2-.4 1.6-.7 2.8-.5l8.1.2c4.2 0 7.2.2 7.4.4.1.1 0 .4-.2.6a133.3 133.3 0 0 1-13.9.3zm4.4-5.9c-9-.3-13.4-.8-14.8-1.5-1.2-.6-.9-1 1-.8l5 .4c3.2.1 3.3.1 4.1-.5.7-.5 1.2-.6 3.5-.7 1.8 0 2.6 0 2.6.2 0 .1.3.3.7.3.4 0 .7-.1.7-.3 0-.1 1.6-.3 4-.3 2.2 0 .2-.1-4.4-.2a99.9 99.9 0 0 1-22-1.3c-3.8-.8-4.7-1-4.5-1.4.2-.3 2.1-.3 3.3 0 1.2.3 10.1 1 14.7 1.2a181.3 181.3 0 0 0 19.2 0c-1.1-.1-1.3-.2-1.3-.6 0-.6.2-.6 3.1-1a54 54 0 0 0 7-1c2.5-.4 5-1 9-1.9 2.1-.5 3.1-.5 3 0-.4.7-6 2.2-11.8 3l-2.9.6-2.4.3c-1 0-1.3 0-1.3.4 0 .3.3.3 1.4.3.8 0 1.5 0 1.7.2.6.4 0 .6-2 .8-4.6.3-5.3.4-4.7.7.4 0 .6.4.6.6 0 .4 0 .4 5.3-.4 4.7-.8 5.8-1 13.1-2.5 3.7-.8 4.5-.8 4.9-.3.4.5 0 .8-1.3 1l-3.3.8c-4.7 1-6.4 1.3-8.2 1.4-1.6.2-2 .3-2.8 1-1 1-2 1.3-6 1.4l-5.4.2h-8.8zm10.2-1.8h-1.3c-.4.1-.1.2.6.2s1 0 .7-.2zm-17.1-6-7.8-.4c-9.2-.3-11.7-.5-12.7-1.2-1.8-1.4-.5-2 3-1.3 5.6 1 26.8 1.6 39.5 1.1 3.8-.1 5.1 0 5.5.2 1.5 1.1-1.7 1.4-17.7 1.6h-9.8zm7.3-3.2c-1.3-.2-1-.8.3-1 2-.3 6.3 0 6.5.4.2.2.2.4.1.5-.1.2-5.4.2-6.9 0zm-5-.5c0-.4-.3-.4-1.8-.3l-3 .3H71a3 3 0 0 0-1.9 0c-.9.2-2.3.1-6.4-.2l-8.5-.7c-2.3-.1-3.4-.3-3.7-.6-.3-.3-.3-.4 0-.7.5-.4 2.5-.4 8 0l12.4.4c4.8 0 9 .2 9.4.2.7.2.5.7-.3.7-.3 0-.7.2-.9.4-.4.3-.3.4.5.4H81c.3 0 .5 0 .5.2s-.7.3-1.7.3c-1.4 0-1.8 0-1.8-.4zm325.3 119.8h-.5c-.2.1-.1.2.2.2.2 0 .4 0 .3-.2zm-146.8-.5h-1c-.4 0-.2.1.4.1.6 0 .8 0 .6-.1zM57 265.5c-.9-.5-1.5-.5-1 0 .2.3.6.4 1 .4h.7zm8.6-1a4 4 0 0 0-1.6-.4l-3.8-.7c-3.5-.5-4-.6-4-.1 0 .7 3.6 1.5 7 1.6 2 0 2.6 0 2.4-.3zm337.7 0a198.2 198.2 0 0 0 18.7-1c-.4 0-.9-.1-1-.3l-15.7-.3c-8.4 0-17.5-.2-20.2-.3-4.5-.2-5-.1-5 .3 0 .2.5.6 1.1 1 1.2.6 4.6 1 7.8.8l14.3-.2zm-328.1-1.2c1.6-.6 1.7-.8.2-1l-4.7-.3c-2-.2-4-.2-4.6-.1l-1 .1.9.6a11 11 0 0 0 9.2.7zm163 .3c1-.2 4.8-.3 8.5-.4 6-.2 7-.3 8.1-.7 2.1-.9 3.7-1.3 4.6-1.3.6 0 1.4-.4 2.6-1.2 2.7-1.9 4.2-3.5 4.6-5a7 7 0 0 1 1-2.1c.4-.5 1-1.3 1.2-1.8l2-3 2-2.8c.8-1.2 2-2.9 2.8-3.7.8-1 1.3-1.7 1.3-2.1 0-1 .7-3 1.5-4.5a12 12 0 0 1 3-4.1c1.5-1.3 3-2.8 4.7-4.9 1.6-1.8 1.5-2-.9-1.1a50.2 50.2 0 0 1-10.7 2.2c-1 0-3.8.4-6 .7a420.5 420.5 0 0 1-67.8.2c-.7-.3-.6-.9.2-1.4.6-.4 1-.4 3.3-.1l6.7.3 12.2.3c7.6.4 13.3.3 17.2-.2a105.5 105.5 0 0 0 17.9-.2h1.1-1l-3.6-.6c-2.3-.4-2.5-.4-3.3 0-.6.3-1 .3-1.7.2h-3.6c-3 .3-15.2 0-19-.3-1.3-.2-6.1-.4-10.6-.4a132.7 132.7 0 0 1-12.7-.7c-4.9-.3-7.3-.5-8-.7l-4-.4a76.4 76.4 0 0 1-14.8-1.9c-.7 0-.8 0-.7 1 0 .7.3 1.7.6 2.3l.5 1.4c0 .7.7 1.7 1.6 2.4a86.5 86.5 0 0 1 12.1 16c.5.9.6 1.3.5 2-.2.9 0 1.3 1.2 3.5a30.8 30.8 0 0 0 2.4 3.9c.4.6 1 1 1.4 1.2.7.2 1.8.8 3.5 2 .4.3.6.6.5 1 0 .3.2.7.8 1.2 2.2 1.8 5 2.6 10.4 3 1.8.1 3.3.3 3.5.4.1 0 .2-.1.2-.4 0-.7.5-.7.8 0l.3.6v-.6c0-.6 0-.6 1.8-.5a768.6 768.6 0 0 0 6.8.7c7 .8 10.6 1 13 .6zm-25.6-1.4c0-.1.6-.2 1.4-.2h1.2c-.2.3-2.6.4-2.6.2zm16.7.2-4-.3c-2 0-4-.3-4.4-.4a7 7 0 0 0-2-.3c-.6 0-1.9-.2-2.7-.5l-2-.5c-.3 0-1-.4-1.8-1-1.5-1-2-1-7-1.7-3-.4-4-.7-3.6-1.2.2-.2.5-.3.7-.2a66.2 66.2 0 0 0 12.2 2.1c.5.2 9.8.8 16.4 1.2a54.7 54.7 0 0 0 11.7-.4c2.7-.2 2.8-.2 3 .3.1.3.4.6.7.7.4 0 .7.2.7.4.2.5-1 .9-3.4 1a403.5 403.5 0 0 0-14.5.8zm-6.2-5.6a81.2 81.2 0 0 1-9.3-1.4l-4-.8-2.3-.4 1.4-.1c1.2 0 1.4-.2 1.6-.8.3-.6.3-.6 2.3-.5 1.1 0 2.6.3 3.3.4a67.6 67.6 0 0 0 27.7.8c.7 0 1 .7.5 1.3a66 66 0 0 1-21.2 1.5zm-19.3-3.1c-1.3-.4-1.5-.7-.4-.7 1.2 0 3 .5 2.5.8-.4.3-.8.3-2-.1zm24.4-.9a19 19 0 0 0-3.6-.2c-2.9-.1-4-.3-8.8-1.5-5.3-1.3-6.7-1.9-6.2-2.6.2-.4 2.3-.2 6 .5 2.5.5 8.5 1.4 13.2 1.9 2 .2 13.2.3 15.6.1.4 0 .6.1.6.4 0 .4-.4.6-2.9 1-1.8.4-13.6.7-14 .4zm-2.5-3.8a271.5 271.5 0 0 0-6-.9l-3.8-.8a86.5 86.5 0 0 1-10.9-2.4c-.7-.4-.7-.4.7-.3 2.2.3 4 .6 5 .9a3 3 0 0 0 1.5 0c.8-.2 2.2-.2 2.4 0 0 .2.7.2 1.4 0 1.3-.2 3 0 3 .4l-.8.2c-.6 0-.8.1-.8.4 0 .2 0 .4.2.4a86.5 86.5 0 0 1 10.1 1.8c.8 0 1.3.1 1.2.3-.2.3-.8.3-3.2 0zm2.3-2.1-8.3-.5c-.3 0-.5-.2-.5-.3 0-.2 1.2-.3 3.4-.3 4.5 0 5 0 3.6-.3l-6.2-1a187.2 187.2 0 0 1-12.5-2.1 137.2 137.2 0 0 0-5.2-1c0-.4 3.8-.4 5.1 0l4.8.6a578.5 578.5 0 0 1 11.4 1.2 7562.6 7562.6 0 0 0 30.2.2c.2 0 .4.2.4.4 0 .6-1.1.8-2.5.6-2-.3-24.8-.2-25.1 0-.2.3 0 .4.9.5 5 .6 7.8 1 8.3 1.3.3.1 2.7.3 6 .3l5.7.1c.1 0 0 .2-.3.4-.7.6-8.9.5-19.2-.1zm-27.8-5.8c-.5-.4.1-.6 1-.4.5 0 .8.3.8.4 0 .3-1.3.3-1.8 0zm13.2-.3-.5-.4 8.8-.2a245.1 245.1 0 0 0 16.7-.7c1.6 0 4-.1 5.2-.3 2.3-.2 3.2 0 2.6.5-.2.1-2.1.3-4.4.4l-7 .4c-4.1.4-20.6.6-21.4.3zm2.1-2.6c-4.4-.2-6.2-.5-9.9-1.7a20 20 0 0 0-5.2-.9c-3.2-.1-5-.5-5-.9a219.5 219.5 0 0 0 32.6.2c.4.4 5.8.4 8.8.1 2.3-.2 8 0 7.1.4-.6.2-.6.2 0 .7l.5.6-.7.2c-1 .2-3 0-3-.4 0 0 .1-.2.4-.2.2 0 .4-.2.4-.5 0-.2-.1-.3-.2-.2-.1.2-1.5.3-3.1.4a147.4 147.4 0 0 1-16 .6 103.7 103.7 0 0 0-7 .2l5 .2c2.1.1 5.2.2 6.7.1 2.2 0 2.7 0 2.3.3-.4.3-2.4.5-7.8.8h-5.9zm-7.8-4.5c-.6-.2-1.5-.3-2-.3-.7 0-1.6-.3-2.2-.7l-1.7-.9c-.5-.2-.6-.4-.4-.6a635.9 635.9 0 0 0 27.8-.5c5.8-.3 9.1-.1 8.7.3l-3 .4c-1.6.1-3.2.4-3.6.6-.4.2-.7.2-.8 0-.3-.3-1.5-.2-1.5.2 0 .2-.1.5-.3.6-.7.5-19 1.3-21 .9zM374 261.3c-.2-.3-1-.4-2-.4-1.4 0-1.6 0-1.3.4.3.3 1 .4 2 .4 1.5 0 1.7 0 1.3-.4zm37.4.2h-.6c-.2.1-.1.2.2.2.3 0 .4 0 .4-.2zm-331-1a7 7 0 0 0-1.6 0h1.6zm288.5-2.3c-.4-.5-1.8-.8-2.4-.5-.3 0-.2.2.4.5l1.5.3c.6 0 .7 0 .5-.3zm2.8.2h-.5c-.3 0-.2.1.1.1.3 0 .5 0 .4-.1zm31.9-1.1h-1.4c-.4 0-.1.1.6.1.8 0 1 0 .8-.1zm16.2-.3a17.2 17.2 0 0 0 8.1-2.1l1.4-1.5c.7-.6 1.7-1.8 2.4-2.7.6-.8 1.7-2.2 2.5-3a167 167 0 0 0 14.7-16.1c1.5-1.7 3-3.7 4.3-5.8.5-.8 1.2-1.5 1.6-1.7.4-.1 1-.8 1.5-1.6l1.4-2.2c.7-1.1.7-1.5.2-2-.4-.3-1.1-.2-3.8.1-1.9.3-4.7.7-6.3.8-4.2.5-7.3 1-8.4 1.3-1 .2-1 .2-.5.7 1.4 1.4-.6 2-6.4 2.3A508.8 508.8 0 0 1 401 225c-11.5.3-11.3.2-13.5.2h-4.4c-3 0-7.5-.3-11.1-.8l-5.3-.5c-4-.3-5-.5-5.3-1-.7-.8.1-1 4.3-.8 4.2.2 9.4.6 10.5.8a444.8 444.8 0 0 0 57.6-1.8c-.3-.4-.7-.4-1.7-.3-4.9.7-8.9.8-33 .8a3560 3560 0 0 1-35.3 0c0-.6-5.4-.9-8.8-.5-1.2.1-1.6 0-1.8-.2-.2-.3-.2-.2-.2.1 0 .5-.3.5-3.6.4l-5-.4-5.9-.7c-4.5-.4-7-1-7.8-2-.5-.7-2.6-1-2.6-.4 0 .3 2 2.3 2.3 2.3l.6-.3c.2-.1 1 0 2.2.3 5.6 1.5 7.6 2.2 7.6 2.7 0 .2 0 .2.3 0 .3-.3 4 .2 6 .8 1.4.5 4.4.8 10 1.2l7.5.6 9.8.2c5.9 0 7.1.2 6.3.7-.5.3-11 .4-15.8 0a576 576 0 0 1-20-1.3c-3-.2-3.2-.2-2.1.2l1.8.4a91.7 91.7 0 0 0 11.7 2.7c.4.3.2.8-.3.7h-.7c-1.3.3 6 1.4 8 1.3 4.2-.3 7-.5 8.8-.8l6.1-.9c2.2-.2 4.1-.5 4.2-.6.2-.2.3-.5.3-.7 0-.7 1.2-.8 7.3-1 4.7-.1 9-.4 13-.8l7.1-.2c5.5 0 5.7 0 5.7.5 0 .4-.3.5-1.7.8-1 .2-3 .3-4.5.3-1.7 0-3 0-3.4.3-.4.2-2.8.3-7.9.3-4 0-7.3 0-7.2.1 0 .1 3.7.2 8 .2 7.2 0 7.8 0 8.4.4.5.5.5.6.2 1s-1 .4-7.6.3c-9.4-.2-10.8-.3-11.6-1.1-.3-.3-1-.7-1.4-.8-1-.2-3.1.3-3.7 1-.5.4-1.5.6-5.8 1-4.6.5-6.3.7-5.7.8.3 0 .8 0 1.2.2l18 .8c18 .6 20.6.7 23.2.4l7.7-.9c2.8-.3 6.4-.9 8-1.2 1.4-.4 3.5-.7 4.6-.8 1.7-.2 2-.1 2 .2 0 .5-.2.6-3.7 1.1l-5 .9-4.8.6c-1.4.1-2.9.4-3.2.5-1.1.6-3 1-4.6 1.1-1.1 0-1.5 0-1.5.4 0 .3.3.4 1.4.4 1.7 0 2.5.2 2 .5a264.5 264.5 0 0 1-26.7-.6c-9 0-23.5-.8-34.8-1.9-5.2-.5-5.5-.5-5 0 .1.2.6.4 1 .5.5 0 2 .4 3.4.8 9 2.3 10.8 2.4 43.6 2.7 8.4 0 15.3.2 15.5.4.4.4-1 .8-4 1-1.8.3-10.1.4-19.5.4l-17 .1c-.4 0-.6.2-.6.4 0 .7-.9.8-3.7.5a671 671 0 0 0-15.5-1.4c-4.6-.3-5-.4-5-1 0-.4.1-.4 6.3.2 6.2.6 6.6.6 6.1.2l-.7-.4-1.8-.8c-.8-.4-2.7-1-4.1-1.3a29.4 29.4 0 0 1-9.8-3.2l-1.4-.4c-.8-.4-1-.5-.5-.7.3-.2 1.3-.2 3 .1l4.6.6c2.5.1 2.6-.1 1-1.9-1-1-1.4-1.2-2.5-1.3l-4-.8c-4.8-1.2-4.6-1.1-4.6-1.8 0-.4-.1-.7-.4-.7-.2 0-.4-.4-.5-.8-.2-1-.4-1-4.4-2a132 132 0 0 1-3.5-.8c-.7-.2-.5.4.3 1.4.5.5.8 1 .8 1.2 0 .2 1 1.2 2 2.3 1.1 1 2 2.2 2 2.5 0 1.2 1.9 4 3.4 4.8a242.4 242.4 0 0 0 20.7 21 41.8 41.8 0 0 0 19.8 1c0-.3-.2-.4-.5-.4a2 2 0 0 1-1.2-.5c-.5-.5-1.4-.8-4.6-1.4a91.4 91.4 0 0 1 12 .8c2.3.5 13.2.2 14.4-.3.8-.4 2.4-.5 8.5-.6a380.3 380.3 0 0 0 13-.2c.3.4-1.1.8-4 1.1l-3 .4-5 .3c-4.9.1-9.9.5-10.4.9-.4.1.6.3 5.6 1l3.8.9c1.5.3 2.6.4 4.5.3l6-.3zm-50.7-4.8c-2-.4-3.5-.7-3.6-1-.3-.2.1-.4.5-.1l2 .4c3 .2 4.5.5 4.5.7 0 .3-1.7.3-3.4 0zm8.6-.5c-.7 0-1.2-.3-1.5-.6-.5-.7-3.3-1.3-7.3-1.5-2.2 0-3-.2-3-.5 0-.2.4-.4 1.1-.4 1 0 1.1-.1 1.2-.9 0-.6 0-.8.6-.9.3 0 .7 0 1 .3.7.6 3.3 1 8.3 1.3h8l2.7-.2h-2c-2.1 0-7.2-.6-7.9-.8-.3 0-.3-.2.1-.6.3-.3.7-.5 1-.6l-1.1-.3c-1.5-.3-2.1-.2-2.9.5-.2.3-.7.3-1.3.3a48.5 48.5 0 0 0-6.1-.5c-1-.3-4-.8-8.2-1.2-4.8-.6-5.6-.7-5.6-1.2 0-.4.8-.5 2.2-.2 1.8.4 2.6.2 2.6-.6s-.6-1-2.9-1c-2.3.1-3.3 0-3.2-.1l8-.3 10-.2c1.8-.2 2.2-.2 1.9.1-.2.2-2 .4-5.4.6-7.9.5-5 .8 9.4.9 12 0 21.3-.2 27.5-1l1.9-.2h-1.5c-18.4-.6-19.8-.6-19.8-1.3 0-.3.4-.3 2.6-.2 6 .3 10.3.4 20.9.5 6.7 0 11.2 0 11.3.2.3.5-.2.8-2.1 1.3a131.2 131.2 0 0 1-21 2.8c-5.4.5-11.4.9-14 .9-1.5 0-2.2.1-2.4.4-.5.5 1 .6 8 .8 4.3.2 7.6 0 12.7-.3 3.8-.2 7.2-.4 7.5-.3l.7.1-.8.3c-.4.2-1.8.4-3 .5-1.2.1-2.2.3-2.2.4l-3 .3h3.3c7 0 7.8.2 5 1.1-2 .7-1.5 1 1.5.8 2.9-.2 4 0 3.8.6-.1.4-1 .5-9.1.7-12.7.2-26.3.4-27.5.2zm39.5-7.4-1.7-.2 2.8-.2c2.4-.2 3.2-.1 2.9.2-.3.2-2.4.3-4 .2zm4.8-.4c0-.4 1.5-.8 4.1-1.1l2-.3c.6-.2.6-.1.2.3-.9 1-6.3 1.9-6.3 1zm-10.7-5c-.3-.4.8-.7 5-.9 1.6 0 3-.2 3-.2a33.1 33.1 0 0 1 7.5-.4c.5.3.5.3.1.6l-3.5.4-6.2.5c-3.8.4-5.7.4-5.9 0zm.7-10.7c-.7 0-1.1-.3-1.1-.5 0-.3 1-.4 6.4-.4l10.3-.2c3.8-.3 4.7-.2 4.7.2s-.9.5-7.4.7a964.7 964.7 0 0 0-12.9.2zm-11.8 28.5-2.7-.5a24.7 24.7 0 0 0-11.7-.6c-1.3.1-1.8.2-1.2.2a73.6 73.6 0 0 0 15.5.8zm-353-3.4c-.3-.3-.4.2-.2.8l.2.6.1-.6v-.8zm28.3.8c-.4 0-.6-.2-.6-.3 0-.2-.7-.3-1.5-.3-.9 0-1.3.1-1 .2.5 0 .9.2 1 .4l1.5.2c.6 0 .9-.1.6-.2zm-1.6-13 4.3-.5 1-.2-1.5-.3a56.6 56.6 0 0 0-15.1 1c.5.4 5 .4 11.3 0zm5-3.1 1.3-.2-1-.3c-2.9-1-4.5-1.2-9.6-1.5-3-.1-6.8-.4-8.4-.6-2-.2-3-.2-3 0-.2.1.1.3.7.4a182.7 182.7 0 0 0 11 1.8c5.1.8 5.5.8 9 .4zm-40.6-2.7c-.3-.2-.5.2-.3.5s.2.3.3 0v-.5zm-.2-.6-.3-.4c-.1 0-.2 0-.2.3 0 .2 0 .4.2.4s.3-.1.3-.3zm-.5-1c0-.2-.2-.3-.3-.4-.1-.1-.3 0-.3.2s.2.4.3.4c.1 0 .3 0 .3-.2zm-1.6-4.3-.3-.8c-.2-.3-.2-.2-.2.4 0 .4 0 .7.2.7s.3-.2.3-.3zm402-8.6h-.8c-.3 0-.2.1.3.1.4 0 .6 0 .5-.1zm-86.3-.6h-1.3c-.4.1-.2.2.6.2.7 0 1 0 .7-.2zm-10.5-1h-.9l.5.1c.5 0 .7 0 .4-.1zm-2.5-.4c.4-.1.5-.2.2-.2a7 7 0 0 1-1.8-.7 8.7 8.7 0 0 0-4.2-.7c.3 0 1 .4 1.5.7 2 1 3 1.3 4.3 1zm-168.4-.4c-.7-.5-1.4-.5-1 0 .2.3.6.4 1 .4.5 0 .5 0 0-.4zm259-.2h-.5l.2.1c.3 0 .4 0 .3-.1zm2.4 0h-1 1zm-89.3-1.1h-.8l.4.1c.4 0 .6 0 .4-.1zm-46.7-1.2c1.7-1.2 3.5-3 3.5-3.5 0-.6-.4-.5-.9.2-.2.4-1.2 1.2-2.1 1.9l-1.7 1.3-.2.5c-.2.6 0 .5 1.4-.4zm35.8.6h-1.1c-.3.1-.1.2.5.2.5 0 .8 0 .6-.2zm8.8 0a1 1 0 0 0-.6 0c-.2.1 0 .2.3.2s.5 0 .3-.1zm-11.2-.5-.9-.3c-.1-.2-.7-.3-1.3-.3h-1l.8.3c.5 0 1 .2 1 .3l1.2.2c.7 0 .7-.1.2-.2zm135.5-16.8c-.2-.2-2.6-.3-2.8-.1-.1 0 .5.2 1.3.2l1.5-.1zm-4.6-.6a7 7 0 0 0-1.5 0h1.5zm-5.4-.6h-1.3c-.4 0-.1.1.6.1h.7zm-2.9-.5a1 1 0 0 0-.7 0l.4.1h.3zm-212.5-10.1c0-.2-.3-.3-.7-.3-.3 0-.6.1-.6.3l.6.2c.4 0 .7 0 .7-.2zm-11-.3c.8-.1.2-.2-2.1-.2-2 0-2.9 0-2.3.2 1.3.3 3.1.3 4.4 0zm29-.2a7 7 0 0 0-1.7 0c-.5 0-.1.1.7.1h1zm-67.8-.5 6.3-.2c3.3 0 7-.3 8.3-.4 1.2-.2 4.1-.3 6.5-.3 2.3 0 5-.1 6-.3l7.7-.2 11.3-.3a1558 1558 0 0 1 73.4-.2c1.6-.2 5.5-.4 8.7-.5 3.1 0 5.7-.2 5.7-.4 0-.4-3.5-.5-15.1-.3-10.8 0-12.4 0-12.5-.3-.1-.3 0-.4.7-.5a2632.2 2632.2 0 0 1 77.8-.5c.6.5 2.4.6 12.9.7 9.2.2 10.1.2 10.5.6.4.7.4.8-.2 1.4-.5.6-.8.6-2.6.4-4-.3-12-.4-12.4 0h-3a13 13 0 0 0-3.6-.2c-.4.1-1 .2-1.4 0-1-.2-3.5-.2-3.5 0s-.3.4-.8.4l2.7.2c2 0 6 0 9 .2 8.6.3 21 0 23-.5 1.7-.4 3.7-1.5 3.7-2 0-.3 0-.5-.9-2.2-.4-.8-.4-.9 0-1.5.2-.4.4-.8.3-1 0-.2-1-.5-2.2-.8-1.9-.4-2.5-.5-10.1-.1-4.8.2-8.8.2-9.8.1-2.6-.3-16.5-.4-21.1-.1-9.2.6-23.7.7-51.6.5a1435.8 1435.8 0 0 0-48.6.5c-.5.2-15.1.3-46 .4-45.2.2-45.3.2-46.4.7-1.3.7-2 1.3-2 1.7 0 .2.6.8 1.2 1.3 1.2 1 1.4 1.8.3 1.8-.8 0-1.1.4-.7.9.9 1 4.8 1.4 12.3 1.3l6.2-.3zm174-1h-1 1.1zm-33.9-2c.1-.2-.7-.3-2.3-.3-1.5 0-2.6.1-2.6.3 0 .1 1 .3 2.4.3a7 7 0 0 0 2.5-.3zm-66.7-5.8 2.3-.4a820 820 0 0 1 31.9-.4 3287.6 3287.6 0 0 0 49.6 0c10.3 0 16-.2 15.6-.7-.4-.4-1.7-.6-9-1.8a234.3 234.3 0 0 1-8.6-1.5 153.2 153.2 0 0 1-9.5-1.6 241.7 241.7 0 0 1-8.5-1.4l-8-1.5c-3-.6-7.7-1.3-12.5-1.9-5-.5-5.6-.6-6.4-1.6l-.7-.9h-2.7a21578.2 21578.2 0 0 0-30.8-.5c-6.1-.1-7.3 0-8.1.3-1 .3-3.6.4-21 .4h-20.9c-.4 0-3.2 0-6 .2l-14.1.5c-8.3 0-11.5.3-12.2 1-.4.2-.4.6.3 5.5.3 2.2.4 3.2.1 4.2-.2 1-.2 1.4 0 1.7.3.3 7.2.4 30.4.5a5223.9 5223.9 0 0 1 39.3.2c6 0 9.3 0 9.5-.3zm-179.5-38c.9-.5 2.6-.5 4 0 1 .4 2.4.3 2.4-.1 0-.2.2-.4.5-.6.7-.3 5.4.2 6.5.8.8.4 4.2.4 13.2-.2h4.8c.7.2 5-.1 10.2-.8 5.3-.7 9.6-1 10-.8.6.3 4.6.1 6.3-.3 1.3-.4 3.7-2.4 4.9-4.2.7-1.1.8-1.5.6-2.4-.1-.6-.6-1.5-1.1-2.2-.8-1-1.2-1.2-1.9-1.2-.4 0-2-.3-3.3-.7-1.3-.3-3-.6-3.7-.6l-4.4-.2a273.1 273.1 0 0 1-22.7.5c-14 .1-17.4 0-18.8-.2a18 18 0 0 0-7 0l-2 .6c-1.2.3-1.5.6-1.6 1 0 .5 0 .6 1.6.7l2.6-.1c1-.3 3-.1 4.7.5.8.2 3 .3 8 .4a83.9 83.9 0 0 1 8.4.2c.3-.2 2.6-.3 5.1-.4 2.7 0 5.4-.3 6.5-.5 2.7-.6 19.4-.7 20.9-.2.8.3 1 .6 1 1 0 1-.9 1.4-2.5 1.4l-3.4.4c-3 .5-8.2.9-14.7 1l-10 .6c-5 .4-12.4.4-18.2 0-2-.1-6-.1-10.4.1a92.9 92.9 0 0 1-20.8-.8c-1.4-.3-4.5-.3-6 0-1 .2-.8.2 1.2.3 1.2.1 2.4.4 2.7.6.6.4.6.4-.5.7-1.3.4-11.9.4-13 0-.8-.3-1-.9-.5-1.2l4.4-.2c4.1 0 4.1 0 2.8-.3l-2.2-.7c-.6-.2-4-.3-9.4-.3-5 0-8.9 0-9.5-.2-1-.3-1.5-1-1.3-1.5.3-.8-.8-.2-1.3.7-.6 1-.5 1.8.5 2.9.5.7.9.8 1.8.8 1.2 0 1.5.2 2 1 .2.5 2 1.7 2.5 1.7l.1-1.1c0-.7.2-1.2.6-1.6.8-.8 1.3-.3 1.9 1.6.5 1.7.8 2 2.4 2.2 1.1.2 1.2 0 .4-.8-.7-.7-.7-2-.1-2.7.4-.4.5-.4 1.1 0 .4.2.9.7 1 1.1.5 1 1.2 1 2 0 1-1 2-.6 2.5 1 .2 1 1.1 1.6 2.8 1.8 1.3 0 1.5 0 2.5-.7.5-.5 1.2-.8 1.3-.8.2 0 .9.4 1.4 1 1 1 1.3 1 2.2 1 1.5 0 2-.2 1.7-1-.3-.9.1-1.6.8-1.6.5 0 1.1.5 2.1 1.5.8.8 1.5 1.4 1.7 1.4.1 0 .3-.4.4-1 0-.8.1-1 .8-1 .8-.1 2.2.5 2.5 1.3.4.6 1.4.6 1.8 0 .5-.8 1.8-.7 3.1.2l1.2.9 1.3-.5c1.5-.5 2.8-.3 3 .3.3.5 1.6.5 2.7 0a3 3 0 0 1 3.1.4c.8.6 1 .6 1.8.1zm-17.2-11.4c0-2.6 1.8-5 2.8-3.7.2.3.7.4 1 .4H71c.5 0 .5 0 0 .7-.4.8-.5 1.8 0 1.6.2 0 .7-.8 1.2-1.7l1.7-2.4c.7-.9.9-1.4.4-1.4l-.2.3c0 .6-.9.6-1.6 0-.6-.7-.8-.7-1.7-.6-.7.1-1.1.4-1.5 1a4 4 0 0 1-1 1c-.6.2-.6.2-.5-.8l.6-3c.5-2.2.2-3-.5-1.3-.7 1.4-1.6 1.7-1.8.4 0-.4-.3-.5-.9-.5-.6 0-.8.1-1 1-.3 1-.3 1-1.9 1.3-2 .2-2.3.5-1.5 1.3l1 1.5.3 1 .4-.8c.6-1.3 1.8-.8 1.8.7 0 .3.1.8.3 1 .2.1.3 1 .2 2 0 1.3 0 1.9.4 2.2.7.8 1 .4 1-1.2zm-3.3 1.2c.3-.4-.6-1.3-1.2-1.3-.3 0-.5.2-.5.6 0 .4 0 .7.2.8.3.3 1.4.2 1.5-.1zm14.3 0c.1-.1 0-.2-.1-.2s-.3 0-.3.2l.1.3.3-.3zm-4.3-.2c0-.2-.1-.3-.2-.3 0 0-.2.1-.2.3-.1.1 0 .2 0 .2l.4-.2zm-42-.6c.4-.2.7-.4.7-.6 0-.3-.7-.1-2.3.5l-1 .4h1c.5 0 1.2-.1 1.6-.3zm15.8-1c1.9-.1 5.2-.2 7.6 0 1.3.1 1.7-.3 1-1.2-.3-.5-.5-.5-1.9-.2-.8.2-2.4.3-3.5.3l-5.6.4a138.8 138.8 0 0 1-8 1c.8.1 8 0 10.4-.2zm29.6-7.7c0-.2-.1-.3-.2-.3-.4 0-.9.7-.9 1.2s0 .5.6 0l.5-1zm-17.7-6-.3-1.5c-.3-1-.2-1.1.2-1.4.4-.3.5-.3.8.2l1.1 1 .8.6 1.2-1c.7-.5 1.6-1 2-1l.9-.5.7-2.2c1.3-4 .8-4.8-1-1.3-.7 1.6-1.2 1.8-2.8 1.2-1-.4-1.3-1-.6-2.1.5-.8.5-1.8.1-2-.4-.3-1 .3-1.3 1.6-.1.6-.4 1.2-.6 1.2-.4 0-1.2-1.6-1.2-2.3 0-.2-.2-.4-.3-.4-.1 0-.3.4-.3.8 0 .5-.2 1-.5 1.1-.4.3-.5.6-.5 1.7v1.2l-1.1-.2c-2.1-.3-2.5-.3-2.6.4 0 .5.3 1 1.5 2.3l2 2.3c.5.9 1.8 1 1.8.3zm8.6-1.2c.4-.7.4-.9 0-1.2-.4-.4-.5-.4-1 0-.7.4-1 1.5-.6 1.9.4.4 1.2 0 1.6-.7zm-12.8-6.5c.3-.2-.6-1.1-1.1-1.1-.8 0-.9.4-.2.9.6.4 1 .5 1.3.2zm3.9-3.3c0-.2-.1-.5-.3-.7-.2-.3-.2-.3-.2.3 0 .4 0 .7.2.7s.3-.1.3-.3zm-4.2-1.5c0-.2-.1-.3-.3-.3-.1 0-.3.1-.3.3l.3.2c.2 0 .3 0 .3-.2zm6.3-2c0-.2-.1-.4-.3-.4-.3 0-.6.7-.4 1.2.2.4.3.4.5.1l.2-.8zM50 96.2c-.4-.4-.7-.5-.7-.3 0 .4 1.2 1.6 1.3 1.2 0 0-.2-.5-.6-.9zm221.2 184.6-3.5-.3c-1.4-.1-2.5-.3-2.5-.5 0-.3-1-.3-1.2 0-.2.4-1.9.7-2.5.5-.6-.2-.7-.8-.1-1a46.4 46.4 0 0 1 11.2.8c.8.5.9.5.3.6H271zm153.2-.1h1.9-1.9zm-33.5-1.5-9-.3c-3.7-.1-7-.3-7.2-.4-.2-.2-2.2-.2-4.3-.1-3.3.1-4 .1-3.8-.2.1-.5 1.3-.5 8.5-.2 17.3.6 18 .7 24.6.1a136 136 0 0 1 10.6-.6c.6-.2 2.6-.3 4.4-.3 1.9 0 3.8-.2 4.3-.3.5-.2 1.5-.3 2.3-.3.8 0 1.9 0 2.4-.2s2.6-.4 4.6-.5l6.5-.6c3.3-.4 4.2-.3 4.2.6 0 1-.5 1.3-2.4 1.3l-4 .1c-1.6.1-2.6.1-3.3-.1-.9-.3-1.7-.3-4.2 0-6.2.6-8.5.8-14.5 1-5.3.2-6 .3-6.4.7-.3.5-.8.5-5.7.5-3 0-6.4 0-7.6-.2zm189.9-2.3c-1.6-.2-2.5-.7-2.1-1.3.2-.2 1.6-.3 5.7-.4 5.9-.1 6.2 0 5.8 1.3l-.1.7h-4l-5.3-.3zm-186.7-3s1.5-.2 3.3-.1c3.9 0 3.7.1-.5.2a10 10 0 0 1-2.8 0zm12-.4c-.6-.3.8-.7 1.5-.4.4.1.5.2.2.4a2 2 0 0 1-1.8 0zm3.8 0c0-.2.3-.3.7-.3.4 0 .6.1.5.3l-.7.2-.5-.2zm170.8-1.4c-6.5-.1-7.3-.2-7.3-1.2 0-.7 1-.8 6.2-.7 4.8 0 5.3 0 4.7-.3-1-.5-14-1.2-29.3-1.4-1.5 0-1.7-.1-2.6-1-.7-.8-1.2-1.7-.8-1.7l17.2-.2c16.3-.2 17.3-.1 17.7.3.3.3.4.7.3 1.1-.1.5 0 .7.5.9.9.3 1.5 1 1.5 1.7 0 .5.2.6.8.8.5 0 .8.3.8.6 0 1.2-.3 1.4-1.8 1.3-.9 0-4.4 0-7.9-.2zM555 261.4l-1-.2a10 10 0 0 1-2.9-.8c-1-.5-2.3-1-3-1-1.8-.5-5.2-1-7.3-1.4-3.3-.5-7.3-1.9-8.5-2.8l-2-1a39.2 39.2 0 0 1-11.8-9.7 107 107 0 0 1-10.8-15c-1.2-2.3-2.1-3.1-5.7-5.4a55 55 0 0 1-3-2l-2.8-1.7c-1-.4-2.2-1.2-2.8-1.7-.5-.5-1.2-1-1.5-.9-.5.1-.5-.3-1 17.5l-.5 8.2c-.2.3-.4.4-.6.2-.3-.2-.4-1-.4-4.5 0-2.4.2-5.4.3-6.6.2-1.2.3-4 .3-6.3s.2-5.2.3-6.5c.3-2.7.1-3.2-1.6-4.3-1.4-.9-2-2-1.6-3.2.3-1.1.9-1.6 2.8-2l3.3-1c1.1-.3 3.6-.6 6-.8l4.7-.4 13.9-.9c4.2-.2 13.1-1 15.7-1.5.6 0 1.3-.5 1.8-.9.9-.8 1.2-.8 1.5.2.3.6.8.7 3.3 0a54.8 54.8 0 0 1 10.6 0c.9.4 1 .6.6 1-.4.6-.8.6-6.4 1-2.5 0-5.6.3-6.9.5-8.7 1-14.5 1.4-27 2l-15.2 1.1c-2.9.2-2.8.2-6.3 2.4-.4.2-.4.3 0 .6.5.5 2 1 2.9 1A43.9 43.9 0 0 0 519 219l3.7.6c2 .4 11.4 1.1 20.6 1.5a313.3 313.3 0 0 1 21.6 1.4l2.8.3c1 0 2.5.3 3.2.5 1 .2 1.2.4 1.2 1 0 .4 0 .7-.3.8a129.4 129.4 0 0 0-16-.8l-14.2-.2-5.4-.1-.3.6c-.3.6-.6.7-2.8 1-2.5.2-7 0-20.4-.7h-3.5l-1.1.2 3 1a75.7 75.7 0 0 0 11.2 3.2h.8l-.8.3c-.5.1-1.1 0-2-.2l-2.5-.5c-.7-.2-2.1-.5-3.1-.9l-2.4-.6-.8-.2c-.2-.2-1-.4-1.7-.5l-1.4-.2.8 1.2a82.3 82.3 0 0 0 10.4 15.4c5 5.7 8.5 8.7 11.1 9.5.6.2 1.5.6 2 1 .9.6 4.2 2 6 2.3l8.6 1.6c2.4.3 5 1.4 6.3 2.5.7.7 1.3.5 1.3-.5v-.7h2.2c1.5 0 2.2 0 2.4.4.4.6 0 1-1.2 1-.7.1-1 .3-1 .6l-.3.7c-.2.4-2 .4-2.1 0zm-21.4-37.7c0-.2-1.2-.3-4.2-.5a41 41 0 0 1-5.8-.6 37 37 0 0 0-6-.5c-4.2 0-6.4-.2-14.4-.8-1.8-.1-2-.1-1.5.3.2.3.8.7 1.4 1 1 .4 2.1.6 9.4 1.2 3.7.4 21 .3 21 0zm-23.1-3.2c0-.2-.9-.4-2.2-.6a74.2 74.2 0 0 1-11.7-2.3c-.5.1 2.3 1.4 4.4 2 2.4.8 9.2 1.4 9.5.9zm-14.7 40.4-3.4-.5c-2-.2-2.8-.6-2.5-1.1.4-.6 7.7.2 8.4.9.4.3.3.4-.3.7-.3.1-.7.3-.8.2l-1.4-.2zm31.4-2.6c-2.7-.1-7.2-.6-7.5-.8-.2-.1-.2-.3 0-.5.1-.4.8-.4 4.6-.1 3 .2 4.5.4 4.8.6.3.4.3.4-.3.7-.3 0-1 .2-1.6.1zm25.8-3.8-5-.3c-5.3-.2-6.4-.3-6.7-.8-.6-1-.3-1 6-1 8.5 0 11 .5 9.8 1.6-.4.4-3.9.8-4.1.5zm-87-.9c-3-.4-4.5-1.2-3.7-1.7.8-.5 6.6.1 7.5.8.8.7.2 1.4-1.2 1.3l-2.7-.4zm86.4-3.5c-.9-.2-2.7-.3-4-.4a99.2 99.2 0 0 1-15.5-1.8c-.5-.4-.4-1.3.2-1.3 1.5 0 4 .1 4.9.3.6.2 1.3.2 1.7.1.6-.1.6-.2.2-.4-.2-.2-1.3-.4-2.3-.5-6.5-.9-9-1.4-9.6-2.1-.5-.5-.5-.5.2-.7.4-.1 1.4 0 2.2.1a153.3 153.3 0 0 1 6.7.8c3 .4 14.3 1.1 17.1 1.1 2.6 0 3 .1 3 1 0 .7-.9 1-3.3.8-2.8 0-3.8 0-3.8.4 0 .5 1 .7 3.1.7 3.2.1 5.7 1.1 4.5 1.9-.4.3-2.8.3-5.3 0zm-4.2-2.7c0-.6-4-1-5.1-.6-.7.3-.5.6.5.7 2.1.2 4.6.2 4.6 0zm-98-1.4c-.4-.1-.7-.4-.6-.6.2-1 3-1 3 0 0 .7-1.3 1-2.4.6zm-302.6-3.7.3-3c.3-1.8.3-3.4 0-6.5-.2-2.7-.2-4 0-4.1.3-.1.4-1.4 0-1.4a32.1 32.1 0 0 1-.8-10.8c0-.2.8 0 .8.3l.1 3.5c0 1.7.2 4.7.4 6.5.4 3.3.6 13.3.4 14.6-.2.9-1.2 1.6-1.2.9zm141.4-2.4c0-1 0-1.4.1-.9v1.9-1zm243 1.4c-3.2-.7-7-2-7.4-2.7-.4-.6 0-1.2.8-1.3.4 0 .5 0 .3-.1l-1.2-.5-2.3-.8c-2.9-.8-4-1.3-4.3-1.8-.8-1.2-.2-1.2 4.3-.2 1.3.3 4.3.8 6.7 1 4.7.7 5.6.9 5.4 1.5-.1.3-.6.4-1.7.4-1.5 0-1.6 0-1.5.6 0 .7-.4.8-2.8.4-2.2-.4-1.3.3 1.7 1.2l3 .9c.6.2.8 1 .4 1.3-.3.2-.7.2-1.3.1zm-77.7-.6c-.2-.3-.3-1.3-.2-3.8 0-3.4.2-4.1.8-3.9.2.1.3 1.2.3 3.8 0 3.8-.2 4.7-.9 3.9zm14.3 0c-.3-.3-.4-2.2 0-3.9.1-.6.4-4.6.5-8.8a68.3 68.3 0 0 1 .5-8.6c-.1 0-.2-.8-.2-1.7 0-1.3 0-1.7.4-1.9h.4a177.8 177.8 0 0 1-.9 25c-.3.2-.4.2-.7 0zm11.8-2a140.9 140.9 0 0 1 .3-22.2c.2-2 1-4.6 1.1-3.5a177.8 177.8 0 0 0-.3 24.2c.3 2.2 0 3-.6 3-.3 0-.4-.4-.5-1.6zm17.4-.6c-.4-6-.4-6.2 0-6.5.3-.3.4-.2.7.7.2 1 .4 4 .3 6.5 0 .8-.2 1.2-.4 1.2-.3 0-.5-.5-.6-1.9zm-200.9-.6c0-1.2.1-1.6.2-1v2.1c-.1.6-.2 0-.2-1.1zm-279.7 0c-.2-.3-.4-1.5-.4-3.8 0-1.8 0-3.5-.2-3.6 0-.2-.2-3.7-.2-7.8-.1-6.6 0-7.5.3-7.7.3-.2.5-.1.7 0 .1.3.3 4 .4 8.5a272.1 272.1 0 0 0 .5 14.4c-.1.5-.7.5-1.1 0zm304-.8c0-.4.1-.6.2-.3v.8c-.1.2-.2 0-.1-.5zM164 229.2v-7l.2-1.1.1 1.2v6.9l-.1 5.7zm-9 3.2c0-.8 0-1.4-.2-1.4a39 39 0 0 1-.3-7.1c0-6 0-7.3.4-7.6.4-.4.4-.1.4 2 0 1.2 0 4.2.2 6.6a66.7 66.7 0 0 1-.4 7.5zm134.8 1c-.2-.3-.2-.6 0-1 .4-.7.4-.7.6-.1.2.8-.2 1.5-.6 1zm6.9-.2c-.5-.2-.5-2 0-2 .3 0 .4.4.4 1.1v1h-.4zm9.5-.1.1-.9c.2-.4.3-.4.6 0 .2.2.2.4-.1.8-.3.5-.4.5-.6 0zm234.2-.5a759.4 759.4 0 0 1-14.4-.9c-4.3-.2-6.1-.5-5.5-1 .3-.3 1.4-.4 5.8-.2l11 .5c5.5.2 7.3.5 7 1.2-.1.5-.9.6-3.9.4zM172 229.5c0-1 .1-1.2.2-.7 0 .5.2.9.3.9.2 0 .3.3.3.7 0 .4-.2.6-.4.6-.3 0-.4-.3-.4-1.5zM297 229c0-.8 0-.9.4-.5l.4.5-.4.6c-.4.4-.4.3-.4-.6zm24.9-.8c0-.7 0-1 .1-.6v1.4l-.1-.8zm-16-2c0-1 0-1.8-.2-2-.2 0-.3-.4-.3-.7 0-.4.1-.7.3-.7.1 0 .3-.2.3-.6 0-.3 0-.5.1-.4.1.1.2 1.4.2 3 0 1.8 0 2.7.2 2.8.3.2.2.2 0 .2-.5 0-.5-.2-.5-1.7zm-59.7-5.2c-.7-.2-4-.3-7.3-.3-4.3 0-7.3-.2-10.2-.5-4.8-.6-5.6-.8-5.3-1.3a284.8 284.8 0 0 0 34 0c5-.4 7.5-.7 10.2-1.1a75 75 0 0 1 9.3-.8c2 0 2.3 0 2.3.4 0 .6-1 .9-5 1.2l-6.2.6A120 120 0 0 1 248 221c-.2.4-.3.4-2 0zm-42-.6a546 546 0 0 1-7.4-.8c-1.2 0-3.4-.2-11.3-1-1.8-.2-3-.5-3.8-1-.9-.4-2.5-.8-4.9-1.1-3.3-.6-6.5-1.3-7.3-1.9-.9-.5 1-.4 3.8.1 10.3 2 22.6 3.7 30.4 4.2 5.9.3 10 1 9 1.6-.4.2-6 .2-8.5 0zm109.1-.5-.1-4.1c-.1-6.5.1-11.8.6-12.2.3-.3.4-.3.4.3 0 .4-.2.7-.3.7-.2 0-.3.1-.3.4 0 .2.1.4.3.4.2 0 .3 2.5.3 7.1 0 6-.1 7.2-.4 7.6-.4.3-.4.3-.5-.2zm-7.3-1.5c0-.3-.2-.6-.3-.6-.2 0-.3-.6-.2-1.3 0-.7 0-1 .1-.7 0 .3.3.6.4.7.1 0 .2.7.1 1.3 0 .7 0 1-.1.6zm243.6-.9a120 120 0 0 1-13.3-1 576.4 576.4 0 0 1-32.8-3.5c-2-.3-2.9-.8-2.6-1.5.1-.3.5-.4 2-.2 1 0 2.6.3 3.6.5 1.3.2 1.8.2 2.5 0 .4-.3 2-.5 3.6-.6 4.4-.4 20-.8 26.9-.7 5.5 0 6.5 0 6.8.4.4.4.4.5 0 .9-.3.3-2.1.4-13.4.5-7.2 0-13.5.3-14 .4l-1.1.2 1 .2c2 .4 5.3.7 8.6 1l8 .6c3.8.4 15.7.8 20 .7 1.7 0 3.5.5 3.8 1.2.3.8-.4 1.2-2.3 1.1-.9 0-4.1 0-7.3-.2zM237 215.9c-5.3-.6-10.7-.8-22.6-.8a67 67 0 0 1-13.5-.3c-.2-.3 0-.4 1.1-.5 2.7-.4 21-.5 25.9-.3 4.4.3 12 1 13.8 1.3l.6.2-.6.3c-.8.4-1.8.4-4.7.1zm158.4-1.6c-4.3 0-11.6-.2-16.2-.4-7-.1-8.4-.2-9.2-.6-.7-.4-2.3-.5-7-.8a461.5 461.5 0 0 1-19.6-1.3c-7.2-.5-11.3-1-15.7-2.2-2-.6-2.2-.7-3.6-2.2-1.6-1.8-1.8-2.5-1-2.5.6 0 2.5 1.4 3.5 2.4a10 10 0 0 0 4 1.4l2 .4c1 .4 6.5 1 10.7 1.4a1274.6 1274.6 0 0 1 13.9 1l15.3 1a342.5 342.5 0 0 0 65-.2c1.6-.3 3-.1 3.2.4.1.3 0 .5-.4.7-.7.2-6.4.7-10.8 1l-7.3.3c-6.5.4-17.9.5-26.8.2zm-240.7-4.2c0-2.7.1-4 .3-4.1.4-.2.6 2.2.5 5.5-.1 2-.2 2.6-.5 2.6s-.4-.7-.3-4zm82.6 3.1-22.6-.3c-13.2 0-20.6-.2-20.7-.4-.6-.6 1.4-.8 10.8-1 10.9-.1 39.6.6 40.2 1 .3.3.3.4 0 .7-.3.4-4.1.4-7.7 0zm3.2-2.1a513 513 0 0 0-29.7-.1c-10.8.1-12.8 0-12.6-.5.2-.6 3.1-.7 23.5-1 9-.2 11.7-.2 15.5.2 4.7.4 7 .9 6.6 1.3 0 .2-1.3.2-3.3 0zm201.6-.5c-.7-.4-.5-1 .6-1.2a234.8 234.8 0 0 0 6.5-1.7c1.3-.2 2.8-.6 6.9-1.8 1-.4 2.3-1 2.8-1.4 1-.8 1.6-1 2-.4.5.5-.3 1.7-1.6 2.3a76.8 76.8 0 0 1-17.2 4.2zm15.6 0c0-.3 0-.6.2-.7a49 49 0 0 1 9.6-2.7c.6 0 1.1.6.8 1l-2.6.8-4 1.1c-2.4.7-3.8.9-4 .4zm-110.4-1.4c-.5-.3-.4-1 .3-1 1.1-.4 9.8 0 9.9.2 0 .2-.4.4-1.3.5-2.3.2-8.5.4-9 .3zm-185.5-1.8c-.3-.3-.2-.5.1-.8a17.1 17.1 0 0 1 8.1-2.8l2.7-.6c1.5-.3 1.5-.3 1.4-1.2l-.2-1-.2-2.4c0-1.8 0-2.2.4-2.2.3 0 .4.3.4 1.3 0 .8 0 1.9.2 2.4l.4 1.8v.7l3.2-.1c4-.1 4.4-.3 4.3-1.7v-2l.1-1 .2 1c.2.7.2 1.4.1 1.6v.7c.2 0 .5.4.6.7.2.3.5.5 1 .4l10.9-.7c1.8-.1 2.2-.3 2.7-.8.5-.6.5-.6.7 0 .1.5.2.5 4.2.3a3681.8 3681.8 0 0 1 21.2-1c3.6-.4 15.4-.3 20 .2 4.3.4 5 .5 15.5.4 7.7 0 22.8.4 24.3.7.7.1 1.1 0 1.5-.3.4-.4.8-.4 3.3-.2l2.8.1-.1-4.2v-5l.1-.7.4.7c.4.9.5 2.7.1 3-.2 0-.3 1.4-.3 3.1v3l1.2.6 1.4.5 3.2 1.2 2.8 1.2.7-.8c.9-1 1.2-.7 1.4 1.5 0 1.4 0 1.5-.6 1.6-.3 0-1-.2-1.5-.6-2-1.5-5-2.2-14.1-3-5.6-.6-6-.5-6.7 0-.8.6-2 .6-5 .1a159 159 0 0 0-25.9-.8 941.5 941.5 0 0 0-23.5.5c-6.3.2-6.9.2-7.9-.2-.8-.4-1.6-.5-4.8-.5a431.6 431.6 0 0 0-42 3.3l-2.6.5a11 11 0 0 0-4.3 1.3c-1.3.6-1.5.7-2 .2zm69.7-6.2zm110.9 4.6c-.6-.4-.6-.4 0-.7a360 360 0 0 1 24.1-.9c.7.3.1.8-1 1l-5.7.1c-2.5 0-5.8.2-7.3.3-6 .5-9.6.6-10.1.2zm-187.8-6.6c-.1-5 0-12.1.2-10.3 0 .3.2.6.3.6.2 0 .3.2.3.4s-.1.4-.3.4c-.4 0-.3 2.3.1 2.4.3.1.3.3 0 .7-.4.7-.5 6.1 0 6.1.1 0 .2 1.1.2 2.8 0 2.3 0 2.8-.4 2.8-.3 0-.4-1-.4-5.9zm178.8 5.4c-.3-.5.4-1 1.8-1.1 6.9-1 30-2.4 31-2 1 .4-.4.7-3.8.8a97 97 0 0 0-5.8.4l-6 .5c-4.5.3-11.7 1-13.7 1.4-1.7.3-3.4.3-3.5 0zm-23.8-1.4a25 25 0 0 1 .5-6.5v-2.5l.2-1.7.1 1.9c.2 1.6.2 4.7 0 8 0 .8 0 1.1-.3 1.1s-.5-.1-.5-.3zm-118.2-3.3c-.2-.2-.2-.4 0-.4.1 0 .3-.4.3-.9s-.2-1-.3-1c-.2 0-.3-.2-.3-.6 0-.3.1-.6.3-.6.1 0 .3-.4.3-.9s.2.4.2 2v2.8l-.5-.4zm91.3-1.2c0-.3.1-.7.4-1 .3-.3.4-.2.4.6 0 .7-.2 1-.4 1-.3 0-.4-.3-.4-.6zm19-1.1c-.2-.7-.2-1.6 0-2 0-.3 0-.7-.2-1-.4-.4-.6-2.2-.3-3.5 0-.7.2-1 .2-.7 0 .4.2.7.4.7a181.2 181.2 0 0 0 .5 5.4l-.3 1.3-.2 1-.2-1.2zm-33.2-.8v-.8a7 7 0 0 1 0 1.6v-.8zm50.7 1c-.1-1.4 0-6.1.2-6.3.2-.1 0-.4-.2-.7-.9-.9-.6-1.9.5-1.9.3 0 .7 1.1.5 1.5v1.6c-.2 5.5-.2 5.6-.6 5.8h-.4zM182.6 196c0-.6-.1-1-.3-1.1-.1 0 0-.3.2-.4.3-.3.3-.2.3 1l-.1 1.6-.1-1zm23.3.6c0-.3 0-.3.1-.1v.5l-.1-.4zm55.5-.2c0-.6 0-.7.4-.3l.4.7c0 .1-.2.3-.4.3s-.4-.3-.4-.7zm-24-.3c-.2-.2-.3-1-.3-1.7 0-.8 0-1.2.2-1 0 .4.2.7.3.8.2 0 .3.6.2 1.2 0 .9-.1 1-.4.7zm8.1-.2c0-.4.1-.7.3-.7.1 0 .3-.5.3-1.1.1-.8.1-.7.2.6 0 1.5 0 1.8-.4 1.8-.2 0-.4-.2-.4-.6zm8.8 0c-.4-.9-.4-1.8 0-1.8l.3-.6.2.8c.3 1.7 0 2.7-.5 1.6zm230.3 0c-.7-3.4-.6-30.5.1-31.2.1-.2.4-.2.7 0 .4 0 .4.3.3 1.7l-.4 2.9a152.1 152.1 0 0 0 0 17 6916.6 6916.6 0 0 0-.3 9.6l-.2.8zm-279.3-1.3c0-.3.2-.5.5-.5.2 0 .3.1.2.2l-.5.5c-.1.1-.2 0-.2-.2zm23.3-1.1c0-1.3 0-1.5.4-1.1.2.2.4.9.4 1.5 0 .7-.1 1-.4 1-.3 0-.4-.3-.4-1.4zm40.3.2c0-.7 0-1 .1-.5v1.3l-.1-.8zm7.4.6c0-.5 0-.6.1-.4v.8l-.1-.4zm6.7.2c-.2-.6-.2-1.8 0-2.2.3-.4.9.8.9 1.9 0 .8-.6 1-.9.3zm164.2 0c-.2-.1-.3-.5-.2-1.5.2-1.1.1-1.6-.3-2.1-.4-.7-.3-2.2.2-2a10.4 10.4 0 0 1 1.8 4.8c.2.5.2.7-.1.8-.5.2-1 .2-1.4 0zM198 192.3c0-1.4 0-2 .1-1.3v2.4c0 .7-.1.2-.1-1.1zm227.2 1.8a220.6 220.6 0 0 0 0-19.3c0-4.1 0-5 .6-4.4.4.4.7 8.3.6 16.4 0 6.6 0 7.6-.5 7.6-.2 0-.5 0-.7-.3zm9.6-.1c-.4-1 0-2.4.5-2.7.4-.2.5-.2.5.3l.3 1.5c.4.8.4.9 0 1.1-.8.4-1.1.4-1.3-.2zm7.4-.2c-.1-.6 0-3.3.3-9.9 0-1 0-2.4-.3-3.4l-.4-2.7c0-1 .1-1 .5-.8.3.2.6.8.8 1.7.3 1.7.4 7.8.1 9.5v3.3a14 14 0 0 1 0 2.5c-.1.7-.8.6-1-.2zM431 193a81.7 81.7 0 0 1-.5-15.2c0-6.5.1-8.2.7-8.2.2 0 .3.6.4 2.3 0 13.3.4 21 .8 21.8.2.2-.4.5-.9.5l-.5-1.2zm23-.5c-.4-.8-.3-2 .2-2.1.4-.2.4-.2 0-.4-.5-.3-.6-1.5-.2-1.7.6-.3.8.6.6 2.6-.1 2-.4 2.5-.7 1.6zm-280.6-.6c-.2-.7 0-1.1.6-1 .5.3.5.8 0 1.2-.3.3-.4.2-.6-.2zm80.8.3h.5c.1.1 0 .2-.3.2s-.4-.1-.2-.2zm163.3-.1v-.6c.4-2.7.5-10.2.1-18.6-.1-3.3 0-4 .3-4.3.3-.2.4-.2.6.2a198.9 198.9 0 0 1-.2 23.3c0 .1-.2.3-.4.3s-.4-.2-.4-.3zm-33-.6c-.4-.9-.4-1.5 0-2 .3-.7.5-.2.4 1.3 0 1.4 0 1.4-.4.7zm-202.5 0c0-.3.2-.4.4-.4s.4.1.4.4c0 .2-.2.4-.4.4a.4.4 0 0 1-.4-.4zm55.1-.3c0-.4 0-.6.1-.3.1.2.1.6 0 .8v-.5zm113.6 0c-.3-.8-.2-2 .2-2 .4.2.5 1.5.2 2-.1.4-.2.4-.4 0zm28 .2c-.1-.3.2-1.7.5-1.5.3.2.3 1.4 0 1.6l-.4-.1zm-117.3-.5c0-.3.1-.4.2-.2l.4.4c.2.1 0 .2-.2.2a.4.4 0 0 1-.4-.4zm-99.9-1.8c.1-2 .7-2.2.7-.3 0 1-.1 1.5-.4 1.5-.3 0-.3-.3-.3-1.2zm273.2.6c-.2-.3-.3-2-.2-5.5 0-2.9 0-7-.2-9.4-.2-3.3-.1-4.3.1-4.5.7-.4.8.5.8 5l.1 4.6c.3.5.3 9.6 0 9.9-.2.1-.4 0-.6-.1zm-273.4-4.3-.3-1.4c-.1-.3 0-.8.2-1a105.5 105.5 0 0 1-.5-24.8c-.6-.6-.6-8-.1-8.5.2-.3.4-.4.6-.2.3.2.3 1.4.2 4.3-.3 9.6 0 30.5.6 31.4.1.1 0 .4-.2.6-.3.2-.4.2-.5-.4zm285.6 0c-.4-.3-.4-1.5 0-1.5.3 0 .6.6.5 1.3-.1.5-.2.5-.5.3zm.3-2.9c0-.4-.2-.7-.3-.7-.2 0-.2-1.2 0-3.4 0-.7.6 0 .7.8 0 .8 0 1-.3 1.2-.3.1-.4.2-.2.3.2.2.3.7.2 1.4 0 .6 0 .8-.1.4zm5.6-4c-.3-.9-.3-3.3 0-3.5.3-.2.3-.1.5 2 .2 1.3.1 1.9 0 1.9-.2 0-.4-.2-.5-.3zm16.5-.6c-.2-.6 0-1 .4-.7.3.2.3 1.2 0 1.2-.2 0-.3-.3-.4-.5zm-22.1-2.2c0-.3 0-.5.1-.3v.7l-.1-.4zm5.2-1.8a49 49 0 0 1 0-9c.2 0 .3.5.3 1.2 0 4.4.2 6.6.4 7 .2.3-.1 1.6-.4 1.6-.1 0-.3-.4-.3-.8zm16.9-.2c-.3-.6-.2-.9 0-.9.3 0 .6 1 .3 1.2 0 0-.3 0-.3-.3zm-96-.1a217.3 217.3 0 0 0-21-3.8l-4.1-.7a315.2 315.2 0 0 1-19-3.2 201 201 0 0 1-10-2c-2.6-.6-6.3-1.2-6.7-1l-4.9-1c-2.2-.4-2.8-.5-3.8-.2-1.2.4-2 .2-1.8-.3.2-.6 1.3-1.1 2.4-1.3 1-.1 1-.2 1.2-1 .3-1.6 1.4-2.2 1.7-1v1.4c-.3.4-.3.7-.3.9l2.8.5c2.9.3 4.7.6 8 1.3a253 253 0 0 0 15.3 3 258.1 258.1 0 0 1 11.1 2l3.3.4a125.7 125.7 0 0 0 11.5 1.9l5.9 1c10.5 1.8 11 2 11 2.8 0 .5-.1.6-.8.5-.5 0-1.3 0-1.8-.2zm-204.5-2.1c0-1.9.2-2.7 1-3.4.3-.4.4-.2.2.9-.3 2.8-.5 3.7-.8 4-.3.3-.4 0-.4-1.5zm278 .4c-.2-.9 0-6.2.4-6.2l.2.8c0 .5 0 1.6.2 2.5.2 2 .1 2.7-.2 3.2-.2.4-.3.4-.5-.3zm-47.5-.7c-.3-.1-.3-1-.3-3.4 0-3.9.2-5.1.6-5 .4.2.5 1.2.2 1.7-.2.2-.2.4 0 .5.3.2.4 6.1 0 6.3h-.5zm26.1-2v-8.6c.6 0 .8 6.9.3 8.5l-.2 1zm43.4.2v-.6l-.4-2.6c-.2-1.2-.4-3.1-.4-4.2s0-3-.2-4.1c-.3-2.5-.2-2.8.7-2.8.6 0 .7 0 .5.8 0 .4 0 3.1.2 6.1.4 5.2.4 7.9-.1 7.9-.2 0-.3-.2-.3-.5zm-60-.8c-.4-1.3-.2-3.5.2-3.7.4-.1.5.2.7 2.7.1 1.7 0 2-.3 2-.2 0-.5-.4-.6-1zm33 0c0-.3.2-.6.3-.6.2 0 .3.2.3.4s-.1.5-.3.6c-.1 0-.3-.1-.3-.4zm-11-1.6c0-1-.1-2.2-.3-2.6-.2-.4-.3-1.1-.2-1.6v-.7l.6 1c.4.5.6 1.3.7 2v1.9c.2 1 0 1.8-.5 1.8-.2 0-.3-.4-.3-1.8zm-255.3.1c-.5-.5-.4-1.1 0-1.6.4-.4.4-.3.4.8 0 1.4 0 1.3-.4.8zm191-.5a501.3 501.3 0 0 1-7-1.6l-4.3-1c-2-.5-4-1-8.3-1.6l-3.7-.8c-2.5-.8-8.3-1.9-11.4-2.2a38 38 0 0 1-5-.9c-2.5-.7-3.1-.7-5.4-.6-2.4.2-2.7.1-4-.5-3.2-1.6-4.8-1.7-6.5-.4-1.3.9-2 .8-1.7-.1l.3-2c0-.8.2-1.4.4-1.4l.2-.4c0-.2-.1-.4-.3-.4-.1 0-.2-.7-.2-1.5 0-1 0-1.4.4-1.4.3 0 .4.4.4 2.2 0 3 .7 3.7 2.4 2.1l.6-.6.6.5c1.1 1 1.6.7 1.8-1 .2-1.8.5-2.4 1.1-2.4.5 0 .5.1 1.3-6.6l.2-11.4a296.3 296.3 0 0 1 .7-23.9c0-1 0-1.5.3-1.4.2.2.2 2.9 0 8.8a545.7 545.7 0 0 0 .1 15c.4 9.6 0 20.2-.8 21.9-.1.3-.6.7-1 .8-.4 0-.6.3-.6.6 0 .7 1.9 1.2 5.3 1.5 2.8.2 6.4.8 7.3 1.3.3.2 1.5.3 2.9.3 1.8 0 2.6 0 3.4.5.5.2 1.8.5 3 .6a401.6 401.6 0 0 1 17.4 2l5.5.7c9.6 1.4 15 2 15.3 1.9.8-.3 1-1.9 1.2-7.5l.4-6 .2-6.9c0-5.7 0-6.6.5-6.9.3-.2.3-.4 0-.8-.2-.3-.3-.9-.2-1.7.2-2.4.6-13.4.6-21 0-1.2.1-1.5.3-1.3a248 248 0 0 1 0 24.5v12c0 7.4.1 11.2.3 12 .3 1.2.3 1.3-.4 2-.8 1-.9 1.2-.2 1.8.5.5.6.5 1 0 .8-.6 1.2-1.8 1.1-3.2a578.8 578.8 0 0 1-.1-15c-.2-.5.7-3 1-3 .5 0 .8 1.2.9 3.9 0 3.6.3 4.8.8 4.6.3-.2.4-1 .3-5 0-2.6-.1-4.9-.2-5a149.4 149.4 0 0 0 .3-13c-.1-7 0-8.2.4-7.7a182.2 182.2 0 0 1 .1 18.5c.2.6.4 2.5.4 4.1.5 16.2.5 18 0 19.2l-.6 1c-.3 0-2.2 3-2.2 3.4 0 .1-.2.3-.5.4-.5.1-3.5.2-5.8 0-2.6 0-5.1 0-7 .2-1.3.1-2.4 0-3.4-.2zm49-.9c0-.3 0-1 .2-1.8v-5c0-2.4 0-3.6.2-3.6l.4.8c.3 1.2.2 8.6 0 9.9-.2.4-.6.2-.7-.3zm-246.2-1.2c0-.8.1-1.5.3-1.5.4 0 .3-1.8 0-1.9-.3 0-.3-.7 0-2.5l.3-4.7c0-1.7 0-2.4.4-2.7.3-.3.4-.2.4 1.6 0 1.2-.2 2-.3 2-.4 0-.3 2 0 2.3.2.1.3.7.1 1.8a43.2 43.2 0 0 0-.3 6.2c0 .5-.2.8-.5.8s-.4-.3-.4-1.4zm264.5-2.6c-.2-3.6 0-4.7.6-4 .6.5.3 7.8-.2 7.8-.1 0-.3-1.7-.4-3.8zm8 2.8c.1-1 .1-1 .3-.4.3 1 .3 1.4 0 1.4l-.2-1zm-23.1-1.2.3-4.1c.3-3.9.7-2.6.6 1.8-.1 3.5-.2 3.8-.6 3.9-.5 0-.5 0-.3-1.6zm-9.9.9c-.4-.3-.6-4-.3-4.2.4-.2.6.5.6 2.4v2l-.3-.2zm43.1-2c-.4-1.4 0-5.5.4-5.5.3 0 .4.7.4 3.3 0 3.5-.3 4.2-.8 2.3zm-53-.6c0-.2.3-.4.5-.4s.4.1.4.3l-.4.4c-.3 0-.4 0-.4-.3zm.1-1.6c.2-.7.8-.8.8-.1 0 .3-.2.5-.4.5-.3 0-.4-.1-.4-.4zm42.7-.6.1-1c.3-.7.3-.7.3.3s0 1.2-.4.7zm-33.3-1v-1c.3-.4.4-.4.4.5 0 1-.2 1.2-.4.4zM399 157c0-1.4 0-1.7.4-1.6.3.1.4.6.4 1.7 0 1.2-.1 1.6-.4 1.6-.3 0-.4-.4-.4-1.7zm26.4.5c0-.4.2-.7.3-.7.2 0 .3.3.3.5 0 .3-.1.6-.3.7-.1.1-.3-.1-.3-.5zm-250.3 0c-.3-.3-.3-2.2 0-3.3l.1-.8.4.7c.5 1 .5 3.5 0 3.5l-.5-.1zm109.5-1.1c-.4-.7 1.4-1 9.9-1.7 3.3-.3 4.4-.6 4.8-1.3.8-1.5 1.1-3.5 1.2-6.8a334 334 0 0 1 .6-16c0-1.4 0-1.8.4-1.8.3 0 .4.8.3 5v6c.1 2.6 0 15.4-.3 15.6-.5.6-16.6 1.5-17 1zm140.8-3.7v-6.2c-.2-3.2 0-4.3.5-3.9.5.5.3 13-.2 13a9 9 0 0 1-.3-3zm16.5-1.4c0-4 .3-9.5.5-9.9.2-.2.3-.2.5 0 .3.3.3 1.1 0 3.8a1745.6 1745.6 0 0 0-.9 8.7s-.2-1.1-.1-2.6zm-42.3 1.4c0-.4 0-.5.1-.3v.8l-.1-.5zm8.6-1.1c0-.2.2-.4.3-.5.2 0 .3 0 .3.3 0 .2-.1.4-.3.4l-.3-.2zm-99.9-1c-.7-.8-.7-2.5.1-2.5.3 0 .4.4.4 1.5 0 1.5 0 1.5-.5 1zm90.7-.5c0-.4.1-.7.3-.7.1 0 .2.3.2.7 0 .4-.1.6-.2.6-.2 0-.3-.2-.3-.6zm9.6-.8c0-.9 0-1.2.1-.7a7 7 0 0 1 0 1.6l-.1-1zm-20.1-.4v-.5c.2.3.2.7 0 1v-.5zm10.5-2c0-.6.1-1.2.3-1.2l.2 1.2c0 .7-.1 1.2-.2 1.2-.2 0-.3-.5-.3-1.2zm-91 .2c0-.4 0-.6.2-.4l.3.3c.1.1 0 .3-.2.5-.3.3-.3.2-.3-.4zm1.6-.2c0-.3 0-.4.1-.2v.5l-.1-.3zm78.6-1.3c-.1-.4.1-1 .5-1 .3 0 .3 1 0 1.3-.2 0-.4 0-.5-.3zm20.6-.3.2-.6c.2 0 .3.3.3.6 0 .4-.1.7-.3.7-.1 0-.2-.3-.2-.7zm-9.8-1.8V141c0-.7.1-1 .4-1 .4 0 .5 1.6.2 3.1-.1.9-.6 1.2-.6.5zm-90.7-.3c-.3-.3-.3-1.2-.2-4.1.2-3.9.5-4.7 1.3-4 .3.3.4 1 .4 3.2 0 2.7-.2 3.8-.8 4.2l-.3.6c0 .4-.1.4-.4 0zm107.6-.3c0-.2.1-.3.3-.2.1 0 .2.3.1.4-.2.4-.4.3-.4-.2zm-27.6-1.3.1-1c.4-.5.6 0 .4 1l-.3.8zm-383.2 0c-.3-.3-.3-.3 0-.6.2-.2.5-.2 1 .1.3.2.5.4.3.4l-.6.1H5zm168.3-.1a54.6 54.6 0 0 1-.2-11.7c.4 0 .8 4 .9 7.9 0 3.5-.2 4.6-.7 3.8zm209-1.1c-.2-1.3 0-5.5.3-5.5.4 0 .6 6 .2 6.2-.2 0-.4-.2-.5-.7zm-45.6-.2c-.6-.5-.6-.5-.1-.7.9-.2 5.2-.7 7.2-.7 1.5 0 2 .1 2 .5.2.2.2.4 0 .5 0 .1-1.4.3-3 .4l-4.1.4c-1.1.1-1.4 0-2-.4zm51.5-1.7c-.2-.6.2-1 .6-.6.2.3.2.4 0 .6-.3.3-.5.3-.6 0zm27.5-.1c-.2-.3-.2-3 .1-3.1.2-.1.3.5.3 1.5 0 1.8 0 2-.4 1.6zm3.3-1.3c0-1 0-1.4.4-1.4.3 0 .4.3.4 1.4 0 1.1-.1 1.5-.4 1.5-.3 0-.4-.4-.4-1.5zm-105.8-.8c0-.3 0-.4.1-.2v.6l-.1-.4zm-4.4-2c.2-.3.5-.5.7-.5.1 0 .1.2-.1.4l-.7.4c-.2 0-.2-.1 0-.4zm23.5-.6c0-.6 0-.8.1-.5v1l-.1-.5zm50.1.5c-.3-.5-.2-4 0-4.2.4-.2.4 0 .5 2.4 0 1.5-.2 2.3-.5 1.8zm-73.4-1.1c0-.3.3-.5.6-.5s.5.2.5.5 0 .5-.5.5c-.4 0-.6-.2-.6-.5zm110-4.8-.1-5.8c0-.5.1-.7.4-.8.4 0 .5.3.5 5.3 0 5.4-.1 6.3-.6 6.3l-.3-5zm-30.8 3.5c-.2-.5.1-6.6.4-7 .5-.8.6.2.6 3.7 0 3.1 0 3.6-.4 3.7a.6.6 0 0 1-.6-.4zm-56-1.8c0-1.2.3-1.6.6-.8.2.5 0 2-.4 2l-.2-1.2zm-23.3-.6c0-.8 1-.8 1 .1.1.5 0 .6-.4.6s-.6-.2-.6-.7zm90.5-.5v-1.3l.3 1c.2.7.2 1.1 0 1.3-.2.2-.3 0-.3-1zm-17 .5a13 13 0 0 1 0-4.7c.3-.1.3.7.3 2.4 0 2.5 0 2.6-.3 2.3zM173 125.4a834.6 834.6 0 0 0 .1-12.3l.2-.6c0-.7.4-.7.6-.1.2.4 0 13.3-.2 15.1-.1.6-.3 1.1-.4 1.1-.2 0-.3-1.3-.3-3.2zm183 2.1c-.1-1.3.1-2.8.6-2.8.2 0 .3.3.3 1.2 0 2.3-.6 3.4-.8 1.6zm-54.7.2c-.4-1-.2-3 .3-3 .2 0 .3.7.3 1.7 0 1.6-.3 2.2-.6 1.3zm10.7 0c.2-.4.7-.5.7 0 0 .2-.2.4-.4.4s-.4-.1-.3-.3zm87.4-1.4c-.3-.3-.2-4.8.1-4.8.2 0 .3 1 .3 2.5 0 2.5 0 2.7-.4 2.3zm-67-2.3c0-.7 0-1 .3-1 .4 0 .5.8.2 1.5-.2.7-.6.5-.6-.5zm83.4-3.2c-.2-5.7 0-36.1.2-36.6l.6-.3c.3 0 .4.4.3 1.8 0 3.3.3 19.8.5 21.4l-.1 3.3c-.3 1.6-.6 8-.6 12.5 0 1.5 0 2-.4 2-.2 0-.4-.9-.5-4.1zm-103.7 3.4v-4l.1-5.3c0-2 .6-1.9 1 .2.2 1.6.2 7.7 0 8.7-.2.6-.8.8-1 .4zm-10.7-1.3c0-.2 0-.4.2-.4s.3.2.3.4c0 .3-.1.4-.3.4-.1 0-.2-.1-.2-.4zm55.3-1.8c0-1 0-1.7.2-1.7.4 0 .4 2.6 0 3.1-.2.3-.2-.1-.2-1.4zm-55.3-.7c0-1.4.3-2.4.6-2 .2.2-.2 3.3-.4 3.3-.1 0-.2-.6-.2-1.3zm49-.2c0-1.5 0-3 .4-3l.4.8c.2 1-.1 3.7-.4 3.7l-.3-1.5zm38.2-1c-.3-4 .2-7.8.7-5.4.2 1-.1 8-.4 8l-.3-2.7zm-3.6-1.8c0-3.2.3-7 .5-7s.3.8.3 1.8c0 3-.4 7.4-.6 7.4-.1 0-.2-1-.2-2.2zm14.3 0c0-1.3 0-2.3.2-2.3s.3 1 .3 2.3c0 1.3-.1 2.2-.3 2.2-.1 0-.2-.9-.2-2.2zm-295.2.2c-.2-.9 0-4.2.4-4.3.2 0 .3-1 .3-2.2v-2.2l.3 3c0 1.5.2 3.3.3 4 .3 1.4 0 2.4-.6 2.4-.4 0-.6-.2-.7-.7zm252.8-.6c0-.3.1-.6.3-.7.1 0 .2.2.2.5 0 .4 0 .7-.2.7s-.3-.2-.3-.5zm-24.7-.4c-.3-.7-.2-2.5.1-2.5.2 0 .3.6.3 1.4 0 1.5-.1 1.8-.4 1zm-16.1-.5c-.3-.8-.5-5.2-.3-5.2.5 0 .9 1.3.9 3.4 0 2-.3 2.7-.6 1.8zm34.7-1.8c0-.4.2-.8.3-.8.3 0 .3.6 0 1.1-.2.3-.3.2-.3-.3zm48.5.2c0-.2 0-.4.2-.4s.3.2.3.4-.1.4-.3.4l-.2-.4zm-42.1-.8c0-.4.1-.7.2-.7.2 0 .3.3.3.7 0 .3-.1.6-.3.6l-.2-.6zm-195-.8c-.2-.6 0-1.3.6-1.4.4 0 .4 0 .4.8 0 .7 0 1-.4 1a.6.6 0 0 1-.5-.4zm8.8-.3c0-.5.2-.8.5-.9.4 0 .5.1.5.8 0 .6-.1.8-.6.8-.4 0-.5-.2-.4-.7zm211.6.3c0-.3 0-.4.2-.2v.5c-.1 0-.2 0-.2-.3zm-81-.8c0-.4.2-.7.4-.7.3 0 .4.3.4.7 0 .4-.1.6-.4.6-.2 0-.4-.2-.4-.6zm36.4 0c-.2-.3-.2-1.3 0-1.8.3-.7.7-.2.7.7 0 1-.3 1.4-.7 1zm12.8-1.4c0-.2.2-.3.3-.2.1 0 .2.3.1.4-.2.4-.4.3-.4-.2zm48.5 0c0-.2 0-.7.2-1.2.2-.8.2-.8.3.4 0 1.3-.2 1.6-.5.8zm-41.8-1.3c0-2.1.4-2.6.5-.6 0 1-.1 1.8-.3 1.8-.1 0-.2-.5-.2-1.2zm22.4-.4c0-.8.1-1.2.3-1.1.3.2.3 1.4 0 2-.2.2-.3 0-.3-1zm-41.8-.3a33.8 33.8 0 0 1 .5-8.2c.3-.2.3.4.2 4-.2 3.8-.4 5.1-.7 4.2zm44.5-.8c0-.8.1-1 .3-.2v.7c-.2 0-.3-.2-.3-.5zm3 .3c-.4-.3-.2-5.2.2-5.6a230.7 230.7 0 0 0 .3 2.6c.1 2.5 0 3.5-.5 3zM93.4 108c-.2-.2-.2-.4 0-.7.3-.3.3-.4 0-.5-.1 0-.3-.5-.3-1 0-.4.2-.9.4-1 .2 0 .2-.2 0-.4-.5-.5-.5-3.4 0-3.9.3-.3.4-.2.5.4v3.5l.2 3c.4.5-.4 1-.8.6zm208-.3c-.4-.4-.6-2-.6-5.2a139.3 139.3 0 0 1 1.2-16c.7-.8.9 1 .6 6.1a512.7 512.7 0 0 0-.3 14c.2 1.2.1 1.5-.2 1.5l-.8-.4zm-180.2-.5c0-.3-.1-.7-.3-.8-.1-.1-.3-.6-.3-1 0-.6.2-1 .3-1.1.3-.3.4-1.3 0-1.7l-.5-6.8c-.4-8.7-.4-10 .1-10.1.5-.2.7.8 1 7.4 0 3.5.3 7 .4 7.8 0 .9 0 1.5-.2 1.8-.2.2-.3.8-.1 1.6a9 9 0 0 1-.1 2.5c-.2.8-.3 1-.3.4zm278.4-1.6c0-1.4 0-2 .2-1.6v2.1l-.2 1.6zm-228.4-1.3c0-2.9.2-3.8.7-3 .2.3-.2 6-.5 6a11 11 0 0 1-.2-3zm217.8 2.3c0-.3 0-.4.1-.2v.6c-.1 0-.2-.1-.1-.4zm-284.2-.9c0-.5-.1-1-.3-1.1l.2-.4c.3-.3.3-.1.3 1.1l-.1 1.5-.1-1zm277.7-.8v-2.6c.3-1.5.3-1.5.4.7 0 2.4-.2 3.8-.4 2zm-63.3-1.6c.2-3.2.4-4 .7-3.7.4.4 0 5.8-.4 5.8-.3 0-.4-.4-.3-2.1zm12.5 2c-.2-.3-.2-1.7 0-2.4.3-.4.3-.5.5 0s-.2 2.7-.5 2.4zm-169.6-3.5-.4-4c0-1 0-1.6.2-1.6a167.8 167.8 0 0 0 .8 2.5c.3 1.2 0 5.4-.3 5.4l-.3-2.3zm226.7.1-.2-14.2a2250.9 2250.9 0 0 0-.2-40.5 225 225 0 0 1 .3-23.4c-.4-.2-.4-2.3 0-2.7.2-.2.2-.8 0-2.3-.4-2-.3-2.8.3-2.8.5 0 .8 1.2.6 1.7a3286 3286 0 0 1 0 70.8c-.2 13.2-.3 17-.8 13.4zm10.6.3c-.2-1 0-2.4.4-2.2.3.2.3 1.7 0 2.4-.2.5-.2.4-.4-.2zm-19.5-1.3c0-1.7.4-1.9.7-.3.2.7 0 1-.2 1.3-.4.4-.5.4-.5-1zm-48.1 0c0-1 0-1 .4-.8l.4.7-.4.7c-.4.3-.4.2-.4-.7zm53.8.4c-.1-.2 0-.5.1-.7.2-.2.3-.1.3.4 0 .8-.2 1-.4.3zm-249.7-.8c-.3-.8 0-1.4.7-1.4.4 0 .5.1.4.8 0 1-.9 1.4-1.1.6zm222.2-.2c-.1-.3 0-.6.1-.8.2-.2.3 0 .3.5 0 .8-.2.9-.4.3zM149.2 98c-.3-1-.3-6.1 0-7.4 0-.5.2-.9.4-.9s.4.4.5.9c.4 1.8 0 8.4-.4 8.4l-.5-1zm-56.2.3-.3-2.4c-.1-2 .2-3 .8-2.8.4.1.8 4.5.5 5.2-.2.6-.8.5-1 0zm226.6-.8c0-.2.1-.3.3-.2.1 0 .2.3.1.4-.2.4-.4.3-.4-.2zm38.6.3c-.3-.3-.2-3.3 0-4 .2-.4.3-.1.4 1 .2 1.6 0 3.4-.4 3zm27.4-.2c-.2-.6 0-3.4.3-3.4.3-.1.5 2.4.2 3.2-.2.5-.3.6-.5.2zm-214.8-.5c-.1-.1-.2-1-.1-1.9 0-2.8-.6-15-.8-16-.2-.6-.3-3.4-.4-6.2 0-5.3.1-7 .8-7 .4 0 .7 2.4.4 3.8-.2.7-.2 1.4 0 2l.2 2.5c0 1.4.1 1.7.7 2.2.6.5.7.8.5 1.6l-.1 9.2-.2 9.2c-.1.9-.7 1.2-1 .6zm-9.1-3c0-.7 0-1.2.2-1.2s.3.5.3 1.2-.1 1.2-.3 1.2c-.1 0-.2-.5-.2-1.2zm170.5 1-.2-2v-3c0-.5 0-1 .2-1.2.6-.6 1 1 .8 3.7-.2 2.2-.4 3-.8 2.5zm-227.4-.5c0-.3 0-.4.2-.2v.6c-.2 0-.2-.1-.2-.4zm206.8-2.2c-.1-1 .4-1.4 1-.9.3.4 0 1.5-.4 1.6-.3 0-.5-.1-.6-.7zm-207 .2c-.5-.5-.5-2.6 0-2.6.2 0 .4.4.5 1.1.2 1.3 0 2-.5 1.5zm32.2-.9c-.2-.2-.3-1-.3-1.9 0-.8 0-3.7-.2-6.3-.3-4.4-.2-9.1.2-9.1.3 0 1.2 6.2 1 6.9 0 .3 0 1.2.3 1.9.4 1.2.4 1.8-.2 6.7-.2 2.1-.3 2.4-.8 1.8zm24.5-1.5c-.3-.7-.2-4.7 0-4.7.5 0 .7 2.2.4 3.7-.1 1-.2 1.3-.4 1zm189.9 0c-.1-.3 0-.6.1-.8.3-.2.3-.1.3.4 0 .8-.2 1-.4.3zm6.9-1.6c-.2-.6 0-3 .3-3 .3.2.5 2.8.1 3.2-.2.1-.3.1-.4-.2zM320 87.5c-.1-.2 0-.7.1-1.1.3-.7.3-.7.3.4s-.2 1.4-.4.7zM104 87c-.2-.2-.3-.5-.1-.7.3-.6.6-.6 1 0 .2.2.1.5-.2.7-.3.4-.4.4-.7 0zm45.5-1.2.2-1c.2 0 .3.5.3 1s-.1 1-.3 1l-.2-1zm-29.1-1.7c0-.2-.1-.6-.3-.7-.2-.2-.2-.4 0-.5.2-.1.2-.3 0-.7-.4-.6 0-1.2.7-1 .3.2.4.5.3 1.7 0 1-.2 1.6-.4 1.6-.2.1-.3 0-.3-.4zm264.8 0c0-.3.1-.6.3-.6.1 0 .3.2.3.4l-.3.6c-.2 0-.3-.1-.3-.4zm-281-.9a38 38 0 0 1-.4-9.2l.2-2.4c0-1.2.1-2.3.3-2.5.1-.2.2-1.3 0-2.8-.1-4 0-6.9.5-7.6.6-1 .7.7.4 8l-.1 10.6c0 5.7 0 6.5-.4 6.5-.3 0-.5-.2-.5-.6zm247 .1c0-.1 0-.3.2-.4.1-.1.2 0 .2.2 0 .5-.1.6-.4.2zm-202-1.7c0-.3.1-.4.3-.4.1 0 .2.1.2.4 0 .2 0 .4-.2.4s-.3-.2-.3-.4zm11.7-.8c0-.4 0-.7.2-.7s.3.3.3.7c0 .3-.1.6-.3.6l-.2-.6zm156-.6.1-1c.1-.1.2.3.2.9 0 1.3-.1 1.4-.3.1zm68.3-1.8c0-1 .1-1.5.4-1.5.6 0 .6.3.4 1.4-.4 1.8-.8 1.8-.8.1zm-236 0c0-.5.1-1 .3-1l.2 1c0 .5 0 1-.2 1s-.3-.5-.3-1zm11.6.4a96 96 0 0 1-.5-12l.2-.6.3.7c.3.8.6 12.4.3 12.4-.1 0-.3-.2-.3-.5zM302 79c0-.2.2-.3.3-.2.2 0 .2.2.1.4-.2.3-.4.3-.4-.2zm78.8-.6c-.1-.5.4-7 .8-8.7.1-1 .7-1.4 1.3-.9.4.3.4.7-.2 6.2-.3 3-.6 3.9-1.4 3.9-.2 0-.4-.2-.5-.5zm-231.7-3.6c0-.3.1-.4.2-.2v.5c-.1 0-.2 0-.2-.3zm201.5-2.3-.3-4.5c-.1-1.6-.1-1.7.3-1.2.5.4.5 1 .6 4.2.1 4.4-.3 5.5-.6 1.5zm-230.7 2a37 37 0 0 1 0-7.8c.5-.4.4-.8.5 4 0 3.3-.1 4.4-.5 3.8zm16.4-.6c-.4-.6-.5-3.9-.1-4.7l.3-.8.2.8c.4 1.8.1 5.5-.4 4.7zm181.1-4.7c0-.3 0-.4.2-.2v.6c-.1 0-.2-.1-.2-.4zM120 65.9c-.3-.4-.4-3-.3-13.8 0-6.5 0-7.9.4-7.9.5 0 .6 2.5.6 11.4 0 8.3-.2 10.9-.7 10.3zm16.4-.6c-.2-.1-.3-1-.3-2 0-1.3 0-1.6.4-1.6.3 0 .4.4.4 2v2l-.5-.4zm248.8-3.8v-.7c.3-.2.4-.1.4.4 0 .8-.2 1-.4.3zm-214.8-.3c-.3-.2-.2-2.4 0-2.6.3 0 .4.4.4 1.3 0 1.5 0 1.7-.4 1.3zm211.6 0 .1-.4c.2-.1.3 0 .3.2 0 .5-.1.5-.4.2zm-31.6-.7c0-.2.1-.4.3-.3.1.1.2.3 0 .4-.1.4-.3.3-.3-.1zm-214.5-1c-.2-1.2 0-1.7.6-1.2.5.4.5 1.4 0 1.8-.3.2-.4.1-.6-.6zm167.5.2v-.3c.2.2.2.6 0 .8v-.5zm81.6-1.4c-.3-.3-.5-.7-.5-1l-.1-.7c-.3-.3-.4-2.5-.1-2.7.2-.1.2-.3 0-.6-.2-.2-.4-1.1-.6-2.1-.2-1.7-.1-1.9.5-2.8a4 4 0 0 0 .6-1.4c0-.2.1-.4.3-.4.1 0 .2.1.1.2l.1 3.4c.2 1.7.3 4.4.2 5.9 0 2.6 0 2.7-.5 2.2zm-280.1-1.2c0-1 .5-7 1-10.2.1-1.5.4-2.3.8-2 .3.1.1 2.4-.3 4.9a49.3 49.3 0 0 0-.9 7.8c-.2 1-.6.7-.6-.5zm213.2 0a140 140 0 0 1 .5-16.8c.4 0 .4.9.2 7.8 0 7-.3 9.7-.7 9zm32.2-1.6c-.2-.9-.2-3 0-3.2.4-.2.6.8.6 2.3 0 1.3-.3 1.9-.6 1zm-214.3-2.2c-.3-.3-.2-3 0-3.1.4-.2.7.3.7 1.6 0 1-.3 1.9-.7 1.5zm167.3-.6c0-.9 0-.9.3-.3.2.4.2.7 0 .9-.2.2-.3 0-.3-.6zM170.4 52c0-.8 0-1 .4-.6.2.1.4.4.4.6l-.4.7c-.4.3-.4.2-.4-.7zm133.1-2.2c-.3-.8-.3-1 0-1.3.5-.4.5-.3.5.8v1.3l-.5-.8zm46.7.3c-.3-.2-.2-1.3.1-1.5.2-.1.3.2.3.8 0 1 0 1-.4.7zM136 49.6c-.3-.3-.2-3.5 0-3.7.3 0 .4.6.4 1.9 0 2 0 2.1-.4 1.8zm203.3-.7c0-.7.1-1 .4-1 .3 0 .4.3.4 1 0 .6-.1.9-.4.9-.3 0-.4-.3-.4-1zm-160-1.3c-.2-1.2-.2-10.8.1-11 .4-.4.7 3.4.7 7.7 0 3.3-.4 4.7-.7 3.3zm-30.7-.3.1-.7c.2-.2.3-.1.4.3.2.6-.2 1-.5.4zm-12.7-2.4a24 24 0 0 1-.2-5.9c.3-12.5.4-15.8.7-16 .5-.3 1 0 1 .7-.2.5-.5 6-.7 13.2l-.3 6.3c-.2 2.2-.2 2.4-.5 1.7zm221.8-1.7v-2.6l-.1-1c-.5-.3-.4-4.2 0-4.6.6-.5.8.7.7 4v4c.1.9 0 1.6-.1 1.8-.3.2-.4-.2-.5-1.6zm-198 1c-.2-.7 0-3.4.3-3.5.4 0 .5 3.3.2 3.6-.2.2-.3.1-.4-.1zm144-.6c-.4-.4-.2-2.2.2-2.4.1-.1.2.5.2 1.3 0 1.6 0 1.6-.5 1.1zm-132.8-.9c-.2-.2-.2-2.7 0-3.3.2-.5.3-.5.6-.1.2.2.3.8.1 1.9-.1 1.4-.3 1.9-.7 1.5zm-22.3-1.2.1-.8c.3-.2.4-.1.5.2.1.2 0 .6-.1.7-.2.2-.3.2-.5-.1zm11.2-1.5c-.1-.1-.2-1.3-.1-2.6l-.1-2.6c-.4-.6.3-12.2.7-13.6.1-.3.3-.5.5-.5.3.1.4 4.2.1 4.2a34 34 0 0 0-.2 5 45.9 45.9 0 0 1-.4 7.7c0 2.4-.2 3-.5 2.4zm158.6-2.4c-.2-.6-.3-1.4-.2-3l.2-5c0-1.7 0-4 .2-5.2.1-1.8.2-2 .5-1.8a125.6 125.6 0 0 1-.1 14.6l-.2 1.2zM148.6 34a66.3 66.3 0 0 1 .6-14.9c0-1.8 0-3.4.2-3.6l.3-5.3c0-2.8.2-5.3.3-5.7.3-.8 1-1 1.5-.5.4.3.4.6.2 1.8a67.3 67.3 0 0 0-1.6 11.4c-.2 7.4-1 18.9-1.1 19-.1.2-.3-.8-.4-2.2zm154.6.7c0-.7.1-1.5.3-1.6.3-.2.3-1.5 0-1.9-.2-.1-.3-1.4-.2-3.6a3251.9 3251.9 0 0 0 .7-12c.1 0 .2-1.6.2-3.3 0-1.8.1-3.3.3-3.4.1-.2.2-.5 0-.9-.2-.8 0-2 .6-2.2.4 0 .5.1.5 1.1 0 .7-.1 1.3-.3 1.4l-.2 2c0 1.2-.1 2.1-.3 2.2-.1 0-.2 2-.2 4.4 0 2.8-.2 4.4-.4 4.7-.2.4-.2.9 0 2.2.3 1.3.3 2.5 0 4.8a81 81 0 0 0-.2 5.4c0 1.8 0 2.2-.4 2.2-.3 0-.4-.4-.4-1.5zm-183 0c0-.4 0-.6.3-.6.2 0 .4.1.4.3l-.4.7c-.3.3-.4.2-.4-.3zm59-.8v-.7l-.1-.6c-.2-.1-.2-.3 0-.5s.3-.6.2-1v-.6c.3-.1.3.5.3 1.8 0 2 0 2.4-.4 1.6zm153-3c-.2-.2-.2-1.3.1-1.5.2 0 .3.3.3.8 0 1 0 1-.4.8zm31-2.1c-.5-.5-.6-1.8-.2-2 .1 0 .4.1.7.5l.8.8c.3.1.4-.3.4-2.1 0-2-.1-2.3-.5-2.2-.3 0-.5.4-.6.8 0 .4-.2.7-.4.7-.6 0-.6-3.1 0-3.3.3-.1.7 0 1 .5.4.4.8.7 1.1.7.3 0 .7.2 1 .5.4.4.5.4.5 0 0-.3.2-.5.5-.5.4 0 .5.2.4 2.2l-.1 2.5a1081.1 1081.1 0 0 1-3.4 1.2c-.7.1-1 0-1.2-.3zm3.8-3.6c0-.2-.2-.4-.4-.4s-.4.2-.4.4.2.4.4.4.4-.2.4-.4zM179.2 28c-.3-.7-.4-1.1-.4-1.9 0-.5 0-.5.5-.1.3.3.4.8.3 1.6-.1 1.1-.1 1.1-.4.4zm-.4-2.7c-.3-.3.1-1.4.6-1.6.8-.2.9 0 .5 1-.3.7-.8 1-1.1.6zm139.7-7c0-3 .2-5.2.7-5.1.3 0 .3.6.2 5.4 0 2.3-.1 2.9-.4 2.9-.3 0-.4-.6-.5-3.1zm66.2 2.7c.1-.2.3-.5.5-.5.6 0 .5.8 0 1-.4 0-.5-.1-.5-.5zm-248.3-1.8c-.3-1.2 0-3 .4-3.4.3-.5 1.6-.6 1.6-.2 0 .2-.1.3-.3.4l-.5 2.2c-.4 2.1-1 2.6-1.2 1zm221.2-1v-.6c.2-.3.4 0 .3.6-.1.5-.1.5-.3 0zm27.9-4.5c-.2-.6-.2-1.5-.1-3 .1-1.1.2-2.3.1-2.6-.1-.9.3-2.2.7-2.2.4 0 .5 2.6 0 3-.2.3-.2.5 0 1 .5 1 .4 3 0 3.9l-.4.7zm-4.1-2.3c-.1-.2-.3-1.6-.3-3.2 0-2.2 0-2.9.3-2.9.4 0 .8 1.5.5 2l.1 1.6c.3 1.1.3 1.4 0 2-.3.6-.5.7-.6.5zM319 10c0-1 0-1.2.4-1.2.3 0 .4.3.4 1.2 0 .8-.1 1.1-.4 1.1-.3 0-.4-.3-.4-1.1zm38.5 0c-.2-.4-.2-2.9.1-3.3.2-.3.3-.4.6-.1.2.2.2.8 0 1.7 0 1.5-.3 2-.7 1.6zm-42.2-6c0-.4-.1-.8-.3-1-.1 0-.2-.9-.2-1.9 0-1 0-1.4.1-1 0 .5.3 1.1.4 1.4.2.3.2 1.1.2 1.9 0 .7-.1 1-.2.6z"/>
</svg>
