<?xml version="1.0" encoding="utf-8"?>
<svg xmlns="http://www.w3.org/2000/svg" xmlns:svg="http://www.w3.org/2000/svg" version="1.1" viewBox="0 0 444 350">
  <title>A doll peers in through the paned window of a shop named “Ginger &amp; Pickles” while another stands to one side with her handbag.</title>
  <path d="M97.2 349c-2-1-2.3-3.1-.6-5.2.6-.7.8-.8 2-.8.8 0 2 .3 2.8.7 1.3.5 1.6.7 1.8 1.6.3.9.3 1.2 0 2.2L102 349c-1 .8-3.3.7-4.9 0zM81 346c-1-.5-1.9-2.5-1.7-3.7.3-1.1 2.6-3.4 3.4-3.1l3 .4c3.4.3 5.2 1.3 5.2 2.8 0 .8-1.4 2.6-2.6 3.4-1 .6-1.2.7-3.8.7-2 0-3-.2-3.5-.5zm206.2.2c-.6 0-1.2-.3-1.4-.5-.2-.1-.8-.3-1.3-.3-1.4 0-2.6-.5-3.5-1.6-.8-1-.9-1.8-.2-2.7.9-1.1 2-1.3 8.6-1.4 3.4 0 7.4-.2 9-.3a153.1 153.1 0 0 1 17.2-1.4c1-.3 1-.3.5-.7l-1.8-.7c-1.6-.6-3.2-1.9-3.5-3 0-.5 0-.8.5-1.3 1.5-1.6 5-2.2 10.3-1.6l5.4.4c1.5 0 2 .1 2.5.5.6.5.6.6.3 1.6-.3 1.2-.7 1.5-2.7 2-.8.2-2 .6-2.7 1l-2.7 1-1.3.5h3.3c1.8 0 3.9-.1 4.5-.3 1-.2 1.4-.2 2 .2.5.3.7.6.6 1.3-.1 1.2-1.4 1.7-5 2-1.5.1-3.1.4-3.5.5-1.1.5-3.5.9-5.7 1l-3 .2-3.6.4c-2.3.2-2.8.4-3.5 1-1 .7-1.3.8-3 .2-1.1-.4-1.3-.4-2.4.1-.7.3-1.7.6-2.1.6a5 5 0 0 0-1.9.5 6 6 0 0 1-4.2.6c-.5-.2-1.1-.3-1.5-.1-1 .4-3 .5-4.2.3zm-122-2.3c-1.1-.8-1.8-1-2.6-1-1.6-.1-3-.3-5-1l-2.8-.7c-1.5-.3-2.9-.9-3.6-1.4-.8-.5-.9-2.1-.1-2.8.4-.5.8-.5 5.4-.3 5 .2 5.5.3 7.1 1.4.6.5 1.2.7 2 .7 2.1 0 4.4 1.7 4.4 3.3 0 1.4-1.2 2.8-2.4 2.8-.4 0-1.4-.5-2.3-1zm-100-2.7c-.7 0-1.5-.4-1.8-.6-.3-.3-1-.5-1.4-.5a18 18 0 0 1-5.5-1.7c-.5-.4-.6-.6-.5-1.4a8 8 0 0 1 2-4c1.1-1.1 2-1.5 5.5-2.3l2.5-.9c2.1-.8 4.7-1 6-.4 1 .5 1 .5 2.1-.1 1.4-.7 3.8-1 5.5-.6.8.1 1.2.4 1.4 1 .5.8.2 1.6-1.2 4l-1.3 2.3c-.5 1-3.4 3.5-4.6 4.1-2.3 1.2-5 1.5-8.6 1.1zm48.4-2.5a2.7 2.7 0 0 1-1.3-2.2c0-1.4 1.6-2.1 4.8-2.2 1.6 0 2 .4 1.7 1.8-.2.7-.6 1.2-1.5 1.8-1.5 1-2.7 1.3-3.7.8zm243.3-.6c-1.2-.3-2.7-.6-3.5-.6-2.2 0-4-.5-4.9-1.2-.6-.6-.6-.8-.4-1.5.2-.7 1.8-2.2 3.1-2.9a8 8 0 0 1 1.7-.6c4.6-1 5.5-1 7.3-.2 2.2 1 3.4 3.1 3 5.1-.3 1.2-1 2-2.5 2.3-1.2.4-1.3.4-3.8-.4zm-233.5-.6c-.4-.8-.3-1.7.4-2.8.8-1.2 1.2-1.5 2.8-2 1.8-.4 3.5-.3 4 .2 1.1 1.2.2 2.6-3 4.1-2.3 1.1-3.8 1.3-4.2.5zm18.3-1.2c-1.3-.6-1.4-2-.4-3.3a3.6 3.6 0 0 1 4.9-.4c.6.6.8.8.6 1.4-.2 1-.9 1.6-2.1 2.2-1.3.6-1.8.6-3 0zm195.4-1.3c-.9-.4-3.5-2.5-4.8-4-1-1-2.8-2.4-3.6-2.8a4 4 0 0 1-1.3-1.2 8 8 0 0 0-1.5-1.6c-.6-.4-1.5-1.2-2.1-1.9-1.1-1.1-1.2-1.1-2.3-1-1.8.3-2.6 0-4.4-1.5a10 10 0 0 0-2.7-1.8 3 3 0 0 1-1.5-1 9 9 0 0 0-2-1.6l-1.6-1H306c-2 0-3.8-.2-4.3-.4-1.6-.5-2.9-1.5-3.3-2.4a5 5 0 0 0-1.2-1.6c-1-.9-7.6-4.8-8.9-5.4l-2.4-1.5c-.8-.7-3-1.8-4.7-2.5a56 56 0 0 1-7.7-3.7l-4.9-2.6a143.6 143.6 0 0 1-7.6-4 17 17 0 0 1-4-2.3c-1.2-1-2.2-1.7-4.5-2.8a23 23 0 0 1-3.3-2c-1.2-1-3.5-2.1-3.7-1.9 0 0 .2 1.4.7 2.9 1.1 3.9 1.2 4 .5 5.8a8.3 8.3 0 0 1-2.4 4c-.7.9-1.3 1.7-1.3 1.9l1.1.9c1 .5 1.8.6 6.8.8 4.8.2 5.7.3 6.1.7 1.3 1.1.3 2.5-1.8 2.5a9 9 0 0 0-4.8 1.8c-.6.5-1.3.9-1.5.9-.7 0-2.5.6-2.5.8l2 .2c2 0 6.4.6 8 1 3.2 1 2.3 3.3-1.8 5.2l-4.3 2a19 19 0 0 1-7.4 1.9c-3 0-7.6-3-8.6-5.7-.4-1-.2-1.6.7-2.2.5-.5.6-.6.2-.7-.5-.2-1-.2-4 .6a11 11 0 0 0-2.3.8c-.2.1-1.5.7-2.8 1.1-2.3.8-2.8.9-5.5.9-2.2 0-3.3 0-4.7.5-2.6.7-4.9.5-7.2-.6-2.4-1.2-2.3-1.2-2.2-.8.5 1.3-1.2 2.4-3.8 2.4-.8 0-2 .2-2.5.4-1 .5-3.4.7-7 .7-1.7 0-2.2 0-2.6-.5-.7-.7-.3-1.6 1-2l7.5-1.5c.6 0 .6 0-.4-1a5 5 0 0 0-1.3-.9c-.4 0-1.8-1.4-1.8-1.7 0-.2-.3-.6-.8-1-.8-.5-.3-.5-7.2 0h-2.1l-1.2-1a10 10 0 0 0-5-2.5c-.6 0-2-.6-3.2-1.2-1.9-1-2.2-1.2-3-2.4l-.9-2c-.7-2.4-3.8-4.7-6.5-5-1.7-.2-3.3-1-5.1-2.7a17 17 0 0 0-10.1-3.2c-5.4-.3-7-.8-8.5-2.5-2-2.3-2.4-4.2-1.4-7 .5-1.4.5-2 .4-7.7 0-5.4-.1-6.4-.6-7.6-.6-1.6-2.6-4.3-4.2-5.6-3.4-2.8-3.7-3.6-3.6-9.8v-4.3l-1-1.6-1.6-2.7a9 9 0 0 1-1.1-5.7l.1-1.6h-2.6c-4 0-6-.4-7.2-1.4a14 14 0 0 0-5-2.9 28.5 28.5 0 0 1-11.6-5.3l-2-1.3c-1.1-.7-4.4-2.5-7.4-4-6-3-9.6-5.6-9.6-6.9l-.4-1.2c-.7-1.3-.3-2.6 1.6-4.5A161.2 161.2 0 0 0 95.2 188c1.4-1.4 2.6-3.2 3-4.3l1-1.4c.4-.4.9-1 1-1.5l1.4-2.3c2.3-3 3.2-4.8 3.3-6.7 0-.4 2.8-2.4 3.7-2.6.6-.1 1 0 1.3.3.2.2.8.4 1.1.4 1 0 2.4.6 3.1 1.4 1.2 1.3 2.2 1.2 4-.6.6-.6 1.5-1.4 2.1-1.7 1.6-1 2-1.9 3.3-6.4a51.4 51.4 0 0 1 2.1-6.5 41 41 0 0 1 1.9-4.5c.7-1.4 1.3-3.2 1.5-4 .1-.7.4-1.6.6-2 .7-1.3.5-2-.8-3.5-1.2-1.4-1.2-1.4-1.2-3.4 0-1.9.1-2.3 1.1-4.3 1.1-2.1 2.6-4.5 5-7.6.7-1 1.3-2.3 1.9-3.9.4-1.3 1.1-3 1.6-3.7l1.5-2.8c.4-1 1.2-2.2 1.7-3l1.5-2.2a14 14 0 0 1 4.2-4.1c.8-.4 1.3-.5 2.8-.3l1.8.2 1.4-1.5c1.3-1.2 1.5-1.5 1.5-2.5 0-.8.2-1.3.6-1.9 1-1.1 1-2.6-.2-3.6-.8-.8-3-2.2-3.2-2.2a27 27 0 0 1-3.5-2.7c-.4-.5-.8-2-1.3-5.1a13 13 0 0 1 0-5.4c.7-4.8 1.2-6.3 2.2-7.8a10 10 0 0 0 1.7-4.8c0-1 1.4-4.2 2.7-6l1-1.4 1.3.2c.8 0 1.6.4 2.4 1 1.3.8 2.2 1 2.4.4.3-.7-.3-1.2-1.6-1.4-2-.2-3-2-2-3.4.5-.8 2.3-1.7 3.3-1.7.4 0 .8-.1.9-.3.3-.4 4.5-.5 7.8 0 2.7.3 3.5.5 4.4 1 .6.5 1.5 1 2.1 1.3 3 1.6 5 4.6 5.7 8.7l.6 2.5c.4 1 .5 1.6.2 4.1l-.3 4.7c0 1-.2 2.4-.4 3.2-.2.8-.4 2.2-.4 3a30 30 0 0 1-2.4 9.9c-1 2.9-1.5 3.5-3.3 4.4-1.6.8-2 1.3-2.5 3.3l-.3 1.5 1.1 1.7c1.2 1.7 2.2 2.8 2.6 2.8l1.1.8c.5.4 1.7 1.3 2.8 1.9a8.4 8.4 0 0 1 4 5l.9 1.9c.7.5 3.9 6.6 4.6 8.7l.7 3c.1 1 .7 2.7 1.3 4 1.3 2.6 1.3 3.4.3 4.4-.7.6-.8 1-.8 1.9 0 .9-.4 1.9-1.4 4l-1.3 2.7.2 3c0 1.7.3 3.7.5 4.5 1.3 5.1 1.7 7.5 1.9 11.5 0 1.4 0 2.3-.2 2.8a17 17 0 0 0 0 6.8l.4 1.2.9-.7c.7-.6.8-.8.5-1.4-.4-.8.2-3.7.9-5 .4-.7.5-1.3.3-5.3a170 170 0 0 1 .1-17 178 178 0 0 0-.3-21.5c.3-.3 0-24.2-.3-24.9a.8.8 0 0 0-.7-.5c-1.2 0-1.3-1-1.3-21.2V61.9l-1-.8c-.6-.7-.8-1-.8-1.8 0-1.5-2.4-6-4-7.4a5.6 5.6 0 0 0-1.7-1.2c-1.4 0-5.4-2.5-6.7-4.2-1-1.4-2-4.2-1.8-5.7.1-1.1 0-1.3-.7-1.9-.4-.4-.8-.7-1-.7l-.8-.5c-.3-.3-1-1-1.7-1.4a10 10 0 0 1-1.7-1.7c-1.2-1.6-1.8-2-3.5-2.5-2.2-.7-4.4-1.8-5.2-2.7-.4-.4-1.2-.9-1.8-1.1-2.4-1-3.2-3.3-1.5-4.1l.9-.5-.7-.8c-.8-.9-.8-1.9-.2-2.5a24 24 0 0 1 10.7-2.3c2.5 0 2.6 0 3.1.7.8 1 .7 1.9-.1 2.4a22 22 0 0 1-5.4 1.6c-1.2.2-1 .5.6.7a1254.6 1254.6 0 0 1 51.8.8c.8.2 1.3.1 1.4 0 .3-.5 1.2-.4 1.3.1.2.7 1.8 1.2 3.8 1.2 3 0 6.6.4 7.8 1a16.1 16.1 0 0 1 8.4 9.4c0 1.7 6 8.9 8.4 10.3 1 .6 1.3.7 2.2.5 1.2-.2 3.7.5 6 1.5a7 7 0 0 0 1.4.5c.2 0 1 .3 1.7.7 1.6.7 2.3 1.5 2.8 3.5.3 1 .3 1.4-.1 2.5a59.7 59.7 0 0 0-.6 13.1l.2 7.5.1 9.8c.2 5.2.2 10.5 0 13.8 0 1.5 0 3.5.2 4.6.5 3.1-.4 6.7-1.6 6.7-1 0-1.3-.8-1.8-5a89 89 0 0 1-.5-10.3 819.6 819.6 0 0 1 .3-41.3v-1.5l-2.1-.7c-1.5-.6-2.2-.8-2.5-.6-.3.2-.9 1.1-1.4 2.1l-1 1.9v5.3c0 2.9.2 6.2.4 7.5.2 1.5.2 2.9 0 4.6-.3 3.8-.3 10.3.2 13.3.3 2 .3 3 .1 4-.1.9-.2 2.2-.1 3.1l.3 5.8c0 2.3.2 4.7.4 5.2.1.5.3 1.7.3 2.8 0 1 .1 2.9.4 4.2.2 1.4.4 3.2.3 4.5-.1 2.1 0 2.2.5 2.5l1 .3c.4 0 1.8.7 3.2 1.5 1 .7 1.3.9 3.8 2 1.9.8 3.9 2.6 5.5 5 5.5 7.8 5.3 7.4 5.6 10.6l.6 3.5c.3 1 0 3.2-.7 4.2l-.7 1.7c-.2.9-.6 1.6-1.4 2.3-1.1 1-3.2 3.8-4 5.4-.4.7-.4 1.3-.3 3v2.5l-2.3 2.1c-1.2 1-2 2-2.2 2.6-1 2.6-2 3.8-5.4 5.6a9 9 0 0 1-4.9 1c-1.1-.1-1.2-.1-1.2.6 0 .4-.2 1.1-.5 1.6a4 4 0 0 0-.5 1.1l-.8 1.4c-1.2 1.8-1.4 2.4-1 3 .6.8 2.3 1 4 .6.7-.3 2-.4 2.6-.4 1.7 0 4.3-1 5.9-2.2a17 17 0 0 1 2.1-1.3l1.5-.9c.9-.6 4.5-1 6.8-.8 2 .1 2 .1 2.7-.5.8-.9 1.5-1 2.4-.1 1 .8 1.2 2 .5 2.9-.5.6-.8.7-1.7.7-.9 0-1.3.2-2 .7l-1.8 1.6c-1.4 1.1-2.3 2.8-1.8 3.2.1.2.4.3.6.3.6 0 1 1 .7 2.4a4 4 0 0 1-2.8 3.4c-3.3 1-5.2 1.7-6.2 2.2-1.6.7-3.9 1-5.1.9-.6-.1-1.7 0-2.5.1-1.6.4-2.2 1-2 2.5 0 1.2 1 3.3 1.6 3.3l2-.5 3.4-1 4.2-.8c1.7-.4 2.8-.5 3.7-.4 1 .1 1.6 0 2.6-.4 1.5-.6 4-1 5.4-1 .4 0 1.3.1 1.9.4l1.3.6c.8 0 3 .9 3.7 1.5 1.7 1.5 1.9 3 .6 4.3a4 4 0 0 1-1.5 1c-1.5.2-1.4.2-.8 1.4l1 1.9c.3.3.5.9.5 1.1 0 .5 1.5 2 2 2 1.1 0 3.3 2.5 3.3 3.7 0 .5-1.5 1.8-2 1.8s-1.4.6-2.2 1.3l-.9.6-.5.3-1.8.9c-1.4.5-1.5.5-3 0-1.6-.5-4.4-2.4-5.1-3.5l-1.6-1.9-1.1-1.2-1.5.7-3.6 1.8a11 11 0 0 1-2.7 1c-.7 0-2.3.8-3.5 1.7a7 7 0 0 1-2.7 1 10 10 0 0 0-3.4 1.2c-1.9 1.2-4.3 2-5.7 2-1 0-2.7.5-4.7 1.5-1 .5-1.3 1-1.3 3.5 0 1.1.1 1.8.8 3.1l.7 2c0 .3.2.7.4 1 .2.4.6 1.6.8 2.8.4 2 .4 2.6.2 4.9-.3 2.5-.3 2.6.3 4.7 1.2 3.7 1.6 6.7 1.7 13.6 0 3.5.2 7.2.3 8.1a17 17 0 0 1-.2 7.2l-.7 3.3c-.2 1.6-.1 1.7.6 2l3 1.1c4.4 1.5 6 2.1 6.9 3 1 .9 2.9 1.7 5.1 2.2.8.2 2 .7 2.9 1.2l3.9 2.2a53.7 53.7 0 0 1 7.8 4.4c.7.3 2.8 1.9 4.6 3.4a67.2 67.2 0 0 0 11 7.3c.8.7 2 1.4 7 4a95.2 95.2 0 0 1 7.1 3.7 5 5 0 0 1 1.8 1c.8.8.9.8 3.3.7l2.8-.2c.5-.1 3.3.3 4.5.8.7.2 1.6.7 2 1l1.6 1c1.5.4 3 1.7 3.6 2.9.5 1 2.4 2.9 7 7l1.3 1.3.8-.5a7.2 7.2 0 0 1 6.4-.5c1.2.6 3.3 3 4.4 5 .8 1.5.2 3.6-1.6 5.2-.7.7-1 .8-2.3.9-1 0-1.9-.1-2.3-.3zm-117.7-30.3h-1c-.4.1-.2.2.4.2.6 0 .8 0 .6-.2zm5.6-.5c0-.2-.2-.4-.4-.6-.5-.4-2.3-.1-2.8.4-.3.3 0 .4 1.5.4 1 0 1.7-.1 1.7-.2zm-10.6-1.8 2.2-.7a82.8 82.8 0 0 1 8.4-1.6c1.1 0 2.5-.3 3.2-.5 1.4-.5 4.5-1.3 6-1.5.8-.1 1-.3 1-.8.2-.7 1.2-1.2 2.8-1.5 1-.1 1.4-.4 2.6-1.7 2.5-2.5 2.5-2.5 2.3-3.8-.2-1-.3-1.2-.7-1.2-1.6 0-2.2-1.2-1.8-3.3.3-1.3.3-1.5-.4-2.6-.8-1.4-3-3.5-4.2-4.1-1.3-.7-1.3-1.4.2-2.7 1.2-1.1 2.1-1.4 2.7-.8.5.5 1.6-.2 2.1-1.2 1.2-2.4.3-19.1-1.1-20.5-.4-.4-.4 0-.3 4l.4 5.9a55.8 55.8 0 0 1-.5 10.7c-.7.4-1.2-.3-1-1.5.2-1.2-.2-7.6-.6-11a55 55 0 0 1-.2-12.1l.3-6.2-.8-1.7c-.5-1-1-2.6-1.2-3.6a34 34 0 0 0-2.6-7.6l-1-2.3c0-.4-.3-1-.6-1.6l-1.2-3a18 18 0 0 0-1-2.7c-.3-.4-1.4-1-2.6-1.6a15.5 15.5 0 0 1-5.9-4.4l-1.1-1.3-.9-.6c-1-1-1.6-1.2-2.5-1-1.8.6-3.3-1-3.3-3.6 0-.8-.1-2-.3-2.5-.1-.5-.3-2.6-.3-4.6 0-2.5 0-3.9-.3-4.3l-.4-.7-.2 1a104 104 0 0 0-1.6 6.4l-.9 4c-.3 2.2-.4 2.5-1.3 2.5-.5 0-.8-.2-1-.8-.6-1-.7-5.4-.2-8l.7-4a63.5 63.5 0 0 1 6.4-20c.8-.2.5-1.2-.6-1.8-1.2-.7-1.4-1.6-.6-2.2 2.2-1.8 4.4-1.3 5.6 1.2l.6 1.4c0 .2.3.3.8.4.7 0 .9.2 1 1 .3.9.3 1.4-.2 4a117.6 117.6 0 0 0-1.7 13 50 50 0 0 0 0 9.8c.2 4.4.4 4.7 4.3 5.2a50 50 0 0 1 8.2 1.7l2.2.4c2.5.3 3.7.6 5.5 1.3 1.8.8 2.5.6 3.9-.7 1.3-1.4 1.5-1.7 1.7-2.7.2-.6.1-.9-.5-1.4-.6-.6-.9-1.6-.4-2 .4-.1.4-1.1 0-1.1-.6 0-1.5.7-2 1.5-.3.7-.5.9-1 .8-.7 0-.8-.2-.9-1.2a4 4 0 0 0-.6-1.9c-.4-.4-.4-.7-.2-1.1.2-.5.5-.5 2.7-.4 3 0 3.7-.3 5-2.2 1.2-1.5 1.6-3 1.7-6.2v-2.6l-1.4-1.5c-1.8-1.8-3-3.6-3-4.5 0-.7-1.3-3-1.8-3.3a.7.7 0 0 1-.3-.6l-.6-1.6c-.5-1-.6-1.7-.5-3.1 0-1-.1-2.2-.3-2.5-.3-.8-1.7-1.9-2.4-1.9-.2 0-.5-.1-.6-.3-.4-.7-5.4 0-7.7 1.1-2 1-3.4 1-4 .2-.2-.4 0-.7 1-1.6 1.6-1.4 5.5-2.8 8.2-2.8 1.3 0 4.3-.8 3.2-.8-.3 0-.6-.1-.6-.3 0-.1-.2-.3-.5-.3l-1.2-.4c-.6-.4-1.3-.5-3.3-.5a12 12 0 0 1-3-.3c-.3-.2-2.2-.6-4.3-.8-1.3-.1-2.9-.7-3.1-1.1-.1-.2-.7-.5-1.3-.8-1.1-.5-3-2.3-3.6-3.4-.4-.8-.4-1.6.1-2.1.4-.4.4-.5-.4-1l-1.7-1.3c-.7-.7-.7-.7-2.2-.4-2.8.5-5 1.9-8.2 5l-5.1 5.1c-1.2 1.2-1.4 1.8-.4 1.8.4 0 .7.1.8.3.2.5 2 .3 2-.2 0-.6 1.6-2.2 2.4-2.4 1-.2 2.3.5 3.8 2 .9 1 1.2 1.5 1.3 2.5.3 1.5 0 2.2-.8 2.4-1 .3-4-.6-4.6-1.3-.7-.8-1.2-.9-1.4-.3 0 .2-.7.7-1.5 1l-2 1.3c-.4.4-1.2.9-1.8 1.1-.5.3-1.5 1-2.2 1.7l-2.1 1.7c-1 .8-2.2 2-2.2 2.3 0 .2-.4.6-.8 1.1l-.8 1-.6.9a37.8 37.8 0 0 0-5 6.8l-.5.7-1 1.6c-1.5 2.5-2.1 3.6-2.6 4.1-.3.4-.8 1.1-1 1.7l-1 1.6c-.2.3-.8 1.4-1.2 2.5-.4 1.1-1.2 2.6-1.6 3.3-.5.7-1.1 2.2-1.4 3.2-.7 2.2-2.2 5-4 7.8-.9 1.2-1.6 2.5-1.7 3.1a40.5 40.5 0 0 1-1.3 5.8l-1 3.3c-.4 1.3-.6 2.4-.6 5 0 1.8-.2 4.9-.4 6.8-.2 3-.2 3.7.1 4.8l1 4.5.7 4.1c.5 1.9-.8 4-2.5 4.2-.9 0-1 .2-1 .8-.1.4 0 1 .2 1.5.8 1.4.4 5-.9 8-.7 2-2.3 2.6-3.6 1.7-.7-.6-.8-1.4 0-2.8.3-.8.5-1.8.6-3.5.1-2.3 1-6.4 1.5-6.7.4-.3.2-.6-.6-.8-.5 0-1.2-.4-1.5-.6-.6-.3-.7-.3-.5.1 1 3.6 1 3.5.7 5.4-.8 4-2.2 7.2-4.5 9.6-.9.9-1.6 1.8-1.6 2 0 .2.5.6 1 .9l2.4 1.4c.8.6 1.4 1 2 1 1.1 0 2 .6 3.5 2.8 1.6 2.1 2.8 4.3 2.8 5.2 0 1 .6 1 2.2.3a7 7 0 0 1 2-.7c.8 0 2.4.7 3.2 1.5.6.6.9.6 1.6.5 2.4-.5 2.6-.5 3.4 0 1 .9 2 2.4 1.7 3.2-.2.7-.9 1.2-2.4 1.6-1.4.3-1.6 1.2-.4 1.9 1.6.8 2.4 1.7 3 3.1l.7 1.4h1.4c.8 0 2 .2 2.6.4 1.1.4 1.2.4 3.5-.4 3.3-1 3.7-1 5 .5.8.8 1.8 1.5 3.3 2.2 2 1 2.5 1 5.2 1.2 2.4.1 3.1.3 3.7.7.7.4 1.2.5 3.5.5 2.2 0 2.8 0 3.5.5.9.6 1.5.6 3.5.1zm-8-2c-1.6-.4-2.4-2-1.6-3 .7-1 3.8-1.2 4.6-.5.8.7 1.3 2 1 2.5-.6 1.1-2.3 1.5-4 1zm15.6-4c-.2-.2-.3-.7-.2-1 .1-.6 1.5-1.6 2.6-2 1.5-.4 3.2.8 2.9 2-.3.8-1.2 1.3-3.1 1.5-1.6.1-1.8.1-2.2-.4zm10.1-.4c-.4-.5 0-1.3.8-1.3.9 0 1.3.8.9 1.3-.2.3-.6.5-.9.5-.2 0-.6-.2-.8-.5zm-37.5-1.5c-.7-.7-.7-1.5 0-2.1 1-1 3.2-.2 3.2 1.2 0 1.5-2.1 2-3.2 1zm6.8 0c-.3 0-.5-.5-.5-1.1 0-1.2 1-1.7 2-1 .8.5.9 1.2.1 2-.5.5-1 .6-1.6.2zm32.2-1.6c-1.5-.6-2-1.2-1.8-2 .2-.8.8-1.3 1.6-1.3.9 0 3.2 1.3 3.4 1.9.2.5-.3 1.5-.8 1.5l-.8.1c-.3.1-1 0-1.6-.2zm-43.1-.5c-1-.5-1.5-1-1.7-2.1-.1-1.1.4-2.4 1.4-3.3.6-.6.8-.6 1.3-.4.5.2.7.6.8 1.4 0 .7.2 1.7.4 2.3.6 2.1-.3 3-2.2 2zm-6.1-1.8c-1.1-.4-1-2 .2-2.7.9-.6 2.9-.7 3.5-.2.8.7.4 1.7-1 2.5-1.5.7-1.8.8-2.7.4zm50.8-1.4c-.6-.6-.5-1.6.2-2.1.6-.5 1.7-.6 2.2-.2.5.3.9 1.4.6 2-.2.6-.4.7-1.4.7-.7 0-1.3-.2-1.6-.4zm-27.1-3.4c-2.2-1-3.8-1-5.4-.2-1.1.6-1.3.6-2.5.3-1.7-.4-2.4-1-2.4-1.7 0-1.5 1.4-2 3.3-1.4l1.2.5.7-.7c1.7-1.6 3.8-1.6 6.8 0 1 .5 1.8.6 3 .6.9 0 2.3.2 3.2.5 1.6.3 1.8.3 2.6 0 1-.6 1.7-.6 2.7 0 1 .4 1 1.6.2 2.3-.5.5-1 .5-6.1.6h-5.6l-1.7-.8zm19.7 0-2.2-.5c-2-.2-2.3-.4-2-1.4.5-2 5-2.7 6.6-1 .8.8.8 2.2.1 2.8-.5.5-1.7.6-2.5.1zm-51.6-3.3c-1.3-.4-2-.8-2.1-1.5-.6-2.2 2-3.2 3.7-1.5 1.9 1.9 1 3.6-1.6 3zm19.8-.5-1.9-1.4c-.7-.7-1.3-1-1.9-1-.9 0-2-.9-2.2-1.7-.2-.7-3.5-3.5-3.9-3.3l-.3.6c0 .2-.2.5-.5.6-.6.4-1.4 0-1.6-.8-.2-.5.1-.9 1-1.2l.7-.1-.8-.8c-.4-.5-1.4-1.3-2.3-1.9-1.7-1.2-2.5-2-2.5-2.3 0-.2.2-.5.5-.8.7-.7 2.2-.7 4.4.1 1.6.6 2 1 4 2.9 1 1.2 2.3 2.8 2.7 3.5 1 1.7 2.2 3 3 3 .4 0 1.2.4 1.8 1l1.8 1.5c.4.3.6.7.5 1.4 0 1-.2 1-.9 1-.4.1-1.1 0-1.6-.3zm-13-.5c-1.2-1.2-.7-3 1-3.4 1.3-.3 2.1.4 2.1 1.8 0 .6-.2 1.4-.4 1.7-.6.8-1.8.8-2.6 0zm-14.2-.2c-1.5-.4-2.2-1-2.8-2.4-.6-1.3-.4-1.9.7-2.7.8-.6 1.6-.8 2.1-.4.4.2 3 4.1 3 4.4 0 .4-1 1.4-1.4 1.4l-1.6-.3zm49.1-.5c-.5-.5-.4-.7 1-2.6a15 15 0 0 0 3-5.5c0-.4.1-1 .3-1.4.7-1.4 1-3.3.9-6.5-.2-4.9-1-8.1-2.6-11-.3-.6-.5-1.3-.5-1.6l-.8-2.4c-2.3-6-2.5-6.4-1.7-7 .5-.5 1.3-.2 1.8.6l1 2.1c.2.9.7 1.9 1 2.3.5.7 1.4 3 2 4.9l.6 1.6c.2.1.3.7.4 1.3l.6 2.2c.4 1.4 1 7 1 8.9-.1 1.6-1 5.5-1.6 6.5-.2.4-.4 1-.4 1.5 0 .4-.2 1.2-.6 1.7l-1.3 2c-.3.7-1 1.5-1.3 1.9-.8.7-2.3 1-2.8.5zm13-.6c-.8-.6-1-1.5-.3-3.3a80.6 80.6 0 0 0 2-8.3v-1.7c.3-.5.4-3.5.3-6.2 0-1.3.6-4.8 1.1-5.8.6-1 1.3-1.4 1.8-.7l.2 3.6c0 2.8.1 3.7.8 6 .8 2.8.8 3.4.4 5.8-.3 2-.8 3.3-1.9 5.3l-.8 2c0 .8-1.4 3.2-2 3.4-.8.4-1 .4-1.6-.1zm-31.5-1-.6-.8-1.5-1.9c-2-2.1-2-2.2-2.8-5.6-.7-3-1.2-5.2-2-7.6-.7-3-1.5-10.6-1.4-14 0-2 .7-5.6 1.4-7.7.4-1.5.7-1.8 1.2-2 1.4-.3 1.5.1 1.4 3.6a37.2 37.2 0 0 0 .2 12.1c.3 2.4.5 3 1.2 5.3.3.9.5 2.2.6 3 .2 2 .4 2.9 1 4.1.4.6.7 1.6.8 2.2.2 1 1.2 3.5 2.5 6.4.7 1.6.8 2.5.3 3.1-.5.6-1.7.5-2.3-.2zm18-5.9c-.7-.6-.7-.6-.4-2.2.5-2.5.5-2.7-.6-2.5-1 .2-1.9-.5-2.1-1.7l-.5-1.4a8610.4 8610.4 0 0 0-.7-3.7c-.1-1-.4-2.2-.7-2.6-.2-.5-.4-1.2-.4-1.7l-.3-2.6c-.5-2.1-1-8-.9-8.9.1-.4.4-.6.8-.6.9 0 1.4.8 1.8 2.8.6 3.4 1 4.7 1.7 7.4l.8 4.2c.3 2.8.5 3.6 1 3.6l.3-.7c.5-2.2.7-2.8 1.2-3 .3-.2.6-.2 1 .1.4.4.5 1.8.6 12 0 1-.1 1.3-.5 1.7-.8.6-1.2.6-2-.2zm-41.2-6.6c-2.2-.8-2.5-1-2.5-2s.8-1.6 2-1.6c.8 0 2.9.9 3.6 1.5.7.6.6 1.8-.1 2.3-.8.6-.8.6-3-.2zm5.3-.7c-.4-.4-.7-1-.8-1.5l-.8-3a32 32 0 0 1-1.4-9.2c.3-.9.9-1.3 1.5-1.2 1 .3 1.7 2 2.4 6.2l.9 4.6c.4 2 .2 3.8-.5 4.3-.6.4-.7.4-1.3-.2zm14-55.9c-.4-.3-.5-.7-.5-2.4 0-1 .2-2.4.4-3l.2-2.5c0-1.3.2-1.9 1-3.3l.9-2.1 1-2.4 1.1-2.2a611.7 611.7 0 0 0 4-8.8c.6-1.2.7-1.8.1-1.6-.2 0-.4 0-.4-.2s.4-.5.9-.7c.5-.2 1.1-.7 1.6-1.5.8-1.3 1.7-2 2.7-2 .8 0 .8.6 0 3.4a986 986 0 0 0-.8 3.3 30.8 30.8 0 0 1-2.3 6.2c0 .4-.8 2.4-1.7 4-2.2 4-4.4 9.5-5.6 13.7-.6 2.2-1.5 3-2.6 2.1zm-5.2-17.7c-.3-.1-.5-.5-.5-1 0-.7.2-1 3.6-5.2a289.1 289.1 0 0 0 5-6.2l1.9-2c1.7-2.1 2-2.3 3.4-2.3 1.9 0 2 .6 0 2.3a26 26 0 0 0-3.8 4.4l-.8 1-1.3 1.6c-.7.7-.7 1-.2 1.4.5.4.3.7-.5.7-1 0-2.4 1.2-4 3.4-1.5 2-2.1 2.4-2.8 2zm44.1-14.1c-.6-1-.6-1-.2-1.5.4-.4.5-.4 1.2 0 1 .5 1.5 1.5 1 2-.6.7-1.2.5-2-.5zm-85.9 100.2c1.2-1.4 1.3-1.7.7-2.7-.4-.4-.5-1.5-.7-3.7 0-1.7-.4-3.6-.6-4.3-.7-2-.9-8.7-.3-10.4.7-2 .6-2.2-.8-2.2-.8 0-1.3.1-1.7.5-.5.5-.5.8-.4 4.8a180.1 180.1 0 0 0 .7 12.5c0 1 .1 2.5.4 3.2.5 1.7.5 1.9 0 2.4-.6.6-.1 1.2.9 1.2.6 0 1-.3 1.8-1.3zm11-28.5c0-.6-.4-1.9-.7-2.7-.4-1.3-.5-2-.3-4.8 0-1.8.3-4.2.5-5.2.3-1.2.4-2.4.3-3.1-.2-1.4.4-6.1 1-7.2a31 31 0 0 0 1.7-4.7l1.2-3a159.4 159.4 0 0 0 5-11.5c1.4-3 1.5-3.1.4-3.1-.5 0-1.1-.2-1.3-.5-.2-.2-.4-1.6-.5-3.3a148.8 148.8 0 0 1 .1-18.2c.3-3.9.6-4.8 1.7-4.7h.7v5.6l.2 7.3.2 6 .2 5.3.1 1 1-1.7 1.8-3c1.4-2.7 4.4-6.7 8-10.5.9-1 .9-1.4 0-2.7-.3-.4-.7-1.6-.8-2.5l-1-6.6c-.4-1.5-.4-4.6 0-6.5.5-3.3.5-7.2 0-10.3a31 31 0 0 1-.5-3.8c0-1.3-.3-4-.6-4.7-.3-.8-.9-1-1.2-.5 0 .2-.8.3-1.7.3-1.3 0-1.6-.1-2.3-.9a13.5 13.5 0 0 1-2.9-6.6c-.4-2.3-.4-3-.1-5.2.2-1.4.3-2.8.2-3.2 0-.6-.1-.7-1.7-.6-1.1.1-1.8 0-2.2-.3l-2.4-.7c-2.2-.4-2.9-.8-2.9-1.8 0-1.7 3.2-2.8 4.9-1.7.6.3.8.3 2.1 0l1.5-.7-.4-1.3c-.3-.8-.4-2-.4-3.5 0-1.2 0-3-.2-4-.6-2.9-.4-3.4 2.9-6.5.5-.5 1-1 1-1.3 0-.2-.4-.9-1-1.5l-.9-1.4s-.4-.7-1-1.3c-1.3-1.5-2-3.5-1.6-5.1.6-2.4.5-2.7-.7-3.4-.9-.5-1.6-.6-3.6-.7-1.3 0-2.8-.2-3.1-.3-1.1-.3-1.4.2-1.6 2.5-.4 3-.7 3.7-2 4.3-.7.3-1.4.8-1.6 1.2-1.4 1.9-4 3.8-5.5 3.8-.6 0-1 0-1 .3 0 .5 1.9 1.8 2.7 1.8h7.6c4.9-.3 8.3 0 9 .7.6.5.8 1.7.3 2.1-.2.2-.7.4-1.1.4l-3.5.7c-2.4.6-3.1.7-6.9.7-3.6 0-4.4 0-5.1-.5-.6-.3-1.2-.4-1.8-.3-1.4.3-2.4-.2-3-1.6-.3-.6-.5-1.4-.5-1.8 0-1.4-1-.7-2.1 1.4-.8 1.5-.8 1.8.4 2 1.6.2 2.4 1.5 3 4.7.4 1.5.4 2.2.2 3.1l-.4 2.3c-.1 1.1-.1 1.2.7 1.2.4 0 1.3.2 2 .5.9.4 1.8.5 3.2.5 3 0 4.1.4 5.3 1.8 1 1.2 1 1.3 1 3.4 0 1.1-.3 3.1-.5 4.3a137.5 137.5 0 0 0-1.5 9 5 5 0 0 0-.2 1.4l-.3 2.5-.4 2.1c-.1.8-1.3 1.5-2 1.3-.9-.3-1.1-1.1-.7-2.2.4-.9.6-1.8.9-4.4a109.2 109.2 0 0 1 2-11.3l.2-2.7c0-1.6 0-1.7-.5-1.7-.4 0-1 .2-1.3.5-.4.2-1.3.5-2 .6-1.6.3-2.1.8-2.5 2.4-.2.8-.6 1.8-1 2.4-.4.5-1 2.1-1.4 3.5l-1.2 3.8a102.3 102.3 0 0 0-4 20.8l-.6 3.3-2.3 9.1c-.2.8-.4 2-.4 2.8 0 1.1-.2 1.7-.8 2.7-1 1.6-1 2.8-.2 3.8 1.9 2.3 2.6 4 2.6 5.7 0 1.1-.9 4-2 6.3a15 15 0 0 0-.8 2.2c0 .5-.4 1.6-.7 2.5-.5 1.6-.5 1.8-.1 3.2.2.9.5 3.4.6 6 0 2.4.4 5.7.6 7.2 1.2 6.2 1.2 6.3.6 7.4-.8 1.7-2.3 1.8-4 .4-1.2-.8-1.6-1.6-1.6-2.7 0-1-.4-1.2-.8-.3-.2.5-.2 1.4 0 3.2.1 2.2.3 2.7.9 3.5.4.5.8 1.4.9 1.9.1 1 0 1 3.4 1.4.8 0 2.3.4 3.3.8 1.9.7 2.4.8 7.6 1.7 4.4.7 5.3 1.3 4 2.6-.5.5-.9.5-5.2.5-3.7 0-5.1 0-6.3-.4-.9-.3-2.4-.5-3.3-.5h-1.7v2.6c.1 3.9.3 5.4.8 6 .5.5.9.6 6.2.7l5.8.2.8-.7c1-1 2.1-1 3.1 0 .5.4 1.6.8 2.9 1.1l2.1.7.7.1c.5 0 .5-.1.3-1.2zm-7.9-16.6c-.4-.7-1.1-8.5-.8-9.5l.4-6.4c.2-6 .4-7 1.3-7 1 0 1 .4 1.2 10.3.3 13.4.3 12.4-.3 12.9-.7.5-1.4.4-1.8-.3zm6.6-12.8c-.2-.1-.5-.7-.6-1.3a113.6 113.6 0 0 1 .2-30.7c.3-.8 1.3-1 1.9-.3.5.5.5.7.3 4.7v11.8c0 13 0 15.1-.3 15.6-.4.4-1 .5-1.5.2zM127 223c1.5-1.7 2-2.8 2.5-6 .6-3.6 1-5 2-8 2.2-5.9 4.2-12.2 4.8-15.3 0-.6 0-.8-.4-.9-.7-.2-1.1-1.2-1.1-2.5 0-.7-.2-1.2-.6-1.6a7.7 7.7 0 0 0-3.7-1.3c-.6 0-4.7-1.6-5.1-2-.6-.5-1.4-.1-2.4 1.2-1 1.4-3 2.6-4.2 2.6-1 0-2.4-.8-2.7-1.4-.2-.4-.4-1.5-.5-2.6a7 7 0 0 1 .5-4l.7-2.3c0-.7-1.1-1.5-3.3-2.2-1.2-.4-2.8-1.1-3.5-1.6-.8-.4-1.5-.7-1.7-.6l-3 4.8a11 11 0 0 1-1.1 1.5c-.3.3-1 1.5-1.6 2.7-.6 1.2-1.6 2.7-2.2 3.4l-1.7 2.2-1.6 2-1.2 1.6c0 .2-1.6 2-5 5.7l-2.1 2.4a16.9 16.9 0 0 0-2.4 4c0 .3 1.2 1 4.5 2.3a112.8 112.8 0 0 1 7.9 4 30 30 0 0 0 2.8 1.8l2.5 1.6a45 45 0 0 0 15 7.3 6 6 0 0 1 3.7 1.1c.8.6 2 1.2 2.8 1.2.2 0 .8-.5 1.4-1zm122.4-9.4 1.8-1.2c.6-.4 1.8-1 2.7-1.3 2.1-.8 3.3-1.4 4-2 .3-.4.7-.6.9-.6.2 0 .3 0 .3-.2s3.3-1.9 5.5-2.7c.8-.3.8-.4 1-2 0-.8.3-2.3.6-3.1l.6-2c0-.7-3.2-.2-4.5.8-.4.3-1.2.5-1.9.5-1.3 0-4.7.6-5.1.9-.2 0-.4.8-.5 1.6-.2 2-1 3.2-3 4-.8.5-2.2 1-3 1.2-2 .4-2.3 1-1.8 3.2.4 1.9 1 3.4 1.4 3.4l1-.5zm30.8-2.2c1-.2 1.7-.4 1.8-.6 0-.2-.4-.8-1-1.3-1.1-.8-2-2.2-2.4-3.8a5.3 5.3 0 0 0-2.8-2.6 3 3 0 0 1-1.3-.8c-1-1-.4-1.9 2-2.4 1.9-.4.5-2.2-1.8-2.2-.7 0-1.3-.1-1.4-.3-.3-.5-1.2-.2-1.7.6-.3.4-.6 1.5-.8 2.3-.2 1-.6 1.8-.8 2-.8.5-1 1.4-1 3.3v1.8l1 .3c.7.2 2 .9 2.9 1.5 3.9 2.5 4.5 2.7 7.3 2.2zm-25.4-22.3 2.8.1c1.8.1 2 0 3-.6.7-.4 1.7-.8 2.5-.9 2.3-.3 4.5-1.4 4.5-2.3 0-.2-.7-.6-1.6-.8-2-.6-2.6-1.3-2-2.6.7-1.2 1.8-2.2 3.7-3.1 1-.4 1.9-1 2.1-1.3.5-.5.5-.5 0-.7-1.4-.4-4.4.6-7 2.3-2 1.3-4.4 2-7.9 2.5-1.3.1-4.1.6-6 1l-.6.2.5 1.2 1.4 3.2c1 2 1.2 2.2 2.9 2l1.7-.2zm-119.4-6.7a137 137 0 0 0 4.6-21.7 45 45 0 0 1 1.7-7.5c.6-1.8.8-3.2.5-3.2l-1.2 1.1c-.6.6-1.4 1.3-1.8 1.5-.9.5-1.7 2.2-3 6.3-1.2 4.1-3 8.3-4.1 9.6-.3.3-1 1.9-1.6 3.5-.8 2.4-1 3.4-1 4.8 0 1.8 0 1.8 1.2 3.1l2 2.4c1 1.7 1.9 2.7 2.1 2.5.2-.2.4-1.2.6-2.4zm-14.8.9c1-1.3 1.2-2.1.2-2.2-.4-.1-.7.1-1 .7-.6 1-.8 2.6-.4 2.6.2 0 .7-.5 1.2-1.1zm94-.2c.1-.1 0-.2-.2-.2-.3 0-.5.2-.5.4s0 .3.2.2l.5-.4zm-27.2-3c.3-.5.3-.9 0-2-.1-.7-.3-3-.3-5.5 0-3.5.1-4.4.5-5 .4-.5.4-.8.1-2.4l-.7-2.7-.6-2.5a51 51 0 0 0-.7-3c-.7-2.4-.9-3.5-1.2-5.5-.4-3.2-.2-3-2.5-3-1 0-1.9.2-1.8.3l.7 2.8c.5 2.6.8 4 2 7.5l.8 3.9c.2 1 .6 2.6 1 3.6.4 1.3.7 3 .9 5.5a81.2 81.2 0 0 0 .8 8c0 1.6.2 1.6 1 0zm28.6-.9c-.3-.1-1 .6-1 1 0 .2.2 0 .6-.3.3-.3.5-.7.4-.7zm-92-2.9 1-2.5c.3-.5.5-1.1.5-1.3 0-.4-1-1.3-1.4-1.3-.4 0-1 1.4-1.4 3.5-.5 3-.5 3.1.3 3.1.6 0 .7-.2 1-1.5zm72.8-4.7c.2-.6-.3-.7-.6-.1-.3.4-.2.5 0 .5.3 0 .5-.2.6-.4zm46-2.1c0-.3-.4-.4-1.6-.4-1.3 0-1.4.1-.4.2.6 0 1.1.2 1.1.3 0 .2.2.3.4.3.3 0 .4-.2.4-.4zm-114.2-3.3a58 58 0 0 0 7.2-17.7c0-.9-.5-1.8-1.1-2-1.7-.4-2.2 0-3 2.7l-2 5.2c-1 2-1.4 3-2 4.8l-1.6 4.6-1 3.2c.1.2.8.2 1.6.1 1-.1 1.5-.3 2-.9zm129.2 0c.6-.5 1.3-1.4 2-2.7 1-2 1.9-3.1 2.4-3.1.2 0 .7-.6 1-1.2.8-1.3.8-2.7.1-4.3-.3-.9-.3-1 .4-1.5l.8-.7h-.6a2 2 0 0 0-1.3.6 3 3 0 0 1-1.4.8c-.4.1-.7.3-.7.4l-1.1 2c-.6.8-1 1.8-1 2.2 0 .7-.6 2-.9 2 0 0-.3.2-.3.5l-1.4 2.2c-.6 1-1.2 2-1.3 2.5l-.2.8h1.3c1 0 1.6-.2 2.2-.6zm-6.8-1.5.2-1c0-.3-.1-.4-.2-.2 0 .2-.3.3-.4.3-.2 0-.6.3-1 .7l-.6.6h1c.6 0 1-.1 1-.4zm-52.7-.7c0-.3.4-.8.6-1 .3-.2.8-1 1.1-1.7.4-.8 1-1.5 1.3-1.7.4-.2 1.7-1.4 3-2.7 1.1-1.3 2.3-2.4 2.6-2.4.3 0 .8 0 1.3-.2a102 102 0 0 1 4.7-1.3c.7 0 1 .1 1.4.6.3.5.5.5 1 .2.8-.5 2.1-.4 2.8.4.6.6 2.9 2 4.4 2.7 1 .4 8 .4 9 0 .6-.3.9-.7 1.6-2.7.5-1.4 1.2-1.7 1.7-.7.3.6.3 2.3 0 3-.1.4.1 2.6.4 3l1.6-.2c2-.4 3 0 3 .8 0 .6-.7 1.6-1.1 1.6l-.6.4c-.5.4 0 .7 2 .9 1 .1 1.5.3 1.7.7.2.4.5.5 1.9.4.8 0 1.8 0 2.1-.2.8-.1 5.4-4.7 5.4-5.3l.8-2.7.7-2.2-1 .2-2.7.3-2.6.7c-1 .4-1.8.4-1.8-.1l.4-1c.4-.8.4-.8-.2-1.5-1-1-1-2 .2-3 .8-.8 1.1-.9 2-.7.5 0 1 .3 1.3.6.5.7 1.6 1.1 2.1.8a3 3 0 0 1 1.2-.2h.8l-.8-.2c-.6-.2-.8-.4-.9-.9 0-1 .8-1.5 4.1-2.3 2-.5 2.2-1.2 2.2-4.8l.2-3.6 1-.9a27 27 0 0 0 1.5-1.2c1.1-.8 3.6-1.6 4.6-1.4.4.1 1 .7 1.4 1.3.6 1 1.2 1.3 1.5.8.2-.3-1.5-3.6-2.7-5.2-2.2-3-5.4-5.5-9-7-2-1-2-1-2-2v-1l-3-.2a17.3 17.3 0 0 0-5.5.3 5 5 0 0 0-1.8.5 4772 4772 0 0 0-3.4 2c-.2.2-.7.6-1.2.8-.5.2-1.4.9-2 1.4l-2 1.9c-1.9 1.5-3.3 5.4-3.4 9.1l-.1 2.7c-.2.5.8 1.8 1.7 2.2 2.5 1 3 1.6 2.6 3-.3 1-.3 1 .8 1.4 1.5.6 3.3 1.1 4.2 1.2 1 0 1.8.7 1.8 1.5-.1.5-.4.7-1.1 1-1.4.5-5-.1-6.3-1-1.1-.8-1.7-1-2-.5-.4.7-1.6.2-3.6-1.3l-2.2-1.6-.9.4c-.8.4-1 .4-1.6 0a5 5 0 0 1-1.9-2.6c-.2-.8-.7-.8-1.2.1l-1.4 2c-1 1.3-1 2-.4 2.9.3.5.4 1 .3 2l-.2 1.2 1.1.6c.7.3 1.5.6 1.9.6.3 0 1 .2 1.6.5.6.3 1.6.5 2.2.5 1.2 0 2.4.8 2.1 1.4-.2.6-2.3 1-3.8 1-2.2-.3-3-.6-3.8-1.4l-1-.7c-.5 0-2.4-1.6-2.7-2.3l-1.5-2c-.8-1-1.1-1.5-1.1-2.3 0-1.2 1-2.5 2.5-3.2 1.3-.7 1.9-1.3 2.3-2.7.1-.6.8-1.5 2-2.6 2-2 3-2.6 4.2-2.6.5 0 1.2-.2 1.5-.4.6-.2.7-.4.7-1.5a19.4 19.4 0 0 1 1.3-6.3c.2-.6.7-1.4 1-1.8.8-.7 2.9-2.2 3.1-2.2l1-.8 1.6-1.2 1.7-1 1-.7c.8 0 1.2-1.6.7-2.8-.3-.5-.3-1 0-2 .1-.8.4-3.7.5-6.5l.5-6.8c.2-1.5.1-2-.2-2.5-.4-.6-.5-2.3-.7-12-.1-6.1-.2-14-.1-17.2 0-5.2 0-6.2-.4-6.7-.9-1.4-1.5-.8-2.1 2.2-.3 1.1-1 2.9-2.2 4.9-1.9 3.5-3.1 6.3-3.7 8.2-.4 1.5-1 2.3-1.7 2.3-.6 0-1.7-.7-2-1.3-.3-1-1.1-8-1.3-12-.1-4.5-.5-7.6-1-7.6l-.8 1.2a51.6 51.6 0 0 1-3 5c-.2.7-1.6 2.8-2 2.8-.4 0-.7 1.2-1.1 5.2-.6 5.4-.9 6.7-1.7 7.1-1.7.9-2.6-1.3-3.5-9-.2-2-.4-2.8-.7-2.8-.2 0-.3.4-.3 1.3a452.4 452.4 0 0 1-.8 22.8 90.8 90.8 0 0 0-.8 13.9 55 55 0 0 1-.7 14.8c-.6 1-1 1-1.7.5-.6-.5-.6-.8-1.2-9.4a222.4 222.4 0 0 1-.2-36.7c.1-4.6.6-10 1.7-18.8a24.6 24.6 0 0 0-.3-10.2l-.1-1-.2.8-.8 2.8-.9 4.8c-.5 4-.6 4.3-1.2 4.5-1 .3-1.3.9-1.3 2.9 0 1-.2 2.6-.4 3.6-.3 1.5-.3 1.9 0 3.4.4 1.3.4 1.8.2 2.2-.4.6-.4 1.3 0 1.7.1.2.4 1.8.5 3.6a156.6 156.6 0 0 1 1 27.4 55 55 0 0 1-.3 7c-.3 2.7-.5 6.6-.5 8.8 0 5.8-1 8.5-2.4 7-.5-.4-.5-.8-.6-4.8 0-4.9-.3-10.4-.6-15.2-.2-1.7-.3-6-.3-9.6 0-6.1-.1-7.3-.5-8.2-.2-.6-1 4.3-1.4 7.6a108 108 0 0 1-1 8.4c-.3 2.5-.2 18.5.2 22 .1 1.2.2 4 .1 5.9-.2 3.7-.2 17.3 0 19.8 0 .8-.1 2.2-.3 3.2-.3 1.2-.3 2.5-.2 4.6.2 2.5.3 2.8.7 2.8.3 0 .6-.3.8-.6zm29.2-.5c.2-.2.3-.7.4-1.1.1-.7.3-.8 1.6-1.1 1.5-.4 1.7-.5 1.5-1-.2-.6-2.1-.6-2.7 0-.3.3-.7.3-1.4.2a81 81 0 0 0-2.5-.3c-1.4-.2-1.5-.1-1.5.4 0 .3-.1.6-.3.6-.5.2.2.8 2 1.7 2 1 2.6 1 3 .6zm26.3-3.4v-.7l-.1.6c-.1.4-.3.6-.4.6l-.2.4c0 .4 0 .4.3 0 .3-.2.4-.6.4-1zm1-5.3v-.1l-.6.8c-.2.2-.3.6-.2.8.2.4.3.3.5-.2.2-.3.4-1 .4-1.3zm2.7-3.3c0-.2-.1-.3-.3-.2-.4.1-.7 1-.5 1.3.2.2.8-.7.8-1.1zm3.1-2.3c.4-.4.4-.5.1-.8-.5-.3-.7-.3-1 .3-.6 1.1 0 1.5 1 .5zm-6.3-.1h-.5c-.2 0-.2.1.2.1.2 0 .4 0 .3-.1zm10.1-.4c.3-.2.4-.3.1-.7-.6-1-2-.6-1.4.4.3.6.7.7 1.3.3zm-79-4c.4-.5.7-1.1.7-1.3l.2-.6c.4-.2 1.2-4.6 1.2-6.8l-.4-2.1-1-3.5-1.3-3.5a22.6 22.6 0 0 0-3.3-5.6 93.5 93.5 0 0 0-6.5-5.4c-.7-1-1.1-1-1.5-.2-1 1.7-1.1 5-.5 6.8.6 1.6 1.2 4.4 1.2 5.5 0 .5-.2 1.2-.5 1.7-.4.7-.5 1.7-.7 4.1-.2 4 0 4.8 1 6 .5.5 1.4 1.7 2 2.7l1.7 2.5c.7.6.8.6 1.8.3 1.4-.4 2.5-.4 3.5.2 1 .6 1.4.5 2.4-.8zm-42.3-2c.5-1.1 1-2.3 1-2.7 0-.5.2-1.1.8-1.7.8-.8 2.3-3 2.3-3.4 0 0-.6-.6-1.4-1-2.7-1.8-4.6-4.8-4.3-6.8 0-.6.3-1.5.5-1.9.5-1 .7-6.1.3-6.1-.4 0-1.4 1.3-2.2 2.8-2.4 4.5-5.3 9.9-6.5 11.7-1.3 2-2.3 4.3-2.3 5.4 0 .2.6 1 1.2 1.8 1.5 1.8 3 2.7 5.5 2.9 1.2.1 2 .3 2.3.6.9 1 1.7.5 2.8-1.6zm81.1-.6c0-.3-.2-.5-.4-.5-.3 0-.3 0-.1.5.1.3.3.5.4.5l.1-.5zm37.8-.9.9-2c.6-1.3.4-2-.5-2-.4-.1-.8.2-1.3.8-.7 1-.8 1.3-.3 3.2.3 1.6.7 1.6 1.2 0zM248.1 118c2.8-.1 3.2-.2 3-.7-.2-.2-.4-2.3-.5-4.7-.1-4-.5-8-1.3-12-.1-1-.4-4-.5-6.7a157.6 157.6 0 0 1-.2-14.3c.3-7 .3-10 0-17.3-.1-6-.2-6.2-2.8-8.6a8.7 8.7 0 0 0-3-2.1c-1.9-.6-2.3-.3-1.6 1.2 1 2 1.3 3.6 1.1 6.1-.2 3.2-.3 8.6 0 14.5l.3 7.7a928.9 928.9 0 0 1 .3 30.4 65 65 0 0 1-.3 5.3c-.3 1.7 0 1.9 1.7 1.5a36 36 0 0 1 3.8-.3zm-78-22.8 3.4-1.7c.7-.2 1-.5 1.3-1.7.3-.7.5-1.9.5-2.5 0-.7.2-1.5.4-2 1-1.8 1.3-9.1.5-9.1-.2 0-.4.2-.4.4 0 .6-1.3 2.4-1.8 2.6-.9.3-2.7-.4-3.4-1.2-1.2-1.4-1.2-3 0-4 1-1 2.9-1 4.3 0l1 .9.2-.6c.4-1 0-2.8-.6-3.7-.8-1-1.1-2.3-1-4.8l.1-1.9h-1.5c-1.9.2-3-.6-3.6-2.6-.6-2.1-1.1-2.7-2.3-2.7-.6 0-1 .1-1.1.3 0 .2-.7 1.2-1.5 2.2a24.2 24.2 0 0 1-8.3 7.8c-1.4.7-2.7 2-2.7 2.7 0 .5-.8 2-1.5 2.7-.3.4-.8 1.3-1 2-.6 1.9-1.5 5.8-1.5 6.5 0 .2.4 1 1 1.6.5.6 1.2 1.7 1.5 2.4.4.7 1 1.5 1.5 1.8 1 .6 2.1 1.7 3 3 1 1.3 1.7 1.7 4.5 2.3 5 1 5.4 1 9-.7zm-5-2.1c-2-.2-2.1-1.4-.3-2.5 1.1-.7 1.8-.6 2.8.3.9.8 1 1.3.4 2-.4.4-.8.4-3 .2zm5.4-3.7c-.6-.5-.8-.9-.8-1.7 0-1.6 1.5-2.5 2.4-1.4.5.6 1.3 2.3 1.3 2.8 0 1.1-1.7 1.3-2.9.3zm-6.2-.4c-1.2-1-1.2-1.8 0-2.9 1.2-1 3-1.1 4-.2 1.2 1.1.6 2.7-1.4 3.5-1.3.6-1.4.5-2.6-.4zm-8.5-.9c-.7-.3-1-.5-1-1.2 0-1 1.2-2 2.5-2.3.5 0 1.4-.4 2-.8 1.5-.8 2.2-.5 2.2 1 0 2.8-3 4.5-5.7 3.3zm9-4c-1-1-1.1-2-.5-3 .5-.7 1.4-.7 2.2 0 .6.6 1.2.7 1.5.3.4-.8 2.5 0 2.5 1 0 1.3-2 2.7-4 2.7-.8 0-1.1-.2-1.8-1zm-3.7-4.5c-2-1-2.6-2.5-1.7-4 .3-.5.9-1 1.5-1.1.7-.3 1-.2 2 .3 1.3.7 2.1 2 1.9 3-.3 1-1.5 2.2-2.3 2.2l-1.4-.4zm51.5-13.8c0-4.8.1-5.3.5-5.7.3-.4.3-.4-.2-.4-.8 0-1 .4-1.2 2.6-.4 3.8-.2 6.4.5 6.4.3 0 .4-.6.4-2.9zm-10-13.3a26 26 0 0 0 0-6.9c-1-1-1.5 3.3-.7 5 .4 1 .4 1.3.1 1.7-.4.6-.4 1.3 0 1.7.5.5.5.4.7-1.5zm-9-.3c0-.4-.2-.7-.3-.6-.2.1-.1 1.4.1 1.4l.1-.8zm-3.8-3.8c0-1.9-.1-4.7-.3-6.2-.2-2.3-.2-3 .2-4 .4-1.4 1-1.8 2-1.3.7.4 1 2.7 1 7.6 0 3.5.1 4.3.4 4.3.5 0 .7-2.1 1-9a59 59 0 0 1 .8-10c-.6-.4-7.2 1-8.2 1.8-.5.4-1.4.5-2.8.6-1.2 0-2.6.2-3 .4-1.4.4-3 1.2-3 1.4 0 .2.4.6.8 1 1 .8 1.6 2.2 1.4 3.2 0 .5-.2.9-.4 1-.5.3-.2 2 .5 3.2 1 1.5 2.6 3.2 3.2 3.2.3 0 .9.4 1.4.8.5.5 1 .8 1.2.8.4 0 1 .8 2.6 3l1.2 1.5v-3.3zM182 36.2c-.5-.5-.4-2.1.2-2.5.5-.3 2-.3 2.3 0 .5.6.4 2.4-.2 2.7-.8.4-1.8.3-2.3-.2zm26.1 5.5c.4-.7 0-2-.6-2.1-.4 0-.5.1-.5 1.1 0 1.4.6 3 .7 2.2l.4-1.2zm-.6-8.1.6-1.7c.1-.6.5-1.5.8-2 .8-1.2.7-1.7-.4-1.7-2 0-2 0-2 2.5 0 2 .5 5 .7 4 0-.4.2-.8.3-1.1zm-4-3.4v-1.6l-1.2.2-2 .2h-.7l1.2 1.2 1.7 2 .4.7.3-.6a6 6 0 0 0 .4-2.1zm-166 304.2-1.5-.6-2.3-1c-1.6-.8-2-1-2.4-2-.6-1.4-.5-2.3.4-3.1.6-.5 1.2-.7 3.8-1l7.7-.2h4.6l.6.7c.8 1 .8 1.2.2 3.1-.9 2.9-3.5 4.4-7.6 4.7-2 .1-2.3 0-3.4-.6zm13.7-.3c-.5-.5-.2-1 1.8-2.5 1.8-1.4 2.8-1.7 3.3-1 .4.6-.9 2.2-2.5 3.2-1.4.8-2.2 1-2.6.3zM94 331c-2-.4-3.7-1.2-4.8-2.4-.4-.3-.8-.7-1-.7-.2 0-.5-.3-.8-.6l-.4-.7-1 1a9 9 0 0 1-1.5 1.1c-.7.4-2.1.4-2.3 0l-.7-.2c-.6 0-3.1-2.3-3.6-3.3-.8-1.5-.4-4 .8-5 .8-.6.7-.7-4.4-3.5-1.6-.8-2.2-1.7-1.8-2.6.3-.8 1.1-1 3.5-.8 2.6.2 4.2 1 5.4 2.9 1 1.4 1.1 2.6.6 3.5-.3.6 0 .9 1.7 1.5 1 .4 1.5.8 2 1.5.8 1.1 1.4 1.3 1.4.4s1-1.8 2.1-1.8l2.3.4c1.2.4 1.7.5 3.9.2a10 10 0 0 1 3 0c1.6.5 2.7 2.8 2.7 5.6 0 1.5 0 1.6-1 2.6-1.6 1.3-2.7 1.5-6.1.9zm10.6-3.5c-.4 0-1.1-.5-1.5-.9-1-1-.8-1.8.4-2.5a86 86 0 0 0 1.7-.9l.8-.4-2.3-.2c-4.3-.3-6-1.2-6.2-3.3-.3-2.3 1-3.4 3-2.6 1.4.6 5 .6 6.3.2l3-.8c2.2-.3 2.5-.3 3 0 .9.6 1.1 1.4.7 2.2-.2.4-1.2 1.3-2.3 2.1l-1.9 1.4 1.2.1c1.6.2 2.6 1.2 2.4 2.4-.2 1-1.6 2.2-3 2.7-1.4.4-4 .7-5.3.5zm187.3-1.7c-2-1-2-3 0-3.8 2.2-.9 4.3 0 4.6 2 .1.8 0 1-.7 1.7-1 .8-2.3.9-3.9.1zm-16.9-1.2c-4.7-.6-8-2-8-3.6 0-.7 0-.7-1.7-.6l-3.3.4c-2 .4-3 0-3.7-1.6-1-1.7-2.5-3.4-3.4-3.7-.5-.1-.9-.5-1-.8-.3-1.4 1-1.6 9.4-1.6l8.8.1c1.2.2 2.2.1 3.6-.2 3.6-.7 5.9-.8 7-.2 1.5.7 2 2.4 1 3.3-.4.3-1.5.3-5.2 0-3-.4-4.4-.2-6.5.7-.9.4-1.3.8-1.4 1.2v1c.1.2 2 .5 5.6.7 4 .3 7.8.8 8.2 1.2.4.3.4 1.3 0 2-.3.6-2.3 1.3-4.7 1.7-1.4.3-2.5.2-4.7 0zm-13.8-8.4c.5-.4.5-.4-.4-.6h-1.5c-.5.2-.5.2 0 .6.5.5 1.3.5 2 0zm121.2 7.6c-.8-.6-1.4-1.9-1.8-4.3-.9-4.9 1-8 3.5-6.1 1.7 1.3 2.2 3.4 1.5 6.4-.5 2.5-1.4 4.3-2 4.4a2 2 0 0 1-1.2-.4zm-266.9-9c-.5-.5-.5-.6.1-2 .7-1.5 2.9-3.7 4.2-4.4 2-1 3.6-.6 3.9 1 .3 2-1 3.4-4.4 5-2.1 1-3.2 1-3.8.4zm56.6 0c-.6-.3-1.4-1.4-1.4-2 0-.7 1-1.3 2.7-1.6 1.5-.2 1.9-.2 3 .3 1 .5 1.2.6 1.1 1.4-.1 1.3-1.2 2-3.2 2-1 0-1.9 0-2.2-.2zm-14.8-.5a3.3 3.3 0 0 1-1.2-2.4c0-1.3 1-2 2-1.4 1 .6 1.5 3 .9 3.6-.4.4-1.3.5-1.7.2zm-53-2.4c-1.9-1.3.9-4.6 4-4.6 1.4 0 2.8.8 2.9 1.7 0 1.8-.6 2.4-3.5 3-2.7.4-2.6.4-3.4-.1zm-8.6-2.3-1.9-.7a5 5 0 0 0-1.4-.5c-.5 0-2-.8-2.8-1.6-.9-.8-1-1.9 0-2.8.6-.8 2-1.1 5.3-1.2 1.8 0 3.7-.6 5.1-1.5.5-.3 1.7-.8 2.5-1 2-.5 2.8-1.2 2.3-2-1.1-1.5-1.3-2.9-.6-5.7.8-3 1.9-4.3 3.3-4 .7.2.7.3.6 2.2 0 2.8.6 4 2.4 4.9.9.4 1.3.8 1.4 1.2 0 .8-.6 1.9-1.4 2.3-.6.2-.6.3-.2.6.2.2.7.4 1 .4.8 0 2 1 2 1.7 0 .8-1.6 2.1-3 2.4-1.1.2-2.1 0-4-.6-1.5-.5-1.8-.4-2.3 1.4-.9 3.3-1.2 3.7-3.2 4.4-1.3.5-3.9.6-5.1.1zm22.8-2.8c-2.7-.4-3.9-2.6-2.1-4.2.6-.6.8-.6 2.4-.5 1.6.2 1.8.1 2.6-.5 1.6-1.1 3.2-1.2 4.2-.3 2 1.8 1.7 4.2-.6 5-.6.2-1.1.1-2-.2-1.2-.4-1.3-.4-2 .1-1 .7-1.2.8-2.5.6zm184.5-1.6-2-.5c-2.6-.6-9.8-3.4-11.3-4.4-.9-.6-1-.8-1-1.4.1-1 1.1-1 2.7-.4a37.5 37.5 0 0 0 4.4 1.8l1.5.5 1.8.7a918 918 0 0 0 5 1.8c1.7.5 2.4 1 1.8 1.7-.4.5-1.5.5-3 .2zm-30.7-2.3c-.4-.2-2-.4-3.6-.6-3-.3-3.8-.6-3.8-1.3 0-.7.4-1 2.2-1.6 1.7-.6 4.9-.7 6.1-.3 1 .4 2 1.6 2 2.4 0 1.3-1.5 2-2.9 1.4zm-202-1c-3-1-4.4-2.5-3.8-4.2.4-1.1 1.6-1.8 3.5-1.8 3 0 7.3 1.3 7.9 2.2.7 1.4-.1 3.5-1.6 4-1.3.6-3.9.5-6-.2zm11.1-.7c-1-.3-1.5-.7-1.5-1.5s1.4-2.4 2.9-3c1-.6 1.4-1.6 1.3-3.6-.2-2-.7-3-2.2-4-1.4-1-1.6-1.6-1-2.7.6-1 1.4-1.6 2.8-1.6.9 0 1.2.2 3 2s3.8 4.4 3.8 5c0 0 .6.2 1.4.2 1 0 1.6.1 2.1.5 1.6 1.2.4 3.2-2 3.2a5.3 5.3 0 0 0-4 2.6c-.8 1.5-1.4 2-3.2 2.5-2 .6-2.6.7-3.4.4zm47.2-.2c-1-.1-2.8-2.1-3.2-3.4-.4-1.4-.2-2.2.8-3.2l.8-.8-.6-.3c-.4-.1-.7-.4-.7-.7 0-.5-.5-.5-1 0-.7.6-2.4.6-3.4 0-1-.5-1.4-1-1.4-2.2 0-1 1.2-2.4 2.1-2.4.8 0 2.3 1 3 2.1.4.8.5.8 1 .4.8-.5 2-.5 2.6.1.6.6.7 2 .2 2.3-.1.1.1.5.7 1 .5.4 1 1 1 1.2 0 .2.4.9 1 1.5 1.2 1.3 1.3 1.8.7 3.2-.6 1.3-1.5 1.6-3.6 1.2zm-11.6-1.8c-1.9-.6-2.2-1-2.5-2.8-.2-1-.3-2.3-.2-3 0-1.6 0-1.6-2.6-3-2.4-1.1-2.9-1.8-2.4-3 .6-1.4 2.4-1.5 4.8-.1 1.1.6 2.3 2.4 2.3 3.4l.7 2c.6 1.5 1.3 2.1 2.4 2.2.3 0 1 .2 1.6.5 1.1.5 1.1.5 1.1 1.8 0 1.1 0 1.4-.6 1.9-.9.6-2.8.7-4.6.1zm168-1.9c-1.2-1.2-1.6-1.9-1.4-2.4.4-1.7 3.4 1 3.2 2.8 0 .6-1.2.4-1.9-.4zm56.4.5c-.8 0-1.4-1-1.4-1.9l-.2-1.4a60 60 0 0 1-.4-6.6c-.1-3.2-.3-6.9-.5-8.1a9.5 9.5 0 0 1 0-3.2c.2-.6.4-3 .5-5.5a50.1 50.1 0 0 1 1.1-11.7c.4-2.2 1-3.3 2-3.4 1.3-.1 1.5.6 1.6 7.4 0 3.4.2 7 .4 8 .4 3 .5 17.6 0 20.2l-.5 3.6c-.3 2-1 2.9-2.6 2.6zm-284.1-2.4c-.3-.8.6-1.6 1.4-1.5.8 0 1.1 1 .6 1.7-.5.5-1.8.4-2-.2zm263 .3-1-.7c-.5-.6-1-3.6-1-5.8a106.3 106.3 0 0 0-1.7-13.2 218.7 218.7 0 0 0-1-9.3c0-2 .6-8.6.8-10.1.4-2.3 1.6-5.7 2.2-6.2.6-.6 1.5-.4 1.8.5.3.8.4 3.4.2 6.1-.2 1.7-.1 2.8.2 4.3.2 1.2.4 3 .4 4.3 0 1.2.2 2.8.4 3.6.2.8.4 2.5.4 3.8 0 3 .4 10.7 1 15.4.1 2 .2 3.7 0 4a5 5 0 0 0-.2 1.5c0 .5-.1 1-.3 1.3-.4.5-1.5.8-2.2.5zm69-1.2a25.5 25.5 0 0 1-2.1-9.7c-.3-3-.3-4.8-.1-5.8.7-4 .9-5 .9-6.7 0-7.9-.2-15.3-.4-15.3-.3 0-.5.8-.5 1.9 0 .6-.2 1.3-.6 1.7-1.5 1.9-3.3-.4-3.5-4.4v-1.7l-1.3-.2c-1.7-.3-2.1.2-1.8 2 .3 2.1.2 5.8-.3 7-.7 2-1.6 3-2.9 3.3-1 .3-1.1.3-2.5-.4-2.6-1.4-4.8-4.9-4.8-7.4 0-.5-.2-1-.3-1.2-.3-.4-.2-.5-3.3 3-1 1.1-1.3 1.2-2.5 1.2-.7 0-1.4-.1-1.6-.3-1.7-1.4-2.5-5-2.3-9.6l.2-2.8-.9-.4-2.6-.8c-1-.2-2.8-.9-4-1.4-1.4-.5-3-1-3.6-1-1.8-.2-2.6-.6-3.2-1.5-.4-.7-.8-1-2.2-1.3l-2.6-.8a3 3 0 0 0-2.1 0c-1.8.7-3 .2-4.1-1.5-.8-1.4-1.9-1.6-2.6-.7-1.5 1.9-4 2.6-5.9 1.8-.7-.3-1-.7-1.5-2.1-1.1-2.8-1.3-3.1-2.1-3.4-.9-.3-.8-.4-3 2.5-1.1 1.6-2.3 2.4-3.6 2.4-2.4 0-3.2-1-4-4.9-.2-1.6-.6-3-.7-3.3-.2-.4-3-1.2-3.4-1l-.9 1.8c-.6 1.7-1.7 2.9-2.5 2.9a6 6 0 0 1-3.3-1.2 14 14 0 0 1-2.6-5.2c0-.6-.7-1.1-1.3-1-.6.2-1.4-.2-1.4-.7 0-.4 1.8-1.6 3.1-2 .6-.3 1-.5 1.1-.7a14 14 0 0 0-3.8-3 74 74 0 0 0-5.4-2c-5.8-1.8-6.3-2-6.3-2.7 0-1.2 1.7-1.3 6.2-.5 3 .5 3.7.7 6.6 1.7a35 35 0 0 0 4.1 1.3c.7.1 1.8.4 2.5.7l2.4.7 3.2 1.1c3 1.2 9.7 3.5 13.5 4.7 6 1.8 8.8 2.9 16.5 6.4 3.1 1.5 5.1 2.1 7.5 2.5l4.1 1.1 4.4 1.4c.7.2 1.8.6 2.3 1 .6.4 1.9.8 4 1.2a60.6 60.6 0 0 1 16.5 5.6 84.4 84.4 0 0 0 16.2 8.3l3.3.7 3.4.4c2.8.3 7.1 1.3 7.7 1.8 1.4 1.3-.5 5.7-2.7 6.5-1 .3-1.8.2-3.8-.9-1.6-.8-2-.8-2 0 0 .3-.3.7-.6 1-1.6 1.8-3.3.2-1.7-1.7.6-.7.7-1.6.2-1.6l-1.3-.7c-1-.7-5.9-2.6-6.1-2.4a111.4 111.4 0 0 1 1 23.3c0 12.9-.1 13.4-1.4 13.4-.4 0-.8-.2-1-.4zm-338.8 0c-.4-.4-.2-1.2.2-1.2s1 .9.7 1.1c-.2.3-.7.3-1 0zm16.9-.3a1 1 0 0 1-.3-1c.3-1.4 3.6-7.7 4.2-8.2 1.7-1.5 3.7-6.1 3.1-7.2-.6-1.1.7-3.1 2.3-3.6 2.6-.7 4.8 0 4.8 1.6 0 1.2-2.3 3-3.8 3-.6 0-.6 0-.4.8.1.7 0 1.4-.5 2.7l-1 3c-.2.8-.6 1.5-.8 1.7a51.1 51.1 0 0 1-4.3 5.7c-1.6 2-2.5 2.3-3.3 1.5zM53.9 289c-1-.4-.8-1.4.3-2 .4-.4 1.1-.6 1.5-.6l2-.4 1.3-.3-.1-1.5c-.1-1.8.4-3 1.6-3.5.8-.4 1-.4 1.7 0 1 .5 1.6 1.8 1.8 3.3 0 .6.3 1.3.5 1.6.5.5.6 1.4.1 1.8-.6.5-3.3.7-4.2.3-.7-.3-1-.2-2.6.7-1.9 1-2.9 1.1-4 .6zM34 285.9a21.4 21.4 0 0 1-5-4.8c-.5-1-.7-2.4-.5-3.3.4-1.2 1.2-1.2 2.7.2l3.2 2.4a64 64 0 0 1 3 2c.4.5 1.4 1 2.1 1.3 1 .3 1.3.5 1.4 1 .3 1-.3 1.4-2.4 1.7l-2.4.4c-.3 0-1.2-.3-2-1zm247.4-3.8c-.3-.4-.4-1.2-.4-2.7a266.7 266.7 0 0 1-.5-35.4c.2-3.7.3-4.3.7-5 .3-.3.8-1 1-1.6.4-.9.6-1 1.1-1 1.1.2 1.4 1.1 1.3 3.9 0 2.2-.1 2.5-.8 3.2l-.7.7.3 4.5.3 5c-.1 13.5 0 23.4.2 24.9.4 2.5.3 3.2-.1 3.7-.7.6-1.9.5-2.4-.2zM38 280.3c-1.9-.2-2-.3-2-1.5 0-.7 0-1 .8-1.4 1-.6 2-.6 3.8-.1 1.7.4 2.7 1 3 1.8.6 1.1 0 1.5-2.2 1.5l-3.4-.3zm10.4-2-4-5.5c-1.4-2.4-1.3-4.7.2-4.6.4 0 1 .1 1.2.4.8.6 3 .5 3.6-.2a36.2 36.2 0 0 1 1.6-2l-.8-.9c-.8-.8-1-2.2-.5-2.9.8-.7 3.3-.2 4.2 1 .7.7.7 4.3 0 5.2-.3.3-.5.7-.5.9 0 .5-1.5 2.2-2.3 2.6-1.1.5-1.1.4-.7 4.2.1 1.4 0 1.8-.2 2-.6.4-1.3.3-1.8-.3zm36.8-1.9c-.4-.1-.4-.8-.2-1.5.2-.5 2.6-1.7 3.4-1.7.2 0 .7.2 1 .5.5.4.6.6.3 1.2-.6 1.3-3 2.1-4.5 1.5zm-17.2-1c-1.2-.6-2.2-1.9-2.2-2.8 0-1.7 2.4-3 4-2.3a10 10 0 0 1 3.2 2.2c.6.6.6 1.2.2 2.1-.6 1.2-3.2 1.6-5.2.7zm196-2.5c-.5-.4-.5-.8-.4-1.4l.7-4.7c.6-4 .6-6-.3-13a39 39 0 0 1-.3-3.8c0-.9 0-2-.2-2.6-.2-.6-.3-3.4-.4-6.3a24 24 0 0 0-.5-6.3c-.4-1-.4-1.7-.3-3.8.2-3.8.7-4.7 2.2-4.3.5.2 1.5 2.4 1.8 4 .1.7.3 1 .7 1 .4 0 .8.2 1.1.5.5.5.5.8.2 5.3-.2 2.7-.3 6.4-.3 8.3l-.2 8.6-.2 8.3c-.1 6.8-.4 9.2-1.2 10.1-.8.8-1.7.8-2.4 0zm-231.4 0c-1.8-.6-3.8-2.4-3.8-3.5 0-1.6 1.5-2.3 3.2-1.5 1.7.8 2.7.6 1.7-.3-.5-.4-.5-1.7 0-2 .2-.2.8-.4 1.4-.4h1l-.5-.8c-.7-1.3-.6-2.7.3-3.5 1-.8 1-.8 2-.4.5.2 1 .7 1.5 2l.8 2c0 .5-1 1-2.1 1-1.2 0-1.2 0-.7.4 1.5 1 .7 2.5-1.5 2.7l-1.4.2 1.3.4c2 .7 2.4 2.1.8 3.3-.7.5-3 .8-4 .5zm57.9-2.4c-.5-.5-.4-1.7 0-2 .3-.2.8-.3 1.3-.3 1.8.2 1.5 2.6-.3 2.6-.4 0-.8-.1-1-.3zm-9.2-.5c-.8-.3-1-1-.5-2.4.6-2 1.5-2.7 2.7-2.4.9.2 1.1 1.3.7 2.5-.6 1.8-1.8 2.7-3 2.3zm-16-1.2c-.9-.8 0-2.5 1.3-2.5.8 0 1.6.6 1.6 1.2 0 1.1-2.2 2.1-3 1.3zm6.1-1c-2-1.2-2.1-4.5 0-5.2 1-.4 1.4-.1 2.5 2 1 1.9 1 2 .6 2.7-.3.6-.6.7-1.4.8-.6 0-1.3-.1-1.7-.3zm5.5-.5c-1.1-.8-1.4-3.9-.5-4.5 1.3-1 3 .4 3 2.5 0 2-1.3 3-2.5 2zm18.7-8.5-3.3-1.4-4.4-1.7c-2-.7-2.1-.7-8-.6-3.3 0-6.7 0-7.5-.2-4-.6-8-.8-11-.4-5.8.8-19 .4-20.4-.5-.7-.5-.8-1.3-.1-1.6l2.4-.4 4.5-.5a195 195 0 0 1 14.5-.8l6 .3c5.2.4 7 .4 7 0 0-.3-1.8-1-3.1-1.2-3-.5-4.6-2.3-3.3-3.4.6-.5 4.1-.4 6.5.2a146.7 146.7 0 0 0 5 1.3l2.1.7 3 1c.7.5 1.6.8 2 .8.6 0 2.7.9 6.9 2.8 3 1.4 3.5 1.5 5.2 1.5 1 0 2.5-.2 3.3-.4.8-.3 2.3-.6 3.4-.7l3.4-.6 5.2-.5c2.4-.2 4-.4 4.6-.7 1.3-.6 4.2-.6 5.1 0 1.3.9.9 2.7-.7 3.2-.6.2-1.9 1.4-2.9 2.7-.7 1-1.2 1-6 .5-1.7-.2-3.7-.3-4.6-.2-7.3.4-11.2.7-12 .9-1.2.3-1.5.3-2.8-.1zm319-7.6c-.3-.1-.7-.6-.9-1-.2-.7-.2-.8 1-4.8l.7-2.8c.3-2 .6-7.8.3-7.8a5 5 0 0 0-1.2 1c-1.4 1.4-2.6 1.4-3.8 0-1.1-1.2-1.4-2.2-.9-3 .6-1 2.6-2.5 3.4-2.5.7 0 1.7.8 2 1.6l.2-1c.2-.8 0-2-.2-3.1l-.4-3.2-.3-2.1a140.7 140.7 0 0 1-.2-31.8c.3-2.5.8-9.9 1-15.1 0-4.8.4-5.9 1.5-5.9.3 0 .7.2.8.4.2.1.2 4.1.2 8.8-.1 8.5 0 9.6.7 5.9 1.6-8.5 1.8-19 .6-25.4-.6-3-1.7-10.6-2.2-15-1.2-11.2-1.2-10.8-1.2-25.6a146.5 146.5 0 0 0-1-24.2c.4-.7.6-3.6.7-8.6 0-3 .2-7.8.4-10.6.5-7 .1-20.1-.6-21.3-.1-.2-.7-.6-1.4-.8-1.4-.7-1.6-1.1-.8-2 1.3-1.4 3.8-.5 4.8 1.7.3.6.7 1.1.9 1.1.1 0 .7-.6 1.2-1.3.5-.7 1.8-2 2.9-3 1.7-1.5 2-1.7 2.7-1.5 1 .2 1.6 1.1 1.3 2-.2 1-1.5 2.8-2.8 3.9l-2.2 2c-.6.5-1.5 1-2 1.2l-.8.1.2 2.9c.2 3.3.3 3.6 1.4 3.1 1.4-.7 3.5-.7 6.2-.1 1.5.3 2.9.7 3.1 1 .5.4.7 1.3.3 1.8-.4.6-4.3 3-4.8 3-1 0-.3.4 1.5.9 2.1.5 3.5 1.5 3.5 2.5 0 .4-.1.9-.3 1-.7.6-3 1.2-5 1.3-1.8.2-2.1.1-3.4-.5-2.3-1.2-3.3-.5-1.7 1.1.5.6 1.2.8 3.2 1.1a88.8 88.8 0 0 1 9.2 1.8c.6 0 .8-1.1.4-2.2a62 62 0 0 1 .7-13.8c.7-1 1.6-1.5 2.4-1.3 1.1.4 1.5 1.5 1.6 5l.2 6.8c.1 2 0 4.9-.1 6.6-.2 1.7-.4 6.3-.5 10.3-.2 6.4-.3 7.4-.7 8-.5.8-1.5 1-2 .4-.2-.3-.3-1.6-.4-3.7-.1-4.8 0-4.7-.6-4.7l-1.9.5c-4.7 1.6-5.3 1.6-8.6.4-1.3-.5-1.8-.6-2-.4-.4.4-.7 3.4-.3 3.8.1.1.8 0 1.7-.2 2.9-.7 6.6.1 7 1.6.2 1-.5 1.8-2.4 2.8-1.9.9-2.9 1-5.2.7-1.5-.2-1.5-.2-1.7.4l-.2 2.8c0 1.9.1 2.2.6 2.4.2.2 1.8.3 3.5.3 5.7 0 8.6 1 9.8 3.2.8 1.5.4 2.2-1.6 2.6l-2 .6-2.4.7-2 .6-1.7-.6-2.5-.8c-1.5-.4-1.7-.3-1.7 1.2 0 2.1.3 4 .7 4.5.4.5.4.5 2 0l1.6-.4-.9-.5c-.6-.3-.8-.6-.8-1 0-.6.1-.7 1.3-1 1.7-.2 4.2.5 4.8 1.4.6.9.3 1.7-1.2 3.2-1 1.3-1.3 1.4-2.3 1.4-1.4 0-2.7-.6-3.8-1.6-.8-.8-.8-.8-1-.2l.1 3.1c.2 2.5.2 2.5 1 2.9 1.4.7 1.5 1.1.4 2.2l-.8.7v4.5c0 3.8 0 4.4.4 4.7 1.6 1 1.8 2.1.8 4.1-.5 1-.7 1.6-.7 3 0 2.9.7 9.7 1.5 14.3l.6 5c.1 1.7.4 3 .6 3.2.2.3.4 1.5.5 3.1.5 6.4.7 8.8 1.5 12.5a66.2 66.2 0 0 1-2.7 27.6c-.3 1.1-.4 2.1-.3 2.9.2.8.1 1.3-.2 1.8-.5.8-1.7.9-2.3.2a7.1 7.1 0 0 1-1.6-3.1c0-.4 0-.7-.2-.7s-.3 4.1-.3 11.7l.4 7.3c.8 7.2.5 15.3-.7 18.6-.9 2.6-2.3 3.9-3.6 3.4zm5.2-52.2a39.7 39.7 0 0 0 1.3-11.4c-.2-.2-.4.4-.7 2.6l-.7 4c-.3 2-.5 7.3-.2 5.8l.3-1zm13.6-114.5c.2-.9-.1-2.6-.5-2.6a10 10 0 0 0-3 2c-.3.3-.2.3 1 .8 1.5.5 2.3.5 2.5-.2zm-10.5-.5c.9-.3.6-.8-.8-1.3-1.2-.4-1.7-.1-1.3.9.4.7 1 .8 2 .4zm-.8-14.5c.8 0 1.4-.2 1.3-.3-.2-.3-3.4-2.1-3.7-2.1l-.1 1.3c0 1.5 0 1.5 2.5 1.1zM405 246l-2.6-1.3c-.8-.5-1-.5-1.6-.3-.8.3-2.3.3-3 0l-1.9-1.2c-.6-.4-1.6-1-2.2-1.2l-3.2-1.4-3-1.2c-.5 0-2.1-.6-3.6-1.2l-2.8-1-1.8-.6c-2-.9-6.4-2.3-7-2.3-.4 0-2-.4-5.6-1.6l-2.3-.5c-1 0-1.3-.8-.8-1.7.6-1 .2-1.3-2.7-2a45.1 45.1 0 0 1-7.7-2.5 18 18 0 0 1-2.4-1l-2-.8a34 34 0 0 1-6.6-2.2 82 82 0 0 1-3.7-1.3c-2.2-.8-2.5-1-2.6-1.6 0-.5 0-.7.6-.8h1.4a477.8 477.8 0 0 1 5.4 1.3c1 .4 3.1 1 4.5 1.7l2.2.7 3.5 1.1c3.4 1.3 7.4 2.6 10.3 3.3 2.8.7 3.7 1.4 3.5 2.8-.1.5 0 .7.7 1 1 .4 2 .5 2.3.2 0 0-.3-.6-.9-1.2a5.9 5.9 0 0 1-1.2-1.8 28 28 0 0 1 1-7.3c.3-1 .5-2.4.5-2.9 0-.7.2-1 .6-1 .3-.2.5-.5.5-.7 0-.3 0-2 .2-3.6a41 41 0 0 0-.4-9.7c-.2-1-.2-2-.1-2.2.1-.3 0-1-.3-1.8-.4-1-.4-1.5-.2-2.1l.4-2.2c0-.8.5-2.5.9-3.8.6-2.4.7-2.8.6-6.7-.3-9.7-.2-12.2.7-15.7a9 9 0 0 0 0-4.4c-.2-.4-.3-4-.4-11.5a177.4 177.4 0 0 0-.9-19.7v-1.5l-1-.1-8.2-1.5c-1.6-.2-3.3-.7-3.9-1-.6-.3-2.4-.7-4.2-1-1.8-.2-4.3-.8-5.6-1.2a13 13 0 0 0-3.6-.8c-1.4 0-3.3-.2-3.5-.6-.2-.3-1.4-.2-1.6.1l-.2 3.2c0 2.4-.1 2.9-.6 3.4-.6.6-.9.7-1.6.2-.3-.3-.5-1-.7-2.7a7 7 0 0 0-.5-2.7c-.6-.6-1.2 4.4-.8 7a8 8 0 0 1 0 2.8c-.4 1.4-.3 5.6.2 7 .4 1.2.4 1.5.1 2.6-.2.8-.3 3.4-.4 7.4 0 3.3-.2 6.3-.3 6.7a57 57 0 0 0-.1 10.3c.1.2 1 .7 1.9 1 2.7 1.3 2.6 1 2.6 10.3 0 7.8 0 8-.7 11-.8 3.6-1.4 4.5-2.3 3.8-.5-.3-.6-.6-.5-2.5l.4-4.8c.3-1.5.4-3.4.3-4.7-.1-1.6 0-3 .3-4.6.6-2.9.3-4.6-.5-4.6-.5 0-.6.2-.6 3 0 3.5-.3 4.3-1.8 4.3-.6 0-1 .2-1.2.5-.3.5-.2 5.6.3 11.3a368.5 368.5 0 0 1 .8 11c.3 2.8.2 5.1-.4 11-.6 5.6-.7 7.6-.4 8 .2.3 1.9 1 3.8 1.8a243 243 0 0 1 16.1 6.7 131.7 131.7 0 0 1 6.1 2.6c2.3 1 3.1 2 2.3 3-.5.4-.5.4-2.6-.6a67 67 0 0 0-5.2-2.3 278.4 278.4 0 0 1-13.1-5.2c-.7-.5-5-2-5.9-2-.6 0-.8.1-1 .9-.3.7-.5 1-1 1-.7 0-1-.5-1.2-2l-.5-1.2c-.2-.2-2-.8-4-1.4-4.7-1.5-6-2-6.9-2.8-.9-.9-.9-1.8 0-1.9.7 0 2.2.3 7 1.9 3.6 1 4 1 3.9-1.1 0-.6 0-1.6.2-2.3.2-1.5-.1-2-1.2-2h-1.4c-.5-.2-.8-.1-1.5.4-.8.7-1 .8-2 .5-1.2-.3-3.5-1.4-4.6-2-1.2-.7-4.4-2-5-2a135.2 135.2 0 0 0-13-6c-2.1-.9-2.4-1-2.4-1.9 0-.8 1.2-1.2 2.3-.6l3.4 1.3a68.9 68.9 0 0 1 8 3.7c1 .5 2.4 1.1 3.2 1.3l2 .7c1.4 1 4 1.8 5.7 1.8a94.7 94.7 0 0 1 7 .4c.3-.2.3-9.8-.1-14.6-.4-4.6-.8-5.5-1.4-3-.2 1.3-.4 1.5-.9 1.5-.3 0-.7-.1-.9-.3-.6-.7-.2-7.7.6-8.6.1-.2.5-.4.8-.4.6 0 .6 0 .5-4.1-.1-4 0-4.3.5-5.8a9 9 0 0 0 .7-4.3c0-1.8 0-2.8-.3-3-.4-.3-3.5-1.3-4-1.3-.3 0-1.6-.3-3-.8-2.7-.8-5.7-1.3-6.2-.8-.2.2-.4 1.3-.4 4 0 3.5 0 3.7.4 3.7.7 0 1.4 1 1.4 1.9l.4 2.5c.4 1.4.5 3.4.5 8.7 0 7.6 0 7.7 1.7 9.2 1.3 1.2 1 2-.8 2-.8 0-1.1-.1-2-1a8.7 8.7 0 0 1-1.2-1.8c-.2-.5-.3-2.6-.3-5.8 0-7.6-.1-7.6-.5-7.3-.5.4-1.1 6-.9 7.2.5 2.5.5 3.4 0 4.2-.4.6-.9.8-1.3.8-1.4 0-2-2.5-1.3-5.3l.7-4 .6-4.1a114.4 114.4 0 0 0 .3-15c.2-.8.1-1-.6-1.3l-1.8-.5a50.6 50.6 0 0 0-5.3-1.6l-3.2-1.2c-3.6-1.7-4-1.8-4.5-1.6-1.2.4-1.5 1.4-1.3 3.9a36 36 0 0 1 0 9.9c-.2 1-.4 2.6-.4 3.5 0 2.2.5 7.1.9 8.8.3 1.6 0 4.8-.8 6.4-.4 1-.3 3 .3 5.8.4 2.3-.5 3.8-2.7 3.8-1 0-1.2-.2-1.6-1-.3-.4-.6-1-.6-1.4 0-.6.9-2.4 1.3-2.7.3-.1.8-3.6.8-4.9 0-.5.3-1.7.6-2.6l.6-1.7-.6-4.3c-.6-4.6-.7-7.3-.3-8.8a81 81 0 0 0-.1-14.5c-.5-1.2-.8-1.4-6.7-2.9-2.7-.7-4.5-1.3-5.8-2a8 8 0 0 0-2.2-.7l-2.7-.9c-1.4-.6-1.7-.9-2-1.8-.5-.9-.5-1.1-.2-1.6.5-.7 1.6-.8 2.7-.1a26 26 0 0 0 5.8 1.9c.6 0 2.1.5 3.4 1l3.4 1.1c.6.2 1.5.6 2 1 .5.3 1.2.5 1.6.5h.6V136a257.8 257.8 0 0 0-.5-19.6c0-2-.1-2.1-1-3-.5-.5-1-1.3-1-1.7-.2-.7-.2-.7 1.5-2.2.4-.4.4-.7.3-4-.3-5.2 0-7 1.4-7 1.5 0 2 1.5 1.9 6.4 0 3 0 3.9.5 5 .3.9.8 1.6 1 1.8l5 1a150 150 0 0 1 10.6 1.7l2 .3 3 .6 3.9 1.3a114.6 114.6 0 0 0 5.6 2.4c2.3 1.2 2.4 1 2.1-3-.2-4-.4-17.7-.4-38A275.2 275.2 0 0 0 331 62c0-1 0-1.5.4-2a7 7 0 0 0 1-1.7c.3-1.3 1-1.7 2-1.5 1.4.4 1.5.7 1.5 10.4a919 919 0 0 1-.3 51c-.2 3.4-.1 3.8.3 3.8.2 0 .4-.2.4-.4s.3-.5.7-.7c.5-.3.9-.2 2 .3 1 .3 2.2.6 4 .7 1.3 0 3 .3 3.6.5 2.3.7 5.5 1.5 6.1 1.5.4 0 1.9.2 3.3.6 5 1.2 9.6 2 13.1 2.4l1.8.2V112.8c0-1 .1-3 .3-4.2l.2-2.7-.3-6.6c0-3.2-.3-7.3-.4-9-.2-1.8-.4-5.2-.4-7.6l-.3-10.3c-.2-8 .3-12.6 1.5-13.8.8-.8 1.5-.7 2.1.3.5.8.6 1.1.4 5.1-.3 5.5-.2 9.4.1 15.5l.6 10c.2 5 .5 7.8 1 12.4.2 1.7.2 3 0 4.8a28 28 0 0 0-.1 5c.2 3.2.2 4.1-.3 5.4a49 49 0 0 0-.4 14.1c1 5.7 1.2 12 .6 15.3a95 95 0 0 0 .1 14.9c.2 2 0 2.9-.4 5-.5 2.2-.6 3.8-.7 9.1l.1 7.2c.3.6.3.6.8-.4l1-2.8c.2-.9.5-2 .7-2.3.4-1 1.4-1 1.8-.3.5.9 0 2.6-1.7 7.2-.3 1-1.7 2.6-2.2 2.6-.5 0-.8.6-1.1 2.7-.2 1.3-.2 2 0 2.7.2.6.2 1.2 0 2-.3.9-.3 2 0 5 .3 3.5.3 4.4-.2 8.1a85 85 0 0 0-.5 5.8c0 1.7-.5 2.8-1.4 2.8-.5 0-.4.3.4 1.7 2.3 4 2.9 6.3 2 8.9-.5 1.3-.5 1.5-.1 2.5l.3 1.7c0 .8.3 1.1 1.7 1.5a61 61 0 0 1 6.6 2.2c.6.3 1.9.7 2.7.8l1.9.5a83.5 83.5 0 0 0 11.3 3.4 73.5 73.5 0 0 0 5.3 1.6c.6.3 2 .8 3.2 1.1 2.7.7 3.3 1 3.8 2 .4.6.4.7-.3 1.3-.4.4-1 .7-1.4.7-.3 0-.8.1-1 .3-1 .7-1.7.7-3.4 0zm-33-15.3h-1 1.1zm-54.7-48.9c-.1-.2-.2-.1-.2.2l.1.4v-.6zm14-13.4c.3-.1.5-1.4.8-4 .6-6.5 0-20.9-.9-20.9-.2 0-.4.1-.4.3 0 .3-2.1 1-3.7 1.2-1.5.2-2.3-.3-2.3-1.5 0-1.5 3.4-2.6 5.2-1.7.5.3.8.6.8 1 0 .2.1.5.3.5.2 0 .5-2.2 1-6.1.5-5.3.4-12.3-.2-13.5-.2-.3-.8-.6-1.8-.8-.8-.2-2.6-.9-3.9-1.5a58.2 58.2 0 0 0-16.1-5 51 51 0 0 1-4.1-.5c-7.1-1.2-7.3-1.2-7.6.3v5.5c.2 2.5.3 6.3.2 8.4 0 3.2 0 4 .3 4.5.6.8.6 1.4 0 2.4-.3.5-.6 1.1-.6 1.4l-.1 10c-.2 7.7-.2 10 .1 10.9.4 1.4 1 1.7 2.4 1.4 1-.3 3.4.2 5.1 1l3.2 1.1 2.6 1c.6.5 4.5 1.2 5.4 1 .6 0 1 0 1.3.4.3.2.8.6 1.2.7a42.1 42.1 0 0 0 8.8 2.2c2.2.6 2.5.7 3 .3zm-29.4-9.6a131.2 131.2 0 0 1 0-15c0-.4.3-.5.8-.5 1 0 1.2.9 1.3 5.7.3 7.4-.6 11.3-2 9.8zm22.4-.9c-.2 0-.5-.5-.7-.9-.9-1.6-.2-3.5 1.1-3.4.9.1 1.4 1 1.4 2.7 0 1-.1 1.3-.5 1.5-.6.3-.8.3-1.3.1zm-12.8-3.7c-.5-.6-.6-4.5-.2-7l.3-4.7c0-2.4-.1-3-.6-4-.8-1.6-1.3-2.1-2-2.1-1.7 0-2.6-1.2-1.7-2.1.6-.7 2-.7 3.4-.1 1.4.5 2 1.3 2.6 2.8 1 2.6 1.2 4.2 1 7.8-.5 8.3-.5 8.7-1 9.3-.6.7-1.3.7-1.8.1zm11-1.4c-.5-.6-.6-3.6-.1-5.3.2-.9.4-1 .8-1 .6 0 .6.3.8 2.9.2 3 .2 3.2-.5 3.6-.4.2-.6.2-1-.2zm-21-13.3c-.2-.2-.3-.7-.3-1.1 0-.7.3-1 1.4-2 1-.9 1.7-1.3 2.2-1.3 1.3 0 1.1 1.5-.2 1.8-.6.2-1.2 1-1.4 2.2-.1.5-.3.7-.8.7-.3 0-.7-.1-.9-.3zm17-2.7c-1-.8-.6-1.6 1-1.8 2.2-.4 3.4.6 2.2 1.8-.8.9-2.2.9-3.2 0zm-.2-8c-2.5-.6-3.3-1.3-2.7-2.5.3-.6.4-.6 2.2-.6 3 0 7 .5 8 1 .9.4 1 1.5 0 2-.7.3-5.8.4-7.5 0zM65.3 246c-.5-.7-.5-1 .2-1.2.6-.2 1.3.5 1.2 1 0 .7-.8.8-1.3.2zM50 240.9c-.7-.3-.8-1.3-.2-1.8a11 11 0 0 1 3-.4c5.8-.3 11.5-.7 11.8-.9l4.3-.1c2.2 0 4.3 0 4.7-.2a35 35 0 0 1 5.1-.4c2.5-.1 5.3-.4 6.3-.6l3.8-.5c1.1 0 2.7-.2 3.5-.5 2.5-.7 5.8-1.2 9.2-1.2a95.1 95.1 0 0 1 20.2-.2c2 .8 2.2 3.3.3 4-1.2.5-1.9.6-4.8.2-2-.3-3.6-.3-7.7 0-2.9.1-5.3.4-5.4.4l-7 .3c-6 0-16.5.5-22.8 1.1-9 .8-23 1.3-24.3.8zm346.6-6.5c-.7-.5-.8-1.8 0-2.2 1.4-.8 2.8 0 2.4 1.4-.2 1.2-1.4 1.5-2.4.8zm-42.4-3.4c-3-.9-4.6-1.7-4.7-2.6 0-.8.8-1.6 2-1.6a14 14 0 0 1 6.5 3.2c.6.5.6.8.4 1.2-.3.6-1.6.6-4.2-.2zm-309.8 0c-.2-.2-6.2-.5-15-.8l-4.4-.4-3-.4a60 60 0 0 1-10.7-1.4c-1.2-.5-1.4-1.4-.4-2 1.4-1 8.6-1.2 16.2-.6 2.6.3 9 .6 14.4.7 14.1.4 19.7 1 20.7 2 1.5 2 .1 2.3-11 2.6a102.7 102.7 0 0 0-6.8.3zm343.8-.6-1.1-.3v-.8c0-.9.4-1.2 1.4-1 .3.1 1.3 0 2.1-.1 2.5-.5 4-.3 4.2.5.2.8-.4 1.3-2 1.7a7 7 0 0 1-4.6 0zm-4.9-1.6c-.7-.8-.6-1.7.2-2.6.8-1 2.9-1.8 3.7-1.6 1 .3.8 1.4-.2 2.4l-1.3 1.4c-.6.9-1.7 1-2.4.4zm2.7-7.2c-.9-.4-1-1-.8-4.3.3-5 .6-6 1.7-6 .5 0 1 1.4 1 3 0 .7 0 2.3.2 3.5.3 1.7.3 2.3 0 2.9-.5.8-1.2 1.2-2 .9zm-32.2-.2c-.2 0-.4-.5-.4-1 0-1.7 3.4-4 6.2-4.3.8 0 2-.3 2.6-.7 2.3-1 2.9.2 1 2-2.8 2.5-3.7 3.1-5 3.1a5 5 0 0 0-1.8.4c-.9.4-2.2.7-2.6.5zm23.3-1a4 4 0 0 1 1-3.7c1-1 2.6-1.5 3.2-1 .8.7.5 1.5-.9 2.7-.7.6-1.3 1.3-1.3 1.5 0 .5-1 1.4-1.5 1.4-.2 0-.4-.4-.5-.9zm-361.2-1.2c-1.7-1-2.2-2.6-1-3.7.6-.6 1-.7 2.5-.6 1 0 2 .2 2.4.4 1.8.7.9 3.3-1.4 4.2-1 .3-1.5.3-2.5-.3zm302.6-.3a74 74 0 0 0-6.7-2.4 24 24 0 0 1-8.3-3.7c-1-1-.7-2 .7-2 1 0 4.6 1.3 8 2.9l3.8 1.5 2.6 1.3c2.3 1 2.5 1.3 2.5 2 0 1-.7 1.2-2.6.4zm-248.1-2.3c-.2 0-.3-.4-.3-.8 0-1.7 3.4-4 4.7-3.3.6.4.5 2-.3 3-1 1-3 1.6-4.1 1.1zm265.7-1.5c-.6-.9-.4-1.7.8-2.9.8-.8 1.2-1 2-1 1.4 0 2 .6 2 1.5 0 1.1-.4 1.9-1.5 2.5-1.5.8-2.8.7-3.3 0zm7.5-.3c-.4-.3-.2-1.3.2-1.7.6-.5 1.8-.2 2 .5 0 .3-.1.8-.3 1-.3.4-1.6.5-2 .2zm-290.7-1.2c-.3-.2-.6-.6-.6-.8 0-.4 2.2-2.5 3.3-3l2.2-1.7c2-1.8 3.8-2 3.8-.4 0 1.2-6.4 6.5-8 6.5l-.7-.6zm10.2 0c-.8-.8-.5-2 .8-2.3 1.4-.5 2 0 2 1.4-.2 1.4-2 2-2.8 1zm17.5.1c-.6-.6-.6-1.1-.2-1.6.5-.5 1.7-.4 2.2.2.3.4.3.5 0 1-.3 1-1.4 1-2 .4zm-71.6-.3c-1.5-.3-2-1.4-1.2-2.2.5-.5 3.2-.6 4.2-.2.7.4.9 1.3.3 1.8-.6.4-2.4.8-3.3.6zm36.8-3.4c-.5-.3-.6-.5-.5-1 .3-1.4 1-2 3.3-3.1l3.5-1.8c1.4-.9 2.2-1 2.6-.3.4.9-.5 2.1-3.2 3.8l-1.7 1.3a8.4 8.4 0 0 1-3 1.6c-.3 0-.7-.2-1-.5zm363.4.3v-.6c.2-.3.3-.2.4 0 .2.5-.2 1-.4.6zm-341-.5c-.2-.1-.3-.5-.3-.9s.6-1.1 2-2.4c1-1 2-1.8 2.2-1.8.2 0 1-.7 1.8-1.5 1-1.2 1.5-1.5 2.4-1.6 1-.2 1.2-.1 1.5.5.3.8-.3 2.3-1.3 3l-2 1.5a21.1 21.1 0 0 1-3.8 3c-.9.4-2.3.5-2.6.2zm282.8-1c-.3-.3-.4-.7-.4-.9l.2-.5c0-.2 3-2 3.7-2.2 1.3-.4 2.8 0 3 .9.1.3 0 .9-.1 1.2-.4.8-2.4 1.6-4.4 1.8-1.3 0-1.7 0-2-.3zm54.4-.8c-.5-.8-.5-1 .4-2.4 1.5-2.3 2-3.7 2-6.8.1-2.6.2-2.8 1-3.6l.8-.8-.3-1.8-.8-4.4c-.3-1.3-.5-3.6-.5-4.9 0-2.9-1-6.2-2.3-8.8l-1-2c0-.3-.2-.9-.5-1.4-.6-1-.5-2.1.2-3.6.5-.9.4-2.2-.3-4.5-.7-2.4-.8-5.2-.3-5.7.6-.5 1.5-.2 1.8.5 0 .4.6 2 1.1 3.7 1 3.3 1 3.4.1 6-.2.6-.5 1.5-.5 2-.2 1-.1 1 .7 1.7.6.4 1.1.7 1.4.6.3-.1.8 0 1 .2.4.3.5.8.5 2.8a51.5 51.5 0 0 0 1 9.9c.4 4.8.8 7.3 1.2 10 .2 1.4.4 4 .4 5.5 0 2.6 0 3-.5 3.3-.3.2-.8.3-1.3.2-.8-.1-.8 0-1.5 1.4l-.7 1.9-.6 1c-.7.8-1.9.9-2.5 0zm-43.6-.7c-.1-.3-.1-.6 0-.8.2-.3-.3-.3-1 0-.6.3-.9.3-1.4-.1-.4-.2-.7-.6-.7-.8 0-.6 1.8-2.5 3-3a6 6 0 0 0 1.7-1.5c.8-1 1.6-1.2 2.3-.5.7.8.5 1.9-.5 2.8-.5.5-1 1-1 1.2l1.2.2c.8 0 1.1.1 1.5.7.6.7.7 1.7.2 2l-2.7.2c-2.2 0-2.5 0-2.6-.4zm-328-.2c-.1 0-.3-.4-.3-.7 0-.7.8-1.4 2.9-2.6a74.4 74.4 0 0 0 7.1-5c1.2-1 1.7-1.6 2.2-2.6.5-1.3 1.2-2 2.6-2.4 2.2-.6 2.6 1.1.8 3.5-.7.8-1.5 1.7-2 2l-2.3 1.8a66 66 0 0 1-8.2 5.5c-1 .7-2 .8-2.7.5zm306.6-.3c-2.1-1.2-1.4-2.6 1.6-3l3.3-.3c1.3-.2 1.5-.2 1.8.3.4.8-.3 2-1.3 2.5-.6.4-3.4 1-4.1 1l-1.3-.5zM4 205.3c-2.1-1.5-3.5-3-3.8-4-.2-.8-.1-1 .4-1.6.4-.4 1-.6 1.6-.6.7 0 1.1.2 2.3 1.5L7 203c2.3 1.8 2.1 3.5-.4 3.5-1 0-1.4-.2-2.7-1.2zm381 .4c-.5-1-.9-7.5-.9-15.6 0-5.6.1-6.8.7-8 .3-.5.3-1 .2-1.6-.3-1.4-.3-6.6 0-8.6.4-3 1.8-4.6 4.4-5 2.2-.2 2.3-.5 2-6-.3-4-.3-4.9 0-5.6l.6-1c.2-.1.2-.5.1-1-.2-1 .5-2 1.7-2.5 1.5-.6 2.7-.5 3.7.4.6.5 1.2.8 2.3.9 2 .2 2.9 1.4 2 2.4-.6.5-3 .7-4.5.4-.6-.2-1.6-.4-2.2-.4l-1.1-.2v4.6c.2 5-.2 8-1 9.6-.5.7-.9 1-2.8 1.6-2.7.9-2.7.8-2.4 4.2a12 12 0 0 1 0 3.3 62 62 0 0 1 .2 7.1c.2 5.8.3 5.3-1.4 6.7-.4.3-.4.7-.2 2.8a2782.1 2782.1 0 0 1 1 9.2c.2 1.3.2 1.6-.1 2.3-.3.4-.7.7-1.1.8-.6 0-.8-.1-1.2-.8zM15.1 202c-1-.4-3.4-2.1-4.2-3-.8-.8-1-2.1-.6-2.6.5-.5 1.5-.1 2.8 1l1.7 1.4c1 .4 2.5 2 2.5 2.6 0 .4-.5 1-1 1a8 8 0 0 1-1.2-.4zm328.3-1.4-.4-.8c0-1 3.2-2.3 5.5-2.1 1.3 0 1.5.1 1.6.6 0 .5-1.4 1.8-3 2.4-1 .5-3.2.4-3.7 0zM55.3 199c-1.5-.7-1.7-.9-2.4-2.4-.9-2.1-.9-3.4 0-4.7l1-1.2c.2-.1.1-.3-.2-.6-.6-.7-.5-1.3.2-1.2.4 0 .6.3.6.7 0 .5 0 .6 1.3.5 2.1 0 4 1.1 5 3 .7 1.6.8 2.4.5 3.1l-.6 1.4c-.4 1-1.5 1.8-2.8 2-.8.1-1.4 0-2.6-.6zm13.8.4c-.6-.3-.4-1.4.4-2.3.6-.6 3.8-3 5.1-4 .8-.5 1.9-.4 2.1.3.3 1-.1 1.8-1.1 2.3-.6.3-1.7 1.2-2.5 2-1.2 1.1-2.7 2-3.3 2-.1 0-.5-.1-.7-.3zm284.7-.4c-.5-1 .3-1.9 1.4-1.5.6.2.7 1.1.2 1.6-.5.5-1.5.4-1.6 0zm-318-1.1c-.5-.5-.5-1.3 0-2 .7-1 4.4-7.8 4.8-9 .6-1.7 1.3-2.3 2.7-2.3 1.7 0 2.2 1.5 1.4 4.4-.5 1.9-1 3-2.7 5a15 15 0 0 1-4.5 4c-1 .5-1.2.5-1.8-.1zm312-1.7c-.8-1-.6-2.3.3-2.3 1.2 0 1.7 1.4.8 2.2-.6.5-.7.6-1 .1zm27.3-.2c-.2-.2-.3-1-.4-1.7-.1-1.1 0-1.6.8-3.2l2-3.3c.8-1.3 1.1-1.6 1.7-1.6.5 0 .9.2 1 .4 0 .2-.3 1.3-.8 2.3a25.7 25.7 0 0 0-2.1 5.5c-.2.8-.6 1.5-.7 1.7-.5.3-1.2.2-1.5-.1zm-71.7-1.3c-.7-.3-1.6-1.7-1.8-3-.4-2.6 1.2-3.5 2-1.2.4 1.2.5 1.4 1.6 2.2 1.8 1 .2 2.8-1.8 2zm51.2-1.4c-.5-.8-.6-2.8-.2-3.3 1-.9 1.6 0 1.7 2.3 0 1.3 0 1.5-.5 1.6-.4 0-.8-.2-1-.6zm-335.1-.8c-.2-.2-.3-1.7-.4-3.3 0-2.9 0-3 .6-3.5.8-.7 1.1-.7 2 .3.7.7.8.7 1.3.2.8-.7 1.8-.9 2.3-.4.5.5.6 2.9.2 4.5-.5 1.8-2.4 2.3-2.8.7-.2-1-.8-1-1 0-.2.8-1 1.8-1.6 1.8a1 1 0 0 1-.6-.3zm47.4-1.8c-.7-.2-.8-1.1-.3-2.2s4-4 5-4c.8 0 1.3.5 1.3 1.1 0 .2-.7 1.1-1.6 2.1l-1.6 2c0 .2-1.7 1.3-2 1.3l-.8-.3zm281.4-2.2c-1.1-.9-1.4-1.5-1.6-3.9-.2-1.7-.2-2.9 0-3.8.4-1.8 0-2.7-1.2-3-.5 0-1.6-.6-2.5-1.3-1.3-1-1.6-1.2-1.6-2 0-.4.2-.7.4-.7.7-.1 1.4 0 1.9.5.7.7 2.3 1.2 2.9 1 .4-.2.4-.5.3-2.5a12 12 0 0 1 1.2-6.9c.9-1.8 1.6-2.4 2.4-1.7.8.7.8 1.4 0 2.7-.5 1-.7 2-.9 4-.4 5.3-.3 5.5 2.3 6l3.5 1 4.9 1c1.6 0 3.5.5 4.3.8 1.5.5 1.5.5 1.9 0 .2-.2.4-.9.5-1.4.4-2.6.5-3 1-3.3.3-.2.5-.2.8.2.3.4.4 1 .2 3l-.1 2.6 1 1c1.8 1.7 1.4 3-.8 2.7-.7-.1-1 0-1 .2l-.9 3c0 .4-.5.8-.8 1-1 .4-1.5-.3-1.3-1.9l.3-2.3c.2-1.1.1-1.2-.6-1.3l-2.9-1a37 37 0 0 0-6.6-1.7c-1.2-.2-2.4-.6-2.9-.8-.4-.2-1.2-.4-1.8-.4-1 0-1.1 0-1.3.6-.3.7 0 3.2.5 6.7.1.7 0 1.2-.3 1.6-.5.8-.7.8-1.2.3zm-271-2.3c-1.3-.4-2.3-1.5-2.3-2.5 0-1.1 1-2.2 2-2.2.9 0 2.7 1.8 2.8 2.7 0 .9 0 1.6-.3 1.8-.3.4-1.5.5-2.2.2zm207.1-.5c-.8-.9-.5-1.7 1.6-4 1-1 4.3-2.6 5.5-2.6 1.2 0 1.8.5 1.7 1.5 0 .7-.2.8-1.5 1.1-2 .6-3.7 1.6-5 3.2-1.2 1.5-1.6 1.6-2.3.8zm-226.4-1c-.6-.4-.6-1.2 0-1.8.4-.3.7-.4 1.3-.2.9.3 1 1 .5 1.7-.6.6-1.1.6-1.8.2zm243.2-1.5c-.3-.5-.2-.8.2-1.7.7-1.2 1.3-1.6 3.2-2.2 2.6-.8 3.3-.8 4-.3l1.4.7c.4.1 1.2.6 1.7 1 .7.7.8 1 .7 1.5-.2.7-.6.8-1.3 0-1-1-1.7-1.2-3.3-1a8 8 0 0 0-4.3 1.8c-1.2 1-2 1-2.3.2zm-235-3.6c-.8-.4-1.3-1.8-1.2-2.7.4-2 .8-2.8 1.6-3.9 1.2-1.5 2.2-2.1 3.5-2.1 1.9 0 3.5 2.2 3.1 4.3-.2 1.2-2.5 3.8-3.7 4.3-1 .4-2.6.5-3.3.1zm-47.1-.3c-.3-.1-.5-.5-.5-.9 0-.5.2-.7 1-.9 1.3-.3 2.5 0 2.5.7 0 1-1.9 1.8-3 1.1zm263.3-.9-.2-1c0-.8 1.3-2.7 2.3-3.5 1-.8 1.3-.9 2.7-.9 1.8 0 2.7.3 3 1 .3.6-.1 1.1-1.3 1.4-1.7.4-2.3.8-3.7 2.3-1.5 1.6-2.4 1.8-2.8.7zm-238.8-.7c-2.6-1.1-3.3-2.5-1.7-3.1 1.8-.7 4.8.8 4.8 2.4 0 .5-.2.8-.5 1-.7.4-1 .4-2.6-.3zm11.1-1.4c-.8-.3-1.1-.7-1.1-1.4 0-1.4 2.3-2.2 3.2-1.1.6.6.6 1.2-.2 2-.6.6-.9.7-1.9.5zm-4.4-1.4c-.4-.4-.2-1.6.4-1.9 1.2-.6 2.3.6 1.4 1.6-.5.5-1.5.7-1.8.3zm346.3-2.5c-.5-.4-.5-1-.5-3 0-1.5 0-3 .2-3.3.2-.8 1-1.2 1.6-.8.5.4.8 6.8.4 7.3-.5.6-1.2.5-1.7-.2zM43 172.1a5.3 5.3 0 0 1-3.9-2.8c-.6-1.3-.4-2.2.5-3 .6-.6 1.5-.6 4.6 0 1.8.3 2.6.9 3.1 2 .6 1.5.5 2.8-.3 3.5-.8.6-1.6.7-4 .3zm9.6-1c-.3-.2-.5-.6-.5-.8 0-.5 4.4-5.5 5.2-6h1c.8.3.6 1.5-.5 3-2.9 3.7-4.3 4.8-5.2 3.9zm256.3-.5c-1.2-.7-2.5-.8-4.1-.2-2.7.8-3.4.8-3.4-.3 0-.6.7-1.3 2.5-2 2.8-1.4 8.3.7 7.2 2.7-.3.7-1 .6-2.2-.2zm99.4.2c-.2-.3-.3-.8-.3-1.1 0-.8 1-7.5 1.3-8.8.5-1.5 1.9-2 2.4-.6.2.7 0 3.3-.5 5l-.5 2.6c-.3 1.6-.5 2.3-1 3-.6.6-1 .5-1.4-.1zm-319.8-2.1c-1.1-.5-1.8-2.4-1.2-3.5 1-1.9 4.3-1.3 4.3.8 0 .9-.9 2.3-1.5 2.6-.8.4-.9.4-1.6 0zm311.9-.3c-.6-.3-.9-1.9-.7-3.3.3-2.7 1-3.8 2-3.3.4.2.5.7.5 2.8 0 3.3-.6 4.6-1.8 3.8zm-36.5-4.1c-.6-.7-1.1-1.4-1.1-1.6 0-.4-.4-.5-2-.8-.6-.1-1.2 0-2.1.4-1.3.6-2 .6-7.5.1-2.7-.2-3-.8-1.6-2.7l.8-1.2-.3-2c-.1-1-.4-2.8-.7-3.8-.3-1.5-.3-2 0-2.5.3-.9 1-1 1.7-.4.8.6 1.6 4 1.8 7.4l.1 2.5 2.7-.2c2-.1 3.4 0 5.3.3 1.4.2 2.7.4 3 .3.6-.3 1.6 1 2 2.5.7 2.7-.3 3.5-2 1.7zm-336.7-.4c-.8-.4-1-2.8-.9-7.7l.3-15.6c.2-11.8.5-18.7 1-19.6.4-.8 1.5-.6 1.8.2.1.4.2 1 .1 1.2-.3.8-.2 14 .1 15 .4 1.3.2 21.3-.2 23.3-.6 2.8-1.2 3.7-2.2 3.2zm74.3-.4c-.7-.7-.8-1-.7-2.1.2-2 3.5-1.2 3.5.9 0 1-.4 1.5-1.4 1.7-.6.2-.9 0-1.4-.5zm-58-1c-.8-1-1.3-2.7-1.1-3.8.1-.7 1.5-.8 2.1-.2.8 1 1.8 3.3 1.8 4-.1.6-.3.8-1 .8-1 .1-1.2 0-1.9-.9zM75 161l-.7-2c-.4-1.7-.6-10.7-.4-16.2a1188.1 1188.1 0 0 0 .6-18.1c.2-.8 1.6-1.4 2.3-1 1.3.6 1.8 4.1 1.5 9.5-.4 6.3-.5 13-.2 16.2.3 3.5 0 9.8-.6 11.4-.4.9-.5 1-1.3 1.1-.7 0-.8 0-1.2-1zm-12.8-1.5c-.4-.5-1-3.7-1.2-6-.2-3.2-.2-10.2.1-13.9.2-1.9.4-5.9.4-8.8.1-3.6.3-5.6.5-6.1.4-.8 1.6-1.3 2.3-1 1 .7 1.7 6.2 1.4 10l-.2 4.8c-.1 3-.3 6-.7 7.8l-.2 6.9c0 4.5 0 5.4-.4 6-.5.7-1.5.9-2 .3zM364 157a13 13 0 0 1-.3-3c0-1.5 0-3.2-.2-4-.2-1-.1-1.2.5-1.5.8-.3 1.3-.2 1.9.7.7 1 .6 6.4-.1 7.3-.6.7-1.5 1-1.8.5zm-313.2-2.3c-.6-.6-.6.8-.4-13 0-3.9.1-5.7.4-6.4.3-.8.5-3.4 1-11 .3-3.3.7-4.3 1.8-4.5.6-.1 1-.4 1.3-1.2 1-2 2-2.6 2.6-1.5.2.4.2.9-.1 1.9-.8 2.4-.8 2.5-1.8 2.7-1 .2-1 .2-1 1.3l-.1 1.3-.3 8.6a135.1 135.1 0 0 1-1 17.5c-.2 1.7-.3 3.4-.5 3.8-.3.9-1.1 1-1.9.5zm288.3 0c-1.8-.2-2.1-2.2-.5-2.6l.8-.3.2-2.3c.3-3 .6-3.7 1.7-3.7 1.2 0 1.4.8 1.2 4.2a44 44 0 0 1-.4 3.5c-.1.6-1.4 1.5-2 1.4l-1-.2zm65.8-1.3-2.5-1.8c-1-.8-4.8-1.5-7.8-1.5-2.2 0-2.8-.3-2.5-1.3.5-1.4 4.5-1.7 8.8-.7 4.7 1.2 6.5 2.1 7.3 3.6.6 1.1.5 2-.2 2.5-.9.7-1.3.5-3-.8zm-388.5-2.1c-.3-.4-.5-1.5-.8-4l-.6-5.2c-.2-2-.3-9 0-9.2 0-.1.8-.3 1.7-.4 1.4-.1 1.6 0 1.9.4.2.3.1 2.4-.1 6.5-.3 3.4-.4 7.2-.3 8.5.2 2.5-.1 3.6-1 3.8l-.8-.4zm69.7-.7c-.8-1-1-1.3-.9-2.6a26.4 26.4 0 0 0 .4-11.2c-.3-.7-.3-1 0-1.4.2-.2.4-1.3.5-3 .2-3 .8-4.6 2-4.7.3 0 .8 0 1 .2.7.5 1 2.6 1 5.6.1 3 0 4.3-.5 11.9-.5 6.1-1.6 7.7-3.5 5.2zm267.4-1.4c-1-.5-.9-1.3.2-2 .7-.6.8-.6 1.4-.2 1 .5 1.1 1.6.3 2.2-.7.5-1 .5-1.9 0zm5.2-1.7c-.2-.2-.2-.6 0-1.1l.1-.9-3-.3c-2.7-.2-2.9-.3-3-.8-.1-1.1 1-1.3 6-1 3.7.2 4.9.6 5.2 1.6.3 1.1-.3 1.7-2.2 2.2-2 .6-2.7.7-3.1.3zm-322.1-.7c-.4-1-.4-17.5 0-22.4.2-3.5.2-3.5.8-3.6 1.4-.1 1.4-.1 1.4 12.2 0 11.2-.2 13.1-.6 14-.4.8-1.3.6-1.6-.2zm249.3-8.9c-.8-.4-1-1.4-.4-2.1 1-1 6.2-1 7.3.2.5.5.3 1.4-.4 1.8-.7.4-5.7.5-6.5.1zm103.4-5.6c-.5-.3-2.3-1-4-1.5-3.5-1.2-5-1.8-5.4-2.4-.6-.7-.7-1.5-.2-2 1-1 10.7 0 13.1 1.4a4 4 0 0 1 1.4 1.5c.4.8.4 1.1.1 2l-.5 1c-.6.4-3.6.4-4.5 0zm-47.3-4.4c0-.6.6-.7.8-.1.2.4 0 .7-.5.7-.2 0-.3-.3-.3-.6zm-243.5-6c-1.3-1-1.3-4.9 0-6a2 2 0 0 1 3 0c1 1 1 1.7.7 3.5-.5 2.5-2.2 3.6-3.7 2.4zm170.6-1c-.5-.5-.8-2.7-.7-6.2.1-2.5.2-3 .7-3.5.7-.7 1.5-.5 1.9.5.2.3.4 1.7.5 3 .3 4.7-.9 7.7-2.4 6.2zm133.6-.5v-.7c.3-.2.3-.2.4 0 .1.3 0 .6 0 .8-.2.2-.3.2-.4 0zm-286.6-.1c-1.3-.6-1.6-2.8-.5-3.7 2.1-1.7 4.8 1 3 3-.7.7-1.7 1-2.5.7zm-26-1c-1.5-1.2-3-3.2-3.1-4.2-.1-.7 0-1 .5-1.6.6-.5 1-.7 2.1-.7.8 0 1.5.2 1.7.3.1.1.5.3.9.3.8.1 2.4 2.1 2.4 3.2 0 1-.8 2.8-1.4 3.1-.9.5-2.3.3-3-.4zm-18.7-.8c-.7-.6-.7-.8-.6-2.4.1-1.1.4-2 .7-2.5 1-1.2 2.5-.8 2.9.7.3 1.2-.2 3.4-.9 4.2-.8.9-1.3.9-2.1 0zm36 .4c-1.6-.5-2.1-1.6-1.3-3.2.7-1.4 2.5-1.3 3.5.2.4.7.5 2.4.1 2.8-.3.3-1.5.5-2.3.2zm-28.7-.5c-1.1-1-.4-4 1-4.4 1.5-.4 2.7 1.2 2.3 3.2-.3 1.6-2.2 2.3-3.3 1.2zM62 116.9c-.4-.5 0-1.7 1.2-3 1.6-1.8 3.7-2.2 4.8-1 1.2 1.4.6 2.7-1.4 3-.5 0-1.5.4-2 .7-1.2.8-2 1-2.6.3zm-33-.6c-.7-1.3 0-2.6 1.1-2.3.8.2 1.1 1 .6 2-.4.9-1.3 1-1.7.3zm257.8-5a28 28 0 0 1-7-2.5c-.9-.6-1-1.4-.5-2.2.7-1 4.4-.5 8.3 1 2.6 1 3.6 2.5 2.2 3.5-.7.4-1 .5-3 .2zm56.2-1c0-.3.1-.4.2-.2v.6c-.1 0-.2-.1-.2-.4zm53.4 0c-2-1.1-1.5-3.6.9-4 .7 0 1 0 1.6.5 1 1 1 2.1 0 3.2-.7.8-1.4.9-2.5.3zm-347.6-1.2c-.3-.3-.5-.7-.5-.9 0-.7 1-1.4 2.1-1.6l6.5-1c2-.5 4.3-.8 7.6-1.2 1.2-.2 5-.3 8.4-.3 4.4 0 7-.1 8.6-.4 3-.5 4-.5 4.5 0s.3 1.3-.6 1.7c-.3.2-1.4.4-2.4.6l-2 .4-4 .4a231.2 231.2 0 0 0-25.7 2.9c-1.6 0-2-.1-2.5-.6zm299.9-.6c-2.2-1-2.5-2-1.2-3.4.7-.6 1-.7 2.4-.7 1.5 0 2.9.6 3.5 1.6.7 1-1.1 3.1-2.7 3.1-.4 0-1.3-.3-2-.6zm-77.7-4c-.9-.4-1.3-1.9-1.6-6l-.5-5.9-.4-8c0-3.2-.3-7.7-.4-10-.3-4.2-.3-14.9 0-15.3l.2-11.5c0-14.8.2-16.4 1.7-17.1.7-.4.8-.3 1.6.2 1.1.8 2.2 2.8 3.3 6.2 1 3.6 1.4 6 1.5 11.2.1 5-.2 13.6-.6 15.7l-.4 6.8-.3 7.1a528.2 528.2 0 0 1-1.5 22.8c-.1 3-1.1 4.6-2.6 3.8zm1.4-44c0-.2-.1-.3-.2-.2l-.5.5c-.1.1 0 .2.2.2.3 0 .5-.2.5-.5zm-205 40.2c-.7-.3-.8-1.1-.2-1.7.2-.2 1.3-.5 2.5-.7l4.2-.7a106.6 106.6 0 0 1 9.2-1.4c.3-.2 1.9-.5 3.4-.7l4.5-.8a17 17 0 0 1 5.1-.2c4 .2 4.8.4 4.8 1.6 0 1.1-.7 1.6-2.6 1.7a221.4 221.4 0 0 0-16.7 2l-5.7.5c-6.2.6-7.9.7-8.5.4zm227.5-14.4c-1.2-1.5-1.3-2.5-.8-7 .2-1.6.2-3.1.1-3.4 0-.3-.4-.4-1.3-.3-1 0-1.4-.1-2-.7-1.5-1.5-.8-2.6 1.8-3l1.8-.2.1-1.6c.3-2.5.5-5.1.8-10.4.4-6.7.8-8 2.3-7.4 1 .4 1 1.3 1 10.6-.2 16.2-.7 22-1.9 23.2-.5.6-1.5.7-1.9.2zM127 83a4 4 0 0 1-1-.6c-.3-.3-1.4-.8-2.4-1-2.1-.5-2.3-.8-1.4-2.7.5-1.1.6-1.4.3-2-.5-.8-.2-1.4 1-1.9 2-.8 4 .2 5.3 2.7.5 1 .5 1.3.2 3-.3 2.3-.9 3-2 2.5zm267.6-1.5-3.5-.2c-1.4 0-6-1-6.8-1.6-2.2-1.2-1-3.1 2-3.1a115.5 115.5 0 0 0 11 2.3c1.6.3 1.9 2.3.3 2.8-.2 0-1.6 0-3-.2zM361 80.1l-2.3-.8c-1.7-1-10.3-3.2-12-3.2-1.6 0-5-1.3-5.5-2-.5-.9-.2-1.6.8-2.2 1.1-.6 5.2-.6 8.6 0l3.4.2c2.2-.2 3.7 0 5.3.5 1 .3 2.3.6 3 .6 2.9 0 5 1.4 5.6 3.7.3 1.2.3 1.3-.2 2-1.2 1.7-3.4 2-6.7 1.2zm-245.2-5.4c-.5-.2-1.1-.5-1.5-.5-.7 0-1.5-.6-2.4-1.8-.8-1.1-1-3.3-.2-3.6.8-.3 1.4-.1 2.7 1 .7.7 1.6 1.2 2 1.2.7 0 2.5 1 3.1 2 .7.8.4 1.7-.6 1.9l-1.5.2c-.5.1-1 0-1.6-.4zM315 71.4l-4.6-1.5c-4.5-1.5-5.5-2-5-3.1.2-1 1.5-1.2 3.7-.8l3.8.6c4.4.6 7.5 2.1 7.5 3.6 0 .2-.2.5-.5.8-.4.5-.9.6-2.5.5l-2.4-.1zm-28.8-3.5c-.6-.2-1.8-.3-2.6-.3-2.7 0-4.1-1-3.4-2.4.5-1 2-1.2 5.6-.8 2.5.2 3.3.4 4 .8 2 1.5-.4 3.4-3.6 2.7zm5.6-7.2c-.2-.1-.6-.6-.7-1.1-.4-1.2-.7-9.7-.3-10.6.5-1.5 1.5-1.8 2.7-.8.4.4.5.9.3 6.2-.1 4.5-.3 5.8-.6 6.1-.4.5-.8.6-1.4.2zM428.3 57c-1-.6-1.5-1.5-1.3-2.4.2-.9 2.2-2.9 2.8-2.9 1.2 0 2.3.8 2.6 1.7.4 1.1.1 1.9-1 3.2-1.1 1-1.9 1.2-3.1.4zm-274-3.6h.5c.1.1 0 .2-.3.2s-.4-.1-.2-.2zm277.4-3.6c-.1-.5.1-1 .6-1 .3 0 .4.3.4.7 0 .7-.7 1-1 .3zm1.8-1.8c-.5-.2-1.2-.9-1.5-1.4l-.5-1 .7-1.4c.6-1.2 1-1.5 2.4-2.3 2-1 4.1-1.5 5.3-1 .7.2 1.5 1.4 1.5 2.3 0 .6-1 1.5-1.8 1.8-.4 0-1.4 1-2.3 1.9-1.9 1.8-2.3 2-3.8 1.1zm-15.6 0c-.4 0-1.3-.5-1.9-.9-1-.7-1.1-.7-4-.6-1.6 0-4.5 0-6.4-.2-5.6-.3-8.2-1.2-8.2-2.9 0-1.8 2.3-2.4 6-1.6l7.5.7a83.8 83.8 0 0 1 7.8.5c1.2 0 2.9.2 3.7.4.8.2 2 .4 3 .4 1.7 0 2.4.5 2.2 1.7 0 .7-.3 1-1.3 1.4-1.8.8-6.8 1.5-8.4 1.1zM372 43c-.3-.2-3.3-.8-4.4-.7a380.9 380.9 0 0 1-30.8-1.4 279 279 0 0 0-11.1-.4c-4.6 0-7.6-.2-9.7-.5a886.4 886.4 0 0 0-31-4.1l-1.8-.6c-.6 0-1.3-1.2-1.3-2.1 0-.4.3-.7 1-1l1-.4-1.2-.3c-.7 0-1.5-.3-1.9-.4-.8-.4-1.8-1.8-1.6-2.4.2-1 1.2-1.2 3.4-.8l4.2.5a50 50 0 0 0 11 1.6l3.5.3a314.1 314.1 0 0 0 19 1.6c1.3.1 4.3.3 7 .3 4.7 0 5.7.1 5.7.9 0 .6-1 .9-3.5 1-1.5 0-3 0-3.6.3l-1.7.4c-2.8.2 10.5 1 19.7 1.2l6.1.4 5.4.2 5.5.3 8.4.7a50.2 50.2 0 0 1 10.5 1.7c1.6.3 2.9 1.2 2.9 2 0 .3-.2.9-.5 1.3l-.6.6H377a78 78 0 0 1-4.9-.1zm-49.6-8.2c0-.2-2.2-.6-2.4-.4 0 .1 0 .3.3.4.5.3 2 .3 2 0zm-18.3-.7c.6-.6 0-.8-3-1-3-.2-4.2 0-4 .6 0 .5 1.2.6 4.8.7 1.4 0 2 0 2.2-.3zm-52.7 5.6c-.9-.5-2-2.7-2-4 0-1.8 1.8-6.1 3-7.2l.8-.5-.5-.9c-.4-.7-.4-1-.2-1.6.5-1.1 1.7-1.7 2.6-1.3l.6.6.6.2c.5 0 .7-.2.8-.8.1-.5.3-.8.7-.8.6 0 1.5 1 1.7 1.9.4 1.7-.7 2.6-3 2.6-.7 0-1.3.1-1.3.3l1.3 1.5 1.3 1.4v2.4c0 2.8-.4 4.2-1.6 5.6-.8 1-.9 1-2.4 1-1 0-2-.2-2.4-.4zm129.2-2.3a184.4 184.4 0 0 0-8.7-.7c-.3-.2-2-.4-3.8-.6a420.8 420.8 0 0 1-10-.9l-6.2-.5-7.6-.4c-3.5 0-7-.5-7.6-1-.8-.7 0-1 3.2-1a422 422 0 0 1 34.7 1.7c8 .5 10.8.9 11.3 1.6.2.4-.2 1.6-.6 1.9-.4.2-1.5.2-4.7 0zm60-2.4-.5-1.2c0-.2-.9-1.2-2-2.2-1.7-1.7-1.8-1.9-1.8-3 0-1 .2-1.4 1-2.4 1.4-1.7 1.7-2 2.5-2l1.6-.3c1.5-.6 1.7-.2 2 3.5.5 4.8.5 6.4 0 7.1-1 1.6-2 1.7-2.8.5zm-20-2c-.8-.8-.8-1 .2-3 .7-1.4.8-1.8.7-2.9-.1-.7-.4-1.5-.7-1.7l-1.2-1.7c-.9-1.4-.8-2.5.4-4 .7-.9 1-1 1.8-1 1.4 0 1.8.5 1.8 2.6 0 1.6 0 2 .8 3a6.4 6.4 0 0 1 1.3 4.9c-.2 2-.7 3.1-2 4-1.1.7-2.2.7-3-.1zm-86.2 0 .3-.3.2.4c.1.2 0 .4-.2.4-.3 0-.3-.2-.3-.4zm72.8-.4c-2.8-.6-3-.7-3.6-1.7-1.1-1.8-2.7-3.5-3.9-4.2-1.6-1-2-.8-2 1.2 0 .9 0 1.9-.2 2.2-.3.9-1.4 1.2-2.3.7-1.1-.6-1.4-2-1.1-4.7.1-1.2.2-2.3 0-2.5v-4.4c0-4 0-4.1.7-4.7.8-.8 1.3-.8 2.1 0 .7.7.7.8.5 3.3-.2 3.7.1 4.3 1.1 2.1 1.2-2.5 3-3.7 4-2.6.5.5.6.8.4 1.8 0 .7-.2 1.4-.3 1.7-.2.2-.3.9-.4 1.4-.2 1-.1 1.2 1.4 2.8.8 1 1.6 1.7 1.7 1.6l.4-2.4.7-3.4c.2-.7.4-1.8.4-2.6 0-1.2 0-1.5.6-2 .9-1 1.4-.9 2 0 .3.6.4 1.4.4 5.7 0 3 .2 5.8.4 6.8.3 1.5.3 1.9 0 2.7-.5 1.1-1.5 1.5-3 1.2zm5.6-1.6c-.7-1-.7-1.2-.6-6.8v-5.6l.7-.6c1-.8 4-.8 5 0 1.8 1.3 1.2 2.9-1.1 3.4-1 .2-1 .6.2 1.6.8.8 1 1 .8 1.8 0 .7-.2 1-1 1.2-1 .5-1 1.2 0 1.8 1.8 1 1.6 2.4-.6 3.6-2 1-2.6 1-3.4-.4zm-34.7-.9c-1.7-.4-2.7-3-2.4-5.9l.3-3.5c.2-1.1.4-1.9.6-2 .3-.2-.4-.3-1.8-.2-2 0-2.4 0-3.1-.6-1.1-.8-1.4-1.3-1.2-2 .3-.6.4-.7 2.1-.7 1.2 0 2-.1 2.1-.3a4 4 0 0 1 1.4-.8c1.6-.5 2.4-2 2-3.2-.3-.7-2.3-1.6-3.6-1.6-.6 0-1.5-.1-1.9-.3-.5-.3-1-.4-1.7-.3-.8.2-1 0-2-.9-1.4-1.3-2.3-1.4-2.5-.3a65.2 65.2 0 0 0 1.1 14c.1 2.5.1 3-.4 3.9l-.5 1.3c0 .2-.3.6-.6 1-1 1.1-2.1 1-3.3-.1-.9-.9-1-1-1-2.4 0-.8.2-1.8.3-2.2.2-.4.3-1.7.3-3 0-1.5.2-2.4.5-3.3.7-1.4.9-3.1 1-7.2V6.3h-.7c-.4 0-1.2.1-1.7.4-2.7 1.4-4.4 1.3-4.4-.2 0-1.2 1.1-2.3 3.4-3.2 1.8-.8 2.3-.9 4.1-.9 1.2 0 2.6.2 3.3.5a350.5 350.5 0 0 0 6.3 2l1.3.5c1.5.5 3 1.4 4.6 2.7 2.8 2.5 3.5 4.3 2.4 6.8-.7 1.6-2.2 3-3.4 3-1.2 0-1.3.4-.4 1.4.5.5 1.1 1.6 1.5 2.5l.7 1.7c.4.5 1.4 3.6 1.4 4.3 0 1-1.3 2.2-2.5 2.3a6 6 0 0 1-1.6 0zm8.7-.5c-1.2-.6-2.5-2-3-3-.1-.5-.3-1.6-.3-2.5 0-1.4.1-2 1-3.8 1.2-2.2 3-4.3 4-4.3.8 0 1.6.8 1.6 1.6 0 .4-.1.8-.3 1l-.9 1-1.3 2c-.5.7-.6 1.2-.7 2.4 0 1.3.1 1.6.7 2l1.2.6c.8 0 1.6.8 1.6 1.6 0 1.4-2 2.2-3.6 1.4zm-113.2-.1a6 6 0 0 1-3-1.6c-.6-.7-1-.7-1.5 0-.2.3-.8.7-1.2.8-1.9.5-3.5-1.5-2.1-2.5.8-.5 1.6-.5 2.8 0l1 .4.4-1.3c.3-.9.7-1.3 1.2-1.6l.8-.4-.6-.5c-1.3-1-.4-2 3-3a29.6 29.6 0 0 1 6.3-2l1-.2c.3 0 1-.1 1.4-.3.7-.2.7-.3.6-1.5-.3-2-1-2.1-2-.1-.3.5-.7 1-1 1.1-.5.2-.8 0-1.8-1.2a6 6 0 0 1-1.2-2c0-.2-.4-1.3-.9-2.3a6.9 6.9 0 0 1-.8-3.7c0-1.5.1-2.1.5-2.7l.7-1.4c.3-1 1.9-2.3 3-2.3.8 0 1.2.2 2 1.1a7.2 7.2 0 0 1 1.7 7.1c-.6 1.8-.4 2.4.6 2.6.3 0 1 .5 1.5 1 .7.7.9 1 1 2.7.2 2.4 0 3.7-1.4 6.3-1.2 2.6-2.7 3.9-4.3 4-1.4 0-2.3.4-3 1.1-.6.8-2.5 2-3.3 2.4a3 3 0 0 1-1.4 0zm69.2-1.1c-.6-.6-1.4-1.8-1.7-2.7-.4-.8-.8-1.5-1-1.5-.2 0-.5.4-.7.8-1 1.7-1.7 2.4-2.4 2.3-1.2-.1-1.5-1.2-1.5-4.6v-3c-.2 0-.4.2-.5.4-.2.2-.8.6-1.4.8-.9.3-1 .5-1.1 1.2 0 .5.1 1 .4 1.6.8 1 .7 1.6-.5 3.1-1.9 2.5-2.8 1.8-3.6-2.8l-.4-2.2H327c-1 0-1.5-.1-2-.6-1-1.1-.4-2 1.3-2l1.6.1c.4.1.5 0 .6-1.8a11 11 0 0 1 1.7-5.4c.6-.7.8-.9 1.8-.9 1.1 0 2.3.6 3 1.5.3.5.3.5.8 0l.9-.4 1.2-.5c1.4-1 2.5-.7 4.6 1.1 1.6 1.5 2.1 2.4 2.1 3.9 0 1.2-.8 3.5-1.4 3.9-.3.2-.2 1.5.2 2.6l1.6 2.3c1.4 1.4 1.5 2.4.6 3.3-1 .9-1.6.7-2.8-.5zm-7-9.4c.4-1.3-.2-5.7-.8-4.8 0 .2-.8.4-1.6.5-1.3.1-1.4.1-1.5 1 0 1 .3 1.5 1.8 2.2.7.3 1.2.7 1.3 1 .2.7.5.7.7.1zm4.7-2.8c.1-.1 0-.4-.1-.5-.2-.2-.3-.5-.3-.8 0-.3-.1-.5-.3-.5-.2 0-.2.3-.1.6l.1 1c0 .6.4.7.7.2zm-28.3 11.6-.3-2.9a16 16 0 0 0-.4-2.8c0-.2-.4.3-.9 1.4-1.6 3.9-4.3 4.3-4.8.7l-.4-2.6c-.3-1.3-.3-1.4-.6-.8l-.8 2c-.5 1.6-1.4 2.3-2.1 1.7-.4-.3-.4-.8-.3-2.7a15 15 0 0 0 0-3c-.2-.8-1.1-1.3-2.8-1.6l-1.2-.2-.3 1.3c-.4 1.5-.4 3.9 0 5.6.2 1.2.2 1.4-.2 2-.4.7-.5.7-1 .3-1.8-1.2-2.8-6.4-2-10.9.4-2.2.2-2.6-.8-2.1-.4.2-1 .6-1.2.9-.8.9-1.9 1.2-2.8.9-1.2-.6-1.2-1.3 0-3.7.6-1.2 1-2.3 1-2.5l.8-2.1 1-3.3c0-2 .6-2.9 1.8-3.3 1-.3 1.8 0 3.6 1.5a12 12 0 0 0 2.4 1.5c2.5 1 3 2.6 1.5 4.9l-2 3c-.6 1-1.2 2.3-1.3 2.8l-.1 1h2.7c2 0 3 0 3.3.3.9.6 1 .3 1.2-1.3.3-3.3 3.2-3.9 3.8-.7.2 1.1 1.3 3.6 2 4.3.2.2.5.5.7.5.4 0 .4-.5.3-2.8-.1-3 0-3.3 1-3.3.8 0 1.3.7 2 2.4 1.2 3.7 1.7 3.8 1.9.5.2-3.1 1-4.2 2.1-3 .4.4.4.9.3 2.8-.2 2-.1 2.4.2 2.2.2 0 .6-.6.8-1.2.2-.7.8-1.6 1.4-2a4 4 0 0 0 1-1.6c.4-1.2 2-1.4 2.7-.3.2.3.5 1 .6 1.7.4 1.5 0 2-1.5 2-1-.1-1 0-1.4.6-.7 1.3-1 3.5-1 5 .2.8.6 2 1.1 3 .8 1.3.8 1.6.5 2-.8 1-2 .1-3.7-2.5l-.8-1.2v2.5c0 3-.3 3.3-2 1.5-1.4-1.4-1.7-2.1-1.7-3.5 0-1.3-.9-3.2-1.2-2.7-.1.2-.4 2.1-.5 4.2-.3 3.6-.3 3.8-.9 4-.3 0-.6-.2-.7-.4zm38-.2c-.5-.5-.6-1-.8-2.4-.2-1.5-.3-1.8-1-2.4-1.2-1-1.2-1.9-.1-2.4 1-.5 1-.5.2-1.5-1.3-1.7 1.3-2.6 3.6-1.2l1.1.7 1-.6c1.8-.9 3.4-.5 3.4.9 0 1-.4 1.7-2.1 3.5l-1.5 1.5.5.7c.9 1.6.4 2.6-1.5 3.4-1.3.5-1.9.5-2.7-.2zm85.6-4.8c-.3-.2-1.2-.6-2-.8-1.4-.5-4.5-3-5.5-4.8-2.5-3.8-1.6-11.6 1.6-14.4 2.2-1.9 3.2-.7 3.6 4.4.4 4.3 1.5 6.9 2 4.3.2-1.3 1.3-2.6 2.2-2.6 1 0 1.2 1 .7 3.7-.4 2.5-.3 4.7.3 5.3.2.1.6.1 1.3-.1 2-.8 3.5.3 3.2 2.3-.3 1.3-.9 1.7-3.6 2.4-2.8.8-2.8.8-3.8.3zm-175.6-.5a691 691 0 0 1-6.8-1.7c-1.3-.2-2.2-1-2.2-2.1 0-1.7 1.8-2.3 6.4-2.3 3.1.1 5.3.6 6 1.3.8.6 1.6 2.3 1.6 3 0 1.1-1.6 2.4-2.8 2.4l-2.2-.6zm-86.9-1c-2-.4-2.4-1.8-.8-3.4.8-.9 1-1.3 1.4-3.5.5-2.1.7-2.6 1.5-3.4.7-.8 1-.9 3-1.1 1.6-.2 2.5-.2 3.2 0l1.8.3c.5 0 1 0 1.3.2l1.7.6 2 1c.6.6.7.8.5 1.8 0 1.2-1 2.5-1.6 2.5-.2 0-.7.1-1 .3-.7.4-.7.4-.2.6l4.3-.1a214.6 214.6 0 0 1 21.5-.2c28.7-.3 28.3-.3 30.1 1.2 1 .8.3 2.3-1.5 3-.9.4-1.2.4-2.7 0-3-.7-10.3-.9-32.7-1-20.2-.1-22.2-.1-22.5.3-.4.4-.6.4-1.7 0-1.6-.6-1.8-.6-3.7 0-2.5 1-2.8 1-3.9.9zm94.6-1c-1-.5-1.6-1.1-2-2-.3-.7-.3-1 0-2 .3-.6.7-1.3 1-1.5 1.3-1 3.5-.1 4.4 1.6.8 1.6.4 2.8-1 3.6-1.2.6-1.5.6-2.4.2zM249.2 19v-.7c.5-.4 1.3 0 1.2.5-.2.7-1 .8-1.2.2zm38-10c-1-1.2-1.9-3.2-2.3-5.2-.3-1.6-.3-1.9 0-2.5.3-.3.7-.6 1-.6 1 0 1.5.5 2 2 .2.8.6 2.4 1 3.4.5 1.9.6 2.6 0 3.2-.3.5-.9.4-1.6-.4zm-105.4-.2c-.3-.1-.5-.5-.5-1 0-1.4 2.2-1.4 2.4 0 0 .4-.1.8-.4 1-.6.4-.9.4-1.5 0z"/>
</svg>
