<?xml version="1.0" encoding="utf-8"?>
<svg xmlns="http://www.w3.org/2000/svg" xmlns:svg="http://www.w3.org/2000/svg" version="1.1" viewBox="0 0 429 154">
  <title>The mice show the bent candle ends to Miss Dormouse, who has her hands on her hips.</title>
  <path d="M212.8 153.6c-.6 0-1.4-.3-1.7-.6a9 9 0 0 0-2.4-.7 8 8 0 0 1-2.4-.8l-1-.5c-.4 0-1.1-1-1.1-1.5 0-.6.5-1.1 1.6-1.7 1-.5 3-.2 4.2.6.6.4 1.5.8 2 .9 1.1.1 1.1.1 1.3-.8l.4-1 1-1.4 1.3-2.5a78.3 78.3 0 0 1 6.2-9c1.8-2.5 4.6-5 6.5-5.9.5-.2.9-.5.9-.6 0-.7-2.3-2-3.5-2-.4 0-1 .3-1.3.7-.4.5-.8.6-1.4.6-.8-.1-.8-.2-1-1.4-.3-2.7-.7-3.6-2.4-5.2-.8-.9-1.7-1.6-1.8-1.6-.6 0-3.8-2.2-5.4-3.8l-2.6-2.5-1.5-2-1.2-1.3c-.5-.2-1.4-2.4-1.4-3.3 0-.4-.3-1.5-.7-2.4-1-2.5-1.5-4.4-1.5-5.1 0-.3-.2-1.4-.5-2.3-.3-1.2-.5-2.5-.5-4 0-2 0-2.1-1-3.2-.8-.9-.9-1.1-.7-2 0-.5.3-1 .4-1 .4-.3.2-1.2-.2-1.2l-1.4.5c-1.2.7-2 .7-2.5 0-.5-.8-.1-2 1-2.7l1.8-1.5c.8-.8 1-1 1-2 0-1.2.3-1.6 1.7-2 .6-.3 1.4-1 2.2-1.9 1.3-1.5 1.6-2.5 2-5.1.2-1 .2-1.1-.7-1.7-.8-.4-1-.7-1-1.4 0-1 .5-1.7 1.3-2.2 1.4-.8 2.7-1.7 2.7-2 0-.5 1.5-1 3-1.2l2.3-.2c.7-.2 2 .6 3.7 2.2 1 1 1.8 1.5 1.8 1 0-.4-2.4-2.8-2.8-2.8-.2 0-.7-.3-1.2-.7-.4-.3-1.2-.7-1.7-.8a7 7 0 0 1-1.6-.4c-.9-.5-3.7.2-4.8 1-.5.5-1.4 1-2 1.3l-1.6 1.1c-.7.8-3.8 1.5-5.8 1.3-2.5-.2-4 .2-8 2.5-1.3.7-2.4 1.5-3.1 2.2l-1 .8-1.1 1.3c-.4.5-1.1 1.4-1.6 1.8-1.1 1.1-1.2 1.5-1.4 3.8l-.1 2 .9.5c1.5 1 1.8 1.2 1.8 1.9 0 1-1 1.5-3 1.5s-2.6-.4-2.1-1.4c.2-.5.2-.7-.1-1-.6-.5-.5-4 0-4.7.4-.4.6-1 .7-1.3l.6-1.2 1.7-2.3c.8-1 2-2.3 3.4-3.3a8.3 8.3 0 0 0 2.2-2c0-.7-.6-2.2-1.6-3.6-.7-1.1-.8-1.6-.7-2.3a7 7 0 0 0-.2-2.3l-.4-2.2c0-1-.5-.8-1.3.6l-1 1.5-.6 1.3c-.5 1.6-1.3 3.4-1.7 3.8-.6.5-1.6 4-1.4 4.5.3.8-.1 4.3-.5 4.6-1 1-2.5 3.8-2.7 4.8-.2 1.5 1 7 1.7 7.7.3.2 2-.3 2.6-.7.4-.3.9-.2 1.6.4l1.2 1c.7.7.6 1.7-.1 2-.6.4-.8.3-1.4 0-.6-.5-.6-.5-1 .2 0 .4-.5.8-.8 1-.6.2-.7.4-.7 1.5 0 1.2 0 1.4-.6 1.6-.9.3-1.2 0-1.6-1.2-.2-1.2-.7-1.8-.7-1.1l-.2 1a192.8 192.8 0 0 0 .8 26.3c.2 4.8 2.2 9 8 16.7 1.6 2 4.4 4.7 5.4 5.2l2.4 1.4a55.7 55.7 0 0 0 6 3.5c.3.2.5 1 .5 2l.2 2.4c0 1.4-.4 1.6-3.8 1.4-3.9-.2-6-.6-6.8-1.2-.2-.3-1.3-.7-2.2-1-3.6-.8-4.5-1.1-5-2-.6-.7-1-.8-3.1-1.1-1.3-.2-3-.6-3.6-1l-1.7-.5c-.2 0-.6-.1-1-.4-.3-.2-1.6-.5-2.8-.6-1.2-.2-2.4-.4-2.7-.6-.3-.1-.6-.2-.7-.1l-.7-1c-.4-1.1-.4-1.3 0-2.2.2-.8.6-1.2 1.8-1.7.7-.4 1.6-.8 1.9-.8.3 0 .9 0 1.3-.2a31.5 31.5 0 0 1 10-2c.2-.3-.6-1.5-2.8-4.2a24.4 24.4 0 0 1-3.4-11.1c-.3-2.3-.3-2.4-1-2.9a20.4 20.4 0 0 0-6.3-2.5c-2.4-.6-3.4-.7-7-.7-4 0-4.9.1-6.5 1a21 21 0 0 1-10.7 2c-2-.2-2.6-.6-2.6-1.8 0-.7.7-1.3 2-2a181.3 181.3 0 0 0 8.1-3.6l2.8-.9c2.2-.7 2.5-.8 6.2-.8l7 .3c2.6.2 3.1.3 4.1 1 1 .6 1.3.7 1.8.5l.7-.3V100c.1-6 .5-11.3 1.2-16 .3-1.9.3-2.4.1-5.3-.1-1.7 0-2.3.4-3.2a22.6 22.6 0 0 0 1.4-4.3l.2-1.3c0-.3.4-1.2.8-2.1l1.4-3.5c.3-1 1-2.8 1.6-4l1-2.3.5-1.3.5-1.5c0-.2.5-1 1.1-1.9.6-.8 1-1.7 1-1.9l1-2.2c1.2-2.5 1.6-6.5 1.2-11.2-.7-7.5-.7-8.9 0-11 .3-1 .9-2.3 1.2-2.8 3.3-5.9 5.2-7.4 9.4-7.4 2.6 0 3.4.4 5 2.1l1.6 1.4.4-1c.5-2.8 1.9-4.2 4.8-5 2-.5 4.4-.3 5.9.4 1 .6 2.5 2 2.9 3 .5 1.4 0 5.6-.8 7.7-.8 2 .5 4.2 2.6 4.5 1.5.2 3 1.2 3.9 2.6l1.2 1.4c.2 0 .9.7 1.5 1.4l1 1.1.6-.8.6-1.2c0-.9 1-2.5 3-4.4a10 10 0 0 1 3.7-2.7c3.2-1.3 6.5-1 6.5.6 0 .7-.5.8-2.4.8-1.6 0-4 1-5.4 2-.8.7-3.1 3.6-3 3.8l1.9-.5c2.3-.8 4.4-1 5-.4.4.4.4.6.2 1s-.6.5-1.8.5c-2 0-4 1-5.3 2.6-.7 1-.8 1.3-.7 2.1a16.9 16.9 0 0 1 1.6 6.6c.2 1.5.1 1.7-.5 2.5a21.5 21.5 0 0 1-4.4 4.8 25.7 25.7 0 0 1-6.8 3.4c-1.1.3-1.6.6-2 1.1l-.6.7 1 .9c.6.4 2.8 2.5 4.8 4.5 4.7 4.7 6 5.4 6 3-.1-1 .2-2.3.5-2.8.2-.1.7-1.4 1.2-2.9.4-1.4 1-3 1.4-3.7.5-1 .5-1.1.2-1.4-.4-.3-1-.1-2.6 1.1-1.3 1-2.2 1-2.6.1-.3-.5-.2-.8.3-1.6l.8-1c.4 0 4.8-4.5 5.7-6 1-1.4 4.2-4.6 6-5.8a8.3 8.3 0 0 0 3-3.7 20 20 0 0 1 2.4-5 24 24 0 0 0 2.7-5.3 46 46 0 0 1 3.6-6.8l1.5-2.3-.2-1.5c-.3-2.4-.3-8.8.1-10a15 15 0 0 1 5.6-5.8 17 17 0 0 1 6.2-1.4c2 0 4.2 1.9 4.8 4.3.2 1.1.9 2 1.8 2.3.7.3.8.3 1.1-.1.2-.3.4-1 .5-1.6.6-3 3.2-5.4 7-6.3 1-.2 1.5-.1 2.2.2 1.4.6 4.8 4 5.5 5.5l.9 2c.3.7 0 3.2-.6 5.6-.6 2-.6 2.1-.1 3l.8 2c.2.4.9 1.4 1.6 2.1l1.2 1.4-.2 2 .1 2c.2.2 1.7-.5 3.4-1.3 2.8-1.4 3.1-1.5 4.9-1.5 1.6 0 2 0 3.2 1 1.9 1.2 2.4 2 2 3-.4.8-1.5.8-2.8-.2-.8-.7-1.2-.8-2.5-.8-.9 0-2 .1-2.3.3l-1.8.6c-.6 0-1.6.4-2.2.8-1.2.5-1.2.6-1.2 1.7l.2 1.8c.2.7 0 .7 3 .1 1.2-.2 2.2 0 2.6.6.4.6 0 .9-2.1 1.2-2.4.3-4.3 1.2-3.8 1.8.1.2.6.3 1 .3.3 0 1 .3 1.4.7 1.1.9 1.1.9 2.3 2.5.8 1 1 1.7 1 2.3-.1 1.3-1 1.1-2.7-.6-2.2-2.2-3.5-3-4-2.9-.3.1-1 1-1.6 2-.5 1-1.4 2.2-1.8 2.5-.4.3-1 .9-1.6 1.2-2 1.8-3 2-6.5 2.3-3.3.1-4.5.5-4.5 1.2a32.9 32.9 0 0 0 2.4 5.9c0 .5 2.3 2.8 3.7 3.8 1.6 1 2.6 1.4 6.1 2.1 1.7.4 3.6 1.5 4.3 2.6.2.4.5 2 .7 3.4.3 2.4.3 2.6-.2 3.1-.7.7-1.7.4-2.6-.7-.4-.4-.9-1-1-1.3-.4-.4-.5-.4-.6-.2 0 .2.1.6.4 1 1.1 1.2.9 4-.4 4.3-.6 0-1.7-1.4-2-2.6l-.5-1c-.2-.4-.3-.4-.7 0-.3.3-.7.5-.9.5-.6 0-1.5-1.2-1.5-2 0-1.3-1-1.7-4-1.7a21.7 21.7 0 0 0-5.4.6c-1 .2-2.3 2-2.3 3.4 0 .6-.2 2-.5 3.1-.3 1-.5 2.4-.5 3l-.4 2c-.6 1.6-.5 2.6.2 4.4.5 1.4.5 2 .5 6.5 0 5.4.1 4.5-2.3 11-1 2.4-.9 5.2.2 6.8.8 1.4 3.7 4 4.5 4.2 3.3.7 4.8 1.2 5.5 2 0 .2.6.5 1.2.8 1.2.6 1.6 1.3 1.2 2.1-.2.3-.3.8-.3 1 0 .7-.8 1.4-1.7 1.4a9 9 0 0 1-2.4-.8c-2.4-1-3-1-3.6.3-.3.5-.7 1-1 1.2a457.6 457.6 0 0 0-5.6-1l-1.6-.9c-.5-.3-1.7-.8-2.5-1a30 30 0 0 1-4.5-.8c-.2-.1-1 0-1.5.1-1 .3-1 .3-2.3-.4l-2.4-1c-5.4-1-7-1.6-7.3-2.7-.4-1.3 1.3-2.3 4-2.3 1.4 0 1.8-.2 2.3-.7.3-.3.5-.6.4-.7h-3.4l-3.2.2-1.5 1.2a11.8 11.8 0 0 0-3.9 5.2c-.4 1-.4 1.6-.3 3.6.2 2 .1 2.5-.2 3-.6.9-.9.9-2 0l-1.1-.6c-.1 0-.6.4-1 .9-1 1-3.3 1.9-3.6 1.5-.3-.4-1-.3-2.5.3l-1.4.6-.6-.8c-.6-.7-.7-.7-1.1-.4l-.6.4 1.3 2.4c.2.2.8.4 1.4.5 1.8.3 6.3 3.1 6.3 4l.5.8c1.2 1.3 1.4 3.5.5 6.2l-.9 3.2c-.3 1-1 2.4-2.2 4l-2.4 3.6a5 5 0 0 1-1.4 1.5c-.4.2-1.2 1-1.8 1.8l-1.5 2c-.7.7-3 2.2-3.5 2.2l-1.9.4c-1.7.6-4 .9-5.4.6zm6.4-3.8a8.2 8.2 0 0 0 2.8-2l1.3-1.4c3.8-3.7 7-8.5 8-12 .5-1.5.5-3.9 0-4.4-.3-.3-2 .5-2.1 1-.1.2-.5.4-1 .5-.8.2-3 2.4-5 5.3l-2 2.9c-.5.4-1 1.3-1.3 2-.4.5-.7 1.1-.9 1.2-.5.3-2 3.7-2.2 5-.4 2.2.2 2.7 2.4 1.9zm3.4-31.3c.2-.6 0-.9-.8-.9s-.9.5-.2 1c.6.4.8.4 1 0zm10.3-2.3c1.6-.9 1.7-1 2.5-4.1.8-3 2.2-5.6 3.3-6.2l.8-.6c0-.2.8-.7 1.5-1.3 1.7-1 3.9-1.6 5.3-1.2.7.2 1.8.2 4.2-.1l3.4-.5 1.5.7c.8.4 2 .7 2.6.7.9 0 1.3.2 2.7 1.5 3 2.6 4.8 4.4 5.4 5.4.9 1.2 2 2.4 2.5 2.4l.7-.4 1-.5h.7l-.8-1-2.6-2.9c-3.6-4-5-5.8-5-6.8 0-.8 1-2.4 2.3-4.3a6 6 0 0 0 1-2.4c0-.8.4-2.1.7-2.9.5-1.2.6-2 .6-4.4 0-4-.4-6-1.7-9.3-.4-1-.7-2-.7-2.4 0-1 .5-3.7 1-5.6l.9-3.3c.1-.9.6-2.1 1-2.8l1.3-2.4c.8-1.5 1.3-2 2-2 .6 0 .8.6.5 1.6-.4 1 0 1.1 2.3.4 1.1-.4 2.6-.9 3.4-1 1.4-.3 1.6-.3 3.4.5 1 .4 2.4 1.2 3 1.6 1.2 1 2.7 1.1 3 0l.6-1c.8-.5 0-1-2-1.2-1.2 0-2.5-.4-3.3-.8-1.9-1-4.4-3-5.3-4.5a4 4 0 0 0-2.2-1.8c-1.1-.4-1.5-.8-1.8-1.4a21 21 0 0 1-.3-6.7c.2-.8.1-.9-.9-1.5-.6-.4-1.4-.7-2-.7-1.6 0-3.5-.7-4.2-1.7-.4-.5-.9-1-1.1-1a17 17 0 0 0-4.6 2.5c-1 .8-1.9 1-2.4.4-.2-.3-.2-.6 0-1 .3-.4 4-3.2 4.5-3.2a6 6 0 0 0 1.4-1c1.3-1.1 1.9-1.3 2.6-.7.2.2 1.2.5 2.2.6 2.7.2 3.3.8 1.6 1.6l-.9.4.6.7c.5.5.8.6 1.6.5 1.4-.2 3.6.4 5 1.3 1 .6 1 .6 3.3.3 3-.4 3.3-.5 3.3-1.7 0-.7-.2-1-1-1.6-1.7-1.5-1.4-3 .7-3 .7 0 1.6-.2 2.3-.6l1-.6.8.6.7.5.9-.5c1.2-.9 1.6-1.5 1-2-.7-.9-.3-1.9.9-1.9.4 0 .6-.2.8-.7.2-1-.3-1.3-1-.5-.7.7-1.8.9-2 .3-.1-.3 0-.8.4-1.2a7.5 7.5 0 0 0 1.3-4.2c0-1.1-.1-1.5-1-2.5-.6-.7-1-1.4-1-1.7 0-.3-.3-1-.6-1.6-1.5-3.1-1.7-3.6-1.5-4.7v-1.2l-1 .4c-1.3.6-2.6.3-3-.5-.5-1-2-6.8-2.1-8.4-.1-1.7-.6-2-1.6-1-.7.6-.7.6 0 5.2.5 2.7.5 2.8-.1 3.6-.5.7-.7.7-1.7.6-.6 0-1.2-.1-1.5-.3-.2 0-.6.1-1.1.5-.7.7-.8.7-1.5.3-.4-.3-.8-.4-1-.3l-.4 1.9c-.3 2-1.1 3-2.1 2.6-.7-.3-1.3 0-1.3.5 0 .2-.3.7-.8 1.2-.4.5-1 1.3-1.2 1.8-.8 2-3 1.4-3-.7 0-.6-.3-1.7-.8-2.7-.9-1.9-1-2.4-.4-3 .4-.3.7-.3 1.5-.2 1.2.2 2-.3 2.4-1.7.2-.6.2-1 0-1.8-.2-.5-.3-1.3-.2-1.7.5-2 2.4-1.2 2.8 1.3l.6 2.3.3.8.2-.8c.6-3-.5-8.1-1.9-8.9-.9-.5-4 .2-5.2 1a5 5 0 0 1-1.7 1c-.5 0-1.3.5-1.8.9-.9.7-.9.8-.9 2.4 0 1-.1 2.1-.4 2.6a17 17 0 0 0 .5 7.8c1 3 .7 3.9-1.1 3.9-.6 0-1 .1-1 .3l-.8 1c-.8.8-2.8 3.2-3.5 4.3-.2.3-.6 1.2-.7 2a12 12 0 0 1-1.5 3.1c-2 3-2.5 4-2.6 5.3 0 1.3 0 1.3.9 1.8 1.2.5 1.9 1.3 1.8 2-.1.9-1.1 1-3.1.6-1.3-.3-1.5-.3-2.4.3-.6.4-1.3.7-1.9.7-1.1 0-2.7 1.1-3.2 2.2-.2.6-.2.8.1 1.2 1 1.2 0 2.6-1.3 2-.6-.4-.8-.3-2.1 1-1.7 1.7-1.6 2 1 2.3l1.7.1 1-1.3c.7-.7 1.4-1.7 1.6-2.2.3-.8.6-1 1.8-1.4 1.4-.4 1.6-.4 2.3 0 1.5.7 1.7 1.8.6 3.2-.5.5-.8 1.1-.8 1.4 0 .6-.5 1-1.8 1.2-.8.1-1.3.4-1.7.9-.8 1-1.5 1.3-2.7 1.3-.9 0-1 .2-1.9 1.5-1.3 2-2.3 4-2.6 5.1a361.7 361.7 0 0 0-.9 3.8c-.1.4 0 .6.8.9 1.8.7 2.3 2.6 1.2 4.4-.7.9-1.3 1.2-3 1.2-.4 0-1 .2-1.1.4-.6.7-1 3.5-1 6.9a44 44 0 0 0 3.4 16.7c.5 1.8.8 2.3 1.5 2.3 1.4 0 1.5 3.2.3 9.5a4 4 0 0 1-.9 1.7l-.8 1s-.4.8-1 1.5c-1 1.2-1 1.4-.7 1.9.4.7.6.6 2.4-.4zm24.1-78c-.2-.7.4-1.2 2-2 4-1.7 5-.8 1.3 1.1-2.5 1.3-3 1.4-3.3.9zm14.4-.4c-.4-1 .7-1.8 1.7-1.4.5.3.6 1.5 0 1.7-.8.3-1.4.2-1.7-.3zm1.9-2.7c-.2-.4-.2-.6.2-1l.6-.7c0-.2.2-.6.6-1 .6-.5.6-.5 1 0 1.2 1 1 1.9-.4 2.7-1.3.6-1.7.6-2 0zm-19.7-2.8c-.4-.4-.2-1.5.4-1.8.3-.2 1.5-.6 2.7-.8 4.6-1 11.6.4 9.6 1.8-.4.3-.7.3-1.3.1-1.4-.4-6-.3-8 .2-2.8.6-3.2.7-3.4.5zm15.7-4.7-.5-1.8c-.5-3 .7-4.5 3.8-4.9 1.6-.2 1.7-.1 2 .5.4.5.4 1 .2 2.6-.4 3-.4 3.1-1.4 3.6-1.1.4-3.7.5-4 0zm12.2-1.3c-.4-.5-.6-1-.6-1.8v-3c0-1.6 0-1.9.5-2.3.8-.6 1.7-.5 3.5.4 2.1 1 2.4 3.3.8 5.6-1.3 1.7-3.1 2.2-4.2 1zm-67.4 85c.2-1 .9-2.3 2-3.8a8 8 0 0 0 1-2c0-.4.2-1 .4-1.3l.2-5.2c0-4 0-4.8-.5-5.8-.3-.7-.6-1.6-.6-2 0-.8-.3-2-1.2-4l-1.3-3.6c-.7-2.2-1-2.7-1.6-2.7-.2 0-1.3.9-2.5 2a20 20 0 0 1-2.4 2.2l-1.2 1.7-1 1.8.2 2.5c.2 3.1.8 6 1.7 8l1 3.2c.1 1.4.5 2.3 1.1 3.2l.9 1.5c0 .1.3.6.8 1 .4.4.9 1.2 1 1.7.3 1 1.2 2.4 1.6 2.4.2 0 .4-.4.4-.8zm60.4.6h-.5c-.2 0-.1.1.2.2.2 0 .4-.1.3-.2zm-54.1-.9c1.4-.4 2-.5 4-.2l3.5.2c1.3 0 1.5 0 2.3-1 .7-.8 1-1.3 1-2 0-1-1.2-4.8-1.9-6.3-.3-.5-.5-1.5-.5-2.1 0-2.1-.6-4.5-1.2-5.2-.5-.5-.9-.6-2.7-.6-1.7 0-2.2.2-3.2.8l-1.2.7v3.1c.1 2.6 0 3.4-.4 4.6-.3.8-.6 2.2-.7 3-.1.7-.3 1.4-.5 1.6l-.4.7c0 .3-.4 1-.8 1.7l-.8 1.6c0 .3.9.1 3.5-.6zm-67.5-2.3v-.2c-.3-.2-1.9.2-1.9.5 0 .2 1.6 0 1.9-.3zm1.3-.3c.2-.2.3-.3.2-.4-.2-.2-1.3.1-1.3.4 0 .3.6.3 1 0zm98-3.4c0-.2-1.7-.1-1.7 0s.4.2 1 .2c.5 0 .8-.1.8-.2zM221 90c1-.4 2.5-.9 3.4-1l1.7-.4v-4.7c-.1-1.3 0-3.3.2-4.5l.3-3.2c0-1 0-1-1.4-1.7-1.1-.6-1.7-1-2-1.6-.6-1.2-2.3-3.1-3.5-4l-1.5-1.2c-.2-.3-.6-.6-.8-.6-.5 0-.5 2.5 0 4.6.5 2 .3 2.8-1.2 5-.6 1-1 2-1 2.2 0 .4.3 1.3.7 2.2.8 1.9 1.8 4.5 2.3 6.4a15 15 0 0 0 1.1 3.1l1.7-.6zm-14.4-7c.6-.3 1.6-1.1 2.3-1.7l2.5-2a14 14 0 0 0 2.3-2.6c2-2.6 2-2.8 1.8-4.6a18 18 0 0 1-.2-3.1 9 9 0 0 0 0-2c-.3-1.3-2.1-1.2-2.9 0-.2.5-1 1.6-1.6 2.4-1.2 1.5-1.3 1.8-1.5 3.9a9.3 9.3 0 0 1-.6 2.9c-.3.3-.4.9-.3 1.2.2 1-.2 1.4-1.4 1.6-.9.1-1 .2-.9.8.3 2 .2 2.5-.4 2.8-.6.2-.9 1.2-.3 1.2l1.2-.7zM192.6 64c.9-.4 2.5-1 3.6-1.2 1.1-.2 2.5-.6 3.1-.9 3.7-1.7 4.8-2.1 7-2.6 3.3-.8 3.2-.7 3.2-1.3 0-.6-.5-.9-1.3-.9-.3 0-.7-.2-1-.5-.9-1.4 1-1.8 6.1-1.3l3.6.3 1.8-.7c1.2-.5 2.1-1 2.9-1.9.9-1 1.2-1.2 2-1.2 1.5 0 3.2-.8 3.8-1.7l.6-1s-.5-.2-1.2-.2c-1.3-.1-1.5-.3-2.6-2.6-.6-1 1.3-1.7 2.4-.8 1.2 1 2.2.5 2.2-1.2 0-.7-.5-1.2-.8-.7 0 .2-.5.4-1 .5-.6.1-.8 0-1-.4-.3-.5-.3-.7-.1-1 .4-.5 1.6-.7 2-.4.3.3.4.3.5 0 .1-.3-.2-.9-.8-1.5L225 38c-1.2-1.4-1.7-1.8-2.6-2-1-.4-2.2-1.3-2.2-2 0-.2-.2-.4-.6-.4-.6 0-3.6-2-3.6-2.4l-1.5-1.3c-.8-.5-1.8-1.3-2-1.6-.4-.4-.8-.5-2-.5-.7 0-1.7.1-2.2.3-.7.2-1 .2-1.6-.2-.8-.4-.8-.4-1.5.2-.4.4-1.1.8-1.6 1-.6.1-1.2.6-1.5 1-.7 1.3-2 2.7-2.4 2.7-.2 0-.5.4-.6 1-.6 2-1.4 3.4-2.2 3.4-.7.1-2.6-.4-3.7-1-1.3-.7-2-3-1.1-4 .3-.3.5-.4 1.3-.1 1.2.3 1.7 0 1.7-1.5 0-1.2.3-1.7 1.7-2.2 1-.5 1.1-1 .8-2.6-.3-1.1-.2-1.3.2-1.8.5-.4.6-.5 1.1-.1.3.2.7.8.8 1.4.5 1.7.7 1.9 1.1.9.6-1.4.5-2.9-.4-4.4-.8-1.5-1.7-2.2-2.4-2.2-1 0-4.7 1.4-5.3 2a19.5 19.5 0 0 0-4.3 8.8 9 9 0 0 0 1.1 4.7c.4.5 1 1.6 1.3 2.5.5 1.3.6 1.8.4 2.1-.3.4-.2.8.5 1.8l.8 1.6.4 1c.2.3.4 1 .4 1.6 0 1 .1 1.2 1.3 2.4a28.9 28.9 0 0 0 4.3 3.6c.7.4 1 1 .4 1.3-.3.3-2.4.3-3 0-.4 0-.7-.4-.8-.7 0-.4-.5-.8-1.2-1.1-1.5-.7-2.4-1.4-2.4-2.2 0-.3-.3-1-.6-1.3-.5-.6-.7-1.1-.7-1.8 0-.5 0-1-.2-1-.8 0-1.7 2.4-2.3 6-.3 1.6-.3 2 0 2.3.3.3.4.9.4 1.4a23.5 23.5 0 0 0 1 8c.4 1.6.7 2.2 1.1 2.2l1.9-.8zm4.1-7c-.4-.4-.2-1.1.4-1.5 1.3-.8 6.7-1.7 7.6-1.3.6.4.7.4.3 1-.3.6-1.6 1-4.9 1.4a56 56 0 0 0-3.4.4zm15.6-3.7c-.6-.2-1.1-.5-1.3-.7-.3-.6 0-1.4.5-1.7.5-.2.6-.4.5-.9-.4-1.7-1.6-2.2-4.9-2.1-2.7 0-3.2 0-3.2-.7 0-.8 1.1-1 4.2-.8 2.8 0 3 .1 4.1.9 1 .7 1.2.8 1.6.4.2-.2.9-.4 1.4-.5h1l.2 1.3c.2 1.4 0 2-.8 2-.3 0-.7.3-.8.6-.2.2-.5.5-.8.5-.4 0-.5 0-.3.6.2.4.2.8 0 1-.3.4-.5.4-1.4.1zm-7.1-1.7c-2.2 0-2.6-.1-2.8-.5-.2-.4-.2-.6.2-1 1-.8 6-.4 6.8.6.5.6.1 1.2-.8 1h-3.4zm3.7-9.4c-.7-.4-1-1.4-.8-2.6.1-.5 0-.7-.3-.7s-.5.3-.6 1c-.1 1-.2 1.1-.9 1.1-1 0-1.3-.5-1.3-1.6 0-.8.2-1.2 1.2-2.1 1.1-1 1.3-1.1 2.3-1 1.7.3 3.7 2.2 3.7 3.7 0 1.7-1.8 3-3.3 2.2zm77.5-2.5c.1-.3.5-.9.9-1.2.4-.5.5-.7.2-.8-.3-.2-2.3 1.8-2.3 2.5 0 .5.8.2 1.2-.5zm-72-14.2c1-2 1.4-5.1.6-7.2-.3-1-2.2-1.7-4.3-1.8-1.8 0-1.8 0-2.8 1.2-.6.7-1.2 1.7-1.6 2.8-.6 1.9-.7 4.5-.2 4.8.7.4 2.6.8 3 .6.5-.4 2.6-.3 3.3.2 1 .5 1.4.3 2-.6zm70.2-16.5c1-.6 1-.7.4-2-.3-.8-2-2.5-2.4-2.5-.3 0-1 .8-1.2 1.4-.1.3 0 1 .2 1.7l.5 1.6c.2.5 1.5.4 2.5-.2zm56.3 137.5c-.3-.3-1.1-.4-1.8-.5a6 6 0 0 1-2.5-.6c-.7-.4-1.6-.7-1.9-.7a17.1 17.1 0 0 0-4.7-.7c-3.5-.1-4.8-.3-6-.9l-3.1-.8c-1.9-.3-2-.4-3.2-1.5a9.7 9.7 0 0 1-1.5-2c-.5-1.2-.7-1.4-3.1-1.7-2.6-.4-3.8-.8-4.8-1.5-1.8-1.3-4-2.3-5.6-2.4-1.3-.2-2-.4-2.8-1a24 24 0 0 0-6.2-3.4c-1.1-.3-1.8-1.1-2-2.4-.4-2.1 2-3.7 6.6-4.1 2.5-.3 4.5-.2 6.4.2 1 .3 1.5.3 2 0 .4-.1 1.8-.3 3.2-.3 1.8 0 2.5 0 2.5-.3a11 11 0 0 0-.8-5 87.8 87.8 0 0 0-1.2-4.6 6 6 0 0 0-.5-1.8c-.3-.6-.5-1.5-.5-2l-.4-3.9a50.7 50.7 0 0 1 5-26.3c0-.2.8-1.3 1.7-2.3a9 9 0 0 0 1.7-2.4c0-.3-.3-1-.8-1.6-1.9-3-1.8-5.3.6-9 .7-1.2.7-1.4.3-1.8-.2-.2-.7-.4-1-.4-1.3 0-2.6-.5-3.2-1a10 10 0 0 1-1.7-5.3c0-1-.2-2.2-.6-3.4-.4-1-.7-2.4-.7-3 0-2.6-.6-3.3-3.4-3.8-2.1-.4-5.8-1.8-6.5-2.4-.7-.6-.8-1-.4-1.7.2-.4.7-.3 2.6.5l3.5 1.2c2 .6 2.2.6 2.5.3.2-.3.3-.6.2-.8-.1-.3-4-3.3-5.3-3.9-.8-.5-2.7-2.5-2.7-3l-.6-.9c-.8-1-1.5-3.4-1.3-4.2.1-.4.4-.8.6-1 .4-.2.6-.1 1 .4.3.3.5 1 .5 1.3 0 .3.3 1 .5 1.3l1 2c.4 1.3 1.8 2.5 4.3 4.1l1.4 1 1-.9c.6-.5 1-1 1-1.5.1-.4.4-1 .7-1.3.4-.5.4-.7.2-1.4l-1-1.4a20 20 0 0 1-3-4.8c-1.1-3.5-1.2-11.3 0-12.8a1 1 0 0 1 1.6 0c.3.3.3.8 0 2-.4 2.4-.3 3.7.2 5.5l.9 3.8c.5 2.6 1.3 4.4 2 5.1l.7.5 1-1.2c.6-.6 1.3-1.4 1.5-1.8a35.3 35.3 0 0 1 7.3-8l1.2-1v-2.4c0-2.6.5-4.3 1.9-6.8 1-1.8 1.8-2 5.9-1.6 4 .5 4.2.5 4.7-1.9.6-2.2 2.8-4 5.2-4 .7 0 3.2 1 5.8 2.4.8.4 1.9 1.1 2.4 1.7 1 1 1 1 1 3.2s-.3 3.1-1.3 5.6c-.5 1.3-.5 1.4 0 2.2.2.4.6 1 .9 1 .5.3.6.3 1-.6l.3-1a35.2 35.2 0 0 1 2.4-5.6c2.1-5 4.7-9.3 5.7-9.5.8-.1 1.4.3 1.4.9l-.6 1.3a46.2 46.2 0 0 0-6.7 13c-1.1 3.4-.6 3.7.8.5.5-1 1.2-2 1.6-2.5 2-2 4.5-4.9 4.9-5.7.5-1 2.2-2.2 3-2 .5 0 .6.2.7.8 0 .8-.2 1.1-2.7 3.5-2.8 2.7-5.2 5.7-5.2 6.6 0 .3-.5 1.2-1 2.1-.6.9-1.1 1.9-1.1 2.3 0 .8 1.4 3.1 2 3.1l.8-.8c1.2-2.2 4-5 4.7-5a1 1 0 0 1 1 1.3c0 .2-1 1.3-2 2.3-2.4 2.3-2.8 3-3.1 4.6-.2 1-.1 1.3.3 2 .7 1 2.9 2.5 3.6 2.5.8 0 2.2 1.8 2.2 2.7 0 .8.7 1.5 3.3 4 .5.3 2 1.8 3.4 3.2 2.6 2.7 3.3 3.8 4.8 8a14 14 0 0 1 .2 8.7c.2.2 1.7-.6 2.5-1.2.5-.5 1.8-.7 4.2-.6 1.2 0 1.5.2 2.8 1.5 2.2 2 2.6 3.2 1.5 4.4-.9 1-2.8.5-5.5-1.4-.7-.4-2.1.7-2.1 1.7 0 .7.8 1.3 3.3 2.6.4.2 1 .7 1.2 1 .2.4 1.2 1.7 2.3 2.8 2.2 2.4 3.5 4.6 4.2 7a69.8 69.8 0 0 0 2.2 6.8 37 37 0 0 1 2.3 15.9l-.1 5.1h.7c.5 0 .9 0 1-.2l1.2-.4c.6-.1 1.6-.4 2.1-.7.8-.5 1-.5 1.4-.3.3.3 1 .3 2.9 0 1.7-.2 2.7-.2 3 0l2.7.6c1.4.2 2.7.6 3.8 1.1 1.5.8 1.6 1 1.6 1.6 0 .7 0 .9-.8 1-.5 0-1.4-.2-2-.5l-1.6-.6-1.2-.4c-.7-.3-1.8-.5-4.6-.5-3.8-.1-4.5 0-7 1l-2.1.8c-1.4.5-1.5 2-.1 1.6 1-.2 2.1-.2 2.6.2.2.2 1.2.3 3 .3 2.2-.1 2.6 0 3 .4.5.5 1.8.8 4.3 1a4 4 0 0 1 2 .5l1.7 1c.7.2 1.4.7 1.5 1 .2.3.7.8 1.2 1.1.6.4 1.2 1.2 1.6 2 .6 1.3.6 1.6.4 2.8l-.1 1.2c0 .3-.4.6-.9.7-.6.2-.9.5-1 1-.3 1.3-1 1.8-2.2 1.8-.6 0-1.2.1-1.4.3l-1.8.2c-1.4-.1-1.6-.2-1.7-.7-.1-.8.8-1.7 2-1.7s2.5-.7 2.8-1.6c.1-.4.5-.9.8-1 .8-.5.6-1.7-.6-2.8-.6-.5-1.2-1-1.4-1-.3 0-.7-.3-1-.7-.3-.5-.7-.8-.8-.8a6 6 0 0 1-1.4-.5c-1.5-.7-3.8-1-5.5-1-1.2.2-1.5.1-2-.4-.6-.5-.8-.5-1.9-.4l-2.5.4-1.4.2-.2 5.2v6.2l.1 1 2.6-.2c2-.2 2.7-.3 3.3-.8.5-.3 1.4-.6 2-.7l2.5-.4c1-.2 1.4-.1 1.8.3.6.5.5.7-.9 1.7-.7.5-1.4.8-2 .8a3 3 0 0 0-1.5.4c-.3.2-.8.4-1.3.4-.4 0-1 .2-1.4.5-.5.4-.9.5-1.7.4-.6-.2-1.1 0-1.6.2-.4.3-1 .4-1.4.3-.5-.1-.7 0-.7.3 0 .2.3.4.6.4.7 0 .9.6.4 1.4-.5.7-.3 1 .6 1 .3 0 1 .1 1.4.4.9.4 1.3.3 1.3-.5 0-1.3 2.2-1.1 3 .2.4.6.6.7 1.4.5l2-.2c.6 0 1.6-.2 2.3-.4.7-.3 2-.6 3-.7 1 0 2.3-.5 3.2-1l2.7-1c.5-.2 1.5-.8 2-1.3.6-.5 1.5-1 2-1.2a4 4 0 0 0 1.4-1.3c1-1.3 2.2-2.5 3-3 .7-.3.7-.4.7-2.3 0-3.6-.2-4.3-1.6-5.7a5.1 5.1 0 0 1-1.3-1.5c0-.2-.3-.5-.6-.6-.6-.2-2.8-1.6-4.6-3-1.2-.8-1.6-1.6-1-2 .5-.5 3.2.6 4.6 1.7.5.5 1.4 1 2 1.4.7.3 1.2.7 1.2.8 0 .2.5.6 1.1 1 1.2.6 2.5 2.4 3 4 .2.6.5 2 .6 3.1.2 2.2.2 2.2-.7 4-1.6 2.9-4.2 5.6-7 7.2l-2 1.3c-.7.8-3.8 2.2-4.6 2.2-.2 0-1 .3-1.6.7a8 8 0 0 1-3.4.8c-1.3.2-2.5.4-2.9.6-.3.2-1.6.4-2.7.4-1.2 0-2.5.3-3 .5-.4.2-2.4.6-4.3.8-7 .8-7 .8-10 2.2l-3.3 1.7c-1 .6-2.7 1.3-4.9 2a21 21 0 0 1-6.2 1.2 170.8 170.8 0 0 1-10 1.5 91.5 91.5 0 0 1-12.5.8l-5.1.4c-2.6.1-3.3 0-3.7-.2zm7.7-4c1.3-.2 2.6-.6 2.9-.8.3-.3.8-.4 1-.4.5 0 1.7-1.4 2.3-2.6.4-.8.5-1.7.4-4.1 0-1.7.1-3.3.3-3.4l1-2.2a48.7 48.7 0 0 0 2.8-13.8l.3-3.7.4-4.4c.2-.5.3-2.4.3-4.2l.1-3.7c.1-.2.2-1.7.2-3.5 0-2.8 0-3.3-.6-4.1-.5-.9-.6-1.2-.5-3.2a26 26 0 0 0-.3-9l-.9-1.4a19 19 0 0 0-1.3-2c-.7-1-.9-1.1-1.9-1-1.8.2-3.5.6-4.6 1.2-1.3.7-4.5 3.6-4.5 4.1l.6 1.3c.3.6.6 2 .8 3.2.2 2 .2 2.4-.2 3-.7 1-1.5.8-3.5-1.2-1-1-2-1.7-2.3-1.7-.5 0-2 1-3.5 2.5-1 .9-2.3 1.5-3.5 1.5-.2 0-.7-.5-1-1-.2-.6-.7-1.3-1.1-1.7-.6-.7-.9-.8-2.3-.8s-1.7.1-2.3.7c-.8 1-1.5 1.2-2.4.9-.8-.3-1.3-1.3-1.1-2.1.1-.3 0-.6-.5-1-.5-.2-.7-.6-.7-1.2 0-.9 1.5-2.4 4-4 .7-.6 1.3-1.1 1.2-1.3 0-.2-.8-.5-1.8-.7l-3-1c-2-.9-2.7-.6-4.7 1.6-2 2.4-4 6.4-4.8 10l-1 3.6a31 31 0 0 0-.5 3.8 69.8 69.8 0 0 0 2.4 22l.4 2.5c.2.8.5 2.7.6 4.2 0 1.8.4 3.4.9 5l.7 2.8c0 1 1.1 3.4 2.3 4.9 1.2 1.4 1.9 2 5.2 3.5l1.8.7c1 .3 4.8.3 6.5 0a3 3 0 0 1 2.1.4c1 .4 2.7 1 6.8 2 2 .5 3.9.5 6.5-.1zm-24.8-9.7a5 5 0 0 1-1.2-1.6 5969.4 5969.4 0 0 1-3.8-9.4c-.7-1.5-1.4-3.7-1.3-4.2 0-.3.3-.6.6-.8 1-.7 1.6 0 4 5.3l2.3 5.2c1 2.3 1.6 3.9 1.6 4.5 0 1.1 0 1.2-.9 1.4-.5.1-.9 0-1.3-.4zm21.2-5.3c-.2-.2-.3-.6-.3-.9 0-.6 1-3.6 1.7-5l.4-1.3.4-.9c.4-.6 1.7-5 2-6.7.4-2.6 1.1-4.5 1.6-4.6.7-.3 1 0 1.2 1 .3 1 0 5-.4 5.7-.2.3-.3.9-.3 1.3a9 9 0 0 1-.8 2.6l-.8 2-.7 2.1c-.5 1-1 2.2-1.1 2.9l-.8 1.6c-.4.5-1.6.6-2 .2zm24.6 12.2c9-.5 9.6-.6 12-1.7 4.6-2.2 9-6.4 10-9.7.1-.6.3-2.6.3-4.4a39.6 39.6 0 0 0 .1-12c-.2-.4-.2-3.1 0-9.7.4-10.3.2-11.7-1.4-15.4l-.7-1.6-1.6-5.6c-.4-1.3-2.3-5.3-2.8-5.9l-1.4-1c-.6-.3-1.8-1.2-2.8-2.2-1-.9-2.5-2-3.4-2.6-2.2-1.3-3.6-1.3-2.2 0 .2.4.5 1 .5 1.3 0 1 .6 2 1.8 3.1 2.8 2.7 3.9 4.6 5.8 11.3.8 2.6.9 3 .9 6.8 0 4.2-.2 5.1-1.1 5.1-.8 0-1-.8-1.2-5.4a15 15 0 0 0-1.3-7.1c-1.4-3.7-2-4.7-3.3-6.6a23.5 23.5 0 0 0-6.7-6c-.5-.2-1-.3-1.2-.2-.2.2.5 3.5 1.2 5a35.2 35.2 0 0 1 2.4 8.3c.8 3.4 1.1 5 1.1 6.6 0 1.3.1 2.1.6 3 .5 1.1.5 1.3.2 4.5a79 79 0 0 0-.3 6c0 2.1 0 2.8-.4 3.1-.5.6-1 .6-1.5 0-.6-.6-.6-4.5-.2-8.5.3-2.7.3-3-.1-4-.3-.7-.6-2-.7-4.4a15.6 15.6 0 0 0-1-5.4l-.5-.9c-.3-.4-.5-1-.5-2.3 0-1.3-.1-2-.4-2.3l-.6-1.1c-.7-2.3-1.6-3.2-4.4-4.3l-1.4-.7c-.6-.4-1.4-.4-1.6-.1l.2 1c.4.7.7 2.1.7 3.5a62.5 62.5 0 0 0 1.3 9.1c0 .7.4 1 .6.5 0-.2.3-.2.6 0 .3.3.4.6.3.7-.2.3-.3.3-.6 0l-.5-.2-.2 3.7a204.7 204.7 0 0 1-.7 11.1 99 99 0 0 1-2.7 21.4l-1 9.6v2.6l1 2c1.2 2 1.9 2.6 3 2.4l5.8-.4zm15.9-60.7c-.4-.4-.4-.9.1-1 .6-.3.9 0 .9.6 0 .5-.6.8-1 .4zM337 83.4c.6-.5 1.4-1 1.7-1 .4-.2.6-.5.6-.8 0-.4-.2-.5-1.7-.5-1.9 0-2.1.2-2.4 1.7-.3 1.7.2 2 1.8.6zm-4.1-2.1c.6-.5.8-.7.5-1l-.7-.2c-.3 0-.6-.2-.7-.3-.3-.5-.9-.3-1.3.5-.2.4-.6.8-1 .9-.2 0-.4.3-.4.6 0 .4.1.4 1.3.2.8 0 1.8-.4 2.3-.7zm10.1-.7c0-.6-.7-1.2-1-1-.4.3-.4.8 0 1.2.5.5 1 .4 1-.2zm-6-2.8c.5-.3 1-.4 1.7-.3 1.6.3 3.4-.5 5.4-2.3l1.7-1.5-.5-1.3a18 18 0 0 1-1.8-5.5c0-1.2.8-2.6 1.6-2.8 1-.2 1.3.5 1.3 2.4 0 1.6 0 1.7 1.2 3 1 .9 1.2 1 1.2.7 0-.3.4-1 .8-1.8l1.6-3c.8-1.8.8-2 .5-3.5l-.7-3c-.9-3.4-.9-3.5-.4-4 .6-.7 1.2-.6 2.2.2 1 .8 2.8 4.4 3 6 .3 1.4-.5 4-1.6 5.5-.4.5-.6 1.1-.5 1.3.1.1 1.5.3 3.5.3 3.7 0 4.3-.2 5.3-1.7.4-.6 1-1 1.6-1.2.6-.2 1.2-.7 1.7-1.3 1.7-2.4 1.4-2.3 3.3-2l1.6.1.7-1c.6-1 .7-1.4.7-3.2v-2.1l-.9-.6c-.7-.4-1-.8-1-1.6a43.3 43.3 0 0 0-1.9-7.7c-1.1-3-3.6-5.8-5-5.8-.2 0-.8.4-1.3 1l-1.1.9-1.2.6c-.5.4-1.1.7-1.4.7-1 0-3 1.1-5 2.9l-2.8 2.3-1.7 1.4c-.9 1-1 1-2.4 1-1.5 0-3.1.5-3.1.9 0 .1.7.2 1.6.2 2 0 2.5.4 2.4 2.2 0 .6-1 1-1.9.7-.3-.1-1.6-.3-2.8-.3h-2.2l-1.6 1.3a18.3 18.3 0 0 0-4.3 5.5l-.6 1.3a4 4 0 0 0-.7 1.3c0 .2-.4.7-.8 1-.8.7-.8.9-.7 2 .2 1 0 1.3-.3 1.9-.9 1.1-.4 2.4 1.6 4.3 1.6 1.6 1.8 2 1.2 2.8-.5.6-.3 1 .9 1.7 1.1.6 1.2.6 2 0zM360.6 57a8 8 0 0 1-.5-2.7l-.4-3.7c-.2-1.6.4-2.7 1.3-2.6.6 0 .7.2 1.5 2.6.8 2.5.7 5-.3 6.5-.3.5-1.1.4-1.6 0zm3.6-6c-.4-.7-.4-.8 0-1.4.4-1 1.3-1 1.8-.3.5.6.4 1.5-.3 2-.6.5-1 .4-1.5-.3zm-38.7 20.4 1.3-2a6 6 0 0 0 1-1.6c0-.2.2-.6.5-.8.6-.7 2.2-3.5 2.2-3.8 0-.6-1.2-1.5-2.2-1.8-.8-.2-1.3-.1-2.7.3-1 .3-2.2.5-2.7.5-1.6 0-2.2.6-3.4 3-.7 1.3-1.2 2.6-1.2 3l.6 1.6c.6 1 .8 1 2 1.2.8.1 1.8.4 2.3.6 1.2.6 2 .5 2.3-.2zm43.2-4.3.4-.4c0-.4-.7-.2-1.2.3-.3.4-.4.5 0 .4l.8-.3zm-44.2-8c1.2 0-.2-1.8-1.7-2.1-.7-.2-.9-.4-1.4-1.7-.7-2.2-.8-3-.3-3.7.6-.6 1.5-.6 2 0 .3.2.6.3 1.2.2 1.4-.3 1.7 1 .6 2.7-.4.7-.1 1.3.9 1.5l1.4.5c1.2.8 4.6.8 4.6 0 0-.3-1.5-1.1-2.1-1.1-.7 0-1-.6-.7-1.6l.3-1.7c.2-.8 1.4-1.6 2.4-1.5.5.1.5.3.5 1.6s0 1.4.7 1.5c1.5.2 5.4-3.8 5.8-5.9a6 6 0 0 1 1-2.2 8 8 0 0 0 1.2-1.9c.1-.5.7-1 1.2-1.4.9-.6 1-.8 1.3-2.3.3-1.5.3-1.7-.2-2.6-.5-1-.5-1.2-.3-2 .4-1.2 1.4-1.5 2.4-.8 1 .8 1.3 1.7.8 3.4-.1.7-.4 2-.4 2.7-.2 1.4-.1 1.4.5 1.4l1.4-.2c.5-.3.6-.4.5-1-.3-1 .5-1.9 1.8-2.1 1.5-.2 2-.5 2.4-1.4.3-.5.3-1 0-1.7l-.4-1.1-.2-1.1c0-1 1-2.1 1.8-1.7.8.5 1.6 1.2 1.9 1.8.1.3.4.6.6.6.2 0 .6.3.8.7.5.7.5.7.7.2.4-.9.3-1.4-.4-2.2-.5-.6-.7-1-.7-2s0-1.3-1-2.1a4.3 4.3 0 0 1-1.2-1.8c0-.4-.6-1-1.3-1.6a47 47 0 0 1-3.3-3.2c-2-2-2.4-2.3-3.1-2.3-.6 0-1-.2-1.3-.6-.2-.4-.9-.8-1.6-1-.6-.2-1.3-.4-1.3-.6-.2-.2-1.7-.3-1.7 0l.4.9c.5.8.5 2.2 0 2.7-.6.6-2 .1-3-1-.7-.9-.8-.9-1.2-.5-.3.4-.8 1.2-1.5 2.7-.2.3-.6.4-1.4.4-1.2 0-1.9-.6-3-2.7-.2-.7-.8-1.7-1.1-2.2-1-1.5-1.2-2.5-.6-3.1.6-.7 1.1-.5 2.3.8 1 1 1 1 2.9 1s2.7.4 2.7 1.1c0 .2.2.2.4 0 1-.8 0-4-1.3-5.3-.8-.6-1.1-.7-3.4-1a23 23 0 0 0-3.8 0c-1.8.3-2 .9-2 4.6 0 3.2.3 4.7 1.3 6.4.5.7.4 1.9-.2 2.2-.5.3-.8.1-3-1.7-1-.8-1-.8-2.6.4-1.1.9-1.2 1.3-.4 1.3.8 0 2 1.6 1.9 2.4-.1.3-.5.7-.8 1-.8.5-1.8.2-3-.8-.4-.5-1-.8-1-.7a17.7 17.7 0 0 0-4.4 7.5c-.2.8-.5 1.3-1 1.8s-.8.9-.8 1.5c0 .5-.1 1.2-.3 1.5-.3.5-.4 1.5-.4 2.7 0 1.8 0 2 .8 2.8.8.8.8 1 .5 1.7-.2.4-.3 1-.1 1.2l.4 2.1a91.2 91.2 0 0 0 1 6.2c.2 1.8.5 2 1.3 1.2 1-1 2.1-.7 2.1.5 0 1 .8 1.7 1.8 1.8h4.4zm-4.3-9.3c-.3-.5.3-1.6.9-1.6.7 0 1 .8.7 1.5-.3.7-1.2.8-1.6.1zm-3.8-1.3c-.8-.7-1-1.4-.3-1.9.5-.4 3.5-.2 3.8.3.6.9.2 1.4-1.2 1.8-1.4.4-1.5.4-2.3-.2zm3-3.5a2 2 0 0 1-.6-1l-1.1-2.1c-1-1.5-1.4-3-1.1-4.1.2-1 2.1-3 3.4-3.6 1.3-.7 2-.7 3.9.3l1.6.8.6-.7c.7-1 2-1.5 2.6-1.2.7.4.6 1-.4 2-1.6 1.6-2.2 2.6-2.4 3.9-.2 1-.5 1.6-1.6 2.9-1.2 1.4-3.5 3-4.3 3-.1 0-.4 0-.7-.2zm1.7-7.6c.3-.5-.1-.8-.6-.5-.3.2-.5.4-.4.5.2.3.8.3 1 0zm14.2 7c0-.5.2-.7.7-.5.5.2.4.9-.2.9-.3 0-.5-.2-.5-.4zm-1-1.5-.4-.8c0-.2-.1-.6-.3-.8-.3-.2-.4-.4-.4-.6 0-.6 1.4-1.8 2.2-1.8l1.7-.3c1-.3 1-.4 1-1.1 0-.5-.2-1.2-.7-1.8-.4-.5-1-1.4-1.2-2-.2-.6-.7-1.1-1-1.2-1.2-.3-.6-1.8 1-2.2.5-.1.8 0 1.6.8l1.7 1.4c.4.4 1 1 1 1.6l.8 1.5c.2.3.3 1.3.3 2.4 0 1.7 0 1.8-.8 2.6-1 .9-1.8 1-2.5.2-.5-.6-1.2-.7-2-.3-.5.3-.5.4-.1 1 .3.4.3.6 0 1.1-.5.6-1.4.8-2 .3zm-.9-4.7c-.4-.8.4-1.6 1.6-1.6 1.4 0 1.8.5 1 1.4-.6.8-2.1 1-2.6.2zm-9.1-10c-.2-.8 0-1.2 1-1.2 1.4 0 1.3 1.7-.2 1.8-.5.1-.7 0-.8-.5zm49 23.7c-.1-.2-.2-.2-.2.1 0 .3 0 .5.2.4V52zm-29.9-2.3 2.1-.7c1-.2 1.3-.4 1.9-1.2.7-1.2.7-2.6-.1-2.3-.7.3-3 2-4.4 3.4-1.4 1.3-1.2 1.6.5.8zm8.8-5.4c.3-.3.5-.7.5-1 0-.7 1-1.6 1.8-1.6.7 0 2-1.1 1.5-1.3l-1.4.5-1.3.5c-.4 0-1.7 1-3.1 2.2-.8.6-.9.7-.4 1 .7.4 1.8.3 2.4-.3zm7.9-4.8c.9-.7 1.5-3.9.7-3.9-.7 0-1.5.8-1.5 1.6 0 .3-.2 1-.5 1.4-.4.6-.4.9-.2 1 .5.3.8.3 1.5-.1zm-13.7-23.6c.5-.6 1.6-4 1.7-5.4l.2-1.5-1.1-.9c-1.4-1-5-2.7-6.1-2.7-1 0-2.4 1.3-2.4 2.2 0 .4-.2.9-.4 1.2-.6.7-.5 1.2.7 3.2 1 1.8 1.1 1.9 2 1.7.7 0 .9 0 1.5.8.4.5 1.3 1 1.9 1.3 1.4.6 1.6.6 2 .1zM206.5 127.7c-1.5-.5-2-1.3-1.5-2.3.3-.8 1.2-1 2.2-.5 1 .5 2.7.5 3 0 .6-.6.7-3.1.3-4.7-.5-1.5-1.4-2.6-3.6-4.2-1.3-1-2.2-2-3.3-4.4l-1.2-2.2c-1.9-3.4-2.6-6.1-1.8-7 .6-.5 1-.3 1.4.8l1.4 2.5c1 1.4 3 5.3 3 5.7l2.7 3.2c3.2 3.5 3.6 4.4 3.6 8 0 3.3-.7 4.5-2.9 5.3-1.2.4-1.7.4-3.3-.2zm-151-14c-.1-.5.3-1.2 1-1.5.7-.3.8-1 0-1l-2.3.4c-1.8.3-2 .3-2.3-.1-.2-.3-.2-.8-.2-1 .2-.7 2-1.6 2.6-1.4.2 0 .8 0 1.3-.2 1-.3 1.2-.6 3.2-4.3l2.5-4.3c1.8-3 2-3.7 1.5-4.3-.6-.7-.5-1.2.8-3.7a9.2 9.2 0 0 0 1-2.4s-2.5.2-4.6.6c-.3.1-1.4 1-2.4 2a7.4 7.4 0 0 0-2.3 3.6l-.6 2 1.2 1.3c1.8 2 1.5 3.6-.5 2.4-1.1-.7-1.4-.7-1.6 0-.2.5-1.3.7-1.6.2-.3-.4-1-.3-1.4.3-.4.6-.9.6-2 0-.5-.4-1.3-.5-2.1-.5a7 7 0 0 1-2.5-.6c-1-.4-1.1-.6-1.1-1.3 0-1.3 1.1-1.7 2.2-1 .8.7 1.7.6 2.9-.3 1.7-1.1 2.3-3.1 2.3-7.2 0-2-.1-3.2-.3-3.3l-1 .1a62.4 62.4 0 0 1-13.2 3c-2.4.4-3.7.3-4.1-.3-.6-.8-.3-1.5.7-2.1l1.4-1.1c.6-.7 2.2-1.4 3.9-1.7.7 0 1.6-.3 2.2-.5.5-.3 1.1-.4 1.4-.3.3.1 1.4-.1 2.5-.5a15 15 0 0 1 2.5-.7c.8 0 3.5-.7 4.1-1.2.8-.5 1.3-2 1-3.3a9.3 9.3 0 0 0-2.3-4.6c-.5-.4-1-1-1-1.2 0-.3-.2-.8-.6-1.2l-1.5-2.2a12.8 12.8 0 0 0-4.4-4.3 23 23 0 0 0-7.1-1.3c-1.4 0-6.2 1.1-6.9 1.6l-8.4 7a53.9 53.9 0 0 0-7.7 8.5c-1 1.5-3.6 4-7.1 6.6-1.6 1.2-2.4 1.7-3.1 1.7-1.4.2-1.8-.3-1.3-1.4l.3-1.3c0-.2 1.2-1.5 2.7-2.8 3.6-3.5 4.3-4.2 5.4-5.9 1.4-2 3-3.8 8.1-9.2 2.5-2.5 5-4.8 5.6-5.1.6-.3 2-1 3-1.7 2.4-1.5 4.3-2 7.6-1.9h2.6l1-1c1.2-1 1.9-1.1 2-.1.2.9.8 1.6 1.5 1.6 2.5 0 8.9 4.7 11.1 8l1.3 1.7c.4.2.7-.4.9-1.7 0-.5.5-2.3 1-3.8a39.8 39.8 0 0 0 2-7.3c.1 0 .4-.8.5-1.5.2-.8.5-1.6.7-1.8.2-.2.7-.9 1-1.6.4-.7 1.1-1.7 1.6-2.2.6-.6 1-1.3 1.1-1.7.2-.8.3-1 1.7-3.4.5-.8 1-2 1.1-2.8.1-.7.4-1.6.7-2 1-1.2 1.4-2.3 1.4-3 0-.5.1-1 .3-1.2.4-.4.8-2.8.8-5.2 0-1 .3-2.3.5-2.8.3-.9.3-1.1-.6-4.7-.2-.8-.2-1.3 0-1.9.5-1 .2-1.8-1-3-1.1-1.2-.9-1.7.7-1.3 1.7.5 3 .4 4.1-.4 1-.7 4-1.2 5.3-1 .5.1 1.3-.2 2.7-1 2-1 2.2-1 4.6-1.2 2.8-.1 3.6 0 4.8 1.3.4.5.6 1.1.8 3.2.2 1.8.1 2.9 0 3.4a2 2 0 0 0 0 1.6l.3.8h2.3c1.3-.1 2.7-.1 3.2 0 1 0 2.7-.9 5-2.9l2.5-1.7c1-.5 1.1-.5 2.2 0 1.2.4 2 1.2 3.3 3.3.5.8 1 1.4 1.7 1.6.6.3 1 .6 1 1 0 .2.4 1 .9 1.6.5.6 1.3 1.8 1.7 2.7.5 1 1 1.6 1.6 1.9.4.2.8.6.9 1 0 .2.5.7 1 1l1 1.4c.4 1.1 1.1 1.3 3.5 1a41 41 0 0 1 9.4 1c1 .1 2.5.6 3.3 1l1.6.7.5-.6.5-1c0-.4 1.2-3.2 1.5-3.4.2 0 .4-.6.6-1.1.2-.6.7-1.4 1.2-2 1-1 1-1 1.4-4.2a27.2 27.2 0 0 1 .8-4.1c0-.3.4-1 1-1.7a6 6 0 0 0 1-1.8c.6-2.6 1-3.6 1.6-4.7.4-.6.7-1.4.7-1.6 0-.3.3-1.2.8-2.2.4-.9.7-2 .7-2.5 0-2 1-2.8 3-2.8.6 0 1.3-.3 1.8-.7 1.8-1.2 3.3-.7 6 2 2 2.3 2.6 2.4 4.3 1.1 1.6-1.3 2.2-1.4 4.3-1.4 2.4 0 3 .3 4.4 2.2.6 1 .8 1.7 1 2.9 0 .9.3 2 .5 2.5l1 2.8c1.3 3.8 1.7 4.7 2.4 5.5.4.5.6 1 .5 1.4 0 .4.1.7.7 1.3.5.4.8 1 .8 1.3 0 .8-.5 2-1 2.6-.3.3-1 1.8-1.4 3.4l-.9 3.3c0 .3.1.5.6.7 1 .5.8 1.5-.5 1.7a4 4 0 0 0-2.4 1.4c-.4.6-.1 1 1 1.1 2 .3 4.2 3.2 2.9 3.7-.3.1-.6 0-.8 0a10 10 0 0 0-3.4-2c-.9 0-1 0-1.5 1.2l-1.1 2a4 4 0 0 0-.5 1.7c0 1-.7 3.5-1.9 6-.5 1-1 2.8-1.2 3.9l-1 4.9a25 25 0 0 0-.7 7v4.1l-1.2 2.4a29.9 29.9 0 0 0-1.9 4.7l-.5 1.7-1 3.4c-1.8 4.3-2 6.2-.8 7.4.4.4 1 1.5 1.5 2.4 1.2 2.3 1.2 2.3 3 2 2-.1 2.9.3 4.5 2 1.2 1.4 1.2 2.5.2 3.3-.6.4-.9.5-1.8.2-1.3-.3-3.2-.4-5.5-.1-1.6.1-2 .1-2.6-.2-.8-.5-3.8-1.2-6.4-1.4-1.2 0-3-.3-4-.6-1-.2-2.6-.3-3.6-.3-1.6 0-1.9-.1-2.5-.7-.3-.3-.6-.8-.6-1 0-.6.7-1.4 1.7-2 .8-.5 1.1-.6 3.5-.4l2.7.2-.4-1.4c-.5-2-1-2.7-1.9-2.6l-2.6.3c-1 .1-2.5.5-3.4.8l-2.3.8c-1.8.5-5.5 2.6-7.8 4.6-2 1.8-2.4 2.3-2.7 3.3-.4 1.4-.9 1.8-3.2 2.3-.8.2-2 .6-2.7 1-1.7.8-3 .8-3.5 0-.4-.7-.7-.7-2-.7h-1.6v-1c0-1 1.2-2.2 2.6-2.8l1.8-1.2c.4-.5.9-.9 1-.9a55.4 55.4 0 0 1 4-3.6l1.8-1.7.1-4.5.2-5.7c.2-1.5-.1-2-1.9-2.7-.8-.3-1.7-.7-2-1-.5-.3-1-.3-2.6-.2a49.6 49.6 0 0 0-13.7 2.8c-1.8 0-3.5 1.3-3.5 2.8 0 .3-.1.7-.3 1a8 8 0 0 0-.7 2.4c-.1 1-.4 2-.7 2.2l-.4.8-.4.6c-.6.5-1.8 3-2.2 4.6l-1.1 2.8-.8 1.8c0 .2.5.5 1.1.8 1.4.7 2.4 1.4 3.7 2.6a4 4 0 0 0 2.5 1c3 .4 5.8 2.2 5.6 3.7 0 .7-.2.8-.8.9-.5 0-1 .2-1.1.3l-3 .4a52.6 52.6 0 0 1-14.2.7l-5 .1c-1.3.1-1.5 0-2.1-.5-.4-.4-.7-.9-.7-1.1 0-.6 2.3-2.2 3.7-2.5 2.7-.7 3.2-1 2.9-1.3l-1-.4a4 4 0 0 1-1.1-.5c-1-.8-1.7-1-2.8-1-.7 0-2.1-.2-3.2-.5a44.5 44.5 0 0 0-12.3-.6c-.6 0-1.6.3-2.3.7l-2 .8c-.4 0-.8.4-1 1.2a6 6 0 0 0-.5 1.5c0 .3 0 .6-.2.7l-.6 1.4c-.5 1.6-1.7 3-3 3.3-.6.2-1.2.6-1.4.8-.5.6-1.9.6-2.1 0zm44-7.2c-.7-.9-2.9-2-3.2-1.7-.1 0 .2.6.8 1.2.7.8 1.4 1.2 2 1.3h1.1s-.2-.4-.7-.8zm-4.5-2.8c-1-1.1-1.5-2.5-1.1-3.4.2-.5.1-.7-.2-.7l-1 .3c-.2.2-.8.2-1.1.2-.5-.2-.6-.4-.6-1 0-.4 0-.8.2-.8a31 31 0 0 0 3.6-3.2l3.2-3.3 1.3-3.7c.7-2 1.3-4.2 1.4-4.9.1-1.3.7-2.8 1.4-3.5.7-.8 1.9-3.6 1.8-4.2 0-.4-.3-.6-.9-.7-1 0-2.7-.8-3.5-1.4-.4-.3-1-.5-1.3-.5a11 11 0 0 1-4.8-1.7c-.9-1-.8-2.7.2-3.1l1-.6c1-.5 1.3-.3 1.9 1 .6 1.5 1.2 1.8 4.2 1.8 2.4 0 3.6-.4 6.8-2 .7-.3 2.2-.8 3.5-1 2.4-.3 3.6-1 1.7-1-1.4 0-4.9-.7-5.8-1.1l-1.7-.6c-.5 0-1.2-.4-1.6-.7l-.6-.5.6-1.1c.4-.9.6-1.4.4-2-.2-1-1.5-2.1-3.2-2.7-1.1-.5-1.7-.8-1.9-1.3a3 3 0 0 0-.8-1c-.7-.5-.7-1.6.1-2.4.8-.8 1-.8 2.3-.1a5 5 0 0 0 1.4.5c.4 0 2.6.9 4.6 1.8 1.2.5 2.1.4 4-.4 2.7-1.3 3.9-3 2.2-3.4-2-.4-2.8-1.6-1.8-2.6.5-.5 1-.7 1.9-.7 1 0 1.2 0 1.5-.6.1-.3.6-.9 1-1.3.8-.5.9-.8.8-1.7 0-.7.2-1.4.5-2 .6-1 .6-1 .2-2-.8-2.1-2.8-3.8-2.8-2.4 0 .3-.4 1-.8 1.4-1.4 1.6-2.9 1.4-3.6-.6-.8-2.2-.8-2.5.1-3.3.5-.4 1.1-.7 1.4-.7.4 0 .5-.1.3-.7 0-.4-.3-1-.6-1.4l-.7-1.2c-.1-.2-.8-.6-1.5-.8-1.8-.5-4.1-2.5-4.5-4 0-.2 0-.8.3-1.2.4-1 .3-1.1-.9-1.7-1-.5-1.8-.3-2.3.7-.4.7-.4.8.2 1.6.3.5.9 1 1.3 1.2 1.4.8 1.1 2.5-.5 2.5-1.4 0-2.5.6-2.5 1.5 0 .8-.5 1.7-.9 1.7-.2 0-.6-.3-.8-.6-.5-.5-1-.4-1 .3a8 8 0 0 1-1.4 2.2c-1.2 1.4-1.6 1.8-2.3 1.8-.5 0-.9-.2-1.2-.7-.3-.6-.3-.8 0-2.6l.6-3.5c0-.9.3-1.7.4-1.9.2-.3 0-.3-.8-.3-1 0-1.1 0-1.8 1-1 1.7-1.4 2.8-1.8 5-.6 2.7-.5 3.4.3 4.1 1.8 1.5 2.6 5 1.2 5.2-.3 0-.9-.2-1.4-.6l-1-.7c-.4 0-1 1.1-1 1.9v.7l2.8.1c4 .2 6.4 1.3 5.3 2.5-.4.4-.7.4-2.6 0-2.4-.3-5.4-.2-6 .4-.3.2-.4.9-.4 2.6 0 2.5-.3 3.5-1.2 3.7-.7 0-1 .6-1.3 2 0 .4-.7 1.3-1.4 2-1.6 1.6-3 4.2-3.6 6.5a6.2 6.2 0 0 1-1.5 3.2c-.6.6-1.4 1.9-1.7 2.8a95.3 95.3 0 0 0-4 13.3c-.3 4.1-.4 4.9-1 5.4a14 14 0 0 0-2 3 41.9 41.9 0 0 1-2.3 4.1c-.1.2-.5 1-.7 1.9-.3.8-.9 1.8-1.3 2.3-1.5 1.8-2 3.8-.6 2.5.5-.6 4.4-2.2 5-2.2.5 0 4.3-3 4.8-3.7l.4-1.3c0-1.2.5-2.1 1-2.1.6 0 1.4 1.5 2 3.7.3 1.5 1.3 2.9 2 2.9.3 0 .8.2 1.2.5.8.7 2.4.7 4.5 0 2.6-.8 4.6-.5 4.6.8 0 .6 1.7 2 3 2.5 1.3.6 3.5 1.2 3.7 1 .1 0-.1-.5-.5-1zm1.7-52.4c-.5-.5-.8-.6-1.5-.4-1 .1-1.6-.3-1.6-1 0-1.2 4.7-2 5.8-1 .7.7.7 1.8 0 2.5-.9.8-2 .8-2.7 0zm2.1-7c-.6-1-.6-3.5 0-4.4 1-1.3 2.7-1.2 4.1.1.6.6.8 1 .8 2.1 0 1.3 0 1.4-1 2-.5.3-1.5.6-2.2.7-1.1.1-1.3 0-1.7-.5zm60.7 53.8a17 17 0 0 0-2.9-4.1c-2-2.4-2-3.5 0-9 .4-.9.9-2.2 1-2.8l.9-1.8c.2-.3.5-.7.5-1 0-.2.3-.6.6-.9.4-.3.7-.8.7-1.2 0-.4.3-1.1.6-1.6 1-1.3 1.3-2.7 1.4-5.6 0-2.8.4-5.2 1-7 .9-2.4.4-2.9-1-1a4 4 0 0 1-1 1 14 14 0 0 0-2.6 2c-.3.3-1.9.6-3.4.6-2.3 0-3.3.3-4.4 1.2l-2.2 1.4c-1 .5-3.2 2.8-3.2 3.4 0 .5.7 2.7 1 3.3.3.3 1 1 1.9 1.5a12 12 0 0 1 2 1.4c.4.5.6 2.4.2 3-.3.4-2 1-3.1 1-2.1 0-5.8-2.4-6.6-4.4a53 53 0 0 1-.9-9c-.1-2.2-.2-2.7-.7-3.2-.8-.7-2.1-1.4-2.8-1.4-.7 0-2.4 1.7-2.6 2.6 0 .4-.8 1.9-1.5 3.2-2.1 4-2.2 4.3-2.6 7.1l-.6 3.1c-.1.2 0 .4.6.5 1.1.3 1.2.8 1 4.4-.1 2-.1 3 .1 3.5l.3.5.6-.5c.6-.6.7-.6 1-.2.6.6.6.7-.2 2.3-.7 1.5-1.9 3.2-3.4 4.7-.5.6-1 1-1 1.2 0 .3 1.4 0 1.8-.4a37.3 37.3 0 0 1 7.8-4.1c5.5-2.7 11.6-3.2 13.5-1 .4.5.8 1.2.8 1.5 0 .7 1.6 2.3 2.2 2.3a15 15 0 0 1 4.3 3c.4.7.9 1 .9.5zM52.9 96.6l.5-2.3c.3-2 .9-2.8 2.2-3.3.5-.2 1.5-.7 2-1.2.7-.6 1.6-1 2.6-1.3 2.6-.6 3.3-1 3-1.2-1.5-1-6.3-1.4-8.1-.5-.9.4-1 .7-1.1 1.4 0 .6-.3 1-.9 1.2-.6.4-.7.6-.8 2.2a42 42 0 0 0 .2 6c0-.3.2-.7.4-1zM58 83.3h-.5c-.2.1-.2.2.1.2.3 0 .5 0 .4-.2zM69 82l.4-1.7 1-3.6 1.4-4.6c.2-.8.6-2.2 1-3a377.9 377.9 0 0 0 3.5-7.4 14 14 0 0 1 4-6c.4-.3.8-.7.9-1l.4-1.6a6 6 0 0 1 1-2 3 3 0 0 0 1-2v-1.2h-1.3c-.8 0-1.9.2-2.6.4l-3 .5c-1.4 0-1.7 0-1.9-.4-.3-.7.3-1.3 1.4-1.5.6 0 1.9-.4 2.9-.7a123.6 123.6 0 0 1 4.7-1.6c.2-.1.5-1.1.7-2.2l.7-3c1.3-4.3 1.7-5.9 1.7-6.5 0-.6.4-2.5 1.2-5.3.2-.6-.6-1.3-1.5-1.3-.4 0-.8-.2-1.1-.6-.2-.3-.8-.8-1.4-1-1.2-.7-1.4-1.5-.7-2.1.4-.3 1-.5 1.3-.5l1.1-.2c.7-.4 1.2-2 1-3.1-.3-1.3-1.4-1.8-4-1.7-1.5.1-1.9.2-2.3.8l-1 1.2c-.2.3-.4 1.4-.6 3.4-.2 3.2-.8 6-1.3 6.6a1 1 0 0 1-1.5.1c-.2-.2-.5-.1-1.1.4-.5.4-1 .7-1.2.7-.7 0-1.2-1.1-1.2-2.7 0-1.4 0-1.6.8-2.3.4-.3.8-.8.8-1 0-.6 1-.9 1.5-.4.8.5 1.1.2 1.1-1.1 0-.9-.2-1.5-.8-2.4-1-1.5-1.6-1.7-3.2-1.2-1.4.4-3.1 3-3.1 4.7 0 1.5.7 4.8 1 5.2.4.4.4 1.3 0 1.7-.2.2-.5.2-.9 0-.7-.2-.9.2-.7 2a6 6 0 0 1-.3 2.4 4 4 0 0 0-.3 1.8c.1.3 0 .6-.1.8-.4.5-1.4 3.1-1.4 3.8 0 .3-.2.7-.5 1-.3.2-.5.7-.5 1a771.7 771.7 0 0 0-2.6 5.5 54 54 0 0 1-2.7 4.5c-.8 1.2-1.8 2.9-2 3.7-.6 1.6-1.7 5.7-1.6 6.4l-.7 1.8a34.4 34.4 0 0 0-2 14l.3 2 1-.2c2.1-.4 4.3-.4 5.4 0 .6.2 1.4.3 1.9.3.8 0 3.7 1 4.7 1.6.7.4.8.2 1.3-1.2zm2.3-35.4c0-.6 2-2.3 3-2.5 1.7-.4 3.5-.3 4 .2.4.4.4.4 0 .7a7 7 0 0 1-2.2.5c-1.1.1-2.2.4-2.9.8-1.2.8-2 .9-2 .3zM68 44.4c-1-.4.1-1.6 2.8-2.9 1.6-.7 2.2-.9 3.3-.8 1.2 0 1.4.1 1.5.6 0 .5-.1.7-1 1-1.7.4-4 1.3-5 1.8-.7.5-1 .6-1.6.3zm11.7-5.3c-1.5-.7-1.9-2.5-.7-3.2a2 2 0 0 0 1-1.1c.1-1 1.1-1.5 2-1 .5.3 1.8 2.8 1.7 3.3-.3.5-2.1 1.9-2.8 2h-1.2zm29 37.5c3.9-1.7 9.3-2.6 13-2.1a18 18 0 0 1 5.7 1.6c.2 0 .6-1.7 1.1-4.6a131.2 131.2 0 0 1 1.3-7.2c-.2-.1-4.4-.3-4.6-.1-.2 0-.5.5-.9 1a6 6 0 0 1-1.5 1.4l-1.6 1.1c-.6.5-1.5.7-5.4 1.2l-2.4.5c-.4.2-1.2.3-1.8.3-1.2 0-1.5.2-2 1.6a23 23 0 0 1-3 4.9c-.6.4-.7 1.5-.3 1.5l2.5-1zm34.4-10.3c0-.9.1-1.6.2-1.7.4-.3.4-1.5-.1-4s-.4-3.6.4-3.6c.3 0 .6.2.7.3 0 .1.3.3.5.3.3 0 .4-.4.4-1.6l-.2-1.8a8 8 0 0 1-1.4-2.7c0-.2-.2-.8-.5-1.2-.7-1.4-3.7-4.9-4.7-5.6l-3.5-2.5c-1.4-1.1-4.9-1.9-10.2-2.4-2.8-.2-5.2-.1-5.2.3 0 .7.6.8 2.5.7 1.8-.2 2-.2 2.2.2.3.9-.3 1.3-2.2 1.7l-1.8.4-.3.8c-.1.6 0 .7.3.7a3 3 0 0 0 1.2-.4c.8-.4 3-.5 3.3-.1v.8c-.1.4-.4.5-1.8.5-1.5 0-1.7 0-2.5.8-.5.5-.9 1-.9 1.2l-.7 2.4a7 7 0 0 1-1.9 3.5 26.9 26.9 0 0 1-4.2 3.5c-.8.5-.8 1.3-.2 2 .6.6 1.3.4 1.8-.4.3-.6.6-.8 1.3-.8.4 0 .8 0 .8.2 0 .7 1.7 1.8 3 2.1.9.2 1.8.6 2.2.8.8.5 1.5.3 1.6-.5.3-1 1.2-1 1.7-.1.3.4.7.6 1.1.6.6 0 .7 0 .7-1.2 0-1.9.2-2.5 1-2.5.4 0 .5.2.7 1 .2 1.3 1 2.2 2 2.2.4 0 .9.2 1 .4a4 4 0 0 0 3 1 7 7 0 0 0 2-.9c1.6-1 2.8-1 4.2 0 2 1.4 2.3 1.8 2.1 4 0 1.1-.2 2.3-.3 2.6-.1.4 0 .6.3.6s.4-.3.4-1.6zm-28.3 0a1 1 0 0 0-.6 0c-.2.2 0 .2.3.2.4 0 .5 0 .3-.1zm35.7-2 4-1c1.5-.2 3-.7 3.5-.9.7-.3 1.6-1.5 2.3-2.8.2-.5 1-1.4 1.6-2 1.4-1.3 2.7-3.8 3-5.4 0-.5.3-1.3.5-1.8l.7-2 .8-2 1-2.2c.7-1.5.7-1.8.4-2.2-.5-.7-.4-1 .6-1.6 1.1-.5 1.4-1.2.5-1.3-.4 0-1.1.3-2 1.2a10 10 0 0 0-1.5 1.4c0 .1.2.3.5.3.8.1 1 .9.4 1.6-.3.2-.4.6-.3.9 0 .2-.2.6-1 1-3.2 2.1-7 2.2-12 .5-.4-.2-1.3-.5-2-.6-1.7-.5-5-2.1-5.2-2.6 0-.2.1-.6.5-.9.6-.5.6-.5.2-1-.3-.2-1-.4-1.9-.4-.8 0-1.7-.3-2.4-.6l-1.4-.6c-.4 0-2.4 2.1-2.4 2.5 0 .2.6.8 1.4 1.4a13 13 0 0 1 2.3 2.4l1.6 2a33 33 0 0 1 3.2 7.5 4 4 0 0 1 0 1.8c-.6 1.5-.1 1.8 1.9 1.6l3-.2c1.5 0 1.5 0 1.6.7 0 .8-.9 2-2.2 2.7a5 5 0 0 0-1.2.9l-1 .6c-1 .2-1.2.5-1.6 1.3-.5 1.2-.4 1.3.4.7a8 8 0 0 1 2.2-.9zm-31.2.5h-1l-.9.1c0 .1.4.2 1 .1.5 0 .9-.1.9-.2zm-5.3-.6c0-.2.2-.3.5-.3s.5-.2.5-.4c0-.5-.6-.5-1.8 0-1.1.3-1.5.8-.9 1 .6.2 1.7 0 1.7-.3zM156 43c-.3-1.3.2-2.3 1.4-2.6 1.1-.3 1.7 0 2 1 0 .4.3 1 .6 1.2.4.4.6.4 1 .1l.9-1c.4-1 1-1.3 2-1.3.6 0 1-.2 1-.4.3-.7 3.7-3 5.1-3.5 1.7-.5 2.2-1.1 2.2-2.8 0-.9.2-1.5.7-2.2 1.4-2.2 1.6-3.8 1-7.8-.4-1.9-.7-2.6-1.7-3.6-.6-.8-.8-.9-1.5-.7-1.2.2-1.4-.4-1.1-4.2.2-3.4.1-4.5-.6-5.2-1-1-2.6-.6-3.5 1.1-.6 1-.6 1 0 1.3 1 .6 1.6 1.5 1.8 2.5l.3 1.9c.1.7 0 1-.3 1.2-.6.5-1.1.3-2.1-.7-1.2-1-3-2-4.3-2-2.9-.1-3.5-.4-4.2-1.3l-.6-1-.2 1.3c-.2 1.4-.6 2.5-1 2.5l-.8.7c-.3.4-.9.9-1.3 1-.4.3-1 1-1.2 1.5-.6 1-1 1.3-1.7 1.1-.4-.1-.5-.3-.3-1l.3-2.5c.2-1.3.4-1.8.9-2.2.3-.3.9-.9 1.1-1.3.2-.4.8-.8 1.2-.9.4 0 1-.4 1.3-.7.4-.3.8-.5 1.2-.4.6.1.7 0 .7-.7 0-.5-.2-1-.5-1.4-.5-.5-.8-.6-1.6-.4-.5 0-1.3.5-1.7.9a8 8 0 0 1-1.4 1c-.4.2-.7.8-1 1.8-.3.9-.8 1.8-1.2 2.3-.8.8-1.7 3.5-1.5 4.7 0 .5.3.7.8.8 1.2.1 1.2 1.3.3 2.8-.7 1-.9 1.1-1.7 1h-1l-.1 2.9-.4 3.9c-.2 1 .4 2.5 1.2 3 .3.2 1.1.5 1.8.6 1.5.1 2.2.7 2 1.4-.1.4 0 .5.6.5.7 0 .8.1 1.1 1l.3 1.7c0 .7-.7 1.5-1.3 1.5-.3 0-.5.2-.5.4 0 .3.3.4.7.4.4 0 1.3.3 2 .7 1 .6 2.1 1 2.7 1.2v-1zm8.3-10.1c-.6-.6-.7-.9-.7-2 0-1.6.6-2.6 1.9-3.1 1.4-.6 2.2-.5 3 .4 1 1.1 1 2.4 0 4-.8 1.3-.8 1.3-2.1 1.3-1 0-1.5-.2-2-.6zm-12.4 0c-1.7-.2-1.7-.3-1.5-2.4.2-2.4.7-3.1 2.3-3.1.5 0 1.2.1 1.5.3 1.2.6 1.7 3.3 1 4.7-.5.9-1 1-3.3.6zm10-7.1c-.8-.9 0-2.6 1.2-2.6s1.5 1 .6 2.2c-.6.7-1.3.9-1.8.4z"/>
</svg>
