<?xml version="1.0" encoding="utf-8"?>
<svg xmlns="http://www.w3.org/2000/svg" xmlns:svg="http://www.w3.org/2000/svg" version="1.1" viewBox="0 0 449 231">
  <title>Stumpy, the piglet with a very small tail, runs past four hens.</title>
  <path d="M65.7 230.2c-1.7-.2-2-.4-2-1.5l.1-.7 5-.2c2.6-.1 5.2-.3 5.7-.5 1.6-.4 5.1-2.3 5.8-3l.7-.7h-1.3l-3-.4c-1.8-.4-2.5-.3-7 1-.8.3-1.9.5-2.4.5-2 .3-4.2.7-4.5 1-.4.3-4 .3-5.3 0-.7-.2-1.1-.2-1.6 0-.3.2-1.1.4-1.9.4-1.7 0-4.2.6-5.5 1-.9.4-1 .4-1.3-.1-.4-.6-.4-.7.1-1.2.7-.8 2.3-1.3 4.9-1.7l3.1-.7a9 9 0 0 1 4.9.2 7 7 0 0 0 2.6-.2 801.7 801.7 0 0 1 9-1.8c3.2-.6 3.5-.6 6.3-.4 5.5.6 5.2.5 5.5 1.3.3.7.4.8 1.9 1 1.6.1 2 0 2.3-1 .1-.4 2.8-1 5.1-1.2 2-.2 2.2-.1 2.5.4.4.6-.2 1.3-1.2 1.5l-1.4.3c-.6.1-.6.1-.1.4.6.5.3 1.4-.6 1.8-.5.2-1.5.2-4.1 0-4.7-.4-5.7-.3-7.6 1a15.6 15.6 0 0 1-4.5 2.6c-1 .3-2.6.5-4.8.6l-3.6.3h-1.8zM40.8 228c-1.1-.4-1.9-1.3-1.5-2 .2-.3.9-.4 3.5-.5 3.1 0 3.2 0 3.5.6.2.5.2.7 0 1-.8.9-3.9 1.4-5.5.9zm54.3-1.1c-.9-.5-1.4-1.6-.9-2 .3-.4.6-.4 1.4-.2 1 .3 2 .2 7.6-.9 1.6-.3 6.6-.1 8.2.3.4.2 2.8.3 5.3.2 4 0 4.5 0 4.8.4.4.5.2 1.4-.2 1.7-.5.3-8.6.1-10.4-.3-1-.2-3.2-.4-5-.4-2.6 0-3.5.1-5 .6-2.4.8-4.8 1-5.8.6zm47.8-.7-2.3-.2c-.9 0-1.4 0-1.5-.3-.7-1.1.6-1.9 3-1.9 1.5 0 2 0 2.7-.6 1-.9 1.6-.8 2 0 .1.4.4.6.6.6.2 0 .5.3.8.5.3.4.3.6 0 1.1-.2.6-.5.7-2.3.8h-3zm-20.2-4c-.3-.1-2-.2-4.7-.2-3.9 0-4.4 0-4.7-.4-1-1.2.6-2.2 3.1-1.9 4.6.6 7.8.7 9.6.2 2.5-.6 4.7-.8 5.6-.4.5.2 1 .5 1 .8.4.8-.3 1-3 1.2-1.4.1-2.9.3-3.2.5-.8.4-3.3.6-3.7.3zm246.6 0c-.6-.5-.7-1.3-.2-1.7.2-.2 1.1-.4 2.1-.4 1.5-.2 2.2-.4 3.4-1.1 1.7-1.1 2.2-1.2 3.3-.4.6.4 1.2.5 2.7.5l2.3.1c.6.3.5 1.1-.2 1.6-.8.5-4 .7-4.9.3-.7-.2-1.2-.1-3.4.6-2.8 1-4.2 1-5 .4zm15.3-1.5c-.4-.4-.4-.7-.3-1.1.2-.6.4-.6 3.8-.7l7.1-.2c4.3-.2 5 0 5 1.2 0 .5-.1.8-.5 1h-4.6l-7 .1c-2.7.2-3 .1-3.5-.3zm-277.4-1.9-1.3-.2a5 5 0 0 1-2.1-.6c-1.1-.7-1.9-.7-8.8-.5-2.7.1-4-.3-6.8-2.2l-1.7-1a3 3 0 0 1-1-.6c-.4-.4-1.2-.8-1.7-1l-1.7-1c-.4-.4-1.5-1.1-2.5-1.6l-2.2-1c-.5-.3-1-2-1.3-4.7-.4-2.8-.9-4-1.5-3.7l-2.2.4-4 .7a23 23 0 0 1-8.9-.2c-1.6-.7-3.5.4-3.5 2.1 0 .3-.3.9-.6 1.3-.4.4-1 1.2-1.3 1.8-.7 1-.8 1.2-1.8 1.2-.9 0-1.1 0-1.3.6-.1.4-.7.9-1.1 1.1l-1.4 1c-1 .9-2.3 1.2-5.1 1.1-2.1 0-2.8 0-3-.4-.5-.8.1-2 2.3-4.6.7-.7 1.4-1.7 1.7-2.3l2-3c1-1.6 1.5-2.5 2-4.3 1-4.2 2.6-6 5.7-6.4 3.6-.5 6.7-1.5 6.7-2.3 0-.4-1.3-1.2-2-1.2-.2 0-1.1-.4-2-1-1.6-.9-1.6-.9-3.8-.7-3.3.3-5.6-.3-8.3-2.1l-2.8-1.7-2.3-1.3c-1-.6-2-1.1-2.3-1.1-.4 0-1.6-.5-2.7-1.1-2.5-1.4-4-2.1-7.8-3.4-3.2-1.1-4.1-1.8-5-3.8-.7-1.4-.6-2 .4-2.6.9-.4 1.8-1.3 1.8-1.7 0-.2-.7-.7-1.4-1-.8-.4-1.6-1-1.6-1.2-.2-.4-1.2-1.4-3.8-3.7-.4-.3-.7-.9-.8-1.3 0-.5-.4-.9-.9-1.1l-1.5-1c-.6-.6-1.2-.9-1.7-.9-2.3 0-3.7-1-3-2.4.5-1 1.3-.9 2.7.4.7.7 1.5 1.3 1.8 1.3.3 0 1 .3 1.5.7.5.5 1.1.8 1.4.8.2 0 .4.2.4.3 0 .1.2.3.5.3s.6 0 .7.2c.1.2.3.3.5.2.5-.2 2.9.9 3.7 1.7 1.8 1.6 3.2 2 5.8 1.4 2-.3 3 .6 2.9 2.5 0 .7 0 .9 1 1.3 1.6.9 2.1 1.7 2.2 3.2 0 1.5-.5 2.6-1.4 2.8-1.2.4-2.2-1.4-1.8-3 .3-1.1.1-1.3-.5-.4-.2.3-.6.7-1 .7-.2 0-.6.2-.8.6-.3.5-.7.7-1.2.7-1 0-1 .2-.9 1.1.1.5.3.7.8.7.3 0 .8.3 1.1.6.4.4 1 .6 2.7.8 2.6.2 3.9.6 4.9 1.4.5.5 1 .7 2 .7.6 0 2 .3 3 .7 1.4.5 2 1 3.1 2.2 2.3 2.7 4.8 4 6.7 3.3.8-.2 1.1-.2 1.8.2s1.1.5 2.8.3c1.1 0 2.2-.3 2.4-.4.1-.2.7-.5 1.2-.7l1.4-1.5c.3-.6.9-1.2 1.3-1.4.9-.3 1.6-1.8 2-4 0-.8.3-1.6.5-2 .2-.3.5-1.1.6-1.8 0-.7.3-1.3.7-1.5.3-.2.5-.6.5-.9 0-.8-1-2.9-2-4.1-.7-.7-1.1-1.4-1.1-1.7l-.8-1.4c-.6-1-.7-1.3-.7-2.9 0-1.5 0-1.7-.4-1.7-.8 0-.6-.9.3-2.3.5-.9.7-1.5.6-2-.1-.5 0-1.1.5-2 1-2.1 2-5.1 2-6.3 0-2-1-3.6-5.4-8.2-.8-.9-2-2.4-2.5-3.3-1.2-2-3.3-4.5-3.8-4.5-1 0-2.3 4-2.6 7.8 0 1.6-.3 3.3-.4 3.8-.3 1.5.2 3 1.4 5 .7 1 1.4 2 1.6 2 .5.5 1.2.2 1.2-.4 0-1 .5-1.6 1.3-1.6l1.7-.4c.8-.4 1-.4 1.5 0 .8.5 1.5 2.5 1.5 4 0 .5.2 1 .4 1.3.5.5.6 1 0 1-.2 0-.9.7-1.5 1.7-1 1.4-2.1 2.3-2.4 2l-1-2.2c-1-2-1.4-2.4-2-1.7-.3.2-.7-.1-2.1-1.6-1-1-2.3-2-2.8-2.3-1.3-.7-1.4-1-1.7-4.8-.1-1.9 0-2.9.2-3.3.1-.3.2-.9.1-1.2-.1-.5-.3-.7-1-.7-1 0-4 1-6.1 2-1 .5-1.9 1-2.2 1l-2.3 1.3-2.2 1.3c-.3.1-1.2.9-2 1.6-2 2-2.8 2.6-4 3-.8.1-1 .4-1.4 1.1-.4 1-1 1.4-1.5 1-.1-.2-.5-.4-.8-.4-.2 0-.7 0-1-.3-.3-.2-.6-.2-1.4.2-.5.2-1.8.6-2.9.7-1.7.3-2 .4-2 .9-.1.4-.5.7-1.3 1-1.3.4-2 .1-2.1-1-.2-1.2-2.4-1.1-2.8.2-.2.4-.4.5-1 .3-.3 0-1.4 0-2.3.3-1.5.2-1.8.4-1.8.9-.1.4 0 .6.5.6.4 0 1 .2 1.3.4.5.5.6.6.3 1.7-.3 1.6-1.1 1.7-2.8.2l-2-1.4c-.4-.2-1.2-.9-1.7-1.5-.8-.9-1-1.2-.9-1.8.3-1.2.8-1.4 3.3-1.7 2.3-.3 2.4-.3 2.7-1.1.2-.8 1.4-1.7 2.1-1.7l.9.4c.7.7 4.8 1.1 7.8.8h4c1 0 1.3 0 1.5-.4.2-.3.8-.5 1.5-.6a12.7 12.7 0 0 0 7.4-4.6c1.3-1.4 2.8-2.8 3.4-3 1.5-.8 1.9-1.5 1.6-3.4-.3-3 .5-8.6 1.7-11.3.6-1.4 3.2-4.1 4-4.1 1-.1 1.6 0 2.3.7.7.7.9 1.1 1.6 3.6.3 1 .7 2 1 2.4l.7 1.9c.5 1.4 1 2.3 1.4 2l.6-1 1.4-2.5c1.1-1.8 1.6-1.9 3.4-1 1.2.5 3.2 3 4 5 .2.7.8 1.6 1.2 2 1 1 .9 1 5.1 1 3-.1 8 .3 12 .8l7.9.8a21.9 21.9 0 0 0 8.6-.1l2.5-.6 3.1-.9c1-.2 4.3-1.2 5.3-1.7a109 109 0 0 1 14.8-4.7l1.9-.6c1.5-.3 2.3-.5 4.7-1.3a84.4 84.4 0 0 1 24.3-.7c1 .4 2.3.7 2.7.7 1 0 3.3.7 4.9 1.4.6.2 1.4.5 1.8.5.3 0 1.1.2 1.7.5l1.5.5c.3 0 1.3.4 2.3 1 2 1 3 1.1 3 .5a8 8 0 0 1 1.8-3.8c.5-.3.8-.3 2.2 0 1.6.4 2.6 1 3.6 2 .4.5.5 1 .6 3.2v2.5l1.2.8c1.5 1 3 3 3.8 4.7.3.7.9 1.8 1.3 2.3 1 1.1 2.6 5 2.4 5.7 0 .3 0 .8.2 1.2.3.5.4 1.1.4 1.5 0 .4.2 1 .4 1.4.8 1.5 1 3 .5 4.3-.5 1.5-.3 3.5.3 4.2l1.8.9c.8.2 1.6.6 2 .9 1 1 2.7 3.4 2.9 4.3a42 42 0 0 0 2.6 7.7l1.2 3c.7 2.6 2 5 3.4 6.2.6.4 1 1 1 1.3 0 1.2.3 1.4 2 1.4 2 0 4.1 1 4.5 2.2l.9 2.1c.7 1.6.8 2.9 0 4.8-.8 2.2-2 2.4-3.8.5-1.6-1.7-1.8-1.8-4.8-2.1a13.4 13.4 0 0 1-5.2-1.5c-.4 0-8.9-8.3-8.9-8.6 0-.3-2-1.1-2.7-1.1-.3 0-1.2.7-2 1.5-1 1-2.1 1.8-3.3 2.4-3 1.3-4 1.5-11.6 1.6h-3l-1.4 1.4c-.7.7-1.6 1.3-1.9 1.3-.9 0-1.2.7-1.3 3.6l-.2 2.8-1.3 1.1c-.7.7-1.6 1.2-2.2 1.4-2.6.4-7.8 4.3-8.7 6.5-.2.4-.6.8-1 1-.5.2-1 .8-1.3 1.7-.6 1.3-.8 1.5-2.2 2.2l-2.2 1.1c-.4.3-1.5.5-2.7.6a17 17 0 0 0-3.2.6c-.9.3-1 .3-1.5-.2-.3-.2-.5-.6-.5-.7l1.2-2.6a10 10 0 0 0 1.2-3.1c0-.5.2-1.7.5-2.6.6-1.9 2.4-4.3 5.4-7 2.4-2.3 3.7-4.3 2.8-4.3l-2.8 1c-.3.2-1.2.4-2 .6-.7.1-2 .5-2.7.9-.8.3-2 .7-2.9.8a8 8 0 0 0-2.5.7c-.7.4-1.4.5-3 .5h-8c-8 .3-8.2.3-11.2-.2a24 24 0 0 0-5.4-.2c-2.5.1-2.8.2-3.5.8-.5.5-1 .7-2.1.8-1.5.2-2.7 1-3.5 2.1-.5.8-1.2 3.7-1.2 5.2 0 1 0 1 2 1.9l3.4 1.5c.8.3 1.6.9 1.8 1.2.4.8.8 1 1.5.4.4-.2 1.2-.4 2.1-.4 1.3 0 1.7.1 2.8.9l1.2 1c0 .3 1 1 1.8 1.2.5.2.6 0 .7-.5.3-1 1-.7 1.7.7 1 2 .8 2.8-.7 2.6-.3 0-.3.4-.3 1.8 0 1.7 0 1.8-.7 2.4-.8.6-1.8.8-2 .3zm-4.1-4.6c.4-.2.8-.7 1-1 .2-.6.2-.8-.3-1.2-.7-.7-1.3-.7-2.2-.1-.5.3-1.3.4-2.6.4-1.7 0-2 0-2.6-.6-.3-.3-.7-1-.8-1.4 0-.4-.3-.7-.5-.7l-1.5-.8a5 5 0 0 0-1.6-.8c-1 0-3-1.4-3.7-2.4l-.6-1 .7-2.3 1-2.7a18 18 0 0 0 2-5c.5-2 .3-2.6-.7-3.2-.6-.3-.8-.7-.8-1.2 0-1 .6-1.4 1.9-1.2 1 .1 1.3.4 2.3 1.5l1.2 1.3 3.6-.1 6.7-.3c4.5-.2 4.9-.2 6.2.1.7.2 4 .3 7.7.2a24 24 0 0 0 10.5-1.5 4 4 0 0 1 1.8-.5c.6 0 1.3-.2 1.6-.4.3-.2.8-.4 1.2-.4a20.1 20.1 0 0 0 10-5.8l2.2-1.9c1.6-.9 3-2 3.8-2.8 1-1 1.3-2.8.9-3.7-.3-.5-.2-.9.1-2.1l1-2.5c.5-1 1.4-1.4 1.8-1 .3.5.4 5.2.2 7.3-.2 1.4-.2 1.6.4 2.2l1.7 1.2 2.6 1.4c2 1.2 5 1.7 8.4 1.6 2-.1 2.7-.3 3.3-.7.4-.3 1.4-.6 2.3-.8 1.1-.2 2-.7 3.9-2 2.3-1.6 4.7-3 6.6-4l.8-.5.7.8c.4.5 1.4 1.2 2.1 1.7 1.8 1.2 4.2 4.4 5.3 7a8 8 0 0 0 3.8 3.9l3.8 1.3 4 1.3c.8.3 1.5.5 1.6.4.3-.2-1-2.9-1.8-3.6-.7-.6-1-.7-3.2-.8-2-.1-2.6-.3-3-.6-.7-.6-.8-1.6-.2-2l.4-.6-1.5-1.9c-.8-.9-1.8-2.3-2.2-3-.9-1.8-2.4-6.2-2.5-7.3-.2-1.7-1-5.7-1.4-6.5l-1-1.4c-.8-.8-2-.6-3.9.7-2.2 1.5-4.1 1.5-4.2 0 0-.3.3-1.4.8-2.4 1-2 1-1.8.7-7.3-.1-3-.9-6-2.2-9.2-.2-.5-.3-1.3-.3-1.8 0-.7-.2-.9-.7-1-.8-.2-1.3-1-1.7-2.6-.2-1-.6-1.6-1.8-2.7a7.1 7.1 0 0 0-2.2-1.6c-.9-.2-1.8-1.3-1.8-2 0-.4.2-1 .4-1.4.6-1.3.1-4.7-.7-4.7-.2 0-1.3 1.8-2.2 3.6-1 2-2.7 2.2-5 .4-.7-.6-1.5-1-1.8-1-.2 0-.8-.3-1.1-.6-.4-.3-1-.5-1.5-.5s-1.2-.2-1.7-.4c-1.8-1-5.6-2-6.5-1.9a3 3 0 0 1-2-.3 15 15 0 0 0-3.5-.9c-3-.4-14.8-.5-16.3-.2-2.5.5-4.1 1-5 1.5-.6.3-1.7.5-3.1.6-2.5.2-4.5.8-7.3 2.3-1.5.8-2 1-2.8.8-.8-.2-1.4 0-3.5 1-1.3.7-3.3 1.4-4.4 1.6l-3.2.9c-.6.3-1.7.6-2.3.7-.5 0-1.5.5-2.2 1-1 .7-1.4.8-2.5.8-.8 0-2 .1-2.8.4-1.4.6-1.5.6-2.7.1-.7-.3-2.5-.5-5.1-.6-2.2-.1-4.7-.3-5.6-.5a72.2 72.2 0 0 0-14.6-1.2c0 .3.7 1.2 1.5 2a7.4 7.4 0 0 1 2.7 5.5l.4 2.2c0 .1 0 .8-.2 1.5-.3.7-.5 2.5-.6 4.1 0 1.6-.3 3.8-.4 5-.3 2-.3 2.2.7 6.4.2.9.6 2.2 1 2.9.4.8.7 1.7.7 2.4 0 1.6-.5 3.9-1 4.3a3 3 0 0 0-.4 1.1c-.6 2.6-1 3.4-2 5.2-2 3.3-3.3 4.9-4 5.3-.5.2-.8.5-.8.7 0 .4 2 2.2 3 2.7a683.3 683.3 0 0 1 5.9 2.6l.7.2c.3 0 1 .3 1.5.6 1.4 1 3.6 2.2 3.9 2l-.1-1.1c-.4-1.3 0-2 1-2 .5 0 .8.2 1.3 1 .6.8.6 1.3.7 4.4.1 3 0 3.6-.3 4.2-.6.8-.7 4.6-.2 5.8.2.5 1 1.5 2 2.4 1.3 1.2 1.8 1.5 2.5 1.5 1.2 0 6.5 2.8 9 4.8 1 .8 2.4 1.1 6.2 1.5 3.6.3 4.4.3 5.2 0zm36-6.4c.5-.3.5-.6.5-2.5 0-2.5.2-2.9 2-4 .7-.5 1.4-.7 2.1-.7.8 0 1.3-.2 1.7-.7l.9-.7s1-.5 1.8-1.2c3.2-2.5 3.8-3 4.5-3.1 1-.3 1.7-1 1.4-2l-.3-2.2c-.1-1.4 0-1.5 1-2.5 1.6-1.5 2.1-2.4 2.1-3.6 0-.8-.1-1-.7-1.3-.8-.4-1.7 0-3.9 2-.8.7-2 1.5-2.4 1.7l-1.6 1c-.9.6-1 .8-.9 2.2 0 2-.3 2.7-2.3 4.8-1.2 1.2-2.3 2-3.7 2.8-3.2 1.6-3.9 2.5-4.5 6.3 0 .6-.3 1.7-.5 2.4-.6 1.7-.4 2.1 1 1.9.6-.1 1.4-.4 1.7-.6zm-91.4-.7 1.5-2c.8-1.1.8-1.2 2-1 1 .1 1.1.1 1.3-.4l.8-1.1c.3-.3.6-.8.6-1 0-1 1-2.9 2-3.7 1.3-1 3.1-1.6 4.2-1.2 2.9.9 6.1 1.1 9 .7h1.6c.2.4 2.2.3 2.4-.1.1-.4-.6-2-1.6-3.7-1-1.6-2-2.6-2.6-2.6-.4 0-.8 0-.9-.2 0-.2-.2-.2-.3-.2l-1.6.4c-.8.2-1.7.5-2.1.9-.8.5-1.9.7-7 1.3l-3.5.4c-1 .3-1.8 1.7-2.5 4.5l-.8 2.3-1 1.9c-.5.9-1.4 2.1-2 2.8-1 1-1.2 1.5-1.2 2 0 1.2.7 1.1 1.7 0zm-6.1-72.6c.3-.3 4.4-1.7 5-1.7.8 0 .7-.5-.4-1.8a17.3 17.3 0 0 1-3-5.7c-.3-.4-.5-1.4-.6-2.2-.1-1.2-.7-2.2-1-1.9l-.9 1.3c-1.6 2.4-2 9.3-.7 11.3.5.9 1.1 1.1 1.6.7zm81 83.1c-.2-.3.3-1.1 1-1.5 1.3-.7 5-1.2 7.7-1 3.1.3 5.4 0 8.2-1 2-.8 3.5-1.1 6.6-1.6 2.2-.4 3.4-.4 5.6.1 1 .3 2.6.5 3.5.6 1.5.2 1.8.3 1.8.8.2.9-.8 1.2-2.7 1l-4.2-.4c-3.7-.4-7.7.2-11.8 1.8-2 .8-3.2.9-7 .5-2.5-.2-3.3-.2-4.6.1-2 .6-3.8.9-4 .6zm302.6-.7c-.1-.4 0-.7.3-1 .7-.4 1.8-.2 2 .4.2 1-2 1.7-2.3.6zM163 213c0-.5.2-.7.9-1 2.2-.6 3-.5 3 .3s-1 1.3-2.5 1.3c-1.3 0-1.4 0-1.4-.6zm271.4-1.8c-.3-.1-.5-.4-.5-.7 0-1 .4-1.2 4.2-1.2 2 0 3.8 0 4.1.2.5.2.6 1.2.1 1.7-.3.4-7.2.4-7.9 0zm-254-1c-.8-.9-.3-1.5 1.6-1.7a46 46 0 0 0 3.5-.6c2.1-.4 3-.2 2.9.8-.1.7-1.7 1.5-2.6 1.3-.3 0-1 0-1.5.2l-2 .4c-1 0-1.4 0-1.8-.4zm199.2-.2c-.6-.6-.5-1.8.1-2.4l.8-.6.7-1.1 1-2 1.2-2c.6-1.5.4-2.6-.7-3.6-.7-.7-1.1-.7-5.2.2l-3.6.6c-.6 0-1.3 0-1.7.2a2 2 0 0 1-1.2 0c-.5-.2-.6-.4-.5-1.2 0-1 .1-1 1.3-1.4.7-.2 1.3-.5 1.3-.6 0-.3-2.3-.5-4.4-.4-1.7.1-2.1 0-2.6-.4-.7-.5-.9-1.3-.5-2 .2-.3 1.2-.4 3.2-.6 1.5 0 3-.2 3.2-.3l2.5-.4c2-.3 2.2-.4 3-1.3.8-1 .9-1 .9-3.4 0-2-.1-2.7-.7-4-.3-.7-1-1.6-1.2-1.8-.4-.2-1.5-.4-2.5-.5-1.7-.1-5-1.2-6.7-2.1-6.6-3.8-7-4.2-7.8-7.3l-1.5-3.7-1.5-3.2c-.4-.8-1-1.6-1.8-2.3l-2.4-2c-1.5-1.4-2-1.3-2.4.4a32 32 0 0 0-1.2 12.5c0 1.5 1.4 3.2 2.6 3.5.5 0 1.4.5 2 1 .5.5 1.3 1 2 1 2.7.5 3 3.8.3 3.9a5 5 0 0 0-1.4.2c-.5.2-.3.3.9.9 2.8 1.3 4.3 3.2 3.4 4.1-.5.5-1 .4-1.9-.3-.4-.4-1-.7-1.6-.7-1.9 0-4.9-1.6-7.4-4-.8-.8-1.4-1-1.6-.5-.2.3-1.4.4-1.6 0a4 4 0 0 0-1.4-.5c-1.2-.4-1.2-.4-1.8.3-.7 1-4.9 3.7-5.6 3.6-1.1 0-1.5-.8-1-2 .2-.5.5-.9.6-.9.3 0 1.1-.7 1.1-1 0-.2-.6-.2-1.5-.1-1.2.1-1.9.4-3 1.2-1.6 1-2.5 1.2-3.4.6-1-.7-.7-2 .4-2.3 1.7-.6 5-2.2 5.6-3 1.4-1.6 1.6-5.4.4-8.9-1.2-3.9-2.3-5.4-5.1-7.5-.8-.6-2.2-1.8-3-2.8a6.4 6.4 0 0 0-3.2-2.3 17 17 0 0 1-5.4-3.2c-.6-.5-2.2-1.4-3.5-2-1.4-.6-3-1.4-3.4-1.9a4 4 0 0 0-1.2-.9c-.2 0-.8-.5-1.4-1.1-2.4-2.6-3.9-5.4-3.9-7.5a61.6 61.6 0 0 1 2.1-14.4c.6-1.2.6-1.7-.4-4-.8-2-.8-2-.6-5l.2-5.6c.2-5.8.8-8.5 3-13.1.7-1.2 1.1-2.4 1-2.7 0-.3-.4-.5-1.2-.6a9 9 0 0 1-2.4-.8c-1-.5-1.6-.6-4.3-.6-1.8 0-4.7 0-6.5.3-2.2.2-5.2.3-10.1.2a75.2 75.2 0 0 0-20.2 1l-4.6.2c-3.5 0-3.7.2-3.3 2.1.2.8.9 2.4 1.5 3.5a25 25 0 0 1 1.4 2.7c0 .3.6 1.5 1.1 2.7 1.8 3.8 2 7.5.7 13.5a424.7 424.7 0 0 0-1.4 5.3 7 7 0 0 0-.5 1.7c0 .5-.8 1.8-1.5 2.9a17 17 0 0 0-1.9 3.4c-.3 1.1-.9 1.9-1.9 2.9-1.6 1.6-2 2.2-2.5 4.1-.1.8-.7 2-1.3 2.7l-1.2 1.9c-.2.7-5 5.6-6.7 6.9-2.3 1.7-4.3 3-5.2 3-.4.2-1.4.7-2 1.4-1 .9-1.4 1.4-1.7 2.5-.5 1.9-.5 5 0 5.7.2.3.4 1 .5 1.7.3 2.1 3 5.2 5.8 6.8 1 .5 1.8 1.1 1.8 1.3.1 1-.5 1.7-1.5 1.7-.3 0-1-.3-1.7-.8-1.6-1-2.7-1.2-3.5-.6-.4.2-.7.5-.7.7 0 .5 2.2 2.6 3 2.7 1.7.4 1.5 3.6-.3 3.6-.7 0-3.8-2-4.4-2.8-.3-.4-.8-.7-1.2-.7a3 3 0 0 1-1.5-.5 8 8 0 0 0-3.7-1.3c-.3 0-1.2.4-2 .9-2 1.2-2.6 1.3-3.2.6-1.5-1.5 1.4-4.4 5-4.8 1.8-.3 3.1-1.4 3.4-2.9 0-.6.4-1.5.7-2 .4-.9.4-1.7.4-7.7 0-5.8 0-7 .5-7.6.5-1.1 1.8-1.7 4.4-1.9 2.7-.3 7-2.2 8.3-3.9l.9-1.3c0-.4 1-2.3 1.6-2.9.9-1 1.1-2.5.7-4.6-.2-1-.5-2-.7-2.2l-.5-1.3c-.5-1.6.3-1.8 3-.8 1 .4 1.4.4 2.5 0 1.5-.3 2.3-1 4.2-3.7 1.3-2 2.7-5 2.7-6.2l.7-2.5c.6-1.6.7-2.6.8-5.7.1-4-.1-6-1-7.9l-.5-1.5-.8-1.7a157.1 157.1 0 0 1-4.5-10.2 6 6 0 0 0-.8-3c-.4-.8-.8-1.9-.8-2.2 0-.4-.4-1.3-1-2.2l-.9-1.7-.9-1.6a28.7 28.7 0 0 0-7.2-11c-1.4-1.9-1.4-2.3-.6-3.2.3-.4.3-.5-.5-1.3-1.3-1.1-1.8-1.3-2.4-1-.8.4-1.6.1-1.4-.5.1-.4 0-.6-.7-1-.4-.2-1.1-.9-1.5-1.4-.7-1.2-1-1.3-1.9-.7-.5.4-.8.4-1.6.2-1.5-.5-1.6-.4-1.6.6 0 1.4-.4 2.2-1.7 3-2 1.3-2.3 1.6-2.3 2.9 0 .9.1 1.2.7 1.6.7.5.7.6.4 1-.4.8.4 1.8 1.9 2.2l1.8.8c.4.3 1 .5 1.3.5.6 0 3.2 2.4 3.2 3 0 0 .7.2 1.6.2 1.8 0 2.3.3 2.3 1.2 0 1-2.5 2.5-8 4.8-1.3.6-4.1 3.1-5 4.5-.5 1-1.3 1.3-2 .8-.8-.7-.5-1.7 1.2-3.5 1.2-1.1 1.7-1.9 1.7-2.3 0-.6-.1-.7-1-.5l-1.5.2c-.2 0-.6-.2-.7-.4a13 13 0 0 1 0-5.2c.6-2.9.6-3.4-.1-4.4l-.7-1.2-.9-1.5c-1-1.5-1-2.5.2-3.5.4-.4 1.1-1.5 1.6-2.5s1.6-2.4 2.7-3.6c2.2-2.2 1.6-2 7-1.9 2.8.1 3.5.2 4 .6.2.3.5.6.5.8 0 .6 1 1.6 2 1.9.9.2 1.1.5 1.8 1.7.5 1 .6 1.7.6 2.3-.1.7 0 .9.4 1 .4 0 .6.3.8.8 0 .4.4 1 .7 1.3l.8 1.2c.1.4 1.4 2.5 2.8 4.6 3.4 5.4 3.6 5.8 4.8 8.7l1.4 3.3c.3.4.6 1.3.8 2 .3 1 .4 1.2 2.2 2 1.7.8 2 .9 3.6.8 3.8-.4 6.6-.7 7.6-1 .6-.2 5.7-.3 13.2-.4a248.1 248.1 0 0 0 19.2-.7c3.9 0 4.5 0 6 .6 2.4.8 2.8.6 2.6-.9l-.3-6.2a23 23 0 0 1 1.7-11.9 10 10 0 0 0 1.1-3.8l.2-1.4c.2-.1.4-.7.6-1.4.3-1.2 1-1.7 2-1.3.3 0 .8 0 1-.2.5-.3.5-.5.3-1-.2-.4-.3-.8-.2-1 .2-.4 1.3-.4 1.7 0 .4.7 1 .6 3.1-.5 2.5-1.3 3.8-1.5 5.8-1 1.9.6 2.2.7 2.4 1.2l1 1.8c1 2 1.4 4.5 1.2 6.4a9 9 0 0 0 0 2.3v.9l1-1c.4-.5 1.3-1 1.9-1.2.6-.2 1.1-.5 1.2-.7 0-.1.6-.6 1.3-1 .8-.5 1.5-.6 2.6-.6l2.7-.3c1.7-.4 2.7 0 3 1 .5 1.5.7 1.3 1.6-2.8 1.3-5.9 3.2-8.8 8.2-12.9a31 31 0 0 1 7.2-4.3c.8 0 3 1.5 4.5 3 3.9 4.2 4 4.3 5.6 4.9l2.3.7c.7.1.7 0 .9-1.6 0-1 .3-2.1.5-2.5a5.3 5.3 0 0 1 4.6-2.7c1 0 1.6-.2 2.2-.6l3-1c2-.3 2.2-.3 3.5.2 1.5.5 2.2 1.1 2.2 2 0 .4.5 1 1.1 1.6 4.3 3.5 5.9 8.8 5 16a42 42 0 0 0-.5 4.9v1.8l1.7.8c4.4 2 7.8 6.6 10.2 14 .3 1 .7 1.8.9 2 .3.3 4.7.2 14-.3 3-.1 3.4 0 3.9.3.6.6.6 1.5 0 2-.6.6-1 .6-2 0-.8-.3-1.4-.3-4.7 0l-7.1.2-3.3-.1v1a102.2 102.2 0 0 1-.3 14c.2.9-.2 5-.8 7.6l-.4 2.6c0 .4 0 1.4-.2 2.1-.4 1.5-.3 1.5 1.3 4l1.7 3 1.4 2.6 1.6 2.4c1 1.5 1.2 2 1.4 4a11 11 0 0 1 0 3.1l-.4 4.7a31 31 0 0 1-1 6.7c0 .8-2.5 5-3.5 5.8-.7.6-1.2 1.9-1.5 3.7-.1 1-.5 2-.7 2.4l-1 1.9a32.4 32.4 0 0 1-5.7 8.2c-.3.5-1.2 1-2.5 1.5a13 13 0 0 0-4.3 2.8c-2.5 2.2-2.3 1.7-3.5 6.6-.7 2.8-.9 6.9-.3 9.2.4 1.7 1.4 2.8 3.9 4l1.6.7 2.7-.4c2.3-.3 3-.4 4.3-.1a43.9 43.9 0 0 0 4.7.9c.5.3.3 1.2-.3 1.5-1 .3-4.9 0-5.3-.4-.5-.7-4-.3-5.2.5l-1.8.2a5 5 0 0 1-3-1c-2.4-1.4-3.7-1.2-5.1 1-.5.8-1.3 1.6-1.7 1.9-.5.2-1.3 1.2-2 2.2-1.1 1.7-3.3 4-3.9 4 0 0-.4-.1-.6-.4zm8.5-11.7a2 2 0 0 0 1-.4c.4-.3.4-.4.2-1.2l-1-1.7-.8-.7-.3 1.5c-.5 2.2-.5 2.8 0 2.6l1-.1zm-12.5-2.3.8-.4h-.9c-1 0-1.6.3-1.6.6 0 .4.9.3 1.7-.2zm6.2-2.4c.6-.8.7-1.9.1-2.1-1.2-.5-2.6 1.7-1.5 2.5.6.4.8.4 1.4-.4zm6.4-1.6c.7-4.4.7-4.6.4-5.3-.1-.4-.3-1.8-.3-3.2 0-1.3-.1-2.4-.2-2.3-.3 0-.4 11.8-.2 11.8.1 0 .3-.5.3-1zm-2.9-2.5.2-4.2c0-2 0-2.6-.4-2.9-.4-.3-.4-.3-.4.4.1 1.6 0 2-.9 3-1 1.1-1.1 1.5-.5 2.3l.4.9c0 .5 1 2.1 1.3 2.1 0 0 .3-.7.3-1.6zm-34-9.6-1.2-.4c-1.8-.3-3.5-2.3-3.5-4.2l-.2-1.4c-.2-.2-.4-3.1-.4-6.4 0-3.2-.1-6-.2-6.2 0-.6-.8-.3-1 .4-.4.9-.4 1.3-.2 4.8l.2 4.1c-.1 5.6-.2 5.9-.8 7-.3.6-.5 1.3-.4 1.4.4.3 2.3.5 2.7.3.6-.4 2.2.2 3.2 1.2l.9 1 .5-.7c.3-.3.5-.7.4-.9zm-10.5-1.9c.4-.5.5-.8.3-1.3-.2-.4-.3-1-.3-1.6 0-1-.3-1.8-1.2-2.7-.3-.4-.7-1.1-.9-1.7-.3-1-1-1.7-1.2-1.5-.1.1 0 .8.1 1.5.5 2.2.6 5.2.1 6.3-.4 1.1-.3 1.4.9 1.5 1.5.2 1.6.2 2.2-.5zm36.3-.4c.3-.2.4-.4.3-.8-.2-.9 1-3 1.7-3 .4-.1 1.2.2 1.9.7a9 9 0 0 0 1.4.8l1.1.6c1.4 1 4.3 1.8 5 1.5l1.4-.3a16 16 0 0 0 8.9-4.8c.4-.5 1.4-1.3 2-1.6 1.9-1 3.3-2.8 4.4-5.8.9-2.4.9-2.7 0-2.5-1.7.4-1.8-1.6-.2-2.5.5-.3.9-.7 1-.9 0-.2.7-.7 1.4-1.2 1-.6 1.6-1.4 2.4-2.7.6-1 1.1-2.1 1.1-2.4l.3-1 .5-1.4.8-3c.4-1.4.6-2.9.6-5.3 0-4 .3-3.3-3.5-9.6-4.7-7.8-6.3-10-9.6-13.7a30.6 30.6 0 0 1-3.2-4c-.7-1.2-2.8-3.2-3.4-3.2-.3 0-.3 0 .7 2.2.7 1.4 1 2.6 1.2 4 0 1.2.5 2.8.8 3.5a8 8 0 0 1 .7 5.1c-.5 3.7-3.3 7.7-5.3 7.7-1.3 0-1.4-.7-.4-1.7 3.2-3 4.6-7.5 3.2-10.2-.3-.5-.6-1.6-.7-2.4-.5-3.4-1.7-6-4-8.7l-1-1.3c0-.2-.3-.7-.8-1.3-.5-.5-1-1-1-1.2l-.7-1.2c-.7-.8-2.2-4.2-2.8-6.3l-2-4.1-2.3-4.4c-.2-.6-.5-.9-.9-.9-.3 0-1.6-.5-3-1.2a9.5 9.5 0 0 0-3.6-1.1c-.9 0-1.1-.2-1.4-.8l-.8-1c-1.2-.4-3 1-4 3.1-.5 1-.7 1.2-1.6 1.2-.9.1-1.3.4-2.4 1.4-.7.7-1.5 1.3-1.8 1.4-.3.1-.4.5-.4 1.1 0 .8-.2 1.2-.9 1.8-.5.6-.6.8-.3.7 3.2-1 4.1-1.1 4.4-.4.2.5 0 .8-1 1.3l-1 .7c0 .2.6.5 1.2.8a6 6 0 0 1 2 1.5c.6.8.9 1 1.7 1 .9 0 1.2-.3 2-1 .9-1 1.7-1.1 2.2-.1.6 1 0 2.3-1.5 3.4-.7.6-1.5 1.3-1.5 1.7-.3 1.1-2.5 3-4 3.5-1 .3-1.8.8-2.3 1.4a7 7 0 0 1-1.6 1.3c-1.1.7-2.2 2.2-3.4 5.3-.3.7-.7 1.3-.8 1.3-.3 0-1 1.6-1 2.3 0 1-.6 1.8-2.4 3.5-.8.8-1.7 2.1-2.2 3-.4.8-1 1.7-1.4 2a5 5 0 0 0-1.9 3.3 21.8 21.8 0 0 0-1.7 9.5 14 14 0 0 0 2.5 8c.4.3 1 1.3 1.5 2.2 1 2 1.3 2.3 1.8 2.1.7-.1 1.3.3 1.9 1.4a24 24 0 0 0 6.3 5.4c.8.4 1.4 1 1.7 1.7l1.1 1.7c.4.4.6 1.1.7 2.4.3 3.5 2 5.5 6.2 7.2a2029 2029 0 0 1 8 3.2c.9.5 1 .5 1.7.1zm-7.7-23.9a8 8 0 0 1-4.3-2.7c-1.3-1.5-1.7-2.6-1.3-3.1.5-.6.9-.5 2.5 1a13 13 0 0 0 5.4 2.8c.3 0 .8.3 1.1.5 1.5 1.6-.4 2.4-3.4 1.5zM365.5 95c-.7-.7-.4-1.6.6-1.8 1.1-.2 1.4-.6 1-1.6-.2-.6-.2-.9 0-1.2.5-.6 1.8-.6 2.1 0 .2.5.6 2 .7 3.4 0 .6-1.2 1.4-2.8 1.6-1 .2-1.2 0-1.6-.4zm-131.3 76.8c.4-.5.4-.6-.4-2.2-.5-.9-1-1.5-1-1.4-.4.2-.4 2.2 0 3.2.3 1 .7 1 1.4.4zm108.3-1c0-.6 0-1.5-.2-2a26 26 0 0 1-.5-3.8c-.3-3.4-.5-3.9-1.9-3.9-1.7 0-2.2 1.3-1.2 3.3 1.2 2.6 1.5 3.4 1.5 4.2 0 .9 1.5 3.5 2 3.3 0 0 .3-.5.3-1.1zm-1-13.3c.7-.2 2-.5 3.1-.5 2.3-.2 2.6-.5 1.5-1.8-.5-.4-1.1-1.5-1.5-2.4-.4-.8-1-1.8-1.4-2.1-.4-.4-.6-.9-.6-1.1l-.9-2.6c-.7-2-.8-2.1-.7-6.2.2-4.4.4-5.5 1.9-8.8a38 38 0 0 1 7-10.4c.4-.4 1-1.2 1.2-1.7 1.6-3 2.3-4.2 2.7-4.5l.4-.8c0-.3.6-1.4 1.4-2.6.8-1.1 1.5-2.3 1.5-2.5 0-.6 1.5-2 3-2.7 1.4-.7 1.7-1.6 1.2-3.1l-.9-2-.5-.7h-4c-3.6.1-3.8 0-4-.4 0-.4.1-1 .6-1.8.7-1.2.8-2 .4-2.8-.2-.3-.4-1.7-.6-3-.2-2.2-.3-2.7-.9-3.3-.5-.6-.7-1-.9-3-.1-1.4-.4-2.8-.6-3.3l-1-3c-.6-2-.7-2.2-3.1-4.5-2.3-2-2.6-2.3-3.3-2.2-.5.1-.8 0-1-.3 0-.3-.1-.6 0-.8 0-.4-.4-1.2-.8-1.2l-1.8 1.4c-.9.7-1.9 1.3-2.2 1.4-.4 0-1 .2-1.3.5-.3.2-1 .5-1.6.5-.9 0-1 0-1.4.9l-1.3 1.7c-.4.4-.7.9-.6 1 0 .2 1 .4 2.2.5 2.2.2 3.4.7 3.7 1.5.2.6-.3 1.1-1.5 1.4l-1 .3.6.5c.4.2 1.3.9 2.2 1.3 1.3.8 1.8.9 2.6.8 1-.2 1.7.2 1.7 1 0 .7-.7 1.4-3 2.8-1.8 1-2.1 1-4 1-2.7 0-3.8.6-6.8 3.7-3 3-3.3 3.4-4 5.7-.7 1.8-1.8 3.4-3.7 5.6-1.9 2-2.9 5.5-2.1 7.6.3 1-.2 3.4-1 3.8-.7.6-1.6.3-2-.7-.3-.8-.1-4.7.4-6.7a33.3 33.3 0 0 1 5.5-10.2 36.6 36.6 0 0 1 5.5-7c.6-1 1.9-2.3 2.8-3 3-2.4 3.7-3.1 3.5-3.4 0-.2-1-.6-2-.9-.9-.3-2.2-.8-2.7-1.2l-2.6-1c-2.1-.4-2.2-.6-1-2.2a6 6 0 0 1 1.8-1.7l1.5-1 1.1-.6c.4 0 1.7-1 1.7-1.3 0-.1-.3-.4-.7-.5-.6-.3-.6-.5-.8-4-.2-3.3-.3-3.7-1-5-.5-1-1.2-1.8-1.8-2.3-1.8-1.2-2.7-.9-9.5 3.2l-2.2 1.4-.5 1.7a361.7 361.7 0 0 1-2 7.4 39 39 0 0 0-.3 5.3c0 4.3 0 4.6 1.3 10.4.6 2.7.5 3.4-.6 4.6-1.3 1.5-3 6.1-3.3 9.2a108 108 0 0 0-.2 7.6v5.6l.7 1.3c.4.8.9 2 1 2.6.3 1.3.2 1.4-.8 3-.8 1.1-1 1.8-1 2.6 0 .6-.2 2.3-.5 3.7-.6 4.2-.6 5.8.1 8 1 3.3 3.7 5.9 8.4 8 1.2.6 2.9 1.6 3.7 2.4 1.6 1.3 5.5 3.2 6.7 3.2.3 0 .8.3 1.2.7.5.6 2.6 1.7 4.2 2.3a39 39 0 0 0 9.5-.3zm-4.6-78c-.5-.3-.6-1.4-.2-1.4.2 0 .3-.3.3-.6 0-.8 1.4-2 2.4-2 .4 0 1-.3 1.4-.5 1.5-1 2.8.4 2.8 3 0 2-1.2 2.6-1.8 1-.2-.3-.4-.7-.7-.8-.5-.2-1.6.4-2.2 1.2-.4.6-1.3.7-2 .1zm69.3 39.9c0-.7.4-2.4.7-3.9.3-1.7.5-3.1.4-4V109c.5-2.2.4-10.5 0-12a69 69 0 0 0-3.2-8.6c-.5-1.5-2.4-4.2-4.2-6.3-2.1-2.3-6-4.2-9.7-4.7-1.5-.2-3.3.7-5.2 2.5-1.3 1.2-1.4 1.3-2 4-1 3.7-1 7.2-.2 9.3l.9 1.8 1 2.1c.7 2.4 2.5 6.2 3.5 7.8 1 1.7 2.1 2.6 3.3 3 .4.2 1.2.6 1.6 1 .5.4 1.1.6 1.7.6 1.1 0 2.7 1.4 3.8 3.2.4.7 1.4 2 2.3 3a494.2 494.2 0 0 1 4.8 5c.2 0 .4-.6.5-1.3zm-50-24.7c.4-.4.6-.8.7-2 .2-2.3 1.2-3.7 3-4.4.8-.3 1.8-1 2.7-2 1-1 1.6-1.4 2.1-1.4.4 0 1.2-.2 1.7-.5 1.1-.6 4.1-1 5-.9.3.1.7.5 1 .9.4 1 6 3.8 6.7 3.4a8 8 0 0 0 1.6-3.5c0-.7 1-3.1 2-4.5.8-1 3.2-3 5.4-4.1a11 11 0 0 1 3-.5l2.4-.2.3-2c1-5.7 1.2-10.1.6-11l-.6-1.6a14 14 0 0 0-4-5.2c-1.1-.5-2.3-1.7-2.3-2.2 0-.5-.7-.4-1.5.2-.6.4-.9.5-1.6.2-.9-.2-1-.2-2.4.7-1.2.8-1.4.9-2.2.6-1.1-.4-1.5.1-1.8 2.4l-.2 1.8-2 1.8c-1 1-1.8 1.8-1.7 1.9l1.5-.4c1.6-.6 2-.7 2.7-.2.3.4.7.3 2.6-.4 1.4-.4 2.8-.7 3.7-.7 1.7 0 3-.6 3.6-1.5.6-.9 1.3-1.3 2-1 1.2.3 1 2-.2 3-.7.7-3.2 1.3-6.5 1.6-2 .2-2.8.4-2.8.7 0 .5.9.7 1.6.3 1-.4 2.2.2 2.3 1.2.1 1.4-.2 2-1.6 2.6-1.7.8-2.2 1.4-3.6 3.8-1.1 2-1.7 2.5-2.4 2.3-.6-.2-.3-1.4.8-3.2l1-1.8-.5-1a9 9 0 0 1-.7-1.8c-.2-1-1-1.2-2.7-.8-.8.2-2 .2-3 .1-1.7-.2-1.7-.2-1.8-1 0-.6.2-1 1-2 .6-.7 1-1.4 1-1.5 0-.4-1.4-1.3-2.5-1.6-.9-.2-1.6-.8-4.3-3.5a45.3 45.3 0 0 0-3.8-3.6c-.5-.2-.9-.1-2.2.7a44.4 44.4 0 0 0-7.8 6.7c-.7.9-1.3 1.8-1.3 2 0 .2-.4 1.3-1 2.3-.7 1.4-1 2.4-1.3 4.5-.7 5.1-.8 4.5.6 5.9.9.9 1.2 1.4 1.2 2 0 .4.2 1.2.6 1.7l.9 2.1.9 2.7c.3.8.5 1.9.5 2.3 0 .5.4 1.6.8 2.6 1 2 1.4 4.1 1.2 5.5-.1 1 .2 2 .6 2l1-.5zm26-35.5c-.7-.9-.6-1.4.5-2.6 1-1.1 2-1.3 3-.6 1 .8.4 2.7-1.2 3.4-1.3.6-1.9.5-2.4-.2zM228.8 78.6l1-.4c1-.2 1.2-.4.6-1-.3-.2-.6-.2-1.3.2-1.2.7-1.7 1.5-1 1.5.3 0 .6-.1.7-.3zm187.4 131.2c-3.1-.2-4-.6-3.8-1.7 0-.6-.4-.6 6.3-.2 3.3.1 4.3.2 4.4.5 0 .2 0 .5-.2.7-.5.5-3.8.9-6.7.7zm-265.7-1.2c-.3-.6.8-1.5 2.3-1.7.8-.1 2.1-.5 3-.8 1.3-.5 1.9-.5 3.3-.4 1.1.1 2.4 0 3.4-.1 1.5-.3 1.8-.3 3.3.2 2.4.8 3.1 1 4.3.5l2.3-.6c.7 0 1.5-.4 1.9-.7.4-.3 1.3-.5 2.7-.6 1.7-.2 2.2-.3 2.9-1 1.7-1.5 1.8-1.5 5.1-1.3 1.7 0 3.3.2 3.7.4.7.3 3.5.1 5.7-.5a25 25 0 0 1 9 .3c1.8.5 6 .5 7.4.1l2.7-.4 5-.5c3.7-.5 6.5-.5 8.8-.1 1.3.2 2 .1 2.6 0 .6-.2 1.3-.3 2-.2 1.7.4 6.6.2 8-.3 1.2-.3 1.6-.4 2.1-.1 1.6.7 1 2-1.1 2.2a758.7 758.7 0 0 0-7.3.6 192 192 0 0 0-18.4.1c-4.5.8-5 .9-5.6 1.5-.9.9-2.3 1.4-5.8 2-4.2.8-4.9.8-5 0 0-.7.8-1.2 3.2-1.6a28.7 28.7 0 0 0 4.2-.8c1.8-.1-4.8-.9-7.2-.9a21 21 0 0 0-6.3.5c-2 .5-4.2.5-4.9 0-.3-.3-1.2-.4-3-.4h-2.4l-.7 1c-.8 1-2 1.4-3.8 1.4a6 6 0 0 0-2.3.7 8 8 0 0 1-3.2.8 10 10 0 0 0-2.3.3c-.7.5-1.8.5-3.7-.1-2.4-.7-3.2-.8-5.2-.3-1 .2-1.5.2-2.3 0-1-.4-1.5-.3-4.2.5-1.4.4-4 .6-4.2.3zm262-2.8c-.3-.4-.4-.7-.2-1 .3-.6.5-.6 3.3 0 1 .1 1 .2 1 .8 0 .6 0 .7-1.8.7-1.7.1-2 0-2.3-.5zm-208.1-5.7c-.3-.2-.3-.4.4-1 1.1-1.1 2.4-1.3 7-1.2 1 0 1.3.1 1.5.5.5 1-.7 1.3-4 1.3-1.5 0-3 .2-3.5.3-.9.4-1 .4-1.4 0zm51-.2c-1.2-.4-3.7-.7-8-1-3-.3-4.5-.3-8.5 0l-3.8.2c-.2-.1-.3-.4-.3-.7 0-.7 1.5-1.3 3.6-1.3 1 0 2.6-.2 3.6-.4a9 9 0 0 1 3.6-.1l5.6.5c2 .2 4.5.4 5.3.6 1.3.3 2.2.2 5.4-.1 2.5-.3 4.7-.4 5.8-.3l4-.1c2.7-.3 5.4.3 5.4 1.1 0 .9-.9 1-12.6 1.5l-6.7.4c-.7 0-1.7 0-2.4-.3zm-41.1-.5c-1-1.1 1-2.1 3-1.5 1.2.3 1.4 1.1.6 1.6-.8.4-3.1.3-3.6-.1zm66.1.2-1.1-.2c-.8-.2-.8-1.3 0-1.8.5-.3 1.8-.4 7.7-.4 7.5 0 7.7 0 7.5 1.4-.1.9-1.3 1.3-2.8.8a53.8 53.8 0 0 0-11.3.2zm131.8-2.6-3.4-.6c-.6-.3-1.4-.3-3.3 0-1.3.1-2.7.2-3 0-.6-.1-1-1-.6-1.4.6-.6 5-.8 7.8-.3a59 59 0 0 0 9.7.7c.5.3 0 1.2-.8 1.6-.9.5-2.8.5-6.4 0zm18.4.1-3.6-.2c-4 0-6-.3-6-1 0-.9 3.6-1.2 8.9-.8 3 .3 3.6.5 3.6 1.3 0 1-1.3 1.3-3 .7zm-34.2-.5-.2-.8c0-1 1-1.4 2.8-1.2 1.8.2 2.2.4 2.2.8 0 .8-.6 1-2.5 1.2a15 15 0 0 1-2.3 0zm-167.3-4c-.3-.8.3-1.5 1.7-1.8 2.8-.6 4.8-.2 4.8.9 0 .7-.7.9-3.5 1-2.4.2-3 .1-3-.2zm187-.2c-.4-.3-.6-1-.3-1.5.3-1 2.8-1.6 6.7-1.8 2.3-.2 3.7-.1 4.2 0 .7.3 15.6.8 19.1.7.7 0 1.3 0 1.5.3.5.5.6 1.4.2 1.6-.1 0-2.1 0-4.5-.3-3-.3-4.8-.3-6-.1-2.6.3-9.1.1-11.5-.3-1.6-.4-2.4-.4-4.4-.1-1.5.2-2.6.4-2.9.7-.6.6-1.8 1-2.1.8zm-24.9-1.2c-.2-.6.4-1.1 1.8-1.5 1.3-.4 2-.3 2.6.2.6.5.6.5.2 1-.3.2-.7.4-1 .4-.4 0-1.2 0-2 .2-1.2.1-1.4 0-1.6-.3zm9-.7c-.4-1.5 1.3-1.9 7.3-1.6 3.5.1 4.6.3 4.8.6.7 1.1 0 1.5-2.6 1.3-3-.2-6-.2-7.8 0-1.4.3-1.5.3-1.6-.3zm-28.1-4c-.3-.4-.3-.5 0-.5s.5.2.5.4v.4l-.5-.4zm-53.6-2c-.3-.4-.4-.8-.3-1.1.2-.5.4-.6 2.7-.6 2.4 0 3.1.3 2.8 1-.4 1.2-4.3 1.6-5.2.6zm6.5-.2c-.5-.5.7-1.6 1.2-1.2.6.5.5 1-.3 1.3-.5.2-.7.2-1-.1zm112.3-1.5c-.7-.1-3-.3-5.2-.3-4.7-.1-7.3-.4-7.5-.8-.2-.8.4-1 2-1 5.7 0 11.1.3 11.9.5h3c3.3-.3 5.8-.3 6.2.1.5.5.4 1-.3 1.2-.8.4-8.5.6-10 .3zm-27.5-2.7c-.3-.6 0-1.3.4-1.4.5-.1 1 .9.9 1.4-.2.5-1.2.4-1.3 0zM46 173c-.5-.5 0-1.2 3.2-4.7 1.5-1.7 2.4-3.6 2.7-5.7.4-2.3 1-3 2-1.9.4.4.5.8.3 2-.2 3.1-2.7 7-6 9.5-1.4 1-1.8 1.2-2.2.8zm206.5-.3c-.1 0-.3-.4-.3-.7-.2-1 .9-1.2 8-1.2a69.3 69.3 0 0 0 13-.9c1 .2 1.6 1 1 1.5 0 .1-1.2.4-2.5.5a21 21 0 0 0-3.3.6c-1 .3-15.4.5-15.9.2zm27.8 0c-3.9-.2-4.2-.3-4.3-1.3 0-.4.7-.5 4.6-.5 4.8 0 5.4 0 5.6.6.2.6-.8 1.5-1.5 1.4l-4.4-.2zm-29.3-5.9c-.4-.1-2.6-.2-4.9-.1h-4v-.8c0-1.5 1.9-1.6 12.5-1 2.5.2 3.8.2 5.2 0 1-.3 2.2-.4 2.6-.3 1.1.2 2 1 1.8 1.7-.3.7-.6.8-1.7.5a6 6 0 0 0-2.7 0c-1.1.3-2 .3-3.4.1a8 8 0 0 0-3 0c-1.2.3-1.3.3-2.4 0zm34.7-1.3c-1.3-.7-1.5-1.7-.4-1.9 1.6-.3 3.9 1 3.3 2-.2.3-2.2.3-2.9-.1zm-15.2-.2c-2.4-.2-3-.4-3-1.3 0-.5.7-.5 5-.4 5.3.1 5.5.2 5.3 1v.8h-2.4l-4.9-.1zm-42.2-1c0-.2-.7-.7-1.4-1.1a7.9 7.9 0 0 1-2.9-4c0-.5-.3-.8-.6-.8-1 0-1.4.5-2 2.1-1.4 4.1-4.3 3-3.4-1.3.4-2 1-3 2.7-4.5 1-.8 1.7-1.7 1.8-2 .1-.4-.6-2-1-2l-1.3-1.1c-1-1-1.6-1.3-3.9-2-2.8-1-5.4-2.4-6.9-4-.8-.8-1-.8-2.5-.8-1 0-2.1-.2-2.6-.4l-2.2-.7c-1.3-.3-4-2-5.8-3.7a13.4 13.4 0 0 1-3.4-5.5c-.1-.7-.5-1.8-.9-2.5-.6-1.2-.7-1.6-.6-4.2 0-1.8.1-3.6.4-4.6.2-1 .4-2 .3-2.6l-.5-3.3a26.5 26.5 0 0 0-1.3-6.2c-.1-.7-.4-1.2-.8-1.4-.6-.2-.7-.5-.9-2.9-.4-5-.3-6.7.5-8.6.9-2.3.7-2.5-1.8-2.2-1.4.2-2 .2-2.5 0-.5-.4-.8-.4-1.3-.2-1 .4-2.9.4-11 0-4-.2-7.4-.4-7.6-.3-.8.3-2.8 1.2-3.5 1.7a2 2 0 0 1-1.6.4 52.8 52.8 0 0 1-8.7.5c-3.2 0-6.9.3-9 .5-2.7.4-5.7.5-10.5.6-3.7 0-8 .1-9.7.3-3.4.4-8.7.2-10.4-.3-2-.7-5-1-12.2-1.3-12.4-.4-19.7-.7-20.6-.9-.7-.1-.8 0-.8.3s.3.4 1.7.4l2.3.2c.3.2 1.9.5 3.4.8 4.4 1 4.7 1.1 4.4 2.5-.2.6-.4.7-1.8 1l-3.5.7c-2.4.4-4 .6-10.2.9a158.6 158.6 0 0 0-27 2.7c-.5-.2-.3-1.3.3-1.7 1-.7 4-1.3 7.5-1.6a114 114 0 0 1 11.8-1c7.9-.2 15.2-1 15.4-1.3.2-.2-2.3-.6-4-.6-.4 0-1.6-.4-2.6-.9l-2.2-1a2 2 0 0 1-1-.3c-.3-.2-.7-.4-1-.4-.4 0-.7-.1-.8-.3-.5-.8-5-2-7.2-2-1.8 0-3.7-1-4.2-2-.7-1.3.5-1.9 2.4-1 1 .4 2.1.7 4 .8 1.8.1 3.3.4 4.7 1 1.8.5 2.6.7 5.4.7 1.9 0 5 .2 7 .4l6.8.3a98 98 0 0 1 23 1.3c1.7.6 6 .7 10.7.3l4.6-.5c1.6-.1 2.6-.5 2-.8-1-.4-1.3-1.2-.9-1.9.3-.4.2-.4 5.6.6l3.6 1c1.9.6 3 .7 6.8.4l4.9-.3a8 8 0 0 0 2.8-.4c.8-.7.5-1.6-1.3-3.5-1.4-1.6-1.7-1.8-2.6-1.8-.5 0-1.7-.2-2.6-.5l-2.9-.8c-.8-.2-1.5-.7-2.3-1.6a201 201 0 0 0-2.5-2.5c-1-1-1.3-1.5-1.1-2 .4-1.4 2-.8 4.2 1.8a9 9 0 0 0 1.8 2c1.2 0 5.4-.2 5.7-.4.2-.2.3-.2.3 0l.1 1.1c0 .5.2.7 1 .8 1 .2 2.6 1.9 4.4 4.5.5.8 1.3 1.6 1.7 2 .7.4.7.4 1.7 0 .8-.4 1-.4 1.7-.1.5.1.9.2 1 .1l.2-1.4c0-.7.1-1.5.3-1.8.1-.3.2-1.4.1-2.7-.1-1.9-.2-2.3-.7-2.7-.8-.6-.8-1.1-.2-2a51.4 51.4 0 0 0-.3-10.7c-.4-2-1.4-4.2-2.1-4.8a5.9 5.9 0 0 1-1.5-3.3c0-2-2.5-7.9-4.8-11.2-1.8-2.6-2.8-3.7-3.8-3.9-.6 0-1.5-.5-2.1-1.2l-1.2-1-3.2.1-4.3.3c-.8 0-1.2 0-2-.7a4 4 0 0 0-2-.8c-.5 0-.8-.2-1-.7-.4-1-2.8-3.2-4.7-4.6l-1.3-1c-.2-.2-1-1-1.9-1.6l-3.5-3.1a40.8 40.8 0 0 0-20.8-11l-3.4-1c-1-.4-2.7-.7-3.9-.7-2.3-.2-2.8-.4-2.8-1.4 0-1.9 1.1-1.8 8 .3a114 114 0 0 0 6.2 2l2.2.8c3.2 1.2 4.2 1.6 5.8 2.7l2 1 1.9 1.3a1203 1203 0 0 0 3.8 3l1.9 1.6 4.8 4.2c.6.7 2 1.8 2.9 2.4l2.8 2c1.3 1 2.5 1.7 3.1 1.7l1.5.6c1 .4 1.7.5 5.1.6 4.2 0 5 .2 6.8 1.5 1.8 1.2 4.2 4 5.2 6l1 1.8c.9 1.2 1.7 2.8 2.5 5.2a70.8 70.8 0 0 0 2.1 5.2c.7 1.7 1.9 3.6 2.3 3.5.5-.1.6-1.3.9-8 .2-6.7.2-8.5-.7-12.4-.4-1.9-.4-2.3 0-3.3.5-1.7.5-4 0-4.6-.8-.8-1.5-3.2-1.6-5.5-.2-3.8 0-6.3.2-6.6.3-.4.3-9.1-.2-14.7-.3-4.8-.3-5.3 0-6.1.6-1.1 1.6-1.7 2.3-1.3 1 .5 1 1 .6 3-.3 1-.4 3.6-.5 7.3l-.2 7.6c-.3 4.2-.4 12-.2 12.7.2.8.4 1 1.8 1.4 1 .4 1.2 1.2.6 2.2-.2.3-.4 1.8-.4 3.2 0 1.5-.2 3.3-.3 4 0 .7 0 2.2.2 3.4a106.2 106.2 0 0 1 .2 18.8c0 1.6-.1 1.6-1 2-1.3.7-1.4 1.3-1 4 .3 1.4.5 3 .5 3.8 0 1.8.7 8 1.1 10.3.5 2.5.7 2.6 3.1 2.6l4.4.4c1.3.2 3.2.5 4.3.5 2.8 0 6.6.4 7.5.5.4 0 1 0 1.4-.3.5-.2 1.6-.3 3.3-.3 3 0 3-.1 3.8-2.2.4-1 .5-1.8.4-4.2-.1-2.1 0-3 .2-3.4.2-.3.4-1.2.4-2.6 0-1.2 0-2.2.2-2.3.2-.1.3-.7.3-1.2 0-.6.5-2.2 1-3.7.6-1.5 1-3 1-3.3-.2-.4.1-1 .9-2 .6-.7 1-1.5 1-1.7 0-.5 1-1.7 1.7-2 .3 0 1-.4 1.4-.7l2.6-1.5c2.5-1.4 4-1.3 6.2.5 1.1 1 1.5 1.6 3.9 6.8 1.2 2.6 1.6 3 2.5 3 .4 0 1 .2 1.4.4l1.3.6c.7.1 1.6 1 2.9 2.6.6.8.8 1.2.7 2-.1 1.4-1 1.5-2.2.2-.8-.9-1-1-2-.8-1 .1-1.2 0-2.4-1l-2.7-2.3c-1.3-1-1.5-1.3-1.8-2.9l-1.1-2.7-1.6-2.6c-1.1-1.8-2.3-2.6-3.4-2.3-.9.3-3.6 2.7-5.3 4.7a18 18 0 0 0-4.1 12.6c0 4.7.4 5.3 2.2 3.7a45.4 45.4 0 0 1 4.8-3.7l2-1.7c1.7-1.2 2.7-1.4 3.2-.6.3.5-.4 1.5-2 2.5a113.5 113.5 0 0 0-5.1 3.7 22 22 0 0 0-7.4 9.5 30 30 0 0 0-.7 3c-.1 1-.5 2.3-.7 3-.4 1-.4 1.5-.1 2.8.4 2.4.8 3.9 1.2 4.5.2.3.5 1 .5 1.7a15 15 0 0 0 1.5 5c.4 0 2.1-2.7 2.1-3.2 0-.3.4-1 1-1.5l.9-1.3c0-.1.7-1 1.7-2 1-.8 1.7-2 1.8-2.3a44 44 0 0 1 3.1-10.2c.7-2.1 2.5-5.4 4-6.8 1.3-1.4 1.6-1.6 2.4-1.5 1.5.1 1.3 1-.5 3A30 30 0 0 0 205 101c-.5 2.2-.6 3.1-.5 6 .2 3.4.2 3.6-1 4-.6.2-1.2-1-1.4-2.8 0-.9-.2-1.6-.3-1.7-.1 0-.6.4-1 1l-2 3.2c-2.4 3.8-2.7 5-3.6 11.6-.2 1.2-.3 3-.2 4 0 1.5.2 2 1.3 3.6.7 1.1 1.4 2.4 1.6 3 .4 1.5 2 3.1 2.9 3.1a5 5 0 0 1 2.2.9c.7.5 1.6 1 2 1l2.2 1c1.9 1 6.1 1.4 12.2 1.3 3.7 0 4.2 0 4.5.4.4.6-.1 1.3-1.2 1.7-.5.1-1 .5-1 .7-.1.6.6 1.3 1.5 1.7 4 1.5 4.5 1.9 5.5 4 .7 1.3.8 2 .3 6.4l-.3 3.7.7 2.2c1 2.5.8 3.6-.2 3.6-.4 0-.7-.1-.8-.3zm-1.8-8.5c.2-.2.3-1.4.4-2.6.3-3.6-.7-5.3-3.6-6a11 11 0 0 1-3.2-1.6c-2-1.5-3.3-2-4.4-2-1.4 0-.8.6 1.6 1.6 2.7 1 4.5 2.3 6.3 4.4 1.5 1.7 1.6 2.3 1.1 4.5-.2 1-.2 1.3.2 1.7.5.6 1.3.6 1.6 0zm22.2 5c-2-.4-2.6-.7-2.6-1.4 0-1.1.5-1.3 3-1l2.5.6c.9.6 0 2-1.2 2l-1.7-.2zm178.6-3.2c-.6-.2-2-.2-3-.1-2 .1-2.7 0-2.7-.8 0-.5.8-.7 4.5-.9 3.4-.1 4.5 0 4.5.9 0 .6-.8 1.2-1.6 1.1l-1.7-.2zm11-.2a6 6 0 0 0-2.7-.2c-1.4.2-1.9.1-2.2-.2-.7-.8-.3-1.2 1.9-1.5 3.8-.6 6.2-.2 6.3 1 .2 1.3-1.2 1.7-3.2 1zm-164.8-.3c-2.1 0-2.3-.6-.4-1 1.4-.4 2.5-.1 2.8.5.1.5-.3.6-2.4.5zM43.9 156c-.5-.7-.7-.7-1.7-.6-1 .2-1.5 0-2.4-.4-1.5-.7-1.6-1.2-.5-3 .5-.7 1-1.8 1-2.4.1-.7.4-1.4.6-1.7.4-.5.5-.5 1-.1.7.5 1.7 2.2 1.7 3 0 .3.6 1.2 1.3 2 1.5 1.5 1.6 2 .8 3-.7 1-1.1 1-1.8.2zm402 .2c-.4 0-.8-.3-1-.5-.2-.3-.1-.4.4-.7 1.4-1 4 0 2.7 1-.5.4-1 .4-2.2.2zm-438-1c0-.3 0-.4.1-.2v.5l-.1-.3zm8.8-2.2c-.2-.5.5-1.2 1-1 .6.2.6.7.2 1.2-.5.4-1 .3-1.2-.2zm-4.7-2.5v-.7c.2-.4.9.1.9.7 0 .4-.7.4-.9 0zm230.6-16.6c-.6-.3-.3-1.1.7-1.8 3-1.9 3.7-2.4 4.8-3.5a11 11 0 0 1 1.8-1.6c.5-.2.6-.2.6.4 0 1-.7 2.1-1.7 2.8l-1.8 1.4a16 16 0 0 1-3.8 2.6l-.6-.3zM18 109.5c-1.2-.6-1.5-1-1.3-1.8.2-.7 1.4-.9 4.8-.6 3 .3 5.7.2 12.8-.2h9.8c5.6 0 5.5 0 7.2-1.1a51.5 51.5 0 0 1 15 0c1 .4 1.3 1.2.6 2-.5.4-.7.4-4.3.2-3.3-.3-4.2-.3-6.3 0a86 86 0 0 1-14.3 1c-4.5 0-17 .6-21.4 1a4 4 0 0 1-2.6-.5zm204.2-12.7c-.7-.7-.3-1.6 1.6-3.4 3-3 4.7-3.5 4.7-1.3 0 .5-1.4 1.8-2 1.8a7 7 0 0 0-1.7 1.6c-1.5 1.6-2 1.9-2.6 1.3zm212-1a10 10 0 0 0-2.2-.2 7 7 0 0 1-2.1-.3c-.6-.4-.9-1.2-.4-1.8.2-.4.5-.4 2.2-.2a117.2 117.2 0 0 0 13.7.4c.6 0 .3.8-.4 1l-1.6.8c-1 .4-8.2.6-9.2.3zM134.3 82.3c-1.3-.6-4.9-1.9-5.3-1.9-.6 0-6.2-2.7-7.1-3.4a49.9 49.9 0 0 0-16.7-7.2c-.3-.1-1.3-.3-2.3-.3-1.8 0-1.7-.1-3 1.8-.5.6-.7.7-2 .7-.7 0-1.4-.1-1.5-.3a40.3 40.3 0 0 0-6.5-3.3 44.7 44.7 0 0 1-5.5-2.5L78.5 63a90.5 90.5 0 0 0-14.1-4.8c-1.6-.4-2.4-1-2.4-1.7 0-1 .9-1 5.2.5s8 2.8 9 3c.6.2 1.5.7 1.9 1l1 .6c.3 0 1.6.6 3 1.4a98.3 98.3 0 0 0 4.8 2.7c.1.2.5.4.8.4.3 0 1.6.5 3 1.2 2.8 1.5 6.5 2.9 7 2.7.3-.1.7-.7 1-1.4.6-1.3 1.4-1.7 2.5-1.4.6.2 2 .5 4.7.8.7.1 1.7.4 2.3.7l2 .7c.5 0 1.4.4 2 .6l3.1 1 4 2c3 2 4.4 2.8 7.3 4.3 2.2 1.2 2.7 1.3 4.4 1.3 1.6 0 2.1.2 3 .8l1.2.7c.5 0 1.7 1 1.7 1.4 0 .5-.7 1.2-1.2 1.2a7 7 0 0 1-1.5-.5zm138.3-4.6c-.7-.5-.3-1.1 1-1.3l4.4-.2 8.2-.4 5.5-.3c.2.1.3.5.3 1 0 1-.7 1.4-2.4 1.3h-11.2c-4.3.3-5.4.2-5.8 0zM235.1 73h.5l-.4.1c-.3 0-.3 0-.1-.1zm-4.1-1c-1.1-.6-1.2-1.4-.2-2.5.7-.7.9-.7 2.3-.6 1.4.1 1.7.2 2 .8.4.7.4.8 0 1.7-.7 1.3-2.6 1.6-4.1.7zM426 69.7c-.3-.2-.4-.7-.4-2.8a46 46 0 0 0-.2-4c-.3-2 0-2.7.8-2.7.9 0 1 .2 1.1 2.6a61 61 0 0 0 .4 5.7c-.2 1-1 1.5-1.7 1.2zm-176-1.4c-.8-.6-1.2-2.2-1.2-5.3 0-2.2-.1-3-.5-3.8-.5-1-.5-1.3-.3-4 .5-5.7.6-6.6.3-7.1-.2-.4-.1-.8.1-1.6.2-.5.4-1.6.4-2.4v-1.7l.4-5.6a89.4 89.4 0 0 0 0-21.6s.2-1.5.2-3.2l.3-6.6c.2-3.8.4-4.4 1.2-4.6 1.3-.3 1.3 0 .8 8.6l-.2 7.2c.1 2.4 0 3.4-.2 4-.3.5-.3.7.2 1.4.2.5.5 1.2.5 1.6 0 .4.1.9.3 1.1l.7 1.3c.3.7.3.9-.4 1.8s-.8 1.2-1 3.8V35c.2.4.2 2 0 3.3l-.2 8.5c0 1 .1 1.1.9 1.4l.8.4-.7.6c-.8.9-1.2 2-1.4 4.7 0 1.1-.3 2.3-.4 2.6 0 .3 0 1.1.3 2l.6 2c0 1.2.8 3.3 1.3 3.6.4.3.6.2.9-.2.3-.5.4-.5 1.2 0 1 .5 1.9.5 3.3-.1 1.1-.5 1.2-.5 2.8-.1 1.6.4 3.5.5 10 .3 1.2 0 1.7 0 2.4.5.6.4 1.1.6 2.2.6 1.3 0 1.5 0 1.6-.7.2-.7 1.1-1 2.5-.8a57.7 57.7 0 0 1 10.2.7c.9.2 3.5.4 5.8.4l4.8.2c.3 0 1.3 0 2.3-.2 3-.3 5.4.7 4.3 1.8l-1.2.6-18.6.5-12.6.2c-1.5 0-4.2 0-6 .2a51.1 51.1 0 0 1-8.1.3h-9.4c-.5.2-.9.1-1.2-.1zm159.4-5.6c-.2-.2-.3-.6-.2-.9 0-.4.5-.4 4.2-.5 5-.1 5.3 0 5.2 1v.7h-4.5c-3.6 0-4.4 0-4.7-.3zm-76.2-.3c-.2-.2-.4-1.3-.4-2.6 0-2.2.2-3.1 1.1-4.2.4-.4.4-.5-.1-1-.5-.6-.6-1-.5-4.6 0-3 0-4.3-.3-5.2-.4-1.2-.4-1.4 0-2 .5-.6.5-1 .3-3.2-.1-2.4 0-2.6.5-3.6.4-.6 1.1-1.3 1.7-1.6 1.1-.7 1.4-1.1.7-1.3-.8-.3-2.3-2.3-2.3-3.1 0-.4-.1-.9-.3-1-.2 0-.6-.7-.9-1.4-.5-1.2-.5-1.3 0-1.9.3-.5.4-1.3.4-4.6 0-2.4.1-4.2.3-4.7.2-.4.3-1.7.3-2.8 0-1.8.1-2.2.6-2.6.6-.7 1.1-.7 1.8 0 .4.5.5.8.4 1.4l-.4 3.2c-.1 1.3-.4 2.7-.5 3.1l-.2 4.3c0 3.2.1 3.6.7 4.3.5.6.5 1 .4 1.7-.2 1.3.1 1.7 1.4 2 .6 0 1 .4 1.3.9l.4.7h3.9c2.1 0 5.2 0 6.8-.2 5.7-.6 9.5-.7 10-.5.6.2 1 0 1.8-.6a4 4 0 0 1 1.8-.8c1.4 0 1.2 1.6-.3 2.1-.8.3-1 .8-.5 1.6l.4 2c.2 1.7.7 2.4 2.7 3.9 1.9 1.4 2.2 2.2 1.7 4-.2.8-.5 1.5-.7 1.7-.2.3-1.6.4-5.3.5l-8.5.2h-4.2c-.8-.4-.9-1.3-.2-1.5l5.4-.3c5.2-.2 11-.8 11.5-1.2.3-.4-.1-1-1.6-2.2a7.5 7.5 0 0 1-3-4.7c-.2-2-.7-2.2-6.4-2.2l-9.4.2c-4.6.3-4.7.2-5.5-.4l-.8-.6-.5.7a3 3 0 0 0-.5.8l-.9.7c-1.4.8-1.8 1.8-1.7 4.3 0 1.2 0 3.1-.2 4.3v5c.2 2.7.3 3.2.8 3.8.4.4.7 1 .7 1.3.1.5 1.7 1 4 1.3 1.2.1 1.6.5 1.4 1.1-.1.3-1 .3-3.6.2-3.2 0-3.4 0-3.8.5-.2.4-.3.7-.1 1.2.4.9.3 3.3 0 3.7a1 1 0 0 1-1.6 0zm-3.4-.6c-.4-.7-.6-2-.3-2.4.3-.6 1.1-.2 1.4.7.5 1.6-.5 3-1.1 1.7zm99-.2c-1-.4-1.2-.7-1-1.1.2-.3 1.8-.4 6-.5 3.3 0 7.5-.2 9.5-.3 2.9-.2 3.6-.2 4.1.1.8.5.8 1 0 1.6-.6.3-1 .4-2.6.3-5.2-.5-6.3-.5-7-.3-1.2.5-8 .7-9 .2zm-131-6.1c-.6-.7-.7-1.6-.5-9.3.4-12.9.4-28.3.1-32.5-.3-4.8-.3-4.9.2-5.3 1-.7 2.3-.2 2.3.9a433.4 433.4 0 0 0 0 14.1 413 413 0 0 0 0 11.2c-.4 8.2-.5 13.4-.3 15.5.5 4.5.4 5.3-.8 5.7a1 1 0 0 1-1-.3zm106.6-.5c-1-.4-1.1-1.1-.2-1.3l5.8-.5c6-.5 6.5-.4 6.5.9 0 .4 0 .8-.2.9h-1.8c-1.5-.3-5.5-.1-8.1.3-.7 0-1.4 0-2-.3zM179 54.7l-1-.3c-.6-.1-.7-.3-.7-1 0-.6.1-.8.7-1h5.2a8 8 0 0 0 3.3-.4c.8-.3 2-.5 2.8-.5 1.3 0 1.4 0 2-1.6.3-.7.3-.7 2-.6 2 .2 4.8-.5 6.4-1.6.6-.4 1.5-.7 2.1-.8.8 0 1.2-.2 1.2-.6 0-.4 1.1-2.7 1.8-3.7.3-.3.5-1 .5-1.5s.2-1.2.5-1.4c.8-1 .3-1.3-2.9-1.5h-4.6c-3 .3-3.6.3-3.9-.1-.4-.7 0-1.8.8-2 1-.3 1.1-.8 1-4.1-.2-1.6-.2-3.4 0-4v-1.7c-.1-.4 0-.7.3-.8.8-.3 1 .3 1 3.8.2 3.5.8 6.7 1.4 7.2.2.2.5.2 1 0a24 24 0 0 1 7.6.2c.3.2 3 .3 5.9.3l6.1.2c.6.1 1.2 0 2-.4 1-.5 1.5-.6 3.7-.5 5.5.2 5.3.2 7-1 1.8-1.2 2.5-2.7 2-4.5-.2-.7-.3-2-.2-3.9l.2-5.6v-2.9l-1-1-1-1-1.8.4c-1.8.5-1.8.5-3 0-1-.6-1.6-.6-5.7-.6-2.4 0-5 0-5.6.2l-5 .4c-3.6 0-4 0-4.5-.4l-.5-.9c0-.8 1-1 4.4-.8 2.6.1 3.6 0 5.8-.4a57 57 0 0 1 12.2-.4c1.8.7 2.8.6 6.2-1 .6-.3.7-.5.8-2.8.3-4 .3-7.7 0-7.8-.3-.2 0-1 .6-1.7.7-.7 2.2-.8 2.5-.2 0 .2 0 .9-.3 1.4a10 10 0 0 0-.4 4v7.6c.3 1.2.2 1.4-.6 2.5l-.8 1.1-.1 5a293.4 293.4 0 0 0-.1 8.7l.2 2.8c.3.3.5 3.4.7 8.4l.4 4.4v1.5a13 13 0 0 0-.4 2.4c0 2-.4 2.7-1.3 2.7-1.1 0-1.3-.6-1.3-4 0-1.8 0-4 .2-5 .1-1.5 0-1.7-.5-2.4l-.7-1c0-.1-.5-.6-1.1-1l-1.2-.9-2.9.3c-2.2.2-3 .1-4-.2-1-.4-1.1-.4-2.1.3-1.1.7-1.9.7-3.5.1-.7-.2-9.3-.5-10-.2-.4.1-2.1 3.5-2.1 4.3 0 .3-.4 1.2-.8 2-.5.8-.8 1.5-.7 1.6 0 .2.7.2 1.4.2 2.3 0 3.3.8 2 1.6-.5.4-4.7 1-6.7 1-.5 0-1.4.1-2 .4l-3.7 1.4a21.7 21.7 0 0 0-4.6 2.3l-1.5.1c-.7 0-2.1.3-3.2.5-1.6.4-7 .6-7.9.4zm105.6-.7c-.8-.4-1-1.3-.7-2.8.6-2.8.4-10.4-.3-18.4l-.2-4.5-.1-9.7-.2-7.1.8-.4c.6-.2.9-.2 1.3 0 .6.3.6.5.5 1.7a204.2 204.2 0 0 0 .7 26.8c.1.2.2 2.6.1 5.2 0 6.7 0 6.8.2 7.8.1.6 0 .9-.3 1.2-.4.5-1.3.6-1.8.2zm-74-5c-.9-.4-1-1.5-.4-1.7.3-.1 2.1-.3 4.2-.3l4.2-.3c1.6-.5 2.9.8 1.9 1.8-.4.4-1 .5-3.5.6l-4.4.2c-.9.1-1.5 0-2-.2zm44-.3c0-.6 0-.8.5-.8.3 0 .5.2.5.5s-.2.7-.5.8c-.5.3-.6.2-.6-.5zm50.8-4.8c-.5-.6-.5-4.2-.2-11.7.4-8.5.6-14.2.4-19.8 0-2.7 0-4.3.2-4.7.4-.5 1.2-1 1.6-.7.1 0 .2 2.5.1 5.4 0 2.9 0 6.5.2 8a14 14 0 0 1 0 4.8c-.7 3-.8 14.4-.2 16.8.3 1.5 0 2.2-1 2.2-.5 0-1-.2-1.1-.3zm86 0c-1-.3-1.6-1-1.5-1.6.2-.7.9-.8 2.8-.5 3.1.6 3.3.6 3.4 1.4 0 .5-.1.8-.3.8-.9.1-3.7 0-4.3-.1zm-71.7-.4c-.4-.1-.7-.4-.8-.8-.1-.6 0-6.5.4-14.8.3-6.4 0-12.5-.6-20.5-.1-.8 0-1.8.1-2.2.3-.8 1.3-1.3 2-.9.4.2.5.5.3 1.5a65 65 0 0 0 .7 11.2c.2.6.6 1.4 1 1.8.7.8.7 1.2 0 1.6-.4.2-.5.5-.5 1.3l-.3 3c-.4 3.4-.8 12.6-.5 15.2.3 3.2 0 3.8-1.8 3.6zm-44-3.4c-.2-.3-.3-2.5-.4-9 0-4.6-.2-9.8-.3-11.4-.1-3.2.1-4 1.2-3.7.7.2.8 1.1.8 5l.3 6.4.4 6c0 1.7.2 3.6.4 4.3.4 1.7 0 2.6-1.2 2.7-.5 0-1 0-1.2-.3zm160.2-.7-4.3-.3c-4-.3-8-.5-12.1-.5-5.4 0-6 0-5.5-1.3.2-.9 2.3-1 10.4-.4 7.9.6 12.2.7 14.3.5 1.6-.2 1.7-.2 2.2-1.3.3-.5.8-1 1-1.1 1.4-.3 2.1 2.3 1 3.3-1.6 1.3-2.1 1.4-7 1.1zm-28.8-1c-.2-.1-.4-.5-.4-.8 0-.2-.3-.7-.6-1-.5-.4-.7-1-1-2.6-.3-2.2-.2-2.5.5-2.5.8 0 1.4 1 1.6 2.8.4 2.6.3 2.5 2 2.3 1.3-.1 1.7 0 2 .3.6.6.4 1.2-.5 1.4l-1.7.4c-1.2.3-1.4.3-1.9-.2zm-36.7-8.3c-1-.6-1.4-.6-2.2 0-.8.5-2 .3-2.2-.5-.3-.8-.1-1.2.5-1.4.6-.2.6-1 .2-2.2-.5-1.3-1-4.4-.9-5 .2-.7 1.3-1 1.9-.6.4.3.5.9.8 3.5.2 1.9 1 3 3 3.9l1.3.6 5.6-.3 8.7-.4c1.7 0 5.2-.3 8-.5 3.2-.3 5.2-.4 5.9-.2 1.4.3 1.8 1 1 2-.3.4-.6.5-3.2.4-1.5 0-4.6.1-6.7.3l-8.7.5c-2.7 0-6.5 0-8.5.2-3 .2-3.7.1-4.5-.3zm-7.2-19.3a13.8 13.8 0 0 0-3.9-2.9c-.7 0-1.4.4-2.5 1.3-.6.5-1 .6-1.7.5-1.3-.2-1.5-.2-5.2 0-3 .1-6.6.2-12.7 0-3.6 0-4-.4-4.3-4l-.3-2.5c-.2-.5 1-1.2 1.9-1 .9.2 1.4 1.5 1 2.3-.1.3-.2.9 0 1.5l.2 1 2.6.2c1.5.2 4.4.1 6.9 0l6.6-.4c2.5 0 7.5-1 7.9-1.6l.1-1.1.1-1.1c.3-.5 1.3-.4 2 0 .6.4.6.7.5 1.5-.1.7 0 1.2.6 2.2.4.8 1 1.7 1.5 2 .6.6.7.6 1.7.3.7-.2 1.3-.5 1.5-1 .5-.8 1.8-1.6 2.6-1.6l1.1-.4c1-.5 3.9-.3 4.5.4.5.6.3 1.4-.5 1.6l-2.6.2c-2 0-2 0-2.9 1-1.6 1.6-5.7 2.6-6.7 1.6zm-123.5-2c-1.4-1-1.7-2.2-.8-3.2.7-.7 2.7-.8 3.3 0 .6.6.6 2.4 0 3-.8.6-1.7.7-2.5.2z"/>
</svg>
