<?xml version="1.0" encoding="utf-8"?>
<svg xmlns="http://www.w3.org/2000/svg" xmlns:svg="http://www.w3.org/2000/svg" version="1.1" viewBox="0 0 387 168">
	<title>Three mice gather together in front of some glass jars. Another mouse is standing on its own on top of the furthest jar.</title>
	<path d="M271.4 167.5c-.3 0-1.1-.5-1.8-1-1.5-.9-2.5-.9-5.7-.1-2 .5-2.4.5-3 .2-1-.5-.8-1.5.2-2.1.5-.3 1.2-.5 1.5-.5.4 0 1.1-.1 1.6-.3 3-.7 4-.9 4.8-.6l2.3 1c1.7.7 1.7.7 3 .2l2.8-1c1-.6 1.9-.8 4-1l4-.3c1-.2 1.7 0 3.3.5 2.4 1 5.3 1.2 10 .9 3.3-.3 3.6-.2 4.2.2 1 .8 1 1.5.1 2.1-1.5 1-11.8.8-15.3-.3-2-.7-6.6-.3-8.3.6a12.9 12.9 0 0 1-7.7 1.5zm-82.3-2a2 2 0 0 1-1-.8c-.7-1.2-.2-1.6 2-1.8l5.2-.7a61 61 0 0 1 16 .1c2 .6 2 .6 3 .1.7-.4 1.7-.5 4.7-.7 4.7-.2 4-.2 6.4 0 1.9.2 2 .2 2.8-.5.9-.7 1-.8 2.2-.4 1.7.4 2.8.1 3.4-.8.7-1 1.7-1 3-.4 1 .5 2 .3 2.9-.5.3-.4 1-.8 1.5-.9a8 8 0 0 0 1.9-.6l1.3-.6c.3 0 .7-.5.9-1l.4-.8-1 .1c-4.6.8-5.9.3-4.5-1.7.5-.7.5-.8.1-1.4-.4-.5-.4-.6 0-1 .2-.1.7-.2 1.2-.1.8.1 2.5-.4 2.8-.9.2-.4-.9-.6-2.4-.4a7 7 0 0 1-2.6-.1c-1.1-.3-1.3-.3-2 .2s-1.1.6-4.3.6c-3.6 0-4.5.2-4.5 1s-1.1 1.4-2.3 1.2c-.5 0-1.2-.3-1.4-.5-.4-.2-1-.3-1.4-.2-.5 0-1.3 0-1.7-.2-.7-.3-1-.2-2 .1a7 7 0 0 1-1.6.5l-5-.7c-.5-.2-.6 0-.9.6-.2.7-.4.8-1 .8l-1-.2c-.3-.2-.9-.1-2 .3-1.3.4-1.7.5-2 .3-.7-.4-.6-1.8 0-2.5.6-.6.5-.9-.5-1.6-.8-.6-1-.6-3.5-.6-2 0-2.7.2-3 .5-.4.3-.4.4.1.4.8 0 1.3 1 1 1.8-.5.9-1 1-3.6 1.2-3.9.2-4.5.4-4.8 1.4l-.5 1c-.3.5-1.2.5-2 0-2.4-1.3-3.4-1.7-4.4-1.4-.6.1-1.2.4-1.4.5-.7.6-4.5-.6-5.3-1.6-1.1-1.3-2.6-1.6-7.3-1.5-2.5 0-4.7.3-5.7.6-4 1-4.7 1.1-5.8 1.3-.6 0-1.6.4-2.1.6-1.6.9-3.4 1.6-4 1.6a71 71 0 0 1-14.8 6.4 48.7 48.7 0 0 1-12.6 1.5c-3.3 0-6.5.2-7.1.4-1.2.3-1.6 0-1.9-1.1-.1-.5 0-1 .3-1.3.6-.7 1.3-.8 8.2-1.3 8.3-.7 9.6-.9 12-1.4 3.6-.7 10-3.1 13.2-4.9 1.4-.7 1.4-.8.8-1-.5-.3-2.3-.5-5.3-.6-2.5 0-6.4-.4-8.7-.6l-8.7-1a44 44 0 0 1-13.7-3.1c-.3-.2-1-.7-1.8-1-.7-.4-1.6-1-2-1.5-.3-.5-.8-1-1.2-1.1-.7-.3-2-2.6-2.6-4.6-.9-3-1.6-3.9-3.2-3.9-1 0-4.1-.7-4.8-1.1-.3-.3-.8-.5-1-.5-.4 0-.8-.3-1.2-.6-.4-.6-.7-.7-1.1-.6-2.6.8-3.3.8-4.6.2l-2.9-1c-1.7-.4-2.3-.8-2.4-1.7v-.8c-.2-.5-2.1-.8-5.4-.8-2 0-4 0-4.4-.2-.3-.2-1.2-.8-1.8-1.5-.8-.8-1.4-1.2-2-1.2a8 8 0 0 1-1.7-.2c-1-.4-1.6-.2-3 1.2a37 37 0 0 1-10.8 4.7 63.9 63.9 0 0 1-20.8.5c-4-.3-5.3-.6-6.4-1.2a11 11 0 0 0-2.5-.7 21 21 0 0 1-4-1.4l-3.4-1.6c-.6-.2-1.4-.5-1.8-.5-1.7 0-6-2.2-8.4-4.2-.3-.3-1.2-.7-1.9-1l-1.7-.7c-.2-.2-1.2-.4-2.1-.5-3.3-.4-4.5-1.4-4.1-3.4l.2-2.2c0-1.4.9-2 2.6-2 .8 0 1.7-.2 2.5-.7 1.2-.6 1.8-.7 4.6-.8l3.2-.2.5-1c1-2.6 1.1-3.2 1-7.7 0-4.8 0-5.7-.3-8.3-.2-1.2-.2-1.8 0-2a5 5 0 0 0 .4-2V78.8c-.2-2.5-.1-4.5.2-7.7.2-2 .2-3.2 0-4-.3-1.1-.2-1.3.5-2.2.7-.9.8-1.2.8-2.5 0-2.8.9-3.8 3.7-4.4l2.8-.6c1-.3 3-.6 4.4-.8l2.5-.3v-2.6c-.2-2.1 0-3.2.4-5l.8-2.4c0-.2.3-1.6.3-3.2a17 17 0 0 1 2.3-8.7 7 7 0 0 1 1.4-2.1c.6-.6 1-1.2 1-1.4l.6-1 1-1.6.7-1.4c.4-.7.9-2.3.9-2.9 0-.3.5-1.4 1-2.6 1-1.8 1.1-2.2.9-2.7-.5-1-.4-7.5 0-8.7.8-1.8 1.6-2.6 3.2-3.1.9-.3 1.6-.7 1.8-1 .4-.7 2.7-1.8 4.2-2 1.8-.2 3 .3 4.2 2 .8 1 .8 1.3.8 3 0 1-.1 2-.3 2.4-.4 1 0 1.2 1.4 1.3 2.8.2 4 .6 7.5 2.3l5 2.3c2.2.8 2.2 2.3 0 3.5l-1.2.8-1 .4-2.5 1.3c-1 .5-3.2 1.5-4.9 2l-3 1-.5 1.2c-.2.7-.7 1.6-1 2l-1 1.6a14 14 0 0 0 1.5 6.8c.9 1.8.9 1.8.5 2.9-.3.6-.5 1.3-.5 1.6 0 .7-1 2-1.5 2-.3 0-.7-.2-1-.4-1.3-.9-1.5.8-.5 4.2l.7 2.6c.1.6.4 1 .6 1 .2 0 1.9-1.5 3.7-3.3A62.4 62.4 0 0 1 71 37.8c1-.8 2-1.4 2.2-1.4l3-1.2A46 46 0 0 1 92.7 30c3-.3 2.7-.3 8 0 5 .2 6.5.4 7.4 1.2 1.6 1.5-.5 3.7-3 3.1a55.8 55.8 0 0 0-15.4-.2 58.4 58.4 0 0 0-24.3 11.3c-1.5 1-3.3 2.3-5 4l-4.6 4.4c-2.5 2.5-2.5 2.7.3 2.8h2.8c.4 0 2.2 0 4 .2 5 .4 6.5 1 7.6 3.3.5 1.1.6 1.5.4 2.2-.2.7-.1 1.1.6 2.5l.8 1.7v6.3a695 695 0 0 1-1 37.2c-.3 4.1-.3 4 1.7 4.2 1.7 0 2.2 0 4.4-1 1.5-.7 3-1 6.4-1.2 2.3-.1 3-.3 3.7-.8l2-1c1-.6 1-.6.5-1.9a4.3 4.3 0 0 1 0-3.5c.4-.8.4-1.1 0-2.2L88.3 96c-.8-3.2-2-6-3.6-7.7-1-1.3-1.2-1.6-1.2-2.8 0-1 .2-1.8.9-3 .9-1.6 1-2 .8-6.9 0-2.4 0-2.4-.7-2.3-1 .3-1.5 0-1.5-1s.5-1.8 2-4a14 14 0 0 0 1.2-1.8c0-.4 2.7-5.7 2.9-5.7l2.3-2a31.7 31.7 0 0 1 8.7-6.1l3.1-1.5 2.7-1.1c.3-.2 1.3-.5 2.1-.6.9 0 2.3-.3 3-.5a37.6 37.6 0 0 1 6.9-1.4c.6-.1 1.6-1.6 1.6-2.4 0-.3.4-1.2.8-2 .5-.8 1-2.1 1.2-2.8A9.2 9.2 0 0 1 125 36a23 23 0 0 0 2-1.3c1-.7 1-.7 2.3-.4 1.4.3 3.8.2 7.8-.4 1.8-.3 5.2-.3 14.4-.2 12.4 0 16.6.4 17.4 1.2a29.5 29.5 0 0 1 3.3 6.8c.3.5.5 1.1.5 1.3l.6 2.8c.7 2.9 1 3 4 3.2 3 0 6.3.8 7.7 1.6.6.4 1.3.7 1.6.7.5 0 .5-.3.6-6.2 0-4 0-6.3-.3-6.7-.2-.3-.3-2.6-.4-6l-.1-6.7c0-1.3 0-1.5 2-4.5 1.2-1.7 2.1-3.4 2.1-3.6 0-.3-.6-1.2-1.3-2-2.3-2.3-2.7-3.7-1.5-5.1a3 3 0 0 1 2-1c3.3-.7 4.1-.9 5.3-1.4 1.7-.7 2-1 1.5-2.2-.3-1 0-3.6.6-4 .8-.6 3.2-1 7.3-1a45 45 0 0 0 4.6-.3c.1-.1 1.7 0 3.6.1a650.5 650.5 0 0 0 40.3-.6c5.5-.3 6-.2 7.2 1 1.2 1.4 2 5 1.2 6.2-.2.4-.1.6.4 1 .8.5 2 .5 3.1-.3 2.2-1.4 3.7-2 5.5-2a109.8 109.8 0 0 0 16.4.4l6.6-.1h3.8v-.8c0-.6 0-.6.2 0 0 .5.2.5 1.2.4a141.8 141.8 0 0 1 19.4.4c1.8.6 3.5 1.9 4.2 3.2.2.4.9 1.2 1.5 1.8 1 1 1.5 1.3 4 2 3 1 3.9 1.7 3.9 3 0 1-1.6 2.4-3.3 2.8-2 .5-4.6 2.2-4.5 3l.3 1.8c1.1 4.6 1.3 7.3 1 14.8l-.2 4.9v1.7l4.3.2h10.4c6-.2 8-.2 13.2 0l10.4.5c4.2.1 8.2.4 8.8.5 2 .6 3.2 2.6 2.6 4.8-.3 1.4 0 1.7 1.9 1.7l2.7.3a273.4 273.4 0 0 0 6.7 1.7c.7.4 1 1.4.8 3.1l-.2 1.6-1.8 1.2c-1.3.8-2 1.5-2.3 2.3-.3.6-1 1.3-1.4 1.6-1.9 1-1.7.7-2.9 4.8a191.8 191.8 0 0 0-1.6 5.1l-.9 2.6-.7 2.3-.7 2c-.5 1.5-1 2.8-1.8 3.7-.3.4-.6 1-.7 1.5-.1.4-.7 1.3-1.4 2l-1.2 1.5 2.2.1c2 0 2.1 0 1.7-.5a2 2 0 0 1-.4-1.1c0-.5.2-.8 1-1.1 1.2-.6 4.6-.4 6.2.3 1.1.5 1.7 1.3 1.4 1.9-.1.1 0 .7.4 1.3l.6 1-.6.7c-.7.7-.7 1.1 0 1.5.6.3.9 1.1.8 2.4-.1 1.4-.7 1.8-2.5 1.8h-1.6l.2 1c.3 1.6-.5 2.3-2.5 2.5-1.6 0-1.7.1-1.9 1-.3 1-1.2 1.4-2.6 1.2-.8-.1-1.1 0-2.2.8l-1.3 1-4.8-.1h-5l-.5.9c-.5.7-.5.7-5.1 1.8l-3.6.8c-1.1.3-4.8.8-5 .6l-2.1.4c-1.1.3-3.2.7-4.7.8l-6.3.8c-2 .4-4.2.6-4.8.6a13 13 0 0 0-5.8 1.5l-2 1.7c-1 1-4.5 2.9-6.7 3.5-.7.2-2 .4-2.7.4-.8 0-1.7.2-2.4.5-1.5.8-3.6 1.5-5.8 1.9-1 .1-2 .4-2 .5l-2 .5-3.4.9c-6.4 1.9-6 1.8-8.6 2.8-1 .5-2.4.9-3 .9-1.5 0-1.6.4-.5 2a39.2 39.2 0 0 1 4 11.3c.1.4.3.8.5.8.2.1 3.3-2.8 7-6.5 6.6-6.6 7.8-7.6 9.9-8.6.6-.2 1.6-.8 2.4-1.3 1.3-1 3.4-2 5.1-2.5l2.6-1c1-.4 2.5-.8 3.4-1a44.4 44.4 0 0 1 9.6-.7c5.4.3 6.7.6 9.7 2.4 2.8 1.7 2.8 1.7 2.6 3l-.2 1.2h1.3c1 0 1.2.1 1.8 1a3 3 0 0 1 0 3.8c-.7.8-1 1-1.7.5-.3-.2-.3-.4 0-1.1.3-1 .3-1-.6-2.2a7 7 0 0 0-2-1.8l-1.9-1.2c-.5-.4-1.3-.9-1.8-1l-2-.8c-.7-.3-2-.4-3.6-.4-3.4 0-11.3.5-12.5.8-1.9.4-6.5 2.3-7.4 3-1.4 1-2.4 1.7-3.2 2l-3 1.8c-1.9 1.3-2.6 2-6.4 6.5l-1.3 1.2c-.3 0-1 .8-1.5 1.6-.6.8-1 1.4-1.2 1.4l-1 1.1a28 28 0 0 1-2 2.4 14 14 0 0 0-3 4l-1.3 2.2-.6 1c0 .6-1.3 1.5-2.5 1.7-1.4.3-7.4 1.1-8 1.1-.2 0-.6-.4-1-1-.4-.8-.6-.9-1.7-.9-.8 0-1.4-.1-1.6-.4-.3-.2-1-.3-2.7-.3-1.6 0-2.8-.2-4-.6-1.6-.5-1.7-.5-3-.1-.7.2-1.6.7-1.8 1l-1.8.7-1.5.7c-.4.3-.3.4.3.4.4 0 .9.2 1.2.7 1.1 1.5 1 1.5 3 1.3l3.1-.3c1-.2 1.5 0 2.3.3 1.6.8 3.8 1 6.7.3 1.9-.4 2.8-.4 3.7-.3 1.7.4 13.3.2 17.1-.2 3.1-.3 3.3-.3 4.6.2a7 7 0 0 0 4.6.4c3.4-.8 6-1 12-1 6.8 0 7.6.2 7.8 1.2.2.8-.5 1.2-2.6 1.7-1.8.5-2.5.5-7.8.2-5.8-.3-6-.3-7.9.3-3.2.9-4.6.9-6.8 0-1.7-.7-2.1-.8-3.2-.6a21 21 0 0 1-6.9.6l-4.3-.2a6437.5 6437.5 0 0 1-12 .5c-.4.1-2.2 0-4-.3-2.3-.4-4-.5-6.3-.4l-3.2.1-1-1c-1-1.1-1.2-1.1-2.7-1.1-1.3 0-1.9 0-2.6.6a44 44 0 0 1-10.8 4.5c-.8.1-1.3.4-1.7.9-.6.7-.6.7-1.8.4a9.6 9.6 0 0 0-5.1.3c-1.4.5-3.3.5-5 .2-1.9-.4-7.7 0-8.8.5-1 .6-1.5.6-3.4 0a88.4 88.4 0 0 0-17.7.2l-3.2.5a5 5 0 0 1-1.7 0zm-5.5-13.1c0-.4-.8-1-1-.8-.3.3.1 1 .6 1l.4-.2zm7.5-1.6c.4-.2 1-.9 1.2-1.5l1.3-2a4 4 0 0 0 .7-2.2c.1-1.2 0-1.5-.6-2.2-.7-.8-1-.9-3.3-1.2-3.2-.3-4.9-.7-6.1-1.3-.5-.3-1.3-.5-1.8-.5-.8 0-1.3-.7-.8-1.2l1.2-1 1-.5 1 .6c.5.4 1.6.9 2.4 1l1.7.6 1.4-.1 1.1-.3-1.2-1c-1.8-1.6-2-2.2-1.7-4.2.3-2 .7-2.5 2-2.3 1 .2 1.6.9 2 2 .2.7.6 1.3 1 1.6.5.2 1.1 1 1.6 2 .4 1 1 2 1.2 2.2 1.7 1.7 4-3.4 4-9 0-1.5-.2-3.2-.3-3.7-.2-1.1.3-2.2 1.3-2.6.3-.2.8-.6 1-1 .2-.5.6-.8.8-.8 1.1 0 .5-2.6-.8-3.2-1.1-.5-2.2-.2-2.2.7l-.7 2.3c-.7 2.2-1.1 2.5-2.7 2-.7-.2-1-.1-1.8.6-.8.6-1.2.7-1.8.6-1-.2-1.2-.5-1.2-2.2 0-1.2.1-1.4.7-1.7.5-.2.7-.2 1.4.3 1 .8 1.5.7 1.7-.3.2-1-.3-1.8-1.4-2.3-1-.4-2-.2-2.8.7-.6.6-.6.7-.5 2.5.2 1.7.1 2.1-.4 3-.3.7-.6 1.2-.8 1.2l-.5.7c-.5.8-1.8.9-2.7.1-.9-.7-1.8-.8-3.7-.6-1.5.1-1.7.2-3.8 2-2.7 2.4-2.8 2.4-3.7 4.4l-1 2.2c-.3.6-.3 4 0 4.6l.5 1.1c1 2.3 1.5 3.2 2.2 4a24 24 0 0 1 3.4 3.4l2 1.3c1.9 1.1 2 1.2 3.6 1 1.3-.1 2 0 2.6.2 1.3.5 1.5.5 2.3 0zm4-16.7c-.5-.4-.6-1.7 0-2.1.2-.2.7-.3 1.2-.3 1 .1 1.9 1.3 1.4 2-.4.6-1.9.8-2.6.4zm59.6 16.6c.3-.1 1-.9 1.6-1.7 1.1-1.5 2.5-2.5 3.5-2.5l4.7.1h4.1l.5 1c.6 1 3 2.3 5.2 2.7 2.7.6 3 .6 5-.6s2.7-2.3 2.7-4.1l.2-1.6c.2-.5.2-1.1-.1-2.2a25 25 0 0 1-.6-3.1c-.3-1.9-1.2-4-2-5-.4-.2-.7-.7-.7-.9 0-.2-.2-1-.5-1.6a5.6 5.6 0 0 0-3.9-3.2l-2.1-.7c-1.7-.7-4.1-.5-7 .6a9.4 9.4 0 0 0-4.7 3 14 14 0 0 1-3.6 3c-.4.3-.8.4-2.2.4-1 0-2.2 0-2.7-.2-2.3-.6-2.6-.6-3.6.3l-1.1 1c-.2.4-1.5.3-1.9 0-.2-.2-.3-.6-.3-.9 0-.4-.5-.6-2-.8-.8 0-1.1-.2-1.5-.8l-.5-1.3c0-.3-.1-.9-.3-1.2-.4-.6-.4-.6-.6-.1l.1 1.4c.4 1.3.4 3.8 0 4.9-.5 1-.5 1 1 1.3 1.5.3 1.4 2.3-.2 3.3-1.3.8-2.1.6-2.7-.6-.6-1.1-1.1-1-1.4.2a11 11 0 0 1-.8 2c-.8 1.8-1 2.8-.4 3.3s.7.5 2.6-.2c.5-.3 1.5-.4 2-.5.7 0 1.7-.3 2.7-.8 1.5-.8 2-1.4 3.1-3.4.3-.6.7-.8 1.1-.8.9 0 1.3.9 1 2.3a2 2 0 0 0 .5 1.7c.3.4.6 1.3.7 2.1a21 21 0 0 0 .8 4l.1.8 1.8-.1c1-.1 2.1-.3 2.4-.5zm-34-1.8c1-.4 2-1.2 2.6-1.8.5-.6 1.2-1.1 1.5-1.1.6 0 1.6-1.1 2.8-3.3 1.1-2 1.1-2.2.7-6.8-.2-2.6-1-4.8-2-5.4-.4-.2-.5-.2-.9.3l-3.8 4.9c-.7.7-1.3 1.6-1.3 2 0 .4 1.9.6 3.1.3 1.6-.4 3-.1 3.2.6.1.5 0 .8-.8 1.5-1.2 1-1.5 1-3.6.5l-1.5-.3-1.2 1c-1.7 1.6-2.5 1.8-4 1.2-.6-.2-1.8-.6-2.6-.7-1.8-.3-4.3-2-4.9-3-.2-.4-.6-.9-.9-1-.4-.2-.5-.1-.7.8-.9 3.2-.7 4 1.1 5.8.7.6 1.2 1.3 1.2 1.5 0 .3.4.8.8 1.3.7.7 1 .9 2 .9.7 0 1.4.2 1.7.4.5.5 3 1.1 4.6 1.2.8 0 1.7-.3 2.9-.8zm-76.3-.6c0-.2.8-.2 2.4 0 7.8.4 10 .3 11.8-.6.6-.2.6-.4.5-1.1-.3-1.6 1.3-3.8 3-4.2.6-.2 1.4.4 2 1.6.3.4 1.8.7 2.2.4.2 0-.1-.7-.6-1.3-1.9-2.4-.4-2.9 1.7-.6 1 1 3.1 1.5 4.2 1 1-.4 1.1-.5.7-2.4-.7-3.4-.4-5.5 1.4-9 .8-1.6 1-2.2.8-2.6-.4-.8-.2-1.5.4-1.7h1c.3.3 2.6-1 4-2.3 1-.9 1.6-1.2 3.5-1.7l2.7-.6c.7 0 1.5-1 2.3-2.6.3-.8 1-2 1.6-2.5.6-.6 1.6-2 2.2-3 2-3 1.9-2.6 3-5.2a10 10 0 0 0 1-4c0-1 0-1-.7-.8-.6.1-2.1 0-3.7-.6-.6-.1-.5 0 .4.9 1.2 1 1.4 1.4.8 2-.4.3-1.9 0-3-.8-.2-.2-.6-.3-.7-.3-.5 0-2.2 1.8-3 3.4-.5 1-1.3 2-1.7 2.4-.8.4-.8.5-.3.8.5.5 1.5 1 3 1.7 1 .4 1.3 1 .6 1.5-.6.5-2.7-.2-4.3-1.4l-1-1c-.7-.5-.6-1.2.2-1.5.3 0 .5-.4.5-.8 0-1 .6-2.2 2-4.4 1.6-2.3 2.2-2.7 3.5-2.5h1.5c.8-.4.7-.5-1-1.7-1.6-1.1-1.9-1.8-1-2.3.5-.3 1-.1 3.4 1a19.8 19.8 0 0 0 5 2c.2.3 1.6.2 2-.2.2-.3.1-.5-.3-.9-.7-.6-.7-1.7-.2-2.6.5-.6 1.6-4.3 1.9-6l.2-1h-1.4c-1.7 0-3.1.8-3.4 1.9 0 .7-1.1 1.8-1.7 1.8l-1.2 1c-.7.7-1.3 1.1-1.6 1-.6 0-.7-1.3-.1-2.2 1-1.5 1.2-2 .9-2.7-.5-.9-.3-1.5.5-2.2 1-.9.7-1-2-.6-1.5.2-2.2.8-1.6 1.4l.7 1.6c.4 1.2.2 2.2-1 4.3l-2.4 4.7c-1.8 3.6-2.5 4.4-3 3.6-.2-.4-.3-.4-1 .4-.4.5-1 1.3-1.6 1.8-.4.4-.8 1-.8 1.4 0 .6-.2.7-2 .9-1.4.1-1.5 0-3.2-1.1l-2-1.4c0-.3-1-.3-1 0 0 0 .2.4.5.6.3.3.5.6.5.8 0 .6-1 1.5-1.7 1.5-.3 0-1 .5-1.7 1a67.2 67.2 0 0 1-3.4 3c-1.1 1-2 1-2.1-.2 0-.4 0-1.2.3-1.7.5-1.1 2.6-4 4-5.4l1.2-1.3c0-.5-.8 0-2.1 1.2-1 1-1.5 1.2-1.5 1-.2-.6 1.4-3 2.5-4 .5-.5.8-1 .8-1.1 0-.2-.8-1-1.8-1.8-4-3.4-5.4-4.8-5.6-5.1-.4-.6.9-1.7 1.8-1.7.6 0 .7 0 .4-.4-.4-.3-9.3-.4-13.1 0-2.2.2-2.5 0-2.6-1.1 0-1 .7-1.2 4-1.5 1.6-.1 3.3-.3 3.6-.5a77.2 77.2 0 0 0 23.6-1c2.6-.3 6-1 6.7-1.2.3-.1.5-.4.5-.7 0-.6.9-1.3 2.4-2a25 25 0 0 1 5.3-2.2l3.4-1.4c3.4-1.5 4-1.8 4-2.3.2-.2.3-1.9.5-3.7.3-2.9.3-3.5 0-4.5-.3-.8-.4-1.7-.3-2.7.2-2-.7-4.3-2.7-7.4-.5-1-1-1.3-1.4-1.3-.6 0-1.8-1-2-1.8-.1-.3-1.4-1-3.2-1.9l-3.9-1.9-2-.6c-.6-.1-1.4-.4-1.7-.6-.9-.7-1.5-.9-3.4-1.1l-4-.7-2.2-.4-1 .7c-.6.3-1.5.7-2.1.8-.7.1-2 .6-2.9 1.2l-2 1a61.1 61.1 0 0 1-12.7 2.3 33 33 0 0 0-6.4.3l-4 .4-2 .3c-1 .3-2 .4-2.6.3l-3.2.1c-2.4.4-2.4.4-5.3.2a16 16 0 0 1-3.3-.6c-.7-.2-1.9-.4-2.6-.4-.8 0-1.6 0-1.9-.2-.2-.2-1.1-.5-2-.7l-2.4-.8c-2-.9-3.7-1.4-4.4-1.5-.5 0-1.3 0-1.8-.2l-3.4-.4c-1.3 0-2.7-.2-3-.3-2.2-.5-8.8 3.2-12.8 7.2-1.4 1.4-2 2.4-3 4.7-.9 1.9-1 6.2-.5 9 .3 1.2.5 3.3.5 4.8 0 2.2 0 2.5.4 2.7 1 .3 3.5 1.5 4.5 2.2.6.4 1.3.8 1.6.8l.7.2c.1.2.5.3.8.3l3.1.8 3.8 1a40.8 40.8 0 0 0 12.7 2.6 162.5 162.5 0 0 0 11.5 1c2.7 0 5.7.3 6.8.4 1 .2 2.8.2 4 .2 2.5-.2 3.1 0 3.3 1 0 .4-.2.7-1.1 1.2-1 .5-1.4.6-2.7.4-2-.2-2.7-.2-3.3 0-.4.1-.4.2-.1.4.5.3 8 0 9.3-.3 1.2-.3 4-.3 4 0 0 .2.1.3.3.3.3 0 1 .3 1.8.7 1.2.6 1.8.7 3.8.8 3.1 0 3.9.4 4.8 2.3.3.7 1.2 2 1.8 2.6.9.9 1.2 1.4 1.1 1.8-.1 1.3-1 1-3.2-1-1-.9-2.4-2-3-2.2l-1.1-.6-.6.6c-.4.3-.8.6-1 .6 0 0-1 .7-1.9 1.7-1 1.1-1.9 1.7-2.3 1.7l-.6.1c0 .4 2 3.1 2.5 3.5.4.2.7.6.7.8 0 .3 1.9 2.1 3.5 3.4 1.2 1 1.9 1.9 1.7 2.5-.2.7-.8.7-2.1.1l-1-.2v1c-.1.5-.2.6-1.2.6s-1 0-1.1-1.1c0-1 0-1.2.5-1.3.7-.2.6-.6-.2-1.6a23 23 0 0 1-1.8-2.6 35.9 35.9 0 0 0-3.3-5 2 2 0 0 0-.4-.8c-.4-.5-.4-.5-1.2.2-.8.8-1 1.5-.5 1.5s1.3.8 1.3 1.4c0 .4.2.7 1 .9.9.3 1.7 1.3 2.7 3l1 1.7c.4.3.6.8.5 1-.1.9-1.1.8-2.3 0a5788.6 5788.6 0 0 0-3.5-2.5c-.2 0-.6-.3-1-.6-.7-.7-1.2-.4-1.8.9-1.8 3.7-2.4 4.6-3.3 5.1-.8.5-1 .5-1.4.2-.3-.3-.4-.6-.2-1.7l.1-1.3-1 1c-.4.5-.9 1.1-.9 1.4 0 .6 4.6 5 5.8 5.7.6.3.8.6.8 1.1 0 .7 0 .7-1 .6l-1.4-.4c-.2 0-.5.2-.7.6-.2.5-.5.6-1 .6s-1 0-1-.2c-.2-.4-1.4-.4-1.7 0l-.8 2-1.2 2.3a5 5 0 0 0-.8 1.2c-.1.4-.4.6-.8.6-.7 0-.7 0-.8-2-.2-2.4-.2-2.7 0-4.1.2-1.6 0-1.6-1.2.2-.3.6-.7 1-.8 1.1l-.7 1.2-.6 1.1 1.4 1.3a35.3 35.3 0 0 0 3.8 3.2c.6.5.7.6 1.4.2.4-.2 1-.4 1.4-.4.8 0 3.6 1.2 3.6 1.5 0 .6-.8 1.2-1.7 1.4l-1 .2 2 2a10 10 0 0 0 4.2 3c.4 0 .5 0 .5-.8a6 6 0 0 1 1.4-3.4c.3-.5.5-1 .5-1.6 0-.7.7-2 2-3.3 1-1 1-1.1-1.6-3.3-.6-.4-.7-.8-.6-1.1.1-.4.4-.4 1.2-.3 1 .1 1 0 2.5-1.4.8-.9 1.7-2 1.8-2.6.5-1.3 1.5-2 2.3-1.5l.8.4c.1 0 .8-.8 1.5-1.8 1.6-2.5 2.4-3.3 2.9-3.2.9.4 0 2.1-1.9 4.2a9 9 0 0 0-1.1 1.5c-.4.6-.3.6.6.4.8-.1 1 0 1.2.5.3.6.2.9-.3 1.8a12 12 0 0 1-.9 1.6 34.7 34.7 0 0 1-1.7 4l-1 .8c-.5.2-.7.5-.6.7l2.1 1.6c2 1.3 2.6 2 2.2 2.4-.1.3-1.7.4-1.7 0l-.7-.6c-.4-.2-1.5-1.2-2.5-2.1-1.4-1.4-2-1.8-2.6-1.8-1.1 0-1 .7.2 1.2 1 .3 6 5 6 5.4 0 .4-.7.8-1.2.8a12 12 0 0 1-3.8-1.8c-.3-.6-1.4-.3-2 .5l-.5 1c0 .1-.2.5-.5.7l-.6.7c0 .2-.2.7-.6 1.2-.7 1.1-.7 1.5.3 2 1 .4 1.1.3 1.1-.4 0-.8 1.2-2 2-2 .3 0 1.1.5 2.1 1.6.9.8 1.7 1.6 1.9 1.6.5 0 1.3 1 1 1.4 0 .4-.5.4-3.6.3a43.3 43.3 0 0 1-7-.8c-.8-.2-2.7-1.7-2.7-2.2 0-.2-.8-1.2-1.8-2.2-3.4-3.7-4.6-4.7-5-4.7-.2 0-.5-.3-.6-.5a3 3 0 0 0-1.1-1 20 20 0 0 1-4.5-3.6c-1.4-1.3-2.1-1.7-2.1-1l-1 1.6c-.7.8-1.1 1.7-1.1 2.1l-.2 1.3c-.4 1 .6 3.4 1.6 4l.8.5.3-.7c.3-.4.3-1 .2-1.7-.2-1.6.1-2.9.9-3 .8-.3 1.7 0 2.4.6.3.3 1.2.8 2 1.2.8.4 1.5.8 1.5 1l1.3 1a16 16 0 0 1 2.6 2l1.6 1.4c.5 0 .9 1 .7 1.6-.2.7-1.3.7-2.2 0-.8-.6-1.3-.6-1.3 0l-.8.8c-1 .6-1 .9.2 1.4.6.2 1 .6 1 .8 0 .2.6.5 1.2.7 1 .3 1.1.3 1.6-.2l1.4-.8c.8-.3 1-.3 2.1.2 2 1 1.9 2-.5 2.3-1.2.2-1.4.2-1.1.5.3.5 2 .5 2 .1zm15.8-8.9c-.4-.4-.1-1 .7-1.8l1-1c0-.9 3.3-3.9 4.8-4.5.5-.1.6-.3.8-1.5.4-1.7 3.7-4.8 4.4-4 .7.6-2.8 5.4-4 5.4-.3 0-.4.1-.3.5.1.4-.3 1-1.5 2.2-1 .9-2.1 2.2-2.6 3l-1.3 1.6c-.5.3-1.7.4-2 .1zm-16-8.3c-1.8-2.2-1.8-3.7 0-3.6.8 0 1.5 1 1.6 2.5 0 1.2 0 1.3-.6 1.4-.4 0-.8-.1-1-.3zm17.6-4.9c-1.6-1.3-2.6-2.5-2.6-3.1 0-.8.8-1.5 1.8-1.5.9 0 1.2.4 2.6 3.2.7 1.3.9 1.7.6 2-.5.6-1.2.4-2.4-.6zm5.6-1.4c-.7-.4-1.8-1.4-2.5-2.3a10 10 0 0 0-2-2c-1.2-.6-1.8-1.4-1.8-2.3 0-.7 0-.8.6-.8.7 0 3.6 2.6 4.7 4.2 1.6 2.4 2.3 2.5 4 .8 1-.8 1.7-.7 1.4.2-.2.6-2.5 3-3 3 0 0-.8-.3-1.4-.8zm6.3-.2c-.4-.3-.2-1.2.4-2.2l1.8-2.8c4.2-7 4.3-7 7.6-3.8 2.2 2.2 2.4 2.6 1.9 3.1-.6.5-1.5.4-3-.4-2.2-1.2-2.5-1.2-4 1.2a75 75 0 0 0-2.2 3.6c-.7 1.3-1 1.5-1.6 1.5-.4 0-.8 0-1-.2zm-1-5.3c-.5-.3-.2-1.5.4-2.3l1.9-2.3c1.2-1.5 2-2 2-1 0 .2-.3.7-.6 1l-.5 1-1.1 1.8c-1.4 2-1.7 2.3-2.2 1.8zM140 88l-.4-1-.3-1c-.3-.7-2-1.1-4-1-.9.1-1.5 0-2.3-.4-1.5-.8-2.5-.9-5.2-.4-2.8.4-3.4.3-3.2-.9v-.7c-.1 0-1 0-2.2.3l-2.6.4c-.3 0-.9.2-1.3.5-.5.3-1.2.5-2.4.6-1.7 0-1.7 0-1.7-.6 0-.5.2-.8 1-1.2a37 37 0 0 1 7.7-1.6 8 8 0 0 0 1.9-.4c.2-.1.8-.3 1.3-.3l-2.3-.1c-1.7 0-3.6.1-4.3.4l-3 .5c-2.3.4-4.5 1-5.2 1.6-.7.7-1.3.7-1.9.2-.5-.5-.5-.6-.1-1.2.3-.6 4-1.9 5.4-1.9.4 0 1 0 1-.2.4-.3 4.5-.7 11-1.1l4.2-.3 2 1c1.1.5 2.5 1 3.2 1.1 2.2.6 3.2 1.1 3.9 2.5l1.1 1.6c1 1.2 1.1 2.8.3 3.6-.6.7-1 .7-1.6 0zM127 82.3h-.5c-.3 0-.2.1.1.2.3 0 .5-.1.4-.2zm23.8 3c-.6-1.2.7-3 3.2-4.3 1.4-.7 1.7-.7 5.3-.7 3.8 0 4 0 4.6.6.6.5.8.6 2.3.4 4.2-.4 8.8-.5 10.4-.1 2 .4 3.6 1.2 3.8 2 .3 1.4-1.4 2-2.2.7-1.4-2.3-8.7-2.2-15.8.2-.9.3-2 .7-2.3 1-1.2.5-2.5-.5-1.5-1.2.6-.6 2.3-1.4 2.7-1.4.3 0 .4-.2.3-.4-.1-.4-3.8-.3-4.8.2l-1.7.5c-1.1.3-2 1-2.6 1.9-.7 1.3-1.2 1.5-1.7.7zm-46.6-5.1c-.3-.3-.2-.6.2-.7.3-.1.4 0 .4.3 0 .6-.3.7-.6.4zm35.5-2c-3.8-1-5.6-2-5.5-3 .1-.4.3-.5 1.2-.5.6 0 1.4.2 2 .4.4.3 1.5.6 2.4.8 1.8.3 3.4 1 3.7 1.4v.7c-.4.6-2.1.6-3.8.2zm26.5.1c-.3 0-.5-.2-.6-.4-.3-.8.3-1 2.6-1.2 1.9 0 2.3 0 2.4.4v.5c-.3.4-3.8 1-4.4.7zm-68.3-1.1-2.4-.3c-1.3 0-1.8-.1-2.2-.5-.6-.7-.5-1.2.3-1.8.6-.4.7-.7.7-2 0-2.3 1.3-2.4 2.5-.3.7 1.3 1.7 1.7 4.6 1.7 1.5 0 2.2.1 2.8.5 2 1.2 1.4 2-1.6 2.5-2.3.5-3.6.5-4.7.2zm73.2 0c-.2-.3.8-1 1.5-1l.6-.3 1.2-.4a10 10 0 0 0 2-.5 220.3 220.3 0 0 1 4.3-2l1.9-1c.6-.2 1.2-.7 1.4-1 .4-.9 1.2-1.3 1.7-1 .7.7.4 1.6-1 3-.7.7-1.5 1.3-1.7 1.3l-2 .7c-3.2 1.5-9.5 2.9-9.9 2.2zM153.5 75c-.2-.6 0-1.2.5-1.4l3.1-.4c1.5-.1 3.2-.4 3.8-.6.9-.2 1-.3.5-.8-.5-.9-.2-1.3 1.3-2 1.4-.7 3.5-2 4.1-2.6.5-.4 1-.4 1.4 0 .5.6-.2 1.6-1.8 2.6l-1.7 1.2c-.6.4-.6.4 0 .4.3 0 .8-.1 1-.3l1.2-.5c1.6-.6 3.2-1.5 4.3-2.4 1.5-1.2 2.1-1.3 2.3-.2 0 .5-.2 1-.8 1.5-1.3 1.2-2.4 1.7-7.8 3.5-5 1.6-6.5 2-9.5 2.2-1.4.2-1.8.1-1.9-.2zm10.9 0c-.4-.5.4-.8 1.8-.9a42.6 42.6 0 0 0 14.2-4.7c.2-.1.2-.6.1-1 0-.4 0-.8.3-1.1.6-.6 1-.5 1.7.1.5.5.6.8.4 1.7-.1 1.1-.6 1.7-2.3 2.4l-2.2 1c-1.9 1-4.1 1.5-9.5 2.5-2 .4-4.3.4-4.5 0zm-37-.9s-2-.2-4.5-.2a37.1 37.1 0 0 1-6.9-.7c-1.1 0-2.9-1.1-3.5-2.3-.3-.6-1-1.2-1.5-1.5-1.1-.6-1.8-1.8-1.3-2.4.5-.6 1.5-.5 2 .1.3.3.7.6.9.6.2 0 .3 0 .3.2s.2.3.4.3c.4 0 .4 0 0-.4-.8-.9-.3-2.4.8-2.2.5.1.7 0 1-.7.2-.7.3-.7 1-.6a34.5 34.5 0 0 0 14.3 3c3 .2 3.5.4 3.3 1.2-.4 1.4-1 1.5-5.8 1.6-2.5 0-3.6 0-2.5.1 2 .1 2 .1 2.4 1 .4.8.6 1 1.4 1 2 0 2.9 1 1.5 1.7-.8.4-3 .5-3.3.2zm-6.9-4.5h-.5c-.2 0-.1.1.2.2.2 0 .4-.1.3-.2zm45.6 78.7c1-.4 1.6-.8 1.6-1.3 0-.3 0-.3-.2 0 0 .1-.3.3-.6.3s-.6.1-.7.3l-.6.2c-.3 0-.6.1-.6.3 0 .1-.2.3-.4.3-.4.1-.4.2 0 .2l1.5-.3zm-35.4-3.7c0-.7 0-1 .7-1.7l.8-.8-.6-.8c-.3-.4-.9-1-1.3-1.1-.8-.4-2.5-.2-2.7.4-.3.8-2.2 0-3.9-1.7a101 101 0 0 0-2.5-2.5c-1.3-1.2-1.7-1.7-1.7-2.3l.2-1c.5-.2 1.5.3 1.8 1 .6 1 1.4 1 2.2-.4.3-.6.5-1.2.4-1.3-.3-.6.3-2 1.4-3.2.7-.7 1-1.4 1-1.6a22 22 0 0 0-2.8-3 40.7 40.7 0 0 1-5-5.3c-.8-1-1.4-1.6-1.5-1.4 0 .2 3 5 3.4 5.3l.5 1.3c.2 1 .6 1.5 1.7 2.7 1 1 1.5 1.6 1.4 2 0 .7-1 .8-2 .2-.9-.7-1.9-1-1.9-.5 0 .2.5.8 1 1.5 1.4 1.4 1.4 2.2.2 2.2-.8 0-4.9-2.5-5.1-3 0-.2-.3-.3-.5-.3l-1-.4c-.2-.3-.4-.3-.4-.2 0 .2 0 .3.2.3.1 0 .4.6.6 1.3.4 1.4 1 2.5 2.1 3.5.8.8 3 3.5 3 3.8 0 .6 2 2.3 2.8 2.5 1.1.2 2.5 1 3.7 2 .8.8 1 1 .7 1.4-.2.3-.7.5-1.2.6-1.1 0-1 .7.2 1 4.2.6 4.2.6 4.1-.5zm-12.2-2.2c0-1 0-1-.5-.5-.3.2-.8.4-1 .3-.2-.1-.4 0-.4.2 0 .5.6 1 1.3 1 .5 0 .6-.2.6-1zm94.7-3.2a11 11 0 0 0-2-4.3 11 11 0 0 1-1.6-2.4c-.4-.9-1-1.7-1.2-1.7-.4-.2-1 .4-1.8 2l-.6 1 1.7 1a14.2 14.2 0 0 1 3.9 3.4c.9 1 1.6 1.5 1.6 1zM113 138.1c-.6-.4-.8 0-.3.6.2.3.3.4.5 0 .2-.1 0-.4-.2-.6zm123.3-1.4c.8-.4 1.3-1.6 1.1-2.7-.4-2.4-.5-3.4 0-4.3.5-1 2-2.5 2.8-2.5.3 0 .8-.3 1.1-.6.9-.9 2.5-1.8 3.2-1.8 1.3 0 3.7 2.4 4.1 4.2.5 1.9.5 1.9 1 2 .2.2 1.4 0 2.6-.4l2.7-.9c.4-.1 1-.5 1.5-.9.9-.7 2.4-1.7 6.1-3.6 1.7-.8 2.3-1.3 2.6-2 .6-1 .7-3.5 1-12.4 0-4.4.2-6.7.5-7 .2-.5.3-2.7.4-7.3a101 101 0 0 1 .8-12.2c.5-5 .5-6.7 0-15.2l-.2-7c-.1-3.2-.3-4.8-.6-5.4-.5-1.2-.5-3.4 0-11.1a168.5 168.5 0 0 0-.4-22c0-.6-.3-1.4-1.6-4.8a8 8 0 0 0-1.9-2.6c-1-1-1.4-1.2-2.2-1.2-1.2 0-1.8.5-2 1.7-.3.9-1 1.2-2.2.9-1.7-.5-5.7.7-7.3 2.1-.3.2-.7 1-1 1.5-.6 1.5-1.3 1.9-2.5 1.5l-3.7-.4c-2.4-.2-3-.3-3.6-.8-.4-.4-1.2-.7-1.9-.8-1.3-.2-2.2.1-3.6 1.2-1 .8-3.6.7-5.2-.3-4-2.3-4.8-2.3-10.5-.5-3.5 1.2-3.8 1.2-6 .4-1.1-.4-2.1-.8-2.3-1-.4-.3-1.4-.2-1.6.2l-.1 3.3c0 3.1-.3 3.8-1.4 3.7-.4-.1-.7-.4-.8-.8-.3-1-.2-5.2 0-7.2.4-2.2.1-2.7-1-2.4-.6.1-1 .5-1.5 1.9-.9 2.2-1.3 6.6-.8 7.7.2.4.4 1.6.4 2.9a8 8 0 0 0 .3 2.5c.6.7.8 3.7 1 11.7a250 250 0 0 0 .8 20.3 27 27 0 0 1 2 11.5l-.2 3.4c0 2 .1 2.5.7 3.8.8 1.5 1 4.2.5 5.2a162.4 162.4 0 0 1 .2 11.2 66 66 0 0 0 .7 11.4c-.2.9-.9 1.4-1.4 1-.2 0-.4-.8-.5-1.5a40.3 40.3 0 0 1-.8-9.6c0-4.1-.2-7.9-.3-8.3l-.2-.8-1.2 1.2-1 1.2v3a59.4 59.4 0 0 0 1.7 14c.2 2 .1 2.4-.3 2.8-.2.2-.6.4-.7.3-.5-.1-1-1.3-1-2.4 0-.7-.1-1.2-.2-1.3a10 10 0 0 1-.5-2.8c0-1.4-.2-2.7-.3-2.8-.2 0-.5.3-.7.8-.4.8-.5 1.3-.3 5.2.3 6.7.1 6 1.2 6 2.2.1 4.3 2.4 4.2 4.8 0 1.1-.6 2.7-1.6 4.3-1.4 2.2-1.5 2.3-1.6 4.9-.1 2.1-.4 3.4-.9 5-.2.8.8 1.1 1.6.5.6-.3.7-.6.7-1.6a10.3 10.3 0 0 1 1.8-4.6 16 16 0 0 0 2.3-5c.1-.7.5-1.9 1-2.6.6-1.2.7-1.8.7-3.4 0-1.7.7-5 1.4-6.4.8-1.5 3.3-2.1 4.7-1.1 1 .7 2.1 2.6 2.1 3.5 0 .3.2.8.4 1 .2.2.4 0 .7-.5 1.2-2.3 2.4-3.2 4-2.7a5 5 0 0 1 1.5.9c1.2 1 1.4 2.1 1.5 6.4.1 5.2.2 5.8 1.3 7.3 1 1.3 2.3 3.7 2.3 4.2l.5 1.4.5 1.3.6 1.4.5 1.2h1.8c1 0 2.2-.2 2.5-.3zM253 113c-.2-.7.3-7.3.7-8.8l.4-4.1c.3-6.5.6-9.5.8-9.7.2-.2.5-.3.8-.2a42.9 42.9 0 0 1 .3 9.5c-.2 1.3-.4 3.8-.7 9.6 0 2-.3 3.9-.4 4-.1.2-.5.4-1 .4-.6 0-.8-.1-1-.7zm4.5 0c-.1-.3 0-2 .1-3.6a689.5 689.5 0 0 0 1-9l.4-3.7-.7-.7c-.6-.5-.7-.7-.6-3 0-1.4 0-3.6.2-5 .2-2.3.3-2.7.9-3.4.6-.6.7-1 .8-3.8.2-3.2.4-3.9 1.1-3.9.8 0 1 1 .6 4.8a471.6 471.6 0 0 0-.9 15.8l-.6 5.9c-.2 1-.4 3.6-.5 5.7 0 2-.2 3.9-.4 4.1-.3.7-1.2.6-1.4-.1zm3.6 0c-.2-.8 0-5.6.5-7.2l.2-3.4c0-2.4.5-7.6.8-9.4.2-1.1.7-1.6 1.2-1 .3.5 0 6.7-.4 10-.2 1.4-.4 4.4-.4 6.6 0 2.3-.2 4.3-.3 4.6-.4.7-1.3.6-1.6-.2zm-29-2.3c-.3-1 0-1.7.9-2 .8-.2 1.5.2 1.6 1 .2 1.4-2.2 2.3-2.5 1zm17-2.8c-.5-.6-.5-1.1 0-15.1l.3-7.5c0-1.7.5-2.8 1.4-2.8 1 0 1 .7.6 5.4-.2 2.7-.4 7.6-.4 12 0 7 0 7.7-.5 8-.6.6-.9.6-1.4 0zm-38.8-.8c-.4-.3-.9-2.6-.7-3.2.1-.3 0-3.4-.1-7l-.4-12.8c-.1-6.5-.2-7.3-1.3-8.2-.6-.5-.7-1.9-.3-4.7.2-1.4.3-2.7.2-2.8-.2-.4-.4-21.3-.2-28 .2-5.9.2-6.4.7-7 .5-.4.6-.4 1 0 .6.5.6.7.4 3.2-.4 6.7-.5 10.4-.3 19.3.2 9.7.3 12.4.2 15.5 0 1.4.1 2 .5 2.7.5.8.6 1.5.7 6.2 0 2.9.2 7.2.4 9.7a329.3 329.3 0 0 1 .7 15.4c.2 1.4-.5 2.3-1.5 1.7zm5-3.1c-.5-.5-.6-3.2-1-15.6a101 101 0 0 0-.6-10c-.3-2.7-.4-10.2-.1-13.7.1-1.6 0-4.2-.1-6.5-.3-3.8-.4-6.2-.7-15-.2-4.2-.2-4.3.4-4.6.4-.3.6-.2.9.3.3.5.4 1.7.4 6.5 0 6.2.6 15.2 1 17.8.2 1 .3 2.5.1 4.4a40 40 0 0 0 0 5v3.5a121.6 121.6 0 0 1 1 17.3c.3 8.4.2 10-.5 10.6-.4.4-.5.4-.8 0zm6-7c-.9-.9-1.3-2.4-1-3.2.2-.4.3-1.1.2-1.6L220 87a113 113 0 0 0-.5-6.2c-.3-2.1-.2-2.6.5-2.6 1 0 1.3 1.1 1.4 4 0 1.8.3 3.2.5 3.8.3.7.5 1.8.5 3.3 0 1.3 0 3.4.2 4.7.2 2 .2 2.5-.1 3-.5.7-.8.7-1.4 0zm42.1-7c-.6-.2-.8-1-.5-1.7.4-.7 1.1-.6 1.4.3.2.8-.2 1.5-.9 1.4zm-8.3-2.3c-.3-2-.1-8 .3-8.6.5-.8 1.1-.8 1.5.1.5 1.5-.5 9.6-1.3 9.6-.1 0-.4-.5-.5-1.1zm8.4-1.5c-.4-.3-.4-1.4-.2-6.5.2-2.8.3-3.4.7-3.6.3-.2.6 0 1 .3.3.4.4.8.2 2.8 0 1.3-.3 3-.5 4-.3.8-.4 1.8-.4 2.2 0 .8-.3 1.1-.8.8zm-30.5-14a426 426 0 0 0-8.9-.5c-.6-.4-1.4-3-1.8-5.8a58 58 0 0 0-1.4-8c-.9-3.4-.7-5 .7-5 1.5 0 2.7 5 2.9 12.1v3.6l.8.4c2.1 1 25.5.6 28-.4 1.2-.5 3.1-.6 3.7-.1.2.1.4.6.3 1 0 1-2.1 1.5-7 1.9a76.2 76.2 0 0 1-17.2.8zm-2-6.8.1-.7c.2-.3.2-.5-.2-.7-.6-.4-.7-1.4-.1-2a49.7 49.7 0 0 0 13 .2c2.9-.2 3.5 0 3.5 1 0 .5-.1.8-.4.9l-7.6.3c-4 0-7.2.2-7.3.2l-.2.6c0 .6-.6.7-.8.2zm2.2-5.8c-2.3-.4-2.5-.5-2.5-1.3 0-.9.5-1 2.3-.7 2.8.6 8.8.6 12.4.1 3-.4 3.3-.4 3.7 0 .4.4.4.5 0 1-.2.7-.4.7-3.2.9-7 .3-11 .3-12.7 0zm-8.4-6c-.9 0-1.6-.8-1.5-1.4 0-.5.3-.6 3.3-.6a116.6 116.6 0 0 0 15.3-1.1 336.5 336.5 0 0 1 9-1.3c2.7-.5 5.5-.4 6 0 .3.3.5.7.5 1 0 1-1 1.3-6.3 1.6l-5.4.4a138.4 138.4 0 0 1-13.7 1.3c-.6.2-6.3.3-7.2.2zm-6.2 81.7c.8-.6 1.3-1 1.7-1.8.3-.5.2-.6-1-1.6-.8-.7-.6-1.9.6-2.9 1-.8 1.8-1 2.3-.4.2.3.4.4.6.1.5-.5 1-2.1 1-3.4 0-1-.2-1.2-.9-1.7-1-.6-1.1-1-.9-2.4.2-.7.4-1 1-1 1.1-.3 1.4-.7 1-2a9 9 0 0 0-.8-1.9l-.5-.9-.5.6c-.3.4-.6 1.2-.7 1.8-.1 1-.4 1.4-1 1.9-1 .7-1 .7-3.5.5-1.4 0-2.8-.3-3.2-.5l-.8-.4-.6 2-1 2.7c-.4.9-.4 1.2 0 1.6.2.1.6 1 .7 2 .4 1.7.7 2 1.4 1.3.2-.2.7-.4 1.4-.4 2.4 0 2.7 2.5.5 3.7-.8.4-1.6.4-1.8 0l-.1.3c0 .5.3 1 1 1.7 2 1.9 2.7 2 4 1.1zm-108-2.8c0-.5.2-1 .7-1.4.6-.5.8-1 .8-1.4 0-1 .6-1.7 1.2-1.7.2 0 .4-.2.4-.4 0-.5-.7-.6-.8-.1 0 .1-.4.1-1-.1-.7-.3-1.3-1-2.1-2.1-1.1-1.7-1.3-2.6-.4-2.6.5 0 .7-.5.3-1.2-.2-.5-.3-.8 0-1.2.4-.6.1-1-1.6-1.7-2-.9-3.6-2.3-4.4-4-.6-1.3-.6-1.6-.3-2.5.1-.6.5-1.5.8-2a4 4 0 0 0 .5-1.5c0-.3.5-1 1-1.5 1.1-1 1.1-1.1.2-1.7-.3-.2-2.5 2.6-2.5 3.2l-.8 1.5c-.5.7-.8 1.6-.8 2.1s-.2 1.3-.4 1.7c-.3.6-.4 1-.2 1.4.1.3 1.5 1.8 3 3.3l2.8 2.8-.7.6-.7.6.6.6c.4.4.6.8.6 1.3-.1.6-.2.7-1.2.7a3 3 0 0 1-1.8-.6l-1.2-.6c-.2 0-.3.1-.1.2l.8 1.2c.2.6 1.1 1.7 1.9 2.5.8.9 1.8 2 2.2 2.7 1.9 2.8 3.1 3.5 3.1 1.9zm136-1.4c0-.8-1.2-2.7-2-3.1-1-.5-1.5 0-1.5 1.2 0 .7.1.9 1.3 1.4.7.4 1.3.7 1.3.9l.4.2c.3 0 .4-.3.4-.6zm-93.7-1.5c0-.3.6-1.7 1.3-3 1.8-3.6 1.8-4.2-.1-2.2-.8.9-1.6 2-1.8 2.5l-.5 1.2c-.4.4-.3 1.8 0 2.2.4.4 1 0 1-.7zm-100.6-1.9 2.9-.6 3.2-.8a4 4 0 0 1 1.5-.4c1.3 0 5.2-1.6 6.1-2.5 1.4-1.2 1.8-3.1 2.2-9l.7-10.1c.2-3.3.5-9.7.5-14 0-4.4.1-10.3.3-13.1l.2-5.2-1-1.8-1-2c-.4-.3-4.3-.2-9 .2-3.8.4-7.2.4-7.6.2a14.8 14.8 0 0 1-5.5.5c-3.5 0-4 0-5-.6-1-.5-1.3-.5-2.4-.3h-2.5c-1-.3-1.5-.3-2.7 0-1.6.6-3.3.7-5.6.4-2.1-.3-7.5.6-8.3 1.3-.2.2-.4 1.4-.6 2.8a144.7 144.7 0 0 0-.8 20.7l.4 2.8c.5 6.8.4 6.6.9 6.6.4 0 .4-.4.2-4a311.3 311.3 0 0 1-.5-17.5c-.2-1.2.2-1.7 1-1.7 1.1 0 1.4.8 1.6 5 .6 13.2.6 18.3.3 19.8-.2.7-1.4 1-2 .6-.6-.3-.6-.3-.5 5.6.2 5 .3 6 .7 7.4.3.9.7 2.1.7 2.8.3 1.6.4 1.8 1.8 2.1a8 8 0 0 1 2.2 1c1 .7 2.8 1.4 3.6 1.4l1.5.6c2 1 6.3 1.6 11.2 1.6 3.5 0 4.5 0 5.1.4.6.3 1.3.4 3.3.2 1.3 0 2.6-.2 2.9-.4zm-23-13c-.3-.2-.7-.9-1-1.5-.3-1-.4-3-.4-17.4l.1-16.7c.2-.4.5-.6.9-.6 1.1 0 1.3.6 1.3 4.3v14.5c0 1.4 0 3.7.2 5.1.2 2.5.5 7.8.5 10.4 0 .8-.1 1.4-.4 1.7-.6.6-.7.6-1.3.2zm-4.5-2.5a36.8 36.8 0 0 1-.6-8.4l-.2-2-.4-8.9a62.2 62.2 0 0 0-1-12.2c0-1.5.1-1.7.8-2 .9-.4 1.6.3 1.8 1.9.2 1.7.7 12.5.8 18.6 0 2.8.2 5.7.4 6.5.4 2.3.3 6-.2 6.5-.5.6-1 .5-1.4 0zm40-1.8a104.7 104.7 0 0 1 0-15.6c-.2-.3-.5-3.5-.6-7.7 0-.6 0-3.1.2-5.6.2-4.8.3-5.3 1.4-5 .7.2 1 1.2.9 3.3-.2 2.7 0 18.6 0 24.6.2 4.9.2 5.4-.2 5.9-.6.6-1.3.6-1.7.1zm-4.2-2.4c-.4-.5-.4-1.3.2-5.2a73.4 73.4 0 0 0 .3-10.6c0 1-.2 1.1-.7 1.3h-1.2c-.5-.2-.6-.4-.5-1.7.3-2.4.6-3 1.7-3h1v-3c0-2 0-3 .2-3.3.6-.5 1.3-.3 1.7.5.4.7.4 1.8.3 8.6l-.4 11.7c-.1 3.9-.2 4.1-.8 4.6-.8.6-1.2.6-1.8 0zm-28-3.2c-.8-.5-.9-1.5-.9-9.3 0-7.8 0-8 .5-8.3.7-.3 1.5 0 1.9.6.1.3.3 3.8.3 8.4.1 6.8 0 8-.2 8.4-.5.4-1.1.5-1.6.2zm118 22v.2c-.1.3 0 .5 0 .4v-.5zm-37.7-1.6c0-.2.4-.8.9-1.4.5-.5 1-1.3 1-1.7.3-.8-.1-1.8-.7-1.8-.4 0-1.5 1.7-2 3.4-.6 1.4-.6 1.5-.1 1.8.5.4 1 .3 1-.3zm15.4 0c.8-.8 2.2-3 3.1-4.8l1.6-2.5a6 6 0 0 0 1-1.4c.2-.6-1.1-2.3-2.2-2.8-.5-.3-1.3-.8-1.8-1.3-.9-.7-1-.8-2.3-.5-.8.1-1.5.4-1.7.6l-1.5 1.2c-2.1 1.4-2.5 2.4-1.5 3.7 1.2 1.5 4 5.9 4 6.2 0 .2-.2.5-.5.7-.3.3-.3.4 0 1 .6.7 1.1.7 1.8 0zm4.4-3c-.1-.3-.2-.2-.2 0 0 .3 0 .5.2.4v-.5zm1.5-1.9c.8-.5 1-.6 2-.3l1.2.2-.4-1.1c-.5-1-1-1.4-1.7-1.4-.4 0-2.3 3.1-2.2 3.7 0 .3 0 .3 0 0 .2-.3.6-.7 1.1-1zm-57.6-1h-1c-.4 0-.2.1.4.1h.6zm42.7-2.9c-.3-1.1-.1-1.6.5-1.6a7 7 0 0 0 2.3-1.6c1-1 1.8-1.6 2-1.6.4 0 .2-1-.3-1.8-.3-.5-.7-.9-1-.9-.4 0-1.7 1.7-2.3 3-.5 1.3-1.5 2-2.3 1.5-.7-.3-.7-1.2.1-2.5 1-1.6.8-1.8-.5-.6-1.1 1.2-2 2.5-2 3.2 0 .3.4.8.8 1.2l1.5 2c.9 1.4 1.5 1.3 1.2-.3zm180.1.9c1.7-.2 4.2-.5 5.6-.5a50.8 50.8 0 0 0 9.6-2.6c1.4-.8 3.2-3.1 3.6-4.7a2637.2 2637.2 0 0 1 1.3-4.2c.3-.7.3-2.3.3-7.6 0-7.2.2-15.7.5-17.6.3-1.4-.1-5-.5-5.5-.2-.2-.2-.7-.1-1.3a91.3 91.3 0 0 0 1.2-9.3 89.8 89.8 0 0 0 .7-11.7c.2-1.1.4-12 .4-16.8 0-6.3-.2-8.5-1.5-11.5l-.8-2.2-2.4-1.2-2.3-1.2-1.8.4-3.8.4c-1.7 0-2.2.1-3 .7-2.1 1.4-4 2-5.7 2-1.4 0-2-.1-4-1-1.8-1-2.3-1.1-3.2-1h-2.8c-1.5-.3-1.8-.2-2.9.3-1.1.6-1.4.7-2.5.4l-2.1-.6c-2-.6-3-.5-5.2.6l-.9.3a49.6 49.6 0 0 1-4.6 2.5c-2.6 1.3-3 1.9-2.9 3.5 0 1 .3 1.6.8 2.1 1 1.2 1.2 4.5.9 11.9-.2 2.4-.3 3-.8 3.7-.5.7-.6 1-.6 6.2-.1 4.7 0 5.7.3 7 .4 1.3.5 2.2.3 7.5-.1 4 0 6.1.1 6.2h.3c0-.3.3-.4.7-.3.5 0 1-.2 1.5-.5.5-.4.9-.5 1-.4.2.2.3 3.6.4 8.7 0 4.6 0 10.5.2 13 .3 10.2.4 16.8.3 17.3-.3.7-1.2.6-1.3-.1-.2-.7-.7-10.2-.7-11.8 0-1.2-.4-1.5-.7-.5l-.2 4.7c0 3.5-.1 4.3-.5 4.6-.3.4-.5.4-1 .2-.6-.4-.6-.8-.5-3.4 0-.8 0-2.2-.2-3-.1-1.3-.1-1.4-.5-.7-.2.3-.4 1.7-.5 3.1-.2 2.8-.2 12.2 0 12.4.2.2 2.1.9 3.3 1 .6.2 3 .3 5.3.4h4.2v-.8c0-1 .2-1.4.8-1.4.4 0 .6.2.6.6v1c0 .6 2 .8 4.8.5 3.8-.4 4.8-.4 5.8.2.6.4 1.1.6 1.8.5l4-.5zm-22.2-5.6c-.3-.4-.4-2-.4-6.6l-.2-12.5c-.3-10.4-.2-20.3.2-20.5.5-.3 1-.2 1.2.3.2.4 1 26.1.8 30.8 0 4.2-.2 7.8-.4 8.2-.2.6-.8.7-1.2.3zm4.7-1.9c-.2-.2-.3-.8-.3-1.2l-.8-14.1c-.2-1.4-.4-9.8-.5-14.9 0-4.3.2-5 1-4.4.5.3.6 1.1.7 7.4a306.7 306.7 0 0 0 .9 19c.4 3.1.4 7.9.1 8.3-.4.5-.6.5-1 0zm32.6 0c-.2-.5-.2-1.2 0-2.7a23114 23114 0 0 0 1.6-12.5c.2-.8.3-5 .3-9.2 0-6.7.1-9.3.7-13.1.1-1.2.6-1.8 1.1-1.5.3.2.3 1 0 5.6-.3 3-.4 8.6-.5 12.4a108.8 108.8 0 0 1-1 18.7c0 1-.2 2-.4 2.3-.5.6-1.4.6-1.8 0zm-29.2-2.5-.5-11a518.3 518.3 0 0 0-.6-14c-.2-4.3-.1-4.6.3-4.8 1.3-.7 1.5.1 1.5 7.1 0 3.8 0 6.3.2 6.8.2.4.4 2.1.4 3.8l.4 7.2c.3 4.6.2 5.5-.9 5.5-.5 0-.7-.2-.8-.6zm26.2 0c-.5-.5-.5-2 0-5 .4-2.3.5-2.7.8-6.3.3-3.4.7-11.7 1.1-24.4.2-6.2.4-6.9 1.4-6.9.3 0 .5.3.7 1.1.1 1 0 8.5-.3 12l-.3 6.1a246.7 246.7 0 0 1-.8 15.1c0 3.2-.6 8.2-1 8.5-.3.5-1 .5-1.6-.1zm-2.1-7c-.4-.3-.6-1.4-.5-2.2.3-2.1.9-13.5 1-18.9.2-7.4.3-8 1.4-7.8.4 0 .4.6.4 4.5 0 17-.3 24.2-1 24.6-.4.3-.8.3-1.3-.2zM290 97.8c-.6-.5-.6-.6-.8-7 0-3.6-.3-7.1-.4-7.7-.3-1.3-.2-1.8.5-2.2.8-.4 1.6.5 1.6 1.9a132 132 0 0 0 .8 14.2c0 .5 0 .8-.5 1-.4.3-.7.2-1.2-.2zm-10-26.7c0-.1.2-.2.4-.1.2 0 .4.2.4.3h-.4c-.2 0-.4 0-.4-.2zm19-.7c-.2-.2-16-.4-21.8-.4-4.3 0-4.5 0-4.8-.5-.3-.4-.2-.6.2-1s1-.5 3-.7h2.5c.5.3 11.3.4 16.5 0 4.8-.2 6.1-.3 7-.7 1.2-.6 2.4-.7 2.7 0 .5.8-.1 1.6-1.4 2.2-1.5.6-3.7 1.3-4 1zm7-6.6c-.4-.4-.3-1.6.3-4 .3-1 .5-2.6.6-3.5l.3-3.9c.2-3 .2-3-4.3-2.7-4.9.4-5.3.4-10.2.6-4 .2-4.4.3-4.6.8-.4 1-1.7 1-7.4.6-3-.3-6-.4-6.8-.4-2.2 0-2.8-1.2-1.1-2.2.6-.3.7-.6.7-1.4 0-5.8-.4-17.1-.5-17.8a2 2 0 0 1 .3-1.5c.4-.7 1-.9 1.3-.5.4.7.8 6.5 1 15.4.2 2.7.3 5 .5 5.3.2.5.9.6 5.6 1 2.9.3 3.6.2 3.6-.4 0-1 2-1.3 11.3-1.5 4.8-.2 6.4-.3 8.3-.8 1-.3 2.4-.5 3.2-.5 1.6 0 2.2.5 2 1.8l-1 7.4c-.3 3.5-1.2 7.8-1.6 8.3-.4.4-1.1.4-1.5 0zm8.2-1.7c-.2-.3-.3-.6-.2-.7l.3-3.1c.1-3 .5-3.8 1.3-3.5.4.1.4.5.3 3.5-.1 1.9-.3 3.6-.5 3.9-.3.6-.9.6-1.2-.1zm-33.5-2.4-4.6-.4c-.8-.2-1.4-.8-1.4-1.7 0-.5-.2-1-.8-1.4-.9-.7-.9-.7-.5-1.4.5-.9 1.3-1 3-.3 1.3.5 10.5.7 11 .2.4-.5 2.2-.2 2.5.3.3.4.2.6-.4 1.1-.7.6-1.1.6-3.2.7-1.3 0-2.5.1-2.5.3-.1.3-1 .3-1.3 0-.2-.4-1.1-.3-1.6.1-.3.4 0 .4 2.4.5h4.7c2-.1 2-.1 2.2.5.3 1-.6 1.5-2.7 1.5l-2.3.1-4.5-.1zm-2-11.2c-.2-.3-.4-2-.5-4.6a130.3 130.3 0 0 0-1.3-13.2c-.6-1.5-.4-2.2.7-2.2 1.3 0 1.7.7 2.2 4.4.3 2 .5 4.3.4 5.7 0 1.2 0 3.7.2 5.6.2 2.4.2 3.5 0 4-.4.7-1.2.9-1.7.3zm-167 68.2c.4-.4 1.7-2.8 1.9-3.7 0-.4.4-.9.8-1 .7-.4 1.9-1.5 1.9-1.8a67.2 67.2 0 0 0 4.2-5.5c1.5-1.8 1.4-2.2-.9-4.6-1-1.1-2-2-2.2-2l-2 1.2c-1 .6-2.1 1.2-2.5 1.2-.6 0-2.2 1.1-2.2 1.6 0 .2-.5 1-1 1.7-1 1.2-1 1.4-.7 2.1.3.9 3 3.8 3.5 3.8.2 0 .3.4.3.8 0 .5-.2.8-.6 1-.4.2-.7.5-.7.7 0 .8-1.2.8-2.8 0-2-1-2.6-.7-1.1.8l1 1.3c0 .4 2.1 2.6 2.5 2.6l.5-.2zm103-.4c1 1 1.4-.6.5-2-.7-1.2-1.6-1.2-2.2 0-.3.7-.4 1.3-.3 1.8.2.7.2.7 1 .3.5-.3.8-.3 1 0zm-16.3-4.3-.3-1.3v2.8c0 2 0 2.8.2 3 .5 0 .6-2.9.1-4.5zM99 115.7c0-.4-.2-.7-.4-.7-.5 0-.5.4 0 1 .4.4.4.4.4-.3zm16.7.5c0-.3-.9-1-1.1-.8-.4.3 0 1 .6 1l.5-.2zm20.9-3.2c.3-.6 1.3-1.8 2.1-2.7a196 196 0 0 0 7.3-8.5c.4-.5.3-.6-.7-1.2-.6-.4-1.2-1-1.4-1.4-.3-.4-.6-.9-.9-1-.7-.2-3-.1-3 .2l1.3 1.9c1.4 1.6 1.6 2.2 1 2.4-.4.2-1.3-.2-2.8-1.3-.8-.6-1.2-.7-3-.7-1.6 0-2.3-.1-3.1-.5-1.7-.8-2.3-.7-3.7.8-1.2 1.4-1.7 1.6-2.7 1-.5-.3-.6-.3-1.2.4a3 3 0 0 0-.6 1.2 36.7 36.7 0 0 0 7.3 7.9c.8.5 1.7 1.4 2 1.9.7 1.1 1.3 1 2-.4zm-36.3-2.5.3-.8c0-.4-2.1-3.4-2.4-3.4a.3.3 0 0 1-.3-.3c0-.6-1.2-2-1.7-2-1.2-.1-1.8-1.5-1.2-3.4.7-2.4 1.2-3.9 1.8-5.2.4-.8.7-1.8.8-2.3l.2-1-1.1.3c-1 .1-1.4 0-3-.8-1-.5-2.2-1.3-2.7-1.7-.9-.9-1.4-1-1.6-.4-.1.2 0 .4.2.4.7 0 1.2 1 1 2.1-.1 1.2 0 1.8 1 5.3a45.5 45.5 0 0 1 1.4 5.4c.3 2.3.5 2.8 1.3 3.3a9 9 0 0 1 2 2c.5.7 1.2 1.5 1.5 1.6.3.2.6.6.7 1.2 0 .5.3 1.1.5 1.4.3.3.4.3.7-.5l.6-1.2zm80.7-4.7c.5-.8 1.6-2.1 2.4-2.9 1.3-1.4 3.6-5.2 3.2-5.4l-2-.3c-2-.3-2.1-.1-1.2 1.2.8 1 .6 1.7-.6 1.7-.6.1-1 0-1.2-.3-.2-.2-.6-.4-.9-.4-.4 0-3.7 3-3.7 3.5 0 0-.2.4-.6.6-.7.5-1.5.4-2.1-.3-.3-.2-.6-.4-.7-.3-.1 0 .4.8 1.2 1.7l2.2 2.5a7 7 0 0 0 1.5 1.3l.8.5.3-.8 1.4-2.3zm-77-3c0-.6-1-2.3-2.2-3.4l-1-.9.2 1.9c0 1 .2 2.2.5 2.8l.4 1.4.3 1c.2.7.2.7 1-.8a7 7 0 0 0 .9-2zm19.3 2.8h-.5c-.3 0-.2.1.1.1l.4-.1zm49.3-.2v-1c-.1-.5-.2-.5-.9 0-.4.2-1 .3-1.2.2-.3-.2-.5.6-.2 1 .4.3 2.2.2 2.3-.2zm169.4 0c.6-.3 2.7-.6 4.6-.7a37 37 0 0 0 7.7-1c1-.4 2.5-2 3.2-3.3.3-.5.8-1.2 1.2-1.4.4-.3 1.6-1.6 2.7-3a254.6 254.6 0 0 1 4.3-5.7l1-1.7a47 47 0 0 0 5-8.9c1-2.2 4-13.5 4-14.5 0-1.5-1.4-2-2.7-1-1 .6-2 .7-3.7.2-1-.2-1.4-.2-2 0-.6.2-1.6.2-3.7 0-2.8-.2-2.9-.2-3.9.4l-2 1-2 .6c-1.3.5-2.8.6-4.6.4-1 0-2.4-.1-3.2 0-1.2.1-1.8 0-2.6-.3-1-.5-1.2-.5-2.8-.2-1 .2-3.1.5-4.7.6-1.6.1-3.6.3-4.4.5-.8.2-3 .3-4.8.4-1.8 0-3.7.3-4.3.5-1 .3-1 .4-1.4 1.9a67.3 67.3 0 0 0 0 12.7c.2.4.6 1.3.7 2 .1.6.2.9.3.6 0-.7.5-1.2 1.2-1.2.8 0 1.3 1 1 1.8-.3 1.2-.3 2.7 0 7 .2 4 .2 4.3-.2 4.6-.6.4-1.5 0-1.5-.6 0-.5-.4-.4-.8 0-.2.3-.6.4-1 .4l-.6-.1v3.7l.2 3.7h3.1c3.4 0 10.5.6 10.7.8.3.3 5 .1 6-.3zM327.4 97a36 36 0 0 1 0-10.2c.5-.5 1-.5 1.3.1a69.5 69.5 0 0 1 .2 10.1c-.6.7-1 .7-1.5 0zm3.4-1.2c-.3-.8-.4-4.2-.2-6 .1-1.2.3-1.7.7-1.7.7-.2 1 1 1.1 4.2.2 3 0 4-1 4a.8.8 0 0 1-.6-.5zm25.3 0c-.2-.2-.2-.6-.1-1 .1-.6 0-.7-.7-.5-.6.1-.8 0-1-.4-.3-.4-.2-.8.5-2l1.3-2.7c.8-1.7 1-1.8 1.4-2 .7 0 1 1 .7 2.3l-.4 1.5c-.3.9.3.5 1.2-1 .5-.8 1-1.8 1-2.5.2-1.2.8-2 1.4-1.4.8.8-.3 4-2.6 7.4-1.5 2.3-2.2 3-2.7 2.4zm-21.4-.7-.2-2c-.2-2 .3-3 1.2-2.4.5.3.9 2.6.6 3.8-.3.9-1.2 1.2-1.6.6zm25.4-.6c-.4-.6 0-1.4 1.2-3.1.6-.8 1.7-2.8 2.6-4.5 1.1-2.3 1.7-3.1 2-3.1.7 0 1.2 1.1.8 2l-.3 1.2c0 .3-.4.9-.8 1.4l-1.5 2.1c-1.3 2.4-2.9 4.4-3.3 4.4-.3 0-.6-.2-.7-.4zm-12.2-20c0-.1 0-.2.2-.2s.3 0 .2.2l-.3.3-.1-.3zM149 102.8c0-.6 0-.7-.4-.7-.6 0-.7.4-.4 1.1.2.7.7.4.8-.4zm22-2.1c.5-.5.8-1 .8-1.2 0-.5-2.2-.4-3.4 0-.8.3-.8.3-.4.7.7.6 1.8 1.3 2 1.3l1-.8zm-65.2.4c.7-.6 3.6-3.9 3.6-4.2 0-.3-.4-.3-1.5-.3a10 10 0 0 1-4.8-1.5c-.7-.3-.9-.2-1 1-.2 1.1.3 2.3 1.8 4 1.2 1.2 1.4 1.3 1.9 1zm18.8-1c1.2-1.3 2-1.8 3-1.8.5 0 1-.3 2.3-1.5l1.6-1.6h1.7c2.2 0 1.8-.4-.5-.5-1 0-2.4-.1-3.2-.3-.8-.1-2.3-.2-3.2-.1l-1.8.1.2 1 .4 1.4c.3.8-.3 1.7-1.5 2.2l-1.5.4c-.6-.2-.6.4 0 1.2.8 1 1.2.8 2.5-.5zm-26.3 0c0-.4-.1-.4-.4-.2-.3.2-.4.4-.4.5h.4c.2 0 .4-.1.4-.4zm75.5-.2c0-.2-.1-.2-.1.1 0 .3 0 .5.1.4v-.5zm192.9-4.2c.2-.3-.1-1.3-.4-1.3-.4 0-.9 1-.7 1.3.2.3.9.3 1 0zm-42.7-4-.3-5.4c-.1 0-.3 1-.4 2.5-.2 3.2 0 6.1.5 6.1.3 0 .4-.7.2-3.2zM119 94.2c1-.1 1-.2.8-.5-.3-.3-1-.4-2.6-.4H115l.7.7c.5.5.8.7 1.4.5l2-.3zM368.8 93l-.6-.4c0-.2-.2 0-.3.1-.1.4 0 .5.5.4.5 0 .6 0 .4-.1zm-267.3-1.6c.2-.2.7-.4 1-.4h.8l-.7-.2c-.4 0-.8-.2-1-.3 0-.1-.6-.3-1-.3-.9 0-.9 0-.6.8.4.9 1 1 1.5.4zm99.2-1.1c.5-.8.4-1-.3-1.5-.5-.4-.8-.4-1.8-.1-1.3.3-1.3.9 0 1.6 1.2.6 1.8.6 2.1 0zm4.6-2.8c0-.6-.2-1-.4-1-.3 0-.3.2 0 1 0 .5.2.9.3.9v-1zm-11.2.1c0-.1.5-.3 1-.3 1 0 1.8-.3 2.5-1 .3-.3.3-.4-.3-.2l-1.2.4c-.4 0-.6.2-.6.3 0 .2-.3.3-.7.3-.4 0-.9.1-1 .4-.4.3-.4.4 0 .4.2 0 .3-.2.3-.3zm76.5-1.8c0-.3-.1-.6-.3-.6-.1 0-.2.6-.2 1.3 0 1 0 1.1.2.6.2-.4.3-1 .3-1.3zm-180-.2c-.6-.4-1.3-.6-1.6-.6-.5 0-.5.2.4.7.5.3 1.2.6 1.5.6.6 0 .6 0-.3-.7zm-3.2-1.2v-.6c-.2-.3-.3-.4-.6-.1-.2.1-.3.4-.3.6 0 .4.6.5.9.1zm183.4-8.8-.1 1.3c0 1.3 0 1.8.1 1.1v-2.4zm-231-10.8c.4-.5-.3-.6-2.7-.6-2.4 0-2.7 0-3.4-.6-.8-.6-1.1-.8-3-1l-2.3-.3c-1-.2-1-.2-.6.3l.4.9c0 .4 1.5 1 3 1.3 1.3.3 8.3.3 8.6 0zm296.4 0c.3-.3 1.5-.7 2.7-.9 2-.3 2.2-.4 3.6-1.8 2.5-2.3 3.8-3 5.3-3 1.6 0 3.4.9 4.2 2 1 1.6 1.4 1.9 2.5 1.9 1.5 0 2.2-.4 3.9-2 .8-.7 2.3-1.8 3.2-2.3 1.6-.9 2-1 3.8-1 1.8 0 2 0 3.3 1 1 .6 1.9.9 3 1 1.5.2 3.3.5 5 1 1.6.3 2.3.2 3-.5.3-.4 1-.9 1.4-1.1 1-.6 1.2-1 .5-1.3-.9-.4-2.9-.9-4-.9-.7 0-1.2-.1-1.3-.3l-.8-.2-2-.5a5.8 5.8 0 0 0-3.3-.3l-4 .2a280.8 280.8 0 0 1-23.6 1c-3 0-6 .2-6.6.3-.5.2-3.4.3-6.4.3a20 20 0 0 0-5.7.4c-.2.2-.4 1-.4 1.8-.1 1.4 0 1.4.6 1.3 1.8-.1 2 0 2.9 1 1 1.1 2.5 2.1 3.2 2.2.2 0 .5.1.7.3.2.3 1 .5 2 .5l2.2.2c.4 0 .9-.2 1.1-.4zm-278.8-.9a60.6 60.6 0 0 0 9.4-1.5c.4-.4.4-.5.1-1.1-.4-1-1.5-1.3-4.7-1.8-2.9-.4-4-.4-7.2 0l-2.2.2 1 .5c1.4.8 1.7 1.3 1 2-.4.5-.7.6-2.2.5a9 9 0 0 0-4 .6l-3 .8a2 2 0 0 0-1 .2c-.4.4 5.6.2 12.8-.4zm-15.3-3c.4-.2 2-.3 3.6-.4 1.6 0 3-.2 3.2-.3l.2-.8c0-.3.3-1.3.7-2.1 1-2.1.9-3.6-.1-5.3-2.2-3.3-3.3-7.6-2.7-9.9.3-1.1.2-1.6-.7-3.2 0 0-.2 0-.4.3-.4.3-.4.4 0 1 .5.8 0 1.6-1 1.6-1.2 0-1.4.3-1.2 2 .2 1.2.1 1.6-.3 2-1.2 1.3-2.4 1.3-3.2-.2-.3-.5-.7-.9-1-.9l-1.6 1.6a355.6 355.6 0 0 1-2.2 3l-.4 1c-.6 1.2-1 4-.8 5.4.2 1.4.7 2 3.8 4 2.3 1.5 2.9 1.7 4.1 1.2zm160.1-3.5-.5-15.2a27 27 0 0 0-1-8.5c-.8-1-1.4-10.2-.8-12.8 0-.6 0-.8-.4-.8-.3 0-.8.4-1.2.8-.8.8-1.1 2.5-1.5 7.2-.1 1.8-.3 3.3-.4 3.4-.3.5-1.1.3-1.4-.4-.2-.4-.2-1.1 0-2.4.3-2.6.5-7.5.2-7.6-.1-.1-.4 0-.5.2a27 27 0 0 0-.6 7.8l.2 4.1c0 1.6 0 4.4.3 6.1.2 1.8.3 5.6.3 8.5 0 3.4.2 5.7.4 6.6.3 1.3.4 1.4 2 2.2 2.1 1.1 3.8 2.4 4.2 3.3.7 1.2.9.5.7-2.5zm-5.4-3.6c-.2-.5-.4-3.3-.5-6.2a66.5 66.5 0 0 0-1-11.5l.3-1.3c.2-1 1.1-.9 1.3 0l.3 1.3.4 3c1 10.2 1.2 14.4.8 15.2-.5.9-1.3.6-1.6-.5zm-41.1.7c3.7-.2 4.6-.2 5.5.1 1.1.4 1.7.3 2.5-.5.3-.3 1.3-.8 2.9-1.5a33.2 33.2 0 0 0 3.3-1.2c.2 0 .6-.3.8-.6.3-.5.3-.7-.2-2l-1.1-3.3c-1.4-4.4-2.4-7-2.8-7l-2-1c-1.5-.7-1.9-.8-3.2-.6-1.5.1-2 .3-1.5.6.7.5.9 1.6.4 2.5l-.4.9h-2.4c-5.5.2-10 .7-10.9 1.2-.7.4-1.4.5-5.7.5-3.4 0-5.2-.1-6-.4-.8-.3-1.7-.3-3-.2-1.3 0-2.5 0-3.6-.3-3-.7-3-.7-4 1.7a60 60 0 0 0-2.3 6.2c-.4 1-.4 1 0 1.5a21.8 21.8 0 0 0 10.6 3.1c.6.2 4.3.4 8.2.5 4 0 7.2.2 7.2.2l7.7-.4zm2.3-7.1c-.6-.7-.3-1.5.6-1.8.3 0 .8 0 1 .2.6.5.5 1.5-.1 1.8-.7.4-1 .4-1.5-.2zm178.8 7.3c2.8-.3 8.4-.5 12.5-.6a222.7 222.7 0 0 0 18.7-1c2-.2 2-.2 2.6-1.1.4-.7.5-1 .3-1.2-.3-.4-8-.3-9.7 0-.5.1-3.8.3-7.1.3a90.1 90.1 0 0 0-12 .7h-3c-1.5.3-3.2.3-5.7.1l-6.5-.4-2.8-.2-.2.8c-.2 1.3 0 1.8 1.4 2.4 1.6.7 4.3.7 11.5.2zm-2-5.6h-1 1zm5.7 0h-1.3H340.5zM38 39c0-.1.4-.6 1-1 1-.9 2.6-1.3 3-.9.5.4 1 .3 2.8-.5 2-1 3.3-1 4.5-.2 1.2 1 1.6.6 1.2-1a4 4 0 0 0-.6-1.3c-.4-.3-.3-2.5.2-3.1 1-1.7 1.5-5.3.8-6.7-.9-1.6-.3-2.8 1.7-3.3.9-.3 1.2-.2 2.3.3 1 .4 1.5.5 2.5.4 1.1-.2 6-2.2 6.6-2.8.3-.3-1-1.3-1.6-1.3l-1.8-.6c-1.9-.7-2.2-.7-2.2.2 0 .4-.2 1-.5 1.4-.7 1-1.9 1-2.9.4-.6-.5-.7-1.1-.1-2.7l.2-.7-2.2.2c-2.2.1-3.4.6-4 1.3-1 1.2-3.6 0-4.3-2l-.4-1.1v3.8c0 4.2-.2 5.4-1.4 6.8-.7.8-.8 1-2 3.9a18.2 18.2 0 0 1-3 5l-1 2-.8 1.7c-1.2 2.2-1.2 2.2-.2 3l1 .6.6-.8c.4-.4.6-.8.6-1zm112.5-2c0-.5-2.4-.6-8.3-.5-4.5.2-4.7.2-3.4.5a54.5 54.5 0 0 0 11.7 0zm5.3-.1c.5-.2.4-.3-.6-.3-.7 0-1.3.1-1.3.3 0 .3 1 .3 1.9 0zm146.8-18.4a6 6 0 0 0 1.4-1.8 6 6 0 0 1 .8-1.5c.7-.7 2.4-1.6 3.4-1.6.6 0 .6 0-.2-.3-.8-.1-6.2-.4-8.2-.3-2.6 0-13.5.6-16.6.7l-3.3.2.6.5c.4.3 1.7.8 3 1.1l4.4 1.4c1.7.7 2.7.9 5 1 2 .1 3.7.4 5 .8 3 1 3.5.9 4.7-.2zm-71.3-.2c.3-1 1-1.5 1.6-1.5.4 0 1.2-.4 2-.8 1-.5 1.5-.7 3-.7 1.6 0 2 .1 3.2.8.9.5 1.4.7 2 .5.5-.1.8 0 1.6.9 1 .9 1 1 1.5.5.6-.6.2-1.3-1-1.6-1-.3-1.3-1.2-.5-1.8.5-.5 1-.5 2-.4 1.3.1 1.4 0 2-.6.7-1.1 1.6-1.2 3.9-.4 2.2.8 3.3.7 3.6-.1 0-.3.5-1 .8-1.4 1-1.2.7-1.7-1-1.4l-3.7.2-4 .4c-.9.2-2.3.3-3 .3-.9 0-6.3 0-12.1.3-8 .2-11.3.2-13.7 0-4.3-.4-12.1-.4-12 0l.8 1.7c.4.7.7 1.5.7 1.8 0 1 1 2.3 2.3 2.9 1.7.7 2.1.7 3.9-.5 1.9-1.3 2.5-1.5 4-1.1l3.8.4 3.3.5c1 .2 3 1.1 3.2 1.4 0 .2.5.3.9.3.5 0 .8-.2 1-.6zm43.1-1.8c.4-.4 1.5-1 2.4-1.5 2-.8 2.2-1.3.6-1l-5.7.3c-4.8.2-5.2.3-5 1.4 0 .6.2.7 1.2.6a4 4 0 0 1 2.1.4c.6.4 1.5.6 2.3.6 1.2 0 1.5-.1 2.1-.8zm45.9-1.7c.5-.2.4-1-.4-1.4-.6-.4-1-.4-3.7-.1l-3.2.2c-.2-.1-.6 0-1 .1l-.6.3.5.5c1 .6 6.8.8 8.4.4zM46 13.2l1.3.4c.6.2.6.1.4-.8-.1-1.2-1-2.3-1.7-2.3-.9 0-2 2.7-1.4 3.3 0 0 .3 0 .4-.3.3-.3.6-.4 1-.3zm5.4-.8L52 11c1-1.6.1-3.4-1.5-3.4-1.4 0-1.7.6-.9 2l1 2.3c.1 1 .4 1.3.7.5zm145.7-.2c.7-.1 1.3 0 1.4.1.3.6 1.5.3 3-.8 1.6-1 1.9-1.5.9-1.5l-1.2-.4c-1.4-.7-2.4-.5-4.7.9l-2.5 1.4c-.4.1-.4.1 0 .2.4 0 .7.1.8.3.1.1.4.2.6 0l1.7-.2zm83.2-.5a63.1 63.1 0 0 1 7-.5 195.8 195.8 0 0 1 25.5-.3l1.6-.7 1-.3-1.6-.5c-1.3-.5-2.4-.5-9-.6a612.6 612.6 0 0 0-36.3 1.3c0 .3.7.4 3.4.5 3 0 3.5.1 4.8.7a5 5 0 0 0 2 .6l1.6-.2zm-30.8-4.3c1-.7 1.5-.7 4 .2 1.8.5 2.9.4 3.9-.5 1-1 1-1.8.2-2.8-.7-.9-1.4-1-2.2-.5-.5.3-1 .4-1.8.2-2.5-.4-5.2-.5-6.5-.3a5 5 0 0 1-2.4 0 275.7 275.7 0 0 1-26.9.2c-15 0-15.9 0-13.6 1.1.9.4 2 .6 4.4.8 2.8.2 5.4.6 9.7 1.6 1.4.3 1.5.3 3.3-.7 2.2-1.1 2.5-1.1 4.7-.4 1.7.6 3.3.6 5 .2 1-.3 1.2-.2 2.2.2.6.4 2 .7 3.6.9 2.3.2 2.7.2 3.4-.2.6-.3 1.7-.5 3.1-.5 2-.1 2.4 0 3.3.5 1.4.9 1.6.9 2.6 0z"/>
</svg>
