<?xml version="1.0" encoding="utf-8"?>
<svg xmlns="http://www.w3.org/2000/svg" xmlns:svg="http://www.w3.org/2000/svg" version="1.1" viewBox="0 0 298 171">
  <title>Tom Kitten hisses and spits with all his fur standing on end at a shocked-looking rat that has popped out of a hole in the floorboards.</title>
  <path d="M282.5 169.2c-4.2-2-6.3-2.5-13.4-2.8l-18.5-.4a306 306 0 0 1-24.7-.6c0-.4 1.2-.4 12.3-.3l24.4.4 13.2.2.3-.6c.3-.4.2-.6-.4-1.3-.4-.4-1.2-1-1.8-1.3l-1.5-1-.5-.4a54 54 0 0 1-7.2-5.1 121 121 0 0 0-10-7.2c-1-.7-3.6-1.2-7.1-1.3-6.6-.2-9.3-.4-11.1-.6-1.1-.2-7.2-.4-13.5-.6-17.4-.4-38.8-1.1-41-1.5-.4 0-.8-.2-.8-.4s.7-.2 2.5-.1a554.9 554.9 0 0 0 24.5.8l11.6.3c11.7.1 25.1.5 30.4.7 1 0 3.3-1.5 3.7-2.3.4-.9.4-2.2 0-2.4-.1 0-.8.2-1.5.7-1.4 1-2 .9-1.8-.3.2-.7.1-.8-1-1.3-.7-.3-1.7-.5-2.2-.5-.4 0-1-.2-1-.3-.3-.4.4-1 1-1 1 0 .9-.3-.4-1.2-1-.7-1-.8-.7-1.1.3-.3.7-.4 2.2-.1l3 .4c.9.1 1.1 0 1.3-.3 0-.2 0-.6-.2-.7-.1-.2-.3-.7-.3-1.2s0-1-.2-1l-2-.2c-1.2 0-1.8-.2-2.2-.5-.5-.5-1.1-.6-8.1-.9a498.3 498.3 0 0 1-18.3-1.2c.1-.2 4.2 0 15.5.4a141.8 141.8 0 0 0 10.7 0c1.2-.1 2.3-.4 3.1-.8.8-.4 1.6-.6 2-.6.8.2 1.5-.3 1.4-1-.1-.4-.5-.5-2.3-.7a7.7 7.7 0 0 1-2.1-.4l2.2-.1c2.5 0 2.7-.2 2.7-2.3 0-2.4-1.2-4.5-3-5.3a7 7 0 0 0-1.6-.6c-.4 0-1.5-1-1.3-1.3l1.4-.4c1.3-.2 2-.7 1.8-1.2l-1.4-.6c-1.4-.5-3.6-2.4-5.7-5-1-1.3-1.2-1.7-1-2.1.3-.5.5-.5 3.2-.4h7.2a18 18 0 0 1 5.8.1l1.5.4 1.1-1c.6-.5 1.3-1 1.6-1h.8c.2-.1.8.1 1.2.5.6.5.8 1 1 2.4.3 1.5.3 2-.2 4a14 14 0 0 0-.4 3c0 .8.2 1 1 1 1.5.1 2.2-.6 3-3.1.6-2 .6-2.1.7-14 0-6.7.1-12.5.2-13 .3-1 .3 1.3.4 19a188.6 188.6 0 0 0 .2 12.6 15 15 0 0 0 1 6.9l1 3.4a126.5 126.5 0 0 0 6.4 19.4c.2 1.2.5 1.3 1 .4 1-1.5 2-3.5 2.5-5.8a42 42 0 0 1 1-3.3l.3-.9v.8c0 .5.2 1 .5 1.3l.6.3.3-2 .7-3.9c.4-2.3 1-3 .7-.8l-.3 2.6a37 37 0 0 1-3.5 12.8l-1 1.7c-.7.8-1.2 1.8-1.3 2.3-.1.8 1.8 7 2.8 8.8l.8 2.3c.2.7.5 1.7.8 2.1.6 1 .6 2 .2 2.5-.6.5-1.6.3-4.2-1zm-8.5-10.6c1.9-.6 6-3.2 7.2-4.7a16 16 0 0 0 3-4.7c1-2 2-5.3 2-6.4 0-.4 0-.5-.4-.2-.2.2-.5.3-.6.2-.2 0-.6.8-1 2-.6 2-1.3 3.7-2.5 5.4l-.8 1.3c0 .7-4.5 3.9-6.9 4.8-.8.4-2.3.8-3.4 1-1 .1-2 .4-2 .5 0 .2.3.5.9.8 1 .7 2.3.6 4.5 0zm-8.5-8.1c1.4-2 1.9-3.3 2.4-6.5a33 33 0 0 0-.9-14.8 606.9 606.9 0 0 0-1.4-12.5s-.8.8-1.5 1.9c-1.9 2.7-2.2 3-2.4 2.8-.2-.3.7-2 2.2-4 .8-1 1.2-1.9 1.3-2.6.2-1 .1-1-.8-1.5-1.2-.4-1.6-.3-2.3 1-.4.6-.4.8 0 1.2.5.8.4 1.5-.3 2.2l-.7.6-.4-.6c-.6-.9-.5-1.9.4-3.7 1-1.9 1.7-2.3 3-1.9 1.7.7 2.4-.3 2.3-2.9 0-.4-.3-.9-.7-1.1-.6-.4-.7-.4-1.5 0-.4.2-1 .8-1.1 1.2-.3.9-.6 1-2.6.4a39 39 0 0 0-8.4-.4c-6.4 0-7 .1-6.5.5.3.2.7.9 1 1.5.5 1 1.6 2 2.5 2 .2 0 .7.2 1 .5.4.3 1.2 1 2 1.3 1.5.9 1.7 1.5.4 2.5-.5.4-.9.8-.8 1a244.7 244.7 0 0 1 5.9 2.6c1.1.3 1.5 1 .6 1-1 0-2.4.8-2.6 1.4l-.1 1.4-.5 3.2c-.3 1.3-.5 3.4-.6 4.6v2.3h.7c1-.1 3 .8 3 1.3 0 .6-.3.7-1.5.2-1-.4-1.1-.4-2.7.4-1.8 1-3.5 1.1-4.2.4-.3-.2-.8-.3-1.1-.3-.6.1-.5.2.4.6.8.4 1.1.7 1.2 1.3 0 .4.2.6.4.5.2 0 .8.1 1.2.4.8.5.8.4 1.9-.1l1-.6.6.6 1.2 1.3c.6.6 1 .9 3 2.3 1.3 1 3 1.1 3.8.3.8-1 1.4-.7 1.2.5-.1 1.2-3 1.8-4.1 1-1-.7-2.9-1.3-3.1-1-.2.1-.4 1-.4 2l-.1 1.7 1.7 1.6c.9.8 1.8 1.6 2 1.6l1.6 1.3 1.5 1.3.5-1 1.4-2.2zm-9.7-37.6c0-.8.6-1.2 1.1-.7.4.3 0 1.1-.7 1.3-.3 0-.4-.1-.4-.6zm21.7 31.8c0-.1-.1-.2-.3-.2-.1 0-.3 0-.3.2s.2.3.3.3c.2 0 .3-.1.3-.3zm-3.5-3.1c0-.2 0-.3-.2-.3s-.3.1-.3.3c0 .1.1.2.3.2l.2-.2zm-20.4-9c.2-.5-.4-1.9-1-1.9-1.4 0-1.8 1.4-.5 2 1.2.5 1.3.5 1.5 0zm43.3 26.6c0-.3.2-5.5.2-11.5 0-6.8 0-11 .2-11 .3 0 .5 13.2.3 19.1-.1 3-.2 3.9-.5 4-.3 0-.3 0-.2-.6zm-140.3-17.7c-.1-.1-1.5-.2-3.2-.2-3.2-.1-3.7-.2-3.7-.6a752.2 752.2 0 0 0 18.9.1l12.5.3a1215.8 1215.8 0 0 0-24.5.3zm26-.4h1.4l-.7.1c-.8 0-1.1 0-.7-.1zm3.7 0c0-.2.6-.3 2-.3s2.1 0 2 .2c0 .2-1 .3-2 .3s-1.9-.1-2-.3zm-40-.3c.5-.4 2.2-.4 2.5 0 0 .1-.5.2-1.4.2-1.1 0-1.4 0-1.2-.2zm138.9-2.6a30.4 30.4 0 0 0-.7-14.4c-1.3-5.6-2-12.1-1.5-15.2.5-3.2.8-3.9 1.4-3.8.6.1.6.3.6 1.4 0 .8-.2 2.5-.5 4a9 9 0 0 0 .2 5.2 96.3 96.3 0 0 1 1.7 8.2l.7 2.5 1 3.3.2 2-.1 1-.3-1c-.9-3.3-2.7-11.4-2.7-12 0-.6-1.4-5-1.5-4.8a60.6 60.6 0 0 0 1.5 10.2c1 4.8 1 5.4.9 9.3l-.3 4.3c-.2.8-.6.6-.6-.2zm-.7-31c.3-1.6-.3-1.4-.7.2l-.2 2.2v.9l.4-1.1.5-2.2zm12.6 18.4c0-5.4.1-10 .2-10.4.2-.3.2 3.8.2 9.9 0 6 0 10.4-.2 10.4-.1 0-.2-4.2-.2-9.9zm-195.8 5.5c-.4-.5-.9-1-1.3-1l-1.1-.6c-.4-.3-2-.7-3.7-1-2.6-.5-9.2-2.1-9.7-2.4-.3-.2-1.3-.4-2.4-.4-1 0-2 0-2.3-.2-.3 0-.5 0-.7.6-.3.8-1 1-1.6.7-.7-.4-1.1-.4-2 .1-.8.5-.9.5-1.4 0-.2-.2-.7-.4-1-.4-.2 0-.6-.2-.7-.4-.3-.4-.5-.4-1-.2-.7.3-1 .2-1.7-.2-.5-.3-1.2-.6-1.6-.6-.3 0-.9-.3-1.2-.7-.8-.9-1.3-1-6.3-1.4-6.2-.5-8.6-.2-12.4 1.7l-1.7.7-1.4.5-1.8.7a3 3 0 0 0-1.3.8l-1.4 1-1.2.8c-.4.2-.6.2-.8 0-.2-.2 0-.6.9-1.4.9-.8 1.2-1.4 1.4-2.2l.2-1.1.2.8c.2.7.4 1 .9 1 1.1 0 1.3-1 1-5-.2-2-.3-3.9-.2-4.1l.4-9.4c0-1.4.2 1.5.3 6.5 0 5 .2 9.4.3 9.7.3.8.7.9 1.8.4l1-.4v-3.4l-.4-9a225.1 225.1 0 0 1-.6-25.2 304.5 304.5 0 0 0 1.7 32.4c.1 2.3.3 4.2.4 4.4.2.2.6.2 1.5-.2 1.5-.5 2-1.1 1.8-2.2l-.3-4.4a208.7 208.7 0 0 1-.6-19.2v-9.5a6 6 0 0 0-.5-2.8c-.5-1-.7-1.9-.7-3.7l.1-2.5c.5-.3.3-.8-.4-1.1-.8-.4-2-2.1-2.2-3.3-.1-1 .4-1.8 1.4-1.8 1 0 .8-.3-.3-1-.7-.5-.9-.8-.9-1.4 0-.5.2-.8.4-.8.5 0 .5 0-.2-1.3-.8-1.3-1-2.4-.3-2.4.9 0 .6-.6-.6-1.9a6 6 0 0 1-1.7-2.4c-.3-1-.3-1 .4-1.6.6-.5.6-.5.2-1.2l-1-1.3a4 4 0 0 1-.8-1.4c-.1-.6 0-.9.7-1.4 1.3-1.1 1-1.4-.9-1.5-1.4-.1-1.6-.2-1.7-.7 0-.6-.2-.6-2.5-.6-2.9 0-4-.2-4.1-1 0-.4.2-.6 1.5-1a90.3 90.3 0 0 0 3.6-1.4c.6 0 1-.5.7-.9-.5-.7.1-1 2.6-1.3 2-.2 2.7-.2 3.6.2 1 .3 2.2 1.7 2.2 2.4 0 .4-.6.4-1.2.1l-2.3-.4c-1.5-.1-1.8-.1-1.6.2.2.1.4.6.4.9 0 .4.2.6.7.7l1.7.5c.7.1 1.2.1 1.6 0 .6-.4 2-.2 2.3.4.2.3.1.7-.2 1.2-.3.7-.4.8-1.7.6-1.5-.2-1.7.2-.3.7.6.1 1.4.5 1.8.7 1 .6.9 1.6-.2 1.4l-2.8-.2-2.5-.1 1 1c.4.5 1.3 1.4 2 1.9 1.4 1 1.6 1.3 1.6 2 0 .8-.5.8-1.6.2-.6-.3-1-.3-1.3 0-.6.2-.6.2 0 1.2l1.2 1.7c.3.4.8 1.3 1 2 .5 1 .5 1.1 0 1.6-.4.6-.4.6.1 1.3 1.6 2 1.6 2 .9 2.5-.5.4-.6.6-.4.7.2 0 .7.6 1.2 1.3.7 1 .7 1.2.5 1.5-.2.3-.7.4-1.2.4-1.2-.2-1.1.5.3 2.1.8.8 1.5 2 1.7 2.5.3 1 .3 1-.1 1.4-.5.3-.5.4.2 1.2.6.9.7 1 .3 1.4-.6.5-.6.7.7 2.6l1.6 2.9c.4.9.8 1.4 1.8 2 1.5 1 2.8 2.5 2.5 3.1 0 .3-.3.4-.7.3-.6-.2-.8 0-.5.8.1.3.5.6 1 .7 1.7.3 3.6 2.8 2.2 2.8-.7 0-.7.2 0 .8.8.6 1.2 3.3.6 4.2-.6 1-.5 2.8.4 4 .5.7.8 1.3.8 1.6l.6 1.2c.9 1 2.9 4.7 3.8 6.6l1.9 3.4 1.1 2 .7 1c.4.3.7.8.7.9 0 .1.5.3 1 .3l1.7.3c.4 0 .7-.2 1-.7.2-.7.2-.9-.2-1.8-.4-1-.3-1.5.3-1.5s1.2 1.4 1.2 2.7c0 1 0 1.3.7 1.5 1 .4 1.5-.2 1.5-2 0-1.3 0-1.5.6-1.5s.7.3.6 1.4c0 .6.5.9 1 .4l.6-1.3c.3-.8.2-1-.3-2-.6-1.4-2-2-2.6-1.5-.5.5-1 .5-2 .1-.7-.3-2.5-3.6-2.5-4.7 0-.4-.2-1.2-.5-1.8-.4-.6-.7-2-.9-3.7-.1-1.4-.4-2.7-.5-2.8-.1 0 0-.9.3-1.8.7-2.1.7-2.4-.2-3.2-.3-.3-1-1.2-1.3-2-.4-.9-.9-1.6-1.4-1.9-.4-.2-1-.8-1.3-1.2-.5-.6-.6-.8-.3-1.4.4-.8 1.1-.8 2.3.3a8.7 8.7 0 0 1 2.5 2.8c.4.7 1.2 1.4 3.2 2.6 3.2 2 4.2 2.2 5.3 1.4.5-.4 1.1-.6 2-.6 1.2 0 1.5-.4.7-1-.4-.4-2.2-.2-3.3.4-.8.4-1.6.1-1-.3l1.4-.8c1-.4 1-.5.5-.6-.4 0-1.4 0-2.4.2-1.1.2-1.9.2-2 0-.5-.5.3-.9 2.3-1 2-.2 2-.3-.4-.8-1.6-.3-2-.7-1.6-1.1.2-.2.8-.2 2 .1l2.4.6c.5 0 .7.3.6.6 0 .3.2.5.7.5.8.1.9.3.4.8-.3.3 0 .3.9.3 1.2 0 1.2 0 2.5 1.8l2.1 2.6c1 1.2 2.1 3.4 3.3 6.7 1 3 1.9 5 2.7 5.8.4.5.5.6.2 1-.3.3-.3.5 0 1 0 .3.4 1.1.7 1.8.3.7.8 1.4 1 1.5 1.4.4 2 2 1 2.2-.7.2-.7.8-.3 2.6.3 1.1.4 1.2 1.8 1.7 1.2.5 1.5.7 1.7 1.5.4 1 1 1.2 2.1 1 1-.3 1.9-3.3 1.1-4-.5-.3-.3-.7.5-.7s1.3.8 1 2c0 .4 0 .9.2 1 .2.5 2.2.8 2.6.5.6-.4.7-2 .2-3-.4-1-.2-1.4.5-1.3.5.1.7.4 1.1 1.4.4 1 .5-1.1.1-2.2-.4-1.4-.9-1.7-2.7-1.7-1.6 0-1.7 0-2-.9a4 4 0 0 0-.9-1.2c-.2-.2-.5-.6-.5-1 0-.6-.2-.6-1.6-.7-1.2 0-1.6-.2-2-.7-.9-.9-.6-1.6.5-1.4l1.5.3c.6.2.9 0 1-.3.3-.4.3-.8.1-1a7 7 0 0 1-.4-1.6l-.2-1.2-1 .8c-1.5 1.1-2.6 1.3-3.8.6-1-.6-1.6-1.9-1.4-2.6.2-.3.5-.4 2.2-.3l2.1-.1.8-.2.6-.1-.2-1a23 23 0 0 1-.6-2.5c0-1-.3-2-.5-2.4l-.3-.8-.2 1.3c-.1.7-.4 1.4-.5 1.6-.2.1-1 .3-1.9.3-1.2 0-1.7-.1-2.1-.6-.3-.3-.5-.7-.4-.9.2-.5 1.5-1.3 2.2-1.3.2 0 1-.2 1.6-.5 1.2-.6 1.2-.5.5-2.5-.4-1-.5-1.1-1.3-.8-.3.1-.6 0-.9-.5-.5-.8-.3-1.8.4-1.8.2 0 .6-.1.8-.3.4-.3.4-.5 0-2-.5-2.2-.2-3.3.9-3.8l.8-.3-1.4-.4c-1.5-.4-2-.8-1.6-1.2.3-.3 3.2.6 3.3 1 .1.2.5.4 1 .4.4 0 .9 0 1 .2.4.4.4.4-1.6.9l-1.2.3v2c0 2.3.4 4.6.7 5.1.1.3.3.3.5 0l1.6-.7 3-1.3c1.2-.7 1.8-1 2.4-.8a5 5 0 0 0 3.3-1 5 5 0 0 1 1.6-.6c1-.1 1.6-.9 1.6-2.1 0-1 .4-1.7 1-1.7s.7.2.6 1.4c0 .4 0 .7.2.7s1.1-.9 2.1-2l1.9-1.8v-1.8c0-1.6 0-1.8.5-1.8.4 0 .6.2.7 1 0 .6.3 1.1.4 1.1.1 0 .4-.6.6-1.4l.7-1.6c.2-.1.3-.7.3-1.4 0-.8-.2-1.3-.7-2-.6-.6-.6-.8-.4-1.3.4-.6.6-.6 1.5 0 .3.4.7.6.8.5 0 0 0-.6-.2-1.1a9 9 0 0 1-.2-2c0-3.1-3.9-7-8.6-8.8-.5-.2-1-.5-1-.7 0-1.4-3 1.6-4 4-.5 1.6-1.2 2-1 .6a7.2 7.2 0 0 1 2.8-4.7c1.8-1.5 2-1.7 1.2-1.9-.4 0-.5-.3-.5-.8 0-.3-.2-.7-.4-.8-.6-.2-.6-1.2 0-1.2.8 0 2.2 1 2.4 1.5 0 .4.4.7.6.9.3.1.5.6.6 1 0 .8.2 1 2.3 1.8 2.3.9 4 1.1 4.4.6.5-.5 2.1 0 3.3 1l1.2.9c.4 0 1.7-.9 1.8-1.2.2-.5-2-3-3-3.6-.4-.2-.9-.6-1-1-.3-.5-.2-.7.2-1.1.5-.5.8-.6 2.5-.5 2 .2 3.6.9 3.6 1.6 0 .6 2.2 1.5 3.5 1.5.7 0 1.2 0 1.2-.2s.2-.3.4-.3.5-.3.7-.6a4 4 0 0 1 1.1-1.1c.6-.4 1-.8 1-1.3.1-1.5 2.6-2 5.4-1 1.6.6 4.7 2.7 4.7 3.2s-.7.3-1.2-.2a16 16 0 0 0-3-1.8c-2.2-1-2.5-1.2-3.6-1-1.4.2-1.8.5-1.8 1.4 0 .6-.4 1.1-1.7 2.4l-2 1.6c-1.7.2-2.9.1-4.1-.4-.8-.4-1.4-.8-1.4-1 0-.3-1.6-1-2.8-1.3l-1-.1 1.3 1.3c.8.7 1.6 1.2 2 1.2.8 0 1.5.5 1.5 1 0 .3-.5 1.1-1.2 1.8-1.5 1.6-2.4 2-4 1.4-1.3-.3-1.6-.2-1 .7.5.8.5 1.6 0 2.5-.3.5-.4 1-.2 1.3.2.5.3 1.8.4 4.7 0 1.4 0 1.6-.5 1.8-.4.2-.6.5-.6 1.1 0 .7-.5 2-2 5.6-.1.2-.3.4-.5.4h-.7c-.2 0-.6.6-1 1.2-.3.7-.8 1.2-1 1.3-.3.1-1.3 1-2.3 2-1 .9-1.8 1.6-2 1.5 0-.1-.7.1-1.4.5l-1.3.7.2 1.7c0 1.3 0 2.1-.3 3l-.7 3.8a92 92 0 0 1-1 8.2v.9l10.2.2 21.8.2c6.3 0 11.7.1 11.8.2.2.2 9.9.3 21.5.4 18 .1 21 .2 21.1.5.1.4-3.3.5-17.4.3h-14.1c-2 .1-7.8-.1-12-.5-2.9-.2-5.8-.2-11 0h-10.6l-12.6-.4c-8.7-.1-9.2-.1-9.3.3-.4.8.2 1 1.5.7 2-.5 3.1-.4 3.9.4 1.5 1.7 1.8 2.6 1.8 4.6-.1 1.2 0 2 .2 2.2.5.6.1 1-1.1 1-1.1 0-1.2 0-1.3.8 0 .8-.1 1-1.1 1-1.5 0-2.6.3-3.1.8-.2.2-.7.3-1 .2-.5 0-.7.1-.9.8v1.5c.1.6 0 .7-.5.7-.3 0-.7-.2-1-.4-.2-.2-1-.4-1.6-.5-1.2-.1-1.3-.1-1.8.7-.5.8-1.3 1.1-2.3.9-.4-.1-.6 0-.7.2-.3.7-1 .5-1.5-.5zm-1-3c0-.2-.2-.3-.4-.3-.1 0-.2.1 0 .3l.2.2.1-.2zm-10-3.1h-.5c-.2 0-.1.1.2.1.3 0 .4 0 .3-.1zm25-.3c.2 0 .2-.6.1-1.2-.1-.8 0-1 .2-1s.6.2.7.4c.8 1 1.6 0 1.6-1.9 0-1-1.6-3.5-2.3-3.5l-2 .4c-2.9.8-3.8-.1-2.5-2.5.4-.7.5-1.4.4-2.3v-1.3l-1.7-.1c-1.5-.2-1.8-.3-2.3-.9-.2-.4-.4-.8-.3-1 .2-.3 1.5-.3 2.9 0 .8.2 1 .1 1.5-.3.5-.5.5-.6.1-1-.6-.7-.4-2.2.3-2 .5.2.5-1.5 0-2-.4-.4-.7-.3-.7.3 0 .3-.1.5-.3.5-.3 0-.5.2-.6.4-.2.5-.9.5-1.1 0 0-.2-.6-.5-1-.7-.8-.2-1-.4-1-1v-.6l2.6.2 2.5.1v-.7c0-.4.2-1 .4-1.3.3-.5.3-.8 0-2-.3-2-.6-2.2-1.9-1.8a3 3 0 0 1-1.4.1c-.7-.2-2 .6-2.2 1.3-.1.4-.6 1-1.1 1.2-.6.3-1 .8-1.1 1l-.7 2c-.7 1.7-.7 2.7.2 5.8l1 4.8c.7 4.3 2.1 6.8 3.5 6.4.4 0 1.1 0 1.6.2.7.2 1 .5 1.6 1.7l.6 2c0 .8 0 .8 1.1.6a7 7 0 0 0 1.4-.3zm-7-9.3c-.3-.4.1-1.1.7-1.1.5 0 .8.3.6.9-.2.5-1 .6-1.3.2zM90.7 124c.5 0 .8-.1.8-.4 0-.3.4-.4 1.5-.6.8 0 1.6-.3 1.7-.4.1-.2.3-.2.6 0 .4.4.4.3.4-.3s0-.7-1-.7c-.6 0-1 .2-1.3.5-.3.4-.3.4-.8 0-1-.8-1-.8-1 .1 0 .8 0 .9-.7.8-.4 0-.7 0-.8.3-.1.2-.4.4-.7.4-.3 0-.6.2-.6.4 0 .4.1.4.5.2.3-.2 1-.3 1.4-.3zm-.8-1.6c0-.4-.6-1.3-1-1.3 0 0 0 1.4.2 1.8h.4c.2 0 .4-.2.4-.5zm-21-1c.2-.5-.2-.9-.6-.6-.4.2-.2 1.4.3 1.3.1 0 .3-.3.3-.6zm-13.4 0v-2.9c-.2-2.5-.4-6.8-.7-16a72.3 72.3 0 0 0-1.7-15.1c0-.4-.7-.8-1-.6-.3.3-.3 14.4 0 19 .8 15.6.8 15.4 1.2 15.8.5.3 2 .2 2.2-.2zm30.4-.1c.6 0 .7-.4.1-.6-.2 0-.7 0-1 .2-.8.5-.9.9-.2.6a3 3 0 0 1 1-.2zM58.2 117c.3-4.5.1-9.3-.4-10.8-.3-.9-.4-2.3-.4-6 0-4.8 0-4.9-.7-6-.9-1.5-1.7-2.5-1.8-2.4v3l.7 11.8c.4 9 .8 14 1 14.2.1.1.4 0 .7-.2.4-.3.4-.3.2.2-.1.4-.1.4.1.2s.5-1.7.6-4zm5.9 4c-.1-.2-.4-.4-.6-.4-.2 0-.3.2-.2.3 0 .2.3.3.6.3.2 0 .3-.1.2-.3zm31.6-.1-1-2.3c-1-1.9-1.2-2-2-2.2-1.3-.2-1.9.3-2.1 1.8-.3 1.6.3 2.5 1.7 2.7 1.9.3 3.4.3 3.4 0zm-6.2-2.6c0-2-.1-2.5-.5-2.9-.6-.6-2.4-.6-3 0-.7.6-.7.6-1.3-.1-.7-.8-1-2.4-1.4-6.6a12 12 0 0 0-1.5-5.6c0-.3-.4-.4-1.3-.4-1.1 0-1.2 0-1.5 1l-1.5 3.7c-1.5 3.5-1.5 4.4-.2 7.3 1 2.1 1 2.1 2 2.1 1.7 0 3.4 1.2 4.1 2.9.3.6.6 1 .8.9l1.3-.4c.7 0 1-.4 1.4-.9l.6-.8c.3 0 1 1.1.9 1.4-.3.4.2 1 .6 1 .4-.1.5-.4.5-2.6zm-11.7-6c-.2-.4 1-4.2 1.5-4.3.4-.1.3.2-.3 2.4-.5 2-.9 2.7-1.2 2zM60.2 120c0-.2 0-.3-.3-.3s-.4.2-.4.4c0 .5.5.4.7 0zm7.6.2c0-.1 0-.2-.3-.2-.2 0-.4 0-.4.2s.1.3.3.3l.4-.3zm-7.3-1.4.4-2c.5-2.3.5-7.5 0-8.3-.7-1.1-1-3.3-.8-6 .2-2.4.2-2.6-.4-3.4-.4-.6-.8-1-1-1-.5 0-.5 2.9 0 7.3.3 3.8.5 9.2.2 11.3-.2 2 0 2.6 1 2.3l.6-.2zm2.7-.3c.4-.5.2-3.2-.1-4.1-.3-.6-.3-1.1-.2-1.5.2-.5.2-.9 0-1.3-.7-1.3-1-1-.9.9 0 1 0 2.6-.2 3.7-.2 1.4-.2 2 0 2.4.4.5 1 .5 1.4 0zm2.5-.8-.5-2c0-.6-.2-1.2-.4-1.4l-.8-1c-.4-1-.8-.5-.4.4.2.3.4 1.5.5 2.6.1 1.7.2 2 .7 2.3 1 .4 1.3.1.9-.9zm27.1-2.5-.6-1.8-.6-1.7-1-2.5-1.6-3.3c-.5-1-2.5-2.3-4-2.4-1.2-.1-1.2-.5-.6 4.3l.5 4.2c0 2 .2 2.1 2.3 2 1.7-.2 1.8-.2 2.5.6.7.7 1 .9 2 .9.6 0 1.1-.1 1.1-.3zM77.5 106l.9-2.1.4-1.2-1.2-.5-1.2-.6-.6.8c-.5.5-.7 1-.6 1.3l.1 2.2v1.8l.7-1.4 1-2c.2-.7.3-.8.4-.4 0 .4-1.4 4.2-1.9 4.9-.1.2-.1.5 0 .8.1.3.3.1.8-1l1.2-2.6zm164.8 21.9c0-.2.4-.3 1-.3.8 0 .9.1.4.3-.7.3-1.4.3-1.4 0zm5.2-.2h.7c.2 0 0 .2-.4.2-.3 0-.5-.1-.3-.2zm-63.9-.5c-.2 0-10.8-.3-28.3-.5-6-.1-11-.3-11-.4l.7-.4c1-.2 11.5-.1 17.1.2l21 .2c14 0 16.8.1 16.3.6-.1.2-15.3.4-15.8.3zm-144.8-1c0-.5.1-1.2.3-1.7l.4-3c.3-7 .5-8.7.6-8.6.2.2.1 9.2-.1 11.3-.2 1.8-.5 2.6-1 2.6 0 0-.2-.3-.2-.7zm252.5-1.5-.1-8.4a1540 1540 0 0 1-.6-38.2 624 624 0 0 1-.1-23.4c.2-.2.9 27.9 1.1 47l.3 17.6c.2 5.8.1 7.3-.4 7.3-.2 0-.3-.7-.2-2zM36 124l.4-2.4c0-.9.2-1.8.4-2a34.8 34.8 0 0 0 0 3.9c0 1.1-.2 1.4-.5 1.4-.4 0-.4-.2-.3-.9zm6-.7c0-.5.1-.7.2-.5v1l-.1-.5zm-10.2-2.5v-1.3c.2-1.2 1-11.8 1-14.5 0-2.7.2-4.2.5-4 .2 0 .2 1.2.1 3l-.3 6.6a78.2 78.2 0 0 1-.6 9c0 1.3-.4 2-.7 1.2zm10.1-1a168.8 168.8 0 0 1 .6-25c0-2.4.3-3.9.4-3.8.4 0 .3 1.6 0 8.9-.3 3.2-.5 9.1-.5 13.1 0 7-.1 8.7-.5 6.8zm-5-5.4c0-2.4.2-4.5.2-4.6.2-.2 0 6.2-.1 7.7-.1.8-.2-.4-.1-3zm207.7 3.7-5-.2a545 545 0 0 1-20.7-.9 63.4 63.4 0 0 0-9.6 0c-2-.2-2.6-.3-2.6-.6s.8-.4 6-.3c3.4 0 9.1.2 12.8.4l13.3.3c6.4.1 7.5.3 7 .9 0 .2-1 .6-1.2.4zm-39.7-1.6v-.5c.5-.2.8.1.4.4-.2.2-.3.2-.4 0zm92.3-3c-.2-.4-.1-4.8.1-4.8s.3 1 .3 2.6c0 2.3 0 2.8-.4 2.3zM40 110.4c0-.9 0-1.6.2-1.5.2.3.3 2.8 0 3-.1 0-.2-.6-.2-1.5zm-3-2.2a131 131 0 0 1 .8-22.5c.7-2.9.7-1 0 2.4-.5 2.6-.5 3.7-.5 11.7a230.6 230.6 0 0 1-.3 8.4zm3.1-6.6.3-6.5.2-12.2c.2-12.5.5-16.1 1.2-16.7.3-.3.4-.3.2.4a92 92 0 0 0-.8 13.8 857.4 857.4 0 0 1-1 27.6c-.2 0-.2-1.8 0-6.4zm211.2 2.5-.6-2.8c-.4-1.6-.3-2 .3-1.4.5.5.9 2.2.9 4.1 0 1.7-.4 1.8-.6.1zm-4.1-.5-1.1-1.9c-.8-1.2-.8-1.8 0-1.5.5.2 1.8 2.8 1.8 3.6 0 .8-.4.7-.7-.2zm18.2-2.8a858.5 858.5 0 0 1 1-14.8c.4.1.2 12.6-.1 14.3-.1.8-.9 1.3-.9.5zm-168.2-.5c-.2-.1-.3-.5-.3-.8 0-.4.1-.5.7-.4.6 0 .7.2.7.7 0 .8-.6 1-1.1.5zm6.7-2c-.2-.2.1-.6.7-.6.2 0 .5.2.5.4 0 .4-.8.6-1.2.3zm-17.6-1-.8-.6c-.5 0-.3-.6.4-1.1.4-.3.6-.6.6-.7 0-.1-.4-.5-1-.8-.9-.5-1-.8-1-1.4 0-1.3 1.2-1 2.3.6.6.8 1 2.9.6 4.1-.2.8-.4.8-1 0zm18-2c0-.5 1-1.3 1.7-1.3s.4.7-.4 1.2c-1 .5-1.3.5-1.3 0zm-22.8-.7c0-.4.3-.5.7-.4.2 0 .3.3.2.4-.2.3-.9.3-.9 0zm21.6-.3c-.3-.4.3-1 1.4-1.3 1.8-.5 1.9.3.2 1-1.5.6-1.4.6-1.6.3zm-16-2.5c-1.8-1-2.5-2.3-1.3-2.3.6 0 2.9 2 2.9 2.4 0 .5-.5.5-1.7-.1zm125.6-.5-2.6-.3-2.6-.3c-.5-.3-26.8-1.2-35.1-1.2-5.7 0-7-.1-6.4-.7a508.4 508.4 0 0 1 47.5 1.9c.6 0 1 .1 1 .3 0 .3-1.5.5-1.8.3zm-101.8-1.4c-.3-.3-.3-.5 0-.7.3-.4 1 0 1 .6s-.5.7-1 .1zm-10.6-.8c-2-.7-2.6-1-2.6-1.5 0-.6 1-.4 3 .5 2 1 2.6 1.4 1.8 1.6l-2.2-.6zm59.4.2c-8.4-.1-17.3-.5-17.6-.7-.8-.5.9-.6 8.2-.4l11.4.4c2.9 0 3.6.1 3.6.4 0 .5-.2.5-5.6.3zm77.1-.5-6.3-.3c-2.4-.2-9-.4-14.7-.5-5.7 0-10.3-.1-10.4-.2l5.7-.3c5.8-.2 16.5 0 23.2.4 2.3.2 5 .2 6.9 0 4.5-.4 4.3-.3 4.7-1.7l.4-1.3v3.5l-2.4.2a1654.2 1654.2 0 0 1-7 .2zm-163.3-1c-1.4-.4-1.6-.6-1.7-1.2-.1-1 .6-1.2 2.2-.3 1.7.8 2 1.2 1.9 1.8-.2.5-.5.4-2.4-.3zm67.3.4.2-.3c.2 0 .4.2.4.3.1.2 0 .3-.2.3s-.4-.1-.4-.3zM65 87.5c-1.3-.4-1.3-2.3 0-2.3.6 0 3 1.8 3 2.3 0 .4-1.9.5-3 0zm41-1.2c-.7-.6.2-1.2 1.2-.8 1 .3.9 1-.2 1-.5 0-1 0-1-.2zm-6.3-1.1c-1.1-.8-1.3-1.4-.4-1.6.5 0 2.2 1.5 2.2 2 0 .6-.6.4-1.8-.4zm172 0c-.3-2.8-.2-3.4 0-3.4.1 0 .2.8.2 2l-.1 2-.2-.5zm-200.8-.5c-.6-.3-1.2-.8-1.5-1.1-.5-.8-.5-1.8 0-2 .8-.3 5.4 2.7 4.8 3.2-.4.4-2.3.3-3.3-.1zm45.8-.2c-1-.6-1.3-.9-1.3-1.4 0-.5.2-.7.7-.8 1.3-.1 3.4 2.4 2.2 2.8l-1.6-.6zm149.4-.9c0-.9.2-1.6.3-1.6.3 0 .3 2.9 0 3-.2.2-.3-.3-.3-1.4zm-202 .7a6.6 6.6 0 0 1-3.3-2c-.7-.8-.7-1.2 0-1.6.4-.2.7-.2 1.3.2 1.4.9 3.4 2.9 3.4 3.3 0 .5 0 .5-1.4.1zm15.2-.6c-.6-.8-.6-.9-.3-1.4.4-.6 1.2-.2 1.7.8l.3 1.1c-.3.4-1.2.2-1.7-.5zm33.2-.7c-.7-1.3-.8-1.8-.3-2.3.6-.4 1.4.3 1.8 1.7.5 2-.4 2.4-1.5.6zm-9.2.7-.2-.8c0-.6.1-.7.9-.5 1.4.2 2.3.6 2.3 1s-.3.5-1.4.5l-1.6-.2zm142.6-.9v-3.6c0-.6.2-.7.4-.4.3.5.3 4 0 4.7-.2.4-.3.2-.4-.7zm-142-1.5c-.3 0-.5-.3-.5-.6 0-.4.2-.5.7-.5 1.1 0 2.5.5 2.4.9-.1.3-1.8.4-2.7.2zm162.3-5.1c.1-6.1.1-5.8.4-5.3.3.5 0 10.1-.2 10.4-.2.2-.2-1.8-.2-5.1zM79.7 79.6l-1.5-.5c-.7-.1-.9-.2-.9-.8 0-.6.1-.6 1-.6.7 0 1.3.2 1.7.6 1 1 .8 1.9-.3 1.3zm191.7-.3c0-.4.1-.7.3-.7.1 0 .2.2.2.5l-.2.7c-.2 0-.3-.2-.3-.5zm-212-2c-.8-.9-1-1.6-.3-1.8.5-.2 2.6 1.8 2.4 2.3-.4.5-1.2.3-2-.5zm186.8.4c-.2-.4 0-3.9.4-3.9l.2 1c0 1.4-.4 3.2-.6 2.9zm25.2-1.8v-2l.3 1.7c.2 1.2.2 1.8 0 2-.2.2-.3-.3-.3-1.7zM80.2 77.1c-2-.5-3.4-1.8-2.8-2.6.5-.6 1-.5 2.3.3 2.8 1.9 3 2.8.5 2.3zm19.8-.9c-1-.7-1.6-1.7-1.1-2.2.4-.6 1.3-.5 2.8 0 .6.4 1.7.8 2.3 1.1 2.1 1 1.5 1.6-1.5 1.6-1.2 0-1.9-.1-2.5-.5zM81.8 75c-2.3-1-3.4-2.8-1.8-2.8.6 0 1.2.5 2.2 1.5 1.8 1.7 1.6 2.3-.4 1.3zM105 73c-.7-.9-.7-1.7-.1-1.9.5-.2.9.2 1 1.5.2 1.2-.1 1.4-1 .4zm166.5-.5v-.5 1-.5zM60 72.6c-1.7-.4-2-.6-1.8-1.6.1-1 .8-1 2.5 0 1 .6 1.4 1 1.4 1.3-.1.7-.4.7-2 .3zm22-.4c-1.8-.8-2.3-1.4-1.5-1.7.5-.2 3.8 1.4 3.8 1.8 0 .7-.3.7-2.3-.1zm164.3-.2c0-.5 0-.8.2-.8s.3.3.3.6c0 .4-.1.7-.3.8-.1.1-.2-.1-.2-.6zM67.7 72c-.9-1 .3-1.6 2-1 .6.1.9.4.8.7 0 .5-2.3.7-2.8.2zm24.7 0c-1-.1-1.2-.6-.8-1.2.3-.4.4-.4 1.3 0 .7.2 1 .5 1 .9 0 .5-.3.6-1.5.3zm-25.5-2c0-.2 0-.5.2-.5.6-.4.3-1-.5-1-.5 0-.9-.2-1-.5-.5-.8.3-1.1 2-1.1 2.5 0 3.6 1 1.7 1.4-.4.1-1 .6-1.4 1.1-.7 1-1 1.2-1 .6zm179.5-.1.1-.4c.2-.1.3 0 .3.2 0 .5-.2.5-.4.2zm25-1c-.4-1.5-.3-3.4 0-3.1.2.1.2 1 .2 2 0 1.6-.1 1.8-.3 1zm-5-.1c0-.4 0-.5.1-.3v.6-.3zm-208-.6c-1.6-.8-2-1.5-1.2-1.9.5-.2.8 0 2.2 1.2 1.9 1.7 1.4 2-1 .7zm188-1.1.1-2.2c.3-1.7.7-.3.4 1.6l-.3 1.6zm19.8.5c-.2-.5 0-1.3.4-1 .2 0 .3.3.3.6 0 .7-.5 1-.7.4zm-184.5 0c-.7-.3-1-.7-.9-1 .3-.9 3.3-.2 3.3.7 0 .3-.2.4-1 .4-.6 0-1.2 0-1.4-.2zm10.9-1c-.6-.3-.9-.6-.8-1 .1-.6 1-.6 2 0 1.7 1 .7 1.8-1.2 1zm173.8-1.4c0-.4 0-.6.1-.3s.1.6 0 .8v-.5zm-198.7.2c-.7-.2-1.4-.9-1.4-1.4 0-.7 1-1.1 3-1.1s3 .5 2.8 1.5c0 .5-.3.6-1.8.7l-2 .3h-.6zm-9.2-1c-1.1-1-1.2-1.7-.3-1.7.5 0 2.1 2 1.9 2.4-.2.4-.4.3-1.6-.8zm49.4.6c0-.4 1.3-1.3 3.2-2.2 1.2-.5 1.2-.6 1.2-1.6 0-1.6.5-2.5 1.2-2.4.5 0 .6.2.6 1.4s0 1.3.7 1.3l2.2-.3c1.7-.1 3.2.2 3 .8-.1.2-.7.3-2 .2-1.3 0-2 0-2.7.3-.4.3-1.2.5-1.7.5l-1.6.4c-2 1-3.7 2-4 2l-.1-.4zm163.3-.8c0-.5 0-.6.1-.4v.8l-.1-.4zm-5-.4c-.2-.3-.1-.6.3-.6.2 0 .4.1.4.3 0 .3-.4.6-.6.3zM95.5 63a3 3 0 0 0-.9-.6l-1-.5c-.9-.7-1-1.7 0-1.6.8 0 2.3 1 3 2 .8 1.2.1 1.7-1.1.7zM271 62v-1.3c.2-.3.3 0 .3.7 0 1.5-.2 1.7-.3.5zm-131.4-.5c-.2-.6.2-1.7 1-2.9.9-1.3 1.2-4.2.8-7.2-.3-2-.5-2.7-1.2-3.5-.2-.2-1-1-1.5-1.8-1.3-1.7-2.1-2.2-1.4-.9.4 1 .3 1.9-.3 1.9-.2 0-.6-.4-.9-1a8.7 8.7 0 0 0-4.1-2.4c-.6 0-3.3-1.4-3.3-1.7 0-.1.2-.3.5-.4.7-.2.7-.5 0-.7-.5 0-.8-.4-.9-.8 0-.3-.5-.9-1-1.2a7 7 0 0 1-1.8-2.3c-.8-1.5-1.1-1.8-2.2-2.3-2-1-2.2-.7-2.4 2.4-.1 2.4-.1 2.6.4 3 .6.4.7 1.6.2 2-.3.3-.3.4 0 .7.4.4.4 1.5 0 1.5-.2 0-.7-.2-1-.5-.9-.7-1.6-.9-2.9-.6-.8.3-1.3.2-2.2 0-3-1-8.1-1.6-8.3-1-.2.4 3 5 4.2 5.9.5.4 1 1 1 1.3 0 .5-.9.9-1.6.7-.3 0-.4 0-.3.3.2 1 .1 1.2-.8 1.4-.5 0-1 .4-1.3.7-.6.7-1.4.7-2.3 0l-.7-.6-.2.7-.2 1.3c0 .9-.6 2-1.1 2.2-.7.2-1.3-.1-1.9-1-.3-.6-.9-1.2-1.3-1.4a4 4 0 0 1-1.2-1.4c-.4-.8-.6-.8-1.7-.8-1.4 0-2.4-.6-2.9-1.9-.4-1.1-1.3-1.3-2-.4-.5.8-.7.8-1.8 0-1.2-1-1.2-.3 0 1.2.5.6.9 1.3.9 1.5 0 .6-.8.4-1.7-.3L89 50l-1.3-1.4c-.4-.7-1-1-2.3-1.5-2-.8-2.2-.8-3-.1-.5.4-1 .5-2.2.5-1.3 0-1.7.1-2.1.7-.5.5-.7.5-1.3.3-.7-.2-1-.2-1.7.4a4 4 0 0 1-1.5.8c-.6 0-2.4-1.2-3-2.2-.6-.7-1.6-1.3-2-1 0 .2 0 .4.3.7.5.5.6 1.4.2 1.4-.2 0-2-1.3-3.5-2.7a8.2 8.2 0 0 1-1.8-3c0-.8.8-.7 1.8.2 1.4 1.4 1.8 1.3.9-.2-.3-.5-1-1.1-1.8-1.4a6 6 0 0 1-1.7-1.3l-.7-.6c-.5 0-1.4-1.2-1.6-2.2-.1-1-.1-1 .3-.9h.3c-.3-.5-2.2-.4-3.1 0l-.8.5 1 1c.7.4 1.2 1 1.2 1.3 0 .5-.2.6-1.3.6a5.1 5.1 0 0 1-4.3-2.7l-1.2-1.7c-.6-.6-.6-.8-.6-3.2 0-1.4 0-2.5-.2-2.5l-1.9.9c-2.5 1.2-2.9 1.3-3.6.8-.8-.5-1.2-2.2-.7-2.5.7-.4 0-.6-.8-.3-1.2.5-1.8 1.3-1.4 1.9.5.7.4 1-.2 1-.5 0-3-2.3-3.5-3.4l-.4-.8-1.2.6-1.2.6-.6-.6c-.5-.4-.8-1.2-1-2.2-.2-.9-.5-1.6-.7-1.6-.3 0-1.1.9-1.8 2-.2.4-.7.7-1 .7-.3 0-.5.2-.5.6 0 1-.4.9-2-.2-1.6-1-2.4-2-2.1-2.7.2-.5 0-1.2-.5-1.2-.2 0-.6.3-1 .7-.3.4-.8.7-1.2.7-.3 0-.6 0-.6.2 0 .3 3.3 3.6 4.4 4.3 1 .8.7 1.9-.5 1.4-2.3-1-3.4-1.8-4.8-3-.9-1-1.6-1.5-1.8-1.4-.3 0-1-.2-1.9-.6-1.2-.6-1.5-.6-2-.4-.4.3-.8.3-2 0a44 44 0 0 0-2.2-.4c-1-.2-1-.2-.5.4.5.8.6 1.5.1 1.7-.2 0 0 .2.4.4s.8.6.8.8c0 .7-4.2 1-5.7.4-2.2-.8-2.2-.2.1 1.4 1.7 1.2 2 2 .6 2-.5 0-.9 0-.9.2s2.1 1.3 2.6 1.3c.3 0 .7.7.5 1 0 .2-.4.2-.8.1-1-.1-.9.4 0 .7 3.1 1.1 3.4 1.2 6 1.2 4.1 0 5.3.5 3.9 2-.5.4-.9.6-1.7.6-.6 0-1.3.1-1.6.3-.5.4-.4.4.7.8 1 .3 2.2.3 5.5.1.6 0 1 .1 1.2.4.4.8-.7 1.5-2.1 1.5-1.3 0-2 .2-2 .6 0 .1 1.9.2 4.4 0 5.3 0 6.8.1 7 1 0 .5 0 .6-1.2.6-.6 0-1.2 0-1.3.2-.2.3 4 .6 6 .3 1.8-.2 2.7 0 3 .7.1.5-.5 1.1-1.1 1.1-.3 0-.3.2 0 .7.6 1.1.1 1.4-1.9 1.4l-3 .3c-2.4.5-2.4-.3 0-1.4l1.5-.7h-1l-1.2-.2c-.1-.2-1.5-.2-3.4 0l-3.5-.1c-.6-.5-.3-1 .7-1.5.8-.3 1-.5.9-.7h-1c-.6.3-1.5.3-3.6.1-3-.3-3.4-.5-3.4-1.9 0-.5-.2-.7-.8-1a6 6 0 0 0-1.7-.3c-1 0-3-1-3-1.4 0-.4 1.3-1 2.4-1 1.2 0 .8-.4-.6-.5l-2.2-.6-2.4-.8c-.9-.3-1.8-.7-2-1-.6-.6-.7-1.5-.2-2 .2-.3.2-.4-.1-.5-1.8-.7-5.1-2.7-6.2-3.8C0 28.6 0 28.5 0 26.9v-1.5h1c.8 0 1.8.3 3 1 2.3 1 3.7 1.3 3.8.5 0-.3.2-.7.4-.9.3-.4 1.7-.4 2.8 0 1.3.4 1.5.1.6-1-.5-.6-.8-1.3-.8-1.6.1-.4.3-.5 1.4-.6.8 0 1.7 0 2.1.3l3.1 1 3 1.2c1 .5 1.3.2.8-.7-1-2 .2-2.7 2.2-1.3 1 .7 2 .8 2 .2 0-.3 1.6-1 2.4-1 .5 0 .9.3 1.5 1.1 1.6 2.3 2.7 2.9 3.3 1.6.4-.7 1.8-2 2.3-2 .6 0 1 .7 1 1.6 0 1 .8 2.7 1.2 2.7a9 9 0 0 0 2-1.3c2.6-1.9 4.5-2.1 3.7-.4-.3.7-.3.7-.7.2-.3-.4-.4-.4-1 0-1 .5-1 .8-.4 1.2.4.2.7.3 1 0 .5-.2.6-.1.6.6 0 1 .6 1 1.7.2 2.1-1.8 2.7-1.6 2.8.8 0 1.7.1 1.8.8 1.7.4 0 1.5-.4 2.4-.8 1-.5 2-.9 2.3-.9.7 0 1.1 1 1 2.7-.1 2.9.3 3.5 1.7 2.2 1-1 1.6-.8 2 .8l.7 1.2 1.4-.5c.5-.3 1.2-.5 1.5-.5.5 0 1.1.8 1.6 2.4.5 1.4 2.3 3.3 3.4 3.5.4 0 .7.3.7.4l1 1.9c.7 1.2 1.2 1.7 2 2a7 7 0 0 1 2.2 1.8c1.2 1.4 1.7 1.5 1.7.4 0-1 .3-1 1.9-.4 1.5.6 2 .5 2-.8 0-.9 0-1 .5-1.1.4 0 .8.1 1.1.7.8 1 1.6 1.2 2 .4.3-.8 2-1.7 2.5-1.2.7.5 4 2.1 4.3 2.1.1 0 .2-.3 0-.8 0-.8.3-1.3 1-1.3.2 0 1 .7 1.8 1.4l1.8 1.4.7-.8c.1-.4.5-.7.8-.7.6 0 2.2 1.6 2.8 2.7.5 1 1 1 1.5 0 .8-1.3 1-1.1 2.4 1.4.6 1.2 1 1.7 1.5 1.7.4 0 .8.2 1 .4.4.3.8-.1.8-.8l.4-1 .6-1.3c0-.4.3-.4.8-.3l2 .3c1.4.1 1.4 0 1.7-.7.2-.6.2-.8 0-1l-1.9-2.6c-1.2-1.8-1.5-2.5-1.5-3.3 0-1 0-1.1 1-1.4.9-.2 1.8 0 8.5 1.5 1.5.3 2.2.2 3.5-.6.8-.5.9-.7.7-1.4 0-.5 0-1.5.2-2.2l.2-2.6c0-.7.2-1.6.4-2 .4-.8.5-.8 1.3-.7.5 0 1.5.5 2.4 1 1.1.6 1.7 1.2 2.4 2.4 2 3.2 5.1 5.5 7.6 5.5.3 0 1 .3 1.6.7l1.9 1c.5.2 1.3 1 2 2l2 2.5c.7.7 1 1.1 1.1 2.8.2 1.2.3 3.2.2 4.5v2.4l.6-.1 3-.6c2-.4 2.2-.4 3.8 0 1.2.3 2 .6 2.4 1.1 1 1.2.8 1.6-.3.7-1.7-1.5-5.4-1.7-8.8-.4-1 .3-1.2.6-2 2.2-.8 1.9-1.4 2.4-1.7 1.7zM55.7 35c0-.1 0-.2-.2-.2s-.3 0-.3.2.1.3.3.3c.1 0 .3-.1.3-.3zm-30-6.5c-.2-.4-.2-.4-.7-.2-.7.2-.6.5.2.5.4 0 .5-.1.5-.3zm-2.2-3.8c0-.2-.6-.5-1.1-.5-.4 0-.3.5.2.6.8.2.9.2.9 0zm49 36.5-3.2-.2c-1.3 0-1.9-.2-2-.4-.2-.6.1-.8 1.9-1.3l1.6-.5 1.7.6c2 .7 2.5 1.1 2 1.7-.3.4-.3.4-2 .1zm58 0c-.2 0-.4-.2-.4-.5 0-.5.3-.6 1.7-.9 1-.1.7-2-.4-2-.3 0-.4.1-.3.6.2 1-.5 1.5-2.2 1.7l-1.6.1-.6-.9a9 9 0 0 0-1.2-1.5c-1.3-1.2-.7-2.4.7-1.4.6.5 1 .6 3.5.5 2.8 0 3 0 3.5.5.3.4.6 1.1.7 1.6 0 .6.2 1.2.3 1.4.1.4-.2.5-1.5.7l-2.2.2zm-.8-2.7c1-.4.8-.7-.5-.6-1.5.1-1.5.1-1.5.5 0 .5 1 .6 2 .1zM98 60.3a6 6 0 0 0-1-.8c-2-1-3-3.2-1.6-3.4.6 0 1.4.6 2.7 2.5 1 1.4 1 2.7 0 1.7zM246.5 58c0-1.4.1-2.6.3-2.7.2-.1.3.4.3 2.5s0 2.7-.3 2.7c-.2 0-.3-1-.3-2.5zM60.7 59.4c-1.3-.7-1.8-1.2-1.8-1.9 0-1 1-.8 2.4.5.6.6 1 1.2 1 1.4-.2.4-.8.4-1.6 0zm205.4-.1c0-.2.1-.3.3-.4.1-.1.2 0 .2.2s0 .4-.2.4-.3 0-.3-.2zm-192.3-1c-2.4-.8-3.3-1.6-3.2-2.6.2-.9 1.1-.8 2.9.3 2.5 1.5 3.3 2.3 2.9 2.7-.3.2-1 0-2.6-.5zm42.5.4c-.4 0-1.4-.8-2.2-1.6-1.7-1.6-1.9-2.4-.6-2.6.6 0 1 .2 1.8 1l1 1 .3-.8c.2-.6.4-.7 1.1-.5.5 0 1 .3 1.2.4.3.2.6.2 1 0 .6-.4.8-.4 1.5 0 .6.4.8.4 1 0l.7-.3c.6 0 .5.8 0 1-.3 0-.6.3-.7.5-.2.2-.6.4-1.1.4-.5 0-1 .1-1.2.4-.1.3-.8.7-1.4.8l-1.4.5c-.2 0-.6 0-1-.2zM266 54.8c-.1-5.4 0-6.8.4-6.3.2.1.3 8 .2 9.1-.3 1.9-.5.7-.6-2.8zM97.5 56.5c-2-1.8-2.3-3-.7-3 .7 0 1 .2 1.8 1.6 1.8 2.8 1.3 3.4-1 1.4zm-35 0c-1.2-.7-2-1.5-2-2.1.2-1 1-.8 2.1.4 1.5 1.6 1.4 2.5-.1 1.7zm25-.8-.5-1c0-.2-.2 0-.3.3-.1.3-.4.6-.5.6-.3 0-1.5-1.2-2-2.2L83 52l-1-1.6c0-.5 0-.6 1-1 1.2-.5 1.6-.3 2.1 1.4.9 2.6 1.4 3.6 2 3.4.2-.1.6.1 1 .8 1 1.5.5 2-.6.8zm-14-.7c-1.6-1.2-2-1.8-1.1-2.3.6-.4 1.5.2 2.7 1.5 2 2 1 2.5-1.6.8zm6.7-1.9c-1.4-1.4-1.7-1.8-1.7-2.5 0-1 .6-1.3 1.7-1 .8.2 2 1.6 2 2.3l.4 1.3c.4.6.4.9.1 1.2l-.5.4-2-1.7zm-15.6 1.2c-.1-.3.3-.7.5-.4.3.2.2.6 0 .6l-.5-.2zm12.9-1c-1-.4-2-.6-2.2-.6l-1-.5c-.6-.5-.6-.5-.2-1 .6-.5 1.3-.4 3.2.6 1.6.8 2.3 1.3 2.3 1.8s0 .5-2.1-.3zm212.7-.5c0-.3 0-.4.2-.2v.5c-.2.1-.2 0-.2-.3zm-226.3-.6c-.4-.4-.2-.9.3-.9.4 0 .6.2.5.5 0 .5-.5.7-.8.4zm206.9-2.5a8 8 0 0 1 0-2.4c.2-.1.3.8.3 2.2v2.4l-.3-2.2zm-146 1.3c-.6-.3-.7-1-.1-1.2.2 0 .3-.3.2-.7-.2-.8.5-1.2 1.1-.7.5.4.5 1.3 0 1.3-.2 0-.3.3-.3.7 0 .8-.3 1-1 .6zm165.5.1v-.5c.2-.2.5.1.4.5-.1.3-.2.3-.4 0zM116 50.5c-.4-.3-.7-.7-.7-.9 0-.2-.4-.7-.8-1.2l-2.4-2.6c-2.6-2.9-2-3.5 1.8-1.6 2 1 2.2 1.2 2.3 2 .1.6.5 1.3.8 1.7 1 1 1.2 2 .8 2.6-.5.7-1 .7-1.8 0zm130.8-.1c0-.2.1-.4.3-.3.1.1.2.3 0 .5-.2.3-.3.3-.3-.2zm-194.2-.7c-1.3-1.2.3-2.1 1.7-1 .5.5.7.8.6 1.1-.3.7-1.7.6-2.3 0zm79-.9c-.6-.7-1.3-1.2-1.7-1.3-.5 0-1.2-.6-1.7-1-.8-.8-1.2-1-2-1-.9 0-2.4-.6-2.4-1 0-.5 1.3-.9 2.4-.8 1.8.3 4 .8 4.7 1.1 1 .6 2.6 2.2 2.8 3 .2.8-.2 2-.7 2.2-.3 0-.9-.5-1.4-1.2zm-67-.7c-.5-.3-.5-1.2 0-1.5.6-.1 1.2.6 1.2 1.3 0 .6-.4.6-1.1.2zm182.2-1-.2-3.5c0-1.3 0-2.4.2-2.5.3-.2.3-.6.4 3.7.1 2.5 0 3.6-.1 3.6-.2 0-.3-.5-.3-1.2zm19.5.6V47c.3-.3.3-.3.3.2 0 .6-.1.7-.3.4zm-205-3.9c-.9-1.1-1-1.5-1-2.4 0-.9.2-1 .7-1.1.7-.1.9.2 1.5 2.6s.3 2.7-1.1 1zm-11.4.8c-1.4-.4-1.7-.8-1.3-1.3.5-.6 1.1-.5 2.2.4 1.4 1.2 1 1.5-1 1zm2-2.7c-1.9-1.3-2.2-1.6-1.7-2.5.5-1 1.5-.6 2.8 1 1.2 1.7 1.7 2.7 1.1 2.7-.2 0-1.1-.5-2.1-1.2zm35.3.1-.2-7.5c-.2-11.3-.2-19.4.2-19.7.2-.3.3 1.5.3 7.7 0 4.4 0 10 .2 12.3.2 4.7.2 7.3-.2 7.3l-.3-.1zm-60.6-.7c-.6-.6-.6-1 0-1.3.8-.4 1.8-.4 2.8.1 1.1.5 1.2 1.2.2 1.3l-1.6.3c-.7.1-1 0-1.4-.4zm8.8-3.2c-2-.1-2.7-.5-2.7-1.7 0-1 1-1 2.6-.2l2.3 1c1 .3 1.1 1 .3 1h-2.5zm235.2-1c-.3-1.5-.3-2.3 0-2 .2.2.3 1 .2 1.7v1.4zm-232.3-.9c-2.8-.3-4.7-1.4-4.5-2.5.2-.7 1.2-.8 2.5-.2a209.3 209.3 0 0 0 3.8 1.7c.6.2.7 1.3.3 1.3l-2.1-.3zm43.3 0v-1.3l-.1-7.7a152.5 152.5 0 0 1 1-27.2 511.4 511.4 0 0 0-.2 21.3c0 10.9 0 15-.3 15.1-.1 0-.3 0-.4-.3zm-41.6-2c-1.2-.4-2.4-1.6-3.2-3.3-.4-.9-.4-1 0-1.3.5-.4 1.5 0 2.6 1 1.2 1.2 2.9 3.3 2.9 3.8 0 .4-1 .3-2.3-.2zm-20.5-.4c-2.2-.7-3-1.7-1.8-2.3.4-.3.9-.2 2.5.6 2 1 2.6 1.6 2 2-.6.4-1 .3-2.7-.3zm251-2.2V31a7 7 0 0 1 0 1.6v-.9zM22 31l-2.2-1.7c-1-1.1-.2-2 1.3-1.2.9.4 3.1 3.1 3 3.6-.2.5-.4.4-2.1-.7zm248.2-4.7c-.2-.3-.2-1.4.1-1.6.2 0 .3.3.3.8 0 1 0 1-.4.8zm0-5.3.2-3.9c0-.4.2-.7.3-.6.2 0 .3.3.3.7-.3 5.1-.5 6.9-.7 6.9-.2 0-.2-1.2-.1-3.1zm-4.1.3c-.3-.2 0-3.7.3-4 .1-.1.2.4.2 1.5 0 1.7-.2 2.8-.5 2.5z"/>
</svg>
