<?xml version="1.0" encoding="utf-8"?>
<svg xmlns="http://www.w3.org/2000/svg" xmlns:svg="http://www.w3.org/2000/svg" version="1.1" viewBox="0 0 223 148">
	<title>Pigling Bland holds up his papers while standing by the horse’s legs. Pig-wig watches on, looking worried.</title>
	<path d="m124.7 147.2-2-.7-.3-1-.4-1.8c0-1.2-1.5-3.5-3.8-5.9a14.9 14.9 0 0 1-2.3-2.7l.3-1.6.3-1.1-.6-.7c-.9-1-1.8-1.3-2.7-1-.6 0-.8.3-1 1.2a6.2 6.2 0 0 0-.2 3.4c.2 1 .2 1.3-.3 1.8-.4.3-.8 1-1 1.6-.4 1.2-1.3 1.4-1.6.4v-1c0-.2 0-.7-.3-1.3-.5-1.2-.2-2.8.7-4.2.5-.7.8-1.5.8-1.8 0-.9-.8-2.3-1.6-2.7-1.2-.6-1.8-1.4-1.8-2.3 0-1.2.6-2.2 1.7-3.2l1-.8-.6-1.6-.6-1.6h-6.8a97.2 97.2 0 0 1-9.7 0l-.6.3-1.2-1c-.7-.5-1.2-1.1-1.2-1.3 0-.2-.2-.4-.4-.5-.7-.2-.4-.9.6-1.7l1-.9 1-1.2c1.7-1.8 1.9-2 2.2-2.6.3-.8 3-3.2 3.9-3.5.4-.2 1-1 1.8-2.1.9-1.6 1-2 1-2.8-.6-2.8-.8-6-.5-9 .2-2 .2-4.4.1-6.3l-.3-5.6c0-1.7-.2-2.8-.5-3a10 10 0 0 1-.8-2.8A45.6 45.6 0 0 0 93.5 62l-.8-1.2V59l.4-5.3a66.4 66.4 0 0 0-3.1-21 76.1 76.1 0 0 1-3.5-12.4c-.1-2-.6-2.4-1.3-1-.6.8-1 2.2-1.3 5.2l-1 4.6c-1 3.7-1 5.8-.9 11l.3 4.8s.2.1.4 0c.5-.1 2.2.4 2.2.7 0 .1-.5.2-1.1.2-.8 0-1.2.2-1.4.4l-.1 5.3-.3 8.8-.3 4 .4.5c.3.4.4 1.5.3 7.5 0 3.8-.1 7.2-.2 7.4-.1 1 .9 8.6 1.8 13.6.2 1.2.4 3.7.4 5.6 0 1.9 0 3.8.2 4.3.1.7 0 .9-.6 1.1l-.7.4.2.9c.2 1.1-.7 4-1.6 5.1-.3.4-1.3 1-2.4 1.5l-1.8.7-.1.8c0 .4 0 .8.2 1 .2 0 .3.5.3 1 0 .4.3 1.5.8 2.5l.8 1.8-.2 1.6-.2 3.1-.1 1.6H81l-.4.4c-.7.6-2.3.8-2.9.2-.3-.2-.6-.3-.8-.2-.6.3-3.7 1-4.6 1l-12-.5-1.7-.3a18 18 0 0 0-2-.6c-1.1-.3-1.5-.6-2.3-1.7-1-1.2-1.2-2-.7-2 .4 0 2.5-1.8 3.5-2.8l1.5-1.6 1.7-2.3c1.4-2 1.5-2.2 2.7-2.6 1.2-.4 4.6-3.7 4.6-4.4 0-.2.2-.4.4-.4.6 0 .5-.4 0-.7l-.5-.3.4-.5c.3-.3.6-1.4.8-3.1.1-1.5.4-3.1.5-3.6.2-.5.3-1.4.3-2l.4-2.7c.3-1.2.4-2.5.3-5.1l-.1-6.3c0-1.5-.2-3.7-.5-4.7l-.4-3.2c0-2.2-1.9-9.8-2.9-11.4-.6-1-1.5-3.7-1.8-4.9 0-.4-.2-.7-.3-.8-.5-.3-.3-2.4.4-4.7.8-2.7 1-7.7.3-10.8-.5-2.5-2-6.3-3.8-9.6a38 38 0 0 1-2.2-5.5 46 46 0 0 0-1.4-3.8c-.2-.6-.4-1.6-.4-2.3 0-.7-.2-1.6-.4-1.9-.3-.4-.5-1.8-.6-5.5l-.1-4.8-.8-1.7-.8-2.3-.2-.8-.6-1.2c-.2-.5-.6-1.2-.9-1.5-.5-.6-.5-.7-.1-1 .7-.4 1.2 0 2.2 2l1.4 2.4c.4.4 1 0 1.3-.6.2-.5.3-.1.5 1.4 0 1.4 0 2.2-.2 2.6-.2.4-.2 1.5-.1 3.7.3 5.9 1.7 10.9 3.4 12.1l.4.8c0 .3.7 2.1 1.5 4 .8 2 1.6 4.4 1.8 5.4a78.1 78.1 0 0 0 2.6 8.6c0 .6-1-.8-1.1-1.4 0-.4 0-.5-.2 0 0 .2 0 .6.2 1 .2.3.4 1.7.5 3 .1 3.3.1 3.3-.2 6-.5 3.5-.5 8.3 0 9.4.3.4.5 1 .5 1.3 0 .4.3.8.8 1.1.8.5 1.3 1.1 2.9 4 .3.6.7 1 .8 1l.5 1.2c.2.9.4 1.2.7 1 .2 0 .4 0 .5.2.2.3 2 9.8 2.7 13.5.7 4.5.8 5 .9 2.7a86.3 86.3 0 0 0-1.8-16.6c.3-.4.5 0 1 2.3.6 2.7 1.2 8.7 1.6 16.3l.5 7.3c.2 1.5 0 2.7-.3 2.1l-.5-3.4c-.2-2.4-.4-3.2-.7-3.5-.2-.1-.5-.6-.5-.9a85.5 85.5 0 0 0-.9-5.6 82 82 0 0 0-1.7-9.8c-.4-2.6-.8-4-1.1-3.8a144.7 144.7 0 0 1 1.6 11.8c0 .4-.1.7-.3.8-.2 0-.3-.5-.4-1.3-.1-.8-.7-2.9-1.2-4.6l-1.7-5.6c-.5-2.3-1.2-4-1.3-3 0 1 0 2 .5 2.9l.7 3.4.8 5a52.4 52.4 0 0 1 .4 14c-.3 1-.5 1.8-.4 2 .1.1 0 .5 0 .8-1 2-1.1 3.6-.5 5.2l.4 1.1-.4 1a3 3 0 0 0-.3 1.9c.1.6 0 1-.7 2a9.4 9.4 0 0 1-4 3.5c-1.7.8-2.3 1.7-2.3 3.2 0 .8-.6.5-1-.4l-.2-.8-1 1.8a25 25 0 0 1-2.9 3.6l-1.7 1.8.3 1.2.3 1.2 1.5.1c2.1.3 6.6.3 7.7 0 1.4-.3 5.8-.4 7.5-.1 2.6.4 4.8-1.5 4.4-3.8-.3-2-.4-2.2-1.3-3.2l-1-1-.4.7c-.6.7-.6.7-1-1.3-.6-2.2-.5-2.7 1-4.6l1.4-1.8 1.2.1 1.2.2.8-.8c.6-.6.6-.8.3-.9-.7-.2-.5-1.2.4-2.4l1-1.2c.2 0 .3-.2.3-.4l.4-1.3.5-1-.3-2a34 34 0 0 0-2-6.5l-1-1.6c-.9-1-.9-1.6 0-1 .6.4.9.4.7 0l-.6-1.7c-.7-3 .7-1.3 1.6 2l.7 1.7c.1.1.3.4.3.7 0 .3 0 .6.2.7.4.2 0-1.6-.6-3.1-.2-.7-.8-2.3-1.1-3.7l-.7-2.4v-6.6a282.5 282.5 0 0 1 .1-12.1c0 .4-.3.7-.5.7-.3 0-.3-.2-.2-.8.5-3 .7-4.9.8-7.6 0-1.7.2-3.2.4-3.4a878 878 0 0 0 0-12s-.2 0-.4.3c-.3.2-.4-.4-.6-3.9l-.2-4-.5-.3c-.4-.3-.5-.6-.5-1.8 0-.7-.1-3.2-.4-5.4-.2-2.2-.3-4.2-.2-4.4.3-1 .7 0 1.3 3.4.1.6.3 1 .6 1.1.3 0 .6.5.7 1l.2 1 .3-1.7c.2-1 .5-1.8.8-2 .3-.2.5-1 .7-2.2.2-2 0-4.1-.3-3.6-.4.7-.6 0-.5-1.6.4-3.7-.4-8.2-2-11-1-1.8-1-2-.5-2 .6 0 .5-.6-.3-2.9-.7-2.2-.8-2.9-.3-2.9.2 0 .5.6.7 1.3l.7 2 .3.9-.1-2c0-1.2 0-1.9.2-2 .5-.3.6 0 .8 2.2a9 9 0 0 0 1.1 4c1.6 3 2.5 7.5 1.6 8.3-.4.5-.5 2 0 2 .7 0 2.2-2.2 2.5-3.6.5-2 .4-4.8 0-5.7-.6-1-.5-1.3.2-1.7.7-.3.9-.3 1.6 1.2.4.8.4 1.3.3 3.6l-.2 2.6.4-.3c.3-.2.6-.7.9-1.2.5-1 1-1 .7 0-.2 1-.1 1 1.2.4.5-.3 1.5-.6 2.2-.7.7-.1 1.3-.3 1.3-.4l-1.4-2.3c-1.3-1.9-2-2.8-5.2-6.6-1.2-1.4-1.3-2.1-.4-2 .8 0 2 1.4 4.8 5.6 2.4 3.4 2.6 3.6 3.4 3.7h.8l-.2-.7c-.2-.4-.7-1.3-1.3-2A26.1 26.1 0 0 1 92 1.5c0-.6.4-.8 1.2-.6.3 0 .9.6 1.4 1.5 1.2 2.1 1.5 2.2 1.3.4-.2-1.7.2-2.3 1-1.8.4.2.6.8.9 2.3.2 1.3.3 2 0 2.2l-.4 1c-.2 1 .4 2 2.2 3.7 1.7 1.6 2.1 2 2.4 2 .5 0 .3-.5-.5-1.3-.7-.6-.8-1-.7-1.5l-.1-2.2c-.1-.9-.2-2.7 0-4 0-2 .2-2.5.5-2.5.6 0 .8.6.8 1.6s1 4.3 1.6 5.5c.7 1.4 2.8 3.8 3.7 4.1 1.1.5 3.4.8 7.7 1 2.5.1 4.6.4 5.4.7l3.2.7a74 74 0 0 0 11.6 1.5c2 0 2.7.2 3.1.6.4.4.9.5 1.9.5a91 91 0 0 0 8.1-.7c2-.3-.1-.6-4-.5l-4 .1 2.9-.2 6.9-.6c3.9-.2 6.3-.8 6.8-1.4.2-.2 1.1-.7 2.1-1 2.2-.8 2.6-1.4 1.2-1.8-1.4-.5-.6-.6 1.8-.1 2.7.5 4.5 1.2 4 1.4l-2.4.4c-1.2.1-2.7.5-3.3.8l-1.3.5.8.1 4.2-.7c3-.7 3.8-.8 5.5-.7l2 .1-.8-.3c-.4-.2-1.1-.4-1.5-.4-1 0-4-.9-4-1.1 0-.1.5-.3 1-.3 1.2-.2 1.2-.2 5-.3 1.5 0 2.9-.2 3-.3.2 0 .2-.4.1-.6 0-.4.1-.6.7-.9 1.7-.6 1.7-.6-7.5-2.4a854 854 0 0 1-9.1-1.7c-4.4-1-7.2-1.4-12.3-2.2-5-.8-7.8-1.4-7.5-1.7a72.7 72.7 0 0 1 16.7.7l6 1.1a318.5 318.5 0 0 1 27 5.3l5 1a96 96 0 0 1 14.2 3.6c2.2 1 2.4 1 3 .4l.5-.4 1.5.4 2.2.6c.3 0 .7.4.8.6.4.7-.2.8-1.8.3-1-.3-1.4-.3-1.6 0-.4.3.6.7 2.1 1l1.7.2.7.2-.2-1.2c-.1-1.4.2-2 1-1.6.3.2.4.6.4 2.7 0 1.4 0 2.7.2 2.8v1c-.4.6-.2 1 .6 1 .3 0 .8-.3 1-.7.3-.4.6-.7.8-.7.4 0 .5-.4.9-3.6l.1-1.3-1.4-.5c-.7-.2-1.6-.7-2-1a5 5 0 0 0-2.2-1l-6.2-1.4a248.8 248.8 0 0 0-13.4-3A358.5 358.5 0 0 1 170 1.5c-1.8-.3-1.7-1.6.2-1.5 1.3 0 3.5.3 4.1.5l.6.2-.7.2-.7.1.7.2 3.2.6c1.4.2 3 .6 3.5.9.6.3 2.7.7 4.7 1a121.7 121.7 0 0 1 8.8 1.7 85 85 0 0 1 10.1 2.4l4.6 1.1 4.6 1.1c.6.4-.2-2.3-1.6-5l-1.3-3c0-.2.6-.6 1.2-1l1-.7 1.3.3 1.9.3c.4 0 .9 0 1.1.2.4.2.3.3-.2.4-1 .3-.8 1.5 1 5.1.2.5 1.4 2 2.5 3.2l2 2.3v3.5l-.2 3.5-.9 1c-1.3 1.5-3.3 2.3-5.9 2.2-2.3 0-3-.4-5.3-2.3l-1-1h-4.6c-2.5 0-4.6 0-4.5.1l1.7 3.5c1.2 2.4 1.8 3.3 2 3.2.7-.2 1.4 1.8 1.8 4.8a25.2 25.2 0 0 0 4.6 13c.9 1 2.2 3.3 2.7 4.6.3 1 1.7 3 2.9 4.4 1.5 1.6 2.7 3.8 2.7 4.9 0 .8-.3.6-1-.8-.9-1.4-1.8-1.9-1.5-.8a55.6 55.6 0 0 1 .8 8l-.4.4.4 1.1c.6 1.7 2 8.5 1.8 9l-.5.2c-.3 0-.4.3-.5 2a50.3 50.3 0 0 1-4.8 22.3c0 .4-.6 1.7-1.1 2.9a21.3 21.3 0 0 0-2.5 7.9c0 .2-.1.8-.4 1.2-.3.5-.8 1.8-1 2.8l-.4 2-2.1 2a14.5 14.5 0 0 1-2.4 2.2l-2 .8-1.9.8a35.5 35.5 0 0 1-7 7.6c-1.1.7-1.1.8-.6 1.8l.4 1.3c0 .8.7 1.7 1.6 2 1.1.5 14.6.8 17.5.5.6 0 1.2-.3 1.5-.6.3-.2.7-.4 1-.4.6 0 1.3-1 1.7-2.4l.3-1.3-.6-1a13 13 0 0 1-2.6-5.2l.1-.8 1.9-1 2.6-1.3c.4-.2.9-.7 1.1-1.2.2-.5.8-1.1 1.3-1.4.8-.5 2.3-3 2.7-4.6 0-.4.3-.7.5-.7.4 0 .4.2.3 1.5l-.2 5.2c0 3 0 3.6-.4 3.8-.5.1-2 3.4-2 4 .2.6.6.4 1.2-.7.9-1.5 1.2-1.4 1.2.2v1.3l-1 .7c-1.4.8-2.5.8-3 0-.3-.3-.5-.7-.5-1 0-.7-2.3-3.6-2.6-3.2-.4.4.3 3.9 1 4.7.3.4.6 1 .6 1.6v1h1.5c1 0 1.6-.2 1.7-.4.1-.4 2.4-.4 2.5 0 0 .2-.2.3-.7.3-.5 0-.8.1-.8.4 0 .2-.3.5-.7.6-.4 0-1.2.5-1.8.9-.6.4-1.4.8-1.9.9-.4 0-1.3.4-2 .8a70 70 0 0 1-19.6 1.8l-1.8-.5c-.4 0-1-.4-1.5-.8-.4-.3-1.2-.6-1.7-.7-.8 0-.9-.2-1-.9 0-.4-.4-1-.7-1.5-.4-.4-.6-1-.6-1.2 0-.3 1-1.4 2.5-2.5 2.3-2 3-2.8 2-2.8l-.6-.6c-.5-1-1-1-4.1-.6a36 36 0 0 0-4.7.8c-.3 0-.4 0-.4-.3 0-.4-.2-.3-.5.2-.2.4-.5.7-.7.7-.5 0-.5-.3-.1-.7.2-.2.2-.4 0-.6-.3-.3-12.3-.7-16.6-.6-3 0-4.2 0-3.6-.5.3-.1 4.6-.2 11.3-.2 8.8 0 11 .1 11.6.4.8.5 4.3.3 5.3-.2.6-.4 2 0 2.8.6.8.7 2 .6 3-.2l.8-.7-.5-.3c-.6-.5-.3-1 .4-.7.7.4.7.4 1.2-.8.3-1 .6-1.2 2-1.9 1-.4 2.2-1.2 2.7-1.7.6-.5 1.3-1 1.7-1 1.7-.4 2.9-1.8 3-3.8l.4-1.6c.3-.5-.2-.9-.6-.5-.5.4-1 0-.7-.7 0-.5-.1-1.2-.6-2.3-.4-.9-1-3-1.3-4.7l-.8-3.6c-.2-.7.7-2.5 1.8-3.8l1.1-1.4 1.4-1.6c.6-.6 1.3-1.6 1.5-2l.7-1.1c.2-.2 3.7-5.4 4.2-6.4 1.3-2.3 1.6-3.2 1.5-3.7-.1-.4.1-1.4.5-2.5.8-2 1-5.2.4-7.7s-1-7.6-.9-9.9a7 7 0 0 0-.2-3.2l-.6-2.4c-.2-1.2-.3-1.6-1-2.1a9.5 9.5 0 0 1-1.6-2c-.4-.9-1.2-2-1.7-2.5-1-1.2-2-3.2-2.3-4.5a47.2 47.2 0 0 1-2.8-10.2c-.5-2.3-1-4.4-1.2-4.6l-.4-.6-1-1.8c-.6-1-1.6-2.7-2.2-4-1.7-3.2-1.7-3.3-4.4-3.5-1.3 0-4.2-.5-6.4-.8-3.9-.6-5.8-1-12.9-2.6l-3.7-.7c-.5 0-1.5-.2-2.3-.5l-1.5-.6-2.4.7c-1.4.3-4.1.8-6 1-2 .3-4.5.7-5.6 1-1.1.3-2.8.7-3.8.8l-3.3.5c-1.3.3-4.6.5-9 .6l-4.4-.7c-2-.4-4.4-.8-5.4-.8-1.1 0-4.5-.5-7.6-1-5.7-1-11.8-1.7-12.3-1.4l-.2 1c0 1.5-.5 11-.9 15-.5 6.1-.4 15.4.3 19.2l1 4.7c.4 1 .6 2 .6 3.1v3a38 38 0 0 0 .3 17.5l.3.8 1.2-1.4a9.2 9.2 0 0 0 2.2-4.7c0-.8 2-3.9 3.7-5.5 1-1 2-2.2 2.1-2.6l1-2 .6-1.5c0-.3.3-.8 2.4-3.9.5-.8 1.1-2 1.3-2.8l.5-1.5c.2-.1.3-.4.3-.6 0-1.8 1.8-4.2 4.2-5.8.6-.3 1.4-1 1.8-1.6 1.2-1.5 1.4-1.3 1.8 2.6.2 1.9 1.2 5.2 1.6 5.2.2 0 .7-.4 1.3-1 .5-.6 1.1-1 1.3-1 .2 0 .5-.3.7-.5.2-.2.6-.4 1-.4 1 0 1.2.6 1 2.6v1.5l1.2.3c.8.3 2 .3 4.4.2l3.2-.1 1-1 1-1h2.5l.3.8.2 3.3c0 1.4.1 2.6.3 2.8.1 0 .5 0 1-.5.4-.3 1.3-.9 2-1.2l1.2-.7-1.2-2.4-1.3-2.5.8-.6a3 3 0 0 1 1.3-.7c.2 0 .7-.2 1-.5 1-.8 4.2-2.2 4.5-2l.2.7c0 .3.3.6.6.8.6.3 1.7 2.2 2 3.3 0 .4.4 1.1.8 1.6l.6 1.1a48.2 48.2 0 0 0 3 8.5c1 3 .9 3.2-1.7 3.2-1.2 0-1.8-.1-1.7-.3l1.3-.2c1.7 0 1.9-.3 1.4-2a135 135 0 0 0-5.5-13.6c-.7-.7-1.5-.6-4.3.3l-2.3.4c-.4 0-.8.2-.8.3a44 44 0 0 0 2.8 5.7c.2.3.7.5 1 .5h.6v1.1c0 .7-.2 1.3-.5 1.6-.7.7-.8 1.4-.2 2.2.3.4.7 1.5 1 2.5.7 1.9 1.2 2.6 1.7 2 .4-.3 1.1-.3 1 0l-1.2.7c-1.1.6-1 .6-2-2.3-1-3-1.3-3.2-2.4-2.2-.5.4-1 1-1.1 1.4a95 95 0 0 1-1.5 5.5c0 1.3-3.5 6.4-4.8 6.8l-2.1 1.8-2.7 2.6-1 1v1.6c0 3.4.4 9.3.6 9.3l1-.5c1.4-.9 1.8-.9 2.8 0 1.4 1.2 1.7 2.2 1.7 5 0 2 0 2.4-.4 2.4-.3.1-.4.6-.5 1.8 0 1-.3 2.4-.5 3a75.8 75.8 0 0 0-2 13c-.3 1.8-.5 4.3-.5 6.5 0 2-.1 4.4-.3 5.5-.4 2.5-1 12.8-.7 13.5l.2.6h1.5c1 0 2-.2 2.9-.6 1.1-.4 1.5-.5 1.7-.2.5.5-.9 1.6-2.1 1.6-.5 0-1.6.3-2.4.5-2 .7-3.8.7-4.3.1-.4-.4-.4-.7-.2-1.6l.2-2.2v-1h-1.6l-2.7-.2-1-.2-.1.6c-.2.5-.4.6-1.2.6-1.4 0-1.7.3-1.2 1.2l.4 1.2c0 .2.3.7.7 1.2.8 1 .8 1.3.1 1.7-.7.3-1.7.3-3.6-.2a4.4 4.4 0 0 1-2.6-1.5c-1.7-1.9-3.1-1.9-1.7 0l.6.7-.6.5-1 .5c-.3 0-1 .1-1.5.4l-1 .3-2-.7zm3.5-1.3c0-.2-.1-.5-.4-.9l-.6-1.3a10 10 0 0 0-1-2c-.6-1-1-1.4-2.4-2.1-1-.5-2-1-2.3-1l-.6-.2.2.6c0 .3.6 1.2 1.1 1.8 1.3 1.5 1.6 2.2 1.6 3.1 0 .4.1 1 .3 1.1.4.7 3.7 1.4 4 .9zm7-.7-.3-.7c-.2-.4-.1-.7.2-1.3l.4-.9-3.3-3.2-3.3-3.2.1-.7c.2-.8 2-2.8 3-3.4 2-1.1 4.6-3 5.2-4 .5-.5 1-1.1 1.4-1.3.7-.4 1.2-1.2 2.7-4.1 1.4-2.9 1.5-4.6.4-6l-.7-1c0-.3-.3-.7-.6-1-1-.9-1-1.6 0-1.6.3 0 .7 0 .8.2 0 .2.4.3.8.3 1 0 2-1.4 3-3.9.8-2 1-3.3.7-4.3v-1c.3-.2.3-2.9 0-3.1-.3-.3-2.3-.2-3.2.1-.7.3-1 .5-1 1a6 6 0 0 1-.5 2c-.4.8-.4 1.2-.2 1.4.4.5 0 1.3-2 3.2a8 8 0 0 0-1.5 2c0 .2-.5 1-1 1.7-1 1.1-2.5 3.5-3.5 5.4-1 2-1.7 3.2-2.6 4.5l-1.4 2.5c-.5 1.1-.7 1.3-4.8 4a70.2 70.2 0 0 0-3.8 2.3c-.4 0-.4.1.2.4 1.3.6 3.3 1.2 4 1.2.9 0 .7.6-.3.8-.8.2-1.9 1.8-1.9 2.8 0 .3-.1.5-.4.5-.6 0-.3.7.4.8.3 0 .6.2.6.3 0 .2.1.3.3.3.1 0 .2-.2.1-.4 0-.3 0-.4.2-.4.3 0 .4.2.4.4 0 .3.2.4.9.3.7-.2 2.3.2 2.3.6 0 .1.6.6 1.3 1 .7.6 1.3 1 1.3 1.2 0 0 .2.2.5.2l1 .4c.2.3.8.6 1.3.8l.8.2v1.2c0 .7.2 1.2.4 1.4.4.2 1.6.3 1.6 0zm3.2-32.7c0-.1.2-.3.4-.3s.3.2.2.3c0 .1-.2.3-.4.3l-.2-.3zm7.7 29.3.4-5.2c.1-1.7 0-2.4-.1-2.3-.5.3-1 10.2-.6 10.2 0 0 .3-1.2.3-2.7zm-17.2 1.7c.2-.1-.5-1.1-.9-1.1l.1.7c.3.6.5.8.8.4zm3.1-.8c0-.2 0-.3-.2-.3s-.3.1-.3.3c0 .1.1.2.3.2.1 0 .2 0 .2-.2zm-1.7-.8c0-.2-.3-.3-.4-.3-.1 0-.3.1-.3.3 0 .1.2.2.5.2.2 0 .3 0 .2-.2zm8.3-1.3c.2-.4.8-.4 3.3-.4h3l.2-2.5c.3-3.3.5-5.5 1-8.3.3-1.2.7-4.4.9-7.1.2-2.8.5-5.2.6-5.5.2-.4.3-2.4.3-5.7l.1-8.4.2-3.3-.5.7-.5.7.3 2c.2 1.3.2 2-.1 3l-.7 3c-.4 2.4-1 4-2 5.7-.5 1-.7 1.8-.9 3.7a9 9 0 0 1-2 5.7c-.6.7-1.1 1.7-1.3 2.2a20 20 0 0 1-5.2 5.2c-.6 0-4 3.6-4 4.2 0 .6.2.9 2.5 3l1.7 1.9.8 1 1-.3c.5 0 1-.3 1.3-.5zm-1.6-.8c-.4 0-.7-.2-.7-.4s.3-.4.7-.6c1-.4 5-.6 5.8-.3 1.2.4.4.7-1.7.6-1.4-.1-2.1 0-2.4.2-.7.5-.9.6-1.7.5zm-10.5-.8c0-.3-.3-.6-.6-.4-.3.2 0 .6.3.6.2 0 .3 0 .3-.2zm-7-2-.3-.7 1-.9 1.3-1c.1 0 .2-.2.2-.5 0-.4-.2-.5-.8-.5l-1.7-.4c-1.3-.6-1.5-.5-1.5.5 0 1.2.7 3 1.4 3.8.7.7.9.6.5-.3zm-8.6-.9c.2-.7-.3-2.2-.6-2.1-.2 0-.5.4-.6.8-.2.6-.2.8.2 1.2.6.7.9.7 1 .1zm35.9-4.8c0-.9 0-1-.2-.7l-.2 1.9c0 1 0 1.2.2.6l.2-1.8zm-24.1 1.4h-.5c-.2 0-.2.1.1.2.3 0 .5-.1.4-.2zm67.4-.4-.4-.2c-.2 0-.2.1-.1.2 0 .2.3.3.4.3.1 0 .2-.1.1-.3zm-71.4-3.1c.2-.3-.3-.6-.7-.4-.3.2-.1.6.3.6.1 0 .3 0 .4-.2zm-3.9-1.2c0-1.3-.3-2-.6-1.2-.2.9-.2 2 0 2.2.4.4.6.1.6-1zm8.2-.3 2-1.2c1.2-.7 3.5-3.4 4.2-5a54.5 54.5 0 0 1 1.8-3.9c0-.3-1 1-1.5 2-.3.7-.5.8-.6.5-.1-.6.4-1.7 4.4-9.6l1.2-2.4h1.1c1 0 1.2-.1 2-1 1.8-2 1.2-2.1-1.2-.5-1.4.9-2 1-2 .7 0-.4 2-1.8 3.2-2.4 1-.5 1.3-.7 1.6-1.6.3-1.3.3-1.8-.1-2.2-.5-.4-1-.1-.8.4 0 .3 0 .6-.2.8-.2.2-.2.5-.2.6.3.4-.9 1.3-2.4 2-1.6.5-1.9.6-1.9.2 0-.2.3-.4.7-.5l1.6-.7.8-.4-1 .2-3.9.2c-2.9 0-3.6.2-1.6.6.6 0 1.1.2 1.2.3.1.3-.7.6-1.3.5-.2 0-.3.3-.4 1.1 0 .7-.2 1.4-.3 1.7-.3.6-1 2.7-1.3 4.3-.4 1.6-1 1.2-.7-.4 0-.7.4-2.2.7-3.2.8-3.1.6-4.5-.8-5.6-.5-.4-.6-.7-.5-1.4l.2-.8-1-1a9.4 9.4 0 0 1-1.5-1.8c-.5-1-.8-3-.4-3.7.4-.8.8-.4.8.8 0 1.8.7 3 2.8 4.7 1.4 1.1 3 1.7 4.8 1.8 1.7 0 2.2-.6.7-.8-1.6-.3-3-.7-3.7-1.2l-.5-.5.5-.2c.3-.1 1 0 1.6.4l1.8.6h.6l-.8-.5a10 10 0 0 0-1.7-.8 6.6 6.6 0 0 1-3.5-3 9 9 0 0 1-.5-3.8c0-2.1-.1-2.5-.3-1.9-.1.5-.2 1.7-.1 2.7.1 1.8-.1 2.8-.5 1.8-.2-.6-.2-4.7 0-6.6.3-1.7 1.4-4.9 1.7-4.9.3 0 1 2.3 1 3.3 0 1.2.4 1 .8-.3.2-.6.5-1.1.6-1.1.5 0 .5.7 0 2.4l-.6 2.3c0 .3 0 .6-.2.7-.4.2-.1 2 .4 3.1.2.4.7 1 1 1.2.7.4 1 .9.4.9s-2.4-1.5-2.8-2.3l-.3-.8v.8c0 .4.2 1.3.5 2 .9 2 1.9 2.4 5.9 2.6 1.7 0 3 .2 3 .3l-.5.7-.6.4 1.6-.1c.9 0 1.8-.2 2-.3.4-.2.5 0 .5.2 0 .3-.4.5-1.1.6l-1.2.2.8.2c.5 0 1.6 0 2.7-.4l2.8-.6c.8-.1 1-.2.9-.6-.2-.4.9-3 1.2-3 .3 0 1 .9 1 1.1 0 .2.3.3.7.3.4 0 1.2.2 1.8.5l1.1.5s0-.8-.3-1.5c-.6-2.5-1.9-3.1-3.7-2-.5.3-.8.3-1.8 0-.8-.1-1.5-.4-1.7-.5-1.7-1.2-2.3-1.2-2.5-.2-.2.9-1.4 2.4-1.7 2 0 0 .1-.7.4-1.3.5-.8.6-1.3.5-1.8-.2-.7-.7-1-.7-.4a13 13 0 0 1-2.8 4c-1 .4-1.3 0-.6-.9 1.1-1.2 2-2.8 2-3.4l-.5-4.1c-.6-3.6-1.1-5-1-2.6.1 1.8-.3 2-.6.2-.4-2.9-1.7-4.6-3.3-4.4-.2 0-.3.2-.3.4s-.3.7-.7 1.1l-.7 1s-.3.2-.8.2c-.6 0-.8-.1-.7-.6 0-1 1.5-2.4 3-3l1.2-.5.9.5c.7.4 1 .8 1.3 2 .3.9.6 1.4 1 1.5.4.1 1.3 1.8 1.3 2.6 0 .3.2.7.4.9l.7 1.5c.2.5.5 1 .7 1.1.3 0 .3 0 .2-.4-.2-.3-.3-1-.4-1.6 0-.7-.3-1.2-.6-1.4-.3-.1-.5-.7-.6-1.6-.2-1.5-1.4-4-2.8-5.8-2.4-3-4-4.2-5.2-3.9-.6.2-2.1-.8-4-2.5a9.1 9.1 0 0 0-3.2-1.8c-.2 0-.4-.2-.6-.5-.7-1.4 2.3-.4 4.2 1.3l1 .7a16 16 0 0 0-.7-4.4c-.2-.4-.9-1.2-1.5-1.7l-1.2-1h-1.3c-1.7.1-2.8.6-4.2 1.7l-1.1.8.6.5c.7.6.5 1.2-.5 1.4-1 .2-1 .5 0 .8.5.2.9.4.9.6 0 .3-1.4 2-4.7 5.3l-2 2.4-1.8 2c-1 1-1.7 2-1.7 2.2 0 .2-.3.7-.7 1.2-1.9 2.1-3 5.7-3.1 10.6 0 1.8-.3 3.7-.4 4.3-.9 3.4.8 12.5 2.9 16 .8 1.4 3.5 4.5 4 4.5.8 0 1-.5 1.1-2 0-.9.1-1.6.2-1.7.1-.5 1 2.2 1 3.1 0 .7.2 1.4.6 1.8l.5.7V120c0-.8-.3-2.2-.9-3.7-1.1-3.1-1.7-6-1.2-6.6.5-.6.7-.2 1 1.4 0 .9.5 2.6.9 4 1 2.9 1.2 5.6.7 6.4l-.4.6.4 1.6c.3.9.6 2.3.7 3.2l.2 1.5.5-.1 2-.4c.7-.1 2-.6 2.7-1l2.6-1.3 1.1-.4v.4c0 .2-.2.5-.5.6-.8.2-4 1.8-4.6 2.1l-.6.4 1.2-.2c.7 0 1.6-.4 2.1-.8zm-4.8-1.4c0-.7.2-1.3.2-1.3l-.1-.7c-.3-.7 0-1.2.7-1.2.4 0 3.8-2 6-3.8.8-.5 1.5-1 1.7-1 .4 0 2.2-3 3-5.2l1-2c.4 0 .3.7-.7 2.6l-.9 2.1c0 .3-5 7.8-5.3 8-.6.4-.5-.2.2-1.2 1-1.3 1.7-2.7 1.4-2.7l-.4.3-1.1.8c-.6.2-1.5.9-2.1 1.3l-2 1.5c-.4.4-.7.9-.7 1.2 0 .8-.6 2.6-.9 2.6v-1.3zm1.1-5.6c0-.5 1.3-1.4 3.5-2.3 1.7-.7 1.6-.7 1.6-.3 0 .1-.7.6-1.6 1-.8.4-2 1-2.5 1.4l-1 .7zm-6.7-5.7-.2-1.1c0-1 .5-.5.7.7.2.8-.2 1.2-.5.4zm11.5-.7.5-2.8c.6-2.8 1.5-5.6 1.9-5.6.5 0 .5.5 0 1.4-.3.6-.5 1.3-.5 1.6 0 .4.3.2.8-1 .4-.8.9-1.5 1-1.5.3 0 .2.7-.6 2.4-.5 1.1-1 2.7-1.4 4.3-.2 1-.8 1-.6 0v-.9c-.2 0-.4.5-.4 1.1-.1.6-.3 1-.5 1h-.2zm-5.5-1.6c-1.4-2.4-2.2-5-2.4-7.5-.1-2.4 0-3.8.4-3.8.1 0 .2 1.2.2 2.6 0 2.9.5 4.7 1.9 7.5 1 2 1 2 .7 2-.2 0-.5-.3-.8-.8zm2.4-1.3a14 14 0 0 1-2.8-7.5c-.5-3.7-.6-4.5-.2-4.8.5-.3.7.4.8 2.5 0 3.6 1.4 7.8 2.9 9.2.6.5.7 1.2.2 1.2-.2 0-.6-.3-1-.6zM132 106v-.6c.3-.2 1.5.2 1.5.6 0 .6-1.3.5-1.5 0zm-18.6 20c0-1.9-.2-2.4-.8-2.4h-.5v1.7c0 1.2.1 2 .4 2.5l.5.6.2-.5.2-2zm-3.7 1.4c0-.2-.2-.5-.5-.7-.3-.3-.6-.8-.6-1.2 0-.8.7-1.9 1.2-1.9l.9-.4 1.4-1c.5-.2.8-.6.8-1 0-.7-.3-.6-1.3.4-.5.6-1.3 1.1-1.7 1.3a3 3 0 0 0-2 2.4l-.1 1 .7.6c.8.7 1.2.8 1.2.5zm110-2.8c.1-.8.7-2 1.1-2.5 1.2-1.6 1-2.5-.4-1.5-.3.2-.8.3-1.4.2-.6-.1-1 0-1.3.2l-1 .6c-.7.2-.5 1.7.3 2.4.4.3.9.9 1 1.4.6 1.2 1.1.9 1.6-.8zm-122.2-7.3c0-.2-.3-.3-.6-.3-.4 0-.7.1-.8.3-.1.1.1.2.6.2s.8 0 .8-.2zm2.7 0c.3-.2 0-.3-.8-.3-.6 0-1 .1-1 .3 0 .3 1.3.3 1.8 0zm-5.7-.2h-.5c-.2 0-.1.1.2.1h.3zM132 116c0-.1-.3 0-.5.5l-.3.7.4-.4c.3-.2.4-.6.4-.8zm-25.6-.4-.7-1.9-.7-1.6-1.5-.8-2.5-1c-1.2-.5-1.3-.7-1-1.5.4-.9.7-.9 2.2 0 1.6.9 1.8 1 2 .8l-.4-2.8a41 41 0 0 1 .7-14.6l.6-3.6c.3-2.2 1.4-4.5 3.1-6.8 1.2-1.6 1.3-2 .5-4.4-.8-2.6-1.2-9.3-.6-13 .2-1.5.5-4 .5-5.5l.2-2.8-.8-1.7c-.4-1-1-2.5-1.1-3.4-.3-1-.5-1.6-.7-1.6-.3 0-.3-.2-.3-.5a70.4 70.4 0 0 0 .5-9.8c-.2-.4-.3-1.1 0-2.7l.2-3.7c0-1 0-3.6.3-5.8.4-5.8.4-7.5-.3-11.2l-.3-1.5h-1.5l-2.2-.2c-.3-.2-1.5-.2-2.7 0-1.5.2-2.3.1-2.6 0-.7-.5-3.4-.4-4.5 0l-1.7 1c-.5.4-1.3.9-2 1.2-1.2.5-1.3.7-1 2.2a554 554 0 0 1 1.6 8.3c0 1.7 1 4.7 1.9 5.5.2.2.5 1 .6 1.6 0 .6.5 2 1 3.1 1.4 3 2.6 7 2.6 8.6 0 1-.5.1-.8-1.3-.2-.8-.5-1.7-.8-2l-.5-.6v.6a52.4 52.4 0 0 1 .8 13.3v3.4l.8 1.6a9 9 0 0 1 .7 2.2c0 .6.7 1.9 1.5 2.8.5.5.7 1.3 1 3.3.1 1.5.4 3 .6 3.5a54.7 54.7 0 0 1 2 19.4l.5-.5.3-.4.2.4c.3.5 0 2.3-.4 3-.4.7-.5 2.2-.2 2.4.2 0 .2 1 0 1.9-.2 2.8-.2 3.5.2 3.5s.7.6.7 1.1c0 .1-.2.2-.5.2s-.6.1-.6.3c0 .1.3.3.6.3.3.1.5.3.5.5 0 .1-.2.3-.5.3-.6 0-.7 0-.3.8.4.7.1 1-.4.5-.4-.3-.5-.3-.6 0l-1.6 1c-.8.3-1.5.9-1.7 1.3l-.5.6c-.1 0-.4.4-.6 1-.4.8-1.9 2.2-2.5 2.2-.4 0-1 .8-1.3 1.7-.2.7-.2.9.3 1.2 1 .7 2.8 1 8.4 1 4.1 0 5.3-.1 5.3-.4zm-.1-33c-.2-.3-.5-2.5-1.1-7.2l-.6-3.5c-.1-.4 0-.6.3-.6.2 0 .4.2.4.3 0 .2 0 .3.2.2l.2-1.4c0-2.2.5-1.4.7 1.2l.5 5.4c.2 1.9.2 3 0 3.2-.1.1-.2.7-.1 1.2.1.9-.2 1.6-.5 1.1zm-6.5-25c-.7-.8-.2-6.6.5-6.6.3 0 .3 6.5 0 6.7-.1 0-.3 0-.5-.2zm1.7-10a9 9 0 0 1-1.5-.7l-.6-.3v-5.8c0-5.5.1-6.6.7-4.8.1.5.3 2.7.3 5v4.2l.8.6c1 1 1.4.6 1.2-.9l-.5-2c-.7-1.8 0-2.3.8-.7.8 1.6 1 3.6.8 4.8-.4 1.1-.5 1.2-2 .7zM96 32.8l-.7-2.3-1.8-5.7c-.3-.5-.3.4.2 2.2.6 2.4.6 2.3.2 2.2-.3-.1-.8-1.9-1.7-6.4-.5-2.4-.3-4.4.3-4.4.2 0 .4.2.4.3v.8c.2 1.2.6 3 1.5 5.8a203.5 203.5 0 0 1 2.2 7.4c0 .3-.5.3-.6 0zm-.2-3.8-.5-2.7c-.8-4-1-4.6-.6-4.3l.7 2.4.6 3.1c.2.7.2 1.2 0 1.3l-.2.2zm39.5 82 .4-1.2v-.5l-.6.8c-.7.8-.9 1.4-.4 1.4 0 0 .4-.2.6-.5zm72.7-2.3 1-3.6c1.2-3 2-5.4 2.4-7.2l1.6-5.4a79 79 0 0 0 2.4-9.4c0-.2-1 1-1 1.3l-1 1.4a53.2 53.2 0 0 1-7.2 10.6 8 8 0 0 0-2.2 4.7c0 1.8 3 9.1 3.7 8.7.1 0 .3-.6.3-1.1zM134 103c.3-.2-.2-.3-1.6-.3-1.9 0-3.2-.2-4.3-.6-.3-.2-.5-.1-.5 0 0 .9 5.3 1.6 6.4.9zm16.1-1.8c0-.4-.2-1-.4-1.3l-.4-.5.1.7.2 1.8c0 1 0 1 .3.7l.2-1.4zm-14.5 0c0-.2-.2-.3-.4-.3s-.4 0-.4.2.2.3.4.3.4-.1.4-.3zm13.3-2.2c0-.1-.2-.3-.4-.3l-.2.3c0 .2.2.3.4.3s.3-.1.2-.3zm65.1-5.7v-.5c-.2.2-.4.7-.5 1.2-.2 1 .2.6.5-.7zm.4-1.8c0-.5 0-.5-.3-.2-.3.6-.3 1.2 0 1 .2-.1.3-.5.3-.8zm-70.5-1.2c-.1-1.7-.8-4.4-1-4.7-.4-.3-1.2 1.7-1.1 2.4l.2 2c0 .8.3 1.3.7 1.6 1.2 1 1.4.7 1.2-1.3zm71.3-1.6V88l-.2.6c-.2.3-.3 1-.4 1.4l-.2 1 .4-.9c.2-.4.4-1 .4-1.4zM81.7 84.6c-.1-.3-.3-.4-.4-.3v.5c.2.3.3.4.4.3v-.5zm60.2-.3c-.1-.4-.2-.6-.3-.4-.1.3.1 1 .3 1v-.6zm74-3c-.2-.3-.2-.1-.2.2 0 .4 0 .6.1.4v-.7zm-74.5-.4c.5-1.2.5-2.2 0-2.4l-1.8-.2c-1.6-.2-1.8 0-1 .8l1.1 1.6c.4.6 1 1.1 1 1.1.2 0 .5-.4.7-1zm5-1.7 1.5-.6.7-.5c.2-.3.5-.5.7-.5.5 0 3.4-2.3 3.4-2.7 0-.2.4-.9.9-1.4.7-.8 1-1.4 1.2-2.8l.5-2.3c.2-.5.1-.8-.5-1.3-.4-.4-.8-1.2-1-1.7l-.1-.8 1.3.1c1.4.2 2-.1.7-.5-.4 0-.7-.3-.7-.7V63l1.6.1 1.6.1 1.2-1.6c1.5-2 1.5-2.3.3-2l-2 .1c-1.3 0-1.4 0-2.7 2.2-.6 1.1-1 1.4-1.5 1.4-.4 0-1 .3-1.4.8-.6.7-.8 1-.8 2.1 0 .8-.1 1.6-.3 2-.2.3-.5 1-.6 1.6-.2 1.2-1.8 4-2.5 4.4-.3.2-.8.7-1.1 1.2-.3.5-1.1 1.3-1.8 1.7a8 8 0 0 0-1.3.9c0 .6 1 2 1.3 1.9l1.4-.7zm-64.6-7.9c0-3.1 0-5.7-.1-5.6-.2.2-.5 10.8-.3 11 0 .2.2.3.2.3.1 0 .2-2.5.2-5.7zm55.4 4.6-.6-.8c-.2-.2-.3-.5-.2-.6 0-.1.4 0 .6.4.6.7 3 1.2 5.3 1 1.4-.2 1.9-.4 2.4-1 .4-.3 1.1-1 1.7-1.3 1.5-.9 2.2-2 2.7-4.2.5-2.1.5-2.6.3-4.7l-.2-1.4 1-.3c.6-.2 1-.6 1.4-1.6.4-.7.8-1.3 1.1-1.4l.5-.2-.2-1.5c0-.8-.2-2-.1-2.8l-.1-1.8c-.3-.7-1-.5-1.8.4l-.7 1h-1.8l-3.2.4c-.9.1-1.8 0-2.4-.2-.9-.2-1.3-.2-2.6.1l-1.5.4-.2.9a25 25 0 0 0-.4 2.4c-.2 1-.5 2-1.3 3.2-1 1.7-1.4 2-2.6 2.7-.9.5-1.2.4-1-.6 0-.6.3-1 .9-1.3.4-.2 1-.8 1.5-1.5l.7-1V56l1.3-1.4c1.2-1.4 2-3.2 1.4-3.7-.1-.2-.4-.1-.7.3-.5.6-4 2.7-4.5 2.7s-2.2 1-2.8 1.6c-.4.5-.5 1-.5 2.2 0 1.7-.6 3.4-1.1 3.4-.2 0-.3-.8-.3-2.4v-2.4l1-1c.6-.5 1.6-1.3 2.3-1.6 1.3-.8 1.5-1.1.6-1.5-.5-.2-.5-.4-.4-1 .4-1.1 0-5-.5-5.4 0 0-.5 0-.8.3l-1.6 1.1c-2 1.3-2.9 3.1-3 6v2h.4c1.8-.8 2.3-.2.7.8-1.4.7-4 3.2-5 4.5l-.8 2-.1 1.2h1.2c1.1-.1 1.5 0 2.5.8 1.2 1 3 2.8 3.7 3.8.7 1.1.9 1 1-.7.1-.9.3-1.6.4-1.7.4 0 1.2 1.7 1.2 2.6 0 1.7.6 3.4 1.3 4 .4.2 1 1 1.4 1.7.6 1.1 1.5 2 2.3 2 .2 0 .3-.2.2-.4zm4.9-2c-.4-.2-.3-.4 0-1 .4-.7.5-1 .3-2.6a26 26 0 0 0-.6-2.8c-.6-2.3 0-2.5 1-.3.7 1.6.9 3.4.5 5.5-.2 1.2-.6 1.6-1.2 1.2zm1.8-9.7-.2-.9c0-.1-.3-.4-.7-.6-.3-.2-.8-1-1.1-1.5-.5-.9-.5-1-.2-1.4.3-.2.5-.2 1 .2.7.4.9.4 1.4.1.3-.2.7-.3.7-.2.3.4.6 3.4.4 4.1-.3 1-1 1.1-1.3.2zm6.3-5.2v-.7c.4-.5 1.2-.1 1 .4 0 .6-.8.8-1 .3zm-3.3-1.6c-.4-1.2-.4-1.3.2-1.2.4.1.5 0 .5-.2 0-.5.4-.5.8 0 .4.4.4 1.3-.1 1.1-.3-.1-.4 0-.4.5 0 1-.6.8-1-.2zM116 72.9c.2 0 .6-.5.8-.9.3-.6.3-.7 0-.9-.4-.1-1.7 1-1.7 1.5s.2.6 1 .3zm40.3-4.1v-.9l-.2.7c-.3 1-.3 1.4 0 1.2.1-.1.3-.6.2-1zm5-18.5c1.8-.7 2.2-1 1.8-1.3-.2-.2-.8 0-2 .5l-1.6 1.1c0 .3 0 .3 1.8-.3zM107.2 47c0-.5-.2-1-.3-1-.2-.1-.3.3-.3 1 0 .8.1 1.2.3 1 .1 0 .3-.5.3-1zM210 45.3c-.2-.3-.4-.5-.5-.4l.2.7c.2.3.4.5.5.4 0 0 0-.4-.2-.7zM93 38.6l-.7-1.4.2 1c0 .4.3 1.3.6 1.8.4.8.4 1 .5.4 0-.3-.2-1.1-.6-1.8zM63.2 33c-.9-2.6-2.1-5.3-2.5-5.3-.2 0-.5-.2-.6-.4l-.3-.5v.4c0 .3.2.6.4.8l.4.7.8 2 1.5 3.1c.9 1.9 1 1.4.3-.8zm17.4-.2c-.3-3.2-.7-3.9-.5-.9l.2 2.8c.4.5.5 0 .3-2zm-21-6.7c0-.3-.2-.4-.3-.4-.1.2.1 1 .3 1v-.6zm157.2-5-1.2-.2h-1.2l.8.2c1.2.3 1.8.3 1.6 0zm-3-.8c-.5-.5-1.3-.7-1.3-.4 0 .2 1.4 1 1.7 1 .1 0 0-.3-.4-.6zm2.9-1.7c0-.2-.3-.6-.6-.8l-.7-.4-1 .4c-.7.3-1.1.6-1.1.7 0 .2 2.6.7 3 .6.2-.1.4-.3.4-.5zm-6.2-1.5c2-.1 3.7-.3 3.8-.4.2-.2-.3-.4-1.5-.5-1-.1-1.4 0-1.6.3-.5.5-1.2.5-1.6 0a23 23 0 0 0-7.3-.1c-2 .2-3 .2-10.6-.7a1122.3 1122.3 0 0 0-9.3-1.2c-1.3-.4-9.4-1.6-9.6-1.5l1.5.5 2 .5 2.4.6 4.4 1c3.3.7 7.5 1.4 11.5 1.8 2.3.3 11 .1 15.9-.3zM195.4 15c.3-.5-.1-1.6-.7-2-.8-.5-3.9-1.3-6.6-1.9a62 62 0 0 1-3.5-.7l-1.5-.5-1.5.6a39.4 39.4 0 0 1-6.2 1.9c.7.3 5.4 1 8.3 1.3 1.6.1 3 .3 3.2.5l3.7.5c1.9.1 3.5.3 3.5.4.3.2 1.1.2 1.3-.1zm6.8 0c.1 0-.8-.4-2-.7-2.4-.7-3-.8-2.7-.4.3.4 1.8 1 3 1.1l1.3.2.4-.1zM83.4 12.9c0-1.4-.2-2.1-1.2-4.2a17 17 0 0 0-1.4-2.5c-.2 0 .2 2 .8 3.5.4.8.7 2 .8 2.8.3 1.8.4 2.3.8 2.1.2 0 .3-.7.2-1.7zm118.3 0-1.3-.3c-.3 0 0 .2.6.4 1.3.4 1.7.4.7 0zm5.2.2-.8-.2c-.3 0-.2 0 .1.2.8.3 1.2.3.7 0zm-8.2-1c-.7-.1-1.4-.3-1.6-.2l.8.4c1.7.4 2.2.3.8-.1zm6 .3h-.5c-.2.1-.1.2.2.2.2 0 .4 0 .3-.2zm-107-1c0-.2-.2-.4-.3-.4-.4 0-.6.4-.4.6.3.3.6.2.6-.2zm103.3.2h-.5c-.2.1-.1.2.2.2.2 0 .4 0 .3-.2zm-2.3-.6c-1.4-.5-3.2-.7-2.8-.3.2.2 3 .8 3.7.8.3 0-.1-.2-.9-.5zm21.4.4c0-.2-1.4-1.7-1.6-1.7-.4 0-.2.8.3 1.3s1.3.7 1.3.4zm-44.2-.4 2-.4c.6 0 1-.3 1-.6s-.3-.3-1.3-.2c-1.2.2-3.5 1-3.5 1.3 0 .2.8.2 1.8 0zm41.2-1.4c0-.6-.5-1.8-.8-2.6a19 19 0 0 1-1-2.9c-.5-2.7-1-3.3-1.4-1.6-.1.6 0 1.2.8 2.6.7 1.4.9 1.9.7 2.4-.3.6-.1 1.4.3 1.4l.2.4c0 .7.5 1.4 1 1.4.3 0 .4-.2.2-1zM88 9c-.3-.3-.4 0-.2.6l.2.5V8.9zm100.2.8a1 1 0 0 0-.7 0l.4.1c.3 0 .5 0 .3-.1zm3.5-.4-.8-.2c-.4 0-.5 0-.1.2.5.4 1.1.4.9 0zm-8.5-.8a18 18 0 0 0-5.4-1.2c-.4 0 .5.3 2.1.7 3.2.8 3.7.9 3.3.5zm2-.7h-.6c-.2.1-.1.2.2.2.3 0 .4 0 .3-.2zM24.4 141.3c-.6-.2-1.4-.7-2-1.4l-1.1-1-2.4-.1c-1.4 0-3-.2-3.5-.4-1.1-.3-4.4-.4-6.5-.1l-3.7.3c-2 .1-2.4 0-2.3-.2 0-.2.8-.4 2.3-.5 1.2-.1 2.7-.3 3.2-.5s1.4-.3 2-.3c1.2 0 1-.1-.8-.4-.7 0-1.2-.3-1.2-.4 0-.2.8-.3 2.5-.2h2.4l-1.2-.7c-1.3-.6-6.7-6-8-7.8-.6-.8-1.2-1.9-1.3-2.5l-.4-1.7c-.1-.4 0-.6.2-.6.8 0 .8-1 .4-6-.2-2-.2-2.3.8-7 .3-1 .8-2.1.9-1.6l-.6 2.6c-.7 3-.7 11.4-.1 13.5.5 1.5 1.7 3.2 5.3 7 1.8 1.8 2.7 2.6 4 3.2 1.7.7 2 1 1.4 1.5-.4.4 0 .6 2.2.8 1 .2 2.9.5 4 .9l2.8.6c1 0 1 .1 1 .5 0 .2-.1.4-.4.4-.3 0-.4.1-.1.3.2.3.4.3.6 0 .2-.1.5-.3.8-.3.2 0 .4-.2.4-.6v-.6h1.8c1 0 2-.3 2.4-.5.3-.2.8-.4 1.2-.4.3 0 1-.2 1.5-.5s1.2-.5 1.5-.5c.5.2 3.6-1.2 3.6-1.7 0 0 .3-.4.7-.6a11 11 0 0 0 4-4.5c1-2.2 1.5-3.8 1.3-4-.2-.2-.2-.2-1.5 2.3s-3 5.3-3.5 5.3c-.4 0-.2-.3 1-1.6l.4-.7.6-1c.3-.3.5-.8.4-.8-.3-.3-1.3.4-1.4 1-.1.2-.3.4-.5.4a148 148 0 0 0 5.2-18.1l.4-1-.1 1.4a76.2 76.2 0 0 1-3.7 13.8c-.6 1.3-.4 1.6.4.5 1.5-2 2.7-5.7 3.3-9.8a7 7 0 0 1 .5-1.7c.1-.3.2-2.6.2-5.5 0-2.8 0-7.9.3-11.3.3-6 .2-7.7-.3-7.7-.2 0-.3.5-.3 1-.2 1.8-.6 1.1-.6-.7.1-1.5 0-2-.7-3.5-.8-2-1.8-3.1-2.5-3.1-.6 0-.5.8 0 1.4.7.5 1.6 2.3 2 3.7.4 1.8.6 5.2.3 5.2-.2 0-.3-.4-.3-.9 0-1.6-1-4.8-1.7-5.9-1-1.6-2.7-3.3-3.2-3.3l-.8-.1c-.7-.3-.5.5.5 2.6A23.3 23.3 0 0 1 40 99c-.1 0-.3-1.3-.4-3-.2-3.5-.9-6.1-2.3-8.8-1.2-2.1-1.4-2.3-2.4-2.6l-.8-.2.6 1.4c.5 1.2.5 1.8.4 3.5-.2 2.1-1 6.7-1.3 7-.3.3-.2-.8.2-2.4.5-2.2.5-4-.1-6.1-.5-1.8-1.5-4-2.2-4.8-.1-.2-.2-.5 0-.7.2-.3-.4-.7-1.2-.7-.3 0-.7-.2-.8-.4-.2-.2-.7-.4-1-.4-.8 0-1.2-.5-1-1.3.1-.4 0-.6-.6-.7-.5-.1-1.1-.6-1.6-1.2-.4-.6-1-1.1-1.2-1.2-.4 0-2.6.7-3.9 1.5-1 .6-1 .5-.2-.4.4-.4 1-1.4 1.4-2.2.5-.9 1-1.4 1.3-1.5.7 0 .7-.8 0-1-.5 0-.7.1-.7.4a8 8 0 0 1-1.4 2l-1.5 2c0 .2-.5.8-1 1.4-.7.7-1 1.2-.9 1.3.5.2.4.7-.2 1.3-.3.2-.5.5-.5.7 0 .1.9-.5 2-1.5 2.6-2.1 3.4-2.5 4.8-2.5 1.6.1 1.6.5-.3 1.8l-2.7 2c-1.4 1.2-1.7 1.4-1.7 1 0-.3 1.8-2.2 2.8-2.9.3-.2.4-.4.3-.5-.2-.2-1.6.6-2.6 1.5l-2.2 2c-1.7 1.4-2.5 2.2-2.5 2.5 0 .2-.4.7-.9 1.2l-1.3 2.2-1 1.8a9 9 0 0 0-1.6 3.6v.5l.4-.6.4-1.1c0-.5.5-.7.5-.2l-.8 1.8c-.4 1-.8 1.8-.7 2 .1.4 2.6-3.2 4.3-6.5.8-1.6 1.6-2.6 1.8-2.3l-1 2.3c-1.2 2.5-3 5.4-5.8 9.2a17 17 0 0 0-2.4 4.5c-.9 2.5-1.2 3.1-1.2 2.3l.2-.8c.5-.2.5-1.4.1-1.7-.3-.2-.3-.3.3-1.1.8-1 2.8-5.6 2.8-6.3 0-.3-.1-.5-.4-.5-.4 0-2.7 4.6-2.7 5.5l-.4 1-1 2.1c-.3 1-.7 1.7-1 1.7-.2 0-.6 1-1 1.9a13 13 0 0 0-.6 5c0 1.8.2 4 .4 5.2l.4 3.2v1.2l-.5-1.4c-.7-2.9-.9-4-1-7-.2-3.7.2-7.2 1-8.2.2-.4.5-1 .5-1.4 0-.5.2-1.3.5-1.9l.5-1.4c0-.4 1.6-2.9 2.9-4.3l.8-1.3.8-1.3a50.1 50.1 0 0 0 3.8-7.3c-.2-.2.3-1.2 2-3.6l2.5-4.2c.1-.4.5-.9.9-1.1.3-.2.6-.7.6-1 0-.2.5-.8 1-1.3a9.5 9.5 0 0 0 2.5-2.5s.5-.8 1.2-1.5c.6-.7 1.2-1.5 1.2-1.7 0-.3.2-1 .5-1.6l.5-1.2-1-1.3c-1.1-1.7-1.2-2.3-.9-4.1l.5-3.1c.1-1.3.3-1.7.9-2.3.4-.4 1-.8 1.2-.8.7 0 2.9 2.4 3.4 3.7l.6 1c.4 0 2-2 3.1-4 1.9-3 2.2-3.2 3.6-1 .7 1 .8 1.4.7 2.5-.2 1.6 0 1.7 2.3 1.2.9-.3 2.6-.5 3.9-.6a9 9 0 0 0 5.4-1.7c1.6-1 2.5-1.2 3.5-.7 1.4.7 1.7 1.3 1.8 3.7l.2 2.3-1 1.4c-.8 1.2-1 1.6-1 2.8 0 .8-.1 2-.3 2.8-.3.7-.5 1.9-.6 2.5-.2 2-.6 3-1.8 5.4a17.7 17.7 0 0 0-1.8 4.9c-.3.5-.2.7.5 1.4 1.6 1.6 1.9 6.4.6 9-.4 1-.7 2.1-.8 3.8-.1 1.3-.3 3-.5 3.7-.5 2.2-.6 5.8-.3 7.6a24.2 24.2 0 0 1-.5 12.7c-.2.3-.5 1.4-.6 2.4-.6 6.8-4.2 12-10.6 15.3a7 7 0 0 1-2.3.7 5 5 0 0 0-1.5.3 9 9 0 0 1-2.5.3c-1.7 0-2.2.2-1.5.7l1.4.2c.9 0 1 0 1 .5s-.1.5-.9.5l-1.6-.2c-.5-.2-.7 0-.8.4-.2.6-.4.6-1.9.2zM4.5 102c.6-1.6.6-1.6.3-1.4-.2.1-1.1 2.5-1.1 3 0 .4.4-.3.8-1.6zm43.2-10.8c.3-1.4.2-5.5-.2-6.3-.5-1-.8-1-1.3 0-.4.8-.4 1.7 0 1.5.1 0 .2.7.2 1.6 0 2.6 1 4.8 1.3 3.2zm-2.1-7c.6-.7 1-3.5.5-3.5-.4 0-1.3 2-1.5 3.4-.3 1.3.1 1.4 1 .2zm-4.3-.8c.2-.3.4-.3.8 0 .4.1.7.1 1-.2.8-.7.5-.9-1.3-.6-1.3.2-2 .2-4-.3a30.6 30.6 0 0 1-5-1.5l.3 1c.7 1.4 1.8 1.8 3.9 1.6l2.6.1c1 .4 1.3.4 1.7 0zm3-3a7.4 7.4 0 0 0 3-3 13 13 0 0 0 1.5-2.8l.4-1c.2 0 .3-.5.3-1l.6-3 .7-2.5c0-.9-.6-.3-.9.7a6 6 0 0 1-.7 1.8c-.3.3-.6 1-.7 1.4-.2.9-1.9 4-2.2 4.2-.5.4-.2-.7.5-2 .6-.9.8-1.5.8-2.5 0-1.5.6-3 1.5-4.2 3-3.6 3.9-5.5 3.3-6.7-.3-.6-.8-.6-.8.1 0 .2-.3.5-.7.6l-.6.3.4.8c.6.9.5 1.1-.4.9-.3-.1-.6-.4-.7-.9l-.5-1.5-.4-1.5c0-.9-.3-.9-1.3 0a6 6 0 0 1-1.9 1.1c-.6.2-1 .6-1 .8 0 .5-.6.3-1-.3-.2-.3-.1-.5.1-.7.7-.4-.2-.5-2.5-.3-1.8.2-2.8.5-4.3 1.2-3.7 1.8-5.2 2.7-5.1 3.2l.1.8c.2 1.3-1.6 0-2.3-1.5-.2-.3-.7-1.4-1-2.4-.9-1.8-2.4-3.7-3-3.7-.5 0-1.1 1.6-1.5 4-.4 2.4-.2 3.1 1.3 5.2 1.3 1.7 1.5 2.4.6 2.1-.6-.1-1 .3-1.1 1.6-.2 1.6.8 3 3.2 4.2l.8.4.2-.4v-4.4c.2 0 .6 1 .9 2.3.4 1.6.8 2.7 1.5 3.6l1 1.4-.8-.6c-.7-.6-1.5-.8-1.4-.4 0 .1.7.8 1.6 1.5 2.8 2.4 3.2 2.6 4.1 2.5.5-.1 1 0 1.2.2.1.2.7.4 1.1.4.5 0 1 .2 1.4.4.9.7 2.9.5 4.6-.5zM41.8 74c.2-1 .1-1.4-.5-2.4-.8-1.3-.7-1.6.3-1.3 1.1.3 1.8 2.6 1.2 4.2-.2.4-.5.7-.7.7-.4 0-.4-.2-.3-1.2zm-13.7-6.2c-.1-.2-.4-.3-.7-.3-.5 0-1.3-1-1.3-1.8 0-.6.2-.6 1.4-.2.8.4.6-1.4-.4-2.9-.6-.9-.8-1.3-.6-1.6.7-1.1 1-.6 2.2 2.9.8 2.2 1 3.6.5 4-.5.2-1 .2-1.1-.1zm11-1c-.2-.2-.3-.6-.2-1l-.1-.8c-.9-.5.3-2 1.5-2h.7l-.2.8v1c.5.2.4.8-.2 1.7-.6.8-1 1-1.5.4zm7.1-.2c.2-.7.8-.8.8-.2 0 .4-.2.6-.4.6-.3 0-.4-.2-.4-.4zM48 63l.4-.2c.2 0 .3 0 .3.2-.1.2-.3.3-.5.3-.1 0-.2-.1-.2-.3zm-16 17.4c.2-.4-1-2.4-1.9-3.2-.3-.3-1.1-1-1.8-1.4a6.8 6.8 0 0 1-1.5-1.4c-.3-.6-1.4-.7-1.8-.2-.2.3-.2.5.4.8.3.3 1 .6 1.3.7.4.2.6.4.5 1-.2.6 0 .7 1.6 1 .4 0 .6.3.6.9.2 1.3 2.2 2.8 2.6 1.8zM33 61l2.4-.8.3-1.5.3-1.6-.6-.9c-.3-.4-.6-.8-.8-.8L33.4 57a15 15 0 0 1-2 2.7c-.5.7-1 1.4-1 1.6v.4L33 61zm17.7-2.5c.6-.3 1.2-1 1.2-1.4 0 0-.3-.2-.7-.2-.7 0-1.8 1.1-1.5 1.6.2.4.3.4 1 0zm97.8 80.2c-.4-.9.1-1 2.4-1 3.3.3 4.3.5 4 .8 0 .2-.8.2-2.2 0-1.7 0-2 0-2.2.3-.3.6-1.6.5-2-.1zm21.2-.5c-.3-.2-.2-.3.7-.3a29.7 29.7 0 0 1 10-.3c.3.4-.2.4-4 .4-1.6 0-3.6.1-4.6.3l-2.1-.1zm-18-2.4c0-.3 1.8-.5 5.6-.5 2.6 0 3.1 0 3.1.3s-.7.4-4.3.4c-2.5 0-4.4 0-4.4-.2zm-108.2-1.3c0-.6 3.2-1 3.6-.6.2.5.2.5-1.8.7h-1.8zm117.7-.8c-.8-.1-1.8-.2-2.3 0-.5 0-.8 0-.8-.2 0-.8 7.3-.6 8 .2.3.3-2.5.3-4.9 0zm6.4 0c-.7-.2-.2-.6 1.2-.6s2.2.2 2.2.6c0 .2-2.8.3-3.4 0zm43.1-2a149.3 149.3 0 0 1-4.5-2.3c-1 0-3-1-3.3-1.8-.2-.4-.8-1-1.3-1.3-.5-.3-1.1-1-1.5-1.8-.8-1.5-.8-1.8-.2-1.8.3 0 .6-.2.7-.3.1-.2.4-.4.6-.4.3 0 .3.1.3.8v1l1.7 1.7a23 23 0 0 0 7.8 4.7c1.9.8 2.5 1.4 2.3 2-.2.6-.6.5-2.6-.5zM47.1 131c0-.3 2-.6 3.9-.6 1.3 0 1.8.3 1 .6-.7.3-4.9.2-4.9 0zm-33.7-1.5c-1-1.6-1.6-3.2-1-3 .2 0 .5.5.6 1 .2.5.7 1.4 1.2 2 1 1.2 1 1.4.6 1.4-.2 0-.8-.6-1.4-1.4zm-2 .4c-.2-.4-.2-.6 0-.6.3 0 .6.8.4 1l-.4-.4zm161.6.3c-.3 0-.5-.2-.5-.4 0-.4 5-.1 5.3.3.3.2-.1.3-2 .3l-2.8-.2zm-166.5-5a8.5 8.5 0 0 1-1.5-2l-.1-1.1c-.4-4.7-.5-5.1-.2-5.6.3-.4.3-.3.2.7 0 .6 0 1.8.2 2.6.3 1.7 1.8 4.8 2.7 5.9.4.4.6.7.5.8-.2.1-1-.5-1.8-1.4zm77.4.4c-.7-.2-1.7-.5-2.3-.5h-1.2v-.8c0-.4.2-.8.4-.8l2-.2a69.8 69.8 0 0 1 12.2-.6h3.2c1.5 0 2.9.7 2.4 1.1-.2.2-.6.2-1.2 0-.7-.3-1.5-.3-3.8 0l-2.9.2-.2-.4c-.2-.3-.7-.4-3.6-.2-4 .2-5.6.4-5.6.6 0 .2.5.3 1 .4 1.3.2 2 .8 1.4 1.4-.4.4-.4.5-1.8-.2zm-72.1-2.2c-.9-1.5-1.5-3.3-1.5-4.6 0-.7 0-.9.3-.6l.2 1.1c0 .7 1.2 3.8 1.7 4.4.1.2.2.5.1.7 0 .1-.4-.3-.8-1zm14 0 .3-3c.1-2.3.4-3.2.9-2.5v1.7l-.5 3c-.1 1-.3 1.6-.5 1.7-.3 0-.4-.1-.2-.8zm45-1c-1.8-.8-3.3-1.7-3.4-1.9-.1-.2-.8-.7-1.5-1-1.3-.5-2.1-1.7-1.7-2.3.2-.4.6-.4.8.2.3.8 1 1.4 1.7 1.4.5 0 .9.2 1.1.5.5.8 2 1.8 3.3 2 2 .2 4.3 2.3 3.1 2.7l-3.5-1.5zm5 .3a9 9 0 0 0-.3-2.2c-.4-1.2-.3-1.4.3-1 .6.5 1 3 .7 3.7-.5 1-.8.7-.8-.5zm-68.9.4c-.5-1-1-3.5-1-4.5v-1l.2.9.8 2.8c.6 1.9.6 2.8 0 1.8zm33.8-.5.4-1.1c.7-1.4 1.3-4.3 1-4.7-.2-.3-.2-.8 0-2.2.3-1.7.2-7-.2-8.5-.1-.5 0-.6.2-.5.2 0 .5.4.6.9v-1.4l.1-2.2c.5 0 .7 1 .8 4.3.2 5.2-.6 11.4-2 14.4-.6 1.4-.9 1.7-.9 1zm39.8-.5c.1-.4 1.6-.6 2.3-.3.3.2.2.3-.4.4-1.3.3-2 .3-1.9 0zm113.3-.3c-.9-.2-3.3-.4-5.4-.4-4 0-5.1-.1-4.9-.6.2-.3 9.1-.2 10.8.1 1.6.4 2 .6 1.4 1-.2.1-.8.1-1.9-.1zm-184.4-1a43 43 0 0 1 .4-9c.5-1.2.6-.4.3 1-.2.8-.4 3-.4 5v3.9l-.3-.9zm28.2.5a30.8 30.8 0 0 0 .9-5.4c.3-3.7.2-5.1-.4-6.8-.3-.9-.3-1.5 0-1.5.5 0 1.3 3.5 1.3 5.3 0 3.4-.8 8-1.5 8.5-.2.3-.3.2-.3 0zm-22.9-.7c-.2-1 1-6.6 1.5-6.6.3 0 .3.1-.3 2.2-.3 1-.5 2.5-.5 3.3 0 1.4-.4 2-.7 1zm-1.3-1c-.5-1.1.1-4 1.5-7.9a271.4 271.4 0 0 0 2-4.9c.5 0 .3 1.2-.2 2a471.4 471.4 0 0 1-2.3 6.4c-.2.8-.4 2-.4 3 0 1.5-.3 2.3-.6 1.5zm-6-5.2c0-1.8.5-4.7 1-5.8l.4-.8-.2.8a1396.5 1396.5 0 0 0-1 6l-.1 1.4zm16.4-2.3-.5-1-.8-1.4-.8-1 .2-1.5.1-1.4-.8-.5c-.4-.2-.9-.7-1-1.1 0-.4-.4-1-.7-1.3-.5-.5-.6-1-.7-3.5a17 17 0 0 1 .5-6.2l.7-2.9c.5-2.5 2-6 2.8-7.1.4-.5 1.3-1.2 2-1.5l1.2-.5 1.1.6c.7.4 1.4 1 1.7 1.4.6.7 1 3 .5 3.4a91.7 91.7 0 0 1 .4 10.3c.3 2.2 0 3.8-1.6 7.2-.8 1.7-1 2.4-1 4v2l-.7.4c-.4.2-.7.5-.7.7 0 .2-.3.7-.7 1.1l-.6.7-.6-.9zm1-2 .6-1c.3-.4.5-1 .5-1.4l-.1-.7h-1.4c-.8 0-1.5 0-1.6.2-.2.4.3 1.8 1 2.6.6.8 1 1 1 .4zm.3-4.4c.5-.4.4-.7-.2-.7-.3 0-.8-.1-1.1-.3l-.5-.2v1.9l.8-.3c.3 0 .8-.2 1-.4zm1.7-1.8c1.4-2 1.8-3.2 1.9-6.1l-.2-4.5c-.2-1.3-.2-1.9 0-2 .3-.2.2-1-.2-3.1-.2-1.6-.5-2.7-.5-2.4l-1.5 6.7c0 .2-.2.3-.3.2-.1 0 0-1.5.4-3.1.6-3 .6-5.5 0-6.6l-.2-.5-.8.4-2 1.6c-1.2 1.1-1.4 1.5-1.6 2.5 0 .7-.4 1.8-.7 2.4l-.5 2c0 .5 0 .9-.2 1-.2 0-.4 1.1-.5 2.6-.2 2.9.3 5.7 1 6.7.3.3.5.8.4 1 0 .2 0 .5.3.7.2.2.4.5.4.8 0 .3 0 .3.3 0 .2-.2.2-.4 0-.8-.6-.9-.1-1 .6-.2.3.4.9.7 1.2.7.4 0 .9.2 1.2.4.7.6.8.5 1.5-.4zm-10.7 7.8c-.2-.3 1-2 1.2-1.7 0 .1-.1.6-.5 1-.3.5-.7.8-.7.7zm-13.2-4.2c0-.3.1-.4.2-.2v.5c-.1.1-.2 0-.2-.3zM14 96.9l.5-1.5 1.1-2.9c.8-2 3.2-6 4.5-7.5 1.6-1.8 1.5-1.2-.3 1.2a34.9 34.9 0 0 0-4.5 8.6c-.7 2-1.3 3-1.3 2zM23.3 81c0-.6 2.4-1.6 3-1.4.7.3.4.6-1.1 1.1-1.8.7-2 .7-2 .3zm182.4-11.2c-.7-.6-.1-1 1.4-.8 1.7.2 2 .3 1.8.8-.3.5-2.5.5-3.2 0zm-5.5-.2-6.5-.4c-5.3-.2-6.3-.4-6-1 .2-.2 1-.2 11 .4h4.7c.2 0 .5 0 .8.3l.4.3-.5.4c-.5.4-2.4.4-4 0zm-1.9-3.4c0-.1 0-.3.4-.3.3 0 .5.2.4.3l-.4.3-.4-.3zm-13.2-1.5c-.3-.3-.2-.6.3-.6.3 0 .7.2.9.4.2.3.2.4-.4.4l-.8-.2zm-7.7-1.5c-.1-.4.5-1 .8-.8.3.3.1.8-.2 1-.3 0-.5 0-.6-.2zM71.8 54.5l-.3-3.5c-.2-1.8-.5-3.7-.7-4.2a61.6 61.6 0 0 1-3.9-14.3c0-1.2.4-2 .8-1.6.3.3 1.4 6.2 1.4 7.5 0 .5.2 1.4.5 1.9l.5.9L70 40c-.4-3-.5-4-.3-4a46.3 46.3 0 0 1 1.9 10 51.4 51.4 0 0 1 .8 8.8c-.3 0-.5-.1-.6-.3zm111.6-1c.1-1.3.7-1.3.7-.2 0 .7 0 1-.4 1-.3 0-.4-.2-.3-.8zm4.2-1.1c0-.2-.3-.6-.7-1l-.8-.5h.6c.8 0 1.8.8 1.6 1.4-.2.5-.7.6-.7 0zm-6.7-1.5c-.3-.4 0-1 .7-1.4.6-.3.8-.2.6.5-.2.7-1.1 1.2-1.3.9zM37.3 49.8c-5.2-.2-5-.2-5-.5 0-.2 10.4-.2 10.7 0 .3.3-.1.8-.5.7l-5.2-.2zm10-.1c-.2-.3-.1-.4.6-.5 1-.2 2.8.1 2.7.5-.1.4-2.8.4-3.2 0zm8.3 0c0-.2.4-.3.8-.3.3 0 .6.1.7.3 0 .2-.2.4-.7.4-.6 0-.8-.2-.8-.4zm132.5-.5c-.7-.3-.6-.7 0-.7.7 0 1.6.4 1.6.8 0 .3-1 .3-1.6 0zm-10.1-.4a.6.6 0 0 1-.2-.4c0-.3 2.6-2.3 3-2.3.7 0 .5.8-.3 1.2l-1.4 1c-.6.7-.8.8-1.1.5zm17.8-.6a20 20 0 0 0-2.5-.8c-2.4-.6-3.1-1-1.7-1 .5 0 1.3 0 1.8.2l2 .5c.7.2 1.2.5 1.2.7 0 .5-.3.7-.8.4zM46 47.5c0-.2.3-.3.6-.3s.5.1.5.3c0 .3-.2.4-.5.4s-.6-.1-.6-.4zm-15.8 0c-.7-.5 0-.8 1.2-.6 1.6.2 1.9.8.3.8a4 4 0 0 1-1.5-.3zm4.3 0c-.2 0-.3-.2-.2-.4a63 63 0 0 1 11 0c.6.5-.4.6-2.7.5-2.6-.2-2.4-.2-5.4 0l-2.7-.1zm53.1-.2c-3.1-.5-3.2-.6-1.9-1.3l1.2-.5.4.5.5.6h2c2.2 0 3 .3 2.7.8-.2.4-2 .3-4.9-.1zm-68.2-.4c-.4-.2-2.6-.4-4.9-.6-2.3-.1-4.5-.4-4.8-.5-.9-.3 1.2-.3 7.8.2 8.3.6 9.2.7 9.2 1 0 .2-6.5.2-7.3-.1zm96-.2c0-.3 2.4-2 2.5-1.8.1 0 0 .3-.4.6-.4.2-.8.6-1 .9-.5.5-1.2.7-1.1.3zm2.3-.2c0-.1 1.5-1 1.7-1 .4 0 .1.5-.5.8-.7.3-1.2.4-1.2.2zm3.5-.1c0-.3 2.4-1.1 3-1.1.7 0 .4.5-.3.7-.4 0-1 .2-1.5.4-1 .3-1.2.3-1.2 0zm31.7-.6c0-.3 2-1.7 3.1-2 1-.4 1.5 0 .6.4l-1.8 1c-1.2.9-1.9 1.1-1.9.6zm-12.7-.7c0-.7 6.1-2.8 6.6-2.3.3.2-.3.6-1.7 1-.7.1-2 .5-2.7.9-1.5.6-2.2.8-2.2.4zm37.3 0c0-1 4.5-2.9 4.6-1.8 0 .2-.6.4-1.2.6-.7.1-1.6.5-2 .8-.8.6-1.4.8-1.4.4zm-63.2-.6c0-.3 1.6-1.5 2.7-2 .8-.3 1-.5.9-.9-.2-.7.6-1.3 5-3.3 3.2-1.6 6-2.5 7.3-2.5 1 0 .3.6-1.2 1-.8.1-2 .5-2.7.8l-2.7 1c-2 .9-4 2-3.5 2.1.2.1.5 0 .7-.2.5-.4.9 0 .4.4-.2.2-1.5 1-2.8 1.6l-3 1.8c-.5.5-1.1.6-1.1.2zm-85.1-.3c-.2-.3 1-.5 4.2-.6 2.3 0 3.2 0 3.3.3 0 .2-.9.3-3.6.4l-3.9-.1zm25.3-.6c-.1 0-1.1-.3-2.3-.4-5.3-.6-10.2-1.4-12-1.8-2-.5-8-.6-13-.2l-2.3-.1c0-.3 1-.6 1.9-.6.4 0 .8-.1 1-.4 0-.3 1.2-.4 5.2-.6a42.2 42.2 0 0 0 13.2-2.1c.2 0 .1.7-.2.9a35.3 35.3 0 0 1-7.6 1.7l1 .6c1.5.7 5 1 10.3 1.1 3 0 4.1.2 4.3.4.2.5 2.7.8 3 .5.2-.1.8-.2 1.3 0 .5 0 1.5 0 2.3-.2l1.3-.4.5.4c.2.3.7.5 1 .6.4 0 .8.2.8.4.1.3 0 .4-1.1.2a13 13 0 0 0-2.1-.2 1862 1862 0 0 0-6.5.2zm135.5-.2c-2.2-.4-2.3-.7-.1-.7 1.9 0 2.5.2 1.9.7H190zm-51.6-.8c.2-.4 3.6-1.9 4-1.7.3 0-3.4 2-3.9 2v-.3zm-27.3-.2 2-1.3 2.9-1.8c.6-.4 1-.5 1-.3 0 .4-5 3.7-5.6 3.7l-.3-.3zm60 0c0-.7 4.9-2.7 5.4-2.2.3.3.2.4-1.5 1-.8.2-1.4.5-1.4.7 0 .2-1.5.8-2 .8-.3 0-.4-.1-.4-.3zm-85-.8c0-.1.2-.4.6-.7l1.8-1c1-.7 1.4-.7 1-.2-.1.3-2.8 2.2-3 2.2l-.4-.3zm70-.1c-.6-.8 1.4-3.4 4.4-5.7l1.8-1.4c1.3-1.1 5.1-3.6 7.3-4.7 2.4-1.2 3.9-1.5 4.6-1 .7.6.3.9-1.2 1-2.7.4-3.3.6-8.3 3.7a27.7 27.7 0 0 0-7.5 7c-.5 1.4-.7 1.6-1 1zm41-.8c-1.3-.6-1.3-1.1-.1-1 1 0 2 .7 2 1.2 0 .6-.5.5-1.9-.2zm-59 0c0-.5 3.2-1.3 3.5-.8 0 .2-2.2 1.1-3 1.1-.3 0-.5-.1-.5-.3zm-93.5-.2V40c.5-.4 2.9-.8 3.8-.7l1 .2.3-.7.4-1.4c.3-.9.7-.7.7.3 0 .5-.3 1.3-.6 1.8l-.6 1h-1.7l-2.4.1c-.5.2-.8.1-1 0zm99.1-1.6c-1.3-1.7-3.7-3.9-7-6.4l-1.3-1h-2.8c-4.3 0-10 .7-12.5 1.5-3.1 1-3.5 1-4 .6-.4-.7 0-1 1.2-1a63 63 0 0 1 13.5-1.7c1.9-.1 2.8-.3 2.7-.5 0-.3-2.4-1.2-3.3-1.2-.4 0-.9-.2-1-.3-1-.6 2.7 0 4.2.7.9.4 1.6.6 1.7.5.2-.1 0-1-.6-2.9-.3-.8.5-.4 1 .5l.5 1.8.1 1.1 1.2.2 2.8.2c1.8 0 7.6 1 9.7 1.5 2.8.8 4.2 1.9 3.8 3-.2.3-.3.3-.8-.3-1-1.4-5-2.6-10.4-3.3-3.4-.4-5-.5-5-.2 0 .4.3.8 1 1.1 2 1.1 7.1 6.6 7.1 7.7 0 .6-.4.3-1.8-1.6zm-59.3 1.4c0-.3 3.4-2.2 3.8-2A81.9 81.9 0 0 0 86 40c-1 .6-1.6.7-1.6.3zm80.8-.9c.2-.7 6-2 10.7-2.2l2.4-.2v.5c0 .3-.3.4-2 .4-2 0-9.3 1.1-10.2 1.6-.6.3-1 .3-1 0zm21-.4c-1.6-.1-2.7-.3-2.6-.4 0-.4 5.2-.5 5.8-.2.7.4.7.8.1.8l-3.2-.2zm-168.4-.5-.3-.4-3 .3c-3.8.4-4 .4-3.9 0 .1-.2.7-.4 1.5-.4l5.3-.6c2.3-.3 4.4-.5 4.8-.4.8.1 2.3-.2 2.8-.8l2-1a9.5 9.5 0 0 0 4.2-3.2c.5-.8 1.3-1 1-.3l-.4 1.1c-.1.6-2 2.4-2.5 2.5a4 4 0 0 0-1.2.7l-1 .8 1 .3c1.8.4 3.9.3 5.5-.4l1.5-.5V35c-.2-1.4.4-1.5 1-.2l.5 1-.5.5c-.2.3-1.1.8-2 1.1-1.2.5-1.8.6-3.7.6-5.8-.2-7.7-.1-9.4.3-3 .7-3 .7-3.2.2zm132.8 0c-.2-.5 1-1.7 1.7-1.7.3 0 .2.2-.2 1-.7 1-1.2 1.3-1.5.7zm40.4-.2-2-.4c-1 0-1.7-.2-1.7-.6 0-.4 3.2 0 5 .5.8.2 1.4.5 1.4.6 0 .4-1.2.3-2.7-.1zM6.8 37c-.1-.1.1-.3.5-.4l.6-.4c0-.4-1.5-.5-2.5-.1-.6.2-2 .3-3.2.3-2 0-2.2 0-2.1-.4 0-.4.4-.4 2.3-.4l2.2.1.7-.5c.9-.7 1.1-.7 2-.2.4.3.9.4 1.2.3l3.1-.4c2.8-.3 3.1-.4 2.7-1-.4-.4 0-.6 1.3-.6.7 0 1.5-.2 1.9-.4.8-.5 1.5-.5 1.5 0s-.7.8-2.7 1c-1.2.2-1.5.3-1.5.7 0 .3-.2.7-.5.9l-.6.4H21.8c.6.3-1.2.5-4.7.5-2 0-5 .3-6.4.5-3.2.4-3.7.4-4 .1zm5.6-1c.5-.4-1.3-.4-2.3 0-.6.1-.4.2.6.2.7 0 1.5-.1 1.7-.3zm181.4.8c0-.2-.7-.5-1.4-.7-1.6-.5-2.3-1.2-1.3-1.2 1 0 3.3.8 3.5 1.2.2.7-.4 1.3-.8.7zm-139.2-.3c-2.3-.1-1.6-.7 1-.8h2.1v.4c-.2.5-.7.6-3.1.4zm-3.9-1.8c-.3-.3.7-1.7 2.2-3.3.8-.9 1.5-1.5 1.6-1.5.6 0 .2.6-1 2-.8.8-1.5 1.7-1.7 2.1-.4.7-.8 1-1 .7zm128.3 0c-.3-.6 1.2-1.6 3.7-2.6 1.4-.5 2.6-1 2.7-1.2.2-.4.9-.3.9.2 0 .6-1.3 1.3-3.9 2.2l-2.3 1c-.8.7-.9.7-1.1.3zm5.4-.6c-.6-.4 0-.6 2.2-1s3.4-.3 3.4.3c0 .3-.4.4-1.8.4-1 0-2.2.1-2.6.3h-1.2zM3.4 34c-.5-.4-.2-.9.6-.9.5 0 1.4-.3 2-.6l1.4-.6c.2.3-.7 1-2 1.7-1.6.6-1.8.7-2 .4zm152-.4c-.1-.2 0-.4.3-.6.5-.4 3.3-1.2 5-1.4 1.3-.2 1.2.4-.2.7l-3 1c-1.2.3-2 .4-2.1.3zm-132.2-.1s0-.4.4-.7c.6-.6.6-1.3 0-2.1-.6-.7-.4-1.1.3-.9.5.2 1 1.3 1 2.1 0 .3-.3.9-.6 1.2-.7.6-.8.7-1 .4zm-15-.5c0-.2.1-.4.3-.4l.2.4c0 .2 0 .4-.2.4s-.3-.2-.3-.4zM0 32.6c0-.2.3-.4.7-.6C3 31 5 29 5 27.7c0-.2.1-.4.3-.4.1 0 .3.4.3.8 0 1-1.4 2.6-3.5 3.8C.4 33 0 33 0 32.6Zm21-.4c-.2-.4-.7-.7-1.2-.8-1-.2-.8-.8.3-.7 1.5.2 2.3 1.2 1.5 1.9-.3.2-.4.1-.7-.4zm19.6-.6c-2.7-1.4-6-2.3-7.3-2-.6 0-1 0-1.3-.3-.8-.7-7.8-.8-10.2-.2-1 .2-1.8.3-1.9.2-.2-.2.5-.7 1.2-.7.4 0 .7-.2.9-.6.2-.6.4-.7 1.4-.7.9 0 1.2.1 1 .4 0 .2.7.4 4 .5 2.2 0 4.3.2 4.6.3.4.2.6 0 .6-.2 0-.5 1.2-1.2 1.5-.9.1 0 0 .4-.3.7l-.4.6 2.6.8c2.5.7 4.5 1.6 5.6 2.5 1.2 1 .5.8-2-.4zm6.4 0a9 9 0 0 0-5-6c-1.5-.7-2.1-1.2-1.4-1.2.5 0 .5-.5 0-.7-.2 0-.4-.3-.4-.5 0-.7.8-.4 1.7.6l3.4 3.5a7 7 0 0 1 2.2 4c.2 1.2-.3 1.5-.5.3zm69-1c-1-.4-1-1.1-.2-1 .7.2 1.7.9 1.5 1.2-.2.3-.3.3-1.4-.2zM7.4 30.2c-.4-1.2 2.7-6.5 5.5-9.4 1.5-1.5 2-2.5 1.1-2.5-.7 0-3.9 1.2-4.8 1.8-.5.3-1 .6-1.3.6A21 21 0 0 0 3.2 23c-.8.5-1.4 1.1-1.7 1.8-.2.6-.7 1.2-1 1.5l-.5.5v-.5c0-.3.2-.8.4-1 .5-.7.5-1.5 0-2-.4-.2-.5-.4-.2-1 .2-.3.2-.7 0-1-.2-.3 0-.5.5-.8l1.3-.8c.5-.3.6-.7.6-1.2 0-.9.4-1.3 2.5-3 1.1-1 2-1.3 2-.8 0 .2-.4.5-.9.9-.5.3-1 1-1.3 1.3l-1.8 2.5c-3 3.7-2.7 4.2 1.2 2.1a59 59 0 0 1 6-2.9c1.3-.4 1.4-.7.4-1l-1-.4-1.3.8-1.5.7c-.5 0-.3-1 .3-1.4l1-.7c.9-.8 2.6-2 2.9-2 .1 0 .3.3.3.7l-.2.8a2 2 0 0 0-.8.4l-.5.4 1.8-.1c1.5-.2 2-.1 2.3.2 1 .9 2.2.1 6.5-4.2 2.3-2.2 4-4 4-4.2-.4-.5-7.4.1-10.3.9l-1 .3-.1 1c-.3 1.6-.4 1.9-.8 1.9s-.4-.2-.3-1.1c.1-.8 0-1.1-.2-1.2-.6-.3-3.2.5-6.3 2-2.7 1-3.8 1.3-3.2.7.5-.4 3.9-1.8 6.6-2.7A70.1 70.1 0 0 0 13.2 9c.2-.1 0-.2-.4-.2-1 0-1.2-.4-.2-.7.8-.3 2 0 2.2.5.2.1 1 0 2.8-.2 1.5-.3 4-.5 5.6-.5H26l1.7-.8c1.2-.5 1.7-.9 1.6-1-.7-.7 0-1.2 1.9-1.7.8-.1 1.3-1.4 1-2.4-.4-.9.1-1 1-.2l.6.6-.3.6-.4 1c0 .7 0 .6-1.5 1.2-1.3.4-1.6.8-1 1 .7.2 0 1-1.5 1.5-2.6 1-5.1 2.8-9.3 6.7-1.8 1.7-1.9 2.3-.4 1.8 1-.4 2.2-.3 2.4.2 0 .1-.5.3-1.6.4-2 .3-3.6.8-4 1.3 0 .2-.7 1-1.3 1.7L13.9 21l1-.4c3.2-1.8 5.7-3 6.9-3 .7 0 .2.5-1 .9A21.8 21.8 0 0 0 10 26a10 10 0 0 0-1.4 2.8c-.3 1.4-.8 2-1 1.3zm-6.6-1c-.2-.3 1-.9 2-1 1 0 1 .5 0 .6-.5 0-1.1.2-1.4.4H1zM156.7 28a32.8 32.8 0 0 0-14-.6c-.5.1-.7 0-.6-.2.4-1.3 8.3-1.3 13.6-.1 3 .7 3.3.8 2.9 1.1-.1.1-1 0-2-.2zM27.5 26.7c0-.5.7-2.1 1.4-3.1l.7-1.6c.2-.6.5-1 .7-1 .6 0 .3 1-1 3.7-1.1 2.1-1.8 2.9-1.8 2zm96.4 0c.3-1 8.3-3.6 9.8-3.3 1.2.3.8.7-1 .8-2 .2-4.6 1-6.4 1.8-1.8 1-2.6 1.2-2.4.7zM35 26c0-.2.1-.6.4-1l1.4-2.1c.8-1.4 1.3-1.8 1.3-1 0 .7-2.2 4.3-2.6 4.3-.2 0-.4 0-.5-.2zm132.6-.8c-1-.4-7.1-1-10.9-1-1.8 0-2.4-.3-1.5-.7.5-.2 8.9.3 11.2.6 2.3.4 2.7.5 2.7 1 0 .4-.7.4-1.5.1zm-51-.8c-.3-.4 4.8-2.3 6.4-2.4.8 0-.1.5-2 1l-2.8 1.2c-1 .5-1.4.6-1.6.2zm-73.4-2.2c-1-1.2-1-1.5-.5-1.5.4 0 2 1.9 2 2.3 0 .7-.7.3-1.5-.8zm4.4-.4c-.7-1-1-1.9-.6-1.9.1 0 2 2.7 2 3 0 .5-.7 0-1.4-1zM25 21.5s.5-1 1.3-2.1l1.5-2.1c0-.4 2.4-2.2 2.6-2 .2 0-.2.7-1 1.5L27 20c-1.2 1.7-1.6 2-1.9 1.5zm10.5-.8c0-.6 1.1-2 1.4-1.8.3.3-.7 2.3-1.1 2.3-.2 0-.3-.2-.3-.5zm-10.6-2.1c0-.4 1.5-3.1 2-3.5l.8-1.2c.4-1 1.1-1.4 1.1-.7 0 .2-.6 1.3-1.4 2.5L26 18.4c-.2.5-1 .6-1 .2zm20.6-.3c-.8-.1-1.6-.8-1.2-1.2 0-.1.5 0 1 .3.6.2 1.6.4 2.6.4 1.2 0 1.6 0 1.6.4 0 .3-.4.4-1.5.3-.9 0-2 0-2.5-.2zM35 17.2c0-.5.9-1.3 1.3-1.3s.4.2-.1 1c-.5.7-1.2.8-1.2.3zM12 15.7c.1-.2.5-.3.8-.3.4 0 .7.1.7.3l-.8.2c-.5 0-.8 0-.7-.2zm22.8 0c-.2-.3.6-1 1.8-1.5 1.5-.6 1.3.2-.3 1-1.3.8-1.3.8-1.5.5zm13.2 0c-1.1-.1-.8-.8.4-.8 1 0 1.6.3 1.3.7-.2.2-1 .2-1.7.1zm-34-3.1c-.5-.4-.2-.8.8-1.5l1.4-.7c.5 0 .1.8-.7 1.4-1.1.8-1.4 1-1.6.8zm11.5-.7c.3-1 3.6-2.4 4.2-1.8.4.4 0 .7-1.6 1.2a5 5 0 0 0-1.5.7c-.3.4-1.3.3-1.1-.1zm12.6-.2c-.3-.2-.1-.4.9-.8.9-.4 1.6-.5 2.9-.5 2 .1 2 .6 0 .7-.8 0-1.9.3-2.4.5-1.1.4-1 .4-1.4.1zm11.3 0c-.3-.4.5-.8 1.7-1 .8-.1 1 0 1 .3 0 .2-.3.4-.7.5l-1.3.3h-.7zm-32-.8c-.2-.4-.1-.6.2-.7.5-.2 1.3.5 1 1-.2.4-.8.3-1.1-.3zM0 10.6c0-.4 2.6-3 2.8-2.8.1.1-2.2 3-2.6 3-.1.1-.2 0-.2-.2Zm156.6-.8a197.7 197.7 0 0 0-9.6-3 102.4 102.4 0 0 0-8-2.6c-1-.4-2.5-.9-3.4-1-4.6-1.2-6-1.7-6-2.4 0-.1 1.3-.2 2.8-.2 2.2 0 3 .1 4.2.5a33.2 33.2 0 0 0 5.3 1.7 290.8 290.8 0 0 0 12.7 4c.3.2 1.7.7 3 1 2.5.8 4 1.6 3.6 2 0 .2-.3.2-.6 0l-1-.2-1.4-.4-2.1-.7-2.4-.8a81.2 81.2 0 0 0-7-2.5h-.7c0 .2.4.4.8.5.4 0 1.9.7 3.3 1.3a25 25 0 0 0 3.2 1.4c1 .2 4.7 1.5 4.7 1.6 0 .2-.6 0-1.4-.2zm-21.1-8-.6-.2h-.3c.1.3.9.4.9.2zM10 8.4c-.2-.7 1.2-2 2.5-2.2.6-.2 1.2-.5 1.2-.7 0-.6 1-1.3 1.9-1.3.7 0 .8 0 .8.5 0 .4-.1.5-.5.5-.3 0-1 .4-1.5 1a4 4 0 0 1-2 1.1c-.4.1-1 .4-1.1.7-.4.6-1 .9-1.3.4zm23.4.2a.7.7 0 0 1-.2-.5c0-.7.6-1 2.2-1.2 2.2-.2 3.4-.5 4.3-.8 1.2-.4 4.1-.6 4.1-.3s-1.5.7-4 1c-.6.1-1.8.4-2.5.7-.8.3-1.6.4-1.7.3-.1 0-.7.1-1.1.4l-1 .4zM21.6 7c-.3-.3-.2-.6.4-.9.8-.4 1.4.2.6.7-.5.4-.7.5-1 .2zM20 6.7c-.2-.3 0-1 .4-1 0 0 .3 0 .5.3s.2.4-.2.7H20zm79.4-.6c-.4-1.5 0-5.3.5-5.3.2 0 .3 1 .3 3s-.2 2.9-.4 2.9l-.4-.6zm121.2-.6c-1-1.2-2.4-3.8-2.2-4.2.2-.2 1.6-.3 1.8 0l-.1.5c-.4.5.2 1.5 1.5 3 .5.5.9 1 .9 1.3-.2.8-1 .6-1.9-.6zM.1 5.3c0-.2.5-.4 1.1-.4l3.6-.3c2.6-.4 4.2-.3 4.9.2.4.4.2 1-.3.6-.6-.5-1.6-.6-3.8-.3-5.3.5-5.7.6-5.5.2Zm34.7-.7c-.8-.9-.8-1.1 0-1.1.7 0 1.4.7 1.4 1.4s-.6.5-1.4-.3zm-9.4.2-1.1-.2c-1.1 0-1.5-.3-1.5-1 0-.5-.2-1-.4-1.1-.6-.6.5-1 2.2-1H28c2-.3 3.8-.1 2.9.2-.4.2-.5.4-.3 1v1c-.3.4-.9.1-1-.5-.2-.7-2-1.4-2.8-1l-1.5.2c-.9 0-1.7.6-1.3 1l1 .1c1 0 2.2.8 1.9 1.3-.2.3-1 .4-1.5 0zm1.8-1c-.3-.7-.2-1 .4-.7.5.1.6 1 .2 1.3-.2.1-.4-.1-.6-.5zM39 3c-.5-.5-1-.8-1.2-.8-.2 0-1-1.4-1-1.7 0-.6 2.3.4 2.6 1.1 0 .2.4.7.8 1 .3.3.6.7.4.9-.2.4-.5.3-1.6-.5z"/>
</svg>
