<?xml version="1.0" encoding="utf-8"?>
<svg xmlns="http://www.w3.org/2000/svg" xmlns:svg="http://www.w3.org/2000/svg" version="1.1" viewBox="0 0 173 138">
  <title>The rabbits stand next to Mr. Tod’s window and gesture at each other.</title>
  <path d="M110.3 137.3c-6.8 0-12-.3-12.5-.4-.6-.2-3.7-.3-8-.3-8.6 0-9.6 0-25.3-.7a1280.7 1280.7 0 0 0-40.8-.6c-1.1-.1-3.6-.2-5.4-.1-3.2.1-4.9 0-12.3-1-1.3-.1-1.8-.3-2-.8-.3-.3-.6-.5-.8-.5-.8 0-1-.9-1.2-5.3a79 79 0 0 0-.5-6.5c-.3-2-.4-3.5-.3-10.6 0-2 0-4.5-.2-5.4v-5.9c.3-2.9.3-4.8 0-7-.2-2-.3-7.2-.3-14.5 0-11.9 0-13.6-.3-22.2-.2-3.6-.2-6.2 0-8 .2-1.4.3-6.5.3-11.4 0-5 .1-9.6.3-10.3.1-1.1.1-1.7-.2-2.4-.3-.6-.3-1.7-.2-4.6C.7 15.5.5 9.4 0 5.2-.2 3.2.6 1.8 2.4.8L3.7 0 17 .2a1453.8 1453.8 0 0 0 77.6.6 39727.3 39727.3 0 0 0 58.7 0l8.3.3c6.8.3 9.7.7 9.8 1.4l.1 1c.2 1.4.5 10.8.5 14.3 0 2-.2 4.5-.4 5.6a8.7 8.7 0 0 0 0 3.4c.3 1.6.3 1.3.4 23.1a940.2 940.2 0 0 1-.5 57.4c.2 4 .3 19 0 24.7 0 2-.1 3.6-.3 4-.2.3-.9.8-1.6 1-1.3.5-1.8.6-32.7.4H110.3zm37.3-3.8c0-.4.6-.7 2.3-1.3l2.6-.9c.6 0 .7.6.1 1l-.6.5.8-.1c.7-.1 1 0 1 .4.2.7.6.8 2.4.7 1.3-.2 1.7-.3 1.8-.7.2-.7 1.7-.6 2.5.1.5.5.6.6 2 .2a4 4 0 0 0 2.4-1.2c1-1 2.2-4 2.5-6.4l.6-3.1a179.7 179.7 0 0 0 .4-33.6s-1.6 0-3.4.3c-2.7.3-3.5.5-4.5 1.2-.7.4-1.6.8-2 .8-.4 0-1.2.4-2 1-2.3 1.8-3.2 1.1-1.3-1l2.8-2.7c1-1 2.6-2.3 3.6-3.1 2.7-2 3.6-2.8 3.2-3-.5 0-.3-.8.2-.8.3 0 .6.2.6.4s0 .4.2.4c.7 0 .2.8-1.3 2-1.5 1.3-2.6 3-2.2 3.3.2.2 4-.2 4.3-.4l-.4-.8c-.3-.5-.3-.8-.1-1 .4-.4 1.4.7 1.4 1.5 0 .4.2.6.6.6.5 0 .5-.2.6-3.3v-3.2l-.6.1c-1 .3-1-.3-.2-.8.7-.3.8-.5.8-1.5 0-.6 0-1-.1-.7-.2.6-1.4 1.4-1.7 1.2-.2-.1 0-.5.2-.9.3-.3.6-.8.6-1 0-.2.2-.5.6-.7.5-.4.6-.6.6-3.5a14 14 0 0 0-.2-3.2c-.2-.2-.9.4-2 2-.6.6-.3.7.2 0 .4-.4.6-.5.8-.3.4.3-.3 1.5-1 1.8l-.6 1-.6 1c-.2 0-.5.7-.7 1.7-.2 1-.4 1.7-.6 1.8l-.3 1c-.2.8-.3 1-.7 1-.7 0-.7-.1-.1-1 .3-.3.5-1.2.5-2 0-1.4.5-2.6 1.1-2.6.2 0 .3-.2.3-.6 0-.3.2-.8.4-1 1-.7.4-.7-.7 0-1 .8-1.8 1-1.8.7l1.5-1.7c.8-.8 2.2-2.2 3-3.2l1.7-1.6.1-7v-7c-.4 0-1.4 1.5-1.9 2.7-.5 1.1-1.5 2-2.1 1.7-.6-.2-.5-.6.3-1 .5-.2.8-.7 1-1.3.2-.5.8-1.7 1.4-2.6 1.4-2.1 1.5-3.6.4-3.9h-2c-1 .3-1.3.3-1.7-.1-.2-.3-.6-.5-.7-.5-.5 0-2.4 3.6-2.6 4.8-.1.8 0 1 .3 1 .3-.1.4 0 .3.5 0 .3.2.7.5.8.7.4.7.6-.2 1.9-.4.7-.5 1.2-.4 1.5.2.3.4.3 1-.3.8-.7 1.4-.9 1.4-.5l-1 2.1a8 8 0 0 1-2.3 3 8 8 0 0 0-1.4 1.4l.4.4c.3.3.3.5 0 1.2l-1.2 1.8c-1.1 1.4-1.4 2.3-1 3.2.2.7.2.8-.4 1.5-.9.9-1.8 2.7-2.3 4.5a6.8 6.8 0 0 0-.2 3.3v2c-.4.5-.9 0-.9-.6l-.2-1c-.2-.3-.3-.3-.4.2l-.6 1.5c-.5 1.5-.4 1.5 1.5.5.4-.2.5.8 0 1.1-.2.3-.3.5 0 .8.1.1.2.8 0 1.5 0 1.2 0 1.3.4 1.3 1 0 2.2-1.4 2.6-2.8.4-1.2.7-1.6 2-2.5 1.8-1.3 2.3-2.1 2.6-4.5.2-1.7.5-2.6.8-2.6.3 0 .1 3.4-.2 4.5-.2.7-.2.8.4.8.3 0 .7 0 .8.2.2.4-1.7 2.6-2.6 3-1 .3-1.1-.2 0-.9.6-.3 1-.9 1-1.2.2-.8 0-.8-.9.1-.4.5-1 1-1.6 1.4-1 .7-1.6 1.8-1.4 2.7 0 .6-.1.9-1.3 1.8-.7.6-1.4 1-1.6 1-.1 0-.2.4-.2.9 0 .6-.2.8-1 1.2-.9.5-1.1.5-1.8.2a5 5 0 0 0-1.6-.4c-.5 0-1 0-1-.2-.2-.4.5-1 1.3-1.3.4 0 .6-.2.6-.3 0-.7-2.6.7-3.1 1.7s-.2 1.2 1.6 1.1c1.8 0 3.1.4 3.1 1 0 .3-1.8 1.5-2.2 1.5-.1 0-.3-.3-.4-.7-.2-.5-.4-.7-1-.6-.4 0-.9 0-1-.2-.3-.1-.4.1-.4 1 0 .8 0 1-.4.9h-1.2l-2.2.5c-1 .1-1.2.2-.9.4 1.1.6 0 1.2-3.2 1.6-2.4.2-3.4.5-4.5 1.2-1 .7-3 1.1-5.8 1.1-1.4 0-2.6.1-2.7.2 0 0 0 .3.3.5.2.3.6.4 1.2.3.6-.1 1 0 1.5.4.4.3.9.5 1.1.5.5 0 .5 0 0-.4-.6-.4-.5-1 .2-1s1.5.6 1.5 1c0 .5 1.8.9 5 1 2.8.2 3.7 0 4.8-1 .5-.4 1-.5 2.3-.6 1 0 2.1-.1 2.6-.3l1-.3.7-.4c.5-.5 4.1-.5 5.1 0 .5.2 1.1.4 1.5.4.9 0 .6.6-.5.9h-2.2a7.8 7.8 0 0 0-4.7.3c-.5.2-1 .4-1.2.3l-.5.1c-.1.2-.7.2-1.5.1-1.2-.1-1.5 0-2 .4-1 .7-2.9 1.4-3.8 1.4-1.2 0-4.6-.3-6-.6-1-.3-1.5-.2-2.2 0-.7.3-.8.3-1.3 0-.2-.3-.7-.5-1-.5-.3 0-1.1-.3-1.8-.7-1.3-.7-1.4-.7-5-.5H118c-.7-.2-.7-.3-.2-2.3.2-.6.1-.6-.4-.6-.6 0-.7-.2-.8-1.4-.3-1.7-.7-2.7-1-2.7-.6 0-2.4 2.2-2.4 2.8 0 .7.5 2 .8 2l.4-.3c.4-.4 1.8.3 2.2 1 .3.6 0 1.6-.5 1.6-.2 0-.3.1-.3.2 0 .2 1 .3 2.4.3 2 0 2.5.1 3.4.7.6.4 1 .9 1 1-.1.5-1.8.6-3.8.2-1.5-.2-1.7-.2-2 .2-.3.4-.4.4-.7 0-.5-.7-2.4-.6-3.3.1-.5.4-1 .5-1.5.5-.7-.2-.8-.1-.7.4.2.7-.2 1-1 1-1-.2-.7.4.3.6 1.8.2 2.4.1 3.1-.5.5-.5 1-.7 1.8-.7 5-.2 5.3-.2 5.3.1 0 .8-.8 1-3 .9h-2.5c-.2.4-2.3 1.4-3 1.4l-1.2.3c-.6.3-.8.2-1.4-.3-1.1-.9-2.5-1.4-3.2-1.2-.5 0-1 0-1.4-.3-.4-.3-1.5-.5-3.4-.6-3-.2-3.7-.1-6.7 1-1.9.7-3.3 1-5.9 1.3l-2.6.6-1.4.2c-.3 0-.6.1-.5.2l.4 1c.3.6.3.8 0 1.2-.4.9.1 1 4.5.9 3.8-.1 4.6 0 3.7.6l-5 .3a30 30 0 0 0-6 .5c-.9.2-2.3.4-3.2.4-1.9 0-4 .4-5.3 1.1-.4.3-1.1.5-1.5.5-.8 0-2.3-.5-3-1l-1.8.1c-1.7.3-3.7.3-5.2-.2-2.3-.6-4.8-.8-11.1-.5-2 .1-2.6 0-2.2-.5.2-.2 1.2-.3 7.7-.4 3.7-.1 4-.1 5.2.5.7.3 1.7.6 2.4.6a80.8 80.8 0 0 0 13.7-1c3.1-.4 5-.8 4.9-1.1-.1-.1-.6-.2-1 0a2 2 0 0 1-1.7-.4c-1.1-.8-2-1.1-3.4-1.3-.7-.1-1.4-.4-1.7-.7-.4-.5-.7-.5-1.9-.4-.7 0-1.7.4-2.2.7-2.7 1.7-5.7 2.4-7.4 1.7-.8-.3-1-.5-.8-1 0-.3 0-.8-.3-1-.3-.5-.5-.6-1.3-.2-1.3.4-3.3.4-4.1 0-.3-.2-1.6-.4-2.8-.4-1.3 0-2.4-.2-2.6-.4-.3-.3-.4-.2-.6.2-.5 1-.2 1.1 2.3 1.1 1.8 0 2.4 0 2.3.3 0 .3-.9.4-2.6.4-2.5 0-2.5 0-3.2 1-.5.4-1.2 1.3-1.8 2-1 1.2-1.2 2.3-.3 3 .7.6 1.8.8 2.2.3.5-.6 4.4-.5 4.4.2 0 .1-.8.2-1.8.2-2 0-2.5.4-1 .6.5 0 1.3.3 1.9.6.7.3 1 .5 1 1 0 .4-.2.9-.5 1.1-.6.6-.4.7 1.4.7.9 0 2.4.2 3.3.4 1.6.3 1.9.3 2.4 0 .3-.3 1.3-.5 2.6-.6 1.6 0 2-.1 2-.5.1-.2.4-.4.7-.4H72c5.1 0 5.8 0 6.6-.5l1-.5-.9-.3c-.6-.3-7.1-.8-9.7-.8-1 0-4.1-.7-4.5-1-.2-.2-1.8-.3-4-.3a59.1 59.1 0 0 1-6.6-.3c-.8-.4-1.3-.4-2.8-.3-1.2 0-1.8 0-2-.2 0-.1-.6-.3-1-.3-1.5 0-1-.5.6-.6l2.3-.3c.5 0 1 0 1.3.3l1 .4c.3 0 .7.1 1 .3.4.2 2.3.3 5.4.4 3.4 0 5.2.1 6.2.4 1 .3 3 .5 6.6.6 3 .1 5.7.3 6.4.5a4 4 0 0 0 2.2.1c2.1-.5 8-.3 8.8.3.4.4 3 0 4.1-.7 1-.4 1.3-.5 1.3 0l.4.6c.5.4.5.4 0 .8-.5.3 0 .4 4.6.4 3.3 0 5.6-.2 6.4-.4 1.3-.3 1.3-.3.6-.6-.5-.3-1.3-.3-3.6 0-4.7.6-5.3.6-5.4.1-.2-.6 0-.6 5.2-1.3l4.6-.6h-7.3c-1.4 0-5.2 0-6.5.2-.9.2-1.4.1-1.5 0-.3-.5 1.3-1.1 2.6-1.1l2.4-.3c1-.3 1.4-.3 2.4.1.8.3 1.3.4 1.8.2.7-.3 6-.2 8.2.1.8.1 1.2.3 1.2.6s-.2.3-1.3.2c-1.3-.2-1.4-.2-1 .4.4.6 1.7.7 2.5.1.3-.2.8-.4 1.2-.4 1.1 0 3.4-.6 3.2-.8l-1.2-.2c-.7 0-1.1-.2-1.5-.6-.3-.3-.7-.5-1.5-.5-1.2 0-1.6-.4-.6-.6l2.2-.3 2.8-.3c1.2-.2 1.3-.1 1.6.5.3 1 .6 1 2.7.6 1.5-.4 2-.4 2.4-.2.3.2.6.2.9 0h.8c.5.3 4.6-.4 5.6-.9l2.6-1c2.6-1 9-2 9-1.2 0 .4-.9.7-3.1.9-2.7.2-5.7 1-7.5 2a18 18 0 0 1-7.4 1.4l-1.1.1a59.5 59.5 0 0 0-9.7 2c0 .3 3.3 0 4.2-.3.4 0 .6 0 .6.3 0 .2-.5.5-1.6.7-1.2.2-1.6.4-1.5.7.2.6-.6 1.2-1.6 1.2-.7 0-1 .1-1.3.7-.2.6-.6.9-1.2 1-1 .2-4.1 1.6-4.3 2-.3.4 7.4-.3 10.2-1a33 33 0 0 1 5.2-.5c2.7 0 4-.2 5.3-.6 2.3-.8 9.6-1.4 10.4-.9l.6.3c1-1.5 1.6-2.1 2-2.1.5 0 .7.8.3 1.4-.6 1-.1.8 1-.4.6-.6 1-1.3 1-1.6 0-.7.8-1.1 1.3-.7.5.4.3 2-.3 2.5-1.4 1.3-3.5 2.3-4.2 2.1-.8-.2-2 .3-2 1-.2.5-1.3.7-3 .4-1.3-.2-1.6-.5-1.3-1.1.1-.4.3-.5 1.2-.3.6 0 1.2.3 1.4.4.1.2.5.3.8.3.5 0 .6-.2.6-.6-.1-.6-.2-.6-2.6-.5-1.6 0-4 .4-6.1.8a115.7 115.7 0 0 1-8.2 1.8c-1.5.4-5.5 1.2-8.8 1.7-1.6.2-2 .2-2.1-.1-.4-.7-3.7-.5-6 .2-1.2.4-2.9.7-4.1.8-1.8 0-2.3.2-3.3.9l-1.6.8c-.1 0-.3.1-.3.3 0 .2.5.2 1.6.1 1.3-.1 1.6-.1 1.6.2 0 .2-.3.4-.6.5-1 .3-.5.7.8.5 1.9-.4 2.4-.3 2.4.1v.4l-1.6.5c-1.4.5-1.4.5-.5.6.6 0 1.1-.2 1.3-.4.4-.5 1.2-.5 1.7 0 .7.7 3.3 1 4 .3.3-.1 1-.4 1.8-.5 1.6-.3 1.3-.3 4 0 1.6 0 2.6 0 3.9-.3 1-.3 2.4-.5 3.2-.6 1.2 0 1.7-.3 2.4-.8l1.4-1c.3 0 1.3-.7 2-1.4 1.7-1.3 2.7-1.5 2.8-.4 0 .3.3.5.4.5l1.9-.8c1-.4 1.7-1 2-1.3.5-.9.9-1 4-1 2 0 2.7 0 2.9.3.2.4.2 2-.1 2.6-.2.2 0 .5.3.9.3.3.6.8.6 1 0 .2.3.5.7.6.5.1.6.3.5.7-.2.7.4 1 1.8 1 1 0 1.3-.2 1.5-.7.2-.6.8-.9 2-.9.6 0 .9 0 .9-.3 0-.5-.3-.5-2.5-.5-2.8.1-3.5-1.2-.8-1.5.7-.1 1.2-.3 1.2-.4 0-.2-.3-.2-.5-.2l-1.8.2h-1.3v-1c0-1 0-1 1.5-1.9.8-.4 1.5-.9 1.5-1h-1c-1.5.2-1.5-.6 0-1.3 1.4-.6 2-.7 2.3-.1.2.5.7.5 1-.2.3-.3.6-.5 1.1-.4.6 0 .7.2.7.8 0 .9-.2 1-1.2.6-.3-.1-.5 0-.6.3 0 .3-1 1-1.9 1.6-1 .6-1.7 1.2-1.6 1.2l1.5-.1 2.5-.4 2.1-.3c.7-.2 1.5-.2 2.5 0s1.5.2 1.7 0c.2-.2 1-.7 2-1.1 1.2-.7 1.4-.8.8-.8-.8 0-1.3-.6-1-1 .2-.4 3-1.3 4.6-1.6 1-.1 1.4 0 2.2.4.5.3 1.1.5 1.4.5.5-.2 1.2.2 1 .6-.2.1-.5.3-1 .3-.4 0-.5 0-.4.5.2.7-.4 1-2.8 1.5-3 .5-3.4 1-1 .9h2.2c.3 0-.8 1.6-1.3 1.8h-2.4c-2.2 0-3.8.5-4.9 1.6-.6.7-.7.8-.2 1 .6.1.8.9.5 1.2-.5.5-4 1-6.6.8h-2.4l1.8 1c2 1.1 3.5 1.3 3.5.6zm13.1-1c-.3-.4-1-.5-2.6-.5-2.4 0-2.7-.2-2.5-.8.3-1 6.2-1.2 7.3-.4.4.4.4 1.4 0 1.8-.5.4-1.6.4-2.2-.1zm2-2.3c-.5-.3-1-.4-1.3-.4-.2.1-.7 0-1-.2-.8-.5-2.4-.4-4 .4-1.1.6-2 .5-1.9 0 .2-.6 2.8-2 3.9-2.2 2.1-.4 3.1-.2 3.7.5.3.4 1 .9 1.6 1 .7.2 1 .5 1 .9.1.7-.7.8-2 0zm-53.8.1c-1.3 0-1.8-.6-1.3-1.3.4-.4 1.5-.5 1.7 0l2 .2c1.8 0 2 0 1.7.7-.3.3-2.4.6-4.1.4zm55.1-1.6c-.6 0-.8-.8-.2-.9h1.6c1.3-.2 1.6 0 .6.7-.6.4-.8.5-2 .2zm-49-.7c-.5-.7.2-1 1.7-.8 1.6.2 1.8.3 1.8.8 0 .6-3 .5-3.5 0zm47.6-3.4c-.2-.5.5-1.1.9-.8.4.4 0 1.2-.4 1.2a.6.6 0 0 1-.5-.4zm-14.3-1c-.2-.1-.6-.9-.9-1.6-.2-.8-.8-2-1.2-2.7-1-1.5-1-2-.4-3.4.5-1.2 1-1.3 1-.2 0 .8 1.8 4.5 2.2 4.5.4 0 .1-1.7-.6-3.4-.8-1.8-.8-2-.6-3.7.1-1.3.3-1.8.6-1.8s.4.4.5 1.6c0 1 .5 2.3 1 3.3.9 2.1 1 4.6.3 5.2-.3.2-.5.7-.5 1.1 0 1-.7 1.5-1.4 1.1zm-3.8-2.7c-.5-.5-.7-1.4-.4-1.6.1-.1.4 0 .7.4.7 1 .4 2.1-.3 1.2zm7-.3c-.3-.5-.2-1 1-2.8 1-1.7 2.2-1.2 1.3.6l-.4 1.1c0 .3-1 1.5-1.4 1.5l-.5-.4zm4.4-.5c-.5-.9-.5-1 .1-1 .7 0 1.4-.2 1.4-.5l-.8-.5c-1.5-.5-.7-1.2 1.8-1.8 1-.1 1.5-.4 1.5-.6 0-.5.5-.6 2.2-.3 1.8.2 2 .7.5 1-2.5.7-3.2 1.4-1.3 1.4 1 0 1 0 1 .6 0 .7-1.3 1.5-2.4 1.5a7 7 0 0 0-1.7.4c-1.5.6-1.8.5-2.3-.2zm-100.1-2.2c0-.2 0-.3.2-.2.2 0 .3.3.3.4 0 .1-.1.2-.3.2-.1 0-.2-.1-.2-.4zm95.4-1.8-.2-.8c0-.3-.3-1.3-.8-2.2-.8-1.7-1-2.5-.6-3.3.2-.6.8-.5 1 .1 0 .3.2.6.4.7.2.1.3-.1.1-.8-.1-.8 0-1 .6-1.7.5-.5.7-.6 1-.3.3.2.4.5.3.9-.2.7 0 1.7.4 1.7.1 0 .3-.1.3-.3 0-.6 1-2.6 1.4-2.6.2 0 .7.5 1 1 1 1.3 1.1 3.2.4 3.9-.6.6-1.3.2-1.3-.7 0-.5 0-.7-.2-.6-.2 0-.2.4-.1.9 0 .4 0 .8-.3 1-.2.2-.4.8-.4 1.2 0 1-.6 1.9-1.1 1.7-.3-.1-.5-.7-.5-1.9-.1-1-.3-2-.7-2.4-.7-1.1-.8-.4-.1 1.2.6 1.5.6 3.2 0 3.4l-.6-.1zM54 115c0-.2.6-.3 1.7-.3 2.3 0 2.2.5 0 .6-1.4 0-1.8 0-1.7-.3zm104.7-.5c0-.9 1.3-1.7 3-1.9l2.3-.2c.5 0 .6 0 .6.4s-.2.6-1.2.7c-.6 0-1.7.4-2.3.7-1.4.7-2.4.8-2.4.3zm-108.2-2.1c0-.5.8-.6 3.7-.6 2.6 0 3-.1 3-.5-.2-.6.7-.8 1.6-.5.6.3 1 .8.4.8-.1 0-.3.2-.3.4 0 .5 0 .5-5 .5l-3.4-.1zm24.6-.2c0-.5.5-.6 1.8-.4 1.9.2 1.7.6-.2.6-1 0-1.6 0-1.6-.2zm86-.6c-.2-.4.3-.8 1.5-1 .9 0 1.1 0 1.3.3.2.6.2.6-1.3.8-.8.2-1.3.1-1.4 0zm-3.3-.5v-1.8c.3-1 .5-1.7 1-2 .6-.5 1.1-.2.7.5-.1.3-.2 1 0 1.4.1 1.3-1.2 2.8-1.7 2zm5.5-1.5c-.1-.2-.3-.3-.7 0-.7.3-2.3.2-2.3-.2 0-1.5 1.2-3.2 1.5-2 .1.6.3.6 1 .1 1-.8 2.2-.1 1.5 1-.2.3-.2.5.1.6.4.1.4.2.1.5-.4.5-1 .6-1.2 0zm1.8-2.2c-.6-.3.6-2.2 1.4-2 .8 0 .9 1.3 0 1.8-.6.5-1 .5-1.4.2zm-40.6-.5c-.4-.3-.6-.3-1.6 0-1.8.4-2.6.3-2.5-.2 0-.4.5-.5 2.2-.7 2-.2 2.7 0 2.7.7 0 .6-.4.7-.8.2zm36.4-4.5c-.4 0-.8-.3-.8-.4 0-.3 2.1-.5 2.8-.3.4.2.4.2-.1.6-.5.4-.6.4-1.9.1zm-27.2-1c-.2-.4.2-.6 1.4-.6.7 0 1 .2 1 .3-.1.4-2.2.6-2.4.2zm19-3.7c-.5-.8.5-2.2 1.6-2.2.7 0 .5.9-.5 1.8-.8.8-.9.9-1.2.4zm-3-.5c-.1-.5.2-1 .7-1 .5 0 .8.9.3 1.2-.5.3-.7.3-1-.2zm9-11.4c0-.5.6-.8 1.2-.5.4.1.4.2.1.5-.4.5-1.3.5-1.3 0zm5.7-30c-.3-.4 0-.8.6-.8.7 0 1 .5.5.8-.5.3-1 .3-1.1 0zm.8-1.6c-.3-.4.2-.9.6-.7.4.3.4 1 0 1a.7.7 0 0 1-.6-.3zm-14.7 79.4c.3-.2.3-.3 0-.3s-.6.1-.7.3c-.2.3.2.3.7 0zM117 133c0-.3.5-.6 1-.7 1.9-.6.8-.6-1.3 0-2.6.7-3 1-1.2 1 .9 0 1.4-.1 1.5-.3zm3.7 0c0-.3.2-.3.6 0 .9.5 5 .4 5.7 0 .3-.4.6-.5 1.4-.2 1.4.3 9.8.3 8.7 0-.4-.2-2.1-.3-3.7-.3-2.9 0-3 0-3.4-.7-.4-.6-.6-.6-1.6-.4-.7 0-1.6.4-2.2.6-1.1.6-2.7.7-2.7.2 0-.5 1.3-1.4 2.4-1.6.5 0 1.5-.3 2.3-.5 1.5-.4 2.7 0 2.7.7 0 .4.2.4.8.3.5 0 1-.2 1-.3l-.6-1c-.8-1-.8-1-2.3-.8-.8 0-1.8.3-2.3.5-1.2.5-1.8.5-2.3-.2l-.4-.6-1.2.8c-1 .6-1.3 1-1.4 1.5 0 .6-.8 1.2-2.4 2l-.7.3h.7c.4 0 .8-.1.9-.3zm19.8 0c-.3-.2-.4-.2-.7 0-.2.3-.1.3.4.3s.5 0 .3-.3zm-44.5-1a1 1 0 0 0-.6 0c-.2.2 0 .2.3.2.4 0 .5 0 .3-.1zm-51.4-.7c.2-.7-.5-1.1-2.4-1.3-1.7-.2-1.8-.2-1.8.4 0 .5 0 .6-3.5.4-2.4-.1-3.4 0-3.1.1.2.2 1 .3 1.9.3.8 0 1.6.1 1.8.3l3.7.2c2.7 0 3.2 0 3.4-.4zm17 .1.2-.5-4.5-.3c-4 0-4.5 0-3.5-.4 1.6-.4 9.9-.5 10.2 0 .1.2.6.2 2.4-.3 3.8-1 3.3-1.2-3.4-1.3-5.1-.2-6.3 0-7.6.7l-1.4.4c-1 .3-3.8 1.6-3.8 1.8 0 .4 11 .2 11.3 0zm19 0c3.2-.2 3.2-.2 2.6-.5a14 14 0 0 0-3.3-.4c-1.6 0-3.6-.2-4.6-.3-1 0-2.7 0-3.7.2l-3 .5c-.6.1-1 .3-1.1.5-.1.3.8.4 5.3.2l7.7-.3zm13.2-.1c.8-.3.9-.5.5-.6-.6-.1-2.6.5-2.6.8 0 .4 1 .3 2.1-.2zm42.6-.3a5 5 0 0 0-.6-1.6c-.4-.7-.4-1-.2-1.4.2-.3.2-.5 0-.6l-.2-.7c0-.3-.2-.6-.7-.7-.8-.2-2.7.4-3 .9-.1.4 1.2 2.6 1.9 3 .3.1.4.5.4.8 0 .6.6 1 1.8 1 .5 0 .6-.1.6-.7zM31.9 131h-.5c-.2 0-.2.1.1.1.3 0 .5 0 .4-.1zm114.4 0-.3-.3c-.2 0-.3 0-.3.2 0 .1.1.2.3.2h.3zm-120-.6c2.2-.2 6-1.2 7.2-1.9.4-.2.4-.3-.2-.3a77.4 77.4 0 0 0-10 2c-1.9.3-2.2.8-.5.6a65 65 0 0 1 3.6-.4zm-6.8-.3c0-1.3-1-1.7-4-1.3-2.5.3-5.3 0-5.4-.4 0-.2 1-.3 3-.3 3.1 0 4.5-.3 4.2-.6l-1.3-.1c-1.6.1-1.2-.6.5-.8 1.4-.2 3.1 0 4.7.7.8.2 1.5.3 2.4.1 1.6-.2 7-.2 7.4 0 .2.2 1.3.1 2.5 0 1.6-.2 2.3-.2 2.4 0 .1.5.8.3 1.2-.2.5-.8 3.2-1.2 4-.7.8.5 2 .5 3.4 0l1-.3h-.8c-1.5-.1-3.8-.7-4-1-.1-.5 1.6-.5 3.5 0 1.6.3 2 .3 1.5-.3-.3-.3.3-.4 3.6-.4 3.5 0 3.8 0 3.8.5-.1.4-1.2.5-5.5.2-.5 0-.7.1-.8.5 0 .4 0 .5 2.7.3 5-.4 8.4-.8 8.8-1.3l1-.5c1-.4.2-.7-3.2-1-2.4-.2-3.9-.2-4.2 0-.9.4-3.1.5-3.6.1-.5-.3-2.5-.6-5.4-.7-1 0-1.7 0-2.4.4l-1 .5 2.1-.1c1.7 0 2.1 0 2.1.3 0 .4-.5.5-2.9.6-1.6 0-3.4.3-4 .4a47.3 47.3 0 0 1-10.6 1.1c0-.2.4-.4.7-.4.4 0 .8-.2 1-.4.3-.4-3 0-4.4.5-1.3.4-3.4.5-6.2.2-2.4-.2-6.8.6-7.6 1.4-.3.3-1 .6-1.5.7-1 .2-1.6.6-1.3.8l1.9.3c1 .1 2 .3 2 .5.2.2.7.3 1.6.2 1.2 0 5.4.5 5.7.9.2.1 1.4-.2 1.4-.4zm12.5-3.5c.5-.3 6.3-1 6.5-.9.3.3-.3.5-2.4.8-2.6.5-4.8.5-4.1.1zm22.6-2.1c-1.7-.2-2.6-.6-2.3-.9h2.5c2 .2 2.4.3 2.5.7.1.5 0 .5-2.7.2zm-16.4 5.4h-1.4l.7.1c.8 0 1.1 0 .7-.1zm-14-1c2.7-.3 2.4-.7-.4-.5-1.6 0-2.6 0-3-.2-.9-.5-2-.8-2-.5 0 .1.2.3.5.4.2 0 .5.3.5.5 0 .5 1 .5 4.3.3zM84 128a36.2 36.2 0 0 1 6.9-1.3l2.5-.3c.6 0 1.4 0 2-.2a617.5 617.5 0 0 1 7-2 96.1 96.1 0 0 0-12.5.8l-2.9.7c-2.3.4-8 1.8-9 2.2-.3.2-.6.5-.6.7 0 .4 4.6 0 6.6-.6zm-29.2.2c.7-.2 1.5-.6 1.8-.8.4-.4.5-.5.1-.7-.5-.3-3.6-.3-3.8 0-.1.2-.8.3-1.6.3-1.3 0-3.6.5-4 .8-.2.2 3.2.6 3.8.4l.9.1c.5.4 1.2.3 2.8-.1zm16.4-.6 1-.5-2-.3c-3.8-.6-7.6-.3-7.9.7 0 .3.1.3 1 .2H67l2.8.3 1.6-.4zm74.3-1h-.5.5zm-66.5-1-2-.3-5.3-.6c-3.6-.6-4.3-.6-6.6 0l-1.9.3 3.3.2c1.8.2 4 .3 4.6.2.8 0 2.2.2 3.2.5 1.9.4 4.1.3 4.7-.2zm-70-.5c.4-.5 1.5-.7 6-1l4.2-.1c.5 0 1.1-.2 1.5-.4 1.4-.8 1.9 0 .6 1-.6.5-.6.5-.1.5l2-.5c1-.4 2.8-.7 4.7-.8a44 44 0 0 0 3.8-.4c.6-.2.7-.1.6.3 0 .4-.4.6-2 .8l-1.8.3h1.8c1.5 0 4-.4 7.8-1.3l.8-.1-.9-.2c-.5-.1-3-.3-5.7-.3-3 0-5.1-.2-5.6-.4-.6-.2-1.6-.3-3.7-.1-1.6 0-3.6.2-4.5.1-.9 0-1.9 0-2.3.2-.6.3-.6.3 0 .3l.6.2c0 .4-1.7.5-3.4.3-1.2-.2-1.9-.2-2.3 0-.4.2-1.2.3-2 .3-2 0-4 1.4-2.3 1.7 1.4.2 2 .1 2.3-.4zm101.4.4h-.5c-.3 0-.2.1.1.1l.4-.1zm-26.2-.8c1.6-.4 3-.8 3-1 0-.2-3.3 0-5.5.4-1.3.2-1.4.3-1 .8.3.6 0 .6 3.5-.2zm33.7-.4h-.9c-.8 0-1.6.2-1.8.3-.5.3 1.9 0 2.7-.3zm-39.6-.2c0-.2.5-.3 1-.3l1.8-.3c.7 0 1.7-.3 2.4-.4 1 0 1.2-.2 1-.4-.2-.3-3.6 0-8.3.6-2.2.3-2.5.4-2.5.8 0 .3 4.4.3 4.6 0zm-4-1 2.9-.5c1-.2 1.3-.7.4-.7l-3.7.6c-4.5.8-4.4.8-4 1 .5.4 1.7.2 4.4-.3zm31-.7c.4-.4.3-.4-1.5-.3-2.6.2-3 .3-2.3.7.6.5 3.3.1 3.9-.4zm54.7.6c.3-.3-1.5-.6-2.8-.4-2 .3-1.8.5.5.6 1.2 0 2.2 0 2.3-.2zm-66-.2h3.7c1.3-.1 1.5-.2 1.4-.6 0-.4.2-.5 2.5-.6 1.4 0 2.9-.2 3.1-.4 1-.3-2.6-.5-7.2-.2l-7.2.2c-3 0-3.3.1-4.4 1.2l-.3.4H94zm-82.3-.6c.7-.1 1.3-.4 1.5-.5l4-.4c1.9-.1 3.5-.3 3.5-.5l-.6-.2c-.4 0-1.3-.2-2-.5a4.6 4.6 0 0 0-4.4.4c-1.1.8-4.1 1.8-5.1 1.7-.9-.1-1.4 0-1.2.3.2.3 2.6.2 4.3-.3zm69.7-.1c1.2-.2 1.9-.4 2.2-.7.4-.5.4-.5-.2-.5-1 0-4.3.7-4.7.9-.5.3-.3.7.3.6l2.4-.3zm27.4-1.3c.3-.2.4-1 .2-1-.4 0-2.3 1.1-2.3 1.4 0 .3 1.6 0 2-.4zm-78.7-.2c.5-.3.6-.4.4-.7-.2-.2-.1-.4.4-.6l1.4-.3c1.7 0 2.7-.3 2.7-.8s-.1-.5-1-.4c-.5 0-1.1.3-1.3.6-.3.2-1 .4-1.6.4-1.5 0-2.4.4-2.4 1 0 .3-.1.6-.3.7-.2.1-3.5-1.1-3.7-1.5l-2-.8c-2.2-.6-2.2-.6-2.2-.2 0 .4 2.8 1.8 4 2 .8.1 1.7.3 2 .5.9.5 2.7.5 3.6 0zm21.5-.2c.2-.4-.2-.4-.7 0-.3.2-.3.2 0 .2l.7-.2zm36-.5c.8-.8 0-1-4.5-.9-1.3 0-1.8.1-1.7.4 0 .2.7.3 2 .2 1.4 0 2.2 0 2.7.3.9.5 1.2.5 1.6 0zm-76-.7c.9-1 1.7-2.7 1.7-3.6 0-1-.9-2.3-2-3-1.6-.7-4.7-1.3-5.4-1-.7.4-.7 1.2 0 1 .7-.2 1.9.2 1.9.7 0 .3.3.4 1.5.4 1.7 0 1.7-.1 1.7 2.2 0 1.3-.3 1.7-1 1.2-.8-.4-1.1 0-.5.6.4.5.4.5-.1 1.3-.7 1-.7 1 .4 1 .7 0 1.1-.1 1.7-.8zm36.7.1c.2-.1-.3-.5-1-.8-1-.5-1.4-1-2-2.1-1-1.8-.9-3 .1-3 2.1 0 4.4-5.4 4.4-10.4 0-2.6-.2-3-1.5-2a5 5 0 0 1-1.7.8c-.6.1-.9.3-.9.7 0 .3 0 .7-.2 1l-.3.9c-.1.3-.2.4-.4.1-.3-.2-.3-.4 0-.6.5-.5.3-.7-.8-.9a7 7 0 0 1-1.6-.4c-.5-.3-.8 0-.5.4.4.5.5 1.5.2 1.7-.4.4-1.4-.6-1.6-1.4-.1-.8-.8-.7-1 .2 0 1.3.3 2.5 1.2 3.7.7 1 .8 1.3.6 1.5-.2.2-.2.4.3.8.7.6.7.8 0 .8-.5 0-1-.5-1-1.2 0-.8-1.3-3-1.8-3s-.4.6.1 1.6c.6 1 .3 1.2-.5.6-.5-.3-.7-.7-.7-1 0-.7-.5-1.2-.7-.9l-.2 1.4c0 1.5.4 2 1.9 2.2.9 0 1.3.3 1.9 1.1.5.6.7 1 .5 1.2-.4.2-1.3-.4-1.3-1 0-1-1.6-.9-1.9.2-.2.7 0 1 1.4 1.3.9.2 1 .4.2 1-.7.7-.6 1.1.4 2.5.7.9 1.6 1.6 3 2.4 2 1 2.1 1.1 3.6 1 .9 0 1.7-.2 1.8-.4zm-6.2-5.5c-.7-.2-.5-.6.3-.5.4 0 .7.2.6.3 0 .3-.3.4-.9.2zm.3-1.4c-.2-.1-.3-.3-.2-.4.3-.2 1.8.1 1.8.4 0 .4-1 .3-1.6 0zm1-2c0-.2.3-.2.8-.2l.6.4-.6.2c-.4 0-.7-.1-.7-.3zm.3-1.6c-.3-.3-.2-.6.2-.6.2 0 .4.2.4.4 0 .4-.3.5-.6.2zm-2.1-1.3c-.3-.3-.3-1.2 0-1.2s.8.9.8 1.2c0 .2-.6.2-.8 0zm1.5-1.3c-.2-.3-.2-1.5.1-1.5.4 0 .9 1 .7 1.4-.2.3-.5.3-.8 0zm4.8-3.5c-.2-.5-.2-.6.2-.6.2 0 .4.2.4.5 0 .7-.4.7-.6.1zm-12.2 16.6-.4-.3c-.2 0-.3.2-.3.3 0 .1.2.3.4.3.3 0 .4-.2.3-.3zm-27.4-.3c0-.6-1.6-2-2.1-2-.8 0-.6.3.6 1.3s1.5 1.2 1.5.7zm22.6-1.3c3.8-.8 3.5-.7 2.7-1.5-.6-.6-.7-.7-1-.2a1 1 0 0 1-1.1.2c-.5 0-.7 0-.8.5 0 .5-.2.6-1 .6l-2 .3c-1 .1-1.1.2-.8.6.2.2.5.3.8.2.3-.1 1.8-.5 3.2-.7zm6.2-.2-.6-1-.7-1-.2-.2c-.5 0-.3.7.4 1.7.6.9 1.1 1.1 1.1.5zm-17.2 0c0-.2 0-.3-.2-.3s-.3.1-.3.2c0 .2.1.3.3.3.1 0 .2-.1.2-.3zm5.7-.2c-.4-.3-1.7-.4-3-.1l.3.2c.2.2 1 .3 1.8.3 1.4 0 1.4 0 1-.4zm-8-.5c0-.4-1.2-.3-1.3 0 0 .3 0 .4.6.3.4 0 .7-.2.7-.3zm10.3-.4c1-.5.5-.7-1.6-.9a8 8 0 0 1-2.6-.5c-.4-.3-4 .5-4.5 1-.4.4 0 .4 3.1.3h4c.5.4 1 .4 1.6 0zm3.5-1c.6 0 1-.2.8-.3 0-.2-.7-.3-1.4-.3-1 0-1.3 0-1.3.4 0 .3.1.4.4.3l1.5-.2zm-24.2-.7c0-.6-.2-.7-.8-.7-.8 0-1 .4-.3 1 .7.5 1 .4 1-.3zm8.1.3a28.9 28.9 0 0 0 7.8-1h-2c-3.3.2-2.7-.4.7-.6 1.6-.1 3-.2 3.1 0l.2.7c0 .7 0 .7 1.6.7 1.4 0 1.5 0 1-.4l-.8-.4c-.2 0-.6-.3-.9-.7-.3-.5-.8-.8-1.3-.8-2.3 0-2.5-.2-1.6-1.2.2-.3.3-.5 0-.4 0 .1-.6 0-1-.2-.7-.3-1-.4-1.2-.1-.3.2-.4.4-.3.5v.6c-.2.2-.3.5-.3.7 0 .6-.4.7-3 .8a10 10 0 0 0-3 .5c-.3.4 0 1.6.5 1.6.2 0 .4-.1.5-.3zm101.7-.2c0-.1-.4-.3-1-.3s-1 .2-1 .3c0 .1.4.3 1 .3s1-.2 1-.3zm-83.4-1.6c.6-.5.4-.7-.8-.6-1 .2-1.6.5-1.3 1 .2.2 1.6 0 2.1-.4zm-3 .2-1-.7c-1.2-.7-1.4-1.1-.5-2 .5-.6.6-.7.3-1.3-.4-.9-1-.9-1.3 0l-.5 1.2c-.7 1.3.4 2.9 2 2.9l1-.1zm-11-1.5c0-.2-.3-.2-.9-.1-.5 0-1.1.3-1.3.4-.1.2.1.2.8.1l1.3-.4zm16.8-1.1c-.5-.5-1-.8-1-.7-.1.1.2.6.7 1.1.5.5 1 .8 1 .7 0-.2-.3-.7-.7-1.1zm-2 0-.4-.7c0-.2-.2-.4-.4-.5-.2 0-.5-.5-.6-1-.1-.7-.5-.9-.7-.5-.2.3 1.5 2.7 2 3 .5.4.6.3.1-.2zm32.3.1a3 3 0 0 0 1.1-.9c.3-.4.2-.5-1.2-.4-1.1.1-1.5.2-2 .7-.2.4-.4.8-.3.9.2.3 1.4.2 2.4-.3zm-48 0c.1-.2 0-.3-.4-.3s-.8 0-.9.2c0 .2.2.3.5.3.4 0 .8-.1.9-.3zm8.1-1c.4-.5.6-1 .5-1h-1c-.7.1-.8.2-.5.5.4.5.2.6-.7.8-1.5.3-1.6.6-.2.6 1.3 0 1.4 0 2-1zm56 .3c0-.1-.4-.3-.8-.3a2 2 0 0 1-1-.3c-.2-.2-.6-.3-1-.2-.6.2-.6.2.2.7.8.5 2.8.7 2.6.1zm-66.8-.6 1.4-1c.5-.2 1-.6 1-.9.2-.3.6-.7 1-.8l.9-.3-.6-.7c-1.3-1.3-4.2-1.5-5.7-.2-1 .7-.7.8 1 .2 2-.5 2.5-.5 2.7.3.1.4 0 .9-.4 1.4-.6.8-1.7 1.1-4.2 1.1-1 0-1.2 0-.8.4.4.4 2.2 1.2 2.8 1.2.2 0 .6-.3 1-.7zm-5 0a68.6 68.6 0 0 0-4.7-2.1c-1-.5-1.5 0-1.3 1 .2.7.2.7 2.2.8 1.1 0 2.4.1 3 .3 1.4.6 2.1.5.9 0zm12.3-.2c-.2-.6-3.4-1-3.4-.4 0 .2 1.8.7 2.8.7.5 0 .7 0 .6-.3zm12.6-1c-.2-1.1-.2-1.1.3-3.1.5-1.7.4-2.7 0-2.7-.3 0-.6 1.5-.6 2.8 0 .5-.2 1-.4 1-.6.2-.6 1.5 0 2.3.6.8 1 .7.7-.3zm43.7-.7-.2-1.9-.1-1.2h-1c-1.6.2-1.7.3-1.7 1.5 0 1.4.2 1.7 1.2 2.3 1 .7 2 .3 1.8-.7zm-52 0c-.7-.1-.9 0-.6.5 0 .2.3.2.5 0 .4-.4.4-.4 0-.5zm40.4.5c.7 0 1.4-1 1.7-2.3.3-1.3 0-1.5-1.8-1.6-1.6 0-1.5 0-1.8 2.4-.2 1.4 0 1.9.8 1.6l1.1-.1zM25 108c.1-.1-.2-.2-.8-.2-.8 0-1 0-.6.2.5.4 1.2.4 1.4 0zm46.9-.6c.1-.3.3-.3.9 0 .8.2 2.1-.2 2.1-.6 0-.8-.8-1.2-2-1.2-1.5 0-1.7.1-1.7 1.2 0 1 .4 1.3.7.6zm14.6 0-.1-.8c-.2-.8-.7-.8-.9 0 0 .3-.3.6-.5.8-.4.3-.3.4.5.2l1-.2zm-54.2-1c0-.5.1-1 .3-1.2l.2-.7c0-.5 0-.5-.4.2-.5 1.2-.7 2.8-.4 2.8.2 0 .3-.5.3-1zm2.3-2.1c.4-.8 0-1.7-.4-1-.2.2-.3.7-.3 1 0 .4-.2.8-.4 1-.6.1-.5 1.6 0 1.9.5.2.6.1.7-1l.4-1.9zm47.7 2.2c0-.5.4-1.5.8-2.4.8-1.6.8-1.7.4-2.2-.5-.5-.2-.9.5-.6.3.1.5 0 .6-.4 0-.3.3-.6.5-.7.6-.2.5.8-.4 2.5-1 2-1 2.7-.1 1.1a16 16 0 0 1 1.8-2.4c.8-.8 1.2-1.5 1.2-2 0-.8.5-1.1 1-.5.1.2.5.4.8.4.9 0 1.2-.7 1-2-.1-1.4.2-2.3.6-1.8l.4 2c.2 1.6.2 1.8-.4 2.1-.3.3-1 .5-1.4.6-1 .2-1.4.6-2.2 1.7-.9 1.2-.6 1.6.5.6.5-.5 1.2-.8 1.4-.8l2.7-.7c1.8-.6 2.6-1 3.9-2.1 2.5-2.1 3.6-3.3 4.7-5 1-1.6 1.3-2.3.7-2.2-.2 0-.3-.2-.3-.5 0-.4 0-.6-.2-.6-.4.1-.4-.3.3-3.2.6-2.7.7-3 1.5-4.2.4-.6.6-1 .5-1.5-.2-.7.2-1.1.6-.6.5.7.5 1.2 0 2.1-1 1.2-1.8 3.6-1.8 4.6 0 .4.2.9.5 1 .3.3.4.5.1.7-.2.2-.3.6-.3 1s0 .3.5-.4c.3-.5.7-.9.8-.9.6 0 .1 1.5-1.5 4.1-1.8 3.1-3.5 5.1-4.5 5.4-.7.1-.7.3-.4 1.6.2.7.2 1.1 0 1.8-.4.7-.4.9-.1.9.5 0 1-.8 1.5-2.1l.3-1.4 1.6-1.5 2.9-3c.7-1 1.4-1.8 1.6-1.8.4 0 .1 1-.7 2.1-.7.9-1 1.4-.8 1.8.1.6-.6 1.2-2.3 2-.7.3-.8.5-1.4 3.4-.1.5-.6.8-3 1.8l-3.3 1-.2.3c0 .2.5.1 1.2-.1l3-.8c1.5-.3 2.1-.7 2.1-1.2 0-.1.2-.3.5-.4.3 0 .5-.3.5-.6s.2-.5.6-.5c.7 0 .7 0 3.1-4.7l1.6-2.6 1-1.7c.2-.5.6-.9.8-.9.2 0 1.1-.6 2-1.3 1.5-1.3 1.6-1.4 1.4-2.3-.1-.8 0-1.4.7-2.8.7-1.7.7-1.9.4-2.3-.6-.6-.5-1.6.1-1.6.3 0 .5.1.5.3 0 .6.5.2 1-1 1-1.6 2.1-2.5 3-2.3.7 0 1 0 2-1.2 1-1.3 1.1-1.4.9-2.3-.2-.5-.2-1.1-.1-1.3.2-.6.8-.4 1.1.3.5 1-.4 3.2-2.3 5.2-1.9 2.1-2 2.3-3.2 2.6-.8.3-1 .6-1.6 1.8-.7 1.6-1.1 3.5-.8 3.5.2 0 .8-.7 1.5-1.6 1.2-1.6 2.4-2.6 2.7-2.3 0 0-.4.7-1 1.3-1 1-1.3 1.7-.8 1.5l1.4-.6c.7-.3 1.3-.8 1.4-1 .1-.3.4-.5.7-.6.2-.1.7-.8 1-1.6.7-1.7 1.2-2.2 1.7-1.8.3.2.7 0 1.7-1.3.8-.8 1.6-1.5 1.8-1.5h.4l-1.4 1.7-2.4 2.6-1.1 1.7-.6 1.5c-.5 1-.5 1.1.5 1.4l.8.5c0 .5-.8.9-1.6.8-.9 0-1 0-1.5 1.4l-.4 1.5c.2.1.8 0 1.5-.3 2.2-.7 4.6-.3 4.6.8 0 .4-1 .5-1.2.1-.2-.3-3-.3-3.2 0-.2.4 1.3 1 1.9.8.7-.5 1 .1.5 1-.4.6-1.1.8-2 .4-.2-.2-.6-.4-.9-.4-.3-.2-.4-.4-.3-.8 0-.6 0-.7-.7-.8-1-.1-1.5.8-1 1.7l.6 1.8c.3 1 .4 1 .6.7.4-.6 1.1-.5 1.5.1l.2 1.9v1.4l.6-.6c.8-.7 1-.5 1 .6 0 .7 0 .7.6.6 1-.3 7-1 9-1 1.2 0 2.2-.1 2.6-.4l1.8-.9 2.2-1c.5-.3 1.4-.6 2-.7.8-.1 1.6-.5 2.1-1 .6-.5 1.2-.7 1.8-.7 1.3 0 3.3-1.2 3.3-2 0-.3.2-.9.5-1.3s.4-1 .4-1.3c-.2-.7.3-1 1.3-.8 1.1.2 2-.8 2.1-2.7l.6-2.5c.3-.6.6-2.6.8-5.2.3-3.2.5-4.5.9-5.3l.7-2c0-.5.5-1.6 1-2.4.5-.7 1-1.5 1-1.7l1.4-3.1a19.8 19.8 0 0 0 2.4-8.3s-1 .8-2 1.9c-1.7 1.7-2 2-2.7 1.8-.9-.2-.9-1 0-1 .6-.2 3.8-3.2 4.7-4.6.5-.7.7-1.5 1-3.5a189.6 189.6 0 0 1 .6-6.5c-.1-.1-1.7 1-3.6 2.8-1 .8-1.8 1-1.8.5a19 19 0 0 1 3.6-3.6c.1 0 .8-.5 1.4-1.2 1.2-1 1.2-1.1 1.6-3.5l.7-4.4c.3-1.9.3-2.3 0-3.3-.3-.7-.6-1.3-.8-1.4-.5-.4-.4-5.2.2-5.7.3-.4.4-.4.7 0 .3.3.4.2.7-.4.5-1.1.4-2.1 0-2.1-.3 0-.5.2-.6.4l-.6.5c-.2 0-.6.4-.7.8-.2.3-.4.5-.6.5-.5-.1-2.2.4-2.2.7 0 .1.4.4.8.5.5.2.8.5.8.8 0 .6-.2.8-1.4 1.7a6 6 0 0 0-1.5 1.7 7 7 0 0 1-1.2 1.6c-.9 1-.8 1.2.4 1.9 2.4 1.3 2.4 2.5.3 4.7a20 20 0 0 0-4.4 9c-.5 1.7-.6 5.8-.1 6.3.5.6-.6 6.4-1.3 7.4-.6.7-.5 2.3 0 3.5 1 1.8 1 2.7-.3 4-.7.8-1 1.4-1 1.6v.8c-.4.6-.9 0-.9-1 0-.7.3-1.1 1-2 .7-.6 1.1-1.2 1-1.4l-.1-.6-.8-1.1c-.7-.9-.7-1-.5-2.7 0-1 .4-2.3.6-2.8.4-.8.5-1.9.7-6.8l.2-5.8 1.2-3.2c1.3-3.6 2.1-5 3.7-6.2 1.8-1.5 1.8-1.7-.2-2.6-2-1-2.7-1.7-2.2-2.5.3-.5 1.3-1.8 3.3-4 .8-1 1.2-1.9.5-1.7-2.2.9-2.2.9-3.4.3-1.3-.7-1.8-1.6-1.4-2.7.1-.4 0-.5-.2-.5-.3 0-.5.2-.5.5 0 .6-.5 1-1.5 1.2-1 .2-1.6-.2-1.6-1 0-.7-.2-.8-2.6-1.1-.6-.1-1.3-.4-1.6-.7-.2-.3-.7-.5-1-.5-.5 0-.6-.2-.7-1-.1-1.3-.6-1.5-.7-.4-.2 1.8-1.4 1-1.4-1 0-1 0-1-.6-1-.5 0-.6 0-.5-1.9 0-2-.2-2.4-.7-1.3a9 9 0 0 0-.3 3.1c.1 2.3.1 2.5-.4 2.6-.7.2-1-.4-.8-2.9v-2.3c-.2 0-.4.5-.4 1.1-.1 1-.2 1.1-.6 1.1-.5 0-.6-.2-.7-3.1-.1-3.2-.3-3.7-.7-1.5 0 .7-.3 1.6-.4 2-.2.7-.2 1.1 0 1.5l1 2.4c.3 1 .9 2.3 1.2 2.9.4.8.4 1.1.2 1.4-.6.8-1.4-.4-3-4.6l-1-2.2-.5-.6.2.8.6 2.5c.3.9.5 2.2.5 2.8 0 1 0 1.2-.5 1.2-.4 0-.5-.2-.5-.6 0-.7-1.5-7.4-1.7-7.6l-.6.2c-.4.4-1.2.2-1.2-.3 0-.2.4-.7.8-1.1.5-.4.8-1 .8-1.3 0-.2.2-.5.4-.6.5-.3 1-1.3.8-1.5-.3-.3-2-.2-2.1.1l-.3 1.6c0 1.4-.1 1.7-.7 1.5-.3-.1-.4-.4-.3-.7v-.6c-.8 0-.4 4 .8 8.2.2.9.4 1.9.3 2.2 0 .8-1 1-1 .1a26 26 0 0 0-1.3-4.8 124.3 124.3 0 0 1 .2 6.5c0 1 .4 1 3.3.3 1.7-.4 2.1-.5 3-.1l2.3.3c.8 0 1.7.2 2.4.6 1 .5 1.6.5 3.7 0 1.2-.3 1.5-.2 1.5.5 0 .3-.4.5-1.7.8-1.9.3-3.5.2-4.7-.4-.4-.3-1.1-.4-1.7-.4a6 6 0 0 1-1.9-.4c-.8-.4-1.2-.4-2.6-.1-2 .3-2.3.6-2.1 2.3.1 1 0 1.4-.2 1.6-.7.6-1 0-1-1.5l.2-1.5h-1.1l-1.2.3v2.6c0 2.3-.1 2.5-.6 2.5-.2 0-.5-.2-.5-.5v-3c0-2.6 0-2.7.5-2.8.4 0 .7-.3.8-.7.2-.9 0-1-1.1-1.1-.7 0-1 0-1 .4v.7l-.3 2.7c-.2 2.1-.3 2.5-.7 2.4-.3 0-.4-.3-.3-1.6.3-3 .2-4.6-.3-4.7-.3 0-.4.4-.4 3.5l-.2 5c-.2 1.3-.3 1.5-.7 1.5-.5 0-.5 0-.4-.8l.4-4.4c0-2 .2-3.8.3-4 .3-.6.3-.6-.6-.3-.6.2-.7.4-.8 2.6l-.5 4-.3 3.6c0 1.3 0 1.8-.3 2-.8.2-.9-.4-.6-2.7a27.9 27.9 0 0 0 .2-3.6c0-.2 0-1.5.3-2.8.3-2.6.1-3.3-.8-2.4-.5.4-.7 1.8-1 9.1v3.4h-.5c-.4 0-.5-.4-.4-2.9l.2-3.3-.1-1c-.4-.7-1.2 6-1 8 .1 1.8.1 1.9-.4 1.9-.4 0-.5-.2-.7-1.7l.1-3c.4-1.6.9-5.4.9-6.9 0-1 .4-1.7.7-1.1.2.2.3.1.4-.3.2-.8 0-1-.8-.5-1 .5-1.3 1.4-1.5 3.7-.1 1.1-.4 2.5-.6 3-.6 1.9-.8 4.7-.3 5.7.3.5.5 1 .5 1.3 0 .6 2.1.6 5.4 0 1.7-.3 4.3-.6 5.7-.6 5 0 11-.5 11.6-.7.4-.2 2.7-.4 5-.4 9.8-.2 9.5-.2 10-.7.8-.6 1.3-.3 1.1.6 0 .5-.3.7-1 .9-.5.1-1 .3-1.2.5l-2 1.5-1.5 1.1-.2 7.5a33.8 33.8 0 0 0 .5 10.4c0 1.3.2 1.8.7 2.3.5.6 1 2 1 2.8 0 .7-2 1.3-6 1.8a352.7 352.7 0 0 0-9.4 1.2 145.3 145.3 0 0 0-11.8 1.5c-1.3 0-6 .7-10.5 1.7-1.3.3-1.5.4-1.8 1.2-.3 1-1 1.2-1.1.3-.1-.6-.2-.7-1-.3-.7.5-1.2 0-.6-.7.4-.5.4-.7-.1-4s-1.2-5.4-1.8-5.4v1.5a5 5 0 0 1 0 2l-.2 4.2v3.8l.9-.2c1-.1 1.1.2.1.6-.4.1-.9.6-1.1 1-.3.7-.6 1-1 1-.5 0-1.2.3-1.9.9-1 .8-1.2.9-1.4.6l-.7-.6c-.3 0-.4-.4-.3-1.2 0-.7 0-1.1-.2-1.1s-.3.3-.3.6c0 .7-.7 1.7-1 1.5-.3-.4-.8-12.7-.5-14l.3-.7.1.8c.1.4.3 2.4.3 4.4 0 6.3.7 7.5 1 2 .1-1.7.3-3.1.4-3.2.5-.5.7.3.5 2.5 0 1.8 0 2.4.2 2.4s.3.6.2 2.3c-.1 1.9 0 2.1.1 1.2.3-1 .8-1.7 1.2-1.3l-.1 1c-.2.5-.2 1.1 0 1.3.4.7.8-1.2.9-5l.1-3.9-1-1.8c-1-1.6-1.1-2-1-2.8.1-.5.3-1.1.5-1.3.3-.4.5-2.8.5-5.3 0-1.2 0-1.4.5-1.4.6 0 1-.5 1.1-2.5.2-.8.4-1.9.6-2.2.2-.4.5-1.4.6-2.2.2-.8.6-2 1-2.7.5-.9.7-1.4.5-2 0-.5 0-1.1.4-1.8.3-.6.8-2 1-3.2l1-3.9c.7-2.5 1.4-6.2 1.2-6.2-.3 0-1.9 3.8-3.3 7.8-.2.5-.8.6-1 .1v-.9c.3-.7.4-2.6 0-2.3l-.5 1.1-1.1 2.5c-.4.9-.9 2.3-1 3.1l-1 3.5c-.5 1-1.1 3-1.5 4.4-.8 2.8-1.9 5.3-3.1 7.4-.7 1-1.1 1.5-2 1.8-.9.3-1.2.4-1.5.1-.4-.3 0-.6 1.2-1 .6-.3 1.1-.7 1.9-1.8 1.3-2.2 1.9-3.5 2.8-7l1-3.3c.5-.5 1.1-2.9 1.1-3.8 0-.6.4-1.8 1-3a36 36 0 0 0 1.5-3.6c1-3.1 1.7-3.7 2.4-2.1.4.8.4.8.6.3 1-3 3.2-7.3 4.1-8.5.3-.4.5-1 .5-1.4 0-.6-.2-.8-.7-1-1.4-.2-3.8-1.2-4.1-1.5a1 1 0 0 0-1.6.1c-.2.4-.4.5-1.5.4-1.1-.1-1.3 0-2.2.7-.8.8-1 1.3-1.5 3.2-1 3.5-2 5.2-2.7 4.2-.4-.6-.3-2.4.1-3.2.6-1 .5-3.7-.1-5.4l-.6-1.5.6-1a8 8 0 0 0 .3-6.2L97 7.8c.3-.4-.5-1.8-1.6-2.8-.7-.7-1.1-1-1.9-1-.9 0-1 .1-1.8 1.8a8 8 0 0 0-.9 2.9c0 .6-.3 1.6-.8 2.6a42.2 42.2 0 0 0-3.6 8.9c0 .6-1 1.4-1.5 1.2a.7.7 0 0 1-.4-.5c0-.3-.1-.5-.3-.5-.6 0-1.3.6-1.3 1 0 .3-.3.9-.6 1.3-.5.6-.7.7-1 .5-.3-.3-.3-.5.1-1.3l.3-1c-.1 0-3.3 4.4-3.3 4.6l-.6.2c-.4 0-.7.3-1 .9-.8 1.2-2.5 4.5-3.9 7-1.1 2.3-2.2 3.5-3 3.5-.8 0-.5-.7.4-1.4.6-.4 1.2-1.3 1.6-2.2l1.1-2.3c.2-.4.4-1 .3-1.2-.1-.3 0-.8.4-1.3l2-2.8c1.4-2 1.4-2.2 1.1-3a5 5 0 0 1 .5-3.6l.3-1.2c0-.4.3-.6 1.1-.9 1.6-.5 1.9-1.3 1-2.7-.4-.6-1-2-1.4-3.2-.4-1.1-1-2.9-1.5-3.9-.9-2-1-2.3-.4-2.3.4 0 1.8 3 2.7 6.1.4 1.1 1 2.5 1.5 3.2l.8 1.1.6-.7 1.3-1.8c.4-.6 1.5-1.7 2.4-2.4 1.7-1.3 2.5-2.4 2.9-3.7 0-.4.6-1.2 1.1-1.8.5-.6.9-1.1.8-1.2l-3-.3-8.2-.3c-5.9-.3-7-.2-8 .6-1 .6-1 1-.4 1.5.2.2.4.5.3.8-.1.4 0 .4.4.2s.5-.2.6.2v.6c-.2 0-.8 1-1.3 1.9-1.2 2-1.1 2-1.5 1.7-.2-.1 0-.8.7-2 .5-.9.9-1.7.8-1.8l-2 2.7c-1.6 2.1-2.3 2.8-2.8 3-1.2.2-1.8.6-3.2 1.8l-1.3 1.1 1 .4c1.2.5 5.6.7 6.6.3.6-.3.8-.3 1 0 .7.8 3.2 4.8 3.2 5.1 0 .2.5.7 1 1 1.2.7 1.4 1.2.6 1.2-.8 0-2.1-1-2.5-1.9-.3-.7-2.7-4.4-2.9-4.4l-1.3.4c-.8.2-1.5.3-1.7.1l-2-.4a20 20 0 0 1-1.9-.3c-.7-.2-.5.6.4 1.3.8.6.8 1-.2 1-.4 0-.6.1-.6.4v.6c-.1 0 .2.2.6.2.5 0 .9.1 1 .4 0 .5-1.3 2-1.8 2-.2 0-.7.5-1.2 1s-1.7 1.4-2.8 1.9c-2 1-2.7 1.8-2.7 3.3 0 .8-.8 1-1.3.3-.5-.8-.7-.7-1 .6-.5 1.3-1.4 2.3-2.4 2.3-.5 0-.7.2-1 .9-.2.5-.9 1.3-1.5 1.7a35 35 0 0 0-5.9 6.2c-.3.8-.3 1 0 2.4l1 3.3c.4 1.1.5 1.7.3 1.9-.5.4-.8 0-1-1 0-.6-.4-1.9-.7-2.9-.7-2.8-1-1.5-.4 2.5l.6 4c.1.7 0 .8-.4.8-.6 0-.6-.2-1-4.6-.2-2-.2-2-.4-1l-.6 2.2c-.2.6-.3 1.4-.2 1.7.4.8.3 1.2 0 1.2-.7 0-.9-.6-1-3.7-.1-1.6-.3-3-.4-3.1 0-.1-.6.2-1 .6-.9.7-1 .8-2.1.6-1.6-.3-1.6-.3-1.6.2 0 .2-.1.4-.4.5-.6.2-.4.9.2.9.9 0 1.2.3 1.6 1.2.1.4.3.7.4.6 0 0 0-.6-.3-1.1-.5-1.2-.5-1.5-.1-1.5s1.2 1.5 1.5 3c.2.9.6 1.6.8 1.8.4.3.4 1.6 0 1.6l-.5-.7a2 2 0 0 0-1-1c-.3-.1-.9-.8-1.3-1.5-.8-1.4-1-1.6-1.8-1.6-.4 0-.7-.2-.9-.4-.2-.4-.3-.4-1.4.2-.8.5-1.4.6-2 .5-.7 0-1.1 0-2.3.9-.8.5-1.5.9-1.7.8a.9.9 0 0 0-.7 0c-.3 0-.3.2 0 .8.2.5.2.8 0 1.2-.3.4-.3.6 0 1 .1.3.4.5.6.4l1 .4.7.6.7-.8c.7-.7.7-.9.4-1.1-.2-.2-.6-.3-1-.2h-.9c-.6-.4.6-1 1.8-.8.8 0 1 .2 1 .8 0 .5.3.8.8 1 .4.1.7.2.8.1l-.6-1.5c-.5-.9-.6-1.4-.4-1.6.1-.2.5.3 1 1.4 1.1 2 1.4 2.4 2.2 2.3.5 0 .5-.1-.5-1.2L30 52h.5a13 13 0 0 1 2.9 2.4 11 11 0 0 0 3.2 2.7c.4 0 1 .3 1 .5l.6.4c.5 0 1.8 1.1 1.7 1.4-.3.4-1 .2-1.7-.5-1-.8-1.3-.8-1.4 0 0 .3-.3.6-.6.6-.8.1-3-1.4-3.9-2.7-.6-1-.9-1-1-.8-.4.6-.6.5-1-.2-.2-.4-.7-.8-1.5-1l-1.3-.5-.8.8c-1.1 1-1.3 1.5-.9 2.2.3.3.4 1 .3 1.4 0 .5.3 2.1 1 4.2a105 105 0 0 1 1.6 5.7 77.6 77.6 0 0 0 2.6 9.1c0 1.3.5-.5.5-2 0-.8.2-1.8.3-2.1.3-.5.1-1.4-.5-4.2-.5-2-1-4.6-1-5.8a7.6 7.6 0 0 0-.8-3.4l-.6-1.7c0-.3-.3-.8-.6-1-.6-.5-.6-.5 0-.7.7-.3 2 1.2 2 2.4l.4 2c.5.8.5 1.1.3 1.7-.3.8-.3 1.1 1.4 8.4.7 3.4 1.2 3.1.7-.5a54 54 0 0 1-.6-7.3c-.1-.8 0-1 .4-1.5.6-.6 1.3-.5 1.3.3 0 1.5 4.1-.6 7.4-3.7 1.6-1.6 1.7-2.1 0-1.1-.8.5-1.3.5-1.3 0 0-.2.6-.6 1.4-1 1-.7 1.6-.8 2.1-.7.6 0 1 0 1.6-.7.6-.5 1.2-.8 2.4-1 1.3 0 1.5 0 1.7.4.2.5-.6 1.1-1.6 1.1-.7 0-2.7 1.2-3.5 2.2-.5.5-.5.5 0 .4 1.2-.4.7.6-.6 1.1l-2.4 1.4c-1.4 1-5.7 3.7-6 3.7l-.6-.4c-.7-.8-1-.5-1 .8l-.2 1.4c-.1.1 0 1.2.3 2.4.5 2.7.6 5.8 0 6.4l-.2 1.8-.1 3.8c-.2 1.6-.2 2.3 0 2.3.4 0 .5-.5.9-5 .3-3.6.4-6.1 0-8.2 0-.6 0-1.1.2-1.1.1 0 .3.5.4 1.2.1.6.4 1.3.6 1.5.4.3.5 1.5 0 2.9-.3 1.4-.7 5.9-.5 6.1.4.4 1-.9 1.4-2.8a7 7 0 0 0 0-3.3 27 27 0 0 1 0-8l.3 2.4c0 1 0 2.3.2 2.8.1.7.2.6.4-.8 0-.8.3-1.5.4-1.4.4 0 .4 0 .1 2.5-.2 2.3-.6 5.2-.8 6-.2.8.5.5 2.2-1l1.6-1.5.6-3c.9-5 1.5-7.3 1.9-7.3.1 0 .2.7 0 1.7 0 1.5 0 1.9.4 2.5.6.8.6 2.8 0 2.8-.2 0-.3-.3-.4-1 0-1-.8-1.6-1-.6a43.4 43.4 0 0 0-.5 3.1c-.3.9.9.6 1.6-.4.5-.5 1-1 1.2-1 .2 0 1.1-.7 2-1.5 1.9-1.9 3.5-3 4.7-3.2.7-.1.8-.3 1-1 0-.4.1-.9.3-1v-.7c-.3-.5-.4-6 0-7.7.1-1.2.5-2 1.2-3.1 1.4-2 3-3.7 3.5-3.7 1 0 1.3.3 1.3 1 0 .5.1.8.3.8l1.6-1c1.3-1 2.4-1.4 2.7-.8l.3 2.1a8 8 0 0 1-.4 3.7l-.5 2.1c0 .2-.4 1-1 1.9l-.9 1.4 1.2.6 1.5.6c.3 0 1 .3 1.7.7l1.4.6 1-1.2 1-1.4c.6-.5.5-1-.1-1.2-.4 0-.6-.2-.5-.5.1-.2 0-.7-.2-1.1-.3-.6-.4-1-.1-1.6.3-.9.2-4.6-.3-6.3-.1-.6-.5-1.7-.9-2.5-2.3-5.3-2.3-5.3-2.2-7.4.1-2.1.6-3.3 1.6-3.6.7-.3 2 .5 2.5 1.5l.8 1.3.7 1.4c.7 2.1 3.3 5.6 3.8 5l-.1-2.4c-.4-2.8-.2-3.6 1.1-5.5 1.6-2.3 2.5-2.2 3 .4.2.8.6 1.7.9 2 .4.5.5 1 .6 2.7.3 4.2.5 5.7 1.3 6.8.4.5.7 1.2.7 1.4l.8 2c.8 1.8 1 3.8.4 4.4-.2.3-.1.3.6.2.9-.2 1-.2.5.2-.3.2-.8.8-1.1 1.4l-1.3 2.4c-.6 1.2-.7 1.5-.5 2.4l1 2 1.4 1.5c.5.5.6.6.8.2.2-.2.3-.8.3-1.2 0-.7.2-1 .7-1.2.7-.4 1.6.1 2.6 1.5.8 1 1.3 3.8 1.2 6.8 0 2-1 3.7-2.4 4.6-.8.4-.9.5-2 0l-1.2-.4.2 1.6c0 1 .6 3.4 1.2 5.5.8 2.7 1 4 .9 4.5l-.2 3.7c0 2.5-.2 3.2-.5 3.8-.6.9-.6 1 0 1 .5 0 1.2-.7 2-2 .3-.5.6-.6.7-.4.7.6-2 3.5-3.3 3.6-.2 0-1 .7-2 1.6l-1.5 1.6.2 2.1c.2 1.6.4 2.2.7 2.2.2 0 .3-.3.3-.7zm9.5-6.8c0-.4.5-.9 1.2-1 .8-.1.8.4 0 1-1 .5-1.2.5-1.2 0zm1.5-5.4c.1-4 .2-4.5.9-4.5.3 0 .3.2.2.7l-.3 4.1c-.2 2.7-.3 3.4-.6 3.4-.4 0-.4-.5-.2-3.7zm2.2 3c-.5-.2-.5-.3-.4-1.4.4-2.8.5-3.4 1-3.9.4-.4.5-1 .5-3.5.1-3.1.3-3.7.8-3.4.2.2.3.7.2 1.7-.1.8-.3 2.5-.3 3.8a28.2 28.2 0 0 1-.8 5.6c0 .9-.4 1.2-1 1zm-6.8-1.6.6-2.1.8-3c0-.7 0-.6.1.4 0 1.8.4 1.6.9-.3.2-1.2.2-1.5-.3-2.5l-.5-1.2.7-.8c.8-.8 2.2-3.4 2.2-4 0-.7 1-2 1.5-2.1.4-.1.5-.3.4-1-.3-2.5-.3-3.2 0-3.7.3-.6 1-.3 1.3.6.5 1.2.6 0 .1-2.8s-.5-3.5-.2-3.5a23 23 0 0 1 1.2 8.3c-.1 1.1-.2 1.2-.7 1.1-.6 0-.7 0-.8 1.2-.2 1.6-.5 2-1 1.5-.4-.2-.6 0-1.2 1.3l-1.5 2.7c-.8 1.3-.9 2.3-.4 3.2.2.4.2.8 0 1.4l-.6 2c-.2.8-.4 1-.7 1-.3 0-.5.3-.8 1.2-.2.7-.6 1.3-.8 1.3-.2 0-.3-.1-.3-.2zm40.3-.1c-.2-.4.6-1.9 1-1.9.8 0 .8.8.2 1.5-.7.7-1 .8-1.2.4zM106.8 90v-1a8 8 0 0 0 .3-1.8c0-1.1.5-1.5 1-.8.4.5.2 2.9-.3 3.5-.3.3-.8.4-1 .1zm-11.2-.6.3-.3v.3c0 .1 0 .3-.2.3s-.2-.2-.1-.3zm43-1.4.7-5.1c0-.4.3-.6.5-.6.4 0 .4.2.3 1.5l-.4 3.2c-.1 1.3-.2 1.6-.6 1.6-.4 0-.5-.2-.5-.6zm-15.2-.4-1-.4c-.8-.2-1.8-1-1.8-1.6 0-.2.3-.6.7-1 1.3-1.2 3.8-4.4 3.8-4.9 0-.6 1.6-2 2.3-2 .3 0 1.3-.4 2.1-.9 1.6-.9 3.4-1.2 3.2-.6 0 .2-.3.4-.6.4s-1.5.6-2.8 1.2a7.9 7.9 0 0 0-3.4 2.6 67.5 67.5 0 0 1-3.1 3.9l1.3-.5c1.4-.6 2-.4 1.4.3-.4.4-.4.5.2.6 1 .3 1 1.3 0 1.3-.8 0-.9 0-.9.9 0 .8 0 1-.6 1-.4 0-.7-.2-.8-.3zm.2-2c.3-.3 0-.5-.5-.3-.2.1-.3.3-.2.4.1.3.5.3.7 0zm17.8.5c0-.1-.2-1.8-.2-3.7 0-2.6.1-3.6.4-4 .6-.7.7-.1.6 4 0 3.4-.2 4.2-.8 3.7zM127 84.4c-.3-.2-.5-.5-.5-.6 0-.3 5.5-2.5 6-2.5.2 0 .4.2.3.5 0 .2-.7.7-1.8 1-1 .4-2 1-2.5 1.3-.9.7-1 .7-1.5.3zm18.1-3.1c-.2-.3-.2-5 0-5.8.4-.9.7.3.9 3 .1 2.3 0 2.7-.2 2.9l-.7-.1zm-41-.5c0-.2 0-.3.2-.3s.2.1.1.3l-.3.2v-.2zm-2.4-1c-.7-.6-.9-1-.8-1.3.2-.4.3-.3 1.3.5.5.6 1 1.2.9 1.3-.3.3-.5.2-1.4-.6zm46.4-2c-.2-.6-.2-3.5 0-4.6.2-.4.4-.8.6-.8.4-.1.4.4.5 2.8 0 2.6 0 3-.5 3a.7.7 0 0 1-.6-.5zm-57-2 .2-1.1c0-.2.1-.3.3-.3.4 0 .2 2-.3 2-.2.2-.3 0-.2-.7zm-51.6 0c-.4-.3-.4-.5-.1-2l.6-3.2c.3-1.7 1.2-4.9 1.6-6 .5-1.1.8-.2.3 1.2-.2.8-.5 2.3-.6 3.6a7.8 7.8 0 0 1-.5 2.4c-.4.2-.9 2-.8 3 .1 1 0 1.3-.5 1zm91-.1c0-.5.8-1.3 1.3-1.3s.3.8-.3 1.2c-.7.5-1 .5-1 0zM30 69.7l-.4-2.2c-.2-1.7-.4-2.4-1.2-4.3-.2-.6-.6-1.7-.7-2.5l-.4-1.9c0-.2.1-.4.3-.4.3-.1.5.3.7 1.3l.4 1.8c0 .4.5 1.8 1.1 3 .2.3.4 1.3.5 2.2l.4 2.6c.2 1-.2 1.2-.7.4zm2.2-10c-.6-.7-1-1.3-1-1.5.3-.4 1.4.4 2 1.4 1 1.8.6 1.8-1 0zm66.4-.2c.8-2.5 1.1-3.1 1.4-3.3.7-.2.7.1.1 1-.3.5-.5 1.2-.5 1.6 0 .7-.6 1.6-1 1.6-.2 0-.2-.3 0-.9zm-59.2-3c-.3-1-.6-1.3-1.3-1.2-.6 0-1.1-.2-2.6-1.7-1.6-1.6-2.2-2.5-1.6-2.5l1.6 1.5c.8.8 1.7 1.5 2 1.6.2 0 .4.3.4.4 0 .2.2.1.6 0 .4-.3.6-.2 1.2.4.7.7.9 2 .2 2-.2 0-.5-.3-.5-.5zm-4.1-1c-1.5-1-2.8-2.4-3.3-3.4-.2-.5-.7-1.2-1-1.5-.8-.8-1-1.3-.4-1.3.5 0 1.3 1 2 2.3.3.6 1.4 1.8 2.4 2.8 2 1.8 2.2 2.6.3 1.2zm50 0c1.1-1 3.6-2 3.8-1.7 0 0-.3.4-.9.6-.5.3-1.5.8-2.1 1.3-1.6 1-2 1-.7-.2zm-46.6-1.7c-.8-.2-1-.8-.1-.8s1.5.2 1.5.7c0 .4-.3.4-1.4.1zm12.6-.8c-.2-.3.5-1 1-1 .3 0 .2.6-.1 1-.4.3-.7.3-.9 0zM158 50.4c-.2-.5-.6-.9-.9-.9a2 2 0 0 1-1-.3c-.4-.3-.4-.4.3-1 .8-1 1.2-1 1.2-.2 0 .4.3.8.8 1 .7.4.8.7.8 1.3-.2 1-.7 1-1.2 0zM91.4 47c0-.2-.6-1.7-1-3.5-.6-1.7-1-3.6-1-4.2 0-1-.4-2.4-2-8.2l-.5-2.5c-.2-1.4-.7-1.9-.7-.7l-.3 2c-.2 1-.4 1.3-.7 1.2-.3 0-.5-.8-.9-2.8-.3-1.5-.4-3-.4-3.1.3-.8.7-.3 1 1.3.3 2 .6 1.7.9-1 .2-2.3.6-3.5.9-3.1.1 0 .4 1.7.6 3.6.3 2 .8 4.7 1.2 6.1a72 72 0 0 1 1.8 8.2c.2.8.3-.3.6-4a32 32 0 0 0-.1-10.5c-.5-2-.8-9.8-.5-10.7.1-.3.2-.4.5 0 .3.2.5 1.9.7 5.5.4 6.9.6 7.2 1.6 3.5.4-1.4.6-3.1.7-4.4a8 8 0 0 1 1.4-5c.7-.9.6-1.8 0-3.1-.3-.6-.5-1.2-.4-1.3.3-.6 1-.1 1.4 1 .7 1.7.7 2.6 0 3.4-.8 1.2-1.5 3.6-1.6 5 0 .7-.3 2.6-.7 4.2-.6 2.3-.8 3-1.3 3.2-.5.2-.5.5-.7 3.7-.5 7-.4 11.7.3 15.2 0 .8 0 1-.3 1.2-.2 0-.5 0-.5-.2zm-47-2.5c-.5-1.3-.7-3-.3-3 .1 0 .3.3.4.7.1.4.4 1 .7 1.3.6.6.6 1.7 0 2-.1 0-.5-.4-.7-1zm1.7-2.9c-.2-1.3-.2-1.7 0-1.7.5 0 1 1.1 1 2.4 0 1.8-.7 1.3-1-.7zm108.3-6.3c-.3-.5-.6-1-.8-1-.1 0-.2-.1-.2-.3 0-.5.6-.5 1.6 0 .9.4 1 1.4.4 2-.3.2-.5.1-1-.7zm-1.6-6.1c-.5-.7-.4-1.2.2-1.2.3 0 .7-.2 1.1-.5l1-.5c.2 0-.1 1.6-.4 1.8l-.3.6c-.3.7-1.1.6-1.6-.2zm-85.5-1.8a3 3 0 0 1-.6-1c0-.4-.6-1.2-1.2-1.8-1-1.1-1.7-2.8-1.4-3.2.3-.5.7-.2 1.2.9a10 10 0 0 0 2 2.5c1.2 1.1 1.4 1.5 1.4 2.1-.1.8-.8 1-1.4.5zm64.2-.8c0-.8.2-1.1.5-1.2.4 0 .5.1.5 1.1s0 1.3-.6 1.3c-.4 0-.5-.2-.4-1.2zm14.2.3c-.8-.4-1-1.2-.4-1.4.6-.2 1.8.6 1.7 1.1-.1.6-.5.7-1.3.3zm1.7-.2c0-.2 0-.5.2-.7.4-.3.5-.3.7 0 .2.2.3.5.2.7-.2.3-.8.3-1 0zm3.3-1.2c0-.4 1-.8 1.3-.6v.6c-.2.5-1.3.5-1.3 0zM71 25.1c-.8-.6-2-2.4-2-3 0-.8.5-.7 1 .3.3.5 1 1.1 1.6 1.4 1 .6 1.5 1.4.9 1.4l-.6.1c-.2.1-.6 0-.9-.2zm75.7-.2c-.3-.3-.4-.8-.4-1 0-.8.9-.7 1.4.1.5.8.5.9-.1 1.2-.4.2-.6.2-1-.3zM71 10c0-.5 1.4-2.6 1.8-2.6.5 0 .4.3-.4 1.7-.6 1-1.4 1.6-1.4 1zm1.6-.2c0-.5.8-1.4 1.1-1.4.3 0 .2 1-.1 1.4-.5.6-1 .6-1 0zm-47.6 96.8c-.6-.3-1.2-.3-1 0 .1.1.5.3.8.3.5 0 .5 0 .2-.3zm29.4-.2.3-.9c.1-.4.4-1 .7-1.3.2-.2.9-1.1 1.3-2 .8-1.3 1.4-1.8 1.3-1.2l-1 2.1c-.7 1.3-1 2-.8 2.2.5.6 3.3-4.5 3.6-6.5.1-.8 0-1-.3-1.3-.3-.3-.4-.7-.3-1.6 0-1.6.7-2 .7-.4 0 .7.1 1 .4 1 .3 0 .4-.3.4-1.4 0-.8.2-2 .4-2.6 1.2-3.3 1.2-4 .3-6.1-.2-.6 0-1.2 1-4.7.3-.8.6-2.2.7-3 0-1 .2-1.8.3-2 .3-.4-.7-.3-1.8.1-.5.3-1.2.4-1.6.4-.5 0-.7.4-1.4 1.8l-.8 2c0 .3-1 2.3-1.9 3.9-.4.7-1 2.8-1 3.5l.6 1.4c.4.5.7 1.3.8 1.8.1.5.4 1.1.6 1.3 1 .7 1.6 3.6 1.2 4.8-.2.5-.5.7-1 .7-1.5 0-3.2-1-4.2-2.4-1-1.5-1.6.7-2.2 7.5 0 1.5 0 1.8.3 2 .3 0 .7 0 1-.5.3-.4.5-.5.5-.3 0 .7.7-.2 1.4-1.8.7-1.5 1.2-2 1.2-1.3s-1.6 3.8-2.1 4.2c-.8.6-.4 1.1.5.9l.9-.3zm-2-2.9c-.3-.3-.2-.9 0-.9s.3.3.3.6c0 .6 0 .6-.3.3zm.1-3.4c0-1.4 0-1.5.3-.7.2.6.2 1.1 0 1.6-.2.6-.3.4-.3-.9zm5.5-.4.3-.2c.2 0 .3 0 .3.2s-.1.3-.3.3a.3.3 0 0 1-.3-.3zm.1-6.7c-.2-.7.4-1.1.7-.5.3.5.2.9-.3.9l-.4-.4zm1.7-.3c-.2-.5-.2-5.6.1-5.8.2-.1.3-.2.4-.1.2.3.2 5.6 0 5.8-.2.2-.4.2-.5 0zm-1.5-2.2c-.1-2.5.5-7.6 1-8 .5-.5.6.3.2 2.3-.2 1-.4 3-.4 4.4 0 1.9 0 2.3-.4 2.3-.3 0-.4-.3-.4-1zm6.2 15.6c-.2-2.6-.6-4-1.5-5.2-.5-.7-1.2-1.8-1.5-2.5-.6-1.2-1-1.1-1 .3 0 .4-.8 2.1-1.6 3.8a14 14 0 0 0-1.3 3.2h1c.5-.1.8-.5 1.3-1.5.7-1.4 1.3-2.2 1.3-1.5 0 .2-.1.5-.3.6l-.2 1.2c.2 1.4.8 1.2 1.3-.4.3-.8.6-1.4.9-1.4.5-.1.6.3.2.6-.2.1-.2.3 0 .7l.2 1.2c0 1.2.3 1.7.8 1.6.3 0 .4-.3.4-.7zm25.2-.5c1-.5 1.4-.9 1.5-1.4.1-.7 1.6-2 2.3-2.1l1.1.1c.9.3 1.5-.2 1.5-1 0-.5-.5-.4-2.4.3a7 7 0 0 1-2 .3c-1.5 0-2.3.4-3.8 1.7-1.3 1.2-1.6 1.6-.9 1.9.2 0 .3.3.2.6 0 .5 0 .5.5.4.4 0 1.3-.4 2-.8zm-1.2-.5c0-.3 1.4-1.4 1.9-1.4s0 .8-.7 1.3c-1 .6-1.2.7-1.2.1zm2.9 1-.1-.3-.3.3c-.1.1 0 .2.1.2.2 0 .3 0 .3-.2zm-80.8-1c1-.6 2.4-1.8 3.3-2.9.7-.8 1-3.2.3-3.8-.4-.6-1-.4-.8.1v.6c-.2 0-.3.4-.3.7 0 .8-1.4 2.2-2.4 2.5-.4 0-1 .5-1.6.9-.9.7-1.6 1-1.6.5l1-1.2c.8-.8 1-1.1.8-1.5-.1-.3-.4-.4-.7-.3l-.6-.1c0-.2-.4-.6-.9-.9-.8-.5-.9-.7-.8-1.4 0-.8-.6-1.4-1.3-1.1-.4.1-.4.6-.3 4 0 3 .2 4 .4 4 .3.2 1.4.3 2.5.3 1.5 0 2.3 0 3-.5zm28.1-1c0-.6-1.1-.3-1.2.2v1c.2.3.3.3.7-.3l.5-1zm68.2 1c0-.2-.1-.4-.4-.4-.3 0-.6-.1-.8-.3-.3-.4-.2-.5.4-.7 1-.4 1.7-.3 1.9.2.3.9 1.5 1.2 1.2.3-.2-.8 1.2-1.6 2.8-1.6 1.4 0 2.1-.2 2.1-.5 0-.2-.7-.3-1.7-.3s-1.7.2-1.7.3c0 .1-.2.4-.5.5-.4.2-.8 0-2-.8-.8-.5-2-1-2.5-1.2-.6 0-1.1-.2-1.2-.4-.1 0 .2-.6.6-1 .6-.8.8-.8 1.8-.7.8 0 1.2 0 1.3-.3l.8-.4c1.1-.1 1.3-.7.7-2.1-.7-1.4-.7-1.8-.2-1.8.5 0 .9.5 1.4 2.2.6 1.7.4 2.4-.7 2.3-.4 0-1 0-1.3.2l-.6.4.5.7.6 1c0 .2.3.4.7.6.8.2.8.2 1.2-1.1l.6-2.5c.1-.7.5-1.3 1.1-2 .9-1 1-1 .5-1.3-.4-.4-.4-.4.1-1.1.3-.4.9-.9 1.2-1 .4-.1.8-.6 1-1l.5-1-.6.3c-1.1.2-1-.2 0-1.4.9-1 1-1.3 1-2 0-.6-.1-1-.2-1l-2 .9c-2 1-2.6 1.7-2 2.6.3.4.3.6 0 .8l-.2.7c0 .3.2.2.6-.2.6-.5.7-.6.9-.2.1.5-.6 1.8-1 1.8-.1 0-.3.2-.3.6 0 .7-.4 1.4-.7 1.1 0 0-.4-1-.6-2.1l-.4-2-1.7 1.7c-1 .9-2.1 2-2.5 2.6-.7.9-.7 1-.4 1.9.4 1.2.2 1.9-.5 1.5-.7-.4-.6-.4-1.5 1-1.5 2.4-1.6 2.7-1 3.1.2.2.8.4 1.2.4.4 0 .8.1.9.3.3.4-.3.8-1.3.8-.6 0-1 0-1 .4-.3.6 0 .8 1.8 1l1.7.3c.1 0 .3 0 .4-.2zm-20.7-1.3c.2-.5-.2-.5-.6 0-.2.1-.3.4-.3.5 0 .3.7 0 .9-.5zm9-.6c.2-.4-.3-.4-1.5.1-.5.3-1 .6-1 .8 0 .5 2.4-.4 2.6-.9zm-70 .7 1-.4-.2-.8-.3-.7-.3.6c-.2.5-.6.7-1.1.7-1.3 0-1.4.1-1.4.4 0 .1.2.3.5.3l.8.2 1-.3zm52.6-.7c.8-.4 1.6-.9 1.7-1.1l.5-1 .3-1c0-.4.9-1.2 1.5-1.3.7 0 1.5-.7 2-1.7.6-1.1.4-1.3-.3-.3-.6.7-2 1.6-2.8 1.6-.1 0 0-.3.4-.7.3-.3.8-.6 1-.6.5 0 1-1 1-2 0-.8-.5-1-1-.1-.5.7-1.2.4-.8-.3.3-.4.2-.7 0-1-.2-.2-.2-.6.4-1.7.8-1.7.8-2 .2-2.7a8 8 0 0 1-2-5.3c-.1-1.3-.6-4.1-1-6.2l-.7-4.3a7 7 0 0 0-.2-2.1c-.2-.9-.3-1.9-.2-2.2a4 4 0 0 0-.3-1.7l-.4-1.8c0-.4-.1-.6-.3-.6-.4 0-.5.4-.2 1.3.2.6.2 1 0 1.3a2 2 0 0 0-.1 1.3c0 .6 0 1-.8 2l-1.3 1.4c-.3.2-.5.7-.5 1.2s-.3 1.6-.8 2.5c-.5 1.2-.7 1.8-.5 2.3.3.7-.1 3.5-.8 5.8l-.6 2.7c0 1.2-.7 1.9-.7.8 0-.5-.1-.7-.4-.6-.3.1-.3 1-.1 2.2 0 .4 0 .5-.4.4-.3 0-.4.1-.4.9 0 1.1-.4 1.2-1 .2-.2-.5-.3-1.1-.2-1.8.1-.7 0-1 0-.8-.2 0-.4.6-.5 1.2-.1.6-.4 1.4-.7 1.8-.5.6-.5 1-.3 2 .2 1.4 0 2.1-.5 1.3-.2-.3-.3-1-.3-1.4 0-2-.4-1.7-1 .5-.2 1.4-.5 2.2-.7 2.2-.5 0-.5 0 .1-2.8.6-2.7.6-2.7.3-2.4-.2.2-1.4 4-1.4 4.5 0 1.5.6 3.9 1.1 4.4l.6.8c0 .1.1.2.4.2.3 0 .3-.1.1-.4-.3-.7-.6-3.4-.4-4 .3-.7.7 0 .7 1.5 0 1 .1 1.7.5 2.3.7 1.2.7 1.5-.2 1.3-.8-.3-.8.2 0 .6.5.2.7.2 1 0 .2-.3.4-.2.7.2.3.3 1.1.8 1.9 1a6 6 0 0 1 1.6.8c.2.2 1.1.3 2.8.3a8 8 0 0 0 4-.9zm-9-1.4c-.1-.1-.2-.3 0-.4.1-.2.9.1.9.4 0 .4-.7.4-1 0zm-2-1.9-.4-1.6c-.2-1-.1-1.2.2-1.2.3 0 .4.2.4.9 0 .5.2 1 .6 1.3l.5.7c0 .4-1 .3-1.3 0zm2.3-1.7c-.3-.2-.2-3 0-3 .3 0 .6 1.3.6 2.3 0 .6-.3 1-.6.7zm1.4-1c0-.7 0-1 .3-.9.2.1.3.5.3 1 0 .3-.1.7-.3.8-.2 0-.3-.2-.3-.9zm-3.2-.7c0-.4.1-.7.3-.7l.2.1.2.8c.1.5 0 .6-.3.6s-.4-.2-.4-.8zm12.2.2c0-.5.4-.8.8-.5.2 0 .2.2 0 .5-.5.5-.8.5-.8 0zm-8-1.5-.4-1.4c0-.7 0-1 .3-1 .4 0 .7.6.7 1.6 0 .8-.5 1.4-.7.8zM67 93.5c0-.5.4-1 .6-1 .1 0 .2.2.2.6 0 .4-.1.6-.4.6-.2 0-.4 0-.4-.2zm13.2-.8c-.2-.3.2-1.7.6-1.8.2-.1.3.2.2.9 0 1-.5 1.4-.8 1zm-8-1.2c-.2-.5 0-1.6.3-1.5.1 0 .3.3.3.7.1.9-.4 1.5-.6.8zm6.3-8.2c-.2-.6.4-1.8.7-1.6.2.1.2.5.1.9-.2 1-.6 1.3-.8.7zm-61.5 19.1 1.2-1.7c.4-.9.4-.9 0-.6-.6.4-2.5 2.6-2.5 3 0 .4.4.2 1.3-.7zm27.4.3c.1-.1 0-.2-.1-.2-.2 0-.3 0-.3.2l.1.3.3-.3zm-13.6 0c0-.2-.1-.3-.3-.4-.1 0-.2 0-.2.2 0 .1 0 .2.2.2h.3zM16.8 101c.3-.6.4-.8.1-.9-.2 0-.2-.2-.2-.3.1-.1.4-.2.6 0 .2 0 .5-.2.8-.6.8-1.2-.4-2-1.7-1-.5.3-.6.6-.6 1.9 0 1.7.3 2 1 .9zm27.3.4c.3-.1.2-.2 0-.3-.8-.3-.6-.8.2-.8.5 0 .6.2.5.4-.2.6.2.5 1.8 0 .8-.3 1.4-.7 1.5-1 .2-.5.5-.7.9-.7.8 0 1.1-.4.5-.7-.2 0-1 .1-1.6.5-.8.4-1.6.6-2.9.6-1.4 0-1.8.2-2.1.6-.3.4-.5.4-1.5.1a8 8 0 0 0-2.6-.1c-.8.1-1.5 0-2-.2l-1.3-.2h-.7l.9.7c.7.6 1.2.7 3.8.8 1.7 0 3.1.2 3.2.3.2.3 1 .3 1.4 0zM21 99.2l.4-1c0-.7-1.4-.6-2 0-.3.4-.4.6-.2.5.2-.2.5-.2.7-.1.4.1.3.3-.2 1.3l-.7 1.4c0 .3 1.6-1.3 2-2zm61.1.6c.3-.5 0-.6-.4-.1-.2.2-.2.4 0 .4l.4-.3zm-47.8-.6c0-.3-3.1-1.1-3.4-.8-.2.2.4.6 1.1.6.5 0 1.1.2 1.4.4.6.4 1 .3 1-.2zm7.3-.1c0-.2 1-.3 2.2-.4 2-.2 3.4-.5 4.5-1 .8-.5.7-.9-.1-.7-.5.2-.7.1-.6-.1 0-.2.6-.4 1.2-.4 1 0 1.3-.2.9-1.3-.5-1.2-1-1.1-2.3.3-2.2 2.2-1.7 2-7.9 2.6-2 .2-3.3 0-3.3-.6 0-.3.1-.3.6-.2.9.3 3.4.5 3.4.3l-.6-1c-.7-.8-.5-1.4.3-1 .6.3 4 .3 3.8 0l-.9-.4c-.4 0-1.6-.5-2.5-1l-2-.7a7 7 0 0 1-1.4-.4c-.8-.3-1-.3-.7 0 .2.2.7.4 1.2.5 1.2.3 1.4.7.3.7-1.3 0-1.4.7-.2 1 1.4.2 1.3.6-.2.5h-1.4c0 .2.3.3.5.3.3 0 .6.2.7.3.2.3-.3.3-1.7.1-1.6-.1-1.9 0-1.6.2.1.2.7.5 1.2.7.6.3 1 .6 1 .9 0 .3.2.5 1 .7 1.5.3 4.4.4 4.6 0zm-32-.9c.1-.2.5-.6.9-.7.9-.5.7-.9-.5-.9-1.5 0-2.2.4-1.9 1.1.2.3.2.7.1.9-.2.5.9.3 1.3-.4zm16.8.1c.2-.5.2-.8-.1-1.1-.4-.4-.4-.3-.4.7 0 1.3.1 1.4.5.4zm-10.6-.6c0-.1-.1-.3-.3-.3l-.2.3.2.3c.2 0 .3-.2.3-.3zm9.5-1.3c.4-.2.4-.5 0-1.8-.3-1.8-.6-2.2-1-1.4-.2.4-.2.7.1 1.3.8 1.5.4 2-.8 1.2-.4-.3-.6-.3-.6-.1 0 .1.1.3.4.3.2 0 .3.1.3.3 0 .3.2.4.4.4.3 0 .5.3.5.5 0 .4 0 .4.1 0l.6-.7zM15 97l-.1-.3-.3.3.1.3c.2 0 .3-.1.3-.3zm6-.1c.7-.2.3-.7-1-1.4-.8-.4-1.5-.6-1.9-.5H18c.1 0 .3-.3.3-.5s.2-.5.5-.6c.3-.2 0-.3-1-.3s-1.7-.1-1.7-.3c-.3-.4.6-.8 1.4-.7.9.2 1 0 .4-.6-.4-.4-.9-.3-3 .5-1.6.5-3.7.9-4.8.8l-2.2.3c-1.3.3-1.6.3-2 0-.4-.6-.3-1.2.7-2.3.5-.6.8-.7 1.5-.7.5 0 1 0 1.2-.4.6-.6 2.7-2 3.8-2.5 1.1-.4 1.5-1 1-1.7-.7-.8-1.8-.4-4.6 1.5-3 2-3.3 2-4.5.7l-.7-.8v.8c0 .6 0 .9.4.9l.8.4c.4.6 0 1.4-.7 1.4-.6 0-.7.5-.1 1.3.3.5.3.7 0 1.5-.1.5-.2 1.2 0 1.6.2.9 1.2.9 2.8 0a5 5 0 0 1 1.7-.7 8 8 0 0 0 2-.5c1.7-.7 2.9-.6 3.9.3.4.4 1.1 1 1.6 1.2.5.3 1.2.8 1.4 1.1.4.4.7.5 1.6.4l1.4-.2zm36.3 0c.2-.6-.4-1.2-.8-.8-.3.3 0 1.2.4 1.2l.4-.4zm-34.8-1.9c-.1-.4-.9-.5-.9-.2 0 .4.3.6.7.6.2 0 .3-.1.2-.4zm4.7-.6c0-.3-.3-.6-.5-.8-.6-.3-.7-.2-.3 1 .2.6.4.8.6.5l.2-.7zm5.3 0c-1-1-1.9-1.5-1.9-1.1 0 .3 1 1.4 1.7 1.8 1 .6 1 .3.2-.6zm23.4.5c0-.2 0-.3-.4-.3-.3 0-.6.1-.7.3 0 .1.1.3.4.3.3 0 .6-.2.7-.3zm-10.7-.3c-1-.4-.5-.9 1.2-.9 1 0 1.5-.1 1.6-.4.1-.3-.4-.3-3.1-.1l-4.5.4 1.2.6c.9.5 1.8.7 2.8.7 1.2 0 1.3 0 .8-.3zm9.8-1c0-.2.1-.3.4-.3l.4-.2c0-.4-2.2.6-2.4 1 0 .2.2.2.8 0 .4-.2.8-.4.8-.6zm-21.5-.2c-.3-.3-.6-.4-.6-.3-.3.3.1.7.6.7.4 0 .4 0 0-.4zM22.6 93l-.7-.6c-.3-.2-.9-.8-1.2-1.3l-.6-1v1c0 1.2 0 1.4 1.4 2 1 .3 1.3.3 1.1 0zm6-.7c.5-.8.5-.8 0-1.4-.9-1-1.2-1.7-1-2.5.1-.7 0-.8-.3-.8s-.6-.3-1-1.1c-.8-2.3-1-2.7-1.2-2.7-.7 0-.5 1 .6 3.3 1.4 2.8 1.8 4.2 1.1 4.2-.2 0-.5-.4-.7-1-.2-1-.3-1-1.2-1-.8 0-.9 0-.8.5 0 .3.2.5.5.4.3 0 .6.2.7.6.2.4.5.7.7.7.2 0 .7.4 1.1.8l.8.8.7-.8zm23.3.5c1-.5.9-.8-.2-.8-.8 0-1.4.6-1 1 .2.2.4.1 1.2-.2zm-18-1.7c-.7-.6-1.4-.8-1.4-.4l1 1.2c1 1 1 1 1 .4.1-.4 0-.8-.6-1.2zM9.4 92c1.9-.5 1.8-.9 0-.8-1.8 0-2.6.3-2.6 1 0 .4.3.4 2.6-.2zm34.2.3c.3-.2.2-.3-.4-.5-2-.8-3.7-1.3-4.2-1.3-.3 0-1-.3-1.6-.7-1.1-.8-1.8-.9-.9-.1l.9.5c.4 0 1.7 1.1 1.7 1.5 0 .6-1.2.2-2.4-.7-1.7-1.3-2.4-1.7-2.4-1.2 0 .3 1.3 1.5 1.7 1.5l1.2.6c.9.6 1.2.7 3.5.7 1.4 0 2.7-.1 2.9-.3zm11.8-.4c.3-.2-.4-1.1-1-1.2-.6-.2-1 .2-.3.4.4.2.4.3-.2.7l-.7.6 1-.2c.6 0 1.2-.2 1.2-.3zm-41.8-.5c.4-.1.6-.4.6-.6 0-.4-.3-.4-1.3 0-.9.5-1 1.1-.3.9l1-.3zm33.7.1c0-.4-.6-.5-2.3-.5l-1.5.1 1.2.3c1.5.4 2.6.5 2.6.1zm3.1-.6c.2-.2.8-.4 1.3-.5.6-.1 1.3-.4 1.5-.6.5-.3.5-.4-.2-1.2-.4-.4-.7-1-.8-1.4l-.3-1.8c-.2-1.1-.3-1.1-1.4-1.2-.6 0-1.3-.2-1.5-.5-.5-.5-1.1-.5-1.4 0-.2.7.4 1 2 1 1.4 0 1.7 0 1.7.3 0 .4-.3.5-1.6.4-1.3 0-1.5 0-1.5.4l-.2 1c-.2.4-.1.5.4.5.4 0 .8.1 1 .3.2.2.5.3.7.3.7 0 .4.6-.3.6-1 .1-1.4.3-1.4.7 0 .4.2.4 1.4.3 1.3-.2 1.5-.1 1.4.2 0 .2-.5.4-.9.5-.4 0-.8.3-.8.6-.1.5.5.6 1 0zm-.7-3.8c-.3 0-.6-.3-.8-.6-.3-.6-.3-.6.8-.4l1.4.3c.5.3-.6.9-1.4.7zM17.8 90l.3-1.6c.1-.8 0-1-.8-1.9-.5-.5-1-1-1.2-1-.4 0-.3.8.1 1 .2.1.4.7.5 1.3 0 .6.1 1.1.3 1.2.4.3-.1.8-.8.8-1 0-.5.7.5.8 1 .1 1 .1 1.1-.6zm12 .2c.2-.5.1-1-.4-1.9l-.6-1.5c0-.6-1-1.4-1.4-1-.4.4 0 1.5.6 1.7.7.1 1.3 1.4.8 1.7-.3.2-.3.4 0 1 .3.8.7.8 1 0zm36.8-.4c0-.7 0-.7-.4-.2-.4.5-.3 1 .2 1l.2-.8zm-21.8.3c0-.2-.5-.3-.9-.4a248.3 248.3 0 0 0-4.6-2.7 9.8 9.8 0 0 1-2.4-2.1c-.9-1.3-1.1-1.4-1.4-.8-.1.5 1.7 2.4 3.6 3.9.5.3.8.8.7 1-.3.4-1.4-.2-3-1.7-2-2-2-1.9-2-1.4 0 .3.7 1.1 1.5 1.9 1 1 1.7 1.4 3 1.8 2.7.7 5.8 1 5.5.5zM20 89c0-.5.6-.5 1.3 0l.7.4c.3 0 .2-2.2-.2-2.7-.3-.4-.3-.3-.3.5 0 1.4-.7 1.4-1.1 0-.4-1-1-2-2.7-3.5a4 4 0 0 1-.8-1l-1-2.1c-.5-1-.9-2-.9-2.3 0-.5.6-.2 1 .5.3.7.7.7.5 0l-.4-1.5c-.2-.8-.7-1.5-1.6-2.4-1-1-1.2-1.2-1-.6.2.7.1 1.3-.3 1.3l-.9-1.6c-.6-1.7-2.1-3.7-2.5-3.3-.3.3 1 2.8 2.3 4.4 1.5 2 3.5 5.8 3.3 6.5-.1.7.3 1.4 1.9 3 1.4 1.5 2.2 3 2.2 4 0 .4.1.8.3.8l.2-.4zm25.8.1c.4-.5-.4-1-1.4-1-1.3 0-1.4.3 0 .9 1.1.5 1.2.5 1.4.1zm-20.5-1.1c0-.4-.6-1.4-1-2.3-.8-1.6-.9-1.7-.4-2.4.2-.4.4-1.1.4-1.5 0-.6.1-.9.4-.9.5 0 1-1.8.6-2.2-.3-.3-.7.2-1 1.2 0 .4-.2.8-.4.8-.4 0-1.5 2.2-1.5 2.9a7 7 0 0 0 1.4 2.9l.8 1.4c.6.9 1 1 .7 0zm6-.2c.3-.6.3-.8 0-1.8-.4-1-.4-1.2-.2-1.4.3-.2.4-.3.5 0l.4.6c.4.6.9-.4 1-1.9l.1-4.9c.2-2.4.2-3.6 0-3.5a12 12 0 0 0-.5 3.3c-.2 4.4-.4 5.4-.8 5.4-.3 0-.4-.4-.2-2.1.1-1.7 0-2.2-.2-2.5-.3-.2-.5-.9-.6-1.5-.1-.7-.3-1-.5-.9-.4.2-.1 6.7.3 8.8.4 1.6.3 2-.5 1.2l-.5-.3c0 .3 1 2.3 1.2 2.3l.5-.8zm121.3-.1.2-.8c.3-.2 0-1.5-.4-1.7-.4 0-.6.8-.4 2.2.1 1.2.6 1.4.6.3zM84.1 87c0-.2-.1-.5-.3-.7-.2-.3-.3-.3-.6 0-.2.2-.2.4 0 .7.3.2.3.6.2.8-.1.4 0 .4.3 0l.4-.8zm-68.3.5s-.1-.2-.3-.2c-.1-.1-.2 0-.2 0 0 .2.1.3.2.3h.3zm29.6-.1c0-.5-3.1-2-3.8-1.8-1 .3-4-2.5-4-3.8 0-.3 0-.6.3-.8.5-.4.5-.8 0-.8s-1.2 1-1.2 1.7c0 2.8 3.7 5.6 7.9 5.7.5 0 .8 0 .8-.2zM6 86.4c-.8-.8-1.2-.7-.8.2.2.3.6.5.9.5.6 0 .6 0-.1-.7zm39.8-.6c-.2-.2-2-.6-2-.4l1 .6c.5.4.9.5 1 .3.2-.1.2-.3 0-.5zm20.8-.4c.6-.2.6-.2.1-.4-.8-.4-1.9-.3-2 .1-.3.7.3.7 2 .3zm16.7-.3c0-.7-.1-.7-.8-.4-.8.4-.7 1.1.1 1.1.5 0 .7-.1.7-.7zM5.9 83.8c-.6-1-1.4-1.3-1.8-.9-.3.2-.2.4 0 .5.3 0 .8.5 1.3 1 .9 1 1.2.6.5-.6zm14.7 1c0-.3-.5-.7-.7-.5-.3.2 0 1 .4 1 .2 0 .3-.2.3-.4zm49.5-.4c.5-.5.5-.5 0-.9-.4-.3-.3-.3.4-.7 1-.5 1.3-1.7.7-2.3-.5-.5-1.3.1-.9.7.2.2.2.4-.3.8a2 2 0 0 0-.8.9c-.1.4-.3.5-1 .4l-1.6-.3c-.5 0-.8 0-.8.3 0 .6.8 1 1.6.8.9-.2 1 .2.3.8-.4.3-.3.3.8.2.7 0 1.3-.4 1.6-.7zm-40.7-3.3c-.1-3.3-.2-3.6-.7-4-.6-.5-.6-.5-.9.4-.2.6-.5 1-.7 1.2-.5.3-.6 1.3 0 2 .3.4.3.4.7-.5l.4-.9v1.3c-.2 1.4.7 4.1 1.2 4.1v-3.6zm-21.5 3-1.6-2.8c-1.7-2.6-2.1-2.7-2.1-.8 0 .8 0 1 .8 1.2.6.2 1.1.6 1.7 1.5.8 1.3 1.2 1.6 1.2 1zm18.8-1.3c-.2-.4-.4-.7-.6-.7-.3 0-.3 1.2 0 2l.4.5.2-.6c.2-.4.2-.8 0-1.2zm18.7 1.6-1.5-.9a17 17 0 0 1-3.1-2.3c-2-1.8-2.4-1.3-.5.6.7.6 1.1 1.3 1 1.5 0 .3.7.7 1.9 1 .7.1 2.2.2 2.2 0zm9.8-1c0-.2.3-.7.6-1 .6-.8.6-1.1.1-1.1-.8 0-.4-4.2.4-4.4.4-.1.5-.4.5-1.4 0-1-.2-1.4-.8-2.3l-1.4-2c-.2-.4-.6-.7-.7-.7-.5.2-.6 1.2-.1 1.4.4.1 1.4 2 1.4 2.6 0 .6-.8 2.3-1 2.3-.2 0-.3.3-.3.7 0 .5.1.6.6.5.5-.2.5-.1.3 1.2a14 14 0 0 0 0 3.5c0 .7 0 1.2.2 1.1l.2-.5zm27.8.1c0-.4-.8-.7-1.2-.3-.6.5-.4.8.4.7.5 0 .8-.2.8-.4zm-37-.2-.8-.4c-.7 0-.7 0-.2.4.7.5 1 .5 1 0zm5.2.1c.8-.4 0-.8-1.3-.6-1 .1-1.3 0-1.3-.3s.3-.4 1.1-.5c1.5 0 1.3-.6-.2-.6-1 0-1.7.4-1.7 1 0 .2 2.2 1.3 2.7 1.3.2 0 .5-.1.7-.3zm-41.7-1c0-.2-.3-.4-.7-.6-.4-.1-.7-.6-1-1.3A9 9 0 0 0 6.2 78c-1-1.2-1.2-1.7-1.2-2.5 0-.6-.2-1-.3-1-.2 0-.3.4-.1 1.5.2 1.7.5 2.4 2.7 5.7C8.4 83.3 8.5 83.4 9 83l.5-.7zm30.4.4c0-.5-1-1.4-1.2-1.1-.3.2.4 1.5.8 1.5.2 0 .4-.2.4-.4zm-27.1-1.9a91.6 91.6 0 0 1-6.9-14.5c-.5-1.2-1-2.5-1.3-2.9-.4-.6-.4-.5-.4.7 0 1 .3 1.9 1.3 3.9.7 1.5 1.2 2.8 1.1 3-.1.4.8 2.2 3.6 7.6 2.4 4.4 2.5 4.5 2.8 3.4.1-.6.1-1-.2-1.2zm9.6 1.3c1.2-1.8 2.4-4.4 2.3-5-.3-1.3-.6-1-2.4 2.4-.8 1.5-1.2 2.6-1.1 2.8.2.7.6.6 1.2-.2zM53 79l.1-2.4-1.7.1c-2.3.2-3 .8-.8.8 1.1 0 1.5 0 1.5.4 0 .3-.4.4-1.3.4-1.5 0-2.2.2-2.2.6 0 .1.6.2 1.6 0 1.7-.1 1.9 0 1.9 1.3l.1 1.7.2.8.2-.7c.2-.4.4-1.7.4-3zm28.4 3c0-.4.2-.8.5-1.1.5-.6.2-1-.7-.9-.5.2-.6.4-.6 1.2l.2 1.1c.4.4.6.2.6-.4zM68 82c-.5-.3-1-.3-1 0 0 .1.3.3.7.3.6 0 .6-.1.3-.3zm-22-.2c0-.1-.3-.4-.8-.6a7.7 7.7 0 0 1-3.3-2.4l-.5-.8-.8.7-.7.6.7.7c1.2 1 3.4 2 4.5 2l1-.2zm-24.5-1.7 2.6-4.8c1-2 1.7-3.3 1.8-3.2 0 .2-.1.9-.4 1.6l-.6 1.8c0 1.2.5 1 1.1-.4 1.1-2.4 1.1-2.8.3-4.5l-.9-1.6-.7 1.5c-.4 1-.6 1.7-.5 2.2.2.7.1.8-.5 1.2-1 .5-3 4.4-3.2 6.2v1.4l1-1.4zm25.1.3c0-.6-.1-.7-1.7-1-1.2-.1-1.1.2.2 1 1 .7 1.5.7 1.5 0zm4.5.2.2-.6c.2-.5-1-.5-2.2 0-1.3.4-1.1.7.5.7a5 5 0 0 0 1.5-.1zm-31.7-1.4c.4-1 0-1.4-.4-.5-.5 1-.5 1.2-.2 1.2.2 0 .4-.3.6-.7zm37.7-.6c-.3-1-.7-.7-.7.4 0 1 0 1 .4.6.3-.3.4-.7.3-1zm10.5.2c0-.4-.3-.8-.5-1-.8-.8-1-1.4-.5-2 .5-.4.5-.4 1 0 .7.7 1.4 1 1.6.7 0-.2 0-.5-.4-.7-.5-.5-.7-1.2-.4-1.2l.9.5c1 .7 2.2 1 2.2.4 0-.2-.3-.4-.7-.4-.8 0-1-.4-.4-.8.4-.2.8-.2 1.4 0 1 .4 1 .4 1-.1 0-.2-.2-.4-.5-.4-.7 0-1.1-.6-1.2-1.7-.1-1.1-.4-1.6-.4-.7 0 .4-.2.9-.4 1-.4.7-3 2.4-3.8 2.6-.4.1-.6.3-.5.7 0 .2 0 .6-.3.8-.6.5 0 2.1 1.1 2.6.9.3 1 .3.8-.3zm14.1-.2c.1-.4 0-.6-.4-.6s-.6.2-.6.7c0 .9 1 .8 1 0zm-68.5-.2c0-.1-.5-1.2-1.3-2.3a33.1 33.1 0 0 1-4-8.1c-.5-2-1.4-3.9-1.7-3.6a40 40 0 0 0 3.8 9.3c2.2 4.6 2.9 5.6 3.2 4.7zm30.9-.8c-.8-1-1.6-1.1-1.6-.2 0 .5 1 1.1 1.8 1.1.4 0 .4 0-.2-.9zm3.2.4c.2-.7 0-1-1.6-1.1l-1.3-.2 1 1c1 1 1.6 1 1.9.3zm108-3.5c.4-1 .8-1.6 1-1.6.6 0 .7-.4.4-1l-.3-.5-.8.6c-1.1.8-1.8 2.5-2 4.7l-.2 2 .7-1.3c.4-.8 1-2 1.3-3zm-128.5 3c.1-.3.2-1 0-1.4 0-.6 0-.8.5-.9.5-.2.7-1 .3-1.6-.2-.3-.3-.1-.6.5a51 51 0 0 1-.8 2.1c-.5 1.2-.5 1.8 0 1.8.2 0 .4-.2.6-.5zm42.8.3c.4-.3.3-.3-.1-.3-.3 0-.8 0-1.1-.2l-.6.1c0 .3.5.5 1.2.6l.6-.2zm1.3-.7c-.2-.2-.8.4-.6.7.1.2.3.2.4-.2.2-.2.2-.5.2-.5zm10.6-.3c-.2-.7-1-.8-1-.1 0 .4.1.5.5.5s.5-.1.5-.4zm-62-1.4c.5-1 .4-1.2-1-4.1l-1.8-4.7-1.1-2.6c-.4 0 0 3 .4 3.8l.5 1.4c0 .4.1.7.2.6.7-.5 1.8 2.6 1.6 4.6 0 .9.3 1.8.7 1.8l.5-.8zm10.1-.1c0-.5 0-1 .2-1.2a64.5 64.5 0 0 1-3.2-10.8c-.5-2-1-3.8-1.2-3.9 0-.1-.3 0-.5.4-.3.6-.1 2.5.3 2.8l.2.7c0 .3.3 1 .5 1.4.8 1.3 1.5 3.3 1.5 4.7 0 1 1.9 6.7 2.2 6.8v-1zm16.2.3c-.6-.5-1-.5-1.2 0-.1.3.4.5 1.3.5.5 0 .5 0 0-.5zm6.3.2s-.2-.2-.5-.2c-.4 0-.8.2-.9.3-.2.3 1 .2 1.4 0zm-3.5-.3c.2-.4-2-1.5-2.4-1.2-.2.2 0 .5.5 1 .8.6 1.8.7 2 .2zm32.8-1c0-.5 0-1-.3-1.3a2 2 0 0 1-.5-1c0-.5-.2-.7-.6-.7-.5-.1-.6 0-.5.2l.3 1.7c.2 1.8.3 2 .9 2 .3 0 .5-.3.7-.9zm-59.2 0c.3-.8 0-1.5-.4-1l-.5 1c-.2.8.5.8.9 0zm31.8.4c0-.3-.9-1.1-1.3-1.1l-1.5-.6c-.6-.3-1.2-.5-1.3-.4-.4.4.6 1 2.2 1.7 1.7.6 2 .7 2 .4zm10.5-.9c0-.6 0-.9.5-1 .3 0 .6.1.8.4.3.4.4.4 1.1 0 .7-.4.8-.6.7-1.1-.1-.5 0-.6.4-.6.5 0 .6-.2.6-1 0-1-1.8-5-2.8-5.9-1.5-1.5-1.7-1.6-3-1.5-1 0-1.1.1-1.1.6s-1.2 1.2-2.1 1.2c-.6 0-.2-2.5.6-4 1-2 1.5-3.3 1.7-6 .2-3.4-.2-3.3-2 .2-.7 1.5-1.5 3.1-1.9 3.6-.6 1-.6 1.2-.4 3 .1 1.8 0 2.1-.3 2.3-.3.1-.4.4-.3 1 .2.7.1 1-.2 1-.3 0-.5.2-.6.4 0 .3-.3.6-.5.6-.3 0-.4.1-.2.4l.6 1.8c.5 1.4 1 2 2.3 2.7.5.3.9.6.9.8 0 .2.2.4.4.4s.6.3 1 .8c.4.7.7.8 1.3.7h1.4c.8.4 1 .2 1-.8zm-1-1.5c0-.3 1-.6 1.4-.4.5.3.2.6-.6.6-.4 0-.8 0-.8-.2zm-2.2-.7c0-.2 0-.4-.2-.4l-.2-.4c0-.6 1-.5 1.2.1.1.3.3.6.5.6s.4 0 .4.2-.4.3-1 .3c-.7 0-.9 0-.7-.4zm.8-3c-.2-.6-.5-1.1-.7-1.2-.6-.4-.2-.9 1-1.1 1.3-.3 1.5-.2 2.5.4 1.5 1 1.4 2-.3 2.6-1.6.5-2 .4-2.5-.7zm1.7-1.4-.4-.2-.4.2c0 .2.2.3.4.3s.4-.1.4-.3zm24 6.4-.2-2c0-3 0-3.7-.4-4.3-.6-.8-.8-.8-1.1.6-.5 1.8-.4 2.4.4 3.3.6.6.8 1.2 1 2.3 0 .9.3 1.4.4 1.2V74zm-38.4.5-.5-.2c-.2 0-.2 0 0 .2.6.3.7.3.5 0zM16.2 73a5 5 0 0 0-.9-1.7c-1-.8-2-2.7-1.6-3 .4-.4.3-.6-.7-1.7l-1-1v-4.2c-.3-12.3-.9-17-2.5-18.3l-.6-.3c-.3 0-.8 2.7-.6 2.8l.5.3c.4.2 1 5.2 1 9.2 0 2.5 0 2.7.2 1.5.2-1.7.4-2 .7-1 .2.8-.2 5.6-.5 5.9-.1 0-.4 0-.6-.2-.3-.3-.4-.3-.4 0 0 .7 1.3 4.3 1.6 4.4l1 1.8a31 31 0 0 0 4.5 6.9c.2 0 0-.7-.1-1.4zm-6-9.5c-.4-.5-.2-1.3.4-1.4.3 0 .4.1.4.7 0 1-.3 1.3-.7.7zM20.7 72c0-.6-.3-1.9-.6-2.7l-.6-1.6-.1 1c0 1 1 4.8 1.2 4.5l.1-1.2zm32.8.8c0-.1-.2-.2-.5-.2l-1.1-.2c-.7-.2-.7-.2-.1.3.6.4 1.7.5 1.7.1zM104 72l.2-1.3v-.6l-.5.6c-.6.7-.7 1.4-.4 1.7.3.3.6.2.7-.4zm-81.8-1.6c0-.3-.2-.4-.3-.3-.1 0-.3.3-.3.5s.2.4.3.4c.1 0 .3-.3.3-.6zm52.3.4c.2-.2.4-.6.4-1l.3-1c.1-.4 0-.8-.2-1-.4-.3-.6-.2-1.5.8-1 1-1 1-.7 1.7.5.7 1 .8 1.7.5zM5.1 69c-.2-.5-.3-.5-.4-.1l.1 1.1c.2.7.2.7.4.2v-1.2zm19.5-.3c.1-.6.2-1.4.1-1.7 0-.7 0-.7-.5.3-.3.6-.6 1.6-.6 2.3-.1 1-.1 1.1.3.6l.7-1.5zm89 .7c4.8-.8 9-1.4 15.5-2a342.7 342.7 0 0 0 13.6-1.8c2.6-.3 4.3-.8 4.3-1 0-.4-1.9-.6-7.3-.8a22 22 0 0 1-5-.6c-.2-.2-1.8-.3-5.7-.2-5.5.2-8.2.5-10.8 1.1-3.1.8-6.9 1.5-8.6 1.6h-1.8V67c.3 2.9 1.4 3.3 5.8 2.5zm-95-2.7c-.3-5.9-.8-10.9-1.2-11.3-.6-.6-1.1-.3-1 .5l.3 2.5c.2 2.8.4 3.8.9 4.5.2.4.3 1 .2 2.3-.2 1.7.2 4 .7 4a8 8 0 0 0 0-2.5zm139.5.8c1-1.5 1-1.6.5-1.6s-1 .7-1.6 2.1c-.6 1.4 0 1.1 1.1-.5zm-136.6.7c0-.2-.1-.2-.1.1 0 .3 0 .5.1.4v-.5zm-11.4-2c-.6-1.4-.7-1.4-.5-.6.1 1.3 1 3.2 1.1 2.6 0-.2-.2-1.1-.6-2zM79.8 68c0-.3 0-.5-.3-.4-.2 0-.4.3-.4.6s0 .4.3.3l.4-.5zm-9.2 0-.4-.2c-.2 0-.4.1-.4.3l.4.2c.2 0 .4 0 .4-.2zm-50.1-2.4a494.5 494.5 0 0 1-.5-6.2c-.4 1.4 0 8.7.5 8.7v-2.5zm53.2 1.8c.5-.4 1.2-.6 1.5-.6.4 0 .5 0 .5-.6-.2-1.5-1.7-2.4-2.4-1.5L72.2 68c0 .2.6 0 1.5-.6zm-52-.4c-.3-.6-.3-.6-.3-.1l.1.7c.4.3.4 0 .2-.6zm2.3-1.7c0-1-.5-2-.8-1.4-.3.4-.3 2.2 0 3.1l.1.7.4-.8a5 5 0 0 0 .3-1.6zm47.4.8c.2-.7.2-1 0-1.3-.4-.4-.9 0-.7.7.1.3 0 .6-.3.8-.4.3-.4.5-.1.8.4.6.6.4 1-1zm8.4.3c.5-.6-.1-.8-.6-.2-.4.5-.4.5 0 .5.1 0 .5-.1.6-.3zm-10-.6s-.1-.2-.3-.2c-.1-.1-.2 0-.2 0 0 .2 0 .4.2.4s.3-.1.3-.2zm-55.6-1.4-.4-4.5c-.2-2-.4-5-.4-6.7 0-3-.1-3.7-1-3.7-.6 0-.2 8.2.5 8.5.2 0 .3.8.3 2.2 0 2.4.4 5.2.8 5.2.1 0 .2-.4.2-1zM79 65c.2-.7.2-.9-.2-.9-.5 0-.8.4-.6.9.3.5.6.5.8 0zm24-1.9c.5-2.2.5-2.8.1-3.9l-.3-1-.3 1-.3 1.8c0 .5-.2 1-.5 1.3-.3.4-.3.5.1 1.3l.7.8.5-1.3zm11 .2a236.7 236.7 0 0 0 9.6-1c2.3-.3 2.8-.5 4-1.8l.8-1V53H126.6v1.8c0 4.8 0 5-.8 5.6-.5.4-1 .5-2 .5-.8 0-1.8.2-2.4.4-.6.3-1.3.4-2 .3-.9-.1-1.2 0-1.8.4-.7.5-1.1.6-5 .6-4.2 0-5.7.4-5.4 1 .2.3.8.3 6.8-.3zM55.7 62c.2-1.6 1-4.4 2-6 .3-.7.5-1.7.5-2.3 0-1 0-1-.5-.6-1.5 1-2.9 5.3-2.9 8.6 0 2.5.6 2.7 1 .3zm-39.2-.6-.5-4.3c0-1.7-.3-3-.5-3.4-.2-.3-.4-.8-.4-1.1 0-.3-.2-.6-.4-.7-.6-.2-.7 1.9-.4 5.8l.6 3.9c.1.2.2.2.2 0 0-.5.5-.3.5.2 0 .7.6 1.7 1 1.4l-.1-1.8zm129.8-1.6a92 92 0 0 1-.1-13c.2-4.3.1-5.4-.6-5.4-.2 0-.7-.1-1-.4-.6-.4-.6-.3-.7 1.2 0 1.1-.2 1.5-.5 1.5-.2 0-.4-.4-.4-1.3-.2-2-.6-1.4-.6 1 0 2.3-.1 2.7-.7 2.2-.3-.1-.4-.8-.4-2 0-.8 0-1.7-.2-1.8-.5-.2-.7 1.2-.5 3.1.2 1.8.2 1.9-.5 2.1-.4.2-.6.4-.6.9 0 .4 0 .6-.5.6-.5.1-.6 0-.5-.9.1-2.4 0-5.1-.4-5-.2.2-.2 1.3-.2 3.7.1 3 0 3.5-.3 3.5s-.4-.7-.5-3.6c0-2-.2-3.4-.3-3.3-.1.2-.3 2.2-.4 4.5 0 3.9-.3 5-.8 4.5-.1 0-.2-2.1-.1-4.5 0-2.6 0-4.4-.2-4.4s-.5 4.1-.7 8.5c0 .7-.2 1-.5 1-.5.1-.5 0-.3-2.1.3-2.3.2-6.8 0-7 0-.1-.3 0-.4 0-.2.3-.2.5 0 1 .2.3.2.6 0 1-.2.3-.3 1.3-.3 2.3 0 2.9-.3 4.6-.7 4.6-.3 0-.4-.5-.2-3.5.2-3.8.1-3.9-1-1.7a5 5 0 0 0-.7 3.1c0 1.6 0 1.9-.5 2.3-.5.3-.6.5-.5 1.3.2.6.3 2.2.4 3.7 0 2.4.1 2.8.7 3.1l1 .4c.4 0 .8.2 1.1.4.3.2 1 .4 1.5.4s1.8.3 2.9.6c1.3.4 3.1.6 5.5.7l3.6.2.2-1.5v-2zM21.6 62.3c0-.2 0-.6-.2-.8-.2-.3-.3-.2-.3.4 0 .5.1.9.3.9.1 0 .2-.2.2-.5zm54.5-.2c.3-.7.6-.8 1-.3.3.2.5.2 1 0 .3-.3.8-.3 1-.2.2.2 1.5-1.1 1.5-1.6 0-.2-.2-.4-.4-.5-.5-.2-.2-.7.4-.7.6 0 1-.5 1.2-1.8l.2-.9-1 .2c-.8.2-.8.1-1-.7l.1-1.2c.3-.3.2-.6 0-1.4-1-2.2-1.5-5.6-1.6-9.2 0-1-.1-2-.3-2.1-.2-.2-.5-1-.6-1.8-.2-.7-.4-1.2-.5-1-.8 2.3-1 3.7-1.2 6.8 0 3.5 0 3.5.6 4 .6.4 1.5 1.9 1.5 2.6 0 .3-.2.4-.7.3-.5-.2-.6 0-.6.2 0 .7-.5.5-.8-.3-.2-.6-.4-.8-.7-.7-.6.3-.5-1.4 0-1.9.5-.3.5-.3-.2-.6-.4-.1-.9-.2-1.1-.1a2 2 0 0 1-1 0c-.8-.2-1.2-1.5-.7-2.3.2-.4 0-.8-1-2-.7-1-1.4-1.7-1.6-1.7-.4 0-.4 0 0 .9v2.2c-.2 1.4-.3 1.5-.8 1.5s-.6 0-.5.4c.2.2.6 1.4 1 2.6.6 1.8.7 2.3.5 3.3-.5 2.4.3 6 1.6 6.5.4.2.9.5 1 .8.4.7.8.8.8.2 0-.3.3-.4.7-.4.8 0 .9.4.2.8-.4.2-.4.2 0 .3l.7.3c.8.3 1 .2 1.3-.5zm-2.4-1.6a.6.6 0 0 1-.2-.4c0-.3 1.1-1 2-1.1 1.2-.3 1.2.2 0 .8l-1 .6c0 .3-.6.3-.8 0zm-.8-4c-.7-.6-.7-.8-.7-2.3 0-2.1.4-2.5 1.6-1.3 1.1 1 1.4 2 1 3.1-.5 1.1-1 1.2-2 .4zm87.5 5c.4-.3.5-.4.1-.6-.4-.3-.7-.1-.8.6-.2.6 0 .6.7 0zM110 59c0-2.3-.4-4.2-.8-4.2-.2 0 0 5.9.2 6.6 0 .3.2.3.4.1.1-.1.3-1.2.2-2.5zm6.5 1.8c.5 0 1-.4 1.3-.7.5-.8.6-3.7 0-4.2-.2-.2-.4-.6-.4-.9 0-.4-.1-.5-.7-.3-.4 0-1.1.5-1.7 1l-2 1c-1.6.1-2 .7-1.9 2.5.1.9.3 1.6.5 1.7.3.2 3.6.1 5-.1zM8.4 60.7c0-.2-.2-.3-.4-.3-.4 0-1.2-1.1-1.2-1.7 0-.2.2-.4.4-.4s.4.2.4.4.3.5.6.7l.8.6v-3.6c-.1-4.8-.3-7.7-.5-7.5-.1 0-.2 1.5-.2 3.3 0 3.3-.3 4-1.1 3.5-.5-.3-.8-1-1.3-3.8l-.4-2v1.5c0 1.6.4 4.4.8 5 .2.5 0 .8-.5.8-.1 0-.3-.2-.3-.4s-.1-.4-.3-.4c-.3 0-.3.2 0 .8l.6.6c.3 0 .5.5.6 1.3.2 1.2.4 1.4.9 1.4.3 0 .7.2.7.3.3.2.4.2.4-.1zM19.2 59c0-1.4-.3-2.6-.5-2.3-.3.4 0 3.9.3 3.7l.2-1.4zm105.6.5c.7-.4.7-.5.6-3 0-1.5-.2-2.8-.2-2.9-.3-.4-1.3-.2-2.5.5l-1.5.6c-.2 0-.4.3-.5.6-.2.7-.9.6-1.2-.1-.1-.4-.2.3-.1 2 0 1.4.2 2.7.3 2.8.2.5 4.3.1 5.1-.5zM4.1 59c0-.2-.2 0-.2.3 0 .4.1.6.2.4V59zm18.6-1.5c-.2-.3-.4-.5-.6-.5-.2 0-.1.5.4 1.8l.3.7v-.7c.1-.4 0-1-.1-1.3zm138 .3-.1.3c0 .5 0 .7.1.5v-.8zm-124.5.6c0-.2-2-2.2-2.2-2.2-.4 0-.1.7.6 1.5.8.7 1.6 1.1 1.6.7zM22 54.8c-1.1-4.3-1.3-5.5-1-6.1.3-.6.2-1-.4-2.9-.4-1.2-1-2.4-1.2-2.6-.7-.7-4.3-6.5-6.2-10.3-1-2-2.1-4-2.7-4.5-.8-.8-.9-1-.9-2.7V24H8.1v4c.2 5-.3 5.3-.6.3-.2-4.1-.2-4.3-.8-4.3-.4 0-.4.2-.3 1.3.4 2.6.6 8.6.4 8.9-.4.4-.7-.3-.7-1.8 0-.8-.3-1.6-.5-1.8-.2-.2-.4-.6-.4-1-.1-.2-.2.3-.2 1.3s0 1.8.3 2c.4.5 0 .8-.6.4-.5-.3-.5-.3-.5.5 0 .7 0 .7 1 .8 1 .1 1 .1 1 1-.1 1 .1 1.5 1.2 2 .4.2.6.6.7 1 0 .5.6 1.4 1.3 2.2a11 11 0 0 1 1.1 1.5l1 1.8a46.7 46.7 0 0 0 3.7 5.4l2.3 3c.6 1.2 1 1.1.9 0-.2-1-1-2.6-4.1-7.5-2-3.2-3-4.4-3.4-4.3-.4.2-1.7-1.1-1.7-1.7 0-1 3 1 3.9 2.8.2.4.4.7.5.6a33 33 0 0 0-3.2-6.1c-1-1.4-1.2-2-.6-2 .7 0 1.5 1.2 3 4.3 1.4 3.1 2.7 5.2 4.9 8 1.3 1.7 3 4.6 2.7 5-.3.4-.7 0-1.4-1.5-.8-1.4-3-4.6-3.8-5.3-.3-.3.7 1.4 1.5 2.5l.4.9 1 1.6.9 1.7c0 .5 1.6 3.3 2 3.6.7.6 1.2.5 1-.2zm-3.6-8.2-1-2-2-3a24.2 24.2 0 0 1-3-5.6 6 6 0 0 0-1-1.7c-1-1.3-2-3.5-1.6-3.9h.6c.4.2 2 3.5 2.8 5.5a46 46 0 0 0 5.4 9c.5.7.8 1.4.8 1.6 0 .5-.6.5-1 0zM8.2 37.5c-.5-.2-.4-1 .2-1 .4 0 .5.3.5.6 0 .5-.1.6-.7.4zm-.3 13.7c0-.7-.1-1.1-.3-1.1-.2 0-.3-1-.2-3.3l.2-3.8c0-.4-.2-.8-.6-1.1-.4-.3-.7-.8-.7-1.1 0-.6 0-.6.6 0 .9.8 1 .6.6-.5-.6-1-.8-1.1-2-1.2-1 0-1 0-1 .5.3 1 .5 5.3.5 6.8 0 .8 0 1.7.2 2 .2.6.3 0 .3-2.1 0-2.6 0-2.9.5-2.8.2 0 .4.3.3.6v3.7c0 3.2.2 4.7.8 6.1l.3.8.2-1.2.3-2.3zm-3.4-.6-.3-1.2v1.8c0 1 0 2 .2 2.2.3.8.4-1.4 0-2.8zm102.9 2.7.2-.4c0-.5-1.2-.6-1.4-.2-.3.4.1.9.5.7l.7-.1zm3.8-.5a148.6 148.6 0 0 0 15.2-2c2.4-.3 3-.5 2.8-1.2l-.2-4.2v-3.8H127.6l.1 2.7.4 3.9c.2 1.4 0 1.7-2 2l-3.9.4c-3.7.6-4.5.1-4-2.3.2-1.8.2-5.4 0-5.4-.4 0-.5.5-.9 3.2-.2 1.8-.2 2.5 0 3 .2.3.2.7 0 1.4s-.4 1-1.3 1l-2 .4c-1.3.2-3.2 0-3.6-.5-.2-.1-.4-1.6-.4-3.4-.1-3.5-.3-4.1-.7-3.4-.4.7-.3 5.3 0 6.3.4.8.4.9-.1 1.2-.7.4-.9 1.3-.3 1l2.2-.3zm-4.2-1.6c.7-.2.7-.2.8-2.1 0-1 0-2-.2-2-.4-.3-1.3.6-1.3 1.1 0 .3-.4 1-1 1.4-1.5 1.5-.8 2.1 1.7 1.6zm9-1.2c.2-.2.6-5.8.5-6-.3-.4-2.2.4-3.3 1.4-1 1-1.1 1-1.2 2.9l.1 2c.2.1 3.7-.1 4-.3zm47-1.5-.5-.4c-.3 0-.4 0-.4.9v1l.4-.7.4-.8zm-39.6.6c3-.6 3-.4 3-3.6v-3c-.1-.5-2-.2-3 .5-.5.3-1.3.6-1.8.6-1.2 0-1.2.1-1.3 3.3 0 1.8.3 2.6.9 2.6l2.2-.4zm44-.2 1.3.1c.4.1.4-.6.4-5.3 0-3 0-5.6-.2-5.7 0-.1-.6.2-1 .6l-2.4 2c-1.2.8-1.5 1.2-1.4 1.6.1.3 0 1-.4 1.5-.5 1.2-.7 3-.3 3.3.2.1.3 0 .3-.2s.2-.4.4-.4c.5 0 .5.8.1 1.6-.2.4-.1.5.3.6.3.1.5.3.5.5 0 .1.3.2.8 0l1.6-.2zm-141.8-.6c.3-.2 1-.4 1.4-.4 1 0 1.4-.3 1-.8-.3-.4-.6-2-1.3-6-.7-4-1-7-.5-6.8.2 0 .4 1 .5 2.4a43 43 0 0 0 1.7 9.5c.2 1.1.6 1.2 1.4.3.6-.6.6-.6.2-2.1-.2-.8-.6-1.7-.9-1.9-.4-.3-.4-.4 0-1 .2-.5.2-1-.2-2.4l-.5-2.9c-.1-1.2-1.7-3.3-3.5-4.6a23 23 0 0 1-2-1.7 3 3 0 0 0-1.6-.8h-.9v1.1l.5 2.4.3 1.2.2-1.7c0-.9.2-1.6.4-1.6.3 0 1.3 6.4 1.7 10.8a56.7 56.7 0 0 0 1 7.3c0 .3.6.2 1.1-.3zm.1-5.6a46 46 0 0 0-1-6.2c-.5-2.1-.5-3.5 0-3.5.1 0 .3.7.4 1.6 0 .9.3 2.3.6 3.2.2.8.5 2.3.5 3.3l.4 2.6c0 .6 0 .8-.3.8s-.4-.4-.6-1.8zm-2.3 5.5-.2-2-.5-5.2c-.3-4-.5-5.5-.8-5.5l-.4 2c-.2 3-.5 4-1 4l-.5.1 1.3 3.6c1.1 3 1.6 3.8 2 3zm44.3-2.6-.6-2.8c-.4-2.8-.5-3-.8-3-.4 0 0 3.6.5 4.1.2.2.3.6.3.9 0 .5.6 2 .7 1.8l-.1-1zm-35.2-.8a3 3 0 0 1 2.2-.4c.9.1 1.1 0 2.2-.8.6-.5 1.1-1.1 1.1-1.3 0-.7 0-1 .4-1 .2 0 .8-.3 1.2-.8.6-.5 1.1-.7 1.5-.7.5.1.9-.2 2-1.6L45 36c.4-.3.4-.6.2-1.4l-.2-1-3.8-.1-4.6.1c-.8.2-1 .2-1 0 0-.3-.2-.5-.4-.5-1 0-2.2.4-2.2.6 0 .2.3.2.6.1.7-.3 2.6.6 2.6 1.2 0 .5 1.8 1.6 2.5 1.6.2 0 .7.3 1.2.8 1.7 1.5-.4 1.2-2.6-.4-.5-.4-1.2-.7-1.4-.7-.8 0-1.6-.5-1.6-1 0-.2-.2-.3-1-.3-1.2.1-1.2.2-1.3 1.1l.5 4c.5 3 .5 3.8 0 3.2-.2-.3-1-4-1.2-6.3l-.2-1.5-1 .1a3 3 0 0 0-1 .2c0 .2 1.5 8 2 9.2 0 .4.2.4 1.4-.2zm2-2.5c-.6-1.8-.9-5.7-.5-5.7s.5.6.7 3c.1 1.4.4 2.5 1.2 4l-.5.1c-.4 0-.6-.3-1-1.4zm105 .7v.8c.1-.2.1-.5 0-.8zm23.6-.4c0-.2-.1-.1-.2.2 0 .3 0 .4.2.3v-.5zM20.4 40.3c.3-1.6.2-4.6-.4-8.2-.7-4.7-1-5.4-2.9-7.4-.8-1-1.6-1.8-1.6-2 0-.3-.7-.1-1.2.4-.4.3-1 .6-1.4.6h-1.5c-.8.2-.9.3-.9 1.3 0 .8.3 1.5.9 2.5.4.7 1.5 2.7 2.3 4.5 2.4 5 4.5 8.3 5.7 8.8.8.4.8.3 1-.5zm-3.9-4.4c-3-5-4.4-8-4.4-10 0-.6 0-.7.4-.4.2.2.4.6.4 1 0 .8 1.1 3.6 2.2 5.5l1.5 2.7c.3.6.8 1.2 1 1.3.3 0 .7.5 1 1 .5 1.2.5 1.2-.1 1.2-.4 0-1-.7-2-2.3zm1.6-1.8-.4-1a51 51 0 0 1-4-6.9c0-.7.8.2 2.2 2.5l1.8 2.6.6-.8c.6-1.2 1-.7.6.9-.2 1-.2 1.4.2 2.2.5 1.1.5 1.1 0 1.1-.4 0-.8-.3-1-.6zm146.8 5.4c3.2-2.2 3.9-3.4 2.8-5.2-.7-1-.5-1.5.4-1.4.5.2.6 0 .7-1.4l.2-5.2v-3.6l-.6 1.2a68 68 0 0 0-1 2.1c-.2.5-.6 1.3-1 1.6-.8 1-1.2 2.6-2.1 7.6-.9 4.4-1 5-.7 5l1.3-.7zm.2-2.5c-.5-.5-.2-1.2.5-1.2.6 0 .7.5.1 1.2-.3.4-.3.4-.6 0zM110 38.8l-.2-.4c-.4 0-1.1 1.1-1 1.4.2.3 1.2-.5 1.2-1zm2.4.3a319.9 319.9 0 0 1-.5-3.4l-.2.7a6 6 0 0 0-.7 2.8c.2.3 1 .5 1.3.4.1 0 .2-.3.1-.5zm1-9.1v-1.7l-.5.4c-.6.4-.7.6-.7 3.4v3l.5-1.7.7-3.4zM31 33.8c.6-.4.6-.5.4-1-.4-.7 0-1.1.8-.7.5.3.6.3.7 0 .2-.4.7-1 1.7-1.7.5-.3.9-.4 1.6-.3 1.2.2 2 1 1.6 1.5-.2.2-.4.2-.8-.1-.5-.5-1.5-.6-1.7-.1-.2.4 0 .8.2.7.7-.2 9.6.6 10.3 1 .8.3 2 .4 2.5.1l.6-1.2c.4-1.3.9-1.7 1.7-1.2.6.3.8.3 1-.2.3-.2.5-.9.6-1.4l.5-1.5 1.2-2.8a104 104 0 0 1 1.6-4.2c1-2.4 1-2.6 0-2.6-.8 0-.8 0-.8 1.3 0 1.1-.1 1.5-.6 2-.8 1-1.8 3.8-1.5 4.5.3.7-.4 2.2-1 2.2-.5 0-.5-1.3 0-3 1.3-4 2.3-7.6 2.3-7.9 0-.3-1.8-1.7-2-1.5a100.2 100.2 0 0 0-1.7 2.6c-.4 0-.3-.8.1-1.6.2-.3.4-1 .4-1.3 0-.7.1-.8-1.3 1.3l-1.2 1.4c-.3.4-.8 1.4-1.1 2.5l-1.5 3.8c-.5 1-1 2.3-1 2.7 0 .5-.1.8-.4 1-1 .3-.9-1.2.4-4 1-2.1 1.3-3 1.4-5.4 0-.4.4-1.2.8-1.7 1.3-1.7 2-3.4 1.3-3.4-.2 0-.3 0-.3.2a20 20 0 0 1-2.7 4.4c-.7.9-.8 1-.4 1.6.3.6.2.9-.2 2.1-.2.9-.7 1.9-1 2.3l-.4 1.3c0 .7-.8 1.8-1.3 1.8-.2 0-.3-.2-.3-.4 0-.4 0-.4-.5 0-.7.6-3.1.8-3.6.3l-.4-.8c0-.7-.8-.4-2.1.8l-1.5 1.2c-.5 0 0-.9 1.3-2.2 1.3-1.4 1.6-1.5 2.5-1.5 1.1 0 1.6.4 1.1.8-.5.6-.3.8.8.8 1.2 0 1.5-.3.9-.7-.4-.3-.4-.4 0-1 .2-.3.4-.9.4-1.3 0-.6.1-.7.6-.7s.5 0 .4 1.2v2c.2.4.4.2 1.3-1.8 1.2-2.5 1.4-3.7.8-4.2-.3-.2-.1-.7 1.3-2.5a10 10 0 0 0 1.9-3.2c.2-1.8.4-2.1.8-2.3.2-.1.5 0 .7.3.4.5 1 .6 1 .1l-.4-1.2-.4-1-.9.6a2 2 0 0 0-1 1.3c-.2.8-1.3 3-2 3.8L44 17c-.2.5-1 1.6-1.6 2.5l-1.7 2c-.3.3-.3.3-.4-.2 0-.3.3-1 .9-1.9 1-1.5 1.1-1.9.4-1.9-.4 0-.6.2-.6.7 0 .7-.8 1.6-1.4 1.4-.3-.1-.3-.5-.2-1.2 0-.9 0-1-.6-1.3-.4-.2-.8-.3-1-.2-.1 0-.2 1-.1 2 0 1 0 1.7-.2 1.8-.2 0-.3-.7-.4-2 0-1-.2-2-.3-2-.2 0-.2.7 0 1.7 0 1.2 0 1.8-.2 2-.5.2-.8-.5-.8-1.8 0-.7-.2-1.4-.3-1.6-.4-.7-.6.3-.4 2.8v2.5c-.5 0-.7-1-.7-3s-.2-2.5-1-2c-.5.2-.6.4-.4 1.8l.2 2.3c0 .4 0 .9.2 1 .4.6-.4 1.5-1.2 1.5-.7 0-1 .6-1 2 0 1-.5 1.2-.8.5-.1-.3-.2-2.7-.2-5.5v-5.1l-.8-1c-.6-.7-1-1-1.5-1H27l.1 4.3c.2 3.7 0 5-.4 4.3l-.3-4.1c-.2-3.5-.2-4-.7-4-.3-.1-.4-.3-.3-.6.1-.3 0-.4-.4-.4s-.6.2-.6.5-.3 1-.8 1.6c-.5.8-1 1-1.4 1-1 0-2.5.9-2.5 1.4 0 .8.3.8 2 .2 1.5-.5 1.7-.5 2.3-.2 1.2.6 1.9 2.2 1.6 3.8-.2 1.8-.2 2 0 3.2L26 26h-1.8c-1.6 0-2-.1-2.5-.6-.8-.8-3.2-2-3.4-1.8a38.1 38.1 0 0 1 1.6 3.2c.7 1.3 1.1 1.5 3.3 1.5 1.4 0 1.6.1 1.7.6 0 .3.3.9.6 1.2l1.4 1.6c.4.6 1 1 1.2 1 .8 0 1.8.6 2 1.1.2.6.2.6 1 0zm16.2-3.5c-.1-.3.3-1.7.8-3.3.5-1.5 1.2-3.5 1.4-4.5.6-2 .7-2.2 1-2 .4.3.2 1.4-.9 4.6a17 17 0 0 0-.9 3.6c0 1.2-.4 2-.9 2-.2 0-.4-.2-.5-.4zm-2.5-1c0-.2.3-1.3.8-2.5.5-1 1.4-3.4 1.9-5 .5-1.7 1-3.1 1.2-3.1.4-.2.5.3.2 1.4l-.6 2.5a50 50 0 0 1-2.6 6.8c-.3.4-.7.4-.9-.1zm-16.1-1.6v-.6c.2-.2 1 .3 1.2.7.1.5-1 .4-1.2 0zm-3.9-.6c-.4-.3-.1-.6.5-.5 1 0 1.2.7.3.7-.3 0-.7 0-.8-.2zm3.5-3.1c0-1.3-.1-3.6-.3-5.1-.3-2.8-.3-4 0-4a48 48 0 0 1 .6 11.2c-.2.1-.3-.7-.3-2.1zm136 4.5c0-.2.6-1 1.3-1.8.9-.9 1.6-2 2-3 .3-.9.7-1.5 1-1.6.4-.1.5-.4.5-1.6V19l-.5 1c-.5 1.3-1.7 2.2-2.1 1.9-.2-.1-.2-.4 0-.8.6-.9.6-1.1-.2-1.5-.5-.2-.7-.2-1 0-.4.4-.4.4 0 .9.3.3.4.7.2 1.7a13 13 0 0 1-1.7 4.7c-.3.4-.4.7-.2 1.4.2.9.7 1 .7.2zM55.5 24.7l.5-2.4c-.1-.4-.9 1.8-1.2 3.4-.3 1.5.1.8.7-1zM111 26c-.1-.3-.2-.2-.2.1 0 .3 0 .4.2.4V26zm46.5-1.6c.2-.2.4-.6.3-1 0-.6-.2-.7-1-.8-1.5-.1-2.6 1.1-1.8 2 .4.4 2 .3 2.5-.2zM5.7 23c-.3-.4-.5 0-.3.7.2.6.2.6.4 0V23zm18.5.3.2-2.2c.2-1.6-.1-2-1.5-2-.7.1-.9.3-1 .9 0 .4.1 1 .4 1.3.2.3.4.7.4 1 0 .4 1 1.8 1.3 1.8 0 0 .2-.3.2-.8zm90.3-3.4c-.2-3.8-.7-10.2-1-11.6 0-.4-.2-.8-.3-.7-.4.2-.4 3.6 0 4.6.2.4.3 1.6.3 2.7 0 1.7 0 2.2-.4 2.6-.5.6-.5.6 0 1.2.7.7.8 1.6.2 2.6-.5 1-.5 1.3 0 1.3.2 0 .5.2.7.5.5 1 .6.3.5-3.2zm1.7 3c0-.5 0-.7.4-.8.7-.2.9-1.3.8-5.8-.1-3.7-.1-3.9-.7-4-.7-.3-.8-.6-1-3.3-.2-1.7-.2-2-.6-1.8-.2.2-.3.8-.3 1.3 0 2 .6 7 .8 7 .2 0 .2-.5.1-1.1-.1-.8 0-1 .2-1.2.6-.2.6 0 .8 2.6 0 2 0 2.4-.3 2.4-.2 0-.5-.3-.6-.7-.1-.3-.2.9-.2 2.8 0 2.6 0 3.3.3 3.2.2 0 .3-.3.3-.7zm-84.6.3c.6-.2.6-.3.6-3-.1-2.7-.1-2.8-.7-2.9-.6 0-.6 0-.6 1.2 0 .7 0 2-.2 3-.2 1.9-.1 2 1 1.7zm-18.2-1c.5-.2 1.4-1.7 1.4-2.4 0-.5-1.2-1-2.5-1s-1.6.2-2 1c-.3.7-1.1.9-1.1.3l.4-.8c.6-.8.5-1.5-.3-2.8l-.8-1.3-.7.5c-.5.3-1 .4-1.4.3-.5 0-.6 0-.6.4 0 1.2.6 3.4 1.2 4.6l.7 1.3H10l2.6.2c.1 0 .5 0 .7-.2zm146.3.1c0-.1 0-.3-.2-.3s-.3.2-.3.3c0 .1.1.3.3.3l.2-.3zm-40.2-.5.4-3.7c.2-3 .2-3.2-.3-3.2-.4.1-.5 0-.5-1.7-.2-4.6-.5-3.3-.6 2.5-.1 3.4-.1 6.3 0 6.4 0 .4.7.2 1-.3zm3.8 0c.1 0 .2-3 0-6.3 0-5-.2-6.3-.5-6.5-.3-.2-.4-.8-.4-2.2 0-2-.4-2.9-.6-1.4-.4 2.5-.7 6-.7 8.7l-.2 5.3c-.2 1.9-.2 2.3.2 2.6.4.3 1.6.2 2.2-.2zm-1.5-1.3c-.1-.3-.2-8 0-9.1.1-.6.3-1 .5-1 .5 0 .4 10 0 10.2h-.5zm5-.5c0-4.3-.5-13.3-.6-13.3l-.5.6c-.1.3-.4.6-.7.5-.6 0-.8 2.1-.6 8.4.2 6 .3 6.2 1.7 6 .7 0 .7 0 .7-2.2zm35 1.9c0-.2 0-.4-.2-.4-.1 0-.3.2-.3.4s.2.4.3.4c.1 0 .3-.2.3-.4zM79.2 20c1-1.5 1-2 0-1.9-.2 0-.6.7-.9 1.4-1 2.5-.5 2.7 1 .5zm77.1.8c.4-.5.5-1.1.1-1.1 0 0-.3.2-.3.4-.1.3-.5.6-1 .7-.4 0-.8.3-.8.4 0 .4 1.7 0 2-.4zm-137.7-.2c.5-.6.5-.8.3-1.3-.3-.6-.5-.7-1.6-.7-1.2 0-1.3 0-1.2.7.1.6.5.8.7.4.3-.4 1.1-.4 1.4 0 0 .1 0 .5-.3.9-.5.8-.1.8.7 0zm131.5.3c0-.5-1-2-1.2-2.2-.5-.2-2.2.3-2.6.8-.4.6.1 1.2 1.2 1.3 1.3.1 2.6.2 2.6 0zm11.5-1c.7-.2 1.3-.6 1.3-.8v-.7c.1-.2.5-.4.9-.5.4 0 .8-.3 1-.6V17c-1.9-1-2.2-.9-2.6.8-.3 1-.5 1.2-1 1.2s-1.9 1-1.9 1.4c0 .3 1 .1 2.3-.3zm-9.2 0c0-.2.2-.6.5-.8.3-.4.4-.6.1-.8-.5-.5-.4-1.2.3-2.2.9-1 .6-2-.6-2l-.8.2c0 .2-.3.5-.8.7a4 4 0 0 0-1.1 1.2c-.4.7-.4.8.2 1.6l1 1.7c.5.7 1.2 1 1.2.4zm-41-3.4a66 66 0 0 0-.7-5.3c-.9-4.9-.8-4.8-1.6-4.8-.3 0-.7.2-.7.4-.2.4.2 2.6 1 6l.4 3.5c.1 2.4 0 2.3 1.5 2.5v-2.3zm48.6 1c1-1.2 1.1-1.8.6-2.3-.5-.5-1.5-.4-1.8.2-.3.6-.6 2.3-.4 2.8.2.6.5.5 1.6-.7zm-78 .3c.3-.4.3-.5 0-.5-.4 0-1 .5-1 .8 0 .4.4.2 1-.3zm26.5-2.2-1-5.7c-.7-3.6-.8-3.9-1.4-4-.3 0-.7-.4-.9-.7-.3-.6-.7-.8-.7-.4l.6 1.7a23 23 0 0 1 1.6 6.5c0 .9.1 1.4.4 1.7.7.5 1.2 1.8.8 2.3-.2.2-.2.4 0 .5.7.4.8.1.6-1.9zm37.4 1.8.8-.4-.6-.4c-.4-.1-1-.7-1.2-1.3l-1-1.2c-.6-.4-1.3 0-1.3.5 0 .3-.2.7-.5.9l-.6.4h.6c.3 0 .5-.1.5-.3 0-.7.7-.6 1.5.1.5.6.7 1 .6 1.4-.2.8 0 .9 1.2.3zm22.1-.5.6-1.3c.5-1 .6-1.8.3-1.8l-.9.7c-1.1 1-2.6 1.3-3.4.8-.8-.6-2.1-1-2.1-.6 0 .2.2.3 1.4.6.5 0 .9.4 1 .9.3.6.4.7 1 .6.4 0 1 0 1.2.3.6.4 1 .3 1-.2zm-106 .3-.3-.3h-.3c0 .2.1.4.3.4l.2-.1zm41.8-.7c0-.2-.3-.4-.7-.4-.3-.1-.8-.4-1-.7-.3-.3-.7-.5-1-.5-.2 0-.8-.3-1.1-.6-.5-.3-.7-.4-.7-.2 0 .5 2 2.3 2.7 2.5 1 .2 1.8.1 1.8-.1zm3.1 0c0-.2-.3-.6-.7-1-.6-.6-.8-1-1-3-.3-2.4-1-4.6-1.8-6.7-.3-.5-.4-1.2-.3-1.5.2-.6-.1-.8-1-.6-.5.1-.5.2-.3 1.9.2 2.7.4 3.2.8 3 .5-.2.8.7 1 3.1.3 3.3.3 3.5 1.6 4.3 1.1.8 1.7 1 1.7.5zm-92-.4c.3-.7.2-1.3-.2-1.8-.3-.3-.4-.5-.1-.8.2-.3.2-.5-.1-.7-.5-.4-.3-.8.4-.8.5 0 .6.2.5 1 0 .3.2.7.6 1 .6.3.8.3 1.8 0l3-.3 1.7-.1-.6-.9c-.4-.3-.8-1-1-1.5a4 4 0 0 0-1-1.2c-.6-.3-.7-.3-1.2 0-.3.2-.7.3-.9.2-.5-.2-.4-.8.4-1.2.7-.5.8-1 .3-1-.1 0-.9-.5-1.6-1.2-.7-.6-1.5-1.2-1.8-1.2-.5 0-.6.1-.4.9 0 .5.3.9.4 1 .4 0 1.1 1.8 1 2.1-.2.2-.5.4-.9.5-.6.3-2.5 3.8-2.5 4.8 0 .6.5.7.7.1l.6-.5c.3-.1.4 0 .2.7-.1.9 0 1.3.4 1.3l.4-.4zm19.3-1.5c0-1.7-.5-2.9-1.1-2.9-.1 0-.3 1-.3 2.3 0 2.2 0 2.2.7 2.2.6 0 .7 0 .7-1.6zm5.8.6.1-2v-1c-.4 0-.9 1.8-.9 3 0 .7.1 1 .4 1 .3 0 .4-.3.4-1zm20.4-.7c1.4-.7 1.7-1 1.8-1.7.2-1 .3-1 2.4-3.5 3.5-4 4-5 2.8-5.5a2 2 0 0 1-.8-.5c-.3-.5-2.3-.4-2.3 0 0 .3-.8 1.2-1.7 2.2-1.7 1.7-1.8 1.7-2.9 1.6-1-.2-1.1-.1-1.3.4-.2.7-.5.7-1.4-.2-1-.8-1.2-.8-1 .3.1.8 0 1-.4 1.1-.6.2-.7.5-.3.8.1 0 .3 0 .3-.2.1-.1.6 0 1.2.3 1.2.6 1.7 1 1.2 1l-.6.2c-.2 0-.3.3-.3.6.1.8-.7.8-1.4 0-.4-.4-1.7-.7-1.7-.3l.4 1.8.6 2.8c0 .4 3.1.4 3.4 0l2-1.2zm-1-4.7c-.3-.4.2-.7 1.6-.8 1-.2 1.2-.2 1 .2-.3.8-2.2 1.2-2.6.6zm2.8-1.5c0-.5 3.8-4 4.3-4 .7 0 .6.7-.3 1.2-.9.5-2.1 1.6-2.1 2 0 .3-1 1-1.5 1-.2 0-.4 0-.4-.2zm-26.4 6.1c0-1.5-.4-2.7-.7-1.9-.2.8-.4 3-.2 3.3l.5.1c.3 0 .4-.4.4-1.5zm76.9.3c-.1-.3-.2 0-.2.5s.1.7.2.4v-1zm-75.4-1c0-1.4 0-1.7-.3-1.7-.2.1-.3.8-.4 2 0 1.3 0 1.7.3 1.6.2 0 .3-.7.4-1.9zm1.1.6.4-2c.2-.7.1-.9-.2-.9-.3 0-.5.3-.5.5l-.1 2.2c-.2 1.9.1 2 .4.2zm4.5.5c.3-.5.5-1.2.5-1.6 0-.8 0-.7-.6.6l-.7 1.7c0 .4.3.2.8-.7zm105.3.4c0-.2-.2-.3-.4-.3s-.4.1-.4.3l.4.2.4-.2zm-137.4-.8c-.3-.2-.5.2-.3.5s.2.3.3 0v-.5zM42 10c0-2 0-2.4-.3-2.4s-.7-.3-1-.7c-.3-.5-.7-.6-1.8-.7-1.6 0-2.2.4-.9.7 1.2.3 1.6.8 1.5 2-.2 1 .5 2.3.9 1.6l.4-1.4c0-.5.3-1 .4-1 .3 0 .4 0-.3 3.3-.7 3.8-.6 4.3.3 2.5.5-1.1.7-2 .8-3.9zM7.3 14.2c0-.3-1.3-1.2-1.7-1.2-.3 0 0 1.6.2 1.7.5.1 1.4-.2 1.5-.5zm24.7-1c0-1.6-.1-1.8-.7-2a2 2 0 0 1-1-1.1c-.2-.8-.7-1-1.3-.4-.1.2-.5.4-.7.4-.7 0-.2 1 1.4 2.9l2 1.9c.1 0 .3-.8.3-1.7zm20.7-1c-1.1-2.4-2-3.2-1.7-1.8 0 .8 1.4 3.5 2 4 1 1 .8.1-.3-2.2zm93.4 1.8c-.2-.7-.3-.8-.5-.6-.3.2.1 1.2.4 1.2.2 0 .2-.2.1-.6zm-43.7-.8c0-.8 0-1-.4-.8-.6.2-1-.8-1.3-3.6-.3-2.8-.8-4.8-1.2-5-.4 0-.2 3.1.3 4.6.5 1.4.5 2 0 2-.2 0-.4.2-.4.4s.1.4.3.4c.2 0 .5.4.7 1 .8 2 1.8 2.5 2 1zm9.9-.4-.1.5c0 .5 0 .7.1.5v-1zm37.7.8c0-.2-.2-.3-.4-.3-.3 0-.4.2-.3.4.2.4.7.3.7-.1zm-16-1.3.2-2c.1-.2 0-.4 0-.4-.2 0-.6.6-1 1.5l-.7 1.7c0 .2.9.7 1.4.7 0 0 .2-.7.2-1.5zm-88.5-.6c.2-.9.2-1.1-.3-1.8-.7-1-1.2-1-1-.2l.2 2.3c0 1.6 0 1.7.4 1.2l.7-1.5zm114.7 1.6c.3-.1 0-.5-.8-1.3a7 7 0 0 0-1.3-1s-.2.4-.1 1c0 1 .1 1.2.6 1.3.7.3 1.2.3 1.6 0zm6.7-.2c.9-.6 1.8-2.9 1.8-4.4 0-1.3-.2-1.5-.9-.7-.3.4-.4.5 0 .8.6.5.5.9-.7 1.8-1 .9-1.1.9-2.8.8l-1.9-.1.7.8c1.2 1.4 2.7 1.8 3.8 1zm-139.2-.7-.6-1c-.6-.8-1-1-1.8-.5-.5.3-.4.4.6 1 1.1.6 1.8.8 1.8.5zm23-.5c0-.4-.1-1-.5-1.7l-.5-1.5c0-.2-.2-.4-.4-.4-.5 0-.5 0 .2 2.2.5 2 .9 2.4 1.1 1.4zm100.7-.8c.4-1 .7-1.3 1.6-1.7.7-.3 1.2-.7 1.2-1 0-.3-1.2-.7-3.1-1-1-.2-1.1-.2-1.5.6-.4.7-.6.8-1.1.7-.4 0-.8 0-1 .3-.1.2-.4.3-.5.2-.2-.2-1.5.6-1.5 1l.8.3c.5.1 1.3.5 1.8.8 2 1.3 2.7 1.3 3.3-.2zm-4.2-1.1c-.2-.4.2-.8.6-.5.4.2.4.9 0 .9-.3 0-.5-.2-.6-.4zM11.4 11l.2-1.2.2-1.1c.5-.3.3-.5-.5-1-.4-.3-1-.8-1-1.2-.3-.7-.4-.7-2-.5l-2.2.2c-.5 0-.6 0-.6.9 0 .5.3 1.5.7 2.2l.6 1.7c0 .4 4.3.5 4.6 0zM8.8 9c-.3-.4-.4-.6 0-1 .2-.3.3-.2.6.2.7 1 .2 1.5-.6.7zM128 10.5c0-.3-.1-.4-.3-.3l-.2.7c0 .2 0 .4.2.3.2 0 .3-.4.3-.7zm-75-.8c-.2-.4-.4-.9-.6-1-.2 0-.2.4.1 1.2.5 1.4.8 1.3.4-.2zm87.6.4c.2-.8-.5-1.7-1-1.2-.2.2-.6.3-1 .3h-.6l.8.8c.9 1 1.6 1 1.8.1zm20-.3c-.6-.7-.8-1.8-.3-2l.2-.6c0-.2.2-.6.5-.9.3-.4.3-.6 0-1.4-.3-.8-.3-1 0-1.2.4-.2.2-.3-.5-.2h-.9v2c0 1.1-.1 2-.3 2.2-.6.5-.4 1.2.5 2.2.9 1 1.6 1 .7 0zm-123.8.2c1-.4 1.2-.6 1.2-1.3 0-.5-.1-.8-.4-.8-.7-.2-1.2 0-1.2.5 0 .8-.3.9-1.3.5l-2.2-.6h-1c.3.1.8.5 1.2 1a5.6 5.6 0 0 0 2.5 1.2l1.2-.5zm17.5 0c.2-.3-.5-1.2-.8-1-.2.2.1 1.3.4 1.3l.4-.3zm-7-.4c.8-.5.4-1.3-.9-1.7-.8-.3-1.1-.5-1.2-1 0-.4-.4-1.1-.8-1.7-.5-.6-.8-1.2-.8-1.4 0-.2-.2-.4-.4-.4-.5 0-1 .6-1 1.3 0 .3 0 .8-.2 1-.4.7-.1 1.4.5 1.4.4 0 .6-.2.6-.8 0-1.2.6-1 1.1.5.5 1.2 2 3.2 2.5 3.2l.7-.4zm72.9-1.3a25.3 25.3 0 0 1 .6-3.9c0-.9 0-1-.4-1-.5 0-.6.3-.7 2.2-.2 2 0 4.6.3 4.4l.2-1.7zm-94.3 1c.5-.3 1-.5 1.5-.4.9.2 1.1-.3.7-1.4-.3-.7-.3-.9 0-1.5.4-.6.4-.8.2-1.1-.7-.8-1.5-.4-1.6.6-.1 1-.6 1.3-1.5.7-.7-.4-.8-.4-1.6 0l-1 .7 1 .9c.5.3 1 .9 1 1.1 0 1 .3 1 1.3.4zm86-.7c-.2-3.8-.4-5.1-.8-5.3-1.2-.3-1.5.7-.6 2 .3.3.7 1.5.8 2.5.4 2.2.6 2.5.5.8zm53 .9.6-.4c.3-.2-2-1.9-2.6-1.9-.6 0-.8.1-1 .8-.1.8.2 1.1 1.4 1.5.8.3 1 .3 1.6 0zm-8.1-.7c-.1-.7-.7-.7-1-.1-.3.5-.2.5.4.5.5 0 .6 0 .6-.4zm9.8-.2c.2-.3.2-.4 0-.4l-.5.4c-.2.2-.2.4 0 .4l.5-.4zm-28.5-.4c.6-.6.4-1-.3-1-.4 0-.5.1-.5.7 0 1 0 1 .8.3zM30.6 8c-.5-.3-.8-.3-.8 0 0 .2.3.3.6.3.5 0 .5 0 .2-.3zm13 0c0-.1-.1-.3-.3-.3l-.2.3c0 .2 0 .3.2.3s.3-.1.3-.3zm8.7-1c-.1-.6-.3-1.3-.5-1.4-.5-.3-.6.3-.3 1.6.4 1.5 1 1.4.8-.1zm64.8.3c-.1-.3-.2-.1-.2.3s0 .7.2.5v-.8zm-62 .5c.2-.3-.9-1.6-1.3-1.6-.5 0-.5.1 0 1 .5.8 1 1 1.3.6zm102.8-1c0-1.2-.3-1.6-1-1.3-.8.2-.7 1.1 0 1.9.8.9 1 .8 1-.6zM34.9 7c0-.3-1.3-.7-1.5-.5-.1 0-.1.3 0 .4.2.4 1.5.4 1.5 0zM12 6.3v-.5c0-.3-.2-.4-.4-.4-.4 0-.5.2-.2.9.1.4.7.4.6 0zm7.7-.4 1.7-1c.4-.5.3-.5-1.4-.9-1.7-.3-3.6-.2-4 .2a8 8 0 0 0 2.3 2.4l1.4-.7zm28.8.6-.4-.9c-.2-.4-.4-.5-.4-.2 0 .6.3 1.3.6 1.3l.2-.2zm1-.7-.6-1c-.3-.2-.3 0 0 .8.5 1.2.8 1.3.5.2zm93.5-.7c-.5-.4-.6-.5-.2-.8.3-.2.4-.6.4-.9 0-.4-.1-.4-1.1.6-.6.6-1.2 1-1.3 1-.1-.2-.5 0-.8.3l-.6.4h-.5c-.5 0 1.5.7 2 .7s.7-.2.8-.5c.2-.8.9-.7 1.3.2l.3.7.1-.6c.1-.5 0-.8-.4-1.1zm-28.5 0c-.3-2.2-.5-2.2-.8 0-.2 1.2-.1 1.3.4 1.3.6 0 .6 0 .4-1.4zm2.7.8c.1-.8.3-1 .8-.5.3.2.4.2.4-.8 0-.8-.1-1-.6-1.2h-.8c-.3.2-.3 2.6 0 2.8.2.3.2.3.2-.3zM154 6l.8-1.4c1.4-2 .3-1.3-1.7 1.1-.5.6-.5.6.2.6.4 0 .7-.1.7-.3zM62 5l1.7-1.6c.4-.3.3-.3-.9-.3-.8 0-1.4.1-1.4.3 0 .5-.8.5-1.3 0-.3-.2-.6-.3-.8-.2-.3.2-.4 1.2 0 1.2s.3 1 0 1.1c-.6.2 0 .8.8.8.5 0 1-.4 1.9-1.3zm84 1.1h-.5c-.2 0-.1.1.2.1.2 0 .4 0 .3-.1zm19.5-.6c-.1-.7 0-.8.3-.8.2 0 .6.3.8.8.5.9.8 1 1 .2.2-.8 0-1-1-1.4a2 2 0 0 0-1.7-.1c-.8.3-1.2 1-.5 1 .2 0 .5.2.7.5.4.8.6.7.4-.2zm-31.5.2c.1-.1 0-.7-.1-1.2-.4-1-1-1.2-1.8-.6-.4.2-.4.2 0 .2.3 0 .5.3.7.8l.2.9c.2.3.9.2 1 0zm18.3-.7c1.1-1.4 1.3-1.7.9-1.7-.3 0-2 2.2-2 2.6 0 .3.4 0 1.1-.9zM45.7 4.8c-.2-.4-.4-.5-.5-.3 0 .4.5 1.2.7 1 0 0 0-.4-.2-.7zm62.8.6c.3-.5-.6-1.9-1.1-1.9-.7 0-1 .5-.3.7.2 0 .5.4.6.8.2.6.6.8.8.4zm16.3-.5c-.1-.8-1-1.2-1-.4 0 .5.4 1.1.8 1.1.2 0 .2-.3.2-.7zm-71.3-.4c-.2-1-.8-1.4-1.2-.8-.3.3-.3.5.4 1 .9.8 1 .7.8-.2zm3 .7c0-.4-1-2.1-1-1.8 0 .4.6 2 .8 2 .2 0 .3-.1.2-.2zm70.2-.4c0-.1-.1-.2-.3-.2-.1 0-.3.2-.3.4s.2.3.3.2c.2 0 .3-.2.3-.4zm21.6-.4c.7-1 .7-1.5.3-1.4-.3.1-1.1 2.4-.9 2.4l.6-1zM8.8 5c.7-.2.4-.7-.8-1.4C6.8 3 6.8 3 6.3 3.4c-.3.2-.5.7-.5 1 0 .6 0 .7 1.3.7.7 0 1.4 0 1.7-.2zm38-.7c0-.6-1-1.5-1-1 0 .2 1 1.9 1.2 1.8l-.1-.8zm99.7 0c.5-.7.2-1-.4-.6-.4.3-.6.6-.5.8.2.6.6.5 1-.1zm-95.8-.8s-.2-.2-.5-.2c-.5 0-.7.8-.4 1.2.2.2 1-.6 1-1zm46.9 1c0-.2-.2-.4-.3-.4-.2 0-.2.2-.1.3 0 .2.2.3.3.3v-.3zm39.6-.2c.2-.2.8-.4 1.3-.5 1.4-.3.8-.6-1.3-.6-1.3 0-1.8.1-2 .4-.3.8 1.4 1.4 2 .7zm-97.1-.5c0-.5-.3-.6-1-.7-.6 0-1 0-1 .2 0 .4.3.8.9 1 1 .2 1.2.1 1.1-.5zm111-.4c0-.2-.2-.3-.4-.3-.1 0-.2 0-.2.2l-.2.8c-.2.4-.1.4.3 0 .2-.1.4-.5.4-.7zm-102.5.4-.2-.3c-.2-.1-.3 0-.3.1 0 .2.1.3.3.3l.2-.1z"/>
</svg>
