<?xml version="1.0" encoding="utf-8"?>
<svg xmlns="http://www.w3.org/2000/svg" xmlns:svg="http://www.w3.org/2000/svg" version="1.1" viewBox="0 0 590 311">
	<title>The fat rat has turned to his right, and is talking with the old rat who has appeared around the corner.</title>
	<path d="M492.5 310.5c-5.1-1-6.5-1.2-10.2-1.5a217.8 217.8 0 0 1-11.3-.8c-2.7 0-4.4-.4-4.4-.8l.3-.8c.2-.4.5-.5 3.3-.5 6 0 19.3.9 22.8 1.5 1.8.3 3.5 1 3.9 1.5.4.5.2 1.2-.3 1.6-.4.3-2.1.2-4-.2zm-169.1-.8c-.8-.4-1.2-1.5-.8-2 .4-.8 3.5-3.4 4.5-3.8l4.2-2a55 55 0 0 1 11-4.4 104.7 104.7 0 0 1 10.7-3.3A128 128 0 0 1 367 291c0 .2-1 .7-4.2 1.7a110.5 110.5 0 0 0-6.4 2c-1.3.3-5.2 1.6-6.5 2.2l-3.3 1a66 66 0 0 0-6 2.2l-5.6 2.2c-1.7.6-5.9 2.6-7 3.4-.5.4-.5.4.3.4.4 0 1.2-.1 1.7-.4l3-.9a3672.2 3672.2 0 0 1 27.3-7.4c.7-.3 3-1 5.3-1.5l4.7-1.2a150.5 150.5 0 0 1 14.4-3.8c2.7-.7 6.1-1.3 9.7-1.7A160.2 160.2 0 0 1 417 287c3.6 0 3.7 0 3.8.5 0 .3.2.7.5.8a198.2 198.2 0 0 0 30.7-.4 97 97 0 0 0 21.1-2.1c.3 0 1-.3 1.7-.7.6-.3 2-.7 3.2-1a44.9 44.9 0 0 0 18.8-6.6c4-2 9.7-6.1 11.8-8.6a42.8 42.8 0 0 0 4.1-6.6l1.2-3.3c1.8-4.7 1.7-4.1 1.5-9.7-.2-4.5-.3-5.3-.8-6.1a72.6 72.6 0 0 0-4-7.1l-2-2.2c-1.5-1.9-2.9-3.1-3.7-3.6-.5-.3-.7-.3-1.1.1-1.1 1-2 3.8-1.7 4.8.1.4.2 1.1.1 1.7 0 .8 0 1 .5 1.1.7.2 1.2 1.2.7 1.4a8 8 0 0 0-1.2.9c-.8.6-1 .7-.5.7l1.6-.3c1.7-.6 2.7.4 1.3 1.3-.7.4-1.3 1.5-1 1.8l1.2.1c.8 0 1.3.2 1.6.6.6.6.9 2.6.4 2.6-.2 0-.2.2.1.5.6.6.6 1.3 0 1.6-.8.4-.9 1.2-.3 2 .6.8.6 1-.2 1.6-.6.4-.7.6-.6 1.5.2.7.1 1-.3 1.4-.5.4-.5.5-.1 1.3.5 1 .3 1.5-.4 1.3-.5-.1-.6 0-.6.4l.3 1.1c.4.6-.2 1.6-.6 1-.5-.4-1.3-.2-1.3.3 0 .3.2.6.3.7.1.1.3.5.3.9 0 .6-.2.8-.9 1.1-.5.2-.9.6-.9 1v.8c0 .2-.5.3-1.2.3-.9 0-1.3.2-2.4 1.2a6 6 0 0 1-1.6 1.2c-.2 0-.8.4-1.4.9a12 12 0 0 1-3.8 2.1c-.4.1-1.2.7-1.8 1.3-.6.6-1.7 1.2-2.3 1.5-4.7 2-6 2.5-7.3 2.8-.9.2-2 .7-2.6 1a17 17 0 0 1-7.8 1.9c-1.9 0-3.2.2-4.5.6-1 .3-3.3.7-5 .9l-5.7.6a258.2 258.2 0 0 1-40.9 1.8A142 142 0 0 0 392 285a104.7 104.7 0 0 0-12.3 3.1c-.3 0-1 .2-1.5.5l-2.5.7-4.2 1c-3 .8-4.6.8-4 .1l1-.5c.3-.1.6-.3.6-.5 0 0 .2-.2.5-.2.2 0-.1-.2-.9-.4-.8-.3-1.9-.3-3-.2-1 0-3.6 0-5.9-.2a412.8 412.8 0 0 0-11.6-.8c-.6-.3-.7-1.7-.1-2l3.6.2c1.8.1 6.2.3 9.9.3 3.6.1 7.7.3 9.1.5 2.2.2 2.6.4 3.1 1l.6.6 2.7-.8a124.4 124.4 0 0 1 9-2.5c7.4-2 9.2-2.2 16.8-2.5l12-.3a78 78 0 0 1 8.5 0 602 602 0 0 1 12-.2 164.5 164.5 0 0 0 22.2-2.1c7.5-1 15.3-2.6 14.8-3-.1-.2-1.2-.4-2.3-.6a80.1 80.1 0 0 0-13-1.2c-2.5 0-5-.2-5.6-.4a84 84 0 0 0-14.3-.1c-.3.3-.3.4.4.5l1.1.3 3.7.5c3.3.4 4 .7 3.4 1.4-.5.6-5.8.3-10.1-.5l-1.6-.3-2.3 1.2c-2.8 1.5-4.7 2-6 1.5-.9-.2-1.3-.2-1.7 0-.5.3-1.4.3-3.3.2-1.4-.1-3.3-.2-4-.1-8.7.3-13.7-.3-19.8-2.4-1-.4-2.7-.7-4.7-.8l-4-.5c-2.4-.8-3.8-1-6.1-.7a62 62 0 0 1-10.6 0c-1.1-.2-1.8-.1-2 0-.3.3-1.3.4-2.7.3l-2.4.1c-.2.2-.1.5 0 .8.5.7.5 1.2 0 1.4l-5.7.3c-5.4.1-8.3.4-11 1-1.3.3-1.3.6.1.5.2 0 .8 0 1.3.2.8.3.9.4.8 1.1 0 .9-.1.9-1.6 1-2 .3-9.9.4-11.7.1-.9 0-1.6 0-2 .2-1 .5-3.7 3-3.6 3.1.1.2 2 .3 4 .4 4.7.2 5.6.4 5.8.9.5 1.2-2.4 1.6-8.9 1.2-3.4-.3-5-.3-6 0l-2.6.6c-2.2.5-9.4.5-10.7 0-1.2-.5-2.2-1.7-3.6-4.5l-1.8-3.3c-.7-1.2-.7-1.5-.1-3.7 1-4 1-3.8-.2-7.4-.6-1.8-1.2-4-1.3-4.9-.1-1.5-.2-1.7-1.5-3-1.6-1.7-2.5-3-3.9-5.4l-.9-1.7-2.2-.2c-3.3-.3-3.5-.3-5.2.2-2.6.8-3.6.6-5.8-1-.7-.5-1-.6-4.9-.5-4.5 0-6.5-.2-11.3-1.5a53.5 53.5 0 0 0-7.4-1.6c-1.1-.3-1.9-.3-3.3 0l-1.8.5c0 .1 1 .2 2.2.2 2.8 0 4.1.4 4.1 1.3 0 .4-.3.7-.8 1l-1.8 1.1c-1 .8-1.9.8-5.7.4-1.5-.2-2.8-.2-3.5 0-.7.1-.8.2-.4.2.7 0 2.9 1.3 3 1.8.3.6-1.3.8-5.9.8h-4.6l-.1-1-.2-.9-2 .1c-2.5 0-4.8.7-7.8 2l-2.6 1-1 .5c-1.2 1-2.8 1-4.6.1-1.1-.5-2.4-.8-4.8-1l-5-.7a113.3 113.3 0 0 0-11.7-1.3 117.9 117.9 0 0 0-16.2-.8l-6.3-.4c-4.7-.3-10-.7-10.7-.9-.5-.1-.8-.4-.9-.7-.1-.8.8-1 5.4-.6l19.6.9a322.1 322.1 0 0 1 24.8 1.8c1.3.4.8-.5-1.6-3-2.2-2.3-2.6-3-3.2-5-.5-1.5-.4-1.8.6-2.3l1-.8a360.6 360.6 0 0 0-8.1-12.3 35 35 0 0 1-4.8-9.6c-.5-1.8-1-3.3-1.2-3.5a43 43 0 0 1-2-6.6 10 10 0 0 0-.8-2.5c-.4-.5-4.5-.7-5-.2-.5.3-1.4.3-8.9-.3a158 158 0 0 0-15.3-.7l-4-.2c-4.2-.2-7-.4-7.9-.6-.8-.2-.7-1.1.1-1.3.7-.2 8.2 0 9 .2l9.2.3a215.3 215.3 0 0 1 15.5.5c6.5.2 6.7.2 6.7-.3 0-.8-1.5-1.2-5-1.1h-7.2c-8-.4-16.4-.6-28.3-1-6.8-.1-19-.7-23.4-1.1-8-.7-10.8-.8-18.6-1a68.3 68.3 0 0 1-14.3-.8c-2.1-.6-1.5-1 1.4-1 2.7.1 3.3-.3 1.9-1.3l-1.1-.7a42.8 42.8 0 0 0-3.8-3.1c-.8-.6-1.1-1.5-.6-1.8.3-.2 1.7.8 3.4 2.2l2.7 2a12 12 0 0 1 2.2 1.7l1 1h3a2547 2547 0 0 1 37.2 1.2c5.4.3 5.3.3 5.3-2v-2.5c0-.5-.2-1-.3-1.3-.4-.4-.7-1.8-1.5-7a3319.6 3319.6 0 0 0-1.6-9.8 64 64 0 0 1-1.4-9.2c-.2-1.8-1-6-1.6-9-.2-.8-.2-1.2 0-1.5.5-.5 1 0 1 1 0 .4.3 1.2.5 1.9l.3 1.5c-.2.5.3 4 .9 6.1l.6 3.2.4 2.6.8 5.2a109 109 0 0 0 1.8 10c.4 0 .6-1.1.3-1.3-.3-.1-.3-2 0-3 .1-.4.3-.5.5-.3a63.3 63.3 0 0 1 .5 15.2c.4.4 5.3 1 7.2.8 1.6-.1 1.6-.3 1-3.5l-2-8.1c-.7-2.8-1.3-5.5-1.3-6l-.8-2.8a47 47 0 0 1-1.9-6.5l-.8-4c-.7-4.3-1.1-6-1.7-7-.7-1-1-.7-.8.7l.1 1.8c0 .4.3 1.3.6 2l.8 3c.3 1.4.4 1.9 1 3.5.2.2.4 1.6.7 3 .2 1.4.6 3.6 1 4.9.6 3.3 1 5.3 1 7.3 0 1.4 0 1.7-.3 1.7s-.4-.4-.6-1.5c-.1-1.7-1.2-7.3-1.4-7.6-.2-.3-1-4.7-1.6-7.6-.2-1.3-.6-2.7-.7-3-.4-.7-.8-2.6-.8-3.1 0-.2 0-1-.3-1.7a7 7 0 0 1-.3-1.5l-.6-2-1-3.5c-.9-3.9-1.1-4.5-2.1-5.4-.6-.4-1.1-.8-1.3-.7-.2 0-.2.7-.2 1.8 0 1.3 0 1.8-.3 1.9-.6.2-.6 0-1-2.7a24 24 0 0 0-.4-3c-.3-.7-3.3-3.7-3.6-3.6-.4.1-.4 1.7 0 3.2l1 3.7c.6 2.6 1 5.3 1.8 10.4l.7 3.3a63 63 0 0 1 1.2 13.1c-.3 1.1-.8.5-.8-.9l-.1-3c0-1-.2-1.9-.4-2-.2-.3-.3-1.2-.3-2.2 0-2-.3-3.7-.7-4.2-.2-.1-.2-.5-.1-.8l-.5-3.2a39.5 39.5 0 0 1-1.2-6.2 86.8 86.8 0 0 1-1.4-7.3c-.3-.3-1-3.9-1.2-6.4l-1.4-1.8c-1-1.1-1.4-1.5-1.6-1.3v.5l.2 1.6c.2 2 .8 5 1.4 7.1l.7 3.3c.1 1.5.2 2 1 4.2.2.9.2 1.1-.2 1.5-.3.3-.4.3-.7-.9-.2-.6-.6-1.5-1-1.9-.6-.6-.7-.9-.8-3.2 0-3.1 0-3.4-2.6-13.3-.3-1.3-.7-1.9-1.6-2.8-.7-.7-1.1-1.5-1.1-1.8 0-.4-.2-.8-.5-1-.4-.1-.8.1-2.3 1.6-2 2-2 1.8-.1 5.8.7 1.6 1.4 2.7 1.7 2.7.4 0 1 1.7.8 2 0 .2.1.7.4 1.3.3.5.5 1.1.5 1.4 0 .2.4 1.3 1 2.5l.9 2.6c0 .3.1.8.3 1.1.2.4.5 1 .6 1.7 0 .6.5 1.7 1 2.6.4.8.7 1.6.6 1.7 0 .1.2.8.6 1.4.7 1 .8 1.4.8 3.8.1 3.5 0 4.4-.2 4.4s-.4-.7-.6-1.6a86.1 86.1 0 0 0-4.2-14.6c0-.6-1.4-3.2-1.8-3.4-.5-.1-.4 4.8.1 6.4.4 1.1.4 1.3 0 2l-.7.6a118.7 118.7 0 0 1 .2 5.4c.1 2.2 0 2.4-.3 2-.4-.4-.5-1.3-.5-5.5l-.1-5-1-2.8c-.6-1.5-1.2-3-1.5-3.4l-1.2-2.2c-.3-.8-.8-1.5-1-1.5-.6.1-1 0-.9-.3l-.1-2c-.4-2.8-1.4-2.4-3.1 1.4l-1 2.5-.5.6c-.8.7-1.2.2-1-1.1 0-1.2 2-5.5 2.6-6 .7-.6 1-1.8.7-2.6-.1-.4-.4-.7-.5-.7-.7 0-3.7 7.6-5 12.1l-.3 1.5 1 .7 1 .7.2 2.7a93.5 93.5 0 0 1-.1 13.5l.4 1c.1.7 0 1-.6 1.7-.9 1-1.3 1-4 .5l-3.7-.5c-3-.4-5.7-2-6.3-3.8-.3-1-.4-1-3.4-1.9-2-.5-3-.7-5.6-.7a14 14 0 0 1-4.4-.4c-.8-.3-1.6-.4-2.6-.3-1.8.2-3.5-.2-3.4-.8.2-.9.9-1 3.9-.6 3.4.3 5.6.4 5.6 0 0-.3-.6-.6-3.7-1.7-6.4-2.1-7-2.5-6.6-3.4.4-.8 0-1-2-1.2-2-.1-3.5.3-3.9 1.2-.2.5-.1.9.7 2.5.5 1 1.3 2.4 1.8 3 .8 1 1 1.8.4 2.2-.5.4-1.5-.3-2.1-1.6a44.5 44.5 0 0 1-2.6-5.7c-.1 0-.6-.4-1-.9l-1-.8-3.3.2a750.3 750.3 0 0 1-11 .5c-1.8.2-3.2-.2-2.7-.8.2-.2.8-.4 1.4-.4.6 0 1.5 0 2-.2s3-.4 5.4-.6c6.6-.3 8.5-.5 8.7-.7.2-.2 0-.6-.3-1.2-.4-.6-.8-1-2.2-1.4a68.4 68.4 0 0 1-11.2-3.3c-2-.9-3.3-2-3.3-2.7 0-.4.1-.5.9-.3.7.1 3.5 1.4 4.2 2 .6.3 5 1.6 6 1.6s.8-.3-2.2-2.3a20.9 20.9 0 0 1-3-2.2l-2.2-2c-1.4-1.4-1.9-2-1.9-2.6 0-.4.1-.7.2-.7.3 0 3 2.2 4.4 3.7.7.7 2.2 1.8 3.2 2.4l2.4 1.5 1.7 1.2c.7.3 1.8 1.1 2.4 1.7a7.8 7.8 0 0 0 3.5 2c1 .4 1.5.8 2 1.5l.6 1 2.8.2c3.1.3 6 1.2 7 2 .4.5.5.8.4 1.5-.2.7-.1.8.4.8.3 0 .6.2.7.3 0 .1.8.5 1.7.8 1 .4 2.2 1 2.8 1.5 1.4 1.1 3.5 2.2 4.1 2.2 1.2 0 4.6 1.4 5.2 2.2.9 1 3.9 2.4 6 2.7l1.3.2-.2-.8c-.2-.7-.1-.9.3-1.1.5-.3.7-.1 1.7 1.1 1.7 2.2 2 2.2 2-.4a39.3 39.3 0 0 1 .9-9.2c0-.6 0-1.3.2-1.7.4-1 0-1.5-1.2-1.5-.5 0-1 0-1-.2-.3-.5-.3-4.7 0-6 .2-1 .2-1.5 0-1.7-.5-.5-1.2-.3-1.4.4-.2.7-.6.8-1.4.4-.5-.2-.6-.1-.8 1-.4 1.3-.6 1.5-1.2 1-.4-.4-.4-.8-.3-2.5l.3-5a103 103 0 0 1 1.1-9.4c.4-.4.5-.4.8 0 .4.3.4.5.1 1.7-.3 1.5-.3 4.9 0 6.5l.2.6c0-.3.4-1 .9-1.6a7 7 0 0 0 1-2.8c.3-1.6.6-2.5 1.7-6a33 33 0 0 1 2.2-5.3l2.1-4.1c2-3.7 2-4 .4-5a125 125 0 0 1-11.7-12c-1.8-2.5-2-3-1.6-3.3.6-.3 1.5.3 3 2.4 1 1.2 2.1 2.6 2.7 3l2.3 2.3c1.5 1.7 6 6.2 6.8 6.8.4.2.8.4 1 .3.3-.1 3.5-4.9 3.5-5.2 0-.2.5-.8 1-1.4a39.2 39.2 0 0 0 3.9-4.8c4-4 7.5-6.6 8.1-6 .5.5 0 1.2-1.1 1.5-.7.1-1.5.6-2 1.2l-3.4 3.6a28 28 0 0 0-3.3 4 34.7 34.7 0 0 1-3.4 5.4l-1 1.4c-.4.6-.9 1.4-.9 1.7 0 .7 3.2 4 3.8 4 .4 0 6-5.3 6.8-6.5.7-1.1 1.4-1.7 2.7-2.8l1.3-1c.3-.3 1-.9 2-1.4l1.6-1.2c0-.1.3-.3.5-.3a3 3 0 0 0 1.3-.6c2.7-2 8.2-3.3 9.1-2.1.5.5.1.9-.8.9-.4 0-1.8.3-3.1.8-1.4.4-3.1.9-3.9 1-1.2 0-1.7.3-3 1.3a56.3 56.3 0 0 0-10.3 11.5s-.5.4-1.2.6c-.6.2-1.2.6-1.3.7 0 .2.2 1 .5 1.6 1 1.6.6 2.2-.5 1-.5-.5-1-.8-1.6-.8-.6 0-.7.1-.7.8 0 .4-.3 1-.8 1.6a44 44 0 0 0-3.8 6.8c-.6 1.3-.7 1.5-.3 2.2.2.4.6.8.8.8.2 0 1.7-1.4 3.3-3.1 1.7-1.7 3.6-3.4 4.2-3.8 1-.6 1.2-.8 1.3-1.7 0-.8.2-1 .5-.8.8.4 1.7.2 3.3-.4 1.7-.6 2.7-.6 2.7 0 0 .2-.4.6-.9.8-2.8 1.4-3 1.5-3 2 0 .3 0 .4-.5.3-.6-.2-1.4.2-2.1 1-.6.7-.6.8.5 1.6 1 .8 3.7 3.6 8.2 8.3l3.3 3.3 2.8 2.9a67.9 67.9 0 0 0 11.8 11 58.9 58.9 0 0 1 8.4 7.4c.6.6.7 1 .2 1-.3 0-1-.4-5.2-3.7-1.5-1.2-1.6-1.2-1.6-.6 0 .4.2.7.7 1l1.2 1c.3.5 1 1.2 1.6 1.6 1.7 1.2 4 3.5 3.8 3.8 0 .2-.3.3-.7.4a33 33 0 0 1-8.6-9c-.1 0-.9-.6-1.6-1.4-1.5-1.6-2.2-1.7-1.8-.5 0 .4.5 1.1.9 1.6l.9 1.5c0 .2.5.6.9.8.4.1 1.5 1 2.4 2l6.3 6a166.5 166.5 0 0 1 9.2 8.5c.5 0 .8-2 .6-3.8-.1-.7 0-1.5 0-1.6.5-.8.8.3 1 3.2 0 1.7.3 3.5.5 4 .8 2 5.8 6.5 7 6.5.4 0 .1-4-.4-5.4l-.4-1.4c0-.7 1.2-.3 1.5.4a28 28 0 0 1 1.3 6.9l.2 2.2 1.8 1.9c1 1 1.8 2 1.9 2.2 0 .3.2.3.8 0 .6-.3.8-.3 1.3.2.4.4 1 .7 1.5 1 .7.2.8.3.5.7-.2.5-.4.6-3 .5H191c-.4.2-2.7.2-5.3 0a370 370 0 0 0-9.4-.4c-5.8-.1-6.5-.3-6.8-1a54.5 54.5 0 0 0-.4-10c-.1-.3-.4-.5-.6-.4-.5.2-.7-.1-1.8-2.4a24 24 0 0 0-1.7-3.3c-.6-.8-.8-1.4-.8-2.1 0-.6-.4-2.2-.8-3.7l-1.3-5.1c-.4-2.3-.5-2.5-2-4-1.4-1.5-2.3-2-1.8-1 .2.3.3.9.3 1.2 0 .3.1.7.3.9.2.2.4 1.4.5 2.8a12 12 0 0 0 1.1 4.6l.4 1.3c.1 1.1 1 4.2 1.6 5.7l.8 3.7a208.5 208.5 0 0 0 3.2 13l.8 1.1 2.3.2 3.8.5c.8.1 3.3.3 5.6.3a195.7 195.7 0 0 1 16.1.6l3.2.2c.6 0 .7 0 .6-.6l-.1-5.6c0-4.8 0-5 .8-7.5.8-2.3 1.5-4.2 2.8-6.7.1-.3.7-.8 1.2-1a8 8 0 0 0 1.7-1 7 7 0 0 1 3.7-1.7c.7 0 1.4.4 2.8 1.6 1 .8 2.2 1.9 2.4 2.3.8 1.2 2.1 5.4 2.3 7.2l.8 3.8.9 3c.2 1 .4 3.7.5 6.7 0 .6 0 1.3.2 1.5.3.5 5.6.8 15.3 1 9 .3 15.7.3 16.6 0 .4 0 .8-.7 1.4-2 .8-2 1.1-2.5 5.2-6.1 2.1-2 3-2.5 5.1-2.8 1.2-.1 1.5-.3 2-1 .2-.5.8-1 1.1-1.2.7-.4.7-.4 1.2-2.6l.6-1.8c.3-.4 2-4.3 2.7-6.5a15 15 0 0 1 1.5-3.2 5 5 0 0 0 .8-1.3l.8-1.4a4 4 0 0 0 .8-1.4c0-.6 1-4 1.8-6l1.5-3.7a30.5 30.5 0 0 1 3.6-7.2l.7-1.3a8 8 0 0 0 1-1.8c.1-.5 0-.7-.7-.8h-2.2a111 111 0 0 1-17.1 1c-1.1-.4-1.5-1-1-1.4.3-.2 3.3-.4 8.7-.6l11-.4 2.6-.2 1.2-2.3c1.6-3.1 3-5.1 4.5-6.7.8-.8 1.3-1.5 1.2-1.7a39 39 0 0 0-9.5.2c-.4.2-1.8.3-3.2.3-1.3 0-2.8.1-3.3.3l-5.3.2c-3.8 0-4.4 0-5.3-.5-1-.6-1.2-.6-9-.3l-10.9.5c-3.6.2-3.2.2-7.9-.2-2.4-.2-12-.3-23.6-.3-16.6 0-19.4-.1-19-.5.9-.5 6.8-.7 26.3-1a1284.9 1284.9 0 0 0 39.6-.7c7.2-.2 8.2-.2 9.5.2 1.1.4 2 .5 5.9.3l7.3-.1c2.6 0 8.6-.4 10-.7.4 0 1.3-1.1 2.7-3.3 2.8-4.1 3.1-4.7 2.6-5.1-.4-.5-3.9-1.5-5-1.5-.6 0-1.5-.4-2.7-1.2-2.2-1.4-6.1-3.3-8-4-.7-.2-2.3-.5-3.5-.6a8.3 8.3 0 0 1-3-.8c-.8-.5-1.3-.6-3.3-.5-1.3 0-2.7-.1-3-.3-.5-.1-1.6-.3-2.6-.3-2.3 0-2.7-.1-2.7-1 0-.4.3-.7 1-1 .7-.3 1-.7 1.3-1.4.2-.7.7-1.2 2.1-2 1-.7 2.4-1.5 3.2-1.8.7-.3 1.8-1 2.3-1.5 1-.9 1.1-.9 3.3-1 2.3 0 3-.3 2.5-.9-.5-.5-6-.9-7-.5-.8.3-1.1.2-1.8-.1-1-.5-1.7-.5-2.3-.1-.4.2-1 .2-2.2-.1-1.6-.4-3-.4-3.3 0 0 .2.3.8 1 1.5.5.7.9 1.4.8 1.6-.2.7-1.4.8-2.4.3-.5-.3-1.1-.5-1.6-.3-1 .1-4.2-.8-6-1.7a5 5 0 0 0-1.5-.6l-1.2-.4c-.6-.4-1.6-.6-4.7-.7-3.1-.2-4.1-.3-4.8-.7a6 6 0 0 0-2-.6c-.7-.1-1.3-.4-1.8-.8-.8-.8-3.9-1.6-6-1.5-2.5.1-3 0-3.3-.6-.2-.5-.4-.6-.9-.5-.3 0-1 0-1.5-.3l-1.6-.7a2 2 0 0 1-1-1c-.3-.6-1.7-1.8-2.5-2-.6-.1-1.5-1.7-1.5-2.7 0-.4.4-1.2.8-1.9 1-1.6 2.7-2.5 8.6-4.5 1-.3 2-.8 2.3-1.1a64.7 64.7 0 0 0 8.5-7c.4-.3 1-.8 1.2-1.2.8-1.3 4.6-5.2 5.4-5.5.4-.2.9-.7 1.1-1.1.5-.9 1.7-2 2.4-2 .2 0 .6-.3 1-.9.3-.5.7-.9.8-.9.2 0 .5-.2.7-.5.5-.8.5-.8 3.2-2.8 3.4-2.6 3.7-2.8 4.7-2.6 1.2.2 2-.5 1.8-1.5-.1-.5 0-.9.4-1.4.6-.8 1.3-.7 1.3.1 0 .7.4.6 2.2-.3 1.9-1 2.5-1 2.7-.2.2.7.7.3.6-.5 0-.4.1-.8.8-1.4.8-.7 1.4-1 2.5-.8l2.1-.7a253.4 253.4 0 0 1 12.3-5.3c1.6-.7 2.5-.8 3.5-.2 1.2.6 2.4.7 3.7.2l3.8-1c2.4-.6 2.7-.6 3.3-.3.6.4 4.3 1 4.7.8a17 17 0 0 0 3.4-3l.4-2.7c.2-2 .4-2.4 1.6-4.5.7-1.2 1.9-2.8 2.6-3.5a24 24 0 0 1 6.3-4.1l1.3-.4c1.5-.7 3.2-.5 5 .4l2 .7.4-.9c.4-1.5 2-3 3.9-3.5 1-.3 3.7.1 5 .8 1 .5 3.7 3.2 3.7 3.7l.5 1c.4.6.6 1.4.7 2.7a12 12 0 0 0 2.2 6.1c.6.7.8.8 1.8.6.9 0 1.2 0 1.5.4.6.8 3.4 1.2 9.4 1 2.7 0 8.5.9 10.4 1.5a46.1 46.1 0 0 1 9.7 5.5c1.4 1.3 2.2 1.8 2.8 1.8a110.8 110.8 0 0 1 22.3 11.6 64.7 64.7 0 0 0 4.7 3.7c1 .9 2.2 1.6 2.7 1.6s1.5.7 3 1.9c1.5 1.3 2.5 2 3 2.3.2 0 1.4 1.4 2.6 2.9l3 3.4a52.7 52.7 0 0 1 10.6 11.4c1.9 1.9 3 3.4 3.1 4.2.1.5.5 1.1.9 1.5.4.3.9 1 1.2 1.5 1 2 1.5 2.6 1.9 2.6.5.1.5-.3.2-3.2-.1-1-.2-2.4 0-3 .1-1 .1-.9.4 1.2.2 1.1.4 3.1.4 4.4 0 2 .1 2.4.6 2.8 1 .8 3.3 4.1 4 5.6.3.8.8 1.6 1.1 1.8.5.2 2 2.6 2.4 3.6l.9 1.3 1.8 3.3 1.7 3c.5.7.5.7.7.3l.2-3c0-2.7.3-3.9.8-3.9.7 0 .9 1.6.7 7-.1 5.4-.1 5.4.5 6.4l1 2.1c.3.7.9 2 1.4 2.7 1 1.8 1.3 2.2 1.8 3.4.4.9.4.6.3-3.8l-.2-10.1c-.2-5.3-.2-5.4.3-5.6.4-.3.6-.3.8 0 0 .2.3 3.1.4 6.5a353.9 353.9 0 0 0 1.4 20.8c.4.6.7 1.8.8 2.6 0 .7.3 1.5.4 1.6l.4 1.5c0 .7.4 2 .8 3s.6 2.4.6 3.3l.3 3.9c.3 2.2.4 2.3.6 1.3.2-1.4.2-11.4 0-22-.1-8 0-12.4.4-12.1.6.3 1 2.8 1 7 0 6.2.2 8.4.5 8.6.3.4 3.8.3 4.2-.2.4-.3.8-3.5 1-7.2 0-.9.2-1 .6-1 .5 0 .6.1.6 2.3 0 1.3 0 3.1-.2 4.1-.2 1.5-.2 1.8.2 2 .6.5 4.7.5 5 .1 0-.2.3-2.6.4-5.4.2-4 .3-5.1.7-5.4.3-.4.4-.4.8.1.3.4.3 1 .2 2.8-.6 8.2-.6 8.4 1 8.4 1.2 0 1.8-.5 2-1.7.2-1.4.9-1.4 1.2 0 .2.7.4 1.3.6 1.5.1.1 2.5.4 5.3.5 4.5.3 5.1.3 6.3 0 1.3-.5 1.4-.5 2.4 0 1 .4 2.7.4 21 .4 21.2 0 21.3 0 20.7 1.2l-1.1.8c-.7.3-1 .3-2 0-1-.4-1.8-.4-7.3 0-7.8.3-21.3.2-28.8-.4-1.6-.2-2.1-.1-2.4.2-.4.4-1 3.5-1.1 6.9-.2 2.4.2 2.8 2.8 2.8 1.8 0 2 0 2.2-.6.4-.9 1-.9 1.4 0 .2.3.6.6 1.2.7a714.6 714.6 0 0 0 34.7.2c12.3 0 22.9.1 24.1.4.3 0 .6.3.6.5 0 .4-1 .8-1.3.5-.4-.2-14.3-.1-23 .1-9.3.3-33.4.2-34.2-.1-.8-.3-1.8 0-2 .7-.2 1-.3 3.3-.1 3.7.2.3.8.4 2.4.4a724 724 0 0 1 35 1.3c6.5.2 10.2.4 10.2.7v.4c0 .1-2.9.2-6.4.2a48220 48220 0 0 1-25.5-.6 86.7 86.7 0 0 0-12.4.1c-.2.6-.2 4 0 4.3.4.5 3.2.9 6.3.9a154.9 154.9 0 0 1 13.7.6l4.6.2a644.5 644.5 0 0 0 24.4.9c9.3 0 10.7.2 10.7 1 0 .9-.7 1-4.7.7-4.2-.3-7-.1-8.1.5-.7.3-.9.3-2.1-.2-1.4-.6-1-.6-8.4-.1-2.2.1-2.8 0-4-.4-1.4-.5-2.3-.6-5.7-.6a322.5 322.5 0 0 1-22-1c-3.7 0-4.5 0-4.7.2-.1.2-.3 2-.3 4-.1 3.2-.1 3.6.3 3.8h1c.7-.3 1-1.3 1-3.6 0-.9.1-1.3.4-1.3.5 0 .7.6.7 2.7 0 2.2.3 2.6 2 2.6l15.8.7a685.5 685.5 0 0 0 35.2-.2c4.2-.5 5.2-.5 5.2.2s-.9 1-3.5 1.2c-4.2.4-35 .6-38.2.3a223 223 0 0 0-9.4-.6c-5.8-.2-6.8-.2-7 .1a13 13 0 0 0-.2 6.4c.5.5 3 .6 3.4 0 .2 0 .4-.7.4-1.3l.1-1.7c.2-.6.2-.6.5-.1.2.3.4 1 .3 1.8 0 1.8.3 2 4.2 2a514.1 514.1 0 0 1 37 2c7.7.4 11.7.8 12.7 1 1 .3 1.4 1 1.2 1.6-.3.7-1 .8-2.3.3a353 353 0 0 1-12.5-1.5 2022.5 2022.5 0 0 1-11.9-1c-4.4-.1-12.3-.5-14.9-.7-2.8-.3-3.6 0-3.6 1.5 0 .6.1 1 .3 1.1l3.3.3 8.2.4c2.9.2 7.7.4 10.7.4 8.8 0 28.1.6 28.8.8 1.1.3 1.4.6 1 1.1-.3.4-1.5.4-10.1.3a720.1 720.1 0 0 1-31.9-1l-9.8-.4-.5.6c-.6.7-.7 2.8-.2 3h9.3c6.4 0 9.3.1 10 .3 1.8.6 1.6 1-.5 1a4901.6 4901.6 0 0 1-7.9.2c-8.6 0-10.8 0-11.2.4-.4.3-.3 2.4.2 2.9.2.2 3.2.3 8.7.4 9.4 0 11.2.2 11.2.7 0 .5-1.3.7-7.4.7-5.3 0-5.8 0-6 .4-.1.8-.1 2.3.1 2.7.2.3 1.5.5 4.2.7 4.7.5 5.5.7 5.6 1.3 0 .3-.1.4-.8.5h-1l-4-.2-4-.2v.6c-.2.4-.1 1 0 1.4.3.6.5.7 1.7.8l13.3.5 1.4-.4c1.3-.5 1.6-.5 7-.3 3.1.1 4.2.1 4.7-.2.5-.2 1.8-.3 4.6-.3 4.8.1 7.7.4 8.8 1 .4.2 1.3.4 2 .4 1.8 0 2.9.3 2.9.7 0 .4-.7.4-5.4.2l-10.5-.3c-2.9 0-6-.1-7-.3-2.1-.3-6.2-.2-7.8.2l-8.4.4-7.3.3v.5c0 .3 1 .4 4 .5 2.1 0 4.8.3 6 .5l2.2.3v1.1c0 1.2-.5 1.6-1.4 1.3-.2 0-1.4 0-2.6.2-1.8.2-2.3.4-2.5.8-.4 1-1.5 1.4-3.4 1-.9-.1-3.2-.3-5.1-.3-3 0-3.5.1-3.5.4 0 .3.3.4 1 .5l6.4.2c1.3 0 3.3.1 4.5.3l5.2.3c3.4.1 3.8.3 3.4 1.4-.4 1.2-1.5 1.6-3.3 1.2-2.8-.7-3.9-.7-4.4-.4-.3.3-1.4.4-3.3.4-2.2 0-3.1 0-3.7.4-.7.3-1.5.4-3.4.4-4.2-.1-4.8 0-6.3.5l-1.5.5 1.3.2c.7.2 4.4.3 8.2.3 8.5 0 9.7.3 8.6 2l-.6.8h-7c-8.8-.1-13.7.1-13.7.7 0 .3.4.4 1.2.6l4.8.7c2 .3 6 .6 8.9.8 3 .1 5.6.4 5.9.6.7.3.6.9-.2 1.5-.7.6-.9.6-4.9.4-4.6-.2-4.7-.2-6.2 0h-1.5c-.2-.2-1.7-.4-3.4-.5-3.5-.2-3-.2-5-.1-1.7 0-2.5.5-1 .5a40.3 40.3 0 0 0 7.2.5c3.7 0 4.1.1 4.1.5 0 .3.3.6.6.8.7.3 4.8.8 6.9.8 1.3 0 1.5.1 2.2.9l1.3 1.2c.4.3.4.4 0 .8-.2.3-1 .3-5.7.2-8.2-.3-12.3-.3-15.5.3-1 .1-1.3.8-.5 1 .8.2 2.7-.1 3-.4.3-.5 4-.3 11.4.7l4.3.6c1 0 1.4.3 1.8.8.7 1 .7 1-.2 1.3-.6.3-1.8.3-4.6.2-3-.2-4-.1-4.8.2-.7.2-2.4.5-4.4.6-2.9.1-5.7.5-4.9.6.6.2 9.3 0 12.3-.2 2.7-.2 3.4-.2 4.1.2 1 .5 1 .4.7 1-.4.8.2 1.2 1.7 1.2a5 5 0 0 1 2 .4c.7.3 1 .3 2 0 .9-.2 1.5-.2 3 0 2.4.5 2.4.5 2.3 1.2-.1 1-1.3 1.1-5.8.7a49.5 49.5 0 0 0-17.2 1.3c-.5.6.2 1.1 1.5 1.1 1.1 0 3.2.3 5.5.8 1.4.4 2 1 1.5 1.8-.3.3-.7.3-1.8.2-3.2-.4-5.6-.4-6.7-.1l-1.1.3.6.3c.4.2 1.2.4 2 .4 1.7 0 2.7 1.2 1.4 1.9-.6.3-3.5.2-9.2-.3-1.7-.2-3.7-.3-4.6-.1-1.4.1-1.5.2-2.1 1.2-1 1.6-1 1.7 1.6 2 2.7 0 5.8 1 6.4 1.9.3.5.3.6-.4 1.6-.8 1.2-1.1 1.3-3.6 1.2-2.3-.2-7.3.3-7.4.8v1c.1 1.4-.6 1.8-2.7 1.5l-2.2-.2c-.5 0-.4.7.2.8.7.2 1 1 .5 1.4-.3.3-1.4.6-2.5.7-1.2.2-2.7.6-3.7 1-.9.5-1.7.8-2 .8-.3 0-1.2.5-1.9 1a20 20 0 0 1-7.5 3.1l-2.2.9c-1.7.7-4 1.3-5.3 1.4-.4 0-2.4.5-4.3 1.1-4 1.4-6.4 1.7-13.3 2l-7.7.6a215.3 215.3 0 0 1-28.6.1c-2.6.1-4.7.1-6.3-.1a68.3 68.3 0 0 0-18.7.7c.5 0 1 .2 1.2.3.2.2 1 .3 1.9.3a93.6 93.6 0 0 0 12.4.6c8.9.1 15.7.5 18.3 1l8.8.4a180 180 0 0 1 18.4 1.2l6.4.5c1.7.1 7.1.4 12 .5 11.4.4 16.7.7 20 1.2 4.4.7 6.7 1 16.1 1.3 20.7 1 20.3 1 25.8 1.7 2.3.4 2.6.5 2.8 1.3.3 1-.5 1.5-1.6 1.3a59.9 59.9 0 0 0-6.2-.8l-10.3-.5c-13.8-.3-20.5-.8-28.2-1.7-3.2-.5-7.6-.8-11-1a307 307 0 0 1-19.8-1.4l-5.4-.2c-2.5 0-5.8-.2-7.3-.4-5.2-.5-8.6-.8-14.5-1-10.7-.5-14.2-.8-15.7-1-.8-.2-4.1-.3-7.7-.3a83 83 0 0 1-13-.6 44.4 44.4 0 0 0-23.1-.1 51.3 51.3 0 0 0-13.2 3l-1.4.3c-.4.2-1.9.4-3.2.5-1.8.2-3 .4-4 .9l-3.4 1.1-3.5 1-3.8 1.1a306 306 0 0 0-21.3 6.5c-1.8.9-3.2 1-4.3.4zm-4.1-24.7c.7-.8.7-1 .7-2.3-.1-1.7 0-1.7-2.8-2.5-1-.3-3-1.2-4.5-1.9-2.7-1.3-3.7-1.5-3.4-.6l.2 1.4c.2 1.2 2.5 5 3.5 5.7.7.5 2.2.8 4.3 1 1 0 1.3-.2 2-.8zm-1.8-9-.4-1.7c-.2-.2-2.8-.7-3.7-.7h-.8l.6 1.2c.7 1.4 2.5 2.7 3.7 2.7h.7l-.1-1.5zm9.7-.4c1.3-1.1 1.5-1.5 1-1.5s-2.6 1.9-2.6 2.3c0 .5.1.5 1.6-.8zm103.4-.3a51 51 0 0 0 12.4-10l1.1-1.2h-.7c-1 0-3.9 1-5 1.7a9 9 0 0 0-2 1.9c-1.2 1.6-1.1 1.6-3.1 3.1-3.2 2.5-3.6 2.6-6 2.4-1.8-.1-2.2-.3-2.9-.9-.9-.9-1.5-2.3-1.4-3.3 0-.4-.2-.9-.5-1.2-.6-.7-.3-1.4.9-1.7 2-.6 4-1.3 6.4-2.3 2-.9 2.8-1.4 3.3-2l2-2.5c1-.8 1.6-1.7 1.6-1.9 0-.2.7-.7 1.5-1.2 1.2-.6 1.6-.9 1.6-1.4 0-.6.3-.8 1.2-1 1.4-.5 4-2.1 3.8-2.5-.1-.4-.8-.4-2.6.3-2 .7-3 1.3-3.3 2 0 .2-.4.4-.7.4-.3 0-1.4.5-2.4 1-1.6.8-2 1.1-2 1.8-.2.8-.2.8-2.6 1l-2.9.6c-.2.2-1 .4-1.8.6l-2.1.7c-.5.2-1.8.6-3 .8-2.2.4-2.3.4-2.6 0-.5-.8.2-1.4 2-1.7 3.6-.8 6.3-1.5 7-2 .8-.5 5.8-3 6.1-3 1 0 8.6-5 8.6-5.7l-.2-.4a145.5 145.5 0 0 1-15.5 5.4c-5.9 1.7-9.7 2.3-9.9 1.4-.1-.7 1-1.2 4-2 2.8-.7 3.1-.8 7.2-1.6l3.7-1c.7-.4 1.7-.7 2.2-.8.6 0 2-.6 3.3-1.2 2.2-1 7.6-2.6 8.6-2.6 1.4 0 5-2.6 4.7-3.4-.2-.4.5-1.1 1.1-1.1A99.1 99.1 0 0 0 478 228c3.2-2.2 5.3-6 5.4-10.5.2-3.3-.2-4-2.5-4.8-1.7-.6-1.8-.6-2.7-.2-1.2.6-2.1.4-3.4-.7-1-.8-2.1-1-2.1-.3 0 1 .8 3 1.3 3h1.6c1.6.1 2.9.7 2.9 1.3 0 .8.3 1.3 1 1.7 1.5.8 1.3 2-.5 4.5l-1.8 2.3-2.1 2.4c-1 1-1.8 1.8-3.3 2.6L469 231a8 8 0 0 1-2.1 1l-2.3 1-2 1-1.6.7c-.5.5-8.2 4.4-8.6 4.4-.2 0-.4-.2-.6-.4-.4-.5-2.3-.6-3.3-.2-.6.3-7.8 2.5-10.2 3.2a25 25 0 0 0-5.4 2 16.8 16.8 0 0 1-3.6 1.4 62.4 62.4 0 0 1-9 2.5c-2 .6-3.1.6-3.4 0-.4-1.1.3-1.4 9.2-3.5a24 24 0 0 0 6.7-2c1-1 .7-1.3-1.2-1-.8 0-1.6 0-1.7-.2 0-.1.2-.2.6-.2.5 0 1.4-.3 2.2-.7.7-.4 1.6-.7 2-.7h1.7c2 0 8.5-1.7 12.6-3.2 2-.8 4.8-1.9 5.9-2.2.7-.3.9-.2 1.3.2.5.5.6.5 1.9.1a22 22 0 0 0 6-3.4c.5-.4 1-1.2 1.3-1.7.2-.5.7-1 1.4-1.4 1.6-.8 3.4-2.6 4.8-4.6 1.8-2.7 2-3.3 2.3-5 .1-1.5 0-1.7-.3-1.9-1-.4-1.6.4-2.7 3.3-.3.7-1.9 2.8-3.3 4.3a5 5 0 0 0-1 1.3s-.5.5-1.1.8c-.7.4-1.4 1-1.8 1.4-.7.7-1.4 1-4.1 1-2 0-1.8 0-8.6 3.5-4 2-5.6 2.6-5.6 2 0-.6.8-1.2 1.9-1.4.5-.1 2-1 3.5-1.8l3.9-2.3a26.2 26.2 0 0 0 5.7-4.3c.4 0 1.3-1.3 1.1-1.5 0 0-.6.3-1.1.8-.5.5-1.1 1-1.4 1-.2 0-.6 0-.8.2-1.1.6-3.4 1.6-3.7 1.6l-1 .5c-.2.3-.7.6-1.1.7-.4 0-1.3.4-2 .8-2.9 1.3-4 1.7-4.6 1.7l-1.6.5c-1.2.6-4.5 1.5-7 1.9a6 6 0 0 0-2.2.7c-.8.7-2 1.3-3.2 1.7a7 7 0 0 0-1.3.5 7 7 0 0 1-1.3.5l-1.4.6-1.6.4c-.7 0-2.2.3-3.3.5-2.2.5-3.4.4-3.4-.2 0-.2 1.5-.7 4.2-1.3 4.6-1.1 5.8-1.7 5.9-2.8 0-.5.2-.8.7-.8l.6-.1-.7-.4c-1-.5-2.4-.5-5.6 0-3.2.5-4 .8-5.6 1.6-1.8 1-2.6.8-1.7-.6a364.5 364.5 0 0 1 1.7-2.5l-1-.7a8.3 8.3 0 0 0-6 0c-2.6 1.1-5.2.9-4.5-.5a4 4 0 0 1 1.6-1c1.9-.9 2-1 2.1-1.5.2-.7-4.7-.6-6.6 0-1.5.7-1.8.6-1.8-.3 0-1-1-1.2-2.8-.5l-2.7.7c-1.1.2-2.4 1-2.4 1.5 0 .2.8.6 1.8 1.1 1.4.7 2.5 1.6 5.8 4.8 4.8 4.9 5.3 5.8 6 10.6.7 5 1.2 7.6 1.8 9.6a41.7 41.7 0 0 0 5.5 10.9c.2.5.8 1.6 1.4 2.4.7.8 1.8 2.5 2.5 3.6 1.4 2.2 3 3.7 5 4.8l1.4.6c.2.2 1 .3 1.6.3 1 0 1.5-.2 3-1.2zm4.3-18c.3-.1.6-.1.8 0h-.8zm-3.5-9.5c0-.2 1-.3 1.2-.1 0 .1-.1.2-.5.2h-.7zm1.7-.7c.1-.1.3-.2.4-.1.4.2.3.4-.1.4-.3 0-.4-.1-.3-.3zm.6-.7c-.1-.2-.4-.2-.7-.1-.4 0-.5 0-.5-.3 0-.4.3-.5 1.6-.5.9 0 1.8-.1 2.1-.3.4-.2 1.5-.5 2.5-.6 1.7-.2 1.8-.2 1.5.2-.2.3-.7.5-1 .5-.3 0-.8.2-1 .4-.4.2-1.2.4-2.2.4-.9 0-1.7 0-1.9.3-.2.1-.3.1-.4 0zm-3-.3h.8c.2.1 0 .2-.5.2-.4 0-.6 0-.3-.2zm10.2-1.8a70.9 70.9 0 0 0 1.9-1.1 38 38 0 0 1 5.3-2.2c0-.1.2-.2.5-.2.4 0 .5.1.4.3 0 .3.1.5.5.6.6.1.6.1-.1.5-.4.2-1 .4-1.5.4l-1 .2c0 .2-.8.4-1.7.6l-2.6.7c-1.3.4-1.7.5-1.7.2zm-17.3-1.7c-.1-.1.3-.2.8-.2h1c0 .3-1.7.4-1.8.2zm2.7-.7h.5c.1.1 0 .2-.3.2s-.4-.1-.2-.2zm-7.5-.5c-.2-.4.3-1.2.9-1.2l2-.5c5.8-1.7 7.5-2.2 10.4-2.9a46 46 0 0 0 4.6-1.3c2-.8 3.6-1.1 3.8-.7.2.6-1 1.4-2.4 1.7a47.7 47.7 0 0 0-5.6 1.6c-1.6.8-4.8 1.8-11.1 3.3-2 .5-2.4.5-2.6 0zm9.8 0h.8l-.5.1c-.4 0-.6 0-.3-.1zm28.3-8.3c0-.2.2-.3.5-.3.4 0 .7 0 .7-.2s.3-.3.6-.3c.6 0 .6 0 0 .4-1.2.5-1.6.6-1.8.4zm-43 40.7c1-.6 1.1-.9 1.1-1.6 0-1.5-.5-1.6-1.8-.4a6.9 6.9 0 0 1-3 2c-.8.3-1.2 1.3-1 2 .2.3.5.2 1.9-.5a40 40 0 0 0 2.8-1.5zm-74 .5.5-.7c.8-.8 1-1.5 1-2.6a35.1 35.1 0 0 0-1.7-8.4c-.4-2-1.4-4.3-2.5-6-.8-1.2-1.1-2-1-2.4.3-.7 1-.5 1.9.4a25 25 0 0 1 2.8 5.4l.4 1.6c.9 3 1.2 4.6 1.3 6.9l.3 2.8c.1.3.6.4 1.4.4 1.1 0 1.3 0 2.7-1.6 1.5-1.5 2.4-1.9 2.8-1.3 0 .2.4.3.8.3s.7-.3 1-.9l1.5-2.4c.6-.8 1.2-1.9 1.4-2.4.4-1.1.7-1.5 1.4-1.5 1.2 0 1.7.5 1.7 1.7 0 1.3-1 2.7-3.2 5l-1.2 1h1.3c1.3-.2 4.1-1.5 5.3-2.6a27 27 0 0 0 4.6-12.6c.1-2.8.4-3.6 1.4-3.6.4 0 1 .3 1.2.6.7.7 1.7 2.7 1.7 3.2 0 .7.7.2 1-.7.2-.5.6-1.2 1-1.6a23.8 23.8 0 0 0 1.5-15.6c-.8-2.2-3.3-5.8-5.2-7.4-1.4-1.1-1.7-1.3-2.5-1.1l-3.4.3c-2.5.2-4.2 1-4.9 2.2-.6 1.1-4.7 3.6-10.3 6.2-.9.4-1.5.8-1.5 1l-1 .5a16.8 16.8 0 0 0-6.6 5.5l-1.3 1.4c-.2.4-1 1-1.5 1.3-1.2.5-2.3 2-2.3 2.8 0 .2-.5.6-1 1-1.1.6-1.5 1.4-1.3 2.6.2 1 .6 1.7 1.3 2.6.4.5.7 1.4 1 2.5.1 1 .4 2.1.6 2.5.2.4.4 1.1.4 1.6 0 .7 1 2.1 1.6 2.1l.7 1.1c.2.7.7 1.4 1 1.7.3.5.5 1 .5 2.3 0 1 .2 2 .4 2.6.3.5.7 1.4.8 2 .2.6.5 1.1.7 1.2.3.2 1.5-.5 1.5-.9zm5.2-6.3c-.3-.4-.5-1-.6-1.3 0-.4-.5-1.6-1-2.7a85 85 0 0 1-2.6-5.8c-.4-.6-.5-.9-.3-1.3.2-.3.5-.5.7-.5.3 0 1.5 1.3 1.5 1.7l.3.5c.3.3.4.2.6-.8.3-1 .2-1.2-.5-2.2-.5-.5-1-1.5-1.3-2.1-.3-.6-.6-1-.8-1l-.2-.7c0-1.2 1-1 1.6.3.2.6.8 1.5 1.4 2 1 1 3.2 5 3.4 6.3v1.1c-.2.5.2 1.5 1 2.5h.6c.5-.2.5-.4.3-1.4l-.1-2.3c0-.7-.2-2.2-.5-3.4a14 14 0 0 1-.6-4.4v-.5l.4.5c.1.3.6.8 1 1 .7.3 1 .7 1.4 1.8.7 1.9 1.6 3.3 2.4 3.8 1 .6 1.1.6 1.9-.7.6-1.1.7-1.3.6-4.4-.1-3.4.4-6 1.2-7.3.6-.7 1.2-.1.7.7-.4 1-.6 2.8-.7 6.7 0 3.9-.2 4.9-1.4 6.5-.9 1.2-1.7 1-3.4-.6l-1.5-1.4.2 2.1.3 3.4c.2 1 .1 1.3-.4 1.5-.3.2-.5.6-.5 1 0 1.4-1.4 1.6-2.5.3-.5-.7-.7-.8-1-.5v.7c.1.5-.4 1.5-.9 1.5-.2 0-.5-.3-.7-.6zm16.2-10.2v-.8c0-.2-.1-.4-.3-.5-.3-.2-.3-1.4 0-1.6.2 0 .3-.4.2-.8V253c.2-.5.3 0 .4 2l-.1 3c-.2.4-.2.4-.2 0zm-14-6.7-.3-.9c0-.4.7.3.9.9.2.8-.2.8-.6 0zm17.3-3.6c-.3-.4-.4-.7-.2-1.7.6-3.5-.3-8.8-1.8-10.7-1.1-1.3-1-2.1.3-2.2 1.3-.1 2 .7 3 3.2.7 1.7.8 2.2.8 5.5 0 3 0 3.7-.6 4.8-.7 1.4-1 1.7-1.5 1zm-18.7 27.4 2.2-.8 2-.8c.5-.3 1.1-.5 1.4-.5.3 0 .5-.2.5-.4s0-.4-.2-.4a16.3 16.3 0 0 0-5.1 1.7c-.4 0-.9.3-1 .5l-1.2.8c-.8.4-.8.4-.2.4.4 0 1-.2 1.6-.5zm137-1 2.3-1c.6-.4-1.2-.7-6-1a1208.9 1208.9 0 0 1-14.6-1l-11.2-.5c-9-.5-11.1-.3-11.4.9 0 .4.2.4 1.8.4a67 67 0 0 1 9.4.7c1.2 0 3 .3 4 .6 1.1.2 3.3.3 5.7.3 2.1 0 4.8.2 6 .4 1.1.2 3.7.4 5.8.4 2 0 4 .2 4.3.3 1.2.3 1.8.3 4-.6zm-164.7-1c0-.3-1.3-1.5-2.4-2.2-.5-.4-1.5-1.2-2.2-2-1.6-1.7-2.3-4.3-2.8-10.5a55.4 55.4 0 0 1 .4-18c0-1.1.4-2.7.7-3.5.7-2 .7-4.8-.1-8.7-.5-2.5-.6-3-.3-4.2.3-1.2.2-1.6-.5-4l-1.5-4.3c-1-2.2-3.6-6-4.6-6.8-.8-.5-1-.5-4.4-.4a12 12 0 0 0-3.8.5c-.5.7-.1 9.7.7 18.5l.4 5.4c0 .8.8 5.5 1.6 8.9l1 4.9c1.1 5.4 2.1 8 3.9 10.2 1.8 2.4 4.6 5.7 4.9 5.9l.2.8c0 .4.3 1 .6 1.4.4.6.6 1.5.8 3.1l.5 2.7c.2.2 1.2.6 2.3 1l3 1c1 .5 1.6.6 1.6.2zm8.9-.8c.6-.4.8-1 .3-1.3-.4-.2-1.7 1.1-1.4 1.5.2.3.4.3 1.1-.2zm64-.7c0-.5-.1-.6-.8-.1-.3.2-.3.4-.1.6.4.4 1 .1 1-.5zm-66.9-.6-.1-.5c-.3-.3-1 .4-1 1 0 .4.2.4.6.2.3-.2.5-.5.5-.7zm64 .3-.1-1.4v-.9l-.9.4c-.4.2-1.3.5-2 .6-2 .2-1.5 1.2.8 1.6 1.7.3 2.1.3 2.1-.3zm41.2.1a21 21 0 0 0 5.2-3.6c.3-.3.5-.8.5-1.2.1-.4.5-.9 1.2-1.3 1.4-1 5.6-3 9.3-4.5 3.6-1.4 4-1.6 4.5-2.1a3 3 0 0 1 1-.6h-.3l-2.2.4c-1.5.5-2.2.3-1.5-.3.3-.2.4-.5.4-.7 0-.6.8-.9 4.2-1.8 7-1.7 8-2 12.7-4.4 2.5-1.2 3.4-1.9 2.5-1.9l-2 .5a79.3 79.3 0 0 1-9.5 2.2c-1.6 0-3.5.5-7 2-1.5.6-3.4 1.3-4.2 1.4l-2.6 1c-1.6.8-3.8 2.9-3.8 3.6 0 1.4-5.7 5.1-10.7 7-3.2 1.2-3.2 1.3-2.5 2.2 2 2.6 1.8 2.4 3 2.3l1.8-.2zm-20-2c0-.2-.3-.5-.5-.5s-.4.3-.5.6c0 .4 0 .6.5.6.4 0 .6-.2.5-.6zm81.3 0c.5-.4-.2-.9-1.2-.9a43 43 0 0 1-3.5-.3l-3.7-.2H481l1.3.4 1.7.7h1.3a9 9 0 0 1 2.3.1c1.7.3 3 .4 3.1.2zm-164.3-1c.8-.8 1-2 .4-2-.4 0-1.8 2.1-1.6 2.4.2.3.4.3 1.2-.5zm53.4-.6c.5-.6 4.2-2.3 4.7-2.2.3 0 .5.4.5 1.2 0 1 0 1 .8 1 1-.2 2-.8 2.1-1.6 0-.4.8-2.2 1.6-4 1.7-3.8 2-5.5 1.3-8.8l-.6-3.3-.7-2c-.2-.4-.5-1.3-.6-2-.1-1-.3-1.2-1.3-1.8-1.3-.8-4.2-3.6-5.3-5-.9-1.2-1.3-1.2-1.7-.1a7 7 0 0 0 .2 4.5c1 2.3 1.5 5.4 1.3 8.4a33.8 33.8 0 0 1-.6 5c.6.5 3.5-5.1 3.8-7.1 0-.8 0-1.4-.5-2.3-.6-1.2-.6-1.2-.1-1.6.3-.2 1-.4 1.6-.4 1 0 1.2.2 1.8 1l.7 1 .4 1.2c.4.8.4 1.2.2 3.2-.9 6.2-1.1 6.8-4.2 10.2-2 2.1-2.7 2.7-4.4 3.6-1.2.5-2.4 1-2.8 1-.4 0-1 .2-1.2.4-.5.3-.5.4 0 .6.8.5 2.6.4 3 0zm100 .2c1 0 .6-.5-.5-.7l-5.9-.3c-2.6 0-5.5-.2-6.3-.4a158 158 0 0 0-12.8-1.4c-1-.2-2.7.5-2.4 1l1.1.2 2.9.4 4.2.6 3 .5c.5.2 3.2.3 8.4.2l8.3-.1zm-111-1.2 1.2-.4a2 2 0 0 0 1-.4c.2-.2 1-.5 1.6-.7 1.7-.4 4-1.6 4.3-2.1.1-.3.3-.8.3-1.3 0-.4.3-1.6.8-2.6 1.2-2.6 1.5-4 1.7-7.6.3-4.5 0-5.5-1.3-7-.7-.7-1.3-1.6-1.5-2-.6-1.2-1.2-1.2-1.4 0-.3 2-.2 4 .4 5.3.3.9.6 2 .7 3.5 0 2 0 2.5-.7 4.7l-1.5 3.5c-1 1.5-4.6 5.1-6 5.9-2 1-1.5 2.2.5 1.2zm127-1.2c2.2-1.6 2.2-2.3.2-2.3a215.3 215.3 0 0 0-24.9-.7l-.7.3.8.3c.5.2 1.7.4 2.8.5l3 .6a118 118 0 0 0 15 2.2c1.4.6 1.9.5 3.7-.9zm-101.5.5c0-.3.3-.6.6-.6.2-.1.8-.5 1.2-1 .6-.7.7-1 .8-3 0-1.6 0-2-.1-1.3-.2 1-2.6 5.9-3.1 6.2-.2.2-.1.2 0 .2.3 0 .5-.2.6-.5zm-68.3-1.3c.5-.6.8-1.3.5-1.3-.2 0-1 1-1.4 1.5-.5.8.1.8.9-.2zm-1.4-1.4c.7-.9 1.2-1.8 1.2-2l-.5-.8c-.5-.6-1-.3-1 .5 0 .4-1 2.9-1.6 3.7 0 .2 0 .2.3.2.2 0 .9-.7 1.6-1.6zm-3.4-.3c1.4-.9 1.6-1.1 2-2.4.3-1.3.2-1.4-.6-.9-1.6 1-3.1 3-3.1 4 0 .5 0 .5 1.7-.7zm178.2-1.8c.2-.3.3-.8.2-1 0-.6-.2-.7-3.4-.9-1.8 0-4.7-.3-6.3-.4-9-.9-11.4-1-10.7-.2.7.6 8 1.5 13.6 1.6 2.4 0 3 .1 4 .7 1.7.9 2.2 1 2.6.2zm-181.3-.1h-.5c-.2 0-.2.1.1.1.3 0 .5 0 .4-.1zm54.5-1.8c2.3-4.4 2.3-4.4 2.3-6.8 0-2.7-.3-3-1.3-1-.6 1.1-.7 1.6-.5 2.6.2 1.5-.3 3.6-1.1 4.8a4 4 0 0 0-.7 1.4c0 .7.7.2 1.3-1zm27.5 1c0-.1-.3-1.5-.9-3-.5-1.6-1-3.3-1-3.9a27.3 27.3 0 0 1-1.1-9c0-.4 0-1-.2-1.1-.4-.4-.3-2.4.1-2.7 1.3-.8 2.4.2 3 3.2.4 1.4.4 2.2.2 4.2a21 21 0 0 1-.6 3.1c-.3.8 0 1.1.6 1.1.4 0 1.3.8 2.5 2 1.9 2 2 2.1 2.8 1.9 1.2-.4 1.4-1.3.3-1.8-.9-.5-1.1-1-1.1-2.1l-.4-2.6c-1-4.4-2-6.8-4-8.3l-1.6-1.4a34 34 0 0 0-6.4-4.2l.8 1.9c1.4 2.4 1.3 4-.3 4-1 0-2-.8-2.5-2-.3-.8-.6-1.1-1-1.1s-.5.2-.5 1.1c0 .7.2 1.6.4 2.1s.2 1.1.1 1.4c-.3 1-.3 2.2.2 2.8.4.4.8.5 1.6.5 1 0 1.3.2 2 .8.4.5.7 1 .7 1.3 0 .2.5.8 1 1.3 1.6 1.5 2.9 4 3.1 6l.4 1.9.7 1.6c.4 1.4.8 1.8 1 1zm-3.1-2.4c0-.5 0-.9-.2-.8-.2.1-.1 1.8.1 1.8l.1-1zm-77.6-.4c1.3-1.1 1-1.4-.5-.4-1.2.8-1.4 1.2-.6 1.2.1 0 .7-.3 1.1-.8zm181.6-.2c.4-.7 0-.8-2.6-1-2.5-.1-3.6.2-2.6.8.6.3 2.1.6 4 .7.6 0 1-.1 1.2-.5zm-48.1 0h-.8c-.2.1-.1.2.3.2.5 0 .7 0 .5-.1zm41.3-.5c.2 0 .4-.2.4-.3 0-.5-1.5-.8-4.4-.8-1.7 0-2.9.1-2.6.2.3 0 .6.2.7.4.3.4 5 .9 6 .5zm-39-.5h-.6c-.2 0-.1.1.2.2.3 0 .4 0 .3-.2zm-224.2-1 1.6-1c.1-.3-.7-1.5-2-2.9a20.8 20.8 0 0 1-3-4.3l-1.3-2.2c-.7-.5-6 1-7 1.9-.4.3-.4.5 0 1 .2.4 1 1.2 1.7 1.7a14 14 0 0 1 2.2 2.2c1 1.3 3.5 3.7 4.2 4 .9.4 2.2.2 3.6-.4zm87.8-1.8c.1-.5-.5-1.3-1-1.3s-2 1.8-2 2.4c0 .3.1.6.3.6.4.2 2.5-1.2 2.7-1.7zm147.4 1.4a6 6 0 0 1 2-.8c1.7-.3 6-2.4 8.4-4 .8-.5 2.4-1.8 3.6-2.9 1.1-1 2.3-2.1 2.7-2.3.6-.3 1.4-1.6 1.4-2.2 0-.3-.6 0-2.6 1.3-.7.5-1.5.8-1.6.7-.5-.3-.3-.9.3-1.2l.7-.5 1.1-.8c1.5-1 7-5.8 9.4-8 2.6-2.5 2.4-1.7 2-9.2-.4-4.4-.4-4.6-1-5.2-.9-.7-1.7-.8-1.7-.2l.3 1.5c.3.8.3 1.3 0 2.8a55 55 0 0 0-.8 3.7c-.2 1-.7 2.9-1.2 4-.6 1.3-1 2.6-1.1 3a51.4 51.4 0 0 1-12.9 12c-.6.1-.7.2-3.2 1.7l-3 1.6c-1.7.8-1.4 1.1.6.6 1.7-.4 2-.4 2-.1 0 .1-.1.3-.3.3a18.6 18.6 0 0 1-5.4 2c-.5 0-1.4.3-2 .6l-2.9 1c-2.8 1-2.7 1.1 1 1.1 3.2 0 3.7 0 4.2-.5zm11.5-.7c.5-.3 1.4-1.2 2-1.8a21 21 0 0 1 4.7-3.7c2.1-1.2 3.8-2.6 4.6-3.7a42.4 42.4 0 0 0 7.5-8.4l1.5-1.8c1.4-1.4 1.6-2 1.8-3.6.2-2 0-3-.6-3-.8 0-2 2.2-2.6 4.2-.2 1-.7 2.1-1 2.5l-.7 1c0 .5-2.3 3.6-3.4 4.6-1 .9-2.2 1.4-2.7 1-.4-.2-.3-.5.8-2 .6-.7 1-1.4 1-1.6 0-.3.2-.5.4-.6.2 0 .2-.1-.1-.1-.7 0-1.8 1-3 3a33 33 0 0 1-10 10 52.3 52.3 0 0 1-5.6 3.4c-.6.5-.7.6-.3.8.2.2.6.2.9.1l1.9.1 1.7.3c.2 0 .7-.3 1.2-.7zm21-1.6c-.7-.7-1.1-.7-3.7-.6-.8 0-2.2-.1-3-.3-1.4-.3-2.7 0-2.7.7 0 .5.8.6 4 .7l4.5.1h1.7zm-182.4-1.7c.2-.4.1-.6-.4-1.2-.5-.7-.6-.7-.8-.2-.4.7 0 2.2.6 2 .2 0 .5-.3.6-.6zm-24.5-.3c1-.4 2-1 2.5-1.3.6-.3 1.4-.5 1.8-.5.8 0 .9 0 .9-.6 0-1.2-.6-1.4-2.3-.6-1.5.7-2.5.8-3.6.4-.7-.2-1.2-1.1-3.6-6.7a23.4 23.4 0 0 0-3.3-6.1c-.5-.6-.6-1.4 0-1.6l.8-.3c.4 0 .2-.4-.8-1.4-1.2-1.3-2.9-3.6-4.1-5.9-.9-1.6-2.7-7.2-2.7-8.2 0-.6-1.4-5.5-1.7-5.7l-2.5.4c-1.4.3-2.9.5-3.3.4-1-.2-4 .6-5.5 1.4-.7.4-1.4.7-1.7.6-.7-.1-.8-1.3-.3-2.3.5-.8.6-3.4.3-3.6-.3-.1-1.5.5-4.2 2-1.8 1-2 1-3.5.9-1.2-.2-1.8 0-2.8.4-1.3.6-3.5 2.8-5.7 5.8-.8 1-1.8 2.2-2.4 2.6l-2.4 2-1.6 1.3 1 1c.4.6.9 1.2.9 1.5l.5 1.5c.5 1 .6 1.3.4 4.7-.1 2.5 0 3.8.1 4.2.2.3.4 1.7.5 3.1.4 4.2.6 4.6 2.1 5.3 1 .3 1 .3 2.4-.8 3.3-2.5 5.8-5 6.4-6.3.4-1 .5-1.5.3-1.9-.2-.5-.5-.2-2.6 2-1.6 1.8-2.6 2.6-2.8 2.5-.6-.2-.3-1 1.1-2.8 3.6-4.8 5.1-7.4 5.6-10 .3-1.5.3-1.8-.3-3.5-.7-2.3-.6-3.3.5-3.2.6.1.9.4 1.6 1.9 1.2 2.5 1.2 4.6-.3 11-.5 2.3-.5 2.3 0 3.3.4.5.6 1.2.6 1.4 0 .2-.5 1-1.2 1.8a13 13 0 0 0-1.5 2.3c-.2.5-1.2 1.6-2.2 2.5-1.6 1.4-2.1 2.3-1.4 2.3.2 0 .8-.4 1.3-.8.6-.5 1.7-1 2.8-1.3 3-.9 3.4-1.1 4.2-3.2l1-2.2c.5-.5 1.8-3.3 2.1-4.5.6-2.1.5-3-.3-4.7-1.1-2.2-1-3.3 0-3.5a4 4 0 0 1 3 1c.8.7 2 .8 2.2.2.2-.5 1-1 1.6-.8.4.2.5.5.6 2.9.1 3.2.6 4.5 3.7 9 2.1 3.3 8 9.4 9 9.4.6 0 .6.2.6-2.3.1-2.3 0-2.4-2.1-6-3.3-5.3-3.8-6.8-4-11.6 0-1.2 0-2.4.2-2.6.4-.6 1 0 1.2 1 .6 3.8 1.3 6 2.9 9.1l2.3 4.2c.7 1.2 1.6 3.1 2.2 5 .6 2 2 4.8 2.5 5 .7.5 1.4.4 3-.5zM245 239.1c-.7-.5-.3-1.7.5-2 1.6-.3 4.2-5 5-9 .3-1.7.6-2.1 1.3-2.1 1 0 1 1.7 0 4.6-1 3-3.3 7-5 8.2-1 .7-1.1.8-1.8.3zm80.2 9.6c-.1-.3-.7-1.1-1.3-1.6-1-1-1.2-1-2.7-1-1.2 0-1.7 0-1.8.4-.3.6.5 2 1.1 2 .1 0 .6.2 1 .6l1.5 1c.8.4.9.4 1.6-.1.6-.5.7-.7.6-1.3zm-50.5-2-.7-1c-.8-1-3.4-4.8-4-6-.6-1.3-1.2-2-1.4-1.7l-.3 2.6-.2 2.4 1 .8c1.7 1.3 5.2 3.5 5.7 3.6.2 0 .1-.3 0-.6zm-44.5-4c-.7-1.6-1.5-3.1-1.8-3.5-.6-.6-1.8-.8-1.8-.2 0 .5 1.2 3 1.6 3.2l1 1.8c.5.8 1.1 1.8 1.5 2.1l.5.6.1-.6c0-.3-.4-1.8-1.1-3.4zm4 2.5c-.3-2.4-.8-4.1-2-6.5-2.5-5.5-2.9-7.3-1.4-7.6.9-.2 1.3.2 2.2 2.5l1.2 2.5c.4.5.4.5.2-.7-.2-1.4.1-2 1-1.8.5 0 1.5 1.9 1.5 2.6 0 .2.2.3.3.3.1 0 .3-.4.3-1 0-.5.1-1.2.3-1.5.4-.4.5-.4 1.1-.1.7.3.8.2 1.1-.2.4-.5.5-1.6 0-2.7-.2-.9-.8-1.3-1.7-1.3-1 0-1.9-1.3-1.9-2.4 0-1.4-1-2-4.4-2.4l-3.6-.4h-1c0 .2.7 1 1.5 1.7 1.6 1.5 2.1 2.4 1.5 3-.5.4-2.4-.4-4.3-2a8 8 0 0 0-2-1.2c-.7 0-.4 1.2.7 3.5l1 2.6c0 .6.6 1.8.9 1.8l.2-1c0-2.4 1.6-2.6 2-.3l.4 1.9c0 .5 1 3 2 5.5a180 180 0 0 1 2.8 6c.1 0 .1-.3 0-.8zm60.7-.3c1.3-.7 1.4-1.2.6-3.1-.5-1.2-.6-1.2-2.6-1.8-1.8-.5-2.3-.8-3.1-1.7-.6-.6-1-1-1-.8a32 32 0 0 0 3.8 7.5c.9.6.8.6 2.3 0zm28.2-1.3c.8-.3 1.7-.4 2.5-.3 1 .1 1.5 0 2.6-.5.6-.4 2.3-1 3.6-1.4 3.1-.9 4.1-1.4 6.3-3l2.7-1.8 1-.6c0-.1.1-.3.4-.3.2-.1-.8-.2-2.2-.2-2.1 0-2.8-.1-3-.4-.7-.8 0-1 3.2-1.1 3.1 0 7.7-.7 8.2-1.1l1.3-.6a7 7 0 0 0 2-1.2c.8-.8 1-.9.4-.9l-2 .5c-2.4.8-3.5 1-4 .8-.4-.4.5-1.1 2.2-1.7a41 41 0 0 0 4-1.6c3.2-1 4.9-1.8 5.6-2.4.4-.4.7-.8.7-1 0-.3-.9-.2-1.9.4l-2.2.9-2 .8a45.3 45.3 0 0 1-14.1 3.3c-1.2 0-1.8-.1-2.3-.5-1-.9-.3-1.2 2.6-1.2 2.6 0 7.8-1 10-1.8a575.9 575.9 0 0 0 10.3-4c.3-.1.9-.5 1.1-.8l1.3-.8c1-.5 2.6-2 2.5-2.4a94 94 0 0 1-1.2-3.5c-.2-1-.3-1.8-.2-2.4a13 13 0 0 0-.8-5.3c-.3-.4-.4-.4-.9.4-.5 1-3.2 3.8-3.6 3.8l-2.8 1.3c-2.2 1.1-2.6 1.2-3 .9-.2-.3-.1-.5.4-1 .6-.8 4.4-2.7 5.7-3 .6 0 1.2-.6 2.2-1.9l1.4-1.7-.3-2.5c-.1-1.4-.4-2.6-.5-2.8-.3-.3-1.4-4.2-2-6.8a44.3 44.3 0 0 0-3.1-8l-.7-1.5-1-2.6-1-2.4-1-2.3-.5-1.3-.4-1-.7-1.7a65 65 0 0 1-3.1-7.3 134.4 134.4 0 0 1-3.8-8.7c-2.2-5-2.5-7.4-2.3-17l-.4-5.7-1 .6-1.3.7-1.5.8c-1.4 1-2.4 1.1-2.8.4-.3-.3-.2-.5.3-1 .4-.2 1.1-.6 1.7-.7 1.1-.4 3.1-2.1 3.1-2.8 0-.5 0-.5-2.1 0l-4.4.7c-1.4.1-2.8.5-3 .6l-1.5.9c-.6.2-1.6.8-2.3 1.3l-2.7 1.6a34.9 34.9 0 0 0-7.7 4.8c-.4.2-1.5 1.1-2.4 2-.9 1-1.9 1.8-2.2 2-.3.1-1.4 2-2.6 4.4a45.4 45.4 0 0 1-3.4 6.4c0 .4-.5 1.6-1 2.7-.7 1.7-.8 2.3-.8 4.7 0 1.4-.2 2.8-.3 3l-.8.2c-1.2 0-1.6-3.7-.6-7.1a72 72 0 0 1 5.2-12.5c1.2-1.6 2.4-4.7 2.4-5.7 0-.8 2-5 2.5-5.3l1.7-1.3 2.3-2c1-1 1.3-1.8.3-1.8-1.7-.1-3 0-3.6.5l-1.6.8-2 1-2.3 1a7 7 0 0 0-2.7 1.6l-2.8 2.2c-.6.4-1.4 1-1.7 1.4l-1.9 1.6a52.6 52.6 0 0 0-9 10.7c-.7.9-1.5 2-1.7 2.5l-3 4.9c-.6.7-1 1.7-1.2 2.3l-1 2.6c-1.6 3-3 9-4 17.5a53.7 53.7 0 0 0 1 20l.6 4.8c.2 2.3.3 2.8.9 3.4.7.8 1.5 3.1 1.5 4.7 0 .8.1 1.3.6 2 .4.4.9 1.5 1.1 2.4a31 31 0 0 0 2.2 6.2 51.5 51.5 0 0 0 9.2 10c1 .4 1.2.5 1.4.1.2-.2.2-.8.1-1.4a158 158 0 0 1-1.1-11.1c-.2-1.6-.4-3.6-.6-4.3v-2.2c.2-.5.3-1.5.2-2.4-.1-1.3.2-6 .5-7.6 0-.3.4-.8.7-1a38.4 38.4 0 0 1 10.7-.6c.7.1 1.5 1 3.9 4.3 1.8 2.6 2 2.9 2.7 5l1 2.7c.2.3.7 2 1 4 .7 3 .7 3.7.6 8 0 2.5-.2 5.8-.3 7.2-.1 2.5-.1 2.7.4 3.3.5.4.6.8.5 1.3-.2.7.1 1.7.7 2.3.5.5 4.8.2 6.7-.4zm8.8-15.8c-.3-.2-.3-.3 0-.6.5-.7 1-.8 8.5-2.3l9.8-3a184.4 184.4 0 0 1 10.2-3.2c.2.2-.7 1.2-1.1 1.2a175.7 175.7 0 0 1-26.8 8.2l-.6-.3zm1.1-6.9c-1.2 0-1.8-.2-2-.6-.1-.2-.2-.5 0-.6 0 0 2.7-.3 6-.4a97 97 0 0 0 12.4-1.2c1.2-.1 3.4-.7 4.3-1.1a92.6 92.6 0 0 1 5.5-2.3c1.2-.6 1.8-.6 1.8 0 0 .5-.7 1-2.5 2a25.9 25.9 0 0 1-8.9 3c-1.2 0-3.8.4-5.6.6a53 53 0 0 1-11 .6zm2-15c-2.7-.3-6.3-.9-7-1.2-.7-.3-.8-1.4-.2-1.7.4-.1 3.4.3 5.8.8a82.3 82.3 0 0 0 18.1-.8c1.9-.3 2.4-.3 2.4.2 0 .2-1.9 1.2-3.3 1.7l-2.6.4-4.2.5c-2 .3-7 .3-9 .1zm-13.1-8.5a36 36 0 0 1-5.4-1.8c-.5-.3-.7-.5-.7-1 .2-.9 2-.7 4.4.5 1 .5 2.2 1 2.6 1 1.8 0 2.6.7 1.5 1.3-.6.3-1 .3-2.4 0zm14.3-.4-1.4-.3c-.9-.1-1-.2-1-.8v-.6h3.4a40 40 0 0 0 11.8-1.7c2.4-.7 3-.8 3.3-.6.7.8-1.5 2-5.5 3a37 37 0 0 1-10.6 1zm-34-1.1c-.8-1.1-1.3-2-2-4.5-.5-2.1-.6-3-.5-4.5.3-2.8.6-3.8 1.4-3.8 1 0 1.2.4 1.2 4 0 2.4.1 3.6.5 5 .7 2.3.8 4 .3 4.2-.3 0-.6-.2-.8-.4zm6.7-7c-.8-.5-1-1.3-.4-1.7.5-.4 3.7 0 4.2.4.6.4.5 1 0 1.3a6 6 0 0 1-3.8 0zm-17.7-1.9c-1.6-.7-2.3-1.5-1.9-2.3.2-.3.6-.5 1-.5.6 0 4 1.8 4.3 2.4.7 1-1.1 1.3-3.4.4zm8.8-6.9c-.8-.3-1-1-.6-1.8.3-.6.8-.6 2 0 1 .7 1.3 1.2.7 1.7-.4.5-1.3.5-2.1.1zm-.3-3.6c-.1 0-.4-.5-.5-.9-.1-.7-.7-1-2-1-1 0-2.8-.7-3-1.3-.2-.6.1-1.3.6-1.4.3 0 1.4.2 2.6.6 1.3.3 2.4.5 3 .4.5 0 1 0 1.4.4l.6.5-.7 1.5c-.7 1.4-1.2 1.7-2 1.2zm15.5-.2c-4.7-.5-8.4-1.4-8.9-2.1-1-1.5.6-2.1 3-1.3 3.1 1 9 1.5 13.5 1.3 4.4-.3 6.4-.3 6.6 0 .3.3-.1 1-.9 1.4-2 .8-8.5 1.2-13.3.7zm-13.9-5.8v-.6c.3-.4 1 0 1 .5 0 .6-.8.7-1 .1zM461 243.3c.4-.2.5-.4.3-.5-.3-.3-1.5 0-1.9.5-.2.3-.2.4.3.4.4 0 1-.2 1.3-.4zm-197-.5.8-.5c.3-.5.2-2.8 0-3-.4-.2-1.3 1.9-1.6 3.1-.2.8 0 .9.8.4zm209.5-.5c.5-.3 1.9-1.5 3-2.6 2.6-2.3 3.4-3 6.4-5.2 2.5-1.9 2.8-2.3 3.2-3.5.5-1.3.4-1.8-.3-2-.5-.1-.5-.2.4-.8 1.3-.9 1.5-1.2 1.7-3.6.2-2.3 0-3.2-1-3-.5 0-.7.3-.9 1.2a10 10 0 0 1-.6 1.8 109 109 0 0 1-8.5 8.7c0 .4-6.6 6.1-7.4 6.5-.3 0-.2.1.3.2.4 0 .8-.1.9-.3l.6-.3c.3 0 1-.3 1.5-.7l2.1-1.6 2.3-1.8a16.1 16.1 0 0 1 4.2-3.3l.3-.2c.5 0-2.5 3-3.6 3.6-.6.2-1.6 1.1-2.4 1.9-.7.8-2.3 2.2-3.6 3.1-1.6 1.2-2.3 2-2.3 2.3 0 .5 0 .5 1.4.3.7 0 1.8-.4 2.3-.7zm9-11.3c0-.2 0-.3.2-.3s.3.1.2.3l-.3.2-.1-.2zm-258.8 11.4c.8 0 1.4-.3 1.5-.5.2-.5-1.4-3.4-4.2-7.5-.9-1.3-2-4.6-4.4-11.8a95.7 95.7 0 0 0-2.4-7c-.8-1.8-.5-12.1.6-14.6.5-1.1.5-1.5.2-2.8-1-5.2-2-9.3-3-12-.6-1.5-2.1-3.3-3-3.5-1.5-.4-4.9 2.6-6 5.3-2.6 6.2-2.7 12.2-.3 21.7l.9 3.6c.2 1.4 1 3.5 2.1 6.2l1.2 2.8a34 34 0 0 0 6 10.2c1.2 1.3 3 4 4 6.4.4.7 1.1 1.8 1.8 2.6l1.1 1.4 1.2-.1 2.7-.4zm244-1.2c.2-.4.2-.4-.2-.4-.2 0-.4.1-.4.4l.1.4.4-.4zm-88.4-4.3c.6-1.2 1-2.6 1-3 0-1.2.3-1.6 1-1.6.6 0 .8.2 1.1.9.2.5.3 1.2.3 1.7 0 .8 1.4 3 2.2 3.5.9.5 1 0 1-2.2l-.2-2.2-1.4-1.2c-1.4-1.2-1.7-2.2-.8-2.5.6-.2 2.9.9 3.4 1.6.2.2.7.4 1 .4.4 0 .7.2.8.6l.2 1.1.1-1.8c0-2.5.1-2.4-2.4-4.4-1.4-1-4.2-2.1-5.4-2.1-.4 0-2-.6-3.4-1.3l-3-1.4a7 7 0 0 1-1.4-.7c-1.3-.8-1.4-.8-4.7-.8h-3.5l-1.5 1c-2.7 1.9-3.4 3.4-1.2 2.7 1.5-.5 4.3-.5 5.3 0 1.7 1 3.5 2.7 4.2 4 .2.6.8 1.5 1.3 2.1a8.3 8.3 0 0 1 1.9 3.6c.3 2 1 3.5 1.5 3.9 1.1.8 1.5.5 2.6-1.9zm137.8.6c.3-.4.2-.4-.6-.4-.7 0-1 0-1 .4 0 .2.3.4.7.4.3 0 .7-.2 1-.4zm-228.7-1.3-.1.3c0 .4 0 .6.1.4v-.7zm232.1-2c.5 0 .5-.2.3-.5s-1.2-.3-4.4-.3c-3.7 0-4 0-2.3.3 1 0 2.5.3 3.4.4 2.2.3 2.3.3 3 .2zm-70.6-6.6a35 35 0 0 1 3.5-1.4c.3 0 2.2-.8 2.3-1l3-1.7a36.4 36.4 0 0 0 4.7-3c.5-.5 1.2-1 1.5-1.1.7-.4 2-2.6 2.5-4.2.3-1 .3-1.3 0-1.8s-.2-.7.4-1.6c.8-1.2.8-1.6.1-1.9-.8-.2-1.5.1-2 1.1-.2.5-1.2 2-2.3 3.3a12.6 12.6 0 0 1-3.7 3.5c-1 .6-1.8 1.3-2 1.6 0 .2-.5.7-1 1l-1.7 1.5a40.8 40.8 0 0 1-7.7 5c-.8.2-3 2.2-2.7 2.5.1.3 1.2 0 5-1.8zm63 1c2.3 0 2.4 0 2.7-.7.2-.3.2-.7.1-.8-.2-.2-10.5-.5-11.4-.3-.7.2-.7 1 0 1l1.6.5c.8.5 1.4.5 2.9.4l4.2-.1zm7-.8c.1-.2-2.5-.6-2.8-.3-.5.2.4.6 1.5.6.6 0 1.2-.1 1.3-.3zm5.6-.2h-.5c-.2.1-.1.2.2.2.3 0 .4 0 .3-.2zm-26.7-2.3c-.2-.3-.4-.3-.6-.1-.3.2-.3.4 0 .7.1.2.3.3.6 0 .3-.2.3-.4 0-.6zm-111.6-2.4c.6-.2 1.7-.4 2.4-.4 1.2 0 1.4 0 2-1 .4-.6.8-1.7 1-2.4a47 47 0 0 1 2.6-7c.6-1.4 1-4.4.5-4.4l-.7.6c-.5.7-5.2 5-6.1 5.4-1 .5-1.2.4-1.2-.3 0-.6.4-1 2-1.9 2.1-1.4 4.7-3.9 4.7-4.6 0-1-2-1.5-3-.7l-1.3.8a9 9 0 0 0-1.6 1c-.9.7-1.8.5-1.8-.4 0-.5.3-.9 1-1.3.5-.4 1-.7 1.2-.7l2.2-1c2.2-1 3.3-2.2 2.8-3-.5-.7-.4-1.5.2-2.4.7-.9 1-2.6.6-2.6a7 7 0 0 0-1.8 1.4c-.7.8-2.3 2-3.4 2.7-1.8 1-2.1 1.2-3.3 1.1-1 0-1.2-.1-1.2-.6 0-.4.2-.5.8-.6 2-.2 6.5-2.7 8.4-4.6 1-1.2 3.5-5.4 4.4-7.7a81.2 81.2 0 0 1 2.1-5.2l.7-1.8.8-3a91.2 91.2 0 0 0 .6-11.6c.2-2 .3-2.5 1-3.2.7-1 .9-2.6.2-3.8-.2-.6-.3-1 0-1.5v-1.4c0-.3 0-.8.3-1 .2-.4.3-1 .2-1.5l-.5-4.4c-.6-5.1-.7-6-1.4-6.4-.6-.4-.6-.5-.2-1 .6-.9.5-1.8-.2-4.4-.4-1.2-.7-2.7-.8-3.3-.1-.6-.5-1.5-.9-2-.3-.6-.7-1.6-.8-2.3l-1-3.1a11 11 0 0 1-.6-3.2c0-1.4 0-1.5-1.7-3-.9-.9-1.7-1.6-1.9-1.6a3 3 0 0 1-.9-.5c-.4-.3-1.4-.7-2.3-1-1.6-.4-1.7-.4-3 0-.8.3-1.7.7-2 1l-.7.5c-.4 0-4 2.3-5 3.3-.7.6-2 1.5-3 2-3.2 1.5-3.7 2-6.6 6.9-1.8 3.1-2 3.6-3.1 9.2l-1.5 6.5a79 79 0 0 0-1.9 19.4c.3 1.7.7 5.7 1 9l.4 5.8-.7 1c-1.3 2-1.2 5.3.5 10.7l.5 2.3a49.7 49.7 0 0 1 1 11.5c.1 5.6.2 7 .5 7.3l.6 1c.2.8.7 1 2.3 1.3 1.4.2 3.4 1.1 4.5 2.2.3.3.8.6 1 .6l1.3 1c.8 1 1.3 1.2 2.8 1.5l3 .8c1.3.5 2.7.5 4 0zm-2.8-26c.1-.2.3-.3.4-.3.2 0 .9-.4 1.6-1l1.5-.9.9-.5 1-.5c.7 0-2 2.2-3.6 3-1 .5-2 .6-1.8.2zm-.5-6.1c0-.1.2-.4.6-.6a69 69 0 0 0 3.1-1.3c.3 0 .8-.2 1.1-.5.4-.3 1-.5 1.4-.5.7 0 .7 0 .1.2l-.8.6c-.2.4-2.5 1.5-3 1.5l-1 .4c-.8.5-1.3.5-1.5.2zm-8-8.3c-.4-.3-.6-.7-.5-1 0-.6.2-.7 1.8-.6 2.5 0 3.5 1 1.8 1.8-1 .5-2.2.5-3-.2zm8.4-.6c0-.2.2-.4.6-.4.7 0 3.6-1 5.4-2a31 31 0 0 0 6.7-5.9l.6-1.1c.6-1 1.7-4 2.3-6.5.5-2 .2-2.2-1.8-1.5a30 30 0 0 1-10.7 1.5c-.8-.5 0-.8 2.2-1.1a106 106 0 0 0 9.5-1.7c1.4-.4 1.6-.8 1.8-4 .1-3 0-3.4-1.3-2.9a58 58 0 0 1-12.7 3.6c-1.2.2-1.6.1-2-.3-1-.7-.5-1.1 1.2-1.1 2.4 0 12.4-2.6 14-3.6.7-.5.8-1.2.3-3.7a27 27 0 0 0-1.5-5.5c-.1 0-1 .1-2 .5-3.3 1.2-4 1.4-8.5 2-4.7.6-7.2.6-8 0-.6-.6 0-.8 2.3-.8s9.4-1 11.5-1.7c1.9-.5 3.9-1.5 3.9-1.8a4 4 0 0 0-.6-2.4c-.6-1-.5-1.5.3-1.5.5 0 1 .5 1.7 1.8.2.4.8 1 1.2 1.3.6.4.7.5.5 1-.2.3-.2.7.1 1.4a31.6 31.6 0 0 1 1.5 15.4c-.1 2-.4 3.4-1 4.6l-1.1 3.7c-.5 2.3-1 3-2.5 4.5l-2 2.3c-1 1.2-2.6 2.4-5.5 4.2-2.7 1.7-6.4 2.7-6.4 1.7zm13.5-.5.4-.7c.3-.2.4-.2.4 0l-.4.7c-.3.4-.4.4-.4 0zm1-2.2c0-.3.2-.3.2-.1v.5l-.1-.4zm-15.8 0-5-.2c-6.6-.1-8.4-.5-8.2-1.8 0-.5.2-.6 2-.6 3 0 9.4.6 11.8 1 2 .3 2.9.8 2.4 1.2a7 7 0 0 1-3 .5zm-5.6-2.7c0-.2-.3-.3-.8-.3-.4 0-.8 0-.8-.2 0-.1-.3-.3-.7-.4-1.7-.3-4.4-3.3-4.7-5.1-.3-1.4 0-2 1-2 .7 0 1.1.4 2.3 1.8 1.6 1.9 3.4 3.2 5.7 4 1.8.5 2.5 1.2 2 1.9-.1.3-.7.4-2 .5-1.3 0-2 0-2-.2zm-7.7-10.5c-.5-1 .2-5.1 1.4-8.3a56.5 56.5 0 0 1 5.3-10.8c0-.5 1.5-1.7 2-1.6.8.2.7.6-.6 2.5a61.5 61.5 0 0 0-5.6 11.8c-.4 1-.7 2.3-.8 3.9 0 1.5-.3 2.4-.5 2.7-.6.6-.8.6-1.2-.2zm5.8-1c-.3-.4-.5-1.1-.4-2.7 0-1.7.1-2.4.7-3.5 1-2.2 2.4-2 1.6.2-.2.5-.3 2.2-.3 3.7 0 2.6-.1 2.8-.6 2.9-.4 0-.8-.2-1-.5zm-7.9-9.1.3-1c.2-.4.4-2 .5-3.4.3-3 1-5 3.4-9.8 1.5-3 2.6-4.5 3-4.2.1 0 0 .9-.4 1.9-1.1 2.8-1.1 3-.3 2 .4-.4 1-1.3 1.3-2 .6-1.1 1-1.5 1.5-1 .5.3.1 1.4-.8 2.4l-1.5 2.5a9 9 0 0 1-1.3 2l-.4.5-1.4 3.3a47.2 47.2 0 0 0-2.9 6.7c-.2.4-1 .4-1 0zm13.2-1c-.3-.6.3-.8 2.8-1a71.3 71.3 0 0 0 14.6-3.6c.6 0 .6 0 .4.5-.2.3-.8.8-1.3 1-.5.2-1.3.5-1.7.8-1.5.8-8.7 2.4-12.2 2.6-2 .2-2.5.1-2.6-.2zM237 222.3c.5-.2 1-.5 1.3-.5 1.3 0 4.2-2.5 6.2-5.4 2.1-3 2.7-3.7 4.2-5 2-2 1.7-2.7-.8-1.9-1.2.4-2 .5-5.5.3l-8.5-.3-9.9-.3c-5-.3-5.5-.3-6 0-.3.3-.5.7-.5 1 0 .8 1.8 5.8 2.1 6 .3 0 .8.7 1.2 1.5.9 1.5 1.2 1.6 4.5 2.3 3.2.6 4.3.9 4.5 1 .1.2.7.3 1.2.3s1.1.1 1.3.3c.2.2 2.5 1 3.7 1.2l1-.5zm289.1.2c.5-.2.6-1.6.1-2-.5-.3-2.7-.6-3.4-.3-.4.2-.8.1-1.3-.1-.8-.4-3.4-.7-4.3-.5-.9.2-1 1.1-.2 1.8.7.6 4 1 4.6.5.3-.3.6-.2 1.4.2 1 .5 2.3.7 3.1.4zm7.1-.3v-.6c-.3-.6-2.7-1.2-4.1-1-1 0-1.1.1-1.2.6-.2 1.4 0 1.5 2.7 1.3l2.6-.3zm-114.8-2.4c2.1-1.3 2.5-1.5 2-1.8-.2-.2-3.4.5-5.4 1.1l-2.8.9c-1.4.3-2.1 1-1.5 1.2.6.2 4 .2 4.8 0 .4 0 1.7-.7 2.9-1.4zm88.9 1.3c4.3-.1 4.7-.2 4.7-.6 0-.7-.5-.8-4.3-1-2 0-4.2-.3-5-.5-2-.5-2.4-.5-3.4 0-.7.4-.9.4-1.4 0l-1.7-.4c-1.4-.1-1.4.5 0 1.5.8.6 1.5.9 3.2 1.1 1.2.2 2.4.2 2.7.2l5.2-.3zm8.6.1c.5-.4.4-1.4 0-1.6-1.2-.4-3.6.3-3.6 1 0 .8 3 1.3 3.6.6zm-296.7-.7c.1-.1 0-.6-.2-1a2 2 0 0 1-.1-1.4c.3-1.2 0-2.7-1-3.5-1.3-1.1-2.2-1-2.6.6-.2.6 0 1 .7 1.8.8.8 1 1.3 1 2.1s.1 1.2.5 1.4c.5.3 1.5.3 1.7 0zm186-.7c.7-.3 1.7-.6 2.2-.6.5 0 1.4-.1 2-.3l2.4-.4c1.3-.1 1.7-.3 2.2-1 .4-.3 1-.8 1.5-.8a41.1 41.1 0 0 0 7.8-2.6c.4-.4.8-.5 1.4-.4 1 .2 4.3-1 5.5-1.9l1.6-1c1-.6 5-4.6 5-5 0-.8-1.2-.4-4.7 1.7l-2 .8-1.3.6-1.7.7-2.8 1.2a33.5 33.5 0 0 1-7.7 3l-2.1.7c-1 .2-2.2.7-2.9 1.1-.7.4-2 .8-2.9 1-1 0-1.8.4-2.2.8l-1.4.7c-.3 0-.9.1-1.2.3l-2 .8c-2.2.8-2 1.3.3 1.3 1.4 0 2-.1 3-.7zm51.7-.7 1.1-.5c0-.2.5-.7 1-1.2 1.7-1.5 4.3-4.6 4.3-5 0-1-.9-.7-2.2.6-.7.8-1.8 1.7-2.4 2l-2.5 2-2.4 1.6c-1 .5-1.5 1.2-1.2 1.4.2.2 2.6-.3 4.3-.9zm-30.2.3a32.3 32.3 0 0 0 9.2-3.1 63.9 63.9 0 0 0 10.7-6.1c0-.3-.5-.2-3 1-1.2.6-3 1.2-4 1.4a30.4 30.4 0 0 0-11.8 4.7 17 17 0 0 0-3.6 2.6h.6l2-.5zm8.6-.4c2-.7 2.9-1.2 3.7-2.2.8-.8.8-1 0-.6-.7.4-3.8 1.6-4.8 1.8-.7.2-1 .4-1 .9-.1.7.2.7 2 0zm97.6 0c.6-.2.7-1.5.2-2-.3-.1-1.3-.2-2.9-.2l-2.5.1v.9c-.1.7 0 .9.5 1 .7.3 4 .5 4.7.2zm-6.7-.7V217c-.2-.7-.3-.7-1.8-.6-1.2 0-1.7.2-2 .5-.3.7.4 1.3 1.8 1.6 1.6.2 2 .2 2-.4zm-101-.4c1-.7 1-.8 0-.8-.3 0-1 .3-1.4.6l-.8.7h.7c.3 0 1-.3 1.4-.5zm96.8-.4c.2-.8-.7-1.2-2.6-1.2-1.5 0-1.9 0-2.1.5-.2.4-.2.6.2 1 .3.2.8.3 2.4.3 1.7-.1 2-.2 2.1-.6zm-10.4.2c.2-.1.4-.5.4-.9v-.7l-4.6-.3c-6.5-.5-7.5-.4-8.1.2-1 1-.4 1.3 5.3 1.5a1307.5 1307.5 0 0 1 7 .2zm4.5-.4c.4-.7-.3-1.3-1.6-1.3-.9 0-1.2.1-1.4.5-.4.7-.4.8.3 1 .9.5 2.3.3 2.7-.2zm-18.9-.9c.3-.4-.2-.9-1-1-.5 0-.8-.2-.8-.6 0-.5 0-.6 1-.8 1.2-.2 1.5-.8 1.2-2.3l-.2-1-2.1-.1c-4-.4-4.6-.2-4.8 1.3 0 .5-.2.8-.5.9-.4 0-.5-.1-.5-1 0-1.4-.3-1.6-2.3-1.6-1.4 0-1.7 0-1.6.4 0 .5 1.4 1.3 3 2.1.5.2 1.4 1 2 1.8 1.7 2.4 2 2.6 4.4 2.4 1.1-.1 2.1-.3 2.2-.5zm-51.6-2.1c2.3-1.7 2.7-1.8 2.4-.8-.2.5-.2.6.2.7 1.5.3 3.5-1 5.5-4l1.7-2.2 1.2-2c.5-1.2.2-2-.7-2-1 0-3.4 1.7-4.6 3.2-.6.9-1.7 2-2.4 2.5a54.8 54.8 0 0 0-6.2 5.8c0 .5 1 .1 2.9-1.2zm5.4-3.7.7-.4c.2 0 .1.1-.1.4l-.7.4c-.2 0-.2-.2 0-.4zm75 4.1.4-1.3c.2-1.4-.3-2-1.7-1.8-.8 0-1 .2-1.4 1-.8 1.7 0 2.8 2 2.4.3 0 .7-.2.8-.3zm7.3 0c.3-.6.1-2.3-.2-2.6-.2-.2-1.4-.3-2.7-.4-2.6 0-2.8 0-2.8 1.6 0 1.7.3 2 3 2 2 0 2.5-.2 2.7-.5zm-22-.3c.8-.3 1.1-2 .6-2.8-.5-.7-1.5-.8-2.2-.3-.4.2-.7.2-1.4-.2-.6-.3-1.2-.4-2.2-.3-2.2.3-2.5.4-2.7 1-.2.6-.7.7-.7 0 0-.8-.7-1.2-2-1.2-.6 0-1.3.2-1.5.4-.5.4-.6 2.4-.1 2.8.5.6 2.5.4 3.1-.2.5-.5.6-.5.8-.2l.3.5c0 .3 1.5.4 3.7.3 1.4-.1 2.3 0 2.7.1.7.4.8.4 1.6.1zm4.9-.6c.3-.6.3-1 .1-1.7-.2-1-.3-1-1.2-1-1.4-.2-1.8.2-1.8 1.7s.4 2 1.6 1.8c.7 0 1-.2 1.3-.8zm5.8-.6c0-1.6-.1-1.8-2.1-2-1.4-.2-1.6-.1-2 .4-.6.5-.8 2.5-.4 3h4.4zm-111.3-1c.8-.3 2.6-.5 4-.6 2.9 0 5.5-.7 8.8-2.2l3.7-1.6c2.7-1 2.6-1 3.1-2.2.4-.8.6-1 1.3-1 1.2 0 3.3-.6 4.6-1.3a48.2 48.2 0 0 0 14.2-12.5c.6-.6.6-1.2.1-1.4-.6-.2-4.4 1.8-5.7 3.1-2.7 2.6-5.6 4-5.6 2.7 0-.6-.7-.7-1.2-.3l-1.8.9c-2.3.8-3.3 1.4-5.7 3.5a294 294 0 0 1-7.7 6.6c-2 2-2.7 1.6-.7-.3.9-.8 1.5-1.6 1.4-1.7 0-.2-1 0-2.3.6-7.3 3.2-9.4 4-13.7 4.9-1.4.3-2.8.8-3.2 1l-1.4.9c-1 .4-.9 1 .2 1 2.2.4 6.2.2 7.6-.2zm-144.4-1 2.2-.7c1-.1 2-.5 2.3-.8.3-.3 1.3-1 2.2-1.4l1.7-.9-.2-1.6a70 70 0 0 0-1-6.8c-.1-.7-.5-1.4-1.3-2.2-1-1.2-1-1.2-2.9-1.2-1.7 0-1.9 0-2.6.9l-.9 1.3c-.2.6-1.3 1-2.7 1-.7 0-1.4.2-1.9.5l-1.3.7c-.3 0-1.2.7-1.9 1.3l-2 1.5c-.5.4-2.8 4.6-2.8 5.2 0 .4 2.1 1.7 2.7 1.7.8 0 2-1 2.3-1.9l.6-1.6c.2-.6.6-.9 1.5-1.2.7-.3 1.6-1 2.2-1.5 2-2.1 3.4-2.3 4.9-.7a8 8 0 0 1 1 1.2c0 .2-1.3 1.2-2.4 1.7-1.1.6-1.2.6-1 1.5l.1 2.6c0 1.8.2 2 1.2 1.4zm171-2c1.9-.8 3.8-2.3 6.2-4.7 2.7-2.6 2.7-3 .2-2.1a12 12 0 0 0-5.4 3.4l-2.9 2.7c-2 1.8-1.1 2.1 1.9.8zm47.2-.3c.3-1.2.8-7 1-10.4 0-3 0-3.3-2.3-3.5-2.2-.3-2.4 0-2.4 2.3a35.5 35.5 0 0 1-1.2 8.6c-.2.4.1.9 1.5 2.3 1.4 1.5 1.8 1.7 2.4 1.7.7-.1.9-.3 1-1zm37.5.7c.4-.4.4-2.5 0-2.8-.5-.4-3.6-.5-4-.1-.1.1-.3.9-.3 1.6v1.2l1.3.2c2.2.2 2.7.2 3-.1zm4.4-.3c.1-.4.2-1 .1-1.5v-1h-3v1c-.1 1.9 0 2.1 1.5 2.1 1.1 0 1.3 0 1.4-.6zM512 209c.8-.9.2-2.6-1-2.6-.8 0-1.2.5-1.2 1.6 0 .8.1 1 .6 1.3.9.3 1 .3 1.6-.3zm4.6.1c.3-.5 0-2.2-.5-2.5-.6-.4-1.5-.2-2 .3-.7.7-.7 2-.1 2.4.7.4 2.4.3 2.6-.2zm-13.8-.2c.3-.2.4-.6.4-1.3-.1-1-.1-1-1.5-1.3-2-.3-2.2-.1-2.2 1.3 0 1 .1 1.2.6 1.4.9.4 2.1.3 2.7 0zm6 0 .2-1.3c0-.8 0-1-.7-1.2-1-.4-3.4-.4-3.7 0-.5.7-.7 2-.3 2.5.4.5 4 .6 4.4 0zm-11.1 0c.4-.1.5-.4.5-1.3 0-1.2 0-1.2-1-1.5l-2.4-.4c-1.4-.2-2.2-.7-1.6-1 .1-.1 1.2 0 2.5.1 1.2.2 2.3.3 2.4.2.3-.4.5-3 .5-6v-3H496v1c-.2 1-.2 1.2-.6.9-.2-.2-.3-.6-.3-1l-.4-.8c-.4-.3-2.1-.6-2.5-.3-.2 0-.4 1.3-.5 3.3 0 1.8-.3 4.4-.5 6-.4 3-.4 3.6.6 3.7 1.6.2 5.2.2 5.7 0zm-8.1-.5c.5-.4.8-3 1-9.9l.2-3.2H489c-1.2 0-2 0-2.1.3-.5.5-.7 2.8-.7 5.7 0 2.1 0 2.9-.3 3.4-.3.4-.4 1-.4 2 .1 1.2.2 1.4.8 1.7.8.5 2.7.4 3.3 0zm-80-1.4 2.5-.9 2.5-.8 1.7-.5 1.8-.8c3.8-1.5 11.8-6 11.8-6.7l-.4-.8c-.3-.6-.3-.7 0-1 .3-.3 1.2-.6 2-.8 1.1-.2 1.5-.5 3-2.1 2-2.4 4.1-5.5 4-6-.2-.3-1.4 0-3.8 1.1-1.6.8-3.4 1.2-5.1 1.2-1 0-1.8 0-1.8-.2l1.2-1.4c1.2-1.2 2.2-2.6 1.8-2.6l-1.8.5c-1.3.5-2 .9-3.5 2.5-2.2 2.3-4.6 4.2-5.3 4-.3 0 .2-.4 1.5-1.4 3.1-2.4 3.8-3.7 1.8-3.5-.3 0-.5-.1-.4-.3.1-.4 2.2-1.3 3-1.3.3 0 1-.4 1.4-.8.8-.8.8-1 .7-2.1l-.2-1.3 1-.2c1.5-.2 1.9-.7 4.6-5.4l.9-1 .4-1c0-.4.2-.9.4-1.2.3-.4.2-.6-.4-1l-1-.8c-.4-.4-.5-.4-1.5.5a4 4 0 0 1-1.2.8s-.3.2-.4.5c-.2.7-1.5 2.2-2 2.2-.2 0-.5.2-.7.5-.2.3-.6.5-.8.5-.2 0 .7-1 2-2.2 1.2-1.3 2.2-2.4 2.2-2.6l1.7-2c1-.9 1.7-1.8 1.7-2 0-.3 1-2.3 1.5-2.8l1.6-3 2-3.3c1-1 1-2 0-2-1.2-.1-1.4-.2-1.4-.6 0-.2.7-1.4 1.6-2.7 1.7-2.5 1.7-3 1.4-7.7-.2-3.1-.7-3-2.1.2a32 32 0 0 1-7 10l-1.5 1.5c-1.1 1.3-1.6 1.8-2 1.8-.4 0-.4-.1 0-.8.2-.5.7-1 1-1.1.4-.2 1-.7 1.2-1.2l2.3-2.8c2-2.3 3.8-4.9 4.9-7.2l1.3-2.4c.7-1.1 1-2 1-2.5 0-1-.5-.8-1.4.7L437 144c-.8 1-1.7 2.2-2.6 2.8-2.8 2-3 1.1-.7-2.6a100.2 100.2 0 0 0 4.6-8l1.2-2.3c.2-.7-1.3-4.3-1.8-4.3-.3 0-.3-.1-.2-.7.1-.6 0-.8-.2-1-.5-.1-.5-.2-2 3-1.3 2.5-1.4 3.2-.7 2.9.2-.1.4-.1.4 0l-1.5 2.4-.7.8-.9-.6c-.5-.4-.9-.9-.9-1l.7-1.9 1.2-3.4c.2-1 .8-3 1.3-4.2 1-2.5 1-3 .3-4.1-1-2-3.5-5.1-3.9-5.1-.2 0-1.7 1.5-2.6 2.7-1.2 1.5-1.5 1.5-.5-.1l1.3-2.2c.8-1.5 1.7-2.5 2.6-2.7.6-.1.7 0 .7.5 0 .3.3 1 .8 1.4.4.4.8.8.8 1 0 .2 1 1.8 1.4 2 .5.5 1-.6 1-2.3 0-2.2-.5-4-1.2-4.4-.5-.4-.6-.4-1.4.1-.8.5-.9.5-.9 0l.3-1.2c.3-.9.3-1-.6-1.8-1.2-1.3-3-2.4-5-3.2l-1.8-.7c-.6 0-4.4 4.4-5.4 6.2-.6 1.1-.6 1.2.2 1.5.4.1.8.4.8.7.3.5-1.1 3.2-2.3 4.4-.5.5-1 1.1-1 1.3 0 .2-.4.8-1 1.3-1 1.2-1 1.6.3 1.6h1c.4 0-1 1-1.3 1-.3 0-3.4 1.6-4.3 2.2-.4.2-1.4.7-2.4 1-2 .7-3.5 1.6-4 2.4-.2.5-.2.6.6.4l2-.6a63.8 63.8 0 0 1 5-1.7c1.6-.6 2.5-.3 2.5.8 0 .8-.1.9-1.7 1.6l-1.9.8-1.2.7c-.5.3-1.2.6-1.6.6l-3 .8c-2.3.7-2.4.7-2.3 1.5 0 1 .5 3.3.8 4.1.4 1 1.7 1 3.3 0 3-2.2 3.8-2.9 5-4 .6-.5 1.2-1 1.4-1 .2 0 .6.5.8 1.3a4 4 0 0 1-.5 4 4 4 0 0 0-.7 1.2l-.7 1.3c-.6.9-1 1.4-1.6 2.8 0 .1.1.2.3.2.2 0 .6-.4.8-.8.3-.4.6-.8.8-.8.6 0 1.2.9 1.2 1.9 0 1.3-.9 3.7-1.6 4.3-.3.3-.5.8-.5 1.3 0 .6-.2 1.1-.8 1.6l-.7.9c.1.1 3.4-.7 4-1l1.7-1.6c.8-1 1.3-1.3 1.9-1.3 1 0 3-1.5 6.2-4.7l1.4-1.1c.3 0 1.4-1.2 1.4-1.5l.8-1.1c.8-.9 1.4-1 1.1-.1-.2.5-1.4 1.9-1.7 1.9-.1 0-.9.7-1.6 1.5a35 35 0 0 1-5.6 5.3 9 9 0 0 0-1.9 2.3c-.5 1-2 2.6-3.2 3.9a67.6 67.6 0 0 0-8 8.3c-.6.5-1.4 1.6-1.8 2.3-.6 1.4-.8 3.2-.4 3.5a49.3 49.3 0 0 0 14.9-8.6c.5 0 1.3.8 1.3 1.2 0 .7.5.4 2.4-1.1 1-.9 2.2-1.8 2.7-2l.8-.6-.4.9c-.3.4-1.5 1.7-2.8 2.8a35.1 35.1 0 0 0-5.3 5.3 22.5 22.5 0 0 0-3.2 4c0 .6 1.1.3 3.5-.8l3.6-1.7c.6-.2 1.6-.8 2-1.2l2-1 1.8-1c.5-.5 1.2-.8 1.6-.8 1 0 1 .5.2 1-.4.2-1.7 1.5-3 2.8-2.2 2.1-2.5 2.3-2.5 1.6 0-.9-.3-.8-1.5.1a26.2 26.2 0 0 1-4.5 3.2l-1 .8c-.4.4-.8.8-1 .8l-1.5.8c-.8.5-2 1-2.9 1.3l-2.4 1c-.5.3-1.3.6-1.9.7-1.5.3-1.2 1.2.7 2 .6.2 1 .1 3-.8 1.1-.5 3-1.6 4-2.3l3-1.7c.5-.2 1.7-1.2 2.6-2.1 2.6-2.4 2.7-2.5 2.7-1.8 0 .2 0 .6.2.6.5.3.3 1.2-.4 2-.8.9-2 1.7-3.8 2.8-2.4 1.5-4.5 3.8-4.5 5 0 .4-1.3 1.5-3.1 2.7-.7.3-1.1.7-1 .8.1.2 2.2-.5 3.6-1.2 1.2-.6 2.3-.7 2.3-.2 0 .2 0 .7-.2 1.1-.4 1 0 1.2 1.4 1 .8-.2 1.3-.2 1.6 0 .8.6-.2 1-3.1 1.3l-3.3.4c-.4 0-2 1-3.5 2-3.1 2.2-3 2.4.6 1.6 3.4-.7 4.2-.7 4.1-.3-.1.4-3.7 1.8-4.7 1.8a4 4 0 0 0-1.3.4c-.7.3-.8.6-.8 1.3 0 .8-.1 1-1 1.3-.7.3-1.1.6-1.1.9 0 .3.2.4 1.7.2 1 0 2.5-.4 3.4-.7l2.2-.5 2.3-.4c2-.5 2.5-.3 1.5.4a15 15 0 0 1-4.8 1.6c-.3 0-.8.1-1 .3l-2 .5c-3.6.6-4.9 1.3-4.3 2.3.4.6 7.7.7 9.6 0 2.6-.8 5-2.2 10.9-6.6l2-1.3c.8 0-.3 1.6-1.6 2.5a47.9 47.9 0 0 1-16 9.5c-.8.1-1.5.5-1.6.8-.2.3-.6.5-1 .5-.8 0-3 .6-3 .8 0 .3 1.4.5 2 .3l2-.5zm10.8-12.8c0-.8 3.9-3.7 5-3.7.6 0 .6 0-.1.8-.9 1-4.2 3.2-4.6 3.2-.2 0-.3-.1-.3-.3zm-3.7-1.2c0-.4 1.8-1 2.6-.9.3.1.3.2-.2.6-.4.2-1 .5-1.6.6-.6.1-.8 0-.8-.3zm10.2-3.6.3-.2v.2c0 .2 0 .3-.2.3s-.2-.1-.1-.3zm-2.4-12c.3-.4.8-.7 1-.7 0 0 0 .3-.5.7-.3.4-.7.7-1 .7l.5-.7zm9-13.3h.6c0 .1 0 .2-.4.2-.3 0-.3 0-.1-.2zm-15-33.7c0-.4 1.9-2.3 2.3-2.3.2 0 .4-.3.5-.6 0-.3.3-.5.5-.5.6 0 .3.5-1.6 2.2-1 .9-1.7 1.4-1.7 1.2zm6.9-7.8c.5-1 1-1.5 1.2-1.4.2.2-.8 1.8-1.2 1.8-.2 0-.2-.1 0-.4zm-5.9-.8h.6c0 .1-.1.2-.4.2-.3 0-.4-.1-.2-.2zm59.7 83.5c.2-.7 1.2-12.8 1.3-16 .1-2.4 0-2.6-2.6-2.6h-2l-.3.9-.4 7.2a84 84 0 0 1-.6 7.5c-.3 1.6-.1 2 1.8 2.7 1.7.6 2.7.7 2.8.3zm-82.9-.4c.4-.4.7-4.3.4-4.3-.2 0-.5.3-.7.7l-1 1.5c-.7.9-.7 1.5 0 2 .8.6 1 .6 1.3.1zm115.8-1.6c0-1.8 0-1.8-.7-1.9-.9-.1-1.2.3-1.4 1.8-.1 1.5.3 2.2 1.4 2 .6 0 .7 0 .7-1.9zm4.4 1.6c.3-.3.5-.9.5-1.9 0-1.3-.1-1.4-.7-1.7-1.7-.6-2.8.2-2.8 2 0 1.4.5 2 1.7 2 .5 0 1.1-.2 1.3-.4zm5.8-.3c.3-.3.5-.8.5-1.6 0-1-.1-1.2-.7-1.4-.9-.3-3.5-.3-3.7 0l-.4 1.5c-.3 1.9 0 2.2 2.2 2a5 5 0 0 0 2.1-.5zm4 .4c.4-.4.8-2.3.6-3-.2-.3-.6-.4-1.4-.4-1.3 0-2 .7-2 2.2 0 .8.2 1 .7 1.2.8.4 1.6.4 2 0zm-77.7-1.4c.4-.1.9 0 1.4.3.9.5 1 .4 2.8-1.2 2-1.9 2.8-4 1.6-5-.7-.6-5 1.8-6.1 3.4l-.7.8c-.2 0-2 2.5-2 2.8 0 .2.5 0 1.2-.3l1.8-.8zm54.6 1a7 7 0 0 0 .3-3.8c-.2-.6-.2-1.2.1-2.1.3-.7.4-1.6.3-2-.1-.5-.4-.6-1.7-.7h-1.8c-.4.4-.8 7.4-.5 8.6.2.7 3 .7 3.3 0zm5.5.1c.4-.3.4-2.9 0-3.3-.4-.4-3.2-.4-3.6 0a8 8 0 0 0-.5 3.3c.2.3 3.7.3 4 0zm-48.7-4c.8-1.2 1-2 .5-2.2-.5-.2-1.1.3-1.6 1.3-.8 1.4.2 2.1 1.1.8zm13.3.6c.2-.4.6-11.4.5-12.8-.1-1.9-.2-2-1.6-2.4-1.2-.2-1-1.2.4-1.6.6-.1 1.1-.4 1.2-.6a252.6 252.6 0 0 0 .3-31.5c-.5-.3-3.4-.3-4 0-.2.1-.2.8-.2 2.5 0 3-.2 13.3-.6 19.5-.3 6.5-.3 10.8.2 13.6.2 1.3.4 3.6.4 5.1 0 2.2 0 3 .5 4.1.6 1.5 1.5 3.3 2 3.8.1.3.8.5 1 .3zm-281-1.5c0-.4-1.4-1.6-1.9-1.6s-.7 1-.1 1.5c.3.3 2 .5 2 .1zm-6.4-.5c.1-.3-1.8-1.7-2.3-1.7-.2 0-.3.4-.2.9 0 .7.2.9.8 1 1.1.3 1.6.2 1.7-.2zm331-.1c.4-.8.5-2.5 0-2.7H515l-1.4.2-.1 1.2c-.1 1.4.2 1.9 1.7 1.9.8 0 1.2-.2 1.5-.6zm5.5.3c.5-.2.6-.4.6-1.2 0-1.3-.5-1.7-2.3-1.7-1.8 0-2.2.3-2.2 1.8 0 .7.2.9 1 1 1 .4 2 .4 2.9.1zm4.7-.2c.5-.4.4-1.5-.1-2.1-.5-.5-2.8-.5-3 0-.3.8-.2 1.9.2 2.2.4.5 2.4.4 3 0zm-352.6-.4c.6-.7.6-.8.5-2.6l-.2-2-1.8-1.6-1.9-1.7c-.3 0-.4 1.5-.3 4.8.1 3 .2 3.2.7 3.4 1 .5 2.2.3 3-.3zm3.7.3c.3-.5-.2-1.6-1-2-1.4-1-1.8-.8-1.8.6 0 .8.1 1.2.4 1.4.7.4 2.2.4 2.4 0zm3.8 0c.3-.2.3-.4 0-1.9a9 9 0 0 0-2.5-4.7c-1.8-2-1.8-2-1.3-2.4.2-.1.4-.2.4 0 0 0 .6.6 1.3 1 .7.6 1.5 1.3 1.7 1.7.4.6 1.2 1.8 2.8 3.6.3.3 1 .7 1.5.9.7.2 1.2.5 1.5 1.1.9 1.4 1.4 1.1 1.3-.6 0-2-.8-3.2-2.1-3.8a9.6 9.6 0 0 1-2.7-2.3c-1-1-2.1-2-2.6-2.3-.6-.3-1.2-.9-1.5-1.4-.8-1.5-3.5-4-4-3.8-.5.1-.5.5-.3 3.8.2 4.2.3 4.7 1.5 6.1a24 24 0 0 1 1.8 2.5c.9 1.4 2.2 2.8 2.6 2.8l.6-.3zm327 0c.4-.5 0-2.4-.5-2.8-.6-.5-2.5-.4-3 0-.4.4-.4.8-.3 1.6.1.6.3 1.2.5 1.3.5.3 3 .2 3.3-.2zm3.2 0c.4-.6.1-2.5-.5-2.8-.2-.2-.6-.2-.9-.1-.4 0-.5.3-.5 1.5l.2 1.5c.3.3 1.4.2 1.7-.2zm-62.7-1.2a9 9 0 0 1 1.6-.9c1.2-.5 3-1.8 3.3-2.3.2-.6-.1-3.8-.4-3.8a204.2 204.2 0 0 1-5 5.1l-2.6 2.7 1.2-.2c.7-.1 1.5-.4 1.9-.6zm54.3-3.7c.3-.4.5-1.3.6-3.4.2-3 .2-3-.4-3.4-.8-.5-2.7-.6-3.1-.1-.2.2-.3.7-.3 1.1a4 4 0 0 1-.4 1.5c-.3.5-.3.8-.1 1 .1 0 .2.8.1 1.7v1.6l1.3.2 1.6.2.7-.4zm5.2 0c.4-.4.4-6.2 0-6.6-.4-.3-2.3-.3-2.7.1-.2.2-.5 1.4-.6 2.8-.5 3.4-.5 3.6.2 3.9 1 .3 2.8.3 3.1-.2zm3 0 .3-3.2c.2-2.8.2-3-.3-3.2-.8-.5-1.4-.1-1.4.8l-.2 3.1c-.2 1.5-.2 2.4 0 2.6.4.4 1.4.4 1.6 0zm-16.5-2c.7-3.9.3-5.2-1.6-5.2-1.2 0-1.2 0-1.4 3.8l-.2 3 .6.1 1.4.1c.8 0 .8-.1 1.2-1.7zm3.5.8c.1-.5.3-1.9.3-3 .1-1.8 0-2.3-.3-2.7-.6-.6-1.7-.3-2.1.6-.4.8-.7 5.2-.5 5.9.1.2.5.3 1.3.3 1-.1 1.1-.2 1.3-1zm-8.3.3c.4-.7.5-5.7.2-6-.6-.6-2.7-.5-3.3 0-.4.5-.5.8-.5 2.4 0 1-.2 2-.3 2.2-.8.8.8 2 2.7 2 .7 0 1-.2 1.2-.6zm-4.8-.7c.2-.4.3-1.6.4-2.7 0-2.6-.4-3.2-2.1-3.2-2 0-2.1.1-2.6 4.3-.2 2 0 2.3 2.3 2.3 1.7 0 1.8 0 2-.7zm-213.3-.9c-.2-3.4-.5-5.8-.7-5.6-.4.2-.7 1.3-1 3.7-.3 2.5-.1 3 1 3 .6-.1.7-.3.7-1zm185.1.6c1-2 1.7-4 2-6.1.4-2.8.5-5 .2-5s-1.1.8-1.1 1c0 .6-1.7 4.1-2.5 5.3-.8 1.1-.8 1.2-.4 2.6.5 2.3.7 2.7 1.2 2.6.2 0 .5-.2.6-.4zm-18.7-1c2.4-1.4 4.7-4.6 4.3-6-.4-1.6-1.6-.5-4.9 4.3-.4.7-1 1.4-1.3 1.6-.3.2-.6.5-.6.7 0 .5.6.6 1.2.2l1.3-.8zm-264.4-2.1c0-2.4-1.6-5.9-3.5-7.5-.8-.7-1.8-2.2-1.8-2.6 0-.2.2-.3.5-.2.2.1.3 0 .1 0l-.8-1.4c-.3-.6-.7-1.1-.8-1.1l-2.1-1.7c-2.4-2.2-2.7-2.2-2.6-.5 0 .8.2 1.5.3 1.7.2.2.6 1.2.9 2.2l1 2.5.3 1.2c0 1.2 2.8 4.3 3.3 3.8l.4-2c.2-1.4.2-1.6.3-.7 0 .6.1 1.2.3 1.2.1 0 .2.6.2 1.3 0 1.7.3 2.1 2.1 4 1.6 1.8 1.9 1.7 1.9-.2zm269.7.9a67 67 0 0 0 9-12.1c1.4-1.8 2.8-5.3 2-5l-3 2.8a34.5 34.5 0 0 1-7.2 5.8c-.7.6-.8.8-.7 2.1 0 1.6-.4 4.4-.8 5.2a6 6 0 0 1-.8 1.2l-.5.6h.6c.3 0 1-.3 1.4-.6zm-7.8-5c1-.5 2.3-1.3 2.7-1.8.6-.6 2.5-4 3.8-7 .7-1.5 1.1-3.4.9-3.5a36.3 36.3 0 0 0-5.3 4.1s-.4.7-1 1.3a19 19 0 0 0-1.6 2.3c-.4.6-1.2 1.7-1.9 2.4-1.4 1.5-1.8 2.2-1.8 3.2v.8l1-.4 3.2-1.4zm-76.7-.8a40.2 40.2 0 0 0-6.4-22.8c-.4-.9-1-2.3-1.2-3.1l-1-3.3c-1-2.7-2-7-2.2-8.9-.1-1.6-.2-1.8-1-2-.7-.3-.7-.4-.5-1.9a304.6 304.6 0 0 0 2.1-11.5c.4-1.6.4-1.6-.3-2.7-.3-.7-.7-1.2-.9-1.2 0 0-.9-.7-1.7-1.6a6.7 6.7 0 0 0-2-1.6c-1.9 0-2.2 13.2-.6 21.4l.6 4.1c0 .9 0 1-.6 1-.9 0-.9.6 0 2.4l.6 1.8c0 .2.4 1.2 1 2.3l.9 2.2.2-.4c.2-.4.2-1 .1-1.4-.2-1 .1-1.9.9-1.9.7 0 .7.2 1 2.5a47.2 47.2 0 0 0 2.5 10l.8 2 1 2.3c0 .4.8 2.3 1.7 4l1.6 3.5c0 .3 2.9 6.2 3.2 6.5.3.3.3.2.4-.4 0-.4 0-1-.2-1.3zm102.4.8c0-.2-.1-.6-.3-.7-.2 0 0-.4.6-.7l.8-.5-.2-2.3c-.2-2.4-.2-2.5-.6-2.3-.4.2-.8 2.4-1 5.3-.1 2.4-.1 2.6.3 2.2.2-.2.4-.7.4-1zm42.3.4c.2-.2.4-1.3.4-2.6l.3-3.7.2-1.5-1.1-.5c-.9-.3-1.1-.5-1-1 0-.4.3-.5 1-.6 1-.1 1.2-.2 1.4-1.1.4-1.5 0-3.3-.7-3.6-1-.3-3.4-.2-3.7.1-.4.4-.8 13.1-.5 14 .2.5.5.6 1.5.7l1.6.2c.2 0 .4-.2.6-.4zm4.5 0c.2-.2.4-1.8.5-3.8.1-3.3 0-3.4-.4-3.7-.7-.3-2.1-.4-2.3 0 0 0-.3 1.6-.4 3.5-.3 3.1-.3 3.4.1 3.9.6.6 2 .7 2.5.1zm-10-.3c.4-.4.4-1.5.4-7.5v-7h-1.9l-.2 1.8-.3 7.2-.2 5.4.6.2c1 .4 1.2.4 1.6-.1zm-8.1-.2a42.9 42.9 0 0 0 .6-14.8c-2.2-.1-3.7 0-3.9.2-.2.2-.2 1.3 0 3 .1 1.5.1 4.3 0 6.4-.3 4.3-.2 5 .6 5.3.9.4 2.1.3 2.7 0zm4.6 0c.3-.4.6-13.4.3-14-.3-.5-1.7-.6-2-.1-.5.5-1 13.7-.6 14.1.4.5 2 .5 2.3 0zm-9.4-10.7c0-9.5-.1-10.7-.5-11.4-.5-.7-.5-.8 0-1.5.4-.6.5-1.4.5-4.7l-.1-4.3c-.3-.2-2.4-.2-2.7.1-.1.1-.3 3.6-.3 7.6l-.4 12.2c-.4 7-.4 12.5 0 12.6.2.1 1 .2 2 .1h1.5v-10.7zm-33 10.1c.3-1-.3-1-.9 0-.3.4-.3.4.2.4.2 0 .5-.1.6-.4zm27.6.1c.1-.2.3-1 .3-2.2 0-1 0-3 .2-4.5a226 226 0 0 0-.1-25.5l-2.3-.2c-2.7-.1-3 0-2.8 2.4l-.2 12.7c-.4 19-.4 17.1.3 17.4.8.3 4.2.3 4.6 0zM413 184c.4-.4.7-.9.6-1-.2-.2-2.6.7-2.6 1 0 .2.6.8 1 .8l1-.8zm19.7-1c.9-.4 2.1-2.5 1.5-2.5-1 0-4.4 2.3-4.4 3 0 .4 2 0 2.9-.4zm-259-.4c0-.5-3.1-3.5-3.3-3.3-.2.2.2.7 2 2.6 1 1 1.3 1.2 1.3.7zm269-2.5c.3-.5.3-.6 0-.6s-1 1-1 1.6c0 .4.6-.3 1-1zm14.5-.7c.5-1.5 1-1.9 2.1-1.8h1V175c0-1.3-.2-2.5-.3-2.6-.3-.2-1.3 1.2-2.7 3.7a9.5 9.5 0 0 0-1.2 3.7c-.2 1.4-.1 1.5.2 1.2l.9-1.7zm-50.7.5c1.2-.3 1-.9-.4-1-1.3-.3-1.9 0-1.6.7.2.4.7.5 2 .3zm29.8-3.4c3-2.4 4.3-3.8 5.8-5.8.8-1.1 1.4-1.7 1.6-1.6.5.1 2.4-1.6 2.7-2.5.7-1.6 1.2-4.1 1-4.4-.5-.4-1.4.3-2.6 1.9a14.7 14.7 0 0 1-4.3 4c-2.4 1.8-3.8 3-3.8 3.5s-1 2.1-1.4 2.3c-.1 0-.2.2-.2.5l-.8 2a16 16 0 0 0-.8 1.6c0 .5 1 0 2.8-1.5zm73-1c.2-.4.3-1.3.2-2-.2-2.3-.2-2.5-1.1-2.5-.7 0-.9.2-1.2 1-.2.4-.4 1.6-.4 2.5v1.5h1.2c.9 0 1.2 0 1.4-.6zm-63-1c.9-.1 1.5-1 2.3-3 .2-.8.8-2 1.2-3 .7-1.5.8-2.4.4-2.2a18 18 0 0 0-4.2 4.7c-.2.7-.6 1.5-.8 1.8l-.6 1.4c-.2.8-.2.8.4.7l1.3-.4zm4.6 0 .8-1c.7-.7 4-5 4.3-5.3l.4-2.3c.1-1.2.3-1.8.5-1.8l.6.3c.3.5.6.3 1.4-1 1-1.4 1-2.4.4-4.4-.6-2-.9-2.2-1.6-1-.3.5-1 2-1.3 3.1-.4 1.2-1 2.4-1.2 2.6l-1.2 2.2a23.7 23.7 0 0 1-2.8 4.9c-.2 0-1.5 3.4-1.5 4 0 .4.7.2 1.2-.4zm-35.2-.6c.6-.3 1.1-.7 1.1-.8 0-.5-1.7 0-2.3.7-.9.8-.3.9 1.2 0zm20-5c.7-.3 1.3-.8 1.4-1 .5-.6 2.1-5.8 1.9-6-.3-.3-1 .4-1.5 1.5-1 2-1.9 3.5-2.4 3.9-1 .8-1.4 2.4-.7 2.4l1.4-.7zm70.4 0a6 6 0 0 0 .2-2.1c0-1.6 0-2-.4-2.3-.7-.5-4.2-.5-4.6 0-.2.2-.3 1.2-.3 2.5.1 2 .1 2 1 2.2 1 .3 3.7 0 4-.2zm-6.5-2.2v-2.4l-1-.1c-.7 0-.8 0-1 .7l-.3 1.7c-.5 1.7.1 2.5 1.8 2.6.6 0 .6 0 .5-2.5zm-3.5 1.8c.4-.4.5-1.2.4-2.8-.1-1.5-.4-1.9-1.7-1.8l-1 .1-.2 2.2c0 1.6 0 2.3.3 2.5.6.3 1.7.2 2.2-.2zm-4.2-.7v-4.1l-1.8-.2c-2.6-.2-2.9 0-2.9 2.2 0 2.5.4 2.8 3.1 3 1.4 0 1.4 0 1.6-1zm-329-1.8c0-.2-.2-.3-.4-.3-.3 0-.4.1-.4.3 0 .1.1.3.4.3.2 0 .3-.2.3-.3zm195-1.4.4-1c.5-.7 1.8-3.2 2.5-4.7.8-1.8 1.2-3.3 1.5-5.6.2-1.2.5-2.6.7-3 .2-.4.9-3 1.5-5.9.5-2.8 1.2-5.5 1.4-6l1.3-3.2a23.4 23.4 0 0 1 2.8-5c0-.5 1.8-2.8 3.3-4.3a27.9 27.9 0 0 0 5.9-7.1l1-.7c.2-.2.6-.2 1-.1s2.5-.8 3.2-1.5l1-.2c.7 0 3.3-.9 4.4-1.4.5-.3.7-.2 1.2.2.3.4.7.6.9.6l.7.6.7.5c.2 0 1.2.5 2.2 1.2 2.3 1.3 3 1.4 4 .5.7-.6 2.2-1.2 3.1-1.2.5 0 1.5-.4 4.3-1.8 2.4-1.1 4-3 5.8-6.4.7-1.6 1-3.4.4-3.4-.5 0-1.6 1-2 2a18 18 0 0 1-4.4 4.4c0-.1 1.1-1.7 2.6-3.4 1.6-1.7 3-3.6 3.3-4.1.3-.6 1.1-1.6 1.9-2.3l1.3-1.6.5-1.2c1-1.8 0-1.4-3.7 1.5l-3.4 2.6c-1.2 1-2 1.8-3 3.3-1.8 2.7-4 5-6.7 7-2.8 2-3 2.1-4.7 2-1.2 0-1.4-.1-1.5-.7 0-.3.2-.8.5-1.2.4-.4.5-.6.3-.8-.2-.3-.1-.5.4-.8 4.4-2.7 7.1-5.1 10-9 1.9-2.4 2.4-3.7 2.8-6.8.3-2 .5-2.3 1.5-2.3s1.7 1 1.7 2.5a14 14 0 0 1-1 5.2c0 .4 0 .4.5.3.9-.3 6-4.5 6.3-5.2.3-.6 2.1-2 2.5-2 .1 0 .2.4.2.9 0 .9 0 1 1.5 1.4.8.2 1.7.6 1.8.8.2.2.6.2.8.2.3-.2 0-.6-1.1-1.6a14 14 0 0 0-3.4-2.5l-1.5-1a61.8 61.8 0 0 1-4.2-2.2c-1.3-.8-1.6-1-1.6-1.5 0-.6.7-.4 4.3 1.5a20.4 20.4 0 0 1 5.8 3.5c.2 0 1.3 1 2.5 2a16 16 0 0 0 2.5 2.2c.3 0-.2-1-.7-1.5l-1.1-1.4a53 53 0 0 0-14-12.1 32 32 0 0 0-5-2.3c-.6-.2-2.2-1.6-2.2-2 0-.6.9-.6 2 0l2 .9 2 .9 2.2 1.2c1.2.6 1.3.7 1.2.2 0-.2-.7-.9-1.5-1.4-2.4-1.7-3.2-2.6-3.2-3.5 0-.6-.2-1-.7-1.4l-1.9-1.4c-1.7-1.3-2.7-1.9-3.4-1.9l-1.4-.6c-.5-.4-1.5-.8-2.3-1-2.3-.4-2.3-.4-3.5-1.6-.6-.5-1.3-1-1.5-1-.2 0-1.3-.6-2.5-1.4C386.8 65 384 64 384 65c0 .7 1 3.2 1.4 3.8.3.2.5 1 .6 1.8.1 1.3.3 1.6 1.2 2.4 1 .7 1 1 1 1.9 0 1-1 2.7-2.4 4.5-.8.9-1.1 1.7-1.5 3.4l-.3 1.5c0 .4 2.5-.2 3.3-.8 2.3-1.9 3.2-3.7 3-6.5 0-1.7 0-1.7.7-2 .6-.2.8-.1 1.4.4.4.4.6 1 .6 1.3 0 1-1 4.3-2 6.1-2 4.2 2.8-.8 6.1-6.5.6-1 1.2-1.2 1.2-.5s-1 2.3-2.5 4.3a40.7 40.7 0 0 1-7.5 8.7 22.2 22.2 0 0 0-4.5 7.7c0 .3-.1.9-.3 1.3-.4 1-.2 1.5.6 1.2 1.7-.7.3.7-1.7 1.8a7 7 0 0 0-1.7 1.4 79.5 79.5 0 0 1-11.5 11 6.2 6.2 0 0 0-2.4 2.3c-.5.7-1 1.5-1.3 1.7-1.8 1.6 1.4.4 4.1-1.4.8-.6 1.6-1 1.9-1 .4 0 .4 0-.1.7l-1.3 1c-2.3 1-3.3 2.4-1.6 2h1.1c.2.2-.4.8-.9.8a2 2 0 0 0-1 .4c-.2.2-.7.4-1 .4-.4 0-.7.1-.8.3l-.8.4c-.4 0-1.1.3-1.6.5a9326.4 9326.4 0 0 0-6 2.5c-.6 0-1.6 1-2.5 2.3-.5.7-1.1 1.4-1.4 1.5-1 .5-.9 1.3.1 2.7 2.7 3.8 3.9 5.7 4.5 7.1.8 1.7.9 2.8.2 2l-3.8-5.3c-1.5-2-2-2.5-2.6-1.9a52.3 52.3 0 0 0 .6 15.7 96.6 96.6 0 0 0 3.3 14.3c.7 2.8 1 3.3 1.6 2.9l.3-.6zm4-25.5c-.4-.3-.3-.8 0-2.4.8-3.4 2.4-6 6-10.1 1-1.3 1.6-2.1 1.6-2.6 0-.4.3-1 1-1.5.6-.6.8-1 .8-1.6 0-.4.3-1 .6-1.4.6-.8.5-1.1-.6-1.1-.7 0-.8-.1-.5-.4l1.1-.7a14 14 0 0 0 5-2.8c.9-1 1.2-1.2 1.8-1 .7.1.9 0 2.3-1.9l2.7-3.4c2.2-2.8 2.8-3.9 2.5-4.4-.3-.4 0-.8 1.5-2.6 2.1-2.4 3-3.9 3-5.1 0-.8.1-1.1.7-1.5.5-.4 1-1 1.1-1.7l.5-1.5c1-1.8 3.4-8 3.6-9.3.2-1.2 1-2 1.6-1.5.2.1.4.5.4.7a35.1 35.1 0 0 1-2.7 8.2l-.2 1.2c0 1.1 0 1.2.4.9l.4-.8c0-.2.5-1 1-1.7 1.3-1.5 3.2-4.2 3.2-4.5 0-.8 3.2-3.2 3.7-2.9.6.4.2.9-1.7 2.8-1 1.1-2.2 2.6-2.6 3.4l-1.3 1.9-.5.6a23.7 23.7 0 0 1-4.5 6 30 30 0 0 0-3.4 4.8c-.8 1.4-2.6 4-3.7 5.5-3.4 4.4-3.5 4.6-3.2 4.9.2.2.4.2.6 0l.7-.4c.3 0 .3.1-.1.6-.3.2-.6.5-.8.5-.5 0-2.4 1.8-3.2 3a4 4 0 0 1-.9 1.2c-.3 0-4.4 4.2-5.8 6-.8 1-1.8 2.1-2.4 2.5a22.8 22.8 0 0 0-7.4 11.2 22 22 0 0 1-1.1 3c-.4.5-.9.4-1.3 0zm21.5-23.3c-.3-.3.4-1.1 1.5-1.9 2.4-1.7 4.7-4.3 3.8-4.3l-1 .4c-1.5.8-1.7.3-.3-.5 1-.5 5-3.3 6.8-4.8a36 36 0 0 0 6.6-8.3c.4-1 .6-1.7.6-3.4s0-2.3.4-2.5c.3-.2.5-.8.6-1.4.3-1.2.6-1.7 1.2-1.7 1 0 1.3.8 1.3 2.3 0 .9 0 2-.2 2.5l-.4 2c-.2.8-.1.9.3.6 1.1-.6 1.5-1 1.7-2.3.3-1.5 1.2-2.4 2.4-2.4 1 0 1 .5-.3 2-.6.8-1 1.5-1 1.7 0 1-3.4 5.3-6.2 8a156.2 156.2 0 0 1-13.8 12 16 16 0 0 0-2.3 2c0 .2-1.4.3-1.7 0zm-11-1.5c.2-.3.5-.4.7-.4.3 0 .4 0 0 .4 0 .2-.4.4-.6.4-.4 0-.4-.1-.1-.4zm20.6-.9h.5c0 .1 0 .2-.4.2-.3 0-.3 0-.1-.2zm-17.4-1.2c.2-.3.5-.4.7-.4.2 0 .3-.2.3-.3 0-.2.2-.3.3-.3.2 0 0 .3-.3.7-.7.7-1.6 1-1 .3zm4.9-3.9c.5-.6.8-.5.5.1 0 .3-.3.4-.6.4-.4 0-.4 0 0-.5zm5.7-27c0-.3 0-.4.4-.3.2 0 .4.3.4.5s-.2.4-.4.4c-.3 0-.4-.3-.4-.6zm55.2 82.6 1.8-2.2 2.4-2.8 1.8-2.7c.6-1.2.6-1.4.2-3.7-.3-2.8-.7-4.1-1.3-4.3-.2-.1-.7.3-1.3 1-1 1.1-1.7 3.1-3 8.7l-.7 2.1a139.5 139.5 0 0 1-1.1 4c-.2.9.3.8 1.2 0zm10-2.2c1.9-2.4 2.3-3.3 2.4-5.8.3-3.5-.4-4.5-1.5-2.1-.3.6-1.1 2.2-1.9 3.3-.9 1.5-1.3 2.4-1.3 3.1a8 8 0 0 1-.4 2.1 4 4 0 0 0-.2 1.8l.1.6.7-.6a21 21 0 0 0 2.2-2.4zm-360.6 1h-.5l.2.1c.2 0 .4 0 .3-.1zm-1.2-.6h-.8l.4.1h.4zm406.2-.1c.5-.2.7-.6.9-1.3.1-1.2.8-1.5.8-.4 0 1.3.5 2 1.3 2 1 0 1-.3 1.4-5 .2-3.9.1-4.2-.4-4.4a84 84 0 0 0-11.8-.2 27 27 0 0 0-.4 8.4c.2.5.5.6 1.9.7h2c.5 0 1-1.4 1-2.6 0-1.3.5-2 1-1.7.2.3.3 1 .3 2.3 0 1.6.1 2 .5 2.2.6.4.7.4 1.5 0zm-339.6-.7c.2-.5.2-.8 0-1.3-.5-.6-2-1.3-2.2-1-.3.2.1 2.2.6 2.6.6.7 1.4.5 1.6-.3zm305.8-4.9c0-.2-.1-.1-.2.2 0 .3.1.4.2.3v-.5zM132.7 155l.4-.7c.2-.2.3-.5.2-.7a29.5 29.5 0 0 0-4.9-11.2c-.8 0-.4 5.6.5 6.3l.4.6c0 .3 1.6 3.7 2.5 5.4.4.6.9.8.9.3zm328.5-1.4c-.4-.7-.4-.7-.4-.3 0 .3.1.9.3 1.3.3.6.3.6.4.2l-.3-1.2zm-10.7-3.5c.4-.7.9-2 1.1-3 .5-1.5.5-1.6 0-3.2-.8-2-1.5-3-2-2.8-.2 0-.7 1-1 2-.5 1.7-.5 1.8-.1 4.1l.5 3.3c.2 1.2.8 1 1.5-.4zm-332-.5c.1-.7 2-5 3.5-8 1-2.2 1.2-2.6 1-3.3-.2-.4-.3-.9-.2-1l-.4-.7-.6-1.1c0-.3-.1-.6-.4-.7-.4-.1-1 .6-1.3 2.1l-1 3.6c-.4 1.4-.7 3-.7 3.8 0 .6-.1 1.5-.3 2-.3.7-.3 3 0 3.5.2.4.4.2.5-.2zm289.7-3.3c.7-.5 1-1.2.5-1.4l-1.3-.3-1.1-.2v1.2c0 1.1 0 1.2.6 1.2.3 0 1-.2 1.3-.5zm36.3-2.1c.5-1.3.5-2.2 0-3.3a19 19 0 0 1-1.2-4.1c0-.7.8-.7 1.4 0l.9 1.4c.4 1 .5 1 .8.6.9-1.2.6-5.4-.5-6.7-.7-.9-.6-1.1.3-1.4.5-.2.8-.4.8-.6 0-.8-.4-1.5-.8-1.5-.5 0-1.3 1-1.3 1.8l-.8 1.5c-.4.5-.8 1.3-.8 1.7a5 5 0 0 1-.6 1.8c-.6 1-.6 1.1-.1 3.4l.6 4.5c.2 2.4.6 2.7 1.3.9zm-132.2-2.3 1.3-.9 5.2-3.7a27 27 0 0 1 4.5-2.6 115.6 115.6 0 0 0 4.8-2.4c1.6-.6 2.8-1.3 6.2-4 .2-.3 1-.8 1.6-1.2 1.3-1 2.8-2.4 3.2-3.4.2-.3.6-.8 1-1 1.3-.6 1.4-.8.8-1.4-.7-.7-1.7-.8-2.5-.2-.3.2-1.2.5-2.1.6-1.2.3-1.8.6-2.4 1.2a27.1 27.1 0 0 1-8 6.6l-2 1.4a48.7 48.7 0 0 0-10.1 8.4c-1.3 1-3 3-3.3 3.6 0 .3.9-.2 1.8-1zm140.1-4.4c.5-.3.4-.4-.2-2-1.4-3.2-3-5.9-3.5-5.9s-.5.8 0 1.7l.4 1.2.5 1.3.7 2 .3 1.6c.2.5 1.1.6 1.8.1zm-327.7-1.3 1.1-1.7c.4-.5 1.2-1.6 1.6-2.4.5-.8 1.3-1.9 1.9-2.4.5-.6 1-1.3 1-1.5 0-.5-3.7-3.9-4.2-3.8-.5.1-3.3 5.5-3 6 0 .3.4.6.7.8.7.3 1.4 2 1.1 3 0 .4-.5 1-.8 1.4-.4.3-.7.7-.6.9.3.5.9.3 1.2-.3zm316.2-7.3c-.1-1.3 0-1.5.5-1.8.7-.3 1.1-1.4 1.2-3.6 0-2.1-.3-2.9-1.8-3.6l-1.2-.5-.2.8-1 4.5.4 1c.3.4.5 1 .5 1.2 0 .9 1.2 3.5 1.6 3.5V129zm-142.3-.5c.2-.6.3-.7 1.8-.5.8 0 2 .4 2.7.7.7.3 1.7.5 2.6.5 1.4 0 1.4 0 1.3-.7-.1-1.1.2-1.4 1.2-1.1.8.3 3.2.6 6 1 1.6.1 1.6-.3-.2-1.4-1-.7-1.2-.9-1-1.6 0-.7.1-.8.7-.9.4 0 1.5.2 2.4.5 1.8.6 3 .7 5.3.4 1.2-.2 1.4-.3 1.2-.6-.5-.4-4.7-1.6-5.8-1.6-1.6 0-2.4-1.1-1.3-1.9a65.5 65.5 0 0 1 8.7.1c.6.1 1 0 1.5-.6a4 4 0 0 1 2-1.1c.7-.2 1.3-.5 1.3-.6 0-.1.2-.2.5-.2.2 0-.1-.2-.8-.2-1-.2-1.2-.3-1.2-1-.1-.5 0-.7.7-1 .4-.3 1-.4 1.2-.4.2 0 .5-.2.6-.4.3-.3 0-.5-1.7-1.2-1.1-.5-2.3-.8-2.5-.8l-.7-.3a87.1 87.1 0 0 0-14.7-3.9 182 182 0 0 0-20.7-2.1 21.3 21.3 0 0 1-6.7-.9c-1 0-1.9-.4-1.9-.9 0-.2.4-.6.9-1 1.6-1.2 5-1.2 4.1 0l-.2 1c0 .3.5.4 5.9.3a84.2 84.2 0 0 1 24.5 3 928.9 928.9 0 0 0 7.3 2.1l1.8.7c1 .2 2.6.8 3.9 1.3 3.3 1.3 3.4 1.3 3.6.8 0-.3.5-.8 1-1 1.5-1.1 1.3-2.7-.4-2.4-.7.1-.8 0-1-.5-.3-.6-.5-.7-1.2-.7-1 0-1.6-.6-1.4-1.2.3-1 3.3-.3 3.3.7 0 .3.8.3 2.5-.3 1.8-.5 3.4-2 3.4-3s.5-2 1-2.1c.2-.1 0-.2-.5-.2-.7 0-1.1.2-1.5.5-.5.7-1.7.7-3.4.1-1.5-.4-4.2-.9-6-1-1.3 0-2-.5-2-1.4 0-.2-.6-.3-2.3-.4h-8.3a180 180 0 0 0-22.5.9l-3 .2-3.4.4c-2.6.6-3.3.5-3.4-.3 0-.4.1-.7.5-.8 1-.4 5-1 8.9-1.5 4.2-.5 19.3-1 26-.8 4.7 0 15.2.8 15.6 1 .1.1.4 0 .5-.2.2-.2.1-.4-.5-.6a29 29 0 0 0-5.1-1.1c-.9 0-1.3-.5-1-1.2.3-.4.6-.5 2-.4h1.8c0-.7-.4-1.4-1-1.4-1 0-2.1-1.4-1.3-1.7.5-.2 4.5.6 6.5 1.3 3.3 1.1 4.4 1.3 6.1 1 1.4-.3 1.9-.6 2.8-1.4 1.3-1.3 1.6-2.1.4-1.3-2.2 1.6-3.7 2-4.5 1.3-.5-.4-3.3-1-4.8-1-.4 0-1.5-.3-2.4-.7-1.5-.6-1.9-.6-5.8-.6-2.3 0-4.2 0-4.3-.2-.3-.2 0-1.1.5-1.3 1-.2-2.1.2-3.5.6-.7.2-1.8.3-2.4.3a297.6 297.6 0 0 1-17.5 3.2l-3.6.9-4.1 1c-3.5.6-9 2.1-12.9 3.4-3.7 1.3-5.3 1.6-5.5 1-.2-.7.2-1 3.3-2a426.5 426.5 0 0 0 7.2-2.4l2.8-.7 3.5-1a310.7 310.7 0 0 1 14.5-2.7 87 87 0 0 1 7.2-1.6l2.4-.4c1.7 0 4-.6 4.6-1.1.3-.3.7-.5.9-.5.1 0 .3 0 .3-.2s.7-.3 1.7-.3 2-.2 2.4-.4l.8-.4-1.4.1-3.9.6c-1.4.2-2.7.3-3 .2-.3-.2-1.9.3-3.7 1.1-1 .4-1.7.4-1.7-.1 0-.3 2-1.3 3.2-1.5 1-.2 1.5-.7 1-1.2-.4-.2-.8-.2-1.7 0l-2.9.6c-.8.1-2 .5-2.6.8l-1.3.5-1.6.6c-.9.5-1.4.6-1.6.5v-.7c.6-.6 5.8-2.8 7.7-3.2.4 0 1-.4 1.4-.7.3-.3.9-.5 1.4-.5.5 0 2.2-.4 3.8-1 2.7-.8 3-.9 5.3-.7 1.6 0 2.5.2 2.8.6.7.6.2 1-2.2 1.3a73 73 0 0 0-5.5 1c-1 .1-1.7.6-1.4 1 .1.1 1.1 0 2.4-.3 2.7-.7 7.1-.9 7.8-.3.2.2.4.6.4 1 0 .9 1.4 1 6.4.5l7.3-.8 3-.3.2-.8c0-.5.9-1.6 2-2.8 2-2 2.6-3.1 2.6-4.8 0-.8-.5-1.3-1-1.1a9 9 0 0 0-1.5 1.8c-1.4 1.8-2.3 2.4-2.8 2-.5-.6-.4-.8 1.2-3 .8-1 1.4-2 1.4-2.2 0-.2-1 .7-2.4 2-2.4 2.4-3 2.8-3.3 2-.2-.6.2-1.3 1.8-3 1.4-1.5 3.5-4.6 4.6-6.8.7-1.5 2.3-3.6 2.8-3.6.4 0 .5 1 .2 1.7l-1.4 2.8-1 2 .9.1c1 .1 1.5-.3 1.5-1.4 0-1 .3-1.3 1.4-1.6.7-.1.7-.2.7-1.5 0-.8-.1-2.3-.4-3.3-.2-1-.3-2.2-.2-2.6.2-1 1.4-.9 2.5.1.8.8.8 1 .7 2.1-.1 1 0 1.4.4 2 .6.7.6 1.1.1 3.4-.6 2.8-1.5 5-2.4 5.9-.5.5-.5.5.4 1.2 1 .9 1 1.8 0 3a9 9 0 0 0-1.4 2.6c-.3 1-.6 1.8-.8 2l-.2.7c0 .5.2.6 2.2.8 1.6.2 2.2.4 2.2.7 0 .2-.4.4-1.1.6-1.7.2-2.1.6-3 2.5-.8 1.4-.9 1.8-.6 2.2.5.7.4 1.6-.3 2.8a18.3 18.3 0 0 0-2.5 5.7c-.1 1.2 0 1.2 1 1.9s4.1 1.6 4.5 1.3c.2 0 .6-.9 1-1.8 1.1-2.3 1.2-2.5.7-2.5s-.5-.6 0-1c.2-.3 1-2 1-2.5 0-.4-.8.5-1.5 1.6-1 1.8-2.6 3.7-3 3.7-.7 0-.5-.6 1-3 3.4-6.1 5.5-10.6 7.3-15.7 1.3-4 1.7-6 2-8.8.1-2.4.1-2.5.7-2.5 1.5 0 1.4 3.5-.2 9a39.8 39.8 0 0 1-3 8.1l-.4 1.4-.6 1.2c0 .7 1-.7 1.5-2.1.2-.8.8-2 1.2-2.6 1-1.3 2.3-4.3 3.3-7.3.5-1.3.6-2.5.7-4.7 0-2.8 0-2.9-.6-3.6a7 7 0 0 1-1.6-3.6c0-1.4-1.8-5.8-3-7.5-1.8-2.2-2.8-1.3-1.3 1 1 1.7.2 2.5-1.2 1.2-.8-.6-2.4-2.9-2.4-3.3 0-.2-.1-.3-.3-.3-.4 0-.3-.8.2-1.4.5-.5 1.2-.6 2-.1.3.2.6.2 1 0 1.3-.6 1.8-.7 2.7-.1.5.3 1 .8 1.2 1.1a27 27 0 0 1 3 7.1 27.5 27.5 0 0 0 1.8 5.6c.4 1.1.5 1.2 1.2.7.4-.3.5-.6.3-2 0-1-.4-2.2-.8-3-.8-1.7-.7-2.3.4-2.3 1 0 1.9.7 2.5 2 .3.6.7 1.1.8 1.1.2 0 .7-.8 1.2-1.7 1.1-2.3 1.2-3.9.2-5.8a12 12 0 0 1-.9-2.2c-.1-.7-.4-1-1.4-1.4-2-.9-3.8-1.4-6.4-1.8l-3.8-.7c-2-.4-2.6-.4-4.2-.1-1 .2-2 .4-2 .6V55l1 4.4c.3 1.6-1.4 1.6-2 0-.3-.4-.6-.8-.9-.8-.3-.1-1-1-1.6-2.4l-1.3-2.5-1.2.5c-1.1.9-1.4.9-1.8 0-.3-.7-.4-.7-1.4-.3-.8.4-1.1 0-1.1-1 0-.3-.2-.6-.4-.6-.5 0-3 2.2-2.7 2.5.3.6 2.2.6 3 .2.8-.4.9-.4 1.3 0 .5.8.4 1.7-.3 3.4-.5 1-.7 1.7-.6 2.2.5 2.3.5 3 0 3.8-.4.3-.6.9-.6 1.1 0 .6-2.5 4.4-3.4 5.2-.8.7-2 .9-2 .2 0-.2.6-1 1.3-1.7 1.1-1.3 1.3-1.7 1.2-3.2 0-.4 0-1 .3-1.2.2-.2.3-1 .3-1.8 0-1.3 0-1.5-1.2-2.7a139.3 139.3 0 0 1-7.4-8.7c-.5-.3-1.3 1-1.2 1.7 0 .5.3.7.9.9 1 .3 1.1.9.4 2-.4.6-.4.6.2 1.2.7.8.7 1.4 0 2.2-.3.4-.5 1.1-.5 1.7 0 1.5-.5 2.7-1.5 3.6l-1 .8.7.7c.8.8.7 1.3-.4 2.5-.4.5-.5.5 0 .7.2 0 .5.6.7 1.1l.4 1 .6-.6c.4-.3.9-.6 1.2-.6.5 0 .6.2.6.8 0 .5-.3 1-1.3 2-2 2-3.5 2.2-3 .5 0-.7 0-.9-.3-.9-.6 0-3.6-3-3.6-3.6l-.4-1.5c-.4-1-.4-1.2.3-3.8.4-1.6.8-3 1-3.3l.9-3.2c1-3.7 1-8.5 0-10.2-.5-1-1.3-1.7-2.7-2-.9-.2-1.2-1.2-.5-1.7.3-.2.9-.3 2-.2 2 .2 2.2-.2.7-2-1.5-2-1.9-2.1-4-2-1.5.2-2.3.5-3.6 1.2l-2.3 1.3c-.4.2-1.2 1-1.8 1.7a12.5 12.5 0 0 0-2.7 7c-.1 1.2-.3 2.3-.5 2.6-1.2 2.2-.2 9 1.5 11 1 1 2.2 3 2.4 3.6.2.6.3.6 1 .5 1-.2 1.2.2.6 1.1-1.2 1.9-2 1.9-2.8 0-.7-1.5-2.2-3.4-2.7-3.4-.2 0-.6-.3-1-.6-.6-.7-1.6-.9-2-.4-.2.4-1.6.3-2.3-.1-.4-.3-.9-.3-1.6-.2h-1.5c-.7 0-.6-1 .2-1.5L307 62c1.4-1 2.7-1.5 3.2-1.3.3.1.4.3 0 1-.4 1-.3 1.5.5 1.5 1 0 1.3-.6.8-1.8a6 6 0 0 1-.4-1.7c0-1-.4-1-2.1-.3l-2.8 1c-.7 0-1.8.3-2.4.6l-3.5.8-3.5.8c-1.4.4-2 .3-2-.4 0-.8 0-.8 4.4-1.6 1.2-.3 1.8-.5 2.4-1.2l1.6-1.3.6-.5-1.3.2c-1.2.2-1.4.1-2-.5a2 2 0 0 0-1.6-.7l-1.1.2c-.2.3-2.7 1.3-4.9 1.8-1 .2-1.9.5-2.1.7a160.8 160.8 0 0 1-9 4c-1.6.8-2.4.6-2.4-.6 0-.3 4.2-2.4 6.2-3a7 7 0 0 0 1.7-.8l.8-.5h-1c-.8 0-2 .3-2.5.6l-4.2 1.6c-1.2.3-6.4 3.8-8.8 5.7-1.2 1-2 1.1-2.6.3-.4-.5-.4-.5-3.5 1.4-1.8 1-3.9 2.6-4.7 3.4-1.5 1.4-2.2 1.6-3.1 1-.4-.2-.7 0-2.1 1.1-1 .8-2.2 2.2-2.9 3.1-.6 1-1.5 2-2 2.1-.4.2-.7.5-.7.7 0 .5-.9 1-1.6 1-.6-.2-1 0-2.5 1.7-3.8 4-5 5.3-6 6-.7.4-2 1.7-3 2.8-1.1 1-2.2 2-2.5 2-.2 0-1 .4-1.6.9a6 6 0 0 1-2 1c-1.2.2-2.4.6-3.3 1.1-2.9 1.6-3.7 2.2-4 2.8-.5 1.3-.1 2 1.8 3l1.8 1 1.3-.4c2.2-.7 3-.7 3 0 0 .4-.2.8-.7 1-1.4.7-1.1 1 1.9 1.8.8.3 2 .5 2.8.5 1.4 0 2.1.1 4.3 1l1.8.3c.5 0 1 .3 1.5.8 1.2 1.3 2.3 1.6 5.3 1.7 1.5 0 3 .2 3.3.4.3.2 1 .3 1.5.2 1.1-.2 3 .4 4.6 1.4l1.4.8.5-.8c.3-1 1.1-1.4 3.1-1.8 2.2-.4 6.4-.6 7.5-.3a5 5 0 0 0 2.7-.2c2-.6 2.3-.8 1.8-1.3-.3-.3-.3-.7-.2-1.3a3 3 0 0 0-.3-1.9c-.6-1.3-.2-2.2 1-2.2 1 0 1.8.7 2 1.9.2.8.3.9 1.2 1 .6 0 1.2.2 1.3.4.3.4.2 1.5 0 1.5-.7 0-.5.7.4 1.7 1 1 1.2 1.1 2.6 1.3 2.2.3 6 2.4 6 3.4 0 .6-1.1.9-2.5.6-1.2-.2-1.4-.1-2 .4-.5.5-1 .5-4 .6-4 .1-5.3.4-6.5 1.4-.5.4-1 .9-1.4 1-.5.3-.5.4.1 1 .8.6.6 1-.7 1.6-2 .7-1.2 1 2.5 1.3 5 .3 7.7.7 9.6 1.6 1 .4 2.1.7 2.6.7.7 0 1.4.3 2.3 1 1.7 1.3 2.9 2 3.6 2 .7 0 3.6 1.1 4.5 1.8 1 .7 1.6.6 1.9-.2zm-16.4-7.2c-.2-.2-1-.4-1.8-.6-1-.2-1.3-.3-1.2-.7.1-.3.4-.3 1.4-.2 2 .3 3.1.7 3.4 1.2.3.5.2.5-.6.5a3 3 0 0 1-1.2-.2zm8.7-.4-2-1c-2.1-1.1-2.6-2-.9-2 .7 0 .8-.1.5-.6-.5-.8.1-1.4 1.3-1.1a32 32 0 0 1 6 2c.8.6.9 1.5.2 1.5-.8 0-3-.7-4.2-1.3-.6-.3-1.3-.5-1.4-.4-.4.2.1.8 1.2 1.3.9.4 1.3 1.2 1 1.7-.2.4-1 .3-1.7-.1zm9-2.2c-1.4-.7-2.4-1.8-2.2-2.3.2-.6.8-.5 2.1.1 1 .6 2.2 1.7 2.2 2.2l-.4.4c-.4.2-.8.1-1.7-.4zm-7-3.7c-1.3-.5-1.1-1.2.2-1.3 1.2-.1 2.7.6 2.5 1.1l-.2.5c0 .3-1.8 0-2.6-.3zm.9-2.3-1.3-.4c-1-.1-1.2-.3-1.2-.8 0-.6 0-.7 1.6-.6 2 .1 2.6.4 2.5 1.2-.1.4-.3.6-.8.7l-.8-.1zm35.9-5.6c-.8-.2-1.1-.4-1.2-.9 0-.6 0-.6 1-.5l2 .5c.6.2.7.3.4.8-.3.6-.7.6-2.2.1zm-50.8-2.6a1 1 0 0 1-.4-1c0-.5.3-.6.9-.6 1 0 1.4 1 .8 1.6-.5.5-.7.5-1.3 0zm-18-3.7c-.5-.6-.5-1.1 0-1.4.6-.4 1.4 0 1.4.7 0 .8-.9 1.2-1.4.7zm3.3-1c-.2-.3-.3-.7-.2-1 0-.5.2-.7 1-.8.6 0 .8 0 1 .6v1c-.3.6-1.4.7-1.8.1zm6.4-1.4c0-.3 0-.6.3-.8.5-.3.6-.3 1 0 .2.3.2.4 0 .8-.5.5-1 .5-1.3 0zm3.3-.7c-.7-1-.6-2 .4-2.6.5-.3 1.2-.5 1.6-.5l3.6.2c.3 0 .4 1 0 1.6-.1.3-.4.3-1.3 0l-1.1-.4-1 1.2c-1 1.2-1.6 1.3-2.2.5zm-8.5-3.3c-.5-1.3.4-2.6 1.7-2.4 1 0 1 .8 0 1.9-.7 1-1.4 1.2-1.7.5zm4.5-1.3c-.6-.4-.4-1.5.3-1.4.7.1 1 1 .6 1.4-.4.3-.5.3-1 0zm25.2-3.2c0-.4 1.4-1.4 2.4-1.6.7-.1 2.4-1 3.2-1.4l2.4-1.2 4-2c4.5-2.7 8.7-2.7 8.7-.2 0 .8 0 .8-1.1.6l-1.4-.1c-1-.1-4 .8-4.7 1.4-.4.4-1.2.8-1.7 1l-1.8.6-2.8 1c-1.8.5-3 1-5.5 2-1 .4-1.7.4-1.7 0zm-17.7-2.5c-.2-.4-.1-.6.3-1 .5-.6.8-.6 2-.5 1.2.2 1.3.1 1.8-.5.4-.5.7-.7 1.2-.5.5.2.6.3.4 1.3l-.4 1.3c-.2.2-1.4.3-2.7.3-2 0-2.4 0-2.6-.4zm6.5-.4c-.2-.3-.2-1.4.2-2 .3-.7 0-1.7-.6-2-.6-.1-1.2-1.5-1-2.3.3-1 1.2-2 2.7-3 2.7-1.7 4.5-2.1 5.4-1l1 1c.6.6.7 1 .7 1.7 0 .3-.3.2-.8-.2l-1-.5-1-.4c-1.2-.8-1.8-.4-2.7 1.4-.5.9-1 2-1 2.5 0 .8 0 .8.6.8 3-.4 3.5-.4 3.4 0-.1.7-1.8 1.7-3.2 1.9-.8.1-1 .3-1.4 1-.3.9-1 1.4-1.3 1zm11-2.2a.6.6 0 0 1-.3-.5c0-.2-.3-.3-1-.3-1.3 0-2.6-.6-3-1.3-.1-.4 0-.6.3-1 .7-.7.5-.7 2.7-.2 1.4.4 1.7.6 1.8 1 0 .7.5.9 1 .4A25.3 25.3 0 0 1 303 80c1.4-.2 1.6-.1 1.4.3-.2.4-2 1.5-2.6 1.5a2251.2 2251.2 0 0 0-5 2.3 6 6 0 0 1-2 .6zm44-1.8c.2-.2.6-.4 1-.4.8 0 .8 0 .3.4-.7.6-1.4.6-1.2 0zm-2.5-2.5c0-.1.1-.2.3-.1l.2.3-.2.1c-.2 0-.3-.1-.3-.3zm-45.5-.7c0-.3.1-.3.2-.1v.5c-.1 0-.2 0-.2-.4zm68-.8a31.6 31.6 0 0 0 .8-6l.5-4.6c.2-1.2 1-1.4 1.4-.5.3.8 0 4.8-.8 8-.6 3-1.9 5-1.9 3zm-21.5-1.3c-.5-.4 0-1 1-1.8.8-.4 1.7-1 2.2-1.5.4-.4 1.3-1 1.8-1.2a10 10 0 0 0 3.4-3.4c2.2-4 2.6-5.5 2.4-8.3-.2-2-.2-2 .4-2.5 1.2-.8 2.3.8 2 3.2a28 28 0 0 1-1.8 6l-.2 1-.5.9-.6.7c0 1-2.2 2.8-5 4.3-.6.3-1.6 1-2.1 1.7-.9.9-1.3 1-2 1h-1zm-2.8-2.6c0-.4.1-.7.6-1l1.8-1.4c.8-.7 1.1-.8 1.4-.6 1 .7.1 2-1.6 2.9-1.5.6-2 .6-2.2 0zm-16.1-1.3c.1-.6 0-.7-.5-.6-1 .3-1-.4-.4-1.4 1-1.3 3-1.4 2.2 0-.2.3-.2.5.2.9s.4.5-.3 1.1c-1 .8-1.4.8-1.2 0zm5-6c-.4-.2-.9-.7-1-1.1-.2-.4-.7-.9-1.1-1.1-.6-.3-.8-.7-1.1-2-.3-1.2-.6-1.7-1.9-3-1.6-1.7-2.2-3-2.1-4.9l-.2-1.2c-.2-.1-.4-.6-.4-1.2-.2-1 .7-4.3 1.7-6.5.6-1.3 1.5-1.9 2.2-1.3.5.3.5.6-.1 3-.4 1.3-.3 1.4.2 1.9s.6.7.4 2.3c-.1 1.6-.1 1.8.5 2.6.4.4.8 1.2 1 1.8.3 1.1 1.2 3 2.5 5.2.7 1.2.7 1.4.4 2.2-.3.8-.3 1 .2 2 .5.7.5 1 .3 1.3-.4.4-.7.4-1.5 0zm45.2-7.5c0-.2.1-.4.3-.4l.2.4-.2.4c-.2 0-.3-.2-.3-.4zm-74.4 0c-.4-.4-.2-1.2.3-1.3.7-.3 1.2.1 1 .8 0 .5-1 .8-1.3.5zm112.4 66.6c1.1-.8 2.7-2.3 3.6-3.4l2.2-2.5a46.9 46.9 0 0 0 4.8-6.2c3.4-4.5 4-5.3 4-6.2 0-.9 0-1 1-1 1-.1 1.6-.8 1.3-1.6-.1-.3-.4-.4-1.8-.2-.8 0-1.9.3-2.2.4-.6.2-.8.2-1.1-.1-.4-.4-.4-.5 0-1 .6-.5 2.8-1.3 4.2-1.3 1.6 0 4.4.8 5.5 1.5l1.2.5c.5-.2 0-1.3-1-2l-1.4-1a29 29 0 0 0-4.6-3l-2.4-.9-1.4-.5-.8 1-1.7 2c-.5.5-.8 1.1-.8 1.3 0 .2.3.7.8 1.1.8.8.8.9.7 2.5 0 1-.4 2.2-.8 2.9-.5 1-.5 1.3-.2 1.8s.3.6-.4 1.1l-4 3.7c-2.9 2.9-3.4 3.3-5.8 4.5a15 15 0 0 1-3.4 1.2c-.7 0-1-.4-.4-1 .5-.5 0-.8-1.6-.9-1.4 0-1.5 0-1.4.6 0 .4.4 1 .7 1.3.6.6.9.7 2.9.7 1.2 0 2.5-.2 2.8-.3.5-.2.8-.2 1 0 .7.7.3 1.4-1.8 3.3-1.8 1.7-2.1 2-2.1 2.8 0 .5 0 1 .2 1 .3.4 2.4-.7 4.2-2zm-56-2.5.4-4c.1-2.3 1.1-6.6 2.7-11.3l.9-3.2c0-.5-3.2-1.6-4.6-1.6-1 0-1 .1-1.3 1.4a33 33 0 0 0-.7 3c-.6 3.3-1 5.1-2 7.4-.7 1.6-1 3-1.2 4.1v1.8l1 .8a40 40 0 0 1 2.4 2c.8.8 1.6 1.4 1.8 1.3.1 0 .4-.8.6-1.7zm-25.7.7h-.5c-.3 0-.2.1.1.1.3 0 .5 0 .4-.1zm33.3-9c.8-.7 2-2.1 3.7-4.4.8-1.1.5-1.5-1.1-1.3h-1.3c-.2-.1 1.8-1 2-.9.4.3 3.1-1.5 3.1-2l1.9-3.3a35 35 0 0 0 3.1-6.2c1-1.5 1.7-4 1.5-4.5-.1-.3-.5 0-1.7 1.3-1.5 1.6-2.1 1.8-2.1 1 0-.4-.2-.5-.7-.4-.6 0-1 .4-1.6 1.6-1 1.6-2.3 2.8-3 2.8-.9 0-.9-.6-.2-2 .7-1.2.7-1.7 0-1.7s0-.9 1.2-1.4c.8-.3 1.2-.9 2-2 1.3-2.3 1.9-3.9 2.1-5.4a50.4 50.4 0 0 0 2.8-12c.1-2.3 0-2.7-.3-2.7-.5 0-1 1.2-1 2.4a27 27 0 0 1-2.7 9l-1 2.6c0 .8-.4 1.4-.8 1.9a30 30 0 0 0-4.5 7.4c0 .3.2.5.5.5.4 0 .5.1.3.9a16 16 0 0 1-1.8 4.5c-.6.7-1.1 2.1-1.1 3.2 0 .5-.1 1-.3 1-.4 0-2 3.5-2 4.7l-.3 1.8a12 12 0 0 0 0 4.2c.1.2.6.3 1.2.3.9 0 1.3-.2 2-.8zm-1.9-4.6c-.1-.2 0-.3.5-.3.4 0 .7 0 .8-.2.1-.2.4-.3.6-.3.4 0 .4 0 0 .4-.5.5-1.7.8-1.9.4zm79-3c.5-1 .3-1.5-.6-1.6-.7 0-1-.2-1-.6 0-.5 0-.6.4-.7.3 0 .4 0 .2-.1-.2 0-.4-.4-.4-.7 0-.4 0-.5-.4 0l-.5.3c-.4 0-1.2-.6-1.2-.8 0-.2-.2-.5-.5-.7-.3-.2-.5-.5-.5-.7 0-1-1.4-2.6-2-2.3-.6.2-.5.8.3 1.6 1.8 2 2.4 2.8 3.2 4.3 1.5 2.8 2.3 3.3 3 2zm-61-2c1-1.2.3-1.4-1.3-.5-1 .6-2.2 2.3-1.9 2.9.2.2 1.6-1 3.1-2.5zm-32.2 1.4c.8-.2 1-.6 1.6-2.6.4-1.4-.2-1.3-2 .6-1.8 1.7-2.2 2.6-1 2.3l1.4-.3zm32.8-4c.4-.2 1.2-1.1 1.7-2l2.1-2.8c1.8-2.2 2-2.5 2.4-3.5.3-1.1 1-2 2.7-4 1.3-1.4 3.6-5.6 3.6-6.5 0-.6-1.2-.2-2.9 1-1 .7-1.5 1.2-1.8 2a25 25 0 0 1-5.3 7.5 3 3 0 0 0-1.4 2.4l-1.3 3c-1.7 3.2-1.6 4 .2 2.9zm-31.2-4.3a10 10 0 0 0 4.6-4.7c.2-.5.1-.6-.2-.6-.3 0-1.2 1-1.9 2.2-.3.6-3.4 2.6-4 2.6a.7.7 0 0 1-.5-.3c-.2-.4-2.1-.3-2.4 0-.3.4-.2.6.4 1.1.8.7.9.7 1.8.4.6-.2 1.5-.6 2.2-.7zm-8.9-2.7c-.2-.2-.4-.2-.8 0-.4.3-.4.3.3.3.6 0 .7 0 .5-.3zm24-2.4c.3-.3.5-.9.5-1.3 0-.6 0-.6-.2 0 0 .3-.2.6-.3.6l-.5.6c-.3.8-.2.9.5.1zm9.7-1.3c.2-.2.4-.7.4-1.1 0-.5.2-1 .6-1.5a28.8 28.8 0 0 0 3-7.9V82l-.8.5c-.5.3-1 .9-1 1.3l-.7 2.1a20 20 0 0 1-1.2 3l-1.3 3.1-.5 1.4h.6c.4 0 .8-.1 1-.3zM344 91.5c2-1.4 3.8-2.9 3.8-3.3 0-.3-.4-.4-2.3-.2-1.3 0-3.1.3-4 .4l-4 .4c-2.5.1-3.8.4-4.2 1-.3.3-.2.4.5.7l1.6.3c.4 0 1.3.2 1.9.5 1.3.6 3 1 4.5 1 .7 0 1.3-.2 2.2-.8zm15.9.3c-.1-.3-.2-.2-.2.1 0 .3 0 .5.2.4v-.5zm13.3-1.3c.2-.5.2-1 0-1-.2-.4-.6-.1-1.3.9-.4.6-.5.9-.2 1 .4.5 1 0 1.5-1zm.8-3.3a4 4 0 0 1 1.3-1.5c1-.7 1.4-1.8 2-5.2.8-4.4-.3-4.2-1.7.3a67 67 0 0 1-1.7 4.6c-1 2.5-1.1 2.7-.6 2.7.2 0 .5-.4.7-.9zm7.4-1.6c.1-.4.3-1 .2-1.4v-.7l-.6.8c-.7.8-1 2.3-.3 2 .2 0 .5-.4.7-.7zm-30.7 0c.5-.5 1.4-2.5 1.2-2.5l-1.4 1-1.6 1.4c-.2.1-.3.4-.2.5.3.5 1.5.3 2-.3zm22.7-6c.9-1.3 1.1-2.3 1.8-8 .5-4.3.6-4.9 1.6-5 .7-.3.8-.7.3-2-.6-1.8-.8-1.8-1.4-.1-.3.8-1 2.3-1.7 3.2l-1.2 1.7-.2 3.6c0 2-.3 4.4-.6 5.4-.7 2.8 0 3.3 1.4 1.1zm13.3-3.6c.4-.8.3-1.5-.1-1.9-.5-.4-1 .4-1 1.8 0 1.2.5 1.3 1 .1zm-8.8-3c0-1.4-.4-1-.6.8-.2 1.1-.2 1.2.2.8.3-.2.5-.7.4-1.5zm-87.5-15.2c0-.3-.5-.4-.7-.1 0 .1 0 .2.3.2h.4zM337.7 47c.6-.4.3-1.4-1.7-4.9-2.2-4-2.5-4.9-1.8-5.2.8-.3 1.3.1 2.2 2.2 1 2 3.3 4.8 4 4.8.8 0 .6-.6-.8-2.5l-2.1-3.2c-1.2-2-1.3-2-3-1.8-1.4.2-1.6.3-2 1-.4.6-.6 1.2-.5 2.2 0 .7 0 1.5-.2 1.6v.6c.1 0 .2 0 .3-.2.2-.6 1.3-.3 1.9.5l1.4 2.2c.7.8.9 1.4.8 1.9-.2.9-1 .8-1.6-.1-.8-1.3-1.9-2.5-1.9-2s2.2 3.3 3.1 4l.7.5.5-.7.7-1zm-5.4-4.9c-.3-.3-.4.2-.2.8l.2.6V43c.1-.3.1-.7 0-.8zm206.4 267.2c-1.8-.1-4.4-.5-6-.8a23 23 0 0 0-6.3-.5l-1.7.2c-.4.2-2.7.2-5.5 0-4.1-.2-5-.4-6-.8-.9-.6-1.4-.6-6.1-.6-6.7 0-12-.3-14.6-.7-3-.4-9.2-1-13.6-1.3-2.1-.1-4.6-.3-5.5-.5-3.5-.6-6.6-.9-11.4-1-5-.3-11.2-.9-13.8-1.4-.7-.2-2-.2-2.8-.1-1.2.1-1.5 0-1.6-.3-.4-.9 1.5-1.2 6.4-1.2 2.5 0 4.8.2 7 .6 2.1.3 3.8.5 5.3.4 2.6-.2 9.2.2 12.7.7 1.4.2 3.7.4 5 .4 2.6 0 6.2.3 12.2 1 2.9.5 5.5.6 9.8.6 3.7 0 7.1.1 9.4.4a183.7 183.7 0 0 0 12.7 1.2l7.8.4c7.8 0 12.5.7 12.6 1.7 0 .8 0 1.2-.5 1.5-.5.4-.6.4-5.5 0zM285.4 284c-.7-.4-1.1-.5-2.1-.4-4.7.7-5 .7-5.9.3-1.3-.4-7.3-.4-9.8 0-1.7.4-2.1.4-4.2 0-2-.4-4-.5-7.8-.3-.7 0-2.3-.2-5.4-.9-.7-.1-6.4-.3-12.7-.3a205 205 0 0 1-11.7-.3 99.3 99.3 0 0 0-14-1.5c-2.3-.2-4.3-.4-4.6-.6-1-.5-4.3-.8-9-.8-4.1 0-4.9-.1-5.3-.5-.4-.4-.3-.4 1.4-.6a372.8 372.8 0 0 1 50.7 1.2l15.3.8c29.4 1.3 33.5 1.6 34.3 2.3.9.7.7 1.4-.5 1.5l-2.2.4c-.7.2-2.3.3-3.5.3-1.7 0-2.3-.1-3-.6zm-101.1-5.3-3.1-.3c-3.1-.1-4.4-.5-4.5-1.3-.1-.4.2-.4 4.2-.3 5.5.2 5.9.2 6.2 1 .3.5.2.7 0 .8-.5.2-2.7.2-2.8 0zm-2-22-5.3-.3a122.8 122.8 0 0 1-13.5-1c-1 0-2.4 0-3-.2-.7-.2-2-.3-3.1-.3-1 0-2-.2-2.1-.3-.4-.3.5-.7 1.2-.6l6.3.4 10.9.6 13 .3c8 0 9.1.2 8.8 1.1-.1.4-1.1.4-6.6.4l-6.5-.1zm377.6-.4-5.9-.5c-4.6-.4-5.3-.5-5.6-1-.5-.5.2-.6 3.6-.8 2.1-.1 4.4 0 7 .3 4.2.5 5.6.9 5.4 1.7 0 .5-1.3.6-4.5.3zm-445.8-2-9-.3a120 120 0 0 1-13.6-1c-.1-.4 14.6-.3 28.8 0l11.3.4c1.4 0 1.4.4 0 .7-1 .3-17.2.5-17.5.2zm21.6 0c-2.3-.1-2.7-.2-2.7-.6 0-.4.4-.4 5-.2a614.6 614.6 0 0 0 8.9.6c-.2.2-6.2.3-11.2.1zm12.3-.3h.6l-.3.1c-.4 0-.5 0-.3-.1zm419.5-.3-3.2-.6c-.7-.2-1.8-.3-2.5-.2-.6 0-2 0-2.9-.2a19 19 0 0 0-3-.4c-1.4 0-2.5-.5-2.5-1.2 0-.2.2-.4.4-.4 7.4-.1 10.8.2 14.2 1.3 2 .6 2.8 1.3 2.2 1.9-.3.3-.3.3-2.7-.2zm-20.8-2.9h.5c.1.1 0 .2-.3.2s-.4-.1-.2-.2zm13.5-2.6c-1.4-.2-2.8-.3-4-.2-2 .3-3.4 0-3.4-.6s1.5-2 2.1-2c1 0 2.4.8 2.8 1.5.1.4.3.6.4.6 2.2-1.3 2.7-1.3 6.4-1.1l4.2.2c1.8.1 2.1.2 2.5.6.4.4.4.5 0 .8-.3.4-.6.4-2 0a6 6 0 0 0-3.6.2c-2 .5-2.6.5-5.4 0zm-14.7-.3c-.6-.2-.4-1.9.3-2.3.7-.6.8-.5 1.6.2.3.4.8.7 1 .7.5.2 0 1.2-.7 1.4-.6.2-1.7.2-2.2 0zm-373.8-.6-8-.3a162 162 0 0 1-26-1.7c-4.3-.1-5.7-.4-5.7-1 0-.4 3.4-.4 11.8 0a2101.8 2101.8 0 0 0 23.8 1.4 57 57 0 0 1 13.7 1.2c.3.3.2.4-.6.5-1 .2-8.8.1-9 0zm21.8-3.1-7.4-.4c-6.8-.3-8.5-.5-7.6-1 .6-.4 7.9-.3 18.7.1 4.7.2 5.4.3 4.7 1a104 104 0 0 1-8.4.3zm382-.4a89 89 0 0 0-5-.2c-1.3 0-3.2-.2-4.2-.4l-3-.4c-2.6 0-3.7-1-2.5-2 .5-.4 1-.4 2.6-.3a8 8 0 0 1 3 .6c.7.4 1.6.5 4.4.6 5 0 7.2.4 7.8 1.1.3.5.4.7.1 1l-.6.3-2.6-.3zm-20.8-1c-1.1-.3-1.2-2-.2-2.2 1.2-.3 2-.2 2.7.5 1 .9.8 1.4-.3 1.7-1 .3-1.6.3-2.2 0zm-9-.6c-.6-.3-.9-1-.5-1.4.7-.8 2.4 0 2.3 1 0 .7-.8.8-1.7.4zm31.2-3.5a13 13 0 0 0-3.6-.2c-1.2.1-2.4.1-3.2-.1a98 98 0 0 0-15.2-1.6c-.6-.2-.6-1.2 0-1.7.5-.4 8-.2 11 .4 4.2.8 5 1 6.5 1 2.2 0 7 .7 7.6 1.1 1 .7.6 1.5-.8 1.5l-2.3-.4zm-418.4-.6c-2.5-.1-2.9-.3-1.9-.8.6-.3 1.6-.4 5.8-.2 5.9.2 6.8.3 6.6.8-.1.4-4.1.4-10.5.2zm387.1-1.7a1 1 0 0 1-.4-1c0-.6.2-.7.9-.6l1.7.1c1 0 1.7.8 1.2 1.3s-2.8.6-3.4.2zm33.6-1.9a84 84 0 0 1-6.2-.7 136 136 0 0 0-20-2c-.7-.1-2-1.4-2-2 0-.3.3-.3 4.7.1l6.8.7 4.6.7c.8.2 1.7.4 2 .3a73 73 0 0 1 12.5 1.4c2.3.3 3 .7 2.3 1.4-.2.3-.7.4-1.1.4l-3.6-.3zm4-6.3c-5-.4-8.1-.5-14-.6-4 0-6.1-.2-6.4-.4a13 13 0 0 0-3.4-.4l-4.8-.3c-1 0-3-.3-4.3-.5l-2.5-.5v-1.2c0-1.1.3-1.4.8-.7.2.4.4.4 1 .3.4-.2 2.3-.2 4.2-.2 5.3 0 11.4.5 19.8 1.4 1.3.1 4.2.3 6.5.3a48.4 48.4 0 0 1 8 .7c1.1 0 1.7.5 1.3 1.3-.2.3-.8.6-1.8.8l-1.7.3-2.6-.3zm-404-4.5c0-.2-1.2-.3-5-.1-5 .1-6.3 0-4.7-.7.7-.2 1.1-.3 2.3 0 .9.2 3.2.3 5.2.3 3 0 3.6 0 3.6.4 0 .3-.3.4-.7.4-.3 0-.6-.1-.6-.3zm-30.2-.4-4.9-.3c-6.5 0-10.9-.4-10.4-.9.1-.2 2-.1 5.4 0 2.8.2 10.2.4 16.3.5 9.5 0 11.3.2 11.7.5.3.3-.4.4-6.2.4a31.7 31.7 0 0 1-7.5-.4 15 15 0 0 1-4.4.2zm-22.4-1.3c0-.5.5-.5 1.2 0 .5.4.5.4-.3.4-.6 0-.9-.1-.9-.4zm6 .2h.5c.1.1 0 .2-.3.2s-.4 0-.2-.2zm15.8-2.9c-.4 0-.6-.3-.6-.4 0-.5 1.6-.7 4.4-.5 2 .2 2.7.4 2.4.7-.2.2-5.6.4-6.2.2zm8.7 0c-.6 0-1.1-.2-1.2-.5-.2-.3.2-.4 2-.4 2 0 2.8.2 2.8.6 0 .2-2 .4-3.6.3zm-29.5-.2s-1.2-.2-2.5-.2c-1.4 0-2.5 0-2.6-.2-.2-.4 2-.6 5-.4a193.3 193.3 0 0 0 4 .4c-.3.3-3.7.6-3.9.4zm6.6 0c-1.5-.3-.7-.7 1.3-.7 1 0 2 .2 2 .3 0 .5-1.4.6-3.3.4zm4-.1c0-.5 1-.6 5-.6 3.7 0 4.3.1 4.3.4 0 .4-.7.4-4.6.4a23 23 0 0 1-4.7-.2zm23-.1c-.2-.4-.1-.5.9-.5l7-.1h10.2c3 .2 4 .3 4 .6 0 .4-2.2.5-2.6 0a223.7 223.7 0 0 1-19.4-.1zm-40.7-.4h.5c0 .1-.1.2-.4.2-.3 0-.3 0-.1-.2zm457.2-1.8c-3-.2-6-.4-6.9-.6h-5a253.5 253.5 0 0 1-18.5.1c0-.4 1.3-.6 4.6-.6 3.8-.1 5.3-.3 5.7-1 .5-.5 1-.5 14.3.1 10.7.5 13.6 1 12.7 2-.2.3-.6.4-.9.4l-6-.4zm3-4.5c-.2-.3-12-.6-22.4-.6-5.1 0-9-.1-9.2-.3-.3-.2-.3-.3.2-.6.4-.3 1.3-.4 3.3-.5 19.6-.2 20-.2 29 .5 2.6.2 3.4.7 2.5 1.3-.4.4-3 .5-3.3.2zm-432.6-1.6c-.5 0-.9-.2-.9-.3 0-.6 4.7-.7 14.9-.4 3.6.1 4.6.2 4.4.5a323.7 323.7 0 0 1-18.4.2zm-24.5-.3c-1.3-.2-1.8-.3-1.8-.6 0-.2 1.5-.2 4.6-.1l10.7.1c6.3 0 8.4.2 8.1.6 0 .2-20.3.2-21.6 0zm-4-.3c-.7-.5-.2-.8.9-.7 1.2.3 1.3.4.8.7-.5.3-1 .3-1.7 0zm-7.5-.5c-.5 0-.8-.2-.8-.3 0-.4 1.9-.2 2 .2l-.1.3-1-.2zm-98.3-4.5c-.3-.4.5-.8 1.8-.9 1 0 1.3 0 1.4.4 0 .2-.1.4-.5.5-1 .3-2.6.3-2.7 0zm9.5 0c-.7-.5-.5-1 .7-1.4 1.2-.3 2.6-.1 3.1.4.2.3 0 .4-1 .8-1.4.5-2 .5-2.8.1zm8.5-.5c-.7-.2-.5-.8.2-1.1 1-.4 3-.4 3.2 0 .5.7-2 1.5-3.4 1.1zm19.7-1.4c0-.3.6-.5 1.9-.5.7 0 1 0 .9.3-.1.4-2.8.6-2.8.2zm36.4-1.2-5.3-.3c-2.8 0-7-.2-9.2-.4a151 151 0 0 0-7.8-.2c-3.7 0-4.5-.2-4.3-.8.1-.3 1-.4 5.3-.3 2.8 0 5.3.2 5.5.3a7 7 0 0 0 2.3 0h3c5.2 0 7 0 8.5.4 1.4.3 2.3.3 4.3 0 3.9-.4 7 0 6 1-.3.3-8 .6-8.3.3zm73.2-1.3a9.8 9.8 0 0 1-.4-4.5c.1-.4.3-.6.3-.4 0 .8.5 3.9.7 4.7.2 1-.3 1.3-.6.2zm-10.5-.4c-.5-2.5-.3-5 .3-4.6.3.1.3 4.4 0 4.9-.1.2-.2.2-.3-.3zm-16-.9c-.7-.3-1.3-1.2-1.5-2.3-.2-1-4.2-5.5-4.9-5.5-.3 0-.5-.4-.8-1.6l-.3-2.3c0-.4 0-.6-.2-.4 0 .2-.5.8-.9 1.2a14 14 0 0 0-2.3 4.3c0 .1-.2.4-.5.5-.4.2-.6.7-.6 1.1 0 .4-.2 1-.4 1.4-.2.4-.4 1-.4 1.4 0 1-.5 1.8-1 1.8-.3 0-.7-.3-1-.7-.5-.5-.7-1-.9-3.5a20 20 0 0 0-.4-3.3c-.1-.2-.2-.9-.1-1.6 0-.7-.2-1.7-.4-2.2-.6-1.3-.6-4.5 0-5.3 1.2-1.9 3-2.7 3.5-1.8.2.4 0 .8-.9 1.8-1.6 1.8-1.9 3-1.2 4.4.4.6.6 1.6.6 2.4 0 1.6.4 3.4.8 3.4.7 0 1.8-1.2 2.4-2.7.3-.9 1-2 1.6-2.6.9-1 1-1 1.5-.8.4.2.7.3.8.2 0-.1.2-2.2.2-4.6 0-5.6.4-5.9.7-.5.1 2.2.2 4.5.1 5 0 1 0 1 .8 1.3.7.3 1 .6 1.1 1.3.3 1 2 3.6 2.8 4 .6.4 1 0 1-1l-.3-3.8V185c.3-.3 2.8-.2 3.3.2.1.2.4.3.5.3.5 0-.2-1.3-1.4-2.7-.6-.6-1-1.3-1-1.5-.1-.5.6-1 1.2-.7.7.2 2.7 2 2.7 2.3 0 .6 1 1.5 1.7 1.5l.7.2a68.1 68.1 0 0 1 2.3 3.9c0 .3.6.8 1 1l.9.8c0 .5-1.4.5-2.3 0-.7-.3-1.1-.3-1.4-.1-.3.1-.6.2-.8 0a6 6 0 0 0-1.1-.3c-1-.3-1 .3 0 1.4.7 1 1.3 1 1.4.2.1-.4.2-.4.2.3 0 .4.2.8.3.8.3 0 .2.1 0 .3-.3.2-.4.3 0 .7 1 1.5 1.3 3 .6 3.9-.3.4-.4.4-.7.2l-.6-.9c0-.3-.3-.5-.5-.5a5 5 0 0 1-1.7-1.2c-1-1-2.5-2-2.8-1.7-.3.3-.2 3.4.1 4.1.5 1 .2 2.3-.4 2.3l-1.2-.4zm1.4-8.8c.2-.3-.9-2.1-1.1-1.9-.2.2.5 2.3.8 2.3 0 0 .2-.1.3-.4zm4.3-3.2h-.5c-.2 0-.2.2.1.2.3 0 .5 0 .4-.2zm-43.8 11.7c-1.2-.4-1.4-1-.4-1 1 0 2.2 1 1.6 1.2-.2 0-.7 0-1.2-.2zm-96.2-1c-.4-.4-.4-.6-.1-.9.2-.3 1.1-.4 4-.4a25.5 25.5 0 0 0 6-.4c.6 0 .6 0 .1.5-.3.4-.7.5-1.2.3l-1.1.1c-.4.3-3.2.9-5.6 1-1.3.2-1.8 0-2.1-.3zm580.2-1.2.4-.4c.2-.2.2-.1.3.2 0 .2-.2.4-.5.4-.2 0-.3 0-.2-.2zm-548.2-.6c-.3-.4 0-.8.7-.8.3 0 .5.2.4.5 0 .5-.9.8-1.1.3zm78-.8-1.8-1.6-4-2.9c-2.8-1.9-4.8-3.6-5.4-4.9-.3-.6-.3-.7 0-1 .5-.5.6-.4 1.8.8a23 23 0 0 0 3.1 2.6 30.2 30.2 0 0 1 4 3c.4 0 3.8 3.5 3.8 3.9 0 .6-.7.7-1.5 0zm40.3-1.3c-.1-.1 0-.3 0-.4.2 0 .3 0 .3.3 0 .4-.1.5-.3.1zm-37.6-4-5.2-5.5c-2.4-2.5-4.5-5.4-4.5-6.3 0-.5.2-.6.7-.6.5 0 .8.2 1.1 1 .3.5 2.6 3.2 5.1 5.9 5 5.4 6.6 7.4 6.6 8.2 0 1.1-1 .4-3.8-2.7zm33.4 2.8v-.5c.2-.1.3 0 .3.4 0 .6-.1.7-.3.1zM94 191.5a12 12 0 0 1-1.4-1.8c-.4-.7-.7-1-2.6-2.3-1-.6-1.2-.6-2-.4-.6.2-.9.2-1.1-.1-.3-.4-.4-1.9-.2-2.1l1.5-.2c1.2 0 1.5.1 2.1.7.4.4 1 .7 1.1.7.3 0 .8.4 1.3 1 1.7 1.8 2.4.6 1.1-2l-.8-2c0-.2.5-.8 1-1.4 1.2-1.3 1.7-1.3 2.5 0 .7 1 .5 1.8-.4 2.2-.6.3-.7.5-.6 1l.3 3.9c0 1.8.2 3.4.2 3.5l-.4.4c-.3 0-.9-.4-1.6-1zm56.2-1.3c0-1 0-1.7.1-1.4.1.4.2.6.4.6 0 0 .2.6.2 1.4 0 1 0 1.3-.4 1.3-.3 0-.3-.4-.3-2zm-4.4 1.1-.1-2.3c0-1.1 0-2.5-.2-3-.2-.8.2-1.1.6-.5.3.5.4 6 .1 6a.6.6 0 0 1-.4-.2zm4.2-4.8c-.1-.2-.3-1.8-.3-3.5-.1-2.8 0-3.2.3-2.8.4.5.9 6.2.4 6.4-.1.1-.3 0-.4-.1zm-100.7-2c0-.3.2-.6.3-.6.2 0 .3.3.3.6 0 .4-.1.7-.3.7-.1 0-.3-.3-.3-.7zm91.3-.5v-1.9a652.2 652.2 0 0 0 .2-2.1s.2 1 .2 2.1c.2 1.8 0 2.4-.4 2zm-54-.5c0-.3.1-.4.2-.2v.5l-.1-.3zm47-.6c-.5-.4-.5-1.3 0-1.5.1-.2.1-.3-.1-.4-.5-.3-.6-5-.1-5 .4 0 .7.8.3 1.2-.3.3-.3.7.3 3.8.2 1.5 0 2.5-.5 2zm-59.2-1c-.4-.4-.1-.9.9-1.5a6 6 0 0 1 1.3-.7 6 6 0 0 0 1.3-.8c.6-.5 1.3-.8 1.6-.8.8 0 1.6-.5 1.6-1 0-.2.4-.8 1-1.3l.9-1-.2-2c-.1-1.6 0-2 .3-2 .5-.3 1.6.5 2.2 1.5.5.8.5.9 0 1.8-.3.5-.6 1.3-.6 1.8 0 1.2-.3 1.6-1.1 1.6-.4 0-.9.4-1.4 1-.4.5-1 1-1.4 1-1.7.3-3 .9-3.8 1.7-.5.6-1 .8-1.6.8l-1-.1zm71-3c0-.5.1-.7.2-.4v1c-.1.3-.1 0-.1-.5zm-58.5-.7-.2-1.6c0-.6.7-2.8.7-2.3 0 .2.5 1 1 1.7 1 1.5 1 2 0 2.5-.5.1-.9.3-1 .5-.1.1-.3-.3-.5-.8zm58-2.4v-2.2c.1 0 .2.1.2.5 0 .3.1.5.3.5.3 0 .6 1.7.4 2.5-.3 1.2-.6.7-.8-1.3zm-17.7.4c-.5-.5-.5-4.3 0-4.2.4.2.9 3.3.5 4-.1.4-.2.4-.5.2zm13.3-.4c-.2-.3-.2-1.4.1-1.4.2 0 .3.3.3.8 0 .8 0 .9-.4.6zm46.5-2.4-3.4-2.3-2.5-2-3-2.8c-1.3-1-1.4-1.2-1.1-1.6.3-.5.5-.4 1.9 1.1.8 1 1.6 1.7 1.8 1.7l1.4 1c.7.6 1.3 1.1 1.5 1.1.2 0 1 .5 1.7 1.1.7.6 2 1.6 2.9 2 1.8 1.1 2.7 2 2.5 2.2-.3.6-1.4.1-3.7-1.5zm-53.7-.1c0-.8 0-1.1.1-.7v1.4c0 .4-.1.1-.1-.7zm11.5-2c-.2-.2 0-.6.3-.6.2 0 .3.1.3.4 0 .4-.3.5-.6.2zm-79.3-.8c0-.3.2-.4 1-.4 1.1 0 1 .7-.2.8-.6 0-.8 0-.8-.4zm6 0c-.5-.2-.9-.4-.9-.6 0-.3.6-.5 2.3-.7 2.5-.3 3.4-.2 3.6.3.3.7-.7 1.2-2.5 1.1-1 0-2.1 0-2.6-.2zm65-.3v-.1.5s-.1 0 0-.4zm114-.1c-.9-.1-3.5-.2-6-.1-2.5 0-5 0-5.8-.2l-13.3-.3a491 491 0 0 1-13.9-.3c-2.7-.2-3.8-.9-2.8-1.7.3-.2 2.1-.3 7.3-.2l24.8.7c3.9.1 9 .2 11.5 0a72 72 0 0 1 6.6 0 70.4 70.4 0 0 0 13-.8c1-.5 1.1-.5 1.5-.2 1 1-.7 2.4-3.5 3-1.3.3-17.4.3-19.5 0zm-123.6-1.2c0-1.2 0-1.4.4-1.2.2 0 .3.2.1.3-.1 0-.3.6-.3 1.2-.1 1-.2 1-.2-.3zm-.1-3v-2.4c.2-2 .3-2.1.3-.7 0 .8.1 1.8.3 2 .3.5-.3 1.7-.6 1.2zm-27.2-1.8c-1-.5-1-1.1 0-1.1s1.9.4 1.9.9-1 .6-1.9.2zm123.3-.6-11.8-.2c-8.5 0-9.2-.1-8.6-1.1.5-.7 9-1 21-.5l11.6.5c2 0 3.5.6 3.2 1.2 0 .3-1 .4-6 .3l-9.4-.2zM49 163c-1.3-.4-1.4-1-.1-1.5 1.2-.6 1.4-.6 2 0 .4.5.4.6.1 1-.6.7-1.1.9-2 .5zm91.2-.8c0-.3 0-.4.2-.2v.5c-.1.1-.2 0-.2-.3zm-39.4-.6c-.2-.2-.2-.3 0-.5.3-.3.5-.3.7 0 .3.3.3.4 0 .5h-.7zm26.2-1.5c0-.3 0-.4.1-.2v.5l-.1-.3zm32.8-2.2a27.6 27.6 0 0 0-5.2-5.5c-2.8-2.4-6.3-6-6.8-7.1-.1-.4-.5-.7-.7-.7-.5 0-1-.7-.6-.9.2 0 .4 0 .5.2l1 1c.5.2 2.4 1.8 4.2 3.5 1.7 1.8 3.6 3.4 4.2 3.6 1 .6 1.2.8 2.3 2.8.5.9 1.3 2 1.8 2.5.9.8 1 1.4.2 1.4-.2 0-.6-.4-.9-.8zm-32.8 0c0-.4 0-.6.1-.4v.7-.3zm-76.8 0c-.3-.4 0-3.3.4-3v1.8c-.1.9-.3 1.4-.4 1.3zm76.8-1.4c0-.3 0-.5.1-.3v.7-.4zM50.5 149l.1-4.3c0-.3.2-.5.3-.5.2 0 .3 1.5.2 4.3-.1 4.9 0 4.4-.4 4.4-.2 0-.3-1.3-.2-3.9zm22.3-1.8a26 26 0 0 0-3.7-3.6c-.3-.2-.5-.1-.6.2-.3.7-1.4.5-2.2-.4l-1.6-2a34.4 34.4 0 0 1-5.3-8c0-.2-1.3-3.2-2-4.2l-.4-3.5c-.2-3.5-.6-4.9-1.6-5.6l-6-4.5c-.6-.4-1-1-1.3-2-.2-.7-.6-1.5-.9-1.8-.5-.7-2-3-2-3.2l-.8-1c-.4-.5-.6-1-.6-1.9a19.7 19.7 0 0 1 1.6-6.7c.4-1.5 1.6-3.4 2.3-3.6.3-.1.7-.5.8-1 .5-1.5 1.3-2 2.7-2 1.2 0 1.4 0 2.4 1 .7.6 1.4 1.3 1.8 1.5.3.2 1 1 1.4 1.8l1.5 1.9a27 27 0 0 1 2 2 30 30 0 0 0 5.3 5.4c1.8 1.2 2.3 2.2 1 2.2-1.2 0-4.1-2.3-5.6-4.5l-1.3-1.6-1.1-1.2c-1.6-2.2-2.3-3-2.7-3-.6 0-.6 0-.2 1.5a6 6 0 0 0 1 2l.6 1 2 2.7c2 2.5 2.4 3.4 1.5 3.4-.6 0-1.9-1.4-4.2-4.5-1.7-2.3-2-2.7-2.2-4.4-.3-2.2-1.7-5.3-2.4-5.5-1-.4-1.7.2-2.4 2a8 8 0 0 1-1.5 2.7c-.8.8-2 3.2-2.3 5-.3 1 .5 3.3 1.3 4.2l1.3.9c.8.2.8.3.7 1.4 0 1.3.9 3.7 1.5 3.7.1 0 .7.5 1.1 1.1.5.6 1.6 1.6 2.5 2.3 3 2.4 3.9 3.2 3.9 4.2 0 .5 0 1 .2 1 .5.3.7 3 .4 4.2v1.3a265 265 0 0 0 5.8 11.2c.2.5.6 1 .9 1 .4 0 .5 0-.2-1.3-.6-1.4-.6-1.9 0-2.2.5-.3 1.3.2 1.3.9 0 .2 1 1.3 2 2.5l2.8 3.4c.4.6 1.3 1.5 1.8 2 .7.5 1.1 1 1.1 1.4 0 .9-.7 1-1.4.2zm-6.4-6.6c-.2-.2-.4-.3-.4-.1 0 .4.7 1 .8.8 0-.2-.1-.5-.4-.7zm-36.5 4v-1c.2-.4.3-.4.6-.2.4.4.4 1 0 1.3-.3.2-.4.2-.6 0zm113.7-3c-3.3-3.3-5-5.3-4.5-5.3l1 .8.9.7c.3 0 2.1 2 2.6 2.9l1 1.4c.4.3.5.5.3.5-.1 0-.7-.4-1.3-1zm-61 .4c-1-.4-3.3-2-4.6-3.2-1-1-1.5-3-1.2-4.4.3-1.1 1.3-1.7 3.1-1.7 2 0 3.5 1.2 4.6 3.4 1 2 1 2.4.2 2.1a8 8 0 0 0-1.5-.2 10 10 0 0 1-1.6-.3h-.8c0 .5 1.8 2 3 2.5 1 .4 1.3.7 1.3 1.2 0 .4-.2.7-.6.8-.8.2-.7.2-1.8-.2zm-52.5-3.2c.1-1.5.3-2.8.5-3 .2-.1.2.5 0 2.4 0 1.5-.2 2.8-.4 3-.2.1-.2-.6 0-2.4zm8.5 1.1.3-4.6c.1-2.9.2-3.5.5-3.3a59.5 59.5 0 0 1-.6 9.3c-.3 0-.3-.3-.2-1.4zm166.8-4.6c0-.2.3-.4 1-.4.8 0 1 0 .6.4-.1.3-.6.4-1 .4-.3 0-.6-.1-.6-.4zm9.9 0c-2.2 0-4-.2-4-.3 0-.4 2.8-.6 11.2-.8 22.4-.4 22.8-.4 23.5 0 1.7.9.6 1-13.2 1h-17.5zm-190.6-3.8a372.7 372.7 0 0 1 .5-25c0-.8.7-.3.9.7v5a877.4 877.4 0 0 0-1 19.7l-.2 1.6zm5.9 1.7v-7.7c0-.9 0-1.4.2-1.3.2.1.3 1.2.3 2.5 0 2.3-.4 7-.5 6.5zm68-3c-.3-.2-.4-.4-.1-1 .5-1 0-2-1.3-2.6-1.1-.5-1.8-.4-1.8.4 0 .2-.2.5-.4.6-1.5.6-1.8-3.5-.3-5 .8-1 2.7-.9 3.6 0l.8 1 .7 1.3c.9 1.3 1 4.1.2 5-.5.6-.8.7-1.4.3zm11.6-1.2c-.2-.2-.4-1.1-.6-2l-.7-4c-1.3-5.8-1.3-5.7-1.1-7.6 0-.4.7-.4 1.2.1.3.3.4.7.3 1.2 0 .3 0 1.5.4 2.5l.6 3.6c0 1 .3 2.3.6 3.1.4 1.9.5 2.8 0 3.2-.3.2-.4.2-.7 0zm109.8-2.8-1-.2 1.2-.3c2.2-.6 7.5-.2 6.4.5-.4.3-5 .2-6.6 0zm233-2.4.2-3.9c.1-3 .3-3.7.7-3.7.2 0 .2.5.2 1.5l-.4 4a7.6 7.6 0 0 1-.6 3c-.3.3-.3.1-.1-.9zm38.5-.7c-1.6-.3-1.1-1.5.7-1.8l7.9-.3 7.9-.2 8.6-.4a436.3 436.3 0 0 0 20.1-1l2.2.1c.3.5-1.8 1.1-3.6 1a305.7 305.7 0 0 1-43.9 2.5zm-460.5-9c0-6.5.2-7.5.7-7.5a95.3 95.3 0 0 0-.3 10.6c0 2-.2 3.5-.3 3.5-.2 0-.2-2.5-.1-6.6zm425 3.9c-.7-.4-.6-1 0-1.3l6-.6c8.7-.5 10.6-.6 16.9-1.4a235.3 235.3 0 0 1 28.2-2l6-.5c4-.2 5.3-.1 5.3.4 0 .7 0 .7-7.4 1a408.4 408.4 0 0 0-26.2 2.3l-19 1.8c-3.4.5-9.3.6-9.9.3zm-2.5-3.8v-1.4c.1-1-.6-1.4-3-1.2-1.3 0-2.4.2-2.6.3-.5.5-2.2-.7-2.2-1.5 0-.3 0-.6.2-.6.6 0 .8-1.2.4-2.4-.5-1.6-1.4-6.5-1.4-7.6 0-1 .6-1.1 1-.1a51 51 0 0 1 1.4 8c0 .4.2 1 .5 1.3.4.6.7.7 2.5.6 2.8-.1 3.2-.3 3-1.9-.2-1.4.2-2.4.5-1.3v1.5c-.2 1 .4 1.4 2.2 1.4 1.6 0 12.5-.7 14.2-1l9.4-.6a777.9 777.9 0 0 0 23.2-1.5l3.5-.2a175.3 175.3 0 0 1 15.6-.7l.6.2h-.7c-.4 0-.7.2-.8.3-.2.3-2.7.6-5.2.7l-2.5.3c-.6.2-3.4.5-6.2.6a103.6 103.6 0 0 0-13.5 1 2374.4 2374.4 0 0 0-36.3 2.7c-1.3 0-2.2.2-2.5.4-.4.3-.5.6-.6 2.7 0 .8-.5.8-.7 0zm89.3-2.1c-.3-.4-.2-.5.4-.6l1.3-.3c1.7-.4 19-1.2 20.8-1 2.9.5 1.6 1.4-2.1 1.6l-19.3.6c-.4 0-1-.1-1.1-.3zm-437.2-1.7v-1.1l.2-1 .4.8c.3.7.3.8 0 1.2-.3.2-.5.2-.6.1zm-37.5-2.7-.2-.9-.8-1.3c-.8-1.1-1.1-2.6-.5-3 .1 0 .7.2 1.1.7 1 .9 1.6 2.9 1.4 4.2 0 .8-.6 1-1 .3zm34.9-.2c-.7-.4-1.2-1.3-1-2 .2-.5 2 1.2 1.8 1.8 0 .5-.2.5-.8.2zm-71.5-2.3c-.2-.8-.1-1.5.3-1.7.4-.1.5 1.5 0 2-.1.4-.2.3-.3-.3zm492.5 0c0-.3.2-.4.7-.4.8 0 .7.6-.1.7-.4 0-.6 0-.6-.3zm-416.6-.9c-.3-.4-.7-1-1-1.2-.4-.3-.8-1-1-1.5-.2-1-4.2-5.3-4.8-5.3-.3 0-.7-1-.5-1.6.1-.6.5-.6.8-.2 0 .2.6.7 1 1 1.6 1 4.6 4.3 5 5.3l.4 1.6c0 .5.3 1 .6 1.4.4.4.7.8.7 1 0 .5-.8.2-1.2-.5zm419 .5c.5-.4 1.2-.4 1.4 0 .1.1-.2.2-.8.2-.8 0-1 0-.6-.2zm7.9 0c-.6 0-1-.2-1-.3 0-.5 1.1-.8 5-1a109 109 0 0 0 11.4-1.2c2-.2 4.4-.6 5.3-.8 1-.2 2.7-.5 3.8-.5 1.7 0 1.8 0 1.8.5 0 .6-2 1.4-4.8 1.7a116.8 116.8 0 0 1-15.3 1.3c-1.6.3-4.9.5-6.2.3zm-464.5-1.5c0-.6 0-.8.1-.4v1l-.1-.6zm30.6.2c-1-1.1-1.7-3.2-1-3.6.4-.3.9.6 1.2 2 .2.9.5 1.6.6 1.7.3.2.3.7 0 .6a3 3 0 0 1-.8-.7zm-75.2-.4a47 47 0 0 1 .4-12.7c.1-.2.4-.1.6.2.4.5.4 1 .2 3l-.2 5.2c-.1 5-.1 5-.5 5-.2 0-.5-.4-.5-.7zm71.1-.1c-.2-.3-.4-.7-.4-1 0-.5-.6-.7-1-.2-.4.7-1 .2-1.6-1.2l-1-2c-.2-.5-.3-.9 0-1.4.2-.7.2-.7.7-.2.3.2.5.7.5 1 0 .5.5 1.4 1 2 .3.3.4.2.4-.3 0-1.5.6-1 2 1.6l.7 1.8c-.2.5-.7.4-1.3-.1zm-24-1.3c-.9-1.9-1.3-3.4-1.5-4.9a7 7 0 0 0-1-2.5l-.8-2c-.2-1-1-1.9-2.4-2.5-1.2-.5-1.1-1 .3-5.4 1-3 2.8-5.3 4.2-5.3 1 0 3.8 1.1 4.6 1.9.6.4 1.1.8 1.3.8l1.1.6c.5.4 1.5 1 2.3 1.2a7 7 0 0 1 2.1 1.3l1.9 1.7c2.3 2 5.9 7.2 6 8.8l.3 2.2c.5 1.6.3 2.7-.2 2.7-.2 0-.4-.3-.4-.6-.2-2-.3-2.9-.7-3.9a24.4 24.4 0 0 0-5-7.6l-1.2-1.4c-.5-.8-2.4-1.6-3.6-1.6-.3 0-1-.4-1.4-1-.5-.5-1.5-1.2-2.1-1.5-1.3-.8-4.4-1.6-5-1.3-.3 0-1 .6-1.5 1.3-2 2.5-2.6 5.2-1.2 5.9 1 .4 1.2.7 1.9 2.7.3 1 1 2.2 1.4 3 .5.6 1 1.4 1 1.7.1.3.8 1 1.6 1.7.9.8 1.3 1.3 1.1 1.6 0 .3-.3.4-.8.3-1.4-.4-1.6-.3-1.5.4.5 2.4-.1 3.4-.9 1.7zm-2.8.1c-.4-.5-1-3.3-.7-3.6.4-.4 1.2 1 1.2 2.5s0 1.6-.5 1.1zm11.3-2.6c-1.5-.3-4.7-2.8-6.4-5.1l-1.6-2c-.9-.8-1-1.8-.4-3a3.4 3.4 0 0 1 4.5-1.7c1.6.7 1.5 1.9 0 1.3-.8-.3-2.2 0-2.7.6-.5.7 0 1.3 1.2 1.5 1 0 1.2.3 2.4 2 1.2 1.8 3.3 4 5.1 5.4 1.2 1 .1 1.5-2.1 1zm11.6-3.1v-.5c.5-.2.8.1.4.5-.2.2-.3.2-.4 0zm3-5.3-.6-1.6c0-.3-.6-.7-1-1-.6-.1-1.4-.9-2-1.6-.5-.7-2-2.2-3.1-3.3-1.2-1-2-2.1-2-2.3.2-.6 3.8 2.7 6.8 6 .7.8 1.4 1.4 1.7 1.5.6.2 2 2.4 1.9 2.9-.3.8-1.2.5-1.6-.6zm345.6-.3c-1-.1-1.6-.3-2-.8-.9-1.1-.4-1.2 5.6-1.1 5.6 0 20.5-.7 27.8-1.5 1.6-.1 2.7 0 2.7.6s-.3.7-2.4.8a272 272 0 0 1-19.6 2c-3.8.3-10 .3-12.1 0zm-8.2-7c-.7-.2-.8-1-.2-1.5.5-.4 6.7-1 12.8-1.3 2.7 0 5-.2 5.2-.3a238.8 238.8 0 0 0 17.7-1.9c.9 0 2-.2 2.5-.3 1-.2 1.8.1 1.5.8 0 .2-.5.4-1.2.4-.5 0-1.3 0-1.8.2-1 .3-4.4.7-8.8 1-2 .2-4.7.6-6 .9-2.4.4-7 1-7.6.8l-2.8.4-5.6.5-4 .4a4 4 0 0 1-1.7 0zM85 79.9c-1.4-1-1.7-1.7-.9-1.7.5 0 2.2 1.5 2.2 2s-.3.4-1.3-.3zm-5.4-5.6c-7.4-7.2-9.4-9.4-8-8.6.6.3 2.8 2.4 3.8 3.6l1.9 1.7c1.6 1.3 4.7 4.4 5.7 5.6 1.5 2 .3 1.2-3.4-2.3zm172-1.3c0-.3.1-.4.2-.2v.5l-.1-.3zm-14.9-.7.1-.4c.2 0 .3 0 .3.3 0 .4-.2.5-.4.1zm15.5-.2.4-.7c.2-.3.4-.3.4-.1l-.4.7c-.3.2-.4.3-.4 0zm1-1.6a80.7 80.7 0 0 1 3.7-9c.8-3.5 1-4.3 1.4-3.7.3.5-.3 2.4-.7 2.5-.3.1-.3.3-.1.6.2.5-.1 1.8-.6 2.6l-.6 2-1.1 2.9c-.8 1.3-2 2.6-2 2zm-17.5-.8c-.2-.2-.2-.4 0-.5.2-.2.4.1.3.5-.1.3-.2.3-.3 0zm174.5-.3c-1.2-.2-1.4-.5-1.4-1.3 0-1 0-1 5.8-1.2a62.4 62.4 0 0 0 12-1.2 214 214 0 0 0 17-2.4 73.5 73.5 0 0 0 7.1-1c3.2-.4 11.1-1.7 14.8-2.4 1.4-.3 3.6-.6 5-.7 1.2 0 3-.4 4-.6 1-.3 3.1-.6 4.6-.8l6.2-.8a649.2 649.2 0 0 1 17.6-2.7 223.1 223.1 0 0 0 13-1.8l4.4-.7c3.3-.6 6.1-.6 6.7 0 .8.7.1 1-3.8 1.4a179.3 179.3 0 0 0-14.2 1.7c-2.8.3-4 .5-8.1 1.3a221.7 221.7 0 0 1-18 2.9l-3.8.7a232 232 0 0 1-17.4 2.5 2031.3 2031.3 0 0 1-21.5 3.3 47 47 0 0 1-9.4 1.6l-3.2.4c-1.5.1-3.1.3-3.6.5a139 139 0 0 0-7.7 1 24 24 0 0 1-6 .3zm-145.4-7c-.1-.1.5-1.5 1.3-3 .7-1.5 1.7-3.8 2-4.9l.7-2 .2 1c.1 1-.5 3-1 3 0 0-.2.3-.2.8 0 1.5-2.4 5.7-3 5zM65 61.5c-.4-.4-.1-1.5.5-1.9.8-.5 1.5-.3 1.5.6 0 .9-1.4 1.8-2 1.3zm100.1-1.3c0-.4 1-.6 5.2-.8 2.3-.2 3.1 0 1 .2-.6 0-1.2.2-1.4.3a6 6 0 0 1-1.8.3c-.9 0-1.8.1-2.2.3-.6.1-.8 0-.8-.3zm78.2-.1c-.3-.3-.4-.6-.3-.7.2-.2 1.2.6 1.2 1s-.4.2-.9-.3zm-68.6-1.2c0-.2 1-.4 1.2-.1 0 0-.2.2-.6.2l-.6-.1zm100.2-.2c-.1-.2.3-1.2.8-2.3.6-1 1.3-2.6 1.5-3.5l.7-1.6c.1 0 .2-.2.2-.5s.1-.5.2-.5c.2 0 .3-.5.3-1.1 0-1.6.5-2.9 1-2.7.5.2.3 1.2-.3 2.5l-.4 1.2c0 .2-.1.3-.3.3a25.2 25.2 0 0 1-2 6.5c-.7 1.3-1.6 2.1-1.7 1.7zm-96.9-.4h.6c0 .1-.1.2-.4.2-.3 0-.4-.1-.2-.2zm1.1-.2c.4-.5 2.5-1 4.4-1l1.6-.2 1.9-.4 3.4-.4c2.6-.4 7.7-.9 9-1 1 0 1.5.5.8.8l-4.6.4c-2.9 0-4.4.2-5 .5-.5.2-2 .5-3.2.5l-2.8.4c-.7.3-2 .5-4.1.7-1.6.1-1.7.1-1.4-.3zm78.9-1 .4-.5c.2-.2.4-.2.4 0l-.4.4h-.4zM62.8 55.8c-.3-.3-.3-1.3 0-1.5.2-.1.4 0 .4.2.2.4-.2 1.6-.4 1.3zm195.8-1c0-.6.1-1.2.3-1.2.3 0 .3 1.6 0 2.1-.2.3-.3 0-.3-.8zm-122.3-1.4h1l-.5.1h-.5zm-66.2-.4v-.6A91.5 91.5 0 0 0 80.4 51c6.9-1.4 7.3-1.4 7.3-.9 0 .7-1.3 1.1-3.6 1.3l-3.4.6c-2 .6-5.6 1.1-8.2 1.3-2 .2-2.3.2-2.4-.2zm199.1-2c0-1.5 0-1.7.3-3.3l.6-5.3c.7-6.4.7-6.4 1-6V40a151.8 151.8 0 0 0-.7 6.3l-.3 2a10.4 10.4 0 0 1-.7 3.4c0 .3-.2 0-.2-.6zm126.1.2c-.5-.3-.5-1 0-1.3a32 32 0 0 1 6.6-1 102 102 0 0 0 11.1-1.2l5-.7c4-.7 11.2-1.7 16.2-2.4 3-.4 5.1-.3 5.1 0 0 .5-3.3 1.3-4.9 1.3l-2 .3A93.5 93.5 0 0 1 422 48c-.4.2-5 .9-8 1.2l-5.4.8a162.2 162.2 0 0 1-13.2 1.3zm-334.7-.5c-.5-.7-1-2-.9-2.6 0-.3.3 0 .7.8.6 1.3.7 2.5.2 1.8zm29.6-1.3c-.2-.3 1-.7 1.6-.5.3.1.4.3.3.5-.2.3-1.7.3-1.9 0zm6.5-1.5.7-.4c.4 0 .4.1.1.4l-.7.4c-.4 0-.4 0-.1-.4zm7-1.6c.4-.4 4.3-.7 4.5-.3.1.1-.5.2-1.3.2s-1.5.1-1.6.3l-1.1.2c-.9 0-1 0-.6-.4zm6.6-1.2c-.1-.2 1-.8 1.6-.8.5 0 .5.7 0 1-.6.2-1.4.1-1.6-.2zm330.2-.4c-.3-.1-.3-.2 0-.5.3-.5.8-.5 1.2 0 .4.5-.4.8-1.2.5zM58 44.2C56.6 42 55.8 40 56.5 40c.3 0 .6.5 1.3 2.1.6 1.5.7 3 .2 2.1zm58.8-.6c0-.2.4-.3 1-.2l1-.4c.9-.4 2.4-.5 2.6-.2 0 .1-.1.4-.4.5-.8.4-4.2.7-4.2.3zm143.5-.6c0-.6 0-.8.1-.5v1l-.1-.5zm-113.6 0h.5l-.4.1c-.3 0-.4 0-.1-.2zm60-.1c0-.2.2-.2.4-.2.3.3.3.4-.2.4-.2 0-.4 0-.3-.2zm162.2 0c-.3-.2-.5-.5-.5-.7 0-.6 1.8-1 6-1.5a102.7 102.7 0 0 0 8.3-1l5.7-.8a114.1 114.1 0 0 1 10.5-1.4 314.9 314.9 0 0 1 10-1.4c1.8-.4 3-.5 12.2-1.5a155.1 155.1 0 0 0 9.9-1.3l6-.6c3.5-.4 5.4-.3 5.6 0 .3.6-.6.9-4.7 1.4a3102 3102 0 0 0-13.4 1.6c-4 .3-9.6 1-12.5 1.5-4.4.7-8 1.1-11.3 1.4a76.7 76.7 0 0 0-9.5 1.4l-4.8.9a70.7 70.7 0 0 1-8.1 1.1c-.3.2-2.2.4-4.3.6l-4.3.4c-.2 0-.6 0-.8-.2zm-245-.7c0-.2.3-.4.6-.4.7 0 .6.6-.1.8-.3 0-.4-.1-.4-.4zm87.9-.1c-.3-.2-.2-.3.4-.3l1.4-.1c3.4-.4 4.8-.5 4.8-.3 0 .4-6 1-6.6.7zm-78.7-1.6c-.2-.3 3.2-1 4.7-1 1.7 0 1.8.4.1.7-2.1.4-4.6.6-4.8.3zm91 0c0-.1.5-.3 1.7-.3h2c.1.2-.2.3-.7.3l-1.8.1H224zm36.1-4.1c0-3.7 0-4.4.4-4 .4.8.4 7.7 0 8.1-.3.3-.4-.5-.4-4.1zm-97.1 3.4h.5l-.4.1c-.3 0-.3 0-.1-.1zm67.9-.1c0-.2.3-.2.4-.1.4.2.3.4-.2.4-.2 0-.3-.2-.2-.3zm-66.7-.2c-.4-.2 0-.3 1.2-.6l2.7-.6c1.3-.3 1.8-.3 1.6.1 0 .2-1 .5-2 .7l-2.4.4h-1zm-22.8-.5c.3-.2.9-.4 1.8-.3.8 0 1.1 0 .8.1-.4 0-.8.2-1 .4l-1 .2c-.9 0-1 0-.6-.4zM281 37.4c0-1.1 0-1.6.1-1v2.2-1.2zm-125.4.9c-.5-.5-.6-.5-2.3-.2-1.4.3-1.8.3-2.1 0-1-.8 1.3-1.4 2.9-.8.4.2.7.2.8 0 .2-.3 2.7-.1 3 .2.4.3 0 .8-1 1-.6.3-.8.3-1.3-.2zm-7-.1h1l-.5.1c-.6 0-.8 0-.5-.1zm24.3-.4c-.6-.2-.5-.2 1.5-.3l.6-.3 1.4-.1c1.1 0 1.1 0 .3.1-.5.1-1 .2-1.2.4-.4.3-2 .5-2.6.2zm7.6-1.4c.4-.2 1-.4 1.4-.4.7 0 .7 0 .2.4-.3.2-1 .4-1.4.4h-1l.8-.4zm5.8-1.1c1.5-.5 3.8-.8 4-.4.2.3-2 .8-3.8.8h-1.2l1-.4zm84.6-.8c0-.5.1-.9.3-.9l.2.8c0 .4 0 .8-.2 1-.2 0-.3-.3-.3-.9zm-80 .1c-.1-.1.1-.2.5-.2.8 0 .9.1.1.3h-.7zm10.5-1.7c.3 0 .8-.2 1.1-.4.7-.3 4.6-.5 4.8-.2 0 .1-.7.2-1.7.2s-2 .2-2 .3c-.1.2-.8.3-1.4.2-.7 0-1 0-.8-.1zm144.6-.4c-.6-.3-.6-1.2 0-1.4.6-.2 4.8-.9 8.6-1.3a69.6 69.6 0 0 0 10.9-1.9 428.3 428.3 0 0 0 11.8-2.1l7.8-1.3 5.3-.8a121.4 121.4 0 0 0 13-2l4-.7 3.9-.6 3.3-.6c.6-.3 3-.6 5.1-.9 5-.5 10-1 14-1.6l12.3-1.6c1.8-.2 3 0 3 .6s-1.2 1-3.2 1.3c-1.1 0-2.8.3-3.8.5-1 .3-3.4.6-5.3.7-1.8.1-4.2.4-5.3.7l-5.9.8c-4.2.4-7 .9-7.9 1.3-.3.2-1.5.3-2.8.3-1.2 0-3.2.2-4.5.4l-5.7.9a84.3 84.3 0 0 0-12.4 1.9 319.3 319.3 0 0 0-20.1 3.5 2117.6 2117.6 0 0 1-18.8 3.5c-2.2.5-6.7.8-7.3.4zm-136-.9.7-.4c.2 0 .4.2.4.4 0 .3-.3.4-.7.4-.6 0-.6 0-.4-.4zm2.6-.4.8-.2c.3 0 .7 0 .7.2.1.2-.2.3-.7.3-.6 0-1-.1-.8-.3zm2-.2c0-.2.1-.3.3-.3.3 0 .4.1.3.3l-.3.2-.2-.2zm45.2-.2-.4-3.5c-.3-2.3 0-2 .6.5l.5 2.7c.1.5 0 .7-.3.7-.2 0-.4-.2-.4-.4zm-42.4-.2c.4-.5 6.3-1.6 10-2 1.3 0 3.2-.3 4.3-.6 1-.3 2.5-.5 3.1-.5.7 0 2.3-.2 3.4-.5 3.2-.8 4.3-1 4.5-.5.4.5-.5.9-3 1.3a233.1 233.1 0 0 0-8 1 124.6 124.6 0 0 1-13.8 2.1c-.6 0-.7 0-.5-.3zm53.7-.3v-7c0-.2.2-.3.3-.3.2 0 .3 1.5.3 3.9 0 3.4-.2 4.5-.6 3.4zm6-3.6c-.2-.4.3-.8 1-.8.4 0 .9-.1 1.1-.4.3-.2 1-.4 1.5-.4 1 0 4.5-.6 5-.8a122.3 122.3 0 0 0 7.2-1.5 330 330 0 0 1 16-3.3c4.8-1 5.5-1 5.9-.6.2.3.1.4-.8.8-1 .4-7.2 1.7-12.5 2.7a196.4 196.4 0 0 0-17 3.3l-2.7.5c-.4.2-1.3.3-2 .4l-1.8.3c-.4 0-.8 0-.9-.2zm-18.4-2c-.2-1 .1-1.6.5-1.3.4.2.4 1 .2 1.6-.3.6-.6.5-.7-.4zm-207.7-.2c-.5-.5-.7-1.5-.2-1.5.3 0 .8 1 .7 1.5 0 .4-.1.4-.5 0zm-1-2.5c-.4-.1-1.4-2.2-1.4-2.9a38.6 38.6 0 0 1-3.2-7.3l.4-.2c.2 0 .7.7 1 1.6.4.8 1 2 1.4 2.5.4.6.7 1.4.7 2 0 .4.1.9.3 1 .2.1 1.4 3 1.2 3.3H50zm220.7-1.6a50 50 0 0 1-.9-8.4c0-2.8-.3-6.8-.9-9.6-.3-1.9-.3-2.4.3-2.4s2.2 10.3 2.2 15c0 2 .1 3.2.4 4 .4.8.4 1 0 2-.2.7-.5 1.2-.6 1.2-.2 0-.4-.8-.5-1.8z"/>
</svg>
