<?xml version="1.0" encoding="utf-8"?>
<svg xmlns="http://www.w3.org/2000/svg" xmlns:svg="http://www.w3.org/2000/svg" version="1.1" viewBox="0 0 228 97">
	<title>Tommy Brock leans on his spade at the bottom of a bank covered in saplings.</title>
	<path d="M76.6 96.9c-.2-.3-55.7-.5-67.3-.3-6.4.1-7.7 0-8.1-1.1L.4 94c-.5-.7-.5-1-.3-1.9.2-.7.3-7.8.2-21a1381.7 1381.7 0 0 1 1-70.1C1.5.8 3.7.7 14.4.7A2035.3 2035.3 0 0 1 47 .7c27.3 0 39.6 0 53.7.2 18.8.2 15.2.2 57 .1a1537.9 1537.9 0 0 0 60.5-.9c4.4-.3 8.1 0 8.8 1 .6.6.7 3.8.2 4.3-.3.3-.3.5 0 1 .3.7.2.8-.2 1.1-.4.3-.4.4 0 1.3.4.8.4 3.2.3 28l-.1 27.8a297.2 297.2 0 0 1-.6 26.7c.1 2 0 2.5-.4 3.2-.5.8-.7.9-2.9 1.2l-5.2.3-8.5.1c-3.5.1-5.9.1-6.4 0-.5-.2-2.9-.2-7.3 0-3.7.3-7.5.3-8.6.2l-18.4-.2-17.6-.1h-13.7a7441.7 7441.7 0 0 1-59.4.9c-.8 0-1.5.1-1.6 0zm52.3-2.8 1.3-.3-1-.4c-.6-.2-1.3-.5-1.5-.8-.4-.3-.8-.4-2.2-.2-1.4 0-1.8 0-2-.3-.2-.4-.4-.4-2-.1-2 .3-2.2.3-2.2 0a28 28 0 0 1 6.3-1.6l3.3-.8c1.3-.4 2-.5 3.5-.4 1.2 0 2 0 2.2-.2.2-.2.3-.1.3.3 0 .3.1.7.4.9.2.2.3.4.1.7-.3.7-.6 2.7-.3 2.7l.7.4c.5.5 2.7.6 3.6.1a10 10 0 0 1 2.4-.4c1 0 2.1-.2 2.4-.3.2 0 .7 0 1 .2.3.1.8.2 1.4 0 .8-.2 1-.4 1-1 0-.5-.2-.6-1-.6-.4 0-1 .2-1.2.4-.2.3-.6.4-1.5.3-.8-.2-1.3 0-1.8.3-.6.3-1.3.4-3 .4-2.2 0-3-.3-2.3-1 .2-.3.2-.5-.1-.8-.3-.4-.3-.5.3-1 .7-.5 1.4-.6 1.8 0 .3.2 1 .3 2.5.3 1.8 0 2.2 0 2.7-.5.8-.8.8-1 0-.8-.4 0-.7.2-.7.4s0 .5-.2.5c-.4.3-2.1-.5-2.1-.9 0-.2-.2-.2-.5-.1-.6.2-4-.2-4-.5l.4-.4c.3 0 .8-.3 1.1-.6.4-.3.9-.5 1.1-.5.3 0 .5 0 .5-.2 0-.5-.7-.8-1.6-.8-1.4 0-2.8-.7-3-1.5-.1-1 .1-1.2 1.3-1 2 .2 2.2.3 2.5 1 .3.6.4.7.7.4l.4-.7c0-.6 1.2-1 2.4-.8 1.6.3 2.2.6 2 1.3 0 .3 0 .7.2 1 .4.7 0 1.4-1.2 1.5-1.5.1-1.7.3-.8 1 1 .8 1.1.8 1.1.2 0-.8.5-1.1 1.6-1.1 1 0 1.2.1 1 1.1 0 .3.1.5.3.5.1 0 .6.3 1 .8.7.6 1 .7 1.4.5.3-.2.7-.2 1.2 0l.8.1c.3-.2-.5-1.3-1.4-1.6-1.3-.5-1.1-1.2.4-1.4.7-.1 1.3-.5 1.9-1 1.3-1.3 2.7-1.4 4.6 0 .6.4.9 0 .4-.7-.4-.8-.1-1.3.7-1 .4 0 .7 0 .7-.2 0-1 2.7-.7 3.1.3.2.5.5.6 1.6.6 1 0 1.4.1 1.8.5.5.6 3.1 1.1 3.4.7 0-.2.5-.3 1-.3s.6 0 .5-.4c-.2-.4-1-.5-1.7-.1-.4.2-.8.1-1.8-.4-1.6-.8-1.7-1-1.2-1.8.8-1.2 4.3-1.7 4.2-.7 0 .4.2.5 1 .4 1.1-.1 1.6-.3 1-.5-1.9-.7-1.9-.7-1.6-1.1.3-.3.2-.4-.7-.5-.7 0-1-.2-1-.4 0-.3.3-.4 1-.4 1.1.1 1.2 0 .6-.7-.4-.5-.4-.5 0-.7.2 0 .7 0 1.1.2.4.3 1.8.5 3 .6 2.3.2 2.5.2 3.6 1.2 1.3 1 1.5 1.8.4 2-2.1.4-2.8 1-2.1 1.8.5.5 1.5.3 1.7-.4 0-.2.4-.5.8-.6 1.2-.3 1.5-2.7.3-3.3-.3-.2-.5-.6-.5-1 0-.7-.1-1-.9-1.3-.5-.2-1-.7-1-1-.3-.5-2.6-2-3.4-2-.5 0-.6 0-.2.3.3.2.5.6.5 1 0 .7-.2 1-1 1.2-.4.2-1.3.4-1.8.4a5 5 0 0 0-2.2.7c-1.1.7-1.2.7-2 .3-.6-.4-1.1-.4-1.8-.3-.6.1-1 0-1.2-.3-.6-.6-.2-1.2.7-1 .6.1 1.1 0 1.8-.4a4 4 0 0 1 1.6-.6c.3 0 .8-.2 1-.6.4-.5.4-.6-.2-.8h-2.2c-1.7.1-2.1 0-1.7-.6.2-.2.9-.4 1.6-.4 1.7 0 3.4-.5 3.5-1 .2-.8 1-.4 1 .3-.1.5 0 .6 1.8 1 1.1.2 2.7.8 3.6 1.3 1.6.8 4.7 1.3 5 .8.2-.3-2-1.3-4.1-2a6 6 0 0 1-2-.9c-.4-.5-.2-1.3.4-1.3.3 0 .8-.2 1.2-.5.6-.4 1-.5 2-.4 1.1.2 1.2.1.9-.3-.5-.5-.2-1.2.6-1.2.3 0 .7-.2.7-.4.1-.2.4-.4.6-.4.5 0 .5-.7 0-.9-.5-.2-.5-1.2 0-1.2.6 0 1-1.9.4-2.2-.4-.3-2.1.1-2.1.5 0 .2-.3.4-.6.4-.4 0-1 .2-1.5.4-1 .6-1.4.3-.7-.4a8 8 0 0 1 3.9-1.8c1.2-.2 1.5-.7 1-1.4-.3-.6-.3-1.5 0-1.7.5-.3.3-1.3-.5-2.4-.5-.6-.8-1.3-.8-1.8 0-.9-.7-2.3-1.1-2.3-.2 0-.2-.4-.1-1v-2.3l-.2-1.2-.9.6c-.6.3-1.1.4-1.8.3-.8-.1-1 0-1.7 1-.5.6-.7 1.2-.6 1.2.2 0 .3.3.3.5 0 .3-.2.4-.7.2-.7-.1-.7-.1-.2.4.4.5.5.5 1 .2 2.6-2 3.6-2.4 3.6-1.8 0 .3-1.7 1.6-4 3.1-1.1.7-1.9.6-1.2-.1.3-.3.4-.6.3-.7-.4-.3-1.1-.1-1.6.4-.6.7-1 .7-.9-.2.2-1-.4-1-2.6-.4-1 .3-1.8.5-1.9.4-.3-.2 1-.9 2.7-1.4 1.3-.4 1.9-.5 2.4-.3l.9.3a17 17 0 0 0 2.2-2.9l-.8-.4c-1.2-.4-1.3-1-.3-1 .4 0 .8 0 1-.3.2-.7-.6-.7-1.8 0-.7.3-1.5.6-2 .6-.8 0-1 .5-.3.7.6.1.6.1-.2.8-.4.3-.8.6-1 .6-.3 0-.2-.9.2-1.2.3-.4 0-.4-1.2 0-.6.1-1 .4-1 .6 0 .5-1.3.8-1.9.4-.4-.2-1.4 0-3 .5-.7.2-.8.4-.7.8 0 .5 0 .5-1 .5-.5 0-1.8.3-2.9.6-1 .3-2.2.4-2.7.3-.5 0-.8 0-.8.2 0 .1.2.3.4.3.9 0 .4.8-.8 1.3-1 .5-1.3.8-1.4 1.4 0 .8-.8 1.1-3.3 1.3-1.3.1-2 .3-2.5.7a10 10 0 0 1-4.6 1.9c-3 .5-2.8-.3.2-1l2.5-.6c.7-.3 1.5-1.3 1.2-1.5 0-.1-2.2.5-4.7 1.3-9.3 3-15.2 5-15.7 5-1 0 .3-.8 3-1.7 2.3-.8 2.9-1 3.2-1.6.4-.8 1.8-1.6 3.3-2 1-.1 1.4-.5 1.1-1.3-.2-.4-.2-.4-.4.1-.4 1-2.4 1.7-4.2 1.7-.8 0-1.9.1-2.5.4-.5.2-1.1.3-1.3.2-.2 0-.9 0-1.5.3-1.4.5-2.1.5-2.1.2s.7-.6 2.3-1a37 37 0 0 0 5.6-2l.5-1c.5-.7.6-.8 1-.5.2.2.9.2 1.7.2 1.2-.2 1.4-.1 1.5.3 0 .3.2.5.4.5.3 0 0-1-.5-1.8-.7-1-1.3-1.2-2.4-.6-1.2.8-1.7.4-.9-.6 1.1-1.3 3.3-1.2 4 .3l.3.7.3-1c.3-1 .9-1.5 2-1.9.4-.1.8-.4 1-.6.4-.6 1-.2.6.5-.3.4-.3.6 0 .9.3.3.7.3 2 0 1.4-.1 1.7-.3 1.8-.8 0-.4.3-.5.7-.5.7 0 .7.1.4 1-.2.5 0 .5 1.3.4 1.4-.1 1.5 0 1.5.4s0 .4.4.2c.7-.6.3-1.9-.6-1.9l-.9-.4c-.2-.2-1-.4-1.7-.4-1.2-.1-1.3-.1-1.3-.8.1-.8-.2-1-.5-.5-.1.1-.4.3-.7.3-.3 0-.8.1-1 .3-.8.4-1.4-.1-.9-.7.3-.4.3-.4 0-.4l-1-.3c-.6-.4-2.7-.1-3.5.5a2 2 0 0 1-1 .6l-2.1.4-2.3.3c-.8-.1-.8-.1.2-.6a14 14 0 0 1 2.4-.7c.7-.2 2-.6 2.8-1 .8-.3 1.8-.5 2.3-.5.7 0 1.3-.3 1.8-.7.9-.8 2.6-1.3 3.3-1.1.6.2.2.6-1.1 1-1.5.5-1.5 1-.1 1 1.1 0 2 .2 3 .9.3.2.5.2 1.1-.3l1.6-1c.5-.3.9-.7 1-1.1 0-.5.3-.9 1-1.2 1-.6 1-.6.4-.7-.4 0-1.1.1-1.7.4-1.2.5-1.6.5-1.1 0 1-1.3 4.3-2 5-1 .2.2.7.3 1.4.3 1 0 1.2 0 1.2-.5 0-.2-.1-.6-.3-.7-.4-.5 0-1 .8-1 1 0 1.6.8 1.1 1.2-.1.2-.3.5-.3.8 0 .8-1.5 1.6-4.1 2-1 .1-1.2.9-.4.9.9 0 .6.4-.5.9-.9.4-1.2.4-1.3.2-.1-.5-1-.4-1.6.2a2 2 0 0 0-.5 1.4c0 .8 0 1 .6 1 .4 0 .7.1.7.4 0 .4 2 .5 2.2 0l.6-.2c.3 0 .3.2.2 1-.2 1.1.3 1.2 1.5.1 1-.8.9-1.4-.1-1.2-.4.1-.8 0-1-.4-.4-.4-.8-.5-1.3-.4-.5.1-.8 0-.8 0 0-.8 2.2-1.2 2.5-.6.2.2.7.2 1.8 0a41 41 0 0 1 2.9-.2 6 6 0 0 0 1.8-.3l1.7-.6c1.2-.3 1.9-.9 2.4-2 .4-.7 1.9-1.5 3-1.5.9 0 .9 0 .7 1-.1.8 0 .9.4.9.3 0 .5.2.5.4 0 .6 1.6.5 3.8-.2 1.8-.5 1.8-.5 2.4-1.8.3-.7.7-1.4 1-1.5.7-.2.8-.9.4-1.6a3 3 0 0 1-.4-1.3 24.7 24.7 0 0 0-4.3-9.5c0-.6-1.4-2.5-1.8-2.5-.3 0-.8.2-1.1.5-.4.3-2 1.2-3.7 1.9a50 50 0 0 0-4.9 2.2c-.7.3-2 1-3 1.7l-1.7 1.1c-.4 0-4 1.8-4.2 2.1-.1.2-.5.3-.8.3-1 0-4.3 2.2-6.7 4.7-1.1 1-4 2.7-4.7 2.7-1 0-.3-.8 1-1.2a81.7 81.7 0 0 0 9.4-8.4c1.6-2 2.5-2 1.1-.1-1.2 1.8-1 2.2.4 1.2l3-1.7c2-1 2.4-1.3 2.6-2 0-.4.6-1 1.5-1.7l1.3-1-.7-.2c-1-.4-3.4.4-4.9 1.6-.7.5-1.5 1-1.9 1-.9 0-2.6 1.3-2.5 1.8 0 .4-.5.8-1.6 1.4l-1.8.8c-.5 0 .7-1 1.7-1.6.6-.3 1-.6 1-1 0-.2.5-.7 1.7-1.3l2.8-1.6a28 28 0 0 1 3.6-1.8c1.6-.6 3.3-1.5 3.8-1.9 1.2-1 2.2-1.4 2.3-1.2a12 12 0 0 1-2.9 2.8v.6c.1.5 0 .9-.7 1.6l-.9 1 .9-.2 1.7-.6 2.1-1c1.7-.6 4.2-1.8 5.5-2.7l1-.6-.7-1.2c-.3-.6-.7-1.2-.9-1.3-.1-.1-.2-1.1-.2-2.3 0-2.4.2-2.3-3.4-1.5-1.4.2-3 .5-3.8.5-.6 0-1.9.2-2.7.5-.9.3-2.2.5-2.9.5-.7 0-2.4.4-4 1-3.4 1-4.3 1.5-5.8 2.5l-3.7 1.8-4.3 2a43.7 43.7 0 0 1-7.4 3.2 39.3 39.3 0 0 0-14.9 8 482.3 482.3 0 0 1-4.6 3.6l-5.6 4.7c-1.2 1-2.3 2.1-2.6 2.6-.5 1-.6 1-3 2-1 .3-2.7 1.1-3.7 1.8s-2.3 1.4-3.1 1.7c-2.2.9-3 1.4-3.2 2-.2.3-.4.4-1 .4h-1c-.2.1-.4 0-.4-.2 0-.3 1-.9 2.3-1.5 1.6-.8 2.4-1.4 2.6-1.8.2-.6 2.8-2.8 3.4-2.8.5 0 .3.3-.7 1.4l-1 1 1.2-.6 1.3-1.1c0-.6 1.6-2 2-2 .2 0 .4.2.4.4 0 .4.2.3.8-.4.4-.4.7-1 .6-1.1 0-.1-.2-.2-.3-.1l-.4-.1c-.3-.4 1.3-1.7 1.9-1.5.3 0 1-.3 2.3-1.5a8 8 0 0 1 2.3-1.5c.5 0 3.3-2.1 3.4-2.5l-.6-.3c-.4-.1-1 .2-2.1 1.2-1.5 1.2-2.3 1.5-2 .7.4-.7 4-3.5 4.6-3.5.5 0 .8-.2.9-.7 0-.5.6-.9 2.3-1.7l2.2-1h-1.3c-1.4 0-2.5.7-5.7 3.2-.6.5-1.3.9-1.5.9-.6 0-1.2.7-2.6 3.5-1.3 2.5-1.5 2.7-1.9 2.4-.2-.1 0-.7.7-1.9.8-1.5.9-1.9.9-3.9 0-2.4-.5-4.7-1.3-5.8-.7-.8-.5-1.2.2-.8.8.5 1.6 2.6 1.8 4.4l.2 1.8.7-.8c.4-.4.8-.8 1-.8.2 0 .2-.2.1-.4 0-.3.2-.7.9-1.3 2.2-2 3.5-2 1.9 0-1 1-.7 1 .9-.2.5-.4 1.6-1 2.4-1.3.8-.3 1.9-.8 2.3-1.2l1-.6a7 7 0 0 0 1.6-.7l2.4-1c1.1-.2 1.2-.3.7-.6-.3-.2-.8-.4-1.2-.4l-2.6-.4c-2-.5-4-.6-5.7-.2-1 .2-1 .1-2.6-1.5-1-1-2.3-2.2-3.1-2.7-.9-.5-1.7-1.1-1.9-1.4-.1-.2-.8-.5-1.3-.7-.6-.1-1.2-.5-1.3-.7-.2-.3-.8-.7-1.4-.8-1.8-.5-2.6-.9-2.6-1.2 0-.5.3-.7.7-.4.2.2 1.5.7 5 2l1.5.7c.6.6 1.8 1 2.8 1h1l-.6-.8c-.5-.8-1.3-1.4-3.8-2.8l-2-1.4c-.5-.5-1.5-1.1-2.2-1.4A29.5 29.5 0 0 0 93 19c-3.4-1.5-4-1.9-4.1-2.7 0-.5-.4-.7-1.4-1-1.3-.3-1.4-.3-2 .4-.3.4-.7 1-.8 1.4-.3.6-.8.8-.8.3l.6-1.4c.6-1 .6-1 0-1.4-.5-.4-1-.5-4.4-.5-3 0-4.9-.4-5.5-1.2-.2-.3-1.3-1-2.4-1.4l-2.2-1.2c0-.2-.3-.2-.8.1-.4.3-.8.4-1.1.3-.4-.2-.3-.3.4-1 .7-.6 1-.7 1.2-.5l.7.3 2.7.9c1.5.6 2.5.9 2.9.8.4-.1.7 0 1 .3.4.4 1.5.7 4.2 1.2l4.2.7c.3 0-.6-.5-1.9-.9-3.2-1-5.2-1.9-5-2.3 0-.5 1-.6 1.9-.1l1.8.6c.8.1 1 0 1.3-.3.4-.4.5-.5 1.5-.2.9.3 1.1.3 1.7-.1.3-.3.6-.8.6-1.1 0-.3.2-.6.3-.6a27 27 0 0 1 3 2.8c2 1.9 2.8 3 2.8 3.4 0 .4.4.9 1.2 1.5.7.4 1.7 1.4 2.1 2.2.9 1.2 3.2 3 3.5 2.7 0 0-.6-1.3-1.5-2.7-2.5-4-2.7-4.3-3.1-4.2a25 25 0 0 1-6-4.7c-1-1-1.7-1.3-2.7-1.5l-2.5-.7c-.6-.3-2.2-.7-3.4-1-1.6-.5-2.4-.9-2.8-1.4-.4-.3-.8-.6-1-.6-.3 0-1-.3-1.4-.6l-1-.4c-.3.3 0 .6.8.8.4.1 1.2.7 1.8 1.2.7.7 1.3 1 1.6 1 .8 0 2.5.4 2.6.6 0 .8 0 1-.6 1l-.7.2.6.4c.5.2.7.2 1.1 0 .7-.4 1.4-.1 1.3.5 0 .3-.3.4-.9.5-.4 0-1 0-1.2.2-.5.2-1.8-.3-1.8-.8 0-.2-.2-.4-.5-.4-.5 0-1.4-.7-2-1.7-.2-.3-.8-.9-1.2-1-1-.6-5.7-2-6.4-2-1.5 0 .5 1.5 2.4 1.9.5 0 1.6.4 2.3.7l2 .6c1 .2 1.5 1.2 1.6 2.6.1 1.4-.4 1.6-1 .5A5 5 0 0 0 74 7.5c-1.2-.6-1.8-.3-1.8.8 0 .8-.4 1-1.2.6-.6-.2-.7-.3-.5-1.2.1-.8 0-.9-1.1-1.6L67 4.4c-1-.9-1.2-1-3-1-2.5-.2-2.8.3-1 1.3 1.6.8 2.2 1.5 1.8 2-.2.2-.2.4 0 .5l.2.8c0 .5.1.6 1 .6.5 0 1 .1 1.3.4.5.5.2 1.6-.5 2-.5.2-.2.3 1.5.2 1.2 0 2 0 2 .2s-.5.3-1 .3c-1.8 0-1.5.4.5.5 1.3.2 1.8.3 1.8.6s-.5.4-2 .4c-2.7 0-4-.3-4-.7 0-.5 0-.5-2-.1-1.4.2-1.7.2-2-.2-.3-.4-.4-.4-1.5-.1l-2 .5c-1.1.2-.7-.4.7-1l1-.6-.9.2c-6.4 1.3-6.3 1.3-6.3 1 0-.2.4-.5 1-.8.9-.3 1-.4.5-.8-.3-.3-.9-.5-1.6-.5-1 0-1.1 0-1.1-.5 0-.4.2-.5.7-.5.4 0 .7 0 .7-.2 0-.1-2.2-1-5.2-2-2.7-.8-3.1-1-2.8-1.4l.2-1c0-.5 0-.6-.6-.6-.7 0-.7.3.1 2.2.4.9.5 1 1.4 1C47 7 49.3 8.3 49.6 9c.1.5-.3 1.2-.9 1.2-.2 0-.9-.4-1.4-1-1-.9-1.3-1-2-.9-.8.1-2-.3-3-1-.2-.2-1-.3-2-.4h-1.6l1.4.7c.8.3 1.7.9 2 1.1.3.3.7.5.9.4h.9c.4.1.5.3.4 1.5 0 .7-.2 1.4-.3 1.4l-1.5-.2c-1.4-.4-2-1-1.2-1.3.6-.4.5-.7-.1-1-.5-.3-.6-.3-1 .2-.2.4-.6.5-1.2.5-.5 0-1.2.3-1.5.6-.8.7-.8.6-1.6-.2l-1.4-1c-.4-.3-.7-.6-.7-.8 0-.3.4-.4 2.2-.3h1.4c-.5-.2-1.4-.3-2-.3-.8 0-1.3-.2-1.3-.3 0-.2-.2-.3-.5-.3-.2 0-.4.2-.3.7 0 1.3 0 1.7-.4 1.7-.9 0 0 .7 1.3 1.2 1.7.5 2.5 1 2.3 1.5 0 .3.1.5.5.6 1.9.6 2.9 1.3 3.1 2.1.4 1.2 1.4 1.8 2.5 1.6.6-.2.9 0 1.6.6.6.6 1 .8 1.3.7.4-.1.7 0 1 .5.4.5.7.6 2.4.6s2 0 2.5-.8c.4-.4.7-1 .8-1.5.2-.6.3-.7 1.4-.9 1 0 1.5 0 2.1.3.7.3 1 .4 1.7.1.4-.1 1.3-.3 2-.3a39 39 0 0 1 13-.8c2.3.3 3.5.6 6 1.7 1.6.8 5.5 1.2 7.2.7 1.3-.3 1.9 0 2.4 1 .3.5.3.8 0 1.7-.1.5-.5 1-.7 1.1-.2.1-.3.4-.3.7 0 .3-.2.6-.4.8-.7.6-.5 1.3.4 1.4 1.2.3.7.8-.6.7-1-.2-1 0-2.5 1.5-1.7 1.7-3.7 3-4.8 3a4 4 0 0 0-1.5.5c-1 .5-4.7 4-4.5 4.3.2.4-.2 1-1 1.3-1 .5-.9.8.3.5.7-.2 1.3-.2 2 0 .4.2 1.2.3 1.8.3A6 6 0 0 1 80 38c1 .8 1.6 3.6 1.1 4.8-.8 1.8-1.6 2.7-2.4 2.9-.8 0-1 .3-1 1-.3 1-1.1 13.9-1.2 16.6 0 .5.7.4 2.4-.4 2-1 4.8-1.8 6.3-1.8a4 4 0 0 1 1.3.2c0 .6-.5 1-1.6 1-1.5 0-2.9.3-5 1.2-1 .5-1.9.8-2.5.7h-1l-.1 2.1c-.2 3-.1 3.5 1.1 3.7l2 .1c.6 0 1.4.3 1.8.5.7.4.8.6.6 1.6 0 .6-.5 2-.9 2.9-.7 1.4-1.6 4.3-1.6 5l1.4.1c2.4 0 6 .7 6.3 1 .4.7-.2 1-1 .6-.5-.3-.7-.3-1.1 0-.7.4-1.4.3-2-.1-.5-.4-2.5-.6-2.5-.3l.4.5c.4.3.4.5.2.7-.3.3-.6.3-1.4 0-.5-.1-1.3-.2-1.7-.1h-1.4c-.8-.2-.8-1 .2-1.2.5-.2.7-.4 1-1.5 0-.7.7-2.5 1.2-3.8a42 42 0 0 0 1.1-3.2c.2-.8-.4-1.2-1-.6-.6.5-1.7.3-1.6-.2 0-.3-.3-.5-1-.6-.6-.1-1.2-.4-1.4-.7-.4-.6-.4-.6-1 .1-.3.5-.5 1.1-.5 1.7 0 1 0 1 .3.3.2-.4.5-.7.8-.7.3 0 .3.4.4 1.7 0 1 0 2.4.2 3.2.2 1.4.2 1.5-.5 1.8-.7.4-1.2 0-1.2-.9l-.4-2.2c-.3-.9-.4-2.2-.4-3l-.1-1.2c-.2 0-.3 1-.3 2.4l-.1 2.3c-.4 0-.8-1.8-.8-3.2 0-1-.1-1.5-.3-1.4-.3.2-.2 2.5.1 3.4.2.3.1.4-.2.4-.6 0-1-.8-1-2.3 0-1.4 0-1.4-.8-1.4-2 0-2 1-.2 4.3a11 11 0 0 0 4 4.7c.4.3.5.6.4 1-.2.5-.6.5-5.5-.2-1.3-.1-2 0-2.7.3-3.3 1.4-5 1.8-7 1.9-1.2 0-1.2 0-.3.2 1.3.2 1.3.7-.1 1-1.4.1-1.9 0-1.7-.6.1-.3-.2-.4-1.4-.4-1.5 0-1.8.1-3.2 1a11 11 0 0 1-2.3 1.4c-1 .3-7 .4-8 .1-.5-.1-1 0-1.6.3-.7.5-.8.5-2.2 0-2-.7-3.1-1.3-4.1-2.2-1-1-1.6-1.1-1.6-.5 0 .5-.6.5-2.3.2-.8-.1-1-.3-1-.7 0-.7-1.5-1-2.6-.6-.7.3-.8.2-1.2-.3-.6-.8-4-1.6-6.2-1.6-1.8.1-2.2 0-2-.5.2-.2 2.4-.3 6.5-.2l7-.1c.8-.2.9-.2.8-1.4 0-1.4-1-3.6-1.4-3.6a11 11 0 0 1-4.6-2.4c-1.2-1-1.7-1.3-2.2-1.2l-1.3-.1a6 6 0 0 0-2.2.1c-3 .7-5.5 0-4.4-1.1.2-.3.4-.7.4-1 0-.2.2-.5.5-.7.3-.1.6-.5.6-.8 0-.4.3-.7.7-.7.4 0 .7-.3.8-.6 0-.3.3-.5.5-.5s.6-.3 1-.6l1.2-.8c.4-.2.8-2.3.8-4.5v-.7h-4.3c-7.8 0-12.2-.9-11.7-2.3.2-.4.4-.4 1.4-.2a47.4 47.4 0 0 0 10 .6c.1-.1-.7-.4-1.7-.6-1-.2-1.8-.5-1.9-.7 0-.2-.3-.3-.6-.3l-4.2-.7c-.3-.1-.2-.2.2-.3.6-.3.5-.3-1.8-1-1.7-.4-2.1-1.2-.8-1.2.6 0 .8 0 .7-.3-.3-.8.5-.7 3 0 1.2.5 2.5.9 2.9.9.3 0 .7.2 1 .4.4.4 1.2.5 1.2.1 0-.1-.5-.4-1-.5-2.7-1-3.8-1.4-3.8-1.8 0-.5.2-.4 3.2.5a16.7 16.7 0 0 1 6.2 2.6c.3.1.5.4.5.7 0 .4-.1.5-1 .4-.5 0-1.5-.3-2.1-.6-1.1-.5-1.3-.5-1.7-.1-.3.2-.7.4-1 .4-1 0 .3.5 2.4.8 4 .5 3.9.5 3.8 1 0 .3-.4.4-1.2.4-1.8 0-1.5.6.4.7 1.6 0 1.6 0 1.6-.6 0-.3.2-1 .5-1.4.3-.6.3-1.2.2-2.6A6 6 0 0 0 21 52c-.4-.2-7.2-1.5-10.3-1.8-3.8-.5-4.3-.6-4.3-1.1 0-.4 1-.5 2.7-.4h1l-1-.6c-1-.6-1.5-1.4-1.3-1.6.3-.3 5.8 2.5 5.8 3 0 .2.4.3 1.4.3.8 0 2.3.2 3.4.5 2.6.8 3 .8 3 .1 0-.3-.2-.5-.5-.5-1.4 0-1.7-.2-2.6-.7-.5-.4-1.3-.8-1.7-.9-2.2-.5-4-1.6-6.3-3.9a9.7 9.7 0 0 1-2.1-2.6c0-.1.5 0 1.1.6a4 4 0 0 0 1.3.8c.1 0 .5.3.8.7.4.5 1.5 1.1 3.6 2 1.6.7 3.3 1.7 3.8 2 .5.5 1.1.8 1.4.8.3 0 .6.1.7.3.2.4.6.3.7-.4.1-.6-.1-.8-1.4-1.6-1.1-.7-1.7-.9-2.2-.8-.4.1-1.3-.2-2.8-1l-2.5-1c-.6 0-.8-.5-.3-1 .4-.4.5-.4 1.4.2.6.3 1.3.6 1.6.6.3 0 1.8.6 3.4 1.4l3 1.5c.3 0 1-.8 1-1.1l-1.2-.9c-1.5-.8-2-1.3-2.4-2.6-.5-1.5-.2-1.5.7 0 1.2 2 3.5 2.8 3.5 1.4A40.6 40.6 0 0 1 30.2 30c.3-.5 1.1-1.3 1.8-1.8l1.3-.8-.7-.5c-.5-.4-.7-.7-.6-1 .3-.6.5-.5 1.3.3l1.1.6c.3 0 1.5-.7 3.6-2.2l.1-.9c.1-.5.3-.7.7-.8.4 0 .7 0 .8.2.2.3.4.3 1 0a7 7 0 0 1 1.9-.8c1.5-.3 1.6-.4 2.2-1.5l.4-.8-1-.8a4 4 0 0 0-1.7-.8c-1 0-3-1.8-3-2.6-.2-.6-.4-.8-2-1.3l-2-.6c-.5 0-.2.4.4.7 1.4.6 3.4 2.3 3.5 2.9.1.8-.3.7-1.3 0l-2.6-1.9c-1.4-.8-1.7-1.2-1.7-1.8 0-.4-.2-.6-.6-.7-.4 0-.5 0-.6.7 0 .5.1.8.3.8l.6.8c.4.9.2 2.7-.3 2.7-.4 0-1-1-.8-1.5 0-.1 0-.6-.3-.9-.2-.3-.3-.8-.2-1.1 0-.4-.2-.9-1.2-1.8C29.3 11.7 29 11 30 11c.7 0 1-.5.8-1-.5-.9.1-1.3.8-.7.6.6.8.5.6-.5 0-.5-.5-1-1-1.5-.6-.3-1.2-.8-1.5-1.1-.3-.3-1-.6-1.5-.8-1-.2-1.4-.8-1-1.3.5-.4 1.7 0 2.4.7.3.4.8.7 1 .7.3 0 .7.2 1 .5.2.3.6.5.8.5.6 0 2.4-1 2.4-1.3 0-.2-1.6-.5-2.9-.5-.6 0-.8-.1-.8-.4 0-.2.2-.4.5-.4.2 0 .6-.1.6-.3.2-.3-1.6-.3-4.8 0-2 .1-2.2.1-2.2.8 0 .4.1.6.4.5.2-.1.5 0 .7.1.3.3.4 3.5 0 3.7-.3.4-.8-.4-.8-1.2 0-.4-.1-1-.3-1.2-.2-.3-.2-.1-.1.6l.1 1.8c0 .4.3 1.1.7 1.7l.7 1-.6 1c-1 2-1.8 3.4-2.4 4.1-.6.8-.6 1.5 0 2l.3.7c0 .5-2.8 5.7-3.3 6-.5.3-.8-.9-.3-1.4.7-.9 2-3.1 1.4-2.7-.6.5-2.8 4.2-2.8 4.8 0 .2.1.5.3.5.2.1.2.7 0 2.3-.2 1.3-.4 3.2-.4 4.3 0 1.6-.1 2-.4 2-.3 0-.5-.2-.5-.5s-.4-.9-.8-1.3c-.5-.5-.6-.9-.6-2.3 0-1.2.3-2 .7-2.8.5-.8.6-1.3.5-1.8-.1-.4-.3-.7-.4-.7-.3 0-.7 1.3-1 2.8A4 4 0 0 1 16 30c-.3.4-.3.8-.1 2.4.3 2.1.2 2.4-.6 2.4s-2.3-1.7-2.3-2.6c0-.9.4-1 1-.2l.6.8v-1c0-.6.1-1.2.3-1.5.4-.6.1-1.4-.4-1.2-.3.1-1.3-.6-3-2.1a21 21 0 0 0-3.6-3c-.3-.4-1-1-1.7-1.2-1.3-.7-1.3-.7-.8-1.2s.5-.6-.1-.7l-.8-.2-.1 2.9c0 2.4 0 2.8.4 2.9.3 0 .6.3.7.6 0 .3.4.7.8.8.5.3.8.6.8 1 .1.7 1.8 2.4 5 5 1.8 1.5 2 2 1 2.3l-1.3.4c-.6.2-.7.4-.4.5.2.2.7.3 1.2.3.9 0 1.7.4 1.7.9 0 .4 2.8 3 4 3.7.9.5 1 1.2.2 1.2-.7 0-3.4-2.2-4.5-3.7-.8-1-1.2-1.3-2-1.4l-3-.8c-1-.4-2.1-.7-2.4-.7l-1.2-.6c-.6-.6-.6-.6-.2-1 .5-.6 1-.6 1.5 0 .5.5 1.7 1 2.5 1 1.2 0 2.7-.4 2.7-.8 0-.2-.5-.6-1-1-1.7-.9-2.7-1.6-2.7-2 0-.2-.4-.5-.9-.8-.5-.3-1-1-1.3-1.5l-1-1.5-.7-.6v2.6L4 34.1v45.6l2.6.1c3.4.2 3.5.7.1.8H4.1l.1 3c.2 3.6.6 4.7 1.8 6 1.2 1.2 3.9 2.8 5.2 3 2.4.5 25.3.7 38 .4h9.5c1.2.2 6.7.4 12.1.5 5.5 0 10.1.2 10.3.2.2.1 2.3 0 4.7-.1a51 51 0 0 1 8 0c2.2.1 5.2.2 7.2 0 3.1 0 3.5-.1 3.6-.6.2-.6 1.3-.6 1.8 0 .2.5.6.6 1.8.6l1.6-.2c.2-.4 2.5-1 2.9-.7v.5c-.3.3 0 .4 2.6.4l4 .1c4.1.6 7.3.9 7.8.8l1.8-.4zm-15-2a16 16 0 0 0-5.4-1.1c-1.2.1-1.6-.6-.5-1l.7-.4-.6-.8c-.4-.6-.7-.8-1.4-.8-.5 0-1 .2-1 .3-.3.3-2.6.3-2.6 0 0-.1.3-.3.7-.4l1-.4c.3-.2 1.2-.3 2.3-.3.4 0 1 .3 1.5.7l.7.6 1.8-.6c1.1-.4 1.7-.7 1.8-1 0-.5.3-.5 2.3-.3 3.7.3 3.6.4 4-1.8.2-1.9.7-2.4 2.5-2.4.9 0 1.8.2 2.6.5 1 .5 1.2.5 1.1.2 0-.2-.2-.4-.3-.4-.1 0-.4-.3-.5-.7a6 6 0 0 0-.9-1.4c-.3-.3-.5-1-.5-1.5 0-.8 0-.9-.4-.7-.9.3-1 .3-1-.3 0-.3.2-.6.8-.8.5-.1 1.4-.7 2-1.3 1-1.1 1.7-1 1 0-1.2 2-1.6 3-1.3 3.8.4.8.9.6 1-.5.2-1.2.5-1.6 1-1.6.4 0 .4.1.1 1.3-.4 1.5 0 1.5 1.6 0l1.4-1.3-.7-.6c-2-1.5-2.4-2-2.2-2.7.1-.4 0-.6-.2-.5l-2.4.5-4.6 1.3a22 22 0 0 1-8 1.2l-6 .4c-.6.2-1-.2-.5-.6l3.9-.4a79.8 79.8 0 0 0 10.8-1.4l3.2-.9 3.7-1.2c1.3-.5 2.3-.8 2.3-.6.2.4.8.3 2-.4a5 5 0 0 1 1.3-.7c.5 0 .2.4-.8 1-.6.4-1 .8-1 1-.1.3 1 .4 1.7 0l1-.4 2-.7c1.2-.5 1.8-.6 2.7-.5 1.3.2 1.6 0 .7-.7-.7-.5-.4-2 .4-2.4.8-.3 2.5 0 2.7.5.2.5-.6.6-1.4.3-.8-.4-1-.2-.8.7.2.5.4.7 1.4.8 2 .3 3.8 2 2 2-.3 0-.6.1-.7.3l-.6.2c-.2 0-.7.2-1 .5a21 21 0 0 1-7.5 1.2l-2.5.1c-1.2.3-1.8 0-1.3-.6.4-.4.4-.5 0-.7-.3-.2-1.7-.1-2 .2-.1 0 .3.6 1 1.2 2.4 2.1 2.6 2.4 2.6 2.8 0 .2-.8 1.1-1.8 2.1a11 11 0 0 0-1.9 2c0 .4.9 1 1.4 1 .4 0 .5-.2.5-.9 0-1.2 1-2.4 2.4-2.8 2.2-.6 4-.4 5.5.7l-1.1 1.2c-.7.6-1.5 1.4-1.7 1.8-.2.5-.7 1.2-1.1 1.7l-.8.8 1.6.7c1.5.6 2.3 1.2 2 1.5-.1 0-1-.2-2-.7a10 10 0 0 0-2.6-.8c-.4 0-1.3-.3-2-.6-1.1-.5-1.4-.5-1.9-.2-.6.3-4.8 1.3-6 1.3l-1.2.4c-.2.2-.8.4-1.2.4-.5 0-.8.1-.8.4 0 .2 0 .4-.2.4s-.3-.2-.3-.4c0-.5-.5-.5-1.7.1-.6.3-1.6.5-2.3.5-1 0-2.6.4-3.2.8-.1 0 0 .3.4.6.6.5.9.5 1.7.3a10 10 0 0 1 2.2-.3c.7 0 2.4-.4 4-1l3.2-1c.3-.1.5 0 .5.2 0 .3-.4.5-1 .6-.4 0-1.2.3-1.6.5-.4.2-1.8.7-3.1 1l-2.5.9.5.4c.4.2 1.1 0 3.6-.8 2.1-.7 3.2-1 3.4-.8.3.3-.3.8-1 .8-.2 0-1.6.4-3 1-3 1-2.7 1-3.5.5zm17-7.5c-.6-.8-1.1-1-2.3-.5-.9.3-.7.4.9.9 2 .5 2 .5 1.4-.4zm-8.3-.5c.8 0 .8-.5 0-.7-1-.2-2 .1-2.1.7-.2.7 0 .8.8.3.4-.2 1-.3 1.3-.3zm10-1.2c.4-.5.7-1 .7-1.2l.6-.8c1-.8.5-1-1.3-.8-2.5.3-3.5 1.6-2.1 2.5.4.3.7.6.7.8 0 .7.9.4 1.5-.5zm5.8-9.7c1.6-.3 2.6-.9 2.4-1.4-.2-.5-.8-.6-1 0 0 .1-.7.4-1.3.4l-2.3.6-2 .7c-1.1.3 2.5.1 4.2-.3zM74.1 91.7l-1-.2c-.9 0-1 0-.7-.4.3-.3.8-.4 1.8-.4s1.5 0 1.7-.4c.3-.3 1-.5 2.4-.7 1-.2 2.5-.5 3.3-.8 1.3-.5 1.4-.5 3.4-.1s2 .4 2.7-.2c.5-.5.7-.5 2.8-.3 2.5.3 2.8.8.4.8-2.2 0-2.3 0-2.2.6.2.7-.2.9-1 .6a30 30 0 0 0-2.9-.7c-2-.3-2-.3-3.3.3L79.6 91c-.7.6-1.1.4-.9-.4.1-.5 0-.5-.5-.4l-.8.2c-.2 0-.1.2 0 .4.3.3.3.5.2.7-.4.3-3.3.5-3.5.2zm17.6.1c-.5-.4-.2-1 .6-1.2 1.2-.3 1.7.2.9 1-.4.4-1.2.5-1.5.2zm10.4-.2-1.7-.4c-.5 0-1-.1-1.2-.3-.4-.4-2.4-.7-2.6-.4-.2.3-.9.2-.9-.2 0-.2.2-.4.4-.4l.4-.2c0-.4-.7-.6-1.6-.6-.4 0-.8-.1-.8-.3 0-.3 1-.6 2-.4h1c.3-.4 1.2-.4 2.8 0 1.5.3 2 1 .6.8-.5-.1-.8 0-.8 0 0 .4 1 1 1.6 1 .4 0 .8.1 1 .4.4.4 1 .5 1 0 0-.6.7-1 1.3-.8.9.3-.1 2.2-1.2 2.2a5 5 0 0 1-1.3-.4zm-21.2-.5c0-.5.9-.8 1.6-.5.8.2.5.7-.6.8-.8 0-1 0-1-.3zm-26.3-.7c-.1-.1 0-.3.2-.4 1.6-.5 14.6-.3 14.4.3-.2.4-5.7.5-6.5 0-.4-.1-1.2-.1-3.2 0-3.4.5-4.7.5-5 .1zm74.4-2.9c-.4-.6-1.5-.7-2.3-.2-.3.2-.6.2-.7.1-.4-.3.3-1 1.3-1.4 1-.4 1.7-.2 1.7.4 0 .2.3.4.6.5.3 0 .5.3.5.6-.2.6-.7.6-1.1 0zm19.3-.7c-.3-.3 0-.6.7-.6.4 0 .7.1.7.4 0 .4-1 .6-1.4.2zm-42.3-1h-4.6c-2.9 0-4.1 0-4.2-.2-.5-.6.5-.8 5-.8 3.5 0 4.6 0 5 .3.3.3.4.4.1.7-.3.4-.4.4-1.3 0zm41-.4c-.3-.2-.9-.3-1.3-.2-.4 0-.6 0-.6-.3s.3-.4 1.3-.5l3.8-.3c2.5-.3 3.2-.2 3.2.7 0 .4-1.5.5-2.5 0-.6-.1-1 0-2 .3l-1.2.5-.6-.2zm-39.6-1.9c0-.7.8-.6 1 .1 0 .3-.1.5-.5.5s-.5-.2-.5-.6zm46.8.2c-.3-.3-.9-.5-1.4-.6-.6 0-1.4-.3-1.9-.5-.4-.3-1.4-.4-2.2-.4-1.7 0-1.8-.4-.5-1.7 1-1 2-1.2 3.1-.7.8.5.3.8-1 .8-1.4 0-1.3.2.1.7 1.3.5 1.8.5 2.2 0 .2-.3.2-.4-.2-.6-.7-.4 0-1 .8-.7.3.1 1 .2 1.7.1.8 0 1.1 0 1.1.3 0 .2.3.2.8.1a29 29 0 0 1 2.1-.4c1.3-.2 1.7-.1 3 .6.8.4 1.8 1 2 1.3.7.7.4 1.2-.5.7l-2.7-.4c-2-.1-2.3 0-2.7.4-1.4 1.4-3 1.8-3.8 1zm1-1.5c0-.1-.1-.2-.4-.2-.2 0-.3 0-.2.2 0 .2.3.3.4.3.1 0 .2-.1.2-.3zm-134.9.9c-1.6-.1-1.8-.2-1.6-.5.5-.6 5-.6 5 0 0 .2-.1.4-.3.4a18.5 18.5 0 0 1-3 0zm145.5-1.3c0-.2.2-.4.3-.3.2 0 .3.2.3.3 0 .2-.1.3-.3.4-.1 0-.3-.1-.3-.4zm-2-.9c-.4-.6-.2-.8.7-.8.9 0 1.1.3.9.9-.2.6-1.3.5-1.7 0zm-76.4 0c-.2-.3 1-.8 1.3-.5v.5c-.2.3-1.1.3-1.3 0zm3.3 0c-.7-.4 0-.8 1.4-.8 1.7 0 2.3.2 2.3.7 0 .3-.4.4-1.7.4-.9 0-1.8-.2-2-.3zm45.8 0s1.7-1 3.8-1.9a97 97 0 0 0 10.8-5.2c.4-.5-1-.3-1.5.2-.5.6-1.2.7-1.2.3l.5-.7c.4-.3.4-.6.2-.8-.2-.2-.1-.4 0-.5.3-.1.5 0 .7.2.2.3.6.4 1 .3.4-.1.8 0 .9.1.2.5 1.1.4 1.7-.2.3-.3.8-.5 1.1-.5.8.1.8.6 0 .7-1 .2-.6.5.8.7.8.1 1.4.1 1.6 0 .5-.6 1.2-.4 2 .3.4.4 1 .6 1.5.6 1 0 2 .7 1.5 1-.2.2-.8.2-1.3 0l-1.7.1c-.6.3-.9.2-1.6-.2-.5-.3-1.8-.7-3-.9l-1.9-.2-3.2 1.5c-1.8.8-3.2 1.6-3.2 1.7l.6.5c.4.1.7.4.7.6 0 .4-.4.4-2.5.4-2.3 0-2.6.1-5 1.1s-3.3 1.3-3.3.9zm9-3-.3-.2-.4.3c-.1.1 0 .2.2.2.3 0 .5 0 .5-.2zm-4.1 2.7c-.1-.1.3-.2 1.1-.2s1.4 0 1.4.2-.6.3-1.2.3c-.7 0-1.3-.1-1.3-.3zm-30-.5c0-.1.2-.4.6-.7.9-.5 3.6-.7 3.7-.2.1.3-.1.4-.7.4l-2 .4c-1.2.4-1.3.4-1.5.1zm-7.7-1.9a16 16 0 0 1 5.5-.2c0 .3-1.2.5-3.4.5-1.5 0-2.2 0-2.1-.3zm45.6-.7c-.3-.4 0-.8.7-.8.6 0 1 .5.4.8-.4.3-1 .3-1.1 0zm10.3 0c-.2-.4 1.6-1.2 2.2-1 .7 0 .7.7 0 .8l-1.4.3c-.3 0-.7 0-.8-.2zm-21.6-.7c-.4-.4-.2-.7.6-.7 1.4 0 5.8-1.2 7-1.8.5-.3 1.1-.6 1.4-.5.6.1.5.9-.2 1-.3 0-.7.3-1 .7-.3.5-.5.6-1.4.4-.8 0-4 .4-5.7.9h-.7zm14.9-.5c-.5-.5-.6-.8-.4-1 .2-.2.6-.2 1.4.3.6.3 1.5.5 1.9.5 1.5 0 .7.7-.9.8-1.2 0-1.5 0-2-.6zm16.7-3.8c-.7-1.3-2-2-2.7-1.6-.5.3-1.3.1-1.3-.3 0-.2.3-.3.7-.3h.7l-.6-.5c-.5-.4-.7-.5-1.2-.3-.4.3-1 .3-2 0-1-.2-1.7-.2-2.2 0-.5.2-1.7.2-3.2.1a27 27 0 0 0-11.3 2.1c-.8.6-1.8.6-2 0-.1-.2 0-.7.4-1.1.3-.4.5-1 .4-1.2-.2-.5.4-1.3.7-1 .2 0 .2.3.1.5-.2.5.1 1.1.6 1.1.2 0 .3 0 .3-.2l.6-.7c.5-.6.5-.6 0-.8-.5-.1-.8-.9-.5-.9.7 0 1.8.7 2 1.2 0 .4.2.6.3.6.2 0 2.5-1.5 3-2 .5-.6 4.7-.6 6.9 0 1.6.5 2.1.4 2.4-.6.4-1.2 6.1-1.3 9-.3 1.2.4 2.2.6 3 .5 1 0 1.3 0 1.3.4 0 .3-.2.4-1.3.6-1.2 0-1.7 0-3.1-.6-2-.7-4.3-1-6.5-.7-1.2.1-1.5.3-1.8.9l-.4.7 1.3.2c1.1 0 1.5 0 2-.4.6-.7.9-.6 2.4.2 1.1.6 1.4.7 3.8.7 3.4-.1 5.3-.5 6-1.3.6-.7 1.8-1 2.2-.5.3.3.2.4 0 .4-.3 0-.5.2-.6.5-.1.5-2.3 1.2-4.6 1.5-1.5.2-3.5.9-3.5 1.2 0 .1.3.3.7.4 1.2.3 1.4.3 1.4.8 0 .9-1 1.7-2 1.7-.8 0-1-.2-1.4-1zm-1.2-3c-.7-.5-1.1-.2-.5.3.4.3.7.4.8.2 0-.2 0-.4-.3-.5zm-9.5-.7c.1 0 0-.3-.3-.5-.3-.4-.5-.4-1.4-.1-.8.3-1 .2-1.4-.3-.4-.4-.6-.5-1.7-.3-.9 0-1.3.3-1.6.7l-.5.7a37.9 37.9 0 0 0 7-.2zm0 3.7c0-.7 2.8-1.9 4.3-2 1.4 0 1.7.5.5.7-.4.1-1 .4-1.2.7-.3.3-.7.5-1.2.4-.4-.1-.8 0-1 .2-.5.6-1.4.6-1.3 0zm3.2-.9c.3-.2.3-.2-.2-.2-.3 0-.6 0-.6.2 0 .4.3.4.8 0zm-6 1c0-.5.5-1 1-1s1 .5.7.7c-.2.3-1.8.4-1.8.2zm-22-2c.1-.3.4-.5.7-.5.4-.1.4 0 0 .3-.3.5-.8.6-.7.1zm6.9-.7c0-.2 0-.4.2-.3.2 0 .3.2.3.3 0 .2-.1.3-.3.4-.1 0-.2-.1-.2-.4zm2 0-.2-.8c0-.5.2-.6.5-.6.4 0 .6.1.6.5 0 .5-.6 1.1-1 .9zm25.7-2 .4-.2c.2 0 .5 0 .6.2 0 .2-.1.3-.4.3-.3 0-.6-.1-.6-.3zm-18.5-.4c0-.2.3-.7.7-1 .6-.7.6-.8.6-.3s-.8 1.7-1.1 1.7c-.1 0-.2-.1-.2-.4zm-5-.1a6 6 0 0 0-.9-.4c-.6-.2-.6-1.3 0-1.8.3-.4 1-.5 3.4-.4 1.7 0 3.2 0 3.7-.3l1.6-.3c.5 0 1-.1 1-.3 0-.4 3.4-4 5.6-6l1.6-1.9c1.3-1.6 2.2-2.3 2.2-1.5l-.9 1.3c-.5.6-1 1.2-1 1.4 0 .2-.3.6-.7 1-.4.3-1.5 1.6-2.4 2.8-1.6 2.1-2 2.5-2.2 1.8-.1-.4-1.2.5-1.2 1 0 .7 2.1.6 4.8-.3a8 8 0 0 1 2.3-.5c.3.2 1-.9 1-1.4 0-.5 4.3-2.8 7.1-3.9 1-.3 2-.8 2.4-1l1.9-.8c1.3-.5 2-.4 1.5.2-.4.3-4 1.9-5.4 2.3a34 34 0 0 0-6 3c-.4.7.4.4 3.3-1 4.7-2.5 8.8-3.9 8.1-2.8-.3.4.8.3 1.2-.1.3-.4.4-.4.8 0 .2.2.6.4.9.4.3 0 .4.1.4.4-.1.4-.3.5-1.3.4-.7 0-1.3 0-1.5.3a40.8 40.8 0 0 0-7 2.8l-2.4.9c-1.4.4-2.5 1.1-2.7 1.8-.2.4-.4.5-1.5.5l-1.4-.2c-.3-.4-2-.4-2.8 0-.5.3-1.4.5-2.2.5h-3.4c-1.8 0-2 0-2.4.6-.6.8-1 .9-1 .2-.3-.8-1.5-.7-1.7 0l-.1.6-.7-.5c-.8-.8-1.6-1-2.1-.6-.7.5-.4 1.3.4 1.2.3 0 .6 0 .7.2.1.4-.5.6-1 .4zm25.3-6.9c3.1-1.3 4.4-1.9 4.2-2-.2-.2-2.8.7-5 1.7-2.5 1.3-2 1.5.8.3zm-12.6 0c.4-.3.3-.3 0 0l-.5.5c0 .2.2 0 .5-.4zm-39.8 4.6.4-1c.7-.8 2.4-1.4 3-1 .2.2 1.4 0 4-.6 3.3-1 4.3-1 3.7-.4-.5.4-10.9 3.2-11.1 3zm-11.7-.9c0-.1.1-.3.5-.5.6-.2.6-.2-.1-.3-1.3 0-.8-.5.5-.5 1-.1 1.2-.2 1.2-.6-.1-.4 0-.5 1.2-.4 1.4 0 1.7.6.3.7-.8 0-.8 0-.4.7.5.8.4.8-1.5 1-1 .2-1.5.1-1.7 0zm4.4-.2c-.6-.4-.1-.7 1.1-1l2.4-.4c1-.2 1.3-.2 1.6 0 .4.4-.4.7-2.7 1.2-2.2.5-2 .5-2.4.2zm31.5 0c0-.3 3.2-1.9 3.7-1.9.7 0 2.2-1 2.6-1.7.4-.8.7-1 2.2-1.2 1.4-.3 1.8-.4 2-.9.3-1.1 1.3-1.8 4.6-3l3.8-1.4c1 0 .3.5-1.7 1.2l-2.5 1.2-1.3.6c-.4.1-1 .5-1.4.9-.6.5-.7.8-.6 1.5.2 1.1 0 1.2-1.9 1.7-1.6.3-7.3 2.3-8 2.9-.7.4-1.5.4-1.5 0zm27.5 0c0-.2.1-.3.3-.3.1 0 .2.1.2.3l-.2.2a.3.3 0 0 1-.3-.2zm4.5-.6c.1-.5.3-.7.9-.7 1.8-.2 2.8.8 1.2 1.1-1.7.3-2.2.2-2-.4zm-85.7 0c.2-.4 5.6-1.6 6.3-1.4.3.1 1.2 0 2-.3 2.4-.7 6.3-1.2 9.3-1.2 2.8 0 3.8-.2 3.8-.9 0-.2.6-.5 1.2-.8 1.3-.4 3-.5 3-.2 0 .2-3.7 2-5 2.4-1 .3-3.8.7-5.6.7a49 49 0 0 0-8.8 1.2l-3.2.4c-2.6.5-3.1.5-3 0zm90.9 0c-.1-.1-.2-.3 0-.4.2-.3.4 0 .3.5-.1.2-.2.2-.3 0zm-62.4-.7c0-.2.2-.4.4-.5.4-.4 4.4-1.2 4.6-1 .3.3-.5.7-2.3 1.2-2.2.6-2.7.6-2.7.3zm-103-.5c-.4-.4-.1-1 .5-.8.3 0 .5.2.5.4 0 .5-.7.7-1 .4zm158 0c0-.4.5-.5 3.8-1 2-.3 3.2-.6 3.6-1 .8-.6 1.1-.6 1.1 0 0 .7-2 1.8-3.3 1.8l-3 .2c-1.4.2-2.1.2-2.1 0zM9.5 61.4c-1.1-.1-1.7-.7-1.2-1 .2-.3 1-.3 2.7 0 4 .5 2.6 1.5-1.5 1zM114 60.2c0-.2.8-.5 1.6-.7.8-.1 2-.5 2.6-.8l2.2-.7c1.4-.3 1.4-.7.2-1.3-.8-.3-1.5-.4-3.4-.3a8 8 0 0 1-2.5 0c-.3-.5 1.4-1.5 2.5-1.6 1-.2 1-.2.7.4l-.3.6 1.8-.2 2.1-.2c.2 0 .2.2.2.4 0 .4.1.5 1.6.5 1 0 1.8-.1 2-.4.5-.4.6-.4 1.7.2 1.4.9 2 .9 2.5.2.2-.3.6-.5.9-.5.6 0 1 .5.5.7-.2 0-.4.4-.5.7-.2.6-.5.7-1.4.7-.5 0-1.5-.3-2.1-.6-1-.5-1.1-.5-1.7 0-.9.5-3.8 1.4-4.7 1.4-.4 0-1.2.3-1.9.6-1.6 1-4.8 1.6-4.6.9zm41-.3c0-.2.2-.5.5-.7.3-.2.6-.6.7-1 .1-.3.3-.6.7-.6.9 0 .5 1.6-.6 2.2-1 .6-1.3.6-1.3 0zm-55.3-.4c0-.2 2.8-1.4 3.2-1.4.6 0 .1.5-.6.8l-1.4.6c-.5.3-1.2.3-1.2 0zm62.8-1.4.8-.2c1 0 1.7-.3 1.7-.8 0-.7.6-1 .9-.5.3.6.2 1.5-.2 1.6-.7.3-3.4.2-3.2 0zm-54.7-.2c.1-.3.8-.6 2-1 1-.2.9.4-.2.8-1.1.5-2 .6-1.8.2zm-26.1-1.5c0-.2 0-.4.2-.4l1.4-1.1c2-1.8 4-3.3 5-3.7 1-.4 1.7-1.4 2.5-3.5.5-1.1 1-1.7 1.4-1.4.1.2-1.4 3.6-2.1 4.5-.3.4-1 1-1.4 1.1a23 23 0 0 0-5 3.8c-1.2 1.1-2 1.4-2 .7zm94.9.2c-.4-.3-.2-.6.3-.6.3 0 .6.1.6.3 0 .3-.7.5-1 .3zM78.8 55c-.2 0-.2-.2 0-.5l.6-.3c.1 0 1.1-.5 2.1-1.2 2-1.2 2.8-1.6 2.8-1.2 0 .2-1.9 1.5-4.2 2.8-.5.3-1 .5-1.3.4zm42.5-.5c-.4-.3-.2-.5 1.2-1.2 1.3-.8 2-.8 1.2 0-.7.6-2.2 1.4-2.4 1.2zm1.8 0c.2-.5 1.8-1.1 2.5-1.1 1 0 .5.5-.9.9-1.7.5-1.8.5-1.6.1zm-35.3-.9c0-.2.5-.4 1-.4l2-.5c1.2-.4 1.8-.4 1.3.1-.3.4-3 1.1-3.7 1.1-.4 0-.6-.1-.6-.3zm77.3-.1c0-.6 1.5-1 1.8-.7.2.2 0 .4-.7.7-1.2.5-1.2.5-1.1 0zm-86.8-.2c0-.2.5-.5 1-.8 1-.7 1.3 0 .2.6-1 .6-1.3.7-1.2.2zm49.4-.3c0-.3 1.4-1 2.1-1 .6 0 .3.6-.7 1-1.1.5-1.4.5-1.4 0zm-16.4-.4c0-.3 1.1-1 3.1-1.8 1.3-.5 1.4-.5 1.7-.1.2.4.3.4 1 0a10 10 0 0 1 1.7-.4c.4-.1 1.2-.6 1.7-1 .8-1 1.7-1.1 1.7-.4 0 .3-2.2 2.1-2.6 2.1l-2 .6c-1 .3-1.9.5-2.4.4a3 3 0 0 0-1.8.3c-1.2.6-2 .7-2 .3zm8.6 0c-.1-.3 2-1.3 2.7-1.3.6 0 .4.5-.4.8-1.4.6-2.1.7-2.3.5zm16.4 0c-.1-.3.5-.9.8-.6l.2.5c0 .4-.7.5-1 .1zm-56-1c0-.4.5-.7 2.8-1.6 1.5-.5 2.2-.9 2.3-1.3.3-.7 1.2-1 1.7-.6.2.2.1.3-.2.4-.3.1-.4.3-.4.6 0 .2-.7.6-1.5 1l-2.4 1.3c-1 .7-2.2.9-2.2.3zm45.6-1.4c0-.3.1-.5.4-.5.2 0 .4.2.3.4-.1.7-.7.8-.7.1zm-29.5-1c.2-1.5 0-2.1-2-5.1-.5-1-1.5-4.4-1.2-4.7.3-.3.7.4 1 2.2.3 1.2.7 2.1 1 2.3.7.5 2.1 3.7 2.1 4.8 0 1.2-.2 1.8-.7 1.8-.3 0-.3-.3-.2-1.3zm53 1c-.4-.3-.2-.8.3-.8.3 0 .5.2.5.4 0 .4-.6.7-.9.5zm3.7-1.1c0-.6 2.3-2.8 3.5-3.3.6-.3 1.4-.8 1.6-1.1.3-.3.7-.5 1-.4.3 0 .7-.2 1.3-.8.4-.5 1.1-1 1.4-1 3.7-.8 5-1.4 5.5-2.8.3-.6 2.2-1.8 2.7-1.5.4.2.3.5-.7 1-.5.3-1.1.8-1.5 1.3l-.6.8 1-.2h1c0 .3-.4.5-1.9.8-.9.2-4.7 2-5 2.4-.3.5-5.3 4.3-5.5 4.3-.2 0-.3-.1-.4-.3 0-.1-.7 0-1.6.4-1.8.8-1.8.8-1.8.4zm9.4-5.8c.1-.1 0-.2-.1-.2-.2 0-.3 0-.3.2l.1.3.3-.3zm-17 4.8c-.5-.9-.2-1.9.6-1.9 1.4 0 2 .9 1 1.2-.4.1-.6.4-.6.7 0 .7-.7.7-1 0zm-47-.8-.4-1.4-1-3c-2.5-6.3-2.4-6-1.9-6s4.2 9.8 4.2 11.1c0 .7-.5.3-.9-.7zm27.9.3c0-.3 1.4-1.4 1.8-1.4.5 0 .4.6-.3 1.1-.6.5-1.5.7-1.5.3zm34 0c0-.2.5-.8 1.3-1.4 1-.9 1.4-1.2 1.2-1.5-.2-.2-.2-.4.2-.5l1-.3c.9-.4 4.6-1 4.8-.8.3.4-.3.8-1.2.8-1.4 0-3.9.8-3.9 1.3 0 .3-2.6 2.6-3 2.6-.2 0-.3 0-.4-.2zm-71.2-.8c-.5-.7-.5-1.5 0-1.7.5-.2.8.2.6.6-.1.1 0 .6.2 1 .5.6.5.6 0 .6-.3 0-.7-.2-.8-.5zm44.2 0c.5-.5 1.9-.5 1.6 0l-1 .2c-.5 0-.7 0-.6-.2zm38.3-.8c0-.3 1.5-1.4 1.8-1.2.4.2.3.9 0 1-1 .3-1.9.4-1.8.2zm-79-1.5c-.8-1.2-.9-1.4-.2-1.4.5 0 1.7 1.9 1.4 2.2-.3.3-.6.1-1.2-.8zm36.3.6c0-.5.6-1.1 1.4-1.5.4-.2.8-.2 1.5 0 1 .3 1.2.3 2.9-.7a45 45 0 0 1 6.6-3.2c1.4-.5 2-.8 2-1.2.2-.7 1.7-2.2 2.5-2.4.8-.3.8.1-.2 1-.5.5-.7 1-.6 1.2 0 .4-.3.7-1.8 1.4a74.8 74.8 0 0 0-9.6 5c-.3.2-.6.2-1.1 0-1-.4-1.5-.4-2.2.2-.8.6-1.4.7-1.4.2zm39.2 0c.2-.8 4.2-1.8 4.2-1.1 0 .5-.3.6-1.9.9l-1.9.4c-.3.2-.4.1-.4-.3zm-69.6-1.8c-.3-1-.3-3.9 0-4 .3-.2.4.4.7 2.3 0 .7.2 1.6.3 2 .2.9-.6.7-1-.3zM86 42.8a6 6 0 0 1 1.1-2l1.9-2.9c.7-1.3 1.3-1.8 1.3-1.1l-1.3 2.4-1.8 3c-.6 1-1.2 1.3-1.2.6zm84.2 0c0-.3 1.1-1 1.5-1 .6 0 .3.8-.4 1-.8.3-1.1.3-1.1 0zM5.8 41.1v-.6c.3-.2 1 .2 1.2.7.2.4-1 .3-1.2-.1zm83.6 0c0-.2 3.2-5 3.3-5l.1.7c0 .7-2.5 4.2-3 4.4l-.4-.1zm-82-.7L6 39.8c-.3-.1-.5-.4-.5-.7 0-.5.1-.5.8-.4.5.1 1.2.5 1.6.8l1.2.8c.4 0 .6.3.5.4-.3.4-1.2.2-2.3-.3zm163 .3c0-.3 1.5-1 1.7-.7.1.1 0 .4-.3.6-.6.4-1.5.5-1.5.1zm-19.7-.5c0-.4 4.2-2.7 5-2.7.8 0 0 .7-2 1.8-1.8 1-3 1.4-3 1zm-11.8-.6c0-.2.5-.7 1-1.1.7-.6 1.2-.7 1.8-.7.6.1.7.2.2.4-.3 0-1 .5-1.5 1-1 .7-1.7 1-1.5.4zm-120.6-.3c-.5-.5-.6-1.3-.2-1.5.3 0 .7 1 .6 1.6-.1.2-.2.2-.4 0zm.6-1.4c-1-1.3-1.3-2.2-.6-2.2.4 0 2.3 2.4 2.3 3 0 .7-.8.4-1.7-.8zm86.2 0c.3-1 .6-1.4.8-.7.2.7 0 1.6-.5 1.6-.3 0-.4-.2-.3-.8zm-22 0c-.1-.3 0-1.2.1-2.1l.3-3c0-.8.1-1.1.4-1 .3 0 .4 1.6.1 5 0 1.5-.5 2-.9 1zm2.7.1c-.1-.1 0-.5.1-.7.2-.3.3-1 .3-1.3 0-.5.1-1 .3-1.2.2-.2.4-.8.4-1.3 0-1-.6-3.6-1-4.1-.4-.4-.1-1.2.4-1.2.3 0 .9 1.6 1.3 4 .3 1 .6 1 1.1-.1.2-.5.5-1 .7-1 .5 0 .2 1-.9 2.8L87 37c-.5 1.3-.8 1.5-1.1 1zm85 .1c-.3-.2 0-.6.5-.6.2 0 .3.2.3.4 0 .4-.5.5-.8.2zm-73.4-.7v-.9c.2-.2-.7-1.6-1.2-1.8-.8-.2-1.8-1.2-1.8-1.7 0-.2.3-.7.6-1 1-.9.9-1.1-.1-2-.7-.5-.8-.7-.6-1 .2-.2.5-.2 1 .2.6.4.7.4 1-.1.3-.8 1.9-1.2 2.8-.9l1.4.4c1 0 1 .5.2.7-.4 0-.8.2-1 .4-.3.2-1 .5-1.6.5-1.3.1-1.5.3-1 .8.4.6-.2 1.5-1 1.5-1 0-.9 1 .2 1.3.5.2 1.2.7 1.6 1.2.7.8.8 1 .5 1.5-.2.2-.3.7-.3 1 0 .8-.5.7-.7-.1zm63 .3c0-.4 2.3-1.7 3.2-2 1.2-.3.4.7-1.3 1.5-1.8 1-2.1 1-2 .5zm-139.8-.4c-.6-.6-.7-1-.3-1.3.4-.2 2 1 1.8 1.3-.2.6-1 .5-1.5 0zm82.5.2V36c0-1 .2-1.2.5-1 .4 0 .5.7.2 2.2-.2.6-.6.8-.7.3zm55.2-.8c-.3-.4 0-.7 1.5-1.2 1.3-.4 2-.3 1.6.3-.2.2-2.4 1.2-2.8 1.2l-.3-.3zm-66.8-.9c0-.4.4-.7.6-.5.2.2 0 .9-.4.9l-.2-.4zm7.4-.4s0-.3.2-.4c.5-.6 1.1-2.9.8-3.2-.4-.4-.2-1 .5-1 .6 0 .7.1.5 1.2-.1 1.5-1 3.7-1.6 3.7-.2 0-.4-.1-.4-.3zm-76.7-1.3c-.7-.6-.9-.9-.7-1 .2-.3.6-.3 1.3 0 1 .5 1.3 1 1 1.5-.2.4-.7.3-1.6-.5zm124.8.3-.2-.8c0-.5 0-.6.3-.4l.2.9c0 .3-.2.5-.3.3zm17.2-.6c0-.1.5-.5 1.2-.8l1.7-1c.7-.6 1.1-.7 1.1-.3l-1.5 1.1c-1.9 1-2.5 1.3-2.5 1zm-144.7-.7.6-2.9c.4-1.7.5-2.3.2-2.6-.1-.1-.3-.5-.3-.8 0-.3.2-.4.6-.3.4 0 .6 0 .8-.7.3-.7.8-1 .8-.4l-1 3.8-.9 4c0 .4-.2.6-.4.6s-.4-.3-.4-.7zm71 .2c0-.6.6-1.2 1-1 0 0 .4 0 .8-.3s.5-.5.4-1.3c-.1-.7-.1-.9.2-.9.8 0 1 1.5.3 2.6-.8 1.2-2.8 1.9-2.8.9zm78.5-.8c0-.2.1-.3.3-.3.1 0 .2.1.2.3 0 .1 0 .2-.2.2a.3.3 0 0 1-.3-.2zm-147.3-.8c-.3-.4-.1-1.2.8-4.2.7-2.4 1.3-2.8 1.2-1 0 1.9.3 2.8 1 3.5.5.4.7.7.5 1-.2.7-1 .4-1.6-.6l-.7-.8c-.1 0-.3.4-.4 1-.2 1.2-.4 1.5-.8 1zM11 30.6c-.3-.1-.7-.8-1-1.4-.9-1.7-1-1.8-1.5-1.3-.3.4-.4.4-.7.2-.2-.3-.2-.5 0-.7.2-.2.2-.5 0-.8-.3-.5-.2-.7.3-.7.8 0 1.9 1 2.5 2.5.4.7.8 1.4 1 1.5.3.2.3 1 0 1l-.6-.3zm15.9-1.5c-1-1.4-1.8-3.1-1.8-3.6 0-.8.7-.4 1 .6.1.5.8 1.6 1.3 2.4l1.1 1.5H28c-.3 0-.8-.3-1.1-.9zm1.8-1.3c-.1-.2 0-.4.2-.6.4-.4 1.5-.1 1.4.3-.1.4-1.4.6-1.6.3zm135-.5a6 6 0 0 1 2-1.2c.7 0 .4.5-.4 1-.7.3-1.6.5-1.6.2zm-134.5-3c-.2-.4-.4-1-.4-1.4 0-.9-.4-1.2-.8-.6-.3.5-.3.5-.8-.1-.4-.4-.5-.8-.4-1.2v-1.7c-.2-1-.2-1.2-.4-.6-.2.3-.5.5-.7.5-.4 0-.4-.1-.3-1L26 17c.2-.3.4-.7.4-1 0-.2.1-.4.3-.4.4 0 1 2.2 1 3.5 0 .5.2.9.7 1.2 1.8 1.2 1.6-1.9-.3-4.2-.7-.8-.8-1.6-.4-1.9.3-.2 1.5 1.6 2.4 3.2.8 1.6.8 2.6.3 3.6-.8 1.4-.3 1.8 1.8 2 1.4 0 1.6 0 1.5-.3-.2-.7.4-.8 1-.2l.6.6-.7.5c-.5.5-.9.5-1.8.4-.7 0-1.3-.3-1.5-.4-.3-.2-.4 0-.5.5-.2 1-1 1-1.6.2zm-3.5-.8c-.5-.6-.3-1 .5-1 .6 0 1 .4 1 1.1 0 .6-1 .5-1.5-.1zm12.4-2.8c-.5-.2-1.3-.4-2-.3-.9 0-1.2-.2-1.7-.7-.5-.6-.5-.9-.3-1.3.1-.2.5-.5.8-.5l1.2-.1c.5-.2.6 0 .6.2 0 .3.2.5.5.5s1 .2 1.6.5c.6.3 1.2.5 1.4.4h.6c.1.2.8.4 1.4.5 1.3.1 2 .5 1.5 1-.2.1-.6.1-1.1-.1-.7-.2-1-.2-1.2 0-.4.4-2.3.4-3.3 0zM45 17c0-.2.1-.3.3-.3.1 0 .2.1.2.3 0 .1 0 .2-.2.2a.3.3 0 0 1-.3-.2zm36.4 0c-.2-.2 0-.6.4-.6.1 0 .3.2.3.4 0 .4-.4.6-.7.3zm-19.7-3.2c0-.2.1-.3.2-.3.2 0 .3.1.3.3 0 .1-.1.3-.3.3a.3.3 0 0 1-.2-.3zm-22.3-.4c-.4-.5-.2-1 .4-.9.3 0 .6.3.6.5 0 .4-.7.7-1 .4zm-10-3.2c-.4-.4-.3-1.7.1-1.7.6 0 .8.5.6 1.2-.2.6-.4.8-.8.5zm133.3 84.2c.8-.2 1.8-.4 2.2-.3.5.1.6.1.1-.1-.3-.1-.7-.5-1-.8-.3-.4-.8-.6-1.5-.6-.6 0-1.5-.2-2-.4-1-.4-1-.4-.5-.8a2 2 0 0 1 1.1-.3c1.4 0 7.7-1.3 7.7-1.6 0-.6-.6-.6-1.9 0-1 .3-2.4.5-4.7.6a25 25 0 0 0-4.2.5c-1.2.4-1.3 0-.4-.9.7-.7.7-.8.4-1.4-.3-.8-.8-.7-1.6.4-.5.7-.5.8-.2 1.3.8.8.4 1.3-.9 1.3a1 1 0 0 0-.7.5c-.2.4 0 .4 2.3.5 2.1 0 2.8 0 3.8.6 1.4.6 1.4 1 0 1.1-.3 0-.7.2-.8.4-.1.5 1 .4 2.8 0zm-4.4-.2c0-.5-1.2-.8-2.6-.7-1.5.1-1.8.3-1.6.7.2.3 4.2.3 4.2 0zm10.7-1.3 2.5-.9.8.8c1 1 1.4 1.1 2.4.2.7-.7.8-.7 1.6-.4.5.2 1 .5 1 .7.5.6 6 .9 7.8.3 1.2-.3 2.5-1.2 2.5-1.5h-.5c-.3 0-.8-.1-1.2-.4a2 2 0 0 0-1.4-.3c-1 .2-1.7-.2-1.1-.6.6-.4 3.3-.3 3.7 0 .2.3.6.4 1 .3.8-.1 2.4 1 2.6 1.7 0 .4.4.7.9.8.7.2 6.4.3 8.5.1 1.3 0 1.6-.4.8-.6-.9-.3-1.9-1.1-1.9-1.5l.3-.6c.3-.5.4-.5 1.3-.1.6.2 1 .6 1.1.8.2.3.3.3.9.1.5-.3.7-.2 1 .1.1.2.6.5 1 .6.7.1.7.1.7-1V90l1 .2c1 .2 1.2.3 1.2 1 0 .4-.2.5-.7.3-.5 0-.7 0-.7.3v.6l1 .3c1.5.2 2.3-.3 4.9-2.7.7-.7 1.6-1 1.6-.6 0 .1-.4.6-.9 1-.5.6-.7 1.1-.6 1.4.2.5 1.3.5 1.7 0 .4-.5.8-.5 1.2 0 .4.6 2.3.2 2.5-.6 0-.2.3-.6.6-.8.6-.5.6-.7-.2-2-.5-.8-.6-1-.3-1.3.6-.4 1.5-.2 1.9.4.2.3.2.5-.1.7-.4.2-.3.3.2.9.3.3.6.9.6 1.2 0 .4.2.7.7.8.8.4 1.4 1 1.4 1.8 0 .9.6 1 1.6.3 1-.8 1-1.4-.2-3.1-.8-1.1-1.2-1.5-1.8-1.6-.5 0-.7-.2-.7-.7 0-.7.6-1 1-.4 0 .2.4.3.7.3.3 0 .7.2.9.4.3.5.3.4.3-.2 0-.5-.1-.8-.5-.9-.3 0-.5-.3-.5-.4 0-.2-.3-.2-.7-.1-.8.2-1-.3-.5-1 .5-.5.5-.8-.2-1.7-.5-.5-.5-.8-.3-1.2.3-.4.2-.5-1-1.1-.8-.4-1.8-.7-2.2-.7-.5 0-1-.2-1.4-.4-.4-.3-.4-.4 0-.9.2-.2 1-.6 1.8-.8.8-.2 2-.5 2.6-.8.7-.3 1.8-.6 2.5-.7.7 0 1.2-.2 1.2-.3 0-.2-4.8 0-5.2.3-.2 0-.6 0-1-.4-.9-.7-1.2-.6-2.4.6-1 1-1.5 1.2-1.9.7 0-.2-.4-.5-.7-.6-.5-.2-.3-.7.2-.7.2 0 .5-.3.7-.6.3-.9.4-2.3 0-2.3-.5 0-1-.9-1.3-2.2a5 5 0 0 0-.7-1.9c-.3-.3-.4-1-.4-2.9l.1-3c.2-.4.1-.5-.4-.4l-.7.1.2 4.6c0 4 .2 4.6.6 5 .3.4.5.9.5 1.2l.5 2.6c.5 1.8.5 2 .2 2.4-.6.6-1 .2-1.3-1.8-.5-2.3-1.1-2.5-.9-.3.2 1.4.2 1.6-.2 1.6s-.4.3-.4 1.3c.1 1.2.1 1.3 1 1.3.5 0 1 .2 1.2.4l1.6.2c1.4 0 2.9.7 3 1.4 0 .4-2 1.8-2.5 1.8v-1l.2-.9h-2c-2 0-2 0-2.5.8-.4.7-.5.8-1.8.7l-1.6-.2c-.1-.1-.9 0-1.6.4-1.3.5-1.4.6-1.2 1.3.1.7 0 .8-.8 1.1a5 5 0 0 1-1.5.4c-.3 0-.6.3-.7.6 0 .3-.3.5-.5.5-.7 0-.7-.8-.1-1.4.7-.8.7-1.2 0-1.5-.5-.3-.6-.5-.5-1.3 0-.8 0-1-.8-1.3-1.2-.4-2.2-.4-2.6 0-.5.5-.4.7.4.8.9 0 1 .8 0 1h-.6l.8.7c.9.6.7 1.2-.3 1-.4-.1-.8-.6-1.1-1.5-.6-1.4-1-1.7-1-.5l-.1.8c-.3 0-1-.8-1.2-1.4-.1-.4-.3-.4-.8-.3l-.9.1c-.2 0-.3.2-.3.4 0 .7-1.3 1-3.9 1-2.5-.1-3.5 0-2 .4 1 .2 1.5 1 1.1 1.6-.2.5-.7.6-3 .7a74.9 74.9 0 0 0-11.1 1.6c-1.7.8-2.8 1.2-3 1.2-.1 0-.4.2-.5.5-.2.3-.8.7-1.4.8a5 5 0 0 0-1.7.9c-.7.6-.9.6 2.9-.6zm28.4.1c0-.2.1-.4.3-.3.2 0 .3.2.3.3 0 .2-.1.3-.3.4-.2 0-.3-.1-.3-.4zm-5.7-.1c-.2-.3.1-.8.5-.8.2 0 .5-.2.5-.4.4-.8 1-.4 1 .5 0 1 0 1-.9 1-.5 0-1-.2-1-.3zm-13.5-.6-1.6-.5-1.3-.2c-1 0-1.2-.1-1.1-.5.1-.8 5.2-1 7.3-.3l1 .4c.1 0 0 .4-.4.8-.7.7-1.6.8-4 .3zm16-.4-.2-.7c0-.4.1-.4.6-.3.6.1.7 0 .7-.4 0-.6.5-1 .8-.6.4.4 0 1.8-.6 1.7-.2 0-.5 0-.6.2-.2.3-.5.4-.8.1zm2.6-.2c-.3-.6.3-1.9 1-2.2 1-.4 1.2.2.4 1.2l-.5 1c0 .5-.7.5-1 0zm6.8-.1c-.2-.4.1-.8.6-.8.2 0 .4.2.3.4 0 .6-.6.8-.9.4zm5.1-1.3c-.3 0-.4-.3-.4-.7 0-.4-.2-.8-.5-.9-.2 0-.6-.3-.9-.6-.3-.3-.7-.4-1.1-.3-.5 0-.8 0-.9-.3-.2-.6.3-1.2.8-.7.2.2.4.2.7-.1.5-.4.5-.4.8.1.3.6.4.6.6.2.2-.5 1-.6 1-.3l.4 2.4c.2.9.7 1.2 1 .6.3-.4 1-.3 1 .2l-.1.4h-2.4zm-20.1-1c-.3-.4-.2-.6.3-.6.3 0 .6.1.6.4 0 .4-.6.5-1 .2zm2-.3v-.7c0-.4-.2-.8-.5-1-.7-.6-.4-.8 1-.7l1.4.1v1.1c0 1 0 1-.8 1.2h-1zm8.3-.3c-.4-.2-.5-4-.1-4.2.5-.3 1 .8 1 2 0 1.4-.5 2.5-1 2.2zm11.4-.2-.2-1c0-.6.2-.8 1-.7.2 0 .5 0 .7-.3.3-.1.6-.2.8-.1l.6-.1c0-.2.3-.3.5-.3.3 0 .4.3.4 1 0 1.2-.4 1.4-1 .8-.3-.2-.3-.2-.3 0 0 .3-.3.4-.8.3-.6-.2-.8 0-1 .2 0 .4-.4.5-.7.2zm4.4-.7c-.2-.7 0-1.6.4-1.6.6 0 .7.9.2 1.5-.4.5-.4.5-.6.1zm2-1.3c.3-.5 1-1 1.3-.6.2.2-.7 1.2-1.2 1.2-.3 0-.3-.1 0-.6zm-24.2-.3c-.7-.3-.8-.7-.3-1.2s.9-.4 1.2.4c.6 1.2.3 1.4-1 .8zm26.7-.7c0-.2 0-.3.3-.3s.4-.1.2-.6c0-.6 0-.7.4-.7s.5.2.5 1c0 .7 0 .9-.6.9-.3 0-.7-.2-.8-.3zm-1.5-2.3c-.6-.2-.5-1 0-1 .3.1.7 0 1-.2 1-.4 1.3 0 .8.8-.4.6-.8.6-1.8.4zm-64.5 9.8c.5-.5.3-.7-1.3-.7-.9 0-1.9-.2-2.5-.5l-1-.5.2.6c.3 1 .6 1.2 2 1.3l1.9.2.7-.4zm-19.8-.5c.3-.1.5-.3.5-.5 0-.3-.2-.4-.5-.5-4-.2-5 0-4.3.7.5.6 2.7.7 4.3.3zm19.1-2c.8-1.3.5-2.1-.9-2.1-.6 0-.6.3 0 1.2.2.4.3.9.2 1.2-.2.8.2.6.7-.3zm-18.9-.1c0-.3-.3-.4-1.2-.4-1.2 0-1.2 0-.6.4.9.5 1.8.5 1.8 0zm6.4-1.7c0-.2-.3-.3-.7-.3-.4 0-.6.1-.5.3l.7.2c.3 0 .5 0 .5-.2zm15-.5c.1-.6-.1-.7-.8-.4-.3 0-.4.2-.2.6.4.7 1 .5 1-.2zm11.3.5c1.2-.5.8-.8-1-.8-1.5.1-1.6 0-1.7-.5 0-.6-.6-.8-1.5-.4-.8.3-.4.8 1.1 1.3 1.8.7 2.2.7 3.1.4zm6.5-1c0-.2 0-.4-.3-.3-.2 0-.4.3-.4.6-.1.3 0 .4.2.3.2 0 .4-.3.5-.5zm-2.4 0c0-.4 0-.6-.2-.6l-.5.5c-.3.5-.3.5.2.5.3 0 .5-.1.5-.5zm-9.9-.6c.2-.4-.4-1.4-.7-1.3-.4.1-.8 1.7-.6 2 .2 0 1-.4 1.3-.7zm-17.2-.5-.2-1.1c0-.6-.2-.7-1-.8-1 0-1.6.4-1.5 1 0 .2.7.6 1.4.9 1.6.6 1.5.6 1.3 0zm39.6 0c.3-.1.7-.4.7-.7 0-.7 1.3-1.5 2.2-1.5.3 0 1-.2 1.5-.5l.9-.6.1.6c.2.6.8.7 1 .3.1-.2.6-.2 1-.1.8 0 1 0 1-.4.2-.3.5-.6 1.1-.7l2.4-.7c2-.6 5-.7 8.3 0 2.6.4 3.6.8 3.6 1.6 0 .6 1.2.4 1.6-.4l.7-.8c.4-.3.4-.4-.2-.4-.4 0-.9-.2-1-.4l-1.4-1c-1-.5-1.4-1.2-.6-1.2l1.2.4c1.1.5 1.6.5 1.3-.1-.3-.6-1.7-1.2-3.8-1.7-1.4-.3-1.6-.3-3 .4l-2.4.8c-1 .2-1.5-.3-.6-.6 1.9-.7 4-3 2.3-2.6l-1.6.4c-.8.1-1.2.4-2.2 1.7-1.3 1.7-1.4 2-.6 2 .5 0 .6 0 .6.5 0 .4-.2.5-1 .6a49.6 49.6 0 0 0-6.4 1.4c.2-.4 1.4-1 3.3-1.6l1.2-.4v-1.4c-.1-.7-.3-1.5-.5-1.8-.2-.5-.3-.5-.7.1-.8 1.4-4.5 4.5-5.2 4.5-.7 0-1-.7-.8-2 0-.6 0-.7-.8-1-.9-.2-1.1-.5-1.9-2.7-.7-1.8-4.3-3.6-6-3l-.8.5 2.4 1.3c2.3 1.1 4.2 2.7 4.6 3.9.5 1 .5 4.3.1 4.7-.5.4-1 0-2.2-1.6-1.3-1.6-1.6-1.7-1.1-.4.6 2-.1 3.1-1.7 2.8-.5 0-1.1 0-1.6.2-.8.5-.6.7 1 .8.8 0 1 .2.9.7 0 .6 0 .6 1.2.4l1.9-.3zm20-.3c.1-.3-1.5-2-1.7-1.7-.1 0 0 .3.4.5.3.3.6.7.6 1 0 .8.5.9.7.2zm-29-.7-.3-.2-1.3-.4c-1.1-.4-2.4-.4-2.4 0s1.7 1 2.8.8c.6 0 1-.2 1.1-.2zm50.1-1c-.2-1.1-.5-1.7-.8-1.4-.3.2.4 2.6.7 2.6.2 0 .2-.5.1-1.2zm-86 .7h-.4c-.2.1-.2.2.1.2.3 0 .5 0 .4-.2zm30.4-1c.5-.4.5-.4-.1-.4-1.1 0-2 .3-1.5.6s1 .2 1.6-.2zM39.8 84c.2-.2.3-.6.4-1 0-.5.5-.8 2-1.6 1.1-.5 2-1.1 2.1-1.3.2-.5-.7-.6-1.5 0a3 3 0 0 1-1.4.5c-.3 0-.9.3-1.1.6-.3.2-.7.5-1 .5-.3 0-.7.3-1 .6-.5.5-.5.6 0 1.3.7.8 1.1.9 1.5.4zm8.7-.2c2-.3 3.2-.9 3.6-1.7.2-.7 0-2-.3-2s-.8.6-.8 1c0 .8-1.1 1.8-2.3 2.1-1.4.5-2.4.3-2.6-.6-.2-.8-.2-.8-.5.3-.3 1.2-.8 1.4-1.2.7-.4-.7-.9-.7-1.5 0-.4.4-.4.4.5.6 1 .1 2.8 0 5.1-.4zm126.8-.8c.6-.3.4-.5-1-.7-1.1-.2-1.5.2-.6.7.6.3 1.1.3 1.6 0zm-2.5-1.3c.1-.5 0-.5-.9-.5-1.7 0-2.6.6-1.1.8 1.6.3 1.8.2 2-.3zM40.9 80s.4-.4 1-.6c.8-.4.8-.5.7-1.4 0-.5-.3-1.2-.4-1.5-.2-.3-.3-1.2-.3-2s-.1-1.4-.3-1.4c-1.1.2-4.9 1.5-4.9 1.8 0 .1.3.2.6 0 2.2-.4 2.6-.4 2.6.1s-.3.7-1.6 1c-1.5.4-1.6.5-1.2.9.3.3.6.3 2 0 1.5-.5 1.7-.5 2-.1.7.6.2 1-2.7 2-3.2 1.3-3.2 1.6 0 1.5 1.4 0 2.5-.2 2.5-.3zm19-.5c0-.7-.1-.9-.4-.7-.5.5-.4 1.6.2 1.6 0 0 .2-.4.2-1zm120 .6c0-.1-.3-.3-.6-.3s-.5.2-.5.3c0 .1.2.3.5.3s.5-.2.5-.3zm2.9-.3c0-.2-.3-.6-.6-.7-.6-.4-2.4-.4-2.2 0l.6.2 1.1.5c.8.7 1 .7 1 0zm40.4 0c0-.3-.6-.8-1-.8-.8 0-2 .6-1.7.8.2.3 2.7.4 2.7 0zm-154.9-.2c.4-.2.7-.4.7-.6l-1.3-2.6c-1.5-2.5-2.2-4.6-2.1-5.7v-.8h2.7c1.8 0 3-.1 3.6-.4 1-.4 1-.5 1.2-2.4V65c-.1-.1-.6-.3-1.2-.3-1.4 0-2.5-.3-2.6-.7 0-.2.4-.3 1.8-.2 1 0 2 0 2-.2.2-.2.5-2 .6-4.1l.4-4.4c0-.6-.2-.6-1.5-.3-1 .3-.9-.3.2-.7l1-.3v-3.3c0-3 0-3.2-.6-3l-1.6 1.7c-1.3 1.7-3.3 3-4.6 3.2h-1V54l.3 3.6c.8 5.1-.7 9.5-3.4 9.8-.7 0-1.2.3-2.1 1.4l-2.2 2-1 1c0 .3-.2 1-.5 1.6-.8 1.4-.6 2.1.4 2.4l2 .6c1 .3 1.9.4 3.5.3 2-.2 2.3-.1 3 .3l.6.8c0 .4.7 2.1.9 2.1l.8-.2zm.4-22c.4-.5 3.6-1.6 4.2-1.6.7 0-.2.7-1.8 1.3-1.6.7-3 .8-2.4.2zm-3.4 21.2c0-.4-.8-.9-1.2-.7-.7.3-.5 1 .4 1 .4 0 .8-.2.8-.3zm-15-.5a1 1 0 0 0-.7 0c-.2.1 0 .2.3.2.4 0 .6 0 .4-.2zM209 77c0-.8.1-1.8.3-2.3.2-.7.2-1-.2-2.2-.3-1-.4-2-.4-5.2 0-3.7-.2-7.7-.4-9-.4-1.7-2 .5-2.8 3.8-.3 1.3-.6 3.4-.7 4.8-.1 2.2 0 2.4.4 3 .4.4.8.5 1.2.4.7-.2 2.2 1.3 1.9 1.9l-.6 1.7c-.7 2.2-.8 2.4-1.4 2.2-.3-.1-.5 0-.7.4-.2.7.2 1 1.1 1 .3 0 .8.2 1 .5 1 .7 1.3.4 1.3-1zm-2.4-7.2c-.1-.1-.3-.6-.3-1 0-.3-.1-.8-.3-1-.3-.7-.3-4.2 0-5.5.3-1 .9-1.6 1.3-1.3.3.2.2 9-.1 9-.1.1-.4 0-.6-.2zM170.8 77c.2-.6-1.2-.7-1.8-.2l-.5.6c0 .4 2.2 0 2.3-.4zm25.5-.5c.4-.2.2-.6-.3-.6-.3 0-.8-.4-1.2-1.1l-.7-1.1.7-.7c.6-.7.6-.8.2-1.2-.2-.2-.3-.5-.2-.7.2-.3 1.1-.3 1.3 0 .1.2.4.3.7.3.4 0 .5-.2.5-.7 0-.4.2-.7.4-.7.3 0 .4.2.3.6 0 .3 0 .5.6.6 1 .3 1.6 1 1.6 1.8 0 .7 0 .8 1.6.8 1.4 0 1.6-.1 2-.7 1-1.5-.3-2.8-1.7-1.7-.7.6-1.6.7-1.6.2 0-.2.4-.7.8-1.2.9-1 .9-1 .2-.8l-1.3.4c-.7.1-.8 0-.8-1v-1h1a4 4 0 0 0 1.7 0c.7-.3.8-.5.8-1.3 0-.6.2-1.6.4-2.3.3-1 .3-1.4.1-1.6-.3-.3-.9 1-.7 1.8v.9c-.2.2-2.6 1.6-3 1.6-.2 0 0-.7.4-1 .2-.2.4-.7.4-1.1 0-.4.1-.8.3-1l.7-1c.2-.5.6-1 .8-1 .8-.3.9-.9.2-1.2-1.3-.8-4.6-1.4-6.8-1.3-2.5 0-2.9 0-2.4-.7.5-.5.2-.8-.4-.4-.4.2-.5.4-.4 1 0 .3.3.6.4.6l.7.4c.2.3.5.3.8.1.8-.4 2.6.2 3.7 1.2.8.9.9 1 .7 2.5 0 .8-.3 1.8-.5 2.3l-.8 1.6c-.6 1.2-1.4 1.2-2-.1-.4-1-2.3-2.3-2.7-2-.1 0 0 .9.4 1.8l.5 1.8c-.4.4-.6.1-1-.7-.5-1.3-1-1.6-1.9-1.3-.9.4-1 .4-1.6-.1-.6-.6-2.5-1.3-2.4-.8 0 .1.5.4 1 .5.6.2.8.4.8.9 0 .4-.2.6-.4.6s-.4.2-.4.4c0 .5 1.3.6 2.2.1.4-.2.6-.2.8.1.2.2.6.4 1 .4s.6 0 .6.5l.4 1.4c.4 1 .3 1.2-.8.9-1-.4-1.4-.2-1 .6.3.6.3.8-.3 1.2-.7.6-2.8 1-3.3.5-.3-.3-2-.4-2.3-.1l.1.8c.3.6.4.7 1.4.5.6 0 1.7-.2 2.5-.1 1.4 0 1.6-.1 2.8-1 .7-.7 1.4-1.1 1.6-1.1.6 0 .6.4 0 .9-.9.5-1 1.8-.2 1.6.3 0 .8 0 1 .2.4.4 1.4.3 2 0zm-2.5-4.8c-.3-.3-.2-.6.2-.6.2 0 .4.1.4.3 0 .3-.4.5-.6.3zm11 4.4c-.2-1.1-.3-1.2-.8-.9-.7.4-.7 1.4-.2 1.5 1.1.3 1.2.3 1-.6zm-152.3.1H52c-.2.1-.1.2.2.2.2 0 .4 0 .3-.2zm2-.6c.2-.2.2-.4 0-.5-.3-.2-.5-.1-.6.2-.1.2-.4.5-.7.6-.3.2-.2.2.3 0 .4 0 1-.2 1-.3zm145-.6c.6-.5.6-.8-.1-.7-.6.1-.6 0-.6-.7 0-1.4-1.1-1.5-2.7-.2-.7.5-.3 1.1 1 1.6 1.2.4 1.8.4 2.4 0zm-147-.5c.4-.2.4-.2 0-.2l-.6.2c-.2.4.2.4.7 0zM218.8 73c0-.3.2-.6.4-.6l.4.6c.1.6.2.6 1.4.2 1-.4 1.9-1 1.7-1.3-.2-.3-3.5-.1-5 .2-1.4.4-1.6.7-.6 1.1 1 .4 1.5.3 1.7-.2zM48.9 73l1.2-.4c.4-.2.4-.2.1-.4l-1.5-.4c-1-.2-1.1-.2-1.1.3 0 .4-.3.7-.6.8-.6.3-.5.3.3.3A5 5 0 0 0 49 73zm-11.7-1a17.1 17.1 0 0 0 3-2.5c.6-.4 3.3-2.1 3.5-2.1a86 86 0 0 0 5.6-2.8c.2-.4-2 .4-5 1.9l-4 1.8c-2.1 1-2.4 1.2-1.8 1.6.4.3.3.4-1 1-2.3 1-3.4 1.3-5.3 1.3-1.7 0-2.1.1-1.7.6h2.8c2.3 0 2.6 0 3.9-.8zm178.4 0-.6-.6c-.5-.3-.6-.1-.3 1 .1.4.2.5.5.3l.4-.6zm-30.4-.7c-.4-.4-.7-.5-.9-.3-.4.5 0 .9.8.9h.7zm1.8-.3c-.1-.4-.4-.7-.5-.7-.4 0-.4.2.1 1 .6.8.8.6.4-.3zm-153.8.1c.4 0 .4 0 0-.2-.8-.5-2-.6-2.5-.3-.4.3-.3.4.5.5.5.1 1 .2 1.2.1l.8-.1zm12.9 0c0-.1-.4-.3-.7-.2-.6 0-.6 0 0 .2.6.3.9.3.7 0zm-19.4-.4-.8-.4c-.4 0-.4 0 0 .4.7.5 1.2.5.8 0zm26.8-.8c1.3-.5 1.1-.7-.4-.4-1.4.3-3.6 0-3.5-.4 0-.1 1.1-.3 2.4-.4 2.4-.2 3.4-.4 6.3-1.3 1.5-.5 1.7-.7 1.7-1.2v-.7l-1.6.6c-3 1-6.5 1.2-8 .4h-.7c0 .2-.4.4-.7.4-.4 0-.5.3-.4.8 0 .5-.1.8-.5 1-.8.6-.7 1.5.2 1.7 1.2.2 4.2 0 5.2-.5zm2.5.4c0-.1-.2-.2-.4 0l-.4.2h.4c.2 0 .4 0 .4-.2zm127.2 0c0-.2-.2-.4-.4-.4s-.4.2-.5.3c0 .2.1.4.5.4.3 0 .5-.2.4-.4zm-147-.7h-1.5c-.4 0-.1.1.7.1.8 0 1.1 0 .7-.1zm179.9-.7c0-1 .4-1 1-.3l.4.7.3-.7c.2-.5.8-1.2 1.4-1.6.8-.5 1-.8.9-1-.5-.5-.3-1.1.6-2.7 1.8-2.9 2.5-5.2 2.7-8 .1-1.7.1-2.5-.1-2.5-.6 0-1.3 2.6-1.5 5.6a13.6 13.6 0 0 1-2.4 5.5c-.5.5-.7.7-1 .4-.2-.2-.2-.5 0-1.1.3-.7.3-.8 0-.8-.5.2-.7 1.6-.6 2.9.1.9 0 1.3-.2 1.5-.5.5-.9 0-1-1.3-.2-1.5-.2-1.5-.9-1.6-.5 0-.5.1-.7 1.7-.2 1.5-.1 2 .2 2.4l.4 1c0 .3 0 .5.2.5s.3-.3.3-.6zm8.2.2c.2-.3.2-.4-.2-.9-.8-.8-2.7-.8-4.1-.1-1.1.6-1 1.1.4 1.2 3.3.2 3.6.2 3.9-.2zm-38.8-.1c0-.2-.3-.3-.5-.3s-.4.1-.4.3c0 .1.3.3.6.3s.4-.2.3-.3zm24.8-5c-.2-.8-.2-2-.1-2.4v-3c-.2-2-.3-2.3-.6-2-.4.3-.4.4-.4 4 0 1.9.2 2.9.4 3.3.3.4.4 1.2.4 2.4l.2 2.3c.3.8.4-2.7 0-4.5zM27.9 68c0-.2-.5-.4-1-.5-.4-.1-1.2-.4-1.7-.8-1.1-.6-1.8-.7-1.2-.1a16 16 0 0 0 3.8 1.7c.1 0 .2-.2.1-.3zm46.8-.5c0-.3-.1-.2-.1.1l.1.4v-.5zm-40.4 0h-1c-.4.1-.2.2.4.2.5 0 .8 0 .6-.1zM214.5 62c.3-.7 1-1 1-.3 0 .2.3.6.6 1 .6.6.8.3 1.4-1.7a5 5 0 0 1 .7-1.7c.2 0 .3-.4.3-.7 0-.4-.1-.5-.4-.4l-.7.2-1 1.2c-.4.9-.8 1.2-1.2 1.1-.3 0-.6.2-.9.6-.3.7-1 1.1-1.4.9-.4-.2-.2-1.1.4-2.2.7-1.3 1-2.8.3-2.1a5 5 0 0 0-.7 1.6c-.3 1.2-.6 4-.3 3.5 0-.2.3-.4.5-.4.6 0 .7.6.2 1-.3.4-.3.9-.2 2.2l.2 1.7.4-2.3.8-3.2zm-29.2 4c.1-.1 0-.2-.5-.1-.5 0-.9.2-1 .4 0 .3.1.3.6.2l.9-.5zm-158.1-.4c0-.4.6-.4 2 0l-.4-.3c-2.5-1.6-3-2-3.2-2.6-.2-.6-1.8-1.5-2-1.3-.1.1.1.5.5 1 .8.7.9 1.2.4 1.4-.3 0-.2.2.1.4.3.2.5.5.5.7 0 .4 1.5 1.5 1.9 1.3l.2-.6zm195.5.4a30 30 0 0 0 1.6-5.7c0-.2-.1-.3-.3-.3l-.2.4-1.3 3c-.8 1.5-1.3 2.7-1.2 2.8.3.3 1 .1 1.4-.2zm-166.4-.3 2.5-.8c1.4-.5 2.3-.5 2.3 0s.4.5.6 0c.2-.1.1-.3 0-.4-.2 0-.4-.2-.4-.5s-.2-.3-.8-.2c-3.3.7-7.8.8-9 .3-.4-.1-.6 0-.8.5-.3.6-.3.8.2 1.1.6.5 3.5.5 5.4 0zm-13.4-.5c.8-.3 1-.4.6-.5-.8-.3-11.6-.3-11.9 0-1 1 9 1.4 11.3.5zm152.8.3-1-1.4a4.2 4.2 0 0 1-1.2-2.2c-.2-1.1-.2-1.1-1.2-1-.7.2-1 .1-1.3-.3-.3-.4-.4-.4-.6 0-.4.6-.3.7.7.7.5 0 1 .2 1.2.4.3.4.2.4-.8.4-2.2 0-1.4 1.6 1.4 3 1.7.7 2.8 1 2.8.4zm1.9-1c.4-1.5.3-1.8-.7-2.5-1-.8-2.1-.8-2.6-.1-.2.4-.1.6.4 1 .4.3 1 1 1.4 1.6.4.6.9 1 1 1l.5-1zm-10.3-.6c0-.2-.2-.5-.3-.5-.2 0-.3.3-.3.7 0 .4.1.6.3.5.1 0 .3-.4.3-.7zm-139.5-.2c2.9-1.5 2.8-2.4-.2-1.2l-2.1.9c-.2 0 .8.8 1 .8l1.3-.5zm-16.1-.2c0-.2-.7-.4-1.5-.7-1.7-.5-3.3-1.6-3.3-2.3 0-.7.3-.6 1 .1 1.2 1.3 5.2 2.2 10.6 2.4 2.7.1 3.5 0 4.9-.3l2.4-.7c1.5-.4.6-.6-1.8-.5-2.6.2-5.1-.3-5.2-.8V60c0-.2-.5-.5-1-.6-2-.5-4.3-1.4-5.6-2L30 57h-1.1l.9.2c.5.2.8.5.8.8 0 .5-.1.6-1 .4A10 10 0 0 1 28 58c-.2-.1-.4 0-.4.1 0 .3 1.4 1.1 2 1.1.5 0 .5.8 0 1-.6.2-2.8-1-3.3-2-.5-.8-1-1.4-1.6-1.4-.2 0-.3.3-.1 1.3.1 1.2 0 1.4-.3 1.4-.2 0-.5-.3-.6-.6-.2-.4-.3-.5-.5-.2-.1.2.2.6.9 1.2l2.2 2c.8.8 1.6 1.3 2.2 1.5 1.4.3 3 .4 3 0zm2.2-3.2c-2-.2-2.5-.3-2.5-.8 0-.3.3-.4 2-.2 1.7.1 2.4.5 2 1l-.4.2-1-.2zM59.6 63c1.2-.4 1.3-.4 1.6 0 .4.6 1.3.4 1.6-.3l.3-2.5c.2-2.4.3-2.3-2.4-1.7-1 .2-3 .4-4.2.4-2.1 0-3 .3-2.5.8.4.3 3.8.3 5.2 0 1.5-.5 2.3-.3 1.6.3-.7.8-6.6 1.2-7 .5-.3-.4-.9-.3-1 .2-.2.2-.1.6 0 .7.4.4 3.2.2 6-.3 2.2-.4 2.7-.4 2.4.2-.4.7-7.3 1.6-8.4 1-.5-.2-.6-.2-1 .2-.7 1-.3 1.2 3.6 1 1.8 0 3.3-.2 4.2-.5zm151.7-2.7c0-.7.2-1.5.4-1.7.6-.8.5-1-.2-1-.5.1-.6.3-.6 2 0 1.2 0 2 .2 2 .1 0 .2-.6.2-1.3zm-77.8.6-.4-.1c-.2 0-.3.1-.3.2 0 .2.1.2.3.1.3 0 .4-.2.4-.2zM51 60.8c0-.2-.1-.3-.3-.3-.1 0-.2.1-.1.3l.3.3.1-.3zm153.6-.7c.3-.8.1-1.4-.5-2-.8-.7-.9-1.4-.3-2.5l.4-1.3c0-.4.1-1 .3-1.3.2-.7.3-.7.7-.3l.8.4c.2 0 .4.3.6.6.2.4.4.5.4.3.1-.2.3-.4.5-.4a66.9 66.9 0 0 0-1.3-11.8c-.3-.3-.7.3-.6.7.2.4 0 .7-.6 1-1 .8-1.7 3-1.5 5 0 .7 0 3-.2 5.3-.2 3.4-.3 4-.8 4.4-.5.5-.5.5.4 1.4 1 1 1.4 1.1 1.7.5zm-.4-10.7a2 2 0 0 1 0-1.3c0-.7.3-.9.8-1 .9 0 1.4.5 1.2 1.2-.2.4-.3.6-.7.4-.4 0-.5 0-.5.4 0 .8-.5 1-.8.3zM49.3 59.8c.5-.1.5-.6 0-.6-.6 0-1.7.6-1.7.8 0 .2.7.2 1.7-.2zm-4.3-.5c1-.2 2.5-.7 3.2-1l1.3-.7-3 .1c-2 0-3 .2-3.2.5-.1.2-.9.3-2.7.3-1.5 0-2.2 0-2 .2l2.1.2c1 0 1.6.2 1.8.4.4.5.2.5 2.5 0zm95.6-.6-.1-.3c-.2 0-.4.1-.5.3l.1.2c.2 0 .4 0 .5-.2zm50.4 0c0-.2-1.3-.8-1.7-.8-.5 0-.1.4.5.7 1 .4 1.2.4 1.2.1zM37.4 58c0-.2 1-.3 2.4-.1 1.6.1 2.2 0 2.2-.2 0-.1-.2-.3-.5-.4l-1-.5c-.5-.2-1.9-.4-3.3-.5l-4.2-.3-1.7-.2.8.5c1.3.8 4 1.9 4.5 2 .3 0 .7-.2.8-.3zm101.3-1c0-.6 0-1.1-.2-1.1h-.8c-.6 0-.6 0-.5.9.3 1.1.5 1.4 1 1.4s.5-.2.5-1.2zm62.7-1 .4-7c.4-4.8.4-5-.1-6s-.7-1.1-1-1c-.8.2-2.6 1.4-2.6 1.7 0 .3.8 0 1.6-.6.3-.3.8-.5 1.1-.5.4 0 .5.1.2.5-.2.4-.1.6.2.7.3.1.4.7.3 3.5 0 3.3-.3 4-1 3.5l-.6-.2c-.1 0-.2 1.2-.2 2.7 0 2.8-.1 3.6-.6 3.6-.1 0-.2-1 0-2.7 0-2.6-.5-8.5-1-9-.3-.4-2 .5-2.2 1.2-.2.3-.6.6-1 .7-.9.1-.6-1 .5-1.7 1-.7 2.3-2.5 1.9-2.5-.2 0-1 .5-1.7 1-1.4 1.1-2.6 3-2.4 3.6.1.2 0 .7-.2 1l-.7 1.6c-.3.9-.3 1 .4 1.6.3.4.6 1 .6 1.4 0 1.7 1 2.4 2 1.5.5-.5 2-.6 2.6-.2.2.2 0 .3-.9.4-.6 0-1.1.3-1.1.4l.2 1 .2.7h-1.7c-1-.1-1.6 0-1.7.2 0 .2.8.3 2.7.5 1.6 0 3.3.2 3.8.3 2 .5 2 .6 2-1.8zm-7.3-3c0-.4.7-.8 1.4-.8.9 0 1 .3.2.7-.6.4-1.6.4-1.6.1zm23 4-.1-.6c-.3 0-.9 1.1-.9 1.6s.7-.3 1-1zm-156.2.4.9-.2c1.4 0 1.4.1 1.2-1.8l-.4-2c-.5-.2-1 0-1.4.9-.5 1-.5 1.3 0 1.3 1.6-.2 1.5.4 0 .9-.8.2-1.4.5-1.4.8-.1.5.8.6 1.1.1zM149 57c.5-.2.6-.3.4-.3-.2 0-.9.2-1.4.5-1.2.5-.3.4 1-.2zm37 0c0-.5-.2-.6-.5-.4-.3.1-.7.2-.9.1-.2 0-.2 0 .1.3.7.6 1.2.6 1.2 0zm-130.6 0H55c-.2 0-.1.1.2.2.3 0 .4 0 .3-.2zm159.9-2.2c-.5-.1-.7.3-.9 1.5l-.2 1 .7-1.2c.3-.6.5-1.2.4-1.3zM23.3 56c-.3-.2-.3-.1-.3.2l.1.6c.1 0 .3 0 .3-.2 0-.1 0-.4-.2-.6zm5.1.8H28l.2.1c.3 0 .4 0 .3-.1zm177.5-.3c0-.3 0-.4-.3-.3-.2 0-.5.2-.5.4-.2.5.6.4.8-.1zm-157.6 0c.5-.1.8-.3.8-.5 0-.5-.3-.5-1.4 0-1.5.6-1.1.8.6.5zm97.9-.8c.8-.5.5-.8-1.2-1-1.3-.2-1.3-.1-1.2.4.1.4 0 .5-.7.5-.5 0-.9-.2-1-.4-.3-.4-.3-.4-1 0-.3.3-.7.7-.7.9 0 .5 4.9.2 5.8-.4zm37.7-.1c-.5-.8-.9-1-.9-.5 0 .3.9 1.2 1.1 1.3l-.2-.8zm28.4-.5-.1.5c0 .5 0 .7.1.5v-1zm-166.8.4c3-1 3.1-1.6.2-1-2 .5-6.5 0-7.3-.8-.4-.4-1.1-.6-3.4-.8-1.6 0-3.2-.3-3.6-.4-.4-.1-.6 0-.5.2.2.6 3.8 2 5.8 2.3 1 .2 2.5.3 3.3.3 1 0 1.8.2 2.1.4.8.6 1.1.5 3.4-.2zm13.6.1c.4-.5.4-.5-.5-.6-1.6-.3-3.2-.1-3.3.4 0 .3.1.4 1.3.4l1.5.2c.2.2.5.1 1-.4zm128.4.1-.2-.5c-.2 0-.3 0-.3.4 0 .3.1.5.3.5.1 0 .2-.1.2-.4zm2.7-.3c.5-.4.6-.4 1 0 .3.6.3.6.8 0 .7-1 .7-1.1-.2-1-.7 0-.7 0-.8-1.2-.1-.7-.4-1.5-.7-1.8-.6-.7-.4-1.8.2-1.7.6 0 1.5-2 1.5-3.3 0-2.8 0-3.5-.2-4-.4-.7-.4-2.4 0-2.4 0 0 .3-.4.4-1 0-.4.4-1 .6-1.3.4-.3.5-.8.5-1.6a29 29 0 0 0 .7-6.5c.1-2.4.3-5.3.5-6.4.1-1.2.3-3.7.3-5.7s.2-4.4.3-5.4c.5-3.3.6-4.4.2-4.4-.2 0-.4-.2-.5-.4 0-.2-.3-.3-.4-.2-.2 0-.2.2 0 .3.3.2.3.4 0 1-.2.5-.4 1.5-.4 2.3-.2 2.8-.5 4.7-.8 5-.4.3-.2 1 .6 1.7.2.3.2.6 0 1-.3 1.2-.6 2.9-.5 3.3.1.8 0 2-.2 2.3-.2.2-.3 2-.3 4.5 0 2.3-.2 4.4-.3 4.7-.3.6-.7.6-.7-.1 0-.3-.2-.5-.3-.5-.4 0-.3 1.2.1 1.6.5.4.5.8-.1 2.7-.7 2-.9 2.2-1.9 2-.7 0-.8-.1-.6-.9 0-.6 0-1.2-.4-2s-.5-1.8-.5-3.2c0-1.6-.1-2-.4-2-.5 0-.7-.5-.5-1.7 0-.6-.1-1.3-.3-1.8l-.4-.7.1 1c.2 1.1-.2 1.4-.7.5-.2-.5-.3-.5-.8-.2-.7.4-.6.7.1.8.8 0 1.4 1.8 1 3-.1.3-.2.8 0 1l.2 2.4c0 1.5.2 2.2.5 2.5.4.5.4.6 0 1.2-.6.9-.6 1 .5 1.6 1 .7 1.2 1.2.4 1.2-.5 0-.5.1-.5 1.6 0 1-.2 1.6-.4 1.7-.7.3-1.3 2.1-1.1 3.6 0 .7 0 1.6-.2 2-.2.5-.2.7.3 1.4.3.4.6 1.2.6 1.7 0 1 .4 1.5.6.7l.2-3.3c0-3.4.4-4 .9-1.7.2 1.1.4.8.5-1.1.2-1.8.5-2.5 1.6-3.6.7-.5.7-.7.5-1.3-.2-.4-.3-.8-.2-1 .3-.9.7-.3.8 1 .1 1.2 0 1.5-.4 1.7-.4.2-.6.6-.6 1s-.1.9-.3 1c-.4.5-.8 2.7-.7 4.1a45.6 45.6 0 0 1 .2 4.8s.4-.2.6-.5zm-2.5-8.5V43c0-.3.2-.5.4-.5.1 0 .2 1 .2 2.3 0 1.2-.1 2.2-.2 2.2-.2 0-.3 0-.4-.2zm29.8 6.9c.8-2 1.2-2.5 1.6-2.2.6.5.8-.1.3-.8-.4-.6-.3-.7 1.8-2.6 3.7-3.5 4.2-4 4.2-5.8 0-1.3-.4-1.4-1.6-.4-1 .8-2 1.2-2.4.9h-1c-.4.2-.9.2-1.2.1-.3 0-1 0-1.6.4l-1.6.7c-.3 0-.4.2-.3.3.2.4-2.8 5.7-3.7 6.6-.7.6-1 1-1 1.7 0 .4 0 .8-.2 1-.3.1-.3 1.4 0 1.4l1.1-1.8c1-2 3.1-4.4 4.2-4.7a5 5 0 0 0 1.5-1c.9-.8 1.5-.9.9 0-.6.7-.1.6 1.2-.2l1.5-.8c.5 0 .1.6-1 1.3-1 .7-1.3 1-2.9 2.7-.7.8-.9 1.2-.5 1h.6c.3.2.3.4-1 3.6-.1.5 0 .5.3.2l.8-1.6zm-.9-6.9a10.8 10.8 0 0 1 3.5-2.7c.5-.4.8-.5 1-.3.2.1 0 .5-.8 1-.5.3-1 .7-1 .9 0 .2-2 1.3-2.4 1.3-.1 0-.3 0-.3-.2zm5.3-1c0-.2.2-.4.4-.4.5 0 .4.6 0 .8-.2 0-.4-.1-.4-.3zm-82.2 8.3c-.3-.3-1.4-.2-1.6.2-.1.5 1 .9 1.5.5.2-.3.3-.5.1-.7zm12 .9c1.2 0 .9-.4-.3-.6-.7-.2-1 0-1.4.4-.4.5-.4.5.2.3l1.6-.1zm-124.1-.3c-.2-.3-1.8-1-2.2-1-.3 0 .6.8 1.1 1 .8.3 1.3.3 1 0zm3-.5c0-.3-2.4-2-4.2-3a7.6 7.6 0 0 1-2-1.7c-1-1.3-1.2-1.4-1.2-.4 0 .9 1.4 2.7 2 2.7.3 0 .7.3 1 .6.2.4.8.8 1.3.9.4 0 1.3.4 1.9.6 1.3.6 1.2.6 1.2.3zm151.2-.8c-.1-.4 0-.6.3-.6.6 0 1.5-.7 1.5-1.2l-.4-.6c-.6-.5-.5-1 .2-1.7s1-1.7.3-1.7c-.5 0-.8-.7-1-2 0-.7-.4-1.5-.8-2-.4-.4-.8-1.2-.9-1.7 0-.4-.3-1-.6-1.3-.4-.4-.4-.4-1 .3-.5.6-.6.7-.2 1 .3.1.4.4.2 1.7 0 1 0 1.6.2 1.7.2.2.3 0 .1-.8-.1-.8 0-1 .3-.9.7.2 2.5 6.1 2 6.5-.2 0-.3.4-.3.8 0 .3-.4 1-1 1.7-.8 1-.8 1-.4 1 .3 0 .7.2.7.3.3.5.8.1.8-.5zM24.3 53c0-.3-1-1.2-1.2-1-.2.1.6 1.2 1 1.2 0 0 .2 0 .2-.2zm133.7-.4c0-.3 0-.4-.5-.4-.7 0-.9.2-.5.6.3.3.8.2 1-.2zM58.9 52c.2-.5.2-.6 0-.6-.6 0-1.8.6-1.8.9 0 .4 1.4.2 1.8-.3zm-13.7 0c.3-.2.3-.4 0-.6-.2-.3-1.2-.4-3-.4s-3.4-.2-4.7-.6c-1-.3-2.7-.6-3.6-.7-1.4-.1-1.7-.1-1.7.2 0 .3.6.6 1.7 1 2.5.8 3 .8 6.6 1l3.9.3.8-.2zm175.4-.6c.3-.6.3-.6-.1-.1l-.4.7c0 .4 0 .2.5-.6zm-158.2 0c0-.3-1-.3-1.2 0v.4c.2.2 1.2-.1 1.2-.4zm99.7-.7.5-.5c-.1 0-.7.2-1.3.6-.8.4-1 .6-.5.5l1.3-.6zm-131.4 0c-.4-.4-.9-.6-1.2-.6l-2-.8c-1.8-.9-2.4-1-1.9-.4.4.5 1.6 1 3.7 1.7 1.9.7 2.1.7 1.4 0zm134 .2c0-.1 0-.3-.3-.3-.2 0-.4.2-.4.3 0 .1 0 .3.2.3s.3-.2.4-.3zm51.6-.7.2-.4c-.4 0-1.5.8-1.5 1.1 0 .3.9 0 1.3-.7zm-157.1 0s0-.2-.3-.4-1.8.4-1.8.7c0 .2 1.9-.1 2-.3zm151.8-.7c.6-1 .7-1 .3-1.3-.4-.2-.5-.6-.2-5.6 0 0 0-.2.2-.2.4 0 .8 2.5.6 3.5-.4 1-.4 1.6 0 1.6.1 0 .7-2.3.8-3.7.1-.9.8-1 1 0 .2.5.2.5.8-.5.6-.8 1-1.1 2.6-1.6l2.6-1.2c1.5-1 3.5-2.9 3.5-3.3 0-.6-.3-.4-1.7.9-1.2 1.1-1.4 1.2-2.9 1.3-1.3.1-1.7.3-2.6 1-.9.9-2 1.3-2 .8a14 14 0 0 1 3.8-3.4c1.2-.7 1.3-.9 1-1.9-.2-.5-.2-.5-.4 0-.1.4-.6 1-1.2 1.4l-2.2 1.8a8.5 8.5 0 0 1-4 2.4c-1 .2-1 .2-.9-.4.2-.5.2-.5-.5-.2s-.7.3-.5 2.2l.2 2.8c0 1.4.5 4.7.8 4.7l.9-1zM62.3 50c0-.2-.1-.3-.4-.3-.6 0-1 .3-.7.6.3.3 1 0 1.1-.3zm13.5-.5c-.3-.3-.5 0-.3.6.2.5.2.5.3 0v-.6zm-21 .4-.5-.2c-.2 0-.4 0-.4.2s.3.3.6.3.4-.1.3-.3zm12.6-1.1-.7-1c-.2 0 .2 1.2.6 1.7.7.7.7.3 0-.7zm38.3-.2c.2-.3.3-.5.1-.6-.1 0-.7.3-1.2 1l-1 1 .8-.5 1.3-1zm70.6 0c.9-1.4 1.1-1.6 1.7-1.3.4.2.5.2.5 0 0-.3-1-2.4-1.1-2.4l-1.2 1.6c-1 1.5-1.4 2.8-1 3.3.3.2.3.2 1.1-1.1zm1.1 1.2c.4-.1.6-.4.5-.7 0-.9-.5-.8-1 0-.5.9-.5 1 .5.7zM53 48.7a11 11 0 0 1-.2-2.3V45l-.5.7c-.9 1.2-1.4 2.4-1.1 2.9.2.4 1.3 1 1.7 1 .2 0 .2-.4 0-1zm1.5-1.7c0-1.8 0-2.3.3-2.8.4-.5.4-.5.8 0 .3.4.4.4.6-.5.1-.6.4-1 .7-1.1.4-.1.4.1.3 2.3-.1 1.6-.1 2.4.1 2.5.2.1.3-.2.3-1 0-1.5.5-4.3 1-4.8.2-.4.4-.5.6-.2.3.2.2.7 0 2-.5 1.5-.5 1.5.1 1.5.5 0 .6-.2 1-1.8l.4-2.5.1-.8-1.1.2c-1.4.2-3 1-4 2-1 .8-2.2 4.5-1.9 5.7.2.7.6 1.4.8 1.4V47zm1.8 1.6a6 6 0 0 1-.3-2c0-1 0-1.4-.3-1.3-.3.2-.2 3 .2 3.6.3.5.7.3.4-.3zm13.2.3-.7-.8c-.5-.5-.6-.5-.4-.1.3.9 1.1 1.6 1.1 1zm-8.2-.5c-.2 0-.5-.3-.6-.4 0-.2-.2-.2-.3-.1-.3.3.4 1 .9.8.3-.2.3-.2 0-.3zm105.4 0c.4 0 .4-.2.2-.5-.2-.2-.3-.7-.2-1.1.2-.7.1-.8-.3-.8a2 2 0 0 0-.8.2c-.4.2-.4.3-.1.6.4.4.4 1 0 1-.2 0-.6.3-1 .6l-.7.5 1.2-.2c.7 0 1.4-.2 1.7-.3zM31.8 48c-1-.5-3-.8-3-.4 0 .2 2.5 1 3.5 1 .4 0 .2-.2-.5-.6zm4.6 0c0-.4.2-.5.7-.3.5 0 .7 0 .6-.2 0-.2-1.1-.6-2.3-.9l-3.4-1c-1.3-.5-2.2-.5-2.2-.2s2.3 1.6 4.2 2.3c2.1.8 2.4.8 2.4.2zm164-3.8c.2-.4-.5-.5-.9 0-.3.3-.3.6.1 2.7.2 1 .2 1 .4-.7 0-1 .2-1.9.3-2zm-172.6 3c.2-.2 0-.5-.7-1.4a6.3 6.3 0 0 0-1.3-1.2c-.4 0-.2 1 .4 1.8.6.9.9 1 1.6.8zm22.5-.4c0-.3 0-.5-.1-.4-.2 0-.3.3-.3.5 0 .6.2.5.4-.1zm19.5-.5c-.6-1.2-.7-2.1-.2-2.4.6-.2.6-1.1 0-1.1S68 44.5 68.2 45c.7 1.4 1.4 2.3 1.8 2.3 0 0 0-.4-.3-1zM76 46c-.2-.8-.8-1-1-.3-.2.5.6 1.5 1 1.2v-1zm-27 0c1.4-2.3 2.7-3 2.4-1.5-.2 1.2.2.7.8-.9.4-1.2.4-1.3 0-1.6-.7-.5-.2-1.2 1.4-2.4 1.2-.8 1.4-1.1 1.4-1.9 0-.6 0-.9.4-.9.5 0 .5-.6 0-1.6-.4-.7-.5-.8-2.1-.8-1 0-2 .2-2.5.4l-.7.3h1.1c1.2.2 1.6.7.6 1-.4.2-.4.3-.3 1.2.5 1.8.4 2.7-.4 3-.8.4-.8.7 0 1.4l.5.6-1.5 1.7-1.6 2.3c-.3.8 0 .7.6-.3zm131 .3c0-.2-.1-.2-.1.1 0 .3 0 .5.1.4v-.5zm-113.3 0-.4-.2c-.1 0-.2 0 0 .2 0 .2.2.3.3.3.2 0 .2-.1.1-.3zM24.5 46c0-.2 0-.3-.2-.4-.2-.1-.3 0-.3.2s.1.4.3.4c.1 0 .2 0 .2-.2zm46.9 0-.4-.6c-.5-.3-.5-.2-.3.4.2.5.7.6.7.2zm-28-.4c0-.4-1.7-.6-2.3-.3-.4.2-.4.2-.1.4.5.3 2.5.2 2.4-.1zm4.4-.7c.2-.4.5-.9.7-1l.4-.6c0-.2-.5.1-1.1.6-1.7 1.3-1.7 1.3-1.3 1.5.7.5 1 .3 1.3-.5zm136.5-2c.1-2.5 0-2.7-1.4-1.6l-.7.7.5.7c.3.4.6 1 .6 1.4 0 .4 0 1 .2 1.2.3 1 .7-.1.8-2.4zm23.7-.6-.2-3.4c0-1 0-1.1-.3-.7-.2.2-.5.4-.6.3-.5-.3-.4 1 0 1.5.4.4.4.5.2 1-.3.3-.3.9 0 2.3.1 1 .4 2 .5 2.2.3.7.6-1.1.4-3.2zm-168.2 3h-.5c-.2 0-.1.1.2.1.2 0 .4 0 .3-.1zm21.8-.4c-.2-.2-.3-.3-.3 0s.3.6.5.4c0 0 0-.3-.2-.4zm114.8 0c0-.2-.1-.2-.3-.1l-.2.4c0 .2.1.2.2.1.2 0 .3-.3.3-.4zM38.8 45l-3.5-1.5c-5.1-2-6.4-2.5-7.1-3.4-.9-1-1-1.5-.2-2 .4-.4.4-.6.2-1-.4-.8-.7-.6-1.6 1.1-.9 1.8-.8 2.4.2 2.4.5 0 .7.2.9.6.3.8 4 3 5.3 3.2 2.4.4 6 .8 5.8.6zM65 43.8c-.2-.5-.8-.6-.8-.1 0 .2.2.4.4.4.3 0 .4-.1.4-.3zm-39.7-.5c-.1-.7-.8-1-.8-.3 0 .5.3.9.6.9.2 0 .2-.3.2-.6zm37.6 0 .4-1.3.2-.7-.4.7c-.5.8-.8 1.9-.6 1.9l.4-.6zM47 42.9c.4-.4.4-.4-.2-.1a3 3 0 0 1-1 .3c-.4 0-.6 0-.6.3 0 .4 1.3 0 1.8-.5zm156.8.3c.4-.3.4-.4.2-.4s-.6-.2-.8-.5c-.3-.4-.3-.3-.3.4 0 1 .1 1 1 .5zm-176.6-.5c-.8-.7-1-.8-1-.5 0 .5.7 1.1 1.3 1.1.5 0 .4 0-.3-.6zm10-.2c0-.2-.8-.5-1.6-.7-2-.5-4.4-1.7-5.6-2.7-1-1-1.3-1-1.2-.2.1.7 3 2.3 6 3.4 2 .7 2.6.7 2.4.2zm5.7.3c.2-.3-1-.9-1.5-.6-.1 0 0 .3.4.5.7.4 1 .4 1.1 0zm71-1 .8-.6c.1-.2 0-.3-.5-.1l-1.7.3c-1.4.3-1.7.5-1.5 1.1.1.5.1.5 1 0a12 12 0 0 1 1.8-.7zm80.4.6c-.2-.5 1.7-1.4 3.4-1.6.7 0 1.6-.3 2-.5l2.2-.7a11 11 0 0 0 2-.7l.8-.3.2 1.2c.1.9.3 1.1.6 1 .6 0 .7-2 .3-4.8l-.3-2.2-.7.4c-.3.2-1.3.5-2.1.6-1.8.2-4.4 1.1-7 2.5l-1.7.9-.2 1.4c-.2 1.7 0 3.5.4 3.3.1 0 .2-.3 0-.5zm6.6-5.6c-.2-.4.2-.8 1-1.1 1.3-.5 1.7.2.5.9-1 .4-1.3.5-1.5.2zM40.1 42.4c.4-.4.4-.4-.9-.8-.4-.1-1.2.1-1.2.4 0 .2 1 .7 1.5.8.2 0 .5-.2.6-.4zm34.5 0c-.1-.4-.6-.6-.6-.2 0 .3.3.6.6.6.1 0 .1-.2 0-.4zm-3.8 0a9 9 0 0 0-.4-1.2l-.3-1v1.2c0 .8 0 1.1.3 1.1s.4 0 .4-.2zm5.2-1.1c-.7-1.4-2.2-2.8-2.2-2 0 .2 2.4 2.9 2.6 2.8l-.4-.8zm2-.7c-.2-.3-.2 0-.2.6 0 .7 0 1 .1.6v-1.2zm-24.5.7c-.1-.2-.7.2-.7.5 0 .2.2.1.5 0l.2-.5zm13.9-.1c0-.3-.7-.7-1-.4-.2.2.2.7.6.7.2 0 .4-.2.4-.3zm-19.7-.4c.5-.4.5-.4-.3-.3-.4 0-.8.2-.8.4-.2.4.4.4 1-.1zm-7-.7c-.1-.4-.7-.9-1.5-1.2-1.4-.7-1.4-.7-1.4-.2 0 .5-.9.5-1.9 0-.6-.3-2.7-2.5-3.3-3.5l-.6-1.7-.3-1.2.1 1.6.2 3c0 1.1 0 1.3-.5 1.4-.6.1-.6.2.5.8.7.4 1.5.6 2 .6.6 0 2.3.2 3.9.6l3 .5-.2-.7zm13.9.6c.3-.5 0-.6-.4-.2-.2.3-.3.4 0 .4 0 0 .3 0 .4-.2zm128.4-.3c.3-.2.6-.7.8-1a56.7 56.7 0 0 0-1.3-17.2s-.7.3-1.3.8l-1.3.7c-.2-.3.2-.7 1.3-1.3 1.6-.8 1.7-1 1.6-3.3l-.2-2.1h-1c-.8 0-1.6.4-3.2 1.4-1.2.7-2.7 1.4-3.6 1.6-2.2.5-2.3.6-1.6 2 .5 1 .7 1.2 1.3 1.2 1.2 0 3.8-1 5.3-2 1.4-1 2.3-1.2 2.1-.6 0 .2-.6.6-1.1.8l-1.5.8c-.9.6-2.3 1.1-3.4 1.2-1.4.2-1.6.6-.6 1.4.7.6.8.9.8 2 0 1.2.3 1.7 1.6 4.1.9 1.5 1.8 3.4 2 4 1.3 4.1 2.1 6 2.4 6l.9-.5zm-5.2-14.1c.3-.3.8-.4 1-.4.2 0 .7-.3 1-.6.4-.5 1.9-.7 1.9-.2 0 .3-2 1.2-3.2 1.4-1 .2-1.1.2-.7-.2zM69 40c0-.5-.3-.6-.6-.3-.2.2 0 .9.4.9l.2-.6zm47.3-.1.8-.8c-.3-.2-1.7.6-1.9 1-.2.6 0 .6 1-.2zm69.1.2c0-.2-.1-.4-.3-.4-.1-.1-.2 0-.2.2s0 .4.2.4.3-.1.3-.2zm27.1-.5c.7-.4 1-.9.5-.9l-1 .7c-.9.7-.5.9.5.2zm-156.3 0c0-.2 0-.3-.2-.3-.1 0-.2 0-.2.2v.3l.4-.3zm153.7-.5c-.2-.2-.7.1-.7.5 0 .1.2.1.4 0l.3-.5zm-166.8 0c0-.2-.3-.5-.6-.7-.3-.3-.5-.6-.5-.8 0-.2-.8-.9-1.7-1.5-1-.6-1.9-1.3-2.1-1.6-1-1-1-.5-.1.7 1.4 2 5 4.7 5 3.8zm6.4-.8c.8-.3.7-.3-1-.3-1.8 0-2.4.3-2 .8 0 .3 2 0 3-.5zm8.6-.6c0-1-.2-1.6-.8-2.5-1-1.5-1.1-1.5-.6 0l.4 2c0 1 .3 1.8.8 1.8.1 0 .2-.6.2-1.3zm19.5.8c-.1-.2-.3-.3-.5-.3-.1 0-.1.1.1.4.4.4.7.3.4-.1zm-5.3-.2c0-.3 0-.4-.2-.3-.4.1-.6.7-.3.7.2 0 .4-.2.5-.4zm107.3 0c0-1-1.3-4.5-2.3-6.5-1.8-3.4-2.6-4.5-3.5-5-.4-.3-.9-.8-1-1.1 0-.3-.5-1-.8-1.3-.7-.8-.7-1.7 0-1.4.7.3.5-.3-.2-.7l-1-.9c-.2-.4-.2-.1 0 1.5 0 1.9.1 2 1.4 3.3 2.3 2.4 3.4 4.5 2.6 5-.4.2-.3 1 .2 1.5.3.3.5.3.5 0 .3-.7.6-.3.8.8.2 1.3 1 2.8 1.5 3.3.2.2.6.7.7 1.1.4.8 1 1.1 1 .5zm34.5-1c-.1-.8 0-1 5.6-5a43712.6 43712.6 0 0 0 3.5-2.7c-.1-.1-.6.1-1.2.5-.6.3-1.7.9-2.6 1.2-1.3.5-1.7.8-2.1 1.5l-.7.9s-.6.4-1 1c-1.7 1.7-4.5 3-4.5 2.1 0-.2-.2-.2-.4 0-.6.5-.5 1.2 0 1 .3-.2 1-.3 1.7-.3 1 0 1.2.1 1.2.6s0 .6.3.3c.3-.2.3-.6.2-1zm7.8-.7 1-1.2c-.1-.1-.6.1-1 .6l-1.8 1.4c-.4.3-.8.7-.8 1 0 .4.8 0 2.6-1.8zm-104.1 1c.4-.1.7-.4.7-.5 0-.4-1.3-.2-2 .3l-.5.5h.5c.4 0 1-.1 1.3-.3zm-81-.2-.8-.3c-.1 0 0 .2.2.3l.6.3c.2 0 .1-.2 0-.3zm26.7-.5c1-.4 1.2-1 .6-1.4-.2-.1-.4-.4-.4-.6 0-.2-.1-.4-.3-.4-.5 0-1.5-1-1.4-1.5.2-.5-.3-1-1.3-1.6l-.8-.4 1 1.3c.5.7 1 1.5 1 1.7 0 .3.2.7.5.9l.6.4-.6 1c-.7 1.3-.7 1.4 0 1.1l1.1-.5zm134.2-1.6c1.6-.8 3.3-1.3 6-1.9.9-.1 1.5-.4 1.5-.5 0-.4-.7-2.1-1-2.1l-1 .6c-.5.5-1.2.7-2.3.8-.9 0-1.8.2-2 .3-.4.1-.5 0-.5-.2 0-.5 1.3-1 2.7-1 .7 0 1.4-.2 2.2-.8 1.3-.9 1.3-1.1.5-3.5l-.4-1.5c0-.3-.2-.5-.3-.5-.7 0-3.4 2.8-4.3 4.6-.7 1-1.2 1.7-1.5 1.7l-1.6.8c-1.2.8-1.2.8-1.4 3-.2 1.1-.3 2.1-.2 2.2l1-.6 2.6-1.4zm-152.5 1a37 37 0 0 0-5.8-4.9L40 33c.9 1.7 2.3 3.4 3 3.9.8.5 2.2.3 2.2-.4zm15.6-.4c0-.6-.1-1.1-.3-1.1-.3 0-.3 1.9 0 2.2.2.3.3.2.3-1zm-23 .4c-.3-.2-.7-.5-1-.5-.5 0-.5 0 .1.6.8.6 1.2.6.8 0zm12.5 0c.1 0-.2-.2-.8-.3-1-.2-1.8.2-1.5.6.1.3 2 0 2.3-.3zm161.8-.8c.3-.4 1-1 1.6-1.3 1-.4 1.1-.6 1-1-.2-1 .5-2 1.4-2.3.6-.1 1-.4 1.2-1 .2-.5 1-1.4 1.6-1.9l1-1a9 9 0 0 0-3 1.5c-.2.3-1.1.8-2 1.2-1.6.8-1.7.8-2.2 2.6l-1.1 2.8c-.6 1.1-.6 1.2-.3 1.2.2 0 .5-.3.8-.8zm-2.7-.4c.2-.6.8-1.6 1.3-2.4.6-.8 1-1.5.8-1.6l-1.2.6c-.6.4-1.4.7-1.8.7-.7 0-.7 0-.5 1.4.3 2.6.7 3 1.4 1.3zm-173.5.2c-.2-.3-.5-.4-.6-.4-.2.2.3 1 .7 1l-.1-.6zm185.7-.3c.9-1 1-1.3.5-1.3-.4 0-2.2 2.1-1.7 2.1l1.2-.8zM46.5 33.8l-.5-.5c-.1 0-1-.6-1.9-1.4a8 8 0 0 0-1.7-1.2c-.2.2 1.5 2.6 2.6 3.5 1 .9 1.1.9 1.4.5.2-.3.3-.6 0-1zm143.8-3.3c.4-2.2.7-4.9.7-6 0-2 0-2.1-.6-2.3-.6-.2-.6-.2 0-.6.4-.3.5-.8.6-1.9L191 18c-.1 0-.8 0-1.4.3l-1.2.5.1 1.3c.1.8.3 4 .3 7.2.2 9 .5 9.6 1.6 3.2zM39 33.2c-.5-.8-.7-1-1.1-.7-.6.3-.4.5.8 1.4.9.6 1 .4.3-.7zm32.2.3c.5-.4.9-.9.9-1 0-.4 1.4-1.6 1.9-1.6.3 0 1-.3 1.5-.7.5-.4 1.1-1 1.4-1 .6-.4.6-.4 0-.4l-2 .5c-1 .4-1.4.5-1.8.3-.5-.3-.5-.4-3.5 1.4-1.7 1-2.6 1.3-2 .5l.2-.4c-.4-.3-1.7-.7-2.2-.7-.4 0-.7-.2-.8-.3-.1-.2-.5-.2-.8-.1-.4 0-.8 0-1.2-.5-.4-.4-.6-.5-.8-.3-.4.4-.1 1.1.9 2.3.7.8 1 .9 1.6.8.5-.1.9 0 1.3.4s.9.6 1.5.5c.5 0 1 0 1 .3 0 .2.3.3.6.3s.5.1.5.3c0 .5 1 .2 1.8-.6zm-13.2 0c0-.5-2.8-3.6-3-3.3l1 1.7c.8.8 1.4 1.6 1.4 1.8.2.6.6.4.6-.2zm64.5.3c2.2-.3 2.7-.5 2.7-.8 0-.1-1.1-.3-2.6-.3-1.6 0-2.6 0-2.6-.2s.7-.3 1.7-.3 1.7 0 1.7-.2c0-.3-2.1-.6-5-.7l-3.3-.4c-.7-.2-1.7-.3-2.2-.3-.6 0-1.6-.1-2.2-.3l-2.8-.6-1.5-.2.9 1.1c2.2 2.8 1.8 2.5 3.2 2.2 1-.3 1.6-.3 3.6 0a239.6 239.6 0 0 0 6.4 1.2l2-.2zm-74-1.2c0-.2-.8-1-1.7-1.8l-1.7-1.3c0 .2.5 1 1.2 1.9 1.1 1.5 1.9 2 2.1 1.2zm5.3-.4c-.2-.4-2.2-1.5-3.8-2-1-.3-1.2-.3-1 .1.6 1 1.7 1.8 3 2l1.6.1c.2 0 .2 0 .2-.2zm74-.3c0-.1 0-.2-.2-.2l-.4.2c0 .2 0 .3.3.3.2 0 .4-.1.4-.3zm78.1-1.5c0-1.4 0-1.5.6-1.7.7-.1.5-.3-.9-.6-.8-.2-.8 0-.5 1.4l.4 1.7c.3 1.2.5.8.4-.8zm3.7.7c.4-.3 1-.5 1.2-.5 1 0 2-.8 2.3-1.8.3-.6.4-1.1.3-1.2-.1 0-.9.3-1.7.8-.7.5-1.7.9-2 .9-.5 0-.9.1-1 .3l-.6.2c-.7 0-1.2.7-1 1.5.1.5.3.6 1 .4l1.5-.6zM40.5 29.5l-1.1-2.6c0-.3-.2-.6-.3-.7-.3-.1-.3.2-.2 1 .1.8 0 1.1-.3 1.3-.4.2-.2.5 1 1.7a9 9 0 0 0 1.8 1.5c.2 0-.3-1-.9-2.2zm155.9 1.2c.5-.2 1-.7 1.6-1.7.5-.9 1.4-2 1.9-2.5l3.7-3.6a19 19 0 0 1 3.1-2.6c.7 0 .4.7-.8 1.7l-1.1 1 .3 1.3c.6 3.1 1.2 2.6 2.1-1.8.5-2 .6-3.1.4-3.2l-1-.7c-1-.9-2.5-1.4-4.6-1.6-1-.1-1.9-.3-2-.5-.2-.4.5-.7 1.2-.6h1.5c1.5-.5 4-1 5.2-1h1.2l.6-3.2c.5-2.6.6-3.1.3-3.3-.6-.4-.8-.3-.8.4 0 .4-.2.8-.6 1-.5.2-.5.3 0 .5.6.4.4.7-.7 1-.5.2-1.1.4-1.3.7-.2.2-1 .5-1.7.7-1.6.5-2.5 1-2.2 1.5.1.1.5.3.9.3s.6.1.5.3c-.1.5-1 .6-1.5.1-.3-.3-.7-.4-1.3-.3-.6.2-.8.1-.8-.2 0-.5-.7-.6-3-.1l-1.7.3-.2 1.7v2c.2 0 .8-.1 1.6-.5 1.4-.7 1.7-.8 1.7-.4 0 .1-.4.4-1 .5-.4.2-.9.5-.9.7 0 .2-.3.7-.7 1-.9.8-1.1 1.7-.4 1.4.5-.2.4.2-.2.7a44.4 44.4 0 0 0-1.2 9.8c.2.1.4 0 .7-.2.2-.2.7-.5 1.2-.6zm-.1-4.7.9-1.2c.5-.5 1-1 1-1.3 0-.7 1.3-2.1 3.5-3.7 3-2 3-2.2 3-1.2-.1.6 0 .8.5.9.9 0 .7.6-.9 2-1.8 1.5-2.6 1.6-1.5.1l.4-.6-.8.6c-1.5 1-5 4-5.2 4.4-.2.5-1 .5-1 0zm3.3-3.4.5-.6-.7.6-.7.5.1.1c.2 0 .5-.3.8-.6zm-2.3-2.7c0-.4.6-1 1.4-1.6.5-.3.7-.3.6 0-.2.4-2 1.9-2 1.6zm8-6c0-.4 0-.5.7-.4.4 0 .7.2.7.5 0 .2-.3.4-.7.4-.6.1-.8 0-.8-.4zM59.4 30.6c0-.6-1-1.4-2.2-1.8-1.5-.4-1.7-.6-2-1.8 0-1-.7-1.7-1-1.1l-.7.5c-.4.2-.3.4.8 1.2l2.8 2.5c1.2 1.1 1.6 1.4 1.9 1.1.2-.1.4-.4.4-.6zm-41.2-1c-.3-.2-.6.7-.4 1.2.1.5.1.5.3-.2.1-.4.2-.8.1-1zm25-1-1-2.7c0-1.2 0-1.3.4-1.3.3 0 .7.3.7.5.3.7 1.6 2.4 1.4 1.8-.5-1.8-1.1-3.3-1.3-3.3l-1.8.8c-1.8.9-1.9 1.2-.8 2.9.8 1.3 2.9 3.3 3.1 3l-.6-1.7zm82.3 1.7-.8-.5c-.4-.2-.8-.5-.8-.7 0-.4 3.8 0 4 .5.2.2.4.2 1.2-.1l1-.7c0-.2-.3-.2-2.3-.3-.6 0-1.8-.4-2.7-1-1-.4-2-.7-2.5-.7s-.9-.2-1-.5c0-.2-.4-.3-.7-.3-.3 0-.8-.3-1.4-1.2l-1-1.3.4-2.5c.1-1.6.5-3 1-4l.6-1.7c0-.4-.8-.2-1.3.3-.2.3-.6.6-.8.6-.5 0-.4-.8.2-1 .3-.2.6-.5.6-.7 0-.2.2-.5.6-.7.4-.1.7-.6.8-1.1.3-1.4 1-3.5 1.2-3.8.2-.1.3-.5.3-.9l.4-1.2c.4-.6.3-2-.2-2a21 21 0 0 0-1.8 4.6c-.5 1.4-1.3 3-1.6 3l-1.3 1.8a6 6 0 0 1-1.4 1.7c-.1 0-.2.1 0 .3.2.4-.5 1.3-1.2 1.3-.4 0-.6-.1-.6-.5 0-.3.2-.6.4-.6.5 0 .5 0-.3-1.4a8 8 0 0 1-.8-2c-.1-1-.1-1 .4-1 .3 0 .6 0 .6.2 0 .6.5.2 1-.9.6-1.5 1.4-3.9 1.3-4l-1.2 1.4c-1.8 2.5-3.5 4.1-4 4-.6-.3-.4-.6 1.4-2.4 1.7-1.8 2.2-2.8 1.9-3.4-.3-.4-.7-.3-.7.2 0 .7-2.6 4.3-3 4.3-.5 0-1 2.4-.8 4.3.2 1.6-.2 2.3-.8 1.5-.2-.3-.7-.4-1.4-.4-1.3 0-1.4-.6-.2-1 .7-.1.9-.3 1-1.3l-.1-1.4c-.2-.2-.3-1-.4-2-.1-1.7 0-1.9.5-2.4.7-.7.5-1.3-.4-1.3-.5 0-.5 0-.3-.8 0-.5.2-1 .3-1 .2 0 .2-.5.1-1-.1-1 0-1.1.4-1.1s.7.2.9.6c.3.8.8.7.8-.1 0-.7-1.2-1.4-2.2-1.3-.8.1-.9.2-1.2 1.6l-.6 3.8c-.4 3-1 5.1-1.5 5.3-.7.3-.7-.1-.1-2 .5-1.8 1.1-6.6 1-6.8-.4-.3-.7.4-1 2.2a14 14 0 0 1-.6 2.5c-.3.6-1 .4-1.1-.4-.5-1.5-1.8-2.3-1.7-1 0 .5 0 .7-.3.7-.6 0-1-1.2-1-2.4.4-2.2.2-3.6-.4-3-.2.1-.2.5 0 1.2.4.8.3 1 0 1.3-.6.4-.6.4 0 2.4.7 2.3.7 2.8.2 2.8-.5 0-.8-.6-1.3-2.7-.5-2-.7-2.3-1-1.8 0 .1 0 1.5.4 3l.4 3.4c0 .5.4 1 1.2 1.9.9.8 1.2 1.4 1.2 2 0 .3.2.8.4 1 .1.2.3 1 .2 2 0 1 .1 1.6.4 1.7.2 0 .4.3.4.6 0 .8.8 1.3 1.8 1.2.8-.2 1 0 1.7.6 1.5 1.5 2 1.8 2.9 2 1 .2 1.4 1 .3 1-.5 0-.6 0-.5.5.2.5.2.6 1.6.6.5 0 .7.2.7.5-.1.6.3.8 2.4 1.2 2.3.4 4.7.4 4.7 0s2.6-.2 4 .3c1.3.5 3.1.7 3.1.4zm-6.8-2.1v-.6c.3-.2 1 .2 1 .6 0 .5-.8.5-1 0zm-3.6-2c-1.6-1.4-2.2-2.4-1.4-2.4.2 0 .7.4 1 .8.5.5 1.1.8 1.4.8l.9.3c.4.4.4 1.8 0 1.8-.1 0-1-.6-1.9-1.4zm2.5-1.9c.2-.5.8-.5.8 0 0 .1-.2.3-.5.3-.2 0-.3-.1-.3-.3zm-2.8-1.8c-.3-.8 0-2 .4-2 .3 0 .4.3.3 1 0 1-.5 1.6-.7 1zm-8-.4a4 4 0 0 1-1-1.2 6 6 0 0 0-.8-1.2c-.2-.2-.3-.5-.2-.6.3-.6.9-.2 1.6.8.4.7 1 1.4 1.4 1.7.3.2.5.6.5.7 0 .4-.9.3-1.5-.2zm-3.5-.8a1 1 0 0 1-.2-.8c.2-.4.3-.4.7.1l.5.9c0 .4-.7.3-1-.2zm4-1.8.2-1.3c0-.3 1-.2 1.2 0 .1.2.5.3.8.2.6-.1.7 0 .7.5 0 .7-.9 1.4-1.5 1.1-.2 0-.4 0-.4.3 0 .2-.2.4-.5.4-.4 0-.5-.2-.4-1.2zm10.6-1c-.5-.6-.3-1.4.2-1.4s.7 1.1.3 1.5c-.1.1-.3 0-.5-.2zm-13.2-.1c-.2 0-.5-.6-.6-1.2l-.9-1.9c-.5-.7-.5-.8-.1-1.2.4-.4.4-.4.7.3l.3 1c0 .3.4.3 1 0 1.1-.7 2 .7 1 1.7-.3.2-.4.6-.4.9 0 .5-.3.7-1 .4zm6.4-3.7c.2-.8.5-1.2 1.2-1.2.6 0 .8.3.4 1-.4.6-.7.9-1.3.9-.4 0-.5-.2-.3-.7zm-8.1-2.3c-.2-.3-.2-.6 0-.8.4-.4 1 0 1 .7 0 .9-.6 1-1 .1zm-.8-3c0-.2.3-.4.6-.4.2 0 .5.2.5.4s-.3.4-.5.4c-.3 0-.6-.2-.6-.4zm-65 19.5c-.4-1-.4-1.2 0-1.5.7-.5.4-.9-.3-.5-.5.4-.5 1.4 0 2.5.5 1 .6.8.2-.5zm183.8.4c1-.5 1.6-1.2 2-1.8l.3-1a21 21 0 0 0-4 3.4c-.2.5.2.4 1.7-.6zm-5.6-.7c.4-.4 1.5-1.1 2.4-1.6 1.8-1 2-1.3.4-.7-1.1.5-2 .6-1.9.2.1-.3 4.4-2.2 5.6-2.5.8-.2 1.1-1 .5-1.1-.3-.1-.5 0-.8.4-.2.3-.5.5-.8.5l-3.8 1.2c-.4.1-.9.5-1 .7-.3.6-1 .7-1.2.2 0-.2 0-.1-.1.1 0 .3.2.6.4.7.5.2.5.6 0 .6-.4 0-1.2 1.2-1.2 1.8 0 .5.7.3 1.5-.5zm-180 0v.1c-.1.3 0 .5 0 .4v-.5zm97.2.4h-.5c-.2 0-.2.1.1.1.3 0 .5 0 .4-.1zm-80.2-1-.7-.7-.8-1-.8-1.1c-.3 0-1-2-1.1-3-.1-.9-.9-.8-1 .2-.1 1.4 2.4 5.7 3.8 6.2 1 .4 1.2.3.6-.5zm159.4-.4c2.8-1.6 2.8-2.3 0-4.7-1-1-2-1.7-2.1-1.7-.5 0-.6.5-1 3.5l-.5 3.6c-.2.6-.2.6.9.5a10 10 0 0 0 2.7-1.2zM15 28.1c0-.2-.2-.5-.5-.6-.3-.2-.6-.6-.7-1a2 2 0 0 0-1-1c-.4-.3-.7-.6-.7-.8 0-.5-1.2-3-1.8-3.7-.3-.3-.5-.3-.8-.1-.4.2-.7.2-1.3-.5-1.1-1.1-3.2-2.3-3.7-2.1-.4.1-.4.2 0 .7.4.3 1 .8 1.6 1 .9.5 1 .7.9 1.2-.2.5 0 .7.5 1 .4.1 2.1 1.6 3.8 3.3 3 2.9 3.7 3.4 3.7 2.6zm48.5 0c1.9-.5 3.5-1.5 2.7-1.7a2 2 0 0 1-.9-.4l-.6-.3c0 .1-.6 0-1.2-.4-.7-.3-1.5-.5-2.8-.5-1 0-1.8.1-1.8.2 0 .2-.2.4-.5.5-.6.1-.6.2-.2.5.3.2.5.4.5.6 0 .1.5.5 1.1.8l1.4.8c.2.4.5.4 2.3-.1zM60 26.8c-.5-.3-.5-.4-.2-.8.5-.5 3-.6 3.5 0 .1.2.5.4.7.4.7 0 .3.5-.5.6-1.4.3-3 .2-3.5-.2zm112.8 1.6-.3-.3-.2.1c0 .2 0 .3.2.3l.3-.1zm-126-2-1.1-1.6c-.3 0 .3 1.4 1 2.3 1.1 1.7 1.1 1.2 0-.7zm3 1.6-.8-1.2-.8-1.3c0-.4-1-1.6-1.2-1.4-.2.2.5 1.6 1.5 3 .8 1 1.3 1.4 1.3 1zM82 26.3a6 6 0 0 0 2-1.5l.7-1c.8-.9 1-1.9.5-3-.3-.8-.3-1 .1-1.2.4-.3 0-.4-2.4-.3-2.9 0-3 0-5-.9l-2.8-1.1c-2-.4-3.5-.5-3.8-.2-.2.2-1.1.2-2.6.1-1.9-.1-2.6 0-4.2.5-2.8.8-4.4 1.5-4 1.8.7.4 0 .8-1.8.8l-2.3.2c-.5.3-.5.3 0 .4.5.2.6.4.6 1.2 0 .5-.2 1-.4 1.1-.4.2-.3.3 0 .4.4.2 1 .2 1.4.2 6.8-.2 8-.3 8.6-.8.4-.3 1.8-1 3.2-1.5 2.4-1 2.6-1 5.5-1 4.6 0 8.2 0 8.2.3l-.2 1.2c-.2.7-.5 1-.8.9-.2 0-.6 0-.8.2l-1.2.6c-.9.5-1.2 1.6-.7 2.3.3.3.2.4-.3.7l-.7.5c0 .4 1.3 0 3.2-1zm-22.5-4c0-.3 1.8-1 2.2-.8 1 .3 0 1-1.5 1-.4 0-.7-.1-.7-.2zm-1.5-1c-.2-.3.1-.4 1.2-.5 1.4 0 1.7 0 1.4.3-.3.3-2.4.5-2.6.3zm70.8 6c0-.4-.7-.6-1.3-.6-.3 0-.3 0 0 .4s1.3.5 1.3.1zM16 24.5l-1.3-2-1-1.4-.7.6-.7.6.6 1c.3.8.7 1.1 1 1.1.3 0 .6.3.7.6l.6 1.3.5.6.3-.9c.3-.7.3-1 0-1.5zm111 2.1c0-.3-1.7-1.1-2-1-.4.3-.2.7.4 1 .8.2 1.5.3 1.5 0zm7.2 0c0-.2-.4-.3-.7-.3L132 26c-.8-.4-1-.4-1.3 0-.5.4-.3.6 1.1.7 1.7.2 2.6.2 2.4 0zm-61.1-.5-.2-1.2c0-.4-.2-.7-.3-.7-.6 0-1 .7-.8 1.5.1.7.3.9.8.9.6 0 .6-.1.5-.5zm34.5 0c0-.2-.2-.3-.4-.3-.4 0-.5.3-.2.6.2.2.6 0 .6-.4zm35 .2c.2-.2 0-.3-.4-.3s-.8.1-.8.3c-.1.1 0 .3.4.3s.8-.2.9-.3zm27.5 0c0-.2-.2-.3-.3-.3-.2 0-.2.1-.1.3l.2.3.2-.3zm-33.4-.3c-.5-.3-1.1-.3-.9 0 0 .2.4.3.7.3.5 0 .5 0 .2-.3zM76 25.7c.6-.5.6-1.2.1-1.2-.4 0-1 .8-1 1.3 0 .4.4.4 1-.1zm98.8-.2c-.1-.3-.4-.4-.6-.4-.3 0-.3 0 0 .4l.5.4c.1 0 .1-.2 0-.4zm-51.5 0-.9-1.4c-.5-.6-1-1.7-1.2-2.3l-.6-2.2-.4-1-.3 2c-.2 1.8-.2 2 .2 2.2.2.2 1 .8 1.6 1.5 1 1.2 1.6 1.5 1.6 1.2zm12.6-.2a56.7 56.7 0 0 0 12.6-1c.6-.2 1-.4 1-.6 0-.4-3.7 0-4 .4-.5.8-13 .5-13-.4l1.2-.3h1.1l-1.7-.9c-1.7-.8-2.6-1.5-2.3-1.9.1 0 .5 0 .8.2 1.6 1 4.2 2 5.5 2.3.8 0 1.6.3 1.8.4.3.3.5.2 1 0 .4-.3 1.7-.4 6.2-.4 6.8 0 10.8-.6 10.5-1.5l-.5-2.2c-.2-1-.5-2-.7-2.3-.4-.5-.5-.4-2.1.7-1.6 1-1.9 1.2-2.7 1-1.5-.2-3.5-1-3.5-1.5s2.1-2 2.9-2c.3 0 .7.3 1 .6.2.4.6.7.8.7.7 0 .7-.6 0-1.3a44 44 0 0 1-4.2-6.4c-.3-.6-.3-1-.4-3.5 0-1.5-.5-1.6-.7-.2a13 13 0 0 1-1.3 3.6c-.3.4 0 1.5.4 1.5.2 0 .8.4 1.3 1 .9 1 .9 1 .3 1-.4 0-1 0-1.4-.2-.5-.2-1.2-.3-1.6-.3h-.8l.1-1.4c.2-1.5 0-1.6-1-.7-.2.2-.4.7-.4 1.4 0 .8 0 1-.5 1-.6 0-.7.4-.2.6.2 0 .5.5.7 1 .3.8.2.8-.4.7-.3-.1-.6 0-.7.1-.2.5-.7 0-1-.7-.4-1-1-.6-.9.4 0 .4 0 .9-.2 1-.4.2-2.1-1.5-2-2.1v-1c-.2-.3-.2-.3-.3.2-.3 1.1-.7.8-.8-.7-.1-1.2-.2-1.4-.4-.8a6 6 0 0 0-.2 1.4c0 .8-.5 1.2-.8.6-.4-.7-.7 0-.7 1.2 0 .8 0 1 .5 1 1 0 1.8.6 2.6 2 .7.9 1 1.2 1.5 1.2.4 0 .6.1.6.3 0 .1-.4.2-1 .2-1-.1-1.2-.2-1.7-1.2s-.8-1.3-2-1.7c-1.6-.7-1.8-1.2-1.2-2.5.4-.8.5-1.6.4-3.6 0-1.6.1-2.6.3-2.6h.4c.2 0 .6-.6.6-1.2 0-.5 0-.5-.5 0-.7.6-1.4.5-2-.3-.6-.8-.7-.8-.7-.2 0 .4.2 1 .4 1.4.2.4.3.8.2 1-.2.3-.2 1.4-.1 2.4 0 1.2 0 2.3-.2 2.8-.2.6-.4.7-1.3.7-.6 0-1 .1-1 .2 0 .2.5.6 1.3 1 .7.4 1.6 1 2 1.1.6.4.6.9-.1.9-.3 0-.6.2-.8.4-.2.3-.5.4-.9.2-.7-.2-.7-.6.1-.6 1 0 .9-.4-.4-1.2-1.1-.7-1.7-.9-2-.4 0 .2-.3.2-.5.1-.3 0-.4 0-.2.3l.2.8c0 .2.4.7.8 1.1.5.5.7 1 .7 1.7 0 1.6-1 1.3-1.5-.4-.1-.5-.3-.7-.7-.7-.4 0-.9-.3-1.2-.8-.6-.8-.6-.8-.1-1.4.4-.4.5-.7.3-1.2-.3-.6-1.3-1.3-1.5-1-.1.1 0 .3.1.3.7.3.4 1-.4 1-.6 0-1 .1-1.3.7-.2.4-.7.8-1 1-1 .1-1 1-.3 2.1l.8 1.7c.3 1.2 1.1 2.3 2 2.4.3.1.8 0 .9-.1.3-.5 1.6.1 1.7.8.1.7 1.4 1.2 2.5 1 .5 0 1.7 0 2.9.4 2.3.5 2.8.6 3 .2zm-6.5-2.5c-.5-.1-1-.5-1-.7-.1-.6-.1-.6 1.4 0 1.9.9 1.6 1.4-.4.7zm9.1-1c-3-.7-3.5-1-3.5-1.3 0-.3 1-.2 3.5.3 2.5.6 3.4 1 3.3 1.4-.2.5-.4.5-3.3-.3zm7.8.3-2-.4c-.5-.1-1.4-.4-1.8-.7-.5-.2-1.2-.4-1.7-.4-.7 0-1.3-.4-1-.8.3-.2 3.8.4 4.7 1l3 .7c1.1.1 2 .4 2.1.5 0 .4-2 .4-3.3.1zm6.2-.5c.1-.4.7-.5.7-.1 0 .1-.1.3-.4.4-.3 0-.4 0-.3-.3zm-29-4.1c-.3-.3 0-.6.6-.6.3 0 .6.1.6.4 0 .4-.9.5-1.2.2zm15.9-.5c-.3-.2-.5-.5-.5-.7 0-.5.5-.5 1 0 .6.7.1 1.4-.5.7zm5-.8c0-.2-.5-.4-.8-.4-.6 0-1.2-.4-1.2-.8s.5-.3 1.3.2c.3.3.9.6 1.2.6.6.2.9.8.3.8l-.7-.4zm3-2.5c-.2-.2-.3-.3 0-.3l.4.3c.2.3.1.3-.4 0zm-3.8-.5c-.2-.4 2.5-.4 3 0 .3.1 0 .2-1.2.2-1 0-1.7 0-1.8-.2zM187 24.7c0-.2-.1-.1-.3.1l-.2.7.2-.2.3-.6zm-1.4 0c-.1-.2-.2-.1-.2.2 0 .3 0 .4.2.4v-.5zM106 25c.3-.3-.3-.9-.9-.9-.6 0-.7.7-.2.9.5.2 1 .2 1.1 0zm20.8 0-.4-.2-.4.1c0 .2.2.3.4.3l.4-.1zm42.9-.2c0-.5-.3-.7-.7-.5-.6.2-.4.9.2.9.3 0 .5-.2.5-.4zm50.7-2c1.8-.7 2.3-1 2-1.7-.1-.5-1.8-1.5-2.5-1.5a5 5 0 0 0-1.6.6c-.8.4-1.2.8-1.8 2.1-1.2 2.5-1 2.7.8 1.8l3-1.3zm-169.1.6c-.4-.6-.4-1-.2-1 1-.4 1.6-1.8.8-2-.3 0-.6.1-.7.5 0 .3-.3.6-.5.6-.4 0-.4.4 0 1.6.3 1 .7 1.6 1 1.4 0 0-.1-.6-.4-1.1zm135.9 0c0-1 .4-1 .6.2l.1-.6c0-.9 0-1.3-.5-1.7-.4-.3-.5-.8-.5-1.8s-.1-1.5-.4-1.7c-.2-.2-.4-.8-.4-1.6 0-.7-.1-1.8-.3-2.5V12c.4-.4.3-1.1 0-1.5-.3-.1-.5-.6-.6-1l-.6-1.6c-.4-.8-.5-2-.1-2.3.1 0 .3.2.4.6.5 2.3.7 1.8.4-.9-.6-4.4-1.4-3.9-1.4.9 0 3.7.2 4.9 1.2 9a57.5 57.5 0 0 1 1.8 9c.1 0 .3-.4.3-1zm-45.9.5h-1l.6.1h.4zM20 22.2c1-1.4 1-1.6.6-1.6-.3 0-.6.2-.7.6l-.7 1.3c-.5.6-.6 1.2-.4 1.2l1.2-1.5zm-2.7-1c.1-1 0-1.5-.3-2-.2-.4-.4-1-.3-1.2.1-.3-.1-.8-.8-1.5-.5-.5-1-1-1.2-1-.4 0-.2-.8.2-1 .2 0 .6 0 1 .2.8.5.9.1 0-.5-1-.8-2.6-1.4-3.2-1.2-.4.2-.3.3.1.8l1.2 1.7c.4.6.9 1.1 1 1.1.2 0 .3.3.3.7l.4 1.6c.5 1.3.5 1.7-.2 1.5-.7-.2-.6.2.2 1.5.9 1.3 1.3 1 1.6-.8zm167.3.3c-.2-.2-.2 0-.2.7 0 .8 0 .8.2.2.2-.4.2-.7 0-.9zm31 0 .5-1.3-.6-.5-1-.7c-.1-.1-.2-.4-.1-.6.1-.4.4-.5.9-.3.7.1.8 0 1.3-1.2.6-1.4 1.4-4.5 1.3-4.7-.2-.2-1 .2-1 .5 0 .5-1.2 1.8-2 2-.4.3-1.3.7-1.9 1.2-1 .7-2 1-2 .5l.4-1c.4-.7.4-1.4 0-1.4-.1 0-.4.5-.6 1.2-.3 1.2-.3 1.3.5 2.2 1 1.2 2.2 3.3 2.8 4.6l.7 1 .7-1.4zm-46.3 0-.4-.1c-.4 0-.6.5-.2.8.1.2.6-.3.6-.6zm43.3-.8-1.5-1.9c-.7-.7-1-.9-1.1-.6-.4.7-.3 1.5.4 2l1.7 1.2c1.1 1 1.4.6.5-.7zm-52.9.4c0-.2.4-.3.9-.2.7.1 2.3-.4 2.3-.7l-1.4-.6c-.8-.2-1.6-.6-1.8-.9-.4-.5-1.5-1-2.2-1-.6 0-.5.8.1 1.6l.6 1.1c0 .3.2.6.5.7.9.3 1 .3 1 0zm5.5-.7c.3-.2.4-.3.2-.4l-.8.4c-.3.2-.4.4-.2.4.1 0 .5-.1.8-.4zm5.2-5.8c0-3 0-5.5-.2-5.6-.4-.4-.5.5-.4 5.1 0 4.2.2 6 .6 6v-5.5zm-149.3 4c2.2-3 2.6-3.8 2.4-4.6 0-.5.1-1.3.4-2 .3-.8.4-1.6.2-4 0-1.7-.2-3.3-.4-3.7-.3-.8-1.3-1-1.3-.2 0 .3-.1.6-.3.8-.2.2-.2.4 0 .8.5.8.4 3.4-.2 6-.3 1.3-.5 2.8-.5 3.4 0 .7-.2 1.1-.7 1.6a3 3 0 0 0-.8 1.8v1.3c.2 0 .7-.6 1.2-1.3zm1 .6c.4-.6.4-.6 0-.3-.3.2-.5.5-.5.6 0 .4.3.3.6-.3zm-7.4-.2c0-.6-.6-1.5-.8-1.1-.3.3.2 1.6.6 1.6.1 0 .2-.2.2-.5zm181.4.1v-.4c-.2 0-.4.2-.5.4l.1.4.4-.4zm13.1-.6c0-.6 0-.6-.2-.3-.4.5-.4 1.4 0 1.2l.2-.9zm9.3.4c.7-.3 1.3-.4 2.8-.2 2.4.3 2.5.3 2.5 0 0-.8-1.7-1.8-2.7-1.8-.5 0-1.1 0-1.3-.2-.2 0-.6.2-.8.7-.3.5-.8.9-1.3 1-.4 0-.8.3-.8.5 0 .4.5.4 1.6 0zm-206-1.2c.2-.5.1-.7-.4-1.1-.6-.5-1-.7-1-.4l-.2.5c-.1.3 0 .4.2.4.3 0 .5.2.5.5s-.2.3-.6.2c-.6-.1-.8.2-.6.7.2.6 1.7 0 2-.8zm153 1c2.2-.4 2.4-.9 2.2-4-.1-1.5-.2-2-.6-2-.2 0-.3.3-.3 1 .1 1.2-.2 1.3-1 .6-.7-.6-.8-.4-.5.8.4 1.3 0 2.8-.8 2.8-.3 0-.6.1-.7.3l-.6.3c-.3 0-.5 0-.5.2 0 .3.6.3 2.8 0zm7.8 0c.1 0 0-.2-.3-.3-.4-.1-.6 0-.6.2 0 .4.7.5 1 .1zM7.6 18c-.4-.5-.7 0-.2.4.2.3.4.4.4.2s0-.5-.2-.6zm168.8.4c.4-.5 0-.5-.7 0-.4.3-.4.4 0 .4l.7-.4zM56 18.2c0-.2-.2-.3-.4-.3s-.4.1-.4.3c0 .1.2.3.4.3s.4-.2.4-.3zm106.4-.6c0-.9-.4-.8-.7.3-.1.4 0 .6.3.6s.4-.3.4-.9zm-67.7.4c0-.2-.6-.9-1.4-1.6-.7-.7-1.3-1.6-1.3-1.9 0-.5-3.8-4.2-4.3-4.2 0 0-.2.2-.2.5s-.2.6-.5.8c-.8.4-.7.7.3 1 .6.1.9.3.9.8 0 .4.3.7 1.5 1.3 2 1 2.4 1.3 2.2 1.9-.1.3.1.6 1 1 1.5.6 1.8.7 1.8.4zm95-.4c.7-.3 1.3-.6 1.4-.8a104.1 104.1 0 0 1 .6-2.7c-.1-.1-.7 0-1.3.3-.7.4-1.5.6-2 .7-1 .1-1 .2-.7 1.6.3 1.7.2 1.7 2 1zm18.7-.1c0-.4 0-.9-.2-1.2-.3-.5-.5-.5-2.1-.4a6 6 0 0 0-2 .4c-.2.2-.1.3.1.3l2 .8c1.7.9 2 .9 2.2 0zm-1.6-.4.3-.2c.1 0 .3 0 .3.2s-.2.3-.3.3a.3.3 0 0 1-.3-.3zm-32.6-1.5c.2-.5.5-.9.6-.9.5 0 .3 1.3-.2 2-.7.8-.7 1-.2 1 .2 0 .6-.3.8-.7.5-.7 1.2-1 1.2-.4 0 .4 1.3 0 1.9-.4.3-.4.2-.4-.5-.2-1.1.2-1.3-.3-.3-1 .5-.4.8-.9.7-1 0-.3-.4-.2-.9.4-.4.5-.9.9-1 .9-.5 0-.5-.4-.2-.7.5-.2 1.6-2.4 1.7-3.3l.2-1-.6 1c-.7 1.1-1.8 2.1-2.3 2.1-.4 0-.4 0 .3-1.4.7-1.7.3-2-.6-.5-.8 1.3-1.1 1.6-1.4 1.2 0-.1.2-1 .6-1.8.5-.8.8-1.8.8-2 0-.5 0-.5-.5 0l-1 2c-.2.8-.6 1.3-.9 1.4-.4.1-.5.4-.5 1.4 0 1.4.4 1.9.8 1 .3-.5.8-.7.8-.2 0 .2-.2.9-.5 1.4-.3.6-.5 1.3-.5 1.6 0 .5 0 .4.6-.2l1-1.7zm-10.8 1c0-.6 0-.6-.2-.1-.3.7-.3 1.2 0 1l.2-.8zm-153.2 0c.4-1.1.4-1.1-.3-1H9c-.6-.4-2.7-4-2.5-4.3.3-.4 1.1.2 1.4 1.1.5 1.3 1 1.8 2.2 1.8 1.1 0 1.3-.2.6-.8l-.3-.5c0-.5.8-.6 1.3-.1.5.4.5.4.5-.1 0-.4-.2-.7-.4-.7l-.9-.3c-.2-.1-.7-.2-1.1-.1-.4 0-.8-.1-.8-.3l-.7-1c-1-.7-1.5-2-1.3-2.6.2-.5.6-.2 1 .8.3.7.6.9.9.8.4-.2 1.3.2 2.1 1l1.1.6c.5.1.7 0 1-.5.3-.7 1-1.1 1.5-.8.2.1 0 .5-.5 1-.6.6-.6.8-.3 1 .2.1.5.2.7.1l.6-.2c.3-.2.8.1 1.5 1 1.2 1.3 1.5 1.3 1.1-.3-.2-.8-.2-1 .3-1.5.7-.8.7-1.1 0-1.6-.5-.3-.7-1-.3-1l.8-.1c.5-.2.6 0 .6.4 0 .3.1.6.3.7.3.2 1-1.4 1-2.7.1-1 .1-1-1-1.1-1.3-.1-1.9-.6-1.3-1 .3-.2.7-.3 1-.2l.5-.1c0-.4-2.2-.3-2.8 0-.4.4-.4.5.4 1.3.5.5 1 .9 1.2.8.5-.2 1 .6.7.8-.2.1-.5.2-.7 0-.4 0-1.2.8-1.2 1.5 0 .5-.4 1-1.1 1.1-.6.1-1.6-1.5-1.4-2 0-.3 0-.8-.4-1.2-.7-1-1-2.4-.4-2.4.2 0 .5.1.6.3 0 .2.3.2.5 0 .7-.6 0-.8-1.7-.7-1.4.2-1.6.3-1.6.8.1.7-.6.8-1.3.2-.6-.6-.8-.7-2-.6-.6 0-2.5 1.3-1.8 1.3.4 0 1.1.8 1.1 1.2 0 .5-.5.5-1.1 0-.5-.5-.5-.5-.9 0-.6.8-1 3.3-.7 3.8l.5.8c0 .3.2.6.4.9l.2 1c0 .3.3.6.5.7.7.2 1.5 1.6 1.1 1.8-.5.3-.3.7.7 1.3 1.3.9 1.6.9 2-.1zm.1-7.6a.6.6 0 0 1-.3-.5c0-.2-.2-.4-.5-.4-.6 0-1-.6-.6-.9h1.2c1.2.2 1.7 1 1 1.6a2 2 0 0 1-.4.4l-.4-.2zm2-2.3c0-.2.3-.4.6-.4s.5.2.5.4-.2.4-.5.4-.5-.2-.5-.4zm137 10.4-.6-.2c-.2 0-.3 0-.3.2s.2.3.5.3.5-.1.4-.3zm15.4-1c0-1.2-.3-2.2-.6-2.3-.4-.2-.7.9-.4 1l.4 1.4c.2 1.4.7 1.3.6 0zm-158.6.4L6 15.2c0-.7-.7-1.5-1.3-1.5 0 0-.2.6-.2 1.4 0 1.3 0 1.5.8 1.7 1 .4 1.1.4 1-.3zM221 13.7c0-.3.3-.6.7-.8.4-.2 1-.6 1.3-1 .4-.3.8-.5 1-.4.6.2.5-.2-.2-.9-.4-.5-.5-.7-.2-1.1.2-.3.3-1 .2-1.6 0-1.2-.8-1.4-1.6-.6-.6.7-1.1.6-1-.2 0-.4-.3-.8-.8-1l-.8-.6c0-.1-.1-.4-.4-.7-.3-.5-.3-.3-.3 1.7v2.2l1-.2c3-.5 4 0 1.3.7-1.7.4-2.4 1-1.2 1 .4 0 1 0 1.3-.2.3-.2.7-.3.9-.2.5.2.2 1-.4 1-.3 0-.7.1-1 .4-.3.2-.8.4-1.2.4-.6.1-.8.8-1.4 4.4L218 17l1.5-1.5c.8-.8 1.5-1.6 1.5-1.9zM20 14.6c.5-2.3.6-5.4.1-4.4-.1.3-.4.6-.6.6-.3 0-.3.1-.2.4l.3 1c.1.4-1.1 3.3-1.6 3.4-.4.1.1 1 .7 1 .8.2.9.1 1.3-2zm140.6 1.7c0-.3-.3-.5-1.3-.7-1.3-.3-1.6-.3-2.3 0-.6.4-.8.6-.6.8.2.2.5.2 1 0 .6-.3.8-.3 1.4 0 .9.5 1.7.5 1.8 0zM99.4 16c0-.2-.2-.5-.5-.7-.4-.2-.5-.6-.5-1.1 0-1.5-.6-3-1.4-3.8-.4-.5-.8-1.1-.9-1.5-.2-.9-.7-1.3-.7-.6 0 .6-1 .4-1.3-.2-.2-.4-.4-.5-.4-.3-.1.2 0 .6.2.8l2.3 3.6c1 1.8 2 3.5 2.3 3.8.4.6 1 .6 1 0zm80.7.1c.3-.2.6-.6.5-.8 0-.2-.4 0-.9.5-.8.9-.5 1.1.4.3zm30-1.1c0-.6.3-1.2.4-1.5 0-.2 0-.3-.2-.3-.1 0-.3.4-.4 1 0 .6-.2 1.2-.3 1.5-.1.2-.1.4 0 .4 0 0 .3-.5.4-1.1zm13.1.3c0-.8-.5-.9-1.6-.4-1.5.6-1.5 1 .2 1 1.3 0 1.4-.2 1.4-.6zm-69.6-.6c.2-.2.5-.2 1 0 .7.4 2 .3 2.4 0 .2-.2.8-.4 1.4-.5.6 0 1-.3 1-.6-.1-.2.2-.5.6-.7.5-.2.8-.4.8-.6 0-.3-.3-.3-1.6.2s-1.3.5-1.3.2 1.2-.9 2-.9c1.2 0 2.2-.7 2.5-1.8.4-1.4.1-3.3-.4-3-.5.5-.6.2-1-1.9-.3-1.8-.5-2-1-1.3l-.7.4c-.3 0-.4-.2-.5-1.2 0-.4-.2-.6-1-.6-.7 0-.8.1-.8.6.1.4 0 .6-.3.6l-.8.2c-.5.2-.5-.4 0-.8.5-.3.5-.4-.2-.6-.7-.1-.9 0-1.4.6-.3.4-.7.6-.9.5l-.7.1c-.2.2-.5.3-.6.2-.1-.1-.3 0-.4.1l-.6.3c-.3 0-.4-.2-.3-.8v-1c-.4-.2-1.3.5-1.6 1.3a23 23 0 0 1-.8 1.7c-.4.8-.4 1 0 1.7.3.5.6 1.5.7 2.2.2 1.2 1.6 3.4 3 5 .8.8 1 .9 1.5.4zm2.1-2.6c-.7-.5-.5-.8.5-.8.7 0 .9.1.9.5 0 .6-.6.7-1.4.3zm2.6-.7a2 2 0 0 1 1-.4c.5 0 .5 0 0 .4a2 2 0 0 1-1 .4c-.5 0-.5 0 0-.4zm-5.6-.5c-.1-.5-.4-.7-1.4-1-.5-.2-.8-.6-.8-1.1 0-.9.8-.9.8 0 0 .5 0 .5.2-.1.3-1.1.8-1 .8.2 0 .9.1 1.1.4 1 .4-.2.7.7.4 1.2-.2.3-.3.2-.4-.2zm5.7-1c0-.6 1.3-2.8 1.5-2.8.4 0 .5.8.1 1.5l-.4 1c0 .3-1.2.6-1.2.2zm-3.8-1.4c-.4-1.2-.3-1.8.2-1.5.1 0 .4-.1.6-.4.3-.5 2-1.4 2.4-1.4v.6c0 .3.2.8.4 1 .6 1.2-.8 3-2.4 3-.7 0-.8-.2-1.2-1.3zm-26.3 5.3c0-.4-.3-.8-.8-1.2-1-.6-1-.5-.3 1 .6 1.2 1 1.3 1 .2zm51.5-1.3c-.1-.1-.3.1-.5.4-.3.6-.3.6.2.2.2-.3.4-.5.3-.6zm11-1.1c1-.1 1.2-.2 1.2-.6 0-.6-.8-1.5-1.4-1.6-.7-.2-.8-.6-.2-1.3.7-.6 1.4-.7 1.4-.2 0 .3 0 .4.2.4.4 0 .3-.5-.2-1-.4-.3-.4-.3.2-.4.5-.2.5-.4.5-1.9l-.1-1.8c-.5-.2-4 2.2-4 2.7-.2.8.3.7 1.5-.2 1.1-.8 2.1-1 2.1-.5 0 .1-.6.6-1.3 1-1.3.8-1.8 1.7-1.4 2.5 0 .3 0 .5-.4.6-.5.1-.6.4-.6 1.9-.2 2.4 0 2.7.7 1.5.5-1 .6-1 1.8-1.1zm-1-1.2v-.6c.3-.2.4-.2.6.1.3.4.2.8-.2.8-.2 0-.3-.1-.4-.3zm8.6 2.7c.4-.3.9-.5 1.1-.5.5 0 .5 0 .3-.7-.1-.2-.4-.3-.7-.2-.8.1-2.5-1.5-2.2-2.2.2-.6.6-.5 1 .4.5.8.9 1 1.5.6.7-.5.2-1.2-1-1.5-1.1-.3-1.6-.7-1.6-1.7 0-.5 1.5-.2 2 .4l1.2 1c.7.4.8.6.7 1.6 0 .7 0 1.2.2 1.2.6-.1.9-.4 1.2-1.1.2-.7.2-1-.4-1.8-.8-1.1-1.8-1.7-3.7-2.1-1-.2-1.4-.2-1.5 0l-.3 2.7-.4 3.4-.1 1h1c.7 0 1.3-.2 1.7-.5zm-1.5 0v-.5c.3-.4 1-.4 1 0 0 .5-.8.8-1 .5zm-.5-1.3c-.2-.4 0-.8.5-.8.3 0 .4.2.4.4-.1.6-.7.8-1 .4zm15.5 1.3c0-.1.8-.5 1.9-.8 3.3-1 3.4-1.2.8-2-2-.6-2.5-.4-2.9 1.2l-.5 1.7c-.1.3 0 .4.2.3.3-.1.5-.3.5-.4zm-10.5.1c.2 0 .4-.3.4-.4 0-.4-1.1-.2-1.2.2-.2.4.1.5.8.2zm-70.8-.4c0-.2-.3-.4-.4-.4-.2-.1-.3 0-.2.3.2.5.7.6.6 0zm7.2 0 .5-1.4c.3-.6.5-1.5.5-2 0-.6.2-1.1.3-1.2.3-.2.3-2.5 0-3.4-.1-.4-.4-.7-.6-.7-.4 0-.8 3-.9 6.5 0 .7 0 1.6-.2 1.9-.1.4 0 .6.1.6.2 0 .3-.2.3-.3zm54.1 0c.2-.4 0-.6-.5-.4-.3 0-.4.3-.3.4.2.4.6.4.8 0zm-27.8-.9c.7-.9 1.5-1.2 1.5-.6 0 .1.2.2.6.2.4-.1.5-.3.5-1 0-.4-.2-.8-.4-.8-.3-.1-.3-.8.2-2l.4-1.6c0-.5 0-.5-.4 0l-.6 1.4c-.2 1.2-.8 2.2-1.3 2.2-.2 0-.6.4-.8 1-.3.5-.7 1.1-1 1.3-.2.2-.4.4-.4.6 0 .6 1 .2 1.7-.7zm-131.9.1-.7-.3c-.7-.1-.8 0-.3.5.3.3 1 .2 1-.2zm62.7.4-1.1-2c-1.1-1.9-1.2-2-2.3-2-1.7-.1-1.8.2-.2 1.5 2.7 2.4 3.6 3 3.6 2.5zm22.5-1.8c1-2.2 2.9-7 2.7-7.1l-.8-.2c-.4 0-.6.2-.6.5l-.4 1c-.3.4-.3.8-.1 1 .1.4 0 .8-.2 1.5l-1.7 5.1c.2-.1.6-1 1-1.8zm51.4-.8c-.2-.2-.3 0-.3.7 0 1.2.3 1.6.5.5 0-.5 0-1-.2-1.2zm18.6 1c.3-2.2 0-5.1-.7-5.1-.2 0-.2.2-.1.4l.1 3c0 2.7.4 3.5.7 1.7zm-14.7-.4.7-2c0-.6.3-1.2.5-1.4.3-.4.4-.6.1-1-.4-.8-.8-.7-.8.2 0 .4 0 .8-.2 1-.3.2-1 3.3-1 4 0 .6.2.3.7-.8zm-111.2.4c0-.2.4-.3.8-.3.9 0 1-.5 0-.7-.9-.2-3.9-.2-3.9 0 0 0 0 .3-.2.5 0 .3 0 .4 1 .4.6 0 1 .1 1 .3 0 .4 1.1.3 1.3-.2zm106.2-.1c0-.3-.1-.5-.3-.4l-.3.6c0 .2.2.3.3.3.2 0 .3-.2.3-.5zm36.5-.3c0-.3-.4-.3-.8.1-.4.5-.3.8.3.5.3-.2.5-.4.5-.6zm2.5.6c.2-.4-1-.8-1.4-.5-.2.2-.2.4-.2.5.2.3 1.4.3 1.6 0zm-27.3-1V8.4c-.3-.4-.3-.4-.3.3l-.2 1.3.1.4c.2 0 .4-.3.4-.8zm-2-1.3c0-.5-.2-1.1-.5-1.5l-.5-.6.1.7.3 2c.2 1 .3 1.2.4.8l.2-1.4zM57 9.6c.7-.4.4-.8-1-1.5a39.6 39.6 0 0 0-10.1-2.8l2 .9c3.2 1 7.2 2.7 7.8 3.3.6.6.7.6 1.3.1zm66.8-1.2c.7-1.7.7-1.9.3-1.9-.3 0-.7 1-1 2.5-.2 1.4 0 1.2.7-.6zm4.8 1.3-.2-.2c-.2 0-.3 0-.3.2s.1.3.3.3c.1 0 .2-.1.2-.3zm7.4-.6c0-.5 0-.5-.2-.2-.4.5-.4 1.2 0 1l.2-.8zm-1.3-1.3c-.2-.2-.3 0-.2.7 0 1 0 1 .3.3v-1zm-9.4.3c.3-.4.4-1 .3-1.4 0-.5-.1-.4-.5.4l-.6 1.5c-.2.9.3.5.8-.5zm92.1.4c-.3-.3-.5.1-.3.5.2.2.3.2.4 0v-.5zm-13.9 0c0-.4 4-2.2 5.2-2.2 1 0 1.4.4.7.7-.4.3-.4.3.3.5.4 0 .8.1.8 0l.5-2 .6-2.6c.3-1.5-.8 0-1.3 1.9-.2.6-1 .8-1.5.3l-.7-.4c-.2 0-.4-.4-.5-.9-.3-.7-.4-.8-1-.7-.7 0-.8 0-.5-.4.3-.3.1-.4-1.8-.4-1.3 0-2.4.2-2.6.3-.2.2-.5.2-.8 0l-.8-.3c-.3 0-1.4 1.8-1.4 2.3 0 .5.5.4.7-.2.2-.6.5-.6 1 0 .2.2.2.4 0 .8-.4.6 0 1 .6.7.3 0 .4-.3.3-.6-.2-.5.5-1.7 1-1.7.4 0 .3 2-.1 2.6-.3.3-.3.5 0 1.1l.5.8c.2 0 .3.2.3.4s0 .4.2.4.3-.1.3-.3zm-.5-1.8c0-.2.2-.6.5-.8.3-.3.5-.7.5-1 0-.3.2-.5.8-.5.8 0 1 .4.5.7l-.2.7c0 .3-.3.6-1 .9-1 .5-1.1.5-1.1 0zM62.5 8.5c.8-.3.4-1-1-1.6-1.4-.6-2-1-1.7-1.3.2-.2 2.2.4 3.6.9.8.3 0-.5-1-1l-1.5-1c-.5-.5-3-.9-6.8-1-2.4 0-3.6.2-2.3.5a54.6 54.6 0 0 0 7.3 1.2c.2.5-.4.6-1.4.3-.7-.2-1.2-.2-1.7 0-.6.2-.4.2 1.3.8l2.5.8.9.2c.2 0 .5.3.6.7.3.7.5.8 1.2.5zm79.4 0-.1-.5c-.2 0-.3 0-.3.3 0 .4.1.5.4.1zM59 8c-.3-.2-1.4-.7-2.5-1-1.6-.5-2-.8-2.1-1.2 0-.4-.4-.6-1.6-.7-2.3-.3-2.5-.4-2.3-1.1.2-.7.1-.7-1.2-.5l-2.4.2c-1 .1-1.8.5-1 .5s7.8 2.2 10.8 3.4c2.2.9 3.1 1 2.3.4zm157.1.1c-.3-.4-2.3-1.3-3-1.3-.7 0-1 .4-1 1 0 .2.7.4 1.6.4l2.1.1c.3 0 .4 0 .3-.2zM140.6 7v-.8l-.4.8c-.3.8-.2 1.5.3 1 .1-.1.2-.6.1-1zm24.3-.4c.2-1 .2-1.1-.2-.6l-.5 1c-.2 1.8.5 1.4.7-.4zm53-1.2a15 15 0 0 0-.1-2.2c-.1 0-2 1.4-2 1.6 0 .1.4.1.8 0h.9l-.2 1.1c-.2 1.3 0 1.9.5 1.7.2 0 .3-.7.2-2.2zM16.4 6.6c0-.3-.2-.8-.6-1.2-1-1-1.3-.9-1 .3.2 1.5 1.4 2.2 1.6.9zm112.3.3c0-.2-.2-.3-.3-.3v.5c.3.4.5.3.3-.2zm16.7-1.7.4-1.8c.4-.7 0-1-.8-.5-.5.3-.5.5-.4 2.3.1 2.5.1 2.4.5 1.8.1-.3.3-1.1.3-1.8zm27.1.7a2 2 0 0 0-.3-1c-.4-.6-.4-.5-.4 1 0 1.4 0 1.5.3 1 .2-.3.4-.7.4-1zm2.9.9c-.1-.2-.2-.2-.2.1 0 .3 0 .5.1.4v-.5zm-85.7 0c.4-.5 6.3-.5 7 0 .4.3.5.3.4-.4l-.1-.8h-3.4a39.2 39.2 0 0 1-6.9-.1c-.4.3.4 1.3 1.1 1.4 1.4.2 1.6.2 1.9-.1zM38 6.3c0-.2.3-.6.5-.7.3-.2.4-.4.3-.5-.2-.1-.6 0-1 .5-.4.4-1 .7-1.3.7l-.6.2c0 .5 1.9.4 2-.2zm65.7.2c.3 0 0-2.5-.4-3.2-.3-.7-.6-.6-1 .3-.4 1 .2 3.3.7 3h.7zm38.5-.1-.2-1c0-.5 0-.5-.3 0-.3 1.1-.2 1.4.2 1.4.3 0 .4-.1.3-.4zm-25.9-.5c0-.2-.1-.4-.4-.4-.6 0-.3-.7.4-.8.3 0 .6-.2.6-.4l.1-.8c.2-.3 0-.4-.4-.4-.7.2-1.7 2.4-1.2 2.9.4.4 1 .3 1-.1zm54-.6-.2-1.5c-.2-.4-.3-.1-.3 1 0 .8.1 1.5.3 1.5l.2-1zm44.6.5c.1-.2 0-.3-.2-.3-.3 0-.5.1-.5.3l.3.2.4-.2zm-104.4-.3c0-.2-.2-.3-.5-.3s-.5.1-.4.3c0 .1.3.3.5.3.3 0 .4-.2.4-.3zm15.5 0 .3-1.4c.1-1 0-1-.6-1-1 0-1.7.5-1.7 1.2 0 .9.4.8.8 0 .4-1 .9-.6.7.6-.1.5 0 .9.1.9.2 0 .3-.2.4-.4zm-11.8-1c.5-.8.5-.8 0-1.2-.6-.6-1-.6-.4 0 .4.5.4.5-.1 1-.5.4-.7 1.2-.3 1.2l.8-1zm108.2.7-.6-.2c-.4 0-.7 0-.7.2s.3.3.7.3c.3 0 .6-.1.6-.3zM197.6 5l-.4-.9c-.4-.5-.3-.5-.2 1 0 .4.6.2.6-.1zm-54.5-1c-.2-.3-.3-.2-.3.2 0 .7.4 1 .5.5 0-.3 0-.6-.2-.8zm-47.8.6c1-.2 1-.3 1-.9 0-.5 0-.7-.7-.8-1.2-.2-2 0-2 .6s-.8.9-1.8.6c-1-.2-2.7.1-2.7.5 0 .2 4.7.2 6.2 0zm-13.7-.9c-.5-.5-2-.7-2-.3 0 .2 2.2 1.1 2.3 1 0 0 0-.4-.3-.7zm41 .3c0-.3-.1-.2-.1.1v.4c.2-.1.2-.4.1-.5zm66 0c.3-.2.5-.4.4-.5 0 0-.3 0-.5.2-.6.5-1.2.2-1.2-.5 0-.3-.2-.5-.6-.5-.5 0-.7.6-.4 1.3.2.5 1.4.5 2.2 0zm6.3.2v-.7c0-.3 0-.6-.2-.6s-.3.4-.3.9c0 .4.1.7.3.7.1 0 .3-.2.2-.3zm-96.3-.3c0-.3-.1-.4-.2-.3-.2.1-.2.3-.2.4.3.4.4.3.4-.1zM38 3.6c.1-.1-.2-.2-.8-.2-.6 0-.9 0-.8.2.1.2.5.3.8.3.4 0 .7-.1.8-.3zm126-1c-.3-.6-.8 0-.6.8.2.5.2.5.5.1v-.9zm1.1.9c0-.2 0-.3-.2-.3-.2.1-.2.3-.2.5.3.3.4.3.4-.2zm-129.8 0a1 1 0 0 0-.7 0h.7zm163.4-1c0-.1 0-.1-.2 0-.2 0-.3.3-.3.6s0 .3.3 0l.2-.6zm-8.2.2s0-.2-.2-.3c-.2 0-.3 0-.3.2 0 .1.1.2.3.2h.2zm27.7-.1c0-.2 0-.3-.3-.3-.2 0-.3.1-.2.3l.2.2s.2 0 .3-.2z"/>
</svg>
