<?xml version="1.0" encoding="utf-8"?>
<svg xmlns="http://www.w3.org/2000/svg" xmlns:svg="http://www.w3.org/2000/svg" version="1.1" viewBox="0 0 608 325">
	<title>Moppet’s tail and back paw stick out of the wooden barrel that she’s just dived into.</title>
	<path d="M266.6 324.9c-1.5-.2-2.2-.8-1.9-1.6.2-.6.3-.6 2-.4 2.1.3 5.2.2 12.2-.2l10.9-.2h6.5c.7-.2 5.7-.4 11.3-.4a303.8 303.8 0 0 0 22-.8 225 225 0 0 0 15.3-.8 266.7 266.7 0 0 1 20.7-1 543.6 543.6 0 0 1 22.8-1 2323.9 2323.9 0 0 1 27.1-1.3h35c1 .3 1.2 1.2.3 1.4-.8.2-8.5.2-30.3.1a713.7 713.7 0 0 0-30.5.6c-3.6.1-7.4.4-8.5.5-1 .2-4.3.3-7.3.4l-5.4.3c-.1 0-2.5.3-5.2.4a60817.2 60817.2 0 0 0-17.7 1 921.7 921.7 0 0 1-33 1.4c-1.6.1-7.3.3-12.6.3a391 391 0 0 0-30.4 1.3h-3.3zm162.7-1.4c-1.3-.3-1.5-.5-1.4-1.2 0-.7 0-.7-1.6-1.2-2-.5-2.5-.9-2-1.3.4-.4 3 .4 3.5 1 .2.2.6.3 1.2.2 1-.2 2.9.8 3 1.6.2 1-.8 1.4-2.7 1zm24.2-5-.9-.5c-.6-.5-.1-.8 1.4-.8 1.6 0 2.3.6 1.5 1.2-.5.4-1.3.4-2 .2zM81 318c-1.8-.6-10.9-1-17.6-.7-2 0-5.3-.6-5.3-1 0-.5.5-.5 6.9-.9 9.1-.5 7.8-1-5.8-2-9-.6-11.4-1-11.4-2.1 0-.4.8-.5 1.2-.1.3.3 1.7.4 11.9 1a60.9 60.9 0 0 1 7.7.8c2.5 0 4.8 1 4.8 1.8 0 .4.9.4 6 .2a371.5 371.5 0 0 0 15-.5c3.5 0 6.7-.2 7.4-.4 2.5-.7 3.4-.8 6.4-1.4l3.2-.6.8-1.5c1-2 1.4-2.2 2.7-1.8.5.2 1.4.2 2.2.1.7 0 2.9 0 4.9.2 2.8.2 3.8.2 4.8 0 1.2-.4 1.5-1 .8-1.6-.6-.5-.5-1.5 0-1.9.4-.2 1-.2 1.6 0 1.1.3 5.6.7 11 1l5 .7a52 52 0 0 0 13.2 1.5c2.8 0 3.8 0 4.6.4l2 .4a6 6 0 0 1 2.3.7c1.2.6 4.3 1.1 6.4 1.1.8 0 1-.6.5-1.5-1.3-2.2.2-3 8.3-3.8 4-.4 8.2-.1 10.1.6 1.5.6 2 .6 8 .7l6.2.1 1.4-.8c1-.5 2.3-1 3.7-1.2 1.2-.3 2.6-.7 3-1l1.5-.5c.4 0 0-.3-1-.9-1.1-.6-2.4-1-3.9-1.3l-3.4-.8-2.5-.5c-1.3-.2-1.5-.1-2.1.5-1 .9-1.8 1-3.2.7-8.7-2.3-9.4-2.7-9-4.4.1-.5.4-.7 1.1-.9 1.7-.4 6.2-.4 9 0 6.3 1 13 1.5 17.6 1 4.2-.3 8.1-.5 14.5-.5h5v-.8c-.3-1 .4-2.3 2-3.4 1.4-1.2 1.7-1.9 1-2.4-.8-.7-3.9-1-6-.5-1.3.2-2.2.2-4 0a11 11 0 0 1-2.7-.6c-.2-.2-.3-1-.3-1.8V286l-1.3.2-3 .4c-2.4.3-5 1-7.2 1.6-1.4.5-2 .8-2.3 1.4-.4.8-1.6 1.2-3.2 1.2a128.6 128.6 0 0 1-19.7 1.4c-5.3 0-6 0-6 .4 0 .2.3.7.6 1 .4.6.5.8.3 1-.4.6-1.6.5-2.6 0-.5-.2-1-.3-2 0-1.8.3-6 1-7.5 1.1-2.3.3-2.9 1.1-1.4 2 2.2 1.1 2.7 2.3 1.6 3.3-.5.4-.7.4-3.5.1a27 27 0 0 0-4.7-.1c-1.2.1-2.5 0-3.9-.2-1.1-.3-3.8-.5-6-.6-4.2-.1-10.9-.8-12.5-1.2-1.8-.4-2.6-.3-3.2.4-.4.7-.6.7-1.1.4-.3-.1-.6-.5-.6-1 0-.3-.3-.9-.6-1.3-.6-.7-.8-.7-3-.8-3.1-.1-6.5.3-8.8 1.1-1 .4-2.2.7-2.7.7-1.3 0-5.7 1.2-7.4 2-1.4.7-1.6.8-5.1.7-2 0-4.2 0-4.8.2-1 .3-4.9.3-10.7.2-2.5-.1-3-.4-2.7-1.2.2-.5-.5-.4-1.6.4-1 .7-1.8.7-2.5-.3-.5-.8-.2-1.5.7-1.6l2-.5a26.6 26.6 0 0 1 7.9 0c.2.4-.7.8-3.1 1.1-3.6.6-2.8.8 3.2.8a21.7 21.7 0 0 0 9.7-1.1c2-.4 2.6-.4 3.3-.1.7.3 1 .2 2.2-.4a17 17 0 0 1 3.8-1.2c1.3-.2 2.9-.6 3.6-.9l3-.8a29.3 29.3 0 0 1 8.9-1.1h3.8l1.5.8c1.2.8 1.8 1 4.5 1.3l3.4.5c.3.2 4 .5 10.8.8 1.9 0 4 .3 4.7.4.9.2 2.4.2 4.2.1 2.7-.2 2.8-.2 2.6-.7-.6-2.2 1-3.6 5-4.3a66.3 66.3 0 0 0 8.3-2.1c.3-.4.9-.7 1.3-.8l7.8-.3c10-.1 16.8-1 18.5-2.5.4-.4 1-.8 1.2-.8.2 0 1.2-.8 2.3-1.8 1.3-1.3 1.8-2 1.8-2.4 0-.8-1-3.3-1.5-3.6-.2 0-1.6-2.8-3.2-6a31 31 0 0 0-3.4-6.2c-.6-.2-2.3-1-3.6-1.8-1.1-.6-1.4-1.1-1.3-2.6 0-1-.7-2.3-1.4-2.3-.2 0-.5-.2-.8-.5a5 5 0 0 0-2-.8c-1-.2-2.2-.7-2.9-1-2.8-1.4-4-1.7-7.4-2l-5-.4c-1.3-.1-1.8 0-3 .6a20 20 0 0 0-2.9 1.7l-1.6 1-1.5 1.2a15 15 0 0 1-2 1.5c-.5.2-1.1.6-1.5 1-.7.4-1.3.5-4.7.5-4.3 0-6.3-.3-7.3-1.2l-.8-.6c-.2 0-1.1-.6-2.1-1.4l-2.1-1.5c-.2 0-.4-.2-.6-.5-.3-.5-.6-.5-3.7-.5a34.3 34.3 0 0 1-14.2-3 74 74 0 0 0-19.5-.6c-2 .2-2 .2-2.7-.5l-.7-.8-2.2.5a42 42 0 0 0-8.7 3c-1.6.6-2.8 1-4.4 1a13 13 0 0 0-2.4.5l-3.5.5-4.1.6c-.6.1-1 0-1.6-.5-.6-.5-1.2-.7-1.7-.7l-1.9-.3a46 46 0 0 0-7.5-1c-2.6-.2-2.6-.2-3.4-1.2-.8-1-1-1-2.4-1l-3.7.3a735.3 735.3 0 0 1-9.7 1.3c-.6.2-2.8.4-5 .6-2.3 0-5.3.4-6.8.6-3 .5-4.6.5-4.6.2 0-.5-1-.6-6-.7-4 0-4.8 0-5.4-.5-1-.6-1-1.2-.2-1.3 2-.1 3.6-.2 11.9-.3a215.4 215.4 0 0 0 24-1.5c3.9-.5 8.4-.7 9-.5.3.1.7.6.9 1 .3.7.4.7 4 1 1.9.2 4.6.6 5.9.9 5.4 1.1 7.5 1.3 10 .7a53 53 0 0 1 4.4-.7c2.4-.3 3-.5 5-1.5 3-1.5 3.3-1.6 6.8-2.2 4-.7 8.8-.8 10.4-.2 1.8.7 10.5.6 13.2 0a22 22 0 0 0 2.4-.8c.2-.2 1.2-.4 2.2-.5 1.7-.1 2-.2 2.8-1.1 1.6-1.7 1.6-1.7 1.4-11.4v-12.7c0-3-.2-4.2-.6-5.6-.3-1.2-.5-2.6-.5-4 0-2.6-.2-3-1.6-2.7-2 .4-7.4.8-8.7.6h-6.9c-7.7.4-44.8.2-47.2-.3a240.4 240.4 0 0 0-25.3.2c-.2-.1-6.3-.2-13.6-.2H24.4l-.7-.6c-.8-.8-.9-1-.3-1.3l10.5-.1c9 0 10.1 0 10.6-.5.3-.3 1.3-.4 5.4-.5 7-.2 25.8-.3 53-.3a531.5 531.5 0 0 0 30.7-.7 190 190 0 0 0 23-1c1.4 0 2.3-.7 1.8-1.2a107.7 107.7 0 0 0-22.9.7h-2a10 10 0 0 0-2.1-.4c-1.4-.1-2.1 0-2.8.2-.8.4-2 .4-7 .2l-20.7-.2H86.2l-1.2.6c-1.1.5-1.6.6-3.8.5-1.3 0-3.1 0-3.9.2-3.2.5-29.2 0-32.2-.7a69.6 69.6 0 0 0-14.4-.8c-1.2-.3-1.4-1-.4-1.4.7-.3 5.3-.2 12.6.1a374 374 0 0 0 23.5-.1c1-.5 16.6-.5 18.4 0 1.3.5 8.5.4 9 0 .3-.4-.1-.8-1-.8-.6 0-1.2-.7-.8-1l3.9.1c4.7.3 15.5.2 25.4-.2 11-.4 10.1-.4 10.8.7l.5 1 3.2-.2c4.2-.2 10.7-1 12.9-1.4.8-.2.8-.3.4-.5l-2.4-.4-8.9-1.5c-2.8-.5-9.2-.7-13.9-.3a207.9 207.9 0 0 1-26.8.2c-1 .1-1.3.2-.9.2.5 0 1 .2 1 .3.3.4-.6 1.1-1.4 1.1l-19.2.7-15.2.3a445.5 445.5 0 0 0-22 .6c-1.9 0-2.1 0-2.1-.5 0-.3.1-.6.3-.8.8-.6 6.1-.9 15.9-.8 10 0 13.2-.3 6.5-.6-3.7-.2-5.1-.5-5.3-1.1-.2-.5.6-.8 1.9-.6.8.1 7.7.3 8.7.2.2 0 .3-.2.2-.5-.3-1.1.1-1.2 4.5-1.2 4.2 0 5.2.3 5 1 0 .4-.4.6-2.3.7-1.9.1-1.6.1 1.8.2 2.2 0 4 .1 4.2.2 0 .1 0 .5-.3.8l-.4.7 5.1-.2 6.7-.3c5.5 0 5.6-.1 4.8-.5-.6-.4-2-.5-6.9-.6-3.3 0-6.3-.2-6.5-.4-.3-.1-.4-.4-.3-.6.2-.8 2.2-1 8.4-1 10.2.2 27.5-.2 27.8-.5.2-.2.4-.6.4-.9 0-.8.6-1.4.9-.8l.1 1c0 .5.5 1 1.5 1.1 1.3.3 1.5 0 1.2-1.6-.4-1.4-.8-19.4-1-40.7a404.7 404.7 0 0 0-1.6-37.3 662.4 662.4 0 0 1 1.1-71l.3-6.8a331.1 331.1 0 0 1 1-24.1c0-2.8.2-5.2.3-5.4.2-.4 1-.3 1 0a931.8 931.8 0 0 1-.6 42.9c-.2 1.2-.3 4.4-.4 7 0 2.6-.2 5.8-.4 7.1-.4 4-.8 9-1 14a1106.6 1106.6 0 0 0 .6 52.7 206.2 206.2 0 0 1 .7 27c-.3 3 .1 12 .5 12 .2 0 .3-.4.3-.8 0-.5 0-3 .2-5.8.8-14.5.8-38.6 0-54.6-.3-6.1-.2-13.6.2-28.5.2-6.5.3-7 1.3-6.8.5.1.5.5.4 8.3v21.8a1971.2 1971.2 0 0 1-.7 66c-.2 10.5-.4 13.3-1 13.8-.4.4-.4.9-.4 3.5 0 1.8 0 3.2.3 3.6.2.3.4 1.2.6 2l.3 1.5h3.1a59.5 59.5 0 0 1 16.4 1.6c1.5.2 3.9.6 5.3 1 1.5.3 4 .6 5.4.7 3.4.2 6.3.6 7.2 1 2 .8 3 4 1.9 6.3-.7 1.5-2.9 2.9-4.2 2.7-1.3-.3-2.6.2-3 1-.5 1-.4 18.6.1 20.2.2.5 1.3 1 3 1.1.5 0 .8.3.8.6.2.7-.4 1-1.8 1-1.8 0-1.8 0-1.8 3.3 0 3.5.3 3.8 2.5 3.8.9 0 2.7 0 4 .2l2.6.1.6-1.3c.5-1 .6-2 .7-6.3l.3-5.1c.4-.4.5.8.4 5 0 2.5 0 5.2-.2 5.9-.1 1 0 1.4.3 1.8.7.7 1.6.6 2.2-.2.4-.6.4-1 0-5l-.4-17c0-7-.2-14-.3-15.8a144.2 144.2 0 0 1 .4-24.7c.3-.4.3-.4.6.2.2.4.2 1.2 0 3a98.3 98.3 0 0 0 0 16.9 333.7 333.7 0 0 1 .6 21.4 267 267 0 0 0 .7 18.5c0 3 .2 3.2 3.5 3.2 1.5 0 3-.1 3.3-.3l.7-.3v-6.7c-.1-6.1-.2-6.6-.7-7.2-.3-.4-.5-1.2-.7-2.5-.2-2.2-.1-20.5.1-22.6.4-2.8.6-13.3.4-20.7l.1-8.5c.4-1 .5-7.7.2-8.3l-.7-1c-.4-.4-.4-3 .2-13 .2-2.4.2-4.6.1-4.7-.1-.2-.5-10.3-.4-11.9.5-10.6.6-57.3.1-63.1-.1-1.8 0-2.2.3-2.5.3-.3.4-.2.7.7l.4 4.9.1 5.4.1 1.6.2-1.9c.7-5.8 1-15.3.6-18.6-.2-1.6 0-1.8.8-.6.4.8.4 1.7.4 7.4 0 3.5 0 6.8-.2 7.3-.3 1-.8 7.1-1 12.7a598.6 598.6 0 0 0-.6 34.5c-.2 3.9-.2 7 .1 12.2a365.2 365.2 0 0 1 .7 15.6 117.8 117.8 0 0 1 .6 8.2l.5 9.7c.2 6.4.2 7.3-.1 7.6-.4.4-.5.2-.7-1.9l-.5-5c-.3-5.3-.5-2-.3 5.8l.6 21.4c.2 1.8 0 2.7-.2 3.6-.3.8-.5 2.4-.5 4.3 0 2.6 0 3.2.4 3.8.3.4.4 1 .3 1.3l-.5 12.5.4 20c0 .4 1.9.4 3.7 0 1.6-.4 1.7-.7 1.6-3.8a3567.2 3567.2 0 0 1-.1-8.1v-5.7c0-1.3 0-1.6.4-1.7.6 0 .7.6.6 5.3 0 2.2 0 6.2.3 8.8.2 2.7.3 5.1.2 5.5-.2.8-.8 1.3-1.8 1.3-.3 0-.7 0-.8.2l-1.4.2a58 58 0 0 0-7.6.3c.7 0 1.2.2 1.2.4 0 .1 1.9.2 5.4.2l5.4-.1.7-.8 1-.7c.5 0 1-5.8 1.1-15a382 382 0 0 0 0-26.6c-.1-2.2-.1-2.9.3-4.3a23 23 0 0 0-.1-8.3 784.1 784.1 0 0 1-1.3-6.6 8 8 0 0 1 .4-5.7c1.3-2.9 1.3-2.8 1-4-.4-.8-.4-1.5-.3-3a85.8 85.8 0 0 0 .4-10l.1-1.3h-.9c-.5-.1-1-.3-1.3-.6-.2-.3-.2-.5.3-1a2 2 0 0 1 1.2-.6c1.3 0 1.5-.4 1.5-2.5 0-3.7.8-9.6 1.6-12.9.6-2.2 1-4.2 1-4.9 0-1 .5-1.9 1-2 .5-.2.6-.3.4-2-.2-1.6-.1-2 .5-3.8l1-2.9c0-.5.5-1.7.9-2.6 1.2-2.8 1-4.6-.6-7.5-.4-.7-.4-1 0-3 .5-2.5.8-3 1.5-3 .2 0 .7-.4 1.1-.8.4-.4 1.2-1 1.8-1.2.8-.4 1.1-.8 1.6-1.8a8 8 0 0 0 .5-1.8l.6-1.4.5-1.7c0-.3.3-1 .6-1.5.4-.5.9-1.6 1.1-2.3a67.5 67.5 0 0 1 3-7.5c.3-1 1-2.5 1.4-3.3 1-1.6 1-1.4.5-10a170.4 170.4 0 0 1-.2-18.6c-.2-1.7 0-5 .5-5.3.7-.5 1 .5.7 3.5a183 183 0 0 0 .7 25c.1 4.4.1 4.4 2.7 3.9 3-.6 7-.9 15-.9 6.1 0 8.8-.1 12.5-.5a40 40 0 0 1 9.1-.2h2l.1-1.7c.1-1 .3-2 .5-2.1.5-.5.4-.8-.9-3-1.3-2.4-1.5-3.7-.6-4.1.3-.2.5-.6.5-1 0-1 .2-1.3 1-1.5.7-.1.7-.2.7-2.2 0-1.6.1-2.3.5-2.8.5-.8.5-1.2-.1-4.4-.4-2.3-.2-3.2.8-3.2.7 0 .8.1 1.5 1.9 1.2 3.1 1.3 2 1.1-9 0-1.6 0-2.3.3-2.5.6-.3.9 0 .7.8-.2.9.1 2.4.5 2.4.2 0 .4-.4.5-1 .1-.6.4-1.4.7-1.7.4-.5.5-1 .5-2.1 0-1.3.1-1.5.9-2.1.8-.6 1.8-2.7 1.5-3a383 383 0 0 0-22.9-.1l-5.5.1-.7.9c-.6.7-.7.8-1.1.5-.4-.3-.5-1-.5-6 0-6 0-6.6.9-6.3.5.2.6 1 .7 5 0 1.8.2 3.4.3 3.5.2.2 2 .3 4.7.2 3.7 0 4.6-.2 5.7-.6 1-.5 1.6-.5 4.5-.4 2.3 0 3.4.2 3.9.5.7.5 6.6.8 10.4.5l2.2-.1.7-1.2c.4-.7 1-1.7 1.6-2.4.7-1 1-1 1.8-1 1-.1.9 0 3.4-3.5 1-1.5 1.7-2 2.2-1.3.5.7.9.6 2.3-.7 2.1-2 5-4 6-4.2.7-.2 1.4.4 1.2 1-.2.4 0 .5.5.3 2.3-.8 3 .2 1.4 2-1 1-1.1 1.9-.2 2 .6.1.8.8.3 1.7-.2.4-.2.7 0 1.3.3.6.2 1-.7 2.8l-1.4 3c-.3.6-.5 1.5-.5 2 0 1 0 1.1.5 1.3.8.2.6 1.1-.9 3.3-1.5 2.4-2 3.5-2 4.8 0 1.3-.8 2.7-3.6 6-1.6 1.9-2.2 3-1.4 2.2.4-.2 1-.4 1.8-.3.5 0 .3 1.6-.3 2.7-.5.9-.5 1-.1 1.6.3.5.3.7 0 1.5-.2.5-.7 1.2-1 1.5-.8.7-1.2 2.8-.6 3.3.9.7.7 1.2-2.4 5.4-1.7 2.5-2.2 3.4-2 3.8 0 .3.2.3.6 0 .3 0 .6-.3.7-.5l.7-.2c.2 0 1.2-.4 2.1-.9 1.2-.5 2.3-.8 3.8-1 5.6-.6 8-.8 9-.6.7 0 1.8 0 3.2-.4l4.2-1c1.8-.3 2.5-.6 3.5-1.4l3.2-1.6c1.6-.5 2-.5 3.3-.3 2 .4 4.8 2 5.5 3 .4.9.5 1.3.4 2.5-.1.7-.3 1.8-.6 2.3-.4 1-2.9 3.6-4 4.3-1.2.6-1.3 1-.1 1.4 1.4.4 8.5.4 9.1 0 .5-.4.5-.8.4-4.4l-.4-5c-.1-1 0-1.2.3-1.2.4 0 .6 1.1.4 3.3 0 .5.1 1.2.3 1.4.1.2.3.5.2.8-.1 1.1.4 4.9.7 5.1.2.2 2.3.4 5 .6 2.7 0 5.3.3 5.9.5 1.5.4 2 0 2-1.5 0-.6 0-1.2.2-1.3a170 170 0 0 1 0-20.3c.2-.4.5-.7.6-.7.3 0 .4 1.3.3 5.3 0 4.4 0 5.3.4 5.5.2.2 1.6.3 3.1.3 3.7 0 3.8-.1 3.9-3.6 0-2.5.4-4.3 1-5.1.4-.7.5.8.2 2.9-.5 3.6-.6 4.4-.3 5 .4.5.4.5 4 .4 2.2-.1 3.8-.3 4.2-.6.3-.2.6-.2.9 0l1.2.2c1.1 0 1.4-.6 1.4-2.7 0-1 .2-2 .4-2.3l.3-.7.2.7c.2.3.2 1.5.2 2.5 0 1.2.1 2.3.4 2.8.3.8.5 1 1.4 1 1.1.2 2.4-.1 2.4-.6 0-.1-.5-.2-1.3 0-2.2.2-2.4-.7-.2-1 1.2-.2 1.8 0 1.6.4-.1.2 0 .1.2 0 .4-.4 1.5-.5 1.5-.2 0 .4 1.3.9 2.4.9 1.4 0 2-.3 1.6-.7-.3-.4.4-2.2 1-2.2.2 0 .3 0 .2.2l.1.4c.4.2.4 1.1 0 1.7-.3.4-.2.6.4 1.2l.7.7h6.8l7.7.4c1.9.4 2.2 1.2.6 1.7l-1.3.6c-.1.1-.5.1-1-.1s-1-.2-2.4 0c-1 .2-2.3.3-3 .2-1.4-.1-4.2-.2-13.2-.2-4.2 0-5-.2-4.7-1.2.1-.4 0-.6-.3-.7-1-.3-1.6.3-1.7 1.4l-.3 32.9c0 5.5-.2 8.2-.3 8.4-.5.4-.7-8.8-.8-26.2 0-14 0-14.4-.5-14.5a2 2 0 0 1-.9-.5c-.3-.3-.2-.3.4-.3.5 0 1-.2 1-.4.3-.4.2-1.8 0-2a38 38 0 0 0-5.4 0c-4.2.3-5.2.4-5.6.8-.4.4-.4 1.2-.4 8 .1 8.6.4 11.2 1.5 13.5.4 1 .9 2.1 1 2.7.2.7.5 1.2.6 1.2.2 0 .3-2.7.2-7.6 0-2.6 0-3 .4-3 .3 0 .4.3.4 1.2a120.6 120.6 0 0 0 1.4 18c.5 3.2.7 4 1.5 5.6.6 1.1.9 1.9.8 2.4-.3 1.1.3 4 .7 3.8.3-.1.4-1.8.3-9.5 0-7.1 0-9.5.3-9.8.3-.4.3-.4.5.1a242.8 242.8 0 0 0 0 14.7l.1 4.4.7-.2c.7-.1 1.7.6 1.7 1.2 0 .3-.3.4-.9.4-1.4-.1-1.5 0-1.5.7 0 1.6 1 3.9 2 5 .2.2.4 1.6.5 3.2.1 1.5.4 3.3.6 3.9.2.6.5 2.5.6 4.2.1 1.8.4 4.8.8 6.8l1 7.4c.4 3.1.6 4.1 1.2 5 .6 1 .7 1.5.7 3.5 0 1.3.1 2.3.3 2.5.2.3.2.5 0 1-.3.5-.4 1.4-.7 6.2-.2 1.9-.1 2.3.4 3.6.6 1.4.6 1.6.3 4-.4 2.6-.2 4.8.4 6 .5 1 .4 1.8 0 2.8-.3.4-.5 1.9-.6 3.2-.1 1.4-.4 3.2-.7 4-.6 1.8-.6 2.2.1 4.2.6 1.7.6 1.8.3 9.2a67 67 0 0 0 0 8.2c.3 1 1.4.8 1.9-.2.5-1.1.6-6.2 0-7-.4-.6-.4-1-.1-3.5.3-2.7.5-5.4.5-8 0-.9 0-1 .3-.9.3.3.4 1.8.2 5 0 1 .1 2.1.3 2.5.4 1 .2 6.2-.2 6.7s-.4 5.5 0 6c.3.4 2.5.4 2.8 0l.1-3.2c0-2 0-3 .3-3.5.7-1.1.3-7.2-.4-7.9a245.7 245.7 0 0 1 .2-22.6l.2-1.3.2 1.8v9.5l-.2 7.8.7 1.2a4 4 0 0 1 .4 2.8c0 1 0 2.2.2 3 .2.9.4 3.5.4 6.7 0 3.3.2 5.4.4 5.6.3.5 1.8.5 2.3 0 .1-.1.3-.5.3-.8 0-.3.1-.7.3-.9.2-.2.2-.5 0-1.1-.4-1.2-.4-2.3 0-2.5.6-.2.7.3.5 2.6-.1 2.6 0 2.8 2.2 2.7 2-.1 2 0 2.1-.8l.2-.5.6.7c.5.6.6.7 1 .4l.6-.7c0-.3.2-.3.3.1.3 1 .9.8 1-.3.4-2.2.5-2.5.8-2.5.2 0 .5-.2.7-.5a347.7 347.7 0 0 0 .7-21.8c.4-.3.6 6.7.5 16.3-.1 8.2-.1 9.2.3 9.6 1 1 1.1.2 1.6-9.6.2-3.1.3-3.5.8-4.1.5-.5.6-1 .6-2.3 0-1 0-1.6.3-1.5l.3 2v6.6c0 4.3 0 5-.4 5.6-.5.7-.6 2.4-.2 3.2.4.7 2.5.7 3 0 .3-.6.3-.6.9 0 .5.5.7.5 2 .2 1-.1 1.7-.4 1.8-.6.4-.7.6-3.6.5-9.4 0-5.8 0-6.3-.6-6.8-.4-.5-.5-.8-.3-2.5.3-1.8.2-2-.4-2.9l-.6-1v-7.9c0-4.3 0-9.3.2-11 0-2.2 0-3.3-.2-3.7-.3-.4-.3-.6 0-.8.4-.4.4-1.5 0-1.7l-.2-1.9c0-3.4-.3-1.5-.4 3 0 2.6-.2 4.7-.3 4.9-.1.2-.4.2-.7.2-.5-.2-.5.2-.5 12.4V203c0 3.5 0 5.2-.3 6.3a8 8 0 0 0-.3 2.8c.2 1.4-.3 2.1-.5.9a343 343 0 0 1-.5-16l.3-4c.3-3 .2-7.1-.4-15-.2-2.7-.4-6.8-.4-9.1.1-5.2-.2-42.6-.3-44.5l.3-7.5a39 39 0 0 0 0-9c-.2-1.3-.3-2.9-.1-6a107.7 107.7 0 0 0 .2-13.6l-.3-4.5c-.2-1.5-.3-3.4-.2-4.2.2-2-.5-4.2-1.7-4.9l-.8-.5.5-.4c.8-.5 3.5-.6 4.1 0 .4.3.4.6.3 2a75 75 0 0 0 .5 10.3v3.5l-.2 2.5-.3-1.4c-.2-1.4-.2-1.4-.4-.7-.3 1-.4 2.3-.3 14.2 0 5.6 0 13.4-.2 17.4-.2 11.9-.2 13.7.2 14.2.4.4.4 2.2.5 11.7l.2 16c.2 4.3.3 4.4.4 2.6.8-8 1.4-23.2 1.7-45.1.2-17 .7-38.6.8-38.8l.2-13 .1-13.4c.2-.5.9-.3 1 .4A2836.2 2836.2 0 0 0 392 111a364.1 364.1 0 0 0 .7 36.9v4.7l.4 8c.2 2.1.2 2.2-.4 2.2-.4 0-.5.2-.5.7 0 .6 0 .6.4.4.4-.3.7-.1.7.6 0 .2.1.7.4.9.4.4.4-1 .3-11a531.4 531.4 0 0 1 .5-24 2537.8 2537.8 0 0 0 .4 40.3c0 2.5-.1 2.7-.6 2.7-.4 0-.5.2-.6 2v5.3c.1 2.9.2 3.6.5 3.6.2 0 .4-.3.4-.7 0-.4-.1-.7-.3-.7-.3 0-.3-2.5 0-2.7.2-.1.3-.4.3-.7 0-.3.1-.5.2-.5a180 180 0 0 1 .2 19.2c-.2 1.4.5 7 1 8.1.3.4.4 1.4.4 2.1 0 .8.2 1.9.4 2.4.5 1.3.3 3.3-.3 4-.2.2-.7.4-1 .4-.4 0-.7.3-1.1 1.1-.6 1.3-.7 2.7-.7 7.7v3.4l1 .2c.5.1.8.4.8.7 0 .5-.3.6-2.5.7-2.4.2-3.4.4-3.5.7v3c.3.5.7.5 14.1.1 3 0 5 0 5.5.2 1 .3 1 .3.6 1-.3.4-.6.5-2 .5-2.1 0-3.3.3-3.3.7 0 .8-.9 1-7.2 1.3l-9.9.5c-3.8.2-4 .3-4 2 0 .4 0 .9.2 1 .2.1 2 .2 4 0l5.8.1c3.2.3 9.1.2 11 0 .8-.2 3.6-.4 6-.5 4.7-.3 10.5-1 11-1.3.6-.3 4.4-.9 7.2-1 3.4-.2 3.7-.4 3.7-1.8 0-.7.1-1.4.4-1.6.4-.5.5-1.4 0-1.6-.2 0-.2-1.1 0-4.6.3-2.7.4-7.7.3-12v-11.2c0-3.7-.1-8.3-.8-20.2-.4-8.2-.6-20.7-.3-20.7.5 0 .8 1.5.8 4.1l.3 6.9.6 10.2c.2 6.6.6 11.5.7 10.7l.3-1c.2-.4.3-2 .4-3.6l.4-10.7a139.3 139.3 0 0 0 .3-11.8c.2 0 .3-11.1.4-36.4V121c.2-1.6.7 0 .7 1.9l.1 12.2c.2 13.5.2 12.2 0 22.8l-.3 18.6c-.1 9.7-.4 17-1 26-.3 6.2-.4 8.6-.1 10.3a188.3 188.3 0 0 1 0 21.7c-.4 3.4-.3 3.5 1 3.6.2 0 1.1.2 1.9.6l2.6.8a72.7 72.7 0 0 0 19 6.9c4.2 1 5.3 1.4 5.7 1.7l1.4.4 1.3.4c.2.3 4.4 1.6 5.3 1.6.7 0 .7 0-.3-.6-1.8-1-2.3-1.3-2.3-1.8 0-.8 1.1-.9 2.6-.3a55.3 55.3 0 0 0 9 3.2 125.4 125.4 0 0 0 10.7 3.4l2.5.8 3.4 1.1a108.6 108.6 0 0 0 14.7 3.6l2.7.6A145 145 0 0 1 527 264c2.3 1 5.8 2 6.7 2 1 0 4.8 1 9 2.3l5.4 1.6a38 38 0 0 1 8.5 2.6c1 .7 5.8 2 6.3 1.8.5-.2 1.3.5 1.1 1-.2.5-1.2.6-1.2.2 0-.2-.2-.3-.3-.3-.1 0-.2.2-.1.4 0 .2.4.4.7.4l2 .4 2.4.6c1.2.3 2.4.9 2.4 1.2 0 .3-1.5.1-5.6-.9-2-.5-4-1-4.7-1l-7.7-1.8c-1.4-.5-3.3-.9-5.8-1.3-1.3-.2-3-.6-3.8-.9a10 10 0 0 0-2.2-.5 67.2 67.2 0 0 0-7.1-1.9c-1.5-.3-3-.8-3.3-1l-1.7-.4-4.9-1.5-4.2-1.3a32 32 0 0 1-4.7-1.6l-1.6-.5-3.7-1.2c-1.4-.6-3.3-1.2-4-1.4l-5.5-1.8a68.9 68.9 0 0 0-11.1-3c-3.2-.6-11.5-2.7-12.8-3.1a7 7 0 0 0-2.2-.3c-.5 0-1.2-.1-1.4-.3-.2-.2-1.4-.6-2.6-.9-1.2-.2-2.5-.7-3-.9-.4-.2-2.1-.7-3.8-1l-3.8-1.1c-.4-.2-1.2-.4-2-.4-.6 0-2.5-.3-4.3-.8l-3.8-.8a431.3 431.3 0 0 0-5.1-1.4c-1.2-.3-2.7-.9-3.5-1.4-2.2-1.2-3.7-1.6-8-2-5.5-.4-8.7-.4-17.4 0l-7.8.4-.8.8c-.8.8-1.1.9-3.8 1.1a215 215 0 0 0-9 .8 146.3 146.3 0 0 1-16.8 1.2c-3.2 0-3.7.2-3.5 1.3.3 1.3.6 1.4 6.4 1.2 4.6-.1 10.4-.3 12.3-.5l1.7-.3c.6-.2 2-.5 3.3-.6l5.2-.8a10 10 0 0 1 5.5.2l1.8.7c.6.1.7.3.7 1 0 1 0 1-8.2 1.1a250 250 0 0 0-9.4.4c-.7 0-1 .1-.7.2.3 0 .6.2.6.4 0 0 .5.2 1.2.2 1.7 0 3 .6 3 1.4 0 .5-.2.7-.8 1-1 .3-11 .7-11.8.4-.4-.2-.4-.2.2-.7.4-.4 1-.5 2-.5.7 0 1.2 0 1.1-.2a159.6 159.6 0 0 0-18 .4c-.7 0-1.3.2-1.5.4-.3.4.1.4 3.4.4 2.5 0 4 .2 4.3.4.4.2.6.2 1-.2.6-.6 4.3-.6 4.3 0 0 .2-.3.4-.7.4-1.5 0-1.6.3-.1 1 1.4.7 1.9 1.4 1.3 2-.1 0-1.5.3-3.1.4a84.1 84.1 0 0 0-10.5 1.4c-.5.3-.5.3.4.5h15.5l.7.8c1.2 1.4.7 2.4-1.3 2.7-.6.1-1.5.4-2 .7-1.1.6-2.8 1-6.7 1.4l-3 .4v.8c0 .7-.3 1-1.1 1.5-1.2.8-5.4 2-9.2 2.7-1.3.2-3 .7-4 1.1-.8.5-2 1-2.7 1.1a54.4 54.4 0 0 0-10 3.7c-.6.3-1.3.9-1.6 1.3a3 3 0 0 1-1.6 1c-.7.3-1.6 1-3 2.3a118 118 0 0 0-5.8 6.2c-.3.4-.8.6-1.3.6-.4 0-1.4.3-2.3.6l-1.7.7c-.4 0-2.6 1.4-3.2 2.1-.3.3-1.1.6-2.4.8-1.9.3-3.3 1-4.2 2-.4.5-.9.7-2 .7-.9 0-2.1.1-2.7.4-.7.2-1.8.4-2.5.4a148.7 148.7 0 0 0-23 2.7l-6 .9a45 45 0 0 1-5.8.4c-2 0-3.2 0-4.1.3-2.4.8-5 1-9.7 1l-4.7-.1-.6 1c-.7 1-.8 1-2.5 1.4l-3.4.4c-1.7.1-2.5.7-2.5 1.9 0 .3-.2.7-.5.9l-5.6.4c-6.2.1-8.8.4-9.5 1-.4.4-1 .4-4 .4-2.7 0-3.5 0-4 .4-.6.4-1 .4-2.2.3l-1.4-.2-.7 1.3c-.5 1-1 1.5-1.8 2-1.4.6-3.9.7-6 .1l-3.9-.5-4.6-.6c-2.8-.5-4.4-.5-5.8 0-.7.3-1.6.4-2.7.3-1.6-.2-1.8-.1-3.5.8s-1.9 1-4.5.9a24.1 24.1 0 0 1-6.8-.8c-2.2-.3-2.4-.2-3.2 1.4-.3.6-.8 1-1.2 1.2-.9.3-3.4 0-4.6-.4-.4-.1-1.3-.3-2-.3-.8 0-1.9-.2-2.5-.5-1.6-.5-6.3-.8-8-.3-1.6.3-3.5 0-5-.8a10 10 0 0 0-3.3-.7c-4-.3-5.4-.3-6.7 0l-3.2.7c-1.7.3-2.2.2-4-.2l-2.8-.9c-.8-.3-1-.3-1.6.2a4 4 0 0 0-1 1.6c-.6 1.7-1.3 2-3.5 1.7a29 29 0 0 0-12 0c-1 .5-3.3.9-7 1.2-2 .1-2 .2-3 1.1-.8 1-.8 1-2.6.9-1 0-2.3 0-3 .2-1 .2-2.4.2-5 0-3-.2-4-.2-5 .1-1.4.5-7.4.5-8.6.1zm135.6-9.9c0-1.2-.5-1.4-1.7-1.1l-2.4.4c-2.7.3-.5 1.7 2.6 1.6h1.6zm15.2-3.8c3-.6 6.8-1 10-1 2.4 0 3-.2 4-1.1.3-.3 1.1-.6 1.8-.8l1.1-.2-1-.3c-.7-.2-3.1-.4-5.5-.4l-4.8-.1c-.2 0-.4-.3-.5-.8v-.7h-4.2a144.5 144.5 0 0 0-15.4.9c-2 .1-3.7.3-3.8.4l1.4.7c2.5 1 4.4 2 5.4 3a7 7 0 0 0 1.3 1c.8.3 7.7 0 10.2-.6zm14.5-5.2c.7 0 1.2-.2 1.2-.3 0-.1-.4-.5-1-.8-1.2-.8-3.2-.7-4 .2l-.6.5.6.3c.8.3 2.1.3 3.8.1zm30.3-3c.6-.4 1.5-.5 4.5-.6l4-.3-.1-.9-.3-.7h-5.4c-2.9 0-6-.2-6.8-.4-4-.7-5-.9-8.4-1l-6.5-.7c-1.5-.3-3-.4-3.4-.3-.6.2-3.5-.3-6.8-1l-2.4-.3c-1 0-1 0-1.4 1-.6 1.6-.3 1.8 2.9 2.3 5.5 1 7.3 1.3 9 2 1.5.5 4.7 1 7.8 1.3h6.9c5 0 5.9 0 6.4-.4zm16.2-1.5c1.8-.2 4-.5 4.7-.8l4.7-.7 3.1-.3.2-1c.4-2.2 1.6-2.7 1.6-.6 0 .7 0 1.2.2 1.3.2.1 1 0 2-.1l1.7-.3v-1c0-.5.3-1.3.6-1.8.2-.5.6-1.4.7-2.2.1-1.4 0-1.5-1.4-1-1 .2-1.9-.1-1-.4l1.4-.8c1.1-.9.6-1-1.6-.2-1.1.4-1.5.6-1.8 1.3-.9 1.9-1.5.3-.9-2 .4-1.3.6-2.7 1.1-7 .4-3 .5-3.4 1-3.4.7 0 .7 2.8.1 5.7-.6 3-.7 3.7-.3 4 .5.3 3.5-.5 4.1-1a37.6 37.6 0 0 0 1.7-10c.4-1 .1-2.3-.5-2.4-.4-.1-1.5 0-4.7.5a66.3 66.3 0 0 1-5.5.8c-1.6.4-8.9.8-12 .8-1.7 0-2.4.1-2.6.4-.2.2-.3 1.5-.3 3.4a584.5 584.5 0 0 1 .1 7.3l.2 2.5 1-.2 6.4-.2h.9l-1 .5c-.7.2-2.3.5-3.8.6-3.8.4-3.8.4-3.6 2.4l.1 1.1 2.3-.2c2.4-.2 3.2-.2 4.8-.1l2.8-.3c2.1-.5 2.7-.4 2.2.2-.3.4-.2.4 1 .3 1-.1 1.4 0 1.6.2.2.2.2.4-.3.6-.8.3-5 1-10.2 1.8-3.8.5-4 .6-4.7 1.7-.6 1.3-.8 1.2 3.9.6zm8-9.1c0-.4 0-1.2.3-2 .2-.7.4-2 .4-3 0-2.3.6-5.9 1-6l.6.1a80 80 0 0 1-1.1 11c-.4.6-1 .6-1.2-.1zm-18.5 4.8c1.5 0 3-.2 3.2-.3.7-.3 1.4-2.2 1-2.7-.2-.2-1.5-.2-5.3 0-5.5.3-6.5.2-5.2-.8.6-.5.7-.6.5-2.1-.5-6.5-.6-8-.6-10 0-2.3 0-2.3-.8-2.4a316.3 316.3 0 0 1-25.5-.8l-.9-.1v1.2c0 .6.3 1.8.5 2.6a7 7 0 0 1 .3 3.4v2c.6.4 7 1 12.5 1.3 7 .3 8.3.4 8.3.9 0 .4-.9.6-2.7.6-1.4 0-1.6.1-1.9.7-.3.8-1.1.9-1.4.1 0-.3-.3-.6-.6-.7a76 76 0 0 0-10.5-1l-3.5-.2v1.6c0 1 0 1.7.3 1.8 1 .6 15 1.5 18.5 1.3 2.6-.3 6.3.1 6.3.6v.4l-5.6.2c-5.3.2-12.9 0-16.9-.5-2.1-.3-2.4-.2-2.2.4 0 .2.7.4 1.9.5 1 0 3 .3 4.7.5l6 .6c2.9 0 4.3.2 8.4.9h11.2zm36.8-.1.8-1c.1-.4.5-.7.8-.7.9-.1 1.1-.6 1.2-2 .1-1.3 0-1.5-1.2-1.9-.4-.1-.4-.2-.1-.6l1-.8c.8-.3 1.9-1.7 1.9-2.4 0-.5-1-.4-2.1.3-.9.4-1.2.8-1.8 2.4l-1.1 3c-.6 1.5-1 3.4-.7 3.8.2.4.7.3 1.3-.1zm-3-2.8c0-.7.3-1.6.6-2 .8-1.5.5-2.6-.4-1.5-.6.6-.8 1.7-1 4.3 0 1.8 0 2 .3 1.3l.4-2.1zm-73.8-.3c.4-.7.4-.7-.1-1l-2.6-.6c-2.6-.4-5-1-7.2-1.6l-1.8-.5v-1.1c.1-1 .1-1-1.1-1.5-.7-.3-1.9-.6-2.5-.6-1.2 0-1.3 0-1.4.5 0 .5.1.7 1 1 1.9.8 2.1 1 2.2 1.8v.8l2.3.2c2.4.1 2.8.4 2.5 1.7 0 .5 0 1 .3 1.1.2.2 1.6.4 3.2.4l3.8.1c.8 0 1 0 1.4-.7zm5.5 0c0-.1-.4-.3-1-.3-.7 0-.9.1-.6.3.5.3 1.6.3 1.6 0zm77.5-.3c.5-.2 1.3-.9 2-1.9 1.4-1.8 1.8-2.6 1.4-3.1-.1-.3-.4-.2-1.7.4-1.1.6-1.6 1-1.8 1.7l-.8 1.8c-.3.5-.4 1-.3 1.1.2.4.2.4 1.2 0zm-39.3-1c.5-.1.8-.3.7-.6l-.2-2.4a28.4 28.4 0 0 1-.2-6.4c.2-2.5.2-3.6 0-4.2l-.4-.8-4 .2c-2.3.1-4.2.3-4.3.4v1l.2 6.8c0 3.2.1 6 .3 6.2a32.8 32.8 0 0 0 8-.2zm-63.4-.6c.8-.5.6-.6-1-.9-.8-.1-1 0-1.2.3-.3.9 1 1.2 2.2.6zm25.6-.6a5 5 0 0 0 0-1.8c-.2-1-.4-1.1-1.2-1.4-1.6-.4-1.6-1.4 0-1.5h1l-.2-1.7c0-.8-.3-2.2-.5-3l-.8-2.7c-.4-1.6-.8-1.9-2.5-2-1.6 0-5.3-.5-9-1a9.3 9.3 0 0 0-2.9-.2c0 .2.1 1 .5 2 .6 1.5.8 2.6 1 5 0 1.8.2 3.5.3 3.7.1.3.6.5 1.4.6l2 .4c1.4.4 1.7.4 1.7-.4 0-.7 0-.8 1.1-.8 1.7 0 3 .6 2.6 1.1-.1.2-.7.4-1.3.4-1 0-1.2.2-.7.7.6.6-1.1.7-4.4.1-3.2-.5-4.1-.4-3.3.4.4.4 2.8 1 8 2l3.2.6 2.2.1c1.6 0 1.7 0 1.8-.6zm84.3-3.5c0-.6 0-.6-.4-.2l-.4.6c0 .2.2.3.4.3s.4-.2.4-.7zm-4.7-.5c1.2-.5 1.5-.8 2.1-2 .7-1.4.7-2.3 0-2.3a8 8 0 0 0-3.4 2.3c-.7 1-.9 2.7-.3 2.7l1.6-.7zm-9-1.6c.5-.8 1-2.4 1.2-3.4l.6-2.2c.5-1 1.3-3.7 1.3-4.5 0-.8-.5-1.2-1.1-.8l-1 .2c-1.5 0-2.7 2.8-2.7 6.7 0 1 0 2.4-.2 3-.6 3 .6 3.7 2 1zm-95.6.6c0-.2-.4-.6-.8-.8-.8-.5-1-1.4-.4-1.6.6-.3.5-2-.3-3.4-.5-1-.6-1.6-.6-3.2 0-2-.4-3-1.2-3-.2 0-.6-.6-.8-1.2-.4-1-.7-1.3-1.5-1.6-1-.5-2-.3-1.7.2l.4 2.4.8 3.6.8 3a74 74 0 0 0 1.2 5.2l1.2.1 1.6.4c.6.4 1.3.3 1.3-.1zm6.6-.8-.8-2.9c-.6-1.5-.9-3.1-1-4.4-.1-3-.1-3-1.5-3.5-.7-.3-1.4-.4-1.5-.3-.3.2-.2 1.1.4 4 .2 1 .4 2.5.4 3.4 0 1.8.2 2 1.7 2.5.7.2 1 .5 1.2 1 .1.6 1.1.8 1.1.2zm92.7 0c1.3-.4 1.6-.8 2.2-2.8l1-3.6c1.9-5.5 1.6-6.5-1.3-5-.7.2-1.2.6-1.2.7l.7 1c.8.7.8 1.2 0 1.8-.8.6-1.4 2-2.2 5-.9 3.6-1 3.5.8 2.9zm-105.2-1.2c.2-.8-1.2-7.7-1.6-8.2-.7-.8-1 4.8-.3 6.6.8 2.3 1.7 3 2 1.6zm112.3-2.4c1-.7 2-3.3 2.3-5.8 0-.8.3-1.8.6-2.2.7-1 .6-1.4-.3-1.2a9 9 0 0 1-1.5.2c-.6 0-.8.3-1.2 1.9a58 58 0 0 1-1.1 3.6c-.5 1.5-1 3.1-1 3.6 0 .7.1.7.8.6l1.4-.7zm4.4.2c-.1-.2-.2-.1-.2.2 0 .3 0 .4.2.3v-.5zm.5-1c0-.3-.1-.2-.2.1 0 .3 0 .5.2.4v-.5zm224.5.4h-1.3H559.1zm-217.9-.8c.4-.3.3-.4-.2-.4-.3 0-.7.2-1 .4-.3.4-.3.4.2.4.4 0 .8-.2 1-.4zm213.7-.3h-1.3c-.4 0-.2.1.6.1.7 0 1 0 .7-.1zm-2.3-.6c-.6-.4-3.3-1.3-4.6-1.5l-1.5-.5a260.1 260.1 0 0 1-15.3-4.4l-2.6-.6a325.5 325.5 0 0 1-16-4.1h-.8l.8.4c1 .5 4.9 1.8 9.4 3a165.6 165.6 0 0 1 8.9 2.6 374.2 374.2 0 0 1 8.8 2.5 178.3 178.3 0 0 0 12.3 2.8c.9 0 1 0 .6-.2zm-281.1-3.2c0-.1-.3-.3-.7-.3-.4 0-.7.2-.7.3 0 .2.3.3.7.3.4 0 .7-.1.7-.3zm22.3-.2c10.4-.6 16.6-1.3 24-3 3.3-.8 3.7-1 3.7-1.4 0-.6.9-1.2 1.6-1.2.2 0 1-.5 2-1.2l1.8-1.2c.2 0 .4-.1.4-.3 0-.1.2-.2.6-.2.4 0 .5 0 .2-.3-.3-.1-.7 0-1.1.2-.8.4-2.2.4-3 .1-.3-.1-1 0-1.7.2s-2.4.5-3.8.6c-1.3.1-3.4.4-4.5.7l-3.7.5c-2.4.2-2.5 0-1.7-2.6l1.6-5.4.1.7c0 .7-.1 2.1-.4 3.2-.3 1.5-.3 2 0 2.1.4.3 3.2 0 4-.3l1.6-.2c1.4 0 1.5-.3.5-1.3-.4-.4-.6-.5-.6-.3s-.2.6-.5.8c-.4.4-.6.4-.8.2-.4-.4-.4-2 0-3 .3-1 1-4 1.1-5.2a35.3 35.3 0 0 1 1.2-7.2l.4-3 .7-3.5.4-5.4c.2-2.8.3-3.9.5-3.9.4 0 .3 3.8-.2 8a175.1 175.1 0 0 0-.8 7.2 16 16 0 0 0-.4 2.7s.3 0 .6-.3a60.2 60.2 0 0 0 1.7-10.7c0-1 .3-3 .6-4.4.3-1.4.5-3 .5-3.7 0-1 0-1.2-.7-1.2-.9-.1-.9.2-.4-8a766.8 766.8 0 0 0 .6-13.4c-.2-.2-.8-.2-3.2 0l-3.5.7c-.2 0-.8 0-1.2-.3a8 8 0 0 0-2-.5c-1.2-.2-1.5-.1-2 .3-.5.6-.6.8-.6 4.1v4.8c0 .7 0 2.4-.2 3.7v4.6c-.6 1.3-1.3 5.7-1.4 7.2a151.4 151.4 0 0 1-2.5 20.2l-.8 4c-.2.5-.4 1.4-.4 2 0 .5 0 1.3-.2 1.8-.2.6-.4 1.4-.4 2-.2 1.5-.6 2.1-1.1 1.7-.5-.3-.3-1.2.6-4.3.3-1.2.6-2.7.6-3.4l.3-2c.2-.4.4-2 .5-3.7l.6-5.7c.6-3.4 1-7.7 1.8-17.6l.5-6.4c.7-7 1-12.2.9-12.6-.1-.3-.4-.4-1.6-.2-2.2.3-7.4.6-11.6.9-2.9.1-3.9.2-4.2.5-.5.6-1 7.2-1 15.1 0 3.6-.1 9.6-.4 13.4-.5 7.5-.5 10.4-.3 12.4 0 1.3 0 1.3-.6 1.3s-.6 0-.7-2.5l-.1-4.2.1-13.8c.1-8.9.3-12.7.6-14.6.4-3 .4-5.5-.1-6.1-.3-.3-.9-.4-2.1-.4-2.8 0-2.7-.6-2.7 10 0 5-.2 9.4-.3 9.6-.2.3-.1 1 .1 1.6.2.6.3 1.2.2 1.3-.4.3-.8 2.2-.9 4.5 0 2.4-.3 3.4-1 3.4-.2 0-.9-5.7-.8-7.7a224 224 0 0 1 .7-17.5c.1-3.7 0-5-.2-5.2l-2.2-.4c-1 0-2.3-.3-3-.5-.6-.3-1.7-.5-2.4-.5-.8 0-2.3-.2-3.4-.5a22.6 22.6 0 0 0-5.8-.8 29499.1 29499.1 0 0 1-10.9-1c-2.9 0-3.9-.2-5-.7a13 13 0 0 0-4.8-.8l-3.2-.2v.8l.4 2.3c.4 1.3.8 6 1.6 16.7.1 1.2.4 3 .7 4a72.1 72.1 0 0 1 2.6 16.5l.7 6.7c.6 5.3.9 8.5.7 8.8-.1.5-1 .7-1.5.4-.6-.5-.7-1.4-1.6-11.4-.2-2.8-.7-5.9-1-7.4-.8-2.9-1.3-6.6-1.8-11.4-.1-2-.4-3.7-.7-4.4-.8-1.7-.9-2-1.1-8.3a131.6 131.6 0 0 0-1-11.8c-.2-1.5-.2-1.5-1.1-1.8l-3.5-.4a29 29 0 0 1-4.5-.8c-1-.3-3.4-.7-5.1-1-5.6-.7-6.9-1-7.8-1.5-.8-.5-1.5-.7-3.5-.8a52 52 0 0 1-5.1-.7l-5-.6a12 12 0 0 1-3-.6L194 194l-.8.5c-.8.9-.7 2.3 1 9.4a98.9 98.9 0 0 1 1.8 9.1 115.4 115.4 0 0 1 1.4 6.4l.7 2.5a24 24 0 0 0 1.6 4.6c.3.7.7 2.3.8 3.7.5 3.6.8 5 1.6 6.8.4.8 1 2 1.2 2.7.3.6.6 1.8.8 2.7.7 4.1 1.8 6.6 2.8 6.6.2 0 .4.3.5.7l.7 1.6c.3.4.5 1 .5 1.2 0 .3.6 1 1.4 1.6.8.6 1.6 1.4 1.8 1.8.6 1 4.1 1.8 4.6 1 0 0-.2-1.3-.7-2.6-1-3-2.2-9.8-2-10.4.1-.4.3-.4.7-.2.6.3.6.5 1.3 4.1.3 1.6.8 3.6 1.2 4.5l1.2 3.4c.3 1 .7 1.8.9 2a9 9 0 0 0 2.1.6l4 1a22 22 0 0 0 7.8 1c1.4-.2 2 0 3.3.3.8.3 3 .7 4.9 1 1.8.2 3.7.5 4.3.7.5.1 2.6.4 4.7.5 2.1 0 4.2.3 4.6.5.8.3 1 1.2.3 1.4-.4.2-6.8-.2-9-.6-3.4-.6-4.8-.6-5.5-.1-.5.3-1 .4-1.6.3a193 193 0 0 1-15.6-3.3 62.2 62.2 0 0 1-8.5-2.2l-2.2-.4c-.5-.2-.6-.1-.5.2.2.7 2.2 2 4.3 2.7a41 41 0 0 0 12.4 3.5l3.8.6c2.3.5 8.5 1.1 12.8 1.2 4.4.2 5.8.4 5.8 1.1 0 .2-.4.4-.8.5-.5.1-.8.3-.8.4 0 .4 1 .6 3.7.7l6.6.3c5.3.4 9 .4 9 0l-1.5-.3H263c-2.8-.1-4.2-.5-4.2-1.1 0-.5.7-.7 2.9-.5l4.6.2c12 .7 13.4.8 13.4 1.3 0 1.1.4 1.1 14.1.5zm-9.1-3c-.4-.7.2-1 2.8-1 4-.1 5.3 0 5.5.4.2.6-.6.8-4.4 1-3.5.2-3.6.2-3.9-.3zm-24-1.6c-1.7-.2-1.8-.3-1.5-1 .1-.6.1-.6 5-.5l5.3.4c.7.2.8.8.2 1-.7.3-7.4.4-9 .1zm21.3.1-2.8-.2c-.8-.2-.8-.8.1-1 1.6-.3 10.9-.3 11.4 0 .2.2.2.4 0 .6-.1.3-.8.4-2.5.4l-3.2.2h-3zm-6.7-4.7c-.5-.5-.5-.3 0-3.2.4-2 .4-2.9.1-6a25 25 0 0 1-.2-4.5c-.4-1-.6-7.3-.3-7.7.2-.3.4-.3.7-.1.2.1.3.4.2.5v.6c.2.2.4 2.5.5 5 0 2.7.2 5 .3 5.4.2.7.4 3.6.4 5.6 0 2.2.4 2.1.6-.1l.3-3.6c.2-1.7-.2-7-.7-8.2l-.2-3a12 12 0 0 0-.3-2.6c-.4-.7-.5-3-.1-3.5.3-.5.3-.5.6 0 .2.3.4 1.5.4 2.7l.3 2.9.3 3.4.4 3c.1 0 .3 2.7.4 5.8.2 5 .1 5.6-.3 5.9-.3.3-.5.3-.9 0-.4-.2-.5-.1-.7.7-.2 1.4-1 1.8-1.8 1zm35.1-8.2.5-3.2.5-5 .6-6.3c.3-1.5.6-4.5.7-6.6.2-2.2.4-4.8.6-5.7l.5-6.4c.2-3.3.4-4.7.7-5 .2-.3.4-.3.6 0 .3.1.3.5 0 1.4-.2.7-.3 1.4-.2 1.6.2.3 0 3.5-.9 13.4 0 1.7-.3 5-.5 7.3a35 35 0 0 1-1 7.8c-.2.5-.3 2.1-.3 3.5 0 2.3 0 2.6-.7 3.3l-.6 1.2c0 .2-.2.4-.3.4-.2 0-.3-.5-.2-1.7zm-81.9-9.5v-.5c.4-.2.6.2.4.6-.2.3-.3.2-.4 0zm-16.7-1.8c-.2-.3-.4-1.1-.4-1.9 0-2.1-.4-4-1.7-9a65.3 65.3 0 0 1-1.6-7.5c-.4-1.5-.2-2.2.6-1.7.4.2.6 1 1.4 4.7l.5 2.2a67 67 0 0 1 2 9.4c.6 3 .6 4.2 0 4.3-.2 0-.6-.1-.8-.5zm15.6-.5v-2c0-1-.2-2.7-.4-3.8a119 119 0 0 1-1.2-8 127.4 127.4 0 0 0-1.5-9.8 291.7 291.7 0 0 0-1-8.4c0-1.6-.4-3.5-.6-4-.4-1.3-.2-2.9.5-2.9.5 0 .6.6.5 3.2 0 1.2 0 2.1.2 2.1l.2.4.4 1.1c.2.4.4 1.7.5 2.8a89.3 89.3 0 0 0 1.2 8.7 200.7 200.7 0 0 0 1.5 11l1 8.4c.2.7.1 1.1-.1 1.3-.6.3-1 .3-1.2-.1zm-21.8-6-.6-3.1c-.3-2.2-.2-2.5.1-2.9.5-.4.4-.7 1.2 4.8.2 1 .2 1.5 0 1.7-.3.2-.5 0-.7-.5zm-1-9.2c-.5-.5-1.2-4.7-1-5.3.3-.7.7.2.5 1v.8c.4 0 1 2.8.9 3.5 0 .3-.1.3-.5 0zm2.7-8.3c-.4-2.2.1-4 .6-2.2.4 1.5.4 3 0 3-.2 0-.5-.4-.6-.8zm-4-1v-.3c.1.3.1.7 0 .8v-.4zm-.6-2c0-.5 0-.6.1-.4.1.3.1.6 0 .8v-.4zm4-2.5c-.4-1.5-1.2-12-1-12.8.2-.8.7-1 1.1-.4a294.6 294.6 0 0 0 .8 11.5c.1 2.4.1 2.7-.3 2.7-.2 0-.5-.4-.6-1zm-4.7-.6v-.9c.3-.6 1 0 1 .8s-.8.9-1 .1zm.2-3c0-.4 0-.4.1-.2v.5c-.1 0-.2 0-.1-.4zm142.6 61.8a13 13 0 0 1 6.6-.9c1.4.4 1.2.4 7.5-.8l3.1-.5a3 3 0 0 0 1.3-.4c.6-.3.4-.4-2.3-.3l-7.5.4c-8.5.6-12.3 1.4-11.4 2.6.4.5 1 .5 2.7-.1zm-95.6-.8c0-.4-.6-.5-2.7-.7-2.2-.2-2.8.1-1 .6 1.2.3 3.7.4 3.7 0zm-12-1.6h-1c-.3.1-.1.2.5.2.5 0 .8 0 .6-.2zm101.4-.2c.8-.4 1.2-1.1 1.5-3 .2-.9.1-1-.2-1-.7 0-2.3.7-2.3 1 0 1-.2 2-.4 2.7-.2.9.2 1 1.4.3zm-105.4-.1c.1-.2-.2-.3-.8-.3-.8 0-1 .1-.6.3.5.3 1.2.3 1.4 0zm91.8-2.3h-.8c-.3 0-.1.1.3.1h.5zm26.3 0h-1c-.4 0-.2.1.4.1.6 0 .8 0 .6-.1zm8.2-.8c3.2-.4 3.5-.4 4.1 0 .6.4.7.4 1.4 0 1-.6 2.6-1 9-1.5l2-.4c0-.2.2-.3.6-.4h-5.1c-4.4 0-6.4.2-8.8.6l-7.4 1.4c-2.3.3-3 .5-2.6.8.4.2 2 .1 6.8-.5zm-148.9-1.4-.3-.4c-.1 0-.2 0-.2.3 0 .2 0 .4.2.4s.3-.1.3-.3zm122.5-.2 2.4-.7c2.2-1 5.7-3.6 5-4-.1 0-2.3.9-3 1.4-.2.2-.8.4-1.4.6l-1.4.7-1.9 1c-.8.4-1.6 1-1.8 1.2-.4.3-.3.3.2.2a18 18 0 0 1 1.9-.4zm-163-1c1-.4 6.9-4.2 7.2-4.7.1-.1 0-.4-.2-.7-.3-.2-.7-.3-1.8-.2l-3.8.4c-2.6 0-11.1 1.2-12.7 1.6-.5 0-1 .3-1 .5-.2.4 1 1.3 2.2 1.8.7.2 1.5.6 1.9.9l1.2.6c.9.3 6 0 7-.3zm178.1-.5c1.3-.3 1.5-2.5.3-3-.8-.2-1.3.2-2.2 1.5-1.5 2-1.5 2 0 1.8l2-.3zm5-1c1-.7 1.9-1 4.6-1.6a13 13 0 0 0 2-.5c.7-.3.7-1 0-1.3-.7-.4-5 0-5.8.6-.4.3-1 .5-1.3.5-1.7 0-2.7 1-2.3 2.5.2.6.3.7 1 .5.5 0 1.3-.4 1.8-.8zm6.6.5c.4-.5.4-.5-1.7-.4-.7 0-1.6.2-2 .4-.6.3-.5.3 1.4.3 1.5 0 2 0 2.3-.3zm-38.9-1c.3-.4.8-.8 1-.8.3 0 1.4-1.2 1.9-2.3.5-1.2.5-1.3 1.3-10.2l.8-5.2c.3-1.5.5-3.6.5-5s.2-3.5.5-4.8c.2-1.2.5-3 .5-4l.4-5 .4-6.7c0-2 .3-4.2.4-4.8.1-.6.3-2.3.3-3.9v-2.8h-2.2c-1.1 0-2.3 0-2.6.2-1.2.7-1.6 2.5-1.9 9.2l-.4 7.7c-.1 2 0 2.5.3 3 .5.7.6 5.5.1 7.8-.2 1.4-.7 4.4-1 7.5-.6 5.2-.8 7-1.2 8.8-.8 4-1 6.2-.7 7.1.5 1.3.4 2.8-.2 4l-.6 1h1c.7 0 1-.2 1.4-.8zm43.4.5c1.5-.5 1.4-1-.2-1-1.5 0-2.9.4-3 1-.2.4 1.7.5 3.2 0zm-158.6-2.1c-.3-1.6-.8-1.9-4.4-2-2.2 0-3.5 0-3.9.3-.6.3-.6.3.4.8 1.3.5 4.4 1.4 5.7 1.6.5 0 1.2.4 1.4.7.5.5.5.5.8 0v-1.4zm121 1c0-.3-.2-.4-.6-.4-.4 0-.7.1-.7.4 0 .2.3.4.7.4.4 0 .6-.2.6-.4zm-10.8-1.8c.4-.2.8-2.7.8-4.6 0-1.2-.1-1.8-.2-1.5 0 .4-.3 1-.5 1.2-.2.4-.3 1-.3 1.7l-.1 2.7v1.2c0-.3.2-.6.3-.7zm13 .8c.3-.2.5-1.2.6-2.2.2-2 .8-4.2 1.4-5.7.3-.5.5-2.2.7-4 0-1.6.3-3.7.4-4.5.7-3.6 1-6 .9-7 0-.7.1-1.9.7-3.6a65 65 0 0 0 1.9-14.6l.5-8.8c.5-6.8.5-7.1 0-7a144.5 144.5 0 0 1-5.2 1l.2 1.6c.4 2.3.3 5.3-.2 6.8a16 16 0 0 0-.5 3.6 129 129 0 0 1-2.1 23.7 205.2 205.2 0 0 1-1.3 11.4l-.6 5.2c-.1 1.3 0 2.4.5 2.1h.7c.5.2.6.5.6 1.3 0 1 .3 1.3.9.7zm15-1c.9-.6 1-1.3.5-1.8s-.9-.4-1.9.5c-1.9 1.6-.5 3 1.4 1.4zm21.3.5c1.6-.8.2-1.4-2.3-1-1.1 0-1.4.2-1.4.7-.1.5 0 .6 1.5.6.8 0 1.9-.2 2.2-.3zm5.6-.6 1.6-.4-1.1-.2c-1.5-.2-3.7 0-4 .6 0 .5 1.3.5 3.5 0zm-210.9-.7c2-.3 7.6-.8 12.2-1a46 46 0 0 0 6.6-.7l.5-.1c.1-.2.7-.3 1.4-.3.8 0 1.2-.1 1.2-.4 0-.3-1.3-.3-6.7-.4-3.6 0-6.7 0-6.8-.2-.2 0-.3-.3-.3-.6 0-.5.2-.5 1.5-.6a1480.8 1480.8 0 0 0 26.2-.7c.5-.3.9-.4 2.4-.1 1.9.3 4.3 0 4.3-.5l-.8-1.8c-.4-.8-.8-1.7-.8-2 0-.2-.2-.5-.4-.6-.6-.2-6.3.8-9.4 1.7l-2.8.5-2.7.3c-1 .2-2.3.3-4.5 0a243.4 243.4 0 0 0-27.2.2c-.3.3.2.4 3.4.6 5.3.5 8.3 1 8.7 1.3.5.5-.1 1.6-1.2 2-1.3.6-2.8.6-6.3.2-3.1-.3-17.3-.2-19.4.2l-1 .2 1.1.6c1.9 1 5.7 1.6 10.9 1.8 3.1.1 4.9.3 5.3.6.7.3 1.4.3 4.6-.2zm172.8-1.4c.3-1 .4-1.4.2-1.6-.7-.7-1.7 1.6-1.2 3 .2.7.4.4 1-1.4zm16.7 0c1-.4.7-1.1-.5-1.2-.5 0-1.2 0-1.4.2-.4.2-.4.3.1.8.7.6.8.6 1.8.2zm-150.5-.5c3.4-.2 4.6-.4 4.6-.7 0-.3-1.4-.3-6.8-.3-4.2 0-6.8 0-6.9.2-.2.4-2.1.4-2.3 0 0-.2-.7-.3-2.2-.2h-1l1.2.3 2.6.4a7 7 0 0 1 2 .5c.6.3 1.3.4 2.5.3l6.3-.5zm137-2.3.4-2.7c0-.4 0-.8.2-1 .2 0 .3-.5.3-1.1 0-.6.2-1.4.5-2 .3-.4.6-1.4.6-2a45.6 45.6 0 0 0 2-10.1l.6-3.9a50 50 0 0 0 1-7.3c0-1.1.8-6.5 1.4-9.4.1-.7.3-2.2.3-3.4 0-1 0-3 .2-4.2.3-2.4 0-4.8-.6-5.3s-4.1.2-4.2.7l-.1 5.9c-.3 17-.3 16.5-.7 17.5a7 7 0 0 0-.5 2.4c0 2-.4 3.6-1.2 4.7-.5.7-.7 1.6-1 4l-.8 5c-.6 3-.7 3.8-1 7.3 0 1.7-.2 3.4-.3 3.7-.2.5-.1.6.2.6.7 0 1.2-.9 1.8-3.3.5-2.4.9-3.1 1.3-2.9.3.2.3 2 0 2.1l-.4 1.4-.8 5c-.2.9-.2 1 .1.6.3-.2.6-1.2.8-2.3zm23.8 1.7c-.6-.3-2.3 0-2.1.5.1.2.4.3 1.3 0 1-.2 1.1-.3.8-.5zm5.4 0c1.2-.5-.3-1-2.3-.5-.5 0-.9.3-.9.5 0 .5 2.4.5 3.2 0zm-24.7-1.4c.6-1 2-8.8 2-10.7 0-1.6.1-2.2 1.5-5 .3-.7.7-1.9.7-2.7 0-.8.3-1.8.5-2.2.2-.5.6-1.8.8-3 .5-2.7 1.4-5 1.6-4.3.2.8 1.1.7 1.6-.2.7-1.4 1.5-9 2-18.3.2-5.9.1-7.8-.4-7.4-.3.3-.4 1-.4 3.3 0 3.3-.2 5-.6 4.7-.2 0-.2-1.5 0-3.9.1-3.6 0-3.8-.4-4-.4-.3-.8-.2-1.6.2-.6.3-1.2.7-1.3.9-.2.2-.5 2-.6 4.1l-.5 4.9a77.8 77.8 0 0 1-2 16.5 402.5 402.5 0 0 0-3.3 17.6 149 149 0 0 0-1.4 8.3c-.5 2.2-.2 2.7.9 1.9l.9-.7zm7.3-31.4c0-.4 0-.7.2-.6.1.1.2.4 0 .7-.1.7-.2.7-.2-.1zm.4-1.3c-.2-.4.1-2.9.4-2.4v1.6c-.2.9-.3 1.1-.4.8zm.5-3.2v-1.2l.3-1v1.3c0 1.2 0 1.6-.3 1zm.5-3.8c-.1-.2 0-.5.1-.7.2-.2.3 0 .3.4 0 .8-.2 1-.4.3zm130.3 39.4c0-.3-2-.8-2.8-.8-1 0-.5.4.7.7 1.1.3 2.1.4 2.1.1zm-128.8-2.2c.5-.5.7-.5 1-.3.7.5 3.5.4 4.1 0 .3-.2.4-.5.3-.8-.2-.6-3.6-.6-4.2 0-.5.4-1 .5-1 .1s-1-.6-1.8-.4c-.7.1-1.3 1-1.3 1.7 0 .2.5.3 1.1.3 1 0 1.4-.2 1.8-.6zm9.8-.8v-.9c-.2-.4-.5-.5-1.5-.6-1.4 0-2 .3-2 1.1.1.4.4.6 1 .7.9.3 2.3 0 2.5-.3zm5.5-.2c1.2-1.2.1-2.9-1.2-2a3 3 0 0 1-1.4.3c-.7 0-1 .2-1.5.7-1 1.2-.6 1.5 1.6 1.5 1.6 0 2 0 2.5-.5zm5.5.3c.3-.2.9-1.4.9-2 0-.5-3.2-.8-4.5-.4-.5.2-.6.4-.6 1.2l.2 1.2c.2.3 3.6.2 4 0zm-12.2-5.1c1.3-.4 1.7-.9 1.7-2.1 0-.6.1-1.2.3-1.4.3-.2.3-.5-.1-1.3-.5-1-.5-1-2-1-1.3 0-1.4 0-1.8.8-.5 1-.5 4.5 0 5 .3.4.5.4 1.9 0zm-157.9-.2-.4-1.4a27 27 0 0 1-1.1-5.6c-.2-1-.4-2-.6-2.3a181.3 181.3 0 0 0-2.4-7c-.3-.8-.6-.9-1.3 0-.5.5-.5 1-.5 7.5l.1 7.6c.2.4.6.6 1.8 1 1.8.4 4.4.5 4.4.2zm153.3-.6.6-1.8c.4-1.3.4-1.6 0-2.1-.2-.6-.5-.7-1.3-.7-.5 0-1.1.2-1.3.4-.5.3-.8 4.2-.4 4.7.3.3 2 0 2.4-.5zm-161.4 0 .7-.3v-8.7c0-7.6 0-8.7.4-9.5.5-1 .4-3.8-.4-7.4a81.7 81.7 0 0 1-1.3-7l-.4-2.3c0-.8-.3-2.1-.4-3-.3-1.7-.4-3-.5-6.2 0-1.5 0-2-.3-1.7a1116.2 1116.2 0 0 1-.9 43.6l-.2 2.8h1.3c.8 0 1.7-.1 2-.3zm-44.4-.8c.6-.5 1-2.4.7-2.7-.3-.3-3.5-1-3.8-.8-.3.2-.5 3-.2 3.6.3.5.5.5 1.7.4.7-.1 1.4-.3 1.6-.5zm197.2-1.8.6-1.7c.4-1 .8-2.8.8-3.4 0-.4 0-.8.2-.9.2 0 .3-.6.4-1.1l.4-2.7c.4-2 .2-2.9-.4-1.9a3 3 0 0 0-.3 1c0 .3-.2.6-.4.9-.3.2-.5 1.2-.6 2.3-.1 1.4-.4 2.2-.7 2.6-.4.5-.6 1.2-.6 2l-.3 2.7c-.2.8-.3 1.7-.2 2l.2.6.3-.6.6-1.8zm20.6 1.8c.4-.2.8-.4 1-.3.5.3 1.5-.2 1.7-1l.3-1 .3 1c.2.6.4.8 1 .8 1 0 1.7-.8 1.8-2.2.1-1 0-1.2-.5-1.6-1-.6-1.7-.3-2 .6-.1 1-.5.8-.9-.1-.2-.7-1.2-.9-1.8-.3-.2.2-.4.2-.8 0-.6-.4-1.9-.5-1.9-.1 0 .1-.4.2-1 .2h-1v1c.1 1.4.7 2 1.2 1.3.3-.4.3-.3.3.7l.2 1.4c.3.3 1.3.2 2-.4zm-212.3-.2c.4-.4.5-.7.2-2.3l-.4-3c0-1-.1-1.3-.6-1.5-1.1-.6-1.2-1.1-.3-1.6a2 2 0 0 0 1-1 172.7 172.7 0 0 0-.6-20.6c-.7-.5-1.7.3-1.9 1.4-.1 1-1.5 2.8-2 2.5-.4-.2-.3-1.4.2-2.2.7-1.1.3-1.6-1-1.6-1.8 0-2.8.2-3 .7l-.3 7c0 3.7-.2 8.3-.3 10.3-.2 4.5-.1 6 .3 6.5.2.2 1.1.4 2 .5 1.7.2 1.8.2 2.1-.6a68 68 0 0 0 0-13 11 11 0 0 1 0-4.5c.2-.3.3-.3.4.1a93.4 93.4 0 0 1 1.4 16.8c.1.8.3 1.1.8 1.3 1.1.4 1 1-.3 1.6-.6.3-.9.7-1.1 1.7-.6 1.8-.4 2 1.4 2 1.2 0 1.7-.1 2-.5zm222-1.1c.2-.2.5-.5.5-.8 0-.3 0-.5.2-.5s.3.2.3.5c0 .8 1 1.1 2.8.8 1.7-.3 2.5-1 2.5-2 0-.8-.5-1.2-1.6-1.2-.8 0-1 .2-1.2.6l-.2.5-.6-.5c-.7-.7-1.4-.7-1.6 0-.2.6-.6.6-.8 0-.1-.4-.4-.6-.7-.5-.3 0-1 0-1.4-.2-.5-.1-.8-.1-1 .2-.2.4-.3 3 0 3.2.3.3 2.2.2 2.7-.1zm-21.1-4.3c.3-.3.5-.7.4-1.3 0-.7.1-1 .6-1.5.6-.5.7-.5 1-.2.2.3.2.8.1 1.3-.2 1.3.3 1.8 1.7 1.6 1.4-.2 1.9-.6 2.2-1.8.3-1.6.3-2.7-.3-3.3-.4-.6-.6-.6-1.8-.4-.9.2-1.3.4-1.5.8l-.3.6-.8-.7c-1-.8-2.2-.7-2.5.2-.6 2-1 4.3-.9 4.6.2.5 1.4.6 2.1 0zm78.4-2.8c0-1.8 0-2.6-.2-2.2-.3 1-.3 5 0 5 .1 0 .2-1 .2-2.8zm-63.8 1 .3-1.2v1.2c.2 1.3.5 1.5 1.8 1.2.4 0 .7-.4 1-1.2l.2-1 .3.8c.2.4.5 1 .8 1.1.7.5 1-.2 1-2.2s-.4-2.6-1.4-2.3c-.3.1-1 0-1.5-.1-.6-.3-1-.3-1.5 0s-.8.3-1.3 0c-1-.4-1.6-.3-2.1.3-.5.5-.5.5-.8 0-.3-.2-.6-.3-1.2-.2l-1.5-.1c-1.2-.6-1.4 0-1 3.3.2 2 .5 2.2 1.3 1l.5-.7.1.7c.2.6.3.6 1.7.6.8 0 1.6 0 1.7.2.4.5 1.3-.3 1.6-1.4zm9-.9c-.1-2.2-.4-3-1-2.7-.4.3-.3 4.3.2 4.8.2.2.5.4.6.3.1 0 .2-1.2.1-2.4zm3.2 2.1c.5-.5-.4-1.3-1.1-1h-.8l-.2.7c0 .6.1.7 1 .7.4 0 1-.2 1.1-.4zm9.2-.1c2 0 2.8-.1 3-.4.4-.5.7-.5-5.7-.4-3.5 0-5 .1-5.2.3-.4.6.8.9 3 .7l5-.2zm-14.5-2.3c0-1.6 0-2-.3-2.1-.7-.3-.8 0-1 1.7 0 1.9.1 2.5.8 2.4.3-.1.4-.5.5-2zm23.8 1.8c1.7 0 2 0 1.6-.4-.5-.5-2.6-.6-2.6-.2 0 .2-.5.3-1.4.1-1.8-.2-3.1 0-2.5.5.2.1 1 .2 1.7.1l3.2-.1zM350 233a37 37 0 0 0 2.2-8.3c.3-1.3.8-2.8 1.1-3.4.3-.6.9-2.3 1.2-3.7l.8-3.5c.2-.4.3-2.2.3-4 0-1.7.2-3.9.4-4.8.4-1.8.5-5.6.1-7-.1-.7-.2-.8-.9-.8-1.2 0-1.6.7-1.8 2.7a1950 1950 0 0 0-1.1 12l-.8 6.7a114.3 114.3 0 0 1-2.4 15c.3.3 1-.3 1-1zm31.8 0c.4-.4.5-.8.5-3.2l.1-4.3v-2c-.3-.4-2.6-.7-2.8-.3-.1.1-.2 1.3-.2 2.7-.1 2.5-.1 2.5.7 3.2l.8.7-.6.7c-.7.7-.8 2-.2 2.6.5.6 1 .6 1.7 0zm6.5-.1c.3-.4.4-.7.2-1.5-.2-1.9-.5-2-2.2-2-2.4 0-2.8.2-3.1 1.7-.5 2-.3 2.1 2.7 2.2 1.5 0 2-.1 2.4-.4zm-18.9-4 .5-.9c.1-.3.3-.1.5.4.3.6.6.8 1.2.7 1.4 0 1.5-.4 1.4-3.7v-3.5c0-.4.3-.5.8-.5.6 0 .8-.2 1-.7.5-1 .4-2 0-2.7-.4-.5-.7-.6-2.1-.6-1 0-1.8.2-2 .3-.2.3-.5.2-1 0s-1.2-.3-1.7-.2h-.9v3.8c.2 4 0 4.7-1 5-.5.2-1.2 2-.9 2.5l1.3.2c.5 0 1 0 1.2.2.3.3 1.3.1 1.7-.3zm-5.1-.3c.1-.3.3-2.8.4-5.7.2-4.7.2-5.2-.2-5.4-.3 0-.9.1-1.5.6-1.2.8-1.4.8-2 .1-.6-.6-1.3-.7-1.7 0-.3.3-.4 1.4-.4 4.8 0 5.8 0 5.8 1 5.8 1.2 0 1.4-.3 1.8-3.9l.4-2.6.3 3.1.5 3.4c.2.4 1.1.3 1.4-.2zm10.7-1 .2-2.6c0-1.2 0-1.5-.6-1.8-1-.5-1.1-.2-1.2 2.6 0 2.1 0 2.7.3 3 .7.4 1.1 0 1.3-1.1zm-17.9.5c.2-.4.4-2.4.5-4.3 0-2 .2-4 .3-4.7.1-.9.1-1-.2-.7-.6.5-2.6 8-2.6 9.7 0 .6 0 .7.9.7.7 0 .9-.1 1.1-.7zm19.7-.6c.3-2.3.3-4.2-.2-4.4-.8-.3-.9.2-.9 3 0 2.5 0 2.7.5 2.7.3-.1.5-.5.6-1.3zm2 1v-2.8c-.2-2.1-.3-2.5-.7-2.4-.3 0-.4.5-.5 2.2v2.7c.2.6.8.8 1.2.3zm9-1c.4-.4.5-2.9 0-3.5-.2-.4-.8-.5-2-.5-2.2 0-2.5.3-2.3 2.5 0 .8.2 1.6.3 1.8.2.4 3.5.3 4-.2zm4.2.2c.5 0 .7-.8.8-5 .2-5.4.2-5.3-1.7-5.3-1.2 0-1.7.1-2 .6-.5.4-.5.7-.2 2.7.2 1.2.2 2.4.2 2.6v2.3c.2 1.8.3 2 .9 2.2h2zm-4.2-8c-.1-1.9-.6-2.4-2-2.2-1 .2-1.4.9-1.4 2.4 0 1.2.4 1.5 1.5 1.7 1.7.3 2 0 2-1.8zm-209.8.7c0-.3-.2-.1-.2.3 0 .5 0 .7.2.5v-.8zm204.2.6c.2-.3.4-1 .4-1.7 0-1.2 0-1.3-.7-1.3-.4 0-.7.2-.9.8-.3.8-.8.8-.8 0 0-.3-.2-.2-.4.3-.5 1-.5 1.6 0 2 .4.4 1.9.4 2.4-.1zm-5-1.6c.1-.7 0-1-.3-1.5-.5-.5-.5-.5-.8.1-.5.8-.5 1.3-.1 2.2.2.6.3.7.6.4.2-.2.5-.7.6-1.2zm1.4 0c0-.6-.1-1-.4-1-.5 0-.7.5-.5 1.3.3 1 1 .8 1-.3zM178 218.3c0-.3-.2-.1-.2.3 0 .5 0 .7.2.5v-.8zm0-2.7c0-.2-.2 0-.2.4s0 .6.2.4v-.8zm202.2-1.8c0-1 0-1.2-.4-.9-.2.2-.4.8-.4 1.2 0 .7.1 1 .4 1 .3 0 .4-.4.4-1.3zm14.2-2.4c0-.2-.1-.1-.1.3v.5c.2-.2.2-.5.1-.8zm-238.7-7.3c-1-.6-2.3-.6-2 0 0 .2.5.4 1.4.4h1.4zm134.2-.4c5.3-.4 7.1-.7 6.7-1.2-.3-.4-1.6-.4-7.1-.4a55 55 0 0 0-7.9.3c-1 .3-1 .3-.3.5.4.1 1 .4 1.1.6.6.5 1.6.5 7.5.2zm-219.6-2h-.5.1c.3.1.5 0 .4 0zm252.1 0h-.5.5zm-47.6-1.1c.6-.4 1.5-.4 7.3-.3l7.6.3c2.3.3 18 .2 19.9 0 3-.5 7-.9 8.6-.9l3.5-.4c1.2-.3 2.6-.4 3.5-.3h3l4.5-.8c3.5-.5 4-.6 5.2-1 .5-.3 2-.6 3.3-.7 5.2-.5 6.7-.8 9.2-1.6l2.7-1 .3-1.1.2-1.4c-.3-.3-4 .4-6 1.3-.5.2-1.4.4-1.9.4-.4 0-2 .3-3.3.8a57.2 57.2 0 0 1-7.4 2c-1.1.3-2.8.7-3.8.8-.9 0-2.3.3-3.1.6-2.7.7-4.4.2-3.8-1 .2-.3.6-.6 1-.7a591.5 591.5 0 0 0 6.2-1l2.4-.4a66.5 66.5 0 0 0 8.3-2.4c1.3-.5 3-1 3.8-1.1.8-.1 1.8-.4 2.2-.6a4 4 0 0 1 1.2-.5 19.3 19.3 0 0 0 6.8-4c.4-.7 1.2-3.6 1.2-4.6 0-.3 0-.7-.2-.7-.3-.2-2.4.8-4.2 2l-1.3.7-.9.6-2.8 1.6c-2.4 1.2-2.8 1.5-2.6 1.8.2.3 2.9 0 3.6-.6.9-.6 1.2-.6 1.5 0 .2.4.2.6-.3 1.1-.6.6-2 .9-5.7 1.3l-3.9.8-3.3.7c-1.7.2-3 1-2.7 1.6.4 1-.5 1.2-6.8 1.2-3.3 0-6.7.1-7.7.3-1 .1-5.9.3-11.6.3-5.5 0-10 .1-10.3.3-.1 0-.3.3-.3.5 0 .6-.9.7-2.1.3a5 5 0 0 0-2.4-.3c-1 .2-1.3.1-1.9-.3-.8-.7-1.9-.7-2.9-.2-.4.3-1.5.4-3.4.4-1.5 0-3.7.2-4.8.4-1.7.4-3 .4-5.7.3a168.4 168.4 0 0 1-19.4-1.6l-8.7-.4c-7.2-.3-12.4-.8-18.3-1.7-2.2-.4-5.1-.7-6.5-.8-2.9-.2-4.8-.5-9-1.5l-5.6-.9a35 35 0 0 1-5.5-1l-5.7-1.4c-1-.2-1.5-.8-1.4-1.4.2-.7 1.4-.8 3.2-.3l3 .7c5.7 1 8.1 1.4 11.5 2.3a85.1 85.1 0 0 0 17.2 2.7l4.5.5a46 46 0 0 0 8.6.7l8.5.5 9.5.7c8 1 11.3 1.2 12.4.4.7-.5 1.3-.6 6.4-.6h10c10.6.2 11.5.2 11.6-.4 0-.3.4-.8.7-1.2.4-.3.7-1 .8-1.3a361.7 361.7 0 0 0-1-51.4V134c.1-1.6.2-1.7.7-1.4.5.3.5.5.4 1.8l.1 2.5c.6 2.9.8 6.1 1 15.4.3 7.9.4 10.2.7 10.8.3.6.4 1.8.3 7.5l-.3 11.5v5.8c.2 1 .2 1.5-.1 2.6-.4 1.2-.4 1.4-.1 1.7.2.2.5.2 1 0 .5-.3.6-.5.6-1.5 0-1.5.5-3.1 1-3 .1 0 .2.7.1 2 0 1.2 0 2 .3 2.3.2.3 1.2.4 5 .4 2.5 0 4.5 0 4.4-.2l-1.3-.2c-1.2 0-1.8-.6-1.3-1.3.3-.4 1-.4 3.8-.4 3.9 0 3.5.2 3.8-2.8l.8-14.4c0-3.1 0-3.2-.6-4-.7-.8-.7-.9-.4-1.7.2-.4.5-1.4.5-2.1a164.8 164.8 0 0 0-1.8-23.3 109.9 109.9 0 0 1-1.1-12c-.2-.3-1-.4-4.1-.2a988 988 0 0 1-14 .6c-2.5.1-3.3 0-4.1-.3-1-.4-1-.4-2 .3-.9.6-1.2.6-2.8.5-2.6-.1-2.6 0-2.9 5.4-.2 5.4-.3 8-.2 21.2a217 217 0 0 1 0 13.7c.2 1.1-.1 2.7-.7 2.7-.3 0-.3-.4-.3-1.5 0-.8 0-1.5.2-1.6a113.2 113.2 0 0 1-.2-9.2c0-6.7 0-7.1-.6-7.5-.5-.5-.5-.6-.3-5.1.3-6 .3-16.6 0-16.8-.1-.2-1.1-.3-2.1-.3l-3.5-.3a5 5 0 0 0-1.7-.2c-.1 0 0 .4.2.7.4.7.4 5 0 6.6-.7 2-1 7.8-.7 15.6v8.4c0 1-.2 1-.5.7l-.4-.6c0-.1-.3-.5-.7-.8l-.7-.5V155c0-3.5.2-7.4.3-8.7.2-1.7.1-3.6-.2-6.7l-.4-4.3.6-.4c.6-.5.6-.6.3-2.1l-.3-1.6h-3.5l-7.1.4a119.8 119.8 0 0 1-28.4-1.7c-1.8-.2-2 .3-2.3 3.5-.2 2.5-.3 2.8-.9 3.3l-.7.7.2 5.4c.1 3 .3 6.4.5 7.7.1 1.3.3 4.8.3 7.7a51.6 51.6 0 0 0 1 9.5l.5 4 .5 5.5.5 5.2c.4 2.4-.1 3.6-1 2.5-.1-.2-.5-2-.7-4.3A305 305 0 0 0 235 170l-1-8.4c-1-6.8-1.5-12-1.5-17.9 0-3.4 0-6.3-.2-6.5-.1-.3.1-3.2.5-5.1 0-.5.4-.8 1-1 .8-.3 1.2-1 .8-1.4-.3-.3-5.4-1.3-6.6-1.3-.8 0-1 0-1.3.9-.2.5-.4 1.2-.4 1.7l-.4 1.9a19 19 0 0 0-.5 6c0 2.6-.1 4.9-.2 5-.7.6-1.4-3-1.2-5.5l.3-4c.1-2 .4-3.5.7-4.4.6-1.5.5-2.6-.1-1.9-.2.2-.6 1-.7 1.7-.5 2-1.1 3.3-1.5 3.3-.4 0-.4-.3-.3-1.5l.4-3.1.1-1.7-2-.7-2.6-1c-.8-.3-1.3 0-1.3.5l-.4 1.4c-.3.5-.7 1.7-.9 2.7-.1 1-.6 2.1-.9 2.6-.5.8-.7 1.6-1 4.1a470 470 0 0 1-1.2 11.2c-.1 1.5-.6 2.2-1 1.6-.6-.8 1.3-17.1 2.6-22.4.7-2.9.6-3-1.6-3.3-.7 0-2.3-.6-3.6-1.1-1.8-.7-2.9-1-4.4-1l-2.6-.3c-.8-.2-1.8.8-2.2 2.3l-1 3.2c-1 3.6-1.3 5-1.5 6.6 0 1-.4 2.4-.6 3.2-.3.9-.7 3-1 4.7l-.6 4.5-1 11.5c-.2 3.6-.5 5.7-.8 6-.1.2-.6.3-1 .3-.6-.2-.6 0-.8 1.4-.2 1.5.3 6.8.6 7.3.2.3.7 9.3.6 11.4 0 2.3-.3 4-.7 4.2-.2.1-.4 0-.5-.2-.2-.5-1-.5-1 0s2.4 2.2 3 2.2c.2 0 .8.5 1.3 1s1.3 1.1 1.8 1.3a50 50 0 0 0 10.6 1.6c2.9 0 3.8.2 5 .7.9.4 2.5.8 3.7 1l4.6 1c1.5.3 3.9.7 6 .9a381.5 381.5 0 0 1 12.7 1.1c.9.4 1 .4 1.5-.1.4-.5.7-.6 1.7-.4 1.3.2 1.9.5 1.9 1 0 .4 1 .9 2.4 1.1 3 .6 23.9 1.6 26.4 1.3a5 5 0 0 0 1.8-.5zm3.1-10.9c-1.3-.3-1.5-1.3-.5-2.2.8-.5 2-.7 2.8-.2.4.2.5.5.5 1.2s-.1 1-.7 1.1a3 3 0 0 1-2 .1zm-48-3c-.1-.2-.3-1-.3-1.6 0-.7-.1-1.6-.3-1.9-.2-.3-.5-1.3-.6-2.3a82.3 82.3 0 0 1-2.1-22.6c.2-2.1.3-2.4.8-2.4s.5.2.6 1.9c.2 7.4 1.4 20.9 1.9 22.6.2.5.2 1.7.1 2.8-.1 1.3 0 2 .1 2 .3 0 .6 1.1.4 1.5-.2.2-.3.2-.5 0zm57.4-1.7c0-1 .7-1.4 1-.7.3.5-.1 1.6-.6 1.6-.2 0-.4-.3-.4-.9zm.3-3.3c-.2-.1-.3-.7 0-3.2l.3-3.5c0-.4 0-.4.4 0 .3.2.3 1 .3 3.2 0 3-.2 4-1 3.5zm-8.8-.7a131 131 0 0 1-.1-16c.3-.4.4-.4.5.4.2.7.3 5 .2 8.9l.1 3.9c.2 2.5.2 3-.2 3-.2.1-.5 0-.5-.2zm49.4 9.2c.4-.4.4-.8 0-3-.2-2-.2-3 .2-5 .2-1.5.3-4.7.4-8.3a57.9 57.9 0 0 1 .5-9.4l-.4-4.7a65 65 0 0 0-1-9.3c-.2-.7-.4-3-.5-5a63.3 63.3 0 0 0-1.7-13.7c0-1.1-.8-2.7-1.4-2.7-.3 0-1 0-1.8.2l-1.4.3.2 3.4a237 237 0 0 0 1.4 16.7l.7 5c.2 1 .3 4.1.3 7 0 4.4 0 5.5.4 5.8.3.5.4 2.1.4 11.5l.1 11.3c.2.2 1 .3 1.7.3 1.1 0 1.6 0 1.9-.4zm4.2-.9c1.3-.5 1.3-1 1.1-11.2a368.4 368.4 0 0 0-3.6-48.5c-.2-1-.3-1-1.2-1-1.6 0-1.8.2-1.5 1.7l.6 3.4.7 3.5.4 2.5c0 .6.2 1.3.4 1.5.3.4.4.7.1 2-.2 1.3-.2 2.4.1 5.4 1 8 1 11 1 20l-.2 14.6c0 5.3 0 5.7.5 6 .7.5.8.5 1.6.1zm5.6-1.9c.8-.5 1-1.6.4-1.8-.4-.1-.4-.5-.4-3.3l.1-3.2.4.2c.4.3.4-.3.4-5.6 0-3.3 0-6-.2-6-.3 0-.4-1.8-.8-10.3a135.8 135.8 0 0 0-1.1-12.9 33.2 33.2 0 0 0-1.1-8.2l-1-6.4c-.4-1.5-.9-1.9-2-1.9-1 0-1 0-.8.9.7 3.4 1.3 8.4 1.4 12 0 4.5.3 7.7.8 12.2 1.2 10 1.5 15 1.8 26.6.1 4 .3 7.4.4 7.6.3.6 1 .6 1.7.1zm0-12 .1-.4c.1-.1.3 0 .4 0v.5l-.5-.1zm.1-3.4c0-.5.1-.8.3-.7.1 0 .3.4.3.7 0 .4-.2.8-.3.8-.2.1-.3-.2-.3-.8zm4.9 12.8c.4-.3.4-.5.2-.9-.2-.3-.2-1.2 0-2.5a544.8 544.8 0 0 0 1-7.6c.4-2 .6-5.3.3-5.7l-.5-1.9c-.3-1.3-.3-1.6.1-2 .3-.3.6-.5.8-.5a130.7 130.7 0 0 0-1.2-28.3c-.3-3.2-.6-4.4-1.1-6-.3-.7-.5-1.6-.5-2 0-.3-.2-.1-.3.6-.3 1.4 0 6.4.7 9.8.7 4 1.3 9.8 1.3 13.5l.4 7.3c.3 3.9.3 4.3-.4 4.3-.3 0-.4.7-.4 3-.1 2.6-.2 3.1-.6 3.6-.3.3-.8.5-1 .5-1-.3-1.1.4-1 3.4a356.2 356.2 0 0 1 .6 11.4c.2.4 1 .4 1.6 0zm49.3-2.6c0-.5-.1-.2-.1.7v.9a7 7 0 0 0 0-1.6zm-44 0c.9-.7 1-2.7.7-12.1-.1-4.6-.2-11.5-.1-15.4.1-6.9.1-7-.4-7.5s-.6-.8-.6-3.3a36.6 36.6 0 0 0-2.7-13.6v1.8l.3 4.5a117.4 117.4 0 0 1 1.2 11.8c.3 3.3.3 14.4 0 26.5l-.2 7.9h.7a2 2 0 0 0 1.2-.5zm44.4-4.1c.2-.5.2-.7 0-1-.4-.3-.4-2.4 0-2.7l.2-.8c0-.3-.1-.7-.3-.8-.1 0-.3-.7-.3-1.4 0-1.2 0-1.2-.2.4s0 8.4.2 7.4c0-.3.2-.8.4-1.1zm-39 .4c.7-.7.7-1 .1-2.7-.4-1.2-.4-1.3 0-2.6.5-1.7.6-6 .2-8.6-.2-.8-.4-4.2-.6-7.4l-.3-7.2c-.4-6.7-.7-9.2-1-11.2a322.7 322.7 0 0 1-2.3-12.6 3 3 0 0 1-.3-1.2c0-.8-.9-2.1-1.4-2.2-.5-.2-.9.9-.4 1.4.6.7 1 2.3 1 3.7l.4 3.1c.3 1 .5 3.3.5 5.2a263.4 263.4 0 0 1 1.4 34c-.2.4.3 8.5.5 8.9.2.4 1.5 0 2.2-.6zm-231.8-3c-.3-.3-.5 0-.3.4.2.3.2.3.3 0v-.5zm272-6.5c-.1-.3-.2-.2-.2.1 0 .3 0 .5.1.4v-.5zm-53.8-6.8a83.3 83.3 0 0 0 0-17.4l-.5-6.4c0-.8-.2-1.8-.4-2.2-.4-.8-1.3-4-1.3-4.9 0-1.3-1.4-3.8-1.9-3.4-.2 0 0 1.8.6 4.6a138.8 138.8 0 0 1 2 15.7c.5 4.1.8 10.3.7 11.6l-.4 1.9c-.3.6-.2.8 0 1 .5.2 1 0 1.2-.5zm-65-32.7c3 0 6.1 0 7 .2 1.5 0 2-.2 2-1 0-.7 1.2-1.1 2-.6a5 5 0 0 0 2 .4 81.3 81.3 0 0 0 12.5-1.1c0-.3-2-.4-11.8-.4H261c-1.7 0-2.1 0-2.4-.4-.2-.4-.1-.5.3-.8.8-.4 5-.6 11.3-.3h5.3l1-.2v-1.5c0-1.8-.7-2.7-2-2.7-1 0-2-.7-1.5-1.1.1-.1.7-.3 1.3-.3 1.3 0 1.6-.3 1.6-1l.6-3.6c.5-2.5.5-3 .3-4.8l-.7-3c-.5-1.3-.5-2.9 0-2.8.6 0 .8.4 1.6 2.6 1 3 1.1 6 .4 8.9-.7 3-.7 3.2.4 3.8.5.3.9.7.9.8l-.8.8c-.8.5-.8.6-.7 1.8.4 2.2.5 2.3 4.1 2.5 4 .3 4.5 0 4.5-1.7 0-.6.2-1.2.5-1.5.4-.4.5-.4.6.2l.2 1.6c0 .6.2 1.1.4 1.2a266.5 266.5 0 0 0 23.8-.4c1.3 0 1.5 0 1.5-.5 0-1 .9-1.3 5-1.7 6-.5 6.3-.5 6.4-1.3 0-.3.2-.8.4-1 .2-.2.4-1 .5-1.6.2-1.9.6-3.5.9-4 .2-.4.1-1-.1-2a41.5 41.5 0 0 1-1.3-6.4l-1-4.4c-1-4.8-1.4-9-1-9.2.6-.4.8.6 1.9 8.5.2 1.7.7 4.1 1.3 6.4l.7 3.4a120.7 120.7 0 0 0 1.4 7.8c0 1 .5 2.6.9 2.9.4.3 1.3 0 2.7-.9l1.2-.8-.2-2.3a88.1 88.1 0 0 0-2-14c0-1.7-.7-4.7-1.8-8-.5-1.7-1-3.1-.9-3.2.5-.8 2 1.8 2.5 4.1.3 1.9 1.2 5.4 1.5 6.5l1 4.6a75.4 75.4 0 0 0 2 8.8c.8 3.4.8 3.4 2.3 3.2 1.3-.2 2.8-.7 3.4-1 .4-.3.3-1.3-.3-4.9a200.3 200.3 0 0 1-1.6-9.7c-1.4-8.8-1.5-13.2-.3-13.2l.7-.4c.3-.3.3-.5 0-.8-.3-.3-.5-.8-.6-1.1-.3-.7-.6-.7-5.2-.2-2.3.3-5.4.4-10 .3-6.9 0-7.5 0-8.2.9-.4.6-2.1.8-12.4 1-11.2.3-47 0-54.4-.4a56.8 56.8 0 0 1-13.2-1.1c-1.4-.5-5.2-.7-14.8-1-3.8 0-4.8-.2-5.3-.8-.2-.2-.8-.4-2-.4-2 0-2.2.3-3.4 3.5l-1.8 4.8a81.4 81.4 0 0 0-4 10.9c-.2 1 0 1.3 1.9 2.7a5 5 0 0 1 1.3 1.8c.4 1 .6 1.2 1.3 1.2.5 0 1.8.4 2.9 1 1.2.5 2.5 1 3.2 1h1.2l.5-1.6 1-3.8a51 51 0 0 1 4.5-12.2c.7 0 .3 2.2-.9 5.1a50.8 50.8 0 0 0-3 13.2 44 44 0 0 0 6.3 1.5c1.2.1 1.4-.2 2.1-4.3a99.4 99.4 0 0 1 1.9-9.3l.6-2.8c.1-.5.4-1.1.7-1.4.5-.4.5-.4.7.2l-.1 1.4c-.2.4-.3 1.1-.3 1.7l-.4 2.4-.6 3c0 .9-.3 2-.4 2.3-.2.6-.5 2.2-1 6 0 1.3 0 1.4.6 1.6 1.5.6 7.4 1.4 7.8 1l.3-2a51 51 0 0 1 1.5-8c.7-4.2 1.7-8.5 2-8.9.2-.2.5-.2.7 0 .3.1.3.6 0 3l-.9 5c-.6 3-1 5.3-1.1 8.9-.3 3.9-.4 4-2.8 3.8-3.3-.3-6-.7-9.7-1.5-3.3-.7-5-1-7.3-1.2a9.6 9.6 0 0 1-2.8-.7l-2.6-1c-3.2-.9-5-1.8-5.1-2.5-.1-.4-.3-.6-.5-.4-.6.3-1.4 0-2.3-.9-1-.9-2.8-2-3.4-2-.2 0-.3.3-.3.5 0 .3-.2.7-.4.8-.2.2-.4.8-.5 1.4 0 .5-.4 1.3-.7 1.8-.3.4-.7 1.2-.7 1.8l-.2 1 1.7.8c1.5.6 1.7.7 2.6.4 1.6-.4 2-.3 4.7 1a36.7 36.7 0 0 0 9 3.4l2 .4a110.3 110.3 0 0 0 24.4 1.2c3.3-.3 4.2-.1 4 .7 0 .9-1.1 1-7.6 1-10.2 0-10.5 0-9.9.4a190.5 190.5 0 0 1 6.2 1.5c3.3.6 7.3 1 12.5 1.3l9.8.5h7.5l8.9-.1zM319 119l-.4-3.2c-.1-1.5-.6-4.1-1-5.8a166.2 166.2 0 0 1-2.2-9.1c-.4-1-.4-4.4 0-4.4s.5.4 1 3.4a75 75 0 0 0 1 6c1 3.5 1.3 5.4 1.5 7.4l.6 2.6c.5 1.4.4 3.1 0 3.3-.3 0-.5 0-.5-.2zm-18.2-2.3c-.1-.4-.4-2-.5-3.4a61 61 0 0 0-1-7c-.7-3.6-.9-5.3-.6-5.8.5-1 1-.1 1.4 3 .7 4.6 1.3 10 1.5 11.8 0 1.9-.2 2.5-.8 1.4zm37.8-.3c-.4-.5-.5-2.4-.3-2.4.5 0 1 2 .7 2.4-.2.2-.3.2-.4 0zm-.8-4.9c-.2-.3-.5-1.2-.6-1.9l-.3-2.2c-.1-.7-.1-.9.2-.8.2 0 .4.4.5.8 0 .3.1.7.3.9.2.3.6 3.8.4 3.8-.1 0-.3-.2-.5-.6zm-1.4-5.6-.2-1-.3-1c-.4-1.1-1.3-4.8-1.4-6-.1-1.2 0-1.4.3-1.2.4.1.6.7 1 2.9 0 .8.4 2.4.7 3.5l.6 2.6c0 .7-.5.8-.7.2zm-35.2 21.6c0-.2 2.7-.3 8-.3 6.9 0 8.4 0 8.7-.4.8-.8.5-1-1.3-.8l-5.7.3c-2.2 0-4 .2-4 .4 0 .1-1.3.2-3 .2-2.6 0-3 .1-3 .4 0 .3 0 .4.2.4s.2 0 .1-.2zm29.9-1.6 4.2-.5c1.8-.2 2.2-.4 2.8-1 .9-1 2.2-1.3 3.7-1 1 .4 1.9.2 1.9-.2 0-.1.8-.6 1.7-1 1.7-.9 1.8-1 2.7-2.9 1-2.1 1-2.7.5-3.2-.3-.2-.4-.2-.5.1l-1.3 2.1c-.9 1.4-1.2 1.7-2.1 2-1.6.4-5.6 1.9-6 2.1-.3.2-1.3.3-2.3.4-1 .1-2.7.5-3.7.8-2.5.8-4.8 1.2-7.6 1.2-1.3 0-2.4.1-2.5.3 0 .1-.6.3-1 .3-.6 0-.2.1 1 .2 1.6.2 2 .2 2.2-.1.3-.4 1.2-.6 1.2-.2 0 .4 1 .8 2 .8.6 0 2 0 3.1-.2zm13.2-9.4c0-.4-.2-.7-.4-.7 0 0-.2-.9-.2-2l-.2-2.4c-.2-.3-.3-1.4-.4-2.5l-.3-2.7-.2-3c0-2.4-.5-4-1.2-4.9-.3-.3-.4-1-.5-2.2 0-1-.2-2.1-.3-2.5l-.3-.7-.2.7v2.7c.3 4.6 1.9 12.9 2.5 13.4l.2 1.8c0 .9.2 1.9.3 2.2.2.3.3 1.2.3 2 0 .9.1 1.4.3 1.5.6.2.7 0 .6-.7zm-52.9-27.2c.6-.6-.6-.9-3.7-.8a647.8 647.8 0 0 1-13.8.5l5.1.1c4.4 0 10.3.3 11.7.5.2 0 .5-.1.7-.3zm9.1-.4h-2.1c-.6 0-.2.1 1 .1h1.1zm6 0h-3c-.8 0-.2.1 1.4.1h1.6zm25-1.6c.5 0 .3-.9-.4-1.1-.7-.3-2-.1-2 .2 0 .5 1 1.1 1.5 1l.8-.1zm-98-.5a7 7 0 0 0-1.5 0c-.5 0-.2.1.7.1.9 0 1.3 0 .9-.1zm28.6-.9c.1-.6.1-.6-.3-.1-.5.6-.5 1 0 .9.1-.1.3-.4.3-.8zm79 .4c.1-2-.1-13.2-.3-13.4-.1-.1-1.6-.2-3.2-.1h-3L334 76l-.4 5.6c0 2.8 0 2.8 2.3 3.1.7.1 1.9.6 2.7 1 1.6 1 2.3 1.2 2.4.6zm-63-1.7 2.2.3c2.2.3 2.6 0 2.4-1.3-.2-.9-.1-1 .5-1.3 1.4-.7 3.7-.3 3.4.6 0 .3.1.4 1.1.4 1.9 0 3.6-.5 3.6-1 0-1.3 1.7-1.4 2.6-.2l.5.6 2.7-.6c1.6-.4 3-.6 3.4-.5.4 0 1.2 0 1.9-.2a84 84 0 0 1 1.9-.4c.7 0 3.7-2.8 4.2-3.8.3-.5 0-.7-.6-.6-.4.1-.7-.5-.6-1.2.3-.9-.5-1-1.3-.3-.4.3-.7.8-.7 1 0 .6-1.4.3-1.7-.4-.7-1.5-1.3-1.3-1.5.4-.1 1.4-.9 1.4-1.3 0-.3-1-.6-1.2-1.1-1.2-.6-.1-5.9.9-7.9 1.5-1.2.4-3 .3-5.1 0-2.5-.5-6 0-7 1-.4.3-1 .6-1.3.6-1 0-1.1.6-1 2.3.2 1.5.1 1.7-.5 2.7-.7 1-.8 1.4-.7 2.6v.7l.8-.9c.5-.4 1-.8 1.2-.8zm-31.3.1h-.5c-.2 0-.2.1.1.1h.4zm1.4 0h-.8l.4.1c.4 0 .6 0 .4-.1zM259 84c0-.7-.6-1.6-.9-1.2v1.8l.5.2c.3 0 .4-.3.4-.8zm9.8-1.4c.5-.9.7-2 .3-2-.3 0-1.6 2-1.6 2.4 0 .7.8.5 1.3-.4zm-6.6-5 .5-2c0-1 .4-1.5 1-1.3.2 0 .3.5.3 1.2 0 .6.1 1 .2 1l1-.4c1.1-.6 2-.2 2.3 1l.3 1.1.7-1.2c.5-.6 1-1.3 1.3-1.4.3 0 .6-.3.6-.4 0-.4-1.8-1-3-1-.7 0-.7 0-.6-.8.2-.6 0-.8-.5-1-.5 0-.9-.5-1.3-1.3s-.7-1.1-1-1.2c-.4 0-.8-.3-1-.7-.7-1.2-1-1-1 .4 0 .8-.2 1.3-.6 1.6-.3.3-.5.7-.5 1 0 .2-.2.5-.4.6-.5.1-.6.9-.2 1.3.3.2 1.1 4.1 1.1 5 0 .4.3-.1.8-1.5zm-5.1-1.5c0-.2-.1-.3-.4-.3-.6 0-.8.3-.4.6.2.2.7 0 .8-.3zm-.3-3.3c0-.2-.1-.1-.1.2v.3c.2 0 .2-.3.1-.5zm49.4-.2c.2-.6.6-.7 1.5-.1.8.4 1 .5 1 0 0-.6-1-1.2-2-1.2-.8 0-2.4.4-2.8.8-.5.5 0 1 1.1 1 .8 0 1.1 0 1.2-.5zm-39.9-7.2c0-.2-.1-.1-.1.2 0 .2 0 .4.1.3v-.5zm-5.3-1.8c.3-1.9.8-2.7 1.7-2.6.7 0 .7 0 .8 3.2 0 1.7.6 1.7 1 0l.3-2c0-.6 1.3-3.3 1.7-3.4.7-.3 1 .3.5 1.2-.5.9-.7 4.7-.2 4.6.2-.1 1.6-2.6 2.4-4.4l1.4-3.2c.8-1.6.9-2 .6-2.1-.2-.2-.5-.9-.5-1.7l-.2-1.4-.5 1a9 9 0 0 1-1 1.4l-.6.5-.2-.6c-.2-.4-.2-.8 0-1.2.5-1 .7-1.7.4-1.7-.2 0-.6.5-.9 1l-1 1.7c-.3.3-.7 1.2-1 2-.4 1.6-1 1.9-1.2.9-.1-.3-.5-.6-.8-.7-.5-.3-.6-.5-.7-2 0-1-.1-1.8-.3-2-.4-.4-.6 3-.3 4.9.3 1.8.2 2.2-.8 2-.7-.3-.8.5-1.2 4.7-.1 2.1.3 2 .6-.1zm8.1.7c-.2-.2-.3-.1-.3.4s0 .5.3.3c.3-.3.3-.4 0-.7zm3.7-4.6c.5-.7.7-1.7.3-1.7-.4 0-1 1-1.2 1.7-.2 1 .1 1 .9 0zm4.1-.5c-.2-.2-.7.2-.7.6 0 .4 0 .4.5 0 .2-.2.3-.5.2-.6zm-11.3-11.2c.6-2.3.6-3.9 0-3.2-.7.7-1.3 2.8-1.2 3.9l.1 1.5c.1 1 .5 0 1.1-2.2zm2.9-4.2c-.1-.2-.2 0-.2.4s0 .6.2.4V44zm4.3 0 .9-2.3c.8-2.1 1.4-3.8 1.1-3.8l-1 1.1c-.8 1.3-1.8 4.2-1.8 5.3 0 .7 0 .7.4.5l.4-.7zm7.8-7.4 1.8-2.6c.9-1.4 1.2-3 .6-3-.2 0-.4.2-.4.4a9 9 0 0 1-1 2.1l-1.2 2c0 .3-.2.7-.5 1-.5.7-.7 1.6-.4 1.6 0 0 .6-.6 1.1-1.5zm-5.2.6-.2-.4c-.2 0-.3.2-.3.4s.1.4.3.4l.2-.4zm-1.3-.4c0-.1-.1-.3-.3-.3l-.2.3c0 .2 0 .3.2.3s.3-.1.3-.3zm6.3-4.9c0-.2 0-.4-.2-.4s-.3.3-.3.6.1.4.3.3l.2-.5zm228.9 285c-.2-.2-25.6-.7-36.6-.8-10-.1-10.7-.2-10-1 .3-.4 1.2-.5 5.4-.5a1614.3 1614.3 0 0 1 44 1.3c1 .3 1.1.7.3 1-.7.1-3 .2-3.1 0zm-218.3-5-.6-.5.7-.4c1-.5 2.9-.6 11.2-.7l37.1-.6a907.5 907.5 0 0 1 39.5.3 114.5 114.5 0 0 1 9.5.4h2.6l5.3.3c3.6 0 4.7.2 4.1.7-.4.5-6.8.4-19.3-.1l-5.5-.3a1733.8 1733.8 0 0 0-71.6 1l-8.7.4c-3.6 0-3.8 0-4.3-.5zm-197.3-4c-1.6 0-4-.4-5.6-.7a60.4 60.4 0 0 0-11.2-1.7c-.6-.2-.7-.1-.7.5 0 1.2-.6 1.4-4.4 1.4-3.2 0-3.5-.1-5.4-.9-2.2-.9-3.4-1.2-6.4-1.8-3-.7-3.3-.7-3.3-1.3 0-.5.2-.5 3-.5 2.8.1 3.4.2 5.5 1 4.8 2 6.4 2.1 7.6 1 .7-.6 1-.7 3-.8 1.2 0 2.3-.2 2.4-.4.2-.3 1.3-.2 1.8.2.4.3 1 .3 1.8.2a7 7 0 0 1 2.4.2l3.1 1c3.2 1 7 1.3 13.8 1.2h2.3l.5-1.1c.3-.8.6-1.1 1-1.2l1.3-.3c.3 0 1.4 0 2.4.3l3.5.6c2 .2 2.4.6 2 1.7-.1.9-.9 1-2.9.3l-3.2-.5-1.9-.2-.4.8c-.2.4-.7.9-1 1-.8.3-7.4.3-11 0zm359.5-7.1c0-.2.2-.5.5-.6.6-.2 20.4-.6 27.6-.6 3.5 0 6.1.2 6.4.4 1.3.7-.7.8-17.5 1-14.6.1-17 .1-17-.2zM366 294c-.7-.2-.9-.4-.9-.9 0-.7-1.3-.6 10.9-.8a1500 1500 0 0 0 48.9-1c4.9 0 5.9 0 6.1.4.5.7.2 1.2-.8 1.1a303.5 303.5 0 0 0-23.4.3 466.4 466.4 0 0 0-16.6.6 849.3 849.3 0 0 0-24.2.3zm-222.8-10.7c-.2 0-.3-.4-.3-.6 0-.7-.5-1-2.2-1.4-.8-.1-2.2-.6-3.3-1-1.5-.5-3.4-.8-5.7-.8-.3 0-.5-.3-.6-.7l-.4-.6c-.2 0-.3.3-.3.6 0 .5-.1.7-.4.7-.3 0-.4 0-.2-.2.7-.2.4-1-.5-1.2-1.3-.3-1.5-.2-1.5.3 0 .3-.2.6-.4.7a75.8 75.8 0 0 1-12.7-.8c-.9.2-1.5 0-1.5-.7 0-.5.1-.5 3.7-.4a107.7 107.7 0 0 1 9.3.7h1.5l-1.5-.7c-.8-.4-2.1-.8-3-.9l-2.7-.6c-.7-.3-2.4-.5-3.7-.6-2.3 0-3-.3-2.7-1 .5-1.3 7.3-.4 16.5 2.1a440 440 0 0 1 15.3 4.5c3.5.7 4.1 1.1 3.7 2.4-.2.3-.7.4-3.1.3l-3.3-.1zm445.6 0 .1-.4c.2 0 .3.2.3.3l-.1.3-.3-.3zm-2.5-.6c-.7 0-1.2-.2-2.6-1l-1-.4 1.4.2c1.4.2 3.5 1 3.1 1.2a2 2 0 0 1-.9 0zm-434.7-1c-.2-.2-.1-.5.4-1.3 1-1.3 1.3-1.6 3.2-2a82 82 0 0 0 8.2-2.7c2-.7 2-.7 12.2-.9 9 0 10.4 0 12 .4 2.3.5 2.9.8 2.9 1.3 0 .7-1 1-3 .6a166 166 0 0 0-20.2 0c-4.4.7-11.5 2.9-13.5 4.2-1.4 1-1.7 1-2.2.5zm427.8-1.1c-.3-.2-.2-.3.4-.3.4 0 .7.1.7.3 0 .3-.6.3-1 0zm-3.7-.9a530.2 530.2 0 0 1-5.5-1.6c0-.7 7.3 1 8.1 1.8.2.2-1.5.1-2.6-.2zm-4.2-2.4-1-.6c-1.3-.6-.7-.8 1-.4.7.2 1.5.3 1.8.2.6-.2 1.5.5 1.2.9-.2.3-3 .3-3 0zm-3.7-1.4c-.3-.3-.2-.4.3-.4.4 0 .8.2 1 .4.3.4.2.4-.3.4-.4 0-.8-.2-1-.4zM398 276c-.8-.1-1-.6-.3-1.1.2-.2 2.6-.4 6.3-.6l8.5-.5c3.8-.5 19-1.2 29.5-1.5 3.3 0 7-.2 8.2-.4 3-.4 5 .2 5 1.4 0 .5-.7.6-2 .2a158.6 158.6 0 0 1-55.1 2.4zM.3 273.6c-.4-.4-.4-1 0-1 .5 0 1 .6 1 1s-.6.4-1 0zm147.5-4.9c-.3-.3-.2-1 .3-1.2l4.7-.5a168.8 168.8 0 0 0 13.1-1.4c.8-.3 1.6-.4 2.2-.3.8.2 1 .3 1 1 0 .5-.2.8-.6 1-.3.2-2.4.5-4.7.7l-7.2.6c-3.4.3-8.5.4-8.8.1zm-18.4-7c-.5-.5-.4-.9.3-1.2l7.2-.6c5.2-.3 6.6-.3 6.9 0 .5.5.5 1.3 0 1.4-5 0-10 .3-10.7.5-1.3.3-3.3.3-3.7 0zm-9.3-15.5v-5.5a186.6 186.6 0 0 0-.1-20.2c-.2-6.2-.2-6.3.3-6.6.4-.2.6-.2.7 0 .3.3.5 14.9.5 22.8-.1 7.9-.3 9.6-.9 9.7-.2 0-.5 0-.5-.2zm4.1-3.1a12 12 0 0 1 0-2.8c.2-1.7.3-2.3.6-2.3.4 0 .4 0 .3 2.7 0 1.4-.1 2.3-.3 2.5-.3.3-.4.3-.6-.1zm-8.6-.4c-.2-.1-.3-1.2-.1-5.6l.3-11.8c.1-6.8.3-8.3 1-8.2.4 0 .5.4.5 1l-.2 5.2c-.2 2.3-.3 7.5-.3 11.5 0 6.2 0 7.4-.4 7.8-.2.2-.5.3-.8.1zm-8.2-5.9c0-6.7-.1-8.8-.5-9.3-.2-.2-2-.3-7-.3-9.3 0-19.5-.5-23.1-1-2.3-.2-3.1-.6-2.8-1.2.3-.4 1.3-.4 12.9.1 11.5.6 17.7.8 18.8.6.7-.2 1-.4 1.3-1.2.3-.8.5-1 .8-1 .4.2 1 2 1 2.8v7.9c0 7.5-.1 8.5-1 8.5-.3 0-.4-.9-.4-5.9zm-4.4 5.2c-.4-1.1-.5-2.7-.3-5.2.2-3 .4-3.6 1-3.6.2 0 .3.2.2.7-.4 1.5-.5 3.8-.1 5.5.2 1 .3 2 .2 2.3-.1.6-.7.8-1 .3zm-8.6-.2c-1.4-1.3-.3-8 1.3-8 .4 0 .4.3 0 1-.4.9-.7 4-.5 5.3.2 1 .1 1.4 0 1.7-.4.4-.4.4-.8 0zm506.9-2.7c-.3-.2-1-.3-1.4-.3-.5 0-1-.2-1-.3l-1.6-.6c-.8-.1-1.6-.4-1.6-.5l-1.7-.2c-.9 0-1.9-.1-2.2-.3l-1.7-.5c-1.1-.3-1.1-.3-1.1-1.4 0-.7.1-1.3.3-1.5.2-.3.2-.4 0-.5-.4-.1-.5-1.4 0-1.4l.2-.6c0-.4-.1-.7-.3-.7l-.2-.4c0-.2 0-.4.2-.4l.4-.6.1 2c0 1.4.2 2.9.4 3.2.5 1 1.6 1.7 3 2 .8.2 1.4.5 1.4.6 0 .1.3.2.7.2 1-.1 6.2 1 6.2 1.4l.8.5c.6.2.7.4.5.5-.5.3-.8.3-1.4-.2zm-472.2 0-.1-5.2c-.1-6.4.4-13.9 1-14.2.5-.4.6.6.4 3.3a148.8 148.8 0 0 0-.5 15.3c0 .7-.1 1-.4 1l-.4-.2zm431.7-1.5c-2-.7-4.2-1-6.2-.8-1.7 0-2.2 0-2.9-.5a38 38 0 0 0-7.7-2.2 159.3 159.3 0 0 1-5.9-1.2c-1.6 0-7.7-1.9-11.3-3.6a44.6 44.6 0 0 0-6.7-2.5c-.2 0-.1.2 0 .4.6.6.3 1.6-.4 1.7-.9.1-4.4-.8-10.5-2.7-9.3-3-10.3-3.3-11.9-3.6-.9-.1-3-.7-4.8-1.3-1.7-.6-3.9-1.2-4.8-1.3-1-.2-2.6-.8-4.2-1.6a10.5 10.5 0 0 0-5-1.6 35.6 35.6 0 0 1-11.9-3c-1.5-.5-1.6-.6-1.4-16.6v-13.2c-.2-8.2-.2-8.6.3-8.6.2 0 .6-.2.7-.4.2-.5.5-6.3.7-15.5.1-7.3.1-7.7.9-8.6 1.1-1.3 1.2.4.7 10.5a345 345 0 0 0 .4 27c0 1.3 0 1.5-.7 2l-.8.6v3.8c-.1 2.7 0 4 .3 5.1 1 3.6 1.2 4.8 1.2 8 0 1.8.2 3.4.3 3.5 0 .2.6.4 1 .5.5 0 1.9.4 3.1.7 3.4.8 8 1.6 8.2 1.4.2-.2-1-1.2-1.6-1.2l-1.9-.6-2-.8c-.6-.1-.8-.3-.8-.7 0-1.1 1.5-.7 4.8 1.2 2.2 1.3 2.7 1.8 2 2-.6.3 0 .5 1.1.7.7.1 1 0 1-.2 0-.5 1.2-.3 4 .7 1.4.5 2.9.9 3.2.9l3.2.7c3.7 1 4 1 9 2a366.8 366.8 0 0 1 17 3.8c1.8.3 3 .7 3.6 1 1.5 1 6.4 2.2 12 3 6.5.9 12.8 2.4 14.3 3.4 1 .7 1.7.7 2.5 0 .6-.4.4-2.2-.2-2.6-.4-.2-.7-.8-.8-1.4-.2-1.5 0-11.5.3-16.2l.4-9.8.2-10.9a297.2 297.2 0 0 0-.3-30.7 64.5 64.5 0 0 1 .2-12.7 228.6 228.6 0 0 1-.3-34.6c.4-1.7.4-3.5.4-12.6-.1-11.3-.2-11.9-1.4-13.6-.5-.7-.6-.8-4.3-1-2.5-.2-5.4-.3-8.8-.1-4 .2-5.6.1-7.6-.2-2.7-.4-14-1-17.2-.8-3.4.1-5.6 0-7.6-.2-2.5-.4-8.7-.7-16.6-.8-7.5 0-10-.3-10-1-.2-.3-.6-.5-1.7-.7l-2.5-.5c-.5-.2-1.6-.3-2.5-.3-.8 0-2-.1-2.5-.3-.8-.2-1.1-.2-1.3 0a55.1 55.1 0 0 0-.2 14c.3.4.4 1.6.4 6.8 0 6 .4 17.3.8 20.5.2 2 0 3.1-1 3.7l-.8.4.1 4.1a1805.3 1805.3 0 0 0 .7 20.2c-.6 1.3-1.8-.5-1.8-2.5 0-.7.1-2.1.3-3.1.2-1.5.2-2 0-2.6a19 19 0 0 1-.5-4c-.2-5.3-.2-36 0-41 .4-8.5.4-8.2-.2-8.7-.6-.4-1-2.8-1-7.5v-2.2h.8c.6 0 1.1 0 1.4-.3.8-.8 2.4-.8 3.7 0 1.1.5 1.4.5 5 .5 2.1 0 5.2 0 7 .3 2.9.3 3.2.2 4.6-.2 1.4-.5 1.4-.5 3.5 0a41.8 41.8 0 0 0 16.3 1c1.5-.3 3.6-.4 8-.3 5.7.1 6 .1 6.5.7.7.7 2 .8 10 1.2a139.4 139.4 0 0 0 19.1 1.6c2.6 0 3.5.2 4.9.7 1.4.5 1.7.7 2 1.4a5 5 0 0 1 0 1.7c-.1.6 0 1 .2 1.2.2.2 1.5.4 3 .5 3.7.2 3.7.2 4 4v8.6c0 4 0 6 .2 6.8.3.8.3 2 .1 4.6a328 328 0 0 0-.4 34.2l-.2 9.6a44889.4 44889.4 0 0 1 .2 65.4c.3 2.5.2 3.1-.1 5.3-.3 1.6-.2 2.5 0 4.2.5 3.6.6 5.3.3 6.2-.2.4-.5.7-.6.7-.2 0-.6.3-1 .7-1 .7-1.7.8-3.3.3zm-3.5-7.8c.3-.3.8-.6 1-.6.8 0 .5-2.9-.4-3.3l-.6-.2v-21.5c0-19.3.2-34.6.6-49 0-3.3 0-7.9-.3-12.6-.6-9.6-.6-13.6-.2-20.4.4-4.8.4-6.3 0-10l-.5-14.6c-.2-10.2-.4-12.8-1-13.4-.2-.2-.5-.2-1.1 0-.9.2-1 .3-1 1.8-.2.9-.1 2.6 0 4.2.4 2.6.4 4.6.1 15.5 0 2.4 0 5 .2 5.7.2 1.3-.2 4-.6 4-.2 0-.3.4-.3.7 0 .5.2.7.6.7.3 0 .5.2.5.4 0 .5-.7.5-.9 0-.3-1-.4.6-.5 6.7 0 7.8.4 23.4.9 29.5.3 5.2.4 35.4.1 47.8-.2 7.8-.2 9 .2 9.7.3.5.3.9.1 1.2-.1.4-.1.7.1 1.3.3.6.2.9-.1 1.4-.4.5-.5 1-.4 1.8.1.7 0 1.4-.2 1.9-.4.6-.4.9 0 1.4.2.5.2.7 0 1.1-.5.8-.4 2.8.2 4.6.4 1 .5 2 .4 2.7-.1.8 0 1.2.3 1.5.5.6 2 .6 2.8 0zm-.4-1.4c-.2-.4-.2-.5.1-.5.5 0 .8.7.5 1-.2 0-.4-.2-.6-.5zm-3.4-105c-.1-2.2 0-3.9.4-4.2.3-.4.4-.3.4.5.1 1.9 0 3.5-.4 3.9-.3.3-.4.3-.4-.2zm-36.6 102.3c-2.3-1-3.5-1.5-4.2-1.5h-.9l.7.5a10 10 0 0 0 4.2 1.3h1l-.8-.3zm-8.4-2.7c-.3-.2-1-.4-1.6-.4h-.9l1 .4 1.5.4h.7zm-384.3 13c-.3-1 0-15.6.4-16.4.6-1.6 1.5-.4 1 1.6l-.4 8.2c-.1 5.7-.2 7.2-.5 7.2-.2 0-.4-.2-.5-.6zm463.7.2c0-.3 0-.4.2-.1v.5c-.1 0-.2-.1-.2-.4zm11.4-.4c-.7-.2-.8-.3-.5-.5.5-.3 2.4 0 2.8.4.4.4.3.4-.5.4l-1.8-.3zm-465-1c-.4-.5-.4-15.2 0-15.4h.5c.3 0 .4.8.4 2.8l.2 5.7c.2 3.3 0 6.3-.6 6.8-.3.3-.4.3-.6 0zm-65-2.7c-.3-.2-.5-.5-.5-.9.1-.5.3-.5 2.5-.5 2.7 0 3.7.3 3.3.9-.4.7-4 1-5.2.5zm89.3-1.8c-.3-.4 0-.7.4-.4.2.2.2.4 0 .5l-.4-.1zm-.1-1.7c0-.2 0-.4.2-.4s.3.2.3.4-.1.4-.3.4l-.2-.4zm242.5-.9.1-3.5.3-19c0-16 .1-21.7.5-21.3.1.1.3 2.6.3 5.5 0 3 .1 5.4.3 5.6.2.2.2 1.1 0 2.2 0 1.4 0 1.9.4 2.4a72.5 72.5 0 0 0-.3 10.6c0 8.3-.2 10.4-.6 15.3-.2 2-.7 3.2-1 2.2zm-234.9-.3a1962.4 1962.4 0 0 1-.6-20.5c-.2-1-.4-16.1-.2-15.4 0 .2.2.4.3.4.2 0 .3.1.2.2l.2 2.5c.2 2.2.4 11.6.4 17.7a321.2 321.2 0 0 0 .4 15.2c-.2.6-.6.5-.7 0zm423.4-.2c0-.3 0-.3.2-.1v.5c-.1 0-.2-.1-.2-.4zm-431-.4.2-1c.2-.3.3-.2.3.6 0 .5-.1 1-.3 1l-.2-.6zm439.2.4c-.5-.2-.3-.9.3-.9.9 0 1.5.7.9 1-.5.1-.7.1-1.2-.1zm-199.3-3.2-.2-5.2a75 75 0 0 0-.4-6.6 94 94 0 0 1-.4-13.5c0-6.8.5-6.4.7.6.2 8.4.6 17.6.9 20.3.4 3.9.3 6.2-.1 6.2-.3 0-.4-.5-.5-1.8zm191.1-.5c0-.3 0-.4.2-.1v.5c-.1 0-.2-.1-.2-.4zm5.4-1.5.3-4.3c.1-2.5.2-3 .6-3 .3 0 .4.4.2 3.9-.1 4.1-.3 4.8-.9 4.8-.3 0-.3-.2-.2-1.4zm-8-2.4c0-1 0-1.4.1-.9v1.9-1zM410.6 213a634.5 634.5 0 0 1 .3-29.7l.4 8c.3 8 .3 27.7 0 28.2-.5.9-.7-.3-.7-6.5zm5.8 4.8a40 40 0 0 0-1.2-8.7c-.3-.6-.3-.8 0-1.7.3-.7.3-1.4.2-3.2l-.3-4.4-.4-4.9c-.2-1.5-.3-2.9-.2-3.2l-.1-2a65.8 65.8 0 0 1-.3-9.6c.5 0 1 4.5 1 8 0 1.2.1 2.6.3 3.2.3 1.4.7 5.2 1 10.5l.7 5.7c.2 1.2.3 2.6.1 5.6v4.1c.1.3-.2 2.3-.5 2.3-.1 0-.3-.8-.3-1.7zm-7.9.7c0-.5.1-.8.3-.8.1 0 .2.3.2.8 0 .4 0 .8-.2.8s-.3-.4-.3-.8zm181 .4v-1c0-.4-.1-.7-.3-.7-.1 0-.2-.3-.2-.7 0-.4 0-.7.2-.7.1 0 .3-.2.4-.6l.1 1.8v2.3c-.2 0-.2-.2-.2-.4zm2-.5c-.1-.4.2-6.7.6-11.4a699.3 699.3 0 0 0 2.8-60.4c.2-14.4.6-29.2 1-32.2a99 99 0 0 0 .3-15.5c.2-.5.4-.6 1-.5h2.3c1.2-.2 1.4-.1 1.6.2.4.7 0 1-1.7 1.4-2.2.5-2.1.3-2.1 3.7l-.3 5.1c-.3 4.5-.7 14.4-.7 22.6 0 4.8-.2 9-.4 9.4-.1.5-.2 5.2-.2 12a418.3 418.3 0 0 1-2.3 48.6 198 198 0 0 1-1.4 15.4c.1 1.3-.2 2.4-.5 1.6zm-406.7-.5-.1-4.3c.2-9.4 0-27.1-.3-27.6-.2-.5-.7-25-.5-27.7v-26c0-3.3 0-4-.4-4-1 .4-1 0-1-7a313.4 313.4 0 0 0 .3-20.4 2546.1 2546.1 0 0 1 0-21c0-2.8.1-5.1.2-5.3.2-.2.4-.2.7.2.3.3.7.5 1 .5.2 0 .8.2 1.3.5.5.2 1.1.3 1.7.2.9-.1 1-.1 1 .6l-.4 2.3-.4 1.6-.2-1c-.2-1.5-.5-1.8-2.3-2.7-1.2-.6-1.6-.7-1.8-.4v24.2c0 .3.2.4.7.4l.8-.1-.1 2.2c-.1 2-.2 2.3-.8 2.9l-.7.6.2 5.7c.1 4.9.2 5.7.7 6.5.5.8.5 1.6.7 10.1l.2 30.4c0 11.7.2 21.8.3 22.4a997.5 997.5 0 0 1-.1 35.8c0 1.1-.5 1.3-.7.4zm223.7-3.5c0-.8.1-1.5.3-1.5.1 0 .2.7.2 1.5s0 1.4-.2 1.4-.3-.6-.3-1.4zm186.8-1.9c0-.8.1-1.4.2-1.4.2 0 .3-.3.4-.6l.2 1.4c0 1.7 0 2-.4 2-.3 0-.4-.3-.4-1.4zm-186.9-2.2c-.1-1-.2-5-.1-9.1 0-4.8-.1-8.2-.3-9.7a36 36 0 0 1-.2-6l-.1-11a1156.4 1156.4 0 0 1-.4-17.5c.2-.4.6-.7.8-.7.2 0 .3.6.2 2.7l-.1 4c0 2.5.3 10.9.6 12.8l.2 6.7.2 11.8c.2 8.4.2 16.2 0 17.1-.3 1.2-.6.8-.8-1zm178-.7c0-1.3 0-1.9.1-1.2v2.3c0 .7-.1.2-.1-1zm3 1c0-.6 0-1.2-.2-1.2-.4-.3-.3-2 .1-2.3.4-.3.4 0 .4 2.2v2.6c-.2 0-.2-.6-.2-1.2zm-214.3-.5c-.1-.8-.2-3.8-.1-6.6v-14.8c-.2-14.9-.2-15.5.1-15.8.5-.5.6 1.8.7 15.5a76 76 0 0 0 .7 17l-.5 3.7c-.3 2.6-.7 3-1 1zm157.2-1.2c-.4-.5-1-.7-2-.9a94.9 94.9 0 0 1-10.5-1.7 8 8 0 0 1-2.3-.5c-.8-.4-2.2-.7-3.2-.9-2.5-.3-2.5-.3-2.7-.5l-1.8-.5a17 17 0 0 1-2.2-.6c-1.5-.6-2.5-.8-2.5-.4 0 .3.5.6 1.2.7a44.2 44.2 0 0 1 4.8 1.4c1.5.3 4.1 1.3 4.5 1.7.4.3.4.4 0 .6a23 23 0 0 1-6-1.4c-1.7-.6-13-3.4-15.1-3.7-1.5-.2-2.5-.8-2.1-1.3.3-.4 2-.2 6.3.9 3.4.8 4.5 1 4.5.6 0-.3-2.2-1.2-3.5-1.5-.4-.1-.7-.4-.7-.6 0-.3.2-.4.9-.2l2.1.2c1.3 0 1.4 0 1.5-.7.3-1.3.3-7 0-7.2-.3-.2-.4-3 0-3.1.1-.1.2-2 .2-4.2 0-3.2.1-4 .4-4.3.4-.4.4-.3.4 1 0 .8 0 1.5-.2 1.5a79 79 0 0 0-.2 8.5v8.5l.7.6c.4.3 1.4.7 2.4.9l2.9.7c.6.2 1.6.4 2.2.4h1v-1.5c0-.8 0-1.5.2-1.5l.3-8a85.8 85.8 0 0 1 .4-11.6c-.1-1.2 0-1.5.2-1.5s.5.2.6.4c.2.6.2 2 0 2-.2.2-.3 1.2-.3 2.4s-.2 2.2-.4 2.3c-.3.1-.3 1.4 0 1.4.2 0 .3.8.2 2.7l-.3 7.7c-.1 4.9-.1 5 .5 5.6.4.5.8.6 2 .6 1.5 0 1.3.3 1.7-2.7l.2-5c0-2.2.1-4.7.3-5.4.2-1.3.3-1.4.7-1.1.3.3.3.8.2 2.8-.8 11.2-.7 11.7.7 12l2.7.7a58.4 58.4 0 0 0 7.5 1.5c1.4.3 1.6-.1 1.6-2.9 0-3.2-.1-3.6-1-3.6-.5 0-.8-.1-.8-.3a96.7 96.7 0 0 0 1-12.8c.2-10 .2-10.7.6-11 .3-.3.4-1.9.2-9.6-.3-10-.1-24.7.3-32.3.6-10 .7-12.3.5-15.7l-.1-3.6-.2 2.9c-.1 1.6-.3 3-.4 3-.2.1-.3.5-.4 1 0 .5-.1.4-.2-.6 0-1.7-.3-3.3-.5-3.3-.4 0-.6 3.3-.6 7.6a274.3 274.3 0 0 0-.6 22.6 463.6 463.6 0 0 1-1.1 36.1c-.1 3.5-.4 4.5-1 3.9-.2-.2 0-4.5.3-4.5l.3-6.3a4834 4834 0 0 1 .4-29 429.6 429.6 0 0 1 .8-23.6c0-2.8.4-5.2.7-5.2.2 0 .2-.6.1-1.6-.1-1.3 0-1.9.3-2.5.2-.5.5-1.8.5-3 .2-3 .4-3.7.8-3.7s.6.8.7 2.9c0 1.7 0 1.7.2.3 0-1.2.2-1.4.7-1.7.6-.3.6-.4.6-2.3s.1-2.1.6-2.3h.8c.3.4.3 8.4 0 10.5l-.4 7.4-.3 5.9c-.4.5-.8 20.2-.8 38 0 16.3 0 19.9-.4 20.6-.3.8-.3 2-.2 6.1a24 24 0 0 1-.2 6.7c-.5 2-.5 3.2.2 4 .3.5.5 1 .5 2.2 0 2.4-.8 3.1-1.9 1.9zm.7-95.2c0-.3-.1-.2-.1.1 0 .3 0 .5.1.4v-.5zm-163.2 92-.2-12.7-.1-10-.3-10.3a495.3 495.3 0 0 1-.2-42.3c0-.6.2-1 .3-1 .4 0 .6 8.9.6 22.8v14.1c.6 1 .7 41.7.2 42.3l-.3-2.9zm216.3-.4c-.3-.7-.2-3 0-5.3.2-1 .3-1 .6-.8.4.3.4.8.2 3 0 1.4-.2 3-.3 3.2-.2.6-.2.6-.5 0zm2.9-.7c0-1.1 0-1.5.3-1.5s.4.3.4 1.1c0 .6-.1 1.3-.4 1.5-.3.3-.3.2-.3-1zm6.8.4c0-.3 0-.5-.2-.5s-.3-1.1-.3-2.8c0-1.7.1-2.8.3-2.8.1 0 .2-.8.2-1.8s0-2-.2-2a16 16 0 0 1-.3-4.2c0-3.1 0-4 .4-4.3.4-.4.4-.1.4 2.3a391.4 391.4 0 0 1-.3 16.1zm-218-3.3c0-.6.1-.8.2-.5v1l-.1-.5zm131.3-1.6c0-.4 0-.6.1-.3.1.2 0 .6 0 .8l-.1-.5zm79.9-8c0-4.6-.1-8.7-.2-9-.1-.1-.3-.3-.5-.3s-.4-.2-.5-.4v-7.3l.2-19.2c0-6.7.3-14 .4-16.5.2-2.3.3-8.3.4-13.2 0-8.1 0-9 .5-9.4l.5-.5c0-.7.2-12.3.1-12.8-.1-.6-.2-.6-.7-.3-.3.2-.6.2-.7.1-.3-.3-.6-6-.5-7.4.2-1.7 1.4-4.9 2-5.7.7-.8.7-.8 1-.2.2.5.3.6 5.5.5 2.9 0 6.3-.2 7.6-.3 2.6-.3 3.3-.1 2.9.7-.6 1-4.5 1.6-13 1.8l-3.5.2c-.4.3-.2 10.1.3 11 .4 1 .8.8.8-.1 0-.6 0-.7.4-.3.5.4.5 2.4.1 2.7-.2.1-.2 1.3-.1 3.9v9.9c-.2 6-.2 6.1-.7 5.6-.3-.3-.5-.8-.5-1.2a355 355 0 0 0-1.3 19.7c-.3 6-.6 28-.4 28.5.3.8.6.3.6-1 0-1.7.2-2.3.7-2.3.5 0 .5 1.8.1 4.6-.2 1.9-.5 10.5-.6 19.7 0 7 0 7.2-.6 7.2-.3 0-.3-1.2-.3-8.6zm-.1-11c-.2-.5-.7-.5-.7 0 0 .2.1.3.4.3.2 0 .3-.1.3-.3zm2.2-58c0-.2 0-.4.2-.4s.3-.2.3-.4-.1-.4-.3-.4c-.1 0-.2-.6-.2-1.3 0-.7-.1-1.3-.3-1.3-.2 0-.5 2.8-.3 3.8.1.7.6.7.6 0zm.5-13c0-.4-.1-.7-.2-.7-.3-.2-.7.6-.4.9.2.4.6.3.6-.3zm0-2.6c0-.6-.1-1.2-.3-1.3-.1-.1-.2.4-.2 1.3 0 1 0 1.4.2 1.3.2 0 .3-.7.3-1.3zM155.4 200v-1.2a47 47 0 0 0-.2-11.1c0-.2.2-1.4.1-2.7 0-2.3.3-3.1 1.2-3.1.4 0 .5-1 1-9.3.2-4.8.1-7.7-.2-15l-.6-10.5c-.3-1.6-.2-4.1.3-4.6s.9 0 1 2l.5 4c.8 7.3 1 23.5.2 32-.5 6.3-.6 7.1-1.4 8-.5.5-.5.9-.5 5.6 0 4-.2 5.2-.5 5.7-.4.7-.7.7-1 .2zm268.4-.9v-4.8c.4-4.5.4-9.9.1-16-.2-5.4-.1-11 .2-11 .2 0 .3 1.4.3 3.1a422.1 422.1 0 0 1 .2 29.2c-.3 1.2-.7 1-.8-.5zm71.8.6c-.4-.2-.9-.4-1-.6V197c.2-1.7.3-1.8.6-1.2l.5 1.5c0 .5.5 1.2 1 1.6.7.7.7.8.3 1-.4.2-.8.2-1.4 0zm-117.8-1.3c0-.7 0-1 .3-.7.2.2.2.5 0 1-.2.8-.2.8-.3-.3zm131.3-1.6c0-1 0-1.4.1-.8v1.8-1zm-106 .8c-.2-.3-.2-1.2.1-1.2.2 0 .3.3.3.7 0 .7 0 .8-.4.5zm83-1.2v-1.7c.1-3.7.1-4.7-.1-7.4a476.5 476.5 0 0 1-1-24.5c.4.2.5.8.5 1.8l.2 2.2c.4 1.4.6-1.3.4-6l.1-5.1c.2-.4.2-1 0-1.5-.2-.7-.2-1.2.1-2 .3-.6.4-2 .4-4.7 0-5 0-5.2.4-4.9.2.2.3 2 .3 4.4a69.4 69.4 0 0 0 0 6.8 53237.4 53237.4 0 0 0-.3 41.7c0 .9-.6 1.4-1 .9zm-336-1c-.5-2-1-23.8-.5-24.7.7-1.2.9.4 1 10l.3 12.2c.1 1.8 0 2.5-.2 2.7-.3.3-.4.2-.5-.2zm-4.7-.8-.3-6.3c-.4-15.6-.4-16.5.3-15.6a100.3 100.3 0 0 1 .5 21.9c-.2.2-.4.2-.5 0zm349.3-2c-.2-2.8 0-7.3.5-7.8.4-.3.4 0 .2 3 0 2-.2 4.2-.3 5l-.2 1.6zm-109.7.8c-.4-1-.4-2.2 0-2.5.4-.3.5-.1.5 1.4 0 1.9-.1 2.1-.5 1zm124-1c0-.9.2-1.5.3-1.5l.4-.6.1 1.4c0 1.7 0 2-.4 2-.3 0-.4-.3-.4-1.4zm-89.7.7a246.2 246.2 0 0 0 1-26.4c-.1-7.7 0-9.4.6-8.8 0 .1.2 7 .1 15.2 0 16-.2 20-1.2 20h-.5zm-22-.8c-.2-.4-.1-.8 0-1 .3-.2.4 0 .4.7 0 1.1-.2 1.3-.5.3zm19.9-1.9a607 607 0 0 1-.3-11.8l-.2-6.9c0-2.8 0-3-.4-2.7-.2.3-.5 1-.5 1.7-.2 2.9-.5 4.5-1 5.5-.2.6-.5 1.6-.5 2.3 0 1.9-.4 1.5-.6-.6-.5-5-.8-21.3-.4-21.6.2-.1.3.7.4 5.9 0 1.4.2 4 .4 5.5l.3 3 .4-2.3.3-5.4a258.5 258.5 0 0 0 .7-18 1354.7 1354.7 0 0 1 .4-24.8c0-10.6.2-16.4.7-16.4.3 0 .4.7.2 5l-.3 21.3-.2 21.4c-.2 4.8-.2 5 .4 6 .5.8.5 1.2.4 7.8 0 7 .2 10.9.7 12.1.2.5.1 1-.1 1.7-.3.8-.3 2-.2 3.8.1 3.8 0 9.8-.3 9.8-.2 0-.3-1-.3-2.3zm83 1.1v-.6 1.4-.8zm-97.1.3c-.2-.7 0-1.2.4-1.2.3 0 .3 1.5 0 1.7-.2.1-.3-.1-.4-.5zm-238-1.4c0-.3 0-.3.2-.1v.5c-.1 0-.2 0-.2-.4zm327.6-2c0-1.4 0-2 .1-1.3v2.4-1.1zm-327.6 0c0-1.2 0-1.3.2-.3 0 .6.2 1.1.4 1.2.1.1 0 .2-.2.3-.3.2-.4 0-.4-1.2zM500 187c-.3-1.7-.3-2.3 0-2.8.4-.7.4-.7.6.5v3l-.3 1.5zm-119 .6c-.1-.5-.2-1.8-.1-3l-.1-8c-.2-4.8-.2-6 0-5.5.4.7.8 13.7.5 16 0 1.3-.1 1.3-.3.5zm70.9-.1c-.2-1 0-22.5.2-22.7.5-.4.6 1 .6 6.4 0 6.5-.3 16.8-.5 17l-.3-.7zm-54.5-1.5c-.1-2.2.2-9.9.4-9.3.6 1.5.8 3.9.5 7-.4 4-.7 4.8-.9 2.3zm58.7 1c-.2-.2-.2-2 .1-2.4.2-.2.3 0 .4.8.2 1 0 2-.5 1.7zm-94.6-3c0-1.4.6-1.8 1-.5 0 .5 0 .8-.4 1.2l-.6.6zm-299.2.6a33368.7 33368.7 0 0 0-.7-17.3c-.1-4.3-.1-6 .1-6s.3-.4.3-.9l-.2-1c-.3 0-.8-3.8-.7-4.8l.1-3.6c0-1.7.1-4 .3-5l.2-2v2.3a197.9 197.9 0 0 1 .4 9.6 890.4 890.4 0 0 1 1 21c.4 2.3.3 7.3-.1 7.7-.3.2-.5.2-.7 0zm394-2.4c0-1.2 0-2 .2-2 .3 0 .3 1.5 0 3-.2.9-.2.8-.2-1zm39.2-.1v-.9 1.9-1zm-407.8 1c-.3-.5-.4-2.4-.4-6.3 0-3 0-5.6-.2-5.7a11365.5 11365.5 0 0 0-.7-17.3c-.2-7.2 0-11.8.3-10.8a268.8 268.8 0 0 0 .7 13.3v4.4a58.7 58.7 0 0 1 .4 7.7c0 3.5.2 8.2.4 10.5.2 3 .3 4.2 0 4.4-.1.2-.3.1-.5-.3zm77.5-3c0-4.6.3-7.4.8-7.7.6-.3 1.1.5 1 1.6-.2.5-.4 2.7-.6 4.8-.3 2.5-.6 3.9-.8 4.1-.4.4-.4 0-.4-2.8zm219.6 2c0-.6.1-.9.3-.8l.2.8-.2.8c-.2 0-.3-.2-.3-.8zm16.8-.7c-.2-2.3-.2-4.7.1-6.3.3-1.5.5-5.8.7-19a73 73 0 0 1 .8-11c.5-.7.5-.8 0-1.7-.4-.7-.5-1-.1-1.5.2-.6.2-.8 0-1.3-.3-.5-.3-.8 0-1.5.2-.6.2-1.8-.2-6l-.4-7.7a542.3 542.3 0 0 1-.6-52.3c.2-.8.6-.4.7.7a4077.6 4077.6 0 0 0 .5 47c.1 3 .7 9.4 1 10.1l.2 8.9c0 4.6.2 9 .3 9.5.4 1.5 1 9.6.7 9.9-.2.2-.6-.5-.8-1.4-.2-1-.5-1-1-.6-.3.4-.3.6 0 1.4.4 1.3.4 2.7 0 3.4-.6.7-.5 2.3 0 3.5.7 1.2.7 1.5.2 2-.4.4-.4.6-.2 1.1.5 1 .4 2.4 0 3.4-.4.6-.4.9-.2 1.5s.3 1.3.1 2.2l-.1 2.4c0 .5-.2 1.7-.5 2.6a13 13 0 0 0-.5 2c0 .2-.1.3-.3.3-.1 0-.3-.7-.4-1.6zm2.5-27.6c0-1 0-1.5-.4-1.5-.2 0-.4.4-.5.8-.2 1 .1 2.1.5 2.1.3 0 .4-.3.4-1.4zM75.1 182.4V172c0-8 .2-10 .4-10.4.3-.3.4-.3.6.3.1.7.2 8.2.1 15.5 0 4.5 0 4.8-.5 5.1-.4.2-.6.2-.6 0zm425-.6c0-.4-.2-.6-.3-.6-.3 0-.5-1.4-.8-5.3-.4-4.7-.4-16.4 0-16.7.4-.5.6 1.3.5 5a108 108 0 0 0 .7 13.4c.2 1.5.2 3.1.1 3.7-.1.6-.2.8-.2.5zm-89.6-1c-.2-1 .1-1.8.7-1.3.2.2.2.6 0 1.4l-.4 1-.3-1zm81.5-.2a31.1 31.1 0 0 1 .1-8.2c.3 0 .5 2.2.6 6.3.1 2.4 0 3-.2 3s-.4-.5-.5-1.1zm-130.5-2c0-.7 0-1 .1-.5v1.3l-.1-.7zm-181.6 0c0-.8 0-.9.4-.6.2.2.4.4.4.6l-.4.6c-.4.4-.4.3-.4-.6zm-99.6.1c-.3-1.8-.4-3 0-3.5.3-.4.3-.4.6 0 .5 1 .4 3.8 0 4-.3 0-.5 0-.6-.5zm31.2-1.1-.1-6.2a1018.4 1018.4 0 0 0-.7-40.6 281 281 0 0 0-.5-18.3s0-.8.3-1.6c.2-.9.3-2.8.3-4.4 0-2.6.3-3.5.8-3l.2 14.6c0 13.2.2 20.1.5 27.9.3 4.8.5 30.2.3 31.1-.2 1-.8 1.2-1 .5zm266.2-.5v-1.3c.3-.5.3-.5.5.4.2 1.2-.2 2-.5 1zm-309.1 0a97 97 0 0 1-.3-13.1v-13.2c0-.7.7-.3.7.4a9306.6 9306.6 0 0 0 0 25.7c0 .5-.1.6-.4.3zm387.8-1c0-.6.1-1.3.3-1.5.1-.3.2 0 .2 1s0 1.6-.2 1.6-.3-.5-.3-1.1zm38.8-1c-.1-.4 0-3.6.2-4.2.2-.5.7-.4.7.2 0 .3-.1.6-.3.6-.1 0-.2.6-.1 1.5 0 1.5-.2 2.7-.5 1.9zm-97.9-5c-.2-3.5-.2-4.8 0-4.8a34.7 34.7 0 0 1 .2 7.1l-.2-2.4zm-22.2 1.6c-.3-.2-.2-3.4 0-3.6.2-.1.3.6.3 1.8 0 2 0 2.2-.3 1.8zm89.4-2.6-.3-5c-.1-1.3-.1-2 .1-2s.3.3.4.6c.2 1 .4 9.2.2 9.2-.1 0-.3-1.3-.4-2.8zm-7.8 1.6c0-.4 0-.6.1-.3s.1.6 0 .8v-.5zm-9.3-1.3c0-.8.1-1.5.3-1.5.1 0 .2.7.2 1.5s0 1.5-.2 1.5-.3-.7-.3-1.5zm44.4.5c0-.2.2-.4.3-.4.2 0 .3.2.3.4 0 .3-.1.4-.3.4-.1 0-.3-.1-.3-.4zm-57.8-.2c-.7-2.5-1.2-20.5-.6-25l.4-12.4c0-5.6.2-10.3.3-10.4.4-.4.6 1 .6 3.8.1 6.7-.2 28-.4 32a87 87 0 0 0 .6 11.1c0 1 0 1.3-.3 1.3s-.5-.2-.6-.4zm-53.6-3.2v-3.1c.3-.3.6 5.4.3 5.7l-.3-2.6zm46.9 2.4c0-.2.1-.4.3-.4l.2.4-.2.4c-.2 0-.3-.2-.3-.4zm-336.4-3.1a444.4 444.4 0 0 1-.8-29.3 295 295 0 0 1-.5-15.6c0-2.8 0-4.4.2-4.6.5-.4.7 1.2.8 6.4a991.9 991.9 0 0 0 1.1 33c.3 6.1.2 13.3-.3 13.3-.2 0-.4-.8-.5-3.2zm58.8.8.3-5 .5-7.1c.2-3.4.4-4.7.6-5 .4-.3.5-.3.9 0 .5.6.5.8 0 5a202.7 202.7 0 0 0-1.4 14.4l-.5.1c-.3 0-.4-.4-.4-2.4zm227.5-.7v-3c.2-.2.3.9.5 2.6l-.1 3c-.1.2-.3-1-.4-2.6zm49.9-1c0-1.7 0-4.4-.2-6a544.3 544.3 0 0 0-1.3-20 11121.5 11121.5 0 0 0-1.5-32c-.2-5.2-.1-9.9.3-9.9.2 0 .4 3 .8 11.8l.5 9.1a800.4 800.4 0 0 1 1.4 23.9c.5 8.5.8 15.7.8 22.2 0 3.4-.1 4.2-.5 4.2-.2 0-.3-.6-.3-3.2zm64.4 1.3c-.1-.9-.2-1.7-.1-1.8l-.2-4.4a16 16 0 0 1 .1-5.1 53 53 0 0 1-.4-12l.2-1.2.5 1.8c.4 1.7.5 3.2.5 13 0 10.4-.2 13.4-.6 9.7zm-86.3 0c-.2-1.5-.3-5.9 0-6 .4-.5.5.3.6 3.5 0 2.2 0 3.5-.2 3.5l-.4-1zm51.5 0c0-.6 0-.8.1-.4v1-.6zm-72.7-2a138.8 138.8 0 0 1-.5-7.8c-.1-1.6.2-3.7.5-2.9.1.3.4.8.7 1 .3.4.3.7 0 1.4-.2.5-.3 2.6-.3 5.7v5c-.1 0-.3-1-.4-2.4zm-23.8-.6c-.2-2 0-3.1.4-2.1.3.7.3 3.7 0 4 0 0-.3-.8-.4-1.9zm91.7 0c-.2-1.3.1-4.9.3-4.1.6 2 .5 5 0 5-.2 0-.3-.4-.3-.9zm-54.9 0-.1-2.4c0-2 .1-2.8.5-2.8.2 0 .3 1.3.3 2.8 0 2.6-.3 3.4-.7 2.4zm34.6-1.8c-.4-.9-.5-6 0-6 .4 0 .7 2 .5 4.3-.2 2.2-.2 2.3-.5 1.7zm-51.7-3.8c0-4.2.4-4 .6.2.2 2.6.1 3.1-.2 3.1-.3 0-.4-.6-.4-3.3zm76.8 1.8c0-1.1 0-1.7.2-1.5.2.2.2.9 0 1.7l-.2 1.5zm7.4.6c0-.5 0-1 .2-1s.3.5.3 1-.1 1-.3 1l-.2-1zm-89.5-4.5a715.2 715.2 0 0 1 .2-14.8l.3 4.4c0 2.6.1 4.3.3 4.5.2.3.2.5 0 .7-.3.2-.3 1.6-.3 4.8 0 3 0 4.5-.2 4.6-.2.2-.3-1.1-.3-4.2zm22.3.3c0-1.2 0-2 .2-2s.3.8.3 2c0 1.1-.1 2-.3 2-.1 0-.2-.9-.2-2zm23.4.4c-.2-1.2 0-1.7.4-1 .3.4.3 2 0 2l-.4-1zm-43.8-.2c-.4-1-.7-9.2-.3-9.5.2 0 .3.6.3 2.1 0 1.2.1 2.8.3 3.5l.2 3c-.1 1.7-.1 1.7-.5 1zm164.7.5c-.5-.3-1.7-2-1.7-2.5-.1-.8 0-1 .6-1 .3 0 .7.1.9.3.2.2.5.2.7.1.3 0 .4-.5.4-1.7 0-1.4 0-1.6-.6-1.7-1.2-.3-1.3-2-.2-3.4.4-.5.6-.6 1.3-.3.4.1.9.6 1.1 1 .4.9.5 1 1.3.8 1-.2 2.3.3 3.2 1.3.6.6.6.8.5 3-.1 2.2-.4 2.8-1.2 2.5l-.8.3c-.3.4-.7.5-1.5.4-.9-.2-1.2 0-1.8.5-.8.6-1.7.8-2.2.4zm-77.1-1.8c0-1.1 0-1.5.2-1.2.2.2.3.8.3 1.2 0 .5-.1 1-.3 1.2-.1.3-.2 0-.2-1.2zm-44-1c0-.6.2-1 .3-1 .3 0 .6 1 .4 1.4-.3.8-.7.5-.7-.4zm-40.1-4c0-2.2 0-3.2.2-2.7.3 1.2.3 5.7 0 5.9-.2 0-.3-1-.2-3.3zm51.2 1.8.1-2.3c.3-.9.1-8.7-.3-13.1a293.2 293.2 0 0 1-1-13.5c-1-13-1.2-29.2-.5-30 .4-.3.4-.2.4.5 0 .5 0 1.7-.2 2.8-.3 2-.2 5.3.5 15.4a1573.3 1573.3 0 0 1 1 14.6c1 9.4 1.3 19 .8 23.7a15 15 0 0 1-.5 3.4l-.3-1.5zm-34.4-1.9c-.1-3.4 0-8 .3-8 .1 0 .3.7.4 1.5.2 1.8-.1 9.4-.4 9.4a11 11 0 0 1-.3-2.9zm87.4 2.4c0-.3 0-.3.2-.1v.5c-.2 0-.2 0-.2-.4zm-32.6-1c0-.5.2-1 .3-1 .1 0 .3.5.3 1s-.2 1-.3 1c-.1 0-.3-.5-.3-1zm-31.6-.1v-1.5c.1-.8.2-.9.6-.6.5.4.5 2.6 0 2.6-.2 0-.5-.2-.6-.5zm44.1-1.4c0-.9 0-1.5.2-1.5.3 0 .3.5 0 2-.2 1-.2 1-.2-.5zm-80.6-.5.1-2c.2-.6.3-.4.3 1.3l-.1 2-.3-1.3zm-24 .2c0-.4.2-.7.3-.7.2 0 .3.3.3.7 0 .3-.1.6-.3.6l-.2-.6zm-172.2-1.4a1061.3 1061.3 0 0 1 0-33.4 141.3 141.3 0 0 1 .4-30.1c.1-.1.4 0 .6.3.4.6.3 2.3-.4 4.6a214.3 214.3 0 0 0 .7 25c.2 3.2.2 7.6-.3 30.1 0 2.3-.1 3-.5 3.3-.3.3-.5.4-.5.2zm232.8-2.7a22 22 0 0 1 0-6.7c.2 0 .3.8.4 1.8a5033.9 5033.9 0 0 1 0 6.8c-.2.1-.4-.7-.4-1.9zm31.5 1.7c0-.2.2-.4.3-.4.1 0 .3.2.3.4s-.2.4-.3.4c-.1 0-.3-.2-.3-.4zm5-.6c0-.5.2-.8.3-.7.2 0 .3.4.3.7 0 .4-.1.8-.3.8-.1.1-.2-.2-.2-.8zm7.4 0V144c.2-.9.3-2.7.4-4 0-1.3 0-3 .2-4l.1-1.5.2 2c.2 2 0 9.2-.2 10.5-.2.9-.5.7-.7-.4zm-50.5.1.3-.7c.2-.3.3-.2.3.3 0 .4-.2.7-.3.7-.1 0-.3-.1-.3-.3zm-54.2-2c0-.7.1-1 .3-1l.2 1.2c0 .6-.1 1-.2 1-.2 0-.3-.5-.3-1.1zm20.7-1c0-1.2 0-1.6.2-1.3a4 4 0 0 1 0 2.7c-.2.3-.2-.1-.2-1.4zm71.5 1c-.2-1-.2-11.3 0-11.1l.3 3.5.3 6-.1 2.4c-.2 0-.4-.4-.5-.9zm-68.6-2.3a56 56 0 0 1-.2-11.9c.1-7.6.5-13.3.8-14 .3-.5.2 26.1-.1 27-.1.2-.3 0-.5-1.1zm24.4.8v-1.4c.1-.4.2-1.7.1-2.8-.2-3.9 0-32.1.1-32.3.4-.4.7.5.6 1.3-.2 1.2-.2 11 0 14.6.1 2.1 0 3.5-.2 4.3-.2.9-.2 1.3 0 1.8.4.6.7 4.8.7 7.6l-.3 7.2c0 .6-.8.4-1-.3zm77.3-1.4c-.5-.6-.6-2.2 0-2.2.9 0 1.7.6 1.7 1.2 0 1.5-.8 2-1.7 1zm-398.5-3.9c-.1-2.7-.1-4 .1-4.2.2-.1.4-.2.5 0 .2.2.1 7.2-.2 7.7-.1.3-.3-.9-.4-3.5zm293.9 3c0-.8 0-1 .2-.8.2.2.2.5 0 1-.2.8-.2.8-.2-.3zm108.6-.7-.1-10c0-5.4 0-10-.2-10-.2-.5-.3-12.9 0-13.6 0-.4.4-.6.8-.6.5 0 .6.2.6.6.1 3-.2 28.2-.3 32.5 0 1-.5 1.7-.8 1.1zM66 138.7c-2.3-.4-2.6-.7-2.4-2.2.3-2.5.4-5.7.1-8.5l-.5-7.2c-.1-2.7-.4-4.9-.6-5.6-.3-1-.4-1.4-.2-1.6.5-.6-.3-1-1.4-.8-1.1.2-2.3 0-2.3-.6 0-.2.2-.3.4-.4.1 0 1.2 0 2.2-.2 2-.2 2.4-.5 2.4-1.3 0-.3 0-.3-.1-.1-.3.4-1.8.6-2.2.3-.2 0-.4-.2-.3-.3l.9-.5c.6-.4.7-.7.7-1.7 0-.7.1-1.2.4-1.4.8-.7 2.9-1.6 3.5-1.6.5 0 1.7.9 1.7 1.3 0 .8 4.1.8 7 .1 1.1-.3 2.8-.4 7.3-.4 3.5 0 6.6 0 7.7-.3 1.7-.3 1.9-.3 2.2.2.3.4.3.6-.2 1.3-.5.8-.5 1-.2 2.3.3 1 .3 1.4 0 1.7-.8.7-5.1 1.2-5.4.7-.3-.5-3.8-.9-8-.9-4.4 0-4.8 0-6 1.2a2 2 0 0 1-1.3.5c-1.2 0-1.4.3-.6 1.6l.6 1.5c0 .6-.9 1.6-1.4 1.6-.5 0-.7.6-.4 1 .4.7.3 1.6-.3 2-.6.4-.6.4-.3 4.6a41 41 0 0 1 0 9.3c-.2 4-.4 4.8-1.1 4.8l-2-.4zm.6-9.2a36.7 36.7 0 0 0 .3-10.4c0-1 0-1.2-.6-1.3-1.4-.4-1.5-.1-1.4 6.7.1 6.2.3 7 1.1 7 .2 0 .4-.8.6-2zM68 115c.4-.3.6-.7.6-1.3v-1H66c-2.7 0-2.8.1-2 1.5.4.6.7.8 1.6 1l1.5.2.8-.4zm4.7-6.1c1.5-.1 2.7-.3 2.8-.4 0-.3.8-.3.8 0 0 .2 2 .3 5.6.3 3.7 0 5.8 0 6 .3.4.4 2 .1 2.3-.4.2-.4.2-.5-.2-.7-.7-.5-1.6-.6-2.2-.3-.5.3-.7.3-1 0-.4-.3-1.8-.3-2.2 0-.2.3-.4.3-.5 0-.2-.3-5-.3-5.3 0a9 9 0 0 1-3 .3c-1.6 0-2.7 0-2.7.3 0 .1-.7.2-1.7.2-1.3 0-1.9.1-2.2.5-.4.4-.4.4.2.2.4-.1 1.9-.3 3.3-.3zm384 30c0-.3.2-.5.3-.5.2 0 .3.2.3.4s-.1.4-.3.4l-.2-.4zm-97.8-2.2c0-.5 0-1 .2-1s.3.5.3 1-.1 1-.3 1l-.2-1zm60.7-1.7a44.3 44.3 0 0 1 .1-9.8c.3 0 .4 2.2.4 9l-.1 3.4c-.1 0-.3-1.1-.4-2.6zm-22.6 1.4c0-.4.1-.6.4-.6.2 0 .4.2.4.6 0 .4-.2.7-.4.7-.3 0-.4-.3-.4-.7zm89.7-.7A409.4 409.4 0 0 0 485 105c-.2-1.7-.2-2.3 0-2.6 1-1.2 1.7 2.4 1.5 7.7v8.4a385.7 385.7 0 0 1 .6 18.4c-.1 0-.3-.5-.5-1.3zm-128-1.5v-3.7l.3-2.3.2 1.6c.4 4 0 8-.4 4.4zm6-.8c0-1.2.2-1.9.5-1.9.2 0 .3.7.3 1.5 0 1.1-.1 1.4-.4 1.4-.3 0-.4-.2-.4-1zm100-1.7v-3l.3 2.2v3c-.2.4-.3-.3-.2-2.2zm-356 2.2c-.4-1.1-.7-50.6-.3-51.3.1-.2.4-.3.6-.3.3 0 .4.5.4 2 0 2.7.2 3.4 1 3.5.4 0 .5.3.5.8 0 .6 0 .6-.6.5-.5 0-.7 0-.9.5 0 .3-.1.6 0 .8V105a1124.8 1124.8 0 0 0 .2 28c-.1.9-.7 1.2-.9.7zm342.8-1.8v-6.1l.1-5.2.1 5.2v6l-.1 1zm-77.3-1c0-.8.1-1.2.4-1.2.2 0 .4-.2.4-.5l.3-1c.3-.5.3-.7 0-.8a78.9 78.9 0 0 0 .3-13.7c-.2-.7-.3-.5-.6 1.3a7.4 7.4 0 0 0 0 3.7c.2 1.3.2 1.8 0 2.3-.2.3-.4.5-.6.5-.3 0-.5-2-.4-4 0-1 0-3.5-.2-5.5-.2-4 0-6 1-7.3.5-.5.6-1.2.7-2.7.1-1 .3-1.9.4-1.9.4 0 .6 11 .4 18.4v7.1c.2 4.3 0 5.9-.6 5.2-.5-.5-1-.3-1 .5 0 .5 0 .8-.2.8s-.3-.5-.3-1.2zm22.8-1.3c0-.9.1-1.5.4-1.7.3-.3.4-.1.4 1.4 0 1.4-.1 1.8-.4 1.8-.3 0-.4-.4-.4-1.5zm59.8.8c0-.4 0-.7.2-.7s.3.3.3.7c0 .4-.1.7-.3.7-.1 0-.2-.3-.2-.7zm-92-.8-.1-1.8c0-1-.2-1.6-.5-2-.4-.5-.5-1.3-.7-7.6a67 67 0 0 0-.4-8.8c.2-.3.3-2.7.3-6.6 0-3.4 0-6.2.2-6.2.6-.4.8.8 1 7.5 0 4.9.2 7.4.4 8.5.4 1.4.6 6.4.5 14.6 0 2.6-.3 3.4-.7 2.4zm29.6-.2c0-.5 0-.6.1-.4v.8l-.1-.4zm-202.3 0v-10.1c0-5.2 0-11.1-.2-13.1a335 335 0 0 1 .5-35l.6-1.9c.5-1.2.6-1.6.6-14 0-11.4.4-22 .8-28.1.2-2.4.7-3.4 1.3-2.8.2.2.2 2.2-.2 10.2a630 630 0 0 0-.6 26.9 435 435 0 0 1-.9 30.9c0 1.3 0 1.8-.5 2.3-.5.6-.5 1-.4 2l.3 12.8c.1 12.7-.1 19.3-.8 20-.3.3-.4.3-.5-.2zm1.3-49.8c0-3.6 0-3.9-.3-3.2-.3.6-.4 1.8-.4 4.3 0 4.8.5 4 .7-1.1zm0-5.3V73l-.1 1c-.2 1-.2 1.5 0 1.5l.2-1.2zM528.2 127c0-1.9 0-2.8.3-2.8a41.5 41.5 0 0 1 .2-10.5c.2-1.5.3-2.5.1-3.4-.3-1.5-.2-2.2.3-2.2.6 0 .7.6 1 4.5.3 3.4.3 3.6-.2 4.3-.5.7-.6 1.3-.8 5.7 0 2.9-.2 5-.4 5-.3.1-.3.8 0 .8.2 0 .3.3.3.7 0 .4-.2.6-.4.6-.3 0-.4-.4-.4-2.7zm-159.3.3c0-1 .3-2.3.6-2.3.1 0 .2.6.2 1.4 0 1.2 0 1.5-.4 1.5-.2 0-.4-.3-.4-.6zm-10.1-1.2c-.3-.3-.2-4.3 0-4.3s.3 1 .3 2.3c0 2.2 0 2.4-.3 2zm15.4-.7c0-.5.1-1 .3-1l.2 1c0 .5 0 1-.2 1s-.3-.5-.3-1zm23.2-.1c-.2-.3.7-1.4 1-1.4.3 0 .1 1-.2 1.3-.3.4-.6.4-.8 0zm-28.5-1c0-.2.1-.4.3-.4l.2.4c0 .2 0 .4-.2.4s-.3-.2-.3-.4zm43.8.2c-.1-.3.1-33.2.3-33.3.4-.4.4 1 .4 9.4v16.5c0 6.7-.1 8.2-.7 7.4zm-14.4-1.8c0-.5.1-.9.3-.9.1 0 .2.4.2 1l-.2.9c-.2 0-.3-.5-.3-1zm-18.1-5.2c0-2.8.2-5.5.3-6l.2-1 .4 1.2a36 36 0 0 1-.7 10.9c-.3 0-.4-.8-.2-5zm-21.9 2.3c0-.7.1-1.1.3-1 .1 0 .3.6.3 1.2 0 .5-.2 1-.3 1-.1 0-.3-.5-.3-1.2zm39.9-.9c-.3-3.2-.5-17.7-.2-17.7.4 0 .5 2.9.7 11.7l-.1 7.6c-.1 0-.3-.7-.4-1.6zm53.3-.4c0-.7 0-1 .2-.8.2.2.2.6 0 1-.2.9-.2.8-.2-.2zm-17.2 0c0-.2 0-.4.2-.4s.3.2.3.4-.1.4-.3.4l-.2-.4zm1.8-2.7v-3.4a27.5 27.5 0 0 1 .1 6.5l-.1-3.1zm11.7.9c0-2.7.7-12.8 1-13.5.4-1.1.9-13.8 1-28.5a184.7 184.7 0 0 1 .3-15.2c-.1-.5-.2-1-.1-1.2l.3-5.4c0-3 .2-5.3.2-5.4l.5.1a336.3 336.3 0 0 0-.2 15.2 1194.7 1194.7 0 0 1-.5 22.1c-.5 18.4-1 27.4-1.9 30.7-.6 2.3-.6 2.4-.6 1zm-89.4-3a45.6 45.6 0 0 1 0 0zm75.7 2c-.1-.5-.3-11.7-.5-40-.1-22-.3-29.2-.7-35.9-.3-5-.3-5.1.2-5.6 1-.7 1-1.7.3-2.9-.5-.6-.7-1.3-.7-2v-4.3c0-3.4.6-7.1 1.2-8 .3-.6.4-.6.6.1l.5.8c.2.2.3 4.3.2 12.7a14053 14053 0 0 0-.4 83.6c0 2-.3 2.6-.7 1.5zm-50.4-1.4a84 84 0 0 1 .3-12l.3-.7.2.9c.1.5 0 2 0 3.2-.2 1.2-.3 3.7-.4 5.5 0 3.2-.2 3.9-.4 3.1zm35.6-.6v-.4 1-.6zm32.2.5c0-.3 0-.3.1-.1v.5l-.1-.4zM54.6 111c-1.5-.2-1-.8.7-1 2.2-.2 4.5 0 4.5.5 0 .6-2.5.8-5.2.5zm533.8-.5c0-.3.1-.4.2-.2v.5c-.1.1-.2 0-.2-.3zm-169.3 0c-.2-1.3-.1-7 0-7.3.2-.2.2 1.4.2 3.5v4c-.2 0-.2-.2-.2-.3zm16.6-5.7v-5c.4-.4.5 1 .6 5.2 0 2.5-.1 4.6-.2 4.6-.2 0-.3-2.2-.4-4.8zm-238.5 3.1c-.3-.2-.3-2-.1-6.8v-8.2c-.2-1.7 0-2.5.7-2.3.1 0 .4-.2.6-.7a422 422 0 0 1 .4-38.7c.1-2.9.3-5.3.9-11 .4-4.6.8-5.6 1.5-4.6.2.3.3.7.3 1-.3.4-.6 4.2-1 9a154 154 0 0 0-1 15 148.5 148.5 0 0 1-.3 7.4l.1 8.5c0 4.4.2 9.8.3 12 .2 4 0 4.8-.8 4.5-.5-.2-.6 1-.7 8.3-.1 6-.3 7.4-1 6.6zm161 0c-.3-.4-.3-1.6 0-2 .2-.3.3 0 .3.8 0 1.3 0 1.4-.4 1.1zm173-.4c0-.5.7-1 1.2-.7.3.2-.3 1.2-.7 1.2-.3 0-.4-.2-.4-.5zm-25.6-3.6-2.5-.6-3-.5c-3.7-.2-7.6-1-8.4-1.7-.5-.4-.5-1 0-1.1a79 79 0 0 0 16.2 1.5l1.3-.3-2.7-.6c-1.5-.3-3.3-.6-4-.6-1.5 0-2.4-.3-2.4-1 0-.3.1-.6.3-.6 1.1 0 2.2.1 4.3.7 1.5.5 3.4.8 5.1 1a131 131 0 0 1 10.8 1c3.3.3 5.8.9 6.4 1.5.7.7-.4.7-4.4.3l-4.4-.5c-.6 0-.5.5.1.6.4.1.5.3.4.6-.2.4-.5.4-3 .3a130 130 0 0 1-4.8-.4c-1.6-.2-2-.2-2.3.1-.4.6-1.4.7-3 .3zm-147.4-1.9c-.2-.3-.2-6.6 0-7 .2-.2.3-.2.6.1.2.3.2.8.1 1.6a50 50 0 0 0-.7 5.3zm58.4-1.5a55.3 55.3 0 0 0 .4-8.3c0-1 0-1 .3.4v6c-.1 3-.2 3.6-.5 3.6-.4 0-.4-.3-.2-1.7zm2.5 1.6-.2-12.5c-.1-12.5 0-13.6.8-13.6a436.2 436.2 0 0 0-.2 15.2 291 291 0 0 1-.4 11zm-216-2.6a303.3 303.3 0 0 1 0-28c-.3-1 .3-2.5 1-2.2.3 0 .4.3.3 1l-.3 1v8c.1 16.1 0 19.6-.4 20.1-.3.3-.5.3-.7 0zm232.4-2c0-1.1 0-1.4.3-1.2.3.6.3 2.7 0 2.7-.2 0-.3-.7-.3-1.5zm160.2.2c-.3-.5.1-1.3.5-1.2.5.2.5 1.4 0 1.4-.2 0-.4 0-.5-.2zm-160.3-2.7v-1c.2-.3.4.2.3 1v1zm-337 .2c-.1-.1-7.1-.4-15-.6a376.8 376.8 0 0 0-24.7-.5c-9.3 0-11.6 0-12.3-.3-1.2-.5-1.2-1.4 0-1.2H61l27.4.6a93.3 93.3 0 0 0 17.2-.4c.3.2.5.7.4 1.3 0 .2-.5.5-1.1.6-1.2.3-6.4.7-6.6.5zm325.9-2.6v-1c.3-.3.3-.2.3.6 0 1-.1 1.2-.3.4zM51.2 90.1c-2.5-.6-2.9-.9-2.2-1.4.7-.5 4.8-.5 6.6 0l1.3.3.8-1 .7-.9 2.3.1c1.3 0 2.5.2 2.6.3.4.4 0 .8-1.5 1-1 .3-1.5.5-1.5.7 0 .5-.6.7-2.7.7-1.3 0-2 .1-2.4.4-.7.5-1.4.5-4-.2zm361.5-.3c0-.4.2-.7.3-.7.1 0 .3.3.3.7 0 .3-.2.6-.3.6-.1 0-.3-.3-.3-.6zm-312.3-.6c-.1-.2-4.9-.3-28-.8-8-.1-9.5-.3-8-.9a27 27 0 0 1 6.2-.3h15.5a482.7 482.7 0 0 1 16.7.5c.7.1.8.8.3 1.3-.3.4-2.4.5-2.7.2zm106.4-4.8c-.1-.2-.3-4.6-.4-9.9-.2-5.3-.4-11.1-.6-13-.4-4.5-.2-11.4.4-12 .4-.4.4-.3.4 1.4 0 1 0 2 .2 2.2l.2 3 .4 6.8c.2 3.9.4 11.3.3 19.1 0 2 0 2.6-.4 2.6l-.5-.2zM68 80.4c-2-.2-2.4-.3-2.2-1 .3-.4 4.4-.7 9.8-.5 4 .2 5 .4 5 1 0 .3-9.3.7-12.6.5zm150.3 0-.4-2-.5-3.6c-.6-4.3-1.4-11-1.4-12.3 0-1.6.2-2 .7-1.8.4.2.6.9 1 3.5 0 1.1.4 3.4.6 5 .6 4.7 1 10.5.8 11-.1.5-.6.6-.8.2zm194.2-7c-.2-5.6 0-22.7.3-26.2 0-1.1.3-2 .4-2 .3 0 .3 1.4.3 15.9 0 11.1-.3 17.7-.6 17.7-.1 0-.3-2.4-.4-5.4zM76.1 77c-.2-.1-.4-.4-.4-.6 0-.4.7-.4 4.4-.5 6.5 0 7.6 0 13.2-.3 5-.2 5.1-.2 5.1.4 0 .7-1 1-3.1 1L85 77c-5.9.2-8.7.1-9 0zm428 .1c-.7-.1-1.2-1.2-1-2 .2-.7 1.9-.6 2.2 0 .4.8.4 1.9-.1 2l-.5.2-.6-.2zm-175.2-.4c-.1-.2-.3-.5-.3-.8 0-.9-1-1.5-2.3-1.5-1.4 0-1.8.3-2 1.3-.1 1-.5.8-1-.4-.1-.6-.6-1.3-1-1.6-.4-.4-.5-.6-.3-.9l.8-.3c.6 0 .8-.5 1-3.5 0-1.7.3-2.8.5-3 .4-.4.4.1.4 4.2 0 1.8 0 2.6.3 2.8.6.5 2 .7 2.8.3.8-.3.8-.4.7-1.5l-.3-6.7c-.2-5.5 0-6.7.7-6.4a74.5 74.5 0 0 1 .2 14.2c.5.5.3 4.3-.2 3.8zm-96.8-1c-.3-.7-.2-13.5.1-15.7.4-2.3 1-3.1 1.6-2.5.3.3.3 1 0 4.2-.3 2.4-.5 5.7-.4 8.9 0 2.8 0 5.2-.2 5.3-.2.5-.9.4-1.1-.1zm-6-1.4c-.4-3.2-.8-15.2-.4-16.8.2-1.4.7-1.8 1.3-1.2a140.7 140.7 0 0 0 0 11.7c-.1 5.2-.2 7.3-.4 7.4-.2 0-.4-.4-.5-1zm239.8 0c0-1 .3-1.5.7-1.5.6 0 .4 2-.2 2-.4.1-.5 0-.5-.5zm-283-.6v-5.8c.1-6.5.1-6.2.4-6.2.3 0 .2 12.1 0 12.4l-.3-.4zm206.4-1.4.1-.3c.2 0 .3.1.3.3l-.1.2s-.2 0-.3-.2zm-166-.3c-.1-.2 0-1 0-1.6l.2-1.2v1.3c.2 1.2 0 2.2-.2 1.5zM350.8 69c0-.3.1-.4.2-.2v.6c-.1 0-.2-.1-.2-.4zM81 68.8c-.3-.1-.4-1.1-.2-1.1l5.5-.4c6.3-.4 8.4-.2 8.4.8 0 .2-.4.4-1.1.5-1.3.1-12.2.3-12.6.2zm96-.5c-.3-.4-.4-3.7-.5-21.1 0-11.4 0-21-.2-21.3-.2-.9-.4-22.7-.2-24 0-.5.2-.9.4-.9l.7 1c.3.4.7.8 1 .8.5 0 .8 3.4.4 5.6-.2 1-.3 5.6-.3 11v9.3c-.3.3-.6 14.6-.5 21.1 0 10.6 0 18.2-.2 18.6-.2.3-.3.3-.6 0zm291-2.6c-.2-.3-.3-1-.1-2.4 0-1.1.2-2.2.4-2.4.3-.6.6 3.5.3 4.5-.2.7-.2.7-.5.3zm57.4-.8-1.4-.4c-2-.2-1.3-.7 1-.6 1.5 0 2.2.1 2.5.4.3.4.3.5-.2.5l-1.2.1h-.7zm-30-.4c-2.6-.3-3.7-.6-3.3-1.2.3-.4 1.7-.4 6.1 0 3.6.3 6.4.4 11 .1 2.6-.1 5-.2 5.5 0 .8.1 1 .7.1 1-.8.2-16.8.3-19.4 0zm-140.9-2.3c-.4-.5-.2-4.8.3-5.1 1.1-.7 1.4.5.7 3.9-.3 1.7-.4 1.9-1 1.2zM96.7 62c-.3-.7.3-1 2.3-1.2 2.2 0 3.3.4 2.6 1.2-.5.6-4.7.6-5 0zm267.8-1.6c-.1-.3 0-.6 0-.8.3-.2.3 0 .3.5 0 .8 0 .9-.3.3zm131 .2c-1.1 0-1.2-.2-.9-.5.3-.3 1.3-.4 4.7-.3 2.4 0 7.7 0 11.8-.2h8.2c.6.1.6.2.3.6a464 464 0 0 1-24 .4zm26.5-.4c-.2-.3-.2-.5.3-.6.7-.2 3.3-.2 4 0 .6.2.6.2 0 .6-1 .4-3.9.4-4.3 0zm-53.8-.6a2 2 0 0 0-1-1.3c-.7-.4-.8-.5-.7-2 0-.8 0-1.6.2-1.8.3-.6 1.5-.3 1.6.4 0 .3 0 .6-.3.6-.1 0 0 .3.3.6l.5.8c0 .2.2 0 .4-.2.7-1 .9-4 1-19.2.3-12.9.4-15.7 1-15.5.3 0 .4.4.5 1.9 0 1.7-.3 19.5-.6 28.3l-.2 3.8.9.1c1 .2 1.4 0 1.4-1v-.8l2.5-.1h6c5 .4 22.3.4 29 0 10-.6 43.3.2 45.4 1 .4.2.5.4.4.7-.1.4-1 .4-8.7.3a530.3 530.3 0 0 1-22-.6 1187 1187 0 0 0-36.4.6l-2.7-.2c-1.7 0-2.3.1-2.3.4 0 .2.2.5.4.6.4.3 9.4.4 9.8 0 .4-.2 9.5-.5 17.8-.5 11.5 0 40 .7 40.3 1 .2 0 .3.3.3.5 0 .5-4 .7-11.8.6a1406.6 1406.6 0 0 0-45.8-.3c-7.4.3-11.2.3-13.3-.2-2-.4-10.3-.6-10.7-.2-.5.4-2 .3-2.2-.2-.2-.3-.3 0-.5 1.1-.3 1.5-.3 1.5-.5.8zm15.9.3c-.8-.2-.8-.8 0-1 .3 0 2.2.7 2.2 1 0 .2-1.6.2-2.2 0zm-304.8-.3a8 8 0 0 1-.2-2.3 78 78 0 0 1 .3-15.7c.1-.1.2 2 .2 5.2 0 4.3.1 5.8.4 6.7.4 1 .4 1.3 0 2l-.3 1.2c.2.5-.2 3.1-.4 2.9zm296.5-.3c-.5-.2-.4-.6 0-1 .5-.5 1.5-.6 1.5-.2 0 .2.3.3.6.3s.9 0 1.2.2c.5.1.5.2.3.5-.3.4-2.9.5-3.6.2zm-292.6-9.4c.1-5.2.3-9.5.4-9.6h.5c.3.1.3 2.2.2 8.3-.1 9-.3 10.6-.9 10.6-.3 0-.4-1.2-.2-9.3zm410.5 9-.3-.2c0-.2 1.2-.3 2.5-.3a59 59 0 0 0 5.3-.3c2.1-.2 3-.2 3.5 0 1 .5.8.8-.6.9h-10.4zm-4.8-1.6.1-3c.1-1.4.2-4.3.1-6.3-.2-5.6-.6-11.3-.8-12-.2-.6.4-1.3 1-1 .7.2 1 4.5.9 10.8-.3 9-.5 11.8-.9 11.8-.1 0-.4-.1-.4-.3zm8.7-2.1-4.3-.4c-.4 0-.5-6-.2-6.7.4-.5.9 1 .9 2.6 0 3 .2 3 5.5 3.6 2.8.2 3.4.3 3.4.7 0 .4 0 .5-.6.5l-4.7-.3zm-34.3-2c-.3-.4-.4-2-.4-8.5 0-8.1.2-9.7 1-9.7.3 0 .3 1.4.2 9.1 0 5-.1 9.2-.3 9.4 0 0-.3 0-.5-.3zm-3.1-.4c-.2-.3-.4-1.2-.5-1.9 0-.7-.3-1.2-.4-1.2-.2 0-.2-1.3-.1-3.5.2-5.9.3-6.4.7-7.5.3-.6.5-1.4.5-2 0-1 .5-2.1 1-2.1.3 0 .3.2.2.7a66 66 0 0 0-.6 16c.1.8 0 1.3-.2 1.7-.4.5-.4.5-.6-.2zM222 53c-1.5 0-2-.2-2.1-.6-.4-.6.4-.9 2-.7 2 .4 1.4-.2-.7-.6a14 14 0 0 1-2.8-.7l-.7-.4.2-3.8.3-15.2c.1-14 .2-15.4.9-15.4.2 0 .7 2.5.6 3.2l-.3 15-.1 14.6.6.4c.4.3 1.2.5 2.6.5 1.4 0 2.3.1 3.1.5.7.3 1.5.5 2 .5.6 0 .6 0 .8-2V20c.3-.7.9-.6 1.2.2.4 1 .4 6.3.2 18.5l-.2 9.3.6.6c.3.3.7.5.9.5h.7c.3.3.3.4 0 .8-.2.5-.2.6.2.7h.7c.5 0 4 .4 4.3.6.3.2.3.3 0 .6-.6.4-5.5.9-5.9.5-.4-.4-2-.3-2.4.2-.3.2-1 .4-1.7.4h-5zm-4.7-.6c-.4-.4 0-1 .6-1 .5 0 1 .6.6 1l-.6.3-.6-.3zm250-.5-.2-12.5c0-11 0-12.1-.5-12.6-.5-.6-.5-1.1 0-1.6.2-.2.2-1.4.2-4.3-.1-4.4 0-5.3 1.3-5.3.6 0 .7.2.9 1.6v2c-.2.1-.3 6.3-.3 13.6 0 11.1-.1 13.9-.5 16.2-.4 2.5-1 4-1 2.9zm-232-2.6c.3 0 .7-.2.8-.4 0-.2.2-.1.2.2 0 .3-.2.4-.8.4-.5 0-.6 0-.2-.2zM213.6 47c-.3-.3-.3-3.8 0-16.8l-.1-6.5c0-4.7 0-5.8 1-5.8a59.3 59.3 0 0 0 .2 10.2c.3 6-.1 18.9-.5 19-.2.1-.5 0-.6-.1zm87-1.6c-.3-.7-.4-1.8 0-6.2l.5-8 .4-7.3c.1-6.8.3-9 .8-9.6.8-.7.9 0 .6 3.2-.2 1.8-.3 4.4-.3 5.8 0 1.8-.2 2.7-.4 2.8-.4.1-.4.8 0 .8.2 0 .2 2 0 6.8v10.4c.2 1 .2 1.5 0 1.7-.6.7-1.3.5-1.7-.4zm32.8.5c0-.7.6-.9 2-.7 1.2.3 1.4.3 1 .7-.5.5-3 .5-3 0zm5.8.1c-.3 0-.6-.2-.6-.4v-.4c0-.1 1-.3 2.1-.4 3.6-.3 4-.3 4.4.2.2.2.2.5.2.5l-2.6.3c-1.4 0-2.6.2-2.7.3l-.8-.1zm29.5-.7c-2-.3-3.9-.5-4-.7-.4-.3-.7-2-.4-2.4a86.6 86.6 0 0 1 18.4-.4c2.2.3 2.3.3 2.3-.3 0-.4.2-1 .6-1.3.6-.7.6.9.8-16.2 0-6.2.3-12 .4-12.7a5 5 0 0 0-.3-3c-.3-1-.5-2.6-.7-4.6-.1-2.7 0-3.2.3-3.5.2-.2.6-.3.8-.2.4.2.4.8.4 3.2 0 2.5.1 3.2.6 4.2a8 8 0 0 1 .2 4.9c-.4 1-.3 2.7 0 3.1a51.4 51.4 0 0 0-.1 10c.2 6.6.2 8-.2 9-.3.8-.3 1.3-.1 1.8l.3 2.9c0 2 0 2.3-.6 2.9-.4.4-.8.5-1.4.5-.5 0-1 0-1.2.4-.5.5-.8.6-6.3.5a24 24 0 0 0-6.7.3c0-.2-.6-.4-1.4-.3-.6 0-1 0-.6.1.3 0 .6.2.6.4l1 .2c1.2 0 2.3.5 2.4 1.2.1.5 0 .5-5.1 0zm-21.2 0c-.5-.2-.5-.8 0-1l1.3-.2c1.2 0 1.7-.3 1.3-.9-.5-.6.5-1.2 1.6-1 .5.2 1.9.2 3.1 0h3c.4.2.8.2.8 0l2-.2c1.8 0 1.9 0 2.2.7.1.4.2 1 .1 1.4 0 .7-.1.7-2 .8-1.9 0-2.1 0-2.4-.5-.2-.3-.2-.7-.1-.8.3-.6-.3-.2-1 .6-.8.8-1 .9-3.1 1-2.7.2-6.4.3-6.8 0zM223 44.8c-.2-.4-.3-1.8-.1-7.8 0-4 .2-8.8.3-10.7 0-2.5.1-3.4.4-3.7.4-.4.4 0 .6 2.4a223.2 223.2 0 0 1-.5 19.8c-.3.4-.4.3-.7 0zm96.4-.5c-.2-.1-.3-.7-.3-1.3 0-.5-.1-1-.3-1l-.8-.5c-.5-.5-.5-.8-.4-2.3.2-1.4.1-1.8-.4-2.6l-.6-1 .4-4.4a313.7 313.7 0 0 0-.2-27.2c-.2-1.9 0-3 .6-3 .2 0 .5.2.6.5.2.3.3 4.3.4 9.3.2 8.8.2 9.8.7 9.8.2 0 .3-1.6.7-9.7.3-5.5.6-7 1.4-7 .5.2.5 3 0 11.1-.8 15.5-1 24.8-.5 25.4.6.5 1.5.3 1.8-.4.2-.4.3-5.6.3-11.9 0-7.8.2-11.2.4-11.2s.3.1.3.3l.3 2c.5 2.9.5 21.7 0 22.5 0 .1-.8.3-1.7.4h-1.6v1c-.1 1.1-.6 1.7-1.1 1.2zm93.6-1.7c0-1.9.4-2.8.6-1.5.2.9 0 3.3-.4 3.3 0 0-.2-.8-.2-1.8zm-71.3.5c-.4 0-1-.2-1-.3-.2-.2-1-.3-1.7-.3-1.1 0-1.4 0-1.5-.5-.4-1.2 1-1.5 2.1-.4l.7.7.5-.6c.7-.8.6-1.5-.2-1.7h-1c-.3.1-2.4.2-4.6.1h-6c-1.7 0-1.9-.1-2-.6 0-1 1-1.2 6-1.2 9.7 0 15 .1 15.2.5.5.8-.2 1.4-1.7 1.4-2 0-2.3.1-2.3 1.3 0 .7-.1 1.1-.6 1.4l-.8.4-1.1-.2zm-12.4-.8c-1.1-.7.9-1.6 2.8-1.2 1 .2 1.3.8.5 1-1 .3-2.8.4-3.3.2zm-4-.2c-.6-.2 0-.9.8-.9s1.4.7.8 1c-.5.1-1.2 0-1.7-.1zm-28.7-1.3a202.8 202.8 0 0 1 .1-31.6c.2-6.5.4-8.2 1-8.2s.8 1.1.6 2.9c-.1 1.4.2 3 .7 3l.5.7c.3.8.2 1.8-.4 5.3l-.3 7.8c0 4-.2 8.1-.4 9.3l-.2 5.8c0 3.8-.3 5.7-1 5.7-.1 0-.4-.3-.6-.7zm-7.9-.7c-.9-.2-1-.6-.6-1.3.2-.3.7-.3 2-.3l2.3.2c.6.2.6 1.1 0 1.3-1 .3-2.9.4-3.7.1zM391.6 37c-.2-.3-.3-.9-.2-1.3.1-.5.3-4 .3-7.9a260 260 0 0 1 .7-17.7l.2-4.4V3.7c-.2-1.2.1-2.3.6-2.1.6.2.8 5.2.5 12.1-.7 16-.9 20-.8 20.9 0 1.2-.5 3-.8 3-.1 0-.4-.3-.5-.7zm39-13.5c-.2-.6 0-.9.5-.5.2.2.2.4 0 .6-.3.3-.4.2-.5-.1z"/>
</svg>
