<?xml version="1.0" encoding="utf-8"?>
<svg xmlns="http://www.w3.org/2000/svg" xmlns:svg="http://www.w3.org/2000/svg" version="1.1" viewBox="0 0 205 161">
	<title>Tom Kitten crawls up the slanting chimney in the dark.</title>
	<path d="M74.6 160.3a13.9 13.9 0 0 0-7.6-1.6c-2.4.2-2.7.1-2.9-.3 0-.3 0-.6.5-1 .3-.2.5-.5.4-.6-.2-.3-1.3 0-5 1.5l-3 1-2.1-.2a31 31 0 0 0-6.6 0c-3.4.2-4.5.2-4.8 0-.2-.2-.3-.5-.2-.6a30.8 30.8 0 0 1 11.1-1c2.2.3 2.8.2 4.6-.3 1-.3 2.2-.8 2.4-1 .3-.4 1-.6 2.5-.7 4-.4 3.5-.7-1.8-1.2-3.7-.3-4.2-.4-4-.8.2-.4 3.8-.1 8.1.6l8.2 1.3c.7 0 3.8 0 6.8-.2s6-.4 6.5-.3c3.9.1 10.6-.2 12.2-.6 2-.4 4.3-.5 5.1-.1.4.2 1.5.4 2.6.5 1 .1 2.1.4 2.5.6.8.6 1.6.5 5.3-.5 2.6-.7 3.2-.8 4.7-.6 1 .2 3.2.3 5 .3 2 0 3.4 0 3.4.2.1.3-6 1-6.3.8l-2-.4c-1.9-.2-3.8 0-7 1.2-1.3.5-1.4.5-3 0-1-.4-2.2-.7-3.1-.7-1 0-1.8-.1-2.2-.4-.5-.3-1-.4-2.7-.2-1.2 0-2.5.2-2.9.4-.4.1-1.3.2-2 .1-.8 0-2.3 0-3.5.2-1.4.3-2.8.3-4.4.2-2-.2-4.4 0-5 .4-.6.4-9.9.1-12.2-.3-2-.4-2.5-.4-3.2-.1a6 6 0 0 1-1.7.3c-.5 0-1.1.2-1.4.5-1 1-.6 1.2 1.7 1.1 1.5 0 2.4 0 3.5.4 5 1.8 6.3 2 8.3 1.3 1.4-.5 2.7-.5 3.3 0 .4.3.5.4.1.6-.2.2-.4.2-.5.1l-2.6.3c-3 .6-3.3.5-5-.2zm14.6-1.1c-.7-.4-1.8-.5-5-.5a29 29 0 0 1-4.2-.2c-.3-.3 1.2-.7 2.8-.8 2 0 4.9.3 6.3.6.8.2 1.6.2 2.8 0 1.7-.3 9.9-.5 10.2-.2.5.5-.8.7-5 .9-2.6 0-5 .2-5.6.4-1.1.3-1.2.3-2.3-.2zm24.2-.1c-3.9-.2-3.6-.2-3.6-.5 0-.2 1.3-.3 3.5-.3 3.6 0 4.8.2 4.7.6 0 .4-.4.4-4.6.2zM40.8 156c-.7-.3-1.8-.4-4.3-.4-2.6 0-3.6 0-4.4-.4a6 6 0 0 0-2.1-.4c-1.2 0-2.7-.5-2.7-1 0-.2.7-.3 1.6-.3l3-.2c1.6-.2 1.8-.2 2 .6.3.6 2.5.6 5.4-.1l3-.5c.6 0 .8.4.2 1-1 1 3.2 1 5-.1 1.9-1.1 2.7-.5 1.2.9-.6.6-1.2.8-3 1-2.8.4-3.8.4-5-.1zm9.2 0c-1-.3-.4-.6 1-.6 1 0 1.4 0 1.4.4s-1.3.5-2.4.2zm-24.8-4c-.6-.2-1-.2-1.5 0-.7.2-1 .2-2-.3-.6-.3-1.2-.9-1.3-1.2-.2-.6-.4-.7-1.3-.5-1 .1-1 .1-1.3-.7-.1-.5-.4-1-.6-1-1.6-.8-2-1-2-1.4 0-.3.3-.4 1.3-.3 1 0 1.2 0 1.2-.3 0-.5-.5-.6-2.5-.8a11 11 0 0 1-2.3-.5c-.8-.3-1-.5-1-1.1-.1-.7-.2-.9-1.3-1.1-1-.3-1.2-.4-1.4-1.1-.1-.5-.4-1-.7-1-.3-.1-.7-.5-.9-1-.1-.4-.5-.7-.8-.8-.9-.2-1-.6-.6-2.8.2-1.2.3-2.1.2-2.3-.2-.1-.3 0-.4.5-.2.7-1.1 1.2-1.6.7v-1.3c.3-1 .3-1-.2-1.4-.7-.5-1.4-2.6-1.2-3.5.1-.4 0-.7-.1-.8-.2-.2-.3-.8-.1-2a6 6 0 0 0-.7-4c-.9-2.1-.9-2.4-.4-3.1.3-.5.2-.7-.7-1.4l-1-.9.3-2.1.4-4.3c0-1.3.3-2.8.5-3.4.2-.6.5-2 .5-3.1s.2-2.2.4-2.5c.4-.8.4-1.6-.1-3-.4-1-.4-1.4-.2-2.3.3-.8.3-1.2.1-1.6-.3-.6 0-2.4.4-2.4s.6 2.7.4 4.5c-.1 1.3.3 2 1.3 2 .6 0 .7-.5.1-3.3-.3-1.3-.3-2.6-.2-3.8.1-1.3 0-1.9-.3-2.6-.2-.5-.4-1-.3-1.2.3-.7 1-.4 1.4.6.4 1 .4 1 .6.4.2-.8.4-.8 1.2.2l1 .8c.3 0 .5.2.5.4 0 .5.5.6 1.5.3 1.4-.5 1.3-.9-.3-1.3l-1.7-.5c-.3 0-2.8-2.7-3-3.4-.4-1 0-1.8.7-2 1.1-.2 1.5-.5 1.7-1.2.8-2.7 1-3 1.8-3.6.4-.4 1-.6 1.2-.5.7.2 5.5-.3 5.9-.7.2-.2.4-.7.3-1.4 0-1-.2-1.1-1.2-1.7-.9-.4-1.3-1-1.7-1.8l-.6-1.1c-.2 0 0 2 .2 2.3.2.3.2.4 0 .5-.2 0-.4.3-.4.5 0 .3.4.4 1 .4 1.4 0 1.8.7.9 1.4-.5.3-1 .4-3 .4s-2.4.1-3.3.7c-1.5 1-1.7 1.3-1.5 2.6.3 2.4-.6 2.7-1.6.6-.6-1.5-1-4.2-.6-4.9l.6-.3c.3 0 .3-.2.2-.9C5 73.2 5 73.2 9 73c2.8-.2 3.5-.4 2.9-.9-.3-.2-1.2-.2-2.6 0H6.9c0-.2-.4-.7-.7-1.1-.8-1-.7-1.8.3-2.2.8-.2.8-.4.3-1.4-.6-1-.3-4.9.4-6.3.3-.5.5-1.2.5-1.5 0-.3.2-.6.4-.7.2 0 .4-.4.5-.7 0-.4.3-.5 1.2-.4.7 0 1.4.2 1.7.4.6.4 5 .5 5 .1s-.8-.8-1.4-.8h-2.6c-1.8 0-1.9 0-2.3-.8-.4-.7-.4-.8 0-1 .3 0 .3-.3.2-.7-.1-.8.7-1.1 3.2-1.3 1.8-.2 1.9-.2 2.6.6l.8.9 1.9-.2 2.7-.3c.5 0 .8-.2.9-.5 0-.5 0-.5-2-.4-2 .2-2.2.2-3.2-.6-.5-.4-1-1-1.2-1.4-.2-.8-1.6-1-2.1-.2-.4.6-1.6.8-1.6.3l.3-.2c.2 0 .5-.3.9-.6.4-.4.8-.6 1.6-.6 1.6 0 3.7-.7 3.8-1.4 0-.5 0-.6-1.3-.7-1-.1-1.7 0-2.1.1-.8.4-1.6.2-1.6-.4 0-.4.3-.5 1.9-.8 2-.4 3.5-.8 3.7-1.1.6-.7-.1-.9-2-.5-1 .2-2 .3-2.2.2-.5-.2-.3-.8.4-1.2a3 3 0 0 0 1-.9c.3-.5.6-.5 1.3-.4.7 0 1 0 1.6-.7.6-.7.7-.8.4-1.3-.5-.8 0-1.2 1.5-1 1 .1 1.1 0 2-.8l1-1-.5-.6-.6-.6.8-.8c.8-.8.9-.8 2.6-.7 1.4.2 1.7.1 1.6-.2 0-.2-.4-.3-1-.2-1 0-2.6-.6-2.6-1 0-.6 3.4-.8 3.9-.2.2.2 2.4.3 9.4.3 8.9 0 9 0 10.2-.6 1.5-.7 1.5-.7 4 .1 2 .7 2 .7 4 .3 1-.3 2.5-.5 3.2-.6a7 7 0 0 0 2-.5c.5-.2 1.2-.4 1.7-.4.6 0 1-.2 1.4-.7.5-.6.6-.7 1.1-.4.5.2.8.2 1.1 0 .7-.3 2.2 0 3 .6.5.5.9.6 3.3.6 2 0 2.8 0 2.9-.4.3-.7-.4-1-2.4-1-1.2 0-2-.2-2-.3 0-.4-.9-.3-1.2 0-.5.4-1.2 0-1.1-.5 0-.4-.2-.4-2.3-.3-1.3 0-2.8.2-3.4.4-.6.2-2.2.5-3.5.5l-4.9.7-4.6.6a1770 1770 0 0 1-9.7.8c-1.2.2-1.5.1-1.8-.2-.4-.5-1.1-.6-1.6-.1-.2.2-.5.2-1.3 0-.5-.2-2-.4-3.4-.5-2.1-.1-2.5 0-3.5.4l-1 .6V33c0-1 1.3-1.3 5-1.1 2.8.1 3.1 0 3.6-.4.2-.3.8-.7 1.3-.9.5-.2.9-.4.9-.6h-3.6c-2.9 0-3.5 0-3.8-.4-.2-.2-.3-.5-.2-.7.1-.2 6.2-.4 14.3-.6 1.6 0 1.9-.1 1.8-.5 0-.2.2-.5.5-.6.5 0 2.8.4 3.3.7l2 .5c1.3.2 1.8.2 2.5-.2 1.3-.6 1.2-1.1-.2-1.2-.6 0-1.4-.1-1.7-.4-.4-.3-1-.3-3.1-.2l-2.7.2-.7-.9-.7-.9-3.1-.1c-2.8-.2-3.1-.2-3.6-.8-1-1.1-.2-1.3 2.5-.6.6.2 2 .3 3 .3 1.6 0 2 .1 2.4.6.5.6.7.6 3.9.7 2.8 0 3.4 0 3.7.4.3.5.4.5 2.4 0l3-.4c.3 0 .9 0 1-.2.6-.3-.2-.6-1.9-.6-1 0-1.8-.2-2.9-.8-1.4-.7-1.7-.7-4-.7-1.3 0-2.8 0-3.4.2-1.3.2-1.7.1-1.7-.4 0-.3-.6-.4-2.5-.4-1.5 0-2.6 0-2.6-.2s.1-.3.2-.3l2.8-.1c2.4-.1 2.6-.1 2.9.4.3.6 1 .7.9.1-.3-.5 4-.8 5.6-.4.9.3 1.4.3 2.4 0l1.6-.6c.3-.2 2.6-.3 6.9-.3 4.5 0 6.8-.2 7.5-.4 1-.3 1.9-.3 10.4-.2 2.5 0 3 0 4.2-.6.7-.3 1.2-.6 1.1-.7 0-.1-1 0-2 .3-1.6.3-2.4.3-3.7.1L73.4 19c-8 0-8.8-.1-9.8-.6-.9-.4-1.8-.5-3.4-.5-1.7 0-2.3-.1-2.9-.5-.4-.3-1.2-.6-1.7-.6s-.8 0-.7-.2c.3-.4 1.8-.3 2.4 0 .4.4 1.2.5 2.7.5 1.3 0 2.6.2 3.5.5 1.3.4 2.3.5 9.7.4 4.7 0 8.3 0 8.5.2.4.3 1.4.3 3.6 0 5.7-.8 13-1.6 13.2-1.5.4.3 2.4-.1 3-.5.5-.4.5-.4-.2-.6-.7-.3-6.5.2-7.5.7a7 7 0 0 1-4.2.5c-.7-.2-2.5-.2-5.6-.1-3.5.1-4.6.1-4.7-.1-.3-.4.3-.9.9-.7.2 0 1.4 0 2.7-.2 1.6-.3 3-.3 4.7-.2 3 .2 6.4 0 9.5-.6 1.4-.3 2.7-.4 3.6-.3 3.4.4 4.4.4 4.7.1.2-.1 1.4-.2 2.9-.2 2.6 0 3.2-.3 1.4-.7-.5 0-1-.3-1-.4 0-.4.8-.3 1.7.2.6.3 1.2.3 2.1.2l1.3.1c0 .1-.3.3-.6.3-.3.1.3.2 1.3.2s2 0 2-.2c.2-.2-.5-.6-1.3-1-1.2-.5-1.8-.6-2.7-.5-.7.1-1.3 0-1.5-.1-.4-.4-2.1-.2-5.5.4-1.8.3-3.8.4-7.3.4-4.1 0-5.1 0-6.7-.6-1.8-.5-2.3-.5-6.7-.4-4.6.2-5.6 0-5-.5.2-.2 2.7-.5 6.5-.8a11 11 0 0 1 4.8.4c2.9.8 9.8 1 12.8.2a77 77 0 0 1 13.7-.8c1.8.2 2.4.1 2.7-.2.6-.5 2.2-.7 8.3-.9 4.9-.1 6-.3 6-.6 0-.4-6.1-.6-16-.5-9.4 0-9.7 0-10.5.6-.7.6-1.1.6-6 .6-6.8 0-11.6-.6-10.7-1.4h4.9a56.1 56.1 0 0 0 15-.6c1.8-.3.9-.6-2-.6-3.4 0-6.2-.4-7.1-1-1-.6-.4-.8 1.5-.5 2.8.3 8.9.7 13.1.7 3.8 0 4 0 4.5.7l.6.7h6.6l8.2-.2c1.2 0 1.6 0 1.6.4 0 .3-.4.5-1 .5-1.3.2 1.9.5 5.7.6 2.3 0 3 0 3.4.4.4.4.5.4.9 0 .7-.5 0-.7-3.3-1-3.8-.4-4.5-.8-1-.6 3 .1 5-.2 2.8-.5l-6-.3c-3.8-.1-5.1-.3-5.6-.6s-1.8-.4-6-.5a46.9 46.9 0 0 1-13.5-.9c0-.1.1-.5.4-.8l.5-.7h16c11.2 0 16.5-.1 17.3-.3 1.6-.5 8.1.4 9.1 1.2.2.2 1.3.4 2.4.6a41.8 41.8 0 0 0 8.1.7c5.4 0 5.5 0 5.6.5 0 .6-.6.6 9.7.8 1.5 0 2.2.4 1.7 1-.2.2-.8.3-2.6.1a53.5 53.5 0 0 0-9.5.1L172 8c-1.7-.4-4.2-.4-5.3.1a8 8 0 0 1-2.3.4c-1 0-1.1 0-.5.3.3.2 3.8.3 7.7.4 3.8 0 8 .2 9 .4 1.5.2 3.4.2 5.7.1 2.6-.1 3.6 0 4 .2l.2.5c-.4.6-7.7.9-9.2.4-1.4-.5-7.2-.8-7.5-.5 0 .2 0 .3.4.3.3 0 .6.3.7.6.1.4.5.5 3.6.6l4.4.2c1.9 0 9.2.2 11.2.4 1.5.2 2 .3 2 .7.2.8-1 1.1-2.5.8-.7-.2-3-.4-5-.5a91 91 0 0 1-9-.5 315.7 315.7 0 0 1-9.2-.4c-.4.1-1 0-2-.4-1.2-.6-2.1-.8-2.5-.5 0 .1 0 .3.3.5s.5.6.5.8c0 .4.2.6.9.6.5 0 1 .2 1.2.4.3.2 1.3.1 3.2 0 2.8-.4 7.8-.3 17.7.1 3.3.1 3.7.2 4.2.7.7.7 2.9 1.2 4.4 1.2.8 0 1 0 1 .5 0 .4 0 .6-.3.6s-.4 0-.4-.2l-3.6-.3-4.8-.1c-1.3 0-2 .4-.9.7.8.3.4.5-1.1.7l-3.2.5a6 6 0 0 1-3-.1 7 7 0 0 0-2.1-.4l-1.1-.1c-.4-.2-6.4-.3-6.7 0-.3.3.3.4 3.3.7 2.2.2 3.2.2 3.5 0 .3-.2.7-.2 1.1 0a31 31 0 0 0 10.3 1l-1-.4c-.7-.2.2-.3 3.3-.5 6.8-.4 8.1-.4 8.3 0 0 .4-.2.4-1.8.3-2.1-.2-3.2 0-2.4.6.4.3 1 .3 2.8.4.7 0 1 .1 1.1.4.1.7-1.3.8-6.9.5-17.3-1-26-.8-24.6.5.2.2.7.1 1.5-.2.7-.3 1.5-.5 1.7-.4l11.4.8c1.1 0 2.4.2 2.8.3.4.2 1.4.3 2.3.3.9 0 3 .2 4.5.5 2.5.3 3.2.3 4.8 0 1.7-.3 3.9-.2 4.5.3a33.8 33.8 0 0 1-11.3.4c-.2-.5-5-.7-5.4-.2-.3.2-1.8.2-5.9 0a37.7 37.7 0 0 0-7.7.4c-1.4.1-1.7.3-1.2.7.3.2 2 .4 4.6.5 3.6.1 4.2.1 4.5-.3.4-.5 1.4-.6 8.4-.3 5 .1 5.3.1 5.4.6.1.8 1.4.9 3.5.1 2.2-.7 3-.7 3.9.1.6.6.7.7.3 1-.6.3-1.3.3-1.5-.2-.2-.6-2.3-.5-2.7 0a49.3 49.3 0 0 1-14-1c0 .2.1.3.4.3.2 0 .4.3.4.5 0 .4.2.6 1.4.7h2.6c.6.5 3.4 1 6.2 1l3 .1c.4.2 1.7.3 4.4.5 1.8 0 2.3.5 1.2 1-.7.4-1 .4-2 .2-.7-.2-1.3-.3-1.4-.2l-1.5-.2-4.5-.7c-1.8-.1-3.6-.3-4.1-.5l-3.2-.4c-2.3-.2-3.2-.6-3.2-1.5 0-.4-.2-.4-2.8-.3-1.6 0-3 .2-3.3.3-.7.3 1 .5 3.6.6 1.8 0 2.3 0 2 .3-.2.2-1.3.3-3.8.2-6-.1-6-.1-6.2.2-.2.7 1 1 4.4 1l5.6-.2c1.9 0 2.4 0 2.8.4.4.4 1 .5 2 .4h4.2c2.4 0 2.9.1 2.9.5 0 .5.2.5-5 .6-1.2 0-2.2.1-2.1.2.3.3 3.1.8 5.2 1 1.9.1 2.3 0 3.2-.4 1.9-1 3-.8 7.5 1 1 .4 1 1.3 0 1-.8 0-1.9.4-2.4 1-.3.4-.2.5 1.1.6 1.5.2 2 .7 1.8 1.4-.1.4-1.6.4-2.9 0-.8-.3-1.3-.3-2.3-.1l-1.3.5c0 .2 1.5.5 3.3.7l3.3.6v.5c-.1.4-3.9.3-6.8-.3a8.3 8.3 0 0 0-3.3 0l-2.7.3c-.6 0-1.2 0-1.2.2-.2.3.5.3 4.8.4 3.3 0 8 .5 8 .7 0 .2-.3.3-.5.3-.7 0-.7.4 0 .6.2 0 .6.4.7.8.2.4.5.7.7.7.6 0 .5.4-.3 1-.6.3-1.2.4-3.5.4a10 10 0 0 0-2.3.1c.2 0 .4.2.4.3 0 .2 1 .3 2.3.3 2.1 0 2.4 0 3 .7.5.3.8.7.8.7 0 .3-2.3.2-2.5-.1-.2-.3-6.7 0-7.1.3-.1 0 .2.4.7.6.7.3 1.7.4 3.7.4 2.8 0 4.7.4 4.2.9-.3.3-2.8.4-4 .1-.8-.1-1.1 0-1.5.3-.7.7 0 1 2.2.9 2 0 2.2 0 2.8.7.8.8.7 1.1-.6 1.1-.8 0-1-.1-1.1-.5-.2-.7-1.4-.7-1.8-.1-.2.4-.5.4-2.7 0a8.2 8.2 0 0 0-3.2 0c-.5.2-2.5.3-4.6.2h-4c-.4.2 0 1 .7 1.8.3.4.4.4 1 0 .7-.5 2.9-.5 9.4-.1 2.3.1 4.4.2 4.7.1.4 0 .8.2 1.5.9l.9 1-1.2.3c-.7 0-1.2.3-1.2.4 0 .4-.6.3-1.2-.4-.4-.5-1-.6-2.8-.8-3.9-.3-3.8-.3-3.9.3 0 .6 0 .6 2.3.6 2.2 0 2.5 0 3.2.7.6.5 1.2.7 2.3.8 3 .2 1.9.8-1.6.9l-2.7.2-1 .2 1.5.2 1.7.5 2 .2c1.6 0 2 .1 2 .4 0 .2-.4.4-1.3.5l-1.7.3c-.2.1-.5 0-.7-.2-.5-.5-3.3-.6-10.4-.4-5 .1-5.7.3-5.7 1 0 .3.3.3 1.5.1 2.6-.3 5.1-.2 5.7.3.4.4.9.4 3.5.3 2.7-.2 3.1-.2 3.8.2a7 7 0 0 0 2.6.7c1.9.1 2.7.6 1.4.7-.4 0-1 .3-1.5.5-1 .4-2 .5-2.3.1l-1-.2c-.9 0-1.3-.5-.5-.7.4 0 .3 0-.1-.1-.3 0-.7.1-.9.3-.2.3-1 .4-3.3.4a12 12 0 0 1-3.2-.2c-.2-.4-2-.3-3 0-.4.2-1.6.4-2.7.5-4.4.6-3.3.8 3.5.7 6.9-.1 7.6 0 6.8.8-.3.3-1.3.4-4.5.5-2.2 0-4.4.1-4.8.3-.5 0-.9 0-1.1-.2-.5-.4-2 0-3 .8l-.9.9c0 .3 1 .2 1.5-.2.5-.3 1-.4 3.4-.1 3.2.3 5.9.1 8.6-.4 2.4-.5 2.6-.5 2.2 0-.5.5-4 2.5-4.5 2.5-.3 0-.7.1-.8.4-.3.3-.2.3.8.3a11 11 0 0 0 5-1.6c1.5-.8 2-.9 3.3-.8 2.2 0 3.2.3 3.4.7.1.4-.2.8-1 1-.7.3-2.8 0-2.8-.5s-.4-.4-1.8.2c-3.5 1.7-4 2-4.4 2.9l-.4 1 1 .4c.6.4 1 .4 1.9.2.9-.3 1.1-.3 1.5.1.7.6 1 .5 1.8-.5.7-1 1.7-1.2 1.7-.5 0 .2-.4.9-1 1.4l-1 1h-4.2a297.7 297.7 0 0 0-19-.1 71 71 0 0 0-3.3-.2c-.7-.2-.9-.1-.9.2 0 .7-1 1-2 .9a27 27 0 0 0-12 1.4c-.4.3 4.1.1 4.8-.2a10 10 0 0 1 3.4 0h3.5c.4 0 .8 0 .9.2.3.5 1 .3 2.6-.5 1.7-.8 2.5-.8 3.9-.1 1.3.7 4 .2 4-.8 0-.8 5.4-.8 6.9 0a8 8 0 0 0 3.2.5c1.3 0 2.8.2 3.3.4l2 .2c.7 0 1.3.2 1.5.4.5.6-.3.8-2.6.6h-2c0 .5 1 .8 2.7 1 1 0 1.8.3 2.1.6.4.4.4.4-.6.2l-2-.2a7.4 7.4 0 0 1-3.3-1.2c-.2-.2-.8-.4-1.4-.3h-3c-1 .1-2.1.2-2.3.4-.6.4-4.3.4-4.2 0 0-.4-4.7-.3-6.6.1-2 .5-2 .5-1.7 1 .3.3.7.4 1.8.2 2-.2 15.5.2 16 .4.7.5-.1.6-3.1.6-1.7 0-3 .1-3 .2 0 .4 1 .5 4.4.7a21 21 0 0 1 5.7.9c2 .4 2 1 0 .7-6.4-.7-9.9-1.3-10.5-1.9-.5-.4-1.3-.6-4-.9-3.1-.3-3.4-.3-4.6.2-1.6.7-3 .8-10.6 1.1-4.7.2-6.5.3-7.2.6-2.2 1-4.4 1.8-5.5 2-.7 0-1.9.3-2.7.6-1.8.6-2.6.6-2.6.1s-1-.3-2.7.5c-.8.4-1.7.6-3.1.6-1 0-2 .2-2.2.3-.2.2.2.5.8 1 1.2.8 1.7.8 5.5 0 1.6-.5 2.5-.5 3.3-.4l2.3.3c1 0 1.1-.1 1.1-.6l.2-.9c.5-.7 1.8-1.4 2.4-1.4.4 0 1.2-.3 1.8-.6 1-.5 1.2-.5 1.6-.2.8.6 6.6.3 12-.7l2.9-.4c1 0 2.5-.4 3.2-.9.5-.4 6.9-.2 6.9.1 0 .2-.7.3-1.6.3l-3.6.4a62.4 62.4 0 0 0-9 1.4l-1.3 1c-1 .8-1.3.8-3 .8-1.4 0-1.8-.2-1.9-.5 0-.7-.8-.6-.8 0 0 .4-.3.7-.7.8a9 9 0 0 0-1.2.6c-.6.3-.8.3-.8 0 0-.2.6-.6 1.2-.9l1.2-.7c0-.1-1-.3-2.2-.4-2-.2-2.3-.1-3.7.5-2.2 1-2.4 1.2-1.9 1.8.4.4 1 .4 4 .4 3.4 0 3.7 0 4 .6l.5.5 1.4-.5 2.7-1c1.5-.7 4.8-1.7 5.4-1.7.2 0 1.5-.4 2.8-1 2.2-.8 2.6-.8 3.4-.6.5.2 2.4.4 4.1.4 3.4.1 4.1.3 4.1.9 0 .4.6.6 2.8.7 3 .2 6 .8 6 1.1 0 .5-1 .5-2.9 0-.8-.2-2.1-.4-3-.4-1.7 0-8-1-8.7-1.3-.6-.3-4.3-.4-4.6 0a76.3 76.3 0 0 0-12.4 4.1c-1.5.6-2.4.5-2.7-.2-.2-.6-.4-.6-2.6-.6l-3 .2c-.8.3-.8 1 0 1 .4 0 1 .2 1.3.4.6.3.8.3 1.4 0 .6-.2.7-.2 1 .1.2.5 0 1-.6 1.1l-.8.3c-.3.1-.8 0-1.4-.6-.6-.4-1.2-.7-1.3-.6-.5.1-1.4 2-1.3 2.5 0 .6-.7 1-1.3.5a7 7 0 0 0-3.5-.1c-.3 0-.5.3-.5.5 0 .6 5.9.6 6.8 0 .4-.3 1.3-.5 2.2-.6 1.6-.3 2.7-.9 2.7-1.5 0-.2.2-.7.5-1 .5-.6.5-.6.5 0 0 .2-.1 1-.4 1.6-.2.7-.3 1.2-.1 1.3.7.5 6 0 8.5-.7.6-.2 1.3-.3 1.6-.2.3.1 1-.1 2-.5 1.5-.7 1.5-.7 3.5-.4 1 .2 2.2.4 2.6.6.5.2 1.1.2 2.6 0 2.5-.5 5.5-.2 6.2.5.5.4.5.5.1.7-.2 0-1 0-1.8-.2-1-.3-1.5-.3-2 0l-3.2.2c-2.2 0-3 0-3.9-.5-1-.4-1.2-.5-2.5 0-2.7.7-3.5.8-3.8.7-.4-.1-3.2.5-5.3 1.2-.5.2-1.2.2-2.2 0-1.6-.3-2.1-.2-2.1.4 0 .4-.3.4-1.7.2L153 93h-5c-3 .1-3.2.1-4.2.7a7 7 0 0 1-1.7.9c-.4 0-.8.3-.8.4l-1.6.2c-.8 0-1.5.1-1.6.3-.1.1 0 .3.2.3l10.2.4c2.9 0 6 .2 7.2.3 1.9.3 2 .3 3.9-.5 1-.4 2-.8 2.4-.8l1.1-.3c1.2-.7 2-.8 2.6-.3.6.4 2 .4 6.3 0 1.3-.2 1.5-.1 2.7.6 1.2.8 1.3.8 3.2.7a296.6 296.6 0 0 1 8.9-.7c.2-.3.6-.3.6 0l-.3.6c-.3.4-1.2.5-5.7.8-4 .2-5.5.2-6.2 0a22 22 0 0 0-4-.4h-3.3l-1.5 1c-2.3 1.2-4 1.8-5 1.6-.5 0-1.8.1-3 .4a18 18 0 0 1-2.9.5 15 15 0 0 0-6.8 2c-.9.2-1.5 1-.8 1l1.4-.4c.5-.1 2.6-.4 4.7-.5 3.5-.2 4.6-.4 8.2-1.6a57 57 0 0 1 6.2-1.3c1.4-.2 2-.2 2.4 0 .4.2.9.2 1.8 0 1.2-.3 1.4-.3 1.9.2.6.5 3 .9 6.9 1 1.6 0 2.9.4 2.9 1 0 .2-4.2 0-5.6-.3a8.2 8.2 0 0 0-4.1-.3c-.9.2-3.4.4-5.7.5-5 .3-8.3.7-9.6 1.2-.6.3-2.5.5-5.1.7a41.5 41.5 0 0 0-9.6 1.4l-2.3.4c-.8.2-2.1.3-2.8.2l-3.3-.4c-1.4-.2-2.4-.2-2.6 0-.6.4-2.1.5-3.5.2s-1.5-.3-1.9.3c-.4.6-1.5.7-2.6.2-1.2-.6-5.6-.9-6.6-.4a3 3 0 0 1-1.6.3c-.6-.1-1 0-1.4.3-.3.3-.9.7-1.3.8-.6.3-.2.4 2.2.4 1.6 0 3.7.1 4.5.3h3.7c2-.3 2.2-.2 3.7.5 1 .5 2 .8 2.8.8 3.5 0 5.3 0 6.4-.3 1.3-.3 1.4-.3 2 .4.7.6.9.6 2.7.5 1.1 0 2.6-.4 3.3-.6l2.3-.7 2-.7c1-.4 1-.4 2.2.2l1.6 1c1 1 5.3 1 7 0 .9-.5 1-.4.6.3-.5 1.2-3.5 1.5-8.6.7-4.2-.6-5.2-.6-7.5.4-1.2.5-2.3.6-6.2.9-3.6.2-5 .4-6 .8-.6.3-2 .7-3.1.8-1.9.2-2.7.4-6.5 1.6l-3.8 1.2a141.5 141.5 0 0 0-12.3 4.5c-5.4 2-7.6 3.2-7.6 4 0 .4-.4.8-1.6 1.4-.8.4-1.5.8-1.5 1 0 .2 1.7-.3 2.6-.8 1-.6 5.8-2.6 6.1-2.6.2 0 .2.1.2.3 0 0-1.4.9-3.1 1.7-3.5 1.7-4 2.2-2.5 2.3 1 0 1 0 .4.4s-.8 1.2-.3 1.5c.3.2 1.6-1 1.6-1.4 0-.1.6-.6 1.4-1l3-1.3c1.4-.7 1.5-.7 2.3-.3.7.3 1.8.4 4.5.4 3.3 0 3.6 0 4 .6.3.5.4.5 1.7.2a6 6 0 0 1 2.1 0c1 .1 1.7-.4 2.4-1.8a19 19 0 0 1 4.8-4.8c.6-.4 1-.8 1-1 0-.4.3-.6.8-.7.4 0 1-.2 1.5-.4.7-.1 1.1 0 1.8.3 1.4.7 2.3.6 3.9-.4 1.5-1.1 2.4-1.2 2.6-.1 0 .4-.2 1-.8 1.6-.4.6-.7 1.2-.6 1.3 0 .1.7.2 1.5.2 1 0 1.6-.2 2.8-.9 1.7-1 4.5-1.6 6.4-1.3.8.1 1.7 0 3-.4s2.2-.5 3-.4c1.7.2 1.3.8-.6.8-.9 0-2.2.2-2.9.5-.8.3-1.6.4-2.3.3-1.6-.2-4.6.3-6.2 1-2 1.1-6.2 1.3-6.2.3l1-1.1c1.2-1 1.5-2 .6-2-.3 0-.5.2-.5.3 0 .3-2 1.2-3 1.5-.7 0-1 0-1.5-.4l-.8-.6c-.5 0-5 2.5-6 3.4-1.4 1-2.9 3.1-2.6 3.5 0 .2.3.3.6.3.6 0 7.3-3.3 7.7-3.8.3-.4 1.3-.3 1.3.1l-.4 1.2c-.5 1.2-.3 1.3.8 1 1-.3 5.6-.3 7.1 0 .8.2 1.3 0 2.3-.4 1.6-.9 4.6-.9 5.8 0 .6.5 1 .6 1.7.4.9-.2 3.7.3 5.4.9.7.2 1.8.3 3.4.3 2-.1 2.4 0 2.4.3s-.5.4-2 .6c-1 0-2 .2-2 .3a8 8 0 0 1-2.6-.6c-1.5-.5-2.8-.7-4.2-.7-1.6 0-2.2-.1-2.6-.5-.8-.8-4-.6-5.6.2-1.3.7-1.4.7-2.8.3a19 19 0 0 0-7.3.2c-1.6.4-2 0-1.4-1.1.2-.4.3-.9.2-1l-3 1.3c-5 2.6-5.9 2.9-8.5 3-1.6 0-2.4.1-2.7.4-.3.3-1.1.5-1.8.6-2.7.4-4.1 1.3-2 1.3.6 0 1 .2 1 .4 0 .6-1.8.8-4.7.6-3.7-.4-4-.4-4 .2 0 .4.3.5 2 .7 3.7.3 7.3.2 8.2-.3 1.1-.6 4.4-.5 5.5.2l.9.5 1.6-.6c1.6-.5 1.7-.5 2.2 0 .3.2.5.6.5.8 0 .3 0 .3-.2.1-.1-.4-1.1-.4-1.1 0 0 .5.5 1 1.1 1 .3 0 .5-.2.5-.4 0-.3 0-.3.5-.1.3.2 1 .3 1.4.2 1.7 0 2.5 0 2 .3-.7.5.1.7 2.4.6 2 0 2.4 0 2.8.5.3.3.6.4.7.4.1-.1 1.2 0 2.4.2l3.5.4c2 0 6.6.6 6.9.9v.5c-.3.2-1 .2-3.2 0a70 70 0 0 0-4.7-.4c-3.1-.1-5.7-.5-6.2-1-.4-.4-1-.5-2.6-.4-1.2 0-2.4-.1-2.7-.3-.3-.2-1.4-.3-2.5-.3l-2.2-.2c-.1-.3-.8-.3-2.2.2-1 .3-1.2.3-2.3-.3-.8-.4-1.3-.5-1.9-.4-2.2.5-3.5.7-4.5.5-1.5-.2-1.3-.7.3-.8 1.9-.1 1.5-.6-.5-.6-1.3 0-1.7 0-2 .5-.3.7-3 1.2-4.6.9-1.6-.4-5 .2-7.1 1.2a19 19 0 0 1-11.1 2.2c-1-.4-3.7-.4-5.5 0l-3.7.3c-2 0-2.5 0-3.9.7-1 .6-1.8.8-2.9.8-1.4 0-1.4 0-1.6.8 0 .5-.4 1-.7 1-1 .4-1 .8-.3 1.1.7.3 1 .7.7 1l-2.4.2c-1.3 0-3.4.3-4.8.4a99 99 0 0 1-5.1.4c-2 .1-3 .3-3.8.7-.6.3-1.7.6-2.5.7-1.8.3-2.3.6-2.3 1 0 .5 1.3.7 3 .4l5.5-.7c3-.3 4-.3 4.7 0 .6.1 1.7.2 3.3 0 2-.1 2.5-.3 3-.7.5-.5 1-.6 4.2-.8 4.2-.3 5-.6 3.5-1.4-2.1-1.2-3-2.5-1.9-2.9 1.3-.5 13.6-1 18.7-.6 2.1 0 3.3-.3 3.7-1.3.4-.8.6-.9 5-1.3 4.2-.5 4.4-.5 10.8-.4l7-.1c2.1-.2 2.7-.1 3.5.2.9.4 1.3.5 3 .2 1.2-.2 2.3-.2 3 0l2 .2c1.1 0 1.3.3.7.8-.4.4-1.2.4-2.7 0a7 7 0 0 0-3.2 0c-1.7.3-2.1.2-3 0-1.3-.7-2.8-.6-3 0-.2 1-4.1.9-10.2 0-2.8-.5-3-.5-3.7-.1-.6.3-1.4.4-3.5.4-3.1 0-4.2.2-5.1 1.1-.4.4-1.3.9-2 1.1-1.3.5-1.7.5-4.6.2-4-.4-5-.4-9.6-.2-4.5.2-6 .4-6 .7 0 .4 1.7 1.4 2.8 1.7 1.1.4 1.2 1.2.2 2-.6.4-1.3.6-4.6.9-3 .2-4 .4-4.4.7-.6.6-5.2 1-7.6.6-1.7-.2-2.8-.1-8.3.7-3 .5-5 .6-5.7.3-.5-.3-.7-.3-1.2.2-1 .7-1.8 1.1-2.5 1.1-.3 0-.6.1-.6.3 0 .6 3.6.7 5.3.1 2-.6 4.1-1 6.4-1 2.1 0 2.1 0 2.1.6 0 .7 0 .7-2 .7-1.2 0-2.2.1-2.3.3-.4.4 3.6.4 4.3 0 1-.5 4.2-.9 5.5-.6l4.5.5c3.1.2 3.4.2 4.4-.3 1.6-.9 4.2-1.2 8.1-1 2.5 0 3.6 0 4-.2.8-.5 6.7-.8 7.7-.4.8.3 1 .2 2.2-.5.7-.5 1.4-1 1.6-1.4.6-1 1.9-1.6 4-1.6 1 0 2.4-.1 3-.3a109.8 109.8 0 0 0 8-.6c3-.2 3.6-.1 3.4.5-.2.4-.6.4-2.3.4-1.3 0-4 .2-6.4.6-2.4.3-5 .6-6 .5-1.8 0-1.8 0-3 1.1-1.5 1.6-3.5 2.6-4.5 2.3-1.2-.4-7.3 0-8 .5-.5.3-1 .3-2.4 0-2.8-.3-6.8 0-8.7.8-1.7.6-1.7.6-5.9.3s-6.1-.1-7.7.6c-.4.2-2.2.3-4.2.3a37.8 37.8 0 0 0-8 .8c-1.2.1-1.3.1-1.6-.5-.2-.6-.3-.7-1.6-.6-.8 0-1.7 0-2.1-.2a9 9 0 0 0-3.3.4c-2 .5-2.6.6-3.6.3-.9-.2-2.1-.2-5 0l-4.5.6c-.3 0-1 0-1.5-.2zm6.7-1.3 4-.3c1 .2 4.2-.2 6.6-.7.3 0 1.5-1 2.6-2 1.5-1.4 2.4-2.5 3.3-4.2 1.3-2.3 2.9-4 3.7-3.6.4.1 2.4-1 2.4-1.4 0-.1-.4-.3-1-.3-.8 0-1.6.3-3.6 1.5-2.4 1.4-2.7 1.6-2.7 2.3 0 .8 0 .8-1.1 1-1.4 0-2.6.7-5 2.5-1.4 1-2 1.4-3.2 1.8-.2 0-.3.2-.2.3.2.2 3.1-.5 4.2-1 .5-.3 1.2-1 1.5-1.5.6-1.2 1.1-1.5 1.9-1 .7.3.6.4-.4.8-.8.4-1 .6-1 1.3 0 .9 0 1-1.7 1.6-1 .4-2 .7-2.4.7-.3 0-1 .1-1.3.3-.6.2-1.1.2-2.1 0-1.2-.3-1.5-.3-2 0-.5.4-1.3.5-3.7.4-1.7 0-3.3 0-3.6.2-.6.2-1 1-.8 1.5.3.4 2.5.3 5.6-.2zm-6.6-2a51 51 0 0 1 3.2-.6l1-.2-.6-.5c-.7-.5-1.9-.7-2.4-.2-.1.2-1 .6-2 .9-.8.3-1.6.7-1.7.9-.1.4 0 .4 2.5-.2zm-4.6 0c0-.2-.6-.6-.8-.4-.1.2.2.7.5.7.1 0 .3 0 .3-.2zm13.6-1.2a15 15 0 0 0 6.6-3l1.6-1.3c.4 0 2.8-2.4 2.7-2.5-.6-.6-4 1.4-6.1 3.4-1 1-1.5 1.2-2.1 1.2-.5 0-1 .2-1.3.4-.1.2-.5.4-.8.4-.2 0-.6.2-.7.4-.1.3-.6.5-1.1.6-1.4.2-3 .6-3 .8 0 .2 2.8 0 4.2-.4zm-12.6-.8c0-.3-.6-.8-1-.8s-.4 1 0 1c.4.2 1 0 1-.2zm11.8-1.3c.7-.3 1-.5.6-.5-.6-.2-2.3.4-2.3.7 0 .4.6.3 1.7-.2zm16-.7c.2-.3.2-.4 0-.6-.3-.2-.8.3-.8.8 0 .3.4.2.8-.2zm-33.3-.6c0-.2-.2-.4-.4-.4-.3 0-.4.2-.4.4 0 .3.1.4.4.4.2 0 .4-.1.4-.4zm6.7.3c.6-.3.5-1.2-.1-1.2s-1 .4-.7 1c.1.4.2.4.8.2zm13.5-.7c.4-.4.4-.5.1-.5-.6 0-1.1.4-1 .8.3.4.3.4.9-.3zm-9.6-.1c.6-.2.3-.7-.3-.7s-.7.3-.4.7c.2.2.2.2.7 0zm27.8-.6c.3 0 .4-.3.4-.4 0-.2.8-.8 1.7-1.4.9-.5 1.5-1 1.3-1.1-.4-.1-4.9 2.2-5.3 2.7-.3.4-.3.4.6.4a5 5 0 0 0 1.3-.2zM41 141.3c.5-.5.5-.5-.2-.2-.4.2-.7.4-.7.6 0 .4.4.2 1-.4zm25.5.3c.4-.2.8-.5 1-.8 0-.5.2-.5.8-.4 1.4.3 3.5-1.3 2.8-2-.2-.2-.2-.5 0-1 .4-.6.4-1 .2-1.3-.1-.3-.2-.7-.1-1 .2-.6-.4-1.2-1-.9-.2.1-.3.6-.4 1 0 1.3 0 1.4-.4 1.4-.5 0-.8-1.2-1-4.6l-.5-4c-.2-.4-.1-1 .3-1.9.4-.7.7-1.6.8-2 .1-.5.5-1 1.1-1.3l1-.7c0-.2-.7-.3-1.6-.4-.8 0-1.7-.4-2-.6-.5-.5-1.2-.3-1.8.3-.3.3-.3.5 0 .7h.7c.2 0 .5.1.7.3.5.7-.4.8-1.7.3-.9-.3-1.3-.3-2-.1a7 7 0 0 1-3.6 0c-.8-.3-1.2 0-1 .5.1.6 2.5 1 4 .6l1.4-.2c.5.3-.2.6-2 1-1.5.2-2.3.5-2.8.9l-.7.6.8.3c.6.2 1.2.2 2.9-.1 2-.5 2.5-.4 2.5.1 0 .4-1.7 1-2.6 1-1.8 0-2.5 1.3-1 1.9.5.2 1 .2 2 0 1.5-.4 2-.2 1.3.4-.5.5-3 .6-4.1 0-.7-.4-1.7-1.6-1.7-2.1 0-.7 0-.8-.2-.4v2.2c.2 2.5.4 2.6 4 2.4 2.3 0 2.6 0 2.3.3a6 6 0 0 1-2.4.6c-1.6.1-2 .2-2 .7 0 .9.8 1 2.5.5l2.3-1.1c.5-.4.9-.5 1-.3 0 .4-.6 1-2.6 2-1.3.7-1.8 1.2-1.9 1.6-.1 1 .9 1 3 .2 1-.4 1.8-.7 1.9-.6.3.3-.2.8-1.9 1.5-.9.4-1.7 1-1.8 1.2-.2.6.5.5 1.7-.1 1.4-.7 1.7-.7 2.2.3.5 1 .4 1.3-1 2-1 .6-1.2 1-.6 1.2l.3.2.9-.3zm-.8-16.5c0-.2.1-.4.3-.4.1 0 .3.2.3.4s-.2.4-.3.4c-.2 0-.3-.2-.3-.4zm-39.4 16c0-.2-.1-.3-.3-.3l-.2.4c0 .3.1.4.2.3.2-.1.3-.3.3-.4zm37.3-.1c0-.2-.5-.8-1-1.3-.8-.7-1.1-1.2-1-1.6L61 137c-.3-.4-.5-1-.5-1.4 0-.4-.3-1-.6-1.4-.5-.4-.6-.8-.5-1.2 0-.4 0-.5-.3-.5s-.5.1-.5.3l1.6 5.1c.6 2 3.2 4.5 3.2 3.2zm-43.6-.2-.3-.2c-.2 0-.2 0-.1.2 0 .2.2.3.2.3.1 0 .2-.1.2-.3zm19.9-1.4 1.5-1.7c0-.6-1.3-.3-2.1.4-.7.5-1.6 2-1.6 2.6 0 .4.9-.1 2.2-1.3zm-12 .6c0-.1-.1-.2-.3-.2-.1 0-.2 0-.2.2s0 .3.2.3.3-.1.3-.3zm18.3-1.3h-.7c-.4.2-.7.5-.7.6l.7-.1.7-.5zm-20.2-.1c0-.3-.5-.4-.6-.2-.1.2 0 .3.2.3l.4-.1zm23.5-.3c1.3-.9.3-1.2-1.4-.5-.5.2-.9.5-.9.6 0 .5 1.7.4 2.3-.1zm-4.9-.6c2.8-.8 5-1.6 6-2.3 1-.6 1.4-1.2.9-1.2-.2 0-.6 0-1-.2-.8-.1-1 0-1.3.9-.4.9-.5 1-1.3.8-.6-.1-1.2 0-1.9.4l-1.3.5c-.2 0-.7.4-1.2.8-.5.5-.7.8-.5.7l1.6-.4zm11.2.1c.3-.2.5-.4.4-.5 0 0-.4 0-.8.4-.7.5-.4.7.4.1zm-40.6-.3-.3-.8c-.2-.5-.3-.6-.5-.4-.2.2-.2.4 0 .8.2.5.8.8.8.4zm61.1-.3c.7-.5 3.3-1.2 3.8-1a353.6 353.6 0 0 1 9.2-.7c.4 0 .2-.6-.4-1.4-.9-1.1-1.3-1.2-3.3-.4-2.2.8-5.2 1.4-5.9 1-.5-.3-1.8 0-4.5.7-1.4.5-2.2 1.2-2 1.8.2.6 2.3.6 3.1 0zm-58.1 0c.2-.2-.1-.9-.5-.9-.2 0-.4.2-.4.4 0 .6.5.9.9.5zm37.4-.6c.5-.2.6-.4.4-.6-.3-.3-1.7.2-1.5.6.2.3.2.3 1 0zm-42.5-.3c0-.1-.1-.2-.3-.2-.1 0-.3 0-.3.2s.2.3.3.3c.2 0 .3-.1.3-.3zm80.8-.5c1.6-.1 2.8-.5 4.4-1.2l3.7-1.2 2.6-.6c.8-.3 2-.4 4-.4 1.8 0 2.7 0 3-.2.4-.5-1.7-.6-7.1-.3-1.3 0-2.5.2-2.7.3l-3.3.6c-2.8.4-4.5.8-7.3 1.8-1.6.6-1.5 2 0 1.6l2.7-.4zm-62.4-.7c0-.3-.1-.1-.1.3s0 .6.1.5v-.8zm11-.2-.6.1c-.5.3-.6.6-.3.9.2.2.8-.5.8-1zm-12.5.1c.5-.8.3-1.2-.3-.6l-.5.9c0 .4.5.2.8-.3zm44.5-.3c.3 0 1-.4 1.6-1a6.7 6.7 0 0 1 4-2c.6 0 1.5-.3 2-.4a21 21 0 0 1 2.6-.5l3.5-.6c1-.3 1.7-.3 1.8-.2.4.7-.8 1-5.5 1.7-4.2.6-6.3 1.3-5.7 2l1.6.3c1.2.1 1.7 0 4.3-.8 3.2-1.2 4.3-1.2 5-.1.5.7.7.7 3.2 0a70.8 70.8 0 0 1 12-2.3c.3-.2.3-.3-.2-.4l-1-.4h-1.3a9 9 0 0 1-2.5 0c-1-.2-2.5-.3-3.4-.3-1.3 0-1.9-.1-2.5-.6-.7-.4-1.3-.6-2.5-.6l-2.4-.2c-.7-.2-.9-.1-1.5.6l-.7.9-1.1-.6c-2.3-1-2.7-1.1-3.9-.8a4 4 0 0 0-1.5.8c-.3.3-.6.5-.8.5-.2 0-.5.3-.7.6-.2.3-1 .6-1.6.8-.8.2-3.8 1.7-5 2.5l.3.8c.2.5.4.6.9.5l1-.2zm-49-.3c0-.4-.7-.8-1-.6-.4.2.2 1 .6 1 .3 0 .4-.2.4-.4zM28 133c0-.9-.3-1.7-.4-2-.3-.6-.6 1-.3 1.8.2.3.3.9.3 1.2 0 .2.2.5.3.5.2 0 .2-.5.1-1.5zm-13 .5c-.1-.7-.1-.7-.3-.2-.1.3-.2.6-.1.7.2.4.3.2.3-.5zm8.1.2v-.3l-.4.3c0 .1 0 .2.2.2.1 0 .2 0 .2-.2zm8.8-.4c.2-.7 0-1-.3-.8-.3.2-.3 1.4 0 1.4.1 0 .3-.2.3-.6zm-18.6-.4c0-.2 0-.3-.2-.3s-.3.1-.3.3c0 .1.1.3.3.3l.2-.3zm39.2-.4c.5-.5 0-.7-1-.3-.5.3-.8.5-.7.7.2.3 1.1 0 1.7-.4zm-16.7-.8v-.9c-.2-.3-.3-.3-.6 0a3 3 0 0 0-.6 1.3l-.2 1 .7-.5c.3-.2.6-.6.7-.9zm87.6.8c0-.3-.1-.4-.3-.3-.5.1-.6.7-.1.7.2 0 .4-.2.4-.4zM6.3 129c-.4-1.7-.7-.5-.3 1.6.4 2.3.4 2.3.6.7 0-.7 0-1.8-.3-2.3zm49.1 3.4c.6-.3.5-.7 0-.7-.3 0-.6-.1-.7-.3 0-.2-.3-.2-.6-.1-.4.2-.4.2 0 .7.5.6.7.6 1.3.4zM34 130.2c.5-1.3.6-1.8.3-1.8-.2 0-1.1 2.1-1.1 2.7 0 .5.3.1.8-1zm39.7.2c2.6-.7 3.4-1 5.7-2 2.3-1.2 6-2 8-1.8 1 .1 1.2 0 1.7-.7.2-.5 1-1.3 1.7-1.7 1-.7 1.3-.8 1.8-.5.6.3.8.2 2.2-1.3 2.4-2.6 4.5-3.8 7.6-4.4.8-.1 2.4-.6 3.6-1.2 1.4-.6 2.8-1 4-1.1 1.2-.1 2.2-.4 2.4-.5.3-.2.5-.3.9 0 .3.1.7 0 1.3-.2.7-.3 1-.3 1.4-.1.4.2 1 .1 2-.3l10-3c1-.3 1.4-.5 1.3-.8-.2-.5 1.3-.7 2-.3.8.6.9.5 2.5-.2.7-.4 1.7-.7 2.2-.7 1.5 0 3.5-.3 3.5-.6a47.2 47.2 0 0 1-6 0c-4 0-4.6.2-9.7 1.7A1154.6 1154.6 0 0 1 104 116c.4-.4 4.3-1.6 11.2-3.6l6.6-2c.7-.4-4.6-.1-6 .3a49 49 0 0 0-7.9 2.9l-1.5.5a17 17 0 0 0-4.3 2.1c0 .2-.4.3-.6.3-.2 0-1 .4-1.6.9-1.2 1-1.4 1-5.2 1.5-1.5.1-3 .4-3.3.6-.4.3-2.2.7-4 1-2 .3-3.4.7-3.4.8 0 .1.1.2.3.2.6 0 .1.9-.9 1.4-1 .5-1.5.5-4.1.5-2.9 0-4 .2-4 .7 0 .4 1 .6 3.2.7 2.4.2 4.7-.4 5.9-1.4.8-.7 1.1-.8 2.2-.8 1.3 0 5.8-1.4 7.8-2.4 1.2-.6 2-.7 2-.3 0 .2-.1.3-.3.3l-1.3.7c-1 .7-3.8 1.7-8.8 3.3-.6.1-1.6.8-2.2 1.4-1 1-1.3 1.2-2.3 1.1a20.2 20.2 0 0 0-10.7 3.9c0 .3 1 .2 3-.2zm-42.5-.7c.5-1 .5-1.6 0-1-.3.6-.7 1.8-.5 1.8l.5-.8zm-16-.4c0-.2-.1-.4-.3-.4l-.2.4c0 .2 0 .4.2.4s.3-.2.3-.4zm14.7-1.3.3-1.7c.1-.8-.2-1.2-.6-.6-.3.6-1 3.3-.7 3.5.2.4.8-.3 1-1.2zm6.5.4c-.2-.3-.3-.2-.5.2-.2.3-.2.6-.1.7 0 0 .3 0 .5-.2.3-.3.4-.5.1-.7zm15.2.9.4-.4c0-.4-1-.3-1.5.1s-.5.4 0 .4l1-.1zm3.2-1.1c.1-.3 0-.4-.5-.3-.3 0-.6.3-.7.4 0 .3 0 .4.5.3.3 0 .7-.2.7-.4zm49 .2c.5-.2 2.2-.4 3.8-.4 2.7-.1 7.5-1 8.4-1.5.8-.4-.9-.7-5-.8-4-.2-4.2-.1-5.8.5-1.6.6-2.4 1.4-2.4 2.1 0 .4-.1.4 1 0zM3.3 127l-.1-.4c-.2-.1-.3 0-.3.2 0 .5.2.6.4.2zm25.2-.5c.1-.4 0-.6-.3-.6-.5 0-.8.5-.6 1 .3.5.8.3 1-.4zm9.7-1c-.3-.5-.9 0-.9.7v.9l.5-.7c.3-.3.5-.7.4-.8zm57 .2c.2-1 .6-1.2 3-2 .3-.1.6-.4.7-.7a17.3 17.3 0 0 1 7-4.1l2.5-1c1.5-.4 2.4-1 1.8-1-.6 0-3.5 1-5 1.6-1 .5-1.9.7-2.2.6a2 2 0 0 0-1.2.1l-1.8.7c-.6.2-1.5.6-2 1l-1 .8c-.5 0-2 1.6-2 2 .1.6-.2 1.7-.5 1.7s-.6.8-.4 1c.3.6 1 .1 1.2-.7zm-90.4 0-.3-.2-.3.1c0 .2.2.3.3.3l.3-.1zm43.4-1c0-.2-.2-.4-.3-.4-.1 0-.3.2-.3.4s.2.4.3.4c.1 0 .3-.2.3-.4zm8.4-.3c0-.2-.1-.4-.3-.5-.3-.2-.7.4-.5.8.1.5.8.2.8-.3zm-28.3-.2c0-.3 0-.4-.3-.4-.2.1-.4.4-.4.6 0 .3 0 .5.2.4.2 0 .4-.3.5-.6zm14.2-.3c-.2-.3-.7.2-.5.5 0 .1.2.1.4 0 .2-.2.2-.4.1-.5zm16.3.3c0-.4-.6-1-1-1s-.5.9-.2 1.2c.3.3 1.2.2 1.2-.2zm-23.7-.6c0-.3.3-.7.4-1l.7-2.4c.6-1.8.6-1.8 0-2.4-.7-.7-.6-1.7.3-3.6.5-1 .8-1.7.6-1.8-.3-.3-4 3.5-4 4 0 .4.2.5.6.5.5 0 .7.2.7.4s.4.6.8.8c.4.2.8.5.8.7 0 .5-1.3 4.3-1.6 4.6-.4.4-.3.7.2.7.2 0 .4-.3.5-.5zm-6-1.2c0-.1-.1-.2-.2 0-.2 0-.3.3-.3.5 0 .4 0 .4.3.1l.2-.6zm21.4.2c0-.2-.1-.4-.3-.4-.3 0-.4.2-.4.4s.1.4.4.4c.2 0 .3-.2.3-.4zm-38.3-.5c0-.4-.3-.6-.6-.3s0 1 .3.8c.2-.1.3-.3.3-.5zm2.1 0c0-.6-.9-.5-1 .2 0 .3 0 .4.5.4.3 0 .5-.1.5-.5zm14.1-.8c-.2-.4-.6.1-.6.9v.7l.4-.7c.2-.4.3-.7.2-.9zm15 1.1-.4-.2c-.1 0-.3 0-.3.2s0 .3.3.3.4-.1.4-.3zm4.9 0v-.6c-.2-.2-1 .4-1 .7 0 .4.8.3 1-.1zm8-.5c0-.7-.3-1-.6-.5-.2.4.1 1.3.4 1.3.2 0 .3-.3.3-.8zm-46.1.3-.1-.3c-.2 0-.3.2-.3.3l.1.3.3-.3zm30.3-1.2c0-1.6.3-2.2 1.2-2l.7.1-.6-1c-.3-.7-.6-1.2-.8-1.2l-.9 1.2c-.6 1.1-.7 1.4-.5 2.7 0 1 .3 1.4.5 1.4.3 0 .4-.3.4-1.2zm17.7-.3c0-.2-.1-.4-.3-.5-.4-.3-.8.3-.6 1 .1.4.2.4.5.2s.4-.5.4-.7zm5.6.3c.3-.6.3-.7-.3-1.3-.9-.8-3.5-1.2-3.4-.5 0 .4.4.5 1.3.6 1.5 0 1.8.4 1.2 1-.2.3-.3.6-.2.7.4.4 1 .1 1.4-.5zm9.4-1.2c.4-.3.6-.8.6-1 0-.3.2-.6.3-.7.2-.2.3-1 .4-1.7.2-1.2.1-1.3-.3-1.3-.2 0-.7.3-1.1.7-.7.7-3 1.6-3.5 1.2l-.7.1c-.3.2-.3.3 0 .7.4.6 2.1.7 3.3.1 1-.5 1.6-.2 1 .4-.7.5-2.2 1-3.3 1-.7 0-1.2.2-1.5.5-.6.7-.4.9 1.1 1 1.4.3 2.8-.1 3.7-1zm-17-3.4c-.2-.2-.4.2-.6 1.6-.2 1.1-.1 1.6.2 2.2.4.7.4.7.5-1.5v-2.3zm-41.8 4c.2-.3-.3-.7-.6-.4-.3.1-.1.6.2.6.2 0 .3 0 .4-.2zM28 120v-.5c-.2-.2-.6.2-.6.6 0 .5.4.5.6 0zm4.7-.7c.5-1.2.6-1.5.3-1.5-.4 0-1 1.1-1.3 2-.3 1 .4.8 1-.5zm4.7.8c0-.3-.5-.4-.6-.2-.1.2 0 .3.2.3l.4-.1zm30.4-1.4c0-.7-.8-1.7-2.4-2.8A20 20 0 0 1 63 114c-.3-.4-.8-.7-1-.7-.7 0-.6.7.4 1.7 1.2 1.2 1.4 1.7.7 1.7-.5 0-.5.4 0 .8.2.2.7.2 1.2.1.8-.1.8 0 .8.7 0 .8 0 .8 1.3.8 1 0 1.3 0 1.3-.4zm-8.7-.2-.2-.3-.3.1c0 .2.1.3.3.3l.2-.1zm-44.3-.7c.2-.3-.1-1-.4-1-.2 0-.3.2-.3.6 0 .7.4.9.7.4zm23.5-.5c0-.8-.5-.7-.6.1 0 .5 0 .7.3.6.2 0 .3-.4.3-.7zm13.4.5-.1-.3-.3.3.1.3c.2 0 .3-.1.3-.3zm39.4 0c.2-.1.3-.3.2-.4-.2-.3-1 0-1 .4 0 .3.3.3.8 0zm-50.8-1v-1c-.3-.7-1 0-1 1 0 .6 0 .8.4.7.3 0 .5-.4.6-.7zm59.2-.3c.9-.2 1.7-.5 2-.7l1.6-1c1.6-.7 1.7-1.3.3-1l-3.2.8c-2.2.5-4 1-5.6 1.8l-1 .5 1.2.1a4 4 0 0 1 1.3.3l1-.1 2.4-.7zm-41 .1c.1-.3 0-.4-.2-.3-.2 0-.4.3-.5.6 0 .3 0 .4.3.3.2 0 .4-.3.4-.6zm-27.2 0a4 4 0 0 0 1.3-1c.2-.5 1-1.4 1.6-2.2 1-1.4 1.3-2 .9-2a29 29 0 0 0-4.8 5.3c0 .4 0 .4 1-.1zm-28.9-.4c0-.2-.1-.2-.1.1v.4c.2-.1.2-.3.1-.5zm35.3-.8c.7-1.4.9-2.4.4-2.2-.4.1-1.5 2.3-1.5 3 0 .6.7.2 1.1-.8zm24.3.8c.3-.2.3-.3-.2-.9-.7-.7-1.3-1-2.1-.6-.8.2-.7.7 0 .7.4 0 .9.3 1.1.6.6.6.7.6 1.2.2zm24.6-.5c0-.1 0-.3-.2-.4-.2-.1-.3 0-.3.2 0 .3.1.5.3.5l.2-.3zm-17-.4c2.5 0 3.5-.2 3.5-.8 0-.2-.5-.4-1.7-.5-.9 0-2.2-.3-3-.6-1.3-.4-3.4-.5-4-.1-.5.3-.2 1.1.8 1.8.6.4 1 .6 1.5.4l2.9-.2zm14.2-.1c.1-.2 0-.3 0-.4-.2-.1-.3 0-.3.2 0 .5.1.5.3.2zm6.8-.1c.2-.3.2-.5 0-.6-.3-.2-1.1.4-1 .7.3.3.6.3 1-.1zm-75.2-.5c0-.3 0-.5-.4-.5-.6 0-1.2.6-1 .9.4.3 1.3 0 1.4-.4zm73.2-.2c.6-1.1.5-1.4-.1-1.1-.7.4-.8.3-.8-.1 0-.2.3-.6.6-1 .8-.7 1-1.4.3-1l-1.2.9c-.7.5-.7.6-.5 1.5l.4 1.2c.2.6.9.4 1.3-.4zm-46.5-.7c.3-1.2 1.3-1.6 1.6-.7.2.8.3.7 1.4-.4 1-1 1-1.1 1-3.1.2-3.5-.5-2.7-1.6 1.8-.1.3-.1-.2-.1-1 0-1.3 0-1.6-.4-1.6-.5 0-2.2 3-2.4 4.3-.1.5-.2 1.2-.4 1.5-.1.3 0 .4.2.3.2 0 .5-.5.7-1.1zm42.9.2c-.3-.2-.8.2-.6.5.1.2.3.2.5 0 .1-.2.2-.4 0-.5zm-74.8.2-.3-.3-.3.3.3.3.3-.3zm21-.2c.2-.2 0-.3-.1-.3-.2 0-.4.3-.5.5 0 .2 0 .3.2.2.2 0 .4-.3.5-.4zm60.7-.1.3-.8c0-.3.2-1 .5-1.5.8-1.6.6-1.9-.4-.7-1.3 1.4-2 3-1.6 3.1.5.3.8.2 1.2-.1zm2.7-.9c.3-.4.7-.7.9-.7.5 0 1.1-.8 1.4-1.8.2-1 .7-1.1.8-.3.1.9 1 .6 1.2-.4.3-1 .6-1.1.8-.4.3.8 1.3.7 2.1-.2.4-.5.7-1.1.7-1.4 0-.8.7-.4.8.5 0 .7.2.9.8 1 1.1.3 1.4-.1 1.4-1.7 0-1.5.3-1.7.8-.5.3.9.6 1 1 .2.2-.3.1-.6-.1-.8-.6-.7 0-1 1.3-.8l1.6.3c.2 0 .6-.2.8-.6.4-.7.4-.7-.3-1.5l-1.6-1.3c-1.6-.8-5.8-.3-6.1.8 0 .2-.4.5-.6.5-.6 0-1.2.6-1 1 .1.3 0 .7-.2 1-.4.5-.5.5-.7 0-.4-.6-1.1-.6-1.5 0-.2.4-.6.6-1 .7-.4 0-.6.3-.6 1 0 .5-.3 1-.7 1.1-.6.4-3 4-3 4.6 0 .6.3.4 1-.3zm-20.2-.2c.4-.3.4-1.2 0-1.2s-2.6 1-2.6 1.3c0 .4 2.2.3 2.6 0zm-72-.5c0-.2-.1-.1-.1.2v.3c.2 0 .2-.3.1-.5zm107 0c1.7-.3 2-.5 1.5-.8-.4-.2-3.1-.1-3.6.2-.2 0-.4.4-.6.7-.3.6-.4.6 2.8 0zm-76.3-.6c.4-.4.6-.8.6-1 0-.1-.5.2-.9.7-.8 1-.6 1.3.3.3zm-22.5 0c0-.3 0-.4-.3-.4-.2 0-.4.2-.4.4 0 .5.6.4.7 0zm30.7-.3a6 6 0 0 0 1.7-2.8c0-.2-.2-.5-.5-.8-.3-.3-.5-.4-.9-.2-.6.3-.6 0 0-.7.5-.7.4-1.2-.2-1-1 .3-.5-.4 1.3-1.8l1.9-1.4.1-.5c.4-1-.8-.3-2.3 1.2-1 1-2 1.9-2.6 2.2-1.1.6-3 2.2-3 2.7 0 .7.9.3 1.9-1 .6-.8 1.1-1.2 1.2-1 .1.1-.2.7-.7 1.3-.6.6-1 1.2-1 1.4 0 .2-.2.7-.5 1-.7 1-.3 1.2.5.4.4-.4.8-.7 1-.7l.7-.4c.5-.5.5-.4 0 .6-.3.6-.3 1-.1 1.4.3.6.7.7 1.5.1zm24.8.1c.3-.3-.2-.7-1.1-1-.7 0-1.2.4-1 1 .2.4 1.9.4 2.1 0zm18.8 0c.1 0 0-.2-.2-.2-.3 0-.4.1-.4.3 0 .1 0 .2.2.2l.4-.2zm-23.1-.7c.5-.7.6-1.4 0-1.6-.2 0-1.1 1.5-1.1 2.1 0 .5.5.2 1-.5zm17.7.2c0-.3-.1-.5-.3-.5-.3 0-.6.5-.4.8.3.4.7.3.7-.3zm34.2-.1 1.2-.7c0-.4-2.8-.3-3.1.2-.4.4-.2.9.3.9l1.6-.4zm-41.7-.2c.2-.4 0-.4-2.2-.8-1.2-.2-2.5-.6-2.8-.9-.4-.2-.8-.3-1-.2-.3.2-.3 1.4 0 1.6 1 .6 5.6.9 6 .3zm9.5-.2c0-.6-.8-.5-1 0 0 .4.1.5.5.5.3 0 .5-.3.5-.5zm-33.8-.7c.5-.4 1.3-2.1 1-2.4-.2-.2-1.2.7-1.6 1.6-.7 1.2-.5 1.6.6.8zm36.3.2c0-.3-1.4-1.4-1.7-1.4l-.2.6c0 .3.2.5.5.5s.6.1.7.3c.2.3.7.3.7 0zm-69-.3c0-.3-.4-.5-.6-.4-.3.2 0 .7.3.7.1 0 .2-.1.2-.3zm-4.3-.2c0-.2-1.5-1.1-1.9-1.1-.5 0-.2.5.5.9.8.4 1.4.5 1.4.2zm63-.6c.2-.4.2-.5-.3-.5-.3 0-.8.1-1.1.3-.4.2-.5.3-.2.5.6.4 1.3.3 1.6-.3zm14.8.2c.7-.1 1-.5 1-1s-.3-.7-.6-.2l-1 .2c-.7 0-1.3.4-1.3 1 0 .3.2.4.8.2l1-.2zm31.5-.1c.4-.2.2-.9-.3-1.1-.8-.5-5.5-.2-6.6.3l-1 .5.7.2c1.1.3 3.1.3 3.9 0 .6-.3.7-.3 1 .1.1.4.4.4 1.2.3l1.1-.3zm-34.7-.2a2 2 0 0 0-.4-.8c-.3-.5-.4-.5-.5 0-.1.2-.1.6 0 .8.1.5 1 .5 1 0zm7.2 0c.2-.5-.3-.8-.6-.5-.3.3-.1.9.3.9.1 0 .3-.2.3-.4zm32 0c.6-.1.9-.1 1.2.1.6.5 3-.2 2.6-.8 0-.1-1-.2-2-.1-1.9.1-4 .7-3.4 1 .6.2.6.2 1.5-.1zm-55.2-.1c.1-.3-.3-.7-1-1-.6-.1-1 .6-.4 1 .5.3 1.2.3 1.4 0zm7-.8c.6-1.2.7-1.8.2-2-.4-.3-1 .6-.8 1.2 0 .3 0 .8-.3 1.1-.4.6-.4.7 0 .7l.9-1zm-73.4-.2c-.1-.3-.2-.4-.4-.2s-.3.5-.2.8c.2.3.3.4.5.1.2-.1.2-.5.1-.7zm4.6.3c0-.5-1-1-1.5-.8-.4.1-.4.2.2.7.8.6 1.3.6 1.3 0zm74.2.2c.2-.3-1.7-1.7-2-1.5-.3.2 1 1.7 1.5 1.7l.5-.2zm40.1 0c0-.2-.2-.3-.4-.3s-.4 0-.4.2.2.3.4.3.4-.1.4-.3zm-60-.3c.2-.1 0-.8-.1-1.4l-.4-1.2-.2 1c-.2 1.3.3 2.4.8 1.6zm11.7-.8c.6-.5.3-.8-.8-.8-.5 0-1 .1-1.1.4-.2.4-.3.4-.9-.3-.6-.7-.6-.7-1.9-.4-1.4.4-1.9.2-4-1.4-1-.8-1.5-.8-1 0 .3.6 4 2.5 5.4 2.7 1.4.3 3.8.2 4.3-.2zm12.5-.5c-.2-.4-.2-.4-.6 0-.4.4-.4.5 0 .7.4.3.8 0 .6-.7zm-3 .4c-.1-.6-2-2-2.8-2.1-1.1-.1-1.2.5 0 1 .4.2 1 .6 1.3 1 .5.5 1.4.6 1.4 0zm-78.1-.2c0-.2-.3-.3-.7-.3-.3 0-.6.1-.6.3 0 .1.3.3.6.3.4 0 .7-.2.7-.3zm59.2-.1c0-.3 0-.4-.2-.4-.3 0-.6.4-.4.6.3.3.6.2.6-.2zm28-.2s0-.3-.2-.4c-.5-.3-.2-1 .7-1.9l1-1-.8-.5c-.8-.7-1.2-.8-2-.4-.7.4-1.4 0-1.8-.8-.3-1-1-1.3-1.4-.7-.1.3-.6.6-1 .8-.5.2-.7.4-.6.4.5 0 .4.8 0 1.3-.5.3-.5.3.2.2.6-.2.8-.1.9.3 0 .5.3.6.8.4.4 0 1-.2 1.2-.4.6-.3.9.3.3.8-.6.7-.5.7.7.7 1 0 1.2.1 1.2.6v.7c.1.3.9.2.9 0zm-55.3-.4c1.8-.5 2.8-1.2 3.5-2.4.8-1.3.7-1.5-.7-.8-.8.5-1.4.6-1.8.5-.4 0-.6 0-.6.2 0 .3-1.6 1.2-2.1 1.2-.2 0-.5.2-.5.4-.1.2 0 .3.2.1.2-.1.3 0 .1.5-.2.9 0 .9 2 .3zm56.6-.3c.2-.4.7-1.1 1.2-1.6 1-.9.9-1.4-.2-1.2-.5.1-.6.3-.5.6 0 .3-.2.8-.5 1.1-.4.3-.7.9-.7 1.2 0 .9.4.8.7-.1zm-40.5-.7c.6-.9.6-1.2 0-1.2-.4 0-1.8 1.8-1.6 2 .2.5.8.1 1.6-.8zm-4.6.6-.1-.2c-.1 0-.2 0-.3.2v.3c.2 0 .4-.1.4-.3zm36 0-.3-.2c-.1 0-.3 0-.4.2-.1.2 0 .3.2.3.3 0 .5-.1.5-.3zm-34.5-1.2c0-.2 0-.4-.3-.4-.2 0-.4.2-.4.5 0 .4.5.4.7-.1zm21.4.2c.8-.3 1.1-.7.7-.9-.4-.2-2 .4-2 .8s.3.4 1.3 0zm26.3 0 .4-.7c0-.4.5-.8 2.1-1.5a5 5 0 0 0 1.3-1c.5-.5.5-.5 0-.5-.3 0-.9.2-1.2.5-.4.3-1 .6-1.5.7-.7.1-.9 0-1.1-.4-.3-.6-.3-.6-.8-.1-.3.2-.5.8-.5 1.3 0 .4-.2 1-.4 1.1-.3.2-.4.5-.3.6.2.3 1.5.3 2 0zm-85.3-.7c-.3-.3-.5 0-.3.4.2.3.2.3.3 0v-.4zm2.4-.5c-.1-.4-.4-.7-.6-.7-.5 0-.5.6-.1 1.4.4.7.9.2.7-.7zm47-1c0-1.8 0-1.9-.4-1.7-.3.2-.3 2.8 0 3.5.2.8.5-.1.4-1.7zm20.5 1.8c0-.3 0-.4-.2-.3-.2.1-.2.3-.2.4.3.4.4.3.4-.1zm45.2.2c.6-.4-.2-1.1-1-1-1 .2-1 .6-.2.9.8.3.8.3 1.2 0zm-78-1.6c2-2 3-2.2 2.3-.4l-.4 1 .8-.9.8-.8-.4-1c-.2-.4-.7-1-1-1-.3-.1-.5-.4-.4-.6.5-1.5.5-2 .1-2s-1.1.6-1.3 1.1c-.1.2-.1-.1 0-.8l.1-1.3h-1c-1.4.2-1.4-.5 0-1 1.2-.4 2.3-1.3 2.3-1.8 0-.6-.8-.4-2.3.6-3 2-2-.1 1.8-3.6 1.3-1.2 2-2.1 1.4-2.1-.2 0-1.9 1-3.6 2.3a28.6 28.6 0 0 1-3.1 2.1l-1.2 1c-.7.5-1 .6-1.3.4-.3-.2-.6 0-1.4.8-.9 1-1 1-.5 1 .3 0 1-.1 1.6-.4 1.6-.7 2-.3.4.5-1.4.8-1.7 1.3-.9 1.3.5 0 1.6-.7 2-1.1l1-.6c1.2-.7 1.6-.2.8.8-.3.5-.5 1-.4 1.4.1.3 0 .8-.3 1.2-.6 1-.3 1 .6.3a3 3 0 0 1 1.1-.7c.5 0 .3 1-.3 1.8-.7.8-1.2 1.7-1.2 2.1 0 .7 1 .3 2-.7.5-.6 1-1 1.2-1 .4 0 .2.7-.3 1.6-.6.8-.7 1.7-.4 1.7.2 0 .8-.5 1.4-1.2zm-41.4.7c.1-.1-.3-.2-1-.2-.8 0-1 0-.7.2.5.4 1.5.4 1.7 0zm59.9-.2c0-.2-.2-.3-.7-.3-.6 0-.8.1-.8.4 0 .5 1.3.4 1.5 0zm75.6 0c2.3-.7 3-1 5.2-2.5a8.8 8.8 0 0 1 2.6-1.4c.4.3 4-.4 4-.7a37.2 37.2 0 0 1-5.7 0c-3.5 0-4.5 0-5.5.5-.6.2-2.4.5-4 .6l-3.7.4c-1.5.4-5.7.5-12.1.5a98.4 98.4 0 0 0-6.5-.2c-.6-.1-1.2 0-1.8.2-.5.2-2 .5-3.3.6-1.3 0-2.4.3-2.3.4l.6.2a42.6 42.6 0 0 1 4.4.6l4-.2 4.2.1c1 .4 6.6.9 10.6.9 2 0 4.4 0 5.2.2 1.5.2 2.4.2 4-.3zm-68.7-.3c0-.6-.5-1-1.3-1s-1.5.6-1.2 1c.3.2 1.1.4 2 .5.3 0 .5-.2.5-.5zm7 .1c0-.2.8-.7 1.5-1l1.3-1-.9-1.1c-.9-1-1-1-2.1-.8-1.2.1-1.2.1-1.5-.7-.3-.9-.7-1-1.4-.5s-.3 2.3.5 2.6c.4.2.7.5.7.8 0 .7.2.7 1 0 .9-.7 1-.2.3.8-.8 1-.3 1.9.5 1zM11 103c0-.2-.2-.3-.4-.3s-.3.1-.2.3c0 .1.2.3.4.3l.2-.3zm25.2-.3-.3-.2c-.1 0-.3 0-.3.2s.2.3.3.3c.1 0 .3-.1.3-.3zm34.8-.5c0-.3-.5-.5-1.6-.6-1-.1-2-.4-2.5-.6-.5-.3-1-.4-1-.3-.3.3.2.7 1 .8l1.5.8c.7.5 1 .6 1.7.4.5 0 .9-.3.9-.5zm-7.6 0c0-.3-.7-.7-1-.5-.2.3.2.8.6.8.2 0 .4-.2.4-.3zm33-2c1-1 1.9-2.2 2-2.6.2-.9-.3-5-.6-5s-.5 1.1-.5 2.5c0 1.3-.5 1.8-.7.8-.1-.3-.5-.6-1-.7-.5 0-1.2-.4-1.6-.7-.7-.6-.7-.6-1.6-.1-1 .6-1.6.4-2.2-.7-.5-.9-.8-1-1.5-.3-.5.4-.5.4-.9-.1-.4-.6-1.2-.8-1.5-.4 0 .2-.5.3-1 .3-.7 0-1 .2-1.3.8-1 1.5-.4 1.8 1.1.5 1-.8 1.6-1 1.6-.5 0 .1-.5.6-1.1 1-1.4 1-2.5 2.3-2 2.6.2.1 1.3-.6 2.1-1.5.3-.3.8-.5 1-.5.5 0 .6.1.4.8-.2 1 .2 1 1.6 0 1.4-1 1.8-.6.6.6-1.2 1.4-.8 1.6.7.4.7-.6 1.4-1 1.5-.8l.4 1.1c.1.9 0 1-.4 1.3-.3.2-.6.5-.6.7 0 .7.8.7 1.8-.1 1-.9 1.6-1 2.1-.5s.4.7-.5 1.1c-1 .5-1.2.9-1.2 1.5 0 .4.2.5.8.5.7 0 1.1-.3 2.6-2zm-2.6-4c0-.2.2-.4.3-.4.2 0 .2.2.1.3 0 .2-.2.3-.2.3-.1 0-.2-.1-.2-.3zm-55.3 4c0-.3-.1-.3-.6 0-.4.3-.7.7-.7 1 0 .5 0 .5.7 0 .3-.4.6-.8.6-1zm52 .6c-.5-.4-1 0-.6.5.2.3.4.3.6.1.2-.2.2-.4 0-.6zm-19.1.1c0-.2-2.6-.8-3.6-.8-.6 0-.7 0-.5.3.5.5 4 1 4 .5zm29.1-.7c2.2-1.4 2.9-2 2.9-2.5 0-.2.1-.8.4-1.3.3-.6.3-1 .1-1.5-.4-1-.6-.8-1.3.5-.4.8-.7 1.2-1 1.2-.4 0-.6.3-.7.8-.2.6-.3.6-.5.2-.2-.3 0-.6.3-1.2.5-.6.5-.9.3-1.4-.7-1.9-1.7-.5-1.7 2.4 0 1.5-.2 2.3-.5 2.8l-.5.8c0 .4 1 0 2.2-.8zm-88.2.5h-.5c-.2 0-.2.1.1.2.3 0 .5-.1.4-.2zm-7-.9c0-.6-.2-.8-.6-.8-.6 0-1.2.7-1 1.2.1.2.5.4.8.4.6 0 .7-.1.7-.8zm53-.4c.6-.8 1.2-1.2 1.8-1.3.8-.2 1-.3 1-.8 0-.8-.3-.8-1.5.1-.6.5-1.2.8-1.4.8-.3 0-1.7 1.8-1.7 2.2 0 .6.9 0 1.7-1zm28.4 1-1-1c-.7-.6-1-.6-1.4-.4l-.6.4.7.6c.7.6 2.3.9 2.3.4zm-32.3-1.6c.7-.8 1-1.6.7-1.6l-1.1.6c-1 .8-1.8 1.8-1.6 2.3.3.4 1-.1 2-1.3zm115.2 1.3c.1-.1 0-.3 0-.4-.5-.2-2 0-2 .4 0 .3 1.8.3 2 0zm-98.4-.6c.4-.4.4-.4-.7-.7-1.2-.3-2.6-.1-2.6.4 0 .6 2.6.8 3.3.3zm60.4 0c.4-.2 1.5-.3 2.3-.4l3.3-.2c1.5-.2 1.6-.3 1.3-.6-.4-.3-.8-.3-2.6 0-3.4.4-4.4.4-5.2 0-.5-.2-1.3-.3-2.8-.2-1.6.1-2.6 0-3.7-.3l-3.5-.5c-1.2 0-2.7-.2-3.4-.3-.8-.1-1.2 0-1.2.1 0 .4 1 .6 2.8.6 1 0 1.7.1 1.7.3 0 .1-.8.2-1.7.2-1.8 0-1.6.4.3.7.7 0 1.4.3 1.6.4.2.3.7.3 1.7 0 1.3-.3 1.5-.3 4.8.3 1.2.3 3.6.2 4.3-.1zm-114.3-1c-.4-.3-1.2-.3-1.2-.1l.4.7c.4.5.5.5.8 0 .3-.4.3-.5 0-.7zm59.9.7c-.3-.4-1.4-.8-1.4-.5 0 .4.7.8 1.2.8.4 0 .4 0 .2-.3zm-57-.4c0-.3-.4-.7-.6-.5-.2.2.1.7.4.7.2 0 .3 0 .3-.2zm138-.4c.6-.3 1.8-.4 2.9-.4 1.6 0 2.2-.2 3.4-.8 2-1 2-1.4 0-1.2a14 14 0 0 0-5.7 1.4l-2.3.8-.7.3c-.7.4 1.3.3 2.4-.1zM43.6 98c.7-.6.8-.8.1-.8-.2 0-.7.3-1 .6-.7.6-.7.7-.2.7.3 0 .8-.2 1.1-.5zm38.3.1-.6-.4c-.5-.2-.6-.1-.6.3s.2.5.6.4c.3 0 .6-.2.6-.3zm34.1.1c.1-.1 0-.2 0-.2-.2 0-.4 0-.4.2s0 .3.2.3l.2-.3zm25.3 0c.3-.2.3-.2-.2-.2-.3 0-.6 0-.6.2 0 .4.3.4.8 0zM65.6 98c0-.3-2-1.9-2.4-1.9-.1 0-.2.2-.2.5.2.7 2.6 2.1 2.6 1.4zm83.8-.2c4.6 0 4.5 0 4.2-.4a32 32 0 0 0-5.3-.3c-5.3-.2-7.5-.3-10-.6a27 27 0 0 0-7 .4c0 .2.2.3.4.3.3 0 .6.1.7.4.2.5.8.5 2.7 0 1.9-.5 6.4-.4 7.5.2.5.3 1 .4 1.9.2l4.9-.2zm-97-.2.4-1c.1-.6 0-.8-.2-.8-.4 0-1 1.3-1 2 0 .3.4.2.7-.2zm4.6.2c.2 0 .7-.8 1.1-1.6.6-1 .7-1.5.5-1.7-.3-.2-.5-.2-1 .1-.8.5-2 2.3-2 3 0 .4.7.5 1.4.2zm11.5-.3c0-.5-1.6-1.7-2-1.5l-.8.1c-.6 0-.3.6.6 1.1.8.5 2.2.7 2.2.3zm9.3-.7c0-.4 0-.7-.3-.7s-.8 1-.6 1.4c.3.4.8 0 .9-.7zm-1.7-.2c0-.4-.2-.6-.6-.7-.3 0-.7-.4-.8-.7-.3-.6-1.1-1-1.1-.5 0 .8.6 1.9 1.2 2.3 1 .5 1.3.4 1.3-.4zm52.8.4c.9-.3.9-.3-1-.3-1.1 0-2.2-.2-2.5-.4-.4-.2-.7-.2-1.3 0l-.7.4.8.4a8 8 0 0 0 4.7 0zM25 96.7c0-.2 0-.4-.2-.5-.2 0-.3 0-.3.3 0 .2.1.4.3.4l.2-.2zm47.8-.5c0-.2-.2-.3-.4-.2-.2.1-.2.3 0 .5.4.5.7.3.4-.3zm-33.5.2c0-.1 0-.3-.2-.4-.2-.1-.3 0-.3.2 0 .3.1.4.3.4.1 0 .2 0 .2-.2zm66.4-.3c-.1-.3-.2-.2-.2.1 0 .3 0 .5.1.4V96zm3.4 0a3 3 0 0 0 1-1l.5-.2c.6.3 1.4-1.6 1.2-2.8-.2-1.1-1-2.4-1.3-2.2-.5.3-.3 1.1.3 1.3.6.2.7.5.2.8-.1.1-.2.4 0 .7 0 .3 0 .5-.3.5-.2 0-.5.3-.5.6-.1.5-.2.5-.2-.1 0-.7-1-1.8-1.3-1.4 0 0 0 .2.2.3.3.1.4.9 0 .9l-.3.7c0 .4-.1 1-.3 1.4-.7 1.2-.5 1.3.8.5zm-94.5-.5c0-.2 0-.3-.3-.3-.2 0-.4.1-.4.3 0 .1.1.2.3.2.1 0 .3 0 .4-.2zm119.7-.1c0-.5-1.8-1-4.5-1.3a46 46 0 0 1-3.6-.5c-1.6-.3-4 0-4.3.6-.2.3-.2.5 0 .5 1 .1 1.8.3 2.2.6.6.4 10.2.4 10.2 0zm-107-.3c0-.2-.2-.3-.4-.4-.1 0-.3.1-.3.4 0 .2.2.4.3.3.2 0 .3-.2.3-.3zM80 95c.9-.9 1.2-2.3.7-3.3-.2-.5-.6-.9-.7-.8-.5.1-1 1.5-1.2 2.7-.2 2 .3 2.5 1.2 1.4zm39.1.3c.1-.1 0-.2 0-.2-.2 0-.4 0-.5.2v.3c.2 0 .4-.1.5-.3zm-62.2-1c1-1 2.8-3.3 2.8-3.8l-.6.2-1 .4c-.3 0-.7.4-1 .8l-.8 1c-.4.4-1.4 1.9-1.4 2.1 0 .6.8.3 2-.7zm7.8.8c0-.2-.1-.3-.4-.3-.2 0-.3.1-.2.3l.4.2.2-.2zm17.7-.5c-.3-.2-.8.2-.6.5.1.2.3.2.5 0 .1-.2.2-.4.1-.5zm23.4-.1c-.2-.4-.6 0-.4.5.1.3.2.3.4 0v-.5zm33.3-.3c1.7-.7 4.1-2 4.4-2.3.3-.6-.2-.7-1.6-.5l-1.8.5a8 8 0 0 1-2.6 1c-.8 0-2.7.9-2.6 1.2.2.5 1.3 1 2 .8l2.2-.7zM5.9 93.5c0-.8 0-1.4.2-1.5.4-.2.3-1.2-.1-1.8-.3-.4-.4-.4-.5.5-.5 3-.5 3.3-.2 3.7.6.7.8.4.6-.9zm96.9 0 .4-1.8c0-.7-.6-.8-.9-.2 0 .2-.3.4-.5.4-.7 0-.8.9-.3 2l.7.9.6-1.3zm-25.5.4c.8-.8 1-1.3.5-1.6-.3-.2-1.8 1.4-1.8 1.9s.6.4 1.3-.3zm19.3-.5c0-1.8-.3-2.4-1.1-2.6-.4-.1-1.2-.6-1.8-1l-1.5-1c-.3-.2-.7-.8-.9-1.4-.5-1.6-.8-1.5-1.2.7-.2 1-.6.9-.7-.2 0-.5-.2-.5-.8.7-.8 1.4-1 2.3-.5 3 .3.5 1 .1 1.4-.8.3-.8.9-1.3 1.5-1.3.2 0 .3.3.2 1-.2 1-.1 1.1.2 1.1.3 0 .4-.2.4-.8 0-.4.1-.8.3-1 .1 0 .3.3.3.9 0 .8 0 .9.9 1a2 2 0 0 1 1.4 1l.4 1c-.2.5.2.8.8.8.6 0 .7 0 .7-1.1zm24.5.5c.5-.5 0-1-.8-.7-1.3.3-1.1.9.3 1 .1 0 .4 0 .5-.3zm-66.4-.2c.7-.2 2.5-2.5 2.5-3.2 0-.4-.6-.2-1.5.5L54 92.4c-.8.6-1 1.6-.4 1.6.1 0 .7-.1 1-.3zm37.7-.1c.3-.4.3-.5 0-.7a1 1 0 0 0-.8 0H91v.6c.4.6.9.6 1.4 0zm-71.7-.4-.3-.3c-.2 0-.3.2-.3.3 0 .1.1.3.3.3l.3-.3zM75 90.9c.2-.7-.4-.9-.9-.2-.2.2-.6.4-.9.4-.3 0-.6.3-.6.7-.1.4.1.7.9 1.1l1 .5.2-1L75 91zm25.2 1.3.6-1.5c.5-.5 0-1-1-1-.5 0-.6.2-.4.7l-.1.8c-.6.3-.3 2.4.3 2.2l.6-1.2zm4.3 1c0-.1-.1-.3-.3-.3-.1 0-.2.2 0 .3l.2.3.1-.3zm29.8-.1c.8-.4 1.2-.7 1.6-1.6l.7-1.2s.3.2.5.6c.4.5.5.5 1.2.2.9-.5 1.1-1 .4-1-.3 0-.6-.2-.6-.3 0 0-.5-.4-1.2-.6-1.1-.4-1.8-.4-4.9-.2-4.2.3-6.6.8-5.5 1.1.6.2 2.6.4 3.7.4l1.8.3c.5.1 1.2.2 1.7 0 1-.3 1.5 0 1 .5-.5.3-5.7.5-6.4.2-.7-.3-5 0-5.2.3-.1.4 1.6.8 5.6 1.2 4.6.5 4.4.5 5.6 0zM44 92.8c.6-.4.3-.9-.4-.5-.5.3-.7.9-.4.9l.8-.4zm32-.7c.2-.6.4-.7.8-.6.8.2 1.3-.5 1-1.3-.1-.9-.6-.9-1.4-.1-.6.5-1.3 2-1.3 2.6 0 .6.5.2.8-.6zm38-.4c.6-1.3.6-1.7 0-1.7-.5 0-1.6 1.3-1.6 1.9 0 1.2 1 1 1.6-.2zm41.7.4a.8.8 0 0 0-1 0c-.3.2-.2.3.5.3.8 0 .9 0 .5-.3zm-86.1-1c.2-1 0-1.6-.8-1.6-.7 0-1 .5-.5.7.2 0 .4.5.5 1 .2 1.1.6 1 .8-.1zm-56.5.7c0-.1 0-.2-.2-.3-.2-.1-.3 0-.3.1 0 .2.1.3.3.3l.2-.1zm5-.5c-.4-.2-.8 0-.6.3 0 .1.3.2.6.1s.3-.2 0-.4zm3 .2c0-.2-.2-.4-.3-.5-.5-.2-1.4.3-1.2.6.3.4 1.5.3 1.5-.1zm32-.7c0-.3-.6-.3-1 0-.3.1-.3.4-.2.7.1.4.2.4.7 0l.5-.7zm52.4.5c0-.2-.1-.5-.3-.5l-.2.5c0 .3 0 .6.2.6s.3-.3.3-.6zm-58.2-1c1.8-1.2 2.5-2.2 1.1-1.5-.8.4-3.5 2.8-3.1 2.8l2-1.2zm39.4-.3c0-.2.3-.9.7-1.4 1.4-2 1.5-2.4.7-3.4a6.1 6.1 0 0 0-1.7-1.5l-1-.5-.6.7c-1.1 1.3-1.7 3.2-.9 3.2.8 0 1.2-.3 1.2-1 0-.6.1-.8.3-.7.1.1.4 0 .7-.2.5-.4.7 0 .3.8-.2.4-.4 1.1-.4 1.6 0 .6-.2 1.4-.4 2-.5 1.3-.2 2 .6 1.3.3-.2.5-.6.5-.9zm11.2.6c0-1-.7-1-.8 0-.1.7 0 .8.4.7.3 0 .4-.3.4-.7zm44.4.3c2.3-.5 3.3-1.4 2-1.9-.5-.2-.5-.2.5-.6a8 8 0 0 0 1.7-.8l1.8-.6c1.5-.3 1.2-.6-.8-.7a30.6 30.6 0 0 0-10.3 1.9c0 .3.9.5 2.7.5 1.6 0 1.8 0 2.3-.7.3-.3.6-.5.7-.4.3.5-.3 1.4-1.7 2.3-.9.5-1.7 1-1.7 1.2-.2.3.8.2 2.8-.2zm-116-.2c.4-.4.4-.4-.4-.4-.5 0-1 .3-1 .5-.2.4.7.4 1.3-.1zm30.3-1.3c1.6-1.2 1.9-1.6.8-1.4-.5 0-.7 0-.9-.5-.2-.5-.4-.7-.7-.5l-1 .3c-.7.2-1.6 1-1.4 1.3.1.1.6 0 1.1-.3 1.4-.7 1.8-.2.8 1-.4.5-.9 1-1 1.4a563 563 0 0 1 2.3-1.3zm14.7 1.4c0-.2-.4-.4-.7-.5-.4 0-.5 0-.4.4.2.5 1.2.5 1 0zm36.7-.3c-.1-.1-.3-.1-.4 0-.2 0-.2.2-.1.3 0 .2.2.2.4.1.1 0 .2-.2 0-.4zm7.6-.5c.1-.3.3-.5.6-.5.4.1.6 0 .6-.5 0-.4 0-.6-.5-.6-1 0-1.7.6-1.5 1.5.3.8.6.9.8.1zm-100.3-.2c0-.2-.3-.3-.7-.3-.4 0-.7.1-.7.3 0 .1.3.2.7.2.4 0 .7 0 .7-.2zm133.8-.2.7-.4c.6 0 1-1 .6-1.3-.6-.4-4 .9-4 1.5s2.2.8 2.7.2zm-82.5-.3c.3-.3.5-1 .6-1.5l.3-1.9c.2-.7.2-.7-.2-.4a7 7 0 0 0-1 1.8c-.8 2.1-.6 3.1.3 2zm8 0c.5-.4.6-1.7.2-1.7l-.7.8c-.6 1.3-.4 1.7.5 1zm7.4 0c.5-.4.5-.5 1-2.8.6-2.8.6-3 .1-3.3-.2 0-.6 0-.9.3-.7.7-1.2.5-1.6-.4-.2-.8-.3-.8-.7-.4l-.8.4c-.1 0-.7.6-1.2 1.3-1 1.4-1.5 2.7-1 2.7.3 0 1.6-1 2.2-1.7.4-.5.4-.5.6 0 .1.2 0 .7-.4 1.3-.5.9-.7 2.3-.3 2.3l1.6-1.8c.7-.9 1.5-1.7 1.6-1.7.5 0 .3.9-.4 1.7-.7 1-1 2-.8 2.3.2.4.6.3 1-.2zm2.3 0c0-.2-.1-.3-.4-.3-.2 0-.4.2-.4.4 0 .5.6.4.8-.1zm41-.1c0-.1-.2-.2-.5-.2s-.5.1-.5.3c0 .3.2.4.5.3.3-.1.5-.3.5-.4zM23.3 89c0-.2-.1-.3-.3-.3l-.2-.4c0-.2-.2-.4-.5-.4-.2 0-.7 0-1-.2-.5 0-.6 0-.6.3 0 .2.2.6.5.8.7.5 2.1.6 2.1.2zm40.6-2c.3-1.2.8-2.4 1-2.7.6-1 0-1-1.6.3L61.5 86l.3 1.3c.3.5.5 1.2.4 1.5 0 .4.1.5.6.4.5 0 .7-.4 1.1-2.2zm1.6 1.4c.4-1 .5-1.8.1-1.8-.3 0-1 1-1.2 1.9-.2 1 .5 1 1-.1zm7 .1c0-.6-.6-1.3-1-1-.2.1-.3.5-.3 1 0 .6 0 .8.6.7.3 0 .6-.3.7-.7zm-12.3.2c.1-.2.1-.4 0-.4-.1-.2-1 .2-1 .4 0 .4.8.3 1 0zM15.4 88c.1 0 .2-.2 0-.4 0-.2-1.3.2-1.8.7-.2.2 1.4 0 1.8-.3zm92.2.2c2.8-.3 3.9-.9 5.8-3l1.3-1.3c1-1 1.7-.8-5.8-2.2-7.9-1.5-12-2.8-14.8-4.7-1.3-1-2.3-1-2.3 0 0 1.4 5.1 3.6 12.3 5.2a561.6 561.6 0 0 1 7.2 1.5c.7 0 .9 0 .9.5 0 .7-.2.7-4.9-.4-6.1-1.4-9-2.3-11.7-3.4-2.5-1-3.9-1.2-4.2-.7 0 .2 0 .4.3.5a44.4 44.4 0 0 0 17 4.6c1.6 0 1.9 0 2 .5 0 .3 0 .7-.2.9-.5.5-4 .7-7.5.4-4.7-.4-5.6-.6-5.6-1.5 0-.3 0-.3.7 0a31 31 0 0 0 10 .7s-1.3-.4-3-.6a53.3 53.3 0 0 1-11.6-3c-.4.3.6 2.4 1.3 3.1.9.8 3.6 2.2 5.2 2.8 1.2.4 4.8.4 7.6 0zm12.3-.7c.4-1.2.2-1.4-.7-.5-.7.7-.8 1-.5 1.3.4.4.9 0 1.2-.8zM27.2 87c-.3-.3-.8.1-.6.4.1.2.3.2.5 0l.1-.4zm107.9-.4c0-.5-.8-.7-1.8-.3-.7.3-.8.4-.3.6.8.3 2 .1 2-.3zm-84.8-.4c.5-.5 1.6-.4 3.2.2 1.2.5 1.2.5 3-.2 1-.4 2.1-.7 2.6-.7 1 0 1.2-.2 2.5-1.6 1.8-2.2 1.6-2.9-.4-1.5l-2 1.5c-.5.3-1.2.5-1.7.6-.5 0-1 0-1 .2s-.5.3-.8.3c-1.1 0-.7-.7.6-1.2 1.2-.4 4.8-2.7 4.8-3 0-.2-.2-.3-.4-.4-.4-.2-3.5 1.3-3.5 1.7 0 .5-1.2 1.3-2 1.3a5 5 0 0 0-1.9.7c-1 .6-1.2.6-1.3.3-.3-.7-.9-.6-1.5.2-.2.3-.8.7-1.2.8-.9.2-1.4.6-1.4 1s1.8.2 2.4-.2zm24.2.4-.1-.3c-.2 0-.3.1-.4.3-.1.1 0 .2 0 .2.2 0 .4 0 .5-.2zm-65.6-.8c.1-.3-.6-1-.9-.7-.2.2.1 1 .5 1l.4-.3zm3.3-.2h-.4c-.2 0-.4 0-.4.2 0 .1.2.2.4 0l.4-.2zm16.1-.2c.6-.3.6-.4.2-.5-.6-.3-2.5 0-2.9.3-.9.9 1.2 1 2.7.2zM122 85c0-.8 0-1 .4-.9.3.1.4 0 .4-.5 0-.8 1-2 1.3-1.5.1.2.3.2.6-.3.3-.4.7-.6 1.2-.6s.7-.2.8-.7v-1c-.2-.3-.4-.3-1.2.2-.6.3-1.1.8-1.2 1-.1.2-.6.5-1.1.7-.5.2-1 .6-1 .8 0 .4-.5 1.1-1.5 1.8l-.7.5.6.4c.3.2.6.6.6.8 0 .2.2.4.4.4.3 0 .4-.3.4-1zm-49-.2c0-.4 0-.4-.4 0-.5.7-.5 1.1 0 .7.3-.2.4-.5.4-.7zm-6.4-.7-.1-.7c-.4 0-1.1 1.1-1.1 1.7 0 .4 0 .5.6.1.3-.2.6-.7.6-1zm-55 .8c1.5-.4 1.4-.7 0-.5-1.2.1-1.2.1-1-.4.1-.8-.6-.8-1.3.1-.5.5-.6.7-.2.6.2-.1.5 0 .5.2.2.4.7.5 2 0zm104.8-.2c0-.4-.6-.1-.7.2 0 .2 0 .3.3.2.2 0 .4-.3.4-.4zm-99.7-.3c.3-.2.5-.5.5-.6 0-.2-1-.1-1.3.2-.7.7 0 1 .8.4zM77.2 83c1-.8 1.4-1.2 1.4-1.7l-.2-1c-.4-.1-3.5 3.3-3.5 3.9 0 .6-.2.7 2.3-1.2zM93 84.5c0-.2-.1-.3-.3-.4-.1-.1-.2 0-.2.2s0 .4.2.4.3 0 .3-.2zm39-.2c.7-.2.9-.9.3-.9-.7 0-1.2.3-1.2.7 0 .4.1.4 1 .2zm-63.2-.6c.2-.3-.3-.6-.7-.4-.3.2 0 .6.3.6.1 0 .3 0 .4-.2zM64 83c.5-.4.8-.8.8-1 0-.4 2.4-4.3 2.8-4.7l.4-.7c0-.6-2.6 2.3-2.8 3.1a11 11 0 0 1-2.1 3.1c-.4.4-.5.9-.1.9l1-.7zm-27.7.3L36 83l-.3.1c0 .2.2.3.3.3l.3-.1zm37.7-.5c.4-.4.7-.7.6-.9-.2-.2-1.8.9-1.8 1.3s.3.2 1.2-.4zm89.7-.1c.2-.4-.9-.5-1-.1-.2.2.3.5.7.4l.3-.3zM70.4 82c.2-.3.2-.7.2-.7-.3-.3-1 .4-1 .9s.5.4.8-.2zm12.3 0c.4-.4.7-.8.7-1 0-.7-.7-.6-1.3 0-1 1.4-.6 2 .6 1zm9.7.4-.4-.4c-.4-.3-.4-.3-.4 0s.1.5.4.5h.4zm42.6-.1c0-.2-.2-.3-.5-.3-.2 0-.3.1-.2.3l.4.2.3-.2zm7.3-.4c.6-.3 1.1-.8 1.1-1 0-.3.1-.5.3-.6.3-.2 0-.7-.3-.7l-1.7 1.5c-1.7 1.6-1.5 2 .6.8zM11 81.1c0-.3.6-.6 1.4-.6.2 0 .9-.2 1.3-.5.5-.3 1.2-.6 1.5-.6.3 0 .6 0 .7-.2.3-.4-1.7-.3-3 .1-1.7.6-3.2 2.1-2.8 2.8.2.4 1-.4 1-1zm43.4.4c.7-.7.2-1.1-.8-.6-.8.4-1.2 1-.7 1.3.4.1.7 0 1.5-.7zm19.5-.2c1-.6 1.9-1.4 2-1.7.6-.7.6-1.5.1-1.5s-3.6 2.8-4 3.6c-.6 1 0 .8 2-.4zm44.5.4c.6-.4 1-.8 1-1l-3.7-.3c-2.4-.1-3.5-.3-3.8-.5-.3-.2-1.1-.5-2-.7-.8-.1-2-.5-2.5-.7-.5-.2-1.9-.5-3-.6-2.3-.1-3-.5-4.4-2l-1.5-1.5c-.5-.5-2.7-1.2-3-1-.3.3.4 1.5 1 1.8.4.2.7.5.6.7 0 .1.1.5.4.8.3.2.6.7.6 1 0 .2 0 .5.2.5.7.5 5 1.6 8.8 2.3a1813.9 1813.9 0 0 1 9.7 1.8l1.6-.6zm18.6.4-.1-.3-.3.3v.3c.2 0 .4-.2.4-.3zm10.2-.3c0-.1-.2-.2-.6-.2-.3 0-.6 0-.6.2s.2.3.5.3.6-.1.7-.3zm-90.7-1c-.6-.1-1.2.3-1 .7.2.2.5.2.9-.1.6-.5.6-.5 0-.6zm24 0c1-.7 1.1-1.2.2-1.5-.9-.2-1.4.4-1.4 1.5 0 1 .1 1 1.2 0zm-59.4-.2c0-.2-.2-.4-.4-.4-.7 0-.5.6.3.8v-.4zm47.3-.6c.5-.5 1-1.3 1-1.7l.5-1c.5-.4.5-.8 0-.8-.6 0-2.1 1.5-3.1 3-1 1.4-1 1.5 0 1.5.6 0 1-.2 1.6-1zm77.4.6c.6-.2.7-.3.3-.3l-1.2.3c-.8.5-.1.5 1 0zm-120-.2c0-.2 0-.3-.2-.4-.2 0-.3.1-.3.4 0 .2.1.4.3.3.2 0 .3-.2.3-.3zm126 0c1-.3 1-.7 0-.7-.9 0-1.5.4-1.2.8.2.3.1.3 1.1 0zm-79.7-1.7c.7-.9 1-1.5.9-1.7-.4-.4-1 0-1.6 1.1-.3.6-.8 1.1-1.1 1.2-.3.1-.5.4-.5.6 0 .8 1.1.2 2.3-1.2zm-29.7.9c.2-.6-.3-1.2-.7-.8-.4.4-.1 1.2.3 1.2l.4-.4zm20 0c0-.5-.6-.4-.8 0 0 .2.1.4.3.4.3 0 .5-.2.5-.4zm-18.3-.1c.3-.2.2-.3-.2-.4-.7-.2-1.2 0-1 .4.2.3.7.3 1.2 0zm102.1-.4c0-.3-.8-.1-1 .3 0 .2.1.2.5.1.3 0 .5-.2.5-.4zm-87-.6c2-1 2.4-1.6 1-1.3-1.4.2-3.3 1.3-3.4 1.8 0 .6.2.6 2.4-.5zm1.6.4c.7-.3 1-.6.9-.7-.3-.1-2.8.9-2.8 1.1 0 .3.9.1 2-.4zm59.7 0c.4-.2.3-.2-.6-.5l-6-1c-.8 0-.8 0-.4.3.3.2.4.6.4.8-.1.3 0 .4.4.5l1.1.3c.8.2 4.5 0 5-.3zm-42.3-.2c.2-.4.2-.7-.2-1-.4-.4-.4-.4-.7.1-.4 1 .4 1.9 1 .9zm75 0a16.7 16.7 0 0 0 5.9-1.7c1-.4 1.4-.7 1.4-1.2s-.5-.4-1.2.3c-.4.3-1.2.6-2.2.7-3.8.5-7.2 1.2-8 1.6-.8.4-.3.9.8.7.5-.2 2-.3 3.2-.4zm-61.9 0c.3-.5-.7-1.6-2-2.2l-2.5-1c-1.3-.7-1.9-.5-1 .2l2.4 1.8c1.6 1.3 2.8 1.7 3.1 1.2zm21.9 0c0-.5-1.9-1.1-2.8-1-1.8.1-.5.7 2.6 1.2 0 0 .2-.1.2-.3zm49.2-.7c.1-.4.4-.7.7-.7 1 0 2.4-.5 2.4-1 0-.6-2.4-.3-4.2.6a8 8 0 0 1-1.9.7c-.2 0-.7.2-1 .5l-.7.5h2.2c2.1 0 2.2 0 2.5-.6zm4.7.1c.7-.6.7-1 .2-1-.6 0-2.8 1-2.8 1.3 0 .5 2 .3 2.6-.3zm-99.7-3c0-.5-1-1-1.2-.8l-.1.8c0 .4-.3.7-.6 1-.6.2-1.1 1.4-.9 1.8.2.3 2.8-2.4 2.8-2.9zm29.9 2.5c0-.6-1.7-2.1-2.3-2.1-1 0-.6.8 1 1.8 1 .6 1.3.7 1.3.3zm26.9-.2c1.2-.2.5-.5-1.7-.7-2.6-.2-8.2-1.1-9.2-1.5-.4-.1-.8-.5-.9-.8 0-.3-.6-.6-1.7-.9-4.1-1.1-9.3-4.4-10-6.2-.2-.9 0-1.2.6-.8 1.1.7 1.7-.3.7-1.3-.7-.6-3.7-1.8-6.5-2.7-1-.3-2-.7-2-.9 0-.2-.8-.4-1.7-.5l-3.1-.6-1.7-.3.2.8c.3.6.5.7 2 .7s3.6.5 4.3 1c.1.2 1 .5 2 .7l1.9.3.2 1.1c.1.6.8 2 1.4 3 .7.9 1.2 2 1.2 2.4 0 .4.3 1 .7 1.3.5.5.6.5.6.2 0-.2-.1-.5-.3-.6l-.2-.6c0-.2.6.2 1.6 1.3a12.4 12.4 0 0 0 8 3.8 48.1 48.1 0 0 0 9.7 2c1.2.1 2.8 0 3.9-.2zm-99.4-.2c0-.4-.6-.3-.8 0 0 .3.1.4.4.3.2 0 .4-.2.4-.3zm4.2.1c0-.1-.1-.2-.3-.2-.1 0-.2 0 0 .2 0 .2.1.3.2.3l.1-.3zm118.2-.5c.1-.2 0-.3-.3-.2-.3 0-.5.2-.6.4 0 .2 0 .3.3.3s.6-.3.6-.5zm-71.1-.4c0-.3 0-.4-.3-.3-.2 0-.4.3-.4.5-.1.4 0 .5.2.4.2 0 .4-.3.5-.6zm55.4.4c.1-.2 0-.2-.2-.1-.5.2-.5.4-.2.4.2 0 .4-.2.4-.3zm-75.2-.1-.3-.3-.3.1c0 .2.2.3.3.3l.3-.1zm7.1-.4c.3-.6 0-1-.6-.7-.5.2-.6.7-.3 1 .3.3.6.2 1-.3zm84.9 0h-.5c-.2.1-.2.2.1.2.3 0 .5 0 .4-.1zM81.8 76c0-.4-.5-.5-.7-.1 0 .2 0 .4.3.4.2 0 .4-.1.4-.3zm24.8-.4c-1.8-.7-2.3-.8-2.3-.4 0 .5 1.5 1 3.1 1 .9 0 .8 0-.8-.6zm-99.5 0c0-.3-.2-.4-.6-.4-.6 0-.7 0-.4.4.4.5.8.4 1 0zm71.8-.1c0-.2-.2-.3-.3-.4-.4-.3-1 .2-.7.6.2.3 1 .1 1-.2zm74.2.1c.3-.2.4-.4.3-.5-.2-.3-2 .1-2.5.5-.4.3-.4.4.6.4.6 0 1.3-.2 1.6-.4zm-60.9-.1c.3-.4-1.2-1.6-2.6-2.1a27 27 0 0 0-3.3-1c-1-.1-2-.4-2-.5-.5-.4.3-.4 2.7.1 3.2.7 3 .7 3 .2 0-.3-.4-.6-.8-.7L88 71c-.8-.4-3.7-1.3-5-1.6l-3.5-1c-2.7-.7-3.8-.8-4-.2-.2.5.4 1.2 1 1.2.4 0 2.9 1 5.1 2l2 .8c.3 0 1 .4 1.7.8 4.7 2.6 6.5 3.2 7 2.5zm30.3-.5c0-.2-1.4-.6-3-1.1a60.3 60.3 0 0 1-7.8-2.6c-.8-.3-2.4-1.2-3.5-2-1.1-.6-2.4-1.4-2.8-1.5-.9-.4-3.2-.6-3.4-.3-.3.6 2.9 2.8 6 4 4.7 2 14.5 4.3 14.5 3.5zm62.5-.3c-.6-.4-1.1-.5-2.6-.5-1.1 0-2 0-2 .2-.4.5.2.7 2.8.7l2.4.1zm-89.7 0c0-.8-1.2-2.2-2.5-3-1.3-.8-1.6-1.3-.3-.7.9.4 1 .2.5-.9-.4-.7-.8-1-3-1.9-2.7-1-5.9-1.7-7.8-1.7-.5 0-1-.1-1-.3 0-.9-2.3-1.5-4.4-1.1-1.9.3-1.7.8.5 1.1 2.6.4 4.1 1 5.2 1.9.6.4 1.5.9 2.2 1l2.2.7c.6.2 1.1.3 1.3.2.3-.4-.3-.7-2.4-1.4-1-.4-2-.7-2-.9a283.2 283.2 0 0 0 2.5.4c1.5.3 3.5 1.7 3.3 2.2-.1.4 0 .7 1 1.3.6.4.7.6.6 1.1-.2.8.8 1.5 2.5 2 1.6.3 1.6.3 1.6 0zm-22.1-.8c.4-.4.6-.9.5-1-.3-.5-1.7.6-1.7 1.3 0 .7.3.6 1.2-.3zm56.7.4s0-.2-.2-.3l-.3.1c0 .2.1.3.3.3l.2-.1zm4.1 0c.5-.2.6-.8 0-1-.4-.2-.9.3-.9.8 0 .3.3.4.9.2zm-104.6-.5c.5-.7.1-1.3-.7-1-.4 0-.8 0-1-.3-.6-.4-1 0-.8.7.3.9 2 1.2 2.5.6zm94.7 0-3.8-1.1a36.2 36.2 0 0 1-6.5-2.4c-.6-.2-.6-.1.1.6.6.6 1.5 1 3 1.3l4.4 1.2c2.7.8 5 1 2.8.3zM17.7 72.4c0-.8 0-1-.4-1-.6.2-.8 1-.3 1.7.4.9.7.6.7-.7zM48 73.7c.2-.4-.6-1-1-.8-.5.2-.5.3 0 .6.6.4.8.5 1 .2zM31.5 73c.3-.4.2-.5-.1-.6-.5-.2-1.3.4-1 .7.1.4.7.3 1.1-.1zm65.9-.1a5 5 0 0 0-.7-1.3 5 5 0 0 1-.8-2.3c-.3-3.3-.4-3.7-1.6-4.4l-2.3-.7-1.7-.2c-.6-.2-.6-.2-.1-.6.8-.6 0-1-2.4-1.1-2.4-.1-3.2.2-2.2 1 .9.5.2.6-1.2 0-1.3-.5-2.4-.7-2.4-.3 0 .3 2.8 1.5 4 1.7 1.3.3 5.8 1.8 6.7 2.2.7.4.7.5.6 1.2-.1.6 0 .8.7 1.2.8.4.8.4.3.8s-.5.4 0 1.3c.4.7.9 1.1 1.5 1.3 1.1.4 1.6.5 1.6.2zm-10-9.5h1l-.5.1c-.6 0-.8 0-.5-.1zM21 71.2l-.1.6c0 .6 0 .9.1.6v-1.2zm104.8.8c.3 0 .4-.2.3-.3-.4-.3-5.4-1.2-7.4-1.4-2 0-2.2 0-1.8.3.5.5 3.2 1.2 6 1.4l2.4.3.5-.3zm-79-.2c.2-.2 0-.3-.2-.3s-.4.1-.5.3c-.1.1 0 .2.2.2s.5 0 .6-.2zm99-.4c1-.8.6-.9-.8-.3-.7.3-.9.5-.6.7.5.3.7.3 1.5-.4zm5.4 0 1.4-1c.6-.7.6-.8.8-.2.4.9 1 .7 4.3-1.3 1.6-1 2-1.4 1.5-2-.2-.3-.2-.5.2-.7 1.2-1 3-3.2 3.6-4.4.8-1.5 1.5-4.1 1.6-5.7V55l-2.2-.1c-2.2 0-2.2 0-2 .5.3.8.2 4.3-.2 6-.4 1.8-1.6 4-3.3 5.8-.8.8-1.4 1.6-1.4 1.7l-.4.2c-.6 0-.5-.5.4-2.2l1.5-3c.5-.8.7-1.1.8-.8 0 .2 0 .8-.3 1.2-.5 1-.5 1.1-.2 1.1s1.2-1.7 1.8-3.2c.4-1.3 1-5.3.7-5.9 0-.2-.3-.4-.6-.4s-.3 0 0-.3l.3-.5c0-.3-4-.9-4.4-.7-.3.1-.4.3-.3.8 1 3 0 6.4-2.6 8.7-.6.5-1.2 1.2-1.3 1.6-.3 1-1.7 3.5-2.8 4.7-.6.7-1 1.4-1 1.6 0 .4 2.8 0 4-.4zm-.5-2.4c-.3-.3.4-1.5 1-1.6 1-.3 3-2.7 4-4.8a11 11 0 0 0 1.3-5.8c-.2-1-.1-1.2.3-1.1.4 0 .4.3.4 1.8-.3 4-1.8 7.2-4.7 10-1.8 1.6-2 1.8-2.3 1.5zm40.4 2.8c0-.2-.1-.3-.4-.3-.3 0-.6.1-.6.3l.4.2c.2 0 .5 0 .6-.2zm-9.3-.3-.1-.5c-.2-.4-.5-.5-1-.4-2 .5-2.1 1.3-.2 1h1.3zm4.4 0c0-.1-.1-.3-.3-.3l-.3-.6c0-.3-.3-.5-.5-.5h-1.6c-.7 0-1 .2-1 .5 0 .5.5.8.8.4.4-.4 1.3-.4 1.3 0 0 .1.3.4.6.5.8.3 1 .3 1 0zm-15.4-.3V71c-.1 0-.3 0-.4.2 0 .2 0 .3.2.3.1 0 .2-.1.2-.3zm-26.7-.5c.8-.3 2-.7 2.5-.7 1-.1 1.2-.3 2-1.5.5-.8.8-1.4.6-1.5-.2-.3-1 .2-3 2-.3.4-.8.6-1 .6-.6-.2-3 1.2-2.8 1.5.3.2 0 .2 1.7-.4zm36-1 3.8-2a8 8 0 0 1 2-.3c.8-.1 2-.5 2.5-.8l1-.6-2.5.1c-2.4.1-2.8.2-3.6.9-1 .8-3 1.7-4.7 2.1-.9.2-1.2.5-1.4 1-.2.3-.4.6-.7.6-.2 0-.4.1-.4.3 0 .5.6.3 4-1.4zm9.3.8c.7-.8 1-2 .5-2l-1.2.5-1.6.4c-.5 0-.7.1-.7.5 0 .3.2.5.5.5.2 0 .4.2.5.4.3.7 1.1.5 2-.3zm-15.2.3h-1l.5.1c.6 0 .8 0 .5-.1zm-31.9-1c1.8-.9 4-2.8 4-3.5 0-.5-.8-.4-3 .4-.9.3-2.3.7-3.2.8-1.5.2-1.8.2-2.3-.3-.7-.5-1.6-.6-1.6-.1 0 .2.3.7.8 1.2.8.9 1.3 1 3.8.6.7-.2 1.4-.2 1.5-.1.2.2-1 .8-2.1 1-1.5.2-1.7.3-1.5.7.3.5 2 .2 3.6-.6zm26.6.3c.5-.5.5-.5-.1-.2-.3.2-.6.4-.6.6 0 .3.1.3.7-.4zm-144.6 0L24 70c-.2 0-.3.1-.3.3 0 .1.1.2.3.2.1 0 .3 0 .3-.2zm7.1.2-.6-.7c-.5-.4-.5-.5-.1-.6.7-.3.5-.7-.2-.5-1.4.4-1.4 2 .1 2l.8-.2zm94.7-.1c0-.1-1.5-1.2-3.4-2.4-7.9-5.1-9.6-6.4-9.8-7 0-.3.3-.2 1.5.6.8.6 2 1.2 2.5 1.5a78 78 0 0 0 10.4 6.7c.3.1 1.1.3 1.7.3a4 4 0 0 1 1.6.3l.9.2c.3 0-.7-.5-4-2.2-2.7-1.3-2.4-1.2-4.2-2.4-1.4-1-2-1.6-1.6-1.9 0 0 .8.3 1.5.8 1.8 1.3 2.6 1.3 1.3 0-1.2-1-3.7-2.7-4.9-3.3-1-.5-5.3-3.7-9.2-6.8-1.5-1.3-3-2-3-1.5 0 .2.3.7.8 1 .5.5 1 1 1 1.2.3.6-.6 0-2-1.5a8 8 0 0 0-1.5-1.3l-1-.6c-1.3-1-9-1.4-8-.4.2.1 1.6.3 3.3.4 2 .1 3.3.4 3.8.7 1 .4 1.2 1.2.5 1.2a.4.4 0 0 1-.4-.4c0-.6-1.7-.8-4.9-.7l-2.6-.1c-2.1-.2-3 0-2.7.6 0 .2.5.3.8.3 1 0 2.5.7 2.5 1 0 .3-.2.3-.6.2-1.3-.4-6.1-1.2-7-1.2-1 0-1.6.4-1.3.7a33 33 0 0 0 6.8 1.3c1.2.1 2.7.4 3.3.6a101.1 101.1 0 0 1 10.2 5.2c1 .6 2.6 1.4 3.4 2 1.6 1 2.2 1 1.4.1-.4-.3-.6-.7-.5-.8.3-.3 2 1.4 2.7 2.7.6 1.1 2.1 2.2 2.5 1.9l-.4-.8-.5-.5.6.3 1.7 1.1 1.3.8.8.4c.3.3 1.4.8 2.4 1.2 2.2.8 2.3.8 2.3.5zm-10-8.3a170 170 0 0 0-12.3-7c-1.4-.6-2.2-.9-2.7-.8-.7.2-1-.1-.5-.6.3-.3.7-.3 1.8 0l1.8.7 2 1.2 3.6 2c1.5.9 2.2 1.1 2.7 1 .4 0 .9.1 1.7.7l2.2 1.6c3.6 2.6 3.3 3.6-.3 1.2zM27 69.8c0-.3-.1-.4-.3-.3l-.2.4c0 .2 0 .3.2.3s.3-.2.3-.4zm84-.2c0-.4-3-2.5-4-3-.5-.2-1.4-.7-2-1.2-2.2-1.4-2.4-1-.5.9.9.8 1.5 1.2 2 1.3 1.1 0 1.9.3 1.9.7 0 .3 1.9 1.6 2.4 1.6.2 0 .3-.1.3-.3zm6.9 0c3 .1 2.9-.2-.4-1.6a31 31 0 0 1-6-3.2l-.5-.9c-.1-.6-1.8-1.6-7.1-4.3-4.8-2.5-6.2-3-6.7-2.6-.2.2-.5.1-1-.3-.6-.4-1-.5-1.8-.4h-1.8c-1.3-.4-4-.2-4 .3 0 .2.4.5.8.6l1.1.5c.3.2 1.1.3 2 .5.9 0 2.3.4 3.2.7.9.4 2.1.7 2.8.8l2.6.7 3.3 1c3.2 1 6 3.4 4.5 4-.3 0 0 .4 1.1 1.5l1.8 1.4c.2 0 .4.2.6.4.5.4 2.5 1.2 2.8 1h2.7zm46.5 0c.1 0 0-.3 0-.4-.5-.2-1.2.1-1 .4.2.4.8.4 1 0zm7-.3c.6-.7 1.4-.8 1.7-.3.5.6 3.2.6 3.9 0 .2-.2 1.3-.6 2.3-1 1.7-.4 2.8-1 2.5-1.4l-3.2.2c-2.8.2-3 .3-3.5.9-.3.3-.7.6-.9.6-.4 0-.5-.3 0-.7.4-.4-.4-.4-1.2 0-.3.2-.8.3-1.1.3-.5 0-1.5 1.2-1.3 1.5.2.4.5.3.9-.1zm-156.7-.5c.3-.4-.4-.7-1.9-.7s-2 .3-1.2.7c.6.4 2.9.4 3.1 0zm4.9-.1c0-.2-.1-.4-.3-.3-.5.2-.6.7-.1.7.2 0 .4-.2.4-.4zm8 0c0-.2-.2-.4-.3-.4-.2 0-.3.2-.3.4s.1.4.3.4l.2-.4zm158.2-.2c-.3-.3-1.2 0-1 .3 0 .2.4.2.7.1.4 0 .5-.2.3-.4zm-54.6-.7-1.8-1.2c-.7-.3-1.4-.8-1.6-1a5.1 5.1 0 0 0-2-1.2l.4.6c.4.3.8 1 1.1 1.3.3.6 1.1 1.1 2.4 1.7 2 .8 2.6.8 1.5-.2zm-101.8.5.6-.3c.3 0 .6-.2.6-.4.2-.4-1.3-.4-1.7 0-.4.4-.4 1 0 1 .3 0 .5-.1.5-.3zm45.2-.2c0-.2 0-.3-.4-.3-.2 0-.5.3-.6.5 0 .2 0 .3.4.3l.6-.5zm17.7-.2c-.2-.8-8.3-3.2-8.9-2.7-.3.4.4.7 2.3 1.1 1.1.2 3 .8 4 1.2 2.3 1 2.7 1 2.6.4zm76.3.2c0-.4-1-.4-1.8 0-.4.1-.2.2.6.2.6 0 1.2 0 1.2-.2zm-135.7-.6c-.2-.3-.9-.3-.9 0s.6.5.9.4c.1 0 .1-.2 0-.4zm-7.6-.2c-.1-.4 0-.5.7-.7 1-.2 2.3-1 2.3-1.6 0-.5 0-.5-1 .2l-1.5.5-1.2.4c-.5.5-.5.5-.1 1.1.5.7 1 .8.8.1zm-6.4 0c.1-.1 0-.3-.1-.4-.4-.3-1.1 0-1 .4.3.3 1 .3 1.1 0zm52.6-.3c.8-.6.5-.9-.6-.7-.7.2-1 .7-.6 1 .3.3.5.3 1.2-.3zm7.8.3c-.3-.2-.8-.3-1.1-.3h-.5l.5.3 1 .2h.6zm-64-.3v-.3l-.3.3v.3c.2 0 .4-.1.4-.3zm7-.3c0-.4-.8-.6-1.5-.4-1 .3-.8.7.4.7.6 0 1-.1 1-.3zm126.3-.8c.5-.4 1.2-1.3 1.5-1.9l1-1.6c.3-.4.4-1 .4-2.8 0-2.3-.5-3.4-.6-1.5 0 .7-.3 1.3-.8 1.7-.3.3-.6.8-.6 1a43 43 0 0 0-2 5.5c-.2.7.2.5 1.1-.4zM33 66c-.1-.4-2.8-.6-2.8-.3 0 .4.6.5 2 .6.6 0 .9 0 .8-.3zm15.2.2c0-.2-.8-.4-1-.1 0 .1.1.2.4.2h.6zm93-.3c.4-.3.3-.4-.3-.5h-.9c-.3.1-2.4-.6-4.6-1.6-1.8-.8-1.8-.8-1.8-.3 0 .2.6.8 1.3 1.4.9.8 1.5 1 2.5 1.2 2.5.3 3.6.2 3.9-.2zm22.8-.5c.7-.4 1.5-.7 1.8-.7a6 6 0 0 0 1.4-.4c1-.4 1-.5 1-1-.2-.5 0-1 .8-2 .6-.7 1.3-1.9 1.7-2.6.7-1.5 1-1.7 1-.8 0 .6-1.4 3.8-2 4.5-.7.7-.2.9.9.3 1-.5 2-1.6 2-2.4 0-.3 0-.6.2-.8.4-.4-.2-3.1-1.2-5.3-.7-1.5-1.1-2-1.6-2-1-.3-4.2 0-5.7.6-.8.3-1.7.6-2.1.6-.6 0-.6 0 .1.2l2 .2c1.6 0 1.8.5 1 4A16 16 0 0 1 161 66c0 .4 1.2 0 2.9-.7zm1.3-1.4c-.4-.3-.2-.9.6-1.7.4-.5 1-1.4 1.2-2a22 22 0 0 0 1.2-5.5c0-1 .6-.8.7.3.2 1-.9 5.3-1.7 7-.7 1.3-1.7 2.3-2 2zm9.5 2c.1-.2-1-.5-1.6-.3-.2 0-.4.2-.4.4 0 .3 1.8.3 2 0zm-132.3-.2c.4-.2.2-.2-.7-.4-1.3-.2-2.2 0-2 .4.2.3 2 .3 2.7 0zm27.6-.4c.4-.4.2-1.2-.2-1.2s-.9 1-.7 1.3c.2.4.5.3 1-.1zm38.1-.5c0-.8-.9-1.6-2.7-2.2-3.5-1.3-3.7-1-.5 1 1.3.7 2.5 1.4 2.6 1.6.3.4.6.2.6-.4zm-97.8.2c.3 0 .4-.3.3-.4-.2-.3-1.7-.3-1.7 0 0 .5.6.7 1.4.4zm121-.3c0-.3-.2-.8-.9-1.4-.5-.6-1-1-1.2-1l-1.2-.7c-.6-.4-1.2-.7-1.4-.6-.4.1 1.6 2.5 2.3 2.7l1.2.8c.7.8 1 .8 1.2.2zm46.1 0c.5 0 .8-.2.8-.4s-1.6-.3-2.9 0c-.9.2-.9.2-.2.3.9.3 1.3.3 2.3.1zm-134.9-.6-.1-.3-.3.3.1.3c.2 0 .3-.2.3-.3zm102.8-.6c.7-.4 1.2-.9 1-1-.1-.1-1.8 0-4.2.2-4.7.5-4.8.5-4.3 1 .4.5 1 .6 3.8.6 2.3 0 2.5 0 3.7-.8zm-111 .2c.3-.3-.7-.7-1.8-.6-1.4 0-1.8.6-.5.8.9.1 2 0 2.3-.2zm41.1.1c1-.3.9-.7-.3-.9-1.2-.1-2.4.3-2.4.8s1.7.5 2.7.1zm4.7 0c0-.4-1.8-.4-2.3 0-.1.2.3.3 1 .3s1.3-.1 1.3-.3zm14-.1-1.7-.8c-1-.5-1.4-.4-.9.2.2.3.9.6 1.5.7 1.8.3 2.1.3 1.2-.1zm32.5-1.1-1.6-2.8c-.6-1.1-1-1.5-1.9-2-1-.4-4.3-2.8-7.2-5.3-1.5-1.2-2.2-1.6-2.2-1.2 0 .3 1.7 3.8 1.9 3.8a79 79 0 0 0 8.5 6.9c3.5 2.5 4 2.6 2.5.6zm-79.6 1c0-.2-.1-.3-.3-.3-.1 0-.2.1 0 .3l.2.2.1-.2zm24.8-.3c.1-.2 0-.3-.2-.2-.2 0-.4.3-.5.4 0 .2 0 .3.3.3.2 0 .4-.3.4-.5zm-34.7-.5c.2-.5.1-.6-1.2-.9-1.2-.2-2.1.1-1 .4.4.1.8.4 1 .7.3.6 1 .5 1.2-.2zm8.6.4c0-.3-.2-.4-.5-.4s-.6.1-.6.4c0 .2.3.4.6.4s.5-.2.5-.4zm-35-.2c.2-.4-1.3-.8-1.7-.5-.3.3-.3.4 0 .6.4.3 1.4.3 1.6 0zm2 .1a1 1 0 0 0-.7 0c-.2.1 0 .2.3.2.4 0 .6-.1.4-.2zm89.9 0a30.7 30.7 0 0 0-10-4c-2.3-.4-9-.4-9.4 0-.6.5.3.7 3 .7 1.4 0 3.1.2 4 .4l3.1.6a9 9 0 0 1 3.7 1c1.3 1 5.6 2 5.6 1.2zm-75.2-.3c0-.2 0-.3-.2-.3s-.3.1-.4.3c-.1.1 0 .2.2.2s.4 0 .4-.2zm52.8-.2c.7-.3.5-.5-1-1-2-.6-3.2-.7-3.7-.3-.9.6-.3 1.2 1.2 1.3 2.7.2 3 .2 3.5 0zm73.3-1.6c.4-.8.8-1.9.8-2.9.2-1.8-.2-3.8-.8-3.8-.3 0-.4.3-.2 2.1.1 2 0 2.2-.4 2.9-.5.7-1.2 3-1 3.3.3.3.9-.4 1.6-1.6zm-13.8 1c.3-.3-5-3-7-3.6-2-.6-2.4-.3-1.5 1.2a6.8 6.8 0 0 0 4.3 2.6c1.2.2 3.9 0 4.2-.2zm-17 .1-2.5-2.1a26.4 26.4 0 0 1-3-2.8c-.6 0-.3.6.8 1.5l1.6 1.6 1.7 1.2c1.4.8 1.4.8 1.4.6zM73 61.2l-1 .1c-.4.1-.4.2-.1.4h1c.7-.4.7-.4 0-.5zm13.2.5c.2-.1.3-.3.2-.4-.8-.7-7.9-1.6-7.9-1 0 .6 4 1.6 5.7 1.6l2-.2zm-66-.2c.4-.2.4-.4.2-.6-.4-.3-2.2.1-2.2.6 0 .3 1.6.3 2 0zm157.4-.4c1-.5 1-.7 1-1.6 0-.9 0-1 .8-1 1.4-.1 1.3-1-.2-2.5-1-.9-1.2-1.2-.9-1.3l.9-.3c.2 0 .4-.4.4-1s-.3-1-1.2-2c-1.2-1.1-2.4-1.5-3.5-1.1l-1.4.4c-.4.1-.9.3-1.2.6-.5.3-.5.4 0 2.1l.7 2.1.6 3c.2 1.6.6 2.9.7 3 .7.4 2.2.2 3.3-.4zm-154.4-.5c0-.3-1-.3-1.2 0v.6c.2.3 1.2-.2 1.2-.6zm107 .3c-.3-.2-.4-.2-.4 0 0 .3.3.6.5.4 0 0 0-.3-.2-.4zM32 60.8c.3-.4.3-.5 0-.8-.4-.4-2.6-.9-2.6-.6 0 .1.2.6.6 1 .6.9 1.5 1 2 .4zm115.6-.2c.6-.4.8-.7.8-1.2v-.6H143c-3.8 0-5.6.2-5.5.4.1.3 1.6 1 3 1.6 1.4.5 6 .4 7.2-.2zm35.2 0c.6-.3.8-.4.5-.5a1 1 0 0 1-.7-.4c-.3-.7-1.2-.3-1.3.5 0 .8.1.9 1.5.3zm-154.7-.2c0-.2-.2-.3-.5-.3-.2 0-.3.1-.2.3l.4.3.3-.3zm99.1-1.5-.6-2c-.1-.7-.4-1.2-1.1-1.7l-2.8-2.4c-2.6-2.2-2.8-2.2-1.6.2.4.8.6 1.4.5 1.5 0 .1-1-1.5-2-3.6-1-1.6-3-3.2-4.4-3.2-1 0-1.1.4-.4.8.6.4.8 1 .3 1l-.8-.5a11 11 0 0 0-5-1.7l-2.6-.3c-1.5-.1-1.4.3 0 .5.7.1 1.4.4 1.6.6l.7.8c.1.2.8.4 1.5.5l1.2.4c0 .4-.7.3-3.4-.4a34.5 34.5 0 0 0-8.2-1c.1.2.8.4 1.5.5 2.1.3 5.7 1.2 6.3 1.6.3.2.6.6.6 1 0 .5.6 1.1 2.7 2.8l3.1 2.5c.4.5 1.9 1.3 2 1.2l-1.6-3.6c-1-1.9-1.7-3.5-1.7-3.7 0-.2-.2-.5-.5-.8-.5-.4-.8-1.4-.4-1.4.3 0 1.8 1.2 3.7 3 3.2 3 7.5 6 8 5.6l-.8-1c-.6-.4-1-1-1-1.2 0-.2.5 0 1.4.8a10 10 0 0 1 1.5 1.4l.8 1c.4.3.8.8.8 1 0 .3.8 1 1 .9.2 0 0-.6-.3-1.1zm2 .3c.3-1-.5-2.8-1.2-2.8s-.8.6-.2 2.1c.7 1.5 1.2 1.7 1.5.7zm-85 0c.3-.3.2-.4-.4-.4-.4 0-.7.1-.7.4 0 .2.2.4.4.4l.7-.4zm6.9.1-.6-.2c-.2 0-.5 0-.5.2s.3.3.5.3c.3 0 .6-.1.6-.3zm6-.2c.1-.3-.6-.6-1.5-.6-1 0-1.3.5-.5.6 1 .3 1.8.2 2 0zm20.6 0c0-.2-.2-.3-.5-.3-.4 0-.8.1-.9.3 0 .1.2.2.5.2.4 0 .8 0 .9-.2zm-57.2-1c0-.4-1.5-.4-2.4 0l-.8.2 1.1.4c.8.2 1.2.2 1.6 0 .3-.2.5-.5.5-.6zm33.8.9c0-.3-.6-.4-.7-.2-.1.1 0 .3.2.3l.5-.1zm8-.1h-.8l.4.1c.5 0 .7 0 .5-.1zm18.8-.9c.2 0 .2 0 0-.3-.3-.3-1.2 0-1.2.4 0 .1.2.2.4 0h.8zm57.3-.3c0-.4-4.9-2.6-6.6-2.9-1.8-.3-2.3-.2-1.1.2.4.2 1.2.7 1.8 1.3.5.5 1.4 1.1 1.8 1.3 1 .4 4 .5 4 .1zm9.6-.8c.7-.3 1-.7 1-1.3.2-1 0-1.1-1-.5-.8.6-1.7.7-1.7.3 0-.1.4-.5 1-.8.8-.5 1.4-1.3 1.4-1.7 0-.1-.4 0-.8.3-.6.3-1.5.4-2.9.5-1.1 0-2.7.2-3.7.5l-3.2.6c-1.5.2-2 .7-1 1l1.7.7c3 1.2 7.2 1.4 9.2.4zm-97 .3c.3-.1.2-.2-.2-.3-.7-.2-1.2 0-.7.3.4.3.5.3 1 0zM26.6 57c0-.2 0-.3-.3-.3-.2 0-.3.1-.2.3l.2.2.3-.2zm61 0c.7-.1.6-.5 0-.7-.6-.1-3 .4-2.8.6.2.3 2.2.4 2.8.2zm44-.2-.8-.4c-.3 0-.3.1 0 .4.1.2.4.4.6.4.4 0 .4 0 .1-.4zm-100.4-.2c0-.5-.2-.7-1.2-.8l-1.2-.3c-.4-.2-.5-.1-.4.4 0 .5.3.7 1 .8 1.5.3 1.8.3 1.8-.1zm152.3 0 1.7-.2h3.2c4.7.1 6 0 6.1-.4 0-.3.5-.6 1-.8.9-.3.6-.4-2.3-.2-3 .1-3.4.2-3.7.6-.4.7-1.5.7-1.8.1-.2-.3-.9-.4-2.7-.5-2.3-.2-2.5-.1-2.6.4-.2.7-.5.7-.7.2-.2-.4-1-.6-1-.2 0 1 2.1 1.8 2.8 1zm-100.7-.1c.3-.2.3-.3 0-.4-.6-.2-1.3 0-1.1.4.1.2.6.2 1 0zm-42.3-.7c0-.5-.6-.7-3-.9-2.4-.2-3.7 0-2.7.5a8 8 0 0 0 2 .2c.8 0 1.7.2 2.1.3 1 .3 1.6.3 1.6-.1zm2.9 0c.2-.3.2-.4 0-.6-.3-.2-1.4.4-1.2.7.3.4.8.3 1.2-.1zm42 .2c.2 0 .3-.3.3-.5 0-.6-1.9-.9-2.6-.4-1 .6 1 1.4 2.2.9zm-33.8-1c0-.3-.1-.4-.9-.4-1 0-1.3.2-.9.7.4.5 1.6.3 1.8-.3zm36.1.4c.1-.2 0-.3-.2-.3-.3 0-.4.1-.3.3l.3.2.2-.2zm40.9-1c0-.3-.6-1-1.7-2l-5.3-4.4c-1.1-1-1.5-1-.8 0 .5 1 .3 1-.6.2-1-1-1.5-2-1-2.3.4-.4 1 0 2.8 1.6 4 3.4 4.4 3.6 6 3.6 1 0 1.5.2 2.1.6a13 13 0 0 0 4.3 2.5c.5.1 1.9 0 3-.1 3.4-.6 3.7-.8 1.3-1.4a17 17 0 0 1-4.1-1.4l-1.6-.7a4 4 0 0 0-1.6-.3c-.6 0-1.4-.2-1.9-.5l-3-1.6c-1.3-.6-2.9-1.6-3.6-2-1.8-1.4-5.2-3-6.2-3-.5 0-.3.8.5 2.3.9 1.7 5.2 6.5 7 7.8 1.3.8 2 .8 1 0-.4-.3-.6-.6-.5-.7 0-.1 1 .4 1.8 1.3 1 .8 1.8 1.4 1.9 1.3l.2-.7zm-60.8.3c0-.4-.7-.3-.8 0 0 .3 0 .4.3.4s.5-.3.5-.4zm8.4.2c0-.5-.5-.6-.6-.2-.1.2 0 .4.2.4l.4-.2zm-4.6-.3c0-.2-.2-.3-.7-.3-.5 0-.7.1-.6.3l.6.2c.3 0 .6 0 .7-.2zM40.4 54c.2-.3-.6-.6-1.2-.4-.4.2-.4.3.1.5.7.2.9.2 1 0zm143.1-.2c1 0 1.2-.4.3-.7-1.5-.4-3 0-2.7.8.1.3.3.3.8.1l1.6-.2zm-148.3 0c.3-.2.2-.3-.5-.3-.4 0-.8.1-.8.3 0 .3.8.3 1.3 0zm116.3-.8c-.3-.4-.7 0-.7.6 0 .5 0 .5.5.1.2-.2.3-.5.2-.7zm-100 .5c1.2-.2 1-.6-.5-.7-1.8 0-2.6.1-2.6.6 0 .4 1.5.5 3 .1zm34.2 0c0-.1-.2-.3-.5-.3s-.6.2-.7.3c0 .2.2.3.6.3.3 0 .6-.1.6-.3zm44.8-.3c-.2-.2-.4-.2-.5-.1-.1 0 0 .3.2.4.5.3.7 0 .3-.3zm60.6.2c0-.4-2.2-.3-2.4 0 0 .3.2.4 1.2.3.7 0 1.2-.2 1.2-.3zm-134.8-1c1-.3.9-.7-.2-.7-.8 0-1.2.3-1 .8.3.3.2.3 1.2 0zm36.6-.1c1.8-.3.3-.9-2.3-.9-1.5 0-1.7 0-1 .8.5.5.9.6 3.3 0zm55.3-.9c.6-.5.8-.9.7-1.2-.2-.4-.2-.4-.8 0-.3.4-1 .8-1.4 1-.8.4-.9.6-.6 1 .3.6.6.5 2-.8zm-93.8.8c0-.2 0-.3-.3-.3-.2 0-.4.1-.4.3 0 .1.1.3.3.3l.4-.3zm90.2 0c.6-.2.6-.4.4-.8-.4-.7-.3-.8.4-.8.5 0 1-.3 1.6-1 1.5-1.4.8-1.8-1.8-1l-1.9.7c-.2.2-1.7.6-3.2 1l-3 .7c-.2.2 1.4.7 3.4 1 2.6.5 3.3.5 4.1.2zm-121.4-.6c.4 0 .6-.4.6-.6 0-.4-.2-.5-1.6-.3-1.7.1-2.8.8-2.1 1.2.4.2 2.2 0 3.1-.3zm9.6.3c-.1-.2-.7-.4-1.5-.4l-2.4-.2c-1-.2-1.1-.2-1.1.2 0 .5.5.6 3 .7 1.5 0 2 0 2-.3zm11.9-.3c0-.3-.2-.5-1-.5-1 0-1.2-.2-1.2-.6 0-.5-.7-.6-1.2 0-.5.5.4 1.4 1.5 1.5 1.5.2 1.8.1 1.9-.4zm6 .3c.2-.3-.3-.6-.7-.4-.3.2 0 .7.3.7l.4-.3zm-32-1c-.2-.3-.3-.2-.7.1-.7.6-.4 1 .4.6.5-.2.6-.4.4-.6zm17.8.8c0-.2-.2-.3-.4-.3s-.4.1-.4.3l.4.2c.2 0 .4 0 .4-.2zm71.2-.4c-.4-.4-3-1.2-3.8-1.2-.9 0-.5.7.6 1 .5 0 1 .2 1.2.3.3.2 2 .5 2.2.3l-.2-.4zm-46.8-.4c0-.2-.2-.2-.4-.1l-.4.2.4.1c.2 0 .4 0 .4-.2zm2-.3c.4-.2.3-.3-.4-.3-.5 0-.8.2-.8.3 0 .3.8.3 1.3 0zm34.7-.4a24 24 0 0 0-5.4-.6c-1.3.4-.5.9 1.5 1 1.6.1 4.1-.2 3.9-.4zm-50.3 0c-.2-.3-.5-.4-.6-.3-.3.2.1.7.6.7.4 0 .4 0 0-.4zm23.2-.4c.2-.2 0-.3-.3-.3-1.2 0-2 .2-1.8.6.2.2 1.7 0 2.1-.3zM61 49c.5 0 .7-.4.2-.6-.3-.2-2.3.3-2.5.6v.7c.1.3.3.3 1-.2.5-.2 1-.5 1.3-.5zm4.9.8c0-.1-.1-.3-.4-.3-.3 0-.6.2-.7.3 0 .2 0 .3.4.3.3 0 .6-.1.7-.3zm5.7-.1c0-.3-.2-.4-.3-.3-.2.1-.2.3-.1.4.2.4.4.3.4-.1zm29.1.2a1 1 0 0 0-.6 0l.3.1c.4 0 .5 0 .3-.1zm56.8-.2c.2-.1 1-.3 2-.3s1.8 0 1.9-.2l.9-.2c.4 0 1-.3 1.3-.6.8-.8 2.4-2.8 2.7-3.4.3-.5 1-.7 1-.3l-.5 1c-.3.3-.5.7-.5 1 0 .5.7.2 1.3-.6.3-.4 1-1 1.6-1.3 1.5-.8 2.2-1.8 2-3.1 0-.7 0-1.3.3-1.7.4-.5.4-.5.9 0 .4.3.6.3.8 0 .4-.6.3-1.2-.3-2-.5-.6-.6-.8-.3-1.6.4-1.5.4-4.2 0-4.7s-.4-2.3 0-3c.2-.4.1-.6-.2-1a4 4 0 0 1-.9-1.3c-.3-1-2.5-3.3-3-3.3s-.4.5.2 1.2c.5.5.5.6.2.8l-1.1-.1c-1-.4-1-1.3 0-3.6 1.2-2.5 1.4-5.5.7-6.5l-.6-.6-1.5.6c-1.5.6-3 1.7-3 2.1 0 .2.3.3.8.3l.7.1c0 .3-.7 1.7-1.5 2.9-.5.6-1 1.6-1.2 2-.2.6-.5 1-.7 1.2-.1 0-.3.4-.3.8 0 .6.2.6 1 .6.6 0 1 0 1 .2.2.3-.1.4-.8.4-.9 0-1.1 0-1.3.6-.3.5-.3.5-.6-.4a3 3 0 0 0-1-1.4c-1-.6-.8-1.6.3-3.3 1.1-1.7 1-2.1-.3-.8-.6.7-.9 1.3-.9 1.8s-.2 1-.5 1.1c-.6.4-1 1.4-1 2 0 .2 0 .3.2.2l.2-.6c0-.3.2-.6.3-.6.3 0 .3.5.2 1.7-.1 1.5-.4 2.2-.6 1.6-.4-1-1.8 0-2 1.5-.2.6-.2.6-.5-.2-.2-.5-.5-.9-.7-.9-.2 0-.9.5-1.4 1l-2 1.9c-1.1 1-2 3-1.5 3.8.4.7.4 1-.2 1-.6 0-.7.7-.2 1.2.2.1.5.7.6 1.1.1.8 0 .9-.8 1.3-1.1.4-1.2.8-.3 1.2.7.2.7.8 0 .8-.5 0-.7 1-.3 1.2h2.4V41c0-.8.2-1.4.4-1.5.2-.1.3-.4.2-.7-.1-.4 0-.6.5-.9.7-.3.8-.2 1 .1 1 1.8 2.9 3 3.4 2.3.3-.6 1.7.2 1.6 1 0 .4.2.5.8.7 1.4.3 2.5.1 3.2-.4.7-.6 1.8-.7 1.8-.3 0 .4-1 .8-3.3 1.2l-2.3.6c-.1 0-.6 0-1-.3-.5-.2-.9-.3-1-.1-.5.7 1.2 1.2 2.8.7 1-.3 1.2-.3 1.5.2.3.4.4.4 1 0 .5-.3.7-.3.7 0 0 .2.4.2 1.4-.1 1-.4 1.5-.6 1.9-1.4.3-.6.7-1 1.2-1.1.5-.1.7-.4.9-1 .2-.6.4-1 .9-1s.6 0 .6.7c0 .5-.2 1.3-.5 1.9-.3.8-.6 1.2-1.6 1.6-.7.3-1.5.5-1.8.5-.4 0-.6.1-.6.3 0 .1-.3.4-.7.6-.5.2-.8.2-1.6-.2l-1-.4-.4.7c-.2.3-.8.6-2 .8-1.5.4-1.6.4-1.9 0a9.3 9.3 0 0 0-2.7-2.6l-.6-.6c-.3-.7-1.1-1-1.4-.5-.1.2.2.6.6 1 .4.4.7.8.7 1-.3.3-1.3.2-1.7-.1-.2-.2-.8-.4-1.5-.4-1.4-.1-1.5.2-.5 1.5.6.6.9.8 1.4.7 1-.2 4 .8 5 1.5.9.8 1.5.9 2.2.3.3-.3.5-.3 1.4 0l1 .5c0 .2-.7.5-1.5.8-1.4.5-1.5.5-1.8 0-.5-.5-1.3-.5-1.7.1-.2.4-.6.6-1 .6h-.8l.6.3c.4.1.9.2 1.1 0 .2 0 .6 0 .8.2.6.4 1 .3 1.3 0zm2.8-9.1c-.5-.2-.5-.3.2-.4.9-.3 1.6 0 1.4.3-.2.4-.8.4-1.6 0zm-5.9-2.6a8.8 8.8 0 0 1-1.6-3.4c0-.3-.2-.4-.5-.3-.6.2-.8-.3-.8-1.6 0-1.2.3-1.7 1.3-1.7.6 0 .8 0 .7-.4 0-.7.4-.8.8-.1.4.8 1.2 1.6 1.6 1.6.4 0 .4-.5-.1-1.1-.3-.3-.4-.6-.3-.7.1-.1.4 0 .7.4.2.3.8.7 1.3 1 .6.3.8.5.6.7-.3.3-3.6.3-4.2 0-.3-.2-.8-.3-1-.3-.4 0-.3.1.2.7.4.4.7.9.7 1.2 0 .2.4.6.8.8.7.4.7.5.7 1.8 0 1.4-.2 1.7-.9 1.4zm5-.2-1.4-.2c-1 0-1.8-.3-1.8-.9 0-.4.6-.7 2.6-1 1.1 0 1.9-.3 2.3-.7.3-.3.9-.5 1.2-.5a2 2 0 0 0 1.2-.5c.3-.3 1-.8 1.7-1.1l1.8-1.1c.4-.3.8-.4 1-.3.5.1 1 1.8.8 2.4-.1.4 0 1 .4 1.8l.5 1.3-2.2.2c-1.9.1-2.3.1-3-.4-.5-.2-.9-.6-.9-.7 0-.6-.8-.3-1.2.5-.3.4-.9 1-1.4 1.1-1 .5-1.1.6-1.6.1zm7.1-2.4c.6-1 1-1.1 1.3-.4.2.5.3.4.3-.9 0-.8-.1-1.5-.3-1.6-.1-.1-.7.1-1.3.5l-1.2.7-.9.5-.6.5.8.8c1 1 1.4 1 2-.1zm-7-5.8c-.2-.1-.4-.5-.4-.7 0-.2-.1-.5-.3-.7-.1-.2-.2-.6 0-1.2.3-1 .8-1 .7.1-.1.8.3 1.6.7 1.4.3-.2 1.1.9 1 1.2-.3.4-1.4.3-1.8 0zm-2.7-.1c-.8-.3-1-.8-.5-1 .5-.2 1.5.5 1.5 1 0 .2-.1.2-1 0zm4.9-1.4c-.2-.3.3-.6.6-.4.3.2.1.7-.3.7 0 0-.3-.1-.3-.3zm6.4-.1c-.2-.2-.7-.4-1.3-.4-.6 0-1.1-.1-1.2-.3l-.8-.2c-.6 0-1.1-.5-.8-.7l1.2-.3c1.3-.2 4 1 4 1.7-.2.6-.7.7-1 .2zm-2.9-5.8c-.4-1-.5-3-.2-3.2.5-.3 1.3 1 1.3 2 0 1.7-.6 2.4-1 1.2zM74.2 49.6c0-.2 0-.4-.2-.6-.4-.3-1.7.2-1.8.6 0 .3 1.8.3 2 0zm6.4 0c.1-.3 0-.5-1-.7-.6-.1-.7 0-.7.4s.1.5.7.5l1-.2zM141 49c.9-.3 1.6-.7 1.6-.8 0-.2-2.2-1.2-4.5-2l-1.4-1c-1-.7-2.1-1.2-4.3-1.9a10 10 0 0 1-4.6-2.8c-.8-.8-3-1.8-3.3-1.5-.4.4.3 1.7 1 2.3a51.3 51.3 0 0 0 10.3 5.2c1 .2.7.7-.6.7-1.4 0-3.6-.8-4.1-1.4-.8-1-4-2.5-4.4-2.2-.4.5 1.8 2.6 3.3 3.1 1 .4 1.2.6 1.3 1.2 0 .7.8 1.3 2.5 1.7 1.3.3 5.4 0 7.2-.6zM22.6 49c0-.2-.5-.5-1.1-.7-1-.3-1.2-.3-1.4 0-.4.7.3 1.1 1.5 1 .5 0 1-.2 1-.3zm40.6-.2c0-.2-.3-.3-.5-.3s-.4.1-.4.3c-.1.2 0 .3.4.3s.5-.1.5-.3zm33.4 0c.5-.1.5-.2-.5-.2-.6 0-1.1.1-1.1.2 0 .4.6.4 1.6 0zM25 48.6a1 1 0 0 0-.7 0l.3.1c.4 0 .5 0 .4-.1zm24.3 0c0-.2-.5-.4-.8-.5-.4-.1-.6 0-.6.2 0 .3.3.4.9.4.5 0 .7 0 .5-.2zm6.8-.6c1-.3.6-.7-.8-.9-1.5-.2-2.1 0-2.1.5 0 .6 1.5.8 2.9.4zm72.1-.5c.2-.6-.3-1.3-1.9-2.8l-.9-1.3-.6-1-1-.4c-.5-.2-1-.3-1.3-.1-.2.1.2.6 1.4 1.4 1.7 1.3 2.2 2 1.4 2l-.7-.4-1.9-1.5c-.8-.6-2-1.4-2.3-1.8-.8-.6-1.6-.6-1.6 0 0 .4 2.1 2.5 3.2 3.1l1.8 1.4c1.1.9 3.3 2 4 2.1.1 0 .3-.3.4-.7zm63.7 0c.6-.3.7-.3.8 0 .1.4.5.5 1.2.4.8 0 1-.2 1-.6 0-.4-.2-.5-1-.5l-1.2-.2h-2.5a179.5 179.5 0 0 1-5.7.7c-.6.1-1.7 0-2.6-.3-1.6-.4-1.9-.4-1.6.3.2.6 2.2.9 6.7.8 3.4 0 4.4-.2 5-.5zM86 47.6c0-.2-.2-.3-.4-.3-.4 0-.5.3-.2.6.2.2.6 0 .6-.4zm66 .2c.3-.4-2.6-2.4-3.5-2.4-.3 0-.2.2.4.7 2.3 2 2.8 2.2 3 1.7zm2.2.1h-.5c-.2 0-.2.1.1.1.3 0 .5 0 .4-.1zm-101.8-.5c0-.2-.2-.4-.4-.4-.4 0-.7.4-.5.6.3.3.9.2.9-.2zm17.5 0c0-.3-.3-.4-.7-.4-.4 0-.7.1-.7.4 0 .2.3.4.7.4.4 0 .7-.2.7-.4zm-47.1-.1a1 1 0 0 1 1 0l1.6-.2c1-.4 2.5-.4 8.5-.3 5.5 0 7.4 0 7.4-.2a56 56 0 0 0-19.7-1.2c-.8 0-.9.5-.3 1.5.5.7.7.8 1.5.4zm54.5-.3c.2-.1-.1-.2-.8 0-.7 0-1.3.2-1.5.3-.3.3 1.6 0 2.3-.3zm37.8 0c.2-.1-.6-.5-1.3-.5-.8 0-1.5.5-1.1.9.1.1 2.2 0 2.4-.3zm30.6.3c1-.5.5-.8-1.2-.8-1 0-1.7-.2-2-.4a7.6 7.6 0 0 0-2.6-1.5c-.2 0-.6-.2-.9-.5-1-1.2-2-1.7-5.2-2.5-3.8-1-4.1-1.1-4.1-.6 0 .5 1.4 1.3 3.8 2 1 .3 2.4.9 3 1.3 1.2.8 4.2 2.1 6.4 2.7 2.1.6 2 .6 2.8.3zm50.8 0c0-.2 0-.3-.3-.3-.2 0-.4.1-.3.3l.3.2s.2 0 .3-.2zm-134.7-.5c.4-.1.6-1.1.2-1.5-.3-.3-.9.4-.9 1 0 .8 0 .8.7.5zm2.9-1.7c0-.2-.3-.4-1-.4-1.1-.1-1.5.3-1 1.2.3.6.3.6 1.2.1.4-.3.8-.7.8-.9zm51.9.8c0-.2-.4-.4-1-.4l-.9-.1.6.5c.7.6 1.3.6 1.3 0zm68.2.2c.7-.3 2.4-.5 3.9-.5 1.7 0 2.7-.2 3-.5.8-.6-.1-.7-2.7-.5l-4 .5c-1.6.1-2.4.5-2 1 .2.5.4.4 1.8 0zm-126.6-.2c0-.1 0-.2-.2-.2s-.3 0-.4.2c-.1.2 0 .3.2.3s.4-.1.4-.3zm2-.3c.2-.3 0-.5-.4-.5-.3 0-.5.2-.5.6 0 .7.9.6 1 0zm6.2.2c.3-.3.2-.4-.3-.4s-.7.1-.6.4l.4.4.5-.4zm7.1.2H73c-.2.1-.2.2.1.2.3 0 .5 0 .4-.2zm-28-.4c.2-.4-.5-.7-1.2-.5-.7.2-.7.2-.5.6.2.3 1.4.3 1.6 0zm6.8.2h-.5c-.2 0-.1.1.2.1.3 0 .4 0 .3-.1zm36.2-.1c.1-.2 0-.3-.4-.3-.3 0-.5.1-.4.3l.4.2c.1 0 .3 0 .4-.2zm23.5-.3c1.6 0 1.8 0 1.7-.5-.1-.7-3.4-1-6.8-.6-3 .4-3.4.5-3.4.9 0 .2 3.7.4 5.5.3h3zm69.8-.3c.2 0 .2 0 .1-.2-.2-.4-1.4-.4-1.6 0-.1.3.4.5 1 .4l.5-.2zm-126-.2c0-.2 0-.3-.2-.3s-.3.1-.3.3l.1.2s.2 0 .3-.2zM43 44c-.4-.8-1.3-1.2-1.4-.7l-.3.8c0 .3.1.4 1 .4 1 0 1 0 .7-.5zm9.9 0c.4-.1.2-.5-.4-1-.5-.3-.9-.3-2 0-1.6.3-2 .6-1.2 1.2.3.2.9.3 2 .2L53 44zm37.8.3c0-.2-.2-.3-.4-.3s-.4.1-.4.3l.4.2.4-.2zM25 43.9c.3-.4.3-.4-.2-.4s-1 .3-.6.6c.2.2.5.2.8-.2zm10 0c.4 0 .4 0 .2-.2s-1.5-.4-3.3-.4c-3.2-.1-4.2 0-4.2.4a25.2 25.2 0 0 0 7.4.3zm3.7 0c-.8-.2-1.2-.2-1.2 0s.4.3.8.3c.8 0 .8 0 .4-.2zm29-.3c.4-.5 0-1-.7-1-.5 0-.7.2-.7.7 0 .8.8 1 1.3.3zm16 0c0-.1-.2-.3-.4-.3s-.4.2-.5.4c0 .2.1.3.5.3.3 0 .5-.1.4-.3zm-21-.1c0-.2-.3-.3-.6-.3s-.6.1-.7.3c0 .1.2.2.5.2.4 0 .7-.1.7-.2zm132.5-.6 1-.4-4.4-.2c-3.1-.1-4.5 0-4.7.1-.6.5-.2.9.8.7h1.3c1 .5 5 .3 6-.2zm-49 .1c0-.3-.8-1.6-1.1-1.9-.3-.2-.5-.2-.6 0-.3.5-.6.3-1.2-.9-.7-1.3-3.1-4.4-3.5-4.4l-.6-.1-.6-.1c-.3 0-.3-.2 0-.5.2-.3.2-.5-.2-1-.3-.3-.7-.8-.7-1.1-.1-.3-.8-1.2-1.6-2-1.2-1-1.6-1.3-2.8-1.5-1 0-1.4 0-1.4.2 0 .1.3.3.6.3.6 0 1.6 1 1.4 1.3 0 .2-.5.2-.8.2-.5-.1-.6 0-.3.3.7.8 2.5 2.5 3.2 2.9.8.4 1 .8.3.8-.3 0-1.2 1-1.2 1.5 0 .3 1.7.8 3.2 1 2.3.3 4 1.2 3.2 1.7-.4.3-1.6 0-2.1-.3-.2-.2-.4-.2-.6 0-.6.6 1.9 2.2 3.4 2.2l1.7.8c1.3.7 2.3 1 2.3.6zm-10-9c-.8-.8-1.4-1.8-1.2-2 .1-.1 2.8 2.4 2.8 2.7 0 .2-.8-.1-1.5-.7zm-81 8.4c0-.2-.2-.3-.5-.3-.5 0-.7.3-.4.6.2.2 1 0 1-.3zm22.6 0c.6-.3-1-.5-2.5-.2-1.3.2-2 .2-3 0-.9-.2-2-.3-2.4-.2-1 .2-1.2.5-.6.8.4.1 8.2-.1 8.5-.3zm29.9.4c-.2-.1-.6-.1-.8 0h.8zm10.7-.2c0-.5-1.6-1.5-2.4-1.5l-3 .4c-2.8.6-2.5 1 .8.9 1.3 0 2.7 0 3 .2 1 .4 1.6.4 1.6 0zm65.3 0c0-.4-1.8-.6-1.8-.3 0 .5.4.6 1.2.6.5 0 .7 0 .6-.3zm-103-.5-.5-.2c-.2 0-.4 0-.4.2s.3.3.6.3.4-.1.3-.3zM64 41.8c.4-.3.6-.3 1-.1.2.2 1 0 2.5-.3l2-.4-1.7-.2-2.2-.3c-1 0-1.2 0-1.2.5 0 .3-.2.3-.7.2-.5 0-1 0-1.4.4l-.7.5h1c.5 0 1.1-.1 1.4-.3zm92.7.1c.4-.2-2-1.4-3-1.4-.4 0-.4 0 0 .6.4.8 2.3 1.3 3 .8zm-134.2-.3c0-.1 0-.3-.3-.3-.2 0-.4.2-.4.3 0 .2.1.3.3.3l.4-.3zm3.8-.1c.4-.5 2.8-1.2 4-1.2.6 0 1.3-.2 1.6-.3.4-.3.6-.3 1 0 .4.2 1.7.4 3 .5l2.6.5 2 .5c1.3.2 1.7.2 2.2 0 .4-.3 1.6-.4 3-.4l3.2-.2c2-.4-2.6-1-5.6-.7-2.2.1-2.8 0-3.5-.3a6 6 0 0 0-2.7-.4c-1.5 0-2-.2-3.4-.8-2-1-2.3-1-3.3 0-.6.6-1 .8-1.5.7-1.2-.3-2.9.1-3.1.7-.1.3-.4.8-.7 1l-.4.5c0 .4 1.3.3 1.6-.1zm27.3-.7c0-.2-1-.5-1.8-.5-.7 0-.8.6-.2 1 .5.3 2-.1 2-.5zm4.6.5 2.5-.7c1.4-.4 1.7-.6 1.7-1a1 1 0 0 0-.4-.7c-.4-.3-.6-.2-1 .2-.4.3-1.3.7-2 .8-1.8.2-3.1.9-2.8 1.4.4.4 1 .4 2 0zm36 0c0-.1-.1-.2-.5-.2-.5 0-.5 0-.2.2.5.4.5.4.7 0zm3.5 0c0-.1-.3-.2-.7-.2-.5 0-.8.1-.8.2 0 .2.3.3.8.3.4 0 .7-.1.7-.3zM85 41.1c0-.2-.4-.3-1-.3-.7 0-.8 0-.4.3.7.3 1.4.3 1.4 0zm2.7 0c0-.4-.3-.5-.7-.4-.5.2-.4.6.2.6.3 0 .5 0 .5-.2zm23.2 0c-.1-.1-.4-.2-.7-.1-.7.2-.7.3.1.3.4 0 .6 0 .6-.2zm91.2 0c.2-.3-1.4-.5-3-.5-1.3 0-1.7.3-1 .6.6.2 3.9.2 4 0zm-87.4-.6c.6-.3-1.3-.2-2.5.2l-1 .3 1.5-.1 2-.4zm74 .3c-.2-.1-.9-.3-1.7-.3-.8 0-1.4.2-1.4.3 0 .2.7.3 1.6.3 1 0 1.5-.1 1.4-.3zm-114-.4c.2-.2-.5-.6-1.8-.8-1-.2-1.8-.9-1.1-1.1.5-.2.3-.6-.2-.5a47.4 47.4 0 0 1-6.1 1.1s0 .3.2.4c.2.2 1.2.3 2.6.3 2.1 0 2.5 0 2.9.5.4.5.7.5 1.9.5.7-.1 1.4-.2 1.6-.4zm18-.2c.9.1 1.3 0 1.3-.1 0-.2-.4-.3-.8-.3l-2.4-.4c-1-.2-1.6-.2-1.8 0-.2.2 0 .4.8.5.6 0 1 .3 1 .5s.2.2.3 0c.2-.2.9-.2 1.6-.2zm-12.5-.1h-1l.6.1c.5 0 .7 0 .4-.1zm18.4 0c1.5-.2 1.2-.6-.4-.6-1.4 0-2.2.3-1.4.6.4.2.7.2 1.8 0zm20.2 0c0-.2-.4-.6-1-.9-1.2-.5-3.5-.7-4.2-.2-.3.1.1.2 1.2.2 1.3 0 1.7.1 2.1.6.5.5 1.6.7 1.9.2zm16.7-.5c0-.7-.2-.8-1.2-.9-.7 0-1.3-.2-1.5-.4-.3-.4-1.9-.8-2-.4-.2 0 0 .3.1.5a14 14 0 0 0 4.1 1.9c.5 0 .6-.1.5-.7zm-50.2 0c0-.4-1.1-.5-2-.2-.7.3-.1.6 1 .6.7 0 1 0 1-.4zm2.3.2c0-.2 0-.4-.3-.5-.5-.2-.8 0-.5.4.2.4.5.4.8 0zm24.6-.2c.1-.4-.6-.5-1.4-.2-.3.1-.3.2 0 .4.4.3 1.3.2 1.4-.2zm18.3-1c-.7-.5-1.3-1.2-1.3-1.4 0-.2 0-.4-.2-.4l-.2-.4c0-.2-.1-.5-.3-.6-.4 0-.3.8.2 2.5.3 1 1.1 1.4 2.4 1.4.6 0 .5 0-.6-1zm14.5.5c.3-.6.5-.6.6-.4.3.4 1 .1 1-.4 0-.3 0-.4-.3-.3-.4.1-.4.1-.2-.2.4-.4 0-1-.6-.9-.2.1-.4.4-.4.6 0 .2-.4.5-.8.6-.9.3-.9.4-.5 1.1.4.7.6.7 1.2-.1zm49.2.4c-.1-.2-.3-.3-.6-.3-.2 0-.3.1-.3.3 0 .1.2.3.5.3s.5-.2.4-.3zm5.4 0c.3 0 .3 0-.1-.3-.7-.3-2-.3-2 0s.8.5 1.3.4l.8-.1zm-141-.8c3-1.2 1.3-2-2.2-1l-2.9.5c-1 0-1.1.4-.4.9.8.6 3.5.4 5.6-.4zm16 .5c0-.1-.1-.2-.5-.2s-.5 0-.2.2c.5.3.5.3.7 0zm121.8 0c0-.3-.2-.3-.8 0-.3.2-.2.3.2.3s.6-.1.6-.3zM186 39l-.4-.2c-.1 0-.3 0-.3.2s0 .3.3.3.4-.1.4-.3zM28 38.4c1.2-.3 1.3-.3.8-.7-.4-.3-.7-.3-1 0a3 3 0 0 1-1.3.2c-.4 0-.7.2-.7.4 0 .4.3.6.7.5l1.5-.4zm155.5 0c0-.1-.2-.2-.5-.2s-.5 0-.5.2.2.3.5.3.5-.1.5-.3zm-135.8-.3c1.4 0 2.3 0 2.6-.3.8-.6-1.3-.7-4-.3a65.8 65.8 0 0 1-2.6.6c0 .2.5.2 1 0h3zm32.1-.2c0-.3 0-.6-.2-.6-.3-.2-2.9.2-3.1.4-.4.4.3.7 1.7.7s1.6 0 1.6-.5zm2.1-.3c0-.3-.2-.5-.5-.5-.6 0-1 .8-.5 1 .5.4 1 0 1-.5zm45.6.2c-.2-1-.6-1.2-1.7-1.2-1.3 0-1.3.3 0 1.2 1.1.7 1.8.7 1.7 0zm-52.2.1c0-.1-.2-.3-.5-.3s-.5.2-.5.3c0 .1.2.3.5.3s.5-.2.5-.3zm22.2.1H97c-.2 0-.2.1.1.1h.4zm51-.2c.5-.4.5-.4-.1-.4-.4 0-.7.3-.8.4-.1.5.3.5.9 0zM89.2 37c-.4-.4-.7-.1-.4.4 0 .4.2.4.4.2.3-.3.3-.4 0-.6zm14.3.6c0-.4-.5-.7-.7-.5-.2.2.1.7.4.7.2 0 .3-.1.3-.2zm-67.6-.3.6-.4c-.3-.3-2.4.2-2.2.4.2.3.7.3 1.6 0zm31.6 0c0-.4-1-.5-1.5-.1-.5.3-.4.3.5.3.5 0 1 0 1-.2zm116.7 0c0-.1-.5-.3-1.2-.4-.6-.1-1.3-.4-1.6-.6-.7-.4-1-.1-.8.5.1.3.6.5 1.7.5l1.7.2s.2 0 .2-.2zm3.4 0c0-.2-.1-.3-.2-.3-.2 0-.4.1-.5.3 0 .1 0 .2.3.2.2 0 .4 0 .4-.2zm-95.3-.5c.1-.3-.9-.7-1.3-.4-.2 0-.2.2 0 .5.4.4 1.1.4 1.3 0zm1.6-.2c-.3-.3-.8.1-.6.4.1.2.3.2.5 0 .1-.1.2-.3 0-.4zm12.3.4c0-.1-.2-.3-.4-.3l-.2.3c0 .2.2.3.4.3s.3-.1.2-.3zm10.6-.1-.1-.6c-.3-.1-1.3.4-1.3.7 0 .4 1.2.3 1.4-.1zm4.5-.5c-.2-.8-.5-.9-1.6-.8-1.2.2-1.1.7.1 1.2 1.2.5 1.7.3 1.5-.4zm-79 .2.7-.4h-1.3c-.7.1-1.3.3-1.4.5-.2.4 1 .4 2-.1zm14.1 0c.3-.3 0-.4-1.2-.4s-1.5.1-1.5.4c0 .4.2.5 1.2.3.7 0 1.4-.2 1.5-.4zm-24 0c0-.1-.2-.1-.4 0-.2 0-.2.1.1.1.3 0 .5 0 .4-.1zm143.8-1c-.3-.4-1 .2-.6.6.1.2.2.2.5 0s.3-.4.1-.6zm-115 .2c0-.6-.6-.7-1.5-.4-1 .4-.6.8.5.8.7 0 1-.1 1-.4zm65.5 0c0-.6-2.4-.9-3.1-.4-.7.4.1.8 1.8.8 1 0 1.3 0 1.3-.4zm19-.2c.7-.6 1-1.5.2-1-.6.6-.5-.2.3-1.3.3-.5.7-1.3.8-1.8.1-.7.1-.8-.4-.8-.8 0-2.6.9-2.8 1.4l-.1 1c0 1 .7.9 1.2 0 .2-.5.5-.9.6-.9.4 0 .4.2-.2 1.2-.6 1-1 2.8-.5 2.8.2 0 .6-.2 1-.6zm-78-.2 3.5-.5c.6 0 1-.1 1.2-.3.3-.5-.1-.6-2.4-.5-.6 0-1.7 0-2.4-.2-1.1-.1-1.6 0-2.1.3s-1 .4-1.7.3c-1.6-.3-2.2.9-.7 1.3 1 .2 2.2.1 4.6-.4zm128.6.3s-.2-.3-.6-.5c-.5-.3-.8-.3-1.2 0-.3.1-.5.4-.4.5.2.3 2.2.3 2.2 0zm-52.6-.4c0-.2-.1-.4-.3-.4l-.2.4c0 .2 0 .4.2.4s.3-.2.3-.4zm30.3.2h-.5c-.2 0-.1.2.2.2.3 0 .4 0 .3-.2zm-73.2-.3c0-.2-.2-.3-.5-.3s-.5.1-.5.3c0 .1.2.2.5.2s.5-.1.5-.2zm86.8-.2c0-.4-1.8-.7-4.6-.6a135.8 135.8 0 0 1-3.9.2c0 .3 2.3.6 3.6.4l1.6.1c.8.5 3.3.4 3.3 0zm3.6.2c-.1-.2-.5-.3-.8-.3-.4 0-.6.1-.5.3l.8.2c.4 0 .6-.1.5-.2zM98 35c-.2 0-.6-.1-.8 0-.3 0-.1.1.3.1s.7 0 .5-.1zm6 0c.4-.3-.3-.9-.7-.7-.5.2-.4.9.1.9l.7-.2zm2.5-.3c.6-.2.5-.6-.3-.6-.4 0-.6.1-.6.4 0 .4.2.5.9.2zM75 34.4c-.1-.4-.9-.6-1.4-.4-.7.3-.2.7.7.7.5 0 .8 0 .7-.3zm3.6-.2c.1-.1 0-.3-.2-.3s-.4.2-.4.3c0 .1 0 .3.2.3s.3-.2.4-.3zm20.3-.3c0-.4-.8-.6-1.2-.2-.2.1-.4.4-.3.5.2.3 1.5 0 1.5-.3zm34.6 0c0-.2-.6-.5-1.2-.8-1.1-.5-1.2-.5-1.2 0 0 .4.3.7.9 1 .9.3 1.6.2 1.5-.2zm42.2.3c-.7-.3-1.7-.3-1.7 0 0 0 .5.2 1.1.2.9 0 1 0 .6-.2zm18.2 0c.3-.2.3-.3-.1-.3l-.6.3c-.2.3.1.3.7 0zm-112.8-.3c0-.1-.2-.3-.4-.3l-.3.3c0 .2.1.3.3.3.3 0 .4-.1.4-.3zm3.9-.2c0-.3-.3-.4-1.1-.4-1.3 0-1.7.3-1.2.6.7.4 2.3.2 2.3-.2zm58-.2c0-.2 0-.6-.3-.8-.4-.4-.5-.4-.9 0-.3.3-.4.5 0 .8.4.6 1 .5 1.2 0zm39.2.1c1-.1 1.5-.3 1.3-.5a97 97 0 0 0-8.7-.8c-.3 0-.7 0-.7.2s.3.4 1.2.5l2.8.5c2 .5 2 .5 4 .1zm-95.2 0c0-.3-.5-.4-.7-.2 0 .1 0 .3.2.3l.5-.1zm43-.2-.6-.3c-.2 0-.3.2-.2.3 0 .1.3.3.5.3s.3-.2.3-.3zm18-.5c.5-.7.6-.8.2-.8-.3 0-1.2 1-1.2 1.4 0 .4.5.1 1-.6zm40 .5c.6-.2.6-.2-.3-.2-.5 0-1 0-1.1.2-.2.3.5.3 1.4 0zm-97.5-.2h-.8c-.3 0-.1.1.3.2.4 0 .7-.1.5-.2zm105.7-.3c.3-.2.3-.3-.3-.3-.4 0-.7.1-.6.3.2.3.4.3 1 0zm-116.5-.7c.6-.7 0-1.2-1.2-1-1.9.3-2.1.4-2.1.8 0 .8.3 1 1.7.8.8 0 1.4-.3 1.6-.6zm115.9-.2c1.2-.4 1.7-.4 2.3-.1.6.2.9.2 1.4 0 .8-.5.8-.7 0-1.1-1-.4-1.9-.4-3.2.2-1 .5-1.5.5-3.4.4a14 14 0 0 1-3.4-.7c-1.5-.6-2-.6-2.4 0-.2.2-1.1.3-3.2.5-1.6 0-3.2.2-3.6.3-.6.1-.5.2.4.3l3 .2c1.2 0 2.2 0 2.4.2h1.4l1.5.1c.6.4 5 .2 6.8-.3zm-153-.2 3.8-.2c1.9 0 4-.2 4.7-.3 1-.3 1.3-.3 1.5 0 .4.4 1.4.3 3.2-.1l3.8-.7 7.7-1c.7 0 .9-.2.9-.7 0-.7 0-.7-3-.2-.6.2-2.5.3-4.2.3-2.5 0-3.3 0-4.5.6-1.3.5-1.6.5-3 .2-2-.4-4.6-.2-8 .5a46.4 46.4 0 0 1-6.6 1.2c-.5.2-.4.3.3.6.8.3 2.6.2 3.3-.2zm45.2.2c.3-.7-.1-1.8-.6-1.8S86 31 86 31.4c0 .8 1.7 1.4 2 .6zm-6.2-.5c0-.3 0-.5-.4-.5s-.6.2-.6.6c0 .6.9.6 1-.1zm3.3.1c.3-.1.3-.8 0-1h-1.4c-.7.2-1 .4-1 .7l.1.6c.2.2 1.9 0 2.3-.3zm45 .2-.6-.2c-.3 0-.5 0-.4.2 0 .2.3.3.5.3.3 0 .4-.1.4-.3zm-37.7-.6.7-.7-.7-.3c-1.1-.4-1.5-.3-1.8.3-.3.5-.3.5-.8.1s-.8-.3-.8.6c0 .6.1.6 1.3.6 1 0 1.5-.1 2-.6zm11.5.5c.6-.3.6-.7 0-.7s-1 .4-.7.6c.2.3.2.3.7 0zm3.2 0c.6-.3.3-.7-.5-.7-.7 0-1.1.4-.6.6.5.2.6.2 1.1 0zm3.3-.3c0-.4-.9-.8-1.3-.5-.6.3-.2 1 .6 1 .5 0 .7-.2.7-.5zm-11.2-.1v-.5c-.2-.3-1.5.2-1.5.5s1.3.3 1.5 0zm2.5-.2c0-.6-.9-1.7-1.3-1.7-.3 0-.4.6 0 1.5.3.8 1.3 1 1.3.2zm10 .2c0-.2-.1-.3-.3-.3-.2 0-.4.1-.4.3 0 .1.2.3.4.3s.4-.2.4-.3zM95 30.8l.6-.5-.6-.3c-.7-.4-1.3 0-1.3.8 0 .6.5.6 1.3 0zm54.2-.6a4 4 0 0 1 1.1-.8c.8-.4.9-1.1.2-1.2-.6-.2-1.2.3-2 1.6-1 1.6-.6 1.9.7.4zm25.5.5c.2-.5.3-.5 2.2-.3 1.9.2 2 .1 2-.4 0-.4-.3-.5-1.4-.7L175 29h-1.2v1c0 1.3.6 1.8 1 .7zM74 30.6c.7-.3.5-.6-.3-.6s-1.3.4-.8.6c.5.2.7.2 1.1 0zm29.4 0c.5-.2.3-.9-.3-.9-.2 0-.3.2-.3.5 0 .6 0 .6.6.4zm-23.8-.7c.3-.3-.4-.8-1.6-1-.6-.2-.9 0-1.3.3a2 2 0 0 1-1.1.5c-.6 0-.8.3-.5.6.3.2 4.2-.1 4.5-.4zm104.4.3-2.4-.2h-1.7l1.3.2 2.4.2c.9 0 1 0 .4-.2zm-76.5-.2c0-.3-.2-.5-1.2-.7-.8-.1-.9-.1-.9.4 0 .4.2.5 1 .5.7 0 1.1 0 1.1-.2zm2.2-.2c0-.1-.1-.3-.4-.3-.3 0-.4 0-.4.3 0 .5.7.5.8 0zm5.2 0c0-.3 0-.4-.2-.3-.2 0-.4.3-.5.4 0 .2 0 .3.2.3s.4-.3.5-.5zm7-.4-.3-.2c-.2 0-.3 0-.4.2-.1.2 0 .3.2.3s.4-.1.4-.3zm-37.1-.6c.2-.2.2-.6.2-.8-.2-.5-1.9-1.2-2.9-1.2l-1.3-.2c-.4-.2-2-.2-3.8-.1-2.6.1-3.2.2-3.3.6 0 .3.3.4 2.3.6 3.1.2 5.6.7 6.4 1.3a2 2 0 0 0 2.4-.2zm52.1-.2c0-.3-.1-.5-.3-.5-.1 0-.2.3-.2.7 0 .4 0 .6.2.5.2 0 .3-.4.3-.7zm-62 .2c.4-.3.4-.3-.8-.4-.7-.1-1.8 0-2.5.1-1.2.3-1.2.4-.4.5 1.5.2 3 .2 3.6-.2zm12.7 0c.2-.1.4-.7.4-1.2 0-.8 0-.8-1.2-.8-1.2.1-1.4.5-1 1.7a1 1 0 0 0 1.8.4zm93 0c0-.5-1.6-.8-2-.5-.1.2 0 .4.5.5a15.5 15.5 0 0 1 1.4.3v-.3zm2.7.2a1 1 0 0 0-.7 0l.3.1c.4 0 .6 0 .4-.1zm-93.3-.6c.2-.6.6-.7.8-.2.3.8 2 .8 2 0 0-.2.3-.4.7-.5l1-.4c.2-.4-.6-.6-2.4-.4-2 .2-3.3.8-3 1.6.2.6.7.5.9-.1zm24.7-.5.6-.6h-1c-1.3 0-1.7.4-1 .8.6.4.7.3 1.4-.2zm-5-.8c0-.8 0-1-.4-1s-.6.2-.7.6c0 1 .2 1.5.7 1.4.4-.1.5-.4.5-1zm2.1.3c.2-.9 0-1.5-.4-1.3-.5.1-.5 2 0 2 .1 0 .4-.3.4-.7zm71.1.4c0-.1-.2-.2-.5-.2s-.5.1-.5.2c0 .2.2.3.5.3s.5-.1.5-.3zm-79-.2-.9-.8c-.7-.5-.7-.5-1 0-.5.8-.3 1 .8 1 .6 0 1 0 1-.2zm3.4-.4c0-.4-.2-.7-.4-.7a5 5 0 0 1-.9-.1c-.5-.2-.6-.1-.6.6 0 .8 0 .8 1 .8.8 0 .9 0 .9-.6zm45.2.2c.9-.6 1-.9.9-1.3-.2-.6 1.2-.8 1.6-.3.2.3.5.4.8.3.4-.1.4-.2 0-.7-.2-.3-.3-.8-.2-1.1.2-.8-.4-1.1-1-.6-.2.3-.3.5 0 .8.3.4.2.4-.5.4-.8 0-1.2.3-2.1 1.2-1 1-1.1 1.3-.8 1.5.5.3.6.3 1.3-.2zm-86-.5c.5-.2.8-.5.8-.6 0-.3-2.8-.6-3.1-.4l-2.9.4c-1.4.1-2.6.3-2.7.4 0 0 0 .3.3.5.3.4.8.4 3.6.2 2 0 3.7-.3 4-.5zm31.3.2c1-.5.6-.7-.7-.5-.6.1-1 .4-1 .6 0 .5.6.5 1.7 0zm21.4 0c0-.3-1.2-.5-2-.2-.8.4-.4.7.8.7.9 0 1.2-.1 1.2-.4zm6.7.1c.5-.3.3-.4-1.8-.5-2.4-.2-4.4 0-4 .4l2.7.3 2.5.1s.4 0 .6-.3zm14.6-2.4c1-1 2-1 2-.2 0 .5.2.4.8-.1.8-.8.6-1.3-.6-1.5-1.2-.3-2.1.2-4 2-.7.9-1 1.4-.9 1.7.2.4.7 0 2.7-2zm-26.6 1.7-.4-.2c-.2 0-.4 0-.4.2s.2.3.4.3.4-.1.4-.3zM72 26.3l.6-.3H72l-1.5.3-.8.2h.8l1.5-.2zm20-.5c.9-.4 2-.4 2.7 0 .4.2.8.2 1.8-.1.7-.3 1.5-.4 1.9-.3.4 0 .6 0 .6-.3 0-.2-.3-.5-.8-.6l-1-.2c-.1 0-.7.1-1.3.4-.8.4-1.5.4-3.7.3a26 26 0 0 0-4.8.2c-2.2.3-2.5.5-2.3.8.2.3 6 .1 6.8-.2zm49.5 0 .6-.6c0-.4-.9-.3-1.2.2-.7.9-.4 1.1.6.4zm-21.1-.3c0-.4-.7-.7-1-.5-.2.3.2.7.6.7.2 0 .4 0 .4-.2zm26.2 0c0-.2-.2-.3-.4-.3s-.4.1-.5.3c-.1.1 0 .2.3.2s.6 0 .6-.2zM81.8 25c.6-.4-.5-.7-2.6-.7-1 0-2.2-.1-2.5-.3a9 9 0 0 0-2.3-.4c-1.1-.2-1.8-.3-1.8-.6-.2-.4-.5-.4 7 .2 2.5.3 3.3.3 4.4 0 .7-.3 2.6-.6 4.2-.7l3.2-.5-.1-.6c-.2-.4-.2-.5.2-.5.2 0 .6.2.8.5.3.4.5.5 1.6.4l2.8-.7c.9-.3 1.7-.4 2-.3.3.1 1.7 0 3-.2 2.5-.4 3-.6 2.8-1a61.3 61.3 0 0 0-12.3.2c-1-.2-1.5-.1-2.3.3-2.5 1.3-3.2 1.3-11.4.8-2.7-.1-3.7-.1-4.4.2-1 .4-3 .4-8 .2-3.2-.2-4-.2-4.7.2l-1.5.6c-.4 0-.6.3-.6.5 0 .5.5.6 4.7.8 2.2 0 3.8.3 4.1.5.8.5 1.7.7 4 .8a27.9 27.9 0 0 0 9.7.3zm-16.6 0c.4-.2.4-.3.1-.5-.4-.2-1.8-.3-1.8 0 0 .6.8.8 1.7.4zm44.8-.5c0-.3 0-.5-.3-.5-.5 0-.8.5-.5.9.2.3.7.1.8-.4zm5 0c.1-.4 0-.5-1-.5s-1.4.3-1.1.9c.3.4 2 .1 2.2-.4zm2.2 0c0-.5-.4-.6-.6-.2-.3.4 0 .9.4.7l.2-.6zm1.9 0c0-.5-.7-.6-1-.2v.5c.3.4 1 0 1-.4zm7.5 0s-.3-.1-.4 0c-.1 0-.2.2-.1.4 0 .1.3.1.4 0 .1 0 .2-.2.1-.4zm5.1.1c0-.2-.2-.3-.7-.3-.8 0-1 .2-.6.6.3.3 1.2.1 1.3-.3zm-27.6-.6c.1-.1-.2-.2-.8-.2-.6 0-.9.1-.9.4 0 .7 1.3.6 1.7-.2zm3.3.6c0-.1 0-.3-.2-.4-.4-.3-1.2 0-1 .4.3.3 1.2.3 1.2 0zm4.5-.2c0-.2-.2-.4-.5-.4s-.5.2-.5.4c0 .3.2.4.5.4s.5-.1.5-.4zm11.4.2c0-.3-.6-.6-1.3-.6-.8 0-.6.5.2.6l1 .2.1-.2zm25-.6c.4-.2.4-.3 0-.6s-.3-.4 1-1.2c.7-.4 1.2-1 1.1-1-.3-.7-4.6 2.2-4.6 3 0 .4 1.6.2 2.5-.2zm-57-.6h-1a43.5 43.5 0 0 1-4.4.6c.1.3 5.4-.3 5.4-.6zm12.5-.4c1.2-.2 1-.6-.6-1-1-.2-1.8-.3-2.8 0h-2c-.6-.3-2.9.2-2.9.5 0 .2.7.2 1.6.1 1 0 1.7 0 2.3.2.8.4 3 .5 4.4.2zm3-1.2c0-.7-.1-.8-.8-.9-.8 0-.8.1-.4 1.2.5.9 1.2.7 1.2-.3zm2.5.3c.3-.4.2-.4-.2-.4s-.6.1-.6.4l.2.4c.2 0 .4-.2.6-.4zm63.9-.2 1-.5h-1.8c-1.8 0-2.1.2-1.1.7.8.4.7.4 1.9-.2zm-57.3-.1c0-.4-.2-.5-.9-.2-.6.2-.5.6.2.6.5 0 .7-.2.7-.4zm8 0-.6-.4c-.2 0-.3.2-.3.4s.3.4.6.4c.5 0 .5 0 .2-.4zm5.2.1c0-.1 0-.2-.2-.2s-.3 0-.3.2.1.3.3.3c.1 0 .2-.1.2-.3zm15.4-.6c.6-.7.4-1-.8-.8-.8.2-1.5 1-1.2 1.3.4.3 1.4 0 2-.5zm32.3.4h-1.3c-.4.1-.1.1.6.2.7 0 1-.1.7-.2zm3 0h-1.4c-.4.1-.1.1.6.2.7 0 1-.1.7-.2zm-57-.6.6-.3-.6-.3c-1-.3-5.8-.6-5.8-.2 0 .5.6.7 2.6.9l2.3.2 1-.3zm38.9-.8c.2-.4.2-.4-.1-.3-.2 0-.5.3-.5.6-.2.6.2.4.6-.3zm-24.5.3c0-.1-.6-.3-1.6-.4-1.8-.1-2.4 0-1.8.4.4.2 3.2.2 3.4 0zm-6.3-.4c0-.3-1.6-.5-2.2-.3-.2.1-.3.3-.2.5.2.3 2.4.2 2.4-.2zM110 20c0-.4-1.1-.3-1.3.1 0 .3.1.4.6.3.4 0 .7-.2.7-.4zm83.9 0c0-.2-.5-.4-1.1-.4-.6 0-1 .2-1 .3 0 .2.4.3 1 .3s1-.1 1-.3zm-69.6-.6c0-.2-.4-.3-.9-.3-.6 0-.8 0-.5.3.6.3 1.4.3 1.4 0zm-2-.2a14 14 0 0 0-5.5-.7c-.4.5 0 .6 2.6.7a75.2 75.2 0 0 1 2.9 0zm29.8-.5c.3-.3.8-.3 2.1-.2 2 .2 2.2 0 1.6-1.7-.6-1.7-1.2-2-2-1l-1.1.9c-.4.2-.6.5-.5.8.2.5 0 .6-.6.6-.5 0-1-.2-1.2-.4-.3-.3-.5-.3-.8 0-.4.2-.4.4-.2 1 .2.5.3.6 1.2.5.6 0 1.2-.3 1.5-.5zm7 .4c0-.1 0-.2-.2-.2-.1 0-.2 0-.2.2v.3l.4-.3zm15.4.1h-.5c-.3 0-.2.1.1.2.3 0 .5 0 .4-.2zm-30-.4c0-.5-.7-.6-.7-.1 0 .2.2.4.5.4.2 0 .3-.1.3-.3zm-50.5-.2c0-.2-.2-.3-.7-.3-.4 0-.8.1-.8.3 0 .1.3.3.7.3.3 0 .7-.2.8-.3zm21 0c0-.5-.5-.5-3.5-.3l-3 .2 2 .1c3.4.3 4.5.3 4.5 0zm32.5-.2c0-.3-.1-.4-.8-.3-.4 0-.9.2-1 .4 0 .3.2.4.8.3.5 0 1-.2 1-.4zm-43.7-.4c-1.2-.6-3.2-.6-3.3.1 0 .4.2.5 2.1.5h2.2l-1-.6zm59.1-.8c0-.5-.8-.2-1.2.5-.6.9-.5 1 .4.3l.8-.8zm8.2 1c.3-.3.2-.4-.4-.4-.6 0-.8.2-.5.6.3.3.5.2.9-.2zm-32.5-.1c0-.2-.1-.3-.2-.3 0 0-.2.1-.2.3-.1.1 0 .2 0 .2l.4-.2zm-12.7-.7c.8-.1 1.3-.3 1.2-.5-.1-.4-1.5-.4-2.5 0-.5.2-1.6.4-2.4.4-1.2 0-1.4 0-.8.2.6.3 1.5.2 4.5-.1zm-18.4-.5c1-.3 1.5-.3 2.1 0 .5.2 1.7.2 3.5.2 2.2-.1 2.8-.3 3.1-.7.3-.2.4-.6.3-.7-.1 0-1.4-.2-2.9-.2s-3 0-3.3-.2c-.4-.1-.9 0-1.6.3-.5.2-1.5.5-2.1.5-3.5 0-4 .2-2.4 1 1 .4 1.3.4 3.3-.2zm12.4.4c.1-.2-.2-.3-.8-.3-1 0-1 0-.4.3 1 .3 1 .3 1.2 0zm66.4-.3c.1-.1.5-.3.8-.3.4 0 .7-.1.7-.3 0-.5-2.3-.9-2.8-.5-.2.2-1.4.2-3.6 0a203 203 0 0 0-9.4-.6c-2-.2-2.4-.1-2.6.2-.2.5 1 1.3 1.5 1 .2 0 .5-.3.6-.6 0-.4.2-.5.6-.2 1.7.9 13.8 2 14.2 1.3zm-35.9-.8c1.4-.3 1.6-.4 1.4-.7-.2-.2-.6-.3-.9-.2l-2.6.5c-1.4.2-2.2.4-2.3.6-.1.4 1.7.4 4.4-.2zm8.5.1c0-.2-.2-.4-.4-.3-.7.1-.8.7-.1.7.3 0 .5-.1.5-.4zm33.2-1.2c.3-.2.4-.2-4.3-.3a321.9 321.9 0 0 1-12.1-.3 57 57 0 0 1 4.8.6c1.2.2 3 .2 4 .1 1.2 0 2 0 2.4.2.5.3 4.8 0 5.2-.3zm-39.8-1c1.5-.1 2.9-.4 3-.6.3-.6-.8-3.2-1.6-3.6-.4-.2-.7-.2-1 .1-.4.4-.4.5 0 .7.4.2.3.3-.2 1-.4.6-.7.8-1 .7l-.5.1c0 .2.3.3.8.3.8 0 1.3.4.7.8l-1.6.2c-1.5 0-3.4.5-3.2.8.1.2.4.2 4.6-.4zm11.8.4-.1-.5c-.6-.5-5.9-.2-5.9.4 0 .4 5.6.5 6 .1zm-30.9-.9c1.8-.1 2-.2 1.6-.5-.4-.3-1-.4-2.3-.2-3.4.3-6 .7-6.2 1-.3.2 3.2.1 7-.3zm-9.6-.8c.1-.2-.2-.3-.6-.3-2 0-4-.2-5.3-.4-1.2-.2-1.4-.1-1.3.2.1.4 1.4.6 4.7.7 1.3 0 2.4 0 2.5-.2zm13.9 0c0-.2-.2-.3-.4-.3s-.4.1-.4.3l.4.2c.2 0 .4 0 .4-.2zm27.1-.4c-.7-.2-1-.4-.7-.5.7-.5.2-.7-2.7-.8-1.6 0-3.2-.2-3.6-.3-.5-.2-.6-.1-.5.4.1.7 1.1 1 4.1 1 1 0 2 .2 2 .3.2.1.8.3 1.4.2h1zm-23-.7c.3-.5-2.3-.7-13-1-6.7 0-8.4.1-6.1.6l7.8.3c3.9 0 7 .2 7.2.2.2.3 4 .1 4.1-.1zm32.3-.3c0-.1-.2-.2-.7-.2-1 0-1.3-.5-.5-.6.4 0-.2-.2-1.2-.2-2 0-2.8.4-2.2 1 .3.3 4.4.4 4.6 0zm-19.3-3.1c0-.2 0-.3-.2-.3-.1 0-.2.1-.2.3v.2c.1 0 .3 0 .4-.2zm10.5-1c.4 0 .7-.2.7-.3 0-.3-2.3-.8-4.3-.8l-2-.2a55 55 0 0 1-9.8-.5 63.8 63.8 0 0 0-14.8-.7c-1.8-.1-15.4-.2-15.9 0-1.3.3 1.7.5 8.3.6 4 0 6.6.2 6.8.4.2.2 2.2.3 5.2.3 5.7 0 9.6.3 9.6.6 0 .4 1.1.5 2.8.2 1.3-.2 1.8-.2 2.5 0 1.7.7 8.3 1 10.9.4zm-11-2.9c-1.7-.6-3-.4-2.4.3l1.8.1h1.6l-1-.4zM120 151.1c-3.6-.2-4.2-.4-3.5-.8h4.3l5 .3c1 0 1.2.1 1.2.4 0 .5-1.6.5-7 .1zm14.9-3.2c-.7-.1-1.3-.3-1.3-.5l1.3-.1c3.4.1 3.3.1 3 .5-.4.5-1.2.5-3 .1zm-13.3-2.8c-.3-.2-1-.3-1.4-.3-1 0-2.4-.7-2.4-1.1 0-.2.1-.2.4-.1l2 .4c1.8.2 2.3.4 2.3 1 0 .4-.1.4-1 0zm10.4-13 .5.1-.3.1c-.4 0-.4 0-.2-.1zm-14.7-9.8c-.2-.3-.5-.5-.7-.5-.7 0-.5-.4.3-.8 1-.4 1.3-.4 1.5.2.2.7.5.7 2.5-.2 3.2-1.6 7-3 7.4-2.9.5.2.4.2-2.3 1.3l-3.4 1.4c-5 2.4-4.8 2.3-5.3 1.5zm-7.7-.2c-.4-.3-1.1-.5-1.5-.5-1 0-1-.5 0-1 1.2-.5 2-.5 2.4 0 .3.5-.3.7 16.8-5.7 2-.8 3.5-1.2 3.7-1 .5.3 0 .6-1.7 1.2a217 217 0 0 0-15.6 5.7c-.5.2-.5.2 0 .6.6.4.4.7-1 1-1.7.3-2.1.2-3-.3zm49.1-4.5-1.4-.6a41 41 0 0 1 5.7-.2c5 0 6.1 0 7-.3 2.1-.9 2.2-1 1.5-.3-1 .8-2.5 1-6.8 1.3-2.2.1-4.1.3-4.3.4-.3 0-1 0-1.7-.3zm-27.3-1.5.8-.4 2.4-.7 3-.8c1-.1 1.1-.1 1 .3 0 .3-.4.6-.9.7l-2.9.7a16 16 0 0 1-3 .6c-.9 0-1 0-.4-.4zm30.4-4c-3-.3-4-.6-1.7-.6l5.5-.2 4 .1c0 .6-4 .9-7.8.6zm11.4-2.5c-1.6-.2-1.7-.6 0-.7 1.6-.1 3.6.4 3 .7-.4.3-1 .3-3 0zm-10.3-2.9c1.2-1.3 2.6-1.9 5-1.9 1.1 0 2 .2 2 .3 0 .2-.2.3-.5.3l-1.2.4a3 3 0 0 1-2 .2c-1-.1-1.3 0-2.4.7-1.6 1-1.8 1-.9 0zm10.5-1.3a5 5 0 0 0-1.4-.3c-.6 0-1.1-.2-1.3-.4a114.6 114.6 0 0 1 5.2-.2c.1 0 0 .3-.3.6-.5.6-1.3.7-2.2.3zM187.2 91c0-.2 0-.3.3-.3.2 0 .4.1.4.3 0 .1-.1.2-.3.2-.1 0-.3 0-.4-.2zm-27.8-1.6c-.2-.3.1-.4 1.9-.6.7-.1 1.9-.4 2.6-.8 1-.4 2-.6 5-.7a138 138 0 0 1 21-.7c.4.4-.5.5-4.8.6a146.4 146.4 0 0 0-11.7.5c-.2 0-1 0-1.8.2-1 .3-2 .3-3.4.3-1.7-.2-2-.1-3.4.5-1.6.9-5 1.3-5.4.7zm12.9-3.5c0-.4 2.1-.8 2.8-.5.7.2.6.3-.5.3-.6 0-1.4 0-1.7.2h-.6zm22.2-16c0-.4 3-1.2 3.6-1 .6 0 .6.1-3 1h-.6zm.3-6.8c-.4-.4-.6-.7-.4-.7.2 0 .4.1.5.3 0 .1 1.1.2 2.3.2 2.5 0 2.5.4 0 .6-1.5.2-1.8.1-2.4-.4zm-175-29.4c0-.7.6-1 1.3-.8.4.2.4.2-.1.4-.3.1-.6.4-.6.7 0 .2-.1.4-.3.4-.1 0-.2-.3-.2-.7zm18-7.3c-1-.3-1.8-1-1.8-1.4 0-.1.5-.2 1.4 0l2.9.1 2 .1c.7.2.7 1.1.1 1.3-.8.3-3.9.2-4.7-.1zm12.8-6.6c-.4-.2-1-.2-1.5-.1-.8.1-.8 0-.2-.2.5-.2 1-.2 1.9 0 1 .3 1.6.3 3.2 0 2.4-.6 4-.6 4.4-.2.6.6.4.8-.2.4-.8-.5-2-.5-4 0-1.6.4-2.7.5-3.6 0zm-2.3-1.5 1.1-.5c.7-.1.9 0 .7.3 0 .2-.5.4-1 .4-.7 0-1-.1-.8-.2zm2.6-1c.6-.4 1.5-.5 1.5-.2s-.9.6-1.6.6c-.3 0-.3-.1.1-.4zm15.7-1.9c-.5-.4-2.3-.5-3.4-.2l-.5-.1c0-.6 3.2-.8 4-.2.6.4.9.4 2.5 0l3-.4 1.9-.2c1-.4 13.2-1 13.5-.7.4.4-1 .8-2.9.9-4.5 0-16 .8-16.4 1-.7.5-1.2.4-1.7 0zm113-10.2-3.8-.2a299 299 0 0 1-17-1.2c-3-1-3.8-1.2-9.8-1.5-6.7-.3-11.3-.4-13.3-.2-1.8.2-10.5-.2-11-.6-.3-.2.8-.2 3.8 0 4 .1 4.3 0 4.4-.4.2-.4.7-.4 6.9-.2 3.7 0 8.6.2 11 .3l4.2.2 1.3-.9c1.1-.7 1.3-.7 1.8-.4.4.2 1.8.4 4.3.4 2.9.1 3.9.3 4.2.6.3.3.3.4 0 .9-.3.4-.5.4-1 .1a21 21 0 0 0-4.9-.3c-3.6-.1-4.2 0-4.2.3 0 .5 4 1 9.1 1.1 7.1.2 16.8.8 17.5 1 .3.2.5.4.5.7-.1.6-1 .7-4 .3z"/>
</svg>
