<?xml version="1.0" encoding="utf-8"?>
<svg xmlns="http://www.w3.org/2000/svg" xmlns:svg="http://www.w3.org/2000/svg" version="1.1" viewBox="0 0 221 97">
  <title>Mr. Tod sits under a willow on the far shore of a lake where several ducks are swimming.</title>
  <path d="m197 96.3-14.8-.5a445.4 445.4 0 0 0-24.8-.8h-24.6c-2.5-.2-11.8-.3-20.4-.4l-18.7-.3a1933.7 1933.7 0 0 0-88.2-.7H2l-.9-1c-.6-.7-.9-1.3-1-2.3A2283.1 2283.1 0 0 1 1.5 1.2c0-.2.5-.5 1-.6.6-.1 7.6-.2 15.8-.2A241.4 241.4 0 0 0 34.2.2c.2.4 13.5.7 35.2.8A1439.3 1439.3 0 0 0 125 .6c3.4.3 14.3.7 19.4.8 11 .1 42-.1 51.2-.4h16.6c7.1.2 7.5.2 8 .8l.6.5V31a1278.4 1278.4 0 0 1-.9 58.4c.2 6 .2 6-2.6 6.7-2 .6-.6.6-20.5.3zm20.4-2 .4-4a438.6 438.6 0 0 0 .8-28V59l-2.1-.1-9.4-.3c-7-.2-11.2-.4-16.4-1-2.5-.2-6.5-.3-6 0l3.7.3c1.8.1 3.4.3 3.5.4.5.5-.4.7-2.1.4-3-.4-10.5-.5-13.9-.2-2 .2-3.7.1-5.2 0-2.5-.4-15.5-.6-17-.3-1 .1 0 .2 4 .5 7 .4 8.5.6 8.6 1 .1.3-.1.4-1 .3-1.7-.3-8.7-.5-8.3-.3.6.3 0 .6-1 .6-.6 0-.8 0-.5.3l1.5.2c.6 0 1.2.2 1.2.3 0 .3 0 .3-4.8.3-5.8 0-4.3.4 1.8.6 2.9 0 5.2.2 5.3.2v.4c0 .3-.3.5-.9.4a462.4 462.4 0 0 0-22.9-.4 454.1 454.1 0 0 0-24.3-.6c-5.7-.2-20-.4-19.8-.3.3.4 9.6.8 19.3.9a676.1 676.1 0 0 1 28.4.9c.3.3-.1.8-.8.7-.3 0-.8.2-1 .5-.5.4-.8.4-2 .3-1-.1-1.5 0-1.7.2-.3.3-1 .3-3.9.1l-12.4-.2c-5 0-11.4-.2-14.4-.3a25 25 0 0 0-6.3 0c-.7.3-2.8.3-8.6 0-8.2-.3-16.2-.5-28.7-.5-7.8 0-9.2-.2-7-.8 1.3-.3 3.5-.3 4.1 0 .8.4 12 0 11.5-.4-.7-.5 1.4-.7 9.4-.7 6.4 0 7.4 0 7.7-.4.3-.3.8-.4 3.2-.3 2.4 0 2.9 0 2.8-.3 0-.5 1.8-.6 10-.6 4.2 0 5.8 0 6-.3.2-.3 6.6-.3 9.4 0 1.2.1 1.4 0 1.6-.3.1-.5.8-.5 12.5-.3h12.2l-6.1-.4c-7.6-.3-9.3-.5-9.3-.8 0-.3 6.7-.2 11 .2a406.4 406.4 0 0 0 16.6.6c-.3-.1-1.6-.3-2.9-.3-1.6-.1-2.3-.3-2.4-.5 0-.3-1.7-.4-7.5-.5-7.1 0-13.7-.3-18.8-.7h-3c-.3.1-3.3.3-6.7.4-16.5.2-19 .3-19.8.7-.9.4-11.2.6-33.7.4-11.2 0-13-.4-3-.6 6.8-.1 9-.4 3.8-.5-4.3-.1-7.3 0-11.1.4-1.8.3-4 .4-4.6.4-.8 0-2 .2-2.7.4-1.2.3-.2.4 9.4.5 6 .1 11.2.3 11.8.5.6 0-2.7.2-8 .1-6.7 0-9.1 0-9.2.3 0 .2-1.5.3-5.2.3h-7l-1.8.2 1.9.2c1 .1 2 .4 2 .5.2.2-1.5.2-4.3 0-3.4 0-4.6 0-4.8.2a99.1 99.1 0 0 1-10.8 1l8.4.2c2.7.2 3.2.2 3.1-.2 0-.3 1.2-.3 7.7-.3 5 0 7.7 0 7.7.2s-2.4.3-6.6.3a33 33 0 0 0-5.7.1l5.7.3c3 0 4.8 0 4.8.3a963 963 0 0 0-38.1 0H2.4l3.5.3 24.6.3 21.3.3v.3c-.2.1-26.1.1-42.8 0-3.9 0-6.4 0-6.5.2 0 .2 4.8.3 12.6.3 10 .1 12.6.2 12.5.4 0 .3-2.9.4-12.3.4-6.8 0-12.4.2-12.4.2-.4.4.8.5 7.8.5 6.9.1 7.6.2 7.6.6 0 .3.2.4 1 .4.7 0 1.3 0 1.4.2.1.3-9.8.7-10.2.4-.5-.3 0-.6 1-.6.5 0 .9 0 .8-.2h-5l-5 .3.2 6.3v10.8c0 3.3.1 4.5.4 4.8.2.4 1.2.7 3 1 2.4.5 3.2.6 8.2.4 6.7-.3 14.5-.2 21.7.2a9862.5 9862.5 0 0 1 50.1 1 5827.8 5827.8 0 0 0 82 .8 2280.4 2280.4 0 0 0 45.2 1.3c3 0 4.1-.2 4.3-.5zm-155.2-3c-1.6 0-2.6-.5-1.4-.6 2-.1 3.8.2 3.5.6l-.3.2-1.8-.2zm-1.7-1.6v-.3c0-.1-.3-.3-.7-.4-1.5-.3-2.2-.7-2.9-1.6l-1.3-1.6c-.3-.4-.6-.8-.6-1 0-.4.7-.4 1.6 0 .7.4 1.3.4 3.5.3 2.2-.2 3-.1 4.4.3l2 .4c.3-.3 0-.6-.7-1-.4-.2-.8-.6-.8-.8 0-.2-.3-.6-.8-1-.8-.5-1-1.1-.4-1.3.2-.1.4-.4.4-.6 0-.6.5-.5 1.1.4.4.5 1 .8 1.5 1 1 .1 1.3.4 1.5 1.8l.4 2.3c.3 1.3.3 1.4-.4 2-.6.5-1 .6-3 .6-1.2 0-2.1 0-2 .1l.4.4c0 .2-3.2.2-3.2 0zm2.7-3.2-1.4-.2c-.5 0-.5 0 .2.2l1.3.2c.4 0 .4 0-.1-.2zm-48 3c-.7-.2-.3-.6.5-.6 1 0 .6-.3-.6-.7-.9-.2-1.3-.8-.6-.8 1.8 0 5.8.5 5.8.7 0 .2-.4.3-1 .3l-1.6.2c-.6.2-.7.2-.1.3.8 0 1.4.3 1.2.6-.1.2-2.7.2-3.6 0zm26.4-2s0-.3.2-.3c.6-.3 3 0 3 .2-.2.4-3 .5-3.2.2zm-8.1-.1c-.4-.3 0-.6.8-.6 1 0 1.3.4.5.6-.8.2-1.1.2-1.3 0zm-22.1-2c-1-1-1.4-1.7-1.4-2.2 0-.8.4-.8 1.1-.2.4.4 1 .5 3.5.5l3.5.2c.5.2.6.1.6-.4 0-1 .7-1.8 1.8-2a7 7 0 0 0 1.6-.4c.7-.4 1-.1 1 .9 0 .6 0 .8-.7 1-1.1.1-1.4.6-1 1.4.6.8.6 1.3-.1 2-.5.5-1 .5-4.6.5h-4zm22.1.6c0-.2.4-.3.8-.3.5 0 .8.1.8.3 0 .1-.3.2-.8.2-.4 0-.8 0-.8-.2zm-.6-.7c-.3-.3.2-.6 1-.6.6 0 .7-.1.4-.3-.2-.1-.7-.3-1.2-.3s-1 0-1-.2c-.3-.5 1.5-.4 3 0 .8.3.8.3.4.7-.5.5-2.3 1-2.6.7zm15.3-.4c-.2-.3.2-.5 1.3-.5 1.2-.1 1.5.2.6.5-.9.4-1.7.4-1.9 0zm-15-1.8.1-.5c.2-.3.1-.3-.6-.3a2 2 0 0 1-1.5-.7c-.6-.5-.6-.8-.5-1.8l.4-2.3c0-.4.6-.2 1.8.6 1.2.9 1.7.9 1.1 0-.6-1 .5-2 2.3-2.2 1-.1 1 0 1.2.6 0 .6 0 .8-.6.9-1 .2-1.1.9-.5 1.6 1.2 1.2 1 2.9-.7 3.7-.7.4-2.3.7-2.5.4zm181.3-.6-9.8-.3c-8.5-.2-9.2-.3-9.2-.9 0-.3.1-.4.8-.2l10 .4c9.4.3 10.9.4 11 1 .1.2 0 .3-.2.3l-2.6-.3zm-3.3-1.3-10.6-.4c-9.7-.1-10.4-.2-10.4-.7 0-.2 2-.2 7.4-.1 5 0 7.2 0 6.7-.1-1.2-.4-15.9-.7-16-.3-.2.2-.5.3-.9.3-.3 0-.4.1-.2.2.2 0 .3.2.3.4 0 .3-28.9 0-33.8-.3-2-.2-8-.3-13.2-.3a38 38 0 0 1-9.8-.4c-.4-.4 0-.7 1.2-.5l13.4.2 12.8.3c.3.2 28.5.5 28.4.3-.3-.2-9-.7-17-.8l-8-.3c-2.1-.6 3.4-.7 16.6-.1 3.5.1 6.2.2 6.3 0a200.5 200.5 0 0 1 23.6 1.1c.2.3 1 .5 1.9.6 1.7.2 3 .6 3 1 0 0 0 .2-.2.2l-1.5-.3zm-195.7-.7c-.8-.3-1-.9-.8-2.4.2-2.1.4-2.3 1.8-1.5.7.4 1.5.7 2.2.7h1V76c0-1.2.4-1.6 2.2-2.2 1-.4 1.2-.3 1.5 1 .1.7.1.8-.6.8-1.2 0-1.5.4-1 1.5s.3 2-.5 2.5c-.6.3-4 1-4.8 1l-1-.2zm2.3-1c.5-.4.4-.8-.6-1-.5 0-.7 0-.9.4 0 .3-.1.7 0 .8.1.3 1 .2 1.5-.2zm109.8-.8c-.4-.2-1.7-.4-2.7-.4-1 0-2-.1-2-.3v-.5c0-.4-2.7-.5-7.6-.2-1.7 0-2.8 0-2.9-.2 0-.1.3-.3.7-.3l1.8-.3c2-.7 9.3-.4 9 .4-.2.4 1.4.5 9 .8 3.2 0 5.8.2 6 .2.2.3-.5.4-4.3.4-2.8 0-4.3.2-4.7.4-.9.5-1.3.5-2.3 0zm71.4-.4a981 981 0 0 0-23.6-.8c-9.1-.2-10.9-.4-10.9-.8 0-.3 2-.3 8.4 0l16.3.6c12 .3 14.2.4 14.4 1a1032.4 1032.4 0 0 0-4.6 0zm-58.7-.2c0-.1.8-.3 1.6-.3 1 0 1.4 0 1.3.2 0 .2-.8.3-1.6.3s-1.4 0-1.3-.2zm-40.9-1.8c0-.2.1-.4.3-.4.1 0 .2 0 .2-.2s-2-.2-4.8-.2c-4.8 0-5.5 0-5.5-.8a201 201 0 0 0 12.1 0l11 .3c.3.2.3 1.5-.1 1.5a1 1 0 0 1-.6-.3c-.4-.4-3.7-.4-3.7 0 0 .2-1.2.3-4.5.4-3.6 0-4.4 0-4.4-.3zm-14.6-2.4c-.3-.4-.8-.5-5.3-.5-4.3 0-5.1-.1-5.4-.5-.2-.3-.9-.4-3.9-.4-3.4 0-3.6 0-3.6-.5s.1-.6 3-.4c5.6.2 7.9.4 7.9.6 0 .2 1.7.3 3.8.3 2.6 0 3.8-.1 3.7-.3-.1-.2-1.4-.3-3.5-.2-2.4 0-3.4 0-3.4-.2-.1-.2.1-.4.5-.4a441.5 441.5 0 0 1-17-.6l-.3-.4a160.2 160.2 0 0 1 18.8.5c-.2 0-.3 0-.2.2l6 .3c5.9 0 8.4.5 3.6.6-2.8 0-5.3.4-3.1.5.7 0 1.2.1 1.3.4.2.4.6.4 2.2.3a78 78 0 0 1 9.9 0c1.7.3.3.7-3 .7l-7.6.3c-3.7.2-4 .2-4.4-.3zm58.5.2c-2.3 0-2.9-.1-2.9-.4 0-.3-.6-.4-3.3-.4-2.5 0-3.3 0-3.2-.3 0-.3 1.3-.4 4.7-.4 3.8-.1 4.7 0 4.9.3.2.2.9.4 2.2.4 1.7.1 2 .2 2 .6.2.4 0 .4-.7.4l-3.7-.2zm11.7-1a.6.6 0 0 1-.3-.5c0-.2.9-.3 3-.5h3.4c.6.4.1.6-1.4.7a11635.3 11635.3 0 0 0-4.7.3zm48.7-.4a26 26 0 0 0-3.8-.2c-2.8 0-3.9-.3-3.2-.8.5-.3 8.6.2 9 .6.2.3-.2.7-.7.7l-1.3-.3zM59.2 72c-3.6 0-4.2-.2-3.8-.6.5-.4 9 0 9 .5 0 .2-.2.3-.9.3l-4.3-.2zm62.7-1.3c-.6-.4-.2-.6 1.8-.8 3.5-.3 5-.2 5 .2 0 .3-.4.4-1.6.4l-3.2.2c-1 .2-1.8.1-2 0zm-80.8-.3c-.5-.5.7-.6 8.2-.6 8.5 0 10.2.2 10.2.6 0 .3-18.2.3-18.4 0zm77-1a6 6 0 0 0-2-.4c-.6 0-1.2-.2-1.2-.3 0-.4 1.8-.5 3.4-.2l1.8.3h2.7c1.7 0 2.4 0 2.5.2.1.4-.3.5-3.6.7-2.2 0-3 0-3.6-.3zm51.8.2c-.2-.3.2-.5 1.5-.6.5-.1-1-.1-3.3-.1-2.9 0-4.1 0-4-.2.1-.6 4-.8 7.1-.5 4 .5 6.3.9 6.2 1.1-.1.4-7.3.6-7.5.3zm10.9 0c-.1-.2-.5-.3-1-.2-.7.1-1 0-1.3-.2-.4-.5 0-.6 2.2-.7 2.6 0 2.6 0 2.6.4 0 .3-.3.4-.9.4-.5 0-1 .1-1.1.3-.3.2-.4.2-.5 0zm-156.5-1c0-.3 1.2-.3 8-.4 5 0 7.3-.1 6.3-.2l-9.8-.2c-5.6 0-8-.2-7.8-.4.1-.1 5.5-.2 17.6-.2h17.2c-.2 0-.3-.2-.3-.3 0-.3 16.3-.3 25.4.1 5.7.3 7.8.3 8 .1.1-.2 0-.3-.5-.4-.3 0-.6-.2-.5-.3.2-.2 8.7 0 9.8.3.6.1 0 .2-2.1.2a20 20 0 0 0-3.4.3c-.5.2-.5.2 0 .4l4.7.2c4 0 7 .4 6.3.8a1119.7 1119.7 0 0 1-41.6-.1 1189.7 1189.7 0 0 0-25.3.4c-10.5.1-12 0-12-.3zm17.5-.5a1 1 0 0 0-.7 0l.4.1c.3 0 .5 0 .3-.1zm9.8-.3a1 1 0 0 0-.7 0c-.2 0 0 .2.4.2.3 0 .5-.1.3-.2zm4 0a1 1 0 0 0-.7 0c-.2 0 0 .2.3.2.4 0 .5-.1.4-.2zm19.4-.1c0-.1-2.1-.2-4.9-.2-4.8 0-4.8 0-1.8.2 4.3.2 6.5.2 6.7 0zm1 .1h-.4c-.3.1-.2.2.1.2.3 0 .4 0 .4-.2zm-12-.5-.8-.1c-.5 0-.6 0-.3.2.3.3 1 .2 1-.1zm-4.6 0h-1l.5.1c.5 0 .8 0 .5-.1zm-6-.8-11.5-.1c-8.3 0-11.3 0-11.2-.3.1-.5 23.6-.4 23.6.1 0 .3-.7.6-1 .3zm-10.2-2.7c-.2-.3 4.7-.7 5.3-.5.2.1.3.3.3.4-.2.3-5.4.4-5.6 0zm52.4-5c0-.2.3-.3.4-.2.4.2.3.4-.2.4-.2 0-.3-.1-.2-.3zm34 5.3c.3-.4-13.3-.9-13.7-.5 0 0 1.2.2 3 .2 3.4 0 7.8.2 8 .4.2.2 2.6 0 2.8-.1zm4.2-.1a11 11 0 0 0-3.1 0c-.3.2.7.3 2.7.2h3.2zm-52-.8-1.6-.2c-1.8.1-1.6.5.3.5 1 0 1.4-.1 1.3-.3zm17.5.1h-.9l.5.1h.4zm14.5 0h-1.4l.6.1h.8zm-82.6-.2c-.2-.1-.5-.1-.8 0h.8zm-23.9-.2-1.8-.3c-1 0-1.5 0-1 .1.6.2 3 .4 2.8.2zm3.7-.1h-1c-.4 0-.2.1.4.1.6 0 .8 0 .6-.1zm82 0h-1.5H93zm-66.2-1.1c-.2-.3-12.3-.2-12.6 0a84.6 84.6 0 0 0 12.6 0zM15 60.9c3.4 0 7.4-.2 8.9-.3 1.9-.2 3-.2 4 0a29.8 29.8 0 0 0 5 .3c-1.4-.2-.6-.6 1.4-.6 1.2 0 2.2-.1 2.3-.2 0-.2-.2-.3-.5-.3-.4 0-.7-.1-.7-.2 0-.2-1.7-.3-3.7-.4-6.2-.4-8.3-.5-9-.8-.9-.3-1.3-.2-1.3.2 0 .8-1.1 1-6.3 1-2.7 0-5.3 0-5.7-.2-.5-.2-1-.1-2.1.2-.8.3-2.2.5-3.2.5-1.7 0-2.2.3-1.6.8A334.5 334.5 0 0 1 15 61zm138.5-.6c-2.4-.3-4.7-.3-4.5 0 .1.2 1.4.3 3.1.2 2.7 0 2.8 0 1.4-.2zm-112-.2h-1c-.3.1 0 .2.4.2.6 0 .8-.1.5-.2zm1.4 0a1 1 0 0 0-.7 0c-.2.1 0 .2.3.2.4 0 .5 0 .4-.2zm-4.8-1a1 1 0 0 0-.7 0l.4.1c.3 0 .5 0 .3-.1zM7.5 57.7v-1.1h-1L5 57c-.7.2-.6-.5.1-.8.9-.4 3.5-.4 3.7 0 .1.2 0 .6-.2 1-.4.8 0 1.1 1.6 1 1.7-.1 1.6-.1 1.6-.5 0-.2.2-.5.4-.5.5-.2 3 .2 3.7.7 1.4.9 4.7.4 4.7-.7 0-.6 1-.8 2.7-.4l1.5.4 1-.8c1-.9 1.2-1 2.2-.2 1.1.8 2 1 5.2 1.3l3.1.3.5-.6c.3-.4 1-.8 1.6-1 .9-.3 1-.3 1.6.2.3.3.8.6 1.1.6.4 0 .7 0 .8.2 0 .1 1.3.3 2.9.3 2.2 0 3 0 3.6-.4.7-.4 1.5-.5 3.4-.5 2.3 0 2.6 0 3.8-.8 1-.5 1.5-.7 2.6-.7 1.4 0 5.6-.1 10-.5l3 .1c.3.2.7.2 1.3 0l1.5-.4c.4 0 .8-.2 1-.4.7-.5 5.1-.8 6-.4a22 22 0 0 0 6.3 1.3c2 0 2.2 0 2.9-.6.6-.5 1-.6 2-.5 1 .1 1.5 0 2.7-.6 1-.5 1.6-.6 2.2-.5l2-.1c1-.3 1.6-.2 3.7.3 2 .6 2.6.6 3.2.4.6-.2 1-.2 1.4 0 .3.2 1.1.3 1.8.4 1.5 0 4.3-.6 4.4-1 .1-.3-1.6-.6-3.8-.6l-2.1-.3c-.7-.3-4-.5-20-1-2 0-3.8-.2-4-.3-.6-.6 1.1-.8 5.5-.5 18.1.8 18.6.8 25.7 2a49 49 0 0 0 16.3.4l1.4.1c.2.2.6.3 1.2 0l2 .1c.8.2 1.2.2 2.4-.3 1-.3 2-.5 3.2-.5.9 0 1.7-.1 1.7-.2l.5-.8c.4-.4.7-.5 1.7-.4.7 0 1.7 0 2.3-.2.9-.3 1.2-.3 2 0 .6.2 1 .2 1.2 0 .4-.3-.5-.4-6-.8l-9.3-.8-9-.7a46.7 46.7 0 0 1-13.6-1.4 80.8 80.8 0 0 1-4-.3c.3.2 1.6.4 3 .6 1.5.2 2.3.5 2.3.7 0 .5-.5.4-4.2-.3-4.6-1-12.9-2-21.6-2.6-4.1-.3-7.2-.7-7.6-1-.4-.3-.3-.3 4.9.1 4.6.4 11.4.8 11 .6-.2 0-2.1-.3-4.3-.4a193.2 193.2 0 0 1-13-1.2 376.6 376.6 0 0 1-9.9-.7c-.4 0-1-.2-1.3-.5-.4-.4-1.5-.6-5-1a46 46 0 0 1-8.4-1.2c-.5-.5.4-.5 2.6-.2a451.7 451.7 0 0 0 11.9 1.4A220.6 220.6 0 0 0 80 41.6a351.3 351.3 0 0 0 26.5 2.2h2.5c-1.8-.1-3-.3-3-.4 0-.3 14.9-.3 19.1 0l2.7.2h-3.7l-3.8.1 2.6.2c5.7.5 19.7.9 17.8.5-1.8-.3-7.9-.8-9.6-.8-1 0-1.4 0-1.4-.3s-.3-.4-1.5-.4l-4.3-.4-3-.4c-.3 0-.4-.2-.4-.3 0-.3 1.6-.3 3.3 0 1.8.5 2.5.5 2.6.3 0-.1.8-.2 1.5-.1h1.4l-1.4-.3a912.3 912.3 0 0 0-15-3.7 212.3 212.3 0 0 1-7.2-2c-1.1-.1-3.4-.9-5-1.5A60.5 60.5 0 0 0 94 32a119.2 119.2 0 0 0-6.9-2.9c-.2-.1-1.1-.5-2-.7-1-.3-2.9-1-4.3-1.8a36 36 0 0 0-5.2-2.4l-.1.4c0 .3-.7.4-3 .5-5.2.3-6.2.5-5.6.9l1 .2c.2-.1.5 0 .5.1 0 .8 2.8 1.4 4 1 .9-.4.4-.7-.7-.5-1.6.2-1.6-.3 0-.8 1.1-.4 1.3-.4 1.5 0 .2.2.3.3.7.1.2-.1.7-.2 1-.1.7.2.8.8.3 1l.6.1c1.5 0 1.6.7.2 2-1.2 1.1-1.6 1.2-4.5.3-1.6-.4-4.2-.5-4.2-.1s-3.2.2-5.3-.3c-2.5-.7-3.3-.7-3.5 0-.2.6-.7.7-1.5.3-.5-.3-3.3.4-4.5 1a150.5 150.5 0 0 1-14.2 5c-.3 0-1 .4-1.5.6-.5.1-1 .4-1 .7-.2.2-.5.3-.8.3-.8 0-2.4.9-3.4 1.8l-1.1.9c-.4 0-1.6 2.7-1.5 3.2 0 .5.3.6 1.8.8 2 .2 5.4.9 7.1 1.4 4 1.2 9.9 2.5 11.2 2.5.4 0 .5-.2.5-.8 0-.5-.1-1.3-.3-1.8a5 5 0 0 1 0-2.3c.3-1.1.3-1.5 0-1.8l-.5-1.4c-.2-1.1-1.2-1.8-3-2.1-1.3-.3-1.7-1-.7-1.3 1-.3 2-1.2 2-1.8 0-.3.3-.4 1.1-.4 1 0 1.1.2 1.4.9l1.6 2.2c1.3 1.6 2.4 3.5 2.7 4.5.1.4.6 1.2 1 1.8l.8 1.2h2.8c3.2.2 5.3.7 6.5 2 .8.7.9 1.3.3 2-.4.4-.4.4 1.6.4l8.8.5c5.8.4 6.7.5 6.6.9 0 .2-.3.3-.7.3a121.4 121.4 0 0 0-5-.4 43 43 0 0 0-4.8-.3c-2.6-.1-5.6-.3-6.9-.5a82.2 82.2 0 0 0-13.2-.4c-1.8.2-2.5.2-5.5-.5-4.8-1-6.7-1.4-11.2-2.7-1-.4-3.1-.8-4.6-1a20 20 0 0 1-2.8-.5L25 44a58 58 0 0 0-11-.7c-5 0-8-.1-8-.3 0-.2 1.4-.3 3.7-.4 2.5 0 3.7-.2 3.3-.4-.5-.2-9.8-.7-10.4-.5a209.6 209.6 0 0 0 0 15.9l4.6 1.1c.2 0 .3-.5.3-1zm1.7-13.5c0-.2.1-.2.3-.2l.2.3-.2.1c-.2 0-.3 0-.3-.2zm112-3.2-3.5-.6c-2.2-.4-2.6-.6-2.3-.9a52.7 52.7 0 0 1 7.6 1.7c-.4 0-1.2 0-1.9-.2zM77.5 29.2c-.3-.3.2-.6 1-.6.7 0 1 0 1 .4 0 .2-.3.4-1 .4l-1-.2zm-4.8 29h-2.3c-.6.1-.1.2 1.1.2 1.3 0 1.8 0 1.2-.1zm17-.7c0-.3-.7-.4-5.2-.4-3 0-5.3.1-5.2.2.1.2 1.8.3 3.7.4 6.5.3 6.8.3 6.8-.2zm59.9-.1c0-.3-2-.3-2.3 0 0 .1.3.3.8.3 1 .1 1.5 0 1.5-.3zm55 .3-3.6-.4c-7.3-.4-9-.5-9-.7 0-.1.8-.2 2-.2 2.1 0 12.1.7 12.7.9.3 0 .7-.3.5-.6l-2-.3c-2.3-.4-19.4-.6-18.7-.3l1.5.2c.6 0 1 .2.9.3-.1.2 0 .3.2.3.3 0 .4-.1.4-.3 0-.3.8-.3 1.5 0 .2 0 .3.2.3.3-.1 0 1.4.3 3.3.4 2 0 4.1.3 4.9.4 2 .2 5.6.3 5.1 0zm5.5 0c-1-.2-1.8-.2-2.2 0-.4.1 0 .2 1.6.2h2.1zm2.8 0a1 1 0 0 0-.7 0c-.2.1 0 .2.4.2.3 0 .5 0 .3-.1zm3.2 0c-.2-.2-.7-.2-1.4 0l-1.2.2h1.4c1 0 1.4 0 1.2-.2zm-140.4-.3c0-.2-1-.3-2.3-.3-1.6 0-2.4.1-2.3.3.2.3 4.3.3 4.6 0zm3 0c0-.1-.6-.3-1.4-.3-.8 0-1.2.1-1.1.3 0 .2.7.3 1.3.3.6 0 1.2-.1 1.2-.3zm92.1.1a1 1 0 0 0-.6 0l.3.1c.4 0 .5 0 .3-.1zm12.3 0h-.9l.5.1c.5 0 .7 0 .4-.1zm-31.5-.3h-.5c-.2.1-.1.2.2.2.3 0 .4 0 .3-.2zm27.3 0H177l1 .1h.9zm-3.2-.3c-.1-.2-1.2-.3-2.6-.2-2.7 0-2.8 0 1.8.4.6 0 .9 0 .8-.2zm-67.3-.3c.3-.4-3.5-.7-4.5-.3a72.1 72.1 0 0 1 4.5.4zm19.8-.2c0-.4-4-.8-8.2-.8-2.9 0-4 0-3.8.2.3.2 2 .3 3.9.3a75.8 75.8 0 0 1 8 .3zm2.5 0h-.5c-.2.1-.1.2.2.2.3 0 .4 0 .3-.1zm16.4 0c2 0 2.5-.1 2.3-.4a95 95 0 0 0-17.3.4 453 453 0 0 1 15 0zm33.6 0h-.5c-.2.1-.1.2.2.2.3 0 .4 0 .3-.1zm-29.6-.2h-.5c-.2 0-.2.1.2.1.2 0 .4 0 .3-.1zM214 56c0-.4-.4-.5-4.1-.7a201.3 201.3 0 0 1-7.8-.2c0 .2 1.7.4 3.9.6l4.1.4c.7.2 3.9.1 3.9-.1zm1.5 0h-.5c-.2.2-.2.2.1.2.3 0 .5 0 .4-.1zM103 55.7l2.4-.2h-2.1c-4.2-.2-7.5 0-9.6.3l-2 .4 4.4-.2c2.5 0 5.6-.2 6.9-.3zm9.5-.3c1-.3-3.7-.3-5.5 0a25.5 25.5 0 0 0 5.6 0zm46.7 0c1.2-.1 2-.3 2-.5.2-.3 1-.3 21.6 0 4.7.1 6.5 0 6.5-.1 0-.2 2-.3 7-.4h7.5c.1 0-.1-.3-.5-.5-.8-.3-.7-.3 1.7-.4h2.5l-2.4-.4c-1.4-.1-3-.2-3.5-.1h-5l-10-.1-24.7.2c-15.4 0-19.2.2-21.7.5a58.6 58.6 0 0 1-14.6 1.3c-3 0-3.1 0-1.8.3h13.6c9.3-.1 12.3 0 12.4.2.1.2 1.2.2 3.8.1l5.6-.2zm-10-1c-.6-.4 0-.6 1.6-.5l1.6.2c.1 0 .2 0 .2.2 0 .4-2.9.4-3.4 0zm30.9 1a7 7 0 0 0-1.6 0c-.5.1-.2.2.7.2.9 0 1.2 0 .9-.1zm19.4-.2zm19.2-1.5c0-.3-.7-.4-2.8-.5-4.1-.3-7.7-.2-7.9 0-.2.4-.4.4 3.7.6 6 .3 7 .3 7 0zm.3-2.3c0-.8-1-1-5-1.3l-7.6-.7c-4-.4-11.1-.6-11.4-.3 0 .1 1 .2 2.6.2 3.5 0 8.7.7 9.2 1.2.2.2-1 .2-7.5-.4a46.3 46.3 0 0 1-7.5-.8c-1.3.2-1.1.4.5.6 1.4.2-4.1 0-8.5-.3a119.2 119.2 0 0 1-15-1c-1.4-.3-3.5-.3-5.4-.1h-4.6l-3.8-.2-5.8-.4c-2-.3-5.9-.5-8.6-.6a61.4 61.4 0 0 1-9.8-.9h-1l.8.3 1 .5c.3.3 3.6.6 8.8.7 3.1 0 5.2.2 5.4.3.2.2-.3.3-1.5.3-3.2 0-1.8.2 2.6.4 2.3 0 5 .3 6.1.6 1 .2 4 .4 6.5.5a122.7 122.7 0 0 1 10.4.9c.2.2 4 .7 4.4.6 3.5-.8 4-.8 6-.5 1.3.3 4 .4 7.8.4a457.8 457.8 0 0 1 28 .5c2.4 0 2.8-.1 2.9-.5zm-6.3-2.2c-1.9-.4-5.8-.5-5.2-.3.4.2 5 .6 6.3.6.5 0 0-.2-1.1-.3zm-25.4 0H186 187.3zm-2.8-.4-2.1-.2h-1.6l1.3.2 2.1.2c.7 0 .7 0 .3-.2zm-121.7-.3c-.6 0-1.9-.6-2.9-1.1-2.2-1.2-4.3-1.4-3-.2.3.2.4.5.4.7 0 .5 1.6.8 5 .8 1.5 0 1.5 0 .5-.2zm138.8-.2c0-.2-2.4-.4-5-.7-4.1-.3-5-.3-5.3 0-.3.3.3.4 3.5.5l5.3.4c1.4.2 2 .1 1.5-.2zm16.3.2c-.5 0-1.2-.3-1.6-.5a5 5 0 0 0-1.6-.3c-.5 0-.8-.1-1-.5 0-.3-.4-.6-.7-.7-.4 0-1-.2-1.1-.3a6 6 0 0 0-1.7 0c-.9 0-1.5-.2-2.2-.6-.7-.4-1-.5-1.3-.3-.2.2-.7.2-1.3.1-1-.1-1-.1-.7.3.5.4 1.8.7 3.3.8.6 0 1.3.1 1.5.3l1 .3c1.3 0 3 .6 3.4 1 .3.5 1 .6 3.1.6 1.5 0 1.7 0 1-.2zm-163-.6c-.5-.4-1-.4-1 .1 0 .1.3.2.7.2.7 0 .7 0 .3-.3zm156.4 0-2-.1c-1 0-1.1 0-.6.2 1 .2 3.5.3 2.6 0zm-159.7 0c1-.4.2-3.4-.8-3.4-.2 0-.3.5-.3 1.8 0 1.7.1 2 1.1 1.5zm13-.3c.2-.3-1.5-1.5-2-1.5s-.6 0-.3.7c.2.5 1.6 1.2 2 1 .2 0 .3 0 .4-.2zm142.5.1-.4-.2c-.2 0-.4 0-.3.2.1.2.3.3.5.3 0 0 .2-.1.2-.3zm12-.4.2-1c0-.5-2.2-1-3.3-.8-.7.1-1 0-1.5-.5s-.6-.5-.4-.1l.1.7.6.4c.6.2.7.7.1.7-.2 0-.4 0-.4.2 0 .1.7.3 1.5.4a7 7 0 0 1 2 .4c.6.4.7.3 1-.4zm-1.9-.8c-.7 0-1.4-.3-1.4-.4 0-.3 2.2-.3 2.6 0 .8.5.2.7-1.2.4zm-36.8.8c0-.4-.5-.5-3-.8l-5.2-.3 2 .3 2 .3 1.3.2c.8 0 1.3.2 1.4.4.2.5 1.5.4 1.5 0zm8 .2a33 33 0 0 0-7.3-.4c-.4.2 2.4.5 5.8.5 1.3 0 1.8 0 1.4-.1zm-27.6-.3c0-.2-.2-.3-.4-.3s-.4.1-.4.3c0 .1.2.3.4.3s.4-.2.4-.3zm14.7 0c-.2-.1-.8-.3-1.5-.3-1.6 0-1.9 0-.6.3 1.6.3 2.4.3 2 0zm27.8 0c0-.2-.1-.3-.4-.3-.3 0-.5.1-.4.3 0 .1.2.3.4.3l.4-.3zm-75.2-.3c-.2-.2-2.6-.5-13-1.3-3.7-.3-6.6-.3-6.4-.2l2.8.5a9623.5 9623.5 0 0 0 11.3 1l4.8.2c.5 0 .7 0 .5-.2zm1.1.1h-.5c-.2 0-.1.2.2.2.3 0 .4 0 .3-.2zm21.5-.3-3.3-.4a410 410 0 0 1-4.3-.3c-1.5-.1-1.7-.1-1.2.2.5.3 7.3 1 8.7.7h.8zm21.2.3c-.2-.2-2.6-.4-5.3-.6-2.7-.1-5.5-.4-6.2-.6a78 78 0 0 0-11-1.4 72.1 72.1 0 0 1-5.2-.5c.1.2 1 .4 1.8.5 6.3.6 9.5 1 10.4 1.3A125.4 125.4 0 0 0 172 47zm29.2-.1c-.3-.3-.4-.3-.7 0-.2.2-.1.3.4.3.4 0 .5 0 .3-.3zm-4.7-.2c-.1-.2-.3-.3-.4-.3-.2 0-.3.1-.3.3l.4.2c.3 0 .4 0 .3-.2zm-10-.1-.3-.3-.4.1c0 .1.1.3.4.3l.4-.1zm-14.6-.4c0-.2-1.2-.4-5.6-.7-1.5-.1-1.7-.1-1.2.1.6.3 1.6.4 6.2.8l.6-.2zm-16.3-.3c0-.2-.6-.3-1.3-.3-.9 0-1 .1-.7.3.8.3 2 .3 2 0zm25.3 0h-.5c-.2.1-.1.2.2.2.3 0 .4 0 .3-.1zm22-.3 1-.5h-2.3c-1.2 0-2.3-.1-2.5-.3-.3-.3-2.5 0-2.7.5-.1.4.3.4 3 .3 1.2 0 2 0 2.1.2.2.4.4.4 1.5-.2zm-64 0-2.3-.2h-1.8l1.4.2 2.3.2c1 0 1 0 .4-.2zm12.9 0c-.2-.3-1.2-.3-1.7 0-.3.2-.1.3.7.3.7 0 1-.1 1-.3zm37.5-.1V45l-.4.4c0 .4.2.3.4-.1zm-59.7-.1c.1-.2 1.2-.2 2.5 0 2.2.1 3.5-.2 1.8-.4-1.8-.3-24.7-.4-25.1-.2-.3.2 1 .3 3.8.3 2.3 0 5.4 0 6.8.2 3.5.3 9.9.4 10.2 0zm66-.2c0-.1-1-.3-2.2-.4a14 14 0 0 1-2.6-.4l-.3.1c0 .5.8.8 2.7.9 2.4.1 2.4.1 2.4-.2zm-9.3-.3c.6-.3.6-.3-.6-.3l-4-.2c-3.5-.1-2.8.3.9.5l2.6.3c.2.2.4.2 1.1-.3zm23.7.2-.1-.3c-.2 0-.3.1-.3.3l.1.2s.2 0 .3-.2zm1.8 0c-.2 0-.4-.4-.4-.9s0-.7-.3-.6c-.8.2-.3 1.8.6 1.7.2 0 .3 0 0-.1zm-50.3-.2a1 1 0 0 0-.7 0l.4.1c.3 0 .5 0 .3-.1zm-3.1-.4-.6-.2c-.4 0-.4-.1 0-.3.6-.2.5-.2 0-.4l-1.4-.3-1.9-.3c-3.1-.6-3.4-.7-3.4-.2 0 .4 1.5.7 3.3.7.6 0 1 .1 1 .5.1.4.4.5 1.4.6l1.5.2c.2 0 .2-.1 0-.3zm19.8 0c.3-.3-.9-.6-3.1-.6l-3.2-.2c-1-.2-1.3 0-.6.5.7.4 6.7.8 7 .4zm34.3-.4c0-.3-.1-.6-.3-.6l-.2.6c0 .4 0 .7.2.7s.3-.3.3-.7zm-112.8.3a7 7 0 0 0-1.6 0h1.6zm119.4-.1c.3-.2.1-.3-.6-.3-.5 0-1 .1-1 .3 0 .3 1 .3 1.6 0zm-66.5-.3c0-.1-.2-.2-.6-.2l-1-.2-1.6-.2-3.6-.3c-2.8-.3-2.6 0 .3.4l3.7.5c2.1.3 2.6.3 2.8 0zm2.2 0c-.5-.3-1-.3-1 0 0 .2.3.3.7.3.5 0 .6 0 .3-.3zm13.1 0a8 8 0 0 0 1.9-.2c.5-.2-.7-.3-6.3-.7-1 0-2.4-.2-2.9-.3-1-.3-2-.2-2 .1 0 .2.3.3.8.3s1.1 0 1.4.2c.3.2 1.2.3 2 .3s1.8.2 2.2.3c.4.1 1 .2 1.2.1l1.7-.1zm37.1.1h-.5c-.2 0-.1.1.2.2.2 0 .4 0 .3-.2zm-86.8-.3zm91.1 0c0-.1-.5-.3-1.2-.4-.7-.1-1.4-.3-1.6-.5-.4-.3-3.8 0-3.8.3l2 .2c1.2 0 2.6.2 3.2.3 1.4.3 1.4.3 1.4 0zm-14.5-.3-.7-.2.6-.2c.8-.3.8-.7 0-.7-.5 0-.7.2-.7.4s-.2.4-.4.4-.4.1-.4.3c0 .1.5.2 1.1.2 1 0 1 0 .5-.2zm-63-.2a1 1 0 0 0-.6 0l.3.1h.4zm87.3-.5c.2-.2.3-.4.2-.5-.2-.2-1.8.6-1.8 1 0 .3 1 0 1.6-.5zm-83.7.3c-.2-.2-5.5-1-5.6-.8a306.2 306.2 0 0 1 3 .7c1.5.2 2.8.3 2.6 0zm1.3 0h-.5l.2.1c.3 0 .4 0 .3-.1zm13.4-.5c.1-.3 0-.5-.4-.5l-2-.4c-1.7-.4-3-.4-3 0 0 .2.4.3 1 .2.2 0 .4.1.5.3l1 .2c.5 0 1.1.2 1.4.3.8.3 1.4.3 1.5-.1zm66.2.2c.8-.3.4-.6-.4-.4l-1 .2-.6.1c-.4.3 1.3.4 2 .1zm-198.5-.3c0-.3-2.6-1-2.8-.8-.2.2 1.5 1 2.2 1l.6-.2zm8.2-.1c-.2-.3-.4-.3-.6 0-.3.2-.2.3.3.3s.6 0 .3-.3zm153.4-.3c0-.3-3.4-.3-4.1 0-.3.1.2.2 1.5.3 2 .2 2.6.1 2.6-.3zm19.6.5-.3-.3-.2.1c0 .2 0 .3.2.3l.3-.1zm-25.7-.5h1.5l-1.2-.2-2.2-.4c-.8-.2-1-.1-1.3.2-.4.6-.2.8.8.6l2.4-.2zm36.3-.3c.4-.5.3-.7-.2-.7-1 .1-1 0 0-.4l.8-.4-.6-.3c-.6-.2-.6-.3-.2-.6.7-.5.5-.7-.5-.6l-2.4.4c-.8 0-1.4.2-1.4.3 0 .2.1.2.3.1.4-.1 2.3.6 2.3 1 0 .3-1 1-1.5 1a3 3 0 0 1-1.2-.5c-.5-.4-1-.5-1.6-.4l-2 .1c-1.1 0-1.2 0-.7.4.3.2.4.6.3.8-.1.4.3.4 4.2.3a17 17 0 0 0 4.4-.5zm-7.4-.3c.3-.1.7-.1.8 0h-.8zm-181 .4c0-.1-.3-.3-.6-.2-.6 0-.6 0 0 .2l.5.2.1-.2zm121.3 0c-.8-.3-5-.7-9-1-3 0-3.1 0-2.1.3.7.3 2.4.5 5.7.6a56.6 56.6 0 0 1 5.4.1zm22.9 0c0-.1-.2-.3-.4-.3s-.4.2-.4.3c0 .1.2.3.4.3s.4-.2.4-.3zm3.2 0c-1-.3-2-.3-1.7 0 0 .1.6.3 1.2.2 1 0 1 0 .5-.2zm43.4 0-.3-.3-.3.3.3.3.3-.3zm-192.3-.2c.1-.2-.2-.4-.6-.6-.7-.3-1-.3-1 0-.2.2-.6.2-1.5 0-1.5-.2-1.4 0 .2.4 1.4.4 2.7.5 3 .2zm6.2-1.7a3 3 0 0 1 1-1.3c.4-.1.9-.6 1.2-1.1.9-1.5 4.8-4.6 5.4-4.3.2 0 .9 0 1.4-.2a71 71 0 0 1 2.9-1c2-.6 2.2-.8 1.5-1.3-.9-.4 0-.9 1-.5.6.2.9.2 1.2-.1.3-.4.3-.4-.4-.7-.7-.2-1-.1-3 1-2.4 1-3.5 1.3-3.8.8-.2-.3-2.8 1.6-4.8 3.5-1 1-1.5 1.3-1.8 1.2-.5-.2-1.4.7-2.2 2-.3.4-.7.8-1 .9-.6.2-1.7 1.7-1.7 2.4 0 .5 0 .5 1.3 0 1.1-.3 1.4-.5 1.8-1.3zm132.9 1.6c.3-.2.2-.2-.4-.2-.4 0-.6 0-.5.2.2.4.4.4.9 0zm33.8-.1c0-.3-.1-.4-.5-.3a5 5 0 0 1-1 .2c-.2 0-.3 0-.2.2.3.5 1.7.4 1.7-.1zm21.6 0c0-.2.2-.2.6 0 .3.2.6.2 1.2-.1l.9-.4-1.6-.1c-1.6 0-2.2.2-1.9.7.2.4.6.4.8 0zm4.8 0c.8-.6.3-.7-.8-.1-1 .4-1 .5-.4.5.4 0 1-.2 1.2-.4zm-75-.1c0-.2-.4-.3-.9-.3-.7 0-.8 0-.3.3.7.3 1.2.3 1.2 0zm43 0h-1c-.4.1-.2.2.4.2.6 0 .9 0 .6-.1zM164 41c.4-.3.3-.3-.7-.4-1.2 0-1.6.4-.6.6l.7.1.6-.3zm19.5 0c.1-.2-.4-.2-1.3.1-.6.2-.6.2.2.2.5 0 1-.1 1-.3zm28.4.1c0-.1-.2-.3-.4-.3-.3 0-.4.2-.4.3 0 .2.1.3.4.3.2 0 .4-.1.4-.3zM9.6 40.6h2.6l-1.3-.4A59.2 59.2 0 0 1 7.5 39c-1.2-.4-1.5-.7-1-1 .1 0 1.3.3 2.6.9 2.4 1 4.6 1.7 4.2 1.3l-1.6-.6c-1.8-.7-3.6-1.6-3.8-2-.1-.5.6-.4 1.9.4 1.1.6 4.5 2 5 2 0 0 0-.3-.4-.7-.7-.8-5.1-2.3-6.7-2.3-.7 0-1.4.2-1.7.3-.8.5-1 0-.3-.6.6-.4 1-.5 2.2-.4 1.9.1 2.6-.4 1.3-.8-.5-.2-1.2-.3-1.6-.3-1.3 0-3.5-.8-3.6-1.3-.2-.6-1-.9-1.4-.5-.3.3-.4 6.5 0 7 .1.3 2.6.6 3.7.4l3.3-.2zm144.7.1-1.3-.2c-.8 0-1.2 0-1 .2 0 .2.6.3 1.3.3.7 0 1.1-.1 1-.3zm1.5-.3c0-.4-.2-.8-.4-1-.4-.3-.4-.2-.4.6 0 .7 0 1 .4 1 .2 0 .4-.2.4-.6zm12.3.3 1.1-.2c1 0 1 0 .5-.4-.7-.4-4.3-1.3-4.7-1-.5.2-.2.8.4.8.4 0 .7.2.8.3.2.3 1.1.7 1.5.8l.4-.3zm9.1-.1c.3-.3.8-.4 2-.4 2 0 6.2-.2 6.4-.4.3-.3-.3-.4-2.5-.6-1.8-.1-2.2 0-2 .2.1.3-.7.3-4.2.2-4.8-.2-5.4-.3-5.2-.8.2-.5-2-.8-2.3-.4l-1 .2h-.6l.7.3c1.3.6 4.4 1.1 6 1 1 0 1.6.1 1.6.3 0 .2-.1.3-.4.3-.2 0-.3.1-.2.2.2.4 1.3.4 1.7-.1zm11.6.2h-.5c-.2.1-.2.2.1.2.3 0 .5 0 .4-.2zm10.9 0c0-.2-.2-.3-.4-.3l-.5.2c-.1.2 0 .3.3.3s.6-.1.6-.3zM22.4 40a29 29 0 0 1 6.7-6.5 13 13 0 0 0 2.7-2c1-.8 2.4-1.8 3.7-2.4 1.7-.8 2.3-1.2 2.5-1.8.2-.5.6-1 1-1.2.4-.3.6-.6.5-.8-.2-.7-4-1-5-.3-.7.4-3.4 1.1-4.3 1.1l-1.6.2c-.9.2-1.4.1-2.2-.2l-1.1-.4c-1.3 1.8-1.6 2-3 2.5-1.1.3-1.6.3-1.8.1-.5-.4-1-.3-.8.2 0 .3-.3 1-.8 1.8l-1.5 2.4c-.3.7-.7 1.2-.9 1.2-.1 0-.2 0-.1.1 0 0 1-.2 1.9-.7 1.5-.7 1.8-.7 2-.3 0 .2 0 .5-.4.7-.3.3-.4.7-.3 2 0 1 .1 1.8.2 1.8h.7c1-.2 2 .4 1.4.9a4 4 0 0 1-1.6.2c-1 0-1.3-.1-1.6-.5-.3-.4-.6-.5-1.1-.4-1.3.3-1 .7 2 2l1 .7c.5.7 1.5.4 1.8-.4zm112.9.2c-1.6-.2-3-.4-3.2-.3-.4.2 0 .3 2.2.5 3.4.4 4 .3 1-.2zm24.7 0c.2-.3.3-.6.2-.7l-1.5-.2c-1.4-.2-1.4-.2-1.3.4 0 .5.3.7 1 .8l1.1.2c.1 0 .4-.2.5-.5zm30.4.4h-.5c-.3 0-.2.1.1.1l.4-.1zm4.3-.1c0-.2-.2-.3-.3-.3-.1 0-.3.1-.3.3l.3.2c.1 0 .3 0 .3-.2zm-66-.3c-.4-.3-4.4-1.1-4.6-1 0 .1.1.3.5.4 1.7.7 4.5 1.1 4 .6zm18.2-.1-.3-.4v.4c0 .2 0 .4.2.4.1 0 .2-.2 0-.4zm3.5-.1c0-.2 0-.3-.3-.3-.2 0-.4.2-.4.4 0 .5.6.4.7-.1zm6-.1v.5c.1 0 .2-.3 0-.5zm35.8.3c.5-.5.4-1.6 0-1.6l-1.4.5c-1.2.6-1.5.6-4.5-.8a22 22 0 0 0-5.7-1.5c-1.4 0-.7.6.9.8 1 0 1.4.2 1.4.5 0 .5 1 .7 1.6.3.3-.3.8-.1 2.3.6 1 .5 2.3 1 2.7 1 .5 0 1 0 1.2.2.5.4 1.1.3 1.5 0zm10.4-.2c-.2-.3 0-.5.5-.7.6-.3.4-.4-1.5-.4-1.8 0-2.4 0-2.6-.4-.2-.2-.7-.4-1.2-.4-.6 0-.8 0-.6.4l.1.7c0 .1.5.2 1.2.2.9 0 1.2.1 1.2.4 0 .3.4.4 1.1.5l1.6.1c.4 0 .4 0 .2-.4zm-56.7-.5c-.3-.3-.5.1-.3.5.2.3.2.3.3 0v-.5zm66.1.4c0-.1 0-.2-.2-.2l-.6.2c0 .2 0 .3.2.3.3 0 .5-.1.6-.3zm7 0c.6-.6.3-1-.6-.9-1.2.3-2.3.7-2.3 1 0 .3 2.5.3 2.9-.1zm-87.6 0c-.3-.3-2-.4-2-.2l1.2.2h.8zm32.4-.5c.1-.4 0-.5-.8-.5h-1l.7.5c.3.3.6.5.8.5l.3-.5zm31-.3c.2-.6 0-.7-.5-.7-.6 0-.7 0-.7.8 0 .7.1.8.6.7.4 0 .6-.3.7-.8zm-50.7.4c0-.1-1-.4-2.3-.5l-3-.5c-.4-.2-.5-.1-.4 0 .5.6 5.7 1.4 5.7 1zm10 0c0-.2 0-.3-.3-.3-.2 0-.4 0-.4.2s.2.3.4.3.4-.1.4-.3zm61.3 0a1 1 0 0 0-.7 0l.3.1h.4zm-62.8-.4c-.4-.1-.5-.4-.4-.6 0-.2 0-.4-.2-.4-.5 0-.8.7-.6 1 .1.2.5.3 1 .3.8 0 .8 0 .2-.3zm-3.3-.4c.4-.3.4-.4.2-.7-.3-.2-.3-.2-.3 0s-.4.4-1 .4c-.9 0-1.2.3-.6.6.6.2 1.2.1 1.7-.3zm63.2.2v-.5c-.4-.5-1.3-.3-1.4.3 0 .3.1.5.6.5.4 0 .7-.1.8-.3zm-79.6-.3-1.5-.2c-.8 0-.8 0-.2.2l1.4.2c.7 0 .7 0 .3-.2zm13-.3s0-.2-.2-.2l-.2.4c0 .2 0 .3.2.3.2-.1.3-.3.3-.5zm14.4.3-.4-.2c-.3 0-.4 0-.3.2.1.2.3.3.4.3.2 0 .3-.1.3-.3zm19.5 0c.7 0 1 0 .8-.2l-1.7-.7c-1.7-.8-2-.8-3-.1-.7.6-.8.6 1 0 .6 0 .8.3.3.6s.3.7 1 .6l1.6-.2zm10.2.1h-.8c-.3 0-.1.1.3.1h.5zm27.2-.1c1.2 0 1.8-.2 1.8-.4s-.2-.3-.5-.2l-.6-.1c0-.3-1-.1-3 .4-1.4.4-1.6.7-.3.5l2.6-.2zm-72.8-.3c0-.4-1.8-1-2.8-1-.2 0-.7-.1-1-.3-.6-.2-.7-.3-.5-.6.2-.2.8-.1 2.2.2l2 .4c.1-.1.2-1 .1-2.1v-2l-2.3-.3-3.4-.7c-1-.4-1-.4-1.4 0-.4.6-.4 3.8 0 4.7.3.7 1.2 1.1 3.8 1.6 2.2.5 3.3.5 3.3 0zm29.6 0s-.3-.2-.8-.2-.7.1-.6.3l.8.2.6-.2zm-43.8-.1h-.8c-.3 0-.1.1.3.1s.7 0 .5-.1zm58.2-.2v-.4c-.2 0-.3-.2-.3-.4 0-.5.2-.5 1.6-.3.7.2 1 .3 1 .7 0 .5.5.8 1.3.6.7-.2.7-.8-.1-1.2-.8-.4-1-.8-.2-.6.7.2.6-1.2-.4-3.6-1.1-2.9-2-7-1.7-7.5.2-.3.1-.6-.5-1.6-1-1.7-1.6-2.2-2.3-2.2-.3 0-.5-.1-.6-.5 0-.3-.5-1-1-1.5-1.2-1.3-1.7-2.5-1.7-3.8 0-1.7.5-1.8.7-.2.1 1.3 1.5 3.8 2 3.8.2 0 .5-4.2.6-7.5 0-1.4 2-5 2-3.6 0 .2-.2.8-.6 1.5-.5 1-.7 2-1 5.8L187 20l1 1a37.5 37.5 0 0 1 4.6 7.8c.4 0 .4-.3 0-.8s-.3-5.7 0-6.2c.2-.1.3 0 .3.5 0 1.4.5.7.7-1 .3-2 .2-3.6-.5-6.4-.3-1-.3-1.7-.1-1.8.4-.3.5 0 1.3 4l.3 1.8.4-1.7c.2-1 .5-1.8.7-2 .7-.3 2.4-3.2 3-5l.8-1.5.7.8.6.7-.1-1.5c-.2-2 .3-2.3.6-.3l.1 1.9c0 .2 0 .5.3.7.1.2.2.5 0 .6l-1-.8c-.9-1-1.2-1.2-1.2-.7 0 .6-1.5 3.3-2.3 4.4-1 1.2-1 1.4-.5 1.4.3 0 .4.2.4.4 0 .3.2.4.5.2 1.2-.4 1.3-.4 1.5.3 0 .7-.4 1.5-1 1.5-.3 0-.2-.4.2-.8.2-.3.1-.3-.7-.2-.9.2-1 .2-1-.2.2-.2 0-.5-.3-.7-.4-.2-.5-.2-.6 0-.2.6-.7 6.7-.7 8.2 0 1.4-.2 2.2-.5 2-.1 0-.2-.8 0-1.6 0-1.2 0-1.5-.4-1.5-.2 0-.5.3-.5.7-.1.4-.3.7-.5.7 0 0-.2.4-.2 1 0 .7.2 1.2.6 1.6.3.3.5.7.4 1.2 0 .7-.2.8-1 .9-.7 0-.8 0-1.6-1.8a6 6 0 0 0-1-1.8l.4 2.2c.5 2 1 2.9 2 2.9.5 0 .6.2.8 1.5.2 1.8.2 2 1 1.7.8-.2 1.3-1.6.7-2.2-.2-.3-.2-.4.1-.6.5-.3.8-.1.8.6 0 .4.1.6.3.6.5-.2 1.9.2 2 .6 0 .2 0 .2-.2.2-1.2-.4-2.1-.4-2.1 0s.6.6 3.1.8c1.1 0 2.4.3 3 .5l.9.4h-1.5l-3.3-.4c-1.3-.2-2-.2-2.2 0l-1.5.2c-1.4-.1-1.8 0-1.4.6.2.2.2.5.2.7-.2.5.3.7 1.1.7.4 0 .5-.1.5-.6 0-.7.8-1 1.8-.8.4 0 .6 0 .6-.2 0-.3.8-.2 5.1.2 1 .1 1.3 0 1.3-.2 0-.4 1-.4 2 0 .7.1-.2.8-1 .8-.4 0-.8.2-.8.3 0 .2.4.3 1 .2 2.4-.4 4-.5 4-.3 0 .1-.4.5-1 .9-.9.5-1.1.6-3.4.5h-2.4c0 .4 2.5.5 5.6.4 2.6-.2 3.4-.4 2.4-.8-.6-.2-.5-1 .2-.8.5.2.5.1.4-1.4-.2-1-.1-1.7 0-2 .4-.3.5-3.7.3-4-.1-.1-.4 0-.5.2-.3.6-.9.6-.6 0l.2-1.8c.1-2 .5-5 .7-5.4.2-.3.3-.3.4.2.1.4.3.6.5.5.4 0 .5-2 .2-2.3-.2-.2-.2-.4 0-.6.2-.3 0-.5-.6-.7-.9-.3-.9-.3-.3-.5.9-.4.8-1.2-.2-1.7s-1.3-.5-1.3 0c0 .4 0 .4-1 .1-.7-.3-.9-1 0-.7.4.2.5 0 .5-.7 0-.5-.2-1-.3-1.1-.2-.1-.3-.5-.3-.8v-.6l-1.8.6-1.8.6-1 1.8c-.1.5 0 .6.2.5.6-.2.6.3 0 .7-.3.2-.5.5-.5.7 0 .7-.1.8-.6.7-.4-.2-.5-.3-.4-.9l.4-1 .9-2c.5-1.4.8-1.8 1.2-1.7.2.1.9-.1 1.5-.5a89.1 89.1 0 0 1 4-2.7l.8-.6c.5 0 .3.5-.4 1.1-.8.8-.8 1.2 0 .7.4-.3 1-.4 1.2-.4.3 0 .2.2-.5.6-1.5.8-1.9 1.2-1.9 2.3 0 .5.2 1 .3 1.1h.3c0-.2.3-.4.6-.4.4 0 .7 0 .7-.2s.3-.2.6-.1c.5 0 .7 0 1-.6.2-.5.2-.7-.2-.9-.4-.2-.3-.8.3-.8.2 0 .4-.3.6-.8.2-.5.5-.8 1-.9 1-.2 1.7-.8 1.7-1.6 0-.4.1-.7.3-.7.4 0 .3 1.3-.2 2.5l-.3 1.6c0 .2-.3.5-.7.6-1 .2-2 2.7-1 2.7.2 0 .3 0 .3-.2s.4-.5 1-.7c.5-.3 1-.7 1-1 .1-.4.3-.6.5-.6.2.1.6 0 .8-.4.5-.4.5-1 .5-3.9a20 20 0 0 0-.3-4c-.8-1.8-5.6-2.8-7-1.6-.5.5-1.5.7-1.5.4l.6-.6c.5-.4.4-.5-1.2-.4-1.5 0-1.7 0-2.2.8-.6.8-1.8 3.6-1.4 3.4.5-.3.2.7-.4 1.7-.4.5-.7 1.3-.8 1.7-.2.7-.6 1.1-.8.9-.1-.1 0-.6.2-1.1a3 3 0 0 0 .3-1.5c-.1-.3 0-1 .4-1.5.9-1.4.6-1.7-.5-.4-.5.6-1 1.1-1.2 1.1-.2 0-.5.6-.6 1.3l-.3 1.2V8.1l-.2-2.5c-.1-.5 0-.6.2-.5.2 0 .4.5.5 1 0 1 .3 1 1.2-.2.4-.6 1.3-1.5 1.9-2.1.6-.6 1.1-1.3 1.1-1.4 0-.4-.7-.4-.9 0 0 .1-.3.2-.6 0-.2-.1-1-.2-1.9 0-1.2 0-1.4.1-1.7.9a15.3 15.3 0 0 1-2 3.9c-.6.6-.6 0 0-1 .5-.6.8-1.4.8-1.7 0-.4.2-1 .5-1.3.7-.7.5-1-.5-.6h-1.2a647.2 647.2 0 0 1-24.3.1c-5 0-7.9 0-8 .2l.1.3c.5 0 1.2 1.3 1 2-.2.7-.7.8-.7.1 0-.2-.2-.8-.5-1.2-.3-.3-.5-.8-.4-1 0 0-.2-.2-.6-.2h-.8l.1 2.7c.1 1.8 0 2.6-.1 2.6-.2 0-.3-.5-.3-1.1l-.3-2.6c-.4-1.5-.4-1.6-1.3-1.7-.6-.1-1.6 0-2.3.1-.8.2-2.4.3-4.9.2-3.7-.1-4.8 0-3.2.6 1 .4 1 .8 0 .8-.5 0-1-.2-1.5-.8-.5-.6-.9-.8-1.7-.8-.7 0-1 .1-1 .4 0 .5-.6.5-1.6 0-.4-.2-1-.4-1.4-.3-.4 0-.4.2.6.6.8.3 1 .5.8.8-.2.2 0 .3 1 .5.8 0 1.8.4 2.3.6.5.3 1.7.6 2.8.8 1.8.3 2.4.4 2.1.7-.2.2-9.5-1.7-10.6-2.1-.5-.2-.6-.6-.1-.7.2-.1.1-.3-.2-.7-.7-.8-1.7-.8-5.4.1-1.2.3-1.2.7 0 1 .9.1 1.1 0 1.4-.3.2-.3.4-.3.5 0 .3.4-.6 1-1.7 1-.5 0-.8 0-.6.2.3.4 5.2.8 5.6.5.2-.2.5-.1 1 .2.5.3 1 .4 1.9.3 1.1-.2 1.2-.2.9.2-.3.4-.2.4.7.7.6.2 2 .3 3.2.3 1.5 0 2.1.1 2.1.4 0 .2.5.4 1.2.5.7.1 1.2.3 1.2.5 0 .1-.3.2-.8 0-1.1-.2-4 .4-3.9.8 0 .2.9.3 2 .3h2.3a178.9 178.9 0 0 0 8.2 0c0-.2-1.4-.2-3-.2-2.2 0-2.7 0-2.6-.3 0-.2.7-.3 2.8-.2 1.5 0 2.7 0 2.7-.2 0-.3-2.4-1-3.4-.9-1 .1-2-.3-2-.9 0-.4.4-.5 1.3 0 .5.2.8.2 1.2 0 .4-.3.6-.3.8-.1.5.5.8.3.7-.3V6c.3-.4.3-.4.6 0l.2 1.2c0 .7.2 1 .7 1 .4.2.7.5.8 1 .2 1 .8 1 1.2-.2.3-1 .8-1.2.8-.4l-.4 1.2c-.4.7-.4.8 0 1.2.6.6 1 0 .7-2-.1-1.5 0-1.7.3-1.7s.4.2.4 1c0 .4.2.9.3.9.2 0 .3-.7.3-1.5 0-1.1 0-1.5.4-1.5.3 0 .4.4.4 1.3 0 1.2 0 1.2.4.7.6-1 1-.8.8.4-.2.7-.1 1 0 1 .6 0 .7-1.2.3-2.4-.6-1.3-.6-3.2-.1-3 .1 0 .3.4.4.9 0 1.4.3 2 .7 2 .4 0 .6-.6.5-1.4-.1-.7.3-1.5.5-1.3l.3 1.6c0 1 0 1.6-.3 2-.4.4-.4.4.3 1l.6.7c-.2 0-.1.2 0 .4.3.3.3.5 0 .7-.4.3-.4.5-.2 1.1.2.6.2.8 0 1-.5 0-.3.4 1.5 1.5.9.7 1.7 1.3 1.7 1.5 0 .5-1 0-3-1.3-.6-.5-1.4-1-1.6-1-.5 0-1.6-.9-1.4-1.2 0-.1.4-.2.7-.1.5 0 .6 0 .7-.6 0-.6-.1-.7-.6-.7-.4 0-.7.2-.8.4-.3.7-.7.4-.5-.4.3-1.2-.3-1-1 .5-.6 1.5-.5 2.7.4 2.7.4 0 .5-.1.3-.7-.2-.9.5-.9 1.1 0 .7 1 .4 1.6-.8 1.5-1.5 0-1 .4.8.8 1 .2 1.4.4 1.4.7 0 .3-.2.4-1.5.2-.9 0-1.7-.2-2-.3-.3-.1-.4.2-.5 1.6l-.5 1.9c-.4.2-1-.8-.7-1 .3-.4.3-2.1 0-2-.2.2-.3.5-.3.7 0 .3-.1.6-.3.6a.3.3 0 0 1-.2-.3c0-.2-.2-.3-.4-.3-.3 0-.4.4-.4 1 0 1.2.2 1.5.7 1.5.4 0 .6.4 1 2 .1.3.2.3.4 0 .3-.2.3-.4 0-.7-.3-.6-.1-1.1.4-1.1l1.3.4c.8.4 1 .4 1.5 0s.6-.4 1.6.1c1.1.6 1.8.7 2.2.2.3-.2.8 0 2 .5l3 1.3c1.6.5 2.3.9 2.3 1.2l-2.4-.6c-2.7-1-3.9-1.1-4.8-.6-.6.3-.5.3.6.2 1.6-.2 1.7.2.1.7-.6.2-1.2.5-1.3.7-.3.6-1.6.4-3-.4-1.3-.9-1.4-1-1.4-.6l1.6 1.4 1.8 1.2-.1.4c-.3.2-2.5-1.1-3.6-2.3-.4-.4-.7-.6-.8-.4-.3.5.5 1.5 1.2 1.7.7.2 1 .7.4.7l-2-.5c-1.6-.4-1.6-.4-2.2.2-.7.7-.7.7.6 1 .6.1 1 .3 1 .5l-.3.2-1.4-.2c-1.8-.3-.9.3 1.4.9 2.2.5 2.4.7 1.5 1l-.7.5h2c1.9 0 2 0 1.2-.2-1-.4-1-.8.1-.8.5 0 1 0 1-.2.1-.2.8-.2 1.6-.1 1 0 1.2 0 .8-.2-.6-.2-.8-.8-.4-.8l1.5.4c.8.2 2.4.4 4 .4 2 0 2.5 0 2.4.4-.1.4.3 1 .8 1 .2 0 .4-.2.4-.5 0-.5 1-1 1.2-.6 0 .1 0 .4-.4.6-.4.4-.4.4.3.4.4 0 .7 0 .8-.2.3-.4 1-.3 1 .1 0 .2 0 .4.2.4.6 0 .2.5-.6.8l-.8.3 1 .3 2.6.4c1.9.1 1.8.6-.1.6-.8 0-1.9.2-2.5.4-1.3.4-1.7.5-1.6 0 0-.2-.6-.3-2-.5a45 45 0 0 1-2.9-.3c-.5 0-.7 0-.8.2-.1.3-.4.4-.7.3h-.3c.4.4 3 .9 6.4 1.2 1.8.2 3.4.5 3.4.6 0 .2-.5.2-1.2.1h-1.3c-.1.1-1.2.2-2.5.2h-2.3l1.7.2a9 9 0 0 1 2.6.8c.7.4 1.2.5 2.2.3.7 0 1.4-.3 1.6-.5.2-.3.2-.4 0-.4-.4 0-.3-.7.1-.9h.5l.4.7c.4.8 1 1 .7.4-.2-.5.2-.7.7-.4.7.4-.5 1.2-2.4 1.6-1 .2-2 .5-2.2.8-.5.4-.5.5.3.8 1.2.5 1.5.6 1.7 0zm20.9-2.8-1-1.4-.3-.6-2.8.6c-2.9.7-4.5.7-2.2 0 3.8-1 4.1-1 4-1.4-.2-.5.3-.8.8-.4.4.4.4.3.1-.6-.2-.5-.2-.7 0-.7s.7.7 1 1.5c.4.8.8 1.6 1 1.7.4.3.5 1.7.1 2-.1 0-.5-.3-.7-.7zm-22.7-1.8c-.4-.4 0-.6.8-.6.6 0 1 .1.8.2-.4.4-1.4.6-1.6.4zm12.4-.3.7-1 .8-.6h-1c-.7 0-1.4-.1-1.7-.3l-1.3-.3c-.6 0-.9-.2-.8-.5v-1c0-.4.2-.9.4-1l1-1.7c.5-1 .6-1.2.4-1.1-.6.2-.6-.3.4-2.3l1.2-2.9c.5-1.7 1-2 .7-.7 0 .6-.3 1.3-.5 1.7-1 1.9-.6 2.7.4 1 .5-1 .6-1 1.7-.8.6 0 1.1.2 1.2.3.2.2-.9.8-1.4.8-.5 0-1.8 1.2-1.8 1.6 0 .1-.2.4-.5.6-.3.3-.5.7-.5.9l-.2.4c-.3 0-1.5 2.3-1.4 2.5l1-1c.6-1.1.8-1.2 1-.9.4.4.2.6-.7 1.7-1.2 1.3-1.2 1.7-.2 2 1.4.3 2.2.2 3.6-.7l1.6-1c.2 0 .8-.4 1.5-.9 1.3-1 1.4-1 1.4-.6 0 .2-.5.8-1 1.3-1 .8-1.1 1-1 1.6.3 1 1 1.2 2.1.4 1-.8 1.3-.9 1.3-.3 0 .4-2 2-2.2 1.8-.2-.2-3.6.7-4 1-.4.2-2 .2-2.2 0zm4.6-1.5-.1-.4c-.4-.4-2.5.2-2.5.6 0 .3 2.3.2 2.6-.2zm-15.7-.6c-.2-.3 1.1-1.3 1.4-1 .2.2-.7 1.2-1 1.2l-.4-.2zm6.2-.5c-.2-.2 0-.9.3-.9.2 0 .3.3.3.6 0 .5-.3.6-.6.3zm5-.4c0-.5.9-1.6 2-2.6 1-.8 1-.8 1.3.3.2.6.1.8-.3 1-.2 0-1 .5-1.5.9-1.3.8-1.4.9-1.4.4zm8.3-.6c-.9-.4-.9-.4-.5-.9.4-.4.5-.3 1.1.3.8.9.6 1-.6.6zm1.6-.8c0-.5.5-.4.7 0 0 .3-.1.4-.3.4a.4.4 0 0 1-.4-.4zm-27.7-1.3c0-.3 0-.4-.6-.4-1.3 0-2-.3-1.8-.8.1-.3-.1-.5-1-.7-.7-.2-1.2-.5-1.2-.6 0-.4.7-.4 2.1 0 .7.3 2.2.7 3.5.9a12.4 12.4 0 0 1 3.9 1.1c1.6.4.8.7-2.2.8-2.5 0-2.9 0-2.7-.3zm18.1.1c0-.2.1-.2.3-.1l.3.3h-.3c-.2 0-.3 0-.3-.2zm-29.7-.2c-.1-.2 0-.4 0-.4.4-.3 1.7 0 1.7.4 0 .3-1.5.3-1.7 0zm37.8-2a979.3 979.3 0 0 0-1.5-3.2c0-.4.1-.4.4-.1.3.1.4.4.4.5l1 1.8.9 2c0 .8-.5.4-1.2-1zm-31.9.9c0-.2.8-.8 1.2-.8.3 0 .1.7-.3.9-.6.2-.9.2-.9-.1zm27.5-.1c0-.4.8-1.1 1-.9.2.2-.4 1.3-.7 1.3-.2 0-.3-.2-.3-.4zm1.8-1c-.5-1.2-.6-1.8 0-1.8.1 0 .4.4.6 1l.4 1.3c.4.8-.6.2-1-.6zm-19.2-.4c-1.1-.2-1.3-.6-.2-.6s1.8.2 1.6.5c-.1.3-.3.3-1.4 0zm16.1-.2c0-.5 1-.8 1.9-.6.7.3.3.6-.9.8-.7.1-1 0-1-.2zM186.1 23c-.3-.4 0-.7.8-.9.8-.2.8.2 0 .7-.5.3-.7.4-.8.2zm21.5 0-.7-1c-.4-.3-1-1-1.3-1.6-.4-.4-.9-.8-1.1-.8-.3 0-.6-.1-.7-.3-.1-.1 0-.3.3-.3s.6-.1.7-.4c.2-.5.6-.4.8.2 0 .4.3.9.6 1.2.4.5.4.5.2-.2-.3-1.3.4-.8 1.3.9a6 6 0 0 0 1.2 1.7c.2.1.3.2 0 .5-.3.4-1.3.5-1.3.2zm-27.7-.4c-1.2-.5-.9-.9.7-.7 1.5.2 1.6.2 1 .7-.7.5-.6.5-1.7 0zm4.4.2c-.5-.2-1.3-.9-1.3-1.2 0-.3.8-.2 1.7.4l1 .6c0 .2-1 .3-1.4.2zm-4.5-1.5c0-.3.2-.4.5-.4.7.2.7.8.1.8-.3 0-.6-.2-.6-.4zm16.5-.5c.2-.4 1-.8 1.2-.6.1.1 0 .4-.3.6-.6.4-1 .5-.9 0zm13-.1v-.8c.3-.3.5.1.4.8l-.1.6zm-36 0c0-.2-.4-.3-.7-.3-1 0-2-.6-2-1 0-.3.2-.4.6-.2l2.4.3c1 0 1.8.2 1.9.4.1.2-1.2 1-1.7 1-.2 0-.3-.1-.4-.3zm16-.9c-.2-.7-.1-1.2 0-1.4.4-.3.5-.2.7 1.2.2 1 .1 1.3-.2 1.3-.2 0-.4-.4-.6-1zm-7.6-.1c0-.5.6-.8 1-.5.3.1.3.3 0 .5-.4.5-1 .5-1 0zm-2-.4c-.1-.2-.6-.2-1.2-.1-1.1.2-1.6-.2-.8-.7.7-.4 2-.3 2.2 0 0 .3.5.2 1.3-.2 1.2-.7 1.8-.7 1.4 0-.2.3-2 1.3-2.5 1.3l-.4-.3zm11.5-.1c-.2-.3-.2-.4.1-.6.5-.2 1.3.4 1.1.7-.2.4-.8.3-1.2-.1zm-20-.4a2 2 0 0 1-.8-.6c-.3-.3-.6-.4-.9-.3-.4 0-.5 0-.5-.3 0-.4.2-.5 2.3-.3 2.4.1 4 .7 4 1.4 0 .3-.4.3-1.9.3-1 0-2 0-2.3-.2zm37-.2c-1-.4-1-.7 0-.6h1c0-.3.2-.2 1.2.1.5.2.4.2-.4.6l-.9.3-.9-.4zm-8.5-.7.8-1.8c.4-.9 1-2.4 1.2-3.5.2-1 .6-2 .7-2.2.4-.4 0 1.8-.9 4-.7 2-.8 3-.2 2 .2-.3.2-.3.2 0 0 .5-1 1.6-1.4 1.6l-.4-.1zm5.3-.5c0-.5 1.5-.8 1.7-.4.2.3 0 .4-.9.6-.6.1-.8.1-.8-.2zm-25.7-.2c0-.1-.2-.5-.6-.8-.4-.4-.5-.6-.2-.8.2-.2.5-.2 1.2.3.9.5 1.3 1.3.7 1.3-.1 0-.4 0-.7.2-.2 0-.4 0-.4-.2zm11 0c-.6-.4-.5-.8.1-.8.8 0 1.7.5 1.5.8-.2.3-1 .3-1.5 0zm-16.2-.3v-.4c.2-.2 1.5.2 1.5.5s-1.2.3-1.5 0zm24.6-1.2c-.6-.4-.8-1.4-.4-1.4.2 0 1.4 1.4 1.4 1.7 0 .2-.4.1-1-.3zm7 .2c-.2-.2-.2-.4-.1-.4.1-.2 1.8.2 1.8.4 0 .3-1.6.3-1.8 0zm-15.4-.3c-.4 0-.8-.3-.9-.5 0-.2.3-.3 1.4-.3 1 0 1.5.1 1.5.4 0 .4-1 .6-2 .4zm11.5.1.7-1c.3-.5.6-.7.6-.6l-.6 1.1c-.4.4-.7.7-.7.5zm-26.6-1.4v-.5c.2-.2 1 .2 1 .5s-.8.3-1 0zm19.5 0c0-.1 0-.3.2-.4l-.1-1.4c-.5-1.5-.5-2.8 0-2.7.1.1.4.8.5 1.7.1.8.3 1.5.4 1.5.2 0 .6-.7 1-1.5.9-1.9 1.6-2 .8-.2-.8 1.9-2.8 4-2.8 3zm-16.2-1c0-.2.1-.3.3-.3.1 0 .3.1.3.4 0 .2-.2.4-.3.4-.2 0-.3-.2-.3-.4zm1.3-.3-1.5-1.2a7.8 7.8 0 0 1-1.9-3.6l-.4-.8c-.5-.4-.5-1.7 0-1.5.1 0 .4.5.5 1 .2 1 .4 1 1.3 1.2 1.1.2 1.2.8.1.7h-.7c0 .5 2 2.8 3 3.6 1 .9 1.2 1.4.7 1.4l-1-.8zm-2.6 0c0-.8-.5-1-1-.5-.7.7-1 .6-.7-.3.1-.6 0-1-.6-1.9-.4-.6-.7-1.3-.7-1.7 0-.3-.1-.7-.3-.8-.3 0-.4-.4-.2-1.2.2-1.4 0-2.2-.8-2.5-.7-.3-1-1-.4-1s2 1 2 1.3c0 .4.3.4 2 .5.6 0 1.1.1 1.2.3 0 .3-.4.3-1.5.2h-1.6v1.1c0 .6 0 1.2.2 1.2s.3.1.3.3c0 .7 2.4 4 3 4.2.4 0 .4.1 0 .7-.5.7-.9.8-.9 0zm7.5 0c-.1-.6 0-1.1.5-1.1l.2.8c0 .9-.4 1-.7.3zm19 .1 1.7-3.4c1-1.8 1.8-3.7 1.8-4 .1-1 .6-2.3.8-2.3v1.2c-.1 1-.4 1.8-1.3 3.7l-.4.9c0 .2.8 0 3.5-1.4 1.6-.8 3.1-1.4 3.3-1.4.3 0 .5-.2.7-.8.3-1 .8-1.1.5-.1-.2 1-.7 2-1.5 3-1 1.2-1.3 1-.4-.4a9 9 0 0 0 .8-1.3L208.6 9l-2.4 1.3c-.6.3-1.2 1-1.5 1.5-.5 1-1 1.6-1 1.2zm-12.4-.4c-.8-.3-.7-.5 0-1.2.8-.5 2-.4 2 .2 0 .6-1.3 1.2-2 1zm-9-.5c0-.5.2-1 .5-1 .4 0 .2 1-.2 1.2-.2 0-.4 0-.4-.2zM180 10l.8-.2.8.2c0 .2-.4.3-.8.3s-.8-.1-.8-.3zm9.8.1c0-.3 3-3.5 3.3-3.5.4 0 0 .7-1.2 2.2-1.2 1.3-2.1 2-2.1 1.3zm-4.7-.7c-.2-.6.8-2.4 1.4-2.5.4 0 .4 0-.1.8-.3.5-.6 1.1-.6 1.4 0 .6-.5.8-.7.3zm32.5-1.9c0-1.2 0-2 .2-1.8.2 0 .3 1 .3 1.8 0 1-.1 1.8-.3 1.9-.1 0-.2-.6-.2-1.9zM213.2 9c0-.3 1.2-1 1.6-1 .5 0 .2.3-.5.8-.9.5-1.1.6-1.1.2zM179 8.2c-.1-.3-.2-.7 0-.7.2-.3 1 .3 1 .8.2.6-.6.5-1-.1zm4.3-1.7c0-.9.2-1.6.4-1.6.3.1.5 1.3.3 2.4-.3 1.5-.7 1-.7-.8zM195.6 8c-.1-.1.1-.6.5-1s.7-.5.8-.3c.1.2 0 .6-.4 1-.5.4-.8.6-.9.3zm-18-1c0-.3.4-.5 1-.5.5 0 .7 0 .7.3l-1 .4c-.6 0-.9 0-.8-.3zm-17-.7c0-.4.2-.8.4-.9.3 0 .3.1.3.7 0 .4-.3.8-.5.8-.2.1-.3 0-.2-.6zm50.1.2c-.2-.1 1.5-1.6 1.7-1.5.1 0 .2.3.1.5-.2.4-1.6 1.2-1.8 1zm5.7-.1c0-.5.4-.9.6-.5 0 .1 0 .4-.2.5-.4.3-.4.3-.4 0zm-6.9-.4c.1-.5 1-1 1.2-.8.2.2-.6 1.2-1 1.2l-.2-.4zm-53.2-.5c-.7-.8-.8-1.1-.4-1.4.3-.3.4-.2.8.5.5 1 .2 1.6-.4.9zm24.3 0c-.3-.1-.5-.5-.5-.7 0-.4 0-.4 1 0s1.2 1.1.4 1.1c-.3 0-.7-.2-1-.4zm14.7-.4c.5-.6.2-.7-.6-.2-.8.4-1-.2-.2-.7 1-.6 1.7-.5 1.9.1.2.7-.3 1.4-1 1.4-.5 0-.5 0 0-.6zm-3.8-.3c0-.6.6-1 1.1-.9.2.1.5 0 .7-.2.4-.5.8-.6.8-.2 0 .5-1 1.3-1.7 1.5-.7.1-1 0-1-.2zm23.4-.2.1-1c0-.2.2-.3.3-.2.4.2.3.8-.1 1.3-.5.5-.5.5-.3-.1zm-25.7-.2c-.7-.4-.8-1.1-.3-1.1l1 .5c.5.3.5.5.2.7-.2.2-.5.2-1-.1zm-4.6-.2c0-.2.2-.4.4-.4s.4.2.4.4-.2.4-.4.4a.4.4 0 0 1-.4-.4zm13.5-.3c0-.7.4-1 .7-.6.2.3-.1 1.3-.4 1.3-.2 0-.3-.3-.3-.7zm-21.6.3c-.5-.2-.5-1 0-1 .4 0 1 .6 1 1 0 .1-.5.2-1 0zm1.6-.2c-.2-.3 0-.6.6-.4.2.1.3.3.2.5-.2.3-.6.3-.8 0zm2.7.1c-.3-.3-.2-.6.2-.6.3 0 .4.1.4.3 0 .3-.4.6-.6.3zm-6.5-.8c0-.2.3-.3.7-.3.3 0 .6.1.6.3l-.6.2c-.4 0-.7 0-.7-.2zm-46.1 34.7h-.5c-.2.1-.2.2.1.2.3 0 .5 0 .4-.2zm30.5 0c0-.2.3-.3.8-.3.6 0 .8-.1.8-.7 0-.8-.1-.8-1.8-1l-1.4-.2.1 1.1.1 1.2c.1.2 1.4 0 1.4-.2zm5-.2c.3-.3.3-.5 0-.8-.5-.7-1.4-.4-1.5.5-.1.6 0 .7.5.7.4 0 .8-.2 1-.4zm7.8.1c.2-.3-2.2-1.3-2.8-1.2-.2 0 1.7 1.2 2.6 1.5l.2-.3zm26.6-.2 1.5-.2-.8-.5c-.4-.3-1.2-.5-2-.5-1.2 0-1.5 0-1.6.5 0 .6.7 1.3 1.2 1 .1-.1.9-.3 1.7-.3zm17.5 0c1-.4 2.2-.6 2.6-.7 1 0 1-.6 0-.9-1.3-.3-1.4-1-.2-.7 1 .2 1 .2 1-.6s-.3-1.1-.7-.6c-.2.3-2 1.3-2.5 1.3s-.2-.5.6-.8c1-.5 2.2-1.7 2.4-2.6.3-1 0-1.2-.6-.4-.5.7-2.6 3-2.8 3l-.1-.3c0-.3.1-.4.3-.4.2 0 .1-.2-.2-.4-.5-.4-.5-.4.3-.4.4 0 1-.3 1.2-.6.6-.8.6-1 .1-1-.2 0-.4.1-.4.4 0 .5-1.7 1-2.3.6-.7-.3-.7-.3-.3-1 .4-.6.1-1-.4-.6-.3.3-.4 1-.3 2.8 0 1.4.1 2.6.2 2.7.1.1.7 0 1.4-.1 1.6-.4 1.9-.4 1.5 0-.2.2-1 .5-1.7.7-1 .3-1.4.5-1.3.7l.1.4 2-.6zm-97 0c-.2-.2-1.3-.5-2.6-.7l-3-.6c-1.3-.3-.5.2 1.4.9 1.8.6 4.7.9 4.2.4zm14.8-.2-.5-.9-.5-.9c-.4-.6-1.4-.9-1.9-.4-.7.6-6-.4-7.6-1.5-.8-.5-1-.6-1.7-.3-1 .3-7.8.3-8.1 0-.5-.5 0-.7 1.7-.7h1l-.5-.5c0-.5-1.2-1.2-2-1.3-1.3 0-2-.2-2-.8l-.2-.5c-.2 0-.3-.2-.3-.4 0-.3.3-.4 1.6-.3 1.8 0 2.3.5.8.7-1.3.1-1 .5.6.7.7 0 1.5.3 1.6.4.4.3 3.6.6 3.6.3s-.8-1-1.5-1.2c-.4-.1-.6-.4-.6-.8 0-.3-.1-.7-.3-1v-.7c.2-.2 0-.4-.7-.6-.8-.2-1-.2-1.4.3-.5.4-.5.5.1.9.8.5.9 1 .2 1-.6 0-2.2-1.5-2.2-2s.3-.6.8-.1c.2.2.3.2.3 0 0-.4-.7-.7-2.2-1.1l-4.8-1.1c-2.6-.7-3.4-.8-3.7-.5-.3.2-.9.1-2.6-.4a361.2 361.2 0 0 0-9.3-2.7c-2.3-.5-8.5-2.6-9-3-.5-.6-1-.7-5.4-1.7-3.2-.7-4-.8-4-.5-.1.1-.7.6-1.5 1-1.3.9-2.3 1.3-4.1 1.6-.6.2-1 .4-.8.5 0 .2 1.8.8 3.7 1.4 2.5.8 3.6 1 4 .9.7-.4 1.5-1.4 2-2.5.2-.6.5-1 .9-1 .3 0 .9 0 1.4-.2l.8-.1-.1 1c-.1.7 0 1.2.1 1.2.2 0 0 .6-.3 1.3-.7 1.4-.7 1.3-.2 1.2.3-.1.4 0 .5.5 0 .7.3.8 2.3 1.5A118.2 118.2 0 0 1 93 28.3c.5 0 1 .2 1 .4l2.2 1c1 .3 3.2 1 5 1.8a79.5 79.5 0 0 0 9 3c1.1.4 5.6 1.6 7.6 2 3.4.7 7.6 1 5.3.5l-1.3-.6c-.2-.2-1-.4-1.7-.5-4.5-.6-7.4-1.2-7.4-1.6v-.2l5.2.7c1 .3 2.6.5 3.7.5s3 .3 4 .5c1.3.2 2.1.3 2.3.1.3-.2.5-.1.8.1.3.3 1 .5 1.8.6.8.1 1.5.3 1.7.5.4.2-.7.1-3-.2-.7-.1-.8-.1-.3.2.5.3 1.6.5 4.2.7.3 0 .4-.1.3-.4zm-23.5-9.5c-.4-.5-.1-1 .5-.9.5.1.7 0 .6-.2-.2-.4.1-.7.7-.5.5.2.6 1 .2 1-.2 0-.3.1-.3.3 0 .4-1.3.6-1.7.3zm-40.8-9.2c0-.2.4-.4.8-.4.5 0 .9-.3 1-.5.1-.2.5-.3 1-.3.3 0 .9-.3 1.2-.7.5-.5.8-.7 1-.4.5.4-1 1.8-2.1 1.8-.5 0-.9.2-1 .4-.2.5-2.1.6-2 .1zm86.6 18c0-.8-.2-1.1-.5-1.2-.4 0-.5 0-.5.5 0 1 .3 1.8.7 1.8.3 0 .4-.3.3-1zm10.3.9c-.1-.2-.4-.3-.7-.3-.3 0-.3 0 0 .3.5.3.9.3.7 0zm28.4 0c-.5-.4-.8-.4-.8 0l.6.2c.5 0 .5 0 .2-.2zM14.9 36.4h2c.8.2 1.5.3 1.6.2.3-.2.3-2.7 0-2.7s-3.9 1.8-4.5 2.3c-.6.5-.6.6-.3 1s.4.4.6-.1c0-.3.4-.6.6-.7zm146.7.4c0-.3-.1-.6-.3-.6-.1 0-.2.3-.2.7 0 .4 0 .6.2.5.2 0 .3-.4.3-.6zm51 .3c.2-.3.2-.6 0-.9a15 15 0 0 1 0-4.8c.3-3.5.5-4.4.9-5 .3-.4.5-1 .4-1.3 0-.6-.1-.5-.7.4-.6 1-1 1.2-.5.2.2-.5.2-.6 0-.5-.6.1-1 3-.6 3.7.2.3.2.5 0 .6l-.2 1.3c0 .7-.2 1.5-.3 1.9-.3.8-.4 4.1-.2 4.6.3.4.7.3 1.1-.2zm-37-.2c.3-.4.3-.5 0-.7-.5-.3-.7-.3-1 0 0 .2-.4.3-.7.3-.8 0-1.5.3-1.3.5.2.4 2.7.3 3-.1zm-40.2-.2-.4-1.5c-.4-1.5-.2-2.5.8-3.4.4-.3.7-.7.7-.9l.5-1 .5-.8c0-.6-.6-.1-1.8 1.4-1.4 1.8-1.9 2-1.9 1l-.3-1.5c-.2-.7-.2-1 0-1.2.3-.3.5-.1 1.2 1 .4.5.4.5 1-.2l1.3-2.4 1-1.8c.2 0 .1.6 0 1.4a7 7 0 0 0-.1 1.4c.1.2 1.5-3.7 1.4-4-.3-.6-.7-.4-.9.3l-.1.8-.4-.8c-.2-.4-.5-.7-.6-.7l-1.4 1.2c-.6.7-1.2 1.2-1.4 1.2-.3 0-.2-.6.4-1.3.5-.5.5-.6.1-.6-.2 0-.4 0-.4-.2s1.5-1 2.1-1c1.4 0 1.4 0 1.2-.7 0-.4 0-.8.2-.9.2-.1.1-.2-.2-.3-.4-.2-.6 0-.6.3-.2.7-.7.6-.8-.2 0-.6-.2-.7-1-.5l-1 .1.8-.4c.4-.2.8-.5.8-.7 0-.2 0-.6.2-.8a2 2 0 0 0 0-1.2l-.1-.6-1.2 1c-.8.7-1.2 1.2-1.2 1.7l-.2.8c-.2 0-.4 1-.5 2.1-.1 1.6 0 2.2.3 2.8.2.5.3 1 .1 1l-.2.8c0 .4 0 .8-.2.8-.2.1-.3-.1-.3-.7 0-.7-.1-.8-.6-.7-.6.2-.7-.1-.2-.9.2-.4.1-.8-.3-1.5-.6-1.1-.7-2.2-.3-2.2.1 0 .4.4.6.9.3.8.3.7.6-2l.4-4.6.4-4.4c.6-4 .6-3.9-.8-3.8-.7 0-1.4 0-1.4-.2-.1-.2.2-.3.7-.3.6 0 1-.3 1.5-1 .5-.5.8-.7 1-.5.2.2.2.4 0 .7-.3.3-.3.5 0 .8.2.3.2 1.1-.3 4.3-.5 3.2-.6 4-.3 4.4.2.4.3.8.2 1-.3.8.3.5 1.3-.6l1-1.2-1-.2c-.5-.1-1-.4-1-.6 0-.3.3-.4 1.5-.2 1.2.1 1.5.1 1.6-.3.3-.7-.3-1.1-1-.7-.5.4-.6.1-.2-.8l.8-3.5c.5-2.2.5-2.9.2-3.2-.2-.3-.2-.5 0-.8.3-.2.2-.4-.4-.5-.3 0-.7-.3-.8-.6-.2-.4.6-1.1 1.4-1.2.9 0-1.5-.4-2.9-.4-1 0-1.2 0-1 .3.1.4-1.1 1.5-1.8 1.5-.3 0-.2-.1.2-.6 1-1 .7-1.3-.7-1.3h-1.4v1c0 1.6 0 2.5.5 4.5.3 1.6.3 2 0 3.7A70.7 70.7 0 0 0 129 17c-.3.6-.2.8.4 1.7.4.6.7 1.4.7 1.9s.1 1.1.3 1.4c.2.4.3 1.5.4 2.5 0 1.4 0 2 .4 2.4.3.3.5.8.5 1.2 0 .5.1.7.4.7.4 0 .5.3.4 1 0 .2 0 .8.2 1.4.3 1.1-.1 1.9-.4.8-.1-.5-1.3-1.3-2-1.3-.3 0 1.5 2.4 3.2 4 .7.9 1.4 1.7 1.4 2 0 .1 0 .3.2.3s.3-.1.3-.3zm-2.8-3.1c-.2-.4 0-.8.5-.8.4 0 .8.7.5.9-.2.2-.8.2-1-.1zm1-10.9c0-.1.2-.2.5-.2s.5.1.5.2c0 .2-.2.3-.5.3s-.6-.1-.6-.3zm-2.2-1.8c0-.9.8-9.3 1-10 0-.6.8-.7.7-.2a69.8 69.8 0 0 0-.6 4.6l-.4 3.5a7.6 7.6 0 0 1-.4 2.6c-.2 0-.3-.2-.3-.5zm-.1-10c-.3-.5 0-.7.4-.4.2.2.2.3 0 .4-.1.1-.3 0-.4 0zm4.5-2.1c-.2-.4.4-1.7.8-1.6.3.2.2 1-.3 1.5-.2.2-.4.2-.5 0zm-4.1-3.2c0-.3 1.4-.8 2-.8.7 0 .4.4-.5.7-1 .4-1.5.4-1.5 0zm17.8 31.1c.2-.5-.1-2.3-.4-2.5-.2-.2-.6-.3-1-.4-.6 0-.7 0-.7 1.4-.1 1.3 0 1.5.4 1.7.9.2 1.6.1 1.7-.2zm4.7-.3c0-.8-.8-1.3-2.2-1.6-.8-.1-1 0-1 .3v1c-.1.8.2 1 1.8 1 1.3 0 1.4-.1 1.4-.7zm24.6.4c0-.2-.2-.3-.5-.3-.4 0-.4 0 0 .3.5.3.5.3.5 0zM146.2 35c0-1 0-1.5-.2-1.4-.2.1-.3.6-.2 1 0 .5 0 1.2-.2 1.5-.2.5-.1.6.2.5.2 0 .3-.6.4-1.6zm21.6 1.5c.2 0 .3-.3.2-.6 0-.4-1.9-.8-5.2-1.2-1 0-.6.8.4 1 .5 0 1 .2 1.3.3.3.2 1.7.6 2.6.6h.7zm32.8 0c0-.2-.3-.4-.5-.4-.3 0-.4.2-.3.3.1.2.4.3.6.3.2 0 .3-.1.2-.3zm-188.9-.4c.1-.1 0-.2-.1-.2-.2 0-.3.1-.3.2l.1.3.3-.3zm170.5 0-.4-.2c-.2 0-.3.1-.2.2 0 .2.2.3.4.3.1 0 .2-.1.2-.3zm-70.5-.4a2 2 0 0 0-1-.3c-.5 0-.4 0 .2.4 1 .4 1.5.4.8 0zm61.6.2c.2 0 .5-.2.5-.4s-.4-.3-1.4-.2c-1.4.1-1.8-.3-.7-.7.5-.2.3-.3-.8-.4-.8-.1-1.4-.3-1.4-.4 0-.2-.3-.3-.7-.3-.5 0-.8.2-1 .6-.3.6-.3.7.6.8a3 3 0 0 0 1.5-.1c.3-.2.5-.1.7.4.3.6 1 1 1.8.8l.9-.1zm-142-.6-.1-.2c-.2 0-.3.1-.3.2l.1.3.3-.3zm2.8-.2c.1-.3.4-.5.7-.5a26 26 0 0 0 5.3-2.5c0-.2-1 .1-2.7.9-.8.3-2 .6-2.9.6-1 0-1.7.3-2 .6-.4.4-.4.4 0 .1.6-.4 1-.1.6.5-.2.3-.3.6-.2.7.4.3.9.1 1.2-.4zm170.5.4h-.5.5zm-54.2-.7c0-.2-.2-.2-.2.1 0 .3 0 .5.2.4v-.5zm9.8 0c0-.4-.4-.7-1.3-1-1.5-.4-1.5-.4-1.6.2-.2.7.2 1 1.5 1.2l1.3.1c.1 0 .2-.2.1-.5zM11 35h-.5c-.2 0-.2.2.1.2.3 0 .5 0 .4-.2zm169.4 0c0-.8-4.3-1.2-4.7-.6-.1.2 0 .3.4.2a5 5 0 0 1 1.8.2c1.5.4 2.5.5 2.5.2zm-15-1.3c-1.5-.4-2.7-.3-2.7.2v.2l2 .4c1.8.3 2 .2 2.2-.1.1-.3-.2-.5-1.4-.7zM8.9 34l-1.7-.6c-1-.3-.3.3 1 .7 1.4.6 2 .5.7 0zm119.5-.1c-2.4-.7-5.4-1.7-6-2.2-.6-.3-1-1.3-.5-1 1.3.6 3.4 1.5 4 1.6.6.2.6.2.3-.4L126 31c.1-.6.2-.5.7.3l1 1.4c.6.6 2.5.7 2.5.1 0-.2-.7-1-1.5-1.8-1.6-1.7-1.7-2.2-.1-1.3 1.2.7 1.3.7 1.3.2 0-.4-1-.7-3.3-1.2-1.2-.2-1.4 0-.8.5.3.2.4.5.4.7 0 .5-.7.5-.8 0-.4-1-2.5-2-4.6-2.2L118 27c-1.4-.3-.9.7 1.4 2.9 3.3 3.1 5.8 4.4 8.8 4.4h1.6zm-7-5.3c0-.2.3-.4.5-.4s.4.2.4.4-.2.4-.4.4a.4.4 0 0 1-.4-.4zm-3.1-.5c0-.3.2-.4.4-.4.7.2.8.8.2.8-.4 0-.6-.2-.6-.4zM12.4 34l-.3-.3-.3.1c0 .2.2.3.3.3h.3zm139.9 0c-1.2-2.5-1.7-3-1.4-1.3 0 .6.2 1.1.3 1.2.1.3 1.2.3 1 0zm1.6-.7c0-.7-.3-1-.9-1.1-1-.3-1-.1-.3 1 1 1.1 1.3 1.2 1.2 0zm1 .2c0-.4-.1-.7-.3-.7-.2 0-.2 1 0 1.1l.2.2v-.6zm25.9.4c0-.2-.1-.3-.5-.3-.5 0-.5 0-.2.3.5.3.5.3.7 0zm-170.3-.2c0-.2-1.7-.9-2-.9-.7 0-.3.5.6.7 1.3.4 1.4.4 1.4.2zm4.2-.2c0-.3.3-.4.6-.4s.5-.2.5-.4c0-.4-.5-1-1-1-.2 0-1.1 1.4-1.1 1.9 0 .4.8.3 1-.1zm88.8-.2c-.4-.3-1.7-.6-1.7-.3 0 .1.4.4.9.5.9.3 1.2.2.8-.2zm53 0c-.1-.2-.2-.2-.2.1 0 .3 0 .5.2.4v-.5zm22 .3c0-.1-.2-.3-.5-.3s-.6.2-.7.3c0 .1.2.3.5.3.4 0 .7-.2.7-.3zm-6.9-.5c0-.3-.2-.5-.7-.5l-1.9-.2-1.2-.1 1 .2 1.4.7c.6.6 1.4.5 1.4 0zm4.5.1c0-.4 0-.5-.6-.2-.6.2-.5.6.1.6.3 0 .5-.2.5-.4zm-27.2-1c0-1 0-1.2-.5-1.2-.3 0-.6-.3-.6-.6-.1-.4-.4-.5-.7-.5-.7.2-.5 2 .4 2.8 1 1 1.4.8 1.4-.6zm1.3.9c0-.2-.1-.3-.2-.3-.2 0-.3.1-.3.3 0 .1.1.2.3.2.1 0 .2 0 .2-.2zm9.3-.2c0-.4-.3-.6-1.3-.7-.9 0-1 .4-.3.8 1 .4 1.6.4 1.6 0zm-148 0c0-.3-3.3-1.6-4.4-1.8-1.6-.3-1.2.2.6.7.7.1 1.8.5 2.3.7 1 .5 1.6.7 1.6.4zm109.3 0c.2-.2.2-.4-.3-.8-.5-.5-.8-.5-1.6-.4-1 .2-1 .2-.5.4.9.2.7.7-.3.8-.5 0-.1.1.8.1.8 0 1.7 0 1.9-.2zm35-.2c0-.2-.1-.5-.3-.6-.1 0-.3.1-.3.4 0 .3.2.6.3.6.2 0 .3-.2.3-.4zM4.4 32.4c-.3-.3-1.8-.6-1.8-.4 0 .2.4.4.8.5.9.2 1.3.2 1-.1zm2.1-.3c-1.2-.4-1.6-.4-.7 0l1.1.4c.4 0 .3-.1-.4-.4zm93.3.2a7.2 7.2 0 0 0-3-1 67.6 67.6 0 0 1 2 1c.7.3 1.2.3 1 0zm65-.2c-.3-.2-.7-.4-.9-.3-.2.1-.1.2.3.4 1 .4 1 .4.5 0zm9.9.2c-.1-.2-.3-.3-.6-.3-.2 0-.3.1-.3.3 0 .1.2.2.5.2s.5 0 .4-.2zm-28.5-.3v-.3l-.4.3c0 .2 0 .3.2.3.1 0 .2-.1.2-.3zm3.7-.3c-.1-.2-.2-.2-.2.2 0 .2 0 .4.1.3v-.5zm13.4.3c.1-.1-.2-.3-.8-.3-.6 0-.9.2-.8.3.1.2.5.3.8.3.4 0 .7-.1.8-.3zm52.5 0c.3-.2.3-.2-.3-.3-.4 0-.7.2-.6.3.2.3.4.3 1 0zM12.6 30.5c0-1.3 0-1.3-.8-1.5-.8-.3-.9-.4-.9-1.5s0-1.2-1-1.3a5 5 0 0 1-1.5-.6c-.6-.4-1-.5-2-.3-1.1.2-1.6.2-2.1 0-1.5-.8-1.7-.5-1.7 2.5 0 1.9 0 2 .5 2.2.4 0 1 0 1.3-.2 1-.5 2.5-.2 5 1.2 2.7 1.3 3 1.3 3.2-.5zm131.3 1.3a1 1 0 0 0-.6 0c-.2.1 0 .2.3.2.4 0 .5 0 .3-.2zM4.7 31.5c-.2-.2-.5-.3-.7-.3l.2.3.6.2c.2 0 .1 0-.1-.2zm42.6-1c0-.3.1-.6.3-.8.3-.3.2-.3 0-.3-.3 0-.7.4-1 .9-.5 1.2-.5 1.6.2 1 .3-.2.5-.6.5-.9zM166 31c0-.4-.1-.7-.2-.7a279.4 279.4 0 0 0-7-.4c-.5-.1-.5-.1-.3.1.1.2 1 .5 2 .8 1.5.4 1.9.4 2.3.1.5-.3.6-.3.9 0 .2.3.7.5 1.1.6l1 .1.2-.6zm-6.1.3c-.3-.3-1.6-.4-1.5-.2.1.2.5.3.9.3l.6-.1zM3.2 31c0-.2-.2-.3-.4-.3-.1 0-.2.1 0 .3l.3.2c.2 0 .2-.1.1-.2zM144 31c0-.5-1.2-1.6-2.1-1.9-1.1-.3-1.2-.3-1.8.3-.4.4-.7.8-.6.9.4.4 4.5 1 4.5.7zm1.6-1.5c0-1.3-.1-1.7-.5-1.8-.6-.3-.8.2-.6 1.6.4 1.7.5 2 .8 2 .1 0 .3-.8.3-1.8zm32.1 1.5c0-.2-.4-.3-.7-.3-.5 0-.5 0-.2.3.5.3 1.1.3.9 0zm39.5-.3c1.3-.3 2-1 1.7-1.4-.2-.2-.6 0-1.2.4l-1.6.8c-.4.1-.7.3-.7.5 0 .1.2.2.4.1l1.4-.4zm-202-.2c.2-.6-.3-1.8-.8-2-.2-.1-.5 0-.6.5-.4.9-.4.9.2 1.4.6.7 1 .7 1.2 0zm29.3-.2c-.4-.4 0-.7.6-.5.5.2.6-.2.2-.6-.3-.2-.2-.5 0-1 .2-.3.3-.7.3-1-.1-.5.4-1 1.5-1.2.5-.1 1-.4 1-.6 0-.2.5-.5 1-.7 1.5-.4 2.6-1 2.5-1.5l-2-.3h-2l-1.1 1.3c-.7.7-1.3 1.2-1.4 1-.2 0-.6 0-.9.3-.4.2-.6.2-.7 0-.2-.3-.4-.3-1 .3-.6.5-.7.7-.5 1 .5.4.4.6-.2.8-.4.1-.5.2-.2.7.3.7.9.7 1.6 0 .9-1 1.6-.4 1 .7-.4.4-.4.8-.2 1.3.1.4.3.6.5.5.2-.1.2-.3 0-.5zm128 .4c.3-.2.6-.5.6-.8 0-.4 0-.4-.3 0-.2.3-.6.5-1 .5-.3 0-.5.1-.5.3.3.3.6.3 1.3 0zm10.4 0s-.4-.1-.8 0l-.8.1c0 .1.3.2.8.2.4 0 .8-.1.8-.3zM37.3 30c1-.5 1.2-.7 1-1-.3-.4-.4-.4-1.2 0-1 .5-1.7 1.1-1.7 1.5 0 .3.5.2 1.9-.5zm13.5.1c.4-.3.7-.7.7-.9 0-.4.6-.6 1.8-.6 1 0 1.7-.4 1.7-.8 0-.7-5.4-.2-5.9.5-.2.4.4 2.4.7 2.4.2 0 .6-.3 1-.6zM17 29.7c.3-.2.5-.6.5-.8 0-.1.2-.4.5-.6.4-.2.4-.3 0-.5l-.5-.5c0-.4 1.8-1.4 2-1.3.2.1 1-.1 1.8-.5.8-.3 1.4-.7 1.3-.7-.5-.3-3.6.4-4 .8-.1.3-.8.5-1.5.6-1.6.2-2 .8-1.4 2.7.4 1.4.6 1.5 1.3.8zm145 .2c.2-.2 0-.3-.2-.3s-.4.1-.4.3c0 .1.1.3.3.3l.4-.3zm-8.2-.2c0-.3-1.4-1-1.6-.7-.2.2.7.9 1.2.9l.4-.2zm61-.2c0-.2.3-.4.6-.4.5 0 2.1-2 2.1-2.6 0-.2.1-.3.3-.3.3 0 .3.4 0 1-.2.4-.2.6 0 .6.1 0 .2 0 .2.2s0 .3-.3.3-1.2.8-1.2 1.1c0 .5.6.2 1.5-.6.8-.7.8-.9.8-2.2 0-.9 0-1.4-.2-1.3-.2 0-.2-.9-.1-2.3v-2.5l-.4 1c-.7 1.5-.7.7 0-1.4.3-.9.5-1.7.4-1.8-.2-.1-1.5 3.3-1.5 4 0 .4-.2 1-.5 1.2a10.1 10.1 0 0 0-2.6 4.9c-.1 1.3 0 1.5.3 1.5.2 0 .5-.2.6-.4zm.9-2.3.4-.5s0 .3-.2.5l-.4.6.2-.6zm0 2.4-.3-.2c-.1 0-.3 0-.3.2s.2.3.3.3c.1 0 .3-.1.3-.3zm-75.7-1c.6-.6 1.2-1 1.4-1 .2 0 .8-.5 1.3-1 .8-.8.9-.9.8-2.3-.1-1.7-.3-1.9-1.7-1l-.9.4 1 .1c1.4.2 1.4.7 0 .7-.9.1-1.1 0-1.1-.3 0-.2-.1-.4-.3-.3-.1.1 0 .5.2 1 .5 1 .2 1.6-.4.8l-.5-.7-.2.7a20 20 0 0 1-.7 1.7c-1.1 2.6-.8 3 1 1.2zm9.6.5c-.2-.4-.6-.3-.6.1 0 .3.1.4.4.3.2-.1.3-.3.2-.4zm-5.8-1.5c0-.5-.2-.6-.5-.3-.5.4-.5.7 0 1.5l.5.7.1-.6v-1.3zm23.4 1.5c.3-.1.3-.3.2-.3l-.9-.1c-.4-.1-.6 0-.6.2 0 .5.7.6 1.3.2zM66 28.8a10 10 0 0 0-1.7-.2h-.6l.6.2a7 7 0 0 0 1.7.2H67l-1-.2zm8.2 0-.5-.2c-.2 0-.3 0-.2.2 0 .2.3.3.5.3s.3-.1.2-.3zm73.8 0c.1-.3 0-.5-.4-.6-.6-.2-.8 0-.6.5.2.5.8.5 1 0zm7.9-.5c-1-.7-1.6-.9-2-.6-.2.3 0 .3.6.3s.8.2.8.4.3.4.5.5c.8.2.8 0 0-.6zm3.3.5c0-.2.3-.4.7-.4.4 0 .7-.2.7-.4 0-.1-.3-.2-.7-.2-1.6.1-2.5 0-2.6-.4-.1-.3 0-.6.2-.7.4-.3-.8-.8-1.9-.8-1 0-1.2.5-.2.6.7 0 .9.2 1 .7.2 1 3 2.5 2.8 1.6zm-111-.7c.6-.7 3.7-1.6 5.4-1.6 1.1 0 2.5-.3 2.4-.5-.2-.4-4.6-.4-5.6 0-1 .2-4 1.5-4.3 1.7-.3.2.8.9 1.3.9.3 0 .6-.2.8-.5zm81.5.3c0-.6-2.3-2-3.3-2-.3 0-.7-.1-.8-.3 0-.3-.7-.8-1.4-1.2-2.1-1.4-3-1-1.4.7.5.5.8 1 .7 1-.1.1-.7-.3-1.3-.9-1.8-1.8-2-1.9-3-1.9-1.1 0-1.7-.2-1.7-.7 0-.3.2-.3.4-.2 2 .7 2.3.1.7-1.2l-1.5-1.3c-.8-.7-3.6-1.6-4.9-1.6-.9 0-1.5-.2-2.4-.8-1.2-.8-1.6-1.3-1-1.3l1 .5c.9.6 2.5 1.2 2.3.8-.1-.2-.9-.7-1.7-1.2l-1.6-1.1c-.1 0 0-.3.4-.5.4-.3.1-.4-2.5-.4h-3l.1 2.2c0 2.3-.2 3.1-1 3.1-.5 0-.5-.4 0-1 .1-.4.2-1 0-2.2-.2-1.7-.3-1.7-1.2-1.8-.8-.2-.9-.2-.8-1.1 0-1.2-.9-3-2-3.7-.4-.3-1.2-.5-1.7-.5h-.9V8.2c-.1-2-.4-2.6-1.5-2.9-1-.2-1.2-1-.3-.9 1.3.2.3-1-1.2-1.4-.6-.2-4-.3-8.5-.3-7.1 0-7.4 0-7.2.4.3.5 0 2.9-.8 5.6-.6 2-.7 3.4-.5 3.6.2.2.4.8.5 1.4.1 1 0 1.2-.4 1-.3 0-.5-.4-.7-1.5-.2-1.8-.5-2-.4-.3.1.9 0 1.5-.2 1.6-.5.5-1-.3-.9-1.7 0-1.7-.4-7.5-.6-8.1-.3-.7.5-.6.9 0 .1.4.3 1.8.3 3.4 0 2.7.2 3.6.7 2.4.4-.9 1.1-4.3 1.3-6.2l.2-1.6h-6.2L62 2.4l-8 .1h-5.8l.2.9c.4 1.9.4 2.8.2 2.8-.3 0-.9-1.5-1.3-3.2-.1-.7-.2-.7-1-.7l-.8.1-.2 2.4c0 1.5-.2 2.4-.4 2.4-.3.1-.4-.5-.4-2.4 0-2.5 0-2.5-.6-2.5s-.7 0-.6.8c.1 2.5-.3 4.3-.8 3.5-.2-.3-.3-.3-.4 0-.4 1-.2 1.1 3.3 1.6l3.5.5.8-.9c.9-.8 1.6-1 1.8-.4 0 .2.3 0 .6-.4.5-.8 1-1 1-.4s.1.5.9-.4c.8-1 1.3-1 1.6-.1.4.8.7 1 1.4.7.4-.2.7-.2 1.3.1 1 .5 2.7.5 2.7 0l-.4-1c-.2-.8-.2-1 0-1.6l.3-.8c0-.2 0-.3.2-.4.1 0 .3.7.4 1.6.3 2.5.5 3.3 1 3.8.4.3.6.4 1 .1 1-.5 1.2-.3 1 .7-.1.9-.1.9.7.7.6 0 1 0 1.2.3.3.5.4.4.7-.1.1-.4.3-1.1.3-1.8 0-1 0-1.1.5-1.1.4 0 .5.1.4 1.2v1.2l1-.2c3-.4 2.9 2-.1 3.6l-1 .5 1.9.4a302.2 302.2 0 0 0 8.7 2c.5 0 .6-.1.8-1l-.1-1.4c-.3-.7 0-3 .5-3.5l.3-.7c0-.3.1-.5.3-.5.2 0 .1 4.9-.2 6.7v.7c.4 0 .6-.9.7-1.8l.4-1.4c.3-.6.3-1 .2-1.3-.2-.2-.2-1.5-.2-2.8.1-2.3.2-2.5.7-2.5.4 0 .5.2.3 2l-.1 2.1.6-1.1c.6-1.3.8-1.4 1-.6.2.4 0 1.1-.7 2-1.1 2-1.4 3.1-1.4 4.6 0 1.3 0 1.3 1 1.4l1.7.5a909.7 909.7 0 0 0 6.6 2c.3 0 .3-.3.3-1.6 0-2.3.5-2.4.6 0v1.9l1.6.4 2.3.7c1.1.3 1.3.3 1.1-.1-.2-.6 0-1.2.5-1.2.3 0 .4.3.4.9 0 .6.1 1 .5 1.2.8.4 1 .3 1-.3l.3-.6c.3-.2.6.2.7 1 0 .6-.2.5 7.5 2.4 9.7 2.2 11 2.5 12.1 2.5h1l-1-.4c-2-.7-3.3-1.5-4.5-2.5-.6-.6-1.4-1-1.9-1-.9-.2-1-.6-.5-1.2.4-.4.5-.4 1 0 .4.2.7.3.9 0 .5-.3.8 0 1 1 .2 1 1.4 2 3.6 2.8.8.2 2.1 1 3 1.5 1.2 1 1.5 1.1 2.4 1 .6 0 1.7 0 2.5.2 1.8.5 1.9.5 1.9.3zm-17.3-4.6c-.5-.3-.6-1-.1-1 .6 0 1.3.6 1.1 1-.2.3-.4.3-1 0zm4-2.6c0-.2.2-.3.3-.3.2 0 .3.1.3.3 0 .1-.1.2-.3.2a.3.3 0 0 1-.3-.2zm-2.5-.9c-.2-.3.4-.7.9-.7.2 0 .3.1.3.3 0 .5-1 .8-1.2.4zm-3.7-.5c0-.2.6-.4 1.2-.4.8-.1 1 0 1 .3s-.2.4-1.1.4c-.9 0-1.2-.1-1.1-.3zm-4.9-2.5c0-.2.2-.3.4-.2.3 0 .4.3.4.4 0 .1-.1.2-.4.2a.4.4 0 0 1-.4-.4zm-20-1.4c0-1.5.3-1.8.6-.5.2 1.3.2 1.8-.3 1.8-.3 0-.4-.3-.4-1.3zm22.2-.1c0-.2 0-.5.2-.6.2 0 .3 0 .3.2 0 .3-.1.5-.3.6-.1 0-.2 0-.2-.2zm-22.5-2.2c0-.2 0-.3.2-.2.2 0 .2.2.1.4-.2.3-.3.3-.3-.2zm-14-5-.4-2.2c-.4-1.3-.2-1.9.3-1.5.3.2.7 1.5 1 3.2 0 1 0 1.2-.3 1.2-.2 0-.5-.4-.5-.8zM63 7c.2-1 .6-1.8 1-1.5.2.2-.4 2.4-.7 2.5-.3.1-.3 0-.2-1Zm-6.2-2c-.5-1.5-.5-2-.1-1.8.3.2 1.3 2.2 1.3 2.7 0 .8-.8.2-1.2-1ZM41 26.2c0-.4-.4-.3-1 .3a2 2 0 0 0-.5 1.2c0 .6 0 .6.7-.3.5-.5.8-1 .8-1.2zm25.5 1.6c-.4-.6-1.5-.7-2.4-.4-.3.2-.1.3.9.5 2 .5 2 .5 1.5-.1zm84-.2c-.6-.4-1-.5-1-.1 0 .3.3.5 1 .5.5 0 .5 0 0-.4zm61.2-1.4c0-1.2.7-3.3.8-2.3 0 .7 1 .5 1.4-.3.5-1 .8-2.1.9-3.1l.2-1.4c.2-.5.1-.6-.3-.6l-.8-.2c0-.2.2-.3.6-.3.3 0 .6-.1.6-.3 0-.2-.2-.2-.5-.1l-.5-.1c0-.2.2-.3.5-.3.6 0 1-.4 1.1-1.3.1-.4 0-.6-.2-.6s-.4.2-.4.3c0 .2-.2.3-.5.3-1 0-1.3 1.1-1.4 4.4v3.1h-1.9L211 25c-.3 1.8 0 3.4.3 2.8.2-.2.3-1 .3-1.6zm-81.2 1.4c0-2-4.4-5-8.8-6.2-2.5-.6-3-.6-2 0 .3.3 1 .5 1.3.5.5 0 .7.2.7.4s1 1 2.3 1.7a10311.6 10311.6 0 0 0 5.2 3c.8.8 1.3 1 1.3.6zM13 26.7c.2-1.1.5-1.2 2.5-1.1 1.4.1 1.8 0 1.7-.2-.1-.1-.7-.3-1.3-.3-1.1 0-1.3-.6-.2-.7.6-.1.7-.5.1-.7-.7-.3-1.1-.2-1.7.5-.3.3-.7.6-1 .5-.1 0-.5 0-.7.2-.2.1-.7.2-1 .1l-.7-.1.5 1c.3.5.5 1 .5 1.3 0 .7 1.2.2 1.3-.5zm1.6-.5c-.4-.1-1 .8-.8 1.1 0 .2.4 0 .6-.3.4-.5.5-.7.2-.8zm47.3 1c0-.1 0-.3-.3-.4-.9-.5-4.9 0-4.9.5 0 .2 5 .1 5.2-.1zm86.8-.2c.1-.2-.1-.3-.5-.3-.5 0-.7.2-.7.4 0 .5 1 .5 1.2 0zm4.5 0c0-.3-.4-.4-1.4-.5-.8 0-1.4 0-1.4.2 0 .3 1 .8 2 .8.7 0 1 0 .8-.5zm10.8 0c-.2-.2-3.1-1-3.7-1-.1 0-.1 0 0 .2.3.2.9.4 2.6.7.4 0 .8.3.9.4 0 .1.2.2.3 0l-.1-.3zM19.7 27h-.5c-.2.2-.2.2.2.2.2 0 .4 0 .3-.1zm3.3 0c.3 0 .6-.3.6-.6l.2-.7c.2-.2 0-.4-.2-.5-.4-.1-1.6.7-2.2 1.5-.3.5-.3.5.3.5.3 0 .9 0 1.3-.2zm135.6-.2h-.5c-.2 0-.1.1.2.2.2 0 .4 0 .3-.2zm-13.1-.7V25l-.2-.9-.6 1.1-.6 1.2c0 .3 1.3.1 1.4-.2zm-80.6-.6c1-.3 1-.3.3-.4-1 0-3 .6-3 .9 0 .3 1.3 0 2.7-.5zm82.5.4-.1-.8-.4-.9c-.2-.8-.8-.3-.9.9 0 1 0 1 .6 1 .4 0 .7 0 .8-.2zm3.2 0-.5-.5c-1-.4-1.3-.3-.8.3.5.5 1 .6 1.3.3zm8-.6c0-.3-.1-.4-.4-.4-.6 0-1 .4-.5.6.6.2 1 .2 1-.2zm-115.8-.8a15 15 0 0 0 3-5.9c.3-1.7-.2-2.1-2.5-2.3-2.2 0-2.3.2-.9 1.6.8.7 1.2.9 2 .9s1 0 1 .4-.1.4-1 .3l-1.1-.2.5 1c.6.8.6 1.4 0 1.4 0 0-.4-.3-.6-.7-.4-1-3-3.5-3.3-3.5l-.4-.6c-.1-.3-.4-.5-.7-.5-.5 0-1.2-.7-1-1l.9.1c.6.3 1 .2 1-.3 0-.2-.5-.4-1.2-.4-1-.1-1 0-1.3.5-.3.9 0 2.3.5 2.7.2.2.9.3 1.7.3 1 0 1.3 0 1.3.3 0 .6-1.6 1-2.7.8-.7-.2-1-.4-1.4-1.3-.6-1.2-.6-1.2-2.9-1.6-.8-.1-1 0-1 .3 0 .2.3.4.5.4.6 0 1.2.6 1 .9-.3.3-2.4.2-2.7-.1-.2-.2-.4-.2-.8 0-.7.3-.9.3-.9-.1 0-.2.4-.5.8-.7l.8-.4c0-.2-.9-1.2-1.1-1.2-.4 0-1.3 1-1.3 1.4 0 .5 0 .5-1.4.2-1-.3-1.2-.9-.2-1 .3 0 .6-.4.7-.7.3-.7.2-.8-.5-.8-.4 0-.5-.2-.5-.7v-.8l-1.1.4c-1.6.6-3.7.5-5-.1-1.4-.7-2.2-.7-4 .2-2.2 1-2.8 1.2-2.8.8 0-.2.3-.6.6-.8l.6-.4-.7-.3-.7-.5c0-.2-.3-.3-.6-.4-.6-.2-.6-.2-.2-.6.6-.4.6-1.8 0-1.8a.7.7 0 0 1-.5-.3c-.1-.2-.5-.3-.9-.3-.6 0-.6 0-.6-2.4L11 4.1c-.2-.2-.6.1-1 .6s-.8.9-1 .9c-.4 0-.9-1.5-.7-2.5l.2-.9-1.9.3c-1 .2-2.2.5-2.6.8-.8.4-.9.4-.8 2.5l-.2 4c-.3 3.7-.3 3.6.2 3.5.6-.1 2 .5 2 .9l-.4.6-.4.7c0 .6 2.2.5 3-.1 1-.8 1.5-.9 1.7-.4.1.3 0 .6-.5 1-.8.7-.5 1 1 .7 1.6-.2 1.5.3 0 1-2.9 1.2-3.3 1.5-3.3 1.8 0 .5.6.9 1.3.7.3-.1.7 0 1 .4.5.6 1.6.8 2.6.5.8-.3.8-.6.1-1-.9-.6-.6-1 .6-1 .7 0 1.3-.2 1.6-.5A3 3 0 0 1 15 18c.7 0 1.2-.2 1.5-.6.4-.6.5-.6.8-.2.2.3.5.4.7.3.2 0 .5.1.6.4.2.4.6.5 1.7.5.8 0 1.5 0 1.6.2.2.3-.1.9-.6.9-.2 0-1.2.7-2.1 1.6L16.9 23l-.7.2.6.4c1 .6 2.5 0 4.2-1.5 1.2-1.2 3.8-2.6 4.7-2.6.8 0 .4.8-1.2 2.3-1.6 1.6-1.8 2.2-.8 1.8a21 21 0 0 1 3.3-.3c2.4 0 3-.2 3.2-.6.3-.4.4-.4.8 0 .6.6 1.9.8 2.5.5l1.5-.2c2.3 0 2.9-.7 1.8-2.3-.8-1-.9-1-2.7-.5-1 .2-.6-.4.4-.7.6-.2.9-.5.8-.7-.1-1 .6-.6 1.7.8l2 2.3 1 1c0 .2 0 .3.3.3a20.8 20.8 0 0 1 1.6.2c.2 0 .4.2.4.5s-.2.3-.5.2c-.5-.2-.6-.2-1.2-.2-.8 0-.4 1 .5 1.2l.8.2.9-.9zm-9.4-2.7c-.3-.2-.4-.4-.3-.5.2-.3 1.8.1 1.8.5s-1 .5-1.5 0zm-5.2-2.5-1-.4-1.2-.3c-.5 0-.8-.1-.9-.4 0-.4.2-.4 1.6-.4 1 0 2 .3 2.3.5.4.2 1.3.5 2 .6.9.1 1.5.3 1.5.4 0 .3-3.3.3-4.3 0zm133.4 5.8-.6-.3c-.4 0-.6-.3-.7-.7-.2-.6-.3-.6-.4-.2-.1.2-.2.6 0 .8 0 .3.3.4 1.5.7.1 0 .2-.1.2-.3zm3.7 0-.4-.2c-.2 0-.4 0-.4.2s.2.3.4.3.4-.1.4-.3zM31.5 25c1.1-.2 1-.2-.4-.3-.9 0-1.5.1-1.5.3 0 .3.5.3 2 0zm123.5-.3c0-.3-.2-.5-.4-.5s-.4.2-.4.5.2.5.4.5.4-.2.4-.5zm8.2.3c0-.2-.1-.3-.3-.3-.1 0-.2.1-.2.3 0 .1 0 .2.2.2s.3 0 .3-.2zm53-2.5c.5-1.2.6-2.3.2-2.3-.7 0-1.3 1.1-1.6 2.5-.5 2.5-.4 2.8.3 1.7l1-2zM9.4 24.6l-.3-.3c-.2 0-.3.2-.3.3 0 .1.1.3.3.3l.3-.3zm34.4 0-.2-.3-.2.3v.3c.2 0 .4-.2.4-.3zm10.7-.1 3.7-.1c1.7 0 2-.2 2.7-.8.5-.4.6-.7.4-.8-.5-.1-.4-1.1 0-1.1.3 0 .4.2.4.5s.5 0 1.4-1a8 8 0 0 0 1.3-1.6c0-.1-.3-.3-.7-.4-.5-.1-.9 0-1.3.3a33.8 33.8 0 0 1-9.8 4.3l-1.5.7c-.3.4-.2.4.6.2l2.8-.2zm4.5-1.6v-.7c.2-.3.9.2.9.7 0 .5-.7.5-1 0zm70.6 1.1c0-.4-.3-1-.5-1.2-.3-.4-.4-1-1-4.2-.3-1-1.6-2.7-2.2-2.7-.3 0-1.2-.7-3-2.3-.9-.8-1.4-1-2.1-1-.7 0-1-.2-1-.4 0-.3.2-.4.6-.4.6.1.6.1-.2-1.4l-1-1.8c-.4-.5-.6-1.7-.3-1.9.1 0 .4.2.6.6.2.5.3.6.6.3.5-.3.9.1 1 1l.7 2.1c.8 1.7 2.8 3.8 3.2 3.4v-1.8c-.2-1.2-.5-1.7-1-2.1a2 2 0 0 1-.6-1.5c-.1-1.2-.4-1.5-1.5-1.7-1.1-.2-1.2-.7-.1-.7.7 0 .8 0 .8-.7 0-1 .5-1 .7 0 .2 1 .4 1 1.4.9.8-.2.8-.2.8-1.7 0-.9 0-1.8-.2-2-.1-.5-1.4-.6-1.4-.2 0 .2-.2.3-.4.3-.6 0-.7.6-.1.7.6.2.7.9 0 .9-.5 0-1.6-.7-1.6-1.1 0-.5-.9-1-1.8-1-.8 0-.9 0-.7.5.1.4 0 .5-.4.5-.3 0-.6 0-.7-.2-.3-.5-1.2-.3-1.2.2 0 .6-.1.7-1.4.6-.7 0-.7 0-.5.3l1 .6c.4 0 .7.3.7.4l.4.8c.4.5.4.5 0 .7-.4.1-.7 0-1.2-.6-.4-.5-1-1-1.5-1.3-.6-.4-.7-.5-.3-.8.6-.4.6-.7 0-.7-.3 0-1.7 3.8-1.6 4.9 0 .6 0 .6.2 0 .2-1 .8-1.1.8-.3 0 1-.3 1.5-.7 1.5-.2 0-.4.3-.4.8v1.1c0 .2.4.5 1 .7 1.5.5 1.8.2 1.5-1.5 0-.7 0-1.3.2-1.5.6-.7.8-.1.6 1.2-.1 1.2 0 1.3.6 1.6.8.4.9 1 .1.7-.4 0-.5 0-.5.5 0 .6.1.7.8.7a7 7 0 0 1 1.5.1c1 .3.6.6-.9.6-1 0-1.4.1-1.4.4l.2.6c.2 0 .3.4.3.7 0 1.1.6 1.4 3.1 1.2 3-.3 3.6-.4 3.2-.9-.2-.2-.9-.4-2-.4-2.2 0-3.8-.3-4-.7 0-.2.5-.2 2-.1 1.6 0 2.2 0 2.2-.2s-.1-.3-.3-.3l-.2-.4c0-.4 0-.4.6.1.3.3.8.6 1 .6l1.2.9c.5.5 1.1 1 1.4 1 .8.3 1.8 2.6 1 2.6a.3.3 0 0 1-.2-.3l-.7-1c-.5-.4-.8-.5-1-.3a1 1 0 0 1-1 0c-.5-.3-3.6 0-3.6.3 0 .1.1.2.4.2.2 0 .4.2.4.4 0 .3-.2.3-1 .1-1.3-.4-1.6-.3-1.1.4.4.6 2.4 1.2 4.2 1.2h1.3l-.2-.8c-.3-1.3.5-.8 1 .7.3 1 .6 1.3 1.8 2 .8.4 1.7 1 2 1.3a6 6 0 0 0 1.7 1V24zm-3.4-2.8c-.2-.4 0-.9.4-.7.3.2.3 1 0 1-.2 0-.3-.2-.4-.3zm-5.4-1.4c-.3 0-.4-.3-.3-.4.3-.2 1 0 1 .4s-.2.4-.7 0zm3.5-.2c-.2-.3.3-.6.5-.4.3.3.2.6 0 .6s-.4 0-.5-.2zm.7-3 .4-.2c.2 0 .4.1.4.3l-.4.2c-.2 0-.4 0-.4-.2zm-5.2-3.4.3-.2.1.2c0 .2-.1.3-.3.3-.1 0-.2-.1 0-.3zm-1.3-1.5c0-.2 0-.6-.3-.9-.5-.5-.1-.9.7-.6.6.2.7 1.1.2 1.6-.5.5-.8.4-.6 0zM117 11c-.2-.5 0-2.8.3-3 .2-.3.6.6.5 1l-.1 1.3c0 1-.4 1.4-.7.7zm-3.4-1 .3-1.2c0-.3.2-.6.4-.6.3 0 .2 1.4-.2 2-.5.6-.8.5-.5-.2zm5-4.5c-.7-.3-.9-.6-.4-.8.4-.3 2.1.3 2.1.7 0 .5-.6.5-1.6.1zm38 19c-.1-.5-.6-.6-.6-.2 0 .2.2.4.8.5l-.1-.3zm10.8.1c0-.1-.1-.3-.3-.3-.1 0-.2.2 0 .3l.2.3.1-.3zm-156.6-.3c0-.1-.1-.2-.3-.2-.1 0-.2 0-.2.2s0 .3.2.3.3-.1.3-.3zm10.1-.1c.9-.4 2.7-2 3.4-2.9.3-.4.3-.5 0-.3l-1.6 1.2c-.7.6-1.8 1.3-2.5 1.6l-1.2.7c0 .2 1.1.1 2-.3zm42-.5a14 14 0 0 0 1.8-2.9l-1.1 1-1.2 1.6c0 .1-.2.5-.5.7-.3.4-.3.5 0 .5.2 0 .7-.4 1-.9zm81.9.3c.1-.6-.3-1-.7-.8l-.2.8c0 .8.6.8.9 0zm8.5-.6c0-1-.1-1.2-.6-1h-1.1c-.6 0-.6.1.2 1.1.5.6 1 1.1 1.2 1.1.1 0 .3-.5.3-1.2zm5.3.4c.2 0 .3-.1.3-.2 0-.2-.4-.3-1-.3-1 0-1.1.1-.4 1 .2.3.3.3.5 0s.5-.5.6-.5zm-130.9.3c0-.2-.1-.3-.3-.3-.1 0-.2.1-.2.3l.2.2c.2 0 .3 0 .3-.2zm44.8 0c1.4-.2 1.8-.5 1.2-.8-.6-.4-1.3-.3-2.4.2-1.2.7-1.3.7-1.3.2 0-.3.3-.6.7-.7.4-.2.6-.5.6-.6-.1-.4-2.7-1.3-3.3-1.1-.3 0-.7 0-.9-.3-.6-.7-1.2-.4-2.2 1-.5.8-.8 1.4-.7 1.5l2.1-.9c2.2-1 2.8-1.2 2.6-.4-.2.5 0 .5.5.5.7 0 .9.4.2.7-.7.3-1.1.2-1.1-.3 0-.2-.2-.4-.3-.4a9 9 0 0 0-2.7 1.5c0 .2 5.6.1 7-.1zm78.8 0-.8-.9-.8-.8-.2.6c-.2.9-.2 1 .5 1.1.8.2 1.3.3 1.3 0zm14.8-.9c-.2-.2-.3-.1-.3.2 0 .7.4 1.1.5.5 0-.2 0-.5-.2-.7zm-136.6.7H29c-.2 0-.2.1.1.2.3 0 .5-.1.4-.2zm132.4 0a1 1 0 0 0-.6 0l.3.1c.4 0 .5 0 .3-.1zM8.4 23.4c0-.8-1.7-1.2-2-.5-.2.6 0 .8 1 .9.7 0 1-.1 1-.4zm30 .2c.7-.2.5-.7-.3-.5-1 .3-1.4.7-.7.7.3 0 .8 0 1-.2zm7.1-1c.3-.4 1-1 1.5-1.3.7-.4 1-1 1.3-1.7.4-1.3 1.5-2.7 1.9-2.3.2.2 0 .7-.3 1.4-.6 1.4-.6 1.4 2 .3 1.6-.7 2-1.1 2-2.4 0-.8 0-.9-4.1-2.3-3-1.1-3.6-1.2-3.6-.8 0 .5 1 1.3 1.8 1.5l1.3.2c1.5.3.4 1.2-1.8 1.6-.9.1-1 .2-.9.7.2.8-.4 2.7-1.6 4.7-.9 1.6-.6 1.8.5.3zm1.3-2.6c0-.5.7-1.3.8-1 .3.4 0 1.4-.5 1.4-.2 0-.3-.2-.3-.4zm5.4-2.2c-.3-.4-.1-.6.5-.6.4 0 .7.1.7.2 0 .3-1 .6-1.2.4zm69.4 5.7c0-.1 0-.2-.2-.2s-.2.1-.2.2l.3.3.1-.3zm-117-.2c0-.2-.1-.3-.4-.3-.3 0-.6.1-.6.3l.4.2c.2 0 .5 0 .6-.2zm143.9-.2c0-.5-.5-.4-.6 0 0 .3 0 .5.2.4.2 0 .4-.3.4-.4zM10.9 23c0-.2-.3-.3-.5-.3s-.1 0 .1.2c.5.3.6.3.4 0zm35.6-.2c.2-.2.2-.4 0-.4l-.4.4v.4l.4-.4zm94.6-.7c.8-.3.8-.7.1-.9-.6-.1-1 .5-1 1.5 0 .5 0 .5.1.1.1-.2.5-.6.8-.7zm6 .5a.5.5 0 0 0-.6 0c-.2 0-.2.2 0 .3.5.3 1 0 .6-.3zm25.5.3-.4-.3c-.2 0-.3.2-.3.3 0 .2.2.3.4.3.3 0 .4-.1.3-.3zm-155.4-.3c.1 0 .2-.1.1-.4-.1-.3.7-1 2.4-2.1.8-.5.2-.7-1-.3a3 3 0 0 0-1.5 1l-1 1.2c-.4.5-.3 1 .3.8l.7-.2zm36 .1a1 1 0 0 0-.7 0c-.2.1 0 .2.3.2.4 0 .6 0 .4-.2zm141.1-.8-.1.4c0 .4 0 .6.1.4V22zm-179.8.4c.6 0 1-.1 1-.2v-.5c0-.1-.1-.2-.3-.1-.2 0-.5-.1-.7-.4-.2-.4-.2-.6.1-1 .6-.5 1-.3.7.5 0 .4 0 .5.3.4.5-.2.4-1-.1-1.4-.4-.2-.6-.2-1 0-.3.3-.8.3-1.2.3-.5-.2-.6 0-.7.6v1c.2 0 .2.4 0 .7-.3.4-.2.5.3.3l1.6-.2zM3.6 22l-.5-.4c-.2 0-.3.2-.3.4s.3.4.6.4c.5 0 .5 0 .2-.4zm154 .1a5 5 0 0 0-2 0l-1.5.2h2c1.2 0 1.8 0 1.5-.2zm7-.6c-.4-.7-.5-.7-.6-.4-.1.7.2 1.3.6 1.3.4 0 .4-.1 0-.9zm-159 .2c1-.4 1-.4.5-.8-.4-.3-.6-.2-1.2.2-.7.5-1 1-.5 1l1.2-.4zm6 .2c0-.2-.2-.3-.4-.3s-.4.1-.4.3l.4.2.4-.2zm127.4-.8-.1.4c0 .4 0 .6.1.4v-.8zm-86.4 0 .6-.6-.6.2c-.4 0-1 .4-1.2.7-.5.5-.5.5 0 .5.3 0 .9-.4 1.2-.7zm23.8-.6c1.8-2 1.6-2.3-.1-.5-1.4 1.4-1.7 1.9-1.3 1.9l1.4-1.4zm68.5.6c0-.7 0-.7-.4-.2-.4.5-.3 1 .2 1l.2-.8zm2.4.4c0-.3.2-.4.4-.4s.4.1.4.4c0 .2.2.4.5.4.6 0 .7-.6.2-1-.2-.3-.8-.5-1.3-.5-.8-.2-1-.1-1.1.4-.1.3-.1.6 0 .8.2.4.9.3.9-.1zm8 0a36.3 36.3 0 0 1-2.8-.4c-1.9-.3-2.5-.1-2.2.5.2.2 1 .2 2.5.1 1.3 0 2.4-.2 2.4-.3zm7.3.2c.5-.2.6-.3 1-3 .1-1 .1-1-.4-1-.7 0-1 .5-.6 1.5.2.7.2.8-.2 1-.8.5-2.1.4-2.1 0 0-.3.2-.5.6-.5.6 0 .7 0 .7-.8 0-1-.4-1.5-1-1.5-.4 0-.6.3-.7 1.5l-.2 1.8c0 .1.3.3.7.3.4 0 .8.3.8.5.2.4.5.4 1.4.2zm3.8 0-.3-.6c-.3-.5-.7-.2-.4.3.1.5.7.6.7.3zm-116.6-.4c.1-.1 0-.2-.1-.2s-.3 0-.4.2v.3c.2 0 .4-.1.5-.3zm7.3-.8c3.3-1.2 4.5-1.7 4.5-2 0-.2-.6-.4-1.3-.6a4 4 0 0 0-2.6.1c-1.9.6-5.2 3.6-4 3.6l3.4-1.1zm1 .6c.3-.2.3-.3.2-.3-.2 0-.5.1-.7.3-.2.1-.3.2-.1.2l.6-.2zm87.5-.5c-.3-.3-.5.1-.3.5.2.3.3.3.4 0v-.5zm-2.1.2-.1-.3c-.2 0-.3.2-.3.3v.3c.2 0 .3-.2.4-.3zm15.7-1.8c0-.7 0-.8-.5-.8-.4 0-.5.1-.5.6 0 .6-.1.7-.8.6-2-.4-2.6-.5-3.7-.2l-1.2.2h1c.8 0 1.7.6 1.3 1h-1.1c-1-.1-1-.1-.2.1 1.4.4 2.5.3 2.5-.1 0-.3.2-.4.5-.3 2 1 2.3 1 2.5.3l.2-1.4zM51.7 20c-.3-.3-1 .2-1 .6 0 .4 0 .4.6 0l.4-.6zm-46.4-.3c.2-.7.1-1-.2-1.4-.6-.6-.7-.6-1.4.4-.6.7-.6.8-.2 1 .2.2.4.4.4.7 0 .2.2.3.6.3.4 0 .6-.4.8-1zm132.9.5-.6-.3c-.2 0-.3.2-.3.3 0 .1.2.3.5.3s.5-.2.4-.3zm3.7-.5c0-.6-.2-.8-1-1.1-.6-.3-1-.7-1-1 0-.4.3-.4 3.6-.2 3.2.2 3.6.1 3.5-.3 0-.4-3.7-1.6-5-1.7-.4 0-.9-.2-1.2-.4a2 2 0 0 0-1-.4c-.5 0-.6.2-.6 1.8 0 1-.2 2.3-.3 2.8 0 .8 0 1 .3 1 .2 0 .4-.2.5-.4.1-.3.3-.3 1.2.2l1 .5v-.8zm23.1-.2c0-.2-.1-.7-.3-1l-.3-.5-.2.6-.2 1.3c0 .5 0 .5.5.3.3-.2.5-.5.5-.7zm-15.3.4c0-.1-.1-.2-.3-.2-.1 0-.3 0-.4.2 0 .2 0 .3.3.3.2 0 .4-.1.4-.3zm-132.3-.5c0-.1-.1-.3-.3-.3-.1 0-.2.2-.2.5 0 .2 0 .3.2.2.2 0 .3-.3.3-.4zm199.2.2c.4 0 .6 0 .8-.6.4-.9.2-1-.5-.7-.3.2-.8.3-1 .3-.5 0-.6.2-.6.7 0 .5.1.6.3.5l1-.2zm-69.1-.3c0-.2.4-.3 1.4-.4l1.4-.2H149a7 7 0 0 0-1.8 0c-.5.3-.6 1 0 1 .2 0 .3-.2.3-.4zm-30.6-.4c-.2-.3-.7-.5-1.6-.7h-1.5c-.1 0 2.5 1.2 3 1.2.3 0 .3-.1.1-.5zm21.1.3c.5-.3.7-2.4.3-3-.2-.3-.3-.3-.7.1-.7 1-.8 3.1-.2 3.1l.6-.2zm8-.3c0-.2-.2-.3-.5-.3l-1.8-.1-1.3-.1 1.5.4c1.4.5 2 .5 2 0zm11.4-.3c0-.4-2.9-.6-4.1-.3l-1.1.3 1.3-.1 2.4.1c1.5.3 1.5.3 1.5 0zm55-1c0-.4-.1-.8-.2-.7l-.2.8c0 1 0 1 .3 1v-1zM4.2 17.3c.4 0-.8-.8-1.3-.8-.2 0-.3.4-.3 1v1l.6-.6c.3-.3.8-.6 1-.6zm3 .5c.3 0 0-.2-.6-.4-1.4-.4-1.6-.4-1 .4.4.4.6.5.8.3.1-.2.5-.3.8-.3Zm48.5-1c0-.3-.2-.4-.5-.4-.4 0-.8 1.3-.6 1.8.2.3 1.2-1 1-1.4zm10.7 1c2.6-.4 3.6-.8 3.6-1.2 0-.2.3-.5.7-.6.9-.4.8-.7 0-1l-2-.3c-1.3-.3-1.4-.3-1.8.2-.2.3-.5.5-.6.5-.3 0-2.6 2.5-2.6 2.8h.6l2.1-.4zm-3.1-.5c.4-.4.7-.9.6-1-.2-.1-2.7.8-2.8 1.2 0 .2.4.5 1.2.6l1-.8zm87.8.2-2-.4c-1-.1-1.3 0-1.3.3 0 .4.3.4 2 .4 1.4 0 1.7 0 1.3-.3zm65.4 0-.1-.2c-.2 0-.3.1-.4.3-.1.1 0 .2 0 .2l.5-.2zm1.3-.6c.5-1.2.5-1.2.2-1.2s-1.1 1.5-1.1 1.9c0 .6.6.1 1-.7zm.8.4c0-.4 0-.5-.2-.5-.4.2-.6 1-.2 1 .1 0 .3-.2.4-.5zm-161.4 0c.1-.2 0-.3-.1-.3-.2 0-.3.1-.3.3l.1.3.3-.3zm58.6-.3c-.1-.7-.8-.9-2.6-.6-1.4.2-1.2.5.5.9 2 .4 2.2.3 2-.3zm41.8 0s-.9-.2-2-.2c-1 0-2 0-2 .2s1 .3 2 .3c1.1 0 2-.1 2-.2zm4-.1c.6-.4.2-.7-.7-.6-1.4 0-2.3.3-2.4.7-.1.3.2.3 1.4.2l1.7-.3zm3.6-.2c0-.1-.6-.3-1.3-.4-1 0-1.2 0-1.2.3 0 .2.2.4.4.5.8.1 2.2-.1 2.1-.4zm-13.2 0c0-.2-.5-.4-1-.6-1.4-.3-1.3-.8 0-.5 1.1.2 1.7-.2.8-.7-.3-.2-.7-.2-1.2 0-.4.2-1.9.3-3.4.3-3 0-3 .1 1 1.2 2.7.7 4 .8 3.8.3zm-91.5-.2c0-.3-.3-.3-.8 0-.3.2-.3.3.2.3.4 0 .6-.2.6-.3zm156.1 0 .2-1c.1-.7 0-.9-.2-.8-.4.1-.6 2-.2 2 .1 0 .2 0 .2-.2zm-156.4-1 2-1.1c.3 0 .2.4 0 .6l-.4.4c0 .3 3.5-1 4-1.4.3-.2.7-.4 1-.4.7 0 2.3-1 3.4-2 1.1-.9-.4-1.6-1.8-.9-.3.2-1.3 1-2.1 2-1.2 1.2-1.6 1.5-1.8 1.2-.3-.2-.2-.4.1-1 .6-.9.7-.9-3.4.8-2.8 1.1-3.6 1.7-3.6 2.5 0 .6 1 .3 2.6-.8zm6.8-2.6c-.2-.2 1.2-1.7 1.5-1.7.3 0 .3 1-.1 1.3-.5.3-1.2.5-1.4.4zm-30.9 3c.2-.2.4-.9.5-1.5.2-1.4.6-1.6 1.5-.7 1 .9 1.4.8 1.3-.3 0-.5 0-.9.2-.9l2.2.8 2.2.8c.2 0 .7.5 1.2 1 1 1 1.1 1.1 2.3 1.1h1.2l-1.3-.6c-1.1-.6-1.5-1-2-1.9-.4-1-.5-1.1-2.8-1.8L38 10.3a105.6 105.6 0 0 0-13.2-3.2l-2.2-.5v-.2c.1-.1-.8-.4-2-.6-1.2-.2-2.5-.4-2.8-.6l-2.1-.6c-1.7-.3-2.2-.9-.8-.9l2.4.3a291.9 291.9 0 0 0 16.6 2.2c0-.4-1.6-1.2-2-1-.4 0-5.1-1-6.4-1.6a3 3 0 0 1-1.1-1c-.3-.4-.6-.5-2-.5-1.8 0-1.8 0-1 .4l2.1.7c1.4.3 1.7.6 1 .8-.6.3-2-.2-3.7-1L19.2 2h-5c-4.6 0-5 0-5 .5l.2.8c.3.4.4.3 1-.2.6-.7.7-.7 1-.2.2.3.5.4.8.3.3-.1.4 0 .4.5 0 .4.3 1 .7 1.3.5.5.5.7.4 1.2-.2.4-.2.8 0 1 .2.2.1.4-.1.8-.6.7-.5.8.2.8.5 0 .6.1.7 1.5L15 12c.3.3.7-.4 1-1.5.3-1.4 1-2.6 2-3 .7-.4.8-.4 1 0 .1.3.4.3 1.5.2 1 0 1.4 0 1.8.3.4.4.5.4 1.4 0 1-.5 1.7-.3 2 .5.5 1.2.3 2-.6 3-1.1 1.1-1.5 1-.5-.2 1-1 1-1.3.5-2.3-.4-.8-.7-.8-1.7 0l-.8.7L22 9c-.5-.8-.8-.8-1.5-.1-.4.4-.6.4-1 .2-.2-.2-.4-.2-.8 0-.4.3-.6.3-1 0-.5-.5-.9 0-1.1 1.7-.1.8-.2 1.4-.1 1.5l1.6-.6c2.1-.9 3.5-1.2 4.3-1 .5.3.6.5.5 1.4v1.2l1.1-.1c.7 0 1.9-.4 2.7-.8l1.5-.7.8.8c.8.8 4.2 2.7 4.4 2.4l-.1-.7c-.4-.7 0-1 1-.5.7.2.8.4.7 1-.2.6.2 1.3.7 1.3l.4-.3zM19.7 3.9c-.7-.2-1.1-.9-.8-1.1.4-.2 2.2.7 2.1 1-.1.4-.5.4-1.3.1Zm138.1 11.8c.2-.3.4-.9.4-1.4.2-.7.1-.8-.3-.8-.3 0-.6.2-.8.5-.2.4-.2.5 0 .5.1 0 .3.2.3.4 0 .3-.3.4-1 .4-1 0-1.6.3-1.2.7l1.3.1c.8 0 1.2-.1 1.3-.4zm8.1-.3c-.2-1.2.4-1.3.8-.3.4.9.4.9.3-.8 0-1.6-.1-1.8-1-2.4-.7-.7-1.1-.8-3-.8-2.5-.1-3.2 0-2.7.7.2.2.6.4.9.4.4 0 .6.2.8.8.2.4.5.8.8.8.3 0 .4-.2.2-.5-.4-1-.2-1.5.5-1.6 1-.1 1.6.4.8.6l-.6.4c0 .2 2 3.4 2.2 3.4v-.7zm46.8.2c0-.3-.2-.5-.3-.4-.2.1-.3.3-.3.6 0 .2.1.3.3.3.1 0 .3-.2.3-.5zm-182.9-.7c0-.7-.5-.6-.8 0-.3 1-.3 1 .3.6.3-.1.5-.4.5-.6zm14.8.8c0-.6-.6-1-1.7-1.2-.7 0-1.5-.2-1.8-.3-.7-.3-.6.5.2.9 1.2.7 3.4 1 3.3.6zm11.6 0c0-.2-.2-.4-.5-.4-.5 0-.5.1-.2.3.5.3.5.3.7 0zm55.6-.8a9.3 9.3 0 0 1-2.7-3.1c-.6-1-.7-1.3-.5-1.5.2-.3.4-.2.5.1.2.6.6.6.6 0l.6-2.5c.5-1.6.9-2.2 2-3.4 1.4-1.5 1.4-1.5.7-1.5a316.4 316.4 0 0 0-17.8.2c.1 0 .5.4.7 1l.6 1.5c.2.3.3 1 .3 1.4 0 1 .4 1.6 1 1.6.7 0 2.5 1.4 3 2.4l.7 1.2c.2.1.3.6.3 1 0 .9 1 1.2 2.1.7.5-.2 1.2-.2 1.9-.1l1 .1V13c0-1.4.5-2.8 1-3.4.4-.3.4-.3.3.6-.1.7 0 1.3.2 1.7.4.6.4.7-.1.8-.8.2-.8 1.1 0 1.3l1.4.3c.5 0 .7.2.6.6 0 .3.2.5 1 .7 1.7.5 1.9.4.6-.6zm42.6.5c.1-.4-.4-.9-1-.8-.2 0-.4.4-.5.7 0 .5 0 .6.6.6.4 0 .8-.2.9-.5zm6.8.2c.4-.2.4-.2-.3-.2-.5 0-1-.2-1-.3-.3-.5-1.2-.3-1.2.2s.2.6 1 .6l1.5-.3zm50.3 0c-.1-.1-.5-.3-.8-.3-.4 0-.5.1-.2.3.6.3 1.2.3 1 0zm-96-.9-.2-1.1c0-.5-.1-.6-1.5-.5-1.2 0-1.5-.1-1.5-.4 0-.2 0-.5-.2-.7-.1-.1-.2-.3 0-.4l-.6-1.2-.7-1-.2.8c-.2.9 0 2 .6 3 .8 1 2.5 2.1 3.5 2.1.8 0 .9 0 .8-.6zm11.8-1.3c0-1.5.1-1.9.4-1.9.3 0 .5.4.6 1.7V15l.7-1.8c.8-2.6.8-3-.2-3.6-1-.6-1-1.2 0-1 .8.2.8.2.6-.5l-.2-3V2.6h-.8c-1.8 0-2 .2-2 2 0 2.3.2 2.5 1.1 2.5.6 0 .8.1.7.5 0 .4-.4.5-1.6.6-.9.1-1.6.3-1.7.4 0 0 0 .7.4 1.5.4.9.6 2 .6 3 0 1.3 0 1.7.4 2 .8.4.9.3 1-1.7zm-.1-7.8c-.3-.3-.3-.4 0-.5.4-.3 1.4-.1 1.2.3 0 .4-.7.5-1.2.2zm17 9c0-.5.1-.6 1.3-.6h1.4l-1.3-.4-3.5-1.2c-2.1-.8-2.7-.8-2.7 0 0 .2.6.5 1.6.7l1.5.7c0 .1 0 .2-.2.2-.6 0-.2.6.6.8 1.2.3 1.2.3 1.2-.3zm74.5-.3c.2-.3.2-.5 0-.5l-.3.3c-.1.3-.3.4-.6.3-.3-.2-.4-.1-.3.1.3.5 1 .4 1.2-.2zm-161.1-1c.4-.6.8-1.6 1-2.1 0-.6.4-1.4.8-1.9l.6-.9-3.2-.3c-1.3 0-1.8-.3-1.8-.8 0-.7-.4-.4-1.4 1-1 1.2-1.8 1.6-1.8.8 0-.4-.3-.2-1 .6l-1.2 1 .5 1 .8 1.3c.3.3.4.6.3.6-.3.4-1.3-.2-1.6-.8-.3-.6-1-.9-1.4-.4 0 .2.1.3.4.3.3 0 .5.2.5.4 0 .5 2.4 1.2 3 .8.3-.1.4-.4.4-.6-.1-.2 0-.3.4-.3.6 0 .6-.3-.2-1.1-.6-.7-.6-.8-.3-1.3.4-.7 1-.7 1 0l.3.9c.4.5.4.5.9 0a2 2 0 0 1 1.1-.4c.4 0 .6 0 .4-.2-.5-.2-.4-.6.1-.6.4 0 .5.2.5.8 0 .8 0 .8-1.1.8-1 0-1.2 0-1.2.5 0 .3.3.6.6.6.3.1.5.3.5.5s-.2.3-.7.1c-.4 0-.6 0-.6.2 0 .6.3.7 1.5.7 1 0 1.2 0 1.9-1.2zm-7.2-1.8c-.3-.3-.2-.7.2-.7l.7.4c.2.4.2.4-.2.4l-.7-.1zm109.4 2c.2-.6 0-1.6-.3-1.6s-.7 1.7-.4 2.1c.2.4.4.3.7-.4zm-131 .3c0-.4-.5-.6-.8-.4-.2 0-.2.2-.1.4.2.3.9.3.9 0zm126-.1c.2-.1-.2-.2-.7-.2-.6 0-1 0-.8.3.1.2 1.3.2 1.6-.1zm6-.3c-.2-.2-.2-.1-.2.2v.3c.2 0 .2-.3.1-.5zm-100.2-.2c1.8-.8 2.1-1 1.8-1.4-.2-.2-.2-.4 0-.7.2-.4.1-.7-.3-1.1l-.6-.6-.5.6c-.2.4-.7 1-1 1.2-1.1 1.3-1.7 2.6-1 2.6l1.6-.6zm92-.2v-.7c-.3-.2-7.2-.1-7.5 0-.6.4 2.7 1.1 5 1.2 2.2 0 2.4 0 2.6-.5zm56.6.2-.2-.2c-.2 0-.3 0-.3.2s.1.3.3.3c.1 0 .2-.1.2-.3zm-50.8-1.1c-.1-.2-1.2-.1-2.6 0l-2.3.6 2.5.3c1.9 0 2.3 0 2.5-.3l-.1-.6zM22 12.5c.4-1 .2-1.2-1-1-.5 0-1.3.3-1.6.5-.5.2-.5.3.4.6 1.3.4 2 .4 2.2 0zm116.1.1c-.5-.5-.4-1.2.2-1 .4 0 .5-.2.8-1.7.2-1.2.2-1.9 0-2.2-.1-.3-.2-.7 0-1 0-.3 0-.4-.4-.3-.3 0-.6.3-.6.7l-.6 3c-.5 2-.6 2.4-.2 2.6l.7.3c.3 0 .3-.1.1-.4zm30.4-1.6c0-1.1-.5-.5-.7.8-.2 1-.2 1 .2.5.3-.3.5-.9.5-1.3zm-120.6.6c.9-.3 1-1 .1-1-.5 0-.5 0 0-.5.5-.7.7-.7-4.5-1.4l-5-.7c-1.9-.3-.3.3 2.2.9 2.5.6 3.4 1 3.1 1.3 0 0-.6 0-1.1-.2a4743 4743 0 0 0-8-1.8l-4.3-.9c-1.7-.4-3.2-.6-3-.3l3.9.8c4 .8 11.4 2.5 12.6 3 .4.2.7.4.6.6v.2c.2 0 .5-.3.6-.6.4-.8.9-.9.9-.2 0 1 .7 1.3 2 .8zm100.4 0c.4 0 .3 0-.2-.5-.4-.3-.5-.5-.2-.6.2 0-.4-.3-1.2-.4-1-.3-1.8-.6-2.2-1-.4-.4-.8-.6-1.3-.6-.4 0-1.3 0-2-.2l-1-.2v1.2c0 1 .1 1.1.9 1 .4 0 1-.2 1.3-.5.6-.6 1.2-.7 1.2-.3l-.6.7c-.3.2-.5.4-.3.4l.9-.4c.4-.3.7-.4.8-.2.5.4-.5 1-1.6 1-1.4-.1-1.3.3 0 .5a28.3 28.3 0 0 0 5.5.1zm-7.6-2.5c0-.2.2-.4.4-.4s.4.2.4.4-.2.4-.4.4a.4.4 0 0 1-.4-.4zm74.7 2.4c.3-.1.5-.4.4-.6-.2-.4-1.3.1-1.3.6s.3.5 1 0zm-62-.3h-.7c-.3 0-.1.1.3.1s.6 0 .5-.1zM60.7 9.4c.3-.5.3-.5-.3 0-.3.2-.6.7-.6.9 0 .4 0 .4.3 0l.6-1zm111.8.5c0-.2 0-.4-.2-.6-.3-.4-.3-.4-.5 0-.2.2-.2.4-.2.5.2.3 1 .3 1 0zm-23.4-1c.6 0 .3-.1-1.2-.1-1.2 0-2 0-2 .2 0 .3 2 .3 3.2 0zm-36.6-2.6c0-.3-.1-.4-.3-.3-.5.3-.8 1.5-.6 2.2.2.6.2.6.5-.4l.4-1.5zm-99.8 2c0-.2 0-.4-.2-.5-.2-.1-.2-.3 0-.5.2-.3.2-.6 0-1.1l-.3-.8v.7c0 .4 0 1-.2 1.5 0 .7 0 .9.3.9.2 0 .4-.2.4-.3zm112.7-.5c.3-.1.6-.4.6-.6 0-.3-.2-.4-.9-.2-1 .2-1 .3-.9.7.2.3.4.3 1.2 0zm21.6-.1c-.7-.3-2-.3-2.5 0-.3.1.1.2 1.3.2s1.6 0 1.2-.2zM41.2 7.3c.1-.2.3-1.1.3-2.1 0-1.2.2-1.9.4-2 .3 0 .4.3.4 1.3V6l.3-1.4c.4-1.8 0-2.1-2-2.2-2.3-.1-2.3-.1-1.7 1.7l.5 2.4c0 1 1.2 1.7 1.8 1zM38 6.8A86.7 86.7 0 0 1 36 3l-.4-.8h-2.4c-1.5 0-2.4.2-2.5.3-.1.4 1.7 2 2.1 2 .5 0 2 1.3 2 1.7 0 .2.6.5 1.3.6 1.8.4 2 .4 2 0zm-11-.1h-.8c-.3 0-.1.1.3.1.5 0 .7 0 .5-.1zm115 0H141l.6.1c.6 0 1 0 .6-.1zm2 0h-.9l.4.1c.4 0 .6 0 .4-.1zM30 3l-.2-.9h-2.4c-3 0-3 .4.2 1.4l2.5.6-.1-1zm7.9.3c-.2-.7-.8-1.3-1.2-1.1-.1 0 0 .5.4 1 .8 1.2 1 1.2.8.1zm78.4-.1c0-.2-.1-.3-.4-.3-.2 0-.3.1-.2.3l.4.2c.1 0 .2 0 .2-.2z"/>
</svg>
