<?xml version="1.0" encoding="utf-8"?>
<svg xmlns="http://www.w3.org/2000/svg" xmlns:svg="http://www.w3.org/2000/svg" version="1.1" viewBox="0 0 220 144">
	<title>A piglet lies in a basket on some clothes, next to a large bucket.</title>
	<path d="m139.7 143.5-15.4-.5c-5.4 0-7-.4-6.8-1.4v-.6H112a171 171 0 0 0-14.3.5c-1-.2-2.3-.3-9.2-.6-5-.2-5.5-.3-5.8-.9-.2-.7.5-1.2 1.2-.8 1 .5 6.6.8 18.7.9 11.7.1 19.3.5 19.8 1 .2.1.1.3-.2.6-.4.3-.2.3 1.6.5l8.4.2c9 0 13.6.1 13.8.3v.6c-.1.3-.7.4-3.2.4-1.6 0-3 0-3.1-.2zM58 135.6a6 6 0 0 1-2-2.4c-.4-.8-2.3-2-3.2-2-.2 0-.8-.3-1.2-.7l-2.2-1.7c-1.2-.8-1.7-1-2.5-1-1 0-2-.2-4.2-1.2-.7-.3-2.9-.9-5.2-1.4-.3 0-.7-.2-.9-.4-.2-.2-.6-.5-1-.6-.6 0-.7 0-.7.3 0 .5 0 .5-1 0-.6-.3-1.5-.3-3.7-.3l-3.8.2c-1 0-4-.9-4-1.1 0-.5.7-.8 2.2-1 1.3 0 2-.3 2.8-.9a42.7 42.7 0 0 1 10.3-4.7 44 44 0 0 1 3.6-1c1.3-.4 2.4-.8 2.5-1 .2-.1.8-1.6 1.5-3.3l1.7-3.7c.3-.6.2-.7-.1-1-.4-.3-.4-.4 0-.8.2-.3.4-.7.3-.9-.2-.3-.2-1.8-.1-4.7v-2l-2-.4a23 23 0 0 1-2.6-.6c-1-.3-2.2 0-3.4 1a42 42 0 0 1-5.1 3.4c-.8.1-1.2.7-1.3 1.7-.1.6-.6 1.8-1 2.6-.9 1.4-1.1 1.6-2.5 2.1-1.8.7-4.1 1-10.3 1.3-1.3 0-3.4.2-4.5.4-2.8.4-5.5 0-10.3-1l-1.2-.4V107c0-1.7 0-1.7 3.3-1 2.8.4 3.3.5 8.6.3a15 15 0 0 0 4.1-.5c.3-.2.8-.2 1-.1.5.2.5.2 0 .4-.3.1.5.2 2.1.2 2.6 0 6.3-.6 6.5-1 0-.2.5-.5 1-.8.8-.4 1.1-.7 1.3-1.4.1-.5 0-.9-.1-1-.2 0-.3-.3-.3-.6 0-.5.2-.7.6-.8.7-.2 1.1-1.2 1.4-3.5 0-.7.4-2 .6-2.7A50.2 50.2 0 0 0 35 88l.6-2.7a328.7 328.7 0 0 0 4.1-18c1-4 1.6-6.7 1.4-6.9l-1.4.5c-2.2 1.1-5.8 2-9.8 2.5l-3.7.4c-2.3.3-3.4.1-1.5-.2A204.5 204.5 0 0 0 36 61.2c2-.5 4-1.5 4-2.1 0-.2.2-.6.5-.8 1-.9-2 0-4.7 1.4a19 19 0 0 1-7 2.2l-4.4.8c-2 .4-3 .5-3.6.3l-.8-.2 1-.2a84.6 84.6 0 0 0 7.9-1.4A26.5 26.5 0 0 0 39 57c1-.7 1.4-1 1.4-1.5 0-.6 0-.6-2.3-.4a468.6 468.6 0 0 1-32-.3c-1.7-.5-1.9-.6-1.5-1a122.1 122.1 0 0 0 16 .7A82.2 82.2 0 0 0 41.1 53H43c.3-.1.5-1.1.2-1.6-.2-.3-.7-.6-1.2-.7-.4-.1-1-.4-1.3-.7-.4-.3-1.4-.6-3-.8l-3-.6c-1.4-.8-9.9-1.2-22.7-1.3a47.4 47.4 0 0 1-8-.2l-1.8.4-1.6.2v-.8c0-1 .7-1.2 1.7-.7.6.3 2 .3 8 .2 9.1-.2 8-.2 15.3.1A69.9 69.9 0 0 1 38.4 48c2.6.5 3.6.9 4 1.4.1.4.3.4.8.2 1.2-.6 1.8-.6 2.1 0 .5.8.6 2.3.2 2.9-.5.6-.8 2.8-.5 2.8.2 0 .8 1.3.8 1.8l-.3 1.2c-.8 1.7-1.3 3.5-1.3 4.5 0 .5 0 1-.2 1.1-.2.1-.2.5-.2 1 .1.5 0 1.6-.2 2.6a68.8 68.8 0 0 0-1.6 7.6c-.2.5-.1.6.3.6.5 0 .6.1.6 1.2 0 1 0 1.2.7 1.2.8 0 .8-.1 1.1-2.4A418.5 418.5 0 0 1 47 61.4c-.1-1.3.3-2.8.8-2.8.2 0 .3.2.3.5a218.5 218.5 0 0 1-2.3 15c.2.3-.4 3.7-.7 3.8l-.2 1.2c0 .6-.2 1.1-.3 1.2-.2 0-.3 0-.3-.3 0-.2-.1-.3-.2-.2-.2.1-.2.3 0 .5.4.5 0 2.1-1 5.2-.5 1.3-1 3.1-1.2 4-.2 1.3-.2 1.4.4 2 .7.7.7.7.7.1 0-.3.1-.6.3-.6.1 0 .2-.3.2-.7 0-.4.3-1.5.7-2.4l1-3.4c.1-1 .4-2 .5-2l.2-1.3a92.7 92.7 0 0 0 1-7.2 45 45 0 0 1 .9-5.3c-.4-.3.1-1.6.6-1.7.3 0 .4.1.4 1.2 0 1.2-.4 3.3-.8 3.9l-.2 1.2-.3 2.4c-.2.8-.4 2-.4 2.7-.1 1.7-.8 5.4-1.2 6l-.2 1.3c0 .4-.2.9-.3 1-.1 0-.2.3-.1.7a8 8 0 0 1-.5 2.5c-.7 2-.7 2.2 0 2 .2-.1.3-.2 0-.3 0-.1.2-.6.7-1.2 1.2-1.3 1.9-4 2.2-8.6.1-3.3.6-4.8 1.2-4.4a38.2 38.2 0 0 0-.4 5.8c-.2 1.2-.4 2.8-.7 3.5-.2.8-.3 1.5-.2 1.6.3.3.9-.5 1-1.5l1-2.8 1.6-3a23.8 23.8 0 0 1 7.3-7.2c1.8-1 3.5-2.1 4.8-3.3a99.2 99.2 0 0 1 14.5-7.6c1.5-.8 3.3-1.6 5.5-2.4.7-.2 1.2-.6 1.3-1 .4-.7 1.6-2.7 2.8-4.3 1.2-1.6 2.8-5.2 3.8-8.4a104 104 0 0 1 1.6-4.7c1.4-3.8 3-13.7 2-13.1 0 0-.3.6-.3 1.1l-.7 2.7c-.6 2.3-1 4-1.3 6-.4 2-1 4.3-1.4 4.3-.5 0 0-2.6 1.5-9.4a27.5 27.5 0 0 0 1.5-9.5l.2-1.3.4-1.4c1-1.8 1.3-9.3.8-14-.2-2 0-2.3.8-1.6a31.9 31.9 0 0 1 .6 9.7l.2 4.8A59.2 59.2 0 0 1 96 34c-.2 2.2-.6 3.4-1.2 4.7l-.4 1.1-.2.6c-.2.1-.4.7-.5 1.3a21 21 0 0 1-1.1 4.3l-.9 2.8c-.3 1.2-1 3-1.4 4-1 1.7-1.2 3.1-.5 3.7.3.2.8.1 2.7-.5 2-.6 2.5-.6 3-.4.5.3.8.3 1.2 0a118.6 118.6 0 0 1 11.9-3.7 310 310 0 0 1 13-3.5c6-1.4 8.5-1.8 13.8-2.3l4.6-.4c.8-.1 1 0 1 .2-.2.2-.6.4-1 .4a276 276 0 0 0-16.1 2.4 31.9 31.9 0 0 1-3.7.7l-3 .8-5.7 1.6c-3 1-4.6 1.4-7.3 2.1A101.6 101.6 0 0 0 85 61 59.8 59.8 0 0 0 75 66.2c-.6.1-1.8.7-2.7 1.1l-2 .8h-.1c.3.3-1 1.7-1.6 1.7-.6 0-2.3 1.2-2 1.3.4.1 3.1-.6 5.1-1.4 1.5-.5 3.4-1 4.5-1 .5 0 1.4 0 2-.3 1.7-.6 3.9-.5 5.6.3a8 8 0 0 0 2 .6l1.2.4c1.3.6 2.6.8 3.3.3 1-.6 4.3-1 7.7-.8 4 .1 5.2.3 7.3 1 1.8.5 2.2.4 2-.6-.2-.6 2.6-3.5 4.3-4.5a58.8 58.8 0 0 1 9-4.3c1.8-.7 4.4-1.7 6-2 3.3-.9 4.7-1.4 6.6-2.7a6 6 0 0 1 1.8-.8c.2 0 .7-.5 1.1-1 .7-1 3-3 4-3.6.4-.2.6-.9.9-1.9.5-2.8 3.6-7.8 4.7-7.8.2 0 .7-.5 1.2-1 .4-.6 1-1.1 1.2-1.1.7 0 2.2 4.2 2.2 6 0 1.1.5 1.3 1.9.7.6-.3 1.1-.5 1.3-.3h1c.3 0 .6 0 .7.2.1.1.5.3.8.3.3 0 .7.2.8.4.2.6 0 .7-.8.2-.4-.2-1.2-.4-1.7-.4-.8 0-1.2.2-2 1-1 1.1-1.5 2-1.4 2.4.2 1.1-.1 1.8-1 2.3l-1.2.6c-.2 0-.5 0-.7.2-.4.2-1.4-.3-1.4-.7 0-.2.6-1 1.4-1.7l1.3-1.4-.2-2.6c-.2-2.6-1-4.9-1.8-5.2h-.3c0 .2-.5 1-1.2 1.7-2.3 2.8-2.8 3.7-3.4 6.2-.7 2.9-.6 4 .6 5.4 1 1.2 1.7 1.6 2.7 1.6.4 0 .6.1.5.3-.1.2-.6.3-1.3.2-1-.2-1.1-.1-2 .9-1.2 1.4-2 3.7-1.5 4.5.5 1 .7 2.3.3 2.6-.3.3-.4.2-.6-.4l-.6-1.3c-.4-1.2.1-3.6 1.4-5.6l1-1.8-.6-.7-1-1.6-.7-1c-.5 0-5 4.3-6.9 6.5-1 1.1-1.2 1.3-1.5 1-.3-.3-.8-.2-3 .1a41.5 41.5 0 0 0-8.5 2.2l-3.8 2c-2 1-4 2.3-4.4 2.6l-1.7 1.7c-.5.5-1.3 1.4-1.6 2l-.7 1.2.8.3c1.2.5 6 1.4 9.9 2 1.4.1 2 .6.8.6a65.3 65.3 0 0 1-13-2.3c-1.7-.2-3.5-.7-4.5-1.3-.7-.3-1.6-.4-3.6-.4h-3.7c-.8 0-1.7.2-3.1 1l-2 1-2.1-.5c-1.2-.2-3-.9-4-1.4-2.3-1-3.9-1.1-6-.4-.9.4-1.7.5-2.2.4a31 31 0 0 0-12.3 3.9c-.4 0-2.8 1.2-3.4 1.7-.2.2-.7.4-1 .4-.8 0-2.3 1-3.4 2-.4.5-1.1 1-1.6 1-.4.2-.9.4-1 .6a27 27 0 0 0-3.8 8.4c-.2.4-.3 1.4-.3 2.4 0 .9 0 2.7-.2 4.1a135 135 0 0 0-.5 8.2v.2c.2 0 .3.7.4 1.8 0 1.1.1 2.3.3 2.5.4.7.3.9-.6 2.3l-1.4 2.4c-.3.5-.7 1.1-.9 1.2-.1.1-.3.7-.3 1.4s-.2 1.3-.4 1.7c-.5.5-3 1.5-5.5 2.2-.6.1-2 .7-3.3 1.3l-2.3 1-2.1 1-2.3 1 2.4.1c1.5 0 3.5.2 4.4.3l4 .5c2 .2 3 .5 4.5 1.2 1 .5 2 .8 2.1.7.2 0 .3-.6.2-1 0-.9.1-1 .6-1 .7.2 1.5 1 2.8 2.7l1 1.4h1.6c1.5 0 1.5 0 1.6.7.1.6.4.8 2 1.5 2.4.8 2.8 1.3 2.6 2.5l.1 1c.3.2 6-.5 10.6-1.2 2.8-.5 3.5-.5 5.9-.3 2 .3 3.2.3 5 0 2.8-.3 8.2-1.7 8.4-2l1-.8c1.4-.7 1.6-1.1 1.2-2.6-.3-1-.6-1.3-1.3-1.6-.5-.2-1-.6-1-.7-.1-.3-.4-.3-.8-.3a5 5 0 0 1-2-.6c-1.6-.7-1.9-1.1-1.8-2.4.1-.4 0-.5-1.7-.5-3.2 0-6 .4-8 1.4-2.3 1-2.6 1-3.8.3-1-.5-1-.6-.3-.8a2 2 0 0 1 1.1 0c.7.3 1.1.2 2-.5 1.6-1 6.2-1.7 9.3-1.4 2 .2 2.7.7 2.5 1.8-.1.5 0 .7.8 1.2l2.3 1 2.2.8c.7.4.7.4 1.4-.2.3-.3 1-.6 1.4-.6a7 7 0 0 0 3.7-1.8c.8-.7 1.3-1.4 2.9-3.6l1-1.4a36.8 36.8 0 0 0 3.5-7.5c-.1-.5 0-.8.5-1.1.5-.4.6-.6.6-2 0-1 .3-2.2 1-4.2 1.5-4 1.9-4.8 2.8-6.1l1.6-2.7c1-1.8 1.7-2.5 2.2-2 .5.4.5.6-.8 2.2l-1.2 1.6-.4.5c-.2.1-.8 1.5-1.3 3-.6 2-.8 3.2-.8 4.4 0 1-.1 2.2-.3 2.7-.3.8-.3 1.9-.2 4l.1 5.3v2.5l.9.2c.6 0 .8.3 1.2 1.4.6 1.9 1.6 3.1 2.8 3.7 1.1.6 1.4 1.3.6 1.4-.6.1-3.3-2.3-3.8-3.5-.5-1.1-1.1-1.5-.9-.6.6 1.8.8 3.4.6 3.8-.2.5-.2.5-.6 0-.5-.7-1.6-4.9-1.7-6.8 0-.7-.3-1.4-.5-1.7-.5-.6-1.7-.5-2.7.5l-1 .5c0-.2-.1-.3-.3-.2-.2.2-.2.3.1.5.3.1.2.3-.4.8-.7.7-1.5 2-2 3.7-.4 1.3-.9 1.6-2.2 1.6-.6 0-1.1.2-1.2.3l-1 .8c-.5.2-1 .5-1 .7 0 .4 2 1.3 4.3 1.9 1.4.3 3 .5 5.6.6 2.2 0 3.9.2 4.3.4.3.2 1.8.3 3.7.3 2.5 0 3.2 0 3.4-.3.1-.3.2-.3.2-.1 0 .4 1.2.4 3.8 0 2.8-.5 3.2-1.1 1.7-2.3l-1.4-1.3c-.3-.3-.7-.6-.9-.6-.5 0-.6-.6 0-1 .8-.9.7-2.3-.4-3.9a34.4 34.4 0 0 1-3.4-5.6c-1.9-3.7-2.4-5.9-2.2-9.4a29 29 0 0 1 1.9-10.2c.1-.5.5-1.3 1-1.6.8-.8 1.2-2.4.7-3.4-.7-1.7.2-3.6 2.2-4.4l1-.4-.5-.6c-.3-.3-.6-.6-.6-.8 0-.4.7-.3 1.1.2.3.4.4.4.6-.1.2-.7 1-.7 1.4 0 .3.8.6.8 3 .9 1.3 0 2 .2 2.2.4.2.5 3.2.4 6.1-.2l3-.4c1 0 2.7-.4 2.7-.7 0 0-.4-.5-1-.8-.8-.6-1.2-.7-3.4-.7a11 11 0 0 0-3 .4c-.4.2-.8 0-2.7-1A20 20 0 0 1 128 78a13 13 0 0 0-2.1-1.4c-2.5-1.3-2.7-1.6-1.3-1.4 1 .2 3.9 2 5 3 1 1 2 1.2 5.7 1.3 3.1.1 4.1.3 5.7.8 2.8 1 4.7.8 7-.4 1-.5 1.5-.5 1.5 0 0 .7-3.9 2.1-8.3 3-3 .5-5 1-5.3 1.3-.1 0-1.4.4-2.9.6-1.4.2-3 .6-3.5.8-.6.3-1 .3-1.5.1a23 23 0 0 0-4.3-.2h-3.5v2.8c0 2.7.1 2.8.6 2.8l3.6-.6c2.8-.4 3-.5 3.2-1 .2-1 .7-1 1.1-.1.3 1 1 1 1.9.4.3-.2 1-.4 1.5-.4s2.4-.4 4.2-.9l3.6-1c.3 0 .3 0 0-.4-.4-.7 0-1 .7-.6.8.5 2.2.4 3-.1.2-.2.9-.4 1.3-.4 1 0 2.7-.6 6.9-2.3l4.2-1.6a15 15 0 0 0 2.6-1.2c1.3-.8 1.7-.9 1.9-.5.3.5-.2 1-1 1.2-.5.1-1.4.6-2 1a5 5 0 0 1-1.6.7 6 6 0 0 0-1.7.7c-.6.4-1.6.7-2 .7-.5 0-.8 0-.8.2 0 .1-.4.4-.9.5-.5.2-1.3.6-1.8 1-1.7 1.3-5.6 3-7.6 3.4a126.5 126.5 0 0 0-7 1.5c-.5 0-1.5.3-2.2.6-1.7.8-3.3 1.4-5.3 1.9l-2.7.8-3 .5h-1.6l-1.2 2.5c-1.3 2.8-1.5 4-1 7.9.5 5 2.4 8.5 6.5 11.8.8.7 1 .7 3.4.7l3.8.2c1 .2 2 .1 3.6-.2a221.6 221.6 0 0 1 6.5-1.4l.8-.2c.6 0 1.4-.7 1.2-1l-3.5.3c-3.4.3-3.6.3-7.3-.7-.6-.1-1-.4-1-.6 0-.5.8-.5 2.4 0 1.5.6 7 .7 8.3.2l2.2-.6c1.7-.4 3-1.2 2.8-1.8-.2-.6 0-1 1-1.4.6-.3 1.3-1 1.8-1.8.5-.9 1-1.3 1.3-1.3.6 0 .6.5 0 1.6 0 .4 0 .5 1.2.5 1.1 0 2-.3 4.7-1.6 2.8-1.4 3.3-1.8 3.7-2.5.4-1 1.3-1.7 3.3-2.8 1-.5 1.2-.8 1.2-1.5l.3-1.2c.7-.7 2.3-4.3 2.6-5.7.3-.8.4-2 .4-3 0-1.6.3-2 .8-1.4.8.9-.3 5.3-2.2 9-1 2.2-1 2.2-.5 2.7.5.6.8.5 2.3-.5a18 18 0 0 0 5-6.6l.8-1.8c1-1.8 1.9-4 2.2-5 .3-1 .4-3.2.2-3.2l-1.2.6c-.7.3-1.6.7-2.2.8-1 .2-1 .1-.6-.2l.7-.5c.2 0 .3-.3.4-.7.2-.9.3-1 1.4-1.6 1.5-.7 2.4-2.5 2.7-5.7.2-2.6.4-3.2.8-3 .2.2.3.1.3 0 0-.2-.2-.4-.5-.5-.8-.5-1.8-.5-2.8 0-.6.3-1.7.6-2.4.7-.7 0-1.4.3-1.5.5l-1.3 3c-.2.7-.3.7-1 .4-.4-.1-1-.4-1.1-.6-.7-.6-1-.5-1.8 1-1 1.5-1.6 1.6-2 .5l-.2-.8-1 .5c-.5.3-1.2.5-1.4.5-.9 0-.5-.5.7-1 1-.5 1.2-.7 1.2-1.5 0-1.2-1-2.7-1.8-2.7-.7 0-5 2-5 2.3a12 12 0 0 1-3.5 2.2c-.6.2-1.2.2-2.2-.2-1.2-.3-1.7-.4-2.5-.1-1 .2-1 .2-1.7-.5-.6-.5-.7-.8-.5-1.1l.3-1c0-.4.1-.6.3-.6.3 0 .4.1.4.2 0 .2.3.6.7 1 .4.4 1 .6 2 .7 1.5.2 1.6.1 1.4-.3-.3-.8-.4-1.6-.2-1.6l1 .5c.7.6 1.2.7 1.2.2 0-.6-2.7-3-4.4-4-2.2-1.3-3.3-1.2-4.6.1l-1.2 1c-.3 0 1-1.5 1.6-1.9 1-.6.9-.7-.3-1.2-1.2-.4-3.2-1.8-3.2-2.1 0-.3.7-.3.9 0 .3.5 1.7 1 3.1 1.2 1.5.2 1.6.2 1.6.8 0 .3.4.6.8.7.4 0 1 .3 1.2.5l2.3 1.4c1.7 1 2 1 4.3 1.1 2 .1 2.7 0 4.3-.4 2.3-.7 4.7-1.8 4.7-2.1 0-.4-1.2-.6-2-.5-1 .2-2.2-.1-2.2-.5 0-.2.8-.3 1.9-.4 1 0 2-.2 2-.4l.8-.7.7-.6-.3.6c-.4.7-.1 1.7.4 1.7.2 0 .4-.2.6-.5a4 4 0 0 1 1.2-1c1-.8 1.7-2.4 1.7-4.5 0-.7.2-1.5.3-1.7.2-.2.2-.3 0-.2-.3.2-1.4-1.2-1.4-1.8 0-.3-.3-.8-.7-1.2-.5-.4-1-1.3-1.2-2-.3-.6-.6-1.1-.8-1l-.4-.3c0-.2 0-.4.2-.4.5 0 1-1.7 1-3 0-2-.6-3.6-2.2-5.5-1.5-1.7-2.3-2.9-2.9-4.2-.4-1-.9-1.8-1.2-1.8l-.6.8c-.5 1-.9 5.5-.4 5.5.1 0 .3.4.3.8s0 .8.3 1c.2.3.2.4-.2.8-.2.3-.3.7-.2 1 0 .5-.1.9-.7 1.5-.8.7-.8.7-.8.2 0-.3-.2-.5-.4-.5-.5 0-.3-1 .3-1.4.4-.3.4-.3.3.3v.6c.5 0 .8-3 .3-3.3-1-.6-1.1-2.8-.3-4.3.2-.3.3-1 .3-1.3 0-.8 1.3-3.8 1.7-4 .5-.1 1.2.6 1.2 1.1a42 42 0 0 0 2.8 5.7c.3.7 4.5.6 4.9 0 .3-.6 0-4-.3-5.3-.6-2-1.7-4.5-2-4.5l-.6.6c-.4.4-.6.5-.8.3-.3-.3-.3-.5 0-1 .4-.7.6-5.2.3-6.2a100.5 100.5 0 0 0 .7-18.6c-.1-3 0-6.5.4-6.8.1-.2.2-.9 0-1.7 0-1.1 0-1.3.5-1.7 1-.7 1.1-.5 1 1.8-.2 1.2-.4 5.6-.6 9.7a407.2 407.2 0 0 1-.6 13.7c0 2.1.5 2.2 2.3.3 1.2-1.3 1.7-1.6 3-1.9l2.5-.4 2.5-.1c2.5-.2 8.7-.3 12.5-.1 3 0 3.5.2 4.5.7 1.9 1.2 3.2 2.3 3.2 2.6l1 1.6a8 8 0 0 1 .9 1.7l1 1.2c.4.5.9 1.2.9 1.4 0 .3.4 1 1 1.5.8 1 1.2 1.1 2 1.1l2.4.4 3.6.7c1.2.1 2.5.5 2.9.7.4.2 1.5.4 2.6.5 1 .1 1.9.3 1.9.4 0 .1.1.2.3.2.6 0 1 1.4 1.3 4.2.3 3.2.3 3.8-.2 3.8-.4 0-.5-.5-.8-3a24 24 0 0 0-.5-2.8l-.3-1.2-2.6-.8a45.7 45.7 0 0 0-7-1.6l-3.5-.5c-1.7-.2-2-.3-2.9-1.3-1.2-1.2-1.5-1.2-2.7-.4-1 .5-1.8.5-1.8 0 0-.2.6-.6 1.3-1 .8-.5 1.4-1.1 1.4-1.3 0-.3-.3-.8-.7-1.3-.4-.4-1-1.4-1.3-2-.7-1.4-1.2-1.7-1.4-.8-.2.9-.6.6-.6-.5 0-1.3-.8-2.3-2.2-2.7l-1.5-.5-3-.3a13.9 13.9 0 0 1-3.8-.4l-4 .3c-2 0-4.1.3-4.8.5-.8.3-1.2.3-1.6.1H174c-.4.2-1 .3-1.3.3-.7 0-2.5 1.4-2.5 2 0 .2-.4.5-.8.8l-1.4 1c-.7.6-.7.7-.6 2.1 0 1.6.4 2.9 1 4.3 1 2.3 1.5 3.4 1.5 3.7l.7 2.1c.4 1 .7 2.4.7 3.1V46l1.1-.1 3.9-.2c3.3 0 4.2.4 7.3 3a11 11 0 0 1 3.7 4.7l1.1 2.4-.9 3c-1 3.7-1.9 5.4-3.6 7.6-.7 1-1.4 2.1-1.6 2.7l-.5 1.2-1.2 4.8c-.5 2.5-1 5.3-1.3 6.2a30 30 0 0 0-.7 5.2L178 88c-.4.7-.7 1.5-.7 1.7l-.3 1c-.2.2-.5.9-.6 1.4-.3 1.2-.6 2-2.3 5.6a27.5 27.5 0 0 1-5.2 7.3l-.6.9c0 .1 2.5.5 3.5.4.9 0 17.9.3 21.5.5 3.8.1 5 .3 5 .9a202.2 202.2 0 0 1-30.5-1c-.3 0-1 .5-2.3 1.6-1.9 1.7-2.3 2.3-1.5 2.3a1377.2 1377.2 0 0 1 20.8.5c2.4 0 2.6 0 2.6.6s0 .6-5.7.4a242.4 242.4 0 0 1-12.7-.6 1542.5 1542.5 0 0 1-6.4 0c-1.5 0-1.9 0-1.8-.3.3-.6-.6-.4-.9.3-.2.4-.5.7-.7.7-.3 0-.4.1-.3.3 0 .3 1.8.4 7 .5 7.7.3 8.9.4 9 1.2.2 1-.6 1.1-3 .7-2.4-.4-14.4-.9-15.6-.6-.5 0-.8.3-.8.5 0 .3.4.4 2 .5 1 0 2.6 0 3.3.2l2.3-.1c1.1-.3 4.7.3 5 .7.2.5 0 1.3-.4 1.5-.2 0-1.1 0-2-.3-2.3-.4-12.7-1.2-13.4-1l-1 .8c-.6.5-1 .6-1.4.5-.4 0-.6 0-.6.2 0 .5.6.7 2.1.7 1 0 1.3.1 1.2.4 0 .2-.7.3-1.9.3-2.8 0-4.6.3-5 .6l-.1.4c.2.2 3.2.2 4 0 .9-.2 5 .1 5.5.5.3.1.3.3 0 .5-.1.2-1.9.3-5.2.4-10.2.2-11 .2-13 1-1 .4-2.4.9-3.1 1-2.2.7-2.5.8-2.5 1 0 .1-.7.6-1.6 1-1.2.5-1.6.9-1.9 1.5-.6 1.8-.7 1.9-4.5 2h-14.8c-2.2-.1-3.6 0-4.1.2-.5.2-1.3.3-1.8.3s-1 .2-1.1.5c-.2.3-.7.6-1.1.7a278.8 278.8 0 0 0-5.1 1c-2.5.5-8.6 2.2-9.5 2.7-.5.3-1.7.3-4.5.2-5.5-.2-15-.1-17 0l-3.8.7c-1.4.4-2 .5-2.4.2zM32.5 121c0-.1 0-.4-.2-.6-.1-.2-.2-.4 0-.5 0-.1 0-.2-.2-.2-.1 0-.2.3-.2.8 0 .8.2 1 .6.5zm-1-.2c0-.2 0-.3-.2-.3s-.3.1-.3.3c0 .1.1.2.3.2l.2-.2zm110.9-1.3c0-.4-.6-.3-.7.1-.1.2 0 .4.3.4.2 0 .4-.2.4-.5zm1.8-3.5c0-.2 0-.3-.2-.3s-.2.1-.2.3l.3.3.1-.3zm5.3-.1v-.4c-.1 0-.2.1-.3.4-.1.2 0 .4 0 .4.2 0 .3-.2.3-.4zm0-1.1c0-.2 0-.4-.2-.3-.2.1-.2.3-.2.4.3.4.4.3.4-.1zm12.5-4.2c0-.3-.2-.4-.4-.4-.4 0-.6.3-.2.6.3.3.6.2.6-.2zm-44.7-1c0-.1-.2-.2-.3 0-.2 0-.3.2-.3.3 0 .2.1.2.3.1.1 0 .3-.2.3-.4zm-9.3-.2-.3-.6c-.2-.3-.2-.2-.2.2s0 .6.2.6.3 0 .3-.2zm-74.7-9.2h-.5c-.2 0-.1.1.2.2.2 0 .4 0 .3-.2zm5.9-8.9a52.6 52.6 0 0 0 2.7-14.1c-.2 0-.4.7-.5 1.4 0 .7-.3 1.7-.5 2.3-.2.6-.5 1.5-.5 2l-.4 2.1-.4 2.1c0 .5-.3 1.5-.5 2.3-.3.7-.4 1.4-.4 1.5l-.2.6c-.3.5-.2 1 0 1l.7-1.2zm7.6.3-.1.3v.3c.2-.1.2-.4 0-.6zM37 88c0-.3-.1-.2-.2.1 0 .3 0 .5.2.4V88zm130.1-12.2c.3-.7.5-.6 1.4.2 1 .9 1.6.8 1.8-.2.2-1-.6-2.7-1.7-3.8-.7-.7-.9-.7-1.3-.5-.3.2-1 .4-1.3.4-1.2 0-1.7.2-1.7.8 0 .2 0 .5-.2.6-.5.3-.3 1.2.7 2.5s1 1.3 1.6.9c.3-.3.7-.7.7-1zm-127-2c.2-.5 0-1-.4-.7-.3.2-.3 1.1 0 1.1.1 0 .3-.1.4-.4zm132.3-.3c0-.3 1-1 2.7-1.8a18.6 18.6 0 0 0 11-12c.9-2.7 1-4.6.1-5.5l-.6-1.1c-.3-1-3-4.2-4-4.9-2.8-1.7-3.4-1.9-6.7-1.7-3.8.2-7.4.9-7.7 1.3-.3.5-.2 1.3.2 2.5.2.6.4 2 .4 3.4 0 1.9 0 2.5.4 2.9.4.4.4.6.2 1-.4.6-.2 1.2.8 2 .4.3 1 .7 1.2 1a67.6 67.6 0 0 0 3 3.4c.5.2 1 .1 2.1-.4 2.2-1 2-1.3-1-4.4-3-3-4.2-4.8-4.5-7 0-.8-.3-1.6-.4-1.7-.4-.2-.2-1.1.3-1.4.7-.3 2.7-.3 3.5.2.7.3.8.3 1.5-.1.9-.5 1.4-.3.8.3-.5.7 0 1 1.4.8 1.3-.2 1.6 0 .9.7-.5.4-.5 1 0 1 0 .2.6.1 1.1 0 1.1-.3 1.3-.2.7.6-.3.6-.3.8-.1 1.3.1.3.4.5.6.5.5 0 .7.6.7 1.6 0 .4.1.8.3.9.5.3.4 2-.2 4.3-.7 3-1 3.4-2 4-.6.1-1.1.6-1.3 1 0 .3-.3.6-.4.6l-1.5 1.2c-.7.6-1.7 1.3-2.2 1.5-3 1-4 1.5-4 1.8l.5 1.2c1 1.5 2 2 2.2 1zm-131-.7-.5-.1c-.2 0-.4 0-.4.2s.2.2.4.1l.4-.2zM165.2 70l-.1-.2c-.2 0-.3 0-.3.2v.3c.2 0 .3-.1.4-.3zm13-9.6c0-.3 0-.6-.2-.8-.3-.4-.3-.7 0-1.5.3-.9.3-1.3 0-2.3-.3-1.5-1-2.4-1.5-2.6-.3-.1-1-.5-1.4-1-1-.6-3.4-2-3.8-2-.3 0-.2.6.1 1 .2.1.4.9.4 1.7 0 2.2 1.5 4.4 3.5 5.5.7.3 1.3.8 1.6 1.4.4 1 1 1.2 1.3.6zm-92.5-1-.3-.2c-.1 0-.3 0-.3.2s.2.3.3.3c.1 0 .3-.1.3-.3zm-42.1-2.9c.3-.2.3-.2 0-.2s-.6 0-.7.2c-.2.4.2.4.7 0zm-.8-1c.2-.3.2-.7.2-.8-.2 0-1 1.4-1 1.7 0 .4.6-.2.8-.9zm62.2 70.3c-1.5-2-1.7-5.8-.2-6.7.7-.4.8 0 .4 1-.7 1.4-.6 2.8.2 4 .8 1.2.5 2.8-.4 1.7zM52.6 121c-.6-.6.7-1.7 2-1.7.2 0 .6-.2.8-.5.2-.5.4-.6 1-.4 1.2.2 1.2.3.7 1-.3.5-.8.8-1.9 1-.8.2-1.5.4-1.6.6-.2.2-.7.2-1 0zm106-.8c-1.4-.1-3.2-.4-3.9-.6-1.2-.2-2-.6-1.7-1 .2-.1 9 .4 9.3.6.3.2.3 1.2 0 1.2h-.6c-.2.1-1.6 0-3-.2zM140 107c0-.2.2-.3.3-.3 3.3-.1 4.7-.3 6.5-.7 1.7-.4 2.3-.4 2.5-.2.3.5 0 .6-3.3 1-3 .5-6 .6-6 .2zm-16.5-.5c-.9-.2-.5-.8.6-.8l6.7-.7h1.3c0 .6-.8.9-3.7 1.3-3 .4-4 .5-4.9.2zm15-.1c-.2-.2.2-1.2 1.3-3.1 1.7-3 3-5.8 3.7-8.6.5-1.8 1.4-3.3 2-3.3.4 0 .4 0-.5 1.9l-.8 2.1c0 .5-1 3.4-1.6 4.3-.9 1.5-3.1 6.1-3.1 6.4 0 .4-.7.7-1 .3zm18-4.6v-.6c1.2-.8 2.8-4.5 3-7 .2-1.4.3-1.9.6-1.9s.4.3.3 1.6c0 1.9-.5 3.3-1.8 5.9-1 2-1.8 2.8-2.1 2zm52.3-1-8.7-.3a89.5 89.5 0 0 1-17.5-.7c.3-.4 14.5-.4 23.3-.2 4.8.2 7 .6 6.3 1-.4.3-3.2.4-3.4.2zM130 98.8c-.5-.5-.4-.5 2.9-1 2.4-.4 3.3-.3 2.7.3-.3.4-3.2.8-3.8.7-.3-.1-.7 0-1 .1-.4.2-.6.2-.8 0zm19.2-6c-.5-.6 0-.9 1.5-.9.9 0 2.6-.3 3.7-.6 2-.5 3-.4 2.2.2-.8.7-7 1.7-7.4 1.2zm19.5-5c-.3-.4.1-.7 1.1-.8l1.8-.4c.5-.1.7 0 .6.1-.4.7-3.2 1.6-3.5 1.1zm28.4-3c-.5-.5-3.8-.9-8.1-1a61 61 0 0 1-5.1-.4c-.2 0-.2-.2 0-.4.2-.5 10.7 0 13.7.7.7.2.8.8.2 1-.5.3-.5.3-.7 0zm7.3-3.7c-.3-.3-1.2-.4-2.6-.4a19 19 0 0 1-6.5-1c0-.4 10.5.2 11 .7.3.4 0 1-.7 1-.4 0-.9-.1-1.2-.3zm-50-8.6c-.7-.8-.2-1 1-.6 1 .4 1.1.4 1.9 0 1-.6 1.2-.4.3.5-.9.8-2.5.9-3.2.1zm.5-2.3c-.5-.1-.9-.9-.4-.9 2.8-.2 3.8-.2 4 .2.2.5-.4 1.1-.7.6-.3-.3-.5-.3-2 .1h-1zm-105.5-.8.8-3.3 2.6-10c0-.4-.1-.8-.3-1-.3-.2-.3-.4 0-1.1.6-1.1 1.8-6 2-8.8l.9-4.5c.2-1.2.5-3 .5-4 0-1.1 0-2 .2-2.2.2-.1.4-1.9.5-4 .4-5.1.6-5.9 1-5.9.6 0 .4 3.5-.7 11.1a1427 1427 0 0 0-2.1 14c-.6 1.1-1.5 5.2-1.4 6.2.1.6 0 1.5-.1 2.1l-.6 2.7-1 3.7a15 15 0 0 0-.6 3.3c0 .7-.1 1.4-.3 1.6-.4.3-1.2.4-1.4 0zm102.6-.5c-.3-.2-.7-.9-.9-1.6-.4-1.5-.1-2.3 1.3-3 .6-.3 1.5-1 2-1.7.7-.7 1.3-1.2 1.5-1.2.7 0 1.8 1 2.3 2 .3.6.9 1.3 1.4 1.6 1 .8 1.5 2.5 1 3.4-.5 1-.6.8-.5-.4 0-1.2-.4-2.6-1-2.6-.1 0-.8-.7-1.3-1.4-1.7-2.4-1.6-2.4-4 0l-2.2 2.1.3 1.1c.2.7.6 1.3 1.2 1.6.8.5.8.5.1.5L152 69zm3-1.1c-.2-.3-.6-.7-1-.8-.9-.3-1-1-.2-1.4.7-.4.8-.2 1.4 1.3.3.7.3 1.1.1 1.2-.1.1-.3 0-.4-.3zm1.4-.8c0-.3.3-.8.7-1.1.5-.5.7-.6 1-.3.6.5.5.9 0 1.4-.7.6-1.7.6-1.7 0zm-68.2-1.7c.2-.5 1-.6 1-.1 0 .2-.2.4-.5.4-.4 0-.5-.1-.5-.3zm3.5-.5c-.2-.3 2.7-1.6 3.2-1.5.7.3.4 1-.3 1.1l-1.6.4c-1 .4-1 .4-1.3 0zm-81.9-.3c-.6-.2-.9-.5-.9-.9 0-.3.2-.5.4-.4 1.5.3 5.2.6 6.6.4 1.7-.1 1.8 0 2 .4v.6l-3.6.1a16 16 0 0 1-4.5-.2zm10.2-.1h.8l-.5.1c-.5 0-.6 0-.3-.1zm-2-.7 1.2-.3c.7-.1 1-.1.8 0 0 .2-.6.4-1.1.4-.5 0-.9 0-.8-.1zm148.5-.3c.5-1.5.5-2 0-2.8-.4-.9-.5-1-1.8-1-1 0-1.3 0-1.3-.3 0-.6 1.9-.7 2.7-.2 1.3.9 1.8 3.6.7 4.5-.4.2-.4.2-.3-.2zM60 63c-.3-.5-.2-.9.5-1.9.4-.6 1.2-3.3 2-6.5l1-4a120.7 120.7 0 0 0 3.2-15.5c.1-2.2.4-3 .8-3 .6 0 .7.4.4 1.9l-.5 3a64 64 0 0 1-1.6 7.8 235.4 235.4 0 0 0-1.9 8c-.6 2.3-1 3.6-1.3 5.3-.5 2.1-1.2 4.7-1.4 5-.3.5-1 .5-1.2 0zm91.7-2.7c-.5-.5-1-1-1.2-.8-.2 0-.3-.3-.3-1.1 0-1 0-1.2.5-1.3.8-.2 1.3 0 1.7.9.5 1 .8 3 .5 3.2-.1 0-.7-.3-1.2-.9zm52.3.5c-.2-.2.7-.6 3.9-1.7 2.3-.7 3.1-.7 3.1 0 0 .3-.2.4-.8.4-.5 0-1.7.2-2.8.5l-2.5.9h-.9zm13.6 0c0-.3.2-.5.4-.6.5-.1 1 .3.8.6-.2.4-1.2.4-1.2 0zm-4-.5c-1.2 0-1.7-.2-1.7-.5s.5-.4 2.3-.3l2.4.2c.4.2 0 .9-.7.8-.3 0-1.3 0-2.2-.2zm-54-.6c0-.2 0-.8.4-1.3l.5-1.5.4-1c.2-.3.3-.7.2-1 0-.2.2-.4.7-.6 1-.4 1.7-.4 1.5 0l-.7.2c-.7 0-1.2 1.5-.7 2.1.6.7.5 1.1-.5 2.4-1 1.1-1.6 1.3-1.8.7zm38.7-.3c0-.2.2-.4.5-.4l3.2-.8a31 31 0 0 0 7.3-3.3c.9-.5 1.4-.4 1 .1-.3.6-4.8 2.6-7.9 3.7-3.3 1.2-4 1.3-4 .7zM75.7 56.6a17.3 17.3 0 0 0 1.4-3.7c.3-.6 1.2-4.3 1.4-6 0-.6.3-1.7.5-2.7l1-5.5c1.2-6.3 1.6-8.3 2.1-8.3.3 0 .1 1.5-.6 5.2l-.8 4A70.7 70.7 0 0 1 79 48a47 47 0 0 1-1.8 7.1c-.5 2-1.7 4-2.3 4l.8-2.4zm32.8 1.4 1.7-.7 3.4-1 1.8-.5v-1c0-.7.1-1 .4-1.2.2 0 .4 0 .4.3 0 .2.1.6.3.8.3.5.2.7-.5 1.3-.6.6-1 .8-2.2 1-.8 0-2 .4-2.8.7-1.5.5-2.5.7-2.5.3zM50 56.6a292.9 292.9 0 0 1 2.3-15.3l.3-3 .4-3.8a112.4 112.4 0 0 0 .7-9.3c.2-.2 1 .5.8.8l-.2 3.1a141 141 0 0 1-2 18.3c-.5 2.5-1 5.8-1 7.4-.2 2.6-.2 2.8-.9 2.8-.6.1-.6 0-.4-1zm97.6-.2c-.5-.4-1-1.2-1.1-2-.4-1.4-.2-2 .2-.8.4 1.1 1 2.3 1.7 3 .8.8.2.7-.8-.2zm71.2-.8c-.8-1.2-1-1.2-1.7-.8h-.7c0-.2-.6-.3-1.1-.3-1.3 0-2.5-.8-3.8-2.7a7 7 0 0 0-1.3-1l-.9-.7-6 .1c-5.3.1-6 0-6-.3s.4-.4 3.2-.4l6.9-.1c3.4-.2 3.6-.1 3.8.4 0 .3.4.6.8.7.3.2.6.5.6.8 0 .2.4.8.8 1.2.7.7 1 .8 3 1 2 .2 2.2.2 2.9 1 .7.7 1 2.1.5 2.1l-1-1zm-69.6.2c0-.1 0-.2.3-.2.2 0 .4 0 .5.2.1.2 0 .3-.2.3s-.5-.1-.6-.3zm-29.9-.3c-.2-.4-.1-.4 2.2-1 3.4-.8 4.3-1 4.3-.5 0 .6-.5.8-2 .8-.6 0-1.8.2-2.6.5-1.8.6-1.7.6-1.9.2zm45-1.3c-.4-1-.7-2.7-.9-4.6 0-.4-.3-.8-.8-1-.7-.4-1.2-1.2-1-1.4.3-.3 2.3 1.2 2.4 1.7l.4.6c.1 0 .5.5.8 1.2.5 1.3.6 1.3 0 2.9l-.4 1.6zm-14.7 0c-.7-.6-.6-.6.4-.1.4.2.6.4.5.5-.2 0-.6 0-1-.4zm3 0c-.6-.5-.8-1.1-.3-1.4.4-.3 1.3.8 1.3 1.5 0 .6-.2.6-1 0zm2.1.1c-.3-.1-.4-1.6 0-1.6.2 0 .7.5.9 1.2.2.6-.1.7-.9.4zM110.8 50c-.2-.5-.1-3.1.2-9.5l.2-4.8c0-3.4.3-4.7.8-4.3a290 290 0 0 0-.4 15c-.3.9.3.4.6-.6l.5-1.2c.1-.2.2-2.5.2-5.2l.2-5.5c.3-.8.9-.5.8.4-.2 2.4-.2 10 0 10.2.3.6.7 0 1-1.6.3-1.5.4-1.9.8-1.9.5 0 .3 1.6-.9 5.4-.5 1.6-.6 1.7-1 1.5-.4-.2-.5-.4-.2-.8.2-.4.1-.5-.2-.5-.4 0-.5.2-1.3 2.4-.5 1.4-1 1.8-1.3 1zm-11-.4c-.2-.2-.2-1.4 0-4.8.1-2.4.3-7.4.2-11 0-3.5 0-6.6.2-6.8.2-.4.9-.3 1 .2a201 201 0 0 1-.4 20.2c.5.5.4 2.3-.1 2.4-.6.3-.5.3-.9-.2zm5.5-.7c-.1-.3 0-2.2.1-5.4l-.1-4.9c-.3-4.7-.1-6.8.5-6.8.5 0 .5.4.3 2-.2.9-.2 2-.1 2.7l.2 4 .1 3.6c.1.7.2.8.8.5.3-.2.6-.5.6-.8l.3-6c.2-3.8.4-5.5.7-5.8.6-.6.7.3.4 3.6a211 211 0 0 0-.5 6c-.1 2.6-.1 2.7.4 2.5.5-.1.6 0 .6.9 0 .5-.1 1-.3 1.2l-.4 1.2c0 .5-.3 1-.4 1.1-.3.3-1-.7-1-1.7-.2-.9-.2-.8-.7.8-.3 1.2-.6 1.6-1 1.6-.2 0-.5-.1-.5-.3zm-58.6-1.5a150.2 150.2 0 0 0 .7-5.6c.2-.3.5-3.7.7-7.5.2-3.8.5-7 .6-7.2.5-.4.4 4-.1 11.4l-.5 7.1c-.2 2.7-.3 3-1 3-.5 0-.5 0-.4-1.2zm56.3-1-.3-4.7c-.3-2.2-.3-4 0-7.8.3-4.8.5-5.7 1-5.2a100.6 100.6 0 0 0-.3 12.7c0 .7.3 1.3.5 1.6.7.7.3 5-.5 5.1-.4 0-.4-.1-.4-1.7zm13.9-2.7c-.4-.8-.5-6.4-.3-6.4.6 0 .9 1.3.8 2.9-.2 2.1.3 2.5 1.2 1 .8-1.6 1.6-1.7 1.6-.3 0 .7 0 1 .4.8.6-.2.7.4.1 1-.4.4-.8.6-1.4.5-.7-.1-1 0-1.3.4-.4.7-.9.7-1.1.1zm4.9-.4c-.4-.4-.4-.8 0-1.2.4-.3.5-.3.7.1 0 .3.3.6.5.7l.3.5c0 .4-1.1.3-1.5 0zm-80.3-2.6c-.5-.4-.5-.6.3-5.5l1-7.8a204.3 204.3 0 0 1 1.3-17c0-1.5.2-2.3.5-2.8.8-1.2 1.2-1 1 .5A97 97 0 0 0 45 13a106.7 106.7 0 0 1-1.7 14.7c.2.4.2 1.4 0 2.2-.5 4.6-.7 7.7-.5 8.3.3.5.2.9-.2 1.7-.5 1.3-.5 1.2-1.1.8zm-21.3-.8a312.2 312.2 0 0 1 .9-21.6 125.3 125.3 0 0 1 1.7-11.1c.3-1.7.8-2.3 1.4-1.7.2.2 0 .5-.3 1.1a10 10 0 0 0-1.4 5.2c0 .8-.2 3.2-.5 5.1a112.9 112.9 0 0 0-1.2 15c-.2 2.5-.2 6.2 0 7.2.2 1.1 0 1.5-.6.8zm4.9-10.3c0-10 .2-12.5.7-12.3.4.1.4 1 0 10.9a549 549 0 0 0-.2 9.3c0 1-.1 1.7-.3 1.7-.3 0-.3-2.5-.2-9.6zm-10.8 9c-.4-.3-.4-.7-.1-4l.5-7.7C15 19.5 16.4 5.3 17 4.6c.6-.7.8 0 .4 2S16.3 17.3 16 22.8a57.5 57.5 0 0 1-.6 7.2l-.1 2c-.7 4.6-.7 5.3-.4 5.8.4.7 0 1.2-.6.8zM161.8 35c.5-1.8.7-3.7.5-4.6 0-.6 0-2.2.2-3.6.2-2 .2-3 0-4.1l-.5-1.5-.6.4c-.9.8-8.3.6-14.4-.2-5-.8-11.6-1.2-17.6-1.1H120a36.4 36.4 0 0 1-7-.3l-4.4.1c-4.3 0-9.2-.4-9.5-.8 0-.1 0-.4.3-.6.4-.5 2-.6 3.3-.2l7.1.6a65.6 65.6 0 0 1 7.8.5c.5-.4 2-.6 3.8-.5a73.5 73.5 0 0 0 9 0c2.3 0 8.4 0 13.4.3 8.5.3 15.2.3 15.5 0l-.3-.5c-.3-.2-.6-.6-.7-.9-.2-.4-.4-3.6-.3-6.2 0-1.6.6-4.3 1-5.2l.6-1-.8-.4c-.4-.3-1.1-.4-1.9-.3-1.6.2-4.4.2-9.4 0a643.1 643.1 0 0 0-19.1-.7l-2.5-.1h-8.5c-.4 0-.6-.2-.6-.6-.1-.6 0-.6 3.4-.4a682.2 682.2 0 0 0 36.8.8l1.8.2c1.3 0 1.7.1 2.3.7l1 .8c.5 0 .5-2 0-3.5-.5-1.4-.4-2.1.4-2.1.6 0 .7.6.9 4.9 0 1.5.3 3 .5 3.6.6 1.3.6 1.4 0 2a78 78 0 0 0-.1 14v3.7c-.8 7.1-.8 7.5-1.8 7.5-.3 0-.3-.2-.2-.7zm.5-16.9.2-2.2c0-2-.2-2.7-.7-2.7-.3 0-.3.3-.2 1.4.3 2 .3 2.4 0 2.6-.6.3-1-3.6-.7-5.3.1-.7.3-1 .8-1 .6-.2.7-.4.7-1.3.1-1 0-1.1-.3-1.1s-.4.1-.3.4c0 .2 0 .5-.4.7-1 .5-1.5 2.2-1.5 4 0 1-.2 1.7-.3 1.7-.5 0-.3-3 .3-5.2s.5-2.6-.2-2.3c-.6.2-.9 1.2-1 4.4-.3 3.2 0 4.6.8 5.3.4.3.4.3.2-.6l.1-1c.2 0 .4.4.6 1 .5 1.4 1.6 2.1 2 1.2zm-1.7-11.6c0-.2 0-.4-.2-.4s-.3.2-.3.4.1.4.3.4l.2-.4zM5.2 33.7C5 30.4 4.7 28 5 28c.2 0 .3.3.4.6.2.7.3 6.3.1 6.3l-.3-1.2zm-5.1-1c0-.7 0-1.6.2-1.9.1-.3.2.2.1 1.3 0 2.1-.4 2.7-.3.7zm0-4.1v-1l.3 1c0 .6 0 1-.2 1 0 0-.2-.4-.2-1zm0-3c-.2-3 0-12.4 0-12.6h.4c.2.2 0 8.6-.2 11.7l-.2 2.7Zm48.5-.9c-.2-.5 0-3.7.5-8.2l.5-4.1c.1-1.8.5-1.2.5.6 0 2.1-.5 8.9-.7 10.7-.2 1.4-.5 1.8-.8 1zm5-.3c-.1-.3-.2-10.5 0-10.9l.6-.3c.3 0 .3.9.3 5.1a22 22 0 0 1-.3 5.7c-.2.4-.4.6-.5.4zm-48.8-6C4.8 14.8 6.7 1.2 7.3.6c.2-.3.4-.3.7 0 .4.3.4.5-.2 2.2a81 81 0 0 0-2.2 13c-.1 1.6-.4 3-.5 3-.2.3-.3.1-.3-.4zM.1 11.2l.6-4c.2-.4.2-.4.4 0 .2.3 0 2.4-.4 4.4-.3 1.3-.7 1-.6-.4z"/>
</svg>
