<?xml version="1.0" encoding="utf-8"?>
<svg xmlns="http://www.w3.org/2000/svg" xmlns:svg="http://www.w3.org/2000/svg" version="1.1" viewBox="0 0 224 154">
	<title>Alexander follows the policeman up the garden path, past the cabbages, towards the farmhouse.</title>
	<path d="M8 153.2c-.4-.1-.7-.3-.8-.5-.1-.4 1-1.2 1.5-1.2.2 0 .6-.1.8-.4.3-.2 1-.5 1.7-.5 1.2-.2 2-.7 2.3-1.7.2-.4.2-.7 0-1-.2-.2-.4-.7-.3-1 0-.5-.1-.7-1.3-1L8 144.5a8.2 8.2 0 0 0-3.4-.8c-.6 0-1.2 0-1.3-.2 0-.2.4-.3 1-.4.9 0 1 0 .8-.9 0-.8-.1-.9-1.1-1-.7 0-1-.2-1.1-.6-.1-.4 0-.4 1.3-.3 1.7.2 2 .5 2 1.5 0 .8.4 1.1 1.4 1.4l1 .6 1.5.5c.6 0 1.4.3 2 .5 1.1.6 1.6.4 1.9-.6.4-1.5.2-2-1-2.6-1.3-.7-1.5-1.2-.4-1 1.4.3 1.9.6 2.3 1.6.2.6.5.9.9.9.7 0 .6-.1-.3-2a10 10 0 0 1-1-3.1c-.1-1.5-.2-1.6-2.2-3.7-2-2-2-2-3.3-2-1 0-1.6 0-2.2.6-.7.6-.7.7-.5 1.3.3.5.6.7 1.3.8.5.1 1.3.5 1.7.8 1.1.7 2.6 3 2.5 3.9-.1.6-.2.5-.6-.3-.9-1.6-2.6-3.4-3.5-3.7-1.5-.5-3.4-.3-4.2.3-.9.7-1.2.4-.7-.5.3-.5.7-.8 1.2-.9.6 0 .8-.3 1-1 .2-.9 1.3-1.9 2-1.9s.8-.2.5-.9c-.2-.5-2.4-1.7-3.2-1.7-.6 0-.5-.5 0-.8 1.1-.6 3.6.6 4.3 2 .4.8.8 1.1 1.6 1.4 1.8.5 1.9.4 1.7-1-.1-1 0-1.5.2-1.8.7-.9-.3-2-3-2.8-1-.3-1.9-.7-2.2-.9-.3-.2-.7-.4-1-.4-.5 0-2-1.2-2-1.7s.7-.5 1.5.1c1 .7 2.9 1.3 4.2 1.3l1.4.2c.5.3.3-.8-.7-4-.2-.7.3-1 .7-.5.3.4.6 1.4 1 3.6.2.6.5 1.3.8 1.4.6.4 1.2 1 1.5 1.6.3.4.4.4 1 .1.7-.3.7-.3.3-.6-.4-.3-.4-.5-.1-1.5.1-.7.2-1.4.1-1.6 0-.2.2-.5.6-.8.4-.2 1.1-1 1.7-2l1.1-1.5-.4-1.3c-.3-.6-.4-1.5-.4-1.9 0-.4-.3-.8-.6-1-.8-.6-1-.6-.8.2.1.7 0 .7-.8.6-2.5-.6-2.4-.6-3.8.7l-1.4 1.2-.5.6c-.1.4-.5.6-1 .7-.9.1-3.3-.6-4-1.3-.8-.8-1.8-.9-2.5-.3-1 .8-1.1.7-1-.1 0-.6.3-.8.9-1 1.2-.2 3.5-1.4 3.7-2 0-.2.7-.9 1.5-1.4 1-.7 1.6-1 2.1-.8.4 0 1 0 1.5-.3.7-.5.8-.5 2.1.2a6 6 0 0 1 1.8 1.2c.2.3.6.5.8.5.3 0 .3-.2.2-1 0-.7-.3-1.3-.4-1.4-.3-.4-3.2-1-4-.8-.5.1-1 0-1.5-.6-1-.8-1.8-1-3.3-.8-1.5.2-2.2.7-2.4 1.7-.1.7-.2.8-1.4.9l-1.5-.1c-.4-.4.2-1.2 1-1.2 1-.2 1.8-.9 1.7-1.4V107c.2-.6.2-2 0-3-.3-2-.1-2.5.5-1.7.3.5.4.5 1.5 0 1-.3 1.4-.7 2-1.7.5-.7.8-1.4.8-1.6 0-.7-1-1.7-1.8-2-.9-.1-2.1-1.7-2.1-2.6 0-.2-.3-.4-1-.4-.4 0-1-.2-1.3-.4-.3-.4-.3-.5 0-1 .6-.8.5-1.8-.1-2.6-.3-.3-.5-.4-.5-.3 0 .6-.7.4-1.3-.5-.8-.9-.6-1.2.3-.8l1 .4c.9.3 1.6 1.8 1.4 3-.1 1 0 1.2.5 1.3.7.2 2.8 0 2.8-.2L7 92c-.4-.8-.3-1.5.5-2.2 1-.7 1.6-.5 3.5 1.1l2.2 2 1.2.6c.6 0 1 .3 1 .5 0 .6-1.3.5-2-.2a17.7 17.7 0 0 0-4.8-3.5c-.5.2-.5 1.6 0 2 .2.2.4.6.4.9 0 .5-.2.6-1.1.8-1.4.3-1.6.8-.7 1.9.7.7.7.7 2.2.4 2.9-.6 3.4-.4 4.2 1.6l.5 1c.1 0 .7-.7 1.3-1.6.6-1 1.4-1.8 1.8-2 .5-.4.8-.8 1-1.4 0-.7 0-1-1-2-1.3-1.5-1.4-2-.3-2 .4.1.7.3.8.7 0 .3.3.7.6 1 .2.3.6 1 .7 1.5l.3 1 1.5-.1c1.4-.2 1.6-.1 2.4.6a7744.6 7744.6 0 0 0 3.4 3.4c.3.5.4.5.4-.2 0-1-1.1-3-1.7-3.1-1-.2-1.2-.6-1.2-2.1 0-1.7-.3-2.7-1-3.2-.6-.6-1.1-2-1.1-3 0-.6-.2-1-.6-1.4l-1-1.4c-.4-1-.7-1-1.7-.3-.4.3-1 .5-1.2.5-.3 0-.7.2-.7.4-.2.3-.3.3-1-.3-.5-.3-1-.6-1.3-.6-.7 0-.8-.5-.3-.8.4-.2.7-.1 1.1.1.6.5 2.2.3 3-.3.6-.4 1.8-.4 2.2-.1.5.3 2.3 3.7 2.3 4.4 0 .3 0 1 .2 1.3l.3.6 1.1-.6c.6-.4 1.4-.6 1.7-.6.5 0 .6-.2.6-.6 0-.6.5-1.6.8-1.6.1 0 .2.7.2 1.5 0 1 0 1.5.4 1.9.5.5.6 1.1.2 1.1l-1.2-.6c-1.3-1-2-.9-2.7.2-.2.4-.2.7.1 1.3.3.5.4 1.2.3 1.8 0 1 0 1.1.8 1.5.7.3 1 .8 1.4 1.6l.5 1.2.6-.8c.3-.5.7-.9.9-.9.5 0 1.3-1 2.4-3.1.8-1.7.9-2 .6-2.6-.1-.4-.5-.6-.9-.6-.9 0-1-.4-.6-1.5.2-.7.2-1 0-1.3-.5-.6-.8-.5-1.5.3-.8.9-1.1.7-.8-.5.2-.8.4-.9 1.4-1 .9 0 1.1 0 1.5.7.3.4.4.9.3 1.6-.2.7-.1.9.2.9.6 0 1.2.9 1.2 1.7 0 1-1.8 4.5-3 5.7-.5.6-1 1.2-1 1.4 0 .2-.1.5-.4.7-.3.3-.4.3-.4 0v-.2c-.2 0-.2.3 0 .6.2.6 1 .5 1.5-.2.3-.3 1-.8 1.7-1 1-.5 1-.6 1-1.7 0-1.3.5-2 1.7-2.5.9-.4.9-.5.9-2 0-1.3 0-1.5.7-2l.8-.7-.5-1c-.4-.8-.4-1-.1-2 .2-.8.5-1.2 1.4-1.6.6-.3 1.2-.5 1.4-.4.1 0 .6 0 1-.3.4-.2 1-.3 1.4-.2.4 0 1 0 1.4-.3.7-.4.8-.4 1.7 0 1 .4 1 .4 1.5-.4.7-1 2.6-2 3.3-1.7 1.4.6 0 3.5-2.5 5-1.7 1-2.6 2.4-2 3 .3.3.5.3.9.1.8-.4 1.6-.3 2.2.2.5.4.5.4 1.1-.2 3-3.2 4.8-4 6.3-2.5l1.1 1.1c.3.2.4.6.3 1-.1.7 0 .9.5 1.1.4.2.8.6.9 1 .3 1.4.3 1.5 1.3 1.5 1.2 0 2.2.6 2.2 1.3 0 .3 0 .5-.2.5l-.6.8c-.5.8-.6.9-1.9.7-.8 0-1.8-.5-2.6-1-.7-.4-1.6-.8-2-.8-1 0-5.3 2-6 2.9-.5.5-.4.6.3 2 .5 1 1 2 1 2.3l.4 1.4c.3.7.4.7 1.8.6 1.3-.2 1.4-.1 2 .5 1 .9 1.3.8 1-.2 0-.8 0-1 .6-1.4 1-.7 4-1 5.7-.8.9.2 1 .1 1.3-.4.3-.5.3-.7-.2-1-.5-.4-1-.5-2.5-.5-1.8.1-2.3-.1-1.1-.6l.6-.4c0-.3-1.7-.1-2.2.3-.5.3-.5.3 0 .8.5.4.5.4 0 .8-.7.5-.9.5-1.4-.3-.4-.6-.4-.7 0-1.3.3-.4 1-.8 2-1.1 1.6-.6 1.5-.6 5 1.9.4.2.6.7.6 1.1 0 .5.3 1 1 1.6 1.1 1 1.1 1 1.3 3.1.1 2 .1 2.2-.3 2.4l-.7-.1c-.2-.2-.8-.3-1.3-.3H61c-.5 0-1 .1-1.3.7-.5.6-.7.7-1 .4-.3-.2-.8-.3-1.2-.2-1 .2-1.4-.2-.7-1 .3-.3.6-.4 1.2-.3.4.1 1 0 1.3-.3.8-.5 2-.5 2.8 0 .7.5.7.4.6-.8-.1-2.2-.7-3.5-1.6-3.5l-1.7.5c-1.3.7-1.6 1.4-1.2 2.5.5 1.2 0 1.3-.8 0-1.3-2-1.9-2-2.3-.2-.1.8 0 .9.5.8.5 0 .6 0 .5.6-.1 1-.5 1.8-.9 1.8-.3 0-1.5-2.2-1.5-2.8l-.9-1c-.7-.5-1-.6-1.6-.4-.7.1-.8.3-1 1.3 0 1 0 1.2.4 1.5.3.2.9.4 1.3.4 1 0 1.5.2 1.5.7 0 .2-.1.3-.6 0-.5-.1-1 0-1.8.2-1 .5-1 .4-1.8 0-.7-.6-.7-.6-1.1-.2-.4.3-.6.4-.8.2-.2-.3 0-.5.7-1 .8-.6 1-1 1-1.7 0-1.9-2-5-3.2-4.8-.4.1-1 1.6-1.7 4-.5 1.8-.4 2.2 1.1 3 1.1.6 2.5 3 2.3 4-.2.8 0 .8 1.4-.2.6-.4 1.6-.8 2.1-1 .6 0 1.4-.3 1.8-.5 1.2-.5 1.1-.5 3 .7 1.4 1 1.8 1.5 2.3 2.6l1-.2c1-.2 1.1-.2 2 .6 1 1 1 2 .4 3.5-.5 1-1.4 1.4-1 .5l.3-1.6c0-.9 0-1.2-.5-1.6-.8-.8-1.7-.8-2.5 0-.4.4-.8.7-1 .7-.3 0-.5-.5-.2-1 .2-.1.3-.7.2-1.2 0-.7-.3-1-1.4-1.7-1.5-1-2.2-1-3.1-.3-.4.3-.9.5-1.3.4-.9-.2-3 1.2-3.4 2.3-.4 1.4-.3 2.3.4 2.6.6.2.7.4.7 1.5 0 .7.2 1.5.4 1.9.4.5.4.6 0 1-.5.2-.4.4.8 1.6 1.5 1.5 2 2.6 2 4.5.1 1.7-.4 1.7-.7 0-.2-.7-.7-1.9-1.1-2.5-.8-1.3-1.8-1.8-4.4-2.3l-.9-.2.9.5c.5.4 1 1 1.2 1.7.2.7 1 2 1.9 3 1.7 2.2 2 2.9 1.9 3.6-.2.4-.3.4-.6.2-.5-.2-2.5-2.9-4.4-5.8-.6-.9-1.4-1.8-1.8-2-1-.5-1.2-1.8-.8-3.3.3-.8.3-1-.1-1.8-.2-.5-.4-1-.3-1.3.2-.6-.4-1.6-1.3-2.2a9 9 0 0 1-1.3-.9c-.2-.2-.8-.4-1.4-.5-1-.2-1.2-.1-2 .6-.6.5-1 1.1-1 1.5 0 .9-.3 1-1 .2-.7-.6-1-.7-1.9-.5-1.4.1-1.8.5-1.8 1.7 0 .7.1 1.2.6 1.6 1 .9 3.6 4.9 3.6 5.4s2.6 1.8 4.1 2.2c.4 0 2.1.8 3.7 1.6 2.9 1.4 3.8 2.1 4.4 3.6.4 1.1-.2 1-.8 0-.7-1.4-1.1-1.7-4.2-3.2-2.6-1.3-3.8-1.7-4.2-1.1 0 0-.9 0-1.9-.4-1.8-.7-2.2-.6-3 .3-.3.3-.3.5 0 1 .2.2.3.7.2 1-.1.3.2.5 1.6 1 1.2.5 1.9.7 2 .5l.9-.2c.3 0 1-.2 1.4-.5.6-.4.8-.4 1.2 0 .3.2.4.5.3.9-.2.7.2 1 1.3 1.3a9 9 0 0 1 1.9.8c.9.5 1.3.6 3.1.5 2.4-.1 3.5.1 4.4 1 .7.9 1 .9 1.2.2.1-.4 2.5-1.9 3.2-1.9l1.3-1.1c.7-.8 1.4-1.3 2-1.4.8-.2 2-1.3 1.7-1.7-.1-.1-.5-.3-.8-.3-.9 0-.8-.1.2-2 .8-1.7 2.6-3.3 4.7-4.4 1.4-.7 1.9-1.3 2-2.5.2-1.3-.7-3.5-1.6-4a3 3 0 0 0-1.8-.2c-1 .2-1.1.2-.7-.2.2-.3 1-.5 1.6-.6 1.2-.1 1.2-.1 2.3 1.2l1.2 1.3.7-.5c2-1.7 3.2-2.1 5-2.2 3.4-.2 5.3 1.3 5.7 4.4 0 1 0 1.3-1 2.7-1.2 2-3 3.6-4.3 3.8a3 3 0 0 0-1.6.9c-.3.4-.9.8-1.1.8-.3 0-.6 0-.7.2-.3.4-1.2.3-1.2 0 0-.2.5-.7 1.2-1 .9-.4 1.2-.7 1.2-1.2 0-.7.6-1.4 1-1.1l1.7-.1c1-.2 1.5-.5 2.2-1.3 1.8-2 2.1-3.5 1.3-5.4-.2-.7-.7-1-1.6-1.5-1.5-.8-2.4-.7-2.3.2.4 2.9.3 3.4-.2 4.5-.8 1.5-3.1 4.3-3.7 4.3-.3 0 0-.4.8-1.3 1.6-1.6 2.2-2.6 2.7-4 .4-1 .3-1.2 0-2.3-.7-1.7-1.1-1.9-2.9-1-1.7.9-2 1.6-1.2 2.7.7 1 .7 1.4 0 1.4-.3 0-.4.3-.6 1.8 0 1-.3 2-.4 2-.2.1-.6-.2-1-.6-.8-1-1-1-2.3-.3l-2 1c-.6.2-1.3.7-1.5 1a35 35 0 0 1-1.4 2.4c0 .4 1.6 1 2.4.9.7 0 1.8.1 4.7.8 1.4.4 3 1.8 3.6 3.1.5 1.3 1 1.5 4 1.4 2.7 0 3.4.2 4.7 1.4.7.7.7 1 .7 3.1 0 1.3-.1 2.4-.3 2.4-.5 0-.8-1.2-.7-2.6.2-1.6-.3-2.8-1.3-3.3-.8-.3-2.8-.3-3.5 0l-1.2.5c-.6.2-.9.5-1.3 1.5l-1 2.5c-.7 1.2-1.6 2-2.1 1.4-.4-.3.2-1.6.7-1.6.4 0 .7-.6 1.1-2.2.3-1.2.3-1.5-.2-3-.3-.8-.9-1.9-1.2-2.2-.8-1-2.3-1.6-3.5-1.6-.6 0-1.2-.2-1.4-.4-.2-.3-.7-.4-1.3-.4-1 0-1.2.1-1.5.8-.4.5-.8.9-1.5 1-1.7.5-2.2.7-2.7 1.5-.4.5-.4.8 0 1.6.4 1.3 0 1.6-1.2.7-1-.6-1-.6-2-.2-1.2.5-1.2 1.4-.1 2.3l1 1c0 .4.7.8 1.3 1.2l1.3.5-2 .1a8 8 0 0 1-3.8-.6 6 6 0 0 0-2.3-.5c-.3 0-.8.7-1.2 1.4-.6 1.4-.6 1.4-.1 1.9.3.3.9.5 1.3.5.7 0 .8.1.8.6 0 1 1 2 2.1 2.3.6.2 1.2.2 1.3.1h1.2c.7.2 1 .4 1.2 1 .5 1.4 2 2 4.3 1.4.5 0 .8-.4 1-1.2.5-1.1 1.4-1.6 3.4-1.9.9-.1 1.2 0 1.8.5.4.4.8.6.9.6.3 0 1.8-2.3 1.8-2.8 0-.7 1.9-2.7 1.9-2.1 0 .5.1.5.8.2.7-.4 2.6.4 2.7 1.1.1.9.9.9 2.2 0 1-.7 1.4-.9 1.9-.7.5 0 .8 0 1.3-.4.3-.4.6-.8.6-1 0-.5 1.3-1.4 2.2-1.5.7 0 .9 0 1 .8.3 1.1-.1 3-.7 3-.3 0-.3-.2-.2-1.3.1-.9 0-1.3-.2-1.5-.5-.4-1.4.2-1.2.9 0 .3-.4.8-1 1.5-1 .9-1.3 1-1.8.7-.5-.2-.9 0-2 .6-1.8.9-3 .8-3-.2 0-.8-.4-1.2-1.3-1.2-1 0-1.4.6-1.2 2.2.2 1.7-.2 2.3-1.4 2.3-1 0-1.5 1-1.1 2.2.2.6.2.8-.3 1.2l-1 .7c-.3 0-.7.7-1 1.4-.5 1.5-1.3 2.4-2 2.4-1 0-1.5-.5-1.7-1.6-.1-.8-.4-1.3-1.4-2.1-.7-.7-1.3-1-1.6-.9-.4.1-.5 0-.5-.4s-.2-.5-.8-.5c-1 0-1 0-.1 1.3l.6 1.3.4.7c.4.4.4.5 0 1-.4.3-1 .5-2.3.5-.9 0-2 .2-2.4.4-.4.2-2 .3-3.7.3-1.6 0-3.4.1-4 .3a62.8 62.8 0 0 1-14.8.2c-.4-.3-.4-.5-.1-1.2l1-1.6c.6-1 .7-1.5.1-2-.3-.2-.4-.6-.3-1.8.2-1.3 0-1.8-.4-2.8-.8-1.9-2.5-2.3-5.3-1.3-2.1.8-2.4.7-4.1-1.2-1.3-1.4-2-1.6-2.6-.8-.3.3-.6.6-.8.6-.3 0-1.7 1.2-1.7 1.6 0 .1-.3.6-.8 1-1.6 1.5-.6 2.9 2.3 3.2 1 0 2 .3 2.4.5 1.2.8 1.9 3 1 3.3-.4.2-.7 0-1.3-1-.5-.9-1.7-1.5-3-1.5-1.1 0-2.7-1.3-3.3-2.6l-.5-1.2-.4.6c-.6 1.2-.4 2.2.6 3.4l1.4 1.6c.5.5.7.6 1.6.4l1 .1c0 .5-1 1.2-1.7 1.2-1 0-1.5-.5-2.6-2-.6-.8-.6-.8-.6-.2 0 .3-.5 1-1.3 1.8-1 .9-1.1 1.2-1 1.5.6.6 0 .9-1.5 1l-1.8.4-1-.1zm37.1-2 1.5-.5 1-.5c.7-.3 1.3-1.2 1.4-2.5l.2-1.1-1.4.1c-1 .1-1.5.3-2 1-.8.8-3.4 1.7-5.2 1.7-.9 0-1.2.1-1.2.4 0 .3.3.4.7.4.5 0 .8.3 1.1.8.4.7.5.7 1.6.6.7 0 1.7-.2 2.3-.4zm4.4 0-.6-.2c-.3 0-.4.1-.4.3.2.2 1 0 1-.2zm4.4-.3c0-.2.3-.4.4-.4.6 0 1.5-1.2 1.5-1.9l.4-1.2c.4-.6.4-.7-.7-1.7a6.9 6.9 0 0 0-2-1.3 63.6 63.6 0 0 1-2.6-.7v2c.4 2.2.1 4.1-.5 4.8-.4.4-.4.5 0 .6l2 .2c1 0 1.4-.1 1.5-.4zm-16-2.8c.7-.2 1.2-.2 1.8 0 .7.2 1 .2 1.6-.2.5-.2 1.2-.4 1.7-.4.8 0 .9-.1.8-.5-.1-.3.1-.6 1-1s1.2-.7 1.2-1c0-.4.3-1.2.7-1.8.6-1 .7-1.2.3-1.9-.3-.6-.5-.7-1.4-.7-1 0-2.4.7-3.7 1.9l-1.2.8c-1 .4-1 .6 0 1.2 1 .5 1 1-.2 1.3-.6.2-1.2.1-2-.2l-1.8-.4c-.2 0-.5-.2-.5-.4 0-.5.9-1.1 2.9-2.1a7.7 7.7 0 0 0 3-2.4c.7-.8 1.3-1.7 1.3-1.9 0-.1-.3-.5-.7-.8-.7-.5-.7-.6-.3-1.2.3-.4.5-1 .5-1.2 0-.5-1.9-2.4-2.9-3-1-.4-2-.3-2.2.3-.2.6-.8.7-1.3.1-1-1.3-3.6 1-4.2 3.8-.4 1.5 0 2.6 1.5 3.4 1.3.8 1.7 1.2 2 2.2 0 .6.2.5 1.3-1l1.6-2.3c.5-.6 1-.3.8.4l-.9 1.3-.8 1c-.5 1-1.4 2.2-1.7 2.1-.2 0-.4 0-.4.3l-.4 1.1c-.4.7-.4.8 0 1.5.2.3.4 1 .4 1.3 0 .8.5.9 2.1.4zm28.4-.5c.5-.6.8-2.9.4-3.6-.2-.4-.5-.5-2-.5h-1.6v.8c-.1.6 0 1 .4 1.1l1.2 1.5.9 1.2.7-.5zm-17.5-1.9c.7-.2.7-.3.6-2.6 0-2-.2-2.6-.8-2.7l-.2 1c0 .5-.2 1.3-.5 1.7-1 1.3-1 2.9-.2 2.9a4 4 0 0 0 1.1-.3zm-14.2-4.4c-.4-.5-1.1-.4-.9.1a26.4 26.4 0 0 1 1 2.5l.2-1c0-.6 0-1.3-.3-1.6zm-13.3-3c1-.7 2-1.3 2.4-1.3 1 0 2.4 1 2.6 1.7.1.4.3.7.4.6.3 0 2.1-2.3 2.1-2.6l1-.7c.8-.5.9-.7.9-1.6 0-1.3-1.8-3.3-3.4-3.7a3 3 0 0 1-1.6-1.1c-.7-.9-2.7-2-4.5-2.4-1.8-.4-2.2-.3-3.3.4-.7.5-1.3.7-2.3.7-1 0-1.3.1-2 .7-.8.9-.8 1.1 0 3 .6 1.7 2 3.3 3.5 4.2 1 .5 1.3.9 1.6 1.7.3 1.1.6 1.7.8 1.7l1.8-1.3zm0-2.5-.1-1c0-1-.5-2.4-1.3-3.6-.6-1-.7-1.5-.4-1.7.5-.3 1.4.6 1.9 1.8.8 2 .8 5.3 0 4.5zm7.2-1.2c-.5-.6-1-.8-2-1-1.3-.1-1.4-.2-2-1.3-.3-.6-.4-1.2-.4-1.3.3-.3 1 .2 1.2.7.1.3.5.6 1 .7 2.1.4 3.7 1.7 3.4 2.7-.2.4-.4.4-1.2-.5zm18.5 3.5a9.7 9.7 0 0 0-3.2-5c-1.9-1.8-2.5-1.4-.8.5.8 1 1 1.2.8 2 0 .5 0 1.3.3 1.8l.4 1.6c0 .6 0 .6 1.4.6h1.4zm5.1-2.6s0-.3-.3-.6c-.3-.2-.6-.9-.9-1.4-.2-.6-.5-1-.8-1-.6 0-2.3 2.3-2 2.5.2.1.3.3.2.5 0 .2.4.3 1.8.2l2-.2zm-17.8-3.3c.7-.4 1.6-.8 2-.8l2-.3c.8-.2 1.2-.2 1.8 0 .3.2.6.2.6 0l-1.9-.7c-2.5-.8-5.7-2-6.3-2.6-.5-.4-.5-.8 0-2.9 0-.3.4-.7.8-.9 1-.4 1.2-.6.8-1.3-.5-.8-1-.7-2.5.6-.8.7-1.7 1.3-2.1 1.4-1.9.4-3.5 2.8-2.8 4 .2.4.9.9 1.5 1.2 1.2.6 3.3 2.4 3.3 2.9l.3 1 .2.7.5-.8c.3-.4 1.1-1 1.8-1.5zm-10-7.1c2-1.5 2.5-2.2 2.1-3.7-.1-.7-.1-1.3 0-1.6l.6-1c.1-.4.3-1.2.3-2 0-1.6-.5-2.7-1.5-3a1 1 0 0 1-.7-.7c0-.4-.3-.6-.7-.7-.4 0-1-.3-1.3-.6-1.2-.9-3.3-.4-3.2.8.1 1-.5 1-.8.2-.3-.7-.8-.7-.8 0 0 .3.2.9.5 1.4.3.4.6 1.3.7 1.8.2 1.5.5 1.9 1.5 2.3 1.5.7 2.7 2 3.2 3.4.5 1.5.4 2.1-.5 3.2-.6.8-1.1.2-.7-.8.4-1 0-2.3-1-3.5-.7-1-1-1-2.3-.2-1 .6-1.7 2.4-1.7 3.9 0 1 .3 1.3 2.2 1.4 1 0 1.9.2 2 .3.3.3.8.1 2.2-.9zm4.4-2.9c.3-.6.7-1.5 1-1.8.3-.4.4-.9.3-1.6-.2-.7 0-1 .4-1 .7-.2.7-.2 0-1.3-.5-1.1-.4-3.2.3-4 .3-.4.7-.4 2.6-.3 2 0 2.2 0 2.4-.4.4-.6 1.6-1.3 2.4-1.3.3 0 .9.3 1.3.6l1.8.9c1.3.4 2 1.4 2.1 3 0 .6.3 1.4.5 1.6.2.3.4.8.4 1.1 0 .6.1.7 1.4.9.8 0 1.5 0 1.7-.2.5-.4.4-2.5-.2-3.3-.6-.9-1-4.2-.5-4.8.3-.4-1-3.2-1.6-3.4l-1.8-.8-1.4-.6-1.1.7-1.5 1.2c-.2.3-.4.3-.8 0-1-.5-1.4-.4-1.4.5v.8l-.7-.4a4 4 0 0 0-1.6-.4c-.8 0-3.3 1.1-4 1.8-.5.3-.7.3-2 0-1.5-.5-1.7-.4-3.4.5-.7.4-1 1.1-.4 1.1.4 0 2.6 2.3 3 3.2.2.4.4 1.2.4 1.7s.2 1 .4 1.2c.4.4 0 2-.7 2.8-.3.4-.5 1-.5 2 0 1.7.6 1.8 1.2 0zm39.8-3.5c0-.3-.2-.6-.4-.6-.3.1-.5.8-.2 1.4.2.6.7 0 .6-.8zM10 117c.9-1.4 1.5-2.8 1.4-3l-1.7.1c-1.5.2-1.8.3-2.9 1.4-1.3 1.3-1.2 1.6.5 2.1 1.5.5 2.2.3 2.7-.6zm58.7-.5c0-.2-.1-.4-.3-.5-.1-.1-.2 0-.2.3s0 .6.2.6.3-.2.3-.4zm-49-5.6 2.2-.4c.6 0 1.4-.3 2.2-.8 1.1-.7 1.2-.8 1.2-2 0-.7-.1-1.2-.4-1.3-.2 0-.7-.8-1.2-1.7-.6-1-1-1.6-1.3-1.6-.4 0-.5.2-.5.8 0 .6-.2 1-.7 1.2-.7.5-.7.5-1.4-.2-1.3-1.2-1.6-.9-1.6 1.7 0 1.4-.1 1.6-1 2.2l-.9.7.7 1c.9 1 1 1 2.6.4zm-1.1-2.4c-.1-.2 0-.3.1-.3.4.1.6.7.3.7-.1 0-.3-.1-.4-.4zm-2.8.6c0-.2.3-.5.6-.8 1-.6 1.3-1.3 1-2.2-.3-.8 0-1.6 1-3.5l-.5-.8c-.7-.6-2.8-.7-3.5-.2a5 5 0 0 0-.9 1.8c-.2.8-.7 1.8-1 2.1-.5.5-.7 1-.7 1.9 0 .6-.1 1.3-.3 1.5-.2.2.1.3 1.2.3l1.7.1c.3.3 1.4.2 1.4-.2zm11.3-1c.6-.9.1-4.4-.7-6-.2-.3-.3-1-.3-1.6 0-1.5-1.1-3.9-2-4-.3-.2-.8-.5-1-.8-.4-.8-.7-1-1.7-1-.9 0-2.7.7-2.7 1 0 .2-.4.4-1 .5-.4.2-1 .6-1 .8-.2.7.8 2 1.7 2.4 1.8.7 2.5 1 3.2 2 .4.4.7.6.8.5.2-.2 0-.8-.6-1.7a6 6 0 0 1-1-1.9c0-.7.7-.6 1 .1l1 1.2c.7.7 1.9 3.1 2.1 4.2l.7 2.2.5 2c0 .8.6 1 1 .2zm-7.9-10.5c0-.2.2-.3.4-.3s.4.1.4.3l-.4.2c-.2 0-.4 0-.4-.2zm13 10.2c1.5-.7 1.6-.9 1.4-1.5 0-.6 0-.8.4-.9.5 0 .6-.2.4-.7-.3-1-.9-1.8-1.3-1.8-.6 0-3 2.9-3.2 3.9-.1.9 0 1.9.4 1.9l1.9-.9zm-24.1 0c1.3-.3 3.1-2.6 4.7-5.7a4 4 0 0 0 .2-2.4c-.2-2-.8-2.8-2.1-2.8-1.2 0-1.3.1-.9 1.1.3.7.2 1-.1 2-.6 1.4-2 3-3 3.3-1 .2-1.2 1-1.3 3l-.1 2 .8-.3 1.8-.3zm28-1.4c.6-.2 1.2-.3 1.7-.2.8.2 1-.4.3-1-.2-.1-.4-.4-.4-.6 0-.1-.4-.7-1-1.3-.8-.9-.9-1-.5-1.4.2-.2.6-.3 1-.3.6.3 1.6 1.9 1.8 3 .1 1 .2 1 1.3.5.4-.2 1-.4 1.4-.4.4 0 .7-.3 1-1.1.4-.6.6-1.4.6-1.7 0-.4.2-1 .4-1.3.3-.3.7-1.3 1-2 1-2.3 1.6-3.2 2.8-4.4 1-1 1.3-1.1 2-1 .5.2.7 0 1-.5 0-.3.6-.8 1-1 1.2-.6 1.3-.6 1.3-.1 0 .2.4.3 1.3.3 1 0 1.5.2 2.3.7 1.3.9 2.1 1 2.4.2 0-.3.2-.5.4-.5l.2-.4c0-.4-.1-.4-1-.3-1.3.3-2.2-.4-2-1.5 0-.7-.1-.8-.9-1-1.2-.3-1.5-.6-.8-1.2.7-.7.6-1.2-.3-1.4-.5 0-1-.3-1-.6s-.2-.5-.4-.5c-.6 0-2.3 1.1-2.8 1.8-.3.5-.8.9-1.1 1-.3 0-.6.5-.7 1-.2 1-.6.9-1.3-.2-.6-1-1.4-1.2-1.6-.4-.2.5-.7.7-1 .2-.3-.5-1.7-.2-2.4.4-.8.8-.6 1.3.6 1.6.4 0 1.2.7 1.7 1.4 1 1.2 1.1 1.8.6 3.5-.1.3-1.2.4-1.2 0l-1-.5c-.6-.3-1-.3-1.6 0-1 .4-1 .6-.4 1.4.2.3.4 1 .4 1.7.1 1 .1 1-1 1.2l-2 .2c-.4 0-.8.2-1 .4-.2.2-.7.4-1.1.4-.5 0-1.1.2-1.5.6-.7.6-.8 1.8-.2 1.6.7-.3 1 1 .8 2.6-.4 1.7-.3 1.8 1 1.1zm-6-4.7c0-.3-.4-.2-.5.1 0 .2 0 .3.2.2.2 0 .3-.2.3-.3zm2.7-1.7 1-1.1c0-.1.4-.5.9-.8.5-.3 1-.7 1-.9l1.6-2c1-1 2-2.2 2.4-2.9.4-.6.8-1 1-1 .1 0 .2-.4 0-1 0-.8 0-1 1.1-2 .7-.7 1.2-1.5 1.2-1.8 0-.6.9-1.4 2.6-2.3 1-.5 1.7-1.2 2-1.8 1.5-2.2.3-2.4-2-.2-1 .9-1 .9-1.6.5-.9-.6-1.3-.6-1.8 0-.2.2-.7.3-1.2.3-.4 0-1.1.1-1.5.3-.3.3-.9.4-1.2.3-.3 0-.9 0-1.2.3-.5.4-.7.7-.7 1.5 0 .6.2 1.1.4 1.3.2.2.4.7.4 1.1 0 .6-.2.9-.8 1.2-.7.3-.7.4-.7 2s0 1.7-.7 1.8c-.4 0-1 .4-1.5.8-.9.8-.9 1.5-.1 2.4.5.6.5.7-.6.7-1.3 0-2.7.8-2.9 1.6-.1.4 0 1 .3 1.7.6 1.3 1.4 1.3 2.6 0zm-16.1-.9c0-.6-1.1-.6-1.3 0v.7c.3.2 1.3-.3 1.3-.7zm22.3-.6c1-.2 1.1-.3 1.1-.8 0-.3-.2-.7-.4-.8-.9-.3-.1-2 1-2.5 1-.3 2.5-.3 2.7 0 .4.6 1 .3 1-.5 0-.7-1-1.8-2-2.4-1-.4-1.3-.3-1.7.5-.2.5-1 1.6-1.8 2.5-2 2.3-2.7 4.6-1.5 4.3l1.6-.3zm-14.8 52.8c-.4-.8-.1-1.3.7-1.3.7 0 .8.2.5 1.2-.2.8-.8.8-1.2 0zm66.6.2c-.2-.1-.5-.2-.7 0-.1 0-.5-.3-.7-.7-.4-.8-.6-.8-1.6-.8-1.2 0-2 .8-.9.8.3 0 .6 0 .6.2 0 .4-.8.6-1.3.3-.2-.1-1.8-.2-3.4 0-2.8 0-3 0-3-.4.1-.4 1.7-1.2 6.2-3 2-.8 2.8-1.9 3.6-4.8.7-2.4.5-3.1-.6-3.2-.7-.1-.9-.3-1-.8 0-.3-.3-.8-.5-1.1-.7-.8-.7-1 .3-1.7s1.5-.8 2-.4c.3.3 1.8 0 2.5-.7.2-.2 1-.3 1.6-.3 1.1 0 1.3 0 1.7.8.4.8.4.8 1.6.6 1.1-.2 2.7.2 2.7.7 0 .3-.6.3-1.4 0-.6-.3-.8-.2-1.7.2-1 .7-1.6.6-1.7-.3 0-1.3-.6-1.5-2.6-.7-.7.2-.7.3-.5 1.5.2.8.2 1.3 0 1.5-.1.1-.2.6-.1 1 .2.8-.3 1-.7.3-.1-.3-.3 0-.4 1.4v2l.7-.4c.5-.5.5-.5.6 0 .2.6.4.6 1.4.6 1 0 1.8.3 3.6 1.2 1.3.7 2.5 1.2 2.7 1.2l1.3-1.3c.5-.8 1.4-1.6 1.9-1.9.5-.3.9-.6.9-.8l.4-.2c.6 0 .8-.6 1-3.5a9 9 0 0 1 1.2-5c.6-1.2 1.6-2.8 2.2-3.4l2-2.7c.8-1.5.9-1.7.9-4 0-2.4 0-2.5-.7-2.8l-1.2-.3a1 1 0 0 1-.7-.4c-.2-.3-.4-.4-.7-.2-.6.2-.5.7.2 3.2.4 1 .6 1.3.8 1 .2-.1.5-.7.7-1.3.3-1.3.9-1.3.7 0-.2 1.4-.7 2.5-1 2.5l-.8.4c-.7.6-1 .2-1.7-1.6-.5-1.5-1-1.5-2.2-.4-1 .8-2 1-2.3.4 0-.3.2-.7.7-1 1.2-.9 3.7-3.4 3.7-3.7 0-.1.2-.3.6-.4.4 0 .8-.3.9-.5.4-.4-.1-1.4-1-1.8-.7-.4-.8-.4-1.7.2-1 .7-1.2 1.1-1.2 2.1 0 .8-2 3.4-3.3 4.1-.5.3-1 .9-1.2 1.2-.4.9-.8.8-1.4-.3-.4-.7-.4-.8 0-2.2a14 14 0 0 1 3.1-4.9c1-1 1-1-1 1.8l-.9 1.7 2.3-2c2.6-2.6 3.3-3 5.1-2.5l1.6.6c.4.4.7 2.2.4 2.7-.2.4 0 .5.9.6 1.3.1 1.6-.2 2.7-2.4l.8-1.3c.1 0-.2 1.2-.7 2.6-.4 1.3-.7 2.7-.6 3l-.1 2.6a9 9 0 0 1-2.1 5l-.6.8c0 .2-.3.7-.7 1.1-1.3 1.6-2 2.8-2 3.5 0 .3-.1 1-.4 1.4-.5 1-.7 3.2-.4 3.7.3.4.9.1.9-.4 0-.2.2-1 .5-1.5l.5-1.5.6-1.2c1-1.3 2.3-4 2.2-4.6-.3-.8.8-2.8 2.1-4 1.1-1 1.2-1.2.8-1.5-.2-.2-.4-.4-.4-.6 0-.5.6-.5 1.1-.1.7.6.9.2.6-1a8 8 0 0 1 .3-4.4c.4-1.3 1-4 .9-5 0-.4.3-1.7.7-2.7.7-2 .8-4 .2-4.2-.2-.1-.4 0-.4.4 0 .3-.1.6-.4.6-.2 0-.3-.2-.3-.3 0-.2-.3-.3-.6-.3s-.5.1-.5.3c0 .1-.2.3-.4.3-.4 0-.8-.9-.4-1.1.4-.3-.2-1.7-1-2-.6-.4-.9-1.2-.3-1.2.1 0 .7.4 1.3 1 .8.7 1.2.9 2 .9 1.7 0 2 .4 2 2.4 0 1-.3 2.1-.6 2.8a17 17 0 0 0-.5 1.3c0 .2 1.8.6 2.5.6s1-.2 1.4-.7c.3-.5.3-.7.1-.8l-.3-.6c0-.7.6-.6 1 .2.1.4.4.6 1 .6.3 0 1 .2 1.5.5.8.5.9.6.2.5-.3 0-.8 0-1-.2-.2-.1-1 .1-2 .7-1 .5-2.2 1-2.8 1-.6.1-1.2.3-1.3.5-.2.3-1 3-.8 3.2.3.2 2.6 1 3 1 .3 0 .8.1 1.1.3.3.2 1.1.5 1.8.6.8 0 1.8.3 2.3.4.7.2 1.2.2 1.6 0 .4-.3.5-.2.5.1 0 .4-.4.4-3.9.3-3.8-.2-4-.1-4.8.4l-1.7 1.1c-.7.4-.7.6-.6 1.6l.4 1.3h1.2c1.4-.4 6.7-.6 6.9-.3.2.3-1 .6-2.5.6-.7 0-1.4 0-1.5.2l-1.1.2c-1.2 0-3.3 1-3.5 1.6 0 .5.8.9 3.4 1.3a33 33 0 0 0 12.6-1c.5-.4.5-1 0-1.3-.3-.3-.3-.5 0-1l.5-1.2c0-.3.3-.5.6-.5.4 0 .4 0 .1.3l-.3.9c0 .3-.1.7-.3.8-.1.2-.1.4.2.6.2.2.4.6.4.9 0 .5.3.6 2 .5.7 0 1 0 .8.3 0 .2-.6.3-1.8.4-2.6 0-4 .2-4.8.6l-1.8.3c-1.7 0-1.9.1-1.1 1.4 1 1.8 1.8 2.5 2.8 2.5.5 0 1 .2 1.3.4.4.3.2.3-1.2.2h-3.2c-1 0-1.5-.1-1.3-.3 0-.2.6-.3 1.2-.3.5 0 1 0 1-.2s-.2-.3-.4-.3-.4-.2-.4-.5c0-.6-1.4-1.6-2.2-1.6l-3.2-.8c-2.4-.7-2.9-.7-4.5-.5-1.5.2-2 .3-2.5 1a27 27 0 0 0-3.9 6c-.1.8-.1.8.9 1 1.9.3 3.5.8 3.5 1.2 0 .2-.2.3-.7.2a25 25 0 0 0-2.6-.4l-2-.1-.2 1.3-.2 1.4c.3.5 8.7 0 9.2-.5.2-.2-.1-.4-.8-.8-1.1-.6-1.8-1.3-1.6-1.5.3-.2 3.4.9 4 1.4.5.5 3 .5 5.5 0l3.6-.6c.8-.1 1.8-.4 2.1-.6.4-.2.8-.3 1-.2.8.3.4.7-.8.8l-3.5.7-4.4 1c-2.1.3-2.6.5-2 .7a575.2 575.2 0 0 1 4 1c.4 0 .8 0 .8.2 0 .4-2.3.3-3.2-.1-.4-.2-1.4-.7-2.4-1l-1.6-.5-3.5.8c-6.4 1.6-6.5 1.6-6.7 2.3-.1.4-.2 1.3-.1 2 0 1.8.5 2 3.4 2.2 1.3 0 2.3.2 2.4.4.1.3-.3.4-2.4.7a6 6 0 0 0-2.3.7c-.3.3-1 .4-1.7.4h-1.3l.2-1c.4-1.9 0-7.3-.4-6.7l-.5 3c-.4 3-.8 4.6-1.4 4.6-.6 0-.6-1.2.2-3.9l.6-2.8c-.3-.2-2 .5-2.5 1-.3.4-.7 1-.8 1.5 0 .4-.3 1-.5 1.2-.2.2-.5.8-.6 1.4-.3 1.4-.8 1.4-1.5 0-.5-1.1-1.3-1.7-2.2-1.7-.3 0-1-.4-1.6-.8a6.5 6.5 0 0 0-4.3-1c-.7 0-1 .3-1.5 1.1l-.6 1.3 1.4 1c1.8 1 2.6 1.9 2.5 2.7 0 .7-1 .9-1.9.4zm-.6-12.9c-.2-.7-1-1.6-1.5-1.6-1.1 0 .3 2 1.5 2v-.4zm27-25.1c.1-.2 0-.4 0-.4-.2-.1-.4 0-.4.2 0 .5.2.5.4.2zM74 151.3c-.2-.3.2-1.4.7-1.9.3-.2.8-1 1.1-1.6l.9-1.3c.1 0 .7-.4 1.2-1l1.7-1.2c.4-.2 1.2-.9 1.7-1.5.6-.6 1.1-1 1.3-1 .8 0-.5 1.7-2.1 2.8-1 .7-.9 1.3.1.8 1.8-1 3.8-.8 3.8.3 0 .6-.8.8-1.2.3-.5-.5-2.6 0-4.1 1l-1.7.8c-.2 0-.6.7-1 1.5-.7 1.8-2 2.8-2.4 2zm-46.6-.4c-.1-.2 0-.6.1-.9.3-.6.4-2.7 0-2.7 0 0-.3.2-.4.5-.1.4-.2.4-.6-.2-.3-.4-1-.8-1.7-1-2-.9-1.4-1.7.8-1a4 4 0 0 0 1.3.3c.3-.3-.2-1-1-1.3-.8-.3-1-.7-.4-.7.2 0 .8.1 1.3.4 1 .4 1.5 1.4 1.9 3.3 0 .6.3 1 .4 1 .1 0 .5-.7.8-1.6.5-1.7 1-2.2 1.2-1.4.3.6-1 3.2-1.9 3.5-.3.2-.7.6-.8 1.2-.3.9-.8 1.2-1 .6zm72.1 0c.1-.6.5-.7 1-.4.5.3.2.8-.5.8-.4 0-.5-.2-.5-.5zm-29-.6c-.1-.4.5-.8 1-.5.3.2 0 1-.5 1-.1 0-.4-.2-.5-.5zm2.4-1.8c.1-.7 0-1.2-.5-2.2-.8-1.6-.8-1.8-.2-2 .6-.2 2 .7 2.5 1.5.2.5-.3 2.4-1 3-.7 1-1 .8-.8-.3zm6.3.3c0-.1.2-.3.4-.3s.4.2.5.3c0 .2-.1.4-.5.4-.3 0-.5-.2-.4-.4zm48-1c-.1 0-.2-.4-.1-.6.1-.3.6-.4 1.8-.5a48.9 48.9 0 0 0 3.5-.1c.9 0 .9-.4 0-1.5-1-1-.3-1.3.8-.2 1.4 1.3 2 1.6 3 1.4.7 0 1.4.3 1 .6l-4 .3c-2 0-3.8.2-3.9.3-.5.3-1.7.5-2 .3zm14.4-1c-.7 0-1.4-.1-1.4-.3 0-.3 3.3-.5 3.7-.2.4.4.1.8-.4.7l-1.9-.1zm8.1-2.4-.8-1.1.4-2.8c.6-3.1.5-4.9 0-5-.3-.1-.4 0-.3 1 .2 1.2 0 1.7-.5 1 0-.2-.2 0-.4.3-.3.6-.3.9.2 4.6.2.7.1 1-.2 1-.2 0-.5-.2-.5-.4-.1-.2-.3-.2-.9.2-.9.6-1.2.4-1.2-.8a6 6 0 0 0-.5-2l-.7-2.4c0-1-.4-1.6-1.2-2.6-2-2.3-2.3-2.8-2.9-4.6-.6-1.9-.6-4.4 0-6.4.7-2.1.7-2.6-.2-3.6-.6-.8-.8-1.4-.8-2 0-1.4.3-2 2-4.6a23 23 0 0 0 2-3.7l.5-1.6-.8-1.8c-1-2-1-4-.4-5.4.5-1 .5-1-.4-2.8l-.2-6c0-5-.3-6.7-.7-6.2 0 .1-.3 2.5-.4 5.4a43 43 0 0 1-.6 5.8c-.3.6 0 2 .5 2.6.3.4.2.7-.6 2.2-1.2 2-2.7 3.4-4 3.4-.5 0-1 0-1.1-.2-.2-.1-.3-1-.3-1.8v-7.3l.1-4.5c.4-4.5.3-7-.2-11.4s-.8-5.5-1.5-5.7c-.5-.1-.5-.4-.5-3.3v-3.2l-.7-.6-1.6-1.4c-.8-.7-1-1-1-2.1 0-.7.3-1.8.6-2.4.6-1.4 1-3.8.5-3.8-.3 0-.2-1.6.3-5.4.4-3 .6-3 .4 0-.1 2.4.1 3.2.5 1.5 0-.5.6-1.1 1.3-1.7 2-1.5 3.4-3.1 3.2-3.6l-.1-.6a5 5 0 0 0-.8-1.2c-.9-1-1-1.5-.4-2 .6-.6 1-1.7 1-2.8 0-.6.1-1.2.3-1.5.2-.3.4-.8.4-1.2 0-1 .7-1.8 1.9-2.1.8-.3 1-.5 1.4-1.4l.6-2.5c.3-2.5.7-5.1.9-5.1l3.4-.1c2.5 0 3.7-.2 4.7-.6 1.4-.5 2.9-.4 2.7.2-.2.5-1.7.7-5.8.9-2 0-3.8.2-3.9.2-.2.2 1.2 3 1.7 3.4l1.6 3.1c1.8 3.7 1.8 3.7 4.3 3.5 4.4-.5 5-.6 5.2-.9.3-.4-1-4-2-5.4-.8-1.3-1-2.2-.5-2.2.3 0 2 3 2.2 4l.5 1c.2 0 .2-.2 0-.7-.3-1.5-.4-2.5-.1-2.5.2 0 .5 1 .5 1.8l.4 1.3c.6 1 .5 1.3 0 1-.5 0-.6 0-.4.4 0 .5.2.5.4.3.3-.2.4 0 .6.5.2 1 .6.8.6-.2 0-1.3.3-2.4.7-2.4.2 0 .5-.3.7-.6.2-.4.5-.5 1.4-.4 1.3 0 1.5-.6.2-1-.4 0-1-.4-1.2-.8-.5-.7-.5-.7 0-.4l.7.5c.3.5 2.2.9 4.3 1l2.2.2c.3.4-.5.6-2.2.6-2 0-2.2 0-1.7.6.4.4-.3.4-1.5 0-1-.4-2.5.1-2 .7.4.5 1.8 1.1 2.7 1.2.5 0 .6.3.5.6a153.7 153.7 0 0 0-.4 1.7l-.1.7c0 .2-.2.4-.4.4-.3-.2-.4-.8-.1-2.2 0-.8 0-.8-.8-.9a3 3 0 0 1-1.5-.8c-.8-.7-.7-.9-1.3 2.4a24 24 0 0 0-.1 8c.3 2.3.4 4.4.2 4.4-.5 0-.9-.9-.7-1.6.2-1.2-.1-3.2-.5-3-.6.2-.6-.2-.2-2.2.5-2.8.4-5.4-.2-5-.2 0-.3.5-.3.9l-.1 1.6c-.2.6-.3.8-.6.5-.3-.2-.3.1-.4 2.3v3.6c.1 1.2-.3 1.5-1.1.8-1.3-1-1.6-.6-.5.9.8 1.2.6 1.5-.3.5-.8-1-1.6-2.5-1.4-2.7l.9.1c.5.3.6.3.6 0 0-1-.6-3.2-1-3.5-.2-.3-.4-.9-.5-2.5-.1-.8-.5-1.1-1.1-.8-.5.3-.6.5-.5 3.8v4.6c-.2 1.7-.5-2.3-.5-5.5 0-1.6-.2-3-.3-3-.5-.3-.6.6-.4 3.4.1 1.5.2 3.3 0 4.1v1.5l-.1-1.7c-.2-3-.7-6.7-1-6.9-.3 0-.4.4-.3 1.7l.3 5.9c.1 2.6.3 4.3.5 4.7 1.3 2.7 1.6 3.9 1.5 6.8 0 1.6 0 2.8.2 2.8l.7-.5c.3-.3.7-.4 1.3-.4 1.1.1 1.1.8 0 .8-1.4.1-2.6 1.7-1.5 2.1.3.1.3.2 0 .6-.3.4-.1 4.5.3 5.4.2.2.3 1.1.3 2 0 1-.1 1.5-.8 2.5-.7 1-1 1-1.6 1l-.9-.1v2l.2 6a43 43 0 0 1-.2 6.7l2.3-.4c1.2-.2 2.2-.4 2.3-.3.2.2-2.4 1.2-3.6 1.3l-1.5.2c-.1 0 0 6.3.3 6.7l2 .1h1.8l.8-1.7c.6-1 1-1.7 1.3-1.7.7 0 1.7 1.7 1.6 3a452 452 0 0 1 0 4.4c0 .9-.2 1.8-.8 3.1l-.8 2.5c0 .6.6 2 1.8 4a16 16 0 0 1 1.4 5.5c0 1.3.5 3 1 3l.6-1.2c.3-.8.6-1.2 1-1.2.8-.1 1.9.9 1.9 1.7 0 .6-.1.7-.8.5-1-.2-1.4.5-1.7 2.1-.2 1-.1 1.1.8 2 .8.7 1.1 1.2 1.3 2 .2 1.6-.4 2.6-2.3 3.8-1.6 1-1.7 1.1-2 4.3-.3 2.3-.4 2.5-1 2.2-.4-.1-.4-.4-.3-1.3.4-2.2-1-1.2-2.3 1.8-1.2 2.6-1.4 3.9-.5 3.9.6 0 4-.8 4.7-1.1 1.5-.7 3.2-.8 4-.2.4.1.3.2-.1.2s-.6.1-.5.3c.1.1.4.2.8 0 .4 0 .5 0 .2.2-.2.3-1 .4-2.7.3-2 0-2.4 0-2.4.4 0 .2-.2.4-.6.4-.5 0-.5 0-.2-.3.6-.4-.6-.3-2.2.1-1.2.3-1.4.5-1.3 1 0 .3.3.9.6 1.2l.6.6-.7.3c-1.2.4-1.7.3-2.6-.8zm-2.4-6.7c0-1-.8-1.5-1.3-1-.2.2-.2.5.2 1.1l.4 1.4c0 .5 0 .5.3-.1.2-.4.4-1 .4-1.4zm4.4-.8c.3-1.2-.3-.8-.7.5-.6 1.8-.6 2.7 0 1.3l.7-1.8zm-3.6-.9-.3-.3v.6c0 .3.2.4.3.3v-.6zm4-1 .8-.6.7-.5c1.1-.6 1.5-1.5 1.3-3-.1-1-.3-1.6-.4-1.6-.2 0-.7.5-1.8 2-.6.6-1.1 1-2 1-1.8.4-1.8.4-2 .8-.3.5 0 .9 1 1.4l.8.7c0 .4.8.2 1.6-.2zm-5.6 0c.2-.2.5-.8.5-1.4.2-1 .1-1.1-.5-1.1-.3 0-1-.3-1.3-.8-.7-.7-2.7-1.5-3-1.2l.1 1.3c.4 1.3 1.8 2.8 2.6 2.8.3 0 .7.1.8.3.2.3.4.3.8 0zm2-3.8a9.8 9.8 0 0 1-.3-4.9c.1-.7.4-1.2.5-1.2.4 0 .5.3.2 1.3-.1.7 0 1.1.2 1.5.2.3.4 1 .4 1.7 0 .5.1 1 .3 1.2.1 0 .2.3 0 .4 0 .1 0 .2.2.2s.3 0 .3-.2.2-.3.4-.3c.7 0 2.7-2.2 3.3-3.6.6-1.2.4-2.8-.3-3.3-.5-.4-.8-1.4-.8-3.4 0-.8-.2-1.6-.4-1.9-.4-.5-.6-4.1-.2-4.5.2-.2.3-.6.2-1-.1-.6 0-.8.2-.8.3 0 .5.4.6 1.5l.4 2.5c.4 1.4.8 3.5.8 4.4 0 .5.2 1 .4 1.3.2.2.4.5.4.8 0 .2.4.5.8.7.4.3.8.3.8.2l-.3-.4c-.2 0-.4-.8-.5-1.8a33.5 33.5 0 0 0-1.8-8.2c0-.2-.4-.8-.8-1.3-.6-.8-1-1.6-2.2-4-.2-.5-2.4-1.5-3.4-1.5-.7 0-1 .2-1.9 1-.5.6-1 1.3-1 1.6a8 8 0 0 1-1 2.2c-1 1.8-1.1 3.2-.5 4.2.2.4.2.7 0 1.7-.7 2.2-1 4.5-1 4.8.1.2-.1 1-.4 1.9-.7 1.9-.7 2.8.2 2.9.4 0 .6 0 .6-.4 0-.3.1-.4.8-.2 1.2.2 1.2.3.6.8-.5.3-.5.4.3 1.8a6 6 0 0 0 1.7 2.2c1 .7 2.3.7 2.2 0zm0-16.7c0-1.6 0-2.1.2-1.8.3.5.3 3.6 0 3.8-.2 0-.3-.6-.3-2zm-1.3-.1c.3-2.3.5-2.9.7-2.6.2.1.2.5 0 1a5 5 0 0 0-.3 1.4c0 .4-.1.9-.3 1.1-.2.3-.2 0 0-1zm-5.1 3.3.2-1.6c0-.5-.2-.2-.8 1l-.7 2.2v.6l.5-.6c.3-.3.6-1 .8-1.6zm10.4-11.1c.8-.3 1.4-2.4 1.1-4-.2-1.2-.2-2.5 0-3.9.2-1.6-.2-1.6-1.2 0-1 1.5-1.3 1.7-2.5 1.3-.8-.2-2.1 0-3.7.3-.6.2-.7.2-.7-.6 0-1.4-1-3.3-1.5-2.8l-.2 2.3c0 1.4-.2 2.5-.5 3-.6 1-.5 1.8 0 3 .8 1.4 2 1.8 3.2 1 .7-.6 2.7-.5 3.8.1 1 .6 1.3.6 2.2.3zm-15.2-6.2c0-.2-.2-.4-.4-.4-.4 0-.6 1.3-.2 1.6.2.3.6-.5.6-1.2zm.8-2.7c0-.3.3-.8.6-1.2.2-.4.5-1 .5-1.4 0-.6 0-.7-.6-.4-.9.6-1.8 3.9-1 3.6.2 0 .4-.3.5-.6zm-.3-3.2.6-.9.6-1.5.2-.7-.7.7c-.7.9-1 1.5-1.4 2.8-.1.6-.1.7.3.2l.4-.6zm.2-3.1 1.2-2.2h-.7c-.4 0-.7-.2-.7-.5 0-.7-.7 0-1.2 1.1-.5 1.2-.5 1.6 0 1.2.6-.5.6.2 0 .9-.2.3-.3 1-.3 1.4 0 1.1 0 1.2 1.7-2zm-.7-1.5.3-.4c.1 0 .2 0 0 .3 0 .4-.3.5-.3.1zm.2-3c.2-.2.4-.8.6-1.4l.6-1.3.2-.6c0-.2.2-.5.5-.7.4-.4.4-.4 0-.4-.3 0-.7.3-1 .7-.5.7-.5.7-.5.1 0-.4-.2-.6-.5-.5-.5.1-1 1.6-.7 2.3l.1 1.3c0 .9.3 1.1.7.5zm-.2-2.4c0-.2.1-.4.3-.4.1 0 .2.2 0 .4l-.2.4v-.4zm6.9 1.3c0-.5-.1-1-.3-1-.1-.2-.2.2-.2.9 0 .5 0 1 .2 1s.3-.4.3-.9zm-5.8-3.8c0-.2-.1-.3-.3-.4-.1-.1-.3 0-.3.2s.2.4.3.4c.2 0 .3 0 .3-.2zm-1-1c0-.2-.2-.3-.3-.2-.2 0-.3.3-.3.5s.1.4.3.3l.2-.6zm5-7.5c0-1.1-.4-1.6-.7-.8-.1.6.1 1.9.4 1.9l.2-1zM139 73c-.1-.5-.3-.8-.4-.8-.3 0-.6 1.2-.4 1.7.3.7.9 0 .8-1zm2 .7c.2-.3.2-.6 0-1.1l-.3-.8-.4.8c-.7 1 0 2 .7 1zm-3.5-1.3c-.2-.5-.6-.2-.7.5 0 .7 0 .7.4.2.2-.3.4-.6.3-.7zm6.7 0a2 2 0 0 0-.4-.9c-.4-.5-.4-.4-.4.5 0 .7 0 1 .4.8.2 0 .4-.3.4-.5zm-3-3c.4-.2.5-1.5.2-1.5-.2 0-.4.4-.7.8-.2.5-.6.8-.8.8-.4 0-.4 1-.2 2.5 0 .2.3-.3.6-1 .4-.8.8-1.5 1-1.6zm-6.3 2.2v-.2l-.4.2c0 .2 0 .3.2.3.1 0 .2-.1.2-.3zm2.4-1.8c0-.7 0-.8-.2-.5a3 3 0 0 0-.3 1.3c0 .7 0 .8.3.5l.2-1.3zm1.5 1.3c.2-.3-.2-2.4-.5-2.4 0 0-.2.6-.2 1.4 0 1.2.3 1.6.7 1zm-2.9-1.6c0-.2-.1-.2-.1.1v.4c.2-.1.2-.3.1-.5zm6.9-1c.1-.5 0-1-.3-.8-.3.3-.5 1.6-.2 1.6.2 0 .4-.3.5-.7zm1.1.1c0-.2 0-.4-.2-.4s-.3.2-.3.4.1.4.3.4l.2-.4zm-6.8-.7c.1-.3 0-.5-.2-.5s-.4.2-.4.5.1.6.3.6c0 0 .3-.3.3-.6zm3.5 0c.2-.6 0-1.2-.4-.7-.3.5-.3 1.3 0 1.3l.4-.6zm-2.2-.8c-.4-.4-.6-.1-.4.6.2.5.2.5.4.1.2-.3.2-.5 0-.7zm4.2-.7c.4-1.5.3-1.9-.3-1-.5.9-.7 2-.2 2l.5-1zm-8.8-.2c-.3-.3-.5.1-.3.6s.2.5.3 0v-.6zm-1-.4c-.1-.2-.2-.2-.2.1 0 .3 0 .5.1.4v-.5zm5.3 0-.1-.2s-.2 0-.3.2l.1.3c.2 0 .3-.1.3-.3zm1-.4c0-.7 0-.7-.2-.2v.7c.1.4.3.2.3-.5zm-7-.8c0-.2-.2-.4-.3-.4l-.3.1-.2.6c0 .3 0 .4.3.2.2 0 .4-.3.4-.5zm9.7-1c0-.2-.1-.4-.2-.3-.2.1-.3.4-.3.7 0 .3.1.5.3.4l.2-.7zm-1-.9c0-.3-.1-.6-.3-.6-.3 0-.8 1.3-.6 1.6.2.5.9-.3.9-1zm-2 .4c.6-1.3.7-1.8.4-1.8-.3 0-.8 1.2-.8 1.9s.2.6.5 0zm-6-.9c0-.2 0-.3-.2-.3-.3 0-1.1.8-1.1 1.2 0 .3.1.3.7 0 .3-.3.6-.7.6-.9zm10.6-1.1c0-1.8-.3-3.5-.6-3.5s-.2 2.2.1 2.6c.2.2.2.4 0 .8s-.2 1-.1 1.6c.1.8.2.9.4.4a8 8 0 0 0 .2-2zm-5.8.7c0-.1-.1-.2-.3-.2l-.2.4c0 .2 0 .3.2.2.2 0 .3-.2.3-.4zm3-1c.3-.9.4-1.2.2-1.4-.5-.5-1.1.5-1.1 1.6 0 1.2.4 1 1-.2zm1.3-.3c.1-.7.2-1.7 0-2.3 0-.8 0-1.3.6-2.4.4-.7 1-1.4 1.2-1.5.7-.2.7-1.2 0-1.2-.5 0-2.1 2-2.2 2.7 0 .2-.1.1-.3-.2-.2-.5-.1-.8.5-1.7.4-.6.7-1 .6-1.1-1-.6-1.2-.7-1.5-.4-.3.3-.3 0-.2-.8.2-1.4-.2-1.7-.8-.6-.4.7-.6.8-1.2.7-.5-.1-.9.1-2.1 1.2l-1.6 1.8c0 .2-.2.3-.4.2 0-.1 0-.4.3-.7.5-.6.5-1 0-1s-1.7 1.4-1.7 2.1l-.5 2.6c-.5 2.1-.5 2.4.1 2.2.3-.1.4-.5.4-.9-.1-1.7 0-2.7.4-2.8.2-.1.5 0 .6.1.1.2.4.3.7.2.3-.2.4 0 .4.8 0 1 .4 1.2.8.3 1.2-3 2-4.6 2.2-4.5.1.2 0 .8-.4 1.6-.9 1.6-2 4.5-2 4.8 0 .2 0 .3.2.3.1 0 .3-.2.3-.4s.2-.5.5-.8c.4-.4.5-.4.5 0l-.4.7c-.5.4-.5 1 0 1.2.5.3 1-.8.8-2l.1-1.5c.2 0 .3.2.3.8l.2 1c.3 0 1-1 1.3-1.9 0-.3.4-.9.7-1.2.5-.5.5-.5.3 0-.6 1.7-.9 2.6-.8 2.7.3.3.6-.2 1-1.4l.4-1v1.2c0 .6.2 1.4.4 1.7.2.5.2.7 0 1-.4.3-.4 1.8 0 1.8l.3-1.4zm-2.7-.7-.2-.6c-.4 0-.9 1-.9 1.7v.8l.5-.6c.3-.4.6-1 .6-1.3zm5.4.3v.9-1zm-.2-1.5c-.1-.2-.2-.1-.2.2 0 .3 0 .4.2.3v-.5zM134 57.5c0-.3 0-.4-.2-.3-.2.1-.3.4-.3.6 0 .2.1.3.3.2l.2-.5zm10.4-1.5c.6-1.3.6-2 .2-1.7-.5.3-1.3 2.8-.9 2.8.2 0 .5-.5.7-1.1zm2.6.6c0-.3-.1-.6-.3-.7-.1 0-.2.1-.2.5s.1.7.2.7c.2 0 .3-.2.3-.5zm-.5-5.1c0-1.6 0-3-.3-4.9-.2-1-.3-3-.3-4.4 0-2-.2-2.6-.5-3-.5-.5-.5-.4-.5 1 0 1.8-.3 1.4-1-1.2-1.2-4.2-1.4-4.6-1.7-3-.2.6-.3.7-.8.6-.6-.2-.7 0-.8.6-.1.5 0 1 .6 2 .5.6.9 1.7 1 2.3 0 .8.4 1.4.9 2 .8.8.9 1.3.3 2.4-.6 1.3-.8 3.7-.3 4.4.3.4.6.7.8.7l1.2.7c1.3.8 1.4.8 1.4-.2zm7.4-5.6-.4-1.2c-.5-2.5-1-3.9-1.5-3.6-.4.2-.3 1.3.1 1.7.2.1.5.7.6 1.3 0 .6.4 1.5.7 2 .3.5.5 1.1.5 1.4v.9l.2-.8c0-.7 0-1.4-.2-1.7zm-13-2.3c0-.8-.4-.9-1-.1-.8 1-.7 1.5.2 1 .5-.2.8-.6.8-1zm-2-2c-.2-.3-.9.6-.9 1 0 .2.3 0 .6-.3.2-.3.4-.7.3-.8zm1 .8c.2-.3.2-.6-.2-1.6-.2-.6-.6-1.2-.7-1.2-.4 0-1.5 1.8-1.5 2.2 0 .2.3 0 .6-.5.7-.7.7-.7 1-.3.4.4.4.7.2 1.2-.2.7 0 .8.6.2zm43.6 101.8c-1.2-1.5-2.2-2.2-3-2.2-1.1 0-2 .5-1.9.8.1.2.6.5 1.1.7.9.3 1.2.9.6.9s-3-1.3-3.2-1.7c-.3-.8.3-1.3 1.8-1.9 1.5-.5 2-1 2-1.9 0-.6-.8-1.4-1.5-1.4-.4 0-.8-.3-1.2-.8l-.8-.8-1-.5c-.6-.5-.8-.7-.6-1.3.1-.5 0-.6-.3-.5l-.7.2.2.3c.8.4 0 .6-2.2.6-1.8 0-2.1 0-1.6-.2.3-.2.5-.4.5-.6-.1-.4.5-.6 1.7-.6l2.9-.3c1.6-.3 2-.4 2-.8 0-.6-.6-.9-1.3-.8-.3 0-.7-.2-1-.5-.3-.5-.5-.6-1.4-.4l-1.3-.1c-.1-.3.3-.4 2-.7.6 0 1.3-.4 1.6-.6.5-.4.5-.5.2-1.2-.3-.5-.5-1.1-.5-1.5 0-.5-.2-.9-1-1.4-1.1-.7-1.3-.7-2.3-.4-1.3.3-2.2.1-2.2-.4 0-.4.8-.7 1.8-.7.3 0 1-.2 1.6-.5 1.2-.6 1.1-.5.6-2.7-.2-.6-.3-.6-2.1-.7-2 0-2.5-.4-1.1-.7 1.4-.4 2-1.7.7-1.8-.7 0-1.5-.6-2.1-1.7-.5-1-.2-1.2.5-.4l1.4 1c.7.4.8.4 1.3 0l.8-.4c.3 0 1 2.4 1 3.5a17.8 17.8 0 0 0 2.5 6.2c.3 0 .3-.3-.7-3.7-.4-1.3-.7-3-.8-3.7a9.4 9.4 0 0 0-.7-3.6 8.9 8.9 0 0 1-1.2-4c.2-.4 0-.6-.5-1-.3-.2-.7-.3-.9-.2-.4.2-.3 1.2.1 2 .6 1 .5 1.4-.2.7-.4-.5-.7-1.2-.8-2l-.2-1.4h.8c.7 0 .8 0 .8-.6 0-.4.2-.7.3-.8.3-.2.7.8 1 2.6.4 1.8 1.1 3.6 1.7 4.1.4.4.5 1.1.8 5.2.3 2.7 2 7.2 3.2 7.9 1 .6.9 1-.4.9-1 0-1.2 0-1.2.6 0 .4.2 1.3.6 2.1.4.8 1 2.1 1.2 3l.4 1.6h1.6c1.8-.2 2.2.2 2.2 1.5 0 .5-.1.5-.8.4-.6-.1-.9 0-1.4.7-.4.5-.7 1.4-.8 2.2-.1 1.1 0 1.4.3 1.8.5.4.7.4 1.1.2.7-.4 1.4 0 .9.5-.2.2-.2.7-.2 1.2.2 1-.2 1.4-.7.7zm-3.4-7.7c0-1-.4-1.9-.8-1.9-.3 0-.6.1-.7.3h-1c-.7 0-.8 0-.5.3.2.2.5.4.7.3.2 0 .6.2.9.5.4.7 1.4 1 1.4.5zm3.6-.6c.1-.2-.1-.2-.7-.2-.5 0-1 .3-1 .4 0 .3 0 .3.6.2.4 0 1-.3 1-.4zM175 118c-.3-1.8-1-1.8-.7 0 0 .6.3 1 .5 1 .3 0 .4-.2.2-1zm-80.3 25.3c0-.3-.1-.7-.3-1-.4-.6 0-1.2.6-1 .6.3.8 1 .6 1.9-.2.8-.9 1-.9.1zm-10.4 0c-.7-.3-.9-.6-.4-.9.4-.3 1.6.1 1.6.5 0 .6-.3.7-1.2.4zm69.4 0c.4-.3 1.6-.5 1.6-.2l-.8.2h-.8zm-56.6-.6c-.3-.3-.2-.4 0-.6.8-.2 1.7 0 1.7.5s-1.3.6-1.7.1zm3-.7c-.2-.4.4-.8.9-.6.2 0 .3.3.3.5 0 .5-1 .5-1.2 0zm66.5-1-3-.5-1-.3.8-.3c.9-.3 2.1-.2 4.6.4 1.7.4 2.7 1 1.8 1h-.9c-.3 0-1.3 0-2.3-.2zm-105.2-.3-1.8-2c-1-1-1.3-1.4-.7-1 2.4 1.4 3.7 2.7 3.4 3.3-.2.4-.6.3-.9-.3zm4-.5-.2-1.5c0-.7-.3-1.8-.5-2.4-.6-1.6-.3-1.7.5-.2.8 1.7 1.2 4.3.6 4.3-.3 0-.5 0-.5-.2zm94.9-2h1-1zm2.6-.3h.5l-.3.1c-.3 0-.4 0-.2-.1zm-101.2-1.1c-.7-.6-.9-.9-.8-1.3.2-.4.4-.3 1.3.6.6.5 1 1.1 1 1.2 0 .4-.7.2-1.5-.5zm39 .1c0-.4 1.7-.6 1.7-.2 0 .3-.6.6-1.4.6-.3 0-.5-.2-.4-.4zm33.3-.7.1-.4c.2 0 .3 0 .3.3 0 .4-.2.5-.4.1zm-68-.2.7-1c.6-.8.8-1.2.7-1.7 0-.6 0-.8.4-.8.6 0 .9 1.1.4 1.9-.5.8-2 1.8-2.2 1.6zm97.3-.9c-.2-.3-.6-.5-1-.5-1.6.2-3.3 0-3.3-.3 0-.4 4.5-.2 4.6.2.2.5 1.1.5 2.6-.2s3.7-1.2 3.7-.8c0 .2-.7.5-3.2 1.2l-2 .7c-.6.4-1 .3-1.4-.3zm-31.5-.9c-.6-.7-.4-.8 1.1-.3 1.4.5 1.5.9.4 1-.7 0-1-.2-1.5-.7zm-68.6-.8-.2-1.1c0-.3.3 0 .5.7.3.6.4 1 .2 1-.1 0-.3-.2-.5-.6zm127 0c-.1-.4-.5-.6-.7-.6l-.9-.3c-.2-.2 0-.2.7-.1 1.7.2 2 .4 2 .8-.2.7-.7.7-1 .1zm-4.9-.4c-.3-.5.3-.8 1.3-.6l.8.2-.9.3c-1 .5-1 .5-1.2.1zm-22-2.6c0-.2.4-.2 1.2-.1 1.7.2 1.8.3.1.3-.7 0-1.4 0-1.4-.2zm18-.4c-.4-.7-.3-1.5.2-1.5.1 0 .3.3.4.7l.3 1c.3.7-.3.5-.8-.2zm-12 .1-.9-.2h1c.5 0 1 0 1 .2v.2c-.1 0-.6 0-1-.2zm-114-.7c0-.3.2-.7.4-1 .3-.4.4-.5.7-.2.2.2.2.4-.1 1-.6.8-1 .9-1 .2zm16-1c0-.5 0-1 .3-1.2.5-.5 5.1-2.4 6-2.4l1.3-.4c.6-.3.9-.3 1.9 0l2.2.5c1 .2 1.2.1 1.5-.4.6-.9.4-2.9-.2-3.2-1.8-1-2.6-2-1.6-2 .5 0 2.3.9 2.7 1.4.7.8 1.1.5 1.1-.7 0-.9-.1-1.3-.6-1.7-.7-.8-3-1.3-4.6-1l-1.1-.1c0-.2 0-.3.2-.3.1 0 .5-.4.8-1 .4-.6 1-1 2-1.6l1.7-.7c.2-.2-.4-1-1.2-1.3-1-.6-2.2-1.7-2.2-2.2 0-.6 1.2-1 3-.8 2.6.3 3.1.3 4.3 0 .7-.2 1.1-.2 1.6 0 .8.5 2.4 1.9 2.7 2.5.4.8.7.7 1 0 .4-.8 2.1-1.4 3.2-1.1.9.1 2.3 1.6 2.7 2.6.4 1 1.8 1 3 0 1-1 3.1-2 5.2-2.4 1.4-.3 1.7-.3 2 0 .4.3 0 .5-2.2 1.7-3 1.5-3.6 1.5-1.2 0 1.9-1.2 1.2-1.4-1-.3-1.6.7-4 2.6-4 3.2 0 .2-.1.3-.3.3-.3 0-.4-.2-.4-.5 0-.4-.2-.5-.8-.5-.6 0-.9-.2-1-.7-.2-.3-.5-.7-.7-.7-.3-.1-.4-.4-.4-.7 0-.9-1-1.5-2-1.3-1.3.2-1.6.5-2.3 2-.6 1.5-.6 1.8 0 2.8.5.5.7 1.2.7 2 0 1 0 1.3.4 1.3.7 0 1.6 1.3 1.4 2.1 0 .6 0 .9.6 1.4.3.3.6.8.6 1 0 .4-.7.4-1 0 0-.3-.8-.5-1.5-.6-1.2-.2-1.4-.2-1.4.2 0 .5-.6.6-1.2 0a2 2 0 0 0-1-.4c-.3 0-.6-.3-.8-.8-.2-.5-.6-1-.8-1.2-.3-.2-.5-.8-.5-1.3 0-.6-.1-.9-.5-1-.4 0-.5-.3-.5-.8 0-1-.4-1.6-1.6-2.7-1-1-1.8-1.1-3-.5-1.2.6-.9 1.4.8 2 1.8.8 2.4 1.6 2.6 3.4.1.7.3 1.3.4 1.3.6 0 2 1.5 2 2 0 .9-.2.9-1.4 0-1.3-.8-1.7-.8-1.7.2 0 .5-.2 1-.6 1.4-.6.6-.9.7-1.8.5-1-.1-2.7 0-4.7.6-.4 0-.8.3-.9.5-.2.4-.3.3-.9 0-.7-.5-.7-.5-1 0-.3.4-.7.7-1 .7-.8 0-1.3.3-1.2.8 0 .2-.3.4-.8.5-.6 0-1.2.2-1.5.4-.5.1-.6 0-.7-.7zm21.6-6.3c.2-.3.2-1 .2-1.6-.1-.9 0-1.3.3-1.8.6-.7.7-1.6.2-2-.5-.5-.7-.4-.7.5 0 .4-.2.7-.3.7-.4 0-.6-.6-.3-1.4.2-.5.2-.9 0-1.2-.2-.4-.1-.6.1-.7.3-.1.4-.4.5-.6.1-1.2-.1-1.8-1.3-3-1-1-1.5-1.3-2-1.2-.6 0-.9.2-1 .7 0 .5-.1.6-1 .4-.5 0-1-.3-1-.4-.3-.3-2-.5-2.6-.3-.9.3-.1 1.1 2.1 2.1.9.4 2.3 1.6 2.3 2 0 .3 1.6 2.7 2 3 .3.2.4.6.2 1.3-.1.8 0 1.1.5 1.8.4.5.7 1.2.8 1.6.2.9.6 1 1 .1zm2.5.1c0-.1 0-.4-.2-.6l-.6-.9c-.2-.5-.3-.4-.3.2v1.2c.2.4.8.5 1 .1zm97.8 5.4c-.8-.4-1-1-.2-1 .4 0 2.3 1 2.3 1.3 0 .2-1.3 0-2.1-.3zm-139-1.3c-.1-.1-.3-1.3-.3-2.5-.1-2.4-.3-2.9-2-5.3-.6-.9-.7-2.2-.4-3 .2-.5 2.5-1.8 3.1-1.8.7 0 .5 1-.4 2.8-.9 1.8-1 2.1-.2 2.4.5.1 2.1 2.6 2.5 3.8.1.3 0 .7-.2 1l-1.1 1.7c-.8 1.3-1 1.5-1 1zm-.9-10.3c.3-.8 0-.8-.8-.1-.5.5-.7.8-.5 1.3l.2.6.5-.7c.3-.3.5-.8.6-1zm144.4 9.4c-1.6-.7-1.8-1.2-.4-1 1.2.3 2.5.9 2.5 1.2 0 .4-.8.3-2.1-.2zm-154.3-1c-.4-.5.4-1.1 1-.6l.3.7c0 .4-.9.4-1.3 0zm121.2 0h.8l-.4.1c-.5 0-.6 0-.4-.1zm-98.3-.3a.7.7 0 0 1-.2-.4c0-.2.2-.2.4 0 .1.2.2.4.1.5h-.3zm-59-1.8c-1.1-.3-2-1-2-1.5 0-.4 1.8-.2 2.8.3l1.5.5c.7 0 .8.5.2.8-.6.4-.8.3-2.5-.1zm131.3-.8c0-.2.2-.4.3-.4.2 0 .3.2.3.4s-.1.4-.3.4c-.1 0-.3-.2-.3-.4zM13.2 121c0-1.2 2.6-3.5 3.4-3 .3.2 0 .4-.7 1-.7.4-1.3 1-1.5 1.6-.4 1-1.2 1.2-1.2.4zm116.6 0-.4-.6 2-1-.3.6c-.2.3-.3.8-.2 1 .2.7-.5.6-1.1 0zm-71.6-1c0-1 0-1.2.5-1.1.4 0 .5.4.2 1.7-.3 1-.7.7-.7-.6zm-18.4-.1c-.4-.8-.4-.9 0-1.3.4-.3.4-.3.7.3.6 1.7 0 2.4-.7 1zm-2.9-1.3a19 19 0 0 0-2.3-1.9c-.3 0-.3-.9 0-1.1.3-.4 2.3 1.3 3.9 3.4 1.3 1.7.5 1.5-1.6-.4zm94.9.8c0-.2 0-.3.2-.3s.3.1.3.3c0 .1-.1.2-.3.2a.3.3 0 0 1-.2-.2zm-28.6-3.7c0-.3 1.6-1.7 1.8-1.5.2.2-1.3 1.7-1.6 1.7-.1 0-.2 0-.2-.2zm10.8-.7c0-.2.2-.4.3-.4.1 0 .3.1.3.3l-.3.4c-.1 0-.3 0-.3-.3zm53-1.6c0-.3.2-.4.8-.4.5 0 1.4-.3 2-.6 1.2-.7 2.2-1 2.2-.5 0 .3-4.3 1.9-5 2v-.5zm-40.3-.6c-.6-.2-.5-.3.4-.3.5 0 1 .1 1 .3 0 .3-.4.3-1.4 0zm62-.6c0-.2.7-.4 1.7-.5.9-.1 2-.4 2.7-.7.7-.3 1.2-.3 1.5-.1.4.2.7 0 1.2-.3.6-.5 1.3-.6 1.7-.2.2.1 1 0 2.1-.4 1-.4 2.1-.7 2.4-.7.2 0 .8-.2 1.1-.5.8-.6 1.5-.7 1.3-.1-.2.5.8.5 2.9 0 .9-.3 2-.4 2.4-.4.5 0 1-.2 1-.3 0-.2-.3-.3-.6-.3-.7 0-1-.4-.4-.6 1.1-.4 2.5.1 1.7.6-.7.5 1.4.7 3 .4 2.4-.6 3.6-.4 3 .4 0 .3-1.2.4-5 .5-2.5 0-4.9.1-5.2.3-.5.3-4.4.9-4.7.7a7 7 0 0 0-2 .4c-1.1.3-2.5.6-3.1.6-.7 0-1.8.3-2.5.6-.8.2-2 .5-2.7.5l-2.5.2c-1 .2-1.1.2-1-.1zm-73.6-.7c0-.2.1-.4.3-.5l.2.1-.2.5-.3-.1zm5.8-3.2c0-.8.4-1.2.9-.9.2.2.9.3 1.5.3h5.1c3 0 4 .1 3.8.4 0 .2-1.3.3-4.8.3l-5.6.2c-.8.2-.9.1-.9-.3zm13.3-.8 1-.4 1.6-.3c.6-.1.8 0 .8.2 0 .3-.3.5-.7.5l-1.8.1c-.7.2-1 .1-.9 0zm-65.3-.2c-.7-.3-.4-.8.4-1 .9-.2 1.6 0 1.6.4s-1.4.8-2 .6zm102.8-.7c0-1 .1-.9.4.1l-.1.8c-.2 0-.3-.4-.3-.9zm-52.1 0c-.4-.4-.8-.7-1-.7-.5 0-.2-1.6.6-2.3.5-.6.7-.8.5-1.4-.2-1-.3-1-1-.3-.4.3-.7.5-.8.4-.2-.4.3-1.5.6-1.5.2 0 .3-.3.2-.7 0-.6-.2-.7-1.2-1-.7-.1-1.2-.4-1.2-.6 0-.3.2-.4 1.3-.1.7 0 1.1 0 2-.6 1.1-.7 1.4-1.5.6-1.5-.3 0-.7.2-.9.4-.2.3-.5.4-.7.4-.7 0-2.7-1-2.7-1.3 0-.3.4-.3 3 .2 1.4.2 3-.7 3.7-2 .5-1 .3-1.4-.8-1.2-.5.2-.6 0-.6-.5 0-.4-.2-.8-.4-1-.5-.3-.3-1.8.3-2.2.2 0 .3-.4.4-.8 0-1.2 1.3-5.9 1.8-6.5l.8-1.3c1.2-2.7 1.6-3.8 1.8-5 .1-1.3 1-3.3 1.4-3.6.3-.2 2.3.1 2.3.4l-.7.3c-.6 0-.7.2-.7 1.7-.1 1.9 0 2.5.6 2.5.3 0 .2.2-.4.6-.5.4-1 1-1 1.5l-.4 1c-.2 0-.3.3-.3.6 0 .5.2.5 1.2.5 1.4-.2 1.7.4.2.5-1.3.2-1.8.6-2 1.8-.1.5-.4 1-.6 1-.4.3-1 3.2-1 5.2 0 1 0 1.2.7 1.2 1 .2 1 .9-.1.9-.7 0-1 .1-1.2.7-.4.8-.4.9.2.9.5 0 .7.6.2 1-.2 0-.1.2 0 .4.5.6-.1.8-1 .4-.5-.3-.6-.3-.8 0-.4.6-.3.8.3.6.3 0 .5 0 .5.2 0 .5-1.2 2.1-1.5 2.1-.6 0-.7.6-.2 1 .4.2.4.5.3 1.5-.3 1.4-.7 2.6-1 2.6-.1 0-.6.4-1.1 1l-1 1 1 .6c.7.3 1.1.8 1.1 1 0 .8-.6.7-1.3 0zm1.3-5.9c0-.5-.9-2-1.2-1.9-.5.2-.4 1 .2 1.7.7.7 1 .8 1 .2zm2.2-9.4c.4-.2.5-.5.4-.9-.1-.3 0-1.2.2-1.9s.4-2 .4-3c0-1.2.1-1.7.5-2.1.3-.3.5-.7.5-1l.3-.5c.1 0 .5-.8.7-1.7.2-.9.6-1.7.8-1.9.2-.1.4-.8.4-1.4 0-1.2-.3-1.5-.8-.9a18 18 0 0 0-1.6 5.4c0 .7-.1 1-.7 1-.7.3-1 1.1-.6 1.8.2.4.1.6-.3 1-.6.5-1 2.7-.5 3 .3.2-.2 1.8-.8 2.2-.3.3-.2 1.2.3 1.2l.8-.3zm40.2 15.7c-.2 0-.3-.3-.3-.5 0-.6.9-.3 1 .2 0 .5 0 .6-.7.3zm-91-.5c-.5-.6-.4-.7.5-1.5 1.3-1.1 2.6-1.7 3.7-1.6h.9l-.9-.2c-1-.4-1.1-.9-.1-.7 1.7.4 1.8.4 1.7-.2L78 101c0-.8-.4-1-1.1-.8l-1.7.6c-1 .3-1.8 1-2.6 2.4-.1.3-.7.7-1.2 1-.8.5-1 .5-1.4.3-.4-.3-.4-.5 0-1.1l.4-1.2.4-2c.4-1.1.8-1.8 2-2.9.8-.8 1.8-1.7 2.3-2 1-.4 1-.4.3-.8-.3-.2-.5-.6-.5-.8 0-.3-.7-.5-1.6-.4-.2 0-.6.3-1 .6l-1 .7c-.6.3-.7.2-1.2-.7-.3-.6-.7-1-.9-1-.7 0-1.2.2-1.2.6 0 .2-.2.6-.5.8-.6.5-.5.9.6 2.4.7 1 .8 1.4.8 3 0 1-.1 2-.3 2.2-.3.5-.4.5-.2-.2.3-1 .3-2 0-2.9-.1-.6-.2-.6-1.2-.5a4 4 0 0 1-1.5 0c-.5-.2-.5-.3 0-.6.4-.3.9-.3 1.5-.2.8.1.8.1.6-.4-.2-.3-.4-.6-.6-.6-.2 0-.8-1.2-.8-1.7 0-.2.2-.4.4-.4s.4-.4.5-1c.2-.7.4-1 1.1-1.3 1-.4 1.6-.2 2.5.9l.5.7.7-.6c.5-.5 1-.7 2-.7 1.2 0 1.4.1 1.9.7.4.7.7.8 1.8.8.7 0 1.4 0 1.4.2.1.2.4.3.7.3 1 0 .3.4-.8.6-1.8.3-4.7 1.5-5 2-.3.5-.2.6.2.6.3 0 1 .4 1.7 1l1.1 1h5.3c1.2.2.8.6-.7.6-1.7 0-2.2.3-2 1.1.1.4.6.8 1.3 1.1 1.5.6 1.7.6 2.2-.2.6-.9 1.6-1.2 3-1 .7 0 1.1 0 1.4-.3.2-.3.2-.4-.4-.7l-2.2-.4c-1.9-.2-1.5-.5.6-.4 1 0 1.7 0 1.8-.2.2-.2.6 0 1.2.7 1.3 1.3 2.5 1.6 5.7 1.2.8 0 2.2 0 3.3.3l2 .4-2.5-.1c-1.9-.1-2.7 0-3 .2-.3.2-1.1.4-1.8.5-.6 0-1.8.4-2.6.8-1.2.6-1.7.7-3.8.7-3.5 0-3.8 0-4.1.4-.3.3-.5.3-1.2 0-.9-.4-1-.4-1.7 0-.4.4-.9.5-1 .5l-1 .1-1.7.7c-.6.2-1.3.6-1.5.8-.6.5-.8.5-1.3 0zm-1-3.3.7-.2c.3 0 .5-.1.5-.2 0-.3 1.4-1.8 1.9-2l1-.6.5-.3-.5-.7c-.5-.6-.8-.7-1.7-.7-1.2 0-1.2 0-1.7 1-.7 1.7-1.3 4-1 4l.3-.3zm18.4-.4 1.2-.8h-1c-.5-.1-1-.3-1-.5-.3-.4-1.3-.2-1.3.3s.5 1.7.7 1.7a8 8 0 0 0 1.4-.7zm68.8 3.9c0-.2.5-.3 1.2-.3 1.5 0 1.5.1 0 .4l-1.2-.1zm-27.8-1.2c-.5-.5-.8-1-.7-1.1.2-.2 2.2 1.5 2.3 1.8 0 .5-.8.1-1.6-.7zm42.7-.4c-.2-.5-.2-.8 0-.8.3 0 .5.6.4 1.2-.1.4-.2.3-.4-.4zm21.4.5c-.6-.3-.8-.8-.3-.8.4 0 1.3.5 1.3.8 0 .3-.2.3-1 0zm-128.2-.2-.2-1.1c0-.9-.5-3.2-1-4.3 0-.3 0-.5.2-.5.4 0 .8 1.1 1 2.7.2 1 .3 1.2.9 1.2.7 0 .7.2.2 1.5-.3.7-.7 1-1.1.5zm104.4-.6c-.7-.9-.8-1.8-.2-1.8.2 0 .4.2.4.5s.1.8.3 1c.5 1 .1 1.2-.5.3zm50.5.3c-.2-.7-1-.9-5.7-.8H212c0-.3 6-.9 7-.7.6.1 1.3 0 1.8-.1.6-.3.8-.2 1.5.2 1.5 1 1.7 2 .3 2-.6 0-.9-.2-1-.6zm-24 0c.1-.2.7-.3 1.3-.3.7 0 1.2.1 1.2.3 0 0-.6.2-1.3.2-.7 0-1.2-.1-1.2-.2zm4.7-.3c-.2-.4.6-.5 3.9-.5l3.7-.1c.1-.1.3 0 .4 0 .2.4.5.4-4 .6h-4zm-34.9-.2-.7-.3c-.4-.4.4-.6 1.7-.5h1.2l-.8.5c-.5.2-1 .4-1.4.3zm-56.4-.6c-.3-.1-.8-.2-1.3 0-.7 0-.9 0-.9-.3 0-.5.8-.7 2.4-.7 1 0 1.2 0 1 .9-.3.4-.7.5-1.2.1zm78.4 0c-.8-.2-2-.7-2-.9l.6-.4c.4-.2.7-.2 1.2.1l1.2.5c.5.2.6 1 .1 1l-1-.3zm-4.7-1.4v-1c0-.7 0-.8.8-.8 1 0 1.1.4.3.8-.3.2-.5.5-.5.7 0 .4-.5.6-.6.3zm-58.5-.7c0-.1.2-.3.4-.3l.2.3c0 .2-.2.3-.4.3s-.3-.1-.2-.3zm47 0c-.1-.3.2-.8.5-.6.3.2.3.9 0 .9-.2 0-.3-.1-.4-.3zm-3.5-2-.8-2-.8-.6c-.9-.5-1-.9-.3-2.6.3-1 .4-1.4 0-2.4-.6-2-.8-2.6-1.7-3.6-1.3-1.6-1.8-2.7-1.7-3.7 0-.9-1-3.2-1.4-3.2l-1.1-.1c-1 0-1.3-.6-2-3.9a19.8 19.8 0 0 0-1.8-5.5c0-.4 1.1-1 1.9-1 .5 0 1-.4 2-1.4l1.3-1.5 1.3-.3h1.2l-.9.4c-1 .4-1.8 1.1-2.1 2.2-.3.8-1 1.2-1.9 1-.4 0-1.5 1.3-1.5 1.8l.6 1.6c.4.8.7 1.6.7 1.9 0 .3.2.7.4 1 .2.3.4.8.4 1.2 0 1 1.5 1.9 3 1.8.7-.1 1 0 1.2.2 0 .2-.2.3-.5.3-.6 0-.7.4-.3.7.2 0 .3 1 .3 1.9 0 1.8.2 2.2 1.5 4 1.4 1.8 2.2 4 2.3 6.5.1 2 .1 2.1.7 2 .8 0 2.5 2.1 2.6 3.5 0 .2-1.3 1.5-1.6 1.5-.1 0-.6-.7-1-1.7zm1.4-1.2-.5-.9v1c-.1.8 0 1.2.3 1.5.5.3.5.2.6-.2 0-.3-.1-1-.4-1.4zm5 2.4c0-.1 0-.3.2-.3s.3.2.3.3l-.1.3-.3-.3zm-174.2-.2c-.8-.1-1-.7-.3-1 .3 0 .7.1 1.1.5.7.7.7.7-.8.5zm113-2-3-.6c-3.2-.4-3.9-.5-3.9-1h.6l2.7.3c1.5.1 2.2 0 2.8-.3.8-.4 1-.4 1.4 0 .6.5.6 1.2.1 1.7-.2.2-.4.2-.6 0zm93.6-1.4c-.4-.4-.1-.6.6-.6.9 0 1 .3.4.6-.5.2-.8.2-1 0zm-42.5-.6c0-.2.1-.3.3-.3.1 0 .2.1.2.3l-.2.2a.3.3 0 0 1-.3-.2zm14.8 0c0-.4 1.2-1 1.8-1 .3 0 .2 0 0 .6-.5.7-1.8 1-1.8.3zm-94-1.2c-1-.4-2.7-.8-3.6-.9l-1.7-.2 2-.2c1.4 0 2.3-.3 2.6-.6.4-.4.6-.4 1.2-.1.9.4.9 1 0 .7-1-.3-.8.4.3 1 .6.2 1.9.5 3.2.6 3 .1 3 .4.2.3-2 0-2.8-.1-4.2-.6zM99 96c-.2-.3 0-.3 1.8-.3 2 0 2.2.5.1.5-1 0-1.8 0-2-.2zm85 0c-.1-.1 0-.4.2-.5.3-.3.4-.3.4 0 0 .5-.5.9-.7.5zm.6-1.6c-.2-.3-.3-.6-.2-.7.2-.2 1 .4 1 .9s-.5.4-.8-.2zm-8.8-.5c0-.4 1.6-.6 2.1-.3.3.1.3.3.2.3a110 110 0 0 0-2.3 0zm-17-1.3h.6c0 .1-.1.2-.4.2-.3 0-.3 0-.1-.2zm-2.2-.2c.3-.1.6-.1.8 0h-.8zm15.8-.1c-.3-.2-.3-.3 0-.4h1c.4.1.4.2 0 .4l-.5.2s-.3 0-.5-.2zm-69.7-1c-.2-.2-1-.5-1.7-.7-1-.4-1.3-.6-1.2-.9.2-.6-.7-1.4-1.6-1.4l-1.9-.4c-1-.4-1.2-.4-2 0-.4.2-1 .4-1.3.3-.4-.1-.9 0-1.4.4-.6.5-.8.5-1.4.3l-1.4-.4c-.4 0-.7-.2-.7-.4 0-.3-.3-.5-.6-.6l-.7-.1.7-.5c1-.7 1.5-.6 1.6.3.1 1 1.3 1.3 2.5.6.5-.3 1.2-.5 1.6-.5l1.6-.4c.7-.2 1-.2 2 .2l1.6.4c.3 0 1 .5 1.5 1 .6.7 1.2 1.1 1.3 1.1l1.4.6c.9.3 1.2.6 1.1.9-.2.4-.6.5-1 .2zm3.9-.5c-.5-.3-1-.5-1.3-.5-.2.1-.4 0-.4 0 0-.4.7-.7 1.3-.7.2 0 .7.3 1 .6l.6.6v-.6c0-.7.8-1.2 2.5-1.6.9-.3 1.3-.3 1.7 0 .8.4 1.6.3 2-.2.3-.6.3-.2 0 .5-.4.5-1.8.7-2 .2-.3-.4-1.2-.3-1.6.2-.2.3-.6.5-.8.5-.4 0-.6.1-.6.6 0 1.2-1.1 1.4-2.4.4zm54.4.2h.5c0 .2 0 .2-.4.2-.3 0-.3 0-.1-.2zm-43.8-1.2-.5-1c-.1-.5-.4-.8-1-1-.8-.2-.8-.2-.2-.3.8 0 2.4 1.5 2.4 2.2 0 .5-.3.6-.7.1zm95.9.2h.6l-.3.1c-.3 0-.5 0-.3-.1zm-51.5-.3c0-.3 1-.6 1.8-.6.6 0 .6 0-.3.4-1 .4-1.5.5-1.5.2zm16 0c-.4-.3-.1-.5 1-.8l1.4-.5c.3 0 .4 0 .3.2-.1.4-2.5 1.3-2.7 1.1zM14 88.3c-1.4-.9-2.4-2.2-2.4-3.4V84l-1.6.2c-1 .2-2.1.2-2.7.2-3.2-.2-4-.2-4 .1-.1.2-.4.4-.6.4-.6 0-1.3-.7-1-1 .1-.1 2-.3 4.2-.4 2.2 0 4.2-.2 4.4-.3.3-.1 1 0 1.6.4 1 .5 1.3 1 .8 1.4-.8.5.4 2 2.3 3 .8.4 1 .8.5 1-.2 0-.8-.2-1.5-.7zm61-.5c-.3-1-.9-1.8-1.5-2-1-.6-2.3-.6-2.7 0-.4.5-.9.5-2-.1-1-.6-1.4-.7-2.1-.2-.5.2-.6.2-1-.2a2 2 0 0 1-.3-.8c0-.2.1 0 .4.3.3.5.5.6.7.4.4-.5 1.4-.4 2.5.1.9.4 1 .4 1.7 0 1.5-.9 3.7-.3 4.5 1 .2.5.5.7.9.6l3.3-.9c2.7-.7 2.9-.7 3.8-.2l1.3.4c.6 0 2 .7 2 1 0 .4-.4.4-2.6-.4-2.4-.7-2.8-.8-4-.1-.6.3-1.3.4-1.5.4-.6-.2-2.5.6-2.5 1s-.8.2-1-.3zm75.8-.3c0-.3 4.7-.3 5.4 0 .4.2-.5.3-2.4.3-1.8 0-3-.1-3-.3zm31.1 0 .6-.2 1.4-.6c1.4-.7 1.6-.5.3.4-1 .7-2.6 1-2.3.4zm5.6-.5c-.3-.3-.7-.5-.9-.5-.2 0-.3-.2-.2-.3 0-.2.4-.1.8 0 .4.2.8.2 1.5 0 .6-.2 1-.2 1.1 0 .2.2 0 .3-.3.3s-.8.2-1 .5l-.6.5-.4-.5zm26.6-.3c.1-.4 1-.5 1-.1.1.1-.1.3-.5.3-.4.1-.6 0-.5-.2zm-22.9-.2c-.2-.4.7-1.1 1.9-1.4.8-.2 1.4-.1 2.6.3 1.3.4 1.4.5.7.5a5 5 0 0 1-1.5-.2c-1-.4-2.7 0-3.2.6-.2.3-.4.4-.5.2zM126 86c0-.4 1-.7 2.8-.9 1.7-.2 2.1.3.5.5l-2 .4c-1.2.4-1.3.4-1.3 0zm84.9-.2c.1-.5.6-.7 1-.4.2.3-.2.9-.7.9-.3 0-.4-.1-.3-.5zm-3.6-.6.6-.2c.4 0 .7 0 .8.2.1.2-.1.3-.6.3s-.8-.1-.8-.3zM57.8 85l.3-.3.1.3c0 .1-.1.2-.3.2-.1 0-.2 0 0-.2zm96 0c0-.2.1-.3.3-.3.2 0 .4.1.4.3l-.4.2c-.2 0-.4 0-.4-.2zm2.5 0c.2-.4 1.7-.3 1.7 0 0 0-.4.2-1 .2-.4 0-.8-.2-.7-.3zM62 84.5v-.4c.2-.2 1 .2 1 .4 0 .4-.8.3-1 0zm86.7-.3c0-.1.3-.2.7-.2.4 0 .6 0 .5.2-.1.2-.4.3-.7.3-.3 0-.5-.1-.5-.3zM118 84c-.3-.3-.2-.4.5-.4.6 0 .8.2.8.4 0 .3-.2.4-.5.4-.2 0-.6-.1-.8-.4zm-86.1 0a3 3 0 0 1 1-.3c.2 0 .1 0-.2.2a3 3 0 0 1-1 .2c-.2 0-.2 0 .2-.2zm-9.4-.6c0-.2.1-.3.3-.3.1 0 .2.1.2.3l-.2.2a.3.3 0 0 1-.3-.2zm86.8 0c0-.2 2.3-.7 2.5-.4v.3c-.2.3-2.5.4-2.5.1zm6.4-.6c-.2-.2-.3-.5-.3-.7 0-.3 0-.3.6 0 .5.4 1 .5 1.5.3.6 0 .8 0 .7.2-.1.5-2 .6-2.5.2zM3.9 81.2c-.1-.4 0-1.1.4-1.8.4-.9.5-1.3.2-1.5-.1-.1-.3-.8-.3-1.4 0-.7 0-1.4-.2-1.7-.4-.6-1.3-.7-1.9-.2-.2.3-.3.2-.2-.2.1-.7 1.3-.8 2.2-.3.5.3.7.8 1 2.5.2 2 .2 2.3-.2 3l-.4 1.7c0 .9-.4.9-.6 0zm31.4.4c.1-.2.3-.4.4-.3 0 0 0 .3-.2.5-.3.2-.3.2-.2-.2zm120.7-.2c1.4-.6 2-.7 2.2-.4.2.4-1.4 1-2.5 1-.8 0-.8 0 .3-.6zm-69 0c0-.3 1-.5 1.4-.2.2.1.2.2.1.2l-.9.2-.6-.1zm-73.5-2c0-.9 0-1.8-.2-2l.1-.5c.4 0 .7 3.1.4 3.7-.2.3-.3 0-.3-1.2zm3 1c-.2-.4.4-3.1.7-3.4.5-.2.6 0 .2.9l-.2 1.9c0 1.1-.4 1.5-.7.7zm11.5 0 .3-.2c.2.1.3.3.3.5 0 0-.1.2-.3.2-.1 0-.3-.2-.3-.4zm7.5 0h-.6l.7-.8c.6-.7.7-1 .5-1.7-.1-1-.7-1.3-1.5-1-.8.2-.5-.3.3-.8.7-.4.8-.6.6-1-.2-.3-.4-.5-.6-.5a.3.3 0 0 1-.2-.3c0-.2.1-.3.4-.3.5 0 1.2 1.2 1 1.7 0 .2 0 .7.3 1 .3.6.4 1.1.3 2.1-.1 1.5-.3 1.8-1.2 1.6zM19.2 80c0-.3 0-.4.2-.4.4.2.6.8.2.8l-.4-.4zm94 0h.5-.5zM10.5 79c-.3-.4-.7-.7-1-.7-.3 0-.5-.2-.5-.3 0-.4 1 0 1.8.6.6.6.8 1 .3 1 0 0-.4-.3-.6-.7zM.9 79c-.2-.6 0-1 .5-.5.2.2.2.4 0 .6-.3.2-.4.2-.5-.1zm106.7-.3c-.1-.4-.2-.5-.5-.2-.3.2-.4.2-.8-.3-.2-.4-.7-.6-1.2-.6s-.7-.2-.8-.5c-.3-1.4-2-2-3.2-1-.7.5-1 .2-.5-.5 1-1 2.8-.8 4.2.6.4.4 1.2.8 1.7.9.8 0 1.2.3 1.5 1 .5.6.4 1.2 0 1.2-.2 0-.3-.2-.4-.6zM18 78.6V78c.2-.3.5 0 .4.5-.1.2-.2.2-.4 0zm6-.7a9 9 0 0 1-.8-1.9c-.4-1.3 0-2.2 1.2-2.7.4-.2.8-.6.8-.9.1-.3.3-.5.4-.5.2 0 1-.8 1-1l-1-1.4-1.2-1.1-.8.4c-.5.3-1 .4-1.2.3-.3 0-.7.1-1 .4l-.7.5.8 1.2c.4.7 1 1.4 1.2 1.4.7.2.6.9 0 .9-.4 0-.6.2-.7.6-.2.7-1 1.5-1 1l.4-1.2c.3-1.2 0-1.7-1.1-1.7-.5 0-.9-.2-1-.3 0-.2-.5-.2-1-.1l-1 .1v-1.2c0-1.4.5-1.8 1-.7.1.5.5 1 1 1.1 1.2.4 1.3.4 1.1-.5-.2-1 .8-2.1 2-2.1h.7v-3.6l.1-3.6h-.8c-1.9 0-4.2 3.2-4.2 5.8 0 1-.1 1.4-.4 1.4-.3 0-.4-.2-.4-.3 0-.2-.2-.2-.3-.1-.2 0-.2.4-.2.8.2.8-.3.8-1.3.2-.7-.5-.8-1.2-.1-1.2.4 0 .5-.2.6-1 0-1.3.5-1.5.7-.4.2.8.2.8.3-.2.2-1.6-.1-2-2.2-1.7-3 .3-4.2.7-4.2 1.4 0 .3.2.6.3.7.2 0 .4.6.5 1.2 0 1 0 1-.5 1.2-.4.1-.7.4-.8.5-.4.6-.7-.2-.7-2.2v-2.2l1-.5c2-.8 5.8-1.4 6.4-1 .7.4 1 .3 1-.4 0-.4.2-.8.8-1l1.5-1c1-.9 3.4-1.5 3.9-1 .2.2.2 1.3.2 3.7 0 2.9 0 3.4.3 3.6.2 0 .7.5 1 1 .3.7.7 1 1.1 1 .6 0 .7 0 .7.8 0 .6.2 1 .4 1.2.4.2.3.3-.7.7-.7.3-1.3.7-1.6 1.2-.4.6-.6.8-1 .7-1.1-.4-1 1.9.1 3.7.5.7.5.9.2.9-.2 0-.5-.4-.8-.9zm187.8.2c0-.3 1-.8 1.3-.5.2.2-.5 1-.9 1a.4.4 0 0 1-.4-.5zm-96.8-.1c-.3-.2-.2-.3.5-.3.4 0 .8.1.8.3 0 .3-.8.3-1.3 0zm5.7 0c-.3-.2-.2-.5.2-.5.3 0 .4.1.4.4 0 .4-.3.5-.6.2zm-77.2-.2c-.1-.1.3-.5.9-.7 1.2-.5 1.8-2 1.3-3.2-.2-.8-.5-.9-1.4-.5-.4.1-.5 0-.5-.5 0-.7-.2-1-1-1.5-.4-.3-.4-.3.1-.3.4 0 .8.3 1.1.7.3.4.9.8 1.4.9l1 .2v1.5c0 1.8-.6 2.9-1.9 3.3-1 .3-.9.3-1 0zm176.5-.3h.5c0 .2 0 .2-.4.2-.3 0-.3 0-.1-.2zm-187.3-.1.4-1.1c.3-.6.4-1.3.2-1.9 0-.8 0-.9.3-.9.5 0 .5.2.3 1.6-.1 1.6-.5 2.4-1 2.4l-.2-.1zm64.8-.2c0-.6.6-1 1.2-1 .5 0 .5 0 0 .3-.3.1-.7.5-.8.7-.3.4-.4.4-.4 0zM19.8 77l.4-.5c.2-.3.1-.5-.5-1s-.7-.7-.4-1c.3-.3.4-.3.6 0 .2.3.6.6.9.7.8.5.7 1.1-.1 1.6l-.9.2zm53 0c0-.2 0-.3.2-.3s.3 0 .3.2-.1.3-.3.3a.3.3 0 0 1-.2-.3zm82.4 0c.4-.4 1.7-.5 1.8-.2 0 .1-.4.3-1 .4-.8 0-1 0-.8-.3zm60 0c-.2-.3.2-.6.8-.6 1 0 1 .5.2.6h-1zm-192.8-.6v-.3c.2 0 .4.2.5.3l-.1.3c-.2 0-.4-.1-.4-.3zm4.6 0s2-1.3 2.2-1.3c0 0 0 .3-.3.8-.3.6-.6.7-1.2.7l-.7-.1zm11 0c-.3-.2-.2-.8.2-.8.2 0 .4.2.5.5.1.6-.3.8-.7.4zm58.3-.4c0-.5-1-.9-1.8-.6-.5.2-.7 0-1.2-.5-.7-.7-.8-.8-1.4-.1-.6.6-.8.5-1.8-1-.7-1-.9-1.1-1.8-1.1-.6 0-1-.1-.9-.3l1.2-.2c.8 0 1.1.1 1.8 1 .8 1 .9 1 1.7.6 1-.3 1.5-.2 1.7.5 0 .5.2.6 1 .4.8 0 1.1 0 1.8.6.9.7 1 1.1.2 1.1-.3 0-.5-.2-.5-.4zm-24.5-.1.1-.3c.2 0 .4.1.5.3l-.1.2c-.2 0-.4 0-.5-.2zm4.7-.4c-.6-.7-.7-1.8-.2-2.3.3-.2.4-.2.3.3-.1.2 0 1 .3 1.4.5 1.2.4 1.4-.4.6zm101 .2c0-.7 1.2-2 1.9-2 .3 0 .5.2.5.3 0 .2-.1.3-.3.3l-1.2 1c-.7.8-.9.9-.9.4zM64 75.1c-.3-.3-.8-.5-1-.5 0 0-.4-.2-.6-.5a1 1 0 0 0-1-.3c-.3.1-.5 0-.4 0 .3-.5 1.4-.3 2.8.5.8.4 1.6.7 1.8.6.1 0 .3 0 .3.2 0 .1-.1.2-.3.2l-.6.2c-.2 0-.6-.1-1-.4zm-57.7-.4c-.3-1 0-2 .9-2.4.8-.5 1.5-.5 1.5-.1l-.6.2c-.8 0-1.7 1.5-1.2 2 .3.3.3 1 0 1-.2 0-.4-.4-.6-.7zM48 75c0-1 2.6-1.8 5.7-1.7 1.9 0 2.4.2 2.7.6l.3.9c-.2.7-.7.6-1-.2-.2-.7-.4-.8-1.4-.8-.6 0-1.5 0-2-.2-.7-.1-1 0-1.5.6-.6.6-.7.6-1.1.3-.4-.3-.5-.2-1 .3-.5.6-.7.7-.7.2zm11.4 0c0-.3.7-1 1.1-1 .1 0 .2.3.1.6 0 .6-1.2 1-1.2.5zm9-.6V74c.3-.3.8.1.8.5 0 .5-.5.5-.7 0zm14 .2.4-.6c.7-.5.5-1.7-.4-2.5-.6-.5-.7-.7-.4-.7.2 0 .8.4 1.3.8.7.6.8.8.6 1.5-.2.7-1.5 2-1.5 1.5zm71.8-.3.1-.3c.2 0 .3.1.3.3l-.1.3-.3-.3zm-56-.3c0-.3.7-.6 1.1-.5.2.1 0 .3-.3.5-.5.2-.7.2-.7 0zm-31.4-.4c-.4-.2-.8-.3-1-.2l-.3-.1c0-.4 1.4-.6 1.8-.2.6.6.2 1-.5.5zm90.2.2c0-.2.2-.3.4-.3s.4.1.4.3l-.4.2c-.2 0-.4 0-.4-.2zM85.7 73c-.1-.6 0-.8.1-.6.2.2.5.3.8.3.5 0 .5 0 0 .5-.6.8-.8.7-1-.2zm-69.2 0c-.4-.7-.4-1.3 0-1.5.4-.3.7.2.5 1.2-.2.9-.2.9-.5.3zm52.9-.1-.3-1c0-.4.6-.5 1.1-.2.4.2.6.1 1-.2.3-.3.7-.4 1.3-.3 1 .3.8.5-.3.6-.7 0-1 .1-1 .6 0 .6-.4.8-.7.3-.3-.4-.6-.3-.7.3-.1.6-.1.6-.4-.1zm50.9.3c-.3-.3.1-.3.6 0 .4.3.3.3 0 .3s-.6-.1-.6-.3zm2.5 0c1-.3 1.8-.3 1.8 0 0 .2-.5.3-1.2.3-1 0-1.2-.1-.6-.3zm100 0c0-.1.2-.3.4-.3l.3.3c0 .2 0 .3-.3.3s-.4-.1-.4-.3zm-221-.4c-.4-.2-.4-.4-.2-.4.3 0 .3-.5.2-2.7-.1-2 0-2.9.2-3 .2-.2.4-.3.5-.2.2.3.2 6.7 0 6.7l-.8-.4zm9.5.2c-.2-.3.2-2.1.6-2.6.6-.7.8-.4.3.5-.4.6-.5 1-.3 1.4.2.6.1 1-.3 1l-.3-.3zm106.3 0c0-.2.2-.3.7-.3.5 0 .7.1.6.3l-.6.2c-.3 0-.6 0-.7-.2zm65.5 0c0-.2.5-.3 1-.3.6 0 1.1.1 1.1.3l-1 .2c-.6 0-1.1 0-1.1-.2zm-151.9-.3c0-.7-.9-1.3-1.7-1.4h-.8l.8-.2a3 3 0 0 1 1 0c.5 0 1 1.2.9 1.6-.1.3-.1.3-.2 0zm138.8 0c-.3-.4 1.7-1.3 3-1.3 1 0 .6.5-.6.6-.6.1-1.3.4-1.7.6-.3.2-.6.3-.7.1zm16.2 0 .5.1c.1 0 0 .2-.3.1-.3 0-.4 0-.2-.1zm28.4 0c0-.3.6-.8 1-.8.7 0 .7.2.1.7-.5.4-1.1.5-1.1.2zm4.9-.3c-.2-.2.5-.5 1.2-.5.8 0 .4.6-.4.7-.4 0-.8 0-.8-.2zM78 71.8c0-.6-.8-1-1.6-.7-.4.2-.5.2-.4 0 .5-.8 2-.7 2.5.1.4.5.3 1-.2 1a.4.4 0 0 1-.3-.4zm-37.2-.5c-.3-.5-.4-.5-1-.2s-.9.3-1.4 0l-1.5-.3c-.5 0-.7 0-.6-.2.1-.2.9-.3 2.3-.1 2.4.2 3.6.5 3.4 1-.2.6-.7.5-1.2-.2zm34 .2a.9.9 0 0 0-.9-.3c-.2 0-.4 0-.3-.1 0-.1.4-.3.8-.3.6 0 1.4.7 1 1-.2 0-.5 0-.6-.3zm-19.2-.2c-.1-.1.1-.6.6-1 .5-.3.9-.8.9-1 0-.3.2-.8.5-1.1l.6-.7.1 1.2c.1 1.3.7 1.5 1.3.3.6-1 .9-1 1-.3.2.7.6.7.9.1.2-.3.3-.3.8 0 .6.3.7.3 1-.3.3-.3.7-.6 1-.6.6 0 .7.1.5.7-.2.9.6 1 1.4 0 .5-.4.6-.4.6 0S66 70 65.3 70c-.3 0-.5 0-.6.2-.1.2-.5 0-.9-.3l-.7-.5-1.4.5c-1 .5-1.5.5-1.8.3-.4-.4-1 0-.8.5.1.3 0 .3-.8.2-.6-.1-1 0-1.5.2-.7.5-.9.5-1.1.1zm24 0 .4-.2v.3c0 .1 0 .2-.2.2s-.2 0-.1-.2zm-25.3-.8c.4-.3.7-.5.8-.4.1.1 0 .4-.3.6-.8.6-1.1.5-.5-.2zm47.3.3c.3-.2.6-.2.8 0 .2.2 0 .3-.5.3-.7 0-.7 0-.3-.3zm96.7 0 .3-.2c.2 0 .2.1.1.2 0 .2-.2.3-.2.3-.1 0-.2-.1-.2-.3zm-170-.2c-.1-.2-.4-.9-.4-1.4-.1-.6-.4-1.3-.6-1.5-.5-.6-.3-4 .3-4 .3 0 .3.2.2.5l-.3 1.5c-.1 1 0 1.2.2 1.2.3 0 .5.5.7 1.5.4 1.8.4 2.8 0 2.2zm18.8-.5a6.7 6.7 0 0 1-1.2-3.8c0-.7-.1-1-.5-1.3-.6-.4-.6-.5-.3-2.9.3-3 0-9.3-.6-12-.7-3-2.8-6.3-2.8-4.4 0 1.2-1.8 4.2-2.5 4.2-.5 0-1-1-.7-1.3.1-.2.3-.2.4 0 .3.5 1 .3 1.5-.6.4-.8.5-1.2.4-2.2l-.5-2c-.2-.6-.2-.8 0-1 .4-.4.5-2 .2-2.8-.2-.6-1-.5-1 .2S37.7 43 37 43c-.8 0-.6-.4.5-.9.8-.3 1.1-.6 1.4-1.3.3-1 2.3-3.3 2.6-3 0 0 0 .4-.4.7-.3.3-.3.6-.2.8.3.4.7 2 .7 3.3 0 .7.2 1 1.3 1.5.8.5 1.3 1 1.3 1.3 0 .2.2.7.5 1 1.3 1.2 2 4.1 1.7 7.3-.3 2.6 0 11 .5 13.3.1 1 .5 2 .8 2.3.5.5.6 1 .3 1.3-.2 0-.5-.2-.8-.6zm-3.5-24.8c0-.2-.2-.4-.3-.4-.2 0-.3.2-.3.4s.1.4.3.4c.1 0 .3-.2.3-.4zm5.9 25c-.6-1.6-.8-2-1.5-2.7-.8-.6-1-1.5-.3-1.7.5-.1 2.5 3.3 2.5 4.3 0 .8-.5.9-.7.2zm151.9 0c-.1-.1.1-.3.5-.4 1-.2 2.6 0 2.7.4.1.3 0 .3-.5.1-.8-.2-1.2-.2-2 0h-.7zm-171-.6c0-.3 0-.6.2-.8a24 24 0 0 0 2.6-8c.1-1 .3-1.8.5-1.9.4-.1.4.6 0 2.9a35.7 35.7 0 0 1-2.3 7.6c0 1-.7 1.1-1 .2zm21-1.1c-.2-1.6-.3-1.4 1.9-4 .6-.7 2.2-.6 2.2.2 0 .7-.5.8-1.2.4-.6-.5-.7-.5-1.3.6-.5.7-.7 1.3-.6 2.2 0 .8-.1 1.4-.4 1.7-.4.4-.4.3-.6-1.1zm-18.4.8c0-.2.2-.4.4-.4s.4.1.3.3c-.2.5-.7.6-.7.1zm2.8.2c-.1-.2 0-.4.1-.5.4-.2.5 0 .3.4-.2.2-.3.3-.4 0zm-31-1.2c0-1 0-1.6.4-1.4.3.2.3 2.3 0 2.3-.1 0-.3-.4-.3-.9zm33.8.3c-.4-.5-.5-9.8-.2-10.3.4-.6.7 1.8.8 6.2.1 3.8 0 4.8-.6 4zm17.8-.5a110.7 110.7 0 0 1 1.3-6.5c-.1-.8 0-1 .3-.9.4.1.5.4.5 2.1 0 1.7-.1 2.1-.6 2.8-.4.5-.6 1-.5 1.3 0 .2-.2.8-.5 1.2l-.7 1zm-21.7.3c-.2-.4.2-1 .9-1.7.4-.4.5-.9.5-1.6 0-1 0-1-.3-.6-.6.7-.6.2 0-1.5.2-.8.3-1.5.2-1.8-.2-.5.1-1.3.4-1.3.4 0 .3 6.1 0 7-.3 1-1.5 1.9-1.7 1.5zm7.7-.2c-.3-1-.4-2.2-.2-2.3.2-.1.3 0 .3.3 0 .6 1.3 1.9 2 1.9l.4.2c0 .3-2.5.2-2.5 0zm143.6 0c-.2-.6.3-1.1.7-.7.4.3.2 1.1-.3 1.1l-.4-.4zM30.3 66.4c.5-3.2 0-8-.5-5.7-.4 1.7-.8 2.5-1 2.4-.2 0-.3-.6-.3-1.3.1-1.3-.2-2.2-1.6-4.2-1.3-1.8-2-4-1.2-4 .2 0 .5.6.7 1.2.2.7.8 2 1.4 3 1 1.4 1.2 1.6 1.3 1.2v-1.4c-.3-1.4-.2-2.7.2-2.8.2-.1.3.4.4 1.7 0 1 0 2 .2 2.3.3.7.3.8.5-2 .2-1.7.3-2.5.7-2.8.4-.5.4-.4.2.4-.1.8-.2 5 0 5.3l1.4-2.9c.7-1.6 1.3-2.9 1.5-2.9l.2.1-1.6 3.6a15 15 0 0 0-1.3 6.4c0 2.8-.3 3.8-.9 3.9-.4 0-.5 0-.3-1.5zm40.5 1.3c-1.2-.2-1.3-.2-.5-.3 1.5-.3 5.9-.3 5.9 0a10 10 0 0 1-5.4.3zm6.5 0-.7-.4h.7c1-.2 1.6 0 1.4.4-.2.3-.6.3-1.4 0zm-33-.6c-.6-.6-.8-1.5-.4-1.5.3 0 1 .7 1.3 1.5.4.8-.2.8-1 0zm124 .2v-.6c.3-.2 1.3.2 1.2.5-.1.5-1 .6-1.1 0zm-101.5-.1c-.2-.4 1.8-2.2 2.1-2 .3.3 1.3.2 2-.3.3-.2.5-.7.5-1.2.1-1.3 0-1.5-.3-1.1-.2.2-.5.3-.7.3-.3 0-.2-.1.2-.4l.6-.7c0-.3-1.4-1.3-1.7-1.3-.8 0-1 0-.8-.2.7-.7 3.7 1.4 3.4 2.3 0 .2 0 1 .2 1.6.3 1 .4 1 1 1 1 0 1 .5.2.9-.4.2-.7.2-1.3 0-1-.3-2.3 0-3.3.6-.8.6-1.8.8-2 .5zm94.2 0-2-.1c-1.5 0-2-.2-2-.5s.5-.4 2-.4c2 0 3 .2 3 .7 0 .2-.8.5-1 .3zm36 0c-.1-.2 0-.3.1-.3.2 0 .3.1.3.2l-.1.3-.3-.3zm19.9-.5h.7l-.4.1h-.3zm-65.1-.3c-.4-.4-.1-.4 1.7-.5 1 0 2.2 0 2.5-.2.5-.2.6-.1.6.2 0 .2-.2.5-.6.5-.8.3-4 .3-4.2 0zm17.3-.3 1-.8 3-1.5c1.6-.8 2.8-1.1 2.8-.7 0 .2-.5.5-1.1.7-.7.3-1.4.7-1.5 1-.2.3-.6.5-1 .5s-1 .2-1.5.5c-.8.6-1.7.7-1.7.3zm26.6 0s0-.3.3-.6c.3-.4.4-.6 0-1.2 0-.4-.2-.7 0-.8.2-.3.8.7.8 1.3 0 .6-.8 1.6-1 1.4zm6 0c-.2-.4.6-.8 1.3-.7.9.3 1.2.7.5.7a5 5 0 0 0-1 .1h-.7zM75.6 66c-.4 0-.6-.3-.6-.6 0-.5.1-.5.5-.4.6.2 1.4-.2 2.2-1 .6-.6.6-1.3 0-1.3-.2 0-.3 0-.2-.3.2-.2.3-.5.3-.8 0-.3.2-.7.6-.9l.5-.4-.4 1c-.3.8-.3 1 0 1.2.1.1.2.5 0 1v1l1.9-.2c2.5-.2 3.6-.9 4.2-2.4.4-1 .4-1.4-.5-3.5-.3-.6.3-.5.6.2.7 1.3.8 2.3.4 3.4-.3 1-.3 1 .3 1a38.5 38.5 0 0 1 7.3-.3c0 .2-.2.3-.5.3a56 56 0 0 0-7.6 1c-1.4.6-3.1 1-4.9.9-1.9 0-2.7.1-2.5.6.1.3-.4.7-.9.7l-.7-.2zm118.4 0c0-.2.2-.3.3-.3.1 0 .3 0 .4.2 0 .2 0 .3-.2.3-.3 0-.5-.1-.5-.3zm-132.4-.3c-.3-.5.2-1.3 1-1.6 1.1-.5 1.2-.2.1.9-.5.5-1 .8-1 .7zM.5 65c0-.4.2-.5.6-.5.7.1.7.2.3-3.5l-.2-2 .8-.3c1.2-.5 1.2-.5 1 2.6l-.2 3h.7c.4 0 .7 0 .7.2 0 .1-.3.3-.7.3-.4 0-1 .1-1.3.4-.8.5-1.7.5-1.7-.2zm47.7-.6c0-1.1 0-1.2.7-.3.3.6.3.7 0 1-.6.3-.7.2-.7-.7zm131-.1c-.7-.5-1.6-1-2-1-.4-.1-.7-.3-.6-.5.1-.6 1-.4 2.4.4 1.5.8 1.8.8 2.5 0 .1-.3.5-.6.7-.6a3 3 0 0 0 1.2-.3c1.4-.9 1.7-1 3.4-.6 1.9.4 2.5.9 2.3 1.7-.3.8-1 .7-1 0 .1-.5 0-.6-1-.8-.7 0-1.4-.2-1.6-.3-.1-.1-.5 0-.8.3-.3.3-.9.6-1.3.6-.7 0-1.6.7-1.6 1.2 0 .1-.4.4-.8.5-.6.3-.8.2-1.9-.6zm-110.9.1c-.2-.1-.3-.5-.3-.7 0-.4.2-.5 1-.5h.8l-.4.8c-.5.9-.6.9-1 .4zm-62.2-.1c-.2-.2 0-.4 1.2-.7a83 83 0 0 0 1.9-.5c.2-.1.2-1 .2-3l.1-3c.6 0 1 1 1 3 .2 2.3-.2 3.4-1 3.8-1 .4-3 .6-3.4.4zm198.6-.1c.2-.3 1.7-.3 1.7 0 0 .2-.4.3-1 .2-.4 0-.8 0-.7-.2zm3.5 0c0-.4 1.8-1 2.5-.9 1.1.3 1.2.8.1.6-.7-.2-1 0-1.2.2-.4.4-1.4.6-1.4.2zm4.7 0c-.1 0 0-.3.2-.5.4-.3 2.2-.2 2 .1 0 .2-.4.3-.7.2-.4 0-.8 0-1 .2-.2.2-.4.2-.5 0zm-92.3-.4c-1-.3-1.1-.4-.8-.7a39.5 39.5 0 0 1 8.5 0c.4.4-.8.6-3.9.7h-3.8zm-70.9-.3c-.2-1.2.9-3 1.4-2.1.3.5.3 1.4-.1 1.7-.5.4-1.3.6-1.3.4zm43.6-.3c-.3 0-.4-.2-.2-.4.3-.3.5-.3 1.1-.1.7.2 3.1.2 6.8-.1.4 0 .7 0 .8.2 0 .3-.2.4-1 .4a126.8 126.8 0 0 0-7.5 0zm21.8-.3c0-.3.3-.3.8 0 .3.2.3.3-.2.3-.3 0-.6-.1-.6-.3zm74.7 0c0-.2 0-.3.4-.4l.9-.4.8-.2c.2 0 .5-.3.5-.7.2-1.4 5.6-2.7 6.4-1.6.3.3.6.4 1 .3.5-.1.8 0 1 .3.2.3.3.4.6.1.3-.2.5-.2.9.1l.4.4-2 .2c-1.4 0-1.8 0-2.2-.4-.2-.3-1-.6-1.6-.7-1-.2-1.2-.1-1.7.3-.3.2-.8.5-1.2.5-.6 0-.7.1-.8.6 0 .3-.3.7-.5.8a2 2 0 0 0-.8.5c-.3.4-1.9.6-2 .3zm-176.4-.2c-.2-.3.9-.8 1.7-.8.8 0 1-.7 1-2.8.1-1.4.3-2.3.5-2.6.7-.8-.1-1.3-1-.6-.4.4-2.9.8-2.9.4l1.9-1c1.4-.5 2-.6 2.3-.4.9.5 1.4 1.9 1.5 3.9.2 1.7.1 2-.2 2l-.6-.3c0-.2-.1-.1-.1.2 0 .7-1 1.6-2.2 1.8l-1.3.3-.6-.1zm89.4 0c0-.2 1-.3 2-.3 1.2 0 1.8 0 1.7.2-.1.2-1 .3-2 .3-1.2 0-1.8 0-1.7-.3zm4.5 0c-.2-.3.8-.6 2.1-.6h1l-1 .4c-1.2.5-1.9.5-2 .2zm43-.6.2-.2c.2 0 .3 0 .3.2s-.1.3-.3.3a.3.3 0 0 1-.2-.3zm-36.8-.3c-.4-.2-.3-.3 1.8-.7 1-.3 1.4-.5 1.5-1 .1-.5.2-.5.5 0 .2.2.7.4 1.2.4h.9l-.1-2.2c-.1-2.4.3-3.1.5-.7.1 2 .2 2 1.2 2h1l-.2-2.7c-.2-3.3.1-3.5.5-.3s.4 3.3 0 3.5c0 0 0 .2.3.2s.7-.2.8-.5c.2-.3.5-.4.6-.3 0 .1-.1.4-.4.7-.4.4-.9.5-2.6.6-1.1 0-2.5.1-3 .3l-1.8.2c-.5 0-1.2.2-1.6.4-.5.2-.9.3-1.1.1zm-51.7-.3c-.3-.6 0-1.3.4-1.2.5.2.6.6.1 1.2-.3.4-.4.5-.5 0zm90.5.2c0-.1.2-.5.7-.8l1.8-1.4c.5-.5 1-.8 1.1-.8l1-.7c.7-.4 1.1-.6 1.8-.5.5.1.8.3.8.5 0 .3-1.4 1-2.2 1-.2 0-.8.3-1.3.7-.6.5-1.2.8-1.3.8l-1 .7c-1 .7-1.1.7-1.4.5zm-114.9-.4.3-.2.1.2c0 .2 0 .3-.2.3s-.3-.1-.2-.3zm11 .1c-.2 0-.2-.7-.2-1.4 0-1.2 0-1.3.5-1 .6.4.9 1.3.6 2-.1.6-.6.8-1 .4zm172.3-.2c-1-.6-1.7-1.3-1.4-1.6.2-.1.5 0 .8.2.3.3.9.5 1.3.5.8 0 .9 0 .8.6-.1.6-.6.8-1.5.3zm-169-1c-.1-.4 0-.7.4-1 .5-.4.6-.5.2-.7-.2-.1-.6-.7-1-1.4-.5-1-.5-1.2-.1-1.8a2 2 0 0 1 1-.7c.6-.2.7-.4.8-1.6.2-1.8 0-2-.8-1.9-.5.1-.6.1-.5-.1 0-.2.5-.4 1-.5h.8l-.2-1.3-.3-3c-.2-2-.4-2.6-1.3-2.6-.7 0-.8-.3-.3-.7.3-.3-.6-2.8-1.3-3.3-.4-.4-.5-2 0-2.3.1 0 .3 0 .4.2 0 .1.5.3 1.1.3 1 0 1.4.3.8.6-.2.1-.3.4-.2.6 0 .1-.1.4-.5.6-.3.2-.6.4-.6.6 0 .4 1.1 2.4 1.6 2.8l.6 1c0 .8 0 .8.3-.1l.2-1 .2.8v2.2l.1 3.3c.2 1.5.3 1.8.7 1.8.6 0 .6.4.1.8-.8.9-1.2 1.8-1 2.5.1.5 0 .7-.8 1-.6.1-1 .4-1 .6l.7 1.6c.8 1.6.8 2 .1 2.7-.7.7-1 .7-1.2 0zm161.5.1c-.5-.3-.8-.8-1.1-2.1-.5-2.2-.5-2.2 0-2.2.3 0 .4-.3.4-1.2 0-.7-.2-1.4-.3-1.6-.2-.2-.2-.5-.1-1 .1-.3.2-.8.1-1.1 0-.4 0-.8.2-1 .4-.4 0-3.6-.3-3.6-.2 0-.5.3-.6.6-.1.5-.2.5-.3.1 0-.4-.3-.5-1.1-.4-.8.2-1 0-1-.2s.2-.4.5-.4c1 0 2.3-1.4 2.3-2.4 0-.6.2-.7.6-.8 1.3 0 1.4 0 1.5-.6 0-.3-.2-.8-.5-1-.5-.5-.5-.5-.8 0-.2.4-.5.6-.6.6-.4 0-.2-.8.6-2.4.6-1 .9-2.2 1-3.3.1-1.5.1-1.7-.4-1.8-.6-.2-.6-.2-.1-.8.8-.9 1.2-1.7 1-2.3-.2-.4 0-.5.5-.5.8 0 .8.1.1 1.5-.5 1.2-.5 2 0 4.8.3 1.1.3 1.5 0 2.3-.4.7-.5 1.2-.3 2.8.3 2 .2 2-.5 2-.2 0-.6.3-.7.6-.4.6-.3 14.3 0 14.4.3 0 .4-1.5.4-4.1 0-3.8 0-4.8.5-4.4.3.3.3 9.8 0 9.9-.2 0-.6-.1-1-.4zm1-21.1.4-1c0-.7-.5-.5-.6.2l-.3 1c-.4.8.2.6.5-.2zm8.4 21.2c-.2-.6.3-1 .7-.6.3.5.2 1-.3 1l-.4-.4zm-203-.2c0-.2.2-.3 2.2-1.1 1-.4 1-.5 1-3.7 0-1.4 0-1.9.3-2.3.5-.5.2-1-.4-.6-.4.3-3.1.5-3.3.3-.2-.4-.3-3.4 0-3.4l.3 1c.3 1.7.3 1.7 1.7 1.5.7 0 1.6-.3 2-.4l1.1-.2c.5 0 .5.7 0 .9-.5.1-.5.5-.5 3.7l.1 3.5-1.1.2c-.6 0-1.3.3-1.4.4-.5.3-1.8.5-2 .2zm191-.3c-.4-.6-1-2-1-2.4 0-.3.1-.4.4-.4.5.2 1.6 2.6 1.2 3-.2.1-.3 0-.5-.2zm-85-.7a10 10 0 0 1 1.7-.6c.6-.2.6-.2.1.1l-.9.7c-.2.2-.7.3-1 .3-.7 0-.7 0 .2-.5zm27.3.3.3-.4c.2-.2.3-.6.2-1.2-.2-1.2.3-1.5.8-.6s.4 1.6-.3 2c-.8.5-1 .5-1 .2zm49.2 0-.2-.6c0-.3-.1-.5-.3-.5-.1 0-.4-.2-.5-.5-.5-.9 0-1.3 1.7-1.3 1.5 0 1.7-.2 1.7-1.4 0-.6 1.6-1.4 2-1 .2.2 0 .5-.6 1-.5.5-.8.9-.7 1 .2.5-.5.8-1.8.8-1.4 0-1.7.1-1.4.7 0 .3.3.4.8.3.5-.1.7 0 .7.2 0 .3-.2.5-.4.5-.2.1-.2.3 0 .6.4.4.4.4-.2.4l-.8-.1zM151 58c0-.9 0-1.3.2-1.2.2 0 .3.7.3 1.3 0 .7-.1 1.2-.3 1.2-.1 0-.2-.6-.2-1.3zM80 58c.1-.7 0-1.1-.8-2a6 6 0 0 1-1-2c-.3-1-1.1-1.4-2.5-1.4-.8 0-1-.1-1-.6 0-1.3-.2-2.4-.4-2.6a5 5 0 0 0-1.7-.3c-1.6 0-2.5-.6-1.8-1 .2-.2.5-.3.7-.3.2 0 .4-.2.5-.5.1-.4 2-1.6 2.4-1.6l-1 1.2c-.7.7-1.3 1.3-1.3 1.5 0 .1.7.2 1.5.2 1.3 0 1.4 0 1.6.7v1c-.3 1 .2 1.4 1 1.1.5-.2 3.1-.2 6.6-.1h6.2c.3 0 .4-.6.2-2.3v-2.2c.4 0 1 2 .8 2.9-.2 1.2 0 1.5 1.2 1.6.5 0 .9.2.8.4 0 .2-7 .3-12.3.1h-2.4c-.1.2.2.6.6 1 .5.5.8 1 .8 1.2 0 .2.5.9 1 1.5 1 1.3 1.1 2.2.6 3-.4.4-.4.4-.3-.5zm43.5-3c-.6-6.2-.6-9-.3-10.8.2-1.2.2-1.6-.1-1.9-.6-.6-.8-.2-1 1.9-.2 2.2-.7 3.4-1.3 3.4-.5 0-.8-.6-.8-1.7 0-.8 0-.8.3-.3.1.4.4.6.6.6.5 0 .6-.4.8-2.7.2-2 .7-3.6 1.2-3.6.2 0 .3.2.1.6-.1.8.3 1.1.7.6.2-.3.3-.8.2-1.5 0-.7 0-1 .2-1 .4.2.2 3.4-.2 4-.4.4-.6 5.6-.2 9.5.4 4.8.5 6.8.3 6.8l-.5-4zm38.7 3.7c0-.2-.5-.3-1-.3-.7 0-1-.4-.3-.7l1.3-.2c1 0 1.4-.3 1-.7-.2-.3-.2-.6.2-1.3.7-1 .7-1.2-.3-1.5-.8-.4-1-.6-.4-1.3.3-.3.4-.7.4-1 0-.2.3-.6.7-.7 1-.5.8-.8-.6-.7-1.2 0-1.2 0-1.3-.7-.1-.6-.2-.7-1.3-.8-1.8-.3-2-.5-2-1.7l-.5-1.7c-.3-.6-.3-.8 0-1.1.4-.4 1-.3.7.1-.2.3 1 1.6 1.5 1.6s.2.5-.5.8c-1.5.5-.3 1.4 2.3 1.6.7.1 1.3.4 1.6.7.2.3.8.6 1.3.6 1.2.1 1.3.6.3 1-.7.2-.8.4-.7.8.1.4 0 .6-.5.9-.8.3-.9 1-.3 1.2.7.2 1 1.3.6 2-.6.8.1 1 1.3.5.6-.3 1.3-.6 1.6-.6.6 0 .6 0 .2.7-.3.4-.7.6-1.1.6-.4 0-1 .4-1.6 1-.9 1-2.2 1.4-2.6 1zm36.6-.2c-.3-.8-.2-1.7.2-1.7.3 0 .4.3.4.8v1c0 .4-.5.3-.6 0zM.4 58.1c-.2-.3 0-.7.7-.7.6 0 .6.2.2.7-.4.4-.7.4-.9 0zm35.3-.8c0-.9.1-1 .3-.6.3.7.3 1.7 0 1.7-.2 0-.3-.5-.3-1.1zm24.6.7c0-.2.1-.4.3-.4.1 0 .3.1.3.3l-.3.4c-.2 0-.3 0-.3-.3zm12.9.2c-.2-.3.1-1.4.4-1.2.3.2.3 1 0 1.3l-.4-.1zm-36.4-1c0-.4 0-.6.2-.5.2 0 .3.4.3.7 0 .3-.1.5-.3.5-.1 0-.2-.3-.2-.7zm2.4.1c0-.3.2-.6.4-.7.3 0 .4.1.3.5 0 .3-.2.7-.4.7-.3.1-.4 0-.3-.5zm32.5.3c0-.2-.4-.3-1-.2-1.2.2-1.5-.2-.6-.8.3-.2.5-.5.5-.9 0-.3 0-.6.3-.7.3 0 .3 0 .2.7-.2.8 0 1 .5 1.2.6.3.9 1 .4 1-.2 0-.3-.2-.3-.3zm3-.8.1-.8c.2 0 .2.4.1.8 0 .5-.1.8-.2.8v-.8zm51.8.5-.2-2.2a42 42 0 0 1-.2-9.4c.2 0 .3 1.7.3 3.8 0 2 .2 4.6.4 5.5.2 1.4.2 2 0 2.2l-.3.1zm2-.2c-.2-.3-.3-5.2 0-6.9l.2-4.2c.1-1.7.3-3.2.5-3.2.3 0 .2 1.4-.2 6.1a45.9 45.9 0 0 0-.1 8.5c-.2 0-.4-.2-.5-.3zM4 55.4c-.4-.6-.6-1.2-.6-2S3.3 52 3 51.7c-.6-.5-.8-.1-.7 1.9 0 1 0 1.8-.2 2-.5.3-.8-1.1-.8-3.8 0-3.8-.1-5-.9-5.2-1-.3 0-.7 2.1-.8 7.4-.5 7.5-.5 7.7-.2.1.2.3 1.7.3 3.2 0 1.6 0 3 .2 3l.1.8c0 1.3 1 1.4 4 .5 1-.4 1.3-.6 1.5-1.1.2-1.1.3-5.5 0-5.7l-2.7-.3a8 8 0 0 1-2.8-.3c-.4-.4.2-.5 3.7-.7 1.9-.1 2.7 0 2.9.1l.2 3c.1 3.2.2 4.2.5 4.6.1.2 0 .4-.2.4-4.6 1.4-6.3 1.8-7 1.4-.6-.2-.7-.2-1 .3-.5.7-1.6.8-1.3.1.3-.6.3-.8 0-1.9-.2-.8-.2-.9.2-.5.5.3.5.1.4-2.7 0-3-.1-3.1-.6-3l-2.5-.2c-3.1-.4-3.4.2-2.4 5 .9 3.8.8 3.7 1.9 3.6 1.5-.2 2-.2 2 0 .1.3-1.8 1-2.6 1-.2 0-.6-.4-1-.9zm45 .4c-.2-.3-.2-.9-.1-1.3 0-.5 0-1.2-.2-1.7-.3-.6-.3-.8 0-1l.2-.9c0-.2.2-.5.4-.6.5-.2.6-1.1.2-1.1-.3 0 .2-2.5.5-2.8.2-.2.3 0 .1.5 0 .4 0 2.2.2 4 .3 3 .3 3.4-.1 3.6-.3.1-.5.5-.5.9 0 .8-.4 1-.7.4zm.8-4.3c-.3-.6-.3-.6-.3 0 0 .2 0 .6.2.7.3.3.3 0 0-.7zm100.1 4.6v-1l-.1-.8c-.2 0-.3-.4-.3-.7 0-.6 0-.6.5 0 .6.5.8 2.5.4 2.6l-.5-.1zm-85.3-.3c0-.2 0-.3.2-.3s.3.1.3.3c0 .1-.1.2-.3.2a.3.3 0 0 1-.2-.2zm27.5 0c0-.2.2-.3.4-.3s.4.1.4.3l-.4.2c-.2 0-.4 0-.4-.2zm-55.4-.9-.2-1.3-.4-2.2c-.4-1.5-.4-3.2 0-3.1.2 0 .3.6.4 1.2L37 51c.2.4.3 4.2 0 4.4l-.2-.5zm3.4.2c-.3-.4-.2-1.4.2-1.4.3 0 .4.2.4.4 0 .6-.3 1.2-.6 1zm22-.5c0-.5 0-.9-.3-1.2-.5-.5-.5-.6 0-1 .6-.8.7-2.3.3-4-.3-1.3-.5-1.5-1-1.4-.6 0-.6 0 .3-.8l.9-.8.3 2.1.6 2.6v1.5c-.7 2.7-.8 3.4-1 3.5-.2.1-.2-.1-.1-.5zm106.6.4c-.1-.2 0-.3.4-.4l1.4-.3c1.3-.3 4-.3 4 0 .2.5-1.1 1-1.7.7-.4-.2-.6-.2-.7 0-.2.3-3.2.3-3.4 0zm8 0-.2-.7c0-.3-.3-1-.7-1.5-.3-.6-.6-1.3-.6-1.6 0-1.2-2.3-4-5.3-6.4-1-.7-1.9-1.5-2-1.7-.3-.5-3.4-3.5-4-3.9-.3-.1-.4-.4-.3-.6.4-.5.9-.3 1.6.7.9 1.4 3.5 4 4.9 5 2.3 1.7 5.3 4.9 5.3 5.6 0 .2.5 1 1 1.7s1 1.7 1 2c0 .6.2.7.7.8.9.1.9 0 .4-2.6-.5-2.2-.3-4.8.4-4.8.2 0 .2.5.1 1.4-.3 2.6.6 5.7 1.8 6.1.2 0 .2.2.1.3-.2.3-4 .5-4.2.3zm12.6 0c-.2-.4 1-1 2-1 .7 0 .9-.2 1.3-1.3.8-1.6 1.1-1.2.6.7l-.4 1.5-1.2-.1c-.8-.1-1.4 0-1.5.1-.2.4-.6.4-.8 0zm-154.2-.6c-.2-.8-.2-1.7 0-1.5l.3 1.1c.3 1 0 1.4-.3.4zm31 .4c0-.7.6-2.2 1-2.3.5-.2.5 0 0 .7a2 2 0 0 0-.4 1c0 .3-.1.6-.3.6h-.3zm87.3-.4c-.5-.2-.7-1.3-.2-1.3l.7.6c.5.6.2 1.1-.5.7zm4 .1.4-.7c.4-.6 1-.3.5.3-.3.5-.9.8-.9.4zm49.6 0c0-.2 0-.4.2-.4.1-.1.2 0 .2.2 0 .5-.1.5-.4.2zm-23.2-.3c-.1-.2 0-.3.6-.3.4 0 .8 0 .8-.2 0-.4-2.2-.6-2.5-.3-.3.4-.7.3-.7 0 0-.6 2-1 2.5-.7.6.4.7.2.8-1.2 0-1.2-1.2-4.4-1.8-4.8-.6-.4-1.3-1.7-1.5-2.8a19 19 0 0 1-.2-5.6 88.3 88.3 0 0 0 .9 5.3c0 .7.3 1.4 1 2.2a9.6 9.6 0 0 1 2 4c.5 1.5 1 2 1.5 1.5.3-.2.4-.8.4-1.7 0-1.4-.2-1.8-1.2-3.2-.3-.5-.5-1.3-.6-2.6 0-1-.2-2-.3-2.2-.5-.5-.4-1.8.2-3.5.6-1.6 1.2-2.4 1.5-2.1.1 0-.2 1-.7 2-.8 1.6-.8 1.8-.5 2.9l.3 1.9c0 1 .7 3.5 1.1 4 .3.2.5.2 1 0 .6-.3.6-.6.1 2.8-.1 1.1.2 2 .7 2 .3 0 1-1.5 1-2a192.9 192.9 0 0 0 4-9c.5-.8 1.3-4.4 1.3-5.3 0-.3 0-.4-.3-.3-.2.1-.2-.3 0-1.4.4-3.3 0-5.7-1.3-7.5-.6-.8-.5-1.3.1-.8l1.1 1.7c.7 1.2.8 1.6.8 3.7 0 1.3 0 2.3.2 2.3l.2-.4c0-.6.7-2.5.9-2.5v.6a446.3 446.3 0 0 1-2.7 10.6c-.3 1-1 2.5-1.4 3.3-1.2 2-2 3.9-2 4.7a7 7 0 0 1-.7 2l-.8 1.9c-.2.6-.7.6-.7 0s-.4-1-1.2-1.3c-.6-.1-.6 0-.6 1 0 1.2 0 1.3-.8 1.3l-1.6.1h-1zm2.4-2c-.1-.1-.2 0-.2.2 0 .3 0 .5.2.4v-.5zm-114.4.9c0-.7 0-1 .2-.7.3.4.3 1.8 0 1.8 0 0-.2-.5-.2-1.1zm44.8 0c.2-1.2.3-1.5.5-1.2.2.2-.2 2.3-.5 2.3-.1 0-.2-.5 0-1.1zm79.6 0c0-.3.3-.7.4-.8.7-.4 0-.8-1.2-.6-.7.1-1 0-.8-.1.1-.2.7-.3 1.3-.4 1 0 1.1-.1 2.4-2.4 1-1.7 1.4-2.7 1.6-3.8.2-1.4.5-1.8.7-1 .4.9-1.3 5.2-2.8 7.1l-.4.9c0 .1 0 .5-.2.7-.1.3 0 .4.5.4s.5.1-.3.4c-1.3.5-1.4.5-1.2-.3zm11.8.4c0-.2.2-.4.4-.4.4 0 .4.6-.1.8-.2 0-.3-.1-.3-.4zM87.3 53h.5c0 .2-.1.2-.4.2-.3 0-.3 0-.1-.2zm123-.2c0-.2-.1-.5-.4-.5-.5-.2-.5-.7 0-.7.4 0 1 .8 1 1.3 0 .2-.1.3-.3.3-.1 0-.3-.2-.3-.4zM99 52.6c0-.2 0-.3.2-.3s.3.1.3.3c0 .1-.1.3-.3.3a.3.3 0 0 1-.2-.3zm19.5-1.6-.4-4a20 20 0 0 1-.3-5c0-2.3 0-2.9-.2-2.9s-.4-.2-.4-.5.1-.6.3-.6l.8-.4c.5-.5.5-.5.4 1-.2 1-.1 1.7 0 2 .3.2.3.5.1 1-.4 1.4-.5 3.1-.2 3 .2 0 .4-.5.5-.9.1-1 .9-1 1-.1 0 .4 0 .6-.3.4-.6-.2-.8 1-.8 5.2 0 2-.1 3.7-.2 3.7-.2 0-.3-.9-.3-2zm34.1 1.2c-.8-.6-1-1-.4-1 .3 0 1.5 1.2 1.5 1.5 0 .3-.4.1-1.1-.5zm48.5.1c0-.3.2-.5.6-.5 1 0 1 .3.3.7-1 .5-1 .5-1-.2zM28.9 52l-1.3-1.7c-.5-.6-1-1.4-1-1.8l-.3-.7v.8l-.5.7c-.4 0-.6-1.4-.4-2.1.4-1 1-.6 1.6.9.3.7.8 1.5 1.1 1.8.6.5 1.8 2.3 1.8 2.7 0 .3-.6 0-1-.6zm188.7.5c-.9-.1-.8-.5 0-.8 1-.3 1.5-.2 1.5.3 0 .3-.7.8-1 .7l-.5-.2zm-183.1-1c-.5-1.6-.6-2.2-.4-2.5.1-.1.4.5.5 1.5.4 1.9.3 2.5-.1 1zM183 52c0-.2.2-.3.5-.3s.5.1.4.3l-.5.2c-.2 0-.4 0-.4-.2zm22.1-.2c-.2-.2-.4-.7-.4-1 0-.6-1.3-1.3-2.1-1.2-.3 0-.4 0-.1-.3.2-.2.3-.6.3-.8 0-.3.2-.5.3-.4.2.1.2.4.2.6-.1.2 0 .4.1.5l1.5.4c1 .3 1 .3 1.6-.2.3-.4.6-1 .7-1.7.2-1.1.5-1.5 1-1 .2.2.1.6-.3 1.5a6 6 0 0 1-1.1 1.5c-.3.1-.6.5-.8.9-.4.8.3 1 1.5.4.8-.4 1-.6.8-1.2 0-.8.4-1.2.6-.4.2 1-.3 1.8-1.4 2.3-1.3.6-1.9.7-2.4.1zm-111.5-.4c-.8-.2 5-.6 7.3-.5.8 0 1.8-.2 2.3-.4.8-.3 1-.5 1-1.1l.1-2c.2-1.2.2-1.3-.5-1.3l-1.9.4c-.9.2-1.4.2-2.4-.1-1.1-.4-1.2-.4-.5-.6h1.4c.4.3 1 .2 2.3-.3 1.7-.5 1.7-.6 1.6-1.3-.2-1.2-.8-1.6-2-1.6-.7 0-1.2-.2-1.3-.3 0-.2.9-1 2-1.7l3-2.3 2-1.4c1-.5 1.1-.6 1.3-2.1.3-2.9-.8-13-1.6-13.8-.5-.6-.5-.9 0-1.3.6-.5 1.8-3.2 2.7-6 .4-1.3 1.2-3.3 1.8-4.6.6-1.2 1-2.4 1-2.5v-.6c.2-.3.3-.3.6 0 .5.3.9-.2.4-.7-.4-.4-.3-.7.4-.7.4 0 .6.2.8.6.2 1 .5 1 4.7 1.1A283.5 283.5 0 0 1 142 7.8a4 4 0 0 1 1.8.1c.8.3 1 .3 1.8-.3.9-.7 2.2-1.2 1.9-.8 0 .2-1 .7-2 1.2a70 70 0 0 0-3 1.9c-1.7 1-4.4 2.3-4.5 2.2l1.4-.9c1.8-1 2.4-1.4 2.4-2 0-.3-.2-.4-.7-.4l-3-.5c-1.2-.2-4-.5-6.2-.6a181.1 181.1 0 0 1-10.3-.5l-5.3-.2-1.9-.1-.8 1.4c-.5.7-.9 1.6-.9 1.8l-.2.6c-.2 0-.4.5-.6 1a75.3 75.3 0 0 1-3.2 8.4c0 .5.5.2.8-.5l1-1.8c.3-.6.6-1.3.6-1.6 0-.3.4-1 .8-1.7a7 7 0 0 0 1-1.7c0-.4.2-.8.4-.8l.2-.8c0-.8.7-2.3 1-2.3.6 0 2.8 3.6 4.8 8 .3.6.7 1.2 1 1.4l.7 1.1c.5.9.7.4-1.6 4.6l-1.3 1.9c-.8.9-1 1.5-1.1 3 0 .5-.2 1-.3 1-.4.3-.3 1 .1 1 .5 0 .5.2 0 1-.4.8-.5 2-.2 2 .2 0 .2 2.8.2 6.4 0 7-.4 8.4-.6 2.1-.1-4.4-.2-4.4-2-2.8a5 5 0 0 1-1.5 1l-1.4 1.2c-1.2 1-1.2 1.1-1.2 2.7L110 48v1.8h.7c.7.2 1 0 1.2-.5.3-.8.4-4.3 0-5.7-.2-1.1 0-2 .4-1.8.2 0 .3.9.3 2 .1 2.5.3 3.8.6 3.7.2-.2.2-2.7 0-4.6-.2-.9-.1-1 .5-1.5.8-.6 1.1-.4.5.3-.8.8-.4 4.4.5 5.3.4.4.4.4.3-.8v-1.3c.3 0 .9 3.5.9 5.4 0 1.4 0 1.6-.4 1.2-.2-.4-.7-.4-2.1-.3-1 0-2.2 0-2.5-.2-.5-.2-1.3-.2-2.6 0-2.4.4-3.6.5-9.2.6h-5.4zm14.3-1c.4-.3.5-.6.5-2.4l-.2-2.2h-1.4l-1.2.2v2.2c-.1 2-.1 2.1.5 2.3 1 .2 1.2.1 1.8-.1zm-.9-5c.3 0 .7-.2 1-.4.3-.3.3-.4 0-1.2l-.4-1c.3-.2 1 .2 1 .5l.2 1.3.2.9.2-1.2c.3-2 .1-2.1-1.6-2.1-.8 0-1.6 0-1.8.2l-.4 1.5c-.2 1.4 0 1.8.8 1.6l.8-.2zm1-4c1-.1 1.6-.3 2.2-.7.4-.4 1.1-.7 1.5-.8.4-.1 1.4-.8 2.2-1.4.8-.7 1.7-1.3 2-1.4.8-.3.5-2.9-.4-2.9-.3 0-1.6.5-4.8 1.7-.3.1-1.2.7-1.8 1.3l-2.5 2L104 41l-1.2.8 2-.2 3.3-.2zm3.5-6.7c1-.2 4-1.5 4.2-1.7l-.2-.7c-.3-.6-.2-.8.1-1.3.3-.4.4-1 .3-1.9 0-1.1 0-1.4 1.6-3.6l1.7-2.5.6-1.4c.5-1 .5-1.2.1-1.4l-.4-.7c0-.5-1-3.3-1.3-3.5l-1.6-3-1.6-2.8c-.2 0-.4.3-.7.8-.2.4-.5.7-.6.7l-.4 1.2-.4 1.4c-.2 0-.7 1-1.1 1.9a72.3 72.3 0 0 1-1.6 3.8c0 .3-.2.8-.5 1.3-.5.6-.6 1-.4 3.4l.2 3.5.3 2.7.3 2.4c-.2.5 0 1.7.3 1.7l1.1-.3zm.3-3.8.6-3.4c.5-2.3.5-2.8.2-4.2-.5-2.5-.5-2.4.2-2.3.4 0 .8 0 1-.3l1-.2c.6.1.6.2.5 2 0 1-.3 2.6-.4 3.5l-.4 1.8v-2.4l-.1-3c0-.8-.7-1.1-.8-.4l-.1 5.6c0 1.7-.2 2.1-.5 2.1-.2 0-.5.4-.6.8-.2 1-.6 1.3-.6.4zm87.9 20c0-.1.1-.3.4-.3.2 0 .3.2.2.3 0 .2-.3.3-.4.3-.1 0-.2-.1-.2-.3zm-7-.3c0-.2.5-.8 1.1-1.4a7 7 0 0 0 1.9-4.3c0-.8.3-1.1.6-.6.3.4-.3 2.7-1 3.7l-1.2 2c-.6.9-1.3 1.2-1.3.6zM68.4 49.4c0-.8 0-1.1.2-.7V50c-.1.4-.2.1-.2-.7zm48.7 1c0-.4 0-.4.1-.2v.5l-.1-.4zm-94.1-.2c-.2-.2-.3-1.2-.3-2.2a7 7 0 0 0-.2-2l-1.2-.3c-1-.2-1-.2-1.4 1-.5 1.8-.5 1.8-.8.9a3 3 0 0 0-.7-1.2c-.5-.4 0-1.5.7-1.5l1-.1c.6-.3 0-1-1-1-.3 0-.8 0-1.1-.2-.5-.2-.3-.2.7-.4.7-.1 1.4 0 1.7.1.4.2.7.2 1 .1.4-.3 3.3-.8 4.4-.9.7 0 1-.1 1.4-.6.4-.5.4-.5.5 0 .5 1.2.8 1.7 1.8 2.1l1 .7-3.3.3c-1.8 0-3.4.2-3.5.3a10 10 0 0 0 0 2.5c0 2.2-.3 3.1-.7 2.4zm2.6-6c2.4-.1 2.5-.2 2.2-.6-.2-.4-.5-.5-1.6-.4l-2.7.2c-1.2 0-1.3.1-1.4.8 0 .6 0 .7.4.5.3-.2 1.6-.4 3-.5zM155.3 50c0-.6.4-.7.6 0 .3.5.3.6-.2.6-.2 0-.4-.3-.4-.6zm-126-1.3c-1-1-.7-1.3.3-.4.5.4 1 .7 1.3.7.2 0 .3.1.2.3-.3.5-1 .2-1.8-.6zm17.5.3c0-.2.2-.3.3-.3.1 0 .3.1.3.3l-.3.3a.3.3 0 0 1-.3-.3zm14 0 .3-.4h.3c0 .2-.1.4-.3.5-.1.1-.2 0-.2 0zm115.7-1.5c-1-5.4-1.2-8.7-.7-8.7a110.4 110.4 0 0 0 1.6 9.7c.1.3 0 .5-.2.5-.3 0-.5-.5-.7-1.5zM49 46.8c0-.4-.2-.8-.3-.8l-1-1.9a6 6 0 0 0-1-1.8c-.2 0-1.3-2.1-1-2.3 0-.1.3.1.6.5l.5.6-.2-1.2c0-.7-.3-1.3-.5-1.5a.6.6 0 0 1-.2-.7c.2-.7.6-.5.8.2.1.4.3.7.5.7s.5.3.7.8l.9 1.3c.3.3.4.6.3 1-.2.6-.3.6-.7-.4-.8-1.8-1.6-1.4-.9.4.5 1.2 1.4 2 1.4 1.2 0-.9.4 0 .7 1.4.3 1.2.3 1.6 0 1.8l-.5 1c0 .5 0 .5-.1-.3zm21 .3c-.1-.3-.4-.5-.7-.4-.4.1-.5 0-.7-.6l-.2-1.1v-1c.1-.5.3-.6 1.6-.5 1.3.2 1.5.1 2.2-.7.5-.6 1-.8 1.2-.7 1.3.5-.7 1.8-2.8 1.8-1.9 0-2 .2-.6 2l1 1.4c0 .4-.6.3-1-.2zm-11.4 0c-.3-.3-.1-.6.7-1 1-.5 1.3-.3.5.5-.7.7-.9.8-1.2.5zm7-.5c0-.4.3-1.3.7-2.2.7-1.7.9-3.8.6-6.2-.3-1.8 0-2 .5-.3s.4 3.3-.2 5l-.5 2.3c0 .4-.3 1-.5 1.3l-.6.7v-.6zm139.8 0c-.5-.3-.5-.3 0-.8.4-.4.5-.4.7-.1.1.2.5.3.8.2.7-.2.7.1 0 .7-.5.5-.8.5-1.5 0zM57 46.7l.1-.4c.2 0 .3.2.3.3l-.1.3-.3-.3zm39-.1a2 2 0 0 0-.9-.3 2 2 0 0 1-1-.3c-.4-.3-.4-.5-.2-1 .2-.3.2-.8.1-1.2-.1-.5-.2-.6-.8-.5h-.6c0-.3 2.4-.7 2.6-.5 0 0 0 .3-.3.6-.2.2-.4.8-.3 1.2 0 .7.1.8 1 1a3 3 0 0 1 1.3.5c.4.4.4.5 0 .6l-.9-.1zm98.2 0c0-.3.1-.6.3-.7.1 0 .2 0 .2.3 0 .2 0 .4-.2.5-.2.1-.3 0-.3-.2zm-105.1-.8c-.9-.9-.8-1 .3-.4.5.2.8.6.8.8 0 .6-.3.5-1.1-.4zm-44.6-.3c0-.2.4-.4.7-.4.4-.1.6 0 .5.2 0 .2-.4.4-.7.5-.4 0-.6 0-.5-.3zm-9.1-.1c-.2-.2.5-1.7.8-1.7.1 0-.2 1.4-.5 1.7h-.3zm40.3-.5c.2-.2.4-.4.6-.4l-.1.4c-.2.2-.4.4-.6.4-.1 0-.1-.2 0-.4zM0 44.7l-.1-.4c0-.5 6.8-.9 10.3-.7 2.2.1 2.5.2 2 .5a7 7 0 0 1-2.6.3 131 131 0 0 0-9.6.3zm71.8-.2h.5l-.3.1c-.3 0-.4 0-.2-.1zm14.5-.4c-.1-.1 0-.2 0-.2.2 0 .4 0 .5.2v.3c-.2 0-.4-.1-.5-.3zm-30-.5c0-.3 0-.6.2-.7.2 0 .3.1.3.4 0 .3-.1.6-.3.7-.1 0-.2 0-.2-.4zm152 .1c-.5-.3-.5-.4-.1-.6.2-.2.5-.4.5-.6 0-.5 1.1-1.8 1.5-1.8.3 0 .3 0 0 .3l-.3 1.7c0 1-.1 1.3-.6 1.4-.3 0-.8-.1-1-.4zm-146.6-.3.5-.8.4-1.6.2-1.2.3.7c.3.7.2 1-.3 2-.6 1.2-1.4 2-1 1zm98-.4c-.6-.8-.6-1.5.1-1.5.2 0 .4.4.5 1.1l.1 1.2-.7-.8zm-145.3.4h.6c.2.1 0 .2-.3.2s-.5-.1-.3-.2zm175.9-.5a1025 1025 0 0 0 1.1-3.8c0 1-.5 3.4-1 4.1-.3.5-.3.4-.1-.3zm-161.1-.7c-.5-.6-1-1.7-1.3-2.3l-.3-1.3-1.7-.1-5.2-.2c-3 0-3.5 0-4-.5-.3-.3-.4-.7-.3-1 .2-.4.2-.4.6.1.3.3.7.6 1 .6l2.1.2c1 0 1.6 0 1.8-.2.1-.2.3-.2.7 0 .8.4 2 .4 2-.1 0-.2-.2-.4-.4-.4L23 36c-.6-.7-1.2-1.1-1.4-1.1-.3 0-.4-.2-.4-.3 0-.3.3-.3.7 0 .1.2.4.2.6.2.5-.4 0-1-1.4-1.6-1.6-.8-4.5-3.4-3.8-3.4.2 0 .6.2.7.5.5.7 3.2 2.7 3.6 2.7l.4-.1c.2-.2-1-2.4-1.4-2.7-.4-.2 0-.6.5-.4.3 0 1 .5 1.5.9 1.3.8 2.9 1.2 3.5.7.3-.2.4-.2.5.4.2 1 .6.9 1-.1.1-.4.3-.8.5-.8.3 0 .3.2-.2 1.7-.3.9-.4 1.7-.3 2.7v1.5c-.3.2-.9-1.6-.9-2.6l-.2-1.2c-.4-.6-3-1.5-4-1.3-.2 0 0 .6.3 1.4l.5 1.8c0 .8 2.2 2.3 3.5 2.5 1 .2 1.3 0 1.8-.4.7-.7 1-.3.4.5-.2.2-.4.8-.4 1.3 0 1 .8 3 1.6 3.6l.5.7c0 .5-.6.2-1.4-.9zm53.1.5c-.6-.4-.7-.4-.1-.3.7.2 1.6.7 1.2.6l-1-.3zm-21.7-.9c0-.6 0-.7-.9-.6-1.2 0-1.7-.3-1.5-1 .2-.4.2-.4.6 0 .2.3.6.5 1.3.5.9 0 1 0 1 1 0 .4-.2.8-.3.8-.2 0-.3-.3-.2-.7zm4.7 0c0-.3 0-.3.1-.1v.5l-.1-.3zm14.8.2c0-.4.7-.5 1-.1.3.3.2.4-.3.4-.4 0-.7-.1-.7-.3zm90.8-.2c-.4-.7-1.4-3.6-1.4-4 0-.6.4 0 .8 1.2.5 1.5.7 1.7 1 .4a76 76 0 0 1 .8-5.3c0-.4.2-.9.3-1 .3-.2.3-.1-.1 3a253 253 0 0 0-.7 4.3c-.2 1.9-.4 2.1-.7 1.4zM50 41.8c0-.2 0-.4.2-.4.1-.1.2 0 .2.2 0 .5-.1.5-.4.2zm36.7 0c0-.2.3-.2.8-.1 1.2.2 1.3.3.2.3-.6 0-1-.1-1-.2zm2.3-.4c.3-.2.4-.2.6 0 .3.3.2.3-.3.3s-.5 0-.3-.3zm37.1-.6.2-1.2c.2-.4.3-.4.7.2.3.5.4.6 0 .6l-.6.6c-.2.6-.3.6-.3-.2zm2.4.1c-.5-.4-.6-.6-.3-1.1.1-.4.4-.7.6-.7.3 0 .7 1.1.7 1.9 0 .6-.2.6-1 0zm-75.2-.3c-.1-.4-.2-1.2 0-1.7.1-1-.6-4.6-1.2-5.3-.2-.3-.8-.5-2.5-.6-2.4-.1-3-.6-.8-.7.8 0 1.5 0 1.5-.2.5-.4-1.4-2.8-2.3-2.8-.2 0-.5-.1-.6-.3l-1.6-.4c-1-.1-1.7 0-2.6.4-1.8.8-1.5 1.6.5 1 1.4-.2 2-.2 2 0s-.5.4-1 .5L43 31c-.5.2-.5.3-.2.5.2.2.6.3 1 .3 1 0 2.5 1 3.2 1.9 1 1.3 1.2 1.8 1.5 3.2.1 1.3.1 1.3-.3 1-.2-.2-.4-.6-.4-1 0-.7-.9-2.5-1.5-3-.6-.6-3.3-1.4-3.9-1.2-.2.1-.4.4-.4.7 0 .5-.7 1-1 .7 0 0 .1-.7.4-1.3.3-1 .4-1.5.1-2.3-.2-.9-.2-1 .7-1.8.4-.5.8-.8.8-.6 0 .1.7.2 1.9 0 1.7 0 1.9 0 3.2.8 1.5 1 3.5 3 4.1 4.2.6 1.1 1 1.3.8.4l-.3-1.7c-.2-1 0-.7.7 1.3.5 1.4.9 1.4.8 0 0-.8 0-1 .3-1 .5 0 .6-1 .2-2.4-.3-.8-.2-1 .2-1.5.6-.5.6-.5.6.4 0 3.6-.1 5.2-.6 6.3-.6 1.2-.9 1.4-1.1.8v.5c.6 3 .3 6.3-.5 4.5zm168.6-.2-.7-.1.7-.2c.8-.1 1.4 0 1.2.3-.2.3-.3.3-1.2 0zm-142.4-.2h.5c0 .2 0 .2-.4.2-.3 0-.3 0-.1-.2zm128.1 0c0-.1.4-.6.9-1 .4-.4 1-1 1.1-1.3.3-.4.4-.4.6-.2.3.2.1.6-.8 1.5-1.1 1.1-1.8 1.5-1.8 1zm9.7 0c-.2-.3 1-.7 1.5-.5.3.1.4.3.4.4 0 .4-1.7.4-2 0zm2.7 0c0-.2.2-.3.3-.3.1 0 .3.1.3.3l-.3.2a.3.3 0 0 1-.3-.2zM64 40a.7.7 0 0 1-.1-.5h.3l.2.5c-.1.1-.3 0-.4 0zm1.6-.3.1-1.7c0-.7.1-1.3.3-1.3.3 0 .3 2 0 2.9 0 .3-.2.6-.3.6-.2 0-.2-.2-.1-.5zm15-.1c0-.5-.1-.7-1-.8l-1-.1 1.1-.2c.8-.1 1.2-.4 1.3-.7 0-.3.6-.6 1.1-.8l1.4-.7c.1-.2.5-.4.7-.4.5 0 1.6-1 1.6-1.5 0-.2.1-.3.3-.3.4 0 .3.6 0 1-.3.2-.3.3.2.5.9.2.7.5-.4.7a12 12 0 0 0-4 1.4 3 3 0 0 0-.5 1.3c-.2 1-.8 1.5-.8.6zm8.5.2c-1.3-.3-1.2-1 .1-1 1 .2 1 .1 1-.7-.1-.6 0-.9.2-.9.3 0 .4-.2.3-1-.2-1-.1-1.1.2-1 .2 0 .4.3.4.6l.2 1.2c.2.6 0 .8-.2 1-.3 0-.4.3-.4.6s-.3.7-.5 1c-.4.4-.6.4-1.3.2zm103.9-1c-.3-1.6-.4-5 0-4.9l.3 2.6.4 3-.1.7c-.2 0-.4-.6-.6-1.4zm18.4.1.8-2.2c.1-1 .3-1.2.7-.9.3.3-.6 2.8-1.2 3.6-.9 1-1 .9-.3-.5zm-180.4.6c-.4-.4-.2-1 .2-1 .2 0 .4.3.4.6 0 .5-.3.7-.6.4zm29.2-1c.3-.4.6-.7.7-.6.2.2-.8 1.2-1 1.2-.2 0 0-.3.3-.7zm14.8.3 1.4-.7c.4-.2.7-.2.7 0s-1.7 1-2.4 1c-.2 0-.1-.1.3-.3zm54.4-2.8c-.1-2-.1-2.9.1-3.2.3-.3.4-.2.5.9.2 1.5 0 5.1-.3 5.1l-.3-2.8zm-92.5 1.4c0-1 0-1.2.2-1 .2.3.3.7.3 1 0 .3-.1.7-.3 1-.1.2-.2 0-.2-1zm91 .4c0-.3-.2-.8-.4-1-.3-.1-.3-.4-.2-1 .3-1.2 1-.2.8 1.4 0 .7-.1 1-.2.6zM.5 37.5c-.3-.2-.2-.2.4 0 1 .1 1.2.3.5.3a2 2 0 0 1-.9-.3zm180.8-.7c-.1-.7-.4-1-.9-1.2-.5-.1-.5-.2-.2-.3.9-.4 1.4 0 1.6.9.3 1.3-.2 2-.5.6zm40.2.7c0-.2.6-.5 1-.5.2 0 .3.2.3.4s-.3.4-.7.4c-.3 0-.6-.1-.6-.3zM61.3 37l.2-1.5c0-1.1.7-1.7.7-.5 0 .7-.7 2.5-1 2.5V37zm25.7.2.7-.2c.4 0 .6.1.5.2 0 .2-.4.3-.6.3-.3 0-.6-.1-.6-.3zm128.9 0c-.3-.2-.2-.2.3-.2l.8.2c0 .4-.6.4-1.1 0zm-165.2-.6-.2-1.1c0-1 .7-.6.8.5 0 1-.3 1.3-.6.6zm66.8 0 .2-1c.2-.6.3-.5.3 0 0 .4-.1.9-.3 1.1-.2.3-.2.3-.2-.1zm4.6-.1-.3-2.5c-.1-1.7 0-2.8.3-4.3l.7-2.1s0 .8-.4 1.9a6.8 6.8 0 0 0-.3 2.4l.2 2.1c0 1 0 1.7.2 1.7.1 0 .3.2.3.5 0 .5-.4.7-.7.3zM30 36l.2-.8c.3-.7 0-6.9-.5-7.5-.2-.4-.2-.4-.2 0 0 .3-.2.4-.3.3-.1 0-.3-.5-.3-1 0-.3.2-.7.3-.8.1-.1.3-.6.3-1 0-.8-.2-1-1.2-1.8-1.2-.9-1.7-1.6-.7-1a4 4 0 0 1 2.3 3.1A120.5 120.5 0 0 0 31 33c.5.2.5.3 0 .9l-.4 1c0 .4-.8 1.6-.8 1.2zm139.4-.4c-.9-2.1-1.7-5.4-1.6-6.6 0-1.6.3-2.2.8-1.5.3.3.3.5 0 .8-.6.5-.6.3 0 2 .1.9.5 2.2.7 3 .4 1.5.4 3.2 0 2.3zm-45.6-.6c-.2-.6.3-2 .8-2.2.5-.2.5-.2 0 1-.2.6-.4 1-.3 1.2.1.2 0 .3 0 .4-.2.1-.4 0-.5-.4zm-36.5 0c.2-.2.5-.2 1 0s.5.3-.3.3c-.7 0-.9 0-.7-.3zm123.5-.1c.6-1.6.5-2-.4-1.3-.8.8-.5 0 .5-1.2 1.5-1.7 1.6-1.5.8 1.5-.1.6-.4 1.2-.7 1.2-.2.2-.3 0-.2-.2zM36 34c-.3-.5-.3-1.3 0-3.2.2-2 .2-2.6 0-3.5-.4-1-.5-1 .5-4.7.2-.6.4-1 .6-.8l-.2 1.8c-.4 1.3-.4 2.3-.3 5 .3 4.3.2 5.5 0 5.8-.2.2-.4 0-.6-.4zm55.1.2c0-.3 0-.5.2-.7l.4-.5c0-.2.3-.4.6-.4.5 0 .7.1.6.5-.1.7 1 .8 2.3.1.8-.3 1.4-.7 1.4-.8 0-.3-1.8-1.2-2.3-1.2-.3 0-.6-.2-.8-.3h-1.3l-1.7.4-1.3.3c-.6.4-1.9.5-1.9 0l1-.6c.5-.2.9-.5.9-.8 0-.4-.2-.4-1.3-.3-1.4.2-2.2 0-1.6-.5.2 0 .7-.2 1.2-.1.6 0 1.2-.2 1.7-.5l.8-.6v.6c0 .4.1.5.6.5 1.2 0 2.3.3 2.3.7 0 .3.2.4 1 .3 1.2-.2 1.7-.7.7-.7-.4 0-1-.3-1.6-.8-.5-.5-1.2-.8-1.5-.8-.6 0-.6-.7 0-1 .5-.3.5-.5.3-1-.3-.8 0-1 .6-.6.8.4 1.1 0 .8-1.1-.3-.9 0-1 .7-.6.5.4.3 2-.4 2.3-.4.2-.6.5-.7 1.1-.1 1.2.6 1.7 2.6 1.7 2.7 0 3.1.4 1.2 1.2-.6.2-1 .5-1 .6 0 .2.3.5.8.8.9.6 1 .6 2.3.3 1.6-.4 2.2-.2 2 .6 0 .5-.2.6-2 .7-1.2 0-2.4.2-3 .5-.4.2-1.5.5-2.2.5-.8 0-1.4.2-1.4.4 0 .4-.8.2-1-.2zm-.5-4v-.4c-.2-.2-1 0-1 .3s.8.3 1 0zm-75 3.4c0-.2.2-.2.4-.2l.4.3-.4.1-.4-.2zm43.2-.7c0-.5 0-.6.1-.3v.7l-.1-.4zm20.3.4.8-.5c.5-.2.8-.5.8-1 0-1.3-1.5-1.4-3.3 0-1 .7-1.4.8-1.1 0 .2-.5 1.7-1.2 3-1.3 1.1-.2 1.3-.1 1.6.4.5.7.2 2-.5 2.4-.6.3-1.3.3-1.3 0zm10.1-.3c0-.2.2-.3.4-.3.1 0 .3.1.3.3 0 .2-.1.3-.3.3-.3 0-.4-.1-.4-.3zm-55.9-.3c-1-.4-1 .1-.7-6.8l.2-4.7c0-.5.1-.9.3-.9.2 0 .3.5.2 1.4-.1 1 0 1.6.1 1.8.2.2.2.3 0 .6-.4.4-.4 2.7 0 3 .1 0 0 .3-.2.5-.3.3-.4 1-.3 2.1 0 1.6 0 1.8.7 2.1.4.2.8.3 1 .2.2 0 .3 0 .3.4-.1.6-.4.6-1.6.3zm94.3-.7c0-.7 0-1 .1-.6v1.2l-.1-.6zm45 .6c-.1-.2.2-1.5.5-1.9.3-.4.7-.2.7.4 0 .5-.9 1.7-1.1 1.5zM85.5 32c-.3 0-.5-.2-.5-.3l.5-.8c.5-.5.5-.5.9.4.4 1 .4 1-1 .7zm44-.4c-.2-.4 0-4.8.2-5.6.2-.4.1-1.1 0-2-.5-1.5-.3-2.2.7-2.5l2.2-1.2 2.7-1.1c.8-.2.8-.2.7.5l-.2 5.5c0 3.4 0 4.7-.3 4.6-.2 0-.3-1.3-.4-3.7 0-2.1-.2-3.6-.4-3.7-.1-.1-.3-.6-.3-1v-.8l-1.6.7c-1.3.6-1.5.8-1.6 1.6l-.7 2.6a11 11 0 0 0-.6 4V32l-.3-.4zm86.6.1.1-.4.4.1c.1.1 0 .3 0 .4h-.5zM39 31.2c0-.3.2-.6.4-.6s.3.2.2.6c0 .3-.2.5-.4.5-.1 0-.2-.2-.2-.5zm19.8-.2c0-.9-.4-1-.8-.3-.3.8-.6.9-.9.4 0-.1 0-.4.3-.7.5-.6.5-1 0-.6-.3.3-.4.2-.7-.7l-.2-1.4c0-.8.4-.6.6.3.2.9.7 1 .7.3S57 26 56.9 26c-.2 0-.3-.2-.3-.5 0-1 .7-.4 1.1.9.3.8.4 1.4.3 1.8-.3.9-.1 1.5.5 1.5.2 0 .5.3.6.6.2.9.2 1.3-.1 1.3-.1 0-.3-.3-.3-.7zm97.8.5c-.3-.4 0-1 .7-1.5.8-.6 1-1.4.4-2-.5-.5.2-1 .9-.5.4.2.5.4.4 1 0 .3 0 .7.3.8.6.5.4.8-.4.8-1.2 0-2.1 1-1.3 1.4.2 0 0 .2-.2.2-.3 0-.7 0-.8-.2zM.1 31c0-.3.5-.7 1-1 .9-.4 1-.5 2-2.8.7-1.6 1.2-2 2.6-2 1.3 0 1.3 0 2.4-2.1.3-.7.3-.8.4-.2 0 .4-.2 1-.4 1.3l-.5 1.2c-.1.4-.5.5-1.5.5-1.3 0-2.1.4-2.1 1.2 0 .2-.1.6-.3.8l-.4 1.3c-.2.5-.5.9-1.1 1L.9 31c-.7.6-1 .5-.8 0zm61.4-1.1.2-2.4c0-.4 0-.8.2-.8.4 0 .6.9.5 2.3 0 .7 0 1.5.2 1.8.1.5 0 .6-.6.6-.7 0-.7 0-.5-1.5zm64.3 1.3c-.2-.3 0-.9.4-.7l.5-.8c.4-1 1-1.2 1-.3 0 .4 0 .7-.2.7s-.6.3-1 .7c-.3.5-.5.6-.7.4zm-88-.4.6-1.2c.3-.4.5-1 .5-1.3 0-.3 0-.3.3-.1.2.2.1.6-.3 1.4-.5 1.2-1 1.9-1 1.2zm174.7 0c0-.2.1-.6.3-.8.4-.5.4-.5.4-.1 0 .2-.1.6-.3.7-.3.2-.4.3-.4.1zM75 30c.6-.5 1-.5.9-.1 0 .2-.4.4-.8.4-.6 0-.6 0-.1-.3zm57.7.1c-.3-.4-.8-6.6-.6-6.8.4-.4.7.4.7 2l.3 3.2c.2 1.4 0 2.2-.4 1.6zm29.8-.4c-.6-.1-1.2-.4-1.5-.6-.5-.3-.5-.3.2-.2.8.2.8.3 0-1.3-.7-1.3-2-2.6-2.6-2.8-1-.3-1.2-1-.4-1.6.8-.7.7-1.7-.1-2.2-.7-.5-.9-.9-.3-1.1.2 0 .7.2 1.2.7.4.4 1 .8 1.2.8.2 0 .3.2.3.9 0 .8 0 1-.7 1-1.3 0-1.4.5-.2 1.8l2.1 1.9c.7.5 1 .9.8 1.1 0 .4 0 .4.5.4s.7 0 1 .5c.6 1.1 0 1.3-1.5.7zm-139.3-.4V29c.2 0 .3.2.3.3v.3c-.1 0-.3-.1-.3-.3zm2.1 0c-.3-1-.4-1.6-.2-1.7.3-.2.7 1.7.5 2l-.3-.3zm34.4.1c-.4-.4-.2-1 .3-.8.2 0 .5.2.5.4 0 .4-.5.7-.8.4zm137.4-.2c0-.4.1-.4.2-.2v.5c-.1 0-.2 0-.2-.3zM80.6 29c-.2-.3.2-.6.5-.4.2.3.2.6-.1.6l-.4-.2zm.9 0c0-.2.3-.3.6-.4l1.2-.3h.6c0 .2-.5.4-1 .6-1.3.4-1.4.4-1.4 0zm44.3-.8-.4-1.3v-.7c.2-.3.3-1 .2-1.7-.1-1.3.2-2.2.9-2.2.2 0 .2.2 0 .8l-.2 3.3c0 2.8-.2 3.5-.5 1.8zm87.7.7c0-.5 1.3-2.9 1.6-2.9.4 0 .4.1-.4 1.7-.7 1.4-1.2 1.9-1.2 1.2zM15 29h.5l-.3.1c-.3 0-.4 0-.2-.1zm24.8-.1c-.2-.4.2-3.2.5-3.2 0 0 .2.3.2.7 0 .3 0 .6.2.6.1 0 .3.2.4.5 0 .5-1 1.8-1.3 1.4zm45.1-.3c0-.1.3-.2.7-.2.4 0 .6 0 .5.2 0 .2-.4.3-.7.3-.2 0-.5-.1-.5-.3zm131.7 0c-.2-.3 3-.8 5-.7 1.5 0 2.2.3 1.4.6-.7.2-6.3.3-6.4.1zm-142-.5c.5-.3 1-.3 1 0 0 .1-.3.2-.7.2-.5 0-.6 0-.3-.2zm13.5-1.3c0-.7-.1-1.4-.3-1.4-.3-.1-.4-1 0-2.8 0-1.2 0-1.5-.4-2.2a3 3 0 0 1-.6-1c0-.4-.7-.4-1.3 0-.4.3-.6.3-.9 0-.2-.2-.5-.3-.8-.3a.7.7 0 0 1-.6-.4c-.2-.4-.4-.4-1.2-.3-.8.1-1 0-1.4-.4-.4-.6-.3-.6.7-.5.5 0 1 .2 1.1.3l.7.2.9.4c.5.5 1.7.8 1.7.5 0-.5.8-.4 1.4.1.6.5.7.4 1-1 .4-1.3.4-1.9.3-3.8l.1-2.3v-1.5c-.3-.4-.3-.6 0-1 .5-.8 1-.8.9-.1-.2.7.4 1.1 1.4 1 .6-.2 1-.1 1.1 0 .1.2-.2.3-1 .3a4 4 0 0 0-1.4.2c-.5.4-.8 6.4-.3 6.4.2 0 .2.2-.2.6-.3.4-.5.9-.4 1.3 0 .5.2.6 1.1.4 1-.1 2.3-.8 2.7-1.3l1.2-.7 1-.5h-.9c-.5 0-1.3-.2-1.9-.5-.5-.3-1.2-.7-1.7-.8-.7-.3-.7-.3-.2-1 .3-.4.6-.6 1-.5.2 0 .7-.2 1.2-.8.7-.7.8-.7.8-.2 0 .7-.8 1.4-1.6 1.4-.3 0-.5.2-.5.4s.2.4.5.4.8.2 1.1.4c.4.4 1 .5 2 .5H96l-.7 1-.6 1 1 .7c.5.5.9.6 1.6.5.7-.2.9-.1.8 0-.3.4-2.8.5-2.8.2 0-.2-.5-.5-1.1-.7-1-.5-1-.5-2.5.2l-2 .8c-.7.2-1.3 1-.9 1.1.4.2.5 1 0 1.3 0 .2-.2.7-.1 1 0 .7.2.9.7 1 .5 0 .6 0 .2.3-.6.5-1 2.6-.4 2.6l.8-.4c.3-.4.8-.5.8-.2 0 .4-1.7 1.4-2.3 1.4-.3 0-.4-.3-.4-1.3zm118.4 1 .3-.2.1.2c0 .2-.1.3-.3.3-.1 0-.2-.1 0-.3zm-188.2-.4c0-.2 0-.3.2-.2.2 0 .2.2.1.4-.2.3-.3.3-.3-.2zm4-.2v-.7l.3.7-.1.6c-.2 0-.3-.3-.3-.6zm20.8.3.5-1.4.7-1.9c.3-1.2 1-2.7 1.3-2.7.1 0 .1.2 0 .4l-.2 1.4c0 .5-.3 1.4-.5 1.9-.5 1-1.8 2.7-1.8 2.3zm111.6-.2c-1.7-.1-1.3-.6 1-1 .7 0 1 0 1 .3 0 .6-.8.9-2 .7zm-67.3-.7c0-.4 0-.6.1-.3v.8l-.1-.5zm-3.9-.4-.4-1h1.2c1 0 1.4-.1 1.6-.6.3-.4.5-.5.7-.2.2.2.2.4-.3.8-.6.4-.6.5-.3.8.3.2.3.2-.2.4l-1 .4c-.9.3-.8.3-1.3-.6zm-52.7-.5V25v1.2-.6zM208 26l.4-.3c.2.2-.2.7-.5.7-.2 0-.1-.2 0-.4zm-186.3-.5c-.4-.6-.7-2.3-.9-4.2 0-1-.5-1.5-1.1-1.5-.4 0-2-1.5-2-1.9 0-.4.5-.3 1.3.4 1.1 1 1.6.9 1.6-.2 0-.5.1-1 .3-1 0 0 .3 1.3.3 2.8.1 1.4.4 3.2.6 4 .3.6.4 1.4.4 1.7-.1.5-.1.5-.5 0zm52.2.2h.8l-.5.1c-.4 0-.6 0-.3-.1zm-3.1-.6c.4-.5.4-.6.1-1a1 1 0 0 0-1-.2c-.5.1-.5 0-.2-.7.4-1.1-.2-1.5-1.4-.8-.4.3-.8.4-.8.3l.4-.4c.2 0 .6-.7 1-1.4.5-1.1.5-1.2 0-1.6-.4-.3-.4-.3 0-.5.5-.2 1.2.4 1.2 1l-.4 1c-.4.6-.4.6.1 1 .3.2.6.6.6.9 0 .3.2.5.6.6.4.1.7.3.7.5s.3.6.6 1c.6.6.5 1.1-.1.6-.2-.1-.6-.2-.9 0-.9.3-1 .2-.5-.3zm124.5.2c1.1-2.8 1.7-4 2-4 .2 0 .3.2.3.3 0 .4-1.9 4-2.1 4-.2 0-.2-.1-.2-.3zm-119.2-.1a.9.9 0 0 1-.2-.6c0-.4.7-.4 1 0 .1.6-.4 1-.8.6zm139 0 .4-1c.2-.5.4-1.7.5-2.6.2-1.2.3-1.8.5-1.7.4.1.3 3-.2 3.9l-.5 1c-.1.5-.7.8-.7.4zm-68.6-.8-.2-2.6c0-1.3-.2-3.4-.4-4.7-.4-2.2-.4-2.2.2-2.7l1.1-.6c.3 0 1-.5 1.4-.8.5-.4 1.2-.7 1.6-.7h.7V17c0 5.3 0 6.5-.6 6.7-.2 0-.3-.8-.3-3.8 0-2.5 0-3.8-.2-3.7-.2.1-.3.8-.3 1.7 0 .9-.1 1.4-.3 1.2-.2-.2-.3-2.4-.2-4 0-.4 0-.7-.2-.8-.2 0-.4 0-.4.3 0 .2-.2.6-.6.8-.5.4-.6.6-.6 2 0 1.7 0 1.7.8 1.6 1 0 1 .7-.1 1h-.8v2.2c0 1.9-.2 2.6-.6 2.2zm-116-1c0-.2 0-.4.2-.4.1 0 .3.2.3.5s-.2.5-.3.5c-.2 0-.3-.2-.3-.5zm118-.2c0-.4-.3-.9-.5-1.1-.4-.6-.3-1 .4-1s.9.4.7 1.6c-.2 1.1-.7 1.4-.7.5zm-123.6-.4c0-.5-.3-.8-1-1.2l-.9-.7h.9c.8 0 .8 0 .9-.9.2-3.3.4-4.7.6-5 .5-.8.5.1 0 2.8l-.4 2.8.8.8c.8.8.8.8.2 1-.3 0-.6.2-.6.4s-.1.5-.3.6c-.1 0-.2-.2-.2-.6zm186.8.4c0-.1 0-.2.2-.2s.3 0 .3.2-.1.3-.3.3a.3.3 0 0 1-.2-.3zM91 23c-.8-.4-.5-.9.8-1.1.5-.1 1-.4 1-.6.2-.4 1.2-.5 1.4 0 .3.3 1.4.2 1.7-.2.3-.3 2.5-.4 3.4 0 .5.1 2.5-.5 2.5-.8l-.4-.3c-.7-.3-.7-.9.1-1.5 1-.6 1.4-.4.5.3-.6.6-.6.6-.1 1 .3.2.8.3 1.2.3.4 0 .8.1.8.3 0 .3-1.5 1-2.2 1l-3 .6a13 13 0 0 1-5.8.4c-1.2-.2-1.3-.2-1.1.4.1.6 0 .6-.8.2zm119 0 .2-.6c.2 0 .3 0 .3.2s-.1.5-.3.6c-.1 0-.2 0-.2-.2zm-153.2-.2.7-.7c.5-.4.6-.4.8 0 0 .3 0 .6-.2.7-.6.4-1.4.3-1.3 0zm147.5 0V22c.4-.3 1.3 0 1.1.4-.1.4-.9.6-1.1.2zm-143.1-.5c0-.3 0-.6-.2-.6-.1 0-.2 0-.2-.2 0-.4 1-.3 1.3.1.2.2.7.4 1.2.4s.9.1.9.2c0 .2-.5.3-1 .2l-1.6.2c-.5.2-.5.1-.4-.3zm-52.6-.3c0-.3.2-.5.5-.5s.3 0 0 .4l-.4.6V22Zm204.3-.2c0-.2 0-.3.2-.4.4-.1 1.6-2.3 1.6-2.8 0-.7.5-1 .7-.5.2.5-.3 1.7-1.1 3-.6.8-1.4 1.2-1.4.7zm-87-1c0-.4.2-1 .5-1.4l.6-.6-.6.3c-.7.3-1.4.2-1.4-.4 0-.2-.2-.5-.4-.6-1-.6.5-1.1 1.8-.8.5.2 1.4-.2 4.3-1.6 4.1-2 4.5-2.3 4.3-2-.1.2-.9.7-1.7 1.2-.9.4-1.8 1-2 1.3l-2 1.2c-.7.4-1.3.8-1.3 1 0 .3 1.8-.1 2.8-.7a175.3 175.3 0 0 0 31.5-15.8c2.4-1.4 3-1.7 4-1.7 1.4 0 1.5.2 1.2 2.1-.2 1.5-.4 1.4-.4-.3 0-.6-.1-1.2-.3-1.2-.3 0-.3 2.4 0 3 .2.2.3.2.4 0l.2 3.5c.1 3.8 0 4.6-.7 4.6s-1-1.3-1-5.1c-.2-4.8-.3-5.4-1-5.4-.2 0-.6.2-.8.5-.1.4-.5.5-.8.5-.5 0-.6 0-.7.7-.2.7-.3.8-1.2.7-.9 0-1 0-1 .6 0 .8-.5 1.3-1.7 1.3a2 2 0 0 0-1.5.6c-.3.4-1 .8-1.5 1-.5.2-1.2.8-1.6 1.2-.5.6-1.2.9-2 1-.7.2-1.3.4-1.4.6l-3.2 1.7-3 1.7c-.1.2-.8.3-1.5.4-.7.1-1.8.5-2.4 1l-2.3 1-1.5.7-2 .8c-.9.2-1.6.6-1.7.8 0 .2-.6.5-1.2.6l-1.4.7a7 7 0 0 1-1.6.7c-.7.3-1.5.7-1.8 1-.8.7-1 .7-1-.3zm41-13.1-.3-1V8c0 .9 0 1 .3.8.2-.2.2-.5 0-1.1zM36 21c0-.2.3-1.1.8-2 .4-1 .9-2.7 1-4l.5-2.3.5.2c.3.3.3.4 0 .8-.2.2-.5 1.3-.7 2.3-.1 1.1-.5 2.3-.7 2.8a3 3 0 0 0-.2 1.7c0 .7 0 .8-.1.3-.2-.6-.2-.6-.4 0s-.7.8-.7.2zm-25.8-.2.6-.2c.4 0 .4 0 0 .2-.5.4-.8.4-.6 0zm198.6-1.4c.6-1.3.8-2.1.8-3.3 0-1.6.3-2.1.6-1 .3 1.4-.7 4.8-1.8 5.7-.3.2-.1-.3.4-1.4zM11.5 20.6c0-.2.2-.3.7-.3 1 0 1.6-.4 1.6-1.1 0-.5.5-.5.7 0 .2.8-2.5 2.1-3 1.4zm11-.7c0-.5 0-1 .2-1 .1 0 .2.5.1 1l-.2 1-.1-1zm26 .7c0-.5.1-.8.8-1.3.6-.5.5 0-.2.9-.4.5-.7.6-.7.4zm18 0c0-.1 0-.4.3-.5.2-.2.4-.2.5 0 0 0 0 .3-.2.5-.2.1-.4.2-.5 0zm24.9-.3c0-.3.2-.5.5-.5s.4.1.4.4c-.1.7-1 .8-1 .1zm-45.4.1c-.2-.3.1-2.1.3-1.8v1.2c0 .5-.2.8-.3.6zm36.8 0c-.4-.2-.7-.5-.7-.8-.1-.6.3-.8.6-.3l.9.2c.4 0 .8.2 1 .5.3.5.3.6-.4.6l-1.4-.3zm-52-1.4c-.4-.9-.4-1.1-.1-1.4.2-.3.3-.3.4 0 .1.2.4.3.7.3.5 0 .7.4.2.7l-.2.8c0 1-.4.8-1-.4zm4.4.2c0-.3.1-.4.3-.3l.2.5-.2.4c-.2 0-.3-.3-.3-.6zm86.5.4c0-.4 1.3-1.7 1.7-1.7.3 0 .2.3-.2.7-.4.4-.7.8-.7 1l-.4.2-.4-.2zm99.8-.6c-1.7-1.4-3.3-2.4-3.8-2.2l-.6-.1c-.2-.5-.4-3.8-.2-4.3.2-.4.2-.6-.2-1-.3-.2-.5-.6-.4-.9.1-.3-.2-.7-1-1.3-1.6-1.3-2.4-2.1-2.2-2.3.1-.1 1.3.8 5 3.8.6.5.6 1.5-.1 2-.5.3-.6.5-.4 1.7.3 1.2.4 1.4 2.3 2.7l2.3 1.5c.5.2.8.7.8 1 0 .4-.7.1-1.5-.6zM78 19c-.8-.3-1.2-1.1-.4-.8 1.3.5 1.6.5 1.8-.1.2-.9.8-.3.6.6 0 .7-.8.9-2 .3zm20.5.2c0-.2.3-.3.5-.3s.4.1.4.3l-.6.2c-.3 0-.4-.1-.3-.2zm57.3-.5c-.8-.5-.7-1.3 0-1.7.4-.2.8-.6 1-1.1 0-.6.3-.9.7-1 .4 0 .8-.3 1-.7.4-.5.4-.7.2-1.3-.3-.7-.4-.7-.7-.2-.2.3-.4.4-.5.4a26 26 0 0 1-.2-4.2c0-.2.4-.5.8-.7.8-.4 3.7-2.2 4.2-2.7.2-.2.5-.3.6-.2.1 0 .2 1.7 0 3.7-.1 3.5 0 3.6.4 3.4.8-.3 1.8-.3 1.9 0 0 .3 0 .4-.3.4-.2 0-.5.3-.7.6-.2.4-.4.4-.6.2-.2-.1-.5-.2-.7-.1-.6.2-1.3-1.7-1.3-3.3 0-1 .1-1.6.5-2 .5-.8.7-1.6.2-1.3a2 2 0 0 0-.5.8c-.1.3-.5.7-1 .9-.5.2-.6.4-.5.9 0 .4-.1 1.3-.4 2.1-.3 1.1-.4 1.6-.2 2 .3.5.1.7-.7 1.5-.5.5-1.1.9-1.3.9-.2 0-.4.3-.5.8 0 .5-.3.8-.7.8-.6 0-.6.2 0 .8.5.6 0 .8-.7.3zm3.6-9c0-.3 0-.6-.2-.6-.3 0-.4.9-.1 1.1.3.3.3.3.3-.4zm53.2 8.7c0-.1.2-.4.5-.6.3-.3.4-.3.3.2-.1.5-.8.9-.8.4zm-178.1-.7c-.3-.7-.2-1.5 0-1.5s.3.2.3.4l.2.9c.2.7-.3.8-.5.2zm50-.7c-.2-.1 0-.2.2-.2s.4 0 .3.2l-.3.3-.3-.3zm129-.2.4-1.2c0-.5 0-.7-.4-.7-.3 0-.7.3-1 .6-.6.6-1 .6-1 0 0-.4 1.4-1.1 2.1-1.1.4 0 .6.2.7.9.2 1 0 1.6-.5 1.9-.3 0-.4 0-.3-.4zm-6.7.1.6-1.2.5-1-.2.9c-.1.7-1 1.9-.9 1.3zm-45.7-.9c-.4-.2-.4-.4 0-1.4.3-1.2.7-1.7.7-.9 0 .2.2.4.3.4.2 0 .3.2.2.5l.1.8c.5.7-.5 1.1-1.3.6zm-116.3-1-.2-1.2c0-.7.1-1 .4-1 .3 0 .4.2.2 1.1-.2 1.3-.2 1.3-.4 1.1zm36.8-.3c-.3-.4-.7-.6-1.2-.6-1 0-3.8-.4-3-.5 1 0 1.2-.4.8-1-.3-.3-.6-.3-1.3-.2-1.3.3-1.4.4-1 .9.3.3.2.4-.5.2-.9-.2-1.7-1-1.5-1.3l1.1-.2c1 0 1 0 1.3-1.2l.4-1.3.3.8c.5 1.1 1.1 1.6 1.5 1.2l.8-.3c.5 0 .6.5.5 1.8 0 .3 0 .6.2.6s.3-.2.3-.5c0-.7.4-.7.8-.2.4.5 1.7.6 2.4.2.4-.2.5-.2.5 0 0 .1-.3.4-.8.6-.6.4-.7.6-.6 1 .2.7-.5.7-1 0zm-4.7-3-.1-.2-.3.2.1.3c.2 0 .3-.1.3-.3zm8.4 3.1c-1-.3-.8-.8.3-.7 1.1 0 1.1 0 1 .7-.3.4-.3.4-1.3 0zm-23.6-.8c.1-.4.3-.6.5-.6.4.2.3 1.1-.2 1.2-.3 0-.4 0-.3-.6zm146.6-.4c-.3-.4 0-1.9.4-1.9v.6c0 .3 0 .7.4 1 .4.5.4.6-.1.6-.3 0-.7-.2-.7-.3zM59 13c-.7-.5-.6-.7.4-.8.5 0 .8.1 1 .5.2.8-.6 1-1.4.3zm111.5.4v-.8c.3-1-.3-1.5-1.4-1.3-.9.2-1 .2-.4-.2 1-.8 2.5-.3 2.5.9 0 .5.1.7.4.7.3 0 .5.2.6.4 0 .4 0 .5-.8.4a3 3 0 0 1-.9-.1zm-137.7-.8c0-.4-.2-1-.4-1.3-.3-.5-.3-.6 0-.6l.6.3c.4.4.4 2 0 2.2 0 .1-.2-.2-.2-.6zm15 .5c-.1-.2 0-.4.5-.5a2 2 0 0 0 1-.8c.3-.7.7-.7.7 0 0 .8-1.8 2-2.2 1.3zm-1.5-.4-.1-.7c0-.2-.3-.4-.5-.5-.4-.2-.3-.3.8-1 .8-.5 1.5-1.2 1.7-1.4.3-.6 1-.7 1-.2 0 .1-.6.9-1.4 1.7-1.3 1.4-1.3 1.4-.8 2 .4.5.4.5-.1.5-.3 0-.6-.2-.6-.4zm126.7-.1c-1-.6-1-1.2 0-1 .8.2 1.5-.2 1.7-1.1.2-.6.3-.7.5-.3.3.6 0 1.5-.4 1.5-.2 0-.4.3-.5.6-.1.8-.4.8-1.3.3zm-5.5-.5c0-.2.2-.4.4-.4s.4.2.4.4c0 .3-.2.4-.4.4a.4.4 0 0 1-.4-.4zM13 12.2c-.2-.3.6-1 .8-.8.3.2 0 1-.4 1a.5.5 0 0 1-.4-.3zm71.6 0c0-.4.2-.4.8 0 .3.1.2.2-.2.2s-.6-.1-.6-.3zm-3.5-.5c-.2-.2-.4-.4-.6-.4-.2 0-.6-.1-.8-.3-.5-.4-.5-.4 0-1l.6-.6.3.7c.3.8 1.2 1.4 1.5 1 0-.2.4-.1.8.2l1.1.6c.3.1-.2.2-1 .2-1 0-1.6-.1-1.9-.4zm9.7-.3c0-.2 0-.4.2-.3.4.1.6.7.2.7-.1 0-.3-.1-.4-.4zm2.2.2c0-.5 1.6-3.7 2-3.9v.7c-.1.7 0 .8.3.8s.8-.3 1.1-.7l.9-.6c.5 0 .2.6-.6 1.3-.4.4-.8 1-.8 1.4 0 .3 0 .8-.2 1-.2.3-.3.2-.3-.5 0-1.1-.9-1.2-1.4 0-.4.7-1 1-1 .5zm-7-1.3-.7-1.7c-.2-.4-.4-.4-1-.3-1.2.2-1.9-.4-1.2-1 .6-.5.5-1-.4-1.5-1.3-.7-.9-1.3.7-1 .8.2.9.3.6.6-.2.2-.2.4 0 .5.2 0 .3.3.3.6 0 .4 1.4 2 1.7 2 .1 0 .1-.4 0-.8-.2-.8.2-1.1 1.3-1.1.8 0 .8 0 .3.5-.4.4-.5 1-.6 2.3 0 2.2-.3 2.5-1 1zm118.4.8c0-.2.1-.4.3-.4.1-.1.3 0 .3.2s-.2.4-.3.4c-.2 0-.3 0-.3-.2zm-130.8-.2c0-.2 0-.5.2-.9.2-.7.5-.5.8.5.2.4.1.6-.3.6l-.7-.2zm22.8 0c-.2-.4.5-1 .8-.8 0 0 0 .4-.2.6-.3.2-.5.3-.6.1zm82.7-.3c-.4-.6-1.4-.8-1.9-.3-.1.2-.4.2-.5.1-.4-.2-.4-1.7 0-1.7 0 0 .2.2.2.5 0 .5.1.5 1 .4 1-.2 1.1-.1 1.4.4l.2.9c0 .1-.3 0-.4-.3zm29.5.3-.2-1.1c0-.7 0-.9.3-.7l.2 1.2c0 .4-.2.7-.3.6zm-149.5-.7c.3-.3.3-.5 0-.6-.3-.2-.3-.7.2-.7.4 0 1 .8 1 1.3 0 .2-.4.3-.8.3-.5 0-.6 0-.4-.3zm146-.9c0-1-.4-2.4-1-2.8-.2 0-.2-.2 0-.3.1 0 .5 0 .7.4.6.6.9 3.2.4 3.5-.2.2-.3 0-.2-.8zM16 9.8c.2-.2 2-.3 2 0 0 0-.5.2-1.1.2-.6 0-1 0-1-.2zm39.4-.1c-.5-.5-.4-.8.2-.8.8 0 1.4.4 1.2.8-.3.4-1 .4-1.4 0zm17.4 0c0-.3 0-.5.2-.5s.3.1.3.3l-.3.4c-.1 0-.2 0-.2-.3zm-53-.6c-.9-.4-.8-.4.8-.4 1.8 0 3.6.4 2.1.5l-1.4.1c-.5 0-1.2 0-1.6-.2zm5.4-.5c-.2-.6.1-1 .5-.5.3.2.3.4 0 .6-.2.3-.3.2-.5-.1zm66.1-.3c-.5-.5-.5-.6-.2-1 .3-.1.4-.5.4-.8 0-.3.2-.5.4-.5.5 0 .6.4.2.7-.4.2-.3.6 0 .6s.4.2.3.6c0 .4 0 .5.5.5.3 0 .5.1.4.3-.3.4-1.4.3-2-.4zm77.7.5a42.3 42.3 0 0 1 .2-8.3c.6-.1 1 1 .7 1.8l-.4 3c0 2.2 0 2.4.4 2.4.3 0 .5 0 .5.4 0 .3-.1.6-.3.6l-.6.1h-.5zm23.4-.6-.2-1.6c-.2-.8-.1-.8.7-.7.8 0 1-.1 1.4-1 .4-.9.6-1 1.4-1 .5 0 1-.1 1-.3l.4-.2c.2 0 0 .3-.2.7-.3.4-.6.9-.6 1.2 0 .7-.4.6-.6-.2-.4-1.5-1.2-.3-1.2 1.6 0 .6 0 .6-.7.2-.7-.5-1-.2-.7 1.2 0 .6 0 .8-.3.8s-.4-.2-.4-.7zm-21-1.8a19 19 0 0 1 0-2.5c.2-.3.3.5.3 2.6l-.1 2.3zm7.8 1.4c-.3-.6-.3-.9 0-1 .3-.5.5-.1.4.8v1zm9.8.3.5-.2.2.2c0 .2-.2.3-.4.3s-.3-.1-.3-.3zm13-.1c0-.3.2-.5.3-.6.5-.1.4.7 0 .8-.3.2-.4 0-.4-.2zm6.1.2-.7-.2c-.8 0-1-.6-.2-1 .4-.2.6-.2 1 .2.2.2.3.6.3.8-.1.3-.2.4-.4.2zM50 8c-.3-.4-.2-1 .2-1 .3 0 .4.3.4.5 0 .4-.3.7-.6.5zm122.6-1 .2-1c.2-.5.3-.5.4.3v1c-.2.5-.6.3-.6-.3zm15.5.4c-.2-.2-.2-1.9.1-1.9.4 0 .6 1.2.4 1.7-.2.2-.4.3-.5.2zm22.4-.1-.1-.9c0-.3-.3-.9-.7-1.4-1.4-1.4-1-1.8.4-.7l1 .7c.4 0 1.5 1.6 1.2 1.6-.1 0-.3.2-.3.5 0 .4-.1.5-.6.5-.4 0-.8-.1-.9-.3zM190.8 7c0-.2 0-.3.2-.3s.3.1.2.3l-.3.2-.1-.2zM80 6.5c-.7-.6 0-.7 1-.2.8.5.8.5.2.5-.4 0-.9-.1-1.2-.3zm8.4-.2c0-.3-.3-.8-.6-1.1l-.5-.9 1.9-.1c1 0 1.8 0 1.8.2 0 .4-1.2 1.4-1.6 1.2-.3 0-.5.1-.7.5-.2.4-.3.5-.3.2zm59.9-.2c.8-.7 3.3-2.5 3.5-2.5a17 17 0 0 0 3.8-2c1-.9 2.9-1.4 2.9-.9 0 .2-.2.4-.5.5a46 46 0 0 0-5 2.6c-.8.6-5.2 2.8-4.7 2.3zm51.3.2a.5.5 0 0 1 .1-.6c.2-.2.3-.1.5 0l-.1.6c-.2.2-.3.2-.5 0zM93 5.6l.6-.7c.8-.6 1.3-.1.5.5-.5.4-1.1.5-1.1.2zm89.6-.2c0-.3.2-.4.2-.4l.1.4c0 .2 0 .4-.2.4s-.2-.2-.1-.4zm1.7-.3c0-.2 0-.4.2-.3.2.1.2.3.1.5-.2.3-.3.2-.3-.2zm-98.6-.4c0-.4 0-.5.6-.5.5 0 .6 0 .5.4l-.2.5c0 .4-.7 0-.9-.4zm113-.7c-.1-.3-.4-.6-.6-.6-.5 0-.3-.7.2-.8.3 0 .5.2.6.6.1.5.4.7.8.7.5 0 .5 0 0 .4-.7.5-.9.5-1-.3zm8-1.2c-.6-.4-1-1-1-1 0-.2.2-.2.4 0 .3.3.8.5 1 .6.4.1.8.4 1.1.7.5.5.5.5 0 .5-.4 0-1-.3-1.6-.8zm-3-.7c-.2 0-.4-.6-.6-1-.3-.8-.2-1 .1-1 .4-.2 1.4.6 1.4 1.1 0 .5-.7 1.1-1 1z"/>
</svg>
