<?xml version="1.0" encoding="utf-8"?>
<svg xmlns="http://www.w3.org/2000/svg" xmlns:svg="http://www.w3.org/2000/svg" version="1.1" viewBox="0 0 223 143">
	<title>Mr. Piperson has taken his shoes off, and thrown one across the room at the wall.</title>
	<path d="M147.3 141.8c-2-.3-2.3-.4-1.9-.8.4-.3 13.3-.4 13.7 0 0 0 0 .4-.2.7-.3.4-.6.4-4 .1a14 14 0 0 0-4.4 0c-.4.2-1 .3-1 .2-.3 0-1.2 0-2.2-.2zm-90-2.5a12 12 0 0 1-2.9-.9 1 1 0 0 0-1-.2c-.7.3-4.2-.3-5.7-1-2-1-2.6-2.3-1.8-4.9.6-2.2.6-3.6-.3-4.2l-.6-.4.5-4.6.7-4.8c.2-.5.8-7.7.7-9.2 0-1 0-2.6.4-4.5 1-4.7 1-6 .4-7.3-.3-.7-.7-1.3-.8-1.3a6 6 0 0 1-1.2-1.7c-1.5-3-1-2.7-6.7-2.5h-5.2c-.3-.3 1.2-.5 5.8-.7 3.4-.1 4-.2 4-.5l-.2-.7c0-.2-1.5-.2-5-.1-5 .2-5.6.3-5.6.8 0 .3-.4.4-1.2.4-1.6 0-2.2-.2-2.2-.6 0-.2.4-.2 1.3-.1 1 .1 1.4 0 1.8-.3.6-.6 4.3-1 8-.9 2.2 0 2.6-.2 1.7-1-.2-.2-.4-.4-.4-.6 0-.5-2-3.3-2.4-3.5-.3 0-.8 0-1.2.3-.8.5-2 .5-4.2 0-.8-.3-1.8-.4-2.1-.4-.6 0-.7 0-.6 1.6v2c-.2.4.2.5 2.4.5 3.5.2 3.3.6-.3.6-2.7 0-3 0-3.6.6-.7.6-1.4 2.6-1 3.1 0 .2.5.2 1 .1 1.1-.2 2 .1 1.4.5L30 93c-1.2 0-1.5.3-1.9 1.4-.4 1.6-.5 1.6 2.4 1.5 3.2 0 3.2 0 3.2.3 0 .2-1 .3-3 .2-2.9 0-3 0-3.2.5-.2.7-.2.9.1.9.2 0 .3-.2.2-.4-.2-.5 0-.5 2.2-.4.8 0 1.6.1 1.7.3h1.1c1-.4 4.3-.3 4.4.1 0 .2-.9.3-2.3.3-1.8.1-2.4.2-2.7.6-.3.4-.1.4 1.7.6 1.3 0 2 .2 2.1.4.1.3-.4.3-1.9.3l-2 .2c-.1.2 0 .5.2.8.3.5.6.5 3.4.4 3 0 3.9.2 3 .9-.3.2-.5.5-.5.8 0 .3-.4.4-2.4.4-1.4 0-2.1.1-1.6.2.5 0 .8.2.8.4-.1.2-1.6.4-4.6.5l-4.6.3c0 .1 1 .2 2.6.2s2.7 0 2.8.3c.3.4 0 .5-2.4.5-1.3 0-2 0-1.5.2.4 0 1 .2 1.1.5.3.3.3.4-.1.8a2 2 0 0 1-1 .3c-.3 0-.7.3-1 .7-.5 1-.8 1.2-1.8 1.2-.7 0-1 .1-1.1.6-.2.4-.6.7-1 .8l-2.4 1c-.9.5-1.8.7-2 .7h-2.6c-1.2.2-2.4.2-2.7 0-.3 0-1.4 0-2.7.2-2.8.4-8.2.2-8.2-.4 0-.3.5-.4 2.3-.5 2.1 0 2.3-.1 2.2-.6-.2-.7.5-.7 1.2 0 .6.6 1.9 1 1.9.6 0-.2-.2-.4-.3-.4-.5-.4 0-.7.8-.6.9.3 4.4.7 5.5.7 1.1 0 3-.6 3.8-1.2l1-.4c.7 0 2-.9 2.3-1.5a121.6 121.6 0 0 0 2.9-9c1.4-4.8 2.5-9.4 2.2-9.8-.4-.4-1.2-.4-4 .2L21 90l-.4 1L20 93c-.3.5-.4 1-.3 1.3.1.3 0 .8-.3 1.3-.2.4-.9 1.4-1.3 2.4-.9 1.5-.9 1.7-.5 2.1l.6 1.4c.2 1.3.5 1.5.8.4a122 122 0 0 0 2-7.2 14 14 0 0 1 1.1-3.5 120.7 120.7 0 0 1-3.4 15c0 .2-.2.6-.7 1-.9 1-1.4.7-.7-.4.4-.5.5-1 .3-2.6 0-1-.2-2.3-.4-2.8-.2-.9-.4-1-.7-.7l-.4.5s-.4 1-1 1.9l-1.6 2.9c-.6 1.1-1.3 1.7-1.3 1 0-.4 2.8-5.2 5.9-10.3.7-1.1.9-1.7.7-2-.2-.2 0-.9.7-2.2.5-1 .8-2 .7-2.2a73.6 73.6 0 0 1-18-.8c-.3-.5.8-.5 4.6-.3 3.1.2 4 .2 4.2 0 .3-.5 5.2-.7 5.4-.3 0 .1-.2.3-.7.4-1 .2 2.8.2 5 0 1.8-.2 1.7-.3-.3-.4-1.5 0-.8-.6 1-.6 1.4-.1 1.8 0 2 .3.3.4.6.4 1.7.2.8-.2 2-.3 2.7-.3 1 0 1.4-.2 1.8-.5.5-.6 1-2.5.7-3-.3-.4-.7-.3-.7.3s-1 1.4-1.6 1a1 1 0 0 0-.7 0c-.2 0-.3 0-.3-.2 0-.1 0-.3.2-.3s.4-.3.5-.7c.1-.5.2-.6.3-.3.1.8.5.6.7-.3.1-.6 0-1-.2-1.3-.3-.2-.5-.7-.5-1 0-.8-.4.2-.6 1.4-.2 1.2-.8 2-1 1.4-.2-.1-.1-.5 0-.9.4-.8 1.3-4.3 1.5-5.7.1-.7.4-1.5.7-1.8.3-.4.5-.9.5-1.2l.5-2.3c.7-2.1.7-2.5.1-2l-1.6.2c-1 0-1.4 0-1.5.4-.1.4-.4.4-1.7.3-1 0-2.4 0-3.6.3-1.2.2-3.5.4-5.2.4-2 0-3.2.1-3.4.4-.3.2-.4 2-.6 6-.2 5.9-.3 7.5-.8 7.5v-3l.2-7.2v-4l.7-.2 2.8-.7c2.2-.6 3-.5 2.4.2-.4.5-.1.5 2 0 1-.3 2.1-.4 2.6-.4 1.8 0 4.9-.4 5.6-.9 1-.5 1.8-.6 2.2-.2.2.2.4-.3.6-1.8l.5-2.8c0-.8 0-1-.8-1.4-.9-.5-2.7-1-3-.7 0 0 .5.5 1.3.9 1 .4 1.4.9 1.5 1.3 0 .7 0 .7-1.3-.1-1.8-1.3-10.2-2-21.5-1.9L0 63.5c0-.6 1.3-.6 10.5-.6l10 .1-.2-1.4c0-.8 0-2.3.2-3.5.2-1.5.1-2.2-.1-2.6-.4-.7-.2-1.3.4-1.3.2 0 .4-.1.4-.4 0-.4 1.3-1.1 2-1.1.3 0 .6-.2.7-.3 0-.1 2-.3 4.5-.4 3.8-.2 4.4-.3 4.5-.6v-4.8c0-2.4.2-5.4.3-6.7 0-1.4 0-2.4-.2-2.5-.2-.1-.2-1.9 0-5.2 0-3.3 0-6.1-.2-8-.2-1.6-.4-5.5-.4-8.6a67.5 67.5 0 0 0-.7-12.4c0-1 .8-2 1.2-1.6.2.2.1.4-.2.8-.5.5-.5.7-.2 1.7.2.7.3 2 .3 2.8a199.2 199.2 0 0 1 1 17.8c-.3.2-.2 3 0 5.2.2 1 .2 1.8 0 2-.3.3-.3 1 .2 1 .3 0 .6 1 .7 2.4v.8l.3-1v-6a524 524 0 0 1-.4-19.7c-.3-.3-.2-7 0-7s.3.8.3 1.8c0 1.6 0 1.8.5 1.8.3 0 .4.1.4.5a128.4 128.4 0 0 0-.2 20.9 79 79 0 0 0 .7 10.7l.4 6c0 1.7.3 3 .4 3a334.5 334.5 0 0 1-.1-21.7c0-4.3 0-10.6-.2-14-.2-6.7-.2-9.4.1-9.5.2 0 .3 2.4.3 5.4a166.6 166.6 0 0 1 .4 15c0 5 0 11.3.2 14 .1 4.8.1 5 .6 5 .6 0 .6-.1.4-4l-.3-5.4c-.1-2.6.3-1.9.5.8l.5 5.3.4 2.6.2-2.6c0-1.5.1-4.3 0-6.4-.3-5.2-.4-20.5-.2-20.4a622 622 0 0 0 .9 17.9l.2 11c-.1 4.2 0 5.3.2 5a14 14 0 0 0 1-6c-.5-5.7-.9-34.8-.5-36.3.1-.3.3-.4.4-.2V6A45 45 0 0 0 42 17c.3 0 .4 1 .4 4 0 6.6.4 15.1.6 15.3.3.1.5-3 .7-8.4.2-6.4.4-9 .8-9.3.3-.3.3-1.8.1-8.2-.2-7.3-.2-8.4.1-8.1.3.3.7 8.7.7 12.5 0 6.4 0 6.2.6 6.4.3.1 1 0 1.7-.3.9-.3 1.3-.3 1.5-.1.2.1.6.2.8.1.6-.2.8-3 .6-11.4V2a134.1 134.1 0 0 1 0 21.8l-.7 2.6c-.4 1.4-1.4 8.4-1.2 8.5 0 .1 1.1-.7 2.3-1.8 2.6-2.5 6.8-5.9 7.4-6 .4-.2.5-.5.4-1.7a143.2 143.2 0 0 1-.4-21.1c.1 7.6.8 21.6 1.1 22l1-.5 1-.5-.1-3.4c-.3-10.7-.2-11.5 0-11.8.3-.2.4-.2.4.2 0 3.2.5 14.2.7 14.4l2.9-1L67 23c1.2-.2 4.1-1.3 5.2-2l.7-.3-.6-.4c-.8-.5-1-1.7-.3-2 .2 0 .4-.4.3-1 0-1.2.5-1.4 1-.4.4.8.3 2.1-.2 2.5-.2 0-.1.2.2.3.2.1.4.4.4.6 0 .2.3.3.5.3.6 0 .7-.2.3-.7-.3-.3-.3-.5 0-1.3s.3-1-.2-1.5c-.3-.3-.6-.8-.6-1 0-.9.7-.5 1.3.7.4.8.8 1.2 1.3 1.3l1.3.3c.9.2 1.3-.1.7-.5-.4-.3-.3-.4.7-.5h1.4c.3.2 0 .6-.6.6-.3 0-.5.2-.5.5 0 .7 0 .7 1.8.1 1.3-.4 1.8-.4 1.5.1 0 .2-1 .5-1.9.7-1.5.5-1.8.5-2.2.1-.6-.6-2-.7-2.5-.3-.8.5-.4 1.2.8 1.2.9 0 1 0 .8.7 0 .6-.2.7-.8.7-1.3 0-1.2.5 0 .9 1.5.3 1.7.2 1.7-.6 0-1 1.1-1.7 2.5-1.7.7 0 1.5-.2 1.8-.3.4-.3.6-.2.8.1l.7.4c.4 0 .3.5-.2.8a3 3 0 0 1-1.2.3c-.4 0-.8.1-.8.3-.4.5.6.6 1.8.1 1.3-.5 1.5-.5 1.5 0 0 .4-1.9 1.2-3 1.2-.7 0-1.2-.3-1.8-.8-.9-.8-1.4-1-.8-.1.3.3.3.4 0 .7-.3.4-.4 3.6-.1 4.9.2.9.6 1 .6 0 0-.5 1.5-2 1.8-1.7 0 0 0 .6-.3 1-.4.8-.5 1-.1 1.8l.3.9.5-.7c.2-.3.5-.8.5-1.1 0-.4.3-.5.7-.5.5 0 .4-.1-.7-1.2L81.4 25c-.3-.1-.5-.5-.5-.8 0-.5 0-.5 1.4-.4.8 0 1.6.2 1.7.3.1.1.4 0 .7-.2.5-.4 2.1-.4 2.3 0 0 .2-.7.8-1.7 1.3-1 .4-1.7.9-1.7 1l.6.4c1 .5 1.1 1 .3 2.1-.3.6-.8 1.1-.9 1.2l-.4.7c-.1.5 0 .6.2.6.3 0 .4.2.3.6-.1.4-.1.4.5.1l1.4-.9 1-.6c.5 0 .3 1.6-.2 2.1-.5.6-.5.6.2.6.5 0 1-.3 1.5-1 .7-.9.8-1 1.8-.8l1.1.2v-1c0-1.6.5-3 1.2-3.8.7-.7 1.5-2.7 1.5-4 0-.6-.2-.7-1.6-1.1-.8-.2-2.2-.5-3.2-.5s-1.7-.3-1.8-.4c0-.2 0-.3.3-.3.2 0 .1-.1-.2-.3l-.4-.5c0-.2 2-.8 2.6-.8.4 0 .4.7 0 .8-.2.1.2.2.8.3.8.2 1.2.1 1.3 0 .2-.7 1.4-.9 2.3-.5 1.3.6 1.5.6 1-.2 0-.4-.4-.7-.7-.7-.3 0-.4-.1-.3-.5.1-.4 0-.5-.4-.7-.3 0-.5-.3-.5-.5 0-.3.1-.4.4-.3 1.6.5 3 .7 3.2.6l-.1-3.1c-.2-2-.2-4.6 0-7.3.2-4.8 0-4.3.5-4.3a87.5 87.5 0 0 0 0 13c.1 2.2.1 2.4-.4 2.9-.2.3-.5.7-.5 1 0 .6.2.6 1 .5h1.3c.6.5.6-.2.8-8.8.1-8 .3-11 .6-10.4v6.1a25819.8 25819.8 0 0 0-.8 20c-.2 0-.2-1.1 0-3.1 0-3.6.2-3.4-1.8-3-.8.1-1.1.6-.4.6.6 0 .5.4-.1.8-.6.2-.6.5-.6 7.2.1 15.4 0 24-.1 23.9-.1 0-.3-4-.4-8.6-.4-12-.4-12.7-.2-17.6.2-4 .1-4.4-.3-4.4-.2 0-.5.5-.6 1.1-.1.6-.6 2-1.1 3-.7 1.6-.9 2.1-.7 2.5.2.3.2.6 0 .7-.1 0-.3.6-.3 1.2 0 1.5-.4 2-2 2.1l-2.3.6-1 .5.2 1.2c.1 1.4-.1 1.8-1.7 2.4-1 .4-3 .2-4.2-.5-1-.6-1.5-.7-2-.1-.2.3-.2.6.2 1.3.3.6.4 1.3.3 1.7-.2.8.4 2.9 1 4 .5.7.5 1.5 0 2.8-.2.6-.5 2-.5 3 0 1.1-.3 2.6-.6 3.3-.3 1-.3 1.4 0 1.9l.2 1.3c0 1 .8 1.5 1.7 1.2l2.1-.7c3.4-1 3.2-1 4.3-.3l1.7.9c.4 0 1 .4 1.4.6.3.3.8.5 1 .5.4 0 .8 1.1.6 1.8l-.2 1.8c0 1-.5 1.7-2.2 4.6-.2.3-1.8.5-2.7.2-.5-.2-.6-.1-.6.6 0 .4.5 1.7 1 2.7.5 1 .9 2.3.9 2.8 0 1 1 1.4 3.5 1.6 1.5 0 2.3 0 3.8-.6 2.4-.8 3.5-.8 4.3 0 .3.3.6.7.6.9 0 .5 1.3.3 1.6-.2.2-.3.6-.6 1-.6.3 0 1-.4 1.5-1 .8-.7 1.5-1 2.8-1.4a183.8 183.8 0 0 0 4.5-1.2c.2.1 1 1.3 1.7 2.7l1.3 2.5-1.3 2.5c-.7 1.4-1.5 2.7-1.8 3-.4.1-1 .6-1.4 1-.4.4-1 .8-1.4.8-1.5.4-3 1.1-4 2l-1.4 1c-.2 0-.9 1.6-.7 1.8a46.9 46.9 0 0 0 6 1.1l-2.7-.8c-1.6-.5-2.3-.8-2-1.1.1-.1 1.4.2 2.9.6 1.5.5 3.3.8 4 .8l2.5.4 2.7.8c3.4.9 6.3 1.8 6.5 2 .6.6-.3.6-2.3-.1-1.2-.4-2.4-.8-2.6-1-.3-.1-.6 0-.9.3-.4.5-.3.5 3.2 1.3a820.6 820.6 0 0 1 21 5.5l7.9 2.2a318.5 318.5 0 0 0 13.2 3.3l4.5 1.2 3.8.9 2-1c1-.5 2.4-1 3.2-1 1.3-.2 1.5-.2 2.3.5 1.1 1 2.1 1.3 3 1.2.8-.1.8-.1 1-2.2 0-2.5.5-3 .6-.6 0 2 .3 2.7.6 2.7.1 0 .2-.7.2-1.5 0-1.3.1-1.6.5-1.6.3 0 .4.2.3 1-.1 2.4.1 2.8 1.3 2.1.5-.3.5-.4.1-1-.4-.9-.3-1.7.1-1.7.1 0 .4.4.6.9.3 1 1.2 1.4 1.5.5.2-.6.8-.7 1.2 0 .1.3.8.4 2.4.5 3.1.3 4.2 1 4.2 3 0 .9-1 3.1-1.3 3.1-.2 0-.3.1-.3.3 0 .3.8.3.9 0 0-.1.8 0 1.7.3 2 .6 2.3.8 2.3 1.2 0 .2 1.4 1 3 1.6 2 .8 3.1 1.5 3.2 1.7 0 .4 0 .4-.8.1a97.2 97.2 0 0 0-7.9-3.1c-2.6-1-4-1.3-4-.8a63.6 63.6 0 0 0 14 5.3l1.2.7a122.7 122.7 0 0 1 12.1 4.5c1.6.6 1.7.7 2 1.6.3 1.5-.1 1.6-1.6.6a49 49 0 0 0-8.3-3.7c-.5 0-1.3-.2-5.9-2-9-3.3-9.7-3.5-11-2.8-.9.5-1.1.5-2.6.2l-4.4-.5c-2.2-.2-3-.1-3.7.2-.6.3-1.3.5-1.7.5-.4 0-1 .2-1.3.5-.5.5-1 .6-2.8.7l-2.3.1-.8-1c-.5-.6-1-1.2-1.3-1.3-.3 0-.7-.4-.8-.8-.2-.4-.6-.6-1.3-.8-.6 0-1.3-.3-1.7-.4-.8-.4-3.4-.5-4-.2-.8.4-1.4 0-1-.5.3-.7 2-1.2 2.7-.8.7.3 1.5.3 1.7-.2 0-.2-.2-.8-.5-1.2-.9-1.2-1-2-.1-2.4l.9-.7c.6-.8.4-1.1-.8-1.1-.6 0-2.9-.5-5-1a69.3 69.3 0 0 0-5-1.5c-.4-.4-3-1-6-1.5-.7 0-2-.4-2.9-.7-1.2-.4-1.7-.5-2-.2-.1.2-.3 0-.6-.3a2 2 0 0 0-1-.7 155 155 0 0 1-16.9-4.8 199.2 199.2 0 0 0-10.5-2.6 84.2 84.2 0 0 1-7.9-2.5s1 0 2 .3a6375.4 6375.4 0 0 0 2.4.4c-.4-.2-5.2-1.6-5.6-1.6-.1 0-.2.2-.2.5s-.2.3-.6.2a119.4 119.4 0 0 0-6.5-1.4 18 18 0 0 0-3.9-.5c-2.2 0-2.9-.2-3.7-.7-1-.6-2.8-2.1-2.8-2.5 0-.3-1.9-2-3.3-3L84.3 79l-1.5-1-1-1-1.6-.7c-.6-.3-1.2-.6-1.3-1-.2-.3-.5-.7-.8-.8-.2 0-1.3-.9-2.2-1.7L74 71l.2 3c.2 2.5.2 3-.1 2.8-.3 0-.4-.8-.5-3v-3l-1.3-1.2c-1.2-1-3.2-2.4-3.2-2l.5 2.7c.3 1.5.5 3 .4 3.4v.7l-.4-.8c-.1-.4-.3-1.3-.3-2l-.2-1.5c-.2-.1-.4-1-.5-2-.2-2.7-.8-3-1.4-1-.3 1-.4 2.8-.4 6.2 0 3-.1 4.8-.3 5l-.3-3.7c0-2.1-.2-3.8-.3-3.8-.3 0-.6.8-1.2 3.1-.5 1.6-.5 1.8 0 4.1.2 1.4.6 2.9.8 3.4l.6 2 1 3.4a77 77 0 0 1 1.2 4.8c.8 3.6 1 4.2 1.3 4.8.3.5.3.8-.1 2.1l-1.3 3.1c-.4.9-1.2 3.3-1.7 5.3l-1.1 4.9c-.5 1.8-.7 8-.3 8.2h1.8a49.6 49.6 0 0 1 7.8 0c-2 0-4.2.2-6.9.6-3.4.4-3.7.6-2.7 2 .6.9.7.9 1.8.7 2.4-.3 11-.2 11.3.2.2.3.7.2-5.5.3-3.8 0-5.2.1-5.2.3 0 .2.6 1 1.5 1.7l1.4 1.4-.8.9c-.7.8-1.6 2.5-1.6 3h1.2c1 0 1.2 0 1.7-.9 1-1.5 1.3-1.1.6.6-.2.5 3.2.4 4.2-.1.4-.3.8-.6.8-.8 0-.6-3-1.8-4.5-1.8-.8 0-1.4-.1-1.4-.3 0-.4 1.3-.6 2.6-.5 1.4.2 4.4 1.7 4.5 2.3.1.5-1.2 2-1.7 2-.3 0-.6.2-.7.3-.4.3-2.5.5-7.6.7l-4.5-.1c0-.2.4-.3.8-.4l-1.1-.1c-2 0-2.1.2-.3 1.3.8.4 1 .5 1.6.3.6-.4 5.3-.5 5.6-.2.4.3-.4.6-1.2.4-.9-.3-3.2 0-3.2.3 0 .2.4.3 1.8.6 1.2.2 1.7.7 2 2.1.4 1.3.4 1.4-.9 1.6l-2.9.8c-2.3.8-4.8.8-8.2 0zm2-1.1c0-.7 1.8-3 2.1-2.9.2.2.1.5-.2.9l-.9 1.5-.5.8h.9c.8-.2 1-.3 1.5-1.5.4-1 .6-1.3.8-1 0 .2 0 .7-.2 1.2-.5 1.2-.5 1.2.3 1.2.4 0 .7-.2 1-.8.1-.4.4-1 .7-1.1a1731 1731 0 0 0 0 1.3c-.3.7 0 .7 1.6.3 1.4-.4 2.1-1.8 1.1-2.3-.2-.2-1-.3-1.7-.4-2-.3-6.2-2.5-7.3-4-1-1-1.3-1.2-1.3-.6s-1.5 3.3-2.4 4.5c-.5.5-.8 1.1-.8 1.3 0 .4 1.9 1.4 3.3 1.8 1.4.3 2 .3 2-.2zm-1.6-1c0-.5 1.8-3 2.1-3 .5 0 .3.4-.7 1.9s-1.4 1.8-1.4 1zm8.9.2c-.1-.2-.2-.5 0-.5.2-.3.4 0 .3.5-.1.2-.2.2-.3 0zm-11.4-.3s.2-.7.7-1.4c.5-.7 1.2-1.7 1.5-2.4.4-.7.7-1 .8-.8.4.3-.3 1.8-1.1 2.9l-1 1.3c-.3.6-.6.8-.9.4zm-1.4-1.8c1.5-1.9 2.8-4.3 2.8-5.1 0-.3-.3-.7-.6-1-.7-.7-.7-.7-1.2-.3-.4.4-3.6 1-5.4 1-.5 0-1 1-1.5 2.9-.2.6-.4 1-.7 1-.2 0-.4.3-.4.7 0 .7.8 1.3 2.4 1.9 1 .3 1 .3 2-1 1.5-1.8 3.3-4.5 3.3-5s.4-.9.6-.5c.4.5-1.4 3.7-2.7 4.9l-1 1.3c-.3.6-.3.8 0 1 .6.4.8.2 2.4-1.8zm-4.6-.2.7-1.1 1.4-2.5c.7-1.6 1-2 1-1 0 .5-1.4 3.3-2.2 4.2-.4.5-.9.7-.9.4zm-.2-2.7c0-.3 1.3-1.9 1.3-1.6 0 .4-.8 1.8-1 1.8-.2 0-.3-.1-.3-.2zm19.1-3c1-2.1 1.1-2.4.6-2.4-.2 0-.7.7-1 1.5-.4.8-.9 1.4-1 1.3-.2-.1.1-.9.6-1.7.8-1.6.8-1.6.3-2.1-.8-.9-3-2.2-3.5-2.1-.2 0-.5.4-.5.7 0 .4-.6 1.4-1.1 2.3-1.2 1.8-1.8 3.2-1.5 3.5.2.3 1.2-1 1.9-2.5.6-1.4 1.1-1.8 1.1-1 0 .2-.2.9-.6 1.4-.3.6-.5 1.1-.3 1.3.2.2.4 0 1.6-1.7.3-.4.7-.7.8-.6l-1 1.7c-1 1.4-1 1.6-.7 1.8.3.2 1.1.4 2 .4h1.4zm-3 1a40.5 40.5 0 0 1 2-3.6c.1.1-1.4 3.3-1.7 3.5H65zm-4.6-.8c.1-.6.8-1.8 1.4-2.8 1.2-2 1.4-2.6.5-2.1-.4.3-.5.2-.8 0-.3-.7-1 .1-1.7 2-.3 1-.7 1.8-.9 1.8-.5.2-.2-.7 1.9-4.8 1.5-3.2 1.8-4 2-5.8v-1.8a56.2 56.2 0 0 0-5.4 12.1c-.5.4-.4.4.1.9l1.4 1c.9.7 1 .7 1.5-.5zm-5.6-1.6c.5-.2.7-.4.5-.8-.2-.9-.1-6 .2-6.7.3-1 .8-.6.6.5v.4l.6-1.1c1-2.3 1-3.4.5-3.4-.6 0-.5-.3.1-1.1 1.3-1.7 3.1-6.9 3.4-9.6 0-1.6.3-2.3.7-2.9 1-1.4 1.4-2.3 1.2-2.8-.2-.3 0-.8.4-1.8.4-.7.7-1.8.7-2.3 0-.6.1-1 .4-1.3.5-.3.5-.4 0-1.7l-.8-1.9c-.2-.2-.6-1.2-.8-2.3a28 28 0 0 0-1-3.3c-.4-1-.5-1.7-.4-2.5.2-1.7-.3-3.8-.9-3.8-.3 0-.5-.1-.5-.3 0-.2-.5-1.5-1.2-2.8l-1.2-2.4-1.5.2c-.9 0-1.4 0-1.4-.2l.3-.4h-.1a.7.7 0 0 1-.7-.3c-.4-.8-4.8-.5-4.8.2 0 .2.5.9 1 1.6 1.2 1.3 1.4 1.8.7 1.8l-.4-.2-.4-.7-1.1-1.6c-.6-.9-.7-1-1.5-.8-1.2.3-2.3.9-2.1 1.2l.5.2c.6 0 2 1.4 1.8 1.8 0 .2 0 .6.3 1 .7 1 3.7 4.8 4.3 5.2.5.4.5.4.6 0 0-.7.1-.7 1-.1.8.4 1.1 1 1.1 2 0 .6-1 .6-1.9 0-.8-.7-1-.7-1 0 0 .2 0 .5-.2.5-.4 0-3.5-3.5-4.9-5.7-.8-1.2-1.4-1.9-1.6-1.8-.1.2 0 .5.2.7.2.2.6 1 .7 1.5.5 2 2.2 4.2 6.7 9 1.6 1.8 3 4.2 2.5 4.2-.2 0-.7-.6-1.2-1.3-1-1.5-1.3-1.6-.9-.4.6 1.5-.5 1.3-1.1-.3-.2-.4-1-1.6-1.9-2.6-1.7-2.2-3-4-4-6.1-.5-.9-.9-1.4-.9-1.2 0 .4 2 4.6 2.5 5.2l1.7 1.9c1.2 1.4 1.7 2.2 1.2 2.2l-1.2-1.2c-2-2.4-2-2.4-2-2l.3 1.2.4 1.2c0 .3.4 1.2.8 2 .8 1.3 1 2.5.3 2h-.3c0 .3 1.9 1.6 2.4 1.6 1.2.2 2.2.5 2.6.9.8.6 2.4 1.1 3.7 1.1 1.4 0 1.9.3 1.3 1-.2.3-.7.4-2.2.3-2-.1-3.2-.6-4.5-1.8-.4-.4-1.2-.9-1.7-1-1-.4-2.5-1.7-2.9-2.7-.2-.6-.2-.6-.3 0l.8 1.4 1.3 1.6c.2.4.5.7.7.7.1 0 .4.2.6.5.4.5.1 4-.4 4.5-.2.2-.3.5-.3.8l-.6 1.5c-.3.6-.7 2.1-.9 3.3-.2 1.2-.5 2.5-.7 2.9a17 17 0 0 0-.5 3.2l-.5 4a34 34 0 0 0-.4 4.1c0 1.4-.2 2.9-.4 3.4-.5 1.6.4 2.4 3.3 3 2 .2 4 .2 5.3-.3zm-7-2.6c-.4-.5-.4-1 .2-1.3.3-.1.3-.4.2-1-.3-1.2-.3-2 0-2.1.5-.2 1 2 .7 3.3-.2 1.3-.5 1.6-1 1zm3.7-1.8c0-.1 0-.3.2-.4l.6-1.3c.4-1 .4-1.1-.1-1.5-.5-.4-.5-.9-.6-4.7-.2-5.1.1-9.1.7-9.3a54.5 54.5 0 0 0 .2 12l.1 1 .2-.7c.2-.4.3-2.3.4-4 .1-1.9.3-3.4.4-3.5.3-.1.3 1.4 0 4.8a8.8 8.8 0 0 0 0 2.4L55 117c1.3-2.3 1.2-1.5-.2 1.3a46 46 0 0 0-2.4 5.3c-.3.4-.7.4-.7.1zm1.6-22.4c-.5-1.3-.1-1.8 1-1 .4.3 1.4.5 2.2.6 1 .1 1.4.2 1.5.6 0 .4-.2.5-2.2.5-2.2 0-2.3 0-2.5-.7zM58.5 91l.4-.2c.2 0 .4 0 .4.2s-.2.3-.4.3-.4-.1-.4-.3zm-.8 35.3c0-.2 0-.4.2-.4.1 0 .3-.4.4-1 .1-.6.4-1.5.7-2a49 49 0 0 1 2.5-5.7c2-4.1 3.3-7.7 4.4-12a32.5 32.5 0 0 1 1.6-5.4L68 98c.6-1 .5-1.6-.2-4-.4-1.5-.7-2-1.1-2.2-.5-.2-.7-.4-.7-1.2a26 26 0 0 0-1.5-6.7c-.6-1.7-.8-2.6-.6-3 .1-.2.2-.5 0-.7-.2-.4-.5.2-.5 1l-.2.6c-.4 0-.5-1.6-.3-3.3v-1.8c-.2-.3-.3-.2-.3 0 0 .3-.2.6-.4.8-.5.4-.5.3 0-.9.3-.5.4-1.2.4-1.6-.1-.4-.2-.3-.7.7a5.2 5.2 0 0 0-.3 4c.1.5.3 1.9.3 3 0 1.2.2 2.3.4 2.6l.6 2 .5 1.8c.2.1.7 1.5 1.2 3 1.1 3.5 1.2 5 .3 6.8-1 2-2 4.3-2.3 5.3-.3 1.6-1.3 4.8-2.3 7.4-1.2 3.4-2.7 10-3 12.8v2.3c.2 0 .3-.1.3-.4zm3-10.4c0-.2.2-.4.4-.5.2 0 .3 0 .2.2 0 .2-.2.4-.4.5-.2 0-.3 0-.3-.2zm118.2-1.2c.8-.4.8-.5.6-1.9 0-.7-.1-1.5 0-1.6.2-.4 2 0 2 .3 0 .2-.1.4-.3.5-.2 0-.2.4 0 1.3.3 1 .5 1.3.8 1.2.3 0 .4-.3.4-.7l-.6-4-2 .6c-2 .7-3.5 1.8-3.8 2.9-.3.6-.2.8.4 1.2.9.7 1.4.7 2.5.2zm6.7-.7c.1-.1.4-.2.7-.1.2 0 .6 0 .8-.3.1-.2.5-.3.7-.2.6.1 2.2-.6 2.4-1.1 0-.2.3-.4.6-.4 1 0 3.2-3.1 2.4-3.4-.4 0-.4-2.3 0-2.5v-.5c0-.2-1-.2-2.4-.1-1.9.1-2.6.3-4 1-1.7.9-1.7 1-1.7 1.8.2 2 .4 3.2.6 3 .2 0 .2-.7.1-1.4-.1-1.3 0-2.6.4-2.6.2 0 .3.8.4 1.9l.3 2.7c.2 1-.2 1.7-.7 1.2-.3-.2-.4-.2-.6.3 0 .4-.2.5-.4.3-.3-.3-.8-3-.8-4.2 0-1-.4-1.2-.7-.5-.1.3.3 3.1.6 4.4.2.5 0 .5-.5.4-.6-.2-.7-.1-.5.2.1.5 2 .6 2.3.1zm2-1.9c.1-.2.3-.3.5-.3s.4.1.5.3c0 .2-.1.3-.5.3-.3 0-.5 0-.4-.3zm-.4-2.4c-.2-1.2 0-2.4.5-2.2.1 0 .3.3.2.4l.3 1c.4.5.4.6 0 1.1-.5.8-.8.7-1-.3zm3.1-.4c-.7-.3-1-.8-.6-1.2.2-.2.4-.2.8 0 .5.4.5.3.5-.8 0-.8.2-1.2.4-1.3.5-.2.8 1 .6 2.5 0 1-.6 1.2-1.7.8zm-15.7 1.7c0-.2-.1-.3-.4-.2-.3 0-.4 0-.5-.4-.1-.3-.4-.6-.6-.6-.3 0-.4-.2-.2-.8l.1-.8-.8.4c-1 .6-1 1.2.4 2 1.2.9 2 1 2 .4zm6.9-2.5c.5-.2 1.2-.6 1.6-1l.6-.7-.6-.1c-.3 0-.7 0-1 .2-.2.2-.8.3-1.6.2-1-.2-1.3-.1-1.5.2-.2.6-.2.7.1.5.2 0 .3.2.4.6.2.5.3.6.6.5l1.4-.4zm-4.8-.8c0-.3 0-.2-.2.1-.3.7-.3 1.2 0 .7l.2-.8zm-1.4-2c.4-.4.8-.6 1-.5.2 0 .5 0 .7-.2.2-.3.2-.5 0-.6-1.1-.4-2.6.6-3 2-.2.6-.1.6 1.3-.8zm3.4 1v-.3c-.2 0-.4 0-.4.2l.1.3.3-.3zm-150.5-3.2c-1.1-.1-1.9-.3-2-.6-.2-.3-.3-.3-.5 0-.5.7-.3.8 2 .8H30zm3-1.1c0-.2-.3-.3-.7-.3l-2.2-.1c-1.2-.2-1.5-.1-1.7.2-.1.4.2.5 2.2.5 1.5 0 2.4-.1 2.4-.3zm4.4-.3h-2.1c-.6.2-.3.2 1.3.2 2 0 2 0 .8-.2zm-8.6-.6c.3-.4.2-.4-.4-.4-.6 0-.9.2-.5.6.3.3.5.2.9-.2zm2.1-1.2c.3-.2 0-.3-1-.3-1.2 0-1.4.1-.8.3.9.3 1.3.3 1.8 0zm.7-1.3c0-.2-.4-.3-1.2-.3-1.8 0-2 .5-.3.5l1.5-.2zm.4-1.1c0-.3-.2-.3-1 0-.4.2-.4.2.2.2.4 0 .8 0 .8-.2zm18.7-5.3c-.6-1-4.6-5.2-4.8-5-.3.3 3.2 4.9 3.6 4.8.2 0 .6.2.8.6.7 1 1 .8.4-.4zm4-2.4c0-.3-.8-1-1-1 0 .2 0 .5.4.8.5.5.6.6.6.2zm-5.8-2.4a89.7 89.7 0 0 1-3.7-9.6c0-.5.5 0 1.1 1.2l.9 1.3c.3 0-.3-2-.7-2.3-.3-.3-.3-.4 0-.7.3-.2.4-.7.3-1.6v-1.3l-1 .2-1 .2a16 16 0 0 0-1.4 5.4c0 .8 1.3 3.7 2.5 5.3.8 1.1 3.6 4 3.7 4 0-.1-.2-1-.7-2zm-33.2 1.6-1.4-.2c-1 0-1.1 0-.7.2.7.4 2.3.4 2 0zm85.8-2.8-.1-3.2-.3-2.8.9-1c1-.9 3-1.7 3.7-1.4.4.1.3.2-.3.7-.7.6-.7.6-.5 2.8 0 1.2.3 2.2.4 2.2l1.3-.7 1.2-.7 1.9-.7c.9-.5 2-.8 2.3-.8 1.3 0 2.4-1.8 3-4.3.3-1.8.3-1.9-.4-3-.7-1.2-.8-1.2-2-1-1.1.1-3.3 1-3.8 1.5l-1.1 1.4-.8 1-2.5.2c-2 .1-2.5.3-2.8.6-.1.3-.6.8-1 1.2-.7.7-.7.7-.3 1.5.4.8.4.9 0 1-.2.1-.6 0-.9-.3-.8-.8-.9-.2-.1 1.4 1.1 2.3 1.7 4 1.4 4.2-.4.2-.2.6.2.6.2 0 .5-.2.6-.4zm5-5-.2-1.1c0-1.1.4-.9.7.4.2.8 0 1.1-.5.7zm3-3c-1-2.4-.8-3 .4-1.9.5.5 1 .7 1 .6.3-.3.2-1.6-.2-1.9-.5-.4-.5-1.3 0-1.3.2 0 .5.2.7.5l1.5 1.3c1.4 1.1 1.4 1.6 0 1.8-.8.1-1 .3-1 .7 0 .3-.3.6-.6.6-.3.1-.6.5-.7 1 0 .4-.2.7-.3.7l-.9-2zm-1.8.2c-1-1-1.2-1.9-.4-1.8.5.1 1.5 1.7 1.3 2.3 0 .3-.2.2-.9-.5zm5 .6c0-.2 0-.3.2-.3s.3.1.3.3c0 .1-.1.2-.3.2a.3.3 0 0 1-.2-.2zM97 85.6c-.4-.4-1-.7-1.2-.6-.4 0-.4.2.4.7 1.3.8 1.6.7.8-.1zm4.4-.6c.9-.4.9-.4.9-1.8 0-1.7-.4-1.9-1-.5-.3 1.3-.6 1.4-.6.4 0-1-.4-1.8-.7-1.6-.2.3.2 4 .4 3.9l1-.4zM54 84l-.4-.2c-.2-.1-.4 0-.4 0 0 .2.2.3.4.3h.4zm41.3-.7-.2-1.4c0-.5-.2-1.1-.4-1.4-.5-.5-.6-1.6-.3-2.2.2-.2.6-.3 1.5-.1 1.8.3 1.9.3 1.9 0 0-.5-1.7-1.6-2.9-2-.5-.2-1.9-.3-3-.4l-2.5-.2c-.3-.2-.8 0-1.3.2l-1.6.8c-1.4.7-1.8 1.8-.8 2.1.6.2 5.4 2.8 7.1 4 2 1.3 2.8 1.4 2.5.6zm-58.3 0c.6-.8 1.4-2.4 1.4-3l.4-1.3c.2-.5.6-1.3.7-1.9.2-.6.5-1 .7-1 .5.1 3.7-4.2 3.3-4.6 0-.1-1 .2-1.9.8l-1.8 1-1.8 4.3a142.6 142.6 0 0 1-2.4 5.7c.2.4 1 .4 1.4 0zm-3-2.7c.5-1.2 1-3.2 1.2-4.5l.7-4c.4-1.6.4-2.2.1-1.8-.3.4-1.6 5-2.2 7.7a12 12 0 0 1-.7 2.8c-.6.6-.6-.2 0-2.4.5-2.1.5-2.4 0-2.6-.3-.3-.3-.6 0-1.8.2-1 .2-1.4 0-1.5-.2 0-.3-.2-.3-.4l-.2-.4c-.4 0-1.1 2.7-1.4 5l-.6 3.4c-.3 1.2-.3 1.5 0 1.8.3.3.5.3.8.1.2-.2.4-.2.7.3.6 1 1.1.6 2-1.7zm-2.3-.2c.2-1.9.6-3.8.8-4.2.6-.9.2 1.8-.6 4.4l-.4 1zm3.7 1 .8-1.8 1.7-4 .7-2.1c0-.8.3-1.1 1.5-1.7 1-.5 4.1-1.4 4.8-1.4l1.5-.8c2-1.4 3.6-1.9 6.3-2 1.4 0 2.8-.2 3.3-.4l.8-.4h-1.5a5 5 0 0 1-2-.5c-.3-.3-.7-.3-2.5.4l-3 1.1c-.8.4-1.1.4-1.3.2-.2-.5-1-.1-2.6 1.1-.9.7-1.3.9-1.5.7-.2-.4 1.9-2.2 3.6-3 .7-.3 1.4-.8 1.4-1l1-.7c1.1-.5 1.1-.5.5-.5-.7 0-1-.4-.5-.7.5-.3.3-.7-.3-.7-.7 0-2.8 1.1-4.3 2.3-1.1.8-1.6.9-1.3 0 .4-1 5.3-3.5 6.4-3.2.3 0 2.3-.3 4.4-.8a62.7 62.7 0 0 1 4.8-1.2c.2-.3-5 .1-8.9.8-.9.2-1.5.2-1.7 0-.4-.4 1.2-.8 4.7-1 5-.5 5.2-.5 5.2-1.1 0-.7-.5-.7-2.7-.1-.9.2-1.6.3-1.7.2-.3-.3.5-.7 2-1l1.5-.4h-4.3c-1.7 0-3-.3-3.2-.8-.1-.3 3.4-.3 8.9.1 1.6.2 1.9.1 1.9-.2 0-.5.7-1 1.4-.8.5.1.4 0-.3-.7-.5-.4-.8-.9-.8-1 0-.7-.8-.9-2.8-.6l-2 .5c0 .3 2.2.6 3.8.6.7 0 1 0 1 .4s-.3.4-2 .3c-6.2-.6-5.7-.7-11.7 1-1 .3-1.7.4-1.8.3-.4-.4.4-1.2 1.7-1.7 1.6-.6 6.2-1.7 7.3-1.7.6 0 .7 0 .4-.2-.3-.2.3-.3 1.7-.3l2.1-.1-1.4-.8c-2-1-4.5-2.9-4.5-3.2 0-.2-.5-.6-1.1-1-1-.4-1-.4-1.2 0l-.4.4a17 17 0 0 1-3-4.8l-.7-1.4-.3.7-.5 1.2-.7 1.2c-.2.4-.7 1.2-1.1 1.6-.4.4-1.3 1.7-1.9 3a122.3 122.3 0 0 1-4.5 7.9l-.8 1.8-1.3 4A1458.4 1458.4 0 0 1 33 70l.2-.4 1.1-2.7 1.2-3.1c.2-2.2.8-3.3 3.2-5.6 2.1-2.2 2.3-2.4 2-3-.3-.4-.2-.5.3-.7.4-.1.7-.5.7-.7 0-.6 1.3-1.2 2.7-1.3.6 0 1.2-.2 1.3-.3.4-.4 1.3-.5 1.3-.1 0 0-1 .7-2.2 1.2a7.8 7.8 0 0 0-2.2 1.3c0 .2.4.3.8.4 1 .1.7.7-.5.8-1 0-1.1.2-1.4 1l-.3 1.1c0 .3-.4.8-.9 1.3-.6.6-.7.9-.4.9.6 0 .9.5.4.8l-1 .2c-.3 0-.9.4-1.3.9a27.2 27.2 0 0 0-4.5 9.3c0 .8.3.3 1.3-2.1 1.2-2.8 3.5-7.3 3.8-7.3.4 0 .5.6 0 1.3L37 67.4c-.1.4 0 .6.3.6.5 0 .5 0-.2 2.4-.3 1-.6 3-.8 4.5-.2 2.1-.9 5-1.7 7-.3.7.4.4.9-.5zm10.2-32.3c-1.7-2-2-2.8-1.6-2.8.6 0 3.6 4 3.1 4.3-.1.1-.8-.5-1.5-1.5zM28.9 79c-.2-.3-.3-.2-.6.6-.4 1.7-.3 2.3.3 1 .3-.8.4-1.3.3-1.6zm72.8 1.5c-.1-.2-.3-.1-.4 0v.6c0 .2.2.1.3 0 .1-.3.2-.5 0-.6zm-53.5-.5-.3-.3c-.2 0-.2.2-.1.3l.2.3.2-.3zm36.7-3.3 1.8-1.6c1-.8 1.1-1.1 1.1-2 0-1-1.1-3.5-2.6-5.7-.9-1.3-1.3-2.7-.8-2.7l.5.4c.2.3.3.4.3.2 0-.7-2-3.3-4-5.4-2.3-2.4-3.5-4.3-3.3-5.2.1-.4-.1-1-.9-1.9-1.3-1.7-2.6-2.6-3.9-2.8-.8-.2-1.6-.6-3.5-2.4-2.5-2.1-3.5-3.6-3.3-4.3.3-.6.5-.4 1.2 1 1 1.7 5.5 5.7 6.2 5.5l.2-1.2.1-1.2c.9-.6-2.6-8.5-4.5-10.2-1-1-1-1.4-.3-1.4.3 0 1 .6 2 1.9.5.4.9.8 1 .7.2-.3-.7-1.7-1.7-2.7-.7-.7-.9-1.1-.8-1.5.3-.7.5-.6 1.4.5 1 1.3 1.9 3.3 2 4.7l.6 2.1c.3.6.5 1.8.7 2.7.2 1.8.3 2 .7 1.8.5-.3.3-1.7-.3-2.8-.5-1-.5-1.3-.2-2.7.2-1.3.2-1.7-.1-2.3-.3-.5-.6-.8-.8-.8-.6 0-2.9-4-2.3-4l.8 1c.3.5.6.9.7.8.2-.2-1.1-2.8-1.4-2.8-.3 0-2.3-3.2-2.7-4.4-.2-.5-.5-1-.7-1-.2 0-.7.7-1.2 1.4-.7 1.2-.8 1.5-.6 2 .2.6.5.8 1.3 1 2.3.2 2.3 1 0 .8-1.8-.2-2.2 0-4.1 1.8a8 8 0 0 0-2.2 4c-.2 1.2.3.8.6-.4l.6-1.5c.4-.4.8-.4.6.2-.7 1.8-1.3 4.7-1.3 6.7 0 1.8-.1 2.2-.5 2.3-.5.1-.6.6-.2 2.4.3 1 .5 1.5.8 1.5.4.1.5.5.6 1.1 0 .8.2 1 1 1.5l2.8 1c1 .2 1.8.5 1.9.7.1.4-.6.4-2.7-.2-1-.3-1.9-.5-2-.4l1 2c.7 1.2 1.2 2.8 1.5 4.2.3 1.2.6 2.3.8 2.5.2.1.6 1 1 1.7.5.8 1.4 2 2.1 2.7l1.3 1.5c0 .3 2.4 2.4 3.5 3l2.2 1.9 2.5 2c2 1 4 2.4 4.1 2.8.2.5.5.4 1.4-.5zM81.8 74c-.4-.2-.2-1.3.2-1.3.7 0 2.2.8 2 1 0 .5-1.7.7-2.2.3zm-3.5-5.6c-.4-.2-.3-.2 1-.2v.2c.1.3-.5.3-1 0zm-2.9-1c-1.6-.3-3-.9-2.3-1l1.3.1c.4.2 1.6.4 2.5.5a5 5 0 0 1 1.8.4c.2.3-1.5.3-3.3 0zm2.1-3.3c-.2-.3-.5-.4-.7-.4-.7 0-4.5-1.5-5.2-2l-.6-.5.7.2c2 .4 7.1 2.4 7.1 2.8 0 .4-1 .3-1.3-.1zm-2.6-4c-4.3-2.3-5.8-3.5-5.3-4 .2-.1.5 0 1.1.6.5.5 2.5 1.7 4.6 2.8 3.9 2 4.3 2.2 4.3 2.6 0 .5-.7.2-4.7-2zm-3.7.3c-1-.3-1.5-.6-2-1.3-1.6-1.7-.9-1.8 2.6-.1 3 1.5 2.7 2.2-.6 1.4zm1.3-7.2-1.5-1c-.3 0-2.2-1.7-2.2-2 0-.2.4 0 .8.4l2 1.3c.7.3 1.7 1 2.2 1.4.8.7.9.8.4.8-.3 0-1-.4-1.7-.9zm-.5-1.9-2.6-1.6c-1.4-.8-2.5-2-2.5-2.7 0-.5.7-.3 1 .3.2.6 2.4 2.2 4.8 3.7.5.3.9.7.9.8 0 .4-.7.2-1.6-.5zM100 76.2c.4-.2.7-.5.6-.6 0-.4-2.3-1-2.6-.8-.3.2 0 .6.6.6.3 0 .5.2.5.5 0 .7 0 .7 1 .3zm-38.3-1.8a4 4 0 0 0 .3-1.3c-.3-.3-1.2 1.4-1.2 2 0 1.2.3.8.9-.7zM34.7 72l.4-2c-.1-.2-1.8 4.7-1.7 5.2 0 .5.6-1 1.3-3.2zM61 73.2c.5-.5.8-1 .8-1.2 0-.3-.1-.3-.5.1l-1.1 1c-.4.3-.8.7-.8 1 0 .6.3.5 1.6-1zm-15 0c.1-.3.2-.5.1-.6-.2-.2-1.5.6-1.5 1 0 .3 1 0 1.4-.5zm11 0c.1-.2-.4-.2-1.1 0-.5.3-.5.3.1.3.4 0 .8 0 1-.2zm1.3-.3h-.5l.2.1c.2 0 .4 0 .3-.1zm-2-.3c.9-.2 1-.6.2-.6s-2.2.7-1.5.8l1.2-.2zm3.9-.2c.5-.5.3-.7-.3-.6-.8.3-.8.3-.6.7.2.3.5.3.9 0zm-6.2-1c1.2 0 2.2-.2 2.3-.2.4 0-.8-.5-1.4-.6-1 0-1-.4.2-.6 1.7-.4.2-.5-1.8-.2-1.8.3-2 .3-2.4-.2-.5-.8-1.3-.6-3 .8-1.4 1.1-1.7 1.7-.5 1 .8-.6 4.6-1 4.6-.5 0 .1-.2.3-.6.4l-1.6.4c-1 .2-1 .2.5.1l3.7-.3zm8-1.2c.4-.2.4-.4.1-.4-.4 0-1.9.8-1.9 1 0 .3 1.5-.2 1.9-.6zm-4.8-1c0-.2-.3 0-.5 0-.2.3-.2.4.2.2.2 0 .4-.2.3-.3zm-1.7-.7c0-.1 0-.2-.2-.2l-.2.2v.3c.2 0 .4-.1.4-.3zm4-.5c1.1-.3 1.4-.9.3-.6-1 .2-2.2.8-1.7.9a7 7 0 0 0 1.4-.3zm4.7-.6c.3-.4.3-.5 0-.5-.2 0-.6.4-.9.7-.5.7-.5.7 0 .4l.9-.6zm-11.5-2.2c1.2-.4 2.3-.8 2.4-1 .3-.5-.9-.5-2.4 0-3 1-3 1.1-2.9 1.6.1.2.3.3.5.3l2.4-.9zm6.7 0c1-.5 1-.8.3-.5l-2.8.4c-1.3 0-2.4.3-2.6.5-.4.5 4 .2 5.1-.4zm30.3.1c.3-.1.4-.4.4-.5 0-.2.3-.6.7-1 1.2-1.3.7-1.8-.8-.8-1 .5-1.5.5-1.5-.2 0-.2.5-.5 1-.6 1.3-.3 2.3-1.4 2.2-2.3-.1-.3-.3-.5-.7-.4-.4 0-.6-.1-.6-.4 0-.2-.1-.4-.3-.4l-1.9-.7-1.5-.8-2.5.6c-1.3.3-2.4.7-2.5 1-.1.3 2 2.6 2.4 2.4l.2-.7.3-1c.3-.5.4-.5 1.4-.1 1.2.5 2.8.5 2.8 0s.7-.5 1-.1c0 .1-.2.7-.6 1.3-.6 1-.7 1-2.5 1.2-1 0-2 .3-2 .4-.1.2.1.7.5 1.3L86 65c0 .3.3.5.7.6.4 0 .9.2 1 .3.5.1 1.7-.1 2.1-.5zm-2.7-1c-1.5-1-.9-1.4 1-.7 1 .3 1.4.7 1.2 1-.3.4-1.3.2-2.2-.3zm-35.4-1c2.2-.5 3.5-1.1 2.6-1.1-.6 0-3.8 1-4.6 1.4-.9.5-.7.5 2-.2zm10 .3.7-.8c.3-.6.2-.6-.5-1a5 5 0 0 0-.9-.4c-.2 0-1.2 2-1 2.2.2.2 1.5.2 1.8 0zm-36.2-.8c0-.4-.3-1-.5-1.1-.2-.3-.3-.2-.4.5-.1.9 0 1.3.7 1.3.3 0 .3-.2.2-.7zM32 62c.2-.7.3-1.3.2-1.4-.3-.3-3.2-.3-3.6 0-.1.1-.3.6-.3 1 0 .8.1 1 1.3 1.3l1.6.4c.2 0 .5-.6.8-1.3zm27.2 1c.4-.3.4-1.2 0-1.2s-1.3 1-1.1 1.3c.2.4.7.4 1.1 0zM23 61.3c0-1.2-.1-1.5-.4-1.5-.3 0-.4.3-.4 1.4 0 1.6 0 2 .5 1.8.2 0 .3-.7.3-1.7zm4.2.4.1-1.2c.3-.6 2.1-1.2 2.6-1 .3.2 1 .2 1.8.2 1-.2 1.4-.3 1.8-1 .2-.4.4-1 .4-1.4v-.5h-6l-6 .3c-.3.3.8 2.2 1.8 3 1 .8 1 .9 1.5.5.7-.6 1.4-.6 1.4 0 0 .7.4 2 .6 2v-1zm.2-3.7c0-.4.1-.5.9-.5 1.1 0 1.4.5.5.8-1 .4-1.4.3-1.4-.3zM58 61.5l.9-.4-1 .2c-1.6.2-2 .3-2 .7 0 .3 1 0 2.1-.5zm5.8-1.2c-.5-.3-.8-.3-.8 0s.8.5 1 .4l-.2-.4zm-1.5-.9c0-.7-.8-.7-.9 0 0 .6 0 .7.4.6.3 0 .5-.3.5-.6zm-21.8-1.5c0-.4-.5-.2-.8.3-.3.5-.3.6.2.3.3-.2.6-.4.6-.6zm19.4.3c.2-.2-.6-.6-1-.4l-.2.4c0 .3 1 .4 1.2 0zm3-.2-.3-.7c-.4-.5-.4-.5-.6 0 0 .2 0 .5.2.7.5.3.8.3.8 0zm-29.4-2.3c1.2-.2 1.4-.3 1.4-.7 0-.4-.2-.5-.8-.5-.5 0-.8.1-.8.4 0 .4-.8.7-1.2.4h-4c-3.3 0-3.7 0-3.6.4.2.4.7.4 4 .3 2 0 4.3-.2 5-.3zm-3.9-1.5c0-.1-1.3-.2-3.4-.2-2.1 0-3.4 0-3.4.2s1.3.3 3.4.3c2.1 0 3.4-.1 3.4-.3zm5-.7c0-.2 0-.3-.2-.3l-.9-.1c-.6-.3-1.2 0-1.2.5 0 .3.2.4 1 .3.7 0 1.2-.2 1.3-.4zM61 52c-.8-1.4-1-1.9-.7-2.2.2-.2.2-.9-.1-2.6-1-5.7-1-7.8 0-9 .2-.2.5-1.2.7-2.3.4-2.2.8-3 1.3-2.5.5.4 1.1-.3 2-2.4 1-1.9 2.7-4.3 3.4-4.8.7-.5 1.4-.3 1.6.4.5 1.4 2.2 4.5 2.6 4.6.2 0 1 1.3 1.8 3 1.3 2.7 1.5 3 2.1 3 .7 0 .7 0 .6-1-.2-.7-.1-.8.6-1 1.4-.3 1.4-.3 1.4-1.3s-.4-1.5-.8-.9c-.2.3-.3.3-.5 0l-.3-.8c0-.1-.5-1.4-1.2-2.7a16 16 0 0 1-1.2-2.9c0-.2-.2-.6-.5-.9l-.6-1c-.3-1 .4-.7 1.8.8 2.7 3 3.3 3.5 3.3 2.6 0-.6 0-.8-.3-.7-.2 0-.6-.1-.9-.4-.6-.3-.6-.5-.5-2 0-1.4 0-1.5-.6-1.7-.4 0-1-.5-1.4-1-.6-.6-.8-.6-1.5-.5-.6.2-.7.4-.7 1 .1.5 0 .6-.6.6-.5 0-.6.2-.6.6 0 .9 1 2.6 1.5 2.6.4 0 .5.3.7 1.3 0 .8.4 2 .8 2.7 1.2 2.4.8 2.8-.7.8-.6-.7-1.1-1.3-1.3-1.3-.1 0-.2-.4-.2-1a3 3 0 0 0-.6-1.5l-.5-1c0-.4-1.4-2.6-1.7-2.6l.1.4c.4.5.1.9-.6.9-1.3 0-3.6 1.4-4.6 2.6-1.4 2-4 7.5-4.3 9 0 .7-.3 1-.6 1-.5.1-.5 0-.4-.7.3-1.1 2.5-6.1 3.4-7.7.8-1.2.7-1.5-.4-1.2-.6.2-2.7 2.6-2.3 2.8.2 0 .6-.1.8-.4.3-.2.7-.4.9-.3.1 0-.4.6-1.3 1.1a10 10 0 0 0-1.9 1.5c-.2.3-.7.7-1.2 1-.5.1-1.4.8-2 1.3-.6.5-1.2.8-1.3.8-.2-.3.2-.7 2.2-2.2 1.7-1.3 3.1-2.8 2.6-2.8-.4 0-3 2-4.2 3.2-1 1-1.2 1-1.7.8-.4-.2-.7-.2-1 0-3 2.3-5.1 5-5.1 6.2a7 7 0 0 0 1.6 3.5c.3.2 2 .8 3.9 1.3 1.8.5 3.6 1 3.9 1.2.7.4.7.1 0-1.3-.9-1.6-1.4-2.1-2.6-2.8-1.1-.5-1.4-.5-1 .3.3.6.1.8-.4.8-.7 0-2.2-1.6-2.5-2.6a6 6 0 0 1 .7-4.1c.5-.9.7-.7.4.3-.2.4-.3 1.5-.3 2.4 0 1.4 0 1.8.5 2.3.8.7 1 .3.5-.8-.3-.5-.3-1-.2-1 .1-.1.3-.6.3-1.2 0-1.2.4-3 .8-3v1a18 18 0 0 0-.2 2.6c0 1.6 0 1.6 1 2.2 1.2.6 1.5.4.8-.7-.7-1-.8-2.7-.2-3.2.4-.3.4-.1.4.9 0 .6.2 1.4.4 1.8 2 3.7 2 3.7 1.3 1.2a9.4 9.4 0 0 1-.2-4.2c0-.3.4-.5.8-.5.7 0 1.1 1.1 1.1 2.6 0 1.1-.4 1-.6-.3-.2-1.2-.7-1.2-.7-.1 0 1 .5 3.2.9 3.5l.2 1c0 .4.2 1 .5 1.4.4.4.5.8.4 1.3-.1.5 0 .9 1 1.9.5.6 1 1.3.9 1.5-.4.5-1.2.2-1.7-.7-.7-1-2-1.8-4.8-2.5-2.8-.8-2.4-.4 1.4 1.6.8.4 1.8 1 2.2 1.4.4.4 1.4 1 2.2 1.2 1.4.5 2 1 1.3 1l.1.7c.2.4.5.7 1 .7s.5 0-.4-1.9zm-25 1-.1-.2-.3.3c-.1.1 0 .2.1.2.2 0 .3 0 .3-.2zm0-3c-.3-.3-.4 1.4 0 2.2 0 .3.1.1.2-.7 0-.6 0-1.3-.2-1.4zm42.5 1.1c-.1-.4-.4-.7-.6-.7-.4 0-.3.4.4 1.2.5.6.6.4.2-.5zM37 48.6c-.1-.2-.2 0-.2.3 0 .4 0 .6.2.4v-.7zm-1.8-1-.2-1.2V48c0 1 0 1.3.2 1.2.1-.2.2-.7 0-1.5zm43.4.5c.2-.4.5-.9.8-1 .5-.3.7-1.6.3-2.5-.2-.7-.5-.5-1.1 1-.5 1.2-1.2 1.8-1.5 1.4-.2-.2.6-2 1.4-3 .6-.8.8-1.3.4-1.5-.1 0-.6.6-1 1.5-.5 1-1 1.8-1.2 1.9-.5.3-.2 1.5.5 2.3l.9.7.5-.8zM38 47l-.1.5c0 .5 0 .7.1.4V47zm2.1-2.4v-2.4c-.3 0-1 2.8-1.1 4.7l-.2 1.2.6-.5c.4-.4.6-1 .7-3zm35.3 2.9c.2-.5.2-.6-.1-.6-.2 0-.4.3-.4.6l.1.5s.3-.2.4-.5zM38.6 44c.2-2 0-2.7-.5-1.8-.3.6-.1 4.2.2 3.9l.3-2zM36 41.3c-.2-2-.3-3.4-.5-3.3-.3.3-.3 1 0 3.8a80 80 0 0 1 .5 3.1v-3.6zM77.3 43c0-.1 0-.2-.2-.2l-.2.2v.3c.2 0 .4-.1.4-.3zm1-2.1.3-1.2c.3-.5.2-.7-.2-1.2-.8-.9-1.3-1-2.2-.7l-.7.5.4 1.3c.2 1.3.6 1.5.8.5.1-.4.4-.7.7-.7.4-.1.4 0 .3.6l-.3 1.7-.2 1 .6-.7c.3-.3.5-.8.5-1.1zm-33.8-.8c.6-.8 1-1.9 1-2.3 0-1 1.7-11.5 2.5-15.3.1-.5 0-.6-.3-.6-.4 0-.7.2-.8.8-.9 2.7-1.7 7.5-2.2 12.7a12 12 0 0 1-.6 3.2c-.3.5-.7 3.1-.5 3.1l1-1.6zm15.7 0c0-.2-.1-.2-.1.1 0 .3 0 .5.1.4v-.5zM48 35l.7-5c.3-2.3.7-4.8 1-5.5.8-2 .8-2.6-.2-2.6-.8 0-.6-.8-2 7-.5 2.4-1.2 7.7-1.2 8.3C46.3 38 48 36 48 35zm35.3.8c-.1-.2-.2-.1-.2.2 0 .3 0 .4.1.3V36zm2.6-.4c-.2-1.4-.8-2.1-1.4-1.6-.6.5-.4 1.2.5 2l.9.6v-1zm-2.6-.9c-.1-.2-.2-.1-.2.2 0 .2 0 .4.1.3v-.5zM82 32.4c-.1-.7-.1-.7-.3.2 0 .6 0 .9.1.8.2-.2.2-.6.2-1zm.8.7-.1-.3-.3.3.1.2c.2 0 .3 0 .3-.2zM81.4 31c0-.7 0-1.3-.2-1.5-.2-.2-.2 0-.2.4l-.3 1c-.4.7-.1 1.5.3 1.3.2 0 .4-.6.4-1.2zm-26.1.5-.1-.3-.3.3.1.2c.2 0 .3 0 .3-.2zm22-.7c-.2-.4-.4-.6-.5-.5-.1.4.4 1.6.6 1.4l-.2-1zm-21 .2c.3-.2.4-.3.3-.4l-.6.2c-.6.5-.3.6.3.2zm22.8-.4c0-.4-.2-.9-.7-1.1-.8-.5-1.1-.3-.5.3l.7 1c.4.6.5.6.5-.2zm-20.7-1.8c.4-.4.4-.8.1-.7a3 3 0 0 0-.8.5c-.6.5-.6.5-.1.5.3 0 .6-.1.8-.3zm17.8-.3c-.2-.3-.3-.2-.1.2 0 .2.2.4.3.3 0-.1 0-.3-.2-.5zm-15.9-.8c.2-.3.9-.7 1.5-1.1 1.5-.9 1.5-1 0-.5-1.5.6-2.3 1.1-2.3 1.6s.4.4.8 0zm17.7-4s-.1-.2-.3-.2c-.5 0-.5 0-.3.7.2.4.2.4.4.1l.2-.6zM46 23c0-.3 0-.4-.2-.3-.2.1-.2.3-.1.4.2.4.3.3.3-.1zm-1-1.6c.2-.2.1-.4 0-.4-.2 0-.3.2-.3.4l.1.4.3-.4zM27.9 137.8a403.9 403.9 0 0 0-16.7-.6c-.2-.1-.1-.4 0-.6.2-.4.7-.4 7-.1 14.7.7 14.3.7 14.3 1 0 .6-.2.6-4.6.3zm173.3-1.4c-.7-.3-3-.4-8-.4a404 404 0 0 1-31.7-.7l.1-.3c.1-.2 1-.3 2.6-.2l21.4.1c15.7 0 19 .1 19.3.4.7.9-2.1 1.7-3.7 1zm-38.3-2.2c-2.7-.2-1.4-.5 3.4-.8l10-.7c4.8-.3 6.1-.3 5.3.3-.2 0-2.5.3-5.1.4-2.7.1-5.9.3-7.2.5-3.2.4-4.8.4-6.4.3zm-72.5-.3c0-.2 0-.3.2-.4.9-.3 28-.7 31.3-.5 1.2 0 1.8.2 1.7.4 0 .3-2.2.4-7.8.4-4.2 0-11.6 0-16.4.2l-9-.1zm35.8-.3c-.1-.2-.2-.3 0-.4 0-.2 2.5-.3 10.4-.5l6.9-.3c3-.2 21.2-.4 21-.2 0 .2-3.3.4-8 .5a806.4 806.4 0 0 0-23.3 1c-4.7.3-6.8.2-7-.1zM16 131c-.3-.4.8-.5 5.5-.5l5.3-.2c.8-.2 2.1 0 1.8.4-.4.4-12.4.7-12.7.3zm53.4-.5s0-.5.3-1c.2-.4.4-.6.5-.5.1.4-.6 1.8-.8 1.5zm3.8 0c0-.4.5-1 .6-.8.3.2 0 1-.4 1-.1 0-.2 0-.2-.2zm-49-3c-.2-.1 0-.2.5-.3l2.7-.1c2.2-.1 3.7 0 3.7.4s-6.8.4-7 0zm141.5.1-4.5-.5c-2-.2-3.9-.5-4-.7-.3-.3 1.9-.2 5.7.3 1 .2 3 .3 4.2.3 1.6 0 2.1 0 2 .3 0 .4-2 .5-3.4.3zm-92.4-.6c0-.2.6-.3 2-.3s2 .1 2 .3c-.1.1-1 .3-2 .3s-1.9-.2-2-.3zm5.6-.8-4.7-.4c-2 0-3.8-.2-4.2-.3-.6-.1-.5-.2.7-.6 1-.3 2-.4 5-.3 2.3.1 3.5.2 3.1.4h-1.5c-.5-.1-1 0-1 .1-.2.2-.1.3 0 .3 1.6 0 4.4.3 4.6.4l.2.4c0 .3-.7.3-2.2 0zm-3.9-1v-.3l-.4.2c0 .2 0 .3.2.3.1 0 .2-.1.2-.3zm12.4.5c-4 0-5-.5-1.3-.6 2.9-.1 5.5.1 5.4.4 0 .4.3.3-4 .2zm-8.5-3c-3.3-.5-7.6-.6-11-.3-2.4.2-3.4 0-2.6-.5.3-.1.6-.1.8 0 .1 0 .5 0 1-.3.5-.4 1.6-.5 7.7-.6 5 0 6.9 0 6.6.2l-3.7.3c-4 0-3.1.3 1.5.6 6.4.3 8 .5 8 .7 0 .3-5 .2-8.3-.2zm-3-2.8a51 51 0 0 1 10.1 0c.1.1-1.4.2-5.2.2-3 0-5.1-.1-4.8-.2zm11.8-.7a227.7 227.7 0 0 0-17.9-.8c-.2-.6 1.6-.7 6.7-.4a1017.6 1017.6 0 0 0 12.3.8c.6.2.6.2-.2.3a3 3 0 0 1-1 0zM70 116.7c-1-.6 11.2-1 18-.5l8 .2c2.9 0 3.7 0 3.5.3-.3.3-2 .3-21.3-.1a66.4 66.4 0 0 0-8.2 0zm13.1-2.4-7.6-.2c-2.4 0-3.7-.2-3.8-.4-.2-.3 1-.3 14.7.2 2.6.1 4.9.3 5 .4 0 .3-2.2.3-8.3 0zm9.4-.6c-2.5-.2-4.4-.4-4.2-.5H92a140.6 140.6 0 0 0 6.6.4c-.4.3-2 .3-6.1 0zm-13.2-.7c-.6 0-1-.2-1-.3 0-.1.3-.2 1-.1l3.7.4 2.8.2h-2.7l-3.8-.2zm16.2 0a332.1 332.1 0 0 0-6.9-.7c.3-.3 12.1.5 12.3.7.1.3-2 .3-5.4 0zm-11-1-2.6-.4-5-.2c-2.1 0-3.5 0-3.6-.3 0-.1.8-.2 2.6-.3a414.9 414.9 0 0 0 18.2-.2c.5.3-.5.5-2.1.5a41 41 0 0 0-7.7.3l2 .5c1.6.2 1.7.2.5.2h-2.2zm19.3 0c-4.1-.1-4.6-.6-.5-.6 3.7 0 7.2.3 7.2.6 0 0-.7.2-1.7.1l-5-.1zm-88.8-1.6c-.5-.4 0-1.5.7-1.9.4-.2.8-.2 1 0 .3.3 0 .8-.5.8s-.6.4-.1.6c.4 0 0 .7-.4.7l-.7-.2zM4.4 110c-.3-.5 0-.8 1.2-1 1.2-.2 2 .2 1.1.6-.8.4-2.2.6-2.3.4zm4.6-.4c0-.3.2-.4.5-.4.7 0 .6.6 0 .7-.3 0-.5 0-.5-.3zm2.1 0c0-.2.4-.6 1-.8 1.1-.5 1.1-.5 1.1 0 0 .3-1.2 1.2-1.8 1.2-.2 0-.3-.2-.3-.4zm68.4-.4a55 55 0 0 1 9.4-.2 61.6 61.6 0 0 1-9.4.2zm10 0c0-.2 1.5-.3 4.1-.3 2.6 0 4.3.1 4.4.3.1.1-1.3.2-4.2.2-2.7 0-4.4 0-4.4-.2zm129.9-.4-1.3-.8c-.7-.4-.7-.5-.8-2.3 0-1.5 0-2-.4-2-.5 0-.6-1-.2-2.6.3-1.7.6-6.5.5-10.3 0-1.7.1-3 .3-3.3.2-.3.2 1 .2 4.5l.1 5a56 56 0 0 0-.1-10.9h-.2v-.8c0-.3.1-.4.3-.3.1 0 .2-.3.2-1 0-1 0-1.3-.4-1.3s-.6-1.7-.1-2c.4-.2.3-.9-.1-.7-.4 0-.4.7-.4 2.9 0 2.7-.3 4-.8 4-.2 0-.3-.1-.3-.3a83.2 83.2 0 0 0 .4-9 421.1 421.1 0 0 1 .1-17.4l-.2 3.6c-.1 3.2-.3 4.4-.7 4.5-.2.1-.3-3-.3-9 0-4.9-.2-10.6-.4-12.7-.3-4.8-.3-7.8 0-7.8.4 0 .7 1.2.5 1.5-.2.2.4 9 .6 9.9l.3-.7c.2-.9.3 2.2.2 7a9 9 0 0 0 .2 2.8c.3.1.5-2.4 1-11.4.2-3-.1-17.2-.5-24.3 0-1.7 0-2 .3-1.7a151.6 151.6 0 0 1 .5 33.3c-.6 7-.7 10.2-.2 11.4.2.7.4 2.5.5 4.2l.2 6.6c.4 8.8.4 11.8 0 20.2-.2 5-.3 9.2-.2 9.4 0 .2.3.3.5.3l1.2.6c1.3 1 .8 1.8-.5.9zm-2-6.3c0-.2-.1-.1-.2.2 0 .2 0 .4.2.3v-.5zM218 82c0-.3-.1-.4-.3-.3-.1.1-.2.3 0 .4.2.4.3.3.3-.1zm-.5-3.3c.2 0-.1-1.5-.4-1.8L217 78c0 .8 0 1.2.1 1 .1-.3.3-.5.4-.5zM216 51.8c-.1-.2-.2 0-.2.3 0 .4.1.5.2.4v-.7zM19.3 108.6c0-.2.1-.4.3-.4l.2.4c0 .2 0 .4-.2.4s-.3-.2-.3-.4zm148.4-.5c0-.2.2-.4.3-.4.2 0 .3.2.3.4s-.1.4-.3.4c-.1 0-.3-.2-.3-.4zm-85.8-.4c-.1-.2.8-.3 2.4-.3l3.8-.1a543.5 543.5 0 0 1 14.9-.8c.5-.2 1 .3.4.5l-3.8.3-7.8.4c-5.8.3-9.7.3-10 0zm-61.4-1.3a63.7 63.7 0 0 0 3-10.7c1.3-5.2 1.5-6 2-5.5a49.2 49.2 0 0 0-1.4 6 111.2 111.2 0 0 1-2.4 9c-.3 1-1 1.6-1.2 1.2zm-13-1.5-.5-3.7c-.5-3.2-.6-9.2-.3-9.4.2 0 .4 1.3.5 3.6a109 109 0 0 0 .9 10.2c-.4.5-.7.2-.7-.7zm-3.1 0-.2-1.2c0-1 .8-1 .9 0v1.1c0 .5-.5.6-.7.1zm7.3 0c-.1-.4.4-2.6.7-2.4.2.1.2.8 0 2.6 0 .3-.5.2-.7-.2zm168.1-.7c-.2-.6-1-13.4-1.1-18.3l.1-6.7c.2-1.6.3-1.3.3 3 0 4.4.3 9 1.1 18 .3 2.9.3 3.9 0 4-.2.3-.3.3-.4 0zm1.3-.1c-.2-.7-.2-4.3.1-4.5.4-.2.5.2.6 2.5 0 1.5 0 2.3-.2 2.3s-.4 0-.5-.3zm23.4-.4c-.2-.4-.4-.4-.9-.3-.9.4-2 .1-10.6-2.4-1.5-.5-3-1.1-3.1-1.5-.3-.4 0-.4 2.6.5a65.2 65.2 0 0 0 7.7 2.2 128.1 128.1 0 0 0-10.5-4c0-.4 1-.6 1.5-.4.3.2 1.4.5 2.6.8a7 7 0 0 1 2.5.9c.6.6 1.7 1.1 3.8 1.8 1 .3 2.1.8 2.5 1.1.3.3.7.5.8.4.4-.2.6-14.8.3-27-.3-11.2-.1-16.3.3-16.3.2 0 .3 1.1.3 2.5a423.4 423.4 0 0 0 .6 16.8V66.7l-.2-13.4c0-2-.1-2.4-.5-2.4-.3-.1-.5 0-.5.3 0 .9-1.3 1.2-4 1l-9.4-1.3-1.1-.2v2c0 1.2-.1 2-.3 2 0-.1-.2-1-.2-2.1 0-2.7-.3-3.5-1.2-3.6-.7 0-.8 0-.6.8l.3 11.2a441 441 0 0 0 1.2 29.7c-.2.7-.5 0-.5-1 0-2-.6-8.6-.8-9.1-.2-.3-.3 1.2-.3 3.8 0 2.5.1 4.5.3 4.6l.4 2.9c.1 2.3.1 2.6-.3 2.7-.7.3-1-.3-1-2.4 0-2.2-.1-2.2-.2 0 0 1-.2 1.9-.3 2l-.2.3a491.2 491.2 0 0 1-.3-21c0-2.6.1-4.7.3-5 .2-.3.2.2.1 1.5v2c.2.1.3.7.3 1.4 0 .8 0 1.1.2 1 .2-.2.3-3.9.4-9.5 0-6.3 0-9-.2-8.8-.2.2-.3 2.3-.3 4.8 0 2.4-.1 5-.3 5.8a274.8 274.8 0 0 0-.4-15.8l-.2-3 2 .1 3.8.5c1 .3 3.5.6 5.6.7 4.2.3 5 .5 5.3.9.3.5-.5.6-2.5.3a56.6 56.6 0 0 0-8.1-.8c-4.7-.4-.5.7 5.1 1.3 4.3.5 5.8.5 6 0 0-.2.4-.4.8-.4.3 0 .6 0 .6-.2s.4-.3.8-.3c1.1 0 1.6.8 1.3 2-.1.5-.2 1.8-.1 2.8l.1 3.1c0 1.5.4 1.2.7-.7l.3-1.5v1.6c0 .9 0 2.3-.2 3.2a169.5 169.5 0 0 0-1.2 18.5c-.2 3.4-.3 16.1-.1 19.5 0 .8.2 1.6.3 1.7.2 0 .1.4-.1.8-.6.7-.6 1.4 0 1.4.4 0 .4.3.2 1.3-.2.7-.8.7-1.2 0zm0-6.5c-.1-.3-.2 0-.2.4 0 .5 0 .7.1.5v-1zM186 80.9c0-5-.1-5.4-.2-2.6a81.1 81.1 0 0 0 .2 2.6zm.2-29c-.1-.3-.2-.2-.2 0 0 .3 0 .5.2.4v-.5zm-95.2 51c-2.8-.1-2.4-.6.5-.5 4.1.2 15.8 0 14.6-.3l-3.4-.2c-1.2 0-2.2-.1-2.2-.3 0-.3 4.4-.4 6.6 0 1.3 0 2 .6 1.5 1-.3.3-14.4.5-17.6.3zm-79.4-4c0-4.2 0-7.2.3-7.5.2-.1.3 1.3.3 3.5l.1 5.3c.2 1.4.2 1.7-.2 1.7s-.5-.4-.5-3zM174 96c-.2-3.6-.1-5.5.1-6.6.2-1 .3-3.4.3-6.4-.1-12.2-.2-17.3 0-27.4 0-11.3 0-13.5-.7-24.2a377 377 0 0 1-.6-14.7c0-4.5-.2-9.7-.4-11.6-.4-4.6-.4-5 0-5.1.2-.1.3.2.4 1.1 0 1 0 1.2.2.7.3-.7.8-.8.8-.1.2 3.7.1 14 0 15.3-.4 2-.3 5.3 0 11a85 85 0 0 1 .5 6.6c.2 0 .3-.5.3-1.1 0-.6.1-1 .3-1a777 777 0 0 1 .1 35 438 438 0 0 0 .2 27c.2 4.9.2 5.4-.2 5.6-.2 0-.4.3-.4.5s-.2.4-.4.4c-.3 0-.4-1-.5-5zm1 0-.4-4.3c-.2-.7 0 4 .2 6.6.3 2.6.4 1.4.2-2.3zm2.2-3a187 187 0 0 1-.2-17 1742.9 1742.9 0 0 0 .7 18v5.1c-.2 0-.4-2.4-.5-6.1zM108 98.4c-.3-.2-.1-.2.7-.3h2.8l9.2-.2c6.6-.1 8.3 0 7.9.4-.3.2-20.3.4-20.6.1zm-15.5-1c-.7 0-1.2-.2-1.2-.3a395.6 395.6 0 0 1 32.2-.1l-4.5.3a6951.3 6951.3 0 0 0-26.5.1zm106.1 0 .2-5.5c.1-2.9.3-10.3.3-16.4 0-10.1 0-11.9.5-11.4a443.9 443.9 0 0 1-.3 29.5c-.1 3.4-.3 4.4-.7 3.8zm-183.5-.6c-.4-.6-1.5-3-1.6-3.6-.2-.6.3-.9.6-.3l1.8 4c0 .3-.5.2-.8-.1zm169-3.3c-.3-4.9-.2-43.2 0-42.6.3.6.4 5.1.4 28.5a790.2 790.2 0 0 0 0 17.4c-.2 0-.3-1-.4-3.3zm-106.4 2c-.4 0-.7-.2-.6-.3 0-.2.4-.3.7-.3 1.4.3 11.7.1 14.7-.1 3.6-.4 18.4-.4 19.4 0l-1.3.2c-14.6.2-19.3.3-21.2.5a94 94 0 0 1-11.7 0zm-49-.5c0-.2.4-.3 1.2-.3.7 0 1.3.1 1.3.3 0 .1-.5.3-1.2.3-.6 0-1.2-.2-1.3-.3zm4.2-.2-1-.4c0-.3 9.6-.3 9.9 0l-.1.3c-.2.3-7.3.3-8.8 0zm41-.9v-.4c.1-.1 7.2-.5 15.4-.8 6.9-.2 5.6-.6-3.2-.8-4.8-.1-6.3-.3-5.5-.4 1-.2 12.9.2 14.5.5.6.1.7.2.4.5-.3.4-.2.4.4.4a138.2 138.2 0 0 1-6 .4c-7 0-11.1.3-14.8.8-.6 0-1 0-1.2-.2zm56.5 0 .3-.2c.1 0 .3 0 .3.2s-.2.3-.3.3a.3.3 0 0 1-.3-.3zm66-2.5c.2-2.2.2-2.5-.2-2.5-.2 0-.4-.1-.4-.3 0-.1.2-.1.4 0a263.6 263.6 0 0 0 0-20.6c-.2-1.3.4-10.3.7-10.3l.1 7v14.5c.2 13.5.2 14.7-.3 14.7-.3 0-.4-.3-.2-2.5zm-117.6-.6c-.9 0-1.8-.2-1.9-.3a65 65 0 0 1 7.7-.2c4.4 0 8 .1 8 .2 0 .2-1 .3-2.3.3a1178.4 1178.4 0 0 0-11.5 0zm87-1c-2.6-.8-4.2-2.7-3.4-4 .4-.6.7-.2 1.1 1.1.4 1.4 1 2 2.6 2.2 1.2.2 2 .5 1.8.9-.2.3-.1.3-2.1-.3zm-84.6-1.5c0-.3 1-.5 2.7-.4l4.2.2c1.7 0 2.6.1 2.5.3-.2.3-9.4.3-9.4 0zm84.6 0c-1-.2-1.4-1-.6-1 .7 0 2.3.8 2.1 1-.1.4-.1.4-1.5 0zM9.7 87.8 7 87.4c-.9-.3.6-.5 2.6-.3 1.1.2 3.6.3 5.5.3 3.8 0 4.3.1 3.3.4-.9.3-6.2.3-8.8 0zm102.4-.5-2.4-.5c-1-.2-1.5-.5-1.5-.7 0-.3.2-.4.5-.3l2.4.6c1.8.4 2.4.7 2 1h-1zm-91.3-.2c.3-.3 4.6-1 4.8-.7.4.4-.7.7-2.8.8h-2zm-18.4-.3-.1-.5C2 84.9 1.8 74.9 2 74.8c.4-.3.5.6.5 4l.1 5.4.3 2 1.2.2 1.4-.1c.2-.2.3-2.9.3-7 0-7.5 0-7.6 1.8-7.6l2.4-.4c1.9-.5 1.8-.5 1.8 0 0 .3-2 1-4 1.3a4 4 0 0 0-1.3.3l-.1 6.7c0 3.6-.1 6.7-.2 7-.2.4-.6.4-2 .4-1.1 0-2 0-2-.2zm31.7 0c-1-.2-.4-.5 1-.5.8 0 1.4 0 1.4.2s-.2.3-.5.3h-1c-.2.2-.7.1-1 0zm36.5-.5c0-.2.3-.4.7-.5a95 95 0 0 1 11.5.5l-6.1.1c-4.4.1-6 .1-6-.1zm-55.5-1a37.9 37.9 0 0 0 4-6.9 41 41 0 0 1 3-5c.3-.5.4-.5.5 0 .1.2-.2 1-1 2.1l-3.4 6a17.4 17.4 0 0 1-2.7 4.2c-.2 0-.4-.1-.4-.3Zm75.7-.1a72.3 72.3 0 0 0-7.1-1.8c-.8-.5 2-.4 4 0 2 .6 5.2 1.9 5.2 2.1 0 .3 0 .3-2.1-.3zm57.5.2a51 51 0 0 0-5.2-2.2c-.3 0-.4-.2-.4-.4.3-.4 1.4-.3 2.4.4s1.5.8 1.5.5l-.5-.5c-.4-.3-.2-.3 1.4-.2l1.9.1V72.4a409.2 409.2 0 0 0-1-34.5c.3-.4.5.8.8 4.6.3 4 .3 6.6.7 23.2 0 3.8.2 7.7.4 8.7v3c-.4 1.2-.1 4.8.3 6.2.2.7.2 1-.3 1.5-.7.7-1.2.8-2 .3zm1.5-1.1c.1-.2.2-.4 0-.4l-1.6-.1-1.5-.1 1 .5c1.4.6 1.6.6 2 0zM19 84.8c-.4-.4-.2-1 .2-1 .2 0 .4.3.4.6 0 .5-.3.7-.6.4zm4.5-.1 1-4 1.3-6c.5-2.2 1-3.1 1-1.8 0 2.4-2.4 12-3 12a.2.2 0 0 1-.3-.2zm170.2-2.4c0-1.6 0-2.7.2-2.7s.3 1 .3 2.5c0 1.4-.1 2.6-.3 2.7-.1.1-.2-.8-.2-2.5zm-31.1 2-.3-7.2a351.7 351.7 0 0 0-1.3-27.4l.2-5.7c0-4.5.3-6 .6-3.2l.3 11 .2 10.5c.7 8.3 1.2 22 .7 22.2-.1.1-.3 0-.4-.1zm29.2-1c0-.3.1-.5.3-.5.1 0 .3.2.3.4s-.2.4-.3.4c-.2 0-.3-.2-.3-.4zm-124-.7c-.4-.5.5-.6 5.5-.6H79l.2-1.3v-1.1h-3c-1.8 0-3.2 0-3.2-.2 0-.3 5.4-.7 5.8-.4.5.2.9-.6.7-1.7-.1-.8 0-.8.3.4.2.8.3 1.8.2 2.8-.2 1.4-.1 1.5.5 1.6.3 0 .6.1.6.3 0 .2-13 .4-13.2.2zm71.7-.4c-.3-.3-.6-.8-.6-1a4 4 0 0 0-.4-1.3c-.3-.6-.4-1.2-.3-2.2l-.1-7.3c-.2-4.3-.6-48.6-.5-51.5 0-.2-.1-.4-.3-.4-.2 0-.3 2.6-.2 8.7v10.2c-.2 3.4-.5-4-.5-12.9 0-5-.2-9.1-.2-9.3-.2-.3.2-8.2.6-12 0-1 .2-1.9.4-1.9s.2.5 0 1.3a105.8 105.8 0 0 0 0 15c.3-.3.5-.4.6-.3l.3 9a1357.5 1357.5 0 0 0 1 51.8c-.1 1.2 0 1.6.5 2.7.6 1 .9 1.2 1.4 1.2 1 0 .6.6-.3.7-.6.1-1 0-1.4-.5zm52.2-3c-.3-4.6-.5-26.3-.2-26.3.4 0 .6 5.9.7 18.6 0 9.6-.1 12.5-.5 7.7zm-175.2.3-1.2-2.8c-.5-1-.7-1.7-.5-2 .2 0 .3-.1.4 0l2.2 4.8c.2 1-.4 1-.9 0zm109.4-.1-3.3-.8c-5.3-1.2-6-1.4-6-2.3 0-.5 0-1-.2-1-.3-.4-.4-1.4-.3-5.3 0-2.4.1-2.8.5-2.8s.4.4.3 3.3c-.2 4.5.4 6.2 2 6.2.3 0 1 .2 1.3.4.7.4 1.1.4 3.7 0l3-.3-1.2.3-1.5.4c-.2.4 1.2.9 2.7.9 1.3 0 1.4 0 1.4.5-.1.7-.9.8-2.4.5zm67.7-4.7c-.3-5.1 0-19.4.4-19.8a580.3 580.3 0 0 1 0 23.7c-.2.2-.3-1.6-.4-3.9zM68 78.1v-2c0-2.6 0-4.4-.2-5.7v-1c.4 0 .7 3 .6 5.6 0 1.2.1 2.2.3 2.4.3.4.2 1-.3 1l-.4-.3zm60.1-.3.1-.4c.2-.1.3 0 .3.2 0 .5-.2.6-.4.2zm-57.3-1.4v-2.7c-.1-2.5 0-3.4.4-2.2.2 1 .2 5-.1 5l-.3-.1zm57.4-1.6a364 364 0 0 0-.7-15.9c-.2.5-.6.2-.6-.6 0-.3.2-.7.5-.9.2-.1.3-.2.1-.2a1185 1185 0 0 0 0-15.8 132.3 132.3 0 0 1 .5-15.2c-.4-.6-.4-3.2 0-3.2.3 0 .3-.7 0-.8-.3-.1-.3-.3-.1-1 .1-.4.2-.9 0-1l-.2-2.5a19 19 0 0 0-.2-2.8c0-.3 0-.8.2-1a106 106 0 0 1 0-12.8c.4-.7.6 1 .5 5.4a1046.8 1046.8 0 0 1 .4 35.6l.1 28.8c.2 4.4.2 5.3-.2 5.3-.2 0-.3-.6-.3-1.4zM1.1 71.4c0-.3.1-.5.3-.5.5 0 .7.3.5.7-.2.6-.8.4-.8-.2Zm162.6-3.3a301 301 0 0 1-.2-23.4c.3 0 .3.3.3 7.6l.2 12.2c.2 3.5.2 6.6 0 7 0 .4-.2-.7-.3-3.4zM3.3 71.5c-.2-.4.1-.5 2.7-.7 2-.2 2.8 0 1.8.5-1 .3-4.3.5-4.5.2Zm67.5-1v-.6c.2-.2.4.1.3.5 0 .3-.1.3-.3 0zM2.5 70c.3-.2.6-.3.7-.2.4.2 0 .6-.6.6s-.6 0 0-.4zm13.6 0c-.5-.5-.1-.7 1-.6.7 0 1.3.2 1.3.3 0 .3-2 .5-2.3.3zm7 0c-.6-.3-.4-.7.4-.7.6 0 .8.2.8.4 0 .4-.5.5-1.2.2zm3.2-.1c-.2-.4 1.1-1 1.7-.7.5.2.1.6-.8.8l-.9-.1zm87.1-.5-.1-3.8v-3.3l.4 3.6c.3 3 .2 4-.3 3.5zM9.7 68.8c-2.3-.1-3.2-.2-3.3-.5 0-.3.6-.3 3.8-.2 3.2.2 4 .2 4.3-.1.4-.4 1-.4 3-.2l5.6.2c2.3 0 2.8 0 3-.4.2-.4.5-.4 1.3-.3.5 0 1 .2 1.1.3.3.3-.5.7-1.3.7a123.7 123.7 0 0 1-17.6.5zM105 57.2a399.3 399.3 0 0 1-.1-34.6l.2 12a325.5 325.5 0 0 0 .5 18.7l.3 11c.1 3.7 0 4.5-.2 4.5-.3 0-.5-2.1-.7-11.6zM.6 67.8c-.2 0-.3-.3-.3-.5 0-.3.3-.4 2-.2 2.4.2 2.7.3 2.7.6s-3.8.4-4.4.1zm187.9-1c-.2-.5 0-1.2.4-1.2s.4 1.3 0 1.5c-.1 0-.3 0-.4-.3zm-73-2.3c-.6-2.5-.7-4.3-.8-12.8 0-5.2-.2-10-.3-10.4a225.9 225.9 0 0 0-.8-23.9c-.2-1.4.3-1.8.6-.5l.5 1c.3.2.4 1.6.5 5.3a1303.6 1303.6 0 0 0 .2 14.5A535 535 0 0 0 116 65c-.2 0-.3-.2-.4-.5zm-21.8-1.2c0-.4.1-.6.4-.6.2 0 .4.2.3.4-.1.7-.7.8-.7.2zM12 60.6c0-1-.3-3-.6-4.6-.6-3-1-7.8-.6-8.4.4-.5.5.3.7 4 0 1.7.4 4.2.7 5.5.6 3 .7 5.3.1 5.3-.2 0-.3-.5-.3-1.8zm136.1.6V58c-.3-3.6-.4-9.4-.2-9.6.4-.2.4.6.5 4.5 0 2.2 0 5.2.2 6.7.1 2 0 2.7-.1 2.7-.2 0-.3-.5-.4-1.2zM3 60.9c-.1-1.1 0-8 .2-8.8.4-1.6.7-.8.6 1.3l-.1 4.8c0 2-.1 2.8-.4 2.9-.1 0-.3 0-.3-.2zm4-.2c-.2-.6.1-11 .5-11.9l.4-1c.4-1.2.6.1.4 2.3-.3 2.7-.5 6-.5 9 0 2-.2 2.4-.7 1.6Zm-6.5 0A57 57 0 0 1 1 50.4c.2 0 .3 1.6.2 5 0 4.6-.2 6-.7 5.3zm9-7.8v-8c.2-.1.4 2.1.5 6 .3 9 .3 9.5 0 9.6-.2 0-.4-2-.5-7.6zm6.7 7.5-.4-2.6c-.5-3.3-1-9-.8-9.5.3-.4.4.2.7 4 .2 1.8.5 4.3.8 5.3.6 2.3.7 3 .1 3l-.4-.2zm78.4-.5c0-.2 0-.4.2-.4s.3.2.3.4-.1.4-.3.4l-.2-.4zm12.4 0-.1-10A664 664 0 0 1 107 12c.4.2.4.3.4 5.9v23.3a324.8 324.8 0 0 1-.6 18.7zm81.8-1.9c0-1.2.2-2.2.3-2.2.3 0 .2 3.5-.1 4-.2.3-.2-.3-.2-1.8zm-41.9.6c0-.3.2-.7.3-.8.2 0 .3.2.3.7 0 .4-.1.8-.3.8-.1 0-.3-.3-.3-.7zm-52-1c0-.4-.2-.7-.4-.7s0-.3.2-.6l.7-1c.2-.6.7-.5.7.1l-.4.8a2 2 0 0 0-.4 1.2c0 .5-.1.8-.3.8 0 0-.2-.3-.2-.7zM19.3 57c-.4-.8-.9-5.2-.6-5.7.2-.4.4 0 .7 2.3 0 .7.2 1.8.4 2.3.3 1.2 0 2-.5 1zm127.9-.8-.2-.6c0-.4 0-.3.3 0 .3.5.2.9-.1.6zm31.4-1s0-.8.2-1.5c.2-.9.2-2.4.2-3.9-.2-2.4 0-3.2.6-2.4.3.5.3 5.6-.1 7-.3 1.2-.6 1.4-.9.9zm-60.5 0c-.2-.5 0-12.3.2-12.3.3 0 .5 11.5.2 12-.2.3-.3.4-.4.2zm-105-.9c-.2 0-.2-1.5-.2-3v-3l.4 1.6c.2.8.3 2.2.3 3 0 1.5-.1 1.9-.6 1.4zm199.4-1.7.3-4.4c0-1.4.3-4.2.5-6.3a147.3 147.3 0 0 0-.3-35c-.1-.4 0-.6.2-.6.5 0 .7.7.9 3.6l.4 4.7c.6 7 .4 18.7-.5 27.7l-.8 8.6c-.1 2.5-.3 3.5-.5 3.6-.3 0-.4-.3-.2-1.9zM88 50.2c-.2-5-.2-11.8 0-12.6l.3-.7.2.8c.2.7 0 16.3-.2 16.5l-.3-4zm-2.3 3c-.3-3 .1-14.2.6-14.7.2-.2.2.4.1 2.5a211.7 211.7 0 0 0-.5 12.4l-.2-.1zm8.8-6.2c0-3 0-5.5.2-5.5 0 0 .2 2.5.2 5.5s-.1 5.4-.2 5.4c-.2 0-.2-2.5-.2-5.4zm-73.7 4.4c-.2-.4-.6-1-.8-1.1-.2-.2-.4-.6-.4-.9 0-.5.3-.6.7-.2.5.5 2-.3 2.7-1.4.5-.9.5-1 .2-1.8a3 3 0 0 0-1-1c-.3-.2-.5-.5-.5-.8 0-1.2-1.5-1.3-7.2-.6-4.2.5-8.2.4-8.9-.3-.5-.5-.2-1.4.4-1 1.6.6 6.5.7 13 .2l2.6-.2 1.2 1.8c.7 1 1.3 2 1.4 2.4.2.8-.8 2.8-1.7 3.3-.7.4-.8.6-.8 1.4 0 1.1-.4 1.2-1 .2zm60.8-3.2.1-4a39 39 0 0 1 .2 7.3l-.3-3.3zm32 3c0-.2 0-.4.2-.3.1.1.2.3 0 .4-.1.4-.3.3-.3-.1zm-90.4-.3c-.3-.4.1-.6 1.1-.6.6 0 1.1-.1 1.2-.3l1.3-.4c1-.1 1.3 0 1.8.4.4.4.5.5.2.6-.7.3-5.4.5-5.6.3zm192.7-3.2-.3-10.2c-.2-7.2-.2-9.6 0-9.8.2-.2.3.4.3 2.7l.4 14.2c.1 2.8.1 3.8-.1 3.8s-.3-.3-.3-.7zm-190.2 0c-.4-.1-.4-1.8 0-2 .1-.2.4 0 .6 0 .3.3.8.3 1.3.2 1.2-.2 1.5.3.4.8l-.9.4 1.3-.2c1.1 0 1.3 0 1.2.4 0 .4-.4.5-1.8.5h-2zM13 47.2c0-.2 0-.4.2-.4s.3.1.3.3l-.3.4c-.1 0-.2 0-.2-.3zm134.8-.9-.3-4.1a240.4 240.4 0 0 1-.5-18.8V9.1c0-3 .1-8.7.3-8.8.5-.5.5 1.5.4 22.6 0 6.4 0 13.9.2 16.6.3 5 .3 7.6 0 6.8zm-11.5-2.7c-.4-.4-.4-1.5 0-1.5l.3.3.2-1c.2-1.3.2-1.3.2.6 0 2 0 2.2-.7 1.6zm-111-1c-.3-.4 0-.8.7-.8.8 0 1 .3.7.7-.4.4-1.2.5-1.4.1zm3.7 0c-.3-.4.4-1.1.7-.8.3.3 0 1-.3 1-.1 0-.3 0-.4-.2zm-5.9-.8c-.3-.5-.6-14.8-.3-15 .3-.2.4.3.6 2.2.2 2.7.3 12.8 0 13 0 0-.2 0-.3-.2zm143.2-.2c-.2-.3-.2-37.1 0-37.3.5-.6.5-.4.6 26v11c0 .5-.3.7-.6.3zM142.7 40c-.5-3.8-.7-34.2-.2-34.2.1 0 .3 2.1.3 5.6a928 928 0 0 0 .4 29.9c-.1 0-.4-.6-.5-1.3zm-6.7.5c0-.3.1-.5.3-.4l.2.5c0 .2 0 .4-.2.4s-.3-.2-.3-.5zM8.5 40c0-.3.4-.4 2.6-.4 1.8 0 2.6-.1 2.7-.3.1-.2 0-2.9-.2-6-.6-8.2-.5-16 .2-16.3l.3 8.4c.2 9 .4 13.3.6 13.9.1.3.5.3 2 .2 1.4-.1 1.8-.1 1.8.1-.2.6-1.8.7-6.1.8-3.3 0-4 0-4-.4ZM20 37.4l-.2-5.1c-.2-1.4-.4-5-.4-8.2-.3-9-.6-16-.9-19-.1-1.7 0-2 .3-2 .2-.2.6-.2.7 0 .1.1.3 4.9.4 10.5 0 5.7.3 12.8.4 15.8.5 7.2.5 10.3 0 10.5-.2 0-.3-.5-.3-2.5zm5.3-.8c0-2.6 0-3-.3-2.6-.4.4-.4.4-.7 0-.3-.3-.3-.5 0-.8.2-.3.2-1.3.1-3.8 0-2 0-3.4.1-3.3.2 0 .3.8.3 1.6l.2 2c.3.6.2-6.1 0-12.6a786.8 786.8 0 0 1-.7-14.8 2 2 0 0 1 0-1.2c.2-.5.3-.6.6-.3.3.2.4.8.4 2 0 1 0 6.8.2 13 .4 14.1.6 23.1.4 23.6-.4 1-.6 0-.6-2.8zm0-5.7c-.2-.2-.2-.1-.2.2 0 .2 0 .4.1.3V31zM136 39.1c0-.4.1-.7.3-.7.3 0 .3.5 0 1-.2.3-.3.3-.3-.3zm-41.2-.9c0-.7 0-1 .1-.6V39l-.1-.8zm66.2.3c-.2-1-.4-6-.2-6 .3 0 .7 2 .5 2.4l.1 1.9c.2 1 .2 1.7 0 1.9-.1.2-.3 0-.4-.2zm43-.4c0-.2-1.1-.4-2.3-.5-1.1-.1-2.4-.4-2.9-.6-1-.4-3.1-.7-8.6-1.3-5.2-.5-6-.8-6.2-2.2v-4.8c.4-8.1.3-17.2-.2-21-.3-2-.6-3.8-.8-4.1-.4-.6-.5-3.3-.2-3.3s1 3 1.5 6.4c.6 4 .8 17.6.4 21.6-.4 3.4-.3 4.7.4 4.4.4-.2 2 .8 2 1.2 0 .2-.4.2-.9.1-.6-.1-.8 0-.5.2.1.1 1.4.4 2.9.5 3.6.3 9.2 1.2 10.8 1.7l4 .5c2.2.2 2.6.1 3-.2.4-.6 1-.6 1 0 0 .2-.4.5-1 .8l-1.4.6c-.6.3-.6.3-1 0zm-40-.8c-.2-.4-.9-9.8-1.3-17.2a108 108 0 0 1 0-15.5c.4-.2.5.8.6 8.8.1 4.2.3 9.3.5 11.3.6 9.3.8 12.4.5 12.7-.2.2-.3.1-.4-.1zM29 22.3c.1-10.6.2-14.1.4-14.1.4 0 .8 2.6.5 3.9L30 24.8c0 10.3 0 11.7-.4 11.7S29 35 29 22.4zM204 36.2l-.7-.4c-.4 0-1-.7-.8-1 0 0 .5 0 .8.2.4.2.8.3.9.2l-.2-3.5c-.1-2.3-.2-4.7 0-7.4.2-2.2.2-4.3.1-4.6l.1-1.5c.2-.5.3.3.3 3.2 0 3.6 0 4 .4 3.9.4 0 .4.3.4 4.8 0 3.6 0 5 .3 5.3.4.5 0 1.2-.8 1.2-.3 0-.6-.2-.8-.4zm-24.5-.2v-1c.2-.3.2-.3.3 0v1c0 .5 0 .5-.3 0zM16 32c0-2.2 0-3.6.2-3.6s.3 1.4.3 3.6-.1 3.6-.3 3.6c-.1 0-.2-1.4-.2-3.6zm101.8 3.3-.7-21c-.1-7.2 0-9.7.5-8.5a140.4 140.4 0 0 1 .2 29.5zm88.3-6.7c.2-9.1.2-16.2-.3-19.6-.6-4.7-.7-8.5-.4-8.8h.6a131.4 131.4 0 0 1 .6 23.6c-.2 4-.2 8 0 9 .1 2 0 2.5-.4 2.5-.2 0-.3-2-.1-6.7zm-26.5 4.2c-.2-.5 0-1.2.4-1.2.3 0 .4.8 0 1.3-.2.3-.2.3-.4 0zm-54.5-.2c0-.1-.3-2.9-.4-6.1-.3-8.3-.7-16-1-17.2 0-1 .1-2.1.5-2 .5.4 1.7 25.6 1.2 25.6l-.3-.3zm15.5-1-.4-10.2-.2-10.8c0-6.9.2-8.7.6-6.5.3 1.4.5 28.5.2 28.5-.1 0-.2-.4-.2-1zm47.3.7c-.2-.7.1-9.4.3-9.4.2 0 .3 2 .3 4.8 0 2.7-.1 5-.3 5l-.3-.4zm2.9.2a273.6 273.6 0 0 0-.8-21c-.1-1 0-1.4.1-1.3.3 0 .4 1.2.6 3.2.3 4.8.6 18.8.4 19 0 .2-.2.2-.3 0zm-181-.7c-.3-.3 0-1.5.3-1.5.2 0 .3.2.4.5.3 1-.3 1.7-.8 1zm150.8-2a221.1 221.1 0 0 1 .4-28.8c.4.1.4 30.5 0 30.9-.1.2-.3-.7-.4-2zm32.4-2.5-.2-9.8c0-3 0-5 .2-5a125.6 125.6 0 0 1 .3 19.6c-.2 0-.3-1.6-.3-4.8zm-13.1-1.3.3-15.3c.1-11.8.6-14.4.7-4a343.8 343.8 0 0 1-.6 23.5c0 .5-.2.9-.3.9-.2 0-.3-1.5-.1-5.1zM52 23.9a457.8 457.8 0 0 1 .6-16.6c.1-4.6.3-5.7.7-4.4a184.8 184.8 0 0 0-.7 22.9l-.2 2.8c0 1.2-.1 2-.3 2-.2 0-.2-2.2-.1-6.7zm69.4 5.5c-.2-2.5.4-22.4.7-22 .2.3.1 22.3 0 23-.3.7-.6.2-.7-1zm30.2-1.7c-.2-2.2 0-2.8.3-2.3s.3 4.2 0 4.2c-.1 0-.3-.8-.3-1.9zm3.7-4.9c0-3.6 0-8.7-.2-11.4 0-3.4 0-4.8.2-4.8.1 0 .3.2.4.5.2.7.5 21.1.3 21.7-.5 1.6-.7 0-.7-6zM54.3 29a415.9 415.9 0 0 1 .2-23.6c-.3-3-.2-3.8.4-3.8.2 0 .3 1.5.2 6.7L55 21.7c0 5-.2 7-.4 7.2-.2.2-.4.2-.4 0zm33-.6C86.2 28 86 27.2 87 27c.4 0 1-.3 1.5-.6 1.6-1.2 3.6-1.7 4-1 .1.3.1.3-1.8.8-1.3.3-1.8.8-.6.6.9-.2.8.3-.1.8l-1 .8c-.1.5-.4.5-1.7 0zm108-7.6c0-5 0-7.8.2-7.8s.3 2.7.3 7.8c0 5-.1 7.8-.3 7.8a46 46 0 0 1-.2-7.8zm-92.5 6.1c-.3-1.5-.3-25.7 0-26.1a472.3 472.3 0 0 1 0 26.1zm112.8 0c-.1-.3-.2-4.5-.2-9.6 0-12 0-11.4.2-11 .2.1.4 2.4.4 5.5a114.1 114.1 0 0 0 .2 7.5v4c-.5.1-.3 1.9.2 2.3.4.3.4.4 0 .2-.4 0-.5 0-.5.6-.1.4-.2.6-.3.4zm-70.4-2.5-.2-9.6-.2-9c-.3-1.6 0-2.5.3-1.8.3.5.7 22.5.4 22.5l-.3-2zm-121 .8-.1-4.6c0-5 0-5.7.1-5.5l.3 4.5c0 2.4.2 4.5.2 4.7.2.5-.2 1.3-.4 1zm64.8-.6c-.2-.3.2-.5 1.6-.6.6 0 1 0 1.1.3.1.2-.1.3-.8.3a5 5 0 0 0-1.3.2c-.2 0-.5 0-.6-.2zm62.5-.2-.1-5.3c0-2.7-.2-6-.3-7.3a27 27 0 0 1 0-7.7c.3-.2.6 1 .4 1.6l.1 4c.4 6 .5 14.9.3 15-.1.1-.3 0-.4-.3zm-61.8-.9c-.5-.3.5-.7 1.7-.7 1.5-.1 1.9 0 1.6.1-.3.4-3 .8-3.3.6zm29-.1c-.4-.5.4-18.2.9-18.7.3-.4.3 1.6 0 6l-.5 8c0 2.7-.3 4.8-.4 4.7zM188 20c0-1.2 0-1.6.1-1V21 20zm-82.6 1.2c-.2-.5 0-8.5.2-8.5a72.6 72.6 0 0 1-.2 8.5zm78.1-.4c0-.5 0-.6.1-.4.1.3.1.7 0 .8 0 .2-.1 0 0-.4zm17.4-1.8a241.7 241.7 0 0 0 0-7.9c.3.5.5 9.4.2 9.7-.1.1-.2-.7-.2-1.8zM48.1 20.2c-.4-.6-.7-17-.3-17.5.4-.7.6.3.3 1.7-.1.7-.2 1.8-.1 2.5.2 1.7.5 13.5.3 13.5l-.2-.2zm135.3-1.3c0-.6 0-.8.1-.4v1-.6zm34.3.5a2279.8 2279.8 0 0 1-.4-15.7c-.3-2.4-.1-3.5.4-3.6a183 183 0 0 1 0 19.3zM65.7 18a79 79 0 0 1-.1-11.2c.4-.6.6.7.5 3.5 0 1.5 0 4.1.2 5.8v3.1c-.2 0-.4-.6-.5-1.2zm25.6-.4c0-.3.2-.5.4-.5s.4.2.4.5-.2.6-.4.6-.4-.3-.4-.6zm96.5-1v-1.3c.2-.3.3-.1.3.8 0 1.5-.1 1.6-.3.4zm-4.5-.6-1-9.7c-.1-2.4.4-1.5.8 1 .3 3 .7 9.8.4 9.8 0 0-.2-.5-.2-1.1zm-107.7.1c-.7-.7.4-2.3 2.2-3l2.9-1.2c1.8-.9 2.2-1 4.4-1 2.1 0 2.5 0 4.1.9 1.2.5 2.2 1.3 2.7 2 1.1 1.3 1.2 1.4.5 1.4-.3 0-.8-.3-1-.7-.8-1-2.5-1.9-3.7-1.9-.9 0-1 0-.8-.6.2-.5.1-.5-.4-.4l-2.1.5c-3.5.7-7.1 2-6.4 2.3.2 0 .5 0 .5-.2.1-.3 2.7-.4 2.7 0s-.7 1-1.2 1c-.3 0-.9.2-1.3.6-1 .6-1.6.5-1.3-.4.2-.5.1-.5-.6.2-.8.7-1 .8-1.2.5zm128.4-1c-.2-5.9-.2-7.8 0-7.6.3.3.5 8.8.2 8.8-.1 0-.2-.5-.2-1.1zM81 16c0-.2.1-.3.4-.3.2 0 .3.1.2.3l-.4.2c-.1 0-.2 0-.2-.2zm33.7 0c-.2-.3.2-.6.5-.4.2.3.2.6 0 .6s-.4 0-.5-.2zm-75.9-3.4-.3-7c-.2-2.7-.1-3.6 0-3.6.3 0 .4 1 .4 3.2a224.4 224.4 0 0 0 .2 10.7l-.3-3.3zm148 2.2c0-.5.1-.6.2-.3v.8c-.1.1-.2 0-.2-.5zm-72-.3A254.5 254.5 0 0 0 115 2c0-.6.1-1.1.3-1.1.2 0 .2 2 0 6.7-.1 6.4-.3 8-.7 7zm23.3-.3c0-.3.1-.3.2-.1v.5c-.1 0-.2 0-.2-.4zm49.5-1.7c0-1-.1-2.6-.3-3.6V6.2c.3-.7.6 2.9.5 5.7-.1 2.1-.1 2.2-.2.5zM138.1 9c0-2.3.1-4.4.3-4.7.1-.2.2 1.2.2 4.2a20 20 0 0 1-.2 4.7c-.2.1-.3-1.3-.3-4.2zm48.5 3.6c0-.3 0-.3.1-.1v.5c-.1 0-.2 0-.1-.4zm-81-4.4V3.6c.1-.5.2-.4.5.4.2.8.2 1.5 0 3.3l-.4 3.5-.1-2.7zm1.3 2c0-.4.1-.5.2-.2v.8c-.1.1-.2 0-.2-.5zm78.8-3c-.7-4.3-.9-7.1-.6-7.1.4 0 .6 1.5.6 3.3l.3 3.5c.2 1.2.3 2.4.2 2.8 0 .3-.3-.8-.5-2.5zm-79 1.5c0-.4 0-.6.1-.3V9l-.1-.5zm72.7-.1c0-.2.1-.3.3-.3.1 0 .2.1 0 .3l-.2.2-.1-.2z"/>
</svg>
