<?xml version="1.0" encoding="utf-8"?>
<svg xmlns="http://www.w3.org/2000/svg" xmlns:svg="http://www.w3.org/2000/svg" version="1.1" viewBox="0 0 437 328">
	<title>The policeman leans against the counter and writes in his notebook.</title>
	<path d="m272.5 327.2-2.2-.6c-.4 0-1-.5-1.6-1-.6-.5-1.4-.8-2.8-1.1a69.4 69.4 0 0 0-8.8-1.5c-1.1 0-2.8-.9-2.9-1.5 0-.9.1-1.3.6-1.6.3-.2.5-.6.5-.8 0-.3-.3-.4-2-.2-3.1.2-9.4-.8-10.3-1.7-.6-.5-1-.6-3.7-.8a37.8 37.8 0 0 1-7-1c-1 0-3.5-1-4-1.6-.7-.8-.8-1.3-.2-1.9.7-.7.6-1-.4-1.1-.4 0-1.5-.5-2.3-.9-1.2-.5-1.8-.6-2.4-.5-1.2.2-1.4.2-5.5 0-2 0-3.9-.2-4.3-.4-.9-.4-1.2-1.4-.7-2 .2-.3-.2-.4-3.1-.3-3.8 0-5.1-.4-5.1-1.4 0-1 .5-1.6 1.3-1.6.5 0 .8 0 .7-.2-.1-.1-2.8-.2-6-.2-4.5 0-5.9 0-6.5-.4-1.7-.9-.8-2.2 1.8-2.5 2.4-.2 11.8-.6 18.7-.7 1.9 0 3-.1 3.7-.4.8-.4 2.2-.5 7.2-.5a35.3 35.3 0 0 0 11.3-1c2.2-.3 2.5-.6.7-.8a82 82 0 0 0-12.1.3c-.7.6-3 .8-8.1 1a137 137 0 0 0-16 .7c-.2.1-2.6.2-5.4.2-4 0-5.2 0-6-.4-1.2-.5-1.5-.8-1.5-1.7 0-1 .5-1.3 1.8-1.3a754 754 0 0 1 9.3-.2l9.6-.3h7.1v-.7c0-.4.2-.8.5-1 .4-.5.8-.5 4.3-.4 9.5.5 17 .5 18.5.2 1.6-.3 2-.7 1.1-.9l-4.7-.4c-4.4-.3-6-.6-6.8-1.3-1-.9-.2-2 1.5-2 .3 0 1-.3 1.6-.7 1-.7 1.2-.8 3.2-.8 1.5 0 2.3-.1 2.4-.3.5-.8.8-2 .5-2.4-.7-1.2.8-2.6 2.8-2.6 1.5 0 2-.5 1.3-1.5-.8-1.3-1-4.2-1-9.7a424.6 424.6 0 0 0 .1-18.4 620.6 620.6 0 0 1 .1-15.2 1001.6 1001.6 0 0 1-.6-25.8V204c0-3.8 0-7.7-.3-9.1-.2-1.7-.3-6.6-.3-14.2 0-14.4 0-13.4-.7-13.3h-1c-.6-.4-.6-.6-.4-3.3l.2-8.5c.1-5.3.4-7 1-7 .3 0 .6-7 .5-12.7 0-3 0-9.7-.2-15l-.1-17c0-8-.2-13.6-.5-15-.6-2.6-.8-5.1-.8-9.5a281.3 281.3 0 0 0-.8-23.1c0-.8-.2-1.2-1.7-2.5a15 15 0 0 1-2-2.3c-.4-.9-.8-5-.6-7 .1-1.5.2-1.7 1.3-2.8 2.1-2 2-2 11.5-2 4.7.1 8.7 0 9-.1 1-.4 1.6-2.5 1.8-5.7 0-2 .3-3.5 1.1-6.2 1.3-4.1 1.5-5.4 1.1-6.8-.2-1-.2-1.3.2-2 .7-1 2-2 3.5-2.4 1.6-.4 2.1-.2 2 .8 0 .5-.3.8-1.1 1.2-2 .9-2.4 1.1-2.4 1.5-.2.6 1.7 1.8 3 2 .7 0 2 .4 3.1.7 2.6.7 9.4 1.1 10.7.7.8-.2 2.3-.2 7.7.2 6.5.5 13.8.6 18 .2 1.9-.1 2-.1 2.3.4.8 1.5-2 2-7.5 1.6-1.8-.1-7.2-.3-12-.3-8 0-14.8-.2-18-.6-.8-.2-1.1 0-1.6.4-.3.3-.5.7-.5 1 0 .3 0 .3.5 0 .4-.4.7-.4 1.1-.2.6.3.6.8 0 2.8l-.6 3.6c-.2 2-.5 2.8-1.2 2.8s-.9-1.2-.6-3.5c0-1.2.3-2.7.5-3.4.2-.7.3-1.4.2-1.5-.4-.3-.6.3-2.2 5.4a10 10 0 0 0-.4 2.2c0 .5-.2 1.6-.5 2.6-.9 2.6-1 2.6 5 2.4a1308.1 1308.1 0 0 1 17.6-.6l4.8-.3a40.2 40.2 0 0 0 6.5-.5 162.9 162.9 0 0 0 24.7-.5c.4-.2.7-.4.5-.4-.6 0-1.2-.8-1.2-1.6 0-1.4.5-1.9 1.6-1.9 1.3 0 1.7.6 1.4 2.1-.2 1-.2 1.1.3 1.6.5.4.8.5 1.3.4l1.6.1c1 .3 3.4.1 3.4-.2 0-.2-.4-.4-.8-.6-.7-.2-.8-.4-.8-1 .1-.8.8-1 4.5-1.2 2-.1 3 0 3.4.2.8.4 1 1.3.4 1.9-.3.3-.3.4 0 .6h1.7l7.4-.3c7.2-.1 15.3-.5 17-.9 1-.2 1.2-.2 1.6.3.6.6.6 1.6.1 2-.1.2-2.5.4-5.2.6a64.8 64.8 0 0 0-10.2 1c-1.5 0-1.7.1-1.6.5v1c-.1.4-.4.5-2.4.3-1.2 0-2.3-.2-2.5-.3l-.2-.8v-.7l-7 .2c-8.2.2-11.3.2-32.8.1h-16.2a802.3 802.3 0 0 1-30 1l-7.8.5c-8.5.2-10.7.4-10.7.8 0 .3 3.8 3.2 5.7 4.3l3.3 2.2a47.9 47.9 0 0 0 5.5 3.3l3 1.8a106 106 0 0 1 8.4 5l2.4 1.2 2.8 1.6 4 2.2c2.8 1.6 4.6 2.6 4.9 2.6a37.2 37.2 0 0 0 5.1 2.9l3 1.6c.5.4 1.8 1 2.8 1.5 1 .5 1.7 1 1.7 1.1 0 .2.2.3.4.3s.6.2.8.5c.3.3.6.5.8.5.2 0 2.6 1.6 2.8 2l1.1.7a1834.2 1834.2 0 0 1 3.4 2c.2.3 1 .8 1.6 1.2.6.3 1.7 1 2.2 1.6l2 1.5 1.6.9c.4.3.7.2 1.8-.3s1.6-.6 3-.5l3.6.4a26.9 26.9 0 0 0 10.2.4 75 75 0 0 1 13.4-.5c2 .3 1.2.3 15.9 0 19.9-.3 52-.3 57.8.1l11.2.6 6.4.5c.6.4.7 1.2.2 1.6a464.4 464.4 0 0 1-22.4-.2h-16l-25.2.3c-14.9.1-24.8.4-28.1.7-3 .4-4.6.3-5.5 0-1.2-.5-3.2-.5-5.2-.1-1 .2-2.9.3-4 .3a41 41 0 0 0-8.5 1c-2.7.6-3.6 1.4-3.5 3V94l1.5.3c1 .3 4 .4 9.3.4 6.8 0 7.9.1 8.5.5.5.4 1.8.5 12.8.4l16.3-.2c3.6-.2 4.4-.1 5.6.2 1 .4 1.4.4 2 .1a14 14 0 0 1 3.3-.5l8.1-.6c7.8-.6 23-.6 29.1 0 1.6.2 2.1.4 3.3 1.3l.8.7 6.7-.2c7-.2 7.5-.1 7.5 1 0 .7-.5 1-1.9 1.5-1.2.5-1.5.5-11.6-.1a1056.2 1056.2 0 0 0-32.2.1c-.9.3-7.4.3-16.8-.1-1.7-.1-4.9 0-7.1.1a953.9 953.9 0 0 1-20.8 1.3c-.7.2-2.3.2-3.6.1-1.7 0-2.6 0-3.6.3a66.1 66.1 0 0 1-10.8.6c-1.2.1-1.5.3-1.6.7v12.5c.1 10 .3 15.5.7 29.9 0 .6 0 1.7-.2 2.4-.3 1.2-.2 12.1 0 12.6.2.1.3 3.6.4 7.8 0 4.2.2 8 .3 8.5.2.7.4 8.2.3 14.9a7397.7 7397.7 0 0 1-.3 30.6v2c.5 3.3-.5 5-2.4 4.6-.9-.2-1.6-2-1.6-3.6l.1-11.7c.2-14.3.2-48 0-58l-.3-35.7c0-10.2-.1-18.4-.2-18.3-.1.2-.7.4-1.3.6-1.3.4-2 .1-3.8-1.5-1.1-1.1-2.6-1.9-3.5-1.9-.6 0-2.3-1-3.4-1.9-.5-.4-1.1-.7-1.4-.7-.6 0-1.8-.6-1.8-.9 0-.3-1.6-1.3-2.2-1.3-.4 0-1-.3-1.4-.7a6 6 0 0 0-2.7-1.4l-2-.6c-1-1.4-1.4-1.8-3.7-3-1.5-.6-2.7-1.3-2.8-1.4-.3-.5-1.4-.8-2.5-.8-1.3 0-2.2-.7-2.2-1.6 0-.7-.5-1-1.9-1.2-.7-.1-1.4-.4-1.8-.9-.4-.5-.9-.7-1.7-.7-2 0-3.7-.6-4.5-1.4-.8-.8-.8-.8-1.7-.4-.8.4-1 .4-3-.2-1.8-.6-2.4-.9-2.6-1.4l-.3-1c0-.2-.3-.3-.9-.3-.7.1-1 0-1.6-.6-.5-.6-1-.8-1.3-.7-.4 0-.9-.1-1.3-.5-.5-.4-1-.6-1.3-.5-.5.1-1.5-.6-1.5-1.2 0-.2-.4-.5-1-.8-1-.5-1.6-1-1.7-1.8-.1-.5-.2-.5-.9.2l-1 .7c-.6 0-1-1.1-1-2.8 0-1.9-.2-2.7-.7-2.7-.2 0-.4.6-.5 2-.2 2.3-.8 3.3-1.6 2.8-.3-.1-.5-.5-.6-.8-.2-.9-.6-1.2-1-.7-1 1-2.2.2-2.2-1.3 0-.4-.1-1-.3-1.4-.2-.7-.3-.7-.7-.3-.5.5-.5 1.1-.3 8.5 0 2.5.2 4.7.3 5 0 .2.2 3.3.2 7 0 7 .4 13.8.8 14.2.2.2.5.3.7.3.4 0 .5.2.6 1 0 .8 0 1-.5 1.1-1 .3-1.1 2.2-1.1 22.7 0 10.7 0 19.6.2 19.8.5.8 1 13.4 1 31l.2 15.2a562.8 562.8 0 0 1 .9 28.2 153.4 153.4 0 0 1 0 8.5c.4 10.8.5 15.2.3 15.9v6a1348.4 1348.4 0 0 1 .6 22c0 3.5.3 4.4 1.8 5.7l1.3.8 1.6 1c.8.7 2 1.4 2.7 1.7 1.4.7 5 4.2 5.6 5.5l1.5 2.2a12 12 0 0 1 2.2 3.7l.2.8c0 .2.5 1 1 1.6a5 5 0 0 1 1.2 1.7c0 1.1 1 3.4 2.2 4.6.6.6 1.5 1.9 1.9 2.7.3.9.9 2 1.1 2.3l1.6 2.8c2 3.7 3.8 6.8 4.3 7.3.3.3.5.8.5 1.2 0 1 .7 2.7 1.1 2.7.5 0 1.4.9 2 1.9.8 1.3.8 3.6 0 4.5-1.1 1.3-3.6 1.6-6.3.7zm-56.3-21h-.8l.4.1c.4 0 .6 0 .4-.1zm32.8-3.6c2.2-.4 2.3-.5 1-.8-1-.3-5.2-.3-12.5-.2-2 0-3 .4-1.7.6 3 .6 10.7.9 13.2.4zm8.1-6.5h-1c-.4 0-.2.1.4.1h.6zm-12.4-3.1h-.5c-.3 0-.2 0 .1.1.3 0 .5 0 .4-.1zm64.7-200.2c0-1 .2-2.3.3-2.8V89a126.7 126.7 0 0 1-13.1-8.7 88.2 88.2 0 0 0-11.7-7.3 65.8 65.8 0 0 0-6.6-3.7 65.7 65.7 0 0 1-8.6-4.6 43.3 43.3 0 0 1-4.1-2.1l-2.8-1.5c-.4-.3-2.5-1.5-4.7-2.6s-4.5-2.5-5.3-3l-3.8-2a26 26 0 0 1-3.5-2 127 127 0 0 0-9.3-5.6c-.1 0-.2.6-.2 1.3 0 1.3.3 1.8 2 2.8a79.5 79.5 0 0 0 17 12.1l.6.5.4.4c.3 0 .9.4 1.4.8l2.2 1.7 2.4 1.7c.6.4 1.6 1 2.2 1.2l2.1 1c.6.5 1.5 1 2.1 1.3 1.3.6 3 1.6 3.5 2l2 1.1 3.3 1.7c1.2.8 1.5 1 3 1.6l1.7 1 2 1a57.1 57.1 0 0 1 7 4.1l1.8 1.2 1 .7c.3 0 .6 0 .7.2a43 43 0 0 0 8.1 5.3c.5.2 1.4 1 2.1 1.6 1.5 1.3 3.2 2.3 4 2.4.6 0 .7-.2.8-2zm3-4.6h-.5c-.2 0-.2.1.2.1.2 0 .4 0 .3-.1zm-50.3-15.3c0-.2-.1-.1-.1.2l.1.4v-.6zm-3.4-33.8c.2-.2.3-.5.3-.7 0-1 1-2.7 1.5-2.9.3 0 .7-.3.9-.5.3-.3 1-3 1.2-4.7l.4-1.4 1.6-4.1c0-.3-2.3-1.3-3.1-1.3-.8 0-.9.1-1.3 1.3l-.4 1.6c0 .6.7.3 1.1-.5.3-.5.7-.8 1-.7.4 0 .4.4.5 2.2 0 2.2 0 2.2-1 3.3-.5.6-1 1.6-1.3 2.3-.3.8-.7 1.4-1 1.6-.9.4-1.4 1.6-1.4 3.4 0 1.4.3 1.8 1 1zM295 302.7l-.8-2.2c-.2-.8-.6-1.7-.8-1.8-.2-.2-.4-.7-.4-1.2 0-.8.4-2.4.5-1.8 0 .4.6.5.6 0a6 6 0 0 0-1-1.4c-.5-.7-.8-1.3-.8-1.5.4-.5-2.8-3.9-4.5-4.7-1.4-.7-3.8-3.2-3.8-4l-.3-1.4c-.2-.7-.4-1-.8-1-.3 0-.5-.1-.5-.4 0-.3-.1-.6-.3-.8-.2-.2-.2-.7-.1-1.4a82.6 82.6 0 0 0 .7-5c.2 0 .5-2.8.8-8 0-2.8.3-4.7.6-5.4.3-1 .3-1-.1-1.7-.7-1-.7-1.3 0-2 .7-.8 1-2 .7-3.5-.1-1-.3-1.4-.7-1.5-.7-.1-.7-1.5 0-1.6.4-.2.5-.6.7-3.7.2-1.9.2-5.1.1-7.2-.3-6.6-.2-9.4.3-10.3.4-.8.5-2.8.5-26.3l.1-29.4a360.4 360.4 0 0 1 1.6-28.1l.3-13c.2-5.4.1-6.5-.3-8.2-.2-1-.7-2.2-1-2.4-.4-.4-.4-.4-.5.2l-.6 8a317.4 317.4 0 0 0-1.6 25.5 322.4 322.4 0 0 1-.7 14v35.7c.2 2.5-.2 22.3-.5 28.3-.2 3-.3 8-.3 11 0 5 .1 5.7.6 6.5.4.8.4.8-.2 1.9-.6 1-.6 1.2-.7 7.5 0 3.5 0 8.2.2 10.3.2 3 .2 4-.1 4.3-.4.5-1.4.5-1.8 0-.3-.3-.7-3.2-.7-5.2V267c0-2.6 0-3.6.2-6.2.2-1.4.2-2.5 0-2.5-.5 0-1.7 1-1.9 1.6-.2.7-.2 7.1-.1 9.6.2 2.9 0 6.7-.5 7.2-.5.7-2 .5-3-.3l-.7-1c0-.2 0-.4-.2-.5l-1.6-1.8a57.6 57.6 0 0 0-3-3.5l-1.6-1.9-2.2-2.3a7.8 7.8 0 0 0-2.1-1.7c-.4-.2-1-.6-1.2-1-.4-.9-1-1.4-2.8-3a6.8 6.8 0 0 1-1.5-1.8c-.5-1-.6-2.4-.2-2.6.6-.4.2-1-.9-1.5-1.7-.8-1.8-1.3-1.5-5.4.4-5.7.6-10.4.6-13.3a385 385 0 0 1 0-19c.2-7.9.2-8.2-.4-9.2-.5-1-.5-1.4-.3-4.8l.3-12.6c.1-10.8.4-16.5.9-17 .3-.4 1-3.3.9-3.5-.2-.2-.7-5.3-.7-6.9v-41.6c0-10.8-.1-15.4-.3-15.7-.7-1.1 1-2 1.8-1 .5.5.5 1 .6 11.2l.2 16.3c.1 4.6.5 32.8.4 34.8a701 701 0 0 0-1 49.6c0 14 .2 26.7.3 28l.3 4a5 5 0 0 1 0 2c-.3.5 0 1.3 1.3 2.7l.5.6.4-.6c.1-.3.3-1.2.3-2s.1-2.3.3-3.3c.2-1.2.3-10 .4-22.7a866.1 866.1 0 0 1 1.4-47l.2-3.6h1.5v4a1138.2 1138.2 0 0 0 .5 60.5c0 5.4-.3 19-.6 19.5-.3.6 0 1 .8 1.4.7.4.8.4 1.4-.4.6-.8.6-1.1.6-5.3 0-2.8-.1-4.5-.3-4.9-.2-.4-.3-2.7-.2-8.6l.2-29.7c.1-29 .4-39.8 1.2-46.4.2-1.6.6-2.3 1.2-2 .5.2.6.8.5 4.6l-.1 7.4a2009.4 2009.4 0 0 0 .4 36.2 432.4 432.4 0 0 0-.5 17.4c-.2 5.3-.2 25.3 0 25.5.2.2 1-.4 1.4-1 .3-.8.4-17.5 0-23.5-.1-2.6 0-3.6.2-4.3.3-.9 1-1.1 1.3-.4.7 1.8.8-3.5 0-8.8l-.3-5.2a1152.1 1152.1 0 0 0-.5-15.7c0-3 0-3 .7-3.5.4-.4.6-.8.7-1.4a850 850 0 0 0 1.2-24.6c.6-7.2.6-7.1 0-7.9-.5-.7-.5-1-.5-13.1 0-13.4-.2-24.2-.7-27.3-.2-1.8-.2-2 .2-2.5.6-.7 1.1-.6 1.4.1.7 1.6.9 3.2.8 6.2v4a285.7 285.7 0 0 1 .1 17.3v4.8c0 3.5 0 3.6.5 3.7 1 .1 1.2 2 .9 9l-.3 8.1c-.2 14.4-.4 20-.6 21.3-.2.9-.3 4.8-.3 8.6l-.1 12.9a271.9 271.9 0 0 0 0 20.1c-.2 1.3-.2 1.1 0 3.8.2 2.4.6 3.2 1.2 2.5.3-.4.3-2.6.3-11.9 0-12-.2-16.6-.7-17.4-.1-.3-.1-.7.2-1 .2-.5.4-1.9.5-4.6.3-5.3.5-6.3 1-6.5.3 0 .8.2 1 .5l.6.6v-1.7l.5-10.8a615.4 615.4 0 0 0 1-24.8 648.8 648.8 0 0 0 .9-17.3l.2-4.5c0-1.5 0-1.8-.5-2-.3-.2-.6-.7-.7-1.2-.2-.9-.2-13.2 0-13.9.2-.7-.5-4-.9-4.2-.3-.1-.3 1-.1 6.8a454.8 454.8 0 0 1-.3 36.7c0 3.1-.3 4.6-.9 4.6-1 0-.9 0-.9-21a367.6 367.6 0 0 0-.6-29.3c.2-.3-1-1.4-2.4-2.3-.7-.4-1.2-.8-1.2-1l-.3-.1c-.2 0-.6-.2-.9-.5-1-.9-1.6-1.1-1.8-.7-.2.6-.8.4-2.2-.5-1.1-.8-1.4-1-1.6-.6-.3.3-.4 3.4-.4 11.4-.2 19.6-.5 28.8-1 29.3-.4.6-1 .2-1.1-.8l-.3-17.1c-.3-23.5-.3-24-1-24.4-.3-.3-.5-.7-.5-1.2v-.9l-.4.8c-.4.7-.5 2-.5 9.8 0 5-.1 9.2-.2 9.3-.4.7-1 .4-1.2-.6a139.3 139.3 0 0 1-.5-21c0-.6-.5-1.4-1.9-2.9-2.1-2.4-2.4-3-1.8-3.9.4-.5.7-.6 1.8-.6 1.4 0 1.4 0 3.9 2.7.5.6 1 1 1.2 1 .2 0 .4 0 .5.2a25.9 25.9 0 0 0 5.9 4.6l2.7 1.7c.8.4 1.4.8 1.5 1l1.4.8 1.8 1.2.8.5c.2 0 3 2 3.8 2.6.4.3 1.3 1 2.1 1.3l3 2 1.6 1 .6 1c.3.7.4 1.3.3 2.2-.2 1-.1 1.5.2 2 .5 1 .5 5.9.1 10l-.2 2.8-.2 36.7a1668.8 1668.8 0 0 1-.7 53.2v7.3l.6.3c.7.4.8.6.9 2.3a657.4 657.4 0 0 1-.2 31.4c.2 1.9.3 2.4.8 2.9.7.6.8 1.3.4 2.1a9 9 0 0 0-.8 4c0 1.6-.4 5.5-.7 7.3-.2 1 0 1.2 1.1 2.7l1.4 1.7a45.7 45.7 0 0 1 5.5 7.2c.2.1.6.9 1 1.7l1.6 3.4c1.2 2.5 1.4 3.8.7 4.5-.5.5-3.6 1.4-4.7 1.4-.4 0-.7-.2-1-.7zm-20-38.4c0-1.2.1-3.3.3-4.5.2-1.6.2-2.3 0-2.5-.3-.3-.3-.6 0-1.4.4-.7.5-1 .3-1.6-.2-.5-.2-1.2 0-2 .3-1.6.2-1.8-.3-1.8-.2 0-.6-.1-.8-.3-.6-.6-.7.4-.4 4.8l.1 7.1c0 3.9 0 4.6.4 4.6.3 0 .4-.5.4-2.4zm-3.3 1.8-.2-3-.4-2.6-.6.9a3 3 0 0 0-.6 2.1c0 1.8 1.4 3.7 1.8 2.6zm-.7-8.9c-.4-.4-1-.4-1 0 0 .6.6 1 1 .7.2-.2.2-.4 0-.7zm-8.4-2c.2-.3.2-.4-.2-.4-.2 0-.4.2-.4.5s0 .5.2.5l.4-.5zm17.6-7.5c0-.4-.2-1-.3-1v-4.3l-.2-2.6-.3 1.7c-.3 2.3-.3 8.3 0 8.8s.9-1.4.8-2.6zm-6.9-21.8c0-.2-.1-.2-.1.1 0 .3 0 .5.1.4v-.5zm5.9-7c-.1-.1-.2 0-.2.3 0 .2 0 .4.1.3v-.5zm0-4.8c-.1-.5-.2-.1-.2 1.4 0 2 0 2 .2.7.2-.8.1-1.7 0-2.1zm0-6.8c0-3.2.2-5.2.3-5.2.1 0 .3-.4.3-1s-.2-.8-.4-.8c-.4 0-.4.8-.4 6.2 0 3.5 0 6.2.2 6.1v-5.3zm3.7-78.8c-.1-.2-.2-.1-.2.2 0 .2 0 .4.1.3v-.5zm0-4.6.4-3.3c.2-.4.2-.6-.2-1s-.4-.2-.4 3.5c0 4.5.2 5.1.3.8zm31.8 172c-.4-.4-.7-1-.9-2.5-.3-1.6-.5-2-1.3-2.9-2-2-2-2-1.1-6.8l.5-4.9.1-2.7-.5.9c-.3.5-.8 1.1-1.2 1.3-1 .5-2 0-2.3-1.3a84 84 0 0 1 0-12.8 202.5 202.5 0 0 0 .3-30.5c0-.2.3-.4.6-.4.8 0 1.2 1.5 1.3 4.2l.1 2.7c.4 1.1.7 6.2.6 10.6a369.7 369.7 0 0 0 .3 22c0 1.7.4 2 .7.6.3-2 .4-4.4.5-13.5 0-5.2.2-9.6.3-10l.7-1c.5-.3.5-.9.6-9.2.1-7.1.2-9 .5-9.9.7-1.4 2-1.7 3-.5l.6.7v11.4a4994.7 4994.7 0 0 1 0 39l.2 13.7-.9 1c-.9 1.2-1.8 1.5-2.7.8zm-43-4a2991.6 2991.6 0 0 1-5.5-6.4 47 47 0 0 1-1.8-2.3l-2-2.2-1.8-2.3-1.2-1.7-1-1.7-1.6-2.5c-2.1-2.8-2-5.6 0-3.4 1 .9 2 2.4 2 2.7a28.4 28.4 0 0 0 4.2 5.7 42 42 0 0 0 2.7 3l2 2.3a28 28 0 0 0 1.9 2.4 43 43 0 0 1 2.5 3.3l2.2 2.9c.4.5.7 1.1.7 1.5 0 .6-.1.7-.7.7s-1.2-.4-2.6-2zm2-5.1c-.5-.3-1.2-.9-1.6-1.4L271 284a168.7 168.7 0 0 0-10-11.5c-1.6-1.7-1.9-2.2-1.3-2.8.8-.8 2.1-.1 4.7 2.4a44.6 44.6 0 0 1 6.6 7.2c1 .9 1.6 1.8 1.6 2l.2.3c.1 0 .5.4.7.8l1.4 1.8c1.2 1.4 1.5 2 1.2 2.7-.4.6-1 .6-2.3 0zm-71.6-.6-1.4-.7-1.9-1a62 62 0 0 0-3.4-2.2 254.8 254.8 0 0 0-5-3.5 14 14 0 0 1-2.6-3.5c-.4-1-.7-1.3-2.2-1.8-3.4-1.1-5.9-2.8-5.8-3.8 0-1.3 1.4-2 2.6-1.3l3.3 1.6c2.2 1 5.3 2.6 5.9 3.1.4.4.6.8.6 1.6 0 1.3.7 2.3 2.5 3.5a1712.2 1712.2 0 0 0 9.8 6.6c.6.4.8 1.3.4 1.9-.5.5-1.6.4-2.8-.5zM100 270.8c-2.3-.5-3.4-2-2.4-3 .4-.3 1.2-.3 4.3-.4a169.6 169.6 0 0 0 24-1.1l6-.4 7-.3a141 141 0 0 1 14.6-.7 870 870 0 0 0 37.3-1.3 12 12 0 0 1 3.8 0h2.6l5.4-.3c6.1-.2 8.7-.4 16.7-1.3.9 0 1.9-.4 2.2-.6.7-.4 3.6-.2 4.2.3.5.4.4 1.7 0 2-.3.3-1.6.5-3 .6a2525.4 2525.4 0 0 0-28.3 2.4 336.6 336.6 0 0 0-32.5.9 649.3 649.3 0 0 0-29 1.6l-6.7.4c-4.5.2-7.8.4-15.1 1-5.6.5-9.4.6-11.1.2zm-34.2-1-1.2-.7-2.3-.6a39.9 39.9 0 0 1-5.4-1c-.6 0-1.3-.2-1.6-.3l-1.6-.5c-.6-.2-1.5-.6-2-1l-1-.9c-1.5 0-7.7-.8-8.7-1-.8-.2-2-.5-2.6-.8-.7-.4-2.1-.6-4.6-.8-5.6-.5-6.2-.7-6.6-2.3-.2-.7-.2-1 .4-1.6a2 2 0 0 1 1.4-.6h.9l-.7-.8c-.9-.9-1-1.4-.1-2.4.3-.4.8-1 1-1.5a3 3 0 0 1 1.1-.9l9.7-.3h9l.6.6c.5.6.6 1.6.2 2-.5.5-.1.8 1 1.1 1.5.5 3.2.4 3.4 0 0-.3-.2-1-.6-1.7-.5-1-.7-1.5-.7-3.4 0-2 0-2.3.7-3.4.4-.7 1-1.4 1.3-1.5l1.7-1.2c1.4-1.1 1.5-2 .4-2.7-.7-.6-1.2-.6-5.3-.6-6 0-17.2.4-20.9.8-2.6.3-3 .3-3.6 0-.9-.7-1-1.7-.3-2.4.9-.8 2-1 6.2-1.2l6.4-.2 12.5-.3a127.8 127.8 0 0 0 21.6-1c.6.3 1 .3 1.8 0a9 9 0 0 1 2-.2c1 0 2.7-.5 3.1-1 .2-.2-.1-.4-1.1-.7-1.1-.3-2.8-.3-8.3-.3a205.4 205.4 0 0 0-17.9.8l-19.1 1c-5 .3-5.5.3-10.6.1-3 0-3.2 0-3.6-.7-.7-.8-.7-1.7 0-2.4.6-.5.8-.5 2.8-.4 6 .6 26.1.2 31.6-.6 3.3-.5 25-.5 26.4 0 .7.2.8.1 1-.3.2-.7 0-.9-1.3-1.3-.6-.2-1-.5-1.2-.7-.2-.6.1-1.5.7-2.1 1-1 1.2-5 1.2-16.4a566.5 566.5 0 0 0-.5-31.8c.2-1.2.2-2.4 0-3.9-.3-1.2-.4-3.6-.4-5.4a358.3 358.3 0 0 0 .1-13.4c-.3-20.3-.3-22.7 0-23 .2-.3.2-3.2 0-10.4v-14.4a942 942 0 0 0 0-30.1l.3-11c0-4.5.2-8.9.4-9.7.4-2 .9-11.4.6-11.6H78c-6.4.4-10.4.5-18.8.5-3.6 0-8.4.2-10.6.4-3 .3-5.7.4-9.5.3-3.3-.1-6.5 0-8.5.1-2.6.3-3.4.3-4.2 0-.6-.2-2.4-.4-4.2-.4-3.6 0-4.6-.3-4.6-1.3 0-.3 0-.7.3-.8.1-.1 8.2-.2 18-.2a445.1 445.1 0 0 0 43.4-1.9l1.8-.7 1-.4c.8-.6.7-1.7-.3-2.7-1.3-1.2-2.2-1.5-3.3-1.1-1.3.4-2.1.5-8.5.7a105.8 105.8 0 0 1-15.6.7c-7.6-.1-13.4.1-23 .7-2.3.2-6.4.3-9 .3l-4.9.1-.6-.7c-.4-.4-.6-1-.5-1.3.3-1.1.6-1.2 7.9-1.2 18.8 0 40-.6 42.4-1.2l1.2-.3-.9-.7c-.5-.5-1-.8-1.2-.8-.3 0-3.1-1.4-3.7-1.9-.6-.4-4.2-1.5-5.2-1.5-.9 0-1 0-.6.2.5.4.6 1.7 0 2-.1.3-1.7.3-4.6.2l-8.7-.2A33 33 0 0 1 33 33c-.3-.4 0-1.1.7-1.4.3-.2 5.2-.3 11-.3h10.6c.2-.1-.2-.4-.7-.7-1-.5-2-1.8-2-2.5 0-.2.2-.5.6-.8.6-.4.8-.4 3.3.7l4.4 1.6a11.7 11.7 0 0 1 3.4 1.6l1.4.7c2.5 1.5 5.5 2.4 8.8 2.7 1.7.2 3.5.4 4 .6 1.8.6 5.2 2 5.7 2.3.9.5 1.8 2.6 1.7 3.9-.2 3.5-.1 3.6.3 3.9.3.2.7 0 1.8-1 .8-.7 2.2-1.6 3-2 1.5-.7 1.8-.8 3.2-.6 4 .4 5.8 3.5 6.3 10.8.3 4.2.3 4.4 0 8 0 2 0 3.1.3 5 .3 1.5.6 3.4.6 4.3.2 2.2 0 2.5-2.3 2.6l-1.5.1-.1 1.6c-.1 1.7-.8 2.7-2 3a12 12 0 0 0-4.3 1.7c-.6.8-3.3 3.8-4 4.3-1.2 1.2-.2 2.7 3.3 4.6 1.5.8 2.9 2 5.9 4.9 3.9 3.8 4.3 4.3 6 6.6.4.7 1.2 1.5 1.7 1.8.4.4.8.7.8.9l1 1c2.2 2 3.4 3.3 4.8 5.4l1.4 1.8c1.3 1.4 2.3 2.7 3 4 .4.8 1.5 2.2 2.4 3.2.9.9 2.3 2.6 3.1 3.7 1.7 2.3 3.9 4.6 7.5 7.7 1.3 1 2.9 2.6 3.5 3.3 1.4 1.6 2.1 1.7 4.1.4 2.4-1.5 2.9-2.1 2.7-3.3-.2-1-.4-1.3-1.7-3.2a3 3 0 0 1-.5-2c0-1 .2-1 .9-1.1.6 0 1 0 1.4.5.6.7 2.2 3.7 2.2 4.2 0 .6.5 1 1 1s2.1-.7 2.8-1.3c.5-.4 2-.5 2.5-.2.3.1 1 .8 1.3 1.5.7 1 .8 1.5.8 2.9 0 2.3.3 2.9 2.4 4.1a45 45 0 0 1 4.7 4.1l3.5 3.4v2l-.1 2-6.5 3.3a129 129 0 0 0-13.8 7.7c-1.8 1.5-4 2.8-6.3 4-1.1.5-1.2.5-2.2 0-1.2-.5-2-1.3-2-1.8 0-.3-1.7-4-3-6.5-.1-.4-1.2-1-2.1-1.2-.4 0-1.2-.5-1.7-1a4 4 0 0 0-1-.7c-.4 0-1.8-1.6-2.5-2.5-.3-.5-.4-1-.2-1.9.1-1.2-.1-1.7-1.2-2.2-.3-.2-.5-.6-.5-1 0-.9-2-4.9-2.7-5.5-.3-.3-.5-.7-.5-1 0-.3 0-.5-.2-.5-.1 0-.4-.3-.7-.8-.3-.4-.8-1.1-1.3-1.5a164.6 164.6 0 0 1-6.8-6.3l-4-3a5.9 5.9 0 0 0-2.8-1H97l.2 2.9c.1 1.6.3 3 .4 3.1l.5 1.2.6 2.3.8 1.8c.3.4.6 1.3.6 2.2 0 .8.3 1.8.6 2.3l.4 1.2c0 .2 0 .6.2.9.2.2.5 1.1.8 2 .8 2.5 2 5.5 3.3 8.9 1.9 4.5 2 5 2 7 0 1.5 0 1.8-.6 2.4-.4.4-1 .6-1.4.6-.5 0-1.8.3-2.9.7l-2.6.6c-.7 0-2 .8-2.3 1.4-.4.8-.3 2.9.3 4.1.5 1 .6 1.8.7 4.3 0 3.2.4 6.6.9 9.6l.3 4.3c.1 2.6.7 6 1 6.2.1.1.4 1.5.6 3.1a30.7 30.7 0 0 0 1.5 6.6c.3 1.3.7 2.7 1 3l.4 1.8c0 .6.3 1.5.6 2 .4 1 1 3 1.6 5.8a13.5 13.5 0 0 0 2 5.2c0 .5 1 1.6 1.4 1.6.2 0 .9.4 1.6 1l1.3.8h3.9c3.4-.1 6.9-.5 10.7-1.2a29 29 0 0 1 4-.3h2.5l1 .9c.7.8.9 1 .9 2 0 1.3-.5 1.9-2.3 3l-2.8 1.7-3.2 1.3a161.6 161.6 0 0 1-13.1 3c-.5 0-.2 1.7.6 3.1.8 1.4 1 1.4 5.4 1.5 3.1 0 3.4 0 4.5-.7l3.4-1.8 3.3-1.8a58 58 0 0 1 9.7-4c4.4-1.4 6.5-1.2 7.4.6.9 1.7.6 3.3-.8 4.6l-1.5 1.8a45.4 45.4 0 0 1-21.7 14.7c-.8.1-2.3.6-3.1 1-4.4 2.2-7.8 2-12-.5-.8-.4-1.8-.8-2.8-.9-1 0-2.3-.5-3.5-1-1.2-.6-2.3-1-3-1-1.2 0-3-.4-3.5-1-.4-.3-1.9-.6-4.9-1-.8-.1-1.7-.4-2.3-1-.9-.5-1.3-.7-2.6-.7-1.5 0-2.3-.4-2.3-1.1 0-1.4 1.8-1.8 8.4-1.8h5.4l.6.7c.6.8.7.8 3 .7a77 77 0 0 0 4.2-.2c1.8-.2 2-.2 1.8-.7l-.7-1.4-2-3.8c-1-2-1.6-3-2-3-.1 0-.8.5-1.4 1.1a5 5 0 0 1-2.5 1.5l-2.7.8c-.6.2-2 .5-3.2.5-2 .1-2.2.1-3.2-.6s-1.2-.7-4-.6c-3 .1-3 .2-4.1 1-1.3 1-2 2.4-1.6 3.2.1.3.6.8 1 1l1.4 1.9c.5 1 .6 1.7.6 4 0 2 0 3-.3 3.2-.2.2-.3.5-.3.8l-.6 1.6-2.8 5.1a1954.6 1954.6 0 0 0-1.2 3.6c-.7 2.4-1 3-2 3.6-.4.4-1 .6-1.4.6l-1.6.5c-.6.3-2 .6-3.1.7l-3 .2c-.4.1-1.2 0-1.7-.1zm9-5.3c.4-.3.7-.7.7-1l.8-2.2 1.2-2.8 2-3.5 1.4-2.5v-2.2c0-1.2-.2-2.4-.3-2.8a10 10 0 0 0-3.8-2.8c-.3 0-.8.1-1 .3-.4.2-1 .1-2.3-.2-1.7-.4-1.9-.3-5.2.3l-5.9 1c-2.6.3-4 .9-4.2 1.8-.2.8.3 1.5 1 1.7h6.3c4.5-.3 5.8-.3 6.5 0 1 .4 1.1 1 .3 1.9-.6.6-.6.6-.1 2l.4 1.6c0 .6-.9 1.3-2 1.3-.9 0-1 0-.3.1 1.5.3 2.3 1.5 1.4 2.3-.3.3-.2.4.3.8.4.3.6.8.6 1.3 0 .6.2 1 .5 1.2.6.4.7 1.3.2 2l-.4.8c0 .4 1.2.2 2-.4zm-7.1-2c0-.2 0-.3-.3-.3-.2 0-.3 0-.2.2 0 .2.2.3.2.3l.3-.3zm-3.2-2.7c-.6-.5-.7-.8-.6-1.8 0-1 0-1.1-.5-1.1-.3 0-1-.2-1.3-.5-.5-.3-.6-.5-.5-1 .1-.5 0-1-.7-1.9-.9-1.2-1.4-1.3-1.5-.3-.1 1.4 4.2 7.1 5.4 7.1.3 0 .2-.2-.3-.5zM37.6 258c-.4 0-.8-.2-1-.3a8 8 0 0 0-2.4-.3c-2 0-2.2 0-1.8.4.4.3 1.2.4 3.2.4 1.4 0 2.3-.1 2-.2zm8.2-3.4c-.7-.5-2.5-.4-3 .1-.2.2.2.3 1.7.3 1.8 0 1.9 0 1.3-.4zm-5.2-.1c.1-.2-.1-.3-.6-.2-.6 0-.6 0-.2.2l.6.2.2-.2zm76.9-2.8c1.2-.7 1.4-1.4 1-3-.3-1.3-.4-1.3-1.3-1.3-.5 0-1.1-.2-1.4-.4a37 37 0 0 1-5.7-12.5l-1.5-4a92.6 92.6 0 0 1-4-13.1l-.6-2.6-.4-1.3-.5-1.7-.6-2a101 101 0 0 1-3-10c-.2-.2-.3-.4-.2-.6.1-.1 0-.6-.2-1l-.7-2.5-.5-2c-.2 0-.3-.8-.3-1.7 0-1-.1-2.5-.4-3.5a51 51 0 0 1-.6-5.6 69.8 69.8 0 0 0-.7-7.8c.1-.6-.5-4.8-.9-5.8-.4-1.1-1.7-1.9-3.7-2.2-1 0-2.2-.4-2.6-.6-1-.5-1.8-.5-2.2 0-.3.4-.3.9.2 2.8a53 53 0 0 0 1.5 4.7A69.7 69.7 0 0 1 91 182c.8 2.2 1.6 5 2.1 7.2a16 16 0 0 1-.6 8c-.4 1-.6 2.3-.6 3.9 0 2 0 2.5.6 3.7.7 1.3 1 3.5.5 4.2-.4.6.4 2.2 1.5 3.3a8 8 0 0 1 1.7 2.2c.4 1.2 1.7 3.3 2 3.6.5.3 1.1 1.9 1.1 2.4 0 .4.3 1 .7 1.5 1 1 2.7 3.8 3 4.7a28.7 28.7 0 0 0 3.5 6.6l.3 1c.8 1.8 1.2 3 1.2 3.4a25 25 0 0 0 4.6 9.5c.5.8 1.2 1.6 1.6 1.8.8.4 1.8 1.5 1.8 2.1 0 .4.5 1.1.7 1.1l.9-.4zm6-5.1c.4.1.7 0 1.2-.5s.7-.6 1.7-.5c.9.2 1.2.1 1.6-.3.4-.4 1-.6 1.4-.6.5 0 1.4-.3 2-.7.8-.5 1.4-.6 2.9-.6h1.8l2.2-1.8c3-2.6 5.4-5.6 4.4-5.6-.8 0-5.4 1.6-6.3 2.2l-4.6 1.8a68.5 68.5 0 0 0-6.4 2.3c-1 .7-1.3.8-3.2.8-2.8 0-3.4.8-1.8 2.4.4.4.8 1 .8 1.2 0 .3 0 .3.8 0 .6-.2 1-.3 1.5-.1zm-46-5c.7-.7.7-1.6 0-1.7-.5-.2-3.7 0-5.2.2-.7.1-1.4 1-1.4 1.6l2.3.2 3 .1c.5 0 1-.2 1.3-.5zm20-7 1.6-1c.3-.3 1-.8 1.7-1.1.7-.4 1.2-.9 1.3-1.2 0-.4-1-2.3-4-6.4a84.7 84.7 0 0 1-3.1-4.5c-.8-1.1-1.9-2.8-2.4-3.9l-1.1-2c-.3-.2-1.5 1-1.5 1.5 0 .2-.3.6-.6 1-.3.3-.5 1-.5 1.3v.8l1-.6c1-.5 1.2-.5 1.5-.3.5.5.5 1.3 0 2.2-.2.3-.4 1-.4 1.5 0 .8 0 .8.8.8 1 0 1.2.5.9 2-.3 1.5-.1 2.4.7 2.5.3.1.8.4 1 .7.2.5.2.7-.2 1.7a6 6 0 0 0-.5 1.9c0 .7.6 2.5 1 3s1.7.5 2.9 0zm-7.8-1.2c.7-.2.8-.7.4-2.4-.3-.8-.5-2-.6-2.5a19 19 0 0 0-1.6-5 8 8 0 0 1-.7-2.3l-.4-1.2c-.2-.1-.3-.4-.3-.7 0-.3 0-.5-.2-.5s-.3-.3-.4-.6v2.4l-.2 5.9c0 1.8 0 3 .2 3.3.2.3.5 1.2.6 2 .4 1.8.7 2.1 1.9 2l1.3-.4zm25.8-1.7a118.7 118.7 0 0 1 9.8-1.8c.1-.2.5-.3.8-.3.3 0 1.1-.3 2-.8l1.7-.8 1.2-.7c.6-.6.8-.9.7-1.2-.2-.5-.4-.5-2-.3-2.2.2-3.1.6-3 1.3.1 1 0 1.6-.3 2-.3.3-.5.3-1.4 0-1-.4-1-.4-1.4.2-.3.4-.6.6-1.4.6-.5 0-1 .1-1.2.3-.2.4-1.2.3-1.6-.2-.2-.4-.4-.5-1.1-.2-1 .3-1 .3-2.4-1.4-.3-.3-.6-.4-1.4-.2a5 5 0 0 1-2.3-.3c-.7-.2-1.4-.4-1.6-.3-.3.2 0 1.8.6 2.7.4.6 2.3 1.6 3 1.7l1.3-.3zm-25.7-19c.5-.6.6-2.1.2-2.4-.3-.2-.8-5.6-.8-8 0-2.2-.4-2.9-1.1-2l-.5.7-.7.9c-.6.7-.7 1.1-.7 2.3 0 .5.2.6 1 .6 1.2 0 1.3.5.5 2.2-.4.8-.6 1.6-.6 1.8 0 .2.6.3 1.2.3.9 0 1 .1 1 .8.1.5 0 1-.6 1.7-.9 1-1.1 2-.5 2.2.5.2 1-.2 1.6-1zm-.8-16 .3-1.8c.2-1.3.1-1.6-.1-1.5-.4.2-.5.4-1.2 1.9-.3.5-.4 1.1-.3 1.3.2.3 1.1.3 1.3 0zm.5-6.6c.5-.7.3-1.7-.3-1.7-.7 0-2 1.4-1.8 2 .3.6 1.7.4 2.1-.3zm-2.4-3c.5-.5 1-.8 1.3-.9.6 0 .6-.5.2-1.3-.4-.7-.8-.6-1.9.4-.7.7-1 1.2-1 1.8 0 1 .2 1 1.4 0zm-.5-4.8c1-.8 1-1.5.4-3.2l-.8-2.2c-.4-1.1-.7-.5-.9 2.2-.2 2.3 0 3.7.4 3.7l.9-.5zm6.4-20.7 3.2-.8c2.8-.6 7.2-2 7.7-2.4.8-.6-.2-4.3-1.6-6.3l-.4-1.2-.3-.8-1.4-4c-2.4-7.3-2.4-7.4-4.3-7.1-1.6.2-3 .5-4.2 1l-2.7 1.3-2.3.8c-.4 0-1 .2-1.4.5-.8.8-1 1.7-.6 5.8.1 1.7.3 5.2.3 7.9.1 3.2.2 5 .4 5.2.2.2.9.4 1.5.5 1.6.2 5.2 0 6.1-.4zm41.7-4a17 17 0 0 1 2-1.4 45.8 45.8 0 0 0 5.7-3.8l1.5-1.1c1-.8 1.3-1.3.6-1.3-.3 0-.6-.1-.7-.3l-1.3-.2c-1.2 0-1.2 0-1.2.9 0 1.3-.7 1.2-1.6-.3-.7-1-2.4-2-3.6-2-.5 0-1.6.7-3.6 2.2l-1.2.8-1.2.9c-1.2 1-1.2 1.6-.4 3.4l1.1 2.3c.5 1.1 1.4 1.6 2.2 1.2l1.7-1.2zm-.9-3.3c-.8-2 0-2.7 1-1 .8 1.2.9 2.2.1 2.2-.4 0-.7-.3-1-1.2zm3.3-2v-.6c.3-.3 1 .4.9.7-.3.4-.7.3-.9-.2zm-7-3.4c2.8-1.9 3-2 2.6-2.5l-.6-1-1-1.6c-.5-.7-1-1.5-1-1.8-.3-.7-1.3-.6-2.8.3l-1.5.8-.5.3-1.6 1c-1.5 1-2.3 1.8-2.3 2.3 0 .6 2.5 3 3.7 3.6a5 5 0 0 0 1.6.5c.3 0 1.9-.9 3.5-2zm16.4-2.3c0-.1-.2-.5-.7-.7-.9-.5-1.3-1.4-.8-1.8.1-.2.8-.3 1.5-.3 1 0 1.3-.1 1.3-.5.1-.4 0-.5-.7-.5-1 0-2.6-.7-3-1.3-.4-.7.2-1.3 1.6-1.3 1 0 1.1 0 .8-.4l-.7-.4c-.6 0-1.4-1.1-1.3-1.8v-1c0-.4-.8-.5-1.7-.1l-2.1.7-1.7.6-.2 2.2c-.1 1.4-.3 2.2-1 3.5l-.9 1.7.7.7c.5.5 1.1.7 2.2.9 2.3.3 6.6.2 6.7-.2zm5.5-.6c2.7-1.4 4.1-2.4 4.1-2.9 0-.3-.4-.8-1-1.2a164 164 0 0 1-2.5-2.2c-1.3-1.1-1.8-1.4-2.4-1.3-.8 0-.8.2-.8 1 0 1.5.3 2.5.7 2.3.5-.2 1.5.9 1.5 1.5 0 .5-.5.6-1 .1s-.7 0-.8 1.8c-.1 2 0 2 2.2.9zm-29.5-3.4c0-.2.1-.3.3-.3.4 0 2.9-1.9 2.9-2.1l-2.4-.8c-2.2-.5-2.5-.5-3.3-.1-.8.3-1 .5-1 1.1 0 1 1.5 2.4 2.6 2.4.5 0 .9 0 .9-.2zm9-4.9c0-.2.2-.6.5-.8.4-.5.4-.7.2-1-.4-.8-2.2-2.6-3.9-3.8a62 62 0 0 1-7.4-7.5c-.3-.5-1.7-2-3.1-3.5a24.2 24.2 0 0 1-4.2-5.1l-.9-1.3-1.5-1.8a18.9 18.9 0 0 1-3.3-4l-1.6-2.2a14 14 0 0 1-1.5-2c-.2-.3-.7-1-1.2-1.3l-1.7-1.7c-1.7-1.8-5.2-5.2-7-6.8-1.4-1.3-1.9-1.5-2.7-1.5-.5 0-1-.2-1-.3-.1-.1-.5-.3-1-.3-.7 0-1.3.8-1.3 2 0 .2-.1.7-.3 1-.3.3-.3.6 0 1.2.6 1 .9 1.3 1.7 1.5.5.1.8.4 1 1.3.6 1.8 1.2 2.3 2.7 2.3.7 0 1.2.1 1.2.3 0 .1.6.2 1.3.2 1.5 0 2 .4 2 1.5 0 .7.2 1.1 1.8 2.5a126.9 126.9 0 0 1 4 3.4s.2.1.2.3c0 .6 6 6 6.7 6 .3.1.8.2 1 .4.7.6 1.6 2.3 1.6 3.1 0 .5 0 .8.2.8.1 0 .5.5.8 1.2.6 1.3.9 1.6 2 1.6.4 0 1.2.5 2.4 1.5 1.8 1.7 2 2.3 1.3 3.2-.5.5-.4.6 1.8 2.6 2.4 2.3 2.3 2.1 3.4 3.4 1 1 2 2 3.8 3.3 1.2.9 2 1 2 .3zm-41-.5c1.8-.6 2-.9 1.5-1.6-.4-.5-.5-.5-2-.2-3 .8-4 1.4-3.2 2.3.4.5 1 .4 3.7-.5zm28.3-1c0-.4-.2-.5-.6-.5-.7.1-1 1-.4 1.3.4.3 1-.2 1-.8zm3.4-2a8 8 0 0 0-2.1-1.8c-.6.4 2.3 4 3.3 4.1 1 .2.7-.6-1.2-2.4zm15.1 1.2 1-.5c.5 0 1.7-1 1.7-1.5 0-.6-1.2-.4-2.1.5-.5.4-1.2.7-1.4.7-.2 0-.6.3-.7.7-.3.6-.3.7.3.7.3 0 .9-.3 1.2-.6zm9.3-2.5c-.3-1.9-1-2.8-1.8-2.6-2 .7-2.4 1-2 2.3.1.7.3.8 2 1.1.5 0 1.1.4 1.4.6l.6.5-.2-2zm-58.4 0c6.7-1.4 6.4-1.2 6.1-3.5-.2-1.6-.6-7.5-.7-12.2l-.4-4.4c-.3-1.6-1.8-5.1-2.2-5.1-.1 0-.2-.2-.2-.5l-.4-.8c-.3-.2-.5-.7-.6-1l-.2-1.3c-.1-.3-.4-.9-.7-1.2a24 24 0 0 1-3-4.7c-.5-1.2-.6-4.3-.2-4.7.1-.2.4-.7.5-1.3.2-.6.7-1.1 1.1-1.4l.8-.5-.6-.3c-.8-.4-1.9.2-2.4 1.3-.4.8-.4 2.6-.3 15 .2 14 .2 23.2.1 25.3-.1 1.9 0 1.9 3.3 1.2zm28-.1c0-.3-.6-1.1-1.2-1.8a183.4 183.4 0 0 0-15-15c-1.7-1.6-3.4-2.8-3.8-2.6-.7.2-.5 1.3.3 2.2 1.8 2.1 2.2 2.4 2.9 2.6.7.2.8.3 1.5 1.8.4.9 3 3.3 3.5 3.3l1.7 1.5a15 15 0 0 0 1.9 1.8c.7.4 3.7 3 5.5 5 1.7 1.8 2.7 2.2 2.7 1.2zm3.7-1c0-.2-.2-.3-.5-.3s-.3 0 0 .4c.4.4.5.4.5 0zm-5-5.6a.5.5 0 0 1-.3-.4c0-.2-.5-.7-1-1.2s-.9-.8-.9-.5c0 .4.8 1.3 1.2 1.3.2 0 .4.2.4.4 0 .5.6 1.2.8.8 0-.1 0-.3-.2-.4zm-2.6-3.2c0-.3-.3-.7-.5-.9a112.8 112.8 0 0 0-9.4-10 18 18 0 0 0-3.8-2.6 21 21 0 0 1-2-1.1c-.2-.2-.4-.2-.6 0-.3.6-.3 1.6.1 1.6.2 0 1.1.6 2 1.4l2 1.3c.4 0 2.3 1.4 3.5 2.7a63.2 63.2 0 0 1 6 5.7l2.8 2.5v-.6zM87.4 79.2l.7-.6h-.8c-.9 0-2.1.4-2.1.8l.3.6c.4.4.4.4 1.9-.8zm0-4.8c2-2 2.6-4.8 1-4.4-1 .2-1.9 1.1-2 2.2a5 5 0 0 1-.6 1.5c-.2.3-.3.8-.2 1.2.2.6.2.7.7.4l1.1-.9zM98 66.6c0-2.3-.4-2.8-2.4-3.6-1.1-.5-1.7-.6-4.5-.5-2.9 0-3.4 0-4.1-.5-1.1-.6-1.4-.4-1.6 1.6-.3 2.2.3 2.7 3.9 3 3.7.5 4.5.7 6.4 1.4l2.2.7c.1 0 .2-1 .1-2zm0-5.3c.4-.7.8-3.7.5-4.7l-.2-2.5c0-2.6-1-6.5-2-8.1-.8-1.3-1.7-1.7-3.3-1.5-1.2.1-3.3 1.5-3.6 2.4L88 48.7c-1.3 1.5-1.6 2.4-2 6.4-.3 2.4-.3 2.9 0 3.2.4.4 3.5 1 5.8 1.3 1.7.2 3.6.9 4.5 1.5.7.6 1.2.6 1.5.2zm203.4 207.4c-.6-.5-1-1.9-1-3.4 0-1.8-.4-2.1-1.8-1.5-1 .5-1.2.5-1.8.1-.3-.2-.7-.9-1-1.5 0-.6-.3-1.4-.5-1.8-.3-.6-.3-4 0-7.6.5-7.9.6-13.3.2-23.2-.4-8-.4-19.8-.1-20.6.3-.8.9-1 1.6-.9.8.3 1 1.2.7 3.7a853.7 853.7 0 0 1 .3 37.5l.7.3c.9 0 .8-.8.5 7.1-.1 3-.1 3.6.2 3.8.8.2 1-.5 1-4.6l.5-6.1c.5-2.7.6-4 .6-10 .1-4.7 0-8.7-.6-22.7-.6-15.6-.6-14.9 0-15.2 1-.5 1.4 0 1.4 1.3 0 .7 0 2 .2 2.7.2.8.3 2.9.4 4.6l.7 16.7a795 795 0 0 1 0 31.2l.3 3 .2 2c.4.6.8 3.5.6 4.2-.5 1.2-2.3 1.7-3.3 1zm-9.7-3.4c-.6-.6-.3-1.7.5-2.4 1-.8 1-.8 2-.5 1.6.6.6 3.2-1.3 3.2-.5 0-1-.1-1.2-.3zm-33-2.6c-1.2-.5-.4-1.8.8-1.5 1 .2 1.2 1 .5 1.4-.5.4-.5.4-1.3 0zm-24-27.7-1.8-1.2-2.6-1.6a47 47 0 0 1-3.6-2c-1-.7-2.4-1.4-3-1.7-.8-.2-1.8-.8-2.4-1.1-2-1.3-6.6-3.3-7.4-3.3a6 6 0 0 1-2-1l-2.5-1.4c-1.4-.5-1.7-1-1.5-2 .2-.9 1.6-1.1 3-.4a59.5 59.5 0 0 0 7.3 3.6l1.7 1a42.4 42.4 0 0 1 8.4 4.4c4.2 2.2 8.3 4.8 8.5 5.5v1c-.2.8-1 .8-2.2.2zm-196.9-9.6c-.6-.6-.4-1.3.5-1.6.4-.1 2.5-.4 4.7-.5l4.2-.4 2.4-.2c1.9 0 2.2 0 2.7.6.5.4.5.6.3 1-.4.6-1.2.8-3.6.8l-6 .4c-4.9.5-4.6.5-5.2-.1zm122.5-2.8c-.3-.4-.1-1.2.5-1.5.4-.3 1.8-.5 4.8-.6a326 326 0 0 1 28.2-1.4c3.3-.1 4.5.1 4.5 1.1 0 1.2-.6 1.4-5.3 1.4a103.8 103.8 0 0 0-10.6.5l-9.1.4c-7.7.3-12.7.3-13 0zm161.3-.7-.4-1c-.2-.4-.2-7-.2-14.6 0-8 0-15.2-.2-17.2-.2-1.8-.3-8-.3-13.7a3225.8 3225.8 0 0 0-.3-43.2c-.2.2-.5.3-.8.3-.8 0-.8.1-.3-9.8l.2-3.8.1-5.1c0-4.2 0-4.3.7-5 .9-.8 1.6-.8 2.6.2.8.7.9 1 .8 2.2a28 28 0 0 1-.4 5.5l.2.4c.3.3.4.2.4-.8 0-.8.1-1.3.5-1.6.5-.5 1.3-.3 1.3.3 0 .2.2.3.3.3.1 0 .3.4.3 1 0 .5-.2.9-.3.9-.1 0-.3.4-.3.9s.2 1 .3 1c.1.2.3.7.3 1.3 0 .5-.2 1-.3 1-.1 0-.3.2-.3.4s.2.4.3.4c.1 0 .3.4.3.8s-.1.8-.3.8c-.2 0-.4 1.9-.8 8a96.2 96.2 0 0 0-.8 19.3 51 51 0 0 0-.8 14.3 716.5 716.5 0 0 1 0 55.8c-.4 1-1.3 1.3-1.8.7zm-117.2-1.3c-.2-.2-.3-.5-.3-.7a12 12 0 0 0-2.3-3.6 51 51 0 0 1-7.2-4c-.5 0-1.6-.5-2.3-.8a545.4 545.4 0 0 0-14.4-6.7 33 33 0 0 0-10.8-4c-.9-.6-1.2-.6-15.5-.5-15.5 0-15.5 0-15.5-1.1s3.3-1.3 19.6-1.3c17 0 20 0 20.4.4.4.5.2 1.5-.4 1.7-1.2.2-1 .5.8 1.3a48.1 48.1 0 0 1 6.2 3.2c.5.4 1.4.8 2 1l2 .8c.8.6 3 1.6 3.4 1.6l1.5.7c2 1 5.4 2.5 5.7 2.5a42.4 42.4 0 0 1 7.5 4c.9.3 1.4 1.2 1.8 2.7.4 1.7.3 2.3-.6 2.8-.7.4-1.2.4-1.6 0zm-162.4-1c-.5-.6-.2-1.3.5-1.5 2.4-.4 7.7-.8 15.2-1l6.1-.2.4.6c.6.8.4 1.5-.4 1.7l-7.5.2-10.4.3c-3 .2-3.7.1-4-.2zm-4.7-5.3c-.5-.4-.6-1.4 0-1.8a86 86 0 0 1 12.4-.6c3.4 0 12.3-.6 16-1.1 1.3-.2 2.5-.5 2.7-.7 1.1-1 2 .3 1.2 1.8-.7 1.3-1.8 1.6-6 1.5l-4 .2s-4 .3-8.6.4l-10.8.4a8 8 0 0 1-2.9-.1zM25 207.8c-1.3-1-.2-2.9 2-3.6 1.1-.3 8.2-.5 18.1-.5 5.2 0 6.4 0 6.7-.4.2-.2.7-.3 1.3-.2.8.1 1 0 1.6-.5l.7-.7v-5.2a59 59 0 0 0-.3-6.5v-2.6c.3-1.1.6-6.6.7-15.8 0-2.1.2-4.5.4-5.4.2-1 .3-2.3.1-3.8a197 197 0 0 1 0-31.2 62.3 62.3 0 0 1 .6-10.1 271.1 271.1 0 0 1 1.8-27.5c0-2.5.3-6.4.5-8.7.5-5.3.5-6.4 0-7.4-.3-.7-.4-1.3-.3-3 .2-2.3 0-4.8-.6-5.1-.2-.1-4.5-.2-9.6-.2a398.7 398.7 0 0 1-23-.5c-3.4 0-3.5 0-4-.8l-.6-.7-4.5.2c-10.8.4-14 .4-15 0-1.7-.7-2-1.4-.9-2.1C2 64.7 18 64.2 30 64.7l5.3.2.3.7c.2.4.5.8.9.8.6.2 4.6 0 13.3-.2a69 69 0 0 1 14.6.7c1.1.6.8 2.7-.5 2.7-1 0-1.2.6-1.4 6.4-.1 3-.3 6.2-.5 7-.1.8-.4 3.5-.5 5.9-.3 5.5-.5 7-1 10.2-.2 1.6-.4 5-.5 9 0 3.5-.2 7.1-.3 8-.2.8-.3 3.4-.2 5.7l-.1 6.4c-.2 1.1-.3 4.5-.4 7.5a101.1 101.1 0 0 0-.2 15.9 138.3 138.3 0 0 1-.2 26.4l-.1 10.9c0 5.3-.1 9.8-.2 10-.3.4.5 3.6 1 4 .3.2.8.2 1.6.1 1.7-.2 3 .1 3.3.9.3.6.2.7-.3 1.1-.4.4-1.3.5-4.7.7-2.3 0-5.5.2-7.1.4-7.6.6-10.8.8-16.1 1-4.7 0-6.2.2-7.3.6-1.7.6-2.9.6-3.7 0zm-9-9.2c-.5-.8-.5-2.3 0-5.5.3-1.8.6-5.3.8-7.7l.6-7.4c.3-1.6.5-5 .6-7.6 0-2.5.1-4.7.2-4.8.2-.3.6-6.4.8-13.2a1340.6 1340.6 0 0 1 1-20.5 538 538 0 0 0 .6-22l.3-2.5.3-3.8a96.2 96.2 0 0 1 1.2-19.2A25.2 25.2 0 0 1 23 79a12 12 0 0 1 1-3.7c.4-.4 1.2-.4 1.6.1.4.5.4 4.5 0 5l-.4 1c-.2 1-1.4 20-1.6 25.8-.2 6.3-.4 10.3-.7 12.3-.2 1-.3 4-.4 6.7a388.9 388.9 0 0 1-.4 19.5c.1.6.2.9.3.6 0-.4.2-.7.7-.8.9-.2 1.2.1 1.3 1.8a182.2 182.2 0 0 1 0 26.7 107.6 107.6 0 0 1-.1 9.4l-.1 1c-.1.2-.4 1.8-.5 3.5-.5 6.2-.6 6.7-1.3 7.3-1.4 1-2 .2-1.7-2.9l.4-7.5c.1-3 .4-6 .6-6.6.3-1 .3-1.7 0-4.4-.1-1.7-.2-3.5 0-3.8l.1-4.2c0-5-.5-3.4-.6 2a31 31 0 0 1-.4 4.9c-.2.3-.3 2.5-.4 4.7a68 68 0 0 1-.5 6.8l-.7 7.4c-.3 5.5-.4 5.9-1.1 6.6-.6.7-1.9.8-2.2.3zm6.1-42.2c-.2-1-.3-1-.3.6 0 1.3 0 1.5.3 1 .2-.4.2-.9 0-1.6zm.5-2.4c0-.2-.1-.3-.3-.3-.1 0-.2.1-.2.3 0 .1 0 .2.2.2s.3-.1.3-.2zm0-4.1c0-.4-.1-.7-.3-.7-.1 0-.2.3-.2.7 0 .3 0 .6.2.6s.3-.3.3-.6zm155.5 48c-.6-.2-.7-.4-.7-.9.1-.5.3-.6 4.2-1l6.4-.7a204 204 0 0 1 34.4-1.4c.2.2.5.6.5 1 0 1.2-.2 1.3-9.8 1.3a285.7 285.7 0 0 0-32.4 1.9c-1.2.1-2 .1-2.6-.1zm117.2-2.6c-.3-.7-.3-6 0-11.4l.2-19.9c.1-21.4.4-33.2 1.1-39 .2-1.7.8-2.5 1.7-2.5 1.2 0 1.3 1.4.5 12.8-.1 2.3-.3 12.3-.3 22.2a413 413 0 0 1-1 35c0 2.2-.5 3.5-1.3 3.5-.4 0-.7-.3-.9-.7zm-178.1-7.6c-.8-.6-2-1.1-2.8-1.2-.8-.2-1.4-.5-2-1.1a54 54 0 0 0-5-4.8c-.6-.4-.8-.5-1.4-.2-1.5.7-3 0-3-1.3 0-.4.3-.7 1-1l.9-.5-.8-1a9 9 0 0 1-1.4-2.4 5 5 0 0 0-2-2.6c-1.6-1.2-1.9-2-1.1-3.2.4-.7.7-1 1.3-1 .8 0 .8 0 .8 1.4 0 1 0 1.3.3 1l.2-1.2c0-1.3.5-2.2 1.2-2.2.4 0 .7-.3.9-.8.2-.5.4-.8.8-.8.8 0 1.4 2.3 1.4 6 0 1.6 0 3 .2 3 .1 0 .2-1.3.2-3 0-3 .8-7.6 1.4-8.2.1-.1.5-.2.8-.1.5 0 .8-.2 1.2-.6.3-.4.7-.5 1.1-.5.5.1.6 0 .7-.4.4-2.2.6-2.7 1-2.8 1-.2 1.4.5 1.2 2.5v4.1l.2 2.3.3-1.4c.2-.7.4-2.3.4-3.5 0-2.2.1-5.6.4-8 .2-1.4 1-1.5 1.6 0 .4.8.4 1.6.2 5.6l-.2 13.2v8.5l.7.7c.7.6 1 .6 3.2.5l4.5-.4c1.2-.2 7.8-.4 14.7-.4 15-.2 24.7-.5 25.2-.8.2-.2-3.3-.3-9-.4-7-.1-9.6-.2-10-.5-.7-.4-.8-1-.3-1.2.6-.4 10.3-.7 29.5-.7l20.7.1c.5.4.3 1-.6 1.2l-6.3.4c-3 .1-5.5.3-5.5.5 0 .1.8.2 1.9.2 1 0 2.6.1 3.5.4 1.3.3 2.4.4 5.7.3l12.8-.4c8.6-.2 10-.4 10.4-1.2l.1-9c0-3.6.1-7.5.3-8.5l.6-8.2c.3-3.5.5-7.4.7-8.6.8-9 .8-9 .4-9.8-.5-.9-1.4-1.8-1.9-1.8-.3 0-.9.8-1 1.3 0 .2-.2.7-.5 1-.6.5-.7.6-11.9.5-6.2 0-11.4 0-11.6.2-.6.4-26.7.7-28.9.3l-5.2-.4c-3.5-.2-3.6-.2-3.9-.8-.4-.9-.1-1.2 1.7-1.8 1.5-.4 3.8-.6 10.8-.6h3.2l.6-1.1.5-1.1-3.7.2c-7.8.3-14 .5-14.6.3-1.5-.4-2.1-2.1-.8-2.4h1c.5.1 5.1 0 16-.5 4-.2 4.1-.2 4.2-.8 0-.3.2-.7.3-.8.2-.2 2.5-.4 5.1-.5a509.1 509.1 0 0 1 25.5-1 338.8 338.8 0 0 0 16.8-.2c.4.2.6 0 1-.6.6-1 .9-3.1.8-6.5 0-5 .3-26 .6-28.8.6-7 .6-7.9 0-8.9a10 10 0 0 1-.7-1.4c-.2-.5-1-.6-1.4 0l-.4 1.1c-.2 1-1.2 1.6-2 1.3a221.9 221.9 0 0 0-35.9 1.4c-2.2.3-12.8.5-32.3.7a1571.6 1571.6 0 0 0-35.3.9l-1 .6c-.3 0-.3.2.1.6.5.4.5 1 .5 4.6l.2 7c.2 2.5.2 3-.1 3.5-1 1.2-2.2-1-2-3.5.3-2.3.4-3.3.2-3.3-.4 0-.4-3-.1-4.4.3-1.6 0-2.2-1-2.1-.6 0-.6 0-.7-1.2 0-1-.1-1.2-1.1-1.5-.6-.2-1.5-.3-2-.3-2 0-3-1.4-1.6-2.3.6-.4.8-.4 2 0 1.4.5 3.8.6 4 .2l1.5-.4c1.8-.3 2-.4 1.8-1.2-.3-1 1.1-3.5 2.1-3.8 1.2-.4 3-1.3 3-1.6l-.5-.9c-.5-.5-.6-.7-.3-1.2.2-.4.5-.7.8-.7.5 0 .5-.1.4-.7l-.2-.8c0-.1-4 .8-4.4 1-.7.4-1.6.3-1.8-.2-.2-.6.6-1.3 2.9-2.2l2-1c-.3-.5-1.7-.6-3.5-.2l-3.8.7c-1.1.1-2.4.3-2.8.5-1 .4-2 .3-2-.1-.3-.6.4-1.2 1.2-1.2.9 0 2.6-.8 2.6-1.1 0-.2-.3-.4-.7-.6-1-.2-1.8-1-1.8-1.5 0-1 1.3-3.5 2-3.7.7-.3 1.3.2 1 1-.1.8.4 1.9 1.2 1.9.7 0 1.2-.8 1.5-2.1.3-1.4 1.9-4.4 2.6-4.9.6-.4 1.1-.3 1.4.3.2.5-.3 2.1-.9 2.7a11 11 0 0 0-1.3 4.1c.3.7 4.2 1.1 4.8.6.6-.7 3.6-9 3.6-10s3.7-7.3 4.7-8c.5-.5 1.3 0 1.4.7.1.4.4 0 1.3-1.8 1-2 1.4-2.4 1.9-2.4 1.2 0 1 1-1.4 5.5-2 3.9-3.7 7.6-4.6 10.2-2 5.8-3.1 7.3-3.8 5-.2-.8-.2-.8-.3.3 0 .8.1 1.1.4 1.1.2 0 .6.3.9.7 1.2 1.4 2.3.5 3.5-2.8a533 533 0 0 0 2-5.5 61.6 61.6 0 0 1 3.8-9c.6-1.6.8-2 1.3-2 .3 0 .6.3.7.5.2.4-.5 2.4-1.3 4a78.4 78.4 0 0 0-5.2 13.4c-1 2.3-1.2 3.4-.4 3.4.2 0 .4-.2.4-.5 0-.2.3-1 .8-1.8.4-.7 1-2 1.1-2.8l.8-2.4.5-1.4c0-.6 2.8-6.4 3.3-6.7.5-.5 1.2-.2 1.2.5a82.8 82.8 0 0 0-4.7 12.3c-.1.4-.7 1.2-1.3 2l-1.2 1.2.7.3c.6.3.8.3 1 0 .7-.7 3-5.5 3.6-7.4a112.5 112.5 0 0 0 4.3-12.9l.5-1.5c0-.4.2-1 1.8-4l.8-2 1-2c1.2-2 1.2-2.4-.5-2.4a38.8 38.8 0 0 0-5.5-1 102.5 102.5 0 0 1-10-2.2 121 121 0 0 1-3.7-.8c-1.1-.3-1.2-.3-1.8.4l-.6 1.2-.5 1.3c-.6 1.1-1.7 4-2.2 5.4l-1 2.6c-.5.8-.8 1.8-.8 2a56.8 56.8 0 0 0-4.1 12c-.3.9-.8 1.8-1.1 2.1-.6.5-.7.6-1.3.3-.6-.3-.7-.4-.6-1.2a29.2 29.2 0 0 1 2.6-6.9c0-.5 1.2-4.8 1.5-5.4.2-.2.7-1.7 1.2-3.3 1-3.1 1.4-4 2.4-6l1.2-2.8c.8-2 1.7-3.3 2.7-3.5 1-.1 1.4-1.3 1.1-3.2-.3-2.4 1.1-3.7 4-3.5.6 0 2.2 1.8 2.8 3.2.7 1.5 1.3 2.2 1.8 2l4.7-4.3c2.1-2 3-2.3 3.6-1.5.5.6-.1 1.5-2.3 3.2a58 58 0 0 0-4.7 4.1l-.8.7.7.4c.8.6 2.2 1 4.8 1.2l2.5.5c.6.3 2.9.7 5.7 1 .8.1 1.4.5 2.1 1.2 1.3 1.2 1.5 1.3 4.2 2.2 2 .7 2.2.7 3 .3 1.3-.7 1.5-1.5.9-3l-1.4-2.2L154 31a67 67 0 0 0-4.6-5.1l-3.1-3.2-1.1.6c-1.4.7-2.2.7-2.4.2-.3-.8-.2-1 1.4-2.1 2.4-1.8 3.7-1.6 5.3.7l2.6 3.1a59 59 0 0 1 5.5 6.6l.8.9 2-.4c2.8-.6 7.2-1 8-.8.9.4 1.3 1 2.2 3.2.1.4 1.1 1.8 2.2 3.2a39.2 39.2 0 0 1 3.8 5.5c.2.3.3 2.2.3 5.9 0 4.8.6 12.2.9 12.5a101 101 0 0 0 11.4 8.1l.3-1.2c.1-.8 0-1.4-.4-2.2l-.5-1.2c0-1.1 3.5-3.3 5.3-3.3 1 0 2.3.5 3.3 1.4.5.4 1 .9 1.3 1 .7.7.6 1.3-.9 2.7-1.5 1.4-1.8 2.2-1.8 5 0 1.7 0 1.8.6 1.8.4 0 1 .3 1.5.6.9.8 1 .8 2 .3.8-.4.9-.5 1-2.2l.4-3.6c.2-1.5.2-2-.2-2.1l-1.2-1c-.7-.6-.7-.7-.4-1.5.4-1 2.1-2.6 3.1-2.8a10 10 0 0 0 1.7-.7c.6-.3 1.6-.5 2.5-.5 1.4 0 1.7 0 3 1.2 2 1.5 2 2.2.7 3.8-.9 1-.9 1.1-1 4.2l-.3 3.6c-.2.5 0 .9 1 1.9 1.4 1.4 2 1.4 2 0s.4-2.1 2-3.7c1.4-1.4 1.4-1.4 1.4-3 0-.9 0-1.7-.2-1.8-.2 0-.3-1-.3-2 0-1.4.1-1.8.6-2.4.7-.9 2.6-1.5 4.9-1.7 1.2-.1 1.5 0 2.6.7a6 6 0 0 0 1.6.8l.8.5c.4.5.4.6-.4 2.5-.7 1.7-.8 2.3-1 5.2-.2 3.2-.2 3.4.5 4.9.4.8.7 1.8.7 2l.4 1.7c.8 2 1.2 4.2 1 5.5-.3 1.3-.6 16-.4 17.1.1.6.3.7.8.6.4 0 .7 0 .8.3 0 .2.3.4.5.4s.3-1.2.3-5.6c0-4.9.4-10.3.8-12.3.1-.7 1-.8 1.4 0 .1.2.2 2.2.2 4.9 0 4.4 0 5 1 4.7.4-.2 1 .4 1.3 1.3.2.5.5 3.4.6 6.5a1027.5 1027.5 0 0 0 .8 13.4c.2 3.7.3 3.6.5-1.4l.3-5.7c.6-10 .7-12.9.3-13.7-.6-1.5.4-2.9 1.3-1.8.5.7.6 4.1.3 10a528 528 0 0 0-.9 28.2c0 6.6 0 7.5.5 8.6.3 1 .4 1.7.3 3.6-.1 1.3-.3 6.7-.3 12-.1 6.6-.2 10-.4 10.2-.5.5-1.5.4-1.7-.1a401 401 0 0 0 .3-29c-.2-2.4-.3-2.5-.8-2.3-.3.1-.6.5-.8 1.1-.2 1-.3 13.1 0 22.1 0 5.7 0 6.5-.4 6.6a1 1 0 0 1-.8 0c-.8-.6-1-2.2-1.2-9.2a220.5 220.5 0 0 0-.2-10.9c.1-.2.3-2 .3-4.1 0-2.1.3-4.8.5-5.9.5-2.7.3-5.3-.6-5.7-.7-.3-1-1.5-.7-3.7a86.4 86.4 0 0 0-.1-11.5c-.4 0-.4.7-.4 4.1a14 14 0 0 1-.3 4.3c-.2 0-.2.5-.1.8 0 .4 0 .9-.2 1.2-.4.8-1 .1-1-1a66.6 66.6 0 0 0-.6-7.8c0 .7-.3 1.8-.4 2.4a42.7 42.7 0 0 0-.2 9c.5 0 .7.6.7 2.1 0 .8-.2 1.5-.5 1.9l-.5.6-.5-.6c-.4-.5-.4-.6-.1-.8.3-.2.3-.3 0-.3-.1 0-.3-.2-.3-.4s.1-.4.3-.4l.2-.4c0-.4 0-.4-.4 0a32 32 0 0 0-.2 9.9c.8.5 1 1.8.9 7.7a90 90 0 0 0 1 14.2c.2 1.8-.8 2.8-2 2-.3-.2-.5-.1-.8.1-.5.5-1 .5-1.5 0-.4-.4-.4-.3-.4.8 0 1.6-.6 2.5-1.7 2.5h-1v1.3c0 .8.1 1.4.2 1.4a22 22 0 0 0 3.5-2.3l2.1-1.4c2.2-1 2.5-1.3 2.5-2.7 0-.8-.2-1.6-.3-1.8-.2-.3-.2-.8 0-1.2v-1.4c-.6-1.9-.3-24 .3-24.5.1-.2.4-.2.6 0 .3.3.4 1.5.4 7.2a202.3 202.3 0 0 0 1 23.4c.4.2.6 1.6.4 2.1 0 .3-.6.4-2 .4-1.6 0-1.8 0-1.4.4l.7.4 1 .4c.5.4.8.4 2.4.2 2.4-.5 3-.4 3.5.2.6.6.5 1.5-.3 1.9-.5.2-.5.3-.1.9.6.8.1 1.6-1 1.8l-5.2.2c-4 0-4.4 0-5 .5-.5.6-.5.6-.1 1.4.5 1 .2 1.6-1 1.8a5 5 0 0 0-1.5.6c-.6.4-.6.5-.5 3.2.3 4.4 0 4.5-8.8 5-5.5.3-9 .3-14.2.2a334 334 0 0 0-24 .8 44 44 0 0 1-5.6.2 121.1 121.1 0 0 1-19.4.5l-15.3.1-3.5.6c-4.3.8-7.6 1.5-8 1.8 0 .1-.8.2-1.7.2-1.4 0-1.9-.1-3.2-1zm50.6-6.8c.6-.1.4-.2-.6-.2s-1.2 0-1 .2c.5.3.7.3 1.6 0zm4-.1h-.7.8zm-62-7.4v-.9c-.2-.2-.7.5-.7 1.1 0 .7.5.6.7-.2zm4.8-2.2-.1.4v.4c.1-.2.1-.5 0-.8zm-2.7-2.6v1.8-1.8zm-2.6 1c-.1-.3-.2-.2-.2 0 0 .4 0 .5.2.4v-.5zm116.6-1.5h-1.4 1.4zM223 156c-.1-1.7-.1-1.5-.1 1.3 0 2.1 0 2.7.1 1.9.1-.7.1-2.2 0-3.2zm2.6 1.2c0-.3-.1-.1-.1.3 0 .5 0 .7.1.5v-.8zm-1.6-17.5.2-4.4c.2-2.1.2-4.3 0-4.6 0-.2-.4-.1-1 .4-1 .7-1 .7-1.4.2a2 2 0 0 1-.3-.6l-.8-.4c-.7-.1-.8-.3-.8-1v-.8h4.2l-.1-.2h-2.3c-1.7 0-2.2 0-2.6.5-1 1-.7 1.9.9 3.3.8.7 1.6 1.2 1.8 1.2 1 0 1.2 1.5.6 5.8-.5 2.9-.4 3.8.4 4.6l.5.8c.1 1 .5-2 .7-4.8zm-27.4-6.5c0-.2.4-.7.8-1 2-1.1 8.1-.3 8.6 1.2.3.8.8.5.8-.5s0-1 1.4-1.5c2-.7 2.1-.9.2-1-3.4-.3-16.2 0-17 .3l-.9.3.8.8c.4.4.8 1 .8 1.3 0 .6.4.8 2.2 1 1.7.2 2.3 0 2.3-.9zm-16 .7c-.1-1.2 1.1-1.6 1.6-.4.3.6 1 .8 1.8.5.3-.2.4-.5.4-1.1 0-.7.2-1.1.6-1.5.5-.5.5-.5-3-.5-3.3 0-3.4 0-3.4.6s.7 2.1 1.2 2.4c.3.3 1 .3.9 0zm35-3.4h-.5c-.3 0-.2.1.1.2.3 0 .5-.1.4-.2zm17.6-6.5a1423.8 1423.8 0 0 1-.3-6.3 35 35 0 0 0 .1 7.5l.2-1.2zm-7-13.2c-.1-.4-.2-.2-.2.4 0 .6 0 .9.1.6v-1zm2.7-3.7c-.1-1.8-.2-3-.3-2.7 0 .3-.1.6-.3.6-.2 0-.2.3-.1.9l.2 2.7c.1 2.5.2 2.7.4 2.2v-3.7zm1.6 2.5c-.2-.5-.3-.5-.3.2 0 .3.1.5.2.4.2-.1.2-.4.1-.6zm-.1-3.8c-.1-.3-.2-.2-.2.1l.1.4v-.5zm1.6-9c-.1-.2-.2 0-.2.4s0 .7.1.5c.1-.2.1-.6 0-.8zm-85.8-14.7c2.2-.1 2.5-.2 2.5-.6 0-.3.1-.6.3-.8.4-.2 4.7-.8 6.5-.8.5 0 1.3-.2 1.6-.4.6-.3.6-.3-.4-.8a22.3 22.3 0 0 0-12.4-1.8c-.7.2-.8.4-.8 1.3-.2 1.6-.6 1.8-3.3 1.8-2.2 0-2.4 0-3 .7-.7.7-.8.7-3.4.7l-3.7.2c-.8.1-.9.2-.6.6.2.3 1.4.3 7.3.2 3.8 0 8.1-.2 9.4-.3zm34.9-.7c2.8-.2 3.3-.4 3.3-1.7 0-1 1.3-4.7 2-5.6 1-1.2 1-2.7.3-3.5a8 8 0 0 0-1.9-1.2c-.7-.4-1.8-1.1-2.4-1.7a38.6 38.6 0 0 0-5.8-4.2c-.9-.4-1.3 0-1.6 1.1a62.2 62.2 0 0 0-1.4 9.8l-.4 3c-.1.7-.4 1.5-.6 1.9-.3.5-.5.5-1 .3-.4-.3-.5-.5-.3-2.3a58.3 58.3 0 0 1 1-7 47 47 0 0 1 1.4-7.4c.1-.3.6-1 1-1.3.8-.7.8-.8.8-3 0-1.4-.2-3.3-.4-4.4l-.4-2-.4 1a39 39 0 0 0-2.9 7.4c0 .5-.5 2.2-1.3 4l-.6 2-.8 2.4-1 2.7a28.4 28.4 0 0 1-4 7.2l-2 1c-.9.3-1.3.6-1.3 1s0 .6.6.7c.9.1 16 0 20-.2zm-4-1.2-.8-2a16 16 0 0 0-.6-1.8c-.2-.3-.3-.7-.3-1L175 74c-.4-1.1-.2-3.7.2-4.3.7-.8 1.8 0 1.8 1.3s1 4.2 1.8 5.5c1 1.5 1.1 2.6.5 3.6-.5.8-1.5.9-2.1.2zm16.3.2c3.4 0 3.7-.2 3.2-2.2l-.5-2.3c-.1-.6-.4-1-.9-1.3-.9-.4-1-1.3-1-4.4.1-2.2.1-2.3-.5-2.4h-1.3l-.7.3v3c.1 2.7.1 2.8 1 3.6l.7 1.1c0 .7-1.1 1.6-2.3 2-.7.1-1.4.4-1.6.6-.8.6 0 2.5 1 2.2l2.9-.2zM134 78.9a6.9 6.9 0 0 1 5.3-2.2c1.7 0 2.6-.3 2.2-.7l-3.6.2c-3.8.4-3.8.4-4.7-1.2l-.5-1 .6-.4 1-.8c.5-.3.5-.3 0-.7-.3-.4-2.4-1-4.7-1.4l-.9-.2.7.6c.6.5.8.8.8 1.5 0 1-.7 2.4-1.4 2.8-.3.2-.5.5-.5 1 0 .6-.2.8-1.4 1.4-2.7 1.3-1.5 2 3.5 2h2.8l.8-.9zm86.7.5c.4 0 .4-.2.2-.6-.3-.7-.1-3 .5-4.6.5-1.5 1.1-4.5 1.1-5.9 0-1.3-.5-1.8-2-2-2.7-.5-3.2.3-3 5.2.2 2.8.1 3.2-.3 3.6-.6.5-.4.8.6 1.3 1.2.6 1 1.4-.4 1.6l-.6.2c.3 0 .5.3.6.6.2 1 1.4 1.2 3.3.6zm-11.6-.2c.6-.6.6-.7-.3-2.3l-1.1-2.1c-.3-.6-.4-1.1-.2-2 .2-1-.1-5-.4-5.6-.2-.2-1-.3-2-.3h-1.9v.8a17.9 17.9 0 0 0-.3 8c.3.3.8.5 2 .5 2 0 2.7.5 2.4 1.8-.2 1.3 1 2 1.8 1.2zm-44.7-6.3a48 48 0 0 0 4.7-12.3c0-.7.5-2.5.8-2.9l.2-.5c0-.5.7-2.2 1.7-4 2-3.6 2-4 .2-4.5l-4.3-2-4-1.8c-.6-.1-1.5-.5-2-.9a25 25 0 0 0-5.5-2.2 19.1 19.1 0 0 1-8.1-3.5l-.3 1a77.2 77.2 0 0 1-9.2 24.5c-.2 1-.8 2.3-1.3 3l-1 2.3c0 .8 0 1 .5 1.3a6 6 0 0 0 2 .6c1.2.2 2.2.4 5.5 1.4l3 .6c.8.2 2.3.6 3.2 1a8 8 0 0 0 3 .7c.7 0 1.6.2 2.8.7 2.6 1.2 4.3 1.8 5.2 1.7.8 0 1-.2 3-4.2zm-37.7.4a7 7 0 0 0-1.6 0c-.5 0-.2.1.7.1h.9zm1.5-3c.2-.3-1.4-1.5-2.2-1.5l-1.4-.2c-.6-.2-.6-.2-.2.3.3.2.5.6.5 1 0 .3.2.4.8.5 1.7.2 2.3.2 2.5 0zm77.1-5.5c0-.3-.7-.5-2-.5-1.2 0-1.3 0-.8.4.6.4 2.8.5 2.8.1zm16.3-1c-.4-.2-1.2-.2-1.8 0-1 .1-1 .1.7.1 1.4 0 1.7 0 1.1-.2zm-95.1-1.2c0-.1-.1-.2-.3-.2-.1 0-.3.3-.2.7 0 .7 0 .7.2.2l.3-.7zm1.2-4.2-.1.3c0 .4 0 .5.1.3v-.6zm.5-1.5v.4c-.1.4 0 .6 0 .4.1-.2.1-.5 0-.8zm2.2-4c0-.3-.1-.5-.3-.4-.4.2-1 1.3-1 2 0 .5 1.3-1 1.3-1.7zM175 46c0-1.1-2.2-4.4-4.9-7.2-.7-.8-1.5-2-1.9-2.7-.8-1.8-1.8-2.4-3.7-2.2l-2.3.6c-.9.4-1 .4-1 2-.1 1.5-.2 1.7-1.1 2.5-1.4 1.3-1.2 1.6 2 2.6l2.5 1a119 119 0 0 1 8.3 3.8c1.6 1 2 .8 2-.4zM129.4 30l-.1-.3-.3.3c-.1.1 0 .2.1.2.2 0 .3 0 .3-.2zm-.9-2c0-.1-.2-.3-.4-.3s-.4.2-.5.3c0 .2.1.4.5.4.3 0 .5-.2.4-.4zm199 154c-.8-.8-1-2.6-1-6.5V171c.2-.3.2-3.7.3-7.5 0-3.9.1-8.7.3-10.7.3-3.4.3-3.6-.2-4-.4-.3-.5-.8-.6-4.2 0-2.3 0-4.2.2-4.6.4-1 .4-12.8 0-13.5-.1-.2-.3-4.3-.3-9.1l-.1-8.6.6-.6c1.2-1 3-.5 5.4 1.3l1 .8.4-1c.5-1.3 1.3-1.5 1.7-.4.2.3.3 2.7.3 5.3 0 4.3 0 4.6.4 4 .2-.4.5-1.8.5-3.2.3-3.2.6-3.8 2-3.6 1.5.2 1.8.6 2.1 2.3.3 1.7.4 6 0 7.4l-.1 1-1.5-.1-2.3-.2c-.8-.1-.8-.1-.8.6 0 .9.8 1.4 3.2 2l1.6.3-.2 1.3-.6 5.6a99 99 0 0 1-.9 6.9l-.6 4.8c-.2 2.3-.4 2.6-1.5 2.8h-.6l-.2 3.8c-.1 3.8-.3 4.6-1.3 4.6-.3 0-.6-.2-.8-.4-.5-.7-.8-5.4-.8-16.9v-11h-.9c-.8 0-.9 0-1.2 1.3-.1.8-.3 2-.2 2.9 0 1 0 1.2.1.5.1-1.2 1-1.6 1.6-.8.4.5.5 2.4 0 2.4l-.2 1.2c0 .7.1 1.2.3 1.2.1 0 .2.3.2.7 0 .3 0 .6-.2.6s-.3.2-.3.4.1.4.3.4l.2.8c0 .8-.3 1-1.4 1h-.6v12c0 14.5-.3 21.8-1.1 28.4-.3 2.7-1.2 3.7-2.3 2.7zm5.3-58c-.2-.3-.3-.3-.6 0-.5.5-.5.7.1.7.3 0 .6.2.6.5l.1-.2c.1-.3 0-.8-.2-1zm-191.7 53.2c-.2-.5.6-1.4 1.2-1.4s.7.7.2 1.3c-.6.6-1.2.7-1.4.1zm4.3-.9c-.9-.2-1.2-.9-.7-1.4.4-.5 5-.8 11.3-.7 9.8 0 33.2-.5 36.4-.8 2.4-.3 3.5-.1 3.8.7.1.2 0 .6-.3.9-.5.4-1 .5-6.7.6l-6.9.2c-6.9.4-35.4.8-37 .5zm-2.6-3.4c-1.3-.2-2.2-.8-2-1.5.2-.5 2.4-.6 10.5-.8 7.3-.2 9-.3 16.7-.7 5.8-.2 7.6-.3 15-.2 5.3 0 6.3.1 6.4 1 .1 1-.5 1.1-5.6 1.2a925 925 0 0 0-41 1zm158-2.3c-.6-.8-.6-1.4-.2-6 .7-9.5 1-18.6 1.2-37.3.1-20.2.6-25.1 2.5-25.1 1 0 1.1.6.8 4.8a751.8 751.8 0 0 0-1 15l-.2 13.4a522 522 0 0 1-1.2 31.5c-.1 4-.2 4.2-.7 4.3-.4 0-.8-.2-1.1-.6zM136.3 169c-3.6-.1-4.2-.3-3.6-1.3.5-1 3-1.2 11.6-1h4.8c.8-.2 3.2-.3 5.4-.4 2.2-.1 4.9-.3 6-.5 1.2-.1 3.3-.2 4.6-.1 2.5 0 2.9.3 2.1 1.3-.3.4-.9.5-4.1.7l-16.3 1c-4 .4-6.5.5-10.5.3zM1.8 153.5c-.8-.9-1.3-7.7-.8-10.7 0-.7 0-1.2-.4-1.7-.5-.8-.5-4 0-4.5.3-.3.3-1.3-.1-2-.2-.6-.2-1 0-1.6.3-.5.4-1.6.3-2.8v-2.6a642.6 642.6 0 0 1 1-24c0-2.5.4-5.4 1.2-10.9.4-3 .6-4.1 1-4.7.6-.7.6-1 .5-4.5 0-5.3.4-7.3 1.8-7.3.6 0 1.1 1.2 1.2 3 0 1.8-.8 13.6-1 13.9l-.4 7.3-.5 10c-.2 1.6-.4 6-.4 9.6 0 5.7-.2 6.7-.6 7.5-.4 1-.4 1.1 0 3.8.5 2.8.4 3-.3 4.7-.6 1.2-.8 12.7-.2 14.2.3.8.3 1.2 0 2-.6 1.7-1.5 2.2-2.3 1.3zm268.1-.4c-.2-.3-.4-7.1-.7-27.2 0-4.1-.2-9.3-.4-11.5-.3-3.7-.2-4 .2-4.3.6-.4 1-.4 1.5 0 .3.3.4 1.5.5 4.5.3 5.7.4 37.2.1 38.1-.2.8-.7 1-1.2.4zm-16.6-.7c-.2-.2-.4-4.3-.5-9a986 986 0 0 0-1-23.7c-.3-5.2-.3-25.9.1-26.3.5-.4 1.5-.4 1.7.1l.3 10.8c0 5.7.2 13.2.3 16.6.4 16.1.5 31.1 0 31.6-.4.5-.7.5-1 0zm-228-3.7c-.1-.2 0-.3 0-.4h.5l-.1.5-.4-.1zm317.2-1.5c-.7-.7-1-3.4-1-10.6 0-7.7.9-19.4 1.6-22.7.4-1.8 1.1-3 1.8-3 .2 0 .5.2.8.5.4.4.4.8.3 3.5-.1 2.1 0 3.4.2 4.7.4 2 .6 5.8.3 6.3v.6c.6.7.4 4.4-.4 7.5-.5 1.7-.8 4.7-1 8.7-.1 3.3-.2 3.8-.7 4.3-.6.7-1.3.8-1.9.2zm-93-.2c-.5-.3-.6-1-1-5l-.7-5.8a95 95 0 0 1-.8-11c-.4-.7-.7-25-.4-32.8.1-2.2.2-2.6.6-2.7 1-.2 1 .7 1.1 13.5a367.2 367.2 0 0 0 1.5 34.5c.6 9.7.6 10-.4 9.3zM26 146.1c-.5-.5-.6-3.5-.2-6.8a159.2 159.2 0 0 0 1.2-18.5l.6-6.5a427.5 427.5 0 0 1 2.7-29.5c0-1.2.7-2.3 1.5-2.3 1 0 1.3 1 1 2.7l-.7 5.4a2829 2829 0 0 1-2.2 22.6l-.4 6a245.2 245.2 0 0 1-1.1 20.8c-.2 4.4-.5 5.7-1.5 6.3-.4.2-.6.2-1-.2zm322.3 0a70 70 0 0 1-.5-15.8c.2-2.7.4-7.2.4-10 .2-5.4.4-6.8 1.2-6.9 1.8 0 2.5.7 3 3.1.9 4.2.8 9.1-.3 14a32 32 0 0 0-1.2 7.8c-.2 5.2-.4 7-.8 7.6-.5.8-1.3.8-1.8.2zm-315.9-2.6c-.4-.5-.4-2.3 0-4.6a539.2 539.2 0 0 0 2.3-27.5A388.7 388.7 0 0 1 37.1 85c.3-.5 1.2-.4 1.5.2.3.5.2 2.2-.5 8.3-.3 3-.8 8.6-1 13.5a368 368 0 0 1-1.4 20.3l-.4 4.7-.4 7.2c0 3-.3 4.2-1.2 4.5-.6.3-.8.2-1.2-.2zm324.3-.2c-.5-.4-1-3-1-6.4 0-1.8 0-2.7-.3-3.2a64.6 64.6 0 0 0 .8-15.2v-4.8l.7-.7c.6-.4 1-.6 1.5-.5 1.3.4 1.7 1 1.8 3.1l.2 3.8c.4 6.6.2 12-.4 13.2-.2.3-.4 1.7-.6 3a62.6 62.6 0 0 1-1 7.3c-.3.6-1.2.8-1.7.4zm-319.1-6.7a3 3 0 0 1-.1-2c.4-2 .7-6 .9-11.5a150.9 150.9 0 0 1 .7-13c0-1.2.1-3.1.3-4.4.2-1.4.4-4.1.4-6.5 0-4.3.2-4.9 1.2-4.7.5 0 .6.2.5 3.1 0 4.4-.3 10.8-.6 13.8-.5 5.3-.8 11.7-.8 18.2 0 7.4-.1 8-1.5 8-.5 0-.7-.3-1-1zm188.7-.3c-.3-.3-.2-1.1.2-1.3.3-.1.3-.3.1-.8-.3-1-.3-1.7.2-1.9.7-.2 1 .4.7 1.5-.2.7-.1 1.1 0 1.4.5.7-.6 1.7-1.2 1.1zm139.4-.5a2 2 0 0 1-.4-1.2 119.6 119.6 0 0 1 0-20.2c0-2 1.7-3 2.5-1.5 1 2 1 13.1 0 21.2-.2 1.8-1.2 2.6-2.1 1.7zm-322.4-3.4c-.2-.2-.3-.8-.2-1.4.8-5.2 1-8.7 1.5-22a459.6 459.6 0 0 1 1.8-27.1c.2-2.8.4-3.3 1.2-3.3.5 0 .8.1.9.6.2.8 0 6.1-.3 6.8a288.3 288.3 0 0 0-1.6 28 160.1 160.1 0 0 1-.5 10.7c-.2 6-.7 8-2 8-.3 0-.6 0-.8-.3zm329-1.4c-.5-.5-.5-.7-.5-4.6 0-6.6.7-12.6 1.4-13.3.8-.7 1.6-.3 1.9 1 .3 1.2.3 4.8 0 7.6-1 8.2-1.2 9.3-1.6 9.5-.4.2-.7.1-1.1-.2zm4.9-.6c-.7-1.3-.3-12 .6-15.7.4-1.7.6-2 1.5-2 .5.1.7.3.9 1.2.2 1.1.2 1.9-.5 7.1-.2 2-.4 4.7-.3 6.3 0 2 0 2.9-.3 3.2-.5.6-1.6.6-2-.1zm-148.6-2.2c-.4-.8-.4-1-.1-1.6.5-1 1.4-.8 1.5.2.3 2-.7 2.9-1.4 1.4zm153.3-3a22 22 0 0 1 .3-9c.6-1.3 1.3-1.7 1.8-1 .5.8.2 8.7-.4 9.7-.6.8-1.2.9-1.7.3zm5.9-4.4c-.5-.7-.6-1.2-.5-3.1.1-2.8.8-4.2 2-4.2 1 0 1.1.3 1.1 3.4 0 2.8-.3 4.1-1 4.5-.8.4-1 .3-1.6-.6zm6.5-.6c-.6-.5-.6-3 0-4 .4-1 1.3-1.3 1.8-.9.6.6.4 4.5-.3 5-.6.4-1 .4-1.5-.1zm-344.8-3.4v-4.2l.3-14.7c.2-19.3.5-25.4 1.2-26.8.2-.3.4-.4.8-.2.5.1.7.5.8 1.3.2 1.2-.1 8.6-.6 11.8l-.2 16.6c0 16.4 0 16.6-1.5 16.6-.4 0-.7-.2-.8-.4zM403 116c-.8-.8 0-1.9.9-1.2.3.2.4.5.3 1-.2.5-.7.7-1.2.2zm-248.6-9c-.5 0-.8-.3-.9-.6-.1-.8 1.4-1.2 4.4-1.2 1.5 0 2.8 0 3-.2.5-.3 9.6.1 12 .6.7.1 1 1 .4 1.3-.3.2-17.9.3-19 .1zm-17.8-5.3c-1-.6-1-.9-.4-1.3.7-.3 1.6-.4 12.1-.3a80621.5 80621.5 0 0 0 31.7.3h1.2c.5-.3.7-.3 1 0 .7.7.3 1.4-.9 1.4a7078.5 7078.5 0 0 1-44.7 0zm55.8 0c-1.3-.2-1.8-.5-1.6-1.1.2-.4 4.4-1 5-.6.3.2.3 1.4 0 1.6-.4.3-2.3.4-3.4.2zm7.7-.1c-.2-.1-.3-.4-.3-.7 0-.6.8-.8 2.2-.7 1 0 1 .2 1 .7 0 .7 0 .7-1.3.8l-1.6-.1zm154.6-.6c-.6-.6-.4-1 .7-1 .6 0 .9.1 1 .5.1 1-1 1.3-1.7.5zM112 99.3l-.2-1c0-.5-.2-.7-.7-.8-1-.2-1.4-1.2-1.4-3.4 0-1.1.1-1.5.4-1.6.5-.2 1.5 0 1.5.3 0 .1.3.2.7.1.6 0 .8 0 1 .7.3.7.4 1 .1 1.2-.2.3-.3.8-.1 1.7.3 2.8.3 3-.5 3.2-.4 0-.7-.1-.8-.4zm321.5-1.1c-1.4-.1-2-.6-1.7-1.3.1-.5.5-.6 2.3-.7h2.5c.5.2.5 1.8 0 2-.4.2-.7.2-3 0zm-299.5-4.6c-2.4-.1-3-.3-3.2-1-.5-1-.4-1 17-1 24.3.1 23 .1 23.7.5.4.4.5.5.2 1-.2.3-.7.4-3.7.5a174 174 0 0 1-9.4 0 2944.3 2944.3 0 0 1-24.6 0zm208.4-3-.1-.6c0-.3 0-.3.5 0 .3 0 .5.3.4.5-.2.3-.5.3-.8 0zm-220.9-1.2c-.6-.7-.8-.8-1.5-.7-1.6.2-3.1-1.2-2.3-2.1.2-.3.9-.4 3.2-.4 3.7 0 4.2.3 4.8 1.6.6 1.6.5 1.8-.8 2.1-1.9.5-2.6.4-3.4-.5zm52.6.5a138.5 138.5 0 0 0-11.9-.6c-.6-.2-14.4-.5-25-.5-8.4 0-9-.2-9.7-1.3-.3-.4-.3-.5 0-.6.5-.2 29.7 0 34 .2 8 .5 15.2 1 15.7 1.3.6.3.7 1.5.1 1.5l-.7.1h-2.5zm-70.5-11.8c-1-.3-1.2-1-.6-1.7.4-.4.4-.6.1-1l-.3-1c0-.5 1.3-1.4 2-1.4l1.1-.2a305.2 305.2 0 0 0 7.2-.7c2.6-.3 3-.1 2.4 1.2-.3.8-.3.8.5 1.5 1.5 1 1 2.2-1 2.2-.8 0-1.2.1-1.6.5-.3.4-.7.6-1.2.5a70.7 70.7 0 0 0-8.6 0zm8.6-2.5.1-.5c-.1-.8-1.3-1.1-3-.8-1.9.4-3.4.7-4 1-.5.2-.5.2.2.4h6.7zM228 76a.6.6 0 0 1-.3-.5 2 2 0 0 0-.3-.9c-.2-.4-.2-.8 0-1.7.4-1.5.4-4.5 0-5.2-.4-.7-.6-10.1-.8-34 0-12.8 0-13.1.4-13.5.9-.6 1.1 0 1.2 3.3a134 134 0 0 1 .9 18.7c0 8.1.2 17 .4 19.8.2 3.2.3 6.7.1 9.5-.2 4.3-.2 4.5-.7 4.6l-.9-.1zm67.3-15.4c-1.1-.8-1.4-1-3.3-1.9-2-1-3.4-2-5.7-4.2l-3.4-3c-1-.9-1.7-1.8-1.7-2 0-1.1.5-1.2 7-1.3L299 48a417.3 417.3 0 0 1 17.4-1c.5-.2 3-.4 5.3-.5 4.7-.2 5-.1 6.3 1.5.4.4.9.8 1.1.8.6 0 4 1.4 5 2 3.1 2 6 3.2 7.6 3.2 1 0 1.8.8 1.6 1.6-.3.9-2 1.5-4.7 1.7l-2.8.4-4.8.4c-3.1.1-4.5.3-4.9.6-.4.3-1 .3-1.6.2-.6 0-2.7 0-4.6.2l-8.6.6c-5 .4-8.5.8-11.3 1.2-2.3.4-3.7.3-4.6-.2zm8.2-3.2a30.6 30.6 0 0 0 3.8-2.5c1.1-.5 1-.9-.2-1.1a64.3 64.3 0 0 0-14.2-1.6l-4.7-.1 3.4 1.7a73.8 73.8 0 0 1 7.8 4.3c1.4.7 1.9.6 4.1-.7zm12.9-.2 3-.4c2-.1 3.2-.3 4-.7.7-.4 1.2-.4 1.9-.3 1.1.4 4.9.2 5-.2.1-.4-2.4-.6-5.4-.5-1.7.1-2.6 0-3.2-.2a15 15 0 0 0-5.1-.4c-4.2.1-4.4.1-5.8.8-4.7 2.3-4.6 2.4.7 2.2 2.5 0 4.7-.2 4.9-.3zm-2-6c1.7-.8 2.4-1.3 2.7-1.8.2-.5.3-.9.2-1l-5.2.3c-2.9.3-7 .5-9.3.6-2.3.1-5 .3-6 .5l-1.9.3 1.1.3 2.5.5c3 .2 4.6.4 6.6.8 2.4.4 3.6.6 5.7.6 1.2 0 1.8-.2 3.7-1zm15.5.7c0-.2-.9-.7-1.8-1.1-.8-.5-1.9-1-2.2-1.3-1.2-1-2.2-1-3-.2-.5.5-1.2.8-2 1-.8 0-1.7.4-2.2.8l-.7.7 3.7.1h4c.4-.4 1.2-.4 2.3 0 1.3.6 2.1.6 2 0zM28.4 60.3c-2.4-.3-2.8-.5-2.7-1.1 0-.5.3-.6 1.6-.8a51 51 0 0 1 7.2 0l7.7-.1c7-.1 8 0 8 .8 0 .9-.6 1-7.6 1-8.2-.1-8-.1-10.7.1-1.2.1-2.8.2-3.5 0zM19 56.9c-.7-.4-.7-.9 0-1.5.4-.4 1-.4 3.2-.4a328.5 328.5 0 0 1 29.8-.4c.3.1.6.5.7.9.2.8-.5 1.4-1.5 1.2a536.4 536.4 0 0 0-32.2.2zm168.1-3.1c-.3-.3-.3-.6-.1-1 .2-.3.6-.4 2.3-.5a83369.8 83369.8 0 0 1 11.7-.7c0-.1-3.7-.2-8.1-.2h-8.1l-.5-.6a2 2 0 0 1-.5-1.3c.1-.6.2-.7 1-.6 6 .4 30.7.7 38.3.5 1.1 0 1.3 0 1.4.5.1 1-.6 1.2-4.1 1.2-3.4 0-4.3 0-4.3.5 0 .1 1.2.2 2.6.2 2 0 2.8.1 3.3.5 1.5.9.4 2.1-1.4 1.7-1.4-.4-21.6-.4-25 0-4.2.4-8 .3-8.5-.2zm19.1-2.1h-.5l.2.1c.2 0 .4 0 .3-.1zm9-.3c0-.3-.7-.4-3.8-.4-2.9 0-3.8.1-3.8.4 0 .2 1 .3 3.8.3 3.1 0 3.9 0 3.9-.3zm-36 .8c-.3-.5.6-1.4 1.3-1.4.7 0 1.3.8 1 1.4-.1.6-2.2.6-2.4 0zm41.2-5v-1.3l.4-5.7.4-5.8c.2-.8 0-1.2-.4-2-.5-1-.6-1.1-.4-4 .2-1.8.3-5.4.3-8.1 0-5 .1-5.8 1-5.4.3 0 .4.5.4 1 0 1.7.5 1.1.7-.7.2-2 .8-2.8 1.4-2.2.5.5.5 1 .1 4.2a422.3 422.3 0 0 0-1.6 22.8c0 6.3 0 6.2-.7 7-.7.7-1.4.8-1.6.2zm11-11.1c-.3-.5-.3-1 0-1.6.5-1.6.9-5.8 1-12.2v-7c0-.7.9-1.1 1.5-.7.5.4.5.9.6 5.9a36.3 36.3 0 0 1-.7 9.1c-.4 3.4-.8 6-1 6.6-.4.7-1 .7-1.4-.1zM87 36c-.2-.2-.2-1-.1-2 0-1.5 0-1.8-.4-2.1-.3-.3-2-.4-9.7-.5H67c-.8 0-1-1-.3-1.6.5-.4 1-.4 3.5-.3l9.7-.1 6.7-.2.5-.9c.6-.9.6-2.7 0-4-.2-.7-.2-.9 0-1 .3 0 .5-.8.6-2.2.1-2.6.5-5.6 1-7.3.1-.9.2-2.4 0-4.1-.1-3.1.2-4 1.2-4.2 1.4-.2 2 1.3 1.6 3.8l-.4 5c-.3 8.5-.4 10-1 10.8-.6.6-.7 1.1-.7 2.8 0 3.7-.5 7.8-1 8.2-.5.4-1 .4-1.3 0zm165.4 0c-.3-.4-.7-1.5-1-3a130.9 130.9 0 0 1-5.8-31.9c0-1 0-1.1.6-1.2.3 0 .7 0 1 .2l.5 3.8a67.5 67.5 0 0 0 2.4 13.4l.3 1.5v-2.4c0-1.9.2-2.6.5-2.9.6-.6 1.4 0 1.5 1l.9 7.4c.1 1 .2 1.3.7 1.4.4 0 .9.4 1.2.8.5.5.6.7.4 2-.2 1.3-.3 1.4-.9 1.4-.3 0-.7-.2-.9-.5a52.6 52.6 0 0 0-2.4-4c-.2-.8 0 2.1.4 4.2.1 1 .5 2.5.9 3.3a9 9 0 0 1 .7 3.5c0 2.1-.2 2.7-1 2zm53-1.2c-.1-.2-3.5-.3-8.2-.3-7.3 0-8 0-8.3-.4-.2-.3-.2-.6-.1-.7.5-.5 18-1 18.8-.6.2.1.3.5.3 1 0 .6-.2.8-.7 1-.9.3-1.2.3-1.7 0zm3-2.7c-.3-.4-9-.7-23.5-.8-7-.1-7.7-.2-7.7-1.2 0-.6 1.2-.7 6.3-.4l18.4.2c11.6 0 13.4 0 13.7.4.3.6.3 1-.3 1.3-.5.3-6.7.7-6.9.5zM242.2 30l-1-8c-.7-6.5-1.4-12.6-1.7-14-.6-2.6-.7-4.4-.2-5.1 1-1.6 1.6.2 2.1 6.5a227.8 227.8 0 0 0 1 9.5c.2 3.4.3 4 1 7.4.4 2.6.2 4-.5 4-.3 0-.6-.2-.7-.3zm-52-1c-.7-1-.6-1.2.4-2.3l.8-1 2 .2 2.6.2c.5 0 .8-.1 1-.6.5-1 1.5-1 2.1 0 .5.6.5.7-.1 1.8-.8 1.5-1.5 1.8-4.5 1.5-1.7 0-2.3 0-2.7.3-.8.5-1.2.5-1.7-.2zm-149-.8h-4c-4 0-5-.3-4.6-1.1.2-.5 2.5-1 6.6-1.2l3-.2.6.8c.7.9.4 1.6-.7 1.7h-1zm52.3-5.1c-.2-.4-.5-1.6-.6-2.7-.3-1.8-.3-2.4 0-4l.6-2.5c.1-.4.3-.5.8-.5s.6.2.7 4.9c.2 4.7.1 5.4-.7 5.4-.2 0-.5-.3-.8-.6zm44.5.1c-.5-.4 0-2 1.7-5.5 2-4 2.8-5 3.7-4.6.7.4.6 1.2-.1 2.6l-2.2 4.5c-.8 1.8-1.2 2.6-1.6 2.9-.5.3-1.2.4-1.5.1zM33.3 20.8c-.5-.3-1.1-.8-1.4-1.3-.4-.5-.7-.7-1-.6-.2.1-.8.3-1.3.3-.8.1-1.1 0-1.7-.5-1.3-1.4 0-2.5 2-1.7 1 .3 1 .3 1.7-.3 1-.8 1.9-.8 2.8.2l.8.8.4-.6.4-1c0-.5.3-.7 2.2-1 1.2-.1 1.2-.1 1.6.8.5 1.1 0 2.4-1.4 3.6-2.2 2-3.4 2.3-5 1.3zm264.6.4c-.1 0-5.8-.2-12.6-.2-7 0-13.2-.3-14.2-.4-2-.3-3-1-2.7-1.7.1-.4.4-.5 2.2-.3 2.4.2 10 .4 21.4.5 6.8 0 8 .1 8.3.4.4.6.3 1-.2 1.5-.4.4-2 .6-2.2.2zm-245.1-1-.4-1.7c-.8-3-1-6.6-.4-11 .2-1.7.8-2.2 1.6-1.6.5.3.5.8.5 5.4 0 2.7.1 5.8.3 6.9.1 1.4 0 2-.2 2.3-.5.6-1.3.5-1.4-.4zm257.6.2c-1 0-1.4-.2-1.6-.6-.4-.7.3-1 3.9-1.3a182.6 182.6 0 0 0 8.3-1c1.5-.2 2.4.3 2.3 1-.1.9-1.2 1.3-3 1.3a39.1 39.1 0 0 1-9.9.6zm-243-1.6c-2-.4-3.3-3.6-2-5.1.7-1 1.8-.5 2.4 1 .5 1.6 1.3 2 2.5 1 2-1.5 3.1.3 1.3 2-.5.4-1.2.8-1.6.9-1 .2-2.1.3-2.7.2zm221.8-2.7-6.1-.2c-5.6 0-12.1-.5-13.2-.9-.6-.2-.8-.4-.8-.7.1-.5.6-.5 14.3-.2l9.7.1c.7 0 1 .2 1.2.7.6 1.4-.4 1.7-5.1 1.2zm-3-3.6a399.9 399.9 0 0 1-13.4-1c-5.4-.2-6.2-.5-6-1.7 0-.6.1-.7 1.2-.7a51.6 51.6 0 0 1 7.5.8c3 .3 17.4.6 21.9.4l11.5-.4c2.6 0 5-.2 5.4-.4l4.3-.2c3.6 0 3.6 0 3.9.6.4.9.4 1.6 0 1.9-.2 0-2.2.2-4.6.2a10395.7 10395.7 0 0 0-31.6.5zm-101-.8-5.9-.3a21 21 0 0 1-6.5-.7c-.5-.2-1.5-.4-2.3-.4h-10.3c-18.3.5-26 .6-27 .3-.8-.3-1.4-1-1.4-1.6 0-.7 1.9-1.1 4-1 1.3.2 2 .1 2.2 0 .2-.5 1.2-.4 1.7 0 .8.7 3.1.7 4.1 0 .7-.6 1-.6 2.3-.4 2.1.4 25.7.6 34.6.3 8-.3 12.8-.4 15.4-.3 2.9.1 14.2-.2 18.7-.5 3.5-.2 4.9-.3 6 0 2.6.6 3.7 1.8 2.8 3-.4.5-.8.6-2 .6l-7.8-.1a312 312 0 0 0-28.7 1zm-73.4-1.2H110a43 43 0 0 1-8.3-.8c-.2-.1-.5-.4-.5-.7 0-.8.8-1.2 2.2-1.2.8 0 1.5 0 1.7-.2.3-.2 1.3-.2 3-.2 2.4.1 2.8.2 3.2.7.4.6.5.6 1.5.2 1-.3 4.2-.4 4.8 0 .4.2.4 1.3 0 1.7-.3.2-1.3.4-2.5.4a20 20 0 0 0-2.2.2h-1.2zm-15-.4c-.4-.4-.2-1 .3-1.2.5-.2 1 .6.7 1.1-.2.3-.8.4-1 .1z"/>
</svg>
