<?xml version="1.0" encoding="utf-8"?>
<svg xmlns="http://www.w3.org/2000/svg" xmlns:svg="http://www.w3.org/2000/svg" version="1.1" viewBox="0 0 165 136">
  <title>Mr. Bouncer has returned to his chair, Peter Rabbit is holding his pipe, and Benjamin Bunny and Flopsy are cuddling the baby rabbits.</title>
  <path d="M16.8 135.6c-.1 0-2.3-.2-4.9-.2-4.5 0-7.4-.3-8.8-.8-.7-.3-.7-.1-.8-4.7l-.5-6.6c-.2-2.3-.3-5.5-.2-8.5v-9.6C.5 87.4.5 84.3 1 83.6c.3-.5 0-24.3-.3-27.6-.4-3.7-.5-30-.1-34.3.1-2.1.1-3.3-.1-4.6-.3-1.2-.4-3.3-.3-6.5.1-7 .1-7-.1-8.3-.2-1-.1-1 .4-1.2l19-.5C29.7.6 39.2.3 40.7.3 46.4 0 54.1-.1 63.1.2c21 .5 50.2.7 60.6.3a256.8 256.8 0 0 1 30.1.3c6.1 0 7.1.2 8.5 1.5l1 1v5.9c0 3.2-.3 6.3-.4 6.7a46 46 0 0 0 .2 11.3 188.7 188.7 0 0 0 0 22.8l.2 11.1a593.2 593.2 0 0 0 .9 28.9c.2 3.5.2 2.7-.2 9.6-.2 5 0 16 .4 17.5 0 .3 0 1.9-.3 3.6-.5 4-.5 5.5 0 6.2.6 1 .8 3.5.4 4.4-1 2.4-1 2.3-2.8 2.9-1.7.5-2.6.5-11.5.6h-14.5c-16.8 0-33.2 0-38.1.2-3.1.2-16.2.4-29 .5-25.5.2-25.3.2-37.7.1a344 344 0 0 0-14.1 0zm93-3.2a42 42 0 0 0-6.6-.4v.4c.2.3.9.3 2.3.2l4.4-.2zm-49.4-.5h.7c.4.2 8 .1 11.3-.2l5-.2c1.8-.1 3.9-.4 4.5-.6.6-.2 2.3-.4 3.8-.5 3-.2 3.5-.4 2.8-1.1-.7-.8-.5-2.2.4-2.6a74 74 0 0 1 25.2-2.8c4.6.4 5.3.5 5.7 1 .2.2.5.3.8.2.5-.1.5-.4.5-2.5 0-5.1.7-6 5.9-6.5 2.3-.3 8.9 0 10.4.4 1.2.4 2.5 1.7 2.5 2.5 0 .2.1.5.3.5.5 0 4.8-1.9 8.3-3.6 8-4 9.7-4.4 10.8-3 .4.6.5.9.3 1.7-.3 1.1-.2 1-3.8 2.7a663.3 663.3 0 0 0-11.8 5.3l-3.5 1.7v1c0 1 0 1 .6 1 .5 0 .8-.2 1-.7.3-.6.8-1 1.8-1.3 2-.6 6-.4 7.4.4.2.2.6.1 1-.1.4-.4 1-.4 2.5-.3 2.4.1 4 1 5 2.4.3.5.6 1 .8 1v-3.3c0-1.8-.2-4.2-.1-5.3 0-1.2 0-8.4.2-16l.1-14-.7-.2c-.6-.2-1-.2-1.9.2l-3 .6c-2 .2-2.1.2-2.5 1-.4 1-.9 1.5-1.5 1.5a88 88 0 0 1-5 1.5L142 95c-1.6.7-2.1.8-2.9.6l-2.5-.2-7.7-.2c-6.9-.2-7-.2-5.4 1.4 1.5 1.5.8 2.2-2.1 2.5-3.3.3-5 .7-5.4 1.4-.4.6-.6.6-1.9.5-1.4-.2-1.4-.2-1.4.4 0 .4.2.9.5 1.2.3.2.5.6.5.8 0 .4-1.4.7-2 .3-1-.4-3-1-4-1a29.7 29.7 0 0 0-10.8-1.6l-2.5.8c-1.5.5-2.4 1-2.7 1.4-.5.7-.6.7-3 .7a11 11 0 0 1-5.1-1l-3-1.1c-.3 0-1-.4-1.6-.9-.6-.5-1.3-1-1.6-1-.2-.1-.4-.5-.4-.7 0-.4-.2-.6-.5-.6-.2 0-.5-.3-.6-.6-.2-.6-.5-.7-1.3-.8l-2.3-.1c-.4 0-.5-1.1-.1-1.1l.3-.2c0-.1-1.4-.2-3.1-.1-3.6 0-4.7-.2-4.6-1.3.1-.7.1-.7 2.8-.8 1.7-.1 2.4-.2 2-.4l-.8-.1-1.8-.1c-1.5-.2-1.7-.3-1.7-.8s.1-.5 2.1-.3c2.2.2 3.7 0 3.7-.5l-.8-.2c-1.7.2-2.2-.9-.6-1.1 1.7-.3 2.5-.2 2.7.2.2.6.6.4.5-.2-.3-1 .2-3 .7-3 .2 0 .5-.1.7-.3.1-.1.3-1.9.4-4 .2-4.3.3-4.8.8-4.8.4 0 .5.3.3 3.3v3.3c.3 0 .6-2.5.6-5a54.2 54.2 0 0 0 0-14.4c-.2-.3-.2-1 0-2.2a276.5 276.5 0 0 1 2.2-14.5c-.2.2-.5.9-.6 1.6-.6 3.5-1.6 5.2-3.2 5.5l-.8.2.2 1.5.2 2.2c.1 1.2.7 2.9 1 2.9a54 54 0 0 1-.2 13.4c-.3 0-.4-.5-.4-3.7 0-2.5 0-4-.3-4-.3-.2-.2-1.2.2-2.2.2-.5.2-.5-.3 0-.4.3-.6.8-.6 1.3 0 .4-.2.7-.4.7s-.7.4-1.1.8a9 9 0 0 1-2.7 1.9c-.5 0-1 1-1.2 2.3-.2 1-.2 1.1.5 1.1.6 0 .6 0 .6-1.2 0-1.1 0-1.3.6-1.6.8-.5 3.1-.5 3.2 0a8 8 0 0 1-.5 2.9c-.4 1.2-.5 1.5-1 1.5-.4 0-.7-.1-.8-.3-.2-.3-2.8-.3-3.3 0-.3.2-.4 1-.5 3.4 0 1.7 0 3.4-.2 3.7l.1 1c.4.7.9 3.4.9 4.8 0 1-.1 1.2-.6 1.2-.4 0-.5-.2-.5-1.6 0-1.3-.4-3.3-.5-2.5L65.3 87c-1 1.1-1 1.3-.7 1.6.3.2.5.8.6 1.4.2 1 .1 1.1-.4 1.1s-.8-.6-.8-1.7v-.6c-.1 0-.9.6-1.7 1.4-1.6 1.5-1.7 2-1.1 3.3l1 2c.8 1.6 2.4 3.5 3.3 3.7 1.6.4 2.1 1.6 1.1 2.5-1.2 1.1-8 1-10.1 0a22.1 22.1 0 0 0-6.5-1c-.2 0-.3-.3-.3-.6.2-.7 1.5-1.2 3.2-1.3.9 0 1.3-.1 1.5-.5.2-.3.5-.5.7-.5.7 0 .5-.8-.6-2.1a42 42 0 0 0-1.8-2.3c-.3-.5-1.8-.8-2.3-.5-.5.3-1.5 1.7-2.2 3-.8 1.3-1 3.4-.5 4.4.2.5.5 1.3.6 2 .1 1 0 1.2-.4 1.7-.6.5-1.1.4-4.7-.6-.5-.1-.6 0-1 2.1-.5 2.9-1 4-3 5.7-.7.8-1.4 1.6-1.4 1.8 0 .4 2.7 2.9 4.2 3.9.7.4 1.5.7 2 .7 1.2 0 1.8 1 1.2 2.5-.6 1.7-5 2.4-8.8 1.4a35.7 35.7 0 0 0-8-1c-.5-.1-.8 0-1.2.7-.3.5-.9 1-1.2 1.1-1.5.6-3.6.9-4.7.6l-3.4-.4c-2-.2-2.4-.3-2.7-.8-.4-.5-.8-.6-2.2-.7-1.8-.2-2.6-.6-2-1 .3-.2 1-.3 1.5-.3 2 0 .7-.3-1.5-.4-3.3 0-3.4 0-3.4-.5 0-.2.4-.4 1-.5.8 0 5.5.2 7.3.5l1 .1-.2-1.8a42 42 0 0 0-.5-3.3 5 5 0 0 1 0-2.5c.2-.7.1-1-.6-1.8-.8-1-1-1.4-2.5-5-.4-1.2-1-2.2-1-2.3-.3-.1-.1-1.4.5-3.6.1-.5 0-.6-.9-.6-1.2 0-1.5.2-1.8.9-.3.8-3.6.5-3.6-.3 0-.2.5-.5 1.1-.8 1-.4 1-.4.6-.7-.4-.3-.4-.4 0-.8.1-.3.5-.6.8-.7.3-.1 0-.1-.8 0-1.2 0-1.4 0-1.6-.3-.2-.6-.2-.6 1.9-1 3-.5 4.4-.8 4.4-1 0-.6-1-.6-3.8-.2-2.2.4-3 .4-3.2.2-.5-.6.5-1 3.1-1.5l2.5-.6H9.8c-1.2 0-1.5 0-1.6-.3 0-.5 1-1 2-1s1-.1.6-3l-.4-2.2-1.2.2c-2.4.3-2.5-.9 0-1.3l1.5-.3V82c.1-.7 0-2.3-.2-3.4-.6-3.3-.2-6.5 1.5-10.2.4-.9.7-2 .7-2.7 0-1.3.4-1.9.5-.7.2 1 .6 1 1 .1l.5-.9s-.2-.3-.6-.4c-.3-.2-.6-.5-.6-.7 0-.2-.5-.7-1-1.2l-1-1 .2-2.2c0-1.2.2-3 .4-3.8l.3-1.6-1-.9c-1.2-1-2-2.6-2.3-4.4-.2-1-.1-1.4.4-2.1.8-1.2 1.2-1.2 2.3 0 .7.6 1.2.9 2.2 1 1.8.2 2.2.5 3 1.7.6.9.7 1 2 .9l1.3-.2-.5-1.4c-.7-1.3-1.2-1.8-3-2.3-1-.3-1.3-1.2-.3-1.2.4 0 1.2.2 1.8.5 1.4.7 1.7.5 1.2-1.3-.4-1.6-.1-3.5.7-4.9l1-2.4c.2-1.1.2-1.5-.3-3-.4-1-.6-2.2-.6-3.3 0-1.6.2-2.1 1-3.8.8-1.5 1.2-2 2-2.6 1.4-.8 1.8-.8 2.5 0 .3.3.5 1 .5 3.1.2 3.4.3 4.5.7 4.3.6-.4 1.5-2.7 1.6-4.5.3-2.4.4-2.7 1-2.7.7 0 1 .3 2.2 2.2 1.5 2.6 1.6 3.3 1.4 7-.2 3.2-.1 3.5.3 4 .6.5 1.2 2.4 1 3-.1.3 0 1 .2 1.5.6 1.5.6 4.3 0 5.6-.4.5-.6 1.1-.6 1.3 0 .1.7.7 1.6 1.3.9.6 1.9 1.6 2.3 2.2.6.9.7 1 .9.5l.2-2c0-1.5.6-4 1.3-5.5.2-.5 1-1.5 1.8-2.3l1.9-2.1c.6-.8 1.6-.7 2.4.2.5.5.6.6 1.4.3 2.2-.8 3.4.7 2.9 3.6-.2.9-.3 2.1-.3 2.8 0 .6-.1 1.6-.3 2.2-.3 1.4-.1 1.8 1.2 2.3 1.4.6 2 .6 2.6 0a7 7 0 0 1 1.5-1l1.4-.9 2-1.9c1-.8 1.6-1.6 1.6-1.7l.4-.7c.3-.1.4-.6.4-1 0-.5.2-1 .5-1.3.3-.2.9-1.2 1.3-2.1.7-1.3.9-2 .9-3 0-1.7.6-4 1.4-5.3a17 17 0 0 1 1.9-2.3 6.3 6.3 0 0 1 3.4-2L73 28l.5.5c.4.3.6.7.6 1 0 .4.4.3 1.7-.3 1.2-.6 2.2-.5 3.2.4.6.6.7 1 .7 2 0 1.7-1 4.3-2.7 6.9-.7 1-1.3 2-1.3 2.2 0 .2.7 1 1.5 1.9.8 1 1.5 2 1.6 2.4.2 1.2.5 1.1.7 0 .1-.8 0-1.2-.2-1.5-.6-.6-.5-1.2.4-4.8a64.1 64.1 0 0 0 1.5-5.4l1-2.3c.8-2.1 1-2.5 1.5-2 .2.1-.1 1.3-1 3.7-.8 1.9-1.7 4.5-2 5.9-.6 2.1-.6 2.5-.3 2.9.3.3.4.8.2 2.3-.1 1.6-.1 1.8.2 1.7.3-.1.5-.7.6-1.7 0-1 .9-3.8 1.9-6.8 2.4-7 2.7-8 3-8 .5 0 .3 1-1 5a47.4 47.4 0 0 0-2.9 9.1c-.1 1.4-.1 1.4.6 1.5.5.1 1.4 0 2.5-.5 1.3-.4 2.9-.7 6-1l4.3-.5c0-.1-.1-.7-.4-1.3-1.3-2.5-1.4-4.3-.2-5 .7-.5 1.4-.3 2.6.7l2.3 1c.8.1 2 .6 2.6 1 1.2 1 1.5.9 1.7-.2.2-1 4.1-5.4 5-5.7.9-.3 1.8.3 2.4 1.6.5.9.5 1.5.4 5.5l-.3 4.9c0 .3.2.5 1.7 1.2.7.3 1.3 1 2 2.2 1.1 1.6 1.2 1.8 1.3 4 .2 2.3.2 2.4.8 2.4.3 0 .9-.1 1.3-.3.6-.2.6-.4.6-1.7 0-.8.2-1.7.3-2.1.5-1.2.8-.5.6 1.6l-.1 2h.7c1 .1 1.2.8.2.8s-1 0-1.2 1.6c-.3 1.4-.7 1.3-.7-.2v-1.2l-.9.2c-1.1.2-1.4.5-1.8 1.6-.3 1.4-.3 1.7.2 1.7.3 0 .4-.3.3-.9 0-.9.5-1.3.7-.5.3.8.2 2.5-.1 3.9-.2.7-.2 2-.1 3 0 1.3 0 1.6-.3 1.6-.6 0-.7-.9-.5-3.5.2-2 .2-2.4-.1-2.5-.5-.2-.8.3-1.3 2.5-.4 1.9-.4 2 0 3 .6 1.3 1.1 1.7 1.3 1.2.1-.2.4-.4.7-.4.9 0 1.3-.7 1.5-2.2.1-1 .3-1.5.5-1.5.1.1.3.3.3.5.3 2.2.4 2.4 1.1 2.4.4 0 .8 0 1-.2l-.6-1.6a8 8 0 0 1-.7-2.4c0-.9.1-1 1-1.5 1.1-.6 1.1-.7 1.4-6 .1-2.5.2-3.4.5-3.4.4 0 .7.7.5 1-.2.4-.2 7 0 7.1.1.2 1.4-.2 4.2-1 2.8-1 4.7-.8 5.2.4l.6 1c.3.1.6.8.8 1.4l.2 1.2h5.4l1.6-.1v-3c0-1.5-.3-3.5-.4-4.3-.3-1.3-.3-1.5.2-1.8.3-.3.5-.6.4-.8 0-.1.1-.4.4-.6.5-.4.5-.5-.6-4.2-1.2-4-2-7.7-2-9.1 0-.9.7-1.6 1.3-1.3l1.3.3c.7 0 .9.3 1 .8l.5 1.9 1 3.8c.7 3.5 1.1 5.1 2.5 9.7a56 56 0 0 1 1.2 4.2c0 .2.3 1.3.8 2.5 1 2.4 1.3 2 .6-.6l-.4-2.5-.4-3-.5-4.5c-.1-2.1-.1-2.5.2-2.5.6 0 .9.8 1 3.2.2 1.8.6 3.7 1.3 6.2.1.7.2.8.4.3.1-.6-.5-14.8-1-19.9-.2-3-.1-4.5.4-5.4.3-.7 1.6-.6 2.4.1.8.8.9 1.8.7 7.3 0 2.1 0 2.8.4 3.1.3.4.4 1.7.6 6.8.1 5.8.2 6.4.6 6.7.3.2.8 1 1 1.6A21 21 0 0 0 160 62c.3 0 .2-40.8-.1-41.3-.2-.2-.3.7-.4 2.3 0 1.8-.2 2.7-.5 2.7-.7.3-.2-12 .5-13.5.2-.2.3-2.1.3-4.2V4.4l-.7-.9-.8-.8H151l-7.5-.3c-.2-.2-2.9-.2-20.5 0l-22.7.1c-28.4 0-42.7 0-46.6.3-2.5.2-13.7.3-25.7.3L7 3.2l-1.3.6-1.5.7-.3 8.6a1533 1533 0 0 1 0 22.3c.1 8 .2 11 .5 11.5a268.6 268.6 0 0 0 .3 25.7c.2 4.6.2 6.8 0 7.1-.3.7-.3 8.5 0 17.5.2 5.2.2 7 0 7.7-.3.8-.3.9.4 1.4.8.6 1 1.5.1 1.7-.5.1-.5.3-.5 7.8a114.6 114.6 0 0 0 .6 11.6c0 4.5-.3 4.3 4 4.2 7.5 0 35 .3 37.6.5 3.4.3 13.1.1 13.5-.2zM97 119.7a27 27 0 0 0-3.2-.2c-1.3 0-2-.2-2.3-.5-.4-.3-1.2-.4-7-.2-5 .2-6.6.1-6.8-.1v-.5c.2-.2 4.3-.4 11.6-.7 4-.2 4.5-.2 5.3.3 1.6 1 5.2 1 12.6 0 3-.4 5.3-1.3 5.8-2.3.4-.6 1-.7 1.2-.2.1.4-.5 1.8-1 2-1 .7-4 1.4-7.6 1.9-5.5.7-7 .8-8.6.5zm-32.8-.9-4.8-.2c-2.8 0-3 0-3-.4.2-.6 1-.8 4.8-1 2.8-.2 3-.2 3 .4.2.5.3.5 6.5.5 5.2 0 6.4.1 6.4.4 0 .2-.4.4-.9.5-1.3.3-9.9.2-12-.2zm-51.8-.8-3-.3c-1.8-.2-2.3-.3-2.3-.6 0-.4.4-.4 2.2-.4 3.7.1 5 .3 5 .9 0 .4-1 .6-2 .4zM9 115.5c-.2-.1-.3-.4-.2-.6.2-.2 1-.2 3.1-.1 3 .1 3.3.2 3 .7-.2.3-5.4.3-6 0zm39.8-2c-.9-.9-.3-1.1 3-1.3l4.6-.3c1.2-.1 1.5-.1 1.5.2 0 .6-.4.7-3.5.9-1.5 0-2.8.3-3 .4a4 4 0 0 1-1.2.4c-.7 0-1 0-1.4-.3zm9.7-1.2c0-.2.5-.4 1-.5.6 0 .8 0 .7.3 0 .2-.5.4-1 .4-.6 0-.8 0-.7-.2zm3.6-.3c0-.2.3-.3 1.5-.3.2 0 .4 0 .5.2 0 .1-.4.3-1 .3-.5 0-1 0-1-.2zm-1-2v-.5l4.1-.6c2.2-.3 4.6-.7 5.4-1 1.4-.4 2.6-.6 6.8-1.2 2.3-.3 3-.1 2.6.7 0 .3-.5.4-1.3.4-1.3 0-5.2.6-8.5 1.3a61.4 61.4 0 0 1-9 1zm85.2-4.5c0-.4.2-.6 1.3-.7 1.6-.2 4.4 0 4.7.4.3.5-.7.8-3.3.8-2.5 0-2.7 0-2.7-.5zm5.7-2.3c-.2-.6.4-.8 2.6-.7 2 0 2.7.3 2.4.9-.1 0-1.2.2-2.5.2-1.8 0-2.4-.1-2.5-.4zm-141.3-3v-.6c.4-.4 1.2 0 1.1.3-.1.5-.9.6-1.1.2zm63.9-.9c0-.1.1-.2.3-.2.1 0 .2.1 0 .2 0 .2-.1.3-.2.3l-.1-.3zM61.7 92a.5.5 0 0 1 .1-.5c.2-.2.3-.2.5 0l-.1.6c-.2.2-.3.1-.5 0zM6.1 88.6c-.2-.6.2-.8 1.4-.9 1.6 0 1.7 0 1.7.4 0 .5-.3.6-1.7.8-1 .2-1.2.1-1.4-.3zM68.7 83c0-4.7.1-5.5.4-5.5.4 0 .4.5.4 2.7 0 1.6.1 2.8.3 2.9v2.8c0 2.4-.1 2.7-.6 2.7-.4 0-.5-.3-.5-5.6zm2.6 5.4c-.3-.2-.2-3.5 0-5.7a148 148 0 0 0 .9-5.2c.4-.7.7.1.5 1.5l-.4 5.4c-.2 4-.3 4.7-1 4zM7 86.7c-.2 0-.3-.3-.3-.6 0-.4.2-.5 1.4-.5 1.5 0 1.8.2 1.2.7-.5.4-1.9.6-2.3.4zM73.1 84l.3-5.9c.1-4.5.3-5.7.7-5.5.2.1.2 2 .1 6 0 5.7-.3 7.4-1 7.4-.2 0-.2-.6-.1-2zM7.6 81c0-1.7.7-2 1-.4.2 1.5.1 1.6-.4 1.6s-.6-.1-.6-1.3zm-2-1c0-.5.4-4 .7-5.4.2-1 .4-1.3.7-1.3.3 0 .4.1.3.5a42 42 0 0 0-.6 3.4 23 23 0 0 1-.5 3c-.3.3-.7.3-.7-.1zm3.9-10.3c0-.8.6-3.2.8-3.5.4-.5.8-.2.5.4a12 12 0 0 0-.5 2c-.3 1.3-.8 2-.8 1zm-1.6-.7c0-.8 1.5-4.5 1.7-4.5.4 0 .3.5-.6 2.9-.6 1.7-1.1 2.4-1 1.6zm111.1-8c0-.3.1-.5.3-.4.2 0 .3.2.3.3 0 .2-.1.3-.3.4-.2 0-.3-.1-.3-.4zm18.4-2.4a49 49 0 0 1-.8-10.7c-.1-6.2 0-7.2.3-7.2l.5.2.3 6.8a78 78 0 0 0 .9 11c0 .4-1 .3-1.2 0zM126 57c-.3-.5.2-3.4.6-3.4.4 0 .6.6.6 1.8l-.1 1.5c-.2.4-.8.5-1 .1zm8.3-1.2c-.1-.1-.2-3.3-.2-7.2 0-6.7.1-7.7.8-7 .1.1.3 3.4.3 7.3 0 6.3 0 7-.3 7l-.6-.1zm5.7-.4c-.4-.9-.9-5.7-.9-8 0-1.6.1-2 .4-2 .3 0 .4.5.5 2l.5 4.6c.4 3.4.4 3.8 0 3.9-.2 0-.4-.2-.5-.5zm-9.2-3.5-.2-4-.4-5.1c-.1-1.4 0-1.7.3-1.7.2 0 .5.1.6.3.2.4 1 8.9.8 10 0 1.2-.9 1.5-1 .5zm-4.3-.6c-.2-.7-.2-5.7 0-8.1.2-1.7.3-2 .7-2 .4 0 .4.5.4 5.2 0 5 0 5.3-.5 5.3a.8.8 0 0 1-.6-.4zm-73-2.4c-.2-.3-.1-2 .2-3.6a193 193 0 0 1 2.8-11.6A41 41 0 0 1 60 25c.4 0 .4.6-.2 2.2A96 96 0 0 0 55 42.6c-.5 2.2-.6 3.6-.5 4.5.1 1.5-.4 2.4-1 1.8zm3.3-.8c-.3-.3-.2-2.4.2-4.1l1-4.8a34 34 0 0 1 3.4-10c.3 0 .2.6-.3 2.4-2 6-3.4 11.7-3.6 14.7-.2 1.9-.3 2.2-.7 1.8zM52 42.5c0-3 3-15 4-15.5.5-.4.5.2-.2 2.5a111 111 0 0 0-2.7 11.2c-.5 2.7-1.1 3.8-1.1 1.8zm7.5.7c-.5-.7.8-5.8 3-11.5a39 39 0 0 1 1.7-4.2c.5-.5.5.2-.1 2L62.6 34a32.2 32.2 0 0 0-2 7.6c-.2 1.6-.6 2.3-1 1.6zm24.5-.4 1.2-4.1 1.6-5.7c.6-2.4 1.4-4.2 1.7-3.8.2.1 0 1-.5 2.8l-1.6 5.7c-1.3 5.2-1.3 5.3-1.9 5.3-.3 0-.5 0-.5-.2zm3.9-1c-.4-.4-.2-1.6.9-6 .6-2.6 1.3-4.7 1.6-5l.5-.6v.6l-.8 3.4c-.5 1.6-1 3.9-1.2 5.2-.3 2.2-.6 2.8-1 2.4zm2.6-.3c-.3-.3-.2-2.4.4-5.5.5-3.2 1-4.4 1.3-4 .2.2 0 1.2-.2 2.4l-.6 4.6c-.1 2.3-.4 3-.9 2.5zm-51.4-2.3c-.1-.4 1-4.3 1.5-4.8h.5c.2 0 .1.5-.2 1.1l-.7 2.4c-.3 1.5-.8 2-1 1.3zm9.5-1.8c.2-2 1-4.8 1.9-7.5.3-1 .6-2 .5-2.2 0-.2.5-1.6 1.2-3a9.4 9.4 0 0 0 1.1-3l-5.9.2c-8.4.4-9 .4-9-.2 0-.5.2-.6 3-.7l3.8-.5c1-.3-1.5-.2-15.4.5l-14.3.4c-3.9 0-4.4 0-4.5-.4 0-.4.4-.5 3.5-.6 13.5-.6 17.6-.8 18.7-1 .7-.1-1-.2-4.6-.1-7.7.1-12.2-.1-12.2-.7a219.8 219.8 0 0 1 21.4-.4l-.1.6c-.3.3 1.3.4 11.5.4 12.4 0 13.2 0 13.4 1 .2.5 1.5.7 7 1 2.9 0 3 0 1.3-.2-3.5-.5-5.3-1-5.4-1.2-.2-.6 1.2-.7 5-.2 10.7 1.1 16.1 2.4 16.1 3.8 0 1-1.3 1.4-1.9.6-.2-.3-.7-.7-1.1-.9a41 41 0 0 0-6.3-1.3c-1 0 2.8 1.3 4 1.3 1 0 1.9.5 1.9 1.1 0 1 .5 1.6 1.4 1.6l2.6.4c2.3.5 2.4.5 2.2-.1-.2-.8.7-1.2 1.4-.7.4.3.4.4.1.9-.1.3-.2.5 0 .5s2.6 1.6 3 2l1.3 1a7 7 0 0 1 1.8 2c.4.9 1.3 2 1.9 2.5 1 1 1.1 1.5.1 1.5-.8 0-2-1-2.5-2.2-.8-1.6-3.5-4-6.3-5.5l-4.6-.4c-2.3 0-4.3-.1-4.4-.2-.2 0-.6-.6-.9-1.2-1.3-2.9-2.9-3.3-14.4-4l-8-.6c-2.6-.2-3 0-3.8 1.3l-.5 1.7-.8 2.3a50.3 50.3 0 0 0-3.4 11.5c0 .2-.2.4-.4.5-.5 0-.5 0-.4-1.6zM82 24.9c-.1-.3-.3-.4-.4-.4-.2 0-.2.2 0 .7.3.7.7.4.4-.3zm-5.7-3.3a1 1 0 0 0-.6 0c-.2.1 0 .2.3.2.4 0 .5 0 .3-.2zm-1.8-.2a1 1 0 0 0-.7 0l.3.1c.4 0 .6 0 .4-.1zM36 19.3h-1 1zm8.1 18.5a39 39 0 0 1 4.3-11.7c.6-1 1.2-1.4 1.2-.8l-1.4 3.4a42 42 0 0 0-3.1 9c0 .6-.7.7-1 .1zm89-.8c-1.4-.4-1.5-.6-1.7-2-.1-1.2-.3-1.4-1.3-2.2-1.1-.8-1.4-1-2.4-.8l-1.2-.1c-.1-.2-.4-.3-.7-.3-.3 0-.5-.2-.6-.5-.1-.4-.3-.5-.5-.4-.2.1-.8.3-1.3.3l-1.6.1c-.5.1-.6 0-.8-.9-.3-1.1-.6-1.3-.9-.3-.2.8-1.2 1-1.4.1 0-.4-.3-.5-.7-.3-.5 0-.8 0-1-.4-.4-.4-.4-.4-.7.1-.2.5-.4.5-1.2.3-.5-.2-1-.5-1-.9-.2-.5-.2-.4-.6.2-.5 1-1.1 1-1.3.1l-.2-.7-.5.6-.5.6-.5-.6c-.5-.7-1-.7-1.4 0-.4.7-.7.6-1-.2-.3-.8-.7-.8-1 0 0 .3-.3.6-.4.7-.4.3-1-.2-1-.8 0-.5-.2-.5-1.7-.5-2 0-2.7.2-2.7.9a24 24 0 0 1-.9 5c-.5.5-1 0-1-1 0-.8-.2-1.2-.6-1.4-.5-.4-.6-.6-.4-2 0-1.1 0-1.5-.2-1.5s-.5.2-.5.4c-.3.5-1 .5-1.3-.2-.2-.4-.5-.5-1.4-.5-1.2 0-1.5-.2-1.5-1.4 0-.5-.2-.7-1-1-.6-.3-1.2-.6-1.3-.9 0-.2.3-1.3.8-2.3.6-1.1 1-2.2 1-2.5l.3-1c.4-.4.7-.5 2.5-.4 1.7.1 2.2 0 2.3-.2l.9-.7a44 44 0 0 1 8.6-.3c.3.1.6.5.7.8.6 1.5 3.2.3 4-1.8.4-.8.7-1 1.5-1.2.7-.2 1.3-.6 1.5-1 .4-.6.6-.7 2.1-.6 1.5 0 1.7.2 1.7.7 0 .4.4.6 1 .8 1.2.4 2 1.5 2 2.6 0 1 .5 1.4.7.4.2-1.2.3-1.4.7-1.3.2 0 .3.5.3 1 0 .7-.1 1-.6 1.2-.8.3-.7.6 0 .6 1 0 1.8-1 1.8-2.1 0-.8.1-1 1-1.4 1-.4 1.1-.5 1.1-1.5 0-1.3.5-1.7 2.1-1.5a7 7 0 0 1 1.6.3c.2.1.3.8.3 1.5 0 1.2 0 1.3.7 1.5.9.2 1.4 1 1.4 2.2 0 1.2.4 1.5 1.6 1.4.9-.1 1.2 0 1.7.5.7.6.7.7.5 3 0 1.3-.2 2.6-.3 2.8 0 .3.1.5.5.6.3.1.7.5.9 1 .4.6.4.7 0 1.1-.3.3-.8.5-1.2.6-.5.1-.8.4-.9.7-.4 1.8-.4 3.3-.1 4.6.4 2 .2 2.7-1 2.7l-1.8-.4zm1-2-.3-2c-.1-.8-.3-1.3-.6-1.3-.2 0-.9-.6-1.5-1.5a9.5 9.5 0 0 0-1.6-1.7c-.3-.2-1.4-.3-2.6-.4-1.7-.2-2-.1-1.4.1l1 .5 1.5.8c.6.3 1.8 1.3 2.7 2.2 1.4 1.4 1.6 1.8 1.6 2.6 0 .7.2 1 .5 1.3.8.4 1 .3.8-.6zm-33.8-6.8c-.6-.1-.8.1-.6.5.2.2.3.2.6 0 .4-.4.4-.4 0-.5zm34.8.4.8-.6h-1.6c-1.1 0-1.4 0-.9.2.3.1.6.3.6.5 0 .4.2.3 1-.1zm-14.7-3.4c.2-1.6.1-2.4-.3-5.1-.1-.7 0-1.2.1-1.3.2-.1.3-.6.3-1.2 0-.9 0-1-1.1-1.4-.8-.3-1.2-.6-1.2-1s-.3-.5-.8-.5-.6.1-.6.8c0 .7 0 .8-1.3.8-1.2 0-1.3 0-1.6.8-.4 1.2-.4 1.3.7 1.7l1 .4-.2 1.5a2186.5 2186.5 0 0 1-.8 4.7c-.1.2 0 .4.5.5.3 0 .6.3.6.6s.5.3 2.3.3h2.2zm-1.7-.7c-.3-.6-.4-6.6 0-6.8.5-.3.7 1 .8 4 0 2.1 0 3.2-.3 3.2-.1 0-.4 0-.5-.4zm-1.4-.2-.1-2.5c0-2.3.3-3.1.7-1.8.2.8.3 3.5 0 4-.1.5-.5.6-.6.3zm8.2 2.1c.7 0 1-.3 1-.5 0-.3-.1-.4-.6-.3h-.8v-1.9l-.1-2 .8.3c.7.1.8 0 .8-.4 0-.6-1-.8-3.2-.8h-1.1l.1 2.4c.3 3.4.4 3.7 1.3 3.5l1.8-.3zm-27.8-.6c.6-.7.6-1 .4-3.3-.2-2.4-.2-2.5-.8-2.7-.7-.2-1-.2-2.1 0-.6.2-.6.3-.6 2.3 0 2 .3 3.4.8 4.2.5.5 1.7.3 2.3-.5zm8.3.6c.3-.3-.4-1.4-1-1.5-.4 0-.5-.2-.5-1.5 0-1.1 0-1.5.4-1.5.3 0 .5.1.6.4l.2-1.6c0-2.3 0-2.5-.4-2.4l-2.7.1c-3.3 0-3.4.1-3.2 3.9 0 1.6.3 3.1.5 3.6.4.7.4.7 3.2.7 1.5 0 2.8 0 3-.2zM135 26c.1-.4.3-1.4.3-2.3 0-1 .1-1.8.3-2 .4-.4 0-.8-1-.7-.5.2-.7.4-.8 1.2l-.1 1.9c.1 1.3-.2 2.1-1 2-.4 0-.5-.3-.7-1.5V22c0-.7 0-1.1-.3-1.5-.3-.3-.4-.8-.4-1.7.1-1.2 0-1.3-.5-1.5-.6-.1-.7-.3-.8-1.6 0-1.5-.1-1.6-.7-1.6-.8 0-1.1.7-.7 1.4.6 1 .4 1.2-.9 1.4-.7 0-1.3.2-1.3.2v1.5c.1 1.2.3 1.4 1 1.8 1 .5 1.3 1.3 1.4 3.6l.2 2.3s1.4.2 2.9.2c2.7 0 2.7 0 3-.6zm-5.1-1.2.1-1.6c.5-.9 1 0 1 1.4 0 1 0 1.3-.5 1.3-.3 0-.5-.3-.6-1.1zm-16.5.7c.3-.7 1-4.4 1-5 0-.3-.4-.4-2-.5l-2.7.1-1 .3.2 2c0 1.7.2 2 .8 2.6.4.4.7.8.7 1l1.4.1c1.2 0 1.5-.1 1.6-.6zm-2.5-1.2-.4-.7c-.3-.2-.5-.6-.5-.7l-.3-.8c-.2-.6-.2-.6 1.3-.7 1.4-.1 2 .3 1 .6-.3.1-.6.3-.6.5 0 .1.3.2.5.1.7-.2 1.4.3 1 .7-.2.2-.4.5-.4.8 0 .3-.2.5-.8.5-.4 0-.8-.1-.8-.3zm-3.3-3.6c0-1-.1-1.5-.5-1.9-.5-.4-.5-.4-.3 0l.2 2.5c0 1.7 0 2 .2 1.4.2-.3.3-1.3.4-2zm47.4 5.7c-.3-.4.3-10.1.6-10.4.7-.7.8.4.5 5.1l-.3 5.3c-.2.3-.6.4-.8 0zm-4.3-4.4c.2-2.9.3-3 .9-3 .3 0 .4.3.2 2.6-.2 2.8-.2 3-.8 3-.4 0-.4-.4-.3-2.6zm-74-6.6c-1.2-.1-1.2-.7 0-1 1.2-.1 2 0 1.9.6-.1.5-.4.5-1.9.4zm-15-.8c0-.2.1-.4.3-.4l.2.4c0 .3 0 .4-.2.4s-.3-.1-.3-.4zm-32.5-.1c.2-.5 7-1 7.5-.5.1.1.2.3 0 .4l-3.8.3c-3.2.1-3.8.1-3.7-.2zm31 0c0-.1 0-.3.2-.3l.2.3c0 .2 0 .3-.2.3a.3.3 0 0 1-.3-.3zm6-.7c-.4-.3-.3-.6.3-.6.3 0 .5.2.5.4 0 .3-.6.5-.9.2zm-23.6-.5-5-.4a49 49 0 0 1-5-.4c-.4-.4.9-.6 2.6-.5A1210.7 1210.7 0 0 0 47 13a64.3 64.3 0 0 1-4.4.3zm4.8-.3c0-.4.6-.3.8.1 0 .2-.1.4-.4.4a.4.4 0 0 1-.4-.5zm52-.5c-4.2-.9-14.6-1.1-32-.8h-8.8c-.4 0-.6-.3-.5-.6 0-.4.8-.4 8.8-.6 7.5 0 8.7-.1 8.7-.5 0-.3 1.5-.4 11.6-.6C93.5 9.3 103 9 108 9c10-.3 11.6-.2 11.8 1 0 .7-.8 1-1.6.4a529 529 0 0 0-26.4 0c-.1.1.7.3 5.3.8 2.3.3 3.8.6 4 .9.5.6-.1.7-1.8.4zm41.8-1.6c-2.1-1.3-8-2.4-14.7-2.7l-7.5-.6-15-.2a52 52 0 0 1-12.1-.4c0-.6 2-.7 12.3-.7 9.3 0 17.5.4 26.6 1.2 6.4.6 12 2.1 11.8 3.2-.1.7-.5.7-1.4.2zM122 132c-.2 0-.5-.1-.8 0-.2 0-.1.1.3.1.5 0 .7 0 .5-.1zm5.9 0c.6-.2.7-.3.3-.6-.3-.2-.7-.2-1.7 0-1.1.2-1.3.1-1.8-.3-.4-.4-1-.6-2-.7-1.3 0-1.5.3-.3.7.4.2.6.4.5.7-.1.3.2.3 2 .3a22 22 0 0 0 3-.2zm15.1-.2c0-.2-.3-.3-.7-.4-.3 0-.5-.2-.5-.4l-.2-.9c-.1-.4 0-.6.8-1 .9-.4 1-.4 1.6 0 .5.3.7.7.7 1.1v.8l.4-.8c.5-1 0-2.2-.9-2.5-1-.2-3.2.2-4.6 1-1.4.7-1.7 1.1-1.3 1.7l.4 1c.2.7.2.8 2.3.8 1.6 0 2.1-.1 2-.4zm-3.2-.7c0-.1 0-.4.3-.6.5-.5.9-.4.9.3 0 .6-1 .8-1.2.3zm-46 .6h-1c-.4 0-.2.1.4.1h.6zm3.5 0h-2c-.6 0-.1.1 1 .1 1 0 1.5 0 1-.1zm21.5-1c.2-.3-1-1.9-1.2-1.7l-.3 1c-.1.8 0 .8.7.8.4 0 .8 0 .8-.2zm16.8-1c1.2-1 2.4-2.8 2.9-4.4.2-.7-.3-.8-1.5-.1-.7.3-1 .3-1.5 0-1-.5-1.2-1.3-.7-2.2.4-1 1-1.6 1.9-1.8.6-.2.7-.8.4-1.9-.1-.5-.3-.5-3.6-.5-2 0-4.9 0-6.5-.2-2.8-.2-3-.2-3.5.2-.7.8-.8 1.8-.2 2.5.3.4.6 1 .6 1.3l.7 1.6c.4.9.6 1 1.8 1 1.2 0 1.3 0 1.2-.4-.3-.6-.6-.8-1.4-.8-.5 0-.7-.3-.6-1l-.5-.6c-.3-.2-.5-.5-.5-.7 0-.2-.2-.4-.4-.4-.5 0-.9-.8-.5-1 .4-.3 6.2.2 6.5.5.2.1.1.4 0 .6-.3.4-.3.4.3.4 1.4 0 2 .7 1 1.4l-.3.7c0 .2-.3.7-.6 1l-.5.7.7.4 1 1c.4.7.4 1 0 2.1-.2.7-.3 1.4-.2 1.5l1.4.2c1 0 1.4-.1 2.6-1zm12 .9c.3-.2.5-.6.5-1 0-1.7.4-2.7.8-2.7.7 0 .9.7.5 2.3l-.1 1.5c.3.4.6-.3.8-1.8 0-.9.2-1.9.3-2.2.1-.4 0-.7-.5-1-.8-.4-5.3-.4-5.8 0-.2.3-.2.4.2.5l1.2.5.9.3c.6 0 1 .4 1 1 0 .4 0 .8.2.8.3.3 0 1-.4 1-.5 0-.7.4-.5.8.2.3.3.3 1 0zm6.3-.5c0-.7 1.4-3.3 1.8-3.4.2-.1.4.2.5.7l.2.9.5-.7c.4-.5.5-.5.9-.2s.4.3.3-.2c0-.5-1.4-1-3.2-1.3-1.4-.2-2.1.4-1.7 1.4.2.4.2.9 0 1.7-.2.6-.2 1.2-.1 1.4.2.3.8.2.8-.3zm-45-1.1a55.8 55.8 0 0 0 7.4-1c1.7-.4 3-1 2.8-1.5-.3-.8-1.2-1-4-1.1h-1.9c1.6.2 2 .4 2.5.8.4.4.4.5-.2 1-.4.6-.8.7-1.8.7-.8 0-1.4-.1-1.7-.4-.3-.3-1.2-.4-4.8-.3a17 17 0 0 1-4.6-.3c-.3-.2-.2-.3 0-.4a64.3 64.3 0 0 1 7.8-1.3c-.4-.5-13.6.6-16.3 1.4-.9.3-3.4 1.6-3.4 1.7 0 .2 3.1.7 5.3 1 3 .2 8.6 0 13-.3zm16.3-.2c.3-.1.6-.4.6-.6 0-.3.4-.5 1.3-.6 2-.4 2.2-.5 1.6-.8-.6-.3-7.7-.6-8-.3l.1 1c.1.5.3.7.9.9.4 0 .8.2 1 .3 0 .3 1.7.3 2.5 0zm13.4-5.8c.8-.2 3-1 5-2 1.8-.8 4.2-1.9 5.2-2.2a50 50 0 0 0 4.6-2l3.1-1.3c.2 0 .3-.2.3-.3-.2-.6-.5-.5-6.7 2.4-.9.4-2.1.9-2.8 1l-3.8 1.6c-1.5.7-3.4 1.5-4.3 1.7a6 6 0 0 0-2.2 1c-.6.6-.4.7 1.6.1zm-116-2c-.3-.3-.4-.7-.3-1.3.1-.5 0-1-.1-1.2-.3-.4-.3-2.5.1-4.5.2-.7 0-.8-1.8-1.5-2.5-1-3-1-3 0 0 1.1.4 4.3.9 6.2.6 2.5 1 2.8 3.5 2.8 1.1 0 1.1 0 .7-.4zm2.7.1c.3 0 .6-.2.6-.4 0-.3-1.7-.2-2.2.2-.5.4-.5.4.2.4.4 0 1 0 1.4-.2zm17.2-1.1c2.2-.4 2.2-1.2 0-1.5-1.2-.2-1.3-.1-1.4.4-.1.3-.5.7-.9 1l-.7.3h1c.4 0 1.4 0 2-.2zm-27-.1c-.2-.3-1.8-.4-1.6-.2 0 .2.5.3 1 .3.4 0 .7 0 .6-.1zm24-1.8c.5-1 .4-1.3-1.8-3.4l-1.8-1.9 1.3-1.5c2.2-2.2 4-6.6 3.5-9 0-.7-.4-1.7-.7-2.2l-.5-1h-1.8c-2 0-2 0-4.6-1.7-.8-.6-1.8-1.2-2.2-1.3l-2.4-1.4c-1.4-1-1.9-1.1-2.8-1-.6 0-1.5.3-2 .6-.4.3-.8.5-1 .4-.1 0-.6.2-1 .7l-1 .9.2-.8.3-1.4c.2-.7.2-.7 0-.2a8 8 0 0 1-2.3 2.3v-.7l-.1-1.2c-.2-.6-.2-.6-.8.1-.7.9-.7 1-.3 1.5.1.2 0 .8-.3 1.7-.5 1.3-.6 3.4-.1 3.3.1 0 .3-.2.3-.4 0-.7.4-.7.9 0 .5.5.5.5.5 0 0-.3-.2-.7-.5-1-.5-.3-.5-.5-.2-1.5.3-1.1 1-1.6 1.3-1v1c-.3.5-.3.9 0 1.5.3.4.5 1 .5 1.2 0 .3.3.7.8 1 .5.2 1 .8 1.4 1.7l1 1.6c.3 0 .5.5.5 1s.1.8.4.8c.5 0 .5 1-.2 2-.4.7-.4.9 0 1.2.5.4.3 1.4-.4 1.5-.8 0-1.3-.5-1.7-2-.2-1-.2-1.3.2-2.1.4-1 .4-1 0-1.2-.2-.2-.4-.6-.4-1 0-.8-.7-2-1.4-2.5-.8-.6-2.7-.6-3.2 0l-1 1.7c-.9 1.4-.8 2.6.4 4 1.4 2 5 3.7 7.4 3.8 1 0 1.8.2 2.3.5 2 1.2 5 1.8 7 1.2.7-.2 1-.2 1.3 0 .4.4-.3 1-1.4 1.2a6 6 0 0 0-1.2.3c-.1 0 .5.6 1.4 1.1L35 118c.1.2.8.8 1.5 1.2l1.3.7.7-.5 1-1.3zm-9.3-8c-.2-.7.2-2.3.6-2.3.5 0 .6.3.5 1.4-.2 1-.8 1.5-1 .9zm1.7-.4c0-.3 0-.8.2-1 .3-.4.4-.4.4.5 0 1-.4 1.3-.6.5zm1.8-.7c-.3-.6 0-1.7.5-1.7s.8 1 .4 1.6c-.3.6-.7.7-1 .1zm-5 0c-.3-.3 1-3.6 1.5-3.6s.4.8-.2 2.2c-.6 1.4-.9 1.7-1.3 1.4zm-2-.8c0-.4.6-1 .9-.7.2.2-.3 1.1-.7 1.1l-.2-.4zm-.3-2.3c0-.5.6-1.3 1-1.3s.4.4 0 1.1c-.2.6-1 .7-1 .2zm-1.2-2.7-.4-.8c0-.6 1-2 1.5-2s.5.5-.1 1.3c-.7.8-.7 1.3-.2 1.3.3 0 .4.2.3.3-.2.4-.8.3-1.1-.1zm13-1.7.1-.4c.1-.1.3 0 .4 0v.5l-.5-.1zm-15.1-.7c-.2-.5 0-1.3.5-1.1.2 0 .3.4.3.7 0 .7-.6 1-.8.4zm-2.3 0-.2-1.5c0-1.5 1.3-3.6 2.2-3.7.4 0 .1.7-.6 1.6-.7.8-.8 1-.6 2.3.1 1.2 0 1.4-.3 1.4l-.5-.1zm4-2c.2-.7 1-1.3 1.3-.9.2.2.2.5-.2.9-.6.7-1.1.7-1 0zm5.3.2c0-.5.7-1 1-.9.3.2.3.4 0 .7-.2.6-1 .7-1 .2zm-6.3-1.3c0-1.1.6-2.4 1.4-2.8 1-.6 1.2-.2.4.6-.4.4-.8 1.1-1 1.7-.2 1-.8 1.4-.8.5zm3-1c-.2-.5.3-1.9.7-1.9.3 0 .3 1 0 1.7-.1.6-.5.6-.7.1zm1.3 22h1l-1-.4-1-.4c-.1 0-.2-.2-.2-.5s.2-.4.9-.2c2.2.4 3.1.5 3.1.3a7 7 0 0 0-1.2-1.4c-1-1-1.3-1.2-3-1.4l-2-.3c-.3 0-1 1.7-1 2.5 0 .5.3.8.5.9 1 .3 2.3 1 2.4 1.4.2.3.2.3.3 0 0-.4.4-.5 1.2-.6zm-14-16c-.2-.5.3-2.3.7-2.3.1 0 .2.4.2 1 0 1.2.3 1.7.7 1.4.5-.4.5-1 0-1-.2 0-.4-.3-.4-.6s.1-.5.3-.5l.2-1c0-.7 0-.9-.4-.8-.2 0-.6.3-.7.6l-.7.7c-.3.2-.4 2.6-.1 3 .3.3.4.1.2-.4zm32.6-.8c-.2-1-.4-1.1-1-.7-.5.2-.7.2-1.2 0-.9-.5-.7-1.4.4-1.9.7-.3 1-.7 1.3-1.7a28 28 0 0 1 3.3-5.9l4-.1c3.5 0 3.9 0 3.9.4 0 .3-.4.6-1 .8-1.2.5-1.1 1.1.1 2.5a7 7 0 0 1 1.4 2.2c.5 1.8 1.5 2.6 3.7 3 1.3.3 2.3.4 2.8.2l.8-.2-.8-.4c-.8-.4-1.7-.4-3.3 0-1 .1-1.1-.5 0-1.2l.7-.5c.1 0-1.3-3.5-2.2-5.2-.8-1.6-.8-1.9 0-2.5.5-.2 1.9-1.6 3.2-3 3-2.9 3-3.1 3.2-8.3l.2-3.7-1.2.2c-2.6.4-6 1.9-6.6 2.8-.3.6-2 1.4-3.2 1.7-.4.1-.7.3-.7.6a14 14 0 0 1-3 4.3c-.5.6-1.4 1.2-1.9 1.5l-2 1-1.5.8c-.7.1-1.4 1.4-1.5 2.7-.2 1.8-.8 4.5-1.1 4.9-.6.7-1.7 3-1.7 3.4 0 .6 1 2 1.5 2.4.6.3 2.3.7 3.2.8.3 0 .3-.2.2-.9zm64.4-.6c-.1-.9-.5-1-1.9-.6-1.2.5-1.1.7.7 1.2 1.3.3 1.4.3 1.2-.6zm-20.2.4c.4-.4.4-1.3 0-2-.3-.2-.4-.6-.3-.8.1-.2 0-.5-.2-.7-.2-.3-.2-.8-.1-1.6.2-1.1.1-1.2-.5-1.5l-.7-.5c0-.1-.2-.3-.5-.4-.4 0-.5-.2-.4-.5.2-.6.8-.6 1.2 0 .2.4.2.4.4 0 .6-1.9 1.3-7 1-8.5a4 4 0 0 0-1-2.2l-1-1-.6.8c-.4.4-.7 1-.7 1.4 0 .4 0 .9-.2 1-.3.3-.5 1.2-.7 3.5-.2 1.1-.1 1.5.3 2 .5.5.8 3 .4 3.3l-.5.8c-.3.6-.3.7.1 1 .6.5.8 3.2.2 3.8-.2.3-.3 1.8-.1 2.3 0 .3 3.7 0 4-.2zm-2.7-10c-.3-.5.1-.8.8-.8.7 0 .9.6.2.9-.6.2-.8.2-1-.1zm.4-1.8c0-.4.6-.7 1.2-.5.4.1.4.2.1.6-.4.5-1.3.5-1.3 0zm.4-1.8c-.4-.4-.1-1 .5-1 .8 0 1 .7.3 1-.6.2-.6.2-.8 0zm-.2-1.4v-1c0-.7.2-1 .7-1 .8 0 1 .8.3 1-.2.1-.4.4-.4.7 0 .5-.4.7-.6.3zm6.6 13c.9-.5.9-.6.5-1-.3-.2-.6-.8-.8-1.3-.4-.9-1-1.3-1-.7 0 .1-.4.3-.9.3s-.9 0-.9.2c0 1 1.3 3 2 3l1.1-.6zm13-.4a12 12 0 0 1 4.3 0c1.1.4 1.3.4 1.3-.2 0-.7-.8-1.3-2.4-1.7-1-.2-1.4-.4-1.5-.8 0-.2-.2-.4-.4-.4-.4 0-.2-.7.3-1.2 1-.9 1.2-1.5 1.3-3.8 0-3-.3-4.2-1.4-4.7-1-.4-1.2-1-.5-1.4.2 0 .8 0 1.3.3 1.4.8 2 2.4 1.9 5.5 0 2.5-.1 2.6-1 3.8a13 13 0 0 0-.8 1.3l1.3.3c.7 0 1.7.4 2.3.8l1 .7L117 96c1.8-1.8 2.2-2.6 2.2-4.7 0-2-.7-3.8-2.1-5.2a6.2 6.2 0 0 1-1.4-1.5c0-.2-.4-.4-.9-.6-.7-.3-1.1-.2-2 .1-1.2.5-1.2.5-2.7-.3-1.5-.8-2.1-.8-3.4.4-1 .9-1.7 1.1-3.2 1-2.3 0-3.5.7-5.3 3.3-.9 1.3-1.7 3-2 4-.5 1.6-.5 1.7 0 2.7.4 1.1 1 1.5 3.3 2.2.6.2.8.4.8 1 .1.4.3.7.7.8.8.3 3.2.6 3.6.5l3.7-.4zM99 95.6c-.7-.8-.8-1.4-.2-1.6.6-.3 1 0 1.4.8.6 1.4-.2 1.8-1.2.8zm-15.3 2c0-1 0-1-.6-.5-.3.3-.3.5 0 1 .5.7.6.6.6-.5zm38.1-.2c.3-.2-.4-1.2-1-1.4a1 1 0 0 0-1.3 1c0 .3-.1.6-.3.7-.3 0-.4.2-.4.3 0 .2 2.8-.4 3-.6zm-109.2-.7c.6 0 .9-.1.9-.4 0-.4-.2-.4-1.2-.3l-1.9.6-.8.3h1l2-.2zm3.8-1.3c0-.6-.5-.3-.8.5a6 6 0 0 0-.3 1c0 .3 1-1.1 1-1.5zm67.6-.1c0-.5 0-.6.6-.5.7 0 .7-.3 0-.8-.7-.4-.5-1 .4-1h.6l-.6-.3c-.7-.2-.9-1-.2-1 .3 0 .4-.4.4-1.7a45.5 45.5 0 0 1 .2-5.3c0-2.1-.1-2.6-1-2.5-.4 0-.3 0 0 .3.7.5.6 1.2-.1 1.2-.9 0-1.6-.8-1.4-1.5.1-.4 0-.6-.1-.6-.2 0-.6-.3-.8-.6l-.5-.6v1.2c0 .6.1 1.3.3 1.6.2.4.2.6 0 .7-.2.2-.3 1-.2 2.5 0 2 .2 2.3.8 2.8.8.6.8.9.5 3.5-.1 1 0 1.5.2 2 .3.3.4.8.3 1.2-.2.6-.1.6.2.3.3-.2.5-.6.4-1zm-.4-6.3c-.4-.5 0-1.2.6-1 .5.2.5 1 0 1.2-.2 0-.4 0-.6-.2zm-.3-1.8c-.7-.5-.5-1 .2-1s1.2.6 1 1.1c-.2.5-.5.5-1.2 0zm0-2c-.6-.3-.7-.9-.1-1.1.6-.3 1.7.3 1.7 1 0 .5-.6.6-1.5.2zM41 95.7c1.3-.3 1.3-.8.2-.6-3.4.4-3.6.5-2.9.7 1 .2 1.6.2 2.7 0zm53.3-.3c-.2-.8.6-3.5 1.8-5.5l3.2-5.7c.8-1.2 1.4-4 1.7-9 .4-5.2.3-6.4-1.1-9.7-1.6-3.7-3.1-4.8-4.3-3-.4.7-.4 1-.2 2s.2 1.3-.1 1.8c-.3.5-.5.6-.8.3l-.4-.7c0-.6-.5-1.1-1-1.1-.4 0-2.3 1.9-3.5 3.4-.8 1-1 1.8-2.2 5.4-1 2.9-.8 3.1 1.4 3.4l1.8.5c.4.4 1.1.3 1.3-.3l.7-1.7a9 9 0 0 0 .5-3c.1-2 .2-2 .8-2.1.3 0 1-.4 1.4-.7 1.3-1.2 1.7-.8 1 .8l-.8 1.3c-.2 0-.6 1.1-1 2.3-.3 1.3-.8 2.5-1.1 3-.7.8-.7 1-.1 1 .2 0 1 .1 1.8.4l2 .7c1 .2 1 1 0 1.2-.8 0-4.5-1.3-4.5-1.7 0-.1-.5.2-1 .7-1 1-1.1 1.9-.4 3.2a11 11 0 0 1 .8 5.8c-.6 1.9-.8 4-.5 5.2.3 1 .5 1.3 1.4 1.8 1.4.7 1.6.7 1.4 0zm-.7-12.4-.2-1.2c0-.6.2-.7.8-.7.5 0 1 .2 1.2.4.3.3.3.4 0 .7-.3.3-.5.7-.5 1 0 .6-1 .5-1.3-.2zM35.4 95.4c.3-.2.2-.3-.5-.3s-.8 0-.5.3l.5.2s.3 0 .5-.2zm-2.5-1a6.7 6.7 0 0 0-2.6-1.4c-.2 0 .3.3 1 .8 1.4.8 1.9 1 1.6.5zm-9.5-.6c0-.2 0-.3-.3-.3-.2 0-.4.1-.4.3 0 .1.1.3.3.3l.4-.3zm114.6-.3.7-.3-.2-2.1-.3-4.2v-2l-2.2-.2-3.2-.2-1.2-.1v1c.2 3.2.6 7 .9 7.5.2.4.5.6 1 .6.7 0 .8 0 .7-.6-.3-2.3-.3-3.9 0-3.9.6 0 1 .9 1 2l.1 2c.2.7.3.8 1 .8.5 0 1.3-.1 1.7-.3zm3.7 0c.2-.2 6.5-2.5 8.8-3.2.5-.1 1-.5 1-.8.4-1 .6-4.7.3-4.8l-3.2.2a41.4 41.4 0 0 1-9.6.3c.2.2.5 2 .8 4 .2 2.2.6 4 .7 4.3.3.4.8.4 1.2 0zm-19.8-2.1c0-1 0-1.9-.5-2.9-.3-.8-.5-1.8-.5-2.1 0-.4-.4-1.3-.9-2.1-.4-.8-1.1-2.3-1.4-3.3l-1.2-2.7c-.3-.5-.7-1.7-.9-2.8-.5-2.2-1.1-3.4-2.5-4.4-1-.8-1.8-1.6-2.5-2.8-.4-.8-.4-.8-.3 2 .2 2.9.7 5.4 1.3 5.7.4.2 2.1 3.1 3 5 .1.4 1 1.4 2 2.2 1.6 1.4 2.2 2.3 3.5 5.3.1.3.3 1.5.3 2.7 0 2.3.4 2.4.6.2zm-81 1.2c.8-.1 1.5-.4 1.6-.6.1-.3 0-.4-.8-.2l-4.1.3c-3 .2-3.8.4-2.2.7 1.3.2 4.1.1 5.5-.2zm90.1-1.3a494.4 494.4 0 0 0-.6-7c0-.2-.3-.3-.6-.3-.5 0-.5 0-.4 2l.4 4.5c.1 2.4.2 2.5.8 2.5.6 0 .6 0 .4-1.7zM16 92a27 27 0 0 1 5.6-11.2c2.5-3.4 3-4.3 2.8-5.2-.1-.7 0-.8.5-.8a14 14 0 0 0 4.4-2.9c0-.1-.5-.3-1.3-.3h-2.1c-.4 0-2-.5-3.6-1-2.2-.7-3-1.1-3.7-1.8-.5-.5-1-.8-1.2-.7-.3.2-2 4-2.8 6-.9 2.7-1.8 6.6-2.2 9.5-.3 2.3.1 7.3.6 7.9l.5.9c.1.3.5.4 1 .4.8 0 1-.2 1.5-.8zm1-6.6c-.6-.7-.6-1.4-.4-4.8.3-3.9.9-6.1 1.6-6 .6.1.5 1.9-.1 5.5-.4 2.3-.5 3-.2 4s.3 1.2 0 1.4c-.5.3-.6.2-1-.1zm-2.4-3.9c.4-5.1 1-8.2 2.3-9.5 1-1.1 1.7-.3.8 1-.7 1-1.3 3.4-1.8 7.7-.4 3-.5 3.5-1 3.6-.4.1-.5 0-.3-2.8zm18.1 11c-.3-.8-7.4-2.6-10.4-2.6-2.1 0-1.4.5 1.2.8 2.7.3 7.7 1.4 8.4 1.9.6.3 1 .3.8 0zm96.1-1c0-2.4-.7-7.2-1-7.4-1-.6-1.2-.4-1 2.2l.8 6.2c0 .2.4.3.7.3.4 0 .5-.1.5-1.2zm-2.6.3c0-.7-.7-5.3-.8-5a50 50 0 0 0-.1 5.6c.3.5.9.1.9-.6zM23 91.6c-1.8-.4-2.3-.3-2 0 0 .2 1 .3 2 .3h1.7zm19-1.2c.9-.3 1-.5 1-1 0-.8-.3-.8-.5-.1-.2.6-1.8 1-4.6 1.3-1.2 0-2.3.2-2.4.4-.4.3 5.5-.1 6.6-.6zm33.9-.6c0-.8-.1-1.3-.3-1.3l-.3.3v1.3c0 .6.2 1 .3 1 .2 0 .3-.6.3-1.3zm-1.6.8c0-.1-.1-.3-.3-.3l-.2.3c0 .2.1.3.2.3.2 0 .3-.1.3-.3zm-35.7-1c3.2-.5 3.4-.6 3.3-.9l-1-.6c-.7-.3-.9-.3-1.4.4-.6.7-.6.7-4.7.7l-4 .1c.5.5 5.3.6 7.8.3zm85.4-1c-.1-.3-.2-.1-.2.3s0 .6.2.5v-.8zm-97.9 0c-.3-.7-.7-.8-3.4-1-.8 0-1.7-.2-2-.3-.4-.2-.5-.2-.1.2.2.3.5.5.7.5.2 0 .4.1.4.3 0 .3.6.5 2.3.6l2.3.3-.2-.6zm-6 .2c0-.3-1-.8-1.2-.6-.4.3-.1.8.5.8.4 0 .7 0 .7-.2zm54.2 0c0-.2-.1-.3-.3-.3-.1 0-.2.1-.2.3l.2.2c.2 0 .3 0 .3-.2zm-43.5-1.1c-.1-.2-.6-.3-1.2-.3h-1l.8.6c.6.3 1 .4 1.2.2.2-.2.2-.4.2-.5zm46.8-.4c.6-1.3.5-1.8-.4-1.2-.2.1-.3.7-.4 1.3 0 1.2.2 1.2.8 0zm78 1c1.2-.2 2.4-.5 2.7-.7.4-.3 1-.3 1.6-.2l1 .1-.2-1.1-.3-4.8A31 31 0 0 0 158 70l-2-6.5c-.2-.8-.2-.8-.3.2 0 .6 0 2 .2 3.2l.3 4.8c0 3.4.3 5.6.7 6 .3.3.4.2.2-.6-.4-1.6-.3-2 .2-2 .7 0 2.1 3.9 1.7 4.6-.2.2-.6.3-.8.2-.3 0-.5 0-.5.3 0 .6 1.5 3.6 2.2 4.5l.5.9c0 .5-.9 1-1.6 1-.5 0-.9.2-1 .4 0 .3-.8.4-2.3.6-1.7.1-2.2.2-2.2.5v.4l2.3-.3zM38.3 88l1-.3-.5-.7c-.3-.3-.6-1-.7-1.4l-.4-1-1.6.7c-.7.5-1.6 1-2 1.1-.6.2-.5.2.6.1.7 0 1.5-.2 1.9-.3.4-.1.6 0 .6.3 0 .5-.5.7-2.5 1.3l-1.4.4h2l3-.2zm37.5-1.4c0-.3-.1-.4-.3-.4l-.2.6c0 .2 0 .4.2.4s.3-.3.3-.6zM26 86.5c-.4-.2-1.5-.4-2.4-.4-1.4 0-1.7 0-2-.6-.4-.5-.4-.5-.6-.1v.6c.1.2 4.2.8 5.3.9.4 0 .3-.1-.3-.4zm6.7-.5a12 12 0 0 1 2.3-1.4l2.1-1v-1.1c-.1-.7 0-1.2.3-1.4.3-.2.3-.6.2-1-.2-1.1-.5-1.4-1.3-1.1-1.1.3-4 1.7-4.3 2.2-.6.7.4.5 2.2-.5l2.1-1c.8 0 .4.9-.7 1.4-2.3 1.2-4 2.4-3.7 2.7.2.2.6 0 1.4-.5 1.6-1 2.7-1.5 3-1.2.4.4-2.7 2.7-3.7 2.7a1 1 0 0 0-.7.4c-.2.2-.9.5-1.5.6-.7 0-1 .2-.8.3.6.4 2.8.3 3 0zm8.6-.4c.2-.6.1-.6-.4-.4-.2.1-.4.3-.3.5.2.6.5.5.7-.1zM123 80c-.6-.4-1-.1-1.3.8a54 54 0 0 1-.3 1.7c-.2.5 0 1 .2 1.4l.4 1.2.2.9.7-2.8c.4-2.4.4-3 .1-3.2zm-95 4.9c-.3-.7-1.4-1-3-.7-2 .2-1.8.6.3.9 2.5.3 2.8.3 2.6-.2zm127.6-1.4c0-.6 0-2.6-.2-4.5-.7-7.1-.8-10.1-.9-15.1 0-3.2-.1-5.9-.3-7a90 90 0 0 1-.7-8.2 1315.6 1315.6 0 0 0-1-16.8c-.4 0-.6 2-.4 3.7.2 2.4.6 13.2.9 24a187.6 187.6 0 0 0 .8 14.3c-.2 2.4 0 5.4.3 5.8.8.9.8 1.7 0 3.4-.8 1.9-.7 2.4.5 1.9.8-.3 1-.5 1-1.5zm-111.7.6c.4-.8.1-.8-1 .1l-.9.8.8-.1c.6-.1 1-.4 1.1-.8zm34.2-2c-.1-2.6 0-2.9.3-2.9.4 0 .5.3.5 1 0 1.4.4 1 .8-.8.3-2 .3-2.9 0-2.7-.1.1-.3.5-.3 1s-.1.7-.4.7c-.4 0-.5-1 0-2 0-.4.3-.6.6-.5.3.1.4-.8.4-6.8 0-5.2-.1-7-.4-7.6L79 61l-.1.6-.2 1.5c0 .5-.1.9-.3.9a37.6 37.6 0 0 1 2.3-16.6c1-.9.8-1.3-.1-.6-.5.3-.9.8-1 1.1l-.5 2.3A103.9 103.9 0 0 0 77.6 62c.1.3.1 1-.1 1.9-.2 1-.2 1.8 0 3l.3 2.8.2-1.6c0-2.8.2-3.8.6-3.8l.1 2.2c0 1.5 0 2.5.3 3 .4.7.4 2.2.2 3.8-.2 1.3-1 1.4-1 .1L78 75l-.6 6c-.4 3.6-.4 4 .4 4 .2 0 .2-1.3.2-2.9zm-48 2.3H29h.8zm16-1.7c0-.3-.1-.2-.3.1-.3.7-.3 1.2 0 .7.2-.2.3-.6.3-.8zm2.4-1.3-.1-1-.4.8c-.4 1-.4 1.8 0 2.2.5.5.8-.7.5-2zm58 1.5a4 4 0 0 1 1.4-.8c.2 0 .5-.1.6-.4.5-.5 1.4-.4 1.6.2 0 .3.5.7 1 1 .8.2 1 .2 2-.1l1-.6c0-.2-1.4-2.9-2.3-4.4-1.1-2-1.7-4.5-2.2-9.9-.1-1.8-.3-2.6-.8-3.3-.6-.8-.7-.9-1.3-.7-.8.3-4.7.3-5.5-.1-1-.4-1.3.1-.6 1.3.8 1.7 1.1 3.8 1.2 9.8.1 8.8 0 8 .8 8.4 1.2.6 2 .5 3.2-.4zm2.1-6-.2-1.5c0-.6-.4-1.7-.7-2.6-.4-.8-.8-1.8-.8-2.2 0-1-1-2.8-2.4-3.7-1.4-1-1.5-1.3-.7-1.7.6-.3.6-.4 1.7.5l1 .8.6-.5c.7-.7 1.4-.7 1.4 0 0 .2 0 .5-.2.6v2.5c0 1.7.2 2.6.5 3.3.3.6.7 1.9.8 2.9.1 1.6.1 1.8-.3 1.8-.3 0-.6-.1-.7-.3zm41.4 6.5c1-.1 1.6-.4 1.5-.5-.2-.2-3.2.4-3.5.7-.2.2 0 .2 2-.2zM31 83c0-.7-.7-.8-2.9-.8-3.2 0-2.8.8.5 1 1 0 1.8 0 1.9.2.2.2.5 0 .5-.4zm11.9-.9 1.9-1.4-5 2.5c0 .2.1.3.5.3s1.5-.6 2.6-1.4zm105.7-.3.7-.3c-2.4.4-3 .4-3 0 0-.3.5-.6 2.2-1.3l1-.4.1-2.2.2-4.9c0-3 0-3.2-1.9-2.6a103 103 0 0 1-7.1 1.9c-.7.2-.8.6-.5 3.3l.4 5 .2 2.6 1.2.2 1.6.2c.4 0 2.8-.7 5-1.5zM23.5 83c0-.2-.2-.3-.4-.4-.6-.3-.7-.2-.7.2 0 .2.3.4.6.4s.5-.1.5-.2zm129.3-.7c.4-.7.3-1.2-.3-1.2-.3 0-.4.1-.3.5.1.3 0 .7-.1 1-.2.2-.2.3 0 .3l.7-.6zm-102.2-.5.2-1.6c0-1 .5-1.3 1.1-.6.4.6 1.2.3 1.4-.5.1-.8-.5-1.7-1.1-1.7-.2 0-1 .5-1.6 1.1-1.1 1-1.2 1.2-1 1.9.2.4.4 1 .4 1.4 0 .8.4.8.6 0zm88.4-1.6-.4-6.3V72h-1.5c-.8 0-1.7-.1-2-.3l-4-1c-2-.3-3.8-.7-4.3-.9-1-.3-2.8 0-2.8.5 0 .3.1.3.6 0 .2-.1.6-.2.7 0a33.7 33.7 0 0 1-.6 9.6c-.2 1.5-.1 1.6.3 1.6.7 0 .8-.8 1-6.3.2-3.2.3-4 .6-4 .4 0 .4.7.2 5.3-.1 3.5 0 5.3.1 5.3s.3-.6.3-1.3l.3-4c.1-1.7.2-3.4.1-3.9-.2-1 .1-1.2.7-.5.2.3.3 1 .1 2.7l-.2 4.6c0 2.1 0 2.3.5 2.3.6.1.6 0 .6-.9a74 74 0 0 1 .8-7.2c.3.1.4.7.4 3.7v4c.2.4.5.5 2.1.5l3 .2 2.4.3h1.2zm-6.5-1.2c-.4-.3-.9-3.7-.5-4 .4-.5 1 .9 1.1 2.4.2 1.6 0 2-.6 1.6zm-85.7 1.2c0-.2-.2-.4-.4-.4-.3 0-.4.1-.3.4l.2 1c0 .5 0 .5.2 0l.3-1zm-21.2 1c.3-.3.2-.3-.1-.5-.7-.2-1.3-.2-1.9.2-.5.4-.4.4.6.4.5 0 1.2 0 1.4-.2zm15-.2c.5-.4.5-.4-.2-.4-.4 0-.8.1-1 .4-.3.3-.3.4.2.4a2 2 0 0 0 1-.4zm-9.7-.2c0-.3-1.7-.8-2.7-.8-.6 0-1.5.6-1.5 1h2.1c1.2 0 2.1 0 2.1-.2zm57.8-1c.8 0 1-.1 1-.5 0-.6-.7-.9-2-.8-1 0-1.3.1-1.7 1-.3.4-.3.5 0 .5.2 0 .5.3.6.6.1.6.1.6.7-.1.4-.6.8-.7 1.4-.7zm-6.1-.3c.3-.5.4-.6.8-.3.5.2.6.1.6-1 0-.9.2-1.5.4-1.6.3-.2.3-.4 0-.8-.1-.3-.2-.6 0-.6l.3-1 .2-1.3c0-.3 0-.4-.5-.4-.6 0-.7.1-.7 1 0 .4-.4 1.5-.8 2.3-.4.9-.6 1.6-.5 2 0 .3 0 1-.2 1.4-.5 1-.2 1.1.4.3zm-49-.8c.7-.4 1.8-1 2.6-1.2 1.3-.5 1.7-1 1-1s-3 1-3.8 1.6c-.6.5-1 .6-2.9.4-2.3-.1-4.6 0-4.6.5 0 .1.9.2 2 0 1.2 0 2.4 0 2.9.2 1.2.4 1.4.4 2.8-.5zm11.5-.2c-.1 0-.4 0-.6.3-.5.5-.5.5.1.2.4-.2.6-.4.5-.5zm0-1.8c.5-.4-.8 0-1.7.5a9 9 0 0 1-1.5.8c-.4.1-.8.4-1 .6-.2.3 3.9-1.5 4.2-1.9zm11 1.8c1.2-.4 2-1.1 1.6-1.5-.2-.2-3-.2-3 0-.2.3 0 2 .1 2l1.3-.5zm-6-1.2c.6-.7 1.3-1 2-1.1 1.2-.2 1.6-.6 1-.8-1-.4-.5-.9 1-1 1.7-.2 2.1-.5 3.8-3 1-1.5 1.3-4 .7-5-.4-.5-.4-.6 0-1a7 7 0 0 1 2.7-.8l2-.3V63c-.2-1.7-.4-2-1.9-2.3-1-.2-1.4-.2-2 .1-.9.4-.9.4-.8 2l.2 1.7-1.4 1.2-2.4 1.8c-.6.3-1.1.6-1.2.8 0 .1-.5.3-1 .3s-1.1.2-1.6.6c-.4.4-1 .7-1.2.7-.3 0-.7.2-1 .5-.3.4-.4 1-.3 4 0 2 .2 3.7.3 3.7 0 0 .6-.4 1.1-1zm73.4.6s-.4-.6-1-1.1c-1.1-1.2-1.9-1.3-1.9-.4 0 .7.6 1.4.9 1 0 0 .4.1.7.4.7.4 1.3.5 1.3.1zm-94.7-.8c0-.1-.4-.3-1-.4-.8-.1-.9-.2-.8-.7.2-.5 0-.4-.7.4-.5.5-1 1-.8 1.2.1.3 3.3-.2 3.3-.5zm5.6-.9 3.1-1.5c.8-.3.9-.3.4-.4-.8-.2-3.6.9-4.1 1.5-.4.4-.8.5-2.1.5-1.6 0-2.4.3-2.4.9l1.4.2c1.1 0 1.9-.2 3.7-1.2zm13.2.4c.2-1 0-1.4-.6-1.2-.6.2-.6.6 0 1.4.5.8.5.7.6-.2zm71.6-1.7c.6-.7.6-.8.2-1.5-1.5-2.2-2-2.9-2.7-3.3a4 4 0 0 1-1.1-1c-2-3.3-4-5.7-4.3-5.3-.1.2.2 1 .7 1.8.5.8 1 1.8 1 2.1 0 .4.3 1 1 1.6 2.7 2.2 3.2 3 3.7 5.7.4 2.3.6 2.8.7 1.5 0-.5.4-1.2.8-1.6zm-79 2c.3-.3.3-.3 0-.3s-.6.1-.7.3c-.2.3.2.3.7 0zm111.3-3.4c0-1 0-1.4-.2-1.3-.1.1-.3 1.1-.2 2.2 0 1.5 0 1.8.2 1.3l.2-2.2zm-90.2 2 3.4-.8 1.6-.3.2-1c.1-.7.4-1.6.7-2 .5-.8.5-1 .3-1.6-.3-.5-1.4-1.4-1.4-1l-.6-.2c-.4-.2-.5-.4-.4-1.2 0-.6.2-1.3.4-1.6.1-.6.1-.7-.6-.5l-2 .4c-2 .3-2.4.8-2.9 4-.4 2.3-1.8 5-2.6 5l-.6.4c-.2.4-.2.4.3.4.4 0 .8.2 1 .3.6.4 1.3.3 3.2-.3zm0-3.8c0-.2.2-.4.3-.3.2.1.2.3.1.4-.2.4-.4.3-.4-.1zm63.3 1.6c0-.4-.1-.7-.2-.6-.3.3-.6 2.9-.4 3.2.2.3.5-1.3.6-2.6zM32.8 75c.6-.8 2-1.4 5-2.2a20 20 0 0 0 3-1c.6-.4-.2-.4-2.5.2-3.3.9-5.3 1.6-5.7 2.2-.4.5-1.2.5-2.4 0-1-.4-2-.2-2 .5 0 .5.5.6 2.5.6 1.3 0 1.8 0 2-.3zm14.8-2.2-.3.1c-.2.2-.6.4-.9.4-.4 0-.5-.2-.3-1 .2-1-.2-1.7-.8-1.5-.4.1-.1 1.3.6 2.7l.4.9.7-.8.6-.8zm23.9.6c.3-.7.2-1-.2-.8-.3.1-.4.4-.4.7 0 .6.4.6.6 0zm51.7-.7c0-1 0-1-.2-.5-.3 1-.3 1.6 0 1.6.1 0 .2-.5.2-1.1zm37.1-3.2c-.1-.5-.7-1.6-1.2-2.3a7 7 0 0 1-1-1.6c0-.2 0-.3-.2-.3-.4 0-.3.5.4 2.4l1.4 3.8.7 2.1.1-1.5c0-1 0-2-.2-2.6zm-128 3.4c.1-.3 0-.4-.3-.5-.9-.2-1.4 0-1 .5.3.5.8.5 1.2 0zM16 67.7c.6-.8.7-1 .4-1.6l-.5-.6c-.4 0-1.7 2.7-2 4.5-.6 2.7-.5 2.7.5.6a20 20 0 0 1 1.6-2.9zm108.5 3.5c0-.2-.2-.1-.2.2 0 .3 0 .4.2.4v-.6zm-88.1 0c1-.2 1.2-.3.6-.5h-.9l-1.8.1c-.8 0-1.5 0-1.5.2 0 .6 1.9.7 3.6.3zm84.7-.9c0-.6-.4-.4-.6.3-.2.7.1 1.2.4.5l.2-.8zm-36 0c-.2-1-.2-1.1.5-1.3l.7-.3h-.7c-1 0-1.1-.5-.4-1 .5-.3.5-.4.1-.4-.8 0-.3-.6.9-1 1.6-.4 1.7-.6.2-.4-1.3.2-1.7-.1-.7-.7.6-.2.6-.3-.2-.1-.6 0-.9 0-.9-.3 0-.2.1-.4.3-.5.1 0 .2-.3 0-.5 0-.5 1.3-1 2.5-1 .7 0 1 .1 1 .5 0 .3.1.4 1.2.2.9-.1 1.3 0 1.7.3.5.5 1 .3 1-.4 0-.3.3-.6.6-.7.5-.2.4-.2-.5-.3-.5 0-1.2-.2-1.3-.4-.2-.1-.5-.2-.8 0-.6.2-1.3-.2-1-.6.5-.5 2.3-.8 2.5-.4.1.2.5.4 1 .4l1 .1c.4.1 1-.7.8-1l-2.4-.1c-1.5 0-2.3-.1-2.2-.3.2-.5 1.6-.7 3.4-.5 1.8.1 1.8.1 1.8-.5 0-.5 0-.6-1.4-.4-1.1 0-1.6 0-1.8-.3-.2-.2-.8-.3-1.3-.3-.7 0-1-.1-1-.4 0-.5 1.8-.7 4-.5 1.7.1 1.8.1 1.7-.3 0-.4-.4-.6-1.2-.8-.8-.2-1.1-.4-1.1-.7 0-.7 1-1.3 2.1-1.3s2-.6 1.2-.9h-1c-.6.1-.7 0-.7-.4 0-.6.3-.7 1.5-.6.3 0 .7-.2 1-.5.7-1 .5-1.3-.8-1.3-1 0-1.2 0-1.1-.5 0-.3.3-.4 1.4-.5H98v-1.6c.2-2.3-.3-2.8-3-3.2a7.7 7.7 0 0 0-2.5-.1l-2.6.2c-1.3 0-2.6.2-2.9.4-.3.2-.6.2-.8.1-.1 0-.3.1-.4.4 0 .3-.4.6-.6.6-.3 0-.6 0-.7.2-.1.2-.4.3-.8.3-.3 0-.9.4-1.3 1-.6.7-.7.9-.3 1 .6.2.5.8-.1 1.2-.4.2-.5.4-.4.8 0 .3 0 .7-.3 1-.5.4-.5.8-.5 3.3 0 1.6.1 2.9.2 3l.2.5c0 .3.2.6.4.8.4.3.5.4.2.9-.3.4-.3.5.2.5.7 0 .9.5.4 1-.4.5-.4.6 0 .9.3.2.3.4.1.6-.4.4-.3.6.4.8.7.2.7.3.6 1.5 0 1 0 1.3.2 1.4.3.1.4.4.2 1.2 0 .7 0 1.2.2 1.5.2.2.2.6.2.8-.3.5 0 .9.5.9.3 0 .4-.2.3-1zm0-8.2c-.4-.3-.2-.6.8-.8a8 8 0 0 1 1.7-.3c.7 0 1.2.4.8.8-.3.2-3.1.5-3.4.3zm-.1-1.7c.2-.7 3.6-1 3.6-.4 0 .4-1.1.7-2.7.7-.7 0-1 0-1-.3zm-.3-1.5c.3-.4 2-.8 3.3-.8 1 0 1.1 0 1 .4 0 .4-.4.5-2.2.6-1.5 0-2.2 0-2-.2zm0-1.9c0-.5 1.3-.8 4-1 1.9 0 2.8 0 2.8.2 0 .4-1 .7-2.6.8-.8 0-2.1 0-2.9.2-1 0-1.4 0-1.4-.2zm.1-1.5c-.4-.4-.1-.6.8-.9 1.5-.4 2.5-.3 2.5.2 0 .2-.3.4-.6.5-1.6.3-2.5.4-2.7.2zm4.3-1c0-.5 1-1 2-1 .7 0 1 .2 1 .5 0 .2-.3.4-.5.4l-1.5.1h-1zm-4.9-.7c0-.1 0-.3.2-.3 2-.7 4.2-1 4.2-.5 0 .6-4 1.4-4.4.8zm5.5-1.5c0-.3 1.4-.8 2.4-.8s1 .6-.1.8c-1.2.3-2.3.3-2.3 0zm-5.3-.3c0-.4.2-.5 1.9-.7 1.2-.1 1.5 0 1.5.2 0 .3-.2.5-.4.6-.7.2-3 .2-3-.1zm1-2.2c.3-.7 3.5-1 3.5-.4 0 .5-.9.7-2.4.7-.8 0-1 0-1-.3zm4.5-.3c0-.4.6-.7 1.6-.7.9 0 1 .2.5.7-.5.5-2 .5-2 0zm-5.3-.5c0-.7.5-1 1.7-1.2 1 0 1.2 0 1.2.3s-.3.4-1.2.6c-.6 0-1.1.3-1.1.4l-.3.2c-.2 0-.3-.1-.3-.3zm6.5-1c-1.2-.2-1-.9.3-1 .9 0 1.2 0 1.3.4.2.3-.3 1-.7.8 0 0-.5 0-.9-.2zm50 22.5c2.1-.5 1.9-.7-.9-.7-2.5 0-3.6.3-2.4.5l2 .4 1.4-.2zM42 70c1.9-.4 2.5-.7 1.5-.7-.7 0-.7 0-.2-2l.2-.7-.8.7c-.4.5-.8 1-.9 1.4 0 .4-.3.6-1.4.7-1.5.3-1.6.3-1.3.7.2.4.7.4 2.9 0zm5.4 0c0-.2-.2-.4-.4-.4s-.4.2-.4.4.2.4.4.4.4-.2.4-.4zm-17.2-.3c.2 0 .3-.3.3-.5 0-.3-.2-.4-1-.2-.8 0-1.1 0-1.4-.3-.3-.4-.1-.6 1.4-2.1l1.8-2c0-.1.3-.4.8-.5.8-.3 2.7 0 3.7.5.7.4 2-1.4 2-3 0-2.1 0-2.4-1.2-2.3-.8.1-1 .3-1.5 1l-1.4 2c-.7.9-1 1-1.4.8-.2-.2-.6-.2-.8-.1-.4.3-1 0-1-.4 0-.2.3-.4.6-.6.7-.3 2-2 2-2.9.2-1.1-.3-2-1.6-2.6a6 6 0 0 0-1.8-.6c-.9 0-3.2.8-4.6 1.6-1.6 1-2 1-2 0 0-.7-.2-.7-1-.2-1 .5-1.4.5-1.4-.1 0-.4.4-.7 1.2-1.2 1.2-.5 2.2-1.7 2.2-2.5 0-.6-1.4-2.2-2.5-2.8-.7-.4-1.1-.4-2.2-.2-1 .1-1.2.3-1.3.8-.3 1-.8 1-1-.1-.3-1.7-.9-2.7-1.9-3.1-.5-.3-1-.4-1.1-.3-.4.2.3 1.8 1.3 3.2.8 1 1 2 .6 2s-2.4-2.8-3.1-4.2l-1.3-2c-.7-.8-.7-.8-1-.3-.6.7-.6 1.6 0 2.9.5 1 .9 1.4 3.2 3.3l.7.5-.6.5c-.7.5-.6 1.7.3 2.3.8.5 3.2.3 3.9-.3.3-.3.6-.4 1-.1.4.2.5.5.5 1.4 0 1.1.1 1.3 1 1.7 1.3.7 1.6 1.3 1 2.2l-.7 1.1c-.1.3-.4.5-.6.5-.2 0-.4.1-.5.3 0 .3-.2.3-.7 0l-.8-.3c-.3 0-.3 1 0 1.2.2 0 .3.6.2 1.1 0 .7.2 1.5.6 2.2.6 1 .8 1.2 3 2 3 1 7.1 1.4 8.1.7zm-7.7-6.3v-.7c.3-.5 4.1-3.1 4.7-3.1.7 0 .4.8-.7 1.5a40 40 0 0 0-2.1 1.6c-1 .8-1.6 1-2 .7zm-1.9-9.8c-.7-.4-1-1-.4-1.3.6-.2 1.8.6 1.8 1.2s-.4.6-1.4 0zm60 15.7v.5-.5zm-35.3-.8c0-.3-.1-.5-.4-.5-.2 0-.4.3-.4.6 0 .6.6.5.8-.1zm91.2 0 .6-.2c.6 0 .8-.4.6-1.3-.1-.7-.1-.7-4.8 0l-3.9.2c-2.5 0-1.6.4 2.6 1l3.4.5c.2.2 1.3.1 1.5-.1zm6-.2c.5-.3.6-.9 0-.6h-.8c-.3-.2-.7-.3-1-.2-.8 0-1.3-.8-1-1.8.5-1.4.6-1.6 1.1-1.6.5 0 .5.2.5 1.3 0 1.3 0 1.4.7 1.2.4-.1.7 0 .7.1 0 .7.5.1.8-1 .4-1.4.4-2.4 0-2.8-.3-.3-8.3-.3-8.8 0-.2.1-.3 2-.1 2.3l2-.1c2.6-.4 2.9-.1 2.7 1.8l-.2 1.5.7-.2h1.3c.8.4.7.4 1.3 0zm-101.1-.7c0-.4 0-.9.4-1.2.4-.5.4-.6 0-.5-.4.1-.6.4-.7.8-.1.9-.4 1-2.1 1-.8 0-1.7.2-2 .3-.4.2.4.2 2 .2 2.5 0 2.5 0 2.4-.6zm-6.7-.7a4 4 0 0 0 .8-1.1c-.3-.2-2-.7-2.4-.7-.3 0-.5.2-.5.4s-.3.5-.6.6c-.3.2-.8.5-1 .8l-.6.6 1-.1c.7 0 1.3-.2 1.4-.3.2-.1.4 0 .5.4.2.7.4.7 1.4-.6zm113.8 1-.7-2.2c-.7-2.3-1.3-3-1-1.2.2 1.3 1.2 3.5 1.5 3.5h.2zm2-1.5c-.1-.9-.4-1.7-.8-2.1-.4-.4-.7-1.2-.8-1.8a73.2 73.2 0 0 0-4-13.3 13 13 0 0 1-.8-3c-1.6-8.6-1.5-8.5-2.2-8.6-.5 0-.6 0-.6.7 0 1 1.3 6.4 2.2 9.4a196.6 196.6 0 0 1 4.4 14.8c.3.3.8 1.5 1.1 2.5.7 2.2 1 2.8 1.4 2.8.2 0 .2-.5 0-1.4zm-99 .6c.3-.3 1-.6 1.4-.6.4 0 1.2-.2 1.8-.6.8-.4 1-.8 1.3-1.6.1-.5.4-1 .6-1.1.5-.2.4-1 0-2a30 30 0 0 1-1.2-2.6c-1.4-3.8-2.4-4.8-5.2-5.2-1.1-.2-1.2-.1-1.7.9s-2.2 2.3-2.8 2c-.5 0-1-2.6-.8-3.4.1-.6.3-.7.8-.5.6.1.6 0 .8-1 .2-1.1.5-1.8 1-1.8.4 0 .4.9 0 2.5-.5 2.1-.4 2.3.2 1.2 1-1.8 1.6-4.3 1.8-7.3.2-3 .2-3.5-.3-3.5s-4 3.6-4.8 5c-1 1.9-1.5 4.4-1.4 8.1 0 2 .2 3.4.4 3.6.4.5 0 .8-.8.5-.6-.2-.7-.4-.8-3-.2-3 0-4.9 1.1-8.6a14 14 0 0 1 2.1-4.4c.2-.1.3-.4.3-.6 0-1.3-2.5.9-3.5 3-.8 1.6-1.5 5-1.5 7 0 .6-.2 1.6-.4 2.2-.7 1.8-.5 3.3.5 5.3l1 2.2c0 .3.2.7.6 1 .4.2.7.5.7.8 0 .2.6.7 1.5 1l1.7 1c.4.5 2 1 3.7 1 .8 0 1.4-.2 1.9-.5zm-.2-1.4c0-.3-.4-.4-1-.3-1 .2-1-.5 0-1 .4-.1.8-.5.9-.8 0-.3.4-.5.7-.5.8 0 1 1.2.4 1.9-.3.3-.5.6-.4.7 0 0 0 .2-.2.2-.1 0-.3 0-.4-.2zm-5-1c-.4-.3-.2-.5.7-.8 1-.3 1.7-.2 1.7.2 0 .2-.3.4-.8.6-1 .3-1.4.3-1.6 0zm5.2-3.5a4 4 0 0 0-1.2-.2c-1.4 0-1.4-.6.2-2.4.8-1 1.6-1.8 1.8-1.8 1-.2 2 3.4 1.2 4-.6.5-1.4.7-2 .4zm36.1 6-.4-.1c-.2 0-.4 0-.4.2s.2.2.4.1c.3 0 .4-.2.4-.2zm36.3.2-.7-.7c-.5-.3-.7-.4-1.4-.1-1 .3-.8.7.8.8l1.2.1v-.1zM71.7 67c0-.4-.8-1.3-1.3-1.3-.2 0-.3.3-.3.8 0 .7 0 .8.8.8.4 0 .8-.1.8-.3zm-2.2-3c-.5-.6-1.3-.4-1.3.3 0 .4-.2.7-.5 1a1 1 0 0 0-.5.7c0 .5.1.4 1.3-.6.9-.8 1.2-1.2 1-1.4zm76 1c-.2-.7-.2-.8-.3-.3 0 .8.3 2 .5 1.7 0-.2 0-.8-.2-1.3zm-15.1-.5c.5-.3 1.2-.9 1.5-1.3.2-.5.7-1 1-1 .6-.3.5-1.4-.1-2.3-.6-.8-.6-.8-1-.3-1 1-6.5 2.8-7 2.2-.5-.4 0-.8 1.7-1.3l3.2-1.2 1.4-.7h-1a33 33 0 0 0-6.7 1.9c-.5.2-.5.2 0 .4.7.2.9 1 .3 1.6-.5.5 1.9 2.6 3.5 3 1.1.4 1.3.4 1.7 0l1.5-1zm-57.4.8c.5-.5.7-2 .3-2.3-.2-.2-.3-.8-.4-1.5 0-.6-.3-2-.6-3-.3-1.4-.6-1.8-1-2-1-.4-1.3-.3-1 .3l.3 2.4c.1 1.7.2 2 .9 2.3 1 .5 1.4 1.1 1.1 1.8-.2.4-.2.4-.7-.2-.5-.5-1-.5-1 0 0 .2.3.6.6 1 .4.3.6.7.5 1-.2.8.3.8 1 .2zm-32.9-.1c.4-.4.4-.8 0-.8l-.5.5c-.3.6 0 .8.5.3zm49.4-.7a1 1 0 0 0-.7 0l.3.1h.4zm61.7-2c-.4-.4-.4-.4-.4-.1l.3 1.1.3.8.1-.7c0-.5 0-1-.3-1.2zm-84 .5c0-1-2.1-2-2.6-1.2-.2.4.2 1.3.8 1.4 1.1.2 1.8.2 1.8-.2zm-51-1.3c.2-.1.3-.5.2-.8-.1-.8.5-1 1-.4.5.5 1.5 1 1.8 1 .4 0 0-1.8-.5-2.3-.3-.2-.5-.8-.5-1.2 0-.6 0-.7-.4-.6l-1.9.3c-1.2.1-1.6 0-1.9-.3l-.8-.4c-.5 0-.5.2-.5 1.2 0 1.2.8 3.3 1.3 3.3.2 0 .6.4 1 .9l.7.8v-.6c.1-.4.3-.8.5-.9zm97.7-.6c0-1 0-2-.2-2l-.6 1c-.2.6-.6 1.2-.8 1.5-.2.4-.2.5.3 1 1 .9 1.3.7 1.3-1.5zm-9.1 1.2c-.2-.2-.3-.6-.3-.8 0-.3-.4-.7-.8-1-.5-.4-.8-.7-.8-.9 0-.4.8-.6 1.4-.2.5.3.8.2 1.4-.1.8-.5 1.7-.4 1.7 0 0 .2-.3.6-.7 1-.4.4-.6 1-.6 1.5 0 .9.3 1 1.3.4l1.2-.4c.4 0 1-.2 1.3-.4.3-.3.8-.4 1-.3.2.2.5-.5.8-2 .1-.6 0-.8-.4-.8-.7 0-.6-.3.3-1.2.8-.7 1-1.5.5-1.8-.1-.1-.2 0-.2.4 0 .3-.1.5-.3.4-.1-.1-.3-.8-.3-1.6 0-.7 0-1.5-.2-1.7-.2-.4-.3-.4-.3 0 0 .6-1.2 2-1.7 2-.2 0-.5-.2-.8-.5-.4-.6-.3-1 1-2.5.8-.7 1-1.2.9-1.6-.2-.8-1.6-2.7-2-2.7-.4 0-.8-1.4-.9-3.2 0-1.4 0-1.7.3-1.7s.5.3.6.8c0 .6.3.8.6.7.6-.1.8.6.4 1.5l-.4.9c0 .1 0 .2.2.2s.7-.5 1-1c.5-1 .6-1.6.7-5.5.1-3.7 0-4.5-.3-5-.2-.4-.5-.7-.7-.7-.2 0-1 1-1.7 2.3a9.1 9.1 0 0 0-1.7 4.8 8 8 0 0 0 0 3.6c.2.6.2 1.1.1 1.3l-2.1.3c-1 0-2.2.3-2.5.4-.6.4-1 0-1-.9l-.4-1.2c-.3-.4-.3-.8-.1-1 .2-.4 0-.8-.6-1.7-.9-1.2-1-2-.2-2 .2 0 .5.2.7.6l1.1 1.6a4 4 0 0 1 1 2c0 .6.2 1.1.3 1.2l1.2-.2c1.1-.3 1.2-.7.3-2.7a6.7 6.7 0 0 0-4.3-3.5l-1-.4-.6-.2c-.2 0-.8-.3-1.2-.7-1.1-.8-1.4-.8-1.2 0 .3 1.2 2 5 2.8 6a7.5 7.5 0 0 1 1.6 5.2c-.2 1-.1 1.4.2 1.4.5.1 2.4 2.6 2.6 3.5.3 1-.1 1.4-1.3 1-1.3-.5-1.6-1-1.7-2.5-.1-.7-.3-1.3-.4-1.3-.2 0-.4.6-.6 1.4-.2.8-.5 1.8-.8 2.3-.4.8-.4.8 0 1.4.5.5.5.6.2.9-.5.3-.5 2 0 2.2l.7.9c.6 1.2 2.3 1.9 5.4 2 .5 0 .5 0 .3-.2zm-6.4-3.7c0-.2.2-.3.4-.3.1 0 .3.1.3.3 0 .1 0 .3-.3.3s-.4-.2-.4-.3zM69 62l-.1-2.6c-.3-2.6-.7-3.4-2-3.2-.7 0-1 .3-1.7 1.9-1 2-1 2.2.6 2.2.6 0 1 .3 1.7 1 1 1 1.2 1 1.5.7zm76.6-3.1c-1-3.6-1.4-4.8-1.5-4.4-.3.6 1.6 6.6 2 6.3l-.5-2zm-85 .8c1.7 0 1.8-.1 2.5-1 .8-.9 2-3.2 2-3.6 0-.2-.3-.5-.8-.7-1.1-.6-3.2-2.7-3.8-4-.5-1-.8-1.1-1.7-.4-.6.5-.6.5-.2 1 .3.3.5.7.5 1 0 .2.1.5.3.6.5.2 1.2 1.5 1.2 2.3 0 .3 0 .4-.3.3-.3 0-.5.1-.6.8 0 .5-.3 1-.4 1-.4.3-.8-.3-.8-1.1 0-.4-.2-1-.5-1.5-.6-1-.7-1.5-.1-1.5s.5-.7-.2-.9c-.5-.2-2.7.7-3 1.1 0 .2.3.7.8 1.3.6.6 1 1.6 1.6 3.3.6 2 .8 2.4 1.2 2.2l2.2-.2zm-22.8-3.6c0-2-.2-2.7-.7-3.6-.6-1.2-1-1.5-1.3-1.3-.2.1 0 .6.3 1 .7 1.2.6 3.5-.1 3.6-.4 0-.5-.1-.5-1 0-1.2-.8-2.7-2-4-.7-.6-1.3-.5-2.4.4-1 .9-3.4 1.7-4.8 1.7h-1v1c.3 1.2.6 1.5 1.5 1.3 2.1-.4 3.2-.5 4.5 0a10 10 0 0 1 3.9 2.3c.2.3.6.5 1 .5.2 0 .7 0 .9.2l.5.3c.1 0 .2-1.1.2-2.4zm77.4 1.7c0-.4-1-1-1.2-.7l-.2.6c0 .4.2.5.7.5.4 0 .7-.1.7-.4zm-.4-2c.9-.5 1-.5.5-1-.5-.6-.5-1.3 0-1.3.4 0 .5-.7 0-1v-1c.1-.8 0-1.1-.4-1.5l-.5-.8c0-.7-1.5-2-2.4-2.2l-.8-.1V48c0 .7.1 1.3.3 1.4.5.3 1.5 2.8 1.8 4.8l.4 2 1.1-.5zm-41.3-1.5c.2 0 .4-.4.4-.7.1-.4.3-.5 1-.5.7.1.8 0 1-.9.3-2 .7-3.3 1-3.9.9-1.2 0-4.3-1.4-5.4l-2-1.7a6 6 0 0 0-1.6-1.2c-.1 0-.7.6-1.1 1.3-1 1.4-1.1 1.5-1.6 1-.6-.6-.3-1.4 1-2.9 1.7-1.8 2.3-3.2 2.7-6.6.4-3.4.3-3.5-1.3-2.8-.7.3-1.4.4-1.6.4-.8-.4-3.3 2.7-3.9 4.8a300.1 300.1 0 0 1-.4 4.3c0 .3-.3 1-.7 1.3-.3.4-1 1.6-1.5 2.8l-1.2 2.6c-.5.7-.2 3.4.5 4.5a8.1 8.1 0 0 0 3.3 3c1 .2 2.6-.1 3-.7.3-.4.2-.5-.6-.7a16 16 0 0 0-2.5-.2c-.9 0-1.6-.1-1.6-.2 0-.5.8-.9 2-.8h1.4c0-.2-.1-.3-.3-.3l-.2-.4c0-.5.5-.5 1.5 0l1.3.4c.8 0 1 .7.7 1.6-.3.7-.2.8.5 1.4.8.7 1.6 1 2.2.5zm-3.2-5.2-1-.5c-.3-.5.4-2 1.3-2.3.3-.1.6-.4.6-.6 0-.4 1-.7 1.5-.5.6.2 1.3 1.5 1.2 2.3 0 1.4-1.4 2-3.6 1.6zm3.8-4.8c-.2-.2-.8-.5-1.3-.6-.8-.2-.9-.3-.9-1 0-1 .9-2 1.1-1.4l1.2 1.5c1 1 1.3 2 .7 2-.2 0-.6-.3-.8-.5zM66.3 40v-2.6c.1-1.3.2-1.6.6-1.5.2 0 .4.4.5.7.1.9.5 1.1 1.1.8l.6-.2c.4 0 .1 1.3-.6 2.5-.5 1-.8 1.3-1.4 1.4-.7 0-.7 0-.8-1zm-38 11.4c.7-.1 1.4-.7 2.3-1.7 2.1-2.3 1.8-2.6-1-1.2-1.3.7-1.3.7-1.3 0 0-.5 1.7-1.6 3.3-2 1-.3 1.7-.9 2-1.7.3-.9-.6-5.4-1.5-7.3-.3-.6-.4-1.2-.3-2.2l.3-2.7.1-1.4-.5 1.9c-.3 1.3-.6 1.8-1 2-.3 0-.4-.1-.2-1 .8-4.7.8-6 0-7.7-.5-1-1-.9-1 .4a16.9 16.9 0 0 1-2 6.9c-.3.7-.7 1.3-.9 1.3-.7.1-1-1.6-1.1-6.2-.2-4.8-.3-5.2-1.6-4.4-2.3 1.4-3.1 7-1.4 9.4.7 1 .5 1.7-.8 4.4-1.1 2.2-1.6 3.7-1.1 3.7.1 0 .4-.4.5-.9.3-.9.9-1.2 1.2-.7 0 .2 0 .6-.2 1-.2.5-.2.9 0 1.5.3.7.3.9 0 1.2-.4.4-.5.3-1 0-.4-.5-.5-.5-.5-.2a14 14 0 0 0 1.8 4c.2.3.3.7.2 1.2-.2.7 0 .9.4 1.2.8.6 1 .6 1.3-.2.2-.6.4-.7.9-.6l1.5.2c1.2 0 1.3.4.4 1.1-1.2 1-.7 1.3 1.2.7zm1.1-7.2c-.6-.8-.6-1.2.2-1.7.4-.4.8-.8.8-1.1 0-.7.7-1 1-.5.6.8-.5 3.7-1.3 3.7a1 1 0 0 1-.7-.4zm-2.5-5.4c0-.6 0-.6-.4-.2-.6.5-1.1.5-1.1 0s-.4-.5-.8 0c-.2.2-.4.2-.6 0-.3-.3-.2-.5.4-1.2.9-.8 1.5-1 1.5-.3 0 .4 0 .4.6 0 .9-.6 1.2-.6 1.2 0 0 .3.2.6.3.8.2.2.2.5 0 1-.3.9-1 .9-1 0zm48.1.3c2.3-2.9 3.8-6.7 3.1-8.4-.3-.7-1.5-.5-2.6.4-.8.8-1 1.1-1.2 2.6a10 10 0 0 1-.8 2.8c-.6 1.3-.6 1.6 0 2.4.5.8 1 .8 1.5.2zm85-22.2c-.1-.3-.2 0-.2.4 0 .5 0 .7.1.5v-1z"/>
</svg>
