<?xml version="1.0" encoding="utf-8"?>
<svg xmlns="http://www.w3.org/2000/svg" xmlns:svg="http://www.w3.org/2000/svg" version="1.1" viewBox="0 0 516 348">
	<title>Tom Kitten looks around the edge of a doorway.</title>
	<path d="M157 346.9c0-.4-1.2-1-1.5-.8-.4.3-.2.9.4 1 .8.1 1 0 1-.2zm-5.7-2c.2.3 1.2.3 1.5 0 .2-.2-.7-.8-1.3-.8-.4 0-.6.5-.2.9zm-4-2.1h.7l-.6-.7c-.4-.4-.9-.7-1.1-.7-.5 0-1.4-.4-2.2-1a11 11 0 0 0-3.4-1.6c-.2 0-.5-.1-.6-.3l-.8-.2c-.4 0-.6 0-.5.2a39.2 39.2 0 0 0 7.4 3.7c.2.3.8.6 1.1.6zm103.2-2.6c.8.2 1 .2 1.2 0 .2-.3-1.3-1.2-1.5-1-.3.4-.1.9.3 1zm-114-2.8h1l-.7-.6c-.3-.3-.8-.6-1-.6-.6 0-2.1-.8-2.3-1.1-.1-.1-.6-.5-1.2-.7l-1.4-.8c-.5-.5-2.3-1-2.4-.6-.3.4 1.2 1.5 4 2.9 1.8.9 3.5 1.5 4 1.5zm107.2-.6c0-.3-3.4-1.5-3.6-1.2-.2.3.6 1 1.6 1.3 1 .3 2 .3 2 0zm48.1-3c.6.3 1.5.3 1.7 0 .3-.2-.6-1-1.2-1l-1-.3a47.3 47.3 0 0 0-9.4-3.2l-4.4-1.1c-2.3-.5-3-.5-3.3-.3-.6.5-.4 1.1.3 1.1a148.8 148.8 0 0 0 12 3.2 47.6 47.6 0 0 1 5.3 1.7zm-60-1.5c0-.3-1.1-1-1.9-1-1.1 0-.4 1.3.8 1.5.8 0 1 0 1-.5zm-65.2 0h.4c.1 0 .2-.3 0-.4 0-.1-.2-.2-.3-.1-.2 0-.2.3-.1.4zm-2.7-1.2c.2.4.9.4 1 0 .1 0 0-.3 0-.4-.5-.2-1.2.1-1 .4zm214-.8c.6.3 3.6.2 4-.2.5-.6-.1-1.3-1.5-1.6-1.7-.4-4.2-.4-4.2 0 0 .3 1 1.4 1.8 1.8zm-216.1-.2c.2.3.8.3 1 0 .1-.1 0-.3 0-.4-.5-.3-1.2 0-1 .4zm31.3 0c0-.4-1-1-2-1.2-1.2-.3-1 .2.1.8 1.1.6 2 .8 2 .4zm-33-1c.3-.4-.3-.8-1.1-1-1 0-1 .4-.2.8.7.4 1.2.5 1.4.1zm61.6-.2c0-.4-1-1-1.8-1s-.7.5.3 1c1.1.4 1.5.5 1.5 0zm99.9 0c0-.2-.3-.3-.6-.4a7 7 0 0 1-1.3-.4l-2-.7c-.7-.1-1.8-.5-2.4-.8l-2.3-.7-2-.7c-.4-.2-1.3-.5-2-.6-.7 0-1.4-.2-1.4-.4l-.8-.2-1.3-.4a57.8 57.8 0 0 0-10.6-3.3c-.6-.3-1.7-.7-2.5-.8l-1.8-.5-4.2-1.4-1.8-.6a42.9 42.9 0 0 0-5-2l-2.6-.6-1.8-.6a4 4 0 0 0-1.6-.4c-.7 0-.8.1-.8.7 0 .3.1.7.3.7 2 .6 2.9.9 3.7 1.3l1.5.5a44.5 44.5 0 0 0 6.6 2c1 .3 2.2.7 2.6 1l2 .6c.6 0 1.6.4 2.1.6l1.5.5a176.2 176.2 0 0 0 18.3 5.4l2.2.7c.2.2.6.3 1 .3s1 .2 1.5.4a7 7 0 0 0 1.7.5c.6.1 1.1.3 1.2.5.2.3 2.6.1 2.6-.2zM215 327.2c.2 0 .4-.2.4-.3 0-.4-1.2-1-1.8-1-.9 0-.6.6.3.7.4 0 .7.2.7.3 0 .1.2.3.4.3zm-99.3-.8c.1.1.3.2.5 0 .2 0 .2-.2 0-.4-.4-.3-.7 0-.5.4zm37-.9c-.6-.5-1.1-.7-1.8-.7-.5 0-.9 0-.9.2 0 .4.7.8 1.2.8l1.2.4c1 .5 1.2.2.3-.7zm32 .9c0-.4-.7-.8-2.7-1.5-2.2-.7-3-.5-1.1.4l2 1c1 .4 1.8.4 1.8.1zm183.2 0c.5 0 .7-.2.7-.7 0-.4-.2-.6-1-.9-.6-.2-1.5-.3-2-.3-.9 0-1 0-1 .7 0 .6.1.6 1.2.6.6 0 1.2.2 1.3.3.1.1.5.3.8.3zm-253.2-.6c.2.4.7.4.7 0 0-.3-.6-.6-.7-.4-.1 0-.1.3 0 .4zm96-.6c0-.3-.3-.4-.8-.4-.6 0-.9.4-.3.6.6.2 1 .2 1-.2zm-3.3-1c0-.3-1-1-1.7-1-1 0-.8.5.2.9s1.5.5 1.5.2zm-97.2-.7a7 7 0 0 0 1.7.7c.6 0 .3-.4-.6-.8-.5-.3-1-.6-1.2-.9-.4-.5-1.4-.5-1.3 0l1.4 1zm248.2.4c.2-.1.4-.5.4-.8 0-.9-1-1.2-3.6-1.2-3.2 0-3.6.8-.8 1.9 1.2.4 3.5.5 4 .1zm-211-.3c0-.2-.2-.3-.5-.4-.6 0-.8.3-.4.6.3.3.9.1.9-.2zm29.6-.3c.2 0 .2-.3.1-.4 0-.1-.2-.2-.4 0-.1 0-.2.2 0 .3 0 .1.2.2.3.1zm-2.5-1.4c0-.3-5.1-3-5.7-3l-4.4-2a33 33 0 0 0-7.6-3.4c-.3.2.7 1.5 1 1.5.3 0 1 .3 1.7.8a5 5 0 0 0 1.5.8c.5 0 4 1.7 4.8 2.4l2.2.9 1.9.8c.3.3 2.2 1.2 3.1 1.5.7.2 1.5 0 1.5-.3zm171.4-1.3c.2-.4-.8-1.2-1.3-1.1-.6 0-1.5-.3-1.8-.7-.2-.2-1.2-.6-2.4-.8-1.2-.2-2.6-.6-3.2-.9-1.4-.7-3.1-1.2-5-1.6a473.2 473.2 0 0 0-13.4-3.7c-2-.6-3-.6-3.4-.1-.3.3-.2.5.6.9.4.3 1 .5 1.2.5.8 0 3.5.8 4.6 1.3 1.4.7 4.2 1.5 7.6 2.2 1.4.3 2.7.7 2.9.9.4.3 2.5 1 4.5 1.4l2.4.7c.6.2 1.8.4 2.5.4 1 0 1.5.1 1.6.4.1.4 2.4.6 2.6.2zM101 317c-.2-.2-.4-.2-.6.2-.3.3-.3.4 0 .6.9.6 1.5-.1.7-.8zm210.1-6.6c.5.4 2 .3 2.2-.2.2-.5-.4-.9-1.6-.9-.5 0-1-.1-1.2-.3a32 32 0 0 0-10.8-4.5 92.3 92.3 0 0 1-6.5-1.6c-.7-.3-3.2-.6-5.4-.9-4.8-.5-5.1-.5-5.1-1 0-.2.5-.8 1.2-1.4l1.5-1.1c.1-.1.2-.5 0-.8 0-.5-1.6-.9-2.9-.8-.8 0-1.5 0-3.5-.3-5.7-.8-7.3-1-7.5-.9-.3.2-1.5-.2-1.5-.5 0-.4.4-.6 2.5-1.3 1-.3 2.2-1.3 2.2-1.8 0-1.1-.3-1.2-6.6-1.3-7.2-.2-11-.7-12.4-1.7-1.2-.8-2-.9-2.3-.1-.3 1 .1 1.8 1.3 2l1.8.6c.7.3 10.3.8 11.9.6 2.1-.2 2 1 0 2-1.2.5-1.3.7-1.3 1.5 0 .7.1 1 .6 1.2a86.9 86.9 0 0 0 12.2.8c0 .1.7.3 1.3.3.7 0 1.2 0 1.2.2s-.2.8-.5 1.3a5 5 0 0 0-.5 1.9c0 .6 0 .8.5.8.3 0 .5.2.5.4 0 .5 1.5 1 4.1 1.4 3.9.6 6.4 1.2 8.6 1.9 1.2.4 3.1.8 4.1.9 1.7.2 2.8.5 6.4 2.2l3.3.9 2.2.5zM241 303c.5-.4.3-1.1-.4-1.1l-7-.5c-9.3-.6-8.7-.6-8.7.2 0 .6 0 .7 1.8.7 1 0 2.1.2 2.4.4l3.3.4c4.9.4 8.1.4 8.6 0zm-107.6-8.1 6.3-.5a74.2 74.2 0 0 0 15-1.8c.2 0 .7-.2.9-.4.5-.5-.7-.7-3.5-.4-2.8.3-6.6.7-12.2 1-7.1.5-8 .7-7.7 1.8.2.4.4.4 1.2.3zm10.6-4.7c0 .4 1.4.4 3.6 0a167.6 167.6 0 0 1 16.8-2.1l5.7-.7c4.3-.4 6-.9 6-1.6 0-.4-.5-.4-3.3-.2-1.8 0-4 .3-5 .4a258.7 258.7 0 0 1-18 2.3c-.4.2-1.8.4-3 .6-2 .3-2.8.7-2.8 1.3zm73.9-1.5 5.5-.3c5.7-.3 7.2-.5 7.2-1 0-.3-1.8-.6-5-.7-3.6-.1-17.4.4-17.7.7-.2.1-.4.5-.4.8 0 .6.2.7 1.4.7 1.9.2 7.8 0 9-.2zM191 284c2.3.7 5.3.5 14-1 3-.4 5.4-.6 8.4-.7 3.2 0 4.6-.2 5.6-.5 1.2-.4 1.6-.4 2.3-.2.8.3 1.1.3 1.9 0a6 6 0 0 1 2-.5 86.7 86.7 0 0 1 8.4-1.2 359.8 359.8 0 0 0 20-3c.5-.4.5-1.8 0-3.1-.4-1-.9-5.3-.8-7.6l-.2-2.5c-.2-.8-.2-1.2 0-1.5.6-.7 2.4-1.5 3.2-1.5a8 8 0 0 0 2-.4c1.2-.4 1.4-.4 3.1 0 1.5.4 2 .4 2.5.2.4-.1 1.2-.3 2-.3.6 0 1.6-.1 2.2-.3.8-.2 1.1-.1 2 .3a5 5 0 0 0 4.1.1c1.4-.4 1.3-.4 2 .2.9.7 2.4.7 4.2-.2.8-.5 2-1 2.4-1.1 1.3-.4 2.6-1.7 3.4-3.4.7-1.5.7-2 .1-4.3l-.4-2c-.4-1.5-3.7-3.8-5.7-3.8-.4 0-1.3-.8-3-2.4l-2.3-2.4-.2-2.3c-.2-2.7 0-3.7 1.4-11.7.3-2 .4-3.4.3-6.9-.2-4.4.1-12.5.6-14.4.2-1 2.7-3.9 3.9-4.6l2.2-2.4c1.2-1.6 2-2.3 2.9-2.8.7-.4 1.4-.9 1.6-1.2l1.7-1.5c1.4-1 2.5-2.3 3.6-3.8l1.7-2c1-1 2.3-3.3 3.1-5.5.3-.5.6-1 .9-1 .2 0 .6-.1.8-.4.3-.3.3-.4 0-.4-1 0-1.5-4.9-.6-5.7.6-.6 2.2-1.1 4.4-1.4 2.2-.2 4.7-.9 5-1.3l1-.6 1.5-1.5c1-1.4 1.9-2 3.5-2.4 2.6-.7 3.3-1.3 3.5-3.1.2-1.1.3-1.3 1.4-2 .8-.5 1.2-.8 1.3-1.5.2-.8.9-1.9 2.3-3.4 1-1.2 1.3-2 .7-3-.4-.9-.3-1.3 1-3.1.4-.5.8-1.4 1-2 .3-1.1.3-1.4 0-2.2-.7-1.2-.6-1.5.1-2.6a4 4 0 0 0 .7-1.9c0-.4.2-1.6.5-2.5.3-1 .6-2.2.6-2.7a9 9 0 0 1 1.2-3.5 11 11 0 0 0 1.4-5.6c.3-3.1.3-4.4-.4-10.8-.1-1.2-.9-3.7-.9-3 0 .7-1.2 1.2-2 .8-.9-.4-.7-.4-4.8 1.4l-2.9 1.8c-.8.7-2 1.5-2.6 1.8-.7.2-1.6.8-2 1.2l-1.4.6c-.5 0-1.2.4-3.7 2-1.4 1-2.3 1-3.5.4-.6-.3-1.3-.5-1.7-.5l-3-.6-3.9-.9c-3.7-.7-5.1-1.3-5.9-2.2-1.1-1.3-1.4-2.2-1.4-5.1 0-1.7 0-2.8.2-2.8.1 0 .2-1 .2-2.1 0-1.2-.1-1.6-.2-1 0 .7-.2 1.2-.3 1.2-.2 0-.3.6-.3 1.3 0 2.6-.9 1.1-1.1-1.8v-3c.2-1 .1-1.8-.3-3.8-.2-.8-1.4-1.4-2.6-1.4a20.9 20.9 0 0 0-8.8 3.3l-1.6 1.1c-.2.3-.6.6-.8.6-.8 0-2.2.9-2.6 1.6-1 1.6-1.8 2.4-2.5 2.4-1.2 0-2.5 1.7-4.7 6.2-1.8 3.7-2 4-2.7 4-.6 0-.9.4-1.7 1.6l-1.3 2.4c-.3 1-1.5 1.9-2.3 1.9-1 0-1.2-.9-.9-3.3.4-2.4.3-7.7-.2-15.7l-.3-5.1.6-1.3.6-1.3-.3-9-.2-23.4V53.2l-.6-.9c-.5-.7-.6-1-.6-3.6 0-1.6.1-3.1.4-3.8.2-.5.3-2.1.3-3.6 0-1.4.2-3.5.4-4.6.3-1.9.3-2.2-.2-3-.4-.9-.4-1.4-.2-3 .3-3 .4-9.6.1-10.3-.2-.5-.2-.5-.5.2-.2.5-.5 2.5-.6 4.5 0 2-.3 5.3-.5 7.2a46 46 0 0 0-.2 5.5v7.8c-.4 9.5-.6 28.5-.6 55.5a1167 1167 0 0 1-.6 62.8 668.3 668.3 0 0 1-.1 15.9 54.5 54.5 0 0 1-.7 14.2c.2.3.3 2.8.4 6.6 0 8.1 0 9-.3 9.9-.3.6-.3.9 0 1.2.2.2.3.7.1 1.5l-.3 2.8c0 .9-.2 1.6-.4 1.6 0 0-.2.7-.2 1.5 0 1.1.1 1.5.5 1.8.7.4.7 1.9.1 2.8-.2.3-.4 1-.4 1.7v4.4l.3 8c.3 4 .3 4.8 0 6.3-.4 1.3-.5 4-.6 12.3a44.7 44.7 0 0 1-1 13.8l.2 1.5-3.6 1c-2 .5-4 1-4.7 1a55.6 55.6 0 0 1-8 1.5 111.8 111.8 0 0 0-9.3 1.5c-4 .6-5.1 1-6.1 2.2-.6.7-.6.7-3.5.4-3.8-.3-11.7-.2-14 .2-3.2.6-4.8 1-5 1.1a3 3 0 0 1-1.6.3v-.6c.3-.4.4-3.3.4-9.2 0-6.5 0-8.9.4-9.8.2-1 .3-2.3 0-6.8l-.1-8-.4-14c-.2-7.4-.3-13.3-.2-16.2a168.4 168.4 0 0 0-.7-26.7c.2-.4.4-2 .5-3.4.1-2.4.2-2.8.7-3.4.5-.5.6-.7.3-.9-.2-.1-.3-1-.3-2.8a106.2 106.2 0 0 0 .2-4.1v-1.4c-.2-.5-.4-.7-1-.7-.7 0-.7 0-1-1.6a75 75 0 0 1 .6-13.4l.4-.7V164.6c0 5.5 0 6.2.4 6.4h.6v-14.5l.1-14.4.4-23c.2-24.7.3-37 .6-43.7a192 192 0 0 0-.4-29.5 634.5 634.5 0 0 0-.6 44.5c-.2 3-.3 7-.4 13.8 0 4.4-.2 8.3-.3 8.7a416.6 416.6 0 0 0-1 26.7c-.2.1-.3 1.9-.5 3.9l-.5 6.4a195 195 0 0 0-.5 26.4c.5 9.8.3 19-.3 19.4-.2.1-.8.2-1.4.1-.7-.1-1 0-1 .2 0 .4 1.6 1.8 2 1.8 0 0 .2.3.2.8 0 .8 0 .8-.8.6h-.8l1 1c.8 1 .8 1.1.8 3 0 2.1.3 3 1 3s.7 1.2-.1 7.6c-.3 1.6-.3 2.4 0 21 .4 17.8.3 25-.2 26-.2.6-.6 1-.8 1.2-.6.2-.5.5.3 1.5.6.8.6 1.1.7 3.5 0 1.4-.2 3.3-.3 4-.4 2.2-.4 3.7.2 4.4.6.9.6 4.5 0 5.1-.5.5-.6.4-1.4-.4-1-1.1-3.2-2.7-3.8-2.7-.5 0-3.2-1.4-4.8-2.5-.7-.5-1.5-1-1.7-1a35.7 35.7 0 0 0-21.2-10.2c-2.1-.5-3.3-1-4.1-1.7-.4-.3-.6-.6-.3-.7.7-.2 0-1.3-1-1.3h-.6l.5.4c.5.5.8 1.1.4 1.1s-4.3-1.4-5.4-2c-.8-.4-2-1.2-2.9-2a16 16 0 0 0-2.4-1.6 14 14 0 0 1-1.8-1.2 15 15 0 0 0-4-2.2c-.3 0-1-.5-1.8-1.2l-2.5-1.9c-2.4-1.3-3.5-2-4-2.9-.4-.8-.4-.9 0-2.2.4-1.1.4-2 .1-8l-.4-8.2a788.4 788.4 0 0 1 .1-43.7c-1-1-1.3 2.8-1.7 24.4a264.6 264.6 0 0 0 .6 26.8c.2 5 .1 5.2-1.6 4.2-1.2-.7-2.6-2.9-3.6-5.7a62 62 0 0 1-1.7-5.2l-1.1-2.5c-.9-1.3-1.2-3.3-.9-5.8.1-1 .2-2.2.1-2.6-.3-1.3-1-19.4-.9-28.8 0-5 0-6.9-.4-8-.2-.8-.4-2.3-.4-3.3 0-1.2-.1-1.9-.4-2-.7-.7-1 .8-.8 4.3a557 557 0 0 0 1.2 32.5c0 4.2 0 5.5-.3 5.9-.3.4-.4.3-.8-.2-.3-.3-.5-.8-.5-1 0-.2-.2-.8-.5-1.3-.2-.4-.6-1.3-.7-2 0-.6-.4-1.6-.7-2.3-.5-1.2-.4-2 .3-2.7a51.3 51.3 0 0 0-1.8-16.5c-.3-.9-.6-2.9-.6-4.6-.1-1.7-.3-3.4-.5-3.8a44 44 0 0 1-1-7.7c-.1-2.9.2-3.2 2.5-3a5 5 0 0 0 2 0c.2-.2.9 0 2 .5a59 59 0 0 0 8.2 3.2 198.8 198.8 0 0 1 13.7 4.6l6.8 2.2c4.8 1.5 6.8 2.5 6.8 3.3 0 .4 3.2 2 5 2.5l1.8.7c1 .4 2 .8 2.4.8l1.4.6 1.3.5c.2-.1.3 0 .4 0 .1.2.4.3.6.3.2 0 1 .3 1.7.7.7.4 1.7.7 2.3.8a8 8 0 0 1 2 .8 80.2 80.2 0 0 1 10.8 5.3c.5.4.6.4 1.4-.1.4-.4 1-.7 1.4-.6.7 0 .8-.3.2-.8l-.7-1c0-.3-.4-.6-.6-.6-.3 0-.4-.2-.4-.6 0-.6.1-.7.6-.6l1.2-.3c.3-.2 1-.3 1.5-.3l1-.2c0-.2-.9-.7-1.9-1.1-2-1-4.2-3-3.7-3.7.2-.2.6-.3 1.1-.2l1.7.3h1v-3.6l-.1-5.3.1-13.1a73.7 73.7 0 0 0-.3-15.4l-.1-4c-.4-1-.6-5-.3-5.1.4-.3.4-1.3 0-2.6-.2-.7-.2-1.2.1-2.1.3-.9.4-1.9.3-3.8-.1-2.2 0-2.9.3-3.7.4-1 .5-2.7.6-15.4a395.1 395.1 0 0 0-1-45.8c-.4-5-.2-7.5.5-7.5.3 0 .3-.3.2-1.7a6 6 0 0 1 .2-2.8c.3-.7.4-2.1.5-4.3V44c0-6.3 0-7-.4-7.4-.5-.4-.5-.4-.5.7a142 142 0 0 1-1.5 26 165 165 0 0 1-.5 6 10 10 0 0 0 .3 3.6c.3 1.4.5 4.2.7 12a4869.2 4869.2 0 0 0 .5 20.7l-.1 8c0 4.3-.2 9.2-.4 11-.2 1.7-.3 4.9-.3 7a59 59 0 0 1-.3 5.5c-.5 4.4-.7 11.2-.4 21 .3 9.3.4 18.1.2 22.8-.1 3.8-.2 4.6-.7 5.5-.7 1.3-1.7 1.6-2.5.7l-.6-.9c0-.1-.4-.3-.9-.3a83.3 83.3 0 0 1-9.8-3.6 34 34 0 0 0-7.3-3.4c-.6-.2-1.5-.6-2-1-.5-.3-1-.6-1.3-.6a53.6 53.6 0 0 1-9.9-3.5c-.5-.2-.8-.6-1-1.2-.3-1-.5-1-1-.4-.2.3-.5.4-1.2.2-1.7-.3-2-.7-1.9-3.7 0-1.5 0-3.5-.2-4.6l-.3-5.4c-.2-5.5-.6-11.4-.8-11.8a51 51 0 0 1-.3-5.8l-.2-7.2c-.1-1.5-.2-7.4 0-15 0-1.6-.1-2-.4-2-.9 0-1.1 2-1.1 9.6a206.3 206.3 0 0 0 .9 22.1 121.6 121.6 0 0 0 .5 6.8l.8 14.4c.2.6 0 1-.7 1.6-.5.5-1 .9-1.2.9-1.1.1-1.7 0-2.1-.8-.3-.5-.6-.7-.7-.6-.3.4-1.6.4-2.6 0-.5-.3-2.2-1-3.8-1.5l-2.9-1-.7-1.4a6 6 0 0 1-.7-2.7 30.7 30.7 0 0 1-.8-10c0-3.6-.1-7-.3-7.4a257 257 0 0 1-1.4-50.6c.3-4.4-.7-3.6-1.4 1.1-.4 2.9-.5 4.6-.4 13.2.1 15.3.2 17.8.5 22.3.4 5.4 1 15.5 1 19.1a83 83 0 0 1-.7 12c-.4.4-1.4.4-1.8 0-.2-.2-.2-4.6-.2-13.4.1-10.8 0-13-.2-13-.5 0-.6.6-1 3.6-.4 2.5-.7 2-1-1.3a92.9 92.9 0 0 0-.4-7l-.2-3.1-.3-3.6-.2-11a160.7 160.7 0 0 1 .4-25.6c.3-2.7.1-3.8-.5-3.8-.5 0-1.1 3.6-1.4 8.3a296.1 296.1 0 0 0 .5 29.6l.5 9.3.5 9.5c.3 6.6.3 6.6 1 7.2.6.6.7.8.5 2.7-.5 6.1-.8 8.8-1 9-.3.2-.7 0-1.4-.5-1-.7-1.1-1-1.4-2.5-.4-2.4-.9-9.3-.7-11 .2-1.7 0-2.6-.7-2.6-1 0-1.2-.9-1.7-9a247.4 247.4 0 0 1-1-22.8c-.6 0-.7 1.1-.7 9.8 0 7.5.1 10.6.8 16.4l.3 4c0 1.5.6 5.9 1.3 9.4.3 1.7.3 6.2 0 6.7-.2.3-.4.3-1.5 0-1.5-.4-1.8-.8-1.5-1.9a58.6 58.6 0 0 1-.1-7.4c0-6.8 0-6.3-.4-6.3-1 0-1.7 5.2-1.3 9.5.2 2.8 0 4.3-.8 4.3-.5 0-4.7-1.5-5-1.8-.3-.3 0-14.2.3-15.5.3-1.3.2-2-.4-2-.4 0-.8.8-1.2 2.6-.2.7-.4 4.2-.4 7.8a57 57 0 0 1-.6 8.4c.2 1 0 1.5-.6 1.5-.7 0-.8 1-.6 3.8.2 2.7 0 3.3-1.2 2.8-.5-.3-.6-.5-.6-1.8a14 14 0 0 0-.6-4.8 40.4 40.4 0 0 0 1 16.1c.5 1.7.8 6.6.9 13.9v4.9l-.9.7-1.2 1.2c-.1.2-.4 3.3-.6 6.7-.5 6.9-.5 6.5 1 12.7a130.4 130.4 0 0 1 1.7 7c0 .4.2 1 .4 1.4.8 1.4 2.4 5.5 2.6 6.9.3 1.3 1.5 2.6 2.5 2.6.8 0 .9.1 1.2 1.1l.5 2 .2 2.2c0 1.7.4 2.8 1.6 4.1l1.5 2.2c.8 1.4 1.5 2 2.3 2.3.7.3.5.7-.7 1.5-2 1.3-2.8.8-3.2-2.3-.1-.7-.4-1.5-.7-1.7l-1-1.5c-.5-1.2-1.2-1.2-2.3 0a7 7 0 0 1-1.9 1.2c-1 .4-1 .6-1.2 1.7l-.2 2.3c0 .6-.1 1.3-.3 1.7-.2.6-.2.8.2 1.1.3.4.4.4 1 0l.9-.8c.2-.6 1.3-.5 3 .1 3.9 1.5 3.8 1.5 5.3.8a45 45 0 0 1 5-1.9c.4 0 .3 1 0 1.3-.2.2-.5 1-.7 1.8-.2 1.3-.4 1.6-1.1 2-1.6 1-11 3.2-17.7 4.4-2.5.4-2.5.4-3.3-.1-.6-.5-1-.6-2.9-.6-1.2 0-2.6 0-3.2.2-2.8.6-6.2 1.2-9.7 1.7l-2.4.3v.8c.1 1 .7 1 3 .5.7-.2 2.5-.5 3.9-.6l4-.7c.7-.2 2.4-.5 3.7-.5l2.3-.2.3.7c.5 1.2 1 1.7 1.7 1.7.6 0 2.3-.3 7-1.5a47 47 0 0 1 8.3-1.6l2.6-.7a4 4 0 0 1 1.5-.4l1.9-.4c1.2-.4 2.6-.3 2.6.2l-.5 1c-.6.7-.7 1.7-.1 2.2.2.3.3.6.2.7a8 8 0 0 1-2.6 1.3l-.4-1c-.3-.7-.5-.8-1.4-1-1.7-.2-5 .7-7 2a8.8 8.8 0 0 1-4.3 1.6c-2.7.4-4.3 1.9-3.5 3.2.5.7.4 1-.2 1.2-1.2.4-.6 1.7.8 1.7.7 0 3.6-.8 5.6-1.6.4-.2 1.1-.9 1.6-1.5 1.2-1.8 1.8-2.3 3-2.8 1.9-.7 2.3-.6 2.2.5 0 .9 0 1 .6 1.3.6.2 1.2 0 3.2-.6 3-1 5.8-1.3 5.8-.8 0 .8-2.1 1.8-4.7 2.3-1.3.3-3.2.8-4.1 1.2l-2 .7c-.5 0-4.4 1-8 2.2l-3.3.8c-1.2.2-1.4.1-2-.5-.7-.6-.9-.7-2.6-.6-1.7 0-1.8 0-2.1-.7-.6-1-1.3-1.3-4.2-1.4-5-.2-9.4.7-9.4 1.9 0 .3 1.6.7 3.3.7.9 0 1.5.4 1.5 1 0 .4-1.7.8-5.3 1a49.9 49.9 0 0 0-6.6.9l-3.5.5a94 94 0 0 1-10.2 1.3c-1 0-1.5.1-1.8.6-.2.3-.3.7-.2 1 .1.6-.7 1-3 1.2-1.5.2-2 .1-1.9 0 .1-.3.4-.4.6-.4.2 0 .5-.2.6-.4.3-.3.2-.4-.3-.8-.6-.4-1.1-.4-3.4-.3a187.1 187.1 0 0 1-16.2 2.3c-.4 0-.7-.2-.8-.6-.1-.5-.5-.7-3.1-1.3-2.2-.5-3.7-.7-5.4-.7-2.2 0-2.4 0-3.5.8-1.2.9-1.4 1.7-.6 2.5.3.2.6.6.6.8 0 .4-2.7.6-5 .3-4.6-.6-4.8-.6-6 0-.8.5-1.4.6-3.5.6-1.3 0-2.5-.1-2.6-.3l-.8-.2c-1.4 0-1.7 2-.3 2.4.9.3 11.4.4 15.7.1 2.3 0 3-.2 3.5-.7 1-.6 1.2-.7 1.6-.1.4.4 2.7.4 3.6-.1.8-.4 1.6-.4 2 0 .2.4.5.4 1 .3a120 120 0 0 0 9.2-1.3c.7-.1.8 0 1 .4.1.5.3.5 1 .4.5 0 1-.4 1.2-.6.2-.3.4-.4.5-.2.4.6 1.5.6 3 .1 1-.3 2-.4 2.3-.4 1.5.4 8.2.1 9.4-.4.4-.2 1.7-.2 3.3-.2 2.5.1 2.5.2 3.2 1 .7.8.8.8 2.3.8 2.3 0 2.9-.7 1-1.4-1-.4.3-.7 5.3-1.2 1.5-.1 3.4-.4 4.2-.7 2-.5 3-.5 3.2 0 .3.7 5.3 3 7.2 3.4 1.6.2 1.8.2 2.1-.2.2-.2.3-.6.2-.8-.1-.4-3.5-2.2-4.1-2.2l-.7-.4c-.3-.3-.2-.5.4-.8.7-.5.7-.6 5.9 1.9 1 .5 2.5 1 3.2 1 1.2.2 1.3.1 1.6-.5.4-.9 0-1.4-1.1-1.6-1-.3-1.2-.8-.4-1.6.8-.7.9-1.1.3-1.9-.3-.4-.6-.4-5-.1-3.5.2-5 .2-5.6 0-.6-.2-.7-.3-.4-.5.7-.4 4.8-1 6.7-1.2 1.4 0 2-.2 2.4-.6.5-.5.6-.5 1-.2.7.5 2.3.5 3.3 0 .6-.2.8-.2 1.4.5.6.6.6.7.2.7-.8 0-1.7.9-1.7 1.5 0 .8 1.3 1.8 2.7 2 .7.1 1.6.4 2 .7.3.3.8.5 1 .5l.8.4c.7.8 3.5.4 3.8-.6.2-.5 0-.6-1-1.2-1.7-.9-2.2-1.3-2.2-1.8v-.5l3.2-.8c6.3-1.7 6.6-1.7 9.6-.2 2.7 1.4 4.6 1.6 5 .5.5-.9.2-1.4-1.4-2.2a6 6 0 0 1-1.5-1c-.3-.5 1-.2 2 .4 1.2.9 2.5.9 3 .1.4-.5.4-.6 0-1.2l-.3-.8c0-.4 1.1-.4 3 0 1.3.4 1.6.4 2.5 0a7 7 0 0 1 2.7-.3l2.2-.1 3.7-.4 5-.7c5.6-1.2 6.7-1.3 10.3-1.3 3.6 0 5.6.4 8 1.4.4.2 1 .3 1.3.3.8 0 3 .8 4 1.4.3.3 1.2.7 1.9 1a66 66 0 0 1 5.8 2.5l2.9 1.2c.2 0 .5.1.6.3.2.2 1.5 1 3 1.5 1.7.7 2.8 1.4 3.4 2 .4.5 1 1 1.3 1l1 1a7.8 7.8 0 0 0 4.6 2.8l1.8.6zm-126.3-6c-.2 0-.4-.2-.4-.3 0-.2.2-.3.4-.3s.4.1.4.3l-.4.2zm15-.2-.4-.1c-.1-.1 0-.3 0-.4h.5l-.1.5zm160.8-.6c-.1 0-.3-.2-.3-.4 0-.3.2-.4.3-.4.2 0 .3.1.3.4 0 .2-.1.4-.3.4zm-150.7-5.7c-.5.2-.8-.7-.3-1 .6-.4.8-.3.7.3 0 .4-.3.7-.4.7zm190.6-14.4a9 9 0 0 1-1.8.5c-.6 0-1-.8-1-1.7 0-1.4-1-1.4-1.5 0-.3.9-1 1.1-3 1.3-2 0-2.9-.2-3.7-1.4l-.5-.7-1.1.5c-1 .4-1.3.4-2.6.2-2.2-.5-6-3.5-6-4.8 0-.3-.1-.8-.4-1-.3-.4-.6-1.2-.7-2a9.7 9.7 0 0 0-1-3.7c-.2-.2-.6-1-.8-2a37 37 0 0 0-1.5-4.3l-1.2-4a14 14 0 0 1-.9-5c0-1.8 0-2 .9-2.8 1-1 1.2-2.6 1-6.2-.1-2.8.1-3.7.8-2.8.4.5.4.5 1-.6.3-.7.7-1.1 1.2-1.3.4 0 1.1-.3 1.5-.5 1.3-.7 1.3-.3.1 1.4-1.8 2.5-2.3 3.5-2.2 4.3 0 .6.1.7 1 .7 1.6-.1 2-.4 3-1.8 2-3 2.6-3.7 3.4-4 .4-.3 1.6-1.1 2.5-2a9 9 0 0 1 2-1.3l1.1-.3c.5-.3.7-.5.7-1.2 0-1-.3-1.2-2-1.2-.7 0-1.2-.1-1.2-.2 0-.4 2-1.2 3.4-1.5 1.3-.2 1.8.2 2 1.7l.4 1.9c.3 1 .4 6 .1 6.7-.2.7-1.4 1.2-2.9 1.1-1.9 0-3.4 1-7 4.5-2.7 2.4-3.3 4.9-1.4 4.9.3 0 1-.4 1.7-1 .6-.5 1.3-.9 1.5-.9a5 5 0 0 0 1.4-.5c1.2-.6 1.6-.7 1.6-.2 0 .6.7.8 1.1.3 1.7-2.2 2.9-2.7 3.7-1.7.7.8.5 2.4-.3 3.3-.4.4-1.4 1.1-2.4 1.6L268 231c-.4.3-1 .5-1.6.4-.7 0-1.1.1-1.3.4-.3.5-.6 2.3-.5 3.1.1.6.2.7 1.7.6 1 0 2-.3 2.4-.6 1.1-.7 1.5-.6 2.3.2 1 1 1 2.3 0 3-1.8 1.2-4.3 4.5-3.8 4.9.5.3 2.5-.2 3.1-.7.8-.7 1.2-.5 2 .8.5.6 1 1 1.2 1l1.4.8c2.3 1.8 3.7 2.7 5 3 2.2.5 3.2 1.1 3.9 2.4.5 1 .5 2-.2 3.9-.6 1.8-1 2.2-3.2 3zm-9.6-3.1c2-1 2.8-2.5 1.8-3.4-.6-.7-1.1-.5-2.2.6-1 1-1.4 2.1-1.1 2.9.1.4.4.4 1.5-.1zm-149.4 1.6c0-.3 1.6-1.2 2.2-1.2.4 0 .2.8-.4 1.2-.7.5-1.8.5-1.8 0zm-2.3-3.5-1 .7v-.6c0-.4.1-.8.4-1.1.3-.3.6-.6.6-.8 0-.3 1.5-1.8 2.3-2.2.3-.2 1-.3 1.4-.3.6 0 .8 0 .8.6 0 .7-.6 1.3-2.3 2.3l-2.2 1.4zm-12.2-3.8c-.4.7-.4.7-.8 0-.5-.9-.4-2.1.1-2.1.6 0 1 1.4.7 2zm10.7-.8-1.2 1.1-.2-.9c-.2-.7-.4-.9-1.2-1-.5 0-1-.2-1.1-.3-.3-.3 1.8-2.4 3.2-3.3 1.5-1 1.8-1.6 1-2.2-.4-.4-1.2-.1-2.6.8l-1.4.8c-.6 0-1.5-1.3-2.4-3.3l-2-4.3a29 29 0 0 1-1.6-4c-.2-1-.8-2.6-1.3-3.8-1.8-4.4-2-5.7-1.3-6.4.8-.9 1.5-.5 2.4 1.2l1.5 3.1c1.7 3.2 3.5 7.6 4 9.9.8 3.4.9 3.7 1.4 4.6.4.6.7.9 1 .8.4 0 .5-.4.5-1.7 0-.8-.2-2.2-.4-3-.7-3.5-.7-3.3-.2-2.9.5.6 1 1.6 1.9 3.8.5 1.2 1 2.2 1.6 2.7.6.5 1.2 1.5 1.6 2.4.7 1.7.7 2-1 3.8a29 29 0 0 1-2.2 2.1zm-14.4-24.4c-1 .2-2.5-5.9-2.2-8.6.1-1.1.2-1.1.7-.7a8.2 8.2 0 0 1 1.9 6.3c0 2.4 0 3-.4 3zm148.2-6c-.2 0-.3-.3-.3-.7 0-.3.1-.6.3-.6l.2.6c0 .4-.1.7-.2.7zm-142.7-.9v.6c-.1 0-.2-.1-.2-.4 0-.3 0-.4.2-.2zm146.7-.4c0 .4-.2.8-.3.8-.5 0-.6-3.5-.3-8.4.3-4.5.3-5.6 0-7.5a53 53 0 0 1-.7-4.9c-.2-2.9 0-3.5 1.5-4.1 1.2-.5 1-1.6-.3-2.2-1.7-.8-1.7-.5-1.6-13 0-6.4.1-11.5.3-11.6.1-.1.7 0 1.4.4.7.3 1.8.6 2.8.7 1.7 0 1.8 0 2-.6.3-.5.3-.7-.2-1.2a15 15 0 0 0-5-2.4l-1.1-.1-.3-1.7c-.2-1.5-.1-1.8.5-3 .4-.8 1-2.3 1.1-3.4.6-3.1 1.6-3.8 2.4-1.6.4 1 .9 1.7 1.8 2.5.8.7 1.3 1.3 1.4 1.9 0 .6.6 1.3 1.7 2.3 2.2 2.2 4.5 2.6 4.5.9 0-.7-.4-1.2-1.8-2.2-1-.9-3.7-5-3.4-5.3 0-.1.6 0 1 .3 2.3 1 2.8-.1 1-2.1-1.4-1.4-2-1.7-2.8-1-.7.4-.8.4-1.4-.3-.7-.9-.7-1.1 0-1.6.4-.3.6-.7.6-1.6 0-1.5.4-2 1.3-1.5 1.1.5 1.7.4 2-.4.3-.5.3-.7 0-1.1-.3-.3-.5-.6-.5-.8 0-.6.8-.3 1.2.4 1 1.5 1.6 1.4 1.8-.4 0-1.4 0-1.3 2.5-1 1 .2 1.1.2 1.6-.7l.6-1.2c0-.6-1-1.4-1.7-1.4l-1.6-.4c-.9-.4-1-.4-2 .2l-1.9 1.4c-.7.7-1.4.8-2.3.3-1-.5-1.8-.2-2.6.8-.3.5-.9.9-1.2.9-.8 0-1.5-1-1.5-2s.4-1.4 1.4-1.4c.7 0 .8 0 .9-.7a6 6 0 0 0-.6-2.3c-1-2.2-.8-3.1 1.2-5 .9-.9 1.8-2.1 2.3-3.2a34.8 34.8 0 0 0 4-6.7c2-4 3-5.2 4-5.2.4 0 1-.5 2.3-1.9 2.8-3 3.7-3.9 5-4.5l2.5-1.6c2-1.6 3.5-2.3 4.7-2.3 1.7 0 2.3 1.2 1.5 3l-.9 2.1c-.3.8-.8 1.4-1.2 1.5-.8.3-1.5 1.7-1.5 3 0 .7-.1 1.3-.3 1.4-.2 0-.2 0 .1.1.3 0 .5.1.5.2.2 1.6.1 4.9 0 4.9-.2 0-.3.1-.3.4 0 .6.7-.2.9-1 0-1 .7-.8 1.2.3.6 1.3 1.3 1.4 1.5 0 .3-1.6.7-1.8 1.4-.4.5 1.1.5 1.2.2 3.4l-.4 2.8c0 .6 0 .6 1-.5 1-1 1-1.3 1.2-3 .1-1 .3-1.8.4-1.8.5 0 1 1.2 1 2 0 .6-.5 1.5-2.2 3.5-.4.4-.6.8-.6 1 0 .4-2 3.1-3.1 4.5-.7.7-1.4 1.7-1.6 2.2-.4.8-.4.9 0 1.3.3.4.5.4 1.1.1 1.2-.5 1.9-.4 2 .5.2.4.4.8.6.8.5 0 1.5-1.1 1.5-1.7 0-.3.3-1.1.7-1.9.4-.7.7-2 .8-2.8.2-1.4 1.2-3.2 1.6-2.8l.3 5.4c0 3 .2 5.4.4 5.6.3.3 1 .4 1.6.1.3 0 .7-.7 1-1.4l.7-1.2-.6-1c-.7-.9-.7-.9-.3-2.2.6-1.8.5-4.2-.4-6.2-.7-1.7-.6-2.3.5-2.3.9 0 1.5.5 1.9 1.9.2.5.6 1.4 1 1.9 1 1.2 1.3 3 .9 4.6-.2.6-.3 1.7-.3 2.4s-.1 1.9-.3 2.6c-.4 1.5-.1 2 1 2.2 1.6.4 2.5-2 2.5-7 0-2.2.2-3.6.4-3.6.3 0 2.5 2 2.5 2.5a902.7 902.7 0 0 0 1.1 10.5l.3.8.6-1.2c.3-.6.6-1.5.6-2 0-1 .5-2.2 1-2.3.2-.1.5.2.6.6.6 1.4 1.5 1.3 1.8-.4.2-1-.3-4.6-.9-5.7-.2-.5-.7-1-1.2-1.3-.8-.4-1.2-1.3-1.5-2.8-.2-1.3.7-1.1 2 .4l1 1.2 1-.5c1-.5 1-.5 1.7.3.6.7.6.7 1.5.2 1-.5 1.3-1.1.4-1.1-.3 0-.5-.2-.5-.6 0-1.2 2-2.8 3.6-2.8.4 0 1-.4 1.7-1.1.7-.7 1.3-1 1.8-1 .4 0 1-.3 1.3-.6 1-1 .7 0-.9 3a33 33 0 0 0-1.4 3.1l.6.4c.3.1.8.4 1 .7.6.5.6.5 1.7-.6a20 20 0 0 0 3.6-6.1c0-.3.1-.6.3-.7.4-.4.5 0 .9 2.9.1 1.2 0 1.7-.5 3.2-.8 1.8-.9 2.4-.5 2.7.2 0 .3.4.3.6a21 21 0 0 1-3.7 5.2c-1.7 1.8-2.1 3-1.8 5a5 5 0 0 1 0 2.2c-.3.9-.3 1.3.2 2.9.7 2.3.7 3-.1 4.9-.4.8-.7 2-.7 2.4 0 1.1-1.6 3.4-4 5.8-.8.8-1.6 1.8-1.7 2.2-.1.6-1.9 2.3-2.4 2.3l-1.9.7c-1.3.5-2 1-3 2-1.1 1.3-1.5 1.5-3 1.9-1.8.4-1.8.4-2.7-.2-.5-.3-.9-.8-.9-1 0-.4 2-1.6 2.7-1.6.4 0 1-.7 1-1 0-.4-1.2-.4-1.4 0-.3.4-1.5.3-1.9-.1-.2-.3-.4-.7-.4-1.1 0-.6 0-.7-.6-.7-.5 0-.7.2-.7.6 0 .3.2.7.4.9.5.5.8 2.6.4 2.7l-.4 1.4c-.2 1.5-.6 2-1.8 1.8-1-.2-4.1.2-7.8 1-2.2.5-2.5.5-3.8.2-1-.3-2-.3-3.2-.2l-1.7.1-2-1.9c-1-1-2-2.3-2.2-2.8a5 5 0 0 0-3-2.3l-1.6-.5-.7-.2.8-.6c.6-.5.7-.8.7-1.8l.2-1.6c.2-.2.2-.5 0-.7-.2-.5-1-.2-1.2.5-.1.5-1.4 1-3.7 1.6l-1.1.5c0 .2-.4.3-.8.3-1 0-1.6.6-1 .9l1.3.1c1.2 0 2.3.7 2.3 1.4 0 .8-.8 1.8-1.4 1.8-.2 0-.4.1-.4.3l-.4.2c-.3 0-.8.3-1.1.7l-.7.6h.7c.4 0 .7 0 .7-.2s.2-.3.5-.3l.6-.2c0-.2.8-.3 1.8-.4 1.5 0 1.7 0 2 .5.2.6.9.9.9.4 0-.4 1-.6 1.7-.3.4.2.7.7.8 1.1.1.4.5 1 .9 1.3.4.3.9 1 1 1.4.4.7.8 1 2.2 1.4 1 .3 2.1 1 2.5 1.3.3.4.8.6 1 .5l1.8.5c1.3.7 1.4.7 2.7.3.8-.2 2-.5 2.6-.8l2.4-.5c1.2 0 1.3 0 2.5 2.9.4 1 .4 1-.3 1.9-.4.5-1 1-1.3 1-.4.1-1 .7-1.4 1.2-.7 1.2-1 1.3-2.2.7-.8-.5-1.2-.3-2.2 1.1l-.6.9-1-1c-1.3-1.1-1.9-1.3-3.3-1-1 .4-1 .5-1 1.2 0 .4.1 1 .3 1.4.4.5.4 1 .3 2-.2 1-.1 1.3.2 1.4.5.2.8-.2 1.4-1.6.5-1.3 1-1.7 2.3-1.7.7 0 1 .2 1.6.9.4.4.7 1 .7 1.3 0 1 .7.5 1.3-.9.4-.8.8-1.3 1-1.3.4.3.2 3-.4 3.7a8 8 0 0 1-3.2 2.1c-.2 0-.8-.3-1.3-.7-.8-.8-1-.8-1.5-.5-.3.3-.6.8-.8 1.6-.1 1-.4 1.4-1.1 2l-2 1.8c-.8.8-1 1-1 .5.1-.7-.2-1.6-.7-1.8-.2-.1-.8.2-1.4.8-.7.5-1.4.9-1.8.9-.5 0-1 .2-1.3.5-.2.3-.7.5-1 .5-.4 0-.7.1-.8.3-.1.1-.7.3-1.3.3-1.1 0-1.2 0-1.2.6s0 .7.9.7c.5 0 1-.1 1-.3.2-.1.5-.3.8-.3.4 0 .7 0 .8-.2 0-.2.6-.4 1.3-.4 1.2-.2 1.3-.2 1.3.4 0 .3-.3.6-.7.8-.4.2-1 .9-1.3 1.8l-1 1.5c-.7.2-2-.5-2.3-1.1-.1-.3-.5-.7-.8-1-.5-.2-.7 0-2 1.3-1.7 1.9-2.3 1.9-3 0 0-.5 0-.5-.5 0-.4.6-.5 1.8 0 2.5.2.5.4.5 1 .4l1.3-.4c.5-.3 2.6-.8 3.3-.9.4 0 .5.1.5.9s0 1-1.3 1.4l-1.8.5c-.2 0-1 .2-1.5.5l-2 .7c-1.8.2-2.3.6-3.7 2.4a44.5 44.5 0 0 0-4.8 7.5zm8.4-22.7c.3.5.8.6 1.2.2l1.9-.5c1.8-.5 2.7-1.2 2-1.6-.6-.4-1.8-.1-2.9.5-1 .6-1.4.3-1.4-1 0-1.2-.3-1.7-.8-1.7-.3 0-.5 0-.5-.2s-1-.3-2.3-.3c-2 0-2.2 0-2.3.6v1c.1.3 1.3.4 1.5 0 .1-.1.8-.3 1.6-.3 1.6 0 1.8.3 1.7 2 0 .5 0 1 .3 1.3zm-5.1-6.5c.2-.6-.1-1-1.4-1.4-1.3-.4-2-.1-2.3 1-.2.7-.2.9.2 1.2 1 .7 3.1.2 3.5-.8zm18.4-3c.5.1.6 0 .8-.8.1-.7-.2-1.2-.8-1-.4.2-.5 1.6 0 1.8zm-4.3-3.2-.3-1.4c-.5-1.7-1.8-1.9-4-.7-1.1.6-1.5.4-1.5-.6 0-1.1-.6-1.6-2-2-1.4-.2-1.7-.4-1.7-1.5 0-.5-.2-.8-.4-.8s-.6-.2-.8-.6c-.3-.5-.7-.6-2.3-.8-2.2-.2-3.2.2-3.2 1.3 0 .5.3.7 1 1 .7.2 1 .5 1 1 .2.8.5 1 2 1.1.5 0 .8.3 1 1.2.5 1.3.9 1.5 2.4 1 1.2-.5 1.6-.3 1.6.7 0 .3.3.6.6.8.5.4.7.4 2.2-.4 2-1 2.8-.9 3.3.3.4.9 1 1.1 1 .4zm13.7-10.2c1 .7 3.2 0 3.6-.9v-1.6c-.2-1.1-.2-1.1 1-1.7l2.2-.8c1.4-.3 2.3-1.2 2.3-2.4 0-.8 0-.9-.9-1.2-1-.3-3.6-.4-4.3-.2-.2.1-.4.4-.4.7 0 .7-.5.6-1-.3-1.3-2.2-5-1.9-4.4.3.2.6 1.7 2 3 3 1.7 1 1.2 2.4-.9 2.2h-1.1c-.8 0 0 2.4.9 3zm-24.8-.8c1.1-1.9.5-2.5-2.3-2.2-2.4.3-3 .7-2.8 1.7.1.7.6.8 2.2.7 1.1-.2 1.5-.1 1.8.2.5.6.5.6 1-.4zm-3.8-8.7c1.2.6 2.2.6 2.6 0 .2-.4.1-.6-.4-1a30 30 0 0 1-1.8-1.5c-1-.8-1.3-1-1.6-.7-1.1.7-.5 2.3 1.2 3.2zm52.5-2.5c2-1 2.4-1.5 3.6-4 .7-1.6 1-2 1.9-2.4.9-.5 1.6-1.5 1.3-1.8-.2-.1-3.5-.9-4.7-1-.7-.1-1.6-.4-2-.6-.5-.2-2-.5-3.2-.5-3.2-.3-3.8.2-4.9 4l-1 3.2c-.7 1.6-.7 1.6-.2 2.2.3.3 1 .6 1.7.7.7 0 1.8.4 2.4.8 1.5.7 2.7.6 5-.6zm.7-1.8c-.2.3-.8.4-2 .3-2.6 0-3.1-.2-3.9-.9-.6-.6-.7-.8-.5-1.8.3-1.9.7-3 1.3-3 .4 0 .4 0 .2.4l-.3 1.7c0 1.2 0 1.2 1 1.7 1 .4 1 .4 2 0 1.4-.9 1.6-1.2 1.6-2.4 0-1 0-1.2.4-1.2 1 0 1.1.7.8 2.8-.1 1.1-.4 2.2-.6 2.4zm-1-5.4c0 .6-1 .6-1.8 0-.6-.6-.5-.8.4-.8 1 0 1.4.2 1.4.8zm-13.4 7c.3.8.8.8 1.2 0 .4-1 .4-1.8-.1-1.8-.6 0-1.3 1.2-1 1.9zm-16.6-.7c-.2-.6-2-1.6-2.8-1.6-.2 0-.7-.3-1-.7-.4-.4-1-.8-1.5-1-.7-.4-.8-.3-.7.6 0 .2-.2.6-.5.9-.5.4-.6.5-.3 1.2.5 1.2 2.1 1.8 2.1.9 0-.7 1.1-.8 1.6-.2l1.2.7c1.5.4 2.2.1 1.9-.8zm16.5-1.5v-.7l-.5.6c-.3.3-.5.8-.4 1 .2.5.9-.1.9-1zm-9.7-2.8c1-.6 1.1-.6 1.2-2.2 0-1-.1-2-.5-3l-.7-2.5c-.2-1.5-1-2.8-2.2-4-.9-.8-1.2-1-2.3-1-.7 0-1.7 0-2.3-.2-.9-.3-1.1-.2-2.2.4-1 .5-1.3.6-1.7.4-1.3-.7-1.7.3-.8 2 .3.6.6 1.8.6 2.7.2 1.5 1 3.7 1.6 4 .1 0 .2.2.2.5 0 .9.9 1.9 2.2 2.5.7.4 1.6.7 1.9.7l1.5.4c1 .4 1.9.2 3.5-.7zm-3.8-1.8c-1.9 0-2 0-3.7-.8l-1.2-.6-.2-3c-.2-2.2-.1-3.2.1-3.4.2-.3.9-.4 2-.4 1.3 0 1.8.1 2.7.7.5.4 1.3.7 1.7.8 1 .2.8 1-.3 1.3-.8.2-1 .1-1.5-.5-.6-.7-1.5-1.2-2.2-1.2-1 0-1.5 2.7-.6 4.1.5.8.7.9 1.7.9.7 0 1.5-.3 2.3-.7a5 5 0 0 1 1.7-.6c1 0 1 1.5 0 2.6-.7.7-1 .8-2.5.8zm-15.7 1.3c.6.4.8.4 1.5 0 1.2-.6 1.1-1.4 0-1.6-.5-.1-1-.5-1.4-1.1-.5-1-1-1.2-1.6-.6-.2.3 0 .7.4 1.6l1.1 1.7zm31.5-9.8c.2-.7-.1-1.8-.5-1.8-.9 0-1.3 1.4-.7 2 .5.5 1 .4 1.2-.2zm20-4.8c.6-1.9.5-2.5-.8-3.4-.9-.7-1-.7-1.8-.3-.8.4-1.7 1.8-1.4 2.1l1 .2c.8 0 1 .1 1 .8 0 .5.2 1.1.4 1.6.4 1 1 .7 1.6-1zm-54.5-3.5c.6-.3.5-1.1-.2-2.4-.9-1.4-1.6-2-1.9-1.2-.2.8.2 2.3.7 3 .6.8.8.8 1.4.6zm51.8-2.4c0-.6-.1-.6-.5-.4-.6.3-.9 1.5-.5 1.9.4.3 1-.6 1-1.5zm-48-.1c.4-1.5.2-2.2-1.3-4-.8-1-1.6-1.3-1.9-.6-.3.8-.2 1.2.6 2 .6.5.8.9.9 2.2 0 .8.3 1.6.5 1.7.6.4 1 0 1.2-1.3zm1.2-2.4c.4.5.5.5.9.2.3-.3.3-.8.2-1.8-.2-1.4-.2-1.4.8-1 .6.3.8.2 1.2-.1.6-.6 1.1-.6 2.4 0 .9.5 1 .5 1.3.2.5-.6.8-2.1 1.1-5.4.3-3.2.8-5.5 1.6-7.3 1-2.2.6-4.6-.8-5-.7-.3-1 0-1.2 1.6-.2.7-.5 1.3-1.2 2l-1.5 1.8c-.4.4-.9.8-1.2.8-.3 0-.9.6-1.6 1.6-1.7 2.5-1.8 2.7-1.6 3.8l.2 1-1-.1h-1.4c-.5.3-.9 1.3-.9 2 0 1 1 3.4 1.6 4 .3.3.5.6.5.8 0 .2.3.6.6 1zm-161 84a4 4 0 0 1-.1 1.6c-.2.6-.3.5-.8-.6-.7-1.3-.8-2.3-.2-2.5.5-.2 1 .4 1 1.6zm3.6-12.2c.6 2.8.5 5.8 0 5.1-.4-.4-.9-2-1.9-6.1a25.1 25.1 0 0 0-1-3.7l-.6-1.5c-.3-.6-.7-2-.8-3-.1-1-.6-2.4-1-3.4-.5-1-.9-2-.9-2.5l-.3-2.4c-.2-.8-.5-3.3-.6-5.5 0-2.2-.2-4.6-.3-5.5l-.2-1.5-.6.6c-.6.5-1 .3-.7-.6.4-1.5 5.2-.7 5.5.9l.3 5.5c0 5.4.4 9 1 12.4a684.6 684.6 0 0 0 2.1 11.2zm65.1-7.2c0 .2-.3.4-.7.4-.4 0-.7-.1-.7-.2 0-.2-1.4-.9-3.2-1.6a5 5 0 0 1-1-.5l-2.6-1.4c-.5-.3-1.2-.7-1.3-1-.2-.2-.4-.3-.5-.2-.1.1-.7-.1-1.4-.5-.6-.3-1.2-.6-1.3-.5h-.5a2 2 0 0 0-.8-.4c-.3 0-.9-.3-1.3-.6l-1-.4-.6-.4c-.4-.4-.4-.4.2-.4l1.6.4 1 .4 1.3.5c.6.3 1.2.5 1.3.4l.4.1.8.4 3.3 1.5 2.8 1.2a9 9 0 0 1 2.8 1.5l1 .5c.3 0 .4.1.4.8zm-72.9-2.7c-.4 0-1.1-2.1-1-2.7.2-.4 1 .8 1.2 1.9.1.6 0 .8-.2.8zm69-3.7c-.3 0-.4-.2-.4-.6 0-.5.1-.7.4-.7.2 0 .4.2.4.7 0 .4-.2.6-.4.6zm1-.6c.2.2.1.5 0 .6V187zm-3.1 0c-1.1 0-1.2 0-1.4-.7-.2-1 0-1.3.5-.9.2.2.6.4.9.4.5.1 1.1.6 1.1 1 0 .1-.5.2-1.1.2zm-6.7-1.2c0-.2-.3-.3-.6-.3a7 7 0 0 1-1.8-.7l-1.8-.6c-.2 0-1-.2-1.5-.5l-2-.7-2-.7a71 71 0 0 0-6.2-2.4l-1.5-.9c-.6-.5-1.3-.9-1.5-.9a6 6 0 0 1-1.4-.5c-1.3-.7-2-.7-2.7-.2-.7.6-1.3.5-2.8-.2a114 114 0 0 1-10.8-4.8l-1.4-1a7558.7 7558.7 0 0 0-6-3 23 23 0 0 1-2.6-1.1l-2.6-1.2c-4.2-1.5-4.6-1.8-4.6-2.6 0-.4.1-1 .3-1.4l.3-.7.7.7c.5.4 1.4.9 2.7 1.2 2 .5 2.6 1 3.6 2.4.3.6.8 1 1 1 .2 0 .7.4 1.1.8.5.4 1.1.7 1.5.7.4 0 1.3.3 2 .6l3.2 1.1c2.1.6 4.7 1.6 5.2 1.9l1.8.5c.9.2 2.3.6 3.1 1 1.4.8 1.8.9 3.2.8l2.5-.5c.8-.4 1-.3 2.3.3.8.4 1.5 1 1.6 1.3.2.5 1 .7 1.7.3.7-.5 1.3 0 4.4 3.5.2.2.7.4 1 .4.5 0 1 .3 1.4.5.4.3.8.5 1 .4l.2.1c0 .2.4.4.8.6a72.3 72.3 0 0 1 4.6 1.8l.9.3a9 9 0 0 1 1.8.6l1.6.5c.3 0 .8.1 1.1.3l.7.3-.6.6c-.7.7-2.5.9-2.9.4zm4.3-.3a.4.4 0 0 1-.4-.5c0-.2 0-.3.2-.2 0 .2.3.4.4.5.2.1 0 .2-.2.2zm-65.7-6.2c-.2.5-.8.5-1 0a17 17 0 0 1-.5-4.2c.2-.5.6-.6 1-.2.4.2.8 3.7.5 4.4zm22.8-4c-2-.6-4.7-1.4-6.5-2.2a56 56 0 0 0-4-1.4c-3.7-1.1-6-2.7-5-3.4.3-.2 2.1.3 3.6 1l3 .7c4.6 1 9 3 9.4 4.4.1.5-.1 1-.5.9zm-22.9-9.6c-.6-1.3 0-1.4 2.4-.4 1.3.4 1.6.8 1.4 1.3-.3.8-3.2.1-3.8-1zm5.8-3.4c.1.6-.6.6-1 0-.2-.2-.7-.3-1-.3-1.2 0-2-1-1.6-2 .3-.6 1-.5 1.3.2.1.3.7.8 1.2 1.1.6.3 1 .7 1.1 1zm148-18.6c-.2 0-.3-.1-.2-.3l.4-.2c.2 0 .3 0 .3.2s-.2.3-.4.3zm43.5-17c0 .1.1.5 0 .8 0 .5 0 .5-.5.2-.6-.4-.6-1.5 0-1.5.2 0 .4.2.5.4zM282 115c-.1 0-.2-.3-.2-.7 0-.4.1-.7.2-.7.2 0 .3.3.3.7 0 .4-.1.7-.3.7zM39.2 275.3H48c3 0 3 0 3.4-.6.7-1.6-.8-2-6.7-2-7 0-8.7.3-8.7 1.4 0 .5 1.3 1 3.2 1.2zm147-1.1c.4.6.8-.6.4-1.6a6 6 0 0 1-.3-1.7c0-1.1-.4-1.6-.8-1-.3.3-.3.7 0 2.2l.6 2.1zm-115.9-2.7.7-.7c.3-.2.4-.6.4-.9-.1-.7-1.2-1-5.7-1-5.9 0-9.6 1.4-8 3 .5.5.8.5 2 .4 2.6-.4 4.2-.5 4.7-.2l1 .4c1 .3 4-.3 5-1zm-57.8.7 1.3-.1a11 11 0 0 1 3 0c1 .2 3.6.3 5.8.3 3.5 0 4.1 0 5.1-.6.6-.3 1.1-.7 1.1-.9 0-.5-1.2-.8-3.1-.8l-5.5-.2c-3.7-.2-7 .1-7.7.7-.4.3-.4 1.4 0 1.6zm19-4c5.2 0 6.7-.1 7.7-.4 1.4-.5 2.2-1.3 2-1.9-.1-.3-1-.3-4.6-.2-2.7 0-4.6 0-4.8-.2-.4-.2-.4-.4 0-1.3.2-.7.2-1.7.1-3.2-.1-2 0-2.4.5-3.7l1.1-2.3c.3-.4.7-1 .8-1.4 0-.4.5-1.4.9-2.2l2-5.4a60.4 60.4 0 0 1 2.5-6.8c1.1-2.5 2.5-9.5 2-10.4-.4-.8-1-.4-1.2.9-.7 3.2-1.1 4.7-1.6 6l-2.4 5.6-2.2 5.6a58 58 0 0 1-4 8.7c-1.2 1.7-1.3 2.2-1 3.1.3.7.3 1-.1 1.8-.4.7-.7 1-1.5 1-3 .6-4.2 1.7-3.6 3.2.2.5.2 1.2.1 1.8-.1.9 0 1.1.3 1.3.3.2 3.2.3 7 .3zm-4.4-3c-.2 0-.4 0-.4-.2s.2-.3.4-.3.4.1.4.3l-.4.2zm161.5 2.8c.4-.4.5-4 .3-8.7l-.4-16.7-.4-31.6c0-.7 0-1.3-.2-1.4-.2-.1-.3-.5-.3-1s-.1-.5-.2.3c-.1.5 0 1.2.1 1.6a63.5 63.5 0 0 0 0 9.2l.2 21.6c.1 14.3.3 25.2.6 26.3 0 .3.2.5.3.4zm-116.3-.3c.9.3 4.2-.4 5.2-1.2.3-.2 1-.5 1.4-.5l2.3-.4c1.3-.4 1.7-.4 2.2-.1.5.2 2.7.2 3.4 0h.3c.3 0 1.8-.7 2.5-1.3.6-.5.5-1.3-.2-1.3-.2 0-1.2.1-2 .4-1 .2-2.3.4-3 .3a21 21 0 0 0-8 1.1c-2.7.7-4.4 1.6-4.4 2.3 0 .3.1.6.3.7zm-53-.5c.6-.5 2.6-4.3 2.7-5 .2-1.8-.6-2-1.4-.3-.3.6-1.1 1.8-1.8 2.6-1.2 1.3-1.4 1.9-1.4 2.8 0 .5 1.2.4 1.9-.1zm313.7-.3c1.4.6 4.3.6 4.5 0 .3-.7-.3-.9-3.4-1.1-1.6-.1-3.3-.4-3.6-.5l-2.6-.4-4.2-.6a126 126 0 0 0-14.3-1c-.1.2 0 .5.2.6.3.3 6 1 10.4 1.4a165.5 165.5 0 0 1 13 1.6zm6.3.4c.4 0 .7-.2.7-.3 0-.2-.3-.3-.7-.4-.4 0-.6 0-.6.4 0 .3.2.4.6.3zm-292-.7c.2.3.6.5.9.5.7 0 5.8-.8 7.5-1.2 2.7-.6 8-1.2 8.5-1 .7.4 2.3-.2 2.4-.9.2-1-.5-1.3-4.4-1.3a52.7 52.7 0 0 0-14.9 2.3c-.6.3-.6 1 0 1.6zm139.2-.8c.2-1.3-.1-9.5-.4-10.7-.2-.8-.3.3-.3 4.6 0 3.5.1 6 .3 6.3.3.7.3.7.4-.2zm-175-.8c2.2 0 3.1-.6 2.9-1.6-.3-1.2-3.5-2-5-1.4-1.4.6-1.5 2-.3 2.7.3.1 1.4.3 2.4.3zm-7-4.4c2.4-4.6 3-5.8 6.2-10.8 1.7-2.7 2.6-5.7 2.4-7.6-.2-1-.3-1.3-.7-1.3-.6 0-.8.5-1.4 2.6-.4 1.7-1.5 4.1-2 4.4-.2.1-2 2.9-4.2 6.7l-2.4 4c-1.7 2.5-1.9 3.2-1 4 1 1 1.9.5 3.2-2zm38.6 2.3 2.4-.5 3.2-.6c1.6-.3 1.9-.2 2.8.2 1 .6 1 .6 2.8-.3 1.2-.6 1.3-1.4.5-2.6-.7-.9-1.7-1-3.1-.2-.6.3-1.4.5-1.8.5l-2.7.4-4.8.8c-4 .6-4.7 1-3.6 2.1.5.5 2.9.6 4.3.2zm108.6-3.2c.3 0 .4-.2.4-.4s-.1-.4-.4-.4c-.2 0-.4.2-.4.4s.2.4.4.4zm-126.9-.3c1-.1 1-.2 1-1 .1-.7 0-1.2-.3-1.4-.2-.3-.4-.7-.4-1 0-.5-.7-2.4-1.4-3.7a28.1 28.1 0 0 1-1.8-3.7l-.9-2.2-1-2.5c-.5-.8-1.1-2.3-1.5-3.3-.3-1-.7-2-1-2.2-.3-.4-1.3-.2-1.5.3-.3.7.6 4.5 1.9 8.4 1.3 3.9 1.8 5 2.7 6.9l1.4 2.8c.1.6.6 1.4 1 1.8.7.7 1 .8 1.8.8zm36.1-.6c1 .5 2-.1 2.8-1.6l1-2.1c.6-2.6 1-4.4 1-5 .2-.7-.8-2.5-1.6-3-.4-.2-.3-1 .5-4A181 181 0 0 0 67 232c.5-2 .3-3.4-.4-4-.4-.5-.5-.5-1 0-.2.1-.3.8-.4 1.3l-.6 3.4c-.7 2.4-1 3.6-1.3 5.5l-.8 3a310.4 310.4 0 0 0-2.3 7.8c-.3.9-.3 1.1.2 1.7.3.4.8.8 1.1.8.7.1.7.2 0 2.3l-.6 1.8s0 .6-.3 1.1c-.5 1.3-.5 1.9.2 2.2zm7.8 0s.5 0 1.2-.3a26 26 0 0 1 3.6-.8c1.4-.2 2.7-.5 2.9-.7.2-.2.3-.6.3-1 0-1-.9-1.3-2-.8l-1.7.2c-1.7 0-7 .8-7.2 1.2-.3.5-.2 1.2.2 1.4.1.1.8.4 1.5.5l1.2.4zm30.4-3 5.5-1.4c3.2-.7 3.1-.7 3-1.5 0-.7-.1-.8-1.4-.7-.7 0-2.5.3-4 .8-1.6.4-3.5.7-4.3.8-1 0-1.5.3-1.9.7-.6.7-.6 1-.2 1.5.4.3 1.4.2 3.3-.2zm-16.9-1c.1-.5 0-.7-.3-.7l-1.2-.6c-.4-.4-.8-.7-1-.7l-.7-.7-.7-.6h.7c.7 0 2.5-1.6 2.5-2.2l.4-.7c.4-.3.7-2.7.8-6.4 0-2 0-2.6-.6-3.9-.3-.8-.6-1.3-.6-1 0 .4-1.2 1.2-2 1.2s-2.5-1-3.5-2c-1.2-1.3-1.8-1.4-3-.6l-1.2.5c-.4 0-1.1-1.5-1.8-3.7-.6-1.7-.8-2.1-1.4-2-.5.3-.2 3.5.6 5.6l1.6 4a82.8 82.8 0 0 0 4.2 9.4c.6 1.5 2.4 3.8 3.3 4.2.4.1 1.2.6 1.7 1 1 .7 2.1.7 2.2-.2zm-4.5-4.1c-.3 0-.4-.3-.4-.7 0-.4-.2-1-.4-1.4l-.6-1.8c-.2-1.3-.9-3.3-1.3-3.8s-2-3.7-2-4c0-.4 1.1-.2 2.3.6 1.7 1 3.7 1.7 4.3 1.3 1-.5 1.2-.3 1 .6-.7 4.8-1.3 7-2.1 7.6-.3.2-.4.6-.4 1 0 .3-.2.6-.4.6zm-27 3.9c.8.8 1.8.8 2.2 0 .4-.8.2-1.4-1-2.5-.6-.6-.6-.8-.5-2.1.2-1 0-2.6-.5-5.3-1-5.8-2-8-2-4.5 0 2.9-.4 2.6-1.8-1.3l-.8-1.8c-.1-.2-.4-1-.5-2-.7-3.5-1.1-4.5-2-4.2-.3.1-.4.5-.4 1.1 0 1.1 1 6.4 1.3 7.2l2.7 8c.7 2.5 2.6 6.6 3.4 7.4zm46.4-1c.7 0 .8 0 .8-1 0-.4-.1-1-.3-1.3-.3-.4-.2-.7.2-1.4 1.1-1.7 1.3-2.1 1-2.3-.2-.1-.4-.5-.4-.9 0-.5-.3-.6-.8-.6-.7 0-.7 0-1.3 2.5-.3 1.4-.3 3.5 0 4.4 0 .5.3.6.8.6zm-8.7-.6c.3.3.6.3 1.7.2a13 13 0 0 1 2-.2c.4 0 .8 0 .9-.2.3-.4-.2-1-.8-1-.8 0-1.6-.7-1.4-1.2.1-.3.1-.6 0-.8-.4-.5-1.6-4.1-1.9-5.5a16 16 0 0 0-.9-2.7c-.5-1.2-.6-1.7-.4-2 .5-.5 1.3-.3 1.6.4.2.4 1 1 2.2 1.6l2.3 1.3c.3.3.7.4 1 .3 1-.1.9-1.2-.2-2l-1.8-1.2c-.4-.4-1.5-1-2.4-1.5l-2.2-1.2c-.4-.2-1-.4-1.5-.4-1 0-1.3-.3-1.5-1.7 0-.6-.5-1.8-1-2.8-.4-1-1-2-1-2.3a220.7 220.7 0 0 0-5.4-12.2l-1-2.5a18 18 0 0 1-1.3-4.7l-.9-3.2c-.5-1.2-.5-1.5-.2-3.6a144.3 144.3 0 0 0 1.1-11.5c.7-3.6 1.2-7.4 2-12.7.5-3.5.4-9.7-.2-13.8-.3-1.8-.4-2.1-.9-2.2-.3 0-.6 0-.7.3-.1.2 0 2.2.1 4.4.6 8-.5 19.6-2.3 25.4-.4 1.1-.4 1.4 0 2.1.4.8.4 1-.3 3.8l-1.4 6.4c-.7 3.3-1.3 5.6-2.9 10.3-1.1 3.6-.7 6.4 1 6.2.4 0 .5-.3.6-1.5.2-1.7.6-3.5 1.2-5.3l.6-2.3c.7-3.6 1.9-4.6 1.9-1.5 0 .6.2 1.9.5 3a75 75 0 0 0 3 8.6c.3.5 2.3 5.2 3.1 7.4l1.8 4c1.8 3.5 2.6 5.3 3.5 7.9a76 76 0 0 0 2.6 6.8l.6 1.2-.6.9c-.4.6-.5.8-.2 1.2zm97.4.3.4-.7c.4-.7.3-2.7-.3-9a63.2 63.2 0 0 1-.4-8.5l-.1-2.3-.2 2.5c-.3 3.8 0 16.4.3 17.3zm-156.7-1.5a44.5 44.5 0 0 0 4.7-9.5 8 8 0 0 0 .6-1.6l.6-2.2c.7-2.1 1.3-4.9 2-9.2.1-1.5.4-2.9.5-3v-2c-.3-2.2-.9-2.6-1-.8-.4 2.2-.6 4.3-.8 7.4-.2 2.9-.3 3.7-1 5.9a62.2 62.2 0 0 1-4 9.1c-2.3 4.7-2.7 5.7-2.3 6 .2.3.4.3.7 0zm30-2.9c.5-1.2.5-1.4.2-1.4s-1 1.8-1 2.5c0 .8.4.2.9-1zm398.5-2.6c.4.3 1-.5 1-1.4v-1l-.6.7c-.5.6-.7 1.4-.4 1.7zm-397.5-.8c.8-.8 1.5-4.8.7-4-.3 0-.5.7-.6 1.3l-.3 2c-.1.8-.1 1 .2.7zm231.8-1c.5.5 5.4.5 6 0 .6-.7.3-1-.8-1-4.4 0-5.8.2-5.2 1zm-194.6-1.3c.3.7.6.9 1.1.9 1 0 1.4-.6 1.3-1.8 0-.7.2-1.4.6-2l.6-1.2-.6-1.3-1-3.2-.8-3-1-2.6-1.2-3a20 20 0 0 1-1.6-4.5l-.6-1.6c-.4-.6-1-2.2-1.5-3.5l-1.6-4.3a71.5 71.5 0 0 1-3-8.6c-.2-1.3-.2-1.4.7-2.8 1.4-2.3 1.8-7.2.7-9.3l-.6-4.2-1-6.3a9 9 0 0 1-.3-3.2l.2-3.9c0-1.7.2-4.4.4-6 .2-2.7.2-2.9-.3-3.4-.6-.6-.6-1.4 0-2.7.6-1 .5-2 0-2l-.9.4c-.7.5-1.4.3-1.4-.2 0-.6.9-1.3 1.6-1.2.6 0 .6 0 .7-1.4 0-.8.1-1.5.3-1.5.1 0 .3-.5.3-.9 0-.6.1-.8.6-1h1.1c.4.2.4.3 0 1l-.4 1.2c0 .5 1.6 2 2.2 2 .6 0 .6.5.3 3.5-.2 2.8.1 7.1.8 10l.5 2.9a24.3 24.3 0 0 1 1 9.6c0 6.3 0 6.5-1.4 13.3-1.4 6.3-1.6 12.5-.4 12.8.6 0 1-.7 1-3a91.6 91.6 0 0 1 2.1-13.8l.3-2.8c0-1.3.1-1.7.7-2.2.3-.3.7-1 .8-1.5.4-2 0-8.2-.9-11.3l-.4-2.3c0-1-.5-3-1-3.7-.3-.6-.5-2.3-.7-5.7-.3-4.3-.5-7-.7-7.3-.4-.6.7-1 2-1 1 .1 1.2.2 1.3.9 0 .5.4.8 1 1 1.3.5 1.7.4 2-.3.3-.5.3-.7 0-1.3-.4-.5-.5-1-.3-1.8a81.7 81.7 0 0 0 .3-10.6l.2-3.3c0-1.3.2-3 .5-4 .4-1.5.4-1.7 0-2.4-.3-.7-.3-1-.1-2 .3-1.6 0-2.8-.9-3.3-.5-.4-2-2-2-2.3l.8-1c.8-.9.8-1 .6-1.7-.5-1-.4-1.7.4-2.7.4-.5 1-1.4 1.1-2l.6-1.4c.2-.2.2-.8.1-1.5-.1-.9 0-1.4.5-2.4.4-.7.7-1.5.7-1.7 0-.2.3-.8.8-1.3.6-.7.7-1 .7-2.1 0-.8.2-1.5.4-1.7.4-.4 1.2-2 1.2-2.4l.4-.6c.3-.3.4-.3.5.2.1.5.2.5.6.2l.4-.6c0-.6 2-5.3 3.9-9 .3-.5.3-1 0-1.5-.1-.7-.1-.8.3-.8s.7-.3.8-.7l.5-.6c.3 0 .8-1.5.8-2.3 0-.3-.1-.6-.3-.6-.7 0-1-1-.5-1.8.4-1 2.3-3 2.8-3 .6 0 2.3-1.3 2.3-1.8 0-.3.2-.7.5-.9.9-.6 5-6.9 5-7.6a128 128 0 0 1 10.7-19.7c.3-.8.8-1.5 1-1.7.6-.5 1.1-1.7 1.4-3 .1-.7.5-1.4.8-1.8l1.1-1.6c.6-1 1.5-2.2 3-3.7l.8-1.4c0-.3.4-.9.9-1.4l1.8-2.5L147 34c.7-1 .8-1.2.3-1.8-.6-.8-1.3-.4-2.6 1.2a54.5 54.5 0 0 1-2.5 3l-2.6 3.6a50.9 50.9 0 0 0-5.4 8 54.9 54.9 0 0 0-4 5.8 80 80 0 0 0-5.1 8.4l-2.2 3.4c-.5 1-1.5 2.6-2.3 3.7-3.6 5.2-4.7 6.9-5.9 9a123.5 123.5 0 0 0-7.4 16c-1.3 4.5-2.7 8-3.4 8.3-.6.2-2.8 4-5.5 9.3a89 89 0 0 1-3.3 6.3c-.3.3-.4.2-.4-.4a92.7 92.7 0 0 1 7-19.8c.2-1 1-3.1 1.8-4.4l.2-1.3c0-.8.6-1.7 1.6-2.2.4-.2 1-1.2 1.8-2.7a63.2 63.2 0 0 1 4.5-8 80 80 0 0 1 3.2-6c0-.2.2-.5.3-.5l.8-1.3c.3-.6.8-1.4 1.2-1.8.3-.3.7-1 .9-1.6.1-.5.8-1.4 1.5-2 1.1-1.1 1.2-1.2.8-2-.6-1-.5-1.9.4-3 .4-.5.7-1.2.7-1.5 0-.3.6-1 1.2-1.7.8-.9 1.3-1.7 1.5-2.6.3-.9.7-1.4 1.5-2.1.6-.6 1.1-1.3 1.2-1.7.2-.8 1.4-2.8 2.3-3.6l.5-.7 1-1.5 1.4-2.3c.3-.6.8-1.4 1.2-1.7.4-.4 1-1 1.1-1.5.3-.4 1.2-1.6 2.2-2.6 1.6-1.7 2-2.5 1-2.5-.5 0-2.7 2.1-3.8 3.6l-2 2.5c-2.2 2.4-2.7 3-3.2 4l-1.1 1.5c-.4.4-.7.8-.7 1 0 0-.3.7-.8 1.2l-.7 1.4a39.3 39.3 0 0 0-5 8.9c-.2 0-.5.2-.6.6l-3.7 7.7c-.7 1.4-1.5 2.4-1.7 2.2-.3-.3.7-4.6 1.2-5.3l.5-.9 1-2c.6-1 1.2-2.3 1.4-3a5 5 0 0 1 .6-1.5c.2-.2.5-1 .7-1.7.7-3 1.1-4.2 1.8-5 .4-.4 1.1-1.7 1.6-2.7l1.4-2.5c.6-1 .6-1.8 0-1.8-1 0-2.3 1.8-4.8 6.6a499 499 0 0 1-3.4 7.1l-.4 1-.7 1.5-.7 1.7-.4 1-.9 2.5c-1.1 3-1.5 6.4-.8 7.5.5.7.6 1.6.2 1.9l-.4.8c-.3 1-1.1 2.7-3 5.8a168 168 0 0 0-2.8 5c-1.3 2.5-2 3.2-2 1.8 0-.4.1-1 .3-1.3.3-.5.3-.9 0-1.6-.2-.8-.2-1.2.2-2.3l.6-2.4c.1-.6.4-1.3.7-1.7.3-.3.5-.7.5-.9l1-2.6 1.2-3.7c.1-.8.4-1.7.6-2a77.8 77.8 0 0 1 2.3-6.7c.4-1 .5-1.5.3-2l-.2-.5-.6.6c-.3.3-.8 1.2-1.1 2-.3 1-.7 2-1 2.4l-.6 2a89 89 0 0 1-1.3 4c-.8 2.6-1 3-1.8 3.4-1 .7-3 4-3.8 6.3a173.8 173.8 0 0 0-3 11c-.2 1.6-.2 1.9.3 2.6.7 1 .7 1-.2 1.9-.4.4-1.2 1.7-1.7 2.9l-1.7 3.5a96 96 0 0 0-3 8.9 274.8 274.8 0 0 1-3.8 10c-1 1.5-1.7 4.1-1.7 7.2 0 1.8.2 2.3 1.3 2.3.6 0 1.9-1.1 1.9-1.7 0-.5 1-.7 1.6-.4.8.5 1.2.2 1.4-1.3 0-.7.5-2 .8-2.8.5-1 .7-1.7.5-2.3 0-.7 0-1 .6-1.5.3-.3.6-.7.6-1 0-.2.4-1 1-1.7.5-.7 1-1.7 1.2-2.3 1-2.8 1.5-3.7 2.1-4.6l.7-1.3.4-.2c.3 0 .4.1.2.6a87.7 87.7 0 0 0-2.4 7c-.3.6-.8 2-1 3-2.1 7.6-2.3 8.6-1.9 9.4.2.3.5.6.7.6.8 0 3 1.1 3.1 1.6.3.7-.3 3.1-.8 3.3-.2 0-1-.6-1.9-1.5-2-2-2.7-2.1-4.6-1.1-2.1 1-4.1 2.4-4.3 2.9-.2.6.3 1.3 1 1.5.5.1 1.3-.1 2.8-.9 2.7-1.3 3.6-1.5 4-.8l.2 1c0 .8.7 1 1.8.7 1.3-.4 1.4 0 .7 2.3-.5 1.7-1 3.8-1.3 7-.1 1.3 0 1.6.5 2.4.8 1.2.9 1.9.3 3.2-.3.8-.4.9-1.3.8-.9 0-1 0-1.1.5-.2 1.2-.7 1.3-1.9.3-1.3-1-1.4-1.5-.3-1.5 1.2 0 2.4-.7 2.4-1.4 0-.5-.3-.7-1.3-1.1-2.2-.8-2.3-.8-4.2.3a30 30 0 0 0-2.8 2l-1.3.7c-.2 0 0 .3.3.6l.5.6-.6 1-1 1.6c-.4.6-.6.7-.9.4-.3-.2-.9-.2-3 .2-1.3.3-2.7.7-3 1-.5.3-.5.4 0 1 .2.5.3 1 .2 1.5-.2.8-.1.8.6 1 .8 0 .8-.3.3 3.8-.5 3.9-.4 12.7.1 15 .8 3.2 2.1 6.2 3 7 .7.6.8.7 1 4a55.4 55.4 0 0 0 1.8 9.6c.1.9.7 3.2 1.3 5 2.7 8.4 2.5 7.8 2 8.5a8 8 0 0 0-.3 3c0 2.1-.4 8.6-.8 12.3-.1 1.4 0 1.5.3 1.5.4-.1.6-.5.7-1.4 0-.8.3-2 .4-3 .2-.8.3-2.3.4-3.3 0-2.4.5-6.4.9-6.5.1 0 .7 1 1.1 2.2a132 132 0 0 0 1.4 3.5c.6 1.4.6 1.9.2 3.2-.2.8-.2 1.8.1 4.5.6 4.3.4 5-1.2 3.7-.8-.6-1.7-.7-2 0-.2.5 1.5 2.1 3.5 3.2 1.8.9 2 1.2 3 3.8l.8 2.2zm-.2-8.8c0 .2-.1.4-.3.4-.4 0-1-2.3-1-3.4v-.7l.3.7c.6 1.4 1 2.5 1 3zM82.5 184c-.7-1.2-1.3-7-1.4-14.4 0-3.6-.2-7-.4-7.6-.3-1.4 0-1.6 2-1.7 2.4 0 2.7.6 1.6 4.3-.4 1.2-.5 3-.6 9.5 0 4.5-.1 8.5-.3 9-.2.9-.7 1.3-1 .9zm.4-25.5c-.3-.1-.3-.3.2-.6.8-.5 1.4-.3 1 .4-.3.5-.7.6-1.2.2zm8.1-31.2c-.6.3-1 .3-1.2 0-.2-.4.2-3.4.5-3.4l1-.8c.5-.5 1-.8 1.2-.8 1 0-.4 4.4-1.5 5zm.6-7-1.2 1.3.2-1a40.5 40.5 0 0 1 1.5-5c0-.5 1-2.8 1.6-3.7.3-.4.5-1 .5-1.2 0-.3.1-.6.3-.7l.2-.8c0-.4.1-.7.3-.8l.3-.6c0-.3.2-1 .5-1.6l.5-1.4c0-.2.2-.5.5-.8.3-.2.6-.6.6-1 .1-.3.2-.3.2.3 0 .4 0 .8-.2.8-.2.1-.3.5-.3.9 0 .3-.1.6-.3.6l-.2.4-.6 1.5-.5 1.5c0 .2 0 .8-.2 1.2a42.1 42.1 0 0 0-2 7.6c-.3.6-1 1.8-1.7 2.5zm7.7-21c-.3.6-.3.6-.3-.1 0-.4.1-.8.4-1 .3-.3.3-.3.3.2 0 .2-.1.7-.4 1zm11.8-8.4c0-.4.2-.6.4-.6.5 0 .5.2.3.9-.3.6-.7.5-.7-.3zm-10.7.1c-.2 0-.4 0-.4-.2s.2-.3.4-.3.4.1.4.3l-.4.2zm1.4-3.1c0 1-.6 1.3-.9.6-.1-.2 0-.6.4-1l.6-.6v1zm.1-2.3c0-1 .2-1.3.6-1.4.7-.1.8.7.3 1.7-.7 1.3-1 1.1-.9-.3zm18.8-11.5c-.4 0-.4-.3 0-.8.2-.3.2-.3.2.2l-.2.6zm1.6-2.9V71c0-.2 0-.4.2-.4.1 0 .2.2.1.4 0 .2-.2.4-.3.4zM207.7 242c.3-2 0-10.1-.4-12.7-.1-.6-.3-1-.5-1-.5 0-.6 1.3-.4 3.2a85 85 0 0 1 .5 10.6c0 .4.8.2.8-.1zm81-.6c.9-.1 1.6-.3 1.6-.4 0-.2 1-.3 2.2-.3 1.7 0 2.4 0 2.7-.4.4-.3-.1-.4-4.9-.3-6 .2-7.7.4-7.7.9 0 .2.3.4.8.4.4 0 .8.1.8.3 0 .2.4.2 4.5-.2zm13.4-.7h1.2c1.1 0 1.2 0 1.2-.6 0-.5-.1-.7-.5-.7-.3 0-.8.3-1.2.7zm-130.7-1c.3 0 .3-.6.2-3.5a87.3 87.3 0 0 1-.5-13.1c-.2.1-.4 15-.3 15.8.1.4.4.8.6.8zm-110-1.1v1l.4-.7.4-1.3c0-.5 0-.6-.4-.3-.2.2-.4.7-.4 1.3zm-12.8-1c.3.3.6-.6.4-1.2 0-.2-.2-.4-.3-.4-.3 0-.4 1.4 0 1.7zm-30-.7c1.1.8 1.8.4 2.8-1.4.4-1 .8-2.1.8-2.6s.4-1.8.8-2.8c1-2.4 2.1-5.5 2.1-6 0-.3.5-1.3 1-2.4 1.7-3.6 4-10 4.5-12.8.2-1 .6-2.6 1-3.3.4-.7.8-1.9 1-2.6.1-.7.6-2.1.9-3 .4-1 .6-2.2.6-2.5 0-.4.1-.7.3-.7.1 0 .3-.2.4-.5 0-.3.3-.5.4-.5.5 0 .8 1.8.8 5 0 3.8.4 7.8 1.3 12a73 73 0 0 1 1.3 9.5c0 1.1.7 2 1.8 2.2.9.2 1.4-.1 1.7-1 .3-.7 0-1.3-1-3.7-.2-.2-.4-1-.5-1.6a44.5 44.5 0 0 1-1.7-19.4c.4-1 .5-1.4.4-2.2-.2-.9-.2-1.7-.5-5.5a8 8 0 0 0-.8-3.2c-.2-.4-.2-.7 0-1 .4-.4.7-1.9.5-2.5-.1-.5-.3-.5-.6-.3-.5.5-.6.3-.4-1.2.1-1 .3-1.4.5-1.4.8 0 .6-2.5-.5-4.7-.3-.6-.3-.6.7-2.5.4-.6.4-1.1.2-3-.6-4.9-.7-5.2-2-5.2-.4 0-.8-.2-1-.4-.2-.6-2.6-1.3-3.1-1-.1 0-.6 0-1-.3-.5-.4-1.5-.5-5.8-.6-5.4-.1-6.2 0-6.8.6-1 1-.3 1.1 3.4 1 2 0 3.6.2 3.7.3.4.4-.5 1-1.6 1-1.8 0-3.8 1.2-3.8 2.3 0 1 2 1.4 3.4.7a8 8 0 0 1 2-.5c1.2-.2 1.3-.2 1 .3-.3.8-.7 7-.5 9.4 0 1.4 0 3.3-.3 4.6l-.5 4-.2 1.5.7-.4c.3-.3.8-1 1-1.7a81 81 0 0 0 1.3-13.1c0-2.6.3-4.7.7-5 .3-.2.8-1 1.2-1.9.3-.8 1-1.6 1.3-1.6.2 0 .4.3.6.7.1.3.5.7.8.8.2 0 .4.3.4.6s-.1.3-.8.2c-1-.2-2.3.3-2.3.8 0 .3.3.4 1.2.4 1 0 1.2 0 1.3.7v2.7l-.3 4.8c0 3.1-.5 7.2-1 10.6-1 6.5-1.9 11.1-2.2 12.8l-.2.7.7-.6c1-1 2-4.7 2.7-9.9l.8-5.8c.3-1.5.5-4.3.6-6.2 0-5.2.3-6.9 1-8.4.5-1 .8-1.4 1.2-1.4.6 0 1 1 .7 1.7a113.3 113.3 0 0 0 .4 20.8c.5.8.8 2.4.5 2.8l-1.2.9-1 .5-.7-.8c-1-1.2-1.5-.7-2.3 2.5-.3 1.4-1.2 4-2 5.6-2.1 5-2.1 5-3.4 10.2-.5 1.9-1.7 4.9-3.3 8.6a496.1 496.1 0 0 0-5.2 12.1c-.7 1.4-.7 2.7 0 3.2zm270.5-1c1 0 1.7 0 1.7-.2 0-.1.6-.3 1.3-.3 1.2 0 1.3 0 1-.4-.4-.3-1.4-.3-6.4-.3-4.2 0-6.1-.1-6.5-.4a.9.9 0 0 0-1.3.8c0 .3.8.3 4 .3 2.5 0 4.2.2 4.3.3.1.2 1 .3 1.9.3zm-226.7-.2c.3 0 .7-1 .5-1.3-.2-.2-.7.5-.7 1 0 .2 0 .3.2.3zm85.8-1.1c0 .8 0 1.1.4 1.1.3 0 .4-.4.4-2.2 0-2.3-.5-4.4-1-4.4v2.2l.2 3.3zm18.4.4c0 .2.3.4.5.4.4 0 .4-.3.3-1.9l-.5-10a66.4 66.4 0 0 0-.8-14c-.2-.2-.3-.2-.5 0-.2.6.6 24.8 1 25.5zm131.2.4c.2 0 .4 0 .4-.2l.8-.4c.7 0 .6 0-.3-.1-1 0-1.3 0-1.3.3s.2.4.4.4zm-163.2-2c.1-.4.2-9.6.2-20.8 0-17.7 0-20.1-.4-20.1-.6 0-.7 1-1.2 33.1 0 5.6 0 7.9.2 8.2.5.5 1 .4 1.2-.4zm-75.6-1c0-.2-.2-.4-.6-.4-.4 0-1.2-.4-1.8-1-1.2-1-2.4-1.2-2.4-.3 0 .4.3.6.8.7.4 0 1 .4 1.4.8.7.7 2.6.9 2.6.2zm-42.6-4.6c-.4-1.5-.8-1.8-1.6-1-.9.8-.5 3.2.7 3.9 1.3.7 1.5-.1.9-2.9zm143.9 2.5c0 .4.1.4.3 0 .2-.2.2-1.5 0-2.8 0-1.4-.2-2.2-.2-2 0 .4-.2.7-.4.7s0 3 .3 4zm141 0s1-.2 2.3-.2c1.2 0 1.9 0 1.5-.1-.3 0-.6-.3-.6-.4 0-.1-.6-.2-1.4-.2-.8 0-1.5 0-1.5.2s-.2.3-.5.3c-.5 0-.5 0-.2.4.2.2.4.2.4 0zm-177.7-.3c.3-.4.4-1.8.3-3.3v-6c.3-7 .3-37.7 0-39.5-.1-1-.3-1.4-.6-1.4-.4 0-.4 1.8-.3 14.9l.1 20.6a81.7 81.7 0 0 1-.5 14.4c.2.8.5.9 1 .3zm87.9-.2c.2.3.3.3.6-.2.2-.5.3-1.8.2-4.8a1776.6 1776.6 0 0 1-.2-47.7c-.2-9.5-.1-8.7-.5-8.2-.8.7-1 3.6-.8 7.4.2 1.9.3 14.6.3 28.3 0 18.3.1 25 .4 25.2zm-63.4-1c.4 0 .5-2.7.4-6.4l-.2-3.5-.2 2.9a89.7 89.7 0 0 0 0 7zm5.9-2.4c-.1 1.6 0 2.2.2 2.2.4 0 .4-1 0-3-.1-1.4-.1-1.3-.2.8zm-107.5.7c.5.5 1.5.5 2 0 .2-.3 1-2.2 1.6-4.4a57.5 57.5 0 0 1 4-9.3c1-1 1.6-2.1 2.7-5.2 1.2-3.2 1.5-4.2 1.7-5.4l.6-2c.3-.8.4-1 .7-.6.2.2.2.6 0 1.3-.6 2.4-.2 5.8 1.8 14.5l1 4c.6 2.6 1.3 3.7 2.4 3.7.7 0 .8 0 .7-1 0-.7-.5-2.8-1.1-4.8-3.3-11.3-3.2-10.7-3.2-15.5 0-4.3-.2-5.3-1.3-6.2-.6-.6-.6-.6-1 0-.5.6-.5 2 0 2 .3 0 .4.1.4.4 0 .4 0 .4-.2 0-.2-.3-.4-.2-1.2.5-1.6 1.6-1.7 1.2-1.1-2.5 1-5.8 1.2-20 .3-23.6-1.2-5.2-1.2-5.3-.7-5.7.7-.5 1.8-.9 2.1-.7.2.1.4 1 .6 2 .3 2.5.6 3 1.3 2.2.2-.3.2-.9 0-2.3-.3-1.7-.3-2 .2-2.6.2-.3 1-.8 1.5-1l1.1-.5c.3-.3-.5-.7-1-.5a48.4 48.4 0 0 1-10.3.3c-.3.5-3.6 1-5.8 1l-2.5.1c-.1.2-.4.3-.7.3-.9 0-1.8 1.2-1.8 2.3a63.5 63.5 0 0 0-.4 27.3c.2 1.2.4 1.4.9 1.1.3-.2.3-1 0-4.8a70.1 70.1 0 0 1 1.3-18.9c.2-1.8.2-1.8 1-1.9.4 0 1-.2 1.5-.5l2.5-.8c1-.3 2.1-.8 2.7-1.3 1.5-1.3 2.2-1.4 2.9-.4a9.5 9.5 0 0 1 1.6 4.6l.7 4.7c.8 6.2.3 16.5-1.4 26.2-.8 4.5-1 5.1-3 9.4-.9 1.7-1.7 3.7-1.8 4.4a22 22 0 0 1-1.5 3.6c-.7 1.3-1.2 2.5-1.2 2.7l-.5 1.2c-.7 1.2-.7 2-.1 2.6zm-4-55.7v.5s-.2 0-.1-.4c0-.3 0-.3.1-.1zm2.5-2.1c-.5 0-.5 0-.2-.4.4-.4 1.4-1 1.8-1 .5 0 .2.8-.4 1-.4.3-1 .4-1.2.4zm10.8-2.5c0 .4-.4.4-1.2 0-.7-.3-.8-.8-.3-1 .5-.2 1.5.5 1.5 1zm150.5 59.8c.2.5.2.5.4 0a6 6 0 0 0 0-2.4l-.2-1.8-.2 1.8v2.4zm80 0c3.4 0 6.4-.1 6.8-.6.2-.2.2-.3 0-.3 0 0-.2-.2-.2-.5 0-.4-.6-1.1-1-1.1-.2 0-.3.1-.3.3 0 .1-.3.2-.7 0a4 4 0 0 0-1.8.3c-.6.2-1.6.4-2.2.4-.6 0-1.1.1-1.1.3 0 .1-.4.3-.8.3-.6 0-.8 0-.8.3s.5.5 2.1.5zm7.9-.7h.8c.8 0 1.6-.5 1.6-1s-1-.3-1.7.4zm4.8-.3c0 .2.5.3 1.1.3.8 0 1.2-.1 1.5-.5.2-.3.6-.5.9-.5.2 0 .5-.2.5-.3 0-.4 2.3-.3 2.4 0 0 .3 0 .3.1 0 0-.1.5-.3 1-.3.3 0 .7 0 .7-.2l.6-.4-2.5-.1c-2 0-3.1 0-3.1.2s-.5.3-1 .3c-.9 0-2.2.9-2.2 1.5zM8 222.8c.4.8.6 1 1.6 1 1.3 0 2-.6 2-1.4l-.5-2a22 22 0 0 1-.8-4.2l-.6-5c-.5-2.7-1-11.5-1-16.2 0-1.9.2-3.6.5-5 .4-1.5.5-2.6.4-4.9-.1-2.1 0-3.6.3-5.2.7-3.8.9-4.3 1.8-5l2.3-2c1.1-1.2 1.6-1.5 2.7-1.7 1-.2 1.5-.4 1.7-1 .7-1.2.2-1.5-3-1.6-1.6 0-2.2 0-2.7.4l-2 1.4c-1.4 1-2.5 2.5-2.5 3.4 0 .3.2.7.4 1 .4.7.4.8 0 2a40 40 0 0 0-1 8.8l-.6 4.6c-.3 1.2-.4 3.2-.3 10.7a216.2 216.2 0 0 0 .7 17.5c0 3.1 0 3.7.5 4.4zm152.2.5c.2.3.3.1.4-.5 0-.4 0-.8-.2-1l-.4-.6v.7c0 .6 0 1.3.2 1.4zm-6-1.6c.3-.2.3-.6.1-1.3l-.3-1v1.2c0 1 0 1.3.3 1zm155.6-2c.3-.4.2-.5-.2-.5s-.6.2-.6.7c0 .7.4.6.8-.2zm0 .8h.7c.4 0 1-.3 1.4-.6l.7-.7h-.8c-.5 0-1 .2-1.4.7zm-103.3-2.2v1-1.9.9zm-122 0c.2.8.8.8 1.3 0 .9-1.1.3-3.6-.7-2.8-.5.4-.8 1.9-.6 2.8zm75.2-.5c0 .3.2.4.4.2.3-.4.2-2.6-.2-2.6-.3 0-.5 1.8-.2 2.4zm-116-.5c.5.5 2.2.3 2.3-.2 0-.2-.3-.6-.7-.9-.5-.2-.8-.6-.9-.9 0-.2 0-.6-.2-.9-.2-.3-.3-.3-.5 0-.4.6-.4 2.5 0 3zm104.6-1.1v.8a7 7 0 0 0 0-1.6v.8zm-126.5-1.7.4-2a175 175 0 0 0 2.3-18.6c-.5-.5-1 .4-1.3 1.8a89.5 89.5 0 0 1-1.6 9.9c-.6 3.5-1.4 6.5-2 7.7-.6 1-.6 1.6.2 2.3.7.8 1.8.2 2-1.1zm132.5-1c0-1.6-.1-2-.4-2-.5 0-.5.8-.3 2.8.3 1.9.7 1.4.7-.8zm143.7 1.3c1.2.1 5.5-.1 5.5-.4 0-.1 1.2-.2 2.6-.2 2.2 0 2.7 0 2.7-.4 0-.3-.5-.4-2.4-.4-1.7 0-2.4-.1-2.4-.3 0-.3 0-.3-.2 0 0 .1-.4.3-.9.3-.4 0-.7.1-.7.3l-1 .2c-.7 0-1.2-.1-1.3-.2-.2-.4-1.8-.4-2.2 0-.5.5-.4 1 .3 1zM48.7 214c0 .3 0 .5.1.4v-.5.1zm262.2-.2c.5.5.8.5.8 0 0-.2-.3-.4-.6-.4-.4 0-.4 0-.2.4zm1.3.4c.2 0 .3-.2.3-.4s-.1-.4-.3-.4c-.1 0-.3.2-.3.4s.2.4.3.4zm2.7-.7.4.1c.4 0 .6 0 .4-.1-.2 0-.5-.1-.8 0zm-166.6-.5.2-2.1c.2-2.4 0-4.7-.4-4.5a16 16 0 0 0 0 5.3zm158.7-2.8.5-.8c.2-.3.2-.6.1-.7-.3-.3-6.8 0-7.4.2-1.6.9-1.3 1 1.5 1h2.8l.2.8.4 1c.6.8 1.3.2 2-1.5zm-100.6-.1c0 .2 0 .4.1.3v-.5l-.1.2zm105-1c.5.4.8.4 1.2 0 .5-.6.5-1 0-1-.2 0-.4.1-.4.3 0 .1-.2.2-.5.2-.5 0-.5 0-.2.4zm4.6-.5c-.2.4.4.4.9-.1.4-.4.4-.4-.2-.4-.3 0-.7.3-.7.5zm-130.7-.1.2-1v-1.2c-.2-.8-.6.4-.4 1.3zm20.6-.1.4-.7c.4-.8.4-2.6 0-5.1l-.3-.9-.3.8c-.4.7-.4 1.9 0 4.9zm154.8-.6c.8 0 1.5-.7.9-1-.7-.2-1.4 0-1.4.6-.1.3 0 .4.5.4zm-173.5-1c.1.1.3.1.4 0 .3-.3-.3-3.8-.7-4.1-.2-.2-.4-.7-.4-1.2-.1-.6-.2-.3-.2.7 0 1.9.4 4.3.9 4.6zM3 205.5c.3.2 1.2-.2 1.2-.6l-.1-.6c-.2-.5-1.4-.6-1.5-.1 0 .6.1 1.1.4 1.3zm306.9-2.2c0-.3 0-.3.1 0 .2.5 2 .4 2-.1 0-.3-.4-.4-1.2-.4-.7 0-1.2.1-1.2.3l-.4.2c-.2 0-.4 0-.4-.2s-.2-.3-.4-.3-.4.2-.4.4c0 .5 1.8.6 1.9 0zm3 .3c.5 0 1-.2 1-.4.1-.3 0-.4-.6-.4-.4 0-.8.2-1 .4 0 .3.1.4.7.4zm2.2 0c.4-.1.7-.3.8-.5 0-.2-.1-.3-.5-.3-.4.1-.7.3-.8.5 0 .2.1.3.5.3zm1.6-.2c.8.2 1.3.2 1.3 0l.2-.7c.1-.3-.1-.4-1-.3-1 0-1.2 0-1 .5 0 .2.2.5.5.5zm3.7-.4c.4-.6.3-.7-.7-.5-1 .1-1.2.7-.4 1 .8.1.8.1 1.1-.5zm1.5-.2c.2 0 .4-.1.4-.3l-.4-.2c-.2 0-.4 0-.4.2s.2.3.4.3zM69 201.5c.3.6.4.6.8 0 .2-.4.2-1.1 0-2.5l-.6-4.3c-.6-5.2-1-6.7-1.7-6.7-.4 0-.8 1-.5 1.4l.4 2.6c0 1.2.3 2.7.5 3.2.6 2 .8 3.1.8 4.4 0 .8.1 1.6.3 1.9zm136.6-3 .3.3.1-2c0-1.7 0-2-.4-1.6-.5.5-.5 2.7 0 3.2zm-128.6 0c.3 0 .4-.3.4-1.4 0-1.2.5-3.5 1.2-6 .3-.8.8-.5 2.1 1.1 1.7 2.1 2.1 1.8 1-.8-.3-1-1-2.2-1.3-2.6-.5-.6-.7-.6-1.3-.3-.8.3-1.4 1.7-1.4 3.1 0 .6-.1 1.2-.3 1.3-.2.3-.8 3.4-.8 4.8 0 .6.2.9.4.9zm110.4-4.7 1-.4c1.2-.5 1.3-1.2.2-1.7-1.2-.5-1.5-.3-1.4 1 0 .6.1 1.1.2 1.1zm-122.6-2.4c.2.2.4.2.7 0 .3-.4.3-1 0-3.2A348 348 0 0 1 64 167c-.3 0-.7.3-1 1-.5 1-.6 1.5-.6 6.2 0 5 0 5.3 1.2 10.5a90.5 90.5 0 0 1 1.4 6.7zm-30.8-.7c-.2.1-.2.2.1.2.3 0 .5 0 .4-.2H34zm171.6-1.8.3.4a25 25 0 0 0 0-4.6c-.1.4-.3.6-.4.6-.4 0-.3 3.2 0 3.6zM4 186c.2.6.8.6 1.2 0 .4-.4 1-4.8 1-7.7l.3-3.9c.2-1 .3-2 .2-2.3-.2-.7-1.2-1-1.7-.7-.4.4-.6 2.7-.7 7A79.5 79.5 0 0 1 4 186zm301-.6c.3.3.4.3.5 0 .4-.7 0-2-.7-2.6-.6-.6-.8-1.6-.5-2.5.2-.5 1-.6 1.3-.2.1.2.7.3 1.3.3.7 0 1.3.2 1.5.4.2.2.7.6 1.2.8l1 .7c0 .2.1 0 .3-.1.2-.2.4-.7.4-1.1 0-.6.2-.7 1.1-1l3.5-.2c2.9.1 4.7 0 5.2-.3l3.2-.4c2.7-.1 4-.3 4-.4l1.4-.1c1.7-.2 2.5-.6 2.5-1.3 0-.4-.1-.5-1.2-.3l-1.6.4-2.2.1c-1.1 0-2.5 0-3 .2-.6.1-2.5.3-4.3.3-3.3.2-4.8.4-5.3.8-.2.1-.7.2-1.2 0-1.3-.2-2.9-.2-3 0 0 .2-.6.2-1.4 0-2.5-.7-2.6-.7-3.4 0-.3.4-1 .7-1.2.7a7 7 0 0 1-3.1-1.1c-1.4-1-2 1-.6 2a11.3 11.3 0 0 1 4.3 4.9zm-125.1-2v.5c.2-.2.2-.5.1-.8l-.1.4zm335.2-3.4c.5.1.8-.3.7-.8-.1-.2-.4-.3-.6-.2-.5.2-.5.8 0 1zm-2.7-2.4c.2.4.5.7.8.6.6 0 .5-2.4 0-3-.5-.4-.5-.4-.8.3-.3 1-.3 1.3 0 2.1zM309 176.1c.2 0 .4-.1.4-.3 0-.1.2-.2.5-.2s.6-.2.6-.4c0-.3-.2-.4-.4-.4-.3 0-.4 0-.4.2s-.3.3-.6.3-.5.2-.5.4.2.4.4.4zm-240.1-2.5c.4-1 .7-8.5.3-8.7-.6-.4-1 .1-1.3 1.4-.3 1.4-.4 6.8-.2 7.5.3.6 1 .5 1.2-.2zm110.5.5c.3.3.4.1.4-1.3 0-.8-.2-1.5-.3-1.5-.3 0-.4 2.5-.1 2.8zm138.3-.9c.4.4.8.5 1.9.4l8-.3a94.8 94.8 0 0 0 14-.8l2.5-.2c1-.4 5-.7 14.6-1.1 2.6-.1 4.8-.3 4.8-.5a108 108 0 0 0 18.7-.7c.8 0 1.8-1.6 1.4-2.1 0-.2-1-.3-1.8-.3-1 0-1.8-.1-1.9-.3l-.8-.2-.8.2c0 .2-2 .3-4.7.3-3 0-4.7.1-4.8.3-.1.2-.3.2-.6 0-.2-.3-.4-.3-.5-.1-.3.3-2 .9-2.7.9-.3 0-.6 0-.6.2s-.1.3-.4.3c-.2 0-.4-.1-.4-.3 0-.1-.3-.2-.8-.2-.4 0-.7-.1-.7-.3 0-.5-1.8-.3-2.2.3-.2.3-.6.5-1 .5-.5 0-.8.1-.8.3 0 .1-.3.2-.7.2-.3 0-.6 0-.6-.2s-1.1-.3-2.8-.3c-1.7 0-2.8.1-2.8.3 0 .1-.6.2-1.3.2-.7 0-1.3.1-1.3.3 0 .1-.5.3-1 .3s-.9-.2-.9-.3c0-.2-.4-.3-1-.3-.4 0-.8.1-.8.3 0 .2-.1.2-4 .4a169.5 169.5 0 0 0-7.4.2l.6-.9c.5-.5.6-.7.3-1-.4-.3-3.5-.4-3.7 0l-1.5.2c-.8 0-1.5.2-1.7.4-.4.4-.3.4.1.4.3 0 .6.1.6.3 0 .1.3.3.8.3 1.4 0 .8.4-.9.6-2.4.2-3.9.2-3.9-.1 0-.4.6-1 1.2-1.1.3-.1.2-.2-.3-.2s-.9-.2-.9-.3c0-.1-.7-.3-1.7-.3s-1.7.2-1.7.3c0 .1-.7.3-1.6.3-1.5 0-1.6 0-1.2.4.2.2.5.4.8.4.2 0 .4 0 .4.2s.2.3.4.3.4-.1.4-.3c0-.4 1.6-.3 2 .1l.4.6c0 .3-2 .8-3.1.8-.8 0-1.5.2-1.8.4-.3.3-.3.4.2.8zm12.9-2.6c-.3.3-.3.2-.1-.2 0-.2.2-.4.3-.3 0 .1 0 .3-.2.5zm-182.8-.5c0 .9 0 1.3.1.9a7 7 0 0 0 0-1.6v.7zm246.7-.8c1 .8 1.4 1 2 .8 1.6-.4 2.8-.5 3.3-.3.8.3 4.9.2 6.6-.2.9-.2 3.8-.4 6.7-.5 2.8 0 5.2-.2 5.3-.3l9.7-.8 12-1a396.7 396.7 0 0 0 37.3-2.1h7.4c6.6.1 6.7.1 7.3-.5l.7-.6-.7-.7c-.6-.6-.9-.6-3.2-.7l-4.7.2-8.7.4a110.2 110.2 0 0 0-11.3.5 2037.2 2037.2 0 0 0-31.9 1.4h-4.6c-4.1 0-16.6 1-18.6 1.7-.7.2-1.2.2-1.7 0-1-.4-3.8 0-5.4.7-1 .4-1.2.3-3.2-.2-2.2-.6-4.9-.7-5.1-.3-.1.2-.5.3-.8.3-.3 0-.7 0-.8.2-.2.2.6 1.1 1 1.1.1 0 .8.4 1.4 1zm-6.7.4c.3.3.7.2 1-.6.3-.7-.5-1.6-1-1.2-.4.4-.5 1.4 0 1.8zM6.5 169c1.4.1 2.4 0 2.7-.2v-1c-.2-.7-.4-1-1-1.1h-.9c-.1.3-.4.2-.7 0-.7-.4-2 .1-2 .8-.2 1 .3 1.3 2 1.5zm131.9 0c.2 0 .3-1.1.4-6.4 0-2.3-.6-10.5-.8-10.9-.1-.1-.3-2.3-.4-5-.5-7.5-.7-11-.9-11.4a92 92 0 0 1-1-9.2c-.5-6-.7-10-.6-12 .1-2-.1-3-.7-2.4-.5.5-.4 6.5.3 13.8a1293.3 1293.3 0 0 1 2 22.1l.4 4.5.4 6.1a94.9 94.9 0 0 1 .6 9.3c0 .8.1 1.4.3 1.4zm9.3-1.8c0 .5 0 .7.1.5v-.8c0-.3-.1-.1-.1.3zm-17.2-.5c.4.5.9.6 1.5.6 1.7 0 2-.7 1-2.8-.5-1-.6-2-.8-6a192.3 192.3 0 0 0-1-13 239.5 239.5 0 0 1-1-14 456.4 456.4 0 0 1-.7-23.6c0-2.4.2-5.6.4-7 .6-4.8.5-6.3-.4-6.3-.8 0-1 1-1.4 6.5-.2 3.2-.2 5 .2 17.7.3 10 .6 15.3 1.2 21.7.6 6.2.6 17 0 22.5-.2 1.6.2 2.9 1 3.7zm48.3-.6c.4.5.6-.4.4-2.5-.2-2-.2-2.1-.4-1.1-.2 1.3-.3 3.4 0 3.6zm32.7-1.1c.3 0 .4-.4.4-1.6 0-.8 0-1.2-.2-.9 0 .3-.2.6-.3.6-.1 0-.3.4-.3 1s.2.9.4.9zm-167.2-.5c.5.2.8.2 1 0 .2-.2 1.1-.3 2-.4a9092.2 9092.2 0 0 1 5.8-.8c.9-.7.3-.8-3.2-.6l-4 .2c-1.3 0-2.6 1.3-1.6 1.6zm103.2-.2c.3.6.7.5 1.5-.3.6-.6.6-.6.4-5.2-.3-9-.7-17-1-21.6-.2-2.6-.2-5.8 0-7.3v-4.5c-.2-1.4-.7-1.4-1 0-.6 2 .2 25 1.2 33.6 0 .8 0 1.4-.6 2.2-.6 1.2-.8 2.2-.5 3zm-83.2-.1c0 .4 1.7.3 2-.1.5-.5 2-.8 4-.8 3.1 0 4.2-.9 2-1.7-.7-.3-1.1-.4-1.7-.1-.6.2-.8.2-.9-.2-.2-.8.1-1.3 1.6-2a5 5 0 0 1 2.8-.8c1.3 0 1.4 0 1.5-.6l-.1-.6c-.2 0-.8-.4-1.4-1-.7-.5-1.4-.9-1.8-.9-.9 0-4.6.7-6 1.1-1 .3-1.3 1-.4 1.2.5.2.6.3.4 1.3-.2 1.4-.5 1.6-1.8 2-1.3.3-2 .8-1.7 1.3.1.2.5.2.8.2h1c.3.3.3.4 0 .9l-.3.8zm109-1v-2.3c-.1-.6-.2 0-.2 1.2s0 1.7.1 1zm322 .2c.1 0 .3-.1.3-.3l-.1-.2c-.1 0-.2 0-.3.2v.3zm-450.5-1c.1-.2.8-.4 1.5-.4 1.9 0 2.8-.3 2.9-.8.1-.7-.4-1-1.6-1-1 0-3.2.5-4.2 1-.5.1-.9 1-.6 1.2.3.3 1.9.2 2 0zm-9-1.4v-.6c-.2-.1-1.7-.4-3.5-.6-1.8-.2-3.7-.5-4.2-.7-1-.3-3-.1-3.4.4l-.4.8c0 .5 0 .6 1.4.6l2.6.3c1.9.4 7.1.3 7.4-.2zm175.7-1.2.4.3a848.8 848.8 0 0 0 .3-33.8c0-1.4 0-11.7.2-21l.2-21.4.2-15.3c.2-3.3.2-3.6-.2-3.6s-.4-.3-.5 10.4l-.2 12.6a1812 1812 0 0 0-.6 35.6l-.2 15.6a55.3 55.3 0 0 1-.5 12.6l.4 4.3c.1 2 .3 3.5.5 3.7zm-33.3-.5c.4 1 .7-.2.6-2.8 0-3.7-.2-5.3-.5-4.6-.2.6-.3 6.8 0 7.4zm-25-1.7c.2-2.6.2-4-.1-4-.2 0-.3 1.2-.4 2.9 0 3.2.3 4 .5 1.1zM9 158.6c1 .3 3.7.1 6-.3l5-.2c2.3 0 3.4 0 3.7-.3.4-.3.3-.4-.3-.7-1-.6-7.7-.8-10-.4-1 .3-1.6.3-1.8.1-.6-.4-2.8-.6-3.4-.3-1 .6-.6 1.8.8 2.1zm22.9-2.3c1.5.9 3.8.3 3.4-.7-.2-.4-2.2-1-3.5-1a9 9 0 0 1-2.2-.5c-2.3-.8-3-1-3.4-.7-1.3 1.3 1.8 3.5 4 2.8.7-.2 1-.2 1.7.1zm20.7-2c1.5-1.2-1.9-3.2-5.4-3.2-1.8 0-3 .6-3.5 1.6-.2.5-.2.7.4 1.4.4.5 1 1 1.3 1 1 .5 6.3-.1 7.2-.8zm30.8-.7c1.6-.6 2-1 1.5-1.3-.2-.2-.6-.2-1-.2-.8.2-2.7 1.4-2.7 1.8 0 .4.8.3 2.2-.3zm-16.5-1c2.6 0 2.7 0 3.6-.9 1-1 1.4-1.7 1-2.2-.5-.6-2.7-.7-5-.4-3.2.5-4.3 1.6-3 2.9.6.5 1 .5 3.4.5zm86-.1.3-.1a60.2 60.2 0 0 1 .8-7.7c0-.6 0-1.5-.2-2.2-.1-.7-.3-1-.3-.8 0 .2 0 .8.2 1.2.2.6.2.9 0 1-.6.2-1.1 6.4-.8 8.6zm-77.2-1c3-1 5-1.4 6.6-1.4 2 0 2.5-.3 3.5-2 .3-.6.6-.9 1-.9s1.6-.3 2.7-.8c1.2-.5 2.4-.8 3.2-.8 1.5 0 2-.4 2.7-1.6.9-1.7.2-2.3-2.3-2-1.4.3-2.8.9-4.6 2.1-.8.5-1.5.8-2.2.8-1 0-2 .4-4.4 1.8a6 6 0 0 1-2 .8c-.4 0-1.9.4-3.4 1-3.4 1-4 1.6-2.9 2.6.9.7.9.7 2 .4zm-47.3-1.3c.2-.4-.5-1.1-1.1-1.1l-1.6-.5c-1.6-.8-6.5-1-7.3-.5-.3.3-.4.5-.3 1 .2.4.4.5 2.7.6l4 .4c2 .3 3.5.4 3.6 0zm7.7-1 3.9-.3c3.4-.2 5-.6 5-1.3 0-.6-1.2-.9-3.7-.9-2 0-2.8.1-5.2.7-1.2.2-1.9 1.5-1 1.8h1zm70.7-3.5c0 1.7.2 3.1.3 3.1.2 0 .2-11.2 0-17.8l-.2-11c0-6.3-.2-7.7-.8-6.2a176 176 0 0 0 .7 32zM62 147.1c1.3-.3 1-.8-.6-1.3-2.4-.7-3.7-.8-4.5-.3-.7.5-.8 1-.3 1.4.3.4 4 .5 5.4.2zm111-2.1c0 .7 0 1 .1.7v-1.3.6zm-142.5.6c.7.4 4.5.4 4.8 0 .3-.3.2-.5-.4-.7-.8-.3-4-.6-4.5-.4-.5.2-.4.8.1 1.1zm15.3-.6c2 0 2.8-.3 2.8-.7 0-.3-1.3-.5-3.2-.4-2 0-2.3.2-1.8.8.3.4.7.4 2.2.3zm24.8-.5 2.9-.4c2.3-.3 1.5-.7-1.1-.6-2.5.1-3.6.4-3.3.9.1.2.6.2 1.5 0zm-55.7-.6c.3.3 4.2.4 9 0l3.7-.1c1.5 0 3.3-.5 3.3-1 0-.1-.3-.4-.6-.4a34 34 0 0 0-7.1-.1c-.4.1-2.3.3-4.2.3-2.7.1-3.7.2-4 .5-.3.3-.3.5 0 .8zm64.8 0c.1-.2.7-.4 1.3-.5 2-.2 3.7-.6 5.2-1.1.8-.3 2.4-.8 3.7-1 1.4-.3 2.3-.6 2.6-.9.3-.5.2-2-.3-2.6-.4-.5-2.5-.3-3.6.3l-2.9 1c-3.2.8-4.5 1.3-4.9 1.7-.1.2-.7.4-1.2.4-.6 0-1 .2-1.5.6-.8.8-.8 1.1-.2 1.8.4.5 1.4.6 1.8.2zm83.2-.3c0 .3 0 .5.1.4v-.5.1zm-104.6.2c1.4 0 4.5-.6 5.3-1l1.8-.4c1.7-.2 3.3-.7 3.3-1 0-.3-2.2 0-3.2.3l-4.3.6c-3.8.4-4.1.5-4.1 1.1 0 .3.3.4 1.2.4zm-20.8-1.4c0 .4.5.4 2.6 0 1-.3 4.4-.6 8.2-.7 8.4-.4 12-.7 12.9-1.1.8-.5 3.8-1.1 6.8-1.5 2.2-.3 2.5-.2 2.5 1.2v1l1.4-.2c.7-.1 2-.5 2.8-.9a17 17 0 0 1 3.6-1c2.3-.5 3-.8 3-1.3 0-.4-1.2-1.5-1.7-1.5-.2 0-.3-.1-.3-.3 0-.3-3.5-.3-5.2 0l-3.2.6c-1.3.2-2.3.5-3.1 1-.8.6-2 1-3 1.2l-3.4.8c-1.1.3-2.8.5-6.2.5h-4.6v-1.5c0-1-.2-1.6-.3-1.7-.5-.2-1.2 1-1.2 2v1l-1.4.2-4 .3c-2.7 0-5.6.6-6 1.2l-.2.7zm-28.7-.3c.2.5 1 .5 1.4 0a54.1 54.1 0 0 1 2.7-13.6l1.4-5c.4-1.2 1.4-3.7 2.3-5.5l1.7-3.8A91.1 91.1 0 0 1 26.5 99c1.2-1.7 2-3.3 2-3.5-.3-.7-1.1-.4-2.2.9a21 21 0 0 0-3.1 5.2l-1.6 2.7-1 2.2-1.5 3a24 24 0 0 0-1.8 3.5l-1.7 4a8 8 0 0 0-.8 2.3c0 .3-.2.7-.4.8-.2 0-.3.3-.2.4 0 .2-.2 1-.7 1.8a23.2 23.2 0 0 0-2.1 5c-.3.5-1.1 3.7-1.6 5.8-.9 3.8-1.3 8-1 9zm145.2 0 .2-1.2a116 116 0 0 0 .2-12c-.6.6-1 9.4-.6 12.1zm-131.6-1.9c.2-.2.3-.5.2-.8-.2-.4-.5-.4-2.8-.3-2.2.1-2.6.2-3 .7-.3.4-.4.7-.3.9.2.4 5.4 0 5.9-.5zm11.8-.4c.1.1.3.3.5.3.5 0 .5-1 0-1.2-.4-.1-.7.3-.5.9zm129.1-1.5c0-.2 0-.5-.2-.8-.2-.4-.2-.4-.1 0l.2.8c0 .3 0 .3.1 0zm-136-1.2c.3.5 1.1 0 1.3-1 .7-2.9 5.2-14.8 7.5-19.5.4-.8.6-1.6.5-2 0-.5.2-1 1-2 .5-.6 1.5-2.2 2.1-3.4a241.6 241.6 0 0 1 9-16l2-3c1.8-2.6 3.4-5.2 3.4-5.6 0-.7-1-.3-2 .8a30.7 30.7 0 0 0-4.7 6.5c-.4.8-1 1.8-1.3 2L45 95.7l-.8 1.4-1 1.8-1.2 1.9-2.2 4.2c-1.1 2.1-2.1 3.9-2.3 4-.5 0-.5-1.5 0-4.3l.8-5.6c.1-1.5.4-3.3.6-4a131.5 131.5 0 0 0 2-7.7c.2-.1.3-.6.3-1 0-.9-.9-1-1.5-.1-.7 1-1.7 4.4-2.2 7.9a1811 1811 0 0 1-1.5 9.7 338.8 338.8 0 0 1-.4 8.6c0 1-.1 1.6-1 3.5a126.4 126.4 0 0 0-5.2 12.4c-.4 1-2.2 7.1-2.3 8l.1.8zm338.8-.4c1.5 0 1.6 0 1.6-.7 0-.6 0-.7-1.7-.7-1.5 0-1.8.1-1.8.5l.2.7 1.7.2zM35.6 136c1 .9 1 .3 1.3-4.4a57 57 0 0 1 2.6-16c.6-1.5.6-3 0-3.1-.4-.2-.9.3-.9 1L38 116a39 39 0 0 0-3 14.2c-.1 3.7.1 5.2.7 5.8zm137.7-1.6c0-1.3 0-1.7-.4-1.7-.3 0-.4.3-.4 1.3 0 .7 0 1.5.2 1.7.3 1 .6.3.6-1.3zm197.5 1.7c.7 0 1.2 0 1.2-.2s.2-.3.4-.3c.5 0 1.2-.6 1.2-1 0-.5-1.5-.3-2 .2-.3.3-.8.5-1.2.5-.5 0-.8.2-.8.4 0 .3.3.4 1.2.4zm-191.6-2.5c0-1.6 0-2.5-.5-2.5-.4 0-.5.9-.4 3 .1 2.2.7 1.9.9-.5zm-127.7 1.2c.5 0 1.2-1.5 2.6-5.4a73.3 73.3 0 0 1 4.4-11.2c0-.3 1.3-3 1.8-4l1.6-3a78.3 78.3 0 0 1 4.5-8.6c0-.4 2.7-6 4-8 .9-1.7 1.3-2.1 1.8-2.1.4 0 1.5-1.6 2.2-3.2A149.7 149.7 0 0 1 90 66.8c.8-.9 1-1.5.9-2.3 0-.3-.2-.3-.7 0a38 38 0 0 0-6.7 9l-2.7 3.8-2.2 3.4c-.8 1.5-2 3-3.1 4.1a35 35 0 0 0-5.3 7.3 175.4 175.4 0 0 1-5.4 9.6l-1 1.9a46.7 46.7 0 0 1-3 6.9l-2 4a48.8 48.8 0 0 0-3.5 8.1l-1 3c-1.2 3-3.1 8.6-3.1 9 0 0 .1.2.4.2zm29-1.4c1 1.2 1.6 1.2 1.4-.1l-.3-3.6c-.1-2 0-2.7.2-3.1.4-.5.5-.5.7-.2.3.3.3 1 0 2.7-.2 1.7-.2 2.4 0 3 .2.3.3.8.3 1.1 0 .3.3.6.6.7.7.2 2.9-.1 2.9-.5a3 3 0 0 0-.7-1c-.8-1-.8-1-1.2-5.4v-3.9a90 90 0 0 1 6.6-28c1.2-2.1 1.3-2.6.7-2.8-.6-.2-1 .3-2 2.4a74.5 74.5 0 0 0-6.4 25.6c0 2.5-.2 3.4-.4 3.5-.4.2-.5 0-.7-1.8-.2-1.4-.4-1.8-.7-1.6-.2 0-.3 1-.2 2 0 1.2-.3 2.6-.8 4.8-1.1 4-1.1 5 0 6.2zm302.2.1c.6-.6.3-.8-1.3-.8-.8 0-1.5-.1-1.6-.3 0-.1-.7-.2-1.5-.2-1 0-1.3 0-1.3.4 0 .2.3.4.8.4.4 0 .9 0 1 .2 0 .2.4.3.8.3l.6.2c0 .5 2 .3 2.5-.2zm-9.1-.3c0-.1.2-.2.5-.2s.6-.2.6-.4c0-.3-.3-.4-.6-.4s-.5-.2-.5-.3c0-.2-.4-.3-1-.3-1 0-1.1.4-.5 1.4.3.5 1.5.7 1.5.2zm18.4 0c.2.4.8.4 1 0 .1-.1 0-.3-.1-.4-.4-.2-1.1 0-1 .4zm6.6 0c.3.2.8.2 1 .1l3.2-.3a11 11 0 0 0 3-.3c0-.2 1.4-.3 2.9-.3 2.3 0 2.7 0 3.1-.5.5-.5.5-.5 0-.7h-2.4l-3.4.2-2.6.2c-.8.2-2.8.4-4.6.4-1.8 0-3.4.2-3.5.3-.6.3 0 .7 1.4.7l1.9.2zm-4.6-.4c.1 0 .2-.3 0-.4 0-.1-.2-.2-.3 0-.2 0-.2.2-.1.3 0 .1.3.2.4.1zm-61.2-1c.2.7.5-.1.4-1l-.2-.6-.2.6v1zm-258.9-.2c.1 0 0-.3 0-.4-.2 0-.3 0-.3.3 0 .4.1.5.3.1zm297 .3c.3 0 .6-.2.6-.4s-.3-.4-.7-.4c-.4 0-.6.2-.6.4s.2.4.6.4zm89.5-.7c0-.5-.7-.8-1-.5-.3.1-.2.3 0 .7.6.5 1 .4 1-.2zM60 131c.5.6.8.6 1.1-.2.2-.5.2-1 0-1.9a5 5 0 0 1-.1-1.9l.4-2.8.6-3.6 1-4 1-3.5c.6-1 .6-2.3 0-2.3-.3 0-.8.7-1.2 1.5a2599.6 2599.6 0 0 0-1.1 2.9l-.5 2A27.3 27.3 0 0 0 60 131zm-40.8-2.3c.2-.3.5-1.6.6-3l.8-4c.9-2.5.7-3.8-.5-2.6-1.3 1.4-2.7 8.8-1.8 9.9.4.5.4.5.9-.3zm159.3 0c.4 1.7 1-.4.8-2.8 0-.8-.2-1.2-.4-1.2-.3 0-.5.4-.5 1.7v2.3zm161.3 0c.1.2.3.3.5.3.3-.3.3-2 0-2-.4 0-.7 1.2-.5 1.7zm38.7-.3c.6-.2.5-.8-.2-1-.6-.2-1.3.2-1.3.8 0 .4.7.5 1.5.2zm-223.8-.4v-1l-.1.5c0 .5 0 .7.1.5zm205.4-.2c.1 0 .3-.6.3-1.2 0-.7-.2-1.2-.3-1.2-.1 0-.3.5-.3 1.2 0 .6.2 1.2.3 1.2zm-195.8-1c.3-.7.3-2.5 0-2.5-.1 0-.2.7-.2 1.5 0 1.1 0 1.4.2 1zm-89.5-.1c.5 0 .8-.7 1-1.9l.2-1.1-.6.5c-.3.3-.6 1-.7 1.5l.1 1zm79.8-3.4c0 1.8 0 2.6.3 2.6a59.8 59.8 0 0 1 .6-2.6c.3-2.4.3-6 0-6-.2-.1-.4.2-.4.6a19.7 19.7 0 0 0-.5 5.4zm178.4 1v-2.7 2.8zm-232 .8c.2-.4-.2-1.3-.5-1.2l-.2.8c0 .7.3.9.6.4zm377.7-6.6c-.1-2-.2-2.5-.4-2-.2 1.1-.2 6.1 0 6.3.4.4.6-1.6.4-4.3zm-401.3 2 1.9-5.3a99.5 99.5 0 0 1 5.6-13.5l.7-1.6 1.4-3a222 222 0 0 0 5-8.7c2.5-4.3 5.3-9.5 5.5-10.2.2-.8-.4-1.1-1-.4-.7.7-1 .6-1-.3 0-1 .5-2.2 2-4.6 1.4-2.3 3-6 3-6.8 0-.3.3-.8.6-1.1.4-.4.8-1 .9-1.4.2-.4.5-1 .9-1 .3-.2.6-.5.6-.7 0-.2.3-.7.7-1 .9-.9 1.1-1.5.4-1.2-.2 0-.4.2-.4.4 0 .3-.6 1-.9 1-.6 0 1.1-3 2.8-4.7 1-1 1.1-1.2 1-2-.2-.9-.3-1-1-1-.4 0-.9.2-1 .5a54.6 54.6 0 0 0-4.6 7.2c-.3.4-1 1.7-1.5 3a61.7 61.7 0 0 0-5.4 12.6c-.9 2.4-1 3-.7 3.5l.7.8c.6.4.4 1-1 3.2l-2.2 4.1-2 3.7c-.6 1-1.2 2-1.3 2.4 0 .4-.5 1.1-.9 1.8l-.7 1.4c0 .1-.2.3-.4.3-.4 0-.7-1.8-.5-3.2A139.8 139.8 0 0 1 88 79.4c.8-2.7.9-3.6.1-3.1a31.4 31.4 0 0 0-4 12.6l-.6 2.5-.4 6.2c0 5-.2 6-.8 6.8l-.7 1.3a315 315 0 0 1-2.2 5.2l-1.1 3a302 302 0 0 1-2.4 8c0 1.1.7.4 1.4-1.6zm86.6-2c0 1.6.2 3 .3 3 .1 0 .3-3.8.3-8.4v-10.2c.1-1.6 0-2-.3-2s-.4 1-.4 7.4l.1 10.3zm196.6 1.3c.2 0 .3-.3.3-.6 0-.4-.1-.7-.3-.7-.1 0-.2.3-.2.7 0 .3 0 .6.2.6zm21.3 0c.6 0 .8-.4.6-1.2-.2-.6-.3-.6-.6-.4-.2.2-.4.6-.4 1s.2.6.4.6zm-49-.7c0 .3 0 .5.1.4v-.5c0-.2-.1-.2-.1.1zm169.7.2c.4 0 .7-1.6 1.1-5.3 1.2-10.5 1.3-11.3 1.7-23.1l.4-13.6c.3-6.7.2-8-.4-8.2-.6-.2-.8 1.3-1 9.6a276.9 276.9 0 0 1-2.3 40c0 .3.3.6.5.6zm-169.7-1.5c0 .3 0 .5.1.4v-.5c0-.3-.1-.2-.1.1zm141.8-1.8c0 .4 0 .6.1.5.1-.2.1-.6 0-.8v.3zm24.8-.6.3-2.9c.3-5 .3-10 0-10.3-.5-.3-.9 12.4-.3 13.2zm-427-.1c1-.1 1.4-1.4 1.6-4 .1-1.4.3-3 .5-3.5.2-.6.4-2.2.5-3.6.3-2.5.6-3.6 2-6.2.5-.7 1.2-2.4 1.6-3.7.5-1.3 1.2-3.1 1.7-4 .5-1 .8-2 .8-2.2 0-.8-.7-.7-1.5.2a83.8 83.8 0 0 0-7 14.6c0 .5-.4 1.9-.8 3a19 19 0 0 0-.2 8.4c.2.8.4 1 .9 1zm224.4-1.4c0 .8 0 1.2.2.8a7 7 0 0 0 0-1.6c-.1-.4-.1-.1-.2.8zM333 115v-.6l-.1.3c0 .4 0 .5.1.3zm-309.7-1.2.6.4c.6 0 1-3.2.5-4-.3-.4-.3-.4-.7 0-.6.6-.9 3-.4 3.6zm421.1-1.2a70620.2 70620.2 0 0 0 1.4-21.9l.3-9.6c0-3.4.1-8.1.3-10.5.3-6.7.4-18 0-18.4-.9-.9-1 .1-1.1 12a3010.9 3010.9 0 0 1-.9 48.4zm-139.5-1v.7c.2-.3.2-.8 0-1.1v.5zm-192.7.7c.1 0 .3-.5.3-1.2 0-.6-.2-1.2-.3-1.2-.2 0-.3.6-.3 1.2 0 .7.1 1.2.3 1.2zm220.6-.6c.3 1.3.6.1.9-3.2v-3.6c-.2-.5-.8-.3-1 .3-.2.8-.2 5.8 0 6.5zm145.4-.5a33.2 33.2 0 0 0 .6-7.9c-.3-.4-1 4-1 5.9 0 .7.2 1.6.4 2zm-117.2-5c-.1 2.6-.1 3 .2 2.7.7-.7 1-19.7.5-33.4A1212.5 1212.5 0 0 1 361 52v-6c0-1-.1-1.2-.4-.8-.3.4-.4 2-.5 7.5 0 4 0 7.3-.2 7.4-.1.2 0 1 .2 1.8.4 1.4.4 1.6 0 2.6-.4.9-.4 1.9-.3 6.8l.4 9.8c.5 6.1.9 21.7.7 25.1zm-56.1 2v.5c.1-.2.2-.6 0-.8v.3zm-199.6-.1c.2 0 .3-.2.3-.4 0-.3-.1-.4-.3-.3l-.3.4c0 .2.2.3.3.3zm370.3-1.3c.2-.5.4-1.8.4-2.7l.2-2.5c.2-.3.4-2.7.6-5.2l.5-7.6a4338.9 4338.9 0 0 1 1-30.3c0-4.2 0-5.2-.2-5.1-.8.2-1.1 1.6-1.2 5.6l-.3 6.7-.2 13.5a380.2 380.2 0 0 1-1 26.1c-.2 2.2-.2 2.3.2 1.5zm-158 0 .3-.6c.7-1.3 1-6.5.5-7.6-.3-.8-.8-7.3-.9-12.7 0-3.1-.1-3.7-.4-3.5l-.2 4.3-.3 5.6c-.1 1 0 2.3.1 3 .2.9.3 3.3.3 5.5s.1 4.4.3 5zm105.1-4c.1 2.6.3 3.6.5 3.4.3-.3.3-5.8 0-8l-.2-1.1-.2 1c-.1.4-.2 2.6 0 4.6zm-363 3.4c.3 0 .7-1.6 1.2-4.9.3-2.5.8-4.7 2-8.8l1-4.1c0-.6.4-1.6.8-2.3l1-2.2c.1-.6.5-1.8.9-2.6.3-.8.7-1.9.7-2.3l.4-1.2a7 7 0 0 0 1-3.1c-.3-.7-1-.8-1.5-.1-.3.3-.8 1.5-1.2 2.8L63.5 85a117 117 0 0 0-3.2 11.3c-.3 1.5-1 7.8-1 9 0 .5.1.8.3.8zm379.5-.4a361 361 0 0 1 .5-9.5c.2-2.8.4-8.3.4-12.3l.4-10.3c.4-3.7.4-10 0-10.2-.3-.2-.7 2.5-.9 6-.2 4.6-.5 35.7-.4 36.3zm-150-.5.5.4a65.4 65.4 0 0 0-.2-7.5c0 .5-.2.9-.3.9-.4 0-.3 5.8 0 6.2zm44.3-1.2c.1-.1 0-.2-.2 0-.3 0-.5.1-.5.2 0 .2.6 0 .7-.2zm56-3.4c0 2 0 3.2.2 3 .2-.2.2-4.4.1-11.3 0-6.3-.3-11-.4-10.8a127.4 127.4 0 0 0 0 19zm-2.8 2.6c.3 0 .4-.3.4-1 0-.8 0-.9-.4-.6-.2.2-.4.6-.4 1s.1.6.4.6zm-62.2-1.4v.7-1.3.6zm16-.3c.2 0 .3-.3.3-.4 0-.1-.1-.3-.3-.3-.1 0-.2.2-.2.5 0 .2 0 .3.2.2zm-12.9-.8c0 .4 0 .7.1.5.1-.2.1-.6 0-.8v.3zm172.8-3a43 43 0 0 0-.4-9.9c-.1.1-.3 2.8-.4 6 0 4.6 0 6 .2 6.6.3.8.4.5.6-2.7zm-234.2 2.7c0 .3 0 .5.1.4v-.5c0-.3 0-.2-.1.1zm151.2 0a459.7 459.7 0 0 0 1.4-52.4c-.1-.3-.2-.3-.5 0-.3.4-.4 4.6-.6 24.4a1274 1274 0 0 1-.3 28zm61.4.2c.4 0 .4.1.4-6.5 0-5.3 0-5-.3-4.7-.1.1-.3 2.6-.4 5.7 0 4.7 0 5.5.3 5.5zM279.5 99v.8a7 7 0 0 0 0-1.6v.8zm-131.7.4c.4 1.4.9-.2.9-2.7 0-1.5.3-4.7.8-7.5l.4-6.5a66 66 0 0 1 1-11.4l.4-3.2.7-4.3a251.4 251.4 0 0 0 1.8-9.5c.7-2.6.9-4.5.4-4.4-.8.3-2 5-3 12.3a277.5 277.5 0 0 0-2.4 21.7c0 1.6-.5 6.4-.9 9.1-.3 2-.3 5.6 0 6.4zm157.2 0v-2.9c0-2.4 0-2.6-.2-1.5a14.2 14.2 0 0 0 .2 4.4zm-38.4-.6c.2 0 .4-.2.4-.7 0-.6 0-.6-.4-.2l-.4.6c0 .2.2.3.4.3zm58-.6v-.9c-.1-.3-.2 0-.2.5s.1.7.2.4zM296.9 97c0 1.5 0 1.5.4.8.5-1 .5-1.5 0-2-.4-.3-.4-.2-.4 1.2zm-34.3-1.4v1.1-2.4 1.3zm78 1.7c.3-.5.3-5 0-5.1-.2-.1-.3.8-.3 2.7 0 2 0 2.7.2 2.4zm46.3-1.4c0 1 0 1.4.1 1v-1.9.9zm84.5-.8.2 2.1.3-2a68.9 68.9 0 0 0 0-13.4c-.4-.4-.4-.4-.4.9-.2 4.5-.2 10.6 0 12.4zm-182-.1.2 1.1a46.8 46.8 0 0 0 .8-7.1c.3-9.6.3-9.5.9-12.2.2-.9.1-1.7 0-2.5-.3-1-.3-1.5 0-2.3.2-.6.3-1.5.2-2l-.3-10a300 300 0 0 0-.2-12c.4-.2.7-2.8.4-4.1l-.1-1.1-.6.5c-.6.6-.6.8-.6 10v13c.1 4.7 0 7.3-.5 17.3-.1 2.7-.2 8.9-.1 11.4zm92.7 1.7.2-3c.2-1.6.1-3 0-3.1-.1-.1-.2 1-.2 3zm-97.6-.8c.3.2.4-.6.5-4.4.2-4.7.1-6.6-.3-6.6-.2 0-.3-.3-.3-.7 0-.5 0-.6-.2-.4 0 .3-.2.5-.4.6-.2.1-.2.2 0 .2.1 0 .3 2 .3 5.5 0 3.8.2 5.5.4 5.8zm-5-.5.1-3.6c0-2.3 0-3.6-.2-3.7-.1 0-.3-.4-.3-.8 0-.5 0-.8-.2-.8s-.3-.4-.3-.8l-.2-.8c-.2 0-.3-.3-.4-.6-.1-.5-.1-.5-.1.1 0 .4-.2.8-.3.9-.5.3-.4 3.6 0 3.6.3 0 .5-.4.6-.8.2-1 .7-1.1.7-.3 0 .3 0 .5.2.5s.3 1.4.4 3.5zm17.8-2.1c.4-.5.5-2.6.1-2.6-.1 0-.3-.2-.3-.6-.1-.3-.2.4-.2 1.5 0 1.8 0 2 .4 1.7zm14.5-1.4v.9a7 7 0 0 0 0-1.6v.7zm-6.9 1.2c.1 0 .2-1.8.2-4 0-3.3 0-4-.4-4-.3 0-.4.3-.4.9 0 .4 0 .8.2.8s.3.3.3.7c0 .5-.1.9-.3 1l-.2 1.6c0 .8 0 1.4.2 1.4s.3.4.3.8l.1.8zm82-3v2.3l.2-1.7c.3-2.6.3-11 0-11.2a62 62 0 0 0-.3 10.6zm-120.1.8v.4c.1-.2.2-.5 0-.8v.4zm169.1-.4c.4.4.4.2.4-1.8 0-1.2-.1-2-.3-1.8-.3.2-.3 3.4 0 3.6zm-278.7-.8c.3 0 .3 0 .3-4.4.1-3.1.5-9.5 1-13.8.2-2.6.1-3.3-.5-3.3-.7 0-.8 1.8-1 13 0 5.3 0 8.5.2 8.5zm109.7-1.8c0-.4.2-.6.4-.6.3 0 .2-1.6-.2-2-.4-.4-.4-.2-.4 1.4 0 1 .1 1.5.2 1.2zm8.3-.8c0 .8 0 1.1.2.8v-1.3c-.1-.4-.2-.2-.2.5zm36.5.8c0 .3 0 .5.1.4v-.5c0-.3 0-.2-.1.1zm-197.7 0c.3.3.5.2.7-.6.3-.6.3-.7 0-.6-.5.1-1 1-.7 1.2zm148.7-1V86c-.1-.2-.2 0-.2.5s0 .7.2.4zm42-2c.3 0 .4-.3.3-1 0-.5 0-.8-.1-.5 0 .2-.2.4-.4.4l-.2.6c0 .3.2.5.4.5zm77.6-.1c.2-.1.3-.5.3-.8 0-.4-.1-.7-.3-.8-.1-.1-.2.2-.2.8 0 .5 0 .9.2.8zm-119.7-.2.2-2.6.4-3.3c.3-.7.2-1.5-.2-1.5l-.5.8c-.4.8-.5 5-.2 5.2l.2.8c0 .4 0 .7.1.6zm12.6-1.2c0 .8 0 1.1.2.8v-1.3c-.1-.5-.2-.2-.2.5zm148.3 1 .1-1.5c0-1.1 0-1.5-.3-1.3-.2.2-.2.8 0 1.5 0 .7.1 1.3.2 1.3zm-140-3c.1 1.2.3 1.6.6 1.6.2 0 .3-.3.3-1.3a239.3 239.3 0 0 1 0-9.9l-.2-1v.9l-.2 3c0 1.2-.2 2.7-.4 3.5-.2.8-.2 2-.1 3.1zm21.4.2v.5c.1-.2.2-.6 0-.8v.3zm195.3.8.3-1.6a69 69 0 0 0 .4-11.9c-.1 0-.4 0-.5.2a84 84 0 0 0-.4 12.3zm-166-1.2c.3-1 .3-1.3 0-1.3-.2 0-.3.4-.3 1 0 .8 0 .9.3.3zM317 81l.3-2.7.3-4.7c.3-3.9 0-7.2-.7-7.2-.4 0-.5 1.7-.3 5.4a130.2 130.2 0 0 1 .4 9.2zm155.5-2.7c.8-3.4.9-4.6.5-4.3-1 .6-2 5.2-1.3 6.1.3.4.4.2.8-1.8zM297 79.6v-.7.7zm8 0v-.7c-.1-.2-.2 0-.2.3 0 .4.1.6.2.4zm29.4 0c.7 0 1-24.4.3-25-.3-.4-.3-.6-.4 14.3l.1 10.6zm86.4-.5.3-1.3c.4-1.4.6-11.4.3-11.7-.2-.2-.3.7-.2 4 0 1.4 0 2.7-.2 2.9-.4.4-.6 3-.4 4.6zM275 78.7c.3 0 .4-.2.4-.4 0-.4 0-.4-.4-.1l-.4.4.4.1zm3.4-1c0 .5 0 .7.1.6 0-.2.1-.6 0-.8 0-.3-.1-.1-.1.3zm109-2.3c0-2.4-.3-9-.5-8.7-.2.2-.3 8.2-.1 9.8.2 2 .6 1.4.6-1.1zm-112.1 1.4c.1-.7 0-1.8-.4-1.8-.2 0-.3.5-.3 1.2 0 1.3.4 1.6.7.6zm107.1.4c.3-.3.5-.8.5-1.6 0-1.6-.6-1.1-.8.6-.1 1.2 0 1.3.3 1zm7 0c.1.2.3-2.7.4-6.3l-.1-6.9a67.4 67.4 0 0 0-.2 13.3zm-84.7 0c.2 0 .4-.2.4-.3 0-.2-.2-.3-.4-.3s-.4.1-.4.3l.4.2zM263 74c0-1.6-.2-2.4-.6-1.9a5 5 0 0 0 0 2.8c.3.8.6.3.6-1zm48.5-2.4c.4 0 .4-.4.4-2.3s0-2.3-.3-1.9a8 8 0 0 0-.4 2.4c-.1 1.5 0 1.8.3 1.8zm-13.8-2.8c0-1.4-.1-1.7-.4-1.7-.3 0-.4.3-.4 1.3l.1 1.7c.4 1 .7.3.7-1.3zM262.2 70c.3 0 .3-1 0-1.6-.2-.3-.3-.1-.3.6 0 .5.2 1 .3 1zm35-3.7c.4 0 .5-.4.5-1.7 0-1.4-.1-1.8-.4-1.8-.3 0-.4.4-.4 1.8 0 1.3 0 1.7.4 1.7zm24.7-.4c.4-.4.5-2.6.2-2.9-.4-.4-.9.5-.9 1.9 0 1.5 0 1.6.7 1zm-37.6-5.8v2.4a78.8 78.8 0 0 0 0-2.4zm-71.6 3.5c.3 0 .5-4.5.3-6.6l-.1-1.7-.4 2c-.3 2.3-.4 4.2-.1 5.5 0 .5.2.8.3.8zm169.8-.1c.3.3.4.1.4-1.6 0-1-.1-1.7-.3-1.6-.3.2-.4 2.9-.1 3.2zm7.2-1c.2-.1.3-1 .3-2 0-.8-.1-1.7-.3-1.8-.1 0-.2.6-.2 1.9 0 1.3 0 2 .2 1.8zm-73.3-1.9c.1 1.7.4 1.6.8-.1.2-1.1.2-1.6-.1-2.4-.4-1-.4-1.7-.3-4.7v-3.7c-.2 0-.4 0-.4.4v10.5zm5.6.2c.3-.1.3-2.5 0-3.7l-.2-.7-.1 1v2.3c0 .7.2 1.2.3 1.1zm-24.9-.9c.2 0 .3-.3.3-.8 0-.4-.1-.8-.3-.9-.1 0-.2.2-.2.8 0 .5 0 1 .2 1zm-35.3-.5c.3.5.6.3.8-.5 0-.4 0-1.5-.2-2.4l-.4-1.7-.1 2.2v2.4zm43-.4c0 .3 0 .4.2.3v-.5c-.1-.2-.2-.1-.2.2zm85-1.7c.4 0 .5-.3.5-1.2 0-1.1 0-1.2-.4-1-.3.2-.4.8-.4 1.3 0 .6 0 .9.4.9zM213 53.6c.3-1 .3-3 0-3.6-.2-.3-.2.3-.2 1.9 0 1.5 0 2.1.2 1.7zm61.9-.2c.3-.2.3-2 0-2.5-.2-.2-.3 0-.3 1.2 0 1 .1 1.4.3 1.3zm107.2-3.7c0 2.2 0 2.8.3 2.6.3-.4.3-4.8 0-5.2-.3-.2-.3.6-.3 2.6zm4.5 2.7c.2-.2.5-7.6.3-8.3 0-.3-.2-.6-.3-.6-.5 0-.6 1.2-.4 5 0 2.2.2 4 .4 3.9zM267.5 49c0-1 0-1.1-.3-.6-.1.4-.2 1-.1 1.3.2 1 .4.7.4-.7zm-5.5.1c0 .4 0 .7.1.5v-.8c0-.3-.1-.1-.1.3zm73.2-3c.1-3.6-.4-8.2-.8-6.4-.1.6-.2 2-.1 3l.1 4.7c0 3.6.6 2.7.8-1.3zm-13 .1c0 .9.1 1.5.2 1.4.2-.2.2-2.6 0-2.8l-.1 1.4zm-47.8-.4c.5.4.5.4.5-.7 0-.6-.1-.9-.4-.9-.5 0-.5 1.1 0 1.6zM382 44.3c.1 1 .2 1.3.5 1 .4-.3.5-3.5 0-4.6v-1c.3-.2.1-1.4-.2-1.6-.2-.2-.5 4.6-.3 6.2zm-186.8-.4c.3.3.3.2.3-1 0-.8 0-1.2-.2-1.1-.3.2-.4 1.8-.1 2zm165.7-5c0 1 0 1 .3.4.3-.7.1-10-.2-12-.2-1-.8-1.6-1.2-1-.3.5-.3 2.2 0 3a50.8 50.8 0 0 1 1 9.6zM195.6 38c.2-1.4.1-6.1-.2-6.4l-.1 3.8c0 3.1 0 3.7.3 2.6zm95.5.5c0 .5 0 .7.1.5v-.8c0-.3-.1-.1-.1.3zm0-.8.3-.9a7 7 0 0 0 0-2.1l-.2-1.2-.2 1a7 7 0 0 0 0 2zm6.6-.4c.5.4.5.4.5-.6 0-.7-.1-1-.4-1-.5 0-.5 1.1 0 1.6zm36.2-1c0 .4.1.7.3.6.3-.2.3-7.4 0-8.8-.2-.8-.2-.7-.4 1a36 36 0 0 0 0 7.1zm-138.2-9c.1.2.2.2.3.2a40.6 40.6 0 0 0-.2-6.4c-.3 1.2-.3 6 0 6.3zM256 23c.3 0 .4-.3.4-1v-1l-.6.6c-.3.3-.5.7-.4 1 .1.2.4.4.6.4zm-1.4-4.2c.4-.4.5-.7.3-2 0-1 0-1.5.3-1.7.6-.5.5-1.7-.1-1.8-.3 0-.6-.4-.7-.8 0-.3-.3-.6-.5-.5-.4.2-.5 6.4-.1 7 .2.2.4.2.8-.2zm12.2-1.4c.8.3 1.2.3 1.4 0l.8-.2c.9 0 1.5-1.1 1.5-2.7 0-1.1 0-1.4-.8-2-1-1.1-2.6-1.4-3.5-.7-.5.4-.6.8-.7 2.3-.2 1.9.2 2.9 1.3 3.3zm-71-12c0 2.4.1 2.5.3 1.3.2-1.8.3-4.2 0-5.5L196 0l-.1 1.3v4z"/>
</svg>
