<?xml version="1.0" encoding="utf-8"?>
<svg xmlns="http://www.w3.org/2000/svg" xmlns:svg="http://www.w3.org/2000/svg" version="1.1" viewBox="0 0 163 112">
	<title>The rabbits eat a meal at the dining table, while the baby rabbits sleep in a big circular bed next to them.</title>
	<path d="m63.6 111.6-16-.4c-23.6-.3-38.8-.7-44-1.4-2-.2-2.3-.5-2.8-2.1C0 105.6 0 94 .4 76.6c.2-10.8.2-14.9.2-21.7C.5 45.1.7 8.5.9 6.2c.2-2.5.2-2.5-.3-2.5-.7 0-.8-.4-.2-.7.2 0 .3-.3.2-.5-.4-1.1.9-1.2 19.1-1.2h48.4c6.8 0 12.5-.1 12.7-.2L100 .8c10.7 0 21.7-.1 25-.3C128.4.3 136.4 0 143 0c10.9 0 13.7 0 16.8.6.7.2 1.6 1.4 2 2.8.4 1.5.7 9.6.4 10a580.3 580.3 0 0 1 0 34.8l-.3 11h-.6c-.8 0-.7.8.2 1.3.3.2.6.5.5.6l-.1 14.3a405.6 405.6 0 0 1-1.2 34.1c0 1-1 1.6-2 1.1-.5-.2-1.7-.3-4-.1l-6.3.2-10.2.2c-4.9.2-8.5.2-11.1 0-3.5-.3-13.5-.1-22.1.3l-19.3.3a1074.7 1074.7 0 0 0-22 0zm21.2-2.8a2 2 0 0 0-1-.4 15 15 0 0 1-5-2.5c-.5-.5-1.4-1-1.9-1.2-.5-.1-5.3-.3-10.8-.4-9.2-.2-11-.3-10.7-.9 0 0-1.1-.3-2.7-.4-3.2-.2-3.5-.3-3.5-1 0-.3.2-.4 2.4-.3l2.5.1-1.9-.4-4.6-.8c-3.2-.5-4.2-.8-4.2-1.3s0-.5 3 0l6.9 1c3 .6 4.7 1 5.1 1.3.7.4 1 .4 4.2.2 4.6-.3 4.6-.3 4.6.2 0 .2-.2.6-.4.7-.4.3.3.3 2.7.3 3 0 3.9-.1 3.4-.6h-2.8c-1.7 0-2.6-.1-2.5-.3 0-.2.7-.3 1.3-.3 1.6 0 3-.3 3-.6 0-.2-1-.2-3-.1-3 .1-4-.1-1.7-.5 2-.2 1.7-.7-.3-.5l-5 .3c-2.9.1-3.4.1-3.4-.2 0-.3.6-.4 3-.4 1.8 0 3.5-.1 3.8-.3.6-.2 0-.3-2.4-.1-2.7.1-3.1 0-3.1-.3 0-.5-1.7-.7-5.6-.7l-3-.2.2-.6a149.2 149.2 0 0 1-11.3 0A194.5 194.5 0 0 0 27 98c0-.2.4-.4 1-.5 1.3-.4 15.8-.7 16.8-.4.6.2 1.9.1 3.7-.1l3.9-.5c1.4-.2 1.5-.2.7-.4h-3c-2 .1-2.3 0-2.4-.3-.1-.3-.5-.5-1.4-.5-.9-.1-1.2-.2-1.2-.5s-.3-.4-1-.5c-1 0-2.2.2-6.6 1.6-1.6.5-1.9.5-2.8.2-1-.4-1-.5-1-1.7 0-1.6-.2-2-.9-2l-1.5-.4c-.6-.2-1.9-.5-2.9-.5s-2.4-.3-3-.6c-1-.4-1.5-.5-2.3-.3l-2.1.2-1.2.1.7.8c.5.5.7 1 .7 1.7 0 1-.5 2.5-1 3.2-.2.4.6.5 2.4.5 1 0 1.3 0 1.3.3-.4 1.7 1 2.1 5.7 1.7 2-.2 3.2.3 3.2 1.2 0 .7.5.8 2.3.8l2.4.3c.7.3 1 .3 2.7-.4 1.6-.6 1.9-.7 2.8-.4l1.3.8c.2.3.6.5 1.1.5 1.1 0 1.9.4 2.7 1.3.6.7.8 1.9.3 1.9-.1 0-.3.2-.4.5-.1.5 0 .7.4 1 1.8 1.3 4.2 1.7 13.8 2.2a209.6 209.6 0 0 0 22.6.1zM54.4 107c-.6-.4-.7-.3 1.3-.8l-1-.1c-1.2 0-1.5-.1-1.5-.4 0-.3 0-.4.2-.4l4.4-.4c5.4-.5 6.2-.5 6.2 0 0 .2-.4.5-.8.6-.8.2-.7.2.9.3 1.8 0 2.5.4 1.5.8l-3.7.4c-1.7 0-4 .2-5 .3-1.6 0-2.1 0-2.5-.3zm6.3-1c.2-.1-.5-.2-1.4-.2l-2.3.2c-.5.2 3.1.1 3.7 0zm35.7 2.8c2.2-.1 4-.3 4.2-.5.6-.4-9.3-.3-10.6.2-1.4.4-1 .8 1 .6l5.4-.3zm37.3-.2c.1-.3.5-.4 1.8-.3l2.7.4c1.3.4 5.7.3 5.9 0 0-.2 0-.5-.3-.7-.3-.2-.4-.4-.3-.6.1-.2 0-.3-.2-.3-.3 0-.4-.2-.4-.7 0-.7 0-.7-.5-.3-.7.7-.9.6-.9-.3 0-1-.2-1.6-.5-1.6-.1 0-.3.3-.3.7 0 .3 0 .6-.2.6-.5 0-.6-.8-.3-1.4.3-.4.2-.6-.8-1.4l-1.7-1.6-1.2-1c-.8-.5-5.6-1.5-6.4-1.3l-2.4.5c-2 .5-2.5.4-1.7-.3.6-.3.6-.4 0-.4l-1.8.5c-1 .4-1.2.5-.7.6.8 0 .7.3-.6 1.3-1.3 1-1.7 1-1.7.4s-.5-.4-.7.3c-.2.8-.1 1 1 1.3.7.3 1 .2 1.5-.2.8-.5 2.7-1 2.7-.5l-.4.7c-.7.6 0 .5 1.6-.2 1.3-.7 1.7-.7 1.7 0 0 .1.1.4.3.4.2.1.2.3-.2.6-.6.5-1.4.5-1.5 0l-.3.2c-.2.2-.5.5-.8.6-.5.2-.5.2-.1.3.2 0 .5.4.5.8.1.6 0 .7-1 1.2-1.2.6-1.5 1-.7 1l.7.2c.4.4 2.8.6 2.8.4 0-.2-.5-.3-1.2-.4-1.1-.2-1.5-.6-.9-.8.2 0 1.2 0 2.2.2 1.4.2 1.9.4 1.9.7 0 .2.4.4 1 .5 1.9.3 2.2.3 2.4-.1zm-2.7-.6c.1-.7 1-.8 1-.1 0 .4-.2.5-.5.5-.4 0-.6-.1-.5-.4zm3.2-.5c.1-.3 3.1-1.2 3.8-1 .3 0 1 0 1.4-.2.8-.3 1.4-.2 1 .2l-2 .6c-2 .7-4.3.9-4.2.4zm4.7.3c0-.2 1-.6 2-.8 1.3-.3 1.1.3 0 .6-1.2.3-2 .4-2 .2zm-7.2-.8c-.3-.3 0-.7.6-.7.5 0 .6-.1.4-.8-.1-1.2.5-2.7 1.1-2.6.3.1.4.3.4.5-.4 1.3-.4 1.7 0 2.2.8.7.3 1.4-1.2 1.5l-1.3-.1zm-4-1.4c-1.2-.1-1.2-.4 0-.8.8-.2 1.3-.2 2 0l1.1.6c0 .3-1.6.4-3 .2zm-85.7 3c-.1-.1-.3-.2-.5 0h.5zm105.8-.1c.3-.2 0-.3-.6-.4-1-.2-1.7 0-1.7.4 0 .3 1.9.3 2.3 0zm7.8-.6c1-.6 2.2-2.5 2.5-4.3.1-.8 0-1-.5-1.4-.7-.4-.8-.4-1 0-.2.2-1.2.5-2.3.7-2 .3-2.6.8-1.1.8.8 0 2.1.9 1.8 1.2-.1.1-.5 0-.8-.1l-1.7-.5c-.8-.2-1-.4-1.1-.8-.1-.6.7-1 2.8-1.3 1.2-.2 1.4-.5.5-.7-.7-.2-3.5.2-4.5.6-.4.1-.9.2-1 .1-.1 0-1 0-1.8.3-1.2.3-1.7.7-2.6 1.6l-1.1 1.3.7.9c.5.5 1 .8 1.4.8 1.8 0 3.1.4 3.1.8 0 .8.4.9 3 .7 2.2 0 3-.2 3.7-.7zm-5-.2c0-.2.4-.4 1-.6l1.5-.4c.6-.2.6.4 0 .6-1.2.5-2.2.6-2.4.4zm-2.8-2.7c-.2-.3.4-.6 1-.5.3 0 .4.2.4.4 0 .3-1.2.5-1.4.1zm-121 3c.5-.3.5-.3-.4-1.3-.6-.5-1.4-1-1.8-1l-2.2-1c-.1 0-.2.2-.1.5 0 .3 0 .4-.4.4a71.9 71.9 0 0 0-4.7-1.3c-.6-.2-2-.4-2.9-.4-1.5 0-1.7.1-1.3.4.6.5.5 1.2-.1 1.6-.6.3-1-.2-.8-.9.1-.3-.1-.3-1.5-.2-1.8.2-3 .7-3 1.4 0 .4.3.5 2.4.9a131.3 131.3 0 0 0 12.2.8c0-.1-.2-.3-.4-.3h-1.3l-.9-.4c0-.2-.4-.4-.8-.4s-.8 0-1-.2c-.1-.1-.7-.3-1.3-.3-.5 0-1-.2-1-.4-.1-.2.6-.3 2-.3 2 0 2.4 0 2.7.5.3.3.9.5 1.4.5.4 0 1 .1 1.1.3.2.2.8.6 1.4.7a6 6 0 0 1 1.4.6c.4.3.8.3 1.4-.1zm17.4.1c0-.3-.4-.3-.5 0 0 .3 0 .4.2.3.2 0 .3-.2.3-.3zm-4.7-.2v-.3c-.2 0-.4.2-.4.3 0 .2.1.3.2.3 0 0 .2-.1.2-.3zm7.8-.2c0-.2-.2-.3-.7-.3-.8 0-1.2.3-1 .6.4.3 1.6 0 1.7-.3zm75 .3-.7-.6-.5-.6h.5c.4 0 .6.2.6.3 0 .5.8.3 2.2-.4 1.6-.8 1.5-1-1-1.6-1-.2-1.7-.3-2.1 0H120c-.4 0-.7 0-1 .4-.5.5-.5.5 0 .6.8.2.7.7-.1.7-.4 0-.6.2-.5.3 0 .2.6.3 1.2.3s1 .1 1.1.4c.2.3 1.5.6 1.5.2zM87 105.7c0-1.9 0-2-.4-2s-.5.4-.6 1.8c0 1.9 0 2.5.6 2.3.2 0 .3-.8.4-2.1zm15.3 2h-.5c-.2.1-.1.2.2.2.2 0 .4 0 .3-.2zm-59.7-.9c.3-.7.9-1 1.2-.5 0 .2.5.3.9.3 1 0 2.5-1.5 2.1-2-.2-.2-.2-.6-.2-1 .1-.3 0-.6-.3-.7-.4-.2-.6-.1-1.1.4l-.8.6c-.2 0-.6.3-1 .6-.7.5-1.9.6-1.9.1 0-.1.2-.3.5-.4.2 0 .8-.4 1.2-.8.6-.6.6-.8.3-1l-.4-.7c0-.7-.8-.6-2.7 0-1.3.5-2.2.6-2.7.5l-3.4-.4c-1.4 0-2.7-.3-2.8-.3 0-.1 0-.4.2-.6.7-.8.2-1.2-1.4-1.2-1.1 0-1.6.1-2 .5-.5.6-1.3.8-1.3.3 0-.3-1.2-.8-2-.8-.5 0-2.5 1.7-2.5 2.3l-.4.6c-.7.6-.5 1 .9 1.5 1 .3 1.4.3 2 0 .4 0 1.8-.5 3-.8 2.2-.6 2.3-.6 1-.7l-1.9.3c-.5.3-.8.3-1.3 0l-1.2-.3c-.4 0-.7-.2-.7-.4 0-.4 6.8-.4 7.1 0 .2.2 1.5.4 2.9.5 1.3.1 2.8.4 3.3.6.5.2.9.2 1.2 0 .5-.3 1.8 0 1.8.4 0 .1-.4.2-.9.2-.8 0-1 .1-1 .9s-.2.9-1 .8c-.6 0-.8 0-.8.4s.3.6 1 .7l1-.1c.2-.4 1.1-.4 1.3 0a5 5 0 0 0 2.2 1c.2 0 .5-.3.6-.8zm46.1.4c.6-.2.7-4 0-4-.4 0-.6.4-.8 2.5-.1 1.7 0 1.9.8 1.5zM30 107c0-.1 1-.3 2.2-.4 2.6-.2 3.3-.4 3-1-.3-.3-.4-.3-.5 0-.1.4-.6.4-1.5-.1-.9-.4-3-.5-3.5-.2-.3.4-2.8 0-2.6-.3 0-.3 1-.6 2.2-.7 1 0 1.2-.5.2-.5-.7 0-3.4.7-3.7 1 0 .1.5.6 1.3 1a8 8 0 0 1 1.6 1.1c.2.4 1.1.4 1.3 0zm54.3-1c-.3-1.6-.7-1.8-.7-.2 0 1.1 0 1.4.4 1.4s.4-.2.3-1.1zm12.8 1c.7-.1 1-.3.9-.4-.3-.2-4 .2-4.3.5-.2.2 2 .1 3.4-.1zm20.9-.4c0-.3-.1-.4-.3-.4-.3 0-.5.4-.3.6.3.3.6.2.6-.2zm-35.2-1.2c0-.7-.1-1.4-.3-1.6l-.2-.3c-.2 1.5-.1 3.2.2 3.2.2 0 .3-.4.3-1.3zm8.5.8c.2-.5.2-1.7-.2-3-.2-.6-1-.6-1.3 0v2c.2 1.2.3 1.5.7 1.5.3 0 .6-.3.8-.5zm25-.3-.1-.3c-.2 0-.4.1-.5.3l.1.3c.2 0 .4-.2.5-.3zm-.2-1 1.6-.5c.3 0 0-.3-.9-.7-.9-.3-1.4-.4-1.5-.2-.2.1-.6.3-1 .3-.7 0-2.7.8-2.7 1 0 .4.5.4 1.1 0 .4-.2.6-.1.8.3.3.6.6.6 2.6-.1zm-79.9-.6a2 2 0 0 0-.9-.3c-.4 0-.4.1.3.5.4.3.8.4.9.3 0-.2-.1-.4-.3-.5zm45-.5c-.4-.3-.6.2-.3.8l.2.6v-.6c.1-.3 0-.7 0-.8zm-75 .6c.2 0 .4-.4.4-.7 0-.5.5-.6 1-.1.2.2.5.1 1-.3.5-.5.8-.6 1.5-.4h1c0-.5-.8-1-1.5-1-.4 0-.6-.1-.6-.3.3-.9 3-.3 2.8.6-.1.5 0 .5 2 .4l2.3-.3c.2-.2.2-.3.3-1.5 0-.7 0-.7.5-.5.3.2.6.6.6.8 0 .7.6.7.8.2.2-.4.3-.4.9 0 .6.4.8.3.5-.5-.1-.3-.4-.5-.7-.5-.3 0-.7-.2-1-.5-.6-.5-.8-.6-3-.5-1.8.1-2.8.3-3.7.7-1.2.5-1.6.6-4 .4-2.2-.1-2.7-.2-3.4-.8-.6-.5-.7-.7-.5-1.1.2-.3.2-.6.1-.6-.4-.5-.6-.1-.6 1.2 0 1 .2 1.9.8 3 1.1 2.3 1.5 2.7 2.5 2.3zm1.6-1.9c-.3-.3-.2-.6.3-.6.2 0 .4.1.4.3 0 .3-.5.5-.7.3zm7-1.2c0-.2-.6-.4-1.2-.5-1.6-.1-1.5-.7 0-.7 1.4 0 2.5.7 2.1 1.3-.2.4-.6.3-.8-.1zm18 2.7c-.1-.2-.4-.2-.7 0-.4.3-.4.3.3.3.6 0 .7 0 .5-.3zm60-.3c.3-.3.4-1.3.2-1.6-.4-.4-1 .2-1 1 0 1 .3 1.1.8.6zm7.8-.5c1.2-.1 2.2-.3 2.3-.4.2-.2-4.9.1-5.6.4-.8.2-.5.6.4.5l3-.5zm9.6.3s0-.3-.3-.4c-.4-.1-.5-1.2 0-1.2 0 0 .5.3.8.7.5.6.6.6 1.8.3 1.4-.3 1.6-.6.5-1l-1.2-.6c-.3 0-1-.2-1.7-.1-1.2 0-1.7-.4-.6-.6 1 0 1.1-.3.8-1.1-.2-.6-.4-.8-1-.8-.8 0-.9.1-.8.7.2.8-.5 1.3-.9.6-.2-.4 0-1.8.4-2.2.3-.4 2.2-.2 2.5.3.3.5.4.5 1 0l1.8-.5 1-.4-1.7-1.6c-1.7-1.5-2.1-2-1.7-2.6.6-.8-.3-.2-1.5.9L108 95l1-.1c1.3-.2 2.3 0 2.3.6 0 .4-.2.5-1.1.4-1.8-.3-2.6.1-3.4 1.5-.6 1.1-.6 1.2-.2 2l1.1 2.2c.8 1.5 2 2.5 2.4 1.8zm8.9-.5c0-.2-2.5-1.3-3-1.3s0 .5 1.3 1.1c1.2.6 1.7.7 1.7.2zm-4.1 0c-.1-.2-.3-.3-.5-.3-.1 0-.2.1 0 .3l.3.2c.2 0 .2 0 .2-.2zm28.7-.1c.6 0 1.6-.3 2.1-.5s1.6-.6 2.5-.7c.8-.2 1.4-.5 1.4-.6 0-.6 5.4-1.5 5.5-.9 0 .1-.3.3-.9.4-.5.2 0 .2 1.2.1 1.3 0 2.4-.2 2.6-.4.1-.1.3-2.2.4-5 .1-4.6.1-5-.4-5.9-.6-1.1-1-1.3-1.8-.9-.4.3-.6.2-1-.3-.4-.6-.5-.6-1-.3-.3.3-.4.3-.9-.3-.4-.5-.5-.6-1.1-.3-1 .5-1.6.4-1.4-.2.3-1-2-1-3.8.1-1.2.8-2.3.8-1.5 0l.4-.7c0-.1-1.4-.2-3.1-.2-3 0-3.2 0-3.3.6 0 .7-1 1-1.3.4-.3-.5-2.9-.7-5.2-.3-1.3.2-1.4.2-1.2.8.3 1.3-.5 1.9-1.1.9-.2-.3-.6-.5-.8-.5-.2 0-.4-.2-.4-.3 0-.2-.5-.3-1.6-.1-1.8.2-2.4.4-1.9 1 .2.1.4.5.4.7 0 .7.7 1 1.4.5.4-.2.8-.3 1-.2h2.6l2.3-.2c.1.1 0 .3-.2.5-.3.4-.3.4 0 .4s.6-.1.8-.4c.2-.2.5-.3.8-.3.2 0 .6.1.8.3.2.3.6.4 1 .4l2 .4c1.1.4 1.3.4 3.5-.4 2-.7 2.7-.8 5-.7 3.5 0 7.2 1 7 1.7 0 .4.2.5 1 .5 1 0 2.6 1 1.9 1.1-.3 0-.7 0-1-.2-.4-.1-1-.2-1.3-.1-.6.1-.9 0-1.3-.4l-1.1-.9c-1.3-.4-6.2-1.2-7-1-1.3.2-2.6 1-2.4 1.5.2.4 2.7 2.5 3 2.5l1.2-.5c.6-.3 1.3-.5 1.7-.5.6 0 .6 0 .2.3-.5.4-.5.4.1.6.4 0 1.1 0 1.7-.3l1-.4-.7-.7c-1.1-.8-.3-1.1 1-.3.6.3 1.6.6 2.3.7 1.3 0 3.4 1 3.4 1.5 0 .2-.2.2-2-.5a6 6 0 0 0-4.5.2l-.8.4h1c1 0 1.4.4.5.6-.4.1-.5.3-.4.7.3.9-1.8 2-4.3 2.5-.6.2-.9.1-.9-.2 0-.2.4-.4.9-.5l1.8-.6c1.2-.5 1.4-1.2.3-1-2.9.5-3.4.4-2-.5.7-.5.8-1 .3-1l-1.8.6c-1 .5-1.3.6-1 1l.2.4c-.2.2-1.2.3-1.8 0-.8-.2-2.6.8-3.2 1.8-.7 1-.7 2.1-.1 2.6l.8 1.1c.3.6.5.7.9.6l1.6-.2zm-.7-2.3c-.2-.4.8-1.3 1.3-1.3.6 0 .5.6 0 1.1-.6.5-1 .6-1.3.2zm2.6-8.2c-.2-.5.2-.8 1.1-.8.8 0 1.5.4 1.2.6-.3.3-2.1.4-2.3.2zm-6.3-2.9c0-.1-.7-.2-1.5-.1-.9.1-1.3 0-1.3-.1 0-.5 2.6-1 3.3-.5l1.3.2c.5 0 .7 0 .6.3 0 .4-2.2.6-2.4.2zm3.1-.3c.1-.4 1-.6 2-.4 1 .3.6.7-.8.7-1 0-1.3-.1-1.2-.3zm-47.7 13.1s0-.3.2-.5c.2-.6-.4-.5-.7.1-.2.4-.2.6.1.6l.4-.2zm-9.2-1.2c0-.7-.2-1.2-.2-1.3a43.5 43.5 0 0 0-9.1-2.1l-2.8-.5c-.4-.2-1.6-.4-2.6-.6a114.2 114.2 0 0 1-13.3-3.4 239.9 239.9 0 0 0-8.9-2.4c-6.1-1.6-6.8-1.8-7-2.4 0-.3-.5-.5-1-.6-1.2-.3-7-2.3-7.9-2.7-.8-.4-1-1-.2-.8A1823.2 1823.2 0 0 1 41 87a61.3 61.3 0 0 1 13 4.3l4.4 1.2a403 403 0 0 0 25.7 5.7c1.7.4 5 .2 6.3-.5.3-.2 1.8-.6 3.3-.9 4-.8 5.5-1.3 6-1.8.5-.8 3.8-1.8 4.3-1.4.4.4 1 .1.8-.3-.2-.3-2.3 0-4.6.6-2.6.7-3.2.8-3.2.5 0-.2.8-.5 4-1.3.6-.2 1-.4.8-.5-.3 0-4.8.8-9.6 2-1.8.5-3.2.7-3.3.6-.1-.3 1-.8 1.6-.8.2 0 .4-.1.5-.3.2-.1-.2-.2-.9 0-.9 0-1 0-1-.2s.5-.4 1-.5c2.5-.2 4.5-.7 5.6-1.4.6-.4 1.8-.9 2.6-1.1l2.4-.8c.7-.2 1-.2 1 .1.3.4.7.4 2.9-.2.2 0 .3-.2.2-.4 0-.2 0-.7.2-1.2.5-.8.6-2.2.3-3.8-.2-1.3-.5-1.3-.7-.1-.3 1.3-1 2.8-1.2 2.6-.2 0-.1-.6.1-1.3.8-2.7.1-6.1-1.6-8l-.8-.9v2.2c0 2.3-.5 4.5-1 4.5-.2 0-.2-.4 0-1l.2-3c0-1.8 0-2.1-.9-3.2-1-1.4-2.9-2.7-3.6-2.5-.3.1-.4 0-.4-.3 0-.7-1.4-2.3-2.7-3-.9-.5-1.6-.6-3.5-.7-4 0-7-.8-7.5-1.8-.2-.4-.5-.7-.7-.7-.5 0-.5.4 0 .8.4.4.5 1 .1 1-.5 0-1.6-.8-1.6-1.3 0-.7-.4-.8-1-.2-.6.4-.7.5-.4 1.4.5 1.2.5 1.2-.3 1-.5 0-.7 0-1.1.7-.3.5-.6.9-.8.9-.6 0-.1-1.7.6-2.3.4-.3.6-.8.6-1.2v-.6l-.4.6a15.9 15.9 0 0 0-4.5 4.1c-.4.6-1.1 1-1.1.4 0-.4 1.7-2.5 3.2-4 .8-.7 1.5-1.5 1.5-1.6 0-.4-.5-.2-1 .4-.3.4-1.7 1.2-3 1.8-2.2 1-2.6 1.3-3 2-.3.6-1 1.4-1.5 2l-1 1v2.3c0 1.5-.1 2.7-.3 3-.4.6 0 4 .7 5 .2.3 1 .8 1.6 1.1.7.3 1.7 1 2.2 1.6 1.2 1.1 3.7 2.9 4.2 2.9.2 0 1.6.4 3 1 2.5 1 3.2 1 6.5 1.3 3.3.3 3.9.3 5.6-.2 1.1-.2 2.3-.6 2.5-.7.8-.3.4.5-.4 1-1.8.8-4.4 1-8.7.7-2.7-.2-4.3-.4-4.7-.6-.7-.5-3.4-1.3-5-1.6-.6 0-1.3-.4-1.7-.8-.3-.4-1-.7-1.5-.8l-2.5-.7a17 17 0 0 0-6.3-.6c-2.8 0-5.2-.2-6.2-.4-.9-.2-3-.4-4.9-.4-3.7 0-5.3-.3-6.2-1.2-.3-.3-.8-.5-1.2-.5-1 0-3.1-1.5-4-3-.6-.8-1.3-.9-2.7-.5a68.8 68.8 0 0 1-5.6 1.5v.6a29.7 29.7 0 0 0 9.5 4.7 50 50 0 0 0 8.8 2.5l5.8 1.8a46.4 46.4 0 0 0 6 1.8c1.4.6 7.8 2.5 8.4 2.5a139.7 139.7 0 0 1 16 4.5c.3 0 .3-.4.2-1.1zM87 90.8a24 24 0 0 1-6.5-2.7c-1.4-1.2-2-4-1-4 .4 0 .5.2.5.7 0 2.3 3.6 4.6 9 5.6.9.2 1.6.5 1.6.6 0 .3-1.7.3-3.6-.2zM73.3 86c-.8-1.8-.9-2.2-.7-3.8.1-2 .3-2.6.9-2.6.3 0 .3.2.1 1.1-.3 1.7-.2 3.5.5 5.1l.5 1.9c0 .9-.5.2-1.3-1.7zm21.7-.7.3-1.2c1-2.5.7-5.5-1.2-9.4l-1-2c0-.2.2-.2.4-.2.3 0 .9.8 1.7 2.5a9.4 9.4 0 0 1 1.3 5.1c0 2 0 2.8-.4 4-.5 1.3-1.1 2-1.1 1.2zm-3.2-9.5c-.5-1.8-1.6-3.3-2.6-3.9-.8-.4-.9-.5-.5-.6.9-.4 2.1.7 3 2.5l1 2.3c0 1.1-.5 1-.9-.3zM76.4 73c.1-.6 1-1.5 1.2-1.3l-.2 1c-.5.9-1.2 1.1-1 .3zm38.8 28.3c0-.1-.1-.3-.5-.3l-1.4-.5c-1-.3-1-.2.1.6.8.5 1.6.6 1.8.2zm3.3 0c0-.3-2.5-1.5-4-1.8a60.3 60.3 0 0 1-2-.3c0 .3 5 2.3 5.7 2.3.2 0 .3 0 .3-.2zm-30.8-.6c-.1-.2.4-.5 1.3-.9.8-.2 1.6-.6 1.7-.7.2-.3-1.5 0-2.4.5l-1.1.4c-.3 0-.4.2-.4.5s.1.5.5.5c.3 0 .5-.1.4-.3zm3.3-.6v-.3c-.1 0-.5 0-1 .3l-.7.4.8-.1.9-.3zm47.7 0 .3-1.1c.2-.8.2-.9-.5-.9-.4 0-.7-.1-.7-.2 0-.5 1.1-.9 2-.7a51.3 51.3 0 0 0 5-1.9l-.3-.7c-.5-.9-2-1.7-3.6-2-.7 0-1.2-.2-1.2-.5 0-.6-3.7-1.2-4.1-.6-.1.2.1.3.5.3.8 0 2 .4 2 .7 0 .2-.4.3-1 .4-2 .4-2.4.5-2.4.7 0 .2.3.3.6.3.7 0 1.1.4.7.6-.5.3-2.2-.2-2.3-.6-.2-.6-1.5-1-3-.7-1.6.2-4.2 1.2-5.1 2-.8.8-.9.8-1.9.5-1-.3-1.6-.1-.9.3.3.2.5.6.5 1 0 .7-.1.6 2.9.7a43.3 43.3 0 0 1 7.6 1c1.7.2 2 .2 2.4-.2.4-.4.8-.5 1.3-.1.5.2.2.8-.4.8-.4 0-.3 0 .2.5.6.6 1.2.7 1.4.3zm2.5-4.9c-1-.1-1.2-.6-.6-.9.7-.3 1.7.1 1.7.7 0 .2 0 .5-.2.4l-1-.2zm-119 4.3c.7-.6.7-1 0-.8-.4.1-1 0-1.2-.2-.6-.4-1.7-.5-1.7-.1l-.4.2c-1.1 0 1.1 1.3 2.4 1.3.2 0 .7-.1 1-.4zM9 99.3c-.5-.6-.1-.8 2-1 1.3-.1 3-2 3-3.4 0-1 .4-1.2 2.2-1.3 1-.1 1.6 0 1.8.2.2.3.2.4-.1.5-.5.2-.6.7 0 1.1.4.5 1 .2 1.7-1 .9-1.5.6-2.4-.7-3-.8-.2-.9-1-.1-1 .3 0 .5-.1.5-.3 0-.5-.6-1-1.2-1-.3 0-.8-.3-1.2-.6-.7-.8-1.7-.9-2.8-.2l-.9.7 1 .1a51 51 0 0 1 2.7.2c1 .3.6 1.1-.7 1.6-1.3.4-2 .2-2-.8 0-.3 0-.5-.4-.4-.7.1-.7 1.7 0 2 .7.2 1.1.8.8 1.1-.1.2-.5.1-1-.2-.8-.7-.9-.7-.8.2 0 .5-.1.7-.4.7-.2 0-.3-.2-.3-.5 0-.2-.2-.5-.5-.6-.6-.2-2.8.1-3.7.6-1.2.6-2.3 1-2.6.8-.3-.2-1.6.6-1.6.9 0 0 .3.1.8 0 .7 0 1.4.4.8.7-.1.1-.3.5-.3.9-.1.5 0 .7 1 1 1 .4 1.1.5 1 1-.1.5 0 .6.9 1 1.2.5 1.5.5 1 0zm-2.3-2.8c0-.1.1-.3.4-.4.3-.1.6-.3.6-.5s.2-.4.4-.4c.3 0 .8-.3 1.1-.7 1.1-1.1 2.5-1.2 3.1 0 .5.7.4 1.9-.3 2.1-.7.3-1-.1-.4-.7.5-.5.5-.7.2-1-.3-.5-.4-.5-1.6 0-.7.4-1.2.8-1.2 1 0 .3-.2.4-.5.3-.3 0-.6 0-.7.2-.1.5-.8.5-1 .1zm11.8-2.7c0-.3.2-.4.4-.4s.4.1.4.4c0 .2-.2.3-.4.3a.4.4 0 0 1-.4-.3zm74.8 5.6V99c-.2-.2-1 .2-1 .5s.8.3 1 0zm1.9-1c0-.5 0-.6-.4-.5-.3 0-.5.4-.6.7 0 .5 0 .6.4.5.3 0 .5-.3.6-.7zm-90 .2c0-.1 0-.2-.2-.2s-.2.1-.1.2c0 .2.2.3.3.3v-.3zm94.1-.5c.3-.4 0-1.3-.5-1.3-.4 0-.5.1-.2 1 .2.6.5.8.7.3zm-39.8-.6c-.2-.4-4.7-.6-4.7-.2 0 .5.4.6 2.5.6 1.7 0 2.2-.1 2.2-.4zm57-.7c0-.2-.3-.3-.5-.3s-.4.1-.5.3c-.1.1 0 .3.4.3.3 0 .5-.2.5-.3zM115 96c0-.2-.1-.3-.3-.2-.1 0-.2.2-.1.4.2.4.4.3.4-.2zm4.8-.1c.7 0 .4-.4-.6-.6-.8-.2-1.6 0-1.6.3s.8.5 1.3.4l.9-.1zm-70.1-1.1c-.4-.4-.7-.1-.5.3.1.2.3.2.5.1s.1-.2 0-.4zm64-.2c0-.4-.3-.7-1-1-1.3-.5-1.4-.2-.3.7 1 1 1.3 1 1.3.3zm10.8.1c.5-.6 0-1-1.3-1-1.5 0-1.7.3-.5 1 1.1.5 1.4.5 1.8 0zm-88.7-.1c.3-.2.4-.5.2-1 0-.4-.2-1.7-.1-3 0-1.1 0-2.1-.2-2.1-.5 0-.9 1-1 3-.3 2.9 0 3.8 1.1 3.1zm81.4-.3-.6-.3c-.3 0-.6.2-.6.3 0 .2.3.3.7.3.4 0 .6-.1.5-.3zm-2-.6c-.1-.3-.4-.4-.6-.4-.5 0-.5 0 0 .5.5.6.8.5.6-.1zm3.5.3-.1-.2-.3.2c-.1.2 0 .3.1.3.2 0 .3-.1.3-.3zM3.5 93.2c.9-.9 2.5-1.4 3.9-1.4.7 0 1.5 0 1.6-.3l.8-.3c.3 0 .5-.1.5-.3 0-.5-.8-1-1.7-1-.4 0-.7-.2-.8-.5 0-.4-.2-.6-.5-.4L6 89c-.5 0-.7.1-.5.2.5.2.4.7-.2.6-.2 0-1 .2-1.5.5-1 .5-1.1.6-1.1 1.9 0 1.4.1 1.6.8 1zm4-2c-.3-.3-.4-.6-.3-.9.2-.5.6-.3 1 .4.3.6 0 .9-.7.4zm121 1.7c1.2-.4 2.3-.8 2.4-1 0-.1 0-.1-.2 0-.6.4-.8-.2-.2-.8.8-.9 0-.9-1.2 0-.6.4-1.4.7-2 .7-1.8 0-2.8.5-1.6.8.4.1.5.3.4.6-.2.5-.2.5 2.4-.3zm-3.8.2c0-.2-.4-.3-.7-.3-.2 0-.4.1-.3.3 0 .1.4.3.7.3.3 0 .4-.2.3-.3zm-5.4-1c-.4-.5-.8-1.3-.8-1.6 0-.8-.8-.8-1 0 0 .4-.3.5-.8.4-.4 0-.7 0-.7.2-.1.3-.5.4-1.6.2-1.5-.1-2.2.2-2.2.9 0 .3.2.3.6.2l1.6.1c.7.2 1 .2 1.2-.1.3-.3.4-.3 1 0 .5.4 1.3.5 3 .6.5 0 .5 0-.3-.9zm2.3.5c-.1-.2-.3-.3-.5-.3s-.2.1 0 .3c.6.3.7.3.5 0zm-.6-1.7c.5.2.5 0 .1-.8-.3-.9-.6-.9-1-.1-.4.4-.4.7-.2 1 .2.5.3.5.5.2.1-.3.4-.4.6-.3zm11 .3c.4-.2.4-.2 0-.2-.3 0-.6 0-.6.2-.3.4.1.4.6 0zm-6-.3a5 5 0 0 0-1.5-2.2c-.4-.3-.7-.3-1.6 0-.8.2-1 .4-.9 1 0 .4.3.6.7.7.4 0 .8.2 1 .3.5.2 2.2.4 2.2.2zm-93-.5c0-.9-.7-1.4-1.7-1.3-1.2 0-2.8-.9-3-1.8 0-.6.7-.8.9-.2 0 .2.4.3 1 .2.4 0 1.1.2 1.5.4.5.3.7.3.8 0 .2-.1.2-.4.1-.6-.2-.5-1.7-1.2-2.8-1.2-1 0-2-.3-2.3-.8-.1-.2-.3-.2-.4-.1l.1.4c.2.1.3.5.2.9-.1.4 0 .7.2 1 .2.1.4.5.4.6 0 .5 3 2.5 3.9 2.6l1 .2s.2-.1.2-.3zm82.6-.9c5.4-2 14.4-3.5 23.3-4 3.8-.2 5.3-.4 5.3-.6 0-.1-.4-.3-.9-.3-1-.1-1-.6-.1-.7.3 0 .7-.2.8-.3.3-.3.5-9.3.2-9.4l-1.2.1c-.7.2-1 .4-1 .8 0 .3.2.5.4.5.3 0 .4.7.5 2.9.2 3.4 0 5.2-.6 5.2-.2 0-.3-.2-.3-.5.3-2.3.3-3.3.1-4.3-.2-.9-.2-.7-.4 2-.2 2.8-.3 3.1-.9 3.6-1 .7-1.2.3-.8-2.5.4-3 .1-4.8-.6-4.8-.4 0-.5.2-.5 1.3 0 .7 0 2.4-.2 3.7-.1 2-.2 2.4-.6 2.4-.3-.1-.4-.6-.3-3.7l-.1-3.7c-.9 0-1 .6-1 3.7-.2 3.3-.3 3.8-.8 3.6-.2-.1-.3-1-.2-3.4 0-2.4 0-3.2-.3-3.4-.9-.5-1-.3-1 3.3-.1 2.4-.2 3.7-.5 4-.6.6-.7-.2-.6-3.7v-3.8c0-.2-.3-.3-.6-.2-.5 0-.6.2-.7 3.8 0 2-.2 3.6-.3 3.6a2 2 0 0 0-.5 0c-.2 0-.3-1-.2-3.4 0-3 0-3.4-.3-3.4s-.4.6-.5 3.4c-.1 2.8-.2 3.5-.6 3.5-.3 0-.4-.6-.4-3.3 0-2.8 0-3.3-.4-3.5-.2-.1-.5-.6-.6-1-.2-1-.3-1-3.3-.4a2346 2346 0 0 1-9 1.7c-1.6.2-2.4.6-2 1l3.4-.7a79.4 79.4 0 0 1 7-1.5c1.9-.5 2.2-.5 2.2 0 0 .2.3.8.8 1.2l.7.7-.1 3.2c-.2 2.8-.3 3.2-.6 3.2-.4-.1-.4-.6-.3-3.5 0-2.8 0-3.4-.3-3.4s-.5.6-.6 2.6l-.2 3.9c0 1 0 1.2-.5 1.2s-.6 0-.4-3.5c.2-3.7 0-4.3-.8-3.5-.3.3-.4.9-.4 2 .1 2-.3 5.5-.6 5.7-.6.4-.7-.5-.4-3.5.3-2.6.2-3.4 0-3.6-.2-.2-.4-.2-.8 0s-.5.8-.6 3.8c0 3-.2 3.5-.6 3.6-.4.1-.4-.2-.4-3.4 0-3.4 0-3.4-.6-3.4-.6.1-.6.2-.7 4-.2 3.1-.2 3.8-.6 3.8-.3 0-.4-.6-.4-3.6-.1-3.4-.2-3.7-.6-3.7-.7 0-.8.5-.8 3.6 0 1.7-.1 2.8-.3 3-.6.3-.8-.6-.8-3.3 0-2.5 0-2.7-.6-3-1.5-.8-1.7 0-1.3 5.4.2 1.4.2 2.5 0 2.6-.2.3-.3 1 0 1l1.9-.7zm-94 .2c0-.3-1.5-.7-1.7-.5v.4c.3.4 1.8.4 1.8 0zm84.8-.8c0-.3 0-.6-.1-.5l-.6.7c-.5.5-.5.6 0 .6s.7-.2.7-.8zM5.2 87.8c.2-.6.5-.8 1-.8.4 0 .8-.3 1.2-.8l.5-.7-1.3-.5c-1.3-.4-1.3-.4-2.3.2l-1 .6.6.8c.4.5.6 1 .5 1.4-.2.9.5.7.8-.2zm-.7-1.7c0-.2.2-.4.4-.4.5 0 .4.6-.1.7-.2 0-.3 0-.3-.3zm8.7 2c1-.5 1-.8 0-.7-.5 0-.6-.1-.6-.6 0-.4-.1-.6-.5-.7l-.9-.6a2 2 0 0 0-1-.4c-.8-.3-2 .6-2 1.5 0 1 .5 1 1.3.3 1-1 1.2-.9 1 .2-.1.8-.1.8.3.2.6-.9 1.1-.7 1.1.4 0 1 .2 1 1.3.4zm11.6-1.7c0-.4 0-.7-.2-.7-.1 0-.3.2-.3.4s-.2.5-.6.8l-.6.4h.8c.7-.1.8-.3 1-.9zm-2.6.2c.3-.1.5-.4.5-.6 0-.4-.5-.4-3.3-.4-3.4 0-5.7.2-5.7.6 0 .2.8.2 1.9.1 1.2-.1 1.8 0 2 .1.2.4 3.5.5 4.6.2zm37.2-.3c.1-.2.6-.4 1.3-.4.9 0 1.4-.2 2.4-1 .9-.6 1.1-1 1-1.2-.5-.4-.4-1 0-1 .6 0 .5-.9 0-1-.3-.1-.6-.5-.7-1 0-.5-.4-1-.7-1.4-.6-.6-1-.5-.6.1.4.5.7 2.6.4 2.6l-.6-1c-.3-1.1-.5-1.2-1.4-1.2-.2 0-.5-.2-.6-.5-.2-.6-.8-.7-1-.2-.1.3-.2.2-.5-.1a3 3 0 0 0-1.4-.7 7 7 0 0 1-2-1.2c-.7-.6-1.3-1-1.6-.9a1 1 0 0 1-.8-.1 29.7 29.7 0 0 0-9.2-3.8c-.6 0-2.5-.4-3-.7-.7-.3-1-.3-1.4.6-.2.4-.6.8-.8.8-.4 0-.4 1 0 1.5v.8c-.5.9.2 4.4 1.2 5.8.7 1 .8 1.1.7.5-.1-.4 0-.7.1-.7.5 0 1 .9 1 1.7 0 .4.2.7.3.7.2 0 .3-.2.3-.5 0-1.3 1.7-.1 2.1 1.4.2.7 1.3 1.5 2.4 1.6 3.6.5 4 .5 5 0a2.4 2.4 0 0 0 1-3c-.1-.4-.2-1 0-1.3.1-.5-.7-1.9-1.4-2-.5 0-1.2-1.3-.8-1.7.1 0 .4 0 .6.4l1.2 1c1 .5 1.7 2.3 2 4.2 0 .8.3 1.7.4 1.9.2.2 1 .5 1.8.6.8.1 1.1.3.8.3-1.1 0-.2.4 1.2.5.8 0 1.2 0 1.3-.4zm.4-1.1c0-.2.2-.3.4-.3s.4.1.5.3c.1.1 0 .2-.4.2-.3 0-.5-.1-.5-.2zm0-1.2c-.4-.5-.2-1.5.3-1l.2.8c-.1.6-.2.6-.5.2zm1.8-.8c-.2-.4 0-.7.3-.7.2 0 .3.2.3.5 0 .6-.4.7-.6.2zm1.1.1.3-.4c.1 0 .2 0 .2.3 0 .2 0 .4-.2.4s-.3-.1-.3-.3zm-7.5-.7c.2-1 .6-1.4.6-.7s-.2 1.4-.5 1.4c-.2 0-.2-.3-.1-.7zm1.7-.2c0-.4.4-.8.7-.6 0 .1 0 .4-.3.6-.4.5-.4.5-.4 0zm4.1-.9V81c.2-.1.4-.2.5 0l-.1.5c-.1.2-.3.3-.4.1zm-7-.3c0-.5.3-1 .5-1 .3.2 0 1.2-.3 1.2a.2.2 0 0 1-.2-.2zm-12-1.5c0-.3.2-.7.3-.8.2 0 .3.2.3.7 0 .4-.1.8-.3.8-.1 0-.2-.3-.2-.7zm1.1.5 1-1c.5-.5.9-1.1.9-1.4 0-.3 0-.6.2-.7.2-.1.3 0 .3.4 0 .3.2.5.5.5.6 0 1.3-.7 1.3-1.2 0-.2.2-.4.3-.4.2 0 .3.2.3.4s.2.4.4.5c.6.2.4.7-.2.7-.8 0-2.2.7-3.4 1.6-.8.7-1.6 1-1.6.6zm-2.8-.7c0-.2 0-.8.2-1.2l.3-.7.1.7-.1 1.2c-.3.5-.3.5-.5 0zm-.9-1.3c0-.4.7-1.5.8-1.5.3 0 .3.4 0 1-.2.5-.8.8-.8.5zm0-1.8c0-.4.7-1.3 1-1.3.2 0 0 .5-.4 1-.5.6-.6.6-.6.3zm-.8-1.2c0-.4.8-1.3 1-1.1.2.2-.4 1.3-.7 1.3-.2 0-.3-.1-.3-.2zm.3-1.7c.2-.3.5-.5.7-.5.5 0 .2.4-.5.8-.5.2-.5.2-.2-.3zM158 86c.5-.2.6-.3.3-.6-.2-.3-.2-1.1.2-3.6.5-3.6.7-9.5.4-8.6-.3.6-1.4 8.8-1.5 11 0 1.4 0 1.5-1 1.5-.6.1-.7.2-.5.4.5.3 1.2.3 2 0zM12.6 84.8c.3-.4.2-.4-.2-.4s-.6.1-.6.4l.2.4c.2 0 .4-.2.6-.4zm16.6-1.2c0-1.7-.2-2-1-1.8-.4.2-.5.4-.5 1.3 0 1 0 1.2.7 1.6l.7.4v-1.5zm124.3 1.1c-1-.4-3.3-.5-3 0l3.1.4c.6 0 .6 0-.1-.4zm2.7-.1c0-.4 0-.5-.3-.4-.6.3-.8 1-.2.9.2 0 .5-.3.5-.5zm-133.6-.2c0-.3-.1-.6-.3-.6-.5 0-.7.3-.5.7.2.6.8.5.8-.1zM9.8 84c1.7-1 5.9-2 7.6-2 .7 0 1.7.2 2 .4.5.2 1 .4 1.4.4.4 0 .4-.1-.3-.5-.4-.2-.7-.5-.6-.7.1-.3 0-.4-.8-.4a48.2 48.2 0 0 0-9.4 2c-.4.5-1.5.5-1.5 0 0-.3.2-.4.7-.4.3 0 .6-.1.6-.3 0-.1 0-.3-.2-.3-.5 0-2 .7-2.8 1.2l-.7.6.7.3c1.2.5 2 .4 3.3-.3zm-5.6-.2-.2-.2c-.2 0-.3 0-.3.2s.1.3.3.3c.1 0 .2-.1.2-.3zm107-1c0-.6-.1-.6-.3-.3-.2.2-.2.5-.1.6.2.4.3.2.3-.4zm44.2-.2c.4-1.8 1.2-7.4 1-7.6 0 0-1.5-.2-3.2-.1-3.5 0-3.3.4.2.6 1.2 0 2 .2 2.1.3.2.6-1.8 1.1-5.7 1.5-5.6.4-5.6.8 0 1l4.4.4-.1.4c-.2.2-1.3.2-3.4 0-1.7-.2-3.6-.2-4.2-.1-1.8.3-1 .7 1.8 1 4 .2 5.5.5 5.6.8.1.4-.7.6-1.6.3l-3.8-.4c-2.6-.1-3 0-3 .3s.6.4 3.2.5l3.3.3c.1 0 0 .3 0 .4-.1.3-1.1.3-3.5.2-2.4-.2-3.3-.1-3.3 0l.1.4a131.8 131.8 0 0 0 9.5.5c.3 0 .5-.3.6-.7zm1.2 0c0-.7 0-.7-.2-.2-.4.7-.4.9 0 .9.1 0 .2-.3.2-.7zM6.7 82.2c.3-.3.4-.5.2-.5-.4 0-2.4 1-2.4 1.2 0 .3 1.7-.2 2.2-.7zm5.9-.5c.3-.2.2-.2-.4 0l-1.5.3c-.4.2-.2.2.4 0l1.5-.3zM24 82c0-.3-1.5-.8-2.4-.8H21l.8.5c.8.5 2.3.7 2.3.3zm3.2-.8c.2-.7 0-.7-.5 0-.4.5-.4.8 0 .6.2 0 .4-.4.5-.6zm4.8.2-.5-.2-1-.4c-.6-.4-.7-.4-1 0-.2.3-.2.4.2.6.6.4 2.6.4 2.3 0zm4.4-.8c1.2-.7 1.2-.8.7-1.6a7 7 0 0 1-.5-2.9c0-2.1 0-2.3.8-3.7l1-1.4-.5-1.3c-.7-2.4-.7-2.5-.2-3.8.7-1.3 1.4-2.1 3.7-3.8.8-.6 1.3-1.2 1.2-1.4 0-.2 0-.5.4-.7.3-.2.5-.4.5-.6-.1-.2 0-.5.1-.6.2-.2.2-.5 0-.7a2 2 0 0 1-.2-.9c0-.6-1-1.1-2.7-1.3-.7-.1-1.4-.4-1.7-.6-.2-.2-1-.4-1.7-.5-.7-.2-2.2-.7-3.2-1.3-2-1-2-1-1.8-1.9l-.1-.8c-.2 0-.3-.3-.3-.7 0-.3-.1-.7-.3-.8-.9-.6.9-1.6 2.6-1.4.7 0 1 0 1.2-.4.5-.7 0-.8-1.5-.3s-2.8.4-2.8-.3c0-.3.3-.4 1-.4a3 3 0 0 0 1.5-.4c.5-.3.5-.4-.6-.2-1.2.2-2.4 0-2.4-.4s.8-1.2 1.3-1.4c.2-.1 0-.2-.5-.2-.8 0-.8 0-.7-.7.2-.5 0-.8-.3-1-.4-.4-.4-.4 0-.6.8-.4 3.9-.6 4-.3.2.2-.2.4-1.6.9-.5.2-.5.2.2.3.5.2.6.4.7 1 0 .9 1.2 2.3 2 2.6.6.2 1.2-.3 1.2-.8 0-.2-.2-.3-.8-.2-.4.1-.8 0-.8-.1 0-.4.7-.6 1.6-.6.9 0 1.7-.8 1-.8h-1.4c-.5 0-.9 0-.9-.2 0-.5 2.5-.8 2.8-.3.2.4 1.7-.8 1.7-1.4 0-.2.3-.6.7-.9.9-.5.5-1-.7-.6-.6.2-.8.1-1-.2-.1-.3-.4-.4-1.5-.2l-1.5-.1c0-.4 2.4-.8 3.2-.6l1.7.4c.9.1 1 0 1.6-.8.3-.5.8-1 1.1-1 .5-.2.6-.4.6-1s.2-1 .3-1.1v-1c-.3-.6-.2-.9 0-1.1.6-.5 1-2.1 1.1-4.1.2-2.1.6-2.6 1.1-1.3.6 1.3.6 3 0 3-.2 0-.3.4-.3 1.4 0 .7-.2 1.4-.3 1.5-.3.1-.4 1.5 0 1.8l.1.6c0 .3.3.6.6.7.4.2.6.5.5.8 0 .2 0 .4.3.4.2 0 .3.2.3.5 0 .7 1 1.4 2.4 1.8a4 4 0 0 1 1.3.6c.1.1 1 .3 2.2.4 2.3.2 2.2.2 3.9-2.4l1-1.5v-3.3c0-2.8 0-3.2-.5-3.2-.3 0-.5-.3-.6-.8-.2-1.1-1.8-2.4-2.9-2.4-.5 0-1.2 0-1.7-.2-.8-.1-.8 0-.8.7 0 1.2-.7 1-.9-.1l.1-1.6c.1-.4.2-1 .1-1.3 0-.3 0-1 .3-1.6.2-.5.4-2 .5-3.4.2-2.3.2-2.6-.5-4-.8-1.8-1-2-2-2-.7 0-1 .2-1.7 2-.5 1-1 2-1.2 2-.4 0-1.3 3.2-1.3 4.8 0 1.5-.4 2.1-.9 1.6-.3-.3 0-2.1.5-4 .2-.5 0-.6-1-.5-.7 0-1.3 0-1.5-.2l-.4.1c-.2.3-2 .3-2.2 0-.2-.4-1-.3-.8.2.2.6-.5.7-1.4.2-1-.5-1-.5-1 .3 0 .7-.4.8-1 .3-.6-.6-1.5-.5-1.5.1 0 .4 0 .5-.4.4a7 7 0 0 0-1.5-.3c-.9-.1-1-.1-.8.2.4.4.5 1.3.2 1.3-.2 0-.4-.3-.7-.6-.6-.7-1-.6-.8.2.2 1-.3 1-1 0-.5-.4-.8-.7-.8-.5 0 .2-.4.5-.9.8-.7.3-.8.4-.7.9.1.5 0 .5-.7.4-1.1-.3-1.3.2-.3.9s1 1 0 1c-.5 0-.7 0-.7.3s.3.4.7.5c.4 0 .8.2.8.3 0 .3-.4.4-1.2.3-.7-.1-.4.8.5 1.3l.8.4h-.9l-.8.3c0 .5.6 1.1 1.2 1.3 1 .2.8.6-.3.6-1.2 0-1.2.4 0 1 1.2.5 1 1-.2.6-.7-.2-.7-.2-.7.5.1.5.3.7.7.8.3 0 .7.3 1 .5.2.4.2.4-.6.2l-.9-.2.2 1c.4 1.7 1.1 3 2 3.4 1 .4.9.9-.1.8-.5-.1-.7 0-.7.3 0 .2.2.4.5.4.8 0 1.2 1.2.5 1.3-.6 0-.6 0 .2 1.4.6 1 .6 1 .3 1.4-.4.2-.4.3 0 1 .6 1.2.7 1.4.4 1.5-.5.1-.4.7.2.9.3 0 .5.3.5.5-.6 1.4-.6 1.5.1 1.5.5 0 .7.2.7.4s-.2.4-.4.4-.4.3-.4.6c0 .2.1.5.3.5.1 0 .3.2.3.5l.1.6.3 1c0 .5.2 1 .3 1 .6.2.3.6-.4.5-.5-.2-.6 0-.6.3 0 1.2 1.5 1 2.1-.3.3-.5.7-.9 1-1 .4 0 .4 0-.1 1.2 0 .2.1.4.5.6.4.3.6.3 1.1-.2.9-.8 1.2-.7 1 .5-.3 1.2.2 1.5.6.5.4-.8 1.2-1 1-.2-.1.4 0 .6.7.8l1 .7c0 .2.5.4 1 .5l1 .4c0 .5-1.8.2-3.2-.4-1.4-.6-2.4-.6-2.4 0s1.1 1 2.8 1c1.5 0 2 .2 1.3.8-.7.7-2 .4-4.1-.8-.2-.2-.8-.4-1.2-.5-.5-.2-.8-.5-.9-.7 0-.5 0-.5.6-.4.6.1.6 0 .4-.3l-1.1-.7c-.7-.4-1-.4-2-.1l-1.3.5c-.2.4.5 1 1.1 1 .4 0 .7.2.8.3.1.2-.2.3-.8.3-1 0-1.2.6-.1.7 1.3.2 1.9.4 1.7.6-.1.2-.6.3-1.1.2-.9 0-1 0-1.1.5 0 .7 0 .8 1.7 1 .8.2 1 .3.5.5a2 2 0 0 1-1 .1l-.7.1c0 .3 1.5.8 2.3.8.3 0 .6.1.6.3 0 .2-.4.2-1.3.1-1.1-.1-2.7.2-3.2.5 0 0 0 .3.2.5s.3.5.3.7c0 .2.4.5 1 .6.7.2 1.2.4 1.2.6 0 .4-1 .5-1.5.1-.4-.3-1-.1-1 .3 0 .2.2.2.5.2.2-.1.8 0 1.3.2a5 5 0 0 0 1.5.4c.2 0 .5.2.5.4 0 .4-.2.4-1.2.2-.6 0-1.3-.2-1.5-.4-.6-.3-1 .8-.8 2.4 0 1 .2 1.3.4 1.1h1.3c1 .4 1.3.8.5.8l-1.3-.1c-.6-.2-.6-.1-.6.8 0 1 .2 1.3 1 2.2 1.2 1.2 1.2 1.6.2 1.6-.6 0-.7 0-.7 1.2 0 1 .1 1.2.7 1.4 1 .4 1.2.4 1.1-.2 0-.2-.4-.5-.7-.6-.7-.1-1-.8-.5-.8.6 0 1.8.6 1.8 1 0 .3.8.9 1.4.9.8 0 .5.5-.3.5-.5 0-.9.2-1 .3-.3.5 2.5 0 3.6-.6zm-3-2.1c-1-.3-1.3-1-.4-.8 1.6.1 2.3.4 2.3.7 0 .5-.4.5-1.9 0zm.6-1.7c-.7-.2-.6-1 .1-1 .6 0 1.2.5 1.2 1 0 .2-.6.2-1.3 0zm-2-1.6c-1-.4-1.7-.8-1.7-1.3s.2-.5.8-.1c.3.1.5.2.5 0l2-.2c1.1 0 1.8.1 1.6.2-.2 0-.4.2-.4.4 0 .1-.6.2-1.3.2-1 0-1.3 0-1.2.2l.7.2c.2 0 .5.1.6.3.3.4-.5.5-1.5.1zm2.2-3c-.3 0-.9-.3-1.2-.6-.4-.2-1.1-.5-1.7-.6-.8-.1-2-1-1.3-1a18.3 18.3 0 0 1 4.9 1.8c.3 0 .4.2.3.4-.2.3-.3.3-1 0zm-.2-1.7c-.4-.6 0-.9.6-.5.2.2.7.3 1 .3.3 0 .5.2.5.3 0 .4-1.7.3-2-.1zm.7-1.4c-.2 0-.4-.3-.4-.5 0-.3.2-.3.7-.2 1 .2 1.2.3 1 .6-.2.3-.5.3-1.3.1zm-3-2.5c-1-.5-.7-.6 1.1-.7 1.7 0 1.7 0 1.4.5-.3.6-1.5.7-2.5.2zm2.8-2.4c-.8-.7-1-1-.3-1 .2 0 .3.2.3.4s.4.4 1 .5c1.2.3 1.4.7.4.7-.4 0-1-.3-1.4-.6zm-.8-2.5c-.3 0-.5-.3-.5-.5 0-.3.3-.4 1.2-.2 1.3.2 1.3.2 1 .6 0 .3-.8.3-1.7 0zm6.8-.6c0-.2 0-.3.4-.3.3 0 .6.1.7.3 0 .1-.1.2-.4.2-.3 0-.6 0-.7-.2zm.8-1.9c-.2-.3.2-.6.5-.3.2.2.2.6 0 .6s-.4-.1-.5-.3zm-.7-1c0-.2.2-.3.3-.3.1 0 .3.1.3.3l-.3.2a.3.3 0 0 1-.3-.2zm-.8-.7c0-.6.4-1.1.7-.7.2.3-.1 1.4-.4 1.4-.2 0-.3-.3-.3-.7zm-4.1-16c.2-.1 1-.4 1.9-.5 1.3 0 1.5 0 1.4.3 0 .4-.4.5-1.9.6-1.6 0-1.8 0-1.4-.3zm-5.3-1c-1.1-.5-.5-1 1.2-1.1 1.3-.1 1.7 0 2 .3.4.4.4.5 0 .7a5 5 0 0 1-3.2 0zM52 38.6c0-.3 1-.7 1.2-.4.4.3 0 .8-.5.8-.4 0-.7-.1-.7-.4zm-11.9 0c0-.4 1.3-.7 1.5-.5.2.2 0 .3-.8.5h-.7zm-11-.3-.1-.4c0-.2 2-.6 3-.5.3 0 1-.1 1.5-.4.8-.4 2.9-.5 2.9-.1 0 .1-.3.3-.7.3-.4 0-1.2.2-1.9.5-1.2.6-4.3 1-4.6.6zm5.7 0c0-.2.3-.3.7-.3.4 0 1-.2 1.5-.4 1.4-.7 5-1.2 5-.7 0 .1-.3.3-.7.3-.3 0-.7.1-1 .3-.2.3-.6.4-1.6.3-1-.2-1.4-.1-1.6.2-.2.5-2.3.7-2.3.2zm7.4-.3c0-.2.1-.3.3-.4.1-.1.3 0 .3.2s-.2.4-.3.4c-.2 0-.3 0-.3-.2zm-15.6-1c-.2-.2-.2-.4 0-.5.1 0 .4 0 .5.2.2.3.2.5 0 .6 0 0-.3 0-.5-.2zm2.7-.6a.5.5 0 0 1-.3-.4c0-.4 4-.8 4.2-.4l.6.2c.7 0 .6.5-.2.7h-4.3zm17.6 0c-.3-.2-.2-.6.2-.6.2 0 .4.2.4.4 0 .5-.3.6-.6.3zm6.6 0c-1.5-.2-2-1-1.6-2.5 0-.3.4-.7.8-.9.6-.2.7-.2 1.4.6s.8 1.2.8 2c-.1 1-.2 1-1.4.8zm-.2-2.1c0-.2-.1-.3-.4-.3-.2 0-.4.1-.4.3l.4.2c.3 0 .4-.1.4-.2zm-14.6 1.9c-1.8-.2-1.5-.6.4-.6 1 0 1.5 0 1.5.3-.2.4-.3.4-1.9.3zm-3.7-.3c-.1 0-.1-.2 0-.4.2-.3 1.7-.3 1.7 0s-1.5.6-1.7.4zm22-1.1c0-.8.4-1.3.7-.8.2.3-.1 1.6-.4 1.6-.2 0-.3-.4-.3-.8zm-15.8.2c1-.3 1.6-.3 1.6 0 0 .2-.6.3-1.2.3-1 0-1 0-.4-.3zM28.8 35c-.3-.1-.5-.3-.5-.5s.7-.4 2.3-.5l3-.4c1.4-.2.8.4-.7.8-1.7.6-3.4.8-4.1.6zm7.5-.2-1-.2c-.5 0-.7 0-.5-.2.4-.4 5.9 0 5.7.4-.2.3-4 .4-4.2 0zm5.1-1.2c-.2-.2.2-.8.7-.8.7 0 .8.7 0 .8h-.7zm-4.7-.2c-.4-.4.2-.6 1.8-.6 1.3 0 1.7 0 1.6.3 0 .4-3 .6-3.4.3zm-2.3-.6c0-.2.4-.3 1-.3.5 0 .8.1.7.3l-1 .2c-.4 0-.7 0-.7-.2zm-5.4-.2c-.5-.5-.1-.9 1-.9 1.2 0 1.9.3 1.6.8-.2.3-2.3.4-2.6 0zm4.2-.4.5-.2c.2 0 .4 0 .4.2s-.2.3-.5.3-.5-.1-.4-.3zm15.2-.9c-.2-.3-.3-.8-.1-1.8 0-1 0-2-.2-3-.2-1.1-.2-1.5 0-1.8.5-.5 1-.2.7.4 0 .4 0 .5.2.5.2-.1.5-.7.7-1.5.1-.7.4-1.5.5-1.7.2-.3.3-1.3.3-2.2 0-2 .3-2.2.7-.6.2 1 .2 2.6-.2 5.8 0 .3-.5 1.3-.9 2.2-.4.8-.8 2-.8 2.7-.2 1.3-.4 1.6-.9 1zm-6.6-.1c0-.2.4-.3.8-.3.5 0 .7.1.6.3l-.8.2c-.3 0-.6 0-.6-.2zm-6.4-.3c0-.3 1-.6 1.4-.4.1.1.2.3 0 .4-.1.4-1.4.4-1.4 0zm3.7 0c0-.1.2-.3.4-.3l.6.3c0 .2-.1.3-.4.3-.3 0-.6-.1-.6-.3zm-10.4-.2c-.4-.6.2-.8 2.2-.7 1.7.1 2.3 0 3.3-.4 1.4-.6 2.4-.7 2.2-.3-.1.2-.5.3-.8.3a2 2 0 0 0-1.2.5c-.4.4-.9.5-1.8.5l-2.5.2c-.8.1-1.3 0-1.4-.1zm9.8-1c-.3-.3.2-.6 1-.6.4 0 .7 0 .6.2-.2.3-1.4.5-1.6.3zm5.1-.1c0-.2.3-.3.6-.3s.5.1.5.3c0 .1-.2.3-.5.3s-.6-.2-.6-.3zM29 28.9c-.4-.4-.1-.6 1-.6.9 0 1.2 0 1.1.3 0 .4-1.8.6-2 .3zm4.7-.6c.6-.4 3.6-.7 3.2-.3l-2 .4c-1.3.1-1.6.1-1.2-.1zm4.7 0c0-.2.2-.3.3-.3.3 0 .2.4 0 .5-.3 0-.4 0-.3-.2zm2.4-.6c.1-.4 1.3-.5 1.3 0l-.7.3c-.5 0-.7 0-.6-.3zM31 27c-.2-.2-.3-.4-.2-.5.2-.1.3 0 .4 0 .1.2.5.3.9.3.3 0 .6.2.6.3 0 .4-1.1.3-1.7-.1zm-2.4 0c-.2-.3.1-.7.7-.7.3 0 .5.2.5.4 0 .4-.8.6-1.2.2zm6.9-.4c-.2-.4.5-.7 1-.4.1.1.1.2-.1.4-.5.3-.7.3-1 0zm4-.5c0-.2.7-.3 1.4-.3s1.4.1 1.5.3c0 .1-.4.2-1.4.2-.8 0-1.4-.1-1.4-.2zm5.6 0c0-.2.2-.3.3-.2l.3.3-.3.1c-.1 0-.3-.1-.3-.3zm-15.8-.5c0-.5 1-1.2 1.5-1 .4.1.3.2-.2.7-.7.5-1.3.6-1.3.3zm14.3-.3c-.2 0-.3-.2-.3-.3 0-.4 1-.2 1 .1 0 .3-.2.4-.7.2zm-7.1-.4c0-.1.3-.3.7-.4.4 0 .5 0 .5.3-.1.2-.4.4-.8.4s-.5 0-.4-.3zm4.1-1c0-.1.1-.2.3-.2.1 0 .3 0 .4.2 0 .2 0 .3-.3.3-.2 0-.4-.1-.4-.3zM25.4 80.5c0-.2.1-.4.3-.4l-1.8-.8c-2-.7-2.7-1.3-2.7-2 0-.2-.3-.3-.6-.3-1.4 0-.4 1.7 1.4 2.3.6.1 1.2.4 1.3.6.2.3 1.3 1 1.8 1 .1 0 .3-.2.3-.4zM157 78.1v-.8l-.2.8-.2 1.9v1l.2-1 .2-1.9zM9 79.6l4.4-1c3-.7 4.3-1.1 4.3-1.4 0-.4-1.4-.3-6.8.8-3 .6-5.8 1-6.2 1-1 0-1.8.5-1.6 1 .1.3.5.4 2.1.2 1.2 0 2.8-.3 3.8-.6zm2.8-2.4a54 54 0 0 0 5.5-1.3c.6 0 .6-.1.7-2v-3c-.2-.5-.1-2 0-3.4.4-3.2.4-3.3-2.8-3.2-3.7 0-7.7.6-8.4 1.3-.4.5-.7.5-2 .4H3.4L3 72.1l-.2 6h2.8c2-.1 3.6-.3 6.2-.9zM6.2 76l2-.5 4.6-1c1.3-.3 2.5-.5 2.6-.4.3.3-.8.7-4.5 1.5-3.2.7-4.4.8-4.7.4zm10.2-4v-1.6l-.8.2-.9.2.2-2.4c.2-1.7.3-2.4.7-2.8.3-.2.5-.6.6-.8 0-.1.2-.2.4-.1.1.1.2 1 .1 2.2 0 1.2 0 2 .2 2.3.4.5.3 4.4-.2 4.4-.2 0-.3-.5-.3-1.6zm-.6-3c-.1-.1-.2 0-.2.2 0 .3 0 .5.2.4V69zm-2.6 3.9c0-.4.6-.9 1.1-.9.6 0 .6.3 0 .7-.5.4-1 .5-1 .2zM5 71.9c-.3-.4-.3-.4 2.4-1.2 2.6-1 2.6-1 2.7-3.7 0-1.1.1-1.4.5-1.4s.4.2.2 2c-.1 2.1.2 2.7.5.8.1-.9.3-1.2.6-1.2s.4.2.2 1c-.2 1.2.4 2.2 1.1 1.7.4-.2.6-.7.6-1.8.1-.8.3-1.5.4-1.5.4-.1.5 3.5.2 3.8a6814 6814 0 0 1-7.5 1.5c-1 .4-1.7.4-2 0zM5 69c0-.3 1-.5 2.2-.5 1 0 1.3.4.4.6-.9.3-2.6.2-2.6 0zm111.4 8a15900 15900 0 0 0 31-7.1 71.7 71.7 0 0 1-10-1.8c-2.4-.3-2.6-.3-3 .1-.6.7-1 .8-5.1 1.2-4.6.6-10.4.4-12-.2-1-.5-1.2-1.2-.1-1.7l.9-.7c.2-.5 1-.5 1.7 0 .3.2.7.3.9.2l2.8-.2c2 0 2.5-.1 2.8-.6.6-.7.5-.8-.4-1-1-.2-2.6 0-3 .4-.8.6-1.6-.5-1-1.3.6-.5-.3-.9-1.4-.7-.8.2-1.4.6-2.4 1.7-.8.8-1.5 1.4-1.6 1.3 0-.1.3-.8 1-1.6l1-1.5-.8-.6a8.4 8.4 0 0 0-4.7-1.3c-.9.1-1 .2-1.2 1.1-.4 1.6-.8 1-.8-1V60h-1.6c-.9-.1-1.7 0-1.9.1-.3.3-.4.3-.7 0l-.7-.2c-.2 0-.5-.4-.6-1.1-.6-3.2-.6-3.2-2-3.2-.6 0-1.1-.1-1.1-.2 0-.2.5-.3 1-.3h1.2l-.2-1.1c0-.6-.3-1.3-.5-1.4-.3-.2-.4-.5-.3-.8a6 6 0 0 0-.4-2.2 15 15 0 0 1-.7-3c0-1.2-.2-1.4-.6-1.4-.9.2-1.2.2-2.5 0l-1.3-.2.1.9c.1 1.2-.4 1.2-.8 0-.5-1.5-2-2.5-3.6-2.5-1.2 0-1.2 0-1.2-.9 0-1-.7-3.3-1-3.3-.2 0-.3.5-.3 1 0 1.7 0 2.6-.3 3-.3.6-1.4.7-1.8.2-.4-.5-1.1-4-1.1-5.4 0-1.7.6-1.4.8.4 0 .8.3 1.8.5 2.1.4.7.4.7.6-.5v-2.6c-.1-1.3 0-1.4.4-1.3.2 0 .6.4.8.7l.3.6.1-.6c.5-1.7-.2-5.2-1.2-6.2-.2-.2-.5-.6-.5-1 0-.5-.4-.6-.6 0-.2.5-1 .5-1.5 0-.4-.6 0-1.1.5-.7.2.2.3.3.3 0 0-.5-.8-.6-1.3-.1-.3.2-.6 1-.8 1.8l-.8 2.5c-.8 1.9-.8 3.8.2 5.6.8 1.6 1.4 3.7 1 3.7-.6 0-1.5-1.2-2-2.8-.8-2.6-.9-3.4-.5-5.2.3-1.6.3-1.8-.2-2.7-.7-1-1.6-1.5-2-.8-.3.6-.7.5-.7-.3 0-.3.3-.8.7-1.2.4-.3.6-.6.5-.7-.1-.1-.5.1-.8.6l-1.3 1.5c-.8.8-1 2.2-1 5.1-.1 1.7 0 2 1 4.2 1.2 2.3 1.2 2.4 1 4.2a10.8 10.8 0 0 0 .2 4.5l.3 1 .6 1.5c.2.5.4.8.8.8.5 0 .6 0 .7-.8.2-1 .5-1.1 1.4-.8.6.2.5.6-.2.6-.2 0-.5.2-.5.4 0 .3.3.4.7.3.6 0 .8.1 1 .9.2.7.3.8.8.7.7-.2 2.8 1.2 3 2 .1.5 1.7 1 2.3.7a1 1 0 0 1 .9 0c.3.2.6.2.9 0a3 3 0 0 1 1.2-.2c.5 0 .9-.1 1-.3a17.5 17.5 0 0 0 1.1-5c.2-.3.2-.6.1-.8-.3-.4 0-2 .4-2 .4-.2.8 2.4.5 3.7V53l.2.7 1-.6c1.6-.8 1.9-.5.3.4-1 .5-1.4 1-1.5 1.5 0 .4-.4 1-.6 1.2l-.7 1c0 .4-.6.8-1.2 1l-1 .6.7 2 .7 1.9h1.1c.6 0 1.1-.2 1.1-.3 0-.1.3-.3.6-.3.5 0 3.7.8 3.9 1l-.7 1.6c-.4 1-.7 1.7-.6 1.8l1.8.1c1.2 0 1.7.1 1.7.4 0 .5-.9.7-2.1.5-1.3-.2-2.4 0-2.4.6 0 .5-3.2 3.5-4 3.7-.7.2-.7.5 0 1.1 1.6 1.2 5.7 2.5 10.6 3.4 2.5.5 4.2 1 4.6 1.2.3.3.7.4 1 .3l3.1-.7zm-3.8-3.1-1.5-.2c-1.8 0-2 0-2.3-1.4-.2-.8-.3-1-.7-1-.9.3-8.4.2-8.5 0-.5-.4.4-.6 3.2-.5 2 0 3.6 0 4.4-.2 1.3-.4 1.3-.4 1.2-1.2-.6-2.5-.6-2.6.4-3.1 1-.6 3.7-1 4.5-.5l1 .4c.5.2.6.3.4 1.3-.3 1.4-.4 2.8-.4 4.9 0 1.6 0 1.6-.8 1.6l-.9-.1zm-.6-1.2c.4 0 1-1 1-1.9l.4-1.8c.3-.8.3-1.4.2-1.6-.3-.2-4.5-.4-4.7-.2-.1 0 0 .7.3 1.4.2.8.4 2 .4 2.7 0 1.1.1 1.3.7 1.4.4.1.8.2 1 .1h.7zm-7.4.2c.1-.4 1.4-.7 1.6-.4.3.4-.1.7-1 .7-.4 0-.7 0-.6-.3zm-2.2-3c-.4-.2-.7-.5-.8-.8 0-.5.1-.6 1.2-.7 2-.3 2.8-.2 2.8.2 0 .3-.4.4-1.3.5-.8 0-1 0-.5.1.4 0 .7.3.7.5 0 .4-1 .5-2.1.1zm3.6-.9c.2-.7 1.2-.7 1.1 0 0 .2-.3.4-.7.5-.4 0-.5 0-.4-.5zm1.1-3.8c-.3-.2-.4-.6-.3-1.4.1-1 0-1.1-.7-1.5l-.8-.3.6-.6.7-.6.4.6c.3.4.6 1.3.8 2 .3 1 .4 1.2.8 1.2 1-.2 2-.1 2.3.2.4.4.3.4-1.6.6-1.2 0-1.9 0-2.2-.2zm7.6 0c-.3-.4.1-.7.8-.7.4 0 .6.2.6.4 0 .4-1 .6-1.4.2zm-11.6-2.7c-.3-.3-.2-.6.3-.6.8 0 1.4.3 1.2.5-.2.3-1.3.3-1.5 0zm-10-7.2c-.4-.4-.4-.5-.2-.8.5-.5 1-.4 1.1.3.3 1-.2 1.3-1 .5zm-1.6-.8c0-.3.8-.6 1-.5v.4c-.2.4-1 .4-1 0zm-.6-1.1c0-.1.2-.3.4-.3l.2.3c0 .1-.2.3-.4.3s-.3-.2-.2-.3zm-.1-1.4c.2-.5.7-.5.7 0 0 .2-.2.3-.4.3s-.4-.1-.3-.3zm4.9-1c-1.3-.3-1.6-1.3-.4-1.3.2 0 .5-.2.5-.4 0-.3-.2-.4-.6-.3-.5 0-.6-.1-.6-.5 0-.6 1.5-1.2 2-.8.3.4.4 3.3.1 3.4l-1-.1zm4 .1.2-1.5a7 7 0 0 0 .3-2.2c-.2-1 .2-1.4.6-.7.5 1-.5 5-1.1 4.4zM85 49.7c-.7-.4-.3-.8.5-.5.7.3.9.8.3.8l-.8-.3zm5.4-1 .2-.3c.2 0 .3.2.3.4s-.1.4-.3.4l-.2-.4zm-5.2-.3c-1-.4-1.2-.8-.5-.8.3 0 .3-.1 0-1-.6-1-.3-1.5.4-.6l1 1.3c.4.6.5 1.6 0 1.6l-1-.5zm7.3-1.8c0-.4.2-.6 1-.7 1.3 0 1.6.1 1 .7-.7.6-2 .6-2 0zm-7.5-2c-.3-.9-.1-1.2.7-.8.8.4.9.8.2 1.1-.5.3-.6.2-.9-.4zm1.2-1.1c-.3-.3-.3-.5-.1-.7.2-.3.3-.2.5.1.2.7 0 1-.4.6zM59.9 76.8c.4-.3 1-.6 1.4-.6l.7-.2c0-.2-.8-.2-2-.2-1.7.1-2.2 0-2.6-.3a19 19 0 0 0-2.7-1.5c-2.4-1.2-3-1.5-2.7-1.8 0-.2.8 0 1.5.4 1.7.9 1.4.4-.5-.6-1.7-1-2.3-1.4-2-1.8.2-.1.5 0 .9.3.3.3 1.7 1.1 3.2 1.8 1.7.9 2.8 1.6 3 2 .4.8 1.4 1.1 2.4.8.7-.2.5-.3-2.3-1.7-4-2-5.6-3.2-5-3.7 0 0 .6.2 1 .6 1.4 1.3 6.7 3.8 7.8 3.7.8-.1.8-.1-.3-.3-.6-.2-1.1-.3-1.1-.5 0-.3-5-3.1-5.6-3.1l-.9-.5c-.8-.8-4.9-2.9-6.3-3.3l-1.2-.5c0-.6 2.1.1 5.1 1.6l3.5 1.6a22.7 22.7 0 0 0 5.6 3.2c.2 0 .3-.2.3-.3 0-.4-4-2.9-4.5-2.9s-7.8-3.7-7.9-4c-.2-.5 1-.1 3.8 1.4 1.7.8 3.3 1.6 3.6 1.6a5 5 0 0 1 1.8.8l3 1.8c1.5.8 1.8.9 2 .5.2-.3.1-.4-.6-.6-.5-.2-1.2-.5-1.5-.8l-2-1.4c-.7-.5-1.3-1-1.2-1.2.1-.2 1.3.2 2.1.9l1 .5-1.1-1c-1.3-.8-2-1.5-1.6-1.8a32.1 32.1 0 0 0 5.2 3.3c.4 0 .4-.4 0-.8l-2.3-1.5c-1.7-1.1-2.5-2-2-2.4l.7.4c2 1.8 3.5 3 3.8 2.7.3-.3-.8-1.9-1.6-2.4-.5-.3-1-.7-1-.9 0-.5.2-.5 1.4.4 1.4 1 2.2 1.1 1.3.2-.3-.3-.5-.9-.5-1.2 0-.5 0-.6.6-.5.8.1.8 0 .3-.8-.2-.3-.3-.6-.1-.9 0-.2 0-.6-.2-1-.5-1.1-.5-2.1.3-3.2.6-1 2.6-2.1 3.6-2.1.9 0 .5.4-.9 1-1.3.5-2.6 1.8-2.6 2.6 0 .4 0 .4 1 .1.4-.2.6-.4.6-1 0-1 .5-1.1.7-.3.1.4.3.5 1.3.3 1.5-.2 1.6.3.1.7-.6.2-1 .5-1 .7 0 .4.2.4 1.2.3 1.4-.2 1.6.2.2.5-.6.1-1 .4-1.1.7-.1.3-.3.4-.9.3-.6-.1-.8 0-.8.4 0 .8.6.7 2.2-.1 1.4-.8 2-.7 1.2.1-.4.4-.4.6-.2 1 .4.8.6.6 1.2-.6.3-.7.4-1.2.3-2-.2-.4-.3-1.4-.3-2 0-.7-.2-1.7-.5-2.2l-.4-1c0-.5-1.4-2.4-1.7-2.4l-1-.5c-.4-.3-.8-.6-1-.6l-1-.3c-1.3-.5-3.6-1-3.9-.7-.4.3-1 .3-3-.2-1.6-.4-2-.4-2.6-.1a21 21 0 0 0-4.9 3.6c0 .6.6.4 1.4-.3.5-.5 1-.6 1.3-.5.4.1.5 0 .5-.5s.3-.8 1.4-1.3l1.9-.7c.7 0 .4.4-.6.9-1.2.5-2 1.2-1.3 1.2l1.2-.5c1-.7 1.4-.7 1.4-.3 0 .6-.9 1.3-1.5 1.3-.3 0-.7.1-.8.3-.1.2 0 .2.4.1s.6 0 .5.1c0 .2-.8.6-1.8.9-1.4.4-2 1-.9 1 .6 0 1.5.5 1.3.8-.2.2-1.4 0-2.4-.6-.3-.2-.6-.2-.8.1-.4.4-.3.5.6.6 1.2.3 1.5.4 1.3.7H51c-1.3-.2-1.6-.2-2 .3l-.7.5c-.5 0-4 3.7-4 4.2 0 .3.4.6 1.1 1 .6.1 1 .4 1 .6-.2.1-.8 0-1.6-.3a9 9 0 0 0-1.7-.5c-.7 0-.2.7.6.8.4 0 .8.3.9.5 0 .3-.1.3-.8.2-.5 0-1.1-.2-1.4-.3-.4-.2-.5-.1-.3 0 0 .2.8.6 1.6.8.8.2 1.4.5 1.3.7-.2.3-1.9 0-3.1-.6-1.1-.6-1.4-.5-1.2.1.2.5 1.1 1 2.8 1.2 1.1.3 5.8 1.9 7.5 2.7.8.4 1 1 .4 1-.3 0-.4 0-.4-.2 0-.4-7.2-3-8.2-2.9-.7.1-.7.2.5.7.6.3 1.6.6 2.2.7.5.1 1 .3 1.1.5.3.4-2.2 0-3.8-.7-2.5-1.1-4.4-1-3 0 .4.3.4.4-.2.5-.6.2-.8.8-.3 1 .2.1.5 0 .7-.1.3-.3.5-.3.6 0 .2.2.5.4.8.4l.9.3c.3.3 5.2 1.7 6 1.7.4 0 1.6.8 2.8 2 .7.7.9.8 1 .5 0-.4.4-.2 1.5.8l2.4 1.8c.7.4.8.4.8 0 0-.5.1-.5 1.2.3l1 .7.8-.7zm-15.3-7.2c-3.4-1-3.9-1-3.9-1.4 0-.3 0-.3 4.1.8l3.7.8c.4 0 .7.1.8.3.3.4-1.7.2-4.7-.5zM55 66.4c-.5-.4-2.3-1.3-4-2.1-2-1-2.8-1.5-2.6-1.7.2-.2 1.3.2 3.8 1.5 3.4 1.8 4.4 2.4 4.4 2.8 0 .5-.6.2-1.6-.5zm1.3-1.2c-.4-.5-3.7-2.1-5-2.5-1.2-.4-1.6-.8-.8-.8 1.3 0 6.9 2.8 6.9 3.4 0 .4-.6.3-1-.1zm-.8-3.2-3.4-1.5c-.4-.2-.6-.3-.4-.5.2-.2.6-.1 1.4.1 1.4.5 5.3 2.5 5.5 2.8.4.6-.5.4-3-.9zm3.2-.5L56 60.1c-1.3-.5-1.9-.8-1.7-1 .5-.4 5.8 2 6 2.7.2.5-.4.4-1.5-.3zm-12 0c-.8-.1-1.2-.4-1.2-.6 0-.2.2-.3.5-.3l1.3.3c.8.2 1.3.6 1 .8-.2 0-.9 0-1.5-.2zm.3-1.4c-.4-.3-.2-.6.4-.6.9 0 1.8.3 1.8.5 0 .3-2 .4-2.2.1zm13.2-.5-2.3-1c-1.4-.6-1.8-.9-1.2-1.1.5-.2 5.5 2 5.5 2.5s-.9.3-2-.4zm-11-1.2.3-.4c.3-.2 1.3.2 1.1.4-.2.4-1.4.4-1.4 0zm10.7-.7c-1.2-.6-1.7-1-1.4-1 .6-.2 4 1.3 4 1.7 0 .5-.6.3-2.6-.7zm.7-1.6-2.2-1c-.5-.1-.7-.9-.2-.9.1 0 1 .3 1.9.8l2.3.9c.6.2.8 1 .2 1a13 13 0 0 1-2-.8zm.6-2.5-1.5-.8c-.2 0-.2-.2-.1-.3.2-.2 2.2.5 3 1 .3.3.4.5.2.7-.1.1-.8 0-1.6-.6zm3.6-.6-1.3-.4c-.6 0-3.6-1.2-4-1.6-.6-.5 0-.5 1.3-.1l2.3.6c1.2.4 2.8 1.2 2.8 1.6 0 .4-.3.4-1 0zm86.5 23.4 1-.2-1.4-.1a28 28 0 0 0-4.4-.2c-.8 0-1 0-1 .6 0 .5 0 .5 2.5.3 1.3 0 2.8-.2 3.3-.4zm-17.7-1.2a76 76 0 0 0 8.2-2c.8 0 5-1 5-1.2-.2-.2-4 .5-7.4 1.3l-4.2.9c-5 1-6 1.2-6.5 1.6-.8.5-.3.5 4.9-.6zm-107.2-.5c0-.6-.2-1.7-.5-2.6l-1-3.4c-.3-1-.6-3-.7-4.5-.2-2.5-.3-2.8-.7-3-.5 0-.5 0-.4.7 0 .5 0 .9-.3 1-.4.1-.4.6.1 1 .3.1.5.9.7 1.8 0 .9.5 2.7 1 4 .4 1.3 1 3.2 1.1 4.2.4 1.9.7 2.3.7.8zm131.5-.5c0-.1-.2 0-.3.3-.2.4-.1.4.1.1.2-.1.3-.4.2-.4zM56 73.7l-.4-.3c-.3 0-.4 0-.3.1.2.3.7.4.7.2zm94.2-1c0-.4-.6-.2-.8.2 0 .2.1.3.4.2l.4-.4zm8.2-.8c0-.3-.3-.4-1.2-.4l-1.4-.2 1-2.3c1.5-3.4 2-5.4 2.1-8v-2.2c-.6-.2-.8 0-.8.6 0 .4-.1.6-.4.6l-.4.2-.7 1.4c-.5.7-1 1.9-1.1 2.7-.8 3.4-1.2 4.3-2 4.5h-2c-1.2-.1-1.4.1-1 1.1.3.5.4 1 .4 1.3 0 .6.1.6 3.4.9 3 .2 3.4.3 3.5.8l.1.5.2-.5.3-1zm-7.2-.8 1.4-.3c1.2 0 1.4-.1 1.5-.7 0-.3.3-.7.6-.9l.5-.5c0-.1.3-1 .8-1.9.8-1.9 1.6-4.2 1.6-5.1 0-.6.6-1.1 1-.8.2.2-1 4.2-1.9 6.3l-.7 2.2-.4 1.2c-.4.8-.5.8-2.4.8-1 0-2-.1-2-.3zm-107.8.3c-.2-.3-1.2-.5-1.2-.3 0 .3.4.6.9.6.3 0 .4-.1.3-.3zM69 69.8c.7-1.1.7-1.4-.3-1.7-.5-.1-.6 0-.7.8-.4 2.3 0 2.5 1 .9zm29 .3c3-2.5 3.3-3.3 2.2-4.9-1-1.4-1.5-1.5-2-.1-.3.7-.6 1-.8.8l-1.2-.3c-.4 0-.6-.3-.7-1.5 0-.9-.4-2.3-.8-3.3l-.9-2.4c-.1-.8-.5-1-1.7-1.2-.4 0-1-.3-1.3-.5-.4-.2-1.5-.4-2.5-.5a6.2 6.2 0 0 1-2.8-.9c-.7-.5-1.2-.6-2.3-.5a4 4 0 0 0-1.8.5c-.3.2-1.1.8-2 1.1l-1.5 1c0 .2-.5.8-1 1.4a8.3 8.3 0 0 0-2.4 5c-.1 1.6-.4 2-.7.7-.3-1 0-2.2.8-3.6.8-1.3.8-1.6 0-1-1.1 1.1-1.5 2.1-1.4 4 0 1.7.1 1.9.7 2.2.4.2.7.2 1 0 .2-.2.8-.2 1.6-.1l1.2.1-1.3-1.2c-1.5-1.4-1.7-1.9-1-2 .3-.1 1.1.5 2.3 1.7 2 2 3 2.4 4.4 1.7.6-.3.6-.5.6-2.6 0-1.7.2-2.4.5-3 .8-1 1-.6.5 1-.6 1.5-.7 2.8-.3 3.3.3.4.4.4.7 0 .4-.6 1.3-.6 1.6 0 .2.5-.8 1.6-1.9 2-.4.2-.6.4-.4.4l1.5.6c.8.3 1.5.5 2.3.4 1 0 1.1 0 1-.8-.3-2.7-.3-5.2 0-5.2.1 0 .3.7.3 1.8 0 3.3 1.4 4.8 5.7 5.5 1.3.3 2.3.6 2.4.8.2.5.3.5 1.4-.4zm-35.2-.4-.9-.6-.8-.4.6.6c.6.5 1.1.7 1.1.4zm63.2-1c.5-.1.3-.2-.8-.2-1 0-1.3 0-.9.2.6.3.9.3 1.7 0zm-4-.6c0-.4-.8-.6-2.1-.5-1.8.2-1.1.8 1 .9.8 0 1.2-.1 1.2-.4zm26-2.7c1-2.7 2.3-7 2.4-7.6 0-.8-1.2 1.1-2.8 4.3-1 2-2 3.8-2.4 4.2-1.2 1.4-.7 2.2 1.2 2 .6 0 .8-.2 1.7-2.9zM131.7 68c.4-.2.8-.6 1-1 .2-.7.3-.8 2.2-.2 2.3.6 3.5.5 4 0 .5-.8.3-1-.7-1.2l-1-.2 1.2-.3c.7-.2 1.1-.5 1.1-.7 0-.2 0-.4-.2-.4s-.4 0-.7-.2c-.2 0-.4 0-.4.3 0 .4-.5.7-1.3.7-.7 0-1.4-.8-1.2-1.2 0-.3-.2-.4-1.3-.4-1.2 0-2.3-.3-2-.6.1-.1 3.7-.3 4.5-.2.3 0 .3.1-.1.4-.5.4-.4.4 1 .4 1.6 0 1.8-.2 2.1-1.4l.2-.8-.9.7c-.4.4-1 .7-1 .6-.7-.2-.5-.7.6-1.5s1.3-1 1.3-2c0-.8-.1-1-.5-.8l-1 .2c-.4 0-.7 0-.7.2s.3.3.6.3c.8 0 .6.5-.4.7-.5 0-1 .3-1 .5 0 .1-.3.5-.6.6-.6.4-.6.4-.2.7.6.5.1.6-1.8.7-2.5 0-3 0-3-.3 0-.1.7-.3 1.4-.3 1 0 1.3 0 1.3-.4s-.3-.4-2.3-.3c-1.9.1-2.4 0-2.5-.2-.1-.2-.4-.4-.7-.4-.4 0-.5-.1-.4-.3.1-.2 1-.2 2.7 0 2 0 2.5 0 2.7-.2.1-.2.9-.4 1.7-.4 2.4-.1 2.5-.7 0-.6-2 0-3-.3-2.7-1 .1-.2 0-.5-.1-.6-.4-.4 0-.5 1.8-.7l2.3-.3c.8-.1 1-.1 1 .2 0 .3-.6.5-2.3.8-2 .3-2.2.3-1.8.7.6.4 3 .2 5-.4 1.5-.5 1.8-.8.9-1-.8 0-1-.7-.3-.7.8 0 1-.4 1-2.6 0-2 .1-2.5.8-3.8l.4-1.1c0-.5-1.6-1.5-2.4-1.5-1.9 0-4.4 1.3-3.7 2 .2.2.5 0 1-.5.7-.7 1.1-.8 2.2-.8 1.8 0 2.2.5 1.8 1.9l-.4 1h-1.3a6 6 0 0 0-2.4.2c-.6.2-2 .4-3.3.4-4.6.1-7.2.3-7.3.4-.1.1.3.2.8.2.7 0 1 0 .8.3-.3.3-2.5 0-2.5-.3 0-.2-2-.7-2.4-.6-.3 0-1.4-1.3-1.2-1.4.3-.3 4-.6 7.9-.6 4 0 5.4-.4 2.5-.7-1.2-.2-1.9-.4-2-.6-.2-.4-.3-.4-1 0-.7.3-1.7.5-3.1.5-1.2 0-2.9 0-3.7.2-1.5.1-1.6.2-1.5.7 0 .7 0 .8-.8.3-.5-.2-.6-.2-.4.2l.2.8c0 .2 0 .4.3.4l1.2.7c.7.5 1.4.8 2.3.9 1 0 1.3.2 1.3.5 0 .5 1 .7 1.2.2.2-.3.5-.3 1.8-.1h3.8c2-.1 2.3-.1 2.3.3 0 .3.3.4.8.4s.8.1.8.3c0 .1-.5.2-1.1.2-.7 0-1.3 0-1.4-.2-.3-.5-5.1-.3-5.1.3l2 .2c1.5 0 2.2.1 2.2.3 0 .2-1 .3-3.7.1l-3.6-.2-1 .8c-.6.7-1 .8-2 .8-.6 0-1 .2-1 .3 0 .2 0 .3.1.2.3 0 3.7.3 4.6.5.6.1.8.3.9 1.2.1.8.3 1 .8 1 .8 0 1 .5.4.7-.8.2-2.1-.1-2.1-.5 0-.3-.6-.4-2-.5l-2.5-.2c-.2 0-.4 0-.5.3 0 .4.3.5 2.3.6 1.3.1 2.4.3 2.4.4 0 .2-.4.3-.9.3-.4 0-1 .2-1.3.4-.3.2-.7.3-1 .3-1.3-.4-1.8-.4-1.8-.2s.4.3.8.3c1.3 0 2.2.3 2.3.7 0 .3-.3.3-1.6.2-1.2-.1-1.5 0-1.3.1.3.2 1.1.3 2 .3 1.5 0 2 .3 1.3.8-.8.4-.3.5.8.2 1.2-.3 3.9 0 4.6.5.4.3.4.3 0 .8l-.5.9c0 .2-.2.5-.5.7-.3.2-.5.5-.4.6.2.3-.3.4-1.8.5a5 5 0 0 0-1.8.3c-.2.2.5.2 2.2.2 2.7-.2 3.4-.3 3.4-1 0-.1.2-.3.3-.2.2 0 .3.4.3.8 0 .6 0 .7.6.7l1.3-.2zm-1.3-2.2c-.1-.1-.5-.2-1 0-.6 0-.7 0-.7-.3 0-.7 1.1-1 3.7-1 1.8 0 2.4.1 2.3.3 0 .2-.7.4-1.5.4-1 0-1.5.2-1.8.5-.3.5-.8.5-1 .1zm-.6-2c-1.5-.2-1-.6.8-.6 1.1 0 1.5 0 1.5.3-.2.4-1 .5-2.3.3zm-4.2-1.6c-2-.2-1.6-.6.5-.5 1.1 0 2 .2 2.1.3 0 .3-1 .4-2.6.2zm4.1-4c0-.3 1.9-.7 2-.5.1.1.1.3 0 .4-.2.4-2 .4-2 .1zm-3.2-1c-.3 0-.5-.2-.5-.4 0-.1 1.3-.2 2.8-.2 2.2 0 2.8 0 2.7.3 0 .3-4 .6-5 .3zm-2-1a.6.6 0 0 1-.3-.6c0-.3.2-.3 1-.2h1.4c.2-.2 1.3-.2 2.5-.1h2.4c.1-.2 1.3-.3 2.6-.4 1.3 0 2.7-.2 3-.3.5-.2.6-.1.5.3 0 .4-.5.5-3.2.8-1.8.2-4.1.3-5.3.2-1.1 0-2 0-2.1.2-.2.2-1.9.3-2.5 0zm13.4-2.8c0-.3 1.6-1 1.8-.7v.6c-.2.4-1.8.6-1.8.1zm-2.6-.8c.2-.4 2.4-.8 2.8-.5.3.4.1.5-1.5.7-1.1.1-1.4 0-1.3-.2zM143 67c.2-.5.2-.8 0-1.3-.3-.6-.2-.8.5-1.5.8-.7.8-.9.7-2-.1-1.1 0-1.4.7-2.4 1.3-1.8 1.3-1.9.7-1.7-.3 0-.9.6-1.3 1.2a13 13 0 0 1-3.2 3.4v.5c.3.3.7.5 1 .5.9 0 .7.7-.2 1h-1l-.3 1.2c0 1.1 0 1.3.6 1.5 1 .4 1.4.3 1.8-.4zm8.4-.3.3-1.2c.2-1 .2-1-.3-1.2-.4 0-.5-.3-.4-.7v-.7c-.2 0-.4.7-.4 1.6a9 9 0 0 1-.1 2c-.1.3 0 .4.4.4.3 0 .5 0 .5-.2zm-67-1-.6.3-.6.5.6-.2c.4-.1.7-.4.7-.5zm-43.8-.2c-.4-.4-.6-.5-.9-.2-.2.2-.2.3.2.3.2 0 .4 0 .4.2s.2.3.5.3c.4 0 .3 0-.2-.6zm-32-1.3c4.5-.6 8.4-1.3 9-1.6.6-.3-.3-.2-6.3.6-3.1.5-5.8.8-5.9.7-.3-.4.5-.6 3-1 3.8-.4 6.2-.8 6.4-1l-3.6-.7a31 31 0 0 1-5.4-1c-.5-.1-.7-.4-.7-.7 0-.6.9-.8 1.2-.3.3.5 1 .3 1-.2 0-.3.1-.7.4-.8A77 77 0 0 0 7 44l-.3-1.6-.1 3.3a118.2 118.2 0 0 0 0 11.1c-.3 0-.5-2.5-.5-7.8 0-2.6-.1-6.3-.3-8.2v-4.1c.1-.4.2-.5.3-.2 0 .3 0 .3.3 0 .1-.3.2-1.6 0-3.7-.1-3.6.3-4.5.6-1.2l.4 2.7.4 5.1c.1 4.4.5 10 .8 11.4.1.5.3.7.5.6.3-.1.4 0 .4.3s-.1.4-.4.3c-.5-.2-.5.2 0 1.2.4.7.5 1.5.5 3.4a16 16 0 0 1-.2 3c-.2.6-.1.7.3.7.6 0 1-.6.7-1.2 0-.3 0-2 .2-3.7.3-3 .3-3.4 0-3.8-.6-.5-1.1-5.5-1.2-10.1-.1-2.9-1-8-1.8-9.7l-.5-2-.4-2.7C6.2 24.8 4.3 19 4 18.6c-.2-.3-.3 1.4-.3 19.9 0 5.6-.1 10.2-.2 10.3-.3.3-.3 15.8 0 16a80.5 80.5 0 0 1 5.1-.6zm-3.7-1.8c0-.3.9-.5 3-.7 2-.2 1.8.3-.4.7-1.7.3-2.6.3-2.6 0zm.9-4.2c-.2-.3.2-.6.5-.4.2.3.2.6-.1.6-.1 0-.3 0-.4-.2zm-2-1c0-.6 0-1.1.2-1.2.3-.4.9.4.9 1.3 0 .7-.2.9-.6.9-.4 0-.5-.2-.5-1zm.7-5.8v-4c.3-.4.5.6.8 4.7.1 2.7 0 3.2-.2 3.2-.4 0-.5-.8-.6-4zm61 13.4c0-.3-.9-.8-1.3-.8 0 0 0 .2.3.5.5.6 1 .7 1 .3zm4.3-.2c.5-.6 1.5-3 1.4-3.3 0-.2-.5.4-1 1.3-1.1 1.7-1.5 2-1.8 1.3 0-.3-.3-.4-.5-.4-.3 0-.3.1.1.8.5.9 1.1 1 1.8.3zm57.5-.3h-1c-.2.1 0 .2.5.2s.7-.1.5-.2zm-25-.3-.5-.4c-.6-.2-.6-.2-.6.3 0 .2.2.4.5.4s.5-.2.5-.3zm-72.6-1.2c-.3-.3-.6 0-.4.4.1.1.3.2.5.1v-.5zM19.2 62c-.2-.2-1 .2-1 .4s.3.1.6 0l.4-.4zm-2.5-3c0-1-.3-2.9-.7-4.1a11 11 0 0 1-.5-2.8c.2-.6-.4-2.4-.9-2.8-.3-.3-1.5-5.4-1.3-5.6.3-.3.4 0 .9 1.8a5 5 0 0 0 1.3 2.5c.9 1 1.4 1.2 1 .6l-.4-2c0-1.5-.2-1.8-.6-1.8-.3 0-.6-.1-.6-.3 0-.2 0-.4.4-.4.6 0 .7-.5.4-2.8-.2-1-.2-1.1-.3-.6-.3 1.2-.7.4-.6-1.3 0-1 0-3.2-.2-5-.3-3-.2-7.6.2-7.3v2.1a43.8 43.8 0 0 0 1.9 13.3l-.6-7.7c-.6-8.3-.6-8.1-.3-8.1s.5 2 .7 6.6c.3 5 1 12.2 1.4 15 .3 2.2.6 3 1.1 3.7.7.8 1 1.4 1.5 2.8 0 .3.4.6.6.6.3.1 1 1 1.6 2.2l1 2V56c0-2 0-7.3.2-11.6v-8.8c-.3-.7-.3-.7-.5.6v3c.3 1.3.2 1.7 0 1.8-.3.2-.5 1-.7 1.8 0 .9-.4 2.3-.6 3.3-.4 1.2-.4 1.7-.2 2 .2.1.3 1.4.3 3.5 0 2.7 0 3.2-.4 3.2-.3 0-.4-.4-.4-2 0-3.1-.4-4.4-1-2.9-.5 1.3-.8.7-1-2.4 0-1.7-.2-4.1-.4-5.4-.3-2.8-.3-3.4 0-3.4s.4.5.9 5.2c.2 2.6.3 2.9.8 2.9.7-.1.7-.2.8-2.6.1-2.3.4-4 1-4.9.3-.7.8-7.3.8-12.8 0-3.2 0-4.7.2-4.5.2.2.3 1.1.3 2 0 .8.1 1.5.3 1.5l.2-.6c0-.3.4-1 1-1.4.5-.5.8-1 .7-1l-.3-4.5a650.6 650.6 0 0 0-.6-9.5c-.1.3-.3.5-.5.4a25 25 0 0 0-.3 8.1c0 2.5 0 4-.2 4-.1.2-.3-1.3-.4-4-.1-2.4-.3-4.6-.5-5-.3-.6-.3-.5-.5 1.4a36 36 0 0 0 0 4.5c0 1.6 0 2.3-.2 2.3s-.3-.7-.3-1.8c0-1 0-2.8-.2-4l-.2-2.3-.1 3c-.2 3.9-.7 4-.7.1 0-1.4 0-2.7-.2-2.8-.4-.5-.5 1.8-.3 10.8.1 7.3.1 10-.1 10.4-.5 1-.8.5-.5-.8a59.4 59.4 0 0 0-.4-13.8c0-1.4 0-1.7-.2-1.2l-.2 3c0 1.4-.2 3.2-.5 4a7 7 0 0 0-.2 2.6c.1.9.1 1-.3 1-.7-.2-.8-1.2-.4-3.6l.5-4.4a82.4 82.4 0 0 1 1.3-10.6c0-.9 0-.9-.5.6a84.8 84.8 0 0 0-2 10.5c0 .4-.8.4-1 .1 0-.1 0-1 .3-1.8l1.3-5.5c.5-2.2 1.2-5 1.7-6.4 1-2.7 1-3.8.3-3.8-.4 0-.5.1-.4.7v1a7 7 0 0 0-.7 1.6c-.2.8-.5 1.3-.8 1.4-.3 0-.6.5-.7 1a43.5 43.5 0 0 0-1.7 12.2c0 3.2-.3 5-.5 5.2-.6.6.2-11.6 1-16 .8-3.5 1-7.1.6-7.1l-.9.2C15 4 15 4 14.7 7l-.2 4A108.5 108.5 0 0 0 13.1 29c0 7.4 0 8-.5 8.5-.5.6-.5.6 0 2.4.7 2 .8 2.7.2 2.7-.2 0-.4-.3-.4-.5 0-.7-1.2-6-1.9-8-.6-1.9-1.5-3.5-1.1-2 .5 1.9.6 3 .6 4.3 0 .7.2 1.4.3 1.5l.4 1.4c.4 3 .7 4.7 1 5 .3.1.6 1.2.9 2.4.3 2.1 1.2 5 1.5 5.3.3.3.2.8-.3 1-.3 0-.3 0 .1.1.7 0 .9.8.2.9-.5 0-.5 0 0 .1.3 0 .5.5.6 1.1 0 .5.3 1.3.4 1.6l.2 1.4c0 .5.2 1.1.4 1.4.3.3.4.7.4 1 0 .3.2.5.4.4.2 0 .3-.7.2-2zm4.6-23.6.1-3c.2-1.7.3-4.5.2-6.4-.1-3.6 0-4.6.4-4.6.3 0 0 13.8-.3 14.1-.1.1-.3.1-.4 0zm-3.9-2.7v-1.9c-.2-1.4-.1-1.7.2-1.7.4 0 .8 2.5.6 3.3-.2.3-.7.6-.8.3zm98.7 28.1s-.1-.3-.4-.5l-.4-.6c0-.4.8-.2 1.6.5l1 .6c1.2-1.6 1.8-4 1.4-5.6l-.7-3.4a11 11 0 0 0-2.2-5.8c-1.3-2-2.4-2.7-5.4-4.2-2.3-1.2-2.8-1.2-2.8-.3 0 .6-1.4 1.6-3.6 2.5l-1.4.7v1.2c0 1.7 1.1 5.2 1.5 4.8.2-.2.4-.1.6.3.1.3.7.6 1.2.7l1 .4c0 .2-.4.2-.7.1-1.3-.3-1.1.6.4 2.6.4.5.6 1 .5 1.1-.1.2-.3 1-.3 1.7l-.1 1.4h1.7c2.2 0 2.2-.1 1.4-3.2-.7-2.7-.7-2.4-.3-2.4.4 0 1.3 3.1 1.5 5 0 .7.3 1.2.6 1.3.4.3.5 0 .9-1.3.8-2.9.8-4.5.1-6.6-.3-1-.7-1.8-1-1.8l-.4-1-.6-2a7 7 0 0 1-.3-1.5c0-.6.4-.3.8.6.3.5.6 1 .9 1 .2 0 .4 0 .4.2s.3.1.8-.2c.4-.2.8-.3 1-.2.1.2-.4.7-1.3 1.2-.2.1-.3.3-.2.4.1.1.4 0 .7-.2.5-.5 1-.6 1-.2 0 .2.2.2.3.2.2-.1.3 0 .4 0 .2.3-.6.8-1.6 1.1-.6.2-.6.2-.2.8.4.5.5.5 1.2.2.9-.5 1-.5 1-.2 0 .2-.3.4-.6.6-.9.4-.9.7 0 1 .7.3.7.3.3.7-.2.1-.5.4-.5.6 0 .6-.7.3-.8-.3v1.3l.1 2.1c.2.2.1.6 0 1-.2.2-.3.9-.2 1.3 0 .5 0 1.1-.3 1.4-.4.6-.3.6.5.9 1.2.3 1.5.3 1.5 0zm-6.6-3.6c0-.5.1-.9.3-.8.1.1.3.6.3 1s-.2.8-.3.8c-.2 0-.3-.5-.3-1zm-1-1.3-.6-2.3v-.9c.5-.2.7.3 1 2.4.5 2.3 0 3-.4.8zm47 4.4c1.2-3 .9-5.4-.6-4.7-.8.3-1 1.1-.7 1.6.2.2.3.9.3 1.4 0 1.9 0 2.5.4 2.5.2 0 .5-.4.6-.8zM22.5 59c-.3-1-.7-1.6-.8-1.6-.2 0 .5 2.5.9 3.1.5.8.4 0-.1-1.5zm-9.8.3c0-.7-.2-1.5-.3-1.8-.2-.4-.2-.4-.3.4v1.8c-.1.6 0 .8.2.8.3 0 .4-.3.4-1.2zm8.7.8c0-1.2-2.3-7-3-7.7-.5-.4-.5-.4-.2 0s.3.6 0 .9c-.2.3-.2.5.1 1.2l.9 2.2c.2.8.7 1.8 1 2.3.4.5.7 1 .7 1.2 0 .2.1.3.3.3l.2-.4zm51.7-.3c0-.3-.2-.5-.7-.5-.8-.1-.8 0-.5.6.2.5 1.2.4 1.2-.1zM75 58l.9-1-.7.2c-.6.2-.8.1-.8-.2 0-.2-.1-.4-.4-.5-.5-.2-.5-.5.2-.9.4 0 .7-.4.7-.6 0-.4-.2-.5-1.8-.4-1.9 0-2 0-2 .6-.2.7.3 1.1 1.1 1.1s1.8.8 1.5 1.2c-.2.2 0 1.5.3 1.5l1-1zm-2.8-.8c-.8-.3-1.3-.2-1 .2l1 .2h.8l-.8-.4zm48.4.2-.1-.4c-.2-.1-.3 0-.3.2 0 .5.2.6.4.2zm-13.6-.4c0-.7-.3-1.2-.7-1.2-.4 0-.5 1-.2 1.4.3.3.9.2.9-.2zm-60-1.4c-.2-.4-.3-.6-.4-.4-.1.2 0 .5.1.8.4.7.5.6.3-.4zm30.4 0c.4 0 .5-.2.3-.6 0-.4 0-.5.6-.5 1.7 0 2.3-1.3 1.7-3.1-.2-.6-.2-1.7 0-3.3v-2.8c-.2 0-.3-.6-.3-1l-.2 1.4c-.1 1.2-.3 2.2-.4 2.2-.2 0-.4-1.4-.5-3.3-.2-3.3-.6-5.3-1.1-5.1-.3 0-.3 3.2 0 8.4.2 1.8.2 2.6 0 2.6-.4 0-.6-1.9-.8-7.9-.2-3.3-.3-3.7-.7-3.8-.5-.2-.5 0-.4 4.1l.3 5.4c0 .9 0 1.1-.3 1.1s-.4-.4-.4-2.4c0-4-.3-8.1-.6-8.1-.1 0-.2 1.2-.1 3.4.1 3 0 4-.4 3.2l-.2-3.2c0-1.6-.2-3-.3-3-.4-.3-1.1 1.7-1 2.8 0 .6.1 1.4.4 1.8.5 1 .5 1.6 0 3.5-.2 1-.5 1.6-1.7 2.9-1.2 1.2-1.4 1.6-1.1 1.9.2.3.2.5 0 .9-.4.7-.3 1.2 0 .9l3.1-.4 2.7-.1V55c0 1.5 0 1.5.5 1.2.2-.3.7-.5 1-.6zm-5-4.2c0-.9 0-1.2.3-1.2.4 0 .6 1.2.3 2-.4.8-.7.4-.7-.8zm2.2.2c-.3-.3-.2-.6.2-.6.3 0 .4.1.4.3 0 .3-.4.5-.6.3zM13 55.4c0-.3-.2-.8-.4-1-.4-.2-.4-.1-.4.8s0 1 .4 1c.2-.1.4-.5.4-.8zm13.3-3.5c.1-2.7 0-4-.2-4.8-.3-.9-.4-1-.5-.7-.3.6-.3 3 0 3.1V51c-.3 1.4 0 5.8.3 5.1l.4-4zm122 3c.6-.9.6-1 .1-.7-.4.3-1.3 1.6-1.3 2 0 .3.8-.5 1.3-1.4zm9.9-2.1c.1-1.7.4-2.7.6-3 .6-.7 1-29.6.3-30.4-.5-.7-.5-2.4 0-2.8.4-.3.5-.7.3-2.5l-.3-3.8c-.2-3.4-.6-4.4-2-5.8a5.2 5.2 0 0 0-3.1-1.8c-2.2-.5-9-.5-8 0 1.5.7 3.4 2.4 4 3.7.4.7.8 1.2 1 1.1.1 0 .6.1 1 .4.8.7 1 .3.4-.6-.2-.3-.4-.8-.3-1 .1-.3-1.2-1.8-1.7-1.8-.4 0-1-.8-.7-1a164.9 164.9 0 0 0 4.5 2.5c1.4.8 1.6 1.2 1 1.5 0 .1.5 1 1.7 2 1 1 1.8 2 1.7 2.1-.3.5-1.2.3-1.2-.2 0-.3-.6-1-1.4-1.7-1.8-1.6-2-1.6-2.5-1.2-.5.3-.5.4-.2.7.5.5 1.7 3 1.7 3.4 0 .8-.7.2-1.2-1.1-.7-1.6-2.7-3.8-2.7-3 0 .4.1.9.3 1.3.3.4.3.8.1 1.3l-.2.6-.6-.7-.6-.7v-.5c-.1-.3-.8-1.1-1.1-1.1l.1 1.5c.5 2.2.6 3.8.2 4-.2 0-.3-.1-.3-.5 0-1.2-1.2-6.5-1.5-7-.3-.4-1.9-1.4-4-2.3-3.4-1.7-3.4-1.7-6-1.9-3.2 0-3.8 0-3.4.5.5.5 0 .8-.8.3l-.5-.5c0-.1-.3-.2-.7-.2-.7 0-.8.6-.2 1.4.3.5.5.5 1 .3.5-.3.7-.3 1.1.2.6.6 3 2 3.2 1.7.1 0 0-.4-.2-.6-.5-.5-.6-1.1-.3-1.1l1 .8c.4.4 1.2 1 1.7 1.2 1.4.6 3.2 1.7 3.3 2.2l.8 1.2.7.8-.2-1.3c-.2-2.3-2.3-4.1-5.9-5.4-1.2-.4-1.6-.6-1.3-.7.3-.1 1.4 0 2.5.5 1.1.3 2.2.6 2.4.5.3-.1.4 0 .4.5 0 .4.2.8.5 1 .4.2.5.2.3-.3-.1-.6.3-.7.7-.2.4.5 1 3 1.4 5 .1 1 .5 2.4.8 3l.6 1 .1-.8c0-.7-.3-3.2-.9-5.5-.1-.5 0-.6.2-.6.5 0 1 2.7 1.6 7l.4 2.8.2 2 .3 3c.1.8.1 1-.2 1-.1 0-.4.2-.5.5 0 .5-.2.3-.6-1.1l-.8-3.1c-.5-1.7 0-1.4.5.3.3.8.5 1.3.6 1.2.1 0-.3-2.7-.8-4.6-.3-1.1-.3-1.1-.5-.5-.2.3-.3 1-.3 1.4v.7l-.4-.7c-.8-1.4-2.1-4.7-2.3-5.8-.1-.8-.6-1.4-1.7-2.6-1.7-1.8-2.4-1.7-.8 0a8.6 8.6 0 0 1 2.4 5.4c0 1.1 0 1.6.5 2 .3.2 1 1.7 1.6 3.2 1 2.7 1 2.9 1 4.8-.2 1-.3 2.8-.3 3.7 0 1.9-.3 2.5-.6 1.6-.2-.6-.2-.6-1.1-.4-.6.2-.6.2-.4 3.6 0 2.3 0 3.4-.1 3.3-.3-.1-.5-2.7-.8-7.3 0-2-.3-3.4-.6-3.4-.1 0-.4.6-.5 1.3-.5 2-2 4.7-2.4 4.7-.3 0-.3.4-.2 2.2.2 1.7.1 2-.2 2a34.8 34.8 0 0 1-.5-8c.3-.5.6.3.6 2v1.7l1-1.8A10 10 0 0 0 141 23c-.2-1.5-.2-2 0-2.3.5-.3 0-2-.9-4a6 6 0 0 1-.5-1.5l-.4-.8c-.4-.5-.4-.5-.3 0 .4 1 .8 3.8.6 4-.3.3-.4 0-.7-1.6-.3-2-1.9-5.4-3-6.5l-2.2-2.8c-1-1.5-1.4-1.9-2-2-.6 0-.7-.1-.6-.4 0-.2-.1-.7-.4-1-.4-.3-.4-.6-.3-.8.3-.4.1-.7-.4-.7-.3 0-.4.2-.3.7.2.7-.3.9-.9.2-.3-.4-.8-.5-.8-.1l.8.6c1 .5 2.7 2.3 2.7 2.7 0 .7-.5.4-1.4-.5-1-1.3-1.7-1.6-2.2-1.2-.3.3-.5.2-1.1-.4-.9-.8-1.1-.8-1.1-.3 0 .6-1.4.8-2.1.2-.4-.3-1.1-.6-1.6-.7-.4 0-1-.3-1.1-.6l-.6-.3c-.2 0 0 .3.4.7.6.6.7.8.4 1-.2.3-.2.4.3.4.9 0 2.3 1.4 3.2 3.3.8 1.6 1.9 3 1.9 2.3l-.7-2.2c-.8-2.2-.7-3 .1-2.2.3.2.6.6.6.8 0 .2.1.4.4.6.4.4.5 1.3 0 1.4-.2 0 0 .8.5 2.5.8 2.3 1.2 4.1 1.2 5.3 0 1.1.2 1.7.8 1.5.4 0 .5 0 .5.3 0 .8 1.1 4.2 1.5 4.6.6.7.5-1.5-.2-3.2-.5-1.4-.5-2 .1-1.2.4.6.7.6.7.1s-1.6-3.6-1.9-3.6l-.2 1c0 .6-.1 1.1-.3 1.1-.2 0-.2-1 0-3.3.1-3.3.1-3.3-.5-4-1-1-1.6-2-1.6-2.4 0-.6.5-.3 1 .6l1.1 1.1c.3 0 .6.4.7.7.2.7 1.7 2 2.1 2 .2-.2.5 0 .5.3.1.3.4.5.6.6.1 0 .7.8 1.2 1.7 1.4 2.5 2.7 4.1 3 3.8.4-.4-2.6-5.7-3.2-5.5-.2.1-.7-.3-1.1-.8-4.6-5.6-4.6-5.6-4-5.6.2 0 1.3 1.1 2.4 2.5 1 1.4 2 2.5 2.1 2.5.2 0 .2-.3 0-.7 0-.7 0-.7.6.2.4.6 1 1 1.2 1 .4 0 1 1 1.5 3 0 .3.4 1 .8 1.7.3.5.7 1.4.8 2 0 .5.3 1 .4 1.2.5.6 1.4 5.2 1.2 5.8-.3.7-.6.1-.8-1.2-.2-1.5-1.6-4.5-2.1-4.5-.2 0-.8-.7-1.3-1.5-1.4-2.4-1.5-2.2-1.5 1.2 0 2.5 0 3 .4 3.3.4.3.4.4 0 1-.2.6-.3 1.6-.2 4 0 3 0 3.1-.5 3.3-.4 0-.5.3-.4.5.2.8.3 5 0 5.7-.1.5 0 .7.2.8.3 0 3.8.2 8 .2 5.2 0 7.6.1 7.9.3.2.2.7 1.4 1 2.6 1.2 3.5 1.3 3.7 1.8 3.7.3 0 .6-.1.7-.3.2-.2 1.7-9.1 2.4-14.2a31.7 31.7 0 0 0-3.1-18c-.3-.4-.5-1-.4-1 .5-.5 2.3 2.8 3 5.5.4 1.8.5 1.9.5 1 0-.6.2-1 .3-1 .4 0 .9 3.2.6 3.5-.3.3-.4 2.6 0 3l.8-1.3c.5-1.2.6-1.3.7-.8 0 .3 0 1-.3 1.4-.2.5-.8 3.5-1.2 6.7l-1 6c0 .2-1.1 7.7-1.1 8.5 0 .8.4.3 1.2-1.2.6-1 .6-1.4.4-2.1-.3-.7-.2-1.2.2-2.3.7-2 1.3-6.6 1.4-9.6 0-2.6.2-4.6.7-5 .2-.2.2 1 .1 3.6-.1 3 0 4 .2 4.1.2.2.2.8-.1 3.1-.3 1.6-.4 3.3-.3 3.6v1l-.7 1.3a70.8 70.8 0 0 1-6.1 9.8c-.2 0-.2 0 0-.3.2-.2.3-.5.3-.7 0-.6-1.5 1-1.7 1.9-.2.6-.1.7.5.7.4 0 1-.3 1.5-1 .5-.5 1-.9 1.2-.9.5 0 .5 1.4 0 2.4a8 8 0 0 0-.6 2c-.1 1.2-.1 1.2.4.9.4-.3.6-.7.7-1.8.3-2.7 1-6 1.5-6.4.3-.2.6-.8.9-1.3.5-1.2 1.9-2.6 2.2-2.2.5.4-1.7 4.8-2.5 5.2-.7.3-1 1.2-1.3 3.8v1.7c.7 0 1.3-2.2.9-3-.4-.5.4-2.3 1-2.3.4 0 .4.2.2 1.9-.2 2.4-.2 3.8.2 4.5.4.8.7.2 1-2.8zm-20.8-15.3c0-.3.2-.6.4-.7.2 0 .3 0 .3.5 0 .3-.3.6-.5.7-.2 0-.3 0-.2-.5zm12.3 0c-.1-1 0-2.4.2-2.4.3-.1.5 1.5.1 2l-.3.4zm-4.3-.7-.2-3c0-3.8.5-3.5.6.4.2 2.6 0 3-.4 2.6zm-10-4c0-2.7 0-4 .2-4.2.2-.3.4-1 .4-1.7s.1-1.3.2-1.3c.4 0 .4 3.5.1 3.8 0 .1-.2 1.8-.2 3.7 0 2.4 0 3.5-.3 3.6-.2 0-.3-1-.4-3.8zm5.2.5c.2-1.6.3-1.8.7-1.4.3.3-.1 2.5-.5 2.7-.3 0-.4-.2-.2-1.3zm7 .9c-.2-.2-.3-1.5-.4-3-.1-2-.1-2.7.1-2.6.2.1.3.3.2.5l.1 2.5c.3 2.2.3 3.1 0 2.6zm3.3-3c.4-3.3.2-5.2-1-9.7-1-3.7-1-4-.7-3.7l.3.6.3 1.5c1.5 4.3 1.6 5 1.6 8.6 0 2.5 0 3.5-.3 3.8-.3.3-.3 0-.2-1.1zm-2.7 0c0-.1 0-.3.2-.4.2-.1.3 0 .3.2 0 .3-.1.4-.3.4-.1 0-.2 0-.2-.2zm1.7-.2-.1-1.6c0-.8-.2-1.7-.3-2l-.2-1c.4-.3.7.6.8 2.6.2 2 .1 2.5-.2 2zm2.8-4c0-3.4-.4-5.6-1.8-9.7-.4-1.3-.3-3.6.2-3.6.2 0 .5.7.5 1.4s.9 3.6 1.4 4.7c.2.4.2.7 0 1-.3.5-.3 1 0 2.2.4 2.2.4 7.2 0 7.3-.2 0-.3-.8-.3-3.3zm-5.1 0v-1.2l.2-1.1.2 1c.2 1-.1 2-.4 1.3zm7.2-1.6a83.5 83.5 0 0 1-1-5.2c-.4-.9-.4-2.7-.1-2.4.2.3.5 1.1 1.6 6 .6 2.7.6 3.1.2 3.1-.2 0-.5-.6-.7-1.5zM136 22.7c0-2 0-2.2.4-1.8.5.5.7 2 .4 2.2-.2 0-.3.5-.3 1 0 .4-.1.7-.3.7-.1 0-.2-.9-.2-2.1zm12.5-6.8c-.4-1.8-.4-2.5-.1-2.3.1 0 .3.7.4 1.5 0 .8.2 1.7.3 1.9.1.2 0 .4 0 .4-.2 0-.5-.7-.6-1.5zm8-3c-.5-.4-.5-1-.2-1s1.1.8 1.1 1.1c0 .3-.6.2-1-.1zM48.6 55.3c.7-.7.5-1.4-.4-1.3-.6 0-.8.7-.6 1.4.2.5.2.5 1-.1zm72.6-.3c-.6-.6-1.5-.7-1.3-.2.1.4.6.6 1.4.7.3 0 .3-.1-.1-.5zm22-1.7c0-1 0-1.5-.2-1.4l-.2 2c0 1.2 0 1.6.2 1.4.2-.3.3-1.1.3-2zm-37.2 1.4c0-.3-1-2.4-1.2-2.4 0 0 0 .6.5 2.4.2.4.7.4.7 0zm-64.6-1c0-.4.3-1 1-1.6.8-.9 1-1.1.6-1.5-.4-.5-.8-.5-.6 0 0 .3-.3 1-1 1.6-1 1.3-1.3 1.9-.7 2 .6.3.7.3.7-.4zm4.4 0c1.2-.7 1.6-1.4.7-1.2H46c0-.2-.3-.5-.8-.7-.6-.3-.8-.2-1.6.4-.6.4-1 .9-1.1 1-.2.7.6.8 1.2.2.4-.5 1-.7 1-.4l-.4.8c-.4.6-.4.7 0 .7l1.6-.8zm-6.1-.4.8-1c.3-.3.4-.6.3-.6-.1-.2-1.7.5-2.4 1l-.5.4.5.4c.7.6.8.5 1.3-.2zm82.4.5-.6-.4c-.5-.2-.7-.4-.7-1 0-.4-.1-.6-.5-.6-.2 0-.6-.1-.8-.3-.2-.2-.3-.1-.3.6 0 1 .4 1.3 2 1.7h1zm23.5-3.2c.2-2.2.7-2.8.8-1.1.1 1 .6 1.4.6.4 0-.8.5-1.5 1.1-1.5.7 0 1.3-.5 1.3-.9a17.8 17.8 0 0 1-3.2.1c-2.3 0-2.4 0-2.7.7-.2.5-.2 1 0 1.7.2.5.4 1.4.4 2 0 .7.1.3.1-1 0-1.9.3-2.5.7-1.9l.2 2.6c0 2.9.5 2.3.7-1zm-60.6 2.5c.3-.4.4-.6.1-.8-.2-.3-.3-.2-.5.2 0 .4-.2.6-.3.6-.2 0-.3.2-.3.3 0 .4.4.3 1-.3zm-46-1.5c1-.4 1.3-.7 1-.8-.7-.1-3 .7-3 1.2s.2.4 2-.4zm8.7 0c-.6-.6-1.2-.8-1.2-.3 0 .1.1.3.4.3.2 0 .4.1.5.3.1.3.3.4.6.4s.2-.1-.3-.6zM39 50.3l2.7-.8c.3 0 .3 0 0-.4-.4-.4-.7-.4-2.2-.2-2.1.4-3.1.9-3.2 1.6-.1.8 0 .8 2.7-.2zm30.6 0c.8-.2 1.8-1.9 1.8-3l.4-1.2c.3-.5.3-.8 0-1.6a6 6 0 0 0-.8-1.3c-.6-.8-.4-1.8.6-2.8.6-.7.8-1.2.7-1.5 0-.3 0-.5.4-.6.4-.1.8-.7 1-1.6 1-2.2 1-2.8.6-3-.3-.2-.2-.5.3-1.6.4-1 .6-1.6.4-2.1l.1-.8c.3 0 .4-1.2.1-2-.2-1-.6-.8-.6.1s-.6 1.1-1 .4c-.2-.4-.3-.3-.8.5l-.8 1c-.4 0-1.6 1.4-1.6 1.9 0 .3-.2.8-.5 1.2-.6.8-1 2.4-1.2 4-.1.8-.4 1.4-.9 1.9-.7.8-1.3.8-1 0 .2-.7-.2-.7-1-.1-1.1.6-1.5 0-.7-1 .5-.7.6-1.1.6-2.9 0-2.2-.5-4.6-.9-4-.3.6-.5.2-.7-1-.2-1.3 0-2.4.6-2.4.4 0 .6-1.4.4-2.5-.2-1-1-1.2-1.8-.3-.6.6-.6.7-.2.5 1.8-.7 2-.1.3 1.4-.8.7-1.3 1.4-1.5 2.2-.3 1.2-1 1.3-.9.1l.1-.8-.4.8c-.7 1.2-1 5.3-.4 6.3.2.5.5 1 .7 1l.4.7c0 .3-.2.4-.7.3-.6-.2-.6-.1-.5.6.2.7-.4 1.7-2.1 4.1-.5.7-.7 2.8-.4 3.9.2.5.1.8-.2 1-.3.4-.3.5.2.6 1 .3 1.3.2 1.1-.2-.2-.6.5-.5 1 .1.3.3.7.6 1 .6.1 0 .3 0 .3.2 0 .5 1 1.3 1.8 1.4.8.2.9.1.9-.4 0-.7-.6-1-1.8-1-.7 0-.8-.1-.2-.7.5-.5.3-.7-1-1.1-.6-.2-1-.5-.8-.7 0-.2-.2-.4-.5-.5-.6-.2-.6-.4-.2-1 .6-.8 1.4-.3 1.2.6-.1.8.2 1 1.2 1 .3 0 .5.2.5.5 0 .5.1.6 1.6 1 .5 0 .7.3.6.5-.1.3.2.5 1.3.7 1.7.3 2.1 1 .5.7-.9-.2-1.4 0-1.4.6 0 .4 1.2.5 1.5.2.4-.3 1.8-.2 1.7.2 0 .1-.3.2-.7.2-.3 0-.6 0-.6.2s1.3.7 1.8.7l1.1-.3zM66.3 47l-.4-.5c0-.4 2.2-.2 2.3.2.1.4-1.4.6-2 .3zm-1-2.9L64 44c-1 0-1.6-.4-1-.7l.2-.8c0-.6.1-.7.8-.5.8.1.8 0 .6-.7-.1-.8.1-1 .7-.4.5.5.4 1.3-.3 1.6-1 .5-.8.8.5 1.2.7.1 1.1.4 1 .5-.2.4-1 .4-1.3 0zm4-3.4c0-.2.1-.2.3-.1l.2.3h-.2c-.2 0-.3 0-.3-.2zm12.1 9.1c-.2-.4-.3-.6-.4-.4-.1.4.1 1 .5 1v-.6zm-32 0c.8-.2 1.6-.4 1.8-.3 1.2.1 1.8-1 1.9-4.2 0-2.2 0-2.5-.4-2.5l-1.3-.1c-.7-.2-.8-.1-.8.3s-.2.4-2 .4c-2.3 0-2.7-.2-2.4-.6 0-.2.7-.2 1.4-.1h2l.5-.2-.6-.3-1.7-.4c-1-.2-1.7-.8-.9-.8.8 0 .4-1-.5-1.2-.4-.1-.9 0-1.2.1-.5.3-.5.3 0 .8.4.6.4.6 0 1-.7.4-1.5.4-1.7 0-.3-.4-1.2-.2-1.2.3 0 .3.2.6.4.6.4 0 1.6 1 1.4 1.2 0 0-.6 0-1-.3-1-.4-1.8-.6-1.8-.3l-.2.5c0 .3.1.4.9.6 1.2.2 2 .6 1.7.9 0 .1-1 0-1.8-.2-1.5-.3-1.7-.3-2.2 0-.5.4-.4.4 1.3.5 1.6.1 2.7.5 2.4.8-.1.1-1 0-2-.1-1-.2-2.2-.2-2.6-.1-.7.2-2.2 2-2 2.5.2.2 3.8-.6 4.2-.9l-1.4-.1c-.8 0-1.5-.1-1.5-.3 0-.3 3.6-.4 4.3 0 .7.2.5.5-.4.6H41l.8.3c.9.4 1.6.1 1.3-.5-.2-.4.4-1.4.8-1.4.2 0 .5.2.8.5.6.7 1 .7 6-.2.6-.1.8 0 .7.2-.1.5-2.4 1-4.6 1-2 0-3.1.5-2.5 1.1.2.3.8.2 2.6 0l3-.5c1 0 .5.5-1.4 1.1-2.1.8-1.7 1 .7.3zm-4-3.5c-.4-.4 0-.5 1.6-.5 1 0 2.2-.2 2.7-.3 1.3-.4 2.4-.4 2.4 0 0 .6-6.2 1.3-6.7.8zm0-1.3c-1.5-.2-.6-.5 2-.7l3.5-.2c1-.1 1.2.5.1.7a30 30 0 0 1-5.6.2zM65 49.8c-.2-.4-1.1-.8-1.4-.5-.2.2.7 1 1.2 1 .2 0 .3-.2.2-.5zm-30.4-.3c.2 0 .4-.2.4-.3 0-.3-1.5 0-1.7.3-.2.2.7.3 1.3 0zm23.7-.3c0-.2-.3-.3-.6-.3-.6 0-.6 0 0 .3l.5.2.1-.2zm-2.4-.7c.4-.3.5-.5.3-.8-.2-.2-.3-.6-.2-1 .1-.3 0-1.3-.1-2.2-.3-1.7-.5-2-1.8-1.7-.4 0-.5.2-.4.5l.3 2.7.2 2.6c.2.4 1 .4 1.7-.1zm82.3 0c0-.3-.2-.4-.4-.3-.7 0-.8.7-.1.7.3 0 .5-.2.5-.4zm5-.2c.1-.5.1-.7-.2-1-.1-.1-.3-.4-.3-.7 0-.3.4-.3 2-.3 1.8 0 2 0 2-.6V44a12 12 0 0 1-.3-2.2c0-.6-.1-1.2-.3-1.2a119.7 119.7 0 0 0-13.8.2c.6.1 1.1.3 1.1.5 0 0 0 .2-.2.2s-.4.6-.4 1.3c-.2 1.5-.6 2-.9 1-.1-.5-.1-.5-.3 0-.4 1-.3 1.3.7 1.6.6.2 1.4.3 1.9.3s.8.1.8.3c0 .2-1 .3-2.4.3-2.4 0-2.4 0-2 .5.3.3 1 .6 2 .7 1.3.1 1.4 0 2-.5.4-.4 1.4-1 2.2-1.2 2.7-.8 5.6.4 5.6 2.4 0 .9.3 1 .7 0zm-1.7-2.6-.2-2.4c-.1-1.6-.1-2 .2-2 .5 0 1 4.2.4 4.6-.1 0-.3 0-.4-.2zm4.2-.4-.4-1.9c-.3-1.5-.3-2.4.1-2.4s.5.5 1 3.7c0 1.4-.4 1.9-.7.6zM139 43c-.1-1.6 0-2.5.3-2l.4 2c.1 1.3 0 1.6-.3 1.6s-.4-.4-.4-1.6zm-2.5.8c-.2-.4 0-1.3.4-1.3.1 0 .2.3.2.7 0 .8-.3 1.1-.6.6zM60 48.2l-.4-.1-1-.4c-.8-.6-1-.5-.5.3.3.5.6.6 1.1.5l.8-.3zm60-2.8c.2-1 .4-3.2.4-4.7 0-2 .1-2.6.3-2.2.3.5.4 3.5.2 6.6a8 8 0 0 0 0 2.3c.7.5 1.3-1.8 1.7-6.4.1-1 .3-1.9.5-1.9s.2.8 0 2.3c-.3 3.4-.3 5.2 0 5.3.5.1.7-.7.9-3.6.1-1.6.3-2.6.6-2.8.2-.3.3-.9.3-1.9 0-.8 0-1.6.2-1.8.5-.5-.2-7.3-.6-7.1-.4.1-1-4-.7-4.4.3-.5.5.4.5 1.9 0 .8.2 1.3.5 1.5.4.2 1.1 5 1.1 8 0 2-.4 4.7-.8 5.2-.1.1-.3 1.1-.3 2.2l-.3 2.7c-.2.6-.1.7.4.7.6 0 1-.9.8-1.9l.3-2.7c.4-1.5.4-2.1.2-2.5-.2-.4-.2-.6 0-.6.3 0 .6-.3.8-.7.6-1.4-.2-9.3-1-9.3a216.7 216.7 0 0 0-.8-5.7c-.2-2.1.4-.5.9 2.3l.6 2.7c.3.4.5 1.5 1 5.7.1 2 .4 3.8.4 3.9l1.6-.1c1.5-.1 1.5-.2 1.7-1 .2-1.2 0-7.7-.3-8.4-.1-.3 0-.5.2-.5.5 0 .8 2.4.8 6.7 0 2.7.1 3.1.5 3.1.8 0 1-2.1.8-5.7-.4-3.9-.4-3.6 0-3.5.2 0 .4.4.5.8.2.6.2.6.2-.1 0-.4 0-.7-.2-.7s-.3-.6-.3-1.2a11 11 0 0 0-1-4.2c-.2-.2-.3.3-.3 1.2 0 1.6-.2 2.4-.6 2.2v-1.8c.1-1.3 0-1.6-.2-1.4-.2.1-.6 0-1-.6l-.6-.7v.8c0 .5 0 1-.2 1.3-.3.9-.5.3-.4-1.9v-3c-.3-1-.8-.5-.9 1 0 2.1 0 2.2-.4 2-.2 0-.2-.6-.1-1.3l-.1-1.2c-.5 0-.6 1.2-.3 3.9l.1 2.7c-.3.4-.4-.6-.7-4.4-.1-2.3-.3-4.2-.4-4.3l-1-.4-1-.2.2 1-.1 1-.4-1c-.2-1.5-.3-1.8-1-2.5l-.5-.7.2 1.1-.1 1.3c-.3.2-.8-1-.8-1.7 0-1-1.6-3.8-3-5.3-.8-1-1.3-1.3-1.3-1 0 .3 0 .5-.2.5-.5 0-.3.4.5.8 1 .6 1.3 1.3.8 1.6-.3.1-.2.4.3 1.2 2.2 3.2 2.8 4.7 2.9 6.6l.1 1 .3 1 .3 3c.3 1.7.3 3.6 0 3.3l-.3-1.9a23 23 0 0 0-1-6c-.2 0-.2-.2 0-.3.3-.2-.2-2.4-.5-2.4-.2 0-.4-.3-.6-.8-.1-.4-.4-.8-.5-.8-.5 0-.5.9-.2 2.9.3 1.5.5 2 .8 2 .6.2.6.5 0 1-.3.5-.3.7 0 2.1.4 1.4.4 1.7 0 2-.4.4-.4 1 .1 2.5.4 1 .4 1.1 0 1.3-.4.3-.5 1.6-.1 1.6.1 0 .2.1.2.3 0 .3-.2.4-.6.3-.4 0-.7.1-.8.5 0 .3-.2.4-.5.3-.3-.1-.4-.6-.4-2.3 0-1.2.1-2 .3-1.7l.2 1.1c0 .8.4 1.7.6 1.4.5-.5 0-4.8-.6-5.5l-.8-1c-.2-.2-.6-1.4-.8-2.6-.6-2.6-.6-3.1-.3-2.9.2.1.3 0 .3-.2s-.2-.3-.8-.2c-.6 0-.8 0-1-.4 0-.3-.5-1.3-.9-2.3-.5-1-.7-1.9-.6-2l.2-.9c-.2-.8 1-.5 1.4.3.4.8.5.6 0-.3-.4-1-1.8-2.3-2.4-2.3-.3 0-1-.6-1.7-1.5a8.8 8.8 0 0 0-2.1-2 5.9 5.9 0 0 1-2.7-2.7c-.1-.4-.4-.6-.5-.5-.6.3-.2 1.2.8 2 .6.4 1 1 1 1.2 0 .2.4.5.8.7 1.4.7 3.3 3.3 3.9 5.2.2 1 .7 2 1 2.5.4.8.6 1.7.3 1.7-.4 0-1.7-.9-1.8-1.3-.1-.2-.6-.8-1.2-1.3-.7-.7-.9-.8-.7-.4l2.6 6.6c.3.5.9 3.8.6 3.8 0 0-.3-.6-.4-1.4l-.5-1.5c-.2 0-.4-.5-.6-1.1l-.3-1.1-.5.6c-.6.7-.8.7-.8 0 0-.9-1-4-1.4-4.1A15 15 0 0 1 107 12c0-.8-4.8-5.5-5.4-5.4-.3.1-1-.1-1.4-.4-2.5-1.7-2.6-1.7-1.3-.3 1.6 1.6 2.9 2.4 2.9 1.8 0-.6.3-.5 1 .2.4.5.5.7.2.7-.2.1.2.8 1.2 1.8 1 1.1 1.8 2.3 2.3 3.6a105.2 105.2 0 0 0 3.5 7.7c0 .7-.6.6-.9-.1-.1-.5-.4-.8-.6-.8-.3 0-.4-.3-.4-.9 0-1.2-1.8-4.7-2.4-4.7-.6 0-1-.9-1.7-3-.2-.8-.7-1.7-1-2-.5-.4-.5-.4-.3.4.2 1 .6 1.9 1.8 4a41.5 41.5 0 0 1 2.2 3.8c1 1.8 1.4 2.9.8 2.9-.2 0-.5-.4-.6-.8 0-.5-.2-.8-.3-.7 0 0 .2 1.9.7 4 1 5 1.2 6.5.9 6.5-.2 0-.4-.5-.5-1.1l-.2-1.2-.1 1.5c-.1 1 0 1.5.3 1.6.2.2.5.8.6 1.5 0 .7.2 1.4.4 1.6v.6c0 .2.2.9.6 1.4.7 1 1 3 .3 3-.2 0-.2.2 0 .3l.5.7c.5 1 .8.5.9-1.3 0-2.2.5-3 .6-1.2a86.6 86.6 0 0 1 .3 3.4c.4.6.7 0 .7-1.5 0-2 .5-1.5.6.7 0 1.5.1 1.8.6 1.8 1 .2 2 .7 2 1 0 .2.3.7.8 1.2.4.4.8 1 .8 1.2 0 .5.3 1.2.5 1.2s.3-.3.3-.6c0-.7.5-1.4.8-1v1.3c0 .9 0 1.1.2 1 .2 0 .5-.9.7-2zm-4.2-3.3c-.1-.2.3-3.3.5-3.5l.1 1.6c0 1.6-.3 2.5-.6 1.9zm-1.5-1.1c0-.8.4-1.3.7-.8.2.4-.1 1.6-.5 1.6l-.2-.8zm3.1.2c-.1-.5.1-3.4.3-3.3.3.2.3 3.3 0 3.5 0 0-.2 0-.3-.2zm1.2-2.3c0-2.4.4-2.6.4-.4 0 1.2 0 2-.2 2s-.3-.7-.2-1.6zm-4 0c0-.2 0-.3.2-.3s.2.1.2.3l-.3.2-.1-.2zm6.8-1.6c0-1.2.5-1.7.7-.7.2.8 0 1.5-.3 1.7-.3 0-.4-.3-.4-1zm1.6 0c0-.5.1-.8.3-.8.1 0 .2.3.2.8 0 .4 0 .8-.2.8s-.3-.4-.3-.8zm6.7-.3c0-.7-.1-2.8-.4-4.8-.5-3.2-.5-4.3 0-3.9l.6 3.4c.6 3.6.6 6.1 0 6.3-.2.1-.3-.1-.2-1zm-17.1-2.7-.3-4.7c-.3-1.8.1-1.1.6 1 .3 1.8.4 7.2 0 7.2l-.3-3.5zm3.5 1.2-.1-3.7c-.1-1.7 0-2.2.1-1.9.4.6.7 5.2.3 6.2-.2.7-.2.7-.3-.6zm-1.7-.1c-.2-.7-.4-5.3-.2-5.3.3 0 .9 2.6.9 4 0 1.2-.4 2-.7 1.3zm3-1.6c-.1-1.3 0-1.9.3-1.7.3.2.3 2.5 0 2.6 0 .1-.2-.3-.3-1zm-7.6-.4c0-.5 0-.9.2-.9.5 0 .2-3.6-.6-7v-.7c.5 0 2 7.7 1.6 8.2-.1.2-.3.2-.4.2-.2-.1-.3.1-.3.5l-.2.7c-.2 0-.3-.5-.3-1zm11.8.4c-.3-.8-.3-3.2-.1-3.2l.2.6c0 .4 0 1.1.2 1.8.1 1 0 1.5-.3.8zm1-1.9c0-1.2 0-1.6.4-1.4.4.2.4 2.5 0 2.5l-.3-1zm-4.6-4.7v-.8c.3 0 .4 1.4.2 1.5-.1 0-.2-.2-.2-.7zm-6 .1v-.1c.2.2.2.4 0 .5v-.4zm2.9-3a27.3 27.3 0 0 1-.7-4.2c-.2-.7-.2-.9 0-.7.6.6 1.3 3.9 1.2 5.2l-.2 1.2zm1.7.3c0-1.2.2-1.1.4.2.1.4 0 .8 0 .8-.2 0-.3-.5-.4-1zm6.7-1.5c0-.3 0-.4.2-.2v.5c-.1.1-.2 0-.2-.3zm-12.5-.4.3-.3c.2 0 .3.2.3.3 0 .2-.1.3-.3.3a.3.3 0 0 1-.3-.3zm5.3-.3c0-.1.2-.2.3 0 .2 0 .3.1.3.2l-.3.1c-.1 0-.3-.1-.3-.3zm6.7-1.1c0-.4.1-.7.2-.7.2 0 .3.3.3.7 0 .8-.4.8-.5 0zm1.8-1c0-.1.1-.2.3-.1l.2.3h-.2c-.2 0-.3 0-.3-.2zm-1.8-1c0-.4 0-.5.1-.4v.7l-.1-.3zm6.5 27c-.4-.4-1-.4-1 0 0 .2.8.5 1.2.3l-.2-.4zm-1.6-1.3c.5-.2.5-1.4-.1-1.3-.4 0-.5.3-.5 1.5v.7c.1-.4.4-.8.6-.9zm20.3-1.5c0-1.3-.3-2.5-.4-2.7-.5-.6-.8-.4-.7.5l.3 2.4c.2 2 .3 2.3.7 2.3.2 0 .3-.7.1-2.5zM25.6 44.7l-.4-2.5c0-1.5-.2-2-.4-1.6-.5 1.2-.1 4.6.5 4.6.2 0 .3-.2.3-.5zm125-.7c-.3-.8-.3-.8-.3.3 0 .6 0 1 .2.7.2-.1.2-.5 0-1zm-20 0 .4-1.5c0-.3 0-.5.2-.5s.3 0 .3-.2c0-.5-.8-.3-1 .2-.2.2-.4 1-.5 1.7-.2 1.5.3 1.7.7.2zm18.8-1c-.2-1.8-.5-2.6-.9-2.2-.2.2.5 4.1.8 4.1.2 0 .2-.7 0-1.9zm-20-.3c0-.7-.1-.7-.3-.3L129 44c0 .8 0 .8.2.2l.2-1.4zm-31.5 0c0-1-.2-1.8-.4-2.1-.5-.7-.5-1 0-1s1.3 1.3 1.1 2c-.1.3 0 .4.3.3l.7.1c.1.2.6.3 1.3.2 1-.2 1-.2.6.2l-.9.4c-.2 0-.3.1-.3.3 0 .2.3.2.8.1.9-.2.9-.2.4.4-.5.5-.5.5.1.4.4-.1.9-.4 1.2-.7.3-.3 1-.6 1.6-.8.6-.1 1.4-.6 1.8-.9.4-.3.8-.6 1-.6.2 0 1-2.4 1-3.6.2-1.9-1-5-1.7-4.8-.6.2-.7-.2-.3-1.3.6-1.7.5-4.3-.3-6.5s-1.4-3-2.7-3.6c-.7-.3-1-.3-1.3 0-.7.6-1.1 2-1.1 4.2s0 2.2 1.2 4c1.3 1.8 1.5 1.6.5-.5l-.6-1.6c0-.6.4-.4 1 .4.5 1 1 1.3 1 .6 0-.5.5-1 .7-.8l.3 2.5c.2 2.8 0 3.4-1 2.1l-.6-.7v.8c.2 1-.3 1.1-.7.1-.5-1.4-1.1-2.5-1.6-2.8-.8-.4-1.5-2.3-1.2-3 .1-.4.2-1 0-1.3 0-.4 0-1.4.2-2.3.2-1 .3-2 .2-2.4-.2-.6-.4-.7-1.1-.7-.6 0-1 .2-1 .4-.3.6-.7.5-.7-.1 0-.3.1-.6.3-.6.5 0 1.3-1 1-1.1-.8-.6-2.4 1.3-2.7 3.2-.2 1.4-.1 1.7.7 4 .6 1.5 1.2 3 1.5 3.4.7.8.5 1.2-.9 2.1-2.6 1.7-2.8 1.9-3.3 3.3l-.5 4V41l.9 1c.5.4 1 .7 1.2.7.3-.3.2-1.4-.2-1.6-.2 0-.2-.2.1-.4.6-.4.8-.3.8.3.2 1.8.8 3.1 1.4 3.1.2 0 .3-.5.2-1.5zm1.9-4.2c-.4-.4-.4-1.1 0-2 .5-.9 1-1 2.3-1a3 3 0 0 0 1.5-.5c1-.8 1.2-.2.4.9-.3.3-.6 1-.6 1.2 0 1.3-2.7 2.4-3.6 1.4zm2-1.8c0-.1 0-.2-.2-.2s-.2 0-.1.2c0 .2.2.3.2.3.1 0 .2-.1.2-.3zm-5.2-1.4c0-.1.3-.7.8-1.2.7-1 .7-1 .3-1.2-.4-.2-.4-.2.3-.8.8-.7 1.2-.8 1.2-.3 0 .3.2.3.5.2.9-.2.7.3-.9 1.9-1.3 1.3-2.2 1.9-2.2 1.4zm-90 3c-.1-.7-.2-.1-.2 1.2s0 1.8.1 1.1v-2.4zm142.2 1.4c0-.1-1-.3-2.2-.4-3-.3-13.4-.2-15.4 0-1.4.2-1.4.2 1 .4 4 .2 16.4.2 16.6 0zM44.4 38.5c0-.2 0-.5-.2-.6-.3-.1-.6.6-.4.8.3.3.6.2.6-.2zM76 37.3a50 50 0 0 0 1.8-12.9c.2-5.4.2-5.5-.3-6-.5-.4-.6-.4-.7 1v5c.2 2.2.2 3.6 0 4-.2.5-.4 2-.5 3.3-.2 1.4-.5 3.3-.8 4.2a6 6 0 0 0-.4 2c.2.7.6.4 1-.6zm1.7-1.1a36 36 0 0 1 1.3-6.8c.2-.2.2-1.2.1-2.8a19 19 0 0 1 .5-6.7c.2 0 .3 1.5.3 4.5 0 6.2.4 6.3.6.2l.2-4.7.4-.1c.2 0 .2.5.1 1.8-.1 1.7-.1 1.8.3.9.6-1.4.9-.7.7 1.6-.1 1.5-.3 2-.5 2s-.4-.1-.4-.4c0-.2 0-.4-.1-.3-.3.3.2 2.6.5 2.6.2 0 .5-.2.8-.5.4-.5.5-.9.3-2.4 0-1.8.1-2.5.5-1.8l.2 2.5c0 1.8 0 2.2.5 2.8l.5.6-.2-.7-.1-3.6c0-2.8 0-3-.5-3-.6 0-1.2-1.5-1-2.5.1-.4 0-1-.2-1.5-.4-.8-.6-.9-1.1-.8-.5 0-.6.2-.5.6 1 2.1.1 2-.9-.1-.4-1-.9-1.8-1-1.8-.2 0-.3.6-.3 1.3l-.1 7c-.2 5-.3 6-1 9.2l-1 4c0 .4 0 .5.4.4.4 0 .5-.4.7-1.5zM12 34.7c-.1-.1 0-2.6.2-5.5.5-7 .5-7.2 0-6.8-.3.3-.3-.1-.3-2.8a45 45 0 0 0-.6-9.5l-.4-4c-.2-2.6-.3-2.8-1.3-2.6l-2.1.3c-1.6 0-2.2.5-3 1.9-.5 1.2-.9 3.6-.6 5 .1.6.1 1.3 0 1.6 0 .2.1.6.4.8 1 .8 2.2 3.7 2.6 6 .4 2.3.8 3.2.6 1.1a132.8 132.8 0 0 1-.9-8.3c-.2-.7-.7-.6-.8.2-.2 1-.7.4-.8-.8-.1-1 0-1.2.5-1.5.4-.2.9-.3 1-.2.5.1 1 2.3 1.3 6.6.5 5.3.6 6 .8 6.1.2.1.4-.2.5-.7.2-.8.3-.6.3 1 0 1.1-.1 2-.3 2.2-.3.2-.3.4 0 .8.2.3.4 1.1.5 1.8.3 2.8 1.8 7.8 2.3 7.6v-.3zM9.3 12.6c.2-7.2.4-9.4.8-8.5.2.4-.5 16.2-.7 16.4a70 70 0 0 1 0-8zM7.4 6c-.2-1-.2-1.4 0-1.6.3-.3.7.5.8 2 .2 1.3-.4 1.1-.8-.4zm60.8 26.3a20 20 0 0 0 0-6.4c-.1 0-.2.6-.2 1.5 0 1-.1 1.5-.4 1.6-.5.2-.5 1.1 0 1.1s.7 1 .2 1.4c-.4.3-.5 1.8 0 1.8l.4-1zm25.4-.5c-.2-.3-.5-.8-.5-1.2-.1-.5-.2-.4-.2.3 0 .6.1 1 .4 1.2.6.5.8.3.3-.3zm1.8-4A11 11 0 0 0 95 24c-.3-.3-.3.2-.2 2l.2 4c0 .9 0 1.4.2 1.3.2 0 .3-1.5.2-3.6zm-1.2-.8c0-2.5-.2-4.5-.4-5.6l-.3-1.9c.1-.1 0-.8-.4-1.5l-1-2.4-1-2c-1.7-2.8-2.3-3.6-2.4-3.5l.8 1.4c.6.7 1 1.6 1.1 2l1.8 5c.9 2.3 1 3 1 4.5 0 2.9.3 8.2.5 8 .2 0 .3-1.9.3-4zm-8.7 2.8.2-3.8c0-1.7.1-3 .3-3.2.1 0 .2.8.2 2.5 0 1.9.1 2.5.3 2.2.2-.1.4-1.4.4-3.1 0-3.9.5-4 .6-.1 0 2.7.1 3 .6 3 .6 0 .6-.2.4-3-.4-5.7-.4-6-2.1-9a17 17 0 0 0-1.7-2.6c-.4 0-.8.6-.8 1.2 0 .4-.2.6-.4.6-.6 0-.5.4.2 1 .4.2.7.5.7.7 0 .3 0 .7.5 2 .3.6.2 1-.2 1-.2 0-.5-.5-.7-1.1-.5-1.3-2-3.5-2.1-3.3-.1.1.2 1 .7 1.8.7 1.5.9 2.1 1 3.8l.7.5c.6.3.6.3.4 2.6 0 1.5 0 2.5.2 2.7l.2 2.4c0 2.1.2 2.7.4 1.2zm1-9.8-.8-2c-1.2-2.5-1.6-3.7-1.3-4 .4-.1.6.2 1 1.3l1 2.3c.8 1.6.9 2.5.4 2.7-.1 0-.3 0-.3-.3zM69.8 24c0-3.8 0-6-.2-6s-.3.3-.3.6c0 1.2-.5.1-.6-1.2 0-1.3-.7-2.1-.7-1 0 .4-.2.6-.4.6-.3 0-.4-.3-.4-1 0-1-.4-1.4-1-.7-.2.3-.3.4-.3.2s-.1-.3-.3-.2c-.1 0-.3 1.2-.3 2.4 0 2.6.2 2.8.4.3a230.5 230.5 0 0 1 .3-2c.3.3.4 4.5.1 5.5-.2.9-.2 1.1.3 1.6.4.4.5.9.5 2 0 .7.2 1.5.3 1.6.3.1.3-1 .2-4.4 0-3 0-4.7.2-4.7s.3 1.2.3 3.3c0 1.8.2 3.5.4 3.6.1.2.2 0 .2-.6 0-.4.1-.8.3-.8.1 0 .2.9.2 2.2 0 2.7.3 5 .6 4.8.1-.1.2-2.8.2-6.1zm21.6 5-.1-4.1v-4.1c0-1-.9-4-1.4-4.8-.6-1-1-1-.5 0 .3.4.2.6-.3 1-.5.5-.6.9-.4 1.3l.3 5c.2 4.5.3 4.8.7 4.8.1 0 .2-1.5 0-3.7 0-2.5 0-3.7.2-3.7s.3 1.2.4 3.1c.3 4 .3 4.9.6 5.4.2.6.7.3.5-.3zm-1-8.5-.5-1.1c-.2-.4-.2-.7 0-1 .2 0 .5.2.8 1 .3.6.5 1.3.4 1.4-.2.3-.6.2-.8-.3zm2.5 6.1c0-1.9-.2-3-.4-3.1a2 2 0 0 1-.5-.7v3c0 3.5.2 4 .7 3.8.2 0 .3-1 .2-3zm3.5 1.3c-.2-.7-.4-.2-.2.6.2.6.2.7.3.3v-.9zm48.3-1.7c0-.6.2-1 .4-1.1.7-.3.4-2.2-.6-5-1-2.6-1.4-3.3-1.4-2.4 0 .3.1.7.3.7.3.3 1.4 3.7 1.3 4.3-.2.7-.6.3-.7-.6 0-1-.7-3-1.3-4.1-.6-1.3-1.7-5.2-1.4-5.4.1 0 .3.1.5.5.5 1.4.5 1.4.5.9 0-1.4-3-5.3-5-6.6-1.2-.7-1.2-.5-.1.8l.9 1.1 1 1.4c1 1.2 1 1.5.5 1.5-.2 0-1-.9-1.8-2a32 32 0 0 0-4.6-5.1l-.1.3c0 .5 2.2 3.3 2.6 3.3.2 0 .8.8 1.3 1.7.6 1.3 1.1 1.9 1.7 2.2.7.3 1.1.9 1.8 2.3 1.3 2.5 1.8 4.3 1.8 5.5 0 .5.4 1.8.8 3 .8 2 1 3.5.6 3.8-.2 0-.3.6-.3 1.1v1l.7-1c.3-.7.6-1.5.6-2zM67.1 28c0-.3-.1-.2-.2.1 0 .3.1.4.2.4V28zm4-.4v-5c0-3 .2-4.7.3-4.7.2 0 .3 1.1.3 2.8 0 3.1.2 4.7.6 4.6.4-.1.5-8.7.1-9.1-.4-.5-.7-.4-.8.2l-.4 1.2-.5 1.4c-.5 1.6-.4 10 .2 9.4l.2-.8zm-62.7-1C8 25.3 7 24.5 7 25.6c0 .9.5 1.9 1 1.9.3 0 .4-.2.3-.9zm50.4-.6a37.6 37.6 0 0 0 .4-4.7c0-.9.2-1 .4-.6.1.3.2.6 0 .8 0 .2 0 .4.2.4.1 0 .3-.5.3-1.2a601 601 0 0 1 .5-15c-.2.3-.3.8-.3 1.3 0 1.2-.3 2-.7 2-.2 0-.3.3-.3.9 0 .9-.4 1.4-.7.8l-.1.4c0 .4.1.9.4 1.2.2.3.3 1 .3 1.5s.2 1.2.4 1.6c.4.8 0 3.6-.7 4.7-.4.6-.5 1.4-.5 4-.1 3.5.2 4.5.4 1.9zm-2.4 1c.2-.2.3-3.2.2-4.4 0-.3.4-1.4 1-2.5 1.1-2.5 1.4-3.9 1-4.7-.3-.7-.5-.8-1.3-.2-.5.3-.7.7-.7 1.4a2 2 0 0 1-.7 1.6c-1 1-2.5 3.4-3 5-.4 1.3-.4 1.7-.1 2.4.2.5.5.8.8.8.3 0 .6.1.8.3.4.4 1.8.6 2 .3zm5.2-.3.2-.5s-.3.2-.4.5l-.2.5s.3-.2.4-.5zM60 25c0-.7.2-1 .4-1 .3 0 .5.2.5.4l.2-.2.3-2.7c0-1.7 0-2.3.4-2.4.3-.2.4-1 .6-3.2.3-3 .6-5 1.1-6.2.3-.6.2-.8 0-1.2-.4-.4-.4-.3-.6.1l-.2 1.2c0 .6-.6 1.4-.8 1.1L62 9l.3-2.6c0-.7 0-.7-.4-.3-.6.6-1 5-.4 5.6.3.3.3.8 0 2 0 .8-.3 2.5-.5 3.9-.5 4.5-.6 5-1 5-.4-.1-.5.3-.5 2 0 1.5 0 2 .2 1.8L60 25zm82.8-1c-.3-1.2-.7-2-.8-2-.3 0-.2.1.3 2 .6 1.8.8 2.3 1 2 0 0-.1-1-.5-2zm-80.3.9c-.1-.2-.6.5-.6.9 0 .1.2 0 .4-.3l.2-.6zM76 21.4c.1-4.1.2-4.9.6-4.6.2.1.2 0 .1-.6-.1-.5 0-.8.2-1 .4-.2.3-.3-.6-.5-.6-.2-.8 0-1 .5a30 30 0 0 0 0 4c0 4.2 0 4.3-.3 4.3-.4 0-.5-6.6-.1-8.8.3-2 .3-3.1-.2-3.1-.2 0-.3.3-.4 1.7l-.4 1.2c-.3.5-.4 1.7-.3 5.2 0 4 0 4.5.6 5 .4.4.5.4.9.1.3-.2.4-.2.6.1a50.2 50.2 0 0 0 .4-3.6zm30.8 1.7-.9-3.6c-.6-2.5-1.3-4-1.7-4-.2 0-.5-.2-.6-.5a50.3 50.3 0 0 1-2-5c-.4 0 0 2.5.6 3 .3.3.8 1.4 1.2 2.4l1.3 3c.4.5.8 1.8 1 2.7.3 1.8 1.3 4.3 1.5 3.8 0-.1-.1-1-.4-1.8zm-25.6.9c0-.2-.1-.2-.1.1 0 .3 0 .5.1.4V24zm37.9-.7-.4-2c-.1-1-.1-1 .3-.9.6.2.5-.5-.3-3.2-.7-2.7-.9-2.9-1.7-2.4-.3.3-.4.5-.2.6.4.3.3.7-.3.6-.3-.1-.5 0-.5.1 0 .2.2.4.5.4.5.2.8.7 1.4 3 .3 1 .4 1.5.2 1.8-.4.4-.1 2.5.3 2.8.7.4.8.2.7-.8zm14.5-1c-.1-1.5-.7-2.8-1-2.6-.4.2.4 3.8.9 3.8.2 0 .2-.4.1-1.3zm-70.5 0 .2-3.3c0-2.4 0-2.4-.3-1-.1.7-.4 1.7-.6 2-.2.3-.4 1.2-.4 2 0 1 0 1.3.5 1.2.2 0 .5-.4.6-.9zm32.2-.2.2-1.1c.1-.5 0-.6-.4-.7-.6-.2-.7.1-.4 1.6.2 1 .6 1.1.6.2zm-2.5-.6c0-.3-.2-.6-.3-.6v.9l.4.6v-.9zm-64.7.3.7-.4.9-.1c.7-.3.8-1.8 0-1.6-.3.1-.4-.2-.4-3.5 0-2-.2-4-.3-4.3-.3-.7-.3-.7-.3.3 0 .6-.2 1-.4 1.1-.3.2-.4.9-.2 3.9 0 2.4 0 3.7-.2 3.7-.4 0-.7-8.2-.3-8.6.3-.3.4-3.3.1-4.3 0-.4-.3-.6-.5-.6s-.4-.5-.5-1l-.2-1-.2 1.1c-.2 1.2 0 9.9.4 13.6.2 2.2.3 2.4 1.4 1.7zm36.6-1V15c0-1-.1-2.2-.3-2.5-.2-.5-.5 2.6-.5 5.9 0 3.6 0 4 .4 3.8.4 0 .5-.3.4-1.2zm-58.2-.3c0-.5-.3-1.1-.5-1.5-.2-.4-.4-1.2-.4-1.7 0-1-.8-3-1.3-3-.4 0-.3 2.3.3 3.4L5 19l.4 1.4c.5 1 1.1 1 1 0zm98.4 0-1.2-2.8c-1-2.1-1.2-2.4-1.2-1.7 0 .5.2 1.5.5 2.2.6 1.5.5 2.1-.1 1.2l-1-2.2c-1-2.5-1.3-2.8-1.1-1.2 0 .7.4 1.7.8 2.3l.6 1.2c0 .2.5.5 1.1.8 1.4.6 1.6.7 1.6.2zm-73-8c0-5 0-8 .2-8s.6 4.7.6 7.2v8.6l.8-.2a17 17 0 0 1 2.9-.5l2.3-.4c.2-.3.4-12.9.2-12.9l-.9.3c-.6.2-.7.3-.6 1.8.1 2.5 0 3.2-.4 3.2s-.4-.4-.3-3.6c.2-2.6.2-3.5 0-3.5-.4 0-.5 2.4-.4 7.6.1 3.5 0 5.3-.4 5.3l-.3-3.5c0-2-.1-3.8-.3-4.2-.2-.5-.3-.4-.3 1.2a46.5 46.5 0 0 1-.5 5.9c-.3 2.7-.2 2.5-.5 2.5-.4 0-.3-7.1.1-8.5.3-.7.4-2 .4-3.2l.1-2c.2 0 .3.2.4.6.1 1 .5.4.5-.9V4.1L32.8 4h-2.6v3.3a206.8 206.8 0 0 1-.1 9.3c.1-.3.3-.6.5-.7.3 0 .3.4.3 1.6 0 1.7.4 3 .8 3.1v-8zm5 5.5c0-1.4.3-2.3.6-1.6.3.7 0 2.7-.3 2.8-.2 0-.3-.3-.3-1.2zm.7-3.4v-1.2c.2-.6.3-1.9.3-2.8 0-1.6.3-2.3.7-1.5l-.1 2.8c-.3 2.3-.5 3-.9 2.7zM111 19c-.8-2.4-2.8-6-2.8-5l.2.5c.2 0 .4.5.4 1 .1.6.4 1 .6 1.1.2.1.5.6.7 1.1.5 1.7 1 2.8 1.2 2.7 0-.1 0-.7-.3-1.4zm-15.2-.6-.6-2.9a19 19 0 0 1-.5-3c0-1-.3-1.4-2-3.5a2109.2 2109.2 0 0 0 1.3 3.6c.4.6.5.8.2 1.3-.2.5-.1 1.2.4 3.1 1 3.4 1 3.4 1.2 2.8a3 3 0 0 0 0-1.4zm38 1.3c0-.3-.1-.7-.3-1-.2-.2-.4-.6-.4-.9 0-.3-.1-.6-.3-.7-.5-.3-.3 1 .3 2 .7 1.2.8 1.2.8.6zm-5.9-.2-.1-1c0-.4-.2-1-.5-1.3-.5-.6-.5-.6-.1 1 .2 1 .5 1.7.6 1.7.2 0 .2-.2.1-.4zm-81.8 0a136.1 136.1 0 0 0 .3-6.7l.5.1c.3.1.4.5.3 1.7L47 16l.6-.5c.5-.5.5-.8.5-2.4 0-1.5.2-2 .6-2.6l.5-.6V11c-.1.8 0 1.2.2 1.1.1 0 .4.2.5.7 0 .6.3.8 1 1h.9c.3-.4.4-4 0-4.7-.5-1.3-.7-.9-.7 1.5 0 1.3-.2 2.3-.3 2.4h-.4c-.2-.2-.2-2.7 0-3.3.2-.7-.6-1.2-1-.6-.2.4-.2.4-.5 0l-.2-.8a3 3 0 0 0-.4-1l-.3-.6-.2.8-.2 2.3c0 1.2 0 1.5-.5 1.7-.7.4-1 .2-.6-.4.4-.4.7-4.7.5-6.3-.2-1.2-.2-1.2-1.1-1.2-.9 0-1 0-1 .8 0 .5.2 1 .3 1.3.2.3.3 0 .3-.7 0-1 .1-1.2.4-1.2.4 0 .5.4.3 3.8-.1 2.7-.3 3.9-.6 4.4-.4.5-.4 1-.2 3.5.1 2.4.1 3-.2 2.8-.2 0-.4-.7-.5-1.8-.1-1.7-.2-1.7-.5-.9l-.5 2c0 .7-.3 1.3-.4 1.3-.5 0 1.2.5 2 .5h.8zm-5.8-.3c.4-.1.4-.2.1-.5a80.5 80.5 0 0 0 .2-7.9l.3-6s.2 0 .4.3c.2.2.2 1.8.1 4v4.1c.5.6 1.4-2.8 1.4-5 0-1.2.1-2.2.2-2.3 0-.2 0-.3-.4-.3-.3 0-.5-.3-.7-.8-.2-.8-.4-.9-1.1-.9l-1 .2s-.2 3.3-.2 7.3c0 5.3-.2 7.3-.4 7.6-.3.3-.3.4.2.4l1-.2zm2.4-1-.3-3-.1-1.8-.5 1.3c-.8 2-.6 3.8.4 4.5.5.3.6.2.5-1zm58 .3-.4-.5-.7-1.4-.6-1v1c0 .8.1 1.1 1 1.9.5.5 1 .7 1 .6 0-.2 0-.4-.3-.6zm-87-3.9.4-3.8c0-.1-.1-.3-.3-.3-.2-.1-.3.2-.3 1.2s-.1 1.3-.4 1.3c-.3 0-.4.6-.4 3.1 0 3.9.3 3.4 1-1.5zm80.2 2.3-.5-3c0-.5-.4-1.3-1-2.3-1.2-1.5-1.9-2.1-1-.8l.8 1.3c.4.5.4.7.2 1-.4.4.1 2.3 1 3.8l.6 1.5.3.7c0-.1 0-1.1-.4-2.2zm3.3 1c.3-.5-1-5-1.4-5-.4-.2-.4.6 0 2.5l.6 2.2c.2.8.6 1 .8.4zm-19.3-1c-.1-.4-.2-.7-.3-.6v.8c.2.4.3.7.4.6l-.1-.8zM71.4 15c0-.8-.5-.8-1-.2-.8 1-1 .4-.4-.8.4-.6.5-1 .4-1.3-.4-.6-1 .1-1 1 0 .5-.2.8-.2.7l-.2-1.6a6 6 0 0 0 0-1.5c-.5 0-1 .4-1 .8 0 .3-.2.6-.3.7-.3 0-.2.2.2.5.3.3.6.7.6 1l.8 1.1c.4.4.8 1 .8 1.2 0 1 .4.8.8-.2.3-.5.5-1.2.5-1.4zm63 1.7c0-.2-.1-.3-.3-.3-.1 0-.2.2-.2.5s0 .5.2.4c.2-.1.3-.3.3-.6zm-8.5 0c0-.3 0-.6-.2-.8-.2-.1-.4-1-.4-2-.2-1.8-.5-2.3-1.2-2.3-.4 0-.8-.5-1.4-1.7-.4-.9-1.3-2.2-1.8-3-1.3-1.8-1.5-2.1-.9-2.2.4-.1.4-.3-.4-1-.5-.4-1-.8-1.2-.8-.2 0 0 .3.5.6.4.4.7.8.6.9-.3.4-1.3 0-2-.8-.4-.4-.9-.7-1.3-.7h-.7l.6.6 1 .7c.4 0 .4 0 .1.2-.4.3-.5.3.9 1 .8.6 1.3 1.2.8 1.2s-2.2-1.2-3-2c-.9-1-2.4-2-2.4-1.6l.3.7.5 1c.1.2.5.4.8.4.8 0 3 1.8 4 3.1.3.5.5 1 .4 1.3-.1.4.1 1 .7 1.7l1.2 1.7c.2.3.5.6.7.6.3 0 .4-.2.2-.6-.3-1-.8-2.2-1.5-3.4-.9-1.3-.5-1.4.5-.1.8 1 2 4 2 4.9l.4 1 1 1.2c.5.8 1.2.9 1.2.2zm-70.2-.5c.4-.6.5-1.3.4-4.3 0-2-.2-3.6-.3-3.7-.1 0-.3-.3-.3-.5 0-.3-.1 0-.2.5a4 4 0 0 0-.1 1.5l-.1.6c-.2 0-.3-.3-.3-.7 0-.9-.3-2.2-.5-2.2-.1 0-.3 2.1-.3 4.7V17h.6c.4 0 .8-.3 1.1-.7zm-1-2.2c0-2.6.6-3 .6-.4v2c.1.2 0 .4-.2.4-.3.1-.3-.4-.3-2zm33.8 1.7c0-.4-.3-.7-.4-.7-.4 0-.5.9-.2 1.4.3.7.8.2.6-.7zm9.4-1.9a11 11 0 0 1-.2-2.4c.3-.3.7.3.7 1s1.3 3 1.5 2.8l-.1-1.1c-.5-1.7-.5-3.6-.1-3.8.2 0 .3.2.3.8 0 1.4.2 1.7.8 2.4l.6.6-.2-.7a13 13 0 0 1-.5-3.7c.2-.4-.8-1.8-2.3-3.3-2-2-3.4-2.7-1.6-.9 2 2 3 3.2 3 3.6 0 .5-.8.5-1 0-.1-.6-1.9-2.4-3.7-4.1-1.2-1-.9-.6 1.1 1.8 1.5 1.8 2.1 2.9 1.7 3.3 0 .1-.6-.5-1.2-1.4-1-1.5-1.6-2.3-1.9-2l.8 1.2c.6.6 1 1.3.8 1.5 0 .2.1.8.4 1.3.5.7.5 1 .3 1.4-.3.4-.3.8.2 2.3l.6 2.2c0 .4 0 .4.2 0 0-.3 0-1.6-.2-2.8zm17.4 2c-.2-.6-.7-1.3-.7-1 0 .5.6 1.8.8 1.8v-.8zm-95.5-.6c0-.7 0-.7-.2-.3-.3.7-.3 1.5 0 1.3l.2-1zm111.4-.8c-.8-1.5-1.3-1.7-1.3-.7 0 .3.1.5.3.5l1 1.2c1 1.6 1 .7 0-1zm-87-2.5c0-2.8-.4-5.4-.6-4.8a63 63 0 0 0-.3 8.9c.4.3.8-1.8.8-4.1zm89 3.5c-.1-.4-.3-.6-.4-.6-.2 0-.2 0-.2.2l.3.7c.2.6.5.4.3-.3zm-53-2.4c-.5-.5-.6-.7-.3-1l.2-.4c-.1 0-.4 0-.6-.2-.6-.2-.5.5.2 1.7.4.7.5 1 .3 1.4-.2.2-.2.6-.2.8.1.2.4 0 .7-.7l.5-1zm46.6.5-1-1.5c0-.4-.3-.8-.5-1-.3-.2-.4-.1-.2.4 0 .3.3.8.5 1l.8 1.6c.7 1.5 1 1.8 1 1 .1-.3-.2-1-.6-1.5zm-73.4.3c0-.6 0-.9-.4-.9-.6 0-.7.7-.3 1.6.3 1 .7.6.7-.7zm10 .5-.1.3c0 .5 0 .7.1.5v-.8zm9.7-.9c-.5-.4-.7.4-.5 1.3l.2.7.3-.8c.2-.7.2-1 0-1.2zm71.8.2c-.1-.6-.4-1.4-.6-1.6-.4-.5-.4-.5-.2.3.2 1.2.7 2.8.8 2.6v-1.3zM111 14c-.2-.4-.4-1-.3-1.3.1-.5 0-.8-.6-1.4-.8-.7-.9-.7-1.2-.3-.3.4-.3.4-.9 0-.3-.2-.6-.6-.6-.8 0-.2-.6-.9-1.4-1.6-.8-.6-1.4-1.3-1.3-1.5 0-.2-.2-.5-.7-.6l-.8-.2c0 .1.7 1 1.7 2 1 .9 2.2 2.3 2.7 3.1.6.9 1.2 1.5 1.6 1.6.3 0 .9.5 1.3 1 .8 1 1.2 1 .5 0zm-53.4.2c1-.5 1-.7.5-1.2-.5-.4-.6-4.5-.2-4.5.2 0 .3.5.3 1 0 1 .4 1 .4 0l.2-2.9c.2-1.8.2-2.3 0-2.3-.3 0-.3.2-.2.7 0 .4 0 .6-.2.6-.3 0-.5.3-.5.7-.1 1.1-.8 1.1-.8 0 0-1-.2-1.7-.5-1.7s-.5 1-.3 1.7c.2.3.3 2.3.3 4.4 0 2.2.1 4 .2 4l.8-.5zm32.6 0-1-1.9c-.6-.8-1.1-1.8-1.1-2.1l-.3-.9a75 75 0 0 1-2.6-2 7 7 0 0 0 1.5 2.1c.2.1.3.4.3.6 0 .8-.8.3-2-1.2-.9-1.2-1.3-1.5-1.4-1.2 0 .2.4 1 1 1.5l1.6 2c.7.9 1.2 1 1.5.5.1-.3.3-.2 1.5 1.8.8 1.3 1 1.5 1 .8zM79.1 14c0-.4-.8-1.2-1.2-1.2-.3 0-.2.2.2.8.6.8 1 1 1 .4zm27 .2-.5-.8c-.6-.8-.7-.7-.3.3.2.6.8 1 .8.5zm11.7-.3c.3-.6-.5-2-1.1-2-.3 0-.6-.2-.8-.7l-1.8-2.3-1.7-2.1a5 5 0 0 0-1.4-1.4 5.5 5.5 0 0 1-1.6-1.4c-.1-.4-.5-.7-.8-.7-.6-.1-1-.5 3.1 3.8 3.5 3.6 4 4.3 3.8 4.8 0 .3.2.9.8 1.5 1 1 1.3 1.2 1.5.5zm-40.8 0c0-.4-.5-.7-.7-.5-.2.2.1.7.4.7.2 0 .3-.1.3-.3zm54.6-1c-.6-1-1-.8-.3.3.3.5.6.8.7.7 0-.2-.1-.7-.4-1zm-82.5.3c0-.2-.1-.1-.1.2 0 .3 0 .4.1.3v-.5zm23 0c.3-.7 0-.8-.4-.2-.2.4-.2.6 0 .6.1 0 .3-.2.4-.5zm1.8-1.8c.1-.6 0-.8-.2-.8-.3 0-.4.3-.4 1 0 1 .3 1 .6-.2zm3.2.6-.5-.8c-.4-.5-.7.2-.4.8.4.6 1 .7.9 0zm8.9 0c-.2-.3-.4-.6-.6-.6v.6c.2.3.5.5.6.5.2 0 .2-.2 0-.5zm-40.6-2c.1-1 0-1.7-.3-2.4-.2-.6-.5-1-.5-.9-.2.2.2 5 .4 4.9l.4-1.6zm19.3.5c-.3-.4-1 .1-1 .7v.6l.6-.6c.4-.3.5-.6.4-.7zm31.2.4c-.2-.6-1.2-1.8-1.5-1.8-.4 0-.2.5.6 1.6.9 1 1.2 1.1 1 .2zm-42.5-.6c0-1.1-.3-2-.6-1.7-.2.1.3 2.8.5 2.8l.1-1zm-32.2.3-.3-.2c-.2 0-.3.2-.3.4s.1.3.3.2c.1 0 .3-.2.3-.4zm2.2-3.3c-.2-2.6-.3-3-.6-3-.4.1-.4.5-.4 3.3l.3 3.4c0 .1.3 0 .5-.2.3-.3.4-.9.2-3.5zm60 3c-.6-.3-.7 0-.3.5.2.3.4.3.5.1 0-.2-.1-.4-.3-.5zm-17.6-.9c-.4-1.4-.6-1.6-.9-.9 0 .4 0 .8.3 1 .2.3.4.7.4 1 0 .4 0 .4.3.2.2-.2.2-.5 0-1.3zm2 .5c.2-.6.4-1.3.3-1.5-.1-.2 0-.5.3-.6.2 0 .3-.2.2-.4-.2-.4-.9.1-.9.8 0 .4-.2.7-.5.8-.4 0-.5.3-.5 1 0 1.2.4 1.1 1-.1zm7.9.8c0-.2-.2-.4-.3-.5-.2 0-.3 0-.3.3 0 .2.1.4.3.4l.3-.2zm-5.5-1c-.3-.2-.4 0-.4.4 0 .5.1.6.4.3.2-.2.2-.4 0-.6zm7 0c-.3-.4-.8-.8-1.1-.9-.4-.1-.7-.5-.8-1-.1-.6-.4-1-1-1.3l-.8-.4 1.1 1.7c1 1.5 2.6 3 2.9 2.7l-.4-.8zm-4.3.3c.1-.5 0-1-.4-1-.2 0-.3.4-.3.7 0 .8.4.9.7.3zm40.2.2c.1-.3-1.1-1.6-1.3-1.4v.9c.4.7 1 1 1.3.5zM12.6 9l-.1.4c0 .3 0 .5.1.3v-.6zm16.9 0v-3c-.3-2.2-.3-2.3-1-2.5-1.2-.3-1.7 0-1.6.7 0 .4.3.7.4.7.1 0 .2-.2 0-.5 0-.3 0-.6.2-.7h.3a37.3 37.3 0 0 0 .4 3.5c0 1.1.2 2.1.3 2.3.2.5.8.2 1-.5zm87-.2c0-.7-.2-1-.6-1a11 11 0 0 1-3-3.8c0-.5-.9-1-1.6-1-.5.2-.5.2.3.7.5.3.8.7.8 1 0 .4.4 1 .8 1.4.5.4.8.9.8 1 0 .4 1.9 2.5 2.2 2.5l.2-.8zm-41.9.4c0-.4-1-1.5-1.2-1.4-.2.2.6 1.6 1 1.6l.2-.2zM13.9 5.7V8 5.8zm75.7 2.2c-.3-.3-.6-.5-.7-.4 0 0 .1.4.4.7l.6.4c0-.1 0-.4-.3-.7zm28.7.7-.4-.4c-.4-.3-.4-.3-.3 0 .2.4.7.7.7.4zm-98-1.4c0-.5 0-.6-.2-.4-.4.7-.6 1.8-.3 1.5l.4-1zm60.2.8c0-.2-.3-.4-.6-.4s-.3.1.1.4c.7.5.7.5.5 0zm-30-1.2c-.1-1.7-.8-1.8-.8-.1L50 8c.4.4.6 0 .6-1.2zm16.2 1c0-.5-.5-1.1-.7-1-.2.3.1 1.4.4 1.4.2 0 .3-.2.3-.4zm5.8-.3c.2-.4.3-.7.2-.8-.3-.3-1.4.8-1.2 1.2.3.4.6.3 1-.4zm-47.2-.4c.1 0 .2 0 .3-.2 0-.1-.2-.3-.5-.4-.4-.1-.5-.4-.5-1.2 0-.6-.1-1.2-.3-1.2-.1-.1-.2.5-.2 1.8v2l.5-.4c.3-.3.7-.5.7-.4zM64.4 7c0-.5-.8-1.2-1-1l-.3 1c-.2.8-.2.9.6.7.4-.2.7-.4.7-.7zm45.3-1c-1.7-1.7-3.5-3-3.7-2.8a36 36 0 0 0 5.2 4.7c.1 0-.5-.8-1.5-1.9zM18 5.7c.4-1.5.4-2.2-.1-2l-.4 1.4-.3 1.9c-.3 1.3.3.4.8-1.3zm34 1.5c0-.3-.1-.7-.3-.8-.2-.3-.2-.5 0-1s.2-.7 0-.8h-.6c-.2.3-.2 2 .1 2.5.4.7.8.7.8 0zM70.8 7c0-.1 0-.3-.2-.3l-.2.3v.3l.4-.3zm45.9-.2c0-.2-.3-.5-.7-.7-.7-.5-.9-.3-.2.4.5.5.9.7.9.3zm-39.2-.4c0-.4-.5-1-1-1-.4 0-.4.6 0 1s1 .4 1 0zm-10.1-.3-.6-.4c-.4 0-.5 0-.2.3.5.6 1 .6.8.1zm22.3 0c0-.6-.8-1.5-1.2-1.5-.6 0-.5 1 .2 1.4.8.6 1 .6 1 0zm-40.5-.5c0-.7-.4-1.2-.7-.9-.2.2.1 1.5.4 1.5.2 0 .3-.3.3-.6zm16.4-.3c0-.3-1.3-.8-1.6-.5 0 0 .2.4.5.6.7.6 1.1.5 1.1-.1zm-11.4-.2c-.1-.6-.9-1.2-1.2-1-.1.2 0 .6.1 1 .4.7 1.2.8 1 0zm39.3-.4c-.4-.4-.9-1-1-1.3-.2-.2-.5-.4-.6-.3-.2.1.1.6 1 1.4a5 5 0 0 0 1.2 1l-.6-.8zM148 5c-.2-.3-.6-.5-.8-.5-.2 0-.4-.2-.5-.4-.1-.2-.7-.6-1.4-.9l-1.5-.6c-.3-.3-1.7-.3-1.8 0-.2.2 2.2 1.3 2.9 1.3l1.6.8c1.5 1 2.3 1.1 1.5.3zM43 4.3c-.3-.3-.4 0-.2.6.2.5.2.5.3 0v-.6zm39.2.5-.8-.3c-.2 0 0 .1.2.4l.8.3-.2-.4zm20.4-.2a3 3 0 0 0-1-.4c-.5 0 .8.7 1.3.7.2 0 .1-.1-.3-.3zM61.1 4c-.3-.3-.6 0-.4.3.1.2.3.3.4.2.2-.1.2-.3 0-.5zm1.4.5c.6-.2.6-1 0-1-.2 0-.3.1-.3.2l-.2.5c-.2.5 0 .5.5.3zm-24.4-.3s-.1-.2-.3-.2c-.1-.1-.2 0-.2 0 0 .2 0 .4.2.4s.3-.1.3-.2zM69.2 4c-.2-.2-.5-.4-.6-.3-.2.3.2.8.7.8.4 0 .4 0 0-.5zm-57.6-.3c-.5-.4-.8-.4-.8 0l.6.2c.5 0 .6 0 .2-.2zm92.8-.3-.6-.3c-.2 0-.3.2-.2.3 0 .1.3.3.5.3.3 0 .4-.2.3-.3zm22.7-.5c0-.2-.3-.3-.6-.3-.4 0-.4 0 0 .4.6.4 1 .4.6-.1z"/>
</svg>
