<?xml version="1.0" encoding="utf-8"?>
<svg xmlns="http://www.w3.org/2000/svg" xmlns:svg="http://www.w3.org/2000/svg" version="1.1" viewBox="0 0 161 135">
  <title>Peter Rabbit stands with his ears pricked up in a field between two stands of trees.</title>
  <path d="m54.5 134.6-15.8-.1H15.6c-6.4 0-9.4 0-10-.2l-1.4-.5c-.4 0-1.3-.7-2-1.4L.6 131l-.1-8.7c0-4.8-.2-9.4-.3-10.2v-10.8c.3-10 .2-26 0-50.3V30.3C.2 20.1.2 7 0 4.3-.1 1.8-.1 1.7.7.9l.7-.9 8.3.1 26.7.6c2 .2 2.3.2 2.5.8.2.7.8.7.8 0 0-.5 7.8-.9 9-.4.6.3 2.7.3 10.2 0a116 116 0 0 1 13.7 0c5.2.3 42.2.4 47.5 0l20.5-.2h17l1 .7c.5.3 1 .9 1 1.2.2.3.2 8.1.2 17.3a3117.2 3117.2 0 0 0 .4 72.8c0 7.5-.3 20.2-.6 25.4-.2 3.8 0 6.5.2 6.6.2.2.2.4 0 .8-.3.5-.3.6 0 .7.1.1.3.5.2.9 0 .5 0 .6-.2.3-.2-.4-.3-.3-.3.2 0 .3.1.5.3.4.2-.1.5 1.1.5 2.2 0 .8-1.5 3.4-2 3.8-.7.3-10.4.5-20.6.5H87.4a1186.2 1186.2 0 0 0-33 0zm8.6-1.8c.3-.4 0-.5-.4 0-.2.2-.2.3 0 .3l.4-.3zm-11.8-2c16.2 0 43.2-.3 43.4-.5l12.4.2a849 849 0 0 0 23.3.2c8.1.1 21.3 0 21.6-.2.2 0 1.2-1 2.1-1.9 1.3-1.2 1.7-1.9 1.9-2.6l.4-2.1c.2-.8.3-3.9.2-9.2a694.2 694.2 0 0 1 0-31.5l.2-10a69.8 69.8 0 0 0-.7-16c0-.2-.4-.3-1-.3-.7 0-1.1 0-1.1-.2 0-.3.5-.5 2-.7h-1.7c-1.4-.1-2.4-.2-2.3-.3 0-.1 1-.4 2-.5l2-.3H153c-1.6 0-2.8-.2-2.8-.3 0-.3 2.8-.6 4.7-.4 1.1.1 1.6 0 1.6-.1 0-.3-1.3-.4-4.5-.4-3.5 0-4.5 0-4.3-.3.2-.1 1.6-.3 3.6-.4 1.8 0 3.3-.2 3.4-.2h-4.6l-4.8-.1c-.3-.4 1.5-.5 6.4-.6 6.7 0 5-.4-2.9-.6-5.8-.2-7.9-.4-7.9-1 0 0 .4-.2 1-.2.7 0 .9 0 .6-.3l-1.7-.2c-.7 0-1.2-.1-1.2-.3 0-.3 2.9-.5 3.6-.3a66.5 66.5 0 0 0 12.2-.2c-.4-.4-1.4-.4-9.4-.5a72.3 72.3 0 0 1-10.7-.5c-2.6.5-3 .5-3.2.2-.3-.4.3-.6 2.3-.8l1.9-.2H134c-1.5 0-2.8 0-3.4.3-1.3.5-3.3.5-3.5.2 0-.2-1.1-.3-2.4-.3-1.2 0-2.3-.1-2.4-.3l-2-.2c-1.4 0-2-.1-2.3-.4-.2-.2-.7-.4-1.2-.4-.4 0-1-.2-1.1-.3-.2-.2-1-.3-2-.3h-2.4c-.5-.3-.5-.3 0-.6.4-.4.3-.4-1-.3-1.1 0-1.7 0-1.8-.3 0-.2.2-.4.7-.4l-1.2-.2c-2 0-2.5-.3-1.1-.6l4.8-.2c2.5 0 3.9 0 3.8-.3-.2-.2-7.9-.1-11 .2-1 .1-1.6 0-1.7-.1-.4-.6 1-.9 3.6-.9 3.6 0 3.6 0 3-.3-.3-.2-1.9-.3-4.3-.2-2.3 0-3.8 0-4-.2 0-.2-.7-.3-1.5-.3-1.3 0-1.5-.1-1.6-.5-.2-.5-2-1-2.2-.6 0 .2-.4.7-.7 1.2-.8 1.1-.8 1.8-.3 5.3a417.6 417.6 0 0 1 1 5.1c.2.2.2.4 0 .7-.4.4-.4 3.5 0 4.2.3.3.5 1.3.6 2.2a11 11 0 0 0 2.2 5.8l1.3 1.5c.3.5.4.5 1 .1.3-.2 2.5-.6 6.1-1 6.2-.5 6.8-.6 6.8-1.1 0-.5 1.2-.7 5.5-.7 2.1 0 4.1 0 4.4-.2 1-.2.7-.6-.5-.6-1.3 0-1.9-.4-1.1-.7.2 0 3.4 0 7 .3 5.1.4 6.5.4 6.8.1.3-.2.4-.2.6 0l1 .4c.6 0 1 .2.9.3-.2.3-5 .4-8.4.2-.9 0-2.6 0-4 .3a68 68 0 0 1-5.5.7c-1.7.1-3.4.4-3.8.5-1 .4-7.5 1.3-11.3 1.6-3.2.3-4.9.5-4.9.7l1 2.2a15 15 0 0 1 1.8 5.5c.1.8.6 2.3 1 3.2.8 1.7.8 1.7.6 5 0 1.9-.2 3.7-.3 4.1-.2.7 0 .8.9 1.2 1.3.5 2.6 1.7 2.5 2.2 0 .3 0 .6.2.6l.3.7c0 .5.2.6 1.5.6 2.1 0 2.3 0 2.6.3h1.4c.5-.3 1.3-.5 1.7-.6.8-.3 1.2 0 .6.5l-1.2.4-1.6.6c-.5.3-.6.3-1 0-.2-.4-.5-.5-2-.4l-2 .2-.5 1.2c-1 2-3.4 4.3-5.4 5.2-1.8.9-3.1 2-3.1 2.6 0 .2.1.3.6.1l1.9-.3c1.2-.1 1.2 0 1 .3-.3.2-.7.4-1.1.4-.4 0-.9.1-1 .3-.1.1-.6.3-1 .3-.6 0-.8 0-.8-.3 0-.4-.2-.5-1.7-.4-.9 0-1.8.2-2 .3-.1.2-.7.4-1.2.4s-1 .1-1.2.3c-.3.3-.7.3-1.5.2H88c-3.6.5-6 .2-7.5-.9-.4-.2-.5-.2-.8.2-.6.7-2.9.6-3.4-.2-.3-.5-.5-.5-1.2-.2-1 .4-6 .6-6.3.3-.3-.5 0-.6 1.8-.8 2.6-.2 1.2-.7-2.2-.8-2.4 0-2.8 0-3.2-.5-.3-.5-.8-.5-3.4-.6-2.5 0-3-.2-3-.5l-.3-.6a.7.7 0 0 1-.3-.5c0-.4-1.4-.4-3.3.2-1.7.5-5.3.5-5.3 0V98c-.1-.3-.4-.4-1.3-.4-1 0-1.2.1-1.1.5 0 .3-.2.4-1 .5-3.9.6-5.9.8-6 .7-.4-.5.5-.8 2.5-1 1.5 0 2.3-.3 2.4-.5 0-.2-.2-.4-.5-.5-.8-.2-.7-.5.3-1 .8-.3.8-.3.4-.5-2-.7-2.6-1-2.4-1.4.1-.4-.3-.4-2.3-.2-2.6.1-3.4.5-2.2.8l.9-.1c.1-.5 4.2.5 4.2 1 0 .4-.7.5-1.7.1-1.3-.4-1.2-.4-1.2 0 0 .5-.2.5-1.2.2a14 14 0 0 0-1.6-.5c-.7-.2-.9-.2-1 .3 0 .4-.2.5-1 .3a17 17 0 0 0-2.3-.2c-1 0-1.2-.2-1.3-.5 0-.4-.2-.5-.9-.3-1 .2-1.8-.1-1.8-.6 0-.4-.3-.4-2-.2-1.9.2-2 .1-2.1-.4-.2-.5-.4-.6-1.9-.6-1.3 0-1.7 0-1.7-.4 0-.3.5-.4 2.7-.4 5.1-.1 5.4-.1 5.3.2 0 .2.3.4.8.4.7 0 .8 0 .6.5-.1.4 0 .5 1 .5s1.4-.2 1.5-.5l1.4-.7 1.2-.4-1.3.2c-.8 0-2.2-.1-3.7-.5-2.3-.5-2.7-.5-10-.2-7 .2-7.8.2-8.1-.2-.3-.3-.7-.4-1.5-.3-1 0-1.2 0-1.2-.4 0-.2.3-.4 1-.5a384.8 384.8 0 0 1 16.2-1l-1.1-.2c-.4 0-1-.2-1.2-.5-.3-.3-.8-.4-2-.3-1.4.2-1.6.1-1.8-.3 0-.4-.3-.5-1-.5-.6 0-1-.2-1-.5-.2-.3-.5-.4-2-.2-1.7.1-1.9.1-2-.4-.2-.4-.4-.5-1.7-.5-1.3 0-1.6 0-1.6-.4s.3-.5 3-.3c1.6 0 3 .2 3.2.4l1.5.4c3.8.4 5.4.7 5.8 1 .4.4.8.5 2.4.3 1.2-.1 1.8 0 1.8.1 0 .2-.3.4-.7.5l-.7.2.8.2c.5 0 1 0 1.2-.2a2 2 0 0 1 1-.4c.4 0 .9 0 1-.2.4-.2.4-.3-.1-.3-.4 0-.6-.1-.6-.4 0-.4.3-.5 1.3-.2.3 0 .5.3.5.5-.1.2.1.4.5.6.4.2.5.4.4.7-.2.5.6.5 1 0 .2-.3.8-.4 1.9-.4 2 0 1.8.4-.2.7-.8 0-1.4.3-1.4.4 0 .2-.4.2-.8.1h-1.6c-.9.3-.8.3 1.3.8 1.8.3 2.7.4 3.9.2 1.3-.2 1.4-.2.6-.3-1.5-.1-2.1-.3-2.1-.6 0-.2 1.1-.3 4-.2h4.4c.4-.4 5.4-.9 5.7-.6.2.2.1.3-.1.4-1.2.4-1.3.5-1.2.7.2.2.6.3 1.4.1a34 34 0 0 1 4-.2c2.5 0 2.8 0 3-.5 0-.5.2-.5 2.2-.4 1.4 0 2.6.3 3.4.7a7 7 0 0 0 3 .6c1 0 2.5.1 3.3.4 2 .5 3.6.5 3.8 0 .1-.3-.1-1.4-.5-2.6-1.3-4.2-1.5-5.6-.7-7.6.3-.9.3-1.3 0-1.6a23.6 23.6 0 0 0-.5-7.4l-1.2 1c-.7.6-1.4 1-1.6 1l-1 .5c-1 .7-1.5-.1-1.6-2.7 0-2 0-2.2.5-2.8.4-.3.6-.8.6-1 0-.4 0-.3-4.7.4l-4.5.7c-2.5.2-3.2.4-3.7 1-.3.1-2.4.6-5 1-2.4.3-4.7.8-5 1-.3.2-1 .4-1.5.3-1.2 0-5.3.4-5.6.7-.4.3-2.2.6-3.7.5H24c-8.5 0-13.4.1-18.4.7l-1.4.2v6c-.2 6.5 0 7.7.8 7.8 2 .3 2.2.7.5.7h-1V119c.1 7.5.1 7.6.7 8.3.3.4.7 1.2.8 1.7l.2 1 3.7.3c2.1.2 7.8.3 12.7.4a103.9 103.9 0 0 1 12.7.5l16.1-.2zm40.6-4.5c0-.2-.5-.3-.9-.3-.8 0-1.1-.3-.8-.8.1-.2 1.6-.3 5.3-.2 4 0 5.5 0 6.6-.4 1.4-.4 1.4-.4.3-.3-1 .1-1.1 0-1-.3 0-.4.3-.5 1.7-.6 1 0 1.7 0 1.7.2 0 .1-.3.3-.5.3h.7c1.1 0 4.6-1.3 7.1-2.4 2.2-1 2.7-.4.5.7-1.4.8-1.6 1.3-.4 1 .8-.1 1.3.3.8.7-.2.2-1.3.5-3.6 1-.5 0-1 .3-1.4.5-.7.5-1.3.3-1.3-.4 0-.6-.6-.6-2.9 0-1.2.4-1.6.6-1.6 1 0 .3-.2.3-2 .3-2.4-.2-2.7-.2-5.7 0-1.7.2-2.4.2-2.6 0zm23.1-2.6c-.3-.3 0-.6.6-.6.3 0 .5-.2.6-.3 0-.2.7-.3 1.7-.3 2 0 2.7-.1 2.7-.6s-.4-.5-.6-.2c-.3.5-.6.3-.8-.3-.2-.6-.2-.6-.7.1-.3.4-.8.8-1.1.8-.5 0-.5 0-.1-.5.2-.3.4-.7.3-1-.1-.2 0-.4 1-.5.9-.2 1.1-.1 1.4.3.2.3.6.5.8.5.3 0 .5.2.6.6 0 .4.2.6.6.6.3 0 .5-.1.5-.3 0-.3-1-1.6-1.5-2-.7-.3-.4-.6.7-.6 1.5 0 4.5 1 5.1 1.6.8.9 1.9 1.3 2.3 1 .2-.3.3-.2.3 0 0 .3-.2.6-.4.6-.2.1-.2.2 0 .4 1 .7 0 .8-3.5.6a45.4 45.4 0 0 0-10.5.1zm11.5-1.3-.3-.3c-.2 0-.3 0-.3.2 0 .1.1.2.3.2h.3zm-2.3-1.2-.7-.2c-.3 0-.4 0-.4.2.1.2.4.3.7.3.3 0 .5-.1.4-.3zm12.2 2.2c-.6-.4-1.4-.4-4.6 0-1.2.3-1.6-.1-.8-.7a19 19 0 0 1 7.6-1.2c3.3 0 4.4.2 4.6.7.2.4 0 .4-1.5.3-2.1-.2-4 .2-4.2.9-.2.6-.4.6-1.1 0zm-41.4-.8c-.8-.1-.6-.7.4-.9.5 0 .8-.2.8-.6 0-.5.1-.5 5.1-.5 3.7 0 5.5-.1 6.2-.4 1-.4 4.7-.2 4.7.2 0 .5-4 .9-9.8 1h-3.9l.1.7c0 .7 0 .7-1.4.7l-2.2-.2zm19-.6c.1-.2.2-.3.4-.3.3 0 .2.4-.1.5-.2 0-.3 0-.2-.2zm.3-1.4c-.9-.4-.9-.4-.7-.7.2-.3 2 .3 2 .7 0 .4-.4.4-1.3 0zm-4.3-3.8c0-.3.4-.7.8-.9.4-.1.8-.5 1-.8.3-.3.7-.5 1.3-.5.5 0 2-.3 3.3-.7 2.6-.6 4-.8 4-.4 0 .3-2.4 1.2-4.7 1.8-1 .2-2.4.7-3.2 1.2-1.5.9-2.5 1-2.5.3zm19.8 0c-.2-.2-5.5-.9-6.8-.9-1.3 0-2.2-.5-1.6-1 .4-.1 3.4.1 6.5.7 2.3.4 3 .7 3 1.2 0 .2-.8.3-1 0zm-61.4-.8c-4.3-3-5.1-3.5-8.6-4.9-1.5-.6-2.3-.7-3-.7-1.2.2-4.4-.5-4.8-.9-.2-.2.3-.2 1.4 0l1.6-.1c0-.2-.3-.5-.6-.9-.4-.3-.7-.8-.7-1 0-.6.5-.5 1.5.3.6.5 2.3 1.4 3.7 2 4.2 1.9 8 4 9.6 5.3l1.6 1.4c.1.4-.7.2-1.7-.5zm48.3 0c0-.3.7-.6 1.8-.6.9 0 1.2.2.8.7-.4.5-2.6.5-2.6 0zm19.6 0c.1-.6 1.7-1.5 3.9-2 1.6-.4 2-.5 2.3-.2.4.3.4.4 0 .7-.3.2-.7.4-1 .4-.2 0-1.3.3-2.3.8-2.3.9-3 1-3 .3zm-33.3-.9c0-.2.3-.4.6-.4 5-.5 6.7-.7 6.7-1 0-.4.3-.5 1.8-.8 1-.2 1.2 0 .8.8-.3.9-2.4 1.4-6.5 1.6-3 .1-3.5.1-3.4-.2zm-53.8-.9c-.5-.6 0-1 1-.7 1.3.3 1.5 1.1.2 1.1-.5 0-1-.2-1.2-.4zm29.8-.3-1.8-.2c-.9-.1-1.7-.4-2-.6-.6-.6 0-1 .8-.6 1.3.4 4.2.8 4.6.5.4-.4 3.2-1 4.7-1.2 1.2 0 1.2 0 1.1.5-.1.4 0 .5.6.3 1-.3 4.5-.3 4.5 0 0 .2-.8.4-1.8.5l-3.3.3c-1.2.2-1.6.1-2-.2-.5-.5-.6-.5-1.8.1-1.1.6-2.8.8-3.6.6zm-39.7-1.1-.4-.7c0-.2 1.7-.2 3 .2 1.3.3 2 0 2-1 0-.4.2-.4 2.4-.3 2.2.2 2.4.1 1.6-.2-1-.3-1.9-1-1.9-1.5s.6-.5 1.3-.1l4 1.5c1.8.6 3.2 1.3 3.1 1.4 0 .4-2.2.2-2.7-.2-.3-.2-.5-.2-.7 0-.2.2-1.3.3-2.8.3-1.3 0-2.4.1-2.4.2 0 .5-1.9.9-4 .9-1.6 0-2.1-.1-2.5-.5zm56.8.1c-.4-.4-.4-.4 0-.6.7-.2 1.8.1 1.8.6s-1 .5-1.8 0zm-23.2-.2c-.1-.1-.1-.3 0-.4.2-.2.9.1.9.4 0 .4-.7.4-1 0zm-3.9-1-2.2-1.7c-.8-.6-1.4-.8-4-1.1-3.5-.4-4.7-.7-4.5-1.2 0-.4.1-.4 3.4.1 1.3.3 2.5.4 2.6.3.2-.1 0-.5-.3-.8-.4-.4-.5-.7-.4-.9.2-.2.7.2 1.4.9l1.1 1.1 4.3.7c6.3 1 7.1 1.3 7 1.6-.2.3-.9.2-5-.6-2.7-.5-4.4-.7-4.4-.3 0 .5 1.5 1.2 2.8 1.3 1.3 0 2.3.4 2 .7l-1.7.2c-1.1.1-1.5 0-2-.3zm47.7 0-.8-.8s.7-.2 1.5-.2 2.2-.2 3.1-.5l1.6-.6-1.9.2c-1.6.1-1.8 0-1.5-.3.3-.3 1-.5 2.4-.6 1.3-.1 2-.3 2-.6.2-.2.8-.3 2.5-.3 1.2 0 2.2.2 2.2.3 0 .2-2.4 1.1-3.3 1.3-.4 0-.6.3-.6.6 0 .5-.2.6-2.1.6-2 .1-2.2.2-2.3.7 0 .7-1 1-1 .3 0-.2-.1-.4-.3-.4-.1 0-.2.2-.1.4.2.6-.3.5-1.4-.2zm7.4-2.7c0-.4-.8-.3-1 .1 0 .3.1.4.5.3.2 0 .5-.3.5-.4zM94.6 111c-.3-.5.3-.8 1.6-.8 1 0 1.7.3 1.2.6-.6.3-2.7.5-2.8.2zm18.4-.5c-1.3-.2-1.6-.4-1.2-.9.2-.1.8-.2 1.7 0 1.6.1 2.3.4 2 .8-.2.4-.7.4-2.5 0zm22.7 0c-1.5-.2-2.4-.6-2-1 .2-.3 4 .3 4 .6.2.4-.3.5-2 .4zm-8.5-.5c0-.5 1.8-2 2.4-2 .2 0 .5.3.7.5.2.2.7.4 1 .4.4 0 .7.1.7.4 0 .3-.4.3-1.7.3-1 0-1.8 0-2 .3-.4.3-1 .4-1 0zm18.5-2-3.7-.3c-2.5 0-3.8-.2-4-.4-.3-.2-.8-.3-1.2-.3-.6 0-.8-.1-.8-.4 0-.3.2-.4 1.4-.2l3.9.2c3.7.1 6 .6 5.6 1.2-.1.3-1 .4-1.2.1zm-50.3-1.2c-.2-.4.5-.7.9-.4.1 0 .2.2.1.4-.2.3-.8.3-1 0zm27.4-.1c0-.2.5-.6 1-.9 1.3-.5 1.8-1.3.8-1h-.5c0-.3 2.4-2.5 2.7-2.5.4 0 .2.6-.5 1.3-.6.6-.7.8-.4 1.1.4.5-.1 1-1.6 1.8-1.2.6-1.6.7-1.5.2zM26 104.5l-3.4-2.2c-.6-.3-.8-.9-.3-1a40 40 0 0 1 7.6 4.9c0 .6-1.2 0-3.9-1.7zm87 1.4c-.3-.2-.2-.4.4-.8a5 5 0 0 1 1.2-.7c.2 0 .5-.3.5-.4l.4-.2c.5 0 .5.6-.1 1-.8.8-2 1.3-2.4 1zm5.4-.4c1.6-1.2 2.6-1.8 2.8-1.5.2.1.2.4.1.5-.3.5-2.2 1.4-2.8 1.4-.6 0-.6 0-.1-.4zm13 .2.6-.9c.4-.5.5-1.2.6-3.2 0-1.6.2-2.5.4-2.5.2-.1.3.3.3 1.6 0 1.1.1 1.7.3 1.6l1.3-2.4c.6-1.2 1.2-2.2 1.4-2.2a44.2 44.2 0 0 0-.4 1.7l-1.3 2.6-1 1.9 1.6-.8c1.2-.8 3.6-2 3.9-2v.4c0 .2-.5.5-1 .8l-2.7 1.5c-.9.6-1.8 1-2 1-.3 0-.7.3-1 .5-.5.6-1 .7-1 .4zm6.4-.3c-.7-.2-.6-.9 0-.8.9 0 1.5.3 1.2.7-.1.3-.4.3-1.2.1zM24 105c-1.7-.9-8-2-11.7-2-1.5 0-2.3 0-2.5-.3-.4-.5 0-.7 1.4-.7 1.8 0 9 1 10.7 1.4 1.7.5 3.3 1.3 3.4 1.7.2.4-.4.4-1.3 0zm10.6-.1c-.5-.3-1.3-.5-1.8-.5-1.3 0-2.7-.7-2.7-1.3 0-.7.2-.7 1.5-.2 1.2.6 1.7.5 1.7-.1 0-.7 1-.7 1.2 0 .1.3.5.8 1 1 .7.6 1 1.7.4 1.6-.2 0-.8-.2-1.3-.5zm114 0c-.3-.4.3-.8 1.5-.8 2.2-.1 2.7.1 1.9.7-.6.4-3.2.5-3.5 0zm-6.5-.3c-1.2-.3-1.6-1-.5-1 1 0 3.1.6 3.2 1 0 .3-1.3.3-2.7 0zM29 104.2c-.7-.3-.8-1-.3-1s1.4 1 1.1 1.2c-.1 0-.5 0-.8-.2zm83.3-.2c.5-.7 1.3-1 1.3-.4 0 .5-.6 1-1.2 1-.4 0-.4-.1 0-.6zm-9.2-.3c-1-.4-.4-.8.9-.6.9.1 1.1 0 1.1-.2 0-.3.6-.4 2.6-.5 2.8-.2 3.3 0 2.6.5-.3.2-1.3.3-2.6.3-1.5 0-2 .1-2.1.4-.2.5-1.6.5-2.5.1zm27.8-.9.1-1.5c0-.2.2-.5.3-.5.5 0 .2 2.8-.2 2.9-.3.1-.4 0-.2-.9zm-7-1 .8-.4c.4 0 .5 0 .5.3 0 .2-.4.4-.8.4s-.5 0-.4-.2zm12.7-.2c0-.2 1.4-2.4 2.4-3.7.8-1 1.1-.7.5.4-.5.9-.5 1 0 .8l1.1-.7c1.4-1 1.8-.3.4.7-1 .8-1.6 1-2 .6-.1-.1-.5.1-1 .9-.7 1-1.4 1.5-1.4 1zm-94-3.8c-.3-.3 0-.7.6-.7.4 0 .5.2.5.4-.2.3-.8.5-1 .3zm105.9-3.4-1.7-.4c-1 0-1.6-.3-1.7-.5 0-.3.2-.4 1.6-.2 2.2.3 3.7.3 5.6 0 1.3-.2 1.5-.1 1.5.2 0 .3-.3.6-.7.7-.7.3-4.4.4-4.6.2zm-27.5-1c-.8-.2-1-.8-.2-.8.3 0 .8-.1 1-.4.4-.4 1.5-.3 3.6.4.4.1.4 0 .1-.3-.5-.7 0-1 .9-.7 1 .3 1.2.3 1.2-.1 0-.3.4-.5 1-.7 2.7-.6 3.3-.8 3.7-.6.6.2-.1.8-1.3 1-.6 0-1.6.3-2.2.4-.9.2-1 .3-.6.6.3 0 .5.4.5.6 0 .3-.2.4-1 .3-.5-.1-1 0-1.4.1-.4.3-.8.3-1.7 0-.9-.2-1.1-.2-1.4.1-.3.4-1.1.5-2.2.2zm-5.3-.2a9 9 0 0 1 3.3-1.9c.9 0 .4.7-1.1 1.4-1.6.8-2.2 1-2.2.5zm14.2-.3c-.2-.7 0-1 .3-.5.2.3.6.3 2 0 2-.3 2.6-.2 2.6.4 0 .3-.4.4-1 .4l-2.4.1c-1.2.2-1.3.2-1.5-.4zm12.4.1a16 16 0 0 0-3-.3c-1.7 0-3-.6-2.6-1 .2-.3 3.4-.1 5.5.2 1.4.3 1.7.4 1.8 1 0 .6.1.6-1.7.1zM110 91.1c-.3-.3-.2-.5.3-.7.6-.2 1.9.3 1.9.6s-2 .4-2.2.1zM9 90l-1.5-.3c-1.3 0-1.5-.3-.6-.8.4-.2 1.1-.2 2.7 0l3.2.4c.6 0 1 .2 1.1.4.1.2-.4.3-1.8.3l-2.4.1c-.2.1-.5 0-.7-.1zm-4.1-.2v-.5l.5.1-.1.5-.4-.1zm109.2 0c-.2-.4.6-.7 1.1-.5.2 0 .4.3.4.4 0 .4-1.2.4-1.5 0zm4.2-.9c-.6-.2-.8-.6-.3-.8.5-.2 2.7.5 2.8.8.2.4-1.6.4-2.5 0zm-75.6-.5c.2-.3 1.7-.6 2-.4 0 .1 0 .3-.3.4-.5.3-1.9.3-1.7 0zm81.8-1c-.5-.1-.6-.5-.1-.7.5-.2 2.7.2 2.8.6 0 .3-1.6.4-2.7.1zm5.4 0c0-.2.2-.3.5-.3s.5.1.5.3c0 .1-.2.2-.5.2s-.5-.1-.5-.2zm-83.9-1c-.3-.3-.3-.4 0-.5.7-.2 1.7 0 1.7.3-.1.3-1.2.4-1.7.1zM28 86l-2.3-.5A66 66 0 0 0 19 85c-3 0-5.7-.2-5.8-.3l.1-.3c.3-.3 6.6-.1 10.8.2 2.7.3 3.6.3 4 0a2 2 0 0 1 1.4-.1l2.2.3c1.7.2 1.8.6.1.6-.7 0-1.5.2-1.8.4l-.6.4-1.5-.3zm5.7 0c0-.3 1.9-.5 6.2-.7 4.1-.1 5.2 0 4.7.4-.3.3-11 .6-11 .3zM9.2 85c-1.1-.1-1-.6.2-.6 1.5 0 3 .3 3 .6 0 .2-1.8.3-3.2 0zm17-1a.4.4 0 0 1-.1-.4c.2-.3 8.8-.3 8.8 0 0 .2-1 .3-2.3.3a63.7 63.7 0 0 0-6.5.1zm-1.5-2.3c0-.2.8-.4 1.8-.5a112.2 112.2 0 0 0 11.1-1.8c.5 0 0 .7-.5.7l-4.3.8c-7.2 1.3-8.3 1.4-8.1.8zM122.9 68c-.1-.1 0-.3.2-.4.6-.2 4.7 0 4.7.3.1.4-4.7.5-5 .1zm5-2.5c-5-.1-6.6-.4-3.7-.8 1.8-.2 10.1 0 10.4.3.2.2-.5.7-1 .6l-5.6-.1zm12-4.5c-1.7-.2-2-.5-1.4-1.2.3-.4.8-.5 1.7-.5 1.6 0 2.1-.2 2.1-.8 0-.6 1.6-2.6 2-2.6l1 .3c.3.2.7.2 1.6-.1 1.3-.4 1.3-.4 2.3.3.6.4 1 1 1 1.2 0 .2.2.4.4.5.2 0 .5.5.7 1 .3.8.5 1 1.1 1 1 .1 1.3.6.7.9-.2 0-.9 0-1.4-.2-2-.5-6.4-.4-10 .2h-1.9zm10-2-.7-1c0-.2-.1-.3-.3-.3-.4 0-.2.7.4 1.4.4.4.8.7 1 .6 0 0-.1-.4-.5-.8zm-5.9.3c0-.1-.2-.3-.4-.3l-.2.3c0 .2.2.3.4.3s.3-.1.2-.3zm2-.1c0-.2-.1-.4-.3-.5-.3-.1-.3-.2 0-.7.4-.6.3-.7-.5-.3-.4.2-.4.4-.1 1 .3.9 1 1.2 1 .5zm2.1-2c0-.2-.3-.3-.7-.3-1 0-1 .4-.4.8.5.2 1.1 0 1.1-.5zm-42.3-1.8-6-.5c-3.6-.2-4.5-.7-1.5-.8 2.6-.1 12 1 12.2 1.4.1.4-1 .4-4.7 0zm9.5-1.5c-.3-.4 0-.7.7-.7 1 0 .8-.8-.3-1.8l-.9-1-.6.7c-1 .8-.9 1.1 0 1 .7 0 .7 0 .7.7 0 .8 0 .8-1.8 1a15 15 0 0 1-4.6-.2c-.3-.1-.3-.2 0-.5.2-.3.5-.4.6-.3.2 0 .6 0 .9-.3a3 3 0 0 1 1.4-.3c.8 0 1-.1 1.3-.8.1-.6.6-1 1.2-1.3l1.6-.6c1.5-.7 2.1 0 2.3 2.5.1.9.3 1.1.8 1.2.3.1.6.3.6.5 0 .5-3.5.6-3.9.2zm16 .1c-1.4 0-2-.2-2-.4 0-.3-.2-.4-.7-.4-.9 0-1.1-.3-.4-.6l3.1-.2h2.7l.7-.8c.6-.8 1-1 2.3-1.2 2-.4 3-.1 3.2.7 0 .3.3.8.7 1.2 1.2 1.2.8 1.6-1.6 1.6l-4 .2h-4zm8.6-1.3c0-.3-1.3-.6-1.6-.3-.2 0-.1.2 0 .3.6.3 1.6.3 1.6 0zm-3.4-3.2c-1.3 0-2-.2-2-.5-.1-.2.3-.3 2-.1 1.8.1 2.8.4 2.2.7h-2.2zm-48.5 53c2.2-.5 2.7-.9 1.2-.9-.6 0-1.2 0-1.2-.2-.3-.5-.8-.3-.6.1.2.7 0 1-.6.7-.4-.2-.8-.2-1.3 0-.8.3-.9.2-1.6-.6-.8-.8-.8-.9-1.5-.4-.9.6-.8.9.2 1.3 1.2.6 3.3.5 5.4 0zm-10.5-1.4c-.5-.3-1-.3-1 0 0 .2.3.3.7.3.5 0 .6 0 .3-.3zm11.1-.6-.4-.4c-.3-.3-.4-.3-.4 0s.2.5.4.5l.4-.1zm-19.8-.4c0-.4-.3-.5-1.7-.7h-1c.3.1.6.3.6.5 0 .3.3.4 1 .4.6 0 1-.1 1-.2zm26.7-.6c.3-.2.3-.2-.1-.2a2 2 0 0 0-1 .2c-.3.2-.3.3.2.3a2 2 0 0 0 .9-.3zm-33.6-1c-.2-.4-.6-.6-1-.6-.8 0-.8 0-.5.6.2.3.6.5 1 .5.7 0 .7 0 .5-.5zm6.3-.2c0-.2 0-.3-.2-.2-.2 0-.3.2-.3.4 0 .1.1.2.3.2l.2-.4zm24.5-.3c.4-.6.4-.7 0-1-.5-.3-.3-1.2.2-1.2l.8-.1c.7-.3.9 0 .4.8l-.4.6c.3 0 1.2-1 1.6-1.6.3-.4.7-.7.9-.7.2 0 .4-.2.4-.4.1-.2.2-.2.5 0 .4.3.5.3.6 0 .2-.6.2-1.8 0-1.8l-.6.6c-.5.8-.7.4-.6-1.1.2-1.5.6-1.8.9-.7 0 .3.2.4.2.2s0-.7.2-1c0-.4 0-.6-.3-.6-.6 0-.7-.4-.4-1.2.3-.8.8-.9.8 0 0 .3.2.7.4.8.2 0 .4.3.4.6 0 .4 0 .4.2 0 .2-.2.4-.3.6 0 .3.3 0 2.6-.4 3l-.6 1c0 .3-.4.7-.8.8-.6.3-1 1.3-.4 1.3.7 0 3-3.5 3-4.5s.4-1 .6 0c.2.8.2.9.6.5.4-.4 1-2.5 1.4-4.4a6 6 0 0 1 .4-1.6c.1-.2 0-.5-.3-.8-.5-.6-.7-2.3-.2-2.4.1 0 .3.2.3.6.2 1.3.5.8.7-.9.1-1.6-.2-3.1-.9-3.5-.1-.1-.6 0-1 .3l-1.5 1c-1.3.9-3.8 1.5-6.3 1.5-1.9 0-2.3 0-2.8-.4-.4-.3-.7-.4-1.1-.3-.4.1-.7 0-.8-.2-.2-.2-.3-.3-.5 0-.2.2-.7.2-1.2.1-1-.2-1.1-.2-.5-.8.6-.7.2-.7-.8 0l-1.2.5c-.5 0-.3-1.5.3-2.4l.5-.7-1-1.2c-1.7-2-2.7-4-2.9-5.5-.2-2.5-.7-5.3-1-5.4l-1.3-.5c-1.2-.4-1.3-.4-1.9.3-.3.3-.5.8-.5 1.1.1.3-.1.7-.5 1-.9.7-.9.9-.1.7.4-.2.5 0 .4.2v.6c.2.1 0 .5-.2.9-.5.6-.5.7-.1 1 .3.2.4.5.2 1.6-.2 1.5.3 1.4.7-.2.1-.7.4-1.3.7-1.6.2-.2.2-.5.2-.6-.1 0 0-.4.3-.7.5-.6.5-.6-.1-.3-1.2.7-1.1 0 .1-1.1 1.4-1.3 2.2-1.2 1.2.1-.5.6-.5.8-.2.8.6 0 .5.4 0 .8-.5.2-.5.2 0 .6.5.4.5.4-.2.7-.4.1-.8.5-1 .9-.5 1.5-.5 1.7 0 1.8.6.2.6.2-.2 1-.4.4-.9 1.1-1 1.5 0 .4-.6 1.5-1.2 2.5-1.1 1.6-1.1 1.8-1.1 3.7 0 2.6.4 5.3.7 5.3.1 0 .2-.5 0-1.2 0-1 0-1.2.5-1.5.4-.3.6-.7.5-1.3l.2-1.4.8-2.2c1-2.8 1.4-3.2 2.3-2.2.5.5.4.5-.1 1.2-.4.4-.6.8-.5 1 .1.3-.2 1.3-.9 2.4-.6 1.1-1 2.2-1 2.6 0 .8.3.4 1-1.3.4-1.4 1.1-2.3 1.5-1.9l-.5 1.5c-1 1.8-1.6 3.7-1.4 4.2 0 .4.1.4.3 0 .9-2.4 1-2.8 1.4-2.8.4 0 .4.4 0 1.2-.3.4-.5 1.3-.6 1.9-.2 1-.1 1.1.2 1.1.3 0 .4-.1.4-.3l.3-.2.5 1.2c.3 1.2.8 1.6.8.5 0-.4.1-.7.3-.7 0 0 .3 1 .3 2.3.2 3 1 5 1.7 4 .1-.1.3-.1.5.1.3.2.4.2.4 0 0-.3-.5-.7-1-.7s-1-1.5-1-2.8c-.1-1.1.5-1.3.6-.3.3 1.6.7 1.4 1.2-.6.4-1.5 1-1.9 1-.7 0 .7.1.8.4.7.4-.2.4 0 .3.9-.2 1-.1 1.1.2 1.1.3 0 .4.3.4 1 0 .6.1.9.4.9.2 0 .5.2.5.5.1.3.5.5 1 .6.4 0 .7.2.7.6.2 1.4 2.3 2 3.1.7zM91 94.2c0-.4.2-.6.4-.6.4.1.3 1-.1 1.1-.2 0-.3 0-.3-.5zm-1-.3c-.2-.6.2-1.3.7-1.5.4-.1.4.8 0 1.4-.4.5-.5.5-.7 0zm-.9-.8c0-.7.4-1.3.8-1.3.2 0 .3.2.2.4l-.3.8c-.2.5-.7.6-.7 0zm-.7-1.8c0-.5.2-1 .4-1 .3 0 .4.1.3.8 0 .4-.2.9-.4 1-.3 0-.4-.2-.3-.8zm-4.8-1.2c0-.2.1-.4.3-.4.1 0 .2.1.2.3l-.2.4c-.2 0-.3 0-.3-.3zm11.4 0 .3-.8c.5-.6 1-.3.6.4-.3.5-1 .7-1 .4zm-1-.5c0-.5 1-2 1.4-2 .4 0 0 1-.7 1.7s-.8.8-.8.3zm6.8-.3c0-.7.7-2.6 1-2.7.4-.1.4.8 0 2-.4.7-1 1.2-1 .7zM84.6 89v-.9c0-.4 0-.7-.2-.7l-.4-.6c-.3-.8-.7-.1-.7 1.1 0 1-.3 1.3-.6.8-.2-.3.3-3.9.5-4.3h.5c.3.3.4.3.4 0l-.2-.2c-.5 0-.3-.6.4-1.5.7-1 1.4-1 .7 0-.3.6-.3.8 0 1 .2.1.2.4 0 1-.3.8-.2 2.4.2 2.7.2 0 .2.5.1 1-.2.8-.4 1-.7.6zm14.3-.2c-.2-.2-.1-.9.2-2.4.2-1 .6-.7.6.4v1l.5-1.1a3 3 0 0 0 .3-2.1l-.2-1.7c0-.6 0-.6.4-.3.5.5.8 3 .4 3.5a4 4 0 0 0-.5 1.3c0 .8-.3 1-.6 1-.2-.1-.5 0-.7.2-.1.2-.3.3-.4.2zm-5.6-.3c-.2-.4 1.6-2.8 2-2.6.2.2 0 .8-1 2-.5.5-.9.8-1 .6zm5.8-4c-.2-.8.3-1.3.6-.6.3.5.2 1-.2 1l-.4-.4zm-16.5-1.7c0-.7.2-1.6.3-2 .4-.7 1.2-2 1.5-2 .4 0 .3.7-.2 1.2-.2.2-.5 1-.6 2-.2.8-.4 1.7-.7 1.9-.3.4-.4.3-.3-1zm-.5-3.3c0-1.2.3-1.7.8-1.7.3 0 .4-.2.4-.4 0-.4.4-.5.7-.2.2.4-1.2 3.3-1.6 3.3-.2 0-.3-.4-.3-1zM81 77.8c0-.4 1.1-2 1.4-2 .4 0 .3.5-.3 1.4-.5.9-1 1.2-1 .6zm-2-.9c0-.2.1-.4.3-.4.3 0 .4.1.4.3-.2.5-.8.6-.8.1zm1.3-.6c.6-1.3.9-1.6 1.2-1.6.4 0 .4.1-.1 1-.3.5-.6.8-.8.8-.2 0-.4 0-.3-.2zm0-1.7c0-.3 0-.7.2-1 .3-.6.2-.7-.5-.2-1 .6-.8 0 .1-1 1-1 1.6-1 1-.1-.3.4-.2.5 0 .3.7-.2.6.9-.2 1.7-.5.6-.6.7-.6.3zm-1.9-8c0-.5.1-.7.4-.6.7.1 1.1 1 .7 1.2-.8.5-1.1.3-1.1-.5zm23.1 31.6c.1-.1.6-.4 1.2-.5.5-.2 1.4-.8 1.8-1.3.5-.4 1-.8 1.2-.8l.2-.5c0-.2.3-.7.7-1 .6-.5.7-.7.5-1-.3-.2-.3-.4 0-.9.6-.8 0-2.1-1-2.3-.8-.2-1 .1-1.6 2-.3.7-.8 1.8-1.2 2.2-.4.5-.8 1.3-1 1.8 0 .5-.4 1.2-.8 1.5l-.6.8c0 .3.4.3.6 0zM75 98c.3-.1.3-.2 0-.7-.4-.6-.4-.7 0-1 .5-.2.5-.2 0-.2-.4 0-2 1.2-1.7 1.4l1.2.7.5-.2zm-21.4-.3c0-.2-.2-.3-.7-.3-.4 0-.8.1-.8.3l.6.2c.4 0 .8 0 .9-.2zm41.8 0c0-.2 0-.3-.2-.3-.1 0-.2.1-.2.3v.2c.1 0 .3 0 .4-.2zm3-.5c.4-.8.3-.9-.3-.5-.5.3-.7 1-.2 1l.5-.5zm-47.8 0c.6-.2.3-.6-.4-.6-.3 0-.4.1-.3.4.2.5.2.5.7.2zm28-.4V96c0-.6-.1-.6-1-.5-1.3.3-1.4.3-.6 1 .5.7 1.8 1 1.6.4zm1.5-.3c-.1-.2-.3-.4-.4-.3-.2.2.2.7.5.7.2 0 .2-.2 0-.4zM56 96c.1-.2-.4-.3-1.5-.3-1 0-1.8.1-1.8.3 0 .1.7.2 1.6.2.9 0 1.6 0 1.7-.2zm-5-.8c.3-.4.2-.4-1.2-.7-1.5-.2-1.7.2-.4.6 1.1.4 1.4.4 1.6 0zm-14.8-.4c0-.2.4-.4.8-.4.5 0 .7-.1.7-.6 0-.4-.2-.5-.6-.4l-1.7.4c-1.8.2-1.8 1.4 0 1.4.3 0 .7-.2.8-.4zm24.6-.2c.4-.4 0-.5-1.4-.2-1 .2-1.8.2-2.6 0-1.3-.3-1.6-.2-1.3.3.2.3 5 .2 5.3-.1zm18.8-.2c0-.1 0-.3-.3-.4-.2 0-.4 0-.4.3 0 .4.4.5.7.1zM101 94c.2 0 .2-.1 0-.4-.2-.2-.4-.2-.7.2-.5.7-.5 1.1 0 .6l.7-.4zM47 94c.1-.3.6-.4 1.5-.4.8 0 1.3-.1 1.2-.3-.3-.4-4-.3-5 .3l-1.1.5 1.2.1 1.6.1c.3 0 .5 0 .6-.3zm21.8 0h-.5c-.2 0-.2.1.2.1.2 0 .4 0 .3-.1zm-2.3-1c-.4-.6-.7-.4-.4.2 0 .2.2.4.4.3.2-.2.2-.3 0-.6zM59 93c1-.4.3-.6-1.5-.4-1 0-1.7.2-1.7.4 0 .4 2.1.4 3.2 0zm-15.8-.2c.4-.3.4-.4.2-.5-.8 0-1.2.1-1.6.5-.3.3-.3.4.3.4.3 0 .8-.2 1.1-.4zm-4.2-.4c1.4-.3.1-.3-1.4 0-1 .1-1 .2-.4.2.4 0 1.2 0 1.8-.2zm11.8 0c0-.4-.3-.5-2.4-.7h-2l1.8.3 2 .5c.2.2.6.2.6-.1zm47.8-.7c0-.3-.1-.2-.1.3v.4c.2-.1.2-.5 0-.7zm-64.8-.2c0-.3-.2-.4-1-.4-1.8 0-1.6.7.2.7.6 0 .8 0 .8-.3zm10.3-.9c-.1-.2-.4-.3-.6-.3-.6 0-.5 1 0 1 .6.2.8 0 .6-.7zm13.5.7c0-.3-.5-.3-1.2-.3-1.6.1-1.7.6 0 .6 1 0 1.3-.1 1.2-.3zm5 0c.5 0 .5 0 0-.4-.4-.2-1-.4-2-.3-.8 0-1.2 0-.8.1.3 0 .7.3.9.5.1.3.4.4.8.3l1-.2zm4.3 0a.8.8 0 0 0-1 0c-.4.2-.3.3.5.3.7 0 .8 0 .5-.3zm13.8 0c0-.2-.1-.6-.3-.8-.2-.3-.2-.2-.2.4 0 .4 0 .7.2.7s.3-.2.3-.3zm-56.1 0c-.3-.3-2.7-.5-2.7-.2l1.4.2h1.3zm29.2-.4c.1-.4 0-.5-.7-.2-.6.2-.6.6 0 .6.3 0 .6-.2.7-.4zm11 0c-.9-.5-1.3-.5-1.3 0 0 .3.3.4 1 .4h1zm-34-.4c1.1 0 .7-.7-.4-.8-1.5-.2-2 0-1.5.6.2.3.5.5.8.4l1.2-.2zm16.7 0c1-.4.6-.6-1-.4-1.2.2-1.3.3-.7.4.9.3.9.3 1.7 0zm30.7-.8c0-.2-.2-.4-.4-.4-.2-.1-.3 0-.3.4s.1.6.3.5c.2 0 .4-.3.4-.5zm-.8-1.6-.1-.2c-.2 0-.3.1-.3.2v.3c.2 0 .3-.1.4-.3zM95 80.3c-.1-.2-.5-.4-1-.4-.9 0-.9-.6 0-.7.8-.1 4-1.4 4-1.7 0-.4-.6-.2-2.9.7-1.2.5-2.4 1-2.7 1-.5.2-.5.2 0 .7.6.8 2.8 1.1 2.6.4zm-19.5-1.7c.9-1.6 1-2.9.6-4.1-.2-.5-.4-.6-.6-.4-.2.1-.2.4 0 .7.3.6 0 2.1-.7 4-.8 1.9-.3 1.8.7-.2zm22.5.5c.4-.2.3-.2-.1-.2l-.8.2c-.2.4.4.4 1 0zm1.8-.2c0-.2 0-.3-.3-.3-.2 0-.4.1-.5.3-.1.1 0 .2.2.2s.5 0 .6-.2zm-8.1-.8c.3-.2.2-.3-.3-.2-.3 0-1 0-1.3.2-.6.2-.6.2.3.2a3 3 0 0 0 1.3-.2zm3-.8c.4-.4-.2-.3-1.2.1l-.9.4 1-.1 1.1-.4zm5.7 0c.5-.3.8-.7.8-1v-.6l-1.3 1c-1.2 1.2-1 1.5.5.6zm-7.6-.6c1.6-.5 1.3-.7-1.6-.6-2.9 0-3.7.2-3 .7.6.3 3.5.3 4.6 0zm7.2-1c.5-.7 1-1.4 1-1.6.3-.8.7-.6.7.3 0 .6.1.8.3.6.3-.3.1-1.9-.3-2.5-.2-.3-.3-.3-.6.1l-1.5 2.2c-1.4 2-1.5 2-1 2 .3 0 .9-.5 1.4-1.2zm-4.2 0c-.6 0-.8.1-.5.5 0 .2.3.2.6 0 .3-.3.3-.4 0-.4zM88 75l-.4-.7c0-.2-.3-.5-.7-.6-1.1-.4-.8-.8.7-.8.8 0 2-.2 2.9-.4a28 28 0 0 1 2.4-.6c.7 0 1.4-.5 2.2-1.3.7-.6 1.2-1.2 1.1-1.3h-1c-.5.1-.8.4-.8.8s-.6.7-3 1.5c-2.5.9-3.1 1-4.4.9l-1.8.1c-1 .6 1.1 2.7 2.6 2.7.6 0 .6 0 .2-.3zm5.8-.4c1.5-.4 3.4-2 2.6-2.2-.2 0-.7.2-1.1.6-.4.3-1.8 1-3.1 1.5-2.1.7-2.3.8-1.1.7l2.7-.6zm3.2 0c.6-.2.6-.3.1-.6-.4-.2-.6-.2-1 .4-.7.6-.7.6-.2.6l1.1-.3zm-6.7-.6c.5-.2.5-.3-.2-.3-.5 0-1 .1-1.2.3-.3.2-.3.2.2.2l1.2-.2zm8.8-1.8a5 5 0 0 0 .8-1.8l.4-1c.2-.2 0-1-.3-1-.1 0-.3.5-.4 1.1-.1.6-.6 1.7-1 2.4l-1 1.4c0 .3.8-.3 1.5-1zm-89.7.3c.4-.4 1-.4 3-.3l13 .2a51.4 51.4 0 0 0 15-1c1.3 0 2.8-.3 3.4-.5 1.3-.4 4-.9 7-1 1.5-.2 2-.3 2-.7 0-.3.5-.6 1-.7.7-.3.6-.3-1-.3a40 40 0 0 0-7.7.9c-1.2.2-3 .4-4 .3l-11 .1c-5 0-9.1 0-9-.1.1-.1 3.8-.3 8.3-.4 10-.2 15-.4 18-1 1.3-.3 5.4-.6 10.1-.8l9.5-.5 1.5-.2.8-1.5c.4-.8 1-2.4 1.3-3.6.3-1.2.7-2.4 1-2.7l.4-1.3.7-2 .7-2 .1-.9h-2.3a199.2 199.2 0 0 1-25.6.4c0-.1.6-.3 1.4-.4.8 0 1.1-.2.8-.3-.8-.3-.5-.7.4-.7.7 0 .8-.1.4-.3-.3-.2-1-.2-2 0-1.3.2-1.8.2-2.1 0-.3-.3-1.1-.3-2.4-.3-1.6 0-1.9 0-1.9-.3 0-.4-.2-.4-1.5-.3-.9 0-2 .3-2.6.4-2 .5-3.7.7-3.9.6-.4-.3 0-.6.8-.6.4 0 1-.2 1.1-.4.2-.2.7-.4 1.2-.4s1-.1 1-.3a904 904 0 0 1-32.1.4c-.5-.6 1.3-.7 10.4-.8 5.4 0 13.7-.2 18.5-.4 11.8-.5 12.4-.4 13 .1.2.3 1.4.5 3.4.6a75.8 75.8 0 0 1 12.7 1.9c1.2.2 4.3.4 6.9.5 5.3.1 4.8.3 5.8-2.5a16 16 0 0 1 3.2-4.8l1.3-1.5c1-1.3 1.1-2 .4-2-.5 0-2-1.6-2.2-2.3a5 5 0 0 0-1-1.5c-.8-.8-1.1-.9-2.8-1a61 61 0 0 1-4.1-.6c-5-.9-7.4-1.2-7.8-1.2A66.5 66.5 0 0 1 51.6 33a58.8 58.8 0 0 1-8.6-1.5L41 31c-.8-.2-3.6-.7-6.2-1a8 8 0 0 1-2.2-.4c-.3-.2-1.5-.5-2.5-.5-1-.1-2.2-.3-2.5-.5-.3-.1-1-.3-1.7-.3-.6 0-1.8 0-2.6-.2a7 7 0 0 0-1.9-.2c-.1 0 2.1.7 5 1.4 7 1.6 7.5 1.8 9.7 4.5l1.8 2.2 1.5-.2c1 0 2.2 0 3.2.3 2.2.6 2.4.6 2.3-.2-.2-.9.5-1.5 1.9-1.5.6 0 1.2 0 1.2-.2 0-.6 1-.3 1.7.5l.7 1c0 .6-.7.6-1.4 0-.8-.7-1.3-1-1.3-.6l.6.7c.5.4.5.5.2.7-.2.2-.8.3-1.2.3h-.8l1 .6A98 98 0 0 0 56 41c2 .7 2.6 1.3 1 1l-3.5-1.2-2.9-1-2.2-1c-2.2-1-7.9-2.5-9.1-2.5-1 0-.9.3.4 1.5.8.8 1.6 1.2 4.4 2.2A48.4 48.4 0 0 0 58 43.6c1.2.1 1.7-.1 1-.6-.2 0-.3-.3-.3-.5 0-.6 1-.4 1.5.3.6.8 3 1.4 6.9 1.6 4.5.2 5.4.3 5.4.8 0 .3-.2.4-1 .3l-5.6-.5A172.4 172.4 0 0 1 44 42.3c-4.4-.7-6.3-1.2-8.3-2-1.3-.6-2.8-1-2.6-.6.4.7-.8.5-2.3-.2-2.4-1.2-3.4-1.4-3.8-1-.3.4-.6.4-6.4-1.3a78 78 0 0 0-5-1.2c-2.7-.6-3.6-.9-3.3-1.2a78.4 78.4 0 0 1 13.9 2.8l-1.7-.7c-1.4-.5-2-1.1-1.2-1.1l2.6.7c4.7 1.7 5.3 1.3 1.1-.7-2.5-1.3-3-1.4-4.7-1.4-1 0-2 0-2.2-.2a2 2 0 0 0-1-.3c-.3 0-.6-.3-.6-.5 0-.3.5-.4 2.4-.3 1.3 0 2.6.2 2.9.3.6.3 4.5.4 5.4.1.6-.2.6-.2.2-.7-.3-.2-1-.7-1.8-1a105.9 105.9 0 0 1-4.4-1.7c-1.2-.2-3.4-1-4.4-1.4a41.2 41.2 0 0 0-14.7-3c-.3.2-.4 22.9-.1 36.6l.2 10.8 2.3-.1c1.7-.1 2.5-.3 2.8-.6zm8.6-6.1 1-.7c1.3-.6 20-1 24-.6 2.6.3 3.3.5 3 .8h-5.2c-3.8-.3-5-.3-5.5 0-.6.4-17.3.8-17.3.5zm36.5-.3c-1.5-.3-1.8-.5-1.5-.9.4-.3 4.7.6 4.7 1s-1.3.4-3.2 0zm-5.5-.4c-2.6-.5-3-.6-3-1s1-.3 3 .2c2.8.6 3.2.7 3.3 1 .1.5-.6.4-3.3-.2zm10.6.3c-.2-.4.1-.8.7-.8.5 0 1 .5.8.7-.4.3-1.3.4-1.5.1zM36 53.5c-.3-.1-.8-.3-1.3-.3s-.9-.1-.9-.2c0-.4 1.3-.7 2.4-.5l4.6.3c3.2 0 4.2.2 3.9.5-.3.3-8.3.5-8.7.2zm-10.7-.2c-.4-.6 1.1-.9 4.3-.9 3 0 3.9.2 2.8.7-1 .3-7 .5-7.1.2zm-6-1.2c.1-.2 1-.4 4-.5 4-.2 4.8-.2 4.3.3-.2.2-2.1.4-4.3.5-3.4 0-4 0-4-.3zM9.4 52v-.5a42.7 42.7 0 0 1 8 0c0 .3-.3.4-1.7.4-1 0-2.8 0-4 .2L9.4 52zm42-14c0-.2.1-.4.5-.5.4-.2.5-.4.4-1 0-.8 0-.9 1.2-1.1 1.7-.3 2.6.2 2.5 1.5 0 1-.8 1.2-1 .2 0-.8-.5-.7-.5.1 0 .5-.2.7-.5.7l-1.4.1h-1.1zm-36.6-.6c-.8-.1-1.4-.3-1.4-.4.1-.3 0-.2 1.9 0 .9 0 1.7.3 1.8.4.1.2 0 .2-2.3 0zM100.5 72c0-.4 0-.4-.4 0-.2 0-.4.4-.4.6 0 .4.1.4.4.1l.4-.7zm-30.7-.8c-.2-.2-.6-.4-.9-.4-.4 0-.5 0-.5.6.2 1.3.3 1.4 1 .8.6-.5.6-.7.4-1zm5.3-1c-.2-.5-.3-.5-.1.1l.2 1c0 .3 0 .2.1-.1 0-.3 0-.8-.2-1zm22 .8c1.2-.6 1.8-1.5 1.8-2.5 0-.3.2-.6.4-.8.6-.5.5-.7-.2-1.5-.8-1-1.2-.6-.6.5.5 1 .5 1-.1 2-.7 1.1-1.7 2.1-2.2 2.2a2 2 0 0 0-.8.4c-.9.6.2.4 1.6-.3zm-6.8-.2c2.4-.6 2.6-.7 2.3-1.3-.2-.3-.4-.3-1.5 0-1.8.7-4 1.2-5.3 1.2-.8 0-1.2 0-1.2.3 0 .6 3.1.5 5.7-.2zm-15.8-1.6c.3-.4 0-.5-.4 0-.2.2-.3.3 0 .3l.4-.3zm20.8-.8c1-.5 2.1-1.8 2-2.5 0-.4-.3-.2-.8.6s-1 1.2-1.5 1.3c-1 .2-2 .7-2 1.1-.2.5.9.2 2.3-.5zm-6.4-.4a8 8 0 0 0 2-.7c-.3-.4-4.4.9-4.4 1.3 0 .2 0 .2 2.4-.6zm-16.7.2c0-.2-.9-.5-1.6-.5-.9 0-.5.5.4.6l1 .1c.1 0 .2 0 .2-.2zm20.6-.4c1.1-.6 2.5-1.7 2-1.7-.7 0-2.7 1-2.8 1.4-.1.2-.4.5-.8.7-.5.2-.5.2-.1.2.2 0 1-.2 1.7-.6zM72 67l-.6-.2c-.4 0-.4 0 0 .3.8.3.8.3.6 0zm15.5 0c.3-.1.3-.2 0-.2s-.6.1-.8.3c-.4.2-.4.2 0 .2.2 0 .5 0 .8-.2zm5.6-1c.2-.2.4-.4.4-.6 0-.5-1.2-.2-2.4.6l-.9.6 1.2-.2 1.7-.4zm3.2-.5c.3-.5-.1-.9-.5-.5l-.4.5c0 .3.7.3 1 0zm-10-.7a6 6 0 0 0 .8-2.3c.1-1.3 0-1.6-.6-2.6-.9-1.4-.9-1.4-1-1.2-.1 0 .1.6.5 1.3.9 1.5.8 2-.1 4-.6 1-.7 1.5-.4 1.5.2 0 .6-.3.9-.7zm-2.6-1.5c.1-1.4-.2-1-.7.5-.4 1.4-.4 1.6.1 1.1.2-.2.5-1 .6-1.6zm8.6 1.3c1-.2 2.3-1.1 2.3-1.5 0-.2-.2-.1-.5.1-.5.5-1.1.6-1.4.3-.1-.1 0-.4.3-.6.2-.2.3-.3 0-.3-.1 0-.5.2-.7.5-.3.3-.6.5-.8.5l-.4.8c0 .6 0 .7.2.6l1-.4zm-17.3.1.3-.3c0-.2.2-.5.5-.7.3-.2.5-.5.4-.6 0-.1.1-.4.4-.5.4-.2.6-.2.8.2.2.4.3.3.2-.5 0-.8-.2-1-.8-1h-1.4c-.7.2-1.6 1.6-1.8 2.8-.2.9-.1 1 .4.8l1-.2zm20.2-.4c.7-1 .5-1.4-.2-.5l-.7 1c0 .4.5.1 1-.5zm-13-.3c.6-1.5 0-4-.9-4-.2 0-.2 0 0 .3.2.1.3.5.3.8 0 .4-.1.3-1-.5-1-1-1.6-1-1.6-.3 0 .2.2.3.5.2.7-.1 1.3 1 1.5 2.9.2 1.4.7 1.7 1.2.6zm2.7.3.2-.9c0-.4 0-.4-.4 0-.5.7-.5 1.3-.2 1.3l.4-.4zm4.5-.8c.3-.7.2-2 0-2.5-.3-.3-.3 0-.4.8l-.1 1.7c-.1.2 0 .4 0 .4.2 0 .4-.2.5-.4zM80 62c-.2-.4-.3-.4-.3.2l.2 1c.3.2.4-.7.1-1.2zm14.2-1.4c0-.2-.1-.1-.6.2-.3.2-.7.5-.7.7 0 .3 1.2-.4 1.3-.9zm-10.2.2c0-.2-.3-.6-.6-.8-.6-.6-.6-.5-.2.5.3.7.8.9.8.3zm6.5-1c-.3-1-.6-1.5-.9-1.2-.2.2.7 2 1 2 .1 0 0-.3 0-.8zm-16.2-.6-.1.4c0 .3 0 .5.1.3v-.7zm21.3.2c0-.2-.1-.4-.3-.4l-.2.4c0 .3 0 .4.2.4s.3-.1.3-.4zm-18.7-.2c0-.3.4-.5.8-.7.3 0 .6-.4.6-.7 0-.6.5-.7.7 0 0 .3.4.4.8.4 1 0 1.3-.3 1-1-.2-.7.2-3 1.2-5.5s1.3-3.2 2.9-5c1.8-2.1 2-2.3 1-2.1-.4.1-.7 0-.8-.2-.2-.6-.9-.6-.9 0 0 .2-.2.4-.4.4-.4 0-.4 0 0 .3.8.3.8.5.1 1-.4.2-.5.2-.6-.2-.3-.5-1.5-.5-1.5.1 0 .4-.3.6-1 .8-.6.2-1 .5-1 .7 0 .3-2 2-2.4 2-.6 0-2 6-1.9 8.2 0 .8.1 1.2.2 1 .2-1.3.7-2.6 1-2.6.2 0 0 2.3-.3 3v.5c.2 0 .4-.2.5-.4zm1.1-2.8V56s0-.3-.4-.7c-.4-.7-.5-1.2-.5-2.8 0-2 .4-2.8 1.4-2.8.5 0 .5 0 0 .5-.2.3-.4.7-.3 1 .1.2 0 .6-.1.8-.3.4-.2.6.3 1.2.3.3.5.8.4 1.1 0 .3 0 .7.2.8v1c-.4.5-.7.6-1 .2zm2.5-6.8c0-.4.6-.9 1.1-.9.6 0 .6.3 0 .7-.5.4-1 .5-1 .2zm1.5-1.7c-.2-.3.5-.6 1-.4.2 0 0 .2-.3.4-.4.2-.6.2-.7 0zM94.3 59l-.1-.2c-.2 0-.3.1-.3.2l.1.3.3-.3zm-7.4-1c-.5-.9-1.7-1.5-1.7-.8 0 .1.2.3.5.3s.7.3 1 .7c.2.5.5.8.6.8.1 0 0-.4-.4-1zm4.4-.8-.6-.8c0-.5-.4-.2-.6.4-.1.5 0 .8.7 1.4l.9.8v-.7c.1-.4 0-.8-.4-1.1zm-3 .6c0-.6-1-2.2-1.4-2.2-.7 0-.6.5.1 1.3.5.5.8 1 .8 1.1 0 .1.1.2.3.2.1 0 .3-.1.3-.4zm6.8-.3c-.2-.2-.5.2-.2.5.1.3.2.3.3 0v-.5zM89.5 55c-.2-.8-1.5-2-1.9-1.7 0 .1.1.5.4.8l1 1.5c.3 1.1.9.7.5-.6zm2.3.3c0-.5-.3-1-1-1.8-.9-.9-.9-1-.8-.2.2.6 1.5 2.8 1.7 2.8v-.8zm2.3 0c0-.1 0-.2-.2-.2s-.4.3-.5.5c0 .2 0 .3.3.2l.4-.4zm-6.5-.6c0-.2-.2-.4-.4-.4-.3 0-.4-.2-.3-.9.2-.8.1-.8-.3-.3-.5.6-.5 1.4.1 1.7.6.4.9.3.9-.1zm-3-.4c0-.2-.3-.3-.7-.3-.6 0-.6 0-.2.3.7.3 1 .3 1 0zm10.1-2.4c0-1.5 0-1.6-.7-2-1.3-.6-3.6-1-4.3-.7-.6.3-.6.3-.1.3.3 0 .7.2 1 .4.3.2 1 .4 1.5.4s1.2 0 1.4.2c.7.3.1.6-1 .6-1 0-1.2.1-1.2.3.1.2.4.3.8.3 1.3-.2 1.6-.2 1.7.1.1.2 0 .4-.4.4-.3 0-.6 0-.6.2s.3.3.5.3c.9-.1 1.1 0 1.1.4l.2.4.1-1.6zm-10.3 1c-.6-.2-1-.2-1.1 0-.3.2 0 .3.8.3h1.2zm72.2 0-.2-.2c-.2 0-.4.1-.4.3-.1.1 0 .2.2.2l.4-.2zm-68.1-.6c-.6-.5-1-.5-1-.2s.5.5 1.1.6c.3 0 .3-.1-.1-.4zm-37.7-.4c-.2-.3-.4-.3-.9 0-.5.2-.5.2.3.2.7 0 .9 0 .6-.2zm8.8 0c.2-.3-2.7-1-6-1.3l-3.5-.4c-.7-.1-.6 0 .4.4a11 11 0 0 0 6.3 1.5c1.5 0 2.7 0 2.8-.2zm26.1 0c0-.1-.4-.3-1-.2-.9 0-1 0-.3.2 1 .3 1.3.3 1.3 0zm4.6-.6c-.2-.2-.4-.2-.5-.1-.2.1 0 .3.1.4.5.3.8.1.4-.3zm65.8-.6c0-.4-2.4-.7-7.9-.7-2.7 0-4.3.1-4.3.3v.3a130.3 130.3 0 0 0 12.2.1zm-70.4-1.4c-.7-.1-1 0-.7.5.2.2.4.1.8 0l.6-.4zm-44.6-.2h-1.2H41zm47.3-.1c0-.1-.2-.2-.4-.1-.3 0-.4.2-.4.2 0 .1.1.2.4.2.2 0 .4-.2.4-.3zm5.9-.3-.2-1c0-.6-.5-2.7-.9-3.5-.4-.8-1-1-1.6-.5-.2.3-.2.4.1.7.4.2.4.4.1.7-.4.5-.2.6.9.8.3 0 .5.2.6.3 0 .2-.5.3-1.8.2-1.5 0-2 0-2.5.3-.5.4-.5.4.6.3 1-.2 1.1-.1 1.5.6.3.5.9 1 1.7 1.2 1.7.5 1.7.5 1.5-.1zm-2-1c-.3-.3-.5-.6-.4-.7.3-.3 1.6.5 1.7 1 .1.6-.5.5-1.3-.2zm-5.5.8c.3-.2.2-.3-.4-.3-.4 0-.7.1-.6.3.2.3.5.3 1 0zM90 48h-.8c-.2 0-.1.1.3.1h.5zm-11.2-.6c0-.1-.2-.2-.4-.1-.2 0-.4.3-.4.4 0 .1.2.1.4 0 .2 0 .4-.2.4-.3zm66 .4-.1-.6c-.4-.5-4.3-.5-4.2 0 .1.3 1.3.5 3.6.7l.7-.1zm9.2-.1c-.6-.4-8.8-.7-8.8-.3 0 .2 1.8.4 6.7.5 1.5 0 2.3 0 2-.2zM87.6 47c0-.3-1-.3-1.2 0v.4c.2.2 1.2-.1 1.2-.4zm52.5-.8c3 0 4.3 0 4.3-.3 0-.4-15-.1-15.7.3-.4.3.2.3 3.3.2l8.1-.2zm-18-.4h-.5c-.2 0-.1.1.2.2.3 0 .4-.1.3-.2zm7.4-.4c.7-.1.6-.2-.6-.2-.9 0-1.4 0-1.3.2.2.3.7.3 1.9 0zm26.5 0c0-.1 0-.2-.2-.2l-.2.2v.3l.4-.3zm-34.8-.3c.1-.3 0-.4-.6-.6H118c.3.1.5.4.5.6 0 .5 2.5.5 2.7 0zm33 0 .2-.8c.1-.4 0-.5-.6-.4-.9.1-1 .5-.5 1.1.5.5 1 .6 1 0zM89 44.9c.3-.2.4-.4.3-.4l-.8.4c-.3.2-.4.4-.3.4l.8-.4zm61.2 0h-.5c-.2 0-.2 0 .1.1.3 0 .5 0 .4-.1zm-26.7-.3h-.5c-.2 0-.2.1.1.1.3 0 .5 0 .4-.1zm17.7-1c.2-.3.2-.7.1-.9-.1-.5.4-.6 1.4-.3 1.3.4 1.6 0 1.3-1.3-.2-1.3-.7-1.3-.9 0 0 .4-.3.9-.4 1-.3 0-.4-.5-.4-2v-2l-.8-.1h-1v2.3c0 1.7 0 2.1-.3 2-.3 0-.4-1-.5-3.4 0-3.2-.2-4-1-4-.3 0-.3.7-.3 3.2 0 2.7-.1 3.2-.4 3.2-.3 0-.4-.6-.5-3.2 0-2.7-.1-3.3-.5-3.3-.8-.2-1 .3-.8 3.7 0 2.9.1 3.3.4 2.9.4-.5.4-.5.6 0 .5 1.6 1 1.8 1.4.7.2-.5.4-.8.6-.6.1 0 .2.3.1.5-.1.4.3 1.7.8 2 .5.4 1 .2 1.1-.4zm3.2.2-.5-.4c-.1 0-.3.2-.3.4 0 .3.3.4.6.4.5 0 .5 0 .2-.4zm7.7 0-.2-.4c-.2 0-.3.2-.3.4s.1.4.3.4l.2-.4zm-34.6 0zm7-.1c-.9-.2-1.4-.2-1.6 0-.2.2.2.3 1.3.2h1.6zm26.3-1c0-.7 0-.9-.4-.8l-.6.2c-.2 0 0 1.6.3 1.7.5.2.7 0 .7-1zm-2.5 0c0-.7-.1-1-.4-1-.4 0-.7 1-.4 1.6.2.7.8.3.8-.7zm-12.2.5c0-.2-.4-.3-.7-.3-.3 0-.4.1-.4.3l.7.2c.3 0 .5 0 .4-.2zm-4.1-1c.2-.4.4-.9.6-1 .5-.1 0-.6-.9-.8-.6-.2-.7-.1-.8.7-.3 2 .5 2.9 1.1 1.2zm14.3.2c0-.7-.4-1.4-.9-1.4-.2 0-.2 1.1 0 1.7.3.8.9.5.9-.3zm-16.1.3-.4-.8c-.4-.5-.4-.6 0-.8.3-.2.4-.6.3-2 0-1.6 0-1.6-.9-1.6h-.8l.1 1.7c0 1 .3 1.9.5 2.1.2.3.4.6.4.9l.1.5c.3.3.7.2.7 0zm3.9-.4c0-.5 0-.6.6-.7h.8l-.1-2c0-1.7-.1-1.9-.7-2-.9 0-1.1.4-1 2 .1 1.3 0 1.5-.4 1.6-.8.3-.6 1.7.3 1.7.4 0 .5-.2.5-.6zm.2-2.6c-.1-.1 0-.2.2-.2s.4 0 .4.2 0 .3-.2.3-.4-.1-.4-.3zm18.6 2.5c0-.3-.1-.7-.3-.8-.2-.3-.2-.4 0-.7.2-.3.4-1 .4-1.7 0-1.2 0-1.3-.7-1.3-.8-.1-.9 0-.8 2.8.1 2 .1 2.1.8 2.1.4 0 .6-.1.6-.4zm1.6 0c0-.2-.2-.4-.4-.4s-.4.2-.4.4c0 .3.2.4.4.4s.4-.1.4-.4zm1.3.2c0-.2-.1-.3-.2-.3-.2 0-.3.1-.3.3 0 .1.1.2.3.2.1 0 .2 0 .2-.2zm-67-.7c.2-.2.9-.4 1.4-.5 1-.2 3.1-1.4 3.3-2 .1-.3 0-.3-.2 0-.5.4-2 .3-2.2-.2-.1-.2.6-.5 2.5-1 .2 0 .3-.4.2-.7 0-.3.2-.7.4-.8.6-.4 1 0 .5.4-.2.3-.2.6 0 .9.2.5.3.4 1-1.4.2-.8.3-1.7.2-2 0-.2 0-.9.4-1.4.4-.9.4-1 .1-1.4-.3-.3-.2-.6.6-2.2.9-1.7 1-2.2 1.2-5.2.3-2.8.2-3.3-.2-4.5l-.6-2.9a8 8 0 0 0-.5-2.1c-.4-.7-1-.8-1.2-.3-.1.3-.7.7-1.2 1-1 .7-2.2 2.4-1.6 2.4.1 0 .2.3.2.7 0 .7 0 .7.5-.3.6-1.3 1.5-2.1 2-2 .6.3.5 1-.4 2.7-.9 1.8-1 2.7-.3 4.1l.4 1 .3-1c.3-1 .6-1.3.9-.6.2.5-.3 3.4-1 5.4-.3 1-.3 1.4 0 1.7.3.4.2.6-.5 1.2-.9.9-.9 1.6 0 1.6.3 0 .5.1.5.2 0 .3-2.3 2.5-2.6 2.5-.4 0-.4-.5 0-.7l.3-.8c0-.5 0-.7-.5-.7-.8 0-.8-.3 0-.8.4-.4.5-.5.1-.5-.3 0-.6-.2-.7-.4-.2-.4-.4-.5-.9-.1-.5.3-.6.2-1.4-.5-.9-.9-1.6-1-2.7-.5a8 8 0 0 1-1.9.6c-1 .2-1.1.1-1-.2.2-.6-.5-.6-1.4 0-.9.4-1.8.4-2 0-.3-.4-.5-.5-1.3-.2-1 .2-2.3 1.2-2.3 1.6 0 .1.3.3.6.3.8.1 1 1 .3 1-.6 0-1.1.7-1.1 1.5 0 .6.9 1.6 2 2 .5.2.6.3.5.7-.1.4.2 1 1.7 2.4 1.7 1.8 2.7 2.3 2.7 1.5l-.4-.7c-.5-.3-1.8-3-1.8-3.5 0-.3-.2-.7-.5-1-.4-.3-.6-.5-.5-.6l1.6-.2c1.4-.1 1.6 0 1.6.3 0 .6 2.4 1.5 3 1h1.3c1 .4 1.4.7 1 1-.2 0-.3.3-.2.4.3.4-.1 1.3-.5 1.3-.2 0-.4.1-.3.3 0 .4-1.7.5-2.7 0-.5-.1-.9-.5-.9-.8 0-.3-.3-.8-.8-1.2-.9-.8-.9-.8-1-.2l.6 1.7 1 1.8c.6 1.3 2.9 1.8 4.3.9zm.7-1.3c-.7-.3-.3-.7.7-.7.8 0 1 .1 1 .4-.1.3-1.2.5-1.7.3zm.7-2.8c0-.2 2.3-.6 2.7-.4.1.1.2.3 0 .4-.1.3-2.7.4-2.7 0zm.9-1.6c0-.4 1.5-.7 1.5-.3 0 .3-.6.6-1.3.6-.2 0-.3-.2-.2-.3zm-4.7-1.4c-.8-.7-.8-.7.3-1 .2 0 .2-.2 0-.6-.4-.4-.5-.4-.9-.2-.3.3-.5.3-.7 0-.5-.5.6-1.6 2.2-2l1.4-.4.9 1c.5.5 1 .9 1.3.8l.5.1c.2.4-.3 1.3-1 1.5-.3 0-.8.3-1 .5l-1 .5-.8.3c-.3 0-.8-.1-1.2-.5zm1-2.5c.1-.2 0-.3-.2-.3s-.5.1-.6.3c0 .1 0 .2.3.2l.5-.2zm-6 2.6c0-.2.2-.2.3-.1.2 0 .3.2.3.2 0 .1-.1.2-.3.2l-.2-.3zm-2.8-3c.1-.3 1.5-.8 1.7-.6.3.3-.2.6-1 .8-.6.2-.8.1-.7-.1zm2.7 0c-.1-.2 1-.7 1.5-.7.2 0 .5.6.5.9 0 .1-1.9 0-2-.2zM111 41.8c0-.1-.1-.2-.4-.2l-.6.2c0 .2.2.3.4.3s.5-.1.6-.3zm-65.8-.6-2.5-.9c-3.5-1.2-4.4-1.6-4.4-2.1 0-.3-1.1-1.7-2.5-3.2-2.4-2.4-2.8-2.7-4.1-3l-1.6-.7c0-.3-2.6-1-2.8-.7l1.3.8c2.5 1 3.7 2 3.7 2.7 0 .7 1.2 2.7 2.6 4.1.8.8 1.3 1 2 1 .4 0 1.7.4 2.8.8 1 .5 2.4 1 3 1 1.2.3 2.7.4 2.5.2zm105.6-1.7c0-1.6 0-1.9-.6-2-.7-.3-.9 0-.6.9.2.4.2.9.1 1.1-.4.6.2 1.8.9 1.8.1 0 .2-.8.2-1.8zm-34.9 1c-.2-.2-.3-.2-.3 0 0 .3.3.6.5.4 0 0 0-.3-.2-.4zm5.8.3c0-.2-.2-.3-.4-.3s-.4.1-.4.3l.4.2c.2 0 .4 0 .4-.2zm1.7 0c.1-.2 0-.3-.1-.3-.2 0-.3.1-.3.3l.1.2s.2 0 .3-.2zm2.2-.2c-.1-.6-1.3-.8-1.3-.3s.3.7.9.7c.3 0 .5-.1.4-.4zm2.2-1.4c0-1.5-.1-1.8-.7-2.4l-.6-.6v1.6c0 2.3.2 3.2.8 3.2.4 0 .5-.2.5-1.8zm27.9.8c-.3-.4-.7.2-.5.7.1.3.2.3.4 0 .1-.3.2-.6 0-.7zm-7 .4c.3-.6 0-1.2-.6-1.2-.4 0-.9 1-.6 1.4.2.3 1.1.2 1.3-.2zm5.7-.2c0-.3-.2-.6-.3-.6-.1 0-.3.3-.3.6-.1.4 0 .6.3.6s.4-.2.3-.6zm-7.9-2.8c0-2.3 0-3 .3-3.2.2 0 .3.2.3.5 0 .7 1 1.3 1.3.8.2-.3.1-.5-.1-.8-.3-.3-.3-.4 0-1 .4-.5.7-.6 1.7-.6 1.9 0 2.4.2 2.4 1 0 .5-.2 1-.4 1.1-.7.6-.4 1.5.4 1.5.6 0 .6-.2 1-1.7 0-.9.3-1.7.5-1.9 0-.1.7-.3 1.3-.3 1.4-.1 1.3-.6-.2-.7-1.4-.2-1.4-.7 0-.8.6 0 1-.2 1-.3 0-.5-1-.7-2.5-.4-1.5.2-1.7.3-1.3.6.6.5.5.9-.2.9-.3 0-.7 0-.9.2-.2.2-.5.2-1.3 0l-2.2-.4a6 6 0 0 1-2.2-.8c-.6-.4-1.6-.7-2.2-.8l-1.3-.1.7.5c.3.3 1 .7 1.4.7.7.2 1.1.6.9.8-.3.3-3.2-.4-3.7-.9-.7-.6-.8-.3-.5 1.5.1 1.3.3 1.5.8 1.6.4 0 .6-.1.8-.5.3-.7.5-.4.6.8.1.9 1.2 1 1.3.2.2-.9.7-.8.9.1.2 1.2.2 1.2 0 3-.2 2 0 2.5.8 2.5h.7v-3zm-1.7-3.8c.1-.5 1.5-.6 1.5-.1 0 .3-.3.4-.8.4-.6 0-.8-.1-.7-.3zM99.5 40c0-.2-.2-.3-.4-.3-.3 0-.4.1-.4.3 0 .1.1.3.4.3.2 0 .4-.2.4-.3zm9.6-1-.8-.6c-.2 0-.7-.5-1.1-1.2-.8-1.1-.9-1.3-.6-2.1.3-.7.3-1 0-1.3-.4-.5-1-.5-1 0 0 .2-.3.4-.6.4-.5 0-.5 0-.4.8.3 1.1.8 2 1.5 2.4.4.2.5.4.4.9 0 .3 0 .7.2.9.4.3.4.2.4-.1 0-.6 1-.5 1.5.1.3.3.6.5.8.5.2 0 .1-.2-.3-.6zm3 .5c0-.2 0-.3-.2-.4-.1-.1-.3 0-.3.2s.2.4.3.4c.1 0 .3 0 .3-.2zm21-.9c0-.9 0-1-.7-1-.8-.1-.9-.6 0-.8.4-.1.5-.3.5-1 0-.5-.3-1.1-.5-1.4-.4-.4-.4-.6-.2-1 .3-.5.3-.6-.2-.6h-.8c-.4 0-.6 1.6-.5 4.1 0 1.6 0 2 .6 2.4.9.7 1.6.5 1.7-.7zm11 .7c.1-.4-.3-1.2-.7-1.2-.2 0-.3.4-.3.8 0 .9.7 1.2 1 .4zm-30.4-.4a2 2 0 0 0-.4-.9 2 2 0 0 1-.3-1c0-.2-.2-.4-.3-.4-.3 0-.2.6.3 2 .2.6.8.9.7.3zm8.5 0-.2-.6c-.2-.1-.3 0-.3.4 0 .3.1.5.3.5l.2-.4zm2 0c0-.4-1.2-.7-1.2-.3 0 .4.3.6.9.6.3 0 .4-.1.4-.3zm1.7 0-.2-.6h-.3l-.2.5c0 .3 0 .4.3.4.2 0 .4-.2.4-.4zM98 37.6c.1-.5.5-1 .7-1 .6-.2 1.3.3 1.3.8 0 .2.1.3.3.2.4-.3 0-2.2-.6-2.8a2 2 0 0 1-.5-1.2c0-.6.4-.8.6-.3 0 .2.7-.3 1.5-1 .8-.8 1.3-1.5 1.2-1.7l.1-.2c.2 0 .3 0 .3.2s.2.3.5.2c.3 0 .7.1 1 .3.5.5.9.2.9-.6 0-.9.7-.9 1 0 .4.7.8.6.8-.2 0-1 .5-1.3 1.1-.8.6.5.5 1-.1.7-.3-.1-.4 0-.4.6 0 .7 0 .8.6.7.4 0 .7-.3.7-.4l.6.2c.8.5 1 .5.8-.2-.1-.4.2-1.3.6-2 0-.1.3 0 .5.3.3.5.4.5.8.2.4-.4.5-.3.9.2.6.9 1.4.6 1.7-.5v-1c-.2 0-.4-.2-.4-.3 0-.2.2-.2.4-.1.5.2.8-1 .5-1.7-.4-.7-.9-.8-1 0-.2.4-1.4.8-1.6.4h-.6c-.3.2-1.4.3-2.5.3-2.2 0-3.4.3-3.4 1 0 .6-.5.7-1 .2-.2-.4-.4-.4-1.7-.1-.7.2-2 .6-2.6 1a6 6 0 0 1-1.9.6c-.5 0-.5 0 .2-.7 1.5-1.2 7.3-2.8 10-2.8a6 6 0 0 0 2.3-.4l1.3-.4c.4 0 1-.2 1.4-.5.7-.5.8-.7.7-1.6-.1-.7 0-1 .2-1.1.2-.1.3-.7.2-2.8-.2-3.4.1-4 2.2-4.7l2-.4c.5 0 .8-.1.8-.4 0-.4 1.3-2 2.4-2.8.7-.5 1.3-.6 2.7-.6l2.4.1c.7.3 1.7-.3 1.7-1 0-1.5 1.8-2.8 4.4-3 1.1-.1 1.7-.3 2.2-.8.7-.7 3.3-2 4-2 .1 0 .3-.2.3-.4s-.8-.2-3 0c-4 .2-12.1.4-20.3.3H95a1776.2 1776.2 0 0 1-81.2-.9l-7.6-.1-.3.8c-.5 1-1.2 5.7-1 6 .2 0 .6-.2 1.1-.6.6-.5 1-.6 1.4-.5l1.5.2c.5 0 1 .3 1.2.6.2.3.5.4.8.2l1.3-.3c1.2-.1 1.4-.3 1.4-1S14.2 7 14.8 7c.3 0 .8-.4 1.2-1 .8-1 1.4-1 2.5-.4.8.5 1.3 1.5 1.3 2.6 0 .6.6 1 1.8 1 .6 0 2.2 1.4 2.2 2 0 .1.2.3.6.4.5.1.5.3.4 1.4-.3 1.8.3 3.1 1.3 3.1.5 0 1-.3 1.8-1.2.7-.6 1.2-1.4 1.2-1.6 0-.5 1.5-3.4 2-3.7l1.3-.2c1 0 1.2 0 1.8 1 .4.9.7 1.1 1.2 1 1 0 1.7 1.6 1.7 3.6 0 .8 0 1.6.2 1.7l.3.6c0 .4.1.5.6.4.5-.1.7 0 1 .5l.2 1.5c0 1 .1 1 1.1.1 1.3-1 2.2-.7 2.9 1 .2.7.4.8.9.7.5-.2.6 0 1 .7.3.6.5 1.4.5 1.9 0 .4.1 1 .3 1.1.2.2.5.7.5 1.1l.2.8 2-.1 5.4-.3c3-.1 3.4-.2 4.3-.8 1-.6 1.4-.7 3.5-.8 1.7 0 2.7-.2 3.3-.5 1.4-.7 3.8-.8 5.2-.3 1 .4 1.4.4 1.9.2.3-.2 1-.3 1.3-.3l.8-.2c.2-.4 1.5-.4 3.4 0l1.8.5s.2-.6.2-1.3c0-1 0-1.4.4-1.4s.4.3.3 1.9c-.2 2 .2 2.5.5.7.4-1.7 1-1.6.9.2-.1 1.8 0 2 2 1.5 1-.3 1.2-.5 1-1-.4-1.3-.6-4.8-.3-6.3.3-2.2 2.1-5 3.2-5.1.6 0 .9.1 1.8 1.5 1.2 1.7 1.7 2 2 1 0-.2.2-.5.3-.5.1 0 1-.6 1.8-1.4.9-.8 1.8-1.5 2-1.5.2 0 .9.5 1.4 1.1.8.9 1 1.2 1 2.3 0 .6.2 1.6.4 2.2 1.1 2 .9 8-.4 11a4 4 0 0 0-.4 1.7c0 .4 0 1-.2 1.5-.4 1-1.3 5.7-1.1 6 .3.5 1.3 0 1.5-.8zm11.3-8.3c0-.1 0-.3.2-.3l.4.3c.1.2 0 .3-.2.3-.3 0-.4-.1-.4-.3zm2.2 8.9c-.2-.5-.6-.5-.8-.2 0 .2 0 .3.3.4l.6.1-.1-.3zm43-.8c0-.7-.1-1.2-.3-1.2-.1 0-.2.2-.1.5l-.1 1c-.3.5-.2.9.3.9l.2-1.2zm1 0v-1.3l-.2.9c-.2.5-.2 1-.1 1.2.2.7.4.3.3-.9zm-51.2 0c-.1-.7-.9-1-.9-.4 0 .3.8 1.4 1 1.2l-.1-.8zm16.3.5c.2-.2-.4-1-.8-1-.2 0-.4.3-.4.7-.1.7 0 .7.5.6l.7-.3zm28-.3c0-.5-.2-.8-.7-.8-.4-.1-.5 0-.5.5 0 .8.1 1 .8 1 .4 0 .5-.2.4-.7zm-46.1-2.3c-.5-1-.8-1.5-1.2-1.5-.2 0-.1 2.2.2 3.3l.1.7.7-.6.7-.7zm23 .7c0-.2-.2-.3-.4-.3-.3 0-.3 1 0 1.6.4.5.4.5.5-.2v-1zm-92.7 1.1c0-.4-1.5-2.2-1.8-2.2-.4 0-.7.4-.3.6l.2.6c0 .5.8 1.1 1.4 1.1h.5zm81.4-.4c0-.2-.2-.2-.2.1 0 .3 0 .5.2.4v-.5zm20.8.4c.4-.1.4-.6.4-2.3 0-1.3.2-2 .3-2 .2 0 .4.2.5.5 0 .3.3.5.5.5.5 0 .5-2.5 0-2.7-.8-.3-1-.2-1 .3 0 .3-.1.6-.3.7l-.2.7c0 .3-.1.4-.3.3l-.2-.6c0-.3-.3-.7-.6-1-.3-.2-.5-.6-.5-1 0-.2-.1-.4-.3-.4-.1 0-.2.6-.2 1.3 0 .7 0 1.4.2 1.5.2 0 .3 1 .3 2 0 1.4 0 1.8.5 2 .5.4.4.4 1 .2zm7-1c0-1.3-.1-1.4-1.1-1-.5.3-.7.6-.7 1 0 1 .2 1.1 1 1.1s.8 0 .8-1.1zm2.4.8c0-.5-.9-.8-1.3-.6-.6.4-.2 1 .5 1 .6 0 .8-.2.8-.4zm-33-1.1c0-.4-.1-.6-.4-.5-.4.1-.7-1.1-.5-2 .2-.7-.6-.8-1 0s0 2 .8 2.8c.7.7 1 .6 1-.3zm12.7.8c.3-.3-.1-1.2-.5-1.2s-.4 0 0-.2c.2 0 .5-.3.6-.5.3-.4.3-.4.5 0 .2.6 1 .5 1-.1 0-.8-.6-1.3-1.4-1.2-.5 0-.6-.1-.7-1 0-.7 0-1 .3-1 .5 0 .6-1 .2-1.2-.2 0-.5 0-.7.3-.2.3-.4.4-.6.3-.7-.4-1 1.4-.3 2l.2 2c0 1.5.2 1.8 1 1.9l.4-.1zm5.8-1.5-.2-1.4-1.3-.3-1.2-.2v1.3c0 1 .1 1.2.6 1 .3 0 .5 0 .5.2 0 .5.4.7 1.1.7.4 0 .5-.2.5-1.3zm20.9 1.2c0-.6-.6-1.4-1-1.4-.7 0-.8.7-.3 1.2.3.3 1.3.5 1.3.2zm-42.6-.4c0-.2-.1-.6-.3-.8-.2-.3-.2-.2-.2.4 0 .4 0 .7.2.7s.3-.2.3-.3zm11.6-.5c0-.5-.1-.8-.4-.8-.4 0-.5 1-.2 1.4.4.4.6.2.6-.6zm-6.3-.2c-.2-.4-.3-.4-.3 0s.3.8.5.6l-.2-.6zm-38.3-.8c-.4-1-.4-1.3 0-2.6.4-1.2.7-1.5 1.8-2.2 1-.6 1.4-1.2 1.8-2.1.7-1.6.7-2 0-2.4-.8-.4-3.4-.6-4-.2a2 2 0 0 1-1 .2c-.3 0-.9.1-1.2.4-.6.3-.8.4-1.1 0a7 7 0 0 0-4-.8c-.6.1-1.4.4-2 .7-.6.3-1.3.4-2.8.4-1.9 0-2.1 0-3.5.8-1.1.8-1.7 1-2.9 1-.8 0-1.7 0-2.1-.2a4 4 0 0 0-2.1.1c-.9.3-2.8.4-4.8.5-1.8 0-3.8.1-4.5.3-1 .2-1.6.2-2.6 0-.8-.2-2-.3-2.8-.3-1.3 0-1.5 0-1.2.4l1 .7c.3.2.4.2.3-.2-.3-.7.2-.7 1.4 0 1.2.5 2.9.6 3.2 0 .1-.1.4-.1.8.1s.9.3 1 .2c.7-.2 3 .3 3.5.8.3.3.4.6.3 1-.2.5.2.6.6.1.2-.2.3-.4.1-.6l-.4-.9c-.2-.7.5-.8 1 0 0 .3.3.5.5.5.1 0 .2-.2.2-.5l.2-.6c.4 0 2.2 1.8 2.2 2.1 0 .2.2.3.4.3.3 0 .6-.5 1-1.3.6-1.4 1.1-1.8 1-.7-.2.7.3 1.4.8 1.1l.2-.5c0-1 .8-.3 1.1.9.4 1.5.6 1.5.6 0 0-.5.2-1 .5-1 1.9-1 1.8-1 2.4-.3 1 1.2.5 1.6-1.5 1.2-.9-.2-.8.3 0 .8.4.1.7.5.8.9l.2.6.2-.6c.2-.8.7-1 .9-.3.3 1 .6.5.6-1.2 0-2 .4-2.9 1-2 .5.6.5 1.1 0 1.1-.6 0-.5.5 0 .7l1.1.7c.8.7 1.4.3.9-.6-.3-.6-.4-2.7 0-2.7l.4 1.2c.1 1.3 1.3 2.7 1.7 2 .1-.2.3.2.7 1.3.7 2 1.2 2 1.5 0 .3-2.4.3-2.4 1-2 .6.4.8.8.8 1.3 0 1 .5.9 1-.3.3-.7.5-.8 1.1-.7.5.1.8 0 .8-.2a14 14 0 0 1 3-4.1l.4.1c0 .3-.6 1.4-1.3 2.2-.4.4-1 1.3-1.1 2-.4 1.5-.6 1.7-1.5 1.5-.8-.1-1.4.5-1.4 1.5 0 .8.5.8.6 0 .1-1 .7-.9.7.2 0 .8.1 1 .8 1 .4 0 .9 0 1 .2 1 .6 1.1.3.7-1zM67.5 31c-.2-.1-.3-.5-.3-.9 0-.8-.3-1.4-.7-1.4-.4 0-.5-.4-.2-.6.5-.3 1.2.6 1.5 1.8l.4 1.4c0 .2-.4 0-.7-.3zm-15.2 0c-.3-.3-.2-1.5 0-1.5.4 0 .7 1 .4 1.4-.1 0-.3.1-.4 0zm18.9-.6c0-.3.1-.7.3-1 .3-.4.4-.4.5-.1.2.4-.2 1.5-.6 1.5l-.2-.4zm-5.7-.3v-.5c.2-.3.4 0 .3.5 0 .2-.1.2-.3 0zm7-.5c0-.4 1-2 1.2-2 .5 0 .5.3 0 1.3-.3.5-.6.9-.8.9-.3 0-.4 0-.4-.2zm-4.6-1c-.4-.8-.4-1.2 0-1.2.2 0 .3.3.3.6 0 .8.7 1 1.4.6.5-.3 1 0 .6.4l-1 .4c-.9.1-1 0-1.3-.7zm2.7-.4c0-.2.2-.3.4-.3.3 0 .4.1.3.3l-.4.2c-.2 0-.3 0-.3-.2zm51 7.1V35s-.2 0-.3.2c-.1.2 0 .3.1.3.2 0 .3-.1.3-.3zm-6.8-.7c0-.6 0-.7-.2-.2-.2.3-.2.6-.1.7.2.4.3.2.3-.5zm11.8-1.8c-.2-.5-1-.5-1 0 0 .3.2.6.5.8.2.3.4.8.4 1.2l.1-.5v-1.5zm28.6 1.9c.3 0 .5-.2.6-.4 0-.2-.2-.3-.8-.2-.7 0-1 .2-1 .7 0 .6 0 .6.4.3.2-.3.6-.4.8-.4zm-51.6-.7c-.2-.7-.6-1-1.2-1-.4 0-.4.3.1 1.3s1.3.8 1-.3zm13.6.7c0-.3-.1-.4-.3-.4-.1 0-.2.1-.2.4 0 .2 0 .4.2.4s.3-.2.3-.4zM70 34c.5-.7.4-.8-.2-.8-.3 0-.5.2-.5.6 0 .8.2.8.7.2zm38.1-1.6c-.4-.4-.4-.4-.4.4 0 .4 0 1 .2 1.3.1.4.2.3.4-.4s.2-1-.2-1.3zm8 1.6c.3-.7-.1-1.5-.5-1-.2.4 0 1.4.2 1.4l.3-.4zm-49.8-.2c.2-.4-.3-1.2-.7-1.2-.3 0-.4 1.1 0 1.4.2.3.5.2.7-.2zm45.8 0c-.2-.4-.7-.5-.7 0 0 .2.2.4.4.4s.4-.2.3-.3zm27.8-.4c0-.3 0-.6-.2-.6a9 9 0 0 1-1-.1c-.8-.2-.9-.1-.9.4 0 1 2 1.4 2.1.3zm-19.8-.3c0-.6 0-.8-.3-.6-.1.1-.1.5 0 .8.2.8.3.7.3-.2zm-56.6.2c0-.6-.8-1.1-1.1-.8-.2.2-.1.4.2.7.5.5.9.6.9 0zM114 33l-.2-.4c-.2 0-.3 0-.3.3 0 .2.1.4.3.4.1 0 .2-.1.2-.3zm15.4-.6c-1.1-.5-2.2-.5-2.2-.2s.7.5 2 .5h1zm-25.7-.3c0-.3-.1-.4-.3-.3l-.2.4c0 .2 0 .3.2.3s.3-.2.3-.4zm18-.6c0-.5 0-.9-.2-.9-.1 0-.2.2-.2.5l-.3 1c-.1.3 0 .4.2.3.2 0 .4-.5.4-1zm-66.2.4c0-.3-1.2-.9-1.5-.7 0 .1 0 .4.2.6.4.5 1.3.6 1.3.1zm84.4-.8c0-.5-.2-1-1-1.8-1-1-1-1-1-.6 0 .3 0 .6.2.6.3 0 .3.8 0 1.8-.1.3.1.5.5.6 1 .3 1.2.2 1.3-.6zm-7.4-.1c0-.6-.3-.8-.8-.8-.4-.1-.7 0-.8.3-.3.7 0 1.2.9 1.2.7 0 .8 0 .7-.7zm-6.1-.2c0-.3 0-.4-.6-.4s-.9.4-.5.9c.3.3 1 0 1.1-.5zm1.1.4c0-.5 1-.6 1.7-.2.5.4.7.4 1 0 .3-.4.1-.5-1.7-.8-1.5-.2-1.5-.2-1.5.5 0 .4.1.7.2.7.2 0 .3 0 .3-.2zm22.5-.5c-.7-.5-1-.6-1.9-.5-.7.2-1 .3-.8.5a7 7 0 0 0 3 .7c.5 0 .5 0-.3-.7zm-33-1c-.2-.3-.4-.7-.4-1-.3-.7-.7-.5-.7.2 0 .4.2.8.4 1 .7.3 1 .3.6-.3zm2.3 0c0-.2.2-.4.3-.5.3 0 .1-.3-.3-.7a8 8 0 0 1-2.1-4.4l.1-.9c.3 0 2 1.2 2 1.4 0 .3 0 .3-.9 0-.9-.4-.9 0-.1 1.3.3.6.7 1 1 1 .2 0 .4 0 .3.2 0 .4 1.8 1.8 2 1.6.1-.1 0-.3 0-.4-.2-.1-.5-.5-.6-.8 0-.4-.4-1-.6-1.2-.2-.3-.4-.8-.4-1.2 0-.6-.3-1-1-1.4-1-.7-1.3-1.3-.5-1.3.3 0 .5.1.5.3l.3.3c.2 0 .3-.3.3-.6s-.2-.5-.6-.5c-.3 0-.8-.1-1-.3-.5-.2-.8-.2-1.2 0-.7.4-.9 1.6-.4 2.8.2.5.2.8 0 1-.2.4-.2.6.2 1.2l.6 1c0 .2.4.5 1 .9s.8.8.8 1.1v.5c.2 0 .3-.2.3-.4zm-26-.3c0-.4 0-.4-.6-.2-.3.1-.4.2 0 .4.4.3.7.3.7-.2zm30 0c0-.4-.4-.9-.7-.9-.4 0-.5.6-.2.9.2.2.9.2.9 0zm28-.6c0-.8-.6-3-1-3.7-.3-.3-.3-.1-.2.8v1.4c-.4.2-.6 0-.8-1.8-.1-1.4-.1-1.5.3-1.4h.4c0-.5-1.3-3.3-1.7-3.8-.5-.6-.8-2-.4-2.5s.1-1.9-.4-2.6c-.3-.2-.6-1.2-.8-2l-.7-3.1c-.3-1.4-.2-2.7.3-2l.3 1.1c0 1 .4 2.1.7 2.1.1 0 .4-.5.6-1.1.4-1.5 1-2.6 1.3-2.6.4 0 .3.6-.4 2.2-.8 2-1 3.4-.7 4.5.2.5.5 1.7.6 2.8.3 2.7.6 2.9 1.1.7.3-1.4.6-2 1.5-3l1.2-1.2-.2-1.7c-.1-1-.3-1.9-.5-2-.3-.4.2-2.8.6-2.8l.5 3c.3 3.1.3 3.2-.4 4.5-1 2-1 2.5-.4 2.5.7 0 1 .6.5.9-.4.2-.5 2.3-.3 5.2.1 1.2 1.1-2 1.3-4l.4-2 .3-2.5c0-2.7.2-4 .6-4 .1 0 .2 1 .2 2.3v2.3l.8-1.3c.5-1.1.6-1.6.6-5.6V4.2l-.7-.2c-1-.3-11.2-.3-13 0-2.4.3-4.4 1.2-5.9 2.4-1 1-1.4 1-2.6 1-1.8 0-3.4 1-3.7 2-.4 1.6-1.2 2-4 1.9l-2.4-.1-1.4 1c-.7.6-1.5 1.5-1.8 2-.4.9-.5 1-1.3.8-.6-.1-1.2 0-2 .4-1.1.5-1.3.6-1.3 1.3 0 1 1.4 3 2.1 3.3.6.2.7.7.3.7-.4 0-.3.4.1.6.3.1.6 0 .8 0 .2-.3.4 0 .6 1 .5 1.8.9 2.9 1.1 2.9.2 0 .3.4.4 1v1l.1-1.2c0-1.2.3-1.3 1.3-.7 1 .7 1.1.2 0-.6-1.4-1.2-2.6-2.4-2.6-3 0-.7.4-.6 1 .3a6 6 0 0 0 3.7 2.4l2 .6c.6.2.6.2.1.6-.5.3-.7 1.5-.3 1.9.2.2 2.8.3 2.8 0l-.4-.2c-.5 0-1.1-.8-1.3-1.6a7 7 0 0 0-.8-1.9c-.4-.6-.7-1.4-.7-1.6 0-.7-.8-1.1-1.9-1-.6 0-1 0-1-.2s.3-.3.7-.3c1 0 .8-.7-.4-1.4-.9-.6-2-2-1.8-2.2l.7-.2c.6-.2.8 0 1.8 1.5l1.6 2c.4.4.4.3.2-.3-.4-1.3-.5-2.9-.2-2.9.2 0 .3.3.3.6 0 1 1.5 3.8 2.3 4.3.7.5.7.5.2.7-.5.2-.6.3-.4 1.2.3 1 .7 1.7 1.2 1.7.6 0 .3-2.9-.5-4.8-1-2.3-1.5-4.3-1.2-4.6.3-.2.3 0 .8 1.7.3 1.3 1.8 4.3 2.1 4.3.1 0 .4.4.5.9.4 1 1 1.3.7.2-.2-.8.4-3.6.7-3.4.1.1.2.7 0 1.4 0 1.2 0 1.3.7 2 1 1 1.3.6.8-.8-.3-1-.3-1 .4-1.2.4 0 .6.1.8.7l.7 1.8.4.9v-1.2c.2-1.7 0-2.2-1.2-3l-1-.7-.3.6c-.2.6-.2.5-.4-.2 0-.5-.3-1.2-.4-1.6-.4-1.1-.3-1.2.1-1.2.3 0 .5.3.7.6.2.7 2.4 2.7 2.6 2.4l.4-1.8c.2-.9.4-1.6.5-1.5.2 0 .4.5.6 1 .5 1.7 1.2 2.8 1.6 2.4.3-.2.4-.1.4.4 0 .4.2.9.4 1.1.4.4.4.5-.1 1-.5.4-.6.7-.4 1.2.2 1 .2 1 1.1 1.7l.8.5-.1-1.9c-.2-1.5-.2-1.9.2-1.8.2.1.4.8.5 2.1.1 2 .5 3.2 1 3.2.2 0 .2-.3.2-.6-.4-1.7-.4-2.3-.2-2.5.2 0 .3 0 .4.2.4 1.6 1 3.4 1.2 3.4.1 0 .4 0 .6.2.4 0 .5 0 .5-.5a78 78 0 0 1-1-3.2c-.4-1.2-.5-1.3-1-1.1-.6.1-.8 0-1.2-1-.3-.6-1.2-2-2.1-2.9-1.6-1.6-2.7-3.1-2.2-3.1l1.8 1.8a9 9 0 0 0 1.9 1.9c.2 0 .3-.4.3-.9 0-1 1.2-4.2 1.8-4.7.6-.6.7 0 .1 1.2-.3.6-.7 2-.9 3-.3 2.2 0 3 1 3.6.4.2 1 .7 1.3 1.1l.6.8.1-1.3c.1-1.3.2-1.3.4-.6a11.6 11.6 0 0 0 3.6 6.8l.2-.8zm-26.7-6.6c0-.2.2-.3.4-.3s.3.1.3.3l-.5.2s-.2 0-.2-.2zm22.5-1.6a73 73 0 0 0-1-2.9c-.5-1-.5-1.4-.2-1.4s2.2 4.5 2.2 5.3c0 1-.4.6-1-1zm-26.5-1.3c-.2-.4-.5-.6-1-.6-.6 0-.7 0-.6-.5 0-.5.2-.5 1-.4 1 .2 1.3.5 1.5 1.3.1.8-.5 1-.9.2zm9.3-1.8c0-.6-.2-1.3-.3-1.4l-1.2-1c-.6-.4-.9-.9-.9-1.3 0-.7 0-.7 1 .2.5.6 1.2 1 1.4 1 .5 0 .5.3.5 1.9 0 1 0 1.8-.2 1.8s-.3-.5-.3-1.2zm2.5 1-.1-1.1c0-.6-.2-1.3-.6-1.7-.7-.8-.7-1.6 0-1.3.5.1.5 0 0-1-.5-.8-.5-1-.3-1.3.3-.3.4-.2.6.4.3.8 2 2.8 2.4 2.8l.4-1c.2-.6.4-1 .5-.9.3.2.2 2.2-.1 3.1l-.3.7-.7-.8c-.3-.5-.8-.9-.9-.9l-.2 1.6c0 1.5-.2 1.9-.7 1.4zm10-.5c0-.3 0-.9.2-1.4l.2-4c0-1.6 0-3 .2-3 .3-.4.6.3.7 1.4 0 1.1 0 1.2.3.7.3-.2.5-.6.5-.8 0-.1.2-.2.4 0 0 0-.1 1-.5 2.2l-1 3.4c-.4 1.7-.7 2.2-1 1.5zm-24.3-.8.1-.4c.2-.1.3 0 .4 0v.5l-.5-.1zm6.6-.2c-.2-.6.6-2.8 1.1-2.8.5 0 .5.2 0 1.7-.7 1.5-.9 1.7-1.1 1.1zm16.7 0-.7-2c-.2-1.3-.2-1.7.2-2.4.5-1 .9-1 .6.3-.1 1 0 1.6.4 3.8.3.8.1.9-.5.2zM119 16l.3-.2c.2 0 .3.1.3.3 0 .1-.1.2-.3.2a.3.3 0 0 1-.3-.2zm18.2 0c-.2-.5.3-2.9.6-3.2.4-.4.4 2.6 0 3.1-.4.4-.4.5-.6.1zm-.7-3.5c0-.3.1-.4.2-.2v.5c-.1.1-.2 0-.2-.3zm-2.8-1.3c-.5-1-.6-1.6-.4-1.8.2-.2.4 0 .6.5l.4.7V9.6c.3-1.8.7-1.2.7.8 0 2.6-.4 2.9-1.3 1zm4.8.5c-.2-.3-.2-1.4.1-1.6.4-.2.7 1.2.4 1.5-.2.1-.4.2-.5 0zm1.6-1.9c-.3-.3-.2-3.2.1-3.4.2 0 .3.5.3 1.7 0 1.9 0 2-.4 1.7zm13.3-.4c0-.3.2-.5.3-.6.1 0 .3 0 .3.2 0 .3-.2.5-.3.6-.1 0-.3 0-.3-.2zM128 29l-.5-.4c-.4-.2-.5-.2-.5.1 0 .3.2.4.5.4h.5zm27.4-2.4c0-2.4-.6-6.5-.9-6.5l-.5 1.4-.6 2.5c-.5 2-.7 4-.4 4.3.2.2.5.3.9.3.3 0 .6.1.7.3.2.2.3.2.6 0 .2-.2.3-1 .2-2.3zm-68.2 2c0-.1 0-.3-.2-.3l-.2.3v.3l.4-.3zm39.3-.2c0-.6-1.3-1.5-1.5-1.1-.2.3.7 1.6 1.1 1.6.2 0 .4-.2.4-.5zm10.3-1.7c-.4-.7-1.1-1.4-1.4-1.1-.2.2.4 1.8 1 2.7l.5.7v-.8c.1-.4 0-1-.1-1.5zM84.2 28c.3-.3.4-.6.2-.6-.4-.2-1.6.7-1.5 1 .3.4.6.3 1.3-.4zm8.9-.6c.1-1.8 0-4.2-.3-5.1-.2-.5-.3-1.7-.3-2.5 0-1 0-1.5-.1-1.2-.4.5-.9 7.6-.7 8.6.3 1.7 1.2 1.8 1.4.2zm55.2.5c-.4-.9-1.5-1.9-1.5-1.4s.8 1.8 1.1 2c.7.2.8.1.4-.6zM81 27.3c.6-.4.6-.5.3-.5l-.9-.2c-.2 0-.4.1-.6.6-.7 1.3-.3 1.4 1.2.1zm61.6.6c0-.1-.3-.5-.9-.7-.9-.3-1-.3-1 0-.1.2 0 .6.2.8.3.4 1.6.4 1.7 0zm-18.2-.5c0-.4 0-.6-.3-.6l-.7-.4c-.5-.6-.7-.5-.9.1-.2.7 0 1.3.6 1.4.8.2 1.2 0 1.3-.5zm9.1 0c-.2-.5-.3-.5-.3.2 0 .3 0 .4.2.4.2-.1.2-.4.1-.6zM29.7 26.2l-.4-3.4a17 17 0 0 1 0-5.8c.3 0 .8 3 .8 4.3 0 2 .7 5.7 1 5.7.2 0 .3-1.2.5-4 0-2.2.1-4.2.2-4.3l-.4-1.7c-.4-1.4-.4-2.1 0-2.1.2 0 .4.4.5 1 0 .5.3 1.1.5 1.4.6.6.8 4.8.3 6.2-.2.7-.3 1.4-.2 2.2l.2 1.2.8-1.7c.8-1.7.8-1.8.6-3.8a9.8 9.8 0 0 1-.2-2.4c.3-.8.7-.4.8.6 0 1.2.3 2 .6 1.7l.7-2.4c.3-1.4.4-2.1.2-2.4-.2-.1-.3-.7-.2-1.3 0-1.5 0-2-.3-2.5-.2-.3-.3-.3-.8.1-.6.6-1 .5-1.1-.7-.2-1.3-1.1-2.2-1.7-1.8-.8.4-1.6 1.8-1.5 2.5 0 .4 0 .8-.3 1-.2.1-.3.5-.2.8 0 .4 0 .5-.6.5-.8 0-1.6.7-1.4 1.3.1.2 0 .4-.5.6-.4.1-.7.5-.8 1 0 .4-.3 1.2-.5 1.7-.5 1.6-.2 7.3.3 7.3.3 0 .4-.2.2-1.1-.3-1.7-.3-2.1 0-2.2.3-.1.5.2.7.7.2.7.2.4.2-1.8a9 9 0 0 1 .3-2.7c.3 0 .8 3 .8 5s.2 2.7.6 2.6c.2 0 .3-.6.3-1.3zm13.8.7c.4-.5.7-.5 1 0 .2.3.5.4.7.3.2-.1.1-.4-.3-.7-.4-.4-.4-.8-.3-2 0-1 0-1.4-.3-1.8-.5-.7-1-.3-1.2 1 0 .5-.3.8-.6.9-.5 0-.5 0-.3-1.8.1-1.3 0-2-.2-2.3-.5-.6-.7-.4-.7.4 0 .9-.5 1.3-1 .9-.7-.8-.9-.4-.9 2.4V27l.7.3c1 .3 3 .1 3.4-.4zm-2.5-.2c-.1-.2-.3-.6-.3-1 0-1 .7-1.2 1-.4 0 .3.4.7.8.9.3.2.6.4.5.6-.3.3-1.6.3-2 0zm98.8.1c.1-.2-.2-1-.8-1.8-.5-.7-1-1.5-1-1.7 0-.3 0-.6-.2-.7-.5-.3-.2 3.4.4 4.2.5.8 1.3.8 1.6 0zm-53.6.2c.4-.2.4-.2 0-.2l-.9.2-.5.3h.5a2 2 0 0 0 1-.3zm47.9-2.4c-1.7-1.3-1.7.4-.1 2.1l.5.6.1-1.1c0-1 0-1.2-.5-1.6zm-99.7 2c0-.2-.2-.4-.3-.3-.5.2-.6.7-.1.7.2 0 .4-.2.4-.4zm97.9 0c0-.5-1.1-2-1.4-1.8-.4.3-.2 1.4.4 1.8.7.5 1 .5 1 0zm-109.4-.5.4-.2c.4 0 .4 0 .2-.4-.4-.4 0-2.2.4-2.2s.7.7 1 2.3c0 1 .1.8.3-1V22l-.3-.8v.8c0 .6-.2.9-.4.9-.3 0-.4-.2-.4-.5l-.2-1.8c-.2-1.2-.1-1.4.2-1.4.3 0 .5.3.6.8.2.9.2.9.7-.6.5-1.6.5-2-.2-2-.2 0-.5-.3-.6-.7-.5-.8-.4-.8-1-.4-.5.2-.6.2-.8-.2 0-.2 0-.6.3-.8.2-.3.5-1 .6-1.6.1-.9 0-1.2-.3-1.3a.7.7 0 0 1-.4-.6c0-.7-1-1.6-1.7-1.6-.5 0-.7.2-.8.6-.8 4.6-.8 4.7-.3 4.5.4-.1.4-.4.3-1.2-.2-1 .2-1.3.6-.5.4.7.4 1.8 0 2-.5.1.5 2.2 1 2.2 1-.1 1 2 .5 7.6v1.4c.2-.1.3-.4.3-.6zm15.5 0v-7.3c-.5-.7-.7.1-.7 2.5 0 2.7-.3 4.6-.7 5.1-.2.3-.1.4.5.4.7 0 .8-.1.9-.6zm88 0c0-.7-.7-1.1-1.1-.7-.2.2-.1.5.2.8.7.7 1 .7 1 0zM22.3 20.8c0-.9-.5-1.7-1.1-1.7-.5 0-.5 1.8 0 4.4l.4 2.9.3-2.3.4-3.3zM13 25.2V23c.1-1.1.2-1.7.5-2 .5-.3 1.3-3 1.1-3.7-.4-1-1.5.4-1.9 2.4-.4 2.1-.4 6.3 0 6.3.1 0 .3-.4.3-.8zm6-.4.3-1.2c.2-.4.3-.4.5 0 .2.3.3 0 .3-.9 0-1-.2-1.4-.7-2l-.7-.5c-.2.2-.5 5.4-.3 5.6.3.3.6-.1.6-1zm-3.4 0c.3-1.2.3-4.2 0-5.2-.2-.6-.2-.6-.4-.1-1.2 3.2-1.4 3.8-1.3 4.6.2 1.4.3 1.6.9 1.6.4 0 .6-.3.8-1zm2-.8c0-3-.4-6-1-7.9-.3-1-.7-1.8-.8-1.7l-.7.8c-.4.6-.4.7.3 1.5.9 1 1.4 4 1.1 6.9-.2 2.1-.2 2.1.4 2 .6 0 .6-.2.7-1.6zm19-2 .2-2.5-.8 2.2c-.7 2.1-.8 2.3-.4 3.2.4.9.4 1 .7.3l.3-3.1zm52.5 3.4c.4-.6.6-1.5.3-1.5-.1 0-.3.2-.3.6 0 .4-.1.7-.3.7-.7 0-1.3-2.7-.7-3 .1-.1.3 0 .4.4.2.6.2.6.4-.2l.2-2.4c0-.9 0-1.2-.1-.6-.2 1.4-.4 1.8-.7 1.2-.2-.5-.3-.4-.9.2-.6.7-1.1.5-.8-.3l-.1-.5c-.2-.1-.3-.7-.2-1.7.2-1.5.2-1.5-.2-.7-.4.6-.4 1.3-.3 3.1 0 1.3.2 2.5.4 2.7.1.2.3.7.3 1.1.1.6.3.8 1 1 1.2.2 1.3.2 1.6-.1zm-77.6-1c.2-1 .2-3.3 0-3.1l-.3 1.7c-.2.8-.4 1.5-.5 1.4-.2 0-.2-.3-.2-.5l.2-3.1c.2-2.5.1-2.8-.2-2.8-.3 0-.7.5-1 1.2-.3.6-.6 1.2-.8 1.3-.4 0-.5 4-.2 4.3.4.4.6-.1.7-1.6 0-1 .2-1.4.4-1.4s.3.6.2 1.5c0 1.6 0 1.9.9 1.9.5 0 .6-.2.8-.9zm140.2-2.5c-.2-4-.7-5.7-.5-1.9.1 2.9.3 5 .6 5l-.1-3zM6.9 24.4s0-1 .2-1.8c.3-1.4.2-2.2-.1-4a74 74 0 0 1-.9-7.4c.3 0 .5.3.6 1l.5 1.7.4.8.5-1.2c.3-.7.8-1.3 1-1.3.5 0 .6-.3.4-1.6 0-1 0-1-1-1-.5.2-.8.1-.9 0-.1-.4-.4-.3-1.7.5l-.8.4L5 14c-.1 3.1-.1 3.6.3 4.6.9 1.9 1 2.3.5 2.5-.3.2-.4.4-.2 1.2l.4 1.6c.2.6 1 1 1 .5zm133-1.2c-.1-1-1.2-3-1.6-3-.3 0 0 1.3.4 1.7l.2 1c0 .8.4 1.5.9 1.5.1 0 .2-.5 0-1.2zm16-.9c-.2-.3-.4.2-.2 1l.2.7.1-.8v-.9zm-28 .4c-.3-.2-.4-.2-.4 0 0 .3.3.7.5.5 0 0 0-.3-.2-.5zm28.5-2.9c.3-2 .2-4.6 0-4.8-.6-.3-1.1 1.7-1.1 4 0 2 0 2.2.5 2.2.4 0 .5-.3.6-1.4zM117 20c0-.4-.3-.7-.6-.5-.2.2.1 1 .4 1l.2-.5zm-96.7-3.3c-.2-.6-.5-1-.7-1-.3.3-.4-1.1-.1-3.2.2-1.5.2-2-.2-2.9l-.6-2.2c-.2-1-.3-1.2-1.1-1.2-.7-.1-.9 0-.9.4s-.3.8-.9 1.1c-.5.3-.9.8-.9 1 0 .5-1.4 1.4-2 1.3-.4-.1-.8 0-1.2.5-.3.4-.8.7-1 .7-.6 0-.6.5 0 2.3l.6 1.9.5-1.5c.3-1 .6-1.4.9-1.4.3 0 .4.1.2.6a37 37 0 0 0-.9 5c0 .4.3.1.7-.9.5-1 .7-1.9.7-3 0-1.3.1-1.6.5-1.7.4 0 .5.1.5 1 0 1.4.3 1.4.9 0 .5-1 1.2-1.6 1.2-.9 0 .5.8 2.9 1 3.2.2 0 .2-.6.2-1.5 0-1.4 0-1.7.4-1.7.3 0 .4.4.5 1.5.3 2 .7 4.5 1 5 .1.5.2.5.7-.4.4-1 .4-1 0-2zM14.4 11c-.2-.4 0-1 .4-1 .3 0 .3 1 0 1.3-.2 0-.3 0-.4-.3zM9 18.2c.4-1 .6-5.2.2-5.2-.4 0-1.5 3-1.5 4.1 0 2.1.5 2.5 1.3 1zm79.3-3.4c0-.5-.6-.4-1 .1-.6.9-.5 1 .3.6.4-.2.7-.5.7-.7z"/>
</svg>
