<?xml version="1.0" encoding="utf-8"?>
<svg xmlns="http://www.w3.org/2000/svg" xmlns:svg="http://www.w3.org/2000/svg" version="1.1" viewBox="0 0 162 130">
  <title>Tommy Brock, a badger, digs at the base of a bank with his paws. A little further away a spade is lying against the bank.</title>
  <path d="M125.2 129.8c-1.8-.1-3.8-.3-4.5-.5-.8-.2-1.6-.2-2.5 0a383.1 383.1 0 0 0-31.1-.4c-10.8 0-22.4-.2-25.8-.4-3.7-.1-8.4-.2-11.6 0a57.2 57.2 0 0 1-10.8 0c-1 .4-18 .4-20.7 0-4.1-.5-8.8-.5-11 .1-1.4.4-1.9.5-2.3.2l-1-.3c-.7 0-2-1-2.5-2-.6-1.5-.8-6.7-.8-20.3L.3 83.9C.1 71.1.1 68 .5 62.4.7 58.4.7 51.9.3 48c-.2-1.6-.2-1 0-6.7A246 246 0 0 0 .3 21C.3 13 .1 6.3 0 6 0 5.5.3 4.7 1.2 3.6c.6-.7.7-.7 3.8-.7 6.8 0 22.8-.7 28.4-1.2l17.2-.3c19.3-.2 26-.4 29.9-.7C82 .5 87.3.4 92.2.3l14.1-.2c6.1-.3 23.8.2 32.3.8l12.4.5a51.1 51.1 0 0 1 7.4.6l1 .5c.7.7.9 3.5.5 6.7v2.9c.2.3.3 4 .3 10.5a482.3 482.3 0 0 0 .6 35.5c0 1.6 0 7 .2 12 .3 7.5.2 10.2 0 15.3a628.9 628.9 0 0 0-.2 42c-.6 1.5-2.3 1.9-8.5 1.9-2.8 0-5.6 0-6.5.2-1.8.4-15.8.6-20.6.3zm15.1-1.2h-.5c-.2 0-.1.1.2.2.3 0 .4 0 .3-.2zm-103-2c.2-.1-.4-.2-1.5-.2-1.4 0-1.5.1-.7.3 1.4.3 2 .3 2.2 0zm78.9 0s-.2-.2-.8-.2c-.5 0-1 .1-1 .3-.2.1.2.2.7.2.5 0 1 0 1-.2zm32.5-.2 1.8-.5c.3-.2.7-.3 1-.3l1.4-.4c.8-.4 1-1 .4-1-.7 0-1.3-.6-1.4-1.5-.1-.8 0-1 .7-1.5.4-.4.7-.8.6-1-.2-.3.6-2 1.3-2.3l1.2-.2c.7.2 1-.1.6-.8-.4-.7-3.5-1.4-5.5-1.2-1 .2-1.5.1-1.7-.2-.1-.2-.5-.2-2 .2-1.2.3-1.8.4-2 .2-.4-.5 0-.8 1-1l4.2-1.1c2-.6 3.5-.9 4.3-.8 1.2 0 1.3 0 1.8-.9.4-.7.4-1 .2-1.3-.2-.4-.3-.7 0-1 .4-1 .3-1.4-.6-1.2-1 .2-1-.4-.2-1.3l.6-.6h-.7c-1-.2-1-1-.2-1.6.5-.3.6-.6.6-4v-3.6l-.6.2-2.8.3c-1.2 0-2.6.3-3.1.5-.6.2-1.6.4-2.3.4H146l.2 1c0 1 0 1.1-.5 1.4l-1 .5-1.2.5c-.4.2-.7.5-.7.8 0 .5-.9 1-1.3.7-.3-.2-1 0-4 .8-1.8.5-3.4 1.4-3.4 1.9 0 .4.2.4 2.7 0 5.2-1 11.2-2 12.2-2 1.6 0 1 .6-1 .9-1 .1-2.2.4-2.5.6l-1.3.3c-1.3 0-2 .3-2 .9 0 .5-.3.6-1.6.7l-3.7.7a19 19 0 0 1-3 .6 21 21 0 0 0-6.3 1.4c-.6.5 0 .4-3 .7l-3 .4c-.4.2-.5 0-.5-.3 0-.6 0-.6-10-.5l-10 .2-1 .6c-1.9 1.1-2.7 1.2-5.9 1-2.6-.3-3.1-.3-4.8.2l-5.5 2.2c-5.9 3-7.3 3.4-12 3.6-3.2.2-4.2.2-4.5 0-.2-.3-1-.3-2.9-.1l-6.6.2c-3.8 0-4 0-3.3.3.5.2.9.5.9.7 0 .7-1 .6-4.8-.3a71 71 0 0 0-13.5-1.6c-.4.3 1.8 1 4 1.2.7.1 1.3.3 1.3.5 0 .5-3 0-5.4-.8a18 18 0 0 0-2.8-.9c-.4 0-.5-.1-.5-.4 0-.3-.4-.6-1.9-1.2-1.8-.7-2-.7-3.2-.5l-1.8.6c-.6.3-1.6-.1-1.6-.7 0-.5.5-.7 1-.5.7.4 2-.1 1.9-.8 0-.4-.3-.6-.9-.6-1 0-1.2-.6-.3-.8 1-.2 2 .1 2.4 1 .2.4.7.8 1.1.9.4 0 1.2.4 1.8.7 2.3 1 3.6 1.3 4 1 .3-.2.6-.2 1.1 0 1 .4 4.8.8 5.8.7l1.7-.3c.7-.2 1 0 1.3.4.5.6.6.6 4.8.7 2.4 0 6.5 0 9.2-.3a63.3 63.3 0 0 1 14.5.1c1.8 0 11-3.8 10.6-4.4-.2-.2-5.2 0-8.4.5-1.4.2-2.3.4-2.5.7-.3.3-.5.3-1.9-.2-2.7-1-4-1.3-6-1.4l-1.9-.2 1.4.5c1.5.5 2.4 1.3 1 1l-3.5-.5a46 46 0 0 1-7.6-1.1c-3-.5-5.8-1.2-7.8-2-1.4-.5-7.4-1.2-14.5-1.5-2.1-.1-3.8-.3-3.8-.4 0-.5 1.6-.6 5.5-.3l8 .6c2.2.1 4.2.4 4.5.5a69 69 0 0 0 9.5 2.7s0-.2-.2-.3c-.5-.5-.4-1.3.2-1.4l2.1.5c3 1 7.9.8 8.8-.4l.5-.6 1.8.5c1 .4 2 .6 2.3.6.7 0 1.5-.6 1.5-1.1 0-.4.3-.5 1.9-.5 2.6 0 6-1 7.9-2.2a18 18 0 0 1 2-1.3l.7-.3h-.7c-.4-.1-1 0-1.5.3l-2.2.5-3 .5c-.9.2-2.4.4-3.4.3-2 0-4.6.3-5 .7l-2.7.6c-2 .4-2.3.4-2.9 0-.5-.3-1.2-.4-3.7-.3-3.3.2-4.4 0-3.8-.8.2-.3 1-.3 4-.3 2.9 0 4.3-.2 6.6-.7 4-.9 7.4-1.1 7.8-.6.4.4 2.1.2 6-.7 2.4-.6 2.4-.6 2.4-1.4 0-.7 0-.8 1.4-1 1.4 0 2.1-.6 1.7-1a24.1 24.1 0 0 0-9.3-1.4c-2 .2-2.4.1-2.3-.2.3-.9 2-1 10-1.1a98.6 98.6 0 0 0 7.6-.4c-.9 0-1.5-.5-1.7-1.4-.2-1 .2-1.1 2.4-1 2.2 0 3-.3 1.8-.8-.4-.2-1-.6-1.3-1-.7-.7-1.4-.8-1.4 0v.5a105.7 105.7 0 0 1-8.4.8c-3.5.3-4.3.1-4.3-.8 0-.5.1-.6 1.8-.5a26 26 0 0 0 8.8-1c0-.6-7.7-.9-11.8-.5-1.9.2-2 .2-2-.3s.3-.6 2.4-1c2.2-.4 2.5-.4 3 0 .3.3 1.4.5 4.6.6l5 .5c1 .3 17.2-.5 17.8-.9.2 0 .2-.3.2-.5-.1-.2 0-.9.2-1.5.4-1.2.3-1.3-.6-.3-.5.6-1.4.9-1.4.4 0-.1.4-.7 1-1.2.7-.9 1-1 1.7-.9 1 .2 1-.4 0-.9-.7-.3-1-.6-1.4-1.6-.4-1.1-.6-1.4-1.8-2-.8-.5-1.7-.9-2-.9-.4 0-.9 0-1.1-.2-1.3-.7-5.2-1.9-7.6-2.4a33.4 33.4 0 0 0-11.1.7c-2.7 1-4.2 1.6-5.3 2.3-.7.5-.7.5-.2.9.4.3.4.3-.1.7-.4.4-1 .4-2.7.3-2.2-.2-3.1.1-1.7.6.9.3 1.1 1 .5 1.3-.3 0-1.1 0-2-.2-.8-.2-2.5-.3-3.8-.4-1.8 0-2.2 0-2.3-.4 0-.6 1.3-1 4-.9 1.9 0 2 0 1.6-.4-.4-.4-.8-.4-6.3-.1-2.6.1-3.3.1-3.3-.2l1.3-.4a14 14 0 0 0 5-1l1-.5c.4 0 .6-.4.7-1.2.2-.9.4-1.1.9-1.1l.7-.2c.1-.2.8-.4 1.6-.5 1.8-.2 2-.6.3-.6l-1.2-.2c0-.2.5-.5 1-.9 1.2-.7 1.2-1 0-1-.5 0-1.1.3-2 1.1a28.2 28.2 0 0 1-12 6l-1.6.2c-.5.2-.5.3-.1.4.2.1.4.4.4.7 0 1 1 1.2 2.7.7 2-.6 2.6-.5 3.8.3l1.2.6c.5 0 .6.6.3 2-.6 2.5-1.8 3.4-5.6 4.2-1 .3-2.3.4-2.9.4-.5 0-1.3.2-1.8.4-.8.4-4.8 1-6.1 1a47 47 0 0 1-3.3-.4c-2.6-.4-2.7-.4-4 0-1.4.6-1.5.6-2 .1l-1.9-.8-1.8-.5c-1.1-.3-9.2.1-11 .6-1.7.4-2.4.4-2.6-.3-.2-.5 1.3-1.1 2.7-1.1l2.7-.3c.9-.2 4-.4 6.8-.5 2.8-.1 5.3-.4 5.5-.5.4-.2.2-.4-1.2-1a20.9 20.9 0 0 1-8.1-8.7c-.6-.3-2.5.5-3 1.2-.5.6-.9.8-1.5.8s-.9.1-1 .5c-.1.4-.5.4-2.8.5-1.6 0-2.7-.1-2.9-.3l-.4-1.3c-.1-.9 0-1 .8-1.8a9 9 0 0 0 1.5-1.6c.2-.4.8-.8 1.2-1 .6 0 .8-.2.7-.6-.1-.4 0-.6.8-1l1-.8L28 74a8.8 8.8 0 0 1-1-3.4l-.4-2.3c-.1-.2-1-.4-2.2-.4-1.7-.1-2-.2-2-.6.1-.4 1.4-.5 2.6-.1.4.1.6 0 .6-.3 0-.4-.2-.4-1.7-.3a10020.6 10020.6 0 0 0-9 .7c-.4-.3-2-.3-4.1.2-.7.1-.9 0-.8-.2 0-.2.8-.5 1.7-.7 1.5-.3 1.5-.3-1.9-.3-3.3 0-4.3-.2-4.3-.6 0-.1.4-.4 1-.5l1.3-.6c.3-.3.9 0 1.4.6.3.4 7.6.9 12 .8 3.2 0 4.8 0 5 .3.3.2.5.1.7-.5.5-1.2.2-2-.7-2.3l-.9-.4c0-.2-5.3-.1-7 .1-.7.1-1.2.3-1.1.5 0 .2-.2.3-.6.3l-5.2-.1c-4 0-4.4-.1-4-.4.3-.2 1.2-.5 2-.6 1 0 1.6-.3 1.6-.4l.4-.2c.2 0 .4.1.4.3 0 .5 1.6.8 2.6.5l3-.4c1.5-.2 2.5-.4 2.6-.6.4-.4-.2-.5-2.6-.4-.8 0-1.4 0-1.4-.2s1.8-.2 5.9-.2c3.5 0 5.9 0 6-.2.2-.3-.4-.6-1.2-.5a2 2 0 0 1-1-.1c-.3-.2.6-.6 1.7-.6.4 0 .8-.1.8-.3 0-.4-1.7-.3-2.4.1-.8.4-8.5.5-8.9.1 0 0 .3-.2.8-.2l2.4-.4 2.3-.6c.3 0 .7 0 .8.3.2.2.3.3.4 0 .1-.2.3-.3.6-.3.2 0 .3-.2.3-.5-.1-.4.1-.5 1.6-.5 1.5-.1 1.6 0 1.8.4.2.9.8.7 1.5-.6l1.5-2c.7-.8 1.2-1.8 1-2-.1-.1-.9.2-1.7.7-1 .7-1.5 1.1-1.7 1.7-.2.7-.3.8-1.1.8-.6 0-1 0-1.2-.2l-1.1-.2c-1.4 0-5.4 1-5.9 1.5-.5.4-3.3 0-5.3-.7-1.6-.6-2-.7-4-.2-.7.2-1.5.3-1.6.2-.4-.2.6-.8 1.3-.8.5 0 .6-.2.6-.5 0-.6.4-.8.7-.3.2.3 1.3.3 1.6 0a26 26 0 0 1 6-1.5c1.5-.2 2.8-.5 2.8-.6.3-.2-.9-.8-1.5-.8l-1-.3c-1-.5-9.9.6-9.9 1.2 0 .3-.6.7-1 .7-.2 0-.3-.3-.3-.5 0-.7 1.4-1.8 2.6-2 .4-.1.8-.3.8-.5 0-.3-4.1-.1-5.8.2-1.2.2-1.2.3-1.5 4.2-.2 3.2-.1 3.3 1.6 3.3.7 0 1 0 1-.4 0-.6.7-.4.8.2v.6l.6-.6c.3-.3.7-.6 1-.6.2 0 .5 0 .6-.2.3-.2 2.6-.4 4.2-.3 1.2 0 .3.5-1 .5-.8 0-1.2.2-1.4.6-.2.3-.5.5-.7.5-.3 0-.4.1-.4.2 0 .4 2.8 1 4 .7 1.2-.2 1.4.3.2.5-1.4.3-2.5.2-4.1-.3-.9-.3-2.7-.6-4-.7l-2.5-.2v2.7H6a7 7 0 0 1 2.5.3c.1.1-.7.2-2.4.2-1.5 0-2.5.1-2.5.3 0 .1.5.3 1.2.3s1.3.1 1.5.4c.2.3 0 .4-1.4.4H3.3l.2.7.3 3.6c.1 2.8.1 2.8.8 3.1.4.1 1 .2 1.5.1l5.4-.2c3.9 0 4.5 0 4.3-.4-.2-.2-1-.3-2.1-.3-1 0-2-.1-2-.3-.1-.2 1.5-.2 4.6-.2 3.6 0 4.8 0 5 .3 0 .3.7.3 2.7.2 2.3 0 2.6 0 2.6.3 0 .4-.3.5-1.6.5-.8 0-1.5 0-1.5.2s.5.3 1.2.3c1.3 0 2.3.4 2 .8 0 .2-.3.2-.6.1l-3-.3c-1.5 0-2.7-.2-2.8-.4L19 72l-1.5-.1c-.3-.1-.7-.1-.8 0-.2.2-.9.3-1.7.2-1.3-.2-1.6-.1-2 .4-.4.5-.6.6-6.8 1.4l-2.2.3V76a618.9 618.9 0 0 0 .4 36.5c.1 8.3.4 11.2.9 11.6.1.2.7.3 1.1.2h.9l-.6-.8c-.3-.3-.5-.8-.5-1 0-.6.7-.8 1-.4 1.7 2.2 2 2.3 3.5 2.2 1.4 0 1.4 0 .6-.4-.5-.2-.7-.4-.4-.6.3-.3.9-.2 4.2 1 1.3.4 2.1.5 2.5.4l.5-.2-.6-.5-1-.4c-.1 0-.3-.2-.3-.4 0-.5 0-.5 2.3.3a37.9 37.9 0 0 0 4.3 1.4c.8.4 4.3 1 6.7 1.2 2 .2 2.5.1 5.1-.6a31 31 0 0 1 3.8-1c0-.5-.6-.8-1.6-1-1.2-.2-2.8.6-3.3 1.5s-2 1.1-3.8.6c-.8-.2-1.6-.6-1.9-.8-.4-.4-1.1-.5-3-.3-.4 0-.8-.1-.8-.3-.1-.2.4-.4 1.4-.6.8-.2 1.8-.5 2-.7.6-.4 1.5-.5 1.5-.2l-.4.5c-.4.3-.4.4-.2.7.3.2.5.2 1 0 .6-.3.8-.3 1.4.1.8.5 1.3.4 1.5-.6.3-1.6 1.5-2.3 2.5-1.4.3.3.9.5 1.3.5 1.5 0 3.5.7 7.3 2.6 1 .5 1.4.4 2.7-.2.8-.4 1.6-.5 4-.5 1.5 0 3.3-.2 4-.3.5-.2 1.8-.4 2.8-.4 1 0 1.9-.1 2-.3.5-.4 1.3-.4 2.5 0 .5.3 1.4.5 1.9.5 1 0 2.8.6 2.8 1 0 .1.6.2 1.4.2.8 0 1.8.2 2.2.4l2.4.2c1 0 2 0 2.3.2.3 0 .5 0 .7-.3.2-.4.3-.4.5-.1.5.8 6.6 1.5 6.6.6 0-.4-.6-.7-1.5-.7-.8 0-1.6-.4-1.4-.6.6-.5 3 0 3.7.9.2.3.3.3.4 0 .4-.8 1.1-1.4 2-1.4 1.3 0 1.7.5.5.8-.4 0-.8.3-1 .5 0 .3.6.4 4.2.2 5.2-.3 5.2-.3 10.9 0 3.9.2 4.4.2 4.8-.2a2 2 0 0 1 1.2-.4c1.3 0 3.4-1 3.4-1.6 0-.6.3-.6 1.3-.4.8.2.8.7-.1.7-.7 0-.7 0-.3.4.7.7.6 1-.3.8-.7-.2-1.6.2-1.3.5l1.5.2c1 0 1.4 0 1.4.3 0 .5 0 .5.7.2 1.9-1 4.6-1.2 5.1-.4.3.5.5.5 1.1.3.6-.2.9-.2 1.2.1.7.6 8.7.5 9.6-.1.5-.4.5-.5.1-.9l-.8-.4c-.2 0-.5-.3-.5-.8-.2-.7-.3-.8-.9-.7l-1.7.3c-.5.1-1 .4-1.3.6-.1.2-.4.3-.6.3-.2 0-.4.2-.4.3-.1.2-4.2.5-4.2.3l.3-.5c.2-.2 0-.3-1.3-.3-2 0-2.2-.4-.7-1 .8-.3 1.6-.4 3.6-.3 2 .1 2.6 0 2.6-.2s-.3-.3-.8-.2c-.9.2-1.9-.5-1.4-1 .3-.4 2.2 0 2.4.5.1.5.6.4 1.6-.1.7-.5.8-.5 1.7 0 1 .5 2.2.6 2.8.2.3-.2.2-.3-.5-.7-1.1-.6-1-1 .4-1.7.7-.3.7-.3.3-.7-.6-.6-1.7-.5-2.6.1-.8.6-1.5.8-1.5.3 0-.4 2-1.6 2.9-1.7.6-.1 1.1 0 1.7.4 1 .6 1.2 1.4.2 2-.8.6-.6 1 .4.5s3.7-.9 5.6-.7c1.9.1 3.4-.3 3.4-1 0-.4-1.2-.4-1.5.1-.5.5-.8.5-1.8 0l-2.2-1-2.9-1c-1.5-.5-2.6-.6-8.2-.4-.7 0-1 0-1-.4 0-.2.5-.4 1.6-.5l2.3-.5 2.4-.4c1-.1 2.4-.4 3.3-.7 2.6-.7 4.6-.9 5.8-.4 1.2.5 2.3.6 2.7.1.2-.2.8-.3 1.3-.2.8 0 1 0 1-.5.2-.6 1.2-1 1.7-.7.7.4-.3 1.2-2.4 1.9-2.5.7-3.3.8-4.4.3a10 10 0 0 0-5.4.3l-2.1.5c-.3 0-.4.2-.3.3 0 .2.3.3.6.3s1.4.3 2.5.8l2.6.8c.4 0 1 .1 1.4.3.6.3.7.2 1-.1.5-1 3.9.2 3.9 1.4 0 .2-.5.6-1 1l-1.5 1c-.6.8-1.2.8-1.2 0 0-.4-.2-.5-1-.5-.6 0-1.2.2-1.3.3 0 .2-.4.3-.7.2-.5-.1-2.4.5-5 1.7l-1.1.4.8.2c.4.1.9.4 1 .7.4.3 1 .4 3.4.3 2.7 0 3-.1 4.4-.9l6.8-4c1.8-1.3 2.2-1.4 3.2-1.3.6 0 1.2.3 1.4.4.4.5-.1 1-1 1-.4 0-1.5.4-2.4.7-2 .8-6.5 3.2-6.7 3.6-.3.4.3 1.2.8 1.2l2.1.5c1 .2 1.8.3 2 .2 0-.1.4 0 .7.4.4.4.8.5 1.2.4l1.8-.4zm-77.9-1.3c-1-.2-1.4-1-.7-1.4.5-.3.7-.3.7.2 0 .2.2.4.5.4 1 0 1.2.1 1.3.4.1.4-.6.6-1.8.4zm72.5 0c-.4-.3-.4-.4 1.3-1.5l1-.8 1 .5c1 .4 2.5.6 2.9.3 0 0 0-.4-.2-.7-.2-.3-.2-.6.2-1l.6-.6-1.2.2c-.9.1-1 .1-1-.2 0-.5 1.6-1 2.4-.9 1 .3 1.3 1.1.8 1.8-.2.3-.3.8-.2 1.1.3 1.5-2 2.2-4.3 1.4-1-.4-1.2-.4-1.6-.1-.7.6-1.3.7-1.7.5zM76 124c0-.5.6-.9 1.7-1 1.2-.2 1.2-.5.1-1-.6-.4-1-.5-1.4-.2-.5.3-1 .2-2.8-.3l-5.1-1.1c-2.3-.5-3-.7-3-1.1-.1-.4 0-.4 1.3-.3a46.5 46.5 0 0 1 7.8 1.7l1.4.4c.3.1.6 0 .8-.2.5-.6 1-.5 2 .6 1.2 1.4 2 1.6 2.3.5.2-.6-.2-1-1-1-.4 0-.7-.2-.7-.4 0-.3-.2-.4-.9-.4-.8 0-1.5-.5-1-1l2.3.3c2.5.5 3.6.6 3.6.2 0-.1-.2-.2-.4-.1-.2 0-.4 0-.4-.3 0-.5.3-.7 1.8-.7 1.4 0 1.6 0 4.8 1.9 1.1.6 2.5 1.2 3.2 1.3 1.9.2 1.7.8-.4.8-1.3 0-1.8-.1-2.2-.5l-1.1-1c-.6-.3-.8-.3-1 0-.3.3-.5.3-1.3.1-.8-.2-4-.3-4.2-.1l-.2.6c-.2.5-.1.6.2.6.6 0 1.1.8.8 1.1-.2.2-.5.2-.9 0-.7-.5-4.2 0-4.6.6-.3.5-1.5.6-1.5 0zm11.1-3.8c-.6-.5-1.3-.7-1.3-.4 0 .2 1.4 1 1.7 1 .2 0 0-.3-.4-.6zm-66.5 3.2c-.3-.4.4-.7 2.4-1 1.4-.3 2-.5 2-.8 0-.3.2-.3 1-.3 1 0 1.2.2 1.3.6 0 .5-.2.6-2.4 1-2.8.3-3 .4-3.7.6h-.6zm53 0c0-.2-.3-.3-.8-.3-1 0-1-.4-.1-.7 1-.2 1.8 0 2 .7 0 .4-.1.6-.5.6-.3 0-.6-.2-.6-.3zm-6.9-.4c0-.6 1-1 2-.9 1.3.1 1.6.8.5.8-.5 0-1 0-1 .2-.3.4-1.5.3-1.5-.1zm-26.3-.3c-2.8-.9-4.1-1.2-4.6-1-.4 0-.6 0-.8-.5-.2-.4-.7-.8-1.2-1-.5-.3-1-.6-1-.8 0-.3 1.3-.3 1.5 0 .1.2.5.3 1 .3.4 0 1.2.2 1.7.5.6.3 2.1.8 3.5 1l2.8.8c.3.3 4.3 0 6.3-.3 1.2-.3 1.2-.7 0-1-.5-.2-.8-.1-1 .2-.3.4-.5.4-1.4.1-.6-.2-1.3-.2-1.6-.1-.6.2-1-.2-.4-.7.2-.1.3-.5.2-.8-.2-.7.8-.7 2.1 0 .5.3 1.3.6 1.7.6.3 0 1.1.2 1.7.5 1.4.7 4 .6 6-.3 1.5-.6 1.8-.6 1.4.3-.3.4-.2.5.2.5l1.1-.4 1.8-1c1-.4 1.2-.5 1.8 0 .8.5.6 1-.4.7-1-.2-1.9.1-1.9.6 0 .3.2.4 1 .2 1-.1 1.1 0 1.1.3 0 .5-.7.7-2.4.7-.8 0-1.5.2-1.6.3 0 .2-.4.1-.8-.2-1.1-1-1.5-1.1-3.4-.7-1.2.3-2 .4-2.3.2-.5-.2-.8-.1-1.4.2-1.9 1.1-8.3 1.6-10.7.8zm54.5.1c-.2-.3 1-.8 1.6-.6 1.1.2.8.8-.4.8-.6 0-1.1 0-1.2-.2zm16.6 0s.3-.2.8-.2c.4 0 .8.1.8.3l-.8.2c-.5 0-.8 0-.8-.2zm32 0c.1-.2.3-.3.5-.3s.4.1.5.3c0 .2-.2.3-.5.3s-.5-.1-.5-.3zm-37.9-.8c0-.2.8-.5 2-.7l3.9-.9c1.9-.6 2.7-.5 3.8.4.8.7.9 1.2 0 1.4-1 .3-1.5 0-1.5-.8s.2-.8-4 .3c-3 .7-4.2.8-4.2.3zm-89.3-.5c-.3-.1-.6-.4-.6-.6 0-.2-.3-.4-.7-.5-.4-.1-.8-.5-1-.9 0-.4-.4-.6-.7-.6a5 5 0 0 1-1.5-.4c-.5-.2-1-.3-1-.1-.3.4-2.1.3-2.6-.3-.4-.4-.4-.5 0-1 .5-.8.8-.7 1 0 0 .5.2.6.8.7.8 0 .9 0 1-1 0-.4.3-1 .5-1.3.3-.3.5-.7.5-1 .2-.7-1-.8-1.5-.1-.7.7-1 .7-.9-.2.1-.5.4-.8.7-1 .8-.3.8-.6 0-.8-.4 0-.7-.2-.7-.4 0-.6 1.7 0 1.7.6 0 .2.2.3.4.3.7-.2 1.4.8 1.3 1.7 0 .9 0 1 .6 1l1.2.4c.4.2.9.2 1.7-.1.7-.2 1.6-.4 2-.3 1 .1 2.2.8 2.2 1.2l.7.3c1.6.2.4 1.1-2 1.7-.7.2-1.2 1-1.2 2 0 .7-.2.9-.7 1-.3 0-.9-.1-1.2-.3zm1-2c.2-.2-.3-.8-1-1.4-1-.8-1.4-1-1.8-1-.4.1-.7 0-1-.2-.3-.4-1.3-.2-1.3.3 0 .2.5.4 1 .5 2.6.4 2.5.4 2.4 1-.1.4 0 .7.2.8.5.2 1.4.2 1.6 0zm2.8-2c.3-.4-.8-1-2-1-1.4 0-1.7.2-1.4.7.3.5 3 .8 3.4.4zm79.4 3.9c-.5-.5 0-.7 2.7-.7s3.8.3 2.8.7c-.6.2-5.3.2-5.5 0zm-90-1c-.4-.3-.8-.7-.9-1-.1-.4.6-.3 1 .2.2.2.7.4 1 .4 1 0 1.2.2.8.7-.4.5-.8.4-1.8-.3zm9.6 0a6 6 0 0 1 1.5-.1c.7 0 .7 0 .2.2l-1.4.2c-.9 0-.9 0-.3-.2zm74.5.1a11 11 0 0 0-1.9-.4c-.7-.1-1.6-.4-1.8-.6-.5-.3-.5-.3.3-.3s4.3.6 4.5.8c.2.2-.1.8-.4.7a4 4 0 0 1-.7-.2zm27.7 0c0-.4.9-.8 1.3-.6.2.2.2.4.1.6-.2.3-1.4.3-1.4 0zm-114.8-.8c-1-.6-1.1-1-.5-1.2.5-.2 2 .9 2 1.4 0 .5-.5.4-1.5-.2zm15.8.3c0-.2-.4-.3-.9-.3-.6 0-1-.2-1-.4-.2-.3 0-.4.8-.4s1 .1 1.2.6v.7l-.1-.2zm5.8-.5c0-.3-.2-.6-.4-.7-.5-.2-.5-.2 0-.5.9-.5 1.6.7.8 1.4-.3.3-.4.2-.4-.2zm123.2-.6c-.3-.5.5-1.2 1-1 .3.1.4.4.4.7-.1.5-1.1.7-1.4.3zm-125.7-.8c-.1-.2-.3-.2-.5-.2-.5.2-1-.2-.8-.6.3-.4 2.7-.3 2.9.2v.6c-.2.4-1.4.3-1.6 0zm77.5-1v-.6c.4-.3 4.9-2 6.6-2.5 1-.3 2.3-.8 3-1.2.9-.5 1.8-.8 2-.7 1 .1.8.7-.2 1.2l-1.2.6-3.3 1.3-4.6 1.6c-1.7.6-2 .6-2.3.2zm-97-.4c-1-.3-1.2-1.2-.4-2 .6-.6.8-.6 1-.3.3.3.3.3 0 .4-.5.2-.3 1.1.3 1.3.5.2.7 1 .2 1l-1.1-.4zm15.9-1c-.6-.4-.6-1 0-1.3.8-.4 1.2-.3 1 .2 0 .4 0 .6.4.7.3 0 .5.2.4.4-.3.4-1.2.4-1.8 0zm-13.7-.3c-.4-.4-.4-1.3 0-1.2.2 0 .5.3.6.5.4.6-.1 1.2-.6.7zm44.9 0c-.9-.3-1.6-.3-2.3-.2l-2.9.2c-2 0-2.6-.3-1.8-.9.7-.5 0-.6-1.8-.3-1.3.2-2.5.1-2.2-.2l2.3-.7c2.3-.6 3.2-.4 3.2.6 0 .4.2.5 1.2.5.7 0 1.7-.1 2.3-.3.8-.3 1.3-.2 2.8.1 1 .3 2.3.5 3 .5.8 0 1.2.2 1.2.6.1.4-.1.4-1.8.4-1 0-2.5-.2-3.2-.4zm-36-.9c0-.2.2-.4.5-.4.2 0 .4.2.4.4s-.2.4-.4.4a.4.4 0 0 1-.4-.4zm2.6-.4c0-.3-.4-.6-.8-.8-.7-.2-.7-.3-.3-.7.3-.3.4-.7.3-.8-.2-.4.6-1 1.3-.7.8.2 2 1.4 2 2 0 .7-.8.8-1.3.2l-.5-.6.1 1c.1.7 0 1-.2 1s-.5-.3-.6-.6zm13.6-.8c-1-.1-1.7-.3-1.8-.4v-.7c.2-.6.4-.7 1-.7.5 0 1 .2 1.4.5.5.5.8.6 3 .5 2.3 0 2.6 0 2.7.4 0 .4-.1.4-1.5.4l-2.3.1c-.4.1-1.5 0-2.5-.1zm-28-.8c-.6-.2-.6-.3-.2-.7.4-.4.5-.4 1 0 .5.2.6.2.8-.2l.9-.7c.4-.1.6-.4.6-.9 0-.9-.6-1-1.3-.4-.6.7-1.5.7-1.7.2-.2-.6.3-1.2.8-1l1-.3c.7-.5 1.5-.6 2-.1.2.1.3.9.3 1.6 0 1.5-1 2.7-2 2.5-.4-.1-.7 0-.8 0-.2.4-.6.3-1.4 0zm18-.1c0-.3.5-.7 1-.9.9-.3 1.2-.3 1.9 0 .4.2.8.5.8.7 0 .4 0 .4-1 0-.5-.1-.9 0-1.6.2-1.2.5-1.2.5-1 0zM16 112l.3-.6c.6-.6 0-1-1.2-.8-1 .2-1.2.1-1.2-.3 0-.6.5-.8 2-.8 1.7 0 2.6 1.5 1.3 2.5-.6.5-1.2.5-1.2 0zm-4-.4c-.6-.6-.6-1 0-1 .5 0 .9.4.9 1.1 0 .6-.4.5-1 0zm135.3.2c0-.2.3-.5.6-.7.5-.2.6-.4.5-.8 0-.4 0-.6.5-.7 1.4-.4 1.2 1-.3 2-.9.6-1.3.7-1.3.2zm-123.8-1.9c0-.7.7-1 1.4-.7.8.3.9.8.2.8-.2 0-.7 0-1 .2-.5 0-.6 0-.6-.3zm12-2.5c-.3-.2-1-.3-1.4-.3-.9 0-1.4-.4-.8-.6.4-.2 3 .2 3.3.4.2.2-.1.7-.4.7l-.7-.2zm-9.7-.4c-.5-.7-.2-1.4.6-1.5.6 0 .8 0 .8.5 0 1.3-.7 1.7-1.4 1zm3-.6c.1-.6 1.3-.8 1.6-.3.3.5 0 .7-.9.7-.6 0-.8 0-.7-.4zm-16.1-1.2a5 5 0 0 0-1.8-2c-1.3-1-1.6-1.7-.6-1.7.7 0 2.5 1.5 3 2.4.4.8.5 2.7.2 2.7-.1 0-.5-.6-.8-1.4zm9.4.8c-.4-.9.4-1.3 1.8-.9.4.1.5.3.4.8 0 .5-.3.7-1 .7-.6 0-1-.2-1.2-.6zm-7.9-1.1c-.3-.6-.4-1-.2-1.1.4-.4 1.1.2 1.2 1.1.1 1.1-.3 1-1 0zm3 .4c-.9-.3-1-.7-.5-1 .8-.2 3.3.4 3.3.8s-1.6.5-2.9.2zm-7.8-.6c0-.3.2-.5.4-.5.3 0 .4.2.4.5s-.1.5-.4.5c-.2 0-.4-.2-.4-.5zm71.3-1-2.5-.7c-1.2-.4-3-.7-4.5-.8a7.8 7.8 0 0 1-2.6-.4c0-.3 2.4-.3 4.6 0l3.7-.1c2.2-.3 3.6-.1 3.6.4 0 .1-.8.2-2 0l-2 .1c0 .4 1.9 1 3.4 1 1 0 1.4 0 1.4.3s-.3.4-1.3.4l-1.8-.2zm-9.6-.3c0-.2 1.2-.5 1.4-.3v.3c-.2.3-1.4.3-1.4 0zm-12.2-2-2-1.3c-.7-.5-1.6-1-2-1-.6 0-.6 0-.1-.3.2-.2.4-.5.3-.7-.3-.4.6-.9 2.3-1a5 5 0 0 1 2.9.4c1.2.5 1.3.5 2.2.1.5-.2.9-.6.9-.8 0-1 .7-1.4 3.2-1.7a15 15 0 0 1 2.7-.3c.4.3.2.7-.5 1-.4.2-.9.4-1 .6a5 5 0 0 1-1.7.6l-3 1c-1.2.6-1.5.7-2.2.4-1.8-.7-2.4-.8-3.6-.3-1.3.6-1.3.6 1 2 1.2.5 1.6.6 5.7.7 4 .1 5 .2 4.7.6-.3.3-9.1.2-9.8 0zm90.2-1.1c-1.9-.2-1.7-.8.3-1 .7-.1 1 0 1.3.2.3.4.2 1-.2 1l-1.4-.2zm-96.1-1c-.1-.2-1.2-.2-2.4-.2-1.4 0-2.3 0-2.3-.2s.5-.3 1.2-.3l1.9-.2c1-.3.4-.5-1.6-.7-.9 0-2.5-.3-3.5-.6-1.3-.4-3-.7-5.3-.8-2.5-.1-3.4-.3-3.5-.6-.2-.5 6-.1 8.7.6 1 .3 3 .6 4.2.7 2.3.2 2.7.4 2.2 1-.3.2-.2.3.5.4.5.1.8.4.8.6 0 .4-.6.6-.9.2zm19-2.6c-1.6-.4-2.1-.8-1.8-1.3.1-.2 1-.3 3.3-.1 2.8.1 3.3 0 4.2-.4 1.3-.7 2.1-.7 2.1 0 0 .3-.4.8-1 1.2-1.2.8-4.7 1-6.8.6zM5.5 92.5c0-.8 4-1.9 6.8-1.9 1.8 0 2.8 0 4.4-.6 1.7-.5 2.7-.6 5-.6 2.7 0 3 0 3.1.5.2.7 2 1 3.5.4 1.5-.5 6.4-.4 6.4.2 0 .2-.6.3-2.5.2-1.7 0-3 .1-3.7.4-.7.2-2 .4-2.8.3-1.7 0-3.1.1-5.6.5-2.3.3-1.5-.4.9-.7 2.4-.4 2.8-.5 2-.8-1.5-.4-3.9-.2-6 .4-1.8.6-2.6.7-4.7.7s-2.9 0-4.6.6c-2.3.8-2.2.8-2.2.4zm83.9-.7c-.3-.5-.6-.6-1.9-.6-2.3 0-4.8-.3-4.8-.6 0-.2 1.5-.2 4 0 5.5.3 6.3.3 10-.4 1.7-.3 4.2-.6 5.7-.6 3.2 0 5-.3 5.4-.9.3-.5.9-.3.9.3s-1.3 1-4.8 1.2c-3.7.2-5.1.8-1.8.7h4.4c2 0 2.4.1 2.4.5 0 .3-.7.3-6.5.2-6.1-.2-8.9 0-12 .6-.6 0-.8 0-1-.4zm10.2-1H99c-.2 0-.2.1.1.1.3 0 .5 0 .4-.1zm5.5-2.5-2.8-1c-1-.5-2.3-.9-2.7-1-.6-.1-1.1-1-.5-1 .5.1 3 .9 4.4 1.5l2.4.8c.4 0 .8.2.8.5 0 .4-.6.5-1.6.2zm-26.3-.6c-.6-.7-.2-1.3.7-1.1 1 .2 1 .3.7.9-.4.6-1 .6-1.4.2zm8.8-2.4c-.3-.1-1.5-.4-2.6-.4-1.7-.1-2.1-.3-2.1-.6 0-.6 2.7-.9 5.5-.6 2.7.3 3.2.7 2.3 1.4-.7.6-2.3.7-3 .2zm7.7 0c-.1-.3-.5-.4-1-.4-.7 0-1-.2-1-.5a9 9 0 0 0-.4-.8c0-.1.6-.4 2-.5 2.1-.3 2.8-.3 2.5.2 0 .1.2.2.7.2 1.3 0 .9.5-.8.9-.8.1-1.3.3-1 .4.3 0 1 0 1.6-.2 1.5-.3 3-.4 3 0 0 .3-.2.4-2.7.8-2.1.4-2.8.3-3-.1zm1.2-1.5c.4-.1 0-.2-1 0l-2 .2c-.1.2 2.3 0 3-.2zM22.4 65c0-.2.5-.4 1.2-.5 1-.2 1.2-.2 1.2 0 0 .4-.8.7-1.8.7l-.6-.2zm1.9-1.4c.1-.3.5-.4.5 0 0 0-.1.2-.3.2-.2 0-.3 0-.2-.2zM4.9 61c-.3-.1-.5-.4-.5-.6 0-.5 3.5-.3 3.6.2.1.2-.1.3-1 .1-.8-.1-1 0-1 .3 0 .5-.5.5-1.1 0zm-.2-3.5c-.4 0-.6-.2-.5-.7.1-.7.8-.8 1.5-.2 1 1 .7 1.2-1 1zm.2-2.3c-.3-.1-.5-.3-.5-.5 0-.1.5-.2 1.5 0 .8 0 2.2 0 3.2-.3 2.3-.5 8-1.2 9.2-1.2 2 0 .4.5-3.2 1-2 .2-4.2.5-4.7.7a20 20 0 0 1-5.5.3zm130.4 71.1c.8 0 1.4-.2 1.4-.4 0-.3-4.3 0-4.6.3-.3.3 1.1.4 3.2.1zm-121.2-1c.3-.2.3-.2 0-.4-.5-.4-1.2-.3-1.2.1 0 .5.4.6 1.2.3zm51.2-.2c0-.1-.4-.2-1.2 0-.9 0-1.4 0-2.6-.6-1.8-.8-2.3-.8-2.3 0 0 .6.1.7 1.1.7 2.6.3 5 .2 5 0zm-7-.3c-.6-.5-2.1-.8-2.7-.6-.2.1-.4.3-.4.6s.4.4 1.8.4c1.6 0 1.7 0 1.3-.4zm97-.7c0-.1-.3-.2-.5 0-.2 0-.3.2-.2.3.1.3.6 0 .6-.3zm-.3-1.6.6-.5h-1.4c-1.3 0-1.8.3-1.5.8.3.4 1.6.3 2.3-.3zm2-1.8c-.2-.2-.3-.6-.4-.9-.2-.8-2.3-1-2.3-.2 0 .4 1.7 1.6 2.3 1.6.4 0 .5-.1.3-.5zM74.2 114c.1-.3 1-.4 2.5-.6 1.3 0 3.2-.3 4.2-.5 5-1.1 7.8-1.5 11.1-1.5 3.6 0 5.7-.3 6-.9.2-.2 2.8-.3 10-.3a936.9 936.9 0 0 0 14 0h2.2c-1.1-.5-.7-1.4.6-1.4l3.7-.4c2.2-.3 3-.4 3-.1.4.4 1.2 0 1-.4l.1-.6c.6-.3.3-.7-.4-.6-.5 0-.8 0-.8-.4-.1-.5.8-1.8 1.3-1.8.2 0 .4-.2.6-.4.3-.5 1.8-.6 2.6-.2.4.1.5 0 .4-.3 0-.3-.4-.6-1-.8l-.8-.4c0-.4 1.2-.7 1.8-.5.5.2.7.2.9-.1.2-.3.3-.4.7-.2.7.4 1.7.4 2 0 .2-.2 1.2-.5 2.3-.8 1-.2 2-.5 2-.7.1-.3-1.3-1.1-2-1.1l-1 .4c-.6.4-2.8.4-3.5 0l-2.7-.3c-2.4 0-3.1-.4-2.7-1 0-.1 1.1-.2 2.3-.1 2 .1 2.2 0 2.6-.5.4-.6.5-.6 1.8-.2 1.7.5 2.2.9 1.2.9-.3 0-.7.1-.8.3-.2.3.5.3 1.4 0 .5 0 .6-.2.4-.7-.2-1 .7-1.8 1.7-1.5.4.1 1 .2 1.5.1.4 0 .7 0 .7.2 0 .1 0 .3.2.3s.3-.3.3-.6c0-.5.6-.7 1-.2l.7.2c.4 0 .7 0 .8-.2.3-.5 2.5-.4 2.7.1.2.4 1.5.5 3.4.2l1-.2-.7-.6-1.2-.6c-.2 0-.8-.4-1.3-.8s-1.1-.8-1.3-.8c-.4 0-1.1-1-1-1.5.3-.5-2.1-.4-3.4.2-.6.3-1.6.6-2.2.6l-5 1c-1 .3-1.7.7-2.2 1.3-.4.4-1.2.9-1.8 1a44 44 0 0 1-8.7.4c.2-.4 1.8-.6 5.5-.8 2.3-.1 3.5-.3 3.7-.6.3-.3.1-.3-.8-.1-.7 0-1.1 0-1.1-.2 0-.1.1-.3.3-.3 2.2-.6 4.4-1.4 4.3-1.6-.2-.2-1.8-.1-2.7.1-.2 0-.4 0-.5-.2 0-.2.3-.4 1-.6 2.3-.6 4-1.2 4-1.3 0-.4-2.2-.8-3.3-.5-.7.2-1.2.1-1.4 0-1-.8-5.1.5-6.5 2-.3.3-1.1.9-1.7 1.2l-1.4.9c-.3.2-1 .4-1.5.4-.7 0-1 .2-1 .5 0 .5.9.7 1.1.3.1-.2 1-.5 1.8-.6l4.7-.9c3.5-.7 4-.8 3.7-.4-.3.2-3.9 1.1-6.5 1.6-1.7.3-4 1.2-4 1.5 0 .2.4.5.7.9.7.6.9 1.3.4 1.3a.3.3 0 0 1-.2-.3l-.6-.5c-.4-.3-.4-.2 0 .5.5 1.1 1.7 1.9 3 1.9l3 .1c1.3.2 1.8.1 2.3-.2.5-.3.8-.4.9-.2.4.7-.7 1.2-2.8 1.4-2.3.2-7-.2-7.1-.6l-.3-.3c-.6 0-3-1.7-3-2.1 0-.5.7-1.3 1.2-1.3V97l-.6-.2c-.5 0-2.7 1-2.7 1.3l.7.8c1 .9.8 1.1-.4 1-1.1-.3-1.2-.2-1 1.6 0 .3-.1.8-.3 1-.5.5 0 1 .7.8.5 0 .7 0 .7.3 0 .4-.3.4-1.5.4-1.5-.1-1.6-.1-2.3.7-.5.6-1.3 1-3.4 1.7-3 1-3.8 1.2-4 .8 0-.1 1.3-.7 3-1.3 3.3-1.2 3.7-1.4 3.5-1.7-.3-.5-1-.3-2.9.6-2.1 1-4.9 1.5-11.8 2-2.3.2-4.6.4-5.3.6-1.2.3-2 0-1.4-.6.2-.2 3.9-.8 8-1.2 1.4-.1 2-.3 2-.6.3-.6.5-.7 4.2-1.9l3.3-1.2c0-.2-2.7.1-4 .5-.8.2-1.1.1-1.2 0-.2-.3-.7-.3-2 0h-1.9c-.2-.4.3-.5 3.2-.8 1.7-.2 2.3-.4 2.8-.9.4-.4.5-.6.2-.8-.5-.3 0-.8 1-.8.6 0 .9 0 1-.5.2-.5.3-.6 1.6-.4l2.3.3c.9.1.9.1-.3-.5a6 6 0 0 0-5.7.1l-1.9.8c-.1 0-.8.3-1.4.8-1.2.8-1.9 1-1.9.6 0-.2.3-.4.7-.6 1-.6.8-.9-.3-.4l-2.3.8c-1.6.5-4.9 2.4-5.6 3.1-.3.4-1 .8-1.7 1-1.3.3-4.8 2.7-4.8 3.3 0 .2-.4.6-.8.8a42.2 42.2 0 0 1-5.8 2c-2.4.7-6.1 1.7-7.7 2-.6 0-1.3 0-2.3-.4-1.8-.7-2.1-.7-3 0l-.8.7 1.3.2 2.8.8c1.9.7 2.4.8 2.6.3zm10-3c0-.2.5-.4 1-.5l3.5-.5c2.1-.4 3-.4 2.6 0 0 0-6.2 1.2-6.8 1.2-.2 0-.3-.1-.3-.3zm34.7-2c0-.4 1-.8 1.8-.6 1.4.3 1 .9-.5.9-.7 0-1.3-.1-1.3-.3zm1.3-8c0-.3.1-.4.3-.4.1 0 .2.1.2.4l-.2.4c-.2 0-.3-.2-.3-.4zM62 112.6l-2.4-.2c-1.3 0-1.3 0-.4.2l2.4.2c1.4 0 1.4 0 .4-.2zm75.6-4.8c1.3-.4 2.2-.7 1.9-.7-1 0-5.2.8-5.2 1 0 .4.7.3 3.3-.3zm-66.8-.8h-.5a6 6 0 0 0-1.6.4c-.4.2 1 0 2.1-.4zm39-2.3 1.8-.8c0-.2-1-.5-2.4-.7-.8 0-2.9.4-4 1-.4.2-.5.3-.2.8s.5.5 1.8.4c.8 0 2.2-.4 3-.7zm-23.3-.4c.7-.3.5-.6-.2-.5-.4.1-.7.3-.7.4 0 .3.4.3 1 0zm27-1.6c1-.2 1.4-.4 1.5-.9 0-.7 0-.7-1.8 0-.8.2-1.9.6-2.3.6-.6.2-.7.3-.4.5.5.3 1.5.3 3-.2zm-.2-1.6 1-.6c0-.5-5.9-.2-6.4.4-.4.3.4.4 1.8.2 1.3-.2 1.7-.2 1.8 0 .2.5.6.5 1.8 0zm-21.6-.2c1.7-.6 1.3-1-1.4-1h-3c-.5.1-.5 1 .1 1.2 1 .2 3.4.1 4.3-.2zm-5.5-.4c0-.2-.3-.3-.6-.3s-.5.1-.4.3l.6.2c.2 0 .4 0 .4-.2zm26.6-1.2-1.4-.4c-1.3-.2-2.2 0-1.3.3.6.2 3 .3 2.7 0zm-16.4-1.4c1.3-1 5.5-1.5 7.3-1h1.4c.5-.1.6-.3.5-.7-.3-.8-.3-.9-.7-.5-.5.5-1.8.3-2-.3 0-.2-.2-.5-.3-.5l-.9-.6c-.3-.4-.8-.7-1.1-.7-.5 0-.4 0 .2.6.6.5.7.8.6 1.1-.2.5-.4.5-2 0-.4-.1-.5 0-.5.2 0 .7-1 1.3-2.3 1.4-2.6.3-3 .4-3 .8 0 .8 1.8.9 2.8.2zm21.7-.4c.2-.2.3-.5.2-.8-.1-.3 0-.5.4-.5.8 0 2.6-2.1 5-5.7l1.8-2.5c1.5-1.7 1.3-2-.7-2-1 0-1.6 0-1.9.3-.5.6-1 .5-1.2-.4-.3-.7-.2-1 .2-1.7a4 4 0 0 0 .5-1.4c0-.3.2-.7.4-.8.2-.2.4-.7.4-1.1 0-.5.1-.8.3-.8.1 0 .3-.6.4-1.3 0-.8.3-1.5.5-1.5.2-.1.3-.4.2-.9 0-.5 0-.8.3-.9.3 0 .3-.3.2-.6 0-.2 0-.6.2-.7.5-.4 1.3-2.8 1.3-3.8 0-.5.2-.9.3-.9.2 0 .3-.2.3-.4 0-.3.2-.7.4-1 .2-.3.4-1 .5-1.6.2-1.3 1-3 1.2-3 .2 0 .3-.4.3-.7 0-.4.1-.8.3-.9.2 0 .5-.6.6-1.3 0-.6.3-1.1.4-1.1.2 0 .2-.2.1-.5 0-.2 0-.8.3-1.3.3-.7.4-.8.9-.7.6.2.7-.1 0-.6-.3-.3-.3-.4 0-.8.3-.3.3-.5 0-.7-.4-.4-.3-1 .1-1 .3 0 .4.2.4.5 0 1.4 2.6.2 4.4-2l1.5-1.8c1-1 1-1.7 0-1.5-.7 0-.8.2-.7.7.1.4 0 .7-.1.7-.2 0-.3.1-.3.3 0 .2-.4.5-.8.6-.4 0-.8.3-.8.5l-.8 1-.8 1c0 .2-.2.3-.5.3-.7 0-.7-.2.4-2.1l.8-2-1-.2c-.7 0-.8.2-1.3 1.2-.3.6-.5 1.4-.5 1.7 0 .7-1 2.2-1.5 2.2-.2 0-.4.6-.5 1.4 0 .8-.4 2-.7 2.8a8 8 0 0 0-.5 1.8l-.6 2-1.5 4a217.6 217.6 0 0 1-6.2 16.8c-.6 1.8-.6 1.7-1 1.3-.6-.4-2.1 0-2 .5 0 .3.4.5.7.5l.6.2-.7 2c-1 3-1 3.2.2 1.1 1.3-2.1 1.7-2.6 2-2.4l-.8 2-.7 1.5.8-1.2c.3-.5.6-1 .8-1 .6 0 .1 1-1.2 3-2.9 4.1-2.9 4-3.8 4-1.1 0-1.1-.3.2-3 .5-1 1.2-2.6 1.4-3.4.5-1.3.5-1.3-.2-2.5-.7-1.3-1-1.4-2.1-1.1-.5.1-.6.3-.6 2.2 0 1.8-.1 2.4-1.3 5.2-1.4 3.5-1.4 3.6.6 4 .6 0 1.3.3 1.6.5.3.2.6.3.7 0l.6-.2c.3 0 .3.2.2.6-.1.5 0 .5.5.4l1-.5zm-10-2.8 1.2-.6c.2-.2 0-.3-.4-.1l-2 .3c-1.5 0-2 .2-1.8.6.2.3 1.4.2 3-.2zm47.6-.5c.2-1.2-.4-2-2.1-2.6-1.8-.6-2.2-1-2-1.5.2-.3.5-.5 1.2-.5.9 0 1 0 1.1-.6.2-.8 1.1-.9 1.7-.1.3.4.3.7.1 1-.3.7 0 1.2.7 1 .4-.2.4-.4.3-1.5-.2-1.4-.5-1.8-1.4-2-.4-.1-.6-.3-.6-.6.1-.6 1.2-.8 1.8-.3.3.3.4.2.9-.3.4-.6.4-.7 0-1.2-.3-.6-.3-.7 0-1.4.6-1 .6-1.6 0-1.8-.2 0-.6.1-1 .5-.6.7-1.8 1.1-2.2.9-.5-.3.1-1.2 1-1.5.5-.1.8-.4.8-.6l.5-.9c.6-.5.8-1.5.3-1.8-.2-.1-.5 0-.7.2-.3.3-.4.5-.1.8.4.6.1 1-1 1.7-1 .5-1.2.5-1.9.2-1-.6-2.2-.5-3.9.4-1.8 1-2 1-2 .3s.7-1.2 2.3-1.9c1.3-.6 2.3-.6 4.3-.1.6.1.7.1.4-.2-.2-.2-.3-.8-.3-1.4 0-.9.2-1.2 1.4-2.3 1.4-1.4 1.3-1.4-.3-.3-.5.3-1.1.6-1.4.6-.9 0-.5-.7.7-1.4 1.7-1.1 2.1-1.7.8-1.1-1.1.4-2 .3-2-.3.1-.3 1-1 2.2-1.6a11 11 0 0 0 2.3-1.4c.3-.5.4-1.9.1-1.9l-2.2 1.7a14 14 0 0 1-2.4 1.8c-.1 0-.3-.3-.3-.6 0-.6 2-2.9 2.6-2.9.2 0 .4-.1.5-.3.2-.2.5-.6.9-.8.5-.4.6-.7.7-1.8v-1.4l-.3 1.2c-.6 2-2.6 3.4-3.5 2.5-.3-.3-.3-.4.2-.9.6-.5.7-1 .2-1.2-.2 0-.2-.5 0-1.9.5-2.4.3-5.1-.4-6.4-.5-.7-.5-1-.3-1.2.7-.8 2 1.2 2.3 3.4 0 1.1.2 1.4.5 1.3l.7-.2c.2 0 .3-5.2.2-21.4L157 18c-.3-.2-2.7 1.4-4.1 2.7-4.5 4-4.8 4.2-8.1 4.5-1 0-2.2.3-2.8.5l-2 .6-3.8.6c-3.2.6-6.1 1.8-6.7 2.7-.4.6-1 .6-1 .1s1.6-1.7 3.3-2.5c.6-.3 2.8-.9 4.8-1.2 7.4-1.4 9-1.8 9.6-2.6.3-.4.5-.8.4-1-.2-.3-1.3-.3-2.5 0-.8.3-1.2.3-1.7 0-.5-.2-.8-.2-1.8 0-.6.2-2 .4-2.9.4-1.8.1-5.2 1-7.5 2.1-1.8.8-3.9 1.5-4.2 1.3-.3-.2.1-.5 2.5-1.5a27 27 0 0 0 2.9-1.4l.6-.4-.6-.3a143 143 0 0 0-22.2-.3c-.8.5.5.7 4.1.5h4.3c.8.2.7.8 0 1a80 80 0 0 0-19.8 1c-2.3.6-3 .6-3 .3 0-.2 4.2-1 6.7-1.3 1.2 0 1.9-.3 2.2-.6.6-.6 1-.6 1.4-.1.2.2.6.3 1.5.2 1-.1 1.3-.2 1.3-.8 0-.7.3-.8 2.2-1 1-.2 1.6-.4 1.7-.7.2-.2.2-.5.1-.6-.2-.2-2.4.5-2.8.9-.4.4-1.9.3-1.6 0 .4-.6-2.7 0-4.3 1-1.8.9-2.5.7-1.2-.3.5-.5.6-.7.2-.7-.6 0-5.8 2-7.3 2.8-1.1.6-1.6.7-1.2.1l1.6-1 1.4-1s-1.7.6-4.5 1.9c-1.2.5-1.6 1.1-1 1.5.3.1.5.3.4.4-.2.4 2.8.6 4.1.3.9-.1 1.3-.1 1.5.1.3.3.7.3 2.4-.3 2.6-1 5-1.3 5-.8 0 .3-.3.5-.8.6-1.7.3-5.4 1.5-6.4 2.2-1.2.8-1.4.8-1.4-.2 0-.7-.1-.8-.7-.6l-2.2.4c-1.1.3-1.6.5-1.8 1l-1.6 2a17 17 0 0 0-1.8 2.2l-.7.8c-.4 0-.3-.9 0-1.2 1-1-2 .4-3.2 1.4-.8.7-.6.9 1 .9 1 0 1.4 0 1.4.4 0 .2-.1.4-.3.4-.5 0-5 1.4-5.3 1.6-.5.4 0 .6.6.2.4-.2.7-.2 1 0 .2.3.7.1 2.2-.6 3.3-1.6 3.5-1.8 3.9-2.2 1-1.2 4.4-4.6 4.7-4.6.6 0 .4.4-1.3 2.1l-1.7 1.8 1.2-.4 1.5-.6c.7 0 2-.7 3.3-1.8.8-.6 1.5-1 2-1 .7 0 .8.2.4 1-.5.9 0 1 .7.2.8-.7 1.4-1 1.4-.5 0 .1-.1.4-.3.5-1.2.7-1.7 2.7-.7 2.7.3 0 .5.2.5.7 0 .3.1.6.3.6l.2-.2a7 7 0 0 1 2.4-1.9c.6 0 .2.8-.5 1.2-.5.2-1 .7-1.3 1-.2.4-.5.7-.7.7-.6 0-.5.5.1.6.8.2.6.7-.2.7-.7 0-.8.2-.8.5 0 .5.1.5 1 .4.9-.1 1.2 0 1.4.2.3.4.6.4 2.3.1 1.1-.1 2.5-.5 3.1-.8.6-.4 1.3-.6 1.6-.6.4 0 .4 0 0 .4-.3.4-.3.4 0 .2.3 0 .7-.4 1-.6.4-.3.4-.3.4.4 0 .9-.2 1.2-1 1.6-.4.3-.4.3 0 .3.2 0 1 0 1.7-.2 1-.2 1.4-.5 1.8-1.1.8-1.4 2.3-3.1 2.7-3.1.5 0 .4.2-.5 1.2-.8 1-.7 1.4.3.9.8-.4 1-.2.4.5-.4.5-.4.5.2.5.3 0 1.3-.5 2-1 1.6-1.2 5-3 5.6-3 .6 0 .3.5-.7 1l-2 1.2c-.7.7-.8.8-.4 1 .3.3.3.4-.1.6l-2.3 1.6c-2.2 1.7-4.5 3-4.7 2.8-.2-.2-.4-.1 2-1.6l1.9-1.4-3.2.1-1 .7c-.7.7-1.2.8-1.5.4l-1.6.2c-.8.2-2 .3-2.5.3-.8 0-1-.2-1-.7.1-.3 0-.6-.2-.6-.6 0-2.1.6-2.7 1.1-.4.4-.7.4-1.3.3-.5-.2-1.8-.3-3-.3-2 0-2.2 0-2.6.5-.2.3-.6.5-.8.5l-2.1.5c-1.7.5-2.4.4-1.4-.3.8-.5.7-.6-.7-.6-1 0-1.6.2-3.3 1.3l-2.3 1.2c-.4 0-1.8 2-1.7 2.3 0 .2 0 .6-.3 1-.6.8-.5 1 .2 1 .5 0 .7-.2.7-.6a4 4 0 0 1 1.2-2.3c.6-.5.8.2.1 1-.3.3-.5 1-.5 1.3 0 .7 0 .7 1.1-.5.7-.6 1-1.2 1-1.3-.5-.3-.5-1 0-1.3.2-.3.3-.3.3 0 0 .6 0 .6 2.8-.3 2.5-.8 2.7-.9 2.7-.6l-1.9 1c-1.3.4-2.4 1.1-3.4 2-1.7 1.5-1.6 2 0 .7 2.2-1.6 3.3-2.1 4.4-2.2 1.6 0 3.2-.9 3.1-1.6 0-.7.9-1 3.6-1.3 2.6-.2 2.3.3-.3.8-1.2.2-1.9.5-2 .7 0 .2-.3.6-.6 1-.5.5-.5.6 0 .6.4 0 .4 0 0 .5-.4.3-.5.7-.4 1 .2.6-.5 2-1 2-.3 0-.2-2.2.3-2.9l.2-.6c-.4 0-1.2.7-1.2 1 0 .1-.3.5-.8.7-.7.4-.8.5-.6 1.2.1.8.1.8-.5.6-.8-.2-1 .3-.3.6.3 0 .4.2.2.4s-.5.2-.8 0c-.3-.2-.9-.3-1.2-.2-.5 0-.6 0-.6-.8 0-1-.2-1.2-.5-.5-.2.7-.2 1.5 0 1.5s.4.2.4.5c.1.4.4.5 1 .5s1 0 1.2-.2c.2-.2.9-.3 1.6-.3 1.1-.1 1.3 0 1.2.3 0 .7.3.6 1-.2.4-.3.8-.6 1-.6L98 49c.8-.6.9-.6 1.4-.2.4.4.5.4.8 0 .5-.6.6-.6 1 .2.2.6.3.7 1.1.6.9-.2 1-.2 1 .7.2.8 0 2.8-.2 3.6-.2.7-.6 0-.6-1.3s-.2-2-.6-1.7v.6c.2.3.3.7.3 1 0 .7-.4.4-.9-.8l-.6-1.3h-1c-.6-.2-.6-.1-.3.4l1 1c.4.1.8.6.9 1 .1.4.5 1 .8 1.4l1.3 1.4c1.3 1.4 2.6.5 1.8-1.3-.5-1-.8-.7-.4.4.3 1 0 1.3-.5.5-.4-.7-.4-4 0-5.2.2-.5.2-1.1 0-1.5-.2-.5 0-.9.9-2 .6-.7 1.2-1.3 1.4-1.3.5 0 .5.1-.3 1.2-1 1.6-1 2-.1 2.7.4.3.8.8.8 1.2 0 .5.2.4.7-.6.9-1.4 1.5-1.4 1.6.1 0 .6.2 1.6.4 2.2.3 1.3 0 2.5-1 4.6-.8 1.5-.8 1.5 0 1.6.4 0 .6-.1 1-1.1.2-.7.5-2.5.6-4 .2-3.3.3-3.7.8-3l.4.2c0-.6 1.3-.4 2 .4l.6.7.7-.7c.4-.3.8-.9 1-1.2 0-.4.4-.6.8-.6a3 3 0 0 0 1.2-.3c.9-.4 2.4-.8 2.7-.6.3.2-.2 1.1-.6 1.1-.7 0-3.7 3.2-3.7 4 0 .3 1.4-.6 2.8-1.9a3 3 0 0 1 1-.7c.4 0 .1 1-.6 1.8-.8 1-1 1.5-.5 1.2.6-.4.2.4-.7 1.2-.5.5-1.2.9-1.4.8-.3 0-.6.1-.7.4 0 .2 0 .3.3.2.4-.2.5 0 0 .7-.3.7-.7.7-.7.1 0-.4 0-.4-.5 0-.4.3-.6.9-.6 1.4 0 .8 0 1-.5.8-.3-.1-.5 0-.5.1 0 .2-.3 1-.7 1.6-1 2-.8 2 .8.2 3-3.4 3.7-4 3.9-2.8 0 .5.2.4 1-.5.6-.5 1-1.2 1-1.4 0-.5 2.4-1.7 2.6-1.3.1.2-.1.6-.6 1-1.8 1.4-4 3.7-4.8 5-.8 1.3-1.4 1.7-1.4 1 0-.4-1.6 1.4-1.6 1.9s-.8.6-1 .2c0-.4-.1-.4-.3 0-.4.6-.8.5-.8-.3 0-.7 0-.7-.3-.3a7 7 0 0 1-.9 1.1 10 10 0 0 0-1.7 4.3c0 .3-.2.7-.5.9-.6.3-1.1 2.3-1.2 4.4 0 2 .2 2.3 1 1.7.7-.3.8-.3 1 0l.2.7c0 .2.2.3.4.3.4 0 1-1.5 1.1-2.5 0-1 .9-4 1.4-5 .5-.8 1.1-1 1.1-.2l-.5 2.4c-.7 2.5-.7 5.4-.1 5.9.2.1.3.5.2.7-.1.3.6 3 .8 3 .6 0 1-.5 1-1.1 0-.5 0-.8.3-.8s.6-.3.7-.7c.3-.7.8-.8.8-.2 0 .3 0 .8.2 1.1 0 .4 0 .6-.3.6-.5 0-.5 0-.3.6.1.2.3.4.5.3.3-.1.5.1.7.5.1.4.4.7.5.7.2 0 .2.4.1 1-.1.7 0 .9.4.9 1 0 2-1.6 3.4-5.6.8-2.1 2-5.7 3-8a132.4 132.4 0 0 0 4-12.2c.5-1.5.5-2 .4-5-.2-3.7 0-5 1-6.2.6-.7.7-.7 4.7-.9 4.2-.2 5.3 0 5.8.8.5 1 .3 2.5-.5 3.8-.8 1.3-5 5.3-5.8 5.6-.5.1-.5.3-.4 1 0 .7 0 1-.2 1a56.9 56.9 0 0 0-6.7 15.7 17.5 17.5 0 0 0-1 3.6c-.6 1.5-1 3.1-1 3.6 0 .6 0 .6 1.2-2.4.8-1.8 1.4-2.7 1.4-1.9l-.6 2c-.5 1.3-.6 1.6-.3 1.6.2 0 .4-.2.4-.6 0-1.7.8-2 1.4-.6.3.7.6 1 1 1 .6 0 1.5-1.2 1.5-2 0-1 .3-1.5 1-1.8l.8-.3-.6-.4c-.4-.2-.6-.7-.7-1.2 0-.8 0-.8-.3.2-.2.6-.5 1.1-.7 1.1-.6 0-.5-8 0-10 .6-1.6 1.4-2.8 1.8-2.5l-.1 1.6c-.3 1.5.1 5.7.6 5.5.1 0 .3.5.3 1 0 .8.3 1.4.5 1.6.4.2.5.7.4 2.1 0 1.7 0 2-.8 2.6-.5.5-.8 1-.8 1.5s-.3.9-1 1.3c-.5.3-.8.6-.7.7.4 0 1.7-.6 2.6-1.4a3 3 0 0 1 3.4-.3l.8.4a47.7 47.7 0 0 0 1.7-10.5c1-.4 1.2 2.1.6 5.7-1 4.8-1.1 5.6-1.5 6.3-.6.8-1.2.8-2-.2-.6-1-1-1-2-.1l-.8.6-1 .7c-.4.4-.8.7-1 .7 0 0-.2.8-.2 1.7-.1 1.4 0 1.7.3 1.8 1 .4 2.2 1.3 2.4 1.8.1.6.3.6 2.5.7 2 0 2.5 0 2.5-.3 0-.7-.6-1-1.3-.4-.3.2-.8.4-1.1.3-.6-.2-1.5-1.7-1.2-2.3.2-.6 1.6-.5 2.3.1.6.6.8.7.8.3 0-.2-.5-.7-1-1.2-.6-.7-1-1-1.6-.9-.8.1-1-.3-.5-1 .5-.5 1.7-.5 2.4 0 .5.4.6.3 1.4-3 .5-1.9.8-3.7.8-4.2 0-.8.6-1.5 1-1.2l.1 1.8V79l1.2.9c1 .7 1.2 1 1.2 1.9l.2 1.2c.2 0 .3.4.3.8 0 .8-.7 1.2-1.1.5-.3-.6-1.3-.5-1.3 0 0 .4.2.6.6.5.5 0 .6.2.6.8 0 .7 0 .8-.6.8-.4-.1-.6 0-.6.5 0 .3-.2 1-.4 1.3-.4 1-.3 1.2.5 1 1-.1 1.2.7.2 1-1 .4-1 1 0 1.4 1 .4 1.7.2 1.7-.4-.3-2.6-.1-3.8 1.2-7.6 1.3-3.5 1.4-4 1.6-7 0-2.1.2-3.1.5-3.2.2-.1.3.4.3 1.8V77l1.2-1.3c1.9-2.1 4.2-2.8 4.2-1.3 0 .4-.3.6-.9.7-.5.1-1.4.7-2.2 1.5-.8.8-1.6 1.4-1.8 1.4-.3 0-.5.3-.6.7A16058.7 16058.7 0 0 1 146 83c-.5.2-1 1.7-1 3.5-.2 1.3-.1 2 .3 3 .5 1.3.5 1.3 1.6 1.3.7 0 1.3-.2 1.7-.6l.6-.6 1.4 1.3a2416.2 2416.2 0 0 1 4.6 4s.3-.3.4-.7zm-9.6-5.4c-.2-.3.4-2.1 1-2.8a4 4 0 0 1 1.4-1c.5-.1.9-.3.9-.4 0-.2-.9 0-2.2.5-.6.2-.8.2-.9-.1-.2-.6.1-1 1.4-1.5 1.7-.8 4-.9 5.1-.3.8.4 1 .6.9 1.3 0 .5 0 .9.2.9.1 0 .3.3.3.7 0 .6-.5.8-1 .4-.3-.3-1.1-.4-2.5-.3-.9 0-.9 0 .6.5l1.5.5v.7c0 .9-.4 1-1.2.5-.8-.5-2.6-.4-4.2.3-1 .5-1.1.5-1.3.1zm8.3-3.8c0-.5.6-1 1.3-1 .6 0 .8.6.3 1-.5.5-1.6.5-1.6 0zM133 83.6c0-.7 1.5-2 2.4-2 .8 0 1.4.7 1.2 1.3 0 .2-.5.4-.9.4s-1 .1-1.3.4c-.7.5-1.4.5-1.4-.1zm-14.3-2.8c0-2.5.3-3.2.8-2.6.5.4 0 5-.4 5-.3 0-.4-.5-.4-2.4zm-1.2-.2c-.3-.4.3-1 .7-.6.2.2.1.4-.1.6-.3.2-.5.2-.6 0zm30.3-1.4c0-1 4.5-3 5.1-2.3.5.5 0 1-1.8 1.6-1 .3-1.8.7-1.8.8-.3.4-1.5.3-1.5-.1zm-4.1-.6-.8-2c-.6-1.5-.5-2.2.3-2 .7.1 1.7 2.3 1.6 3.4 0 1-.8 1.4-1.1.6zm1.6-1.6c-.2-.3-.2-1.1.1-1.1.4 0 .7.7.4 1-.2.2-.4.2-.5.1zm-37.6-2.8c.3-1.7.9-3.4 1.3-3.7.6-.3 1.5-1.9 1.6-3 .1-.7.5-1.3 1.2-2 1.1-1.2 1.4-1 .4.5-.3.5-.6 1.2-.6 1.6 0 .8-1 2.5-1.7 3.1-.5.5-1 1.8-1.4 3.6-.2 1.1-1 1-.8 0zm36.4.6a6 6 0 0 0-1-1.4c-1.1-1.3-1.4-2.1-.8-2.4.7-.5 3 2.2 2.8 3.3 0 .6-1 1-1 .5zm4-.3c-.5-.7.6-2.2 2.1-3 .7-.4 1-.4 1.5-.2 1 .5.7 1.1-.6 1.5-.5.2-1.4.8-1.8 1.2-.8 1-.8 1-1.2.5zm-38.9-.3c-.2-.3-.2-.5.1-1 .6-.7 1-.7.8.2-.3 1-.5 1.2-.9.8zm27.4-1.2a17 17 0 0 1-1-3.8c0-.8.8-.6 1.3.4s.6 3.4.2 3.5c-.2.1-.4 0-.5-.1zm10-1.4L146 70c0-.5-.7-1.8-1.4-3-1.3-2.1-1.4-3.2-.3-2.4.4.2 1 .7 1.2 1.2.4.5.7 1 .8.9.1 0 .3-.4.4-.9.3-1 .9-1.3 1.5-.6.8.6.7 1.4-.4 2.3-.6.6-.8 1-.7 1.3.2.6.4.6 1.1-.2.4-.4 1-.7 1.2-.7 1.2 0 1.7 1.5.6 1.8-.3 0-1 .6-1.6 1.3-1 1.3-1.7 1.5-2 .6zM143 70c-1.4-1.6-1.8-2.7-.9-2.7.5 0 2.6 2.4 2.5 2.9-.2.7-.9.6-1.6-.2zM119 67.8l-.2-.8c0-.8-.5-1.2-1-1l-.6.2c-.4-.2.5-1.7 1-1.7.2 0 .3-.2.3-.5s.2-.7.5-.9c.6-.5 1 .2.7 1.8l-.1 2.2c0 .8-.2 1-.6.7zm2.4 0 .2-1.4.5-1.6c.2-.4.7-.4.7 0l-.4 1.8c-.4 1.2-.7 1.5-1 1.2zm20.8-1a9 9 0 0 0-1.7-.6c-.9-.2-1.2-.4-1.2-.8s.2-.5 1-.5c1.4.1 3 1 3 1.6 0 .6-.4.7-1 .3zm8-1.2c0-.7-.3-1.7-.5-2.4-.3-1.2-.2-1.6.5-1.2 1.4.9 2 4.9.6 4.9-.4 0-.5-.3-.6-1.3zm2-1c.2-.8.1-1.2-.6-2.3a9.3 9.3 0 0 0-1.5-1.8c-.6-.4-.7-.6-.4-1 .4-.7.7-.6 1.6.1 2 1.7 3 6 1.3 6-.4 0-.5-.2-.3-1zm-13.2-.4c-.2-.4.4-.8 1.3-.8.8 0 .8 0 .4-.5-.3-.3-1.1-.6-1.9-.8-2.4-.6-3.6-1.7-3-3 .2-.8 1-.9 1.2 0 0 .6.8 1 2.5 1.6.9.3 2 .8 2.4 1.2.7.6.8.7.6 1.6l-.2 1h-1.5c-.9 0-1.7-.1-1.8-.3zm5.5-.8c-.4-.9-.2-1.6.4-1.6.3 0 .4.2.3.5-.2.3 0 .3.6.2.7-.2.8-.1.8.5 0 .4-.2.7-.7 1-1 .3-1 .3-1.4-.6zm-27.3-.5c0-.7.7-2 1.2-2.2.5-.2.5 0-.1 1.3-.7 1.4-1 1.7-1 .9zm35-3.8c0-.7.6-1.1.9-.7.2.4-.2 1.3-.6 1.3-.2 0-.4-.2-.4-.6zm-2.1-1.6a6 6 0 0 0-1.4-1c-.4 0-.3-.7.1-.8.2-.1.7 0 1.2.3.7.5.8.5.6 0 0-.3-.6-1-1.2-1.5A7 7 0 0 1 148 53c-.2-.5.3-1.3.8-1.3.2 0 .4.2.5.5.1.2.6 1 1.2 1.5 1 1.1 1.4 2.3 1.2 3.7 0 1-.4 1-1.7 0zm-6.8-9.1c-.4-.6 2.6-5.3 3-4.9.4.3-.4 2-1.7 3.8-1 1.4-1 1.4-1.3 1zm-28.3-3.1-.2-1.4c0-1.3 1.6-2.7 4.9-4.4 2.5-1.3 3.2-1.7 2.6-1.7-.6 0-.3-1 .2-1.2a11 11 0 0 0 1.8-1c1.3-.8 2-.7 1.4.2-.5.5 0 .5 1.1-.2.6-.3 1.2-.5 1.3-.4.2 0-1 .8-2.6 1.8a844.2 844.2 0 0 0-6.8 3.8c-2.8 1.5-3.6 2.5-3 4.3.2.4.1.6-.2.6-.2 0-.4-.2-.5-.4zm26.2-2.7c-.4-.7.2-1.8 1.7-3.5L145 37c.3-.3.6-.4.8-.3.3.2-.2 1-1.8 2.7a6 6 0 0 0-1 1.3l2.3-1.2a9.3 9.3 0 0 1 2.4-1.2c.5.3.1.7-1.3 1.6l-2.9 1.8c-1.6 1.1-2.1 1.3-2.3 1zm-15.8-3.5c0-.4.2-.6 3-2.6 3.3-2.3 3.9-2.6 3.9-1.8 0 .2-.8 1-1.8 1.6l-3 2.1c-1.4 1-2 1.2-2 .7zm4.8-1.2c0-.6 5.6-3.9 6-3.5.4.4-.3 1-2.7 2.4-2.7 1.5-3.3 1.8-3.3 1.1zm20.4 0c0-.5 3.2-2.1 3.8-1.9.8.3.4.7-1.3 1.5-2 .9-2.5 1-2.5.4zm-38.8 0-.1-.7c0-.3-.3-.7-.7-.9-.7-.5-2.3-2.8-2.8-4-.5-1.3.2-1.3.9 0 .4.8.9 1.7 1.2 2l.6.7-.3-1-.4-1.3c-.3-.8.4-.8.8 0 .4.7 1.5 4.5 1.5 5 0 .4-.4.4-.7.2zm-9.4-1.1c.1-.5 3-2.2 3.2-2 .5.2.2.6-1 1.5-1.5 1-2.3 1.2-2.2.5zm39.3.1c-.1-.1.6-1 1.7-2 1.1-1.1 1.8-1.9 1.5-1.9-.4 0-3.2 1.4-6 3l-2 1c-.7 0-.2-.9.8-1.5l3-1.6 3.2-1.6c6-2.2 5.7-2.2 6-1.6.1.5-.4 1-1 1-.3 0-6 4.6-6.4 5.3-.2.3-.6.3-.8 0zm-34.2-1c.1-.2 0-.8-.5-1.3-.3-.5-.6-1-.6-1.3 0-.6.5-.3 1.3.9.4.6 1 1.2 1.2 1.2.6 0 .4.5-.3.8-1 .4-1.2.3-1-.2zm19.5-1.5c0-.4 1.4-1.4 2-1.4.4 0 0 1-.5 1.4-.9.6-1.5.6-1.5 0zm-18-3.2c0-.5 1.9-2 2.3-1.8.3.1.9-.2 1.4-.7.9-.7.9-.8.3-.6a10 10 0 0 0-3.7 1.8c-.9.8-1 .8-1.1.2-.2-.4-.4-.5-1-.4-2.3.3-6.1.4-6.3.1 0-.2.1-.3 1.8-.6l2.7-.2c1.6 0 2.4-.2 3-.5.5-.3.9-.4 1.1-.3.3.2 1 0 2.2-.5 2-1 7-2.2 7.4-2 .7.5.1.9-1.5 1.1-1.1.2-1.9.5-2.2.9-.8.9-3.8 3-4.4 3-.3 0-.7.1-1 .3-.3.4-1 .6-1 .2zM45 92.5c0-.1-.2-.2-.5-.2s-.6 0-.7.2c-.1.2.1.3.5.3s.7-.1.7-.3zm2.2-.2c-.2-.4-1.4-.4-1.4 0 0 .2 1 .5 1.4.3v-.3zm8-.4c.6-.4 1-.8 1.1-1.2.1-.7 0-.7-1.7.2-1 .4-1.4.8-1.4 1.1 0 .7.7.7 2-.1zm4.1-.8c-.3-.2-.3-.2-.1.2 0 .2.2.4.3.3 0 0 0-.3-.2-.5zm52.6-.6c-.1-.4-.2-.3-.3.3 0 .5 0 .6.1.5.2-.2.2-.5.2-.8zm-59.5-.3c.7-.5.7-.7 0-1-1-.2-.3-.6.8-.6 1.2 0 1.3-.2.4-1L53 87l-1 1.2c-1 1-1.1 1.1-2.8 1.3l-1.7.2 2 .5c2.6.6 2.4.5 3 0zm13.3-.5c.5-.3.7-.5.7-1.1 0-.5 0-.8-.2-.8-.6 0-1.2.4-1.4 1-.1.3-.3.5-.5.4-.3-.1-.9.8-.6 1 .2.2 1 0 2-.5zm61.8 0c0-.3.2-.6.3-.7.1-.1.3-.5.3-.8 0-.3.2-1 .5-1.3.6-.7.5-1.2-.1-1.2-.5 0-1.4 2-1.6 3.5 0 1 0 1.2.3 1.2.2 0 .3-.3.3-.6zm-65.6.2c.2.3.3.3.6 0 .2-.2.1-.4-.5-1-1-1-1.8-1.1-2-.1-.3.9.4 1.5 1.2 1 .4-.2.6-.1.7.1zm70.6-.4c.2-.2-.2-.7-.5-.7-.2 0-.5.3-.7.6-.4.5-.3.5.4.4l.8-.3zm-73.8-1.1c0-.1 0-.4-.2-.6-.2-.3-.3-.3-.3.2 0 .3.1.6.3.6l.2-.2zm-11.7-1 .1-.6c.2-.2 0-.3-.5-.4-1.3-.3-1-1 .3-1 1.1 0 1.1 0 .5-.4l-2-.6c-1.8-.2-2.5-.5-2.5-1 0-.2-.4-.4-.8-.5-1.8-.4-2.3-.6-2.3-1s0-.4 4.6.2c3.7.5 4.9 1 2.7 1.2l-1.2.1 2 .7c1.1.4 2 .8 2 1 0 .2-.6.7-1.2 1l-1.2.6h1.5c1.8 0 3.4-.3 3.4-.6 0-.5-1.2-2-1.6-2-.2 0-.5-.2-.6-.7-.4-1-.6-1.1-1.7-1.4-.5-.2-1.2-.5-1.4-.8-.5-.3-.6-.3-.8 0-.1.2-.6.2-1.5.1l-3.5-.3c-3-.2-3.5-.3-3.5-.8 0-.4.4-.4 2.6-.3l4 .4c1 0 1.4 0 1.3-.2-.3-.3 0-.3.7 0L45 78.7c-2-2-1.6-1.8-6.3-1.2-2.8.3-4.5.2-4.6-.3 0-.4.3-.5 2.6-.5 1.5 0 2.8 0 2.8-.2.4-.3-.4-.5-3.3-.6-3-.2-3.7-.3-3.7-.8 0-.1 1.4-.2 3-.2 3.6 0 4.7-.2 4.6-.8-.1-.4-.5-.5-4-.5-2.9 0-4 0-4.3-.3-.3-.3-.3-.5-.1-.7.2-.3.6-.3 1.9 0 2.1.5 6 .2 6-.5 0-1-.5-1.1-4-1.3-2 0-4-.3-4.7-.4-1-.2-1-.1-1 .5 0 .4.1.8.4 1 .4.2.4.4.4 1-.1.7 0 1 .4 1.3.8.5.7 1-.1.7h-.7c0 .4.7 1.1 1.2 1.3.2 0 .6.6.8 1 .7 1.6 1.6 2.4 2.6 2.5.8 0 1 .1 1.5 1.3.7 1.3.8 1.4 2.8 2l2.2.8-.2.3c-.2.1-1 .2-1.6 0-1.1 0-1.2 0-.7.3.3.3 1 .5 1.4.5 1.1 0 2.5.3 2.5.5l-.6.4c-.2 0-.5.2-.5.3l2.6 1 2.7.6v-.3zm93.6-1.8c.1-2.2.4-2.7 1.2-2.7.6 0 1-1.4.5-1.8-.2-.1-.6-.2-.9-.1-.7 0-1.8 3.7-1.5 5.5 0 .7.2 1.3.3 1.3.1 0 .3-1 .4-2.2zM54 85c0-.4-1.5-2-1.8-1.9-.4.2 1 2.1 1.5 2.1.2 0 .3 0 .3-.2zm70.2-.4c-.2-.3-.5-.4-.6-.4-.1 0-.2.1-.2.4 0 .2.2.4.5.4.5 0 .5-.1.3-.4zm-10.5 0c.7-.3.5-.6-1.5-1.6-1-.6-2-1.2-2-1.5 0-.2-.5-.6-1-.8-.7-.3-.9-.5-1.2-1.7-.5-2-.8-2.3-.6-.5.1 1.2.3 1.7.8 2.2l.6.8c0 .1.8.8 1.8 1.4l2 1.5c.2.3.5.4 1 .1zm12.4-1c-.2-1.6-.3-1.6-.3-.1 0 .6 0 1.2.2 1.2.1 0 .2-.5 0-1.1zm3.6.4c.2-.5.2-.8 0-1-.1-.2-.2-.6-.1-1 .1-.6 0-.6-1.1-.6-1.4 0-1.7.2-1.7 1v.6l.4-.6c.4-.5.4-.5.8 0l.4.8c0 .2.8 1.5 1 1.5l.3-.7zm-14.1-1c-.5-1-1-1.3-1-.5 0 .5 1.2 2.1 1.3 1.8a3 3 0 0 0-.3-1.3zm-38.5.8c.6-.1 1-.3 1-.4-.3-.3-2.7 0-2.8.5-.1.2 0 .3.3.2l1.5-.3zm-31.6-.3h-.5c-.2 0-.1.1.2.1.2 0 .4 0 .3-.1zm12.3-1-.2-.2s-.2.1-.2.3c-.1.1 0 .2 0 .2.2 0 .4 0 .4-.2zm1.2-2.1c0-.5 0-.7-.2-.7-.3 0-.4.1-.6 1.4-.2.7-.2.8.2.4.2-.2.5-.7.6-1.1zm-5.2.3c.1-2 .1-2.2-.2-2.3-.3 0-.7 2.5-.4 3 .2.4.5 0 .6-.7zm10.4.6v-.3c-.2 0-.4.1-.5.3l.1.2.4-.2zm-3-1.4-.4-.2c-.3 0-.4.2-.4.7 0 .7 0 .7.4.2l.4-.7zm1.6-.3c0-.3-.1-.4-.3-.3l-.2.8c0 .6 0 .7.2.4.2-.3.3-.6.3-1zm5-.5c1-1.3 1-2.1.2-2-.7 0-1.2 1-1.4 2.5-.2 1.2.1 1 1.2-.5zm42.8.8c-.1-.2-.2-.2-.2.1 0 .3 0 .5.2.4v-.5zM49 79.6c0-.2-.2-.8-.5-1.3-.4-.7-.7-.8-1.5-.8l-.9.1c0 .3 2.5 2.5 2.7 2.5.1 0 .2-.2.2-.5zm3-.6c0-.5-.2-1-.3-1.3-.2-.3-.3 0-.3.9 0 .7.1 1.2.3 1.2l.2-.8zm12.8 0c0-.5-.8-.4-1 .1 0 .4.1.5.5.4.2 0 .5-.2.5-.5zm37-1.2c-.2-.4-.7-.5-.7-.1 0 .3.3.5.6.5.1 0 .2-.1 0-.4zM71 76.2c0-.5-.1-.9-.2-.9-.5 0-.9.7-.9 1.7s0 1 .6.6c.3-.3.5-.8.5-1.4zm-7.6.8c.8-.2 1.6-.7 1.9-1 .3-.3 1-.8 1.6-1 1.4-.4 2.1-.9 1.6-1-.6-.3-2.4.2-3.2.7-1.7 1.3-5 2-9 2.2-.8 0-.9.5 0 .6 1.2.3 5.8 0 7.1-.5zm-17-.3c.2-.2.3-.5.1-1-.1-.6-.2-.7-1-.5-1.6.3-1.8.3-2 0 0-.2.3-.5.7-.7 1-.3 1-.9.4-1.7-.2-.2-.3-.7-.3-1 0-.5-.3-.8-1-1-1.6-.8-1.8-.7-1.6 1 .3 2.1.5 2.5 2 3.9 1.2 1.2 1.9 1.5 2.6 1zm110.8-.4c0-.3 0-.4-.3-.3-.6.2-.8 1-.3.9.3 0 .5-.3.6-.6zm-65.6-1.1c1.8-2.1 1.7-2.4-.2-.5-1 .8-1.6 1.6-1.6 1.8 0 .5.6 0 1.8-1.3zm2.5 0a59 59 0 0 1 2.3-2.8c0-.3-1.9-1.8-2.3-1.8l-1.8-.8-1.8-.7-.2 1c0 .7-.4 1.2-2.3 3a14 14 0 0 0-2 2.4c.3.4 4.4-3.4 4.8-4.5.3-.9 1.3-1 1.3-.2 0 .4.2.6.6.6.3 0 .5.1.5.4 0 .2.2.5.5.6.3.2.6.6.6.8 0 .7-1.5 3-1.9 3-.1 0-.3 0-.3.2 0 .6 1 .1 2-1.1zm1.5 1.1c.6-.4 1.6-2 1.6-2.5s-.5-.4-.7.1l-1 1.6c-.7 1.1-.7 1.5.1.8zm4.2-.3.4-.8c.5-.5.3-1.3-.2-1.1-.2 0-.4.4-.4.7 0 .4-.2.8-.3 1-.4.3-.3.9.1.7.2 0 .4-.3.4-.5zm-58.2-.8c0-2.2-1.1-7.3-1.6-7.3-.3 0-.3 0 .1 1.5.2.7.6 2.2.7 3.3l.3 2-.7.5c-.7.6-.7.6-.2.9 1 .6 1.4.4 1.4-.9zm62.6.7c0-.2.3-.2.6-.1s.4-.2.3-3.1c-.2-3.3-.3-4.2-.8-4.2-.1 0-.2.6 0 1.5l.2 3c0 1.5-.1 1.7-.6 2-.6.2-.8.6-.5 1 .3.2.6.2.8-.1zm-47.8-.7a18 18 0 0 0 5.5-.5l1.4-.7c0-.3-.1-.3-1.4 0-.8.3-1 .3-1.3 0-.3-.2-.2-.4.3-.8.3-.3.5-.5.3-.5-.7 0-1.2-1.6-1.3-4 0-2.7-.8-6-1.7-7.2l-.4-1c0-.3-.2-.6-.4-.8-.3-.2-.4-.4-.4-.6l-.4-.7c-.7-.8-2.3-4.8-2.1-5.3.1-.6.7-.7 1-.2.7.7 4.9 9.4 5.4 11 .6 1.6.6 2.3.5 3.9-.1 1.5 0 2.3.5 2.2.3 0 .5-.3.4-.8a69.3 69.3 0 0 1-.4-4.7 219.5 219.5 0 0 1-1.9-4.8l-1.2-2-1.5-2.8c-.7-1.1-.8-2.3-.2-2.5.5-.2 1 .2 1.8 1.8a51.8 51.8 0 0 0 2 3.6l.8 1.8 1.2 2.6c.4.8.5 1 .6.6.1-.4-.7-2.1-4-8.5a30 30 0 0 0-3.7-6c-1-1.5-1.2-1.5-.4 0 .3.7.5 1.2.4 1.3-.2.2-1.4-1.2-1.6-1.8-.2-.6-.7-.7-.7-.2 0 .1.4.9 1 1.6 1 1.7 1.2 2.4.6 2.5-.4.1-.7-.2-1-1-.7-1.5-.9-1.6-1.4-1.3-.3.2-.3.4.1 1.4.3.6.4 1.2.2 1.3-.4.4-.7 0-1.6-1.8-1-2.4-3.4-5-3.9-4.5 0 0 .3.6.8 1.1a20.8 20.8 0 0 1 4 6.2c1.1 1.3 1.8 2.4 3.3 5.5 2.8 5.7 4.1 9.7 3.5 11-.2.5-.5.7-1 .7-.4 0-.6.2-.7.8-.2 1.1-1 1-1-.2-.6-3.4-2-7.2-2.8-7.9-.3-.2-.5-.3-.6-.2L54 65c1.7 4.2 2.3 7.9 1.5 8.2-.6.2-1-.4-1-1.6 0-1.5-1-4.7-1.5-5.1-.4-.4-.4-.3-.2.1 1.3 3.6 1.6 5.4 1.1 6.1-.6.8-1.2.1-1.2-1.3 0-1-.8-3.1-1.3-3.4-.4-.3-.4.3 0 1.7.6 1.5.6 2.4 0 2.4-.4 0-.6-.4-1-1.6a53.8 53.8 0 0 0-6-12l-.8-1.1a11 11 0 0 0-3.5-4l-1.3-.6 2 2.2c1.7 1.7 2 2.2 2 2.7-.2.4 0 1 .3 1.5.6 1 1.6 4.4 1.6 5.5l-.2 1.3c-.3.4-.1.7.6 1.5a6 6 0 0 1 1 1.2l1.2 2.2 1.5 2.5c.2.6 2.8 2.1 3.3 2l4.5-.3zm2.2-2c-.5-1-.3-2.2.3-2.2.5 0 1.3 1.8 1.1 2.4-.2.6-1 .4-1.4-.3zm-10.1-2.7c-.6-.5-3.3-5.9-3.1-6.4.1-1 .9-.8 1.4.4a348.2 348.2 0 0 0 2.5 5.7c0 .5-.4.6-.8.3zM84 73c1-1.1 1.9-2.2 1.9-2.5 0-.6.8-1 1.1-.6.5.5 0 1.8-1.4 3.4-2 2.1-.4 1 1.8-1.3 1.6-1.7 2.3-3.3 1.6-3.7-.5-.3-1.8-.2-3 .2-.5.2-1 .2-1 0-.4-.5 1.2-1.3 3.5-1.7 1-.2 1-.2-.5-.2-1 0-2 .2-2.4.3-1.3.3-.8-.3.6-1l1.4-.6h-1.1c-1.6-.2-1.4-.7.6-1.3 1.3-.4 1.9-.4 2.5-.2.6.2.8.2.6 0-.4-.8-1.3-1.5-1.7-1.5-.5 0-1.1-.7-.8-1 .3-.3 1.6 0 2.3.5l.8.4c.2-.2-2.4-4.6-2.8-4.9-.2 0-.3 0-.2.3l.4 1.2c.2.6.1.6-.8.5l-2.2-.7c-1-.5-1.2-.6-.9-1 .3-.3.6-.3 1.5-.2 1.4.2 1.5-.1.4-1.2-.4-.4-1-1-1.2-1.4a5 5 0 0 0-1.3-1.2c-.5-.4-1-.8-1.1-1.1-.2-.6.5-2.1 1.1-2.3.4-.2.4-.2 0-.5-.3-.2-.9-.4-1.3-.4-.6 0-.7.1-.8.7 0 .4.2 1.3.5 2 .7 1.5 1.5 5 1.2 5.3l-1.1.7c-.5.2-1 .6-1 .9-.1.4 0 .5 1.7.3 1.6-.1 1.9 0 2.4.4 1 .7.6 1.5-.4 1.2-1.5-.3-4.9 0-5.6.5a14.2 14.2 0 0 1 4.5-.2c.3 0 .5.4.5.8 0 .7 0 .7-1.3.5-1.4-.2-5.6.7-5.6 1.3h.5c1-.4 4-.7 4.9-.5.8.1 1 .3 1 .7 0 .3-.2.6-.5.7-.3 0-.6.3-.6.6 0 .4-.4.6-2 1-1.2.2-2.2.5-2.3.6-.2.2-.1.3.2.1 1.3-.5 3.6-.7 4-.4.5.6-.2 1.2-2 1.5-1.9.3-2.8.7-3.5 1.3-1.1.8 0 .8 2 0 2.3-1 2.4-1 2.7-.5.2.2.4.6.4.9 0 .5-1.2 2.3-2 2.9-.5.4-.5.8.1.8s2.4-1.7 3.4-3c.4-.7.6-.8.9-.5.5.5 0 1.4-1.6 3.2a18 18 0 0 0-1.6 1.7c0 .6 1-.1 2.6-1.8zm-1-3.5c-.3-.2.3-1.4.6-1.4s.2 1-.2 1.3c-.2.1-.4.2-.5.1zm7.4 4.4c0-.1-.3 0-.7.3l-.6.7.6-.3.7-.7zm-80.2-1.2 2.7-.7c0-.2-1.2-.3-5.6 0-3 .1-3.4.2-3.4.6 0 .2 0 .5.2.6.2.3 2.3 0 6-.5zm147.4.2c0-.7-.3-.7-.8-.2-.2.3-.2.4 0 .5.7.3.8.2.8-.3zm-94.4-.5c.4-.2.4-.3-.3-.8L62 71v.8c0 .8.2 1 1.1.6zm29-.7c0-.2 0-.1-.2.1s-.3.5-.3.7l.3-.2.2-.6zm8.7-.3c-.1-.2-.4-.4-.6-.4-.5 0-.5.1 0 .8.3.6.8.3.6-.4zm-34.8.1 1.8-.4c.6 0 1.2-.4 1.7-1 .8-1 .8-1.4 0-1-.9.5-1 0-1-3.8 0-4.8.8-8 1.7-7 .3.2.3.6 0 1.8-.1.8-.3 2.9-.3 4.5v2.9l.8-.1c.8-.2 1.6.6 1.6 1.6 0 .3.1.4.2.3.1-.2.2-1.1 0-2.1 0-1.1-.2-1.7-.3-1.6-.2.4-1.2.5-1.2.2l.5-3.7.5-4.6c0-1.4.5-2 1-1.2.3.4.4 1 .3 2.2 0 1.6 0 1.6.4 1 1-1.2 1.2.3.6 3.9v1c.2 0 .6-1 1-2.4.5-2.4.5-3.6-.2-5-.2-.4-.4-1.3-.5-2.1-.1-.9-.5-2-1-2.9-1-1.7-1-2.5.2-2.7.6-.2.4-.2-.6-.2-1.1 0-1.3 0-1.3-.4s.4-.6 1.3-1c1-.3 1.2-.4.8-.5l-1.5-.3c-1 0-1 0-1.1 1.1a7 7 0 0 1-.5 1.7c-.2.3 0 .9.5 2 .7 1.7.8 2.4 0 2.6-.3 0-.7-.7-1.7-3.7-.7-2-.8-2.1-1.1-2-.4.3-.3 2.3.3 4.4.8 3 .9 3.5.4 3.5-.6 0-1.1-1-1.9-3.2-.7-2.1-.8-3.8-.3-5 .3-.7.1-1-1-1.3-1-.1-1-.1-1 .8 0 1.8 1.4 6.5 2.6 9 .2.5.4 1.1.3 1.4-.2.4-.2.4-.8 0a18 18 0 0 1-2.8-6.5c-.6-2.1-1.2-3.5-1.7-3.5-.7 0 .2 3.2 2.5 8 1.2 2.4 1.7 3.2 2 3.1a56.9 56.9 0 0 1 .2 11c-.2.3-.8.2-1-.3l-.2-4.5v-4.2l-1.6-3c-1.8-3.3-2.3-4-2.7-3.7-.1 0 .6 1.9 1.7 4 1.9 4 2 4.7 1.6 5.5-.2.3-.2 1.4 0 3 .5 3.8.5 3.8-.3 3.8-.5 0-.7.1-.8.6 0 .5 0 .6.4.4l1.5-.4zm31.4 0c0-.1 0-.3-.2-.4-.2 0-.3 0-.3.2 0 .1.1.2.3.2h.2zm-1-1-.3-.4c-.1-.1-.2 0-.2.2 0 .3 0 .4.2.4s.3 0 .3-.2zM45 70h-.5c-.2.1-.2.2.1.2.3 0 .5 0 .4-.2zm55.3-1.6c0-1.3-.7-3.1-1-2.7-.2.1-.2 1 .1 2.4.6 2.2 1 2.3 1 .3zm2 1.5c.1-.1 0-.2 0-.2l-.4.2c0 .2 0 .3.2.3l.2-.3zM39 69.8l-.1-1.1c-.4-1.2-.1-1.8.7-1.8h.8l-.8-.7c-1-.9-2.4-1.1-3-.5-.5.4-.9.4-2.7.2-2.5-.2-4.7-.9-4.7-1.4 0-.5.3-.5 2.4 0 1.8.6 4.5.7 4.8.2.3-.4 2.4 0 4.3.9l1.7.7-.5-.7c-.2-.4-.9-1-1.4-1.3a17.7 17.7 0 0 0-6.2-2c-.6-.1-.7-.1-.7.3s.3.6.9.8c.4 0 .8.3.9.5.2.5-1.5.4-2.7-.2a14 14 0 0 0-2.2-.7c-1.3-.4-1.6-.1-1.7 1.4 0 .9 0 1 .5 1.1.8.1.8.5 0 .7-1.1.3-.8.8.4.9 8 .3 8.7.4 8.6.7-.1.4-4.3.6-7 .3-1.5-.1-2-.1-2.2.1-.3.5.2 1.4.8 1.2.2 0 1.3 0 2.4.2 2.2.4 6.5.6 6.7.2zm5-.2c0-.6-1.4-1.4-2.3-1.4-.7 0-.5.7.3 1.2.8.4 2 .5 2 .2zm14-1.2c0-1.7-2.6-7.8-5-11.7-.3-.6-.6-1.3-.6-1.6 0-.8-3-4.3-3.7-4.4-.2 0-1.2-.6-2.2-1.3-1-.8-1.9-1.3-2-1.2-.1.1 1.3 1.5 2.6 2.4.4.3 1 1 1.2 1.5.2.5.7 1.4 1.2 2l2.1 2.7 1.9 2.4c.8.7 2.5 4.6 3.4 7.7.7 2 1 2.6 1 1.5zm18.4 0c0-.3 0-.6-.2-.7-.2-.2-.3-.4-.2-.7.2-.5 2.6-1.6 4-1.9.5 0 1-.3 1.1-.4.3-.4-1.3 0-3.5.6-1.4.5-1.7.6-2 1.5-.2 1-.1 2.2.3 2.2.2 0 .4-.3.5-.6zm16.2-.7c0-.2-.1-.3-.3-.3-.1 0-.2.1-.2.3l.2.2c.2 0 .3 0 .3-.2zm-41.8-1c0-1.8-8.1-14.4-9.3-14.4-.5 0-.1.8 1.1 2a14 14 0 0 1 2.4 3.4c1.4 2.7 1.6 3 2.2 3.2.4 0 2.4 4 3 5.6.1.7.6.9.6.3zm12.9-2.4c-.2-.3-.3-.4-.5-.1-.2.1-.2.5-.1.7.1.3.2.4.5.2.1-.2.2-.5 0-.8zm-12.9-3.2c-1-1.8-2.1-3.9-2.7-4.6a29.3 29.3 0 0 0-7.3-7l.7.7c.5.4.8.9.8 1.1 0 .2.7 1 1.6 1.8 1 .9 1.7 1.8 1.8 2.3a35.3 35.3 0 0 0 5.8 8.6c.4.7.8 1 .8.8.1-.2-.6-1.9-1.5-3.7zm56.6 2.6-.3-.4c-.2-.2 0-.7.8-1.6 1.6-1.8 1.9-3.2.5-2.6-.6.3-.7.4-.4 1 .2.6 0 .8-.7 1.6-.6.6-1 1.1-.8 1.4l.1.6c0 .1.2.3.4.3.3 0 .4-.1.4-.3zm-66-.6c.1-.5-.1-.9-1-1.8-1-1-1.4-1.1-2.3-1.2l-1.8-.2c-.6-.2-.6-.2-.4.1.4.4.5 1.3.1 1.3l-.5-.4c-.4-.4-1.4-.4-1.5 0-.1.3 1 .8 4 1.7 1 .4 2 .7 2.2.9.7.3 1 .2 1.2-.4zm57.7-.5-.4-.2c-.2 0-.2 0-.1.2 0 .2.2.3.4.3.1 0 .2-.1.1-.3zm-71.5-.5c.2-.2 0-.3-.3-.3-.8 0-1.4.3-1.2.6.2.3 1.1 0 1.5-.3zm65-.3c-.1-.7-.5-.8-.3 0 0 .3.2.6.3.6.1 0 .2-.3 0-.6zm-60.4-.1c-1.4-.5-1.7-.5-1 0 .2.2.8.4 1.2.4.8 0 .8 0-.2-.4zm45.2-3.8c0-2.2.1-2.8.4-2.8.2 0 .4.3.5.6 0 .3.2.6.3.6.8 0-.6-4-1.7-4.8-.4-.4-.5-.5-.2-1.3.3-1 .2-1.3-.4-1.3-.2 0-.4.3-.4.9 0 1-.6 1.3-1.2.5-.5-.7-.5.1 0 .9 1.1 1.5 1.9 5 1.9 8.6 0 2.2 0 2.3.4 1.6.2-.5.4-1.7.4-3.5zm24 3.7c-.2-.3-.5-.5-.5-.4-.2.2.4 1 .8 1l-.2-.6zM53 61.4c.5-.4-2.3-4.7-5-7.7l-2-2.3c0-.3-2.2-2-3-2.3a46.5 46.5 0 0 1 9 11.7c.4.8.7 1 1 .6zm45.6-.6c0-.2.4-.4.7-.6l.6-.2-.6-.2c-.3 0-.6-.2-.6-.4 0-.4-.8-.2-1 .3-.5.7.4 1.8.9 1zM33.2 60c-.3-.2-1.1-.4-1.9-.5-1.2-.1-1.3 0-1 .3.3.3.8.5 1.9.4 1 0 1.3 0 1-.2zm72.6-.6c.5-.8.5-.9 0-1.1l-.3-.7c0-.5-.5-.3-.8.3-.2.4-.2.6 0 .8l.2 1c0 .8.4.7 1-.3zM79 58.6c-.2-.8-.7-.5-.7.4 0 .8 0 .8.5.4.2-.2.3-.6.2-.8zm-39.1 0c-.1-.3-.5-.5-.8-.5-.4 0-.9-.2-1.1-.5-.6-.7-2.2-1.6-2.4-1.4-.6.6.7 1.7 2.7 2.2.6.2 1.2.4 1.3.6.2.4.4 0 .3-.5zM113 58c.8-1 1.2-2 1.2-3 0-.5.2-1 .5-1.1.4-.2.6-.5.6-1 0-.7-.1-.8-.8-.8-.7 0-.7 0-1.2 2.3L113 57c0 .2-.3.6-.5.8-.6.5-.8 1-.4 1 .1 0 .6-.4 1-.9zm-20.2.5c0-1-2.9-4.3-3.6-4.3-.5 0-.5.3.1.9.3.3 1 1 1.4 1.8l1 1.5c.3.2 1 .2 1 0zm14.3-2.2a21.7 21.7 0 0 0-1.5-6.6c-.1 0-.3.6-.3 1.4-.1 1.1 0 1.5.5 2.2.5.6.6 1.1.7 2.8 0 1.4.2 2 .4 2 .2-.1.3-.7.2-1.8zm-88 .8c0-.2-.6-.3-1.5-.3-3-.2-1.7-.6 1.7-.7 3.5 0 7.6-.6 6.7-1-.5-.2-1-.1-4.1.6-.4 0-.6 0-.5-.2.1-.5 2-1 4-1.2 1-.1 1.8-.3 1.8-.4 0-.2-.9-.3-2-.3-1 0-1.7 0-1.6-.2 0-.2-.2-.3-.7-.3-.6 0-.8.1-.7.4.1.3-.6.5-3 1-4.2.7-5.6 1-5.7 1.5-.3.6 5.2 1.8 5.6 1zm59.7-.2-.1-.3-.3.3.1.4c.1 0 .3-.1.3-.4zm1.8-.1c.3-.5.2-.5-.2-.5-.2 0-.5.3-.5.6-.2.6.4.6.7-.1zm13.8 0c0-.3-.6-.6-.7-.4-.2.2.1.7.4.7.2 0 .3-.1.3-.3zM34 55.7c-.3-.2-.4-.2-.6 0-.3.3-.2.3.3.3s.5 0 .3-.3zm78.7-1.7c.3-1.6.2-3-.2-3l-.3.9c0 1.7-.2 3-.5 3.6-.2.5-.2.5.2.3s.6-.8.8-1.8zm-31.3.9c.3.3.1-.6-.3-1.7-.4-.7-.8-1.1-1.2-1.2-.9-.3-1-1-.2-1.5.5-.3.7-1 .3-1.2l-1-.3c-.8-.1-.9 0-1 .5-.1.4 0 1.1.6 2.2.4.8 1 2 1 2.5.4.9.5 1 1 .8.4-.2.7-.2.8-.1zm6 .2c0-.2-1-1.2-1.1-1.2-.3 0-.3.7 0 1 .4.3 1 .5 1 .2zm21.4-1.8c.3-.3.3-.6 0-1.2l-.3-1.2c-.1-.5-.2-.5-.4.2-.2.4-.3 1-.3 1.3 0 .4-.1.7-.3.8v2.1l.5-.8c.2-.4.5-1 .8-1.2zm-71.4 0c-.3-.3-.6-.5-.7-.4-.2.2 0 .5.4.8.8.6 1 .4.3-.4zm24.9.6-.7-2.2c-.7-2-.8-3.1-.4-3.9.2-.3.1-.6-.2-.9-.7-.8-1-.5-1.2 1.2-.2 1.5-.1 1.8 1.2 5 .4 1 1.3 1.5 1.3.8zm48.9-1 .1-1.6c.2-.6.1-.6 0-.2-.4.8-.6 2.8-.3 2.8 0 0 .2-.4.2-1zM29.7 52l.5-.6-1 .3-5.3.2H20c1 .3 3.8.6 6.4.6 2.6.1 2.8 0 3.3-.5zm3.2 0 .6-.8c0-.2-1.1.3-2 1-.5.4-.5.4.1.4.4 0 1-.3 1.3-.6zm-17.6 0a12 12 0 0 0 2.9-.6c.5-.3 1.2-.3 2.9-.2 1.8.2 2.3.2 2.5-.1.2-.3.7-.4 1.5-.3.6 0 1.1 0 1.1-.2s-1-.3-2.5-.3c-3.4 0-3.3-.5 0-.6 2.4 0 3.6.1 7 1 .8.1 3.2-1.6 3.2-2.2 0-.5-.2-.5-2.2-.5a77.4 77.4 0 0 1-5 0c-1.4 0-1.7-.3-1-1 .5-.5-1.8-.3-3.4.3-1.6.6-1.9 1-.5.5 1.2-.3 1.7.1.7.7l-1.3.4c-.3 0-1 .2-1.6.5-1 .5-1 .5-.2.4h.9c0 .2-.9.4-2 .6C15 51 11 52 11 52.1c0 .1.5.2 1 .1l3.3-.3zm11.4-2.5c-.6 0-1.1-.2-1.1-.4 0-.4 6.1-.2 6.3.2 0 .4-2.3.4-5.2.2zm61.8 2.4c0-.3-.4-.5-.7-.6-.6 0-.6 0-.3.5.5.6 1.1.7 1 0zm41.7-.4.1-.8c.2 0 .3-.3.3-.6 0-.8-.4-1-.6-.3-.3.7-.2 2.5.1 2.5.2 0 .2-.3.1-.8zm-31.4-.3-.3-.2c-.2 0-.3 0-.4.2 0 .2.1.3.4.3.2 0 .4-.1.3-.3zm-70-.4a1 1 0 0 0-.6 0c-.2 0 0 .2.3.2s.5-.1.3-.2zm88.5-.8c-.3-.3-1 .2-1 .6 0 .4 0 .4.6 0l.4-.6zm-111.8.2c.5-.2 1.5-.2 3.3 0h4.6c2-.1 2-.1 2-.9 0-.6 0-.7-.6-.6l-1.5.3c-.8.2-.8.2-.3-.2.3-.3.7-.5 1-.5.7 0 1.3-.2 1.3-.7 0-.2.1-.3.3-.2.2 0 .3.2.2.4 0 .3.3.3 1.3.2h1.5c0 .2-.3.3-1 .3-.5 0-1 .2-1.2.3 0 .2.3.3 1.2.2.8 0 1.4-.2 1.4-.2.5-1 .8-1.3 1.7-1.8.6-.3 1-.7 1-.8l.2-.5c.1 0 .2-2 .2-4.2 0-2.8.1-4 .3-4 .2 0 .3.7.3 2.3v3.7c0 1.4 0 1.4.7 1.2 1.2-.3 1.3-.6.4-1.5-.5-.5-.9-1-.9-1.2 0-.5.2-.4 1 .5.8.7 1 .7 1.4.5.6-.3.6-.3.5.2-.2.5 0 .6.7.6.5 0 1-.1 1-.3l1.4-.2a3 3 0 0 0 1.9-.6c.4-.3 1-.5 1.4-.5.5 0 .8-.1.8-.4 0-.3.1-.4.3-.3.3 0 .6.9.9 2.6.1 1.1.8 1.3.7.2-.1-1.5-.7-3.6-1.2-4.3-.3-.4-.5-.9-.4-1.1.3-.6 1.2 0 1.5 1 .2.8.3.9 1.3 1 .6 0 1.1.1 1.1.3 0 .2.3.2.8.1l1 .1c.2.4 1.7.3 1.7-.1 0-.2.7-.8 1.5-1.2 1.3-.7 1.6-1 1.6-1.5 0-.3-.1-.6-.3-.6-.7 0-2.3.9-2.2 1.2.1.4-1.7 1.4-2.5 1.4-1 0-.5-1 .9-2 1.1-.7.9-1.7-.6-2-.4-.1-.6 0-.6.4 0 .3-.3.6-.5.6-.2.1-.3 0-.2-.4.1-.4 0-.6-.3-.6-.7 0-1.3.8-1.3 1.5 0 .4-.2.7-.5.7s-.4-.2-.3-1c.2-.9-.1-1.3-.4-.5-.2.5-1.2.6-1.2.1s-1-.1-1 .4v.9c0 .2-.3.3-.6.3-.5 0-1.2-1-1.2-1.8 0-.3-.7-.6-2.6-1-2.5-.5-3.2-1-3-1.5.4-.5-.6-.1-1 .4-.3.4-.5.5-1.2.4-.4-.1-1-.5-1-.7-.4-.6-1.4-.7-1.4-.1 0 .2.2.4.4.5.7.3.4.9-.6 1.3l-1.4.4c-.3 0-.7.2-.8.5-.2.3-.6.6-1 .6-.5 0-1 .3-1.5 1-.6.6-1.1.9-2 1-.6 0-1.1.3-1.2.5l-.3 4.1c0 .2-.2.2-.3.2a2067.8 2067.8 0 0 0-.7-10c.4 1.2.7 1.1.6 0 0-.8-.2-1-.5-1s-.5-.2-.5-.5c0-.4 1.8-1.2 2.5-1l1.6-.4c.7-.3 1.4-.5 1.7-.4.3.1 1 0 1.5-.2.8-.4 1-.4 1.7 0 1.4.8 1.4 1.5-.2 1.9-.8.2-1 .2-1.7-.3-1-.7-2.3-.6-2.3.2 0 .1-.3.4-.7.6-.6.4-.6.4-.2.7.7.6 1.1.5 1.9-.4.3-.4.7-.8.9-.8 1 0-.2 3-1.3 3.3-.8.2-.8.7 0 .7.4 0 .7-.3 1-.8.4-.7.5-.8 1-.5.7.4 1.1 0 1.2-1.1 0-.6.3-1 .7-1.2.9-.5 2.2-.5 2.7 0 .4.4.5.4.9 0l.7-.4c.2 0 .6-.2.8-.5.6-.6.6-.6-1.5-.6-1.4 0-3-.6-3.3-1.2-.1-.5 1.5-.7 2-.2.3.3.7.4 1.2.3l1.1-.2c.2 0 .4-.2.4-.5 0-.4.2-.5.8-.5.7 0 2.4.6 2.4.9 0 .4-.4 1-.8 1-.6 0-1 .4-.6.8s.4 1 0 1c-.5 0-1.4.7-1.2.9l1.7.5c1.5.4 2.4.3 1.6-.2-.5-.2-.6-1-.3-1s1.7 1.3 1.7 1.6c0 .3 1.7 1.3 2.1 1.3.2 0 .3-.1.3-.4 0-.2.5-1 1.2-1.8 1.2-1.5 1.3-2.3.2-2.3-.8 0-2-1.1-2-2 0-.3-.2-.7-.6-1-.4-.3-.6-.6-.5-.8.2-.4 1-.5 1.3-.1l1 .5c.7.1.9 0 1.2-.5.4-.7.2-.9-1-1.3-.7-.2-1-.2-1.3 0-.2.2-.3.2-.3 0 0-.5-.5-.3-.6.3-.1.4-.3.5-.7.3-.7-.3-5.2-.5-7-.2a7 7 0 0 1-1.7.1c-.6-.1-.3-.6.5-.9.9-.3.9-.3.2-.5-1.2-.3-2.1-.2-4.1.6l-2.6.8c-.7 0-3.2 1.1-3.4 1.5-.3.4 1.5.6 2 .2.9-.5 1.8-.6 2.8-.4 1.1.2 1.3.5.6 1.4-.5.5-.6.5-.8.2l-.5-.4-.7-.3c-.3-.1-.6 0-1 .4-.3.3-1.1.8-1.8 1-.7.3-1.4.8-1.6 1.1-.5.6-1.3.8-1.3.3l.4-.5c.7-.6.4-.8-.7-.4-.6.3-1.1.4-1.2.3-.3-.3.2-1 1-1.3.4-.1.8-.4.8-.6 0-.1.3-.6.8-1.1.7-.7.8-1 .5-1.1-.2-.2-.3-.4-.2-.6.1-.1 0-.2-.5-.2-.8 0-.9-.5-.1-.7.7-.2 1.6 0 1.5.5-.2.5.7.5 1.6 0l2-.5c.6-.1 1.5-.5 2.1-.8.6-.4 1.5-.7 1.9-.7l1.6-.3 1.5-.3c.5.1 1 0 1.5-.4a5 5 0 0 1 2.2-.7l1.5-.2v-3c0-1.8.2-3.3.3-3.4a363.4 363.4 0 0 1 1-10.4V4.4h-1.7a143.1 143.1 0 0 1-4.2.2l-1.2.1v1.4l-.2 5.8c0 1.3-.1 2.3-.3 2.3-.2 0-.3-1.7-.3-4.7 0-3.5 0-4.6-.3-4.2-.2.4-.2 2.1-.1 5.7a770.1 770.1 0 0 1 .4 8.7c.2-1 .6-.3.6 1.3 0 1-.1 1.7-.3 1.7-.1 0-.5-.3-.8-.7-.5-.7-.5-1-.5-3.8V5H19.8v6.7c0 4.3-.1 6.8-.3 6.8-.2 0-.3-2.3-.3-6.4l-.1-6.7c-.2-.4-.6-.4-2.4-.4h-2.2v.8a93.8 93.8 0 0 0 0 7c0 2.3 0 3.3.2 3 .2-.2.3-1.4.3-2.7 0-1.9 0-2.3.4-2.3.3 0 .4.2.2 1.5l-.2 2.6v2.9c.1 3.2.4 1.6.5-2.4 0-3.8.4-5.7.4-2.5l.2 5c0 2 0 3.5-.2 3.6 0 0-.3-.2-.4-.7-.2-.9-.6-.8-.6.2 0 .3-.2.7-.3.8-.2 0-.3.8-.3 1.6s0 1.4-.2 1.4c-.1 0-.3-3.4-.4-7.6a704.3 704.3 0 0 0-.4-11.6c0-.6-.2-.6-1.2-.6-1.7 0-1.8.1-1.8 2.4v5.4c0 3.8.3 7.7.6 8.3.2.3.1.8 0 1.2-.2.5-.4.6-1 .6h-.7L9.4 18c-.1-2.6-.3-5.4-.5-6.3l-.3-3.9c0-1.4 0-2.3-.2-2.3-.4 0-.4 2.9.1 10.5.3 3.6.4 6.8.3 7-.3.9-.8.5-.6-.5.1-1-.2-11.5-.5-15.1-.2-2-.2-2.2-.8-2.2-.7 0-1.7.7-1.7 1.2 0 .3-.2.4-.5.3-.4-.1-.6 0-.6.3a138.7 138.7 0 0 0 .2 20.9c.4.3.5.3.6 0 0-.5.6-.6.6-.1 0 .8 0 2.8-.2 3.5-.2.7-.2.5-.4-.8 0-1.2-.2-1.6-.5-1.6-.4 0-.5 1.6-.1 4 .1 1 0 1.5-.1 1.8-.3.3-.3 1.7-.3 5 .1 4.2.2 4.7.6 4.8.5.1.6.7 0 .7-.5 0-.4 1 .2 1.3.6.3.4.9-.3.7h-.7c-.2.5.2 2.4.6 2.9.5.4.5.4 1.2 0zm4-1.2.2-1c0-.3.1-.4.4-.3.6.3.4 1.5-.2 1.7-.4 0-.5 0-.4-.4zm-2.7 0c0-.2.4-.7 1-1.1 1.3-1 1.5-1.7.8-2.6-.5-.6-.3-1 .4-.8.3.1.4-.1.5-.8.3-1.8.2-3-.2-3s-.5-1.8-.2-4 .6-1.4.4 1c0 1.4 0 2.1.1 1.8.4-.9.6 0 .5 1.9-.3 5.4-.4 5.6-1.5 6.7-1 1-1.8 1.3-1.8.8zM5 48.3s.3-.7.9-1.3c.6-.6 1-1.4 1.1-1.7 0-.6.7-1 .7-.5 0 1.2-2.2 4-2.7 3.5zM17 47v-.6c.5-.4.7 0 .4.5-.2.3-.3.4-.4.1zm-6.1-.3c-.2-.5 0-1 .4-1 .3 0 .3 1 0 1.2-.2 0-.4 0-.4-.2zm7-1c-.4-.4-.8-.5-1.7-.5-1 .1-1 0-1.2-.6 0-.8.4-1 .6-.3.1.3.4.4.8.2 1.3-.3 2.8.8 2.1 1.5-.1.1-.4 0-.7-.3zM5.2 43.3l.2-2c0-1 0-1.4.2-1.3.6.3.3 3.9-.3 3.9-.1 0-.2-.3-.1-.6zm7.6 0c0-.3.1-.5.4-.5.4 0 .4 0 .2.6s-.6.6-.6 0zM25 42v-1.3l.4-2c.2-1 .3-1.1.5-.8v1.5l-.2 2c0 1-.4 1.3-.7.6zm1 .1c0-.1.1-.3.3-.3l.2.3c0 .1 0 .3-.2.3a.3.3 0 0 1-.3-.3zm-7.1-.8.2-1.7c.3-1.3.6-.3.4 1-.2 1.5-.7 2-.6.7zm-1.4-.4c0-.6.1-.9.3-.8.1.1.3.5.3 1 0 .4-.2.7-.3.7-.1 0-.3-.4-.3-1zm3.2-.9c0-.7.1-1.4.3-1.5.1 0 .2.4.2 1.3 0 .8 0 1.5-.2 1.5s-.3-.6-.3-1.3zm3.4-1.5.2-2.2c.3-.8.5.4.4 2.1-.2 2.3-.7 2.3-.6 0zm4.5.5c-.2-.5-.3-.6-.6-.3l-.7.2c-.5-.2 1-1.6 1.6-1.6.4 0 .5.2.5 1 0 .7.1.8.5.7.3-.1.4 0 .3.2 0 .2-.4.4-.7.5-.4 0-.7-.1-.9-.7zM6.5 34.2c0-3.4 0-5.3-.2-5.7-.3-.6 0-1 .4-.5.2.4.4 9.8.2 10.8-.4 1.6-.5 0-.4-4.6zm24.7.8c-.7-.8.6-3 1.3-2.3.3.2.2.6 0 1.4-.5 1.2-.9 1.5-1.3 1zm-2.5-2.7c-.6-.2-.6-.8 0-1 .5-.2 2-.2 2.4 0 .2.2.2.5.1.7-.1.5-1.4.6-2.5.3zm0-2.4c-.2-.4-.6-.5-3.9-.5-2.7 0-3.7 0-3.7-.3 0-.6 1-.8 3.8-.9 3.4 0 5.3.2 5.7.7.2.2.6.4 1 .4.5 0 .6.1.5.5 0 .7-3 .8-3.3.1zM8.6 28.6c.1-1.2.7-2.2 1-1.9.2.1.1.4 0 .7-.2.3-.3 1-.3 1.5 0 .7-.1 1-.5 1-.3 0-.4-.3-.2-1.3zm1.2.2c0-.3.2-.7.4-1 .3-.4.4-.4.4 0l-.4.9c-.3.4-.4.4-.4 0zm9-1.4c0-.2.5-.5 1-.7 1.4-.4 1.6-.4 1.6 0 0 .3-.2.5-.5.5l-.7.2c-.2.4-1.4.4-1.4 0zm-12.5-.5a2 2 0 0 0-1-.2c-.4 0-.7 0-.8-.2-.2-.3.9-.5 1.7-.3.4.1.7.4.8.6.2.4 0 .5-.7 0zm12.2-4.3c0-.3.1-.4.3-.4.1 0 .3.1.3.4 0 .2-.2.3-.3.3-.2 0-.3-.1-.3-.3zm4.8-2c0-1.2.3-2.2.7-1.8.2.2-.2 3-.5 3-.1 0-.2-.5-.2-1.2zm-5.7-.6a51 51 0 0 1 .1-9.8c.2 0 .3 1.3.3 3.2 0 1.7 0 4.2.2 5.6l-.1 2.6c-.2 0-.4-.7-.5-1.6zm-5.2-.4c0-.3.2-.6.3-.6.2 0 .3.3.3.6 0 .4-.1.7-.3.7-.1 0-.3-.3-.3-.7zm-7.7-.5a17 17 0 0 1 0-5.4c.2 0 .3 1.1.3 2.9v3l-.3-.5zM24 15c.1-2.4.2-3 .6-2.7.2.3-.2 5.3-.5 5.3-.2 0-.2-1-.1-2.6zM5.6 16.3c-.2-1.2-.2-3.4.1-3.4.3 0 .5 4 .3 4.1-.1 0-.3-.3-.4-.7zM23.1 14c.2-2.7.2-3 .7-2.8v1.7l-.2 2.4c0 1.2-.1 1.3-.4 1.3-.2 0-.2-.8-.1-2.6zM7 16.2c-.3-.3-.2-4.9 0-4.9s.3 1 .3 2.5c0 2.5 0 2.7-.3 2.4zm13.3-.8.2-1c.2 0 .3.5.3 1s-.1 1-.3 1l-.2-1zm7.9-4.2c0-1.5 0-4 .3-4.2.2-.2.2.7.2 2.3 0 1.5 0 2.5-.2 2.5s-.3-.2-.3-.6zm-4.9-1.9c-.1-.2 0-.5.1-.7.2-.2.4-.2.5.2l-.1.7c-.2.2-.4.2-.5-.2zm11.8 40.9c0-.1-.1-.3-.3-.3l-.2.3c0 .1 0 .3.2.3s.3-.2.3-.3zm53.6-1.9.2-.6-.8.7c-.6.6-.7.8-.4 1 .5.3.6 0 1-1zm-52.3.4c0-.2 0-.4-.2-.5-.3-.2-1.2.6-1 .9.2.4 1.2 0 1.2-.4zm16.4 0c0-.7-2-3.2-2.3-2.9l.6 1c.3.3.7.8.7 1 0 .8.3 1.3.7 1.3.2 0 .3-.2.3-.4zm5.1-.3c-.2-1-3-3.6-3-2.8a21 21 0 0 0 3 3.5v-.7zm-10.1-.3c-.2-.3-.4-.5-.6-.5l.2.5.6.5-.2-.5zm85.9 0h1.3c1 .2 1.4.2 1.7-.2.7-.6-.1-.9-2.6-.7-2.5.2-3 .4-2.3 1 .5.3 1.6.3 1.9-.1zm-96.3-.7c-.3-.3-.5 0-.3.6.2.5.2.5.3 0v-.6zm55.2-.5c.4-.9.4-1 0-.9-.5.1-1.7 1.7-1.7 2.1 0 .5 1.3-.4 1.7-1.2zm47.3 1c0-.4-.5-.7-.7-.5-.2.2.1.7.4.7.2 0 .3-.1.3-.3zm-69.6-.3c0-.2-.1-.3-.3-.3-.1 0-.2.1-.2.3 0 .1 0 .2.2.2s.3-.1.3-.2zm-40.6-.2c.2 0 .4-.4.4-.6 0-.6.7-1 .8-.5.1.3 2.6-.8 2.6-1.1 0-.4-.4-.4-.7 0-.2.3-2 .3-2 0 0-.2.3-.5.5-.7.5-.3.4-.4 0-.4-.5 0-.8.3-1.2 1.2-.3.7-.7 1.2-1 1.2-.2 0-.4.2-.4.5 0 .6.3.7 1 .4zm3.2 0c.9-.2 1.2-.8.5-1-.4-.2-2 .6-2 1 0 .2.4.2 1.5 0zm49.8-.6c.6-1 .4-1-.6-.4-.9.5-1.1 1.2-.5 1.2.3 0 .8-.4 1-.8zm-18.8-.3c-.4-.3-1-.3-1-.1 0 .4 1 .8 1.2.6.1-.2.1-.3-.2-.5zm16.3.6c.2-.4-1.3-.6-2-.4-.3.1-.2.2.6.4l1 .2.4-.2zm-44.6-.3c0-.6-.3-1.1-.7-1.1-.3 0-.5.8-.2 1.1.3.3 1 .3 1 0zm3.7-.4c1.4-.3 1.6-.5 1-1.1-.6-.5-1.9-.3-2.6.5-1 1-.7 1.2 1.6.6zm-2.4-1c0-.1-.1-.2-.3-.2-.5 0-.6.5-.3.9.2.1.6-.3.6-.7zm45.2-.2c-.8 0-1-.6-.2-.6.7 0 1.4-.2 1.4-.5l-1-.2c-.8 0-1.2.1-1.6.6-.6.5-.6.6-.2 1.1.4.6.4.6 1.4.2.9-.5.9-.5.2-.6zm-6.8 0c0-.6 0-.6-1-.4-.5 0-1 .3-1.2.4-.2.2-.1.2.3.1.3 0 .6 0 .9.3.5.6 1 .5 1-.3zM28.7 45c.2-.2.2-.5.2-.7-.2-.3-1.7-.2-1.9 0 0 .2-.5.3-.8.4-.4 0-1.2.2-1.8.5l-1 .5 2.4-.1c1.9-.2 2.6-.3 2.9-.6zm48.7.2c.7-.8 1.4-1.7 1.4-2 0-.2-1.3-.2-1.5.1 0 .2 0 .3.2.3.8 0 .5.4-.3.6-.8.2-1.2.8-1 1.3.3.3.7.2 1.2-.3zm-6.7 0c-.4-.4-2.9-.5-3 0 0 .1.3.2 1.6.2 1 0 1.5 0 1.4-.2zm-5.8-1c.4-1.1 1.2-1.5 1.2-.7 0 .7.6.4 1.4-.8l.4-.7-1.2.2c-2 .2-3.4.6-4 1.2l-.7.5.6-.2c1-.3 1-.3 1.1 0 0 .2-.3.4-.8.6-.6.2-.8.3-.5.4a5 5 0 0 0 1.6.5c.4 0 .6-.4 1-1zm-21.8.3c1.1-.4 1.3-.5 1.3-1.2 0-1-.6-1.2-1.7-.7-.5.3-.7.4-.3.4.9-.1.8.8-.1 1-.5.2-.9.5-.9.6 0 .4.3.4 1.7-.1zm22.3-.4c0-.2-.1-.2-.1.1 0 .3 0 .5.1.4V44zm2.7-.4c.1-.4 0-.5-.5 0-.8.5-1 1-.2.7.4-.1.7-.4.7-.7zm12.3-.7c-.2-.2-.4 0-.7.4-.7 1-.5 1.5.3.6.5-.5.6-.8.4-1zm-43.7 1c.3-.4.2-.4-.4-.4-.6 0-.9.2-.5.6.3.3.5.2.9-.2zm33.8 0c.5-.4.4-1-.2-1-.5 0-1.4 1-1.2 1.2.3.3 1 .2 1.4-.1zm4 0h-.6.5zm-28.1-.5c.6-.2.9-.4.9-.9 0-.4.1-.6.4-.6.3 0 .9-1 .9-1.6 0-.2-.3-.4-.7-.5l-.6-.5c0-.5-1.3-.3-1.8.2-.4.3-.5.7-.4 2.3 0 1 .2 2 .3 2l1-.4zm29.5.2a1 1 0 0 0-.7 0l.4.1c.3 0 .5 0 .3-.1zm-35.8-.4h.7c.2.2.4.2.7 0 .3-.2.3-.2-.1-.2-.3 0-.7-.2-1-.4-.4-.2-.6-.2-1 0-.7.7-.2 1.2.7.6zm46.1-.3c1.5-.7 1.1-.9-.7-.3-1 .3-1.4.5-1.1.7.5.3.6.2 1.8-.4zm-27.8-.2c0-.2 1-.4 2-.5 1.2-.2 1.8-.3 2-.7l.8-.7c.6-.2.6-.2-.1-.2-1.2 0-3.3.5-3.7 1-.4.4-1.3.4-1.3-.1 0-.3.6-1 1.3-1.6 1.2-1.1 1.2-1.2.5-1.2-1.1 0-1-.7.2-1 .6 0 1-.3 1.1-.6.2-.6 2.3-1 2.8-.5.4.4 0 .8-.9.8-.6 0-.7.1-.7.5 0 .3-.3.7-.7 1-1 .6-.8.9.6.5 1.4-.5 2.4-1.3 2.4-2 0-.3.2-.6.4-.8.7-.5.5-.9-.4-.7-.8.2-1.2-.2-.8-.8.3-.3.3-.3-.3-.3-1 0-6.2 2-7 2.7-.5.4-1.1.7-1.4.7-.5 0-.5 0-.2.4.4.6 0 1-1.4 1.1-1 .1-1.1.3-1.4 1-.1.3-.4.7-.6.7-.2 0-.5.2-.5.4-.1.3-.3.6-.5.7-.1 0-.2.2-.1.3.2.1 5-.3 5.6-.5.4-.2.5-.1.4.2-.1.2 0 .5.1.6.4.1 1.6-.1 1.8-.4zm-4.8-1c0-.2.7-.6 1.5-1 1-.5 1.6-1 1.6-1.3.1-.4 0-.4-.4-.3-.6.2-1-.3-.5-.7.5-.3 1.5-.3 1.5 0 0 .2.3.3.7.3l.6.2c0 .5-1.1 1.4-2.8 2.2-1.7.8-2.2 1-2.2.6zm30 1c0-.3.2-.7.5-1l.4-.3c-.5 0-3.1.8-3.1 1 0 .3 1 .8 1.5.8.4 0 .6-.2.6-.5zM69.8 42c-.2-.3-1 .4-.8.7.1.2.4.1.6-.1.2-.2.3-.5.2-.6zm2.5.7c.3-.2.3-.3 0-.3s-.6.1-.7.3c-.2.3.2.3.7 0zM36 42c.1-.1 0-.3-.2-.3-.3 0-.4.2-.4.3 0 .1 0 .3.2.3l.4-.3zm35.4-.1c.1-.3.2-.5.1-.6-.2-.3-1 .1-1 .6s.4.5.9 0zm5.2.2H76c-.3 0-.2.1.1.1.3 0 .5 0 .4-.1zm4-.4-.1-.2s-.2 0-.3.2l.1.3c.2 0 .3-.1.3-.3zm-13.1-.5c.3-.3 0-.3-1.8.1l-1.6.4 1.6-.1 1.8-.4zm6.8-.2c0-.3-.5-.4-1.2-.2-.8.3-.5.9.4.7.4 0 .8-.3.8-.5zm-30.9.2c.8-.3 1-1 .3-1-.2 0-.8.1-1.2.4-.7.3-.8.4-.5.6.5.3.6.3 1.4 0zm38.5 0c.5-.3 1.9-1 3-1.8 2.3-1.5 2.6-1.6 3.1-1 .3.4.2.4-.3.4-.8 0-3.4 1.5-3.4 2a70 70 0 0 1 2.4-.6c3-1 6.9-2.8 6.9-3.3l-1-.3c-.6-.1-1.3 0-2.6.5-1 .4-1.8.7-2 .6v-.3c.3-.2 3.2-1.5 3.5-1.5.1 0 .2-.3 0-.7-.1-.6 0-.6.8-.5.7.2 1 0 2-.7 1.6-1 3.3-2.6 3.1-2.8L96 32c-.7.4-2.6 1.4-4.3 2-2.7 1.2-3 1.4-3.5 2.3-.6 1-1.1 1.3-1 .3.2-.4 0-.7 0-.7-.4 0-1.8.8-3 1.7-.5.3-1.3.6-2.3.6-.9.1-1.7.3-2.1.6l-.6.5h1.2c1.8 0 1.4.5-.6.7-1.7.1-2.3.4-2 1 .2.2.7.2 1.7.1.8-.1 1.4 0 1.4.1 0 .3 0 .3 1 0zm7.8-.5 1.8-.6a68.3 68.3 0 0 1 7.4-1.8v-.9c-.1-.7-.1-.7-2.2-.7-2 0-2 0-2.1.7-.2.8 0 .8 2 .2 1.5-.3 2-.3 1.6.1-.2.1-1.2.5-2.4.7l-3 .8-2.6.8c-.9.2-2.1.7-2.8 1l-1.1.5 1.1-.2c.6 0 1.7-.3 2.3-.6zm-13.7 0c.1-.2 0-.2-.3-.1-.2 0-.4.2-.4.4 0 .3.6.1.7-.3zm-7.6-.7h-.5c-.3 0-.2.1.1.1.3 0 .5 0 .4-.1zm-4.3-.3h-.5c-.2 0-.1.1.2.2.3 0 .4 0 .3-.2zm8.8-.3c2.7-1 5.3-2.5 5.3-3.2 0-.5-2.2-.5-3.4 0-1.4.6-1.6.6-.8 0l.7-.5H74c-.8 0-2.3 1.1-2 1.5l-.5.8c-.7.5-.9 1-.4 1 .1 0 .2.3 0 .5-.1.5 0 .5 1.8-.1zm-.5-1c0-.3 2.4-1.8 3.1-2 1.3-.4.7.2-1.1 1.2-1.1.5-2 .8-2 .7zm35.6 1.2c.2-.4 0-.6-.5-.4-.3 0-.4.3-.3.4.2.4.6.4.8 0zm-30.2-.4c.3-.2.4-.4.4-.5-.3-.3-1.6.1-1.6.5 0 .5.5.5 1.2 0zm23.4 0 .7-.4-.7.2c-.3 0-.7.3-.9.4-.4.4.2.2 1-.2zm-51.5-.4c0-.3-.2-.5-.5-.5-.8 0-1 .3-.4.7.6.5.9.4.9-.2zm18.8.3c.3 0 .5-.2.5-.4s.3-.6.6-.9c1.5-1.2 2.6-2.2 2.4-2.3-.2-.2-2.9 1.1-3.3 1.6l-.7.4c-.2 0-.6.5-1.1 1.7 0 .1.2.2.5 0l1.1-.1zm-23-.8c.1-.2.7-.5 1.3-.8.5-.3 1-.7 1-1 0-.4-.1-.4-1.7.1-1 .4-1.2.6-1.2 1.2 0 .8.3 1 .7.5zm9.2-1c2-.6 3.8-1.3 4.1-1.5.5-.4.5-.4-.3-.4-.5 0-1 .2-1.2.4-.2.2-.7.4-1.2.4-.8 0-3.7.8-4.8 1.4-.5.2-.8 1-.4 1l3.8-1.2zm-41.1-.5.3-.7c-1.4-.8-1.3-.8-1.3.3 0 1.3.3 1.4 1 .4zm37.2-.4c1.6-.5 1.7-.6 1.2-1-.8-.5-3.1.1-3.4 1-.3.8-.3 1 0 .7l2.2-.7zm28.4.6c0-.2 0-.3-.2-.3-.1 0-.2.1-.2.3v.2c.1 0 .3 0 .4-.2zM68 36.2c.3-.5-.3-.3-.8.3-.5.5-.5.5.1.2l.7-.5zM43.8 36c.2-.3.3-1.7.3-3 0-1.6.1-2.4.4-2.8.3-.3.3-.8.2-1.3-.1-1 .2-1.4.7-.8.4.4 1.2.5 1.5.2 0-.2 0-.3-.3-.4-.5-.2-.5-1 0-1.5.1-.1.7-.3 1.2-.3.8 0 .9 0 .7 1 0 .5-.4 1.2-.6 1.4-.4.5-.4.5.1.5.7 0 .8.7.1 1-.6.4-.2.7.5.4.4-.3.6-.2 1.2.7.4.6.9 1 1.3 1s.8.2 1 .4c.1.3.3.3.6 0s.5-.3 1 0c.3.2.7.1 1.9-.2 1.7-.5 2-1 .3-.6-1.5.3-1.7.3-1-.2.7-.3.7-.3-.4-.3-1.4 0-1.6-.3-.7-1.2.4-.5 1-.8 1.8-.9 1-.1 1-.2 1-.7 0-.5.2-.6 1-.6.7 0 1-.2 1-.5s-.1-.4-.7-.3l-2.6.4c-1.1.2-2.2.4-2.5.6l-1 .2c-.7 0-1 .4-.5 1 .4.8 0 1.5-.7 1.4-.4 0-.6-.3-.6-1-.1-.7-.2-.8-.6-.7-.4.1-.5 0-.5-.3 0-.2 0-.3.2-.2h.7c.4-.1.4-.2.1-.6-.4-.4-.1-1.2.3-1 .2 0 .4.3.5.6l.1.6.7-.5c.5-.4 1-.5 1.2-.4.3.1.4 0 .3-.1-.1-.2-.6-.3-1-.3-1 0-2-.7-2-1.2 0-.2-.3-.5-.7-.7-.4-.3-.6-.3-.8.1 0 .2-.3.4-.5.4-.7 0-3.2 1.4-4 2.2-.9 1-1.2.8-1.2-.7v-1.1h-1.3c-1.4 0-1.8.5-.7 1 .5.2.6.5.6 1.3v1h-1.3c-.9.1-1.4 0-1.6-.2-.4-.4-.8-.4-.8.1 0 .4 0 .4-1 .5l-.5.4c-.2.2-.4.3-.7.2-.2 0-.4 0-.4.2s.3.4.8.5c1.3.1 1.5.7.6 1.7A12.8 12.8 0 0 0 34 36c.3.3 3-2.6 3.1-3.3.1-1 1-1 1.3-.1l.1.6 1.1-.9c.6-.4 1.2-1 1.2-1.2 0-.4-.3-.4-1.5 0-1.1.6-1.5.6-1.5.1 0-.7 3.5-1.6 3.8-1l.8.6c.9.4 1 1 .2.9a1 1 0 0 0-.8.3c-.2.2-.4.4-.6.4l-1.3.7-1.9 1c-.8.4-.7 1.3.2 1h.8c.1 0 .2-.3.1-.5 0-.4 3-2 3.3-1.8.3.2 0 .6-1.2 1.2s-1.2 1 .3 1.3c1.4.3 1.7.4 1.5 1-.1.2 0 .3.2.3.3 0 .6-.3.7-.7zm53.6 0c1.1 0 1.2-.1 1.2-.9 0-.4-.1-1-.3-1.4l-.2-.7-1.1.8c-.6.4-1.5.9-2 1-1.4.2-2 .5-2 1 0 .4.3.4 1.7.3l2.7-.2zm-50.7-.7c.9-.4 1.3-.5 1.6-.2.4.2 1 .1 2.3-.3 1.2-.4 1.6-.6 1.2-.7a2 2 0 0 0-1 .2c-.3.2-.8.3-1 .3-.3 0-.4-.1-.2-.2.2 0 .3-.2.3-.4h-1.7c-1.2 0-1.8 0-2.1-.2-.6-.4-.9-.1-1 1 0 1.4 0 1.3 1.6.5zm14.6-.4 1-.6-1 .2c-1.3.3-1-.1.7-.6 1.9-.5 2-.6 1.7-1-.1-.1-.8 0-2 .3-2 .5-2.2.7-1.7 1.2.2.3.2.5 0 .5s-.3 0-.3.2c0 .4.6.3 1.6-.2zm8.7 0c1.7-1.2 3.3-2 3.5-1.7.2.2 0 .4-.7.7-.5.3-1 .5-.8.6l1-.2c.3-.1.8-.2 1-.1h.6a7 7 0 0 1 1.6-.7c.7-.2 1.2-.4 1-.5a12 12 0 0 0-2.6-.4l-2.5-.1-.9.8-1.6 1.5c-1 .7-.6.8.4 0zm10.5.1c.5-.4.4-.4-1-.4-1.6 0-2.4.2-2.2.5.3.4 2.6.3 3.2-.1zm-24.2-.5c.7-.3.4-.6-.5-.5-.4 0-.9.3-1 .6-.3.4-.3.5.4.3l1.1-.4zm2.3.1c0-.2 0-.3-.4-.2-.2 0-.5.2-.6.4 0 .2.1.3.4.3.3 0 .5-.3.6-.5zM76 35c.3-.2.2-.3-.3-.3s-.7.1-.6.3c.2.3.4.3 1 0zm-63.3-1.6c-.3-.2-.5.2-.3.5s.2.3.3 0v-.5zm45.3.5c.2-.1.3-.3.2-.4-.1-.1-.4 0-.6.2-.5.5-.2.6.4.2zm22.4 0c1.6 0 1.2-.5-.5-.7-.9-.1-1.2 0-1.2.1 0 .2-.3.3-.5.3-.4 0-.4 0 0 .3.1.1.5.2.7.1l1.5-.1zm3.3-.7 3-1.7c2-.9 4-2.8 3.3-3.2-.3-.1-.3-.3 0-.6.2-.2.3-.4.1-.4l-7 1.4c-1 .3-1.5.3-1.9.1-.3-.1-1 0-2.2.6l-1.8.8h3.2c3.3.1 4.1 0 7-1.5 1-.4 1.7-.3 1.1.2-.1.1-1.3.7-2.7 1.2-2.3.9-2.5.9-6.3.9-2.6 0-4.1.1-4.5.3-1.4.7-1 1 2.6 1 3.7.3 4.6.5 4.4 1.3-.3.8.1.7 1.7-.4zm-35-.8c0-.2-.2-.4-.7-.5-1-.2-1.5-.5-1.5-1 0-.4 0-.4-.4 0l-.7.4c-.3 0-.5 1.6-.2 1.8.2.3 3.4-.4 3.5-.7zm11.7.9c0-.3-.5-.4-.7-.2 0 .1 0 .3.3.3l.4-.1zm-1.9-.8c.1-.5-.4-.6-1.8-.2-1.4.4-1 .9.5.8.9-.1 1.2-.2 1.3-.6zm7.7 0s0-.2-.2-.2-.4.1-.4.3c-.1.1 0 .2.2.2s.4 0 .4-.2zm-4.7-.2c1.3-.4 1.4-1 0-1-1 0-1.9.4-1.9.9 0 .4.6.5 2 .1zm7-.3c0-.1.5-.2 1-.1l1.2-.1c.3-.2 0-.3-1.2-.3-1.3 0-1.7.1-1.7.4 0 .5.4.5.7.1zm-.8-1.1 3.8-.6c1.2 0 2.2-.3 2.4-.6l1.5-.7c.7-.2 1-.5 1-.9l.4-1c.5-.5.3-.6-1-.7-.8 0-1.2.1-1.4.4-.3.4 0 .7.6.7l.6.3c.2.4-.6 1.1-1.1 1l-1.3-.3c-.6-.2-.7-.1-.4 0 .4.3.4.4 0 .8-1 .7-2.2.3-1.4-.5.6-.6.5-.7-.6-.6-.8.1-1.2 0-1.5-.2-.2-.3-.6-.5-1-.5-.3 0-.6-.1-.7-.4-.2-.6-1.9-.4-3.4.5-1.2.6-1.5.7-1.8.5l-.4-.7c0-.5-2.1-.5-2.2 0l-.3 1.8-.2 1.6.8-.2 2.2-.4c.8-.1 1.7-.3 2-.5.3-.2.6-.2.7-.2h1.4l2.7-.5c2.4-.2 1 .4-2 .9-2.5.4-3.1.8-1.9 1.1l.6.2 1.9-.3zM65.3 28c0-.5.8-1 1.3-.7.3.2.3.3 0 .7-.4.5-1.3.5-1.3 0zm-6.8 1.6c0-.5-.8-1.2-1-1v1c.2.8 1 .9 1 0zM37.4 28c0-.5 0-.6 1-.6s1.1 0 .4-.8a2 2 0 0 0-1.6-.6c-1 0-1.6-.5-1.5-1.1 0-.2-.2-.4-.6-.5-.6 0-.6 0-.2.2.3.2.5.6.5.9 0 .3.2.7.4 1 .2.2.3.6.2 1-.2.8 0 1.1.8 1.1.4 0 .6-.1.6-.6zm44-.8c.5-.3.4-.4-.5-.6-1.4-.2-1.9 0-1.2.6.6.4 1.2.4 1.8 0zm-20.8-.9a22 22 0 0 0 2.8-.2s-.1-.4-.4-.7c-.5-.5-.7-.5-3-.4-1.8 0-2.4 0-2.4-.3 0-.2.1-.3.3-.3l.2-.4c0-.4-.8-.7-1.8-.7-.3 0-.7-.2-.8-.5-.2-.4-.6-.5-1.3-.5-.6 0-1.2 0-1.2.2-.1.2 0 .3.2.3s.4.2.4.4c0 .4.3.5 1.5.6 1.6 0 2.6.6 2 1.1-.1.2-.8.2-2.2 0-2-.3-2.7-.6-2.5-1.2 0-.2-.1-.5-.4-.7-.5-.3-.5-1 0-.8.2 0 .3-.3.3-.7 0-.6.1-.8.4-.8.2 0 .4.1.4.3 0 .2.1.2.4 0 .2-.2.5-.3.6-.2.2 0 1 0 2-.3 1.3-.3 2-.3 3.7-.1l2.7.4h.6c0-.5-.4-.7-1.6-.8-1.2-.1-1.7-.4-1.4-.9.2-.4 2.4-.3 3.5.1 1 .5 2.3.5 2 .1-.2-.5-2.9-2-3.7-2.2l-2.1-.3c-.7 0-1.3-.2-1.4-.3l-2.1-.3c-1.4 0-2.1-.1-2.5-.5-.3-.2-.8-.4-1.4-.4-1 0-1.7-.3-1.7-1 0-.2.2-.3.6-.1.3 0 .8.2 1.1.1 1.8 0 2.7 0 3.2.5.5.2 1 .3 1.6.2a2 2 0 0 1 1.6.3c.3.2.8.3 1 .2.3 0 .8 0 1.2.2l1.8.6c1 .1 1.1 0 1.1-.3 0-.2-.1-.4-.4-.4-.4 0-.5-.7 0-1 .5 0 2.5.8 3.6 1.7.4.4 1 1.1 1.2 1.6.7 1.6 1 1.8 2.4 1.4 1-.2 1.4-.2 1.7 0a8 8 0 0 0 3.6 0v-.6c-.2-.4-.4-.4-1.5-.3-1 .1-1.3 0-1.6-.2-.1-.3-.6-.4-1-.4-.3 0-.9-.3-1.2-.6l-.6-.6.8-.8c.7-.7 1-.8 2.1-.8 1.6 0 2 .6.8 1.3l-.7.3 1 .4c.7.2 1.4.2 1.6.1.5-.2.5-1.5 0-1.5-.3 0-.4-.2-.3-.6 0-.3.2-.6.4-.6.5 0 .8-.7.8-2 0-1 0-1.3-.3-1.3-.6 0-.7.3-.5 1.6.2 1-.1 1.9-.7 1.5-.3-.2-5.6-.4-5.6-.3l.3.8c.2.5.1.8 0 1.1-.5.5-.8.5-.8 0 0-.3-.2-.5-.5-.6l-.9-.5c-.6-.5-3-1.2-4.2-1.2-1.1 0-1.6.2-1 .5.1.2.2.5.1.7-.1.4-.2.4-.8-.1-.5-.5-1-.6-1.8-.6-.6 0-1.4 0-1.7-.2l-1.5-.4C55.5 13 55 12 56 12c.7 0 .7-.4 0-.7-.6-.1-2.3.1-2.5.4 0 .1.1.3.5.4.5.2.5.2-.1.4-.4 0-.9.2-1.1.5-.4.3-.5.3-.9-.2-.3-.4-.4-.5 0-.8l.6-.2.7-.4c.5-.7 3-1 4.2-.4.6.2.8.2 1 0 0-.5 1.9-.4 2.9.2.6.4 1 .5 1.2.3.2-.2.5-.2.7-.1l1 .2 1.4.3c1.1.3.9-.3-.5-1.1-1.2-.7-1.5-.8-5-.8l-4.3-.4c-.7-.4-5.3.5-5.1 1 0 .2-.1.6-.3.8-.2.3-.2.4.3.5.7.2.7.5-.2 1a4 4 0 0 1-2 .5c-1 0-1.7.3-2.8 1-1.5.9-2.1 1-2.1.4 0-.5.1-.5-1.7-.1l-2.5.3c-1.3.1-1.9.5-2.2 1.4-.1.4-.4.6-.6.6-.6 0-1.8.8-1.8 1.1 0 .1.9-.2 1.9-.7 1-.5 2-.9 2.2-.8.1 0 .4 0 .6-.3.2-.1.6-.2.9-.1.3 0 .5 0 .5-.2 0-.3 1.8-1.1 2.1-1 .4.3 0 1-.8 1.4-1 .6-1 1 .2.5l1.5-.4c.7 0 2.8-1.2 3.4-2 .4-.4.5-.4.8-.2.2.2.5.2 1 0 1.4-.7 1.8 0 .8 1.2-.5.7-.5.7 0 1.8.3 1 .3 1.1 0 1.5-.7.6-1.2.3-1.6-1.2l-.4-1.3s-.4.1-.8.5c-.6.4-1.2.6-2.5.6l-2 .2-1 .3c-1 .3-3 2.2-3 2.9 0 .4 0 .4.6 0 .3-.2.7-.6.8-1 .2-.6 1.4-1.7 2-1.7.2 0 .2.2.1.6-.2.8 0 .9 1 .2 1-.8 2.6-1 3.4-.4.4.4.5.7.4 1-.2.5-1 .6-1 .2 0-.2-.2-.3-.6-.3-.6 0-.6 0-.3.8.1.4.4.8.6.8.7 0 .4 1.3-.4 1.8-.6.4-.8.8-.8 1.3 0 .3-.2.6-.3.6-.2 0-.3.2-.3.5 0 .7 0 .7 1.3 0 .7-.4 1-.7.9-.9-.4-.4 0-.8.9-1.3.9-.4 1.5-.2 1.3.5-.1.2 0 .5.3.6l.6-.1c.2-.6 1.5-.3 2.4.4.6.6 1.2.8 1.8.8.6 0 1 .2 1.3.7.4.6.6.7 2 .5l4-.3zm-12-3.9c-.2-.2-.3-.7-.2-1.1 0-.6.2-.8.8-.8.6-.1.7 0 .9.8.1.7 0 1-.2 1.2-.5.4-1 .3-1.3-.1zm2.6-2.5c0-.2.2-.3.3-.3.1 0 .3.1.3.3l-.3.2a.3.3 0 0 1-.3-.2zm3.5-1.1h-2c-.7 0-1.2-.6-1.2-1.6 0-.4.5-.8.5-.3l.3.6c.2.2.3.2.8 0 .5-.4.6-.3.8 0 .2.3.7.4 2.4.3 2.3 0 3.4.3 3 1-.2.3-1.9.3-4.6 0zm32.1 7c.6-.6.5-.7-.4-.2-1.2.6-1.2.6-.6.6.3 0 .8-.2 1-.4zM26 25.6c0-.2.4-.3.7-.2.3.1.7 0 1-.1.2-.3.5-.2 1.2 0s1 .2 1.4 0c.4-.1 1-.2 1.8 0 1 0 1.3 0 1.7-.5.5-.5.5-.5 0-.6h-1.2c-.3 0-1.3 0-2.3-.2a6 6 0 0 0-3.3.1c-1.4.4-2.2 1-2.2 1.5 0 .4 1 .3 1.2 0zm41.2-.6a8 8 0 0 0 2-1l-1.9.3c-1 .1-2 .2-2.1 0-.4 0-.5.1-.5.8 0 .4.1.8.2.7l2.3-.8zm4.8.6c0-.2-.5-.3-1-.3-.4 0-.7.1-.7.3 0 .1.4.3 1 .3.5 0 .8-.1.7-.3zm2-.3.8-.6.9-.4h-1.3c-1.6-.2-1.7-.1-1.4.6.3.7 1 1 1 .4zm6.3-.2c0-.2.7-1 1.4-1.8.8-.8 1.3-1.5 1.2-1.6-.2-.2-1.8 1-2.7 2.3-.8 1-2 1.5-2 .7 0-.5.1-.5-1.4 0-.7.2-1.2.5-1.2.7 0 0 1 .2 2.4.2 2 0 2.3 0 2.3-.5zm2.7-1c.9-.9 1.6-1.7 1.6-2 0-.4-1.5 1-2.7 2.5-1.2 1.5-.6 1.2 1.1-.5zm-43.7.7c0-.2 1.1-1.4 2.4-2.7 2.4-2.3 2.7-3 .7-1.5-.6.4-1.3.8-1.6.8-.3 0-.9.3-1.2.6-.3.4-.8.7-1.1.7-.3 0-.5.2-.5.4s-.2.5-.5.7c-.6.5-.5.6.7 1 1 .3 1.1.3 1.1 0zm4-1.6c.6-.6 1-1.2 1-1.3 0-.5-1 .1-2 1.2-1 1-1.1 1.2-.7 1.2.3 0 1-.5 1.7-1.1zm31.3 0c.3-.2 1-.2 2.4 0 2 .3 2 .3 3-.5l.9-.9c0-.4-1-.1-1.9.5-1 .7-1.3.6-1.3-.2 0-.4-.2-.5-2.7-.5-1.7 0-2.9.1-3 .3-.3.3-.6.3-1.1 0-1.6-.6-2.8.2-1.8 1.3.3.3.9.4 2.8.3 1.3 0 2.6-.1 2.7-.3zm76-1.4 2-1.6c.8-.6.5-.8-.5-.3l-2 .5c-3.5.6-4.4.8-4.3 1l.8.2.9.3c.2.2.4.2.8 0l1-.3c.7 0 .4.5-.6 1-.5.1-.9.5-.9.7 0 .4 0 .4.8 0 .4-.2 1.4-.9 2-1.5zM66 23c-.6-.4-.5-.6.7-1.2.5-.2 1-.6 1-.8 0-.3 0-.7.3-.9.3-.3.3-.5 0-.8-.4-.5-.8-.5-.8 0l-.2.8-.4 1c-.2.4-.2.4-.8.1-.7-.5-1.9-.8-2.1-.6l.1 1c.5 1.2 0 1.5-1.2.6-.8-.7-1.3-.8-3.1-.9h-2.2l1 .4c.7.3 1.2.8 1.3 1.1.1.6.3.6 3.5.6 3 0 3.4 0 3-.4zm-29.2-.8c0-.5.3-1.3.8-2l.8-1.4c0-.7-.5-.7-1 0-.3.5-.6.6-1 .5-.5-.1-.8 0-1 .3-.3.4-.7.5-1.4.4-.5 0-1-.2-1-.3-.3-.4 1.3-3.2 2.2-4 .4-.4.8-1 .8-1.3.1-.6.6-.8.7-.3v.4c.1.3 1.4-.8 1.4-1.1 0-.6 4-2.7 5.4-2.9.5 0 1-.3 1-.5v-.5l.3-2.6C45 4 45 3.8 42 4l-3.1.3-.9.2v3.4c0 2-.1 3.7-.2 3.9-.4.6-.6-.5-.6-3.7V4.8c0-.2-.9-.3-3.1-.3h-3.2V7c0 6-.3 12.2-.5 12.3-.2 0-.3-.6-.4-1.9 0-1.9 0-1.9-.2-.6l-.2 2.3v1h1.2c.9 0 1.5.2 1.8.5.7.7.2 1-1.5.7l-1.6-.1v.8l.2.8a129.8 129.8 0 0 0 6.7.5c.2 0 .3-.3.3-.9zm-5.2-4.7c-.2-.7 0-1.4.5-1 .2.2.2.4 0 .8-.3.6-.3.6-.5.2zm2.2-3.4c.2-2.8.6-3 .6-.3 0 1.8 0 2.2-.4 2.2s-.4-.3-.2-2zm-1.8.8c0-.4.1-.8.3-1 .1 0 .3.3.3.9 0 .5-.2.9-.3.9-.2 0-.3-.3-.3-.8zm2.9.1v-1.2c.1-1.3.7-1.2.6 0 0 1-.4 1.6-.6 1.2zm5.5-4.5c-.3-.3-.2-2.5 0-2.5.3 0 .6 1.3.6 2.2 0 .5-.3.6-.6.3zm-1.1-2c0-2 .5-2.4.6-.7 0 .7 0 1.3-.3 1.7-.4.5-.4.4-.3-1zm97.4 13.6c1.3-.3 2.8-.7 3.3-1l1.7-.4c.6 0 1-.4 1-1.3 0-.5-.3-.5-2-.5-1.2 0-2.4.1-3 .4-.9.4-1.3.4-2.3.1l-2-.3c-.5 0-1 0-1.3-.2-.3-.2-1.2-.2-2.3 0l-4.2.5c-1.7.2-2.5.4-2.7.7-.4.6-1.6.3-1.8-.4-.1-.4-.3-.5-.7-.4l-3 .5c-2.9.6-4.2 1-4 1.2a69.8 69.8 0 0 0 13.3 0l3.2.4c1.3.1 2.3.4 2.5.6.4.3.6.2 1.7-.3 1.5-.8 3-1 3-.3 0 .2-.3.4-.8.4-.6 0-2.6.7-2 .8l2.4-.5zm-126.3-5c-.3-1.4-.3-1.2-.3 1.7 0 1.7 0 3.3.2 3.4.3.3.3-3.5 0-5.2zm82.3 3.2c2-1.1 2.8-2 2.8-2.4 0-.5 1.2-1.2 1.7-1 .3.1.9-.1 1.7-.8.6-.5 1.3-1 1.5-1 .2 0 .2-.3 0-.6-.2-.4 0-.9.7-2.4 1-1.8 1.3-3.3.8-3.3l-.6 1c-.3.6-1 1.7-1.8 2.5-1.3 1.5-1.4 1.6-1 2 .6.3.4 1.1-.2 1.1l-1.3-.3c-.5-.3-1-.3-1.3-.2-.8.5-1.8-.5-1.2-1.2.3-.3.4-.3.8 0 .4.4.6.4 1.4.2 1.1-.4 1.3-1.3.3-1.6-.8-.3-.8-.2.7-2.8l1-1.8c0-.4-.7-.2-1 .2 0 .4-.2.4-.4.2-.9-1 2.3-2.6 3.5-2 .6.4.6.5.2.7l-.3.6c.2.5-.6 2.7-1.1 3.3-.3.3-.4.5-.2.5.3 0 .8-.8 1.7-2.6.8-1.6.8-1.8.5-2.7-.4-1.3-1-1.8-2-2-.8-.1-1 0-1.2.5-.2.4-.7.9-1.1 1-.7.4-.9.6-.9 1.4l.2 1c.3.2-.1 2.1-.4 2-.2 0-.3-.5-.3-1v-1l-1.1.1a6 6 0 0 0-1.6.4c-.3.2-.3.3.4.6 1 .6 2.6 3.2 2.2 3.8-.5.5-1 .2-1.6-1.2-.5-1-.8-1.4-1.6-1.7a4 4 0 0 1-1.3-.8c-.4-.5-.2-1 .4-1 .2 0 .4 0 .4-.2-.1-.6 0-.8.6-.8 1.5.1 2 0 2-.5 0-.7-.4-1-.8-.4-.3.3-.6.3-1.7.2a8 8 0 0 1-2-.5c-.4-.2-1.2-.4-1.8-.4-.6 0-1.2 0-1.4-.2-.4-.4-1.8 0-1.8.4s2.1.8 3.7.8c.8 0 1.5.2 1.8.5.6.4.6.5.2 1-.5.7-1.2.8-1.7.4A18.6 18.6 0 0 0 80.4 7c-1.3.1-1.4.2-1.7 1-.3.5-.5 1.5-.6 2.2l-.2 1.3h.8c.7 0 .8 0 .8.5 0 .4-.1.5-1 .5-1 0-1 0-1 .8 0 .9.5 1.2 1.1.7l.6-.4.6-.5c.3-.7 2-.8 2.2-.2 0 .2.6.5 1.1.7.7.2 1 .4.9.7-.1.6-1.4.8-2.2.2l-1-.4c-.5 0-.2 1.2.6 2 .8.6.8.7.4 1.1-.4.4-.5.4-1.3-.4-1-.9-2.3-1.4-2.8-1.1-.2.1-.3.5-.2 1.1l-.1 1.3c-.6 1-.1 1.2 2.3 1.2 1.2 0 2.2 0 2.2.2 0 .4.5.2 1.2-.5 1-1 1.6-.9 1.4.1-.2.7 0 .8 1.4 1.3 1.7.7 2 .7 2.6.3.4-.2.4-.3 0-.1-.2 0-.7 0-1-.3-.3-.3-.4-.4 0-.6.2-.2.7-.3 1-.3.8 0 2-1 2.3-1.8.2-.7-.2-.8-.6 0-.2.3-.6.5-1 .4-.5 0-.5-.2-.2-1.3.1-.5-1.5-2.1-2.9-2.7-1-.5-1.5-1.1-1-1.5l1.1-.4c1-.1 1-.1 1.3.6l.3.7.7-.7c.6-.7.6-.8.3-1.4-.2-.4-.5-.6-.8-.5-.2 0-.6 0-1-.2-.6-.6-1.1-.5-1.1 0 0 .6-1 1.7-1.4 1.7-.7 0-.8-.6-.3-1l.7-1c.1-.6 0-.7-1-1-1.1-.3-2.7-.3-3.2 0-.3.4-.9-.1-.9-.8 0-.3.3-.5 1.5-.6h2l2.3.5c1.8.5 2.7 1 2.7 1.7 0 .2.1.3.3.3.5-.1 1.5.3 1.5.5l1 1.6c.7 1.2.9 1.7.9 2.7 0 .6 0 1.5.2 1.8.3.8.1 1.9-.4 1.9l-1 .3c-1 .6-1.3 1.3-.5 1.3.2 0 .4.1.4.4 0 .5 0 .5 2-.6zM92 20c-.1-.2 0-.6.3-1 1-1 1.1-1.9.7-2.9-.8-1.9-.1-2.4 1-.7 1 1.4 1.1 2.1.6 2.3-.2 0-.7.7-1.2 1.3-.8 1.2-1.2 1.4-1.4 1zm-6-.8-.3-1.3c0-.4-.2-1-.6-1.3-.4-.3-.7-.7-.7-.9 0-.4.8-.6 1.2-.3.3.3.4.2.5-.3.1-.4.3-.7.4-.7.4 0 .6.9.6 3 0 1.5 0 1.8-.4 2-.3.2-.5.2-.7-.2zm-6.7-.8L79 18c0-.3-.2-.5-.5-.5-.4 0-.5-.1-.5-.3.2-.5 1.5-.6 1.5-.2 0 .2.2.4.5.6.2.2.4.5.3.8-.2.4-.8.6-1.1.2zm12.7-6.4c-.8-.7-.8-1.6-.2-1.6.4 0 1.9 1.6 1.9 2 0 .7-1 .4-1.7-.4zm-10.3-.5c-.7-.5-.6-1 .3-1 .8 0 1.4.3 1.4.9 0 .4-1 .4-1.7 0zm-4.7 9c-.1-.3-.5-.4-1.8-.5-1.7 0-3.3.3-3 .8 0 0 1.1.2 2.5.2 2 0 2.3 0 2.3-.5zm2.5 0c.1-.2 0-.3-.3-.3s-.7.1-.7.3c-.1.1 0 .2.3.2s.6 0 .7-.2zm2.5 0h-.5c-.3.1-.2.2.1.2l.4-.1zm13.8-.4c0-.1 0-.3-.2-.4-.1-.2-.5 0-1 .3l-.8.5 1-.1 1-.3zm5.6 0 1.5-.1c0-.4 2.4-1.1 4-1.2a6 6 0 0 0 1.9-.2c.2-.1.2-.2.1-.2-.4 0 .7-1.1 2-2 1.7-1.2 1-1.1-1.5.1a10 10 0 0 1-3 1.1c-.3 0-1.1.2-1.8.6-1.4.8-1.7.8-1.7.3s0-.5-1.5-.1c-1.2.3-2.7 1.3-2.7 1.9h.6l2.1-.2zm45.3 0c1.5-.1 2-.3 2.4-.8.4-.4 1-.7 2-.8 2-.3 4.2-.9 5.2-1.4.7-.4.9-.6.9-1.4v-1l-1.8-.1a236 236 0 0 1-8-.7c-1 .2-.1.4 2.4.6 1.7.1 2.4.3 2.5.6v.6l-4 .7-4.3.5c-.8.2-.7 1 .1 1.1.8.1.6.6-.2.6-.3 0-.5.2-.5.5l-.1 1c-.2.3 0 .3.7.2l2.7-.2zm-48.8-1c0-.2.3-.6.6-1 .6-1 .4-1-1-.1-1 .7-1.1 1.1-.6 1.6.3.3 1 0 1-.5zm18 .4h-.6c-.2 0-.1.1.2.2.3 0 .4-.1.3-.2zm4.9-.7c1.4-.2 4.4-.6 6.6-.7 4.3-.3 4.6-.4 4.6-.8 0-.2-.5-.3-1.6-.2-1.6 0-1.7 0-1.8-.6 0-.5-.1-.6-1-.4-.9.2-1.2-.3-.4-.6.4-.1.3-.2-.2-.4-1-.4-.5-1 1.2-1.5 2.5-.7 4.1-1 6-1.2 1.6-.2 1.8-.1 1.8.2 0 .4.4.6 1.9.8.9.2 1.8.7 1.8 1 0 .3-.1.3-1.4 0-.7-.3-1-.3-1.3 0-.2.2-.2.3.2.6.5.4.5.4 0 1-.7.7-1.9.6-1.8-.2 0-.4 0-.6-.2-.6-.1 0-.3-.2-.3-.4s.2-.4.4-.4c.5 0 .5-.2 0-.7-.5-.5-.8-.5-1.1.2-.3.4-.6.5-1.6.5-.8 0-1.6-.2-1.8-.3-.4-.2-.7-.2-1.6.3-.7.4-.8.5-.4.4.4 0 .8 0 1 .2.3.2.9.1 2 0 1-.3 2-.3 2-.2.2 0 .3.6.2 1.2l-.2 1.1.8-.1h1.1c.3.2.3.3-.3.5-.5.2-.7.4-.6.6.3.5 3 .1 4.8-.7a9 9 0 0 1 2.2-.6c.5 0 .6-.2.6-1.6 0-1.6-.2-1.7-1.5-1.3-.4.1-3-1.2-3-1.5 0-.1.7-.3 1.5-.3 1.3 0 1.7 0 2.3.5l.7.5v-.6c-.2-.5-.4-.7-1.5-.8a7 7 0 0 1-1.7-.3c-.7-.5-.2-.6 1.6-.5 1.7 0 2.2 0 3-.5a13 13 0 0 1 2.9-.8c1-.2 1.7-.5 1.7-.6 0-.4-2-.4-2.7 0-.4.1-.7 0-1.3-.7-.8-.8-1.2-1-1.7-.5-.2.2-.5.2-1.2 0-1.2-.4-1.5-.4-1.3.2 0 .4 0 .6-.3.6-.7 0-2.5-1-2.7-1.5 0-.2-.3-.4-.6-.4s-.4.2-.2.8c.1.7 0 .8-.7.8s-2.3.6-2.3 1l1.8-.1c1.8-.2 1.9-.2 1.9.4 0 .6-.1.6-1.7.4-1.3-.1-2 0-2.6.2-.6.4-.8.4-.8 0 0-.1 0-.3-.2-.3-.6 0-1 .3-1 .8s-1 1.2-1.3 1c-.1-.2-.3 0-.5.2-.3.3-.8.5-3 1-.6.2-.7 0-.4-.5.4-.5 3.9-2.4 5.4-3 .8-.2 1.6-.5 1.8-.7l1.4-.8c1.8-.7 1.1-1.2-1.3-1-1.2.1-1.4.2-.9.4 1 .3.4.7-1 .7-1.5 0-2.7.4-4.2 1.4-1 .6-1 .7-.6.9 1 .3.6.8-1 1.2-2 .4-3 .8-3 1 0 .2.4.3.7.3.5 0 .7.1.6.3-.2.6-1.8.4-2-.1-.1-.6-.4-.6-2.2 0a6 6 0 0 1-2.1.2c-1-.2-7 1-8 1.6-.6.4-.5.4.6.2a6 6 0 0 0 1.4-.3c.4-.2.7-.2 5.4-.5 6.4-.3 8-.1 8 1 0 .3-.5.7-2 1.3-1 .5-2 1-2 1.3 0 .3-.7.5-2 .8-2 .4-3.2 1-1.5.7l3.7-.5zm5.7-1.2-1.8-.2c-1.6-.2-1.4-.6.3-.6 1.6 0 3 .4 2.7.8l-.4.2-.8-.2zm11.9-1.1c0-.1.2-.3.4-.3s.4.2.4.3c0 .1-.2.3-.4.3s-.4-.2-.4-.3zm-7.9-4.3c0-.2.6-.5 1.2-.7 1.2-.4 5.1-.6 5.3-.2 0 .2-.7.3-2 .3-1.1 0-2.3.2-2.6.3-1 .5-2 .7-1.9.3zm9.1-2.5c-.4-.4 0-.5 1.3-.5 1 0 1.5.1 1.5.4 0 .3-2.4.4-2.8.1zm-26.8 8.6 1-.7c0-.4-3.3 0-4 .5l-.5.6c0 .4 2.5.1 3.5-.4zm2.5.1c1.2-.2 3.9-1.1 4.3-1.4a157 157 0 0 1-3.1.2c-.8.1-1.6.4-1.8.7-.3.2-.6.5-.8.5-.2 0-.3 0-.2.2 0 .2.3.2.5.2l1.1-.4zm26.5-.2c.4-.1.8-.3.8-.5 0-.5 0-.5-1.4-.1-1.8.5-1.4 1 .6.6zm-101.3-1c0-.3-.4-.2-.5.1 0 .2 0 .3.2.2.2 0 .3-.2.3-.3zm25.4-.4-.4-.4c-.4-.2-.5.1-.2.5.2.2.6.2.6-.1zm51.9-.6 2.8-.2c1.6 0 3.3-.4 3.2-1-.2-.3-7.6-.3-9.2 0a5 5 0 0 0-1.9 1l-.9.7 2.4-.1c1.3 0 3-.3 3.6-.4zm-15.9-.7c.3-.4.3-.4-.2-.1l-1 .7c-.2.4-.2.5.3.2l.9-.8zm46 .3c3.7-.3 3.2-.7-1.2-1-2.2-.2-3.4-.8-2.3-1.1l1-.4c.5-.1 6.1.2 9.9.7l1.3-.1c0-.3-.2-.4-2.2-.8-1.8-.4-7.7-1.1-9.2-1.1-1 0-1.2.1-1.6.8-.6 1-.6 2.7 0 3.3.2.2.6.3 1.3.1l3-.4zm-57.2-1.8c-.6-1.4-1-1.9-1-1l.4.8c.2.2.4.6.4 1 0 .6.2 1 .5.8.1-.1 0-.8-.3-1.6zm15 1c4.3-1 7.7-2 8.4-2.3.7-.4 6-2 6.7-2 .2 0 .4 0 .4.2 0 .1-1 .5-2.3.8l-2.1.7a50.9 50.9 0 0 0 7.1-1.4c-.6 0-.4-.6.2-.6.3 0 .6-.2.8-.6.1-.4.5-.8.9-.9.3 0 .8-.3 1.1-.6.4-.5.4-.5-.4-.5A96.6 96.6 0 0 0 113 10c-1.4 0-3.6.8-3.6 1.2 0 .3 0 .3 3.3 0l3-.5c.3-.3 3.8-1.3 4.7-1.4.6 0 .8 0 .8.3s-.2.4-.5.4c-.8-.1-3.2.6-4 1-.2.3-.8.5-1.2.5-.4 0-.9.1-1.2.4-.6.4-1.4.5-1.4 0 0-.3-4.3 0-5.9.5-1 .3-2.2 1-3.5 2.5-.8.7-.8 1 0 .7l2.1-.6zm-2.2-1c.2-.3.5-1.3.6-2.1.2-1.2.4-1.6.7-1.7.3 0 .5 0 .5.3 0 .7.7.4.8-.3 0-.6 0-.6-.8-.5-1 .2-1.3-.2-.3-.6.7-.2.8-.4.8-1 0-.9-.5-1.2-.9-.6-.1.2-.3.2-.5 0s0-.5.7-1l.9-.8-.6-.6c-.6-.5-1.3-.7-1.5-.2-.3.4-.7.3-.7-.3 0-.3.2-.6.4-.6.9-.4 0-.7-1.5-.7-1.6 0-1.6 0-1 .4 1 .8 1.3 1.5 2 6.8.3 1.3.2 2.1-.3 3.6v.5c.2 0 .4-.2.7-.5zM9.9 14c-.1-.2-.2-.1-.2.2 0 .2 0 .4.2.3V14zm29.3.1c.4-.3.5-.3 1 0 .6.2.8.2 1.4-.1.3-.3.9-.5 1.2-.5.4 0 .8-.1 1-.3.3-.3.4-.2.7.2.3.4.4.4 1.2 0 .5-.4 1.4-.7 1.9-1 1-.2 1.4-.7.6-.7-.2 0-.4-.2-.4-.5s-.2-.4-.8-.2c-.5 0-1.2.3-1.7.5-.4.3-1 .4-1.1.4l-2.3.7c-2 .6-3.4 1.3-3.4 1.7 0 .4.2.3.7-.2zM10 9.3c.2-4 .2-4-.3-4s-.5.1-.5 2.8c0 1.6.1 3.5.3 4.1l.3 1.1s.2-1.8.2-4zm51.4 3.6c-.1-.3-1.8-.8-2.5-.8-.6 0 0 .4 1 .7 1.3.4 1.7.4 1.5.1zm11.4-.3c.3 0 .7.2.8.3.2.4 1 .3 1 0 0-.6-1-1.3-1.7-1.3-.5 0-1.2.2-1.6.5-.9.7-.8 1.3.2.7a2 2 0 0 1 1.3-.2zM157 9.4c-.1-2-.3-4-.5-4-.4-.5-2.5-1.2-3.6-1.2-1.2 0-1.1.8.2 1.8 1.2 1 1.3 1.4.4 1.8-.6.3-.7.4-.4.7.2.2.6.4.9.4.3 0 .4.2.4.4-.2.5-1.6.2-2-.3-.3-.3-.7-.6-1-.6-.3-.1-.6-.4-.6-.7-.1-.6 0-.6.9-.7.6 0 .8 0 .5-.1-.3 0-.7-.3-.8-.5-.2-.3-.5-.4-1.4-.3-1.1.2-1.2.2-1-.3.1-.4 0-.6-.2-.6-.3 0-.5-.1-.5-.3 0-.2.5-.2 1.4-.2 1.5.1 2-.4.7-.7a32.2 32.2 0 0 0-10.5 1.2c-.2 0-.7.3-1 .6-.7.4-.7.5-.2.5l2.6-.7 2.2-.6c.2.3-.2.8-.7.8-.7 0-1.9.5-1.9.8 0 .4 1.3.2 2.2-.2.5-.3 1-.4 1.5-.3h1.5c.7-.4 1.7-.2 1.7.2 0 0-.4.3-.8.3-2.2.4-2.6.6-2.6.9 0 .5.8.9 1.3.6.6-.3 3.7 0 3.7.4 0 .5 1 1.3 2.2 1.7.7.3 1.3.3 2.5 0 .8 0 1.5-.2 1.6 0 .3.2-.6.9-1.6 1-.6.1-1 .3-1 .7-.2.6 0 .7 1 .7l1.3.3 1.1.2h.7zm-87.8 2.9a5 5 0 0 1 1.4-.9c1.3-.6 1-.8-1.6-1-2-.2-2.2-.5-.5-1l.9-.2h-1.1l-2 .1-.7.2 1.3 1.3c.7.7 1.3 1.4 1.3 1.6 0 .4.7.3 1-.1zm80.7-1-.7-.7c-.8-.5-3.2-.4-4 .2-.3.3-.3.4.6.5 1.7.3 4.1.3 4.1 0zm-75.8-1.2c0-.4-.3-.9-.5-1-.4-.3-3-.2-3 0 0 .4 1 .7 1.3.5.4-.3 1.6.2 1.5.5-.2.4 0 .7.5.7.3 0 .4-.2.2-.7zm34.8 0c0-.2-.2-.5-.4-.6-.3-.3-.3-.2-.2.2.1.5.6.8.6.3zm-62.3-.4 2.8-.5a83 83 0 0 0 4.5-.7c2-.4 2.8-.4 4.5-.1a110.2 110.2 0 0 0 6.5 1c.4.1.5.1.1-.3-.4-.6-.1-1 .8-1 .7 0 3.7-1.2 3.7-1.4 0-.2-2.8.2-3.2.4-.6.3-1.3 0-1.3-.4 0-.2.4-.5 1-.6 1.7-.2 2.4-.6 2.3-1.1-.1-.4 0-.6.6-.7 1.2-.4-4-.6-9.5-.3-5.4.2-5.5.3-5.5 2 0 .8-.1 1-.3 1-.3 0-.4-.6-.3-1.6V3.9H52c-1.4 0-1.5 0-1.8.7-.1.4-.2 1.3 0 2 0 1 0 1.3-.3 1.2-.2 0-.3-.8-.4-2L49.3 4H45.9c-.1.2-.3 1.3-.3 2.6 0 1.2-.2 2.5-.3 2.8-.2.7.1.8 1.3.3zm30.6-1.2a7.6 7.6 0 0 1 4.1-2.4c.5-.1 1-.4 1.1-.6.1-.3 0-.3-.5-.2-1.4.5-1.8.5-1.8.2l1-.7c1.5-.6.7-.9-3-.9-3 0-3.3 0-3 .4.3.2.5.4.4.6-.1.2.2.7.6 1.2l.8 1c0 .5-.9.5-2.1.1-1.5-.5-2.3-.5-2.5-.1l-.8.2c-.4 0-.7.2-.8.3-.1.1.7.3 1.9.3 1.7 0 2 .2 2.3.6.8 1.6.9 1.6 2.3 0zm-.5-2.8c-.7-1.2-.7-1.2 0-1.4.8-.2 2.3 0 2.3.4 0 .2-1.4 1.8-1.6 1.8l-.7-.8zm34.5 3.9c.3-.1.6-.4.7-.7 0-.8.7-1 .9-.3.1.4.4.6.8.6.6 0 .6 0 .6-2.2L114 5h-3.7c-3.8 0-4.5.1-3.5 1 .3.4.6.4 1.7.1 1.5-.4 2.7-.2 3 .5 0 .3-.2.3-1 .2-1.2-.2-2.5.2-2.5.7 0 .7.4.7 2.8 0 2.2-.6 3-.6 2.4 0l-2.5.8c-1.4.4-2 .6-1.7.7.4 0 .7.2.8.4.1.5.4.5 1.3.3zm9.5-1.9c1.7-.4 3-.6 3.6-.5 1 .2 5.8-.3 6.1-.7.4-.3-.5-.5-4.3-.7-3.2-.2-3.3-.2-3.9.4-.7.8-1 .8-1.2 0-.2-.6-.3-.7-1.5-.7-1.3 0-1.3 0-1.3.8 0 .9-.4 1.2-.8.6-.2-.4-.3-.3-.5.4-.1.6-.4 1-.6 1-.4 0-.4-.2 0-2.2.1-1.1 0-1.2-.5-1.1-.6 0-.7.2-.7 2l-.1 1.7 1.5-.1 4.2-.9zm-13.4.3s0-.2-.2-.3c-.2 0-.3 0-.3.2 0 .1.1.2.3.2h.2zM72.1 6c.2-.2.7-.4 1.2-.3.4 0 .8-.1.9-.3.1-.4-1.2-.6-2.6-.4-.6.2-.9.3-.6.3.5 0 .6.1.5.6-.1.6.2.6.6 0zm65.6-.3c1-.6 1-1 .4-1.3-.6-.2-.8-.2-1 .3 0 .4-.2.5-1.2.4-.7 0-1.3-.2-1.4-.3-.4-.3-1.5-.4-1.5 0 0 .3 1 .7 2.2 1 1.6.4 1.6.4 2.5-.1zm-53.5-.1c-.1-.2-.4-.3-.6-.3-.2 0-.3.1-.3.3 0 .1.2.3.5.3s.5-.2.4-.3zm41.6-.4h-.5c-.2 0-.2 0 .1.1.3 0 .5 0 .4-.1zm-34.3-.5c-1-1-5.8-1.3-7.8-.6-1.5.5-1 .7 1.5.4h2.5c.2.2.6.3 1 .2l1 .1 1.3.2c.7 0 .8 0 .5-.3zm6-.4.6-.6c0-.1-5.4 0-5.5.2v.5c.2.3.4.4 1 .3l1 .1c.6.4 2.3 0 3-.5zm23.3.5c0-.2-2.9-.6-3.2-.4-.1.1-.2.3 0 .4.1.3 3.2.3 3.2 0zm10 0-1.1-.2c-.4 0-.5 0-.1.2l1.1.2c.8 0 .8 0 .2-.2zm-14.7-.4a1 1 0 0 0-.6 0h.6zM142 4c1.6-.3 1.2-.6-.6-.6-2 0-2.3 0-2 .7 0 .3.3.3 1 .2l1.6-.3zm-32-.1c0-.2-2.6-.5-4-.5-.9 0-1.2.2-.8.5.1.2 4.9.2 4.9 0zm14.2 0c.8-.1 1-.2.7-.4-.7-.3-2.7 0-2.9.3 0 .4.6.4 2.2.1zm8.9-.1c.3-.4 0-.4-1.8-.4-2.4 0-3 .4-1 .6l1.9.1c.3 0 .7-.1.9-.3zm-12.3-.2-1.7-.2c-1 0-1.4 0-1 .2.4.4 2.9.4 2.7 0z"/>
</svg>
