<?xml version="1.0" encoding="utf-8"?>
<svg xmlns="http://www.w3.org/2000/svg" xmlns:svg="http://www.w3.org/2000/svg" version="1.1" viewBox="0 0 587 452">
  <title>Anna Maria leans over a large bowl of dough and pulls a bit off. In the background Moppet’s ears are poking out of the wooden barrel.</title>
  <path d="m268.1 451-2.8-.2c-3-.2-8.9-1-10.8-1.4l-5.8-.2a37 37 0 0 1-8.5-.5c-1 0-2-.2-2.7-.4-1-.4-2.1-.5-7.2-.5-3.4 0-8.6 0-11.7.2-5.3.3-5.5.4-7 1.2-.9.4-2 .8-2.4.8-1 0-2.6-.6-2.9-1-.3-.4-1.2-.5-1.2 0 0 0 .1.2.3.2.2 0 0 .1-.5.3-1 .3-2.6.3-7.5 0l-8.4-.6a38 38 0 0 1-6.3-.8 19 19 0 0 0-3.8-.5c-1.4 0-2-.2-3.7-1-1-.6-2.2-1.1-2.4-1.1-.3 0-1-.4-1.6-1a5 5 0 0 0-1.6-.9c-.1 0-.7-.4-1.3-1-.5-.6-1-1-1.1-1-.3 0-.5-.3-2.2-1.7-.7-.6-1.6-1.7-2-2.5-2.3-3.9-7.8-6.7-15.1-7.7-3.6-.4-4.2-.6-4.9-1.1-.3-.3-1.1-.8-1.8-1.1-1.3-.7-1.5-.7-7-.6A32.5 32.5 0 0 0 124 428l-2.2.4c-1 .3-5.2-.6-7.6-1.5a16 16 0 0 1-6-4.1 35.8 35.8 0 0 0-6.3-4.7c-1.3-.9-3-2.3-4-3.2a51.1 51.1 0 0 0-5.1-4.3c-.4-.6-1.8-2-3-2.8a45 45 0 0 1-5-4.3c-2-2-4-3.7-5.8-4.8a30 30 0 0 1-2.5-2l-1.4-1c-.2 0-1-.4-1.9-1a28.6 28.6 0 0 0-6.5-3.4l-3.5-1.5c-2-.9-3.7-1.4-7.1-2-2.2-.4-5.2-1.6-6-2.3a7.8 7.8 0 0 1-1.1-3.7c0-.9 1.2-2 3.1-3 2.8-1.4 6.2-3.8 8-5.5.9-1 2.3-2 3.1-2.5 1.5-.8 1.5-.8 5.5-.9 2.6 0 4.2-.1 4.7-.3 1-.5 4.9-4.5 5-5.2.8-3.7.8-4 .2-5.1a17 17 0 0 0-2.3-2.9l-1.7-2.1c0-.2-.6-.9-1.3-1.6a60.7 60.7 0 0 1-8.2-9.9c-.6-1.2-1.8-4.5-2-5.4l-1.7-5.3a239.2 239.2 0 0 1-4.8-15.2c0-1.5-.4-2-1.9-2.8-.6-.4-1.6-.5-4.4-.5-2.7 0-3.8-.1-4.6-.5-1.5-.7-2-.6-3.4.6l-1.1 1 .4 1c.3.6.3 1 .1 1.4-.2.5-.4.6-2.5.6a16.7 16.7 0 0 0-9.6 2.9c-.5.4-.5.5-.3.9.5.5.2 1.2-.6 1.9-1 .6-3.1.7-11.6.4l-6.8-.2-.9-1c-.4-.4-1-1-1.4-1-.7-.3-1-.9-.5-1.3a11.5 11.5 0 0 1 3.9-2c.5-.4 1.3-.6 1.6-.6.3 0 1-.2 1.5-.5.6-.3 1.1-.5 1.2-.4a83.4 83.4 0 0 1 12.5-4.4A94 94 0 0 0 40 309l3.3-1.4c3.5-1.5 10-3.7 11.1-3.7a22.4 22.4 0 0 0 11-5.5l4.6-4c3.2-2.9 4.9-4.5 4.9-5s-1.7-.1-3.7.9c-1 .5-2.8 1-4 1.3l-2.6.7a112.7 112.7 0 0 1-11.8 4c-1.3.7-1.7.7-2.1.5-.3-.2-.6-.2-.7-.1-.3.4-2.3 1.4-2.9 1.4l-1.3.4c-.4.2-.8.3-.9.2-.2-.1-2 .4-2.5.8l-2.2.9a79.7 79.7 0 0 0-8 3c-1.2.5-4.6 1.7-6.5 2.2-1 .3-1.2.2-1.5-.2l-.4-.8c0-.3 1.5-1 3.8-1.8a115 115 0 0 0 5-1.6c5-1.2 13-3.5 14.3-4.2a5 5 0 0 1 1.7-.3c.6 0 1.1 0 1.1-.2l1.3-.5 2-.7c.3-.2.7-.3.8-.2.1.1.3 0 .4-.1.1-.2.6-.5 1.1-.6l4-1.3c1.6-.6 3.2-1 3.5-1 .6 0 3.6-1.1 4.3-1.6.3-.2.7-.3 1-.3l1.2-.4a18 18 0 0 1 2.2-.8c.8-.2 2.1-.8 3-1.3.7-.5 1.9-1 2.4-1 1-.2 1.4-.5 2.8-2l5.4-5.6c2.1-2.1 4-4.3 4.3-4.8.3-.5 1.2-1.6 2.1-2.4l3.2-3.3c1-1.3 2-2 2.6-2.3a4 4 0 0 0 1.2-.7l2.8-1.5 3-1.5a60.6 60.6 0 0 1 11.8-4.9c.5-.3 1.7-.7 2.6-1l3-1c1.5-.7 3-1.3 6.5-2.5l2.5-1.2 1-.5 1.4-.5 3.8-1.3a25 25 0 0 0 3.7-1.5c1-.6 3.2-1.4 5.2-2 .6-.1 1.2-.5 1.5-.7.3-.3 1-.7 1.7-1l2-1.4 2.7-1.6 1.9-1c0-.2.5-.4 1-.5.4 0 1-.4 1.2-.6.3-.3.7-.6.9-.6.5 0 2.7-1 2.7-1.3 0-.3-2-.3-3.1 0l-3.7.8-5.4 1.5c-1.6.5-3.4.9-4 .9l-2.6.4-9.3 3.1c-1 .4-2.3.8-3 .9-1.5.2-3 .6-6 1.5l-3.8 1-4 1a108.6 108.6 0 0 1-11.7 2.9c-3 .8-6.3 1.6-7.2 1.6-.8 0-3.3.7-4.2 1.2-.4.2-1.1.4-1.5.4a31.9 31.9 0 0 1-7.8 2.4 305.8 305.8 0 0 0-8.8 2.1 3 3 0 0 0-1.5.5c-.3.2-1.3.5-2.3.7l-3.3 1a58.6 58.6 0 0 1-9.5 2.8l-3 1-3.3 1-3.5 1a17 17 0 0 0-3.3 1 9 9 0 0 1-2.5.8 50 50 0 0 0-9.4 2.1l-1.3.2a272 272 0 0 0-22.9 7.2c-2.5 1-5.7 1.6-6 1.2-.6-.6-.7-3-.3-4.7.3-1.2.9-1.5 2.5-1.5a18 18 0 0 0 6.4-1.4l1-.5 2-.7c1.7-1 3.6-1.3 8.4-1.6 3.6-.3 4.8-.5 8.1-1.5 1.2-.4 2.7-.6 3.4-.6.7 0 1.5-.2 1.9-.4.3-.2 1.4-.6 2.5-.8l3.8-1.2a61.5 61.5 0 0 1 9.7-3 43.4 43.4 0 0 0 6.9-2l2.1-.4 3.7-1c1.4-.3 2.8-.7 3-1 .6-.2 1.4-.5 5-1.4a146.8 146.8 0 0 0 7-1.8 48.6 48.6 0 0 0 5.7-1.6l6.7-2a72 72 0 0 1 8.7-2.3l10.4-2.6c4.4-1.3 5.3-1.5 10.5-2.7a107 107 0 0 0 10.6-2.8l3.2-.8a154.8 154.8 0 0 1 11.3-3.1 60 60 0 0 1 7-2c2.9-.9 4-1.2 5.8-1.5a68.1 68.1 0 0 0 8.6-2.3 49.6 49.6 0 0 0 5.3-1.4l1-.3c.7-.4 4.3-1.3 6-1.5a4 4 0 0 0 1.6-.6c.4-.3.8-.5 1-.4.2 0 .7 0 1.2-.3.4-.2 1.1-.4 1.6-.4s1-.1 1.3-.3c.5-.2 4.8-1.4 8-2 3-.8 6.2-1.8 8.2-2.7.8-.4 2.1-1 3-1.2l6-2a29.4 29.4 0 0 1 12-2c.4.1.8 0 1.4-.5l.9-.8-.2-2.8c-.2-3.1-.5-4.6-1.4-6.1-.7-1.2-1-1.3-2.3-1-2 .5-3.2.8-3.9.8-.5 0-.7-.1-.5-.6.1-.5 0-.5-3.1-.4-1.8 0-3.2.1-3.2.2 0 .2-.5.2-1 .2-1 0-1 0 .6-.5 1.8-.6 3.8-1 7.5-1.2 1.5 0 2.8-.3 3.1-.5.9-.6.8-1.8-.2-3.8-.4-1-.9-2.5-1-3.4-.2-1.5-.2-1.9.3-2.8.2-.5.5-1.4.5-2 0-1.2-.6-1.8-2.5-2.7-.7-.3-1.2-.7-1.2-.8 0 0-.4-.3-.9-.4-.4 0-1.3-.4-2-.7a11 11 0 0 0-8.1.1l-2.4.7a83 83 0 0 1-6 1.4c0 .2-1.2.5-2.5.8-1.3.2-2.6.5-2.9.7-.3.2-1.6.5-3 .7l-3.5.8-3 .7a139 139 0 0 0-11.4 2.5c-1.4.3-2.7.8-3 1a3 3 0 0 1-1.2.2c-.8 0-2.8.4-4.2 1l-1.9.3c-.5 0-1 .1-1 .3 0 .1-.2.2-.6.2-.6 0-.6 0-.3-.4.2-.2.7-.4 1.1-.4.4 0 .7 0 .7-.2 0-.5 1.6-1.3 2.7-1.5a90.6 90.6 0 0 1 7.8-2l7-1.8 3.3-.6c2.5-.3 3.7-.5 5.7-1.2l3.3-.6 4-.6c1-.3 2.2-.5 2.7-.5.4 0 1-.1 1.2-.4.2-.2.6-.3.9-.3.3 0 .6-.2.8-.4.1-.2 1.2-.5 2.3-.7 2.2-.4 3.8-1 4-1.5 0-.2-.2-.4-.6-.4l-2.7-.3a167.7 167.7 0 0 0-35.5-1c-1 .3-8 1.3-9.5 1.3-.7 0-1.3.2-1.6.6-.4.3-1 .5-1.2.5l-2 .6-2.4.6c-.4 0-1 .2-1.2.4-.1.3-.9.5-1.7.6a89.8 89.8 0 0 0-9 1.6 62 62 0 0 1-13.5 3.5l-3 .7-2.8.6c-1.3.2-1.6.1-1.6-.2 0-.3.3-.5 1-.6.5 0 1.3-.3 1.7-.5.9-.5 4.2-1.5 5.9-1.7l2-.5a5 5 0 0 1 1.6-.3c.4 0 1-.2 1.4-.4.3-.2 1.1-.5 1.9-.6a42.8 42.8 0 0 0 6.5-1.4c.4 0 2.4-.9 2.8-1.2 0 0 .2-1.4.2-3 .1-1.7.3-3.6.5-4.2.4-1.2.4-1 .4 2.7 0 4.6 0 4.7 2.2 4.4 1.6-.2 2.2-.6 2-1.5 0-.5.2-.8 1-1.2.8-.5 1.4-.6 4.3-.7 2 0 4.2-.2 5.3-.4a47 47 0 0 1 7.4-1.1l2.3-.3c2.5-.2 3.3-.4 3.9-.9.2-.2.8-.5 1.2-.5l1.5-.3 2.2-.4c.8-.1 1.7-.3 2-.5.5-.4 1.2-1.7 1.2-2.2 0-.6.4-.4 1.1.7 1 1.4 1.3 1.5 2.8.8l1.4-1.2c.2-.6.3-3.4.3-10 0-1.8.5-3.2 1-2.7v11.2c0 1 .7 1.7 1.4 1.5a46.6 46.6 0 0 1 8.1-1.9 5 5 0 0 1 1.6-.3c1 0 4.6-1 6.3-2 1-.4 2.5-.8 4-1 3.1-.5 3.4-.7 3.1-2.5-.4-2.4-.3-4 .4-4.9.8-1.1.7-2.4-.4-4-2-2.7-3.3-6.4-3.3-9.1 0-.5-.4-1.7-1-2.6l-.8-2.3c0-.2-.1-.5-.3-.6-.1 0-.3-.5-.3-.8-.1-.6 0-.8.3-.9.3 0 .5-.2.4-.3-.1-.1 0-.5.2-.8.2-.4.2-.7-.5-1.9l-1-1.7a34 34 0 0 1-3.4-7.5c-.3-.6 0-4.2.8-7.8l.4-2.3 1.1.2c.8.1 1.4 0 2-.2 1.4-.7 2.3-.8 5-.5 1.7.1 3 .4 3.6.7a8 8 0 0 0 2 .7c.7.1 1.7.7 3.1 1.9 1.2 1 2.3 1.7 2.4 1.7.2 0 1 .7 1.8 1.6l2.5 2.1a63.5 63.5 0 0 1 6.8 5.9c.6.4.8.7.6 1-.2.3-.4.3-1.6 0-1.6-.6-2-.4-2.2 1-.1.7 0 1.3.5 2.2.4 1 .5 1.3.3 1.5-.5.5-.8.4-2.2-.6-1.1-.9-2-1-2-.4l1 2.3c1.3 2.3 1.5 4.1.6 4.6-.7.4-1.3 2.2-1.4 4.7 0 1.3-.3 2.8-.4 3.4l-.2 1.4c.3.4-.3 1.8-.8 2-.2 0-.5 0-.8-.3-.3-.4-.4-.8-.2-2.8l.2-6.3c0-3 .2-4 .5-4.6.4-.8.4-1-.1-2.4s-.5-1.7-.2-2.8c.3-1.2.2-1.4-.2-2.4l-1.4-2c-1.3-1.2-2.3-4-1.9-5.5.3-1-.1-1.6-2-3.7-.8-.8-1.6-1.5-1.9-1.5-.3 0-1-.3-1.4-.7-1.5-1.2-4.6-1.7-7-1-1.4.3-3 2-3 3.3 0 .3-.2.7-.5 1-.3.2-1 1.2-1.4 2-.8 1.6-.8 1.7-.5 3.2.2.8.5 1.5.6 1.5l.5 1c.3 1 1.3 2.8 2.3 4.3l.6 1.2.6 1.2c1 1.4.9 2.3-.2 3.4-1 1-1 1 .1 2 .3.3.9 1.3 1.3 2.2.8 1.4.9 1.8.6 2.3-.2.4-.3 1-.3 1.3 0 .7.7 2.4 1 2.7.2 0 .3.3.3.5a48.4 48.4 0 0 1 5.5 11c-.4.6-.8.3-1.2-.9-.4-1-1-1.6-1.5-1.4-.7.3-.3 4.3.5 5.4.4.4.9 1.3 1.1 1.9.3.7 1.1 1.7 2.5 3a12 12 0 0 1 2.3 2.4l.6 1.7c.3.6.7 1.7.8 2.4l.4 1.8c.5 1.2 2.3 3.4 4.3 5.1 2 1.9 2.1 2 2.3 3.4a7 7 0 0 0 2.3 4.3c.7.7 1 1.3.5 1.3-.4 0-1.6-.7-2.3-1.4-.4-.4-1.2-1-1.8-1.3-.6-.3-1.6-1-2.3-1.8-1.5-1.4-2.2-1.7-3.2-1.3-1 .4-1.1 1.5-.6 4.1.7 3.3 1.5 5.5 2.6 6.7.5.5.8.6 3.4.6 3.8 0 7.3.7 6.7 1.3H232c-3-.2-4.2-.2-4.5 0-1 .8.1 3 2 4 .8.3 1.2.8 1.6 1.7l1 1.7c.2.2.4.8.5 1.3.3 1.7.6 1.8 1.7.5.8-1 1.1-1 2.4-1.2 1.4-.2 1.5-.3 2-1.2.4-1 .5-1 1.4-.9 3.5.7 3.7.6 2.5-1.3-.5-1-.6-1.6-.7-3.3 0-1.7-.1-2.2-.6-2.5a2 2 0 0 0-.9-.4c-.6 0-4.3-1.6-4.5-2-.4-.5-.3-1 .4-1.2.6-.3.6-.3 6 2.6l2 .9c.2 0 .7.2 1 .5 1 .7 1.7.7 1.7 0 0-.6.1-.6 1.3-.5l1.3.2-.5-.8c-.7-1.2-.2-1.4 1.4-.6 1.4.7 1.8 1.3 1 1.6-.3 0-.6.4-.8.6-.2.4-.4.5-1.6.4H248c0 .4 1.8 1.8 3.3 2.5l1.8 1c.5.4 2.4.9 3.2.9.3 0 1 .2 1.6.5a3346 3346 0 0 1 3 1.9c.5.6 2.2 1.1 2.8.9.3-.1.5-.5.6-.9 0-.4.3-1.2.5-1.8a5 5 0 0 0 0-2.7c-.1-1.3-.1-1.8.2-2.5l.6-1.7c.2-.8.1-.9-.6-.9s-.9 0-1.4-1.5a10 10 0 0 1-.5-3.8c0-2.6.4-3.8 1.2-3.8 1 0 1.5 4 .6 4.5-.5.4.2 3 .8 3 .6 0 1.7-1.8 1.9-3.4.1-1 .7-2.4 1.4-4 1.2-2.4 1.2-2.4.9-3.3-.3-.5-.5-1.2-.5-1.6 0-1.6.8-4.6 1.5-5.7.4-.6.8-1.5.9-2 0-.8 0-.8-.7-.8-.8 0-.9-.1-.9-1 0-1 1.3-6.1 1.8-6.9.6-1 1.4-4 1.5-6.3.2-1.5.6-2.5 1.1-2.5.4 0 .5 1.1.4 3.9 0 1.7.1 2.7.5 2.7.2 0 .3-.2.4-.5.2-.7 1-1.6 1.4-1.6.5 0 .4.6-.3 1.8-.4.8-.7 1-.9.8a.7.7 0 0 0-.6-.2c-1 .4-2.9 5.9-2.9 8v1l.7-.6c.3-.3.8-1.2 1-2 .3-.9.7-1.4 1-1.5.8-.3 1 0 1 1.1l-.4 1.9c-.1.5-.3 1.2-.5 1.4-.5.8-.5 1.2.1 1.8.8.7 1.8.6 2.8-.4 1-.8 1.2-1.3 1.7-4l.7-2.1c.2-.6.4-1.6.4-2.4 0-1 .1-1.5.5-1.9.6-.6.9-1.7 1.5-5.2.2-1.5.7-3.5 1-4.4.7-1.7.8-1.9.6-5.4l-.2-4.2-.4-1.6-.4-1.7c0-.4-.3-.9-1-1.4a3.6 3.6 0 0 1-1.2-1.6c-.3-1.2-3.1-3.6-6.1-5.1-4.2-2.2-3.4-3.3.8-1.3 4.1 1.9 6.5 4 7.9 6.8l1.1 2.3.9 2.8c.7 4.2.8 4.7.5 6l-.4 2.8c-.2.8-.5 2-.8 2.5-.7 1.5-1.7 4.5-1.7 5.4v.7l.5-.6a27.7 27.7 0 0 0 4.2-6.8c.5-.9.6-1.4.6-3.7v-3c0-.6.8-.3 1 .4.2.8.8 1.7 1.2 1.7.4 0 1.8-1.7 2.4-2.8.4-.8.5-1.3.4-2.5a8 8 0 0 0-.6-2.3l-.4-1.3-.4-1.2-.4-1.2c0-.8-.9-2.6-1.8-3.6l-.6-1.1c0-.4-1-1.4-1.7-1.6-.3 0-1-.6-1.6-1.2-1.6-1.5-3.3-2.1-7.4-2.5-3.8-.4-4.6-.6-6.2-1.5-1-.5-1.3-.6-4.6-.5-2.8.2-3.8.3-4.8.7-1.2.6-1.2.6-1.1 1.5l.3 2c.2 2 .7 4 1.2 5.6l.7 2.6c.2 1.2.3 1.4 1.8 2.2l1.2 1c.4.7.8 2.9.8 4 0 1 .8 3.6 1.4 4.5.5.7.4 1.7-.3 3.6-.3 1-.5 1.1-1 1-.7 0-1.2-1-1.2-3 0-.8-.1-2.2-.3-3-.2-1.3-.3-1.5-1-1.6-.9-.2-.9-.3-.8-3 0-1-.1-1.8-.8-3-1.4-3-2.2-5.4-2.5-8.2-.1-1.6-.3-1.9-.6-1.8-.3 0-.6.5-.8 1.2a38 38 0 0 1-1 2.6c-.5 1.4-.5 1.4 0 3.2.3 1 .6 2.9.6 4.2.1 2.4.1 2.5-.5 2.7-.3.1-.7.2-.9.1-1.6-.6-2.6-8.5-1.2-10.7.6-1 .8-1.7 1.1-4 .8-4.7.8-5.4.5-7.2-.4-3.3-.8-5-1-5.4-.2-.3-.3-.9-.3-1.4 0-1.2-.3-1.6-1-1.3-.5.3-.6.2-1-.3-.2-.3-.4-.8-.4-1.2 0-.9-.4-1.8-1.3-2.7a5 5 0 0 1-1-1.3c0-.3-.5-.6-1-.8l-1.8-.6a6.2 6.2 0 0 0-5.2.3c-2 1-5 3.8-5.2 4.9a4 4 0 0 1-.3 1 5 5 0 0 0-.4 1.5c-.3 1.8.7 2.6 2.2 1.8 1-.6 2.4.4 2.4 1.8l.5 1.3c.5.9.6 1.3.4 2.4-.3 2.2.8 4.7 1.3 3 .2-.3.4-.5 1-.5 1 0 1.8.8 1.8 1.7 0 .9 1.2 3 1.7 3 .3.1.4 0 .4-.7 0-.8.6-1.2 1.4-1 .4.2 1.3 1.7 1.3 2.3 0 .1.4.5 1 .7 1.8 1 1.8 2-.1 2-.8 0-1 0-1 .8l-.2.7-2.5-.1c-1.3 0-2.6-.2-3-.3-.7-.1-2.8-2.4-3.8-4-.4-.8-1-1.5-1.2-1.5-.2-.1-.3-.5-.3-.8 0-.3-.2-.7-.3-.8l-.4-1.4a3.1 3.1 0 0 0-1.6-2.4c-.3 0 0 1.2.4 2.1.7 1.3.7 4.1 0 4.6-.6.3-3.9-1.2-4.8-2.3-1-1.2-1-2 .4-3.5.6-.6.7-.8.7-3 0-2.5-.5-4.7-1.2-6l-.4-1.2c0-.3-.1-.4-.4-.3-.2 0-.4 0-.4-.3 0-.2.2-.5.4-.5.2-.1.4-.5.4-1 0-.6.2-1 1-1.6.7-.4 1.4-1 1.7-1.4.2-.3 1-.9 1.7-1.2a9 9 0 0 0 2.1-1.3 7 7 0 0 1 4.1-1.6c1.7 0 5.5 1.5 6.5 2.6.2.3.7.5 1 .5.8 0 3.8 2.6 3.9 3.4 0 .2.4.7.9 1.2 1.4 1.4 3 4.6 3 6 0 1.7.6 5 .9 5.7.2.3.4.4.8.3l1.5-.3 3-.4c1.5-.3 2.3-.3 3.2 0l2.4.3c.8 0 1.7.2 2.5.6 1.1.6 1.5.7 4.1.6 2 0 3.1-.2 3.5-.5.7-.3.8-1.1.4-1.4-.2 0-.3-1.2-.3-2.4 0-1.8 0-2.2.4-2.2s.5.7.4 4.4c0 2.4 0 2.6 2.8 3.9l2 1.3c1.5 1.3 2 1.3 1.2-.2-.5-1.3.2-1.5 4.8-1.5 4.7 0 5 .1 5.4 2.4.3 1.9-.2 4.7-.8 5.3-.4.3-2 4.6-2 5.4 0 .6 1.7-.6 3.8-2.9 1-1 1.4-1.5 4.6-4.3a1064.9 1064.9 0 0 0 5-4.5 222.4 222.4 0 0 0 3.2-2.2c.2 0 .6-.2.8-.5l1.3-1c.5-.2 1-.6 1.4-.9a19 19 0 0 1 5-2.6c.4 0 1-.3 1.3-.7.4-.3.8-.6 1-.6a49 49 0 0 1 9.3-4.7 8 8 0 0 1 2.2-1.1l2.5-1 1.8-.4c.5 0 .8 0 .8-.2s.2-.3.4-.3c.4 0 .4 0 0 .4l-.7.4c-.3 0-.5 0-.5.2-.2.4-4.3 2.4-5.3 2.6-.6 0-1.1.3-1.3.5-.2.2-.5.4-.8.4l-1.4.7a4 4 0 0 1-1.3.6 28 28 0 0 1-6.5 3.2c-.6.2-1.7.8-2.3 1.5a51.2 51.2 0 0 0-6.2 4.4c-3 2.1-3.5 2.5-5.2 3-.5.3-.9.5-.9.7 0 .3-2.8 3-6.4 6.4-1 .9-1.8 1.8-1.8 2 0 .8 1 .6 2.7-.4a7 7 0 0 1 1.8-1c.2 0 1.9-.4 3.7-1l3.2-1h4.6c6.4 0 8.9.4 14 2.5 2.2 1 3.7 2 6.2 4.3l1 .9 2.2-.2c1.2-.2 3.4-.3 4.8-.3 2.4 0 2.5 0 2.8-.6.4-.8.3-2.7-.2-3.5-.3-.3-.3-.6 0-1.2l.3-1.1c0-.3.2-.7.4-.8.5-.5.7 1.3.7 4.4-.1 3 .1 3.4 2.2 3.7l3.3.7c5 1 7.8 1.2 8.7.5.4-.3.5-.6.5-1.7 0-.7 0-1.3-.2-1.3-.3 0-.3-2.8 0-3 .4-.3.3-2.3 0-2.3s-.3 0 0-.2c.1-.1.2-1.2.2-3.2 0-1.7.1-3 .2-3.2.1-.1.2 6.8.2 11.8 0 3.7.2 3.9 4.4 4.3l3 .4 4 .4c3.5.2 7.5 1 8.4 1.5.5.3 1-.5 1-1.3 0-.4 0-1.2-.2-1.7l-.7-3.1c-.2-1.2-1-3.9-1.7-6a118 118 0 0 1-1.8-5.4c-.2-.9-.8-2.4-1.3-3.5-.4-1-1-2.5-1-3.2-.1-.8-.5-1.7-.8-2.2l-1-1.5a31.7 31.7 0 0 1-2.6-4.4c-.4-.9-1.2-2.2-1.8-2.9-.6-.7-1-1.4-1-1.6a9 9 0 0 0-1.8-3.3l-1-1.3c-.5-1.1-2.4-3.1-3.1-3.3-.5-.2-1-1-1.3-2.3a29 29 0 0 0-4.4-6 27.4 27.4 0 0 1-4.6-5.8 7.6 7.6 0 0 0-3-3.1A41 41 0 0 0 339 79.3a6 6 0 0 1-1.6-1.4 204.1 204.1 0 0 1-10.7-9.5l-1.4-1c-1-1-3.7-2.8-4.5-3.3-2-1-5.5-5.2-5-6 .8-1.3 11.2 3 13.2 5.4.4.5 1 1 1.2 1 .6 0 3.3 2.5 3 2.9-.2.4-.8.3-1.3-.3-.4-.5-5.8-4.1-9.5-6.4-.6-.4-1.4-.7-1.8-.7-.8 0-1.3.7-.7 1a50 50 0 0 1 6.1 5c3.5 2.7 4.5 3.6 6.5 5.5a94.4 94.4 0 0 0 11.2 9.3c.7.4 2.3 1.7 3.5 3 1.2 1.1 2.3 2.1 2.5 2.1.7 0 .3-.9-1-2.2a60.8 60.8 0 0 0-7.4-8.3c-2.6-2.6-4.7-4.9-4.7-5 0-.6 1 0 2.4 1.5a61 61 0 0 1 9.5 9.5l1 .6c1 .3 1.2.5 1.6 1.7.3 1 1 1.8 3.4 4.3a32 32 0 0 1 3.4 3.8 157.7 157.7 0 0 1 8.5 10.7c1.1 1.7 3 4 4.4 5.7l1.6 2.3c.2.4.8 1.3 1.3 1.8l2 2.7a72.8 72.8 0 0 0 3 4.5c.3.9 2.3 3 2.9 3 .4 0 .5.1.5.9 0 .6.2 1.3.8 2.1l.7 1.4a23.7 23.7 0 0 1 4.2 6.6c2 4.3 3.6 8.6 4.3 12.5 1.1 5.9 1.5 7.2 2 7.7.3.2 1.1.3 2 .3 1.3 0 1.6 0 2-.6l.5-.6.6.8c.7.9 2.3 1.4 5.5 1.5 2.8.2 5.8.8 6.8 1.4.6.4 1 1 1.6 2.3.8 2 .8 3.1-.1 4.4-.3.4-.5 1-.5 1.3 0 .9-1.3 2.6-2.2 3l-2 1.4a3.3 3.3 0 0 0-1 4.1c.5 1.2.5 1.2 2.4 1.4.9 0 2.2.3 3 .4.8.2 2.2.3 3 .3 1.7 0 4 .4 4 .8 0 .1.6.2 1.4.2.9 0 1.5.1 1.4.2 0 0-3.1.2-6.7.2-7 .1-8 .3-8 1.3 0 .7.6.8 2.7.5 2.7-.4 8.3.3 11 1.5.6.2 1.1.3 1.2.2.1 0 .6.2 1 .6.6.5 1.2.9 1.6 1 3.6.7 5.3 1.3 5.6 2.1.3.6 0 .7-1.8.7-1 0-2.6 0-3.6.2l-5.2.5c-2.5.1-3.2.2-3.4.6-.4.6-.1.8 1.6 1 3.7.6 6.8.7 17 .6a24 24 0 0 1 9.9 1.4c.4.3.4.4-.2 1-.6.8-.8.8-3.4 1l-8.8-.4a129.4 129.4 0 0 0-20.8.1c-.4 0-.8.1-.8.3 0 .3 1.6.6 3.6.7.9 0 2.2.2 3 .5.6.2 2.3.5 3.6.6 1.3 0 2.5.2 2.7.4.2.1.5.1.8 0 .3-.2.6-.3.7-.2.1.1 1.7.2 3.6.2 3.4 0 4.5.3 4.5 1 0 .6-.8 1-1.6 1a493.9 493.9 0 0 1-7.8 2.4c-.3.5-6.9 3.5-9.8 4.5-3.3 1-3.6 1.5-2.1 2.4.5.4 1 1 1.2 1.4.3.6.3.8-.3 1.6a10 10 0 0 0-1 1.8c-.4.6-.8 1-1.4 1.2-2.1.9-3.8 1.8-4.8 2.7-1.3 1.3-4 2.2-7.8 2.8-.5.1-.8.3-.8.6s.3.4 1.8.2c1.9-.1 3.4.2 3.8 1 .2.3.2.6-.3 1-.4.5-.8.8-1 .8l-2.2.6-2.9 1a236.9 236.9 0 0 0-7.6 1.4c-.3 0-1 .4-1.3.8-.4.3-1.5.9-2.5 1.2-2.4 1-3.3 2.3-5.3 7.4a39.7 39.7 0 0 1-3.4 7.3 56.7 56.7 0 0 0-6.5 11c-.1.3-.5 1-1 1.4-.8 1-1.8 2.6-1.8 3l-.6 1.2c-.9 1.1-1.9 3.2-2.3 4.7-.3 1.1-.3 1.3.2 2.3.3.6.7 1.1.8 1.1l3 2.7c3.2 3.4 4.3 5.1 4.6 7.8.4 4.5.4 5-1.2 8a31.3 31.3 0 0 1-7.7 9.6c-1 1-1.7 1.8-2.4 3-.4 1-1.4 2.4-2 3.2-.8.7-1.8 2.3-2.4 3.4l-1.8 3.2c-.3.6-.9 1.8-1.1 2.6-.6 1.9-1.4 3.6-2.3 5l-1.6 3.1a28.9 28.9 0 0 1-5.2 7.5c0 .1-.4.9-1 1.6l-1.4 2.2c-.2.4-1.6 1.9-3 3.3-3 3-6.8 7-7 7.4 0 .4.6.8 2 1.2.8.2 1.1.4 1.4 1 .3.6.6 1 .9 1 .2 0 .5 0 .6.2.1.2.5.3.8.3.4 0 1.5.4 2.4.9a8 8 0 0 0 2.1 1c.3 0 .9.1 1.3.4l2.1.7c1.2.3 1.4.4 1.4 1 .2 1-.5 1.4-2.8 1.6-7.1.6-10 1.2-9.8 2 .2.6 2.1 1.4 3.7 1.4 1.1 0 3.8.6 4.8 1.1l1.5.6c.5 0 .9.3 1 .4l.9.2c.4 0 .9.2 1 .4.4.5-.7 1.4-2 1.6-2.3.4-4.6 1.4-5 2.1 0 .3.2.7.5 1 .5.4 1 .5 3.6.5 7.4.1 9.3.3 12.5 1.3 2.7.8 3.5 2.5 1.5 3.3-1.1.5-3.3 1-4.3 1.1-.5 0-1 .2-1.4.4l-2 .6c-1.3.3-4.6 1.7-5.6 2.4-.2.2-.5.7-.5 1.1l-.1 1.1c-.1.8-2.9 1.7-6.5 2.2-2.6.3-4.7 1.4-4.7 2.4 0 1.1-1.1 2.7-2.3 3.3l-1.8.8a17 17 0 0 1-3.4 1.4c-.2 0-.5.2-.7.5-.3.3-.3.5 0 1 .6.9-.1 1.2-3 1.3-2.5 0-4.6.6-4.7 1.1v1c-.2 1-.2 1-2 1.4l-4.2 1-5 1c-2.5.2-3.5.6-4.8 1.8a7 7 0 0 1-5 1.4c-1.6-.2-6.1.8-6.8 1.4-.2.3-.5 1-.5 1.7-.2 1-.1 1.4.5 2.1l1.2 1.8c.3.5 1.1 1.1 2.2 1.6 1 .5 1.8 1 1.9 1.2.1.4 0 .4 6.8.4 4.3 0 9-.4 11-1 1.7-.5 6-.6 8.6-.2a95 95 0 0 1 14.8 4l1 .7a32.7 32.7 0 0 1 5.9 3c.4.3.5.6.5 2s0 1.6-1.5 3.3c-2 2.4-2.3 3.3-2.1 4.4.2 1.3-.8 2.4-2.1 2.4-.7 0-1.4.3-2.8 1.4l-2.5 2.2a16 16 0 0 1-1.7 1.6c-1.1.9-1.3 1.2-2.1 4-.5 1.7-.7 2-3.2 3.6-1.3.8-1.6 1.3-2.2 3-.4 1-3.4 3.3-5.2 3.9a84.2 84.2 0 0 1-11.7 2.8c-.7.3-1.8.4-5.7.3-4.5-.2-7 0-8 .7-.3.3-2.6 1-4 1.3-.7.1-2.5.7-4 1.2a23 23 0 0 1-3 1l-2.6 1c-1.5.9-2.4 1.5-2.6 2-.7 1.4-1.4 1.6-5.6 1.6l-3.9-.1zm-64.3-3.8 1.5-.5a51.4 51.4 0 0 1 19.9-2.2h6.2l.6-.7c.4-.4.9-.7 1.2-.7l1.3-.4c.7-.4 2-.7 5-1.2l2.3-.5 4.4-.4c4.4-.2 8.7-.6 12.4-1 1.6-.3 4.7-.6 7-.8 2-.1 4.4-.4 5-.6 2.2-.9 2.6-1 3.3-1.5.4-.3 1-.5 1.2-.5l.8-.2c.1-.2 1.7-.8 3.6-1.5 1.8-.6 3.8-1.4 4.3-1.7.6-.3 1.5-.5 2.1-.5l2.4-.4a24.8 24.8 0 0 1 10 .2l2.7.5c1 .3 3.1.4 9.8.6a30.9 30.9 0 0 1 6 .6c.3 0 4-2.5 4.8-3.3.7-.8 1.9-2.6 2.2-3.6.2-.5 1.6-2.2 3.7-4.3a20 20 0 0 1 5.6-4.7c2.2-1.1 2.7-1.6 3-3.4.2-.6.4-.8 1.2-1 1.5-.2 4.7-2.7 5-3.9.3-1.2-.4-2.2-1.6-2.5a26 26 0 0 1-3.8-1.2 27 27 0 0 0-2.6-.8c-.8-.2-2-.6-2.4-.9-.4-.2-1.7-.6-2.9-.8-1.2-.2-2.3-.4-2.6-.6a25.5 25.5 0 0 0-10.6-.4 73 73 0 0 1-9.6.6l-7 .2-1.2 1c-3 2.2-4.8 3-10 5l-4.2 1.8c-2 .8-5.6 2.2-6.5 2.4a6 6 0 0 0-1.9.8 4 4 0 0 1-1.2.6c-.4 0-2.6 1-3.9 1.8-1.7 1-3.8.2-3-1.2.4-.6 2.5-2.2 3-2.2l1-.4 1.7-.7a27.7 27.7 0 0 0 10-6.7c2-1.9 2-1.7 2.4-5.4.2-1 .6-2.3 1.1-3.3.5-1 .8-2 .8-2.7 0-2.4 1.5-7.2 2.7-8.4l.9-1.6c.2-.5.9-1.5 1.4-2.1a8 8 0 0 0 1.5-2.3 195 195 0 0 1 3.6-10c.4-.8.8-3.1.8-4.5a35 35 0 0 0-5.3-14.5 19.6 19.6 0 0 0-3-4.7 48.1 48.1 0 0 0-4.5-6.1 25.4 25.4 0 0 0-2.5-2.8c-.2 0-.7-.6-1.2-1.3l-2.3-3a14.8 14.8 0 0 1-3.2-5.9c-.3-1-.8-2-1-2.4a2 2 0 0 1-.6-1.1c0-.3-.2-1-.5-1.6-.3-.6-.5-1.3-.5-1.6 0-.5-1.8-3.4-2.7-4.4l-1.2-2c-.8-1.5-3.5-4.4-4.5-4.8-.3 0-.6-.5-.7-1-.3-.8-1-1.6-1.4-1.6l-1.2-.6c-.5-.4-1.2-.8-1.6-.9-.4 0-.8-.2-.9-.4l-.5-.2c-.3 0-.8-.3-1.3-.7a4 4 0 0 0-1-.6c-.2 0-.5-.2-.7-.5-.7-.7-1.9-1.5-4.4-2.8-2.9-1.5-3.1-1.5-8-2.6l-5.1-1-3.1-.5c-1.8 0-2 0-2.6.5-.7.6-.7.7-.7 4.3 0 1.8-.5 2-1.1.5l-1.1-2c-.8-1.3-2.2-5.4-2.4-7 0-.7-.3-1.6-.5-2.2l-1-2.9a65.6 65.6 0 0 0-5.8-13.6c0-.3-.4-1-1-1.7a28 28 0 0 0-4.7-4.5c-.2 0-.4-.3-.5-.5 0-.3-.2-.6-.3-.6-.1 0-.9-.6-1.6-1.3-2.2-2-2.5-4-.4-3 .4.2 1 .7 1 1 .2.4.7.7 1 .8.5.2.8.4.9 1 0 .4.2.7.4.7l1 .8c.4.5 1 .8 1 .8.2 0 .4.3.4.5l1.5 2c.8.8 1.5 1.8 1.6 2.3.2.6.5 1.2.8 1.3a39 39 0 0 1 4.6 6.9l1.4 2.3.6 1c0 .5 3.1 4.7 4.3 5.9 1.5 1.4 1.6 1.4 3 1.3 1 0 1.3-.2 1.4-.5a86 86 0 0 0-8.9-16l-1.4-2.2c-.4-.4-.8-1-.8-1.2l-2.2-3-3-3.5c-.3-.5-1.5-1.6-2.6-2.5l-4-3.4a17.6 17.6 0 0 0-4.7-3.4 275 275 0 0 1-10.5-5.5c-1.1-.4-4.2-3.4-4.2-4 0-.6-1-1.4-1.2-1-.3.4-.8.3-1-.3-.1-.5-3.4-2.2-5.6-3-.6-.1-1.8-.6-2.6-1-1-.5-2.1-1-2.7-1-1.6-.5-7.3-.8-8-.6l-2.8.7c-6.8 1.4-15.4 5-18.2 7.5-1.2 1-2.3 1.6-7.1 3.2-1 .3-2.1.6-2.6.6s-1.8.4-3 1a26 26 0 0 1-3.5 1.3c-.7.2-1.7.6-2 1l-1.2.6a78.7 78.7 0 0 1-6.3 2.5 42.2 42.2 0 0 1-7 3l-2.7 1.3c-1 .4-2 .8-2 1l-.6.2c-.2 0-1.4.4-2.6 1a38.5 38.5 0 0 1-5.7 2.4c-.5.3-1.1.5-1.3.5l-1.2.7a4 4 0 0 1-1.3.7c-.5 0-2.2 1.1-3.3 2.3l-2 1.7-2 2.2c-.5.7-1.6 1.8-2.3 2.3-.7.6-1.5 1.5-1.8 2-.2.5-1.6 2-3 3.5a381.5 381.5 0 0 0-16.2 16.1 76 76 0 0 0-12.3 15.2c-.6 1-.9 2.7-.4 3.2.2.2.5 1.5.7 3 .3 1.6.7 3.3 1 3.8.2.5.5 1.4.5 1.9s.2 1.2.4 1.5c.3.4.6 1 .7 1.5.1.5.3 1 .5 1l.2.7c0 .2.2.9.5 1.3.3.5.7 1.5.8 2.3.2.8.5 1.5.6 1.5l.2.6c0 .3.3 1 .6 1.5l.5 1.5c0 .3.2.6.4.8l.4.6c0 .2.2.8.5 1.3.3.6.5 1.3.5 1.6 0 .3.7 1.3 1.9 2.4 3 3 4 4.4 4.7 5.6.4.7 1.7 2.2 2.9 3.4l2.6 3.1c.2.5.8 1.3 1.2 1.7.8 1 1.7 3.6 1.4 4.5l-1 1.5c-.5.5-1 1.6-1.3 2.5-.6 1.8-2 3.6-4 5-1.1.7-1.3.7-4.7.7-1.9 0-3.5 0-3.6-.2l-2 .2c-1.3.2-1.8.5-2.5 1.2-.4.5-.9.9-1 .9-.2 0-.4 0-.4.2l-1.3 1a38.6 38.6 0 0 0-2.5 2c-.3 0-1.7 1-3 2.3-1.1 1-1.2 1.1-1 1.6.6.8.5 1.3-.2 1.3-.4 0-.7 0-.8-.2l-.4.1c-.3.3-.2.4.5.4.4 0 .8.1.8.3l.4.2c.2 0 .4 0 .4-.2 0-.5 1.8-.3 3 .4l1.5.6c.3 0 .6.2.8.4.4.4 1.8 1 3.6 1.7.5.2.9.5.9.6 0 .1 0 .2.2.2l1 .5c.4.3 1.2.7 1.7.8a4 4 0 0 1 1.4.9l.8.5 2 1 2.3 1.5c1 .3 2 1 3.4 2.3l1.8 1.3 2.3 1.7 3 2.4c1 .6 2.5 2 3.6 3 1 1 2.2 2 2.5 2 .3.1.8.6 1 1.1.3.6.6.9.9.8.2 0 .8.3 1.4.9l1.2 1 1.4.8a35.3 35.3 0 0 1 4 3 17 17 0 0 0 2.7 2 36.3 36.3 0 0 0 6.3 3.2l1.2.8a5 5 0 0 0 1.3.8l2 1.5a25.8 25.8 0 0 0 5.4 3.6c1 .5 2.3.6 3.6.2 1-.3 3.5-.7 6.2-1 5.6-.8 8.3-1.1 9.2-1.4.6-.1 3.4-.3 6.2-.3 5.4 0 7.8.4 11.3 1.7 3 1 3.8.2 1.7-1.8-.9-.7-1.2-1.3-1.2-1.8s-.4-1-1.2-1.8c-.6-.6-1.4-1.7-1.7-2.3l-1.1-1.6a10 10 0 0 1-2.4-3.7c0-.3-.2-.5-.4-.5-.5 0-2.3-2.7-3.1-4.6l-.7-1.1c-.2-.1-.6-.9-1-1.7-1.2-2.7-.4-6 1-3.8l.6 2c0 .7.4 1.6.7 2.1l.5 1.5c0 .2.3.7.7 1 .3.4.7 1 .8 1.4 0 .4.4 1 .7 1.2.3.2.5.6.5.8 0 .2.1.4.3.5.2.2.6.6.8 1.1l1 1.3c.9.7 1.9 2 1.9 2.6 0 .2.3.7.7 1.2l1.5 2.1c.4.8 1 1.6 1.3 2 .3.2 1 1.2 1.5 2.2.5 1 1.1 2 1.4 2.1.3.2 1.4 1.5 2.4 3s2.6 3.5 3.5 4.4c1 1 1.7 1.9 1.7 2 0 .2.3.7.7 1.1 1.4 1.5 2.6 3.2 3 4.1a11.1 11.1 0 0 0 6.6 5l1.9.6c1.3.4 3.3.8 10.4 2 5.2.8 12 1.1 12.9.5zm114.8-23.4c0-1 1.7-3.6 3.8-5.6a28.2 28.2 0 0 1 3.7-3.2l1.4-.7c.7 0-.2 1-3 3.6a43.3 43.3 0 0 0-3.9 4.3c-1.2 1.7-2 2.3-2 1.6zm-6.4-1.2c0-.2.2-.4.3-.5.6-.2 1 .1.9.5-.2.5-1.2.5-1.2 0zm-68.2-2c-.5-.3-.8-1.2-.8-2.2 0-.2.7-1.3 1.7-2.4 1-1.2 2-2.7 2.4-3.4a156 156 0 0 1 6.8-10.4c.6-1.2 2.2-2.6 2.7-2.4.2 0 .4.4.4.8a26 26 0 0 1-3.2 6.5l-1 1.7-1.2 2.1a96.3 96.3 0 0 0-3.7 6c-.7 1.3-2.4 3.3-3 3.7h-1zm70.3 0c0-.4.7-1 1-1 .6 0 .3.7-.3 1-.5.2-.7.2-.7 0zm2-1.7c-.1-.4.3-1 .6-.9.3 0 .2.2 0 .6-.2.3-.4.4-.5.3zm-59.6-5.6c0-.4 0-1 .2-1.3l1-1.7 1.3-2c.4-.3 1-1.2 1.3-1.8a323.6 323.6 0 0 0 6.6-13.7c.4-1.4 3-6.6 3.5-6.8.8-.4 1.6-.4 1.7 0 .2.6-.1 2-.8 3.3l-.6 1.4c0 .2-.1.7-.3 1l-1 2.2c-.3 1-.9 2.2-1.3 2.7-.5.6-.8 1.2-.8 1.3l-1 2.3-3 5.7c-1 2-2.5 4.7-3.4 6-1.4 1.8-1.7 2.1-2.4 2.1-.6 0-.8-.1-1-.7zm11.4-2.8c-.5-.6.2-1.7 1.6-2.9a25.4 25.4 0 0 0 6-7.6c.3-.5.5-1.3.5-1.7 0-.4.1-1 .3-1.2 1-1.9 2-5 2.4-8.1.4-3.3 1.3-6.5 2.3-8.6.4-.7 1.6-.7 1.8 0v.8c-.3.4-.8 3.2-1.3 6.6a16 16 0 0 1-.7 3.1c-.1.3-.3 1-.3 1.7 0 1-.5 2.7-1.3 4.6a50.8 50.8 0 0 1-3.4 6.8c-1.2 2.1-3.4 4.6-4.2 4.8-.5 0-1.2.5-1.7 1-1.1.9-1.7 1-2 .7zm-114.3-72.2c-1.5-.3-2-.4-2-.8 0-.3 0-.6.2-.7.2-.2 2.5-.4 5.2-.6a56.5 56.5 0 0 0 11.5-1.5c.7 0 1.4-.2 1.5-.3.2-.2.7-.3 1.2-.3l2.4-.4a45.8 45.8 0 0 1 5.3-1.3l4.3-.8 5.6-1.1c.5-.1.7 0 .9.3.2.7-.4 1-3 1.9l-3.4 1-2.7.5c-.8.1-2 .4-2.5.7l-2 .6-2.6.6c-4.8 1-8 1.6-12 2.1-3.4.4-5 .4-7.9 0zm-31.6-4.4c0-.2.2-.3.3-.2.2 0 .2.3.1.4-.2.4-.4.3-.4-.2zm-3-2.8-2.8-3.4-4.1-4.8c-2.6-2.7-3.1-3.6-2.4-4.4.5-.4.6-.3 1.8 1.2l4 4.2c1.4 1.4 2.8 3 3.1 3.7.3.6 1 1.6 1.6 2.2 1.2 1.3 1.4 2.4.4 2.4-.4 0-1-.4-1.6-1zm15-26.6c-.2-.5.2-.8 2.5-1.5l3-1 1.4-.2c.5 0 1-.1 1.2-.3.4-.4 5.1-1.5 6.7-1.5l3-.4c2-.4 2.9-.2 2.7.6-.1.6-1.2 1-4.2 1.6a352.4 352.4 0 0 0-10.8 2l-3.3.5c-2 .5-2 .5-2.1.2zm118 140h8.2l3.6.2 1-.7c.5-.4 1-1 1-1.2 0-.2 0-.5.2-.7.7-.6-.2-.9-2.4-.8-4.3.3-7.6.7-8.5 1-.8.2-2.2.3-6.6.7-2 .1-5.8.6-6.4.8-.2 0-.5.2-.5.4 0 .3 1.2.4 3.7.3h6.8zm19.8-1c3.1-1.1 3.7-1.6 3.7-2.8v-.8l-1.5.1c-1.5.1-3.3.8-3.3 1.2 0 .1-.3.4-.6.5-.4.2-.9.6-1.1 1-.5.7-.5.7 0 1 .6.6.5.6 2.8-.2zm19.1-40c.9-.6.9-1.8 0-3.1-.4-.7-.8-1.2-1-1.1-.1 0-.4.9-.5 1.9-.3 1.6-.3 1.9 0 2.3.5.5.9.5 1.5 0zm10.5-29c1.5-.3 1.8-.4 3.1-1.8 1.5-1.5 2.7-3.7 3.3-5.8l.5-1.5.8-2 .8-2 1.7-3c3.7-7.5 4-8 7.2-11.2l2.4-2.7 1.7-1.5a13 13 0 0 0 2-1.5c.2-.3.6-.5.8-.5.1 0 .8-.4 1.4-1l1.3-.9c.2 0 .5-.4.7-.8.2-.5.9-1.3 1.4-2 .5-.5 1.2-1.6 1.5-2.2l1.3-2.4c.5-.6 1-1.7 1.3-2.4 1.2-2.9 2.3-4.8 3.9-6.3l.9-1.3 1-1.3a42.3 42.3 0 0 1 3.1-3.7c1-1 1.3-1.6 1.3-2-.2-.9-2-.7-4.1.4-1.2.7-2.4 1-3.4 1.1l-2.1.4c-2 .8-4.1 1.2-7.5 1.3a26.4 26.4 0 0 0-6.2.8c-3 .4-5.2 1-7 1.8-2.3 1-2 1.6 1 1.4 1 0 1.3 0 1.7.7.6.8.3 1.8-.6 2.4-.7.5-2.6.8-8.4 1.5-1.7.2-3.2.5-3.5.7l-1.5.3c-1 0-4.1 1-4.6 1.4-.2.2-.2.4 0 .7.2.5 5 .4 9.4-.1 3.8-.5 5.4-.5 6.4 0 1.8.9.4 3-3 4.5a50.2 50.2 0 0 1-12.5 3c-1.4 0-2.6.3-2.8.4-.2.2-.2.6 0 1.4.3 1 .3 1.1 1.4 1.1.6 0 1.6-.1 2.2-.3a13.9 13.9 0 0 1 6.7.8c.6 0 1.1.7 1.1 1.6a17 17 0 0 1-3.4 5.4c-3 3.7-2.9 3.1-2 6.6a26 26 0 0 1-.8 11.8c-.7 2.7-.7 2.7-1.4 3.6-1.2 1.3-1.7 3.8-1.1 5 .3.5.3.5 2.6.1zM331 363c.5-.4.6-.5.2-.5l-1.4-.4c-.6-.3-1-.4-1.3-.2-.5.3-.5.3.2 1 .8.8 1.5.8 2.3.1zm-28.4-38.7c.3-.4.3-.4-.6-.4-.8 0-.9 0-.6.4.5.5.7.5 1.2 0zm-20.3-9a356.8 356.8 0 0 1 11.7-.5l5.1-.5 5.8-.7 6.5-1.1a61.4 61.4 0 0 0 14.6-3.6l2.5-.7a12 12 0 0 1 2.4-.5c1.1-.1 2.5-.6 4.3-1.4 6.6-3 7.6-3.5 8.5-3.7.8-.2 1.7-.6 4-1.9 1.4-.8 4-2 4.2-2 .4 0 2.8-2.2 5.7-5.3a114.5 114.5 0 0 1 6-6c3.8-3.9 5.2-5.7 5.2-6.7 0-.3.4-1.3.9-2 .7-1.4.8-1.8.8-3.7 0-2-.1-2.3-.7-3a52.3 52.3 0 0 0-5.2-6 10 10 0 0 0-2.4-1.6c-.8-.4-2.1-1.2-3-2-.7-.6-2-1.4-2.6-1.6l-2.6-1c-.7-.5-1.5-.8-1.7-.8-.2 0-.4 0-.4-.2 0-.3-.6-.5-1.9-.8-1.3-.3-2.6-.9-3.7-1.5a4 4 0 0 0-1.3-.6l-.7-.2c-.2-.3-3.1-1.2-6.1-2-1-.3-1.7-.7-1.8-.8l-.8-.2c-.3 0-1.3-.4-2.3-1l-2.2-.9a90.4 90.4 0 0 0-6.2-1.7 69.9 69.9 0 0 1-6.2-1.7l-2.4-.4a68.8 68.8 0 0 0-18.3-3.3c-3.9-.6-5.4-.4-8.2 1.3-2 1.3-2 1.2-2.3 4-.1 1.4-.1 1.6.5 2 .8.7 2.7.6 6.1-.2 2.6-.6 7.7-.7 10-.1 3.3.7 7.7 2.6 13.7 5.8 1.2.7 3 1.4 3.8 1.6a130.5 130.5 0 0 1 16.4 4.7 22 22 0 0 1 6.7 3.2c.4.4 1.1.9 1.6 1.1l1.5 1 1 .5c.3 0 .8.6 1.2 1.3.3.7 1.3 1.9 2.2 2.7 1.6 1.5 2.3 2.8 2.3 4 0 .3.3 1 .6 1.4.4.7.5 1.1.3 1.9l-.2 1.5-.5 1.7-.7 2.4c-.2.6-.6 1.4-1 1.8-1 1-2.7 3.1-2.7 3.5 0 .1.4.3 1 .3.8 0 1.2.4.9 1-.3.3-2.2 1.3-3.2 1.5-.5 0-1.7.5-2.5.9-.9.4-2.2.9-3 1-1.7.5-2.7 1-2.7 1.5 0 .6-.7 1.6-1.5 2.1-.8.6-3.2 1.2-5.4 1.5l-3.4.6-6.3 1.8a54.6 54.6 0 0 1-12.5 2.9l-2.7.5c-.5.2-1.4.3-2 .3-.6 0-1.7.2-2.3.4l-3.3.6-2.8.5-1.2.3-3.4.1c-1.7.1-5.5.3-8.4.3-8.9.2-13.4.7-14 1.7 0 .2.2 1 .7 1.8.5.9.8 1.7.8 1.9 0 .1.3.5.7.8.6.5.9.6 2.7.4l5.8-.3zm2.5-9.7 11-1c1 0 2.2-.2 2.6-.3a139.2 139.2 0 0 0 13.7-2.4l1.6-.9c.5-.3 1.7-.8 2.5-1 .8-.1 1.6-.4 1.7-.5l2-.5 11-2.7a10 10 0 0 0 2.3-1c3-2 7.4-4.2 8.3-4.2.7 0 1.1-.4 2.4-1.8a14 14 0 0 0 1.9-2.7c.2-.5.7-1 1.1-1.4 1-.6 1.4-2.1 1-3.3-.2-.8-3.6-5-6-7.4-2.1-2.2-4-3.5-4.6-3.5-.4 0-3-1.7-3.4-2.3-.5-.6-2.3-1.7-4.3-2.8-1-.5-2-1.1-2.1-1.4-.3-.5-2-1.5-2.6-1.5l-2-1a8 8 0 0 0-1.8-1.1 71.8 71.8 0 0 0-15.4-7.8 18 18 0 0 0-8.6-.5 63 63 0 0 1-6.7.6l-4 .2-.6 1.2c-.4 1-.8 1.3-1.5 1.5-.5.2-1.2.7-1.5 1.2-.8 1-1 1.2-1.6 1-.3-.2-.4-.8-.5-2-.2-2 .3-2.8 2-2.8.9 0 1 0 1-.8 0-.5.2-1.1.7-1.7 1-1.2 1.4-2 1.2-3.4a7.3 7.3 0 0 0-2-4 5.7 5.7 0 0 1-1.2-2.1c0-.5-.4-1.2-.7-1.4-.7-.7-.6-1.7.5-3.3 1.5-2 2.3-2.7 3.8-3.2.7-.3 1.9-1 2.6-1.6.6-.6 1.8-1.4 2.6-1.8.7-.4 2-1.4 2.6-2.1 1.1-1.3 1.3-1.4 2.2-1.2 1 .1 1 .1.6-.8-.5-1.2 0-2.6 1.2-3.1 1-.5 1.3-1.2 1.1-3.4 0-1.2-.2-1.7-.8-2.3l-1-1.6c-.1-.5-.8-1.4-1.5-2-1.2-1.2-1.2-1.4-.7-2.6.1-.4 0-.5-.3-.5-.7 0-2 1-4.2 3-1 1-2 1.7-2.9 2-1.8.6-2.4 1.4-2.2 3.2.2 1.5.2 1.5-1 2.6l-1.8 1.9c-.8.8-3 1.7-3.7 1.5l-.7-.8c-.2-.6-.2-.8.9-2 1-1.2 2.3-3.5 2.6-4.8a4 4 0 0 1 1.1-1.6c1.1-1 1.2-1.6.2-2.1-.8-.4-1.3-1.6-1.4-3.2 0-.6-.1-1.2-.3-1.5-.2-.4-.2-.6.1-1.1.6-1 1.1-4.5 1-7.5v-2.7l1-1.4 1.8-2.8c1.8-2.8 5.6-7 6.3-7 1 0 .5 1.5-1.2 3.4l-1.4 2c-.2.5-1 1.6-1.7 2.4-1.3 1.5-2 3.3-1.7 3.9l.8.5c1 .4 1 .8 0 2.8a13.4 13.4 0 0 0-1.7 5.5c0 .7.1.8 1 .7 1.3 0 2.2-.8 2.4-2.2.2-1 1.2-2.3 2-2.3a5 5 0 0 0 1.2-1c1.1-1 1.7-1 2.7-.1.3.3 1.2.5 2.2.6 1.6.1 3.8 1 4.6 2 .3.2.5.9.5 1.4.1.8 0 .9-.6 1-.5 0-1.2-.3-2.4-1-1.8-1.2-2.6-1.3-5-.8-1.6.4-2.1.8-2 1.5 0 .4.5.5 2.3.6l3.2.4c1.1.4 3.4 1.8 3.6 2.4.2.4 2 1.4 2.7 1.4.2 0 .3-.1.3-.3 0-.2.2-.7.5-1 .6-.8 1-3.3.6-3.8l-.4-1.8a5.7 5.7 0 0 0-1-3c-1.4-2-2.3-2.7-4.3-3-1.9-.3-2.6-.2-3.4.7l-1.3 1c-.7.3-.8.3-1 0 0-.3.4-.9 1.1-1.7l1.3-1.2 2.5-.1c2.5-.1 2.5-.1 3.9.8.8.5 1.9 1.5 2.5 2.2 1.6 1.7 2.3 1.6 3.9-.8 1-1.5 1.2-2.5 1.3-7.6 0-5 0-4.8-1.3-10.4l-.6-2.8c-.5-3-1.2-3.2-5.4-1l-4.3 2.2-2.2 1.4c-.6.5-1.3.9-1.5.9-.2 0-.5.1-.7.4l-1.4 1c-.6.2-1.5.8-1.9 1.3a14.9 14.9 0 0 1-6.5 4.3l-.6.4-1 .6c-.5.4-1 .7-1.2.7l-.8.5c-.9.8-1.6 1.1-1.7.7-.2-.5 0-.6 1.7-2a53.8 53.8 0 0 0 5.8-4.9c1.2-.8 2.3-3 2.3-4.1 0-.5.2-1 .3-1.4.2-.3.4-1.1.4-1.8 0-1.6 1-3 3-4.5 4.8-3.9 4.5-3.6 4.5-5.1 0-3.6-.6-5-1.8-4-3.2 3-3.2 3-3.2 5 0 1.5-.5 2.2-3.7 5.4l-1.8 2c0 .2-.5.5-1 .7-.5.1-.9.4-.9.5 0 .2-.2.3-.4.3-.8 0-3 1.3-3.2 1.9 0 .3-.4.9-.8 1.2-.3.3-.8 1-1 1.5-.2.5-.6 1-.7 1l-.8 1.4c-.3.6-.6 1.2-.8 1.3a5 5 0 0 0-1 2.2c0 .3-.3.8-1.8 4-.4.8-1.1 2-1.6 2.5a5 5 0 0 0-.9 1.3l-.7 1c-.8 1-1.4 2.3-1.4 3.4 0 .3-.2 1.4-.5 2.3-.5 1.6-1 3.4-1.3 5.7-.3 1.7-2 3.8-3.8 4.4-1 .5-2.9-.2-4-1.4-1-1.2-2.2-1.8-3.1-1.7-.6.1-.6.3-.6 1.3.1 2.1 1.2 6.2 2.2 8.5a17 17 0 0 1 1 2.7l1 2.3c.6 1.1 1.2 2.7 1.4 3.6.2.9.7 2.3 1.1 3.2l1 2.3c.3 1.3 1.4 1.8 3.8 2l3.4.4c1.3.2 1.3.2 1.5-.6 0-.6.3-.8.6-.8 1 0 1.3.3 1.3 1 0 .5-.2.7-1 1-.9.4-1 .6-1.1 1.2 0 .7-.4 1-1.5 1.7-1.6.9-2 1.3-1.8 2.1.3.9-.5 1.4-2.3 1.6-2 .2-3.2 0-4.1-.6-.8-.5-.7-.8.2-2.2a7 7 0 0 0 .8-1.4c0-.3-1.1-.2-1.9.2-.8.5-1.7.5-2 0-.9-1-2.2.2-2.2 1.8 0 .4-.2 1-.6 1.4-.7.9-.5 2.4.4 4.4 1 2.3 1.3 2.8 1.3 3.9 0 1-.3 1.3-1 1.3-.2 0-.6-.5-1.1-1.3-.8-1.2-1-1.3-2.2-1.4-1 0-1.5-.3-1.8-.7l-1.4-1.7c-.5-.6-1.4-2.1-2-3.3-.6-1.3-1.2-2.4-1.4-2.5a17 17 0 0 0-2.4-1.1c-1.2-.5-2.4-1.1-2.7-1.4l-2.2-1.7c-1.7-1.1-1.7-1.1-4-1.1-1.3 0-3 .1-4 .3-3 .7-7.2-.4-8.4-2.2-1.3-2-9-3.5-14.6-2.8a50.5 50.5 0 0 0-10.6 2.2c-1 0-2.3.4-6.2 2.3-3 1.4-3.6 1.8-3.6 2.3.1.5.3.7 1.8 1.3 1.5.6 3.3 1.7 4 2.4.2.3 1.1 1 1.9 1.3l2.6 1.7a122.2 122.2 0 0 0 9.2 6 33.3 33.3 0 0 1 7 4.7c2 1.3 6.2 5.2 6.5 6 .1.3 1.5 1.9 3 3.6a35.1 35.1 0 0 1 4.3 5.7c.3.2.8 1 1.1 1.7.4.7 1 1.7 1.5 2.2a9.4 9.4 0 0 1 1.6 2.3l1 1.3c.3.3.8 1 1 1.7.4.6 1.1 1.7 1.8 2.5.6.7 1.2 1.5 1.2 1.8 0 .2.5 1.1 1.2 1.9.7.8 1.6 2 1.9 2.6.8 1.6 1.7 2.4 3.7 3.1 1 .4 2.5 1.3 3.4 2a73.1 73.1 0 0 0 8.4 6c.3.5 2.2 1.5 2.9 1.6 1 0 2.4.6 3.9 1.7 1.8 1.3 2.7 1.6 6.3 2 3.1.5 12 .5 15.2.2zm21.9-7.9c0-.5 2-1.7 2.8-1.6.8.2.7 1-.3 1.6-1.1.7-2.5.7-2.5 0zm-10.6-.9c-.4-.4.1-1 1.1-1 .5 0 1-.2 1.4-.4.2-.2.7-.4 1-.4.4 0 .7 0 .8-.2.1-.2.5-.3.8-.3.4 0 1.3-.6 2.5-1.8 1.7-1.8 3-2.4 3-1.6 0 .4-3.5 4-3.9 4a8 8 0 0 0-1.6.6c-1.3.7-3.6 1.4-4.4 1.4-.2 0-.5 0-.7-.3zm-4.9-2.6c-.5-.3-.6-1.3-.1-2.1.1-.3 1-1 2.1-1.4 2.9-1.4 4.3-2.5 5.2-3.7.9-1.3 1.2-1.6 1.5-1.2.4.4-.3 2.3-1 2.8-.4.3-.6.6-.5.7.3.2 3-.7 3-1 0-.2.6-.9 1.3-1.6.7-.7 1.3-1.4 1.3-1.6 0-.3.7-1 1-.9.3.5.3 1.3-.2 1.8-.3.3-.5.6-.5.8 0 .5-3.4 3.5-4.6 4l-2.8 1.5c-1.5 1-4.1 2.2-4.8 2.2l-.9-.3zm33.9-.4c-.4-.4-.2-.5 1.2-1 4.1-1.4 8.4-4 8.4-5.2 0-1-1-.8-2.8.4-1.9 1.2-2.7 1.5-3.2.9-.3-.3 0-1 .9-3a56 56 0 0 0 1.6-3.8c.9-2.6.7-2.4 2.1-2.4 2 0 2.7 1 2.7 3.5 0 1 .2 1.5.8 2.2 1.6 1.9.6 4.7-2 5.5l-2 1c-.6.4-1.6.9-2.2 1l-1.9.7c-.8.4-3.3.5-3.6.2zm-15.5-3.7c-.3-.3-.2-.6.7-1.6.6-.6 1.3-1.6 1.5-2.1.8-1.7 2-2.7 3-2.7.7 0 1.2.1 1.4.4 1.4 1.6.5 3.7-1.9 4.4a6 6 0 0 0-1.7 1c-1.2 1-2.5 1.3-3 .6zm-17.3-16.4c-.3-.3-.4-.6-.2-1.1.3-1.2 1.3-3 1.7-3.1.2-.1.5-.6.7-1 .4-.9 2.4-3 2.8-2.8.5.2-.2 1.7-1.2 2.5-.8.6-1.2 1.2-1.9 3.2-1 2.6-1.3 3-2 2.3zm8.8-1.6c-.1-1.6 0-3.7.3-4 .3-.3.4-.2.7.3.4.8.7 2.4.5 3.3-.2.7-.4.8-.9.8-.4 0-.6-.1-.6-.4zm7.6-3.1a6 6 0 0 1-.7-1.9l-.4-2c-.3-1 .3-1.7.8-1.3.5.5 1 2.4.8 4.2 0 1.5 0 1.6-.5 1zm-24.2-1.4c-.4-.3 1.2-2.6 2.5-3.8l1.5-1.3c.8-.7 3.3-1.9 3.5-1.6 0 0 .3 0 .4-.3.3-.6 2.3-1.2 2.7-.8.3.4-.5 1-1.6 1.2-.5.1-1.2.5-1.5.8l-2.2 1.7c-1 .6-2.2 1.9-3 2.7-1.3 1.6-1.7 1.8-2.3 1.4zm-32-3.5c.3-.2 1-4 1-5.5 0-1 .6-1.7.9-.9.2.8-.1 4.2-.4 4.4-.2 0-.3.4-.3.7 0 .3 0 .5-.2.5s-.3.2-.3.5-.2.5-.5.5c-.2 0-.3 0-.1-.2zm21.3-3.7c-.3-.2-.4-.9-.4-2.7l-.2-4.6c-.2-1.8-.1-2.2.2-2.3.7-.3 1.2.5 1.2 1.7s.4 2 1 2c.7 0 2.5-3 2.5-4.5 0-1 1.7-1.7 2.3-.9.6.6-.8 5.5-2 7.2l-1.1 2.1c-.2.5-.8 1.2-1.4 1.6-1 .7-1.4.8-2 .4zm-30-1.3-.7-1.4c-.2-.5-1.4-2-2.6-3.2-1.8-1.8-2.5-2.3-3.3-2.6-.7-.1-1.5-.4-1.9-.6l-.7-.4.7-.3c.5-.3 1-.2 3.2.9 2.6 1.3 4 2.5 4.9 4.4.5 1.1 1.3 2 1.8 2l.7.5c.3.3.4.5.1.8-.4.5-1.6.5-2.1 0zm5-1.2-.6-1.8-.4-1.4c-.1-.4 0-.7.2-.8.6-.2 1.2.5 1.2 1.3 0 .3.2.8.4 1 .5.8.5 2.2 0 2.4-.2.1-.5-.1-.8-.7zm15-4.8c0-.5 0-1 .7-3l.8-2.4c.5-1.4 1.6-2.7 2.4-2.7.5 0 .6.2.6 1.2l.2 1.3c.2.1.9-.1 1.6-.5.7-.3 1.5-.7 1.8-.7 1.4 0 2.8 1.4 2.3 2.2l-1.2.8c-.6.3-1.1.7-1.2.9 0 .2-.4.4-.7.5-.3.1-.8.4-1 .7a8 8 0 0 1-2.2.9c-.9.2-1.8.6-2.1.8-.7.5-1.7.5-2 0zm11-19.2c-.7-.8-.7-.8-.3-1.3.3-.3.8-.5 1.2-.5 1 0 1.6.6 1.5 1.6 0 1.3-1.2 1.3-2.3.2zm2.3-5.8c-1.1-1-1-1.3 1.2-2.3 1.4-.6 1.4-.6 2.6-.2 1 .4 1.1.6 1.1 1.2 0 .9-.2 1-2 1.7-1.7.5-2 .5-3-.4zm-13-4.5c-.2-2.2.4-5 1-5 .2 0 .3.2.2 1.2a11 11 0 0 1-.9 3.8l-.3.7zm7.9-10.8c0-.3.6-2 .9-2.4.2-.3.3-.3.4 0 .4.6.3 1-.5 1.8-.5.5-.8.8-.8.6zm1.6-4c0-.2 0-.3.2 0v.4c-.1.1-.2 0-.2-.3zm87.3 50.9c.5-.4.7-3.1 1-10.6 0-2.3.2-4.6.3-5.1.4-1.4.3-4.5-.1-7.6-.7-4.3-.6-4.2-2.5-3.2-.6.3-1.1.5-1.2.4l-.4-1.5c0-1 0-1.6.6-2.8l.7-1.5-1.4-2.8c-.7-1.6-1.6-3.2-2-3.7-.3-.4-1.2-1.7-1.9-3l-1.8-2.7a13 13 0 0 1-1.3-2.2l-1.1-1.8c-.2-.1-.4-.6-.5-1.2a13 13 0 0 0-1.2-2.4c-1-1.6-1.4-2.8-1.8-4.2 0-.6-.4-1.6-.7-2.4-.7-1.7-.7-2.3-.2-2.5.3-.1.6.2 1 .9l.5 1.3a81.8 81.8 0 0 0 6 12.3l2 3.3c0 .1.3.7.8 1.3l2 2.8c1.4 2 2 2.2 2 .5a5356.8 5356.8 0 0 1-.9-14.1l-.7-3.2a62.5 62.5 0 0 0-1.6-6.7c-.5-2.1-1.2-4.4-1.5-5.2-.4-.9-.7-2-1.3-4.2-.8-3-1.1-3.9-2.3-6.2a48 48 0 0 1-2-4.8c-.9-2.3-1-3-1.1-5.8-.1-2.6-.3-3.3-.6-3.7-.3-.3-1-1.6-1.6-2.8-.6-1.2-1.2-2.4-1.4-2.5l-.2-.8c0-.3-.7-1.4-1.5-2.5l-2.2-3.4-1.6-2.2c-.5-.4-.8-1-.8-1.2 0-.8-4.5-5.1-5.4-5.1-.1 0-.1.7 0 1.6l.2 1.7-.6-.7c-.3-.4-.9-1-1.2-1.6-1-1.6-3.4-3.6-4.6-4-1.9-.7-8.5-1.3-11.4-1.1-4.7.2-8.8 1.7-9.7 3.2-.2.4-.5 1-.7 1.1-.3.2-.6.8-.7 1.4-.3 1-.4 1-1.2 1a4 4 0 0 1-1.7-.5c-1.2-.8-1.5-.7-2.4.5-.5.6-1.2 1.2-1.6 1.3-.6.3-.8.6-.8 1 0 1 .6 1.2 2.7 1.2l6.6-.1 4.6-.1 1.6-.9c1.7-1 4.3-1.9 4.8-1.7.6.3 0 .8-1 1.2-1.8.5-3.2 1.3-3.2 1.7 0 .5.8.9 3 1.5 2.6.7 6.4 2.2 8.5 3.3a51.8 51.8 0 0 1 13.3 10.4c.2.5.8 1.5 1.3 2.1l1.3 2.2.7 1c.4.3 1.2 2.3 1.4 3.4l.6 2c.4.8.4 1 .1 1.3-.3.4-.4.4-.7-.1l-.3-1.1c0-.3-.2-.5-.3-.5a22.6 22.6 0 0 0-4.8-9c-.2-.5-1.2-1.6-2.2-2.5-1-1-1.8-1.8-1.8-2l-.4-.4c-.3 0-.8-.4-1.2-.7-.3-.4-1-.9-1.6-1.1-.4-.3-1.3-.8-1.8-1.3a48.2 48.2 0 0 0-10.7-4.8 19.7 19.7 0 0 0-7.8-1.7c-1.5.1-2 .2-2.6.8-.5.4-1 .8-1.2.8-1.2 0-5.5 3.2-5.5 4.1 0 1 3 3.3 4.3 3.3.3 0 1 .2 1.4.5l2.6 1c1 .3 2 .9 2.3 1.3l1.3 1 1.6.8c1.4.7 3.5.8 4.7.2 1.3-.7 1.7-.7 1.7-.3 0 .4-.7 1-1.5 1.3-1 .4-.8 1 .6 1.9 2.7 1.8 5.6 4.5 7.8 7.2l2.6 3 1.5 1.7c0 .3.2.5.4.5 0 0 .3.2.4.5 0 .3.6 1 1.2 1.7.5.6 1 1.2 1 1.4 0 .3 2.3 2.5 2.6 2.5.5 0 1.5 1.8 2 3.4l.8 2.4c.9 2.3 1.5 5.3 2 8.3 0 1 .6 10.2.5 10.4l.3 1.5c.4 1.3 1 1.6 1.1.6 0-.4.3-.6.6-.6.9 0 1.4 2.4 1.9 9.3 0 1.1.3 2.8.5 3.7l.5 4.1c0 1.4.2 2.7.3 3l.5 3.2a69.4 69.4 0 0 0 1.5 12c.2 2.2.6 3.6 1 4.2.5.5 4.1 2.3 5 2.5a7 7 0 0 1 1.8 1c1.8 1.1 3.1 1.3 4.1.4zm-43.1-109.8.6-.6c.4-.5 4.6-1.7 7-2 1.3-.2 1.4-.2 1 .2l-.7.4a31 31 0 0 1-4.4 1.5c-1.3.4-4.3.8-3.5.5zm28.5 103.8c.4-.4.4-2.2-.1-3.8-.7-2.3-1.7-11.1-2.2-20.9-.5-8-.9-11.2-1.3-11.2-.6 0-.8 8.7-.3 10.7l.4 9.3a112.8 112.8 0 0 0 .7 13v2l1.1.6c1.3.7 1.3.7 1.7.3zm-5.3-2.8c.1-1.5-.3-2-1-1.2-.7.5-.7 1.8 0 2.2.7.4 1 .2 1-1zm-4-.9.5-2.7c.3-1.2.4-2.6.3-3.3-.3-2-.6-3.6-.9-4-.2-.5-.3-.4-.7.5-.5 1-.5 1.2-.2 1.8.3.5.3.9 0 2.1l-.6 3.3c-.2 1.6-.2 1.9.2 2.4.7.7 1.5.6 1.5 0zm-3.8-.8c.4-.4.7-3.4.8-12.2.2-5.5.3-6.3.8-6.3s.8 1.5 1.1 5.5c.2 2.3.8 3.1 1 1.4.1-.6.4-1 .5-1 .5 0 1.8 2.7 1.8 3.8 0 .5.2 1.1.5 1.5.3.3.5.9.6 1.1.2 1 .6-3.5.4-5a220 220 0 0 1-.6-17.4 83.4 83.4 0 0 0-1.8-22.3 8.8 8.8 0 0 0-1.5-3.5l-.5-1c0-.3-.4-1-1-1.4a4 4 0 0 1-.9-1.2c0-.5-1-2.2-1.8-3a20.9 20.9 0 0 1-2.7-3.2l-1.1-1.5a94.8 94.8 0 0 0-10.9-10.2c-1.5-1.4-3-1.7-4.6-1.1a9.7 9.7 0 0 0-3.9 2.3c-.5.7-.5 2.4 0 3.4l.4 1.3.6 1.9c.6 1.3 1.3 4.6 1.2 6v2.5c.1 1.7 0 3.1-1 9.8a8 8 0 0 1-1.3 3.8l-.8 1.9-1.2 2.2-.8 1.6c0 .4-.3 1-.5 1.2-.5.6-2.3 4-2.3 4.4 0 .1-.3.8-.7 1.3-1.6 2.2-2 3.1-1.7 4.5.4 1.7 0 3.7-.8 4.1-.8.4-1 .8-1 1.7 0 .6-.2 1-.9 1.6l-1.7 2.1c-1.1 1.6-1.2 1.7-2.9 2-1 .2-1.5.5-2 1.2-.8 1-2.3 5.5-2.2 6.3 0 .7 1.9 1.2 7 1.8a25.7 25.7 0 0 1 5.4 1l3.8.9a520.1 520.1 0 0 0 15.8 3.6c.6 0 1.3-1 1.3-2l.6-3a9 9 0 0 0 .6-2 26.2 26.2 0 0 1 2.5-8l.5-.9.4-.6.2.6c.3.8 0 2.5-.6 4.8-1.1 4-1.9 8-2 10v2l1.5.3 3.4 1c2.4.8 2.4.8 3 .4zm-15.6-11c-.4-.5-.4-.6 0-1.8.6-1.5 3.7-6.8 4.5-7.8 1-1.1 4.8-7 6-9.4.6-1 1.7-2.2 2-2.2.8 0 .3 1.8-1 4-.8 1.4-1.9 3.4-2.4 4.6a28 28 0 0 1-2.3 3.7 39 39 0 0 0-3.6 6c-1.5 3-2.4 3.7-3.2 2.9zm-10.4-3.5c0-.6 1.1-3.2 1.8-4.2.3-.4.6-1.2.8-1.7a7.5 7.5 0 0 1 2.4-3.8c1.5-1 3.1-4.2 4.4-8.7.2-.7.5-1.4.7-1.6l.2-.7c0-.3.2-.9.5-1.3.3-.3.5-.8.6-1 0-.6.6-1.6 1.2-1.8.5-.2.6-.2.6 0 .2 1.3-.7 4.7-1.6 6.6l-1.3 3.3c-.3.9-.8 2-1.2 2.6a8 8 0 0 0-1 2c-.1.5-.7 1.4-1.5 2.1-1 .9-1.6 2-2.7 4.1-2 4.1-2.3 4.6-3.2 4.6-.6 0-.7 0-.7-.5zm8.5-1c0-.2 0-.8.2-1.4.4-1.5 2.3-5.3 2.9-6a68.2 68.2 0 0 0 6.6-14.6c.3-.8.6-2 .6-2.8 0-1.8.4-3 1-3 .7 0 1 1 .7 2.8a36.3 36.3 0 0 1-4.2 12.6 38.4 38.4 0 0 1-3.6 7.5c-.5 1.3-3 4.8-3.6 5.2-.3.1-.4 0-.6-.2zm-9.3-6.6c-.5-.4-.6-.6-.5-1.9l.6-2.7 1.7-5.4c.5-2 1.1-2.6 1.8-2 .3.4.3.6 0 2.2-.2.9-.6 2.3-1 3.1-1.2 3.3-1.8 5.4-1.5 5.9.5 1-.1 1.5-1.1.8zm62.3 19.8a49.6 49.6 0 0 0 5.4-10c.3-.3.7-1 .8-1.5l.9-1.8 1-2.1c.4-1.2.8-1.9 2.4-3.8a20 20 0 0 0 1.9-4.3c.6-1.9 1.3-3.7 1.5-4 .3-.6 1.3-3.9 1.6-5.5.1-.6.5-1.8.9-2.6a8 8 0 0 0 .7-2.2 144.3 144.3 0 0 0 3.2-13c1-3 1-3.3 1-4.3a39.2 39.2 0 0 0 1-5.8c.1-1.6.4-3.8.6-4.7.7-4.5 1-9.7 1-13a158 158 0 0 0-1.5-16c-.2-2-1.8-8.4-2.7-11.7l-1.5-3.7-.9-2.2-.5-1.3-1.3-2.8c-.5-1-1.3-2.4-1.8-3l-1.4-2c-.6-1-2.2-2.8-2.7-2.8-.3 0-.5.2-.5.5a34.2 34.2 0 0 0 4 9.2l2.1 5.8a34.8 34.8 0 0 1 2 7.2c.2.4 1.5 5.4 1.5 5.8 0 .4 1.1 3.6 1.6 4.4a140.8 140.8 0 0 0-.1 12 76.8 76.8 0 0 1-2 20.4l-1.4 6.5a348.2 348.2 0 0 0-2.4 9.3c-1 3.7-2.5 8.4-3.3 10a48 48 0 0 0-3.1 8.3 835.8 835.8 0 0 0-4 8.2 49 49 0 0 1-5 10.7l-1.8 2.6.1 2.8c.2 3.4.1 3 .5 3 .2 0 1.2-1.2 2.2-2.6zm-115.2-.7-1.1-5.2c-.2-.6-.2-1.4-.1-1.7.1-.5.3-.6 1.1-.6 1.7 0 2-.6 1-3-1-2.6 1.7-3 3.8-.6 1 1 1.4 1.1 1.8.6.4-.5-.5-4.1-1.2-4.8-.5-.4-1-.6-3-.7-1.8 0-2.4-.2-2.9-.7-1.2-1.1-2.6-4.9-2.9-8.4-.3-3-.6-3.6-1.9-4.3-.5-.2-1.5-1.1-2.3-2l-1.5-1.6-1.9-.1c-3-.2-3.8.3-3.3 1.8.2.5.1.9-.6 1.8-2.4 3.5-2.6 4.5-1.4 6.2.5.8 1 1.3 1.5 1.4.4 0 1.3.6 2 1.2l1.9 1.3c.4.3 1.7 1.4 2.8 2.6 1.6 1.7 2.3 2.7 3.3 4.6 1.1 2.4 1.2 2.5 1.2 5.1 0 2.2 0 2.8.4 3.3l1.5 2.3c.6 1 1.2 1.6 1.4 1.6l.4-.1zm11.5-7.6c.3-.1.6-.4.6-.6 0-.5-.2-.5-1.1.3-.9.7-.6.8.5.3zm-18.2-1.8c-.1-.8-.4-2-.7-2.4-.3-.5-.6-1-.6-1.3 0-.7-3.8-4.5-6.2-6l-2-1.6a14 14 0 0 0-1.8-1.3 9.9 9.9 0 0 1-4.2-3.6c-1.4-1.7-1.4-1.8-2.6-1.8-1.3 0-1.8.1-5.2 1a116.6 116.6 0 0 0-15.4 4c-.8.3-2.5.8-3.7 1-1.1.2-2.6.6-3.2 1l-3 .9a124 124 0 0 0-10 2.7c-1.5.3-3 .8-3.5 1-.5.2-1.7.6-2.8.7l-3 .8-2.8.7a42 42 0 0 0-8.5 2.4l-1.6.4c-1.7.3-3.8 1.2-3.8 1.6 0 .3.2.4 1.2.2.7 0 1.7-.3 2.1-.5l3.3-.7 4.9-.5c2-.2 2.4-.2 3.2.2.8.3 1.9.4 5.5.4 4.2 0 4.6 0 5.3-.5a42.3 42.3 0 0 1 15-5.3c7.1-1.6 17-1 20 1l1.3.6c.3.1.8.5 1 .8.2.4.6.7.8.7l.7.4c.7.8 2.2 1 5 .4 4.6-.9 5.8-.8 8 .5.7.5 1.4.8 1.6.8l1 .5c1 .8 4 2.4 4.5 2.4.3 0 .3-.3.2-1.6zm118.8-1.8 1-1.5 1-1.6c1.1-1.2 1.8-2.3 1.8-3 0-1-.2-1-2.2 0l-2 .8c-.4 0-1 .2-1.4.4-.8.4-.9.5-.7 1.7 0 .6.3 1.8.6 2.6.5 1.6 1 1.8 1.9.6zm-1.1-10.7a18 18 0 0 1 2.2-1.1c1-.4 2.3-1 3-1.5 2.2-1.6 2.5-1.8 3.8-2.4 1.4-.7 1.7-1.2 2.8-4a226.9 226.9 0 0 0 6-18l1.2-4.7 1-4c.7-2 .9-3 1.5-8.8l.4-3.5c.2-1.1-.4-1.4-1.4-.7a6.3 6.3 0 0 1-3.4 1.5c-.5 0-2.1.4-3.5.9a83.2 83.2 0 0 1-7.6 2.4 768.4 768.4 0 0 1-12 3.5c-3.6.7-3.8.8-3.6 1.5l.7 1.8c1 2.4 1.3 3.1 1.3 3.5l.5 1.7a42.6 42.6 0 0 1 2.1 8.7l.7 4.2.9 5c.8 3.8 1.1 7.5 1.1 11.1 0 2.6 0 2.7.6 3 .8.3 1 .3 1.7-.1zm-110.5-3a6 6 0 0 0-.4-2.2c-.4-.9-.9-4.6-.9-7.2 0-1-.1-2-.3-2.5-.4-.8-1.7-1.6-2.1-1.2-.2.1-.4 1.4-.4 2.9-.2 2.8-.2 2.7 1.8 7 .4.8.8 2.1 1 3 .3 1.3.5 1.7.8 1.7.4 0 .5-.2.5-1.5zm-22.2-7.2c0-.2-.1-.3-.3-.4-.1-.1-.3 0-.3.2s.2.4.3.4c.2 0 .3 0 .3-.2zm158.3-1.3 2-1c1-.7 3.5-1.7 4.3-1.8.3 0 .8-.2 1-.5.1-.3.9-.8 1.5-1.1 2.3-1.1 3.4-2.4 4-4l.7-2.9c.6-2 1-7.2 1.4-16.9 0-2.4.2-4.8.4-5.2v-2.1a2739.5 2739.5 0 0 0-.9-5 3 3 0 0 0-.3-1.5c-.4-.5-.5-.5-2.1-.2l-2.5.3c-1.1 0-4.4.9-4.8 1.2-.2.3-.4 1.5-.6 3.6a119.6 119.6 0 0 1-2.6 19c-.3 2.7-.5 3.8-1.5 7.2a121.3 121.3 0 0 0-2 7.8c-.8 2.3-.9 3-.4 3.5.4.5.8.4 2.4-.4zm7.8-1.9c0-.2-.1-.3-.4-.3-.2 0-.4.1-.4.3 0 .1.2.3.4.3.3 0 .4-.2.4-.3zm-175-24.2c.6-.3.5-1.8 0-2.5-.5-.5-.7-.6-2.2-.4-.9 0-1.8.3-2 .5-.7.5-.3 1.5.5 1.5.3 0 .9.2 1.2.5.7.5 1.7.7 2.5.4zm-4.7-4.3c3.7-1.6 3.8-1.7 1.2-5a8.7 8.7 0 0 1-2-2.8c0-1.2-.8-2-2.6-2.3-1.3-.2-1.7-.2-2.4.1-1 .5-6.2 1.9-8.1 2.1l-3.3.7a54.1 54.1 0 0 1-15.5 3.2l-.6.3-4 1.1v.5c.4.4 6.1.6 7.4.2h1.2l5 .4a59.5 59.5 0 0 1 13.6 1.7c1.6.2 4.2.5 5.7.5 2.5 0 3 0 4.4-.7zm75.5-1.7c.3-.3 1-.6 1.3-.7.4 0 1-.5 1.5-.9s1.1-.7 1.3-.7c.4 0 2.3-1.2 4.3-2.6.8-.5.7-1.1-.1-1.3-.8-.2-2.2-1.1-2.6-1.6 0-.2-.4-.5-.7-.6-.7-.4-2.1.4-4 2.2-3.5 3.1-3.7 3.5-3.6 5l.3 1.5c.3.4 1.7.3 2.3-.3zm61.6.2a33.7 33.7 0 0 1 4.8-2c1.3-.4 2.7-1 3.3-1.3l3-1 3.8-1 2.9-1c.6 0 1.7-.4 2.3-.7l3.2-1c1-.2 2.7-.7 3.7-1.2 1.3-.6 2-.7 2.7-.6 1.6.2 1.7-.1 1.6-4.7 0-2.2-.1-4.1-.2-4.2-.3-.5-2.1-.2-4 .6l-2.6.6-2.5.7-1.3.2a5 5 0 0 0-1.8.5l-2.6 1-2.4.8a5 5 0 0 1-1.7.4c-.4 0-.8 0-.8.2s-.1.3-.3.3l-1.1.4c-1.4.7-4 1.2-4.8.9-.8-.4-.6-.6 1.5-1.2.8-.2 1.6-.6 1.8-.8.3-.2 1.2-.5 2-.5l1.9-.4a35.1 35.1 0 0 1 5.9-2c0-.2 1.4-.8 2.8-1.1.5-.1.8-.4.8-.8v-.6l-8.9-.7a59 59 0 0 1-11.3-1.8c-.4.2-1.2-.5-1-.8.3-.4 2-.3 11.6.6a255.7 255.7 0 0 0 16 1l2.7.1v-1.1c0-2.2-.3-2.4-2-2.6-.8-.1-1.8-.4-2.2-.7-1.7-1-4.4-1.7-9.3-2.1a143.2 143.2 0 0 1-19.4-2.2c-.8 0-2.5-.2-3.9-.5-3.3-.7-8.4-1-8.9-.5-.5.4-.4 1.2.3 1.8l1 1.4.8 1.6c.3.5.8 1.2 1 1.8l1.2 1.7c1 1.2 2.4 4 2.9 5.7.2.8.6 1.7 1 2l.6 1c0 .4.5 1.2.9 2 .6 1 .9 1.2 1.5 1.3.6 0 .9.2.9.4l-.2.4c-.2 0-.4.3-.6.6-.3.6-.3 1 0 2 .3 1.1.3 1.6 0 2.3-.2.7-.2 1.2.1 2.4.5 1.5 1.3 2.8 1.9 2.8l1.4-.4zM354 170l-.6-.1.7-.4c.4-.2 1.3-.3 2-.3.5 0 1-.2 1.1-.3.1-.2.8-.4 1.8-.3.6 0 .5.1-.4.4l-1.8.4c-.4 0-.9.2-1.1.4-.4.4-.5.4-1.7.2zm-42.9 1.5c1-.5.8-2-.3-2-.6 0-2.8.8-2.8 1.1l.3.7c.4.6 2 .7 2.8.2zm-24.5-2.3c2-2 2.2-2.4 2.4-4.5.2-1.1.1-1.6-.2-2-.5-.7-.9-.4-1.7 1.5a32 32 0 0 1-1.9 3.3c-1.2 1.9-1.7 3.5-.9 3.5.3 0 1.3-.8 2.3-1.8zm13.7.6c.3-.3.3-.5 0-1.2a3 3 0 0 1-.1-1.6c.2-1-.3-2.3-1-2.3-.5 0-.5 0-.4 1 .1.7 0 1.2-.4 1.8-.6 1.1-.6 1.8.1 2.3.8.5 1.4.5 1.8 0zm96.8-2.2a52 52 0 0 1 5.9-2l4-1c1.7-.3 2-.4 3-1.4 1.5-1.4 1.8-2.2 1.4-3.5-.4-1.2-1.7-2-3.4-2-.7 0-2.6-.1-4.4-.4a156 156 0 0 0-5.8-.9c-2.6-.3-2.6-.3-3.1.3s-.5.9-.3 2.3l.2 5 .2 3.8c.3.4.7.4 2.3-.2zm.9-6.3c-.7-.1-1.2-1-1-1.7.2-.7 1.5-1 3.8-.9 3.8.3 4 .7 1.2 1.8-2 .7-3.1 1-4 .8zm-104.6 2.3c.7-.7 1.3-1.4 1.3-1.6l-.5-1.8c-.5-1.7-.4-2.4.5-2.8.5-.2.6-.4.5-1.5 0-1.9-.2-2.5-1-2.5-.4 0-.8.3-1.2.9-1.9 3-2 3.3-2 4.2.2 5.4.3 6.4.8 6.4a8 8 0 0 0 1.6-1.3zm6.7-5.5.6-.6-1 .1c-1 .3-1.4.5-1.1 1 .3.4.8.3 1.5-.5zm-6.7-19.5c0-.4-.7-.8-1-.6v.6c.3.5 1 .5 1 0zm3.4-1.8c0-1.1 0-2.1-.2-2.3 0-.2-.6-.4-1.1-.4-.8-.2-1-.1-1.2.3-.2.6 1.9 4.9 2.2 4.5l.3-2.1zm-56-8.8c.5-.3.5-.4 0-1.2-.2-.4-.6-.8-.7-.8-.5 0-.7 1-.5 1.8.1.7.5.8 1.3.2zm135.6-8h-.5c-.2.1-.1.2.2.2.3 0 .4 0 .3-.2zm-2.7-3.2-.4-.4c-.1-.2-.2 0-.2.2s.2.4.4.4.3 0 .2-.2zm-6-9.7c-.3-.2-.5-.3-.5-.1 0 .4.7 1 .8.7l-.3-.6zm-.8-1.2c0-.2-.2-.2-.2.1 0 .3 0 .5.2.4v-.5zm-5.1-7c-.2-.6-.9-1.6-1.4-2.2l-4.7-5.5c-.9-1.1-2.1-2.6-3.6-4.1-.3-.3-.6-.4-.7-.4-.5.4-.3 1.1.6 2l1.7 1.9 2.2 2.6c.7.8 1.7 2 2.1 2.7.5.7 1 1.3 1.3 1.4.3.1.6.4.7.7.4.8 1.5 2 1.8 2.1.3 0 .2-.4 0-1.2zm-24.2 333c-.6-.2-.8-.6-.8-1.7 0-1 0-1 1.7-1.8s3.3-1 5.6-.5c.9.1 1.2.4 2 1.6.7 1 1 1.6.9 2-.2.5-1 .5-1.8 0h-2.4c-2.6.5-4.7.6-5.2.5zm62.7-.7-6.6-.1c-5.6 0-6.7-.2-8.2-.6-2-.6-2.4-.9-2.4-1.5s.7-.8 3.1-.8l2-.2c.1-.2.9-.2 1.7-.2l7.2.4c7.5.3 8.8.5 9.7 1.3 1.5 1.4.5 1.9-3.5 1.9-1.6 0-3 0-3-.2zm-21.8-10-5.3-.4c-2.4 0-3.9-.3-5.2-1.2-1-.7-1.2-1.5-.2-2 .9-.4 3.7-.3 5.8.2l3.2.4c1.1 0 1.9 0 2.6.5l1.6.5c.7 0 2.6 1 2.8 1.5.3.6-.4 1.1-1.3 1.1l-4-.5zm11.8-4.2c-1.2-.4-1.4-.6-1.4-1.2 0-.7.2-.8 1.2-1.2l2.2-.8a11 11 0 0 1 8 .8c.8.4 1 .6 1 1.3v.8l-3 .1c-1.6 0-3 .2-3.2.4-.7.4-3.4.3-4.8-.2zm26.3-2c-.4-.2-.9-.7-1.2-1.3l-.6-1 .7-.5c1-1 4-1.2 6.6-.4 2.2.6 3.5 1.6 3 2.4-.1.3-.7.5-2.9.6-1.5 0-3.2.2-3.9.3l-1.7-.1zm144.1-1.4c-.2-.2-.3-.6-.3-1s.1-.6.6-.6c.9 0 1.4.7 1 1.3-.3.6-.9.7-1.3.3zm-491.6-6-1.8-2.3c-.9-1-1-1.5-.2-1.5.1 0 1 .7 1.8 1.5 1.3 1.3 1.5 1.6 1.5 2.5 0 .6-.1 1-.3 1-.1 0-.6-.5-1-1.3zm315.5.3-4-.3c-2.1 0-4-.1-4.1-.2-.4-.2-.3-1.6.1-2 .3-.2.9-.2 1.8-.1a1907.4 1907.4 0 0 0 6.7.9c.4.2 1 .3 1.3.3.9 0 1.2.7.5 1.2-.5.4-2 .5-2.3.2zm-11.1-1.2c-1-.2-2-1.2-2-1.8 0-1 1.9-.8 2.2.3.1.3.3.5.4.5.3 0 .5.7.3 1h-1zm-31.6-2.4c-.6-.3-.7-.6-.6-1.6 0-.8.6-1.2 1.7-1.6 1.7-.6 3.3.2 3.3 1.6 0 .7-.5 1.1-2.1 1.6-1.7.4-1.5.4-2.3 0zm83.2-3.2-1.7-.7c-.5-.5-.3-1.5.4-1.7a252 252 0 0 1 20.7-1c.7.1.4.8-.4.8-.3 0-.8.2-1.1.5-1.2.8-3 1.2-5.8 1.4a6961.2 6961.2 0 0 1-12 .7zm-54-2-.2-1c0-.7.2-1 .7-1.1 1-.4 2.6-.4 3 0 .4.4 2 0 2.8-.6.5-.4 1-.5 3.9-.5 3.6 0 4.2.1 4.2.6s-1.3 1.3-2.4 1.5l-2.1.5a6 6 0 0 1-2 .2h-1.3c-.3.4-6.3.7-6.6.5zm-53-4.2c-2.2-.6-3.2-1.6-2-2a20 20 0 0 1 5.7 0c.7.2 2.3.5 3.7.6 3 .4 3.4.5 3.4 1 0 .7-8.3 1-10.8.4zm20.5-1c-2.2-.3-4-1.8-3.1-2.6.4-.4 2.6-.3 5.7.2l3.8.4c1.3 0 3.5 1 3.5 1.5 0 .2-.3.4-.5.5-.7.3-7.9.4-9.4 0zm27.7-.7c-.2-.7.2-1 2.3-1.8 2-.6 3.9-.7 6.1-.2 1.3.2 1.6.4 1.7 1 .4 1.4 0 1.5-5.1 1.5-4.6 0-4.8 0-5-.5zm100.7-1.6c-1.3-.3-1.5-.4-1.5-1-.1-.7 0-.9.8-1.2 1.6-.7 5.3-.4 5.8.5.3.4.2.6-.4 1.1-.8.8-2.6 1-4.7.6zm-104.7-4c-4-.5-6.6-1.2-6.8-2-.2-.9.6-1.1 3.8-1 1.7.2 3.7.1 5 0 2.8-.4 17.2-.6 21-.3 4.8.4 6.5.8 6.5 1.7 0 .8-1.3.9-14.2 1a289.7 289.7 0 0 0-15.3.5zm-22.6-6.4s-.8-.2-1.7-.2c-1.5-.1-3.3-1.1-3.3-1.9 0-.9.7-1 6.1-.8 6 .2 9 .3 9.4.5.6.2.4 1.1-.3 1.5-.4.1-1.2.3-2 .3-.6 0-2.1.1-3.3.4-2 .3-4.7.5-5 .2zm61.1-4c-3.8-.7-4.5-1-5-1.6-.3-.5-.2-.6.5-1 .6-.3 2-.4 5.5-.4 4.3-.1 4.9 0 5.3.4.5.4.7.4 1.6.1 1.3-.4 2-.2 2 .6 0 1-.8 1.5-3.6 2-3 .4-2.7.4-6.3-.2zm-48.6-.1c-1.9-.6-2.4-.8-2.6-1.4v-.6a49.2 49.2 0 0 1 9.3-1.2c2.7-.6 14.2.8 14.5 1.8.4.9 0 1-2.8 1.3-5 .3-17.5.3-18.4 0zm21.3-5.5c-.8-.3-2.5-1.5-2.7-2-.4-1.2 1-1.7 4.3-1.8 2.4 0 3.5.3 4.9 1.2 1 .8 1.2 1.2.6 1.9-.5.4-.5.4-2.6.5l-2.7.2h-1.8zm-353.3-9.5c-.9-.2-1-.8-.2-1.3 1.3-.8 12.9-.6 14.4.2.7.4.6.5-1.2.9-1.5.3-11.5.5-13 .2zm351.8-.9.4-.7c.4-.3.4-.3.4.3 0 .5-.1.7-.4.7-.2 0-.4-.1-.4-.3zm-327.3-2c-1.4-.4-1.7-1.2-.7-2.1.8-.7 1.7-.9 6.7-1 5.1-.3 9.1-.2 9.5.2 1 .7-.8 1.4-5.7 2l-3.3.7c-1 .4-5 .5-6.5.1zm431-7-8.4-.3c-7.7-.1-14.3-.5-16-.8l-8.7-.7a528.9 528.9 0 0 1-28.9-2.4 163.6 163.6 0 0 1-21-2.7 134.6 134.6 0 0 1-17.4-4l-2-1-2.8-1.1a33.9 33.9 0 0 1-9-4.8 35.3 35.3 0 0 0-3.5-2.3c-.5 0-2.6-2.6-3.5-4.5-1.7-3.3-1.6-3.7.2-5l1.2-1c0-1 3.5-3 6.7-4.2 1.4-.4 2.2-.6 3-.4.8 0 2 0 2.7-.2 1.5-.3 3.1-.5 9.1-1.2 6.7-.7 10.3-1 12.3-.9 2.6.1 4.1-.4 7-2.4a41.2 41.2 0 0 1 12.4-6.5c.8-.3 2-1 2.7-1.6 2.1-1.9 5.8-3.5 7.7-3.5l2.6-.3a29 29 0 0 1 4-.4c2.8 0 10.5.5 12.1 1a22.3 22.3 0 0 1 10.7 5.6 9 9 0 0 1 2.7 5c.2 1 .7 1.3 2.9 1.4 2.3.1 3.2.3 5.9 1.7 1.9 1 3.4 2.3 3.4 3l.6 1c1 1.4 1.5 2.5 1.5 3.5 0 .7.1 1 .5 1h1.5c2.2.3 6.2 1 10.7 2.2a169.7 169.7 0 0 0 7.5 2l.7.2c.5 0 2.9 1.2 4.4 2.1.9.6 1.5 1.3 2.1 2.4 1.2 2.1 1.3 3 .6 4.4-1.2 2.4-2 3.2-4 4.2-1.1.6-2.4 1.3-2.7 1.6-.8.7-2.3 1.2-5.4 1.9-2 .4-3.2 1-3.2 1.5l.8.7c.5.2.9.7 1 1 0 .3.3.7.5.9.5.4.5 3 0 3.3-.3.3-5 .7-5.2.5zm-38.5-9.4c4.7-.1 6.2 0 6.7.2.5.3.9.3 2 0a48 48 0 0 1 6-.4 47 47 0 0 0 4.8-.3c.3-.2 9.8-1 13.5-1 3.4-.1 8.2-1 9.2-1.7l1.6-.8a8 8 0 0 0 1.8-1c.8-.6 1.3-.8 3-.9a11 11 0 0 0 3.1-.6c.5-.3 1.2-.5 1.5-.5.9 0 1.5-1 1.3-2-.2-.7-1.6-2.2-2.1-2.2l-.9-.2a74.5 74.5 0 0 0-18.9-4.5c-2 0-2.3 0-2.8.5-.6.6-.7 2.1-.1 2.7.2.2 1 .5 1.9.6 2 .2 3.1.7 3.6 1.7.7 1.3.4 2.4-.6 3-5 2.4-5.2 2.5-7 2.2a14 14 0 0 0-6.5.3c-2.8.7-3.8.9-8.5 1.5-4 .5-6.7.2-11.7-1a53 53 0 0 0-14.8-1.6c-8.4-.2-12.6-.9-18.9-3l-3.4-2-2-1.5-.2-1.7v-2.2c.2-.4 1.2-.9 1.7-.7.4.2.9 1.3.9 2 0 1 1.4 2.5 2.7 3a34.1 34.1 0 0 0 9.4 3 84.6 84.6 0 0 0 21.8-.4c.7-.7 2.4-.8 3.2-.2 1 .7 2.8.3 6-1.1 1.8-.8 3-.8 4 .3.6.6.9.6 2.1.5 3.2-.4 7.4-2 9.8-3.8 1.5-1.1 3.1-3.1 3.1-3.8l.4-1.4c.5-1.5 0-2.8-2.3-4.9-2.2-2.2-3-2.5-6.5-2.3-2.3 0-3.6.4-5 1.3l-1.1.5-1 .5c-.7.3-3.7 1-4.3 1-1 0-1.8-.5-1.8-1.2 0-1.2.7-1.9 3.5-3.2 3.7-2 4.3-2.4 4.2-3.8a6 6 0 0 0-.5-2.2c-.6-1.1-2.9-3-4.9-3.9l-1.6-.9c-.7-.6-2.6-1.2-4.6-1.4l-8-.8-4.3.3c-7.1.5-8 .7-10 2.5-1.4 1.2-2.3 1.6-5.7 2.8l-4 1.6c-.6.4-2 1-3 1.4-1.1.4-2.4 1-3 1.4l-1.8 1.4c-1.8 1.2-6.8 6-7.5 7.2-.6 1-.7 1.6-.7 3.3 0 1.8 0 2.2.6 3.3 1 2 1 2.7-.3 3.2-1 .5-1 .5-2-.1-.9-.5-1.6-.7-3.9-.8a24 24 0 0 1-7.5-1.5c-.5-.2-1-.7-1.2-1.2-.3-.7-.3-1 .1-1.6.8-1.5 4.2-2.6 5.1-1.7.2.2.4.9.4 1.6 0 1.5.2 1.6 3.2 2 2.8.4 3.3.2 3-1.3-.1-1 0-1.7 1.3-6.2.1-.6.4-1.3.6-1.7.2-.3.3-.8.2-1-.1-.4-.5-.4-2.7-.2-1.4 0-3.5.3-4.7.4l-6.9.6c-6.9.6-8.8 1-11.4 2.3-2.4 1.3-3.4 2-5.1 3.6l-1.2 1.2 1.3 1.2c.7.6 2.1 1.6 3.2 2l2.2 1.4c.2.2.6.4 1 .4.3 0 .7.2.9.4.1.2.7.5 1.2.7.6.1 1.7.7 2.5 1.1.8.5 1.7 1 2.1 1l1.9 1c.6.5 1.9 1.1 2.7 1.4l7.7 2.2 3.3.7 3.5.6a102.4 102.4 0 0 0 13.8 2.2c.6.2 2.7.4 4.7.5a124 124 0 0 0 19.5 1h1l7-.3zm-386.3 3.5-3-.5c-2.7-.4-4-.9-4-1.6 0-.8 2-1 4.4-.3.8.2 1.6.3 1.8.2.6-.2 4.4.8 4.5 1.1.2.7-.3 1-1.8 1-.9.2-1.7.2-1.9 0zM20.6 345c-2.3-.3-3.7-1.2-3.7-2.4 0-1.3.5-1.5 2.7-1.4 4.3.3 6.7.7 8.1 1.4l1.5.7-1 .8c-.4.4-1 .8-1.3.9-1 .2-4.7.2-6.3 0zm13-13.4c-1.4-.3-3.7-1.4-3.9-2-.1-.5.3-1 1.3-1.4 1-.4 3.9 0 7 .9l3.3.8c1.4.2 2 .6 1.6 1.2-.4.6-7 1-9.3.5zm14.2-2.4c-2.7-.6-3.2-2.2-1-3.1 1-.4 4.4-.3 6 .2l2.1.6c2.6.7 1.5 1.8-2.3 2.3-2.4.3-3.7.3-4.8 0zm-46.6-5.9c-.6-.8-.5-1.2.3-1.6 1.5-.7 3-1 3.6-.8l.6.3-.6.6c-.7.6-.8 1.3-.3 1.4.7 0-1.8.7-2.5.7-.4 0-.8-.2-1-.6zm5-.6H7l-.5.1c-.5 0-.6 0-.3-.1zm39.3-.3c-2.6-.4-4.8-1-5-1.4-.5-.7-.3-1.5.3-1.7 1-.3 6.5.4 7.2 1l1.5.2c1.7 0 3 .4 3.3 1v.7c-.3.4-5.7.5-7.3.2zm336.1-34-1-.8c-.3-.8.6-1 5.1-1.3l5.7-.4c2.2-.2 5.7.2 6.3.8.8.8.2 1.3-1.6 1.3-.9 0-2 0-2.3.2-.4.2-3.1.4-6 .4-4.2.1-5.5 0-6.2-.2zm31.8-.2c-.5-.1-1.2-.4-1.4-.6-.3-.2-.2-.4.4-.8.7-.4 1.6-.5 9.2-.6 9.2-.2 12.4.1 13 1 .2.4.2.6-.1.7-.8.5-19.1.7-21 .3zm10.5-17.9c-8-.4-12.3-.7-13.4-1-1.6-.3-3.8-1.3-4-1.9-.3-.8-1.6-1.1-5-1.3-1.9 0-3.6-.2-3.8-.4l-3.5-.4c-3.2-.2-4.2-.5-4.2-1.5 0-.5 0-.5 5.5-.4 5.5.2 10 .5 11 .9.4 0 .8.5 1 1 .3.4 1 1 1.6 1.4l1 .7h7.4c8 .2 17.7.8 19.7 1.4 1.3.3 2.7.3 3-.2l.6-.2c.5 0 1.6-1 1.6-1.5 0-.9.8-1 7.7-1.2 3.9 0 7.3-.3 7.7-.4.5-.1.9 0 1.2.2.4.4 1.2.4 5.7.4 7-.2 13.4-.2 17.4-.2 3 0 3.5 0 3.6.5.4 1 0 1.2-6.1 1.3a208 208 0 0 1-10.5 0h-22.9c-1.7 0-2.2.1-3.4 1.2-.6.7-1.4 1.3-1.8 1.4-.5.2-14.2.3-17.1.2zM25.6 259.8h.5c.1.1 0 .2-.3.2s-.4 0-.2-.2zm1.7-.2c-.3-.3-.2-.4.2-.4.3 0 .5-.1.5-.3l1-.2c.8 0 .9 0 .6.3-.7.7-2 1-2.3.6zm443.5-2.2c-.3-.4-.8-.6-1.9-.6-1.4 0-1.9-.4-.7-.7 1-.2 3.6.1 4 .6.4.3.4.4 0 .8-.4.5-.8.5-1.4-.1zM35 257.2c.5 0 1-.3 1.2-.5a1 1 0 0 1 1-.3c.4.1.8 0 1-.2.3-.2.8-.4 1.1-.4l1.3-.3 2.8-1 3-.8c4.5-1.5 6.7-2 7-1.5.3.4-.1.6-2.1 1.2l-2 .5c-.4.2-1.2.3-1.8.3-.5 0-1.4.2-2 .5a30.8 30.8 0 0 1-10.5 2.5zm418.6-3.9c-.4-.8-.5-1-2-1l-3.3-.5H442a428.4 428.4 0 0 0-18.8-.6l-2-.2c-.6 0-1.3-.3-2-.8l-1.2-.9.5-.4c.6-.5 1.2-.5 6.5-.4l8.1.4c1.3.2 5 .4 8.4.6a55.4 55.4 0 0 1 11.1 1c.6-.2 2 .6 2.2 1.3.8 1.9-.4 3.3-1.2 1.5zm30-1c-3.7-.7-3.6-.7-3.6-1.1 0-.5.2-.7 1.9-1 1.4-.5 6.2-.5 8-.1.6.1 1 .4 1.2.8.6 1.2-.1 1.5-3.9 1.8-.7 0-2.3 0-3.7-.4zm-429.3-.6c.3-.2.7-.4 1-.4a86 86 0 0 1 12.2-3.5l2.4-.7c1.4-.4 2.5-.8 4.4-1.2l3.2-1c2.8-1 3.4-1 4.5-1 .6 0 1-.2 1-.3 0-.2.5-.2 1-.2.7 0 .8 0 .5.1-.4 0-.6.3-.6.4l-.5.2-1.3.4-2.3.8a86 86 0 0 0-5.5 1.5c-.6 0-2.1.4-3 .8l-1 .2-1.2.4c-.4.2-1 .4-1.4.4-.4 0-.8.2-1 .4-.2.2-.6.4-.9.4a57.2 57.2 0 0 1-3.4.8l-5.7 1.6c-.4.2-1.2.3-1.8.3-.9 0-1 0-.6-.4zM3 249.5c-.2 0-.4-.6-.4-1.4v-1.3l1.6-.8c.8-.4 2.4-.9 3.6-1a56 56 0 0 0 7.2-1.7c.6-.2 1-.2 1.5 0 .4.2.7.2.8 0 .3-.3 1.7-.3 1.8.1 0 .2 0 .2.2 0l1.5-.7c.7-.2 2-.6 2.7-1l2.5-.5c.5 0 1.5-.3 2.3-.6.9-.5 1.7-.7 2.7-.7a4 4 0 0 0 2-.4c.6-.4 1.3-.6 5.6-1.3a97.9 97.9 0 0 0 11.4-2.4 102 102 0 0 1 5.8-1.5l2.4-.6a65 65 0 0 0 6.6-1.7 109 109 0 0 0 9.3-2.4l1.7-.5c.6-.3 1.9-.6 2.8-.7l3.6-.7a74 74 0 0 1 5.3-1.5c.3-.2.8-.3 1.2-.3l1.5-.4c3.3-1.3 3-1.3 5-.8a48.4 48.4 0 0 0 23.9-1.3 104.9 104.9 0 0 0 9.8-2.6c1-.5 1-.5.9-1.7-.2-1-.1-1.2.5-2 .7-.7 1-.8 2.8-1 1 0 2.2-.2 2.4-.3.3-.2 1-.3 1.6-.3l2.6-.4 3-.6c1.6-.2 3.5-1 4.2-1.5.2-.2.8-.4 1.2-.4.5 0 1.2-.1 1.7-.4 1.1-.5 3.4-.3 3.4.3 0 .9 6-.1 7-1.1.1-.2.1-.4-.2-.5-.3-.1-.6 0-.8.1-.2.2-1 .3-1.8.3s-1.1-.1-.7-.2c.5 0 1-.3 1.2-.5.3-.2.6-.3 1-.2.5.1.8 0 1-.4.3-.3.8-.5 1.2-.5.4 0 1.2-.2 1.8-.5l2.7-.8 3-.8c.8-.3 2.5-.7 3.8-.8l3.3-.7c.5-.2 2.2-.5 3.7-.7l3.8-.3 2.6-.8c.8-.4 2.4-1 3.4-1.2l4.5-1.2c3.9-1.2 5.8-1.5 6.2-1.3.4.2.2.4-.7.8l-3.4 1.6c-1.2.6-2.8 1.2-3.5 1.3-.8 0-2 .4-2.7.7l-3.6 1.1a47.4 47.4 0 0 0-5.5 1.7c-.3 0-1.6.4-3 1l-4 1.2c-1 .1-1.8.4-2 .6-.3.2-2 .7-3.7 1l-3.5.9a107 107 0 0 1-9.5 2.7l-1.9.6-2.1.5a69.4 69.4 0 0 1-10.6 2.5l-3.1.7c-3 .4-5.7 1.6-6.7 3-1 1.5-1 1.6-2.8 2.1-.8.3-1.8.6-2 .8-.6.4-1.9.7-4.3 1.2a148.3 148.3 0 0 0-7.1 1.6 93 93 0 0 1-15.8-.4c-3.3-.4-3.7-.4-5.6 0a1070.3 1070.3 0 0 1-10 2.4l-2.7.8a5360.7 5360.7 0 0 0-16.5 4.3c-3.1.9-6.6 1.6-8.3 1.8-.9.1-1.2.2-3 1-.8.3-2.4.7-5.2 1.2-1 .2-2.4.5-5 1.3-.4.2-1 .3-1.3.3a2 2 0 0 0-1 .4c-.3.2-.9.4-1.4.4-.5 0-1.3.2-1.8.4l-1.9.5a97.4 97.4 0 0 0-21.7 5.4c-.7.3-1.7.6-2.4.6-.6 0-1.5.1-2 .3-1.4.7-4.7 1.2-5.6.8zm165.4-39.9c.8-.3 1.6-.7 1.8-1 .5-.5-3.4-.1-4 .4l-.7.5a2 2 0 0 0-.8.4c-.5.3-.4.4.8.4.8 0 2-.3 2.9-.7zm223 34.8c-1-.3-1.2-.6-1-1.5 0-.4.4-.6 1.3-.8l11.4-.2c9.4 0 10.4 0 11 .5 1 .5 1 1.1.2 1.3l-4 .3-6.5.3c-5.4.3-11.5.3-12.4 0zm-306-1.2c-.1-.2 0-.4.5-.6.3-.2 1-.3 1.4-.3.5 0 1-.1 1.3-.3.4-.2.6-.1.8.1.3.3.1.5-.8.7l-1.8.5c-.8.4-1 .4-1.3 0zm4.8-1.4h.5c0 .1 0 .2-.4.2-.3 0-.3 0-.1-.2zm2.3-.5c.4 0 .6-.2.6-.4 0-.1.3-.2.7-.2.6 0 .7 0 .4.4-.2.2-.7.4-1.3.4-.6 0-.7-.1-.4-.2zm3.5-1h.5l-.3.1c-.4 0-.4 0-.2-.2zm371.6-1.7-.6-.5c0-.4 2.1 0 2.6.4.4.3.3.3-.5.3l-1.5-.2zm-3.6-.3-.6-.2h-.6a6 6 0 0 0-1.5-.4c-2.2-.4-2.9-.5-4-1.1l-1.2-.6.9-.2c1-.1 4.3.5 5.6 1 .5.2 1.2.4 1.7.4 2 .1 2.5.6 1 1l-.8.4-.5-.3zm-360.4-.2a36.3 36.3 0 0 1 6-2l4.3-1c1.2-.5 1.9-.4 1.4.2-.1.2-.5.4-.8.4-.2 0-.7 0-1 .2-1.1.7-5.8 1.9-7.2 1.9l-.9.2c0 .2-.6.3-1.2.3s-1-.1-.6-.2zM7.3 237c.2-.2.9-.5 1.4-.6.5 0 1.3-.2 1.8-.4l2.3-.4c1 0 2-.4 2.7-.8 1.4-.8 4.6-1.2 4.6-.6 0 .3-.4.6-1.2.8l-2 .5a5 5 0 0 1-1.4.3c-.5 0-1.8.3-2.9.6-1 .4-2.8.7-3.9.8-1.8.2-2 .2-1.4-.2zm109.1-2.1c0-.4.7-.7 2-1.1h1.1l.4.4-1.6.5c-1.7.6-1.9.6-1.9.2zm-96-.7c0-.2.2-.3.4-.3s.4.1.4.3l-.4.2c-.2 0-.4 0-.4-.2zm469.4 0c-1-.1-.5-.8.7-.8.7 0 1.2.7.7.9l-.6.1-.8-.1zm-8.8-.2h.5c0 .1-.1.2-.4.2-.3 0-.3-.1-.1-.2zm-64-.4-2.5-.2-3.3-.3a69 69 0 0 0-6.1-.5c-4.5-.2-8.5-.8-9.6-1.5-.4-.2-.5-.4-.4-.9.3-.6 1-.7 4.4-.2L412 231l12.3 1.1c1.5.1 2.3.6 2.2 1.1a41.5 41.5 0 0 1-9.5.3zm-393.7-.3c.2-.3.7-.4 1.3-.4h1l-.7.4c-.4.2-1 .3-1.3.3-.5 0-.6 0-.3-.3zm97 .2h.5l-.3.1c-.3 0-.4 0-.2-.1zm-93.6-.7c0-.6.6-1 1.5-1 1.1 0 1.2.5.1.7-.4 0-.9.3-1 .4-.2.3-.6.3-.6-.1zm96.4.1c.3 0 .7-.3 1-.5.1-.2.4-.2.7-.2.7.3-.2 1-1.2.9-.6 0-.7-.1-.5-.2zm-92.7-1.2c0-.2.4-.5.8-.6.4 0 1-.2 1.5-.4 2.7-1 7.6-2 7.9-1.8.4.4-.2.8-1.3 1-1.6.1-2.5.3-3.3.7l-1 .4-2 .5c-1.8.7-2.6.7-2.6.2zm98.5-.5c.2-.3.6-.5.7-.5l1.4-.5a21.2 21.2 0 0 1 6-1.4l-.9.7a3 3 0 0 1-1.2.6l-1.4.4-4.2 1c-.8.1-.8 0-.4-.3zm322-1c-4-.2-2.3-.8 3.7-1a54.7 54.7 0 0 1 6.3-.3c0-.1.3-.3.7-.3 1 0 .7.7-.3.8l-1.9.4c-.7.3-2.2.4-4 .4a26.4 26.4 0 0 0-4.4 0zm-21.3-1c-1.7-.6-2.1-1.4-1-2 .4-.3 1.5-.4 2.3-.4 1.2 0 1.6 0 2.1.6.8.8.8 1.3 0 1.9-.7.5-1.8.5-3.4 0zM43.3 228c.2-.5 1.4-.8 2-.7.4.2.4.3.2.6-.4.4-2.5.5-2.2 0zm98.3-.5h.8c.2.1 0 .2-.5.2-.4 0-.5 0-.3-.2zm-94.6-.2c-.4-.4-.1-.6.5-.6.7 0 .9.4.2.6-.5.2-.5.2-.7 0zm2-.3c-.2-.3 0-.5 1-1 1.2-.8 3-.9 2.9-.2 0 .2-.5.5-1 .7-1.3.4-2.7.6-2.8.5zm96.1-.5.4-.4c.1-.2.4 0 .5.2.3.3.3.4-.4.4-.4 0-.6-.1-.5-.2zM54.8 225a102 102 0 0 0 3.2-1.1c1-.3 2.4-.5 3.3-.6.8 0 1.6-.3 1.7-.4.2-.2.2-.2.2.1 0 .4-.2.5-1 .5-.6 0-1 .1-1 .2 0 .4-1.3.8-3.5 1.1-2.7.5-3 .5-2.9.2zm96.3-.1h.8l-.4.1c-.5 0-.6 0-.4-.1zM0 223.1c0-.4 1.5-1 5.7-1.9a43.4 43.4 0 0 0 5-1.2 108.6 108.6 0 0 0 12.8-2.7 63.5 63.5 0 0 1 7.2-1.7 3 3 0 0 1 1.1-.3c.4 0 .8-.1.9-.3.2-.3.6-.3.6 0a58 58 0 0 1-15.3 4.4 56.6 56.6 0 0 0-6.6 1.7 60.1 60.1 0 0 1-7.2 1.8c-2.3.7-4.2.8-4.2.2Zm158.2 0c0-.3.2-.4.7-.4.6 0 .7 0 .2.2l-.7.4c-.1.2-.2.2-.2-.1zm-93.3-.5c.3-.3.8-.4 1.3-.4l.9.2h-.9c-.5 0-.8.2-.8.3 0 .1-.2.3-.5.3s-.3 0 0-.4zm97.3-.5 1.2-.6c.8-.3 1-.3 1 0 0 .4-.4.5-1.2.4-.3 0-.5.1-.5.3l-.4.2c-.3 0-.4 0 0-.3zm3.7-1.1c.2-.3.8-.4 1.5-.4.6 0 1.1-.1 1.1-.3 0-.3 1-.6 1.4-.4.5.4-.4 1-1.4 1-.6 0-1 0-1 .2s-.5.3-1 .3c-.8 0-.9 0-.6-.4zm-95.3-.2c-.2-.1 0-.2.6-.2h1c0 .3-1.3.4-1.6.2zm2.2-.7c.5-.4.8-.4.8 0l-.6.2c-.5 0-.6 0-.2-.2zm1-.3.3-.5c.7-.5 4-2.2 4.4-2.2.7 0 2.4-1.4 2.6-2.1 0-.4.4-.9.6-1.1 1-1 3-2.3 3.5-2.3.6 0 .5 0-.4.9l-1.3 1.2-3 3c-.2.2-.7.4-1 .4-.2 0-.4.2-.4.3 0 .1-.3.4-.7.5l-1.5.8c-2 1.3-3 1.7-3 1.1zm97 0c-.3-.4.6-.6 1-.3.4.2.4.2-.2.4l-.8-.1zm2.1-.5c-.2-.3.7-.8 1.4-.8.3 0 .6-.2.7-.3.1-.1.6-.3 1.2-.2.5 0 .8 0 .5.1l-1.2.6c-1.4.6-2.4.8-2.6.6zm267.1-.5c-.2 0-.2-.2 0-.5.4-.5 1-.5 1.3 0 .2.3.2.4-.3.5h-1zm-5-.5c-.3 0-.6-.2-.6-.4l-1-.3c-.8 0-.6-.1.6-.1 1 0 2.4 0 3 .3l1 .3-1 .2c-.8.2-1 .2-2 0zm-256.5-.8h.6c0 .1-.1.2-.4.2-.3 0-.4-.1-.2-.2zm2.8-1c.3-.1.6-.1.8 0h-.8zm2.6-.4c-.3-.2-.3-.2 0-.4.7-.5 2.7-1 3.8-.9.6 0 .8 0 .5.2-.3 0-.6.2-.6.3 0 .5-3 1.2-3.7.8zm-149-1.5c.2-.2.7-.4 1-.4h.7l-.6.4c-1 .6-1.5.6-1 0zm155-.3c.3 0 .6-.2.6-.3 0-.2.4-.3.8-.3s.8-.1.8-.3c0-.1.5-.2 1.2-.2 1 0 1.2 0 .8.4-.2.2-.9.4-1.6.4-.7 0-1.2 0-1.2.2s-.5.3-1 .3c-.6 0-.8-.1-.4-.2zm-149.7-1h.5l-.4.1c-.3 0-.3 0-.1-.1zm156.4-.7c.6-.5 2.4-1 3.2-1 .5.2.5.2-.2.2-.5 0-.9.2-.9.3 0 .3-1.2.8-1.9.8-.4 0-.5 0-.2-.3zm-41.9-1h.5c.1.2 0 .2-.3.2s-.4 0-.2-.1zm-107.9-.3c0-.1.3-.2.7-.2.4 0 .6 0 .5.2 0 .2-.4.3-.7.3-.2 0-.5-.1-.5-.3zm40.8-.4c0-.3 1.5-1.2 2.1-1.2.3 0 .6 0 .6-.2l1.8-.7 3.5-1c2.2-.6 4.4-1 5.9-1.1l2.6-.4c2.8-.5 7.5-.8 14-.9 6.8 0 6.2 0 13.5-1.8l2.4-.5a68 68 0 0 0 5.2-1c.6-.2 1.4-.3 1.7-.2.6.2.6.2.3.6a4 4 0 0 1-1.7.6l-3.6 1a52.5 52.5 0 0 1-8.2 2.3c-4 1.1-5.3 1.4-7 1.2H112c-2 .1-2.6 0-3.3-.3-.9-.5-1.2-.5-3.7-.2a52.3 52.3 0 0 0-10.1 2c-.7.3-2 .7-3 .8-.6 0-2 .4-2.4.7-.7.4-2 .5-2 .3zm-37-.6c0-.2.2-.3.6-.3a3 3 0 0 0 1.1-.2c.8-.4 2.7-.6 2.7-.3 0 .1-.3.2-.7.2-.4 0-1 .2-1.4.4-.7.5-2.4.6-2.4.2zm6.2-1.6c.4-.3 1.2-.6 2.3-.7 1.9-.2 3 0 1.6.3l-1.6.4c-.4.2-1.2.4-1.8.4l-1 .1zm96 .1.7-.4c.1 0 .1.2-.1.4l-.7.4c-.2 0-.2-.1 0-.4zm54.1 0c0-.2.4-.4.9-.5.4 0 1.5-.3 2.3-.7 1.1-.4 1.7-.5 2-.3.4.2.3.3-.4.5-1.5.5-3 1-3.1 1.2-.4.4-1.7.2-1.7-.2zm-144.7-1.1c0-.4 1-.8 3.2-1.3l2.2-.6 2.3-.7a105.4 105.4 0 0 0 6.5-1.7c.4 0 1.1-.1 1.6-.3 1-.3 2.1 0 1.7.3-.2.2-2.4.8-5.6 1.4-1 .2-2 .5-2.3.7l-1.5.3c-.5 0-1 .2-1.4.4a3 3 0 0 1-1.5.4c-.5 0-1.6.3-2.4.6-1.4.7-2.8.9-2.8.5zm93.7 0c-.2 0-.3-.3-.3-.5 0-.3.3-.4 1-.4s1-.1 1.3-.5c.2-.3.6-.5 1-.5.3 0 .6-.2.7-.3 0-.2.5-.5 1-.7a1731.2 1731.2 0 0 0 5.7-2c.5-.6 1.3-.3.9.2-.2.2-.5.4-.8.4-.3 0-.5 0-.5.2 0 .3-1.2.8-2 .8-.4 0-.7.1-.7.3a39 39 0 0 0-2.5 1.2c-.4.2-.9.3-1 .2-.3 0-.6.1-.8.4-.3.3-.7.6-1 .6l-.5.2c0 .3-1 .5-1.5.4zm57.4-1c0-.3.2-.4.6-.4.6 0 .7 0 .3.4l-.7.4-.2-.4zm2.8-.8h.5l-.3.1c-.3 0-.4 0-.2-.1zm-6.9-1.1h.5c.1.1 0 .2-.3.2s-.4-.1-.2-.2zm258.5-.8c-.3-.3-.2-1.9 0-2 .4-.3 1.1.8 1.1 1.6 0 .6-.7.8-1.1.4zm-387.5-1c0-.2.3-.5.7-.6a335.8 335.8 0 0 1 3-.9l2-.4c1-.1 1-.1.6.3-.7.7-6.3 2.1-6.3 1.5zm88.4-.6c-.5-.4 0-.7 1.9-1.3 1-.3 1.6-.3 2-.1.3.2.3.3-.4.4l-1.2.5c-.5.5-1.9.7-2.3.5zm-26-.6c-.4-.3.2-.7 1.5-1 .5 0 1.1-.2 1.3-.3a14 14 0 0 1 2.6-.7 7 7 0 0 0 2.3-.7c0-.1.5-.2 1.1-.2.6 0 1.3-.1 1.4-.3.2-.1.9-.3 1.5-.3.7 0 1.3-.1 1.3-.2 0-.2.2-.3.5-.3.4 0 .7-.1.9-.3.4-.5 2.4-.7 2.8-.3.4.4-1.2.9-2.8.9-.7 0-1.2 0-1.2.2 0 .4-1.7 1-2.9 1l-1.3.1c-.3.4-2.9 1.4-5.2 1.9l-2.7.6h-1zm-55-.8c0-.1.2-.3.4-.3s.4.2.4.3c0 .2-.2.3-.4.3s-.4-.1-.4-.3zm85.7-.2c-.3-.2 0-.4.7-.6l1.8-.3h.8l-1 .6c-1 .5-1.7.6-2.3.3zm-84.4-.4c.1-.2.7-.5 1.1-.5 2.1-.4 2.8-.6 3.3-.9.6-.4 2.8-1 5.5-1.6l3.3-.8c3.5-.9 4.9-1.2 5.7-1.2 1 0 1.5.5.6.7l-2.6.6-3.4.7-3 .7a69.5 69.5 0 0 1-8 2.3l-2 .3c-.7 0-.8 0-.5-.3zm88.2-.7c0-.1.1-.4.4-.5.5-.3.6-.2.6 0 0 .5-.7.8-1 .5zm2.3-1c0-.2.3-.3 1-.3.6 0 1.1-.2 1.1-.3 0-.2.5-.3 1-.3.6 0 1.1-.1 1.2-.3 0-.1.5-.3 1-.3.6 0 1 0 1-.2 0-.3 1.8-.8 2.9-.8.5 0 .8 0 .8-.2s.6-.3 1.2-.3 1.3-.1 1.4-.3c.2-.2.8-.3 1.3-.3l.9-.1c0-.3 1.2-.6 3.4-.8a9 9 0 0 0 2-.3c1.2-.5 2.4-.8 3.4-.8.5 0 1-.1 1.1-.3 0 0 1.4-.2 3-.2l3-.2c.4-.3 5-.2 6.1.1 2 .5 2 .6 1.5 1a59.7 59.7 0 0 0-18.2 1.5c-.9 0-1.9 0-2.1.2-.3.1-1.4.3-2.3.3-1 0-1.9.1-2 .3-.1.2-.7.3-1.3.2-.6 0-1 0-1 .2s-.6.3-1.4.3c-.7 0-1.3.1-1.3.2 0 .4-1.2.9-2 .9-.5 0-1 0-1 .2-.1.2-.7.3-1.2.3-.6 0-1 .1-1 .3l-1.4.2c-.7 0-1.3.1-1.3.3 0 .1-.2.3-.4.3a.4.4 0 0 1-.4-.4zm72.6.1c-.5-.2-1.7-2.4-1.7-3.2 0-.3.2-.4.7-.4.6.1.8.3 1 1 0 .6.3 1.4.5 1.8.3 1 .2 1.2-.5.8zm3.7-.3c-.2-.3-.5-.8-.5-1.1l-.6-1.4c-.3-.6-.2-1.4.2-1.2.3.2 1.3 2.1 1.6 3 .2 1 0 1.3-.7.7zm252.8-1.8-2.2-.3c-1.5 0-2.2-.2-2.8-.6-.5-.4-1-.5-1.7-.4-1.7.2-2.5.2-6.6-.3-6.8-.8-8.5-1-9.4-1.5-.8-.4-1-.4-2 0-1 .3-2.1.2-2.8-.4-.6-.5-2.6-.9-4-.7-1 0-3.6-.5-5.6-1.3a21 21 0 0 0-1.9-.5l-2.2-.8-2.2-.8-2.7-1a9 9 0 0 0-2.2-.6c-.9 0-1.6-.4-3-1.7a5.1 5.1 0 0 0-2.2-1.3c-.5-.1-1-.3-1-.5l1-1.3c.7-.5 1.1-1.1 1.1-1.3 0-.4-1.4-.2-3.9.5a6 6 0 0 1-3.5.3 164.4 164.4 0 0 0-5.8-1c-1.4-.3.3-.6 4.3-.7a25.6 25.6 0 0 0 6.2-.7h1.2l-.1-1c-.3-2-.6-2.6-1.3-3.4-.4-.4-.8-1-.8-1.2 0-.3-.4-.9-.9-1.3l-.9-.8h-4.8a165 165 0 0 0-18.6-.8 118.5 118.5 0 0 1-12.1-.5c-1.6 0-1.8 0-2-.4-.6-1.1 0-1.2 6.8-1a511.6 511.6 0 0 1 19.7.9h6.9c3-.1 3.2-.1 3.2-.8.1-.5-.4-2.1-1-3.2-2.3-4-2.4-4.3-2.5-6.4l-.2-2.2.8-.3c.7-.3 1-.3 1.9.2l4.2 1.6.4-.8c.4-1 1-1 1.2.2.2.6.5 1.2.8 1.5a7 7 0 0 0 3 1.2c.3 0 .7.2 1 .4.3.4 0 .4-1.8.4-1.5 0-2.4-.1-3-.4l-2.3-1c-.9-.2-2.2-.7-2.9-1-2.5-1.3-3.2-.7-1.5 1.1.5.6 1 1.2 1 1.4 0 .2 0 .7.2 1.1.3.6.5.7 1.3.6.8 0 1 0 1.5.9.7.9 2.2 1.8 3 1.8l1.6.8 1.4.8c.1 0 .1.2 0 .4-.3.3-.5.3-1.5 0-2.5-1-3.6-.5-3.6 1.6 0 1.2.9 4 1.5 4.5.3.3.3.7.2 1.2l.1.8c.4 0 1.2 1.2 1.4 2.3l.4 1.8c.2 1 1 2.1 1.8 2.5l2.5 1.6c1 .7 2.3 1.4 2.9 1.5l1.5.7c.5.6.7.5 1.6-.5 1.2-1.2 2-3 2.1-4.4.1-1.4-.3-4.2-.8-5.7s-.5-2.8 0-2.7a1722.4 1722.4 0 0 1 1 2.8l.6 4.2c.4 3 .6 4 2 6.7.4.9.5 1 1.7 1 .8 0 1.8.2 2.6.5 1.2.6 3 .8 3.5.4.2 0 .5-.7.7-1.4.2-1 .2-1.5 0-2a6 6 0 0 1-.2-2.7l.2-1.9-1-1c-.8-.8-.9-1-.9-2.4 0-1.3-.1-1.7-.7-2.3-.9-1-3.1-1.4-4-.9-.7.4-.9.2-1.5-1.2-.5-1-.9-1.3-3-2l-3-1c-.7-.3-1.8-.5-2.3-.4-1 0-2-.5-1.8-1l1-.2c.6 0 1-.1 1.1-.2.2-.4 2.3.1 3.5.9a5 5 0 0 0 1.5.6c.3 0 .6.2.9.5.4.3 1.1.6 3.1 1l1.8.4a4 4 0 0 0 2.3 0c1.3-.4 2.8-.2 6.3.7a57.5 57.5 0 0 0 8.3 1.7l4 .7c2.2.2 2.4.8.3.8l-1.7-.1-1.6-.3c-3.1-.2-8.1-.6-9.4-.9-2.4-.4-2.4-.4-2.3 4l.2 4c.2.2.4 1.6.9 6 0 .8.3 1.5.5 1.7.2.1 1.5.4 2.9.5 1.3 0 2.9.4 3.5.6a11 11 0 0 0 4.6 1c.4 0 1.4 0 2.3.3.8.2 2.2.4 3 .4 1 0 2 .2 2.6.6l1.5.5c.7 0 2.1-1.7 3-3.4.9-1.9 1-2 1.5-1.3.2.3.3 1.1.3 1.8 0 1.9.8 2.4 3.7 2.4 1.3 0 3.3 0 4.5.2a44.5 44.5 0 0 0 13.8-.5c3.1 0 3.6-.2 4.4-1.5.4-.7 1-1.3 1.6-1.6.9-.4 1-.4 1.5.2.7.6 1 .6 5-.1 1.5-.3 3-.8 5-1.7 3-1.5 3.5-1.9 3.8-3.1.2-.6.5-.8 1-.9.8 0 1.4-1.4 1.8-3.7.4-2.1.4-2.6 0-3.5-.3-1-.4-1-3-.2-3.2.9-3 .9-3.6.2-.5-.5-.7-.5-1.5-.4-.8.1-1 0-1-.3 0-.6 2-1.7 3-1.7.6 0 .8 0 .8-.5 0-.8.7-.6 1 .3.3.6.5.8 1 .8 1.2 0 3.3-.8 3.5-1.3.3-.9.6-1 1.2-.9.4.2.9 0 1.6-.3 1.2-.6 1.7-.4 1.7.4 0 .5-.1.7-.6.9-.6.1-.7.3-.7 1.2v1.2l1-1.2c.6-.6 1.2-1 1.5-1 .3 0 .3 0-.1 1.2-.3.7-.4 1.4-.3 1.6.2.3.4.3 4 .2 3.4-.1 3.5 0 3.3 1.2 0 .6 0 1 .2 1.2.5.3 6.8.8 9.5.7 9.9-.4 9.8-.4 10 1.1.1 1.4-.6 1.6-4.5 1.7-1.8 0-3.3.1-3.5.2-.4.2-3.4-.5-4.3-1-.9-.6-2.5-.5-3.5.2-.3.2-1.2.3-2 .3-1.3 0-2.9.6-3.2 1-.3.5.5.8 2.5 1.1 1.3.2 2.3.6 3 1 1.3 1 3.3 1.4 5.8 1.5 3.3 0 4.5.5 2.8 1.2-1.3.6-6.7.4-8-.2-.8-.4-1.2-.5-3.5-.3-2.6.2-4.8.8-5.2 1.4-.3.6-.2 1 .4 1 .8 0 .4.6-.9 1.3a19.8 19.8 0 0 1-8.6 1.6c-1.4 0-2.7.1-3.1.3l-3.8.7a948.1 948.1 0 0 0-8.8 1l-6 .3c-3.8.2-11.6.2-18 0-1.3 0-3 0-3.8.2-.8.1-1.5.1-1.6 0zm50-17c0-.2-.1-.4-.4-.4-.2 0-.4.2-.4.4s.2.4.4.4c.3 0 .4-.2.4-.4zM243 196.2c-1.4-.3-5-3-5-3.8 0-.9.8-.7 2.3.4 1.3 1 1.5 1 2.8 1 1.3-.2 1.4-.2 3 .8 2.2 1.6 2.2 1.8-.1 1.8-1 0-2.4 0-3-.2zm-133.1-.8c0-.4 2.3-.6 2.3-.3 0 .4-.7.6-1.6.6-.6 0-.8-.1-.7-.3zm2.5-.4c0-.4 1.3-.9 2.2-.9.8 0 .8 0 .5.4-.5.5-2.7.9-2.7.5zm3.5-1c.2-.2.6-.4 1-.4.5 0 .6 0 .3.4-.2.2-.6.4-1 .4-.5 0-.6 0-.3-.4zm2-.4.6-.3c.3 0 .6.2.6.3 0 .1-.3.3-.7.3-.4 0-.6-.2-.5-.3zm407.6-6.7c0-1.7.7-5.2.7-4 0 .2.5.8 1 1.4.5.5 1 1.1 1 1.3-.1.5-2 3-2.4 3.2-.3 0-.4-.4-.3-1.9zm16 .9c-.3-.5 0-2 .6-2.5.8-.7 1-.4.6 1.2-.1 1-.3 1.4-.6 1.5-.3 0-.5 0-.6-.2zm-40.2-.5c-.4-.4-.5-.8-.3-1.4l.1-3.8c0-1.9 0-3 .3-3.2.6-.8.8-.4.7 1.8 0 1.2 0 3.3.2 4.6.2 2 .1 2.5-.2 2.5-.2 0-.6-.3-.8-.5zm41.5-3c-.2-.2 1.1-1.6 1.4-1.4.5.3.4.9-.3 1.3-.6.5-.9.5-1 .2zm-99.5-.4c-.3-.3.2-.3 3.7-.4 4.4-.1 4.6 0 4.6.5 0 .3-.5.3-2.5.3-1.5 0-2.5 0-2.5-.2s-.2-.3-.4-.3-.4.1-.4.3c0 .4-2.2.3-2.5-.2zm-207.2-.3c-.5-.3-1.2-.7-1.3-.9-.5-.5-.7-3.5-.4-4.2.4-.7 2.3-1.6 3-1.4.6.2.6.6 0 1.5-.8 1-.6 1.6.5 1.4.4 0 1 0 1.4.2.6.2.7.4.7 1.6 0 1.2-.1 1.4-.8 1.8-1 .6-1.7.6-3 0zm195-3.2h.8c.2.1 0 .2-.5.2-.4 0-.6 0-.3-.2zm2 0h.9c.2.1 0 .2-.5.2-.4 0-.6 0-.3-.2zm-8.5-.5h.5c.1.1 0 .2-.3.2s-.4 0-.2-.2zm104-.3c-.3-.3 1-.7 1.3-.4.2 0 .3.3.2.4-.2.3-1.4.3-1.6 0zm-9-.3c-2.5-.3-3.4-.5-3.6-1-.2-.5.4-.9 1-.6l2.2.4c1 0 2 .2 2.2.4.3.2 1.2.3 2 .3 1 0 1.3 0 1.3.4s-1.7.5-5.2 0zm13.3-.3c.7-.6.7-.6 1.3-.2.3.2.2.3-.4.5-1.2.5-1.6.4-1-.3zm-60.6-.5c-.4-.5-.4-1.4.1-1.8.3-.3.4-.2.6.4.2.9-.2 1.8-.7 1.4zm66-.8c-.5-.3-1.2-.6-2-.7-1.7-.2-2.6-.6-2.1-.9h1c.3.2 1.4.3 2.4.3 2.6 0 4.3.3 4.3.7 0 .2-.4.4-.8.5-.4 0-1 .3-1.3.4-.8.3-1 .3-1.6-.3zm-31.5-.4c-.1-.4 0-.4.2-.2s.2.4.2.5c-.1 0-.3 0-.4-.3zm-82.1-.4c-1 0-1.2-.2-.7-.2s1-.2 1-.4c.1-.3 2.7-.3 2.8.1 0 .2.4.3.9.3 1.3 0 .7.1-1 .3h-3zm85.6-.2h.5c.1.2 0 .2-.3.2s-.4 0-.2-.2zm-250.2-2c-.4-.5-.6-.9-.5-1.8 0-1 .2-1.1.8-1.2 1-.1.9-.8-.4-1.5-1-.5-1.5-1.4-1.1-2 0-.1.7-.3 1.3-.3 1 0 1.4.2 2.4 1 1.4 1.3 1.7 1.8 1.5 3.2-.4 1.7-.8 2.4-1.6 2.8-1.1.6-1.7.5-2.4-.2zm261 .5h1.1-1zm21.6-.7h-.5c-.4 0-.4 0 0-.2.3-.2 1.4-.4 2.5-.4 1.8 0 2.3.1 1.7.5-.5.3-3.7.4-3.7.1zm-359.8-.3c-.2-.6.1-3.1.4-3.5.2-.1.3-.4.3-.7 0-.2.2-.6.5-.8.4-.3.4-.2.2 1.5l-.4 2.1-.1 1c0 .7-.6 1-.9.4zm-36.8-.8c0-.3.1-.9.3-1.2l.4-.7v.8c0 1-.2 1.7-.5 1.7-.1 0-.2-.2-.2-.6zm403.5.3c.2-.5.7-.6.7-.1 0 .2-.2.4-.4.4s-.4-.1-.3-.3zm11-.5.3-.7c.3-.5.7 0 .4.6-.1.5-.6.5-.6 0zm-20-.4c-1.2-.2-1.6-.5-1.6-1.4 0-.6 0-.8.8-.9.5 0 .8 0 1 .2 0 .3.2.2.6-.1.3-.3.7-.5 1-.4l.7.1c.2 0 .4.1.4.3 0 .8 2 1.5 2.5.8 0-.2.4-.2.7 0a9 9 0 0 0 2.4 0c1.4 0 1.8 0 1.4.2-.5.4-4.3.9-5.6.8-.5 0-1 .1-1 .3-.2.3-1.1.3-3.2 0zm10.5-1.5c0-.3.5-.4 1.5-.5.8-.1 1.6-.3 1.8-.5.4-.4 1.8-.3 1.8.1 0 .6-1 1-3.2 1-1.5.2-1.9.2-1.9-.1zm-17.4-.3c-1-.2-11.4-.3-12.2 0-.3 0-.8 0-1.3-.3l-1-.3.9-.2h2.8c1.5 0 2.3 0 2.7-.3.3-.1 1.7-.4 3.2-.5a61.6 61.6 0 0 0 6.7-.5l3.8-.4c1.4-.2 1.5-.2 1.5.3 0 .3-.2.5-.8.5-.4 0-.8 0-1 .2 0 .2-.3.3-.6.3s-.8.2-1 .5c-.4.4-.7.5-2.4 1l-1.3-.3zm24.8-.7c-.4-.5-.4-1 .1-.9.2 0 .6-.3 1-.9l1.1-1.9c.8-1.3 1.2-2.5 1-2.9-.2-.4-2.2.2-2.8.8-.4.5-2 .7-2 .3 0-.3 1.4-1.6 1.8-1.6l1-.8c.6-.7 1-.8 1.9-.8 1.3 0 1.6-.3 1.9-1.9.3-2 .7-2 1-.2.4 1.6.3 2.4-.1 4.6l-.4 1.8c-.2 1-.7 1-.7 0 0-.6-.1-.9-.4-.9-.5 0-.8.5-1.2 1.7-.5 1.2-2.3 4.2-2.6 4.1 0 0-.4-.2-.6-.5zm11.2-.4.2-1.8c0-.4.1-.7.3-.6a103.8 103.8 0 0 0 0 3c0 .2-.2.3-.3.3-.2 0-.3-.3-.2-1zm-109-.3c-.3-.3-.3-.3.2-.3.3 0 .5.1.5.4 0 .4-.3.4-.7 0zm43 0-.2-.5c.3-.2 1.9.2 1.9.5s-1.1.2-1.6 0zm43.5 0c0-.2.2-.3.5-.3s.5 0 .4.2c-.1.2-.4.3-.6.3-.2 0-.3-.1-.3-.3zm-55-1c-3.5-.7-5.6-1.4-5.6-1.8 0-.2 1-.2 2.7.2l5.6 1c3 .6 3.2.7 2.8 1-.6.4-2.3.3-5.5-.4zm57.3.4c0-.2.3-.3.7-.3.4 0 .6.1.5.3l-.6.3c-.3 0-.6-.2-.6-.3zM30 168.4c0-.1.3-.2.8-.2l1 .1c0 .2-1.7.3-1.8.1zm512.3-.2 1-.4c.5-.1.7-.1.7.2 0 .4-.3.5-1 .5-.6 0-.9-.1-.7-.3zM32.2 168c-.2-.4 1.9-.6 2.6-.3.4.2.3.2-.6.2l-1.5.2-.5-.1zm151.7 0c-.1-.5 0-5.8.1-5.9.3-.3.4.4.5 3 0 2.2 0 3-.3 3h-.3zm360.3 0c0-.2.4-.4.8-.5.4 0 .8-.3 1-.4l1.7-.3 2.6-.4c1.6-.1 2.6-.7 3.6-1.9l.9-1 .6.9c.7.8.6 1.1-.4 1.1-.2 0-.4.2-.4.3 0 .3-3.3 1.3-4.1 1.3-.3 0-.8.2-1.2.5-.3.2-.8.3-1 .2l-.7.1c-.3.4-3.4.4-3.4 0zm-274-.6c-.4-.7.2-5.5.9-7 .2-.3.3-1 .2-1.4-.1-.7.1-2.8.6-5.4.2-.8 1-1 1.3-.3a51 51 0 0 1-1.2 11.5c0 1.4-1.3 3.4-1.7 2.6zm-233.8-.2h1.1l-.6.1h-.5zm2.2-.1c0-.4.5-.5 5.6-1.1l2.2-.4 4.7-.7c1.8-.2 4-.6 4.7-.8 2-.5 5.1-1 7.3-1.1 1 0 2-.2 2.4-.4 1-.4 5.7-1 6.1-.9.4.2.4.3-.3.5-1.2.4-3.2.7-5.3.9-1 0-2 .2-2 .4l-1 .2c-.4 0-1.2.2-1.8.5-.6.3-2 .6-3 .7-1.1 0-3.2.4-4.6.6-4.3.8-6.8 1.1-9 1-1.6 0-2.5.2-3 .5-1.1.5-3 .6-3 0zm184.9-.2c-.7-.4-1.8-2.8-1.8-3.8 0-1.8.9-2.8 1.6-2 .2.4 1.5 3.8 1.8 5 .2.9-.6 1.3-1.6.8zm260.7 0c-.3-.2 0-.3.8-.3.7 0 1.3.1 1.3.3 0 .3-1.6.3-2.1 0zm-46.8-.8c-.4-.7-.4-1.7 0-2.5l.4-.7.2.8c.4 2 0 3.6-.6 2.4zm137.1.2c-.2-.4.2-2.6.5-2.6 0 0 .2.7.2 1.5 0 1.3-.3 1.8-.7 1.1zm-93.8-.1h1.2-1.2zm-4.1-.3c-.8-.2-.8-.6 0-.6 1 0 2.3.3 2.3.5 0 .3-1.2.3-2.3 0zm-3.3-.5c-.2-.2-4-1-5.1-1-2.5-.2-4.9-1.1-4.3-1.7.2-.2 3.2.4 4.1.8l1.9.5c2.9.5 5.3 1.1 5.3 1.3 0 .2-1.7.4-1.9.1zM252 163.8a9 9 0 0 1-.9-1.9 8 8 0 0 0-1.8-3.4c-.5-.5-.6-.7-.3-1 .4-.5.4-.6 3 3.4.6 1.1 1 3 .7 3.5 0 .2-.4 0-.7-.6zm25.9-.2c0-.5.2-1.2.4-1.6.9-2.6 1.1-3.6 1-4.7 0-1.4.2-3.5.5-4.6.2-1-.6-2.7-2-4.4l-.8-1.4c0-.2-.8-1.1-1.9-2-4.4-4-5.3-5-4.3-5.4.5-.2 4.5 2.6 6.8 4.9 2.2 2.1 2.7 3.2 3.5 6.5.8 3.2.4 8-.9 9.6l-1 1.9-1 1.5c-.4.4-.4.4-.3-.3zm146-1.3c0-.8 0-1.6.2-1.6.2-.1.3-.5.3-1 0-.3.2.1.2 1 .2 2.2.1 3-.4 3-.2 0-.3-.4-.3-1.4zm-276.9 1c-.3-.3-.2-2 .1-2.1.2-.1.3.3.3 1 0 1.3 0 1.4-.4 1zm407.8-.2.3-.7c.2-.3.3-.3.3.3 0 .4-.2.7-.3.7-.1 0-.3-.1-.3-.3zm20.1-.6c0-.2.2-.4.3-.3.2 0 .3.2.3.3l-.3.4c-.1 0-.3-.1-.3-.4zM86 162c-.2-.1-.5-.6-.6-1-.1-.8-.1-.8-1.8-.6-1.3.1-1.7 0-2-.2-.3-.4-.2-.5.6-.5.5 0 1 0 1.1-.2l1.7-.4c1.2-.1 1.4 0 2.2.6.8.7 1.1.8 2.6.8 1 0 2.8 0 4-.3a95.5 95.5 0 0 1 8.8-1.3l1.6-.2c.6 0 1.2-.1 1.3-.3l2.7-.5 2.6-.5c.4-.4 3.8-.7 4-.4.2.4-1.7.9-3.3.9l-1.5.2c0 .2-1 .3-2 .3s-1.8.1-2 .3l-.6.2-1.2.4c-.7.4-2.2.6-6.6 1.2l-6.8 1.2c-.9.2-2 .3-2.2.2-.3 0-.7 0-.8.2-.2.4-1.2.4-1.8 0zm-13.5-.3c-.4-.4 1.4-1 3.8-1.2a14 14 0 0 0 3.1-.5c.8-.4 1.1-.3 1.1.1 0 .3-.5.5-1.5.7l-2.3.5c-1 .4-4 .7-4.2.4zm483.1-.3c-.2-.4 0-.9.4-.9.3 0 .3 1 0 1.2-.1 0-.3 0-.4-.3zM147 159.5c-.4-1-.4-1.6 0-1.6s.5.3.5 1.2v1.2l-.5-.8zm76.1-.6c-1.4-1.6-1.6-3.2-.5-4.5l.5-.6v.8c0 .5.4 1.6.8 2.5 1 2 1 2.2.4 2.5-.2 0-.7-.2-1.2-.7zm333.4-.2.5-1.7.8-1.8c.3-.5.3-.4.2.7-.2 2-1.5 4.4-1.5 2.8zm-89.4-2.4c-.4-1.9-.4-2.7.1-2.7.3 0 .4.3.4.6l.2 2c.2 1.8-.3 1.9-.7 0zm-351 .5c-.4-.1-.2-.2.6-.3h1.2c.3.3-1.2.5-1.8.3zm308.2-.4c-.4-.4-.4-.9 0-.9l.3-1.1c0-.8 0-.7.1.6v1.8l-.4-.4zm29.3 0c0-.4-.1-.6-.2-.6-.2 0-.3-.3-.4-.6 0-.4-.3-1.1-.6-1.7a9 9 0 0 1-.4-2.6c0-.8-.1-1.5-.3-1.5-.1 0-.2-.6-.2-1.3 0-.7-.1-1.3-.3-1.3l-.2-.4c0-.2.1-.4.3-.4.3 0 .4.3.4 1.3 0 .7.2 1.3.3 1.3.2 0 .3.5.3 1 0 .7 0 1.1.2 1.1s.3.3.3.6.2 1.3.5 2.1c.4 1 .5 2 .5 2.6 0 .5-.1.7-.2.4zm-335 0c-.2-.2.1-.4.6-.4 1-.2 1.3.2.4.4-.8.2-1 .2-1 0zm28.3-.5c-.3-1-.3-2.1.2-2.5.3-.3.4-.1.4 1.4 0 1.9-.2 2.1-.6 1zm-25.5-.4c.8-.3 2.2-.3 2.4 0 .1.2-.4.3-1.4.2-1 0-1.4 0-1-.2zm131.1-1.3c-.8-1.4-1-2-1-3 0-.8 0-1.2.4-1.4.4-.1.4-.2.5 1.6 0 .7.3 1.5.6 2 .8 1.1 1 1.7.8 2-.1.3-.5 0-1.3-1.2zm-68.2.6c0-.4 0-.5.1-.3.1.3.1.6 0 .8l-.1-.5zm260.2.5-.3-1.4a7 7 0 0 0-.4-1.6.6.6 0 0 1 .1-.6c.4-.5.8 0 1 1l.4 1.7c.1.5 0 .8-.3 1l-.5-.1zm-319.6-.3c0-.2.2-.2.4-.2.3.3.3.4-.2.4-.2 0-.3 0-.2-.2zm1.7-.1c-.2-.3 0-.4 1.4-.7 2.5-.4 2.8-.3 1.2.4-1.6.7-2.2.8-2.6.3zm293.1-1.4c0-1 .1-1.7.3-1.7.2 0 .3-.3.2-.9V147l.6-6.3c.2-3.5.4-4.3.9-4.3.2 0 .3.4.1 1.6v2.3l-.3 3.6-.4 4.2a6 6 0 0 1-.3 2c-.1.4-.3 1.5-.3 2.6 0 1.4 0 2-.4 2.3-.3.3-.4 0-.4-1.5zm126.4.2c-.2-.4 0-1.6.4-1.6.3 0 .3 1.5 0 1.7l-.4-.1zm-411.8-.5 1.2-.3c.3 0 .6-.2.7-.3l2.7-.7a186.3 186.3 0 0 0 6.2-1c.1 0 .7 0 1.2-.2 1-.4 1.2-.3 1.2.7s-.2 1-1.1.6c-.7-.5-.9-.5-1.9-.1l-2.5.6c-.9 0-2 .3-2.4.4-.5.1-1.5.3-2.3.3-.8 0-1.5 0-1.6.2l-1.1.2h-1l.7-.4zm424.3-.9c0-.4.3-.8.6-.8.4-.2.4 0 .1.6-.3 1-.9 1.2-.7.2zm-91.8-.6c0-.8.4-1 .7-.3.2.7.1 1-.3 1-.2 0-.4-.3-.4-.7zM425 151c0-.6 0-.8.1-.4v1l-.1-.6zm-207.6 0c-.3-.7-.2-1.8.3-3.1a32 32 0 0 0 1-8.6c0-.2.7-.6 1.4-1a7 7 0 0 0 2-1.6c.8-1 1.6-1.2 2.2-.6.6.6.4 1.4-.7 3.1-1.4 2.2-1.8 3.6-1.4 5 .6 1.7.4 2-1 2-1 0-1.2.2-1.5.9-.2.4-.3 1.1-.3 1.6 0 1.2-.5 2-1.3 2.4-.4.2-.6.2-.7-.1zm249.2-1c-.3-1.6-.5-3.2-.6-5.6l-.3-4.9c-.4-2.8-.4-12.8 0-13.9.2-1-.2-2-1.1-2.1-.5-.1-.8-.4-.8-.6 0-.3.2-.3.6-.2.3.1 1 .3 1.7.3 1.5.3 1.7.5 1.1 1.6-.5.8-.5 1.3-.4 10.7a409.4 409.4 0 0 0 .2 15.3c-.1 0-.3-.2-.4-.6zm80.1-.3c0-.6 0-.8.1-.5v1.1l-.1-.6zm-148.2 0c0-.4 0-.6.1-.3.1.2.1.6 0 .8v-.5zm45-.3c0-.3-.2-.6-.3-.6-.2 0-.3-.5-.3-1 0-.7-.1-1.1-.3-1.1-.1 0-.2-.7-.2-1.6 0-.8.1-1.2.2-.9 0 .3.2.6.3.6.2 0 .3.7.3 1.6 0 .9.1 1.6.3 1.6.1 0 .2.5.1 1 0 .6 0 .7-.1.4zM147 146.2v-4l.3-.9.3.8c.4.9.1 6.7-.2 7-.1 0-.3-1.3-.4-3zM399 144v-2.4a88.5 88.5 0 0 1 0 2.4zm113.8 3.6c-.2-.2-.2-1.6.1-1.8.4-.2.9.2.6.5v1c0 .5-.3.7-.7.3zm-328.7-.7c0-.4 0-.6.2-.5.2 0 .3.3.3.5s-.1.4-.3.5c-.1.1-.2-.1-.2-.5zm241.3 0c0-.3 0-.4.1-.2v.5l-.1-.3zm61.2-1.5v-7.9c0-6.8 0-7.4-.5-7.9-.4-.4-.4-.6-.2-1.1.4-.7.2-1-1.2-1.1a186 186 0 0 1-9-1.5c-4-.6-5.6-1-5.6-1.3 0-.2.2-.3.8-.2 2.5.4 5.2.8 6 .8 1 0 1 0 1-1.1-.1-1.1-.1-1.1.7-1.1 1.1 0 2 .3 1.6.6-.6.3 0 .7 3 2 .7.3 2 .6 3 .6 1 .1 2.2.4 2.6.6.5.2 1.2.4 1.7.4l2.3.3 2.7.4c.8 0 1.3.2 1.3.5s-.3.3-4.3 0c-.8 0-1.7-.2-2-.3-.7-.2-1.3.4-1.5 1.9l-.4 1.7c-.4.8-.8 5.2-.8 9.3 0 2.3 0 4.3-.2 4.6-.2.5-.8.5-1-.2zm-432.5.2c0-.2 1.1-.4 1.2-.1.1.1-.1.2-.5.2h-.7zm1.8-.4c-.2-.3 1.7-.8 3.5-.8 2 0 2 .2.1.6-2.3.4-3.4.5-3.6.2zm394.5-1-.2-.8c0-.9.7-.6.8.3 0 .6-.2.9-.6.5zm-386-.3c.4 0 .8-.2 1-.3.1-.2.8-.3 1.4-.2.7 0 1 0 .6.1-.4 0-.8.2-1 .4l-1.4.2c-.7 0-1-.1-.5-.2zm346.7-.7c0-.6 0-.8.1-.5v1-.5zm157 .1.8-3.4c.8-3.8 1.3-5.1 1.7-5.3.4 0 .4 0-.6 4.2-.6 2.9-1.3 4.9-1.8 5-.2 0-.3 0-.1-.5zm-21-1.1c0-.6.1-1.4.4-1.8.3-.6.3-.6.3.7l-.1 1.8c-.3.8-.6.4-.6-.7zm-476.8.7c.6 0 1.3-.3 1.5-.4.2-.2.3-.2.3.1 0 .4-.2.5-1.5.4-1.4 0-1.4 0-.3-.1zm443.2-.5c0-.2 0-.4.2-.4s.3.2.3.4-.1.4-.3.4l-.2-.4zm-439.3 0h.5l-.3.1c-.4 0-.4 0-.2-.1zm431.6-1.3c0-.4.1-.7.4-.7.4 0 .5.3.2 1-.2.6-.6.4-.6-.3zm-70.3-.7v-.4c.2.2.2.6 0 .9v-.5zm14.4.6h.5c.1.1 0 .2-.3.2s-.4 0-.2-.2zm-20.8-.7c0-.4 0-.7.2-.7 0 0 .2-.5.2-1.1 0-2.6.6-7.6 1-7.6s-.2 7.3-.8 8.6l-.5 1.2-.1-.4zm84.6-2.8-.1-4.2c-.2-1.3-.1-1.6.4-2 .5-.5 1-.5 4.7-.5 2.3 0 5.9 0 8 .2 4.9.3 4.4.3 8 .1 3.3 0 4.6.3 4.6 1.2 0 .5-.3.6-3.3.7-3.6.2-4.6.5-5.1 1.6-.2.6-.5.8-.9.7-.4 0-.6-.3-.7-1.2 0-.6-.2-1.2-.3-1.3a67.6 67.6 0 0 1-7.1-.5c-2.4-.2-4 .2-4.5 1-.1.3-.4.5-.6.5-.6 0-1.2 1-1.2 1.9l-.5 1.6-.7 1.8c-.1.4-.3.9-.5 1-.1 0-.2-.8-.2-2.6zm-411.8 1c.5-.2.8-.2 1 0 .2.3 0 .3-.8.3-1 0-1 0-.2-.3zm246.7-.4v-5.3c0-1.6 0-1.6.5-1.3.4.5.4.9-.1 5.7-.2 1.7-.4 2.1-.4 1zm198.7-.5c-.1-.6-.3-2.2-.3-3.6v-2.4l2.7-.2c1.6 0 3.3-.3 4-.6l1.7-.4a123.2 123.2 0 0 1 9.2-2.6l1.6-.2-.2.8a7 7 0 0 1-1.3 2l-1 1.2-.7-.5c-.5-.3-1-.4-1.6-.4-1.3.1-1.6.4-1.6 1 0 .9-1.4 1.5-4.9 2l-4.2.5c-1.2 0-1.4.3-1.7 2-.1 1.3-.2 1.5-1 2-.3.4-.4.3-.7-.6zm-148.4-.9c0-.4 0-.5.2-.3v.6c-.1.2-.2 0-.2-.3zm13-1c-.3-.2-.3-.3 0-.3s.5.2.5.4c0 .5 0 .5-.5 0zm9.8 0c0-.2 0-.3.1-.1v.5l-.1-.3zm-153.6-.2c-.9-.4-1.5-1.3-1.1-1.6.2-.3 3.4.7 3.8 1.2.3.4.2.4-.3.6-1 .3-1.3.2-2.4-.2zm130.7-.1.1-.5c.1 0 .3.2.3.5l-.1.5-.3-.5zm-270.3-1.2c.2-.2.6-.4 1-.4l2-.4c.8-.3 1.6-.4 1.9-.3 1 .4-.2 1-2 1l-2.5.4c-.7.2-.8.1-.4-.3zm235.5-.1c0-.4 0-.5.1-.4v.7-.3zm34.4-.6c.1-1.2.8-1.8.8-.6 0 .3-.2.6-.3.6-.4 0-.3.8 0 1 .2 0 .2 0 0 0-.5 0-.6 0-.5-1zm23.2.6c0-.3.2-.5.3-.4.1 0 .2.3.1.5-.2.6-.4.5-.4-.1zm21.6 0c-.3-1 .3-12.2.7-12.6.3-.2.3-.1.4 3l.3 3.8.5 3.6c0 1.6 0 2-.2 1.7-.5-.5-1-.4-1.2.3-.3.5-.3.5-.5.1zm-308.5-1c-.2-.4 3-1.7 3.8-1.6.3.1.8 0 1-.1.2-.2.8-.3 1.2-.3.4 0 .8 0 .8-.2s.4-.3 1-.3c.8 0 .9 0 .4.4-.3.2-.9.4-1.4.4-.4 0-.9.1-1 .3l-1 .2c-.3 0-.7.2-.7.3 0 .2-.2.3-.5.3l-1.5.4c-1.2.4-1.9.5-2 .1zm277.4-1.3c0-1 .5-1.7 1-1.5.1 0 .4-.1.5-.4.1-.6.9-.8.9-.3 0 .1-.1.2-.3 0-.2 0-.2 0-.1.2.2.4-.1 1.6-.5 1.6-.2 0-.6.3-.9.6l-.6.5zm-13.7-.8c0-.3 0-.4.1-.2v.5l-.1-.3zm23.6 0v-1.5l.4-3.9c.3-3 .8-4.6 1.1-4 .4.8.6 6 .2 7.6-.4 1.9-1.3 2.9-1.7 1.8zm26.7-1.3c0-.3 0-.4.1-.2v.5c0 .1-.2 0-.1-.3zm-50.3-.4c0-.1.1-.3.4-.3.2 0 .4.2.4.3 0 .1-.2.3-.4.3-.3 0-.4-.2-.4-.3zm104.5-.2c-1.4-.2-1.2-.6.3-.6 1.1 0 1.5.1 1.5.3-.2.4-.8.5-1.8.3zm-153.7-2.3c0-1.2 0-1.6.1-1v2.1-1.1zm64.8 1c0-.3 0-.6.2-.6s.3.3.3.6c0 .4-.1.7-.3.7-.1 0-.2-.3-.2-.7zm157.8.2c-.2-.7-1.3-1-2.5-.6-2.2.7-2.6 0-.5-1l1.6-1c.1-.2.8-.3 1.6-.3 1.2 0 1.3 0 1.3.8s-.9 2.6-1.2 2.6l-.3-.5zm-141-1v-.4 1-.5zm99.5.5c-.3-.4-.4-.6-.2-.7.4-.3 1 0 1 .5 0 .6-.3.7-.8.2zm-93.5-.7a6 6 0 0 1 0-1.8c.1-.6 0-2-.1-3-.3-2-.5-8.8-.3-10 0-.4.3-.7.6-.7.6 0 1.6 1.1 1.6 1.9 0 .3.2 1 .5 1.5.5.7.5 1 .2 1.1-.2.2-.3 1-.2 3.1 0 2.9 0 3-.7 3.8-.7.8-.7 1-.7 2.8 0 1.5 0 2-.3 2-.2 0-.5-.4-.6-.7zm85.1-.1c0-.2.3-.3.7-.3.3 0 .6.1.6.3l-.6.2c-.4 0-.7-.1-.7-.2zm4.8 0c0-.2.2-.3.4-.3s.4.1.4.3l-.4.2-.4-.2zm-263.9-.5-.6-3.5c0-.5-.3-1.5-.5-2.1-.4-.9-.5-1.8-.4-3.6 0-1.9 0-2.6-.5-3.3-.4-.7-.4-1.2-.3-2.6.3-3 .5-9.2.5-14.7a81.6 81.6 0 0 1 .6-11s.3.3.3.6l.2-1c0-1.5 0-1.7.6-1.9h.6l-.1 2.2a161 161 0 0 0-.6 20.4c0 7.4.1 12.7.3 13.9.4 2.3.5 6.4.2 6.8 0 .2-.2.2-.3-.2zm270.6.3h.8l-.5.1c-.4 0-.6 0-.3-.1zm-84.5-2.3v-2.4c.1-2.6-1.2-3.8-3.7-3.5-1 .1-1.3 0-1.7-.4l-1.2-.6-1.6-.8c-.8-.6-.8-.7-.3-.8.6-.2 3.9.8 4.5 1.3l2.8 1c3 .7 3.2.8 2.4 1.9-.6.6-.7 1-.6 2 0 2 0 3.4-.3 3.4-.2 0-.3-.5-.3-1zm124.4.3c-.2-.3-.3-.7-.2-1.1.4-1.5 1-.8.7.7-.1.7-.2.7-.5.4zm-159.2-1.2.1-.7c.2-.2.3 0 .3.4 0 .8-.1 1-.4.3zm112.2.1c-.3-.2-1.3-.3-2.1-.3a41.7 41.7 0 0 1-9.1-1.2c-1 0-1.9-.4-1.6-.7.2-.2 2.5-.2 2.9 0 .1.1 1.2.3 2.4.3s2.5.2 2.8.3l3 .2 6 .3c3.4.2 8-.2 12-1 1-.3 2.7-.5 3.8-.5 1 0 2 0 2-.2l1.5-.4c2.1-.3 6.5-1.1 7.3-1.4 2.9-1 3.3-1 3-.3 0 .2-.7.6-1.4.7l-3.4 1c-1.1.4-2.6.7-3.2.7a4 4 0 0 0-2 .7c-.4.4-1.4.7-2.2.9l-2.6.3c-1 .2-1.5.1-2.3-.2-1.2-.6-3-.4-3.8.3-.4.4-1.2.4-5.7.5a76 76 0 0 0-6 .2c-.4 0-1 0-1.3-.2zm-65.6-.7c-.3-.2-.7-.6-.9-1-.2-.5-.2-.6.2-.6l1.1.3.7.4.2.6c.1.4 0 .5-.3.5a3 3 0 0 1-1-.2zm-177.4-1.2c-.4-.5-.4-1.5.1-1.5.3 0 .4.3.4 1 0 1 0 1-.5.5zm115.6-.3c0-.2.1-.4.3-.4l.2.4c0 .3-.1.4-.2.4-.2 0-.3-.1-.3-.4zm56.7-.3c-.8-.8-.8-.8-.2-1 .5 0 3.5.5 3.8.8 0 0 0 .2-.3.2l-1.3.4c-1.2.4-1 .4-2-.4zm116 0-.2-.8-.7-.7c-.8-.7-.7-1.5.1-1.5 1 0 2.2 3.1 1.4 3.6-.2 0-.4-.2-.5-.5zm1.6.2c-.5-.5-.6-1.5-.2-1.7.1-.1.3-.8.3-1.6l.1-1.6c.3-.3.9 1.8 1 3.3 0 1.8-.5 2.4-1.2 1.6zM205.2 120v-1.2c.2-.6.2-.6.6.1.3.7.2 1.8-.2 1.8-.2 0-.3-.3-.4-.7zm158.9-.8c0-.6 0-1 .4-1 .2 0 .4.4.4 1 0 .7-.2 1-.4 1-.3 0-.4-.3-.4-1zm18 .3c0-.5 0-.6.1-.3v.7c0 .2-.1 0 0-.4zm-32.4-1.6c-.2-.7 0-1.2.4-1.2.3 0 .3 1 0 1.5-.2.3-.3.2-.4-.3zm215-.6.4-.7c.9-.8 1.8-4.4 2.5-9.6.3-2.4.5-3 .8-2 .2.4-.1 3.5-.6 6s-.1 3.4 1.4 3.3c.7-.1.9 0 1 .5 0 .6-1.1 1.6-1.9 1.6l-.6.2c-.2.2-2.4.9-2.9.9l-.2-.2zM364 116l.1-1.2c.3-.8.7-.4.7.8 0 .9-.1 1.2-.4 1.2-.3 0-.4-.3-.4-.8zm50.4-.9c.2-2.5.6-2.8.6-.4 0 1.6 0 2-.3 2s-.4-.3-.3-1.6zm-15-.3c0-.8.1-1.5.3-1.5.3 0 .3 2.2 0 2.7-.2.3-.3 0-.3-1.2zm-194.3.5c-.2-.7-.2-3 0-3 .5 0 .7 1.8.4 2.7-.1.7-.2.7-.4.3zm-57-.5c0-.5 0-.6.2-.3v.8c-.1.1-.2 0-.2-.5zm142.4-1.7c0-.8 0-1.2.1-.8v1.5l-.1-.7zm166.6-.7c-.3-.3-.2-.4.9-.4.9 0 1.2.1 1.2.4 0 .3-.3.4-.9.4-.5 0-1-.2-1.2-.4zm116-2.4.5-4.5c.4-1.8.7-7.1.9-13.7 0-3 .1-3.6.5-3.2.4.3.2 8-.3 17.2-.2 3.4-.9 6.7-1.4 6.7-.3 0-.3-.4-.2-2.5zm-120 1.4a67 67 0 0 0-6-1.8c-1.5-.3-4-1.6-4-2 0-.5 1.1-.5 1.6 0 .1.2 1 .6 1.8.8l3.5 1.1c2.6.8 4.2.9 4.4.1.2-.7 1-.7.8 0 0 .3.2.9.6 1.3l.8 1c0 .3-2.1 0-3.5-.5zm-102.9-2.4c0-.5.1-1 .3-1l.2.8c0 .4 0 .9-.2 1-.2 0-.3-.3-.3-.8zm-145.2-.6c0-.2 0-.4.2-.4s.3.2.3.4c0 .3-.1.4-.3.4-.1 0-.2-.1-.2-.4zm78.3-.1c-.4-.4-.4-2.6 0-2.6s.5.6.4 1.8c0 .9-.1 1-.4.8zm158-1.2c-.3-.2-.3-.4 0-.5.4-.3 1.5 0 1.5.5s-1.1.5-1.6 0zm-26-2.1c0-2.1.3-2.9.7-1.7.1.4-.4 4-.6 4l-.1-2.3zm39.2 0c0-2.5.6-8.4 1-10.5.4-1.8.8-2.3.8-1 0 .6-.1 1-.3 1.2a44.8 44.8 0 0 1-.6 6 46.4 46.4 0 0 0-.7 6.5c-.1 0-.2-.7-.2-2.1zm108 1v-.3c.2.3.2.6 0 .8v-.4zm-162.6-.5c-.2-.9 0-2.8.3-2.8.4 0 .5 1.6.3 2.5-.4 1.2-.4 1.2-.6.3zm36.9.4c-.5-.7-.7-3-.3-4.2.2-.8.4-2.8.4-6.1a25.4 25.4 0 0 1 1-8.8c0-1 .5-1 .6 0 0 .4.3.6.6.6.7 0 .7.8-.4 4.6-1.2 4.7-1.5 6.9-1 8.7.2.8.3 2 .2 3.1-.2 2-.6 2.7-1.1 2zM283.2 102c.2-3 .5-4.5.7-4.5.4 0 .5.7.4 3.3-.2 3-.2 3.3-.8 3.3-.4 0-.4-.3-.3-2zm274 1.8c0-.2-.3-.7-.8-1.2-.4-.5-.8-1.1-.8-1.3l-.4-1.3c-1-2-1-2-.4-2 .3 0 .6-.2.6-.4 0-.9.7-.1 1.4 1.4l1 1.4c.5.7.6 2 .2 3-.4.7-.8.9-.8.4zm-483.5-.3c.6-.2 1.1-.1 1.3 0 .2.2-.2.3-1 .3h-1.4zM563 98.8c0-2.7 0-5 .2-5 .4 0 .5 1.8.3 4.5l-.4 4.1-.1-3.6zm-486.2 4.4h1.2l-.6.1c-.6 0-.9 0-.6-.1zm491.3-3.5a182.1 182.1 0 0 0 .4-8c.2.8.3 9.4 0 10.6 0 .4-.2.8-.3.8-.2 0-.3-1.1-.1-3.4zm-477.7 2.4-.6-.5 1.6-.3c6.6-1.2 7.3-1.3 7-.5-.2.6-1.3 1-4 1.2l-3 .5c-.2 0-.7-.1-1-.4zm421.8.3c-.4-.2-.5-.9 0-.9.4 0 1.5.6 1.4.9-.2.2-.9.2-1.4 0zM87.8 102c0-.2.3-.4.7-.4.4 0 .7.2.7.4 0 .3-.3.4-.7.4-.4 0-.7-.1-.7-.4zm444.3.2c0-.2.2-.3.4-.3s.4.1.4.3l-.4.2-.4-.2zm-116.6-1 .3-1.6c.2-1 .7-1.2.7-.4 0 1.5-.4 3-.8 3-.3 0-.3-.2-.2-1zm100.8.7c-.1-.3.5-1.6.9-1.6.2 0-.2 1.4-.5 1.7l-.4-.1zm-21.2-.5c-.6 0-1.3-.8-1-1 0 0 1-.2 2.2-.2 1.1 0 2.4-.2 2.8-.3 1-.3 2.6.3 2.6 1 0 .4-.2.5-1.2.4a45.8 45.8 0 0 0-5.4.1zm14.6-.9c-.3-.8.3-1.3.8-.6l.4.8c0 .6-1 .4-1.2-.2zm-219.8-.1c-.3-.3-.2-1.2 0-1.2.4 0 .7.9.4 1.1-.1.2-.3.2-.4 0zm61-.8c0-.3 0-.4.1-.1v.5s-.2-.1-.1-.4zm124-.3-.6-.2.7-.2c.7-.2 1.3 0 1.3.4 0 .2-.4.2-1.4 0zm-42.6-1.3c0-.5.1-.8.3-.7.1 0 .3.5.3.9s-.2.8-.3.8c-.2 0-.3-.4-.3-1zM547 96.4c-.2-1-.3-2.2-.2-3v-1.3l.6 1.2c.2.6.6 1 .8 1 .5 0 .5.7 0 1a4 4 0 0 0-.6 1.5l-.2 1.2zm-18.9.3c-.1-1 0-1.1.5-1 .2.2.4.6.4 1 0 1.2-.7 1.1-.9 0zm9 .3c0-.3 0-1.3.3-2.2.2-.9.3-1.8.2-2.2-.2-1 .2-3 .6-3 .3 0 .3.3.2 1.5-.3 3.1-.6 5.3-.8 5.9l-.3.6zm-186.2-1.9c-.2-1.5 0-3 .3-2.5.3.4.3 2.2 0 3.1-.1.6-.2.5-.3-.6zm203.6.7v-.5c.2-.3.7.1.7.5 0 .6-.5.5-.7 0zm-170.8-1.3c0-.7.1-1.1.3-1 .2 0 .3.5.3 1s-.1 1-.3 1c-.2.2-.3-.2-.3-1zm134.8.6.2-1.2c0-.3.1-.6.4-.6.5 0 .5.1.1 1.4-.2.6-.4 1-.6 1-.1 0-.2-.2 0-.6zm-45.8-.2c0-.4 0-.5.1-.3v.6l-.1-.3zm55.7-1c-.2-.9 0-1.6.4-1.6.1 0 .2.5.2 1.2 0 1.3-.4 1.5-.6.4zm24.7-.5c-.6-.7-.7-1.1-.2-1.1.6 0 1.3 1 1 1.4-.1.3-.3.3-.8-.3zm-152 0c-.3-.3-.2-1.4.1-1.5.2-.1.3.2.3.7 0 1 0 1.1-.4.8zm162-1.3c0-.9.1-1.4.3-1.3.1.1.3.8.3 1.5s-.2 1.3-.3 1.3c-.1 0-.3-.7-.3-1.5zm-179 .5.1-.7c.3-.2.3 0 .3.4 0 .8-.2 1-.4.3zm137.4.3-.2-1c0-.6 0-.7.4-.4.2.1.4.6.4 1 0 .5-.2.7-.6.4zm-11.3-.7c-.3-.6-.2-1 .8-2.7a21 21 0 0 0 1.2-2.8c0-.4.4-1 .7-1.6.5-.8.6-.9.7-.3 0 .3-.1 1-.4 1.6a15 15 0 0 0-.8 2.2c-1.2 4-1.6 4.9-2.2 3.6zm17-.3c0-.4 0-.7.2-.6.2.1.3.4.3.6 0 .2-.1.4-.3.5-.1 0-.2-.1-.2-.5zm-41.5-1a133.4 133.4 0 0 0 .5-7.6c.2-1.8.5-4.1.7-4.4.3-.4 1-2.8 1.4-4.8.3-1.8.8-2.8 1.2-2.4.1.1 0 1.2-.4 2.5a44.5 44.5 0 0 0-1.4 6.2l-.2 1.8a19.3 19.3 0 0 0-1 5.3c-.1 2-.4 3.8-.5 3.9l-.3-.5zM497 89c0-1.2.1-2 .3-2 .3 0 .3 3.1 0 3.7-.2.2-.3-.3-.3-1.7zm22.1 1c-.2-1-.2-2.5 0-2.5s.7.4 1.1.9c1 .9 1.2 2 .5 1.6-.3 0-.7.1-1 .4-.4.5-.4.5-.6-.3zm-102.5 0c0-.3 0-.4.1-.2v.5l-.1-.3zm130-.5c-.2-1.2 0-2 .7-2.3.8-.4 1.1 0 .6.6-.3.3-.6 1-.8 1.6l-.3 1.1zm-89.7-2a33.9 33.9 0 0 1 1.5-8.3c.2-1.3.7-3 .9-3.6l.6-2.6c.4-2.4 1.3-6.2 1.7-7.4.3-.6.4-1.4.3-1.8-.2-.7-1.6-1.4-2.9-1.4-.6 0-1-.2-1-.4 0-.5.4-.5 2.2-.1 1.2.2 1.4.2 2.2-.3l1-.5 1.6.8c1.3.6 2.1.8 3.5.9 1 0 3 .3 4.5.5s5 .4 7.7.5c6.1.1 11.5.8 11.5 1.4 0 .2-.4.5-1 .7-.8.4-1.4.4-2.6.3l-2.1-.4-3-.4a21 21 0 0 1-2.7-.3l-3-.1c-2.6 0-2.9 0-3.5.6l-.6.6v-.6c0-1-1-1.3-3.9-.7-3 .6-3.4.6-4.7 0-1-.5-1-.5-1.3 0-.2.2-.4 1.7-.5 3.6-.1 2.3-.3 3.4-.6 3.8-.3.5-.5.6-.7.4-.9-.8-1.4.2-1.8 3.3-.2 1.1-.5 2.8-.8 3.6l-.8 3.4c-.3 1.9-.5 2.7-1.4 5.7l-.4 1.3zm-55.7 1.4c0-.3.1-.3.2-.1v.5c-.1 0-.2 0-.2-.4zm72.5 0c0-.7.5-2 .8-2l1 .5c.7.4.8.4 2-.3 2-1 3-.8 3 .6 0 .9-.7 1.1-3.5 1-1.7 0-2.6.1-2.9.4-.3.3-.4.2-.4-.2zm89.3-.3c-.1-1 .1-5.4.4-5.2.2.1.6 5 .4 5.6-.3.6-.6.4-.8-.4zm8.9.4c0-.3 0-.4.2-.4s.3.1.3.4c0 .2-.1.4-.3.4l-.2-.4zm-14-.3c0-.2-.3-.7-.7-1-.3-.5-.7-1.2-.8-1.8l-.3-1.5c-.1-.5 0-.6.3-.6l.9-.3c.3-.2.6-.3.7-.2.3.3.4 3.8.2 4.7l-.3.7zM527 87.2c0-.7 0-1.3.2-1.3.4 0 .4 1.6 0 2.1-.2.3-.2 0-.2-.8zm25.9.7c0-.2.1-.4.2-.3.2.1.3.3.3.4 0 .2-.1.3-.3.3l-.2-.4zm-15.6-.8-.3-1.2c0-.4.2-.5.7-.5.9.1 1.1.8.6 1.7-.4.8-.6.8-1 0zm11.9 0c-.6-.7 1.4-1.5 2.7-1 .8.3.5.9-.3.9-.5 0-.9 0-1 .2-.2.4-1 .4-1.4 0zm-109.8-.3c0-.2 0-.4.2-.4s.3.2.3.4c0 .3-.1.4-.3.4-.1 0-.2-.1-.2-.4zm-38.4-1c0-.5.1-1 .3-1l.2.8c0 .5 0 .9-.2 1-.2 0-.3-.2-.3-.8zm45.4.7.1-.5c.2 0 .3 0 .3.3 0 .5-.2.5-.4.2zm27.4-.1c-.5-.5-.4-1.5.2-1.5.8 0 1.2.6.8 1.3-.4.6-.5.6-1 .2zm93.8-2.6c-.2-2.2-.1-3 .2-2.6.2.2.5 5 .2 5-.1 0-.3-1.1-.4-2.4zm-21.9.7c0-.5.3-.7 2.4-1.4 1.7-.6 3.2-.6 3.2 0 0 .5-.6 1-1.3 1-.4 0-1 .1-1.4.4-.9.5-2.9.5-2.9 0zm-284.4-.6c0-.3.1-.6.3-.6l.2.6c0 .4 0 .7-.2.7s-.3-.3-.3-.7zm185.6-.2v-.6c.2-.3.5 0 .3.6 0 .5 0 .5-.3 0zm105.8-.4c-.3 0-.6-.2-.6-.3 0-.4 2.4-.2 2.6.2 0 .3-.7.4-2 .1zm-71.6-.3c-.1-.1 0-.5.2-.9l.4-1c0-.4.2-.5 1.2-.5 1.1 0 1.2 0 1.2.8 0 .4-.2 1-.5 1.2-.6.5-2.3.8-2.5.4zm-196.5-1.7c0-1 .1-1.7.3-1.7.1 0 .2.3.2.7l.2 1.7c.1.8 0 1-.2 1-.4 0-.4-.4-.5-1.7zm116.9-.4v-3.2l.2-1.4.1 2v3.1l-.2 1.2zm161.2.4c0-.4 0-.7.2-.7s.3.3.3.7c0 .3-.1.6-.3.6l-.2-.6zm-88.8-.7c-.2-.2.1-1 .4-1l.8.4a5 5 0 0 0 2 .3c.7 0 1.2.1 1.1.2-.2.2-4.2.3-4.3.1zm88.5-1.2c0-.5.1-.9.3-.9.1 0 .2.4.2 1 0 .4 0 .9-.2.9s-.3-.5-.3-1zm4.7-.4c-.2-1.2-.1-1.8.2-1.5.2.2.4 2.9.2 2.9s-.3-.7-.4-1.4zm-360.7-.2c.3-1.3.7-1.7.7-.6 0 1-.3 1.6-.6 1.6-.1 0-.2-.4 0-1zm210.8.4c0-.3 0-.7.2-1 .2-.3.3-.1.3.6 0 .6-.1 1-.3 1-.1 0-.3-.2-.2-.6zm110.3-.8c0-.8.1-1.5.2-1.5.4 0 .4 2.1 0 2.7-.1.2-.2 0-.2-1.2zM264 78.1c0-.4 0-.6.1-.3.1.2.1.6 0 .8V78zm20.5-.1v-1c.2-.3.4.2.3 1v.9zm66.2-.2c0-.2.2-.3.3-.2.2 0 .2.3.1.4-.2.4-.4.3-.4-.2zm97.2 0c0-.2 0-.5.2-.7.2-.2.3-.1.3.4 0 .8-.2 1-.5.3zm30.4.3c-.2-.1-.2-.3 0-.5.4-.5 1.4-.5 1.7-.1.3.5-.8 1-1.7.6zm-39-2a71.2 71.2 0 0 1 4.4-17c.3-.7.4-.7.7-.3.3.3.3.6 0 1.7a36 36 0 0 0-.5 2.4c-.1.6-.3 1.5-.5 1.8-.5 1.1-1.1 3.4-1.1 4l-.7 2.4c-.3 1-.8 2.3-.9 3a9 9 0 0 1-1.3 3.4c-.3.3-.3 0-.2-1.4zm117.3.4a79.8 79.8 0 0 0-.5-6l-1-.6c-1-.5-4.5-.6-15.8-.6h-6c-2.5-.1-3.2.1-3.2 1l-.5 1.5a24 24 0 0 0-1 2.4c-.2.8-.5 1.4-.6 1.4-.3 0 0-4.2.4-5 .2-.5.3-.8 0-1.3-.2-.5-.4-.6-1.4-.6-.7 0-1.8-.1-2.4-.3-.7-.1-2.3-.3-3.7-.3l-3.6-.3c-1.2-.2-3.5-1.1-4.1-1.6-.2-.2-.6-.4-1-.4-.4-.1-.4-.2.4-.6a26.5 26.5 0 0 1 7.2.2l5 .4c4 .1 4.8.2 5.2.6 1 .9 2.7 1 9.1.9l10.5-.2a36 36 0 0 0 5.5-.2c1.7-.4 5.3-.8 8.4-1a7 7 0 0 0 2.3-.3c0-.5 1.5-.9 3-.9 2.5 0 2.6-.1 2.7-3.8 0-1.8 0-3.5-.2-3.9-.2-1-1.1-1.2-1.7-.5-.3.3-.7.6-.9.6-.2 0-1 .3-1.7.8-1.2.7-1.3.7-2.2.3-1.1-.4-1.1-.4-2 .3-.8.7-1.1.8-1.8.5-1-.4 0-1.4 1.5-1.4.3 0 .7 0 .9-.2.7-.5 1-3.3.4-5.6-.5-2.2-.7-4.6-.4-5.4l.3-.8.3.7.3 1.3.3 1.6c.3.6.6 2.3.7 3.6l.4 3c.2.7 1.1.8 2 .1.3-.3 1.1-.8 1.7-1 1.6-.5 2-1.1 1.9-2.4l-.5-1.6c-.2-.3-.3-1.5-.3-2.7 0-1.8-.2-2.4-.9-3.8l-1-2.4c-.3-.6-.3-.6-.7-.1-.4.3-.5.8-.3 2.8 0 1.4.2 3 .4 3.5.3 1.3 0 2.3-.7 2.3-.3 0-.4-.3-.4-1 .1-2.6-.3-7.7-.7-8-.3-.4-.4-1.5-.5-4.5 0-2.1-.1-4.4-.3-5.1 0-1 0-1.5.2-2 .3-.5.2-.6-.1-1-.3-.2-.5-.8-.5-1.1 0-.4-.1-1-.3-1.4-.5-.7-.6-2.4-.2-2.4.3 0 1.6 1.3 2 2.1a110 110 0 0 1 4.4 18.4c.1 1 .5 2.4.7 3.1.8 1.8 1.4 5 1.4 7.4a50.5 50.5 0 0 0 3 14.7c.2 1 .2 1.1-.3 1.1-.7 0-.9.5-.9 2 0 .9 0 1.2-.4 1.2-.2 0-.4-.2-.4-.5a22 22 0 0 0-1.2-7.7c-1-.8-2.5 1-2.5 2.8 0 1.5-.4 1.5-.7.1-.5-1.5-1.4-2.1-3-2l-2 .5-2.2.5c-2 .3-4 1-4.7 1.5-.6.4-.7.7-.7 2 0 1 0 2.6.2 3.8.1 1.8.1 2.2-.2 2.2-.3 0-.4-.3-.4-.7zm5.6.2c-.3-.5-.1-4 .2-4 .3 0 .5 1.4.5 3 0 1.5-.2 1.8-.7 1zm-177.8-.4c-.2-.2-.2-.8 0-1.9.3-2.2.5-2.1.5.2l-.1 2-.4-.3zm181.8-2.6a20 20 0 0 1-.6-3.5c0-1 0-1 .7.9.4 1.4.6 2.4.5 3.6v1.6zm-148.8.5c0-.5.2-1 .4-1.2.3-.3.4-.2.6.3.2 1 0 1.6-.5 1.7-.4 0-.5 0-.5-.8zm-229.7.2c-.3-.3-.2-2 0-2.1.2-.1.3.3.3 1 0 1.3 0 1.4-.3 1zm284.3-1c0-.5 0-.6.1-.4v.8l-.1-.5zm-70-.8c-.2-.2-.1-1 0-1.5l.3-1.2v1.5c0 1.5-.1 2-.4 1.2zm16-1.9c0-1 0-1.7.2-1.6.3.2.3 2.5 0 3-.2.3-.3 0-.3-1.4zm152.4.3c0-.6 0-.8.1-.5v1-.5zm-105.9.2.3-1.2c.3-1.3.9-1.4.6-.2-.1.8-.9 2-.9 1.4zm-214-.3c-.3 0-.8-.4-1-.7-.4-.6-.4-.8 0-2.3.7-2.5.6-2.7-1.2-4.6-.9-1-1.8-1.8-2.1-1.9-.4 0-1.1.2-2.2.9-1.3.8-2 1-3.3 1-2 .2-3.5-.4-3.5-1.2 0-.7.7-1 1.5-.4l1.2.4c.8 0 3.5-1.1 4.1-1.6 1.5-1.3 3-1 4.8.9 1.9 2 2 2.3 1.8 4.4-.2 1.7-.1 2 .5 2.8 1 1.4 3.3 1.4 3.3 0l.3-2c.3-1.3.3-1.3.8-1 .9.9.5 4.2-.6 5-.5.5-2.7.6-4.4.3zM188 70c0-.6 0-.8.1-.5v1.1-.6zm44.9-.5c0-2.1 0-2.8.4-3.6l.2-.7.2.8c.2 1-.2 4.4-.5 4.8-.2.1-.3-.3-.3-1.3zm213.3 0c.1-1.2.2-1.4.7-1.4.6-.1.7 0 .5.5-.6 2.4-1.3 3-1.2 1zm-94.7-.6c0-.5 0-.8.2-.7.2 0 .3.4.3.7 0 .4-.1.7-.3.8-.1.1-.2-.2-.2-.8zm50.8.3c0-.4 0-.6.2-.3v.8c-.1.2-.2 0-.2-.5zm-17.7-1a72 72 0 0 1 .1-12.2c.1-1.8.3-2.3.6-2.3s.3.3.2 1.6c-.1.8-.3 4.2-.3 7.6 0 3.4-.1 6.2-.2 6.3 0 0-.3-.4-.4-1zm-176.6.4c-.3-.2-.2-5.2 0-7.5.2-1 .4-4.7.5-8 0-7.3 0-7 .3-6.6.3.3.4 4.1.2 13.7-.1 7.2-.3 9.1-1 8.4zm-20-2.6c0-.8 0-1.5.2-1.5.2-.1.3-.6.2-1.1 0-.5 0-1 .2-1.1l.1 2c0 1.8 0 2.4-.3 2.7-.4.2-.4.1-.4-1zm163.5.6-.2-9c-.1-8 0-13 .4-12.7.5.4.7 2.7.6 4.6-.1 1-.2 2.8-.1 3.7.4 8.2.2 14-.4 14-.2 0-.3-.2-.3-.6zm67 .2c0-.3 0-1 .2-1.6.2-1 .2-1 .2.5s0 2-.3 1zm76-.6c-1.7-.1-2-.3-2-.9 0-.5 0-.5 1.8-.3l4.1.2c4.8.2 8.1.5 8.1.7 0 .2-.2.3-.5.3h-11.5zm13.1 0c-.9-.5.5-1.1 1.7-.7.3.2.3.3.1.6-.3.4-1.2.4-1.8 0zm2.7-.2c-.3-.1-.3-.2 0-.5.3-.5.8-.5 1.2 0 .4.5-.4.8-1.2.5zm-107.5-3.1c0-3 .3-5 .8-4.8.3.2 0 4-.3 4.5-.1.2-.3 1-.3 1.7 0 .8-.1.2-.2-1.4zm104 .8c-2.1-.6-1-1 1.7-.8 1.4.1 2 .3 2 .5 0 .3-.4.4-1 .4h-2.8zm6.7-.1h.8l-.5.1c-.4 0-.6 0-.3-.1zm-10.2-.3c-.3-.2-.3-.3.1-.4.6-.3 1.3-.1 1.5.3 0 .4-1 .4-1.6 0zm-2.9-.3c0-.2.4-.3.8-.3s.9.1 1 .3c0 .2-.3.3-.8.3s-1-.2-1-.3zm-267-.5-.2-1.5c0-.5-.1-1.2-.3-1.6-.3-1-.1-2 .4-2 .6 0 .7 1.4.5 3.7-.2 1.5-.3 1.9-.4 1.4zm20.5-.2-.5-1.7c-.2-1.5-1.2-3.2-2.1-3.8-.5-.2-1.6-.6-2.5-.7-1-.2-1.9-.4-2-.6-1-.8 1.9-1.6 3.2-.9 1 .6 3.1 2.7 4 4.2.4.9.6 1.6.6 2.5 0 1.6-.3 2-.7 1zm164.8-.2c0-.6 0-1 .2-.9.2.2 0 1.8-.1 1.8l-.1-1zm66.9.6c-1-.3-9.5-1.1-10-1-.8.3-3.2-.5-3.2-1 0-.3.2-.4 1.4-.2l1.8.2a109.4 109.4 0 0 0 8.3.6 48.7 48.7 0 0 1 10.9 1.3c-.3.3-8.5.4-9.2.1zm9.6 0c0-.1.3-.2.8-.2.6 0 1 0 1 .2 0 .3-1.6.3-1.8 0zm2 0 .4-.2c.3 0 .4 0 .4.2s-.1.3-.4.3c-.2 0-.3-.1-.3-.3zm-40.6-1c0-.2 0-.3.3-.3.2 0 .4.1.4.3l-.2.2c-.2 0-.4 0-.5-.2zm-1.7-.3c0-.3.6-.3 1 0 .4.2.3.3-.3.3-.4 0-.7-.1-.7-.3zm15-.8c-.1-.1.1-.3.5-.3s.6.2.5.3c0 .2-.3.3-.5.3s-.4-.1-.5-.3zm-20.5-.5-.6-.5c0-.5.6-.6 1.4-.1.5.3.6.5.4.6-.4.3-.4.3-1.2 0zm102.1-.8-.9-.5.7-.4c.7-.5.8-.5 1.7-.1 1.5.6 3 .5 3.3-.1.2-.4.3-2 .3-3.9 0-2.2 0-3.4.2-3.7a8 8 0 0 0 .5-2.6c0-2 .1-2.2.5-1.9.3.3.3.8.1 2.2 0 1-.2 3.6-.1 5.7v3.8l.9.5c.6.4.7.5.5.8-.2.3-1 .4-2.8.4-1.3 0-2.8 0-3.2.2a3 3 0 0 1-1.7-.4zm-22-.1-7.1-.3c-7-.1-13.7-.4-20.8-1l-7.5-.3a122.5 122.5 0 0 1-16.4-1l-5-.5-5-.5a50 50 0 0 1-11.7-2.5c-1.4-.4-3.6-.6-4.5-.3l-2.3-.1c-1.6-.2-1.8-.2-2.1.2-.2.2-.4.7-.4 1l-.4 1.4-.5 1-.2-.9a4 4 0 0 1 0-1.7 55.6 55.6 0 0 1 8.2-26.3l.7-1.6a7966.2 7966.2 0 0 0 3.9-7.7c.5-.5 1.3-2.6 1.3-3.3 0-.9 1-1.4 3-1.5 2.3-.2 7.5-.2 13.3 0l4.3.2.5-.8c.5-1 .8-1 1-.1.2 1 1 1.4 2.6 1.5l5 .4 3.5.3 1-.7c.7-.4 1.3-1 1.4-1.2l-.5-1.7c-.4-.7-.7-1.5-.7-1.9 0-.3-.4-1-.8-1.6-1-1.3-1-2.5-.3-3 .4-.2.5-.4.2-.8-.4-.8-.7-1-2-1.7l-1.1-.6-1 1c-1 1.2-1.6 1.4-1.6.7 0-.6 2.3-3 3-3.2.9-.2 3.4 1.1 4.8 2.5l1.2 1.4c0 .1.4.5 1 .8 1.4 1 3 2.3 3.6 3.5l.7 1h20.9l.9-1a4 4 0 0 0 .9-1.3 53.2 53.2 0 0 0 4.6-4c.6 0 0 .8-2.3 3-1.8 1.8-2.6 2.7-2.8 3.4-.3 1.1-1.2 2.3-1.8 2.3a6 6 0 0 1-1.6-.7c-1.2-.6-1.2-.6-7-.5a54.4 54.4 0 0 0-7.9.6c-.4 0-1 .3-1.4.6-.3.3-.8.5-1 .5-.6 0-1.3 1-1.1 1.5.2.4 1.8 1.2 3.3 1.4 3.8.7 4.3.8 4.8.5a126.7 126.7 0 0 0 12 .4c4 .2 5.3.3 5.6.6.3.3.3.4 0 .6-.2.2-.5.3-.7.3l-.8.4c-.4.4-.4.7.6 5.8a54 54 0 0 1 1 10c.1 3.4-.2 5-.4 2.7l-.6-2.8c-.2-.8-.4-2.9-.5-5 0-2.6-.1-3.5-.5-3.8-.6-.6-1 0-.6 1.2.2.8.1 1.1-.2 1.6-.2.3-.4.8-.4 1.1 0 .5 0 .5-.3.1-.3-.5-.3-2.2-.2-6.8.1-4 .3-3.9-5.7-4.2a99 99 0 0 0-5.5-.1 48.2 48.2 0 0 0-10.3-.8 149 149 0 0 1-19.4-1.1c-1 0-2.5 0-3.2-.2-1.3-.3-1.4-.3-2.1.5-.6.5-.8 1-.9 2a14.5 14.5 0 0 1-1.4 6c0 1.4-.6 1.7-1.7.7-.6-.6-.6-.8-.3-1.2.1-.3.5-.6.8-.6.3 0 .4-.2.4-.6 0-.4 0-.7-.2-.7s-.3-.7-.3-1.6c0-1.4 0-1.7.8-2.5l.8-1.4c0-.3.1-.6.3-.6.2 0 0-.2-.3-.5-.8-.7-2.4-.9-5.5-.7l-4.4.3c-3 .2-5 .4-5.4.6-.4.3-1 1.4-1.4 3.2-.2 1-.8 2.7-1.2 3.7l-1.6 4.4c-.8 2.9-1.8 4.6-2.5 4.7-.7 0-1.7 1.8-2.8 4.5-.3 1-1 2.2-1.3 2.7-.3.5-.6 1.2-.6 1.5l-.4 1.4a33 33 0 0 0-1 2.8l-.8 2.5-.2 2c.1 1.3.2 1.5.8 1.8 1 .4 7 1.5 9.5 1.7 1.6 0 6.1.7 6.3.9.2 0 .7 0 1.2-.2.9-.2 1.5-1.1 1.5-2 0-.8.8-3 1.1-3.4.4-.3.1 2-.4 3.5-.3.9-.3 1.2 0 1.8.4.7.6.9 2.2 1.1a46.4 46.4 0 0 0 5.3.9 34.1 34.1 0 0 0 8.7.5c1.4-.4 3.8-.4 5.4 0 2.2.6 2.7 0 3-3.8.1-2.5.5-3.7.9-3.5.4.3.3 2.4-.2 4.4-.4 2-.3 2.8.6 3.1 1 .3 9.6 1.2 12 1.1a80.6 80.6 0 0 0 16 1.3c1.5 0 3.7 0 5 .2h2.8c.4-.4.4-5.6 0-6.7-.2-.4-.3-2-.4-3.7 0-2.4 0-3 .3-3s.7 1.1.7 2.4l.4 2.4c.2.9.5 3 .6 4.8l.4 4.1c.2.8.2.9-.4.9a2 2 0 0 1-.8-.1zm-32.8-45c0-.2-.2-.4-.4-.4s-.4.2-.4.4.2.4.4.4.4-.2.4-.4zm1.2-1c0-.3-.1-.7-.4-1l-.5-.6v1c0 1 .6 1.3.9.5zm-.1-5.1c0-.4-.4-1-1-1.4-1.8-1.5-2.4-1.2-1.5.8.7 1.7 2.5 2.1 2.5.6zm37.6 51c-1.2-.1-1.3-.6 0-.6 1.1 0 2.3.3 2.2.6-.1 0-.4.2-.6.1l-1.6-.1zm3.4 0c-.2-.2-.2-.3.1-.4.5-.2 1 0 1 .3s-.6.4-1 0zm-6.6-.3c0-.2 0-.3.2-.3s.3.1.4.3c.1.1 0 .2-.2.2s-.4 0-.4-.2zm14.4 0a90 90 0 0 0 .6-11.5c-.2-3.7 0-5.2.5-5.2.6 0 .7 1 .8 7.1 0 5.2 0 6.3-.4 6.7-.2.3-.3.9-.3 1.7.1 1.2 0 1.3-.5 1.4-.3 0-.6 0-.7-.2zm-102-.8.3-1c.2-.7.8-.9.8-.3 0 .5-1 1.8-1 1.3zm-204.9-1.3-.1-1.8c0-1 0-1-1.1-.7-1 .1-1.1 0-1-.3 0-.5.4-.8 1.3-1 .6-.2.7-2 .2-2.5l-.6-1a4 4 0 0 0-1.2-1.1c-1.6-1-2.7-2-2.7-2.5 0-.6 1.2-1.4 2.7-1.8a18 18 0 0 1 3.8-.3l3.7-.1c1-.2 1-.2 2.4 1.3l1.4 1.8c0 .5-.8 1.1-2 1.5-.5.2-1.3.6-1.7 1-.7.6-.8.8-.6 2v1.2c-.2 0-.9-.2-1.7-.6-.7-.3-1.4-.5-1.6-.3 0 0-.2 1.2-.2 2.5 0 3.4 0 3.4-.5 3.5-.2.1-.4-.1-.5-.8zm4.8-8.8c1.8-.8 2.7-1.5 2.7-1.9l-.8-.6c-1.2-.6-5.9-.5-7 .2l-.6.4 1.1 1.2a9 9 0 0 0 1.8 1.5l.8.6c0 .2 0 .1.1-.1.1-.3 1-.8 2-1.3zm-112.8 9.4c.2-.1.6-.1.8 0h-.8zM419 55.6c0-.6.1-.9.3-.8l.2.8c0 .4 0 .7-.2.8-.2.1-.3-.2-.3-.8zm-175.2-.5c0-.5.6-.8.9-.4v.6c-.2.3-.9.2-.9-.2zm-9.4-1.1c0-.5 1.5-1 2.2-.8.4.2.4.2 0 .5-.1.2-.8.5-1.3.6-.9.1-1 .1-1-.3zm185-.8c-.2-.3-.2-1.4.1-1.6.2 0 .3.3.3.8 0 1 0 1.1-.4.8zm-155.4-2c0-.5 0-.7.1-.4.1.3.1.6 0 .8V51zM419.6 49c0-1 0-1.2.4-1 .2.3.4.7.4 1 0 .3-.2.7-.4 1-.3.2-.4 0-.4-1zm-304.6.7h.6c0 .2-.1.2-.4.2-.3 0-.4 0-.2-.2zm149-2.2c-.2-2 0-2.9.5-2.9s.7 1.4.5 3.1c-.3 2-.8 1.9-1-.2zm156-.7c0-.2 0-.3.2-.4.1-.1.2 0 .2.2 0 .5-.1.5-.4.2zm-15.3-1.5.1-1.2c.2-.6.2-.4.3.6 0 1.4-.1 1.6-.4.6zm158.1-.6a27.5 27.5 0 0 1-.2-10.3c.4-.3.5-.3.9 0 .3.2.3.6.2 1.6a144.4 144.4 0 0 0-.5 4.6 5 5 0 0 0 .2 2.6c.6 1.8 0 3.2-.6 1.5zm-6-1.7-.4-2c0-1.4-1.7-6.9-2.4-7.6-.5-.6-.5-.6.1-1.6l.7-1 .4.7c.2.3.4.7.4 1 0 .7.9 4.3 1.3 5.3.3.6.6 1 1 1s.5.1.1.7l-.4 2.8-.3 2.2zM209 42.2l.1-3.3.6-4c.7-5.4.8-5.6 1.7-6.3 1-.6 10-.9 10.6-.3.4.3.3.3-.3.5-.5 0-1.7.4-2.8.6-1 .3-3.2.6-4.6.7-2.8.1-2.7 0-3.4 1.8-.5 1-.6 2.5-1 7l-.4 3.9c-.3.5-.3.5-.5-.6zm142.9-1.4c-.3-2.6 0-6.6.4-8l.4-1 .2 1.7c.1 1.7-.2 6.2-.6 8.4-.2 1-.2.9-.4-1zm-88.9.7c-.4-1-.8-4-.8-6.8 0-2.5-.1-3.4-.4-3.7-1-.8-3.3-1.8-5.1-2a395.6 395.6 0 0 0-32.6-.7c-.4-.1-.4-.2.4-.5.6-.2 1.9-.4 4-.4a724.5 724.5 0 0 1 30.9.7l2.5.3.6 1c1.4 2.5 1.5 2.8 1.3 5.3a1088.4 1088.4 0 0 0-.8 6.8zm122.2-.3.3-.3.1.3c0 .1-.1.3-.3.3-.1 0-.2-.2-.1-.3zm35-1c0-.3.2-.3.2-.1v.5l-.1-.4zm126.9.1c-.2-.1-.4-1.8-.6-3.6a88 88 0 0 0-2.7-15.7c-.6-2.2-1.1-2.5-5.7-2.5-3.6 0-4.7-.3-5.8-1-.8-.5-.9-1-.2-.9 2.4.2 3.8-.4 3.8-1.7 0-.4.2-1 .4-1.5.4-.8.4-1 0-2.2a49 49 0 0 0-4.2-9c-.5-.6-.5-.7 0-.9.6-.2 2.2 1.5 2.2 2.4 0 .3.3 1 .7 1.2l.6 1c0 .3.3 1 .7 1.5 1 1.3 1.2 2.6 1.3 6.1 0 1.6.2 3 .3 3l3 .3c1.7 0 4 .2 5.2.4 1.1.3 4 .5 6.2.7 3.3.2 4.3.3 4.6.6.4.4.6.4 1 .2s.7-.2 1.3 0c.4.2.9.2 1 .1h1.1c.6.2 1 .6 1.9 1.8 1 1.5 1.3 2.6.8 2.6s-3.2-1.4-3.2-1.6a3 3 0 0 0-.6-1c-.4-.6-.7-.8-1.9-.9-1.3-.1-2.8.2-3.1.7-.1.1 0 .8.2 1.5.4 1.4.4 2.4 0 2.4-.2 0-1.3-2.2-1.3-2.8 0-.8-.5-1.5-1.1-1.5a5 5 0 0 1-1.5-.3c-.5-.2-1.9-.5-3-.6-1.1 0-2.2-.2-2.3-.3h-.9l-.6.2.5 1.2c.5 1.2.7 2 1.3 6.4a23.6 23.6 0 0 1 .8 5.9c0 1.8.3 4.4.4 5.7.2 2.4 0 3-.6 2.1zm-162-.5a75.2 75.2 0 0 1 2-22.8c.2.9.1 2 0 2.4a64 64 0 0 0-.9 7.4c0 1.1-.3 2.2-.4 2.4-.1.2-.2.5-.1.7l-.1 3.1v4.1c.3 1.7 0 3.3-.4 2.7zm20.4-4.2c0-1.2 0-1.7.1-1v2.2-1.2zM495 33c.2-1 .3-2.1.6-6.3a108.7 108.7 0 0 1 .8-7.4c0-.5 1.7-1.1 2-.7l.2.7c0 .8-1.2 5.2-1.6 6.3-.4.7-.5 1.8-.5 2.8 0 2.2-.8 5.5-1.3 5.5-.3 0-.3-.2-.2-.9zm65-1.2c0-.5 0-.7.1-.5v1-.5zm-207.5-2.1a62 62 0 0 1 0-8c0-1.1.1-1.3.5-1 .3.3.3.9.2 3.7 0 1.8-.2 4.1-.4 5.1l-.2 1.9zm210.1 1c0-.4-.2-1.5-.5-2.4-.6-1.9-.7-2.6-.2-2.6.6 0 1.5 2.5 1.5 4.3 0 1-.1 1.2-.4 1.2-.2 0-.4-.2-.4-.6zm-2.7-.2c-.3-.2-.2-1.1 0-1.1s.3.3.3.7c0 .6 0 .7-.3.4zm-35.4-.7c0-.3.1-.4.2-.2v.5c-.1.1-.2 0-.2-.3zm32.2 0v-.6c.2-.3.4.1.3.6-.1.5-.1.5-.3 0zM405.8 29c-.2-.2 0-12.2.3-12a137.2 137.2 0 0 1-.3 12zm82.4-.8c0-.4 0-2 .2-3.3l.1-2.5.2 1.8c.2 2.3 0 5-.3 5l-.2-1zm-200.8-.5c0-.6 0-.8.1-.5v1l-.1-.5zm271.4-.6c0-.2.2-.4.4-.4s.4.2.4.4c0 .3-.2.4-.4.4a.4.4 0 0 1-.4-.4zm-84.7-.7c0-.4.2-.7.3-.7.3 0 .3.5 0 1-.2.4-.3.3-.3-.3zm81.4-.5c-.2-1 0-1.5.2-1.2.3.2.5 2.3.2 2.3l-.4-1zm5.8-1.6c-.2-.6 0-.9.4-.6.3.2.4 1.2 0 1.2l-.4-.6zm-72.9-2.5c0-.3.1-.3.2-.1v.5c-.1 0-.2 0-.2-.4zm-258.9-.4c-.4 0-.6-.2-.4-.2h8.4l.8.2-1 .1c-1 .3-6.6.2-7.8 0zm299.6-4c-.4-.5-.2-.7.8-.7.6 0 .9.1.8.3-.1.4-1.3.6-1.6.3zm-1.4-2.5c-1.7-.1-2-.4-2-2 0-1 .3-1.8 1-3.4 1.1-2 2-3.4 2.5-3.4s.2 1.1-.6 2.7c-1 2.2-1 2.4.8 3.4.9.4 1.6 1 1.7 1.2.3.7.2 1.4-.2 1.5-.5.2-.7.2-3.2 0zm-140.3-3c0-1.3 0-1.3.3-.7v1.5c-.3.6-.3.5-.3-.8zm94.4-1c0-.4 1.6-2.7 2.8-4a27 27 0 0 0 1.5-2c.5-.7 1.4-1 1.2-.3-.3.6-2.3 3.2-3.7 4.8l-1.3 1.5c0 .1 0 .2-.2.2a.3.3 0 0 1-.3-.2z"/>
</svg>
