<?xml version="1.0" encoding="utf-8"?>
<svg xmlns="http://www.w3.org/2000/svg" xmlns:svg="http://www.w3.org/2000/svg" version="1.1" viewBox="0 0 612 277">
	<title>John Joiner sniffs around under the floorboards. Next to him is his tool bag, out of which is spilling a hammer, a saw, a screwdriver and a small pile of nails.</title>
	<path d="M331.3 276c0-.2 0-.3.4-.3.3 0 .5.2.5.4s-.1.4-.3.4c-.2 0-.5-.2-.6-.4zm-12.8-7.3-2.5-1.3c-1.6-.8-4.8-2.2-6.5-2.8-1-.3-2.7-1-4-1.7a85 85 0 0 0-7.7-3.4l-2-1c-.6-.4-1.4-.9-1.8-1-.5 0-1.5-.5-2.3-.9a58.7 58.7 0 0 0-5.6-2.5 90.5 90.5 0 0 0-7.7-3.2l-1.7-.6a9 9 0 0 1-1.8-.8c-.9-.5-2.4-1.1-3.5-1.5l-2.7-1.3c-.4-.3-1.4-.7-2.4-.9-.9-.1-1.8-.4-2-.5 0-.2-.4-.3-.6-.3-.3 0-1.2-.3-2-.7l-2.7-1c-.6 0-1.7-.4-2.5-.8a105.8 105.8 0 0 0-6.6-3l-.6-.3c-.2 0-4.3-1.7-6.4-2.7a69.8 69.8 0 0 0-10.3-4 57.7 57.7 0 0 1-8.5-3.2 58 58 0 0 1-5.3-2.3l-3.5-1.5-4.6-2c-1.4-.6-2.4-1.4-2.2-1.8a59.2 59.2 0 0 1 13.7 5l3 1.4c.7.4 2.2 1 3.3 1.3l3.3 1.2 4.4 1.7a139.8 139.8 0 0 1 13 5.3 141.2 141.2 0 0 1 9 3.6l3.4 1.4a31 31 0 0 1 7.6 3.2c.3 0 .7.2 1 .4l2.2 1c1 .2 2.7 1 3.8 1.6 1.2.5 2.8 1.2 3.6 1.4a47.9 47.9 0 0 1 7.6 3l1.5.5a49.6 49.6 0 0 0 2.8 1.3l1.6.7c.8.3 2.7 1 4.3 1.9l4.3 2a158 158 0 0 1 19.3 8.9l.4.7c0 .7-1.3.4-3.1-.5zm-79.1-14.1c-.3 0-1.4-.6-2.6-1.2l-2.6-1-2.3-1-2.1-1.1-1.8-.7c-.8-.4-2.1-.9-2.9-1l-3-1.2-2.3-1c-.4 0-1.9-.7-3.4-1.4-1.5-.8-3.9-1.8-5.4-2.3-1.5-.5-3.6-1.4-4.7-2-1.1-.5-2.4-1-3-1.1a45 45 0 0 1-6.1-2.6l-2.3-.8a52.2 52.2 0 0 1-7.4-3.1l-1.6-.7-4.4-1.7a38 38 0 0 1-7.5-3.3c-.5-.1-2.8-1-3.8-1.6l-1.2-.4-3.4-1.6-3.5-1.6c-.3 0-1.3-.4-2.8-1-.9-.5-1-1-.3-1a68.1 68.1 0 0 1 12.1 5c.3 0 1.7.6 3.3 1.5l1.7.6 5 1.8c2 .8 4.2 1.5 4.9 1.6a986 986 0 0 0 14.4 5.6 59.6 59.6 0 0 0 8.4 3.3c.1.2.7.4 1.3.6 1.3.4 3 1 3.6 1.4a106.6 106.6 0 0 0 6.2 2.7l1.7.8a60.2 60.2 0 0 1 11.9 5.4l3 1.4a30.6 30.6 0 0 0 3.9 1.7c.4.3.5.5.3.8-.4.4-.7.4-1.3.2zm90.3-4.3-1.4-.5-1.9-.8-2.5-1-2.3-1a6 6 0 0 0-1.6-.7c-.4 0-3.6-1.2-5.4-2l-2.2-.8c-.8-.2-1.7-.7-2-1l-.5-.5.5-.1c.5-.1 4.5 1.2 6.6 2.2a73.9 73.9 0 0 0 7.5 2.8c1 .5 3.5 1.5 3.8 1.5.2 0 .7.4 1.2.8a6 6 0 0 0 1.5.8c.5.2.6.7.1.7-.2 0-.8-.1-1.4-.4zm61.4.3a3 3 0 0 0-1.1-.6c-1.4-.4-3.2-1.3-4-1.8-.7-.5-2.5-1.2-5.7-2.3l-2.5-1c-.9-.4-1.7-.8-3-1.2l-2.2-1-4.2-1.7c-.5-.1-1-.4-1.2-.6-.2-.2-.7-.5-1.2-.6-.5 0-1.4-.4-2.2-.8l-1.6-.6-3-1.2a198.5 198.5 0 0 0-7.1-3c-3.5-1.5-4.4-2.1-3.8-2.7.3-.3 2 .2 4.5 1.3l1.8.8 2.2 1a97.7 97.7 0 0 0 6.6 2.8l1.5.7 1.5.9 1.1.4a33.3 33.3 0 0 0 4.4 1.6 52 52 0 0 1 7.8 3.4 112.4 112.4 0 0 1 9.8 3.8c2.6 1 3.6 1.8 2.8 2.4-.5.3-1 .3-1.2 0zm-145.3-5.4a1460.7 1460.7 0 0 1-7.3-3.4l-2.2-1-3.6-1.4-3.3-1.3a166 166 0 0 0-16.8-7c-5.4-1.8-8.4-3-11.3-4.5a45 45 0 0 0-6.2-2.5l-3.4-1.5-3.7-1.7-5-2a155.7 155.7 0 0 0-10.4-4.1c-1.6-.8-2-1.1-2-1.6s0-.5.8-.3a47.4 47.4 0 0 0 6 2.2l2.7 1c.5.3 1.2.6 1.5.6.3 0 .7.2 1 .4.2.2 1.1.5 2 .8.8.2 2.1.7 2.9 1.2l3.4 1.4 2.3 1a197.9 197.9 0 0 0 11.2 4.8l1 .6a33.2 33.2 0 0 0 4.2 1.7c3.4 1 7.3 2.6 9.1 3.6l2.5 1c.8 0 1.5.3 1.7.5l1.7.6c.8.2 2.3.9 3.5 1.4 2.5 1.3 7.4 3.2 8 3.2l2 1 4 1.6a19.7 19.7 0 0 1 5 2.6c.5.3.9.7.9.9 0 .5-1.2.6-2.2.2zm61.3-4-5.6-2.6c-1.1-.6-1.6-.9-1.6-1.3 0-.3.2-.5.5-.5.7 0 8.6 4 8.7 4.4.2.5-.9.4-2 0zm-10.6-5.3-3.3-1.6a354 354 0 0 1-6-3 59.7 59.7 0 0 0-8.5-3.6l-2.2-1c-1-.3-1.4-.4-3.3-1.2l-2.2-.9-2.5-1-2.7-1.2a277.8 277.8 0 0 0-12.3-4.9c-2-1-5.5-2.3-8.1-3-1.4-.4-3.3-1-4.1-1.5a55 55 0 0 0-5.4-2 47.6 47.6 0 0 1-6-2.2 22.7 22.7 0 0 1-6.1-2.9l-2.1-1c-.4-.3-1.4-.6-2.2-.8l-2.8-1a64.5 64.5 0 0 0-12.4-4.7 19 19 0 0 0-4.3-1.6 53.3 53.3 0 0 1-16.6-5.8 33 33 0 0 1-6.2-2l-3.8-1.2c-.8-.1-1.9-.5-2.3-.8-.4-.3-1.5-.8-2.4-1.1a70.5 70.5 0 0 1-9.3-3.7 68.2 68.2 0 0 1-10.7-4.4c-.7 0-3.4-1-5.5-2.1-.8-.5-1.7-.8-2-.8l-1.3-.5c-.5-.2-1.4-.6-2-.7a294.5 294.5 0 0 0-14.3-5.7 234 234 0 0 0-14.6-6.4c-1.2-.5-2.5-1.2-3-1.6-.5-.4-1.4-.8-2.1-1-.6-.2-2-.7-3-1.3-2.5-1.3-3.5-1.3-8.4-.3a142.5 142.5 0 0 1-8.8 1.7l-7.5 1.5-2.9.9-3.5 1.1c-2.5.6-3.3.5-4.3-.6-.3-.3-1.4-.9-2.3-1.2-1-.3-2-.7-2.2-.9-.2-.2-.9-.5-1.5-.6l-2.8-1a383.9 383.9 0 0 0-13.3-6l-2.3-1-2.7-1a16.7 16.7 0 0 0-6-1.8 95.8 95.8 0 0 1-10.3-.9 84.8 84.8 0 0 1-5.8-.5c-1 .2-3.2-.3-3.7-.8-1-1-.4-1.1 2.1-1l4.7.4c1.3 0 2.8.3 3.3.5.8.3 2.4.6 5.5 1 .5.2 1 0 1.2-.1.4-.3.4-.4-.2-1-.3-.3-.8-.6-1.1-.6-.8 0-1.5-.6-1.5-1.3 0-.3-.2-.7-.5-.9-.6-.4-.7-1.1-.1-1.3.8-.3 1.5-.2 2.9.5 1.3.6 2.8.8 2.8.4 0-.2.2-.4.6-.6.5-.2.9-.1 2.4.7 1 .5 2.1 1 2.5 1 1 0 1.7.5 1.5 1 0 .3-.4.5-.7.5-.8 0-.5.6.3.8.8.2 1.1 0 1.4-.6 0-.3.4-.5.8-.5 1 0 2.5.8 2.8 1.3.2.4.5.5 1.5.4 1-.1 1.6 0 2.4.4.7.4 1.4.6 1.7.5.5 0 .4-.2-.7-.9-.7-.5-1.5-.9-1.8-.9-.2 0-1-.3-1.7-.8-.7-.4-1.5-.7-1.8-.7-.2 0-.6-.4-.7-.8-.3-.7-.5-.8-1.1-.8-.5 0-.8-.2-.9-.5a8 8 0 0 0-2.6-2.4c-.6-.3-3.6-3.3-3.6-3.6 0-.6.4-.5 1.4.4 1 1 3.8 2.9 6.2 4.2l2.5 1.6c1.5 1.2 8.2 4.8 8.8 4.8.2 0 .5-.2.6-.4.2-.7 1.3-.5 2 .3a36 36 0 0 0 7.8 3.9l3.4.8c1.3.2 2.4.6 3 1 .9.6 1.3.7 3 .7 1 0 2.2-.1 2.6-.4 2.9-1.5 4.8-2.1 8.7-2.8a8 8 0 0 0 2.2-.7c.5-.3 1.7-.6 2.7-.8l3.3-.9a9 9 0 0 1 2.5-.5c.5 0 1.5-.2 2-.5 1.3-.6 3.6-1.3 5.2-1.4 2.2-.3 2.5-.4 3.2-.9.5-.3 1.3-.5 2.4-.5.8 0 1.8-.2 2.1-.3.4-.2 1-.3 1.5-.3l2.3-.4c.8-.3 1.9-.4 2.3-.4l2.8-.4c3-.7 5.5-.9 7-.7 1 .1 1.2.2.7.2-.4 0-1.3.4-2 .8-1.4.8-1.3.6-2.3 4-.1.5-.4.7-.9.8-.8 0-1-.5-.5-2 .4-1.3.4-1.4-.4-1.7-.5-.2-1.2-.1-2.5.2-1.8.4-1.8.4-1.8 1.3.1 1.1-.3 2.2-.8 2.5-.3.2-.5.1-.6-.2-.3-.7-.2-1.5.2-2.1.4-.5.3-.6-.4-.7-.4-.1-1.1 0-1.5.1-.8.3-1.1 1-1.1 2.6 0 .4-.2 1-.4 1.2-.6.8-1 .2-1.1-1.4-.1-1.6-.4-1.9-1.7-1.9-1.2 0-1.6.5-1.7 1.8 0 .5-.2 1-.4 1.2-.4.4-1-.5-.9-1.2.1-.6 0-.8-.5-1-.6-.3-.8-.2-1.7.4l-1.2 1-.2 3.2c0 2.2 0 2.9.3 3 .4.1 3.7-.5 5.4-1 2.4-.7 10.2-2.3 12.7-2.6a21 21 0 0 0 3.3-.8c1-.3 2.6-.7 3.7-.8l3.2-.7 2-.4c1.5 0 2-.7 2.1-3l.2-2.2-.9-.8c-.4-.4-.8-1-.8-1.3 0-1-.9-1.3-4.1-2-1.7-.3-4.6-1.2-6.2-1.9l-2.1-.7-2.6-.8a608.8 608.8 0 0 0-26.8-9 73.7 73.7 0 0 1-15-5.3l-3.5-1.3c-2.4-.8-3.2-1.4-3.2-2.4s.7-1 3 .1a77.4 77.4 0 0 0 11.8 4.7c2.6 1 3.8 1.3 4.2 1.3l1.2.4a82.8 82.8 0 0 0 11.3 4 96.9 96.9 0 0 0 5.6 2c.5.3 1.2.5 1.5.5l2 .6a297.5 297.5 0 0 0 3.8 1.5c2.3.8 5 1.7 8.1 2.4l5.2 1.6c3.7 1.2 5.4 1.6 8 2 1.7.2 1.9.7 1.5 3.6-.7 4.8-.7 4.3.1 4.7 1.6.8 1 1.7-1.4 2.3l-2.5.6a243.9 243.9 0 0 0-21.6 4.4l-3.3.5c-.9.1-1.8.4-2.1.6-.3.2-.7.3-1 .3l-1.8.3-1.4.3.8.8c1 .8 3.4 2 3.9 2l1.9.9a36.5 36.5 0 0 1 7.1 3 96.6 96.6 0 0 0 14.6 6.5l3.3 1.4c1.4.7 3.4 1.4 5 2 .3 0 1.1-.2 1.9-.6.7-.4 1.6-.7 2-.7l2.6-.6 4-1c1.2-.1 2.6-.5 3.2-.7a29 29 0 0 1 6.3-1.1c1.4-.2 2.5-.6 2.9-.8l1.4-1c1-.4 1-1 .3-2-.4-.5-.6-.6-2.6-.5a121.3 121.3 0 0 1-10.4-.2c0-.2-.2-.3-.5-.3-.5 0-.8-.4-.6-1 .1-.4 1.2-.4 1.6 0 .4.4 1.1 0 1.1-.5l-.4-.8c-.5-.5-.3-1 .3-.7.2.1.5 0 .6-.1.3-.4 2.6-.8 3.9-.6.7 0 1 .3 1.1.6 0 .3 0 .5-.2.5-.1 0-.3.2-.3.4 0 .3.2.4.5.2a45 45 0 0 1 3.6-1.4c.4-.3 6.6-1.9 7.3-1.9.3 0 1 .3 1.4.7.5.5 1.3 1 2 1.3 1 .4 1 .5.5.8-.4.3-1 .4-2 .3-3.2-.4-3.8-.4-4.3-.2-.9.5-.6 1 .5 1 .8 0 1.2.2 1.5.7.2.4.8.7 1.2.8.5.2 1 .5 1.3 1 .7 1.1.5 1.6-.6 1.4-.7-.2-.7-.1-.6.5l.5 1.6c.4 1 .4 1.1-.1 1.7-.5.6-.6.9-.5 3.9 0 3.5.3 4.7 1 5.4.3.5.3.6 0 1.2l-.5.6 1.5 1c1.7 1 3.6 3.3 3.6 4.3s.4 1.6 1.5 1.8c.5 0 1.9.5 3 1l3.3 1c.8.1 1.5.4 1.6.5l1.6.7a53 53 0 0 1 4.5 1.3c1 .1 1.1 0 1.3-.4 0-.3.5-.8 1-1 .6-.4 1-.8.9-1 0-.1-.8-.4-1.7-.6-2.5-.5-2.6-.5-2.6.2 0 .8-.5 1.1-1.2 1-1-.1-1-1.2 0-1.6.6-.3.7-.4.5-1-.6-1.5 2.4-1.8 6.8-.6 3.2.8 3.7 1 4 1.9.4.6.7.7 2.8.2 2.2-.6 2.8.9.7 1.9-1.2.6-2 1.3-1.7 1.7.4.6-.2 1.5-1.1 2l-1 .3 1.2.6 2 .8c.9.1 1 0 1.6-.5.5-.5.7-.6 1.4-.3l1.7.2c1 0 3.3-1 3.3-1.3 0-.4-1.1-1-1.7-1-.7 0-1.5-1-1.4-1.6 0-.3.3-.4 1-.4l4.6.2 3.6.1v-.9c0-.7.2-1 .7-1.3.9-.4 1.8-.1 1.5.5 0 .3 0 .5.3.6.5.2 2.8-1.6 2.8-2.2 0-.4-.3-.4-2.7 0-1.4.2-2 .4-2.4.8-.3.4-.8.6-1.7.6l-2.5.2c-1.5.2-2.2-.1-2.5-1.2-.2-1 0-1.2 2.4-2.8 1.7-1.1 6.5-5.7 6.5-6.2l-.7-.3c-.9 0-1.1-.8-.5-1.5.3-.4.3-.5 0-.8-.1-.1-.6-.2-.9 0-.8.1-2.1-.5-2.1-1.1 0-.7 2.3-2.9 3-2.9.3 0 .3.1.1.7-.2.3-.6.7-1 .9-1 .5-.5 1 1.2.9a16 16 0 0 0 5.9-1.8c.3-.3.3-.6-.1-2.2l-1-3c-.8-1.3-1-4.1-.6-6.4.2-1 .1-1.4-.2-1.6-.6-.5-.7-1-.3-2.4.6-2.3.3-3.7-.4-2.3-.8 1.4-1.8 1.6-1.5.3.1-.6 0-.8-.6-1-.5-.3-.6-.5-.4-1 .4-1.3-.2-5.9-1.2-8.7-2-6-2.8-7.8-3.2-7.8-.5 0-.3 2 .2 2.4 1 .9.9 2.4-.3 2.1-.8-.2-1.2-.5-1.8-1.7-.8-1.5-1.6-1.9-4.3-2a93 93 0 0 1-3.8-.4h-2.1c-1 .4-3-.3-4-1.4-.5-.4-1.5-.8-2.7-1.1l-2-.4c-.2 0 0 .5.3.9.4.7.4.8 0 1-1 .3-4-2-5.5-4.4-1-1.3-2-1.6-1.7-.4.3 1 2 3 3.2 3.7.6.4 1 .8.9 1-.1.6-.6.6-2 .3-1-.2-1-.2-.5.4.3.4.3.7.1 1.1-.2.4-.1.6.6 1.3.7.6.8.8.5 1.2-.3.7-2.2 1-3.2.6-1.6-.6-.5 1 1.6 2.3.9.5 1.7 1.2 1.9 1.6.5 1-1 .8-3-.7-3.1-2.2-6-4.5-6.4-5.1-.8-1.2-.3-2.2 1.6-3.2 1-.5 1-.6.6-1.7-.3-1 0-1.6 1-1.7.7 0 .8-.2.7-1.3-.1-1.8-.5-2.3-2.2-2.8a48.4 48.4 0 0 0-16-5.5l-1.3-.4-1.5-.5-2-.7c-.6-.1-1.3-.4-1.7-.6-.4-.2-1-.3-1.4-.3-.3 0-.8-.2-1.1-.4l-2.2-.7c-1.7-.3-4.3-1-7.8-2.1a81.1 81.1 0 0 1-14.2-4.6c-.3-.3-.4-.6-.3-.7.2-.3 2.8.1 4.4.7a452.5 452.5 0 0 0 16.7 5.2l1.3.4 1.7.6 2.4.6c1.3.5 3.8 1.2 4.2 1.2.2 0 1 .3 1.7.7l2.2.8 3.3 1a36.1 36.1 0 0 0 5 1.5l3.4 1.2c1.7.5 3.2 1 3.4 1.2.2.2 1.1.4 2 .4 1 0 1.8.3 2.6.7l2.5 1.1c1.2.4 1.4.4 2.7 0 .9-.2 2-.8 2.4-1.2l1.6-1a12 12 0 0 0 5.7-3.8 62 62 0 0 1 9.7-8.5 59.3 59.3 0 0 0 9.7-10l.6-1 .8-2 1.2-2.8 1-2c.4-.4 1.2-1.8 1.9-3.1a28 28 0 0 1 1.5-2.8c.6-.7 2.6-2 4-2.4l1.1-.4v-1.7c.2-1.5 0-1.8-.7-3.1-1.4-2.3-1.6-3.2-1-3.7.2-.3.6-.6.9-.7.4-.3.4-.6 0-3-.2-2.4-.2-2.8.2-3.6.4-.9.6-1 1.4-1 1 0 1 .1 1-2.3.1-1.9 1.9-2 2.2-.1.5 3.3 1.2 5.9 1.6 5.9.4 0 .4-1 .3-5.7-.1-7.4 0-8 .8-8.4l1.6-.7c.8-.4 1-.4 1.6 0 .7.4 1.4.4 1.4 0s2.1-3.8 2.7-4.3l.5-1c.3-.8 1-1.3 2.2-1.4.9 0 1.1-.3 2-1.4a45 45 0 0 1 5-5.8c1-1.3 2.4-.7 1.9 1-.7 1.9-.1 3.4.7 1.9.2-.4.8-.9 1.4-1.1.5-.3 1.8-1.3 2.8-2.4a27.8 27.8 0 0 1 5.1-4.6c1.7-1.5 3-1.5 3.3 0 .2.8.6 1.1 1.2.8.3-.2.2-.3-.1-.8-.6-.9-.6-1 .3-1.7.8-.8 2.7-1 3.9-.3.9.4 1.4.3 2.7-.8.5-.4 1.3-1 1.7-1l.8-.2-.6-1c-.6-1.4-.4-2 .7-1.8.4 0 1 0 1.2-.2.5-.3-.7-1-1.8-1-1.7 0-2.9-1-3.6-3.1-.3-.7-.4-1.5-.3-1.6.2-.3 1.4-.2 2.3.1.3.2.5 0 .5-.2s-.4-.5-.8-.7c-.7-.3-1-.2-2.3.3-2 .8-3.5.6-5.3-.6-.8-.4-1.7-.8-2.1-.8-.8 0-3.4.4-4.5.7-.4.1-.8 0-1.2-.5-.7-.8-1.3-.9-2-.2-.3.5-.7.5-2.6.5-2.2 0-2.2 0-3.8 1-1.7 1.2-2.9 1.5-3.6 1-.6-.6-2.7-.7-3.9-.2-1.4.5-4.6.6-5.8 0-1.5-.6-2.6-1-3.5-1-.5 0-1.6-.3-2.5-.7-1.6-.8-1.8-.8-4-.6-2.7.1-3 0-3-1.4 0-.4-.2-1-.5-1.4-.6-.7-.8-.7-3.3-.8a9 9 0 0 1-3-.4c-.5-.6.2-1 1.9-1.2 1.5-.2 1.7-.3 1.7-.8v-.6l-2.7-.4-3.2-.4c-1.8 0-3.4-1.4-2.6-2.2.5-.4.9-.3 2.3.6.6.3 1.3.6 1.6.5.5 0 .6-.2.5-1 0-1-.5-1.6-2-2.5-1.2-.8-1.2-1.7 0-2 .6-.3.8-.5.8-1.1 0-.5.2-.9.4-1l1-.5c1-.6 1-.6 1.9-.2 1.3.7 1.8.3 1.2-1.2-.1-.2 0-.6.2-.8.5-.5 1.2-.4 2.2.3.7.4 1 .1.8-1.2 0-.7 0-.8.9-.7.5 0 1.3.1 1.8.3 1.2.4 1.4-.2.3-1.4-1-1.2-1-2 0-2.2.3 0 .8.1 1.1.4a8 8 0 0 0 2.8 1.6c.5 0 .4-.7-.2-2-.7-1.3-.7-2.1 0-2.4.8-.5 1.3-.4 2.4.6.8.7 1.2.9 1.8.8.6-.1.9 0 1.6.7 1.3 1.2 3.7 2.3 3.7 1.6l-.8-1.5c-.7-1-.8-1.4-.5-2 .2-.4.4-.5.9-.4l1.4.3c.6.1 1.3.6 2 1.3 1.3 1.3 2.2 1.9 2.4 1.5V2c-.1-1.4-.1-1.6.4-1.8.8-.5 1.4-.2 2.9 1.4 1.6 1.7 2 1.8 1.8.6V.8c.6-1 1.7-.2 2.8 2 .3.7.8 1.4 1 1.6.6.5.6.5.5-1.1-.2-2.2 0-2.6 1.4-2.4.8.2 1 .1 1.3-.4.3-.6 1.2-.7 1.9-.2l1.1 2c.4 1 1 2 1.3 2.5.4.3.7.9.8 1.2.2.7 2 2.5 2.3 2.2.2-.2 0-1.5-.6-3.5-.4-1.5-.1-2.2 1-2.3 1 0 3.9 1.8 4.5 2.8l.4.7v-.7c0-.4-.3-1.1-.7-1.6-.7-.8-.8-1.4 0-1.9.3-.2.5-.1.9.2.3.3 1 .7 1.8 1 1 .3 1.3.6 1.4 1 0 .5.2.6 1 .4.6 0 .9 0 1.2.5.2.4.5 1.1.5 1.7 0 .7.2 1 .5 1s.4-.4.5-1.4c.2-2 .4-2.2 1.4-2 3.5.5 5.2 1.1 6.4 2.5.7.8.9 3.5.3 5.7l-.6 3.3-.1 1.4 1-.2c2-.4 2.1-.5 2.3-2.4v-3.7c-.2-2.5 0-2.7 2.2-1.1 2.1 1.5 2.1 1.5 3 5.2 0 .4.3.9.7 1 1.1.5 1.5 1.7 1.3 4.3-.1 1.2-.4 2.7-.6 3.3-.2.6-.3 1.4-.3 1.9 0 .8 0 .8 1 .7.9-.1 1.2 0 1.5.3.3.4.4.4 1 0 1.6-.8 2 .7.7 2.5l-.8 1.3c0 .6-1.1 1.6-1.7 1.6-.4 0-.7.2-.7.4 0 .3.1.4.3.4.1 0 .4.3.6.7l.2.6.8-1c1.2-1.7 3-1.3 1.8.4-.6.9-.7 1.9-.2 2.1l.2.8c0 .7.1.8.8.4.4-.2.6-.2 1 .2.3.3.3.4 0 1.1-.3.5-.7 1-1 1-.6.4-1.6 2.6-1.5 3.6v.8l2.3.1c2 0 2.3.1 2.9.7.5.6.6.8.4 1.2-.4.5-1.4.7-1.8.3-.4-.4-3.2-.3-3.6 0-.5.6-.3.8 1.1.8 2.8 0 7.5 2 9.4 4.2.8 1 1.6 1.4 3 2l2.4 1.2c.6.6.7 1.5 0 1.8-.2.2 0 .3.8.5 2 .6 3.6 1.4 4 2.1.3.7.2 1-.7 1.2-.2.1 0 .5.3 1 .8 1 .6 1.5-.5 1.6-1 .2-1.3.9-.5 1.7.7.8 3.1 5.1 3.5 6.2l.5 3.7c.2 3.2.4 4 .9 4l2-.5c3.5-1.1 5.4.3 8 5.8 1 2.2 1.2 2.8 1.5 5.6.7 6.4.7 6-.2 12.7-1 7.3-1.2 9.7-1.1 19.4 0 7.3 0 10.2-.3 11-.4 1.3-2.8 5.1-3.6 5.8-1 1-3 1.9-3.8 1.9-1 0-2.1.5-2.1 1 0 .4-1.4 1-2.3 1-.4 0-1 .3-1.3.5-1.4 1-3.1 1.3-6.2 1.3-2.7 0-3.2-.2-4.5-.8l-1.8-.7a29.5 29.5 0 0 0-8-3.4c-.8-.1-2-.6-3-1-2.8-1.5-7.7-2.7-8.3-2.1l-1.3 2.8c-1.6 3.9-3 6.7-3.6 7.6-1.4 1.8-2.1 4.4-1.4 4.7h.5c.1-.2.9-.4 1.7-.6 1.3-.3 1.7-.3 2.4 0 1.3.7 3.8 4.9 3.8 6.6 0 1.5 1 1.7 3.6.8 1.3-.4 1.9-.5 5-.3 1.8.1 3.8.2 4.3 0 .4 0 1.4.1 2 .4l3.3.7c2.2.4 4.2 1.3 6.9 3 1.8 1 3.7 1.7 5.2 1.7.7 0 1.2.3 1.7.8s1.3 1.1 2 1.4c1.4.8 2 1.3 2 2 0 .8-1.2 1.3-4 1.8-2.6.5-4.8 1.2-6.2 2.1-.5.4-1.5.9-2.2 1.1-.7.2-1.8.9-2.5 1.5-1.2 1-3.6 2-4.6 2-.3 0-.8-.1-1-.4-.2-.3-.5-.3-1.1-.2-.5 0-1.7-.1-2.8-.4a11 11 0 0 0-3.2-.4c-1.5.2-3-.4-3.2-1.2-.4-1.6 2.1-2.3 4.6-1.4 4.6 1.7 5.2 1.8 7.2 1.4 1-.2 2.2-.7 3.1-1.3.9-.6 1.8-1.1 2.2-1.2l2.7-1.5c2-1.3 3-1.6 5-2 .3 0 .6-.3.6-.5 0-.6-1.8-2.2-3-2.6-1.8-.5-1.7-.5-2 .2-.1.4-.7 1-1.4 1.5-1.5 1-4 1.3-4.8.7-.5-.4-.5-.4 0-1.3l.4-1-1-.4-1.3-.4c-1 0 1-.5 2.2-.5 1.6 0 2 .4 1.8 1.5-.2 1 .2 1.2 1.4.6s1.8-1.2 1.6-1.7a12 12 0 0 0-4.6-2.9c-3.3-.7-6.5-1-9.4-.8l-5.2.3a8 8 0 0 0-2.6.4c-.5.4-.4 1.5 0 2.2.3.2.4.8.4 1.1 0 .4.3 1 .6 1.5.7 1.2.2 1.6-1.5 1.2-1.6-.3-2-.6-2-1.6 0-1.4-2.5-9.5-3.3-10.8-1.1-1.8-1.9-2.4-3-2.4-1.5 0-3.1.5-4 1l-1.8 2.3c-1 1.6-2.6 3-6 5.4-1.8 1.3-3.5 3.4-3.2 4 0 .5 5 .3 6.1-.1.5-.2 1.5-1 2.2-1.7.7-.8 1.5-1.4 1.7-1.4.7 0 1 .6.7 1.5-.4 1.5-1.5 2.1-5.4 3.4-2 .7-3.9 1.4-4.1 1.6-.3.3-1.5.7-2.8 1-3 .8-4.3 1.4-7 3.2-3.9 2.5-4.2 3-5.7 7.7-.4 1.3-.9 2.6-1.2 3-.7.8-.6 1.3.6 2 1 .5 1.5.6 3.5.6a22 22 0 0 0 6.3-.8l2.3-.5 2.8-.8c3.6-1.5 5.2-2 5.6-2 .3 0 1-.3 1.6-.6l1.4-.5c.3 0 .6-.2.8-.4l1.8-1.1c.9-.4 2.2-1.4 3.1-2.4a9 9 0 0 1 4-2.5c1.2-.5 2.8-1 3.4-1.1 1.2-.2 2.5.2 2.5.7 0 .5-1.7 1.3-2.8 1.3-.7 0-1.2.2-2 .9-.5.5-1.2 1-1.4 1-.2 0-.7.1-1.1.4l-1.1.6c-.3 0-.8.5-1.2 1l-.8 1.1.8.7c.4.3 1 .7 1.4.7l3 1a75.1 75.1 0 0 0 6.2 2l1.8.6 9.4 3c4 1.3 5 1.5 6 1.4 1-.2 1.2-.1 2.5 1a9 9 0 0 0 2.7 1.5l2.2.8 1.4.5c.4 0 2.2.6 3.8 1.3l1 .3 2.7 1a53.6 53.6 0 0 0 6.2 2.3l1.2.4a60.6 60.6 0 0 0 11.2 3.7c.3.3 1.7.8 3.4 1.2l4.4 1.4c3.2 1.1 3.8 1.6 3 2.6-.3.5-.4.5-2.7-.3a278.6 278.6 0 0 1-7-2.5l-3.3-1.2-6.7-2.3a235.3 235.3 0 0 1-16.5-6l-3.6-1.2-4.5-1.6a135.2 135.2 0 0 0-13.1-4.3l-2.5-1a1446 1446 0 0 0-13.6-4.7c-2-1-3-1.1-4.2-.6l-1 .6c0 .4-1 .9-3 1.3-3.7.7-6.5 1.7-9.4 3.4l-2 1-2.4.9a382.4 382.4 0 0 1-9.6 4.4c-3.8 1.7-5 2.3-5.3 2.3l-1 .7a7 7 0 0 1-3.6 1.7c-.4 0-1.2.3-2 .6l-1.6.7-3.6 1.6a68.3 68.3 0 0 1-7 3.1l-1.9.9c-1 .3-1.7 1-1 1a207.4 207.4 0 0 1 15.2 7.4 110.6 110.6 0 0 1 13.9 5.8l3.1 1.4a223.5 223.5 0 0 1 9.4 3.6c1 .6 5.9 2.8 8.2 3.7 3.7 1.3 5.4 2 7.5 3.2a96.1 96.1 0 0 0 6.8 3.5c.1.1.4.3.7.3.2 0 .9.3 1.4.7.6.5 1.3.9 1.6 1 .7.2 1.5 1 1.3 1.2-.2.4-.9.2-2.2-.4zM227 201.4c0-.2-.4-.5-1-.8-.5-.2-1.2-.7-1.4-1.1-.5-1-1.5-1.6-1.5-1 0 .8 1 2.7 1.6 3 1 .5 2.3.4 2.3 0zm2.5-1c.2-.2-.9-2.3-1.6-3.2-.5-.6-2.2-1.5-2.4-1.3v1c.3.9 1.6 2.5 2.7 3.2.9.5 1 .5 1.3.3zm4.7-2.7-.9-1.3c-.6-1-1-1.1-1.8-1.2h-1.2c-.2.4 1.5 2.2 2.1 2.4.7.3 1.8.4 1.8.1zm2.7-1c-.2-.6-3.2-3-4.4-3.5-1-.5-2.8-2-2.8-2.5 0-.1-.2-.2-.5-.2-.2 0-.3.1-.2.4l.1.7c0 .5 2 2.3 2.6 2.3.3 0 .8.3 1 .6l.9.5c.2 0 .4.2.5.4 0 .2.3.4.4.4l1.3.6c1 .8 1.3.9 1.1.4zm6-.5c.8-.5 1-1.2.5-1.7l-2.9-1.5c-1.4-.7-3.1-1.8-3.8-2.4-1.6-1.4-2.1-1.5-1.9-.4.1.4.3 1 .3 1.6.1.5.7 1.3 1.4 2.2a6 6 0 0 0 3 2c2.3.7 2.4.7 3.4.2zm-24.3-2c1.8-.9 2-1.3.4-1.3-.7 0-1.3 0-1.4.2 0 .2-.7.4-1.4.5-1.7.2-2.1.6-1.2 1 1.2.5 2 .4 3.6-.3zm27.7-1.3c-1.1-1.2-.6-2.3.9-1.9 1.2.4 1.8.3 1.8 0 0-.4-1.2-.8-3.5-1.3-.7-.1-.9-.3-.9-.8 0-.6.1-.7.8-.6 2.5.2 6.4 0 6.6-.2a104.7 104.7 0 0 0 3-7c0-.6.3-1.1.9-1.5.8-.7 1.2-1.5 1.4-3.2 0-.6.5-2 1-3 .4-1 1-2.2 1-2.8l.8-3.3c.3-1.1.5-2.6.5-3.3 0-.7.1-1.6.3-2 .3-.8 0-2.2-.5-2.4-.2 0-.3.6-.5 1.8-.2 2-.8 3-1.6 2.5-.5-.3-.5-1.2-.2-3.1.3-1.5-.7-3.6-2.3-5.1l-1.3-1.3-2.6.2c-2 .1-2.8.3-3.6.8l-2 1c-.8.2-2.2 1.2-4.6 3.2l-1.7 1.3c-.5.3-1 1-1.5 2.2a106.8 106.8 0 0 1-1.7 4.5l-.9 2.4c-.6 1.4-.8 2.3-.7 2.6.6 1.5 0 5.2-1 6l-1.1.2c-1 0-1 .6 0 1.1 1.7.7 1.7 2.6 0 2.3-.5-.2-.6-.1-.9 1-.2.8 1 2.3 1.8 2.3.9 0 1.5.2 1.5.6 0 .2.7 1.2 1.6 2.2 1.2 1.4 2.1 2.2 3.3 2.8 2.7 1.4 4.7 2.3 5.5 2.3.7 0 .8 0 .4-.5zm-5.4-10.5c-2-.3-3.5-.7-3.8-1-.2-.3-.6-.4-.8-.4-1.2 0-1.8-2.7-.7-2.9.2 0 .8.3 1.3.9 1 1 3.5 2 4.8 1.8.9-.2 2.7.3 3 .7 0 .1-.1.4-.4.6-.4.4-1.5.5-3.4.3zm-3.1-4.5c-.9-.6-1.2-1.3-.7-1.8.3-.4 1-.3 1.6.3.5.4 3.5.2 4.8-.2 1-.4 2-.1 2 .5 0 .8-.7 1-3.6 1.4-3.3.3-3.2.3-4.1-.2zm-6.2 10.7c-.2-.2-.3-.6-.3-1s-.2-1-.4-1.2c-.4-.5-.4-.5-.6 0-.2.4 0 .7.5 1.6.5.8.8 1.1 1 1l-.2-.4zm-11.3-1.5c.4-.2 1-.4 1.5-.4 1.3-.3 2.8-2.6 1.6-2.6l-1.3.6c-.7.4-1.3.6-2.3.5-1 0-1.4.1-2 .6-1 1-.8 1.3 1.3 1.5l1.2-.2zm0-4.2 1-1-.9.2c-1 .2-1.6.6-1.6 1.3 0 .7.3.6 1.5-.5zm-52.8-.6c0-.2-.1-.3-.3-.3-.1 0-.2.1-.2.3 0 .1 0 .3.2.3s.3-.2.3-.3zm60.5-.7c-.3-.3-.5.1-.3.5.2.2.2.2.3 0v-.5zm-5.5 0h-.6c-.2 0-.1.1.2.1l.4-.1zm0-1.6c2-.6 3.2-2.3 1.6-1.9-.9.3-3.2 1.7-3.2 2 0 .4.3.4 1.7 0zm6.1-1.5c0-1.5-.6-1.7-1-.3-.4 1-.2 1.4.5 1.4.4 0 .5-.1.5-1.1zm-5.3-1.7c1-.3 1.9-.8 2-1 .4-.5.5-1.8.2-1.7a2594.2 2594.2 0 0 0-3.8 1.7c-1.2.4-2.3 1.5-2 1.8.3.2 1.7 0 3.6-.8zm-59.8.3c0-.4 0-.4-.4-.1l-.4.4.4.1c.2 0 .4-.2.4-.4zm-1.6-1c.4-.4.1-.7-.5-.7-.5 0-.7.5-.3.9.2.3.5.2.8-.2zm-12.3-1.2c.7-.3 1.7-.6 2.2-.6a5 5 0 0 0 1.8-.5 5 5 0 0 1 1.8-.5c1 0 2.6-.6 2.6-1a1 1 0 0 0-.3-.5c-.2-.2-.3-1-.3-1.8 0-.3.2-.4.6-.4.5.1.6.3.7 1 0 .5 0 1-.2 1.3-.3.3-.2.3.4.3.4 0 1.2 0 1.8-.2 1-.3 1-.4 1-1.5 0-1.4.4-2.3.9-2 .3 0 .4.5.4 1.3s.1 1.2.4 1.3c.7.2 1-.3 1.2-2 .3-1.8.1-2.4-.4-2-.1.2-1.5.6-2.9.9-1.4.3-2.9.7-3.2 1l-1.3.3c-1 0-1.5.6-1.5 2.1 0 1.2-.2 1.5-.6 1.6-.5 0-.5 0-1-1.8-.1-.6-.4-1.2-.7-1.3-.6-.2-1.4.7-1.4 1.8 0 1.4-.3 2.2-.7 2-.4 0-.6-.5-1-2-.1-.6-.3-.8-.8-.8-.7 0-1.2.7-1.2 1.7 0 .8-.6 1.5-1.2 1.3-.2 0-.5-.5-.5-.8-.4-1.5-1.2-1.8-2.7-.9-1.7 1-1.5 2 .7 2.7 2 .6 3.7.6 5.4 0zm84.2-5.8c.7-1.5.8-2.2.3-3.5-.2-.7-.2-.9.4-1.5.6-.6.6-.9.6-3.9l.2-4.8c.2-1.1.2-2 0-2.6-.3-.6-.4-1.5-.4-2 0-1.3-.3-2-2-4.5-1.3-2-1.7-3.2-1-3.2.2 0 .5.3.7.6.4 1 1 1.5 1.4 1.5.4 0 .4 0 0-.7l-.8-2.3c-.2-.8-.7-1.9-1-2.3l-1.2-2c-.6-1.2-1.4-2-3.1-2.7a181.2 181.2 0 0 1-5.8-2.5c-3.9-1.6-5.2-2.5-3.8-2.6 1.2 0 1.6.1 3.4.9 2.5 1.2 6.4 2.6 6.9 2.6.3 0 .3-.1-.3-.6-1.3-1.2-4-3-5-3.4-.6-.1-1.5-.6-2-1-1.6-1-2.8-1.1-7.1-1l-5.5.3c-1.3.2-1.5.1-1.7-.3-.5-.8.3-2 2-3.4 1-.7 2.2-1.8 2.8-2.4a21 21 0 0 1 4.3-3.3c.2 0 .4.2.6.4.3.4.2.6-.7 1.4l-2 1.6a26 26 0 0 0-4.2 4.3c-.3.7 0 .7 2.2.1 2.5-.7 6.4-.4 9.1.7a22.7 22.7 0 0 1 8.5 5c1.1.9 1.4 1.7.8 2.3-.2.2.1.6 1 1.2.7.5 1.6 1.4 2 2 3.5 5.2 4 6.6 4.3 9 .4 3.6 1.2 5.1 3.8 7l1 .5 1-.5 2.6-1.1c1.5-.5 2-.6 5.7-.4 3.6.1 4 .2 5 .8.5.4 1 1 1 1.3l1 1.8c.7 1 1 1.2 1.4 1.1h.9c.5.5 1.2 2.1 1.6 4 .4 2.3.9 3 1.8 3 1 0 1.9-1.1 2.9-3.6 1.3-3.3 1.5-4.6 1.1-7.5-.4-3.8-.4-3.8.3-4 .8 0 1.3.7 1.6 2.8.5 2.9 0 6.3-1.3 9.4-.3.6-.5 1.4-.5 1.8 0 .6.2.4 2-1.3 1-1 2-2.4 2.3-2.9l2.4-3.4c1.7-2.3 1.8-2.6 2-4 0-1 .2-2 .4-2.4l.4-1.1c0-.9.6-1.8 1.2-1.8.8 0 1 .4 1 2.1-.1 1.3 0 1.6.4 2 .9.8 1.7 0 2.4-2l1-2.8c.3-.5.7-1.8.9-2.8a15.6 15.6 0 0 1 1.1-4.2l1-2.3c.9-1.7 1.2-3.8 1-7.1-.2-3.7-.4-4-2.7-4-1.9 0-5.4-.5-6.1-.9-1-.5-2.3-2-3-3.5-.3-.7-.8-1.6-1.1-1.8-.3-.3-.6-.6-.6-.8a29 29 0 0 1-2.3-4.5c-.4-1.2-1-2.3-1-2.3-.2 0-.5-.5-.7-1-.5-1.1-2.4-3.2-3-3.2-.4 0-1.2-1-1.8-2-.4-1-2.2-2.8-3.8-4a54 54 0 0 0-7.4-5.1l-1.6-1.1c-.3 0-1-.3-1.5-.7l-1.4-.6c-.2 0-.8-.3-1.2-.7-.6-.4-1.7-.7-3-1l-3.8-.8-4.5-.7-3-.3-1.8.9c-1.9 1-4.5 3-4.8 3.6a41 41 0 0 1-2 3.4c0 .3-1.6 3.8-3.5 7.7l-1.8 4c0 .1.2.3.6.3.4.1.6.3.6.8.1.9-.3 1.2-2 1.6-1.8.3-3.2 1.5-2.5 2.1l.4.7c0 .4-1.7 1.5-3.2 1.9-.6.2-1.3.5-1.5.8l-3.4 3.6a39.9 39.9 0 0 0-3.5 3.9c-.3.7-1.5 1.3-3.6 1.8a5 5 0 0 0-2.2 1.2c-.7.7-1.1 1-1.8 1-.5 0-1.3 0-1.8.3-.9.4-1 .4-.9 1.6l.1 1.5 1 .7.7.5.8-.6c.6-.5.9-.6 1.3-.4.9.5 2.6 2.2 2.6 2.5 0 .4 2 1.5 2.7 1.5.4 0 .5-.2.5-1 0-1.1.5-1.3 1.6-.4 1.3 1 3.5 2 3.9 1.8.2 0 .3-.3.3-.5 0-.6 1.2-1.5 2.1-1.6 1 0 2 .9 2.6 2.4l1.3 3.6c.5 1.2.9 2.7.9 3.1 0 .5.2 1.1.6 1.5.4.5.5.9.5 2.5 0 1.4 0 2 .3 2.3.3.3.4 0 .7-.9.3-1 .3-1.5-.3-4-.5-2.2-.5-2.8-.2-3.1.7-1 1.7-.3 2.6 1.8.2.5.4 2 .5 3.3.2 2.3.3 2.7 1 3.7.5.6 1 1.5 1 1.9 0 1 .8 3.7 1.6 5 .4.7.7 1.6.7 2 0 .9.5 2 2.5 6.3 1.1 2.3 2.7 4.5 3 4.3a6 6 0 0 0 1-1.7zM257 151c-.4-.4-1.1-.8-1.6-1l-1.7-1c-.4-.3-1.3-1-2-1.3-1.4-.8-4.2-3.5-5.2-5-1-1.3-1-2.8-.1-3.3.5-.4.7-.2 3 2 2.5 2.5 2.8 3.1 1.4 3.2h-.7l.8.6c1.7 1.5 3.5 2.8 5 3.5 2 1 3.1 2 3 2.6-.3.6-1 .5-1.9-.3zm5.2-2.6-.8-.7c-.2 0-1.2-1-2.3-2a16.8 16.8 0 0 0-3-2.6l-1.2-.8a572.5 572.5 0 0 0-3.6-2.8c-2.3-1.8-3.6-4-2.6-4.3.4-.1.9.3 3.1 2.9.8 1 1.9 1.8 2.7 2.2l.8.6a28 28 0 0 0 3.2 2.1l2 1.6c2.6 2 3.7 3.2 3.7 3.8 0 .9-1.1.9-2 0zm-1.5-8.2a297.5 297.5 0 0 1-7-6.5 27.6 27.6 0 0 1-6-8c-.7-1.4-.8-2-.4-2.5.4-.8 1.3-.1 1.7 1.3.8 2.4 2.7 4.9 6.4 8.5 4.4 4.4 6.2 6 6.7 6 .6 0 1.4 1.1 1.3 1.8-.1 1.2-.9 1-2.7-.6zm4.9-1a89.6 89.6 0 0 0-6.3-4.8c-1.3-.6-4.2-3.6-4.8-4.7-.2-.5-.8-1.4-1.3-2-.9-1.1-1.1-2.3-.6-2.6.2-.2 1.3.8 1.3 1.2a21 21 0 0 0 5.4 6.5 8 8 0 0 0 1.5 1.2l.9.5 3 2.2c2.5 2 3.1 2.6 2.8 3.1-.3.5-1 .2-2-.6zm.5-5.3-1.5-1c-.2-.3-.6-.5-.8-.5-.2 0-.4-.1-.4-.3a34.8 34.8 0 0 1-6-5.7c-1.3-1.8-3-5.8-3-7.2 0-1.4 0-1.5.5-1.5s.7.2.9.7l.7 2.4c1.3 4.3 5.8 9.5 10 11.6.7.4 1.5 1.6 1.2 2-.2.2-.6 0-1.6-.5zM230 120.3c-.5-.3-.5-.8-.5-3.8 0-1.9.2-4.2.3-5.1a77.6 77.6 0 0 1 2.6-11c.2-1 .6-1.6 1.4-1.3.6.2 1 1 .6 1.7-.5.9-2.2 7.7-2.6 10.5-.3 1.9-.4 3.5-.2 4.9v3c-.2 1-1 1.6-1.6 1zm9.7-1.5c-.6-.3-.3-1.5.4-1.5.7-.1 1 .8.4 1.4-.5.4-.4.4-.8.1zm-15-2.3c-.6-1.6-.3-7.2.6-11.4.3-1.3 1.7-3.4 2.2-3.1.3.2.1 1.2-.7 4.7-.5 2.1-.7 3.3-.7 6.2l-.1 3.9c-.3.6-1 .5-1.2-.3zm.9 53.2c.4-.5.2-1.6-.3-1.6-.2 0-.4.4-.4 1-.1 1 .1 1.3.7.6zm-2-6v.7-.7zm-71.3-2.7c0-.2-.1-.4-.3-.4l-.2.4.2.4c.2 0 .3-.2.3-.4zm10.6 0c.3-.4.2-1-.2-1-.2 0-.5.3-.8.6-.6.5-.6.6.5.8l.5-.4zm-88.4-1.8c2.7-.6 2.7-.6 2.7-2.6 0-1.6 0-1.8-.5-1.8-1 0-2.1.5-2.6 1.2a3 3 0 0 1-1 1c-.5.1-.7.5-.8 1.1-.3 1.5 0 1.6 2.2 1.1zm7.8-1.5.8-.2v-2l-.4-2.5c-.3-.3-2.6-.1-3 .3-.2.1-.4 1.3-.5 2.5l-.2 2.1h1.2c.8 0 1.7 0 2.1-.2zm5.3-1.1c.6-.2.9-.4.7-.6-.1-.2-.3-1.3-.3-2.4-.1-2-.2-2.1-.7-2.2-1-.2-2 .4-2.4 1.2-.4.7-.4 4-.1 4.4.2.2 1 0 2.8-.4zm-18.9-.9c0-.4-.1-.7-.4-.7-.5 0-.5.6 0 1 .4.5.4.5.4-.3zm24.7-.4c3.3-1 3.9-1.1 4.6-1 1.2.3 1.6-.2 2-2.3.2-1.8 0-3.5-.4-3.8-.6-.3-2.5 0-3.7.5-.8.3-1.3.8-1.6 1.4-.5 1.1-1 1.2-2 .4-.6-.6-.6-.6-1.4-.2-.7.3-1 .7-1.2 1.6a9.5 9.5 0 0 0-.2 4c.2.3 1.8 0 4-.6zM62 155c.5-.3 0-.6-1-.6-1.2 0-1.8.4-1.2.8.4.2 1.7.1 2.2-.2zm-2.5-1c0-.2 0-.4-.2-.4-.3 0-.6.4-.4.6.3.3.6.2.6-.2zm-1.4-1.5c.2-.3-.4-1-.8-1-.3 0-.5.2-.6.4-.2.7 1 1.3 1.4.6zm-2.6-.4c-.1-.7-1-.8-1 0 0 .3.2.5.6.5.3 0 .5-.2.4-.5zm-1.7 0c.4-.1.4-.2 0-.8-.5-.7-.3-1.4.4-1.4.4 0 .4 0 0-.5-.7-.7-1-.7-1 0 .1.5 0 .7-.5.7-.3 0-.6.2-.5.3l.4 1c.4 1 .5 1 1.2.7zM42.4 148c0-.2 0-.3-.3-.3-.2 0-.3.1-.3.3l.3.3.3-.3zm-1-.5c0-.2 0-.3-.2-.4-.2-.1-.3 0-.3.2s.1.4.3.4c.1 0 .2 0 .2-.2zm141.8-7.1c-.4-.4-.8-.6-1-.5l.5.7c1 .7 1.3.6.5-.2zm136.5-.8c1.2-.4 1.5-.6 2-1.7.4-.7.7-1.6.7-2 0-1.2.6-2.3 1.8-3 1.8-1.3 2.8-.7 1.6.9-1 1.2-1.4 3-1 3.5.4.5 1.4.5 2 0 .3-.2.8-.4 1.1-.4 1 0 3.1-1.5 4.4-3a8.8 8.8 0 0 0 2.6-6c0-2.2-.4-2.5-2-1.7-.5.4-1.3.6-1.7.6-.7 0-.8 0-.8-.6 0-.4.5-.8 1.4-1.2 1.2-.6 2.5-2.1 2.5-3 0-.7-.2-.6-1.7.6-.7.6-1.7 1.3-2.2 1.5-1 .4-2.1.5-2.2 0v-.4a6 6 0 0 1 2-1.6 11 11 0 0 0 2.8-2l.8-1c.7-.8 1.1-2 .6-2 0 0-.9.7-1.7 1.6-2.9 2.9-3.5 3.3-5.4 3.5-2 .2-3-.1-3-1 .2-1 1-1.2 1.8-.6.8.4.9.4 1.8 0 1.2-.7 4.6-4 5.3-5.1.9-1.5-.1-1.3-1.9.4-1.3 1.2-2.4 2-3.1 2-1 0-1-1-.2-1.4 1-.5 4.6-4 5.3-5.2l1-2c.2-.5.6-1.2 1-1.5.3-.4.6-1 .6-1.3 0-.6 0-.5-1 .7-2.8 3.5-6.2 5.9-7.6 5.3-1-.3-1-.3-1.2.6a5 5 0 0 1-1.1 1.8c-.9.9-1 1.2-1 2.4 0 1 0 1.5-.4 2-.3.3-.7.8-.7 1.1-.3.8-1.7 2-2.5 2-.6 0-1 .7-.8 1.4 0 .3-.6 2-1 2.3l-1 .2c-.4 0-.9.3-1.4 1a5 5 0 0 1-1.7 1.4c-.5.1-1.5.6-2.3 1l-1.4.5v2.7c.2 3.6.6 4 3.2 2.9 1-.5 1.4-.9 1.7-1.6.7-1.6 2-2 2.5-1 .3.6.2 1-.3 1.8-.3.6-.8 1.2-1.2 1.4-1.6.9-1.6 2.9 0 3.4 1.2.3 1.4.3 3-.2zm1.3-10.9c-1-.1-1-.3-1-.8 0-.8 1-1.7 2-1.7 1.4 0 2.3 1.6 1.4 2.4-.3.4-.7.4-2.4.1zm-120.8 7.6c-.3-.5-.7-.6-1-.2 0 .1.1.3.4.5.7.4 1 .3.6-.3zm106.6-7.7c.3-.3 0-.5-1.6-.7-2.4-.4-4-1-3.7-1.5 0-.3.4-.4 1.1-.2h1a35.5 35.5 0 0 0-6.2-4.9s0 .8.3 1.6c.2.8.4 2 .4 3 0 1.2 0 1.5.7 2 .4.3 1.1.5 1.6.5.6 0 1.3.2 1.7.3 1.1.4 4.4.3 4.7-.1zm-16.1-3.8-.6-2.4c-.4-1.6-.2-2.2.7-2.2 1 0 1.3.7 1.5 2.5.3 2.9.6 3.9 1 3.9.2 0 .3-.5.3-2 0-1.7-.3-3-1.2-5-.8-2-1-2.4-1-3.2 0-.7-.1-1-1-1.6-1.2-.8-1.4-1.8-.3-2 .7 0 3 2 4.5 3.9 1.1 1.4 1.9 1.5 1.7.3 0-.4-.2-.8-.4-1l-.2-.8c0-.5-.3-1-1-1.7-.6-.6-1.1-1.3-1-1.5 0-.2.3-.8.7-1.3 1-1.1 1-1.4.2-1.8-.8-.4-1.7-2.6-1.4-3.7.1-.7 0-.8-1.5-1.6l-2.7-2-1.8-1.4c-1-.5-3.1-2.6-3.1-3 0-1.2 2-1.3 5-.5 2 .6 4.4.8 4.6.5.1-.1 0-.3-.1-.4-.1 0-.3-.3-.3-.5 0-.3.3-.4 1-.2.6 0 1 .2 1.1.3 0 .2.3.3.5.3.6 0 2.4.6 2.6.8l.6.2a26.8 26.8 0 0 1 7.1 3.6c.6.9 3 1.2 4.3.5.7-.4 1-.4 1.6-.2.4.2 1.3.2 2 .2 1-.2 1.2-.1 1.2.4 0 .8 0 .8-5.6 1.9l-3.5.7c-.7.1-.9.6-.4 1l.2 1c-.1.7-1 1-4.3 1.6l-2.1.3.9.6c.5.3 1.2.6 1.6.6l2.7.4c1.6.3 2.9.4 4.7.2 2.3-.1 2.6-.1 2.8.4.2.2.2.6.2.8-.2.5-1.6 1.1-2.7 1.1l-2.4.4-3.2.6c-1 0-1.6.3-1.6.5 0 .9 3.3.9 5.6 0 1.9-.8 3-.9 3.9-.3.8.6.7 1.7-.2 2.2-.4.1-1.3.3-2 .3-2 0-2.4.6-.9 1 1 .3 1.4.3 2.4 0 1.5-.3 2-.2 2 .7 0 .9 1 1.3 2.7 1.3 1.3 0 2.6-1 2-1.6 0-.2-.4-.3-.6-.3-.5 0-1-1-.5-1.4.1-.3 1.3-1 2.7-1.6a15 15 0 0 0 2.5-1.4c.1-.1.1-.5 0-.8 0-.5.2-1 1.1-2a29.3 29.3 0 0 0 4.8-6.6c.2-.6.4-3.5.4-6.1 0-1.5.5-2 1.9-1.7.8.2.8.2.5-.5-.2-.7-.2-.8.6-1.5 2-1.8 4.4-6.1 4.4-8 0-.7-.8-3-1.8-5.2-.4-.9-.8-1.4-1.5-1.7-1.2-.6-1.7-.3-1.7.8 0 .8-.2 1.2-1.5 2.4-1.5 1.4-1.8 2.1-.9 2.4.8.2.7 1-.3 1.6-1.3.8-2.2 2-2.7 3.2-.3 1-.3 1.2 0 2.2.5 1 .4 1-.2 2.5-.4.8-.7 1.7-.7 2.2 0 1-.6 1.7-1.5 1.7-1 0-1.4-.5-.9-1.4.2-.4.4-1 .3-1.4 0-.4.1-1.3.4-2l.6-1.5c0-.5-1-2.4-1.8-3-.8-1-.8-1.9 0-2 .5-.2 1-.1 1.1 0 .3.3.5.4.6.3l.3-2.4.1-2.2-1.2-1.6a7.5 7.5 0 0 1-1.2-1.9c0-.2.3-.4.8-.5 1-.2 1.2-.5.5-1.4-.4-.5-.8-.8-1.6-1-1.5-.1-2.3-.6-2.6-1.3-.3-.8-1.8-1-2.6-.5-.6.4-.8.4-1.7.1a8.5 8.5 0 0 0-5.2.6l-1.4.5c-.6 0-2.4-2-2.6-3-.2-.7-.4-.9-.8-.8-.7.2-1.4-1-1.3-2 .1-1.1 1.2-1.4 5-1.6a40.4 40.4 0 0 1 10.5.4s0-.5-.3-1c-.3-.4-.4-1-.3-1.1.2-.5 1.3-.5 2 0 1 .5 1.5 0 1.2-.9-.4-1-2-1.8-2.8-1.3-.5.2-1.4.3-3 .2-2.6-.2-5.5.2-7.7 1.2l-1.6.5-2.7 1.2c-2.4 1.2-3.3 1.4-3.2.5 0-.4.5-.8 1.3-1.2a2304.7 2304.7 0 0 1 5.7-3h-3c-3 0-5.6.6-7 1.6l-1 .5c-.3 0-.6.1-.7.3-.4.4-1.2.1-1.2-.4 0-.2.4-.6.8-1a14.5 14.5 0 0 1 5.5-2.9c1.8-.8 2.2-1 3.5-1.3l1.6-.6.4-.2h.4c.5 0-.2-.7-1-1.2-1-.5-3.6-.5-5.9 0l-3.4.6a19 19 0 0 0-6.2 1.7c-.8.4-2.7.6-3 .2-.3-.5.8-1.2 3.6-2.2 1.6-.5 2.6-.9 2.4-1-.6 0-.9-.6-.6-1.2l.6-1.2c.7-1.5 2-2.5 3.4-2.7.7 0 1.9-.3 2.7-.5a30 30 0 0 1 4.5-.6c2.8-.1 3-.2 3.5-.8.5-.7 2-.8 2.9-.3 1 .6 1 0 0-.7a9.4 9.4 0 0 0-5.6-1.6 8 8 0 0 1-2.7-.5 2 2 0 0 1-.2-1c0-.5-.1-.5-1.2-.4-1.5.2-2.5.8-2.5 1.5 0 .8-.8 1-1.3.4-.5-.8-2.3-.6-4.3.4-3.5 1.7-4.6 2.4-5.2 3.2-.7.8-1.7 1-2 .5-.6-1 1.6-3.2 3.8-4a7 7 0 0 0 2-1.2c1-.8 1-.9.3-.9a5 5 0 0 0-1.9.8 5 5 0 0 1-1.9.8c-.8 0-1.1-.6-.6-1.2.2-.3.2-.5 0-1.2l-.4-.8-1.7 1.6a41.2 41.2 0 0 1-4.4 3.5c-1 1-2.1 1-2.2 0 0-.4.2-.8 1.3-1.6 3.5-2.8 5.7-5.4 5.5-6.5-.2-.6-2 .7-4.2 3-1.8 1.8-2.5 2-2.6.8-.1-.8-.3-.9-1.3-.8-1 .1-1.7.3-1.7.7 0 .1-.3.6-.8 1-1 1-1.3 2.4-.6 3.1.5.6.3 1.3-.5 1.6-.3 0-.8.4-1 .6-.2.3-.4.4-.6.4l-1.8 1.1-1.8 1-1 .9c-.4.4-.8.8-1 .8-.3 0-3.2 2-4.6 3.3-1.6 1.4-3 2.4-3.2 2.2-.1-.4.7-1.7 1.5-2.4a11 11 0 0 1 3.5-2.4c.3 0 .9-.4 1.3-1 .9-1 1-1.5.4-1.4-.2 0-.6-.4-1-.9-.5-.9-.5-1-.2-2.4.5-2 .1-2.2-1.6-.6-1.4 1.3-1.5 1.5-1.5 2.5 0 2.1-.3 3.3-1 3.7l-2 1.7c-1.6 1.5-2 1.7-2.5 1.4-.3-.2-.7-.1-1.4.2-1 .5-3 2.4-3 2.9 0 0-.5.8-1.3 1.5a11.4 11.4 0 0 0-2.9 5.1l-.5 2c-1 4-1.4 6.3-1.2 6.7.1.3.2.4.5.1.2-.2.4-1 1-4.1 0-.8.4-1.8.8-2.4.8-1.3 3.3-4.2 4-4.5l2-1.8c1.7-1.6 2-1.7 2.4-1.1.5.5 0 1.6-1.2 2.3-1.2.9-4 3.6-4.7 4.5l-.4 1.1c0 .4 0 .3.7 0 1.3-.8 3.2-2.5 6.6-5.8 4-3.8 5.1-4.6 6-4.1a6 6 0 0 0 2 .3c.8 0 1.4 0 1.4.2 0 .5-1.3 1.3-2.8 1.7-2 .7-4.2 1.8-4.7 2.5a21.4 21.4 0 0 0-1.8 2.2l-1.1 1.3-1 1.5c-.8 1-.9 1.1-1.5.9-.6-.2-.8-.2-1.4.5a5 5 0 0 1-1.2.9c-.2 0-.5.7-.7 1.4-.5 1.5-1.2 2-1.7 1.3-.3-.4-.5-.5-.9-.2-.3.2-.5.8-.6 2.3-.1 1.2-.3 2.4-.5 2.8-.1.4-.2 1.5-.1 2.5 0 1.1 0 2.4-.2 3.2-.4 1.2-.4 1.5 0 2 .2.2.5.5.7.5.3 0 .4-.7.3-3.1 0-4.3.8-7.7 1.9-7.4.6 0 .6 1.4-.1 3.7-1.2 3.9-1.2 4.5-.8 5.4.3.6.6.9 1 .9.8 0 .8 0 1.3-3 .3-1.8 1-3.5 2.3-5.6.4-.7.7-.9 1.1-.8.6.2.7.6.2 1.3-.2.3-.9 1.9-1.5 3.6l-1.4 3.6c-.2.5-.2.7.1 1 .4.4.6.3 2.2-1.4l2.8-3.1c1.5-1.8 2.3-2.3 3-2l.4.5c0 .2-1 1.4-2 2.7-3.2 3.6-3.8 6-1.7 6 .6 0 1-.2 1.7-1 1.2-1.6 3.7-4 4.2-4 .8 0 .8 1 0 2.2-.3.5-.7 1-.9 1-.4 0-1.2 1.8-1.4 3.2-.1 1-.1 1.3.3 1.5.5.2 2-.8 3.7-2.6 1.7-1.7 2.8-2.4 3.5-2.2.9.2.7 1.3-.4 2.4-1.4 1.4-2 2.9-1.8 4 .2 1.1.6 1.5 1.1 1a512.6 512.6 0 0 1 2.3-2c1.4-1.1 2.3-1.3 2.8-.6.4.5 0 1.7-1 3.2-.8 1.2-.7 1.9.5 2.5.9.4.9.4 2-.2.7-.4 1.6-1 2-1.1 1-.6 3-.8 3.2-.4.3.5-.3 1.1-1.1 1.1-.4 0-1 .2-1.4.4l-1.1.6a9 9 0 0 0-1.6 1.2c-1 .9-1 1-1.6.6-.3-.2-1-.5-1.6-.6-1.2-.2-1.9-1-1.6-2.2.3-1.5-.4-2-1.6-1.2-1.4 1-3 0-3-1.9 0-1.5-.5-1.8-1.5-1-1.5 1-1.5 1.2 0 2a6 6 0 0 1 1.5 1.3 22.3 22.3 0 0 1 5 4.8c1.5 1.8 1.5 1.8 2.3 1.2a19 19 0 0 1 2.4-2c1.8-1.4 5.3-1.4 5 0 0 .5-.5.7-2.4 1.4a13.2 13.2 0 0 0-3.6 1.6c-.7.2-.7 1.2 0 1.9.5.4.6.4 2.3-.1 2.7-.9 3.5-.8 4.6.4 1 1.2 1 2-.2 2.1-.7.1-.9 0-1.2-.6-.3-.6-.5-.8-1.5-.9-.9 0-1.3 0-1.8.5-.7.8-.5 1.7 1 3.4l1.8 2.8c1 1.5 1 1.5 1.7 1 1-.4 4.7-.4 5.3 0 .4.3.5.6.3.9-.1.4-.3.4-1.4.3-1.5-.2-2.4.2-1.3.5.6.1.7.3.7.8 0 .7 0 .7-1.2.5a3 3 0 0 1-2-.8c-.5-.6-.6-.7-.7-.3 0 .5 1.3 2.7 2.2 3.4a10 10 0 0 0 5.8 1.6l2.7.1c.4.2 1.4 2 1.4 2.6 0 .3.1.3.7-.1.5-.5.5-.7.4-1.5zm-14.6-11c0-.8.7-1.1 3.1-1.6 3-.5 5.7.1 5.7 1.3 0 .6-.6.7-2.2.4-1.3-.3-2-.3-3.1 0l-2.5.4c-.9.1-1 0-1-.5zm11.6-2.3-1.5-.4c-1.5-.2-2.1-.7-1.6-1.4.8-.9 4.5.4 4.5 1.5 0 .4-.2.5-.6.5-.4 0-.8 0-.8-.2zm33-2.4c-.7-.4-.3-1.2.6-1.3 1 0 1.7.6 1.5 1.2-.2.4-1.6.5-2.2.1zm-3.1-1.7c-.2-.5.4-.8 1.3-.6.4.1.6.3.5.6-.2.5-1.6.5-1.8 0zm-3.3-.9c-.6-.2-.4-1.1.3-1.3.6-.3 2 0 2 .5 0 .7-.4 1-1.1 1-.5 0-1 0-1.2-.2zm8.7-.9c-.8-.9-.1-1.4 2.2-1.6 1.4-.2 1.7-.1 1.8.2.3.7.2.9-.9 1.3-1.2.5-2.6.5-3 .1zm-4.7-4.7-1.3-1.4-1.2.5c-.9.4-1.4.5-2 .3-.4-.1-1.8-.3-3-.3-1.8 0-2.7-.3-4.1-.9a16 16 0 0 0-3-1 60.9 60.9 0 0 0-7.3-2.2c-.6-.2-1.4-.5-1.7-.8-.7-.6-.9-.7-3.4-1.2-3.4-.7-6.5-1.8-7.7-2.7-.7-.5-1.4-.9-1.8-.9-.9 0-1.3-.4-1-1.1 0-.6.3-.7 1.3-.9 2-.3 6.6.1 9 .9 3.7 1.1 4.8 2 5.1 4 .2 1 .7 1.4 2.9 2l6.3 2.2c.8.5 2 .5 2.8 0 .6-.4.7-.4 1.4 0 1 .4 1.3.4 2-.2.4-.3 1.1-.5 1.6-.5 1 0 1-.6 0-1.2l-2-1.6-1.7-1.5c-.5-.4-.3-2.2.3-2.3l1 .5c.3.2 1.1.5 1.8.6l2 .4c1 .4 2.3.4 2.3 0l.4-.6c.3-.3.3-.5.1-1-.3-.6-2.4-1.7-3.8-1.9-2-.3-5.3.5-7 1.7-.9.6-2.7-.1-5-1.9-2.1-1.6-2.6-2.2-1.8-2.5.5-.2 2.4 1 3.7 2.2l1 1 2.3-1a9 9 0 0 1 5-1 16.2 16.2 0 0 1 5.4.8c.3 0 .5-2.9.3-4-.1-.8-.3-1-1-1.3-1-.3-4.3-.3-4.5 0-.1.2 0 .3.1.3.2 0 .3.2.3.5 0 .7-.4.7-3.7-.4-2.4-.9-2.7-1.4-1.3-2.1 1-.5 4.5-.6 7.3-.1 1 .1 1.8.2 2 0v-1c0-.5 0-.9.2-1.1.6-.5 1.2.1 2 2a7 7 0 0 1 .7 3.8c0 3.3-.5 7-1 8-.4.8-.4.8.2 1.2 1.3.9 1.8 1.6 1.5 2.1-.3.6-.7.5-2-.4-1.2-.9-3-1.7-4-1.7-.5 0-.9.1-.9.2 0 .2.5.6 1 1.1l1 .9-.6.5c-.7.6-.8.6.7 1 2.5.8 5.6 3.8 5 4.8-.3.8-.7.6-2.2-.8zm-3-2.3h-.6c-.2 0-.1.1.2.2.3 0 .4 0 .3-.2zM292.8 92c.2-.5-1.8-1.5-2.8-1.5-.4 0-1.3-.3-2-.6-1.1-.4-1.4-.5-1.7-.2-.5.5-.1.8 1.2 1.2 5.2 1.6 5 1.6 5.3 1zm36.5-.5c-.8-.3-.8-.8.2-1.7 1.5-1.2 3-.5 1.8.8-.9 1-1.3 1.2-2 1zM276 87.7c-.3-.4-.1-1.1.3-1.5.3-.4.3-.5-.5-.6l-1.8-.7c-.5-.3-1.4-.6-2.1-.8-1-.3-1.2-.5-1.2-1 0-.8-.1-.8 3.7-.4 1.2 0 2.8 0 4.5-.3a88 88 0 0 1 8.4-1c.4-.2.8 0 1.3.3 1 .8.5 1.3-1.4 1.5-5.9.5-8 .9-9.2 1.6l-.7.5.9.1a37.2 37.2 0 0 1 13-.8c2 .5 2.7 1 2.6 1.7 0 .7-.8.7-2.5.1a19.2 19.2 0 0 0-12.7 1c-.9.4-2.2.6-2.6.3zm21.7-6.9a31 31 0 0 0-5.5-1.8c-1-.2-1.6-.8-1-1.3h1l3 .8c3.3.8 5.5 2.1 4.8 2.8-.2.3-.5.2-2.3-.5zm-24-.2-3-.6c-2.7-.5-3.5-.8-3.2-1.6.2-.4.4-.4 3.6.1 3.4.6 5.7 2 3.6 2.1h-1zm38-2c-.9-.6-1.4-1.2-1.4-1.7s.5-.6 2-.2c.7.3 1 .2 1.4 0 .8-.7 1-.8 1.4-.4.6.6.6 1-.2 1.8-.7.8-2.2 1-3.1.4zm-57-.8c0-.5.4-1.2 1-2 1.5-1.8 2.5-1.5 1.5.5-1.2 2.3-2.5 3-2.5 1.5zm41.2-1.4a20 20 0 0 0-4.2-1c-.5 0-.9-.3-.9-.5 0-.6 1.5-.7 3.7-.3 2.2.4 3 .9 3 1.6 0 .6-.8.7-1.6.2zM279.6 74a.6.6 0 0 1-.3-.5c0-1 4.7-1.8 6.5-1 .8.3 1.5.3 3.3.2 2-.2 2.4-.1 2.5.3v.6c-.3.3-11.4.6-12 .4zM262 72.2c-.6-.3-.2-1.2 1.2-2.5 1.6-1.6 3.7-3 4.6-3.1.5 0 .6 0 .7.5l-.1.6a129 129 0 0 1-6 4.8l-.4-.3zm6.2-1c-.6-1 2.5-2.9 3.4-2.2.3.3.6.2 1.3 0 1.7-.8 5-1.3 8.2-1.4 1.9 0 3.5-.2 4-.4.6-.3.7-.3 1 0 0 .3.1.3.3 0 0-.3.2-.3.4 0l1 .3c.5 0 .6 0 .6.4-.2.6-1.5.8-4.8.9-1.2 0-3 .2-4 .4a82.8 82.8 0 0 1-5.6 1.2c-2.1.6-2.3.6-2.7.2-.4-.4-.6-.4-1.5.2-1.2.7-1.4.7-1.6.4zm-9.3-2.8c-.2-.5.8-1.5 1.5-1.5.2 0 .9-.3 1.5-.8a5 5 0 0 1 1.6-.8c.2 0 .7-.2 1-.5 1-.7 2.6-.7 2.4 0 0 .3-3.6 2.4-4.3 2.4-.2 0-1.6.6-3.1 1.4-.3.1-.5 0-.6-.2zm13.3-2c-.4-.5.4-.8 3.3-1.5 3.2-.7 4.2-.6 4.2.1 0 .4-.5.6-2.9 1-4.2.7-4.5.7-4.6.5zm8 0c-.2 0-.3-.4-.3-.7 0-.7.6-.9 3.3-.9 2 0 3 .3 3.4 1 .6.7.2.8-3 .8a19 19 0 0 1-3.5-.1zm-9-3c-1-1.2 1.9-2 10.7-3.2.8 0 .8.8 0 1.3a12 12 0 0 1-5.2 1c-.6 0-1.5.1-2.8.6-2.3.8-2.3.8-2.7.3zm-14.3-1.8c0-.1.1-.2.3-.2.2 0 .2 0 .1.2 0 .2-.2.3-.3.3v-.3zm10.6-.3c0-.4 3.9-2.5 5.7-3l2-.8c2.6-1.2 5.7-1.8 6.3-1 .2.2.2.4 0 .6-.4.3-5.7 1.6-6.4 1.6-.3 0-.7.2-.9.4-.2.2-1.2.7-2.3 1l-2.1 1-1.3.4c-.8.2-1 .1-1-.2zm-4-1.8c-.3-.2-.2-.3.1-.9l.7-.7c.2 0 1-.4 1.9-1 .8-.6 1.6-1 1.7-1l1-.6a21 21 0 0 1 5-2.1c4.5-1.5 5.4-1.6 5.7-1 .2.5-.2.9-1.2 1.1a77 77 0 0 0-9 3.2l-1.3.8-1.4.8c-.9.8-2.8 1.6-3.2 1.4zm25-5.2c-.3-.3 0-1.6.4-2.2.5-.6 5.8-3.4 6.5-3.4.6 0 .8.7.3 1.3l-2.6 1.7-2.6 1.7c-.3.4-1.4 1-1.6 1h-.3zm11.2-5.6c-.3-.6.5-1.2 1.2-.8.6.3.3 1.3-.5 1.3-.3 0-.6-.2-.7-.5zm-95.3 75.4-.1-.3c-.2 0-.3.1-.3.3l.1.2s.2 0 .3-.2zm2-2.2c0-.2-.2-.1-.4 0l-.4.7.4-.1.4-.6zm108.8.2c.6-.9-.6-1.2-2.2-.6-.6.3-1.4.5-1.7.5-.8 0-.9.4-.2.6.8.2 3.9-.1 4-.5zm-8-3.3c0-.4-1.8-1.1-2.6-1-1 .1-1.1 1-.1 1 1.5.3 2.7.2 2.7 0zm28.3-6c.4-1 0-1.3-.8-.5-.7 1-.7 1.2 0 1.2.4 0 .7-.3.8-.7zm-32.3-.8c0-.2-.3-.4-.7-.5a8 8 0 0 1-1.4-.5c-.6-.3-.8-.3-.9 0 0 .2 0 .6.3.9.4.4.7.5 1.5.5.6 0 1.1-.2 1.2-.4zm26.4-1.8c3.6-3 6.4-7.3 6.4-10 0-.6.2-1.3.6-1.7.3-.4.5-1 .5-1.2 0-.5-.1-.4-.4.2l-2.5 3c-2 2-3.8 4.8-4.6 7-.3.7-.8 1.3-1.1 1.5-.7.4-.9 1.3-.4 1.8.4.3.4.3 1.5-.6zm-31.6-3.2c.8-.3.5-1.1-.5-1.4-2-.6-2.5-.2-1.4 1 .6.5 1.2.7 2 .4zm5-3.5.8-.1-.7-.4a5 5 0 0 0-2.3-.4c-.3 0 .6 1.1 1 1.1.2 0 .7 0 1.1-.2zm-8.2-.5c0-.8-1.7-2.4-2.6-2.6-1-.2-1.2.2-.3 1.2 1.5 1.6 2.9 2.3 2.9 1.4zm7.6-2.2c.4-.2.4-.3 0-.3l-1.8-.6c-1.8-1-3.5-1.5-3.5-1.2 0 .6.7 1.5 1.3 1.7 3 .7 3.5.8 4 .4zm31.5-2.6c1.2-1.4 2.7-4.6 2.7-5.7 0-.5-.1-1-.3-1-.1 0-.8.7-1.4 1.5-.9 1-1.2 1.7-1.1 2l.3 1c0 .3-.1.8-.7 1.3-.8.8-1.1 2-.6 2 .2 0 .7-.5 1.1-1zm-37.6-.2h-.5c-.2 0-.2.1.1.1.3 0 .5 0 .4-.1zm-39.3-3.6c.2-1.1.2-2 0-2-.3 0-1.7 1.7-1.7 2.1 0 .4.4.6 1.3.7.1 0 .3-.3.4-.8zm-4.2-2.5c.2-1-.1-1.7-.7-1.2-.5.4-.7 1.5-.4 1.9.5.5 1 .3 1.1-.7zM243 86c0-.3 0-1-.3-1.6-.5-1.5-.1-5.8 1-11.1.4-1.5.4-1.9 0-2.8-.3-1-.3-1.1.4-2.4.3-.7.9-1.5 1.1-1.8.6-.7 1.8-3.5 1.8-4.1 0-.3-.2-.7-.4-.8-.3-.3-.6-.2-1.6.8-1.8 1.8-2.1 2.7-2 6.6v3.7c.2.3 0 .4-.5.4-1 0-1.6-1.5-1.5-3.3 0-1 0-1.3-.2-1.3s-.4.8-.4 2.8c-.2 4 0 4.4.7 4.2 1.1-.2 1.3.5.6 2-.5 1-.5 1.5-.4 3.4.2 2 .6 4.8.9 5.8.1.5.7.2.8-.5zm-5.6-4.5c-.3-.2-.4.1-.2.8l.2.6v-.6c.1-.3 0-.7 0-.8zm2.2.3c0-.6 0-.7-.5-.2-.6.5-.5 1 .1 1 .3 0 .4-.3.4-.8zm-4.7-3.6-.3-.6c-.2 0-.2-.5-.1-1l-.1-.7c-.4 0-.5 2.2-.2 2.5.3.3.7.2.7-.2zm89.4-6.3c0-1.2-.4-2.2-.8-2-.2.2-.3.6-.3 1 0 1-.6 1-1.3.1-.9-1-2-.7-1.3.4.2.4 2.6 1.6 3.2 1.6.4 0 .5-.2.5-1zm-11 0c.5-.3 1-.3 1.7-.2l1.5.4c.6.2 1.7-.7 1.7-1.3 0-.4-.8-.8-2.6-1.2-1-.3-1.3-.3-2.4.4-1.3.6-1.4.6-2.9.3-1.5-.4-1.7-.3-3.7.5-.8.3-.4.6 1.2 1.1 2 .6 4 .6 5.4 0zm1-9.2c1.8-.3 2-.4 2.7-1.2.9-1.1.7-1.7-.5-2.6-.7-.6-1.3-.8-2.6-.8-1.6-.2-2-.4-2-1.3 0-.6 1-1 2-.7.7.2 1.3.2 2 0l1.6-.3.8-.1-1-.7a27 27 0 0 0-3.5-1.6c-2-.9-2.6-1-3.8-.9-.8.1-2.3.2-3.3.1-2.7 0-7.4.5-9 1a6.2 6.2 0 0 0-3.5 2.7c-.6 1-.4 1.2.8 1l2.8-.3c1 0 2-.2 2.4-.4a4 4 0 0 1 1.8-.2c3 .4 5.4 1 6.7 1.6.9.5 1.9.7 2.7.7.8 0 1.2.1 1.4.4.2.6.2.6-.3 1-.3.4-.7.4-1.3.3l-1.8.1-2.4.6c-1.5.4-2 1-.6.9.8-.2 1.7.3 1.7.8 0 .4.4.4 2.1.3 1.1 0 3-.3 4-.4zm-63.2-3c.4-.3.7-.8.7-1 0-.2.4-.9 1-1.4.4-.6 1-1.4 1-1.7l.4-1.7c.7-2.2-.2-1.6-2.9 2-1.5 1.9-2.2 3.2-2.2 4.3 0 1.1.4 1 2-.5zm67.4-2a1 1 0 0 0-.6 0c-.2.1 0 .2.3.2.4 0 .5 0 .3-.1zm-61.3-1.3.3-1.7c.1-1 0-1.3-.2-1.3-.6 0-1.6 3.1-1.1 3.5.2.3.9 0 1-.5zm9.7-3c1.8-1 3-2.3 2-2.3-.4 0-2.6 1.4-3.2 2-.5.6-.5.6 0 .6a3 3 0 0 0 1.2-.3zm0-4 1.6-.3c.9-.2 1.5-1.5 1-2.1-.2-.3-.5-.4-.8-.4-.3 0-.6-.3-.8-.6-.2-.3-.5-.5-.6-.5-.5 0-1.5 2.1-1.5 3.2s0 1.1 1.2.8zm28.8-3.9.9-.4c.8-.2.3-.8-.6-.7-.9 0-1.6.6-1.6 1s.6.4 1.3.1zm-.5-3.6c.6-.7.5-1-.4-1.2-.5-.1-.8-.5-1-1.4-.2-.4-.4-.3-1.6.6-2.1 1.6-2.2 2.7-.2 2.2 1-.3 1.9-.2 1.9.3 0 .4.7.2 1.3-.5zm3.7-.8c0-.5-.3-.4-1 .3-.3.4-.5.8-.4 1 .2.3 1.4-.8 1.4-1.3zm-9.2-1.7.7-.5 3.7-3.5c3.4-3.3 5.2-5.7 4.7-6.2-.4-.4-1 .3-2.8 2.6-2.2 3-2.8 3.6-3.3 3.6-.6 0-.8-1-.4-1.9l1.4-2c2.5-3.1 4.1-6.8 3.7-8.4-.2-1-.7-.4-1.4 1.4-.6 1.7-2.5 4-3.2 4-.2 0-.7-.2-1-.5-.3-.4-.4-.7-.2-1.8.4-3.4 2.4-7.2 3.7-7.2.8 0 1-.5 1-2.6-.2-3-1.3-4.5-1.7-2.2l-.8 2-.5 1.6c0 .2-.2.8-.5 1.3-2.5 3.9-2.8 4.3-3.7 4.8-1.3.7-2.2.3-2.5-.9-.1-.4-.4-.9-.6-1-.5-.2-1.9-3.1-1.7-3.8 0-.3.3-.4 1-.4 1 0 1 0 1.6-1 .4-.8.7-1.8.8-2.9 0-.9.4-2 .7-2.5.5-1 .5-2.6 0-3.4-.4-.5-1.2-.2-1.2.4 0 1.1-.8 3.3-1.7 4.3-2 2.4-2.5 3.4-2.5 5 0 1.3-.1 1.7-.5 2.2-.7.6-.8.6-.9-.7 0-.5-.2-1-.3-1.1-.3-.4-.9.2-1.4 1.3-.7 1.5-2.4 3.3-3.4 3.5-.5.1-1 0-1.7-.4-1.6-.9-4-.4-4 .8 0 .6 1 .9 2.5.7 2.5-.4 6.5-.5 8.4-.2 2.3.4 3.2.8 4.4 1.9l2.5 2.2c2 1.6 2.9 3.2 3 5.4.2 2.6-2.2 4.7-3.6 3.2l-.5-.6v.7c0 .4.1.7.3.8.2.1.3.7.2 1.3 0 1.8 0 1.8.6 1.5l1.1-.8zm-4.6-2.7c-.4-.4-.6-.4-.7-.2 0 .2.1.6.5.9.4.3.6.4.7.1 0-.1-.1-.5-.5-.8zm10.9.6c1-.5 2.4-2 2.4-2.4 0-.4-1.7.7-2.8 1.9-1.2 1.2-1.1 1.3.4.5zm-7.7-6.6c0-.3-1.5-1.6-1.9-1.6-.5 0-.2.7.7 1.2.9.7 1.2.8 1.2.4zm-44.9-3.8v-.7c-.2 0-.3.4-.3.8 0 1 0 1 .3 0zm11.3.2s0-.3-.2-.4c-.4-.4-1.6 0-1.6.4s.1.4.8.3l1-.3zm-11.1-1.4c0-.2-.2-.3-.5-.3s-.6.1-.6.3l.6.2c.3 0 .5-.1.5-.2zm8.6-1c.2 0 .4-.3.4-.4 0-.4-1.4-.2-1.5.2-.2.4.4.5 1 .2zm-16.8-.4c0-.1-.1-.2-.3-.2-.1 0-.2 0-.2.2s0 .3.2.3.3-.1.3-.3zm7.2-.1c.6-.1 1-.3 1-.5 0-.5-1.2-.7-3.6-.7-2.1 0-2.7.3-1.7 1.1.6.5 1.6.5 4.3 0zm52-1.1c0-.6 0-.7-.2-.4-.3.6-.3 1.1 0 1.1.1 0 .3-.3.3-.7zm-5-2c1-1.2 1-2 .4-1.5-1 .5-1.7 1.2-1.8 1.9-.3 1.1.5 1 1.4-.4zm6 .4c.5-.8.3-1.8-.3-1.1-.4.4-.7 1.8-.5 1.8.2 0 .5-.3.7-.7zm2.2-1.2c0-1 0-1.3-.4-1.4-.6-.3-.8 0-.4.8.2.4.2.7 0 .9-.3.3 0 1.1.4 1 .2 0 .3-.6.4-1.3zm-20.5-.8 1-1c.3-.6.1-3.8-.4-6.3-.3-1.3-.3-2.1-.2-2.5.2-.5.1-.8-.2-1.1-.5-.4-.5-.4-1 0l-.4.7c0 .2-.3.6-.7 1-.6.7-.6.8-.4 1.6.8 2.5 1 3.2.8 3.6-.2.4-.3.4-.8-.2l-.7-.5-1 2c-1 2.2-1 2.4-.4 3.1.4.4.7.5 2 .3 1 0 2-.4 2.4-.7zm-28.7 0c.2-.3-.6-1-1.1-1-.8.1-1.7-.2-1.9-.7-.1-.3-.4-.3-1.2-.2-1.3.2-2-.3-3.1-2.2-.8-1.4-1.9-2.4-2.5-2.4-.7 0-.6.4.3 2.2 1 2 2 3 3.6 3.5l2.6.7c1.2.4 3 .4 3.3 0zm19.7-.5c.3-.5-.8-4.1-1.6-5l-.7-1.6c-.6-1.9-2.9-2.9-2.4-1 0 .3.5 1 .9 1.4 1 1.1 2.7 4.8 2.5 5.6v.7c.3.3 1.1.2 1.3 0zm-16.8-.8c1.6-.7 1.7-1 .4-1-1.1 0-2.2.6-2.2 1.2 0 .5.2.5 1.8-.2zm5.4-.2c.7-.8 1-1.3.4-.9l-1.3.5c-.5.1-1 .5-1 .7-.1.8 1 .6 1.9-.3zm4.8.3h1.5c1 .2 2-.3 2-1.1a8 8 0 0 0-1.7-3.5c-1-1-3.8-.8-3.8.2 0 .6.8 1.4 1.2 1.4.6 0 .7 1 .2 1.7-1 1.2-.7 1.8.6 1.3zm-27.4-1c0-.5-1-2.2-1.3-2.2-.1 0-.3-.3-.3-.6 0-.4-.4-.8-.9-1-.8-.4-3-.7-3-.4 0 .4 1 1.5 1.8 2l2.1 1.5c1.3 1.2 1.6 1.3 1.6.7zm37.3-1.4c.8-1.9 1.3-4.1 1-5l-.2-.7-.4.7c-.2.3-.4 1-.5 1.6-.1.8-.3 1-.8 1-.4 0-.7-.3-.9-.7-.4-1-1.7-2.5-2-2.5-.6 0-.7.5-.3 1.3a39.3 39.3 0 0 1 2.5 6c.3.5.9 0 1.6-1.7zm-25-.2c0-.3-.4-.7-1.4-1.2l-1.7-.7c-.7 0 .8 1.7 2 2.2.8.4 1.1.3 1.1-.3zm4.3-.1c.6 0 .8-.1.7-.4-.2-.5-1.3-1-2.7-1-1.3 0-1.4.1-1.2.7.3.8.7 1 1.5.8l1.7-.1zm-27.2-.5c0-.3-1.6-1.4-2-1.4l.6.8c.7.8 1.4 1 1.4.6zm34.1-.4c-.6-.7-2.1-.7-2.2 0-.1.3 0 .4 1.3.4 1.2 0 1.3 0 1-.4zm22-.8c-.1-.1-.2 0-.2.4 0 .3 0 .5.2.3V14zm-44.5 0c0-.4 0-.7-.5-.8-.7-.2-1 0-1 .6 0 .7.3.9 1 .8.2 0 .5-.3.5-.7zm17-1.5c0-1-.2-1.2-.6-1.2-1.8-.3-3.4-1-6-3-.6-.4-.7-.1-.2.6L247 10l2 1.6c.7.7 2.8 1.9 3.2 1.9.2 0 .2-.5.2-1.1zm4.8-.7c0-.4-.8-1-1-.7-.3.1-.3.3 0 .5.3.4 1 .5 1 .2zm27.6-.7c.6-.8.7-3.2.2-3.3-.3 0-.5.4-.8 1.7l-.3 2c0 .4.5.3 1-.4zm-40.3-.4c0-.3-2-2.1-2.4-2.1-.5 0-.3.3.9 1.3 1.1 1 1.5 1.2 1.5.8zm-3.7-.8c-.6-.6-1-.7-1-.3 0 .2.9.7 1.4.8 0 0 0-.2-.4-.5zm19.8 0c-.3-.7-1-1-1-.3 0 .6.2.8.8.8.4 0 .5 0 .2-.5zm19.3-.4c0-1-.6-2.8-1-2.8-.5 0-.4 2.4.2 3 .6.6.8.6.8-.2zm-4.6-.4c.5-1 .5-3 0-3-.2 0-.4.2-.4.3l-.6 1c-.8.7-1 2-.4 2.3.7.3 1 .2 1.4-.6zM255 8.7c0-.3-.8-.6-1.1-.4-.5.3-.2.7.4.7.4 0 .7-.1.7-.3zm-16.2-.2c0-.2 0-.4-.2-.4-.2-.1-.3 0-.3.2s.1.4.3.4c.1 0 .2 0 .2-.2zm2.4-.8c0-.7-1.2-1.9-1.8-1.9-.5 0-.6.1-.5.4l.2.7c0 .3 1.3 1 1.8 1 .2 0 .3-.1.3-.2zM478.8 225l-1.7-1.4a5 5 0 0 0-1.3-.8c-.6 0-4.9-3.4-6.8-5.4-.5-.6-1.6-1.5-2.4-2l-1.7-1.2-1.3-1c-1-.6-1-.5-.5-3.8.1-.8 0-1-.7-1.3-.7-.4-.8-.4-.8.2 0 .4-.3.6-.6.5-.6 0-.6.4 0 .6.4.2.5 2.2 0 2.4l-2.4-.2c-1.5-.3-2.1-.5-2.5-1l-.6-.8c0-.2-2.2-1.2-4-1.7-.7-.2-1.6-.6-1.8-.8l-3-1.4c-1.3-.7-2.8-1.5-3.2-2-.5-.3-1.8-1.2-3.1-1.7a9 9 0 0 1-3-2c-.8-1-1.8-1.5-7-3l-2.9-1c-.4-.3-.9-.4-1.3-.3l-4.3.4-5.4.4c-2 .3-4 .3-6.1.1-1.2 0-1.5 0-2.2.7-.9.7-1 .7-2.6.5-1.3-.1-2 0-2.9.3-.8.3-1.6.4-2.7.3-1.4-.1-1.7 0-2.4.5s-1.2.6-2.9.6-2 0-2.5-.6l-.4-.5-.8.6c-1.2 1-2 1.2-3.6 1.2-1.4 0-1.7 0-2.2.7-.5.6-.6.6-2 .3a43 43 0 0 0-3.3-.5c-1.6-.2-1.6-.2-2 .7-.8 1.5-1.4 1.6-4 .3-1.1-.6-2.7-1.7-3.4-2.4a7.7 7.7 0 0 0-1.6-1.3l-1.7-1-2-.9c-.3 0-1.5-.3-2.6-.8-1.2-.4-2.4-.8-2.8-.8-.3 0-1-.2-1.6-.5l-1.4-.5-2.4-1.3a8.5 8.5 0 0 0-3.8-1.4c-1-.1-2-.4-2.6-.7l-2-1.1c-.7-.3-1.4-.7-1.6-1-.2-.2-.8-.4-1.2-.5-1.2-.3-2.2-.7-2.2-1l-1.6-.4c-.9-.1-2-.5-2.7-.8-.6-.4-2-.8-3-1.1-2-.5-7.4-2.4-8.2-3-.6-.3-3-1-4.8-1.2-.8-.2-2-.5-2.5-.8a29 29 0 0 0-2.7-1c-1.1-.3-1.5-.6-1.5-.9.1-.6 1.2-.6 2.4-.1l2.7.8 3.9 1.2 4 1.2 3.5 1a52 52 0 0 1 9.2 4c.8.7 2.8 1.1 3 .5 0-.2-.2-1.3-.6-2.4-.8-2.1-.9-2.9-.2-3.1l3.8-.4c1.8-.2 3.6-.5 4-.7.3-.2 1.6-.4 2.7-.5a14 14 0 0 0 2.7-.4c.5-.2 2.3-.5 4.1-.8 1.8-.3 3.7-.6 4.1-.8a14 14 0 0 1 2.4-.5l2.6-.5c.6-.2 2.9-.5 5-.7l5.2-.7c.7-.2 2.6-.4 4.3-.5 1.8-.1 3.9-.5 4.8-.8l3.6-.8a120.6 120.6 0 0 0 7-1l3.3-.6c3-.7 8.4-1.5 13-1.9 3.1-.2 8.4-1 10-1.5 1.1-.4 3.5-.7 6.6-1 2.4-.3 2.8-.5 2.6-1-.2-.5-2-1.5-2.6-1.5-.2 0-1-.4-1.6-.9a18 18 0 0 0-4.4-2c-1.8-.6-4.3-1.5-5.6-2.1-1.2-.6-2.8-1.2-3.6-1.3-.7-.1-2-.6-2.8-1l-2-.6-1.5-.4-3.1-.8c-1.1-.2-2.4-.6-2.8-.9-.4-.3-1.3-.6-2.1-.7a9 9 0 0 1-2.4-.6 22 22 0 0 1-5.4-3.4c-.4-.5-1.3-1-2-1.3a82.5 82.5 0 0 1-5-1.8c-.5 0-1.6-.5-2.5-1l-2.2-.7c-1 0-4-1.4-5.4-2.3l-2.7-1.9c-.8-.5-2-1.5-2.9-2.3l-2-1.7a44.8 44.8 0 0 0-8-5c-3.2-1.6-3.6-1.9-3.7-2.5 0-.7 0-.8.9-1.2.7-.3 1.2-.3 1.8-.1 2.5.8 6.2 1.9 7 2h2.8l1.9-.3-.7-.4c-.7-.5-2.5-1-4.5-1.4-.5 0-1.3-.4-1.6-.7-.4-.3-1-.5-1.4-.5a26.8 26.8 0 0 1-7-2.1 104.7 104.7 0 0 0-6.8-2.1c-2.5-.7-4.1-1.6-4-2 0-.3.3-.6.5-.6.6-.2 3.4.7 5.6 1.8 1 .4 2 .8 2.5.8 1.1 0 6.9 1.2 8.7 1.8 3.1 1 6.5 2 9.9 2.5 1.9.3 2.3.3 2.6 0 .3-.2.2-.4-.6-1a8.4 8.4 0 0 0-4.4-1.7c-3.4-.6-4.6-.9-5.7-1.5-.6-.3-1.9-.9-2.9-1.2a25 25 0 0 0-5.7-1.9l-3.8-1a3 3 0 0 0-1.2-.3c-.8 0-1.3-.4-1.3-1 0-.3.2-.3 1.2-.2a27.2 27.2 0 0 1 3.8.7 1563.5 1563.5 0 0 0 11.8 3.3c4.7 1.4 5.6 1.5 5.6.4 0-.6-.5-.9-2.2-1.5a21 21 0 0 1-4.9-2l-1.1-.5c-.9 0-4.6-1-6-1.6-1.8-.7-2.4-1.2-2-1.5.3-.3 3.8.5 6.7 1.6l2.7.7 2.2.6a73.9 73.9 0 0 0 7.8 2.2c.1 0 .3-1 .4-2.2.1-2.2.9-4.3 1.6-4.6.2 0 .9-1 1.5-2 .7-1 1.5-2 2-2.4 1.6-1.3 4.7-3.5 4.8-3.5l1.4-1.1c.7-.7 1.6-1.4 2.1-1.7l2.7-2a16 16 0 0 1 2.8-2l1.7-1.2c.7-.7 1.4-1.1 5.7-3.2l2.6-1.3 2 .3c1.1.2 2.4.2 3.3 0 .9 0 2.4-.3 3.5-.5 2-.3 2.3-.6 1.5-1.6a16 16 0 0 0-4.5-2L409 87l-3-1.2c-1.2-.5-1.3-.6-1.6-1.7-.1-.6-1-2.1-1.8-3.3a13 13 0 0 1-2.5-6c0-1.4 1-4 2.3-5.7l1.8-3c1-2 1.1-2.2 2.8-3.1l1.7-1 2.1.4 6 .6a47.6 47.6 0 0 1 9 1.3c5.8 1.1 6.9 1.4 8.2 2 1 .6 1.7.8 2 .7.7-.4 1.8.1 3.8 1.7 2.2 1.9 2.4 2 3.6 3.7.8 1 1 1.5 1 2.7V77c0 .1 1.5 1.5 3.3 3L451 83c.2.3.6.5 1.3.5.7 0 1.3-.3 2.7-1.5 1-.8 1.8-1.6 1.8-1.7l1.2-1a26.4 26.4 0 0 0 7-6 5 5 0 0 0 1.6-1.5c1.3-1.9 3-3.1 4.3-3.1.9 0 2.2.7 2.7 1.5l1.9 1.6c1.3 1.1 1.7 1.6 1.9 2.3 0 .6.3 1 .6 1.1 2.8.9 4.8 2.3 5.6 3.8.3.6.7 1.1 1 1.2.3 0 .6.4.7.7.2.9-.2 6.7-1 13a39 39 0 0 0-.2 4.1v1.5l-2 1.9-2 2.1c0 .3.6.8 2.4 2.2l1.4 1.2c.3.5 2.2.9 2.7.6l3.1-.4c3.6-.2 5.6.4 7.2 2 .6.6 1.3 1.1 1.5 1.1l1 .4c.5.4.9.4 1.7.3l4-.2a24 24 0 0 0 14.2-4.2c1.5-1 1.9-1.2 3.2-1.2.8 0 1.8-.1 2.3-.3.7-.3 1.2-.3 2.5-.1l3 .5c1.8.3 3.6 1.3 5.5 3 1 .9 1.8 1.4 2.4 1.5 1.4.2 2.3 1.1 2.3 2.5 0 1.2-.7 3.1-1 3.1-.4 0-1.7 1.3-1.7 1.6 0 .6 2.6.2 11.5-1.7l2.7-.4 1.8-.4 3.6-.7a102 102 0 0 0 10.5-1.6c2.5-.3 3-.4 3-.9 0-.4-.2-.5-3-1l-2.7-.7c-.4-.2-1.4-.3-2.2-.4-.9 0-1.7-.2-2-.3-.3-.2-1.8-.2-3.8-.2-3.2.2-3.4.1-3.9-.4-.7-.8-.3-1.6.9-1.8l2-.4 4.4-.4c3.3-.2 3.7-.4 2.2-1.1l-1-.7c-.2-.2-.7-.4-1.1-.4-6 .1-7.3-.1-7.3-1.4 0-1 .3-1.2 4.1-1.3 2 0 4.7-.3 5.8-.5a46.4 46.4 0 0 1 15.4 1.2c1 .3 2.3.8 3 1.3.7.5 1.8 1 2.3 1l2.2.8 3 1.2a34 34 0 0 1 6.9 3.7l1.4.9a27.3 27.3 0 0 0 4.8 2.9 23 23 0 0 1 6 4c3 2.9 3.5 3.6 3.2 6.2 0 1.4-.2 1.9-.8 2.6l-1.2 1.5c-.7 1-5.6 2-8 1.7-1-.1-1.5-.5-3-1.8-1-1-1.8-2-2-2.4-.3-.8-3-2.7-4.4-3h-1.9c-.6.1-1.2 0-1.7-.2-1-.5-1.4-.5-2.5.1-1.3.9-3.6 1.3-8.1 1.6a52.6 52.6 0 0 0-14 2.3 228 228 0 0 0-10.2 2.2l-2.6.4c-1.7.4-1.9.5-1.5.8l1.2.5a122.5 122.5 0 0 1 8 2 46.9 46.9 0 0 1 6.4 1.4c.9.1 2.3.5 3.1.8l2.4.5c1 0 2.7.4 6.4 1.6 1.7.6 4 1.1 5 1.3 1 .1 2.5.4 3.2.7l2.4.6a945.7 945.7 0 0 1 10.5 1.8c.5 0 1.4.3 2 .5.7.3 1.8.6 2.6.7 2.2.4 3.5 1.4 2.4 2-.7.3-7.4-.7-12-1.8a289.5 289.5 0 0 0-14.4-3.2 306.6 306.6 0 0 0-7.8-1.9 114.2 114.2 0 0 0-10.4-2.6 49.1 49.1 0 0 1-7.8-2c-4.4-1.4-6.3-2-7-2-1.3 0-5.3.5-6.5.9l-3.9.6c-6.9.9-9.2 1.4-9.2 2 0 .1.4.2.9.2 1.7 0 5 .8 6 1.5 1 .8 1.7 2 2.6 5.3.6 2 .6 2.2.2 3.6-.6 1.8-1.2 2.6-3.2 4-.8.5-1.6 1.2-1.7 1.4l.7 1.8c.5.9.8 1.8.8 2 0 .6.5 1 1.9 1.3l2.9.9c5.4 1.7 5.8 1.9 7 3.8.6.7 1.4 1.6 2 2 .9.7 1.2.7 4.9.9 5.6.2 8.5 1.2 9.7 3.4.3.6.3 3.6 0 4.8-.5 1.2-.7 1.3-7.6 2.7l-5.2.6-5 .5c-5 .6-5.6.6-6.5 0-.8-.5-1.4-2-1.4-3.6 0-.4-.5-1-1.5-2.1-.8-.8-1.6-1.7-1.7-2-.2-.3-.4-.5-.6-.5-.2 0-.7-.3-1.1-.8-.7-.6-1-.8-2-.8-1.8 0-2.1.2-2.7 1.5-.4 1-.7 1.3-2 1.8-.8.4-1.8.7-2.2.7-1 0-4 1.1-4.2 1.5 0 .3 6.2 3.5 6.8 3.5.4 0 1.4 1.5 1.4 2 0 .7-1 1.2-2.2 1.2a5 5 0 0 0-2.1.8c-1.1.7-1.7 1-3.4 1-1 .1-2.2.3-2.5.5-.3.2-1.5.5-2.6.7a10 10 0 0 0-2.9 1c-.8.5-2.8 1-4.5 1-.8 0-1.5.3-2.6 1-1.4 1-1.7 1-3.7 1.2a16 16 0 0 1-3 0c-.8-.1-3 .3-6.1 1.2-.7.2-2.5.3-4 .3-2.4 0-2.6 0-3.7.8-1 .7-1.3.8-3.7 1-2.3.1-2.9.3-4.4 1-2 1-2.6 1.1-4.2.5-1.5-.5-2.4-.3-3.6.7-1 .8-1 .8-3 .7l-2-.2-1 1c-.8.8-1 1-1.8.7a8 8 0 0 1-1.6-.5c-1-.6-1.5-.5-1.5.3 0 .4-.2.9-.3 1.1-.2.4.1 1.2 1.3 3.6a26 26 0 0 1 1.6 3.5c0 .4 4.8 5.3 6.1 6.3 1 .7 1.8 2.5 1.8 4 0 .6.4 1.2 1.8 2.6a55 55 0 0 0 12.6 9.3c1.2.7 1.3.8 1.2 1.7-.3 1.6-1.3 2-2.6 1.2zm-19.2-16.1c.3-.2.3-.4.2-.5-.2-.2-.2-.4 0-.8s.4-.4.9-.3c1.1.3.8-.5-1.5-3.2-3-3.4-3.7-4.6-3.9-5.8a8.7 8.7 0 0 0-2-4 14.7 14.7 0 0 0-5.8-4.3l-2.8-1.4-1.5.5c-1.9.7-2.4 1.1-3.5 2.8a5 5 0 0 0-1 3c-.2 1.5-.1 1.7.3 1.7.6 0 1.3-.5 1.5-1v1l-.1 1.6.9-.1c.9-.2 1-.2 1.5 1l.8 1.2.7-1c.7-1.3 1.1-1.3 1.3 0 .1.5.3 1 .5 1.1.1.1.6-.2 1-.8 1-1.3 1.6-1.2 1.4.1-.2 1.3 0 1.5 2.4 2.8 1 .5 1.7 1.1 1.7 1.3 0 .6.9 1.2 2.5 1.7 2 .6 3.2 1.7 2.8 2.4-.4.7-.3.8.3 1.1.8.3.8.3 1.4-.1zm-13.9-11c0-.3.2-.5.5-.5s.3 0 .2.2c-.2 0-.4.3-.5.4 0 .1-.2 0-.2-.2zm-62.1 1.3c0-1.5 1.2-2 3.2-1.2 1.4.6 1.8.5 2-.4.4-.7 1.5-1.6 2.2-1.5l1.7.6c1.8 1 2.8.9 3.6-.2.6-.8.4-.8 3.3-.3 1 .2 1.3.1 2-.5.6-.7.9-.8 1.8-.6.7 0 1.5.2 2 .3.6.2.8 0 1.4-.7.7-.7 1-.9 1.9-.8.6 0 1.3.1 1.6.3.8.4 2.9.3 3.6-.3.6-.4.7-.4 1.9 0 1.7.4 2.1.4 3.2-.4 1-.7 1-.7 2.6-.2 2.1.5 2.3.5 3.4-.3.7-.6 1-.7 2-.6 3.1.5 3.9.5 5 .2a6 6 0 0 1 1.4-.3c.7.2 2.2-.6 3-1.6a11 11 0 0 1 4.6-3c2.7-1 7.3 0 10.2 2.4 1.3 1 1.6 1.1 1.8.2.1-.3.4-.7.7-.9.6-.3 3.3-.3 3.5 0 .1.2.5.3.9.3.5 0 .6-.1.6-.7 0-.8 1-1.5 2-1.3l2.2.4 1.4.4 1-1c1-1 1.2-1 2.4-1a6 6 0 0 1 1.8.3c.4.2 1.4.3 2 .3.3 0 .7-.4 1.1-.9l.8-.8 2.9.1c3 0 3.6 0 4.6-1.1.6-.6 1-.6 4.3-.5 2.6 0 6.2-.6 7.2-1.2.6-.4 1.4-.5 4-.5 2 0 3.6-.2 3.9-.3.2-.1.6-.6.7-1 .4-1.1.1-1 3.8-1.1 2.7 0 2.9 0 3.3-.7.4-.5.9-.6 2.5-.8 1.6-.1 2.2-.3 2.9-.9a3 3 0 0 1 1.4-.7c4-.1 6.5-.8 6.5-1.8a28 28 0 0 0-5.6-3c-1-.4-2.4-1-2.8-1.4-.8-.5-1.1-.6-5-.6-2.2 0-4.4-.2-4.7-.3-1-.4-4.2-3.6-4.6-4.6-.2-.4-.3-1.3-.3-1.9 0-1 0-1.2-.7-1.4-1.5-.3-8.3.1-9.1.6l-4.3.6c-4 .3-7.3.8-10.5 1.6l-6.5 1c-5.1.6-8.3 1.2-10.2 1.9-.6.2-2.1.4-3.3.5l-2.5.2-1.2.2-2.6.4-3.4.6a132.2 132.2 0 0 0-12.4 2.1c-.5.2-1.7.3-2.7.3-1 0-2 .1-2.5.3-1.1.4-3.5.8-5.1.9l-3 .3a81.2 81.2 0 0 1-7.9 1.3l-5 .5c-1.5.1-3.3.4-4 .6l-2.1.3-2.4.6a196.3 196.3 0 0 0-7.7 1.6c-5 .9-5.9 1-7 1l-4 .6c-1.7.4-4.2.8-5.6.9-1.6 0-3.2.4-4.4.8-1.5.5-2.3.7-3.3.6-1.2-.2-1.8 0-4 .9-2.8 1-2.6 1-7.7 1-2 0-3.9-.4-3.9-.8 0-.5-.5-.3-.6.3-.2.5-.2.5-.5 0-.3-.3-.5-.3-.9-.1-.4.2-.6.2-1-.1-.2-.3-.6-.4-1-.3-.7.2-.8.3-.7.8.1.5 0 .7-.3.8-.3 0-.5.4-.5.8 0 .7.1.7.8.6.6-.2.8-.1.8.2 0 .2-.2.4-.4.4-.3 0-.4.1-.4.3 0 .5.5.5 1.4.2.8-.3 1-.3 1.4.1.4.4.9.5 1.6.4.6 0 1 0 1.3.3.2.2.7.4 1.2.5 1.7 0 4.7.6 5.5 1l3 1.3c1.2.5 3.6 1.5 5.5 2.1a55.8 55.8 0 0 1 7.3 3c.6 0 2.4 1.3 3 2.2.5.7.7.7 2.6.9 1.1 0 2.5.3 3 .5 1.6.6 2 .5 2-.1zm-32-17 4.6-.7c1.7-.2 4-.5 5-.8 1-.3 2.7-.6 3.8-.6 1.1-.1 2.6-.4 3.2-.6l1.9-.4 1.4-.2a48 48 0 0 1 4.6-.8 48 48 0 0 0 6.6-1.1l3-.4 4.5-.8a172.7 172.7 0 0 0 11.5-2c5.3-1.2 6.9-1.5 7.4-1.4.3 0 1.2 0 2.1-.3l2.8-.4 2.4-.4c1-.4 3-.6 10-1.2a87 87 0 0 0 6.3-.8 145 145 0 0 1 9.3-1.3 297.9 297.9 0 0 1 13.1-2c1.8-.2 4.4-.6 5.8-1a51 51 0 0 1 5.2-1c1.4-.1 3.4-.4 4.5-.7 3.1-.6 4.7-.9 7.1-1.1a439 439 0 0 0 17.6-2c2.5-.2 3.1-.5 2.3-1.1a14 14 0 0 0-6-.1 5 5 0 0 1-2 .2 9 9 0 0 0-2.9.5l-3.5.5c-1.3 0-3.6.3-5 .6-1.5.3-3.3.6-4 .6-.9 0-2.2.2-3.1.4-1 .2-2 .3-2.4.2a3 3 0 0 0-1.5.1c-.4.2-2 .5-3.5.7-1.5.2-3.7.6-4.9 1a44 44 0 0 1-4.7.7 66 66 0 0 0-7.7 1.2c-1 .3-2.4.4-3 .4-.7 0-2.8.3-4.6.7a71 71 0 0 1-7.9 1.2l-2.7.4a102.9 102.9 0 0 1-15.2 2.3c-1.9.1-3.7.4-4.2.5-.4.2-2 .4-3.7.7a90.7 90.7 0 0 0-10.6 1.6l-3.3.7a43 43 0 0 1-9.6 1.7c-1.8.1-3.6.4-4 .6-.4.1-2.1.4-3.8.5-2.6.1-3 .2-3.5.7-.4.5-.6.6-1 .4-.7-.4-2-.4-3.2 0-1 .3-2.3.5-5.8 1-1.1.1-2.3.4-2.7.5l-3.3.6a51.2 51.2 0 0 0-5.2.9c-.8.2-1 .5-.4 1 .4.5 1.1.5 3 0zm188.7-10s0-.5-.4-.8c-.4-.6-.5-.6-.6-.2-.4 1 .5 1.8 1 1zm6.9-3.4c2.8-.5 7.4-1.6 8.3-2 1.9-1 .1-1.6-5.2-2-3.3-.1-3.9-.2-4.9-.9-1.1-.6-2-1.6-3.2-3.2-.5-.7-1.5-1.2-4.5-2.4l-2.4-.9c-.3-.1-1.3-.3-2.2-.3-2-.1-2.4-.5-2.4-2 0-2-.7-2.6-2.3-1.8-1.5.8-4.6 1.5-6 1.3-.8 0-1.6-.3-1.8-.4-.4-.2-3.4.2-6 .8-1.4.3-4.3 1.3-6.4 2.1-3.4 1.4-3.6 1.5-4.7 1-3.1-1.4-2.8-1.3-3.3-.7-1 1.2-.9 2.2.2 4.4.6 1.1 1.5 2.4 2 2.9.9.8 1 .8 3.5 1l3.6.4c.6.2 2.7.4 4.8.4 2 0 4.4.2 5.1.3 1.9.3 2.2-.2 1.3-1.5-.4-.6-.7-1.5-.8-2.2-.1-1 0-1.2.5-1.5 1.3-.7 3.8-1 7-1 3.7 0 4.7.2 7.3 1.5l2.2.9c.3 0 1.2.7 2 1.6 1.3 1.3 1.5 1.7 1.7 3 0 .7.2 1.4.3 1.5.2.3 3.8.1 6.3-.3zm-19.2-5.4-.1-.4c-.2-.3-4-.4-4.6 0-.2 0-.3.3-.2.5a21.7 21.7 0 0 0 4.9-.1zm-82.3-3.8c2-.3 2.6-.8 1.2-1-.6 0-2-.5-3-.9l-3-1c-.6 0-1.6-.5-2.3-.9-.7-.4-1.5-.8-2-.8l-1-.1a7 7 0 0 0-3-1c-1.3 0-.8.6.9 1.1a415 415 0 0 1 3.6 1c.8.1 1 .6.3 1.2-.5.4-1.6.4-3-.2l-4-1.2a56.1 56.1 0 0 1-8.6-2.4c-1.4-.2-2-.6-2-1.2s1.3-.9 4-.9l3.3-.2c.4-.2.4-.3 0-.3l-1.5-.6-3.7-1.2c-2.5-.6-4-1.3-4-1.8 0-.4 1-.5 2.2-.1a277 277 0 0 0 4.2 1.3c.5.3 1.3.6 1.9.7.5 0 1.4.4 2 .7.7.4 1.8.8 2.5 1l1.9.5c1.8.7 2.3.8 4.3 1.4a65.5 65.5 0 0 1 9 3.2c.9.7 1.7.7 3.5.2 2.9-1 2.5-1.8-.8-1.9-1.7 0-2.1 0-3-.7l-1.2-.8a6 6 0 0 0-1.7-.6 5.6 5.6 0 0 1-2.8-1.3c-.7-.7-1.5-1.1-2-1.2-.6 0-2.1-.4-3.4-.6-5.8-1.2-7.2-1.5-9.3-1.8-.7-.1-1.7-.4-2.3-.7-.5-.2-1.3-.5-1.7-.5-.8 0-1.7-.2-4.7-1.4-2-.7-3-1.6-2.6-2.3.2-.4 1.8-.2 3.4.5 3.1 1.3 12.4 4 12.8 3.6v-.9c0-.6 0-.8.6-1 .4 0 1 0 1.4.3a8 8 0 0 0 1.9.6c.5 0 1.3.3 1.7.5l1.3.4 3.7 1a31.7 31.7 0 0 0 5.4 1.5l2.5.8c1.8.5 4.3 1.7 4.6 2.1l.2 1.1c0 .7.2 1 1 1.7.5.4 1.3.8 1.6.8.3 0 .9.1 1.1.3.4.2 1 .1 2.5-.3 2-.7 3.2-1.3 3.5-2.1 0-.3.5-.6 1.1-.7 2.3-.5 3.7-.1 5.2 1.4l1.7 1.4 1.3 1c.3.3 1.1.2 1.1-.2 0-.5-.8-3-1.2-3.6-1-1.6 0-3.5 2.1-4 1.6-.5 2.5-.2 3.4 1.2.4.6 1.1 1.3 1.5 1.4.4.2 2.9.3 5.6.4 4.7 0 5 .1 7.2 1 2.1.7 2.4.7 2.8.4.3-.4.2-.5-.7-.6l-2.3-.8c-2.4-1.1-4-1.7-5.4-2.2-1.4-.4-2-1-1.7-2 .2-.7 1.1-.8 3.5-.6 1.9.1 2 .1 3.6-.8 1-.5 2.3-1.5 3-2.2 1.5-1.4 2.6-2.2 3.3-2.2.4 0 .4 0 .2-.5-.3-.6-2.1-.8-3.3-.3-1.6.7-5.2 1.4-5.5 1.1-.4-.4 0-1 .8-1.4a18 18 0 0 1 3.5-1.5c.4 0 1.1-.2 3.8-1a13 13 0 0 1 3.7-.7c2 0 1.7.2 2.2-2 .2-1 .6-1.3 1.3-1.3.5 0 1.5.9 1.8 1.6 0 .2.4 0 .9-.3.7-.6 1-.6 1.4-.3l1.4.3c.7 0 1 .2 1.4.7 1.2 2 2 2.4 2.8 1.3.4-.6.6-.7 1.2-.6.4.1 1 .4 1.3.7.6.7.7.7 1.4 0 .4-.5.7-.5 3.5-.4 5.4.2 7.8.5 8.3 1l.9 1.7.5 1.3-.7.7c-.5.7-.6 1-.5 1.8.2.9 0 1.2-.7 2.1-.8 1.1-2.6 2.1-4.3 2.5-1 .3-2.3 0-2.2-.6.1-.5 3.3-2.1 4.4-2.1 1 0 1.2-.7.3-1-.4 0-.5-.3-.5-1.2 0-2.2-1.6-3.1-4.6-2.7l-4.8.2c-2.3 0-3.7.2-5.2.6-1.3.3-2.6.5-4.2.4a15 15 0 0 0-4.2.5c-2 .5-2.7 1-2.7 2 0 .5.1.5 1.7.4 1.7-.1 3 0 5.9.9 2 .5 5.9 2.2 6.5 2.7.5.4.6.4 1.4 0 .4-.3 1.2-.5 1.6-.6l1.4-.5c.4-.2.8-.1 1.6.2 1.2.5 1.3 1 .7 1.6-.3.3-.9.4-1.8.4-1.2 0-1.8 0-3.2.8-1 .5-2 .9-2.4.9-.3 0-1.2-.5-2-1-.7-.5-1.6-1-2-1.1l-2.8-.9c-1.7-.5-2.5-.6-5.5-.7-3 0-3.7 0-4.6.5-.5.2-1.2.5-1.6.5-.4 0-.7 0-.8.2-.1.2-.6.3-1.3.1-1-.1-2.3.4-2.3 1 0 1 5.9 2.4 7 1.9.9-.5 2.6-.9 3.7-.9 1 0 1.3.2 2.1 1.1.6.6 1.2 1 1.4 1 .3 0 .4.3.3.6 0 .6-.2.6-1.2.6-.5 0-1.6-.3-2.3-.7-1.1-.6-1.3-.6-2-.3-.7.4-1.3.4-2.8.3-1.9-.2-2-.2-1.6.2.2.2.6.4.9.4l1 .4c.2.2 1.3.6 2.3 1 1.6.5 2 .5 4.1.2a82.5 82.5 0 0 0 12.7-2.7c1-.2 1.5-.5 1.7-1 .3-.6 1.1-1 3.8-1.4 1-.1 2.3-.5 2.8-.8.6-.2 1.6-.6 2.4-.7 1.4-.3 3-1.3 4.3-2.9 1.2-1.4 1.2-4-.1-5.8a6 6 0 0 1-.7-1.8c-.2-.9-.4-1.1-1.5-1.6-1.1-.6-1.7-.6-4.9-.6h-4c-2 0-7.5-.3-8-.5l-2.3-1.8c-1.2-1.2-1.6-1.7-1.5-2.1.4-1.3 3.5-3.6 8.2-5.9.7-.3 2-1.2 2.7-1.8 2-1.7 3.6-2 5.9-1.5 2.2.5 2.4.5 4.5 0 2.2-.6 3.1-1 3.3-1.3.1-.5-.1-.8-1.6-1.6-1-.6-1.5-1-1.9-1.8-.4-1-.4-1 0-1.7.4-.4 1.3-1 2.2-1.3 3-1.1 4-1.8 4-2.4 0-.4-3-2.6-5.5-3.9-1.2-.6-2.2-.9-3.7-1l-3.2-.4c-1-.1-1.6 0-2.2.2l-2 .9c-.5.2-1.2.7-1.5 1-.5.5-1.9 1.2-3.8 1.8l-2.1.8c-2.5 1.1-6.3 1.5-12 1.2-2.6-.2-2.7-.1-4 .6-2 1.1-7.4 2.5-10.8 2.8-1.8.2-2 .6-.5 1.3a22.3 22.3 0 0 0 7.6 1.2c1 .1 4.9 0 9-.2 6.8-.3 7.2-.3 7.8.2 1 .6 1 1.7.1 2.7-1.5 1.8-1.6 1.9-8 1.7H496c-1.1.3-.5.7 1.6 1.1l2.1.6c.9.7 0 2.4-1 2.4-.4 0-1.4-.3-2.2-.7-.8-.4-1.7-.7-2-.7-.4 0-1.3-.5-2.2-1.2l-1.6-1.3-2.7-.1c-2.4-.1-2.6-.2-2.6-.7 0-.5.2-.5 2.6-.7a244 244 0 0 1 13.4-.6c0-.1 0-.3-.2-.4-.5-.3-2.5-.3-2.5 0s-1.9.3-2.2 0c-.2-.1-1.3-.3-2.5-.3a33 33 0 0 1-3.7-.4c-4.6-1-6.2-1.2-8.4-1.4a8.5 8.5 0 0 1-2.8-.5c-.2-.2-.6-.3-1-.3-.6 0-.5.1.8 1.3 1 .9 1.8 1.4 2.4 1.5.6.1 1.4.7 2.6 1.8 3.4 3 4.7 4.1 6.4 5 2.1 1 2.4 1.6 1.4 3.2s-1.5 2-2.4 1.7c-.3-.2-.7-.5-.7-.7a22 22 0 0 0-2.7-3c-1.4-1.3-2.9-3-3.3-3.7-1.3-2-5-4.3-5-3 0 .1-.4.7-1 1.3-.5.6-.9 1.1-.9 1.3 0 .6 1 1.7 2 2.4l2.9 2c1.5 1.2 1.8 1.5 1.7 2-.2 1.6-1.6 1.5-3.4-.2l-2.1-1.7c-1-.6-1.8-1.6-2.4-3-.3-.8-.7-1-1.2-.5h-1.2a64.6 64.6 0 0 0-17.6 1c-1.7.2-3.8.6-4.5.8-2.2.8-2.9.2-1.5-1.1.4-.4 1-.7 1.3-.7.3 0 .7-.2 1-.5.2-.3-.2-.4-4.9-.3-6.4 0-7.7 0-7.8-.5-.3-.7.5-1 2.5-1.3a45.9 45.9 0 0 1 9.2-1.2c5.2-.3 8.3-.6 10.2-1a191.8 191.8 0 0 1 14.9-2.3c-.4 0-1-.4-1.4-.8-1-1-3.4-1.5-6.2-1a60 60 0 0 1-5 .3 87.8 87.8 0 0 0-10 .8l-3.4.3c-.8.2-2.2.3-3.1.3a152.5 152.5 0 0 1-12.8 1.3c-2.3.3-2.4.3-3.7-.3-1.2-.6-1.6-.7-2.6-.6-.7.1-1.7.4-2.3.7-1.3.6-1.8.6-3.7 0-1-.4-1.8-.5-2.2-.4-2.5.6-2.6.6-3.5 2l-1 1.4.7.5c.6.5 1.5.6 1.2.2v-.8c.2-.8 1.3-.7 3 .3 2.3 1.3 4.2 4.2 2.7 4.2-.3 0-.5.1-.5.2 0 .4 2.6 2.8 3.4 3.2.4.1 1 .6 1.2 1l1.9 2.3 1.8 2.4c.2.5 1.2 1.4 2.9 2.5 2.3 1.5 2.6 1.8 2.8 2.8l.4 1.4c0 .2.6.4 1.2.6l2.4.7 2.7.6c3.7.5 5 .8 7 1.5 1 .4 2.5.6 3.3.6.8 0 1.5.1 1.6.3a23.4 23.4 0 0 1 6.2 2.2c.5.2.7.6.8 1.2.1 1.2-.7 1.4-2 .4l-2.3-1-1.6-.6a6 6 0 0 0-1.8-.4 80.7 80.7 0 0 0-15.5-3.5l-2.8-.7c-.8-.5-1.7-1.6-1.7-2.2 0-1.1-1-2-3.2-3.2a6.8 6.8 0 0 1-3.4-3.6c-.6-1-1.3-1.9-2.2-2.6-.8-.5-1.9-1.5-2.4-2.2a7 7 0 0 0-1.9-1.6c-.4-.2-1.4-1-2-1.8-.7-.7-1.5-1.3-1.8-1.3-.2 0-.8-.3-1.2-.7-.5-.4-1.3-.7-2.9-1-2.3-.5-2.6-.7-2.5-1.7 0-.5.5-1 1.8-1.7 2-1.2 2.4-1.7 2.9-3.2.2-.5.8-1.5 1.3-2 1-1 1.1-1.1 2-1 1 .1 1.2 0 1.6-.4.7-1 1.2-1.7 1.2-2.2 0-.2 0-.4.2-.4s.3-.2.3-.4l.3-1.1.3-1s.2-.7.6-1.3c.7-1.1.7-1.4.5-3.1-.2-2.6-.4-3-2-4.4-1.2-1.1-1.3-1.3-1.2-2.1l.2-1-1.1.2a139.3 139.3 0 0 1-14 .9c-1.2-1.2-.2-1.8 2.6-1.8 1.1 0 3.5 0 5.3-.2 3.2-.2 3.4-.2 5-1.2l1.5-1-.6-.5c-.6-.5-1-.5-4.5-.4-6.7.3-9.7.8-11.6 2a96.1 96.1 0 0 0-10.7 7.5l-3.5 2.7a48 48 0 0 0-8.7 7.9l-.7 2.5a9.2 9.2 0 0 0-.4 4.6c.1 1.2.3 1.8 1 2.4.5.7.7 1.2.7 2 0 1.4.8 3.6 1.9 5 1.4 2 1.7 3 2.3 7.1.3 2 1.9 3.5 3.6 3.5.7 0 .8.1 3.4 2.9 1.7 1.8 2.2 2.1 1.6.7-.5-1-.4-1.7.3-1.7.2 0 1.5 1 2.8 2.4a14 14 0 0 0 5 3.6c3 1.4 6.4 2.5 8 2.5.6 0 2.4.4 4 .9 1.5.5 3.2 1 3.7 1 .9 0 2.1.5 3.7 1.7 1 .6 4 1.7 4.8 1.7.4 0 1.7.3 3 .8 1.2.4 2.6.7 3 .7.4 0 1.4.4 2.1.7 1.2.6 2 .8 5.1 1 3.8.4 4.7.4 7.8 0zm62-6.9c-.5-.2-.4-1.1.2-1.1.8 0 1.3.3 1.3.7 0 .5-.8.7-1.5.4zm2.9-.8c0-.7.2-.7 1.4-.7l1.6.1c.4 0-.5.8-1 .8-.2 0-.5.1-.6.3 0 .1-.5.3-.8.3-.6 0-.7-.2-.6-.8zm-52.9-4.7c-1.3-.2-2.2-1-1.7-1.6l.7-1.5c0-.2.4-.4.7-.4 1.4 0 2.3-1 2.6-2.9.2-1.4 1-1.5 1.9-.2.3.6.8 1 1 1 .5 0 .6-.2.5-1.3 0-1.4.1-1.5 1.8-1l1.5.5c.3 0 1 .4 1.2.7 1.2 1 1.8-.3 1-1.9-.9-1.7-2.8-2.6-5.7-2.6-2.1 0-4.6.6-6 1.6l-1.3.6c-.8.3-1.2 1-.9 1.5.6 1 .3 2-1 3.3-1.5 1.3-2.3 1.7-3.6 1.7-1 0-2-.8-1.6-1.3l1.6-.6c.8-.1 1.6-.5 2-.9.6-.6.6-.6 0-.6-1 0-1.1-1.5-.2-2.6.7-.8 4.7-3 5.6-3 .2 0 .4-.2.4-.4 0-.3-.4-.4-2-.3-1.6 0-3-.2-5.3-.8a194.4 194.4 0 0 0-6.6-1.7 26 26 0 0 0-7.5-1.3c-2 0-4.6-2-4-3.1.3-.4 1.3-.4 2.1 0 .4 0 2.3.6 4.2 1.1l4.5 1.4c.8.3 2.4.6 7.7 1.4l4.5.9c2.8.5 4.6.9 7 1.2 2 .3 4.7 1.2 5.8 1.9 1.3.7 2 1.6 2.5 3 .4 1.2.5 1.4 1.5 1.5a107.7 107.7 0 0 1 5 1c1 .1 1.2 0 1.2-.4 0-.3.2-.9.5-1.4.3-.4.6-1.2.6-1.6 0-.9-.1-1-3-1.2-4.4-.4-5.5-.6-5.9-.9-.3-.3-.3-.4-.1-.7.3-.4 3.9-.3 6.2.2.7.2 2.2.3 3.3.4l2.9.2c.8.2.9.2.5-.2-.2-.2-1.3-.5-2.5-.7a2202 2202 0 0 1-12.3-2c-3.9-.6-5.3-1.3-4.4-2.2.4-.3.6-.4 1.3-.1l2.2.5c.7 0 3 .5 5.2.9l5 .8 2.8.4a52.1 52.1 0 0 0 4.9 1.3l1.5.5c1.4.3 1.8.8 1.7 2.2a8 8 0 0 1-.4 2.4c-.4 1-.4 1.4-.2 2.4.4 1.5.1 1.7-2 2.1-1.5.2-2 .2-2.6 0-.9-.5-4.6-1.1-7.6-1.4-1.8-.2-3.8-.7-4.7-1.2-.4-.2-.6-.2-.9.2-1.1 1.4-3.2 3.2-3.8 3.2l-3 1c-3 .9-4.5 1.2-6.3 1zm9-4c.6-.2.6-1.5 0-2-.7-.6-1-.4-1.3.8-.2 1.2.3 1.6 1.3 1.2zm15.5-2.1c.2-.6.3-1.4.3-2v-.9l-.5 1.1-.6 1.3-.2.9c0 1 .7.7 1-.4zm3.7-.2c.9-1.3 1-2.3.5-2.8-.3-.2-.4-.2-.5.1-.1.2-.4.4-.6.4-.3 0-1 2-1 3 0 .8.8.4 1.6-.7zm-74 .8c-.5-.7-2.6-2-4.5-2.9-2.3-1-6-3.6-6-4.3v-.6c.5 0 3.1 1.4 4.5 2.4a17 17 0 0 0 2.5 1.4c3.8 1.5 4.8 2.3 4.9 3.6 0 1.1-.6 1.3-1.3.4zm35.9-1.1c-.4-.4.4-1 1.1-1 1 0 1 .5.3.9-.6.3-1.2.3-1.4 0zm-5.5-2.1-2.5-2c-.5-.4-2.2-1.1-7.3-3-2.2-.8-2.8-1.4-2.3-2 .3-.4 1.4-.1 2.7.8.6.4 1.7.9 2.4 1l4 1.7c1.4.7 2.8 1.2 3 1.2 0 0 .3-.2.3-.5.2-.6.8-.7 1.3 0 .7.7 1.6 3.5 1.3 4-.5.5-.9.3-3-1.2zM393 137a2 2 0 0 1-.3-.9c-.1-.9.3-4.2.6-4.5a8 8 0 0 0 .6-2.2 47.2 47.2 0 0 1 1.5-6c.8-2.9 1.4-3.5 2.5-2.4.8.8.8 1.2 0 3.4-1 2.5-2.6 7.8-3 10.1-.6 2.5-1.2 3.3-1.9 2.5zm-6.7-1.5c-.5-.4-.1-4 1-9.7l.7-4c.3-1.9.4-2.1 1-2.2 1-.1 1.4.5 1.2 2-.2 1.6-.7 4-1.3 6.3l-.7 4c-.2 1.4-.5 2.9-.7 3.2-.3.6-.9.8-1.2.4zm129.4-21.4c-.5-.6.5-1 3.3-1.4l5.1-.7c1.1-.2 1.8.5 1.4 1.4-.4.8-.7.9-5.5 1-3 0-4 0-4.3-.3zm-66.4 38.3c.5-.5-.4-1.1-2-1.5l-2.2-.5-.6-.2.6.7c1.3 1.5 3.4 2.2 4.2 1.5zm-20.5-1h-.8c-.3 0-.1.1.3.1h.5zm4-4.9c-.4-.2-.8-.2-1.1 0-.4.3-.3.3.6.3.9 0 1 0 .5-.3zm76-8.5c0-.2-.1-.4-.4-.4-.3 0-.3 0 0 .4l.4.4v-.4zm9.8-4.2c.3-.5 3.7-1.7 6-2l4.5-1a93.2 93.2 0 0 1 11.5-2.4l2.5-.5c.8 0 2-.3 2.8-.5l3.4-.7c1.1-.1 2.6-.4 3.2-.6.7-.2 1.7-.5 2.3-.5a76 76 0 0 0 9.6-2.1 153.2 153.2 0 0 0 14.3-4 8 8 0 0 1 2-.4c1.2 0 4.8-2 5.2-2.9.4-.8.2-1-1.6-1.6-1-.3-1.6-.7-1.8-1.1-.6-1.2.6-1.7 2.3-1l2.1.6c1 .1 1.4 0 2.4-.6 1.5-1 2-1.2 2.7-1 .7.3.6.6-1 2.1-1.3 1.4-1.3 1.5-1.4 3 0 .9.1 1.5.4 1.7.3.2.4.2.4-.2 0-.3.4-1 1-1.7 2.8-3.2 3.2-3.4 4.1-2.2.6.7.7.7 1.3.4.4-.2.7-.4.7-.6 0-.5-.8-1.3-1.4-1.3-.7 0-1-.2-1.5-1-.1-.3-.5-.6-.8-.6-.3 0-1-.4-1.7-1a6 6 0 0 0-2.6-1.4c-.8-.2-1.9-.6-2.4-.9l-2.4-.9a1198.6 1198.6 0 0 0-4.4-1c0-.2-.2-.5-.6-.6-.7-.4-1.2 0-.8.8l.3.9c0 .4-1.4 2-1.8 2-.3 0-2.4-1.4-3.4-2.4a2 2 0 0 1-.6-1.2c0-.6 0-.6-1-.6s-1.8.5-1.1.7c.1 0 .4.3.5.6.4.7-.3 1.3-1.4 1.3-1 0-2.4.5-2.2.7.3.3 3 1.2 3.6 1.2a6 6 0 0 1 2.8 1.3c.2.2 2.3 0 2.7-.3l1-.2 1.9-.3c1.3-.4 2 0 2 1 0 .9-.7 1.3-2.7 1.6a134.2 134.2 0 0 0-8 1.3 441.7 441.7 0 0 0-20.6 3.8c-6 1.5-10.2 2.3-12 2.3-1.3 0-1.6.2-1.8 1.1-.5 1.5-1.6 3-2.7 3.6a39.1 39.1 0 0 1-9.5 3.3c-.3 0-1.6.7-2.8 1.5-1.2.9-2.6 1.7-3.1 2-.5.1-1 .5-1.1.7l-1.1 1c-.4.2-.8.6-.8.8 0 .5 2.3.4 2.6 0zm54.1-25.6c-.4-.2-.4-.2.2-.5.5-.3.8-.2 1.4 0l.7.4-.9.1h-1.4zm35 16.9c1-.6 1.3-1.2 1-2.2-.1-.6-.2-.7-1.7-.7-.8 0-1.9-.1-2.4-.3-.7-.2-.9-.2-1.2.2-.2.3-.3 1-.3 1.6 0 .9.2 1 1.2 1.6 1.1.7 2 .6 3.4-.2zm-190.4-.7h-.6c-.2.1-.1.2.2.2.3 0 .4 0 .4-.2zm44.5-.3 4-.5c2.3-.2 3.2-.7 1.7-1-.5 0-1.3 0-1.8.2l-3 .4c-2.4.1-3.8.5-3.8.9 0 .1-.7.3-1.6.3h.5l4-.3zm46.3-3.2-.8-.3c-1.1-.1-5.8 0-5.8.3l3.3.1 3.3-.1zm89.2-2.4c.1-.3.7-.7 1.2-1 .8-.3 1-.3 2.2.1l2.3 1.1c.8.5 1 .6 1.6.4.8-.4.5-1-.8-1.9-2.3-1.5-3.3-1.9-4.7-1.7a4 4 0 0 0-2.2 1c-1 .8-2 2.6-1.7 3.2.2.4.3.4 1-.1.4-.3.9-.8 1-1.1zm-3.9-.7c1-1.3 1-1.4.2-1.4-.6 0-.8.2-1 .8-.6 1.4 0 1.8.8.6zm-151.4-.8a1 1 0 0 0-.8-.1c-.5.2-.4.3.4.3.5 0 .6 0 .4-.2zm-21-1c0-.7 0-.7-.4-.2-.5.6-.5 1.2 0 1 .2-.1.4-.5.4-.9zm30.5.2 10.3-1c1.7 0 2.5-.5 4.7-2.8l7.3-6.4a44.9 44.9 0 0 0 5-4.7l1.6-1.5c.8-.9 1-1.7 1.5-7.5.2-3 .6-5.6 1-8.6.4-2.1.3-2.6-.6-2.2l-2 1.5a51.4 51.4 0 0 1-5.3 4.4c-1.8 1.6-4 3.3-6 4.7l-9.7 9.4a249.6 249.6 0 0 1-14.7 13.3c-.7.4-.7.8-.1 1.4.5.6 2 .6 7 0zm18.3-13.5a3 3 0 0 0-.6-.8c-.4-.4-.4-.4.2-5.3.1-1 .4-2 .6-2.3.4-.5 1.2-.6 1.7-.3.4.3.4.8 0 4.4 0 2.3-.3 4.3-.5 4.4-.3.5-1.2.4-1.4 0zm7.9 12.7c.6.1 1.3.4 1.5.6.7.6 1 .5 1.3-.4.3-.8.3-.8 1.7-.6 1.1.1 1.5 0 1.8-.3.3-.3.3-.5 0-.7-.1-.2-.3-.6-.3-1 0-.5.1-.6 2.2-.6 1.4 0 2.4-.1 3-.4 1.2-.7 3-.6 3.6.2.4.6.5.6 1.5.2 1.4-.5 1.5-1.3.1-2.2-.8-.5-3-1-4.3-1a38.4 38.4 0 0 0-17 3.9c-.5.3-.5.3 0 .5.2 0 .3.4.3.8 0 .5.2.7.7.7.3 0 1 .3 1.4.7l.7.7.4-.6c.3-.5.5-.6 1.4-.5zm-56.2-.9c-.1-.2-.2-.1-.2.2 0 .2 0 .4.2.3v-.5zm50.6.2c.2-.3.2-.4-.1-.7-.4-.3-.6-.3-1.2 0-.7.3-.7.3-.2.7.7.5 1 .5 1.5 0zm-32.8-.9c0-.6-1-3.2-1.6-4.5-.9-1.8-4.3-5.5-5.3-5.7-.4-.1-1.2-.2-1.7-.1-1 0-1 .2-1.5 1.4-.3.7-.6 1.4-.8 1.5-.4.2-.4 1.8 0 2 .3.2.7.1 1.1-.2.8-.6 2.3-.7 2.4-.2 0 .1.6.3 1.2.3.5 0 1 .2 1 .3.2.4 0 .5-1.2 1.4-.9.7-.6.9 1 .5 1.8-.3 2.6-.1 2.8.7.1.4.6 1 1 1.2.4.3.8.8.8 1.1 0 .3.2.5.4.5s.4 0 .4-.2zm6-2c3.8-2.9 5.2-4.1 8.2-7.1a315 315 0 0 1 6.2-6.2c1.6-1.8 9-9 9.9-9.6.6-.3 2.2-1.6 3.6-2.7l4.8-3.4c1.2-.8 2.4-1.8 2.6-2.1.5-.7.5-.8.2-1.6-.6-1.4-1.7-2.6-2.7-3-.5 0-1-.4-1-.6-.2-.2-.6-.5-1.2-.7-.5-.3-1.1-.8-1.3-1.2-.4-.6-2.2-2-3-2.4-.5-.1-3.2 1.6-3.4 2.2-.3.6-2.4 2.5-7.3 6.3l-5.7 4.9a41.2 41.2 0 0 1-4.1 3.2c-1.1.6-4.4 3.4-8.7 7.3a152.4 152.4 0 0 1-6 5.3l-1.5.8c-.7.2-1.2.5-1.2.6 0 .3 1.9 1.9 2.2 2h.5c.6 0 1.4-.5 2.4-1.5.9-1 3.2-2.9 4-3.2.4-.1.8.4.5.8-.2.4-3 2.6-3.9 3.1-1 .7-2.2 1.8-2.2 2.1 0 .5 1.1 1.5 1.7 1.5.3 0 1.3-.7 2.2-1.5 1-.9 2.1-1.8 2.6-2 .4-.2 1.2-1 1.7-1.5a11 11 0 0 1 2-1.8l2.6-2.3 2.3-1.9c.4-.2 1.9-1.4 3.2-2.6 1.3-1.3 2.9-2.5 3.4-2.8a9 9 0 0 0 1.8-1.4c1-1 1.5-1.2 1.7-.6.2.5-.3 1.2-1.8 2.3a101.5 101.5 0 0 0-5.6 4.5c-1 .8-2 1.6-6.2 5.4a71.3 71.3 0 0 1-5.6 4.6c-.1 0-3.7 3.3-3.6 3.5l1 3.5c.9 2.1 1.8 2.1 4.7-.1zm-.9-13.1c-.4-.7.6-1.7 3.7-4.1l2.6-2.2c1.7-1.5 2.5-1.9 3-1.4.2.3-1.6 2.1-3.4 3.3l-1.5 1.2-3.9 3.3-.5-.1zm10-8.3c-.2-.3-.2-.5.2-1a66.2 66.2 0 0 1 7.7-6c0-.3 2.7-2.4 3.2-2.5 1.5-.2 1.4.6-.4 2.2a27.4 27.4 0 0 1-5.3 4c-.3 0-.8.4-1 .7-.5.5-2.6 2-3.8 2.8-.2 0-.4 0-.6-.2zm-29.3 17.3 1.7-5.2c0-.4-.7.3-.9.8 0 .3-.3.7-.6.7-.4.2-.6.5-.7 2.3-.1 1.2-.3 2.2-.4 2.2-.2 0-.3.2-.3.4 0 .6.6 0 1.2-1.2zm144-2.1c0-.2-.1-.4-.4-.6-.7-.3-.8-.3-.8.1 0 .6.9 1 1.2.5zm1.7-2.8c0-.3 0-.3-2-.2l-1 .1 1.3.2c1.5.2 1.7.2 1.7-.1zm-144-4.3c.4-1.4 1.2-2 2.9-2 1.4 0 1.8-.3 1.4-1-.5-.7-.3-1.7.4-2.9s.7-1.2.2-1.8c-.8-1-2-1.1-3-.1a4 4 0 0 1-1 .9c-.3 0-.4.3-.1 1.2.3 1.4-.1 2.4-1.6 3.4s-2.3 1.7-2.3 2c0 .4 2 1.5 2.4 1.4.2 0 .4-.5.6-1zm12.2-8.8c4-1.8 4.1-2.3.9-2.2-1.9 0-2.4.1-4 .9-1.5.8-1.8 1-1.7 1.5 0 .7.7 1.4 1.3 1.4l3.5-1.6zm-16.5.5c-1.6-.6-2.6-.5-2 .1.2.3.8.4 2 .4h1.6l-1.6-.5zm-6.1-2.2c0-.7-1.7-1.6-2.7-1.4-1 .3-.7.9.5 1.5 1.4.6 2.2.6 2.2-.1zm6.6-.4c.4-.2 1.4-.2 2.7 0 3.2.4 8-.3 10.5-1.7.6-.3 2-.6 3-.7 1.1-.2 2.2-.4 2.4-.6.8-.7.2-2-2.6-6.3-1.9-2.7-3.3-4.1-5-5l-1.3-.7c-.2-.2-.8-.4-1.2-.5-1.5-.3-3.6-1.5-3.4-1.9 0-.2.2-.3.6 0 .6.3 3.6 1.2 3.7 1 .1 0-1.3-1.4-1.6-1.4-.5 0-1.6-1-1.6-1.4 0-.6.7-.6 2.4 0 1 .4 2.3.6 2.8.6 1.4 0 2.5 1.1 2.5 2.4 0 .8.2 1 1.5 1.5.4.1 1 .6 1.2 1.1.5 1 1 1.7 1.3 1.7.4 0 .5-1.4 0-2.2-.4-1-4-4.5-4.4-4.5-.2 0-.7-.2-1.1-.6-.7-.5-1.4-.7-3-.8l-2.6-.4c-.4-.2-.8-.1-1.5.2-1 .5-2 .5-2.5-.1-.2-.2-.8-.4-1.5-.4-.8 0-1.7-.2-2.9-.9-1.7-.9-2.2-1-7.2-1.3-2.5-.2-2.7 0-1.5 1.6.7.9 1.8 1.2 2 .6.2-.4 1.8-.4 2.2 0 .1.2.5.3.8.3.6 0 1.3.7 1 .8-.2 0-1.3 0-2.4-.2-1.5-.3-2-.4-2.4-.1-.4.2-1 .2-2 .1-.8 0-1.8 0-2.3.2-.9.2-1 .5-1.8 2.6-1.5 3.9-1.2 7.5.7 7.9 1.4.2 2.2 1 2.2 2.2 0 .8.2 1.1.9 1.6l1.2 1c.5.5 1.3.9 3 1.4 1.2.3 1.8.7 2.6 1.6.9 1 1.2 1.3 2.2 1.3l1.4.2c.2 0 .6 0 1-.2zm2.5-9.4c0-.2.2-.4.4-.4s.4.2.4.4-.2.4-.4.4a.4.4 0 0 1-.4-.4zm-2-8.1c-2-.2-4-1-3.9-1.5.1-.2.3-.2.7-.1.7.3 2.8.7 4.2 1 2.8.3 3 .4 2.6.6-.4.3-1.2.3-3.7 0zM410 85c.7-.3.5-.6-.7-1.5-.7-.5-1.4-.8-2-.8-1.4 0-1 1 .9 2 .9.4 1.2.5 1.8.2zm-2.5-3.9c.6-.3.1-.7-1-1-.6 0-1.2-.2-1.5-.4-.4-.3-.4-.5-.2-1.1.3-.7.3-1 0-2-.3-.6-.4-1.9-.4-2.8 0-1.5 0-2 .8-3.2.5-.9.7-1.8.7-2.4 0-1 .2-1.2 1.2-2l2.1-1.2c1.1-.4 1-.8-.3-.8s-2.6 1.1-3.7 3.2c-2.4 4.3-3 5.8-3.1 7.4-.2 1.6-.1 1.8.7 3.2 1.3 2.3 2.4 3.4 3.4 3.4.5 0 1.1-.1 1.3-.3zm-81.9 142.4-1.7-.7a58.7 58.7 0 0 0-9.1-3.5l-1.7-.7-2.8-1.2a46.2 46.2 0 0 0-6-2.5c-1.6-.4-3.9-1.5-3.7-2 .2-.5 2.8 0 5.2 1.3l2 .7c.5 0 2.1.7 3.6 1.3a166 166 0 0 0 7.5 3c4.2 1.5 8.1 3 8.4 3.4.2.1.3.5.2.7-.1.5-.6.5-1.9.2zm-112-10.8c-.3-.7.6-1.2 1.5-.8.5.2.5.4.3.8-.3.6-1.4.6-1.8 0zm30-2.4c-.6-.2-.4-.8.6-1.4.5-.3.9-.6.9-.8 0-.4 1.6-.3 1.7.2.4.9-2.2 2.5-3.2 2zm273.5-9c-.3-.2-.8-.8-1-1.3-.3-.6-.7-1.2-1-1.3-.7-.6-7.8-4-8.3-4-.3 0-1.1.2-1.8.5-1.9.8-4.1 1.5-4.8 1.5l-3.6 1c-1.7.5-3.5.9-4 .9-.7 0-1 .1-1 .5-.2.3-.2.7 0 .8 0 .1-.1.4-.4.7-1 1-4.7-1.2-5.3-3.2-.3-1.3 1.5-4.1 2.7-4.1.8 0 1.5.5 2 1.5.3 1 .4 1 3.8.5 3.3-.5 6.2-1.2 7.3-1.6l1-.4-1.9-1a9 9 0 0 0-2.4-.9c-.9 0-1-.6-.5-1.4.5-.9.9-.8 3.2.3 1.8.8 3.5 1.4 5.5 1.9.3 0 1.5-.1 2.7-.4 3.3-.7 3.7-.7 4.2-.2.6.6.5.9-.6 1.8l-1 1 1.9.8 1.8.8.6-.6c.7-1 2.8-2.1 3.6-2.1 1.5 0 1.9 1.3.9 3.4-.4.7-.7 1.6-.8 2.1-.1.6-.6 1.4-1 1.8-1 1-1 1-1.8.6zm-27.8-3.4c0-.2-.2-.5-.4-.5-.5-.2-1 .2-.8.6.3.5 1.2.4 1.2 0zM254 199.2c-.1 0 0-.3 0-.4l.5.1-.1.4c-.2.1-.4 0-.4 0zm-85.2-8c-.3-.2.2-.4.6-.2.2.2.2.2 0 .4l-.6-.1zm365.9-2.4-.4-.8c0-.2-.3-.5-.5-.8-.5-.4-.9-.4-2.8-.3-3.1.3-12.7.3-14.5 0-2-.4-3-.9-3.3-1.6-.3-1.3.2-1.4 4.8-.6a57 57 0 0 0 15.1-1c.7 0 1-.3 1.6-1.1.8-1.2 1.3-1.4 2.2-.6.8.6 1 2.7.6 4.9-.3 1.2-.5 1.5-1.1 1.9-1 .5-1.2.5-1.7 0zm-350.6-2.3-1.5-.4c-.8-.1-1-.7-.3-1 .7-.3 2.2-.2 3 .2.8.5 1 1 .4 1.3-.5.2-.5.2-1.6 0zm-5.7-.2c0-.1-.6-.5-1.3-.8-2-1-3.1-3.2-1.7-3.2.9 0 3.1.8 3.7 1.4.9.8.8 1.5-.1 1.5-.7 0-.7 0-.1.3.3.1.5.3.4.6-.2.4-.9.6-.9.2zm-158.7-1c0-.2.1-.4.4-.3.6 0 .5.6 0 .7-.3 0-.4-.1-.4-.4zm182.8-.3c-.6-.2-.3-1.7.4-2.5 1-1 2.3-1 2.8-.2.2.5.1.7-.8 1.6-1.1 1-1.8 1.3-2.4 1.1zm-22.3-2c-.4-.6-2.1-1.7-3.4-2.3-1-.5-1.4-1.3-.7-1.4.7 0 1.4.1 1.8.5.2.2.8.3 1.4.4 1.7 0 1.8 0 1.4-.5-.4-.7.1-1.3 1.7-2.2l1.9-1.5a4 4 0 0 1 1.3-.9c.2 0 .7-.1 1-.3l1.8-.7 1.7-.8a3 3 0 0 1 1-.5 6 6 0 0 0 1.2-.6 5 5 0 0 1 1.7-.5c.4 0 1-.2 1.3-.4a3 3 0 0 1 1-.4c.4 0 .5 1.2.1 1.5-.4.2-.3.6.2.6.2 0 1.4-.9 2.6-2 1.7-1.6 2.3-2 2.8-1.8l.5.2-.6 1a8 8 0 0 0-.8 2.1l-.4 2c0 .4-.5 1.3-1 2-.5.6-1 1.3-1 1.5 0 1.5-1.7 1.7-2 .3-.1-1-.3-1-1.5 0-3.2 2.4-4.8 2.8-5.3 1.1-.2-.7-.4-.7-1.5 0l-1.5.6c-1.5.1-.5-1.8 1-2.1.4-.1 1-.5 1.5-.8.5-.4 1-.6 1.1-.6.2 0 .4-.2.6-.4.2-.3.1-.4-.4-.5-.6-.2-1 0-1.9.7a5 5 0 0 1-2.4 1.2c-.7.1-1.7.4-2.1.7-1.3.9-3 2-3 2.3l1.6.8c1.2.5 1.6.8 1.6 1.2 0 .8-.6 1-1.4.5-.7-.6-1.5-.6-2 0-.5.3-.5.3-.9 0zm-85.4-.7a15 15 0 0 0-2.7-.7 151.7 151.7 0 0 0-12.7-3.3 287 287 0 0 0-7.2-2.1 21 21 0 0 1-3-.9c-2.3-.9-3-.9-1.2 0 1 .4 1.4.8 1.4 1.2 0 .4-.2.5-.8.5-1 0-3.9-1-4.8-1.6-.4-.3-1-.5-1.2-.5l-1.9-.6-2.7-1c-1-.4-1.2-.6-1.8-1.7-.5-1.2-.7-1.3-1.4-1.2-.6.1-.8 0-.8-.3 0-.6-.8-1-2.2-1.3l-2.8-.6c-3-.7-3.7-.8-3.7-.5 0 .2.2.3.4.3.7 0 2.2.9 2.5 1.5.4.9-.3 1-2 .4a242.9 242.9 0 0 0-9.3-3c-.3 0-.6-.2-.7-.5-.2-.5-.5-.7-.8-.3-.1.3-1.7-.2-2.3-.6a3 3 0 0 0-.9-.5c-2.6-.7-7.2-2.9-7.4-3.5-.4-1 .5-1 4.9.4.9.3 2 .5 2.3.5.3 0 .7.1.7.3.2.2 2 .7 5.3 1.3a50.3 50.3 0 0 1 5.6 1.4c.6 0 2.4.5 4.1.9l4.6.8c.9 0 2 .3 2.7.5l3.5 1 3.9.8c1.2.4 6.6 1.5 9.4 2a137.4 137.4 0 0 1 10 2.2c1 .1 2.3.4 2.6.6.4.2 1.6.5 2.6.6l3.8.8c1.1.4 3.1.7 4.5.9 3.6.3 4 .6 3.4 3-.5 2.4-2.4 3.7-4 2.8zm.3-2.4c.7-.4.4-.7-1-1.4-1.6-.6-2.4-1-4.5-1.4-1-.2-2-.5-2.6-.8-.5-.2-1.6-.5-2.5-.6a48.7 48.7 0 0 1-8.5-2 111.1 111.1 0 0 0-10.8-2.1c-2.2-.5-2.4-.5-2.4-.2 0 .1 1 .6 2.2 1 1.2.3 2.4.8 2.5 1 .2.2.9.4 1.6.5a220.8 220.8 0 0 0 9 1.8c2.2.4 3.5.8 4.1 1.2l2.4.7 2.8.7 7 1.9.7-.3zM45 167.3h-.5c-.2 0-.2.1.1.1h.4zm-2-.4-.8-.2-1.6-.3a4 4 0 0 0-1.5-.2l-.8.1 1 .4c1 .5 3.6.7 3.6.2zm-5-1c0-.2-.2-.3-.4-.3-.1 0-.2.1-.2.3l.2.2c.2 0 .3 0 .3-.2zm163.8 13.6c-.5-.5-.5-1 0-1.6.5-.7 1.3-.4 1.4.6.1 1-.7 1.7-1.4 1zm4-1c-1-.6-3.6-4.8-3.6-5.8 0-.6.1-.7.6-.7.8 0 1.1.3 2.2 2.3.6 1.2 1 1.5 1.5 1.6.9 0 1.2.5 1.3 1.5 0 .9-.4 1.7-1 1.7l-1-.5zm363.4-.8c-.2-.3-.2-.4.1-.5.3-.1.4 0 .4.3 0 .6 0 .7-.5.2zm-394.7-.1c-.6-.2.1-1 1.2-1.5.8-.3 1.1-.6 1.3-1.2.2-.8 1.6-3.5 1.9-3.5l1.8-1.5c2-2 3-2.1 3-.3 0 .7.3.6 1.6-.3 1.3-.9 2.2-1 2.6-.3.4.7.1 1-1.6 1.7-1.6.8-2.8 1.7-2.6 2 .2.1 3-.9 3.6-1.3.5-.4 2.8-1 3.7-1 1.2 0 1.1.6-.1 1.1l-1.2.5s-.8.3-1.5.8l-1.7.8c-.2 0-.5.1-.7.4-.2.2-.5.3-.7.3l-2.6 1.1c-1.7.9-2.4 1-3 1-.5-.2-1.1 0-1.8.3-1.2.6-2.8 1-3.2.9zm34-6.4c-.6-1.9-3.3-6.5-4.6-8.1-.5-.6-1.9-2-3.1-3a141 141 0 0 1-7.3-6.4c-.4-.3-1-.8-1.2-1.2-.3-.6-1-1-2.3-1.6-2.2-1-4.2-2.7-4-3.5.2-1 1-.9 2.4.3 1.5 1.3 2 1.5 4.9 2.4 2.7.9 3 1.2 2.5 2.2-.3.7-.3.7.6 1.4l2.3 2.2c1.2 1.2 1.7 1.5 2.6 1.7 1.3.2 1.2 0 3.8 3.7 3 4 4.2 6 4.9 7.8 1 2.5.9 3.7-.2 3.7-.5 0-.7-.3-1.2-1.6zm3.7.1c-.2-.5.1-.8 1.3-1.2.5-.2 1.8-.9 2.8-1.6 1.8-1.2 2.3-1.4 2.3-.7 0 .5-2 2.4-3.1 3-1.2.6-3.2 1-3.3.5zm-38.3-.5c-1-.8-1-1.4-.2-1.6.3-.1.7 0 1.1.4l1 .5c.1 0-.3-.6-1-1.2-1.4-1-1.9-1.7-1.6-2.2.3-.5 1.1-.3 1.8.4.3.4 1 1 1.5 1.2l.9.5 1.7-1.4 2.8-2c.9-.6 1-.6 1.2-.2.2.5-.7 1.5-2.2 2.5a5 5 0 0 0-1.5 1.3c-.1.3-.7.7-1.3 1l-1 .6c0 .3-1.3.8-1.9.8l-1.3-.6zm44.6.4c-.3-.4 1.2-1.9 1.8-1.9.7 0 .5.7-.4 1.5-.9.7-1.2.8-1.4.4zm-74.4-5.6-2.4-.2c-1.5 0-2.3-.5-2.1-1.2.1-.9 1.2-1.1 2.7-.6 1.5.5 2.5.3 2.5-.3s-1-1.7-1.7-1.7c-.4 0-1-.7-1-1.4s.8-.7 1.8 0c.5.3 1 .7 1.3.7.2 0 .7 0 1 .3.7.3.7.3.3 1-.6.8-.2 1.2 1 .8.9-.2 1-.2 1.3.3.4.8-.1 1.7-1.2 2.2-1 .4-1.8.4-3.5.1zm156.3-.6c.2-.2.4-.3.5-.2l.4.4c.1 0-.1.2-.5.2-.6 0-.7-.1-.4-.4zm-122.1-1c-.3-.4 0-.9 1.3-2 .8-.6 1.2-1.1 1.2-1.5 0-.8.8-1.5 1.9-1.6 1.2 0 8.7.8 8.8 1v.6c-.1.4-.5.4-3 .3l-3.4-.3c-.3-.2-.9 0-1.7.7a23 23 0 0 1-4.3 2.7c-.3.2-.7.3-.8.2zm125 .1c.5 0 1-.3 1.2-.5.5-.5 3.1-1 4.1-.8l.8.2-.6.3c-1.1.6-3 1-4.6 1-.9 0-1.2-.1-.8-.2zm-93.8-3.8-.4-1.7c-.3-1.2-.5-1.8-1.2-2.4-.5-.5-1.6-2.4-2.7-4.7-1-2.1-2-3.9-2.3-3.9l-.6.6c-.3.8-1 .7-2.8-.5-.7-.5-1.5-.9-1.8-.9-1 0-2-.7-3.4-2.4-1.8-2.1-2-2.5-1.5-3 .4-.3.6-.3 2 .5 1.7.9 3.6 2.6 4.1 3.7.4.7 1.6 1.4 2 1.1.1-.2-.5-1.1-1.7-2.5-2.4-2.7-3-4.2-2-4.8.4-.2.6-.1 1 .3.3.3.6.7.6 1 0 .8 3.5 5.4 3.8 5 .2-.1.1-.6 0-1.1-.5-1.2-.1-2 .8-1.8 1 .2 1.3.7 1.5 2.4.2 1.7 1.3 4.9 1.7 4.8l.5-1c.2-1.2.9-1.8 1.7-1.5.5.2.8 1.2.8 2.7l.5 3.2c1.3 5.8 1.4 7.2.2 7.2-.4 0-.7-.1-.8-.3zM143 159c-.4-.2-.6-.5-.6-1s.1-.6.9-.7c1.5-.1 2.6 1.5 1.3 1.9-.8.2-.8.2-1.6-.2zm29.2-2.1c-3.5-1.2-4.6-2-4-3.2.3-.5 1.2-.4 2.3.3a28 28 0 0 0 4 2.3c.3.1.6.4.6.7 0 .7-.7.6-3-.1zm-23-.1c0-.2-.3-.3-.7-.3-1.7 0-3.9-2-3-2.7.6-.4 1.7 0 2 .6.6 1 1.4 1.8 2 1.8.3 0 .8.2 1.1.4.5.3.5.4-.5.4l-1-.2zm42.3-1-3.2-1.6c-1.1-.5-2.4-1.3-2.9-1.7-.7-.7-.8-.9-.6-1.3.5-.8.8-.7 2.7.5l3 1.7c2.5 1.2 3.5 2 3.6 2.5 0 .5 0 .6-.7.5-.4 0-1.3-.3-2-.6zm-39 0c-3.9-.9-5-1.5-4.4-2.5.4-.8 1.7-.7 3.3.3.7.5 1.8 1 2.4 1.3 1 .3 1.5.7 1.3 1-.2.4-.7.3-2.5 0zm25.2-.9c-.4-.1-5.3-3.7-5.6-4.1-.1-.2-.2-.7-.1-1 0-.7.2-1 .8-1.2.7-.4.9-.4 1.7 0 .5.3 1 .8 1.1 1 .3.5 1.3.7 1.3.2 0-.5-1.4-2.4-2.2-2.9-.9-.5-1.3-.5-4 .2-2 .5-2.5.8-2.5 1.7 0 1-.8 1.5-2.4 1.6l-2.1.4c-1 .3-1.8.2-3.9-.6-1.7-.6-2.2-1-2.1-1.8.1-1 .8-1.1 2.2-.4 1.3.6 4.6 1 5 .6 0-.1-.3-.5-.8-.7-1-.6-1.6-1.6-1.1-2l3.2-.2c2.3 0 3.4-.1 5.5-.7 1.5-.4 3.1-.7 3.7-.7 1.1 0 1.3-.4.6-2-.5-1 0-2 .9-2.2 1-.1 1.6.7 1.6 2.1 0 1.4.3 1.6 1.1 1 .8-.7 1.7-.3 2.8 1.2 1.3 1.9 1.5 3.4.4 4.6a3 3 0 0 1-2 1c-1 .2-1.1.3-1.2 1.4 0 .6-.2 1.2-.4 1.4-.3.1-.4.7-.4 1.1 0 1-.4 1.3-1 1zm-19.8-1.6c-.3-.2-1.2-.6-2-.8-2-.5-2.6-1-2.4-2 .2-1 .4-1.1 2.5-1 1.3 0 1.8.1 2.1.5.2.3 1 .8 1.8 1.1 1.1.5 1.4.8 1.4 1.3 0 .7-.3 1-1.8 1.2-1 .1-1.3 0-1.6-.3zm-32.4-6.2v-1.8c.2-1.5.6-2 1.1-1.4.5.5 0 3.4-.5 3.5-.3 0-.5 0-.6-.3zm4.5-1.7c-.3-.3-.2-1.8.2-2.1.8-.7 1.6 1.1.8 1.9-.5.4-.7.5-1 .2zM4.7 143.1c-4.4-.5-5-.7-4.6-1.5.5-.7 12.8.4 12.8 1.1 0 .6-4.6.8-8.2.4zm125-.9c-.3-.6 0-1.2.8-1.3.8-.3 1-.1.8.6-.2.7-1.4 1.2-1.6.7zm-98.6-.3h.5c0 .1 0 .2-.4.1-.3 0-.3 0-.1-.1zm3-1.7c-.3-.5-.3-.5.4-.5.8 0 1.5.5 1.2.9-.4.3-1.4.1-1.7-.4zm-7-1.5v-.7c0-.3.2-.4.5-.1.2.1.4.4.4.6 0 .5-.8.7-1 .2zm-17.7-1.2c-1.5-.2-1.8-.6-1.6-1.7.3-1.3 1.1-2.2 2-2.2 1 0 1.5.3 1.5 1-.1.8 0 1.1.3 1.1.4 0 1.8 1.2 1.8 1.6 0 .6-1.7.7-4 .2zM14 134c-.5-.3-.2-.8.3-.8.3 0 .4.2.4.5 0 .6-.2.7-.7.3zm13.3-2.9c-1.2-.2-1-.8.5-1.1.8-.2 1.5-.4 1.5-.6l-1-.3-2.6-.4c-.9-.2-2.5-.3-3.6-.3l-3-.1h-1c-.1.2-.6.4-1 .4-1.3 0-.9-.8.7-1.6.8-.4 1.6-1 2-1.4.5-.7.6-.7 1.2-.3.7.5 1.4.5 1.6 0 .2-.8 1-.8 1.6 0 .5.7.6.7 1.1.4.7-.4 1.2-.4 2.1.3.6.4 1 .5 1.6.3 1.3-.3 8.5-.3 9.8 0 1.5.3 6.2-.7 9.1-2l2.1-.6c1.6-.3 2.6-.7 2.6-1.1 0-.3-.3-.4-1.6-.3-4 .5-10.3.6-13.4.4-6.2-.4-17.4-.7-19.2-.5-1.6.2-1.7.1-2.4-.6-1-1-1.6-.7-1.4 1l.4 2.3c.3 1 .2 1.4-.3 2.6-.3.4-.3.6 0 .9.4.3.4 1.1 0 1.4-.1 0-.6 0-1-.3-.5-.3-.9-.7-1.2-1.7-.5-1.4-.6-3.3-.2-3.6.4-.2.5-1.6.2-3-.2-1.3-.2-1.5.3-2 .9-.6 3.1-.4 3.7.3.4.5.8.5 5.5.5l6 .1c1 .3 14.3.7 16.9.5 4.2-.2 12.9 0 13.3.2.2.2.8.5 1.4.6.8.1 1 .3 1.1.8 0 .4 0 .6-.5.6a19.7 19.7 0 0 0-5.3 1l-3.1.8a187.7 187.7 0 0 0-12.6 3.5l-2.6.6c-1.2.4-2.5.7-2.9.7-.4 0-.8 0-.8.2-.3.5-2 .4-2.1-.1-.3-.6-.7-.5-.7.2 0 .5-.2.7-.8 1-1 .4-1.4.4-2 .3zm146.3-6.6c-1-.5-1.2-.8-1-1.3.2-.5 1-.4 2 0 .8.5 1 1.1.3 1.5-.4.1-.7 0-1.3-.2zM72.3 123a121 121 0 0 1-6.3-1.8c-.7-.2-1.3-.5-1.3-.7 0-.2-.3-.6-.8-.8-.4-.2-.8-.6-.8-1 0-.8 1-.7 2.7.4.6.4 1.8 1 2.6 1.2l3 1c.8.4 2 .7 2.5.7 1 0 1.5.6.9 1-.5.3-1.1.3-2.5 0zm97-.3c-.4 0-1.4-.5-2.2-.8-.8-.4-2.2-1-3.1-1.1-1.7-.5-4.8-1.6-8-3l-3.4-1.1-2.8-1-3.2-1.1a37.6 37.6 0 0 1-5.7-2.2l-2-.6-4.8-1.6a56.8 56.8 0 0 1-8-2.8l-1.7-.5c-1.4-.6-1.6-1.3-.4-1.3.9 0 7.6 2.1 12.7 4.1l2.8.9 1.7.6c.7.4 2.3 1 3.6 1.3l3.4 1.2 2 .7 1.3.5 1.5.6 5.4 1.9 9.9 3.4c2 .7 2.8 1.4 2.2 1.9h-1.1zm-107.2-1c-1.8-.7-3-1.6-3.5-2.6-.2-.8-.2-1 .1-1.3.6-.6 1.5-.2 2 1 .4.7 1 1.1 2.4 1.8 1 .5 1.9 1.1 1.9 1.3 0 .5-1.2.4-2.9-.2zm66.4-5.9-1.7-.6-3-.9a19 19 0 0 1-3-1 44.6 44.6 0 0 0-7-2.5l-3.7-1.1a98 98 0 0 1-9-2.8l-5.1-1.7c-4.5-1.4-5.2-1.7-4.9-2.2.3-.4 3 .2 6 1.3 2.4.8 2.8.9 6 1.7a27.7 27.7 0 0 1 5 1.7 134.4 134.4 0 0 1 12.7 4.2c9.6 3 10.2 3.2 9.5 4-.4.3-.5.3-1.8 0zm0-5c-.9-.4-2.8-1-5.7-1.8l-1.8-.7-2.7-.9a60 60 0 0 1-7.3-2.5l-1.8-.7a12 12 0 0 0-2.7-.8 12 12 0 0 1-2.6-.8l-1.5-.5c-.6 0-4.9-2-4.9-2.2 0-.3 1.7 0 3.9.8a84.7 84.7 0 0 1 17 5.5c.2.2 1.4.6 2.7 1 1.2.2 2.6.7 3.2 1a22 22 0 0 0 5 1.7c1 .2 1 .3 1 .8-.1.7-.7.8-1.8.2zm-48.8-5.4a2484.6 2484.6 0 0 0-4.3-1.6c-.8-.1-1.7-.8-1.7-1.2 0-.4.8-.2 1.9.3.6.3 1.3.5 1.7.5.4 0 1.4.3 2.3.7l2.3.8c1 .3 2 1 1.7 1.2-.2.5-1.8.2-4-.7zM203 105c-1.2-.4-3-1-4-1.1a34.8 34.8 0 0 1-6.4-2 323 323 0 0 1-20.5-7c-1-.6-4-1.5-5.3-1.6-.6-.1-1.6-.4-2.1-.7-.5-.3-1.4-.6-2-.7-1-.2-2.6-1-2.6-1.2l-1-.3a432.5 432.5 0 0 0-9.2-2.7c-1.7-.5-2.6-1.2-2.3-1.7.2-.4 1-.3 2 .2.5.3 1.8.7 2.9 1 2.6.5 3.5.8 5.1 1.5 2.2.9 2.4 1 3.7 1.2a111.3 111.3 0 0 0 9.8 3.3 406 406 0 0 1 13.5 4.4c1.5.4 3.5 1 4.5 1.5 3 1.1 4.7 1.7 5.2 1.7a60.7 60.7 0 0 1 10.1 3.6c1.2.4 1.6 1 1 1.2-.3.1-1.3-.2-2.4-.6zM92.8 98.7c-.9-.3-1.6-.7-1.6-.8 0-.7 3.6.1 4.5 1 .3.3.3.3-.4.3a12 12 0 0 1-2.5-.5zm118.4-3.1a1561.9 1561.9 0 0 1-9.4-2.7 108.5 108.5 0 0 0-11.4-3.3 85 85 0 0 0-7.3-2.3c-.5 0-1.6-.5-2.2-.9l-1.2-.7 1.7.2c1 0 2.3.3 3 .6.6.3 4 1.2 7.5 2a95.7 95.7 0 0 1 10 2.8l2 .5 2.3.8c7 2 7.9 2.3 7.2 3-.4.5-.5.5-2.2 0zm-83.8-11.8c-.8-1-.9-1.4-.2-1.9.4-.2.7-.2 1.2.1 1 .5 1.1 1.6.4 2.2-.5.5-.6.5-1.4-.4zm452.8-33c-.6-1 .7-2.2 1.4-1.2.5.7.5 1.1-.1 1.4-.7.4-1 .4-1.3-.1z"/>
</svg>
