<?xml version="1.0" encoding="utf-8"?>
<svg xmlns="http://www.w3.org/2000/svg" xmlns:svg="http://www.w3.org/2000/svg" version="1.1" viewBox="0 0 432 271">
	<title>Ginger, dressed in a long coat, leaves a trap at the entrance to a warren. On the ground behind him are a pile of traps and snares. Three bunnies are visible on the other side of the rise.</title>
	<path d="M354.7 270.4c-1.1-.1-2.3-.3-2.6-.5a67.8 67.8 0 0 1-10-2c-1 0-2.2-.3-2.8-.4a57 57 0 0 0-10-1.1c-2.5 0-3 0-4.3-.7a7 7 0 0 0-2.1-.6c-.4 0-1-.2-1.1-.4-.2-.3-.8-.4-1.6-.4a7 7 0 0 1-2-.3c-.3-.1-1.6-.4-2.8-.5-1.8-.2-2.2-.2-2.6 0a14 14 0 0 1-4.4 1.9c-1.5.4-2.2.5-4.5.4-3-.2-5.6-1-6-1.5 0-.3 0-.6.2-1 .3-.4.4-.4 1.6 0 1.1.4 2 .5 5 .3 2 0 3.9-.2 4.1-.4l1.1-.5c1.2-.5 1.2-1 .2-1s-1.6-.6-1.4-1.3c.3-1 1.1-1.5 3.4-1.7 2.2-.3 2.3-.3 2.3-1a2 2 0 0 0-1.5-2 66 66 0 0 0-9.6-1 150.1 150.1 0 0 1-9.5-.9c-.2.1-.3.6-.4 1.2-.2.8-.5 1.3-1.1 1.8-.5.4-.8.8-.7 1 .5.4 4.7 2 5.6 2 1 0 1.8.6 1.8 1.2 0 .5-.9 1.2-1.6 1.2-.4 0-.7.1-.8.4-.1.2-.4.4-.7.4l-4 .6a21.2 21.2 0 0 1-5 .7c-1.9.4-11 .8-15 .6-4.1-.3-5.3-.5-8-2-.9-.4-2.7-1-4.4-1.3a25 25 0 0 1-3.3-.8l-2.8-.2c-2.2 0-2.4 0-3.2.7-.7.7-1.2.9-2.6 1-2.2.2-4.7 0-5.5-.7-1.2-1-1.2-3.9 0-4.6.7-.6 3-.5 4.3 0a52 52 0 0 0 9.5 2c5 .5 7.5 1.1 9.4 2.3 1.8 1 10.1 1.6 15.6 1.1l5.8-.5a16 16 0 0 0 5.8-1c.5-.5-1-1-2.8-1-1.2 0-2.2 0-2.7-.3-1.6-.8-4-1.2-6.6-.9-3.6.4-9.5.5-12.2.3-5.1-.6-6.8-.8-7.9-1.3-1.2-.5-1.5-.8-2.8-2.3-1.4-1.6-1.3-1.6-1-2.3.4-.8.3-2-.1-2s-2 .5-2.7 1l-2.4.7-3 .7c-2.1.5-7.1.3-9.5-.4l-4-1.1c-1.1-.3-2.8-.9-3.7-1.4l-3-1.2c-1.4-.6-4-.6-5.4-.1l-2.3.5c-1 .2-1.4.1-2.8-.6-1.8-1-4.1-3-4.5-4-.4-1-.9-1-3.2-.2-3.2 1-3.6 1.3-3.7 2.5-.1 1.8-.7 2-4.8 2.4-1.7.1-1.9 0-2.5-.5-.7-.8-1.4-.9-2.5-.4-.8.5-7 .6-7.6.2-.1-.2-1.3-.4-2.5-.6l-3.7-.6a47 47 0 0 0-7.8-1.3c-2-.2-4.3-.5-5-.7-3.3-.6-5-.8-6.8-.8-1.1 0-2.5-.1-3.1-.4-.8-.2-1.7-.3-3.2-.2h-2.1c0-.2-.3-.4-.5-.5-.5-.1-.6-.4-.6-1.2 0-1.6.4-1.7 6.1-1.5a929.7 929.7 0 0 0 33.3.4c1.8-.2 3.5.2 4.2.8.7.7 1.1.7 2.6-.4 1.8-1.3 3.5-1.3 5.2-.1l1 .8 2.2-.3 4-.6 16-1.3a15 15 0 0 0 4.7-.8c1.8-.8 2.5-.7 2.5.2 0 .6 1.3.5 1.5-.2.2-.6.5-.6 2 .2 1 .5 1.8.6 3 .6 2.5 0 12.2 1 15 1.6 1.9.3 3.6 1.2 4.1 2.2.6 1 .7 2.4.3 3.5l-.2.7h1.5a32 32 0 0 1 12.4 2.8c0 .2 1 .5 2 .9.9.3 2.9 1.2 4.4 2 2.5 1.1 3 1.3 4.5 1.2 1 0 2.3-.1 2.9-.3 1.9-.5 1.3-1.3-2-2.5a59 59 0 0 1-3.7-1.7c-1.6-.8-2.7-1.1-3.1-1l-.8-.1c0-.2-.7-.4-1.5-.6-2.2-.6-4.5-1.8-4.7-2.4-.3-.8 0-1.5.7-1.7.6-.1 3.4.4 4.7 1 .2 0 .4 0 .4-.2s-.3-.3-.6-.4c-.6 0-1.3-1.1-1.1-1.7.2-.5.8-.6 2-.3s3 .2 4-.2c.5-.1 1 0 1.9 1 .8.7 1.5 1 2.2 1.2 1 .1 1 0 1.4-.8.7-1.4 1.2-1.6 2.8-1l2 1c1.6.9 3 1.4 3.3 1.3.2-.1.3-.5.3-1.2 0-1.7.4-2.2 1.6-2.2.6 0 1.1 0 1.2-.2.1-.2.7-.3 1.3-.3 1 0 1.2-.1 2-1 1-1.2 2.5-1.8 3.6-1.4 1.6.6 2.7.6 3.7.1a7 7 0 0 1 5 0c1.1.5 2.8.5 4-.1.5-.2.7-.2 1 0 .1.2.6.3 1 .3h.9l-.7-.3c-1-.5-3.9-1.3-6.4-1.8l-4.8-1c-1.3-.4-3.8-.8-5.4-.9-2.9-.1-4.4-.4-9.1-1.5-3-.7-4.8-.7-7.5-.1-1.8.4-2.7.5-3.7.3a108.2 108.2 0 0 0-7.7-1c-.4-.2-1.2-.3-1.7-.3l-2.6-.4a26 26 0 0 0-2.7-.5 28.3 28.3 0 0 1-6.6-1.2 80.6 80.6 0 0 0-12.7-2.1l-3-.6c-2-.3-4.3-1-5-1.7-.9-.8-1-2.8-.6-6l.4-3.9c0-1 0-1.2 1-2 1-1 1-1 4.5-.3l3.2.4c.7 0 1.6.1 2 .3.6.2 1.4.3 6.1.8a178.2 178.2 0 0 1 29.2 5.4c.3.3.7.5 1.1.5 1.5-.2 2 1.1 1.5 4-.2 1.4-.4 1.6-1.3 1.2-.6-.2-.7-.4-.7-1.8 0-2.5-.3-2.9-2.5-3.2a53 53 0 0 1-6.4-1 55.2 55.2 0 0 1-6.7-1.1l-3.8-.6-1.8-.2-1.3 1.2-1.2 1.4 1.5.4c1 .1 1.9.5 2.6 1 .9.6 1.3.8 2 .6.6 0 1.4 0 2 .3 1 .4 4.6.5 4.9 0l1-.2c.6 0 1 .3 2.1 1.4a6 6 0 0 0 1.6 1.3c.2 0 .7-.3 1-.6.8-.6 1.9-.6 2.3-.2l.6 1.5c.1.6.5 1.3.8 1.5.5.5.5.5 1.2 0 .4-.4 1-.6 1.5-.6.6 0 .7-.1.7-1 0-1.2 1-1.6 2.9-1.2 1.2.4 3 .6 6.9 1a79.8 79.8 0 0 1 10 1.7c1 0 3.3.4 5.2.8 2.6.4 3.6.7 3.9 1 .4.5.6.5 1.7.4 1.2-.2 2.3 0 6.3 1l2.1.5 1.2-.6c1.2-.5 1.3-.5 3.9-.1 5.4.8 8.6 2.4 9 4.3.2 1-.6 3-1.6 4-.7.7-3 1.7-4.3 1.7-.8 0-1.3.2-2.2.9-1.4 1-1.9 1-4.2-.2-1.7-.9-3.2-1-4-.2-.3.3-.5.7-.5.9 0 1.1-2.2 1.7-4 1-2.9-1-2.9-1-3.3-.4-.5.7-4.9 1-6.2.4-.7-.3-1.2-.4-2.6-.2l-4.5.3c-1.5 0-2.8 0-2.9.2l-.7 1.8c-.8 2.3-1.8 3-3.9 2.7l-3.3-.2c-1 0-3.2-.3-4.8-.6-2.7-.4-3-.4-3.8 0l-1.6.4h-.6l.7.4c1 .5 3.6 1.3 6 1.9 3 .6 6.2 1 15 1.7 5.6.5 5.2.5 5.7-.5.6-1.2 1-1.6 2.1-2.1 1-.4 1.3-.5 3-.2l3.1.8c1.2.4 1.4.4 2.5 0 1.5-.5 2.2-.5 2.8 0 .4.5.5.5 1.6 0l2-.4c.3 0 2.4-.3 4.5-.8 4.3-1 4.8-1 10.5-1.8l5.2-.8c1.3-.4 6.3-.4 7.2 0 .8.3 1.5 1.3 1.5 2.1 0 1.2-1 1.8-3 2a56 56 0 0 0-12.9 2.8l-.9.4 1 .3a52 52 0 0 0 11.8 1.4l2.8.2c.4.2 2.8.4 5.2.5 5 .3 5 .3 6 2.3.7 1.3.6 1.8-.3 2.4-.8.5-6.4.6-10.8.2a251.4 251.4 0 0 0-11.9-1c-2.7-.5-8.1-.7-7.7-.4l1.6.4a5 5 0 0 1 1.5.4l1.7.5a7 7 0 0 1 1.7.5 116.2 116.2 0 0 1 5.5 1.5c2 .5 4.2 1 4.8 1a3 3 0 0 1 1.8.5c.3.3.8.5 1 .5 1 0 3.8 1.1 4 1.6.4.7-.1 2.2-1 2.9-.7.6-1.7.6-5.8.3zm-9.5-5.5h-.8c-.3 0-.1.1.3.1s.6 0 .5-.1zm-1.4-.4-.6-.2-1.2-.2-.6.1c0 .2.4.4 1 .4l1.2.2s.2-.1.2-.3zm-4-.9c-.2-.2-.7-.4-1.2-.4s-1 0-1-.2l-1-.4a68.5 68.5 0 0 1-7.3-2c-.9-.2-1.5-1.2-1.2-2 .5-1.4-.6-2-1.3-.8-.5.7-.7 2.5-.3 2.7l.7 1c.2.5.5 1 .7 1.1.2.2 2.5.5 5.1.6a47 47 0 0 1 6.5.8c.5 0 .6 0 .3-.4zm-17.2-2.5c.3-.8.3-.9-.1-1.2-.8-.6-1-.5-1 .6 0 1.6.6 1.9 1.1.6zm-78.4-1.7c-.8-.5-1.2-.4-.9.1.1.2.5.3 1 .3h.6zm76-2.1c.2-.3.2-.4-.1-.7-.2-.2-.5-.8-.6-1.3-.2-1.2-.3-1.3-1.2-2-.5-.3-1-.4-1.8-.2-1 .1-1 .2-.6.4.7.2 1.4 1.6 1.4 2.7 0 1.2.3 1.5 1.5 1.5.6 0 1.2-.2 1.4-.4zm-42.2-.4c1-.4.7-.7-1.1-1.2a32 32 0 0 1-6.9-2.6c-1.2-1-1.7-1.1-5.8-1.1-3.5 0-4 0-4.6.5-.6.6-.7 1.5 0 2 1.2 1.1 3.9 2 5.7 2.1a61.8 61.8 0 0 0 12.7.2zm60.3-.3c.1-.1 0-.3-.2-.3-.3 0-.4.2-.3.3l.3.3.2-.3zm-8-2.3c1.4-.5 1.8-.7 1.8-1.3 0-.5-1.1-.4-2.6 0-1.3.4-1.7.8-1.5 1.3.2.6.4.6 2.2 0zm-6.3-.5a1 1 0 0 0-.7 0l.4.1c.3 0 .5 0 .3-.1zm-76-3.3c.7-.4 1.6-.8 2-.8.7 0 1.7-.2 6-1.1 1.6-.4 3.3-1.5 3.4-2 0-.7-1-1.6-1.8-1.8l-1.3-.3c-5-1.1-13.5-1.8-18.7-1.5-2.8.2-3.5.2-4-.1-.5-.4-1.7-.3-4.3.2l-5.3 1c-.7.1-.8.2-.6.5.2.2.7.4 1.1.4a27 27 0 0 1 6.4 1.6l1.2.4 2.2 1.2c1.4.6 2 .7 4.2.7 2.7 0 3 .2 2.5 1.3-.4 1 0 1 3.1 1 2.4 0 2.8 0 4-.7zm35.3-3a5 5 0 0 0-3-1.2c-.6 0-.8 0-.7.4.1.2.4.4.8.4.3 0 1 .2 1.5.5s1.2.5 1.5.5c.6 0 .6 0-.1-.6zM221 247a1 1 0 0 0-.7 0l.3.1h.4zm79.7-.1c.6-.6.4-1-.4-.9-1 .3-1.2.4-.7.8.6.5.7.5 1.1 0zm-97.5-1.5c.4-1 .1-1.4-1-1.4-1 0-1.4.5-.8 1.5.6.8 1.4.8 1.8 0zm-8.5-.7c-.3-.3-1-.4-3.7-.4-3.2 0-3.2 0-1.2.2l2.1.4 1.7.1c1.2 0 1.4 0 1.1-.3zm139.8-4.9 1-1.1c0-.6-2.3-1.7-3.6-1.8-1.2 0-1.4 0-1.8.5-.6.8-.6 1 0 1.2.4 0 .8.5 1 .9.4.6 1.3 1.1 2.3 1.3.1 0 .6-.4 1.1-1zm-7.7-.2c.4-.3.4-.5 0-1.2-.2-.5-.6-.7-1-.7l-1.5-.2-1-.2.5 1c.8 1.5 2.2 2.1 3 1.3zm-4.5-2.4c.1-.2-.3-.4-1-.5l-2.4-.6c-1.5-.4-4.6-.6-4.6-.3 0 .2.3.3.6.3s1 0 1.4.2c2.9 1 3.5 1 4.7 1l1.3-.1zm5-1.5c0-1-.2-1-3.9-1.7-2-.4-2.4-.5-2.6-1-.2-.5-.5-.6-1.7-.5l-2.8-.3c-1.5-.4-2.6-.6-8.2-1.4l-5.3-.8a40.7 40.7 0 0 0-9.3-.9c.4.1.9.4 1.2.7.2.2.9.5 1.4.6a96.8 96.8 0 0 0 10 1.7l2.1.3c.7 0 1.6 0 2 .2.4.2 1.4.3 2.1.4l1.7.2c1 .4 3.2.7 5 .9 1.1.1 2.5.3 3.1.5.6.2 1.6.4 2.2.4 1 0 1.3.2 1.9.8.8.9 1.2.9 1.2-.1zm-13.9-.3h-.5c-.2 0-.1.1.2.1.3 0 .4 0 .3-.1zm-27.2-3.3c.2-.3 0-.8-.6-1.7-.8-1.2-1-1.3-1.9-1.4-.5 0-1-.1-1.1-.3 0-.2-.6-.3-1.2-.3s-1.3-.2-1.6-.4c-.4-.3-1-.4-2.2-.2-1.3 0-1.8 0-2.9-.4-.9-.4-1.8-.6-3.1-.6-1.5 0-2.1-.1-2.8-.6-.8-.5-1.2-.5-3.4-.4l-2.4.2-1-.8c-.7-.6-1.2-.9-2-1-.7 0-1.5-.2-1.8-.4-.8-.5-1.6-.5-2.2 0-.7.5-2.3.5-3.3 0-.4-.2-1.2-.4-1.8-.4a5 5 0 0 1-1.9-.4l-1.4-.7c-1-.4-1-1.1.2-1.9.9-.5 1-.5 1.9-.1.5.2 1.4.4 2 .4.8 0 1.3 0 2 .5.8.7 1.1.7 3.4 0 1-.2 1.2-.2 2 .2a7 7 0 0 0 2.6.4h1.8v-1.2c0-1.5-.4-1.7-2.8-1.7-1 0-3.5-.2-5.5-.5-6.3-.7-8.2-.7-8.6-.2a25 25 0 0 0-1.5 7.1c.1.4 1.8 1 4 1.5a84.7 84.7 0 0 1 5.4 1l4.6.8a117 117 0 0 0 9 1.6 156.9 156.9 0 0 0 15.7 2.4c1.8 0 2.2-.1 2.4-.5zm-103-8.6a32 32 0 0 0-5.8-1 298.2 298.2 0 0 1-6.6-.5c-.7.2-1.8-.5-1.8-1.1 0-1 .8-1.4 3-1.9 2-.3 2.5-.3 4.6 0 3 .5 4.4.8 5.5 1.4.4.2 1.6.4 2.7.5 1.7.1 2 .2 2.2.7.3.8.1 1.2-.8 1.6-.7.4-2.6.6-3 .3zm42.6-1-2.3-.4-5.4-1.4-2.4-.2c-1 0-2-.2-2.3-.3-.8-.4-4.4-1-6.3-1.2-1.5-.2-1.5-.1-2.4.8-1.2 1.3-1.6 1.5-4 1.8-5.8.6-7.3.3-15.6-3.3-3.4-1.5-4.7-2.3-4.7-2.9 0 0 .2-.4.5-.6.5-.6 1.8-.5 3.5.3l1.5.6 1.5.7 2.7 1c3.6 1.2 4 1.2 8 1l4-.1.5-1c.7-1.5 1.9-1.6 7-.8l4.2.5c4.3.5 5.4.7 9.9 2.2 2 .6 3.7.6 4.6 0a9 9 0 0 1 2.7-1l3.6-.8c1.6-.5 1.6-.5 2.4 0 1.5 1.2.9 2.3-1.5 2.8l-2.8.6c-.8.1-1.6.5-1.9.7a5.8 5.8 0 0 1-5 1zm-80.3-2.1c-1.2-1.3-.3-2.6 2.2-3 5.2-1 14.3-1.4 18-.8 2.2.4 2.9.8 2.8 1.5-.2 1-2.9 2-4.2 1.5a37.6 37.6 0 0 0-12 .6c-.8 0-2 .2-2.7.4-2 .6-3.4.5-4-.2zm242.7-9.8a18 18 0 0 0-4.8-1.3 30.2 30.2 0 0 1-6.4-2c-.3 0-1-.4-1.5-.7a6 6 0 0 0-1.7-.8 31 31 0 0 1-2-.6l-1.9-.4c-.3 0-1.7-.5-3-1.1l-4.7-2.2a14.5 14.5 0 0 1-5.8-4.4c-.7-1-1-1.2-2.6-1.7a10.8 10.8 0 0 1-3.4-1.7c-.4 0-1.8-1.2-2.2-2a16 16 0 0 0-5.2-5.4l-2.6-2.3c-2.4-2.1-3-2.4-4-1.8-.7.5-.9 1.5-.4 2.7.5 1-.7 3-4.2 6.5-4 4-5 5.5-3.6 5.5.8 0 1 0 4.7 1.3 1.3.5 2.9.8 3.5.8.6 0 2 .2 3 .5 1.4.3 2.6.3 6.7.2 4.4-.2 5-.1 5.6.3.5.3.7.6.7 1.3 0 1.5-.3 1.5-7.3 1.7-3.5.1-7.4.3-8.7.5a83 83 0 0 1-6.6.3c-4.2.1-4.3 0-5.6-.6a29.7 29.7 0 0 0-16.2-.5c-.6.3-3.1 0-4.2-.6a8 8 0 0 0-4.2.6 27.3 27.3 0 0 1-8.9 2c-1.9.1-2.3.2-4.1 1-.4.2-2.9.4-5.5.5l-6 .4c-.9.1-1.2 0-2-.5-.6-.4-1.2-.7-1.5-.7-1 0-6.6-1.3-8.3-2-2.2-1-3-1.7-3.8-3.4-.8-2-.8-3.7.1-5.3 1.4-2.3 3.4-3.4 7.6-4.3 2.2-.4 2.2-.4 3.6.1 1.4.6 3 .8 3.5.5.6-.4.3-1-1.4-2.7l-1.6-1.7-5.2-.1a58.4 58.4 0 0 1-11.6-1c-.4 0-2.3-2-2.8-3l-.5-1.6c0-.4-.3-1.7-.7-2.7a33 33 0 0 1-.8-3.8c-.4-2.9-.7-4-1.1-5.1-.4-.8-.5-2-.6-4.1 0-4.9-.5-6-1.9-5.4-.8.4-3.4.4-4 0-.6-.3-.8-.3-3 1.2-1.5.9-3.7 1.2-8.4 1.4-3.7.1-7.2.4-7.7.7h-1.8c-1-.3-1.6-.3-2.2 0-1 .4-1.2 1-.1 1.1 3.4.5 6.7.7 8.6.4a93 93 0 0 1 15.5 1.4c2.2.4 3 .7 3.2 1.3.2.7-.3 1.5-1.1 1.8-.8.3-3.4 0-5.2-.6-2-.7-5.7-1.3-6.7-1-.5 0-1.3.3-1.9.4-1 .4-1 .4-.3.6.8.2 3.3.6 6.8.9 3.3.3 4.3.5 4.6.9.3.5.2.7-.5 1-.5.2-1.3.1-2.9-.2l-2.2-.5-.8.9-.8.8-3-.1-4.6-.2c-1.5 0-1.7 0-2.5-.8-1-1-1-1.2-.2-2l.6-.6h-1.3l-3-.4a36 36 0 0 0-5-.5c-1.8-.1-4-.3-4.8-.5l-4.5-.2a20 20 0 0 1-4-.3c-1.9-.6-2.4-.8-2.4-1.3 0-.4-.3-.4-3-.4-2.6 0-3 .1-3.3.7l-.3.6c.2.2 4.3 1 5.7 1.1l6.6.8a32.6 32.6 0 0 1 10 2.6c3 1 3.6 1.7 2.9 2.9-.2.4-.6.8-.7.8-.5.2-6-.3-7.4-.6-1.3-.3-6.1-.9-7.8-.9-1.4 0-1.7.3-1.9 1.7 0 .9-.3 1.3-.8 1.6-.6.3-1 .3-3 0a55 55 0 0 0-4-.7c-2.4-.2-5.8-1.1-7.1-1.9-1.1-.6-1.3-.6-1.8-.3-1.3.9-3 1-8.5 1-4.3 0-5.9.1-6.8.4a3 3 0 0 1-2 .1c-.8-.2-1.4-.2-2.2 0-2.2.6-2.7.7-3.8.3a4.5 4.5 0 0 1-2.9-2.5c-.2-.4-.7-1.2-1.2-1.6-1-.9-1.2-1-6.3-1.4l-2.7-.4c-.7-.4-10.3-.6-14.5-.3a9 9 0 0 1-3-.1c-.8-.3-1-.3-1.9.2-1.2.7-4.4 1.5-7.2 1.9-1.3.1-2.5.3-2.8.5-.3.2-1.5.3-2.6.3a15 15 0 0 0-3.1.3l-1 .3 1.1.4c1.7.6 1.9.8 1.9 1.6s-.7 1.4-2 1.8a13 13 0 0 1-5-1.3 26.3 26.3 0 0 0-13.3-.2c-1.9.6-3.4 1-5.7 1.3-7.5 1-7.3 1-10.6 2-1.2.4-1.3.4-1.8 0-.6-.6-.7-1.8-.2-2.2.9-.7 8-2.2 10.5-2.2 1.2 0 2.4-.2 3.3-.5.7-.3 1.6-.5 1.8-.5.3 0 1.2-.5 2-1 1.9-1.4 4-1.8 7-1.6l2.9.3c.5.2.7 0 1-.6.3-1.1 1.5-1.8 3.9-2.1 2.3-.4 3.1-.2 2.3.7-.5.4-.5.6-.2.7.2 0 .8 0 1.2-.3 2-1.2 2.6-1.4 4.2-1.6l3-.1c1.2 0 1.5 0 2.8-1 1.8-1.3 2.7-1.8 5.5-2.6 2-.6 2.4-.8 4-2.3 1-1 2-1.8 2.2-1.8.5 0 1.4-1.3 1-1.3-.6 0-1.3-.9-1.3-1.6 0-1.1 1.4-2.1 6-4.3.4-.2.6-.5.6-1.2 0-1.2.3-1.8 2.5-3.9 1.6-1.5 2-2 2.1-3 .2-1.3 1.7-2.7 5-4.4.5-.2 1.2-.6 1.5-1l.6-.5-.7-.8c-.7-.8-.9-2-.4-2.5.2-.2.9-.3 1.5-.3 1.1 0 1 0 3 2.3.7 1 .7 2.3 0 2.8-1.3.7-2.7 2.4-3.5 4l-1 1.9c-.2 0-.3.5-.3 1 0 .7 0 .7 2.2-1.5a49.4 49.4 0 0 0 5.7-6.8 40.9 40.9 0 0 0 3.2-7c.2-1.4.8-2 2-2 .6 0 1 .2 1.6.8 1.2 1.2 1.8 1 2.6-.8 1.2-2.7 1.6-4.2 1.2-4.7-.1-.2-.6-.3-.9-.3-.6 0-.6 0-.6 1.4 0 1.2 0 1.5-.6 2.1-.9 1-2.1 1-2.9 0a3 3 0 0 1-.5-1.2c0-.7-.8-2.3-1-2.3-.2 0-.8.4-1.4 1l-3 2c-1.1.5-2.9 1.6-4 2.4-1.6 1.2-2 1.4-3 1.4-1.4 0-1.7.2-2.8 1.7-1 1.3-2.6 2.4-3.3 2.2-1-.4-1-2.3 0-3.4.2-.3.6-1.2.8-2 .3-1.6.2-1.8-1.6-3-1.5-1-1.9-1.5-1.9-2.4 0-1.5 1.8-1.8 3.4-.4l1.1 1c.6.7 1.5 1 2.4.9 1.1-.2 2.4.4 2.4 1s.7.7 1.2.2c.7-.6 1.2-1.4 1.2-2.2 0-1 .7-1.8 2-2 .5 0 1.2-.3 1.4-.5l1.8-.6c1.5-.2 2.4-.9 5.7-4.4 1.9-2 2.4-2.3 4-3 3-1 3.1-1 5.7.7 2 1.2 2.3 1.4 2.8 1.2 1.1-.5 2 0 4 1.8 1.7 1.7 2.7 2.3 3 1.6.4-.5 4-.5 6-.1 1 .2 2.5.3 3 .2l3-.2c1.1-.1 2.4-.4 3.3-.8 1-.5 1.9-.7 3-.7 1.6 0 1.7 0 2.8 1.2 2 2 2.3 2 6 1.7l4.2-.4c.8-.2 1 0 1.8.6.6.7 1 .9 1.9.9l3.5.4c2.6.4 2.7.3 2.8-1l.5-3.3.7-3.5.1-.8h-1.4a10 10 0 0 0-5.9 1.3c-1.8 1-4.4 2-5.5 1.7-2-.2-5.8-1.4-6.5-2-1-.6-1.3-.6-2.7 0-1.9.8-5.3 1.6-5.8 1.5-1.3-.4-.2-1.5 2-2.1l1.3-.4-1.6-.1c-2.3-.3-2.9-.5-2.9-1.1 0-.5.2-.6 1.3-.6 2.7 0 2.9 0 2.5-.6-.3-.6-1.3-1.1-3.2-1.6-1.3-.3-1.4-.4-4.2-3.7-1.6-2-2.2-2.9-2.6-4.1l-.6-1.7-.2-1.2c0-.7-.1-1-.8-2.3l-1.3-2.3a22.9 22.9 0 0 0-3.2-5l-1.5-1.3a9.3 9.3 0 0 1-1.8-3.1A57.8 57.8 0 0 0 181 81l-.5-1.7c-.7-1.6-.7-4.2 0-4.8.5-.5.9-.5 4-.4l5.3.5c2.4.3 4.2 0 4.9-.6l1.8-1 3-2c.8-.6 2.2-1.4 3-1.8 1.2-.5 1.6-.9 1.8-1.4l1.5-3.5c.3-.5.6-1.5.7-2.2.3-2.1 1.2-5.6 1.5-6.2.5-1 1.2-1 3-.1l2.2.8c.8 0 3.6 1.4 4 2 .2.3 1.3 1 2.4 1.6a14 14 0 0 1 3.1 2c2.9 2.9 2.8 2.8 5.6 2.9 1.5 0 3.2.1 3.8.3.7.2 2.2.5 3.4.6 1.7.1 2.4.3 2.9.7.5.4.7.5 1.6.2l3-.3a22 22 0 0 0 3.7-.3c1.2-.2 2-.2 4.7.2 1.9.2 3.7.6 4.1.9l1.3.6 1.2.2c1.5 0 4.9.8 6.8 1.6 1 .5 2.4.9 3.2 1 .7 0 1.6.4 2 .6l1 .5 2.6 1.1a155 155 0 0 0 14.9 6c1.6.5 5 2.8 6.8 4.5.8.9 2 1.9 2.6 2.2.5.4 2 1.8 3.3 3.2l5.3 5.5c2.2 2.3 3.2 3.4 3.5 4.3.2.6 1 1.8 1.8 2.6l3 3.8a62.9 62.9 0 0 0 3.8 5.5c2 3 2 2.9 4.4 2.9 1.5 0 2.3 0 2.7.4.2.2.8.3 1.2.4.6 0 .8-.2 1.1-1 .5-1.1 1.1-1.3 2.9-.8 1.3.4 1.6.4 3 0 1.6-.5 2.5-.3 4.7.8.8.4 1 .5 1.5.2.7-.5 1-.4 2.5.6.9.7 1.5 1 2.1.9a7 7 0 0 1 2.8 1c1.8 1 2 1 2.9.6.5-.1 1.3-.2 1.7-.1l1-.1c.7-.6 1.6-.2 2 .7.4.9 1.4 1.2 1.8.6.3-.6 1-.2 2.6 1.5 1.5 1.6 1.8 1.7 2 1.4.2-.3.8-.6 1.4-.8.9-.2 1.2-.2 2 .2.9.3 1.2.4 2 0 1.4-.4 2.4-.3 3.2.3l1.5 1 .7.4v7.1l-1 1.9c-.6 1.2-1.7 2.6-3.3 4.3a40 40 0 0 0-3.5 4c-1 1.4-1.1 1.7-1 2.7.2 1 0 1.5-1 3.3l-.6.8c-.5.4-1.5.2-2-.4-.8-.8-.7-2 .3-3 .4-.4.8-1 .8-1.3 0-.6.6-2 2-4.4l.6-1.4c0-.2.1-.4.3-.4.1 0 .2-.1.2-.3 0-.2-.3 0-.6.4s-.7.7-.9.7c-.2 0-.3 0-.3.2 0 .4-1 .8-1.5.7-.5-.2-.5-1.7 0-2.3.4-.5.4-.6-.1-1.4-.3-.5-.6-1.5-.7-2.3-.2-1.5-1-3-2.2-4.1l-.7-.6-.4 2.7a38.7 38.7 0 0 1-1.8 7.9c0 .5-.3 1.3-1 2.6 0 .3-.5.8-1 1-.6.3-.8.3-1.5-.1-.8-.4-.9-.6-1-1.9 0-1.3 0-1.3-.8-1.3-.6 0-.8-.2-1-1-.8-2-1-2-2.2.3l-1.3 2.2c-.3.3-.4 1.9 0 1.9l.5.7c.3.9 1.6 2.2 3.2 3.5.6.5 1.4 1.4 1.7 2 .4.8 1.1 1.9 1.7 2.6 1.2 1.5 1.6 2.8 1.9 5.7.2 2.6 0 4.2-1 5.6-.3.5-.7 1.5-.8 2.1-.1 1.2 0 1.3 1 2.3 1.6 1.3 2.3 2 2.5 2 .2 0 2.6 1.6 2.8 1.8l1.4 1c1.5 1 2.3 1.8 2.3 2.5 0 .4 1.2 1.6 3 2.9a25.3 25.3 0 0 1 4.4 4c.3.5.9 1 2 1.4 3 1.3 3.4 1.5 3.5 2.2.2 1.1.5 1.3 3 1.5 1.2 0 2.9.4 3.7.6.9.2 3 .5 5.7.6 4.3.1 4.7.2 5.5 1.3.3.3.6.3 1.5.1l5-.2c3 0 4.1-.2 5.2-.6.9-.3 2.1-.5 4.1-.5l3.1-.2c.5-.3 5-1 5.6-.9.2.1 2.3.3 4.7.4 7.3.4 8.5 1.3 9.2 6.5.2 1.1-.5 2.1-1.7 2.4-.9.2-2.6 1.3-4 2.6-.6.5-1.2 1-1.4 1a42.3 42.3 0 0 1-3.4 1.4c-1.5.6-2.4 1.1-2.6 1.5-.5 1.3-1.8 2.4-4.6 3.8a29.3 29.3 0 0 1-5.2 2.3c-.2 0-.7.2-1 .6-.7.4-1.2.5-2.3.5-1 0-1.6.1-2 .5-.4.3-1.2.5-1.8.5a4 4 0 0 0-2.1.8c-1.2.7-2.1 1-3.9.8l-1.7.4c-1.3.6-4.7.8-5.5.3zm-.8-5.7c-.1-.9 0-1.1.7-1.6.8-.6 1.9-.7 3.1-.3.5.2 1 .3 1.3.2.4 0 .3-.3-.5-1.2-1-1.3-1.2-2.2-.5-2.8 1-1 2-1.1 4.4-.1l4.1.8c2.2.3 2.9.5 3.2 1 .5.6.4 1.7-.3 2-.8.5-2.7 1.1-3.3 1.2-.3 0-.7.1-.9.4-.3.3-.2.4.6.4l1.8.1c1 .2 1.1 0 1.8-.6 1-1 4.3-2.6 6.2-3 1.5-.3 2-.6 2-1.3 0-1 1.2-1.9 4.4-3.5a64.5 64.5 0 0 0 7.5-4.2c1-.5 1.4-1 .7-1-.2 0-.5-.3-.8-.6-.5-.5-.4-1.4.3-2.1.4-.5.2-.5-3.4-.5-3.9 0-5.6.2-7.5 1-.9.5-1.6.6-3.9.5-1.9 0-2.9 0-3.1.3l-3 1c-2.7.6-4.3.7-5.1 0l-2.8-.2H392l-.8-1-.9-.9-4 .2c-4 .2-4 .2-4.8-.4-.7-.5-1.2-.7-4.2-.9-3.5-.2-4.6-.5-6-1.5-.7-.5-.8-.7-.8-1.7 0-1.1 0-1.2-1-1.3-1.4-.2-4.4-1.4-5.4-2.1-.8-.5-.9-.7-.9-1.7s-.1-1.1-1-1.8a12.5 12.5 0 0 1-4.3-3.9 19 19 0 0 1-1.2-2c-.1-.3-.3-.6-.5-.6a19 19 0 0 1-5-2.6c-.7-.6-1.5-1-1.6-1-.4 0-3.3-3.6-4.6-5.7-.5-.7-.6-2.6-.2-2.6.2 0 .3-.4.3-.9v-.9l-1.4.6a41.9 41.9 0 0 0-4.2 1.7 29.6 29.6 0 0 1-9.7 0c-.5.3-.5.4-1.4 2.3-.7 1.6-2.6 4-3.7 5-.4.4-1.2.7-1.6.9-1 .2-3.3 1.3-4 2-.4.2-1.4.9-2.5 1.4-1 .5-2 1.2-2.1 1.5a8.8 8.8 0 0 1-3.6 2.3 10 10 0 0 1-3.2 1.3c-.6 0-3 1.2-3.3 1.7-.2.3-.6.5-.9.5-.3 0-.5 0-.5.2 0 .1-.2.3-.5.4l-.9.5c-1.3 1.3-2 1.5-4.2 1.5-2.1 0-4.8.4-7.5 1.2l-4 .8a956.6 956.6 0 0 0-8.3 1.5c0 .5.7 1.5 1 1.5.4 0 .7.3 1.4 1.1.2.4.2.6 0 1s-.1.7.4 1.5c.8 1.1.8 2 0 2.3l-1.7 1c-.9.7-1.5.9-3.7 1.1-4 .4-5.3.4-6.5-.3l-1-.6-1.5.7c-4 2-4.3 4.6-.5 5 1 0 2.9.4 4.3.8 1.5.4 3.3.7 4 .7.7 0 1.4.1 1.6.3.5.4 6.3 1 7 .6a248.6 248.6 0 0 0 6.7-3l.5-.2a172.2 172.2 0 0 1 15.2-7.7c.6 0-1.2-1.3-2.2-1.5-1-.3-1.6-1.9-.8-2.5 2.4-2 3.3-2.3 5.9-1.7 1.7.4 2.7.4 4.2 0 .6-.3 1.2-.2 2.1 0l1.9.5c.3.1 1.2-.1 2-.5s2.2-.8 3-1c2-.6 6-2.6 7.2-3.7l1.8-2.2 1.4-2c.5-.6.5-.8.3-1.4-.8-2.3 1.2-3.3 4-2 1.3.8 4 3.4 6.6 6.8l3.6 4.3c1.7 2 1.8 2 3 2 1 .1 1.2.2 3 2.1 1.1 1.1 2 2.2 2 2.3 0 .2.5.9 1.2 1.6.9 1 1.3 1.3 2.3 1.5a6 6 0 0 1 2 .7l1.5 1 1.2.8c.3.3.5.3 1.1 0 1.3-.6 3.2-.5 4.6.3l1.3.7-.2-1.4c-.3-2.5 1.2-2.8 4.1-.7 1.3 1 2.6 1.6 3.8 2 1.9.5 2.9 1.3 2.6 2.1-.3.9-1 1.1-3 1.1H374l1 .8 1.4 1.2c.6.6 2.5 2 4.7 3.1 1.7 1 2 1 4.1 1h2.3l-.1-1zm19.2-5.8c-1.3-.2-2-1.6-1.2-2.4.4-.5 2.6-.4 3.3.1.7.5.8 1.8 0 2.2-.5.3-.9.3-2 .1zm-95-1.5c5-.3 7.9-1.4 10-3.6a364.2 364.2 0 0 1 3.3-3.8l2-2.4c1.5-1.6 1.7-2.3 1-3.2-.3-.5-.3-.5-1.2 0a41.8 41.8 0 0 0-6.5 2.8c-3.2 1.6-4 1.9-5 1.8-1 0-1 0-1.2.8-.2 1.6-1.5 3-5.2 5.8-2.2 1.7-2.5 2.3-1 2l3.8-.2zM261.1 182a67.1 67.1 0 0 1 5.8-.7c.4-.3 4.8-1.4 5.5-1.4a19 19 0 0 0 6.3-3l2-.7c3-1.3 4-1.3 5 .1.4.6.4.8.1 1.3-.2.4-.7 1-1.2 1.2l-.8.6 1.9-.2a34 34 0 0 0 6-1 58 58 0 0 1 4.3-.8c2.2-.4 3.1-.7 5.7-2 3.8-1.8 5.8-3 5.8-3.6 0-.2.1-.4.3-.4l.2-.4c0-.2.3-.5.5-.6.4-.1 2.8-1.9 4.7-3.5.5-.3 1.3-1.2 1.9-2a9.3 9.3 0 0 1 3.5-3.2 6 6 0 0 0 1.5-.9 5 5 0 0 1 1.7-.8 8 8 0 0 0 1.7-.6l1.5-.6c.5 0 1.1-.4 1.5-.8 1.4-1.4.5-4.3-4.5-13.3l-1.8-3.9c-2-5-5-10-6.7-11.1-1.1-.8-2.1-2.7-1.9-3.6.2-.9 1.3-1.8 2-1.8.6 0 .6 0 0-.7a6.9 6.9 0 0 1-1.6-3l.8-1.2c1.1-1.2 2-1.2 5 .1 2.6 1.1 4 2.2 7 5 3 2.9 6.7 8.3 9.6 13.9 1.6 3 2 3.7 2.3 4a22.7 22.7 0 0 1 2.7 8.2v1.4h-1c-.4 0-1 0-1.3-.2a7.1 7.1 0 0 1-1.5-3l-.3-.9a23 23 0 0 1-.5-1.2c-.6-1.3-1.4-3-1.7-3l-1-2a46.7 46.7 0 0 0-7.8-12.1 20.8 20.8 0 0 0-4.6-4.6c-2.1-1.4-3-1.6-4-1.2-.7.3-1.1 1-.6 1a29.7 29.7 0 0 1 10.1 15.3c.5.7.9 1.8 1 2.3 0 .5.3 1 .4 1 .1 0 .2.1.2.4 0 .2.1.6.3.8 0 .3.3.8.5 1.2l1.3 2.9c.3.3.7 1.5 1 2.5 1.1 3.1.7 2.9 5 3 4.5 0 4.8 0 5-1 .2-1.3 1.2-1.7 3.8-1.7 2.2 0 2.3 0 2.4-.7 0-.3 0-.7-.2-1-.2-.1-.3-1.2-.4-2.3-.1-1.8-.3-2.3-.9-3.2l-1.1-1.6-2.8-3.3a108 108 0 0 1-5.7-7 210.1 210.1 0 0 0-17.6-17.5c-.2-.6-.9-1.5-1.5-2.2l-2-2.5a36 36 0 0 0-3.6-5.2l-2.3-2.8a101.4 101.4 0 0 0-12.9-13.1l-2.9-2.6a11.3 11.3 0 0 0-3-2.3c-.4 0-.8-.2-.9-.4a22 22 0 0 0-5.3-2.5c-.3-.2-1.4-.6-2.4-.8-1-.2-2.6-.8-3.5-1.2a200.6 200.6 0 0 0-21.5-8l-2.5-.6c-2.2-.7-4.7-1.2-5.8-1.2-1 0-1.2.1-1.8 1.2-.5.7-.7 1.5-.7 2.3 0 .6-.3 2-.6 3-.4 1-.8 2.6-1 3.5l-.6 2.5c-.5 1-.7 2.6-.5 2.6l.6-.5c.3-.5.6-.6 1.1-.4.5.1.8.4 1.1 1.5.3.7.4 1.4.3 1.5-.2.3.1 1.8 1 4.8.5 2.1.5 2.2 0 3-.6 1.3-2.5 3-3 3-1 .1-2.5.7-3.2 1.5-.4.4-.8.7-1 .7-.5 0-2.1 1.2-2.1 1.6 0 .3 0 .3.2.1a19 19 0 0 1 5.7-1.4c1 0 1.2-.4 1.2-1.4 0-.9 2-1.5 5.4-1.7 4.3-.2 5.6.3 6 2.5.1.9 0 1.3-.2 1.7-.6.7-1.8.4-2.4-.6-.6-1-1.4-1.3-4-1.3-2.2 0-2.4 0-2.4.5 0 .9.6 1.8 1.3 2.1.5.2 1 .5 1.1.7.5.6.9.5 1.2-.4.6-1.3 1.9-1.4 2.4 0 .2.3.5 1.6.7 2.8l.7 2.7c.4.9.3 2-.2 4.1-.3 1-.5 2-.4 2.2 0 .2.6.4 1.2.4 1.9 0 2.2 1.6 1 4.8l-1 3c-.2 1-.7 2.6-1.2 3.6-1.3 2.7-1.5 3.3-1.5 3.9 0 .4 1.1 1.6 1.6 1.6.2 0 .7-.7 2-2.6.3-.3 1-1.6 1.7-2.9 1.4-2.6 1.8-3 2.6-2.3.8.7.6 3-.5 4.2-.4.4-.6.7-1.4 2.3l-1.3 1.7-1.1 1.8a9 9 0 0 1-1.1 1.6c-.4.4-.7 1.1-.8 1.5-.2.8-1.4 2.4-1.8 2.4-.5 0-2 1.6-2 2.2 0 .3.2.8.5 1 .6.7 1.6 3.2 1.6 4l.5 2.1c1.6 5.1 1.7 5.5 1.5 6.6 0 .7-.4 1.4-.9 1.9-1 1-1.5 2.7-1.7 4.8-.2 1.4-.1 1.7.4 2.5.7 1 1.2 3.6 1.5 8a21.3 21.3 0 0 0 1.9 7.5l.5 1.5c0 .7 2.1 1.5 3.2 1.4l2.5-.4zm1.8-11.9c-.8-.9 0-1.6 2.3-2.3 3.3-1 4-1 4.7-.4.8.8.7 1.3-.4 2-2 1.2-5.7 1.6-6.6.7zm18.5-3c-.4-.4-.4-1.2 0-1.6l1.5-.9c5-2.4 5.5-2.5 6.2-1.8 1 1 .3 1.8-2.8 3.3-2.7 1.4-4.3 1.7-5 1zm-16.7-6.8c-.4-.3-.6-.6-.6-1.1 0-1 .8-1.3 4-1.4l3.3-.4c.4-.2 1.3-.3 1.9-.3.8 0 1.1.1 1.3.5.4 1.3-1 2-4.7 2.4l-3.5.4c-.6.1-1.4 0-1.7-.1zm-.2-7.8-3-2.7c-2.2-2.4-2.6-3.2-1.7-4 .8-.5 1.4-.4 2.5.6a4 4 0 0 0 2.3 1c1.6.3 5-.2 6-.9.3-.3.9-.5 1.2-.5.3 0 .6-.1.7-.3l1.1-.2 1.2.2c.3.5 1.5.4 2.2-.2 1-.7 2.7-1.6 3-1.6l2-1 2-1.1c.3 0 .4-.6.2-1.3-.4-.7 0-1.4.8-1.4.3 0 .6-.3.8-.8.8-2 2.5-2.8 3.9-2 .9.6 1 1.3.8 3-.2 1.6-1 3.5-1.5 3.5-.2 0-.5.3-.8.7-.4.4-.8.7-1 .7l-1 .4-1.6.9-1.9 1.1-1.4.7-1.2.7-2.2 1-4.4 2c-3.1 1.7-3.2 1.7-5.7 1.8-2 0-2.7 0-3.3-.3zm-5.3-9c-.4-.6-.4-.8 0-1.6a7 7 0 0 1 1.3-2c.5-.6.8-1 .6-1-.7-.1-1.6 0-1.9.3l-.6.2c-.2 0-.7.3-1.1.7-1.8 1.9-3.9 1.7-4.4-.3-.2-.9.6-1.8 2.2-2.5 1.1-.6 3-2.3 3-2.8 0-.2.2-.5.5-.8l.6-.7 1.3-2.2c1.2-1.8 2.2-3.7 3.5-6.5.5-1 1.2-1.4 2.2-1 .6.2.6.4.6 1.5 0 .8 0 1.4-.2 1.4s-.3.2-.3.5 0 .5-.2.6l-1 1.3c-.4.8-1.1 1.8-1.6 2.3-.5.5-.9 1-.9 1.3 0 .2-.5.8-1 1.5-.6.6-1.1 1.4-1.1 1.7 0 .6 0 .6 1.1.4a19.6 19.6 0 0 0 6.5-3.3l3-2.2c1.6-1.1 2.7-1.8 3.1-1.8.8 0 1.6.8 1.6 1.3s-2.3 2.7-2.7 2.7l-.5.2a36 36 0 0 1-4.4 3l-1.5 1.2-1.6 1.5c-.8.7-2 2.3-2 2.5l1-.3 1-.4.4-.2c0-.2.4-.4.9-.6l2.6-1.5a89.2 89.2 0 0 1 4.7-3c.2-.3.8-.7 1.3-1l1.8-1c2-1.5 3.4-1.3 3.2.6 0 .9-.2 1-1.3 1.6l-1.5 1-1 .6c-.4 0-1.3.6-2 1.2s-1.7 1.3-2.2 1.4l-3 1.5c-1 .7-2 1.2-2.1 1.2l-1 .5c-.8.5-1.3.8-2.8 1.4-.5.1-1.4.3-2.2.3-1.3 0-1.5-.1-1.9-.7zm36.9-21.4c-1.2-1.1-.9-2.3.8-2.8.7-.3 1-.5 1-.8 0-.6-2.6-3.9-6-7.5-2.6-2.8-3.4-4.3-3.4-6 0-1.3.5-1.9 1.7-1.9.7 0 1 .3 1.8 1.2a91 91 0 0 0 1.9 2c.5.5 1 1.4 1.4 2 .3.6.8 1.3 1.2 1.7.4.3.8 1 1 1.4.3.5.7 1.1 1 1.3.4.3 1 1 1.3 1.7l1 1.7c.7.7 1.2 2.3 1.2 3.8 0 1-.1 1.3-1 2-.7.5-1.3.7-2.6.8-1.4 0-1.7 0-2.3-.6zm-37.5-8.4c-.5-.6-.3-2 .5-3.6 1-2 1.3-2.2 1.9-2.2 1.2 0 1.2 1.8-.1 4.2-1 2-1.6 2.3-2.3 1.6zm21.2 66.5h-.8c-.2 0-.1.2.3.2.5 0 .7 0 .5-.2zm3-.7c.4-.4.4-.4 0-.4l-1.6.4-1 .4h1c.8 0 1.4-.2 1.6-.4zm-114.6-8.9a38.5 38.5 0 0 0 7-1.7 413.3 413.3 0 0 0 14.2-4c3-1 3.6-1.5 3.4-3-.3-2.1-.7-3.8-1-4-.3-.3-.8.4-1.2 1.7-.6 1.8-2.3 2.3-3.7 1.1-1.3-1-1.9-.8-1.9.9 0 1.2-.6 1.7-1.8 1.7-1 0-1.3-.1-2-.9-.8-1-1.1-.9-1.9.8-.4 1-.5 1-1.7 1-1.4 0-2.6-.4-3.5-1.3-.7-.7-1.1-.5-1.2.9-.2 2-1.4 2.7-2.7 1.3-.3-.5-.9-.8-1.1-.8-.5 0-1 .7-1 1.6 0 .7-1.1 1.8-1.8 1.8-.3 0-1-.5-1.7-1.2l-1.2-1.2-.8.7c-1.8 2-2 2.2-1.6 3.1.8 2.1 1.6 2.7 3.2 2.3l4-.8zm-58.4-1.5h-.5c-.2.1-.2.2.2.2.2 0 .4 0 .3-.2zm49.3-7.6c.8-1 3.4-1.6 3.8-1 .4.6 1.5.3 2.4-.6 1-1 2.2-1.2 3.2-.4 1 .8 1.3.7 2.7-.7 1.3-1.3 2.2-1.5 3.4-.7.7.4.7.4 2.1-1 1-1 1.7-1.6 2.2-1.6l1.5-.1c.6 0 1-.3 1.4-.7 1-1.2 2.7-1.5 4.7-.9.3.1.7 0 1-.3.8-.8 1.6-1.1 2.4-1.1.8 0 1-.4.5-1.9l-.4-1.8c0-1.2-.6-1.6-2.7-1.5-2.2.1-4.4.5-6 1.1l-3.2.8c-1 .2-2.7.8-3.5 1.2a26 26 0 0 1-4.5 1.6l-2.2.6a105.5 105.5 0 0 0-8.2 2.6c-.7.2-2 .6-2.7 1-1.4.4-1.5.5-1.6 1.4 0 1.1 0 1.3 1.6 3 1.2 1.5 1.6 1.6 2.1 1zm-20.5-5.2c.6-.3 1.2-.6 1.3-.8.2-.3 0-.3-.6 0l-1.3.6c-.5.2-.9.5-.9.6 0 .3.2.2 1.5-.4zm59.8-1.3a7 7 0 0 1 1.7-.6l2.2-.8 1.8-.8-.5-.2c-.4 0-.9.1-1 .3 0 .1-.4.3-.8.3-.3 0-.7 0-.8.2 0 .2-.3.3-.5.3a93.8 93.8 0 0 1-4.3 1.9c0 .2 1.3-.1 2.2-.6zm18.5-2c1.5-1 2.7-1.3 4.1-.9.3.1.4-.2.4-1.6 0-1.7 0-1.7-.7-1.6a78.3 78.3 0 0 1-6.8 2.5c-.7.2-.7.5 0 1.7.7 1.1 1.2 1 3-.1zm-19.3-1.4 2.1-.8a10 10 0 0 1 1.9-.5c1.5-.3 2.9-.8 4.7-1.6 1.1-.6 1.2-.7 1.1-1.6 0-.6.1-1 .4-1 1-.6 3.2-1.1 4.2-1.1s2.6.6 2.6 1c0 .3 1.7 1.9 2 1.9.2 0 .6-.3.9-.7.4-.7.7-.7 2.4-.8 1.7 0 1.9 0 2.6-.9 1.7-1.8 4.2-.6 2.9 1.4-.3.5-.4 1-.3 1.7l.2 1.2.5-.8c.6-1 2.4-1.7 4-1.7a6 6 0 0 0 3.6-1c.6-.5.6-.5-.8-.6-3.4-.4-6-1.1-7.3-2a2 2 0 0 0-1.3-.3c-.4.1-1.3 0-2-.2l-2-.4-2-.4c-1-.4-1.4-.4-1.8-.1-.8.5-2 .3-3-.4-1.3-.8-1.5-.8-2.3 0-.9 1-1.4 1.2-5.8 2.5a122 122 0 0 0-8.2 2.8c-1.6.5-3.4 1.9-3.4 2.4 0 .2.2 1 .6 1.6.6 1.4.7 1.4 3.5.4zm-52-.5 1-.5c1.6-.7 2.2-1 2.2-1.5 0-.2.1-.5.3-.5.2 0 .2 0 0-.1-.2 0-.8 0-1.3.4l-3.7 2c-.3.3-.3.4.3.4a3 3 0 0 0 1.1-.2zm68.5-2.4c0-.2-.3-.3-.9-.3-.9 0-1.2.4-.8.8.2.3 1.5-.1 1.7-.5zm23.7-6.1 2.1-.8 2-.8c1.8-.7 3.2-2.4 3.2-4 0-1.7-.8-2.2-2.3-1.5-.5.2-.6.5-.6 1.1 0 .5-.2 1-.4 1l-1 1.2c-.4.8-.8 1.1-1.8 1.5-2.1.7-7 .5-8.7-.4-2.3-1.3-4.3-3.6-4-4.6.4-.7 1.2-.4 1.8.5.9 1.4 3.3 2.8 4.8 2.8h1.2l-1-.5c-.6-.2-1-.7-1.2-1-.2-1 .1-1.2 1.8-1h1.6c.1-.1 0-.5-.4-.8-.5-.3-.6-.7-.5-1 .2-.5.9-.6 2.7-.1 1.9.4 4.4-.1 5.4-1l.7-1c0-.3-.5-.8-1-1.3-.6-.6-1-1.2-1-1.4 0-.8.4-1.4 1.2-1.6 1.8-.4 2.2-2.3 1.3-5.9-.3-.9-.6-2.3-.7-3.2-.1-1.5 0-1.7.5-2.4 1.2-1.2 2.1-3.2 2.1-4.4 0-1-.2-1.5-1.3-3a31.1 31.1 0 0 0-3-4c-1-1.6-1.4-1.8-2.4-1.5l-1.4.4c-.6.1-4 4-5.2 5.8l-2.9 5c-.5 1-.6 2.3-.2 2.6.5.3.3 1.7-.5 3.4a11 11 0 0 0-.8 2c0 .1.5.6 1.1 1 1 .7 1.1.9 1.1 1.8 0 1 0 1.1-.8 1.4l-1.3.9c-.5.4-.8.5-2.4.4-2-.2-3.7-.6-4.5-1.2-.6-.4-4.1-.4-5.8 0-2 .4-5 1.4-5.5 1.8-.7.6-.6 1.3.4 1.4 1.7.4 2.5 1 3.2 3 1.6 4 2 4.5 3.2 5.3 1.2.7 1.6.7 5.8.7h2.7l.8.8c.7.8 1 1 2.5 1.1 1 .1 2.4.5 3.3 1 1.8.8 4 1 6.1.5zm-30.1-2.3c.8-.4 1.4-.8 1.4-1l.6-.8c.6-.6.6-.7.3-1.7-.2-.5-.4-1.8-.4-2.7 0-2-.2-2.3-1.2-2.2-.4.1-.7-.1-1-.7-.4-.6-.7-.8-1.2-.8-1 0-2.5.8-2.8 1.6l-1.3 1.4c-.8.7-1 1.1-1.3 2.3-.1.8-.2 1.8 0 2.2.3 1.6 2.4 3 4.6 3 .5 0 1.5-.2 2.3-.6zm-44.2-2.3c.1-.1 0-.2-.2-.2-.3 0-.5.2-.5.5 0 .2 0 .3.2.2l.5-.5zm180-3.6c.8-1.3 2.1-5 2.1-6.2v-.7l-.6.7c-1 1-3.2 6.8-3 7.3.4.4.7.1 1.5-1zm8.1-.8.9-2.8c1-2.1.8-2.3-2-2-.3 0-.4.7-.4 2.5 0 3.8.9 5 1.5 2.3zm-12.3-2.3c.5-.6 1.1-1.9 2-4.1.7-2 1-3.5.6-4-.2-.3-.4-.2-1 .4a4 4 0 0 0-.7 1.5l-.7 2-.6 2.5c0 .7-.2 1.4-.3 1.7-.2.6.2.6.7 0zM364 129c1.1-2.3 1.5-3.3 1.3-3.9-.2-.5-1.1.7-1.5 1.9-.1.5-.5 1.3-.9 1.7-.4.4-.6 1-.6 1.6 0 1.3.5.9 1.7-1.3zm-119 .3c-.4-.3-.7.6-.4 1 .3.3.4.3.4-.2v-.8zm108.3-2.5c0-.3-.3-.8-.6-1-.5-.3-.5-.3-.3.2l.3 1c.1.8.6.6.6-.2zm-16-2.8c.3-.7.4-1.5.3-2.7 0-1.7 0-1.7-.8-1.8-1-.1-1.2.5-.6 2.1.3.9.4 1.7.3 2.4-.2 1.3.2 1.3.8 0zm-5-1.8c0-.6 0-.6-.3-.4-.2.2-.4.7-.4 1 0 .6 0 .6.4.4.2-.2.4-.7.4-1zm-164.6 0c.6-.6.5-2-.1-2-1 0-1.5 1.3-.8 2 .4.5.4.5.9 0zm81.1-3.7c.4-1.3.5-1.8.2-2.1-.2-.4-.2-.8 0-1.4.2-1-.2-2.7-.6-2.7-.6 0-1 2.2-1 5.8 0 3.4 0 3.6.5 2.8l1-2.4zm-3.2-.7c-.3-.3-.6 1-.4 1.4.2.3.3.1.4-.4.2-.4.1-.9 0-1zm-30.7-5.2 1.5-.6c.9 0 3.7-1.6 4.3-2.4.5-.8.5-.9.2-1.4-.5-.7-.6-1.6-.3-2.3.2-.4 0-.5-1.2-.5-.8 0-1.6-.1-2-.4-.6-.4-.7-.4-1.6.4-1.2 1-2.2 1-3 .1-.5-.7-.5-.7-1.6-.2-1 .4-1.2.4-1.8 0a2 2 0 0 1-.8-1c0-.3-.3-.5-.9-.5-1.2 0-1.8-.4-1.8-1.2 0-.9.6-1.2 2.7-1.8 1.5-.5 1.4-.5 2.3.2.7.7 2.4 1 4 1a3 3 0 0 1 1.5.4c.4.2.9.3 1.4.2l1.3.1c.3.2 1 .2 2.6-.1 2-.4 2.2-.4 2.9 0 .9.6.9 1.7-.2 2.7l-.8.8 1.2.3c1.4.3 1.6.2 2-.7.5-1 1.7-2.1 2.6-2.1 1 0 1.3-.3 1.5-1l.5-2.2c.3-1 .4-2.5.4-4.7 0-3 0-3.3 1.1-6.2.8-2.3 1-3 .7-3.2l-1.9-.2c-4.3-.1-4.8-.2-8-1.9-.8-.5-1.4-.6-4.5-.6h-3.6l-.4-.7c-.4-.7-.4-.8.2-1.4.4-.4 1-.7 2.3-.9 1-.1 1.8-.3 1.8-.4l.3-1.2.1-1h-1l-3 .8c-3 .8-4.1.8-4.7.3-.3-.3-.5-.6-.5-.8 0-.3-.4-.4-1.3-.4-1.2 0-1.3 0-1.5-.7-.1-.4 0-.8.2-1 .6-.6 5.2-1.5 7.9-1.6 1.9 0 2.4 0 3.1.6.8.5 1.2.6 3.3.4 1.4 0 2.9-.2 3.4-.3a23 23 0 0 1 3.8-.3c2.5 0 2.8 0 2.5-.4-1-.9-3.5-1.4-7.1-1.5-5.1 0-7-.3-7.6-1.1-.8-1-.6-1.7.6-2 2.2-.3 5.9-.1 9.7.7l3.5.6c.8.2 1.9.4 2.3.7.8.3 1 .3 2.7-.2l2.7-.9.8-.3-1.1-.3c-.6-.2-1.5-.3-2-.3-.6 0-1.9-.3-3-.7-1-.4-2.5-.9-3.2-1-1.5-.5-5-.6-5.7-.2-.2.1-2 .4-4 .5-3.6.4-5.1.6-8 1.3-1.6.4-1.6.3-2.1-.2-.5-.6-.4-.6.1-1.2.8-.8 2.7-1.3 5.6-1.6 1.3 0 2.6-.2 2.9-.3.5-.2.5-.3-.4-.9-.4-.4-1.7-1.2-2.7-1.8-1-.5-2-1.2-2.2-1.4-.2-.3-1.1-.9-2-1.4-2-1-2.5-1-2.6.2 0 .4-.3 1.5-.7 2.6-.9 2.1-1 3.7-.5 3.7.2 0 .7.2 1 .5.4.4.5.5.2 1s-1 1-3.1 1.7c-3.2 1-3 1-5.3 2.7-1.5 1.3-1.6 1.3-1.2 2 .5.8.5 1.3-.2 1.7A71.2 71.2 0 0 1 189 77c-.9-.1-1 0-.6.3.2.3.5.4.7.4.2 0 .8.5 1.4 1 .8.6 1.1 1.2 1.1 1.6 0 .6 0 .7-.7.6l-1.2-.4c-.8-.3-.5.4.6 1.6 1 1 1.3 1.2 2.1 1.2a6 6 0 0 1 2.4.6l2.4.9c2.2.4 3.2 1.3 3.2 2.9 0 1-.4 1.6-2 3.2-1 1-1.7 1.4-2.1 1.4-.8 0-1 .5-.5 1.4.4.7.3.8 0 1.2-.7.4-1.1.4-1.8 0-.7-.3-.7.3 0 1.5.3.5.5 1.3.5 1.8 0 2 2 6 3.8 7.9.7.7 2.7 1.7 4 2 .4 0 .9.5 1.4 1.3.7 1.2 1.3 1.6 3.1 2.2l1.6.8 1.2.8c1 .4 4 .1 5.3-.5zm33-4.9c.1-.8 0-1-.3-1.3-.2-.1-.4-.5-.4-1.1 0-.9 0-.9-1.5-1l-2-.5c-.7-.3-.6.4 0 1 1 .8 2 2.5 2.4 3.6.6 1.7 1.4 1.4 1.8-.7zm-11.4-11c.6-.3 1.4-.5 1.7-.5.3 0 .6-.2.7-.3l1.2-.8a5 5 0 0 0 1.3-.8c.1-.2-.2-1.1-.7-2.2-.5-1-1.2-2.7-1.5-3.8-.4-1.9-.4-2 0-3.6.3-1.3.3-1.6 0-1.8l-.5-.2c-.2 0-1.3 1.4-1.3 1.7l-.5 1.3-.8 2.3-.8 2.5c-.9 2.5-1 4.7-.5 6 .3.9.4.9 1.7.2zm-43.4-2.7c0-.2-.1-.1-.1.2 0 .2 0 .4.1.3v-.5zm.2-2.3c.5-.5.5-.6.2-1a16.5 16.5 0 0 1-1.7-2.4 7 7 0 0 0-2-2.2c-.6-.4-.8-.7-.7-1.1 0-.4-.3-1-1.3-2-1.4-1.6-1.8-2.5-1.4-3.4.2-.7 0-1-1.2-1.5-1-.4-2.3-.6-2.3-.3a17.4 17.4 0 0 0 1.6 4.3c0 .2.2 1 .6 1.6.5 1 .6 1.1 1.4 1 .6-.1 1 0 1.5.4.4.3.7.7.7.8 0 .2.3.7.7 1.1l1.3 2.4c.3 1 .9 2.2 1.2 2.8.5 1 .7 1.2.7.7 0-.3.4-.8.7-1.2zm43.4-10.6c.9-1 .7-1.5-.8-1.8-2-.6-2.7-.4-3 .5-.4.9-.4.9.2 1l1.7.6c1.2.6 1.1.6 2-.3zm-6.2-.6c0-.5-1.1-.7-2.8-.7-1.6 0-1.4.4.2.7 2 .4 2.6.4 2.6 0zm10.2-4.4c.3 0 .4-.2.4-.8-.1-.8-.5-1-2.8-.7-1.2.1-1.7.3-1.7.6 0 .2.1.3.3.3l1.2.7c.9.6 1 .6 1.5.2.3-.2.8-.3 1-.3zm117.9 128.2c-1-.5-1-1.8 0-2.2 1.6-.8 3.5.7 2.7 2-.3.5-1.8.7-2.7.2zM39 165.1c-.4-.1-2.6-.3-5-.3-4.2 0-4.4 0-9.7-1.4-2.2-.6-3.3-1.4-3.3-2.3 0-1.7.7-1.7 7.6-.2 1.6.3 3.6 0 3.4-.5-.6-1.4 3.4-2 11-1.8 7.6.2 9 .5 9 1.7 0 .8-1 1.3-2.2 1.3h-1.2l.9.5c.9.4 1.1 1.3.5 1.8-.2.2-1.5.4-3 .5-1.4 0-3.2.2-4 .4-2.6.4-3.4.5-4 .3zm29.5-.2s-.8-.2-1.7-.2a49 49 0 0 1-7.5-1c-1-.3-1.2-1.2-.5-2 .5-.5.8-.5 6-.4 5.2 0 5.7 0 7.1.6 1.3.5 1.6.8 1.7 1.3.1 1.1-.6 1.5-3 1.7a11 11 0 0 1-2.1 0zm11.7-2.1c-1.1-1.3-.4-2.2 2.3-3.2 3.2-1.2 6.6-1.5 7.4-.7.2.3.4.7.4 1 0 .5-1 1.4-1.8 1.6l-2.8.8c-1.2.4-2.8.7-3.6.8-1.2.1-1.5 0-2-.3zm12-2.5c-.4-1-.1-1.5 1.3-2.5 2.5-1.8 4.7-1.9 4.7-.2 0 .6-.2 1-.7 1.3l-1.7 1a6 6 0 0 1-2.2.9c-1 0-1.2 0-1.4-.5zm-76.5-2.5c-.4-.5.5-1.6 1.5-1.8 3.5-.8 4-.8 4 0s-.8 1.3-2.5 1.8c-2 .5-2.6.5-3 0zm47.2-.2a5 5 0 0 1-1-.5l-5.2-.3c-5.4 0-6.4-.2-6.7-1.4-.2-.8-1-.9-3.1-.1-1.8.7-2.4.5-2.4-.5s1.4-1.9 3.9-2.2l3-.5c2-.3 5.3.3 8 1.4l2.5 1 5.1.1c7.3.2 8.2.4 8.2 1.6 0 1.1-.5 1.2-5 1.1-3.4 0-4.6 0-5 .2-.8.5-1.2.5-2.3.1zm-30.5-1.5c-.4-.2-2.2-.4-4.1-.6-4-.3-6.8-.8-7-1.3-.5-.6-.4-1 .3-1.5.6-.3.9-.3 2 0l4.8.2c3 0 3.5 0 5.5.7a8 8 0 0 0 4 .7c1.6-.1 1.9 0 2 .3.1.3 0 .7-.4 1-.5.5-.9.6-3.5.7l-3.6-.2zm340-1c-.5-.5-.4-1.8.1-2.3.6-.4 3.6-1.5 4.5-1.5l2-.5c1.6-.6 2.6-.7 3.4-.3.7.4.7 1.6 0 2.3-.7.6-2.7 1.4-3.6 1.4-.4 0-1.5.3-2.6.7-2.3.7-3.1.8-3.7.2zm-307.8-2c-.7-.3-.6-1.2 0-1.6.6-.4.6-.5.2-.5-2 0-2.8-.2-3.9-.6l-3-.6a8 8 0 0 1-2.7-.6c-1.1-.7-1.9-.7-3.8.2-1.9.9-3 1-4.6.6-.8-.2-1.2-.2-1.7.1-.7.4-3.4 1-4.4 1-.3 0-1-.3-1.3-.7-.5-.5-.6-.8-.5-1.3.2-.7.5-.9 3-1.7 2.7-.9 4.6-1.3 9.1-2 2.6-.5 3.4-.5 7.3.1l4.5.5c2.7.2 2.8.2 3.3-.4.5-.6 2.8-2 3.7-2.3l2.3-.8c2.3-.9 6-1.2 6.5-.6.3.3.3.7.2 1.3-.2 1-.2 1.8 0 2l1.2-.2c1.8-.5 6.1-.9 6.5-.5l.2.8c0 .8-1 1.7-2 2a38.3 38.3 0 0 0-6.2 1.7c-.6.4-1.8.8-4.2 1.2-2.6.6-4.4 1.1-6.6 2.2-2.3 1.1-2.4 1.1-3.1.7zm8.9-6c1.7-.6 3.3-1 3.5-1 .6 0 .4-.5-.3-.7-1.1-.3-1.8-.2-4 .9l-2.5 1c-.2 0-.3.2-.3.4 0 .6 0 .6 3.6-.6zm288 4.6c-1.3-1-.8-3.1 1.3-4.8 1.5-1.3 3.4-3.1 3.7-3.7.1-.3.4-1.1.5-1.9.2-.7.6-1.5.8-1.8l1.2-2 1.4-2.2c.3-.4.6-.8.6-1l1.3-1.8c1.2-1.5 1.3-1.7 1.5-3.7.1-1.6 0-2.3-.3-3-.5-1.3-.5-3.3 0-4 .4-.6.6-.6 1.3-.5.6.1 1 0 1.2-.3.5-.6 1.3-.5 1.7.2.3.4 1.8 1.3 2.3 1.3l.4-.6c.1-.3.6-.7 1-1 .6-.1 1.1-.6 1.4-1.2.9-1.8 2.4-2.3 3.6-1 .9.9 1.8 3.7 1.8 5.4a3 3 0 0 1-.6 2c-.4.4-.6 1.2-.7 2.5-.2 1.8-.3 2-1.5 2.8l-.6.9c-.1.4-.5.8-.8 1-.5.3-.7.2-1.2-.4-.3-.3-.7-1-.8-1.4-.2-1.1-.5-1-.9.3-.2.6-.6 1.4-1 1.9-2.6 3.2-2.5 3-2.9 5.2a5 5 0 0 1-.8 1.8l-1.4 2.4c-1 2-1.5 2.4-2.4 2.4-.8 0-1.3-.5-2-1.7l-.3-.8-.4 1c-.2.6-1.2 2-2.2 3-1 1-2 2.1-2.3 2.6-1 1.3-2.3 2.5-2.8 2.5l-1-.4zm11.6-12.8c0-.3 0-.3-.4.1a2 2 0 0 0-.3 1c0 .2 0 .2.3-.2.3-.3.4-.7.4-.9zm2.9-3.9 1.8-2.3c.9-1 1.7-3.1 1.7-4.5v-.8l-.4.8-2 2.5c-1.3 1.3-1.6 1.9-1.6 2.5 0 .6-.2 1.2-.8 1.8-.4.5-.8 1.1-.8 1.4 0 .3 0 .7-.2.7-.2.1-.3.3-.3.5 0 .4 1.5-1 2.6-2.6zm8-6.8c0-.7-.3-1.2-.7-1.2-.2 0-.4.3-.4.8 0 .6.1.7.6.7.2 0 .5-.1.5-.3zm5.1 22.7.1-1c.2-.2.3-.6.2-.9-.3-1 .6-1.7 2.5-2l3-.4c1.6-.3 2.3-.6 3.8-1.9 1.8-1.5 4.4-5.5 4-6a25 25 0 0 0-5.2 4.3c-2.6 2.5-3.8 3.1-5 2.9-1.1-.2-3.6.7-5.9 2-1.8 1-2.5 1.2-2.9.5-.1-.3-.2-.8-.1-1 .4-1.4 6.4-4.3 9.6-4.7 1.3-.2 1.4-.3 6.2-5.3a39.3 39.3 0 0 0 6.6-7.5c.5-.7.5-1.1.5-3 0-1.3 0-2.5-.2-2.6l-.8-.4c-.4 0-1.2-.4-1.9-.7l-1.3-.5c-.6 0-.3 1.3.3 1.7.3.2.9 1 1.2 1.6.8 1.4.6 3-.4 5.5-1 2.1-2 3.2-2.8 2.9-.5-.3-.7-2-.2-2.3.4-.3.3-1.3-.4-2.8l-.7-1.8c0-.5-.8-1.3-1.3-1.3-.2 0-.5.2-.7.6-.1.3-.5.6-.8.6-.7.1-.7 0-.7 4.8a10 10 0 0 1-.4 3l-.9.2c-.9-.1-2.4-3.2-2.3-5 0-3.7 0-3.6-1-6-1.2-2.5-1.7-4.6-1.1-5.6.2-.6.4-.6 1.5-.5 1.5.2 2.7 1.3 3.3 3 .3 1.2.5 1.3 1.1 1.3.8 0 .8 0 .8-1.4 0-2 .5-2.3 2.8-2 1.8.1 4.1.8 4.8 1.3.2.2 1.2.6 2.3 1 2.7.8 3.1 1.2 3.3 2.8l.3 2.7v2l-.7 1.4c-.5 1.6-2.1 3.6-3.6 4.7-1.6 1.1-1.8 1.5-.5 1.3.5-.2 1.4-.3 2.2-.4 1.6-.2 2-.4 2-1.2 0-1 .4-2 1.4-3.2.7-.9 1-1.4 1-2.5 0-1.2.2-1.4.8-1.8.6-.4.7-.4 2 .2 1.2.6 1.2.7 1.3 1.8v1.1l.7-.8c.8-1.2 2-1.4 2.8-.4.6.8.7 1.6.2 3.1-.2.8-.4 1-1 1.2-.5 0-.9.3-1 .4-.7 2.8-1.1 3.6-1.9 3.6-.2 0-.6-.1-.7-.3-.4-.4-.5-2-.1-2.2l.3-.6c0-1.6-1.7 0-2.1 2l-.6 1.7c-.3.6-1.8 1.3-2.8 1.3l-1 .2a2 2 0 0 1-1 .4c-.4 0-.6.2-.7.7 0 .3-.3 1-.6 1.5-.7 1.2-.6 1.5.2 1.2a7 7 0 0 1 2-.3c2 0 2.7 1.2 1.4 2.8-.7 1-2.1 2-2.7 2-.2 0-.5-.5-.8-1l-.6-1.5-.3-1v-.5l-.7.5-1.6 1.3c-.8.7-.9.8-.6 1.4l1 1.2c.8.8.8 1.4 0 1.6-1 .2-1.9 0-2.2-.7-.5-1-.8-1.1-1.8-.4a8 8 0 0 1-2.1 1c-.6 0-1.6.4-2.3.6-1.3.5-3.1.9-5 1-1.2.2-1.3.2-1.5-.5zm26.8-19.8-.1.4c0 .3 0 .5.1.3v-.7zM27.6 148.8c-.5-.5-.1-1.4.7-1.8 1.4-.7 4.3-1 5.6-.7 1.2.3 1.7 1 1 1.4-.2.2-1.5.5-2.7.8-4.2.7-4.3.7-4.6.3zM99 147c-.4-.5 0-1.6.9-2.3 1-.7 2.7-1 3.2-.5l.4.5a8 8 0 0 1-1.7 2.3c-.7.5-2.3.6-2.8 0zm36.7-1.6c-.8-.4-1-1.4-.2-2 .5-.5 5-.8 5.7-.4 1.2.7 0 2.2-2.2 2.4-.8 0-1.7.2-2 .3-.3 0-.9 0-1.3-.3zm-39.3-.1-.3-1c0-.7.5-1.3 2.7-3 1.2-1 5.2-2.4 11.5-4 4.6-1.1 10.1-3 11.3-3.7 1-.6 2.8-2.5 2.8-2.9l1.5-1.7c1.5-1.5 2.1-1.7 3.3-.9.7.5.8.5 1.6.2 1-.4 2-.2 2.2.4 0 .2-.1.9-.4 1.5-.5 1.2-.4 1.8.6 2.4.6.4 1 .2 2-1l.9-1-.4-1.5-.6-1.8-.4-1.2c-.1-.7 0-1 .4-1.6.4-.6.7-.6 1.6-.5.6 0 1.8.4 2.8.7 1.6.6 1.7.8 2.5 2.1.9 1.8.8 2.6-.3 2.6a3 3 0 0 1-1.2-.2c-.4-.3-.5-.2-.5 1 0 .9.2 1.8.4 2.2l.4 1.1c0 1-.4 1.4-2 1.4-1 0-2.2.3-3.4.8l-3.7 1.2c-3.5 1-4.6 1.3-5.2 1.8-1 .7-2.2 1.3-3.5 1.6-.7.1-1.6.6-2 1a22 22 0 0 1-3.3 1.7c-1.9 1-2.8 1.2-4.3 1.4l-3 .3c-1.1.1-1.3 0-1.5-.3-.2-.7 1.6-2.4 3-3 .7-.1 1.6-.5 2-.8.7-.5.7-.5-1.5-.4a8 8 0 0 0-3 .4c-.4.2-1.7.5-2.9.7a15.8 15.8 0 0 0-7.5 3.1c-1 1-2 1.4-2.6.9zm37-4.9c-.7-.5-.6-1.4.3-1.9.7-.4 3.6-.2 4.1.3.6.4.4 1.2-.2 1.6-.8.6-3.3.6-4.1 0zM87.8 137c-.2-.2-.3-.7-.3-1.1 0-.9.6-1.6 2-2.2.5-.3 1.2-.9 1.5-1.4.4-.5 1-1.3 1.5-1.7l.9-.7-.6-.7c-.9-1.1-.7-1.8 1-3.3l3.3-3.2c2.2-2.1 3.3-2.5 4.3-1.5.3.3.6.8.6 1 0 .3.1.5.2.5l2.3-1.6c2.2-1.6 3.1-1.8 4.2-1.3.3.2.5.6.5 1 0 .5-.6 1-3 2.8a40.7 40.7 0 0 0-3.2 2.6c-.4.6 2.4-.1 5.5-1.4 2-.8 2.4-1.2 5.2-4 4.7-4.7 8.3-6.7 9.3-5.2.6.8.3 1.5-1.1 2.5a29 29 0 0 0-5.5 5.2c-.6.9-1.6 1.9-2.2 2.2-.6.4-1.2 1.1-1.8 2.2-.6 1.3-.9 1.6-2 2-.6.1-1.7.6-2.5 1-3.9 1.8-4.2 2-6.9 2-2.3 0-2.7 0-4.4.8-1 .5-2.4 1.3-3 1.8-2.7 1.9-5 2.5-5.8 1.7zm22.2-3.2c-.5-.5-.4-1.4.3-2a30.6 30.6 0 0 1 5.9-6.5c.3-.1 1-.3 1.7-.2 4.1.2 1.4 4.5-5.2 8.4-1.2.7-2.2.8-2.7.3zm-62.3-1.2c-.6-.6-.5-1.3.3-2l1-.5 1.1-.6c.5-.4 1.6-.9 2.4-1 2-.7 3.3-1.4 3.7-2 .6-1.2 1.8-1.6 5.8-1.8l3.8-.2.4.8.5.8 3.8-.1c3.1-.1 4 0 5 .3 1.3.5 2.2 1.3 2.2 2 0 1.3-3.7 3-8.2 3.7-4.2.7-6 .6-8-.5-1.3-.7-1.6-.8-2.4-.5l-1.8.5A25.6 25.6 0 0 1 49 133c-.6 0-1.2-.2-1.4-.5zm-23.1-.4c-.5-.5-.4-1.5.2-1.9.4-.2 1.6-.5 2.9-.6 1.2 0 3.4-.3 4.7-.5 3.3-.5 7-.5 7.4 0 .5.5-.2 1.2-1.3 1.3l-2 .4a57.2 57.2 0 0 1-10.8 1.5c-.5 0-1 0-1.1-.2zm17.7-4.1c-1.3-.4-1.3-1.9.1-2.7.8-.5 1.4-.5 6.3-.6 4.8 0 5.5 0 6 .4.4.5.4 1.3 0 1.6l-3.4.7c-3.4.6-8 .9-9 .6zm38.7-3.5c-2.1-.4-5-1.9-5.2-2.7-.2-.6.3-1.5.9-2 .3-.1.8-.1 1.6.1l2.9.8c2.5.8 3.9 1.7 3.9 2.7 0 .2-.2.5-.5.8-.6.6-1.6.7-3.6.3zm-37.7-2.3-1.3-.4c-.3 0-.7-.2-.8-.5-.4-.7.4-1 2.7-1.1 2.2 0 2.6.1 2.6.9 0 1-2.1 1.8-3.2 1.1zm46.8-1.9c-1.5-.4-2.2-1.1-2-2 .3-1 1.4-1.5 2.8-1.2l3 .2c3 0 4.7 1.6 3.4 3-.5.4-.9.5-3.3.4-1.5 0-3.2-.1-3.9-.4zm-60.5-2.7c-1.4-.6-.8-2.5 1-3.3 2.4-1 6.4-.4 6.8 1.1.2 1-.4 1.5-2.7 1.7-1.2.1-2.6.3-3.2.5-1.2.3-1.1.3-1.9 0zm115.1-2.8c-.9-.7-1.2-2.7-.4-3.3.8-.7 1.5-.8 3.3-.5 1.3.2 1.8.4 2.3 1 1 1.2.6 2.1-1.6 2.7-1.4.3-3.1.3-3.6 0zm-108.5-1.5c0-.6 1-1.8 1.4-1.8l.8-.5c.7-.5 5.2-2.7 7.7-3.6 2.6-1 3.6-1 4-.6.6.8.1 1.7-1.4 2.5-1.5 1-5.4 2.5-6 2.5-.5 0-2.3.6-4.4 1.6-1.5.7-2.1.7-2.1-.1zm338 0c-1.6-.3-4.2-1.5-5.3-2.4-1.7-1.3-2.5-3.2-1.6-3.9.6-.5 1.4-.1 2.7 1 1.2 1.3 4 2.7 4.8 2.7.7 0 2.1 1.4 2.1 2 0 .2-.3.5-.6.7-.8.3-.7.3-2 0zM1 113c-.3 0-.7-.3-.8-.5-.3-.6 0-1.6.6-1.8.2-.1.4-.3.4-.5 0-.6 1.2-1.5 2.3-1.8.6-.2 2.6-.3 4.6-.4h4c.5-.1 4.2.4 4.7.6.6.2.2 1.2-.6 1.7-.6.4-1.7.5-4.8.7-3.7.1-4 .2-4.5.8l-1 .8c-.7.3-4 .6-4.9.4zm359.4-3.7c-.3 0-.6-.2-.8-.4l-.7-.2c-.3 0-1.6-.5-3-1.2a44.2 44.2 0 0 0-9.3-3.3c-1.7-.4-2.2-.6-2.2-1.3 0-1 .7-1.2 3-.9 3.9.6 4.2.7 6.5 1.7l2.3 1c.2 0 1.3.7 3 2l1.4.6c.9.2 1.6 1 1.4 1.5-.1.4-.8.6-1.6.5zm34-.2a32 32 0 0 0-6-1 16 16 0 0 1-3.5-.7c-.5-.3-.7-1.2-.4-1.7.4-.5 1.8-.9 2.9-.7.6.1 2.7.4 4.6.5 4.7.5 5.9.8 6.2 1.7.2.6.2.8-.4 1.4-.5.5-.8.6-2 .6l-1.5-.1zm-31-4.7c-1.5-1-1.9-1.1-4-1.3a7 7 0 0 0-2.7.1c-1.5.8-4-.6-6.4-3.5a8 8 0 0 0-2.8-2.1c-2-1-2.4-1-6.8-1.2-3.3 0-3.6-.1-4-.7-.5-.5-.5-.6-.2-1.1.8-1.1 1.4-1.3 5.4-1 3.5 0 5 .4 6.9 1.2l1 .4c.2 0 1.3 1 2.4 2 2 2 4 3.3 4.8 3.3l1.1-.6c.6-.4 1-.5 1.7-.3l2.7.4c2 .2 2.5.5 2.5 1.7 0 1 .6 1.4 1 .6.3-.4.6-.5 1.4-.4 1.3.2 4.5 1.4 5.2 2 1.3 1.4-1.1 2-4 1.2-1.3-.4-1.5-.4-2 0-.7.7-1.3.5-3.2-.7zm-28.7-.4-2.7-.6c-.7 0-1.5-.3-1.7-.4-.4-.5-.3-1.7.2-2.2.5-.5 3.1-.5 4.1 0 2 1.1 2.8 2 2.5 2.9-.2.6-.8.7-2.4.3zm49.4.1c-.5-.2-.7-.6-.8-1.2 0-1-.2-1-2-.4l-3.6.7c-1.9.2-2.4.2-3 0-1.7-.9-.8-2.5 1.6-2.8.6 0 1.5-.3 2-.6 1.8-.9 3.4-1.1 5.2-.8 1.7.4 2.4.9 2.4 1.8 0 .3.3.5.6.6 1.6.5 1.5 1.7-.2 2.5-1.4.7-1.4.7-2.2.2zm-351.6-.3c-.5-.5-.2-1.4.6-1.8.7-.5 5.1-1.5 6.5-1.5 1 0 1.6.4 1.6 1 0 .5-1.7 1.3-3.6 1.7l-2.7.6c-1.5.5-2 .5-2.4 0zm293.9-9.7c-3.3-.5-4.5-1.1-4.5-2.2 0-1.8 2.4-2.1 5.7-.8 3 1.2 3.7 1.9 2.6 2.9-.6.5-1.5.5-3.8.1zM59 93.4l-.2-1.1c0-1.3.4-1.5 3.2-2.5 2.4-.8 5-1.3 5.6-1 .3 0 .5.4.5.7 0 .5-.4.8-1.5 1.4-.8.5-2 1-2.6 1-1.3.2-3 .9-3.6 1.4-.5.4-1.1.4-1.4.1zm15.8-8.8c-.5-.8-.5-1.1.2-1.8 1-.9 3.8-1.7 6.6-2 1.7-.1 2.5.2 2.3 1-.1.7-1.2 1.2-4.5 2.3l-1.6.6c-1.8.6-2.5.6-3-.1zm-68-.9c-1.5-1 0-3 3-3.8 1-.3 2.7-.7 3.8-.8l4-.6c1.2-.2 2.9-.3 3.8-.3a89.8 89.8 0 0 1 11.8 1c2.2.1 3 .5 2.7 1.4-.3.6-1.1.7-8.6.6-3 0-3.8 0-4.5.4-.8.4-7 1.7-8.4 1.7-.4 0-1-.3-1.2-.7-.6-.7-.6-.7-1.6-.4-.6.2-1.5.6-2 1-1.4.9-2.1 1-2.8.5zM387 81c-.9-.2-1.5-1-1.3-1.8.2-1 1.4-1.2 6.4-1.4 4-.1 4.6 0 5.2.3.8.5 1 1.3.4 1.7-.4.3-3.3.9-4 .8a66.7 66.7 0 0 0-6.7.4zM27.3 77.1c-.3-.3-.3-1.1 0-1.3.7-.4.2-.9-1.5-1.4-2-.6-2.7-1.3-2-2 .4-.7 2-.6 4.4.2a83.7 83.7 0 0 0 10.9 3.3c.4.5-.1 1-1.2 1.2-1.7.3-10.3.3-10.6 0zm31.6-.9c-.6-.3-.3-1.4.4-2A44.5 44.5 0 0 1 76 72c2.2.2 6 .8 6.5 1.1.3.3.3 1.4-.1 1.5h-4c-2.5-.1-4-.1-5.2.2A95.9 95.9 0 0 1 60 76.3h-1.1zM50 75l-1.8-.3c-3.7-.3-5.6-.6-7-1.1l-3.4-1-2.3-.8c-.7-.5-.8-1.2-.2-1.7.5-.5 3.4 0 6.9 1.1 2.2.7 3 .9 4.9.8 2.9 0 6.2.6 6.7 1.4.4.5.4.6 0 1-.2.4-.7.6-2 .6H50zm322.8-.2c-1 0-2.6-.3-3.7-.4-3.2-.3-4.3-1.2-3-2.3.6-.5.8-.5 3.6-.2 5.3.5 6.2.9 6.2 1.9 0 .6-.6 1.3-1.1 1.3l-2-.3zM15.7 73.7l-3-.7c-2.2-.4-2.9-.8-2.6-1.8.3-1.2 1-1.2 5.2 0 1.9.5 3.8 1.5 3.8 1.9 0 1-1.3 1.2-3.4.6zm314.6-1.1c-.3-.3-.3-.6 0-1.2l.2-.8-1 .1c-3.4.5-4.5.5-5.2 0-.4-.2-.6-.6-.6-1 0-.8 1.3-1.5 3-1.5 2 0 5.3.6 5.7 1 .6.5 1 .4 3-.3 1.8-.7 2.8-1 5.6-1.6l3-1c1.7-.7 2.7-1 5-1.3 1.1 0 3-.5 4.2-.8 1.1-.4 2.4-.7 2.7-.7l1.6-.3c2-.6 3.3.4 1.6 1.2-1.6.8-3.2 1.4-3.6 1.4-.7 0-2.4.7-2.8 1a34.2 34.2 0 0 0-8.2 3.5c-1.9 1-2.6 1-3-.2l-.4-.8c-.3 0-3.9 1.6-5.4 2.4-1 .5-4 1.3-4.8 1.3-.2 0-.4-.2-.6-.4zm-242-1.4c-1.1-.2-2.4-.5-2.9-.8-.5-.2-1.7-.4-3.2-.5a13 13 0 0 1-2.8-.4c-.7-.3-.6-1.2.2-1.8.6-.5 1-.5 4-.5 2.1 0 4.1.1 5.9.5l3.3.5c.4 0 1.2.3 1.7.6.8.4 1 .7 1 1.1 0 1.5-3.2 2-7.2 1.3zm18-.4c-.2-.1-.6-.2-.9 0a12 12 0 0 1-5.4-1.2c-1.2-.8-1.5-1.3-1.2-2.2.3-1 1.2-1.2 3-.8 2.4.6 3.7.9 5 1 3.3.6 4.5 2 2.5 3-1 .6-2.2.6-3 .2zm245.7-.4c-.6-.2-.3-1.4.4-2.2 1.3-1.2 3-1.5 10.5-2.1 2.2-.2 4.4-.2 4.8-.1 1.1.2 1.6.7 1.2 1.4-.2.4-.7.5-2.6.7a42.4 42.4 0 0 0-6.7 1c-.8 0-2.9.4-4.7 1-1.2.5-2.2.6-2.9.3zM60 67.8c0-.1-1.4-.3-3-.4-3.1-.2-3.8-.5-3.3-1.7.4-.8 1.5-1 4.3-.7l3.5.4c2.7.3 4.2.8 4.2 1.7 0 .3-.2.6-.4.7-.6.2-5 .2-5.3 0zm256.3-4.6c-.7-.3-.8-1-.2-1.8.3-.4.8-.6 3.2-.8l4.8-.5c2.2-.2 2.7-.2 3.3.3.7.8 0 1.3-2.3 1.6a21 21 0 0 0-3.2.8c-1.4.5-4.8.7-5.6.4zM306 63c-.6-.3-.7-1.6-.2-2a31.1 31.1 0 0 1 7.8-2.2l2.2-.4c.8 0 1 0 1 .7.1.9-.1 1-3 2l-2.6.9c-.6.3-3.1 1-4.1 1.2-.4 0-.9 0-1.1-.2zm-193.4-2c-.3-.2-1.7-.3-3-.3-1.8 0-2.3-.1-2.9-.6-.8-.7-1-1.8-.2-2.5.5-.4.7-.4 2.4-.1 1 .2 2.2.2 2.5.1l5.5-.3c4.7-.1 4.9-.1 5.6.4.9.7.9 1.1.1 1.8a21 21 0 0 1-10 1.4zm169.4-.1c-.6-.6-.4-2 .3-2.3l4.8-.6a24 24 0 0 1 9.3.5c1 .8 0 2-1.7 2.2a109.7 109.7 0 0 1-12.7.2zm63.2-.1c-.4-.5-.2-1.1.6-1.5 2.6-1 5.8-1.5 6.4-1 1 .8-.1 1.6-3.2 2.1l-1.8.5c-.3.4-1.7.3-2-.1zm-80.1-.4c-.6-.3-.8-.9-.4-1.7.2-.6 2-1.5 2.9-1.5.9 0 2 .7 2 1.2 0 .6-.8 1.2-1.5 1.2-.3 0-1 .2-1.5.5-.6.3-1.1.4-1.5.3zM369.3 58c-.1-.2-.1-.5 0-.8.2-.5 1.7-1.4 2.7-1.6 1.6-.3 2.6 1.5 1.3 2.4-.8.6-3.8.6-4 0zm-204.4-.2-.7-1.4c-.6-1.3-3-4.8-3.2-4.8l-.5.5c-.2.3-.6.5-.8.5-.5 0-4.4-2-6.2-3a14 14 0 0 0-1.8-1 30 30 0 0 1-2.7-1.3l-3.3-1.5a7 7 0 0 1-2-1.2c-1.4-1.5.3-2.5 2.6-1.5a74.6 74.6 0 0 1 11.4 5.3s-.3-.7-.8-1.3c-1.6-2.5-1.7-3.5-.7-4 .5-.3.7-.1 1.7 1l3.8 4.1c3 3.1 4 4.4 4.5 6.1l.6 1.3c.6.8-.2 2.6-1 2.6-.3 0-.7-.2-.9-.4zm-36-.5c-1.6-.5-2-.9-2-1.9 0-1 .8-2 1.6-2s3.2 1.2 3.4 1.7c.3.7.2 1.7 0 1.9-.8.4-1.9.5-3 .3zm180-1.3c-3.3-.3-4-.6-3.8-1.6.3-1.1 1-1.3 4.1-.8 2 .2 3.8.3 5.5.2 2.6-.2 8 .2 9.2.7.5.2.5.3.3.7-.3.5-.4.6-10 1-1.2 0-3.7 0-5.4-.2zm88-2a5 5 0 0 0-1.9-.3c-1.6 0-2.3-.3-2.3-1.1s1-1 4.2-1c2.6 0 3.1 0 3.7.4 1.6 1.2.8 2.2-1.6 2.2-1 0-1.8-.1-2-.3zm-133-1.2-.3-2.1c0-.6-.3-1.6-.5-2.3l-.6-1.4c0-.2-.4-.8-.9-1.3-1-1.2-1.4-1.9-1.4-2.6 0-1.3 2.2-1 2.9.3.2.3.5.9.8 1.1.9 1.1 2 5 2 7 0 1-.5 2.2-1.1 2.2-.3 0-.6-.4-.8-1zm-236.7-.6-.1-1c0-.5.1-.8.6-1 1-.4 4.8-1.2 6.6-1.4 1-.1 2.2-.3 2.5-.5a1435 1435 0 0 0 16.8-2.2c1-.1 1.2-.2 1-.5-.4-.3-2.9-.9-5-1.1-1.6-.2-6-1.3-7-1.8-1.5-.8-1-2 .7-2 1.2 0 3.6.4 4.5.8l1.4.4c3 .4 6 1.2 7.7 1.9 1 .4 2.5.5 3.8 0l2.9-.4c5.9-.7 6.5-.9 8.6-1.7 2.1-1 8-2.7 10-3 1.6-.2 1.8-.5 1.4-2-.5-2.3-.5-4 0-5.1.5-1.6 1.8-2.6 2.7-2.4.9.2 1.9 1.1 1.9 1.8 0 .8.6.5 1.4-.8a4 4 0 0 1 1.9-1.7c1.4-.6 2-.5 2.9.6 1 1.2 1 2.5.2 5.2-.4 1.4-.6 2.5-.5 2.6l3-.2 6-.2c2.4 0 3.3-.1 4-.5.5-.3 1.7-.5 3.6-.6 2.7-.2 6.6-.8 10.2-1.8 1.7-.4 1.8-.5 1.7-1.1l-.2-4c-.1-2.8-.2-3.5-.9-4.7a20.4 20.4 0 0 1-1.8-6.8c0-1 .1-1.5.6-2 .6-.7.8-.8 2.1-.8.6 0 1.1.4 2.2 1.6l1.4 1.5.3-.8.2-1.2c0-.9.4-1.3 1.8-2.2 2.2-1.5 3.3-1.2 4.3 1.2a5 5 0 0 1 .4 3.1c-.2 2.1-.7 4.4-1.3 5.5-.5 1-.4 1.3.7 1.8 1.1.6 2.9 2.1 3.4 3 .3.4.6 1.3.8 2l.5 1.5 4-.7 6.7-.8a129.2 129.2 0 0 0 18.2-2.5c.7-.3.8-.4.8-2.2 0-3.6.2-5 .6-5.9.5-.9.5-1 0-2.4-1.3-4.5-1.3-6.1 0-8.5.7-1 1.7-1.6 3-1.6.4 0 2 1.3 2 1.6 0 .1 0 .5.2.9.2.6.3.7.6.4.3-.2.4-.5.4-.8 0-.7 1.9-3 2.5-3.2 1.6-.4 3.3 1 4 3.2.6 2 .2 4.3-1.3 7.5-1.4 3-1.4 3.2-.5 4.6.5.8 1 2 1.2 2.8l.3 1.5 1.4-.2c.7 0 1.6-.2 2-.3.9-.4 3.1-.7 6-1.1 3.9-.5 5.2-.8 6.3-1.4 1-.5 1.4-.5 5.3-.5 2.3 0 6.3.3 9 .5 3.9.3 5 .4 6.5 0a161.6 161.6 0 0 1 9.1-1.4c2.6-.5 5-.2 7.5.8 1 .4 2.3.7 3 .8l2.8.6c2.3.5 10 .8 19.9.9 9 0 8.7 0 13 .6l6 .7c3 .3 3.2.3 4.4-.2l1.6-.6 1.7-.4c1-.4 1.8-.4 4.4-.3a113.4 113.4 0 0 1 13.9 1.6 68.5 68.5 0 0 0 16 2l5.6.3c1.3 0 3.4.2 4.5.4 2.6.5 5.8 1 8.1 1 2.5.1 4.5.4 7.3.8a62 62 0 0 0 8.6 1.2l3 .4c1.7.5 1.7.5 2.2-.1.6-.8 2.1-1 8-1 7.8 0 10.7.3 17.2 1.8l6 .4a77.4 77.4 0 0 1 13.2.8h5.4c4.6.2 4.6.2 5.4 1 .5.4.8 1 .8 1.3v.7l-3-.1a47.8 47.8 0 0 1-10-1l-3.2-.2c-1.4-.3-10.8-.6-13.8-.6-1 0-2.2-.1-3.2-.5a59 59 0 0 0-17.5-1.5c-.4.4 1 1 3 1.3 2.4.3 3 .6 3 1.2 0 .3.1.3.7 0 .6-.5 1-.5 2.5-.2 1 .1 2 .4 2.3.6.7.6.2 1.8-.9 1.9-.8 0-4.3-1.2-4.3-1.5 0-.1-.4-.2-1.1-.1l-1.8-.1c-1-.4-7.8-1.6-11.4-2-1.8-.2-3.7-.5-4.1-.7-.4-.2-2-.6-3.6-.7l-4.6-.6c-1-.2-3.5-.3-5.6-.3-2 0-4-.2-4.6-.4l-6-.6-5.8-.5-4-.4c-3.3-.2-4.7-.3-9.5-1-1.3-.3-4-.6-6-.8l-6.2-1c-1.8-.3-3.8-.5-5.7-.5-2.6 0-3.2 0-5.2.8-2.9 1-4 1.2-8.3.8a198.5 198.5 0 0 0-10.1-.8c-.1-.1-2-.3-4.1-.4a18 18 0 0 0-5.7.3c-3 .7-3.7.7-4.8.2-.6-.3-2-.5-3.9-.7a36 36 0 0 1-3.6-.3c-.5-.2-1.3 0-2 .2-1 .3-1.5.4-2.2.1-1.9-.5-4.2-1-6.5-1.1a8.6 8.6 0 0 1-4.9-1.6c-.8-.7-2.8-.6-7.4.2a91.7 91.7 0 0 1-16.6.6 8.5 8.5 0 0 0-3.3 0c-.6.3-2.2.4-3.6.4a23 23 0 0 0-8 1.5 30.6 30.6 0 0 0-9 1.2c-3.8.8-7 1.2-9.4 1.4-1.3 0-3.2.3-4.2.5l-4.4.6-3.8.6a77.5 77.5 0 0 1-8.2 1.2c-.1.1-1.2.3-2.3.3-1 0-2.7.3-3.7.5s-3.1.5-4.9.6a24 24 0 0 0-3.6.4l-2.5.3c-1.2 0-3.2.4-4.6.7a40 40 0 0 1-4.9 1 13 13 0 0 0-3.5.8c-.6.3-2.2.8-3.4 1l-4 .7-3 .4-3.2.4-6.6.7-7.9.5c-1.8.1-3.9.4-4.6.6-.8.3-2 .5-3 .5-2.7 0-11.1 2.3-12.8 3.6-.5.4-1.2.6-1.8.6l-3.2.4a705.8 705.8 0 0 1-27.6 4.3l-10.4 2c-2 .5-2.3.5-2.6.3zM88.8 38c1-.3 2.8-1.8 2.8-2.5l.5-1.2c.7-1 .8-3.1.2-3.1-.5 0-.8.5-1.3 2.2-.3 1-.5 2-.7 2.3 0 .4-.4.7-1 .8-1.3.4-2-.2-2.3-1.7-.2-1.4-.7-2.3-1.1-2.3-1 0-.6 3.4.6 4.9.8 1 .9 1 2.3.6zm40.5-5.6 3.4-.7 1.6-.3-.2-1c-.2-1.3-1.6-3.2-3-4-1.2-.8-2.2-2-2-2.6l1.3-3c.2-.5.4-1.2.4-1.7l.3-2.1c.4-1.6 0-2.5-1.1-2.5s-1.5.8-1.8 3.4a9 9 0 0 1-.6 2.5c-.2.3-.3 1-.3 5.3 0 1 0 1.3-.5 1.5-.7.4-1.4-.4-1.7-1.6-.2-.9-.2-.9-.4-.2-.3 1 0 5.8.4 6.6.5 1 1.4 1 4.2.4zm-1-2c-.5-.4-.7-.8-.7-1.5 0-1 .4-1.3 1.5-1.6.8-.1 1 0 1.4.7.6 1 .7 2.1.2 2.6-.5.5-1.6.4-2.4-.2zm45.9-4.5.5-1.2c.3-.6.6-.8 1.4-.9 1 0 1-.1.8-.8l-1-1.5c-.9-.8-1-1-.8-1.7l.4-1.2c.5-.7 2.6-6.6 2.8-7.9C178.5 9 178 8 177 8c-1 0-2.3 2.7-2.4 5.2 0 1.1-.7 2.3-1.4 2.4-.6.1-1.2-.4-1.3-1 0-.4-.1-.9-.4-1.2a2 2 0 0 1-.3-1l-.6-1.6c-.4-1-.6-1.2-1.2-1.2-1.5 0-1.5 3 0 6.5l1 2.1c.4.4.2 1.7-.4 3.2-.9 1.9-.8 2.6.2 2.7.8.2 1 .3 1.5 1.7.2.7.4.7 1.2.7.5 0 1-.3 1.2-.5zm-49.4-5c.2-.6 0-1-.2-1.5-.7-1-2.3-2.8-2.6-2.8-.8 0 1 6.2 1.9 6.8.1 0 .3.4.3.7l.2-.9.4-2.3zm12 31.3-1.1-.4-1.9-.4c-2.6-.3-3.5-1-3-2.5.2-.6.3-.6 2.6-.4 2.2.2 3.5.4 6.1 1 1 .3 1.2.5 1.3 1 0 .4-.1.9-.4 1.1-.5.5-2.4.8-3.7.6zm224-.4c-.9-.3-1-1-.5-1.6l.9-1.3c.5-1 .8-1.1 3.7-1.6 2.2-.4 2.8-.1 2.5 1l-.1.8 4.3.1c4.5.1 5.3.3 5.6 1.3.4 1.2 0 1.3-6.2 1a64 64 0 0 0-10.3.3zm-188.4-1c-.1 0-.8 0-1.5-.2-1.4-.2-2-.6-2-1.5 0-1.3 1.5-1.8 3.7-1.3l1.9.4c2 .4 2.4 1.8.8 2.4a5 5 0 0 1-2.9.3zm171-.5c-1-1-.2-2.3 1.8-3 1-.3 1-.3 1.9.6 1.4 1.3 1.2 2.1-.8 2.4l-1.8.3c-.4.1-.8 0-1-.3zm-159 0c-1-.1-4.5-1.2-5.4-1.7-.8-.4-1-1.4-.5-2 .5-.6 1.9-.8 2.1-.3l2.3.9c4 1.3 5.2 2 4.5 2.9-.3.4-1.3.4-3 .2zm68.2-1.3c-.7-.7-.8-1.3 0-1.8.9-.6 2.5 1 2.1 2.1-.2.6-1.4.5-2.1-.3zm99.6.5c-2-.2-2.6-.5-3.1-1.5-.7-1.3 0-1.7 3.5-1.8 2.2 0 3 .5 3 1.8 0 .9-.7 1.8-1.4 1.7l-2-.2zm-115-.7c-1.6-.6-2.9-1-3.3-1l-1.7-.4c-.7-.3-2.2-.8-3.3-1-2-.5-2.9-1-2.9-1.8 0-1.2 1.7-1.2 5.1 0l3.6 1c2.4.6 4.5 1.6 4.8 2.3.1.4.2.7 0 .8-.3.4-1.5.4-2.4.1zm-13.1-.1c-.2-.4.3-.7.6-.4.3.1.1.6-.3.6l-.3-.2zm74.3-.2c-.3-.3-.3-.5-.1-1 .4-.7 1-1 4.8-1.3 3.3-.3 3.7-.4 3.9-.9.3-.8.8-1 3-1.6 3.2-1 6-1.2 7.7-1 1.5.2 1.6.3 1.7 1v.7h5.4c3.6-.1 6 0 7.2.2 3 .6 3.2.7 3.2 1.5.2 1-.8 1.4-2.6 1a74 74 0 0 0-11.4 0c-1.5.2-2 .2-2.5-.2-.6-.4-.6-.5-.5-1.3l.2-1-1.1.2-3.4.4c-3.2.4-3.5.5-3.5 1.4 0 1-.4 1.1-3 1.4-1.1 0-2.3.2-2.6.4l-3.3.4c-2.3.1-2.7.1-3-.3zM14.8 46.8c-.3-.4 0-1.3.6-1.4.5-.2 4.6-1 5.8-1 2-.4 3-.7 3.1-1 .1-.2 0-.3-.3-.3-.5 0-2.5-1-2.8-1.5-.4-.5-.2-.9.3-.9.7 0 1.9.3 5 1.3 2 .6 2.2.6 4 .3a27 27 0 0 0 4.9-1c.6-.2.6-.2-3.3-1-2-.3-2.6-.6-2.3-1.3.2-.5 1.9-.5 4.6 0l2.8.6c1.8.2 2 .3 2 .8 0 .6-.5.8-1.9.8-1 0-1 .1-1 .6.3.7-.2 1.2-1.8 1.6-.8.1-2 .6-2.8 1-.7.3-1.7.5-2.4.5l-3.9.6a51.1 51.1 0 0 1-10.6 1.3zm263.7-.4c-.2-.5.3-1.3 2-3.4 1.4-1.8 2.2-2.2 2.6-1.3.4.7-.3 2.2-1.8 3.8-.8 1-1.3 1.3-1.9 1.3-.4 0-.8-.2-.9-.4zM237 46l-1.4-1.3c-1-.9-1.1-1.2-1-2 0-1.2.9-1.2 2.4 0 1.2 1 2.4 2.9 2 3.4 0 .2-1.7.2-2-.1zm-35.8-.8c-7.5-.8-9.8-1.4-9.8-2.8 0-1.2 1.8-1.4 4.9-.5l2.9.7c4.4.9 5.6 1.4 5.2 2.4-.1.5-.2.5-3.2.2zm90.5-.1c-.6-.7-.3-1.5.8-2.1 1.2-.6 2.4-.8 5.8-1.2l2.5-.3c.8-.2 1.5 0 1.7.6.3.9-.3 1.4-2 1.6-1.6.2-4.2.8-6.3 1.4-1.6.5-2.1.5-2.5 0zm-105-1.5c-.1-.8.5-1.4 1.4-1.3 1.4.2 1 1.8-.4 1.8-.5 0-.8-.1-1-.5zm196.6-.2c-.8-.4-1-.8-.6-1.3.6-.6 2-.1 2 .7 0 .7-.5 1-1.4.6zm-360.9-4a86 86 0 0 0-10.9-4c-1-.3-1.1-.4-1-.9.1-1.1 2.7-.6 9.7 2l1.8.8c0 .1.3.2.7.2.8 0 2.4 1.1 2.4 1.8s-1 .7-2.7 0zm49-2.6c-1-.1-1.6-.6-1.4-1.3.2-.4.5-.4 2.4-.3 2.6.2 3.1.4 3 1.1 0 .5-.2.6-1.5.6l-2.4-.1zm5.9-3.3c-2.1-2.2-3-3.5-3.4-5.3-.3-1-.3-1.3 0-1.9.4-.4.7-.6 1-.5.8.3 1 .6 1.4 2 .3 1.4.9 2.5 1.5 3 .6.6 2 3 2 3.6 0 1.3-.6 1.1-2.5-.9zm-13 1.4-3.2-.6c-2.6-.3-3.3-.7-2.8-1.6.3-.5.5-.5 2.2-.4 1 0 2.7.4 3.8.7 1.6.5 2 .7 2 1.2 0 .9-.7 1-2 .7zm-10.8-1.7c-.3-.2-1.4-.5-2.3-.7-1-.1-2-.5-2.4-.7a48.8 48.8 0 0 0-10.7-4.2l.1-.9c.2-.6.4-.6 1.5-.5a57 57 0 0 1 9.5 3.2c.3.2 1.1.6 1.8.7 1.5.3 3.3 1 4.6 1.7.6.4.8.7.8 1 0 .5-.3.6-1.2.7-.5 0-1.3-.1-1.7-.3zm-19.3-7-2.6-.6a147 147 0 0 1-8.6-1.7 47 47 0 0 0-7-1.2l-.9-.2c-1 0-5.6-1-5.8-1.3-.2-.2-.2-.6-.2-.9 0-.6.2-.6 1.6-.6l3.3.3a547.5 547.5 0 0 0 9.4 1.7 51 51 0 0 1 9.7 2c1.7 0 4 1.4 3.6 2.3-.2.4-.5.5-2.5.2zm355.2-1a67 67 0 0 0-7.7-1.4 1582 1582 0 0 1-17.1-3l-1.7-.5c-.7 0-2.3-.4-3.7-.7a93.8 93.8 0 0 0-29-2.5l-5.2.5a98 98 0 0 0-26.8-1.3c-6 .1-7 .1-8-.3a32 32 0 0 0-5.6-1.2 12990.4 12990.4 0 0 0-14.3-2.4c-1.1-.2-2.6-.6-3.4-1a8 8 0 0 0-1.9-.6l-.9-.3-3-.8c-1.3-.2-4-.9-5.8-1.4a40.7 40.7 0 0 0-8.7-2l-2.5-.8a779.1 779.1 0 0 1-8.6-2c-2.6-1-4-1.2-6.8-1.4-1.9-.2-3.6-.3-3.7-.2-.8.5-6 1-11.8 1.1l-8 .2-3.4-.3c-2-.3-16.4-.3-22.2.1-2.2.2-2.7.1-3-.2-.2-.3-.2-.5 0-.8.3-.4 1-.5 3.8-.7l6.2-.6c5.3-.4 11.6-.6 13.8-.2 3 .5 5.3.6 6.9.3 1-.2 2.5-.2 4.7 0 3.5.3 9.9 0 12.2-.6 1-.3 2.2-.3 5.2 0 3.2.2 4.3.4 6.1 1.1a43 43 0 0 0 5.6 1.4 212.6 212.6 0 0 1 19 4.6c4.9 1 6.3 1.3 7.2 1.8 1.7.7 4 1.4 5 1.5.5 0 1.7.1 2.7.4l3.4.6c2.9.3 8.1 1.3 9.3 1.7 2.2.7 3.9.8 16.8.8a143.6 143.6 0 0 1 20 .8c3.7.2 4.8.1 6-.2 1-.3 1.7-.3 3.4-.2 1 .2 2.3.2 2.7.1.3 0 1.7 0 3.1.2a244 244 0 0 1 13.7 1.8 48.4 48.4 0 0 1 9.7 1.9 1982.2 1982.2 0 0 1 9.5 1.8 115.5 115.5 0 0 1 7.3 1.1 62.8 62.8 0 0 1 6.9 1.2c2.9.4 4.6.8 5.2 1 .7.4 1.1 1.3.8 1.8-.2.3-1.8.3-3.4-.2zM135.8 7a34 34 0 0 0-7.7-1 144.4 144.4 0 0 0-23.8-1 182.8 182.8 0 0 1-16.5-.7l-12-.2c-14-.3-15.1-.3-15.9-.5-.8-.3-1.2-1-.7-1.7.3-.4.5-.4 3.6-.1 4.8.4 11 .6 16.8.3a66.4 66.4 0 0 1 10 .3l9.3.4c4.4.2 11.6.3 16 .3a170 170 0 0 1 21.5 1.1c2.4.5 2.7.5 3.9.2a17 17 0 0 1 3.2-.6c3.8-.3 14-.4 14.7-.1.6.2 1.5 0 4.2-.6a1133.9 1133.9 0 0 0 7-.9c2.5-.3 2.3.9-.4 2-1.4.5-3 .7-10.8 1.5l-6 .6c-1 .1-2 0-2.8-.2-2-.5-3.7-.4-4.8.2-.8.5-1.4.6-4.8.7h-4z"/>
</svg>
