<?xml version="1.0" encoding="utf-8"?>
<svg xmlns="http://www.w3.org/2000/svg" xmlns:svg="http://www.w3.org/2000/svg" version="1.1" viewBox="0 0 192 133">
  <title>Mr. Tod and Tommy Brock snarl at each other from either side of a stone wall.</title>
  <path d="M47 131.9c-1.4-.1-6.4-.3-11.3-.3-5.7-.1-9.1-.3-9.6-.5s-4.2-.3-10.5-.4c-5.3 0-10-.2-10.6-.3-2.3-.4-3.4-1.3-4.4-3.5-.7-1.3-.7-1.6-.5-4.4l.2-7.3c0-3.5 0-4.4.3-4.9.3-.4.4-1.3.4-4.5a906.5 906.5 0 0 1 .8-27v-2.2c.3-8.4.2-26.1-.3-45.8V20c.6-9.4.6-15.1.3-16-.3-.6-.2-.8.2-1.3.3-.3.7-1 .8-1.7.2-.8.3-1 .9-1 .4 0 .7.2 1 .7l.3.7 7 .2a477.5 477.5 0 0 0 46.3.5c.4-.3 5.6-.3 21.4-.1H105c6.5-.3 48.1-.1 55 .2 3.6.2 9.8.3 15.8.2 8.8-.1 10-.1 10.4.3.4.4.5.3 1.3-.5.8-.7 1-.8 2.1-.7.7 0 1.4.3 1.6.4.4.4.4 4.6 0 47.4a1342.8 1342.8 0 0 1-1.4 70c0 2 0 2.6-.5 3.4-.7 1.3-.7 2.4 0 3.3 1 1.2.6 3.1-.9 4.6l-.7.8h-5.6a330 330 0 0 0-18.6.3l-8.9-.2a939.4 939.4 0 0 0-40.5.1l-19.6.3c-11.5.3-12.1.3-13-.1-.8-.5-1-.5-3-.2-1.4.2-6.2.3-15.3.3a404.3 404.3 0 0 0-16.4 0zm66-3.3 1.8-.6c.8-.3.6-.3-1-.2-1 0-2.3.3-2.8.4l-1.7.3c-.9 0-1.4.4-.7.5 1 .2 3.7 0 4.5-.4zm-72.7-.1c0-.1 0-.4-.3-.6-.3-.3-.3-.4 0-1 .6-.7.6-.8-.2-.9-.9 0-1-.5-.1-1 .3 0 .7-.4.8-.7 0-.2.8-.7 1.7-1 1.8-.8 2-.8 2-.3 0 .2-.5.6-1 .8-1 .3-1.7 1-1.7 1.6 0 .2 1.7-.5 2.3-1 .3-.2 1-.5 1.6-.6 1.2-.2 1.4-.4.7-.8-1.6-.8-2.4-1.5-2.3-1.8 0-.2 0-.4-.3-.5-.3-.1-.4-.5-.4-1.1 0-1 0-1-1-1-1.3 0-1.7-.4-1-1 .6-.4.6-.5-.7-.6-1 0-1.5-.3-2-.8a4 4 0 0 0-1.5-.9 2 2 0 0 1-1.5-1.8c0-.7-.7-1.2-1.8-1.2-.4 0-1-.2-1-.4-.4-.4-.5-.3-1 .1-.3.3-1 .8-1.8 1.2l-1.7 1.2c-.5.6-1.7.7-2.1.3-.4-.4-5 .6-7.5 1.8-2.8 1.3-4.8 2-6.5 2.5-1.2.3-1.3.3-1.7-.3-.4-.5-.7-.6-1.9-.5-.9 0-1.4 0-1.5-.3-.2-.5 1.5-1 4.4-1.3 2.9-.3 5.6-1 8.3-1.9l2.8-.7c2-.3 2.3-.7.5-.5-1.5 0-2.5.3-7.2 1.4-2 .4-2.2.4-2.2 0s1-.7 4.8-1.5c4.3-1 4.7-1 4.5-1.4-.1-.3-1.2-.2-5.5.5-4.7.7-5 .7-4.8.3 0-.4 1-.6 5.6-1.3 5-.7 5.4-.8 5.4-1 0-.2-.7-.4-1.5-.6a4.7 4.7 0 0 0-2.5 0l-4 1c-2.9.8-3.5 1.1-4.8 2.1-1 .7-1.9.8-2.1.2-.3-.7 0-1.4 1.1-2a6.5 6.5 0 0 0 2.7-2.7c.2-.5.4-.6.8-.5.4.1.5 0 .7-1 .2-1.3.2-5 0-7-.2-1.3-1.5-3-2.3-3l-.6-.2c-.1-.1-1-.2-2-.1-1.7 0-2 0-2.7-.6-1-.8-1.4-.9-1.7-.3a94.7 94.7 0 0 0-.1 13.3c.6-1.3 1-2 1.4-2.2.8-.5 1 .2.5 2.4-.2 1.5-.2 2.1 0 2.3.2.1.2.4 0 1s-.2 1.3-.2 1.6c.2.5.1.5-.7.4l-1.2-.3c-.4 0-.8 7-.4 7.7l1 2c.4 1 1 1.6 2 2.3 1 .7 1.5.8 3 .8 1.4 0 1.7 0 1.8-.5 0-.3.4-.5.7-.6.4 0 .7-.3.8-.7.1-.4.8-1.5 1.6-2.5 1.8-2.5 2-2.8 2.4-2.8.5 0 .2.6-.7 2-.5.7-1.3 1.9-1.6 2.6l-.7 1.2h.7c.5 0 1-.6 2.8-3.2 2-2.8 3-3.7 3-2.9l-1.5 2.6c-1.6 2.3-1.9 3.5-1 3.5.3 0 .6-.3.7-.6.6-1.2 3.6-5 4-5 .6 0 .4.8-.5 1.8-1.3 1.5-1.6 2.2-1.2 2.6.2.4.5.2 1.5-.9 1-1.3 1.9-1.7 1.9-1 0 .2-.4.7-.8 1.3-.5.5-.8 1-.8 1.3 0 .5-.8 1.3-1.3 1.3-.6 0-2.2.6-2.2.8 0 .4 3 .8 7 .9H31l.3-.8c.4-1.1.4-1-.9-1.6-1.5-.7-3.9-2.5-3.9-3 0-.6 1.5-.3 3 .8.8.6 1.7 1 2 1 .3 0 .7.3.8.5.3.4.3.4.3 0l-.4-1.8c-.2-.6-.3-1.2-.2-1.3.3-.6.8-.2 1.1 1l.7 1.7c.2.2.4.8.4 1.4 0 .8-.1 1-.5 1-.3 0-.6 0-.6.2-.1.9 0 1 1.9 1 3.3.3 5.2.3 5.4 0zm-5.1-1c-.2-.4-.3-1.1-.3-1.8 0-2.3-2.1-5.7-3.8-6a27.6 27.6 0 0 1-3.6-1.2c-.7-.2.2-.9 1.4-1 1-.2 1.3-.1 2.3.6a15 15 0 0 1 2 1.6c1 1 2.4 1.8 2.8 1.4.4-.4-.5-2.8-1.2-3.3-.4-.3-.7-.6-.7-.9 0-.5-1.2-.8-1.7-.4-.4.3-1.2.2-1.2-.3 0-.3-2.3 0-4.1.5-1.4.4-2.6.3-2.1-.1.1-.2 1.4-.6 2.8-1.1 2.2-.7 2.8-.8 3.3-.6.6.3.6.3.4-.5l.1-.8c.7 0 2 .7 2.3 1.3.2.4.5.6 1 .6.3 0 .6.2.8.6.1.4.4.7.6.8.4.2 1.5 2.8 1.5 3.6 0 .9.7 1 2 .2 1.4-.8 2-.9 2.4-.4.7.6.4 1.2-1 2-1.8 1-2.9 2-2.9 2.7 0 .8-.3 1.3-.6 1.3-.2 0-.6.4-.8.8-.5 1-1.3 1-1.7.3zm-10-1-1.2-1c0-.4 1-1 1.4-1 .4 0 .5.1.4.4-.1.3.1.7.7 1.2.6.6.7.8.5 1.2-.5.5-.6.5-1.8-.7zm-14-2c-.2-.2-.2-1 0-1.1a15 15 0 0 0 2.4-3.2l.9-1.3c.6 0 .4.6-.8 3-1.3 2.3-2 3.1-2.5 2.6zm13-4.6a10 10 0 0 0-3.2-.8c-1.5 0-1.9-.2-2-.6-.1-1 1.7-1.2 4.7-.4 1 .3 2.1.6 2.6.6 1 .1 1.5 1 .8 1.4-.7.5-1 .5-2.8-.2zM7.5 109c.3-.5.6-.6.9-.3.2.2-.4.9-.8.9-.3 0-.3-.1-.1-.6zm.5-1.6c0-.6.8-2 1.2-2 .6 0 .8.4.3 1l-.5.9c-.2.4-1 .6-1 .1zm1.3-6.1c-1.4-1.8-1.7-2.8-.8-2.8.4 0 .7.3 1 1l.6 1.4c.4.6.4 1.3 0 1.3 0 0-.5-.4-.8-.9zm40.4 25.2c.5-1.8.6-2 1.3-2 .4-.1.8-.3.8-.5.1-.2.4-.4.6-.4.3 0 .3.3.2 1.8-.4 3.4-.6 3 1.8 3h2.2l-.1-3c0-1.6-.2-3-.2-3l-2.6-.3c-2.2-.1-2.6-.2-2.5-.6 0-.3.5-.4 2.8-.5 3.5 0 3.6 0 3.4 2.5v3.4c.1 1.3.2 1.5.8 1.5.6 0 .6-.1.6-1.4-.1-3.3 0-4.5.4-4.5.3 0 .4.7.6 2.6l.1 3c0 .2.2.3 1 .2 1 0 1 0 .7-3.4l-.1-2.4c0-.7 0-.8-1.6-.7-1.9 0-2.2-.1-2.2-1.3 0-.4 0-1-.2-1-.5-.3-.3-.7.3-.7.7 0 1.3.6 1.6 1.4.2.4 1.3.7 1.3.4l-1.1-1.2-1-1.4c0-.6 1-.1 2.4 1.1 1.3 1.2 1.5 1.5 1.4 2.1-.2.9 0 1.2 1 1.4.7.2.7.2.7-1 0-.6-.1-1.2-.3-1.3l-1.3-1.7c-.7-1.2-3-3.5-3.5-3.5l-.3.7c-.3 1.3-4.6 3.3-7.3 3.3-1 0-1.5.1-2.2.7-.9.7-1.5.8-1.5.2 0-.4-.4-.4-2.1.3l-1 .4 1.1.8c.6.5 1.2.9 1.4.8.2 0 .7.2 1 .5l1 .5c.7 0 1 .7.7 1.5-.4.7-1.2 1-3.8 1.3-1.3.2-1.7.4-2.5 1.2-.6.6-1 1.1-.9 1.2H49zm4 1c-.3-1.2 0-4.7.5-4.7.2 0 .4.1.4.3.1.3.2.3.5 0 .7-.5.8 0 .6 2.2-.1 1.7-.2 2.2-.7 2.6-.8.6-1.2.6-1.4-.3zm-6.4-.3c0-.3 0-.5.3-.6.5-.2 1 .3.8.7-.3.4-.9.3-1-.1zm12.6-9.5c-1.3-1.3-1.3-2 0-1.4.8.5 2 1.9 1.7 2.3-.3.4-.5.3-1.7-1zm-8.6 9.3-.1-1.3c-.3 0-.6 1.2-.6 2.3 0 1.1.5.4.7-1zm45.5 1.4c0-.2 0-.3-.3-.3-.2 0-.4.1-.4.3 0 .1.1.2.3.2l.4-.2zm8.3-.2 3.2-.5 3.4-.6c2.3-.5 6-.8 7-.7.7.1 1 0 1-.4.2-.6 1.7-1 4.4-.9 1 0 1.1.1 1 .6 0 .5-.4.7-2.8 1.3l-4.4 1.1-1.5.5h3c2.7 0 3 0 3.1-.5.2-.5 1.8-1.3 2.5-1.3.6 0 0 .6-.8 1l-1 .4 3.9.2h7.5l3.7-.2v-.6c0-.4 0-.8.2-1 .1-.2 0-.7-.4-1.6-.7-1.1-.7-1.3-.4-3a68.4 68.4 0 0 1 1.5-7.6c0-.1-.6-.3-1.3-.4-.9 0-1.5-.3-1.7-.6-.2-.2-.5-.4-.8-.4-.4 0-.4 0-.1.4.1.2.2.5.1.7-.1.1.4.2 1.3.2 1.5 0 2.1.4 1.4.9l-1 .2c-.4 0-.8.1-.8.3 0 .1.2.2.5.2.5 0 1.1.5 1.1.8 0 .2-.8.2-1.8.2s-2.6 0-3.4.2c-.9.2-2.2.4-3.1.4-1.3 0-1.5 0-1 .3.6.4.9.8.7 1-.2.3-2.2.1-4.3-.4a65 65 0 0 0-6.4-.9c-1 .3-2.6.2-4.4-.4-.5-.1-.6 0-.6.2 0 .3.4.6 1.2.8 1.2.3 1.6 1 .6 1-.8 0-3.7-1-4.3-1.5-.6-.6-.5-1.2.2-1.2.8 0 1-.1 2.1-2.5 1.2-2.3 1.6-2.7 2.2-2.1.4.3.4.5.1 1-.2.4-.3.8-.2.9l2.4-.1 2.2-.3h-1.7c-1.3 0-1.7-.1-1.8-.4-.2-.6.3-1 1.3-1 .9 0 .9-.2 0-1-1.4-1.3-2.1-3.1-1.4-3.6l.2-.8c0-.9 1-.9 2.1 0 .9.8 1.1.8 1.1.4l.4-.8c.4-.4.4-.5.1-1-.1-.3-.2-.7-.1-1 .2-.5.7-.1 1.5 1.2.6 1 1.6 1.9 1.6 1.4 0-.2-.2-.3-.3-.3-1 0-2.5-7.1-2.8-14.2-.2-5.2-1-8-2-8-.4-.1-.7-.6-1-1.3-.4-1.2-.3-1.7.4-1.1.2.2.5.2.6.1.5-.5.8-3 .7-5.7 0-2.4-.1-2.9-.7-3.6-.5-.7-.5-1-.3-1.2.2-.2.3-1 .3-2.2 0-1.9 0-2-.8-2.2-.9-.3-1-.7-.3-1.2.4-.3.5-.9.6-3.6 0-1.7.1-3.2.2-3.2l.5.3c.2.2.4 0 .6-.7.4-1.5.8-5.9.6-7.2-.1-1-.3-1.2-.8-1.3-.6-.1-.6 0-.5 1.2.2 2.1-.3 4.5-1.3 6.6-.8 1.7-1 2-.8 3.7 0 1.7 0 1.8-.5 1.8s-.5-.2-.4-2c0-1.7.2-2.6.8-4 1-2.3 1.5-4.3 1.2-5.8-.4-1.7-.2-2.3.7-2.5.6-.2.8-.3.8-1 0-.5 0-1.3-.3-1.8-.3-1-.3-1.1.1-1.5.2-.3.4-.9.4-1.4v-.9l-.4.7-.6.8c-.3 0-.5-4.3-.2-4.9.1-.2 0-.4 0-.4l-.7-.2c-.2 0-.5.2-.7 1-.3 1-1.2 1.8-1.6 1.4-.3-.4-.2-1.9.3-2.4.2-.3.5-1.1.6-1.8.1-1.2 0-1.4-.4-1.7-.4-.2-.5-.6-.5-1.3 0-1.3-.4-1.7-2-1.8l-3-.3c-2-.2-6 .3-6.5.7-.2.2 0 .3.5.3.3 0 1 .1 1.3.3.5.2.8.2 1.2 0 .4-.3.7-.3 1-.1 0 .1 1.4.3 3 .3 2 .1 2.7.2 3 .5.4.8-.3 1.1-2 1l-4.5-.3c-2.6-.2-3-.1-3.6.3l-1.9 1c-1 .2-1.5.7-.8.7.2 0 .3.2.2.7-.2.6-.1.6.3.5.4-.1.7 0 1 .3.6.6.4.6 6.1-.2 1.9-.3 2.5-.3 2.8 0 .6.6-.3 1-2 1A77 77 0 0 0 95.2 41c-.4 0-.8.3-.8.5 0 .3.8.4 3.4.6 3.8.2 4 .2 4 1 0 .7-.7.8-2 .3-1-.3-2-.4-5.2-.3h-4l-2 1c-1.2.6-2 1.1-2 1.2l4.3-.2 6.8-.3c2.3 0 2.6 0 2.5.5 0 .4-.7.5-6.2.6-7.6.2-8.4.5-3.2 1a9 9 0 0 0 3.2 0l2-.2c1 0 1.1 0 1.3.6.1.5.2.5 1.6.4 2.6-.3 4-1.3 3.8-2.8-.1-.5.7-1.3 1.8-1.8.8-.4.8-.5.3-.6a2 2 0 0 0-1.1.2c-.4.2-.7.3-.9 0-.5-.4 0-.7 2.1-1 3-.5 6.5-1 7.3-1.3.7 0 .7 0 .7.6 0 .8-.3 1-2 1.1-.9 0-2.4.4-3.5.7l-3 1c-.9.3-1 .4-1 1.3.1.6 0 1.5-.4 2-.5 1.2-.6 1.3-4 1.6-2 .2-2.5.6-1.9 1.9.3.5.2.7-.6 1.5-1.4 1.6-2.8 2.4-3.2 2-.3-.2 0-.5 1-1.5 1.4-1.1 1.8-2 1.1-2l-1-.5a3 3 0 0 0-.8-.5c-.4 0-.3.8.2 1.5.4.6.4.7 0 1-.3.4-.5.3-1.5-1.5-.9-1.7-1.2-2-2-2.2-1-.3-9.6-.3-10.4 0-.3.1-.7.5-.8.8-.3.8-1.1.9-1.6.3-.3-.4-.4-.4-1 .1-.6.6-1 .7-1.4.2-.4-.5-4.5-.6-5.2 0-.4.3-.4.4 0 .6a620.1 620.1 0 0 1 3.2.4c.6 0 1.2.2 2 .7l1.5.4c.6 0 1.2.3 1.3.4.2.1.6.2 1 0l2.4.3c1.5.3 1.8.3 1.4 0-.5-.3-.6-.8-.2-1 0 0 .9 0 1.7.2 1.3.3 1.6.5 1.6.9 0 .3-.2.5-.8.6-.4 0-.9.2-1 .4 0 .2-.4.4-.7.4-.3 0-.5.2-.5.4 0 .5-.4.5-2 0-1-.2-1.2-.2-1.7.2-.3.3-.5.4-.8.2-.2-.3-.8.2-2.3 1.7a28.7 28.7 0 0 0-2.6 3c-1 1.5-2.7 2.2-6 2.2-2.1 0-3.3.2-6.3 1-1 .3-2.6.7-3.6.8l-2.7.7c-1.2.5-1.8.5-2.9 0-.8-.4-.9-.4-2.4.3-1 .4-1.6.8-1.6 1.1 0 .4.3.5 1.7.5 1.3 0 1.9.1 2 .4.2.2.8.5 1.3.6.6 0 1.1.3 1.2.4.2.4-1 .8-2.6.8-1.4 0-1.7.4-.4.6 1.3.3 1.2.3 3.7-.3 1.6-.3 2.6-.4 3-.3.8.3 1.2 0 1.6-1.3.3-1 .3-1-.3-1-1.2 0-3-.7-3.2-1-.3-.7 0-.7 1.4-.3l1.8.4c.7 0 1.6 1.2 1.3 1.8 0 .3 0 .4.5.2a5 5 0 0 1 1-.1l.3-1.3c0-1.3.4-2.2 1-2.2.3 0 .3 1.6 0 2.7-.2.6 1.3.4 5.1-.4 3.4-.8 4.2-.7 4.2.2 0 .8.2.9 3.5 1.2 2.7.3 4.4.7 6.1 1.3.9.3 1 .3 1.2 0 .8-1.4 2.2-3.1 3.2-3.8l1-.9h-1.4c-.8 0-1.6 0-1.8-.2-.6-.2-.6-1 0-1.4.8-.4 1.7-.3 1.7.1 0 .5 1 .6 4.2.2 5.6-.7 6.3-1 6.7-2.6.2-.8 1.1-.7 1 .1 0 .5.1.6.8.6 1 0 1 .4-.4 1.1l-1.8 1c-.6.5-3.7.9-6.3.9-1.2 0-1.2 0-1.2.8 0 .7-.1.8-.9 1-1.2.3-1.7.8-3 3-.5 1.1-1.2 2-1.4 2.1-.2.1-1 0-1.5-.2a46.3 46.3 0 0 0-9.3-2.1c-.9 0-1.4-.3-1.9-.7-.5-.5-.8-.6-1.6-.5a46.7 46.7 0 0 0-8.7 2c-2.8.6-3.9.9-4.6 1.3-.3.2-1 .5-1.6.5a38.1 38.1 0 0 0-8 1.5c-.4 0-.4 0-.2.8.2.6.4.8 1 .8.5 0 .9 0 1 .2.2.5.6.3.6-.2 0-.7.5-1 .9-.6.3.3-.1 2.4-.6 2.7l-1 .5c-.9.4-1.1.3-1.1-.3 0-.5-.2-.5-2.8-.5a49 49 0 0 1-4.8-.3c-1.1 0-3.5-.3-5.2-.5-3.2-.2-4.2-.5-4.2-1.2 0-.3.4-.4 1.4-.4 1 0 1.3 0 1.3-.4 0-.3.2-.4.6-.3.6 0 .7 0 .6-.4 0-.4.1-.6.4-.5 1.6.4 4.6.8 5.7.8 1 0 1.4.1 1.4.4 0 .3.4.4 1.6.4h1.6l-.4-1c-.4-.8-.4-1 0-1.4.5-.5.5-.8-.1-1.4-.5-.4-.7-.4-1.9-.1-1.3.3-1.7.6-1 .8.2 0 .2.3.1.6-.2.6-1.8.6-2-.1-.1-.7-.6-.7-2.8-.2-1.8.5-3.5.6-3.7.2 0-.2-.5-.3-1-.3-1 0-1.6-.5-1.4-1.4.2-.5.2-.5-.5.2-.8.8-1 .8-1.6.2-.5-.6-1.3-.5-3.7.3-1.6.6-2.2.5-2.6-.1-.2-.3-.1-.6.2-1.2.4-.5.6-.6 1.2-.5.5.1 1 0 1.8-.7l1.4-.8a4 4 0 0 0 1.1-1c.5-.6 1.1-1 1.4-1 .4 0 .4-.3.4-1.3-.1-1.2-.2-1.3-1-1.5-.6 0-1.7-.3-2.6-.5-2.2-.6-4.6-1-7.3-1.1-2-.2-2.4-.2-3 .3-.8.6-1.2.6-5.8.7-2.8 0-5.2.1-5.4.2-.4.3-.1 7.4.3 7.7.4.2 2.6 0 3-.4.1-.1-.1-.2-.6-.2-1 0-1.8-.6-1.6-1 .2-.2.4-.3.7-.2l3 .4c2.9.3 3.4.5 2.8 1.2-.1.2-.2.5-.1.6 0 0 1.6-.1 3.3-.5l3.2-.6.6.6c.3.3 1 .6 1.3.6.4 0 .8.1 1 .4.3.3.3.5-.1.8-.5.3-2 .4-7.6.5l-5.6.1-3.3.1-.2 1.8-.1 3.3c0 1.5 0 1.7.5 1.7.7 0 1.2 1 .8 1.5-.2.2-.6.3-.8.2-.5-.1-.5 0-.5 2.3v7.4c0 4.3 0 4.4.5 4.6.4.1.7 0 .9-.3.1-.3.4-.4 1.1-.2.9.1 1 .1.8-.8 0-1 .6-1.1 1 0 .4 1.2.6 1.4 2 1.5l3.3.9c2.7.8 2.8.8 2.7-.2 0-.9 0-.9.8-.8.7 0 .8 0 .7-.6 0-.4 0-.7.2-.8.3-.2 1.2.3 1.5 1 .2.3.7.7 1.3 1 .8.2 1 .2 1.2-.1.5-.5 2-1 3.1-1 .7 0 1.2-.2 1.5-.5.3-.4.8-.6 1.7-.6 1.3 0 1.9.4 1.4.9s.2 1 1.4 1c1.3 0 1.7.5.9 1.3-.7.7-1.8.7-2.9 0-.6-.3-.8-.5-.7-1 .1-.6-.2-.7-1-.4-.4.2-.2 1.4.3 1.4.4 0 .5.7 0 .9l-2.8.3c-2.1.2-2.5.1-3-.3s-.5-.4-1 .1c-.9.8-1.4.8-2.1 0-.5-.6-.6-.6-1-.1-.1.2-.5.4-.8.4-.7 0-.8.6-.2 1.1.8.7 5.7 1 7.8.6.5 0 1 0 1.5.2.3.2 1 .3 1.7.1 3.3-.4 4.7-.4 5.4 0 .5.3 1.5.5 2.5.6 1.9.2 2.8.6 3 1.4.2.5.3.5.6.2.3-.2.8-.3 1.3-.2l1-.1-1.3-.7c-.7-.3-2-1-2.8-1.7l-2.1-1.3c-.6-.2-.6-.9 0-1.2.8-.4.5-.7-.7-1-1.3-.2-1.6-.5-1-1.1.4-.5.6-1.4.3-1.7l-.7.1c-.6.4-1.3.1-1.3-.5 0-.2-.3-.7-.8-1-.5-.4-.8-.7-.8-1.2 0-1.3-.7-2.6-2.6-4.6-1-1-1.9-2.1-1.9-2.4 0-.5.8-.8 1.1-.4.2.1.7 0 1.5-.6l1.2-.8.6.6c.7.7 1.2.7 2 0 1-.7 1-.7 2.3.4l1.4 1.3c.8.7.9 2.2.2 3.8-.3.8-.5 1.6-.3 1.9.1.3.2.2.5-.8.2-.6.7-1.4 1-1.7.4-.3 1-1.4 1.6-2.5.8-1.8 1-2.2.6-2.8-.3-.7-.3-.7-2-.6-2 .2-2.9-.1-2.6-1 .1-.6 0-.6-1-.6-1.2 0-1.3 0-.8.4l.7.4.2.4c0 .4-.2.4-1 .3-1.2-.2-1.5-.6-1-1.2.3-.4.2-.4-1-.2-.7 0-2.2.4-3.2.6-1.8.4-1.8.4-2.2-.1-.3-.4-.8-.6-1.2-.6-.8 0-1-.7-.2-.9 1.5-.4 1.9-.4 2 0 .2.2.6.3 1.3.2l1-.4c0-.3-.8-.5-1.2-.3-.3 0-.6-.4-1-1.4-1-1.8-.7-2.3.6-1.7 1.3.6 4.6 1.4 6.9 1.5 1.5.2 2 .3 2 .6 0 .2-.4.4-.8.5-.8.2-.6.7.4.9.5 0 .6.2.6.7 0 .7 0 .7 1.9.7 1 0 2.7-.2 3.8-.5l4-.9c2-.4 5.6-2 6.4-3 .5-.5.5-.5 0-1-.9-1-.7-1.5.7-1.7 1-.2 1.2-.2 1.5.2.1.2.6.4 1 .5.6.2.8.1 1.1-.3.5-.8 1-.7 1.6 0 .5.7.6.7 1.9.4l3.2-1c2-.8 4.1-1 4.4-.5.2.3 2.9.2 8.9-.2 1.6-.1 2.3 0 2.5.1 0 .2 1.1.3 2.8.3 2.5 0 3.9-.3 5-1.2a8 8 0 0 1 2.4-.6l4.2-.7c2.2-.4 2.2-.4 2.6.1.3.4 1 .6 2.2.7 1.6.2 2 .1 3-.4 1.3-.6 1.8-.5 1.3.3-.4.5-.2.8.5.8.4 0 .5-.2.5-1.1 0-2.2-.1-3-.6-3.6a2 2 0 0 1-.5-1c0-.4-.3-1-.8-1.2-.4-.4-.8-.8-.8-1 0-.5.8-.4 1.5 0 .9.7 1.1.4 1.1-1.1s0-1.5-2-.9c-1 .3-1.5.4-1.7.2-.3-.4 0-1 .5-1l3-.8c1.5-.5 3.2-1 3.8-1 1.7-.4 2.1-2.3 1.2-6-.6-2.3-.6-2.5-.2-2.9.5-.5.5-.6 1.1 2.2.6 2.4.6 5.1 0 6.3-.4.8-.7 1-1.5 1.2-2.9.8-2.7.6-2.9 2l-.2 5.4-.2 4.7c-.3.6-.4.6-1.8.6a9 9 0 0 0-5 2c-.6.4-.7.6-.7 2.2 0 1.5 0 1.7.7 2 .5.2.7.2 1 0 .6-.5 2.8-1 3.2-.6h.7c.2-.1 0-.3-.4-.4-.9-.3-.8-.3-2 0-.6.1-.8 0-.8-.3 0-.7 1.3-1 3-.7.8.2 2.3.3 3.4.3 2.3 0 2.5 0 3.5-2.1.6-1 .7-1.7.7-3.6 0-1.3-.1-2.9-.3-3.5l-.4-2.5c-.1-1 0-1.2.3-1.2.2 0 .5.3.5.7l.6 1.7c.5 1.3.6 1.1 1.7-2.2.6-1.8.8-2.9.7-3.8l.1-1.4c.6-.2.7 0 .8 1.2.2 1.3-.2 3-1.6 7.5-1 3.2-1.4 8.3-.7 9.4.5.8.5 2.3 0 3.7-.6 1.7-1 4.4-.6 4.7.1.3.2 1 0 2.2-.2 1-.3 3-.4 4.5 0 2.5 0 2.8.4 3 .3 0 .4.5.6 2.6l-.1 2.8c-.4.4-.3 3 0 3.7l.7.9c.4.4.2 1.1-.4 1.1-.7 0-1-.4-1.3-1.6l-.2-1-2 .1c-1.2 0-2 .2-2.5.5-1 .7-1.3.2-.4-1 .6-.6 1.7-1.4 3-2.2l2.3-1.2v-1.7c0-1.8-.3-2.3-.8-1.3-.1.4-.4.7-.5.7-.5 0-.6-.5-.2-1.3.4-.8.8-7.9.4-7.2a17 17 0 0 0-.6 2.6c-.4 1.7-.4 2.2-.1 2.7.4.6.2 1-2 2.5-1.4 1.1-1.6 1.2-2 .8-.3-.2-.7-.4-1-.4-.6 0-.6 0-.5 3.1.2 4.7.2 4.8 0 6.7-.2 1.2-.4 1.7-.6 1.7a140 140 0 0 1-.4-16.8c0-.2.2-.2.5 0 .3.3.4.8.4 1.7-.2 3-.2 2.9 1.3 2.8 1.6-.2 2.8-1 2.8-1.9.1-1.4 1.2-6.2 1.7-7.3.3-.7.6-2.2.8-3.4.1-1.1.5-2.7.7-3.4.5-1.7.5-2.7 0-3-.3 0-.4-.3-.3-.8.2-1-.2-1.2-.8-.3-.7 1.3-1.5 1.5-4 1.4l-2.2-.1v1c.1 1 0 1-1 1.6-2.3 1-3.2 1.2-4 .8-.6-.5-2-.6-2.3-.2-.2.2-1 .4-2 .5-1 .2-2.5.7-3.4 1.1-1.2.6-1.7.8-2 .5-.4-.4-1.1-.3-2 .6-.8.6-1.7 1-3.6 1.4-3 .7-3.6.8-3.5.3 0-.1 1.3-.6 2.7-1 2-.4 2.6-.7 2.6-1 0-.4-.3-.5-2-.4a7 7 0 0 0-3.8 1 26.8 26.8 0 0 0-3.7 2.3c-.1 0-.3.7-.4 1.5-.2 2-.4 2.5-1 2.4-.4 0-.4-.2 0-2.4v-1.3l-.7.2c-1.2.3-1.2.4-1 2 0 1.7-.2 2.2-.9 1.4-.2-.3-.3-1-.2-1.9.1-1 0-1.4-.2-1.3-.2 0-.3.7-.2 2 0 1.8 0 2-.4 1.8-.4 0-.5-.3-.6-1.6 0-1-.1-1.5-.4-1.5-.3 0-.4.4-.4 1.3l-.2 1.5c-.3.1-1.8-.6-2-1-.3-.3.1-1.5.5-1.5.2 0 .4.2.4.4.1.4.2.4.4-.2l.5-1c.1-.7 2.3-1 3-.5.2.2.4.2.8-.3.3-.3.8-.5 1-.5.7 0 3.8-1.6 3.8-2 0-.2-.2-.2-1.8.3-.8.2-1.5.3-1.6.2-.2 0-1 .1-1.8.5-1.9.8-3 1-4.5 1-1 0-1.2 0-2 1l-.9 1.6c-.1.4-.4.5-.9.5-.4 0-1 0-1.2.3-.2.2-.7.3-1.4.1-.8 0-1.1 0-1.6.4-.4.3-1.2.6-1.8.7-.5 0-1.2.3-1.5.5-.5.2-.5.3.4.5l2.1.4c1.6.3 2.2.7 2 1.5-.2.7.2 1.1.5.7 0-.2.4-.2.7-.1.4 0 .7 0 1-.5.4-.5.6-.6 1-.3.3.2.5.1.9-.2.2-.3 1.5-.6 4-.9a257.9 257.9 0 0 0 12-1.7c2.2-.2 2.6-.3 3.5-1.1 1.1-.9 1.1-1 1-2l-.3-1.3c0-.1-1.5.3-2.4.7-.7.3-1.8.2-1.9-.2 0-.3 2.7-1.1 4.2-1.3.2 0 .6-.1.8-.3.3 0 .7 0 1.3.7.6.6.8 1 .8 2 0 1.2-.1 1.4-1.4 2.7-1.8 1.7-2.3 2-3.8 1.9h-1.3c-.3.3.4 2.6.8 3 .6.4.4 1.2-.4 2s-.8.8-.8 3.6c0 2.3 0 2.8-.4 2.8-.5 0-.7-1-.6-2 0-.7 0-.8-1-1l-2 .1c-.6.2-1.3.2-1.7.2-.4 0-1 .3-1.9 1.3l-1.3 1.4h1a6 6 0 0 0 2-.4c.8-.3 1-.3 1.4 0 .7.6.5 1.3-.5 1.7-1.4.5-2.8.8-3.5.6-.4 0-1.3 0-1.9.2-.9.3-1.2.3-2.3 0-1.7-.7-3.2-.9-3.2-.6 0 .2 1.4 1.3 3.1 2.6l4.2 3 1.1.9.9-.5 1-.5s0-.3-.3-.6c-.5-1 0-1.4 2.9-2.3 1.4-.5 2.7-1 2.9-1.3.1-.2.4-.3.6-.2.2 0 1.3-.4 2.5-1 1.8-.9 2.3-1.3 2.4-1.8 0-.5 0-.7-.4-.8-.4-.1-.5-.4-.5-1.5l-.2-4c0-2 0-2.5.3-2.5.4 0 .5 0 .5 1.6l.1 2c.1 1.8.5 1.4 1-.8.1-1.4.4-2 .6-2 .3 0 .4.3.2 1.6-.4 3.4-.6 6.2-.5 6.3.5.5 1.8-3.8 2-6.5.4-2.9.5-3.3 1-3.3.3 0 .6.2.7.4.1.3.5.4.8.4.8 0 .8 1 0 1-.5.1-.6.4-1 2-.1 1-.5 2.7-.8 3.6-.3 1.2-.5 2.1-.3 3 .2 1.2 0 1.5-1.4 1.5A17 17 0 0 0 83 107l-2 1c-1.5.5-1.5.6-.7.7h1.2c.7-.4.8-.2.6.7-.3 1.4-.9 1.8-3.1 2.2l-2.1.3.2 1 .3 2.8c.2 2.4.7 2.1.9-.6.1-2.2.5-2.9.8-1.3 0 .6.2.8.3.5.2-.2.3-.2.6 0 .2.1.5.2.7 0l2.6-.3 2.3-.1.4-1 .6-1.8c.2-.8.2-.8-.3-.6-.9.5-2.5.4-2.5 0 0-.3.3-.5.6-.5 1 0 2.4-.7 2.7-1.5.3-1 .6-1 .9-.4 0 .2.3.3.5.3.4 0 .5.4.2.7l-.2 1.1c-.5 5.8-.4 5.5-2 6.8-1 .7-2.2.4-2-.4.2-.5.1-.5-1-.4-1.1.2-3.3 1.5-4.4 2.7-.8.8-.6.8 1.2.1a8 8 0 0 1 3-.4c1.3 0 2-.1 3-.6 1.3-.6 1.8-.7 1.8-.3 0 .2.3.3.6.3.4 0 .8.2 1 .6.4.6.4.6 1 0 .9-.8 1.3-.1 1.3 2 0 1 .2 2.3.4 2.8.2.6.3 1.2.2 1.4-.2.6-1.1.3-1.6-.5l-.6-.8c-.1 0-.2.8-.2 1.7 0 1-.1 1.7-.4 1.9-.3.2-.3.4-.1.7.2.3.4.3 1.4-.3a4 4 0 0 0 1.3-1A24 24 0 0 0 98 123c.6-.6 1.4-.7 1.6-.1.2.5.4.5 1.7-.3.7-.4 1-.6.7-.6-.5.2-.9-.3-.5-.6.2-.2 1.5-.7 5.3-2.1 1.1-.4 1.5-.5 1.8-.2.6.5 0 1-1.4 1-.6 0-1.1.1-1.1.3 0 .4 2.1.2 2.9-.3.7-.6.8-.6 2.3 0 2.7.8 4 1.1 4.9 1a4 4 0 0 1 1.9.3c2 .9 2.3.9 2.3.3l-.2-.7c-.1 0-.3-.6-.3-1v-1l1 .1 4.3.5c3.5.3 3.5.3 5.9-.4 3-1 5.4-1.2 5.4-.6 0 .3-.5.4-2 .5l-2 .4c-.2.2-.7.3-1.1.4-.4.1-.7.4-.7.6 0 .5-1.4.5-3.9.1-2.6-.4-6-.5-6-.3 0 .6 5.8 1.6 6.7 1.1a3 3 0 0 1 1.2-.3c.6 0 .7.2.6.6 0 .5-.3.7-1.1.9-.6.1-1.2.4-1.4.6-.7.8-3.8.9-7 0a110.4 110.4 0 0 0-7.5-1.8c-1.1-.3-1.3-.3-1.5 0-.1.3-1.3 1-2.5 1.5-2.3 1-4.6 2.3-5 2.9 0 .2-.4.4-.8.5-1.4.3-.6.6 1.5.5 1.6 0 2 0 2 .2-.2.5-2.3 1-3.7.9-1.3-.2-3.1.2-3.1.7 0 .4 4.1.3 5.8-.2zm2-3.8c-.4-.7.2-.9 2.9-.7 1.4 0 2.7.2 2.7.3v.4c-.3.3-5.4.3-5.6 0zm23.3 0c-.3-.5.1-.8 1.9-1.2 1-.2 1.7-.3 1.8-.1.2.4 0 .6-1.3.9l-1.7.5-.7-.1zm-37-.5c-.5-.4 0-1 1.5-2.3 3.5-2.7 6-3.7 6.4-2.5.2.7-.3 1.2-1.3 1.5-.5 0-2 1-3.4 1.8-2.5 1.7-2.9 1.9-3.2 1.5zm38.4-1.8c-.4 0-.8-.3-.8-.5 0-.3.5-.3 2.2-.2 2.3 0 2.5.1 2.2.6-.2.3-2.1.3-3.6 0zm-30.1-4c-.5-.2-.7-.4-.7-.9 0-.8.9-1 1.4-.4.3.5.4.5 1.6 0l2.2-.4c.7 0 .9 0 .9.4s-.3.6-1.3.8c-2 .5-3.4.7-4.1.5zM89.4 116c-.7-1.4.1-3.8 1.2-3.4.3.1.4.3.2.6-.2.5-.2 1.2 0 2.5 0 .8-1 1-1.4.3zm5.1-1c-.2-.6 0-.8 1.6-1.4.8-.2 2.3-1 3.4-1.6 2.1-1.2 2.4-1.3 3.1-.8.4.3.7.2 1.6-.1 1.3-.5 1.4-.1.3 1-.6.5-1 .7-1.5.5-.4 0-1.2.1-2.5.8-3.7 1.9-5.7 2.4-6 1.6zm9.4-1c0-.2.6-.8 1.4-1.4 1-.8 1.3-1 1.3-1.7 0-.8 0-.8-.4-.5-.3.2-.5.2-.7 0-.3-.3-.8-5.3-.6-5.7.2-.3.6.1 1 .9.3.6.3.6.4 0 0-.3.2-.5.4-.5s.4.6.5 2c.3 2.6.5 3.5.8 3.5l1.2-.7c.8-.5 1.2-1 1.4-1.9.2-.6.5-1.2.7-1.3.3 0 .4.2.2 1.4l-.3 1.8-1.4.9c-.8.3-1.5 1-1.8 1.5-.4.7-.8 1-1.2 1-.3 0-1 .2-1.4.5-1 .6-1.5.7-1.5.2zm-12.1-2.6c0-.7 2-1.8 2.6-1.4.5.3.3.6-.8 1.2-1 .5-1.8.6-1.8.2zm6.6-1.7c-.2-.2-.5-.4-.8-.4-.8 0-1-.5-.8-1.6.2-.7.2-1.2 0-1.6-.3-.5-.3-2.3 0-2.8 0-.1.5-.4 1-.5.6-.1.9 0 1 .2 0 .3.4.5.7.6.4 0 .5.2.4.7-.1.4-.3 1.5-.3 2.6-.3 3.2-.5 3.7-1.2 2.8zm10-1.4c-.4-1.9-.3-2.7.2-2.6.4 0 .6.4.7 1.5.2 1.6.1 2.1-.4 2.1-.2 0-.4-.4-.5-1zm-15.7-2.6c-.8-.2-1.2-.6-1.2-1.3 0-.7.3-.8 1-.3.5.2.8.2 1.7-.3.6-.4 1.2-.6 1.4-.5.8.3.3 1.3-.8 2-1 .6-1.2.6-2 .4zm-15-.3c0-.4 3.1-1.9 4.3-2 1.2-.3 1.5.2.3.5l-2.3 1c-1.6.7-2.2.9-2.2.5zm37 0v-1l.2-2.9c.2-2.5.8-6.4 1.4-8.1.3-1.1.4-1.6 0-3l-.5-4c-.3-3.1-.9-5.6-1.5-6.1-.5-.5-.5-.6-.3-3.3.2-1.5.2-3.5.2-4.4-.1-1 0-1.7.1-1.8.6-.4.8.4 1 2.8.1 4.7.3 6.2.8 8.6l.7 4c0 1 .3 2.2.6 2.9.7 1.5.7 2.3 0 4.3-1.2 3.6-1.8 8.9-1 9.6.4.5.3 1.1-.3 1.9-.6.7-1.1.9-1.4.4zm3.8-2.3a4 4 0 0 1-.3-1l-.6-.5c-1-.4-1-1-.3-1.3.7-.2.7-.3.6-2.2 0-1.1 0-2.1.2-2.2.4-.5.8.7 1 3.4 0 1.7.3 3.3.3 3.7.3 1-.5 1-.9 0zm-40 .2-.2-1.2c0-1.4.6-1.2.7.3.1 1-.1 1.3-.5 1zm5-3.4c-.2-2.5 0-4.7.6-5.3.5-.6.8-.2.5.6-.2.4-.2 2-.2 4 0 2.7 0 3.1-.3 3.2-.4 0-.5-.4-.6-2.5zM94 99c-.2-.3 1.1-1.8 1.7-1.8.2 0 .3 0 .3-.2s-.5 0-1.2.2c-1.4.6-1.9.7-2 .3-.3-.3.7-1.2 1.5-1.3 1.4-.3 2.2-4.2 2.4-10.7 0-4.1.2-4.8.5-4.9.8-.1.9.3.6 2.6-.4 4.4-.5 7.6-.2 7.8l.4 1.4a17.1 17.1 0 0 0 1.2 5.5c0 .7-.7 1-2.5 1-.8 0-1.6.2-2 .3-.3.1-.6 0-.7-.1zm3.1-5c-.2-.6-.2-.6-.4.3-.2.6-.1 1 .1 1.1.5.3.7-.5.3-1.4zm15.5 4 .1-1.3c.2-.6.2-1 0-1-.2-.2-.3-.6-.2-1.2v-.9c-.5.3-.6-.5-.2-2 .5-2.4 1.5-4.7 1.9-4.7.5 0 .4 1-.5 3.4-.4 1.2-.6 2.2-.5 2.2l.8-1.6c.6-1.5 1.1-2.2 1.5-1.8.2.2-.8 3.2-1.4 4.5-.3.6-.3.7.2 1 .5.3.5.3-.3 1.9-.7 1.6-1.2 2.1-1.4 1.5zm-8.5-6a7 7 0 0 0-.1-2.6c-.4-1 0-1.5.6-.8.3.4.4 1.2.4 2.8-.1 2-.2 2.3-.6 2.4-.5 0-.5 0-.3-1.8zm1.6 1.3V91c0-1.6.2-2.3.4-2.3.5 0 .5 4.7 0 4.9-.1 0-.3 0-.4-.2zm-99.6-.8c-.2-.3-.3-.8-.3-1 0-.9.8-.7 1 .2.4 1.2-.2 1.8-.7.8zM14 91c0-.2.3-.4.7-.5l1.8-.5c2.3-.9 7.9-2.3 8.6-2.3.9 0 1-.3.4-.8-.5-.4-2.6-.2-7.1 1a31.3 31.3 0 0 1-7.5 1.6c-1.4-.2-.3-.6 4-1.7l6.2-1.5 1.5-.4-2.1.1c-1.1 0-4.2.6-6.7 1.1-6.2 1.4-6.6 1.5-6.8 1.1-.1-.1-.1-.3 0-.4l3.8-.9c4.9-1 5.1-1 5-1.2-.1 0-2.2.2-4.6.7-2.4.5-4.4.8-4.5.7-.4-.4.5-.8 3.8-1.4a16 16 0 0 0 3.6-1c.2-.2 1.1-.4 2.1-.5 1.4-.2 2-.3 2.3-.7.2-.4 1.2-.8 2.4-1 2.5-.7 3.3-.8 3-.2 0 .3 0 .6.2.7.6.3 0 .7-2 1-1 .1-2 .4-2.1.6a24.1 24.1 0 0 1 6-.2c.7.2.2.6-1.2.9l-1.2.2h1c1 .1 2.4 1 2.4 1.6 0 .2.1.6.4.9.4.4.3.5-.1.7-.4.3-.6.3-.8 0 0-.1-.6-.2-1.5 0-1.6.2-1.9.3-1.9 1 0 .4-.2.5-.8.6-.6 0-1 0-1-.3-.2-.5-1-.4-4.1.7-2.5.8-3.2.9-3.2.3zm74.7-.1c0-.2 0-.3.2-.4 2.5-.8 3.2-1 3.5-.7.4.4 0 .8-1.3 1.1-1.4.3-2.2.3-2.4 0zM61 90.6c-1.1-.2-1.7-.4-1.7-.6 0-.6.3-.7 2.2-.4 1.6.2 1.9.2 2.3-.1.3-.3.6-.4.7-.3.3.4.1 1.1-.4 1.4-.6.3-.8.3-3.1 0zm33.5-.4V88c0-1.6 0-2-.2-2-.2.2-.3.5-.3.8 0 .4-.2.9-.4 1.2-.3.4-.4.4-.5 0v-1.8l.4-1.4-1-.5c-.5-.3-.9-.7-.9-1 0-.7.4-.6 2.1.2 1.4.7 1.5.9 1.7 2 .4 2.2-.2 5.5-1 4.8zm7.7-.5c0-.4-.2-.7-.5-.8-.7-.2-2.3-.2-2.6 0-.6.3-.6-.4 0-1 .6-.7 3.2-1.4 4-1.1.4.1.5 2.6 0 3.2-.3.6-.9.4-.9-.3zm-36.3-.3c-.3-1-.3-1.4.2-1.4.6 0 1 1 .6 1.6-.3.7-.4.6-.8-.2zM82.1 87c-.1-.3.7-.8 1.3-.8.3 0 .4.2.4.4 0 .6-1.4 1-1.7.4zm9.3 0c-.2-.3.3-.6.6-.4.3.2.1.7-.2.7l-.4-.3zm13.8-.6a6 6 0 0 1-.6-1.2c-.2-.7-.5-.7-2.5.1-1.6.8-2.7.7-2.1 0 .2-.2.4-.4.6-.4.4 0 3.8-1.7 4.5-2.2.7-.5 1 0 .7 1.2-.2.9-.1 1.1.3 1.6.3.3.5.7.4 1 0 .6-.9.6-1.3 0zm-6.7-.8c-.2-.5.3-1.2.9-1.2.5 0 .4.6-.2 1.2-.5.4-.5.4-.7 0zM8 83.5c-.2-.5 0-.7 2.2-1.2 2.4-.6 3-.9 3-1.3-.2-.2 0-.8.4-1.4.8-1.4.5-1.5-.4-.2-1.4 2-1.6 2.2-2.1 2.2-.3 0-.5-.1-.5-.3a12 12 0 0 1 2.4-3.4l.9-1c.3-.7.3-.8-.2-1.4l-.5-.6.2.8c0 .7 0 1-.8 1.9l-1.6 2c-.9 1-1.4 1.2-2.3.5-.5-.4-.6-.6-.3-1 .2-.4.6-.7.9-.7.3 0 .6-.2.6-.5.1-.3.4-.5 1-.5.3 0 .8-.3 1.1-.5.8-1 .2-1.2-2.6-1.2-2 0-2.4-.1-2.4-.4 0-.3.3-.5.8-.5 1.3-.1 1-.5-.4-.7-1.7-.3-1.9-.3-1.9-1 0-.5.1-.5 1.6-.4l3.2.6c1 .3 2 .4 2.6.3.8-.2 1.2 0 2 .5l1.3.6 1.4.8c.6.4 1.5 1 2 1.1.9.3 1 .3 1.3 0l2-2.5c1.4-2 2.3-2.5 3.1-2.2.8.3.4 1.6-1 3.6-1.4 1.8-2 3.2-1.6 3.7.3.5-.4 1.4-1 1.4-.3 0-1 .3-1.3.7-.7.6-1 .7-2.5.8-2 0-3 .2-6.7 1.2-3 .8-3.7.9-3.9.3zm9.6-5.3c.5 0 .4.4-.3 1.3-.8 1-.8 1.2.2.8.6-.2 2-2 1.7-2.2-1.1-.8-1.8-1.1-2.9-1.1-1.2 0-1.7.2-.8.5.3.1.3.3-.3 1.5-1 2-.8 2 .7.6.8-.8 1.6-1.4 1.7-1.4zM6.2 81.9l.1-.8c.2-.3.3-1.1.3-2 0-1.5.5-2.4 1.1-2.2.3.2.4.4.2 1.3l-.5 2.5c0 .9-.3 1.3-.6 1.4-.2 0-.5 0-.6-.2zm99.7-.3c-.5-.5-.4-.9 0-1.3.3-.2.8-.8 1.1-1.4.4-.6.8-1 1-1 .5.3.2 1.8-.5 3-.8 1-1.1 1.2-1.6.7zm-68-3.9c-.4-.5.1-.6 3.4-1 1.3 0 2.1.2 1.7.6-.3.3-4.8.6-5 .4zm-18.2-2.4v-.6c.1-.3 0-.5-.6-.5-.5 0-.8-.3-.9-.8-.2-.6 0-.8.4-1 .3 0 .8-.3 1.2-.6.7-.6 2.8-1 3.2-.5.5.4-.7 1.7-1.8 1.9-.6 0-1 .2-1 .5-.1.3 0 .4.5.3.9-.1.9.3.1 1-.6.6-.9.7-1.1.3zm31.1 0c-.5-.3-.3-1.7.3-1.8.4-.1.5 0 .5.8 0 1-.3 1.3-.8 1zm55.4 0c-.2-.4.9-1.6 1.5-1.6.7 0 .6.6-.1 1.3-.7.6-1.1.7-1.4.3zm-2.7-.8c-.3-.7 2.6-2 3.1-1.4.3.2 0 .5-1 1-1.7.7-1.8.8-2 .4zM31 72.2c0-.2.2-.4.5-.3.6.1.7.7 0 .7-.2 0-.5-.1-.5-.4zm-3.9 0c-.2 0-.3-.4-.3-.7 0-.4.2-.5 1.3-.5 1.4 0 1.8.4 1.3 1-.3.3-1.6.5-2.3.2zm33.3-.3c0-.3.2-.6.5-.7.3-.1.6-.4.7-.7 0-.3.6-.6 1.2-.8.8-.3 1-.2 1.7.1l.7.8c0 .4-1.4 1-2.4 1-.4 0-1 .1-1.2.4-.7.5-1.2.5-1.2-.1zm46-2.4-.8-.1.5-1.6c.2-.8.4-2.4.4-3.8 0-2 .1-2.4.5-2.4.4-.1.4.2.5 2v3c-.2.8-.2 1.2.1 1.7.5.7.4 1.4-.2 1.4l-1-.2zm-15-1.5c0-.5 1.3-3.3 1.6-3.3.5 0 .5.8-.2 2.2-.4.9-.8 1.5-1 1.5-.3 0-.5-.2-.5-.4zm11.5 0c-.2-.3 0-.7.4-.7l.2.4c0 .4-.3.6-.6.3zm-88.1-.6c-1.8-.5-3.6-1.8-3.6-2.6s1-.9 1.5-.1c.5.7.8.7 1.1-.1.2-.4.5-.7.7-.7.2 0 .4-.1.4-.3 0-.3-.4-.3-2.8 0-1.1.2-2 .2-2.1 0-.5-.5.3-.7 3.8-1 2.8-.3 3.5-.3 3.8 0 .3.2.2.3-.1.6-.2.2-.5.5-.5.8-.1.4-.4.6-1.1.6-1.1.1-1.4.6-.4.6.4 0 1.2 0 1.9.2 1.1.1 1.2.1 1.5-.6.2-.6.3-.7 1-.5l2.5.2h1.5l.1.9v1c-.2.3-1.8.4-4.5.4-1.3 0-2.2.1-2.7.4-.9.4-.9.4-2 .2zm79.9-.5c-.3-.6-.2-1.4 0-1.5.4-.2 1.4.9 1.4 1.5s-1.2.6-1.4 0zM78 66c-.2-.4 0-.5 1.9-.7 1.4 0 1.7 0 1.7.3 0 .2-.2.4-.4.5-.7.3-3 .2-3.2-.1zm-12.7-.5a1 1 0 0 0-.7-.6c-.9-.3-.3-.9 1-1.1 2-.3 2.3-.1 2 .8-.4 1.2-2 1.8-2.3 1zm9.7-.7c0-.5 1.2-1 2.5-1.3l2.5-.6c2.7-.7 2.7-.7 2.6-.2 0 .4-.6.7-2.8 1.2-1.5.4-3 .8-3.3 1-1 .4-1.5.4-1.5 0zm-49.4-.5.1-.7c.4-.4 1.2 0 1.1.5-.1.6-1 .7-1.2.2zm48-2.6c-.3-.4-.4-.6-.1-1.1.4-.9 1-1 1.5-.5.6.5.7.4 6.2-.6 3.4-.7 4.7-.7 4.7 0 0 .6-1.2 1.3-1.8 1.1l-2.2.1c-2.6.4-6.7 1-7.3 1.2-.3.1-.8 0-1-.2zm36.6-.7.6-1.8a15 15 0 0 0 1.3-4.7c0-1 .4-1.7.8-1.3.7.8-1.2 8-2.2 8.3-.3 0-.5-.1-.5-.5zm-21.2-.8c0-.6 1.1-1.1 3.1-1.6 1-.2 1.4-.4 1.4-.8 0-.8 1.8-1.1 2-.4.3.7 1.5.5 3.5-.5 1.8-1 2.7-1.2 2.7-.7 0 .6-.6 1.6-1 1.6l-1.6.4-4.2 1c-1.7.2-3.5.7-4 1-1.4.7-1.9.7-1.9 0zm14.1-2c-.2-.6.7-2.2 1.2-2.2.3 0 .4.1.3 1-.3 1.4-1.1 2.1-1.5 1.2zm-21.6-1.8-.1-.5c.9-.6 2.2-1 2.6-.8h2.2c2.5-.3 4.3-.5 6.5-.6 1.8 0 4-.5 5.4-1 .6-.3 1 .6.4.9-1 .7-8.4 1.8-13 2l-3.3.2c-.4.1-.6 0-.7-.2zm19.7-1.2a27 27 0 0 1 1.8-5.4c.6-1.3 1.5-2 2.5-2.3.6-.1.9-.3 1-.8 0-.5.1-.6 1.1-.4 1 .1 1 0 1.2-.4.1-.5.3-.5 1.3-.4 1 .2 1.1.1 1.8-.6.8-1 .8-1.4.4-1.9-.5-.4.1-.8 1-.7.4 0 .5.2.4 1.8-.1 1.7-.6 2.6-1.3 2.6-.3 0-.3.1 0 .5.2.4.2.6 0 .9-.5.4-1.3 0-1.2-.7 0-.5-.3-.5-1.2 0-.4.1-1.4.5-2.3.6-3 .7-4.2 2-3.3 3.3.3.4.5.4 1.3.2 1.2-.4 1.3-.4 1.3.1 0 .4-.8.8-2.2 1.1-.6.1-.9 0-1.1-.3-.5-.7-.6-.5-1.1 1.5-.4 1-.7 1.7-1 1.7-.2.1-.4 0-.4-.4zm-10.9-1.6c-.3-.3-.2-.4.3-.8.6-.5.6-.6.1-.7-1.2-.4-1.7-.7-2-1.2-.2-.4-.1-.5.3-.7l1-.4c.5-.3 1 .1 1.5 1.6.1.5.4.9.6.9.4 0 .7.6.4 1-.2.3-1.7.5-2.2.3zm23-1.3c0-.8.6-1 1-.4.5.5.3.9-.4.9-.3 0-.5-.2-.5-.5zm-26.5 0c-.2-.4.3-1 .8-.8.5.3.5 1-.1 1-.3 0-.6 0-.7-.2zm27.7-6.8c.1-.7 1.7-1 2.7-.7 1.2.5.7 1-1.2 1-1.4.1-1.6 0-1.5-.3zm30.1 81.6c1.2-1.3 1.3-1.4 1.7-1 .4.5.8.7.5.2 0-.1.1-.6.4-1 .7-1 .5-1-.5-.3-.8.7-1.3.7-1.9.1-.4-.4-.6-.4-1.2 0-.7.3-.7.3 0 .4.4 0 .5.2.3.8 0 .4-.4 1-.8 1.3-.7.7-.8.9-.2.9.3 0 1-.7 1.7-1.4zm1.6.8c0-.5 0-.5-.4-.2l-.4.5c0 .2.2.3.4.3s.4-.3.4-.6zm2.1-.8c0-.8 0-1-.4-.9-.2.1-.3.5-.3 1.2.1 1.2.1 1.1.4 1 .2-.2.3-.7.3-1.3zm12.2 0v-1.3c.1 0 .4 0 .6-.2.3 0 .4 0 .4.4 0 .9.8.7 1.8-.3s1.1-1.7.4-1.3c-1 .4-3.1.9-3.8.9-.6 0-.8-.2-1-.5 0-.3-.4-.6-.9-.7-.5-.1-.7-.3-.6-.6 0-.3.2-.4.4-.4.8.3 4.8.4 5.7.2.7-.1 1-.4 1.7-1.5l1.1-1.3c.1 0 .3-.4.3-1 0-.4 0-.8-.2-.8l-.9.8c-.7.7-1.9 1-1.9.5l1-1c.8-.9 1.2-2 .8-2.5l-1.7.2-1.5.3v1.1c0 .6.2 1.3.4 1.5.6.7 0 .8-2.3.6-3-.2-3.8-.4-3.8-1 0-.3.2-.3 3.1.2.7 0 1 0 1-.3.3-.7-.5-1.2-1.6-1.2s-1.7-.3-1.7-.7c0-.4.2-.4 1.3-.3 1.6.3 2 0 1.5-.6-.3-.3-.7-.5-.9-.5-.6 0-.8-1-.4-1.6.5-.5.6-.5 2.7-.2 2.7.4 2.7.9 0 .8-1.2 0-1.8 0-1.6.1.2.2.5.2.7.1.2 0 .6 0 .9.2.3.2 1.4.3 2.4.3 2 0 2 0 2.3 1l.4 1.4c0 .6 0 .6.3.1s.2-6-.2-6.4a6 6 0 0 0-2 .4c-2.4.7-5 .8-5.6.2-.3-.4-.3-.5 0-.7.3-.1.1-.3-.6-.6-1-.4-1.3-1-.6-1l1.6.4c1.6.6 5 1 5.5.7.4-.2-.6-.5-2.5-.6-.6 0-1.1-.2-1.2-.4 0-.3.3-.4 1.9-.3 3.2.1 3.4 0 3.4-.8 0-1 0-1-1-.4-.8.4-3.9.8-4.3.5-.5-.3.2-1 .9-.8.6.2 2.7-.3 2.9-.6 0-.2-.9-.2-2.1-.1-2 .1-2.4.2-3 .8-.7.7-1 .7-1.4.2-.2-.3-.2-.5.1-1.1.4-.6.6-.7 1.3-.5l.9-.1c0-.2.8-.3 1.5-.3 2.2 0 3.1-.2 3.1-1 0-.7 0-.7-3.4.1-1.7.4-2.8.3-2.6-.3 0-.1.5-.3 1-.3.9-.1 2.3-.4 4.3-1 .5 0 1-.3.8-.4 0-.2-.4-.2-.6-.1l-3.3.4c-1.6 0-3 .3-3.2.5-.5.4-3.5.2-4.8-.3-.5-.2-1.2-.2-1.7-.2-.7 0-.8.1-.5.5.4.5 3.8 1.3 5.8 1.3 1.5 0 1.3.6-.2.7-1 .1-1.1.2-1 .6.2.6-1 1.9-1.7 1.9a58 58 0 0 1-9.9-2.4c-.3-.2-.6-.2-.8 0-.2.2-.1.3.1.4 2.1.6 3 1 3 1.4 0 .6 1.3 1 3.6 1.3.8.1 1.5.3 1.5.5 0 .5-2.3.4-4.4-.2l-2.2-.5s-.2.3-.2.7c-.1.5 0 .7.4.8 2.3.5 3 .6 4 .6.6 0 1 .1.8.4-.1.5-6.2.1-8-.5-.3-.2-.4-.1-.3 0 .1.2.7.4 1.2.5.6.1 1 .3 1.1.4.1.1 1.3.5 2.7.7 1.8.4 2.5.6 2.5 1s-1.4.3-4.2-.2c-1.7-.4-2-.4-2.3 0-.3.3-.7.4-1.1.2-.3 0-.1.2.5.6.6.3 1.1.8 1.1 1 0 0 .7.2 1.5.2 1.4 0 2 .3 1.4.6l-1.6.2c-1.3 0-1.7.4-.7.5.7.1 1 1 .3 1-.9 0-3.5-1.4-3.5-1.9 0-.2.1-.4.3-.4.2 0 .2-.1 0-.3-.4-.5-.8-.1-1 1 0 .5-.3 1.5-.5 2.2-.2.7-.3 1.3-.2 1.4l2.2.1c1.6 0 1.8 0 1.3-.2-.4-.2-1.2-.2-2-.2-1 .2-1.2.2-1.2-.3s.2-.6 1.6-.5c2.4 0 3 .2 3 1 0 .6 0 .6 1.4.4l1.8.1c.5.4 2-.5 2-1 0-.3.6-1.3 1.2-2.3 1.8-2.8 2.6-4.3 2.5-5-.1-.8.2-1.2 1-1.2.6 0 .9.4.9 1.5 0 .3 0 .6.2.6 1-.2 1 .5 0 3.6a12 12 0 0 0-.9 5c0 2.9.6 4.7 1.5 5 .9.3 1.2-.1.4-.5-.7-.4-.9-.8-.4-1 .3-.2 4 1 4 1.2l-.5.4c-.3 0-.7.2-.9.4l-1.2.5c-.8.4-.7.4.8.5l2 .2c.2 0 .3-.4.3-1.3zm-1-5c-1.6-.2-2.2-.6-1.8-1 .2-.3.5-.3 1 0l3.1.2c2 0 2.4 0 2.4.4 0 .3-.3.4-1 .4l-1.5.1h-2.1zm-18.5-3.6c-.4-.2-.5-1.2-.1-1.2.6 0 1 .4 1 .9s-.3.6-1 .3zm29.7 9.6-.3-1.3c-.4-1.1-.5-1.2-1.5-1.4-.5 0-1.1-.3-1.3-.6-.3-.4-.2-.4.9-.3l1.2.2v-.9c0-2-.6-2.2-1.8-.4-1 1.4-3 3.5-4.3 4.1-1.6.9-1 1 3.2.8 2.1 0 3.9-.2 4-.2zm-4.7-.7c-1-.5-.2-.8 1.5-.6 1.2 0 1.7.3 1.7.5 0 .4-2.1.5-3.2 0zm-100 .5c0-.1 1-.2 2.4-.2 2.4 0 2.4 0 1.8-.5-.5-.5-.5-.6-.2-1 .2-.2.6-.4 1-.4.8 0 1.7-.5 1.5-.8l-1-.2c-.5 0-.7-.2-.7-.4 0-.6-.5-.5-1.3 0-.7.6-2.9 1.1-3.4 1a.5.5 0 0 1-.4-.5c0-.2-.3-.4-.8-.5-.7 0-.8 0-.6.6l.3 2c.1 1 .2 1.2.8 1.2.3 0 .6-.1.6-.3zm17.3-.3c0-.3.1-.8.6-1.4.3-.5.6-1.2.6-1.7 0-.8.4-1.3.8-1 .3.4.1 2.3-.4 3-.2.4-.4.7-.3.8l2-.1c2-.1 2-.1 1.8-.8l-.2-4-.1-3.5c-.1-.1-.7.1-1.5.6l-1.5.8-.6.3c-.2.4-.2.4.5.4l1 .2c.2.3-.4.9-.9.9s-2 1.2-2.7 2.4c-.6 1-1.7 1.7-5 2.8l-1.7.6c-.3.2 1.3.3 3.6.2 4 0 4.2 0 4-.5zm3-1.3c-.1-.1 0-.8.2-1.5.4-1 .4-1.5.2-2.4-.4-1.2 0-2 .6-1.8.4.1.5 3.7 0 4.7-.4 1.1-.8 1.5-1 1zm64.8 1.4c0-.3 0-.9-.3-1.4l-.3-.9-.1 1.3v1.4c.2.2.5 0 .7-.4zm1.6.2s0-.3-.2-.4c-.1 0-.2 0-.2.3 0 .4.1.5.4.1zm23.6-.3c0-.7.7-1 1.3-.7.5.3.7.3 1.2-.4 1-1 1.2-2.7.5-3.6-1.6-1.9-2.9-5.6-2-5.6.2 0 .5.3.6.5.3.4.3.3.2-.5-.2-1.2-.9-2.9-1.2-2.9l-.7 1.3c-.2.8-.7 1.8-1.1 2.4-1 1.4-1.2 2.3-.6 2.5.6.2.5 3.7-.1 3.8-.3 0-.4 0-.4-.3s-.2-.4-.5-.3c-.4.1-.7 0-.8-.3-.3-.4-.3-.4-.7 0-.6.7-.5 1.5.1 2.5.5.9 1 1 1 .2 0-.4.7-.7 1-.5v1c-.2.8.1 1 .7.3.5-.7 1.1-.5 1 .3-.2.5-.2.6.1.6.3 0 .4-.1.4-.3zm-.6-3.6c-.1-.2-.3-1-.3-1.7-.1-1.2-.1-1.5.2-1.6h.6l.2 3.2c0 .4-.5.4-.7 0zm-103 3.3c.3-.3.8-.4 1.1-.4.7 0 1-.3.8-.6-.1-.2-2.2.5-3.2 1-.5.3-.5.3.2.3.3 0 .9-.1 1.1-.3zm25.3-.6.7-.7-.9.5-.8.7c0 .4.4.2 1-.5zm82.7-.4c.1-.1 0-.2-.1-.2-.2 0-.3 0-.3.2l.1.3.3-.3zm2.2 0c1-.6 2.7-2.7 2.7-3.3 0-.4-.3-.6-1.1-.8-.8-.1-1.2-.4-1.2-.7-.1-.5 0-.5.8-.3.6 0 1.2.2 1.4.3.2 0 .4 0 .4-.4s-.2-.6-1-.7c-2-.3-3.4-.7-3.8-1-.6-.7 0-.9 1.1-.5l2.5.4 1.4.2.2-1.3V107c.2-1.8.4-5.1.4-7.4v-4h-1c-1 0-2.8-.2-7.8-1.1a9 9 0 0 0-2.2-.2c-.6.3.7.6 6.3 1.6.9.1 1.7.2 1.8.1.3-.2 1 .4.9.7-.1.2-1 .3-2 .3-1.4 0-1.9 0-1.9.3s.5.5 1.2.6c1.4.2 2 .6 1.9 1-.3.3-2.8 0-3.8-.4-.8-.4-1-1-.4-1 .3 0 .7-.1.7-.3.3-.3-.6-.6-2.3-.9-.8 0-1.6-.3-1.8-.4-.4-.3-.5-.2-.3.5l.2 4c0 3.1.2 4.2.6 3a11 11 0 0 1 2-3.9c1-.7 1.9-.5 2.2.6.2.7.3.8.8.7.5-.2.8-.5 1-1l1.5.2c1.8.4 2 1 .3 1-1 0-1.1.1-1.1.7 0 1.5-.7 2.7-2.3 4.3l-1.6 1.7.4.6a9 9 0 0 1 1.1 4.2c0 .9-.2 1.3-1 2.1-.9 1-.9 1-.7 2.6.2 1.8 1 4.4 1.9 6.3.3.8.6 1.7.6 2.2 0 1 0 1 1 .5zm-1-8c-1.8-.4-2.6-1-1.4-1.2 1.3-.1 4.2.6 4.3 1.1 0 .5-.4.6-2.9 0zm-30.2 6.1c-.1-.2-.2-.1-.2.2 0 .3 0 .4.1.3v-.5zm-1.2-.7c.1-.7.3-1 .7-1.2.3 0 .5-.4.5-.7 0-.3.2-.5.5-.5.4 0 .6-.4 1-2.2a79 79 0 0 1 .7-3.2c-.4.2-1.3 2.2-1.9 4-.4 1.5-.5 1.5-1.5 1.6-1.1.1-2 .7-2 1.4 0 .5.2.5.6.3.8-.4 1.1-.1 1 .8-.2.4-.1.8 0 .8l.4-1zm-77.2-2.1 4-1.7-.8-.1c-2.3-.1-2.7-.2-2.8-.6 0-.3.2-.6.5-.7.3 0 .6-.3.8-.5.3-.3.2-.3-.4-.1-.5 0-1.2.4-1.7.6-1 .6-1.4.3-1.5-.9 0-.6.1-1 .6-1.2 1-.6.6-.7-.7-.3a7 7 0 0 1-1.7.4c-.7 0-.8.5-.5 2.2.1.7.3.8.8.7l.8.1c.1.3-1 1.8-1.4 1.8-.3 0-2.2 1.8-2.2 2 0 .5 2.7-.3 6.2-1.7zm-7 .2c.5-1 .7-3 .3-3.3-.3-.1-1 1.8-1.2 3.4-.3 1.3.3 1.3 1 0zm58.6.6c-.1-.2-.5-.3-.9-.3h-.7l.7.3c.9.3 1 .3.9 0zm19-.4c-.1-.6-.4-.7-1.3-.8-1.4-.2-2 0-1.8.5.2.4 1.4.9 2.5 1 .6 0 .7-.2.6-.7zm28-2c.3-1 .4-2 .3-2-.2-.3-1.1 3.3-1 3.8.2.5.3.3.8-1.8zm-88 1.4c.1-.4-.1-.5-.8-.2-.6.2-.5.6 0 .6.4 0 .7-.1.7-.4zm89-.4c-.2-.2-.2-.2-.2.2 0 .2 0 .4.1.3v-.5zm-3.2-.3.5-.8c.4-.4.4-.6.1-1-.3-.4-.2-1 .6-3.2 1.4-4 1.4-3.8.5-4.7-.7-.8-.7-1-.8-3.7 0-2.8-.4-5.8-1-6.8-.2-.4-.3 0-.6 1.9a20.2 20.2 0 0 0 0 10.8l.2 4.7v3.2c0 .3.5 0 .5-.4zM68.6 120c-.3-1.3-.4-4.6-.1-4.8.2-.1.4 0 .5.1.2.3.5.3 1.6-.2l1.8-.6c.2 0 .3-.2.1-1l-.1-1c-.2-.2-4.2 1.4-4.7 2-.6.5-.6.6-.3 2.7.5 3.2.5 3.4 1 3.4.3 0 .4-.1.2-.6zm104.6-.2c0-.2-.2 0-.2.3 0 .4.1.5.2.3v-.6zm1.1-2.5c0-.7-.7-.4-.9.4-.3 1.5-.1 1.8.4.9.3-.5.5-1 .5-1.3zm-121.7.3c.4-.1.7-.5.9-1 .1-.4.3-.7.5-.7l.5-1.1c.2-.9.2-1.3-.2-2.3-.5-1.5-.3-2.6.4-2.9.6-.2.7-.8.3-2.7-.2-1-.5-1.6-1.4-2.3-.5-.5-1.3-1-1.7-1.2-.6-.3-.7-.7-.4-1.3.2-.2.4-.3.6-.1l1.8.2c1.6 0 2.1.5 1 1l-.5.1.7.4c.7.4.8.6.9 1.9.2 2.2.2 5 0 5.8-.2.5-.1 1 .2 1.6l.4 1.4c0 .5.4.5.7 0 .2-.4.5-.4 1-.3.5.1 1.5.3 2.4.3 1.4 0 2 0 4.9-1.3a95 95 0 0 1 4.3-1.7c1.4-.5 1.5-.4-1.6-2.7a76 76 0 0 0-5-3.7c-.5 0-1.2-1-1.2-1.7 0-.4-.2-1.2-.5-1.6-.4-.8-.7-.9-2.4-1.2-1-.1-2.3-.3-2.7-.2-1.4 0-2 0-3.6-.2-1.1-.1-1.8 0-2.9.4-1.3.4-1.4.5-.9.8.4.1.6.5.6.7 0 .5-1 .5-2-.2-.8-.4-1.2-.5-2-.4-1.5.2-3.8 1.4-4.3 2.2-.2.3-.6.6-.8.6-.8 0-1 .7-.7 2.5.4 2 .7 2.4 1.9 2 1.3-.5 1.6-.7 1.6-1.4 0-.8.2-1 .7-.7.3.1.3.6.2 1.6-.1 1.2-.1 1.3.4 1.3.6 0 .7.5.1 1.2-.6.8-.5 1 .2.4l1-.5c.5 0 .3.6-.5 1.4a7 7 0 0 0-1.2 1.5c-.4.7-.6.8-1.6.8s-1.3-.2-1.7-.7c-.3-.4-.6-.7-.8-.7-.6 0-.2-.6 1-1.7 1.3-1.2 1.4-1.8 0-1-.7.4-.8.4-1.2 0-.4-.4-.6-.4-1.9 0-1.7.4-1.8.5-1.4 1.2l.7 1.6c.5 1.2 1.1 1.5 3.8 1.8l2.7.4c.7.2.7.1.6-.4-.2-.7 1-2.5 1.8-2.7.5-.2.5-.3.4-1.5l.1-1.5c.5-.3.8.4.8 1.7 0 1.7-.2 2.4-.9 2.5-.5 0-.6.2-.6 1 0 .9.1 1 .6 1 .7 0 2 1.2 2 1.7 0 .9 1.3 1 3.9.6zm-1.5-.8c-.2-.5 1.4-2.3 2-2.3 1.2 0 .8 1.3-.6 2.1-1 .7-1.2.7-1.4.2zm-3.3-2.2c-.7-.7-.7-1.4 0-1.4.2 0 .3-.5.4-2 .1-3.3.6-2.5.7 1 0 1.7 0 3.1-.2 3.1l-.9-.7zm2-1.4c0-2.3.1-3.4.6-3.4.4 0 .4.2.3 1.6l-.2 2.6c0 .8-.1 1-.4 1-.3 0-.4-.3-.4-1.8zm1.5.8c0-1 .3-1.8.7-1.8.6 0 .4 2.2-.2 2.3-.4 0-.5-.1-.5-.5zm9.7-1.4c-.3-.7-.4-6.3-.1-6.3.4 0 .6 1.1.8 3.6.1 2 .1 2.5-.2 2.8-.3.2-.4.2-.5 0zm-3.5-1.1c-.2-.6-.2-5.1 0-6 .1-.2.3-.5.5-.4.2 0 .3 1.2.4 3.4 0 2.7 0 3.4-.3 3.4-.2 0-.5-.2-.6-.4zm1.6-.2a43.2 43.2 0 0 1 0-7c.4 0 .5.5.8 4.7.1 1.6 0 2-.3 2.3-.3.3-.4.3-.5 0zm3.8-.2a9 9 0 0 1 0-4.2c.4-.7.7-.1.7 1.5 0 1 .1 1.5.3 1.6.5.1.4 1.3 0 1.5-.6.2-.6.2-1-.4zm2.5-.9c-.3-.3-.5-1.5-.2-1.5l.8.4c.7.5.8 1 .2 1.3-.5.2-.5.2-.8-.2zm-13.7-1.6a5.7 5.7 0 0 0-1.6-1.5 5 5 0 0 1-2.1-1c-.1-.2-.4-.3-.7-.3-.6 0-.8-.4-.6-1 .2-.7 1-.7 1.6 0 .4.4.5.4.7 0 .3-.5.8-.4 1.4.2.3.3.6.5 1 .4.5-.2.8.3.4.8-.3.4-.2.6 1 2.2.8 1 1 1.6.4 1.6-.1 0-.8-.6-1.5-1.4zm-2-3-.3-.2-.2.1c0 .2.1.3.2.3l.3-.1zm8.7-2-.2-.8c0-.2-.2-.4-.4-.4-.9 0-.3-1 .6-1 .6-.1 1 0 1.9.7 1 1 1.4 1.6.6 1.6l-1-.4c-.5-.4-.6-.4-.8 0-.1.4-.5.5-.7.2zm-8.9-.6c.1-.6.7-.7 1.2-.4.6.3.2.8-.6.8-.5 0-.7-.1-.6-.4zm75.2 14c.1-.3.6-.4 3.3-.3 3 0 4.8-.2 4.8-.6 0-.3-1.2-.6-2-.4-.7.2-1.6-.3-1.3-.7 0-.1 1.3-.2 2.8-.2 1.6 0 2.6-.1 2.6-.3 0-.1-.7-.2-1.7-.2-1.4 0-1.7-.1-1.7-.4 0-.2 0-.4.2-.4s.3-.1.3-.3c0-.4-2.2-.3-2.7.2-.6.5-1.5.5-6.2.2l-2.7-.2.3.8c.2.7.4.8 1 .7.6-.1.8 0 .8.2 0 .5-.3.6-1.8.9-1.2.2-.8.6 1 1 2 .5 2.8.5 3 0zm-6-.4c0-.1 0-.2-.3-.2l-.4.2c0 .2 0 .3.2.3s.3-.1.4-.3zm-42.3-1.3c0-2.1-.3-3.1-.8-3.1-.4 0-.5 0-.4.4a214.8 214.8 0 0 0 .4 3.7h.4c.3 0 .4-.2.4-1zm39.2.7c0-.5-.5-.8-1-.6-.3.2-.3.3 0 .6.4.5 1 .5 1 0zm-40.9-2c0-1.5 0-1.6-.7-1.6-.6 0-.7.1-.8 1 0 .8 0 1.1.2 1.1s.4.3.5.6c.3 1.1.8.4.8-1.2zm64.4-.8c0-.2-2.3-.9-2.6-.7-.2.3.4.7 1.2.8 1.4.2 1.4.2 1.4 0zm-133.6-1c.2-.1.3-.4.2-.5-.3-.3-1 .1-1 .6s.4.5.8 0zm22.6-.3c0-.2-.6-.3-1-.2-.8 0-.9 0-.4.1.4 0 .8.2.9.4.3.3.7 0 .5-.3zm106 .1-1.4-.2-1.9-.5c-.3-.2-1-.4-1.6-.4-.6 0-1.7-.3-2.4-.6-1-.4-1.2-.5-1.3-.1-.1.2-.3.4-.5.4s-.4.2-.5.5c-.1.5-.3.6-1.9.5-1.7-.1-2.3.1-1.1.4 1.2.3 12.3.3 12.5 0zm6-1.7c-.1-.2-.4-.3-.6-.3-.3 0-.4.1-.1.4.2.2.2.5.1.7v.6c.2.2.3 0 .5-.5v-1zm20.5 1.4a1 1 0 0 0-.6 0l.3.1h.3zm-25-.6c-.1-.2-.5-.3-1-.2h-.6l.8.2.8.2v-.2zm43.6-.3c.1-.1 0-.3-.4-.5-.3-.2-.5-.4-.5-.6 0-.5-1-1.8-1-1.4l.5 1.5c.6 1.2 1 1.6 1.4 1zm-146.7-1.2c-.2-.2-.4-.3-.5-.2-.4.2-.9-.4-1-1.4l-.8-3.1c-.6-2.1-.6-2.5 0-2.5.4 0 .6.3.9 1.9.3 1.7.6 1.3.4-.6-.1-1.6 0-1.9.3-1.9.5 0 .7.8.7 2.3 0 .6.2 1.3.4 1.7.5.8.5.6.1-2.1-.2-1.6-.2-2.3 0-2.5.5-.5-.2-1-1.6-1-1.1 0-1.3.1-1.5.7-.4 1-2.5 1.3-3.7.5-.3-.2-.9-.4-1.3-.4-.7 0-.8.1-1 1.7-.2.9-.3 2-.2 2.6.3 1.7-1 2.9-1.5 1.5-.2-.6-.2-.6-.5.2-.2.4-.3.7-.2.8l1 .4c.5.3 2.2.6 4.3.8 3.3.2 4.1.5 4.1 1.2 0 .5.6.6 1.3.1.4-.3.4-.5.3-.7zm-8.3-1.8-.2-.7c0-.6.4-4.1.6-4.5.3-.6.8 0 .8 1.1s.3 1.4.8.5c.5-1 .8-.5.8 1.3 0 1.5-.1 1.9-.4 1.9-.3 0-.6-.3-.7-.6-.2-.6-.2-.6-.5.2-.4 1-1 1.4-1.2.8zm109 2.6c-1.5-.6-2.9-.8-2.7-.3 0 .3 1.2.6 2.7.7h.8zm-13.7-.6c0-.4-1.7-2-2-1.8l.7 1.2c.7 1.1 1.4 1.4 1.3.6zM18 109l2.5-.9v-.8c0-.4-.1-.5-.4-.2l-.7.3c-.3 0-.3-.4-.2-2l.5-3c.3-1.2.4-1.2-.5-1.3-1.7-.3-1.8-.2-2.3.9a15.8 15.8 0 0 0-1.9 5c-.1 1.2 0 2.8.4 2.8l2.6-.8zm17.4.4 2-.4c1.7 0 1.7-.1 1.2-3.8l-.7-3.5-2-.3h-1.9l.2 2c.1 1.2.4 2.4.6 2.7.3.3.5 1 .5 1.6 0 1 0 1-.8 1-.6-.1-.7 0-.8.5 0 .7 0 .7 1.7.2zm43.6-.3c.5-.4.5-.4 0-.4a2 2 0 0 0-1 .4c-.5.4-.5.4 0 .4a2 2 0 0 0 1-.4zm46-.4c0-.2.1-.5.3-.6.2 0 0-.3-.5-.5-1.2-.6-1.4-.6-.7.1.4.4.5.8.4 1.1 0 .2 0 .4.2.4.1 0 .3-.2.3-.5zm16.5-.6c1-1.8 1-1.8-1.2-2.3-2-.6-2.7-1-2.5-1.4.2-.3.8-.2 3.4.6l1.8.5.8-1c.4-.4 1-.8 1.3-.8.5 0 .9-1.5.6-2.2 0-.2 0-.5.3-.7.3-.3.4-.9.4-2.2 0-2-.3-2.2-1-.6-.2.5-.5.9-.6.8h-.6c-.6.4-3 1.2-3.6 1.2-.8 0-1.8-1-2.5-2.5l-.6-1.2v1.4c0 1.1-.1 1.6-.6 2a8 8 0 0 0-1.2 4.5c0 .6.3 1 .6 1.3.7.5.7.7 0 1-.6 0-.7.7-.1 1.1.3.3 3.7 1.6 4.3 1.6.2 0 .6-.5 1-1zm-1-1.1c0-.2.2-.4.5-.4.2 0 .4.2.4.4s-.2.4-.4.4a.4.4 0 0 1-.4-.4zm-2-.3c-.3-.3-.3-.4 0-.5.6-.2 1.3 0 1.2.5-.2.5-.9.5-1.2 0zm5.2 1.6s0-.2-.2-.3c-.2 0-.3 0-.3.2 0 .1.1.2.3.2h.2zm-8.5-.4c0-.2-.4-.4-.7-.4a60 60 0 0 1-1.9-.2c-1-.2-1-.2-.6.1 1 .6 3.4 1 3.2.5zm19-.3c-.3-.2-.4-.6-.4-.9 0-.5-.2-.6-2-.9-1.6-.2-1.8-.2-2 .1-.2.2-.5.4-.9.4-.5 0-.5 0 0 .3.7.4 3.7 1.2 4.7 1.3.7 0 .8 0 .5-.3zm-23.7-1.4c-.5-.8-.5-1-.1-2 .4-1.3.4-1.5-.6-1.7l-2-.8c-2.1-1-4.2-1.8-4.4-1.6 0 0 .1.2.4.3.7.2 2.7 2.5 2.7 3 0 .6 1.2 1.6 1.8 1.6.2 0 .6.4.9 1 .5.7.8 1 1.6 1 .1.1 0-.3-.3-.8zm44.3.8c.1-.2-.8-1.2-1.2-1.2-.1 0-.2.3-.2.7 0 .5.1.6.6.6l.8-.1zm-152-3.5.5-2.3c.2-.2.2-.5 0-.7-.1-.3-.3-.3-1.1.1l-1 .6.1 1.7c0 1.6.5 2.6 1 2.6l.5-2zm123 2c0-.1 0-.3-.2-.4-.2 0-.3 0-.3.2 0 .1.1.2.3.2h.3zm-13.8-.5c0-.1 0-.3-.2-.4-.1 0-.2 0-.2.3 0 .4.1.5.4.1zm43-1c.3-1.3.3-4.5 0-4-.5.4-1.1.3-1.1-.2 0-.2-.1-.3-.3-.2v1c0 .6 0 .7-.5 1l-.7.2h.7c.8 0 .7 1.2-.2 1.3-.8.1-.7.6.1 1.2 1.1.6 1.6.6 2-.4zm7-.6c.5-1 .5-1-.2-1s-1.2 1-.7 1.4c.4.5.4.5.9-.4zm-111.5.1c.5-.3.7-.5.7-1 0-1 1.4-4 1.8-4.1.4 0 .4 0 0 1.2-.6 1.5-.6 2 .2 1.2.4-.4.6-.9.6-1.9v-1.3h-2c-1.2 0-2 0-2.3-.2-.4-.5-.5-.3-.1 1 .2.7.4 1 .7 1 .3 0 .4.2.2.8l-.3 1.4c-.2.8-.5 1.1-1 1-.3-.2-.4-.4-.3-.8l.3-1-.1-.8c-.4-.5-1 0-1.2 1-.2.6-.4.8-.7.8-1 0-.7-.7.9-3 .5-.7.5-.7 0-1.7-.5-.9-.5-1-.6-.3-.1 1-.3 1-1.3.8-.8-.2-1-.1-2.2 1.2-1.3 1.2-1.5 1.4-1.2 2l.4 1.4c.2.7.3.8 1.5 1l2.3.2a5 5 0 0 1 1.6.3c.9.3 1.2.3 2-.2zm-6.5-2.2c-.2-.3 2.6-3.4 3-3 0 0 0 .4-1 2-.6 1-1.7 1.6-2 1zm116 .3c.2-.4.2-.7 0-.9-.3-.3-1.5 1.5-1.7 2.6l-.2.8.8-1c.5-.5 1-1.2 1.1-1.5zm-55.3 1.9-.8-1.1c-.8-1-1-.7-.5.6.3.6 1.3 1 1.3.5zm31.4-.3c.3-.5 2.5-.6 5.4-.2 1.6.2 4.4-.4 4.5-1V100c0-1.2 0-1.5.4-1.7.3-.2.4-.6.4-1.4l-.1-1.3-1.2.5c-.5.3-2.4.8-4 1.2a24 24 0 0 1-6.5.7c-2.3 0-3.4.2-3.5.4-.1.3.7.6 1.7.6l1.6.4c.5.3 1 .4 1 .3.1-.1 0-.2-.3-.2-.2 0-.4-.1-.3-.4 0-.3.7-.4 3.8-.5 2.9 0 4-.2 5.2-.6.8-.3 1.6-.5 1.6-.3.3.4-1.4 1.2-3.6 1.5-2 .4-2.2.4-2.1 1 .1.4.3.4 1.5.3.7-.1 1.9-.5 2.6-.8 1-.6 1.2-.6 1.2-.2 0 .8-1.2 1.3-4.3 1.8-3 .6-4.6.5-5 0-.2-.3-1.3-.6-2.5-.8-2.6-.5-2.5-.5-2.3-.2l1.2.4c1.1.2 1.6.8 1 1.2-.4.3-1.7.2-2.8-.1l.4.3 4.4 1.4c.1 0 .4-.2.6-.5zm-23.4-1.1c.2-1.2-.2-1.2-.6 0-.4 1.3-.3 1.4.1 1 .2 0 .4-.6.5-1zm-1.7-.4c0-.2-.3-.4-.8-.5-1.2-.2-1.3 0-.2.5s1 .5 1 0zm-2.3-.8-.5-.2c-.2-.1-.3 0-.2 0 .2.3.7.4.7.2zm20-.5c.3-.4.5-.7.3-.7-.3 0-1.3.9-1.3 1.1 0 .4.3.2 1-.4zm-16.8-.4c.5-1 .4-1.1-.6-1-1.1.3-1.4 0-1.2-1.7.3-1.8 1.5-3.1 2.9-3.1h1l.6-3.1a76.4 76.4 0 0 1 1.5-6.1l.3-1.7c.3-.7.3-1 0-2-.4-1-.4-1.2 0-1.9l.8-1.4c.1-.4.5-.8.7-.9.7-.1 1.6.1 1.6.4 0 .2.4.3 1 .3 1 0 1.3.4 1.6 2.6.1 1.3.7 2.6 1 2.6.2 0 .6-.6.9-1.4.3-.9 1-2.5 1.7-3.6l1.2-2.4.8-1.2c1-1 1-1.7.3-2.3-.6-.5-1.8-.8-2-.5-.1.2 0 .3.3.3 1 0 1.4.3 1.4 1.3v1l-1.4-.2-2.2-.4c-.7-.1-.8 0-.8.3 0 .6-.8.9-3 1-1.7 0-1.9-.1-1.8-.5 0-.4.3-.5 1.2-.4 2 .1 1-.4-1.3-.7-2.6-.4-3.5-.8-3.3-1.4 0-.3-.3-.5-1.8-.7-2.4-.4-3.9-1-3.9-1.5s.4-.5 1.8 0c1.9.6 7.5 1.4 8.7 1.2l1-.2-1.7-.3-3.5-.6c-6.3-.8-12.7-1.8-14.3-2.3-.6-.1-.5-.9.1-.9l4 .7c6.9 1.3 15.7 2.6 15.3 2.2a74 74 0 0 0-9-1.8c-4.4-.7-5.1-1-5.3-2.2-.2-1.2 0-1.3 1.5-1l7.6 1.6.2.4c0 .5-.7.5-2.4.1-2.3-.5-5-1-5-.7 0 .2 3 .9 7 1.6 6.7 1.1 8.6 1.7 6.6 2-.7.2-.6.2.7.5 2 .5 4 .7 4 .4l-1-.8a8 8 0 0 1-2.1-2c-.5-.6-1-1.2-1.2-1.2-.2 0-.4-.4-.5-.8-.2-.5-.9-1.1-1.8-1.7-.8-.5-1.6-1.2-1.9-1.5a10 10 0 0 0-3.2-1.8c-.4 0-1.8-1.5-2-2.1-.1-.5 0-.6.6-.9.7-.2.7-.3.7-1.7 0-1.5 0-1.6-.7-1.6-.3 0-.9-.3-1.1-.6-.4-.5-.4-.6.1-1.4.4-.6.5-1 .3-1.1-.4-.3-.3-1.1.2-1.8l.5-.6 1.3.9 1.7.8 3 1 2.8 1.1h4.3c3 0 4.6.2 5.4.5 1 .3 1.2.3 2.7-.2 2.2-.7 4.7-.7 5 0 .5.7.5.7-.8 2-1 1.1-1 1.2-.4 1 2.8-.8 5 .3 4.2 2.3-.1.4-.7 1.1-1.3 1.7l-1 1.1.4.7a8 8 0 0 1 1 2l.7 2 .2 1.5c0 .6.1 1 .3 1 .3 0 1.8 2.5 1.8 3 0 .4.2.9.4 1.1.4.5.4.5.7 0a118.5 118.5 0 0 1 11 1c.6.3.4.7-.4 1-.7.2-.6.2.5.3l3.3.4 3 .4c.8 0 1.4.6 1 1-.2.2-5.5-.5-10.9-1.4-2-.4-4.5-.7-5.4-.8-1.9-.2-1.8-.3-.6 1.4.6.7.8.8 1.5.7a121.3 121.3 0 0 0 14 1.6c1.4.1 2 .3 2 .5l-1 .4a88.8 88.8 0 0 1-13.2-1.5 55.5 55.5 0 0 1 2 2.5c0-.1 0-.4-.2-.6-.5-.6 0-.7 2.1-.4a103.8 103.8 0 0 0 9.2.8v.3l-.8.5-.9.2h1.1c1.7 0 2.3 1.1.7 1.1-.4 0-.6.1-.4.2.5.2.4.8 0 1l-4-.1c-5.5-.5-5.7-.5-5.6-1 0-.5 1.2-.5 5.5 0 2.6.2 3.8.3 3.6 0l-8-1a6 6 0 0 1-1.7-.4c-.5-.2-.6-.2-.6.3 0 .9 1 2.3 1.7 2.6 1 .3 7.2 1.6 8 1.6.9 0 1.6.6 1.3.9-.3.2-1.9.2-3 0a55.5 55.5 0 0 0-5.3-1.3l-1.2-.2c0 .1 0 1 .3 1.8.2.9.4 2 .4 2.7 0 1 0 1 1.2 1.4l7.8 1.5c1.8.2 2.5.5 2 1v.5c.6.3.3.6-.5.8-.8 0-8-1-8.9-1.3-.2 0-.3-.3-.3-.4 0-.3.5-.3 2-.2 1.1.1 2 .2 2 0l-4.7-.9c-.4 0-.5 1-.2 1.6.3.3 3 1 7.5 1.6l3.7.6c.3 0 .4-.8.6-6.5.1-3.7.3-7.2.5-8l.2-9.4c0-4.6.2-9.1.3-10.1.4-2.5.5-9.3.3-21.5-.2-9.2-.2-10-.6-10-.3 0-.9 0-1.4-.2-.9-.4-3-.3-3 0 0 .2 0 .5.2.8.3.7 0 1-1.3 1.2-2 .3-2.8.3-3.6-.3a6.7 6.7 0 0 0-4.1-1.1c-1 0-1.7-.2-2-.5-.2-.2-.7-.3-1-.3-.8.2-4.6-1.3-5.8-2.2-1.4-1-.9-1.6 1.3-1.2 1 .2 1.5.2 1.7 0 .3-.3.2-.3-.1-.3-.3 0-.5-.2-.5-.7 0-.7-.3-.9-.6-.4s-2.6.3-3-.2c-.2-.3-.3-.3-.8 0l-1.2.2c-1 0-.9.3.4.9.5.2 1 .6 1.2.8.2.7-.4 1.2-1.5 1.2-.5 0-1 .2-1.3.4-.6.5-2.9.7-3.2.2-.5-.5-.7-.4-.9.2 0 .4 0 .5.7.6a137.6 137.6 0 0 1 5.5 1.1 226.2 226.2 0 0 1 15.7 3.5c1.1.1 1.8.7 1.4 1l-3.3-.6a298.7 298.7 0 0 0-28.8-5.6l-4.2-.8a85 85 0 0 0-19-2 85.3 85.3 0 0 1-17.5-1.4c-.9-.2-1-.2-1.4.4-.2.4-.4.7-.3.8.5.4 10 3 11.2 3l.1.4v.4a64.7 64.7 0 0 1-11.4-2.9l-1.1 1.3c-1 1.3-1 1.3-.4 1.3.4 0 1-.1 1.3-.4.8-.4 2.2-.5 2.6 0 .2.2 1.1.4 2.5.5 1.6 0 2.5.3 3.4.7 1.3.7 1.8 1.4 1.8 2.8 0 .7.1 1 .5 1l1.5.3c1.2.6 1.7.5 1.7 0 0-.4 0-.6-.2-.6s-.3-.3-.3-.6c0-.4.1-.5.9-.4a173 173 0 0 0 9 1.3c1 .2 1.7.1 1-.2a52 52 0 0 0-5-1c-1.2-.2-7.9-1.8-8.1-2-.2-.2-.2-.4 0-.6.1-.1 1.2 0 3 .4l3 .6h.6c.3.2 2.3.7 4.6 1.2 4.3.8 5.7 1.3 6 2l1.6.8c.8.2 2.3.8 3.2 1.3l3.6 1.5c5 2 7.8 3 11.5 4.9 4.9 2.3 8 3.4 8.7 3 .3-.2.7-.2 1.1 0a75 75 0 0 0 8.6 2c3.4.5 3.5.5 3 1-.2.3 0 .4 1.6.5l6.1.8c.2.1.3.3.3.5s.2.4.6.5c.3 0 .6.2.6.4.1.2-.3.3-1.8.3-2.5 0-9-.7-9.1-1-.3-.6-.8-.8-3.4-1.2-6-.8-12.3-2-13.6-2.4-.7-.2-1-.5-1-.9s-.1-.6-.5-.7l-2.1-.5c-1-.2-1.8-.2-2.1 0h-.9c-1-.4-3.5-.7-11-1.5l-8-.9c-.2 0-.4-.3-.4-.5 0-.3-.5-.4-2.7-.4-3 0-3.6-.1-3.6-.7 0-.2-.7-.4-1.8-.6l-2.6-.5c-1-.1-1.2.3-.6.9l.4 1.3c.2 1.6.4 8.3.4 12.3 0 3.2 0 3.8-.7 5.8-.6 2-.7 2.6-.7 4.9 0 2.8.5 8 .7 8.7.1.2 1 .7 1.8 1a64.5 64.5 0 0 0 10 3c.6.3.6.4.2.5-.7.3-3-.2-7.2-1.5l-4-1.2c-.4-.1-.7.2-.4.7.2.4 2.5 1 4.3 1.3 1 .1 1.7.7 1.3 1-.3.2-3.5-.3-4.5-.7-.6-.2-.6-.2-.5.5.2.6.1.8-.3 1-.3.1-.1.3 1 .8a8 8 0 0 0 1.9.6c.2 0 0-.1-.4-.3-1.2-.4-.9-1 .6-1 1.7 0 3.1.5 3.5 1 .1.3.5.6.9.7l1 .3c.3.1.4 0 .4-.2 0-.5.5-.6 1.4-.2l1.4.4c.7.1 1 .8.3 1h-1c-.4 0-.7 0-.7.2 0 .4-1 .3-2.3-.3L124 80c-.2 0-.1.2 0 .4.3.3.3.4 0 .6-.8.5 9.1 3.8 11.2 3.8l.2.4c0 .7-2.9.3-6-.8-3.8-1.4-9.3-3-9.5-3v1c.3.6.5.7 2 .9.9 0 1.7.2 1.9.3.6.4-.1.7-1.8.7-1.6 0-1.7 0-1.6.6.5 1.9.8 4 .8 6.7.1 3.4 0 3.4 2.8 4.4 1.7.7 2 1.4.7 1.3-.8 0-.8 0-.2.3 1 1 5.6 3 6.6 3l.7-.7zm-.5-9.7-1-.2c-.4-.1-.7-.4-.7-.6 0-.4-.3-.5-3.3-1-2.4-.2-3.7-.7-3.5-1.3 0-.2 1.1-.3 3.9-.2 2.4 0 3.7 0 3.6-.2-.3-.4-4.3-1-6.2-.7-2 .1-2.6-.1-1.6-.7 1.3-.7 9.1.2 10.1 1 .3.4-1.8 1.4-3 1.4-.8 0-.8 0-.3.3l2.2.4c2 .2 2.3.4 2.3 1.3 0 .6 0 .7-1 .6h-1.5zm46.7-3.4c-1.3-.4-1.8-1.2-.7-1.2 1 0 3.8 1 3.8 1.2 0 .4-1.8.4-3.1 0zm-48.2-7.5c-1.7-.5-2.6-1-2.2-1.3 0 0 1.3 0 2.6.3 3.1.6 3.7.8 3.8 1 0 .5-2.3.5-4.2 0zm11.1-2.6c-2-.3-2.6-.7-2.1-1.2.2-.2.6-.2 1.6 0l2.5.5c1.3.1 1.7.6.8 1-.4.2-.4.2-2.8-.3zm-20-8.2c.1-.6 1.2-.7 1.2-.1 0 .2-.3.4-.6.5-.5 0-.6 0-.6-.4zm7.7-4.5c-2.6-.4-4-1-4-1.5s.8-.6 1.5-.2l3.9.8c2 .4 3.3.7 3.2 1-.1.3-2.1.3-4.6-.1zm49.6-.5c-9.3-1.2-14.6-2.4-14.6-3.3 0-.5 1-.5 3.3.1 2.5.6 10.3 2 11.3 2 .9 0 1.6.6 1.3 1-.1.2-.3.3-.4.3l-1-.1zm.5-16.6a572 572 0 0 0-16-3c-1.6-.2-2.3-.6-2-1.1 0-.2.6-.2 1.4 0a111.2 111.2 0 0 0 11.2 2.3 2387.6 2387.6 0 0 0 8.6 1.7c.2.2-.2.7-.5.7l-2.7-.6zm-30-1.4-3-.4c-1.1 0-1.8-.4-1.4-.8.4-.3 9.4.8 9.6 1.3.1.4-2.2.4-5.2-.1zm32-.4-3.6-.5c-4-.5-9.2-1.5-9.6-2-.7-.7.2-.8 2.4-.3 3.2.7 8.2 1.5 9.6 1.5 1.9 0 3 .3 3.2.7.2.4-.3.9-.8.8-.2 0-.7 0-1.2-.2zm-135.5 55 1.7-.6 3.4-1.3c.4 0 .5-.4.6-3.1.1-1.8 0-3.2 0-3.2-.2 0-.3 1-.4 2.4a8 8 0 0 1-.3 2.5c-.5.5-.8-.5-.7-2.5v-2l-1.2.4-2.4.6c-.6.2-1 .5-1.2 1-.1.2-.5.6-.9.6-.7.2-6-.6-6.7-1-.7-.4-1.4-.3-1.4.1 0 .5 2.2 1.5 3 1.4.9 0 1 .6.1 1.2-.6.4-.6.4 0 .7a17 17 0 0 0 3.6 1.7c.6.2.9.4 1 .8 0 .7.4.7 1.8.3zm-.4-1.4a11 11 0 0 1 1.8-4.1c.5 0 .4.6-.3 2.4-.8 2-1.2 2.5-1.5 1.7zm2.4-.4c-.3-.5 1-5 1.4-5 .4 0 .4.4-.1 2.7-.4 2-1 2.9-1.3 2.3zM42 96.5c-.5-.5-.6-1.4 0-1.4.4 0 1.7 1.3 1.5 1.6-.3.4-.8.3-1.5-.2zm82.7 2.5c-1.6-1-2-1.2-1.9-.6.1.3 2.6 1.5 3.2 1.5.2 0-.4-.4-1.3-1zm11.2-1.2c.2-.7-.1-1.1-.7-1l-.9-.2c-.3-.1-.5-.2-.6 0-.3.2.4.9 1 .9s.6.7 0 1.2l-.3.9c0 .5 1.2-1 1.5-1.8zm-74.7 1.3c0-.3.5-.7 1-.8a2 2 0 0 0 1.1-1.2c.2-.5.5-1 .7-1 .3 0 .6-1.4.4-1.8-.3-.4-1.2.5-1.2 1.3 0 .4-.2.7-.7.9-.5.3-2.2 2.4-2.2 3 0 .4.7 0 .9-.4zm16-1.6c.1-1 .3-1.2.8-1.3.4 0 .5 0 .5.5 0 .3.3.9.5 1.2.4.7.5.7.8.2.2-.2.3-.9.3-1.5 0-.8.2-1 .7-1.2.8-.3.8-.4.3-1.3l-.4-1.2c0-.3-.2-.8-.4-1-.3-.5-.5-.5-3.5-.1a205.9 205.9 0 0 1-7.4 1c-1.4.2-1.4.2-1.3 1 .3 1.4.7 2.7.9 2.5 0 0 .2-.7.2-1.5.1-1.6.2-1.7.7-1.4.3 0 .4.5.4 1.5s.1 1.3.5 1.3h2.3c1.4 0 1.8 0 2 .4 0 .3 0 .6-.4.8-.8.6.3 1.4 1.9 1.3.4 0 .5-.2.6-1.2zm96.9.8c0-.2-.2-.3-.3-.3-.1 0-.3.1-.3.3l.3.3.3-.3zM56 98c.3-.2.4-.4.3-.6-.1-.2-.3-1-.3-2 0-1.8.2-2.5.8-2 .2.3.4.3.7 0 .5-.4 1 .2.6.9-.6 1-.3 1.2.6.3l.8-1a19 19 0 0 0-3.7-1.2c-.6 0-.8.7-.9 3 0 1.2 0 1.6-.4 1.6-.6 0-.8-1.2-.4-2.9.1-.8.2-1.6 0-1.8-.2-.5-.8 2.1-.8 4 0 1.1 0 1.5-.4 1.5l-.5-.2c-.1-.3.3-4.2.5-5.4.2-.7.1-.8-.3-.8-.6 0-.9 1.3-.9 4.5V98l1.2.1c2.2.2 2.6.2 3 0zm2.8-1.2.4-.9c-.2 0-1.4 1.7-1.4 2 0 .3.5-.1 1-1zm63.4.3c.2-.5 0-1-.5-1-.4 0-.5.3-.2 1 .2.5.5.5.7 0zm28.7.3c0-.2-1.9-1-2-.9l.6.6c.8.4 1.4.5 1.4.3zm10.2-.8a34 34 0 0 0 4-1.3l1.4-.6v-3.3l-1.1.4c-1.5.6-9.2 1.5-11.4 1.3-2-.2-2.5-.4-2.5-1s1-.8 1.5-.3c.2.3.8.5 2 .6l1.7.1.6-.9c1-1.7.9-1.8-2.5-1.8-3 0-3 0-3.3.7l-.3 1.2-.2 1c-.4.6 0 1.4.5.9.5-.5 1.2-.4 1.4.2 0 .4.4.5 1.6.7 2.2.2 7.3 0 8.5-.6 1.2-.5 1.7-.5 1.7 0 0 1-4 1.6-9.7 1.4a56.3 56.3 0 0 1-4.7 0l1.5.6c.4.2.8.5 1 .8 0 .3.2.6.5.6 1 .3 5.3 0 7.8-.7zm12.2.4c.4-.4.7-.9.7-1.2V95l-1 .7c-1.1.7-1.4 1.1-1 1.5.3.3.5.2 1.3-.3zm-160-.5c0-.2-.1-.3-.4-.4-.3-.2-.4-.1 0 .2.3.5.5.5.5.2zm119.4-.9c0-.4-.7-.2-1 .2-.2.8 0 1 .5.5l.5-.7zm-107-.3.1-.7-1.4.3c-1 .3-1.4.5-1.5.8 0 .4.1.5 1.4.4 1.3 0 1.4-.1 1.4-.8zm40.3.4c0-.3-.1-.6-.3-.7-.1-.1-.2 0-.2 0 0 .2 0 .5-.2.8 0 .2 0 .4.3.4.2 0 .4-.2.4-.5zm70.1-.5c.4-1.3.4-7 0-5.8-.8 2.4-1.3 5.5-1 6.1.3 1 .7.8 1-.3zm35.7 0c.9-.4 2.3-1.9 2-2.1 0 0-.4.1-.8.5l-1.6 1c-1.5.8-1 1.4.4.7zm-32-.6c.4-.2.3-.3 0-.8-.8-.7-1-.7-1 .3 0 .8.3 1 1 .5zm-74.1-1.1c-.1-.2-.2 0-.2.3 0 .4 0 .5.2.3v-.6zm103.1 0v.6-.6zm-27.8-.6c-.6-.5-.7-.7-.4-1 .2-.3.4-.3.8 0 1 .7 1.8 1 2.7 1.2 1.5.3 1.2-.1-.6-1-1.2-.6-1.7-1-1.8-1.4 0-.6.6-.9 1-.3.3.7 3.6 1.8 3.4 1.2 0-.2-.6-.4-1.2-.6-1.5-.5-2.2-.9-2.2-1.3s.2-.4.8-.3c.6.1.8 0 .8-.2 0-.3.4-.4 1.6-.4 1 0 1.6-.1 1.7-.4.2-.5 0-.7-1-.7-1.2 0-1.4-.4-.7-1.2l.5-.8c0-.4.7-.6 1.4-.6.3 0 .9-.2 1.3-.5 1.1-.5 1.6-.1 1 .8-.3.5-.8.7-1.4.8-1.1 0-1.6.7-.6.7 1.4 0 2.2-.5 2.9-1.8.6-1.5.6-1.8-.3-1.4a6 6 0 0 1-2 .3c-1.3 0-1.5 0-1.4-.5 0-.3.4-.4 1.5-.5 1 0 1.4-.2 1.6-.6.3-.5.3-.6-.3-.4-1.8.5-2 .5-2 0 0-.6 1.3-1.2 2.7-1.2.4 0 .7-.2.8-.5.3-.8.1-.8-1.2-.4-1.3.5-2.6.5-3.2.1-.3-.2-.3-.3 0-.5h.7c.5.1 2.2-.5 3.1-1.1 1.1-.8.6-1.1-.8-.6-.7.3-1.4.4-1.9.3-.7-.1-.9 0-1.5.8-1.1 1.3-1.8 2.7-2.9 5.8l-.9 2.6h-.9c-1.1 0-1.4.3-.8.8.3.2.5.4.4.5l-.9.5c-.4.3-1 1-1.2 1.6l-.5 1 1.2 1.1c.7.6 1.2 1 1.3.9l-.6-.8zm-97.4-.3c.2-.7 0-.6 6-2.2 5.5-1.5 7.5-2.2 7.8-2.6.1-.3.4-.3.8-.2.5 0 .8 0 1.2-.5.5-.5.8-.5 2 0 .2 0 .4 0 .4-.3 0-.6.7-1 1.1-.7.5.5 1 .3 1-.3 0-.4.1-.8.3-1 .3-.2.1-.5-.7-1.3-.6-.6-1.2-1-1.5-1l-1.8-.6c-1.2-.5-2.7-.7-2.7-.4l.3.9c.2.6.4.8.6.6.4-.3 2-.2 2.4.2.2.1.6.2.8.1.5-.2 1.2.3 1.2.9 0 .2-.2.3-.6.3-.4 0-.7.2-.8.3-.3.5-2 .3-2.5-.3l-.5-.5.1.7c.2.8-.5.9-1 0-.4-.7-.7-.3-.7.9 0 1.1-.4 1.5-.8 1-.3-.4-.3-1-.2-2 .2-.8.3-2.2.3-3 0-1.4 0-1.6-.6-2-.4-.3-1.5-.5-2.9-.6-2.1 0-2.8-.4-1.6-.7l1.3-.2c.3-.1.7-.4.9-.8.2-.4.7-.7 1.9-1 1-.3 1.7-.6 1.7-.8l-.3-.2c-.2 0-.3-.3-.3-.7 0-.8-.9-1-1.1-.2 0 .3-1.4 1.3-3 2.2a12 12 0 0 0-2.7 2c0 .7-.1.8-1.2 1-.6 0-1.2.3-1.5.7-.3.4-.9.5-2 .7l-1.7.2.5 1c.7 1.5.7 2.4 0 3.4-.4.5-.5 1-.4 1.6v1l.4-1.2c.2-.7.5-1.1.7-1.1.4 0 .4.2.3 1-.4 2.5-.7 3.2-1.5 4-.7.8-.8.8-1.5.5-.7-.4-.8-.5-.8-2.6-.1-2.3.1-3.8.6-3.7.1 0 .3.8.3 1.7 0 2.4 0 2.7.3 2.2l.4-3c0-2 0-2.5-.3-2.6h-.6c-.4.2-2.1 3.8-2.1 4.5 0 .3-.3.9-.6 1.3l-1 1.4c-.4.7-1.2.7-1.6 0-.3-.6-1.3-.7-1.3-.1 0 .2.1.4.3.4l.2.4c0 .5 1.3 1 3 1.3 1 0 2.2.3 3 .4 2 .3 2.2.3 2.3-.4zm-4.4-2.5c-.3-.4.3-1 .8-1s.3 1-.2 1.2c-.3 0-.5 0-.6-.2zm6-.4c-.1-.3 0-.6.3-.8.6-.5 1-.3 1 .5 0 .5-.2.7-.6.7-.3 0-.6-.2-.7-.4zm-.3-4.2c-.5-.4-.4-2.6 0-2.6.3 0 .5.2.5.3 0 .2.6.4 1.2.4 1 .1 1.2 0 1.4-.4.2-.3.6-.5 1-.5s.5-.1.5-.4c-.2-.5.6-1.1 1-.7.4.4.7.4 1-.4.3-.8 1-.8 1.2 0 .2 1-.5 1.9-2.3 2.5-.9.4-1.7.8-1.8 1-.2.6-1.9 1.3-2.4 1-.3-.2-.6-.2-.7 0-.2 0-.4 0-.6-.2zm138.1 7a1 1 0 0 0-.6 0c-.2.1 0 .2.3.2.4 0 .5 0 .3-.1zm-10.7-.6c.7-.7.8-1 .2-1-.5 0-2 1-2 1.3 0 .5 1.2.3 1.8-.3zm8.7.4h-.5c-.2 0-.1.1.2.2.3 0 .4-.1.3-.2zm-30.9-1c0-.2 0-.1-.2.1s-.3.5-.3.7l.3-.2.2-.6zm14.3 0c1.3-.3 2.1-1.2 2-2.2-.2-1-.5-1.3-1-1-.5.5-3 1.1-4.9 1.3l-1.6.2-.3 1c-.1.6-.2 1.2-.1 1.3 0 .2 4-.2 5.9-.6zm6.9-1.4c.8-.5 1.3-1.3 1.3-2.2 0-.3.2-.6.3-.7.2 0 .3-.4.3-.7 0-.5 0-.5-.5.2-.3.5-1 1.2-1.5 1.6-.9.8-1.6 2.3-1 2.3l1-.5zm-138.6-.7c0-.4-.1-.5-.3-.2-.2.1-.2.4-.1.5.2.5.4.4.4-.3zm125.4-.7c.5-1 .3-1-2.4-1-2 0-2.6 0-3 .3l-.1.5.6.4a8 8 0 0 0 2.6.3c1.7 0 2 0 2.3-.5zm5-.4c.7-.2 1.5-.6 1.9-1l.8-.4V86c0-.4-.2-.5-.7-.4l-3 .8c-2.8.7-3 .8-3 1.7 0 .6 0 .6 1.3.5l2.6-.6zm-128.5 0c.9-.6 1.3-1.8 1-2.9-.3-.9-1-1.7-1.5-1.7-.4 0-.5.2-.1 1.1.3 1-.1 1.2-1 .4l-.6-.6v.9c0 .5-.2 1-.5 1.4-.7.7-.7.7.2.7.6 0 1 .2 1.2.6.4.6.3.6 1.3 0zm117.5-1c.6-1 1.3-1.8 1.9-1.8l.1.7c0 .7.2.8 2.5.7 1.7-.1 2-.4 2-1.7v-1h-2.5c-2.1 0-2.6 0-3-.3-.3-.5-.6-.4-.6.3 0 .2-.3 1.2-.8 2a10 10 0 0 0-.8 2.1c0 .8.6.4 1.2-1zm15.8.8-.4-.7c-.3-.3-.4-.3-.4.2 0 .3 0 .6.2.7.3.3.6.2.6-.2zm-26.6-3.3s-.4 0-.7.4l-1 .7c-.8.6-1.4 1.2-1.4 1.5 0 .2.8-.3 1.6-1 1-.8 1.6-1.5 1.5-1.6zm30 2c.2-.2.6-.7.7-1.2l.1-.8-1 1c-.7.6-1.3 1-1.5 1-.1 0 0 .2.3.3.7.3.7.3 1.3-.2zM167 86c-.1-.4-.3-.6-.4-.5v.7l.4.5v-.7zm-3.6-.6c2-.6 2.2-1 1.4-2l-.5-.6-2.3.5c-2.4.6-2.6.8-2.6 2.4 0 .6 0 .6 1.1.4.7 0 2-.4 3-.7zm6.4 0a7 7 0 0 0 1.5-2c.5-1.1.5-1.3.2-1.6-.4-.4-.4-.4-.4.2 0 1-1 2.5-2 3s-1.3 1.2-.6 1.2c.2 0 .7-.3 1.3-.8zm-138.4-.5c0-1-2-2.3-2.5-1.7-.2.2 2 2.5 2.3 2.4.2 0 .3-.4.2-.7zm137.6-1.2c.7-.6 1.4-2.2 1.2-2.4-.1-.1-1 .3-2.2.9-1.3.7-2 1.1-2 1.5 0 .4.2.4 1 .3.6-.2.9-.1.9 0 0 .5.3.4 1-.3zm3.5.4c.1-.1 0-.3-.1-.3-.2 0-.3.2-.3.3l.1.3.3-.3zM68.2 83c0-.5.5-.6 1.8-.3 1.1.2 1.5.2 2.5-.2.6-.2 1.5-.5 1.9-.5.6-.1.7-.3.5-.6-.3-.7-.2-4.3.1-4.5.3 0 .7 2.2.7 4 0 .7 0 .7.7.6l3.3-.5 3.7-.9c.7-.3 1-.3 1.3-.1.3.2.4-.2.7-2.5l.3-3.6v-.7h-2.9c-2.7.1-3.9.4-4.9 1.3-.3.2-1.2.4-2.6.5l-2.1.1v1c-.1.8 0 1 .2 1 .7-.4.7.6 0 2.5-.9 2.2-1.1 2.6-1.6 2.6-.6 0-.5-.8.2-2.2.6-1 1.1-2.6.9-2.6l-.9 1.2c-.4.7-1 1.2-1.4 1.3a8 8 0 0 0-1.6.7c-1.3.6-1.8.6-1.6 0 0-.3.7-.8 1.6-1.2 1.5-.6 3-2.1 3-3l.3-.6c.8-.6.4-.8-1.9-.8l-3.9-.2c-.9-.1-2.8-.2-4.4 0-2.7 0-2.7 0-2.7.7 0 .6-.2.7-1 .9-1.9.3-3.4.7-4.2 1.1-.6.4-.6.4.8.3.9 0 2-.3 2.7-.7 1.3-.6 1.8-.6 1.8-.1 0 .3-1 .8-2.4 1.3-.3 0-.5.2-.5.4 0 .4 1.6 1.9 2 1.9l2.8.6c1.2.4 2.6.7 3.1.7.7 0 1.2.2 1.5.5.8 1 2.2 1.4 2.2.7zm-10.1-3.7c-.3-.3-.2-.6.2-.6l2.8-1.2c2.4-1.2 3.8-1.5 4.3-1 .3.4-1 1.5-2.5 2.4-1.2.6-1.4.6-1.8.2-.4-.4-.6-.4-1.6 0-1.3.5-1.2.5-1.4.2zm19.8-1c-.2-.4.6-1.2 1-1.2.7 0 .8.6.3 1-.6.4-1 .5-1.3.1zm61.8 4.8c.2-.3.2-.8.1-1.3-.1-.8 0-1 .3-1.1.2-.1.4-.4.4-.6 0-.6-.8-.4-1.3.4-.4.6-.5 1-.4 1.9.2 1.2.3 1.3.9.7zm19.2-1 .1-1h-1.7c-1 0-1.8-.1-1.9-.3-.3-.5.5-.9 2-.9s1.7 0 1.8-.5c.2-.9-.3-1-2-.7-1.3.3-1.8.3-2.2 0-.4-.2-.5 0-.9 1.3l-.7 2.1c-.1.4-.2.7-.1.8.2.2 3.5.4 4.5.3 1-.1 1-.2 1.1-1.1zm3.9 0c2.2-.7 3-1.4 3-2.6 0-.6.3-1.3.6-1.7.6-.8.6-.8 0-1.7-.7-.9-1.1-1-1.6-.5-.3.4-1.9 1.2-3.5 1.9l-1 .6c-.2 1.5-.2 1.7.2 1.7.3 0 1.2-.4 2.1-.8 1.5-.7 1.7-.9 1.6-1.4-.2-.8 0-1 .7-.7.3.2.4.5.4 1.1-.1 1-1.3 1.9-3.3 2.3-1.6.3-2.2.8-2.2 1.7 0 .6.1.7.7.7l2.3-.5zm6.1-2c.7-.6.7-.6.3-1.1-.7-.7-.9-.7-1 .2l-.4 1.2c-.2.6.4.5 1.1-.2zm-80.6.2c.2-.3.4-.3.7 0 .4.3.7.3 2.3-.3 1-.3 2.2-.9 2.6-1.2l1.1-.7c.5-.2.6-.5.5-3.5 0-1 0-2 .3-2.3.5-1-.2-1.3-3.4-1.3-3.2 0-4 .2-4 1.3 0 .3-.2 1-.5 1.4-.2.4-.5 2-.7 3.6-.2 2.4-.2 2.8 0 3 .6.3.7.3 1 0zm1.2-3c-.2-.6 0-.7 1.4-1.3 1.4-.5 2.5-.6 2.5-.2 0 .3-.6.6-2.4 1.3-1.2.5-1.4.5-1.5.1zm-.7-1.5c-.3-.4.4-.7 2.1-1.2 2-.5 2.2-.5 2.2 0 0 .2-.8.6-2 .9-2.2.7-2.2.6-2.3.3zm0-1.3c-.3-.5 0-.8 1.3-1 .7-.2 1.2-.2 1.3 0 .2.3.2.3-1 .8-1.3.5-1.4.5-1.7.2zm12.1 4c.5-.3.5-.3 0-.1-.4 0-.7.2-.8.3-.2.4.3.3.8-.1zm56.1-1.4 1.6-.6c-2.9.5-3 .5-3-.2 0-.4 0-.8.3-1 .4-.4 1.2-.4 1.2.1s0 .5 1 .1c.6-.2.9-.5.9-.8 0-.5-.1-.5-.9-.3l-2 .2c-1.5 0-2 .5-1.7 2 0 .8.2 1.3.2 1.3l2.4-.8zm-124 0c.3-.1 0-.2-.9-.2-.7 0-1.6 0-2-.2-.6-.2-.6-.2 0 .4.3.5.6.5 1.5.4.6 0 1.2-.3 1.4-.4zm117.8-.6c1.1-.3 1.3-.8.6-1.2-.7-.3-1.8.2-1.9 1l-.4.7c-.3.2.2 0 1.7-.5zm12.1-.8c1.5-.8 1.9-1.2 1.3-1.4-.2 0-.5-.4-.6-.7l-.1-.7-.9.8L161 75c-.5.3-.7.6-.7 1.1 0 .7 0 .7.7.5a28 28 0 0 0 2-1zm-2-2c.5-.5.5-.5.1-.7-.5-.2-1.2.3-1.2.9 0 .5.6.4 1.2-.2zm-84-.2c1-.5-4.6-.9-6.5-.4-.7.2-.6.3.7.5 1.7.4 5.3.3 5.9 0zm82-.8c.5-.3.6-.5.4-.7-.3-.3-2.7 1-2.7 1.4 0 .3 1.5-.1 2.3-.7zm-16.9 0c0-.4-.2-.6-1.7-.7a80.7 80.7 0 0 1-3.7-.2l2.4.6c1.2.1 2.3.4 2.5.5.6.3.5.3.5-.2zm20.6-1c.3-.5.3-.7 0-.7-.4 0-.7.6-.7 1.1 0 .5.4.2.7-.4zm-5.7-1.2 2-1.2c1-.5 2-1 2-1.2 0-.6-1-.4-2.2.4l-1.8 1c-.3 0-.7.3-1 .6l-.7.7h.8c.5 0 .9-.1.9-.3zM47.4 68.8c.5-.4.5-.4 0-.4l-.8.4c-.5.5.1.5.8 0zM35 68.6c.1-.1 0-.2-.5 0-1 .2-1.2.3-.3.3.4 0 .7-.1.8-.3zm116.8-1c.4-.3.4-.4-.4-1-1-.7-1.2-1.4-.5-1.4l.6.3c.2.2.4.3.5.2 0 0-.3-.5-.8-.9-.7-.5-.9-.8-.7-1 .2-.2.1-.6-.3-1.2-.5-1-1-1-1.4-.4-.2.4-.5.3-1.8-.3-1-.4-2-.6-2.8-.6-3.3 0-4.5-.2-4.5-1 0-.4.2-.4 1.3-.3 1.2.2 1.3.1 1-.3-.4-.8-.7-.9-2-.4-1.2.4-1.4.3-3-.1a8 8 0 0 0-1.8-.5c0 .1 1.7 1.2 4.1 2.4 1 .5 2 1.2 2.3 1.5.2.4.8.8 1.2 1 .4.2 1 .7 1.1 1 .7 1.3.8 1.4 1.4 1.1.4-.2.6-.2 1 .2s.6.4.7.2c.3-.9 1.9.1 2.3 1.5.2.5 1.8 1 2 .7 0-.2.3-.5.5-.6zm-112.9.5c.3 0 .5 0 .5-.2 0-.5-2-.3-2.5.1s-.5.4.5.3L39 68zm109.2 0c0-.5-.4-1.2-.6-1v.7c.4.7.6.8.6.3zm-105.7-.8c.2-.8 0-.9-.9-.4-1.1.6-1.2 1-.2 1 .7 0 1-.2 1-.6zM36 67l1.4-.6 1.4-.5c1-.6 1.1-1 .1-1a5 5 0 0 1-1.7-.7c-.9-.5-1.4-.6-2.1-.5-.5 0-1.1.3-1.3.4-.2.2-.8.2-2.2-.2-.4-.1-.6.1-1 .9-.4 1.2-.3 1.6.7 1.6s1.6-.3 1-.6c-.5-.2-.6-.9 0-1 .5-.2 1 0 1 .7 0 .5 0 .7.5.7l1.1.1c.4.2.4.2 0 .7-.6.7-.1.6 1.1 0zm118.5 0c0-.2-.3-.3-.5-.3s-.1.1.1.3c.5.3.6.3.4 0zm2.3-.7c0-.2-.2-.6-.5-.9-.4-.3-.3-.4 0-.7.6-.4 1-.3 1 .4s.3.8 1.3.4l.9-.4-.6-.7a5 5 0 0 0-.9-.8v-2l-1.9 1c-1 .5-1.8.9-2 .8-.5-.2-1.1-1.6-1-2l.6-.3c.1 0 .5 0 .7-.2.3-.2.3-.3 0-.5-.2-.2-.8-.3-1.2-.3-1 0-1.5-.4-1.4-1 0-.3.3-.5.8-.5.5-.1.6-.2.5-1 0-.5-.2-.6-.4-.4-.4.3-2-.2-2-.6l-.1-1.2c0-.7-.2-1-.6-1.1-.6-.2-.6-.2-.5.6.2 1-.2 1.5-1 .9-.2-.3-.6-.5-.9-.5-.3 0-.4.1-.2.2s.4.7.5 1.3c.1 1 0 1.2-.4 1.7l-.9.5c-.2 0-1-.6-1.7-1.3-1.6-1.4-3-2.2-3.2-1.6 0 .1-.2.3-.4.3-.3 0-.4.1-.3.3l.7.2c.2 0 1.2.8 2.1 1.7l1.7 1.6h1.8c2 .1 3.4.7 4 1.6.1.4.7 1 1.2 1.2 1.5.9 3.5 2.7 3.5 3.2 0 .3.2.5.4.5s.4-.2.4-.4zm-112-2.2c.1 0 .3-1 .3-2 .1-1.7 0-1.9-.4-2-.5 0-.5.1-.4 1.3 0 1.5-.2 2.2-.9 1.6-.2-.1-.3-.5-.2-.8.1-.4 0-.5-.2-.4-.1 0-.3.3-.3.6 0 .2-.2.5-.5.8-1 .8-.7 1.1.9 1.1.7 0 1.5 0 1.7-.2zm-5-.7c0-.2 0-.4-.2-.4s-.2.2-.1.4l.2.4.1-.4zm7.3-1c.3-.5.5-1.4.5-2.7 0-1.4.2-1.9.5-1.9.2 0 .3.5.3 2.2 0 1.6 0 2.2.3 2l.2-2.2c0-1.5.1-1.8.6-2 .4-.2.4-.4-.7-1.5a5 5 0 0 0-2-1.4l-2-.4c-1.2-.3-9.1-.6-13.6-.5-2.9 0-7.4 1-8.3 1.7-.2.2-1.3.6-2.3 1-1 .2-2 .6-2 .7a59.1 59.1 0 0 0 12.4 0c2.2-.5 4.7-.5 4.7 0 0 .3-.3.5-.8.5-.4 0-.9.2-1 .4l-.9.2c-.3 0-.9.3-1.3.7l-1.2.6c-.8 0-.8.6 0 1.4.4.4.9.7 1 .6.2 0 .5 0 .5.3.2.3.3.3.9 0 .5-.2.7-.2 1 .2.3.4.5.4 1.5.3.7-.1 1.3-.3 1.5-.5.3-.3 3.4-.4 4 0 .4.2 1-.2 1-.8 0-.3.2-.7.4-.8.3 0 .4-.4.4-.7 0-.7 1.2-1.2 3-1.2 1.3 0 1.4 0 1.5.7 0 .4-.1.8-.5 1-.7.6-1 2.7-.4 2.7.2 0 .6-.3.8-.7zm7-.1c0-.7.7-.9 1-.2 0 .3.4.3 1 .2 2-.3 2.2-.4 2.3-1 .1-.4.3-.4.9-.3 1.7.4 3 .5 3.7.1 1-.5.8-.8-.6-.7-.8.1-1.2 0-1.4-.2-.2-.5-3.5 0-3.9.6-.4.6-1.2.3-1-.5 0-.4-.1-.6-.5-.6h-2c-1.6.1-1.6.1-2 1-.3.6-.4 1.2-.3 1.5 0 .5 1 .8 2.1.7.7 0 .8-.1.8-.6zm-1.5-.4c-.2-.4.3-.9.7-.6.1 0 .3.3.3.5 0 .5-.7.5-1 .1zm103.9-1.5c.3-.3.3-.3-.2-.3-.3 0-.6.1-.7.3-.2.3.4.3.9 0zm-89-1.4c.7-.2 1.2-.5 1.2-.7 0-.4-.8-.4-1.3 0-.2.3-.9.6-1.5.8-.7.1-1.2.4-1.2.5 0 .2.5 0 2.8-.6zm3.3.2c2.3-1.1 2.8-1.4 2.8-1.8 0-.2-.4-.4-1-.4-.9-.1-1 0-.8.6 0 .6 0 .6-.7.6-.5 0-1 .2-1 .5-.1.2-.6.5-1 .7-.7.3-.7.4-.3.4.4 0 1.2-.3 2-.6zm-10.2-.4a20.3 20.3 0 0 0 7.6-2.2c1 0 3.7-.9 4-1.3.1-.3.2-.3.2.1 0 .3.2.5.7.5.5 0 .9 0 1 .2 0 .2.2.3.4.3s2.6-2.9 2.6-3.2l-1.4-.5-1.5-.5c0-.3-2.6-.6-4-.6-.5 0-1.4-.2-2-.5-1.3-.7-1.6-.3-.9.9.7 1 .7 1.7.1 2.4-.5.7-2.4.8-3.2 0-.7-.6-1-.4-.3.4.4.5.5.7.2 1-.2.2-.4.2-1-.1l-1.3-.8c-.5-.3-1.4-.5-4-.9l-3-.5c-1.2-.3-5.6 0-6.3.4-.1 0 .1.5.6 1l1.8 2.2c.7 1.1 1 1.4 1.8 1.6.6 0 1.2 0 1.4-.2.8-.4 1.5-.3 2.2.3.4.4.8.5 1.5.4l2.8-.4zm-53-.6c.2-.5.1-.6-1-.8-.6-.1-1.2-2-1-3.1.3-1.3.3-3.2 0-3.4l-.2-1c0-.7.1-1 .5-1 .3 0 .3 0 .1-.3L6 47.3 5.8 46a28 28 0 0 0 .1-5c0-3.5 0-4.1.5-4.5.6-.8.6-1.9 0-2.1-.7-.2-.7-.2-.6-2.2 0-1.7-.4-1.8-.8-.3-.3 1.4-1 23.7-.7 25.5.2 1.2.2 1.2 1.3 1.3l1.4.1c.2 0 .5-.2.6-.5zm4.7-.2c0-.4.2-.8.3-1 .2-.2 0-.3-.5-.3-.6 0-.8 0-1-1-.5-1.2 0-2.2.6-1.6.4.3.4.2.2-.5-.4-1.8-.6-6-.4-6.5.4-.7.3-2.3-.1-3.3-.3-.8-.3-.8-.5.8a92 92 0 0 1-.5 3.3c-.1.9-.2 2.8 0 4.2.1 2.7 0 3.2-1 2.8-.6-.1-1.2-1.8-1-2.5.4-1 .3-14.6 0-14.9-.4-.3-.3-.8-.5 5.3-.2 6.6-.1 10 .2 11.9.4 1.5.4 1.6 1.4 1.8 1 .3 1.7 1 1.7 1.8s1 .5 1-.3zm126.9.1c.4-.3.4-.3-.4-.5l-1.8-.9c-.7-.5-1-.5-1.2-.3-.3.6-.2.8.8 1.2l1.4.6c.5.4.6.4 1.2 0zm-122-2.8c-.3-.2-.4-.9-.4-1.5 0-.7-.2-1.5-.4-1.9l-.3-.6-.4.8c-.4 1-1 1.3-1.4.7-.4-.5-.4-.5-.4 0 0 .2.1.7.3 1 .2.6.4.7.7.4.2-.1.3-.4.3-.6 0-.2.3-.4.5-.4.7 0 .7.6.2 1-.5.5-.6 2-.1 2.4.2.2.5.1 1-.4s.5-.7.3-1zm128.5.6c.3-.3.6-.6.9-.6.2 0 .4-.2.4-.6 0-.4.3-.6.8-.5.4 0 .8-.1.8-.3 0-.1-1.2-.2-2.9-.1-2.3.1-3 0-4.3-.4-3.3-1.1-5.1-1.5-5.6-1-.4.4.5 1.6 2 2.8 1.4 1 1.5 1.1 1.5.4 0-.6.5-1 .9-.6.1.2.5.3.8.3.4 0 .5-.1.4-.7-.2-.5-.1-.6.4-.5l1 .2c.2 0 .6.4.9.9.4.8.6 1 1.4 1.2.1 0 .4-.2.6-.5zM21.3 54.5c.3-.2.4-.4.2-.4s-.5 0-.7-.2c-.3 0-.5 0-.5.4 0 .7.3.7 1 .2zm45.2-1c.2-.4-.6-1.7-1.1-1.9-.5-.1-2 .1-4 .6-1 .2-1.4.7-.7 1 .4 0 .6 0 .9-.4.5-.8 2.9-.8 3.7.1.7.7.9.8 1.2.5zM21 52.1c.5-.5.6-.6 1.2-.2 1 .5 1.5.2 1.5-.8 0-.7 0-.8-.5-.5-.3.1-.6.4-.7.7-.1.3-.2.3-.8 0-.4-.3-.7-.5-.8-.4l-.6 1c-.5.6-.5.8-.2.8s.7-.3 1-.6zm37.4-.2a9 9 0 0 0 1.9-1.4l1.2-1.2-.7-.5c-.6-.4-.7-.5-.5-2l.1-1.7-1-.7a4 4 0 0 0-2.6-.7c-1.4 0-3 .4-3 .8 0 .3 2.6.6 3.9.4H59c0 .5-.4.6-2.4.9-2.8.3-3.1 1-.5.7 1.6 0 2 0 2 .2 0 .4-.7.7-2 .7-.4 0-1 .2-1.1.4-.3.3-.1.4 1.2.4 1.7 0 1.9.4.4 1-1.1.3-2.8.4-2.5 0 0-.1-.1-.2-.4-.2-.8 0-1-.7-.4-1.3.4-.5.4-.5 0-.7-.5-.2-.6-1 0-1.3.2 0 .1-.2-.2-.5-.6-.5-.6-1.1 0-1.5.6-.4.6-.4 0-1l-.4-.6-.4.6c-.4.8-.4 4.5 0 5.6.5 1 1.3 1.8 3 3 1.2.8 2.1 1 3.2.6zm-25.2-.6a19 19 0 0 0 1-4.6c-.4-.4-1 .7-1.2 2.4l-.4 2.3c-.2.3-.1.5 0 .5.2 0 .5-.3.6-.6zm-18.5 0 .1-.8c.1-.2 0-.4-.4-.5-.4-.1-.5-.3-.3-1.1v-2.5c-.4-2.2-.7-1.2-.8 2 0 2.2 0 2.6.5 2.9.6.4.9.4.9 0zm16.4-1.8c.2-1 .6-2 1-2.4.8-.8 1.1-1.8 1.1-3.4 0-1.4-.4-1.5-1-.2l-1.1 2.6a8 8 0 0 0-.9 3.4c-.1 2.4.3 2.4.9 0zm13 1.5c0-.2-.4-.6-.8-1a7.9 7.9 0 0 1-1.7-3c-.2-.4-.3-.5-.5-.1l-.2 1c0 .7 1.2 3.1 1.6 3.3.7.3 1.6.2 1.6-.2zm2.4-.2c.5 0 .2-.8-.5-1-.6-.4-1.8-2-2.6-3.8-.3-.5-.6-1-.8-.9-.4.1-.2 1.7.3 2.7.5 1.3 2.5 3.3 3 3.2l.6-.2zm-8.3-.5c0-.3-.3-.5-.5-.4-.3.2 0 .7.3.7.1 0 .2-.1.2-.3zm-12.5-.3-.1-.6c-.5-.4-.4-1 0-1 .3 0 .5-.2.5-.5 0-.6.5-.8 1.1-.4.4.2.5.2.6 0 .1-.3.4-.6.7-.9 1.6-1.4 1.6-1.3 1.2-1.8-.2-.3-.2-.4.2-.8.7-.5 1.5-2.9 2-5.4.2-1.4.4-1.9.8-2 .3 0 .5-.3.5-.5l.4-.6c.4-.3.4-.7.3-1.9-.2-1.7.3-3.3 1.2-3.5.6-.1.7-1.4.2-2.7-.3-.7-.3-1.4 0-3.3l.5-3.8c0-.8.5-2.6 1-4.2l1.2-4.4c.1-.8.4-2 .7-2.5.6-1.2.7-1.9.3-2.2-.1 0-.2.2-.2.7 0 .9-.5 1-1 .4-.2-.4-.3-.3-.5.8 0 .7-.4 2-.6 3-.5 1.4-.5 1.6-.1 1.7.5.2.2 1.8-.3 2.2-.4.3-.7 1.4-.9 3.8-.1 1.5-.2 1.8-.7 2-.7.4-1.3.2-2-.7-.3-.4-.8-.8-1-.8-.6 0-1.5-1.6-1.6-3 0-1.7-.5-5-.9-6.6a18 18 0 0 1-.2-5.3c0-.4 0-.6-.6-.6-1-.1-1 .5-.5 4.5a49.4 49.4 0 0 1 .9 6.7c.2 1.2.2 1.3-.3 1.7l-.6.5.7.8.6 1c0 .1.3.4.7.6.4.1.7.4.7.7 0 .2.2.4.5.4.2 0 .7.2 1.1.5.4.3.9.4 1.2.3.5 0 .6 0 .6.4 0 .3-.1.7-.3.8-.2.2-.3.8-.3 1.4.1 1 0 1-.6 1.1H32l.7.7c.5.5.7.9.7 1.7 0 1.2-.6 2-1.1 1.5-.3-.2-.4-.2-.4.4 0 .4.2.8.5 1 .7.3.7.7-.1 1-.8.3-.8.8 0 1 1 .3 1.5.8 1.3 1.1 0 .2-.4.2-.7.2-.3-.2-.5 0-.6.2-.1.2-.5.4-.8.4-.8 0-1.2.5-1 1.3l-.3 1.9c-.4 1-.4 1.2 0 1.5.6.5.3 1.1-.7 1.3-1.1.2-2 1.7-1.8 3.2.2 1.2-.1 1.7-1 1.7-.2 0-.5.2-.6.4 0 .3-.4.7-.6.9-.5.4-1.3 2.4-1.1 2.7.2.3 1 .2 1.3 0zm-7.4-.5c0-.3-.1-.2-.2.1 0 .3.1.5.2.4v-.5zM52 50h-.5c-.2 0-.1.1.2.1.3 0 .4 0 .3-.1zm-29.6-1.5c0-1-.2-1.3-.4-.3l-.2 1.1c-.2.5-.1.6.2.5.2 0 .4-.6.4-1.3zm26 .3c-1.1-.7-1.6-1.2-1.8-1.8 0-.4-.4-1.3-.8-2a10 10 0 0 1-.7-2.4l-.3-1.7c-.1-.6-.2-.6-.4-.2-.2.2-.2.7-.1 1 0 .2 0 .6-.3.8-.7.5-.4 2 .6 4 .8 1.5 1.2 2 1.7 2 .3 0 .9.3 1.2.6.6.5 1 .7 2 .8.4 0 .2-.3-1-1zm131.6.9h-.8c-.3 0-.1.1.3.1s.6 0 .5-.1zM16.4 46.1c0-1.3-.1-3-.3-4-.2-1.5-.1-4 .2-5.4 0-.6.7-.7.8-.1 0 1 .2.8.3-.7.3-2.6.3-6.9 0-7v-2.3c0-1.5 0-2.1-.2-2.1s-.3-.4-.3-1c0-1 0-1-.5-.5-.6.5-.8.5-.8 0 0-.3.3-.8.7-1.2.6-.7.6-.7.7-6a77 77 0 0 1 .6-10c-.1-1-.1-1-1.3-1.1-1 0-1.2 0-1.5.6-.4 1-.4 5.8.1 7.5.4 1.4.3 3.1-.4 6.9v1.9c.2.3.2.7 0 1.2-.2.4-.3 1.6-.4 2.6 0 1.5-.2 2.2-1 4-1.7 3.5-1.8 3.9-1.4 3.7.2 0 1-1.4 1.8-3 1.3-2.7 2-3.6 2-2.5 0 .2-.1.7-.3 1-.6.7-.5 1.2.1 1.2.8 0 .7.8-.3 2.4-.9 1.5-2.3 4.9-2.3 5.4 0 .8.5.3 1.3-1.4 1-1.8 1.6-2.4 1.6-1.5 0 .3-.4 1.2-.8 2.1l-.8 2c0 .3-.3.7-.6 1-.5.5-.5.5 0 2l.5 1.4.2-1.3c.5-2.2.8-1.5 1 2 .2 4.4.5 6 1 5 .2-.3.3-1.5.3-2.8zm23 1.9c.1-.2.3-.8.3-1.3 0-.7.1-1.2.5-1.5l1.4-2.3c.8-1.3 1-1.9.7-2-.1-.3-.3-1-.3-1.8 0-1.2.1-1.4.5-1.3.3 0 .5.3.5.9.2 1.1.4 1 1-.2.5-1.1.4-3-.2-3.4-.3-.3-.3-.6.1-2 .5-1.3.6-2.3.5-5.9V23l1-.7c.4-.3 1-1 1.3-1.5.5-.9 1.1-1.2 1.5-.8.2.1.1.4-.1.7-.3.3-.8 1.2-1.1 2-.4.8-.9 1.5-1 1.5-.6 0-.8.6-.8 2.6 0 1.1.1 1.7.3 1.5.3-.3 4.2-8.3 6.1-12.4 1.8-4 3.1-8 3.1-9.6 0-1.3 0-1.4-.6-1.4-.8 0-1 .2-1.9 2.8a100.6 100.6 0 0 1-4.9 11.5c0 .6-.7 1-1 .6-.2-.2.4-1.8 1.8-4.7 1.2-2.4 2.2-4.5 2-4.5 0-.1-.8 1-1.6 2.5-3.4 5.9-4.4 7-5.2 6.4-.3-.3-.5-.2-1 .6-.3.5-.5 1.1-.5 1.4 0 .3-.5 1-1.3 1.6-1.9 1.7-.8 1.3 1.3-.5 1-.9 2-1.6 2.1-1.6.6 0 .2.8-1 2a36.5 36.5 0 0 0-3 3.2c-1 1-1.7 4.3-1.6 7 0 1 0 1.9-.2 2-.4.2-.4 2.1.1 5.7l.4 4.7c0 3 0 3.1.7 2.4zm-.4-3.7A79.7 79.7 0 0 0 41.6 31c.3-2.1 1-5.3 1.3-5.8.6-1.1.7 0 .2 2.6l-1.2 6.7c-1 6.4-1.4 8.1-1.9 9.1-.4 1-.7 1.2-1 .7zm134.2 3.6h-.5l.2.1c.2 0 .4 0 .3-.1zm-137-1.2c.4-.6.8-1 1-1.1.5-.1.5-.4.4-1.6l-.3-2.5-.2-1-.3 1c-.2.6-.3 1.4-.3 1.9 0 .4-.2 1-.4 1.2-.6.6-1 3.2-.5 3.2l.6-1zm31.7.5.3-.6-1.5.2c-2 .3-1.8.7.5 1 .2 0 .5-.3.7-.6zm-19.2.2-.3-.3-.3.1c0 .2.1.3.3.3l.3-.1zm15-.7c.3-.2.3-.3-.2-.5-.5-.3-.6-.2-.6.2 0 .6.2.7.8.3zm12 0a1 1 0 0 0-.7 0c-.1.2 0 .2.4.2.3 0 .5 0 .3-.1zm4.7-.5c.7-.2 1.3-.5 1.3-.6 0-.1-.7-.2-1.6-.2-1.1 0-1.6-.1-1.7-.4-.1-.2-.3-.4-.5-.4-.6 0-.8-.6-.4-.8.6-.4 1.7-.3 2.3.1.6.4 2.4.5 4.8.1 2.6-.4 4.6-1.4 5.3-2.8.2-.3.5-.6.7-.6.2 0 .6-.4 1-1s1-1.1 1.7-1.4c1.5-.5 1.9-1.3.6-1.3-.6 0-.9-.2-1-.6a20 20 0 0 1-1-5.1c0-.5-.2-1-.5-1.2-.2-.3-.4-.9-.4-1.5 0-.5.2-1.3.4-1.7.5-.7.6-.8 1.4-.6.6.1 1 0 1.9-.6.6-.3 1-.7 1-.8 0-.2-2.8.3-3.2.7-.6.5-1.6.3-1.7-.4l-.4-.7c-.2-.1-.2-.4.1-1 .3-.4.5-1 .5-1.5l.2-1c.3-.3 1-4.1.7-4.3-.3-.3-.6.3-.8 1.4 0 .7-.5 2.3-1 3.5-.4 1.2-.7 2.7-.7 3.4 0 1.6-.5 2.4-1.3 2.2-.4-.2-.6 0-.7.5l-.4 1.7c-.6 2.3.5 6.4 2 7.6 1.4 1 1.5 1 1.5 1.7 0 1-1.7 2.3-2.8 2.3l-1-.2-2.2-.5c-1.8-.2-2-.2-2 .2 0 .5 0 .5 2 .6 1.2 0 1.3 0 1.4.7 0 .3-.2 1-.4 1.3-.4.5-.8.6-1.7.6-.7 0-1.6-.3-2.2-.5-.5-.2-1.3-.4-1.8-.4a4 4 0 0 1-1.7-.5c-1-.6-2.2-.6-2.9 0-.4.3-.2 2.7.3 3l1.2.2a2 2 0 0 1 1.6.6c.7.8.5.8 2.1.2zM91 38c-.5-.3-1-2.2-1.5-5.7-.4-3-.3-4.4.3-4.4.3 0 1 3.7 1 5.7 0 .6.2 1.4.4 1.9.3.4.6 1 .6 1.3l.2.8c.4.2.1.6-.3.6-.2 0-.5 0-.7-.2zm73.9 8.5h-.8c-.3 0-.1.1.3.1h.5zM19.5 44c0-2 0-2.5-.3-2.5s-.4.6-.6 1.8c-.3 2.2-.2 2.9.4 3l.4.2.1-2.5zm5.3 1.5c0-.5.3-1 .6-1.3.3-.2.5-.7.5-1 0-.3.3-1 .6-1.4.5-.6.7-1.3.8-2.6l.6-5.2c.4-2.8.4-3.7.1-4.6-.4-1.5-1-1.3-.8.3 0 .8-.2 1.6-.5 2.2-.8 1.6-1.6 4.6-1.6 6a76.7 76.7 0 0 1-.9 8.5c.3.3.6-.2.6-1zm138.3.9h-.5c-.2 0-.1.1.2.1.3 0 .4 0 .3-.1zm-115-.7c0-.6 1-.7 1.8 0 .6.3.6.3.6-.4 0-.4 0-1 .2-1.3 0-.5 0-.7-.6-.9-.5-.2-.7-.4-.7-1.2 0-1.1.8-1.3.9-.2 0 .4.2.7.5.7.7 0 .5-.8-.4-2.2-1.2-1.8-1.6-3.6-1.1-5l.4-1c0-.6-2.2 1.4-3.3 3-.6.9-.7 1.4-.7 3 0 1.3 0 2.4.4 3.3.7 2.1 2 3.6 2 2.2zm.9-1A17.3 17.3 0 0 1 47 38c.1-2 .8-2.4.8-.3 0 1.8 1 5.5 1.8 6.1l.5.7c0 .4-1 .3-1.2 0zm-14.4 1c0-.3 0-.5-.2-.6-.2-.1-.3 0-.3.4 0 .3.1.5.3.5l.2-.4zm125 0a2 2 0 0 0-1-.2h-.5l.5.2c.3.2.7.3 1 .3.3 0 .3 0 0-.3zM23.4 43.8c0-.6 0-.8-.3-.7-.2 0-.4.5-.4 1 0 .6 0 .8.2.7.2 0 .4-.5.5-1zm12.7-4c.7-3.2 1-5 .8-7.8v-1.3l-.3 1.3c-.3 2-.4 2.4-1 3.2-.6.7-2.4 4.8-2.4 5.4l.4.4c.3 0 .4.6.4 2v1.7l.6-.8c.5-.5 1-1.9 1.5-4zm33 4.5c-.4-.3-2.3-.3-2.3 0 0 .2.6.3 1.4.3 1 0 1.3-.1 1-.3zm-51.4-1.9c.2-1 .1-1.4-.2-1.8-.3-.3-.4-.7-.3-1.4.1-.5 0-1-.1-1-.2-.2-.3.4-.3 2 0 3.7.5 5 1 2.2zm43.7 1.4c0-.1-.1-.3-.4-.4-.8-.3-.5-.8.5-.9.7 0 .8 0 .8.5 0 .7.4.9 1 .5.9-.4.7-.7-.8-1.5a4 4 0 0 1-1.8-1.7c-.6-1-1.4-1.8-2.1-1.8-.9 0-.8.5 0 1 .6.1 1 .5 1.2.7.2.7-.3 1.5-1.2 1.5a4 4 0 0 0-1.4.3c-.5.2-.8.2-1.5-.2-.7-.3-1-.3-1.3 0-.7.4-.7.5.2 1 .5.1 1.5.2 2.5.1 1.5 0 1.9 0 2.6.5 1 .7 1.4.8 1.7.4zm8.3-.8c0-.2-.2-.3-.4-.3s-.4.1-.4.3c0 .1.2.3.4.3s.4-.2.4-.3zm79.2-.5-1.3-.6-1.9-.7c-.8-.4-.9-.4-1.4 0-.4.5-.7.5-1.9.3-2.1-.5-7.6-.8-7.6-.4a116.3 116.3 0 0 1 7.7 1c6 .7 6.8.7 6.4.4zm3-.6a87.2 87.2 0 0 0-11.2-4.4c-2-.8-3.3-1.2-3.3-1-.1.3-1.5 0-6.6-1a25.8 25.8 0 0 0-7.8-.4c-2.3 0-2.3 0-.9.3a756.6 756.6 0 0 1 9.3 1.4A104.2 104.2 0 0 1 142 39c.7.6.8.7 1 .3.3-.3.6-.3 2.2.5 2.1 1 6.8 2.6 7.4 2.6.3 0 0-.2-.6-.5zm-140.7-.8c-.1-.2-.2 0-.2.3 0 .4 0 .5.2.3v-.6zm53 .6c0-.2-.2-.3-.4-.3s-.1.1.1.3c.5.3.6.3.4 0zM23 39.9c-.4-.4-.4-.4-.7.3l-.2.8.6.4c.5.2.5.2.6-.4 0-.4 0-1-.3-1.1zm40 .8c-.2-.3-.2-.5 0-.7.2-.2.6 0 1.5.3 1 .6 1.7.6 1.7.1 0-.1-.3-.4-.8-.6-1.2-.7-1-1.1.5-1 1.2.2 1.3.2 1.6-.5.5-1.1.2-1.7-.8-1.5-.7.2-.8.1-.8-.5a1 1 0 0 0-.5-1c-.6-.3-2.9-.5-2.9-.3l2.2 1.4c1.6.9 2.2 1.3 2.3 1.8 0 .6-.6.8-1 .2-.2-.4-4-2-4.3-1.8l.7.7c.4.3.6.7.5.9-.2.4-.5.4-1.7-.4-.6-.4-1.3-.6-1.5-.6-.4 0-.2.3.6.7.8.4 1 .7 1.3 1.5.1.5.5 1.1.8 1.3.7.5 1 .6.6 0zm-10.5 0-.7-.7c-.7-.8-.9-.6-.3.3.4.5 1 .8 1 .5zm6.3 0c0-.3-1.7-1.1-2.2-1.1-.6 0-.7.4-.3.9.4.4 2.5.6 2.5.2zm21.4-1.1c0-.5-.3-1-.6-1.2-.2-.2-.3-.5-.2-1 0-.6.2-.8.9-.8.4 0 .8.2 1 .6.2.3.5.5.9.5.3 0 .8.2 1 .4.3.2 1 .4 1.5.4.6 0 1.1.1 1.3.3.1.2.4.2.6.1.6-.4-.8-1.4-2.7-2-1.8-.6-1.8-.6-1.8-1.5 0-.8-.1-.9-.7-.9-.3 0-.7-.2-.8-.4-.2-.3-.3-.3-.8.2-.6.7-1.5.6-2.5-.2-.5-.5-1.5-1.2-2.2-1.6-1-.7-1.4-.8-1.7-.6-.2.3-.4.2-.6-.1-.4-.5-5-3.6-5.2-3.5-.2.2.8 1.2 1.4 1.4.3 0 .6.3.7.4.3.5-.3 1.3-.9 1.3-.9 0-.1.7 1 .9.7 0 1 .3 1 .6s-.2.6-.4.6c-.5.2.1 1 1.4 1.7.9.6 1 .7.8 1.2-.4.7.8 1.4 2.5 1.5 1.3.1 1.4 0 1.4-.4 0-.3-.1-.6-.4-.7-.6-.2-.4-.7.4-.7.6 0 .9.2 1.2.9.4.8.4.9 0 1.2-.4.3-.4.3.2.9.6.5 1.7 1.2 2.2 1.2v-.7zm-59-3.7c0-1.5-.1-2.7-.2-2.7-.2 0-.3 1.5-.3 3.5 0 2.5.1 3.3.3 2.7L21 36zm-2-3.4v-3.7c-.4 2-.8 7.5-.6 9.4V40l.3-1.2.3-6.3zM141 39.7c0-.2-2.8-.9-5.2-1.3-3.9-.7-4.7-.7-5.4-.5-1 .3-7.3 0-9.5-.6-1.3-.3-1.9-.6-1.9-.8 0-.3.3-.4 1.3-.3l1.2.2-1-.4c-.9-.3-1.2-.6-1.2-1 0-.3-.2-.5-.7-.5-.6 0-.6.1-.6.9l-.1 1.2c-.2.5 1.1 2.1 1.4 1.7a148 148 0 0 0 12.2.9 186.8 186.8 0 0 1 9.5.5zm-87.5-.3c0-.1 0-.5-.3-.9-.6-.8-1.4-4-1.4-5.5 0-1.3-.2-1.4-1.1-.3-.8.9-.9 1.2-.4 1.4.2 0 .2.2 0 .6a4 4 0 0 0-.3 1.5c0 1 .6 2.8.9 2.8l-.1-.5c-.2-.3-.2-.7-.1-1 .2-.5.9-.4.9.2 0 1 1.4 2.2 1.9 1.7zm1.5-1.7c.2-.5.2-.8-.4-2-.9-1.8-1-4-.3-5l.5-.8-.9.6c-1.1.6-1.4 1.7-1 4.3.5 3 1.3 4.2 2 2.9zm-25.5-2.3.9-3.1c.2-.5.2-.9 0-1-.2-.3 0-.7.3-1.4.7-1.4.6-4.5-.2-5-.7-.6-.7-.5-1.2.5-.6 1-.6 2.6-.2 4.7.2 1.1.2 1.9-.1 3.3-.6 2.6-.8 4.6-.5 4.5.2-.1.6-1.2 1-2.5zm94.6 1.2-1.6-.2c-.8 0-.9 0-.4.2.3.2 1 .3 1.6.3.9 0 1 0 .4-.3zM23.8 35c.1-.3.3-1.4.3-2.5.2-2 .1-2-.3-1.6-.3.3-.4.7-.3 1.3 0 .7 0 .8-.5.8-.6 0-.7.4-.2.8.5.2.7 1.2.2 1.7a1 1 0 0 0-.1.9c.2.4.2.4.4-.2l.5-1.2zm23 0c.5-.6.6-.8.2-1.4-.2-.4-.3-1.4-.3-2.6 0-2-.2-2.2-.8-.7a9 9 0 0 0-.4 3.6c.1 2.8.2 2.8 1.3 1.2zm11.2.8c1-1 .9-1.3 0-1-1.3.2-2-.6-2-2.6s.3-3 .7-2.8c.2 0 .3.8.2 2 0 1.2 0 2 .3 2.3.6.7 1 .3.9-.9-.3-1.6.2-3.8 1-4.4l.7-.7c0-.4-.8-.2-1 .2-.3.2-.7.4-1 .4-.8 0-2.6 1.6-2.2 2 .1.2 0 .4-.3.8-.4.3-.6.7-.5 1.7 0 2 .3 2.5 1 2.4.7 0 .8 0 .8.6 0 .9.4.9 1.4 0zm-48.3-1c-.1-.2-.2 0-.2.4 0 .3.1.5.2.3v-.7zM61 35s-.3 0-.5.2l-.6.4.6-.2.5-.4zm73.3 0c-1.5-.4-2.9-.5-2.6-.2.2.2 2.4.6 3.4.6.3 0 0-.2-.8-.4zm-126-1.2c.2-1.3.6-1.9.8-.8.1 1 .7.5 1.7-2 1-2.1 1-2.3.6-2.6-.5-.3-.5-.4 0-1.4l.4-2c0-.4.2-1.6.5-2.6.5-2.1.3-3-.8-3.2-1.3-.3-3-3.6-1.7-3.6.4 0 .4-.7-.3-3.7a84.6 84.6 0 0 1-1.1-6.4C8 5.4 6 6.5 5.8 7a125 125 0 0 0-1 20.2c.3 1.7 1 .2 1.1-2.8 0-.5.3-1.1.5-1.4 1-1 1-3.8.3-10-.6-4.4-.6-5.4 0-5.4.4 0 .6.7.8 3.6l.6 4.7c.2 1.8.3 3.8.2 5.7l-.7 10.7c0 .6.4 2.9.6 2.9l.3-1.4zm0-3.3c-.2-.3-.2-.5.1-1.2.5-1 1.4-5.3 1.7-7.7.1-1.6.2-1.8.7-1.8.5 0 .5.1.4 2l-.8 4.5c-.5 1.9-.6 2.9-.4 3.3.4 1-1 1.8-1.7 1zm77.8 4-.7-2.3c-.6-1.7-.9-2.2-1.4-2.5-.5-.2-.8-.5-.8-.6 0-.4-1.2-.9-3.3-1.4-2.6-.6-3.5-1-3.7-1.4 0-.3-.3-.4-.4-.2-.2 0-.5-.1-.8-.5-.4-.5-.5-.5-.5-.2 0 .7-1 1-1.7.8-.8-.3-1.5 0-1.5.9 0 .3-.1.7-.3.8l-.2.3c0 .4 3.4 1.2 5.8 1.3a14.7 14.7 0 0 1 4.5.7c1 .3 2.2 1.3 3.5 3.1 1 1.5 1.5 2 1.5 1.3zm44.3-.1a56 56 0 0 0-8-1.3c0 .1.2.3.6.4a90.3 90.3 0 0 0 7.4.9zm-71.2-.7-.2-.4-.1.4c0 .2 0 .4.2.4s.2-.2.1-.4zm1.1-2c0-1.8.4-3.4 1-3.4.3 0 .5-.2.6-.4 0-.2.4-.4.7-.4.5 0 .5 0 0-.5-.6-.8-.8-.7-2 .6-1.4 1.4-1.8 2.4-1 2.6.5.1.6.2.3.8-.2.6.1 2.6.4 2.6v-1.8zM81 33.2c.3-.3.2-.4-.2-.7-.7-.3-1-.3-1 0 0 .5.4 1 .7 1l.5-.3zm16.4-.3c0-.4 0-.5-.3-.1-.5.4-.6.9-.1.7.2 0 .3-.3.4-.6zm4.1-.3c1-.8 1.8-1.1 3.3-1.4 1.6-.3 7-.5 8.6-.3.5 0 .9-.1.6-.4a10.3 10.3 0 0 0-5.6-1.2c-3.5 0-4.6.3-6.3 1.5l-2.2 1.4c-.7.5-.8 1.4-.2 1.4.3 0 1-.5 1.8-1zm-66 .2c.2-.3.1-.7 0-.9-.1-.2-.2-.2-.2 0l-.2.8c-.1.3 0 .6.1.6s.3-.2.4-.5zm14.8-1.6c.5-.6.8-1.1.8-1.3l.6-1.5c.3-.6.7-2.3 1-3.6l.4-3.1c.1-.4 0-1-.2-1.2-.4-.5-.4-.5-.7.2-.7 1.8-2.7 5.8-3.5 7A4 4 0 0 0 48 30c0 1.4 0 1.4.4.7.6-1.1 1-1 .7.3-.2 1.3.2 1.3 1.2 0zm42.9-.1c-.2-.4-.5-.7-.6-.7l.2.8c.5 1 .8.9.4-.1zM23 31s-.1-.2-.3-.2l-.2.4c0 .3 0 .4.2.3.2-.1.3-.3.3-.4zm73-.5c-.2-.3 0-.6.2-.6.3-.2 1.7-2.4 1.7-2.8 0-.3-1.4-.3-1.8 0-.2 0-.5.7-.7 1.5-.4 1-.4 1.5-.2 2 .3.9 1 .8.7 0zM21.4 30a31 31 0 0 0 1.2-7c0-2.2 0-2.6-.4-3-.2-.2-.5-.2-.6 0l-.6.4c-.5.2-.6 1.1-1 7.6V31h.5c.4-.1.7-.4 1-1.2zm-.6-2.3c0-.1 0-.2.2-.2s.3.1.3.2c0 .2-.1.3-.3.3a.3.3 0 0 1-.2-.3zm41.5 2.7c-.1-.3-.4-.5-.5-.5-.4 0-.3.7 0 .8.7.3.8.2.5-.3zm36.7-1.4c1.6-2.4 2.2-3.4 2.2-4.2 0-.8-.8-.3-1.5 1l-1.5 2.8c-.8 1.5-1 2.3-.6 2.3l1.4-1.9zm2 1.1c1.6-1.2 4.4-5.6 4.4-6.8l-1.4.2c-1.3.3-1.5.5-1.5 1a15.2 15.2 0 0 1-3 5.8c-.3.6.8.4 1.5-.2zm-7-.6c-.1-.4-.4-.7-.6-.7-.3 0-.3.1 0 .8.6.9.8.8.6-.1zm-40.3-.6L54 27c0-.6.5-3 1.1-5.3l1.1-4.3h-.5c-.3 0-.5.2-.6.8-.1.5-.4 1-.6 1.2-.2.2-.4.7-.4 1 0 .4-.3 2.4-.8 4.5-.8 3.6-.8 5-.2 4.8.2 0 .4-.5.6-.9zm-47-.6c-.1-.2-.2 0-.2.5s.1.7.2.5v-1zm18.7.3 1.2-2c.8-1.2 2-2.7 2.6-2.8.2-.1.3-.3.2-.6-.3-.7-.7-.5-2.4 1.7-1 1.4-1.6 2-1.9 1.9-.7-.3-.7-1.3.3-3.6.5-1.3 1-2.7 1-3.1 0-.5.1-.9.4-1 .4-.3.4-.3 0-.9-.3-.4-.4-.7-.2-1.2.4-1 .3-3.6-.2-5.1-.4-1.4-.4-1.5 0-1.8.4-.3.5-.6.3-2l-.2-2.5c0-.7 0-.9-.6-1-1.4-.4-1.5-.3-1.6 3.4l-.3 6c-.6 5.3-.7 6.7-.3 6.6.2-.1.7-1.5 1.2-3 .7-2.7 1.2-3.5 1.5-2.8l-.2 1.4-2.9 9.4c0 .5 0 .8.7 1.4.8.6.8.7.4 1-.3.4-.4.7-.3 1 .2.8.6.6 1.3-.4zm38 .6c0-.4-.8-.8-1-.5-.1 0 0 .3.3.5.6.5.7.5.7 0zM33 28.4c0-.1 0-.2-.2-.2s-.3.2-.3.4.1.3.3.2l.2-.4zm52.7-3.2.1-7.7c0-1.5.2-2.9.3-3.2L86 13c-.3-.9-.3-.8-.8 1-.4 1-1 1.2-.9 0v-.6l-1 1.3c-1 1.5-1.6 3.9-1.6 5.3 0 1.1-1 3.3-1.8 4l-.6.7c0 .1 1 .7 2.1 1.2 1.2.5 2.5 1.3 3.1 2l1.2 1v-3.7zM37.3 28c0-.4-.1-.6-.3-.5-.1.1-.3.4-.3.7 0 .3.2.5.3.5.2 0 .3-.3.3-.7zM178 28c0-.2-.2-.4-.9-.4-1.4 0-1.1.8.3.8.4 0 .6-.1.6-.4zM48.6 25.3l1.4-2.8 1.1-2.6c.1-.4.5-.8 1-1a17 17 0 0 0 4.5-4.4c.3-.9.6-4.6.4-4.6-.2 0-.4.5-.6 1.1-.6 2.6-1.8 5.2-2.5 5.9-1 1-1.5.6-1-.8 2.3-5.4 2.9-6.9 2.9-7.2 0-.6-.4 0-1 1.3a109 109 0 0 1-4.5 10 29.4 29.4 0 0 0-3.2 7.7c0 .5 1-1.2 1.5-2.6zm21.3 2a2 2 0 0 0-1.4-1h-1.1c-.4.2 0 .6.7.6.3 0 .8.3 1.2.6.9 1 1.2.8.6-.2zm104.5.6c.4 0 .7-.1.6-.3-.2-.3-2.8-.3-2.8 0 0 .4.4.6 1 .5l1.2-.2zm-79.6-.5c-.2-.3-.6-.1-.6.3 0 0 .1.1.4 0 .2 0 .3-.2.2-.3zm-37.7-.7c.3-.3 1.3-.8 2.1-1l1.8-.8c.1-.2.5-.3 1-.2.4 0 .8 0 1-.2.2-.2.8-.3 1.2-.4.5 0 1-.3 1.3-.7.4-.5.8-.6 1.9-.6.9 0 1.4 0 1.6-.3l.6-.4c.2 0 .5-.3.8-.7.3-.3.7-.6 1-.6.5 0 5 2.6 5.8 3.3.2.2.6.4.9.4.9 0 3-5.6 2.7-7.3 0-.5 0-1 .3-1.3.2-.3.4-.8.4-1.1 0-.5.7-1.4 1-1.2.3.2.7-.2 1.6-1.8.7-1.2 1-2.1 1.1-3.1.1-1 0-1.4-.1-1.4-.7 0-1.5 1-2 2.6a6 6 0 0 1-1.4 2.6c-.9.9-1 1.3-1.5 3.9-.9 4.3-1.2 5.2-1.5 5.2-.2 0-.5-.3-.5-.6-.1-.3-.4-.5-.6-.5-.5 0-.5-.5.3-4.4l.6-3.5-.7 1.9a19 19 0 0 1-2.4 5.3c-.8.5-.7-.4.2-2.3.6-1.1 1.1-2.6 1.2-3.3.3-1.7.7-2.5 1.2-2.3.9.3 1-.6.9-4 0-1.6-.2-3-.3-3-.1 0-.4.6-.6 1.3l-.7 1.7c-.4.7-1.4 4-1.4 4.8a21 21 0 0 1-4.3 6.5c-.4.2-.5.2-.6-.1-.1-.3.3-1 1-2l1.6-2c.3-.4 1-1.8 1.4-3.2a263.6 263.6 0 0 1 2.4-7c-.2-.1-.1-.2-1.2 1.7-.5.8-1.3 1.7-1.6 2a12 12 0 0 0-3.3 3.8c-.3.5-.4 1.3-.3 1.8.3 1-.6 4.2-1.1 4.4-.8.3-1-.4-.4-1.7a6 6 0 0 0 .6-3c0-1.7-.1-1.9-.3-1.3-.3.8-1 1-1 .3 0-1 .5-2.4 1-2.6.4-.1.5-.5.7-1.8V5.9c-.2-.8-.3-1-.8-1-.7 0-.7.1-1 2.2L68 9.3l-.7 1.8-.4 2.5a5 5 0 0 0 0 2.6c.4 1.4.1 5.5-.4 5.7-.7.3-1-.9-.6-2.5s.3-3.1-.3-3.3c-.2-.1-.3.5-.3 2 0 3.3-.3 4.4-1 4.5-.6 0-.6 0-.4-1 .2-1 .2-1-.4-.5-.3.3-.6.8-.6 1-.1.8-1 1-1 .3 0-.2.4-1.3.9-2.3 1-2.1 2.3-5.3 2.3-6 0-.4-.2-.5-.8-.3-.8.1-.8 0-.8-.6 0-.4 0-.9.2-1.2.4-.6 0-1.5-.6-1.5-.1 0-.7.3-1.1.8-.9.8-1 1-1 2.8a6 6 0 0 1-.3 2.5 10 10 0 0 0-.5 3.3c0 1.5-.2 2.8-.3 3-.2.1-.6-.1-1-.6-.7-.7-.7-.7-.2-1 .4-.2.5-.7.7-2.7 0-1.4.2-2.6.4-2.7.3-.5.4-2.5 0-2.5-.5 0-2.3 2.2-2.4 3l-.7 3.3a969.2 969.2 0 0 0-1.8 7.1c-.1.2.2.3.6.4l.8.1c.1 0 .5-.2.8-.6zm11.6-5.6c-.3-.4.2-1.8.7-1.9.4 0 .4.1.4 1 0 .6-.3 1-.6 1l-.5-.1zm117 5.6c.8-.4 1.4-.6 1.8-.5.4.1.6 0 .7-.3.3-.5 0-.8-.4-.4-.2.2-.8.3-1.4.3-.7 0-1 .1-1 .4 0 .5-.2.6-1.6.9l-1.1.2h1c.5 0 1.3-.2 2-.6zm-29.5.2c-.7-.4-1.2-.4-1 0l.8.2c.7 0 .7 0 .2-.2zm-2-.7c0-.8.2-1 2.4-1.3 2.2-.4 3.6 0 3.4 1-.1.3 0 .4.1.4.2-.1.4-.7.4-1.3 0-.9.2-1.3.7-1.6.5-.5.5-.5-1.2-.5-1.4 0-1.6 0-1 .3l.5.5c0 .4-1 .5-1.5.3-.3-.2-1-.3-1.6-.3-1.4 0-2.3-.8-1.9-1.6.3-.4.8-.5 3.6-.6h3.6c.5.4 8 1.5 8.3 1.3.3-.3-2.9-1.5-4-1.5-1.2 0-3.2-.6-4-1.3l-.8-1.3c-.3-.7-.5-.8-1.2-.8-.5 0-1.1.1-1.4.3-.5.4-.5.4 0 .6.2 0 .4.3.4.5 0 .6-.7.7-4.8 1-3.2 0-4 .2-4.5.6-.4.4-.8.4-2.8.3l-15.2-.4c-11.6-.1-12.8-.2-12.9-.6 0-.4 1-.4 12-.5l15.9-.1c3.9-.1 5.1-.5 2.8-.8a4 4 0 0 1-1.9-.7c-.3-.3-1.1-.5-3-.6-2.7-.2-3.6-.5-3.6-1s.6-.8 1.6-.8c.4 0 .9-.1 1-.3 0-.3.7-.4 2.6-.4h2.5c0-.3-.8-.6-1.5-.6-.3 0-.7-.2-1-.4-.4-.6-2-.5-2.1.1 0 .3-.5.6-.9.7l-1.7.5c-.5.2-1.9.3-3.1.2-1.8 0-2.4 0-3 .5-.9.6-4.8 1-5.3.4a8.2 8.2 0 0 0-3.7-1.2c-1 0-1-1 0-1.3.9-.4.7-.7-.7-1l-1.2-.4-1.9 2-2.3 2.7c-.3.4-1 1-1.7 1.3-1.2.7-1.3.9-2 2.9a6.8 6.8 0 0 0-.5 2.3c0 .1 6.3.3 13.8.3 7.5.1 14.1.3 14.8.4.8.1 1.2.3 1.4.8.2.4.5.6 1 .6.8 0 2.5.2 5.4.8 2 .3 2 .3 1.8-.4zm28.4-.2c.7-.1 1.3-.4 1.3-.5 0-.4-1.4-.3-2.2.2l-1.2.4c-.3 0-.6 0-.6.2s.7.2 2.7-.3zm-176 0c0-.3-.1-.4-.3-.3-.1 0-.2.2-.1.4.2.3.4.3.4-.2zm13-4.1c.1-2.2.3-4.2.4-4.3 0-.2 0-.3-.4-.1-.6.1-.6 0-.6-1.7 0-1 .3-3.6.6-5.7.6-4.6.6-5 .2-4.8-.1 0-.3.6-.3 1.2a3 3 0 0 1-.4 1.6c-.6.8-1.1 3.2-.8 3.8.2.4.3 2 .2 4.6a77.3 77.3 0 0 0 0 3.7c0 1.7.7 6 1 5.8l.1-4.1zm153.5 3.4c.1-.2-.2-.2-.7-.2-.6 0-1 .1-1 .2 0 .3 1.5.3 1.7 0zm-135-.2v-.6c-.3-.4-.2-.7.3-1.6.4-.6.9-1 1-1 .1 0 .3-.2.3-.4s.4-.7.9-1l1.4-1.7c.8-1.3 1.6-1.7 2-1 .3.3.5.2 1.2-.8l1.3-2.3c1.3-2.6 3-4.8 3.5-4.8s1.1-1 1-1.7c-.1-.4-1.2 0-3.9 1.7-2 1.3-2 1.3-3.8 5.4-.4.8-.8 1.5-1 1.5-.3 0-.3-.7 0-1.4l.6-1.3c.2-.7-.3-.4-2.6 2-2.7 2.7-2.9 3-2.9 4 0 .5.2 1.3.4 1.6.3.6.3.8 0 1-.7.5-.9 1.4-.5 2 .4.6.6.7.8.4zM88 24c.4-1 .5-1.5.8-3.6.2-.7.3-1 .7-1 .3 0 .6-.2.7-.5 1-4.7 1.2-7.2.4-9.3-.7-1.7-.7-1.8 0-1.8.4 0 .5-.2.5-1.5 0-1-.1-1.4-.3-1.4-.2 0-.9.9-1.5 2-.6 1-1.3 2-1.5 2-.6 0-1 .7-.7 1 .4.5.4 3.2 0 4.8-.2 1-.2 1.2.3 1.7.6.7.6.7.2 2.7-.3 1.1-.6 3-.7 4.1-.1 1.8 0 2 .3 2 .2-.2.6-.7.8-1.2zm82.1.6c-.2-.3-.7.1-.5.4 0 .2.2.2.4 0 .2-.1.2-.3.1-.4zm-96-.1-.6-.3c-.3 0-.4.1-.3.3l.6.2c.2 0 .3 0 .2-.2zm21.8-1.3c2-.5 2.9-.8 3.3-1.3.9-1 2-3 1.8-3.2 0 0-.6.1-1.3.5l-1.4.5c-.6 0-3.5 1.6-3.5 1.9l-.6.2c-.8 0-1.5.5-1.5 1.2 0 .5.2 1 .4 1l2.8-.8zm-.5-1c-.2-.6.2-1 1-.9.4.1.6.3.6.7 0 .7-1.3.9-1.6.2zm83.6 1.5c.1-.1-.4-.3-1-.4-1.4-.1-1.6-.2-1.4-.8.2-.3.7-.4 2.5-.4 1.6 0 2.4-.1 2.9-.4.6-.4.6-.4.9.2.3 1-.1 1.5-1.4 1.6l1.3.1c2.4 0 2.5 0 2.3-.4-.2-.7.6-1.1 2.1-1.1h1.2l-.1-2.9-.4-3a9 9 0 0 0-2.6-.3c-2 0-2.4 0-2.5.4-.2.7-1.8 1.2-4.3 1.4-1.3.1-3 .4-3.9.7-.8.3-1.8.5-2.3.5-.8 0-1.2.4-.8.7l2.7.3c1.6 0 2.6.3 3 .5.6.7 1.6.3 1.6-.6 0-.6.1-.8.6-.8.4 0 .6 0 .6.3v.7c.1.2.4.4.8.5.9.2.8.9-.2 1-.4.2-2.2.3-3.9.4-2.9.2-3.1.1-3.2-.3-.2-.5-1.7-1-2-.6-.4.3.5 1 2.1 1.6 2.9 1.2 5.1 1.6 5.4 1.1zm-63.7-1.4c1-2.2 1-2.4-1-1.7a48 48 0 0 1-5.9 2c.2.1 4.8 1 5.8 1 .3 0 .7-.4 1.1-1.3zm-87-1.6c0-.5-.1-1-.3-1.3-.4-.2-.4-.2-.4.4l-.2 1.3-.5 1.4-.1.8.8-.9c.5-.6.8-1 .8-1.7zm73 1.2-.2-.7c0-.3-.8.6-.8 1l.6.2c.4 0 .5-.2.4-.5zm4.2-.7 2.3-.8 1.6-2.3 5.2-6.6c.9-1 1-1.3.5-1.3-.8 0-1.5.3-1.4.6.2.5-.3.8-2.1 1.5-1.8.6-3.5 2.2-3.8 3.5-.1.8-.4 1-2.4 1.5-.6.2-1.2.5-1.3.8l-.9 2-.7 1.8c0 .3 0 .3 3-.7zm-11-1.2c.3-.2.3-.3-.3-.8-.5-.5-.5-.6-.2-.8.5-.3 1.4-.3 1.7 0 .3.3 3.1-.3 4-1l1.4-.2c.8.1 1 0 1.6-.7.3-.4.6-.8.5-1l-1.8.7c-2.4 1-3.2 1.3-3.2.7 0-.2.6-.7 1.5-1a13 13 0 0 0 2.2-1.2c.3-.3 1.4-.8 2.5-1.2 1-.4 2.4-1.2 3.2-1.8a29 29 0 0 1 4-3l.8-.3h-1.1c-.7 0-2.5.4-4.5 1.2l-4.9 1.6c-2 .7-6 2.8-6.9 3.6-.8.8-1.5 2.9-1.5 4.4 0 1 .3 1.3 1 .8zm-15.3-3a195.4 195.4 0 0 1 1-5.6c-.2-.2-.4.6-1.4 5.2l-.4 3.2.8-2.7zm32.8 2 3-1c1.2-.3 3.2-2.2 4.5-4.2 1-1.6 1.2-2 1-2.5-.2-.2-.3-.7-.4-1-.3-.7-3.6-.5-3.6.3 0 .3-.7 1.2-1.5 2a62.5 62.5 0 0 0-5.4 6.7c-.2.2-.1.7.1.7l2.3-1zm-89.5-1.9c.2-1 .4-4.2.5-7.1l.2-5.4h-.7c-.4 0-.8.2-.9.3-.1.2-.2 2.4-.1 4.8 0 3.4 0 5-.4 6.6-.5 2.4-.4 2.9.5 2.7.5-.1.7-.3 1-1.9zm11.8.7A76.7 76.7 0 0 0 36.7 7l.1-2.3h-2.1c-1.2 0-2.3.1-2.6.3-.3.2-.5 1-.7 2.6l-.5 3.2c-.5 1.7.2 6.4.8 5.8.3-.2 1-4.8 1.6-9.1.2-1.7.4-2.3.7-2.3.5 0 .5 1.4 0 4.7-.8 5-1.3 7-1.7 7.8-.4.6-.4.7 0 1 1 .8 1.4.6 2-1zM153.4 19h-1c-.4 0-.2.1.4.1.5 0 .8 0 .6-.1zm14 0 1.2-.2-1.5-.4-2.2-.7-.7-.1.6.8c.6.9.7.9 2.5.6zm-3.7-.6c-.1-.3-.4-.5-.5-.4-.2.1-.2.3 0 .5.5.6.9.5.5-.1zm-151-1.9c.1-1 .3-1.7.6-1.9.4-.3.4-.5.2-1.5-.2-.7-.3-2.7-.3-4.4 0-2-.1-3.3-.3-3.3-.3 0-.3-.3-.3 3.5-.1 3.1-.3 4-.8 3.9-.2-.1-.3-.7-.2-1.7l-.1-4c-.2-2.3-.2-2.5-.7-2.4-.8.1-1 2.2-.2 2.7.4.2.5.6.5 2.8 0 1.5.1 3.2.3 4a6 6 0 0 1 0 2.5c-.3 1.3-.2 1.4.6 1.4.5 0 .6-.1.7-1.6zm141.4.5c.2-.3 0-.5-1-.6-1-.2-3 0-2.8.3.2.1 2.2.6 3 .6.4 0 .7-.1.8-.3zm15-.3c0-.3-.4-.6-.8-.7-.4-.2-1-.5-1.1-.7-.5-.4-1.7-.3-2 .2-.4.7 1.3 1.5 3.1 1.5.5 0 .7 0 .7-.3zm3.8-.4c0-.3.5-.7 1-.8.7-.2.5-.2-1.2-.3-1.9 0-2.1 0-2.3-.5 0-.3-.3-.5-.7-.5-.6 0-1.4.4-1.2.6l4 2c.1 0 .3-.2.4-.5zm-25 0h-1.2c-.3.1 0 .2.5.2.6 0 .9 0 .6-.1zm32.5 0c.3-.2.2-.4-.3-.9-.8-1-1.7-1.1-2.5-.5a3 3 0 0 1-1.7.6c-.7 0-.8 0-.5.2.2.2.9.3 1.4.3.6 0 1.3.1 1.5.3.5.3 1.6.3 2 0zm-73.8-1c.5-.5.1-.7-.5-.3-.3.2-.5.5-.4.6.3.2.5.2.9-.3zm27.7-.2c.3-.3-2.4-.2-3 .1-.3.1.3.2 1.2.2.9 0 1.7-.2 1.8-.3zm-11.4-3-.4-.3c-.3 0-1.6 1.9-1.6 2.4l-.2.6 1-1c.9-.8 1.3-1.4 1.2-1.6zm-103 2.3v.5c.2-.1.2-.3 0-.5zm19.3-.3c.2-.8 1.1-1.8 1.7-1.8.5 0 .4.6-.3 1.3-.8.7-.9 1-.3 1 .4 0 2-2 1.9-2.3l-.6-.3c-.5 0-.5-.5.2-1.8.7-1.7.9-3 .5-4-.3-.6-.3-.9 0-1.2.3-.4.3-.4-.4-.3-.7 0-.8.2-.9.9a72.6 72.6 0 0 1-2.4 8.8c0 .5.5.3.6-.3zm101.5-.3c.2-.4.5-.8.8-1 .6-.4.8-1 .3-1-.3 0-2.3 1.6-2.6 2.2-.3.4-.2.4.5.4.6 0 .8-.1 1-.6zm18.4.5c.5-.2.5-.8 0-1-.4-.2-1.5.1-2.3.7-.6.4-.5.4.6.4l1.7-.1zm23.4-.2c-.2-.4-.9-.6-1.5-.4-.6.3-.1.7.8.7.5 0 .7-.1.7-.3zm-31-.2c.3-.1.2-.3-.3-.6s-.8-.4-1.9-.1l-1.3.3 1.3.3c1.7.4 1.8.4 2.2.1zm36.3-1.9a7 7 0 0 0-2.4-4.6c-1.6-1.6-3.6-2.3-3.3-1.2.4 1-1.7 1.8-5.7 2.1-3.5.3-5.2.7-5.3 1.4-.2.7.3.9.9.3.4-.4 1-.5 4.1-.6 3.5 0 3.7 0 4.6.6 1 .7 1.3 1.3.6 2.1-.5.5-.5.5.8.4 1-.2 1.3-.1 1.5.3l.1.6h.5c.4 0 .7-.2.7-.3 0-.5.8-.4 1.6.1.5.4 1 .6 1.2.5V12zM59 12.7c.8-.7 1-1 .8-1.6-.2-.8.2-3.3.9-4.6.5-1 .2-1.4-.4-.4-.3.4-.6 1-.8 1.1-.4.4-.5 1-.4 2.3 0 .5 0 .8-.5.9-.4 0-.5.3-.5.8 0 .4-.1 1.1-.3 1.6-.3 1.1 0 1 1.2 0zm73.4.8h-.6l.2.1.4-.1zm31.6 0c.3-.4-3.2-3.6-4-3.6-.3 0 0 .8.6 1 .8.4 1.1 1 .7 1.5-.6.7.1 1.2 1.4 1.2l1.3-.1zm4.4-.3c1.5-.4 1.7-.4 2.6 0a4 4 0 0 0 1.8.4c.7-.1.7-.1-.7-1-1.2-.6-1.6-.7-1.7-.4-.2.5-1.3.5-1.9 0l-.7-1.3c-.5-1.4-1-.7-1 1.3v1.4l1.6-.4zm-32-.5c0-.2.4-.4 1-.5 1-.2 1.6-.6 1.6-1h-2c-1.8 0-2.2 0-2.2-.3 0-.5.6-.7 2-.7.6 0 1.5 0 2-.2.9-.1 1-.2.7-.5a.8.8 0 0 0-.7-.2l-2.1.2c-4.3.4-5.6.6-5.7.8 0 .2.4.3 1 .4.7 0 1 .2 1 .6 0 .4-.2.5-2.4.5-1.6 0-2.4-.1-2.5-.3 0-.3-.2-.3-.6 0-.5.2-.4.2.2.4l3.9.2c2.6 0 3.1.1 3.4.5.4.6 1.4.7 1.4.1zm17 .2c0-.2-.3-.3-.6-.4-.5-.1-.7 0-.4.4.3.3 1 .2 1 0zM66.7 9.6c.5-1.6 1-3.3 1-3.8.2-.8.2-1-.3-.9-.6.1-2.4 3.4-2.5 4.6 0 1.1.3 3.4.6 3.2l1.2-3zm98.8 2.5c-.2-.5-1-1-1.2-.8-.2.2.6 1.3 1 1.3.1 0 .2-.2.2-.5zm10.6.2-.3-.4c-.1 0-.2 0-.2.3 0 .2 0 .4.2.4s.3-.1.3-.3zm-18.4-.3c.9-.4.8-.6-.3-1.1-.7-.4-1.3-.5-2.4-.3-1 0-2 0-2.9-.3l-1.8-.4c-.5 0-.4.1.2.6 1 .6 3.3 1.3 4.6 1.3l1.4.2c.5.4.4.4 1.2 0zm-14.2-.2c0-.2 0-.3-.2-.3l-.4.3c-.1.1 0 .2.2.2.3 0 .4 0 .4-.2zm-16.9-.3c0-.1-.1-.3-.3-.3-.3 0-.3-1.2.1-1.3.2-.1-.1-.2-.7-.3-1.3-.3-1.5 0-.7.6.5.4.6.6.3.8-.5.5-.3.8.5.8.4 0 .8-.1.8-.3zm-14.6-.4c.5-.3.8-.5.7-.6l-1.2.5c-1 .6-.9.7.5 0zm36.2.2c.6-.1.6-.2.5-1.1-.2-.8 0-1 .4-1.4.7-.5.6-.5-1.6-1.3a7 7 0 0 0-3.7-.4c-1.6.2-2 .1-2.3-.2-.4-.5-.1-.7 1.2-1l1-.2h-1.1c-.8 0-1.4.2-2.2.7-.9.6-1 .8-.7.8 1.5.3 1.7.4 1.7 1 0 .5.2.6 1 .8.8.1 1 0 1.7-.7 1-1.1 2.6-1 2.6.4 0 .2.1.4.3.5h.5l.5.2c.2 0 .3.2.3.4 0 .5-1 .7-2.3.4-1-.2-1.1-.2-1.1.4l.1.7c.3.3 2.4.3 3.2 0zm-104.5-.7c.7-.6.8-.7.8-3.2 0-3.2-.5-3.3-1.1-.2a17 17 0 0 1-1.2 3.9c0 .4.8 0 1.5-.5zm19-1.3 1.6-1.8c.5-.6 1.5-2.4 1.4-2.5a7 7 0 0 0-3 0c-.4.2-.8 1-1.2 3.2-.2.9-.4 1.7-.6 1.8-.3.4-.2.7.2.7.2 0 .9-.6 1.6-1.4zm19.5 0c0-.1-.2 0-.4 0-.3.3-.4.6-.4.9 0 .3 0 .3.4-.1l.4-.8zm14.8.1 3-1.7c1.3-.7 2-1.6 2-2.3 0-.4-.2-.5-2.2-.3-2.5.2-2.8.2-4.4 0-1-.3-1-.3-1 .4l-.3 1.2c-.4.8.2 3.8.8 3.8l2-1zm45.4.9h-.5c-.2 0-.1.1.2.1.2 0 .4 0 .3-.1zm-50-1.4-.1.5v.5c.2-.3.2-.7 0-1zm65.5-.1c-.3-.8-.7-1.4-1.6-2-1.8-1.4-2.3-1.5-3.4-1.1-.6.2-1.9.2-4.3.1-3.6-.1-3.6 0 0 1l3 1.2c.4.2 1 .3 1.3.2.6-.1 4.3 1 4.8 1.5s.6.2.2-.9zM75 6.2c.4-.6.7-1.2.6-1.3a171 171 0 0 1-3.2 0c-.5 0-.5.2-.5 2.4v2.3l1.2-1c.6-.7 1.5-1.7 1.9-2.4zm5.6 1.2c0-.9.2-1.8.3-2 .2-.4 0-.5-.5-.5h-.8l.2 1.8.2 2.4c0 1.2.4 0 .6-1.7zm22.2 1.8 2.6-.6c.8-.1 2-.4 2.6-.7a14 14 0 0 1 3.3-.6c2 0 2-.1 1.3-.4-.5-.2-.9-.5-.9-.6 0-.5.8-.6 2.6 0l2.5.4c.8 0 2.3-1.1 2-1.5l-5.8-.3c-5.6 0-5.6 0-6 .6 0 .3-.6.7-1.2.8-.5.2-1.2.6-1.6 1l-2 1.3-1.3 1c0 .2.7 0 1.9-.4zm-55-1.7c1.4-2.5 1.4-2.5.4-2.7-1.4-.3-2 0-2.4 1.3-.2.9-.2 1.3 0 2l.7 1c.2 0 .8-.7 1.3-1.6zm119 .6c-.1-1.2-1.8-2.9-2.5-2.4H163c-1-.3-3.1-.4-3.1-.1l1 1.4c1.1 1.3 1.2 1.3 1.6.8.3-.5.6-.5 1.8-.5 1.2 0 1.5.2 1.5.5s-.3.4-1 .4c-.6 0-1.3.1-1.5.3-.3.2-.1.3.7.4l2 .1c.9 0 .9 0 .8-1zm-36.9.6c.6-.2.6-.2.2-.5-.4-.3-.4-.4-.2-.7.2-.2.2-.4 0-1-.3-.3-.3-.8-.3-1 .2-.4-.2-.4-1.9-.2l-1 .2 1 .3c1.3.4 1.7 1.3.6 1.7-1 .4-1 .8-.4 1 .8.4 1.2.4 2 .2zm5.4-.2c.6-.4.6-.4-.4-.4-1.3 0-2.3.2-2.3.5 0 .4 2 .3 2.7-.1zm24.2-.3c0-.3-.2-.4-.3-.3v.5l.3.4v-.6zM59.2 4.9h-1c-1 .1-1 .1-.9 1.2 0 .6.2 1.4.4 1.8l.3.8.6-1.8.6-2zm28 2.6c0-.3.2-.5.3-.5l1-1 .6-1.1h-.6c-1.2 0-1.7.5-1.9 1.5 0 .6-.2 1.2-.3 1.5-.2.6.6.3.9-.4zm50.6.6c0-.2-.3-.3-.7-.3-.6 0-.7 0-.3.3.5.3 1 .3 1 0zm-81.5-.8c0-.3 0-.5-.2-.4-.2 0-.3.3-.3.5s.1.4.3.4c.1 0 .2-.2.2-.5zm66.8-.1c-.3-.6-.3-.7 0-1 .4-.3.4-.4 0-.5-.9-.4-1-.3-1 .4.1.4 0 .6-.4.8-1.1.3-.6 1 .8 1 1 0 1-.1.6-.7zm51.6-.2c1.4-.2 2.1-.2 2.4 0 .3.3.8 0 1-.6.1-.3.5-.4 1.1-.4 1.3 0 1.2-.5-.2-.6-1.4-.2-8.2.2-9.4.4-.4.1-.8.4-.8.5 0 .4 2.8 1.2 3.4 1l2.5-.3zm-124 0c.5 0 1.1-1 1.1-1.7 0-.5-1.4-.5-1.8 0l-.4 1.2c-.2.7-.2.8.2.7a3 3 0 0 1 1-.2zM84 6.7l.8-1c.5-.8.5-.8 0-.8-.2 0-.7.4-1 .8-.6 1.2-.5 1.7.2 1zm36.3-.5c.3-.5-.3-.2-.8.3-.5.6-.5.6 0 .3l.8-.6zm17.3.2c.7-.3.7-.3-.7-.5-1.6-.1-2 0-2.7.7-.4.5-.3.5 1.1.3.8 0 1.9-.3 2.3-.5zm-12.4.1-.4-.4c-.4-.1-.4 0-.1.2.4.5.5.6.5.2zM82.8 5.2c0-.4-.7-.4-1 0V6c.3.6.3.6.6 0l.4-.8zm-44-.4c0-.1-.2-.2-.6-.2-.5 0-.7.2-.7.6l.2.8c.2.2 1.2-.9 1.2-1.2z"/>
</svg>
