<?xml version="1.0" encoding="utf-8"?>
<svg xmlns="http://www.w3.org/2000/svg" xmlns:svg="http://www.w3.org/2000/svg" version="1.1" viewBox="0 0 163 135">
	<title>Flopsy sweeps the floor and ignores Mr. Bouncer who is still crouching to the side of his wicker chair.</title>
	<path d="M2.2 134.5c-.6-.3-1.1-.8-1.2-1 0-.3-.3-.9-.5-1.4a2698.4 2698.4 0 0 0 .2-46.9c0-9.2-.3-34.2-.5-43-.3-11.1-.3-13 0-20.3.2-2.2.2-7.4.2-11.6 0-4.6.1-7.8.3-8.1C1.3 1 .8 1 42.5.9a96259.3 96259.3 0 0 0 109-.3c5.4 0 6.9-.1 7-.4.1-.5 1.9 0 2.7.8.6.5.6.7.5 2a47 47 0 0 0 .4 11.5c-.2 0-.2 21.2-.1 51.1 0 61.3 0 64.9-.2 66.9l-.1 1.6-16.8.2c-19 .3-64.9.3-99.1.1-20.6-.1-33.7 0-40.2.5-2.1.1-2.5 0-3.4-.4zm74.7-2.8H91c2 .1 7.3 0 12-.3 6.4-.3 9.9-.4 15-.2 7.7.3 7.4.3 16.5 0a333 333 0 0 1 17.2 0c2.3-.1 6.1-.6 6.6-1 .3-.3.6-6.7.7-15.8a65 65 0 0 1 1.2-16v-2l-.4-4a201.4 201.4 0 0 1 .1-31.1c0-3.2 0-3.6-.4-3.5-.5.1-.8.6-1 1.6-.2 1-1.7 1.8-3.3 1.8-.7 0-1.7.1-2 .3a83.5 83.5 0 0 0-5.6 2.3c-.4 0-.5.7 0 1a25 25 0 0 1 3 3.7c2.5 3.8 4.1 9 4.7 14.8a31.4 31.4 0 0 0 .8 4.7 48 48 0 0 0 1 5c.2 1.4.3 4 0 6-.2 1.6-1 2.7-2 2.7-.5 0-.8.2-1 .6-.5 1.3-.5 1.3-8.3 1-.5-.1-1.3.1-2 .4l-1.2.6 2.4-.1c2.4-.2 3.1 0 2.4.6-.4.3-1.4.3-6.2 0-1.4 0-5.4.6-6 1-.4.2-2 .7-3.7 1-1.7.4-3.8 1-4.7 1.4l-2.4.6c-1 0-2-.8-2.2-1.9-.1-.6-.4-.8-1.2-1-1.1-.4-1.3-1-.4-1.1 1-.3-5.8.4-8.4.7-1 .2-1.2.1-1.2-.2 0-.3.4-.5 1.2-.6.7 0 2-.3 2.9-.5l2.6-.4c1 0 2.4-.4 2.2-.7 0-.2-1-.2-2.2 0-3.3.2-3.6.2-3.7-.4-.1-.3-.3-.5-.7-.4-1.7.4-9 1.5-10 1.6-1.4 0-1.8-.5-.5-.8a480.3 480.3 0 0 1 18.9-3c-.1-.2-.7-.3-1.4-.2a2840.3 2840.3 0 0 1-9.7 1.2c-2.6.6-4.2.2-2.5-.6 1.1-.5 1-.5-1.8 0-2 .3-3.1.2-2.6-.3a55 55 0 0 1 8.7-1.6c1.7-.2 2-.1 2 .2 0 .3-.2.5-.4.6l.8.1c.9 0 1.3 0 1.7-.4.4-.6 3.3-1.3 3.8-1 .5.4.1.6-1.4.9-1.5.2-1.6.2-.6.3.6 0 1.5 0 2-.2.9-.2 1-.5.2-2.5a37.4 37.4 0 0 1 .7-19c.5-1 .4-1.1-.5-.7-.5.2-.7.5-.7 1l-.2 2.3c0 .3-2.3 1.1-3.2 1.1-.4 0-1 .2-1.4.4-.3.2-.8.3-1 .2-.5-.2-1.4.4-1.2 1 0 .3-.1.6-.7 1-2.3 1.8-3.4 3.6-3.4 5.3l-.1 1.1a1 1 0 0 1-1-1c0-.3 0-.6-.2-.6l-1.3 1.5c-.8 1-1.1 1.8-1.1 2.4 0 .9-.6 1.6-1 1.1a2 2 0 0 1 0-1c0-.4 0-.7-.2-.7s-.2.4-.2 1c.1 1.3-.2 2.6-.6 2.6a.4.4 0 0 1-.4-.4c0-.2-.2-.4-.4-.4-.3 0-.4.3-.4.8 0 .6-.1.9-.5 1-.6.1-1 .7-.6 1l2.6-.2 3-.2c.7 0 .4.5-.4.5-.3 0-.2.1.3.2 1.5.3.9.7-1.9 1.2-1.5.2-3 .5-3.4.7-1 .4-2.3.4-2.3 0 0-.1.1-.2.3-.2l.3-1 .4-1.6c0-.5 0-.6-.3-.6-.5 0-1 .9-1.2 2.2-.1 1-.3 1.2-1.2 1.7-.6.3-1.1.8-1.2 1-.2.5-.6.6-1.7.8-1.1.1-1.4.3-1.6.7 0 .3-.3.5-.4.4-.4-.1-.5-2-.2-3.1.2-.5 0-.4-.4.3-.4.5-.7 1.3-.7 1.7 0 .5-.1.7-.6.6-.5 0-.6-.3-.6-.9l.2-1.4.2-.6-.8.6c-.4.3-.8.8-.8 1 0 .6-.7 1.2-1.2 1-.3-.1-.4-.4-.3-.7 0-.4 0-.6-.3-.6-.2 0-.4-.1-.5-.4 0-.2-.3-.3-.5-.3-.7 0-.7-.6 0-1.4l.8-.8-1 .2c-.6 0-1.4.4-1.7.7-.6.5-1.1.4-1.1-.2 0-.2.4-.6 1-1l.8-.8.4-.2 1.2-.6c.8-.6.8-.7.4-.7s-1 .3-1.4.7c-1.3 1-2.2.7-1.1-.4.7-.8.7-1.1-.3-1.1s-1-.4 0-1l.7-.3h-1c-1.2 0-3.3.7-3.5 1.2-.1.4.7 2.6 1.2 2.9.4.2.3 1.2-.1 1.8-.5.7-4.5 1-6.2.6-.9-.2-1.5-.2-3.3.2l-5.2 1c-4.3.7-5 1-5.8 1.7-1 .9-3 1.2-6.3 1-3.1 0-4.7-.5-6-1.6-.9-.7-2-1.3-4.2-2-1.6-.4-1.8-.4-1.8.3l-.3 1c-.4.4-.5.4-2.6 0-3.2-.7-7.2-.4-8.4.5-1 .7-1 .8-2.8.2l-2.7-.7c-.8-.2-1.7-.6-2.4-1.3a5 5 0 0 0-1.8-1c-3.8-.8-5.4-1.4-7.4-3a9.3 9.3 0 0 0-3.4-1.8c-.1 0-.1.2 0 .4.2.6-.8.6-1.7 0-.7-.5-1.2-.3-.7.2.2.2.3.6.3.8 0 .4-.1.5-.6.4-1.5-.2-3.1-7-1.6-7 .2 0 .4.3.5 1C7 93 7.1 93 8 93h.9L8 91c-1-2.3-1-3-.3-3 .6 0 .8.4 1.4 2.3l.9 1.8c.5.4.4 0 0-1-.4-.7-.4-1.5-.3-4 .1-3.6.2-4.8.1-12a40.3 40.3 0 0 1 1.3-12c0-.6.3-1 .5-1.2.3 0 .4.1.3.7l-.6 2.6c-.5 2.1-.7 10.1-.4 14.4l.2 2.8v-3.2c0-1.8.2-3.3.3-3.3.1 0 .3 1.5.4 3.3l.3 3.2.2-3.2c.2-3.4.6-6.8 2.3-18.1l1-7.3.5-.5c.7-.7.8-.2.4 1.2a48.2 48.2 0 0 0-1.3 8c-.2 1.3.3 0 .7-1.8.4-1.3.7-1.8.8-1.3.1.2-.7 7.1-1 9.2a51.6 51.6 0 0 0-.3 5.3c.4-2.6.6-3.4 1-3.4.5 0 .5.2.2 2.5-.2 1.2-.2 1.4.1 1.1.2-.2.6-2.5 1-6 1.2-11.7 1.5-13.4 2-12.7.3.1-.2 5-1 11.1-.4 3.2-.5 5.7-.2 5.7.4 0 1.1-4.2 1.4-8.2.4-6.2.9-9 1.5-9 .3 0 .4.3.2 1.3l-.8 7.8c-.1 2.4-.1 2.4.4 1.8.3-.4.5-1 .5-2 0-1.6.7-6.1 1-6.5 0-.2.3-.3.5-.3.3 0 .4.2.2.9-.1.6 0 .7.2.6.5-.4 0-3.1-.7-4.7-.7-1.2-.8-1.7-.7-3.8 0-3.5 1.2-7.4 2.5-8 .7-.5 3 .3 4 1.2.8.8 1.5 2.8 1.5 4 0 .5.1 1.1.3 1.5l.3.8.3-1.1c.4-1.3 2-4.1 2.9-5.2.5-.7.7-.8 1.6-.6 2 .3 2.2.7 2.6 3.6.3 2.5.3 2.6-.4 4.8l-.7 2.7a15 15 0 0 0 1.5 4l.4-3c.4-2.8 1-5.2 1.5-5.7s.6.7.2 2.1l-.6 3.5c-.1 2-.1 2 .3 1.1l.4-1.9c0-1 1-5.4 1.5-6.2.4-.7.9-.6.9.1l-.5 1.8-.3 1.3c.4.4 1.6-1.8 1.8-3 .2-1.7.8-2.2.8-.7 0 .5 0 1 .2 1l1-.8a14 14 0 0 1 2.5-1.7c1.6-.9 1.7-1 1.8-1.9l.3-1.5a57.1 57.1 0 0 1 5-14.6c.5 0 .5.5-.3 2.5a75 75 0 0 0-3.6 11c-.7 3.2-.7 3.3 0 3.2.6 0 .7-.4 1-1.7 0-.9.3-2 .5-2.3l.3-1.1c0-.7 2.7-8.5 3-9.1 1-1.2 1-.2 0 2.3a55.3 55.3 0 0 0-2.8 10c-.2.5-.3 1.1-.2 1.2.2.2.8.2 1.5 0l1.2-.1-.2-1.2a35 35 0 0 1 2-9.9c.9-3 1.2-3.7 1.7-3.7.4 0 .2 1.4-.7 4.2-1.3 4-2 7-2 8.8 0 1.6.3 2.1 1.2 2.1.5 0 .6-.2.7-2 .4-4.2 2.3-11.5 3-11.5.5 0 .5.5-.1 2.2-1 2.8-2.1 9-2 11 0 .2.3.3.5.2.3 0 .4-.4.5-1.5a349.2 349.2 0 0 0 1.2-6c.7-2.6 1-3.3 1.3-3.3.5 0 .3 1-.5 4.1-.4 1.6-.9 3.7-1 4.7l-.1 1.8.8.4 1.3.4 1.2.5c.7.3.8.3 1.1 0 .5-.7 1-.6 1 .3 0 .4.2 1 .6 1.3l.6.6.1-3.4a30.5 30.5 0 0 1 1.5-8.7l.4-.1c.6 0 .5.4 0 3.1l-.9 3.5-.2 3.3c0 1.2-.1 2.1-.3 2.4-.2.3-.2.4 0 .6.3.1.8.7 1.2 1.4l1 1.3c.4.3.9 7.5.6 10-.3 2.4-.6 1.3-.8-2.7-.2-4.8-.4-6.6-1.2-7.4l-.5-.8-1.4-1.6a8.2 8.2 0 0 0-3.7-2.2c-1.9-.7-2.7-.8-5.7-1-2.7 0-3.6 0-4.1.3l-1.9.5a12 12 0 0 0-5.6 3c-1.4 1.1-1.8 1.7-2 2.6-.2.6-.6 1.4-1 1.7-.6.5-.6 1.6.1 1.6.2 0 .4.2.4.5 0 .4-.2.5-.7.5-.8 0-1.1.6-.4.7.8.3.7 1.2-.1 1.2-1 0-.9.5 0 .6 1 0 1 .7.2 1.1-.5.3-.6.4-.2.7.5.4.5.9-.1 1.4-.7.6-.7 1.5-.2 2 .4.4.6 1.1.2 1.4l-.5 1.1c-.3 1-.2 1 .3 1s.7.1.7.8c0 2.9.2 4.1.4 4.5.1.3 0 .6-.1.8-.5.5-.4 1.3.2 1.3.4 0 .5.1.5.8 0 .4-.1 1-.4 1.1-.3.2-.3.5-.2 1 .2.7.2.7 1.3.6 1-.1 1 0 1.4.6.3.6.3.8 0 1.2-.5.4-.4.5.6 1.2l1.3.9c.1 0 .5.4.8.9.4.5 1.2 1.1 2.2 1.6 1.4.6 2.1 1.2 1.6 1.2-.6 0-1.3 2.2-1.3 4 0 1.9 1.1 5 2.1 6.6 1 1.3 1.4 3.6.9 4.8-.4 1-.4 1.2.5 1.7.7.4 1.7.4 2.2.1.4-.2.3-1.1-.4-3.1a10 10 0 0 1-.4-2.6c0-1.3 0-1.3-.4-.7-1 1.5-1.2.2-.2-2.1.5-1.2.6-2 .5-2.6-.1-.5 0-.8.1-.8.2 0 .1-.2-.1-.5-.5-.5-.5-.6.3-.9.6-.2.7-.3.5-1.6-.2-1.5-.6-2.2-.9-1.6-.4.5-3 .5-3 0 0-.3.3-.5 1-.5.5 0 1 0 1-.2.1-.2-.3-1-.9-1.8a10 10 0 0 0-2.7-3c-.4-.3-1-.9-1.1-1.3l-1.2-1.6c-.4-.4-.9-1.2-1-1.7a11 11 0 0 0-.7-2c-.3-.7-.5-1.5-.4-2.6 0-.8-.1-2-.3-2.7-.2-.6-.2-1.3-.2-1.5.1-.2 0-.5-.4-.6-.6-.4-.4-.8.6-.8.7 0 .7 0 .7 1.2 0 .7 0 1.5.2 1.8.2.3.3 1.5.3 2.6 0 1.7 0 2.1.5 2.6.4.4.7 1.2.8 1.8.1.7.4 1.3.7 1.5l1.4 1.6.8 1.3h2.5c2.9.1 4.4-.1 4.4-.7 0-.2.3-.3.8-.3 1.2 0 4.3.6 5.5 1h1.3c.2-.2-.2-.5-1.1-.8a5 5 0 0 1-1.5-.6c-.3-.5.4-.6 1.3-.2l2.2.6c1 0 1.4.3 1.4.5 0 .3-.2.4-.7.3-.8 0-1.1.5-.4.7l.8.3c.3.2.4 0 .2-.2-.1-.4 0-.5.3-.6.3-.1.7-.5.8-.8.5-1 1-.8.7.1-.2 1 0 1 .7.5.6-.4 1 0 .5.5-.3.3-.3.5 0 .7.6.3 1 .3 1.3-.1.2-.2.5-.2 1 .4.5.6.7.7 1.2.4.6-.3 1.3-.2 1.3.3 0 .1-.2.3-.4.3-.6 0-.8.5-.3 1 .3.1.4.4.3.7l.1.4c.4 0 .8 1.6.5 2-.2.3-.2.4.3.4.7 0 .7.3 0 .8l-.6.5.6.1.5.3-.5 1c-.4 1-.4 1.3-.2 2.5.3 1.8.2 3-.3 3-.3 0-.4-.2-.5-.8 0-.5-.1-1.6-.3-2.3-.1-.7-.1-1.4 0-1.6v-1.3c-.3-1-.3-1-1.3-.8l-3 .7c-3.5.9-6.3 1.3-8.6 1.3-1.3 0-2.2.1-2.3.3-.1.2-.8.2-1.6.2-1.7-.2-1.5-.5-1.5 3.2 0 3.2.5 5.3 1.2 6.2l.6.8 1.2-.5c.7-.2 1.4-.4 1.6-.3.8.3 5.6-.4 7.6-1 2.2-.8 4.6-1 6.3-.5 1.4.4 3 .2 3-.4 0-.2-.3-.7-.6-1a3 3 0 0 1-.5-1.8c0-1.4.7-4 1.2-4.8.4-.6.5-2.8.2-4.9-.2-.8-.3-1.2-.7-1.2-1.2-.2-1.9-1.7-.8-1.7l.4-.2c0-.4-1.3-1.7-2.3-2.4-2-1.3-4.1-3.5-5-5-1.9-3.7-1.8-3.5-1.6-6 0-1.3.3-3.3.6-4.4l.4-2h1.5l3.8-.1c2-.1 2.3-.1 2.7.4 1.1 1.6 1 1.5 2.1 1a35 35 0 0 1 7.2-1.2c.7 0 1 .3 1.7 1.2l1.2 1.5a6 6 0 0 1 1.4 3.5l.1 1.5h1.6c1.9 0 5.2.5 5.7.9s0 7-.7 9.8c-.3.8 0 1.2 1 1.3 1.2.2 1.5.5 1 1.2-.1.4-.6.6-2 .7-1.7.2-2.3.7-.7.7.8 0 1 0 .9.4-.1.4-.5.5-1.4.7l-1.4.1h1.6c1.3 0 1.5 0 1.9-.5.2-.4.9-.9 1.5-1 1-.5 2.6-1.6 2.6-2l-1-.1-1.7-.4-.8-.3.6-.6c.4-.3.8-.5 1-.4l1.3.3c.5 0 .8.2.8.4 0 .5 1.3.2 3.2-.8 2.4-1.2 1.9-1.5-.6-.4-1 .5-1.8.7-1.9.6-.2-.3.8-1.3 1.3-1.3l2-1c1.2-1 1.7-1.1 2.3-1 .8.2.9.1 1-.6.1-.4.9-1.5 1.7-2.4 1.4-1.6 1.5-1.7 2.5-1.5.6.1 1.3.4 1.5.6.4.3.6.3 1.2 0 .4-.3 1-.5 1.2-.5.4 0 2.4-1 2.4-1.3 0-.3-.7-2-1-2.4-.4-.5-.9-3.4-.9-5 0-1.1 1-4.3 2.5-7.8 1.2-3 1.3-2.6-1.8-3.2-3-.5-5.1-1.5-5.7-2.6-.4-.7-.3-1.2.4-4 .4-1.6.4-1.9 0-2.5a4 4 0 0 0-1.3-1.2c-.5-.3-1-.6-.9-.8.2-.5.9-.4 1.9.3l1 .6.5-1.3c.3-1.5 1.1-2.6 2.8-3.7.6-.5 1.1-1 1.1-1.2 0-.2-.4-1-.9-1.7-1.7-2.3-2.7-5.3-2.4-6.7.2-1 1-1 2.3-.3l1.4.6c.2 0 .1-1-.2-1.8-.1-.4.1-.7 1-1.2 1-.6 1.3-.6 1.8-.4l.8.6c.1.2.4.2.8 0 1.1-.6 1.6-.2 1.4 1l.1 1.5 2.7 4.9c2 4 2.4 4.6 3 4.6.4 0 .6.1.6.7 0 .4.3.9.6 1 .4.2.5.6.5 1.4l.4 2.5c.2.7.3 1.7.2 2.2-.1.9.8 2 1.5 2 .4 0 4 2.2 5.4 3.3.5.5 1 .7 1.3.6.3 0 .7 0 1 .5.4.4 1 .9 1.6 1.1l2.1 1.3a5 5 0 0 0 3 1c2.1.3 4.2.6 4.6.8.2.1.7-.3 1.3-.8 1-1 2-1.4 2.4-.8l.3.2c.3 0 .2-5.6 0-6.6l-.3-7.3A1963.4 1963.4 0 0 0 158 5.4c-.4-1-2.1-1.7-5.2-1.8a1426.2 1426.2 0 0 1-53.1.8A26593.4 26593.4 0 0 0 11.3 4c-.2 0-1.6 0-3.1.2-3.3.3-3.7.5-4.4 2.7-.4 1.4-.5 2.4-.4 13.2a2009.7 2009.7 0 0 0 .1 20.2l.1 13a235.7 235.7 0 0 1 0 20.3L4 84c.2 8 .3 9 1.2 10.7.5 1 .5 1.3-.1 1.3s-.6.1-.6 4.8v24l.2 4.5 1 1.2c.8 1 1.2 1.2 2.1 1.3.7.1 1.6 0 2.1-.1.7-.2 2.7-.3 6-.3h19c9.1 0 15.7.2 19.1.4 2.8.2 6.7.3 8.6.2l14.2-.2zm59-2.8c-1.4-.4-2.8-.5-7.4-.6-4.9 0-5.7 0-5.7-.4 0-.6 2.2-.8 7.5-.7 5.9.1 7.7.5 8.5 1.6.3.3 0 .7-.5.6l-2.3-.5zm-43.3.2-1-.3c-1.3-.3-.7-.7 1-.7 1.5 0 2.3.3 2 .7-.2.2-1.7.4-2 .3zm-22.3-.5c-2.1-.3-2.8-.6-2.1-.9.6-.2 6.9.5 7 .9.1.4-1.7.4-4.9 0zm49.4-.7c-.6-.2-2.8-.5-5-.8a97.1 97.1 0 0 1-7.4-1.3c-1.5-.3-2.1-.7-1.7-1 .3-.1 6.1.6 8.6 1.1 1 .2 2.5.4 3.4.4 3.5 0 5 .6 3.8 1.5l-.6.3-1.1-.2zm-13.8-.7c-.6-.2-.6-.6-.1-.8.5-.2 2 .2 2.2.6.1.3-1.1.4-2.1.2zm-9.6-.5c-3.3-.5-7.8-1.8-9.4-2.8-2-1.3-9-2-14.5-1.7l-3 .2 2.4.3c2.7.3 3.4.8 1 .7l-10.9-.1a69.7 69.7 0 0 1-18-1.2c-1-.5-1.2-.7-1-.9.3-.2.6-.2 1.3.1 2.4 1 3.2 1.1 12.2 1.1 7 0 9-.1 10.7-.4a54.1 54.1 0 0 1 22.2 1c2.1.4 2.5.6 2.5 1 0 .5.2.6 1.9.6 1.5.1 1.9.2 2.2.7.4.5.8.5 4 .7 3.4 0 4.2.2 3.8.8-.2.4-4 .3-7.4-.1zm35.7 0-4.3-.5c-2-.2-2-1 0-1 2.7 0 10.3 1.1 10.5 1.5.1.5-1.8.4-6.2 0zm-57.5-.4c-1.3-.2-2.4-.5-2.4-.7 0-.4 6.3 0 6.8.5.6.6-1.6.7-4.4.2zm66.7.2c-.3 0-.6-.4-.6-.6 0-.4.2-.4.9-.3.5.2 2.4.2 4.3.2 3.4 0 4.3.1 4 .7-.3.4-7.7.4-8.6 0zM99 125.2c-.3-.4.3-.9 1.6-1.3 2-.5 1.4-.8-2-1.2a24 24 0 0 1-3.5-.7c-1.2-.3-3-.5-6.1-.6-2.7-.1-4.5-.3-4.6-.5a57.6 57.6 0 0 1 18.4 1.8c.8.4 1.1.4 3.3-.1 1.3-.3 3-.9 3.7-1.2 1.8-.9 6.7-1.9 7-1.5.3.2 0 .4-.7.7a56.2 56.2 0 0 0-3.2 1.2l-2.2.5a125.2 125.2 0 0 1-11.7 3zm1-4.5a95 95 0 0 0-18-.8 45 45 0 0 1-9.6.3 89 89 0 0 1 23.2-.8c3.5.3 5.6.8 5.6 1.2 0 .4-.5.4-1.3.1zm9.3-2.9c-.1-.1-.1-.4 0-.4.2-.3 8-.7 10.4-.6 3.1.1 2.6.6-.7.8l-6.2.3c-2.5.2-3.4.2-3.5 0zm14.7-.8c.2-.4 3.1-.9 4-.7.5.1.7.4.6.5 0 .2-.9.4-2.4.4-1.8 0-2.3 0-2.2-.2zm-80.9-3.3-1.1-.3c-.3 0-.6-.2-.6-.4 0-.3.8-.3 2.8-.3 1.7 0 5.9-.4 9.8-.9 11.7-1.5 16.1-1.7 15.2-.8-.3.4-6 1-9.3 1-1.1 0-4.6.3-7.7.8-6.6.9-8.3 1-9 .9zm-12.8-1.2c0-.3.2-.3 4-.9 1.7-.2 4.5-.6 6.3-1 5-.7 6.6-.8 6.6-.5 0 .3-.7.5-3.8.8a93 93 0 0 0-5 .8c-5.6 1-8.1 1.3-8.1.8zm51.1-1.3c.2-.5 1.5-.7 6.1-1 3 0 3.7 0 3.6.2 0 .3-.9.5-2.6.6l-4.9.3c-1.9.2-2.3.2-2.2-.1zm-46.8-1.8c-.4-.3 0-.4 4.3-1 3-.4 6.5-.5 6-.1 0 .1-2.3.4-5 .6a67.2 67.2 0 0 0-5.3.5zm-18.7-.8c-.1-.2 0-.4.2-.4 1.6-.6 9.6-1.3 12-1.2 3.2.2 1.8.6-2.4.8-3.6.2-5.2.3-8.5.9-.7.1-1.2 0-1.3-.1zm-.4-7.2c-.5-.3-.1-.8.7-.8.5 0 .6.1.5.5 0 .5-.7.7-1.2.3zM14 99.6c-2.6 0-3.5-.2-3.5-.6 0-.3 5.8-.3 6.5 0 .4.3.4.4.1.6l-.6.2-2.5-.2zM60.6 98c-.2-.4.3-.6 2-.8 1.3 0 1.6 0 1.6.3 0 .2-.3.5-.6.6-1 .2-2.8.2-3-.1zm6.3-.3c-.2-.4 0-.6 1.2-.7.9-.1 1 0 1 .2 0 .7-1.8 1-2.2.5zm5-.6c0-.3.1-.5.4-.5.2 0 .8 0 1.3-.3.5-.1 1-.2 1 0 .4.3-.6 1-1.7 1-.9.2-1 .1-1-.2zm-11.5-.4c-.3 0-.5-.3-.5-.4 0-.4 2.9-.8 3.3-.4.7.5-1.6 1.2-2.8.8zm15.8 0c-.2-.4.4-.9 1-.8.1 0 .4.3.4.6s0 .4-.6.4c-.3 0-.7-.1-.8-.3zM64 95.7c-.5-.3-.2-.4 1-.6 1-.2 1.2-.1 1.2.2 0 .4-1.7.8-2.2.4zm7.4 0c-.2-.2.4-.5 1.8-.9 1-.2 1.4.2.8.6-.5.5-2.4.7-2.6.4zm-12.2-1c-.4-.5.2-.8 1.5-.7.8 0 1.1.2 1.1.4 0 .5-2.4.8-2.6.3zm5.7-.9c0-.3 1.2-.7 2.5-.7 1 0 .7.5-.4.8-1.3.4-2.1.3-2.1-.1zm5.1.1c-.2-.3 0-.3 1.6-.8 1.3-.3 1.9 0 1 .7-.5.4-2.3.5-2.6.1zm-9.6-1.5c-.8-.3-.2-.8 1-1 1.4-.1 2.4.2 2 .7-.3.2-2.6.5-3 .3zm6.1 0c-.3 0-.6-.2-.6-.3 0-.4 1.1-.6 1.8-.4.6.1.8.6.4.6l-.6.1h-1zm5.6-.9c-.1-.2 1.4-1 2-1 .4 0 .3 1-.1 1.1-.7.3-1.7.2-1.9 0zm39.4-3.2c0-.3.9-.4 2.8-.4 2 0 2.8.1 2.9.4 0 .2-.6.3-2.9.3-2.2 0-2.9 0-2.8-.3zm1.6-2.3c-1 0-1.7-.2-1.7-.3 0-.3 1.5-.5 4-.5 2 0 2.4 0 2.4.4l-.2.4h-4.5zM56.5 79c0-.3 1-.6 1.4-.4.4.2.1.6-.6.6-.5 0-.8-.1-.8-.2zm10.9-1.5c-1.3-.2-2-.4-2.1-.7-.1-.3.2-.3 1.8-.2l2 .2-1.5-.5c-1.2-.6-1.9-1.2-1.5-1.5 0-.1.8.1 1.5.5l2 .8c.4.2.4.3.1.6-.3.3-.2.4.1.4.6 0 .6.4 0 .6l-.4.1-2-.3zm-10.7-.1c-.3-.4 0-.5 1.4-.7 1.2-.2 2 .1 1.3.5-.5.3-2.6.5-2.7.2zm-10-.4c-.3-.4-.4-1.3 0-1.3.2 0 1 1.2 1 1.5 0 .3-.6.1-1-.2zm8.1-1.7c-.3-.3.1-.6 1-.6.7 0 1 0 .9.3-.1.4-1.6.6-1.9.3zm2.5-.8c-.5-.2-.3-.6.2-.6.4 0 .6-.2.6-.4 0-.3.2-.4.4-.4.3.1.5.4.5.8 0 .5-.1.7-.7.7h-1zm-1.6-2c0-.5 1-.7 1.7-.5.5.2.5.2 0 .5-.8.4-1.7.4-1.7 0zm10.6-1c0-.1 0-.3.2-.4.4-.2 1.1.2 1 .4-.2.4-1.2.3-1.2 0zm-9.7-1.3c.1-.2.8-.3 1.6-.3s1.5.1 1.5.3c0 .1-.7.3-1.6.3-1 0-1.6-.1-1.5-.3zm-3-.8.6-.4 1.3-.3c1-.2 1.2.4.3.7-.9.3-2.2.3-2.2 0zm13.2-.1c0-.3.1-.4.3-.4.1 0 .2.1.2.4 0 .2 0 .4-.2.4s-.3-.2-.3-.4zm-.1-1.5c-.2-.3.5-.6.9-.4l.3.4c0 .4-1 .3-1.2 0zM53.3 66c0-.3.5-.5 1.7-.7 2.6-.5 3.9-.4 3.9.4 0 .3-.5.4-1.8.4l-2.8.1c-.8.2-1 .1-1-.2zm14 .1c-.4-.3-.2-.6.5-.5.9 0 1.1.7.3.7-.4 0-.8 0-.9-.2zM46.7 64l-.2-1.1c0-.8 0-1 .6-1 .5-.1.6 0 .4.4 0 .3 0 .6.3.7.2 0 .4.2.4.4 0 .3-1.2.8-1.5.6zm21.4 0c-1.3-.6-.5-1 1-.7.4.1.5.3.2.5-.3.5-.4.5-1.2.1zM53.3 62c0-.3 2-.9 3.7-1.2 1.1-.2 2.4.2 2.4.7 0 .3-.4.4-1.7.4-.9 0-2.2 0-3 .2h-1.4zm15-.4c-.1-.2-.2-.5 0-.6.2-.2 1.4.4 1.4.7 0 .4-1 .3-1.3-.1zm-21.5-1.2c-.3-.5.2-.8 1-.8 1 0 1.5.4 1 .6-.5.3-1.8.5-2 .2zm21.9-.8c-.4-.6 0-.8.7-.4.8.4.9.8.1.9a.8.8 0 0 1-.8-.5zm-21.7-1c0-.4.6-.8 1.5-1 1-.2 1.2.3.2.7-1.3.4-1.7.5-1.7.3zm5.3 0c0-.4.5-.5 2.6-.7 2-.2 3.3 0 3.1.4 0 .3-5.7.6-5.7.2zm25-.2c-.2-.6-.2-8.7 0-10.2.4-2.5.7-.8.7 4.8 0 4.2 0 5.8-.3 5.8l-.4-.4zm26.3.4-.2-4.4c-.1-4.3.6-12.5 1-12.5.5 0 .5.7.2 3a112 112 0 0 0-.4 7.8c0 3.2-.2 5.8-.4 6l-.2.1zm-30.8-1.7c-.2-.3-.3-2.8-.3-5.9 0-4.6 0-5.4.5-5.8.3-.3.4-1 .4-1.8 0-1.9.4-3.7.7-3.7 0 0 .2 2 .2 4.4 0 3.5 0 4.5-.3 4.5-.2 0-.4-.3-.5-.5-.1-.3-.3 1.7-.3 4.4-.1 3.5-.3 4.8-.4 4.4zm-26.1-.3c0-.4 1.2-.9 2-.9.9 0 .8.4 0 .6l-1.4.4-.6-.1zm6.3-1c.4-.5 3-.8 3.7-.4 1 .5.6.6-1.7.7-1.8 0-2.2 0-2-.3zm-6.8-.8c0-.4.7-.7 1.8-.7.3 0 .5.2.5.4s-.2.4-.5.4c-.4 0-1 0-1.2.2-.5 0-.6 0-.6-.3zm6.7-1.5c-.3-.5.2-.8 1.2-.8 1.2 0 2.4.4 2.4.8 0 .3-3.4.3-3.6 0zm-4-1.6c-.2-.4 0-.5 1-.7.7-.3 1.3 0 1 .4-.4.3-1.8.5-2 .3zm7.2-1.2c-.3-.4.2-.6 1.6-.6 1.1 0 1.4 0 1.4.4 0 .3-.3.4-1.4.4l-1.6-.2zm-7.6-.6.1-.3 1.5-.5c1.8-.6 2.2-.7 2.2-.2 0 .3-.4.5-.8.6-.4 0-1 .3-1.5.4-1 .3-1.5.3-1.5 0zm51.8-4c-.2-4-.6-7.9-.9-8.6 0-.3 0-.4.5-.4.3 0 .5.2.5.5l.3 2.3c.3 3 .4 10 0 10.1-.1 0-.3-1-.4-3.8zm-39 2.8c-.4-.4-.4-.4.6-.3.6 0 1 .1 1 .3 0 .4-1 .4-1.5 0zm18-1.8c-.2-.4-.4-2-.6-3.7-.2-1.6-.5-3.3-.7-3.7-.4-.8-.4-2.6 0-4.9.4-2.7.8-2 .9 1.5 0 1.7.2 4.3.4 5.7.7 4.1.8 5.3.5 5.5-.2.2-.4 0-.6-.4zm-33.7-1c0-.4 0-.5-.3-.4-.5.2-1-.4-1-1.2 0-1.1 1.3-6.6 2-8.8.5-1.3 1-2 1.3-2.2.2 0 .6-.5.8-1 .5-1.1 1-1 1 .2 0 1-.6 1.9-1.3 1.9-1 0-3.4 9.2-2.8 10.4.3.4.3.4.3 0l1-3.2c1-2.8 1.8-4.4 2.4-4.4.5 0 .4 0-.3 1.2-.9 1.2-2 5.1-2.1 6.7 0 1-.1 1.2-.5 1.3-.3 0-.5 0-.5-.5zm29.7-1.4c0-2 .6-11.2.8-11.6.2-.3.2-.2.5.3.2.7-.1 10.7-.4 11.6-.2.6-1 .4-1-.3zm-27.3 0c-.2-.4 2.5-8.8 3.7-11.4 1.3-3 1.7-3.9 2-3.9.6 0 .5.5-1 3.7a42.7 42.7 0 0 0-3.6 11.3c-.3.7-1 .9-1.1.3zm-6.4-.4c-.5-.7 1.8-8 2.4-8 .2 0 .3.2.2.4l-1.9 7.1c-.1.7-.5 1-.7.5zm25.3-.4c-.5-1.3.9-8.6 1.7-8.8.3-.1.3.1.2 1.1l-.5 2-.4 3c-.1 2.4-.6 3.7-1 2.7zm-2.6-.6c-.8-.9 1-9.6 2-9.8.6-.1.6.4.2 1.4-.5 1.3-1.3 5-1.5 6.7-.1 1.6-.3 2-.7 1.7zm20.8-.5c0-.3-.2-2.5-.1-4.8 0-3.2 0-4.4.3-4.7.4-.4.3-.5-.1-.8-.7-.5-1.3-.5-1.1 0 0 .2 0 1.4-.2 2.7l-.6 5c-.1 2-.3 2.7-.5 2.7s-.4-.1-.5-.3c-.2-.6.5-7.5 1-10 .2-.4 0-.5-.6-.5-1 0-1.6.2-1.5.6.2.6-.8 8.8-1 8.6-.4-.1-.3-5 .2-7.2l.3-2c-.2-.1-1.5-.1-3.7.1-2.1.2-3.1-.1-3.3-1.1 0-.6-.1-.7-1.9-.5-1 .1-2.2 0-3-.1a4 4 0 0 0-1.7-.1c-.3 0 0 .4 1.6 1.2 2.3 1.2 2.3 1.2 2.3.6 0-.3.3-.4 1.2-.4 1.1 0 1.2 0 1.4.9 0 .5.2.7.4.4.3-.5 1 0 1 .6-.2.4-.3 1.5-.4 2.5-.2 2.2-.5 2.8-1.1 2.6-.4 0-.6.2-.9 1.9-.2 1-.4 2-.6 2.1-.5.4-.6-.5-.3-2.6.7-4 .8-5.2.4-5.2l-1-.5c-.2-.3-1.2-1-2.2-1.5-1.4-.7-2-1-3.1-1-1.2 0-1.4 0-2.3-1-.6-.8-1-1.4-1-2 0-.8-.2-1.2-2.5-2.9-1.6-1.2-6-1.7-18.6-2.2-4-.2-8.2-.5-9.3-.7-1.3-.2-5-.4-11.7-.5-5.4 0-10.2-.2-10.7-.3-.8-.2-1.7-.9-1.2-1a1164.7 1164.7 0 0 1 34 .4C56.1 22 56.8 22 56 23c-.3.3-.8.3-2.7.2-3.7-.3-2.3 0 2.1.5l9.4 1.1c.7.2.7.2.7-1.2 0-2 .2-2.2 2.8-1.8l3.1.2c3.2-.2 4.7-.1 5 .4.2.2.6.4 1 .4s.5-.2.6-1.2c.1-1.4.9-2.2 2-2.2.4 0 .8-.2 1-.4.7-.6 2.5-.9 3.4-.6 1.2.4 1.5.7 1.4 1.5 0 .6 0 .7.5.6l2.1-.2c2-.2 2.5 0 2.5 1.5 0 1 0 1 .7 1 1.5 0 1.9.3 2.2 1.6v3.3l-.3 4.3c0 2.4-.1 3-.7 3-.4 0-2.4-2-2.4-2.6 0-.6-3.5-2-3.5-1.4l2.2 2c3.7 2.9 4.9 4.6 4.2 6-.6 1-1.4.5-1.4-.8 0-.4-.1-.5-.5-.4-.7.2-1-.3-1-1.4 0-.4-.3-1-.6-1.4a9.3 9.3 0 0 0-3.2-2L86 33v5a17 17 0 0 1-.4 5.2c-.1.1-.4 0-.5-.3zM91.8 31c.6-1.3.6-1.2-.3-1.4-.7-.1-.8-.2-.9-1.6-.1-1.4-.1-1.4-.3-.5-.3 1.3-.3 2.2.2 2.8l.4 1c0 1 .4.8.9-.3zm-2.9-2.6c0-.7.1-2 .3-2.9.2-.9.2-2.1.2-2.8-.2-1.2-.2-1.3-1-1.3-1.5 0-1.6.2-2 4-.4 3.7-.6 4.2-1.3 3.3-.3-.3-.3-1.2-.2-3.4.2-2.9.2-3-.5-4.4-.8-1.5-1.3-1.6-1.4-.4 0 .5-.4 1-1 1.5-.7.6-.8.9-1 2.6l-.2 3.3v1.4l1.7.1 4 .2H89v-1.2zm-13.4 0 .3-1.7c.3-1 0-3.2-.6-3.5-.6-.3-1.7-.2-3 .3-1 .5-1.1.5-1.3 2.1-.1 1 0 2 .1 2.5.3 1 .4 1 1.7 1 3 .2 2.8.2 2.8-.7zm3.7.8s0-.4-.2-.7c-.2-.4-.2-.7 0-1.2l.3-2.1c.2-1.2.1-1.4-.3-1.2-1.5.4-1.5.6-1.7 2.7a9 9 0 0 0 0 2.4c.1.3 2 .4 2 0zM69 27.7c1-2.8.8-4.2-.7-4.5-.6 0-1 0-1.1.2-.2.3-.1 4.8.1 5.4 0 .2.3.4.6.4.4 0 .7-.4 1-1.5zm-3.7.4.1-1.3c.3-.4.2-.5-.8-.8-1-.2-1.4 0-.9.6.2.2.3.7.3 1.1 0 1 .2 1.2.9 1.2.4 0 .4-.1.4-.8zm27.4-.9c.2-1.4.1-2-.3-2.2-.3 0-.4.4-.4 1.6 0 2 .4 2.4.7.6zM80 22c.1-.5 0-.7-.2-.6-.2 0-.4.5-.4 1-.1 1 .3.8.6-.4zm6.7 18.6c-.3-.7-.1-4.9.3-5.3.5-.5.6 0 .6 2.9s-.2 3.7-.9 2.4zm2-.8c-.4-.3-.5-3.4-.2-3.7.5-.5.9.5.9 2 0 1.8-.2 2.2-.8 1.7zm12.8-10.5v-3.7c0-3.3 0-3.6.5-3.6.4 0 .5.2.5 2.1 0 5-.1 5.4-.5 5.4-.2 0-.5 0-.5-.2zM106 28c-.2-.5.3-1.5.8-1.5.6 0 .4 1.7-.2 1.8-.3 0-.5 0-.6-.3zm-2-.9c-.3-.3.4-2.7.7-2.7.1 0 .2.6.2 1.4 0 1 0 1.4-.4 1.5-.2 0-.5 0-.6-.2zm23.7-9.3a557.5 557.5 0 0 1-34.5-2c-.6-.6.8-.7 7-.4l11.9.5c12 .5 21.2 1 21.4 1.1.1.2 0 .4-.1.7-.4.4-1.7.4-5.7 0zm15-.3c-1.7 0-3.3-.2-3.4-.3-.6-.6.6-.7 5.8-.5 5 .1 5.5.2 5.5.6 0 .5-.8.6-7.9.2zm-68-.9a79 79 0 0 0-10.1-1c-2.4 0-7-.3-10.3-.5a361.7 361.7 0 0 0-21.7-.9 66 66 0 0 1 18.3-.4 335.3 335.3 0 0 1 21.2 1.7c2.2.3 3 .5 3 .7 0 .3-.3.6-.5.4zm1.3-1.5a342.5 342.5 0 0 0-36.3-2.7c-12-.3-20.7-1-21.3-1.6-.2-.2.2-.7.4-.5.8.5 10.7 1 25.8 1.4 11 .3 17 .7 31.7 2.4 2.1.2 2.8.5 2.5 1-.2.3-.3.3-2.8 0zm67.3-1.2c-2.8-.3-9.6-.8-15-1-3.5-.1-4.5-.3-4.4-.8.2-.3 4.9-.2 13.4.3 5.8.3 8.3.7 9 1.2.3.3.2.8-.2.7l-2.8-.4zm-21-.6c-.5-.2-5.7-.4-14.3-.5a2386.8 2386.8 0 0 1-39.3-1c-6.3-.1-18.2-.8-18.8-1-.2-.1-.3-.3-.2-.5.1-.2 4.5-.2 11.8.2a1011.5 1011.5 0 0 0 29 1 1295.2 1295.2 0 0 0 31.6.9c1.2.2 1.8.6 1.6 1-.2.2-.6.2-1.4-.1zm21.3-4-7.3-.6a262 262 0 0 1-15.6-1.2c-3.5-.5-4-.7-4.2-1-.1-.5 1.8-.4 6.3 0l7.1.6c4.3.2 13.6 1 14.7 1.4.5.1.9.4.9.7.1.4-.2.5-2 .1zm-16 96.7a6 6 0 0 0 1.3-.7l.1-.6c.2-.3-.1-.5-1-1-1.3-.5-1.8-.4-1.8.3 0 .3-.2 1-.5 1.5a6 6 0 0 0-.5 1.3c0 .3.9 0 2.4-.8zm4.8-1.9c.1 0 1.8-.2 3.7-.2 3.6 0 6-.5 8.5-1.7l2.7-1 2.7-.7c1.4-.5 2.3-.5 3.5-.1 1 .3 2 .1 2.2-.5l.4-1.9c.2-1.2.1-1.4-.2-1.6-.6-.3-1-1.8-1.6-6.5-1-7.3-1.1-8.3-.8-9 .5-1-.7-5.5-2.3-8.7-.6-1.3-1.3-2.3-3.5-5.5-1-1.5-1.9-2-3-1.6l-1.5.5c-.6 0-1 .3-1.1.8-.1.3-.4.6-.7.6l-1.3.3c-1 .4-1.1.2.6 5.8 1.4 4.5 1.7 6 1.1 5.8a48.9 48.9 0 0 1-3.5-10.8l-4.7 2.2c-5 2.4-6.2 3.3-5.9 4.5.2.6.1.7-.3.6-.3 0-.5-.3-.5-.7 0-.5 0-.5-.8-.4-1.9.4-2.4 1-3.1 3.6-.6 2.2-.6 2.5-.3 3 .3.4.4 1.5.4 4.4 0 4.5.3 7.5 1 9.6.7 1.9.6 1.7.2 1.7-1.2 0-2.3-5.6-2.3-12.1 0-3.2-.4-1.7-.7 2.6-.2 4.6.3 7.4 2 10.4l1.4 2.7c.1.4.5.7 1 .7.4 0 .7.3.7.7.1.4.6.7 1.8 1.2l2.5 1c1.1.5 1.5.6 1.7.3zm-1.4-1.4c-1.2-.5-.4-.9 2.3-1 3.4-.3 5.3-.8 7.5-2.1 1.8-1 4-1.7 5.4-1.6 1 .1 1.3.8.4.8-1.1 0-3.6.8-4.4 1.4l-.8.7-2.5.7c-3 .8-7.1 1.4-7.9 1zm18.2-4.4c-.2-.3.2-4.2.5-4.6 0-.1-.1-.3-.4-.5-.5-.2-.6-.5-.6-1.6a45 45 0 0 0-3.7-17c-.9-1.7-2-5.6-2-6.6 0-.6 0-.7.4-.7.3 0 .7.8 1.1 2.1a141.4 141.4 0 0 0 3.2 8.2c.4 1.1.5.4 0-1.3-.5-2.5-1.8-7-2.3-7.8-.6-1-.5-1.5.2-1.4.5 0 .8.4 1.4 2.2 1.2 3.4 2.4 8.7 3 12.4.2 2 .5 3.4.6 3.2.3-.4 0-5-.3-5.4-.2-.2-.2-.3 0-.5 1.2-.7 1.6 4 .8 9l-.5 4.7c-.4 4.2-.6 5.6-1 5.7l-.4-.1zm-1-19.6c-.3-.4-.3-.4-.2 0l.2.8c0 .3 0 .3.2 0 0-.2 0-.5-.2-.8zM142.2 94c-.5-.7 0-.9 1.7-.7 1.6 0 2 .4.8.8-1 .4-2.1.3-2.5-.1zm9 .2c-.2-.2 0-1 .1-1.9.6-2.2 1-5 1-7.5 0-3 .4-6 .9-5.5.2.3-.4 10.6-.8 12.4-.4 2-1 3-1.3 2.5zm-19.7-3.8a34 34 0 0 1-.4-8c.3-3.1.6-4.3 2-8.4 1.1-3 1.5-3.8 2-3.6l-1 3.5c-2 5.9-2 6-2 11.7 0 4.6-.2 5.5-.6 4.8zm5.3-9.3c-.3-.7 0-4.8.3-5 .5 0 .6 4.5.2 5-.3.3-.4.3-.5 0zm7.2-6.5c-.3-.3-.2-.6.2-.6l.4.2c0 .4-.4.6-.6.4zM118.9 102c1.6-.1 2.3-.6.8-.6-.7 0-1.4.1-4.5.8-1.1.2-1.1.2.4.1l3.3-.3zm33.6-.2c.1-.7-.4-1-1.3-.6-1.1.4-1.2.7-.2 1 1 .3 1.4.2 1.5-.4zm-101.3-.1c0-.2.2-.3.5-.3.6 0 .7-.6.2-1-.3-.2-.4-.7-.4-1.1 0-.4-.2-.8-.3-1-.2 0-.3-.3-.3-.6s-.4-.8-.8-1.2c-.5-.4-.9-.9-.8-1.1.1-.6-.8-1.4-1.6-1.4a3 3 0 0 1-1.5-.7c-.6-.5-1-.6-1.2-.4-.3.3.4 1 1.9 2.1.5.4.8.7.7.9-.2.4-1.3.3-2-.2-.7-.6-1-.3-.4.5.3.5.7.7 1.2.7 1 0 3 .8 2.9 1.2-.1.2-.6.2-1.4.2-1.8-.1-1.2.5.7.8.8 0 1.6.4 2 .8 1.2 1 .5 1.4-1.2.4l-1-.6 1 1.1c1 1 1.8 1.4 1.8.9zm-21.7-.4c0-.2-.1-.4-.3-.4-.3 0-.3-.7.1-.9l1 .1c.7.3 5-.1 5.8-.5.3-.2.8-.2 1.2 0 3 .8 3 .8 3.3.6.3-.2.1-.5-.4-.8-.8-.5-.9-1.4 0-2.1.8-.9 2.8-3.5 3.2-4.5.4-1 .5-2.8.1-4 0-.4-.3-1-.4-1.5 0-.5-.3-.7-.8-.7s-.8-.2-1.1-1c-.3-.6-1-1.5-1.5-2-1-1-2.3-3.7-2.3-4.7 0-.3.2-.5.4-.5.4 0 1.7 2.3 2.1 3.8.2.4.3.5.4.2.4-.7 1-.2.9.7 0 .7 0 .9.7 1.2.4.2.8.7 1 1.1.2.9.7.7.8-.2.1-.9-.3-1.8-.9-1.8-.3 0-.3-.1-.2-.4l.3-2.4c.2-2.1-.2-3.6-1.1-4.5a2 2 0 0 1-.7-1.2c0-1-.5-2.3-.9-2.4a9.3 9.3 0 0 1-1.8-3.6c-.3-.7-.7-.4-1.3.9-.4.8-.6.9-1.5.8-1.2 0-1.6.2-1.1.9a9.1 9.1 0 0 1 1.8 3.8c.2 1.7-.4 1.6-.8-.1-.4-1.5-1-2.2-1.6-2.2-.4 0-.6-.2-.6-.7-.1-.5-.4-.8-1-1.1-2-1-2.4-.9-1.7.8.6 1.1.6 1.6.6 6.3 0 4.8 0 5-.7 6.7-.8 2-.9 2.5-.4 2.8 1 .7 2.6 4.1 2.6 5.7 0 .4-.2.9-.6 1.1-.3.2-.8.8-1 1.3-.4.5-.7.7-.7.6 0-.2.1-.7.4-1.2.3-.5.5-1.3.5-1.7 0-.7 0-.7-.2-.3-.3.8-.5.2-.6-2 0-1.1-.3-2.2-.5-2.6-.3-.6-.4-.5-.7 2a8.8 8.8 0 0 1-2 5.2c-1.5 2-2.7 1.5-1.5-.7A29.5 29.5 0 0 0 29 86l1-2.8c.8-2.5.9-2.8.8-6 0-2-.3-3.3-.5-3.5-.2-.3-.3.2-.3 2l-.1 2.6c-.4 1-.6.3-.6-2.1 0-1.4 0-3-.2-3.6-.2-1-.2-1-1-.9l-1.8.6c-.7.4-1.5.5-3.5.4-2.5 0-2.6 0-2.7.6-.1.4 0 .9.1 1.2.2.3.2.8.2 1.2-.3.8.8 3.2 2 4.2.4.5.8 1 .8 1.4 0 .9.3 1.1 1.6 1 1.5 0 1.5 0 1.7-3.9 0-1.5.3-2.8.4-2.8.3 0 .3 6.3 0 7-.2.4 0 .7.3 1.2.7.8 1.1 2.8.7 3.2-.5.6-3.2-.6-3.2-1.4 0-.3.7-.3 1.4 0 .9.7 1.1 0 .4-1.1l-.7-1.3c0-.3-.9-.3-1.5.2-.7.5-.8 1-.2 1.8.6.8.5 2-.1 2-.8 0-1.4-1-1.4-2.5 0-1.8-.4-3.2-1.2-3.7-.6-.4-.6-.4-.9 0-.2.5-.3.5-.8 0l-.5-1c0-.3-.2-.5-.3-.6-.5-.3-.2 3.9.3 4.6.3.5.3.6 0 .9-.3.3-.4.2-.7-.2-.4-.6-.5-.7-.8-3l-.3-1.5-.4 1c-.4.6-.5 1-.2 1.4l.7 2.5c.2 1.1.5 2.1.7 2.2.3.4.2 1-.2 1-.5 0-1.4-1.8-1.6-3.5-.2-1.5-.5-1.6-.9-.6-1 2.5-1 4.8-.1 6.4 1.6 2.9 3.3 4.5 5.3 5.2 1.2.4 1.6 1.1.4.9l-1.7-.4c-.5 0-1.5-.6-2.2-1.2a7 7 0 0 0-1.6-1c-.2 0-.5-.2-.8-.5-.4-.5-1.2-.8-1.2-.4l-.1.5c-.2.4 1.5 2.4 2.5 3l1.9.3c.6 0 1.6.3 2.4.6.7.3 2.3.7 3.6 1 1.3.2 2.2.5 2.1.7 0 .1-.4.2-.9.1-.6 0-.7 0-.4.4l.7.4 1 .5c.4.4 1 .5 1.2.4.3 0 .7 0 1 .3.7.5.9.5.9 0zm73.7-2.7 1.7-.5h-.5a71.5 71.5 0 0 1-3.7 1 75.7 75.7 0 0 1 2.5-.5zm-12.5-.9c.8-.8.8-1.5 0-1-.5.2-1.7 1.8-1.7 2.2 0 .3 1-.3 1.7-1.2zm2.8-.8 1-2.4-.7.2c-.7.3-.8.5-.5.8.2.3.2.5 0 .8-.8.9-1.4 2.7-1 2.7l1.2-2.1zm3 .2.7-1.2c.7-1 1.4-2.4 1.4-3.1 0-.3-.3-.3-1.1.2-1.5.8-2 1.4-1 1.1.8-.2.8-.1.6.6a5 5 0 0 1-.7 1.5c-.5.8-.6 1.2-.2 1.2.1 0 .2 0 .2-.3zm-7.3-.8c.3-.3.3-.4.1-.4-.4 0-1.3.5-1.3.7 0 .4.8.2 1.2-.3zm-37.6-1c.3-.5-.3-.7-.8-.2-.5.5-.5.5 0 .5.4 0 .7-.1.8-.3zM89 94.1c.3-.2.4-.4.3-.5-.2-.3-1.7.6-2 1.2-.3.6-.3.6.4.1l1.3-.8zm2.8.7c.4-.3.5-.5.3-.6-.2-.1-.6 0-1 .5-.6.4-.7.6-.3.6a2 2 0 0 0 1-.5zm-41-.8-.8-.8c-1-.7-1-1-.3-1 .3 0 .5-.2.5-.3 0-.2-.3-.3-.7-.3-.5 0-1.4-.2-2-.5-1.3-.5-1.4-.6-1.7 0-.3.3-.3.4.8.5 1 .1 1.4.4 2.4 1.4 1.2 1.2 1.8 1.6 1.8 1zm44.6-1c.3-.3.6-.8.6-1.1 0-.5-.1-.4-1 .5a6 6 0 0 0-.8 1.2c0 .3.5.1 1.2-.5zm60.7-.7c-.2-.9-.2-1-.3-.4 0 .8.3 1.7.4 1.5l-.1-1.1zm-55-.6c0-.2-.2-.3-.4-.3s-.3.8 0 1.5c.2.4.2.4.3-.2.1-.4.2-.8.1-1zm-15 .7c.8-.4.8-1 .1-1.6-.4-.4-.5-.8-.5-2 0-2.5.3-4.3.7-4.3.3 0 .3.5.3 2v2.2l1 .4c.7.3.8.3 1.2 0 .6-.5.7-1.6.2-1.8-.7-.2.1-.7 1.2-.7.6 0 .8-.1.6-.2a2 2 0 0 1-.8-.4c-.5-.4.4-.6 1.6-.3 1.5.3 3.6 0 4.2-.8.5-.5.5-.5-1.1-.4H93c0-.2 1.4-1.3 1.6-1.3.2 0 .2-.1.1-.3 0-.2-3.6.2-6 .8-2.4.5-5.4.8-6.6.7l-1.3-.2.1.7c.5 2 .5 4.6.1 5.8-.2.7-.3 1.4-.2 1.5l2 .3 2.2.1c.2 0 .6 0 1-.2zm6.6-.5c.1-.1.6-.3 1-.3.7-.1.6-.2-.3-.2-1.2 0-1.9.3-1.9.8 0 .2.8 0 1.2-.3zm5.6-.2.8-.5c.2 0 .5-2.5.4-2.6-.3-.2-1.7 1.2-1.5 1.5.1.1 0 .5-.4.8-.6.5-.7.8-.4 1 .3.3.3.3 1.1-.2zm5-1c.5-1 1-2.2 1-3 .2-1.1.4-1.4 2.1-3 1-1 2.3-2 2.7-2.2.7-.3 1.5-1.2 1-1.2a10 10 0 0 0-3 1.8l-1.9 1.4c-.8.4-1.3 1-1.7 1.8-.4.7-.5 1.2-.4 1.3.4.1.4 1.1 0 1.1-.2 0-1 2.2-1 3 0 .8.4.5 1.3-1zM91 90.4 91 90a9 9 0 0 0-2.7.8l1.4.2c1.1 0 1.4-.2 1.4-.5zm4.5-.4c.6-.2.5-1 0-.8l-1.8.5c-1.8.4-2 .9-.1.7l1.9-.4zm-44.6-.6c0-.5-1.7-2-3-2.5-.5-.2-1-.6-1.2-.8-.4-.5-.7-.5-1 0-.1.6 1 1.8 1.5 1.7.5-.1 2.7.8 2.7 1.1 0 .4-.5.5-1 .3l-1.8-.4c-1.2-.1-1.2-.1-.8.4.4.3.7.4 1.2.3l1 .1 1.4.2c.8 0 1 0 1-.4zm9.3.3c0-.2-.1-.3-.3-.3-.1 0-.4-.2-.5-.6-.5-.8 0-1 1.2-.6.9.4 3 .5 7.2.5 1.4 0 5.1-1.1 6-1.8.5-.3.6-.6.5-1-.1-.5.4-1 .8-.5.1.2.5.3.8.3.4 0 .4 0 .2-.4-.3-.3-.3-.5 0-.7.1-.3 0-.4-.7-.4a8 8 0 0 1-3-1 6.2 6.2 0 0 0-4-1c-1.6 0-1.9 0-2.1-.4-.1-.3-.8-.7-1.5-.9-1-.2-1.5-.2-3.2.1-1.2.2-3 .4-4.2.4-2.2 0-2.6.2-1.9 1l.8 1.4c.3.5.7.8 1 .8.3 0 .6.3.8.5.1.4.9.7 2.2 1a31 31 0 0 0 10.4-.6c1.4-.4 2.3-.3 2.1.3-.3.8-6.3 1.6-10.7 1.3a25 25 0 0 0-3.4-.1l-.1 1.5c0 1.4 0 1.4.8 1.4.4 0 .8 0 .8-.2zm41.5-1.7.6-1.4c.2-.3.2-.4 0-.4-.4 0-1.4 1.5-1.4 2.3 0 1 .5.8.8-.5zm-9-.3c.6-.7.2-.7-1-.2l-1.2.5h1c.5 0 1 0 1.2-.3zm5.6 0c.3-.4.2-.4-.4-.4-.8 0-1.5.2-1.5.5 0 .4 1.5.3 1.9-.1zM51.2 87c0-.7-.8-1.4-1.2-1.2-.8.3-2.6-.8-3.2-1.8-.5-1-1.2-1.2-1.2-.4 0 .3.3.6.7.8.3 0 .8.5 1 .9.6.6 2.9 2 3.5 2 .2 0 .4-.2.4-.3zm45.1-.5s-.3 0-.5.2c-.2.3-.2.3.2.2.2-.1.4-.3.3-.4zm-84.5-2.2c0-.5-.2-1-.3-1.2-.2-.3-.2-.1-.3.8 0 .7.2 1.3.3 1.3.2 0 .3-.4.3-.9zm38 .3c0-.3-2-1.5-2.6-1.5-.2 0 .1.4.8 1 1.1 1 1.7 1.2 1.7.5zm-36-3.5c0-1.2.3-3.8.5-5.7 1-10 1.2-11.7 1-11.8-.4-.5-2 12.3-2 17 0 3.2.5 3.7.5.5zm83 2c0-.2-.5-.3-1-.3-.6 0-.7 0-.4.3.5.3 1.6.3 1.4 0zM82.6 83c.2-.2.3-1.8.5-4.3.1-3.3 0-4-.2-4a28 28 0 0 0-5.9-.9c-3.6-.2-4.2-.3-4.7-.8-.4-.4-.6-.4-.7-.2-.1.4 2 4 2.3 4 .2 0 .7.4 1.3 1 .5.5 1.4 1.1 2 1.4.8.4 3.1 3 3.1 3.4 0 .4 1.8.7 2.3.4zm5.8-.4 6.5-1c3.2-.6 3.6-.7 3.8-1.2l.3-4c.2-4.2.3-4-2.8-3.6a573.2 573.2 0 0 1-11.7 1.7c-.3.3-.6 7.3-.3 8 .4.8.4.8 4.2.1zM48 82.1c-.8-.6-3.3-1.4-3.6-1.1v.7c.1.4 1.2.6 2.4.4.2 0 .5 0 .8.2.8.5 1 .3.4-.2zm23.2-1c0-.2-.2-.3-.5-.3s-.6 0-.7.2c0 .2.1.3.5.3s.7-.1.7-.3zm44.5-1.8-1.2-.2c-.8 0-1 0-.7-.2.3-.2.3-.2-.2-.2-.6 0-1 .6-.7 1.3.1.4.2.4 1.5 0 .8-.3 1.4-.6 1.3-.7zm2.8.2c.3-.2.3-.3 0-.4-.3-.3-1 0-.9.3.2.4.5.4 1 0zm-2.3-2.2.8-.8c0-.5-1-.1-2 .8-1 1-1 1-.3.8.4-.1 1-.5 1.5-.8zm5-2 2.2-1.3c.7-.2 2-1.1 1.7-1.3a30 30 0 0 0-6 2.6c-.7.4-.8.5-.5.7.6.4 1 .3 2.6-.8zm-35.8-2c8.2-1.1 9.6-1.4 9-1.6a18 18 0 0 0-3.4-.2c-2.9 0-3.7-.1-3.3-.8.2-.2.7-.3 1.5-.2 1.7.2 2.4-.1 2.4-1.2 0-1-.7-2.4-2-4l-1-1.2-2.4.1c-3.4.3-5.2.7-5.2 1.3l-.1 2c0 2-.5 3-1.1 3-.4 0-.4-.2-.2-1 .4-1.7.2-3.4-.5-4.6l-.8-1.1h-3c-3 .2-3.1.2-3.7 1-.5.5-.6.9-.5 1.3l.3 1.3c0 .4.4.8.7 1 1 .3 2 1.8 1.8 2.5l-.1.6h5.8c5.2 0 6 0 6 .4.3.6-.3 1-1 .7-.2-.2-3-.3-6.2-.3-6.1 0-6 .2.7.9 4.4.5 4.3.5 6.3.2zm-3.2-3.7-.1-.3 3-.3c2.3-.1 2.8-.1 2.8.2 0 .6-5.4 1-5.7.4zm-10.8 1c-.3-.4-.7.4-.5.9.1.3.2.3.4-.2.1-.3.2-.7 0-.8zm53.1.9c.4-.2.7-.5.7-.7 0-.2.2-.3.4-.3.6 0 .5-.5-.2-.7-.4-.2-.5-.3-.4-.8.5-1.4.5-2.2-.1-5a14 14 0 0 1-.4-3.2c.4-.4.9.2 1.2 1.3.2.8.6 1.6 1 2 .8.8 1 .8 2 .7l3.8-.8c1.4-.4 3-.7 3.6-.7.7 0 1.2-.2 1.8-.7.7-.7.8-.8.5-1.5l-1.7-8.8c0-.9.6-.6 1 .4.5 1.1 1.2 1.7 1.2.8 0-.3.2-.5.3-.5.5 0 1 1.2 1.3 2.8.4 1.9 1.4 4 2.2 4.4l1.5.4 2.3.2c1.1.1 1.5 0 2.8-.7 1.8-1 1.8-1 1.6-1.9-.1-.6-.2-.7-2-.8-2.5-.2-2.9-.4-2.7-1 .2-.6-1.2-1.7-2-1.4-.3 0-.6 0-1-.6a31 31 0 0 0-7.3-5c-1.3-.6-2.2-1.9-2.4-3.5l-.4-1.5c-.2-.2-.2-.5 0-.8 0-.2 0-.5-.4-.6-.2 0-.4-.4-.4-1 0-.5-.1-1-.3-1.2-.2-.1-.6-.6-.8-1.1a17 17 0 0 0-3.8-5.1c-1.4-1.5-2-2-3-2.2-2-.5-2.2-.5-2.6.3-.2.4-.5.7-.6.7-.4 0-1.3-1.5-1.2-2.1 0-.5-.1-.7-.5-.7-.4-.1-.5 0-.3.5a7 7 0 0 0 1.4 3 8 8 0 0 1 1.3 2c.4 1 1.4 2.3 2.2 3.2 1.2 1.4 1.5 2 .8 2-.1 0-.7-.3-1.2-.8-.9-.8-1-.8-2.3-.5l-1.8.6c-.6.3-1.6 2.5-1.9 4.3 0 .9-.3 2.3-.4 3-.5 2.5-.5 2.5.8 2.4 1 0 1.1 0 1.2.7 0 1.5 0 1.5 1.2 1.4h1V51c0-1.5.2-1.8 3-2.8 2-.7 2.3-.7 2.3-.2 0 .2-.7.6-1.7 1-1 .2-1.9.7-2 .9-.4.3-.2.4 1.2.3 2.5-.1 3.8 0 3.8.4 0 .2-.7.3-2.7.3-1.4 0-2.7.1-2.7.2l-.3.6c-.3 1 2.3 1.9 3.6 1.1l.8-.5 1-.6.8-.6c0-.2.4-.5 1-.8.7-.5.9-.7.9-1.5s0-1 .4-.9c.6.1 1 1.4.8 2.5-.1.6-.6 1.2-1.4 1.9-1 .8-1.1 1-1 1.7.2.7-.5 2.4-1.2 3.1-.5.5-.7 1.8-1 4.6 0 1.4-.1 1.7-.6 1.4-.5-.4-.1-6.4.6-7.8.4-.7.3-.7-1-1-.8-.1-1 0-1.2.6l-.4 2.3c-.1 1-.4 2-.9 2.8-2 3.6-2.4 7.4-.8 9.1.3.4.5 1 .5 1.6 0 1 .2 1.1 1.2.7zm5.1-10.3c-.4-.4-.7-1-.7-1.3a28 28 0 0 1 4.3-9.4c.4-.7.9-.4.8.4 0 .3-.1 1 0 1.6 0 1-.5 2.3-2 6a10 10 0 0 0-1 3.3c0 .4-.7.1-1.4-.6zm15.7-3.4c0-.3.1-.6.3-.6.5 0 .7.3.6.7-.2.6-1 .5-1-.1zm-23.2-11.3c-.5-.3-.3-1 .3-1 .5 0 .8-1 .4-1.3-.3-.4 0-1.1.8-1.5.6-.4 1.7.2 2.2 1.1.2.5.1.6-.3 1-.3.3-.6.7-.6 1 0 .2-.1.6-.3.8-.4.4-1.8.4-2.5 0zm9.6-.8c-.3-.3-.2-.6.2-.6.2 0 .4.1.4.4 0 .4-.3.5-.6.2zm-2.4-1.9c-.4-.4-.1-.9.4-.8.4 0 .6.2.6.5 0 .4-.7.6-1 .3zm-.7 27.7-.1-.3-.3.3.1.3c.2 0 .3-.1.3-.3zm3.5-1.6a253.3 253.3 0 0 1 8.9-4.6c-.2-.2-1.3.3-5.4 2.2l-3.1 1.5c-.8.2-2.3 1.3-2.3 1.5 0 .4.3.2 1.9-.6zm1.3-2.3 6.3-3c.9-.4 1-1 .3-1.4-.3-.1-.7-.1-1.2.2-3 1.6-6.4 2.8-8.6 3-1.2.2-1.7.4-2.5 1l-1 1.1c0 .5.7 1.7 1 1.7l5.7-2.6zm-99.1 2c-.2-.6.6-.9 1.2-.5.5.3.6.2 1.3-.6.8-.8 1.9-2.8 1.9-3.5 0-.2-.2-.4-.4-.4-.2-.1-.2-.5.2-1.5.6-1.7.5-2.4-.8-4.2-.8-1.2-1-1.3-1.3-1-.4.6-1.3.1-1.8-1-.5-.8 0-1 .5-.3.2.2.6.5.9.5.5.1.5 0 .3-.4-.4-.7-.2-2 .5-4.8.5-2 .4-7-.2-7.7-.7-.8-1.5-.5-2.4.8a8.3 8.3 0 0 0-1.6 6c.2.9.2 1.7.1 1.9 0 .2 0 .6.2 1 .3.4.3.5 0 .6-.2 0-.3.3-.3.5 0 .8-.9.2-1.3-.8l-.9-2.2c-.3-.6-.6-2-.8-3-.3-2.8-.7-3.9-1.6-5-.7-.6-1-.8-2-.9h-1l-.7 2.2a7.3 7.3 0 0 0-.5 4.7c.2 1.4.5 3 .8 3.5.9 1.7 1 3.6.3 6.3-.6 2.6-.7 3.4-.4 5 .3 1.5 1.1 2.3 2 2.1.8-.1.8 0 .7.5-.2.5 0 .7 1.2 1.3 1.8.9 3 1.2 4.6 1.2 1.2 0 1.4 0 1.3-.4zM29 67c0-.1 0-.3.2-.3s.3.2.3.3c0 .2-.1.3-.3.3a.3.3 0 0 1-.2-.3zm1.6-1c-.2-.2-.4-.3-.3-.4.2-.2 1 0 1 .4 0 .3-.2.3-.7 0zm-1.4-.6c0-.1.2-.2.4 0 .3 0 .4.1.4.2h-.4c-.2 0-.4 0-.4-.2zm4-2.9c0-.6-.1-.8-.5-.8-.3 0-.6.3-.6.6-.2.6-1 .7-1.2 0 0-.2.1-.7.4-1.1.3-.4.6-1.1.6-1.6 0-1 .5-1 1.4-.1.5.5.7.9.7 1.8 0 .6 0 1.4-.2 1.6-.2.7-.6.5-.6-.4zM27.7 57c-.2-.2-.5-.9-.5-1.7-.1-1.3 0-1.5.5-2.1.8-.8 1-2.2.4-4-.3-1 0-1.7.3-1 .4.6 1.1 4 1.1 5.1 0 .6-.1 1.5-.3 2-.6 1.8-.8 2.1-1.5 1.7zm117 7c2-.7 2.5-1 2.2-1.4-.2-.2-4 1.4-4.3 1.8-.2.4.1.3 2.1-.4zM22.8 62.4l-.1.6c0 .7 0 1 .1.6v-1.2zm120.3.6c1-.5.9-.7-.2-.7-1 0-1.4.3-1 .7.1.4.3.4 1.2 0zm6.3-1.5c0-.2-.1-.3-.2-.3 0 0-.2.1-.2.3-.1.1 0 .2 0 .2l.4-.2zm1.8-.7a8.4 8.4 0 0 1 3.8-1c.5 0 .6 0 .6-.9 0-1.2-.7-1.6-2.3-1.3-1.2.3-1.5.7-.7.8 1.3.2.9 1-.8 1.6l-1.8.8c-.5.4-.5.4 0 .4l1.2-.4zm5.8-2.2c0-.2 0-.4-.2-.4-.2-.1-.3 0-.3.2s.1.4.3.4l.2-.2zm2-1.6c.3-.5-.7-.7-1.1-.2-.4.4-.4.4.2.4l1-.2zM44 52c0-.2 0-.3-.2-.3s-.3 0-.3.2l.1.3.3-.3zm83-20.7c-.3-1-3-3.7-3.6-3.7-.7 0-.9.5-.4 1l.5 1c.1.3.4.8.7 1 .6.6 2.7 1.7 3 1.6l-.1-1z"/>
</svg>
