<?xml version="1.0" encoding="utf-8"?>
<svg xmlns="http://www.w3.org/2000/svg" xmlns:svg="http://www.w3.org/2000/svg" version="1.1" viewBox="0 0 215 162">
  <title>Two mice stand outside the door, while the one inside points at three large boxes, labelled “Cream Crackers,” “Water Biscuits,” and “Oatmeal Wafers.”</title>
  <path d="M110.6 161c-1.3-.4-1.4-1.2-.1-1.7 2.2-.9 6.8-1.8 14.7-3 8.3-1.1 9.6-1.2 9.8-.6.3.7-.2.8-3.3 1.2-3.8.4-9 1.4-10.8 2.1-3.3 1.2-9 2.3-10.3 2zm13.7-.8c-.7-.8.1-1.2 5-2l5.4-.5c3-.3 3.7-.3 3.9 0 .4.8 0 .9-7.8 2l-5.5.8c-.4 0-.8 0-1-.3zm1.5-4.8c-.5-.1-.6-.7-.1-1 .1-.2 1-.4 1.7-.5l3-.5c3.7-.7 6.2-1 10.1-1.4l5.2-.6c1.2-.2 2.7 0 2.8.4.2.6-1 1-3.6 1.2a135.8 135.8 0 0 0-18.6 2.5l-.5-.1zm-116-.6a7 7 0 0 1-3.7-1.8c-.4-.5-1-.9-1.6-1-1.1-.2-3.7-1.3-3.9-1.7-.3-.5-.8-18.3-.5-19.7.3-1.2 1-1.6 1.4-.8.1.3.3 1.4.3 2.4.4 15 .5 16.6 1 17 .8.6 1.2.4 1-.8l-.3-5.1-.4-5.7a57.1 57.1 0 0 1 .1-10.3c.3-.3.6-.6.8-.6.2 0 .5-.3.6-.6.4-1 .8-.9 1.3.2.8 2 1.2 5 1.3 11a133.3 133.3 0 0 0 .8 13.6c-.2.7 0 1 .9 1.6.8.5 1.8.6 2 0a60 60 0 0 0-1-9.9 100.1 100.1 0 0 1-.6-26.7c.2-1.4.1-1.5-.6-2.2-.8-.6-1-.7-2.6-.7-2 0-2.9-.4-2.3-1.3.2-.4.6-.4 1.8-.4a5 5 0 0 1 1.8.4l.7.2c.5 0 .2-2.3-.4-3.3-.2-.4-.4-.9-.3-1.2.1-.6 0-.7-1.5-1.1-2-.7-2.8-1.1-2.6-1.7.2-.6 1.4-.4 4.3.5 2.8.9 2.7.9 7.2-.3l5-1.2a176.6 176.6 0 0 0 20.7-5.3c8.1-2.4 7.7-2.2 3.8-2.4a31 31 0 0 0-13.4 1.6c-.9.5-5.5 1-7.2 1l-4.5-.2c-2.4 0-4-.1-4.2-.3-.3-.2-.9-.2-2.2 0-2.2.5-3.2.5-3.3-.1 0-.3.5-.5 2.4-1a99.3 99.3 0 0 1 5.1-1h-1a165 165 0 0 1-11.2.8c-.3-.8.8-1.4 2.4-1.4 1.3 0 1.4 0 1.5-.8 0-.8.6-1 3.5-1.2l1.7-.2v-1c0-1 .4-4.1.8-5.7.3-.8.4-1 1-.9.5 0 .5.2.5 3.1 0 4.2 0 4.8.4 4.8l.8.4c.2.2.8.4 1.3.5.8.2.8.2.4-.4-.4-.7-.7-4.3-.7-10 0-4.1.2-5.2 1.3-5.2h.7v4.8c0 2.6.2 6 .3 7.4.1 2 .1 2.9-.1 3.1-.3.3-.1.4 1 .5H23c.3-.1.2-2.2 0-4.4a85 85 0 0 1-1.2-20.3c.3-.6.5-.8 1-.7h.8l.2 5.6.2 9.6c.1 3 .2 4 .6 4.6.2.4.5 1.2.6 2 .1 1 .2 1.2.7 1.2.3 0 .6-.2.7-.5.1-.4-.4-6.7-.8-8.4a106.4 106.4 0 0 1-.1-15.5c1.1-1.1 1.2-.7 1.4 4.7a134.2 134.2 0 0 0 .8 14.3c.3 5 .5 6.8 1 8 .2.9.6 1.1.6.4 0-.2.2-.8.5-1.2.4-.7.4-1-.2-6.8l-1-9.6c-.4-2.2-.6-5-.6-7.5a47 47 0 0 0-.3-5.6l-.4-4.6-.2-3H21c-6 .1-7 0-6.2-.6 1-.8 9-1.6 11.3-1.3l1 .2.2-1.5c.2-1.2.1-1.6-.2-1.8-.4-.3-6.6 0-9.2.4-3.1.4-3.9-.7-1-1.6 1.9-.6 9.7-.7 11-.1.7.3 1.1.3 2.1 0l4.7-.5c3.6-.3 10.9-1 22-2.3 9.1-1 9.4-1 9.4 1.2 0 .6.2 1.5.4 2 .5 1 .5.5.7 12.6a170.2 170.2 0 0 0 .7 15.3c0 2.7.5 2.4.7-.3v-2.9c-.3-.3-.7-17.4-.8-28.4v-4.5h.7c.7-.1.7-.2.7-1.8 0-2.2-.1-2.4-2-2.1-1.3.1-1.4.1-1.4-.4 0-.4.3-.5 1.7-.9l1.6-.3v-2.4c-.2-3.8-.5-4.8-1-4.7-5.5.6-8 1-8.3 1.3-.3.4-.7.4-2.8.2a64.5 64.5 0 0 0-6.5-.5c-.4-.4.8-.7 3.8-.7 1.7 0 3.8 0 4.6-.2a115.7 115.7 0 0 1 8.3-1.3c.6-.3.6-.3-.2-.6-1-.4-2.5-.3-3.8.2-1 .3-2 .4-4.5.4-3.8 0-4.7-.3-5-1.2-.1-.7-.2-.7-2.6-.7-2.8 0-3.8-.3-3.3-1 .3-.2.6-.3 1-.2.4.1 2.6.2 5 .1 4.3 0 4.9.1 4.9 1.1 0 .3-.2.5-.4.6l1.1.2c1 0 1.7-.2 2-.4.3-.2 1-.4 1.7-.4 1.8 0 2.6-.3 2.6-1 .1-.4.4-.6.8-.7 2.7-.6 5.1-1.7 5.1-2.4 0-.5-1.6-.8-5.5-.7-3.2 0-4.5-.2-4.5-.7 0-.2 1.4-.3 3.1-.4 3.2-.2 4.3-.5 5.4-1.5.6-.5.6-1-.2-1.5-.7-.5-3-.6-20-1-3 0-3.3-.1-3.4-.6 0-.4.1-.6.6-.7.8-.3 5.6-.2 9.7 0 2 .2 5.6.3 8.1.4 4.6 0 4.6 0 5.8.8 1 .6 1.7 1.5 1.7 2.3l-.8 1-.9.8.8.2c1.5.3 2 .6 2 1.3 0 .7-.2 1-1.4 1.7l-1 .8.4.4c.5.4.5.4 0 .8a2 2 0 0 1-1 .4c-.7 0-.8.5-.2 1.3.5.6.5.9.3 1.3-.4.7-.1 7.2.3 7.6.1.2.6.4 1 .4h1l.1-1.8v-2.8c-.7-2.5.1-4.8 1.2-3.5.3.5.3 1.3.1 5.6a472 472 0 0 0 .5 36.9V80c0 2.9 0 4.4.2 4.4.1 0 .4-.2.5-.5.1-.2.3-4.9.3-10.3.1-7.6.3-10 .5-10 .3-.1.4 1 .4 4.6a278 278 0 0 0 .2 11.4v4.8l1 .4 1.1.3c.4-.3.3-1-.1-1-.8 0-1-1.3-1-6.8 0-3.2 0-5.6-.2-5.7-.1-.2-.3-4.4-.4-10.2a499.2 499.2 0 0 0-.6-30.3c.4-.5 1.1.2 1.3 1.3.3 1.7.5 9.7.7 21.6a493.3 493.3 0 0 0 1 24.3c.2.2.4 1 .5 2 .4 4 .5 4.7.7 4.5V79c-.2-3-.3-9.2-.4-13.6-.1-4.5-.3-8.5-.5-9-.3-1 0-1.5.7-1.2.6.2.7.6.8 6.6l.9 21c0 1.8.3 2.5.5 2.6.6.2.9-.5.8-1.7L83.4 73c-.1-5.4-.3-11.6-.6-13.9-.9-9.4-.9-9.8-1.3-24-.3-11.4-.3-15.3 0-15.8.2-.4 1-.6 1.3-.2l.4 1.7.5 2c.1.4 0 .6-.3.6-.4 0-.4.7-.3 9 .2 8.6.5 15.7 1 22 .6 8.7.7 11.7.9 20 0 5 .2 9.6.3 10.2.1 1 .2 1 1.6 1.1.8.1 1.5.1 1.6 0l.3-2c0-1.8 0-1.8-.6-1.8s-.7 0-.7 1.4c0 1.6-.2 2.1-1 2-.4-.1-.4-.7-.4-8.2 0-4.4.2-8.1.2-8.4.1-.2.4-.3.6-.3.3 0 .4.3.3 1 0 .2.1.3.3.2.2-.2.2-2.4 0-8.2a331.7 331.7 0 0 1 .4-33.7v-2.9h.8c.7.1.7.1.5-1-.2-1.3-.4-15-.2-15.6 0-.3.4-.4 1.2-.4h1L91 8.8c0 .6-.2 5.6-.1 11 0 9 .2 12.7 1 25.6A497.4 497.4 0 0 1 93.2 70a170.2 170.2 0 0 1 .4 11c.4 1 .8-5.3.9-12.3.1-25.9.7-43.5 1.5-43.8.6-.2.8.5.9 2.2 0 .9 0 1.8.2 2a106.2 106.2 0 0 0-1 18 499.8 499.8 0 0 0 1.4 50c.2.4.4 1.1.4 1.7 0 1 .1 1.2.8 1.5.9.3 5.9.1 6.7-.3.7-.4.6-1.7-.1-2-.6-.2-.6-.4-.7-3.8l-.4-11c-.1-4.1-.2-7.7 0-8 0-.3.3-.6.5-.6.3 0 .4.5.4 2.2 0 3.6.2 5.5.5 8.4a139.5 139.5 0 0 1 .8 10.3 404.8 404.8 0 0 0-.6-36.2c0-3-.1-5.4-.3-5.7a377 377 0 0 0-1.1-21.5l-.3-13c0-6.6-.3-11.3-.4-11.6-.6-1.2.3-2.1 1.4-1.4.4.3.7 6 .7 16.4 0 3.3.2 8.5.5 11.6l.5 9.4c.1 2.8.3 3.8.6 4.2.3.3.3 1 .3 2.5-.2 3 0 18.6.1 19.6.1.6.3.8.7.8.9 0 1 1.6 1 9 0 11.5.7 17.7 2 18.6.4.3 3.2 0 4.4-.4a2 2 0 0 1 2.6 1.2c.3.7.2.9-.4 1.5-.6.6-.8.6-2.7.5-2.2-.2-4.1.1-4.8.8-.3.2-1.2.4-3 .4a34 34 0 0 0-6.4 1c-3 .7-4 .8-5.5.7-1.5-.2-2-.1-2.5.2-.6.4-.6.6-.4 2.8l.2 9.6c0 4.1.2 7.8.3 8.2.2 1-.5 1.8-1.4 1.8a7 7 0 0 0-2.2.6 72.6 72.6 0 0 0-10.9 3.8 163.4 163.4 0 0 1-20 6.1c-1.4.2-2.3.2-3 0-1.3-.3-2.8-.3-3.2.2-.3.2-.5.8-.6 1.4-.2 1.2-1 3.1-1.5 3.4l-5.5 2a89 89 0 0 0-9.7 3.7c-1.2.5-2.1.7-3.1.7-1.2 0-2.6.4-6.5 1.8l-6 2.2c-.7.2-2.3.8-3.5 1.4a8.9 8.9 0 0 1-6.3 1zm5.5-2.7 2.5-.8 6-2A87 87 0 0 1 37 145l5.1-2 3.9-1.4c.5-.3 1.4-.6 2-.7l1.3-.2.2-3c.2-2.1.4-3 .8-3.4.3-.4.4-1 .5-1.8 0-8.8-.1-12.8-.3-14-.3-1.6-1-11.2-.9-13.2 0-.7-.1-1.2-.5-1.7-.7-.7-1.4-.7-2.8-.2-1 .4-3.9 1.2-6.6 1.7a157.7 157.7 0 0 0-10.2 2.6 68.7 68.7 0 0 0-16.4 5.5c-1.8.6-2.2 1-1.8 1.7a66.2 66.2 0 0 0-.4 11.8c0 9.7.4 16 1 16.4l1.6-.2 1.5-.5v-1.1a138.8 138.8 0 0 1-.7-5c0-.8-.3-1-.8-1.3-.9-.3-.8-1 .2-2 .8-.6 1-.7 3.3-1 3.4-.6 5.4 1 4.4 3.7-.2.4 0 .7.7 1.4.5.4 1 .8 1.2.8.1 0 .2-.7.1-1.7-.2-1.9.2-2.5 1-2 .6.3 1.2 2.7 1.2 4.6 0 1.2-.6 1.5-1.4 1-.5-.3-.6-.2-1.4.6-.5.5-1.4 1.2-2.1 1.5-2 1-7.3 2.7-8.2 2.7h-.7l.1 1.4c.1.7.4 1.6.7 1.8.3.4.3.6 0 1.3-.2.9 0 4 .3 4l2.4-.9zm13.3-14.4c0-.5-.2-.9-1-1.6-1.4-1.4-1.2-2.8.4-3.2 1.2-.2 1.5.3.7 1.1l-.6.7 1.1 1c1.6 1.5 1.5 2.7-.2 2.7-.5 0-.5-.2-.4-.7zm3.2-1.3c-1-1.6-.7-4.6.7-5 .8-.3 1.2.2.7 1-.3.4-.4.7-.2.9.3.2.2.4 0 .7-.5.6 0 1.7.8 2 1.2.2.9.9-.5 1-.9 0-1.1 0-1.5-.6zm4.3-1.2c-.3-.2-.6-1.1-.7-2-.3-1.8 0-2.9.9-3a3 3 0 0 0 1-.1c.2-.2.6-.2.9 0 .6.2.4 4.3-.3 5-.6.8-1.3.8-1.8.1zm1-3.6v.9-1zm2.8 1.7c-.5-.8-.7-4.3-.3-4.6.5-.3 1 .4 1.2 1.8l.3 2.4c.1.9 0 1-.4 1-.3 0-.7-.3-.8-.6zm3.4-1-.3-1.5c0-1-.3-1.4-1-1.4-1 0-1.5-.4-1-1a44.4 44.4 0 0 0 6.2-2.1c.5-.2.8.5.3 1.4-.2.5-.2.7.2 1.3 1 1.4 1.2 2.4.7 3-.4.5-.9.7-1.6.6-.4 0-.4-1 0-1.4.6-.4.6-.5-.4-1.7-.7-.8-1.1-1-1.5-1-.8.2-.8.4-.4 2 .6 2.4.5 2.9-.3 2.9-.5 0-.7-.2-.9-1zm-27-7.2-.4-2c-.2-1-.7-2.6-1.1-3.5-.5-1-.9-2.1-1-2.7 0-.8 0-.9.8-.9.7 0 .8.2 1.5 2.2l1 2.2c.2 0 1-2.1 1-2.7 0-.6.8-1.5 1.3-1.5.2 0 .4.2.4.5a14 14 0 0 0 1.8 4.2c.1 0 .3-1.3.4-3 .2-3.6.3-4.2.9-4 .4 0 .4.5.4 4 0 3-.2 4.3-.5 4.8l-.5 1.2c0 .2-.4.5-.7.5-.6 0-1-.8-1.7-3-.2-.8-.4-1.4-.6-1.3-.3.1-.9 2.1-.9 3.4 0 .8-.1 1.1-.6 1.5-.8.5-1 .5-1.4 0zm8.7-3.2c-.1-.3 0-1.8.2-3.2.2-1.4.4-2.8.3-3.1-.2-.6.4-1.1 1.2-1 .4 0 .6.3.8 1 .2 1 1.7 3.7 2.4 4.3.5.4.5.4 0 1.2-.5 1-.8 1-1.3 0-.7-1.4-2.5-.8-2.5.9 0 .7-1 .7-1.1 0zm2.3-2.7c.3-.2.3-.3 0-1-.4-.6-.5-.7-.7-.4-.3.5-.3 1.5 0 1.5l.7-.1zm4.5.9-.5-1.6c-.4-2-.7-2.6-1.4-2.6-.9 0-.8-.7.1-1.2 1.5-.8 7.5-2 8-1.6.5.3.3.7-.5 1-1.2.7-1 1.3.3 1.1.8-.1 1-.1 1 .3 0 .3-.4.6-1 .8-.7.3-1.1.6-1.1 1 0 1 1.2 1 2.3.1 1-.6 1.5-.6 1.3.1 0 .7-2.6 2.1-3.6 2-.7 0-1-.6-1.2-2.8-.2-1.9-.6-2.2-2.2-1.8-.6.1-1.2.4-1.3.6 0 .2.1 1.4.4 2.6.3 1.2.5 2.2.4 2.3-.2.4-.6.3-1-.3zm9.4-3.1a9 9 0 0 1-.4-2.1c-.2-1.5-.3-1.7-.8-2-.9-.2-.8-.5.2-1.4.8-.8 1-.8 2.4-.7 1.6.2 1.6.2 2 1 .3.5 0 2-.5 2-.6 0-.2.7.8 1.4.6.4 1 1 1 1.2 0 .8-.8.7-1.8-.2-1.2-1.2-1.9-1.1-1.9.2 0 1.2-.5 1.5-1 .6zm1.5-3.7c.5-1 .4-1.2-.3-1-.4 0-.6.2-.6.9-.1 1 .4 1.1 1 .1zM6.1 147.8c-.1-1.1-.4-2.1-.5-2.2l-.1 1.6c0 1.4 0 2 .4 2.3l.5.5s0-1-.3-2.2zm14.8-7.7c1.1-1 1.2-1.3.3-2.1-.7-.8-1-.8-2.6-.4-.9.3-1.3.3-1.5 0-.4-.4 0-1 .9-1.3 1.2-.5 1.8-1 1.8-2 0-.8-.2-1-.7-1.1-1-.2-2.4 0-2.6.6-.4 1 .2 7 .7 7.7.3.4 2.4-.4 3.7-1.4zm39.7-6.5c1.2-.4 4.3-1.4 7-2.1 6.3-1.8 10-3 16.6-5.4 2-.7 3-.9 3.4-.4.4.3 2.5-.5 3.4-1.2.4-.4.5-.8.5-3.5a125.5 125.5 0 0 0-.3-13.1c0-.6-.6-.6-1.9.1-1.3.8-1.5.6-2-2-.5-3-.5-3.6.2-3.6s1.3 1.4 1.3 2.8c0 1 .3 1 1.5.7l.6-.1v-6.3c0-4.4 0-6.4-.3-6.4a134.4 134.4 0 0 0-16.2 5l-6 1.9a25.9 25.9 0 0 1-8 2.5l-2.5.6c-1.3.3-1.4.5-1.2 3 .2 3.5.2 5.3 0 10.3-.2 4.5.4 17.4.8 18 .2.4.3.3 3.1-.8zm2-5c-1.5-3.9-2.2-6.4-1.9-6.7.5-.4 1 .2 1.5 1.6.5 1.7 1.2 3.3 1.4 3.2l.6-2.3c.9-3.6 1.5-4.1 2.3-2 .7 1.8.8 1.6 1.4-1.3.2-.9.5-1.6.7-1.7.7-.3.9.3.5 1.5l-.5 3c-.3 2.8-.4 3.1-1 3.1-.4 0-.7-.3-1-1.3-.4-.8-.7-1.3-.9-1.3-.2 0-.2.1-.7 2.7-.2.8-.5 1.6-.7 1.7-.2 0-.4.3-.4.5s-.2.3-.5.3-.6-.3-.9-1zm7.6-2c-.3-.3.1-4.7.5-5.5.5-1 .8-.9 1.3.3.2.5.6 1.1.9 1.3.4.3 1.4 2.7 1.4 3.4 0 .8-.8.3-1.4-.7-.9-1.6-1.2-1.5-1.7.4-.2.8-.7 1.1-1 .8zm4.5-2.3a18222.4 18222.4 0 0 1-1-4c-.1-.7 0-1 .9-1.2 1.8-.6 3 0 1.4.6-1.5.6-1.1 1.4.6 1.2 1 0 1.1.6 0 1-.6.4-.7.5-.8 1.6 0 1-.2 1.3-.5 1.3s-.5-.1-.6-.5zm3.6-.5c-.3-.8-.6-4.6-.4-5 .3-.3 2.2-1 2.9-1 .4 0 .6-.2.6-.6 0-.7 1.5-1.2 2.5-.8.9.3 1 .8.7 2-.2.8-.2 1 .3 1.3.9.6 1.8 1.5 1.8 1.8 0 .6-.9.5-1.7-.3-1.2-1-1.6-1-1.7.2 0 .5-.2.8-.3.8-.5 0-1-.8-1-1.5 0-1.4-.3-1.9-1-1.9-1.4 0-2.5 1.2-1.7 1.7h.7c.3-.2.6-.3.8-.2.6.2.3.8-.6 1.2-1.1.4-1 .9.2.9.6 0 .9.1 1 .4 0 .3-.1.5-.3.5-.2 0-.7.2-1 .5-1 .7-1.6.7-1.8 0zm5-5.5c.3-.7 0-1-.5-1-.4 0-.4 0-.2.9.2.7.6.8.8 0zm4.2 3c-.2-.3-.2-.5 0-.9.3-.4.2-.6-.5-1.6-1.3-1.8-1-3.4.4-3.4.8 0 1.1.7.5 1-.6.4-.5 1.2.2 2 1.3 1.6 1.5 2.5.4 3-.6.4-.6.4-1 0zm-28.3-7c-1-2-1.3-4-.7-6.2.6-1.8 1-2.5 1.5-2 .2.1.2.4 0 .7l-.6 2.2c-.2 1.5-.2 1.9.3 3.4 1 3 1.5 3.3 2.3 1.4 1-2.2.7-6-.5-7.2-.6-.6-.5-1.3.2-1.3.6 0 2 1.5 2.2 2.4 0 .6.2.8.5.6.8-.3 1.2-.2 1.4.2l1 1.7c1 1.7 1.4 4.1.7 4.1-.2 0-.5-.3-.7-.7-.3-.6-1-1-1.5-.8-.2.1-.3.6-.3 1 0 1-.7 1.3-1.2.6-.3-.4-.3-.4-.5.3-.2.8-1 1.2-2.4 1.2-.7 0-.9-.2-1.7-1.6zm6.5-3.2-.1.3c0 .4 0 .5.1.3v-.6zM71 113l-.3-2-.1-1.7h-1.2c-1 0-1.3 0-1.3-.3 0-.4 3.5-1.6 4.6-1.6.3 0 .6-.2.7-.5.2-.9 1.2-.7 1.8.4.3.5.6.9.7.8l.7-1.2c.5-1 1.1-1.5 1.5-1.1.1.1.3 1.5.4 3.2.1 2.4 0 3-.3 3-.5 0-1-.8-1-1.6 0-1-.1-1.2-.7-.8-.4.2-.7.2-1.2 0l-.6-.3v1.5c0 1.4 0 1.5-.5 1.5-.4 0-.5-.2-.7-1.8-.1-2-.3-2.3-1-1.8-.3.2-.4.7-.4 2.3 0 1.7 0 2.1-.4 2.2-.3 0-.5 0-.7-.2zm8.7-3.8c-.2-.5-.4-1.8-.5-2.9l-.1-2h1.3c1.2 0 1.4 0 1.4.5 0 .3-.3.7-.8.9-.7.4-.6.5.7.4.8 0 .9 0 .8.4 0 .3-.5.7-1 .9-.8.4-1 .9-.5 1.2.3.2 1.8-.6 2-1.2.2-.2.4-1.2.4-2 0-1.2 0-1.8.5-2.2.6-.9 1.2-.5 1.8 1l.7 1.4c.2.2.4 1 .4 1.7.1 1.2 0 1.3-.4 1.3-.3 0-.6-.3-.8-.6-.3-.8-1-.7-1 0 0 1-.6 1.7-1.5 1.7l-2 .2c-1 .2-1.1.2-1.4-.7zM55.1 121c-.2-4.3-.2-4.6-.4-2.6-.2 2.3 0 5.5.3 5.3.1-.1.2-1.3.1-2.7zm0-11.8c0-2.8-.1-5.3-.2-5.4h-1.1c-1.1.2-1.4 1.1-.4 1.3.6 0 .6.3.8 2 .2 1.1.3 3.7.4 5.7.2 5.7.7 3 .6-3.6zm-42.5 2.3a23 23 0 0 1 7-2.8 369.3 369.3 0 0 1 24-5.9l3.2-1 1.8-.5v-2c0-1.5 0-2-.4-2a273.5 273.5 0 0 1-29 8l-5 1.6c-1.4.5-2.3.7-2.7.6-1-.2-1.6.8-1.4 2l.3 1.3c0 1.5 0 1.4 1 1.2.4 0 1-.3 1.2-.5zM55 100.7a9.7 9.7 0 0 0-.2-2.7c-.2-1.1-.2-1.1-1.5-1.3h-1.5a6 6 0 0 0-.3 2c-.1 1.5 0 1.7.4 1.8.3 0 .7.2.8.4.2.3 1.5.9 2 1 .2 0 .3-.5.3-1.2zm5.6.4c3.2-.7 4.3-1 7.6-2.3l4.2-1.4c2-.6 3.3-1 4.2-1.5l3-1a932.8 932.8 0 0 0 8.1-2.5c3.3-.8 3.7-1.2 3.2-2.9-.3-.7-.5-1-1-1-.4-.1-.6 0-.6.2 0 .6-.2.7-2.5 1.1a170.1 170.1 0 0 0-27.3 7c-2.4.8-2.4.9-2.5 1.8l-.2 2.2c0 1 0 1.1.6 1l3.2-.7zM24 96.6c0-.2-.3-.3-.7-.3-.3 0-.6.1-.6.3l.6.2c.4 0 .7 0 .7-.2zm35.1-1a125.7 125.7 0 0 0 15.4-4.5 166.8 166.8 0 0 0 9.8-2.2c2.8-.5 3.2-.6 3-.8 0-.1-1.5-.2-3.3-.1-3.7.1-4.8 0-5-.9 0-.5-.2-.5-3.8-.6-4.3-.2-5 0-6 1-.5.7-1 .9-1.6.9-.5 0-2.4.5-4.3 1.2-4 1.4-6.4 2-10.3 2.7l-5.2 1c-2.8.5-3.2.6-2.5.9.8.3 2.1.3 2.9 0 .6-.3.9-.3 1.7.1a13 13 0 0 0 4.6 1.2c.5 0 1 .1 1.1.3.3.4 2.9.3 3.5-.2zm-25-1.3a85.3 85.3 0 0 1 11.3-1.9c.7-.1.8-.1 9.7-3l8.5-2.6 2.8-.9-.2-2.7c-.3-5.7-.5-6.6-.7-6-.4.7-.6.7-1 .2a79 79 0 0 1 .5-14.6c.5-6.3.6-8.2.4-9l-.2-.7-3 .2c-1.6 0-3.6.3-4.5.4a253.7 253.7 0 0 1-15.6 1.9c-1.6.3-12 1.3-12.3 1.2-.4-.3-.3-.9 0-1.2.4-.2 5.9-1.1 9.1-1.5a635.9 635.9 0 0 0 13-1.3 48.9 48.9 0 0 0 12.2-2c.3 0 .4-.2.3-.9 0-.8 0-.8-1.5-.8a187 187 0 0 0-17.5 1.5 367.2 367.2 0 0 1-14.9 1.8c-1.3 0-1.6.9-1.3 4.5l.1 3.2.5-.8c1-1.6 2-.8 1.2 1.1-.6 1.8-1 4.8-.8 7.7a701.8 701.8 0 0 0 1.6 23c.2 2.6.4 3.6.6 3.6l1.8-.4zm0-7c-1-.6-1.6-4.5-1.1-7.3.8-4.6 3-5.4 4-1.4.2 1 .4 1.3.7 1.2.2-.1.5 0 .7.1.2.2.5.2.7.1.1 0 .7 0 1.2.2 1 .3 1.4 1.2.9 2.3-.4.9-.3 1 .9 2.5l.8 1 .3-1.3c.5-1.7.4-2.4-.2-3.4-.7-1-.5-1.3 1-1.4 1-.1 1 0 1.3.8.1.6.5 1.2.7 1.5.3.3.5.8.5 1.2l.3 1.5c.2.7.2 1 0 1.1-.7.4-.8.3-1.3-.7-.2-.5-.5-.9-.6-.9-.1 0-.3.4-.4 1-.2.9-.4 1-1 1l-.7.1c0 .6-.6.2-2-1.2a8.4 8.4 0 0 0-1.5-1.4l-.3 1.5c0 1.1-.2 1.5-.5 1.5s-.4-.5-.5-2.2c-.2-2.6-.7-4-1.4-4-.3 0-.4-.2-.4-.5 0-.8-.6-2-1-1.8-.6.2-.9 1.5-.9 3.8 0 2.8.4 4.2 1.2 4.2.4 0 .5-.2.5-.7 0-.4.2-.7.5-.7.7-.2.9.7.4 1.7-.4.8-.6.9-1.5.9l-1.3-.2zm5.8-5.2c.2-.3.2-.4 0-.7-.4-.4-1 0-1 .6s.5.7 1 .1zm8.6 1.7c-.3-.6-.5-1.7-.5-2.5 0-1.1 0-1.5.5-2 .6-.6 1.3-.5 1.6.2 0 .3 0 .7-.4 1-.5.4-.6.7-.4 1.6.3 1.7.3 2.4-.1 2.5-.2 0-.5-.3-.7-.8zm2.6.5v-3c0-2 0-2.6.4-2.6.2 0 .4.3.5.6 0 .7.3.8 1 0 .2-.2.6-.5.8-.5.7 0 .6.6-.2 1.5a8 8 0 0 0-.8 1l1 1.3c1.2 1.2 1.5 2 .8 2-.2 0-.7-.3-1-.7-1-1-1.4-1.1-1.5-.2-.2.9-.8 1.2-1 .6zm4.3-.9c-.1 0-.2-1.2-.2-2.6 0-2.7.2-3 1.7-3.1 1 0 1.2.6.2 1-.9.4-.9.9 0 1 1 .2 1 .8 0 1.2-.7.4-.7 1 .2 1 .9.2.7.9-.4 1.3-1 .5-1.3.5-1.5.2zm7.2-1.1c0-.3.1-.5.3-.5.4 0 .3-1-.1-1.4-.2-.1-.6-.7-.7-1.2-.3-.8-.3-1 .1-1.4 1-1 2-.5 1.5.7-.3.5-.3.7.2 1.5.7 1.2.7 1.8.2 2.4-.6.6-1.5.5-1.5-.1zm-4-.7c-.3-1-.2-3.5.2-4 .2-.5 1.5-.4 2.2 0 .6.5.7 1.2.2 1.9-.4.4-.3.6.2 1.4.4.5.6 1 .5 1.2-.2.4-.9.2-1.2-.3-.4-.7-.7-.7-.8 0-.1 1-.9.9-1.3-.2zM32.3 71c-.9-1.6-1-1.8-1-4.1 0-3.8 1.2-6.3 3-6 .2 0 .4.4.5.8 0 .6 0 .7-.6.7-1.1 0-1.6 1.8-1.5 5.8 0 1.2.1 1.5 1 2.3.6.7.8 1 .7 1.6-.3 1.2-1 .8-2-1zm3 .3c-.4-.4-1-4-.6-4.3 0 0 0-.4-.2-.7-.6-.8-.2-1.1 1.7-1.4 1-.1 1.7 0 2 .2.5.4.5 1.4 0 1.8-.4.3-.4.5.2 1 1 1.2 1.9 3 1.6 3.3-.5.4-1 0-1.8-1.2-.4-.7-.9-1.2-1-1.2-.1 0-.4 0-.6-.2-.4-.1-.4 0-.3.8.2 1 0 2.3-.4 2.3l-.6-.4zm1.2-5c-.2-.4-.6-.2-.6.4 0 .5 0 .5.4.2.2-.1.3-.4.2-.5zm4.7 4.2c-.2-.2-.3-.8-.1-1.8 0-1 0-1.8-.2-2.3-.3-.8-.3-.9.2-1.2.7-.6 2.8-.4 3 .2 0 .3-.1.5-.5.5-.7 0-1.4.2-1.4.5l.8.4c1 .2 1 .7.2 1.1-1.2.6-.8 1 .6.8h1.6c.7.5 0 1-1.3 1.3a4 4 0 0 0-1.7.5c-.5.5-.8.5-1.2 0zm5.1-.8.1-2c.2-.8.3-1.8.2-2.3-.2-.7-.1-.8.8-1.1.7-.2 1-.2 1.3 0 .3.3 1.8 3.9 1.8 4.4 0 .6-.7.7-1.1.1-.6-.7-1.3-.6-1.8.2-.4 1-1 1.3-1.3.7zm6.3-.4c-.4-.5 0-5.4.4-5.8.5-.5 1 0 1.6 1.3.4 1 .9 1.4.9.8L56 64c.6-1.2 1.3-1.5 1.8-.8.5.6 1 5.7.6 6-.7.8-1.3-.4-1.3-2.5 0-1-.3-1.2-.8-.3-.5.9-1 1-1.6.6-.7-.6-.7-.5-1 .7-.1 1.4-.6 2-1 1.5zm40.6 20.3c0-.2-.1-.1-.1.2l.1.4v-.6zm-8.2-3h-1.4l.7.1c.8 0 1.1 0 .7-.1zm6.7-.7a48.9 48.9 0 0 0 0-13.5l-.2-5.5c-.2-1.2-.3-5-.4-8.4a289.3 289.3 0 0 0-1.5-25.4c0-1 0-1.9-.2-1.9a217 217 0 0 0-.2 28.9c.3.3.4 1.5.6 5.5a131.3 131.3 0 0 1 .4 12.6c0 5.8 0 7.2.4 7.7.4.8.8.8 1.1 0zm-19.3-1.8.2-1.4c0-.5.3-1.2.5-1.7.3-.6.4-1.2.3-2.1-.3-1.6-.5-15.5-.6-29.3 0-10.4 0-11.1-.5-11-1.6 0-1.5-.3-1.5 4 0 2.2.2 8 .5 13.1.3 5.4.4 13.4.4 19.2 0 9.4.2 11.2.7 9.2zm-2-11a185.2 185.2 0 0 0-.6-19.5 26 26 0 0 0-.1 5.7c0 4 0 8.3-.2 9.6v3.9c.2.8.4 3.6.4 6.2 0 5.3 0 5.4.3 5.4.1 0 .2-5 .2-11.3zm37.6 3.6c0-.2-.1-.2-.1.1 0 .3 0 .5.1.4v-.5zm-42.6-.8c0-.2-.1-.2-.1.1 0 .3 0 .5.1.4v-.5zm62 76.7c-1.3-1 1.4-1.5 13.7-2.9 6.2-.7 11.4-.8 11.7-.2.6.8-.4 1-4.6 1-2.9 0-5.5.2-9 .7l-10.9 1.6c-.3 0-.7 0-1-.2zm10.4-3.8c-.6-.3-.3-.9.7-1.2a330.1 330.1 0 0 0 13.7-1.2c3.4-.1 4 0 4.3.3.6.6-.3.9-4.4 1a114.2 114.2 0 0 0-14.3 1zm3-3.2c-.2-.4.2-.8 1-1 1-.2 8.6-.8 10.2-.7 1.5 0 1.6 0 1-.8-.5-.5-.5-.5-.8 0-.3.3-.5.4-1.3.1-.6-.2-1.5-.2-3.1.1-2.4.4-4 .3-4.5-.3-.4-.5 0-1 1-1 .8 0 .9 0 .9-.6s0-.6.8-.6c1.4 0 2.6-.5 3.3-1.2l.7-.7-.6-.8c-2.4-3.3-3.2-5-3.2-7.1 0-1.3-.1-1.8-.8-2.9-.7-1.2-.8-1.3-.8-4.5 0-4-.2-5.2-1.3-5.7-1.5-.8-3.5-3.1-4-4.7a6 6 0 0 0-.8-1.7l-.9-1.2a6.8 6.8 0 0 0-1.7-1.7l-1-.7-.8.8c-.4.5-1 .8-1.3.8-.6 0-1.4-.6-1.9-1.4-.2-.4-.5-.5-1.7-.5-1.4 0-1.5 0-1.8-.6-.5-1 0-1.5 1.5-1.9 2.2-.5 5.1-.6 8.5-.3 1.8.2 3.4.3 3.5.2l.4-1c.2-.7 0-.9-2.2-3.1a19.5 19.5 0 0 1-2.7-3c-.3-.7-.8-.7-6.4-.5-1.4 0-3.4 0-4.6-.2a9.3 9.3 0 0 0-3.2 0c-.8.2-1.2.1-2-.2-1.6-.8-1.8-1.5-1.5-4.7.3-3.5.3-3 .3-17.7V59.8a189.5 189.5 0 0 0-.7-15.5l-.3-5.1c-.2-1.9-.2-9-.2-15.9V10.1c-.4-1.6-.7.4-.8 6.3l-.4 11.8c0 .2-.2.4-.4.4-.6 0-.6-1.7-.3-16 .2-7 .3-9.7.6-10 .5-.6.6-1.2.3-1.5-.5-.5 0-1.1.8-1.1s.8 0 .8.8a6 6 0 0 1-.5 1.9 7 7 0 0 0-.5 2.8c0 1.6 0 1.6.5 1.3.4-.2.6-.2 1 0 .3.4.3 1.6.3 10.7 0 12.5.2 15.7.8 16 .3 0 .5.4.6 1.2.2 1.3.1 1.5-.6 1.5-.4 0-.4.2-.3 2.6a115 115 0 0 1 1.2 23.9c.6 0 1.7-1.6 2-2.9.7-2.3 2.2-2.8 3-.9l.6 1.1.6-.6c.6-.7 2-.9 2.4-.3.5.6.6 2.3.2 3.6-.4 1.1-.5 3.8 0 4.1 0 .1.7-.3 1.3-.9a12 12 0 0 1 5.1-2.6c1.4-.2 2.5-.8 2.5-1.4 0-.5-1.2-1.6-1.8-1.6l-.7-.4c-.4-.4-.4-.5 0-1.2.2-.4.6-1 1-1.2.8-.6.7-1.1-.1-1.1-.8 0-1.1-.7-.7-1.3.8-1.1 1.7-2 2-2 .6 0 .7.7.1 1.1-.6.5-.5 1 .3 1.4 1 .3.8 1.3-.2 2.5l-.8 1 1 1c.6.7 1.2 1.5 1.3 2 .1.6 0 .8-.6 1.2l-1.5 1.1c-.8.7-1 .8-1.3.4-.3-.5-1.5-.2-2.9.6-1.4.7-2.5 1.7-2.3 2l2-.8c1.5-.6 2.2-.8 4.1-.8h2.2v.7c0 .5-.3 1-.4 1-.5.3-1.9 0-2.3-.5-.3-.4-.4-.4-1.7 0-.7.1-2.3.7-3.4 1.3-1.9 1-2 1.1-2.2 2a7 7 0 0 0 0 2c0 .5 0 2-.2 3.3-.3 2.2-.3 2.2.4 3.6 1 2 1.1 4 .6 7.7-.4 3-1.1 5-2.2 6.1-.2.3-.5.8-.5 1.2v.9l-.6.2c-.4 0-.4 0 .1.4.7.5 7.8.4 7.8 0 0-.3-.7-1.2-1.6-2.2-1.4-1.5-1.5-1.8-1.2-2.2.6-.8.8-.8 2.9-.8l2 .1 1.4-1.4a25.8 25.8 0 0 0 3-3.7c.4-.6.6-1.1.5-1.5-.2-.9.6-1.2 1.1-.5 1 1.2 0 2.9-2.8 5.7a8 8 0 0 0-1.6 1.8c0 1.9 6-2.2 8.2-5.5.5-.8 1.3-.6 1.3.2 0 1-3 4.3-5 5.3l-1.6 1c0 .3.8.6 2.5 1.1.5.2 1 .4 1.1.6.4.5 1.2.2 1.3-.5.4-1.5.5-1.7 1-1.7.2 0 .5 0 .6-.2.4-.6 1.6-.5 3.6.5 2.4 1.3 3 2.2 2.8 4.2l-.2 1.2 4-.3c4.3-.2 8.3-.2 15.2 0 4.8 0 4.7.1 4.5-2.3-.2-2-.6-2.5-1.2-1.7l-.4.5-.7-.5-1-.5c-.3.2-.7-.1-1.1-1-.6-1.2-.6-1.3 0-2.2.7-.8.8-2.9.3-5l-.5-3c-.4-2.4-.9-2.9-2.4-2.9-1.3 0-3.8-.8-4-1.3l.8-1.2c.8-.9.8-1 .5-1.4-.3-.3-.4-.8-.3-1.8.1-.8 0-1.6-.3-2.3-.4-1-.3-1.2.4-1.2.3 0 .7.4 1 1l.5 1.2V70c0-.7-.1-1.9-.3-2.6-.4-1.1-.3-1.5.1-1.5.1 0 .5.5.8 1.1.4.8.5 1.7.6 3.4 0 2.5.2 2.6 1.5 1.5l.6-.6-.6-.6c-.5-.5-.6-1-.6-2 0-2 1.5-3.1 3-2.3.5.3.7.2 1.2-.2.8-.8 2.2-.8 3 0 .9 1 1.1 2 1 4-.2 1.4-.1 2.2 0 2.6.3.3.5 1.8.6 3.4.2 4.5 1.1 6.3 3.4 6.7.5.1 1.2.3 1.4.5.5.4 2.4 3 2.4 3.2 0 .5 1.7 4.1 1.8 4l.7-3.4c.7-5 1.8-8.5 3.4-10.2 1.7-2 6.6-5 7.5-4.7.6.3.2.8-1.4 1.7-1.8 1-4.4 3-5.3 4.2-.8 1.1-2.2 4.5-2.5 6.3l-.8 4.5c-.7 4-.7 3.4-.1 6 .3 1.4.6 2.2 1 2.2h4.6c7.4-.6 11-.8 12.6-.7 1.2 0 1.5 0 1.5-.4 0-.3.2-.6.5-.8.5-.3.5-.6.5-5.6s0-5.3-.5-5.6c-.3-.1-.5-.4-.5-.5 0-.2.2-.4.5-.4.3-.1.6-.4.6-.6.6-10.8.8-41.5.2-41.8-.6-.5-1.1-20-.5-21.7.2-.6.2-.8-.3-1.1-.4-.4-.5-.8-.5-1.8a35.1 35.1 0 0 0 .6-7.5c0-3.7.2-4.8.5-5h.6c.1.2.3 6 .3 15 0 13.1.2 17.6.8 23.8l.2 8.7c0 4 .2 9 .3 11 .2 3.6.2 4.1-.3 4.9-.3.7-.4 1.1-.2 2.5.2 1 .2 3.5 0 6.3-.1 2.6-.3 8.2-.3 12.5 0 5.6 0 8-.3 8.3-.4.7-1.6 1-3.2.6-1-.1-1.4-.1-1.8.2-.5.3-1.5.4-4.7.4-2.2 0-4.6.1-5.2.3-1.3.3-6 .6-8.9.5l-7.4-.1c-3.1 0-5.8-.2-6-.4-.4-.2-1.5-.1-3.6.1-2.8.4-3.2.4-4.3 0-1.2-.5-1.7-.5-5.9-.2l-6.8.3c-3 0-3 .1-2.3 2.8l1 4.4c.2 1.2.6 2.6 1 3 1 1.5 4.9 4.8 6.5 5.4.5.2.8.7 1.3 2l.9 2.7c0 .4.5 1.4 1 2.2 1.4 2.5 2.4 6 2.7 9.6 0 1.2.3 2.5.5 2.9.2.5.4.6 1.6.5 1.7 0 7.6-1.3 9-1.7 3.5-1.3 4-1.5 5.5-3l2.2-2.6c1-1.6 3.4-3.4 5.8-4.3a12 12 0 0 1 5.2-1c2.4-.2 3.3-.1 4.2.2.6.3 1.5.4 2 .4.6 0 .8 0 .8.5.1.8-.7 1.2-2.8 1.2-4 0-8.9.8-10 1.7l-5.8 6c-1.3 1.5-2 2.1-3.7 3-1.2.5-2.4 1.3-2.8 1.6-.7.7-4 1.7-5.4 1.7a6 6 0 0 0-2 .5 7 7 0 0 1-2.6.5c-1 0-1.7.2-2 .5-.7.4-.8 1.4-.3 2 .6.4.5 1.3-.3 2-.7.7-.8.7-3.9.7a232.6 232.6 0 0 1-6.7-.2c1.6.1 2.3.6 1.7 1-.2.3-2.9.5-7.5.7a182.8 182.8 0 0 0-9.1.3zm24-4.4c0-.7-1.6-3.9-2.1-3.9-.4 0-2 1.5-2 1.8l.4-.1c.4-.4 1-.5 1-.1l-.7 1.2c-1 1.6-.9 1.8 1.3 1.7 1.7-.1 2-.2 2-.6zm-2-.2c-.2-.3.3-1 .7-1 .4 0 .5.8.2 1-.5.4-.7.3-1 0zm-4.7-.7c.5-.7 1-1.4 1-1.6 0-.2.3-.3.4-.3.3 0 2.2-2 2.7-2.8.3-.5 0-2.2-.4-2.2-.1 0-.5.4-.8 1l-1.5 2.2c-1.9 2-3.5 4.2-3.5 4.6 0 .8 1.2.3 2-.9zm-5.2.3.5-3.3.5-4.1c.4-2.1.4-4.4 0-5.2-.3-.6-.3-1 .1-2.2.8-2.5 0-6.3-1.5-7.2-.5-.2-1.4-3.1-1.1-3.5.2-.4 1.8-.3 2.2 0 .2.2.3.8.3 1.3s.4 1.6 1 2.6c1 2 1.4 2.5 1.4 1.9 0-.8.9-3.1 1.2-3.3.2 0 .6.2.8.6.5.7.5 2.1.3 6.7 0 1 0 1.2 1 2 2 1.2 3 3.2 4.6 8.8l.8 2c.3.2 1.5-.3 3-1.1.5-.3 2.6-.7 4.7-1 2.7-.4 4.1-.8 4.8-1.2l1-.7-1.8.3a125 125 0 0 1-9 1.5c-1.4-.4-1.6-1-1.9-5.4 0-1.7-.3-3.2-.5-3.4l-.7-2c-.3-1-1-2.6-1.5-3.5-1.2-2-2-4-2-5.1 0-.6-.4-1-2.3-2.2l-4-3c-1.5-1.6-1.7-2-2-3.3a42.4 42.4 0 0 0-2.4-8.7c-.5-1-.5-1.1-.2-2.3.5-1.8.6-3.2.3-3.6a1 1 0 0 0-1.6 0c-.3.3-.3.6.1 1.3.4.7.4 1 0 2.1-.2 1-.4 1.4-.9 1.4-.4.1-.7-.1-1-1-.5-1-.9-1.3-1.7-1.8a39.4 39.4 0 0 0-10-2.8l-1.5-.2.6.7 1.2 1.4 1.9 2.8c.7 1.2 1.5 2 1.8 2.2 3.2 1 4.8 2.5 4.2 4a27 27 0 0 0-.5 1.8c-.4 1.6-.9 1.9-2.4 1.5-1.4-.3-4-.3-4 0 0 .2.7 1 1.4 1.7a9 9 0 0 1 2.3 3.1c.8 1.7.9 1.8 1.5 1.7.8-.2 2.2.6 3.4 1.8.7.7 1.2 2.8 1.3 6.5.3 5.7.4 6.3 2.6 9.7 1 1.4 1.2 2.7.6 3.1-.6.4-.4 1 .8 2.7.5.8 1 1.7 1 2 0 .7.6 2.3 1 2.3 0 0 .3-.2.3-.4zm-11.8-42.9-.2-1.2c0-.8.1-1 .7-1.1 1.7-.5 2.6.6 1.7 1.8-.5.7-1.8 1-2.2.5zm16.4 39.6c2.3-2.9 3.8-5.3 3.5-5.7-.3-.2-.8.3-2.2 2.3l-2 2.8c-.7 1-1.4 1.7-1.6 1.8-.4.1-.5.5-.5 1.1 0 1.2-.2 1.3 2.8-2.3zm-1-2.2 2.2-3c1.7-2 1.8-2.6 1-3.3-.5-.6-.6-.5-2.6 2.5-1.6 2.3-2.1 3.6-2.1 4.7 0 1 .3.8 1.4-.9zm.2-5.5c.4-.7.4-.8 0-1.2-.5-.6-.7-.4-.9 1-.1 1.2.2 1.3.9.2zm-.4-4.8-.1-.4s-.2.1-.3.4l.1.3c.2 0 .3-.1.3-.3zm.5-1.6s-.1-.2-.3-.2l-.2.6c0 .5 0 .5.2.2l.3-.6zm-23.2-16.6c.4-.7.4-.8 0-.8-.9 0-1.4.3-1.4.8 0 1 .9 1.1 1.4 0zm19-10.3c.5-.6.5-1 .3-1.4-.2-.5-.3-.5-.7.4a23 23 0 0 0-.5 1.5c-.3 1 .4.6 1-.5zm36.8.1a49.4 49.4 0 0 1-1.3-4.3c-.8-2.5-1.9-4.7-3-5.8-1-1-4.7-4-5-4-.4 0-.8-2-1-5-.1-2.6-.2-3.2-.6-3.6-.3-.3-.5-.6-.4-.9.3-.8.5-2.7.2-2.7l-.7.5c-.3.4-.7.5-1 .4-.3 0-1 .2-1.9.7a19.3 19.3 0 0 0-4.7 3.9c0 .6 1 1 2.6 1 1 0 1.9.2 2 .4.3.2.8.3 1.2.2.9-.2 1 .4.5 1.5a13 13 0 0 0-1.2 4.1l.4 1.6c.3.7.5.8 1.2.6.8-.1.8-.1.6.8-.1.8 0 .9.8 1.3s1 .6 1 1.7v1.3l.7-1a4 4 0 0 0 .6-1.7c0-.4 0-1 .2-1.1.2-.4.3-.4.7 0 .4.4.4.9.4 2.5v2l1.4 1.5c.8.8 1.8 2.2 2.2 3 .7 1.4.8 1.5 1.4 1.4h1.3c.8.4 1.4.2 1.4-.3zm-15.7-22c-.2-.2-.2-.4 0-.7.5-.6 1.5-.4 1.6.2.2.9-1 1.3-1.6.6zm9 21.6c.2-.4 0-.5-.6 0-.5.2-.5.3-.1.3.2 0 .5-.1.6-.3zm-.1-1.4c-.2-.4-.7-.6-.7-.2 0 .3.3.6.6.6.1 0 .2-.2 0-.4zm-1.2-1.4-1.3-.7c-.6-.2-.8-.1-1 .4-.2.7.1.9 1.7 1h1.2l-.6-.7zm-57-.6c.7-.4 1-.5 1.3-.3 1.3 1.1 2.8-1.7 3.2-6.3.4-3.3.3-4.8-.4-6.2-.7-1.5-.7-1.7-.3-5 .3-2.2.2-4.2-.2-4.2l-1.4 1c-2.4 2.2-2.9 2.6-3.2 2.3-.3-.3-1-3.5-.8-3.8.3-.5.7-.2 1 .7.5 1.1 1 1.2 2.2.2l1.8-1.6c1-.8 1-.9.8-2.1-.1-.7-.3-1.5-.5-1.8-.3-.5 0-2.6.5-3.8.4-1 .5-1.4 0-1.4l-.5.8c-.2.6-.4.8-.8.8s-1 .4-1.6 1c-1.5 1.8-2.2 1.4-1-.6.6-1.3.7-2.5.1-2.7-.1 0-.3.5-.4 1.3-.1 1-.4 1.6-.9 2-.3.3-.6.7-.6.9 0 .1-.3.4-.7.5-1.2.6-1.4 2-1.4 10a99.2 99.2 0 0 0 .5 11.9c0 4.5 0 6.8.3 7 .5.3 1.7 0 3-.6zm1.6-11.8-.1-.7c0-.6-.4-.6-1.1 0-.3.4-.7.6-1 .6-.1 0-.3-.2-.3-.5 0-.4-.2-.6-.7-.6-1.2 0-1.1-.7.3-2 1.4-1.2 2.2-1.4 2-.4 0 .6 0 .6 1 .5.8 0 1 0 1 .6.2.3.2 1 .1 1.6 0 .8-.2 1-.5 1l-.7-.1zm.2-12c-.2 0-.5-.3-.6-.6-.3-.4-.2-.6.1-1 .7-.7 1-.7 1.4.1.5 1 0 1.9-1 1.6zm-3.9-.6c-.4-.3-.4-.6-.3-1 .2-1 1-1.2 1.6-.5 1 1.2 0 2.4-1.3 1.5zm47.4 4.4-.1.4c0 .5 0 .7.1.5v-1zm5.3-2.3c.3-.3.2-.6 0-1.1l-.5-1.1c0-.2-.2-.4-.4-.5-.5-.2-.4-.2-.9.6-.2.6-.2.7.3 1.2l.5 1c0 .4.7.3 1-.1zm3.3-2.8-.6-.6c-.5 0-1.3.9-1.3 1.4 0 .6.1.6.8.2.4-.2.6-.1.8.3.4.5.4.5.5-.1 0-.4 0-1-.2-1.2zm-4.2 51.1-5.4-.3c-4-.1-4.9-.2-4.9-.6 0-.4 3-.5 10.7-.3 3.4.1 4.3.4 3.7 1-.3.4-2.7.5-4 .2zm4.4-5.8c-.5-.5-.2-.6 5.8-.9 5.3-.2 6.9-.1 7 .4 0 .4-2 .6-7.6.8-4 0-5 0-5.2-.3zm-8.3-3c-.7-.6 1.7-1.2 8.6-1.9l4.6-.5c5-.7 12.3-1.2 13-1 .4.2.6.4.6.6 0 .2-.8.4-2.8.5a399.3 399.3 0 0 0-24 2.4zm.1-4.6c0-.3.5-.4 2-.6 2.6-.2 10.1-.2 10.4 0 .5.6-.9.7-6.4.9-5.1 0-6 0-6-.3zm3.2-4.6c-.3 0-.5-.3-.5-.6 0-.5.2-.5 7.7-.4l8 .3c.2 0 .4.3.4.5 0 .4-.8.4-7.5.4l-8-.2zM13.3 99c-.1-.2 0-.3.1-.4.3-.2.8 0 .8.4 0 .3-.7.3-1 0zm98-2.6c-.5-.1-.5-.8-.5-11.2.1-9.4.2-11 .5-11 .8 0 1 2.9 1 12.3l.1 9.4c0 .4-.6.6-1.2.5zm97.4-15.5c-.7-.7-.7-1-.2-1.2.6-.2 1.2.4 1.2 1.2 0 .7-.3.8-1 0zm-76.5-2.6c-.6-1 0-1.7 1.8-2.2 2.2-.6 2.4.5.4 2-1.1.9-1.8 1-2.2.2zm74.8-.9-.4-1c0-.3 1.3-.8 2-.6.5.1.6.3.5.8-.1.4 0 .7.1.7.2 0 .2 0 0 .4-.5.6-1.7.4-2.2-.3zM133.6 75c-.2-.6.2-.9 1.6-1 1-.2 1.2-.2 1.2.2 0 .5-.1.6-1.5 1-1 .1-1.2 0-1.3-.2zm73-.1c-.6-.3-.8-1-.2-1 .7 0 1.2.2 1.2.6 0 .5-.3.6-1 .4zM206 73l.4-.2c.3 0 .4 0 .3.2-.1.2-.3.3-.4.3-.2 0-.3-.1-.3-.3zm-71.9-.6c.1-.6 1.3-1 2.3-.8.9.2.7.8-.4 1.1-1.6.5-2 .4-1.9-.3zm71-1.9c-.2-.5 0-1 .7-1 .8.1 1.5.5 1.1.8-.5.5-1.7.6-1.8.2zm-72-.5c-.3-.3-.3-.4 0-.7.5-.3 1-.1 1 .4s-.7.7-1 .3zm9-1.5c0-2 .6-3.2 1.9-3.8.5-.2 1-.7 1.2-1 .1-.2.7-.6 1.2-.8.5-.1 1-.4 1-.6V42l-.6-.2-3 .3c-2.3.3-3.8.2-3.8-.5 0-.3.4-.4 1.8-.4l3.2-.3c.8-.2 1.7-.2 2-.1.5 0 .6 0 .5-1 0-.5-.1-1.4-.3-2-.5-1.3-.2-1.2-10.4-1.3-4.3 0-8-.1-8.2-.2-.4-.3-.5-1-.2-1.3 0-.1.6 0 1 .2.8.3 1.4.3 3.6.1a57 57 0 0 1 12.5 0c2.7.7 3 1 3.2 3l.6 17.4c0 2.3.1 3.3.4 3.5.4.4 3 .3 12.3-.2 5.7-.4 17.6-.6 26.2-.5 7 0 9.1 0 9.6-.2.5-.3.7-.7 1-2l.1-1.5a79.9 79.9 0 0 0 1-17.2c-.2-1.2.3-1.6 1-.9.4.4.5 1.3.4 8.4 0 7 0 8-.5 8.6-.7 1-.6 3.6.1 4.6.4.4.6.9.6 1 0 .3-8.2.6-14.7.6-6.8-.1-6.8-.1-14.1.1a54 54 0 0 0-11.7.7c-.7.2-2.8.3-6.2.3h-5.1v.8c0 1.2-.2 1.4-2.4 2.5-1 .5-2.3 1.3-2.8 1.8-.8.8-1 1-.8 2 .2 1.2-.2 2.1-1 2.1-.6 0-.6 0-.6-1.6zm60.8-.2c-.7-.3-.8-1.6-.2-2 1-.8 2.5.9 1.7 1.8-.3.5-.6.5-1.5.2zm-2-3.4c-.7-.2-.4-1 .4-1 .6-.2 1.8.5 1.5.7-.2.3-1.4.4-1.9.3zm6.4-1.7v-3.3c.2-1.4.3-4.2.3-6.2 0-4.7 1-14.9 1.5-15 .4-.1.4 1.3.1 4.7-.1 1.2-.4 6-.5 10.7l-.4 9c-.1.4-.3.7-.5.7s-.5-.3-.5-.6zm-3 0v-4.6l.2-7.4c0-2.8 0-3.1.4-3.2.7-.2.9-2 .9-7.6v-4l-1-.3c-1.1-.5-1-1 .2-1 .8 0 .9-.1 1-1 0-1.3-.4-1.6-2.7-1.5-1.9 0-1.9 0-2 .9-.3 1.3-.8 2-1.5 2-.5 0-.7-.2-.7-.8 0-.4 0-.9-.2-1-.5-.4-.1-.9.7-.9h.6l-.1-6.4a43.8 43.8 0 0 1 .5-10.9c0-2 0-2.3.4-2.3 1 0 1.1 1 1 6.1a251.5 251.5 0 0 1-.5 11l2.4.2h2.3l.1-2c0-1.1.2-2.1.3-2.2.4-.4.7.5.6 2.3 0 1.7 0 1.9.6 2.3.8.5.8 1.2.1 1-.4-.2-.5 0-.7 1-.3 2.7-.7 13-.8 19.4 0 6.2-.1 7-.5 7.5-.3.3-.5 1.2-.6 2-.2 1.5-.6 2-1 1.4zm-5-.9c-.2-.3 0-.5.1-.7.6-.3 2.3-.6 2.6-.4.6.4.3 1-.7 1l-1.4.4c-.3 0-.6 0-.7-.3zM133 59.1c-.2-.6.6-1.2 1.5-1.1 1 .1 1 .7-.1 1.1-1.2.5-1.2.5-1.4 0zm-1.6-4c-.9-.3-1.2-1-.5-1.2.6-.2 2 .5 2 1-.2.6-.5.7-1.5.2zm10 .2c0-.2 0-.4.2-.6.4-.4 1.2-.1 1.3.4 0 .3 0 .5-.6.5-.3 0-.7-.2-.8-.3zm-7.3-2.3c0-.6.4-1.2.6-1.5.5-.6 2.5-.9 3.4-.5 1 .5.6 1-.7 1-1.4-.2-1.6 0-2 1-.2.6-.5.9-.9 1-.6 0-.6 0-.4-1zm-6.6.1-.2-.7c0-.2-.3-.2-.8.2-.8.7-1.4.7-1.6.3-.2-.6 0-1 .9-1.4 1-.6 1.8-.5 1.8 0s.1.5 1 .4a4 4 0 0 0 1.3-.6c1.2-1 2-.7 1.4.4-.6 1.1-3.6 2.2-3.8 1.4zm-3-2c-.3-.3 0-.9 1-2 .6-.7 1-1.4 1-1.6 0-.5.8-.7 1.1-.2.3.3.3.5 0 1.2-.9 1.7-2.5 3.2-3 2.6zm-2-.7c-.3-.9.2-2 .8-2 .6 0 .4 2.5-.2 2.6-.4 0-.6-.1-.7-.6zm18.7.4c-.4 0-.8-.3-.8-.5 0-.4.3-.4 2.3-.4 1.6 0 2.5 0 2.7.3.3.3.3.4 0 .6-.4.2-3 .3-4.2 0zm-6-1c-.5-.5-.5-1.5 0-1.5s1 1.4.7 1.7c-.2.2-.4.1-.7-.1zM131 48c-.4-.4-.2-1.5.3-1.6.3-.1.5-.4.6-1 .1-1 .8-1.2 1.4-.3.4.6.3 1.5-.2 1.4-.7 0-1 0-1 .5 0 .8-.7 1.4-1.1 1zm-110.7-.7c-.4-.7.8-1 5.2-1.1l5.7-.3a786.8 786.8 0 0 1 29.5-1c1.3 0 1.7 0 2 .4.6 1-.1 1.2-10.2 1.2-8.8 0-13.7.3-22.6.9-5.2.3-9.4.3-9.6 0zm120-1c-.3 0-.5-.2-.5-.5 0-.4.4-.4 3-.4 3 0 3.2 0 3.2.5s-.2.5-2.6.6l-3.2-.1zm-122.8-.2c-.3-.3.1-.9.6-.9.4 0 .5.2.4.5l-.2.5c0 .2-.6.1-.8 0zm-.8-1.8c-1-.2-1.4-.8-1-1.3.2-.2 1.6-.4 5.3-.5 6.5-.2 14.7-.8 21.5-1.6 7-.8 7.5-.8 8.2 0 .6.5.6.5 3.6.3a37 37 0 0 1 10.2.3c1 .8.2 1-6.1 1a90.6 90.6 0 0 0-11.7.8c-1 .1-1.2.1-1.3-.4-.2-.8.4-.8-12.5.5-5.9.6-14.8 1-16.2.9zm120.8-.2c-.5-.5.1-1 1.2-1 1 0 1.8.6 1.5 1-.2.5-2.4.4-2.7 0zm-15.4-1c-.7-1-.7-2-.2-2 .9 0 1.8 2.5 1 2.7-.2.1-.5-.2-.8-.7zm32.9-.6-.4-.5c0-.3 1.1-.4 5-.6 6.4-.2 7.5-.1 7.6.5.1.3 0 .5-.5.6-1 .2-11.3.2-11.7 0zM7 41.2c-.2-.2-.2-.5-.1-.5 0-.1-.1-.5-.4-.8-1-1-.3-1.3 2.7-1.5 2.5-.1 3-.3 2.6-1-.4-.3.4-4.4 1-5.3.3-.6.3-.7-.2-1.1-.7-.6-.7-.8-.2-1.4.3-.3.3-.8.1-2.8-.4-3.4-.3-6 .2-7.3.5-1.4.7-1.6 1.3-1.3.4.3.5.7.4 4 0 4 .1 5.6.7 5.8.3 0 .3-.5.2-2.5-.3-4.8-.4-9.8-.2-10.7.1-.6.4-1 .7-1 1-.2 1.1.5 1 5 0 2.5 0 5.3.2 6.6.2 1.2.3 4 .3 6l.1 5 .2 1.4h1.5c1.3 0 1.4 0 1.7.8.2.6.5.8.9.8.8 0 1.5.6 1.4 1.2-.1.5-.4.5-2.7.6-1.3 0-4.8 0-7.8.2-4.5.2-5.3.2-5.6-.2zm6.4-1.4a1 1 0 0 0-.7 0l.3.1c.4 0 .6 0 .4-.1zm2.2-5.4-.1-3.7a12 12 0 0 0-.5 3c-.2 2.9-.3 3-1 3.7l-.8.7h2.4v-3.7zm114 6.8c-.3-.2-.4-.5-.4-.8 0-.6-.5-.6-1.5 0-.4.4-1 .6-1.2.6-.5 0-.8-.7-.5-1.3.2-.2.1-.6-.1-1.1-.6-1 .2-3.1 1.1-3.1.3 0 .4.2.3.8-.1.7 0 1 .5 1.5.6.6.9.7 1.5.5 1-.3 1.5 0 1.5.7 0 1.1.5 1 1.7-.2l1.1-1.2h2.5c2.7 0 3.6.3 3.3 1.1-.2.4-.5.4-2.4.3-2.2-.2-2.2-.2-2.2.4 0 .3 0 .8.2 1v.9c-.3.4-1 .1-1.2-.6-.2-.6-.4-.6-2 .2-1.4.7-1.8.8-2.3.3zM24 40c-.4-.6.6-.9 4-1A685.3 685.3 0 0 0 63 37.8c.7.1 1.3 1 1 1.4l-3.6.2-7.6.4c-4.8.3-28.4.5-28.6.2zm130.5-1.7c-.3-.3-.2-.8.3-1 1.6-.7 28.5-1.6 30.6-1.1.5.1.7.3.6.6 0 .4-1 .5-12.2.6a130 130 0 0 0-19.3.9zm-31-1.6c-.2-.2-.2-1.2 0-1.8.2-.5 1.2-.6 1.2 0 .2 1.3-.6 2.4-1.1 1.8zm-99.5-.5c-.8-.2-1.3-.4-1.4-.7-.1-.7.4-.8 2.5-.3 1.5.4 2 .6 2 1 0 .5-1 .5-3 0zm-16.7 0c-.5-.4-.3-1.3.3-1.4.7 0 1.6.6 1.4 1.1-.2.5-1.2.6-1.7.2zm141.2-1c-.2-.6-.4-.7-1.3-.7-.7 0-1.1-.1-1.2-.4-.3-.6 0-.8 1.3-.7 1 0 1 0 .6-.4a3 3 0 0 0-1.6-.4c-.7 0-1.2-.1-1.4-.4-.3-.4-.4-.4-1.9 0a55 55 0 0 1-10.2.7l-10.2.4c-2 .1-2.6-.1-2.3-.8.1-.3.5-.4 1.7-.4.9 0 1.7-.1 1.9-.3.2-.3.4-.3.8 0 .5.3 3.7.4 5.3.1l1-.1v-8c-.1-5.6-.2-8-.4-8.1-.2-.2-1.4-.4-2.9-.5h-2.5v13.6c0 2.2-.2 3-.8 2.3-.2-.2-.5-3.6-.4-5.6v-5.1c.1-4.3.1-4.7-.3-4.9l-1-.3c-.2-.2-.8-.3-1.3-.3-.9 0-1.7-.6-1.2-.9l2-.3 2-.2v-1.1c0-1 0-1.2-.5-1-.8.5-1 0-1-2 0-1.4 0-2 .5-2.8.8-1.5 1.5-1.4 2.2.1.7 1.4.8 2.2.3 2.6-.3.2-.4 1-.4 2.4v2l1.4.2c.7.2 1.8.2 2.5.2l1.2-.1v-1.4c.1-1.3.1-1.4-.5-1.7-.7-.2-.7-.3-.6-1.5.3-1.4 1.7-5.1 2-5.4.7-.4 1.1.4 1 1.6-.2 1-.1 1.4.5 2.2.8 1.1.5 1.6-.7.8-.8-.6-1.4-.6-.8 0l.4 2.7c0 1.2.2 2.4.3 2.5.2.4 4.2.4 4.6 0 .6-.7.2-4.2-.6-4.4-.7-.2-.6-1.3.4-3C137.6 4 138.2 4 139 6l.4 1.9c0 .6-.7.6-.9 0 0-.4-.3-.6-.4-.6-.4 0 0 6 .4 6.8.2.5.2.8-.1 1.2-.3.4-.4 2.3-.6 6.3-.1 3.1-.3 6.6-.5 7.6-.2 1.6-.2 2 0 2.2.5.3 2.4.3 2.8 0 .6-.3 1.2-3.6 1.5-7.8l.4-6.3c.1-1.8 0-2-.4-2.5-.7-.6-.7-1.1-.1-1.3.7-.3.8-.6.7-2.6-.2-2.8-.3-3.4-1-3.9l-.5-.4 1.1-2.3 1.5-2.6c.8-.6 1.1 0 1.3 2l.2 2.6c0 .4.2.8.4 1 .2.3.3 2.3.4 7 0 4.3.1 6.7.3 6.8.2.2.1.4-.2.6-.4.3-.5 1-.6 3.9-.1 2.3 0 3.8.1 4.3.3.6.4.7 1.6.6.8 0 1.3.1 1.3.3 0 .2.4.6.8 1 .9.7 1.2 1.5 1 2.8-.2 1.2-.8 1.4-1.2.4zm-12.8-3.7c.3-.3.7-7 .8-12.5v-3.4l-2-.2c-1.2-.2-2-.2-2.2 0-.2.2-.3 6.2-.2 14.1v2.4h1.7c1 0 1.8-.2 2-.4zm8-3 .3-6 .3-5.7c0-1.7 0-1.9-.5-1.9-.7 0-.8.3-1.4 9.8-.1 2.6-.4 5-.5 5.3-.4.8 0 1 1 .8.7-.2.7-.2.8-2.3zm.2-19.8c-.8-1.2-1-.8-.8 2 0 2 .2 2.5.6 2.8.4.4.4.2.5-1.9 0-1.7 0-2.4-.3-2.9zm-96.3 26c-.4-.5-.5-.6 0-.9.5-.4 5-.7 12.2-.7h5.8v.5c.1.6 0 .6-1.4.6a65.7 65.7 0 0 1-9.8.7c-5.9.2-6.4.2-6.8-.3zm135.2 0h-6c-4 0-5.5 0-5.7-.2-.6-1 1.6-1.3 8.7-1 4 0 5 .1 5.2.5.2.2.2.4 0 .6-.3.3-1.7.4-2.2.2zM152 34c0-.7 1-1 4.8-1l6.5-.3c2.2-.1 3-.1 3.3.2.4.3.5.5.3.7-.1.1-3.3.3-7 .4-3.7 0-7 .2-7.4.3-.4.1-.5 0-.5-.3zm-120.7-.7c-2.6-.3-5.5-1.5-6-2.6A71.7 71.7 0 0 1 30 9.3c1-.4 1 .5-.4 5.7a212.6 212.6 0 0 0-2 8.8c-.9 4.8-1 5.4-.8 5.6.2.4 3.3.9 3.6.6.7-.7 1.7-7.3 2.6-16.2.2-2.8.6-5.3.8-5.4.8-.8 1.8 1.3 1.3 2.7l-.9 6.1A147 147 0 0 1 32.3 30a43 43 0 0 0 10.5 0c.8-.3.9-1.7.3-4.8A71.5 71.5 0 0 1 41.6 15a75 75 0 0 1-.5-5.4c0-2.1 0-2.2.5-2.3.9-.1 1.1.6 1.5 3.6l.5 5.2.4 2.7h1.2l6-.3c5.3-.3 6.2-.1 6 .7 0 .6 0 .6-5.2.7l-6.5.2-1.5.2.2 1.8.5 3.6c.1 1 .2 2.3.1 3l-.1 1.3 1-.1 2.2-.2c1-.1 1.1 0 1.2.7 0 .5-.1 1-.3 1.1-.5.5-3.8 1-9 1.7-4.6.5-6 .6-8.4.2zm-8.5-1.5c-2-.5-2.3-.7-2.3-1.3 0-.6 1.2-.7 3 0 1.5.4 1.7.6 1.7 1-.1.8-.3.8-2.4.3zM163.2 27l-3.6-.3c-1.6 0-2 0-2.2-.4l.1-.6c.4-.3 7.2.1 7.6.5.6.6-.4 1-2 .8zM46 24.2c-1-.7.7-1 7.3-1 6.6-.2 8.2 0 8 .7-.2.4-14.7.7-15.3.3zm105-1.8c0-.7 1-1 3.7-1 2.1 0 2.6.1 2.6.4 0 .4-.7.6-4.1.8-1.9.2-2.2.2-2.2-.2zm13.2.2c-.4-.4.4-.9 1.3-.9a3 3 0 0 0 1.5-.4c.4-.3.4-.3-.6-.7l-3-.9c-3.4-.7-4-1-3.9-1.3.3-.6 3.7 0 8 1.4 3.5 1.2 3.7 1.3 3.5 1.7-.2.6-6.4 1.6-6.8 1.1zM52.7 21.5c-6.2 0-7.5-.1-7.8-.5-.3-.3-.3-.4 0-.5.6-.2 11.8-.3 14-.2 1.8.1 2.1.2 2.1.6 0 .4-.7 1-.8.7l-7.5-.1zm122.3-.2c-.3-.7.4-.8 4.3-1 3 0 4-.2 4.8-.6.8-.4 1.1-.4 1.3-.2.5.5 0 1-2 1.6-1.2.5-2 .6-4.9.5-2.5 0-3.4 0-3.5-.3zm-7-6c-2.4-.4-3.8-.8-3.8-1.2l.4-.7c.3-.4 1-.6 2.8-.7 1.7-.2 2.5-.2 2.7 0 .5.4-.3.8-1.8.8-2.6 0-2.4.4.5.7l3.7.4c1.2 0 1.8.2 1.8.6 0 .5-2.3.5-6.3 0zm-14-.9c-.9-.6-.1-.9 2.5-.7 2 .1 2.4.2 2.4.6-.1.6-4.1.7-4.9.1zm7-2a12 12 0 0 0-2.6-.2c-2 0-2.6-.1-2.1-.7.8-1 7.6 0 7 1-.2.2-1 .2-2.3 0zM54 11.2c-.5-1.2.1-1.9 1.4-1.6 1 .3 1.1 1 .3 1.7-1 .8-1.4.8-1.7-.1zm117.8.4c-.2-.4.3-.7 1.6-1 1.1 0 1.2 0 1.2.4s-.2.6-1 .7c-1.3.3-1.5.2-1.8 0zm-7.3-.2c-.5-.1-.8-.3-.8-.6 0-.4 1.8-.5 4.7-.2 1.7.2 2 .4 1.5.8-.4.2-4 .2-5.4 0zM200 11c-.3-.4 0-1.2.7-1.4.5-.1.5-.2.1-.8-.6-.8-.9-4-.4-4.5.2-.3.3-.8.3-1.3 0-1 .9-1.6 1.4-.9.4.6.5 3.4.2 6.6-.1 1.6-.2 1.8-1 2.2-.9.4-1.1.5-1.3.1zm-45.3-3c-.4-.5.7-.9 3.4-1 2-.2 2.7-.2 2.9 0 .4.8-.4 1-3.3 1.2-2 .1-2.9 0-3-.1zm14.2-.3c0-.5 4.6-3.2 5-2.9.5.3.2.9-.7 1.4-3.6 2-4.3 2.2-4.3 1.5z"/>
</svg>
