<?xml version="1.0" encoding="utf-8"?>
<svg xmlns="http://www.w3.org/2000/svg" xmlns:svg="http://www.w3.org/2000/svg" version="1.1" viewBox="0 0 425 310">
  <title>Peter and Benjamin rummage through a barrel, the mice inspect some biscuits, Squirrel Nutkin opens one of the drawers, Jeremy Fisher walks around holding a parcel, and Mrs. Tiggy-winkle looks at a plate of eggs.</title>
  <path d="M231.4 308.7c-.5-.5-.5-.6-.2-1.3.5-.9 2.6-1.7 4.5-1.7 1.4 0 2 .5 1.6 1.6-.1.6-.3.7-1.3.9-.7 0-1.8.3-2.6.5-1.3.4-1.4.4-2 0zm19.4-2c-.4-.5-.4-1-.1-4.8.1-2.3.1-3.1-.1-3.4-.4-.5-1.9-.5-3.7-.1a24.5 24.5 0 0 1-4.5.6l-6.7.8c-2.2.2-5.5.7-6.7 1-2.8.6-3 .6-3.7 0-.7-.7-.7-.7-2-.2l-2.2.4a66.4 66.4 0 0 1-9.6 1.8c-3.2.7-6.8 1-10 1.1-3.4.1-4.1 0-4.1-1s.8-1.2 3.8-1.4a98 98 0 0 0 17.5-2.3l13.2-2.2a6 6 0 0 1 2.8 0c.5.2 1.4.3 2 .3a48.9 48.9 0 0 0 9.5-1.6c.9 0 3-.6 3.5-.9.6-.4.3-.7-1.8-1.8-1.8-.9-2.4-1-3.2-.9-.8.1-1.2 0-2.4-.9a15 15 0 0 0-2.5-1.4l-2.2-1a16 16 0 0 0-2.1-1.1l-2.3-1.4c-.6-.5-1.3-1-1.6-1-.3 0-.7 0-.7-.2l-1-.4c-.5 0-2-.7-3.3-1.3-2-1-2.8-1.3-4.6-1.5a13 13 0 0 1-3-.6c-.8-.4-1.2-.2-1.3.5 0 .3-1.7 1-2.5 1-.9 0-3 1-3 1.3 0 .2.5.9 1 1.5 1 1 1.2 1 2.5 1.2 1 0 1.4.2 1.6.5.5.8-.3 1.2-2.3 1.4-6.4.3-8.4.6-8.3 1.3 0 1-.2 1.5-1.1 2.6-1.1 1.2-1.4 2-.7 2 1.2 0 4-1.9 5-3.3.3-.7.7-.9 1.3-.9.6 0 .7.1.7.8 0 .9-.4 1.8-.9 2.2h.3l2.2-.3a31 31 0 0 0 7.9-2c.8-.4 2.4 0 2.7.7v1c0 .3.3.3 1.3 0 1-.2.6-2.3-.7-2.9-.9-.4-1.3-.4-2 .1-.6.4-.9.4-1.4.2-.8-.4-.8-.7-.2-1.7.7-1 1.8-1.8 2.7-1.8.4 0 1.7.5 3 1 1.1.6 2.3 1.1 2.5 1.1.5 0 1.7.4 3.3 1.2l2.7 1c2.1.7 5.5 2.4 5.8 3 .2.2.2.5 0 .8-.3.5-.6.6-6.6.4-3.2-.1-8.6.4-11.5 1.1-1.6.4-5.7 1-10 1.5a142.5 142.5 0 0 0-10.2 1.4c-3 .3-3.7.4-5.1 1-1.2.6-2.8.7-3.1.3-.1-.2-.8-.3-1.6-.3-1.7 0-2.4-.5-2.1-1.4.1-.8 1.5-1.6 2.2-1.4l2.8-.1 2.4-.2h-2c-3.2-.1-3.5-1-1-3.2 1.3-1.2 1.7-1.4 2-1.2.3.2.4.6.4 1.4 0 1 0 1 .8 1 1.5 0 2.7-.8 4.7-3 2.6-2.7 2.5-2.8-3.6-2-4 .6-4.9.7-5 .2-.3-.6.3-1.2 1.5-1.4.8 0 1.5-.5 2.6-1.6 1.2-1 1.8-1.4 2.4-1.4 1 0 2-.4 2.2-1 .5-1.3 1.4-2.7 2-2.9.8-.2 1.3.5 1.1 1.4-.1.7.4 1 1 .4l1.3-.6a96.3 96.3 0 0 0 7.4-2.9c.6 0 .6-.1.2-.7-.5-.6-1.5-.8-2.6-.3-.5.2-.8.1-1.1-.2-.6-.6-.3-1.6.7-2.6.8-.7.8-.7.3-1a2 2 0 0 0-1-.4c-.7 0-2.4 1-2.5 1.6-.2.6-.3.7-2.2 1.5-.8.4-1.5.5-2 .4-.5-.1-1.1 0-1.9.4l-1.3.6-1.4.5-2.3.9c-1.7.5-4.9 1.8-5.2 2l-1.7.4c-1.7.2-3.3.8-4.2 1.5l-2.1 1-2 1-1.5.7-2.3 1.2c-.5.4-1.6 1-2.4 1.2a8 8 0 0 0-2.1 1 1913 1913 0 0 0-7 3.6c-1 .5-2.2.3-2.3-.3-.3-1.4 6.7-6 12.1-8 2-.8 4.4-3 4.7-4.3.2-1 .4-1.2 1.1-1 .7.2 1 1.3.6 2.3-.2.4-.3.8-.2 1 .2.1 3-1.2 3.3-1.6l.4-1c.3-.8 2.4-4.2 2.9-4.4.4-.3 1 .6 1 1.4 0 .8.3.8 1.3 0 .5-.6.8-1 .8-1.5 0-.9.7-1.7 1.3-1.6.2 0 .5.5.6 1 .2.8.3.9 1.2.7.6-.1 1.1-.4 1.3-.6l.8-1.2c.4-.6.7-.9 1.4-1 .8 0 .9 0 .3-.4-.7-.5-.7-1.4 0-2.1.5-.5.6-.8.4-1.4-.4-1-1-1-2.3-.2-.8.6-1 .7-1.5.4-.8-.4-1.1-.3-1.1.3 0 1-.5 1.6-1.6 1.6-1 0-3.7.9-5.2 1.7l-3 1.4c-1.3.6-3 1.5-3.6 2l-3.9 2.3a29.2 29.2 0 0 1-7.5 3.9c-1.6.4-2.5.1-2.5-.8s.5-1.3 1.7-1.3c.5 0 1.3 0 1.7-.3l1.3-.5c1.5-.6 4.1-2 5.5-2.9l3.5-2.2v-.3l-2.5.2c-4.6.5-6.4.7-12.1 1-5.4.3-10.6.7-13.3 1l-1.2.1.2 1.2c.2 2-1 2.6-2.3 1.2-.5-.6-1-.8-1.7-.9h-1l-.2 1.3c0 1-.3 1.6-.7 2-1 1.2-2.2.8-2.2-.6 0-1.1-.7-1.8-2.4-2-7.7-1.6-8.4-1.7-10.4-1.4l-1.5.3.8.3c.8.4 1.1 1 1 1.7-.3.6-1.7 1.1-3.5 1.1a21 21 0 0 0-6.6 1c-.2.3 0 .5.3.8.4.3 1 .3 3 .2 3.3-.3 3.8-.2 4.2.3.3.4.3.6 0 1-.3.5-.8.6-2.6.7-2 0-2.4.2-3.1.8-.8.7-.9.7-2 .4a44 44 0 0 1-6.6-2.7c-.5-.2-1.2-.4-1.5-.3-.5 0-.4.2 1 1.9 4 4.3 4.9 5.8 4 6.7-.6.5-1 .4-2.4-1a90.5 90.5 0 0 0-4.3-3.8c-1-.2-1.2-.4-1.2-1 0-1-2.6-3.2-4.4-4-2-.6-2.4-.5-2.1.8a85 85 0 0 1 0 12.1c-.5.8-1.5.9-2 .2-.4-.4-.5-1.2-.5-3.6 0-2.8-.5-8.7-1-11.6-.2-1.4.5-3 1.6-3.6.6-.3 2-.4 7.3-.4 3.6 0 7.7-.1 9.3-.3 2.7-.3 2.8-.3 2.7-1a22 22 0 0 1 0-6.1c.7-5.2.6-6.3-.9-7.8-1.8-1.9-6.5-3.4-11.8-3.8a25.1 25.1 0 0 0-7.3.3c-1.6.1-1.9 0-2.2-.4-.2-.3-.3-.7-.1-.9.2-.4 6-1.6 7.9-1.6 5.9 0 12.7 1.8 15 4.1 1.7 1.7 2 3 2 7 .1 2 0 4.2-.1 5-.3 1.4 0 3.8.3 3.6l.4-1.2a9 9 0 0 1 4.2-5.8l1-.6 3.2-1.7c1.9-1 2.4-1.2 3.9-1.2 1.8 0 2.1-.2 2.8-2.5.3-.8.8-1.7 1.2-2 .7-.7 3.5-1.8 4.5-1.8.6 0 1.7 1 1.9 1.6.1.3.4.2 1.4-.3 1.4-.7 3.3-.9 3.9-.3.5.5.7 2.5.4 4.8l-.3 4c0 1-.2 2.1-.4 2.6l-.2 1c.1.1.8 0 1.4-.4 3.1-1.5 5.5-2 6.2-1.2.5.6.1 1.2-.9 1.2s-3.1.7-5 1.7c-1.2.7-2.2 2.1-1.8 2.6l5-.1a19514 19514 0 0 1 19.9-1.4 17 17 0 0 1 6.4 0c1 .3 1.1.3 3.7-1 2.7-1.4 2.7-1.5 3-2.7.2-.7.4-1.5.3-1.6 0-.2-.9-.6-1.7-.8-2-.6-2.3-1-2.5-3.8a6.8 6.8 0 0 0-.7-2.8c-.4-.7-.5-1-.3-1.4.2-.3.4-2.5.5-5v-4.5h-.8c-.8 0-1-.2-1.4-1l-1-1.6c-.2-.3-.6-1.1-.8-1.9-.2-.7-.5-1.7-.8-2.2-.3-.5-.5-1.1-.5-1.4 0-.3 0-.6-.2-.6-.2-.1-.3-.5-.3-.8 0-1-1.7-4-2.4-4.4-.5-.2-1.7-.3-4.7-.2l-5.9.2c-1.7 0-1.7 0-1.6.6.2 1-.6 1.2-2.9 1-2.2-.3-14.4 0-18 .2a224.3 224.3 0 0 1-32.1-1.1c-3.5-.1-6.2-.6-6.7-1-.5-.6-.2-1.7.5-2a171.4 171.4 0 0 0 15.7 1.7c8.6.7 24.7.9 34.7.5l6.5-.3v-.6c0-.8.7-1.1 2.8-1l6.6-.2c4.2-.2 4.9-.3 5-.7.2-.7-.1-1.3-.9-1.5-.3-.1-3.4-.2-6.8-.1-15.3 0-14.6 0-15.4-.4-.3-.2-.6-.6-.6-.8 0-.5-.3-.7-2.7-1-3.4-.7-8.8-1-22-1.1-11-.1-12-.1-11.7.3.8.7 1 1.3.6 1.8-.3.4-.8.5-2.9.5-3.2 0-4-.2-3.8-1 .1-.8-.2-1-4.3-1.2l-6.2-.5a204 204 0 0 0-11.6-.5 649.5 649.5 0 0 1-23.9-.5 233.4 233.4 0 0 1-14.2-.4 216.4 216.4 0 0 1-26.2-1c-2 0-2.6-.4-2.6-1.5 0-.8 1.3-1.7 2.4-1.7l2.7.5c2.6.7 5.8 1.1 9 1.2 2.6 0 2.8 0 3.8-.7s1.2-.8 3.3-.6l3.1.4c.6.1 3.3.3 6.1.3 2.9 0 6.6.1 8.2.4 1.7.2 6.1.4 9.8.5l7.7.3a830.2 830.2 0 0 0 80.4.2c1.2-.5 4.2-.5 5 0 .3.2.6.7.6 1 .1.8 1.7 1 5.1.9a1004.8 1004.8 0 0 1 10-.7c.2-.1-.4-1-1.2-1.9-.8-1-1.8-2.2-2-2.8a8.4 8.4 0 0 0-1.9-2.2c-1.6-1.3-2.2-2.5-2.6-4.8-.2-1.4-.4-2.1-1-2.9-.8-1-.9-1.1-.9-3.4 0-1.9 0-2.7-.6-4.1-.4-1-.8-2.6-1-3.4 0-.9-.3-2.1-.5-2.8-.4-1.6-.4-4 .1-6.4.6-2.6.8-2.9 2.5-4.4 1-.9 2-1.4 3.6-2 2.7-.9 3.4-.9 5 .1.7.4 1.6.8 2 .8.5 0 .5 0 .5-1.8 0-1.4.1-2 .6-3a6 6 0 0 0 .5-1.5c0-.2.7-1 1.6-1.9a10 10 0 0 0 2.9-4 5 5 0 0 1 .8-1.4c.8-.9 2-3.3 3.4-6.7l1-2.5c.8-2 1.7-4.6 2.4-7 .2-.8.9-2.7 1.5-4a42 42 0 0 0 2.3-7.4c.6-2.2.7-3 .2-5.1a34.2 34.2 0 0 1 3-15.9c.3-1 1-2.5 1.6-3.4 1.3-2.4 2.5-5 2.9-6.3.3-1 .2-1.2-.4-2.6-.4-.8-.7-2-.7-2.5s-.3-1.4-.6-2a5 5 0 0 1-.7-2v-.9l-.4.8c-1.2 2.1-1.5 3-1.7 4.5a4.4 4.4 0 0 1-1.3 3c-.7.8-1.5 1.4-2 1.5-1.1.4-1 1 .2 1.3.5 0 1.2.5 1.5.8 1 1 .7 3-.5 3-.2 0-.8-.3-1.3-.8l-1-.8-.1 1c-.2 1.3-.7 1.8-1.7 1.7-.5-.1-1-.3-1.1-.7-.6-1.2-.8-1.3-1.6-.6-.8.6-1 .6-2 .1-.7-.3-1.2-.4-2.6-.1-1 .1-2.5.2-3.4.1l-4.2-.2c-1.7-.1-2.9-.4-3.6-.7-.6-.3-1.3-.5-1.6-.5-.3 0-.7-.1-.8-.3l-1.2-.4c-1-.2-1-.1-1.2.6-.1.7-.3.8-1.3 1h-3l-3.5-.3c-4.1-.1-9.4-.7-10-1-.7-.5-.8-1-.2-1.5.4-.3 1-.3 3.7 0 4.2.4 9.9.8 10.5.6 1.2-.3-.4-1.4-2-1.4-.7 0-1.7-.2-2.3-.4l-2-.4a5 5 0 0 1-1.8-.5c-1-.6-1.2-.6-2.7-.3l-2.7.3c-.6 0-1.8.2-2.6.5l-2.7 1-1.8.8c-.4.4-1.3.6-2.6.7-2.3.2-2.5.5-2.5 2.4 0 1 0 1.2.5 1.1 1-.3 7-.4 10.2-.2a589.3 589.3 0 0 0 25.1 1.6c4.8.2 7.8.4 8.5.6.7.2 3 .4 6.8.4 6 .1 6.4.2 6.1 1.4-.1.6-.6.8-1.6 1-1.8.1-8.6 0-13-.2a61 61 0 0 0-6.3 0c-1.2 0-1.4 0-2-.6-.6-.7-.8-.7-3.2-.7-2.3 0-2.5 0-2.5.5 0 1-.6 1-3.8 1a65.5 65.5 0 0 1-8.4-.6l-6.5-.4a102.7 102.7 0 0 0-12.3-.3c-.7 0-.7-.1-1.3 3.2-.4 2.2-1.7 3.2-3 2.3-.7-.4-.7-.4-.7 0 0 .8-1 2.1-1.7 2.3-.4.1-1 0-2-.5l-1.7-.6c-.8 0-3.1-2.5-3.9-4.2-.4-.9-1-1.7-1.3-1.9-.6-.3-2.3-2.8-2.5-3.8-.2-.5 0-.8.5-1.3.8-.8.8-1 .1-1.8l-.5-1.1c0-.3-.2-.9-.5-1.3-.7-1.2-.7-3.4 0-5.3.7-2 .7-2.4-.3-3-.4-.2-.8-.6-.8-.8 0-.4 1.8-2.8 2.1-2.8.2 0 .4-.5.6-1a7 7 0 0 1 1.5-2.5l2.1-2.3c.7-.8 1-1 2-.9 1.6.1 2.4-.1 2.1-.5-1-1.2-.2-2.7 1.5-3 3-.5 3.5-.7 3.5-1.1 0-.8 1.4-1.8 3-2 .6-.2 1.5-.5 2-.9l1.4-.6c.2 0 .5-.1.6-.3a19 19 0 0 1 6.3 0c.6.2 1.7.3 2.4.3 1.2 0 4.1.8 4.8 1.4l2 1c2.1 1.1 4.5 3.6 5.6 6l.8 1.6c.3 0 1.8-2.9 1.8-3.4 0-.6.2-1.5 1-3.7l.7-2.7 1-3.6c.6-1.9 1-2.3 2.1-3.4.7-.6 1.6-1.6 1.8-2.2a18 18 0 0 1 3.3-4.6 40 40 0 0 1 2.5-1.7 33.6 33.6 0 0 0 7.1-5.8c1-.7 1.6-1.4 1.6-1.7l.8-1.6c.7-1.1.8-1.6.8-3 0-2 1.1-4.8 2.6-6.6a7.8 7.8 0 0 0 1.8-4.6c.2-1.3 0-1.8-.7-3.7a14.5 14.5 0 0 1-1.5-8.2c.1-3.6.4-4.9 1.3-6 .7-1 1.4-.5 2 1.4l.9 2 .2.9c0 .7.7.2.9-.7l1-4a4 4 0 0 0 .5-1.3l.4-1.4c.3-.5.6-.7 1.2-.7.8 0 1 .3 1 1.7 0 .5.4 1.9.7 3 1.3 3.6 1.1 3.4 2.6 3.6 1.2.1 1.6 0 3-.6 1.8-.8 4-1 4.8-.3.3.2 1 .6 1.8.8.7.2 1.7.7 2.4 1.3.7.6 1.5 1 1.8 1 .8 0 1.8.9 2.6 2.1.3.5 1 1.5 1.7 2.2a7 7 0 0 1 1.3 1.7c.2.7-.6 3.2-1.5 4.9-.4.7-.8 1.5-.9 2 0 .3-.6 1.1-1 1.7-.6.5-1 1.1-1 1.3 0 .2-.5.8-1 1.5-2 2.1-.7 1.8 1.8-.5 1.7-1.5 3-2.2 5-2.4 1.3-.2 1.6-.1 2.2.4.4.3.8.7.9 1 0 .3.5.6 1 .7.8.2 1.2.5 1.6 1.3.9 1.4.6 2-1.4 3-.9.5-1.6 1-1.8 1.5-.4.8-1.4 1.1-2.2.7-.7-.4-1-.2-2 1.8-1.5 2.8-2.5 4-4.8 6.4-2.5 2.7-2.4 2.2-.8 4l.5.8.5.8c.3.3.5.7.5.9 0 .2.1.4.3.4.1 0 .2 0 .2.3l.7 1.6.8 2.4c.6 3.6 2.4 6.5 4.4 7 .5.2 1.1.2 1.3.2h2.8c3 .4 7.2 1.6 8.4 2.5.6.4 2.3 3.4 2.3 4 0 .2.2.6.5.9.7.7 1 1.8 1 3.8.2 3 .2 3 .8 3.9.5.6.6.9.4 1.8-.1 1 0 1.2.3 1.2.2 0 .4-.2.4-.4 0-.9 1.3-2.7 2.7-3.8 1.2-1 1.6-1.3 1.6-2 0-.3-.2-.7-.4-.8-.5-.1-.8.1-1.6 1.3-.8 1-1.8 2-2.2 2-1.3 0 0-2.2 3-5l1.3-1.3.3-4.9a25302.9 25302.9 0 0 0 1.1-14.7c.2-2.1.2-3.1-.1-4-.3-1-.3-1.3.2-2.3.5-1.2 1.1-1.5 1.7-.8.5.4.5 4.6 0 7.3-.5 2.5-1.2 11.3-1.4 15.5l-.1 2.7.8.6c1 .7 1 1 0 1.5-.6.4-.8.7-.8 1.3v.9h2.2c1.9.1 2.2.2 2.3.6.1.8-.7 1.3-2.2 1.3-1.3 0-1.6.2-2.6 1.7-.4.5-.7.6-1.1.5-.9-.2-2.4 1.3-3.3 3.4-.3.4-.8 1-1.2 1.2-.8.5-.8.5-.8 2.3 0 2.5.4 3.2 1.8 3.6l2.9 1c.3.2 2 .3 3.7.3 1.8 0 3.6 0 4.1.2 2 .6 3-.6 1.9-1.9-.7-.7-.7-1.4 0-2.1.2-.3.7-1.5 1-2.7l.9-2.1.2-.8c0-.4.1-.7.3-.8l.2-.6.6-1.1c.6-.6.7-1.2.9-3.4a36.5 36.5 0 0 0-1.4-14.7c-.2-.3-.4-1.4-.6-2.3-.3-1.6-.6-2.5-2.9-6.8-1-1.9-1-2.3-.8-8.8 0-3 .1-3.4.8-4.8.5-1 1-1.6 1.4-1.7a14 14 0 0 1 6.3.6c.8.3 2.1 1.8 2.9 3.2.9 1.6 1.8 2.7 2.5 3 .5.2 2.2 3 2.2 3.7l.5 1.4c1 2 1.1 2.6 1.1 3l.4 1.3c.4.7.4.5.3-3-.2-5.3.5-10.1 1.5-10.1.1 0 1.2-1 2.4-2.3 2.3-2.3 4.7-3.8 6-3.8.5 0 1 .3 1.8 1a14.4 14.4 0 0 1 3 4.5 43 43 0 0 1 2.6 6.1l.8 3.7c.7 5.7.8 6 .4 7.4a13.1 13.1 0 0 0 1 8.2c0 .2.5 1 1.3 1.8.7.8 1.3 1.5 1.3 1.7l.4.2c.3 0 .4-.3.4-1.6 0-2.2.4-3.4 1.2-3.3.5 0 .5.3.7 3.9.1 2 .2 4.1.1 4.5 0 .5.3 1 1.3 2 3 3.2 4.3 4.8 5 6 1.1 1.5 1.5 1.8 2.7 2 1.2.2 1.6.8 1.1 1.7-.3.6-.3.8.2 1.7l1 2.2c.1.6.6 1.6 1 2.1s.8 1.3 1 1.8c0 .6.2.8.8 1 1.9.3 2.8.7 3.5 1.3l.7 1c0 .1.3.5.7.8.6.6 1.1 2.8.8 3.4-.2.2.5 3 1 4l.5 1.6.5 1c.2 0 .2.1.2.3l.4 1.2c.4.7.4.2.4-5 0-4 .1-5.8.3-6 .2 0 .6.1.9.4.5.6.6 1 .6 5.6.1 3.1 0 5.3-.2 6-.2.8-.2 1 .4 1.8l.6 1 .3-4.2.3-6.5-.1-2.4h.6c1.2 0 1.4.9 1.2 4.6a219.5 219.5 0 0 0-.5 12.6c0 .2.2 1.4.6 2.6l.8 2.4.2-1.2a131.6 131.6 0 0 0 1-7.8l.4-8c0-5.1.2-6.6.5-7 .5-.5 2.5-1 3.8-.7l2.4.2c1.8 0 2.4 1 1.2 1.7-.5.4-1 .4-2.6.2-1.4-.2-2.1-.2-2.6 0-.7.4-.7.4-.8 4.7-.2 4.9-.4 6.8-.6 9.4-.2 1.4-.1 1.9.2 2.4.4.7.6 2.3.2 2.3-.3 0-.5.8-.8 2.7 0 .6-.3 1.4-.6 1.8-.7 1-.6 1.3.1 1.3.6 0 .7-.1.7-1a74.6 74.6 0 0 0 1.9-18c-.7-.6 0-2.3 1-2 .6.1.8.8.8 2.5 0 1.5.2 2 .7 2 .3 0 .4-.3.4-1 0-1.5.5-2.4 1.2-2 .4.3.5.7.4 3.5 0 1.7-.2 3.6-.3 4-.5 1.6-1 10-.7 11.4.3 1 .4 1.1 1 1.1 1.3 0 1.7-.4 1.4-1.1a145.3 145.3 0 0 0 .3-9.3c0-3.3.3-6 .4-6.2.2-.2.5-.3.8-.3.7 0 1 1 1 3-.4 5-.5 10.2-.3 10.2.6 0 .8 1.4.3 2.5-.5 1-.5 1 0 1.3 1.2.4 1.3 0 1.4-3.2 0-1.7 0-3.6.2-4.2.2-.6.3-2.2.3-3.7 0-2.6 0-2.7.7-3 .6-.4.7-.4 1.2.2.4.6.5 1 .3 2a1517 1517 0 0 0-.8 7.3c-.1 2.4-.1 2.7.5 3.5.6 1 1.4 1.5 2.3 1.5l1 .4c.4.3.8.3 2 0a21 21 0 0 1 6.4 0c3.5.3 4.4.1 4.4-.7 0-.7-.6-2.6-.9-3l-.2-.7c0-.4-.3-1.2-1.3-3.2-.9-1.6.4-3.3 4.4-6 2.8-1.8 3.1-2.2 2.9-3-.2-.5-1.2-1-1.6-.7a8 8 0 0 1-1.7.5l-2.1.6c-1.2.4-1.8.2-3.1-1.1a5.8 5.8 0 0 0-1.6-1.3c-.3 0-2.5-1-4-1.8-1-.5-1-1-.5-3.7a83.6 83.6 0 0 0 1.5-9.8c.3-.4 3.3-1 4-.7l1.5.4c.5 0 1.7.4 2.5.6 1.8.5 2 .4 3.7-1.3.8-.8 1-1.1 1-2 0-2.7-.5-3.5-3.4-6.5-1-1-1.1-1.4-1.1-2.3 0-1 .1-1.2 2-3 2-1.9 2-2 3.3-2a7 7 0 0 1 2.2.5c1 .4 1 .4 1.8-.2 1.2-.9 2.1-1 3.5-.1 1.7 1 2.3 1.6 2.3 2.5 0 .9 2.3 4.3 3.6 5.3.7.5.7.5 1 .1.2-.3.4-1.1.4-2 0-1-.1-1.3-.3-.9-.3.8-1 1.3-1.4 1.1-.5-.2-.6-1.8-.2-4.3 1.2-7.2 1.3-7.5 2.3-7.5.4 0 1 .4 1.7 1 1 1 1 1.2 1 2.8l-.3 5.4a74 74 0 0 0-.4 5c0 1-.2 1.5-.6 1.8l-.5.7 1.3 2.3c1.4 2.4 1.8 3.8 2.7 11 .4 3.8-.2 7-2.4 12.7-.3.8-.2 1 .6 3a25.9 25.9 0 0 0 2.6 4.7l.7 1.3.8 1.3v4.6l.1 5.7c0 1-.3 1.5-1.3 2-.5.3-1 .3-2.8-.2a25 25 0 0 0-5.6-1c-1.8 0-3.4-.8-3.5-1.7-.1-1 .7-1.4 2.5-1.1l3.6.2c1.7 0 2.2 0 2.4-.4.2-.3.1-.6-.1-.8-.3-.3-1.5-.5-5-.6-11.8-.4-12.2-.5-12.2-1.6l.2-.8c.3-.2 4 0 10.6.7 3.7.3 5.9 0 5.9-.6 0-.5-1-3.4-1.4-3.8l-.9-2c-.8-2.1-1.4-2.6-2.8-2.6-2 0-4.6-1.3-6.7-3.3-1.2-1.2-1.8-1.5-2.1-1-.3.4-2.3 1.3-3 1.4-.2 0-.8.2-1.3.5-.8.5-.8.5-.3 3 .2.9.3 2.7.3 4.1v4.6c0 2.6-.4 3.6-1.6 4.7-1.4 1.2-2 1.4-3.5 1-.7-.3-2-.5-3.2-.5-2.5 0-5.7-.9-6.1-1.7-.4-.7 0-1.7.6-2 .5-.2 1-.2 2.7.4 2 .7 3.5.7 4.3.1l1.3-.5c1.2-.4 1.4-.6 1-1.3-.3-.3-.8-.4-2.3-.4-1 0-2.2.2-2.7.3a2 2 0 0 1-1.6-.2c-.4-.2-1.6-.4-2.6-.5a9 9 0 0 1-2.4-.5c-.5-.2-.7-.2-.9 0-.2.3-1.2.3-3.3.2-5-.2-7.1 0-9 .4-1.8.5-2.4.4-2.1-.4 0-.3.5-.6 1-.9.7-.3.7-.4.2-.4-.3 0-.7-.2-1-.5l-.3-.6-.5.6c-.3.3-.8.5-1.3.5h-1l.6 1c.3.5.8 1.2 1.1 1.4.3.2.6.9.7 1.5.1 1.1.2 1.2 1.6 1.8 1.8.8 2 .8 2.6 0 .8-.9 1.8-1.4 2.3-1 .7.6.5 1.4-.4 2.1-.4.4-.8.8-.8 1 0 .3 2 2.2 3.4 3.4 1.2 1 1.7 1 1.7-.2 0-1 .3-1.2 1.6-1.2.4 0 .8-.1.9-.3.3-.4 1.5-.3 2.8.3.8.4 1.4.5 2.2.4l3 .1a293.2 293.2 0 0 0 19 1.9c.3.1 2.2.3 4.3.3l5 .3c.9.2 1.5 0 2.7-.4a38.3 38.3 0 0 0 4.2-1.6l1.8-.5a355.3 355.3 0 0 1 7.6-3c3-1.4 4-1.8 4.4-1.6.3 0 .5.3.5.4 0 .4.7.3 1.4-.2l.6-.5-.9-.2h-1.1l-3-.2-6.6-.4c-3.6 0-4.4-.3-4.4-1 0-.2.3-.6.6-.8.5-.3 1.4-.4 4.5-.4a20 20 0 0 0 4.5-.3c.6-.3.8-.3 1.2 0 .2.2.8.4 1.3.4 4.7.2 7.7.6 8.6 1.4.6.5.6 2.2 0 4.6-.5 2.4-.8 4.8-1 8.5-.1 3.3-.3 5.4-.5 7-.2 1-.2 1 .3.5.4-.3.9-.4 1.5-.4.8.1 1 .3 1.9 2.2.9 1.9 1 2.1.6 2.8-.2.7-.4.8-1.1.7-.7 0-1-.3-1.7-1.8-1-1.9-1.3-2.1-2-1.4-.4.6-.4 13 0 13.8a26.5 26.5 0 0 1-.5 12.1c-.3 2.1-.9 4.6-1.5 6.5-.5 1.7-1 3.6-1 4.3a124.7 124.7 0 0 0-2.6 10.6 7.5 7.5 0 0 0-.2 3.2c.3 1.5.1 2.1-.7 2.7-.6.6-1.7.4-2.4-.3-.6-.7-.7-.6.1-4.5l1-4.9c.5-3.1.7-4.2 1.3-5.8.7-2.1.5-2.3-1.3-1.8-1.8.6-2.9.6-3.2 0-.3-.6-.2-.8.6-1.5.6-.5 1.2-1 1.5-1 1.3 0 3.3-1.7 3.6-3.1 0-.4.5-1 .9-1.3.8-.6 1.3-2.3.8-2.7-.3-.4-3.4.4-3.9.9-.4.3-.3.4.1.6.9.2.9.7.1 2.1a4 4 0 0 1-2 2l-2.2 1.2c-1 .8-3.8 2-4.5 2-.7 0-.9-.7-.4-1.3.3-.3 1.3-1 2.4-1.5 2.3-1.2 5.2-3.3 5.3-4 0-.3 0-.4-.8-.4-1.3 0-3.1.6-3.1 1 0 .2-.4.4-.8.5-.4.1-1 .6-1.4 1.1l-.6 1h-4.9a39 39 0 0 1-7-.1 40.3 40.3 0 0 1-17.2-1c-1.7-.4-3.6-.7-4-.7-1 0-1 0-1.2 1.2 0 .8-.2 1.6-.4 1.9l-.5 1.6-.1 1.1 1 .2 2.3.4c1.7.4 4 .8 6.4 1l3 .7c1 .4 2.4.4 10.8.4 10 0 10.9 0 10.9 1 0 .2-.3.5-.6.7-.5.3-1.5.4-5.5.3-2.7 0-5.4-.2-6.1-.3l-13-.8c-2.6-.1-2.7 0-2 .3.5.2 1.2.4 1.8.4.7 0 1.1.2 1.7.8.6.7.9.8 2.2.8l2.2.1c1.8.3 5 .5 6.2.5.7 0 1.4 0 1.7.3.2.2 1.5.3 4.5.2 4.2 0 5.3.2 5.7 1.2.2.6.2.8-.4 1-.5.2-.5.2-.1.6.4.5.5 1.3.2 1.8-.4.6-1.3.9-2.6.7-1-.1-1.3 0-1.8.5-.6.5-1 .5-4 .6a41 41 0 0 1-4.5-.2c-2-.3-1.4.8 1 1.7 1.8.6 3 .7 4.1 0 1.4-.6 3.5 0 3.5 1.2 0 .6-1 1.4-1.8 1.4a3 3 0 0 0-1.5.7c-.6.6-1 .7-1.7.6a35.5 35.5 0 0 1-6.4-1.6c-.5 0-1.8-.4-3-.7-3.8-1.1-5.7-1.5-6.7-1.1-1.2.4-1.7.4-4-.4-2.2-.7-3.2-.8-5.4-.5-4 .5-6 1.1-6.3 2-.1.4-.4.8-.6 1-.3.2-.5.6-.5 1 0 1-.7 1.5-5 3.6l-4.2 2.2c-.2.2-1.4.7-2.5 1.1-1.7.7-2.4.9-4.1.9-2.2 0-2.3 0-6.3 2.9-.5.4-2 1-3 1.4-1 .4-3 1.2-4.3 1.9l-2.4 1.2-2.5-.2c-2-.2-2.7-.2-3.2 0-.4.3-.9.4-1.1.4-1.6 0 .5 1 2.1 1.1 1.3 0 2 1.3 1.3 2-.5.5-2 .4-3.4-.2a20.5 20.5 0 0 0-7.1-2 95 95 0 0 1-3.4-.5c-1.4-.3-.8.3.8.8l2 .8a138.5 138.5 0 0 1 4.6 1.5l2.6.2c1 0 1.9.2 2 .3 0 .2.3.3.6.3s.8.3 1.2.6c.9.9 1 .9 4.4 0a152 152 0 0 1 8.7-1.7c3-.6 4.9-.8 5.9-.5 1 .3 2 .1 5-.7a91.1 91.1 0 0 1 5.5-1.5 45.2 45.2 0 0 1 6.5-1.7c3.6-1.2 16.1-2 17.2-1.2.3.3.8.3 3.1 0 3.4-.4 4-.2 4.4 1 .4 1.5.2 1.7-4.3 2.2-2.3.3-4.2.7-5.5 1-.5.2-2.1.4-3.7.5-1.5 0-2.9.3-3 .4-.3.2-.9.3-4.1.8l-2.8.6c-1.3.6-1.8.8-3 1-2 .3-2.8.5-3.3.8l-1.4.3a45.8 45.8 0 0 0-5.6 1.3l-3 .6a69 69 0 0 0-7 1.3 51 51 0 0 0-9.2 1.9l-.7.3.7.6c.7.6.7.8.4 1.2-.2.5-2.4 1.2-3.4 1.2-.4 0-.9.1-1 .3l-.7.2-1.6.5c-.6.3-1.5.6-2 .6-.4 0-1.2.3-1.8.6-1 .5-1 .7-1.1 1.7 0 1 0 1.2.2 1 .4-.3 1.3-.6 4.5-1.2a130.5 130.5 0 0 0 6.3-1.4c1 0 2.4-.3 3.2-.4 6.6-1 7.5-1 8 0 .5 1.1 0 1.4-2.5 1.4-2.2 0-6.2.6-9.2 1.3-5 1.2-8.5 1.8-9.6 1.7-1-.2-1.1 0-1.1 1.9v1.2h1.2c1.3-.1 3.1-.5 6.2-1.3a233 233 0 0 1 10.9-2.7l3.5-.8c.9-.2 2-.3 2.4-.2 1 .2 1.7 1 1.5 1.7-.3.8-1.1 1.1-2.6 1a18 18 0 0 0-6.4.8 126.1 126.1 0 0 1-15 3.7c-1.6 0-2.1.5-2.4 2l-.7 4.4c-.6 3-.6 3.7-.3 6 .1 1.5.4 3 .5 3.5.4 1.4.3 3.4-.2 4.1-.5.8-1.8.9-2.7.2l-1.1-.7c-.3 0-.6-.4-.7-.7-.2-.6.3-8.4.6-9.2l.9-9c.1-1.7.3-2.5.7-3.1.5-.7.6-1 .3-2.4-.1-.8-.2-2.8 0-4.3 0-1.7 0-3-.2-3.3-.3-.8-.4-.8-5.4-2.4a68.2 68.2 0 0 1-7.1-2.8 110.8 110.8 0 0 0-10.6-3.7 43 43 0 0 0-4.5-1.6 21 21 0 0 0-3.7-1l-5-1.7c-1-.4-2.2-.7-2.6-.7-.4 0-.8-.1-.9-.3l-1-.4a197.9 197.9 0 0 1-17.1-5.2l-2.2-.4-2.6-.9c-2.7-.7-4-1.3-6-2.5-1.1-.6-2.2-1-3.8-1.3a40 40 0 0 1-6-1.4 25 25 0 0 1-5.5-2 264.5 264.5 0 0 1-4-1.6l-2.9-1.2-3.6-1.4a7 7 0 0 1-2-.8l-.4-.2-1-.2c-.2-.2-.9-.4-1.6-.6l-2.5-.8-3.3-1c-2.3-.7-2.9-1.2-2.9-2.2 0-.6-.1-.8-.9-.9h-2.9v2.7l.2 3c.1.2 0 .8-.3 1.4-.5 1-.6 1.6-.5 4.7 0 3.8 0 3.6 2.2 4.5l1.2.5.8.3c.6 0 4.7 2.1 5 2.6.6 1.2-1.4 1.4-2.9.3-.9-.6-3.6-1.6-4.3-1.6-.4 0-1-.2-1.3-.5-.8-.7-1.3-.3-1.3 1a4 4 0 0 1-.5 1.8 6 6 0 0 0-.7 1.8c-.6 3.8-.7 19.2-.1 22.4.5 3 .4 2.8 1.6 3.2.6.1 1.4.5 1.8.8.6.4.6.4.9 0 .1-.2.3-2.2.3-4.3 0-2.2.2-4 .4-4 .4-.5.3-1.4-.4-2.7-.8-1.5-.8-2.6.2-3.6 1.4-1.7 2.4-2 4.3-1.2 1.1.4 1.2.4 2.5-.3 1.6-.7 2-.8 3.5-.4 1.2.4 2 1.8 2 3.5 0 1 .2 1.2 2 3 1 1 2 1.7 2 1.7.2 0 .7-.4 1-.9 1-1 3-1.7 3.8-1.2.4.2 1.4.3 2.4.3 1.5 0 1.8 0 2.4.6.4.4.8 1.2.9 1.8.2 1.1.6 1.7 2.4 3 .6.3 1.6 1.3 2.2 2 1.5 1.9 2 2.1 4.7 2.4 1.7.1 2.7.4 4 1 3 1.6 3.8 2.3 5.4 5.5l1.4 2.9v4.5l-.1 4.6.6-.1c.7-.2 5.8-3.2 6.6-3.9l8.2-5.7a47 47 0 0 1 8.3-4.3c2-.8 5.7-1 8.7-.5 3.7.7 4.6 1 6.3 1.7 3 1.3 4.6 3 5 5.2.2.8.1 1-.3 1.2-.5.2-.7.2-1.1-.2-.3-.3-.5-.7-.5-1 0-.5-1.1-1.7-2-2-1.2-.6-1.7-.6-1.7-.1s-1 1.3-1.5 1.1c-.6-.2-.5-.6.2-1.3l.7-.7-1-.4c-1.2-.6-4.2-1-7.7-1-3.3 0-5.7.5-7.8 1.8l-2.1 1.2c-.6.3-1.7 1-2.4 1.6l-2.7 1.9c-.9.4-1.6 1-1.6 1-.2.3-5.4 3.7-7.5 4.8l-2.2 1.6-1 1 .6.7c.5.5 1 .7 2.4.9 3.3.4 7.7 2.6 8 3.9a21 21 0 0 1 0 7 17 17 0 0 0-.3 3.5c0 1.6-.1 2-.6 2.3-.7.6-2 .6-2.4 0zm-49.2-10c.3-.1.1-.2-.6-.2-.5 0-1 .1-1 .3 0 .3 1 .3 1.6 0zm36.7-11.3c.4-.5.5-1.1.6-3.2 0-1.4.2-2.6.3-2.8.4-.5 0-2-.9-4.5-.8-2.2-2.2-4-3.4-4.3-.3 0-1-.3-1.4-.6-.4-.3-1.3-.5-2-.5-1.2 0-3.6-.6-4.7-1.2-.5-.2-1-.8-1.4-1.2-1.3-2-3-3.4-4-3.4-.2 0-.6.3-.7.8a4 4 0 0 1-1 1.3c-.7.5-.8.5-1 .1-.3-.3-.2-.8.3-2.3.7-2.2.8-3.8.2-4-1-.4-1.3.2-1.3 1.9a6 6 0 0 1-.2 1.8c-.3.4-1.2.2-1.6-.5-.4-.4-.4-.4-.6.3 0 .6-.5 1.1-1.6 2-.8.5-1.6 1.3-1.8 1.7l-.7 2c-.3.6-.6 1.7-.6 2.4v1.3h1.5c2 0 4.5-.5 5.6-1.2 1-.6 1.4-.6 2 0 .7.6.6 1-.6 3.4s-1.3 3.3-.2 4.1c1.3 1 2.4 1 4.7-.3 2.8-1.4 4-1.4 4 .2 0 1 2.7 3.6 4.4 4.4.9.4 1.8 1 2 1.2.8.7 2.6 1.6 3.1 1.6.3 0 .7-.2 1-.5zm-24.3-16c-.4-.4-.2-1.7.3-2.1.6-.6 1.8-.6 2.1 0 .4.8.4 1.3-.1 1.8-.4.4-2 .6-2.3.2zm-101 13.4-.4-.8a4 4 0 0 1-.5-1.7c0-1 0-1.1-1-1.2-1.2-.2-5 .2-5.5.4-.3.2-.3.6-.2 1.2l.2 1 .5-.7 1-.8c.7-.2 2.4.6 4.1 1.8 1.4 1 1.8 1.2 1.8.8zm6.4-3.7H118c-.4 0-.2.1.6.1h.7zm2.8-.2c.3-.3.3-.4-.3-.4l-1.3.4-.6.4h1c.5 0 1-.2 1.2-.4zm11.3-2c2-.4 2.2-.9.6-1.5-2.5-1-.1-2.4 5.2-3 1.4-.2 2.3-.5 2.4-.7.1-.5-1-3.4-1.6-4-.9-1-3.8-.4-6.3 1.3-.7.4-1.3 1-1.4 1.3-.1.4-1.8 1.3-2.4 1.3-.2 0-.5.3-.8.6-.7.8-.7 3 .1 4.1.7 1 1.4 1 4.2.6zm72.5-.5c1.3-.6 2-1.5 2-2.6l-.2-.8-1.9 1.8c-2.3 2.2-2.2 2.7.1 1.6zm-64-.6c.5-.3.5-.4-.3-1-.8-.5-1.2-.5-2.9-.5l-1.9.1-.1.8v1c.2.3 4.7 0 5.3-.4zm8.1-1.2c1-1.7 1.1-2.2.3-3-.9-.8-.8-1.3.2-2.4.7-.9.8-1 .6-2.8l-.2-1.9 1.1-1.1c1.3-1.3 1.1-1.8-.4-1.4-.7.2-1.2.6-1.4 1-.3.5-.7.7-1.4.9-.6 0-1 .2-1 .4l-.7.9c-1 1-2.7.7-2.7-.4 0-.2.4-.9 1-1.4 1.3-1.2 1.3-2 0-2-1-.2-1.7.8-1.5 2.2.2.7.1 1-.5 1.7-.8 1-.8 1.2 0 3 .8 1.4.8 1.4 1.5 1 1-.5 2-.4 2.5.3.9 1.3.2 2.4-1.3 2-1.6-.3-1.6 0 0 2 .7.8 1.4 1.5 1.7 1.5.3 0 .6 0 .7.2.3.6.9.3 1.5-.7zm58-3.6c.4 0 1-1.3 1-2.6 0-1 .4-2 1.6-3.4 1-1.1 1-1.6.2-1.6-.6 0-1.4-.8-1.4-1.3a9 9 0 0 0-2.4-3.7c-.4-.3-.6-.2-1 .1-.5.5-1.6.5-1.7 0-.1-.1 0-1 .3-1.7.5-1.6.3-3.1-.5-3.8-.6-.5-1.2-.3-2.3.8-.8.8-.7 2.2.1 2.6 1.4.7 2 1.8 1 2.2-.6.2-2.3-.4-3-1.2-.9-.7-1.2-.7-1.8 0-1.4 1.3-1.6 2-1.6 5.5l.1 3.8c.1.3.7.7 1.2 1l1 .5 1.9-1.2c2.8-1.9 5.9-2 4.2-.2-.5.5-.7 1-.8 2 0 1.2 0 1.4.5 1.4.3 0 .8.4 1 .6.4.4.7.5 1.2.4l1.1-.2zm-8.5-6c-.4-.4-.5-1.4-.1-2.1.4-.8 1.5-.7 1.9 0 .6 1.4-1 3-1.8 2zm16.3-4.6c0-1.1-1.2-1.6-2-.8-.5.5-.2 1.3.8 2 .5.4.5.4.9-.1l.3-1.1zm100-4.1c0-.1.5-.3 1.1-.4h1.2l-1.3-.1c-.7 0-1.3 0-1.3.2 0 .1-.2.3-.6.4-.5 0-.4 0 .2.1.4 0 .7 0 .7-.2zm-117.7-1.4c.6-.6 1-1.2.9-1.3 0 0-.6-.3-1.3-.4-.9-.1-1.1 0-1.5.4-.5.6-.4 1.4.1 2 .5.6.7.5 1.8-.7zm109.2-.1h-.5c-.3 0-.2.1.1.1.3 0 .5 0 .4-.1zm4-4.4c.7-.4.8-.3-2.4-.9a14 14 0 0 1-10.4-3.6 6 6 0 0 0-3.2-.7c-1.3 0-2-.2-3.1-.8-1.6-.8-2.4-1-5.4-1.2-2.5-.2-2.6.3-.4 1.2l2 .8a52 52 0 0 1 13.2 3.6c.6.5 2.4.9 4.8.9 2.3 0 2.7 0 3 .5.4.6 1.1.7 2 .2zM188 244.3l.2-3.9.8-12.8c.2-2.9 0-5.4-.9-7.2-.7-1.4-.6-2.4.3-3.6l1.1-1.4c.6-.8 1.4-.9 2.2-.1.5.4.7.5 2 .2a124.2 124.2 0 0 1 8.9-1.3c.4 0 .5-.1.4-.5-.3-1.3 1.1-1.6 2-.5.2.5.6.6 1.6.6 1.7 0 7.3-.4 8.6-.6 1-.1 2-.9 2-1.4l2-2.2c1-1 2-2.1 2-2.3l.6-1.5c.6-1 .7-1.8.8-4.4a15 15 0 0 0-.2-4.3c-.3-1.1-.3-1.2-1-1l-1.9.3c-.5 0-1.1.4-1.4.6-.2.3-.8.5-1.1.5-.4 0-1 .3-1.2.6-.6.6-1.9.7-3 .2-.6-.3-1-.3-3.8.6-1.6.5-4.6.2-8.5-.8-.6-.1-1.7-.8-2.7-1.5a48.4 48.4 0 0 0-9.4-5.5l-1.8.2c-1 0-2 1-2.4 2.3l-1.6 3.7-1.5 3.2c-.2.8-2.5 3.1-3.1 3.1-.6 0-.9-.7-.5-1.3.5-.8.4-1.8-.2-2.1-.9-.5-.7-1.5.6-3.2 2.5-3.2 2.5-3.4 2.5-5.7 0-2 0-2.2-.6-2.8-.6-.7-.8-.7-2-.6a14 14 0 0 0-4.2 1.5c-.4.2-1 .8-1.3 1.3-.6.8-.6 1-.5 3.4.3 4.8.7 6.5 1.5 7 1.5 1.2 2.5 5.3 1.7 7.4-.2.4 0 .5.4.4 1.6-.1 1.8.4 1.2 2.3-.7 2-.2 3.6 1.4 4.6.5.3.8.9 1.2 2 .3.8 1 2.2 2 3.5 1 1.2 1.9 2.6 2.2 3.2l1.5 2c.6.6.8 1 .7 1.4 0 .2-1 1.2-2 2-2.2 2-2.2 2.3-1 5.5 1.6 4.3 2.8 8 2.9 8.4 0 .4 1 2.7 1.4 3.1.6 1 .9.4 1-2.6zm-4.8-24.7c-1.2-.5-2-1.6-1.7-2.2.4-.8 1.5-.7 2.4.2.8.8 1 2 .4 2.2-.2.1-.7 0-1.1-.2zm9.8-6.2c-.5-.6-.5-1 .1-1.3.4-.2.6-.2 1 .3.6 1-.3 2-1 1zm-5.8-.7-.1-.6c0-.7-.5-.9-1-.5-.5.3-.7.3-1 0-.4-.5-.5-.7-.2-1.3.6-1.3 1-1.6 2.5-1.5 1.5.1 1.8.4 1.8 1.6 0 1.7-1.2 3-2 2.3zm-5.7-3c-.1-1.2.9-2.4 2-2.4 1 0 1 1 0 2-.8.7-2 1-2 .3zm23.2-1.6c-.6-.8-.6-1.8 0-2 .4-.3.6-.2 1 .1.6.8 1 1.7.8 2-.2.7-1.4.5-1.8-.1zm2.7-.7c-1-1-1-2.7-.1-2.7.8 0 2 2.3 1.4 2.9-.4.4-.9.3-1.3-.2zm-10.1-1.4c-.4-.2-.5-.6-.5-2 0-2 .4-2.8 1.1-2.8.7 0 1.1 1.1.9 2.7-.2 1.6-.8 2.5-1.5 2zm12.7-.4c-1-.9-.1-1.9 1-1.4.8.3 1 .9.7 1.4-.5.5-1.2.5-1.7 0zm-28.3-.3-.2-.8c0-.5.3-.8 1.3-1.3 2-1 3-.8 2.3.4-.6 1.2-2.8 2.3-3.4 1.7zm12.7-.4c0-.7.1-2 .4-2.5.1-.5.4-.6.8-.6 1.2.2 1.2 1.4 0 3-.5.5-1.1.6-1.2 0zm-3.3-.4c-.6-.2-.4-1 .4-1.8 1.2-1.1 2.2-.5 1.2.9-.5.7-1.2 1-1.6.9zm0-3.9c-.4-.4.1-1.5 1-2.5.7-.6 1-.7 1.5-.3.4.4 0 1.5-1 2.4-.7.9-1.1 1-1.5.4zm-7-.3c-.2-.1-.5-.4-.6-.7-.3-1 2-2.4 2.6-1.5.6.9-.9 2.4-2 2.2zm3.4-4.9c-.2-.6.6-1.3 1.5-1.3 1 0 1 .3.4 1.2-.6.8-1.7.9-1.9.1zm86.5 48.3h-.5c-.2 0-.1.1.2.1.3 0 .4 0 .3-.1zm25.5-2.9c.4-.5.1-1-.5-1-.5 0-2.5-.6-3.2-1-.3-.2-.5-.6-.5-1 0-1 1.4-1 4.9-.3l4.3.7c1.7.2 3.1.4 3.2.6a20.2 20.2 0 0 0 11-.6c.7-.7-.2-1-4-1-3.2-.1-3.9-.2-4.3-.6-.3-.3-.4-.5-.2-.9.3-.4.7-.4 3.8-.4 3 .1 3.5 0 3.5-.3s-.3-.4-2-.4c-1 0-2-.1-2.1-.3-.2-.3-1.6-.3-3.4 0-1.2 0-1.3.1-1.1.8.2 1.4-.4 1.6-3.4 1.5a39.9 39.9 0 0 1-8.8-1.5c-.4-.3-1.2-.4-3.4-.5-2.4 0-3-.1-3.4-.5-.5-.5-.5-.5 0-1 .3-.3 1-.4 3.1-.4 1.6 0 2.8.1 3 .3 0 .1.5.3 1 .3.6 0 1.7.1 2.5.4 1.4.4 1.4.4 2.2-.2.6-.4 1.5-.6 4.1-1a61 61 0 0 0 4.5-.6c1.9-.4 3.5-.3 4.3.3.7.5 1 .6 2.4.5 2-.2 2.8-.8 1-.8-1.5 0-2.8-1-2.4-1.8.3-.6 1-.8 1.8-.5.7.2 3.4.2 4.8 0 1-.2 1.3-.2 1.8.4.8.8 1.5.8 3.2 0 .7-.2 1.8-.5 2.5-.5 1 0 1.2 0 1.2.5.1.5.2.5 1.4-.7 4.3-4.4 5.8-6.2 5.8-6.6 0-.7 0-.7-2.1.8-.9.6-2 1.5-2.4 2-.5.7-1 1.1-1.1 1.1l-2 .8c-1.8 1-2.6 1-2.9.5-.2-.6.4-1.4 1.3-1.8a9 9 0 0 0 3.9-2.8c.3-.5 1-1.1 1.6-1.4 1.9-1 2.7-2.4 1.7-2.8-.7-.2-.8-.2-1.6 1-.7 1.2-2 2-3 2-.2 0-.7.3-1 .6a28 28 0 0 1-2 1.9l-1.6 1.3-1.6-.2-6.7-.3c-5.1-.2-5.2-.2-6.7.4-1.2.5-1.7.6-3.3.4-2.6-.2-6.4.3-8.8 1.3-.8.3-1 .3-1.4-.3-.7-.9-3.2-1.1-7-.8-2.4.2-3.2.2-3.5 0-.2-.3-1.3-.4-3-.4-1.5 0-3-.2-3.3-.3-.5-.1-.7 0-1 .6-.2.9-.2.9-2 .9-1.4 0-1.7-.1-2.3-.7-.8-.9-2.6-1.5-3.5-1.1-.4.1-1.6.2-2.8.1H268v-1c0-.9-.1-1-.6-1l-1.4.4c-1 .5-5.2 1-5.9.6-.2-.2-.5-.4-.5-.6 0-.5 1-1.2 1.6-1.2.4 0 1-.2 1-.4.4-.4.3-.4 0-.4s-1-.3-1.5-.6c-1.3-.6-2-.6-2.4 0-.5.7-1 .9-2.6 1.1l-2.1.4c-1 .2-3.2-1.2-3.2-2 0-.4.1-.8.3-.9l-.8-.1c-1.8 0-5-.7-5.5-1-.6-.6-.5-1.4.2-1.5h2.9c2.9.3 3.8.2 3.4-.3-.2-.2-.4-.4-.6-.4a32.6 32.6 0 0 1-5-2.1l-1.4-.8a5 5 0 0 1-1.8-2.2c-.4-.8-.8-1.5-1-1.6-.2 0-.9.2-1.5.6-1.2.8-1.4 1.4-.6 2.4.6.8.7 1.8.1 2-.2 0-.4.3-.4.4a32.2 32.2 0 0 0 6.1 10l1.7 2c.5.7 1 1.4 1 1.7 0 .5 1.3 1.8 2.4 2.4.3.2 1.4.4 2.3.4 1 0 2.3.3 3.2.7 1.8.7 2.6.9 7.6 1.8l2.9.5c.7.2 3.3.5 5.7.7 4.7.4 6 .8 6.2 1.8.2.7.4.8 2.8 1.1 1.4.2 2.2 0 3-1 .5-.7.6-.7 3.2-.5 1.4.2 3 .4 3.3.6 1.2.4.9 1.8-.4 1.9-.8 0 2.3.7 5 1l2.8.5c.6.4 1.7.3 2 0zm-13.6-5.2c-4.1-.8-5-1-5.6-1.4-.7-.4-.7-.6-.5-1.3.2-.5 1-.6 1.8-.1.3.2 1.4.4 2.4.5l3.5.5c1.5.4 1.5.4 1.5 1.2 0 .7 0 .8-1 .8-.6 0-1.5 0-2.1-.2zm-19.9-1.8-1.4-.3a5 5 0 0 1-1.7-.3c-.8-.4-1.2-1.4-.7-1.9.3-.3-.1-1-.8-1-.6 0-2-.6-2.7-1.1-1.4-1 .9-1.7 2.7-.8 1 .5 4 1 5.2.7 1.3-.2 2.2 0 2.2.7s-1 1-2.7 1c-1.2 0-1.3.1-1 .5.2.2 1.4.4 2.7.6 2.6.3 3.5.7 3 1.6-.3.3-.8.4-2.3.5-1 0-2.2 0-2.5-.2zm-16.2-7.3-1.4-.4c-.3 0-1-.4-1.7-.8-.9-.6-1.2-1-1.1-1.4 0-.8 1-.8 2.3 0 .7.3 1.8.6 2.5.7 1.7.3 2.3.7 2.3 1.6 0 .6-.1.7-1 .7-.6 0-1.4-.2-2-.4zm13 13.3c0-.3-2-1-3-1-.2 0 .2.3.8.7 1.3.7 2.5.8 2.2.3zm-17.7-5.1c-.4-.1-.6-.3-.6-.4 0-.1-.3-.3-.6-.3s-.5 0-.5-.2c0 0-.4-.3-1-.4-.6-.3-.8-.3-.8 0 0 .4 1.1 1 2 1 .3 0 .6 0 .6.2 0 .1.3.2.7.2.7 0 .7 0 .2-.1zm80-1c.4-.1.3-.1-.5-.2-.7 0-1 .1-.9.3.2.3.6.3 1.3 0zm-88.3-3.2c-.9-.6-3.1-1.2-5.6-1.6l-2-.6c-.4-.3-1.3-.6-2-.8-2.8-.6-6-1.5-7-2-1.2-.5-2-.6-1.8 0 .2.3 2.1 1.4 2.7 1.4l1 .3c1.2.6 1.5.8 1.8.8l2 .6 3 1c2.1.4 2.7.5 3.1.7 1.1.4 3 .8 4.3.8h1.4zm7.5 0c-.5-.4-.9-1.4-.9-2.1 0-.4 0-.7-.2-.7-.1 0-.5-.4-.8-1l-.9-1.1-.7-1a17 17 0 0 0-1.2-1.5l-.4-.7-.8-1.4-.8-1.4-.5-.9-.6-1.2c0-.4 0-.7-.2-.8l-.4-1.2c-.2-1-.1-1.2.3-1.5.5-.5.5-1 0-1.6-.2-.3-.4-.3-.7 0-.2.2-.9.5-1.5.6l-2.2.4c-.7.2-2 .3-3 .4-.9 0-1.8.2-2 .3l-3 .4a84.5 84.5 0 0 0-9.4 1.4l-2.3.3-2.8.2-4.5.5c-2 .2-3.4.4-3.4.6l1.4.6a369.9 369.9 0 0 1 16.1 5l3.9 1a74.2 74.2 0 0 0 7.8 2c.8.4 3.8 1.2 5.4 1.6 1.8.4 4 1.3 4 1.6 0 .6 1.7 1.3 3.1 1.3.8 0 1.4 0 1.2-.2zm100.4-4.5c1.2-.3 1.2-.3 1-1l-.5-1.2c-.3-.5.4-2.4 1-3 .9-.6 1-.6 1.5-.1.5.4 1 .5 1 .1 0-.1.4-.8 1-1.4l1.5-2.6c.4-.8 1.3-2.1 2-3 2.7-2.7 4.9-8 4.4-10.7l-.3-4.4c0-3.4-.6-6-1.2-6.3-.1-.1-.4.1-.6.5a25.6 25.6 0 0 0 0 6.8c.2.4-.2 1.5-.7 1.6l-1-.1c-1.2-.4-1.4-.1-.8 1.3.6 1.4.4 2.4-.6 2.4a2 2 0 0 0-1.1.6c-.5.4-.8.5-1.7.4-1-.2-1.2-.1-1.2.3 0 1-1.4 2-2.4 1.7-2.2-.9-2.2-.9-3 .2a5 5 0 0 0-.9 1.7c-.2 1.3-1.6 1.2-1.7-.1 0-.6-.2-.7-1.7-.9-1.4-.2-1.7-.1-2.2.3-.3.2-.5.5-.5.6 0 .2 2.4 1.3 2.8 1.3.4 0 2.7 2.2 3 2.7 0 .3.3.5.7.5.3 0 .8.3 1 .6.6.7.7.6 2-2.2l1.7-3c.2-.3.5-.9.5-1.2 0-.6.8-.9 1.3-.5.3.4.3 1-.1 1.7-.2.3-.6 1.1-.8 1.9-.4 1.3-1 2.9-1.6 3.9-.7 1.4-1.8 4.3-1.8 5 0 1.4-.5 2.1-1.5 2.1-.8 0-1 .2-1.7 1.6-.4.8-.7 1.6-.6 1.9.2.5 2 .5 3.8 0zm-42.7-1.2c4.7-.7 5.8-.9 7.8-1 3-.4 4-.6 4.6-1 .3-.3.8-.5 1.2-.4 1.6 0 2-3.3.5-4.7-1.8-1.7-8-3-10.8-2.2l-1.8.5c-1 .2-4.3 3.6-5 5-.7 1.3-.7 2.3-.2 2.7l.7 1c.2.8.4.8.8.6.3-.2 1.3-.4 2.2-.5zm-9.4-1.1c0-.3-1-1.3-2.6-2.3a7 7 0 0 0-3.4-1.4c-1.1-.1-2.8-.5-3.7-.8a6 6 0 0 0-3.6-.3c-1 .2-2 .2-2.2.1-.6-.3-2.5.4-3.8 1.5-1 1-1.1 1.1-.9 1.6.4.6 2 1 3.8 1.1l3.9.4c2.4.3 12.5.4 12.5 0zm33.7-.8c2-.7 3.2-2.5 2.7-4.3-.4-1.8-3.2-3.4-4.2-2.4l-.4.8c0 .2-.7 1.2-1.5 2.1-1.2 1.5-1.5 2-1.5 2.7l.2 1.2c.2.3 3.4.3 4.7-.1zm45.4-2h-1c-.4 0-.2.1.4.1.6 0 .8 0 .6-.1zm-29.2-1.2c.5-1 .5-1.9 0-2.3-.3-.2-.4-.1-.5.7l-.3 1.9c-.2 1 .2 1 .8-.3zm-86.3.4c.2 0 .4-.4.4-.7 0-.7-1.1-1.2-3-1.3-1.3 0-1.3 0-1.6 1-.1.5 0 .7.5 1 .7.2 3.1.3 3.7 0zm9-.4c.3-.2 1.2-.5 2-.6.8-.1 2.1-.5 3-1l2.2-1c.5-.1 1-.5 1.4-.9.8-.9 1.6-3.5 1.4-5 0-1.3-.2-1.6-1.1-2.4a8.8 8.8 0 0 0-2-1.3c-3-1.4-3.1-1.4-7.3-1.4-3.8 0-4.2.1-5.3.7-2.2 1.1-6.3 4-6.3 4.5s-.6 2.3-.9 2.5c-.3.3.4 1.4 1.1 1.7l2.8.9a8 8 0 0 1 2.9 1.4c.7.6 4.2 2.2 5.2 2.2l.9-.3zm74.4-2.2c-.1-1.9-.3-2.4-.9-2.6-.3-.1-.3 0-.2 1.4l.3 2.5c.2.8.2 1 .6.6.3-.2.3-.6.2-1.9zm50 2c1.3 0 1.6-.1 1.2-.2-1-.3-4.4 0-4 .2.2.2.6.2.8.1l2-.1zm-18.2-1.8h-1.7c-1.3 0-1.6 0-1 .2.7.2 2.5 0 2.7-.2zm-50.4-.6c1.8-1.4 2.1-2.7 1.4-4.6-.9-2.1-2.5-3.3-4.5-3.3-1.1 0-1.3 0-1.5-.8l-.5-.8-1.1 1.3c-.6.7-1.2 1.4-1.5 1.5-.9.2-1.6-.6-1.6-1.8v-1l-1.2.5c-.6.2-1.4.7-1.8 1-.8.7-1.5.6-1.7-.4-.3-1.4-.3-1.4-1.8-1.4-1.7 0-2.5.6-3.2 2.2-.2.6-.7 1.2-1.2 1.5-.8.5-1.2 1.5-.8 2 .2.2.8.7 1.5 1 1 .5 1.1.5 2.9 0 2.1-.4 6.3-.5 8.3 0 2.8.5 4.5 1.3 5.7 2.6l1.3 1.3 1.3-.8zm-29.3-.2c1.6-.5 4-2.2 4.3-3 .9-2 .8-4.5 0-4.5-.4 0-1.2-.7-3-2.7-1-1-1.4-1.2-3.2-1.6a9 9 0 0 0-2.5-.3l-2-.1c-.9-.2-1.7-.2-2.3 0-2.4.8-4.4 1.6-4.4 1.9l-.6 1-.5.8.6 1.1c.4.8.6 1.5.5 2.3 0 1.2 0 1.3 1 2 1.4 1 4.6 2.6 7.7 3.7.6.2 3.2-.1 4.4-.6zm44.3-1.7c-.4-.8-2.4-2-2.4-1.4 0 .4 1 2 1.5 2.6l.8.8.1-.8v-1.2zm29-1.7h-.5c-.2 0-.1.1.2.2.3 0 .4-.1.3-.2zm-115.3-1.2.7-1.8c.3-1.1 2.7-3.2 5.3-4.5 3.5-1.7 5.6-2.2 8.4-2.2 1.7 0 2.4-.1 2.1-.6-.1-.2-1.3-1-2.8-2l-1.8-.6c-2-.6-5.2-.4-8.1.5-2.2.7-3 1-5 2-.4.1-1.6 1-2.6 2l-1.8 1.6v1.5c.1 2.1.5 2.8 2.5 3.9l1.4.8c.5.5 1.2.2 1.7-.6zm83.7.5c-.2-.3-.5-.4-.6-.4-.3 0 .3.7.7.7l-.1-.3zm28.9.2c-.2-.1-.6-.1-.8 0l.3.1c.4 0 .7 0 .5-.1zm-3.5-1.2-.4-.2c-.2 0-.4 0-.4.2s.2.3.4.3.4-.1.4-.3zm-119.9-4c.9-.5 1.6-1.1 1.7-1.3l.8-.2c.5 0 .9-.4 1.5-1.4.4-.7 1-1.3 1.2-1.3.2 0 .4 0 .4-.2l1.2-1c3.4-2.7 9-4.1 15.4-4 2.2 0 4.3-.1 4.8-.3 5.9-1.8 6-1.8 10.7-1.4 3.6.3 5.9 1 7.2 1.8.2.2.8.4 1.2.4.7 0 .7-.1.5-.6-.2-.2-.3-1.2-.3-2 0-1.4 0-1.8-.5-2.1l-1.4-1.4a8.7 8.7 0 0 0-2-1.4c-.6-.3-1.8-1.3-2.7-2.2-1.5-1.4-1.6-1.6-1.6-2.7 0-.8-.2-1.4-.5-1.9-1-1.2-1-2.7-.3-4.1.5-1 .6-1.3.3-1.8-.5-1.1-.6-3.3-.2-4.2.3-.4.4-1 .4-1.2 0-.3.5-1 1.1-1.5.8-.8 1-1.2 1-2 0-.5.4-1.3.9-2 1-1.8 1-2.3-.3-3.4-1-.7-1-1-1-1.6 0-.7.2-.9.7-1 .3 0 .7.1.9.3l1.1.2c.7 0 .9-.1 1.3-1 .3-.7.6-1.8.6-2.6.1-.9.3-1.5.7-1.8.2-.3.5-.6.5-.8a20.7 20.7 0 0 1 6.9-6.1 7 7 0 0 0 1.1-.9c.7-.7 1-.6 2 0 .8.6 1.3.7 4.4.7a113.2 113.2 0 0 0 10.3.2c2.4 0 2.6.1 3 .7.3.4.6.8.6 1 0 .5 1.2 1.2 1.7 1 .3 0 .4-.5.4-1.6 0-1.6.6-2.5 1.7-2.5.9 0 1.2.5 1.2 2 0 1.4.3 2.2 1 2.2.6 0 1.5-1.5 1.5-2.8l.4-2.3c.3-1.5.3-5.7 0-5.7-.5 0-2 1.7-2.5 2.6-.5 1.4-1.6 2.4-2.6 2.4l-2.4.4c-1.2.3-3.2.4-7 .4-4.5 0-5.3 0-5.6-.4-.3-.3-.3-.6-.1-.9.2-.4 1-.5 4.5-.6 6.9-.3 8.6-.6 9.9-1.8.3-.4 1.2-1.1 2-1.6 2-1.4 2.5-2 2.5-3.5 0-1-.6-2.4-1.1-2.7-.4-.2-.3-1.4.1-1.7.2-.1.6-.2 1-.1s.5 0 .5-.4c-.1-.3-.4-.5-1-.5h-1c-.7-.1-.4-1.9.4-2.7.4-.5.9-.8 1-.8.7 0 .6-.8-.1-3.1l-1.1-3.5-1.5-3.7-3.4-.5c-3.1-.3-3.5-.3-4.2 0-1.6.9-2.8 1-4.8.4a356.9 356.9 0 0 0-38.4-.1c-1.5-.4-5.7-.5-10.8-.1-3.8.3-3.9.3-6.2 2.9-1.3 1.5-1.3 1.6-1.5 3.6a7.6 7.6 0 0 1-.4 2.4c-.5.6-1 .4-1.5-.5-.2-.5-.4-.7-.4-.4 0 .2-.2.9-.5 1.4l-1 2.5c-.7 2.4-1.1 3.2-1.7 3.2-.3 0-.5-.2-.6-.4-.2-.3.3-2.4 1-4.4.4-1.1.6-2.8.3-1.9l-.6.9c-.6.6-1 1.3-2 4.4l-.5.8c-.1 0-.2.2-.2.5 0 .2-.2.7-.5 1l-.5 1c0 .3-.3 1-.6 1.6a19.2 19.2 0 0 0-1.3 4l-.3 1.3c0 .8-1 3.6-1.7 4.6l-.8 1.8c-.2 1-1.8 4.5-2.2 4.7-.3.2-1.6 3-1.6 3.3l-.8 2.2c-1.2 2.8-2.4 9-2.4 12.1 0 1.4-.1 3.9-.3 5.6-.2 2.3-.2 3.4 0 4a3 3 0 0 1 0 2c-.2.8.1 4.2.4 4.5l1.2.2c1 0 1 0 1.1 1.2a244.4 244.4 0 0 0 .8 5.1c0 1 0 1 .4.7.3-.2.4-.6.3-1.2-.8-3.7-.7-4.9.2-4.9.7 0 .8.2 1 2.5.2.8.3 1.5.5 1.6l.3 1c0 .6.2.3.3-1 .2-1.9 0-5.2-.8-9.8-.2-1.3-.4-3.2-.3-4.3 0-1.9.1-2 .7-2 .8-.2 1.1.3 1 1.4-.2.5 0 1.6.2 2.6l.7 3.7c.8 5.2 3 13.7 4.1 16.5.2.6.4 1.3.3 1.8 0 .6-.2.7-.9.8-.8 0-.9 0-1.4-1a5 5 0 0 1-.5-1.6c0-.3-.1-.6-.3-.7l-.3-.6c0-.6-.6-1.7-1.3-2.5-.5-.4-.5-.4-.5.3 0 .5.2 1 .5 1.2.4.3.5.7.5 2.4l.2 2.4c.3.3.8 1.8 1 3.1.2.8 1.1 1.8 1.7 1.8l2-1zm-.6-9c-.3-.6-.6-2.2-.7-3.6-.3-3 0-15.8.3-17 .3-1.2.3-2.4-.1-2.4H235c-1.8 0-2.7 0-3.8-.5l-1.9-.5c-.5 0-1.8-2.2-1.5-2.8.2-.4.7-.5 1.9-.2 1.3.4 1.4.2 1.2-1.9v-6.5l.1-2.7c.4-.9 3-1.9 3.4-1.3l.8.4c1 .2 1.2-.4 1.3-3.6 0-3 .1-3.9.8-4.3.8-.4 1.3.5 1.1 2l-.2 3.4-.3 4.6c-.3 2.6 0 3.4 1.4 3.7l1.9.4c.6.2 3.8.5 7 .7a123.8 123.8 0 0 1 10 1 72 72 0 0 1 10.8 1.5c.2.2.4.6.4.9 0 .6 0 .6 2.5.6 3.4 0 4.4.4 3.6 1.6-.3.4-1.2.4-10.2.4-12.5 0-15.4-.4-15.4-1.8 0-.6-1-1-2.5-.8-1.7.2-7.7-.4-8.1-.8-.4-.4-1.5-.4-1.5 0 0 .1-.3.2-.6.1-.5 0-.7-.3-1-1.8-.2-1-.2-2.4-.2-3.3.1-1.3 0-1.7-.3-2.1-.4-.5-2.4-1.3-2.5-1.1a29.6 29.6 0 0 0 .2 11.8c.7.8 2.5.8 2.5 0 0-1 1.6-1 5.2 0 1.1.2 9.4.7 14.1.8 1 0 2.6.1 3.7.4 1.1.2 4.3.6 7.2.8l6.3.6c1.2.1 1.6.7 1 1.3-.4.5-5.4.5-9 .1a298 298 0 0 0-17.5-1.4c-7.1-.2-6.8-.3-7.3 2.3-.5 2.4-.2 17 .3 19.2.5 2 .3 2.7-.7 2.7-.4 0-.7-.3-1-1zm25.5-28.2c-.4 0-.8-.2-.8-.3 0-.2-.5-.3-1.2-.3-.6 0-1.2 0-1.3-.2-.1-.2-1.3-.3-6.7-.7-1.9-.2-2.2-.2-2.2.2 0 1.2 1.2 1.4 8 1.4h4.2zm-20 25.7c-.5-.8-.5-3.6-.1-4.8.1-.6.3-1.9.3-3 0-2.3.5-4.9 1.1-5.5.4-.4.5-.4.8 0 .5.4.4 2-.4 8.8a9 9 0 0 0 0 3c.6 1.7-1 3-1.8 1.5zm12-5.8c-4.5-.2-5-.3-5.4-.8-.4-.6-.4-.6-.1-1.1.2-.4.5-.4 2.3-.1 1.1.1 5 .3 8.5.3 5.3 0 6.6.1 7.2.4.8.4.8.5.3 1-.6.6-5.7.7-12.7.3zm4.8-3.8-4.2-.3a28 28 0 0 1-6.1-.6 4 4 0 0 1-1.5-.5c-.4-.4-.4-.5-.1-.8.4-.5 1.8-.6 3.5-.2.6.1 3.6.4 6.6.5 6.4.4 6.6.4 6.5 1.2-.1.9-2 1.1-4.7.7zm.7-26.3c-.2-.3-.5-1.4-.6-2.4-.3-2.9-.3-8.4 0-9 .3-.7 1-.5 1.5.4.5.8.5 1.2.4 2.8l.1 4.8c.3 3 .1 4-.6 4-.3 0-.6-.2-.8-.6zm11.7-4.7c-.3-.6-.3-5 0-6.2 0-.3-.1-.8-.4-1.2-.5-.6-.8-.6-3.2-.7a84.1 84.1 0 0 1-10.4-.8c-2.8-.3-3.9-.5-5-1-.6-.2-.7-1.3-.2-1.5a395.5 395.5 0 0 0 24.5 1.7c.3 0 .7.2.9.5.4.9-.3 1.3-2.5 1.3s-2.1 0-2 4c.2 2.7.2 3.3-.2 3.8-.5.8-1 .8-1.5.1zm-32.7-11c-.3-.2-.8-.7-1-1.2a8 8 0 0 0-.8-1.3c-.2-.2-.4-.8-.3-1.2 0-1 1-1.1 2.2-.2.7.5 1.7.9 3.5 1.2 3.3.7 3.9 1.2 2.7 2.2-.5.4-1 .5-3.1.6a13 13 0 0 1-3.2-.2zM304 142c-.3-.3-.5-.7-.5-.9 0-.2-.6-.2-2 0-2.3.1-3-.2-3-1 0-.3-.2-.8-.5-1-.3-.4-.3-.6-.1-1 .2-.4.7-.6 2.4-.8l4-.4c.8 0 2 0 2.7-.2l3.4-.8c2.7-.6 3.5-.7 4-.2.3.6 0 1.5-.7 1.8-.6.3-.6.4-.4 1 .5 1.1 0 1.6-1.6 1.6-1 0-1.5.2-2 .6-.9.7-3.7 1.8-4.6 1.8-.3 0-.8-.2-1.1-.5zm-61.4-1.3c-.2-.2-.7-.3-1-.3-1.3 0-2.7-1.7-2.3-2.9.2-.6 1.4-.8 1.9-.3.6.6 2.9 1.6 4 1.8 1.3.2 2 .7 1.9 1.4-.1.3-.5.4-2.1.5a7 7 0 0 1-2.4-.2zm32.8-.9c-1.7 0-4.7-.3-6.7-.5l-9.3-.5a30.7 30.7 0 0 1-11.3-1.6c-.5-.4-.5-.5-.3-1.1.4-.8.6-.9 3.3-.3 1.9.3 6.7.6 18.1 1 4 .2 5.1.3 5.5.6.4.4 1.4.5 5.8.6 4.5.1 5.3.2 5.7.6.4.4.4.6.2 1-.3.3-.8.4-4.1.4-2.1 0-5.2 0-6.9-.2zm25.6-4-.2-1.9c0-1.2-.3-4.5-.7-7.2-.2-1.4.5-2.5 1.5-2.5.8 0 1.1.5 1.6 2.7.4 1.6.2 6.1-.3 8-.3 1-.5 1.1-1 1.2-.6 0-.8 0-.9-.4zm-47.8-3.5a9 9 0 0 1-.1-3l.2-4c0-2.5.8-3 1.9-1.5.3.5.3 1.1 0 4.3-.2 3.7-.5 4.9-1.4 4.9-.2 0-.5-.3-.6-.7zm12.7-.5c-.1-.1-.3-1.8-.4-3.7 0-2.9 0-3.4.4-3.9.7-.9 1.5-.3 1.8 1.4.4 1.7.3 5 0 5.7-.5.9-1.3 1.2-1.8.5zm18.4-3.1c-.5-1.9.3-3.6 1.4-3 1.2.8.8 3.6-.6 3.6-.5 0-.7-.2-.8-.6zm15.9 78.5 1.5-1.3c.3-.7-1-.5-1.8.2-.4.4-1 .7-1.2.7-.6 0-.8.3-.6.9.2.6.5.5 2-.5zm-2.3-1.7c.2-.4.6-1 .6-1.3.3-.8 1.6-1.2 3.1-1 1.3.1 1.4 0 2-.7.4-.5.7-1 .7-1.2 0-.1.4-.7 1-1.2 1.5-1.3 1.5-1.5.5-1.5-.7 0-1.2.3-2 1a7 7 0 0 1-1.5 1.1l-2.2 1.2c-1.8 1.1-2 1.2-3 1-3.3-.4-4.2-1.2-4.2-3.6 0-.8-.1-1.8-.3-2-.3-.6-3.7-3.2-4.1-3.2-.6 0-.7.6-.3 1.7.3.5.5 1.2.5 1.5 0 1 1.6 4 3 5.5 1.3 1.2 4.6 3.3 5.5 3.4l.7-.7zm-20.1-.8c1.1-.6 2.6-1.2 3.4-1.3 3.1-.7 3.7-1 4-1.3.6-.6 0-1.1-1.7-1.8l-2.1-.9c-2.7-1.3-13.6-.7-13.6.7 0 .2.3.7.8 1.2a16 16 0 0 1 1.5 1.8c.6 1 1 1.2 3.2 2.2 1.8.8 1.5.8 4.5-.6zm34.8-.9c1.4-1 2.5-1 3.4.2.9 1.1 1.3 1.2 1.7.3.2-.4.6-.8 1-1l.6-.3-.9-1a4 4 0 0 1-1-1.4c0-.2-1-.3-4.7-.4H308l-1.3 1.3c-1.4 1.4-1.7 2.3-.7 2 1.6-.5 1.9-.5 2.3 0 .2.4.8.9 1.4 1.1 1 .6 1.2.5 3-.8zm17.6.5c.1-.4.3-1.3.3-2.1s.1-1.5.3-1.7c.8-.8 2.3 0 2.3 1.4 0 1 .5 1 1.2.4.5-.5.8-.6 1.6-.4.6.1 1.3.3 1.7.6.4.2 1 .3 1.3.3.8 0 2.3-1 2.7-1.8.3-.8 1.4-2.1 1.8-2.1l1.4.3c1.4.4 1.5.4 1.5-.6 0-.5.2-1 .6-1.2.6-.4 2.9-.6 3.6-.4.8.3 1.9-1.8 2.3-4.4.4-2.7.4-3-.4-3-1.4 0-1.8-1-.6-2.1.7-.7 1.3-2.5 1-3-.2-.2-.3-1.2-.4-2.3-.1-2-.1-2-1-2.2-1.2-.4-1.6-1-1.1-1.6.2-.3.6-.4.8-.4.7 0 1-.7.5-1.7-.4-1-1.3-1.3-3.3-1.1-2.7.3-3.3-.5-1.4-2a4 4 0 0 0 1.2-1.4 10 10 0 0 0-1.1-4.3l-.4-.6-1 .5c-.5.3-1.2 1-1.4 1.4-.2.5-.6 1-1 1.1l-2.3 2c-2 1.8-3 2.4-4 2.3-.6 0-.8-.2-.8-.7 0-.5.3-.8 1.2-1.3l3.3-2.7a16 16 0 0 1 2.8-2.2c.9-.3.7-1-.3-1s-1.8-.6-1.8-1.4c0-.5 1-1 2.2-1 1.1 0 1.4-.6.9-1.4-1.3-2-6.2-5.7-9.7-7.4-1.2-.6-3.8-.6-4.6 0-.6.4-.8.4-1.6 0l-1-.4c-.2 0 0 .6.5 1 1.4 2 2 4.6 1 5.5-.6.7-1 .2-1.5-1.4-.5-1.6-.7-2-2.8-3.5-1-.8-2.3-1.1-3.2-.8-.6.2-1 .2-1.3 0-.7-.4-3-.4-3 0 0 .3 2.3 3.3 2.7 3.5l.8 1.4c.6 1.2.6 1.7.6 5.1 0 2.3-.1 4.3-.3 5-.2.5-.4 2.5-.5 4.3-.2 3.2-.1 3.3.4 3.8.6.5.6.5 1 0 0-.2.5-.8.8-1.2.8-1 2.2-4 2.2-4.8 0-.3.3-1 .6-1.5.4-.8.5-1.4.5-3.2 0-1.3 0-2.5-.2-2.7-.2-.2-.4-.8-.5-1.3l-.6-1.6c-.4-.6-.4-.8 0-1.1.5-.7 1.2-.5 2 .6a6 6 0 0 0 2 1.6c.6.3 1.3.7 1.5 1 .4.4.7 2.3.8 4.9 0 .2.2.5.3.5.6 0 1.3.8 1.3 1.5s-.9 3.3-1.3 3.8l-1.5 1.9c-.6.8-1.3 2-1.4 2.5-.2.6-.6 1.2-.9 1.5-.3.3-.8 1-1 1.5-.3.6-1.5 1.8-2.7 2.8a13 13 0 0 0-2 1.8l3.7-1 3.5-1.2 1-1.6 1-1.8c0-.2-.3-.6-.7-.8-.7-.5-.8-1.1-.3-1.6.5-.6 1.3-.4 2.2.6 1.5 1.7 1.4 2-2.2 6.4-.6.8-.6 1-.3 1.3.4.3.5.3 1.4-.4 2-1.7 2.7-.3.8 1.6-1.2 1.3-1.4 1.6-1 1.9.4.2 1.4-.6 1.4-1.2 0-.5 3.7-3.1 4.4-3.1.2 0 .5.2.6.5.2.4 0 .7-1 1.8-.8.8-1.3 1.5-1.3 1.6l-1 .9c-1.3.8-2.2 1.7-2.2 2.3 0 .3.2.5.4.5 1 0 4.6-.8 5.4-1.3 1.4-.7 2.5-.9 2.9-.4.5.6.2 1.1-1.3 2a22.6 22.6 0 0 1-11.4 1.9c-1.3-.4-3.7.3-5.7 1.6-1 .6-1.7 1.3-1.7 1.4 0 .2.3.8.8 1.2l1 1.3c0 .3.7.9 1.4 1.4 1.5 1.2 2.6 1.1 3 0 .2-.5.6-.9 1-1 1.1-.2 1.6.3 1.6 1.8 0 1.4.6 1.7 1 .6zm-8-3.5c-.7-.2-.8-1.1-.1-1.5.8-.6 2.6-1 3.3-1 1 .2.9 1.1-.1 1.6l-1.5.7c-.7.4-.8.4-1.6.2zm13.5-17.7c-.4-.4-.2-1.6.3-2.3.3-.3.6-1 .7-1.5.4-1.6 3.7-2.8 4.3-1.7.3.6-.1 1.5-.9 1.9-.3.1-.9.7-1.3 1.2-2 2.4-2.6 3-3.1 2.4zm-1.6-19.3c-.9-1 1.8-3.9 3-3.4.6.2.9 1.3.5 1.8s-2.5 1.7-3 1.7l-.5-.1zm-102.4 39.4c0-.3-.1-.1-.1.3v.5c.1-.2.2-.6 0-.8zm88.4.4c0-.1 0-.2-.2-.2s-.2 0-.2.2l.3.3.1-.3zm44-1.7-.3-.6c-.2-.4-.1-.7.1-1 .4-.5.9-.6 5-.3 2.2.2 9.4.5 20.4.9 2.9 0 4.3 0 4.5-.2.1-.1 1-.3 2-.3s1.9 0 1.9-.2c0-.4-1-.5-6.1-.6-6.2-.2-9.3-.4-16.4-1.3l-10.7-.8c-.3 0-.8-.3-1.1-.6-.5-.5-.7-1-.7-2 0-1.7-.4-2.2-1.8-2-1.2 0-1.2 0-1.1 1 0 .4 0 2.1.2 3.7.2 3 .1 3 2.5 4 1.3.5 1.6.5 1.6.3zm-133.1-2c-.2-.2-.3-.8-.3-1.2 0-.9-.7-3.1-.8-2.5 0 .7 0 1.5.3 1.6l.2 1.5c0 1.5.6 2.7.8 1.7 0-.3 0-.8-.2-1zm70.5-1.7c1-.8 1.1-1.3.5-2-.2-.2-.5-.9-.6-1.4-.1-.9 0-1 .6-1.1.4-.1 1.2 0 1.9.1 1 .3 1.2.3 1.6 0 .4-.4.3-.5-.4-1-.6-.4-.8-.8-.8-1.3 0-.8.8-2.2 1.4-2.2.1 0 .7-.3 1.2-.8 1.7-1.4 4-.8 2.6.7-.6.7-.6.7 0 1.6.4.8.4.9 0 1.6-.7.9-.1.9 1.5-.2 2-1.2 2.8-2 2.8-2.9 0-.4.2-1 .5-1.4.5-.6.6-1 .5-2.5 0-1.5-.2-2-.6-2.4l-.6-.6-1 .7c-1.2.9-1.8.8-2-.2 0-.5-.2-.7-.5-.7-1 0-1.2-.7-1-3 .1-1.9 0-2.4-.2-2.5-.2 0-.4-.3-.4-.4 0-.5-1.6-2.3-2.6-3-.5-.3-1.6-.7-2.4-.9a21 21 0 0 1-2-.6l-1.7-.2c-1.3 0-1.4.4-.5 1.6l.5.8.9-.5c1-.7 2-.6 2.8.4.4.4.9.6 1.4.6a3 3 0 0 1 1.8.8c1 .8 1 1 1 2.2 0 1-.1 1.5-.6 2-.7.7-1.5.8-1.7 0a6.7 6.7 0 0 0-2.7-2l-.6 1.2c-.3 1-.5 1.3-1 1.3-.8.1-1-.1-.8-1.3l-.4-1.3c-.5-.9-.8-1.2-2.1-2.2a4 4 0 0 1-1.1-1.5c-.4-.9-.5-1-1-.8-.6.4-1.7.4-2.4-.1-.5-.3-.8-.4-1.2-.1-.3.1-.8.2-1.2 0-.5 0-.6 0-.5.6.2 1-.8 1.4-2 .8-1-.5-1.3-.5-1.3.1 0 .7-.4 1-1.3.7-1.5-.3-2.8-2.3-2-2.9.5-.3.4-.9-.2-1-.2-.1-.5-.4-.6-.7l-.1.4c0 .4 0 1.1.2 1.6.3.8.3 1-.1 1.4-.8.8-2.2 1.2-3 .8-.3-.2-.8-.2-1-.2-1 .4.2 3.3 1.2 3l1 .1c1.6.8 1.2 2.7-.6 3.3-.8.2-1.1.5-1.2.9 0 .9.7 2 1.6 2.4 1.3.6 1.3 1.9 0 2.3-.4.1-.5.3-.2 1 .4 1.4 1.5 2.2 3 2.4l3 .7c.8.3 1.7.5 1.8.4.2-.1.3-.6.3-1 0-1.2.6-2.2 1.2-2.1.3 0 1 .3 1.6.6 2 .9 2.2 2.2.8 3.4l-1 .7 1.6 1.9 2.2 2.8c.6.7 1 1 1.6 1 .5 0 1.3.2 1.8.4 1.4.5 1.8.4 2.8-.3zm-1.8-9.2c-1-.8-1-2 .3-2.8.5-.3 1.2-.6 1.5-.6.7 0 2.3 1.7 2 2.3-.1.5-2 1.7-2.6 1.7-.3 0-.9-.3-1.2-.6zm-8.8-5c-1.5-.5-2.9-3.2-1.9-3.6.3 0 .4-.4.4-.7l.2-1c.2-.5 1.2-.6 1.6-.2.3.3.5.2.9-.1.8-.7 1.4-.4 2.1 1 1.6 3 1.6 4.5 0 4-.5-.3-.8-.2-1.7.3-.7.4-1.2.5-1.6.3zm105.7 13.6c0-.3-2.6-.8-6.2-1.1l-5.6-.5a207 207 0 0 0-19.8-.9c-.6.7.4 1 4 1.1a298 298 0 0 1 17.4 1.5c.6.2 10.2 0 10.2-.1zm-84.8-1.5c.2-.4 1-1.3 1.9-2.1.8-.8 1.4-1.6 1.3-1.7-.2-.4-.9-.1-1 .3l-1 .9c-1.5.7-3.2 2.2-3.2 2.7 0 1 1.3.9 2-.1zm-79 0c-.1-.1-.2 0-.2.2 0 .3 0 .5.1.4v-.5zm175-.6.2-3.5c0-2.8 0-3.3-.6-4.3l-.7-1.5c-.3-.7-.7-.5-.9.4a3 3 0 0 1-.4 1.2c-.4.4-1.6 0-2-.7-.4-.6-.4-.8 0-2.3l.3-2.3.5-3.1c.6-2.5 1-11.8.6-11.8-.3 0-.8 1.5-.8 2.3 0 .4 0 1.3-.2 1.9-.2.6-.3 1.5-.3 2.1 0 .6 0 1.3-.2 1.5-.4.4-.9 3.7-.9 5.8 0 .9-.1 2.2-.3 2.8-.3 1-.5 1.2-1.1 1.3-.5 0-1 0-1.1-.4-.5-.6-.5-2.6 0-3.9.2-.6.3-1.6.2-2.5 0-1 0-1.6.2-1.7.1-.1.3-.7.3-1.4 0-.6 0-1.2.2-1.3.1 0 .3-1 .4-2.2.3-3.8.7-7.3 1-9.2.5-1.8.6-4 .3-4s-2.6 1.1-3.4 1.6c-.4.4-1.1.8-1.6 1l-3.7 2.2c-.2.2-.4 2-.5 4.5a91.9 91.9 0 0 1-1 13.4c.4 1 .4 1.3 0 1.7-.3.2-.6 1.4-.9 2.7l-.5 3c-.2 1 .4 1.6 1.6 1.6a861.2 861.2 0 0 0 4.6.8c2.5.6 3.4.9 4.3 1.6.5.4 1 .8 1.2.8a17 17 0 0 1 4 1.9c.8.6 1 .6 1.2 0zm-200.5-1.3c.7-.8 1-.9 1.6-.7.4 0 1 .3 1.1.5.4.4.8.5 1.3.4l2-.5c1-.2 2.4-.6 3-.9.7-.3 1.5-.5 1.8-.5.7 0 1.5-.3 2.7-1.2.5-.4 1-.6 1.4-.6 1.2 0 1.2 0 1.2-8.2 0-7.5.2-11.2.7-14.2.2-1.5.2-1.6-1.2-4.2-.7-1.4-1.7-3-2.1-3.4l-1.3-1.7-1-1.5c-.5-.4-.8-.9-.8-1l-.9-.7c-.8-.4-1-.4-1.8-.1-.9.3-1 .3-1.8-.2a14.7 14.7 0 0 1-5.8-6.4c-.4-.9-.8-1.4-.8-1.2v3c.3 2.4.3 2.6-.2 3.3-.3.4-.6 1.1-.6 1.7 0 .6-.1 1.2-.3 1.4-1 1-2.3-.4-2.3-2.3 0-1.3-.7-4.3-1-4.7-.2-.1-.3.7-.3 2.2 0 2.4 0 2.5-.7 3.3-.5.5-1 1.3-1.1 2a7.9 7.9 0 0 1-1.5 2.8c-.2.3-.6 1.3-.8 2.3-.3 1-1.1 3-2 4.7-.7 1.6-1.3 3.1-1.3 3.4 0 .2-.3 1-.7 1.7-.4.8-.7 1.8-.7 2.4 0 1-.1 1.2-2.3 3.4a16.8 16.8 0 0 0-2.4 2.6c0 .2-.3.4-.7.4-.3.1-.7.5-1 .9-.3.6-.2.7.3 1.1.5.4.6.6.5 1.5-.1 1.1.4 2.5 1 2.5.5 0 3.6 1.5 5 2.5l1.6 1c.2 0 1.5.8 2.8 1.8 1.8 1.4 6.2 2.7 8 2.4.3 0 1-.5 1.4-1zm-1.7-12.4c-2-.6-4.7-2.7-5.1-3.8-.4-1.2 1-1.7 2.5-1 .6.2.9.2 1.4-.1.6-.3.8-.3 2 .2 1 .5 1.3.6 2 .3.4-.2 1-.2 1.5 0 2.1.7 3.2.8 3.9.7 1.1-.3 1.8 0 1.8.8 0 .5-.4.9-1.8 1.9-1.9 1.2-1.9 1.2-4.5 1.3-1.7 0-3 0-3.7-.3zm190.6 13c0-.4-.1-.4-1.2-.4a35.3 35.3 0 0 0-9.1-1.2l-4.3-.3-6.9-.2c-2.7 0-6-.2-7-.3-1.9-.2-2.3-.2-2.6.2-.2.3-.3.5-.2.6.1.1 4.8.2 6.7.1A390.3 390.3 0 0 1 395 195c0 .4 1 .3 1.2-.1zm-70.7-3.4c.3-.3.4-.6.4-.7-.2-.2-1.8.6-1.9.9-.2.6 1 .5 1.5-.2zm-7-.9c.7-.5.8-1.3.2-1.5-.7-.3-.9-.2-1 .4-.1.4-.4.9-.6 1.1-.4.4-.4.4.1.4l1.2-.4zm43.1-.5c.9-.2 3.1-.5 5.1-.5l7.1-.3c3.3-.1 9.8.2 13.6.6 1.8.2 1.8.1 2-3.8.4-4 .8-8.6 1-9.4.3-1.4.5-4.8.5-8.2V165l-.6-.2a2 2 0 0 1-1.1-.9c-.4-.7-.4-.7.5-1.5.4-.4.7-.8.5-.8-.7 0-1.4.1-1.7.4-.2.1-.5.2-.5 0l-.7.3c-.5.5-4 1-4.1.7-.1-.2-.5-.3-1-.3l-1.1-.2c-.1-.2-2.2-.3-4.7-.3a26.5 26.5 0 0 1-5.3-.3h-1.2a14 14 0 0 0-2.5-.2c-.8 0-1.5-.1-1.6-.3 0 0-1.3-.3-2.7-.4l-5.7-.4c-8.1-.7-9.6-.7-10.4.2-.4.4-.4.5.4 1.3a4 4 0 0 0 1.6 1c.4.1 1 .4 1.2.7.3.5.3.7 0 1.3-.5.6-.5.9-.2 2l.6 1.3c.2.1 1 0 1.7-.1 1.2-.3 1.5-.3 1.8 0 .6.5 0 1.5-.8 1.7-1.2.3-1.5.5-1.6 1.4-.1.7 0 1 1 1.5 1 .6 1.3 1.2 2.2 3.2 1.5 3.2 1.7 3.8 2 6.6a27 27 0 0 0 2 7.5c.3.4.8.4 2.7-.1zm10.1-1.6c-.3-.7-.2-3.5.3-8.6.9-8.5.9-8.7-.2-9.6-.5-.5-.6-.7-.3-1.2.2-.4.7-.8 1.2-1 .7-.3.9-.3 1.4.2.4.4.5.9.6 2 0 3.5 0 6.4-.5 7.7-.2.8-.3 1.8-.2 2.2.2 1-.4 7.5-.7 8.3-.4.9-1.1.9-1.6 0zm-6-.5c-.6-.6-.6-.7-.3-3.2.3-3.3.5-9.2.2-10.6-.3-1.8.6-3.2 1.5-2.3.3.3.4 1.4.4 7.4 0 4.5.1 7.2.3 7.5.2.4.2.7-.2 1.2-.5.8-1.2.8-2 0zm22.8-12.4c0-.3 0-.6.2-.7.6-.4.9-.2 1 .6 0 .6 0 .7-.5.7-.3 0-.6-.2-.7-.6zm-6.2-9.4a74.2 74.2 0 0 1-9.8-1.4c-1.2-.3-5-.6-8.4-.8-3.5-.2-6.4-.4-6.6-.6-.5-.4-.4-1.5.1-1.5a489 489 0 0 1 11 .3l2.6.4a50.3 50.3 0 0 0 9 .8c4.1.1 4.8.4 4.8 1.6 0 .4-.2 1-.4 1.1-.3.4-1.7.4-2.3 0zM407 184l.3-3 .4-3.8c.4-2.7.6-7.4.3-7.4-.2 0-.6 2.5-.7 5.1l-.4 3.9c-.5 5.3-.6 6-.3 6 .1 0 .3-.3.4-.8zm-94.5-3.3c.7-.6 1-1.2.6-1.2-.3 0-1.2 1-1.2 1.3l-.3.4c-.2.1-.2.2 0 .2l1-.7zm4.1-5c.1-.1.2-.9.1-1.6 0-1 .1-1.6.6-2.6 1.2-2.1.9-4.8-.7-6.3-.9-.7-.9-.9-.8-2.4 0-1 .2-2 .4-2.4.3-.6.3-.8-.2-1.1-.3-.2-.8-.9-1-1.5a7.5 7.5 0 0 0-3-3.2 25 25 0 0 1-2-1.2c-1.3-.9-3.1-1.1-4.2-.6-.4.3-.8.2-1.6-.1-.9-.4-1.1-.5-2.1-.1-1.3.4-1.6.4-2.7-.2a5.7 5.7 0 0 0-4.5.2c-.8.5-1 .5-1.8.2-1.8-.6-3-.1-5 2-1.6 1.7-1.8 2-1.8 3.3 0 .6-.3 1.3-.5 1.6-1 1.2-3 5.3-3 6 0 .7.6 1 1.9.6.8-.3 1-.5 1-1 .2-.6.3-.7.8-.7.6 0 .7.1.6 1 0 .7.1 1 .6 1.3.6.3.9.2 2.6-.7 1-.5 2.2-1 2.5-1 .3 0 1 .5 1.7 1 1.2.8 1.8 1 1.8.2 0-.6 1.4-1.5 2.1-1.3 2 .3 4.2 1 4.7 1.5s.9.4 1.3-.4c.3-.6 1.8-1 2.7-.8.8.2 2.7 3 2.7 4 0 1.2.4 1.5 1.2 1.3 2-.5 2.1-.5 2.9.1.9.7 1.7 2.7 1.7 4 0 1.3.5 1.7 1 1zm-12.5-11c-.6-.4-1.5-.6-2.1-.6-1.4 0-1.9-.4-1.5-1.2.5-.8 1.8-1.2 3-.8 2.2.6 2.9 1.6 2 2.6-.3.4-.4.4-1.4 0zm-7-4.5c-1.2-.9-.9-2.4.5-2.4 1 0 1.8 1.9 1 2.6-.4.5-.8.4-1.6-.2zm30.8 11c.5-1.3.6-3.6.2-3.6-.2 0-.3.5-.3 1 0 .7-.2 1.8-.5 2.5a9 9 0 0 0-.5 1.8c0 .7.7-.3 1.1-1.6zm-39.8.3c.5-.1.8-.4.8-.5 0-.4-1-1.5-1.4-1.5l-1-.7c-1.6-1.3-2.7-.5-1.3 1 .5.5.8 1 .8 1.5s.2 1 .6 1.2c.6.4.6.4.7-.1 0-.4.4-.7.8-.9zm18.5-2.9c-.4-.7-.7-.6-1.1.4 0 .3-.3.5-.6.5-.8 0-.3.7.8 1.3l1 .5.2-1c0-.5-.1-1.3-.3-1.7zm-13.5.7c0-.6-.6-1.4-1-1.4-.7 0-.8.6-.3 1.3.4.7 1.4.8 1.3 0zm115.3-2.5c.2-1.1 0-1.6-.4-1-.3.5-.4 2.1 0 2.1l.4-1zm-2.8-.8.3-2.4c0-.6 0-1.5.2-2 .2-.7.2-1.3 0-2-.4-1.3-.8-1.2-.6.1.1.7 0 1.4-.3 2-.4 1.2-1 4.7-.7 5.3.2.8.8.3 1-1zm3.4-6.3.3-4.3c0-.1-.2-.2-.4-.1-.4 0-.5.6-.5 5-.1 6 .2 5.7.6-.6zm-84-6.6c.1-.2.4-.3.7-.3.6 0 .7-.5.1-1.2-.4-.6-.5-1.6-.1-2.6s.4-4 0-5.7c-.4-1.6-1.9-5-2.2-5l-.6.3c-.3.4-.3 1.4-.2 5.8.2 6 .2 6 0 7.7l-.2 1.3h1.2c.6 0 1.2-.2 1.3-.3zm-101.9-.7c1.5-.2 1.7-.2 3.2-1.8a16.8 16.8 0 0 0 2.6-3.2 12777.2 12777.2 0 0 1 2.7-3.6 10 10 0 0 0 2.8-7.6c0-1.6.2-3.1.4-4 .3-.8.5-2 .6-2.6.1-1 0-1.2-.8-2.1-.5-.6-1-1-1-1.2l-.7-1-.6-.8-1.4.7c-1.5.7-2.3 1.3-4 3.4a477.2 477.2 0 0 1-4.1 5.2c-.4.5-.9.8-1.2.8-.8 0-1 .6-.5 1.2.6.9.3 3.6-.5 4.1-.8.5-1.7-.2-2.1-1.4-.1-.5-.2-.5-.2.2 0 1.3-1 2-3 2-1.8 0-2.4-.4-2.7-1.7-.2-.8.4-1.4 1.4-1.3 1.1 0 2.5-1.1 2.3-2-.2-.6.5-3 1-3.7.1-.2.6-.3 1-.3 1.2 0 3.2-.8 4.2-1.7a27 27 0 0 0 4.5-5.6c0-.6-1.3-1-4-1-1.3 0-3.5 0-4.8-.2l-2.3-.2-1.7-1.6-1.6-1.6-.8.8c-.6.6-1 .8-1.6.7-1.2-.2-1.6.1-2.1 1.7-.5 1.6-1.1 2.4-2 2.4-1 0-1.6 1.5-2.7 7.4-.3 1.4-.4 2.2-.2 2.9.2.5.2 2.4.2 4.2 0 2.6 0 3.4.3 3.7.3.3.4.3.5 0 .1-.4.7-1 1.1-1.1.2 0 .4-.8.4-1.5.2-1.6.9-2.3 1.7-2 .8.2 1.1 1 .9 2-.5 1.8 0 3.7 1.7 7.3.8 1.6 1.3 1.9 1.8 1.1.7-1 2.2-.6 2.6.7.2.4 1.5 1.2 4.4 2.4a4 4 0 0 0 1.7.2l2.6-.3zm163.8-8c0-.5-.4-1.3-1.2-2.3-1.4-1.7-1.7-1.4-.6.6l.8 2c.2 1 1 .9 1-.3zm-51.3-1.7c.2-.6.5-3.4.8-8.8.2-2.4.2-2.6-.2-2.3-.6.5-.7 1.4-1 6l-.4 4.8c-.1.7 0 .9.2.9s.5-.3.6-.6zm28-1c0-.3-.2-.5-.3-.4-.2 0-.2.3-.1.6.2.5.3.4.3-.2zm-.7-1.5c0-.3-.1-.1-.1.3 0 .5 0 .7.1.5v-.8zm15.5-3.8c-.4-4.1-.6-6-1-7l-.3-.9-.4 1.3c-.5 1.2-.6 1.3-2 1.9-1.8.6-2.2 1-1.7 1.6 2.8 3.4 4 4.4 5.1 4.4.4 0 .5-.2.3-1.3zm3.5-.3c.3-.4.4-1 .2-2 0-1 0-1.5.3-1.9 1-1 1.3-2.5 1.4-5.4 0-2 .2-3.3.5-4.1.8-2.2 1-4 .4-5.4l-.8-2.6a26 26 0 0 0-4.3-7.5c-1.4-1.6-2.4-2-3.4-1.4a70.4 70.4 0 0 1-2.3 1.4c-1 .6-1.2.7-1.8.4-.3-.1-.6-.4-.6-.6 0-.5 1-1.5 2.6-2.5 1.3-.8 1.5-1.5 1-3-.5-1.6-1-1.9-2.2-1.2-.5.3-1.3.5-1.8.4-.5 0-1.2.1-1.5.3-.6.3-.6.3.3.6l2.3.2c1.1 0 1.4.1 1.6.7.2.5.2.7-.5 1.3-1.5 1.6-2.4 2.2-2.9 2.2-1.3 0-1.7.7-.8 1.6l.5 1c0 .4 1.1.4 1.5 0 .3-.2 1 .2 1.2.8.2.5-.2 1.4-.6 1.4l-1.4 1a36 36 0 0 1-1.7 1.7c-.5.4-.6.6-.3.6.2.1.5 0 .6-.1.2-.2.6-.3.9-.3.3 0 .7-.3.9-.6.2-.3.5-.5.7-.5.5 0 1.6-.6 2-1.1l.4-1.6.2-1.3c.3-.4 1-.2 1.7.5s.8 1 .8 2-.1 1.2-1 2c-.7.6-1 1.3-1 1.6 0 .3-.2.8-.4 1-.2.5 0 .6 1 .7.9.2 1.3.4 1.9 1.1.6.9.7 1 .5 3-.2 2-.1 2.3.4 2.9.5.7.6 1.6.2 2.1-.3.3-.3.5.1 1.2a15 15 0 0 1 1.5 6c.3 3.7.8 4.7 1.7 3.4zm-7-8.3c.5-1.3.5-8.8 0-9.1a163.6 163.6 0 0 1-6.5.1c-.7 0-1 .1-1 .7-.2.8-1.4 1.8-2.1 1.8-.2 0-1 .8-1.5 1.7l-1.3 2c-.5.5-.8 1.3-.6 1.5 0 .2.6.4 1.1.5l2.1.4c1.2.3 2.3.1 2.9-.3.2-.2.6-.2 1.1 0 .5.3 1.3.4 1.8.4.8 0 1.2 0 1.8.7 1 1 1.7 1 2.2-.4zm-240.5.4c0-.2.4-.4.9-.6.9-.4.9-.5.8-1.6-.2-1.6.3-3.7 1.4-6 .8-1.5 1.2-2 2-2.5s1.4-.6 1.8-.5c.5.1.8-.1 1.9-1.7.5-.8.8-1 1.8-1.1.7 0 1.7-.5 2.3-.8a11 11 0 0 1 1.5-.9c.2 0 .7-.7 1-1.3.4-1 1.3-1.8 2.2-1.8.5 0 1 .9.9 1.7-.1.9 1.6 1.2 3.5.6 3.4-1 6.3-1.1 6.8-.2.1.2.8.4 1.6.5a8 8 0 0 1 2 .6c.5.2 1.3.2 2.7.1 2-.2 2.2-.2 3.2-1.2 1.4-1.3 2.1-1.2 3.4.7.5.8.9 1.7.9 2 0 1 .5 1.2 2.4 1.4l2.3.6c.6.3 2.1.4 5.4.4 4.2 0 5.2 0 7 .6.5.2.6.1.6-.5 0-.7 0-.7-1.9-.7-1.1 0-1.3 0-1.6-.6-.2-.6-.2-.8.2-1.2.7-.7 2.1-1.2 3.3-1 1.3.2 3.4-.9 4.6-2.3.7-.9 1.8-3.3 1.8-4 0-.3.2-.8.5-1.2.6-.8 1.2-3 1.4-5.3l.2-1.4-2.4-2.5a19.2 19.2 0 0 1-2.4-2.7 23 23 0 0 0-2.6-5l-.8-2c-1-2.1-2-6.6-2-9.3 0-2.2.4-3.2 1.8-5l1-1.4c.6-1 .8-1 2-1 .8.1 1.6.2 1.8.4a16 16 0 0 1 3.9 2.2c.2.3 2.1 1.3 2.2 1.2l.4-1.4c.8-3.5 1.4-4.3 3.6-5 1.7-.6 2.3-.4 3.8.8 1.4 1 1.5 1 2 .4s1-.6 2.5-.4c.9.1 1 0 2-1.4.7-.8 1.3-2 1.5-2.6.2-.5.7-1.6 1.2-2.2.4-.6.9-1.6 1-2.2.2-1.4 1-2.2 2.4-2.6 1.6-.5 1.5-1.2-.1-1.2-1 0-1.3.2-2.3 1.3-1.7 2-5.6 3.6-8.5 3.6-1.4 0-1.7 0-2-.6-.6-1-.6-2.9 0-3.6.4-.5.7-.6 1.8-.6s1.5 0 2-.5c.2-.3.5-.7.5-1l.5-.7c.7-.6 1.6-2.3 1.6-3 0-.2.4-.7.8-1.2.8-.8 1.8-2.5 1.8-3.1a15.8 15.8 0 0 0-7.7-7.8c-1.5-.5-3-.5-5.1.3l-2.6.6c-.4 0-.7.2-.7.4s-.2.6-.5.9c-.3.3-.6 1-.6 1.5 0 1-.2 1-.8 1.2-1.3.1-2-1.8-1.1-3.1.3-.5.3-.7 0-1.3l-1.3-2.7-1-2-.2 1.5c-.3 1.5-.3 1.7.2 2.9.7 1.5.6 2.1-.5 2-.5 0-1 .2-1.5.6-.8.8-1.4.5-1.9-1l-.8-1.6-.6-.6-.1.7v2.7c.1 1.8.3 2.3 1.4 4.1 1 2 1.2 2.3 1.2 3.8 0 3.1-1.1 6.2-2.9 7.6-.5.5-.6.9-.7 2.4-.3 3.1-.6 4.4-1.3 5-.9.7-1.2 2-.7 3.3.2.8.2 1-.2 1.3-.3.4-.5.4-.9.2-.4-.3-.6-.2-1.3.5-.5.5-1.3 1-1.7 1.1-.5.1-1.6 1-3 2.4a31.5 31.5 0 0 1-3.4 3 22.3 22.3 0 0 0-4.1 3.3c-.5.7-1.7 2.9-2.1 4-.2.6-.8 1.3-1.4 1.8-1 .9-2 2.6-2.2 4 0 .5-.2 1.2-.4 1.7-1 3.7-1.3 6.2-.8 6.5.2.1.3.6.3 1 0 .5.2 1.2.4 1.5.5.9.5 2 0 2.2l-1.8.3c-1.4.2-1.5.2-2.7-.7l-1.9-1.3c-.3-.1-1-.9-1.3-1.6-2.3-4.5-3-5.4-4.9-5.9l-3.4-1.3c-1.3-.6-2.8-1-4.3-1.2-3.3-.4-3.4-.4-3.4.4s-.8 1.3-1.7 1c-.9-.2-1.2.5-.6 1.3.3.3.4.8.4 1 0 .7-.6 1.1-1.2 1-.7-.3-2.7-2.1-2.7-2.6 0-.2-.3-.2-.9-.2-.7 0-1 .3-1.5 1.5-.1.3-.4.5-.8.5-.5.1-.4.2.7 1.6 1.2 1.5 1.4 1.9.8 2.4-.4.5-.9.4-2-.3-.5-.4-1.1-.7-1.4-.7-.4 0-1.2 1.4-1.3 2.5 0 .6-.3.8-1 1-.6.2-1 .1-2-.4-1.5-.9-1.8-.9-3-.2-.6.4-.9.8-.9 1.3 0 .7-1 2.1-1.5 2.1-.4 0-2.4 1.9-2.4 2.3 0 .1.2.4.5.6.6.4.7 1.3.1 3.8-.3 1.6-.3 2 0 3.3l1 2.7c1 1.7 1 2.4.1 2.7l-.7.2 1 1.5c1 1.4 2.6 2.6 4 3 .4 0 1.1.4 1.6.8.7.5.8.7.7 1.4-.1.5 0 1 .3 1.4.4.7.9.9.9.4zm-4.5-12.6c-.7-.7-.3-1.5 1.2-2.3 2.3-1.4 3.6-.4 1.8 1.3-1.4 1.2-2.3 1.5-3 1zm.6-6.6c-.8-.2-1.5-1.1-1.1-1.6.7-.9 3.4-.4 3.4.6s-.7 1.3-2.3 1zm50.2-1.7c-.6-.6-.6-.9-.3-1.6.4-.7 1.1-.6 1.8.1s.8 1.3.3 1.7c-.5.5-1.2.4-1.8-.2zm2.4-5.7c-.8-.9.3-4.7 1.4-5 1.3-.3 1.5.2.8 2.9-.6 2.3-1.4 3-2.2 2.1zm-2.3-1.3c-1.2-1-1.3-4.6-.3-4.6.6 0 1 .4 1.4 1.7.4 1.3.4 2-.2 2.9-.3.4-.4.4-1 0zm6.5-.4-.6-1.2c-.4-1-.3-1.1.1-1.8 1-1.6 2.1-1 2.1 1 0 1.5-.7 2.5-1.6 2zm-10.2-1.7c-.7-1.8-.4-3.3.7-3.3.4 0 .6.4.9 1.4.5 1.8.5 1.8 0 2.4-.8.6-1.2.5-1.6-.5zm14.9-1.6c-.6-.6-.6-1 0-1.5.4-.4.6-.4 1-.2.5.5.6 1 .4 1.6-.3.6-.9.6-1.4 0zm-12.8-5.8c-.2-.6.3-3.3.8-4.3.2-.6.5-.7 1.1-.7.8 0 .8 0 .8 1.3 0 1.7-1.1 4-2 4-.3 0-.6 0-.7-.3zm18.3-24.4c-.1-.2.2-.8.7-1.4 1-1.2 2-1.6 2.3-1 .4.4-.1 1.8-.8 2.4-.7.5-2 .6-2.2 0zm-.8-3.7c-.4-.4-.4-.5.2-1 .8-.9 1.9-1.3 2.5-.8.6.4 0 1.3-1.1 1.8-1.2.5-1 .5-1.6 0zm1.6-4.5c-.7-.5-.4-1.3.6-1.4.8 0 1.5.5 1.3 1.1-.2.5-1.4.7-2 .3zm16.4-9.5-.4-1c0-.1-.3-.2-.9 0-1.1.1-1.8-.4-1.8-1.5 0-1 .2-1.2 1-1.7 1.7-.8 2.5-.8 3.9.2 1.1.9 1.2 1 1.2 2 0 .7-.2 1.2-.7 1.8-1 1-1.7 1.1-2.3.2zm27 75.6c.8-.4 3.3-2.8 3.3-3.3 0-.2 0-.5.2-.5l.7-1.1c.3-.6.9-1.2 1.2-1.4l.6-.3-.9-.6c-.5-.3-1.1-.5-1.4-.4l-2.3.4c-2.4.3-6 1-6.2 1.1l-.9 1.9c-.4 1-1 1.8-1 1.8-.5 0-.3.6.5 1.5.4.5.8 1.1.8 1.3 0 1 2.5.7 5.3-.4zm115-.3c0-.9 1.7-4 3-5.5.8-1 1.4-1.8 1.3-2-.2-.6-2.2-1-3.3-.6-1.1.3-1.7 1.2-1.9 3 0 .8-.3 2-.5 2.7-.5 2.1.1 4.3 1 3.2.2-.2.3-.6.3-.8zm4-.3c.6-1 1.2-1.8 1.2-2l1.1-1.7c.6-.9 1-1.7 1-2 0-1.2-2.6.8-3.5 2.7l-1 1.7c-.3.6-1 2.3-1 2.7l.6.2c.4 0 .9-.4 1.7-1.6zm-134-3.2a98 98 0 0 0 2.2-.5c1-.3 1.3-.3 2 0 1 .6 1.3.4 3.1-1.6.8-.8 1.8-1.6 2.2-1.8 1-.5 1.2-.8 2.4-2 1-1 1.3-1.1 2.1-.4.5.5.8.5 1 .3.9-.4.9-.6.2-8.2-.2-2.3-.2-2.4-1-2.5-.7-.2-.9-.7-.4-1.9.3-.9.4-4.7 0-4.9 0 0-.3-.3-.3-.5-.1-.3-.2-.2-.2.2 0 .3 0 .6.2.6.4 0 .3 1-.1 1.3-.2.2-.7.3-1 .2-.4 0-.7 0-.8.2-.2.6-1.1.4-2-.3-1.3-1-1-2.5.3-2.5.7 0 .8 0 .6-.6-.4-1.4-.4-2 0-2.3.6-.5 0-1-2.1-1.4l-3.7-.9c-1.5-.3-2.1-.3-3-.1-.6.1-2.5.3-4.1.3-2 0-3.2 0-3.3.3-.2.3-1.7.2-2.6-.2-.4-.2-.5-.1-.3 1l.6 2.4c.4.8.4 1 .1 1.4-.8 1-1.9.1-2.3-1.8a4 4 0 0 0-.3-1.1c-.2-.2-.5-1-.7-1.7-.3-.8-.6-1.6-.8-1.8-.3-.2-.5-1-.7-1.9-.1-.8-.4-1.6-.5-1.9a186.3 186.3 0 0 0-11.2-10.5 648.8 648.8 0 0 1-4.3-2.7c-.3 0-1.7 1.2-1.7 1.5l.7 1.1c1.2 1.6.6 2.9-.8 1.6-.6-.6-.6-.6-.8 0-.2.6.2 3 .9 5.4.5 1.8 1.4 3.7 2.8 6.1.4.6.6 1.4.6 1.7 0 1 1.4 2.9 4 5.6a39 39 0 0 1 5.6 6.9c.1.8 0 1.3-.4 1.3-1 0-.7 1.3.5 3 .4.6.5 1.3.6 3 0 1.7.2 2.4.7 3.5.4.7.7 1.6.7 1.9 0 1 .5 1.5 1.6 1.5 1 0 1.3.2 3 1.7l1.8 1.6 2.8.3c3.6.4 4.7.4 6 .1zm-5-1.7c-.4-.3-.4-.5-.2-1l.5-.7 1-.7c1-1 1.9-1.4 4.5-2.3 2.9-1 6.3-1.3 6.9-.6.6.7-.3 1.4-2 1.6-.8 0-2 .4-2.6.7-.6.3-1.7.7-2.5.8a7 7 0 0 0-3.2 1.4c-1 .7-1.8 1.2-2 1.2l-.5-.4zm1-4.2c-.8-.5-.3-1.3.9-1.9.8-.3 1-.4 1.4-.1.6.5.5.9-.2 1.5-.8.7-1.6 1-2.2.5zm-1.9-2.4-.1-1c0-.7-.2-1-.4-1-.6 0-1-.7-.8-1.3.1-.4.4-.5 1.6-.5 1 0 1.5 0 1.5.3l.5 1.5c.2 1 .2 1.2 0 1.5-.5.4-2 .7-2.3.5zm12.3-3.4c-.5-.2-1.6-.3-2.4-.3-1.8.2-3-.4-3.8-1.8-.9-1.6-1.2-2-2.7-2.7-1.7-1-2-1.3-2-2.3.2-1.3.9-1.5 2.1-.8 1 .6 1.2.6 2.6.3a8 8 0 0 0 2.1-.7c.4-.2 1-.4 1.5-.4 1 0 3.1.8 3.1 1.2l.4.2c.2 0 .6.4 1 .8.3.7.4 1.3.4 3.5 0 1.5-.2 2.9-.3 3-.2.4-.8.4-2 0zm-12-4c0-.2.3-.4.5-.4s.4.2.4.4-.2.4-.4.4a.4.4 0 0 1-.4-.4zm17.2-1.4c-.3-1.1 0-2 .6-2 .7 0 1 1.2.6 2.1-.4.9-1 .8-1.2-.1zm-26.8-2c-.9-.5-2.4-2.3-2.8-3.5a26 26 0 0 0-2-3.4 11 11 0 0 1-1.4-2.8c0-.3.3-.7.7-1 .5-.3.7-.6.6-1.2v-1.3c0-.5.7-1.3 1.2-1.3.6 0 1.6 1.1 2 2.4l1 2.2c.2.6.7 1.4 1 1.7.5.5.8 1 .8 1.9l.5 2.3c.4 1.3.2 3.1-.6 3.8-.4.4-.5.5-1 .2zm70.7 15.2c.2-.4 1.8-.4 2.5 0 .4.2.8.2 1.5 0 .9-.2 1.2-.5 1.7-1.5.3-.7.8-1.3 1-1.4.3 0 .6-.3.6-.7 0-.4.3-.5.8-.5.7 0 1-.2 1.4-1a8 8 0 0 0 .8-2c.2-1.2.7-1.8 1.8-2.3.9-.4 1.5-1.4 1.5-2.5 0-.4-.2-.6-.8-.7-1-.2-1.1-.7-1.7-5-.3-2-.6-3.2-1-3.6-.6-1-.6-1.5 0-2.7.4-1 .5-3.3 0-3.5l-.3-1.1c-.1-.6-.4-1.3-.6-1.6-.3-.6-.4-.9-.1-1.8l.3-2c0-.4.2-1 .5-1.4.5-.6.6-1 .4-2.1l-.3-3a16.6 16.6 0 0 0-1.8-6 29.4 29.4 0 0 0-2-4.8c0-.5-2.9-3.6-3.3-3.6-.6 0-1.7.7-2.8 2l-1.2 1.3-1 1.5c-.2.6-.6 1.2-.7 1.3-.1 0-.4 1.2-.5 2.6-.4 2.5 0 5.9.6 7 .2.4.3 1.9.2 4.2 0 3.3-.1 3.7-.7 4.2-.3.4-.5 1-.4 1.4 0 .6 0 .7-.6.7-.5-.1-.6-.3-.6-.9 0-.6 0-.7-.8-.7-1 0-1.7-.3-2.8-1.2-.6-.5-.8-.8-.8-1.6 0-.6-.2-1.7-.5-2.4-.3-.8-.5-2-.5-2.8 0-.8-.1-1.5-.3-1.7-.1-.1-.9-1.4-1.6-2.9-2.1-4-2.3-4.5-2.3-4.8l-1.4-1.6c-.8-.9-1.3-1.6-1.3-2 0-.4-.1-.7-.4-.7-.2 0-.4.3-.4.6 0 .4-.2 1-.4 1.4-.3.6-.4 1.3-.2 2.8.1 1.7 0 2-.4 2.6-.6.8-1.4.6-1.4-.4 0-.5 0-1-.2-1-.2-.2-.4-1.1-.6-2.1l-.4-1.9-.2 1.3-.3 3.2c-.2 1.8-.2 2 1 4.3.9 1.8 1.5 2.7 2.4 3.5 1.4 1.2 1.6 2.2.7 2.6-.7.4-.7 1.4.1 2.2.6.5.7.8.7 1.7 0 1.3 1 4 1.7 4 .2 0 .5-.1.7-.3.2-.3.7-.4 1.3-.4 1.2.1 1.4.9.5 1.7-1.4 1.3-2.4 5.7-1.8 7.8.2 1 .2 1.2-.2 1.9-.2.4-.7.8-1 1-1 .3-.8 4 .4 6.4 1 2 2.8 3.8 4 4.3l1.3.7c.2.3.8.7 1.3 1l1.7 1.4 1 .8 1 .5c.5.4 1 .5 2.8.5 1.2 0 2.3 0 2.4-.2zm-5.9-4c0-.1-.3-.3-.6-.3-.5 0-1.1-.9-1-1.4.4-.7 2.1-.5 2.8.2.8.8.6 1.8-.4 1.8-.3 0-.7-.1-.8-.3zm7.2-2.4a8 8 0 0 1-.5-3.6l-.1-1.2c-.4-.5-.3-3 0-4l1.5-2c1-1.2 1-1.2 1.8-.8.4.2.8.7.9 1 0 .4.5 1.7.9 2.8.6 2 .6 2.4.4 3.9-.4 2-.6 2.3-1.8 2.3-.5 0-.8.1-.7.3 0 .2 0 .6-.3 1-.4.6-1.9.9-2.1.3zm-13.4-.4c-.7-.8.5-1.9 1.3-1 .3.3.4.5.2.8-.4.6-1 .7-1.5.2zm5.4-4.7c-.5-.5-.4-2.5.1-2.7l.7.1c.6.6 1 0 1-1.7 0-1.8.2-2.1 1-1.7.5.3.6.6.6 2.3 0 2.4-.3 3-1.2 2.7-.6-.2-.6-.1-.8.6-.2.8-.8 1-1.4.4zm-1-3.6c-.5-.2-1-2.7-.7-3.6.2-.6.4-.8.8-.8.6 0 .7.2 1 1.4.5 1.8.4 2.7-.2 3-.6.3-.5.3-1 0zm10.5-12v-1.6c.2-1 0-2.1-.8-8.4l-.7-3.3c-.8-3-.4-6 .8-6 .8 0 1.3 1 1 2.2-.2 1.5.3 3 1.1 3.6.4.2.7.6.7.7 0 .5 1.6 2 2.1 2 1.8 0 .4 6.9-1.8 9.3a3 3 0 0 0-.6.8c0 .4-.8 1-1.2 1-.2 0-.5-.1-.6-.4zm21.6 26.5c.4-.4 1-.7 1.2-.7l1-.4c.7-.2.8-.4.8-1.8 0-1.8-.3-2.3-1.8-4l-1.6-2c-.2-.6-1-1.5-1.5-2.2l-2-2.3c-.5-.6-1.5-1.6-2.3-2.2-.8-.6-1.4-1.2-1.4-1.4l-.2-.4c-.3 0-.9-1.3-.9-1.9a2 2 0 0 0-.4-.9c-.4-.5-.4-.4-.3 1 0 .7.4 2 .8 2.9a7 7 0 0 1-.1 6.4l-.8 1.8c0 .2.7.2 1.5 0 1.3 0 1.4 0 1.9.6.4.7.4.8 0 1.4-.3.5-.6.7-1.3.8-1.1 0-3.6.8-3.8 1.1-.1.2.5.3 1.3.3 2.1 0 3 .4 3 1.3 0 .5-.2.9-.6 1.2l-1.4 1-.6.7h1.2a6 6 0 0 0 3.4-1.3c.3-.3 1.2-.4 1.2 0l.6 1c.7 1.1 1.8 1.2 3 0zm-36 0c.4-.5.4-.7-.4-1.1-2.6-1.5-2.8-1.6-4.5-1.4l-2 .3c-.7.3-.5 1 .5 1.8 1 .6 1.3.7 3.6.7 2 0 2.6 0 2.9-.4zm96.8 0c.2-.3.4-.6.3-.7 0-.1-.3 0-.7.4-.3.3-.4.6-.3.6l.7-.4zm-102-4.3c.5-.3.5-.4-.1-1-.4-.5-.7-1.2-.7-1.5 0-1-.6-2.1-1-2.1-.3 0-.3.6-.3 2.2 0 2.1 0 2.3.5 2.5.9.3 1.1.3 1.7 0zm102.4-8c.2-1.3.2-1.4-.4-1.4-.3 0-.7-.2-1-.4-.6-.6-1.3-.3-1 .3.2.8 2 3.1 2.2 3l.2-1.5zm15.2-4.5v.9-1zM222 88.8h1.3l-.7-1c-.9-1-1-1.6-1.4-3.8-.3-1.7-1-3.8-1.6-4.7l-1-2c-.4-.8-1-1.6-1.2-1.8l-3.3-3c-3-3-3.5-3.3-3.4-1.5 0 1.5-.4 2-1.2 1.2-1-1-1.3-.5-1.3 2v2.4l1.8 2a219 219 0 0 1 5 5.5c.8.7 1.2 1.4 1.3 2 0 .6.4 1.3.6 1.6.5.7 2.4 1.4 3 1.2l2-.1zM261.7 65c.3-.3.7-.6.9-.6.3 0 .2 0-.2-.2-.7-.3-1.9.3-1.9 1 0 .5.6.4 1.2-.2zm-36.7 240.9c-.4-.4-.2-1.7.3-2 .3-.2 2.1-.4 4-.6 4.5-.3 6.7-.6 9.8-1.4 4.8-1.2 5.8-1.1 5.8.4 0 1-.9 1.6-2.2 1.6l-1.6.2c-.4.2-1.5.3-2.5.3s-2.2.2-2.7.3a146.6 146.6 0 0 1-11 1.2zm-65-12c-1.9-.9-3-3.7-1.9-4.3.6-.3 1.9-.3 2.3 0 .4.2 1.5 3.4 1.3 3.9-.2.6-1 .8-1.7.5zm108.8-1.2c-.7-.8-.6-1.3.3-1.9.9-.5 1.7-.3 1.9.6.2.6-.2 1.2-1 1.7-.4.2-.6 0-1.2-.4zm18.4 0c-1.1-.7-5.3-2-7.5-2.6l-2.3-.9-3-1c-4.8-1.2-6.7-2.2-6.7-3.5 0-1.1.8-1.3 2.1-.4.7.4 1.7.9 2.2 1 .9.1 1 .1 1-.8 0-.7.2-.9 1-1 .4 0 1.3.2 1.9.5l2.9 1a148.9 148.9 0 0 1 17 5.3c.6.6.5 1.5-.2 2.2-.8.7-2 .6-2.8-.2-1.1-1.4-2.7-1.5-2.7-.2s-1 1.5-2.9.5zm-147.8-1.3c-.2-.7.4-1.5 1.6-1.8a38 38 0 0 1 7.6-1.4c1.8-.2 2-.3 2.6-1 .3-.4.2-.5-.2-1-.6-.6-.6-.6-.1-1.1.2-.3.6-.5.8-.5 1.3 0 3-1 2.2-1.4-.1 0-.3-.3-.3-.6-.1-.4 0-.5.7-.5.6 0 .8 0 .7.5 0 .3-.2.6-.4.6l-.2.4c0 .3 4.2 0 6.6-.6 3.1-.8 3.8-.8 4.3 0 .3.7-.5 1.6-1.5 1.6-.3 0-1.2.1-1.8.4l-1.8.5c-.6.1-1 .6-1.7 1.5-1 1.8-1.2 1.9-3.2 2.6-1.6.5-2.8.7-8.7 1-2 .2-3.6.4-4.2.7-1.3.5-2.8.6-3 0zM156 287c.8-1 .8-1.5-.1-1.5-1.3 0-1.7.3-1.7 1.3 0 .7.1.9.6.9.3 0 .8-.4 1.2-.7zm-21 2.4c-.2-.2-.2-.5 0-.9.1-.5.4-.6.9-.5 1 0 1.4.8.9 1.4-.4.5-1.4.5-1.8 0zm63.2-4-.6-.6.5-.6c1.2-1.1 3.4-.1 2.3 1-.6.7-1.5.8-2.2.1zm-59.3-.5c-1.2-.9-.1-2 1.8-2 1.6 0 2.6.5 2.6 1.3 0 .6-.1.7-1.6.7l-2 .2-.8-.2zm172-5.4c-1.5-.2-2.1-.7-2.1-1.5 0-.7.4-1 1.5-1 .3 0 1 0 1.6-.2l3.7-.8 5-1.2 4.7-1.2c1.3-.2 3-.6 3.6-.9 2.3-.9 4.7-.5 4.7.8 0 1.2-.5 1.5-3.6 2-1.5.2-3.3.6-4 .9a87.1 87.1 0 0 1-10.9 2.8c-1 .3-2.9.5-4.3.3zm-1-5.4c-.8-.7-.2-1.5 1.2-1.7.7 0 1.9-.4 2.7-.7l2-.4 1.3-.3a107 107 0 0 1 11.9-2.8c3.8-.8 5.2-.8 5.8-.2.6.7.5 1.6-.1 2-.3 0-1.5.3-2.7.3-2.4.2-3.6.3-5 .6a171.8 171.8 0 0 0-13.9 3.3c-1.1.3-2.6.3-3.1-.1zm-16.2-3.8-2.5-.9a10 10 0 0 1-1.6-.6l-2-.7a28 28 0 0 1-3.3-1.4c-1.2-.5-2.4-1-2.7-1l-.8-.2c-.1-.2-1-.5-2-.9l-2-.8-.6-.2-1.8-.6a329.2 329.2 0 0 0-4.4-1.7l-2.4-1c-.4-1.3 1.2-1.6 3.6-.7l2.1.8a84 84 0 0 1 7 3l1.3.4c1 .5 9.7 3.4 12 4 2.5.7 3.1 1 3.6 1.7.4.6.5.7.2 1-.5.7-1.7.6-3.7-.2zm-39.3-2a472.3 472.3 0 0 1-8-3.5 105.2 105.2 0 0 1-5.6-2.3c-2.2-.8-3.8-1.8-3.7-2.3.2-.7 1.2-.7 3 .2l2 .8 1.4.5 3 1.2c4.7 1.5 6 2 6.7 2.3 2.7 1.2 3.3 1.7 3.1 2.7 0 .7-1.1 1-2 .3zm4.7-2.9c-.4-.1-.6-.4-.6-1 0-.4-.2-1-.5-1.3a35.7 35.7 0 0 0-10-5.2 108.4 108.4 0 0 0-11.3-3.3c-3.9-.8-6-1.2-9-1.5-1.9-.2-2.7-.7-2.4-1.5.2-.4.4-.5 1.4-.4a70.1 70.1 0 0 1 10.9 2 99.3 99.3 0 0 1 11.8 3.8c.7 0 8.8 4.2 10 5 2 1.7 2.4 2.3 1.5 3.2-.6.5-1 .6-1.8.2zm37.9-5c-.3-.3-1-.5-1.5-.6-.8-.2-2-.7-3.8-1.7l-1.5-.7a942.6 942.6 0 0 1-8.2-3.4l-2.9-1c-3.3-1.2-5.7-2-7.4-2.4-1.4-.3-3.8-1-5.3-1.6-.6-.2-.8-.5-.8-1 0-1.2 1-1.3 3-.4a42.3 42.3 0 0 0 6.7 2.2l2.6.8 3.1 1c1.6.8 3.6 1.4 4.2 1.4.3 0 1.5.5 2.6 1 1.1.6 3 1.4 4.2 1.8l2.6 1c.3.2 1.2.6 2 .8 2.8.9 3.2 1.1 3.1 2 0 .9-.1 1-1.1 1a3 3 0 0 1-1.6-.3zM197 246l-1.5-.8c-.4-.2-1-.6-1.1-.8l-.8-.4c-.7 0-1-1-.5-1.3.6-.4 1-.3 3 .7 2.4 1.2 2.5 1.3 2.4 2.2 0 .8-.6 1-1.5.4zm-26.7-3-5.4-.4-5.6-.3c-6-.2-12-.6-13-.9-.6-.2-.8-.4-.8-1v-.8h1.9c3 0 10.5.4 16.7.9a204.2 204.2 0 0 0 13.5.6c.5 0 .6 1 .2 1.6-.3.4-.7.5-1.6.5l-6-.3zm28.7-1.3c-.6-.5-1.5-1-2.1-1.1l-2.7-1c-1.5-.4-2.9-1.5-2.6-2 .2-.4 1.8-.2 3.3.3l2 .5c.3 0 .7.2.8.3 0 .2.3.3.6.3s.7.2 1 .4l1.2 1c.6.3.8.6.7 1.2-.1 1-1 1-2.2 0zm-51.6-6.7c-.7-.2-5.6-.4-13.9-.4a294.8 294.8 0 0 1-39.3-2.2c-2.2-.3-3.6-.7-3.7-1.3-.1-.1 0-.5.3-.8.5-.6.6-.6 2.9-.3l3.8.5a158.1 158.1 0 0 0 9.3 1.2c.8.2 5 .5 12.7 1 7.3.3 6.8.3 20.8 0l12-.2.6.7c1 1 .6 1.8-.8 1.8l-2.3.1-2.4-.1zm241.2-7.6c0-.3 0-.3.2-.2l.4.5c.1 0 0 .2-.2.2a.4.4 0 0 1-.4-.5zm20.6-6.3c-1-.3-1.3-2.6-.3-4 .2-.4.4-1.7.6-3.6 0-1.7.2-3.2.3-3.3.2-.2.4-1.8.6-3.6.4-3.8 1-7.2 1.6-8.9a73.7 73.7 0 0 0 2.5-9.4c.3-2 1-4.5 1.7-6 .6-1 1.6-1.3 2.4-.6.6.6.4 2-.6 4l-1.4 4c-.3 1.4-.7 3.2-1 3.9-.5 1.9-.4 2.3.5 2.9l.8.4-.1 1.8-.4 3.4c-.2.8-.5 3.7-.7 6.3-.8 8.9-1.1 10-3 9.4a7 7 0 0 0-.7-.3l-.2 1c-.4 2-1.3 3-2.6 2.6zm3.4-12c-.1-.2-.2 0-.2.4s0 .6.2.4v-.7zm.5-1.7c-.1-.2-.2-.1-.2.2 0 .3 0 .4.2.3v-.5zm5.7 7.5c-.3-.1-.6-.4-.7-.6a166 166 0 0 1 0-16c.4-2 .5-3.4.2-6.6-.2-2.5-.1-2.7.4-3.2.3-.3.7-.6 1-.6.3 0 .9 1.1.9 2l.2 1c.2.2.2.4 0 .6v2.7c.2 2 .2 2 .3.9 0-2 .4-3.4 1-3.7.5-.3 1.5 0 1.8.5.4.6.4 5.6 0 6.3-.2.4-.5 1.8-.7 3.2-.1 1.4-.5 3.5-.8 4.6l-.6 4.4c-.3 3.6-1.3 5.1-3 4.5zm-31.7-3.4c-.3-.1-1.5-.3-2.8-.3a56.7 56.7 0 0 0-9-.6c-5.8-.2-6.6-.3-6.6-1.2 0-.2-.4-.3-1.4-.3-1.6 0-4-.4-4.9-.9-.4-.2-.6-.5-.6-1 0-1 .6-1.3 2-1 1.2.3 5 .7 9 1 2.8.1 3.6.4 4 1.4 0 .4.5.4 6.7.6 3.7.2 4.8.3 5.1.6.6.5.6 1.3 0 1.7-.6.3-.8.3-1.5 0zM113.4 209c-.6-.5-.7-.8-.5-1.2.4-.7 1-3.5.8-3.7-.1 0-.4 0-.7.3-.6.6-1.8.5-2.2-.1-.2-.4-.2-.8 0-1.4.2-.6.5-2 .6-3.3.1-1.3.3-2.7.5-3 .2-.6.3-1.4.2-2.1-.2-.9 0-1.5.2-2s.4-2 .5-3.8a376.2 376.2 0 0 1 2.7-32.3c.3-5.6.4-6.4.8-6.8.2-.1.6-.2.9-.1.8.3 1 1 1 2.8 0 1.6.2 2 .6 2.4.5.5.6.7.4 2.8 0 1.2-.3 3.2-.4 4.4a211.9 211.9 0 0 0-1.7 22.5l-.3 5.3c0 2.7-.2 5.7-.3 6.7l-.2 6.3c-.1 5-.3 6-1.5 6.5-.7.4-.8.4-1.4-.2zm.3-6.6c0-.3-.1-.1-.1.5v.6-1.1zm14 5.9c-.3-.4.2-1 .9-1.2.6-.1.7.3.1 1-.4.5-.8.6-1 .2zm-39-1.1v-2.8c.2-1.4.3-3.8.3-5.4 0-1.5.2-3.7.4-4.9.2-1.1.4-3 .4-4.2.1-1.2.4-2.5.6-3 .4-1 1.1-5 1.3-7.6.1-3 .3-5 .9-9.4a78.6 78.6 0 0 0 .7-7l.4-3.2c.3-4.7.7-7.6.9-8.1.4-1 1-1 2.3 0 .7.5 1.3 1.1 1.4 1.4.1.4 0 2.6-.7 8a209 209 0 0 0-1 12c-.2 1.4-.4 3.8-.4 5.3l-.4 5.8a105 105 0 0 0-.4 6.3 35 35 0 0 1-1 8.2c-1 8.3-1.2 8.7-4 8.8-.8 0-1.6 0-1.7-.2zm3.5-7.5c.1-1.2.3-2.4.5-2.7a81 81 0 0 1 1.2-11.8c.2-1.4.3-3.4.3-4.3 0-1.6 0-1.8-.4-1.3-.2.3-.5 1.5-.7 2.6l-.5 3.5a78.8 78.8 0 0 0-1 17.2c.3-.6.5-2 .6-3.2zm66.8 6.8c-.3-.3-.3-.7 0-2 .4-2.2.7-5.3 1-8.5 0-1.5.3-3.3.5-4.1.5-1.8.8-6 .8-9a21007.7 21007.7 0 0 0 2.2-25c.3-5.4.5-6.1 1.3-6.1 1.1 0 1.4 1 1.2 4.5 0 1.7-.3 4.3-.5 5.7-.2 1.4-.5 3.7-.5 5l-.6 5.3c-.2 1.5-.6 6-.8 10-.2 3.9-.6 8.2-.8 9.6-.4 2.8-.9 7-1 9.5-.2 4.2-1.6 6.7-2.8 5.1zm-15.6-2.6c-.2-.5-.4-.6-1-.6-1.4 0-1.5-.2-1.1-4.2a418.9 418.9 0 0 0 1-13.2 467.7 467.7 0 0 0 1.8-19.3l.5-6.2c.1-3.9.4-6.7.7-7.2.4-.7 1.2-.8 1.7 0 .4.5.4 1 .1 4.5l-.3 3.9.9.8.8.8-.2 3.3c-.1 3.3-.2 4-.7 10.2l-1.2 13c-.2 2-.4 6-.4 8.7-.1 4.5-.2 5.1-.6 5.6-.7.8-1.7.7-2 0zM66 202c-.5-.8-.5-1.1.1-1.7.4-.3.6-.9.6-2.2l.6-5.7.7-8.4.7-9 .5-7.7c0-2.9-.3-3.8-.5-1.6l-.5 2.6c-.3 1.6-1 6.4-1.3 10-1 9.9-1 10-1.7 10.8-.5.5-.8.6-1.1.3-.5-.3-.6-1.3-.1-3.4.4-1.6.8-4.8 1.1-8.6a174.2 174.2 0 0 1 1-10c0-2.6 0-3-.3-3-.6-.3-.6-1 0-1 .8 0 1-1.1 1-5.2 0-4 0-4.1.5-4.5.7-.4 1.4-.2 1.6.5.3 1 .3 4.5 0 7.3v2.7c.5 0 1-2.8 1.1-7.2.1-2.4.3-4.7.5-5 .1-.4.5-.7.9-.7.8-.1 1.5 1.4 1.2 3l-.4 4.7a155.4 155.4 0 0 1-1.2 13.1 74 74 0 0 1-.5 5.2 111.2 111.2 0 0 0-1.1 19.8c0 1.4-.8 4.7-1.3 5.1-.7.5-1.6.4-2-.2zm-19-11.6c-.3-.4-.2-1.1.3-4.7.6-4.2 1-10.4 1.2-21.8a72.3 72.3 0 0 1 .7-10c0-3.6 1-5.5 2.1-4.3.6.6.7 1.4.3 3.6a232 232 0 0 0-1.2 19.7 207.1 207.1 0 0 1-1 14.1c0 2.2-.4 3.5-1.1 3.8-.7.2-.9.2-1.3-.4zm-7-10.2c-.3-.4-.4-.8-.2-3.2l.4-7.5a77 77 0 0 1 2-19.4c.3-.6.6-.7 1.2-.7 1 0 1.2.4.8 2.9-.8 4.9-1.2 9.5-1.7 20.5-.3 6.4-.4 7-.8 7.4-.7.5-1 .5-1.6 0zm305-24.3c0-.6.7-.8 1.2-.4s.3.8-.5.8c-.4 0-.7-.2-.7-.4zm4.8-10.5c-.6-.7-.6-1-.4-2.9.4-4.8.5-5.6 1-5.9 1-.7 1.8 1 1.3 3-.3 1.1-.2 2.5.3 5 .4 1.7-1.2 2.2-2.2.8zm-209.9-4.1s-2.8-.3-6-.4c-9-.4-11.1-.7-11.1-1.7 0-.8.8-1.3 1.8-1l9.4.2c8.7 0 9.6.2 10.2 1.2.2.4.1.6-.3 1.2-.5.6-.7.6-2.2.6l-1.8-.1zm-52-1.9-7.3-.4c-7.4-.3-8.4-.6-7.6-2 .3-.6.5-.6 2.2-.4l5.4.2c3.9.1 2.8-.2-2-.6-2.6-.2-3.5-.5-3.5-1.3 0-.5 1-.9 2-.7.8.1 1 0 1-.3s-.3-.4-1.4-.4c-.8 0-1.8 0-2.2-.2-.5-.1-4.1 0-8.4.1-5.5.3-9 .3-13.2.1l-8.5-.3c-2 0-2.9 0-3-.3-.5-.5 0-1.4.7-1.7 1-.2 5.7-.2 8.7.2 1.7.2 3.8.2 5.4.1 3.8-.2 14.2-.3 18.1 0 7.5.4 10.1.7 10.4 1.2.4.8-.6 1.2-2.3 1-1.5-.2-4 0-4 .3s2.6.5 9.2.9c7.7.3 8.4.4 8.7 1 .2.4.2.7-.4 1.2-.5.5-.7.6-1.6.4l-1.6-.3c-.6 0-.6 0-.2.6.3.6.3.7-.1 1.1-.6.5-2.3.7-4.4.5zm3.5-2.1a2 2 0 0 1-.8-.4l-1-.2c-.7 0-.7 0-.4.4.2.2.7.4 1.5.3.7 0 1 0 .7-.1zm-2.8-.5H88c-.2 0-.1.1.2.1l.4-.1zm65.6-7.3-5.6-.2c-3.5.1-4 0-4.2-.4-.4-.6 0-1.3 1-1.5 1.3-.4 5.1-.4 8.8 0 4.3.4 20 .2 22.5-.3 1.8-.3 3 0 3 .8 0 1.2-.7 1.3-6.1 1.5-9.1.3-17.6.3-19.4.1zm-32.9-.4c0-.1-2-.3-4.4-.4-10.1-.5-13.4-.7-15.4-1a37 37 0 0 0-8.2.1c-1 .1-3.1 0-4.8-.1-5-.5-10.8-.8-19.3-1-8-.2-8.6-.3-9.4-1.3-.3-.3-1.2-.4-6.6-.3-3.6 0-6.8-.1-7.4-.3-1.4-.3-10.2-.6-14.3-.5-5.7.2-6.5.1-7.2-.4-.7-.7-.6-1.8.3-2.2.7-.4 2-.4 10.5.2 3.4.2 4.2.2 5.2-.2.8-.3 1.7-.3 3.6-.2l6.6.2 9.4.4 17.7.7c5.7.2 6 .2 6.7.8.4.3 1.4.7 2.2.9l2.1.5c.4.2 4.5.3 9.2.4a266.9 266.9 0 0 1 22.4 1.2c3 .3 4.7.8 4.7 1.4 0 .9-.6 1.3-2 1.3l-1.6-.2zm220-6.4c-.7-.1-1-1.3-1-2.6a136.5 136.5 0 0 0 1-10.3c.7-6.8 1.1-16.4.7-17.9-.2-1-1.2-1.6-2.6-1.8-1-.1-1.1-.2-1.2-1 0-.5-.3-.9-.6-1l-5.5-.1-12.2-.3a49 49 0 0 0-7.4 0l-1.5.4c-2.1.3-2.2.4-2.2 1.4a3 3 0 0 1-.5 1.6c-.4.5-.6 1.3-.7 4.6-.2 4.8-.3 5-1 5-.6 0-.7-.2-.9-1.5v-7c.1-6 .1-6 2.4-6 .7 0 1.5-.2 1.6-.3.2-.2 1.4-.4 2.7-.5 2.2-.1 2.6-.2 3-.7.8-.8 1.2-.8 2.1 0l.7.7 8.5.1a143 143 0 0 1 14 1c2.3.1 4 .9 4.1 1.7 0 .4.1.4.5 0 .7-.7 1.4-.8 5.3-.9 3.4 0 3.9 0 4.5.5.8.5 1 1.2.4 1.7-.3.4-3.3.4-7.7.1-2.4-.1-2.6-.1-3 .4-.6.6-.8 2.2-.3 2.7s-.3 16.2-1 18c-.3 1-.6 2.9-.8 6.5 0 2.6-.5 5.2-.8 5.5h-.6zm6.3-.3c-1-1.1.1-2.3 2-2 1 .2 1.3.4 1.6.8.4 1-.2 1.4-1.8 1.6-1.2.2-1.4.1-1.8-.4zm-233-.8c-.2 0-4-.2-8.5-.2a85.1 85.1 0 0 1-12.6-.6 266.3 266.3 0 0 0-17.8-.6c-10.8-.2-17.3-.4-18.2-.8-.6-.1-6.8-.2-17.7-.2-14.1 0-17 0-18.4-.4-1.7-.4-9.7-.5-11.5 0-1.6.3-2.9 0-3-1 0-1 .6-1.3 2.8-1.5 2.2-.2 4.4-.7 3.3-.8-.4 0-.6-.2-.7-.7-.2-.5 0-.8.7-1.4.9-.8 2.2-1 2.8-.5.3.3 4.7.7 9.6.9a431.9 431.9 0 0 1 26.2 2 129.5 129.5 0 0 0 13 1.8c1.2.3 4.9.4 18.9.8l12 .5h4c.5-.2 1-.2 1.7.1a6 6 0 0 0 3 .3l9.3-.2c6.8 0 7.7 0 8.3.5 1.4.9.4 2.5-1.3 2.1-1.4-.2-3-.2-4.2 0h-1.6zm-70.5-4.3a280.7 280.7 0 0 1-10.1-.6l-4.5-.1 1 .5c.8.4 1.4.5 7.1.4 3.5 0 6.4-.1 6.5-.2zM24.9 116h-.8c-.2 0 0 .2.4.2s.6 0 .4-.2zm74.7 1.8a24 24 0 0 0-4-.3c-5 0-7.3-.3-8.2-1-1.2-.8-4.2-.8-4.6 0-.3.6-1.1.7-1.6.1-.6-.7-1.3-.7-2-.1-.5.5-.8.5-4.6.5l-6.8-.1c-2.5 0-2.8 0-3.3-.6-1-1.3.1-2.4 2-2a70.5 70.5 0 0 0 12.5-.2c1.7-.1 2.2-.5 2.7-2 .2-.9.7-2.3 1.2-3.3 1.3-3 2.1-5.8 1.9-6.6-.2-.6-1.2-.7-5.6-.3a21 21 0 0 0-7.1 1.4 4 4 0 0 1-1.8.5c-.5 0-1 0-1 .2v3.7c.2 3.4 0 5.1-.5 5.5-.1 0-.5-.1-.9-.4-.7-.6-1.2-2.8-1.3-6 0-1.9 0-2.3.5-3 .4-.4.6-1 .6-1.4 0-.4.2-.8.3-1 .5-.4-1.2-.7-4.2-.8-1.6 0-4.8-.3-7.3-.6-3.7-.4-6.3-.5-14.1-.5-8.2 0-9.7-.1-9.9-.5-.3-.6-.3-1 .3-1.4.5-.5.8-.5 3.9-.3l7.6.4c2.3 0 5.6.1 7.2.3 14.6 1.2 22.8 1.7 24 1.2.6-.3 2.6-.5 5.4-.6l4.5-.2 1 .7c2 1.3 1.9 3.7-.1 8l-1.9 3.8c-.7 1.6-.7 3 0 2.9.2 0 .4-.3.3-.6-.1-.8.7-1.5 1.9-1.5.5 0 1.3-.2 1.6-.4.5-.3 1.6-.3 7.8-.1l7.7.2c3.6 0 5.5.1 6 .5.8.5.8 1-.2 1.7-.4.3-.8.7-.8 1 0 .5-.7.7-2.1.6h-2.1l-2 .4c-1.3.2-1.3.2-1.2 1 0 .7 0 1-.5 1.2-.6.3-.5.3-1.2 0zm-2.7-2.3c-.6 0-.8-.3-1-.9l-.3-.8h-3.4a12 12 0 0 0-3.3.3c0 .3.7.5 1.4.5.4 0 1 .3 1.3.5.5.5 1 .6 3.4.5 1.5 0 2.4 0 2-.1zm7-2.6c-.1-.2-.3-.3-.4-.3l.2.6c.2.2.4.3.5.2 0 0 0-.3-.2-.5zm10.6-3.2c-.1-.1-6-.5-7.7-.5-7.9.1-14.9 0-15.2-.2-.5-.4-.4-1 .3-1.4.5-.3 1.3-.4 3.4-.4l10.3.1c7.5 0 9 .2 10.2 1 .4.4.4.6.2 1-.3.4-1.2.7-1.5.4zM8.8 108.3c-.4-.7-.3-.9.2-2.2.5-1.4.5-1.4.1-2.8-.5-1.8-.5-2 .8-2.7.8-.5 1-.5 2-.1 1 .5 4.8 1 7 1 1.5 0 1.7 0 2.2-.8.6-.8.7-.8 1.9-.7 2.5.3 11.8.7 18.7.8 9.3.2 14.3.6 14.7 1.3.2.4.1.5-.4.7-.3.1-.7.2-.8.1-.3-.2-8.8-.4-9.6-.2-.7.2-.7.2-.2.4.9.3 6.1.8 11.2 1 4 .1 4.8.3 5.2.6.2.3.4.6.3.9-.2.3-.7.4-3.3.4-3.5 0-11-.4-13.6-.8a539 539 0 0 0-28.4-1.5c-2.6-.1-3 0-3.7.4a2 2 0 0 0-1 1.5c-.3 1.3-.8 2.8-1 3.2-.2.2-.7.4-1 .4-.7 0-1-.2-1.3-.9zm310-1.6-.6-2.4c-.6-2.9-.3-3.3 2.3-3.3 1.6 0 2 .6 2 2.6 0 1.5-.5 2.7-1.2 2.7-.1 0-.5.1-.6.4-.4.4-1.5.5-1.8 0zm38.4-1.8c0-.9.6-1.3 1.2-.7.5.5.2 1.5-.6 1.5-.5 0-.6-.1-.6-.8zm-241-.2a38 38 0 0 0-12-.5l-6.4.2c-4.2 0-4.5 0-5-.5-1.2-1.2.6-2 3.5-1.6l2.6.1c7.9-.3 16.2 0 19.7.6 1.1.2 1.7.8 1.4 1.5-.1.3-.5.4-1.7.4l-2.2-.2zm2-7.4c-.9-.2-4.2-.3-7.3-.3a51.4 51.4 0 0 1-13.7-.6c-.4-.4-.4-.5.2-1 .7-.8.7-.8 4.6-.6 7 .2 16.6.6 18.6.8 2 .2 2.5.5 2.4 1.3-.1.4-.4.5-1.6.5l-3.1-.1zm271.8-2c-.8-1-.3-4.7.6-5.2.6-.4 2 .1 2.3.8.3.6-.1 2.8-.8 4-.6.9-1.5 1-2.1.3zm-343.3-.9c-.5-.6-.5-1.1 0-1.6.4-.5.9-.4 1.6.4.5.5.6.7.4 1.1-.4.7-1.4.7-2 .1zm26.6-.5a9.3 9.3 0 0 1-1.6-1.6c-.2-.3-.7-.7-1-.8a215.2 215.2 0 0 0-29.1-.7c-.9-.4-1-1-.4-1.6.4-.5 1.1-.5 11.6-.3l15.6.4 4.5.2 1 1.5 1.7 2.3c.3.4.4.7.1 1-.4.8-1.2.6-2.4-.4zm171.6-1.7c-.3-.5-.4-1-.2-2.4a159.2 159.2 0 0 0 1-8.2l.5-1.6c.1-.6.3-.7.7-.7.8.1.9.9.4 2.9-.3.9-.5 2.4-.5 3.4s0 2.4-.2 3.1c-.2.9-.2 1.7 0 2.2.4 1.6-.9 2.6-1.7 1.3zm12.7.2c-.7-.5-1-2.2-1-6.1 0-4.1.3-5.5 1.2-5.4.5 0 .6.2.5 2.8 0 1.6 0 3.6.3 5 .4 2.2.4 2.5 0 3.3-.5.9-.4.9-1 .4zm109-2.5c-3-.1-5.5-.3-5.8-.4-.6-.3-.6-1.4.1-1.8a117.8 117.8 0 0 0 9 0c6.6 0 8 .3 8 1.3 0 .3-.2.6-.4.8-.4.2-3.7.2-11 0zm-5-4.7c-.1-.1-2-.3-4.1-.4-9.4-.5-11.4-.8-11.4-1.6 0-.4-.7-1-1.1-1l-1.4.4c-1 .2-3.2.3-12.5.1-13.8-.2-13.3-.2-18.5-.5l-5-.3c-.3 0-.8-.2-1-.4-.4-.3-1.1-.4-3.1-.4h-2.7l-.3-.8c-.2-.6-.4-.8-1-.8-.7 0-1-.3-1.3-1.1-.3-1-.3-1.2 0-3.2a54.8 54.8 0 0 0 1.4-8 85 85 0 0 0 .3-14.7c-.6-.5-1.8 0-2 .8 0 .6-.5.7-1 .3-.4-.4-1.5-.2-1.4.3l.3 2.7c.3 3.3-.2 4.5-1.5 3.2-.6-.6-.6-.8-.6-2.7 0-1.7-.1-2.2-.4-2.2-.6 0-2.3 1.6-2.8 2.7-.3.7-.5.9-1.2.8-1.8 0-1.4-1.4 1.3-4.2 2-2 2-2.2 1.8-2.9-.1-.5 0-1.3.3-2.8.2-1.2.6-3.8.7-5.8l.5-5.6c.1-1 .2-2.9.1-4l-.1-2.3h-.8c-.4 0-.8 0-.9-.2-.2-.3.2-1.6 1-3.3.7-1.6 1-3.7 1-6.9-.1-2.3-.2-2.9-.5-3-1.4-.8-18.1-1.2-22-.6-1.6.2-2.1.2-3.7-.3-1-.3-2.7-.5-4-.5-2.3 0-6.2-.4-6.9-.8a1 1 0 0 1-.5-.8c0-.8 1-1 2.8-.9 4.1.4 16 .6 17.2.3.4-.1 1.9 0 3.4.1 1.5.2 4.7.4 7.2.4 7 0 9.6.7 9.5 2.3l-.2 6.4a406.5 406.5 0 0 1-1.4 25.6l-.2 2h1c.5 0 1.4 0 2-.3l1.9-.4c.8 0 .8 0 1.5-3.2.4-1.5.6-3.8.4-4.3 0-.2-.3-.4-.5-.4l-.7-.4c-.2-.3-.5-.4-1-.3-.9.2-1.6-.4-1.6-1.3 0-.3-.3-.8-.6-1.1-.4-.5-.5-.8-.3-1l1.3-1.9c1.2-1.8 1.6-1.8 2.5 0 .8 1.5 1.2 1.3 1.5-.7l.2-2.5c.2-1.5.8-2.5 1.7-3.3a16 16 0 0 0 2-2.3 12 12 0 0 1 4-3.6 50 50 0 0 1 15.3-1.9c4.1.2 5 .7 8.7 4.5 3.4 3.4 4.3 4.7 4.7 6.5.3 1.6.2 2.1-.6 2.1-.7 0-1.6-1-2.1-2.2a6 6 0 0 0-2.7-3c-.5-.1-1.1-.7-1.4-1.2-.3-.5-.8-1-1.1-1.1-.3-.1-.9-.6-1.2-1.1-1-1.3-2-1.7-4.6-1.8-2.5-.1-8.4.6-10.4 1.3-2.7 1-5.6 3-7.1 5-.7.7-1.3 1.2-1.8 1.3-.6.2-.9.5-1.3 1.4-.5 1.2-.6 1.7-.6 6.7s-.2 7.6-1 10.1c0 .3.1.5.5.6 1.6.5 2.6 1.5 3.8 3.8 1.2 2.5 1.5 3.4 2.1 6.8l.5 2.2c.2.2 1-.8 1.2-1.7.2-.5.6-1.3 1-1.7.6-.7 1.7-3.9 1.7-5.1 0-.4.1-1 .3-1.3.2-.4.2-1.2 0-3a30.2 30.2 0 0 1-.3-7.4c-.3-1.1.4-2.4 1.4-3 1-.7 1.9-.7 3 0 1 .6 1.2.4 1.5-.9 0-.5 0-.7-.4-.9-.8-.2-.6-1.5.3-1.6.4 0 .6 0 .7.4.2.7.9.8 1.7.3.8-.5 1.9 0 2.8 1.5.5.7.9 1.6.9 2 0 .4.5 1.7 1.2 3 1.8 3.6 1.8 5 0 8.7-.6 1-.5 1.2.6 1.4.5 0 1.3.4 1.6.6 1.4 1 1.6.9 1.9-.3.4-1.4 1.7-4.6 2.4-5.5.3-.4.5-1 .5-1.2 0-.5 1-2.2 1.7-3 .5-.6.7-.6 2.2-.4.9 0 2 .2 2.4.4 1.1.4 1.5 0 2-2.5.3-2 .1-2.7-.8-2.7-.3 0-.5.4-.7 1.3-.4 1.5-.9 2-1.6 2-.5-.1-.6-.2-.5-2.8.1-4 1-5.4 2.7-4 1 .8 1.4 1 1.1.3a31 31 0 0 1-2.9-6.8c.5-1.1 2-1 2.8.3l.8 1c.4.5 1.4 3.8 1.4 4.7 0 1-.4 1.5-1.2 1.5-.4 0-.3.1.4.7.8.7 1.2.7 4.8.2 1.4-.2 1.4-1 0-1.3-1.8-.5-1.8-2.6.1-2.6.6 0 .8-.2 1.1-1.4.7-2.1 2.2-4.5 3.5-5.7a48 48 0 0 1 6-4.6l2.7-1c1 0 2.1-.3 2.6-.4.5-.2 2-.2 4.3 0 6.8.8 9.4 1.5 11.7 3.3 2 1.5 2.4 2.2 2.3 3.5 0 .8-.2 1-.8 1-.5.1-.9-.1-1.6-1-2-2.4-5-3.6-10.6-4.2-2-.3-2.4-.2-2.7 0-.4.4-.2.5 1.2.9 1.6.5 2 1 1.7 1.8-.2.6-.5.6-2.4 0l-5-.4c-3.3 0-3.5 0-4.7.7a13 13 0 0 0-2.2 1.8c-.6.7-1.4 1.4-1.8 1.6-1.2.8-2.9 5.2-2 5.2.4 0 1.6 2.1 1.6 3 0 1-.8 1.5-2 1.5-1.4 0-1.5.4-1.9 11.4 0 2.3-.2 4.6-.4 5.2l-.2 3c0 1.7 0 2.2.4 2.5 1.7 1.5 2.2 1.8 3 2.2.4.2.8.5.8.7 0 .2.3.7.6 1 .4.4.7.9.8 1.2 0 .3.2.5.4.5l2.2-.1h1.8v-.9c0-1 .6-1.5 1.6-1.5.4 0 1-.2 1.2-.4a27 27 0 0 1 9-.3c3.8.2 3.9.2 4.5-.4l1-1.4c.2-.7.2-.8-.2-1l-1-.9c-.4-.4-1-.6-2-.7l-4-.6c-5.4-.7-7.3-1-9.9-1-2.5 0-2.6 0-2.9-.6-.3-.6-.2-.8.3-1.2.4-.3 1-.5 1.8-.5 1.3 0 1.6-.3 1.5-1.5-.1-1.2.6-2.7 1.5-3 .5-.1.9-.4 1-.6.3-1 2.7-1.2 8.3-1 1.3 0 2.5 0 2.8-.2.4-.2.7-.2 1.3.2a8 8 0 0 0 2.6.6c6.6.6 6.2.5 7.4 1.8a5.6 5.6 0 0 1 1.7 4.2c0 1-1.1 2.5-2 2.3-.4 0-.5-.2-.4-1.6.1-1.8-.3-3.5-1-3.7l-1.7-.3c-1-.1-1.2 0-1.3.4-.1.3-.5.6-.8.7a107.4 107.4 0 0 1-15.4-.7l-1-.5-.3.8c-.2.7 0 1 .8 1.7s1.2.9 2.4 1c.9 0 2.5.3 3.7.5 1.1.3 2.6.5 3.1.5.8 0 1.2.2 1.8.8.4.4 1 .7 1.4.7 1.2 0 3.8.3 4.1.4.5.3.3 1.4-.2 2-.3.2-.6.6-.6.8 0 .9-.8 2-2.1 3.2-1.4 1.2-1.4 1.2-3.7 1.3-2.2 0-3.2.4-2.7.9l3.5.7c2.5.3 3.3.5 3.6.9.2.4.1.6-.4 1s-.9.5-2.7.4l-4-.4c-3.2-.5-13.2-.4-15.6.1-.8.2-2-.8-2-1.7 0-.4-.3-.6-1-.7-1.5-.2-2.3-.8-2.6-1.7l-.4-.8c-.1 0-.3 1.2-.4 2.6 0 1.5-.3 3-.4 3.5-.2.5-.3 1.5-.3 2.1a3 3 0 0 1-.5 2c-.6.7-.7 2.6-.2 3.5.6 1 2 2.4 2.5 2.5l1.3.3c.7.3.8.3 1.3-.1.5-.5 1-.6 4.2-.5h3.7l-1.2-1c-1.2-1-1.2-1-3.1-.8-1.4.1-2.3 0-2.9-.2-1-.4-1.3-1-1-1.5.3-.2.1-.5-.4-1-1.1-1.3-1-2.6.2-3 .4-.2.7 0 1.2.5.7.7.6.7 6.5 1.5 2.4.3 2.5.3 2.8 1 .2.6.5.8 1 .8a46 46 0 0 0 11-.4c1-.5 2.2-2.3 2.8-3.8.4-1.1.9-1.7 1.4-1.5.7.3.9 1.2.5 2.5l-.3 1.2.8.3c2 .6.6 2.5-2.5 3.3-2.6.6-2.9.7-2.9 1.3 0 .8.4 1 1.8 1.3 1.5.2 2 .6 1.7 1.3-.2 1-1.2 1-4.7.8l-6-.2c-2.5 0-2.5 0-2.7.6-.1.5-.3.7-.7.7l-1.2.1h-.7zm-27.2-4.4c.4 0 .5 0 .4-.1-.5-.2-.5-1 0-1.4.3-.2.9-.3 2.3 0 1.9.2 2 .2 2.4-.4.3-.4.7-.7.9-.7.5 0 .7-.8.2-1.5-.3-.5-.3-1-.1-2.8a116.4 116.4 0 0 0 .6-16.7c.3-1.2 0-3-.8-4.7l-1-2c-.3-.8-.6-.8-.8.2-.1.8-.7 1-1.5.8h-1.5c-1 0-1 .1-1 .8 0 .4-.3.9-.6 1.1-.6.4-1 1.2-1.2 2.9-.1 1 0 1.5.4 2.3l.5 1 1-.5 2-1.4c1.2-1 2-1.1 3.2-.6.9.4.9 1.1 0 1.7l-1.4 1c-.6.6-.6.7-.2 1.1.6.8.6 1.6-.2 2.2-1 .7-.9 1.4.1 1.4 1.7 0 2.4.8 1.4 1.8-.5.6-2.8.7-3.9.2-.7-.3-.8-.2-2 1.4l-1.6 2c-.6.6-1 1.1-1 1.3 0 .2-1.4 2-2 2.7-.7.7-1.2 2.3-1.2 4 0 1.9-.4 2.4-1.5 2-1.4-.7-2.8-.3-2.2.6a52 52 0 0 0 10.3.3zm-3.3-.6c-.7-.3-.4-1.6.6-2.5l2-2.6c1-1.6 2-2.4 2.7-2 .7.2.5 1.4-.3 2.2a26 26 0 0 0-3.5 4.2c0 .2-.9.9-1.1.8l-.4-.1zm3.4-9c-.5-.4-.4-.8.3-1.7 1.1-1.3 2.5-1 2.5.6 0 .6-.1.7-.8.9-.4 0-.8.2-1 .4-.1.3-.6.3-1-.1zm-.3-14.6c-1-1.3.3-2.9 1.6-1.9.7.5.7 1.8 0 2.3-.6.5-1 .4-1.6-.4zm9.8 24 1-.4v-2.8c0-2.6 0-3-.6-3.7-.5-.7-.5-.9-.2-2.3.3-1.8.6-5 .7-7.7 0-1.4.1-2 .4-2.3.4-.2.4-.4.1-.7-.5-.7-.1-2 .6-2 .5 0 .6-.3.6-.8s-.2-1-.4-1.1c-.5-.5-.5-1 .1-1.5.3-.2.5-.6.5-.7 0-.2 0-1 .2-1.9.1-1.1 0-1.6-.2-2-.4-.5-.4-.7 0-1.4.4-1 .4-1.5-.1-2.1-.4-.4-.5-1-.6-3.2 0-3-.1-3.4-.8-3.3-.3 0-.4.4-.5 2l-.2 3a269 269 0 0 0-.5 18.9c0 3.8 0 5.6-.2 5.8-1.3 1.4-1.3 1.4-1 4 .2 2.6 0 5-.5 5.5-.4.4-.3 1 .1 1l1.5-.4zm-24.2-1.7c1.9-2 5.5-4.6 6.4-4.8.8-.2 1-.4 2-2 1-1.2 1.1-1.8.7-1.9-.6 0-2.4 0-3.2.2-2 .4-5 3.3-5.7 5.4 0 .3-.4.6-.6.6-.3 0-.8.3-1.1.6-.8.8-1.7.8-1.8 0 0-.4.1-.9.4-1.2.4-.4.6-1 .6-1.4 0-1-1.3-3.6-2.2-4.7l-.6-.7-.6.5c-.4.3-.9.5-1.1.4-.6-.1-1.6.5-1.6 1 0 .3-.4.7-.8 1-.5.2-.8.6-.8 1 0 .5 1.4 2.1 1.9 2.1.4 0 .3 1.3-.2 1.5h-1c-.8-.2-.9.2-.3 1.1.5.7.3 1.4-.5 1.4-.6 0-2.3-1.2-2.3-1.7 0-.3-.2-.4-.7-.4-1.1 0-1.5-.8-1-1.8.4-.7.4-.8-.2-1.3-.9-.8-1.4-3.6-.8-4.5.5-.9 1.2-.4 1.7 1l.7 1.7c.3.5.3.5.3-.2 0-.4.3-1 .7-1.3.7-.6.7-.7.6-2.6a39 39 0 0 0-3.5-12.9c-.6-.9-1.9-1.8-2.2-1.6-.4.3-.6 3.5-.6 8.7 0 2.6-.1 4.8-.3 4.9-.3.2-.3 1.6 0 1.8.2.1.3 2 .3 4.6 0 2.5 0 4.7.2 5 0 .2.5.3 1.2.3 1.3 0 2.8.7 2.8 1.2 0 .4.8.4 5.8.4h5.8l1.6-1.4zm26.6-8c-.4-.8-.4-2.2 0-2.2 0 0 .2-.7.2-1.7 0-.9-.1-1.4-.2-1.2 0 .3-.2.5-.4.5l-.2 2-.2 2.8v1.2l.3.7.4-.8c.3-.5.3-.8 0-1.3zm-25.7.7c1.3-1.4 1.4-2.4.2-4.1a5 5 0 0 1-.8-1.5l-.5-1-.6-1c0-.4-.2-.4-1 .4-.4.5-.8 1-.8 1.2 0 .2-.2.6-.5.8-.7.7-.7.8.2 2.1l1.4 2.4c.6 1.2 1 1.7 1.3 1.7l1-1zm-7.4-4.8a8.5 8.5 0 0 0 2.4-2.1l.5-.8c.1 0 .2-.1.2-.3 0-.2.3-.6.6-1l.5-.6c0-.2 2.4-2.8 3.8-4.2a5 5 0 0 0 1.2-1.5c0-.2-.4-.5-.8-.7-1-.4-5.2-1-5.5-.8l-.3 2c-.1 1.2-.4 2-.7 2.4-.8 1-1.1 1.8-1.1 2.7 0 1.4-.3 1.8-1.2 1.8-.8 0-.9.1-1.7 1.7-1.5 3.2-1.1 3.5 2 1.4zm4.1-7.2c-.7-.5-.7-1.2-.2-1.8.7-.7 1.3-.6 1.6 0 .4 1.3-.5 2.5-1.4 1.8zm10 4.9c3.5-3.8 3.6-4 2.8-5.4a4 4 0 0 0-1.9-1.7c-1.7-1-2.2-.8-3.7.7-.7.7-1.4 1.3-1.6 1.3-.5 0-3.1 2.5-3.1 3 0 .2.2.5.5.6.4.2 1 1.2 1.7 2.4 1 2.1 2 3 2.3 2.4 0-.2 1.4-1.7 3-3.3zm1.7 2.7c0-1-.6-1.2-1.5-.3-1 1.1-1 1.3.3 1.3 1.2 0 1.2 0 1.2-1zm2.4.3c.6-1 .2-1.2-.7-.2-.9.8-.9.9-.3.9.4 0 .8-.3 1-.7zm.2-3.2c.3-.4.6-.8.6-1-.2-.3-1.2.5-1.6 1.2-.4.7.2.6 1-.2zm3.6-2.2-.4-.4c-.1-.2-.2 0-.2.2s.2.4.4.4c.3 0 .4 0 .2-.2zm-10.5-9.6c.7-1.6 1-3.1.7-3.1-.2 0-.3 0-.3.2 0 .5-1.8.7-2.3.3-.5-.4-.4-1.9.2-2.5.4-.5 1.5-.5 2.1 0 1 .9.8.1-.5-2.3l-1.4-2.6c0-.2 0-.3-.2-.3s-.3.4-.4 1c-.1.6-.4 1-.8 1.2-.3 0-.8.3-1 .5-.7.5-2.8-.2-3.5-1.2-.3-.5-.7-.8-.9-.7-.5.1-.4 1 .2 1.3.5.3.5.5.4 2.8-.2 4.2.4 5.3 3.1 5.7 1 .2 2.2.4 2.6.6 1.3.6 1.2.6 2-.9zm-6.5-1.1c-.2-.3-.3-.6 0-1.1.4-1.6 2.4-1.7 2.4-.2 0 1.3-1.7 2.2-2.4 1.3zm19.2-3.5c0-.7-.8-.6-1 .1 0 .5.1.6.5.5.3 0 .5-.3.5-.6zm-14.2-6.7c0-.2-.1-.3-.3-.3-.1 0-.2.1-.2.3l.2.2c.2 0 .3 0 .3-.2zM391 83.8l-.6-.5.5-2.4.4-4c0-1 .2-2.4.4-3.3.3-.9.5-2.8.5-4.4 0-3.2.4-4 1.8-4 1.3 0 1.4.4.7 4.7a25 25 0 0 0-.4 4.5c.3 1 .3 1.1 0 2.5-.2.6-.5 2.3-.6 3.7-.2 2.2-.2 2.5-.9 3-.9.8-1 .8-1.8.2zm-155.5-2.1c-.4-.7-.4-1.4 0-2 .4-.5.5-.5 1.1-.2.9.4 1 1.6.2 2.2-.6.6-1 .6-1.3 0zm150-1.2c-.2-.3-.3-.8-.2-1.4 1-6 1.2-8.6 1.2-10.7 0-2.3.1-2.7.6-3.2.8-.8 1.2-.6 1.6.6l.3 1.3a73 73 0 0 0-1 9.1c-.2 3.8-.5 4.7-1.6 4.7-.3 0-.7-.2-1-.4zm-221.3-1.1s-3-.2-6.5-.2l-16-.6a78.6 78.6 0 0 0-16.4-.3c-.5.2-2 .2-5.4 0-4.6-.3-11.9-.6-18.8-.8l-6.3-.3a258 258 0 0 0-16.2-.7L68 76c-4-.1-9.3-.3-11.7-.2-3 0-4.5 0-4.7-.3-1-.7-4.3-.8-21.3-.8a316.5 316.5 0 0 1-25.4-.6c-4.5 0-5-.1-4.9-1.2.2-1 1.2-1.2 6-1 5.7.1 14.6.6 17.5.9 3 .3 39.5.1 39.8-.2.2-.2.2-.5 0-1-.4-.5-.6-.6-3.3-.8a64.5 64.5 0 0 1-8.2-.8l-1.8-.2.2.7c.3.6.2.8-.2 1-1.1.6-5.7-.2-8.1-1.4-.8-.4-.8-1.4-.1-1.8 1-.6 10.8-.3 18.3.6h2.8c.4 0 .8-.7 1.6-2.8 1-2.5 1.1-2.9 1.1-5.2 0-1.6-.1-2.7-.4-3-.4-.5-2.8-.8-8.7-1.2-6.7-.5-7.4-.7-7.2-2.1 0-.6.2-.7 1.2-.8A99.3 99.3 0 0 0 64 55.3c2.6.1 2.9.1 3-.3l1-2.2a20 20 0 0 0 1.5-4l.8-2.2a10 10 0 0 0 1-3.9c0-.8 0-1-.7-1.2-.8-.3-4.8-.9-7.5-1-1.6 0-4-.6-7.6-1.5-1.3-.3-1.9-1-1.3-1.7.3-.4 1.2-.4 3.6.2 3.3.7 6.7 1.3 9.7 1.5 4 .4 5.7.9 6 1.8.5 1.3-.1 4.2-1.8 7.9l-.6 1.8c0 .8-1.8 4.4-2.6 5.2l-.9 1v3.1a17 17 0 0 1-1 7.2c-.6 1.4-.6 1.7-.3 2l4 .3c4 .2 4.6.4 4.2 1.3-.3.4-.6.5-4.7.5h-4.5l-.3.7c-.3.6-.3.7.1 1 .5.4 1 .4 7 .5a92.3 92.3 0 0 1 12 .8c3.4.2 6 .6 7 .9.6.2 2.7.3 5 .3h5.7c1.9 0 13.4.4 19.8.8 2.8.2 8.6.4 12.8.4 4.3 0 9.6.2 12 .4 2.5.1 5 .2 6.2 0 1.1-.1 2.5-.1 3.2 0l6.1.2c4.7 0 10.9.4 11.4.7.3.3.2 1.4-.3 1.6-.4.1-8.7.2-8.9 0zm184-.2c-1.1-.8 0-2.4 1-1.8.4.2.8.3 1 .2.7-.3 1.4 0 1.4.7s-.7 1.2-2 1.2c-.5 0-1.2-.1-1.5-.3zm-116.4-2.7a36 36 0 0 0-5.2-.7c-4.7-.3-5.4-.5-5.8-1.1-.2-.4-.2-.6.3-1 .6-.4 1-.5 3.6-.4l4.6.4h5l3.4-.1.2-.8.2-3.3c0-2 0-2.6-.4-3-.4-.4-.5-1.3-.5-6.3 0-5.2 0-6 .4-6.6.6-1 .7-3.6.2-4.3-.2-.3-1-.5-1.8-.6a849.4 849.4 0 0 1-7-.6c-1 0-1.7-.9-1.5-1.8l.2-.8 2.1.1c1.2 0 2.6.3 3.3.5 1 .3 2 .3 5.7.1l4.7-.3c.3 0-1.4-.4-3.3-.7-1.2-.2-1.8-.9-1.1-1.5.4-.5 1.9-.5 3.3-.2.5.2 2.6.5 4.6.7 3.3.3 3.7.5 4.1 1 1 1.2.6 2.3-1 2.6l-2 .6c-.8.3-1.3.3-1.9.1a15 15 0 0 0-5.6.1c0 .2-.2 5.8-.2 12.5v12.2h1c1.2 0 3.1-.5 5.2-1.5 1-.6 2.1-1 2.6-1 1.4 0 1.8 1.3.6 2a9 9 0 0 0-1 .8l-1.1.5-1.3.4-1 .3a6 6 0 0 0-1.5.5 15 15 0 0 1-7.4 1.4c-2.6 0-4 0-4.7-.2zm-92.9-1-2.7-.1c-.9 0-3.4 0-5.6-.3l-4.2-.2c-.1.1-2.6 0-5.4-.1-8.4-.5-9.6-.6-10-1-.3-.3-.8-.4-1.3-.4-1.5.1-1.7-.5-.9-2.5.7-1.6.7-2 .8-5.8 0-6 .1-6-8-6.1l-5.8-.2-.6.9-1.4 1.3c-.9.5-.9.5-.9 3 0 2-.4 4.2-.8 4.8v2c.3 2 .1 2.5-.5 2.8-.3 0-.6 0-1-.6-.8-1-.8-2.6-.1-5.9l.5-3.2c0-.8-1.4-4-1.8-4.3l-3.5-.5c-1.8-.1-3.7-.4-4.2-.6-1.3-.7-5.4 0-7.4 1.1-.8.5-1.4.6-2 .6-1-.1-1 0-1.6 1-.7 1.2-1.4 1.3-2 .3-.4-.8-.2-1.8.7-2.8.6-.7.6-.7 1.4-.3.7.5.8.5 1.3-.1.8-.9 5.4-2.3 7.3-2.3 1.4 0 2.3-.5 1.9-1 0-.2 0-.6.4-.9.5-.5.7-.5 2.2-.4 1.3.2 2.1 0 3.7-.4a24 24 0 0 0 2.8-.8c1-.5 1.4-2.4 1.2-5.6-.3-5.6-.6-6.5-2.7-8.4-1-.8-1-.8-3-.7a56 56 0 0 0-7.4.8c-.7.3-1.6-.3-1.5-1 0-.4.3-.6 1.5-.8 2.9-.7 2-1.1-2.4-1.4-3.7-.1-4.4-.3-4-1.1.5-.8 2.4-1.1 5.6-1 3.2.1 3.2.1 3.2-1.8 0-1.3.5-2 2-2.9 1.4-.8 2.7-1 5.3-.6a145.2 145.2 0 0 0 8.7 1l8 2c1.5.6 2.4 2.4 2.4 4.8 0 1.2-.2 1.9-1 3.7-.7 1.2-1.1 2.2-1 2.3l2-.2a39 39 0 0 1 13.4.6c3.8 1.7 4.4 2 4.6 1.7.2-.1.4-1.5.5-3.1a22 22 0 0 1 .9-5.6c0-.7.9-1.7 1.6-1.7.2 0 1.1-.6 1.9-1.3 1.3-1.2 1.6-1.3 3.3-1.6l2.5-.7c.9-.4 8-.5 9.8-.1 1.2.2 2.3 1.3 2.3 2.2l.4 1.3c.3.5.7 1.7 1 2.7l.4 1.9.2-1.7v-5.1c-.2-3-.3-3.6-.7-4.3-.4-.5-.5-1-.4-1.5l.3-1.5c.2-.9 1-2.1 1.7-2.5a44 44 0 0 1 18.6-1.8c1.9.7 2.6 1.2 3.3 2.6 1 2 1.3 4.3 1.5 9.7a68 68 0 0 1-1.1 13.7 187.5 187.5 0 0 0-.3 30c-.5.5-1.3.3-2-.5-.5-.8-.5-1-.5-7.3l.1-6.5-.7.7-1 .7c-1 0-.9-1.6 1-8.5l.8-3.3-.2-7.1-.4-8.8c0-1.4 0-1.7.3-1.8.3-.1.7 0 1 .3.4.4.5 1 .6 2.7.1 2.8.6 3.4.8 1 .3-4-.6-11.8-1.7-14-.7-1.4-2.2-1.8-6.8-1.8-3 0-4 0-5.8.5l-3 .6c-1.4 0-2.5.7-3 2-.5 1-.6 2.1-.7 6 0 4.2 0 4.7.4 4.7.3 0 .4-.3.4-1.7 0-2 .2-2.6.8-2.6.6 0 1.2 1.2 1 1.8a156.1 156.1 0 0 0-1.5 22.5c0 7.3-.1 8.6-.6 10.7a41 41 0 0 0-.5 4.3c-.2 3.4-.5 4.1-1.6 4.1-.4 0-1 .3-1.4.6-.4.3-1 .5-1.5.5s-2 0-3.3.2c-2.7.4-3.2.4-4.9 0zm5-2.4c0-1 .6-1.8 1.2-1.8.7 0 2-1.3 2-2.2.2-.4.4-2 .7-3.3.3-1.8.3-3.3.2-5.2l-.3-10c0-8.4-.4-13.8-1-15.5-.7-1.9-1.4-3.1-2-3.3a28.5 28.5 0 0 0-9.9.6c-2.3.4-3.1.8-4.2 1.8-1 1-1 1.2-.2 2.4a54.8 54.8 0 0 1-.3 9.3l-.3 10a512.1 512.1 0 0 1-.5 17.2c.1.3 1.2.4 4.4.4 3.6 0 9.3.3 10 .4.1 0 .2-.3.2-.8zm-17.3.1c.3-.2.6-.5.6-.7l.3-2.2A630.4 630.4 0 0 1 128 50v-8.6c-.2.2-.8 4.4-1.2 9l-.4 8.4c-.2 8.5-.2 9.7-.6 10.2-.7.8-1.3.3-1.7-1.5-.1-.5-.4-.8-.7-.8-.8 0-1-.7-.5-1.7.3-.4.5-1.3.6-1.8l.6-1.8c.2-.4.4-1.6.4-2.8 0-1.1 0-3.3.2-4.8.7-8 .8-7.9-1-7-1.3.5-1.8.4-2-.6-.4-1.6-.4-1.7-6.7-2.8-2.7-.5-3.4-.5-4.2-.3-.4.2-1.2.3-1.8.3-.7 0-1.2.3-1.9.9-1 .8-1.6.8-2.2 0-.5-.5-.7-.4-1.3 1-.7 1.6-.5 2.1.8 2.1.6 0 1 .3 1.8 1 .7.8 1.2 1.1 2.2 1.2 1.8.3 2.8 1.1 3.4 2.7.6 2 .6 2.7-.3 3.6l-1 .8c-.3 0-.2.5.3 1.4.4.8.8 1.5 1 1.6.4.4 0 11-.4 12-.2.4.1.5 2.1.7a141.4 141.4 0 0 0 8.8.7c1.3.3 3.6.3 4.4 0zM115 68.8c-.3-.3-.2-1.4 0-1.6.5-.2 1.5.8 1.3 1.3-.1.4-1 .6-1.3.3zm3.6-9.6c0-.2-1.4-.4-3-.5-2.1-.2-2.8-.3-3-.7-.2-.3-.2-.6 0-.9.3-.4.8-.5 4.6-.5 4 0 4.4 0 5.2.4 1.8 1.1.8 2.4-1.9 2.4-.9 0-1.7 0-1.9-.2zM150 69.8c1-3.3 1.3-7.2 1.3-13.7 0-5.7 0-6.3-.5-7-.3-.5-.5-1.2-.5-1.5 0-.7-.4-.8-.6-.3v2.5c.4 5.1 0 17.2-.7 19.3-.4 1.2-.2 2.6.3 2.4.1 0 .5-.8.7-1.7zM92.7 57c.7-.4 4.2-.4 11.2-.1l5.4.2-.3-.6c-.1-.4 0-1 .2-1.7.4-1 .4-1.3 0-2-.3-.8-.7-1-3.6-1.6-1.3-.3-2-.5-2.5-1.1-.7-.8-.7-.8-4.3-1-3.8-.3-4.5-.5-4.2-1.5.3-1 1-1.1 3.5-1.1h2.5l.6-1.6 2.1-4.4c2.3-4.6 2-6.4-1-7.8-1-.4-2-.8-2.4-.8l-3.6-.5A44 44 0 0 0 86 30.2c-1.8.2-2.3.5-2.8 1.4-.5 1-.5 1.7 0 2.9.3 1 1.1 1.3 3.8 1.4h2l1.4 1.4c2.4 2.3 2.3 2.2 3 7.3.3 2.6.7 4.7.9 4.8l1.6.2c1.8 0 4.6.9 5 1.4.2.4.2.6-.2 1-.3.3-.7.3-2.7 0-2-.2-2.4-.2-3 .2-.3.2-.8.3-1.1.3-.3 0-1.2.6-2 1.4-1.2 1-1.6 1.3-2.4 1.3-1.1 0-3.1.5-4 1-.8.5 0 .8 2.6 1.2 1.5.2 2.8.5 3.2.8.6.4.6.4.7-.2 0-.4.4-.8.7-1zm57.6-11c0-.3-.1-.6-.3-.6-.1 0-.3.3-.3.7 0 .3.2.6.3.6.2 0 .3-.3.3-.6zm-.3-4-.2-2c-.2-1-.3-.8-.3 1 0 1.2 0 2 .2 2s.3-.4.3-1zm6.5 32.9c-.3-.4-.4-.7-.3-1.4l.4-7a6498.3 6498.3 0 0 1 1.1-23.9 41.6 41.6 0 0 0 0-11.2l.3-1.1c.5-3 1.3-4.2 2.2-3.2.3.3.4.7.3 1.6a216.2 216.2 0 0 0-1 9.8c-.5 5.2-.9 14.7-1.1 29.3l-.3 6.7c-.4.6-1.2.8-1.6.4zm-60.3-1c-1.7-.4-2-.6-1.6-1.2.3-.3.7-.4 2.1-.4 2.5 0 3.3.2 3.3.9 0 .5-.2.6-1.8.9-.3 0-1.1 0-2-.3zm-60-4.2c0-.4 0-1 .2-1.8.6-2 .9-3 1.2-5.2a97.2 97.2 0 0 0 .7-16.2l-1-7.8c-.2-1.6-.2-2 .1-2.5.4-.5.5-.5 1-.3.3.1.6.5.7.9.2.3.3 3 .4 5.8a80 80 0 0 1-1.6 27c-.4.9-1.3 1-1.6 0zm214.9-.6c-.3-.3-.3-1-.1-2.6 0-1.2.2-2.4.1-2.7a77.4 77.4 0 0 1 .8-16.5c.2-3.3.2-4.1 0-4.5-.3-.3-.4-1.7-.5-6.1a275.6 275.6 0 0 0-.4-14c0-1.7.5-3 1.3-3 1.2 0 2 1.8 1.3 2.9-.4.5-.5 1.2-.5 2.7a25.9 25.9 0 0 1 .3 7.6l-.2 4.7.8.7.8.6-.1 2.4c0 1.3-.3 3-.4 3.8-.2.8-.4 4.5-.6 8.2-.5 11.3-.7 14.7-1 15.5-.3.8-1 1-1.6.3zM78.7 67.9c-1-1 .5-2.4 1.5-1.4.4.4.4.6.1 1.1-.4.9-1 1-1.6.3zm2.7-.3c-1-.6-.1-2 1-1.5.8.2 1 .9.7 1.4-.4.5-1 .5-1.7.1zm93.1-.6c-.3-.4-.4-.7-.3-1.2l1-6.5a312.4 312.4 0 0 0 1.5-19l.6-7.2.5-9.3c.2-2.4.4-6.8.4-9.6.1-8.7.3-12.6.5-13L180 1c1.4 0 1.4-.2 1.6 4.6l.3 3.9c.2.8 0 1-.5 1.6-.7.7-.9 1.9-1 8.4a190.9 190.9 0 0 1-1.5 19c-.2.5-.4 2.2-.4 3.7L178 47a62.3 62.3 0 0 0-.7 8l-.5 4.3c-.5 5-.8 6.8-1.5 7.6-.4.5-.4.5-.9 0zM43.1 64.9a416.3 416.3 0 0 0-.2-35.7c0-3.6 0-4.2.3-4.3.7-.3 1.7.5 1.9 1.4.2 1.1.5 1 1-.2.7-1.9 2-1.2 1.7 1a65 65 0 0 1-1 6.4A425 425 0 0 1 45.5 49c0 .6 0 3.4-.2 6.2a101.8 101.8 0 0 0-.3 9.5c-.4.6-1.4.7-1.9.2zm141.3-1.4a334 334 0 0 1 1.3-34.4l.3-3.7c.2-1.6.4-4 .6-8.6a142.7 142.7 0 0 1 1.2-13.2c0-2.7 1.3-4.3 2.5-3.3.4.4.5.7.4 2l-.4 2.8c0 .9-.3 2-.6 2.5a33 33 0 0 0-1.2 10.2 223.8 223.8 0 0 1-1 14.5 674 674 0 0 0-1.8 30.9c-.2.4-1 .6-1.3.3zM57.2 51.6c-1.5-.7-1.6-2.3-.2-4.7.9-1.5 1-1.7 1.5-1.5.9.3 1 1.6.2 2.8-.7 1.2-.5 2 .7 2 .6 0 1 .1 1.2.5.6 1.1-1.5 1.7-3.4 1zm6.8-2.4c-1.4-1.2-.8-2.5 1-2.5.9 0 1.5 1.2 1.2 2-.5 1.1-1.2 1.3-2.2.5zm216.3-1.4c-3-.5-12-.8-13.3-.5-2.6.6-3 .6-3.5 0-.8-.6-.7-1.5.3-2 .6-.3 1.6-.4 4.1-.4 1.9 0 3.9-.2 4.4-.3.8-.2 1.6-.2 3.3.1l5.9.8c3.2.3 3.5.3 3.7.9.5 1.4-1.3 1.9-4.9 1.4zM86.5 46c-.7-.4-.9-1.2-.2-1.6 1-.6 3.2.8 2.6 1.6-.4.4-1.5.5-2.4 0zm169.7-3.5a8 8 0 0 1 0-2.9l.3-6c.1-3.3.4-6.5 1.2-13.1 0-1 .3-1.8.6-2 .3-.4.4-.4 1 0 .8.7 1 3.2.3 5-.6 1.6-.8 3.6-1 11.6a27 27 0 0 1-.6 6.9c-.5 1-1.5 1.2-1.8.5zM68.9 37.4a40 40 0 0 1-.2-11.3c.5-.7 1-.7 1.5 0a44 44 0 0 1 .3 11.3c-.2.4-1.4.4-1.6 0zM216.8 34c-.4-.1-.7-.5-.8-.8l-.2-6.7-.3-8.7c-.2-3 0-3.8.7-4.1 1.5-.6 2 .5 2 4.7.2 3.1 0 7.6-.3 9-.1.3 0 1 .4 1.6.6 1.2.6 2.3.1 3.5-.6 1.4-1 1.8-1.6 1.5zm-9.9-2a50 50 0 0 1-.4-6.7c0-3.4-.3-7.4-.4-8.9-.2-1.4-.2-3.6-.1-4.9 0-1.2 0-3.6-.2-5.3-.2-3-.2-3 .3-3.5.7-.5 1.4-.2 1.9.9.2.6.2 1.4 0 3.6-.2 1.6-.3 3.8-.2 5 .7 11.8.7 19-.2 19.9-.4.4-.4.4-.7-.1zm25.8-1.7-1.5-.4c-1.2-.2-1.9-1.2-1.5-2.2.3-.7.7-.7 2.3.1 1.7.9 2.3.7 2.6-.6.3-2 1-2.4 2-1.2.6.8.6 1.5 0 2.7-.8 1.5-2.6 2.2-4 1.6zM198.3 27c-.2-.3-.2-.6 0-11.3.1-10.5.2-11.4 1-12.8.5-1.1 1-1.5 1.5-.9.4.5.4 1.4 0 3.3-.2.8-.4 4.5-.6 8.3 0 3.8-.2 8.2-.3 9.7 0 1.5-.2 3-.4 3.4-.3.6-1 .7-1.2.3zm-144-2c-.6-.7 0-1.7 1.4-2.3 1-.4 1.8-.5 6.7-.5 6 0 7 .2 6.9 1.1-.2.9-1.2 1-6.6 1.2-2.7 0-5.3.3-6.1.5-1.9.5-2 .5-2.4 0zM250.5 15c-.5-.4-.6-.6-.4-2.9.3-5.8.5-6.8 1.3-6.8s1.2 1.8.9 4l-.4 4c-.2 2-.5 2.3-1.4 1.7zm-9.4-.3c-1.2-.2-3.1-.3-4.3-.3l-4-.3c-1-.2-4.3-.3-7.4-.3-4.7 0-5.7 0-6-.4-.5-.5-.5-.8-.2-1.4.4-.8 1.6-.9 4.7-.6 1.6.2 4.9.4 7.4.4 7.5.3 12.3.7 13.4 1.2 1 .5 1 1.5 0 1.9-.7.3-.8.3-3.6-.2zm13.5 0c-.4-.6-.6-3.3-.4-4.4v-2c-.2-.6-.3-1.8-.3-2.9 0-1.5 0-2 .4-2.1.7-.4 1.4 0 1.7.8.6 1.4.4 9.6-.2 10.4-.4.4-1 .5-1.2.2z"/>
</svg>
