<?xml version="1.0" encoding="utf-8"?>
<svg xmlns="http://www.w3.org/2000/svg" xmlns:svg="http://www.w3.org/2000/svg" version="1.1" viewBox="0 0 220 213">
	<title>One rat, Samuel Whiskers, stands on a box and angrily points, while another rat, Anna Maria, stands behind him.</title>
	<path d="M156.3 212.1c-3-.6-10.3-.6-16.8 0-4.2.4-5.3.4-7.5.1-5.6-.7-5-1.8 2.4-4 5.9-1.7 8-1.9 24.3-2.2a45 45 0 0 0 11.6-1c1-.5 1.9-1.8 1.9-2.4 0-.8-1.4-3.1-2-3.4-.7-.4-2.2-2.4-2.8-4-.2-.8-.6-1.3-1.2-1.5a8 8 0 0 1-1.8-1.4c-.5-.6-1-1-1.3-1l-.7-.4a18 18 0 0 0-2.1-1.6c-1-.7-2-1.5-2-1.8 0-.2-.6-.7-1.1-1-.6-.2-1.2-.7-1.5-1-.4-.6-.7-.6-1.9-.5-3.2.3-7-2-8.2-5-.5-1.6-.8-1.8-3.1-2.3a19.4 19.4 0 0 1-8.3-4.2c-.4-.2-.6-.5-.6-.8 0-.4-.4-1-1-1.6l-.8-1h-3c-3.7 0-6.2.7-6.6 1.8-.3.6-.8.8-.8.3s-.7-.2-2.2.8l-3.2 1.8c-2 .8-2.3 1-2.3 1.7 0 .6-.4.9-.9.5-.4-.3-2.5 0-2.8.3-.1.2-.3.2-.6 0-.7-.6-.9-.2-1 1.9-.3 2.7-.8 5.8-1 6.2-.4.4-3.7 1-4.8.8a43 43 0 0 1-2.8-.6c-4.3-1-4.3-1-5-.5-.6.3-.8.4-1.1 0-.6-.5-2-.7-2.4-.5-.3.2-.2.7.3 2.3.8 2.3.8 2.8.2 3.6-.3.4-.6.5-1 .4-.5-.1-.7-.6-1.1-2.5-.8-3.3-.9-3.4-1.2-3.6-.2 0-1.2 0-2.2.3-1.6.3-1.9.3-3 0-.9-.4-2-.6-4.1-.6-3 0-4 .1-5.5.7-.8.3-1.1.3-2 0-.8-.4-1-.6-1.3-1.7l-.5-2.3c-.1-2.4-.4-3-1.4-3.8-2.2-1.5-3.2-2.9-3.2-4.5 0-.4-.2-.7-.5-.8-.5-.2-5.3.4-11.2 1.3-3 .5-5.2.5-5.2.1s1-.7 5-1.2c6.5-1 9-1.5 9-1.8 0-.2-.3-.3-1-.1a28.8 28.8 0 0 0-10.4 1.2c-8 1.6-11.5 2.2-15 2.6-6.6.7-6.6.7-7 .3-.4-.3-.8-.3-2.2 0a167.3 167.3 0 0 1-9.5 2c-4.6.9-4.6.9-4.6.4 0-.4 5.1-1.7 15.3-3.8a157.2 157.2 0 0 0 7.1-1.4 5089.8 5089.8 0 0 0 10.7-1.9c1.9-.3 2.3-.4 2.2-.8l.4-.9c.3-.4.3-.4-.8-.3a185.3 185.3 0 0 0-10.2 1.7c-1.3 0-7.9 1.3-11 2l-15.7 3c-4.2.8-4.8.9-5.3.6-.8-.5 0-1 2.1-1.3a156.1 156.1 0 0 0 15.2-2.8c1.3 0 8.5-1.6 11-2.4 1.1-.3 2.3-.6 2.6-.5.3 0 1.6 0 2.8-.3a229.5 229.5 0 0 1 10.7-1.5 116 116 0 0 0 13.7-2.1 4 4 0 0 0 2-1c.6-.7 1.3-1 2.5-1.3 1.7-.4 2-.7 1.7-2.5l-.3-4.7c0-2-.2-3.8-.3-4-.1-.2-1.2-.2-1.8 0-.3.1-.4.5-.4 1.7s-.1 1.6-.4 1.7c-.6.3-.7 0-.9-1.6l-.1-1.5-1.5.2c-2.6.3-10.1.4-10.5.1-.2-.1-.2-.7-.2-1.6.1-.7 0-1.6-.2-2-.3-1 0-3 .4-3s.5.8.9 4.3c0 .9.2 1.5.3 1.5l2.4-.3a16 16 0 0 1 3.2-.3c1.5.2 2.9 0 2.7-.5 0-.3.3-.5 1.2-.8l1.2-.3v-8c0-4.3-.3-11.2-.5-15.2-.5-8.7-.5-22.2.1-23.2s1-.5 1 1a454.5 454.5 0 0 0 .7 39.3c.1 7.2.1 7.4.6 7.5.3 0 .9 0 1.3-.2l.7-.3-.1-3.4a482.4 482.4 0 0 1-.6-49.1c.5-4 .7-4.9 1.3-4.9.6 0 .6 1.1 0 5a124 124 0 0 0-.8 15.1l.3 14.8a137.5 137.5 0 0 0 .8 15.6v4c.1 2.4.4 3.3 1 2.7a5276.7 5276.7 0 0 0 .9-32.4l-.3-5.3a113.9 113.9 0 0 1 1.3-21.1c.3-3.2.6-3.9 1.3-3.6.4.1.5.4.3 1.2L73.2 100c-.1 2.4-.3 11.4-.2 13.5 0 .4.1.4.7.3l.8-.3v-7.8c0-9 .3-12.7 1.4-21.4.3-2.7.8-4 1.5-4 .4 0 .4 1 0 3-1 6.4-1.7 14.5-1.7 23.6v6.6h1.5c.8-.1 1.6-.2 1.7-.4.2-.1 0-1.4-.5-3.3-.6-2.9-1.2-6.1-1.2-7l.6-.8c.5-.5.6-.8.6-5.5.2-7.2 1.1-16.3 1.8-16.8 1-.6 1 .6.5 4.7a76.3 76.3 0 0 0-.9 16c.2.2.6.3 1.1.2.9 0 1 0 1-1.1A177.4 177.4 0 0 1 83 84.2c0-.2.3-.3.6-.3.4 0 .6.3.6.6-.4 3.7-1 9.4-1 12-.2 3.5 0 3.9 1.2 3.2 1-.5 1-.7 1-2.9 0-4 .3-7.2.7-7.3.6-.2 1 .4.8 1.2l-.3 4.3c-.2 3.6-.2 3.6.5 3.8l.7.1c.1 0 .3-1.2.3-2.8.2-2.6.5-3.5 1-3.5.2 0 .3 2.1.3 5.4v8.2c0 2.8 0 2.9.5 2.4.5-.4.5-.9.5-8 0-7.3 0-7.8-.6-8.2a28 28 0 0 1-3.5-5.1c-.2-.3-.5-1.2-.5-2l-.6-3.6c-.5-1.8-1-5-1-5.7.1-.5-2-.6-5.1-.3l-5.3.2a53.2 53.2 0 0 1-10 .7c-3.4 0-7.5.2-9.3.3l-3.3.2 2.5.1c2.2.2 2.5.2 2.6.7 0 .3.2.6.3.7l3.2-.2c4-.5 7-.4 7 .2.1.4-1.7.6-9.3.9-3.7.1-7.3.4-9.8.8-4.6.7-8 1-11.6.7-4.2-.1-5.2-.4-4.7-1 .3-.3 0-.4-2.4-.4-2 0-2.9 0-3.3-.4-.6-.5-1.8-.5-3.4 0-.9.4-1.8.5-3.1.4H16c-2 .4-9.6.8-10 .5-.5-.5.8-1 3.5-1.1a68 68 0 0 0 4.2-.4c1-.2 2.5-.3 3.6-.3L21 78l3.6-.3 13.9-1.1a76.1 76.1 0 0 1 12.9-.6c.5-.5 4.3-.7 5.1-.4 1 .4 6.4 0 13.7-.8a92.3 92.3 0 0 1 10.3-1c1.5-.2 2.2-.2 2.8 0l1 .2.2-2.4c0-1.2.2-2.6.3-3.2l.1-1-1.8.2c-6.6.6-11.1 1-13.4 1a198 198 0 0 1-23.4.8l-5.5.3c-4.9.5-9.7.5-9.8 0-.2-.5 1.3-.9 3.7-.9a281.1 281.1 0 0 1 17-.7 90 90 0 0 0 18-1c11.4-.4 15.3-.5 15.5-.7l.4-.8c0-.6 0-.8-.4-1-.3 0-.6-.2-.6-.4 0-.1-.2-.6-.6-1-.3-.5-.6-1.3-.6-1.7v-.8h-2.7c-4.4 0-4.4-.8.1-3 2.6-1.1 3.6-1.5 5.3-1.7 1.1 0 2.2-.3 2.4-.5.1-.2.7-1.2 1.1-2.3l1.2-2.4a59.9 59.9 0 0 1 .8-2.5c.2-.5 0-.7-.4-.8-.4 0-1.9-1-3.3-1.9-1.4-1-3-1.8-3.3-1.8l-2-.7-2.6-1c-1.5-.5-1.6-1.2 0-1.4a7 7 0 0 0 1.8-.5c.5-.3 1.2-.5 1.6-.6 1.3-.3.7-.7-1.2-.7-1.6 0-1.9 0-2.5.7-.6.6-.7.6-1.5.4l-1.6-.8c-.6-.6-3.6-1.5-4.5-1.4-1 0-2.8-1.4-2.8-2.3l-.4-1c-.4-.5-.4-.6.2-1 .3-.4 1.2-1 1.9-1.4.7-.4 2.1-1.6 3.2-2.6l2.7-2.5c1.2-.8 2-4.5 1.8-7.5-.2-3.3-1.5-7-2.9-9-.7-.9-1.2-1-1.5 0-.3.8-.7.8-1 0-.2-1.2.3-2 1.3-2 1.4 0 3.4 2.8 4.5 6.4.5 1.8.6 2.7.6 5.8 0 2 .1 3.6.2 3.6.5 0 2-2.8 3-5.8l1-3.3v-4.9c0-4.3 0-5.1-.5-7-.7-2.5-.8-2.8-.2-2.6 1.5.6 2.5 9.7 1.5 14.4a27.3 27.3 0 0 1-2.3 7c-.3.9.3.8 1.5-.2 1-.8 2.2-3 4.5-8.3 1.3-2.8 2-6.3 2.2-10 .2-3.2.4-4.1.9-3.3.8 1.3.3 7-1 11-.5 1.4-1.7 4.2-2.6 6-2.4 4.8-2.5 4.7 3.7 2.6 2.8-1 2.7-.9 2-2.2-.7-1.7-.5-2.7 1-4.2 1.2-1.1 1.5-1.3 3.3-1.6 1.1-.2 2.4-.2 2.8-.2.7.2.9.1 1.6-.8 1-1.4 1.9-1.8 3-1.4 4.6 1.5 5.8 2.3 5.8 3.7 0 .4-.3 1.8-.7 3l-.6 2.6s1.3.6 3 1.1l3.1 1.2c.5.4 3.4 1.1 4.4 1.1.5 0 1.2.4 2.3 1.2.8.7 2.1 1.7 3 2.1.7.5 2.3 1.7 3.3 2.7l3.2 2.9c.7.6 1.7 1.7 2.3 2.6.7.9 1.5 1.9 2 2.2.3.4.8 1 1 1.5l1.7 2.6c1.7 2.6 6 11.1 6.7 13.6.4 1.2 1.2 2.9 1.8 3.7 1.5 2.4 2.6 4.3 2.6 4.6 0 .5 1.4 2.4 1.7 2.4l4.5-.5c3.3-.3 4.2-.3 4.5 0 .5.4-.5 1-2 1-1 0-3.6.3-5.7.7-.8.1-1 .5-.6 1.1.1.3.8.2 3 0 3-.5 3.6-.4 3.3.4-.1.3-.7.4-2.2.4-2.7 0-3.9.3-3.6.7.3.4 1.3 2.8 2.2 5.4.6 1.6.9 3 1 4.8.1 1.4.4 3.4.7 4.4.5 2.3.3 5.1-.5 5.1-.2 0-1 .6-1.6 1.2-.7.7-1.4 1.2-1.6 1.2l-.7.4c-.4.5-3 1.7-3.7 1.7-.3 0-.5.2-.5.4l-1.1 1.3c-1.3 1.2-1.2 1.7.3 1.6 2.1-.1 9.7-2.3 10.2-3l.8-1.7 1-2.3c1.5-2.2 1.6-6.4.3-7.2-.7-.4-1.2-2.1-1.3-4.2 0-1.8 0-2 .8-3.3.6-.9 1.3-1.6 2-2l1.2-.6 2 .7c1.8.5 2.2.8 2.9 1.6.4.6.9 1.6 1.1 2.3.5 1.5 1.1 2 2.2 1.7 1.2-.3 1.5-1.1 1.3-3.7-.2-2.9 0-3.3 2.3-4.4 2-.9 2-.9 4-.2 1.7.6 1.7.6 2.2 2l.7 2.5c.1 1-.2 4.3-.5 5.1-.1.3 0 .5.3.5.4 0 .6.2.7.6.1.4.3.7.5.7l.6.8c.3.8.4.8.5.4l1.4-3c1-2 1.7-3 3.6-4.8 3.5-3.5 8-6.4 8-5.2 0 .2-1 1-2.3 1.8-2.8 1.9-7.1 6.1-8.3 8.2-1.1 1.8-1.6 3-1.3 3.3.2.2 2.2-1.8 2.3-2.4 0-.4.3-.6.6-.6s1.2-.5 2-1c2.4-1.9 7.6-4.6 9.7-5.3.4-.1.6 0 .6.2s-1 .9-2.3 1.5c-2.6 1.3-5 2.7-7.3 4.4-2 1.4-5.4 4.7-5.9 5.7-.4.8-.4.9 1 1.9.6.4.6.4-.1 1.5-.4.6-.7 1.3-.7 1.7 0 .6 0 .7.7.7l1-.2c0-.2.5-.3 1-.3l2.6-.4 4-1a59 59 0 0 0 5-1.3 18 18 0 0 1 7-1.3c.7.2 4.5.6 9 1 2.2.2 3.7.7 3.9 1.2.2.6-.3 4-.6 4a69.4 69.4 0 0 1 .6 12.2l.4 13.2a917.6 917.6 0 0 1 .7 26.7l.2 3-5.3 5.2a36.8 36.8 0 0 0-5.4 6c0 .5-.3.7-1 1a5 5 0 0 0-1.7 1.1c-.5.6-1 1-1.2 1-.3.2-.3.8 0 3.2.3 2.7.2 3.2-.3 6a93.9 93.9 0 0 1-2 8.5 10 10 0 0 1-2 4.3l-1 1.9c-1 2.7-2.1 3.6-5.2 4.7-1.9.6-2.5 1-3.5 2-2 2-2 2-7.9 1.9l-5-.2-.6.7c-.8 1.3-.7 2.6.5 5 1.4 3 1.6 4.4.7 6.8-.7 2-2.9 4.7-3.7 4.7-.3 0-.9.2-1.3.5a6 6 0 0 1-1.8.5 48.7 48.7 0 0 1-7.6.5c-4.7 0-6.5 0-8.3-.5zm13.8-1.5c3.2-.4 4.4-.9 5.6-2.2 2-2.2 2.3-5.4.7-8.4-1.4-2.7-1.7-3.2-2.3-3.2-.6 0-.8-.4-.3-.5.1 0-.1-1-.5-2.2-.6-1.9-.8-2.2-1.4-2.2h-.9l.1-.5c.3-.2.1-.5-.5-1-1-.8-1.3-.9-2-.2s-.8 1-.3 1 .7.7.7 1.7c0 .5.2.8.4 1 .3 0 .4.3.3.8 0 .6 0 .8.4.9.3 0 .5.3.5.6 0 .2.2.4.4.4s.4.2.5.5c0 .4.4.8 1 1.1 1 .5 1 .6 1.4 2.8.6 3.3.6 3.9-.4 4.7a13 13 0 0 1-5.4 2.4l-3.2.2c-1.2.1-4.8 0-8.2-.1-8.5-.5-14.1-.4-17.3.3-3 .7-5.8 1.5-6.4 1.8-.5.4 2.8.4 5 0 6.9-1 7.4-1 11.7-.9 2.4 0 5.5.3 6.8.5a69.6 69.6 0 0 0 10.1.9c.2.1 1 0 3.5-.2zm6.3-7c0-.3.2-.4.3-.3l.3.4c0 .2-.2.3-.3.3-.1 0-.3-.2-.3-.4zm12.4-11.6c.5-.2 1.4-.9 2.2-1.6.7-.7 1.5-1.2 1.7-1.2.7 0 4.3-2.2 4.6-2.8l.6-1.2c.1-.4.9-1.7 1.6-3 1.8-2.7 2-3 2.6-6.8.3-1.7.6-3.4.8-3.8.6-2 .8-3.7.7-4.3l-.2-2.7c0-3.4-.5-9.1-1-11.7-.9-3.6-2-7.3-2.3-7.3l-.4 1.2c-.3 2.3-1 2.5-2.6.6a7 7 0 0 1-1.6-5c0-1-.5-2.6-1.5-4.7a48.9 48.9 0 0 1-3.5-10.4c0-.5-.4-1-1-1.4-1-1-1.7-2.7-1.7-4.9 0-1.6 0-1.6-1-2l-1.4-.8c-.4-.2-.4 0 .1 1.6l1.4 4.3c2.7 10.5 3 11.6 2.5 11.9-.6.4-1-.2-1.7-3a220 220 0 0 0-4.3-13.4c-.7-2-1.2-2.4-2.4-2.4-1 0-1-.3-.4 6.2.3 2.6.7 7.2.8 10.2l.7 9.3c1 8.3 1.2 13.1.8 13.5h-.7c-.3-.2-.5-.8-.6-2.6 0-1.3-.3-2.8-.4-3.4a292 292 0 0 1-1.7-17.9c-.7-8.7-.9-9.2-1-2.4 0 5.7 0 6.6-.8 6l-.5-5.2c-.3-5.6-.6-7.8-1.3-10.3-.6-1.8-.6-1.8-1.3-1.7-.8.2-1.3.6-1.3 1l-.8 1.4a44 44 0 0 0-4 15.3c-.3 2-.3 2.2-1 2-.4-.3-.4-1.3 0-5 .4-3 1-5.5 1.7-8 .4-1.4.4-1.6 0-2.7-.4-.9-.4-1.6-.3-2.3.2-1.6-.4-1.2-1.5 1-.5 1-1.1 1.9-1.4 1.9-.8.2-.6-1.2.5-3.4 1-1.9 1-2.1.7-2.1-.4 0-2.9 2.4-3.5 3.4l-1.3 1.9c-1 1.3-2.8 4.8-3.9 7.5a171.6 171.6 0 0 0-6.4 21.8l-.4 4.8c-.4 3-.4 4.4-.2 9.4.2 3.3.3 6.1.2 6.2-.3.4-1.1.3-1.3-.1l-.4-4.8-.4-5c0-1-1.8 4.7-1.8 6 0 .8-.1 1.8-.4 2.3-.2.6-.4 2-.4 4 0 4.2.4 5 3 6.3 1.8 1 2 1 5 1s4.7.4 5.1 1.1c.1.2.7.5 1.4.6.6.2 1.2.5 1.3.7.2.5 3.1 1.9 4.6 2 2.2.4 3.4 1 4 2 .8 1.4 1.6 1.8 3.3 1.6 1-.2 1.7-.1 2.2.1.4.2 1.6.5 2.7.6 1.1 0 2.5.3 3 .5 1.3.5 5 .5 6.2 0zm-9.2-3.2c-.3-.4-.1-.7 1.4-2.1 1-.9 2-2 2.1-2.6.6-1.2 2-2.6 2.6-2.6.8 0 1.4 1 1.3 2.4-.1.9-.2 1.2-.6 1.3-.3 0-.6-.1-.7-.3-.3-.4-.7-.1-3.3 2.4l-2.3 1.9-.5-.4zm-4.5-4.3.6-2c.4-1 .7-1.5 1-1.5.7 0 .6 1.1 0 2.6-.7 1.2-1.6 1.8-1.6.9zm-22.6-5.3c-.5-.5.6-4 1.8-6 .7-.8.8-1.3 1-4 .1-2 .3-3 .6-3.3.8-.8 1 0 1 5.1 0 4.7 0 5.2-.6 5.8-.4.5-.5.5-.8.2l-.2-.9c0-1-.6-.4-1 1-.2 1-.5 1.8-.7 2-.3.3-.8.4-1 .1zm34.7-1a38.7 38.7 0 0 0 2.6-17.2c0-4.1-.1-4.5-.6-4.6-.8-.2-1-.6-1.3-2-.2-2 0-2.8.8-2.8.6 0 .6 0 .4-1.4a467.2 467.2 0 0 1-1.2-7.4c-.2-.9.5-1.2 1.2-.4 1 1 2.1 8 2.3 15.3.3 8.8-.5 14.8-2.5 18.9-1 1.8-1.5 2.3-1.7 1.7zm2.7-2.8c0-.1.1-.3.3-.3l.3.3c0 .2-.2.3-.3.3a.3.3 0 0 1-.3-.3zm-31.6-1.7c-.3-1.2 0-5.2.8-7.8 1.3-5.3 1.4-5.7 3.4-11 .4-1.2 2-2.3 2.2-1.6l-.5 1.8c-.4.8-1 2.4-1.3 3.5l-.7 2.5a59.6 59.6 0 0 0-2.8 13c-.4.5-1 .3-1.1-.4zm11.3-3.9c-.2-.2-.3-2-.3-6.6 0-9.2.4-11.7 1.5-10.8a29.6 29.6 0 0 1-.2 7.9v4.8c.2 4.7 0 5.7-1 4.7zm-80.9 13.6V182c-.2-1-.4-1.2-1-1.3-.4-.1-.9-.8-2-2.8l-1.4-2.7h-1.1a19.3 19.3 0 0 1-6.3-1.2c-.4-.1-.9-.5-1.2-1.2-.3-.6-.8-1.1-1-1.2-.2 0-.5-.6-.8-1.1-.4-.9-.4-1.2-.1-3 .5-3.3.8-4.9 1.2-5.3.5-.6.4-1.1 0-1-.3 0-.6.4-.7.8-.5 2.2-2 5-4.5 7.9-2.1 2.5-2.2 2.8-1 4.5.5 1 1.2 1.4 3 2.4l4 2.1c.8.6 2 1 2.4 1.1a9 9 0 0 1 1.9.6l1.1.4.8.3c.5.5 3.6 1.5 4.7 1.6.5 0 1 .2 1 .4.2.4.8.4 1 0zm-7.9-4.3s0-.4.4-.6c.6-.6 1-.1.4.5-.5.4-.6.5-.8.1zm11 3.5c.7-.8 2-1 3.4-.3a8 8 0 0 0 3 .5c2.9 0 6.9-.2 7.1-.5.2-.1.4-.9.4-1.6.2-1.4-.3-3-1.8-6.2l-1.6-4.1c-1-2.7-2-4.5-2.4-4.5-.3 0-.2.7.3 1.6.3.6.5 1.7.6 3.2.1 1.3.4 2.7.6 3 .3.7.2 1-.3 2.1-.5 1-.6 2-.7 3.5 0 1.9 0 2-.6 2.1-.3 0-.8-.2-1.3-.6-.6-.6-.7-.9-.5-1.6 0-.6 0-1-.3-1.5s-.3-.8-.2-1.2c.5-1 1-3.2 1-5.6l.1-2.4-1.1 1.1c-1 1-2.1 2-3.4 2.6-.3.2-.3.8-.3 3 .1 2.8-.2 4.3-1 5.7-.5.6-.8.9-1.4.9-.7 0-1 .3-.9.9.2.5.6.5 1.2-.1zm-.8-2.4c1-1 1.2-4.3.3-5.4-.3-.3-.4-.8-.2-2.4l-.1-2.1c-.2-.2-.2-.4 0-.8.2-.3.4-1.8.4-3.2.1-4.2.2-5.1.6-5.5.5-.6.8-6.7.6-10.4l-.4-4.2a29 29 0 0 0-1.1-5.4c-.2-.4-.5-1.7-.6-2.7-.4-3.3-1.9-6.3-3-6.3-.6 0-.6 0-.1 1.2s.5 2.2 0 2.2c-.2 0-.9-.6-1.6-1.4-1.1-1.4-1.2-1.4-2.5-1.4-1.4 0-1.6.2-1 1.3.2.3.4 2 .5 3.6.3 4.9 1.1 8.5 2 8.8.2.1.4.4.4.7 0 .3 0 .6.2.7.2.1.7 1 1.2 2.2a15 15 0 0 1 1 9.7c-.2 1-.3 2.8-.3 5.7 0 4 0 4.2-.5 4.2-.6 0-1-.7-1.2-2l-.4-2c-.2-.6-.2-2-.1-3 .1-1.8 0-1.9-.4-2-.3-.1-.7-.5-.8-.8l-1.3-2.7a18.5 18.5 0 0 1-1.7-4.2l-.3-1c-.2-.4-.5-2-.7-3.5-.3-2.5-.3-2.9.1-3.8.4-.8.4-1 .1-2.2l-.4-3.4c-.1-1.2-.3-2.2-.4-2.2a30.2 30.2 0 0 0-.5 9.7 48 48 0 0 0 2.1 9.4l1.5 5c.5 2.4 1.3 4.4 2 4.8.4.2.5.3.2.6-.5.5-.3 3.1.3 4.3l1 2.3 1.4 2.6c.4.6.9 1.8 1.1 2.6.4 1.5 1.3 2.9 1.8 2.9l.8-.5zm-1.5-24.3a27.4 27.4 0 0 0-1.4-14c-1-3.4-1-4-.7-4.3.7-.7 1-.1 1.8 2.3 1.1 3.3 1.5 5.5 1.8 9.4.3 4.4.3 4.6-.2 6-.3 1-.5 1.3-1 1.3-.4 0-.5 0-.3-.7zm-3.1-8.5-.2-.8-.8-4c-.4-1.7-.7-3.3-.6-3.5.2-.4.9.3.9 1l.6 3.4.7 3.3c0 .6-.3 1-.6.6zm57.9 27.9c.4-.7.4-.7-.5-1-.4-.3-1.3-.5-1.9-.6-1.5-.3-5.9-4.7-7-7a43 43 0 0 1-1.2-25.3 53.1 53.1 0 0 1 2.6-9.5c.4 0 .4-.2.4-1.3 0-1 .2-2 1-4.2.6-1.6 1.3-3.5 1.4-4.3l1.4-5.2a97.1 97.1 0 0 0 3.3-13.5c.4-1.6.7-4 .8-5.3 0-2.2 0-2.4-.4-2.2l-5.4 1.5c-1.3.3-1.3.8 0 .6 1-.2 1.2.4.3 1-.7.5-.7.4.8 1 .3 0 .3.1-.2.5-.4.3-.5.6-.3 1 .1.3.4.6.5.6.5 0 .3.8-.2 1-.7.4-.7 1-.1 1.7.3.4.3.6 0 .9-.1.2-.2.6-.1.8l-.3 1.2c-.2.5-.3.9-.2 1 0 .1 0 1.4-.3 2.7-.6 3.7-.7 4-1 4.4v1l-.1 1c-.2.2-.4.9-.6 1.5a116 116 0 0 1-2.8 8.7c-.2 0-.3.3-.2 1 0 .4 0 1.2-.2 1.7-.3.5-.6 2-.9 3.2l-.8 3.8a105.4 105.4 0 0 0-1.6 9.4c-.3 1.5-.1 11.4.2 13.5a18 18 0 0 0 2 6.4l.6 1.4c0 .5.1.7 1.8 2.5a5 5 0 0 0 1.5 1.3c.2 0 .8.6 1.4 1.3a6.8 6.8 0 0 0 4.9 2.4c.7 0 1-.1 1.4-.6zm-31.8-1.4c1.2 0 1.8-.2 1.8-.5 0-.2.6-.7 1.4-1.1 1.5-1 2.2-1.1 1.3-.5-.5.4-.5.4 0 .4s1-1 .9-2c0-.4 0-.7.3-.8.1 0 .3 0 .3.3 0 .8.7 1 1.4.4.4-.3 1-.5 1.3-.5.4 0 .8-.2 1-.4a24 24 0 0 1 5-3.6c2-1 2.1-1.1 1.3-7.2-.2-2-.2-3.3 0-5.5l.6-6.7c.1-2.2.5-5 .7-6.2a96.4 96.4 0 0 1 2.7-11.6 55.7 55.7 0 0 0 3.4-14.3 339 339 0 0 1-21.2 7.3l-2.4 1c-1.6.5-2 .5-2.3.2-.6-.6 0-.9 3.2-2.1 2.8-1 3.3-1.4 1.9-1.4-.4 0-1.2-.3-1.8-.6-.6-.3-1.5-.5-2.2-.5-1.5 0-4-.5-4.2-.8-.3-.3-2.8-.8-4.6-.8-2.3 0-6.7-1.5-8.5-3-.7-.4-1-.5-3.2-.3-1.3 0-3.2.3-4.2.4-2 .4-2 .4-2 3.3 0 2 .3 2.1.6.3.2-1.2 1.5-2.6 2.2-2.5.3 0 .5.4.6 1.5.1 1.4.6 2 1.2 1.7l.5.1a61.3 61.3 0 0 1 10.8 1.2c2 .4 4.2.7 4.8.6.7-.1 1 0 1.4.3.3.3.9.7 1.3.8.7.1.9.3.9.8 0 .8-.5.8-1.3 0-.7-.7-1-.7-4.4-1l-3.8-.3c-.3-.2-8-1-9.4-1.1h-1.3v.9c0 .5.3 1 .5 1.1.4.3 1.2 1.7 1.2 2.4 0 .6 1.5 1.3 2 1 .3-.1.6 0 1 .2.5.5 2.4 1 7 1.8l5 1c.9.1 1.3.1 1.4-.1.2-.3 2-.1 2.5.3.4.3 5.6-1.3 8.2-2.6 2.2-1 2.5-1 2.5-.3 0 .4-.5.7-2.2 1.5a19 19 0 0 1-4.6 1.8c-.4 0-1.5.4-2.3.8l-1.6.6-.3 3.3c-.4 4-.2 14.8.3 20.1a153.1 153.1 0 0 1 .5 14.7c-.9.8-1 0-1.4-6.7l-.5-6.6-.5-6a93 93 0 0 1 0-12.1c0-3.5.2-6.6 0-6.8 0-.3-1-.5-4.7-1.2l-5.4-1c-2.2-.5-4.6-.9-5.5-.9H90v2.2c.1 1.8.3 2.5.7 3.4.9 1.8 1.5 3.6 1.8 5.8.5 3 .5 3 1.1 3.7.4.5.5 1 .5 2.1l.4 3.9c.4 2 .4 2.5 0 3.8-.4 1.8-.5 5.1 0 5.9.2.4.4.5 1.3.3.6 0 1.5-.3 2-.5s1.5-.5 2.3-.6c1.7-.1 1.9 0 2.1 1.9.2 1 .1 1.4-.4 2-1 1.4-.8 2 1.3 6.1 1.3 2.4 2.7 5.5 2.7 6 .1.6.3.8 1 1l1.9.7c.7.2 1.4.3 1.6.2a10 10 0 0 1 2.2-.4zm-16.2-43c-.4-.2-.4-.3.1-.6l.8-.7c1-.7 1.3.4.4 1.2-.5.5-.8.5-1.3.1zm11.7-4.8c-.2-.6.1-1.3.5-1.2.5.2.6 1.6 0 1.6a.7.7 0 0 1-.5-.4zm-76.4 47.6h-.5l.2.1c.3 0 .4 0 .3-.1zm51.5 0a8 8 0 0 0-1-2.3 21.5 21.5 0 0 1-2.7-7.5L79 162l-2.2.5-.3 1.6c0 .7-.3 1.9-.5 2.5-.7 2.3-.4 3.7 1.3 5.3 1.2 1.1 5.4 2.4 5.8 1.7zm-44.6-1a315.7 315.7 0 0 0 12.7-2.6l-3 .5a155 155 0 0 0-15.3 2.7c-.2.4.8.2 5.6-.5zm57-3.4c1.5-1.2 2.7-4 3-7.4.1-1.1.4-2.3.6-2.7.3-.6.4-.7.9-.4.5.2.5.2.4-.2 0-.4-.2-.5-1.1-.4-.6 0-1.5.2-2 .4l-1.4.4c-1 0-1.2.5-1.3 3.2l-.1 5c-.2 2.9-.1 3 1 2.1zm50.5-.9c.2-.2.3-.5.2-.6l-3.7-.3c-3.4 0-3.4 0-3 .5.4.7 1.6 1 4 .9 1.5 0 2.2-.2 2.5-.5zm-95.6-.7-.1-.2c-.2 0-.4 0-.5.2l.1.3c.2 0 .4-.1.5-.3zm94.5-4.3c.3-.3 0-.4-1.3-.5-1.8-.2-3 .1-1.9.5h2.4c.1.5.5.4.8 0zm-8.2-1.8c1.6-.8 4-2.3 4-2.5l-.4-1.6c-.3-1.4-1-5.3-1.3-9l-.2-1.5-.3 1.2a57 57 0 0 0-.3 6.4c0 3.8 0 5.3-.3 5.4-.8.2-1.2-2.2-1.2-7l.2-5.2c.2-1.8.2-2 .8-2l.8.2c.2.2.4-.4.6-2 .1-1.5.4-2.5.8-3s.5-1.3.7-4.2c.2-4 .5-6.9.9-7.3.4-.4 1.1.1 1 .7a61 61 0 0 0-.7 13c.1 7 .1 7.1.7 7.6.4.2.7.9.9 1.8l.4 1.6-.1-10.7c-.3-14-.2-17.7.2-18.2.2-.3.4-.4.5-.2.1 0 .3 5.4.4 11.9.1 11.2.2 11.7.7 12.7.4.8.5 1.3.4 1.8v1.4l.5 1.4c.2.8.8 1 1 .3.3-.7.2-1.2-.3-1.2s-.5-.5-.7-11.7v-15.4c.3-3.4.3-3.7.8-3.7.4 0 .5.2.5.7-.2 2-.2 20-.1 22.9l.1 3.4.2-2.2.4-17.1c.1-15.8.2-17.6.5-18.7.3-1-.4-1.2-2-.5l-2 .7c-.3 0-.7.3-1 .6-.7 1-2.9 7.5-3.6 11.3-.1.6-.5 1.8-.9 2.6a24 24 0 0 0-1 3l-1 3.8c-1.1 3-1 2.8-2.4 9.6a51.4 51.4 0 0 0-.3 15c.3 1.2.6 2.7.6 3.3 0 .7 0 1.2.2 1.2a8 8 0 0 0 1.3-.6zm-64.6-2.4-.3-4.2c-.1-3.1-.4-4.7-.7-4.7-.4 0-.6 1.2-.4 3l.3 4.4c.2 3 .2 3.2.8 3.2.4 0 .4-.3.3-1.7zm3-2.4c.1-1.5.3-5.2.3-8.2 0-3 0-8.1.3-11.5a246.9 246.9 0 0 0 .3-20c.2-.7-.8-.8-1.5 0-.6.4-.7.8-.7 1.9 0 .9.1 1.5.4 1.8.4.3.4.6.1 1.5l-.4 5.5-.2 5.8c0 1 0 1.4.3 1.5.4.2.4.6 0 .6-.3 0-.4 2.1-.4 9.7a127.3 127.3 0 0 0 .4 11.5c0 1.5.3 2.6.5 2.6.1 0 .4-1.2.5-2.7zm131.7 1.3a123.5 123.5 0 0 1 4.8-4.4c.5-.7 3.2-3.6 5.1-5.5l1.5-1.6-.1-8.3-.4-9.2c-.3-1.2-.3-4 0-4 .2 0 .3 0 .3-.2s-.1-.3-.3-.2c-.4.3-.5-.8-.1-1.5a127.6 127.6 0 0 0-.3-15.2c-.1-.1-.3 0-.4.2-.3.5-.3.6-.4-1.5-.1-1.2 0-1.6.3-1.8a40.1 40.1 0 0 0 0-11.1c-.2-.3-3 .5-4.6 1.3l-3.2 1.3-3.1 1.3c-1.9.8-2 .9-2.1 2-.1.7 0 1.4 0 1.6.2.3.3 3.2.2 7.2 0 3.7 0 9.7.3 13.3.3 7.8.3 7.8.2 20a77.9 77.9 0 0 0 .6 17.7c.1 0 .9-.6 1.7-1.4zm.6-4.4c0-.1.2-.3.4-.3s.3.2.2.3c0 .2-.2.3-.4.3-.1 0-.2-.1-.2-.3zm1.9-7.4c-.5-.8-.4-3.4 0-3.4.3 0 .5.5.6 1.7.2 1.9-.1 2.7-.6 1.7zm4-7.4c-.4-.6-.2-1.6.2-1.6s.6 1.2.3 1.7c-.2.5-.3.5-.6 0zm-6.2-4.4c-.2-.4-.3-2-.3-3.7a10 10 0 0 1 1.4-6.2c.5 0 .4.5 0 1.6-.7 1.2-.8 5-.3 7.3.1.7.2 1.4.1 1.5-.2.4-.6.2-1-.5zm3-.7c-.2-3.2 0-6.4.2-6.5.2 0 .3.4.3 1.2 0 .8 0 1.4.2 1.5.3.2.7-1.5.4-2-.2-.3.4-1 .7-.9.2.1.3.8.2 1.6l.4 2.8c.5 1.5.4 2.1 0 2.1-.2 0-.4-.6-.6-1.4-.5-2.2-1-2.1-1.2.1-.2 1.8-.6 2.8-.7 1.5zm3.3-2c-.2-.2-.2-2.2 0-4 .2-1.4.6-1.8 1.1-.9.2.4.3.3.4-.5.1-.6.3-1 .5-1 .3 0 .2 1.1-.2 2-.3.5-.3.8-.1 1 .2.3.3 1 .3 1.8 0 1.3 0 1.4-.5 1.4-.4 0-.5-.2-.7-1l-.1-1.1v1.1c-.1 1-.4 1.6-.7 1.2zm2.9-1.8c-.3-.3-.2-5.6 0-5.8.4-.2.4-.3.4 3.3 0 2.5 0 2.9-.4 2.5zm-6.4-12c-.3-.4 0-.7.4-.4.2.2.2.4 0 .5l-.4-.1zm-3.6-1.2a24 24 0 0 1-.3-7.8c.5-1.8.7-1 .7 2.3 0 1.9.1 4 .3 4.6.2 1.4 0 1.7-.7.9zm2.9-1.5c-.4-.8-.4-5.7 0-7.3.3-.9.4-1.1.8-1 .3 0 .4.3.4 1.6 0 1 .2 1.8.5 2.3l.4.6.2-1.1c.1-.7.3-1.1.6-1.1.2 0 .3-.3.3-.6s-.1-.5-.3-.4c-.2 0-.4-.2-.4-.6 0-.4 0-.6.3-.6s.5-.2.6-.5c.3-1 .6-.5.7 1.1 0 1.5 0 1.6.3.8.1-.4.4-.8.6-.8l.4.8c0 .6.1.3.2-.6 0-1.3 0-1.5-.4-1.4-.2.1-.4 0-.4-.2 0-.4 1-.9 1.3-.6v6.9l-.8.2c-.7.2-.7.2-.8-1.5v-1.6l-.8.7c-.9.8-1 1.9-.2 1.6.7-.2.7.5-.2 1.2l-.6 1.2c0 .7-.7 1.4-.9 1a7 7 0 0 1-.2-1.7c0-1.9-.2-2.2-.7-1.7-.3.2-.3.7-.2 2 .2 2 0 2.4-.7 1.3zM78 157.3c-.4-1.1-.6-.6-.2.6.2.5.4.8.4.6 0-.3 0-.8-.2-1.2zm6.1-2.8c-.1-.5-.7-2-1.3-3.2-1.8-3.7-1.3-1.4 1 4.7l.4 1.3.1-1c0-.5 0-1.3-.2-1.8zm57.5-1.8c-.5-.4-.6-.8-.8-3.8-.2-2.7-.3-3-.3-1.3 0 2.4.4 6.5.8 8.2l.3 1.2.3-2c.2-1.8.2-2-.3-2.3zm2 3c-.1-.1-.2 0-.2.4s0 .5.1.3v-.6zm-66.4-.6c-.3-.5-.3-.3 0 .3 0 .3.1.4.2.3l-.2-.6zm70.6-4.1c-.1-.2-.2 0-.2.3 0 .4 0 .5.2.4v-.7zm55.6-9c0-3.8 0-6.8-.2-6.7l-1.1 3.5c-1.1 3.7-1.1 3.6 0 6.7.9 2.9 1 3.2 1.2 3.2v-6.8zm-122 4.2c-.1-.1-.2 0-.2.4 0 .3 0 .5.2.3v-.7zm69.7-5.4c.2-.6.3-2.9.3-5.9l.3-8.5c.2-3.5.2-3.7.8-3.6.6.1.6.4.4 9.2v4.2c.6.5.7-1 .8-10.8 0-2.9.1-3.7.4-3.8.2 0 .4 0 .6.2v5.4c0 3.4 0 5 .3 5 .3-.2.5-1.9.6-6 .3-5.7.5-6.9 1-6.9s.5.2.5 1.6c0 1-.1 2.7-.3 4l-.2 4 .1 1.6 2-3.9c1-2 2.3-4.1 2.7-4.5 1-1 1.5-2.6 1.7-5.7 0-1.5.3-3 .6-3.6.6-1.2 1-3.8.6-4.3-.2-.3-.5-.2-1.5.6-2 1.5-4.4 1.5-4 0 .2-.5-1.1-7.5-1.4-7.9a59 59 0 0 0-11.2 0l-.4 1.2c-.6 1.5-1.2 4.2-1 4.4 0 0 1.4.4 2.9.6l2.7.4v1l-.4 6.1c-.5 6.8-.4 26 0 26.5.5.6.7.5 1-.6zm49.2-1.2 1.4-4.6c.1-.5 0-.7-1-1.1l-1.8-.6c-.3 0-.9-.2-1.2-.5-.5-.3-1.4-.5-2.3-.6-1.3-.1-1.5 0-1.5.3 0 .4 2 5.5 2.6 6.5.3.7 2.5 2.3 3 2.2l.8-1.6zm3.2-6.7a363 363 0 0 1-.8-22c0-6.2-.2-11.3-.2-11.5-.2-.2-1-.2-2.4 0h-2.6c-2.2 0-6 .2-6.3.4-.5.2-.5.3.3 1.6.4.8.8 1.6.8 1.9 0 .5 1.1 2.6 2.8 5.4.7 1 1.3 2.5 1.4 3.2.2.8.9 2.5 1.6 4 1.5 2.9 2 4.9 1.8 7.3-.1 1.5 0 1.9.5 2.9.8 1.3 1 3.2.7 4.8-.3 1-.2 1.2.4 1.4l1 .6c.5.6.8.5 1 0zm-4-2.7c.2-1.3-.1-3-.6-3.4l-.9.1-1.9.8c-.7.2-1.4.5-1.5.7l-.8.2c-.2 0-.4 0-.4.2 0 .4 1 .4 1.6 0 .4-.2.6-.2 1 .2.3.2.5.6.5.8 0 .4 2 1.7 2.4 1.6.3 0 .5-.5.6-1.2zM82 129.3l.4-1.1c.3-.7.3-1 0-2.1-.3-1.7-1-3.2-1.3-3.4h-1c-.6 0-.8 0-1.3-1.3l-.6-1.4-.3.8c-.2 1 0 2.1 1.4 5.5.5 1.2 1 2 1.4 2.1.2.1.5.4.6.7.1.6.7.7.7.2zm4.6-2c1.4-.7 1.4-.8.7-3.9-.3-1.4-.6-2-.7-1.6v1.3c.5 1.4.7 2.7.4 3-.3.6-1 .1-1.2-.7-.4-2-1.2-4-1.7-4-.3 0 0 4.6.3 6.4l.3 1.7.4-.9c.2-.6.7-1 1.5-1.4zm110.1-1.4c1-.7 1.3-1 1.5-2.7.2-1.4 0-3.2-.8-5.1-.5-1.3-1-1.5-1.3-.4-.2 1.2-.3 1.4-.7 1.3-.5-.2-.6-2.3 0-2.8.3-.4.3-.7-.2-2.3l-.6-2.5c-.1-.4-.8-1.6-1.6-2.8-1.4-2.2-2.5-4.4-2.3-5.2 0-.4-.3-.8-2.7-4l-2-2.3c-.7-.3-1.4-1.6-1.4-2.4 0-.4-.4-1-.9-1.5-.8-.7-1-1-1-2.2 0-.7.2-1.6.4-1.9.2-.4.1-.6-.2-1-.2-.5-.3-.8-.1-1.1a1 1 0 0 0 0-1 4 4 0 0 1-.3-1.3c0-.7-.2-.8-.7-.8-.7 0-.8-.8-.3-1.3.3-.3.2-.3-.1-.3-.3 0-.6-.2-.6-.4-.1-.2-.5-.4-.8-.4-.5 0-.7-.2-.7-.8 0-.4 0-.9-.2-1-.4-.2-.3-.9.1-1.2.2-.2.5-1.1.7-2.3.2-1.6.2-2.2-.2-3.3-.4-1.6-.6-1.8-1.5-2.2-1.3-.6-2-.4-3.1.7-1 1-1 1-1 3.1 0 1.7-.2 2.4-.6 3.3-.7 1.3-1.5 1.8-3 1.8h-1.2v1.6c.1 1.6-.2 2.3-.9 2-.3 0-.4-.9-.5-3.2-.3-3.7-.8-5.1-2.1-6-1.8-1-2.8-1-4.5.5-.9.8-1 1.1-1 2 0 1.9.3 3.1.8 3.3.6.2 1.6 2.2 1.6 3.5 0 1-1 5.2-1.5 6l-.7.6a10 10 0 0 0-1.3 2.9c-.9 2.7-.9 2.2-.3 8.5 0 1.2.2 2.2.9 5.1.3 1.3.4 1.6 1.1 1.8.8.3 1 .2 1.6-.6 1.6-1.9 1.8-2.2 1.4-2.4-.7-.3-.5-.8.8-2 .6-.7 1.1-1.4 1.1-1.7l.3-1c.5-.9-.2-.6-1 .5-.5.5-1 1.5-1.4 2.1-.5 1.2-1 1.4-1.2.8-.4-1 2-4.2 5.4-7.2 2.3-2.1 3-2.6 3-2l-2.3 2.5a32.7 32.7 0 0 0-2.2 2.4l.7-.1c.8-.4 1.2-.1 1 .5-.2.5-.1.5.4.3 1.6-1 3-2 3.8-2.9 1.3-1.5 1.5-2 1-2.5l-.2-.7c.1-.1 0-.3-.4-.4-.7-.1-.7-1 0-1.8.5-.5.6-.5.8-.2v1c-.4 1 0 1 .6 0 .3-.6.7-1 .9-1 .4 0 .5 1 .1 1.2-.4.2-.3.7.1.5.3-.1.6 0 .8.2.3.1.5.2.6 0l-.1-.2a.5.5 0 0 1-.3-.5c0-.4 1.4-2.6 2.2-3.5.6-.7 2.2-1.5 2.6-1.3.4.3.2 1.5-.4 1.8a11 11 0 0 0-2.6 2c0 .2.6 0 1.3-.4 1-.5 2.4-.8 2.4-.5 0 .5-.4 1-.8 1-.8 0-.8.4 0 .6 1 .3.5 1-1 1.3-.4.1-1.1.7-1.6 1.3-.6.7-1.5 1.5-2.4 2-4 2-5 2.7-5.8 4.1-.5.9-.7 1.6-.6 2 0 .3-.2 1.1-.6 2-.6 1.2-.8 2-.8 3.2 0 2.2 0 2.2-.8 2.5-.7.3-1.7 1.7-1.7 2.4s1.6 2 2.6 2.2c.7 0 .8 0 .8-.4 0-.2.3-.6.6-.8.5-.4.5-.4-.3-1-.4-.4-.8-.8-.8-1 0-.5 1.4-1.1 2.6-1.1.9 0 1.2.1 1.8.8.3.5.9.9 1.2.9.3 0 .6.3.9.5.3.5.4.4 1-1a8 8 0 0 1 1.1-1.8c.5-.4 1.4-.1 3 1 1.2.8 1.5.8 2.2.6.5-.2.9-.2 1.1 0 .6.5.2 1-1.7 2.2-1.7 1-3 2-1.6 1.3 1-.6 3.2-.2 3.9.7.3.4.4.4 1 0a7 7 0 0 1 1.4-1c.7-.4.7-.5.7-1.5 0-.6-.5-2.1-1.1-3.5-1.3-2.8-1.7-4.3-1.6-5.7 0-.9.2-1 .7-1.1.7-.1 1.3.7 1.5 2.2.2 1 .2 1.1 1 1 .6-.1 1 0 1.2.2a21 21 0 0 1 1.1 6.1l.3 2.9c.3 1.3.3 1.6-.1 2.6-.4.8-.5 1.5-.4 3 .2 2.3.4 2.6 2.5 4 1.1.8 1.4.9 2.5.8.6-.1 1.6-.4 2-.7zm-22.6-15.3c-.5-.3-.2-1 .5-1 .6 0 1 .7.5 1l-.5.2s-.3 0-.5-.2zm-14.3-11.1c0-.2 0-.3.2-.2l.3.3-.3.1c-.1 0-.2 0-.2-.2zm3.3-3.6c-.4-.4-.2-2 .3-2.1.4-.1.3-.2-.2-.8-.4-.4-.5-.6-.2-.9.5-.5 1.4-.4 2 .3.9 1 .7 1.8-.4 2.8-1 .9-1.2 1-1.5.7zm11-5c-.4-.7 0-1.5.6-1.5s.7.5.3 1.3c-.5 1-.6 1-1 .2zm3.3-2.2c-.2-.2 0-.9.4-2.4.2-.8.4-.9.9-.7.3 0 .7 0 .8-.2.2-.4.9-.3.9.2 0 .8-1 2.5-1.5 2.4-.3 0-.7.2-.9.4-.2.3-.5.4-.6.3zm-.5-4.5-.3-1.5c-.2-1-.2-1.2.1-1.2.7 0 1 .6 1 1.5 0 .8-.6 1.6-.8 1.2zm-11.3-1c-1.9-1-3.4-2.9-3-3.7.1-.6 1.5-.5 2 .1.3.3.9.6 1.3.6.8 0 1.2.4 1.4 2 .2.9.1 1.1-.3 1.4-.4.2-.7.1-1.4-.3zm12.7 37.9c-.3-.3-.3-.2-.2.2l.2 1c0 .4.1.4.2-.2 0-.4 0-.9-.2-1zm-5.9-3.5-1 .1c-.6.3-.8.6-1.2 1.7-.4 1-.4 1.4-.1 2 .3.7.3.7 1.4-1.5l1-2.3zm-92.4.2c0-1.4-.2-2.7-.4-2.8-.2-.2-2.4 0-2.4.3 0 .2.4.3.8.4.7.1.8.3 1.3 2.4l.8 2.3v-2.6zm98 1.2c0-1-.4-1.8-.7-1.5-.1.2.4 2.3.6 2.3l.1-.8zm-59-2.2-.2-.5c-.4-.2-.4-1.2 0-1.2l.7-.5c.2-.3.7-.6 1.1-.6.6-.1.6-.2.1-.3-1-.5-1.3-.7-1.4-1.5 0-1 .3-1.5 1.1-1.7.8 0 .8-.5.1-.8-.4-.2-.6-.6-.6-1.2-.1-.7 0-.9.6-1.1.7-.4.9-1 .3-1-.2 0-.8.3-1.3.7-.5.4-1.2 1-1.7 1.2l-1.3.8c-.5.5-.5.5.2 1 .8.6 1 1.4.3 1.7-.5.1-2.2-.1-2.7-.5-.2-.1-.5-.1-.8 0-.5.3-.7.3-1.2 0-.9-.6-1.2-.6-1.3 0-.2.5 1 2.7 1.4 2.7.1 0 .3-.2.3-.6.1-.8 1-1 1 0 0 .6.4.9.7.4.3-.6 1.2-.3 1.6.6 1 2.2 1.3 2.5 1.8 2.6 1 .2 1.2.2 1.2-.2zm10.7-2c6.8-2.4 6.5-2.3 6.6-3 .7-2.8.6-6 0-3.8-1.2 3.9-1.5 4-7.2 4-5 0-5.5.2-5.2 1.2.2.4.3 1.2.3 1.7 0 1.6.1 1.8.3 1.8l5.2-1.9zm47 1.6-.4-.5c-.3-.3-.4-.3-.4 0 0 .2 0 .5.2.6.2.2.6.2.6 0zm-5.3-1.5c-.8-.4-1-.3-.5.3.1.2.5.3.7.2.3-.1.3-.2-.2-.5zM83 113.6c.3-.4 0-3.4-.5-4.3a5 5 0 0 1-.4-1.9c0-.6 0-1.4-.2-1.6-.3-.4-.3 1.8.2 6.5.3 3.3.4 3.4.5 2.4 0-.5.2-1 .4-1.1zm96.5-.3c0-.3-1.6-1.1-1.9-1-.2.1-1.3 2.4-1.3 2.7l1.6-.7 1.6-1zm-74.8-1.3-.3-1.4c-.1-1-.4-1.2-1-.8-.6.5-.4 1.5.4 2 .9.7 1.2.8 1 .2zm3.9-1-.4-.2c-.4 0-.7.6-.7 1.3 0 .4.2.3.6-.2l.5-.9zm-23.2-2c-.2-5-.3-5.3-1.6-4.4-.6.5-.8 1.8-.4 2.1.2.1.4 1.3.5 2.6 0 1.4.2 2.6.3 2.7l.7.2h.7zm-4.6 2.4-.4-1.3-.4-1 .1 1 .2 1.5c0 .2.1.3.3.3.1 0 .2-.2.2-.5zm8 0-.3-.7-.4-4c0-2-.2-3.7-.3-3.8l-.8.2-.7.3v4l.3 4.2c0 .2.6.3 1.2.3 1 0 1.2 0 1-.5zm2 0c0-1-.2-1.9-.5-1.7l-.2 1.2c0 .7 0 1 .4 1 .2 0 .4-.2.4-.6zm1.7 0c-.3-.2-.3-1.9-.3-8.5.1-6.2 0-8.3-.2-8.4-.2 0-.4.4-.5 1.1-.2 1.6 0 15 .3 15.6.1.2.4.4.6.4.4 0 .4 0 .1-.2zm6.2-.7c0-.5-.2-.8-.5-.9-.4 0-.4.1-.4 1 0 .7 0 .9.4.8.3 0 .5-.3.5-.9zm2.4-.4c.1-.2 0-.3-.2-.2-.2 0-.4.3-.5.5 0 .2 0 .3.3.2.2 0 .4-.3.4-.5zm45.4-.5c.8-.3 1.5-.7 1.5-.8 0-.2-3.4-1-3.5-.8-.2.2-.7 2.4-.5 2.5l.5-.1a29 29 0 0 1 2-.8zm-14.2.6c.7-.6.9-1 .6-2l-.6-1.2c-.3-.5.4-1.1 1.4-1.1h1l-1-.3c-1.5-.2-1.6-.4-1.2-1.3.3-.5.7-.8 1.2-.8.6-.1.7-.2.8-1.4v-1.4l-.6.6c-.4.4-1 .6-1.7.6h-1.1v1.5c0 1.5-.5 2.3-1.2 2-.3 0-.4.1-.4 1 0 .6-.2 1.1-.4 1.3-.7.6-.5.8 1 1 1 .1 1.3.2 1.2.7v.8c0 .2.6.2 1 0zM80 108l-.1.4c0 .3 0 .5.1.3v-.7zm14.4-5.8c0-3.6 0-5.5-.2-5.5-.5 0-.6.8-.7 6.4-.2 5.2-.2 5.4.3 5 .4-.5.5-1 .6-6zm8.3 4.8c-.2-3.9-.2-4-.7-4-.7-.3-1 .1-.7 1 .2.5.2 1 0 1.7a4 4 0 0 0-.2 1.7c.2.6.3.7 1 .7.6-.1.6-.2.6-1zm-2.6-2.2c0-2.9-.1-3.6-.5-2.6-.3.8 0 5.6.3 5.6.1 0 .2-1.3.2-3zm4.6 1.6c0-1.1 0-1.5-.4-1.5-.3 0-.4.4-.4 1.5 0 1 .1 1.4.4 1.4.2 0 .3-.5.4-1.4zm11.4.7c.8-.5 3-2.9 3-3.2 0-.4 1.3-1.6 2.9-2.6l1.5-1.1a4 4 0 0 0-.4-1c-.3-.5-.3-.8 0-1 .3-.6.5-.5 1.6.5.6.5 1.4 1 1.8 1 .9.3 3.5-.7 4.8-1.7 1.6-1.3 2-1.5 4-1.7.8-.1 2.2-.5 2.9-.8l1.7-.6c1 0 3.8-1.1 5-2 1.1-.8 1.3-1 1.5-2.2.2-1.2 0-1.9-.5-4.3-.7-3-1.2-4.2-4.2-11.4a102.9 102.9 0 0 1-3.2-8.7c-.9-2.4-.7-3.8.5-3 .4.3 1.7 3.1 3 6.6.5 1.7 1.6 4.6 2.3 6.3 2.1 5.5 3 7.9 3.3 9.9.5 2.5.9 2.8 3.2 2.6 1.8-.2 3.7-1.2 4-2 .2-.2.2-2.4.2-5v-4.4l-1.1-3.2c-.6-1.7-1.5-4-2-4.9-1.5-3.3-4.7-9.1-5.7-10.8-.6-1-1.3-2.5-1.7-4a66.2 66.2 0 0 0-7-14c-2.1-3.3-4.7-6.3-8-9.3a210.3 210.3 0 0 1-6.2-5.8c-.8-.5-1-.6-1.2-.2-.2.2-1 .4-2 .6-.9 0-2.1.3-2.7.5l-1.3.4c-.5 0-.2-1 .4-1.4.8-.5 3.2-1 4.5-.8l1 .1-.7-.6c-1-.8-1-.8-3.5-.3-1 .2-2 .3-2.2.2-.2 0-.5.1-.8.5-.9 1-4.2.7-3.6-.4l.6-.2c.3 0 .8-.3 1-.7.4-.3.9-.6 1.2-.6 1 0 .8-.5-.5-1a76 76 0 0 1-3.1-.9c-1 0-2.8-.5-3-.9-.4-.4-.3-.9.2-1.4.3-.2.6-.8.7-1.3 0-.4.4-1.5.9-2.4.4-.8.7-1.7.6-2 0-.4-3.8-2-4.8-2-.8 0-1.5.4-1.9 1-.2.5-.1.7.8 1.6 1.5 1.4 2 3.2 2 6.3 0 2.6-.7 4.4-1.5 4.5-.7.2-.8-.8 0-2.7.7-2.3.8-3.7 0-5.5-.6-1.8-1-2.2-2.7-2.7a9.5 9.5 0 0 0-5.3.4c-.9.3-2 2-2 3s2 3.5 2.5 3c.1-.1 0-.5-.2-.8-1-1.5-.1-2.1 1-.9.4.4.9.7 1.2.7.3 0 .6.2.7.4.2.6 1.1.8 1.7.3.6-.6.8-.5 1 .7.1 1-1 3.4-1.7 3.4-.3 0-.9-.5-1.4-1-1-1.1-1.6-1.4-1.6-.9 0 .6-1 .2-1.7-.7l-.8-.9-1.6.6c-.9.3-1.9.7-2.2 1a4 4 0 0 1-1.6.4c-.5 0-1.6.5-2.5 1-1 .5-1.7.7-2.2.6-.6-.1-1.1 0-2 .6l-1.5.9c-.3 0-5 4.3-6.1 5.6-.5.5-1.1 1-1.4 1.1a4 4 0 0 0-1.3.9L71 33.9c-1.1 1-1 1.4.3 1.2.8-.2.9-.2.9.5s.8 1.3 2.6 1.6c.7 0 1.7.5 2.2.8.8.6 1.1.6 1.6.4.3-.2 1.1-.4 1.8-.4l2-.5c.5-.2.7-.2 1 0 .1.2.6.3 1 .3 1 0 2.5 1 2.8 1.7.2.8-.4 1.2-1.8 1.2-1.6 0-3.2.4-3.4.8 0 .4 1.5 1 2.5 1 .8 0 1.8.6 3.7 1.7.8.5 1.4.7 1.7.6.3 0 .8 0 1.1.3l1.2.4c1 0 2.3-1 2.9-2l1.4-1.7a4 4 0 0 0 1.3-1.8 4 4 0 0 1 .8-1.5c.7-.6.7-1 .2-1.3-1-.4-6.7-1.2-9-1.3a10 10 0 0 1-2.9-.4c-.5-.6.7-.7 3.1-.3l3.2.3c.8 0 4.6.6 5.5.9.4.1 2.5-2.4 2.2-2.7-.2-.3-7-.2-11.6 0-4.4.4-5.8.7-4.1 1 1 .2.9.8-.2 1-.5.1-.8.3-.9.8 0 .3-.2.6-.3.5a7 7 0 0 0-.5 0c-.1 0-.3-.2-.3-.5 0-.7-.7-1.1-1.5-1-.8.2-1.5-.1-1.3-.5.1-.2.8-.4 1.5-.5.7 0 1.3-.3 1.3-.4 0 0 .2-.3.4-.3 1.2-.5 11.8-1.3 15.8-1.3 1.8 0 2.1 0 2.4-.5.3-.6.1-1-.5-1-.2 0-.3-.3-.3-.7 0-.7 2.5-3.5 3.4-3.7.9-.2 1.3.2.7.9-.5.5-1.6 3.4-1.4 3.6.3.3 2.3-1.2 2.6-2 .4-.7 1.2-1.2 2.3-1.4.9 0 1.1.7.3 1-.3.1-.5.4-.5.8 0 .7-1.1 1.9-2 2.1-.7.3-2 1.2-2 1.4 0 .3 2 .9 3.1.9.4 0 1.1-.3 1.5-.6a39.2 39.2 0 0 1 9.3-4c2.4-.2 4.4-.7 5-1.2.5-.5 1.2-.4 1.2.2 0 .7-1.1 1.5-3.2 2.1-2.9.9-3 .9-.7 1 1.5.2 2.3.4 2.8.8a5 5 0 0 0 1.6.7c1.1.3 1 1.1-.1 1h-4.8c-3.2-.1-4-.2-4-.5 0-.2-.4-.3-1.2-.3l-1.4-.1c-.3-.3-1.8.4-3 1.3l-1.4.9c-.3 0-3 2.1-3.9 3-1.5 1.6-2.1.4-1-2 .9-1.6.8-2-.3-2.1-.7-.1-1 0-1.6.7-.5.5-.8 1.2-.8 1.6 0 .4-.1 1-.3 1.2a54.1 54.1 0 0 1-6.6 9.2l-1 2.4c-2 3.6-2.4 4.4-2.6 5.4-.1 1 0 1.2.5 1.6 1 .6 1.2.4 1.6-1.1 1-3.6 4.2-8.6 6.7-10.9 2.8-2.5 3.3-3 3.6-3.7 0-.3.3-.6.4-.6 1 0 0 1.9-2.7 4.8a29 29 0 0 0-6.3 10.1c-.7 2-.7 2 1 2 1 0 1.8 0 2-.3.3-.1 1-1.4 1.8-2.7 3.3-5.5 3.8-6 7.9-8.4 3.7-2.2 6.2-2 7.3.6.3.7.6 1.3.8 1.4.6.4.6 2.4.1 5-.3 1.5-.5 3.7-.5 5.7v3.1l-1.3 2.4a7.8 7.8 0 0 1-3 3.8c-1 .8-2 1.4-2.3 1.4l-1.7.5c-4 1.5-6.3 1.9-8.2 1.2-.7-.2-1.8-.4-2.5-.4-.9 0-1.7-.2-2.7-.8-.9-.4-1.6-.7-1.7-.5 0 .1.1 2 .9 7.7.2 1.3.5 1.5 1.2.6.8-1 1.5-.7 1.5.3a40.9 40.9 0 0 0 7.4 19.4c.7 1.4 1.6 2.6 4 5.2l1.6 2.1c0 .5 1.4 1.6 2.7 2.4 2.3 1.2 4.1 1.5 5.2.7zm1.1-13.6c-.3-.4-1.4-2.6-1.4-2.9l-1-2.2a28.9 28.9 0 0 1-2.2-9.5c0-2 0-2.1.4-2.2h.7c.2.2.5 1.6.8 3.1a48 48 0 0 0 3.9 11.5l.4 1.6c0 .7 0 .8-.6.9-.4 0-.8-.1-1-.3zm-15.5-.8c-.2-.3-.6-2-1-3.6-.2-1.7-.7-4.2-1-5.5a29 29 0 0 1 0-9.6c.4-.7 1.7-.8 2-.1.2.7.1 5.8-.2 6.6-.2.7-.1 1.7.2 4.2 1 7.5 1 8 .7 8.4-.2.2-.4 0-.7-.4zm31.5 0 .1-5a104.6 104.6 0 0 0-.2-19.5c0-1.1.1-1.2.7-1.2s.7.1.9 1.2l.6 3.9c.4 2.9.5 7.2.1 11.8a63 63 0 0 1-1 8.6c-.3.5-1 .6-1.2.2zM130 72.4c0-.3.2-.4.6-.4.8 0 1 .3.3.6-.7.2-1 .2-1-.2zm-13.1-.6c-2.9-.4-4.3-.9-5.2-1.8-1.1-1.2.3-3 1.6-1.9 1 1 4.4 1.8 7.7 2h3l2.5-1.2c2.3-1.2 2.5-1.3 3.2-.9.5.3.7.7.7 1.2.1 1 0 1-3.2 2a25 25 0 0 1-10.3.6zm12.1-8c-.2-.4-.2-.4 2-2 1.7-1.3 1.7-1.4 1.8-2.6 0-1 .2-1.3.7-1.4.3-.1.6 0 .8.2.3.4.6.4 1.4.3.8-.1 1.1 0 1.2.3.2.4.2.4-2.1 2.2-4 3-5.3 3.6-5.8 3zm-1.6-8.3c0-.3 0-.9.2-1.4l.2-3.2c0-2.3-.6-4.8-1.8-6.8-.7-1.2-.7-2 0-2 .8 0 1.3.6 2.4 3.6.6 1.3.6 2 .6 5 0 2.5 0 3.6-.4 4.2-.4.9-1 1.1-1.2.6zm4.8-3c0-.2 0-.9.3-1.5.4-1.2.5-3.3.2-4.8a15 15 0 0 0-2.6-5.8c-1.1-1-.7-1.8.7-1.2.6.2 1 .8 2 2.7a8.9 8.9 0 0 1 1.3 5c.1 1.9 0 2.8-.4 4-.4 1.5-1 2.2-1.5 1.5zm-43.9-9.3c-.2-.3-.2-.9.2-.9l.6-.4c.3-.4.4-.4.7-.2.2.2.2.5-.2 1-.5.7-1 .8-1.3.5zm2.2-1.7.3-.2c.2 0 .2 0 .1.2 0 .2-.2.3-.2.3-.1 0-.2-.1-.2-.3zm-8.9-8.3v-.6c.3-.2 1 .2 1 .6 0 .5-.8.5-1 0zm-1.5 0c-.3-.4-.2-.7.3-.7.2 0 .4.2.4.4 0 .4-.4.6-.7.2zm8.4-1.5c-.2-.2-.7-.4-1-.3-.6 0-1 0-1.2-.3-.7-1 1.1-3 2.1-2.4.2.1.2.6.1 1-.2 1.5.3 1.1.7-.3.4-1.5 1-1.7 1.8-.8.6.7.8 1.7.4 2.3a6 6 0 0 1-2.4 1.1l-.5-.3zm20.2-5c-.5-.8 2-1.7 2.7-1 .3.4.3.5 0 .9s-2.5.5-2.7.1zm-10.3 77.2c0-3-.1-3.5-.5-3.6-.4 0-.5.2-.5 2.9 0 2.7 0 2.9-.5 2.9s-.5-.2-.5-4c0-3.3-.1-4-.4-3.7-.2.2-.3 1.6-.4 4.4v4l1.2.3 1.5.3c.1 0 .2-1.6.1-3.5zm8 3.1c.2-.2.2-.4 0-.5-.1 0-.4 0-.5.4-.3.6 0 .7.5.1zm22-1.7c0-.7-.1-1.3-.3-1.3-.3 0-.5.3-.7 1.5-.1 1-.1 1.1.4 1.1s.6-.1.6-1.3zm-48.2-.7c0-.2.5-.7 1.1-1.2.9-.6 1.4-.8 2.3-.8.8 0 1.4-.1 2-.6a7 7 0 0 1 1.3-.8c.5-.1.6-1 .2-1l-2.3.7-3.2 1c-1.7.4-2.2 1-2 2.3.1 1 .6 1.3.6.4zm86-.8c-.2-.2-1 .2-1 .5h.5c.3-.2.5-.4.4-.5zm-15.8-4.7c3.5-.4 6.2-1 6.6-1.4l.4-1.5c.1-1 0-1.3-.3-1.4-.4-.2-6.5 1.5-9 2.4-1.4.6-1.6.7-1.7 1.4 0 .5 0 .9.2.9l3.8-.4zm49.2-1v-1c-.4-1-1.3-1.5-3.9-1.5-2 0-2 0-2.2.7-.1.4-.5.7-1 .9-.6.2-1 .4-1 .6-.2.2.7.4 3 .4h5.1zm-9.4-1.1 1.2-.8c.2 0 .1-.3-.3-.6-.9-.6-.5-1 .9-1 1.3 0 1.6-.2 1.3-.7-.3-.5-3.3-.3-4.8.4l-1.4.8c0 .2 1.9 2.4 2 2.5l1-.6zm-91.7-2.8a16 16 0 0 0-2-4.8c-1.4-2.2-4.6-8-5.5-9.6-1.5-3-2-6.1-1.1-8.5.2-.6.4-1.6.3-2 0-.5 0-1.3.2-1.8.2-.7 0-1-.7-1.8-1-1-1.8-1.1-2.3-.5-.7.8-1.4 3.5-1.4 5.4 0 1.1 0 2.6-.2 3.2-.3 2 1 9.4 2.1 12.6.7 1.8 2.4 3.5 4.6 4.9a14 14 0 0 1 3.2 2.3l1.6 1.6c1.5 1.5 1.7 1.4 1.2-1zM199.8 93l4.3-.7c1.1 0 1.2-.1.9-1.6-.7-3-.8-3.1-1.5-3.1l-7.2 1.6-8.6 2c-2.2.6-3 1.2-2.5 1.8.4.5 2.2.5 3.1 0a9 9 0 0 1 2.5-.6c1.7-.1 2.3 0 4.2 1.1.3.2.8.3 1 .2l3.8-.7zm16-1.5c1-.2 1-.3 1.2-1.5v-1.4l-2.6-.3-4.5-.3c-1.9-.2-2.2-.1-3 .3-.8.6-.8.7-.7 1.6.4 2 .2 2 4.7 1.9 2.2 0 4.5-.2 5-.3zm-67-1.2h-.5c-.2 0-.1.1.2.2.3 0 .4-.1.3-.2zM39.8 80a349.5 349.5 0 0 0 11-1c2.6-.1 2.5-.1 1.6-.3H49L41 79c-7.4.4-9.2.6-8 .8 1.3.3 2.6.3 6.7 0zm-8.4-1.5h-1l.5.1c.5 0 .7 0 .5-.1zm13.4-.5 5.4-.4-1.3-.2c-2.8-.4-15.4.5-16.4 1-.5.4 5.2.2 12.3-.4zm61.3-9.6a14 14 0 0 0 4.5-4.2c.2-.5.5-1.4.5-2 0-.5.2-1.4.4-1.9.4-.7 1-2.5 2.3-7.4a7 7 0 0 0 .2-4c-.2-1-.5-2.3-.8-2.7-.5-.8-.7-.9-1.7-.9-2.3 0-6.6 3-8.3 5.6l-2.1 3.3c-1.3 2-1.4 2.4-.7 4.2.4 1.1.4 1.2 0 1.7-.3.3-.5.3-1.2 0-.4-.1-1-.6-1.1-1-.3-.9-1-1.2-2.3-1-1.8.3-3.8 2.6-4.5 5.3-.3.9-.2 1 .4 1.4.3.2.6.6.6.8 0 .7.5.4.8-.6a27 27 0 0 1 2.6-5.4l.5.3c.5.2.4.3-.8 3.6-1 2.6-1.3 5-.6 5.2 1.2.5 1.4.3 1.6-1.9.2-2.1.9-4.6 1.3-4.7.2 0 .5 0 .7.2.3.2.3.5 0 2.2a6.1 6.1 0 0 0 0 2.6c.2.7 2 2 3.1 2.3.8.2 2.9-.3 4.6-1zm-15.7-7c1.3-2.7 1.2-3.3 0-4.3l-.8-.5-1.6.6c-1 .3-2.1.5-2.7.5-1.1 0-3.7 1-4.4 1.6-.3.3-.3.3.3.3 1.4-.1 2.8 0 3.3.4.3.2.5.8.6 1.5.2 1 .3 1.2 1.4 1.7.6.4 1.5.6 2 .6.7 0 .9-.3 1.9-2.4zM53.8 175.5c-.2 0-.4-.3-.3-.4 0-.4.6-.5 4.4-1l3-.6c.7-.2 1-.2 1.3 0 .6.5.6 1.3 0 1.6-.5.3-7.5.6-8.4.4zm-10-1.6c-.4-.4.2-.6 2-.6 1.7 0 2.4.3 1.2.6a8 8 0 0 1-3.2 0zm-18.5-1c-.6-.5-.6-.7.1-.6.3 0 .7.3.7.5.1.6-.2.6-.8.1zM6.6 160.4c-.4-.3-.4-.4 0-.7a407.4 407.4 0 0 0 16-3.3c2.4-.5 2.7-.5 3.2-.1.7.4 1.3.3 3.8-.3l1.2-.3.2-2.7c.2-3 .3-3.4 1-3 .5.3.6 5 .1 6.2-.4 1-1.7 1.4-5.9 1.7a28.6 28.6 0 0 0-6.4 1c-4.4.6-7.4 1-9.3 1.4-2.9.5-3.4.5-3.9.1zm1.6-12.8c0-4.7.5-22.9.6-23.5.2-.7.2-.7.4-.1v7.5a80398.5 80398.5 0 0 0-.8 18.5c-.1 0-.2-1.1-.2-2.4zm3.3 1c0-.3.1-6.3.6-15.1.2-3 .3-7.3.3-9.4 0-3.5.2-5 .7-4.5.2.3.1 7.8-.2 13.2l-.4 10.4c-.1 4.3-.3 5.7-.5 5.7a.5.5 0 0 1-.5-.3zm3.3-.4-.2-.6.3-8.4c.1-4.6.3-8.5.4-8.6.5-.5.6 3.5.4 15.2 0 2.7-.3 3.5-.9 2.4zm14 0 .1-1a313.6 313.6 0 0 1 .8-14.4c.2-2 .3-2.1.8-2 .6 0 .6.2.3 7.2-.4 10-.5 10.7-1.2 10.7-.3 0-.6-.2-.7-.4zm-27.2-4c-.2-.5.1-5 .4-5.5.4-.7.6.3.5 3.3 0 2-.1 2.7-.4 2.7-.2 0-.4-.2-.5-.4zM53 143c-.1-.5 0-4.2.3-14.7l.2-9.4a163.6 163.6 0 0 1 1-24.4V93l1.4-.3A42 42 0 0 1 60 92c5.4-.6 6-.6 6.3-.2.5.7 0 1-1.8 1a29 29 0 0 0-8.3 1.2c-.4.3-.5.8-.5 1.7 0 .8-.2 1.4-.5 1.7-.3.4-.4.5 0 1.4.2.6.3 2 .3 3.7l-.8 13.6c-.1 1.3 0 1.5.3 1.5.2 0 .4.1.4.3 0 .1-.1.3-.4.3-.2 0-.4.8-.5 4-.2 6-.4 12.8-.4 17.2 0 3.7 0 3.9-.5 3.9-.3 0-.6-.2-.7-.5zm8.5 0c-.6-.9-1.4-19-1.1-23.6.4-6.2.7-9.4.9-9.5 0-.2.3-.2.5 0a227 227 0 0 0 0 26c.3 6.3.2 8-.3 7.1zM0 136.7c-.2-2.2 0-3 .4-2.7.3.2.3 4.9 0 4.9-.1 0-.3-1-.4-2.2zm.1-5c0-1.3.1-1.8.4-1.8.2 0 .3.4.2 1.5-.2 2.2-.6 2.4-.6.3zm30.3-2.4c-.2-.4 0-5.5.3-7.6 0-.9.5-1.5.8-1.3.2.2.1 3.1-.1 6.6-.2 2.4-.5 3.2-1 2.3zm11.3-1.2c0-.7 0-.7.4-.2.5.7.5 1 0 1-.3 0-.4-.3-.4-.8zm.3-4.3c.4-4.8.8-16 .6-19.6 0-4 0-4.8.8-3.9.6.9 0 19.6-.7 23.6-.4 2.3-.9 2.2-.7 0zm-10.7-5.5c-.3-.2-.3-1.1 0-1.1.4 0 .7.8.4 1-.2.2-.3.2-.4.1zM12 97.1c-.4-.6.4-.8 4.8-1.3l7.2-1c3.8-.5 6-.5 6.2 0 .3.8-.3 1.2-1.5 1l-4.2.3c-8.4 1.2-12.2 1.5-12.5 1zM186 86c-.4-.3-.5-.4 0-1 .5-.9 5-4 8.3-5.9l3.2-1.8c.5-.4 3-1 3.1-.8.3.2-.2.5-2.6 1.7-2.8 1.5-5.3 3-8.2 5-1.7 1.2-2.3 1.8-2.4 2.3-.1.9-.7 1-1.4.5zm13.3-10-.2-1c0-.4 0-.8.2-.8.2-.3.8.3.8.8 0 .6-.6 1.2-.8 1zm-32.2-9c-.1-8.7.2-25.4.4-27.7.2-1.4.7-2 1-1a205.5 205.5 0 0 0-.5 16.6c0 11.7 0 12.6-.5 12.7-.3 0-.4-.1-.4-.7zm-18.6-17.3c-.3-.3-.4-2.1-.4-8.4 0-8.4.2-13.7.7-14.2.5-.6.7.2.5 2.2-.2 2.5-.3 19 0 19.8.1.9-.3 1.2-.8.6zm8.8-.4c-.1-.2-.3-3.2-.4-6.8-.5-19.8-.5-19.6.3-19.6.2 0 .4.4.4 1.5v2.3L158 37c0 5.2.2 10.1.3 11 .2 1.5.1 1.8-.2 1.8a1 1 0 0 1-.7-.3z"/>
</svg>
