<?xml version="1.0" encoding="utf-8"?>
<svg xmlns="http://www.w3.org/2000/svg" xmlns:svg="http://www.w3.org/2000/svg" version="1.1" viewBox="0 0 205 173">
  <title>Ginger and Pickles look through the open door of their shop at a policeman walking past.</title>
  <path d="m153.9 171.9-.3-.8c0-.3-1-.3-4.3-.3-4.2.1-4.3.1-4.3-.4 0-.3.3-.6.7-.8 1.4-.5 8.3-.2 13.7.6l4 .6c1.2.2 1.5.3 1.4.6-.1.6-2 .7-3.6.3-.8-.2-1.3-.2-1.6 0-.3.2-1.7.4-3 .5-2.3.1-2.6 0-2.7-.3zm-39-1.4c0-.3.1-1 .5-1.6a5 5 0 0 0 .6-1.6c-.1-1.6 1-2.8 3.6-4.2 1-.5 1.5-1 1.7-1.6.4-.9 1.2-1.4 2.5-1.5.8 0 1-.2 1.1-.9.1-.7.3-.8 2-1.3 1.7-.4 2-.6 2.3-1.2.2-.6 1.9-1.6 4.2-2.4a4 4 0 0 0 1.4-.8c.4-.5 1.2-.9 4.4-2 .6-.2 1.5-.7 1.8-1 .4-.5 1-1 1.5-1.3l.7-.5-1.7-1.9-2.8-2.9-1-1-.1-3.3c-.1-1.9-.4-3.7-.5-4.2-.5-1-.5-1.7-.9-7l-.2-4.8.7-1.5c.8-1.5.8-1.6.6-4-.2-1.4-.2-3.8-.1-5.3l.3-4.5c.1-4 .4-5.8 1.1-8.1.7-2 .9-3 1-5.5.2-3.9.3-4.8.7-5.2l1.5-1.6c1-1.1 1-1.3.6-1.3-.3 0-.5.1-.4.3 0 .1 0 .3-.2.4-.2.1-9.3.4-17.2.5H122l-.4.8c-.3.5-.8 1-1.2 1.3a151.5 151.5 0 0 0-6.6 4c0 .1 0 .4.2.7.4.7-.2 1.2-2 1.5-2.5.5-2.5.5-2.7 1.1-.1.6 0 .6 1.2.4 1.6-.2 2.3 0 2.3.5 0 .6-.5.8-2.1 1a5 5 0 0 0-2.3.7c-.5.5-1 .5-2.1.5-1-.1-1.8 0-2.2.2l-1.6.5c-.9.2-1 .3-1.1 1 0 .5-.3.7-1.7 1.3l-2.1 1a5 5 0 0 1-1.2.7c-2.7 1.2-2.6 1-2 3.2.3.8.7 1.3 1.1 1.5.6.3 1 1.3.4 1.3-.2 0-.3.1-.3.3 0 .4 4.6 1.9 7 2.3l3.8.7c1.7.3 3.7.4 6.6.4 6-.1 8 0 9.2.4.6.2 2.5.5 4.4.6 3.5.1 4.2.3 3.9 1.2-.2.3-.6.4-1.8.4-2.1 0-6.6-.5-7.2-.8-.3-.2-2.8-.2-5.7-.2-10.2 0-11.3 0-16.6-2a55.4 55.4 0 0 0-8.6-2.7c-1-.1-1.7-.4-1.8-.6-.1-.3.3-.4 2.3-.2 2.6.2 3 0 1.9-1.2-.5-.5-.5-1-.6-6.8v-6.3L92 101c-.2 5.3-.4 6.7-1 6.7-.4 0-.4-2.7 0-9.4v-9.3c0-8.2.2-9.5.8-9.7.4-.1.5-1.7.5-19.3 0-12.6.2-19.9.4-21.2.2-1.4.2-5.3.2-11.7l-.1-16c0-6.2 0-6.4.5-6.4s.5.2.6 8.1c.1 19 .3 24.6.7 32.5a59 59 0 0 1-.3 18c-.3 0-.4-1.2-.4-6.4 0-3.5 0-8-.2-9.7-.1-3.1-.2-3.2-.3-1.5-.2 2.7 0 58.3.1 58.6.3.4 1.8-.2 1.8-.6 0-.5 2.2-1.7 3.6-2 .7-.1 1-.3 1-.7.1-.5 0-.6-.3-.5-.3.1-.7 0-.9-.3-.3-.3-.3-.4 0-.6.6-.4 1.7-.3 2 0 .4.3.5.3.8-.1.2-.3.8-.6 1.6-.6.7-.1 1.4-.4 1.6-.6.2-.3 1-.4 2-.5l1.7-.1-.6-.7c-.9-.8-.7-1.2.7-1.5.7-.2 1.2-.5 1.3-.8.5-1.2 1.8-1.5 1.5-.4 0 .3 0 .5.3.5.2 0 .3-.3.3-.7 0-.4.2-.9.3-1 .2-.3.2-.4-.2-.5-.8-.3-.7-1 0-1 1.2 0 3.9-.7 4.4-1.2.7-.6.7-.8-.1-.7-1 .2-.9-.5.1-1.2 1-.6 1.5-.5 1.2.3v.5c.6 0 1.2-.7 1.3-1.4 0-.4.2-.6.6-.7.3 0 .6-.3.7-.6.2-.6.3-.6 2.4-.4 4.3.3 11.3.5 11.3.2L131 86c-4.5 0-10.2-1-11.2-2.1-.6-.6-.7-2.8-.2-5.1.2-1.5 0-5.7-.5-6.5a28 28 0 0 1 0-7 112.4 112.4 0 0 0 0-6.6c-.1 2.5-.4 3.6-.8 3.5-.2 0-.3.6-.3 1.9l-.1 5.8c-.2 3.8-.2 3.9.4 4.2l.6.3-.6.5-.5.7v2.8c0 2-.1 2.6-.4 2.6-.5 0-.5 0-.4-8.9 0-9.6.4-16.2.8-16.4.1-.1.2-3 .2-6.6v-6.5h-.7c-.9-.2-1.1-.9-.5-1.6.5-.5.5-.5-.3-.8-1-.4-1.1-1-.3-1 1 0 1.5-.6 1.9-1.8.5-1.5 1-1.4 1.7.2.6 1.4.6 2 0 1.5-.4-.2-.5-.2-.5.3 0 1.4.4 2.1 1 2.2 1 .1 1 1.3.1 1.5-.6.2-.7.3-.7 2l.4 6.2c.2 2.5.3 6.2.3 8.9l-.2 4.6h4.4l5.5-.4c1.1-.1 1.8.2 1.6.8a58.1 58.1 0 0 1-9.2.7c-1.1-.2-2-.1-2.2 0-.5.5-.8 4.4-.3 5 .2.2.3.6.2 1-.2 1 0 1 1.7.4 1-.3 1.2-.4 1.4 0 .2.2.5.2 1.4 0 .6-.2 2.7-.3 4.7-.3h3.9c.1 0 .3-.8.4-1.8.1-1 .4-2.2.7-2.7.5-.8 1-3.6 1.2-9 0-1.4.3-2.9.4-3.3.4-.9.2-1.5-.5-1.5-1 0-1-.3.2-5 .4-1.7.4-2 0-3.3-.6-1.6-.5-3.3.2-5.3a25.1 25.1 0 0 1 3.2-6c.3-.6.3-.9 0-1.2-.1-.2-.2-.7 0-1.1l.1-.8-1.9-.2-2.2.1c-.4.4-1.1.4-1.3 0 0-.3-.4-.5-.8-.5s-1-.1-1.4-.3l-2-.4c-8.6-.5-11.5-.7-12-1l-5.2-.4a56 56 0 0 1-5.2-.4c-.7-.2-.6-.8.1-.7 1.4.2 11.1 0 13.1-.2 2.3-.2 4.3 0 3.3.3l-2.3.4c-1 0-1.9.2-2 .4l4.2.3c5.3.3 11 1 14 1.6.6.2.7 0 1.1-.8l.6-1.7c.2-1 1.2-2.6 1.8-3 .5-.2 1 0 1 .4l.8 1c.4.3.8.8.8 1 0 .3.2.8.5 1.2.6.8.7 1.4.2 1.6-.2.1-.2.2 0 .5.4.4 1.6.5 5.6.7l5.6.4c.3 0 .4-.8.5-6.1 0-5.8 0-6.2-.5-6.9-.5-.6-.5-1.1-.5-4.5 0-4.8.2-6.6.7-6.8.7-.3 1 .4 1 3.8.2 10.9.4 16.4.5 17.1.3 2 .3 4.8 0 5.3-.4.6-.4.6.1 13a84.6 84.6 0 0 1-.1 16l.8.2c1 0 1.5 1.3 1.5 4.6 0 3 .2 4.2.6 3.2l.2-1.8c0-2.4.4-5.3.9-5.5.3-.2.4-3 .4-22 0-12 0-21.8.2-21.8 0 0 .3 0 .5.2.3.2.3 47 0 47.3-.1.1-.4 0-.6-.3-.3-.4-.4-.2-.5 1.7l-.3 7c-.2 6.8-.4 11-.6 11.3-.3.6-.6-.3-.6-2v-2.1l-.6.5a7 7 0 0 1-1.4 1l-.8.3h1c1 .2 1.3.8.6 1.3-.4.3-.4.4 0 1l.4 1.3c0 .3.4 1.3.9 2.2a24.8 24.8 0 0 1 2 4.6l.2-3.7a168.3 168.3 0 0 0 .8-17c0-4.2 0-5.8.3-5.9.2 0 .4.5.5 1.4.3 2.2.2 12.4-.2 15.3a143 143 0 0 0-.4 8.9c0 3.6-.2 7.4-.3 8.5-.2 1.4-.1 2.2.1 2.9.6 1.5 1.9 3.8 2.1 3.9.4.1.1-5.6-.3-5.9-.4-.3-.7-12.6-.2-12.6.1 0 .3.7.3 1.6.3 2.7.5 2 .7-1.8.3-4.7.3-4.8-.2-9.2l-.6-6.2a396.6 396.6 0 0 1 .6-39c.1-6 .2-7.5.5-7.7.5-.3.6-2 .6-10 0-3.1 0-5.6-.2-6-.3-.8 0-1.3.7-1.3.5 0 .7 1.1.7 3.6 0 10.6-.5 30.6-.7 30.7-.2.1-.3 0-.4-.1-.2-.6-.6-.3-.6.4l-.1 13.4c-.2 12.4 0 21 .4 21 .1 0 .3-.6.4-1.4.1-1.2.3-1.6.6-1.7.7-.1.8-1 1-9.2a565.7 565.7 0 0 0 .4-53.3c-.5-.5.1-3.4.6-3.4.7 0 1 .8 1 2.7a536 536 0 0 0 .3 20.6c.8-.9.9 0 .3 5.4-.2 2-.4 5.4-.4 7.6a528.5 528.5 0 0 0-1.7 37.8c-.1 2.4-.3 4.4-.4 4.6-.4.4-.5-.2-.7-4.2a34.2 34.2 0 0 0-.4-3.6c0 .2 0 1.5-.2 2.8-.3 2.5-.7 13.8-.7 19.5 0 5.6 1.3 15.5 2 15.1.3-.2 1-8.3 1.6-20.7a166.4 166.4 0 0 1 1.2-14l1.2-38c0-2.4.6-6.3 1-6.5a460.2 460.2 0 0 1-.4-22c0-5.5 0-5.8.4-5.8.3 0 .6.2.7.6l.4 15.1.4 16.3c.2 4.5.2 11.6 0 11.8-.4.5-.5-.4-.7-5.5-.2-5-.3-5.8-.7-5.4l-.4 13a402.5 402.5 0 0 1-2 43 125.7 125.7 0 0 1-1.4 20c.3.3.3 2 .2 6-.1 4.7-.2 5.6-.7 6.7-.6 1.3-.7 1.8-.3 2.5.2.4.5.5 1.8.4.8 0 1.5-.2 1.5-.3 0-1.6-.4-4.7-.7-5-.4-.6-.3-7.5.4-15.2l1-11.1a322 322 0 0 0 3-43.7 308.9 308.9 0 0 1 .9-18c.1-1.5-.6-23.8-.9-25.8-.1-.8 0-1.1.3-1.2h.5c.2.4.6 5.7.8 11.2l.4 9.6c.5 10.2.1 25.6-.7 26.6-.2.4-.6 7.5-.7 17.2 0 2.2-.3 6.2-.6 9-.2 1.9.2 1.4 1.2-1.9.9-2.8 1-3.5 1.2-19.6.2-8.3.6-14 1.5-18.3.6-3 .6-3.8.2-15.1a2159.3 2159.3 0 0 1-.6-18.6c-.2-.7.3-1 .8-.6.4.4.5 2.1.8 13.4l.2 9.9c.2 6.3.2 20.8 0 21.2-.4.6-.6-.3-.6-2.6 0-1.3-.2-2.5-.3-2.6-.3-.2-.3.3-.4 3.6l-.2 4.9a291 291 0 0 0-.4 16.2s.6-1.2 1-2.6c1-2.2 1-2.6.6-3-.5-.5-.4-1 .2-1.1.6-.2.8-1.5.8-5.8 0-1.8.1-4.8.3-6.8.6-8.5.6-8.2 1-8.5.5-.2.5-.8.5-6.1a237 237 0 0 0-.6-19.4l-.3-5.8c-.2-1.5 0-2 .5-1.8a209.3 209.3 0 0 1 1.3 28.8l-.2 11.1c-.3 3-.5 4.4-.8 4.4-.4 0-.7 2.5-.7 6.7 0 3.2 0 3.2 1.3 2.9.5-.1.6-.4.7-3.8.4-8.5.7-14.2.9-14.6 0-.3.2-.4.4-.3.2 0 .2 2.2 0 6.4-.2 8.8-.2 11 0 11.3l1.6.2h1.4l.1-2.3a822 822 0 0 1 .7-9l-.3-9.2a266.2 266.2 0 0 0-.5-15.4c-.3-7 0-12.6.5-12.6.2 0 .4.2.5.4l.2 7v7.5c.3 2.6.6 16.8.6 23 0 6.1 0 7-.5 8-.2.5-.4 1.3-.4 1.8.1.7.2.8 1 .8.7 0 .7 0 .9-1.8a346.1 346.1 0 0 0 1-11.3v-11c-.4-10.8-.2-17.2.4-18 .6-.7 1 0 .8 1.7-.3 3.2 0 30.5.3 30.1 0 0 .2-1 .2-2.1.4-5.7 1-1.6.6 4.8l-.1 6c0 1.3 0 1.4.8 1.5h.7v-9.3l.2-14.2c.2-4.3.3-5 .6-5 .6-.1.7.6.5 5l-.2 15.4c0 11.3 0 11.6.5 11.7.7.2.7.7 0 1.2-.5.5-.5.8-.5 5.3 0 2.6-.1 4.7-.3 4.7-.4 0-.5-1.4-.5-5.7 0-2.2-.2-4-.3-4.2-.1 0-.5-.1-.8 0-.6 0-.7 0-.7 2.6 0 2.2 0 2.6.5 2.8.6.4.6 1 0 1.1-.5.2-.5.5-.5 5v4.6l1.2.2c2 .2 1.5 1-.5 1-.6 0-.8.2-.8.6-.2.8-.7.9-.9.1-.2-.9-.6-.9-.7 0l-.1.9 2.6.3c1.5.1 2.8.4 3 .5.4.5-1.2.8-3 .6-2.2-.2-2.6.1-2.4 1.8v1.5c-.5.7-.9 0-.9-1.5V97h-1.3c-1 0-1.6.1-2 .6l-.6.5-.3-.5c-.2-.5-.5-.6-1.7-.6h-1.5v1.3a7 7 0 0 1-.4 2.3 53 53 0 0 0-1 2.8l-.7 1.8.9.5c1.3.8 1.7.7 2-.5.4-1.3.9-1.1.6.3-.1 1 0 1 .6 1.3.4.2 1 .2 1.4.2.6 0 .8-.3 1-1.2 0-.6.3-1.1.5-1 .3 0 .4 3.3.1 3.5l-.2.6c0 .4.2.5.9.5 1.1 0 1.3-.2 1.7-3 .2-1.3.5-2.5.7-2.7.3-.5.4-.5.5 0 .1.3 0 1.4-.2 2.6l-.4 2.5c0 .2.5.4 1.3.4 1.7.1 2 .7 1 1.5-.7.3-.9.4-1.4 0l-.8-.1c-.1 0 .1.3.5.4 1.2.5.8 1.5-.7 2-.4.1-.4 0-.9 9.2v3.6c.2.5.8.7 3.3 1 .9 0 1.6.5 1.3.8-.1.1-.8.2-1.5.1l-2.1-.1h-1l.1 1.6-.1 1.8c-.2 0-1 0-1.8-.3-.9-.2-1.7-.3-1.8-.2l-.2 1.2c0 .9 0 1-.5 1-.3 0-.4-.4-.5-1.4 0-1-.2-1.2-1-1.5-1.6-.5-2-.4-2.2.3-.1.3-.2 1.5-.1 2.5 0 2-.3 3-1 2.6-.2-.1-.3-1-.2-3.2v-3c-.2-.2-1-.4-1.9-.6-1.5-.4-1.6-.4-1.8 0l-.2 4.3c0 3.4 0 3.7-.4 3.7-.6 0-1-2-.7-5.7 0-2.1 0-2.8-.2-3-.5-.4-.5-1.2 0-1.4.2-.1.4-.5.4-.9l.8-5.6c0-.8.6-3.5 1-6 .9-4 .9-4.4.5-4.8-.4-.4-.5-.4-.7.3A78.5 78.5 0 0 0 176 126c-.3.3-.7-.4-.7-1.5a85.1 85.1 0 0 1 6-23.8c-.5-.5-2.7 3.2-4.3 7a68.2 68.2 0 0 0-3.5 10.6c-.6.6-1 2.7-.4 2.7s.6.3.4 2.4a69 69 0 0 0 0 12.2c.3 2.7.7 4.2 1.7 6.7 3 7.6 3.7 9.7 4.6 12.8.7 2.3 1.3 3.6 1.6 3.7.2.2 1.4.5 2.7.7 2.6.5 3.1.8 3.1 1.4 0 .4-.2.4-2 .2-1 0-2.2-.3-2.5-.4-.3-.2-.7-.2-.8-.2-.2 0 .1.3.7.6 2.7 1.1 6 2.8 6 3.1 0 .5-.6 1-1.2 1-.2 0-1.3-.4-2.4-1l-3.6-1.6c-2.2-.8-2.4-1-2.2-2 .2-1-.2-2.5-1-3.2-.4-.5-.5-.7-.3-1 .4-.3 0-2-.7-2.7-.3-.3-.6-.9-.7-1.3a65 65 0 0 1-4-12.6c-.2-2.2-.4-2.4-2-2.2-1 .1-1.4 0-1.5-.2-.2-.3-.3-.3-.5 0-.2.2-.2.6-.2.8l.2.7c0 .2.1.4.3.4.9 0 2.3.9 2.3 1.4 0 .4-.1.5-1.5.3-1.5-.2-2.2 0-2.2.8 0 .3.4.4 1.7.4 1.4 0 1.8 0 1.9.4 0 .3.3.8.5 1.3.4 1 .2 1.6-.6 2l-.7.2.7.3c.6.2.7.3.4 1-.1.5-.5 1-.7 1-.5.1-.5.2-.2.7.4.7-.4 1.4-2 1.7-.6 0-1.4.3-1.6.5-.6.8-2 1.2-4 1.2-1.8 0-2.1.2-1.2.7.4.3.5.5.2.8-.2.3 0 .4 1 .5 1.5.2 1.9.4 2 .9 0 .3-1.2.4-7 .4-6.4.1-7.1.2-8.4.7l-4 1.2c-2.9.6-6.7 2.3-7.5 3.3-.9 1-2.5 2-5 3l-2.5 1c-.1 0-.7.2-1.2.6l-1.5.8c-.4.1-1 .4-1.3.7-.3.3-.8.5-1 .5l-2.7 1a55.6 55.6 0 0 1-4.4 2c-1.4.6-3.3.6-3.5 0zm6.3-3a50.4 50.4 0 0 1 10.2-5.2c.4 0 1.6-.7 2.5-1.3a68.3 68.3 0 0 1 8.8-4.6l2.2-.7c4.4-1 5.6-1.3 7.2-2.2 1-.6 1.6-1.2 1.7-1.5 0-.3.4-.6 1.1-.8 1-.2 6.5-3 7.2-3.6.2-.2.4-.5.4-.8l.6-1.2c.5-.6.9-1.6 1.2-3.2.7-3.2.8-3.3 1.5-3.1.6.1.6 0 .8-2.4a21.7 21.7 0 0 0-.4-6c0-.3-2.4-.2-3.3.2-.6.2-1.2.8-1.9 2-.5.8-1.6 2.1-2.4 2.9-.8.7-1.3 1.3-1.1 1.3.4 0 2.6-1 4.5-2.2.9-.5 1.3-.6 1.4-.4.2.3-.3.9-1.7 1.6-.6.3-.7.6-.6 1v1.2c-.3 1.1-2.6 3.6-4 4.4-1.4.8-1.9 1.3-1.2 1.3.5 0 4.3-2 6.2-3.2 1.5-1 2.2-1.1 2.2-.5a23 23 0 0 1-5.6 3.6l-2 1.2c0 .3 2.6-.7 3.1-1.2.3-.2.6-.4.9-.4.4 0 .8 1 .5 1.7-.2.6-5 2.9-5.5 2.7-.6-.3-.3-.8.7-1.2 1-.3 1.5-.2-4.2-.8-1.4-.1-1.8-.3-1.9-.6 0-.4.3-.6 1-.8 2-.6 10-7.4 8.7-7.4l-2 .8a21.7 21.7 0 0 1-6 2c-.5-.2-.5-1 0-1 .2 0 .7-.3 1.3-.8 2-2 2.8-2.6 3-2.6.3 0 3.3-2.8 3.3-3.1 0-.2-.5 0-1 .4-.5.3-1.1.6-1.4.6-.2 0-1.3.9-2.4 2-2.4 2.3-3.1 2.7-3.3 2.2-.1-.3.3-.9 1-1.6 1.8-1.6 2-1.8 2-2l-.7.6c-1 .8-1.7.8-1.5-.1.2-.5 0-.5-1.8-.5-2.6 0-4-.4-5.5-1.7-.6-.7-1.7-1.5-2.2-2-.6-.3-1.5-1.1-2-1.7a4 4 0 0 0-1.5-1c-.4-.1-.5 0-.6 1 0 .6 0 2.8.2 4.8l.4 5.5c0 1.5.1 2 .5 2.2.2.1.9 1 1.5 2 2.8 4.2 3.2 4.6 4.7 4.6 1.2 0 3 .6 3 1 0 .5-.5.8-1.2 1-.5.1-1.3.5-1.8.8-.5.4-1.3.6-1.8.6-.4 0-1 .3-1.4.6-.3.3-.7.5-1 .5-.2 0-.9.2-1.4.5-.6.3-1.3.6-1.6.6-.6 0-1.4.4-1.5 1 0 .2-.8.5-1.6.7-1 .3-1.6.6-2 1.1-.7.8-4.7 3.2-5.3 3.2l-.7.6-1.4 1c-1 .4-1.6.8-3.3 2.2-.5.3-1.5.8-2.4 1l-2 1c-.4.6-.4.7 0 1 .6.4.6.6-.1 1.4l-.6.6 1-.1 2.3-.6zm23.8-22.2c0-.2.1-.3.3-.3.1 0 .2.1.2.3 0 .1 0 .2-.2.2a.3.3 0 0 1-.3-.2zm1-1.1.3-.3c.2 0 .3.2.3.3 0 .1-.1.3-.3.3a.3.3 0 0 1-.2-.3zm12.6 9.9a1 1 0 0 0-.7 0l.3.1c.4 0 .5 0 .4-.1zm7.6-12.8c0-.2-.1-.2-.3-.1l-.2.8c0 .7 0 .7.2.2l.3-.9zm-11.7-9.4c.8-1 1.4-2.8 1.3-4.1v-1l-1.3.2c-1.6 0-1.7-.4-.3-1 .8-.3.9-.4.6-.7-.3-.4-.4-.4-.8 0-2 1.4-3.8 2.5-4.1 2.5-.2 0-.4-.2-.4-.5 0-.2.9-1 2-1.8 2.6-1.6 4.5-3.1 7-5.7 2.5-2.4 3-3.4 2.6-4.7-.3-1 0-1.6.7-1.1.7.6.7 1.8 0 3.3a16 16 0 0 1-4.6 5.2l-1.9 1.8c0 .1.3.4.7.6.6.5.7.5 3.3-.6 3.2-1.2 4.5-1.5 4.5-1 0 .2-1 .8-2.2 1.1-.2.1-.4.6-.5 1.2-.1.6-.5 1.6-.8 2.3-.3.7-.5 1.4-.4 1.5 0 .2.8-.2 1.8-.8 1.2-.8 1.8-1 2.3-1 .4.2.9 0 1.6-.6l1-.8v-2.6c-.2-3-.6-3.7-1.8-3.7-.7 0-2.3-.7-2.3-1 0 0 0-.4.2-.7.2-.3.5-.4 1-.3 2 .5 1.8-2.8-.3-7.4l-1-2.5c-.7-1.9-1.4-3.1-3.5-6.2-1.4-2-2-3.6-1.7-4 .3-.4.9.2 1.8 1.8l1.2 1.7c.4.4.4.2.3-2.4 0-1.5-.2-3.3-.4-4-.3-1.2-2.3-5.3-3.7-7.6-.8-1.4-1.8-1.7-3-.8-.7.6-2 .9-4.9 1-3 0-4.3.7-5 2.3-.5 1.4-1.1 1.7-1.6 1-.3-.4-.4-.4-.6 0-.3.5-.3 1.1 0 2 .4.6.2 1.9-1.2 9.5-.2 1.1-.5 3.7-.6 5.8-.3 5-.1 5.4 1 2.8 1-2 1.6-5.4 1.7-9.1 0-3.4.2-3.9 1.2-3 .3.3.5.7.4 1l-.2 3.5a36 36 0 0 1-1 7.3c-.3 1.2-.3 2.4 0 2.4s.4.6 0 1.2c0 .3-.5 1.3-1 2.2-1.3 2.8-1 5 .8 5.6.3.1.3.3 0 .6-.3.4-.3.4 0 .6.5.2.6.8.2 1-.3.2-2.3-.4-2.7-.8-.4-.6-1.2-.4-1.5.3-.4 1-.2 1 2.1 2.4 3.8 2.2 5.8 3.7 5.8 4.3 0 .7.7 1.1 1.9 1.1.4 0 1 .2 1.4.4.5.3 2.3.7 3.8.9.1 0 .6-.4 1-.9zm-2.9-13.2c0-.2.3-.6.7-.8 1-.5 3.6-3 5-4.7a9 9 0 0 0 2.3-4.7c.2-1 .5-1.6.7-1.6.6 0 .6 1.3 0 3.1-.4 1.6-.8 2.2-2.5 4.2-3.3 3.6-6.2 5.8-6.2 4.5zm-2.4-5.1c-.4-.4-.2-1 .5-1.7a32 32 0 0 0 6.7-10c.4-1.4 1-1.3.9.1a11 11 0 0 1-2.3 5.1l-2.3 3.1a13 13 0 0 1-3.2 3.6l-.3-.2zm2-8.7c-.1-.2 0-.6.1-.7.6-.6.3-1-.6-1-.5 0-1-.2-1.2-.4-.3-.4-.2-.7.5-2 1-1.8 1-2 .2-2-.6.2-.7.1-.7-.4 0-.3.2-.6.4-.7.2 0 .4-.4.4-.8s.2-.9.4-1.2c.4-.4.4-.4 0-.4-.3 0-1 0-1.4.2-1.4.5-2.6-.5-1.3-1s4.7-1.2 5.3-1c.7.2 1 .8.4 1-.1.2-.1.4 0 .8.2.3.2.5 0 .6-.1.1-.2.5-.1.8.1.5 0 .7-.5 1-.4.2-.9.8-1.3 1.9-1 2-.9 2.3.2 2.3.7 0 1-.2 1.5-.9a9 9 0 0 0 1.8-3.6c.1-.6.3-1 .6-1 .5 0 .6 1.1.1 2.3-.5 1.2-3.3 5.5-4.1 6.2-.5.4-.5.4-.7 0zm6.6 25.5c1-1 2-3.5 2-4.5 0-.5-.1-.5-.7-.4-2 .5-2.1.6-2.3 2.6 0 1-.2 2.3-.3 2.7-.3 1 .2.9 1.3-.4zm33.5-2c0-1.2-.2-1.4-1.8-1.4-1.2 0-1.5.4-1.1 1.4.1.4.6.7 1.2 1 1.7.4 1.7.3 1.7-1zm-4.2-1.4c-.2-.3-.5-.5-.8-.5l-1.3-.2c-.6-.1-.8 0-.8.2 0 .3.5.6 1.4.8 1.5.5 1.9.4 1.5-.3zm-18.2-.7c0-.6 0-1.2-.2-1.3l-.1 1.2c0 1.6.2 1.7.3 0zm11 0-.2-.2h-.3c0 .2.1.4.3.4l.2-.1zm2.7 0c0-.2-.2-.4-.5-.4-.4 0-.4 0 0 .3s.5.3.5 0zm8.5-.6c.3-.4-.2-.8-1.3-1-1-.1-1.2 0-1.3.3-.1.3 0 .6.2.7.5.3 2.3.3 2.4 0zm-4.1-.7c-.1-.3-2.3-.7-2.6-.5-.4.2-.2.6.2.7 1.1.2 2.5.1 2.4-.2zm-4-.4a8 8 0 0 0-3.4-1.4c-.5.3 0 1 .9 1.3 1.1.4 2.7.5 2.6.1zm8.3-5 .1-5.4c0-1.6 0-1.6-.8-1.8l-1.1.1c-.2.3-1.1 8.4-1.1 10 0 .5 1 1 2 1 .7 0 .7-.1.9-4zm-2.6 2.8c0-.3.3-.6.4-.6.3-.1.4 0 .3.3 0 .3-.2.5-.4.6-.3 0-.4 0-.3-.3zm-1.5.4.3-2.3c0-1.2.3-3.5.5-5.2l.4-3.2-.7-.7c-1-1-1.9-1-2-.2a70 70 0 0 0-1.3 9.7c0 1.5 0 1.5.9 1.8 1.1.4 1.7.4 1.9.1zm-3.8-3.3 1.2-8.2c.2-.7 0-.8-1.8-1.1h-1l-.4 2.2c-.7 3-1.5 7.5-1.5 8 0 .6 2 1.6 2.8 1.5.5 0 .6-.3.7-2.4zm-9.3-8.4c.4-1.1.5-1.7.3-2-.2-.2-.2-1.3 0-3.8v-3.8c-.3-.3-.5 1.1-.7 5a111.6 111.6 0 0 1-.3 6.2l.7-1.6zm14.8-2c0-.9-2.5-1.2-2.8-.5-.2.6.4 1 1.7 1 1 0 1.1-.2 1.1-.6zm-3.7-.5c0-.5-.2-.6-1.2-1-1-.2-1.2-.2-1.4.1-.7 1-.1 1.6 1.7 1.5.6 0 .8-.2.9-.6zm-3.8-.5c.2-.7.1-1.7-.1-1.7-.6 0-.3-.8.4-1.2.3-.2.6-.6.6-.8 0-.2.4-1.3 1-2.5 1-2.2 1.2-4.8.5-4.8-.2 0-.3.3-.2.8 0 .5-.2 1.4-.8 2.7-1.2 2.4-2.7 7-2.5 7.5.2.5.9.5 1 0zm-3.6-6.7 1.5-3.3a9 9 0 0 0 1.3-4c.2-3.2.5-12.7.3-12.6a31.5 31.5 0 0 0-2.9 12.2 26 26 0 0 0-.8 6.2c0 2.8 0 3.2.6 1.5zm4.5-2.2.6-1.2-.7.8-.7 1c0 .7.2.5.8-.6zm-1.8-.2c0-.2 0-.3-.2-.3l-.2.3c-.1.1 0 .2 0 .2l.4-.2zm-88.2-3.5c-.1-.2-.2-.2-.2.1 0 .3 0 .5.1.4v-.5zm95.7.1c.2 0 .4-.4.4-.8 0-.6 0-.6-1.6-.6-1.5 0-1.6 0-1.6.6s.2.7 1.1.8a9 9 0 0 1 1.2.1h.5zm-3.8-.2c.4-.4-.1-1.2-.7-1.2s-1 .6-.8 1c.2.3 1.3.4 1.5.2zm8.1-.6c0-.7-.1-.7-1.3-.7-1.4 0-2 .3-1.7 1 .1.3.5.4 1.6.4 1.5 0 1.5 0 1.4-.7zm-8.1-2.1a59.5 59.5 0 0 0-.2-11.4c-.5-.8-.5-1 .2-1.2.4-.1.5-.4.5-2.2 0-2 0-2-.7-2-1.2 0-1.4 1-1.6 5.1a242.7 242.7 0 0 1-.5 11.9c.2.3 2 .1 2.3-.2zm4.1-1.4.1-1.5-1.2-.2h-1.5c-.3.2-.5 2.5-.3 2.8.2.2.9.3 1.6.3h1.3zm3.1 1.3.8-.1v-5c-.1-3.2-.3-4.9-.5-5l-1.3-.2h-1v1.6c0 1.3.1 1.6.5 1.7 1.4.5 1.6 1 .4 1.1l-.8.1v2.9l.1 3c.2.2.7.2 1.8 0zm2.8-5c-.1-4.2-.2-5-.5-5s-.4.7-.4 3.8c0 4.8 0 6.2.6 6.2.3 0 .3-.8.3-5zm-5.8-.1c0-1-.1-1.1-1.7-1.4l-1.2-.1v1c0 .6 0 1.1.2 1.2 0 .1.7.2 1.4.1 1 0 1.2-.1 1.3-.8zm-49.8-1.1c-.2-.2-2-.3-2.2 0l1 .1c.8 0 1.3 0 1.2-.1zm8.5-2c.8-.1 2.2-1 2.5-1.5.1-.2.4-.3.6-.3.3 0 1.4-.6 2.5-1.2 2.2-1.3 2.5-1.4 2.7-.9.2.5 0 .8-1 1.3-.5.3-1 .7-1 1-.2.3-.6.5-1.3.6-.7.2-1 .3-1 .5.2.6 1 .6 1.4 0 .3-.2.6-.3 1-.2 1 .2 3.4-1 3.9-1.8a8 8 0 0 0 .4-2.3l.3-2.4c.2-.6.1-.8-.3-.7-.5.1-.6-.5-.2-2.7.2-.7.2-1.4 0-1.7v-3.8c.1-1.8.2-3.3 0-3.4 0 0-1 .7-1.9 1.6-1.9 1.9-2.4 2.2-4.5 2.1h-5l-1.3-1.4c-1.3-1.3-2.5-2.1-3.1-2.1-.2 0-.3 1-.2 4.6.2 4 .1 4.7-.2 5.2-.5.6-.8 4-.5 5.1 0 .4.5.9 1 1.2.8.5 1.6 1.4 3.4 3.8.6.8.6.8.9.2.1-.3.5-.6.9-.7zm1.5-2.6c-.3-.3-.1-.6 1.1-1.2 1.1-.6 1.2-.7.5-.7s-1.2-.4-.8-.8l2.7-.4c2.1 0 2.4 0 2.4.3s-.3.6-.6.7l-2.2 1.3c-1.5 1-2.7 1.3-3 .8zM150 78c-.2-.3-.4-.5-.8-.4-1 .3-1.9-.7-.8-1 1.4-.4 2.5-.5 2.7-.1.2.2.7 0 2.1-.7 2.1-1 3-1.2 3-.4a36 36 0 0 1-5.6 3.2c-.2 0-.4-.3-.6-.6zm-.6-3.6c-.4-.3-.1-.6 1.3-1 1.7-.5 1.7-.5 1.7 0 0 .7-2.5 1.5-3 1zm.5-1.9c-.2-.4 0-.8.6-.8.7 0 .9.3.6.7-.4.4-1 .5-1.2.1zm-8.7 11.8c-1-1-1.3-1.3-1.6-2.4-.4-2.1-.3-5.1.3-6.8.4-1.2.5-1.7.3-3.4-.6-5.7-.1-8.7 1.3-9 .6 0 .6-.1.5-1.6 0-1.1-.2-1.7-.6-2.1l-.5-.6-.6 1.4c-.7 1.7-1.1 3.6-1.1 5.7l-.4 3.2c-.3 1.4-.3 1.7 0 2.4.6 1.1.5 1.3-1 2.3-1.3.9-1.6 1-2.6.8-.8 0-2.2 0-4.2.5L121 77c-.5 0-.6.3-.7 1.7-.1 1-.2 2.3-.1 3 0 1.3 0 1.4 1.5 2 1.3.7 2 .8 5.3 1 4.1.4 11 .8 13.8.8h1.7l-1.3-1zM126.6 77c-.1-.2 0-.4.1-.5.3-.2 6.3-.6 8.8-.7.2 0 .4.2.5.5 0 .6-.4.6-5.2.8-3 .2-4 .1-4.2-.1zm61.7 6.7.1-1.7h-1.3c-1.2 0-1.4 0-1.5.6 0 .4-.1 1 0 1.6 0 .8.1.9 1 1 1.6.3 1.7.3 1.7-1.5zm5.7-5.1c-.1-2.2-.4-2.7-.8-1.9-.4.8-.1 4.6.3 4.8.5.3.7-.7.5-3zm-2 .2c0-2.6-.2-2.9-1.6-2.9h-.7v2.5c0 2.4 0 2.5.6 2.6 1.6.4 1.7.3 1.6-2.2zm-3.5 1.3.2-2.4V76l-.9-.1h-1.5c-.5.3-.5.4-.5 2.5l.1 2.4 1.3.2c1 0 1.1-.1 1.3-.9zm-64-5c.6-.1.2-.2-1.7-.2-2 0-2.4.1-2.4.4 0 .4.3.4 1.7.3l2.4-.4zm72.3-.4v-1c-.2-.5-.4-.7-1-.7-.7 0-.8.1-.8 1 0 .4 0 .9.2 1 .3.3 1.4.1 1.6-.3zM194 74c0-.7-.1-.9-.5-.8-.8.1-.8 1.8 0 1.8.3 0 .5-.3.5-1zm-5.1 0c.1-.9-.5-1-2-.5-1.8.7-1.5 1.3.6 1.2 1.1-.1 1.3-.2 1.4-.7zm2.9 0c0-.6-.2-.7-.9-.7s-.8 0-.9.7c0 .7 0 .7 1 .7.8 0 .9 0 .8-.7zm-69.3 0c.2-.2 0-.3-.7-.5-1.2-.2-1.7 0-1.7.6 0 .3.2.4 1 .2.6 0 1.2-.3 1.4-.4zm71.5-3 .1-2.1c.1-1 0-1.3-.4-1.8l-.5-.6-.1.6c-.3.8-.2 4.3 0 4.5.4.5.9.1.9-.7zm-56.8-.4c.2-.7 0-.8-.4-.1-.1.3-.2.5 0 .5l.4-.4zm-1-2c.2 0 .4-.3.7-1.3.6-2 1-3.5.7-3.3-.4.4-2.4 4.5-2.4 4.9 0 .3 0 .3.3 0 .1-.3.4-.5.6-.4zm18.4-3 1.6-1.6V48.3c0-8.6-.2-15.7-.3-15.8-.1-.1-1.9-.3-4-.4-2 0-4.4-.2-5.3-.4-1.5-.2-1.8-.2-2 .2-.1.3-.5.8-.9 1.1-.7.8-.7.7.1 1.8.6.7.7 1.2 1 4.2.2 3.9.7 6.1 1.4 7 .8 1.3.3 4.3-.8 4.9-.6.2-.7.4-.7 2.1 0 1.2.2 2 .4 2.2a631.1 631.1 0 0 0 .9 4.4c0 .7.3 1.4.5 1.4.3.1 2.2-.1 4.3-.6.7-.1.8 0 .8.3 0 .6-.8.8-3.2 1l-2 .3v1c0 .6-.2 1.6-.4 2.1-.2.8-.2 1.1 0 1.3l3 .2c1.5 0 2.8.2 2.9.2.4.4 1.3 0 2.7-1.4zm-5.5-1.7c-.3-.3-.1-.6.3-.6.2 0 .4.1.4.3 0 .3-.4.6-.7.3zm-4.1-1.7-.2-1.6c-.2-.1-.3.8-.3 2.1 0 2.5.4 2.1.5-.5zm-8 .1c.3-.8.6-1.2 1-1.3.6-.1 1.2-.9 1-1.2-.2-.2-.5 0-.9.4-.2.3-.5.5-.5.3s0-.3-.2-.3-.5 1-1 3.1c-.3 1.1.2.4.7-1zm6.7 1.2c0-.3-.1-.4-.3-.3-.1.1-.2.3-.1.4.2.4.4.3.4-.1zm-.1-2.3c0-.2-.1-.2-.2.1 0 .3 0 .5.2.4V61zm-5.6-3.4v-1c-.2.2-.4 1-.5 1.8-.2 1.7.2 1 .5-.8zm4.4-.2c0-.2-.2-.4-.3-.4-.2 0-.3.2-.3.4 0 .3.1.4.3.4.1 0 .3-.1.3-.4zm1-1.9c-.1-.4-.2 0-.2.8s0 1 .1.7v-1.5zm-24.1.4c-.1-.2-.2-.1-.2.2 0 .3 0 .4.1.3V56zm19-1.7c-.3-.3-.4 0-.2.7l.1.7.1-.6v-.8zm3.4.5c-.4-.4-.4-.4-.4 0 0 .3.2.5.3.6.6.2.6 0 .1-.6zm-3.5-4.9.6-3c-.2-.2-1.5 2.7-1.3 3.1 0 .3-.1 1-.4 1.5-.5.7-.6 1-.3 1.3.2.2.4.3.5.2l.9-3zm3.3 2.6 1.1-2.7c.8-1.9 1-3.2.6-3.2-.2 0-2.4 5.7-2.4 6.3 0 .5.4.3.7-.4zm-1.1-1.4c1-2.4 1.7-4.3 1.7-4.7 0-.2-.2-.4-.4-.4-.5 0-2.7 6.1-2.4 6.7.3.3.2.3 1-1.6zm-.4-9.3c1.5-3.3 1.5-3.6.8-3.2-.6.3-2.2 3.5-2.4 5L138 45c-.2.5-.2.5.2.1l1.8-3.4zm1 2.1c.2-1.6-.2-1.8-1-.4-.6 1.5-.5 1.8.3 1.5.4-.1.6-.5.7-1zm1.4 1c0-.2-.1-.5-.3-.6-.2-.1-.6.5-.3.8.2.3.6.2.6-.2zm1.5-1.6c0-.2-.1 0-.4.1-.2.3-.3.6-.2.8.2.3.3.2.4-.2l.2-.7zm30 .8-.3-.7c-.2-.3-.3-.2-.3.3 0 .4.1.7.3.7.1 0 .2-.1.2-.3zm-37-1v.5c.2-.1.2-.3 0-.5zm6.7-1.2c.5-1-.2-1.7-.7-.6-.3.5-.1 1.3.2 1.3.1 0 .4-.3.5-.7zm-.2-3.3c.1-.8 0-1.8-.2-1.8-.3 0-1 2.1-.9 2.7.1.5.1.5.6 0 .3-.3.5-.7.5-.9zm-1-2.8c0-.2-.2-.3-.3-.3-.4 0-.8 1.1-.8 2 0 .7 0 .7.5-.3l.6-1.4zm-.7-1.7-.1-.2c-.2 0-.3 0-.3.2l.1.3.3-.3zm.7-1.7-.4-.4c-.4-.3-.4-.2-.4.1 0 .3.1.4.4.4h.4zm1.3-2c0-.3 0-.3-.3 0a2 2 0 0 0-.2 1v.5l.2-.5.3-1zm-1.3-3.4c0-.2-.2-.2-.3-.1-.2 0-.3.2-.3.4 0 .1.1.2.3 0l.3-.3zm23.5 142.5c-.3-.3-9.7-1-13.6-1-2.8 0-4-.2-4-.4-.1-.2.3-.5 1-.7 1.2-.3 2.5-1.1 2.1-1.3l-3.8.1c-2.6.2-3.8.2-4 0-.4-.4.6-.8 3.8-1.3a71 71 0 0 1 21.6 1c.6.7.2 1.1-.8 1a60.2 60.2 0 0 0-13.3-.8c3 0 3.5.2 3.7.8.2.4.7.6 3.4.8 3.2.3 5 .8 5 1.3 0 .4-.9.7-1.1.5zm-7-6.5c-.6-.2-2.6-.2-4.4-.1-3 .1-3.3.1-3.5-.3-.2-.4-.6-.5-3.5-.4-3 .1-3.4 0-3.5-.3-.2-1 .8-1 9.6-1a58 58 0 0 1 14 .8c.2.1.1.4 0 .6 0 .4-.4.4-2.3.3-1.2 0-2.6-.2-3.1-.3-.8-.1-1 0-1.1.4-.2.6-.5.6-2.2.3zm8-2.7c-3-.3-4.6-.4-12-.4-4.8 0-6.2-.2-6.1-.4 0-.2.4-.5.9-.6.4-.2.9-.5 1-.7.3-.3 1.2-.3 7 .1 8.4.6 8.1.6 8.3 0 .2-1 1.1-.7 1 .2 0 .3.6.4 2.3.6 1.4.2 1.9.5 1.4 1-.4.5-.4.5-3.7.2zm-.2-3.4c0-.6 1-1 1.4-.5.3.6 0 .9-.7 1-.6 0-.7 0-.7-.5zm15.5-.6c-.8-.3-1-.5-1-.9 0-.6.3-.6 3.9-.2 1.9.2 2.1.3 2.1.8s-.2.5-2 .5c-1 0-2.4 0-3-.2zm-10-5.4c-.3-.3-.2-.5.2-.8l.7-.3c.3 0 .8.8.7 1.1-.3.6-1.1.6-1.6 0zm-144.7-.8c-.5-.1-.9-.9-.5-1.2.3-.4 3.2-1 4.5-1 1.1 0 1.3 0 1.9-1 .7-1 2.2-2 2.7-1.7.4.4 1.1.3 3.4-.1 2.1-.5 2.3-.9.5-.9-1.3 0-9.5 1.2-11.6 1.7-1.8.4-2.7.3-2.7-.2 0-.3 3.2-1.2 7.3-2a91 91 0 0 1 21.5-.1l2.2.1-.5-.9c-.4-.6-.7-1.8-.9-4.3-.2-1.9-.5-4-.7-4.5l-.9-2.4-.5-1.3H52c-1 0-1.5.2-1.7.5-.4.5-1.1.6-1.4.2 0-.2-.4-.3-.7-.3-1.6 0-1.6-1.3 0-6.5.7-2.3.8-3.2 1-7.2 0-3.7 0-4.7-.3-5.9a7 7 0 0 1-.3-2.4c0-.5 0-1.1-.2-1.4-.2-.3-.4-1-.4-1.8 0-1.2 0-1.3-.9-1.3l-2.2.4-4 1c-3 .7-8 2.2-8.6 2.7-.5.4-.5.4 0 1.5.7 1.1.7 1.4.5 5.1 0 2.2-.2 4-.3 4.2-.3.5-.6 9.2-.4 10.7.3 1.4.2 1.8 0 2.3-.3.3-.5 1.3-.6 2.1l-.2 1.6 1.3-.2a13322.5 13322.5 0 0 1 7.5-1.1c.3-.2 1.7-.6 3-.9 1.7-.4 2.4-.5 2.6-.3.4.5 0 .7-2.2 1.3-1 .3-2.4.9-2.9 1.3-.5.3-2 1-3.2 1.4-2.8 1-4.3 1.6-4.1 1.8l2.8-.3c2.9-.5 3.8-.4 3.2.2-.4.4-1.9.7-5.6 1.2l-2.2.5-1 .2c-1 .2-2.6.6-3 1l-1.3.3c-.5 0-2.8.9-5 1.8a41 41 0 0 1-8.4 3c-1.9.7-2.4.7-2.9-.3-.4-1-.3-1.5.7-2.4 1-.7 1.1-.7 3.7-.8 2 0 3.2-.2 5.4-.9a146 146 0 0 1 8.8-2.4c.9-.4 1.2-1.3.8-2.3-.3-.5-.5-.6-1.3-.4a42 42 0 0 0-6.6 2l-2.2.7c-.7 0-.8-.7-.2-1 .3 0 .4-.3.3-.7-.2-.5 0-.7.6-1a88 88 0 0 1 9.3-2.4h.6l-.1-4.5-.4-6.2c-.2-1.7-.1-1.7.4-1.6.3.1.7 0 .8-.1.1-.2.3-2 .4-4.2a44.4 44.4 0 0 1 .6-7c-1.6-3-1.8-3-7-1.8-2.2.5-4.6.9-5.3.9-.8 0-1.5.2-1.7.4-.3.3-.4.2-.7 0-.3-.4-1.2-.5-6-.3-6 .2-7.1 0-7.1-.8 0-.5.3-.5 4.9-.7 4.6-.2 5.3-.3 5.3-1l-5-.3c-3.7 0-5.1-.2-5.4-.4-.7-.6-.6-.8.2-1.1l1.2-.9c.3-.4.8-.6 2.6-.7 1.2-.1 2.4-.2 2.7-.1.2 0 .6 0 .9-.3.5-.6 2.2-.8 3.1-.4.8.3.8.8 0 .8-.3 0-.6.2-.7.5 0 .4-.5.5-2.8.6a14 14 0 0 0-3 .4c-.6.4 1.7.5 5 .2l7.8-.3a23.2 23.2 0 0 1 9.7 1.5c.4.3 1.7-.2 1.7-.7 0-.2-.3-.4-.8-.4a27.4 27.4 0 0 1-7-1.2 106.6 106.6 0 0 1-7-1.5c-.7-.4-1.4-.5-2.5-.6-1 0-1.6-.1-2-.5-.7-.6-.7-.7 0-12.2.1-3.3.2-6.1 0-7-.3-2.1-.1-3.7.5-3.7.4 0 .5.3.6 3.8 0 2 0 4.8-.2 6l-.2 6.6c0 3.8 0 4.3.4 4.5.2.2.4.4.3.6-.1.3.8 1 1.3 1 .2 0 .2-5 0-8-.3-3-.7-10.3-.8-12.2 0-1 .1-1.1.6-1.1s.5.2.7 4.1c.2 6.3.7 14.8.9 16 .1 1 .2 1.2.7 1.1.6 0 .6-.2.7-4 0-2.2 0-5.3-.2-6.9l-.5-7c-.2-3.6-.1-4 .3-4.1h.5l.3 4.6c0 2.6.2 5.8.4 7.2l.3 6c0 1.9 0 3.8.2 4.1.3.7 1.3 1.1 1.7.8.3-.4-.4-14-.8-15.1-.3-.8-.3-1 .2-1 .5-.2.6-.3.5-3-.1-2.3 0-2.7.3-3 .6-.3 4.4-1 5.5-1 .4 0 .9-.1 1-.3 0-.1-1.4-.2-4.1-.2-2.3 0-4.3-.1-4.4-.3l-2-.2-4.3-.4a13 13 0 0 0-2.8-.2c-.3.2-.8 1.9-.7 2.1 0 .2.2 4 .2 8.5 0 8.4 0 9-1 8.6a122 122 0 0 1 .6-21.3c.8-.4 9.6-1.6 11.5-1.6 1 0 1.5.4 1.1.8l-4 .7c-5 .5-6 .7-6 1 .1.5 4.7.7 18.2 1 1 0 2.2-.1 6.3-.8l7.9-1.4c4.2-.7 3.3-1.1-4.2-2a24 24 0 0 1-2.4-.3 13 13 0 0 0-6.9-.5c-6 .9-11.9 1.2-11.9.8 0-.2 1-.4 2-.6 2.6-.4 4.6-.8 5.3-1.1l.5-.2h-.5a29.7 29.7 0 0 1-6.5.7c-.5.3-6 1-9.6 1.3-4.6.3-3-.6 2-1.1 3.2-.3 9.5-1.2 9.7-1.4.1-.1-2.7 0-10.9.5-3.3.2-4.6.2-5 0-.6-.4-.6-.4 0-.7.2-.2.7-.4 1-.4l5.1-.3c23.9-1.5 23.5-1.4 23.7-1.8 0-.2.4-.3.8-.3a29.3 29.3 0 0 1 5.4-1.2c1.4-.2 3.5-.6 4.7-1 3.4-.8 5.5-.7 4.9.3-.2.3-.8.4-1.8.5a7 7 0 0 0-2.4.4c-.4.3-1.6.5-2.6.6-3.8.4-6 .9-12 2.7l-2.6.6c-.4 0-.6.1-.5.3h1.7c.8-.2 3-.3 4.8-.4 1.8 0 4.3-.4 5.6-.7l3.9-.7c2.2-.4 2.5-.7.4-.5-1.6.2-2.5 0-2.5-.4 0-.3 1.9-.7 3.7-.8 1.3 0 1.7 0 2 .4.3.5.5.5 1.9.2a8 8 0 0 0 2.2-.9c1-.6 2-2.9 2.2-4.8l.2-1.7-1 .1-2.3.3c-1.1.2-1.2.3-.7.4.3.1.5.4.5.6-.1.2-1.3.4-4.3.6-3.8.2-4.2.3-3.4.5 1.8.7.4 1.8-1.5 1.2a76 76 0 0 0-11-.6c-3.3-.1-7.7.3-8.2.8-.1.2-1.2.3-2.4.3l-5.5.4c-1.8.3-3.7.4-4 .4l-.8-.1.7-.4c1-.6.6-1.1-.9-1.3-.8-.1-1.1-.3-1.1-.6 0-.4 2.7-1 5.5-1.2h2c.4-.1.3-5.8 0-6.1-.4-.4-2.6-.4-3.1-.1-.3.2-.4.8-.4 2.2 0 1 0 2.1.2 2.2.5 1-3 1.6-7.1 1.4L3.4 62c-.6-.2-.6-1.1 0-1.3l.6-.5c.1-.1 2-.3 4.4-.4l4.2-.2.1-1.5c0-1.7 0-1.7-3-1.7-2.7 0-2.4-.4.4-.5l2.4-.2.1-11.7V32.4H12c-.6-.2-.6-.1-.5 1.6.3 3.3.6 8.9.4 9.2-.5.7-.7-.3-.9-3.4 0-1.8-.3-3.5-.4-3.8l-.4-3.2-.3-6c-.1-2.4 0-3.3.1-3.6.3-.3.3-.5 0-.6 0 0-.1-.2 0-.4l.2-5c0-2.7.2-5.7.3-6.6L10.4 7c-.2-1.4-.2-2 .1-2.3l.4-.7c0-.2 0-.3.2-.3.3 0 .3.2.3 15.3v11.4l.7.3.7.2.4-.8c.2-.5.6-.7 1.5-1l2-.6c.6-.3 1.6-1.8 1.6-2.5 0-.3 0-.6.2-.7.2-.2.2-1.2 0-2.5L18 17l-.1-3.5h-2.7c-2.5-.1-2.8-.2-2.8-.6 0-.4.3-.5 1.8-.6h2.5c.6 0 .9 0 1-.2.2-.2.3-2 .3-4.2 0-3.7.2-5 1-4.7.2 0 .3 2.7 0 6.3-.2 2-.2 2.6.1 2.6a256 256 0 0 0 9.8 0c.2 0 .2-2 0-4.4 0-3.3 0-4.4.2-4.4s.2 0 .2-.2c-.1-.2-1.5-.3-3.4-.3-3 0-4-.1-4-.5 0-.3 14.7-.4 16.3-.1 2.1.3.8.6-3.4.7h-4.5l-.1.7v8.6l4-.2 4.6-.2c.4 0 .7-.2.8-.6.3-.9-.2-5-.7-6.2-.3-.6-.4-1.2-.3-1.3.3-.1.7.3 1 1 .2.6.2.6.3 0 .1-.4.4-.7.6-.7.3 0 .4.7.5 4l.2 4 2.4-.2c2.1 0 2.5 0 2.5.4 0 .5-.6.6-3 .8l-2 .2.3 7.6.3 7.5 2.6.2c1.8 0 2.6.2 2.8.5.1.2.3.2.4 0 .2-.4-.3-14.8-.8-21.3-.5-7-.5-7.8.1-7.8h.6l.5 8.5c1 15.3.9 25.4-.3 34.6-.1 1.3-.2 2.8 0 3.4 0 1 0 1.1-.3 1.1-.6 0-.6-2.8 0-10.3.4-6.3.4-7.6-.2-7.4h-5.4l.2 4v6c-.2 1.2-.4 3.3-.4 5 0 2.7-.1 2.9-.6 2.9-.4 0-.5-.2-.5-1l.2-8.8.2-7.8-.6-.2c-1-.2-2.1-.2-6-.1h-3.7v5.9l.3 8.5.2 2.7 2.2.2c5.4.4 6.5.5 6.5.7l-.4.4c-.7.2-5.7.1-10.4-.2l-4.4-.2-.3 1.4-.2 1.2h2.1c2.6.1 3.7.3 3.7.8 0 .4-.5.4-2.8.4h-2.8v3.7l1.3.1c1 0 1.4 0 1.8-.5.4-.4.8-.5 2.2-.5 1 0 1.9 0 2.1.2.6.2.5.8-.2 1l-1 .5c-.2.3-1.3.4-3.4.5h-3l-.1 1.6c-.1 1.4 0 1.5.6 1.5.3 0 1.3-.2 2-.5 2.7-1 6-1.2 7.1-.5.4.3 1.4.5 2.3.5 1.4 0 1.5 0 1.6-.4.3-1.3 1.2-1.1 1.2.3v.7h3.7c6.8 0 7 0 7-.5 0-.6 3.3-1 5-.7 1 .2 1.2.2 1.8-.5 1.1-1.1 1-1.4-1-1.2-.9 0-2.3.3-3 .4-2.2.5-12.1.5-12.5 0-.2 0-.3-.3-.2-.4 0 0 2.8-.2 6.1-.2 3.9 0 6-.2 6.3-.3.2-.2-.6-.4-2.7-.5-1.7-.1-3-.3-3.2-.5 0-.1-.4-.3-.7-.3-.7-.2-1-.4-.8-.6l4-.1c2.5 0 4.2 0 4.8-.3.6-.2 1.5-.2 3.2 0 2.5.2 3.3 0 3-.9-.2-.4-.7-.5-6 0-3.4.3-6.4.3-6.4-.1 0-.2.4-.3.9-.3 1.6 0 3.6-.3 3.5-.5-.1-.2-3.5-.3-7.6-.3-4.4 0-7.6 0-7.7-.2-.2-.2-.2-.5-.1-.7.1-.4.4-.4 2-.3 3.1.3 13.2.4 13.2.2a9 9 0 0 0-.5-1.5A20.7 20.7 0 0 1 50 33c.4-1.2.7-2.5.7-3 0-.8.8-1.3 1.9-1 .8 0 1.1-.4.4-.7-.4-.1-1.2-1.4-1.2-1.8l.5-.1c.2 0 .8.4 1.2.9l1 1c.3 0 .4 0 .4.2s1.4.3 5 .2c4.8-.2 5.1-.2 5.1.3 0 .4-.3.5-2 .6-1.1 0-2.1.3-2.3.4-.2.2-1.7.3-4.3.3h-4l-.6.8a19.1 19.1 0 0 0-1 15.9c1.4 3.9 1.6 4.2 2.5 4.2.4 0 1 .2 1.1.4.2.3 1.1.4 3.2.5 1.6 0 2.9 0 2.9-.2 0-.4-.8-1.7-1.2-1.8a.7.7 0 0 1-.4-.6c0-.6-1-.9-2.5-.7-1.8.2-3.3-.1-3.3-.6 0-.3.3-.4 1.4-.4 2.8 0 4.2 0 4.2-.2s-.8-.4-1.7-.5c-1 0-1.8-.3-2-.5l-1.2-.5c-1.2-.3-.7-.8 1-.9 1.3 0 1.5 0 1.5.5s.1.5 1.2.4c1.2 0 1.3 0 1.4-1 .1-.4.5-1 .8-1.3 1.4-1 2.4-5.3 1.5-6-.3-.2-.4-.3-.4-.1 0 .4-2 .6-4.8.6-2.4 0-3.3-.3-3-.9 0-.1 1-.2 2.2-.2 1.3 0 2.2 0 2.4-.2.3-.2.5-.2.8 0 .5.2 2.1.3 2 0l-.4-.8c-.4-.5-.6-.5-3-.4h-3c-1-.4.2-.7 4.2-1 4-.3 4.2-.4 4.4-1 .3-.7 1-.8 1 0 0 .5.1.5.4.3.2-.2.3-1 .3-1.7 0-1 .1-1.3.4-1.3.7 0 1 .4 1.1 1.3.1.9.2 1 1.1 1 .8.1 1 0 1-.5.2-1.2 0-5.2-.3-5.2-.1 0-.2.5-.2 1.2 0 1.7 0 2-.3 2 0 0-.3-.7-.4-1.5l-.2-1.5-3 .2-4.2.2c-1.6.2-2.5 0-2.5-.5 0-.3.5-.4 2-.4 2.9 0 7-.5 7.4-.8.4-.4.3-2.1-.6-16-.3-4.1-.2-5 .7-3.6.4.8.5 1.4.5 6.4a176.8 176.8 0 0 0 .8 13.1c.3-.2.2-5.6-.2-12.2-.5-7.2-.4-9.6 0-10 .7-.7 1.1-.3.9.7-.3 1-.2 4.5.1 10.8l.5 11.7c.1 6.3.2 6.8.7 7.2l.5.5-.2-4.9c-.4-13.4-.5-16.4-.3-21 .2-4 .3-5 .6-5 .7-.4.9.2.6 1.7-.3 2-.4 11-.2 16.4a104 104 0 0 0 .8 10.3c0-.4 0-.8.2-1 .4-.7.8 0 .9 1.3 0 .8.2 1.2.4 1.2.6 0 .5-1.4 0-2.6-.5-1-.6-1.5-.2-1.5.1 0 .2-3 0-8L73 9c.2-4.9.2-5.5.6-5.4.5.1.5-.4.2 7.7-.2 6.2.3 19.7.8 21.5.2.8.5 1.1 1.3 1.5l2.2 1.4c.6.6 1.2 1 1.3.9l-.1-5.3a285.8 285.8 0 0 1 .7-28.4c.5 0 .5-.1.2 12.3a286 286 0 0 0 0 17c.6 15.2.6 18.1.4 18.3-.5.3-.6-.4-1-7.3 0-1.5-.2-2.8-.2-2.8-.1-.1-.3 0-.6.2-.2.2-.7.3-1.2.2h-.9c-.2.4 1 5.4 1.6 6.5.6 1.2.6 2-.2 2.2-.6.2-1 1-.7 1.4l.2 1.2c0 .9.9 4 1.3 4.8.2.4.3-.1.3-2 0-2.5.2-3.3.6-3 .1 0 .2 1.8.2 3.9 0 2 .1 3.9.3 4v1c-.2.4-.3 2-.3 3.4 0 1.7 0 2.6-.3 2.6-.2.1-.1.8.3 2.4.5 1.7 1 2.7 1.7 3.8.6.8 1.2 1.4 1.3 1.4.3 0 .2-1.2-.2-1.4-.2 0-.4-1.3-.5-5.3l-.4-8.5c-.4-4.5-.4-12 0-11.6.1.2.3 2.1.4 4.5 0 2.3.3 6.2.5 8.7.5 5.7.6 8 .6 9.3 0 1 .1 1.2.6 1.2s.6 0 .4 1.1a127 127 0 0 0-.7 13.1c0 3.2 0 4.3-.3 4.2-.5-.1-.7-1.3-.7-4.6 0-1.6-.1-3-.3-3l-.8.6-1.6 1-1 .5v5c0 4.4-.1 5-.4 5a.4.4 0 0 1-.5-.3V93l-.2-4.7v-4.5h-.7c-.6 0-.6 0-.6 1.4 0 .7.2 3 .6 5l.6 5.5c0 1 .3 3.6.6 5.5l.7 5.5c.3 3.8.7 5.4 1.2 5.7.5.2.6.2.8-.2.2-.2.4-.4.7-.4.2 0 .6-.3 1-.7.6-.6.7-.6 2.8-.5 1.8 0 2.2.1 2.3.5 0 .3-.2.5-1 .7l-2 .7c-.5.2-1.4.4-2 .4-1.2 0-2.6.6-2.6 1 0 1 .7 3.5 1 3.5a4 4 0 0 0 1-.3c.6-.2.6-.3.3-.8-.4-.8 0-1.2 1.5-1.2l2.3-.2c5.1-.5 5.3-.5 5.6 0 .3.3.5.3 1.1 0 .9-.3 5-.4 5.4 0 .2 0 .3.4.3.6 0 .4-.2.6-.9.7l-1.9.2-3.3.4c-5.9.6-10.7 1.4-11.2 2-.2 0-.4 1.9-.5 5-.2 4.5-.2 4.7.3 5.4 1.8 2.6.8 3.6-2.4 2.5-1.4-.5-2.8-.6-7.9-.6h-3l-1-.1v9.4l1 .4c1.3.4 2 1.3 2 2.2-.2.6-.3.7-1 .8-.4 0-1.3.2-1.9.5-1.1.4-3.4.4-4.3 0-.3-.2-.5 0-.6.3-.2.5-.4.6-1.4.6-.7 0-2 .1-2.8.3-1.4.3-1.6.3-1.8-.2a53.8 53.8 0 0 0-7.6 0l3.2.3c3.2.1 4.6.5 4 1 0 .2-3 .3-6.6.2-6.2 0-6.5 0-6.5.5 0 .7-.6 1-2.9 1.1l-4.5.7c-2.5.6-7 1-7.7.9zm40-7.4c0-.3-.4-.5-1.4-.7-1-.2-1.3-1.4-1.5-5.7 0-3.2 0-4 .4-4.8.2-.6.4-1.2.3-1.5-.3-.6.9-2.5 1.6-2.5.3 0 .8-.3 1.2-.8l1.6-2c2.6-3.1 3.3-4.5 3.8-6.6.3-2 .5-5.8.2-6.1-.3-.3-3.1 1.3-3.2 1.7-.2.8-3.4 3-4.8 3.5-.8.2-1.4.5-1.5.9-.3.5-.5.6-1.7.5-2-.1-2.8-.6-3.8-2.3-.8-1.4-1.3-1.8-1.3-1.2l.3.3c.2 0 .3.4.2 1.3-.2 1.4 0 1.7 1 2.3.5.2.6.5.5.8-.2.8 1 1.8 2.8 2.4 1.2.4 1.7 1 1.4 1.6l-.1.8c0 .2-.4.5-1 .7-1.6.7-1.8 1.2-1.4 5.9.4 4.8 1 7.4 1.6 8 .7.6.7 1 0 1.3-.3.2-.2.4.8 1.4 1.2 1.2 1.3 1.3 2.6 1.2.8 0 1.4-.2 1.4-.4zm-7.8-3.6v-4.3c.1-.8 0-2.1-.3-3-.2-1-.4-2-.3-2.5 0-.4 0-.7-.2-.8-.3-.1-.2-2 .1-2.4.2-.3.1-.6-.4-1.3-.3-.6-.8-1.8-1-2.8l-.7-1.9-.5.9a16 16 0 0 0 .1 6.7c.6 3 .7 7 .2 7.1-.5.2-.4 1 .2 3.2.3 1 .5 1.8.4 2v1c.1.6.3.8 1 .9l1.2.1c.2 0 .3-.8.2-2.9zM33 137c.5-.4.5-.5-.3-.5-1 0-1.7.5-1.7 1.1 0 .5 0 .5.7.1l1.3-.7zm-4-.9h-.5c-.2 0-.1.1.2.1.3 0 .4 0 .3-.1zm1.3-9.8a6.6 6.6 0 0 0-.3-2.1v3c.2 1.6.3 2.5.4 2v-3zm25.2 2.9c-.5-1.6-1-4.8-1-6.3 0-1-.1-1.8-.2-1.9-.5-.2-.3-3.3.2-4.5.3-.6.5-1.9.6-2.9v-1.8h-.9c-.9-.2-1-.1-1.8 1.6-.8 1.6-.8 2-1 5-.1 3.3 0 3.5.7 6a15.6 15.6 0 0 0 1.9 4.1c0 .3 1 1.1 1.4 1.1.1 0 .2-.2 0-.4zm15.4.2.2-.3c-.2 0-.1-.1 0-.3.5-.4.7-2 .3-2-.4 0-1.3 1.6-1.3 2.3 0 .6.2.7.8.3zm3.6-.4.4-1.3c0-.4 0-.7.2-.8l.4-1.4.4-2.9c.5-3 .9-8.1.6-8.4-.1-.1-.3.7-.4 2.1a66.8 66.8 0 0 1-1.9 11.3c-.4.4-.8 2-.4 2 .1 0 .4-.2.7-.6zm-25.8-.6c0-.7 0-.9-.3-.6-.3.5-.3 1.6 0 1.6.2 0 .3-.5.3-1zm20.1.4c0-.1-.1-.2-.3-.2l-.2.4c0 .2.1.3.2.2.2 0 .3-.2.3-.4zm-17-.9-.1-1c-.2-.5-.2-.5-.4 0-.2.6 0 1.7.3 1.7.2 0 .3-.3.3-.7zm21.5-.4c.4 0 .5-.2.5-1.1 0-.6.2-1.7.4-2.3.2-.7.3-1.5.2-1.8-.1-.5-.3-.2-1 1.7-.3 1.3-.8 2.5-1 2.8a3 3 0 0 0-.1 1.2c0 .7 0 .7.3.1.1-.3.5-.6.7-.6zm3.3-1.2c.4-2.2.4-2.8.2-2.6l-.4 1.1-.3 1.6v.6c.2 0 .4-.3.5-.7zm2-1c0-1 0-1 .4-.8.5.1.6 0 .7-1.3.3-1.7.3-4.9 0-5.7 0-.3-.3-.6-.4-.6-.3 0-.4 1-.4 3.5 0 2-.2 3.6-.3 3.8-.3.4-.6 1.7-.4 2 .4.6.6.2.5-.8zm-28.5-.5c.1-.3 0-.4 0-.4-.2 0-.3.1-.3.4v.3l.3-.3zm10.4-.2c.2-.7 0-1-.7-1-.6 0-.7.3-.2 1 .4.7.7.7.9 0zm16.8-2c0-.2-.1-.4-.3-.4-.1 0-.3.2-.3.4 0 .3.2.4.3.4.2 0 .3-.1.3-.4zm.1-1.4-.1-.3c-.2 0-.3.1-.3.3l.1.2s.2 0 .3-.2zm-2.9-1.4c0-.2-.1-.1-.1.2 0 .2 0 .4.1.3v-.5zm4.2-4.8c.2 0 .2-.4 0-1-.2-.5-.4-1.3-.4-1.8 0-1-.7-4-1-4-.3 0-.3 2.6.1 5 .5 3 .7 3.6.9 2.7 0-.4.2-.8.4-.9zm-16.2-3.3c.3-.3.2-.3-.2-.3-.3 0-.7.1-.8.3-.2.3.4.3 1 0zm4.1-.8c.7-.1 1.4-.4 1.6-.6.3-.3.8-.4 1.3-.3 1 .1 3.2-.8 4.5-2 .8-.6 1-1 1.2-2.6a39.2 39.2 0 0 0-1.4-14.6c-.1-.7.7-.5 1 .2.6 1.2.4-.1-.6-2.8-.5-1.5-1-3.3-1-4a5 5 0 0 0-1.4-3l-.6-1.2-.8-1.4c-1-1.2-2.3-4-2.5-5.4-.2-.9-.1-1 .6-1.3h1c.3.1.7 1.1 1 2.2.6 2 1.4 3.6 2.8 5 .5.6 1.2.9 2.4 1.1 1.1.2 2 .6 2.6 1.2.6.5 1.2.9 1.4.9.7 0 2-1.5 2.5-3s.3-2.4-.6-3.4c-.5-.5-.6-.9-.5-1.3.1-.4 0-.7-.7-1.4-.8-.8-1-1.2-1.4-3.3-.2-1.4-.4-2.7-.3-3 .2-.4 0-.5-1.3-.9-1.8-.5-1.7-.5-1.7.1 0 .9.9 3 2 5 1.1 1.7 1.4 2.8.9 3.1-.2.1-.3.4-.3.7 0 .4-.1.5-.4.5-.3-.1-.6-.7-.9-1.8-.6-2.3-1.1-3.6-2-4.8a8.8 8.8 0 0 1-2-3.6c-.1-1-.1-1-1.5-1-.8-.1-1.7-.3-2-.6-1.2-.7-2.3-1.8-2.3-2.1 0-1-3.3-1.4-6.8-1-1.7.3-2.3 1-2.6 2.7-.1.9-.4 1.4-1.2 2.2a5 5 0 0 0-1.2 1.7 33 33 0 0 0-1.6 3.8 12.9 12.9 0 0 1-2 4.1c-.8 1-1.5 2.9-1.6 4.7-.1 1-.3 1.9-.5 2l-.7-.4c-.5-.6-.5-.6-.7 0-.1.3 0 .7.2 1 .2.2.5.6.5 1 0 .5.1.5 1.1-.2.7-.4 1.2-1 1.4-1.6l1.2-2.7c.4-1 1.4-3.5 2-5.6 1.3-3.9 1.3-4 2-4 .6.1.7 0 1.2-1.7.3-1 .8-2 1-2.2.4-.3.5-.2.9.3l.5.6.6-.7c1.8-2.2 2.5-2.8 3-2.8.8 0 .4.6-2.1 3.3l-3 3.3a32 32 0 0 0-1.4 4l2-2.3c2.4-2.9 3.9-4.3 4.3-4.1.2 0 .3.2.3.3l-1.8 2.1a31.8 31.8 0 0 0-5.4 7.1c-1 2.3-.8 2.4.5.4 3.5-5 5.7-7.7 6.5-7.7l.5.1-1.8 2.2a58 58 0 0 0-5.6 7.4c-1.4 2.4-3.2 6-3.1 6.4 0 .1 1-1 2-2.7 2.7-4 4.1-5.9 6-7.9 1.5-1.5 1.7-1.6 2.1-1.3.4.3.3.5-1.3 2a27.1 27.1 0 0 0-5.7 7.3c-.1 0-2 3-2.6 4.3-.3.6.5-.4 2.9-3.4a80.7 80.7 0 0 1 4.7-5.4c.9 0 .7.4-1 2.3-2.5 2.9-5.6 7-6.6 8.7-.5 1-1.1 2.6-1.4 3.6-.4 1.6-.5 1.9-1 1.8-.5 0-.6.2-1 2l-1 5c-.8 3.6-.8 4-.2 5.4.4.7.9 1.1 1.7 1.4l1.6 1c.3.3.8.5 1.5.5l2.3.4c1.2.3 1.6.2 3.7-.3.2 0 .1-1-.2-3-.4-2.2-.5-3.5-.4-6 .2-3.4.8-7.2 1.2-7.2.5 0 .5.6.3 4.8-.3 3.8-.2 4.7.2 6.7l.4 3.6c0 1.2 0 1.3.9 1.3.8 0 1.3.5 1 1-.2.3.7.2 2.7-.2zm-9.2-1.6c-.7 0-1.2-.3-1.6-.7-.6-.9-.6-1.7 0-3l.2-1-1 .4c-1.3.8-2 .7-2.2 0-.1-.5-.3-.7-.7-.6-.9.3-1.3-.3-1-1.4.5-1.7 1.6-3.3 3.8-5.6 1.1-1.2 2-2.1 1.8-2.1l-1.8 1c-1.7 1.2-2 1.3-2.5.7-.8-1 .6-2.5 6-6.5a64.2 64.2 0 0 0 4.7-3.5c.8-.6 1.1-1 .9-1-.5 0-4.7 2.2-6.6 3.6-1.6 1.2-2 1.2-2 0 0-1.6 2.7-4.6 7.1-7.5 1.9-1.2 2.9-1.4 2.9-.7 0 .3-1.8 1.7-2.3 1.7-.2 0-2.3 1.4-3.6 2.4-1.2 1-3 3-2.8 3.3l2.2-1.3c2.6-1.5 6.3-3.4 7-3.4.8 0 1 .7.3 1.4-.4.7-1.2 1.2-4.8 3.8-3.1 2.1-7.7 5.9-7.7 6.3 0 .3 1.6-.6 2.5-1.6.5-.5 1.1-.9 1.4-.9l1.3-.6c1-.8 3.8-2.3 4.3-2.3.2 0 .3.3.3.6s-.5.9-1.5 1.6c-3 2.3-3.5 2.8-3.5 4 0 .7.1 1 .4 1 .2 0 .5.3.7.6.2.5.2.8-.3 1.4-.5.7-.6 1-.4 2.4.3 2.9.1 4.6-.4 5.2-.7.6-.7 1 .1 1.4.7.4.8 1 .1 1h-1.3zm-1.5-6c1-.6 1.3-.8 1.3-1.3 0-.7 0-.7-.5-.4-.8.6-2.6 2.4-2.3 2.3l1.5-.7zm-1.6-1.9c3.1-2.5 3.4-2.8 3.4-3.9l-.2-1c-.3-.2-3.5 3-4.4 4.3-.7 1-1.1 2.1-.8 2.1l2-1.5zM69 97.1c-1-.3-4.3-2.3-4.7-2.8-.2-.3-.2-.5 0-.7.4-.5 1.7-.2 3.7.9 2 1 3 2 2.8 2.4-.1.5-.7.5-1.8.2zm4.3 12.7c.2-.1.3-.3.3-.4-.1 0-.4 0-.7.3-.5.4-.2.5.4.1zm-30.2-5.5h-.7c-.4 0-.9 0-1 .2-.1.2 1.4 0 1.7-.2zm-13.6-2.2V97a1062 1062 0 0 1-.6-15.3c-.1-.7-.2-.7-1.2-.7-1.5 0-4.6.6-5 1-.3.3 0 5.5.6 15.4l.1 3.6c-.4.5-.7-.9-1-4-.2-3.5-.3-4.1-.5-3.8-.2.2.6 9.5.8 9.8.2.2 1.2.4 2.5.5 1.1.1 2.3.3 2.5.5l1 .2c.6 0 .6-.1.8-2.1zm-1.6.5c-.8-4-1.8-19-1.2-19.4.5-.3.6.3.7 3.8.1 1.8.3 5.2.6 7.5.6 7 .7 8.7.4 8.7-.2 0-.4-.3-.5-.6zm-2.9-.8c-.2-.6-.6-11-.6-14.3 0-2 0-3.1.2-3.2.6-.4.8.5.7 2.2-.2 1.7.3 13.5.5 14.9.2.6 0 .7-.2.7-.3 0-.5-.1-.6-.3zm6 1c-.2-.6-.3-1.7-.3-2.4 0-1.8-.2-1.4-.4.9-.2 2 0 3 .5 2.8.3-.1.3-.4.1-1.3zm6.4.6a55.7 55.7 0 0 0 8.8-2.5c.8-.3 1-.3 1.7 0l.7.3.9-3.8c.7-3.2.8-3.9.5-4.4-.2-.3-.3-1-.3-1.7.2-3.2.3-3-.9-3.8-1.3-.8-2.2-3-2.2-4.8 0-1.4 1.7-5.2 2.8-6.2.3-.3.6-.7.6-1 0-.5-3.5.4-3.6 1-.1.4-1.1.8-2.3.8-.3 0-.7.2-.9.5-.3.4-.6.5-1.7.5-1.6 0-5.3.6-6.4 1-.5.2-1.7.4-2.9.4-2.1 0-2.3.1-2.1 1.4.1.5.3.6.6.5.9-.2 1.1.9.8 3.6-.2 2.6-.2 9.2.2 15.4l.1 3.7 2-.1c1-.1 2.7-.5 3.6-.8zm-2-1.3c-.3-1.1-.3-9.5 0-9.6.3 0 .6 1.5.8 5.3.1 3.4 0 4.9-.5 4.9l-.4-.6zm-2.2-.3a135.2 135.2 0 0 1 .4-16.7c.4 0 .4 1 .3 8.3 0 7.5-.2 9.6-.7 8.4zm5.6-8.7c-.3-.4.5-1 1.8-1.3l1.8-.7c.7-.3.9-.3 1.2 0 .6.6-.1 1.1-2.2 1.8-2 .6-2.4.6-2.6.2zm-2.5-2.3c0-.5 1.2-1.2 3.2-1.8 2-.6 3-.6 2.8 0-.1.3-4.8 2-5.6 2-.2 0-.4 0-.4-.2zm-.8-3.3c0-.3.3-.6.7-.7 1-.4 4.8-1.3 6-1.4 1 0 1 0 1 .4 0 .5-.3.7-2.3 1.2-1.3.3-3 .7-4 .7-1.2.2-1.4.2-1.4-.2zm11.3 16c.6-.1 1.1-.2 1.2-.1l.3-.6c.1-.4.1-.8 0-.8 0-.2-2.8.8-3.2 1.2-.5.4-.4.8 0 .7l1.7-.4zm29-8.8v.1c-.1.3 0 .5 0 .4v-.5zm-.2-1.6c0-.2-.1-.2-.2.1 0 .3 0 .5.2.4V93zm-22.5-3.7c.5-1 .2-1.4-.3-.6-.4.4-.5 1.4-.3 1.4l.6-.8zm-22.7-5c0-1.4 0-2.4-.2-2.2-.2.3-.2 1 0 3.5 0 2 .2 1.1.2-1.4zm18.2-9.7c-.1-.1-.3 0-.5.1-.3.3-.2.3.1.2l.4-.3zm2.2-1 .4-2c.2-1.3.2-1.3-.5-1.3s-.7 0-.5 1c.2 1.2 0 2.2-.5 2-.2 0-.4-.5-.5-1-.2-1.6-.9-1.6-1.3 0-.3 1.5-.4 1.4.5 1.5 1.6.2 2.1.2 2.4-.3zm-3.9-.8c.3-.7.2-1.7 0-1.7s-.5.3-.8.7c-.5.6-.6.6-.9 0-.4-.6-.7-.6-.7 0 0 .8-.5 1-.9.3-.4-.6-2-.7-2.2 0-.2.5 0 .6 1.7.8 2.7.4 3.7.3 3.8-.1zM78.3 64c-.7-1.4-2.4-1.7-2.7-.6-.2 1 0 1.3 1.1 1.3.5 0 1.1.1 1.4.3.5.3.6-.2.2-1zM26.2 64c.3 0 1-.2 1.3-.4.6-.4 1.2-.5 3.4-.4 2.7 0 2.7 0 3.2-.7.4-.5 1-.9 1.5-1 .5 0 1-.2 1-.4 0-.4-1.3-.5-4.1 0-1.7.2-4.4.4-6.2.4-3.6 0-3.9-.1-3.6-1.5l.2-2v-1.2h-4.2l-.1 1.7c0 1.4 0 1.7.5 2 .6.5.5 1.4-.2 1.4-.5 0-.5.8 0 1l1.8.2c1.3.1 1.6.3 1.7.7.2.5.3.5 1.7.4l2-.2zm16-1.2a162.4 162.4 0 0 1 6.7-.9c-1 0-2-.1-2.3-.3a48.6 48.6 0 0 0-9.3.9c-1.9 0-1.4.4.7.4l2.2.2h.7l1.3-.3zm32.2-.2c1-.8 1-1.1 0-1.6-.7-.4-.8-.6-.8-1.2.1-.9 1-1 2.2-.3.6.4 1.2.6 1.6.5.8-.2.7-1.7-.2-4l-.7-2.2c0-1.5-.3-2.2-1.1-2.3l-.8-.4c0-.4 1-2.3 1.8-3.4.5-.8.5-1 .3-1.7l-.7-1.3c-.2-.2-.3-.9-.3-1.5 0-1.3-.3-1.8-.8-1.3-.6.8-1.2.5-1.6-.6-.3-1.3-.2-1.7.6-1.5.7.2 1 0 1.7-1 .5-.8.5-1 .2-1.2-.3-.3-.7 0-1 .9-.1.3-.3.4-.6.3-1.4-.6-1.6-.5-2.5.9-.8 1.2-1 1.3-1.7 1.2l-1 .1c-.4.3-1.5.5-3.5.6-1.3 0-1.5-.5-.3-.7.9-.2 1-.2.7-.7-.2-.4-.2-.6.6-.9.8-.3 2-1.6 1.7-2-.3-.2-1.5.3-1.6.8-.3.8-2.3 2.6-3.1 2.8-1 .2-2.2 2.6-2.3 4.9-.2 2.8-.2 3.1.3 3.6l.5 1.3c0 .6.2.8.9.8.9 0 4 1.4 4 1.8 0 .2-.4.3-.7.4-.6 0-.5.1.5.8 1.5 1.2 1.4 1.7-.3 1.5-1-.2-1.5 0-2.4.4-1.1.6-1.1.6-.4.7.4 0 1.3 0 1.9-.2 1-.2 1.3-.1 1.9.3 1 .6 1.1.6 1.1 0 0-.9.8-1 1.9-.4.5.4 1.2.6 1.4.6.5 0 1 .7.7 1-.2 0-.1.3 0 .6.3.4.3.6 0 1-.3.3-.2.4.4 1 .7.8.8 1 .3 1.2-.4.2-1.9-.8-4.3-2.7-1.4-1.1-2-1.5-2.4-1.4-.8.2-.8.3.2 1l.8 1.1c0 .3.3.4.8.4.8 0 1.5.4 3.2 1.6.6.5 1.1.7 1.3.7 0-.1.3 0 .4 0 .2.5.4.4 1.2-.3zm-3.2-7.8c-.8-.1-1.2-1.3-.7-1.9.4-.3.5-.3.8 0 .2.4.5.5.8.4.7-.3 1.5.6 1.2 1.2-.3.5-.8.6-2 .3zm-4.2-3c-2-.3-4.2-1.1-4.4-1.8-.3-1 0-1 1.5-.7 1.2.4 1.2 0 0-.6-2-1-2.7-2.7-1.3-2.7.6 0 .6 0 .4-1-.3-1-.3-1 .5-1.7.6-.5 1.7-1 3.8-1.4.6-.1.8 0 .8.2 0 .3-.6.7-1.7 1-1 .3-1.8.7-1.8.8 0 .4 1.3.4 1.5 0 .2-.3 1.2-.3 1.2 0 0 .2-.2.5-.5.8-.4.4-.3.4.8.5 1.3 0 1.6.4 1.3 1.5-.1 1-.4 1.2-1.5 1.2-1 0-.6.4.7.7 1.2.3 1.3 1 .1 1.4-1 .4-1 .7.1.9.8.2 1.1.8.5 1l-2-.1zM79 62.6c0-.6-1-1.5-1.6-1.5-.4 0-.3.2.3 1 1 1 1.3 1.1 1.3.5zm-25-3h-.4c-.2.1-.2.2.1.2.3 0 .5 0 .4-.2zm5.6-1.3 2.5-2 1.6-1.1-.8-.2c-.6 0-1.1.3-1.9 1-.5.7-1.1 1.2-1.2 1.2-.4 0-1.7 1.1-1.7 1.6 0 .7.5.6 1.5-.5zm-1.2-2.8c.3-.5.3-.5-1.5-.4l-2.3.3c-.3 0-.6.2-.6.4-.1.2.4.3 2 .3 1.9 0 2.1 0 2.4-.6zm-41.2-2.7c0-1.9 0-3.7.3-5 .4-2.3.6-10.8.2-10.3-.1 0-.4 1.3-.6 2.7-.4 3-.8 4.9-1 4.6-.3-.3.1-4.5.8-8.3.5-3.3.6-5.4.2-6-.1-.3-.5-.4-1.5-.2-1.4.1-1.7.5-1.5 1.4.1.4 0 .6-.4.7-.5.2-.6.3-.4.8.1.3.3 5.4.3 11.4v11c0 .2.9.2 1.9.2l1.7-.1zm-3.1-16c-.3-.4 0-.7.4-.4.2.2.2.4 0 .5l-.4-.1zm8 18.8h.8v-1.8c.2-1.5 0-2-.3-2.4-.6-.6-.6-.8 0-1 .4 0 .5-.4.6-1.2V48l-1.5-.2-2-.2c-.6-.1-.6 0-.8 3.5 0 2-.2 3.7-.3 3.9-.3.4.7.9 1.7.7l1.8-.1zM64 53c-1-.4-1.3-.4-1.4-.1-.4.5.2.9 1.4.7h1.1zM29.5 38.6c0-4.7-.2-8.6-.3-8.7l-2.3-.1c-1.4 0-2.1-.1-2.2-.4-.2-.4.8-.7 2.8-1h1.8l-.1-3c0-2.7 0-2.8.4-1.9l.5 2.9c0 1 .3 2 .4 2.1.3.2 10 .1 10.2 0a81 81 0 0 0-.8-10.2c.3 0 .4-3.3 0-3.6l-.2-1c-.1-.5-.3-.6-1-.6l-4.6.1c-4.3.1-4 0-4.3 1.9-.3 1.5-.5 1.5-.7 0l-.1-1.4-5.1-.1-5.1-.2.1 3.7c.2 4.4.3 5 1 6.2.4.5.8 1.3.9 1.8a8.9 8.9 0 0 0 2.4 4.1c.3.3.6.6.6.8 0 .5.2.5-1.8-.2-2.4-1-2.6-1-2.9.7-.3 1.8 0 15.5.3 16 .2.2 1 .3 2 .3h1.8l.3-2.8a175.8 175.8 0 0 0 1.2-10.3c.6-.6.5 7.4-.1 11-.4 2.4-.4 2.4 2.5 2.4h2.5zm-6.2-6.4c-.5-.6-.2-.8 1.1-.9.7 0 1.9 0 2.8-.2H29c.3.6-1.1 1.2-3.2 1.4-1.8 0-2.2 0-2.5-.3zm46.5 7c1-.7 1.7-1.2 1.7-1.4 0-.4-.6-.5-.7-.1-.1.2-.6.5-1.1.7-.8.2-2.2 1.4-2.2 1.7 0 .3.9 0 2.3-1zm-7-2.8c0-.8-.2-1-.7-1l-1 .3c-.5.2-.5.3.3 1 1 1 1.3 1 1.3-.3zm10-1.5c0-.2-.1-.2-.3-.1l-.3.4c0 .2.2.2.3.1.2 0 .3-.3.3-.4zm-54-7c0-.4 0-.4-.4-.1l-.4.4.4.1c.2 0 .4-.2.4-.4zm166.7 121.8h-2.8c-1.7.1-2.4-.2-2.2-1.2.1-.5.2-.5 3.8-.2l3.4.2c1.3 0 1.6.2 1.7.6.2.9-1.2 1.1-4 .6zm-161.6-5.1c0-.3.6-.6 1.2-.8l2.4-.8a51.5 51.5 0 0 1 12-2.5c2.6-.4 10-.3 10.8.1.4.2 1.3.5 2 .6 2.7.3 3 .4 3 .8 0 .5-.8.6-4.7.7-3.4 0-3.5 0-4-.6s-.5-.6-4.4-.4c-3 .1-4 .3-4.4.6-.3.2-.5.3-.6 0-.3-.4-1.8-.1-7.9 1.4a249 249 0 0 1-5.4 1.3v-.4zm166.9-.6c-.6-.2-5.3-.9-9-1.3-.8-.1-1.2-.3-1.3-.6 0-.3-.3-.6-.5-.6-3-.1-3.8-.5-3.3-1.5.4-.7 2-.9 3.9-.4l2.3.4c1 0 2 .5 2.2 1 .1.5.3.5 4 1 2.8.5 3.3.7 3.2 1.5 0 .6-.5.8-1.5.5zM25 132.8c-.3-2.4 0-5.5.5-5.5.2 0 .3.8.4 3.3 0 3.1 0 4-.6 4 0 0-.3-.8-.3-1.8zm-5.3-2.6c-.4-3.6-.4-9.7 0-10.1.4-.4.5.3.7 4.5 0 2 .2 4.4.4 5.5.4 2 .2 3.3-.4 3.3-.2 0-.4-.9-.7-3.2zm-8.5 2.4v-2.3c0-1.8 0-2.1.4-2.2.8-.1 1.1 1 .9 3-.2 1.1-.4 1.6-.7 1.7-.3 0-.5 0-.6-.2zm5.7-1c-.2-.1-.4-.7-.6-1.1-.3-1 .4-3.5 1-3.5.4 0 .4.4 0 1.5-.2.7-.1 1 .3 2l.6 1.3c0 .4-1 .2-1.3-.1zM8.7 129l-.4-2c-.2-1.2.3-1.7 1-1.1.4.2.7 2.2.5 3.5 0 .6-.8.4-1-.4zm190-7c-.3-.1-.7-4.9-.6-8.3v-4c.1-4.8.4-7.5.8-7.5.3 0 .8 1.4.5 1.8a87 87 0 0 0-.1 13c.4 5.2.4 5.1 0 5.2l-.6-.1zm-165.9-1.1c0-.2.1-.4.3-.4.1 0 .3.2.3.4s-.2.4-.3.4c-.2 0-.3-.2-.3-.4zm6.5 0c-.3-.4 0-.7 1-1.2 1.2-.6 1.8-.7 1.8-.1 0 .5-2.4 1.6-2.8 1.2zm-1-3.6c0-.6 1.9-1.2 2.1-.6 0 .2-.3.4-.7.6-1 .3-1.3.3-1.3 0zm-1.5-2.5c0-.2.4-.5 1.1-.7l2-.5c1-.4 2-.3 2 .1 0 .2-.8.6-1.7 1-2 .6-3.4.7-3.4.1zm-36.2-1c-1.3-1-.4-1.8 2-1.8.9 0 1.7-.1 1.8-.3.1-.1.3-.2.5 0s1.2.2 3.2 0c3.3-.3 4.3-.2 4.3.6 0 .4-.2.5-1.5.6l-3.7.6c-4.2.7-6 .7-6.6.2zm85.7-4.8c-.2-1.5-.2-21.7 0-22.7.1-1.3 0-1.5-.3-1.6-.7-.2-1-1.2-.7-1.9V81l-.4-8.7A592.5 592.5 0 0 0 84 51c0-3.2-.2-5.9-.2-6A267.9 267.9 0 0 1 83.3 9c.2-5.3.2-5.9.7-6 .4 0 .4.3.3 3.9l-.4 8.8a198.5 198.5 0 0 0 1 29.1c.1.4.2 2.6.1 4.9 0 2.3 0 5.5.2 7.1l.4 7c.4 10 1 20.9 1.2 21.1.4.5.6 22.1.2 23.5-.1.4-.3.7-.5.7h-.2zm-4.9-2-.1-1.9-.3-5.3c-.2-4.6-.2-12.9.1-13.5.4-1 .8-.3.8 1a186.1 186.1 0 0 0 .3 19.8c-.2.6-.6.5-.8 0zm3 0a233 233 0 0 1-.3-15.4c0-3.8.3-5.8.7-5.9.2 0 .3 2.3.3 6.3a600.9 600.9 0 0 0 .1 14.4c-.2.7-.6 1-.9.7zm-4.8-3.6a347.2 347.2 0 0 1 .2-14.3l.4 1.4c.2 1.4.2 12.2 0 12.7 0 .4-.5.5-.6.2zM6.2 102c-.3-.5-.3-20 0-20.1.4-.1.8 19.9.5 20.2-.2.1-.4 0-.5-.1ZM98 98.4c-.2-.4.2-.8 1-.8.7 0 1.2.6.8 1-.2.2-1.6.1-1.8-.2zm4.7-3.8c-.8-.4-1-.8-.6-1 .5-.3 2.2.3 2.2.7 0 .6-.7.7-1.6.3zm-99.2-.3c0-.2 0-1.6.2-3l.4-6.7c.2-2.9.3-4.3.6-4.4.2-.2.4-.2.4 0 .2.2-.5 13.6-.7 14.2-.2.5-.7.4-.9-.1zm197.8-6.4a292 292 0 0 1 1-35.2c.6-5.7.7-6.1 1.4-5.3.5.7.6 1.9.2 3.1-.7 2.2-1.3 9-1 12.9l-.1 2.7-.3 3.5a303 303 0 0 0-.1 23c.5.6.3 1-.4 1h-.6zM104 92.8c-.3-.2-.4-.5-.3-.7.3-.6 3 .1 3 .8 0 .4-2.2.3-2.7-.1zm-5.3-3.1c-.4-.7 1.1-1.9 2.4-1.9.7 0 .3.8-.7 1.4-1.2.8-1.5.9-1.7.5zm10.3-1.2c-.4-.5 0-1.2 1.2-2 1-.7 1.3-1 1.2-1.4l-.2-1.4c0-.7 0-.8-.5-.7-.6.2-.6.1-.4-2.7 0-1.6.2-3 .3-3 0-.2.3-.2.6-.1s.4.5.2 2.6l-.2 2.5h.7c.7 0 1 .5.8 1.8-.2.7-.1 1 .2 1.2.6.5.3 1.1-.7 1.5-.5.1-1.2.6-1.6 1-.8.8-1.2 1-1.6.7zm-4.2-.6c-.4-.4-.1-.9.6-1.2 1-.6 1.6-.6 1.6 0v.6l-1.1.4c-.5.2-1 .3-1.1.2zm-16.2-2.5a456 456 0 0 1-1.1-27.7c0-5.4-.2-11.2-.3-12.8a210.2 210.2 0 0 1 .7-41.1c.2-.1.5 0 .6.2a33.8 33.8 0 0 1-.3 8.8c.2.3.2.4 0 .5-.1 0-.4 1.1-.5 2.4a219.6 219.6 0 0 0 .8 31.5l.3 4.1a425.5 425.5 0 0 1 .9 25c0 8.6-.2 11-.5 11s-.4-.5-.6-2zm27.7-1.6c0-.8.2-1 .7-.7.5.5.4 1.3-.2 1.3-.4 0-.5-.2-.5-.6zm-13 0c0-.6 1-1.1 1.4-.8.2.2.2.4 0 .7-.5.5-1.4.6-1.4 0zm5.6-2.8a3 3 0 0 1-.3-1.4c.1-.7.3-1 .7-1 .6 0 .6 0 .6 1.3-.1 1.5-.6 2-1 1zm4.5-1c0-.5 0-.6.5-.6.4 0 .5.1.5.6-.2.8-1 1-1 0zM98.8 80c-1-.6-1-1.1-.3-1.3.6 0 2 1 2 1.5s-.7.4-1.7-.2zm4.2-.8c-.6-.8-.7-1.2-.4-1.4.5-.3 1 .1 1.4.9.6 1.4-.2 1.8-1 .5zm4.2.2c-.4-.5 0-1.1.6-.9.5.2.5 1 0 1.2l-.6-.3zM18 77c0-.3.1-.5.3-.5.2 0 .4.3.4.5s-.2.4-.4.5c-.2 0-.3-.2-.3-.5zm78.4-2c0-.2 0-.6.3-1 .4-.3.6-.4 1.2-.1 1 .3 1 .7.2.7-.4 0-.7.2-.8.4-.2.5-.7.5-.9 0zm10.7-.5v-.6c.5-.2 1.4.2 1.3.5-.1.5-1.1.6-1.3.1zm5.2-.3c-.1-.2 0-.5.1-.7.4-.4 1.1 0 1.1.6s-1 .7-1.2.1zm-7-.2c0-.5 1.5-1.8 2.2-1.8.7 0 .6.4-.6 1.3-1 1-1.6 1-1.6.5zm-6.5-.7c-1-1-1.1-1.6-.4-1.6.6 0 1.4 1.3 1.3 2 0 .4-.3.3-1-.4zm12.3-1.5c-.5-.4-.2-1 .4-.8.3 0 .6.2.6.4 0 .5-.7.7-1 .4zm-7-1c-.2-.3 1.3-1.7 1.9-1.7.7 0 .4.9-.4 1.5-.9.6-1.2.7-1.5.3zm-9-.7c.2-.3.3-.5.5-.5 0 0 .2-.5.2-1.2 0-1.2.4-1.7.8-1.3.3.4 0 2.7-.5 3.2s-1 .4-1-.2zm8.5-1-.7-1.5c-.6-1.3-.6-1.6-.2-2.2.2-.4.2-.8 0-1.6-.3-1.2 0-1.6.8-1.6 1 0 1.2 2 .3 3.4-.3.5-.3.7 0 1.2.5.6.5.7 1 .3 1.5-1 1.4.2 0 1.6-1 .9-1 1-1.2.5zM99.5 67c-1.2-1.2-1.5-2.4-.5-2.4.3 0 .6.2.8.7.1.4.6 1 1 1.3.4.3.6.7.5 1-.3.6-.7.5-1.8-.6zm9.4.8c-.7-.1-1.6-1-1.4-1.3.3-.4 3.7-.6 6.3-.4 1.8.1 2.2.3 2.3.6 0 .3-.1.6-.4.7-.5.3-6 .6-6.8.4zm53-.3c-.2-.1-.1-.3 0-.4.2-.1.3 0 .3.2 0 .5-.2.6-.4.2zm25.3-.8c-.3-1.2-.5-7-.5-17.2 0-6.2-.1-15.5-.3-20.7a56 56 0 0 1 0-9.6c.7-.3 1 1.7 1 8l.4 12.2c.3 8 .1 27.8-.2 27.8-.1 0-.3-.2-.4-.5zM39.4 65.4c0-.2.2-.3.4-.3.3 0 .4.1.4.3 0 .1-.1.2-.4.2l-.4-.2zm71.2-.8c0-.6 1.5-1.6 2.2-1.6.6 0 .6.6-.2 1.4-.7.8-2 1-2 .2zm-3.7-.3c0-.4 1.2-2 1.6-2.2 1-.5 1 .7 0 1.7-.6.7-1.6 1-1.6.5zm18-.5c-.3-.8.4-1 6.3-1.2 3-.2 3.2-.2 3.2.3s-.2.6-1.9.7l-4.7.4c-2 .1-2.7.1-2.8-.2zm-27-2.3v-.8c0-.2.1-.3.4-.3.3-.1.4 0 .4.8 0 .7-.1 1-.4 1-.2 0-.4-.3-.4-.7zm2.3.3c-.8-.3-1-1-.3-1 .6 0 2 .8 2 1.1 0 .3-.7.3-1.7 0zm11.4-1.1v-2a96 96 0 0 0-1.2-13.5c-.1-1.6-.4-2-1.2-2-.5 0-.5.1-.4 5.9l-.1 6.1c-.6.6-1-2.2-1-9 0-4 0-4.7-.4-4.9-.5-.2-.5-.3 0-1.2l.4-1.4c0-.4.1-.6.3-.6.4 0 1.4 1.3 1.7 2.2.2.5.1.5-.5.3-.6-.1-.7 0-.7.3.1.4.4.5 1.2.4 1.1 0 1.6-.5 1.9-1.7 0-.4.3-.8.5-1 .3-.2.4-.1.8.7.2.5.3 1.2.2 1.4 0 .3 0 .6.2.7.1.1 0 .5-.5 1.2l-.8 1 .2 3.5.2 9.2c0 4.8 0 5.6-.3 5.6s-.4-.3-.5-1.2zm-5.8-.3c-.8-.8-.6-2.4.3-3.3 1-1 1.4-1 2.3 0 .5.5.6.8.6 1.8-.1 1.7-.8 1.8-1 .2-.2-1.2-.9-1.5-1.4-.6-.2.4-.2.8 0 1.4.4 1 .4 1 0 1-.2 0-.6-.3-.8-.5zm-2-1.3c-.6-.4-1.4-.5-1.8 0-.6.5-.9-.8-1.2-5.5l-.4-7.5c-.2-2.9-.3-3.1-1-3.3-.4 0-.6-.3-.7-.7 0-.5 0-.6.5-.5.5.1.6 0 .5-.4-.3-1 .4-2.7 1-2.8.5 0 .8.2 1.2 1 .7 1.5 1.6 1.7 1.6.4 0-.3.1-.8.4-1 .4-.6.4-.6.9 0 .3.4.5.9.5 1.1 0 .3.2.7.4.8.6.5.5 1.5-.1 2s-.6.8-.5 4.6c0 3 0 4.1-.2 4.2-.5.2-.6-.8-.8-4.9-.1-2.3-.3-3.7-.5-3.7l-1.1-.9c-1.3-1.2-1.5-.8-1.2 2.6.4 3.8.6 7.1.6 10 0 2 0 2.3.4 2.4 1.2.4 2.2 1 2.4 1.5.2.8-.2 1.1-.9.6zm11.3.1-.1-7.9a115.6 115.6 0 0 0-.2-9.5c.3-.3.3-.3.8 0a154 154 0 0 1 .2 17.2c-.2.6-.7.7-.7.2zM.7 58.6c-.5-.2-.6-.9 0-1 .7-.3 9.9-.4 10-.2.2.4-.5.5-4.2.8a622.7 622.7 0 0 0-5.8.4zm96.9 0c-.6-.2-.8-.9-.4-1 .4-.2 2 .6 2 1 0 .1-.8.2-1.6 0zm26.1-.1c-.2-.4.2-.5 3.4-.6 2.1-.1 2.8 0 2.8.2s-.1.4-.3.4c-.7.3-5.7.3-5.9 0zm-90.3-3.3c0-1-.2-1.8-.3-1.8-.4 0-.6-1-.3-1.3.1-.2.6-.2 1-.1 1.1.2 1.3 1 .9 3.2-.3 1.4-.4 1.7-.8 1.7-.5 0-.5-.2-.5-1.7zm125 1.3.1-2.4c.3-2.3.1-15.4-.3-19.8-.3-4-.6-16.2-.3-18 .1-1.2.3-1.6.6-1.6s.4.3.4 1.7c-.3 10-.2 13 .5 22.8.2 2.8.2 15 0 16.3-.2 1.2-.7 1.7-1 1zm-155-.3h.5l-.3.1c-.3 0-.4 0-.2-.1zm95-1c-.2-.4-.2-.8-.1-.9.2-.2 1.2.7 1.2 1.2 0 .6-.8.4-1.1-.3zm27.6.3c0-.3.3-.5 1-.6 1.9-.3 1.8.5 0 .8-.8.1-1 .1-1-.2zm-.7-1.7c-.4-.5 0-.6 1.4-.6 2 .1 2.2.8.2.8l-1.6-.2zm-124-.9c-.7-.7-.6-1.7.2-1.8.5 0 .6 0 .6.5s.2.5 4.5.6c4.2 0 4.4 0 4.4.6 0 .5-.2.5-4.6.6-4.3 0-4.6 0-5-.5zm55.9-1.8c-.4-.2-1.3-.3-2.1-.3-1.5 0-2.4-.3-2.4-.8 0-.3.7-.3 2.4-.2 2.5.2 3.4.5 3.4 1.1 0 .5-.3.5-1.3.2zm40.1-.7-.3-4.5c-.2-4-.2-4.1-.8-4.4-.8-.3-.8-.8-.2-1.4.3-.3.6-.7.6-1 .2-1 .9-.8 1.5.4.6 1 .6 1.3.3 1.7-.3.3-.4 1.5-.4 4.6 0 3.8-.3 5.3-.7 4.6zm26.7 0c-.3-.5 0-.6 3-.8 2-.1 3 0 3 .1.2.2.2.4.1.5-.3.2-6 .4-6 .1zM46.4 50l-3-.2c-3.1-.3-2.1-.7 1.5-.6 3 0 3.4.1 3.5.5 0 .3 0 .5-.4.4l-1.6-.1zm-4.7-1.5c-.1-.3-.2-.5-.1-.6.3-.2 4.5-.3 4.6 0 .2.3 0 .5-1 .6l-2.1.2c-1 .2-1.3.1-1.4-.2zm39.8-2c0-.1.1-.3.3-.2.1.1.2.3 0 .4-.1.4-.3.3-.3-.1zm44.5-1.4c-1.1-.2-1.6-.4-1.6-.6 0-.5.7-.5 3.2 0 1 .1 1.9.4 1.9.5 0 .4-1.5.4-3.5 0zM53.7 43c0-.3.4-.5 1-.6 1.5-.2 3.3-.2 3.3 0 0 .5-.3.6-2.4.8-1.6.1-1.9.1-1.9-.2zm61.1-2.6c.3-.6.6-.7 1-.4.2.3-.2 1-.7 1-.5 0-.5-.2-.3-.6zm-62-.2c-.1-.3-.4-.6-.6-.7-.6-.4-.2-4.4.5-4.8.5-.3.5 0 0 1.3a5 5 0 0 0-.2 2.4l.2 1.3 3.5-.1c2.4-.1 3.5 0 3.5.2.2.4-.5.6-3.7.8-2.8.1-3 0-3.2-.4zm70.5 0c-.4-.5 0-.6 2.1-.6 2.7 0 4 .2 4 .7 0 .3-.6.3-3 .3-1.6 0-3-.2-3.1-.4zm-20.8-4-2-.2c-1.3-.1-1.8-.3-1.8-.5 0-.5 0-.5 3.3 0a65 65 0 0 0 3.3.6c0 .3-2.1.4-2.8.2zm7-.8c-.7-.5.1-.7 2.7-.7 2.8 0 3 .2 2.8.6-.2.4-4.9.4-5.4 0zm11-.3c-.7-.5-.1-.8 1.3-.7 1.4.1 1.7.2 1.4.7-.2.3-2 .3-2.6 0zm-17.8-1.7-3.2-.3.1-.4c.3-.3 11 0 11.5.4 1.2.7-1.6.8-8.4.3zm60.5.2v-5.8c.4-5.2.3-13.2-.1-15.2-.2-.8-.1-.8.4-.8.5.1.7.4.9 1 .3 1 .2 7.8 0 12.6L164 31c0 1.8-.5 3.2-1 2.6zm-102.7-.5-3.4-.4c-2-.2-2.6-.4-2.6-.7 0-.3.5-.4 3.4-.2 4 .2 4.4.3 4.2.9 0 .4-.4.5-1.6.4zM76 30.5V20c.2-4.4.2-9.7.2-11.7 0-2.8 0-3.8.3-3.8.7 0 .8.8.6 4.8l-.2 14c0 8.3 0 9.8-.4 9.8-.3 0-.4-.6-.5-2.6zm46.3 1.4c-.4-.5 0-.7 1.3-.6.8 0 1.5.2 1.5.3.1.3-2.5.5-2.8.3zm-11.5-.6c-.7 0-1-.2-1-.5s.4-.3 2.6-.2c3.4.2 4.5.3 4.3.6-.1.3-3.5.3-5.9 0zm-14.4-.8c-.4-.4-.1-.6.7-.6 1 0 1.8.2 1.8.6 0 .2-2.2.3-2.5 0zm21.5-.7c0-.3.2-.4.4-.4s.4.1.4.4c0 .2-.2.4-.4.4a.4.4 0 0 1-.4-.4zm-18.2-1c-.8-.3-1-.5-1-1-.1-.8-.2-.8-1.8-.8-1.9 0-2.5-.2-2.5-.7 0-.2.7-.3 2.5-.3 3 0 5.9-.4 6.3-.9.2-.2 0-.2-.7 0-1.1.1-1.4-.3-.4-.8.5-.1.3-.2-1-.2-.8 0-1.4-.1-1.4-.3 0-.1 0-.3.2-.3a54.6 54.6 0 0 0 7.8-1.4c.3.1 1.8-.7 7.3-4.1l1.5-1h-1.3c-1.7-.1-1.5-.6.5-1 1.7-.4 2.2-.3 2.2.3 0 .7-1.2 1.7-4.6 3.7a57 57 0 0 0-3.8 2.5l-.7.6 1.5-.2c1.2-.1 1.5 0 1.5.2 0 .4-.5.6-3 .9-.9 0-2 .3-2.5.5-.9.4-.9.4-.4.8.7.5.8.5-4.4 1.1l-2 .4c-.3.3.5 1 1.4 1.2.5.2 1.5.2 2.3.1 1-.1 1.3 0 1.2.2-.3.8-3 1-4.7.5zm6.4-5.4a1 1 0 0 0-.7 0l.3.1c.4 0 .6 0 .4-.1zM54 27c-.7-.5 0-.8 2-.8 1.4 0 2-.1 2-.4.2-.3.7-.4 2.4-.3 2.3 0 3.4-.2 3.4-.6 0-.2-2.3-.3-5.6-.3-5.1 0-5.5.1-5.6.6-.4 1.4-2-.5-2-2.3 0-1.3.1-1.5.7-1.2h5.2c4.7-.2 5.6 0 5 .6-.3.2-1.8.3-5 .4-4.4 0-4.8 0-4.8.5-.1.8.3 1.3.8 1 .3-.3 1.5-.4 9.4-.6.5 0 .6-.2.6-1.2 0-2-.1-2-2.3-1.9H55c-3.1-.2-4.3-.4-3.9-.8.1-.1 2.6-.2 5.5-.1 3.3 0 5.3-.1 5.4-.3.1-.1 0-2.5-.3-5.3-.8-7.8-1-10.5-.6-10.7h.5l.3 3.5c.4 5.6 1 12 1.3 12.3.1.1.2 1.1.1 2.2 0 1.4 0 2 .2 2s.3-2.3.3-8.8c0-5.4 0-8.8.2-8.9.5-.1.6 1.3.6 10.2v9l.7.3c.3.2.6.5.5.6 0 .3-1.2.6-6.4 1.3-2.3.3-4.9.3-5.4 0zm71.4-.4c0-.5-2.4-.7-8.2-.8-3.2 0-4.9-.1-5-.3 0-.4 4.7-.7 7.5-.5 1.7.2 2 .2 2-.1 0-.2-.4-.5-.8-.6-.6-.1-.6-.1-.1-.4.3-.2 1-.4 1.6-.5.7 0 1.2-.3 1.3-.4l.8-.2 2.8-.8c2.3-.9 2.9-1 2.9-.6 0 .1-1 .6-2.4 1.1l-2.3 1h7.5c.9-.1.7.4-.2.8-1 .3-.7.5 1.2.6.8 0 1.4.2 1.4.5.2.5-4.6.1-5.5-.5-.8-.5-6-.8-7.2-.3l-.7.4c.1 0 1.2.3 2.5.4 2.9.3 4.6.8 4.6 1.1 0 .2-.5.2-1.6.1-1-.1-1.5 0-1.5.1 0 .2-.2.3-.3.3-.2 0-.3-.2-.3-.4zm9-3c0-.4 3-1 3.2-.6.4.3 0 .5-1.7.7-1 .1-1.5 0-1.5-.1zm-17.6-.3c-.2-.4.7-.7 2.4-1 .9 0 2.7-.4 4.1-.7 3-.8 3.5-.8 3.4-.4-.1.4-7.5 2.3-8.9 2.3-.4 0-.9 0-1-.2zm-.5-1.4c-.2-.3-.3-.3 1.9-1 1-.3 2.5-1 3.4-1.4 1-.5 1.6-.6 1.8-.4.4.3 0 .5-3.4 2-2.6 1.2-3.4 1.3-3.7.8zm17.3-.5c0-.4 2.1-1.9 3-2.2 1-.4.4-.6-.6-.2l-1.8.3c-1-.2-1-.9 0-1 2-.2 7.5-2.5 8.7-3.7.5-.4.8-.5 1-.3.3.7-1 1.9-4.6 4l-1.5 1-.6.5h1c1.7 0 5.8-.8 7.2-1.4 1.5-.7 2.9-.9 2.7-.3-.3 1-5.2 2.3-9.4 2.4-2.3.1-3.1.2-3.8.7-1 .6-1.3.6-1.3.2zm-35.4-.7c0-.4.5-.8 2.2-1.8a26 26 0 0 0 2.5-1.5c.7-.5 1.2-.4 1 .2-.2.4-5 3.3-5.4 3.3-.2 0-.3 0-.3-.2zm26.3-.8c0-.2.8-1 2-1.7 2.3-1.7 3.8-3.2 4.4-4.2.4-.9.9-1 .9-.3 0 .9-1.5 2.6-3.5 4.1-2.3 1.7-3.6 2.4-3.8 2zM111 18.5l.3-.4c.2 0 .6-.5.9-1 .5-1 .9-1.1 1-.5.1.1-.2.7-.7 1.2-1 1-1.5 1.2-1.5.7zm21.5-.5c0-.1.4-.5 1-.8.7-.4 1-.5 1-.2 0 .5-1.8 1.3-2 1zm-79.6-1.5c-.3-2.7-.5-12-.2-12 .5 0 .6.3.7 4.1l.3 6.4c.2 2.3.1 2.7-.2 2.7-.3 0-.5-.4-.6-1.2zm54.1.9a103.8 103.8 0 0 0 7-5.5c.9-.8 1.7-1 1.7-.5 0 .2-1 1.1-3.7 3l-2 1.6c-2 1.7-3 2.1-3 1.4zm-2-1c.3-1.1.6-1.8 1-1.8.3 0 .3 0 0 1.3-.5 1.3-1.2 1.7-1 .4zm30.3-.1.1-.4.6-.2c.2 0 .4 0 .4.3 0 .2-.2.4-.4.5-.6.2-.7.2-.7-.2zm-79.1-3.7L55.9 7c0-2.6.1-3.5.5-3 .2.1.4 1.8.5 4.8.2 5.5 0 7.3-.4 7.3-.3 0-.4-.7-.4-3.5zm67.2 3.2.4-1 .5-1.1c0-.3.3-.5.4-.5.5 0 .3 1.2-.2 2-.5 1-1 1.2-1 .6zM59 15.3v-1.5l.3-5c.1-4.6.2-5 .7-4.6.4.4 0 10.4-.5 11-.3.5-.4.5-.5 0zm38.9 0c-.1-.1.3-1.1 1-2.3 1-1.7 1.1-2 .8-2.4-.3-.3-.2-.5.7-1.4.8-.8 1.2-1 1.7-.8.8.2.9.8.1 1-.3 0-.7.5-1 1-.6 1.4-2.7 5-3 5 0 .2-.2 0-.3 0zm5 0c-.2-.2 1.5-2 2-2l1.2-.6c.8-.5 1.4-.4 1 .1-.3.4-2.5 2.2-3.2 2.5-.7.4-.8.4-1 0zm22.9-.5c0-.1.6-.6 1.4-1.1a9 9 0 0 0 1.6-1.2c.3-.4.7-.4.7 0 0 .5-1 1.4-2.4 2-1.3.7-1.3.7-1.3.3zm-26.2-.2 1-1.3a18 18 0 0 0 1.9-2.4c.8-1.2 1.3-1.7 1.3-1.2a14 14 0 0 1-2.7 3.9c-1.3 1.2-1.5 1.4-1.5 1zm17-.5s0-.4.2-.7c.2-.2.3-.9.3-1.3.1-1 .6-1.2.9-.3.2.8-.5 2.5-1 2.5-.3 0-.5 0-.5-.2zm19.4-.5c-.4-.4-.1-.9.5-.9.8 0 1 .3.6.7-.3.4-.8.5-1 .2zm-.8-1.7c-.2-.4.3-1 1-1.1.3-.1.4 0 .4.3 0 .8-1 1.4-1.4.8zm-26.6-.4c0-.2.5-.6 1.1-1l3.5-2c2.4-1.7 3-2 3-1.2 0 .4-.8 1-3.4 2.4l-2.5 1.5c-1.3.8-1.7.9-1.7.3zm13.1-.5c.3-.8.6-1.1 1-.8.3.4-.2 1.4-.8 1.4-.3 0-.3-.1-.2-.6zm17.3 0c0-.5.7-1.2 1.3-1.2.4 0 .4.8 0 1.3-.5.4-1.3.3-1.3-.2zm-33.3-1.2.4-.7.6-1.4c0-.5.4-1 .6-1 .5-.2.1 2-.6 2.7-.6.7-1 .8-1 .4zm28.8-.3c0-.4.8-1.6 1.1-1.6.5 0 .6.9.1 1.4-.5.5-1.2.7-1.2.2zm30.5.1c-.6-.2-.3-.9.3-.9.4 0 .7.2.7.4 0 .4-.5.7-1 .5zm-48-.4c0-.2.7-.7 1.5-1 .8-.3 2-1 2.6-1.4.7-.5 1.1-.7 1.3-.5.5.5 0 1-2.3 2.1-2.4 1.2-3 1.4-3 .8zm13.3.2c0-.2 1-2 1.2-2 .4 0 1 .4 1 .7 0 .4-1.2 1.4-1.8 1.4l-.4-.1zM0 8.3C0 7.6.1 7 .3 7 .6 7.1.6 8.5.3 9 0 9.3 0 9 0 8.3zM97.2 7c-.1-.7 0-1.2.5-1.2.1 0 .2.4.2 1 0 1-.4 1.2-.7.2zM0 6c0-.2.1-.5.3-.6.1 0 .2.1.2.4 0 .3 0 .6-.2.6S0 6.2 0 6z"/>
</svg>
