<?xml version="1.0" encoding="utf-8"?>
<svg xmlns="http://www.w3.org/2000/svg" xmlns:svg="http://www.w3.org/2000/svg" version="1.1" viewBox="0 0 229 96">
	<title>The rabbits discuss what to do next, in the darkness next to the window.</title>
	<path d="M3.4 95.3c0-.4-.2-.4-1.2-.3-2 .3-2.1 0-2.2-3.5A2432.5 2432.5 0 0 0 .8 2.6c0-.7 0-1 .5-1.4C2.7-.1 3-.2 4.3.2a1481.5 1481.5 0 0 1 58.9.4A7219.1 7219.1 0 0 0 197.3.2a287.2 287.2 0 0 0 20 .1h10.8v.9a11423.2 11423.2 0 0 0-1 93.3c-.5.5-5.3.6-25.3.7A10279.3 10279.3 0 0 1 23.2 95c-4.7 0-18.1.3-19 .5-.6.2-.8.1-.8-.2zm136.8-2.5c.2-.2.4-1.5.4-3.1l.2-2.8h-2.4l-.2 2.7c0 1.5 0 2.9.2 3.2.3.5 1.3.6 1.8 0zm7.5-1.6v-2.1c-.1-.3-.2-.6-.1-.8 0-.2-.3-.4-.9-.4-.8 0-1 .1-1 1l-.3 2.3c0 1.5 0 1.6.6 1.8 1.3.3 1.5 0 1.7-1.8zm-21 1.6c.4-.1.5-.5.5-1.5 0-1.4 0-1.4-.8-1.6-.8 0-1 .3-1 2 0 1.1.4 1.5 1.4 1.1zm17.8 0 .3-2.4c.1-1.6.1-2.2-.1-2.2s-.3.4-.3 1c0 1.3-.2 2.2-.6 2.2-.1 0-.2-.6-.2-1.4 0-2 0-2-.5-2-.3 0-.8-.3-1-.6-.5-.5-.5-.5-.7.7l-.2 3V93h1.6c.9 0 1.6-.1 1.7-.2zm4.6-.1c.4-.4.4-3.3 0-3.5-.3-.3-.5.3-.7 2-.1 1.8 0 2.1.7 1.5zm-33-.7c0-.8-.4-.8-.8 0-.3.5-.8.4-.8-.4 0-.5-.7-1-1.4-1-.3 0-.4.2-.4.8 0 .5-.2.7-.3.7-.2-.1-.3-.6-.3-1s0-.8-.2-.8c-.3 0-.4 1.3-.1 1.8.3.5 1 .6 2.6.5 1.4 0 1.6 0 1.6-.6zm6.4-.4c.2-.6.2-1.1.1-1.2l-2.1-.3-2-.1v1.2c0 1.1 0 1.2.7 1.3l2 .1c1 0 1.1 0 1.3-1zm2.2-.3c.2-1.7 0-2.3-.6-2.3-.7 0-.9.5-.9 2.1 0 1.4.2 1.6.9 1.6.3 0 .5-.3.6-1.4zm4.8-.1c0-1.4 0-1.5-.7-1.5-.6 0-.7 0-.7 1.5l-.1 1.5h1.6zm4 0v-1.7h-2.3V91c0 .8 0 1.5.2 1.6l1.1.2h1zm4-1.1c.2-3.4 0-4.1-.8-4.2-.8-.1-.8-.1-1.2 4.8l-.1 2h1l1-.1zm65 2.4c.5 0 .6-.2.3-.4-.5-.3-1.9-.2-2.5.2-.4.4-.4.4.6.4a8 8 0 0 0 1.7-.2zm-182-.6c.6-.3 1.1-.7 1.1-1 0-.5-.4-.4-1 .2a2 2 0 0 1-1.2.6c-.7 0-1 .3-.8.6.3.2.5.2 1.8-.4zm78.2.2c.7-.3 1.1-1 .8-1.3l-2.5-.3c-1.8-.1-2.3 0-2.3.2 0 .1.8.4 1.6.4 1.3.1 1.4.2 1.3.8 0 .6.2.7 1.1.2zm10.6-.1c.2-.7-.3-1.4-.8-1.4a2 2 0 0 1-1-.4c-.6-.5-1-.3-1 .8 0 1 .5 1.4 1.7 1.4.7 0 1 0 1-.4zm1.5-.6c0-1.2-.2-1.9-.6-1.9 0 0-.2.7-.2 1.5 0 1.1.1 1.4.4 1.4.3 0 .4-.2.4-1zm6.9-.1c0-.7-.1-1.2-.3-1.2-.1 0-.2.5-.2 1.2 0 .6 0 1.1.2 1.1s.3-.5.3-1.1zm17.3-.5c.1-1.5 0-2.2-.3-2-.3.2-.4 3.6-.1 3.6.1 0 .3-.7.4-1.6zm15.8.8c.6-1 .6-1.3 0-1.7-.5-.3-.6-.3-.6.3l-.1 1.4c-.2 1 .1 1 .7 0zm15.2-.1c.2-1.1-.3-1.9-.7-1.2a1 1 0 0 0 0 .8v.9c0 .8.5.5.7-.5zm4.3.2c0-.2.2-.6.5-.9.3-.4.4-.6.1-1.4v-1.2l.2-1c0-.8-.9-3.1-1.3-3.3-.1-.1-.2 7.3 0 8.5 0 .3.5-.3.5-.7zm18-.2c1-1 .8-1.1-.5-.2-1 .7-1.9.7-1.9 0 0-.2.3-.5.5-.7.6-.3.3-.3-.6 0-.6.2-1 1.2-.4 1.7.4.4 2.2 0 3-.8zm9.4.4c1.2-.4 1.8-.8 1.1-.8l-2 .5c-1.8.5-2.3.2-1.9-.9.2-.4.1-.7-.1-1-.4-.3-.4-.5-.1-1 .4-.8.2-.9-1.3-.5-1.2.3-3.6 1.6-3.4 1.8l1.5-.5c1.5-.6 2.4-.5 1.9.2-.2.2-.7.4-1.2.5-.5 0-1.1.4-1.5.7-.7.5-.3.7.6.2.3-.2.7-.2 1-.1.5.2-.1 1-.9 1-.4 0-.4 0 .2.2 1 .3 4.7 0 6.1-.3zm-95.1.2-.8-.6c-.9-.4-1.3-.3-1.3.3 0 .3.3.4 1 .4l1.1-.1zm80-1.5c.3-1.5.3-1.7-.2-2l-1-.4c-.5 0-.5.2-.4 1 .3 1.6.3 1.8 0 2.4 0 .5 0 .6.6.6.8 0 .8 0 1-1.6zm1.8 1.2c0-.5-.6-.4-.8 0 0 .2.1.4.3.4.3 0 .5-.2.5-.4zm23.5-.3c.3-.2.5-.6.4-.9 0-.5-1-.7-1.5-.3-.2.1-.8.4-1.4.5-.6.2-1.2.5-1.4.8-.3.5-.3.5 1.6.4a6 6 0 0 0 2.3-.5zm-43.8-1.3c0-1-.2-1.7-.5-2-.2-.2-.4-.6-.4-.9l-.7-2.2a18 18 0 0 1-.9-4.1l-.3-2.5c-.1 0-.5 0-.8.2-.8.3-1.2 1.2-.8 1.7.2.2.2.5.1.8 0 .3 0 .6.3.8.4.3.4.4.1.9-.3.5-.2.6.2.9.3.2.4.5.3.8l.1.6c.3.3 1.6 4.7 1.6 5.3 0 .4 1 1.5 1.4 1.3.2 0 .3-.7.3-1.6zm16.3 1.2c0-.3-.2-.9-.5-1.3l-.6-.6-.2.6c-.2.6-.4.7-.9.6-.8-.3-.3.4.7.8 1.2.5 1.5.5 1.5-.1zm-147-.6c-.4-.3-1.4 0-1.4.3s1 .5 1.4.2c.2-.1.1-.3 0-.5zm57.7.4c.2-.5-.2-1.3-.6-1.2l-.3.6c-.1.7-.4.7-1-.3-.8-1-1.3-1-1 0 .3 1 .6 1.4 1.7 1.4.8 0 1.1-.2 1.2-.5zm14.3 0c-.2-.2-.5-.4-.6-.2-.1 0 0 .3.2.4.6.4 1 .3.4-.2zm110.8.2V91c-.2 0-.4.1-.5.3l.1.3c.2 0 .4-.2.4-.3zM6.7 91c.3-.5 0-.6-.4-.1-.2.2-.2.4 0 .4l.4-.3zm4.2.1a1 1 0 0 0-.7 0l.3.1h.4zm24.7 0H35c-.2 0-.2.2.1.2.3 0 .5 0 .4-.2zm14 0 .2-.5c0-.3-2.8-.4-3.8-.2-.7.1-.7.5 0 .7.8.2 3.7.2 3.7 0zm164-.5 1.1-7.3c.1-1.1.1-1.3-.3-1.1-.2 0-.4.2-.4.4 0 0-.2.3-.5.3-.5.2-.8 1.3-1.6 5.6-.3 1.3-.3 1.6 0 2.1.7 1 1.5.9 1.7 0zM24 90.9c0-.2-.3-.3-.6-.3-.4 0-.7.1-.7.3 0 .1.3.2.7.2l.6-.2zm6.6-.1c0-.2-.7-.4-1.6-.4-1.5-.1-1.6.1-.2.5 1.4.3 1.9.3 1.8-.1zm62.7 0c.4-.2.2-.7-.4-.7-.4 0-.7.4-.5.8.2.3.4.3 1 0zm10.6 0v-.2c-.2 0-.3.1-.4.3l.1.2c.2 0 .3-.1.3-.2zm57.7 0c0-.3-.1-.5-.2-.5-.4 0-.6.4-.4.7.3.3.6.1.6-.3zm-82.3-.2c-.5-.3-.8-.3-.8 0 0 .1.3.3.6.3.5 0 .5-.1.2-.3zm7.6 0c.5-.3-.3-1.3-1.1-1.3-.6 0-.7 0-.4.6.5.9 1 1.1 1.5.7zm29.5-.1c0-.5-.7-.9-1-.6v.6c.2.5 1 .5 1 0zm84.6.1c.2-.1.4-.8.5-1.5l.3-4.3c.2-2.6.2-3.3-.1-4.3l-.4-1.1.1 1c0 .5 0 1.3-.2 1.8s-.5 1.5-.6 2.4c-.1 1.3-.5 2-.8 1.7l.2-2c.3-1.8.3-2-.1-2.2-.6-.3-.6-1.3 0-1.3.4 0 .4-.4 0-2-.4-1.2-.4-1.2.2-1.9.8-.8.8-1.2.1-2-.5-.5-1.6-.6-1.6-.2 0 .2.2.3.4.3.5 0 1.3.8 1 1 0 .2-.4.3-.8.3-.7 0-.8 0-1 1.5l.1 1.8c.2.2.3.6.2.9-.2.5 0 1.9.6 3.6.1.5 0 .5-.3.2-.2-.2-.4-.7-.5-1.2-.2-.7-.3-.8-.5-.4-.4.7-.2 2 .4 2.7.4.4.7.8.7 1 0 .3.2.5.5.6.3 0 .7.4 1 .7.5.4.6.6.3 1-.2.4-.4.6-.8.5-.5-.2-1 .6-.5.8.2 0 .3.3.3.5 0 .4.7.5 1.3.1zm14-.2c.4-.3.4-.4 0-.3-.3 0-.6.2-.7.4-.1.5.4.4.8 0zm7.3-1.9c.3-.3.4-.6.3-.7-.1-.2-1.7 2.2-1.7 2.6 0 .2.2 0 .4-.5l1-1.4zm-203.4 1c0-.8-.8-1.8-1.3-1.8-.3 0-.2 2.2 0 2.5l.7.1c.5 0 .6-.1.6-.8zm165.5 0c0-.4 0-1 .3-1.5.2-.7.2-1 0-1.2-.2-.1-.4-.2-.5-.1-.2.2-.6 3.2-.5 3.4.3.4.7 0 .7-.7zm13.5.6c.3 0 .4-.2.3-.3-.1-.3-1.4-.4-2-.1-.8.3-.5.7.4.5l1.3-.1zM7.2 89.8c.1-.1.5-.3.8-.3.8 0 .9-.4.2-.6-.6-.2-.5-1 .1-1.5.5-.4.5-1.4 0-1.8-.7-.6-1 0-.9 1.4 0 1 0 1.6-.4 2-.5.5-.6 1-.2 1 .1 0 .3 0 .4-.2zm9.1-1.2c0-.9-.2-1-.7-1.1-.5-.1-.6 0-.6 1 0 .7.2 1 .5 1.3.6.3.9 0 .8-1.2zM26.9 90s-.1-.3-.4-.5c-.3-.2-.4-.2-.4.1 0 .3.2.5.4.5l.4-.1zm76.3-.3c-.3-.2-.4-.2-.7 0-.2.3-.1.4.4.4s.5-.1.3-.4zm2.8 0c0-.2-.7-.6-1-.3-.2.2.2.7.7.7.2 0 .3-.2.3-.3zm-92.3-.6v-.6l-.5.5-.6.7.6.1c.4 0 .5-.2.5-.7zm23.7-.2c0-.2-.4-.3-.7-.4-.5 0-.7 0-.8.5v.6c.2.3 1.6-.4 1.5-.7zm60.8.6-.5-.2c-.2 0-.4 0-.4.2s.3.3.6.3.4-.1.3-.3zm10.8-.3c-.2-.2-.4-.2-.5 0-.1 0 0 .2.2.3.5.3.7.1.3-.3zm102 .1c0-.2 0-.3-.3-.3-.2 0-.4.2-.4.4 0 .5.6.4.7 0zm-199.7.1-.2-.3c-.2 0-.3 0-.3.2 0 .1.1.2.3.2h.2zm13.5 0c0-.5-1-1.2-1.5-1.2-.7 0-.9 1-.1 1.2.7.1 1.6.2 1.6 0zm10 0c0-.4-.3-1-.6-1-.4 0-.5.6-.2 1 .2.2.9.2.9 0zm137.7-.4c0-.5-.1-.5-.3-.3-.2.1-.3.4-.2.5.3.5.5.4.5-.2zm15.3-.9c1.2-1 1.8-1.6 2-2.2.2-1.3-.2-1.7-1-1-.3.4-1.2.9-1.8 1.2-.8.3-1.3.7-1.4 1-.2.7 0 .7 1 .2 1-.5 1.7 0 .8.5-1 .6-1.7 1.3-1.7 1.5 0 .4.4.2 2-1.2zm28.4 1c.2-.4.1-.4-.2-.1-.5.4-.5.5-.2.5l.4-.4zm3.2-2c.5-.7 1-1.4.8-1.5-.2-.2 0-.3-1.5 1.8-.7 1-1.3 1.8-1.3 2a264.2 264.2 0 0 1 2-2.3zm-179.2 2c0-.5-.7-1.2-1.1-1.2-.4 0-.5.2-.5.7 0 .6.1.7.8.7l.8-.2zm138-.4c0-.7-1.2-3.5-1.5-3.3v1.4c0 1.7 1.6 3.5 1.6 1.9zm25.2.2c1.2-.6 1-1.3-.2-1.2-.9.1-1 .2-1 .8-.2.9 0 1 1.2.4zm-182-.2c0-.1-.1-.2-.3-.2l-.3.2c0 .2.2.3.3.3.2 0 .3-.1.3-.3zm9-.6c-.1-1-.4-1.2-1.4-1.2-.8 0-1 .3-.5 1.4.2.6.4.7 1.1.7.8-.1.9-.2.8-1zm2 .6c0-.4-.4-1.3-.7-1.3-.3 0-.4 1.2 0 1.4.2.3.8.2.8 0zm89.5 0c-.5-.3-.8-.3-.8 0 0 .2.3.3.6.3.5 0 .5 0 .2-.3zm37.3-.2c0-.2-.2-.2-.4-.1-.2 0-.3.2-.2.4.2.3.6 0 .6-.3zm1.7.3V88c-.1-.3-.2-.4-.5-.1-.2.1-.4.4-.4.6 0 .4.7.5 1 .2zm-117.8-.5c0-.2-.3-.4-1-.4-.6 0-.9.2-.9.4 0 .3.3.4 1 .4.6 0 .9 0 .9-.4zm3.3.3c.6-.3.5-1-.3-1-1.3 0-2 .7-.8 1l.6.1.5-.1zm2.4-.6c.1-.4 0-.6-.4-.6s-.6.2-.6.5c0 1 .9 1 1 0zm71 .5c0-.2-.6-.6-1-.6-.2 0-.3.2-.3.4 0 .3.2.4.6.4.4 0 .7 0 .7-.2zm47.6-.7c.5-1.3.2-7-.4-8.7-.2-.7-.5-1.2-.6-1.1a58.4 58.4 0 0 0 .2 9.5c0 1.5.4 1.6.8.3zm50-2.4a63 63 0 0 0 1-5c0-.5 0-.5-1-.5-1.1 0-1.1 0-1.5 1.3l-.5 2.7c-.1 1.4-.1 1.5.4 1.3.4-.1.6 0 .7.2.3.6-.3 1.5-1 1.6-.6.2-.7.4-.7 1v.9l1.1-1.2c.8-.8 1.3-1.4 1.5-2.3zM76.4 88c-.3-.3-2.4-.9-2-.6a6 6 0 0 0 2 1c.3 0 .3 0 0-.4zm23.5 0c0-.3 0-.7-.3-.9-.4-.3-.5-.4-1-.1-.3.2-.5.2-.8 0l.3.5c.6 1 1.5 1.2 1.8.5zm16.6-.2a43.2 43.2 0 0 0 0-6.7c-.8-.3-1 .3-1.1 3.8-.2 3.4-.2 3.5.4 3.5.4 0 .6-.2.7-.6zm1.4-2v-2.8l-.3 1.3a1227.3 1227.3 0 0 1-.2 4l.5-2.5zm8.9 2.3c.4-.1.7-.4.7-.7 0-.3-.1-.3-.2-.1-.3.8-.6.1-.6-1.5 0-1.2-.1-1.7-.4-1.6-.3.1-.8 3.2-.6 3.8.2.4.2.4 1 .1zm2.9 0 .2-2.4c0-2.2 0-2.2-.6-2.2-.8 0-1 .6-1 3 0 1.8 0 1.9.6 1.9l.8-.2zm60.2-.3c0-.2-.2-.1-.4 0l-.4.5h.4l.4-.5zm-162.5-2-.3-2-1-.1-.8-.1.1 1.2c.1 1.2 1.7 3.5 2 3.1.2-.1.2-1 0-2.2zm24 2.2c.6-.3.5-.9-.3-1-.9-.2-1.3.1-1 .7.1.4.6.5 1.3.3zm20.2-.7c0-.5-.7-1-1.1-.5-.2.1-.1.4 0 .6.5.6 1.1.6 1.1 0zm2.2.3c0-.2-.2-.3-.3-.3-.2 0-.2.1-.1.3l.2.2c.1 0 .2 0 .2-.2zm22.7-.1c0-.3 0-.4-.2-.4s-.5-.2-.7-.5c-.6-.6-.8-.2-.3.6.5.7 1.2.9 1.2.3zm9 0s-.1-.2-.3-.2c-.1 0-.2.1-.2.3l.2.2c.2 0 .3 0 .3-.2zm18.6-2.4V83c-.3 0-.6 2.1-.6 3.8 0 2.2.5 1 .6-1.5zm1 .7c0-2-.2-1.7-.4.5 0 1.1 0 1.6.1 1.3.2-.2.3-1 .3-1.8zm7.5 1.5.3-2.4c.1-1.8.1-1.8-.5-1.8-.4 0-.7 0-.8.2l-.3 2.4-.2 2.1h.7c.5 0 .7-.1.8-.5zm65 .4a1 1 0 0 0-.6 0l.3.1c.4 0 .5 0 .4-.1zM54 87.4c.2-.6-.7-2.4-1.2-2.7-.4-.2-.5-.1-.5.6 0 1.6.3 2.4 1 2.4.3 0 .6-.2.7-.3zm15.3 0c0-.3-.6-.6-.7-.4-.2.2.1.7.4.7.2 0 .3-.1.3-.3zm44.2-2.6V82l-.4.1c-.4.2-.4.6-.4 3 0 2 0 2.7.3 2.7s.4-.7.5-2.9zm9.3 1.7c.4-3.1.2-4-1.1-3.7-.5.2-.5.4-.6 2.3v2.4l.8.2c.7 0 .8-.1 1-1.2zm11.2.5.2-.8.3.8c.1.4.4.6.5.5.3-.3.2-1.3-.2-1.6-.2-.2-.2-.4 0-.7.3-.3.3-.5 0-.8-.3-.3-.4-.7-.3-.9.1-.3-.6-.5-.8-.1-.3.5-.5 4.3-.2 4.3.1 0 .4-.3.5-.7zM4.9 85c-.3-4.8-.5-7.3-.8-6.8-.3.6-.3 6.4 0 6.8.2.2.4.8.5 1.3.2 1.7.4 1.2.3-1.3zm6.4 1.6c0-.5 0-.6-.3-.4-.1.2-.2.5-.1.7.2.6.4.5.4-.3zm10.2-1c0-1.6-.5-2-1-1.3-.4.5-.6 2.5-.3 2.8h.7c.5-.2.6-.4.6-1.6zM56 87.1c0-.3-.7-1-1-.8-.2.3.2 1 .6 1 .3 0 .4 0 .4-.2zm48.2-.1c0-.4-.8-.9-1-.6-.2.2.4 1 .8 1l.2-.4zm70-1c-.7-1.6-1-2.7-.4-2.2l.6.3s.2-2 .2-4.6c0-4 0-4.6-.4-4.6-.3 0-.4.2-.4.8 0 .8-.6 1.3-1.1.8-.2-.2-.2-.4.1-1 .4-.5.5-.8.2-2.8-.6-4.1-.8-7.5-1-12.6a116.7 116.7 0 0 1 .6-17.7l.1-2-.5 1.7c-.3 1-.7 2-1 2.4-.4.9-.4 2.9 0 14l.3 12.2c0 2.2.1 3 .4 3.1.3.2.3.8.2 3.2l-.1 3 .7 1c.5.4.8 1 .8 1.4 0 .7-.4 1-.7.4-.2-.4-.6-.3-.6.3 0 .7 2.1 4.2 2.5 4.2l-.5-1.4zm8 .5c0-.4-.1-1-.3-1.3-.2-.3-.2-.7.2-1.7.4-1.4.6-5.8.2-6-.7-.5-1 1-1.3 5-.1 4-.1 4.2.3 4.5.8.5 1 .4 1-.5zm-108 .3c-.1-.2-.3-.3-.5-.3 0 0-.2.1-.2.3 0 .1.2.3.4.3s.3-.2.3-.3zm33.4-.3c0-.4 0-1.1.2-1.8.2-1.3 0-2.1-.5-1.7l-.4 2.2c-.1 1.6 0 1.9.3 1.9.2 0 .4-.3.4-.6zm3.3-1.2c.2-1.7 0-2.2-.3-2.2s-.7 3.3-.5 3.7c.4.6.6.1.8-1.5zm9.1-.8c0-2.5 0-2.5-.5-2.4-.6 0-.6.2-.8 2.2-.3 2.5-.2 2.8.6 2.7.6 0 .6-.2.7-2.5zm87.3.6c-.1-.5-.1-.4-.2.2 0 .3-.1.7-.3.8l-.2.6c0 .3.1.2.4-.3.2-.4.4-1 .3-1.3zM23.6 86.4l-.7-.6-.2.6c0 .4.2.5.7.5.7 0 .7 0 .2-.5zm67.7-.4c-.2-.5-.9-.6-.9 0 0 .4.6 1 .9.7V86zm14.7.4c0-.2 0-.3-.2-.3s-.3.1-.3.3c0 .1.1.2.3.2.1 0 .2 0 .2-.2zm3.5-1.5c0-1-.1-1.4-.4-1.4-.6 0-1 2.2-.4 2.8.6.5.8 0 .8-1.4zm2.3.7-.2.4c0 .4.1.6.2.4v-.8zm-98.7 0a2 2 0 0 0-.3-1.1c-.4-.6-.4-.6-.4.6 0 1 0 1.3.3 1.2.2 0 .4-.4.4-.7zm21.4.3c.2-.9-.3-2-1-2s-.7.2-.7 1l.1 1.3c.4.4 1.4.1 1.6-.3zm2.1 0c.2-.4-.3-1.7-.6-1.7-.4 0-.6 1-.4 1.6.1.7.8.7 1 .1zm52.7 0c0-.3-.3-.5-.7-.5-.6-.1-.7.2-.2.6.4.5 1 .4 1-.1zm-73-1.2c0-1.2-.4-1.2-1 0-.3.6-.3.7.1 1 .7.5 1 .3 1-1zm44.5 1c0-.9-.8-1.7-1.5-1.7-.9 0-.8.6.2 1.4 1 .8 1.3.9 1.3.2zM180.2 84l.3-3.4c.2-1.6-.2-2-1-1.1-.9.8-1 1.6-.2 1.4.4-.1.6 0 .6.2 0 .3-.3.7-.6 1.1-.3.4-.5 1-.5 1.3 0 .8.7 2.6 1 2.6.2 0 .4-1 .4-2zm23.9 1.7c.4 0 .5-.2.4-1.2 0-1.3-1-5-1.4-5a89.6 89.6 0 0 1-.3 2.7l.1 1.4c.4.3.3 1.7-.2 1.7-.2 0-.4.2-.4.4 0 .4.2.4.6.3l1.2-.3zm2.2-1.2a6 6 0 0 0-.2-1c-.2-.7-.2-.6-.4.3l-.3 1.8-.2.6.6-.6.5-1zM30 85.5l-.7-.5c-.8-.3-.8-.6 0-1.2.4-.5.5-.7.3-2.4s-.3-2-.8-2c-1-.3-1.2.1-1 2l.1 2.4c0 1.4.4 2 1.3 2 .4 0 .8 0 .8-.2zm1.6 0-.3-.3c-.1-.1-.2 0-.2.2s0 .4.2.4.3 0 .3-.2zm19.5-1c-.3-1.1-1.6-2-2-1.4-.5.4.3 1.7 1.2 2.3 1 .5 1.2.2.8-1zm7.2 1.2c0-.4-1.2-1.5-1.6-1.5-.6 0-.7.8-.2 1.3.4.3 1.8.5 1.8.2zm28.2-.4c-.2-.3-1-.3-1 0s.6.5 1 .3v-.3zm15.7-.8c0-1.6-.5-1.7-.8-.2-.2 1-.1 1.5.4 1.5.3 0 .4-.3.4-1.3zm90.3-1v-.9l-.9.5c-1 .6-1.2 1.2-.7 2l.3.7.6-.6c.5-.4.7-.9.7-1.6zM84 85.4c0-.3-1-.6-1.3-.4-.2.2.5.7 1 .7.1 0 .3-.1.3-.3zm43.6-1.4c-.1-.3-.2 0-.2.6 0 .7.1 1 .2.6v-1.2zm56.4 1.4c.5.7.8-.3.7-2.1 0-1 0-2.4.2-3.3v-1.5c-.4 0-1.7 4-1.8 5.7-.2 1.4-.1 1.5.2 1.2.4-.3.5-.3.7 0zm35-.2c.3-.5.2-1.7 0-2.1-.2-.3-.4 0-.6.8l-.3 1.5c0 .4.7.3 1-.2zM10 83.3c-.1-.8-.3-1.4-.4-1.3-.2.2 0 2.8.2 3.2.3.4.4-.4.2-2zM178 85c0-.1-.1-.2-.3-.2-.1 0-.2 0 0 .2 0 .2.1.3.2.3l.1-.3zm9.2-.2c.5-.4.6-.8.8-3l.1-2.7-1 1c-1.2 1.4-1.4 2-1.4 3.8 0 1.2 0 1.4.5 1.4a2 2 0 0 0 1-.5zm-162.7-.3c0-.6-.6-.7-1.3-.3-.3.3-.3.3 0 .6.7.4 1.3.3 1.3-.3zm38.1-.2c0-.3 0-.6-.2-.6-.4 0-.9.8-.7 1 .3.5.8.2.9-.4zm18.4-.1c-.2-1.3-.8-2-1.6-2-.7 0-.8.2-.2 1.3.6 1.3 1 1.5 1.5 1.5.4 0 .5 0 .3-.8zm14.2.2c0-.5-.1-.7-.5-.7-.3 0-.6.1-.7.3-.3.5 0 1 .7 1 .4 0 .5-.1.5-.6zm2.6 0c-.1-.2-.2 0-.2.2 0 .3 0 .5.1.4v-.5zm6.3.4-.1-.6c-.2-.2-.4-1-.4-1.7v-1.3l-.3 1.5c-.2 1.6-.1 2.3.3 2.3.2 0 .4 0 .5-.2zm33.3 0c-.1-.2-.4-.3-.7-.3-.3 0-.5.1-.5.3 0 .1.3.2.7.2.4 0 .6 0 .5-.2zm3-.2h-1c-.6 0-.8 0-.6.1.3.2 1.6.1 1.6 0zm-40-.8c0-.6 0-.6-.8-.6-1 .1-1.2.6-.3 1.1 1 .5 1.2.4 1.2-.5zm6-.7c.1-1.1 0-1.8-.1-2.2a3 3 0 0 1-.2-1.6c.1-.6 0-.9-.1-.8-.4.1-.7 2.1-.7 4.6 0 1.5 0 1.7.4 1.6.4 0 .5-.5.7-1.6zM19 84c.4-.4-.1-.8-.9-.7-.4 0-.7.2-.7.6-.1.6 0 .6.6.5a3 3 0 0 0 1-.4zm176-.6c.1-.6 0-.7-.3-.7s-.4.2-.4 1c0 1 .4.9.7-.3zm27.8.1c.1-.2 0-.6-.1-.9-.5-.7-.4-1.2.2-1.5.4-.3.5-.6.5-1.6l-.2-1.7-.2-.6-.2.6c-.7 2.3-1 4.3-.9 5v1c-.2.1-.3.3-.3.5 0 .4 1-.3 1.2-.8zM42 83.7c0-.2-.2-.3-.4-.4-.6-.2-.5-1 .2-1 .4 0 .5 0 .4-.5 0-.4-.3-.6-1-.8-1.3-.3-1.7 0-1.5.9.2 1 1.5 2.4 2 2.2.2-.1.3-.3.3-.4zm25.4.3c0-.3-.3-.5-.6-.4-.2.2 0 .6.4.6.1 0 .2 0 .2-.2zm-56.3-4.4c0-3-.2-4.4-.5-5-.3-.7-.3-.4-.2 2.9.3 7.3.8 9 .7 2zm59 3.8c-.2-1.9-.7-3.6-1-3.4 0 .2-.5.3-.8.3-.9 0-.8.8 0 1.5.6.5.7.6.4 1.1-.3.7-.2 1 .7 1 .5-.1.8-.2.7-.5zm3.7 0c0-.7-.8-2-1.3-2-.3 0-.3.1-.2.6 0 .3 0 .8-.3 1-.5.8-.4 1 .7 1 .9 0 1-.1 1-.5zm4.5.3-.6-.8c-.9-.9-1.4-.5-.8.6.3.5 1.4.7 1.4.2zm10 .1c.2 0 .1-.5 0-1-.2-.4-.4-.7-.7-.6l-.6.2c-.2 0-.3.2-.3.5 0 .7 1.3 1.3 1.7 1zm2.2-.4c-1.6-6-1.5-5.5-1.1-5.5l.9 1.4.6 1.4v-1.3c0-2-.2-2.6-.8-2.4l-1.6.3c-.7 0-1 .2-.9.5l.7 2.2c1 3.2 1.4 4 1.8 4 .3-.1.4-.4.4-.6zM21 83.1c.7-.7.9-1.5.2-1.5-.2 0-.4.2-.4.4s-.1.5-.4.7c-.3.3-.5 1-.2 1l.8-.6zm26.8.1c0-.5-.4-1-.8-1-.3 0-.3 1 0 1.3.3.4.8.2.8-.3zm35.2.3c.5-.3 0-1-.8-1.2-.6-.1-.7.6-.2 1.1.4.4.5.4 1 0zm2.7-.1-.3-.7c-.2-.2-.5-.3-.7-.3-.5 0-.4.7.1 1 .6.4.9.4.9 0zm135 0c.4-.5 0-.6-.6-.1-.4.4-.4.4 0 .4.3 0 .6-.1.6-.3zm-158.4-.9c-.2-.4-1.8-.5-1.8 0 0 .3 1.7 1 1.8.7v-.7zm13.4.7c.1-.1 0-.5-.4-1-.7-.9-1.3-.4-.6.6.5.7.8.8 1 .4zm114-.1c.4-.5.7-5.7.3-5.7-.7 0-1.1 1.2-1.2 3.6 0 2.5.1 3 .8 2zm22.5-.2.2-1.7c0-.9-.2-1.2-1-2-.7-.8-.9-.8-.9-.4v.8l.4 1.7c.3 2 1 2.8 1.3 1.6zm-59.5-1c.3-2 .2-2.6-.5-3.1-.9-.6-1-.3-1.3 1.7-.1 1.4 0 1.7.4 2.2.8.7 1.1.5 1.4-.7zm1.3 1V82c0-.4-.2-.7-.3-.7-.2 0-.3.5-.3 1s.1.9.3.8c.1 0 .3-.1.3-.3zm43.3-2.4-.2-2c-.1-.5-.2.4-.2 2 0 1.7 0 2.6.2 2.2l.2-2.2zM8.7 82.2c0-.2-.2-.3-.4-.3-.4 0-.6.5-.3.8.3.3.7 0 .7-.5zm30 .3c.3-.6-.3-1.7-1-1.7-.3 0-.5.2-.5.7 0 1.2 1.2 2 1.5 1zm6.8-.1c0-.6-.8-1-1.6-1s-.7 1 0 1.2c1 .5 1.6.4 1.6-.2zm8 .1c.1-.2.4-.4.6-.4.4 0 .4-.5 0-1.4-.1-.6-.3-.7-1.2-.7-1.1 0-1.1 0-1.1 1 0 .8.2 1.2.6 1.5.7.5 1 .5 1.2 0zm2.8.2-.4-.8-.4-.7v.9c0 .6.1.8.4.8.2 0 .4 0 .4-.2zm3.2 0c0-.7-.9-1.8-1.4-2-.4 0-.9-.2-1.1-.3-.6-.2-.6.4 0 1.6.4.8.6 1 1.5 1 .5 0 1-.2 1-.4zm-25.4-1c0-1-.5-1.4-1.4-1.4-.9 0-1.1.3-.9 1.3.2.7.3.8 1.2.8 1 0 1 0 1-.7zm2 .3c0-.6-.2-1.2-.6-1.2-.4 0-.5 1-.2 1.4.3.3.9.2.9-.2zm28.4-.2c0-.7-.9-1.8-1.5-1.8-.7 0-.4 1 .5 1.4.5.2.7.4.6.6l.1.4c.2 0 .3-.3.3-.6zm32.3 0c.3-.6 0-1.5-.4-1.5-.5 0-.8.6-.6 1.4.2.8.6.9 1 .2zm3.8-.5c0-.9 0-.9-1-.9s-1.1 0-1.1.8c0 1.1 0 1.2 1.1 1.1 1 0 1 0 1-1zm91.1.8c1-.3 1.1-.8.3-.8-.4 0-.8-.1-1-.3-.2-.2-.3-.1-.3.5l.1.9 1-.3zM16 82c.6-.3.6-2.4 0-2.6-1-.4-1.1-.2-1.1 1.3s.1 1.7 1.1 1.3zm3-.5v-1.3c0-.7 0-.7-.8-.7-.7.1-.8.2-1 1 0 1.2.2 1.6 1 1.6.4 0 .6-.2.7-.6zm8-.7c0-1.3 0-1.3-.7-1.3-.9 0-1.1.4-1 1.8.2.7.3.8 1 .8s.7 0 .7-1.3zm24.1.6c0-1.1-.3-1.4-1.3-1.3-.8 0-1 .1-1 .7 0 .5.3.7 1 1 1.3.4 1.3.4 1.3-.4zm15.6-.1c-.1-1-1-1.5-1-.5 0 .8.2 1.3.7 1.3.2 0 .3-.2.3-.8zm28.6.2c0-1-.3-1.5-.8-1.5-.4 0-.5.2-.5 1 0 1 0 1.1.6 1.1s.7-.1.7-.6zm7.4-.2-.1-.8-.5-.1c-.4-.1-.5 0-.5.6 0 .9.2 1.1.7 1.1.3 0 .4-.3.4-.8zm47.7-.7c.1-1.6-.1-2.5-.7-2.4-.4.2-.6 3.4-.1 3.7.6.4.7.3.8-1.3zm-125.8.5c0-1-.2-1.6-.6-1.6-.3 0-.5-.2-.6-.4-.2-.6-.6-.2-.6.7 0 .9.9 2 1.5 2 .2 0 .3-.2.3-.7zM170.3 80c-.3-.7-.4-1.6-.4-1.8.3-.7-.3-1.6-.9-1.6-.4 0-.5.1-.5.7s0 .6.2.1c.2-1.2.6-.5.6 1 0 1.4.1 1.8.7 2.6 1 1.2 1 .7.3-1zM108 81.3c.4-1.4.3-3.7-.2-2.5-.3 1-.5 2.8-.2 2.8.2 0 .4-.1.4-.3zm40.4-1.7c0-1.6 0-1.7-.7-2-1-.3-1-.1-1.3 1.6-.1 1.6 0 2 .8 2.2 1 .2 1.2 0 1.2-1.8zm-71.5 1.3c0-.2-.1-.4-.4-.4-.4 0-.5.4-.2.7.3.3.6.2.6-.3zm10.6 0c0-.8-.3-1.2-1-1.2-.8 0-1 .4-.7 1.2.2.6 1.7.6 1.7 0zm5.4-4.3c-.1-.1-.5-.1-.8 0-.6.2-.6.3-.4 1.9 0 1.2.3 1.8.7 2.2l.5.5.1-2.2a8 8 0 0 0-.1-2.4zm12 3c.3-2.7.3-2.9-.3-2.9-.4 0-.5.2-.5.6a795.6 795.6 0 0 1 .3 4c.1 0 .3-.7.4-1.6zm4.7 1.4.3-1.6c.1-1.2.1-1.3-.3-1.2-.4 0-.5.4-.7 1.5v1.5c.2.2.6.1.7-.2zm10.6 0c.3-.4 0-.5-.7 0l-.6.3h.6c.3 0 .6 0 .7-.2zm99.8-1.7c.2-1.7-.3-2-.5-.3l-.4 1.8c-.1.6-.1.6.3.3.2-.3.5-1 .6-1.8zm-97.2 1.2c.5-.5.5-.5-.4-.5-.8 0-1 .1-1 .5s.2.6.5.6c.2 0 .7-.3 1-.6zm21-1.7c0-2 0-2.1-.7-2.2-.9-.1-1.3.6-1.3 2 0 1.6.4 2.5 1.3 2.4.6 0 .6-.1.6-2.2zm1.8 1.8c.3-1.1.2-3.5-.2-4l-.6-.3c-.1.2-.3 4.5-.2 4.6.3.3.8.1 1-.3zm19.5-.5a8 8 0 0 0-.7-5.5l-.7-1.2c0-.2-.1-.3-.2-.3-.5 0-.3 1.3.2 1.6.3.2.6.4.6.6 0 .2.1.7.4 1.1.5 1 .3 1.5-.6 1.5l-.8.2c-.1.3 1 3 1.2 3l.6-1zm-117.8.3c0-.5-.4-.7-.8-.5-.2.1-.2.3 0 .5.4.5.8.5.8 0zm37.2-.7c-.2-1.3-.8-2.3-1.3-2.3-.7 0-.8.5-.3 1.2l.4 1.2c0 .8.2 1 .9 1 .4 0 .5-.1.3-1.1zM176 77c.1-2.1.1-2.9-.1-2.7a13 13 0 0 0-.4 3.5c-.2 4 .2 3.3.5-.8zm1.5 2.2c0-.7-.5-2-.5-1.4l-.3 1.4c-.1.7-.2 1.3 0 1.4.2.4.8-.6.8-1.4zm37.7.3c-.3-.2-.4.1-.2.8l.2.6v-.6c.1-.3 0-.7 0-.8zm-154.1.9c0-.3-.9-1.2-1.1-1.2-.4 0-.3.6.2 1s.9.4.9.2zm21.1-.1c0-.2-.1-.3-.4-.3-.2 0-.4.1-.4.3l.4.2c.3 0 .4 0 .4-.2zm110.3 0c.4 0 .5-2.3 0-2.5-.5-.4-1.5.6-1.6 1.5-.1 1.2 0 1.2.7 1.1h.9zM45 79.6c0-.3-.3-.5-.6-.6-.4 0-.6-.2-.6-.4s-.2-.5-.4-.5c-.3-.1-.4 0-.5.5v1c0 .3 1.2.7 1.8.6.1 0 .3-.3.3-.6zm66.2-.6c0-.5 0-.8-.2-.7-.3.4-.6 1.6-.4 1.8.4.3.6-.2.6-1zm2.4.7-.4-.2c-.4 0-.5.3-.2.6.2.2.6 0 .6-.4zm11.4.3c0-.1-.2-.3-.4-.3s-.4.2-.4.3c0 .2.2.3.4.3s.4-.1.4-.3zm80.5-2.8c0-2 0-2.4-.5-3.2l-1-1.1c-.4-.3-.4-.2-.4 1 0 1.3.8 5.6 1.2 6.2.3.5.6-.6.7-2.9zm-18.4 1.6c1.1-1.1 1.1-1.2 1.2-3.1v-2.9c.2-1.3 0-1.7-.9-2-.6-.2-.8-.4-.7-.8.1-.5.3-.5 1-.2h.5c0-.2-.3-.4-.6-.5-.4 0-.7-.3-.7-.6s.2-.4.8-.2c.8.1 1-.3.5-.9-.3-.2-.3-.4 0-1 .4-.6.2-2.5-.2-2.5l-1 .6-.9.5v3.3c0 3.2 0 3.3.6 3.2.8 0 .9.6.1.9-1 .4-1.2 1.8-.1 1.5.7-.3.6.4-.6 3.1-.3.8-.6 2.8-.3 2.8.1 0 .7-.5 1.3-1.2zM69 79.6c0-.3-.6-1.2-.8-1.2-.3 0-.4.9 0 1.2.1.2.8.2.8 0zm61-.4.4-4.5c.3-3.6.3-3.8-.2-4.1-.2-.2-.6-.3-.7-.3-.4.1-1.5 5.6-1.4 6.8 0 1.2.5 1.3 1 .3.4-1 .8-1.4.6-.5-.3 1.6-.4 2.8-.1 2.8.1 0 .3-.2.4-.5zm11 0 .2-1.5c0-1 0-1-1-1.2h-1.4c-.1 0-.2.7-.2 1.5 0 1.5 0 1.5 1.8 1.7.1 0 .4-.2.6-.5zm-100.3 0c0-.2-1-.6-1.2-.4-.1 0-.1.2 0 .4.2.3 1.2.4 1.2 0zm62 0 .3-1.4.2-1.2h-1c-1 0-1 0-1 1.1 0 .6.2 1.3.4 1.5.4.3 1 .4 1 0zm30.5-1c.1-1.3.1-1.3-.8-1.4-.6 0-.8-.2-.8-.6l.3-4.9c-.3.2-1 7.7-.8 8l.4-.4c.2-.3.3-.3.5.1.5 1 1.2.5 1.2-.9zm2.2 1c.2 0 .3-.6.2-1.3 0-1-.2-1.2-.6-1.3-.6-.1-.9.4-1 1.8 0 1.1.5 1.4 1.4.9zm2.3-1.4c.1-1.5 0-1.5-.5-1.4-.5 0-.6.2-.7 1.3-.2 1.3 0 1.9.8 1.7.3 0 .4-.5.4-1.6zm46.3.2c.4-1.6.4-2-.3-1.4-.4.3-.6 2.9-.3 2.9l.6-1.5zm-148.3.6c0-.5-.2-.7-.4-.7-.4 0-.6.8-.3 1.1.4.4.7.2.7-.4zm2.3.2c-.1-.6-1.3-.8-1.3-.3s.3.7.9.7c.3 0 .5-.1.4-.4zm49 .2c0-.9-.6-1.6-1.2-1.6s-.7 0-.7.7l.2 1c.3.2 1.7.2 1.7-.1zm8-1.4c0-1.1-.1-1.3-.5-1.2-.6 0-.9 2.2-.3 2.6.5.3.7 0 .7-1.4zm5.7.5c0-.6 0-1.3-.3-1.7-.3-.4-.3-.7-.2-.8.2 0 .3-.5.3-1 0-.7 0-.7-.9-.6-.7 0-.8.2-.9.7a68.5 68.5 0 0 1-.2 4.3l1.1.2c1-.1 1-.2 1.1-1.1zm95.5-.2c0-.8 0-.9-.2-.3-.3 1-.3 1.7 0 1.5.1-.1.3-.6.2-1.2zM58 78.8c0-.5-.5-1-1.4-1.3-1.2-.5-1.3-.5-1.3 0 0 .7 1 1.5 1.9 1.5l.8-.2zm39.4-.5c.4-1 .3-3 0-3.2-.2 0-.6 0-1 .3-.5.3-.6.6-.6 2 0 1.5 0 1.6.7 1.6.5 0 .7-.2 1-.7zm105.4-2.4c.3-3-.1-4.2-.8-2.7l-.3.6v-.6c0-.4-.2-.6-.5-.6s-.4.2-.3 1.1c.1.6.3 1.2.5 1.2.1 0 .3.6.3 1.3 0 .6 0 1.5.3 2 .2.7.3.8.5.3l.3-2.6zm7.2 1c.2-2.5 0-3.2-.8-3.2-.5 0-.7.1-.7.5 0 1-.6.4-.7-.6 0-1-.4-1.3-.7-.6-.3.9-.1 1.6.6 2.5 1 1.1 1.6 2.5 1.6 3 0 .3.1.4.3.3l.4-2zM47 78.2c0-.2-.1-.4-.4-.4-.6 0-.4.5.4.8v-.4zm1.8-.3c-.3-.3-.5.1-.3.5.2.2.2.2.3 0V78zm30.3.4c.7-.5.3-1.2-.6-1.4-.7 0-.9 0-1 .6-.2.3-.2.7-.2.8.3.4 1.3.3 1.8 0zm100.7-.4c.6-.5.9-1 .9-1.5 0-1-.3-.8-1.4.7-1.2 1.6-1 2 .5.8zm39.3-1.6c.2-1 .1-1.1-.3-1.2-.4-.1-.6-.5-.7-1.6-.2-1.2-.3-1.3-.4-.7-.2.8.3 5 .7 5.6.2.3.4-.3.7-2.1zM13.6 78.1c.1-.4-.3-1.8-.6-1.8-.2 0-.3.8-.1 1.8 0 .4.5.4.7 0zm2.7-.5c0-.7-1.3-2.4-1.6-2-.2.3.4 1.8.9 2.5.4.4.7.2.7-.5zm15.3.4c.2.6 2 .6 1.9 0 0-.4-.5-.6-1.4-.7-1.4-.3-2 0-1.6.7.1.5.2.5.5 0 .4-.5.4-.5.6 0zm22.2 0c.2-.5-.4-2.2-.8-2.2-.3 0-.3.2-.2.8 0 .4 0 1-.2 1.1-.1.2-.2.5 0 .5.2.4 1 .2 1.2-.2zm22.3.2c0-.3-.8-.6-1-.5l.1.4c.2.4 1 .4 1 0zm5.6-.2c0-.3-.7-.9-1.2-.9l-.1.7c0 .5.1.6.6.6.4 0 .7-.1.7-.4zm113.4-.8c-.3-.3-.5.1-.3.7l.3.7v-1.4zm-176.6.4c.4 0 .5-.1.4-1 0-.8-.2-1-.7-1-.7-.1-1 .3-1 1.4 0 1 .2 1.3.6.9l.7-.3zm11 .1c0-.5-1.2-.8-1.6-.4-.4.4 0 .9 1 .9.5 0 .7-.1.6-.5zm91.2-1.3a245.3 245.3 0 0 1 .6-5l-1-.2c-1.3-.3-1.4 0-1.7 3-.2 3 .2 3.1.8.4l.7-2c.3 0 .3 1.5-.2 3.3-.5 2-.5 2.3.1 2.2.3 0 .5-.5.7-1.7zm6.2 1.1c0-.3-.2-.4-.7-.4-.5 0-.9-.1-1-.3-.1-.2-.2-.2-.4 0-.5.8-.2 1 1 1 .8 0 1.1 0 1.1-.3zm-2.8-2.6c.7-4.3.6-4.5-1-4-.5.3-.6.6-.9 3l-.4 3.3c-.2.4 0 .4.9.4h1zM21.8 76.8c.2-1 0-4-.5-4.2-.4-.3-1.2-.3-1.2 0 0 .1.2.5.6.8.4.2.7.6.7.8 0 .1-.3.3-.7.3-.6 0-.6 0-.6 1.4s0 1.5.7 1.5c.6 0 .9-.2 1-.6zm1.5.4c.4-.1.4-.2.2-.5-.5-.5-.8-.5-.8.1s0 .6.6.4zm18 0c0-.2-.4-.4-.7-.5-.4 0-.8-.2-1-.3-.3 0-.5 0-.5.3 0 .2.2.4.3.5.6.2 1.8.2 1.8 0zm3.6-.6c0-.5-.3-.7-.8-.8-1 0-1.2.7-.3 1.2 1 .5 1.2.5 1-.4zm147 0c.7-.6.9-1.6.4-1.6-.3 0-1.3 1.3-1.3 1.7 0 .5.2.5 1-.2zm21.3-.2c0-.4-.1-.6-.5-.6-.3 0-.7-.3-1-.6-.3-.5-.4-.5-.2-.1.1.6 1.2 2 1.5 2 .1 0 .2-.3.2-.7zM47 76.1c0-.4 0-.6-.5-.6-.4 0-.5.2-.5.7 0 .9.9.8 1 0zm70.3-.5c0-.6.3-1.3.4-1.7l.4-1.4c.1-.6 0-.7-.5-.7-.6 0-.7.2-.8.9-.3 2-.4 3.6-.3 3.9.3.4.6 0 .8-1zm42.6-1.5c-.1-1.5-.3-2.8-.5-3-.3-.3-.1 5 .2 5.4.4.6.4.3.3-2.4zm22.3 2.4c.3-.3.4-1.6.2-1.8h-.7c-.4 0-.5.3-.5 1 0 1.1.4 1.4 1 .8zm42.1-1.3c0-1.3 0-1.6-.3-1.2-.2.5 0 2.8.2 2.8l.1-1.6zm-186.6 1c-.2-.3-.6-.4-.8-.3-.7.2-.3.7.6.7.6 0 .6 0 .2-.5zm73-1.2c.5-1.7.5-1.9-.4-1.9-1.2 0-1.5 1.6-.6 2.8.5.8.6.7 1-.9zm3.4-.6a9 9 0 0 0 0-2.2c-.4-.5-.9.2-1.1 1.6-.5 2.3-.5 2.8.3 2.8.6 0 .6-.1.8-2.2zm1.9.7-.1-1.2c-.2 0-.6 1.4-.6 2.4 0 .8.5-.1.7-1.2zm63.7.2c1-1.2 1-1 .5-4.8-.1-1-.2-1-.7-1-.8.3-.8.2-.8 2.1 0 1.7 0 1.8.5 1.7.9 0 .9.4 0 .8-.6.3-.7.6-.7 1.5l.1 1 1-1.3zm10.3.8c.4-.4.5-1.2.6-2.6.2-2 .2-2.1-.5-2.6-.7-.4-.7-.4-.8.5-.2 1.4-.2 5.2 0 5.2s.5-.3.7-.5zm-63.7 0c.8-.3.8-.5 1.3-2.8l.4-2.6c0-.2-.6-.2-1.3-.2-1.2.1-1.2.1-1.1 1 0 .7-.4 3.7-.7 4.4-.2.5.3.5 1.4.1zm24.2-.9c0-.3-.2-.5-.5-.5-.4 0-.6.2-.6.6l.2.8c.3.3.9-.3.9-.9zm21.2.2c0-.7-.4-.9-.7-.3-.2.5.1 1.3.4 1 .2 0 .3-.4.3-.7zm-142.8.5.4-.4c0-.4-1.4-.2-1.5.2-.1.4.4.4 1 .2zm-5.2-2c-.7-.7-1-.4-1 .9v1l.8-.7.8-.8zm8.1 1.6c-.7-.3-1.2-.3-1.2 0 0 .2.4.3.9.3.7 0 .8-.1.3-.3zm54.3-1c0-1.2-.3-1.6-.5-1-.1.3-.4.4-.7.4-.4-.1-.6 0-.6.6 0 .4 1.4 1.3 1.7 1.1l.1-1.1zm3.9.1c.2-.8.1-1-.2-1.4-.4-.4-.5-.4-.6-.1-.2.4-1 .4-1.3 0-.1-.2-.3 0-.5.2-.2.3-.3.6-.1.7l.2.7c0 .4 1.4 1.1 2 1 .1 0 .4-.5.5-1zm43.3.8c.4-.5.4-4 0-4.5-.4-.4-.8.2-.8 1.3 0 .4 0 1.4-.2 2.2-.1 1.1 0 1.4.3 1.4l.7-.4zm29-1.9c.2-3-.3-6.2-1-5.8-.3.2.2 8 .6 8 0 0 .3-1 .4-2.2zm21.8 1.8c.4-.4 1.1-1.9 1-1.9l-1 .3c-.5.2-.8.5-.9 1-.2 1.1.2 1.4 1 .6zm11.1 0c0-.2-.1-.3-.3-.2-.1.1-.2.3 0 .4.1.4.3.3.3-.1zm-154-.2c0-.7-1-1.7-1.7-1.7-.5 0-.7.1-.7.6 0 .7.4 1.1 1.2 1.3 1 .3 1.2.2 1.2-.2zm21.4.3H62h.1c.3.1.5 0 .4 0zm40.5-.7c0-.5-.3-.7-.8-.7s-.8 0-1 .3c-.2.7.2 1.2 1 1.2s.8-.1.8-.8zm2.8.4c.8-.7.5-1.2-.6-1.2-1.2 0-1.4.2-1.2 1 .2.7 1.2.8 1.8.2zm1.8 0c.1-.2.3-.4.5-.3.2 0 .4-.2.4-.5 0-.4-.2-.5-.8-.6-.6 0-.7 0-.7.9 0 1 .3 1.2.6.5zm45.2.2c.4-.3.6-3.9.1-4.5-.9-1.2-1.8 1.4-1 2.9.3.7.3.8-.2 1-.3.2-.5.4-.4.6.2.3 1 .3 1.5 0zm-71.9-2c.2-1.8.2-1.8-.4-1.7-.6 0-.6.2-.6 1.4 0 .8.1 1.5.3 1.8l.5.4.2-1.9zm54.7 1.4a6 6 0 0 0 .2-2.2c0-1.4-.2-1.6-.7-1.7-.6-.1-.8.5-.8 2.8 0 1.5 0 1.6.5 1.6.3 0 .6-.2.8-.5zm62.2.3c0-.2-.2-.3-.5-.3-.2 0-.3.1-.2.3l.4.2c.1 0 .3 0 .3-.2zm-182-1c0-.5-.6-1.1-1-1.1l-.1 1c0 1 0 1 .5.8.3-.2.5-.6.5-.8zm49.4.7c0-.1-.2-.2-.5-.2s-.5 0-.4.2c0 .2.3.3.5.3s.4-.1.4-.3zm17.8-1c-.2-.3-.5-.2-.9 0l-.6.3.8.4c.7.5.8.5.8 0l-.1-.8zm55-.2.3-3.7c0-2.2 0-2.4-.5-2.4-.7 0-1 2-.5 2.5.5.4.5.8-.1 1.1-.5.3-.6.6-.6 2.2 0 1.7 0 1.8.6 1.7.5 0 .6-.3.8-1.4zm3 1.1.3-1.3c.2-1.2.2-1.2-.6-1.2-1.6 0-2.8 2.4-1.4 2.7.6 0 1.6 0 1.8-.2zm-47.9-1V72c-.3-.3-1 .7-1.2 1.7-.2.9-.1 1 .4 1 .6 0 .7-.3.8-1.3zm74.3-.5-.9-1.6c0-.5-1.1-2.5-2.3-4a46.6 46.6 0 0 0-4.2-5c-.2-.1-.6-.7-1-1.4a40.3 40.3 0 0 0-5.8-8.9c-.1.2.1.8.7 1.7.5.7 1.4 2.4 2 3.7.7 1.3 1.5 2.7 2 3l1.6 2.6 2 3c1.4 1.8 3.4 5 3.4 5.5 0 .2.3.4.5.4.4 0 1 .5 1.5 1.3 1.2 1.7 1.6 1.5.5-.3zM53.7 74l-.3-.6c-.4-.3-1 .2-.7.7.2.6 1 .6 1 0zm41 .3-.3-.4c-.1-.1-.3 0-.3.2 0 .3.2.5.3.5l.3-.3zm97.5-.6c.3-.5.3-.7-.1-1-.4-.2-.5-.2-.6.2-.6 1.5 0 2.2.7.8zm-173.5-.1c-.2-.3-.2-.6 0-1 .3-.8 0-2.2-.4-2.4-.6-.2-.8 0-1 1 0 .7 0 1 .4 1.4l.6 1c.1.4.3.6.4.5.2 0 .2-.3 0-.5zm33 .5-.4-1.3-.5-1v1l.1 1.3c.3.3.6.2.7 0zm94.4 0c.3-.5-.3-.6-.6-.2-.3.3-.3.4 0 .4s.5-.1.6-.3zM50 73c.1-1-.2-2-.6-2-.3 0-.4.4-.4 1.5 0 1.3 0 1.5.5 1.4.2 0 .5-.4.5-.9zm98.7.3c.6-.4.4-1-.3-.8-.8.2-1.2.6-1.2 1 0 .5.8.3 1.5-.2zm33.3.3c.2-.2.3-.6.3-1 0-.5 0-.5-.5-.3a1 1 0 0 0-.5 1c0 .7.2.8.7.3zm13.6-.6c0-.6-.1-.9-.3-.8-.1.1-.3.5-.3 1 0 .4.2.7.3.7.2 0 .3-.4.3-1zm17-1.2c-.5-2-.7-2.1-1-.2-.2 1-.1 1.2.5 1.5.4.1.7.4.7.6l.1.2c0-.1 0-1-.3-2zM44.8 73.1c.1-.4.3-.4.5-.3.1.2 1 .4 1.7.5 1.5.2 1.6.1 1.2-1.7-.2-.8-.2-.8-1.5-.7-1.1.1-1.5 0-1.8-.3-.4-.4-1.4-.5-2.1-.1-.4.2-.5.6-.5 1.2 0 .8 0 .9.6.9.4 0 .8.2 1 .5.3.7.7.7.9 0zm106 .2.1-1.2c.2-.8.1-.8-.5-.8s-.7 0-.7 1c0 .6 0 1 .2 1.2.3.3.9.2.9-.2zm47.2 0c.2-.3 0-.5-.6-.3-.2 0-.3.2-.2.4.2.3.6.3.8 0zm-54.3-.4c.5-.1.6-1 .1-1.2h-1c-.4.1-.5.3-.5 1 0 .6 0 .7.5.6l.9-.4zm56 0c.3-.2.3-.3-.2-.3-.3 0-.6.1-.6.3 0 .3.3.3.8 0zm10.5-.9c-.2 0-.5-.7-.6-1.3-.2-1.4-.4-1.7-.7-1.2-.3.6-.2 1.4.3 1.9.3.2.6.8.7 1.2.1.6.2.6.4.2.3-.4.2-.6 0-.8zm-196.7-.3c-.4-.3-.4 0-.1.8.1.5.2.5.3 0 0-.3 0-.6-.2-.8zm19 .9c.4-.2.5-.6.5-1.5 0-1.2-.3-1.5-.8-.6-.2.3-.4.5-.7.4-.5-.2-1.1.3-1.1.8 0 .2.3.5.7.8.9.4.8.4 1.4 0zm2.9-1c0-1-.1-1-.8-.4-.6.5-.6.7-.1 1.3.6.5.9.2.9-.8zm2.2.8c0-.3 0-.6.2-.7l.2-1c0-.5 0-.7-.5-.7-.6 0-1 .4-1.1 1.3-.3 1 0 1.6.7 1.6.5 0 .6-.1.5-.5zm78-.4-.3-.2c-.1 0-.3.3-.3.6 0 .5 0 .5.3.2l.3-.6zm69.3.4c.5-.4.5-.7.5-2.2l-.1-1.7h-2.1l-.1 2.2c0 2.1 0 2.2.6 2.2.3 0 .9-.2 1.2-.5zm8.5-2c0-1.3 0-2-.2-2l-.4 1c0 .5-.3.7-.7.8-.8 0-.8 1 0 1.5.4.2.7.5.7.6 0 .5 0 .7.3.4.1-.1.3-1.2.3-2.3zm-152 1.8c0-.2-.1-.4-.3-.4-.2 0-.4.2-.4.4s.2.4.4.4.4-.2.4-.4zm64.1.1-.6-.2c-.4 0-.7 0-.7.2s.3.3.7.3c.3 0 .6-.1.6-.3zm101-1c0-.5-.2-1-.7-1.6-1-1-1.3-1-1.5-.2-.2.7.1 1.2 1.2 2.3.8.7 1 .6 1-.6zm10.5-2.1-.4-2.2c-.8-4-1.2-7-1-7.7.3-.8 0-8-.6-12.1l-.3-2.3-.6.7c-.4.5-.5 1-.4 2.4 0 2.3.6 5.3.9 5.3l.2.6a129.2 129.2 0 0 0 1.5 18.4c.2.7.9-2.1.7-3.1zm-211.5 1c0-.6-.1-1-.2-.8 0 .2-.3.7-.6 1-.3.3-.3.5 0 .5.1.1.3.5.3.9 0 1.2.5-.2.5-1.6zM24 72c0-.2-.2-.4-.4-.4-.4 0-.5.4-.2.7.3.3.6.2.6-.3zm5.2.2c.3 0 .4-.3.4-1s-.1-.9-.6-.9c-.8 0-1.3.5-1.3 1.2s.3 1 .8.8l.7-.1zm79.2-.2c0-.3 0-.3-.5 0-.3 0-.5.2-.5.3l.5.1c.3 0 .5-.1.5-.4zm37.3.2c0-.2-.1-.2-.4-.1l-.4.2.4.1c.3 0 .4 0 .4-.2zm30.7-.7c0-.2 0-.4-.2-.4l-.4.4c-.1.3 0 .4.2.4s.4-.2.4-.4zm22.1-3c.2-1.9.1-2.7-.1-2.8-.5-.3-.6 0-.9 2.7-.3 3-.1 3.9.5 3.2.2-.2.4-1.3.5-3zm3 3c.6-.5.4-1.6-.5-2.4l-.8-.7v1.2c0 1.3.4 2.3.8 2.3l.5-.3zm-1.7-1.7c-.2-2.7-.5-2.6-.8 0-.1 1.8-.1 1.9.3 1.8.5 0 .5-.3.5-1.8zm21.6.8c0-.3-.1-.2-.3.1-.3.7-.3 1.2 0 .7.2-.2.3-.6.3-.8zm-205 0c0-.8-.5-1.4-1-1.2-.5.2-.5 1.4 0 1.7.8.4 1 .3 1-.5zm124.4.3c.9-.1 1-.9.8-2.6l-.1-1.2-1 .2c-.6 0-1 .2-1 .2l-.3 2c-.2 1.9-.1 2 .3 1.8l1.3-.4zm30-1.2c-.2-.9-.3-1.5-.4-1.4l.1 1.6c0 .8.2 1.4.3 1.4v-1.6zm11 1.5c.3 0 .4-.5.4-1 0-1.2-.2-1.7-.8-1.7-.4 0-.5.2-.5 1.2 0 1.6.2 1.8 1 1.5zm31.2-2c0-1-.2-1.8-.4-1.8l-.2.3c0 .6.6 3.4.7 3.3v-1.8zM39.7 70.6c.7-.3.5-.6-.2-.6-.4 0-.7.1-.7.4 0 .4.3.4 1 .2zm52.8-.2c0-.3-.1-.4-.3-.4-.3 0-.4.1-.4.4 0 .2.1.4.4.4.2 0 .3-.2.3-.4zm10.4-.2c.2-.7 0-1.9-.4-1.8-.3.2-.5 1.4-.3 2 .2.5.6.4.7-.2zm11 .2c.4-.4.5-4.7 0-4.7l-.2.4c0 .2-.3.5-.6.7-.5.4-.6.7-.5 1.8 0 1.8.6 2.6 1.3 1.8zm32.5-.4v-.5c-.2-.2-1.5.7-1.3 1 .2.3 1.2 0 1.3-.5zm49.4-1.9c.2-1.3.1-1.9 0-1.7-.2.2-.4 1.2-.5 2.4 0 1.3 0 2 .1 1.7.2-.2.3-1.3.4-2.4zm-170 2c0-.2 0-.4-.2-.4-.1 0-.3.2-.3.4s.2.4.3.4c.2 0 .3-.2.3-.4zm58.5.1-.6-.2c-.4 0-.6 0-.5.2 0 .2.3.3.6.3s.5-.1.5-.3zm22-.7c0-1 0-1-1-1l-1.1.1c0 .2 0 .4-.2.7 0 .2 0 .4.3.4.2 0 .4-.2.4-.6 0-.3.2-.5.3-.4.2 0 .3.3.3.6-.1.7.1 1.2.6 1.2.3 0 .4-.3.4-1zm1.7.7v-.6c-.5-.4-.4-.6.2-.8.4-.1.5-.3.3-.7-.2-.9-.3-1-.8-.6-.4.2-.7 2.2-.4 2.8.1.3.5.2.7-.1zm8-.6c.1-.8.1-.8-.4-.3-.7.6-.7 1.3-.1 1.1.3 0 .5-.3.6-.8zm-61.2.3c.5-.4.5-.9.6-4.3.2-4.8 0-6.2-.7-6.2-.5 0-.5.2-.6 1.8-.1 3.8-.1 4.7-.3 6.8-.2 2.4 0 2.7 1 1.9zm56.7 0c.4-.2.5-1.7.2-2.8-.1-.4-.3-.5-1.1-.5h-1v1.8l-.1 1.8.8-.1 1.2-.3zm78.6-.8c-.8-.6-1 0-.2.7.5.3.7.4.8.1 0-.1-.2-.5-.6-.8zm-46.2.3c.6-.6.6-1 .1-1.2-.6-.2-1.4.4-1.4 1.1 0 .8.5.9 1.3.1zm7.2-1.6c.2-1 .1-1.2-.3-1.4-.6-.1-.8.2-.8 2-.1 1.6-.1 1.6.5 1 .2-.2.5-1 .6-1.6zm2 1c-.2-2.2-.2-2.5-.5-2.5-.4 0-.3 3 0 3.3l.4.4v-1.2zm58-.4c.2-.5.2-1.4.2-1.8 0-.8 0-.9-.4-.6-.2.2-.3.5-.3.7 0 .3-.2.6-.4.9-.2.2-.3.7-.2 1.4 0 .8.1.9.6.6.2-.1.5-.7.6-1.2zM14 69c0-.5-.2-.6-.8-.6-.6 0-.8 0-.8.5s.3.7 1.1.8c.3 0 .5-.2.5-.7zm10.3-.5c-.3-.6-.6 0-.4.7.2.5.2.5.4.1a1 1 0 0 0 0-.8zm32.6.1.3-2.1c.1-.9.3-1.3.6-1.3.6 0 .6-.8.6-8l-.1-7h-.9c-.5 0-.8 0-.9.2v4.7c-.2 4-.2 4.4.3 4.7.4.3.4.4 0 .7-.4.3-.5 1-.7 4.8-.1 3.8 0 4.4.2 4.3.2 0 .5-.5.6-1zm63.4.7c0-.2.2-.5.4-.6.5-.1.6-.9.2-.9-.2 0-.4.2-.5.5-.2.4-.3.4-.4 0-.2-.6-.7-.4-.7.2 0 .3 0 .4.2.3.2-.1.3 0 .3.3s.1.6.3.6l.2-.4zm4.4-.2c.3-.2.7-4.7.5-5-.2-.1-1.5.7-1.6 1-.1.2.1.4.4.4.9 0 1 .5 0 .7-.4 0-.8.3-.8.4l-.1 1.7-.2 1.4.8-.2c.4 0 .8-.2 1-.4zm11.5.5c0-.7.8-6.4 1-7 .3-.8 0-1.6-.5-1.6s-2.3 8.1-1.9 8.6c.2 0 1.4.2 1.4 0zm12.2-.3c0-.2.2-.4.4-.4.3 0 .4-.3.4-1.2 0-1.3-.4-1.5-1.1-.7-.5.5-.9 2.2-.6 2.5.3.3.9.2.9-.2zm-30-.1c0-.2 0-.3-.2-.3l-.4.3c0 .1 0 .2.3.2.2 0 .4 0 .4-.2zm9.9-.7-.8-.2c-.4-.2-.6-.1-.6.3 0 .7.6.9 1 .4.3-.2.4-.4.4-.5zm63.9 0c-.2-.5-.7-.5-.7 0 0 .4.6 1 .8.7l-.1-.7zm4.6-.2v-1.2c-.2 0-.3.4-.3 1.1 0 1.5.2 1.6.3.1zM50 67.7c0-.7 0-1.4-.2-1.6-.3-.3-.3-.6 0-1.1.3-.9.3-2-.1-2-.1 0-.5.5-.7 1.2-.8 2-.4 5.2.7 4.9.1 0 .3-.7.3-1.4zm3.4 0 .2-6.6c.2-5 .2-5.4-.2-5.5-.3-.1-.5-.2-.6-.1l-.2 3.6c0 2-.2 3.6-.3 3.7l-.1-3.7c0-3.5 0-3.8-.6-3.9-.6-.2-.6-.5 0-.8.7-.4.2-.6-.6-.3-.7.3-.7.4-.7 2.7 0 2.2 0 2.5.7 3.4.6.8.6 1.1.4 1.4-.2.2-.3.5-.2.7.1.1 0 .5-.2.9-.4.6-.4.8-.1 1.9l.3 1.2.3-.9c.3-1.2.7-.5.7 1.3 0 1.2.6 2.7 1 2.3l.2-1.4zm72.8 1c0-.4 0-.6-.2-.6s-.3.2-.3.5.1.6.3.6l.2-.6zm4.9 0c.1-.7-.3-1-.7-.6-.3.3 0 1 .3 1 .1 0 .3-.2.4-.5zM48 68c0-1.2-2.4-2-2.6-1 0 .4.2.6.9.8.5.2 1 .5 1 .7.3.6.7.2.7-.5zm146.6-.4c0-.9-.2-.6-.4.5-.1.7 0 .8.1.5.2-.2.3-.7.3-1zm-175.5.3c0-.5 0-.6-.6-.5-.6 0-.8.2-.9.7 0 .5 0 .6.7.5.5 0 .7-.3.8-.7zm65.7 0c.2-.2.9-.4 1.4-.5 1-.2 1-.1.9.3-.1.3-.1.4.1.3.2 0 .4-.3.4-.6s.4-.9.8-1.2c.8-.8.8-1.1 0-.9-.5.1-.8 0-.9-.2-.2-.6-.6-.3-.4.4 0 .6-.1.8-2 1.6-1 .6-2 1.1-2 1.3 0 .3 1.1 0 1.7-.5zm31.2 0c.4-.6.5-1.2.5-1.9 0-1 0-1-.8-.6-.5.3-.6.5-.7 1.8l.1 1.4c.2 0 .5-.3.9-.8zm62.2-1.2v-1.3c0-.2-.2-.4-.5-.4-.6-.1-.6 0-.6 1.6 0 1 .1 1.8.2 1.9.3.3.9-.7 1-1.8zM45.2 68c0-1-.3-1.4-1.1-1.4-1 0-1 .6 0 1.3.8.7 1 .7 1 0zm131.2-.5c0-1.5-.3-1.9-.9-1.1-.5.7-.5 1.3 0 1.8.5.6 1 .3 1-.7zm3.2.7c0-.1-.1-.3-.3-.3l-.2.3c0 .2 0 .3.2.3s.3-.1.3-.3zM191 68c0-.4-1.3-1-1.6-.8-.2.2.8 1.2 1.2 1.2.2 0 .4-.2.4-.4zm12.7-.4c0-.4-.2-.9-.4-1-.4-.4-.4-.3-.4.7 0 .8 0 1 .4 1 .2 0 .4-.2.4-.7zm16.3-2.3c.1-1.4 0-2-.3-2.5a8 8 0 0 1-.7-2.2 7 7 0 0 0-.4-1.7v.7l.3 3.7c0 1.6.2 3.4.3 4 .1 1.1.2 1.2.4.5l.4-2.5zm2 2.7-.3-.6c-.2 0-.3.1-.3.4 0 .3.1.6.3.6l.2-.4zm-189.2-.6c0-.4 0-1 .3-1 .2-.3.1-.5-.2-.8-.5-.5-.5-.7-.1-1.1.3-.3.2-.4-.4-.4-.9 0-1.2.8-1.2 2.5 0 1.3 0 1.5 1 1.5.4 0 .6-.1.6-.7zm3 0c.2-.5 0-.8-.3-1-.5-.4-.5-.4-.7.4V68c.3.5.9.2 1-.5zm1.5.4v-.6c0-.3-.2-.4-.3-.3-.4.2-.4 1.3 0 1.2l.3-.3zm169.2-.6-.5-1.4c-.2-.5-.2-.8 0-1.1.4-.6.4-2.9 0-3.4 0-.3-.3.1-.6 1.2-.8 3.2-.8 3.8.3 5.1.7.8 1 .6.8-.4zM8 67c0-.1-.2-.2-.5-.2-.8 0-1.8-2.3-1.3-3a28 28 0 0 0 .9-9c-.3-.2-1.3 5-1.7 9.3-.4 3.1-.2 4 .6 3.3.3-.3.5-.3.9 0 .5.4 1.1.2 1.1-.4zm14 0c0-.6 0-.8-.6-.9-.8-.2-1.2 0-1.2.8s.3 1 1 .9c.6 0 .8-.3.8-.8zM60 62.5c.5-5.2.5-5 0-5s-.5-.2 0-.8c.4-.5.5-1.1.5-3.6 0-3-.1-3.7-1-3.4-.4.2-.4 1.2-.5 9v9c.3.3.6-1 1-5.2zm1.7 3.7c.4-2.7.6-10.8.4-10.8-.9 0-1.1 1.4-1.6 8l-.3 2.8c-.1.5.6 1.7 1 1.6.2 0 .4-.8.5-1.6zm56.5 1.2c.4-.6.5-1.6.1-1.8-.1-.1-.3 0-.3.2 0 .3 0 .5-.2.5-.3 0-.6 1-.4 1.3.2.4.4.3.8-.2zm107.4-.9-.1-1.2c-.2-.1-.5 2.2-.3 2.4.2.2.3-.1.4-1.2zm-162.3.7c.4-.5.4-.6.7-3.8v-2.6c-.2-.3-.2-.6-.2-.8.4-1.4.5-2.7.7-6.4l.2-4.3h-.8l-.8.2-.3 7.4c-.4 11.4-.4 11.4.5 10.3zm65 0c.2-.1.3-.4.3-.5 0-.3-1.5-.2-1.7 0-.4.8.8 1.2 1.4.6zm37.2-2.5c-.3-2-.5-2.6-.7-2.3-.2.3-.1.9 0 1.6.3.7.3 1 .1 1.1-.2.1-.3.3-.3.5 0 .5 1.1 2 1.3 1.9l-.4-2.8zm28.2 2.5c0-.2 0-.4-.2-.4-.4 0-.6.4-.4.6.3.3.6.2.6-.2zM41.7 67c.3-.2.3-.4-.2-1.2-1-1.6-2-1.2-1.2.5.5 1 .8 1 1.4.7zm104.7 0c.2-.5 0-.7-.5-.5-.3.1-.4.3-.3.4.2.4.6.4.8 0zm38.8-.2c.4-.2.2-1-.2-1-.6-.3-2 .4-2 1 0 .4.2.4 1 .3l1.2-.3zm-62.8-.1c0-.2 0-.3-.2-.3s-.3.1-.3.3c0 .1.1.2.3.2.1 0 .2 0 .2-.2zm8.9-.3c.4-1.7.6-4.1.4-4.3-.2-.3-1.7.5-2 1v2c.2 1.7.3 1.8.8 1.8s.7-.1.8-.5zM14.4 66c.1-.5 0-.8-.2-.9l-.8-.5c-.4-.5-.5-.5-.6-.1l-.2 1.3c0 .8.1.9.8.9.7 0 .9-.2 1-.7zm1.7.4c.3-.1.5-.5.5-.9 0-.5-.1-.6-.5-.5-.3 0-.5.2-.5.3l-.2.8c-.2.6 0 .7.7.3zm13.4-.2c.3-.5.3-.6-.2-.9-1-.5-1.8.3-1 1 .5.5.8.5 1.2-.1zm73.5-.7c-.2-.8-.8-1.5-1.2-1.5-.2 0-.3.4-.3 1s.2 1 .6 1.3c.8.5 1.1.2.9-.8zm31.4 0c0-.6.3-1.7.5-2.6.4-1.6.2-2.1-.5-1.4-.3.3-.4 1-.5 2.8-.1 1.6 0 2.4.1 2.3.2-.1.4-.6.4-1.2zm-56.6-7.3-.2-9c-.2-1.6-.2-1.6-1-1.6-.6 0-1 .2-1.1.5a40.4 40.4 0 0 0 .6 9.6c.1 0 .3.2.3.5s0 .5-.2.5l-.3.8-.1 1.5c-.2.7-.1 1 .4 1.2.4.2.4.4.2.6-.1.2-.1.4 0 .8.2.2.2.6.1.7 0 .2 0 .7.2 1.2.3.8.4.9.7.6.3-.3.4-1.9.4-8zm6.3 7.6c.3-.1.1-.2-.4 0-.5 0-1 .2-1 .4-.4.3.7 0 1.4-.4zm22 0c.2 0 .1-.2-.3-.2l-1.1-.2c-.4-.3-.5-.2-.5.4 0 .6 0 .7.8.5.5 0 1-.3 1.2-.4zm32.6 0c.3-1.5.4-4.1.1-4.3h-.3c-.2 0-1 3.9-1 4.5 0 .7 1 .5 1.2-.2zm-127-1.7c0-.2-.2-.3-.4-.2-.3.2-.3 1.2 0 1.9 0 .4.2.3.3-.4.1-.5.2-1.1.1-1.3zM39 66c.7-.4.6-1.1-.2-2.1-.9-1-1.1-.9-.6.3.3.7.2.8-.1 1-.3.2-.5.5-.5.7 0 .4.6.5 1.4 0zm103.2-.3a102.2 102.2 0 0 0 1.1-6.5c.3-.8-.3-.8-1.5 0-1 .8-1 1.2.1 1.2.4 0 .5.2.4.5 0 .3-.4.5-1.1.6-1 .1-1 .2-1.2 1.3l-.2 2.3v1.2h1.1c1 0 1.2-.1 1.3-.6zm2 .1c.4-.3.6-.8.6-1.5l.4-3.7c.2-1.5.3-2.7.2-2.8-.4-.4-1 .6-1.3 2.1l-.7 3.8c-.4 1.6-.4 2.2-.1 2.3.4.3.4.3 1-.2zm35.8 0c0-.4-.2-.6-.3-.6-.2 0-.3.2-.3.5s.1.6.3.6c.1 0 .3-.3.3-.6zm11-.1c.3-.8 0-1.1-.8-1-.5.2-.7.4-.7.9s.1.7.7.7c.4 0 .7-.2.9-.6zm19.4-.4c.3-.5.5-1 .4-1.2 0-.4-1.2 1.3-1.2 1.8 0 .6.2.4.8-.6zm7.8-.6A818.1 818.1 0 0 1 217 50c-.3-2.2-.7-.6-.5 2.2l.3 6.9c0 4 .1 4.6.5 5 .3.2.6.8.7 1.3.2 1.4.4 1 .2-.7zm-199.9.7c-.3-.4-.7-.1-.4.3 0 .2.3.2.4.1.2 0 .2-.2 0-.4zm148.3-1.2c-.3-.3-.4.2-.2 1l.2 1v-2zm8.3 1.2s0-.2-.2-.2-.3.2-.3.4.1.3.3.3l.2-.5zm7.1-1c.1-1.6 0-1.6-.5-1.5-.5 0-.6.2-.6 1.4 0 1.5 0 1.7.6 1.6.3 0 .5-.4.5-1.6zm11.2.8c-.3-.3-.5-.6-.4-.8 0-.1 0-.3-.2-.3-.6 0-.8.5-.6 1.2 0 .5.3.6 1 .5l.8-.1zm15 0v-1c-.3-.3-1 .7-1 1.3 0 .8.7.5 1-.3zm-164 .1c.7-.5.8-1.2 0-1.2-.3 0-.5-.2-.6-.7 0-.4-.4-1-.7-1.4l-.5-.6v1c0 .9-.1 1.2-.4 1.2-.7 0-.5.6.4 1.4 1 .8 1 .8 1.7.3zm78.2.2c.1-.2 0-.3-.2-.3s-.5.1-.6.3c0 .1 0 .2.3.2l.5-.2zm6 0c.3-.2.5-.6.5-1.2 0-.9 0-1-.9-1-1.3 0-1.6.3-1.3 1.5.1 1 .7 1.2 1.7.7zm66.6-.9c0-.3 0-.5-.2-.5s-.3.4-.3.9c0 .6 0 .8.3.5l.2-.9zm1.3-.8c0-.4 0-.7-.2-.6-.1.1-.3.7-.2 1.4 0 1 0 1.1.2.6l.2-1.4zm5.2-.3c-.8-.7-.8-.9-.2-1.5.2-.3.3-.6.2-.8-.3-.5-.6-.2-.9.8-.6 2.4-.6 2.4 0 2.4.2 0 .7.3 1 .7l.5.8v-1c.1-.7 0-1-.6-1.4zm-93 1.3c0-.4 0-.6-.2-.5-.2 0-.3.4-.3.6 0 .3.1.6.3.6.1 0 .2-.3.2-.7zm38.5.2.4-.8c0-.3 0-.7.2-1 .1-.5 0-.6-.5-.7-.9-.1-.9-.7 0-1 .7-.3.8-.5 1-1.8.5-2.3.5-2.4-.5-2.4-.9 0-1 0-1.2 1-.4 1.3-.8 4.6-.8 6 0 1 0 1.2.5 1.2.3 0 .7-.2.9-.5zm-99.3-.3c0-.5-1.5-3-1.9-3-.4 0-.6 1-.4 2.2.2 1 .3 1 2 1.3.1 0 .3-.2.3-.5zm18-.4c0-.5-.2-1-.4-1-.5-.2-.7 0-.7 1 0 .7.1.9.5.9.5 0 .6-.2.6-.9zm119 .5c.3-.1.6-.4.6-.6 0-.4-2-.5-2.2 0-.2.5 0 1 .5.9l1-.3zm-157.7-.2c0-.2-.1-.5-.4-.7-.3-.3-.4-.3-.4.2l.2.7c.3.2.6.2.6-.2zm185.9-3.7c0-5-.9-9.3-1.7-8.8l-.2 2 .1 4.1c0 2 .2 2.3.7 2.8.4.4.5.6.2.8-.4.5-.4 1.3.1 1.3s.5.2 0 1.4c-.2.5-.2.5.3 0 .4-.3.5-.8.5-3.6zm8.8 3-.1.4v.4c.1-.1.1-.5 0-.8zm-140.8.3c.1-.2-.1-.3-.5-.3-.7 0-1 .4-.4.6.5.2.8 0 1-.3zm29.5 0 .6-1c.3-.7-.8-.5-1.1.3-.6 1.2-.2 1.6.5.7zm22.7-.9c0-.8 0-1.3-.1-1.2-.3.2-.6 2.1-.5 2.4.4.5.6 0 .6-1.2zm16.5 1 .2-1.2.5-3.2c.3-1.4.5-2.6.4-2.7-.2-.4-.9-.2-1.1.3-.4.6-1 4-.8 4.2.1.2.1.3 0 .4-.3.2-.7 2-.5 2.3.3.4 1.2.3 1.3-.2zm14.2.2-.4-.8c-.4-.5-.4-.6.1-.9.4-.2.6-.5.6-1 0-1.3-.3-1.2-1 .2-.6 1.3-.6 1.4-.2 2 .4.6 1 .9 1 .5zm-142.4-.4c-.1-.5-.7-.6-.7-.1 0 .2.2.4.4.4s.4-.1.3-.3zm85-.2c0-.2-.1-.3-.3-.3l-.2.4c0 .2.1.4.2.3.2-.1.3-.3.3-.4zm45.3-1 .6-3.1c.4-1.8.2-2.5-.4-2.2-.1.1-.4.7-.5 1.3-.4 1.3-.8 5-.6 5.3.3.5.7 0 1-1.3zM31.2 63c0-.3-1.3-.2-1.5 0 0 .2 0 .5.3.7.4.5.5.5.8 0l.4-.7zm4.3.9c.1-.2 0-.3-.4-.3-.3 0-.5.1-.5.3l.4.2c.2 0 .4 0 .5-.2zm118-.4.2-1.5c0-.4.1-.8.4-.9.2 0 .4-.4.4-.7 0-.3-.2-.5-.4-.5-.6 0-.5-.2.1-.8.5-.4.5-.5.3-1-.2-.3-.5-.6-.7-.6-.4 0-1 3.8-.7 4.5.2.3.2.6 0 .7l-.3.8c-.3.9.3.8.6 0zM37 63.7l-.3-.6c-.2-.3-.2-.3-.2.2 0 .3 0 .6.2.6s.3-.1.3-.2zM87.5 61l-.1-2.4h-1c-1.4.2-1.6.6-1.4 2.9.1 1.1.3 2 .4 1.9.2-.1.3-.5.3-1l.1-1.5c.3-1 .7-.6.7.8s.2 2 .7 1.9c.3-.1.3-.7.3-2.6zm91.3 2c-.2-1-.8-1-.8 0 0 .5.1.8.4.8.3 0 .4-.2.4-.7zm1 .2c-.1-.2-.2-.2-.2.2 0 .2 0 .4.2.3v-.5zm10.8.2c.6-.4.6-.7.6-2.4 0-1.8 0-2-.9-2.8-.7-.7-.9-.7-1-.4a19 19 0 0 0 0 5c.2 1 .5 1.2 1.3.6zm-174-.2c.7-.3.7-.6 0-1.4-.9-.8-1.3-.6-1.3.7 0 1 .3 1.3 1.3.7zm2.7-.8c-.2-.2-.3-.2-.3.2 0 .7.4 1 .5.5 0-.2 0-.6-.2-.7zm5.5 1-.3-.3-.2.1c0 .2.1.3.2.3l.3-.1zm42.7-.2c.1-.1 0-.2-.3-.2l-.6.2c0 .2.2.3.4.3s.5-.1.5-.3zm136-.6v.7c.2-.2.2-.5 0-.7zM84.2 63c0-.1-.1-.2-.3-.2-.7 0-.8.1-.7.4.2.3 1.1.1 1-.2zm20.9.1-.2-1c-.1-.4-.2-.5-.4-.2-.3.6-.2 1.5.2 1.5.2 0 .4-.1.4-.3zm100-2c.6-2.2.6-3 .3-3-.4 0-1 .7-1.1 1.2-.1 1.1 0 4.2.1 4l.7-2.1zm2.8 1.6c.6-.8.8-4.5.5-7.4l-.2-1.8-.5 1.6c-.3 1-.5 2.3-.5 3.4l-.1 3.4c-.2 1.7 0 2 .8.8zm2.6 0c.4-.8.6-1.6.2-1.6-.4 0-1.1 1-1.1 1.6 0 1 .3 1 .9 0zm-166.2-2c-.6-2.4-.8-4.4-.3-4.4.1 0 .2-.7.2-1.6V53H43l-1.1.2v2c.1 2 .2 2.3.8 2.9.7.7.7 1.3 0 1.3-.3 0-.4 0-.4.2 0 .3 2.2 3.5 2.3 3.4l-.4-2.4zm44.9-1c0-2.3 0-2.6-.4-2.3-.3.2-.4.9-.4 2.9 0 1.4.1 2.6.2 2.7.4.4.6-.6.6-3.2zm96.1 2.9.2-2.3c0-1.5 0-1.7-.7-1.9l-.8-.2c-.4 0-.9 2.2-.9 3.7V63h1c.9 0 1.1-.1 1.2-.6zm-170.6-.9c-.1-.5-.3-.6-.7-.6-.8.1-1 1.1-.1 1.5.7.3 1 0 .8-.9zm94 1c0-.2 0-.3-.2-.3l-.2.2c0 .2 0 .3.2.3s.3-.1.3-.3zm79.7-1.8c0-1.2-.2-1.6-.6-1.6-.3-.1-.4 0-.4.7 0 .5-.2 1-.4 1.4-.3.5-.3.5-.5-.6l-.1-1.2V61c0 1.3 0 1.4.6 1.4.3 0 .7.1.8.3.4.6.7-.3.6-1.8zm11.4.4c0-.4.1-.8.3-.9.3-.2 0-4.5-.4-5.6-.2-.5-.5-2-.6-3.5a17 17 0 0 0-1.7-6.5l-.8-2a14.9 14.9 0 0 0-1.8-3.8c-.7-1.2-1.2-1.3-1 0 .2 1.2 1.9 5 2.3 5.3.2 0 .2.3.2.5-.1.2 0 .6.3.9.3.3.5.7.4 1l.1.7c.2.1.3.5.3.8l.4 1.6c1.1 3.2 1.6 8.5 1.1 11.2-.2.8-.1 1.2.1 1.5.4.4.4.4.6 0l.2-1.2zm-167.3.5c0-.7-.2-.9-.6-1-.7 0-.7 0-.3 1 .4 1.2 1 1.1 1 0zm33-.2c0-.6 0-.8-.4-.7-.4 0-.6.8-.4 1.4.3.6.9.1.9-.7zm25 .6c0-.2 0-.3-.2-.2-.2 0-.3.3-.3.4 0 .1.1.2.3.2.1 0 .2-.1.2-.4zm15.8.2-.1-.3c-.2 0-.3.1-.3.3v.2c.2 0 .3 0 .4-.2zm116.6-13.5c-.5-.8-.8 7.1-.4 11.4.2 2.2.2 1.7.3-4.4v-7zM41.6 61c-.1-1-.4-1.4-1.4-2.4-1.3-1.2-1.6-1.2-1.6 0 0 1.1.5 2 1.2 2.3.3 0 .8.4 1 .7.7 1 1 .8.8-.6zm124.6.2c-.1-.8 0-1 .2-1 .3 0 .5.1.6.3 0 .3.2.2.5 0 .3-.3.5-.8.5-1.5 0-1.3-.3-1.6-2-1.9-1.1-.2-1.5.2-1 1.4l.4 2.3c.2 1 .3 1.5.6 1.5s.3-.3.2-1zm27.6 0a5 5 0 0 0 0-1.8c-.3-.7-1.2-.8-1.2 0l-.2 1.7c-.2 1.1-.2 1.2.5 1.2.6 0 .7-.2.9-1.2zm2.7.3c0-.4 0-.8-.2-.8-.3 0-.4 1.1-.1 1.4.3.3.3.2.3-.6zM12 61.8c0-.2 0-.3-.3-.3-.2 0-.4.1-.4.3 0 .1.1.2.3.2l.4-.2zm9.5-.5c-.1-.2-.3-.3-.4-.3-.3 0-.3.6 0 .8.2.3.5 0 .4-.5zm62.5.5c.5-.3.4-3.5-.1-3.7-.4-.1-.5-.8 0-.8l.2-.6c0-.4-.2-.5-1-.5H82v1c0 .8.1 1.3.4 1.5.2.2.5.8.5 1.5.3 1.9.4 2 1.1 1.6zm27-.5c.7-.6.9-1 .9-2.1l-.1-1.6c-.3-.3-1.8 1.6-1.8 2.2 0 .5 0 .5.5-.1s1.1-.8 1.1-.3c0 0-.4.6-1 1-1.4 1.5-1.1 2.2.4.9zm3-.3c-.2-.4-.2-.6.1-.8.5-.4.5-1 .2-1-.2 0-.6 0-1 .2-.9.4-.9 1.6 0 2.2.7.5 1.2.1.8-.6zm81.2-1c0-1-.1-1.7-.3-1.7-.1 0-.2.8-.2 1.9 0 1.2 0 1.8.2 1.7.2-.1.3-1 .3-1.9zM27 61.4c0-.3-.1-.4-.4-.4-.4 0-.5.3-.2.6s.6.2.6-.2zm76-.3c.3-.4.7-1.6 1-2.6l.4-2c.2-.4-.6-2.2-1-2.2l-.8.4c-.5.4-.5.4.2.4 1 0 .8.7-.2.8-.9 0-1 .6 0 .6.7 0 .9.3.2.6-.2.1-.4.3-.3.6.1.2.1.6 0 .8-.2.3-.3 1.1-.4 1.9-.1 1.5.2 1.8 1 .7zm13 .5c.6-.2.6-.9 0-.9-.4 0-.6.2-.6.5 0 .6 0 .6.6.4zm66.2-.3.1-2c0-1.8-.1-2-1-1.8-.5 0-.5.4-.5 2l.1 2c.4.4 1.1.3 1.3-.2zm-73.4-.4c0-.4 0-.5-.4-.2-.2.2-.4.4-.4.6l.4.2c.2 0 .4-.2.4-.6zm71-.1-.4-.7c-.2 0-.3-.4-.3-.8 0-.3-.2-.6-.5-.6-.2 0-.4.4-.4 1.2-.1 1.2 0 1.3.5 1.4.9.2 1.1 0 1-.5zm22.3-.6-.1.5c0 .5 0 .7.1.5v-1zm-80.2.7c.3-.5.4-4.6 0-5.8-.2-1-.8-1.4-1-.6-.2.8-.5 3.8-.5 4.8 0 1.6 1 2.5 1.5 1.6zm-97.4-.3-.1-.6c-.2 0-.3.1-.3.4 0 .7.2.7.4.2zm43.1.1c.1-.1 0-.3-.3-.3s-.6.2-.6.3c0 .1.2.3.4.3s.5-.2.5-.3zm39-.8c0-.4-.1-.8-.5-1-.5-.3-.5-.3-.5.8 0 1 0 1.2.5 1 .4 0 .6-.3.6-.8zm18.6-.5a16 16 0 0 0 0-6h-.3l-.4 3.5c-.5 4-.5 4.2 0 3.8l.7-1.3zm35.7.4c0-1 0-1.2-.5-1.1-.3 0-.5-.3-.6-1.2 0-.6-.2-1-.2-.8 0 .2-.2.3-.7.2l-.6.1c0 .5 2.1 4 2.4 4l.2-1.2zm42.5-.5c.1-1.1 0-1.5-.1-1.4-.2.1-.3.8-.3 1.7 0 1.8.1 1.7.4-.3zm-40.1.6c0-.3.2-.5.4-.5.3 0 .4-.3.4-1 0-1.3-.3-1.6-.9-1-.5.4-.9 2.6-.6 3 .3.4.7.1.7-.5zm47.2-1.8a53.7 53.7 0 0 1-.3-4.6c0 1-.2 2-.3 2l-.5-1.5c-.2-1.1-.2-.7-.2 2.2 0 5.1 0 4.8.8 3.8.6-.6.6-1 .5-2zm-205 .8c.2-1.7 0-2.2-.5-2.2s-.7 1.8-.4 2.9l.5.8c.1 0 .3-.7.4-1.5zm5.4.3c.5-1.2.3-1.8-1-2.9l-1.2-1 .1 2c.2 2.4.6 3.3 1.3 2.9.3-.2.7-.6.8-1zm6.6 1c0-.3-1.6-1.9-1.9-1.9-.4 0-.2.5.3.7.2 0 .6.4.8.8.2.6.8.9.8.4zM173.5 54c.2-2.4.5-4.5.7-5 .3-.6.3-2 .2-7-.1-4.3-.3-6.2-.4-5.8-.1.4-.3 1.8-.3 3.2l-.5 4.2a148.8 148.8 0 0 0 0 15.9l.3-5.5zm2.5 4.3c.1-1.3.2-2.3.1-2.4l-1-.2h-1v4.8h1.8zM23.3 59.5c.2-.5 0-.9-.3-1.2-.3-.3-.6-.6-.6-.8l-.4-.2c-.3 0-.4.1-.2 1 .1.9.8 1.9 1.2 1.9l.3-.7zm48.4.3c.2-.4 0-1.8-.4-2.2-.2-.3-.2-.5 0-.7.5-.5.5-8 0-8.4-1-.7-1 0-1 5.4.1 4 .2 5.3.5 5.4.2 0 .3.3.3.5 0 .5.4.5.6 0zm47.2 0-.2-.8-.3-.8c-.3-.4-.4-.4-.4.7s0 1.3.5 1.3c.4 0 .5-.2.4-.5zm-2.2 0c.3-.4-.2-1-.8-1-.3 0-.6 0-.6.2 0 0 0 .3-.2.5 0 .3 0 .4.7.4.4 0 .8 0 .9-.2zm-42.4-.4c.3-.2.1-.3-.6-.3-.5 0-1 .1-1 .3 0 .3 1 .3 1.6 0zm16.1-2c0-1.4 0-2-.2-1.6-.4.8-.4 3.8 0 3.8.1 0 .2-.9.2-2.1zm18.1 1.5c.2-.8 0-1.2-.4-1-.3.2-.3 1.7 0 1.7.2 0 .3-.3.4-.7zm-77-.2c-.1-.7-.5-1-.8-.8-.2.1-.2.4 0 .8.3.8 1 .7.8 0zm17.8.5c.6-.2.6-4.3 0-4.5-.5-.2-.5-.8 0-1 .3 0 .4-.4.3-.9 0-.5-.2-.7-.8-.8h-.7v3c0 2.6.2 4.4.6 4.4l.6-.2zm152.7-.4c0-.2-.1-.2-.2.2 0 .2 0 .4.2.3v-.5zm-156.1-.3c-.1-.3-.3-.4-.4-.4-.2 0-.2.1 0 .5.3.6.6.5.4-.1zm1.7-2-.2-3.5c-.2-.8-.2-.8-1.1-.6-1.5.2-1.7.5-1.5 2.4 0 1 .2 1.8.4 1.9.6.2 1.8 1.4 1.8 1.9 0 .3.2.5.3.5.2 0 .3-1 .3-2.6zm149.6-1.1c-.1-.7-.3-1.3-.4-1.2l-.4 3.3-.1 1.7.5-1.2c.4-1 .5-1.6.4-2.6zM14 58.5c.5 0 .8-.7.6-1.5-.4-1.5-3-.3-3 1.5 0 .3.2.4 1 .2l1.4-.2zm5.8 0c.9-.4.5-2.3-.4-2.3-.5 0-1.2 1.4-1 2 .1.7.6.8 1.4.4zm6 0c.5-.5.4-.8-.6-1.9l-1-1 .2 1c.4 2 .8 2.6 1.4 2zm8.4-1.1c-.4-.6-.7-1.5-.7-1.8 0-.4 0-.8-.2-.9-.2 0-.3.2-.3.5 0 1.3-.4 1.3-.6 0-.1-1.4-.4-1.9-1.2-2-.2 0-.3.3-.3.5 0 .6 1.1 3.3 1.4 3.3 0 0 .6.4 1.1 1 1.3 1.1 1.7.9.8-.6zm79.6 1.1c.7-.3 1-1 .4-1-.4 0-1.3.8-1.3 1.1 0 .3.1.3 1 0zM79.2 56c.2-.7.7-1.7 1-2.2.9-1.1.9-1.5 0-2.5-1-1-1.3-2.5-1.1-5.2 0-1.6 0-2-.3-2.3-.4-.3-.4.4-.5 6.9l.1 7.6c.2.3.2.2.3-.2l.5-2zm58 2.3c.4-.2.4-.3.1-.5-.2-.2-.2-.8-.1-1.6.2-1.7-.2-6.1-.5-5.4l-.6 3.6c-.5 3.8-.2 4.8 1.2 4zm-81.4-1.6c0-1.3-.1-1.6-.5-1.6-.3 0-.7.2-.9.5-.3.3-.2.5.3.9l.6.4-.5.3c-.9.5-.8 1.1.2 1.1h.8zm31.3 1c.2-.2 0-.2-.4 0a6 6 0 0 1-1.1 0c-.3 0-.5.2-.5.3 0 .4 1.6 0 2-.3zm19.3.2c.4-.4.6-1.2.3-1.2-.5 0-1.2.7-1.2 1.1 0 .6.4.7 1 .1zm-78.3 0c0-.2-.3-.6-.8-1s-.9-1-.9-1.3c0-.5-.7-1-1-.6a9 9 0 0 0 1.7 2.7c.3.4.8.5 1 .1zm45.5 0a1 1 0 0 0-.7 0l.3.1c.4 0 .5 0 .4-.1zm43-.1c0-.2-.3-.3-.6-.3-.4 0-.7.1-.7.3 0 .1.3.3.7.3.3 0 .6-.2.6-.3zm71.7 0-.5-1.4-.5-1.1v1.4c0 1.2 0 1.4.5 1.4.3 0 .5-.2.5-.3zm13.7-.6-.1.3c0 .4 0 .5.1.4v-.7zm19.6-3.2c0-2.2 0-3.8-.2-3.7-.6.7-1 2.4-.8 3.3.2.5.3 1.3.3 1.8 0 1.3.2 2.7.5 2.7.1 0 .2-1.8.2-4zm-204 3.6c0-.4-.7-1-.9-.8-.2.2.4 1 .7 1 .2 0 .3-.1.3-.2zm93.5-1 .5-.1c.6 0 .8-1 .3-1.2-.5-.3-.3-1 .1-1 .3 0 .4-.2.3-1.6 0-1.5 0-1.5-.7-1.5-.6.1-.7.2-.7 2.3 0 1.2-.2 2.3-.3 2.5-.2.2-.3.7-.3 1.1 0 .8 0 .8.4.3l.4-.7zm-12.5 0v-.8l-.3.7c-.4.7-.3 1.1 0 .9.2-.1.3-.5.3-.9zm80.4.6c.5-.5.4-1.2-.2-1.5-.7-.4-.8-.4-.8.8 0 1 .4 1.3 1 .7zm6.8-4.8c.1-2 .3-3.6.5-3.8.3-.5 0-3.5-.6-5.4-.6-1.6-.8-3.3-.7-3.8.1-.2.5-.3 1-.2l.8.1-.1-1.5c0-1.5-.1-1.6-.9-1.7-1.1-.2-1-.9.1-1 .9-.2 1-.3 1-1.1a6 6 0 0 0-.1-2c-.3-.9-1.3-2.3-1.6-2.3-.1 0-.4 1.6-.5 3.5-.3 3.4-.3 3.6.2 4 .5.3.8 1.2.2.9-.8-.5-1 .4-1 5.9a268.8 268.8 0 0 1 0 11.7s.4.4.6 1l.5 1 .2-1 .4-4.3zm4.7 4c-.6-.7-.5-1 .2-1 .6 0 .7-.3 1-6 .3-2.9.5-4.3.7-4.6.5-.5.5-1.8.2-2.7l-.6-1.7c-.3-1.4-.8-1.2-.7.3l-.1 3.6c-.5 5.9-.7 6.5-1.2 4.7-.2-.8-.3-.6-.4 1.6-.4 5.2-.4 5.9 0 5.9 0 0 .5.2.7.5.3.3.6.4.6.3 0-.2-.1-.6-.4-1zM69.7 54.3l-.2-4.3v-1.3l-.2 1.7c-.3 2.2-.3 5.9-.1 6.4.4 1.1.6.2.5-2.5zm17.2 2.4c.4-.1.6-.4.6-.7 0-.3-.2-.3-1.1-.2-1.3.2-1.7.5-1.4 1 .1.5.4.5 2-.1zm27.1.3c.7-.4.6-.8-.2-.8-.5.1-.8.3-.8.6-.1.5.2.6 1 .2zm6-3.4-.1-3.3c-.2-.2-.4-.8-.6-1.5l-.4-1.1-.3 1.7c-.5 2.3-.5 4.6-.1 6 .9 2.7 1.2 2.4 1.4-1.8zm11.7 3.4c.3 0 1.3-2.8 1.6-4.5l.4-10.4v-8.7l-.6-.4c-1-.6-1.2-.2-1.3 2.5l-.3 4.2c-.2 1-.3 3-.4 4.3l-.2 2.5.5-1.7c.8-3.5 1.1-1.7.4 2.3a80.7 80.7 0 0 0-.8 10l.7-.1zm74.5-.7c.2-1-.3-1.6-.9-1.1-.4.3-.4 1.7 0 1.9.6.2.7.2.9-.8zm-165-1c0-1.7 0-1.7-.6-1.7-.4 0-1 0-1.4.3-.5.2-.6.4-.6 1.4 0 1.3.2 1.6 1.6 1.6h1zm26.6 1.4c.4-.1.7-.3.7-.5 0-.1-.4 0-.8 0-.5.2-.8.5-.8.6 0 .3 0 .2.9 0zm25.2-.3c0-.2-.2-.1-.2.2 0 .3 0 .4.2.3v-.5zm15.4-.2c0-.5 0-.8-.2-.7-.2.1-.3.5-.3.8 0 .4.1.7.3.7l.2-.8zM3.8 55.6l.2-3.8.2-2.9-.4 2.8c-.4 2.8-.5 5.2-.3 5l.3-1zm12.5.9c0-.3-.5-.7-.7-.5-.1.2.2.7.5.7.1 0 .2 0 .2-.2zm58.1 0c.4-.2.2-.3-.7-.3-.7 0-1.3.1-1.3.3 0 .3 1.3.3 2 0zm6.8-.3c0-.3 0-.5-.2-.5l-.4.5c-.2.4-.2.5.2.5.2 0 .4-.2.4-.5zm34.6.3c0-.2 0-.3-.2-.3s-.3.1-.3.3c0 .1.1.2.3.2.1 0 .2 0 .2-.2zm52.6-3c0-1.4.2-3.8.4-5.4.3-3.8.3-5 0-4.7-.2 0-.3.4-.3.7l-.4 2a33 33 0 0 0-.5 2c-.1.4-.4.8-.7.9-.3 0-.5.3-.5.7l-.2 2-.1 1.5.5-1 .4-.9v1.5l.3 2.6c.1 1 .2 1 .5.8.3-.3.5-1.3.6-2.8zm-145 1.2c-.3-2-.5-2.4-1-1.8-.1.2-.5.4-.8.4-1 0-.5 2 .6 2.5 1.2.7 1.4.5 1.2-1.1zm65.8-.7c0-2.7-.4-2.6-.5.1-.1 1.6 0 2.1.2 2 .2 0 .3-.7.3-2.1zm17.5 1.5c.4-.5.4-.7.2-1-.4-.4-1.1.3-1.1 1 0 .9.4.9 1 0zm57.2-6c0-3.4.1-8.3.3-11 .3-4.5.2-5.7-.2-5.5a69 69 0 0 0-1 12c-.5 10.4-.4 11.7.7 10.9.3-.3.3-1.6.2-6.4zM110 54.7c0-.2-.2-.4-.4-.4-.3 0-.4.3-.4 1s0 .7.4.3c.2-.3.4-.7.4-1zm13.8.8c0-.2-.2-.3-.3-.2-.1 0-.3.2-.3.4l.3.2c.1 0 .3-.2.3-.4zm-58-1.3c.2-.7.3-2.1.3-3 0-1.7 0-1.9-.5-1.9s-.5.3-.6 3v3.2c.2.5.7-.1.9-1.3zm3-3.7v-2l-.8.2-.8.2c-.1.2-.6 3.6-.6 4.6 0 .7.1.8.7.8.4 0 .6.2.6.5l.2.7c.3.3.6-2.2.6-5zm15 5c.1 0 .3-.2.3-.4 0-.3-.3-.3-1-.3s-1.1.2-1.1.3c0 .4.4.6.9.5l.9-.2zm30.6-.2c.4-.5.5-.9.1-1-.2-.2-1.6.8-1.6 1.1 0 .4 1 .3 1.5-.1zm104.4-.2c.1-.8 0-1.8-.3-1.8-.2 0-.3.5-.3 1.2 0 1.2.4 1.6.6.6zm-189-1.2c-.1-1.4-.5-2.2-1-1.9-.2.3.5 3.4.8 3.4.2 0 .3-.6.2-1.5zm57.4 1c.4-.4.4-1 0-1-.1 0-2.1.7-2.3.9v.3c.3.3 1.8.1 2.3-.3zm29.7.3c0-.3-.6-.9-1-.9s-.4.8 0 1c.5.1 1 .1 1-.1zM14 54.7c.1 0 .2-.5.1-1 0-.8-.1-1-.5-1.2-.7 0-.9.2-1.1 1.5l-.2 1.2.8-.2 1-.3zm60.8-2.9c0-3 0-3.3-.4-3.3-1-.1-1.8 0-2 .4a17 17 0 0 0 0 5l.1 1.2h2.3zm-57.7 1.7c0-1.1 0-1.5-.6-2-.8-.7-1.2-.3-.5.5.4.5.4.5 0 1-.6.6-.6 1 .1 1.5 1 .6 1 .5 1-1zm3.1.5-.1.3c0 .4 0 .6.1.4V54zm41.7.6c.4-.2.5-.6.5-2.6 0-2.2 0-2.4-.6-2.4-.8 0-1 1-.8 3.3 0 1.1.2 2 .2 2l.7-.3zm31.8-.6c.1-.5 0-2.3-.1-4.2a71.1 71.1 0 0 1-.5-7.5c-.2 0-.2-.5 0-1.1.2-.5.2-1.4.1-2-.2-1.5-1.2-3.7-1.5-3.4-.3.3-.4 16.6 0 17 .3.3.4 0 .7-2.2.1-.8.3-1.2.5-1.1.2.1.2 1 0 2.8 0 2.1 0 2.6.3 2.6.2 0 .4-.4.5-.9zm82.6-1.4c.2-1.8.3-2 .6-1.6.3.5.3 0 .2-2.6-.1-1.8-.3-3.3-.5-3.5-.2-.3-.2-.5 0-.7.5-.4.4-2 0-3-.5-.8-.6-1.4-.2-1.4.3 0 .4-1 .1-1.7-.3-.7-.6-.5-.6.5 0 .5-.1 1-.3 1-.1 0-.2 2.4-.2 6.7 0 6.6-.3 8.3-.7 5l-.3-1.6v1.9c-.1 2.2 0 3 .6 3 .9.3 1 .1 1.3-2zm48 .4a94 94 0 0 0 1.1-18.6c-.3-.6-.4.7-.8 7.6a46 46 0 0 1-.7 6c-.2.8-.4 2.6-.4 4.2 0 2.2 0 2.7.4 2.7.3 0 .4-.4.4-2zM11.5 54.2l.1-.7c0-.4 0-.6-.2-.5-.2 0-.7-.1-1-.4-.8-.5-.8-.5-1.2.5-.5 1.4-.4 1.5 1 1.3.7 0 1.3-.1 1.3-.2zm84.9-.3v-2.3c-.2-1.4-.3-1.7-.8-2-.4-.2-.5-.2 0-.3.2 0 .4 0 .4-.2 0-.4-1-1.2-1.3-1-.3.2-.4 6-.1 6.3l.9.2c.5 0 .7-.1.9-.7zm2 .4c.1 0 .2-1 .2-2.4l-.1-2.4-.7-.1-.8-.1v2.5c0 2.5.2 3 .8 2.7l.6-.2zm-71.2 0c0-.4-.8-2-1-2.2-.2 0-.3-.5-.3-1 0-.4-.2-.7-.4-.7l-1.2-.2c-.7-.1-.8 0-.8.5l.4 1.7c.3.9.6 1 1.6 1.4 1.5.5 1.7.6 1.7.4zm96.7-.8c.4-2.9.4-3.4 0-3.4-.3 0-.7 1.7-.7 3.5 0 1 .5 1 .7-.1zm15.8-1.7c-.6-2.5-.5-3.5 0-3.5s.7.5.7 1.5.7 3.1.9 2.8l.3-3 .2-2.7-1.7-1.7c-1.9-1.8-2.4-2-2.2-1.1l.6 3.5c.5 4.1.8 5.6 1.1 6.2.6 1 .6.4 0-2zm3.7 1.8a3 3 0 0 1-.6-1.1c0-.5-.7-1.4-.9-1.1l-.1 1.4c0 1.3 0 1.4 1.6 1.5.5 0 .5 0 0-.7zm-108.5-.4c-.2-.2-.3-.2-.3.1 0 .2 0 .5.2.6h.3c0-.3 0-.5-.2-.7zm20.9-1c0-1.8 0-1.8-.7-1.8-.6 0-.7 0-.7 1.5 0 1 .2 1.6.5 1.8.8.6.9.5.9-1.5zm27.1 1.5c.1-.2.4-.4.6-.4.2 0 .3-.2.2-.5 0-.2 0-.5.2-.6.2-.1.2-.2 0-.2-.4 0-2 1.6-1.8 1.8.2.4.7.3.8-.1zm61.8-1c-.9-1.4-1.9-3.7-1.7-4v-.6c-.2-.4-.3-.1-.6.8-.4 1.6-.5 2-.2 1.9.3-.2 1.4 1 2.2 2.3.4.6.7 1 .7.8.1-.2-.1-.7-.4-1.2zm-91 .3c.2-1 .1-2.3-.1-2.5H53c-.5.1-.6 2.3-.1 2.3.1 0 .2.2.2.5 0 .8.5.6.7-.3zm32.7.4c.6-.3 1.1-.6 1.1-.8 0-.4-.3-.5-1.6 0-.7.1-1 .3-1 .7 0 .6 0 .6 1.5 0zm17-.6c0-.6.3-1.1.5-1.3.5-.3.6-.7.6-3.5 0-2-.1-3.2-.3-3.2-.2 0-.2.3-.1.7 0 .4 0 .7-.4.9-1.1.6-2 4.2-1.1 4.8.3.2.3.3 0 .6-.2.2-.2.5-.1.7 0 .1 0 .5-.2.8-.2.5-.2.6.3.5.5-.1.7-.3.8-1zm3.4-3.8c0-3.6 0-4-.5-4.7-.3-.5-.7-.7-.8-.7-.4.3-.3 9 0 9.7.3.5.3.5.8.1s.5-.8.5-4.4zm1.5 4.1c-.3-.3-.5.1-.3.5.2.3.3.3.4 0V53zm40-1.3c-1-2-1.1-3.2-.6-4.4.4-1 .4-1-.2-2l-.8-.8s-.2.4-.2 1c0 2-.4 1.1-.6-1 0-1.8-.2-2.3-.6-2.7-.3-.3-.7-.5-.8-.4-.2 0-.3 1.5-.3 3.5v3.3l1 1.2 2.2 2.7c.8 1 1.4 1.5 1.5 1.4l-.6-1.8zm11.7-.4c0-2 .2-2.4.7-1.4.3.7.3.6.4-1.1 0-2 0-2-.7-2s-.9.5-.3 1c.2.3.2.4 0 .7-.3.2-.4.2-.7 0-.1-.2-.4-.3-.5-.3-.3 0-.2 1.4.1 1.7.2.3.2.5 0 .8-.4.4-.2 1.7.3 2.5s.7 0 .7-1.9zm19.3 1.5c.2-.4.1-.9-.1-1.4-.3-.5-.4-.9-.1-1.3.4-1 .3-1.9-.2-2-.4-.2-.5-1.3 0-1.7.1-.2 0-.4-.3-.6-.6-.3-.6-.3-.6 3.7s0 4 .6 4c.3-.1.6-.4.7-.7zM6.6 52.3l.5-4c.3-2.6.4-3.3 1.2-4.9l1-1.8-.8-.2a2 2 0 0 1-1-1l-.3-.7-.2.8c-.6 2.2-1.2 7.1-1.2 9.8 0 3 .2 3.8.8 2zm45 .7c1-.5.5-2.2-.6-2-.6 0-.7.2-.7 1.2-.1 1.2.2 1.4 1.3.8zm62.4-.2c0-.3-.1-.6-.3-.6l-.3.1-.1.6c-.1.2 0 .4.3.4.2 0 .4-.2.4-.5zm15.6-.9c0-.6-.1-1-.3-.9l-.2 1.3c0 .6 0 1 .2.9.2-.1.3-.7.3-1.3zm17.2 1.2c0-.3-.7-1.3-1.6-2.4-1-1.2-1-.8.2 1 .8 1.4 1.4 2 1.4 1.4zm34.3-1c0-.3-.1-.1-.1.4s0 .7.1.5v-1zm6.8-2.3-.4-1.4.2 1.8c0 1 .2 2.2.3 2.6.2.5.2.5.3-.4 0-.6-.1-1.8-.4-2.6zm-49.7 2.4-.1.3c0 .4 0 .5.1.3v-.6zm-28.5.2c.3-.4.6-4.9.4-5.7 0-.3-.4-.6-.6-.6-.4 0-.5.4-.4 3.4l.1 3.3.5-.4zm26-5.6c0-.5.1-1 .4-1.3.6-.8.5-3.1-.2-4-.5-.6-.4-1 .3-1 .4 0 .5 0 .4-.8a24 24 0 0 0-1.4-4.8l-.5-1-.2 1.1-.1 5.7c0 4.8 0 4.7 1 1.8 0-.3.1-.3.3-.2.2.3 0 1.4-.8 5.8-.8 4-.7 5.5.1 2.1.4-1.4.6-3 .7-3.4zm72.4 2.7c-.1-2.6-.3-3.6-.7-4.4-.3-.6-.7-1-.8-1a27 27 0 0 0-.3 7.4c.3.3.4 0 .7-1.7 0-.7.2-1.3.4-1.4.3-.2.5.6.2 1.5-.4 1.4-.3 2.9.2 2.9.4 0 .4-.4.3-3.3zM18.9 51.9c.7-.7.8-1.7.2-1.9-.6-.2-1.2.5-1.2 1.6 0 1 .2 1 1 .3zm13.1.2c0-1.3-.4-3.3-.8-3.7-.7-.6-.8-.3-.8 1.6 0 1.4 0 1.7.6 2 .6.5 1 .5 1 0zm164-1c0-2.3-.5-2.7-.5-.5 0 1 0 1.9.2 1.9s.3-.6.3-1.4zm-40.9-1c0-1.4-.2-2-.5-2.1-.3-.3-.4 0-.3 1.7 0 1 .2 2.1.3 2.3.4.6.6-.2.5-2zm63.8 1.1c.5-.8.6-1.4.7-3.3 0-2.7-.2-3-1.3-.9-.6 1.1-.6 1.4-.5 3.2l.3 2 .8-1zm-132.3.5c.4-.2.7-.3.6-.4-.2-.2-2.3.2-2.3.4 0 .3.8.3 1.7 0zm114.2-4.9c0-3.5-.2-4.9-.5-5.3-.2-.2-.4-.4-.5-.3-.5.6 0 9.6.6 10.6.4.6.5-.7.4-5zm-186 4.3c-.2-.6-1-1-1.4-.5-.4.4.2 1.1.9 1.1.4 0 .5-.2.4-.6zm7.7 0c-.1-.6-1.5-2.5-1.7-2.3V50c0 1 .2 1.2.8 1.4 1 .4 1 .4 1-.3zm85.7 0c.2-1.2 0-5.8-.3-5.6a20 20 0 0 0 0 6.2c.1 0 .3-.3.3-.6zm44.7.3c0-.5-1.4-3.1-1.7-3.1-.4 0-.2.8.5 2.1s1.2 1.7 1.2 1zM8.7 50.9c0-.3-.1-.5-.3-.5-.1 0-.3.2-.3.5s.2.5.3.5c.2 0 .3-.2.3-.5zm28.8-.4c-.1-1.2-.7-1.5-1-.6-.5.9-.2 1.5.5 1.5.5 0 .5-.1.5-1zm64 .3c0-.5 0-.5-.3-.2-.5.4-.6 1-.1.8.2 0 .4-.4.4-.6zM123 43a21.4 21.4 0 0 0-1.2-9c.1 0 0-1-.2-1.9a39.2 39.2 0 0 1-.9-4.7c-.2 0 0 16.7.2 17.7l1.6 5.7c.2 1 .5-2.8.5-7.8zM11.3 50.3c.6-1.2 1.8-1.9 2.8-1.5.9.3 1 .3 1-.7 0-.7 0-.8-1-.8-.4 0-1-.4-1.3-.6-.9-1-1.3-.7-2 1.4-.7 1.6-.8 2.1-.5 2.5.3.8.6.7 1-.3zm18 .4c0-.5-.7-1.4-1.2-1.4s-.5.7.2 1.3c.6.7 1 .7 1 .1zm11.3-.5c.7-.8.8-1.7.2-1.7-1.3 0-2.5.6-2.7 1.2-.3 1.5 1.3 1.8 2.5.5zm110 .6-.1-.7-.7-1c-.6-.8-.7-.9-.5-.3.4 1.3 1 2.4 1.2 2.4.2 0 .2-.2.2-.4zm-34-.4.2-2.9.2-2.5-.7.1c-.6.1-.6.2-.6 2.2 0 1.8.1 2.7.4 3.5 0 .3.5 0 .5-.4zm-33.4-.6c0-.1 0-.4-.3-.7-.2-.2-.4-.9-.5-1.5 0-.8 0-1 .5-1.3.4-.1.7-.4.7-.6 0-.2 0-.3.2-.3.4 0 .3-1-.1-1.2-.5-.2-.5-.9 0-1.2.2 0 .4-.9.5-2 .2-1.6.2-1.8-.2-1.7-.6.1-.8-.3-1.3-2-.1-.6-.4-1.2-.5-1.2l-.3 1.8c-.2 2.3-.3 12.3 0 12.6.2.2 1-.3 1.3-.7zm3.7.7h-.5c-.2 0-.1.1.2.1.3 0 .4 0 .3-.1zm27-.6c0-.6-2.5-3-2.9-2.8-.3.2-.1 2.5.2 3 .2.4 2.8.2 2.8-.2zm52.3-4.7c.3-1.3.4-3.1.4-4 0-1-.1-1.4-.2-1 0 .4-.2.9-.3 1-.2.2-.2-.7-.1-2.7a10 10 0 0 0-.2-3.9c-.3-.7-.3-.6-.5 1.6a141 141 0 0 0-.4 13.5c.2.7.3.7.6-.6l.7-3.9zm45.4 1.4a143.3 143.3 0 0 1-.5-8.6 1678.7 1678.7 0 0 0 .8-6.1 667 667 0 0 1 .3-6.4l-1.2 2-1 1.8-.1 8.2-.2 8.2 1 2.4 1 2.2-.1-3.7zm-120.8-6c0-4.6.3-8.9.4-9.5l.5-2.7c.2-1 .4-4.8.3-11.4a227 227 0 0 1 .2-13.7h-6.7c-.2.2-.3 13-.2 14.6l.2 1.3 1.3-.1h1.4v-7c0-4.5 0-7.1.2-7.2.2 0 .4 2.4.4 6.7.2 5.9.2 6.7.6 7.1.6.6.6 1.5.2 2.2-.3.3-.4 1.7-.5 4.3 0 2.2-.1 5-.3 6.5v5c.6 5.7.9 7.5 1.3 8.4.3.9.3 1.2 0 2.8-.5 1.9-.4 2.7.2 1.6.2-.4.4-3 .5-9zm10.3 9.2c.3-.3.5-.6.4-1.3v-.9l-.7 1.1c-.8 1.5-.7 1.8.3 1zm-84.4-.4c.7-.6.6-1.5-.2-1.4-.4.1-.6.3-.6 1-.1 1 0 1 .8.4zm9.4-.8c-.2-.6-.6-1-1-1.3-.5-.2-1-.6-1-.9-.2-.3-.5-.5-.6-.5-.4 0-.3.7.2 1 .4.3.4.3 0 .6-.3.1-.5.5-.5.9 0 .5.2.7 1.2 1 .6 0 1.2.2 1.3.3.6.2.6-.1.4-1zm17.5 1c.7-.4.7-1.6 0-1.6-.9 0-1.6.3-1.7.8-.3 1 .6 1.4 1.7.8zm37.5-1.2c0-.8-.2-1.5-.3-1.5-.3-.1-.5 2-.3 2.6.3.8.6.2.6-1.1zm-34.2.8c.3-.2.4-.6.4-1-.1-.5-.3-.6-1-.6-.6 0-1.1 0-1.3.2-.4.3-.5 1.3-.2 1.6.3.3 1.6.2 2-.2zM87.4 45a447.2 447.2 0 0 0 0-7.9c.2-1.4.1-1.8-.4-2.7l-.6-1.2-.4.7c-.8.9-.9 1.7-1 7.2l-.1 5 .7.7c.4.5.6 1 .5 1.3-.1.6.5 1.6 1 1.6.4 0 .4-.7.3-4.7zm-38 3.3c0-.6 0-.7-.6-.7s-.7 0-.7.7c0 1 .1 1.1.8 1 .4-.2.5-.4.5-1zM115 47l-.4-3-.2-3.8-.3-3.4c-.2-.5-.7-.2-.7.5 0 .2-.1.5-.3.5-.4 0-.4.6-.4 3.8 0 2.4 0 3.9.2 4 .2 0 .2.4.2.6-.1.4 0 .8.4 1.1l1.1 1.4.6.7-.2-2.4zM51.8 48c0-.8 0-.9-.6-.7l-.8.2c-.1 0-.2.3-.2.8 0 .7 0 .8.7.7.7 0 .8-.2.9-1zM189 47c0-1 .3-2 .5-2.5.2-.3.5-1 .6-1.6.1-1 .1-1-.7-1-.8 0-1.7-.7-1-1h1.1c.8 0 .8 0 .9-1.3 0-1 0-1.7-.5-2.5-.9-1.8-1.7-3.1-2-3-.3.4-.1 5 .2 5.4.3.3.3.4-.1.7-.5.3-.5.6-.4 2.7.2 2.8.8 6.2 1 6l.4-1.9zM10 47.3c.8-1.7.8-2 .3-2s-2 2.3-2 3c0 .3.2.5.6.5.4 0 .7-.4 1.1-1.5zm9.7 1.2v-.9c0-.5-.2-.7-1.7-1.4 0 0-.2.4-.2 1.1 0 1.1 0 1.2.8 1.3.9.1 1.1.1 1.1-.1zm14.6-5.2v-5.1c-.2-.2-.3-.3-.3-.1-.3 6.7-.3 10.7 0 10.4l.3-5.2zM54 48c0-.6 0-.7-.6-.7s-.7.1-.7.6c0 .4 0 .7.2.8.4.4 1 0 1-.7zm2 .2c.2-.8-.1-1.3-.8-1.1-1 .2-.8 1.8.1 1.8.4 0 .6-.2.7-.7zm2 .4c.8-.4.7-1.5-.1-1.7-.9-.2-1.2 0-1.2.9 0 1.1.3 1.3 1.3.8zm4.4-1c.1-1 0-1.3-.4-1.4-1-.3-1.4.6-.8 2 .4 1.2 1.1.8 1.2-.7zm118.4-1c0-1 0-2 .2-2 .3 0 .1-6.5-.2-7.4-.6-1.6-.8-.7-.8 3.8 0 5 .2 8 .5 7.7.2 0 .3-1 .3-2zM22.4 48c0-.6-.4-.9-1-.7-.2.1-.3.3 0 .7.3.7 1 .7 1 0zm37.9-.7c0-1 0-1.2-.7-1.2-.6 0-.7.2-.7 1 0 1.2.2 1.4.9 1.4.4 0 .5-.2.5-1.2zm4.2-.1c0-1.3 0-1.3-.8-1.3s-.8 0-.8 1.3 0 1.3.8 1.3.8 0 .8-1.3zm24.6-1-.4-.7c-.3-.5-.4-.4-.4 1.3v1.9l.4-1.1.4-1.3zm35 1.8c.2-.3.2-.9 0-1.3l-.2-.7-.1.8c-.3 1.2-.3 1.7 0 1.7 0 0 .3-.2.4-.5zm28.6-1.1-1-3.9a7.7 7.7 0 0 1-.3-2.4c.3-.5.9.2 1.3 2l.5 1.6.3-1.1c.3-1.4.1-2.1-1-4-1.3-2.3-1.5-2-1.5 3v4.3l.9 1 1 1.1-.2-1.6zm51.2 1.1v-.5l-.3.5.1.5c.1 0 .2-.2.2-.5zm-137.4-.2.1-1.3c0-.8 0-.9-.6-.9s-.7.2-.8 1.1v1.4c.2.3 1 .2 1.3-.3zm83.7-.9c-.3-.7-1-1.2-1.2-.9l.6 1.2c.8 1.2 1.2 1 .6-.3zM33.2 45l.3-6.2c.1-2.9 0-3.2-.3-3.2s-.4.4-.5 3c-.1 4.4 0 9.4.3 9.4.2 0 .3-1.3.3-3zm85.5 1c.3-.3.3-.7.2-1.9-.2-1.5-.8-3-1.2-2.9-.2.1-.2 2.5 0 6.4 0 .4.1.3.3-.3l.7-1.2zm98 1.3c0-.2-.2-.3-.3-.2-.2 0-.3.3-.3.5s.1.4.3.3l.2-.6zm-148.3.2c.2-.1.3-.6.3-1.1 0-.7-.2-1-.6-1-.5 0-.6.3-.6 1.2-.1 1.2.1 1.4 1 .9zm153.1-.6c.4-1.1.8-4 .5-4-.7 0-1.2 1.2-1.3 3-.2 2 .2 2.5.8 1zM71.4 47c.4-.6.2-2.1-.3-2.2-.4 0-.5.1-.7.8-.2 1.5.3 2.2 1 1.4zm59.4-.2c0-.2-.1-.2-.1.1 0 .3 0 .5.1.4v-.5zm-56.2 0v-1.2c-.1-1-.5-1-1.7-.6-.6.2-.7.4-.7 1v.9c.3.2 2.3 0 2.4-.2zm69-3-.1-3.3s-.3 0-.5-.2c-.4-.1-.4.3-.4 3 0 3 .1 3.8.8 3.8.1 0 .2-1.5.2-3.3zM22 46.7c.5 0 .5-.2.5-2.4 0-2.2 0-2.3-.6-2.6-.4-.2-.8-.3-1-.2-.3.2-.3 1.8 0 3.3.2.8.2 1.3 0 1.7-.2.4-.2.5.2.3l1-.1zm15.1-3c-.1-4.2-.5-4.3-.5-.1 0 2.6 0 3.4.3 3.3.2-.1.3-1 .2-3.2zm4.1 2.9.4-3.7.4-4c.5-.7.6.6.4 3.9-.2 2-.2 3.7-.1 3.9.1.3 1.1.3 1.6 0a492.8 492.8 0 0 1 .7-8.3c0-.6 0-.6-1.2-.5-1.8 0-5 .9-5 1.3 0 .2.1.4.3.5.1 0 .2.5.1.8-.2 1.2-.4 6-.2 6.2.1.2 2.4.1 2.6-.1zm-1.6-1.2-.2-4.6c0-.5.2-1.1.5-1.4.3-.5.3-.2.4 2.8 0 3-.2 4-.7 3.2zm3.4-3.2c.2-2.7.3-3.5.7-3.5.2 0 0 4.3-.2 5.5 0 .4-.2.6-.4.6s-.2-.7-.1-2.6zm34.6 3.7c0-1-.1-1-.7-1.2-1-.3-1.5 0-1.5 1 0 1.1.2 1.2 1.3 1.2.8 0 .9 0 .9-1zM205 46l.2-2.1c.1-2.7-.6-4.2-1-2 0 .5-.2 1.3-.4 1.7l-.2 2c0 1.2 0 1.3.6 1.1.4 0 .8-.3.8-.7zm-188 .2a2 2 0 0 0-.3-1c-.4-.5-.4-.4-.4.5 0 .7 0 1 .3 1s.4-.2.4-.5zm11.2-.7c0-.6-.3-1.6-.5-2.2l-.5-1v1c-.1 1.1.4 3.4.7 3.4.2 0 .3-.5.3-1.2zm17.5-2c.1-1.7.3-3.2.5-3.5l.2-1.4c0-.7 0-1-.5-1-.3 0-.6.3-.7.6-.2.6-.6 8-.5 8.3h.5c.2 0 .4-1 .5-3zm52.8-1.6c0-4.5 0-4.7-.5-5-.4-.2-.5-.2-.7 0l-.3 5-.1 4.8h.7l.8-.2zm2.8 4c.5-1 .6-3.3 0-3.5-.4-.2-.2-1.1.3-1.6.3-.2.4-.9.4-2.3 0-1.7 0-2-.6-2-.4-.2-.5-.4-.5-1s-.1-1-.3-1.1c-.1-.1-.2.6-.2 2 0 2 0 2.3-.5 2.4-.5.1-.6.4-.6 3.7 0 3.2 0 3.7.5 3.9.7.4 1 .3 1.5-.5zm-69.5-.3c.4-1 .4-6.2 0-7-.1-.5-.2-.4-.5.4-.6 1.3-1 6.5-.5 7 .5.6.7.5 1-.4zm15-.4c0-1-.3-2-.4-1.3l-.1 1c-.2 1 0 1.5.3 1.5.1 0 .2-.5.2-1.2zm2.3 1c.2-.2-.3-.8-.6-.8-.1 0-.2.2-.2.5 0 .5.5.7.8.3zm2.6-.8.1-4.4c.2-4.1 0-4.7-1-4.2l-.7.3v4.5c0 2.4 0 4.5.2 4.6h.7c.5 0 .7-.3.7-.8zm44.5-1.2c0-1.8-.1-2-.8-2.8a4 4 0 0 0-1-.8c-.3 0 0 1.8.4 2.4.3.3.5 1 .6 1.5 0 1 .2 1.6.5 1.6.1 0 .3-.8.3-2zm16-2.4c-.2-5.4-.3-6-1-6-.5 0-.5.2-.5 4.7 0 4 0 4.7.4 5.2 1 1 1.1.7 1-3.9zM15.5 45c0-1.1-.4-1.3-2.7-1.3-1.1 0-1.4 0-1.4.3s.4.5 1.2.7a7 7 0 0 1 1.8.8c1 .6 1 .5 1-.5zM54 41.3c.2-4.7 0-5.3-.8-4.8a50.5 50.5 0 0 0-.6 8.9c0 .3.3.5.6.5.6 0 .6-.1.8-4.6zm1.7 4.4c.2-.1.3-1.8.4-4.8 0-4.6 0-4.7-.5-4.6l-.6.2c-.2.2-.6 8.6-.4 9 .1.4.6.5 1 .2zm105 0a1 1 0 0 0-.7 0l.3.1c.3 0 .5 0 .3-.1zM58.1 45c.1-.2.2-2.2.2-4.5 0-3.5 0-4.2-.4-4.3h-.6a83.8 83.8 0 0 1-.7 7.2c-.3 1.8 0 2.2.7 2 .3 0 .7-.3.8-.4zm22.7-.3c0-.6-.1-.9-.3-.8-.4.3-.2 1.7.2 1.7l.1-1zM142 43v-2.6l-1-1c-1-1-1.2-1-1.5-.7-.5.7-.7.6-.7-.4a3 3 0 0 0-.7-1.9l-.8-1-.1.8c-.2.7.4 4.8.7 5.6 0 .2.5.7 1 1 .5.3 1.3 1 1.8 1.6l1.1 1.1c.1 0 .2-1.1.2-2.5zM25 43l-.5-.8v.9c-.1.5 0 1.1.3 1.6l.5.7v-.9c.1-.5 0-1.1-.3-1.5zm174-.4c-.2-2.2-.3-2.7-.7-3-1-.8-1.2-.6-1 1.6.2 2 1 4 1.5 4 .1 0 .2-1.1.1-2.6zm19 1.8c-.1-.2-.2 0-.2.3 0 .4.1.5.2.4v-.7zM19.2 42.3c-.3-1-.7-1.7-.8-1.7-.1 0-.2.6-.2 1.3 0 1 .2 1.6.7 2.3.7.8.8.8.8.3 0-.3-.1-1.3-.5-2.2zm84.3 2 .8-1.2c.5-.7.4-1.3-.3-1-.7.4-1.5 2-1.3 2.6.2.5.3.4.8-.4zm46.8-5.1a298.3 298.3 0 0 1-.3-7.6c-.2 0-.3.6-.3 1.2-.1 5.6-.3 9.3-.4 9.8-.2.7.6 2.6 1 2.4v-5.8zm-88.4 2-.2-3.6c-.1 0-.3 1.1-.3 2.7s-.2 3.1-.3 3.4c-.2.4-.2.6 0 .8.7.7.9.1.8-3.2zm48.1 2.6v-3l-.2-2v2.5c0 1.6-.2 2.4-.3 2.3-.3-.1-.4.8-.1 1 .4.4.6.2.6-.8zm38 .3c-.5-.4-.5-.4-.2.1.2.4.4.6.5.5.1 0 0-.4-.3-.6zm31 .2c0-.6-.6-1.3-1-1.3-.3 0-.3.7 0 1.3.4.7 1 .7 1 0zM5.8 42.9c.2-1 .2-1.8 0-2l-.2-2c0-1-.2-2.2-.5-2.9-.3-1-.3-1.4-.1-2 .1-.6.2-4.2.2-9.3-.1-10.1 0-9.2-.5-9.2-.3 0-.3.6-.2 3.6.1 4.6.2 7.8 0 16 0 6.3.3 9.5.8 9.5l.5-1.7zM65 39.6l.2-5c0-.2-.5 0-1 .1l-1 .5.2 4.2c.1 4.6.2 5.2.9 5.1.4 0 .5-.8.7-5zm96.3 4.5a40.2 40.2 0 0 0-.4-10.8c0-.7.5-3.8 1-4.9.6-1.8.6-2-.5-2-1.7-.2-1.6-.1-1.5-6.6l.2-5.8-.8-.5c-.7-.4-.8-.4-1 0l.1 1.4.3 4.5c.1 6 .2 6.7.8 7.6.5 1 .5 1 0 1.3-.3.2-.4.5-.4.7v2.3c-.3 1.7-.2 2 .1 2.3.3.2.4 1 .5 4.2 0 3 0 4 .3 4 .5.2.5.8 0 1.2-.5.2-.5.2 0 .4.4 0 .6.4.6.7 0 .6.5.6.7 0zm6.9-.7.3-2.8c.1-2 0-2-.4-2.2-.5-.1-.6-.3-.4-.8 0-.5 0-.7-.2-.7s-.2.5-.1 2.2l.2 3.8c0 1.7.3 2 .6.5zm51.7-.1c0-.3-.1-.3-.5.2-.7.9-.7 1.3 0 .7.3-.3.5-.7.5-1zm-153 .3.4-1.6c0-.6 0-1.2.2-1.4.2-.3.3.2.3 1.5 0 1.7 0 2 .4 1.9.4-.1.5-.6.7-4.5.3-5.5.3-5.5-1.4-5.5-.7 0-1.3 0-1.4.2-.2.3-.8 9.3-.6 9.7.2.7 1.2.5 1.5-.3zm50-.1c0-.5 0-.8-.1-.7-.3.1-.1 1.5 0 1.5l.2-.8zm92.2-1.7c0-1.7-.1-2.5-.3-2.4-.4.2-.2 4.9.2 4.9v-2.5zM23.6 43.2c-.1-.2-.3-.2-.4 0-.2.1-.2.4-.1.6.1.2.3.2.5 0v-.6zm5.8.4c.2-.5-.2-1.4-.6-1.4-.3 0-.4.8-.1 1.4.2.5.5.5.7 0zm79.4-4 .6-8.3c.1-3.8 0-4-.3-3.5-.3.3-.7.6-1 .6-.4 0-.4.4-.6 3.9a44.5 44.5 0 0 1-.2 4.6c.2 0 .3-.3.3-.5 0-.3.1-.6.3-.6.3 0 .3 2.6 0 5.3-.2 1.8-.1 3.1.2 2.8l.7-4.3zm21 1.3c.4-2.8.4-7.9 0-8.1l-.3-.1-.3 4.2c0 2.2-.2 4.8-.3 5.7-.2 2.4.4 1 .9-1.7zm-103 .5c-.2-1.6-.2-1.6-1.3-2.1-1.4-.7-1.4-.7-1.5.2-.2 1 .8 2.7 1.4 2.6.2 0 .4.2.4.5.2 1.2.3 1.3.7.9.3-.3.3-.9.2-2zm188 .6v-1.8l-.3 1.1c-.3 1-.2 2.5.2 2.5V42zm1.9-1.3c.4-5 .7-12.4.5-12.8-.4-.8-.9 3.3-1 9.5-.2 6.7 0 8.3.5 3.3zm-144.9-.4.5-5 .2-2-.6.3c-.4 0-.7.2-.8.3-.1.1-.3 2.3-.3 5-.2 4.3-.2 4.6.2 4.5.4 0 .6-.5.8-3zm5.7-.3c0-2.1 0-3.2-.3-3.4-.1-.2-.3-1.3-.3-2.6 0-2.1 0-2.2-.3-1-.2.9 0 5.3.2 9.5.1 1 .1 1.1.4.8.1-.1.3-1.6.3-3.3zm69.9 3c-.2-.3-.3-.3-.3-.1 0 .3.3.6.4.5.1-.1 0-.3-.1-.5zm-77.5-2c.5-6.7.5-7 0-7-.3 0-.4.2-.4 1.3l-.1 4.6c-.2 3.7.2 4.6.5 1.2zm4.7 2v-1.4c0-.8-.2-1-.5-.6s-.5 1.7-.2 2c.3.3.6.3.7 0zm81-5.3a3175.5 3175.5 0 0 1-.1-17.9c-.1 0-.3 2.1-.4 4.8 0 2.8-.3 6.3-.4 8a23.4 23.4 0 0 0 .5 9.8l.2.8.1-5.5zM75.7 40l-.3-3c0-.1-.2 1.2-.2 2.9 0 2 .1 3 .3 3 .3 0 .3-.8.2-2.9zm-60 2.4c0-.6-.6-2-.8-2a4 4 0 0 0-1 .3c-1.1.6-1 1.4 0 1.7 1.2.4 1.8.4 1.8 0zm133-5c.1-4.5 0-5.2-.3-5.6-.3-.3-.8-.5-1-.5-1 0-.9-.7 0-1 1-.1 1-.4.2-.8-1-.5-.9-1.2.1-1l.8.2v-1.8c0-1.5 0-1.7-.5-1.8-.6-.2-.7-.6 0-1.1.4-.4.4-.8.3-2.8-.2-2.3-.2-2.4-1-2.7-.5-.2-.9-.3-1-.2-.3.3-.1 2.3.2 2.6.2.3.2.5 0 .8-.4.3-.3.4.1.4.5 0 1.1.4 1.1.8 0 .1-.4.2-.9.2h-1v2.2c0 1.6.2 2.3.5 2.6.4.5.4.5 0 1-.4.4-.5.8-.3 3.5l.2 5.4c0 2.3 0 2.4 1 3.7.4.7 1 1.2 1.2 1.1.2 0 .3-1.5.3-5.2zm53.8 3.8c0-.7-.1-1-.2-.7-.2 1.2-.6.6-.6-.9v-1.5l-.2 1.4c0 1.6.3 3 .7 3 .2 0 .3-.6.3-1.3zm19.7-.2.3-3c0-1 .3-2 .5-2.2.3-.3.4-1 .4-1.8v-1.5L223 34c-.7 1.8-1.3 4.7-1.3 6 0 .4-.2.9-.3 1-.1 0-.3.4-.3.8 0 .5.1.6.6.5.3-.1.5-.5.6-1.3zM12.6 42c0-.2 0-.4-.2-.4l-.4.3c-.1.2 0 .3.2.3.3 0 .4-.1.4-.3zm68.6-4v-3.8l-1 .2c-.6 0-1.1.3-1.2.5-.5.7-.2 3.6.5 5 1.4 3.3 1.7 3 1.7-1.9zm25.7.4v-9.7c.2-5.7.2-5.8-.3-5.8s-.6.1-.6 1c0 .6.2 1.3.4 1.6.2.4.2.6-.2 1a93.6 93.6 0 0 0 0 14.6c-.4.5-.2 1 .3 1 .3 0 .3-.6.4-3.7zm9.7 3.4c.3-.3.3-1.3.2-4.2l-.2-7.5c0-2.5 0-3.8-.3-3.8a288 288 0 0 1-.4 11.2c-.1 4.6 0 5.2.7 4.3zm70-1.4c-.3-.4-.5.2-.3 1l.3 1v-2zm-7.6-1c0-1.3-.2-2.6-.4-2.8a16 16 0 0 1 0-5l.3-4.8s-.3 0-.4.3c-.4.3-.7 3.6-.7 7.8 0 2 0 3.2.4 4 .4 1.1.4 1.2 0 1.5-.5.4-.5.4 0 1l.7.5v-2.5zm28.7 1.4c0-2.1 0-2.6-.3-2.5-.4.3-.5 2-.2 2.8.3 1 .5.9.5-.3zm-129.3.3c0-.2-.1-.2-.1.1 0 .3 0 .5.1.4V41zm139.7-.3-.1.3c0 .4 0 .5.1.3v-.6zM23.2 41c0-.1-.2-.4-.5-.6-.5-.3-.5-.5-.4-2.2.2-2.4-.2-4.1-1-4.3-.7-.1-.7 0-.9 1.9l.1 2.2c.2.2.3.7.3 1.3 0 .8.2 1 1 1.5 1.2.6 1.4.7 1.4.2zm4.8-.7c-.7-.4-1 .3-.4.7.5.4.5.4.6 0 0-.3 0-.6-.2-.7zm91.8-.2c0-1.2 0-1.2-.3-.4-.2.5-.2 1-.1 1.3.2.7.4.4.4-.9zm25.3-.8-.7-.7v.7c0 .9 1.1 1.9 1.3 1.1 0-.2-.2-.7-.6-1.1zm-133.8.9c.9-.5 1-.6.5-1.2-.2-.3-.3-.3-.9.4-1 1.2-.9 1.5.4.8zm6.1-1.4c.5-.9.6-1.2.3-1.4-.2-.3-.3-.2-.5.4-.2.4-.5.7-.7.7-.4 0-.6 1.3-.2 1.7.2.2.4 0 1.1-1.4zm2.4-1.1c.1-4.4 0-4.7-.6-4.8-.4 0-.6-.4-.8-1l.1-1 .2-.3c0-.2-2.3-1.2-2.5-1l-.2 1.2c0 1 0 1.2.5 1.2h.9c.5.1-.2 1-.7 1-.5 0-.4 0 .1 1 1.1 1.5 2.2 3.7 2.2 4.3 0 .7.5 2.2.6 2 .1 0 .2-1.2.2-2.6zm39.3 2c0-.2-.1-.1-.1.2l.1.4v-.6zm37.4-2.4c0-2-.4-2.8-1.5-2.8-.7 0-.7.2-.6 3 0 1.2.2 1.5.9 2 .8.8.8.8 1 .2l.2-2.4zm29 1c.7-2.1.9-4.9.4-5.6-.3-.4-.6.9-1.2 4.5-.5 2.9-.5 3.1-.2 3.1.2 0 .6-1 1-2zm75.3-.3c0-1.8-.1-2.4-.4-2.5-.6-.3-.7 0-.7 2.2 0 1.8.3 2.6.9 2.6 0 0 .2-1 .2-2.3zm-190.9.7a4 4 0 0 1 1.6-1.5c1-.5 1-.5.9-3 0-2-.3-2.4-1-1.9-.5.3-.7.3-1-.3-.6-1-1.1-.8-1.3.3-.2 1.2 0 1.4 1 1.4 1.2 0 1.7.8 1 1.4-.3.3-.6.5-.8.5-.8 0-1.3 1.1-1.4 2.7 0 .8.1 1.5.2 1.5l.8-1zm19.7-.2c0-1.6-.3-1.7-.8-.4-.2.7-.2 1.1 0 1.3.6.7.8.4.8-1zm75.5 0v-8.8c-.1-7.9 0-9.3 1-11 .5-.8.5-1 .2-4l-.4-3.2-.4-3.6c-.3-3.7-.6-4.6-1.2-4.6-.3 0-.4 0-.2.2.6.2.4.8-.4 1-.8.3-.8.3-.9 2.7 0 2-.1 2.3-.6 2.2-.4 0-.4 0-.3.5l.2 1c0 .5 1 .4 1 0l.2-.7V9c.1-1.4.6-.8.6.6 0 1 .2 1.6.6 2.1.4.6.5 1 .4 1.5-.2.8-.2.8.5.8 1 0 .7.9-.4 1.1l-.8.3v4.7c0 2.5-.1 7.5-.3 10.9-.3 5.7-.3 6.3.1 7.2l.5 1.2c0 .2 0 .3.2.3.1 0 .3-.6.4-1.3zm-1.7-32c0-.2.2-.3.6-.3.3 0 .6.2.6.4 0 .1-.3.3-.6.3-.4.1-.6 0-.6-.3zm15.1 32.7.4-1.3c0-.6.3-1 .5-1 .5 0 .5-3.7.1-9.8-.2-2.3-.3-6.9-.3-10.3-.1-5.9-.1-6.3-.7-7.5-.5-1-.7-1.2-.8-1-.4.6-.3 3.5 0 3.9.2.2.2 2.1 0 6.2l-.4 6 .8 1.5c.6 1.1.7 1.5.4 1.8-.2.2-.4.2-.7-.2-.3-.5-.4 0-.4 3.9 0 7 .3 9.3 1.1 7.8zm77.5-.8c-.4-.5-.6 0-.2.8.3.7.3.7.4 0 0-.2 0-.7-.2-.8zm-189 0c.2 0 .4-.2.4-.7l.4-1.6c.7-1.1.3-1.2-.8-.2-.9.9-1 1-1 2.4 0 1 .1 1.2.3.8.1-.4.4-.6.6-.6zm8.4-.8c-.2-1.7-.8-2.5-1.7-2.2-.5.2-.5.3-.4 2l.3 1.8.6-.2c.4-.2.6-.2.9.2.4.6.5 0 .3-1.6zm59.4-2.8.5-5.6c.2-.8.2-1.1-.1-1.3-.2-.2-.4-.3-.5-.2l-.3 4.2a32 32 0 0 0 0 7.6c.1-.1.3-2.2.4-4.7zm-25.4 3.7c.1-.5-.4-.4-.6.1-.1.3 0 .4.1.3.2 0 .4-.2.5-.4zm122.8-3.3a119.4 119.4 0 0 0 .8-5.4c.2-.9.3-2.2.2-3.2-.1-1.1 0-2.3.2-3.3.4-1.5.3-2.6-.2-2.6-.2 0-.3.4-.3 2.2 0 1.1-.5 3.5-.9 4.8a6 6 0 0 0-.2 2.2c0 .4 0 2-.2 3.5-.4 3-.3 6.2 0 5.2.2-.4.4-1.8.6-3.4zm26.8 1.6.2-1.8-1-.4-1.1-.4c-.2 0-.3.7-.3 1.6 0 1.5 0 1.7.8 2.4l1 .6c.2-.1.3-1 .4-2zm6.8.3c0-1-.1-1.5-.2-1.4-.1.2-.4.4-.7.5-.3.1-.4.3-.2.6l.4 1.2c.3 1.3.7.8.7-1zm-77.5 1c0-.3-.2-.4-.3-.3-.2.1-.2.3-.1.4.2.4.4.3.4-.1zm13.3-.6c-.2-1.3-1.6-4.3-2-4.3-.1 0-.2.6-.2 1.6 0 1.4 0 1.6 1 2.6.5.6 1 1 1.2 1v-1zm4-3a30.8 30.8 0 0 0-.7-5.6c0-.3-.2-.5-.4-.5-.1 0-.2 1.5-.2 4 0 3.4 0 4 .6 5l.7 1v-4zm8.3 2.2c0-1 0-1.1-.4-1.1-.3 0-.7-.2-.8-.4-.6-.5-.6 0-.2 1.2.9 2.2 1.4 2.3 1.4.3zm60.6-5c0-3-.4-1-.6 3.3l-.1 3.3.3-2.2c.2-1.2.4-3.2.4-4.4zm4.4 4.2c.1-1.3 0-2-.1-2-.2 0-.3.3-.3.6 0 .2 0 1.2-.2 2.1-.1 1.4 0 1.7.2 1.4.1-.1.4-1.1.4-2.1zm-50.5 0-.1.7c0 .8 0 1.1.1.7V36zm-136.6-.3-.8.2-.6.3.7.7.7.7.1-.8v-1zM143.5 37c0-.5-.3-1.1-.5-1.4-.4-.6-.4-.6-.4.1 0 .9.5 2 .8 2 .2 0 .2-.3.1-.7zM25.2 37c1-.4 1-.4.6-.9-.6-.6-.6-1.6 0-1.8.5 0 .6-.3.6-1 0-.8 0-1-1-1.2-.6-.1-1.1-.4-1.2-.6-.2-.5.1-1 .5-1 .5 0 .4-.8 0-1-.4 0-1 1-1 2 0 .6 0 .8.5.8.8.2.9 1.6 0 1.8-.4.1-.4.4-.4 1.7 0 1 0 1.6.2 1.6l1.2-.4zm59.3-1.9c-.1-.5-.3-.9-.4-.9-.3 0-.4 1.2-.1 2.5l.2.8.2-.7c.1-.5.2-1.2 0-1.7zm107.9-.3-.8-1.2c-.2-.5-.2-.5-.3.2 0 .4.2 1.3.6 2.2l.8 1.5v-1c.1-.7 0-1.2-.3-1.7zM34.6 36.6c0-.2-.1-.2-.3-.1l-.2.4c0 .2 0 .2.2.1.2 0 .3-.3.3-.4zm161.4-1a16 16 0 0 1-.3-2.5c0-1 0-1.3-.6-1.6-1.1-.7-1.4-.6-1.3.8 0 2.7 0 3 1 4 1.1 1.1 1.5 1 1.2-.7zm11.6-2.5c.1-2 .3-3.6.2-3.8 0-.1-.3.2-.5.8-.5 1.2-.9 7.3-.4 6.8.2-.1.5-1.9.7-3.8zm1.5.9c.2-2.6.1-2.8-.3-2.3-.3.4-.4 1.1-.4 3 0 3.5.5 2.9.7-.7zM38.8 36.4c.3-.3.7-.6 1-.6 1 0 1.2-.3 1.1-2 0-1.5 0-1.5-.4-.8-.3.8-.3.6-.3-2.1 0-1.7-.1-3-.3-3-1 0-2 3.1-2.3 6.4-.2 2.8 0 3.1 1.2 2zm0-2.7c0-.8.2-1.7.3-2.1.3-1.1.6 0 .4 1.7-.2 2-.7 2.2-.6.4zM28.5 36c.3-.4.4-.6 0-1.7-.3-1.3-1.2-2.2-1.2-1.3 0 .3.2.7.4.8.5.5.7 1.7.2 1.8-.4.2-.5 1-.1 1l.7-.6zM49 35c0-.8 0-1.2-.2-1-.3.1-.6 2-.4 2.5.3.5.5-.2.6-1.5zm133.6.9c-.4-1-1.3-1.7-2-1.5-.4.2-.4 0-.2-2.7v-3c-.3-.2-.7 3.8-.5 4.7l.3 1.3c0 .7 1.7 2 2.4 2 .2 0 .2-.2 0-.8zm-89.1-.9c-.1-1.6-.6-2-.7-.7-.1 1.1.1 2.2.5 2.2.1 0 .2-.6.2-1.5zm-47.5.4c1.8-.3 2.7-1 1.7-1.4-.4-.2-.5-.4-.5-2.5 0-2 0-2.2-.5-2.1-.3 0-.4.4-.6 2.3 0 2.2-.3 3-.7 2.8-.2-.1 0-4.8.3-5.6.2-.4 0-.7-.2-1-.2-.1-.4-.5-.4-.6-.1-.2-.4-.2-.7 0-.6.1-.6.3-.6 3.3 0 2-.1 3.2-.3 3.2-.1 0-.3-.5-.3-1 0-1.5-.2-1.2-.5.5-.1 1.1-.2.6-.2-2.4 0-4.2-.2-5-.8-5-.2 0-.3.4-.4 1.5 0 2.1.1 8 .3 8.3 0 .2 1.7 0 4.4-.3zm53-1.7c0-1.3 0-2.2-.2-2.4-.2-.2-.3-.1-.1.4.1.5 0 .7-.4 1-.6.5-.6.6-.4 1.9.1 1 .3 1.3.6 1.3.3-.1.4-.5.5-2.2zm16.2-.3c0-1.6-.1-2.5-.3-2.5-.1 0-.2.5-.2 1.1 0 1.6.3 4 .4 4l.1-2.6zm61.4 1.6c0-.5-.1-1-.3-1l-.2 1c0 .5 0 1 .2 1s.3-.5.3-1zm-160.2.4-.1-.4c-.2 0-.3 0-.3.2 0 .5.1.6.4.2zm159-1v.9-.9zm-72-10.9c0-10 0-10.4-.5-10.7-1-.8-1.2-.1-1 3.5 0 1.8.3 3.4.4 3.4.1 0 .2 2.3.2 5 0 2.6 0 6.1.2 7.8.3 5.9.7 1.7.7-9zm35.3 9.8c-.3-3.2-.4-3.5-.8-4.4l-1-1.3-.6-.5.2.9.3 2.8c0 1 .2 2 .4 2l.2.9c0 .6.7 1.7 1.1 1.7.2 0 .3-.7.2-2zm-86.8.3c.4-2.1.6-5.6.3-5.8-.4-.2-.7 1.1-1 4.3-.1 3.3.2 4.1.7 1.5zM36 34c0-.3-.2-.6-.3-.6-.2 0-.3.3-.3.7 0 .4.1.6.3.5l.2-.6zm14.8.1v-.7c-.2 0-.3.3-.3.7v.7l.3-.7zm-35.5 0c0-.2-.1-.4-.3-.4l-.2.4c0 .2 0 .4.2.4s.3-.2.3-.4zm16.6 0c0-.3 0-.6-.3-.8-.8-.6-1.2-.5-1.2.4 0 .7 0 .8.6.8.4 0 .8-.2.9-.4zm2.7-2.2c0-1.6-.1-2.7-.3-2.7l-.2.4c0 .2-.3.6-.7.9-.8.7-.9 2 0 3.1 1 1.5 1.2 1.2 1.2-1.7zm77.2 2c.1-.4 0-.5-.4-.2-.7.4-.8.8-.1.7.2 0 .5-.3.5-.5zm42.2.1.2-4 .1-3.4-.8-.9-1.4-1.8-.7-.9-.2 1c-.4 1.3 0 2 1.3 2.5 1.8.7 1.2 1.3-.8.7-.7-.2-.7-.1-.7 1 0 1.4.4 1.6 1.2.7.5-.5 1.5-.7 1.5-.2 0 .2-.7 1-1.4 1.8l-1.4 1.3.7.7 1.3 1.3c.7.8 1 .9 1.1.2zm15.3-.8c0-1.2-.6-2.4-.9-1.8v1.8c.1 1 .2 1.2.5 1.1.2 0 .4-.5.4-1zm-86 0V32c-.2-.3-.3-.2-.3.5 0 .6-.1 1-.4 1.1-.2.1-.3.3-.2.5.3.5.5.2.8-.7zm59.8-6.7c-.6-.6-.7-1.3-.1-1.8.4-.3.5-1 .1-1-.5 0-.5-1 0-1.6.6-.7.7-1.9.2-2.4l-1-.3c-.7 0-.8.1-.8.6l.3 5.7c.2 4.8.3 5.3 1 7l.7 1.7v-3.7c.1-3.4 0-3.7-.4-4.2zm-89 7.2c.7-.4.5-4.1-.1-4.8-.6-.5-.6-.5-.7.2-.3 1.5-.5 4.3-.3 4.6.2.3.7.3 1.2 0zm2.6-1.2v-2.7l-.3-2.3c-.1-1.3-.4-1.5-.4-.3 0 .5-.1 1-.4 1.2-.7.6-1 1.6-.6 2 .2.3.3 1 .3 1.6 0 1 0 1.3.4 1.6.7.6.8.5 1-1zm5.4.6c0-.6 0-.7-.4-.7-.3 0-.5.4-.6.9 0 .6 0 .7.4.6.3 0 .5-.3.6-.8zm39.7-4.3c-.2-2-.3-6.4-.4-9.7 0-3.4-.2-6.3-.4-6.5-.2-.4 0-3.2.2-4.6.1-.6.1-.6.5-.1.3.4.3.4.5 0 .2-.7.2-2.7-.1-2.9-.3-.1-2.3.6-2.8 1 0 0-.3 3.6-.4 7.8l-.4 11.5c-.1 3.2-.1 3.9.2 4.1.8.7 1 .1 1-4.5 0-4.2.3-7.4.7-7.8v6.5c-.2 6.4-.2 6.7.3 8.2 1.3 3.4 1.5 2.7 1.1-3zm97 4.2c-1.1-1-2.4-1.2-2.2-.3 0 .4.4.7 1.1.9 2 .6 2.3.5 1.1-.6zm-190.7.3c0-.4 0-.4-.4-.1l-.3.4.3.1c.3 0 .4-.2.4-.4zm174.6-1c.2-.9.3-1.4 0-1.6-.3-.4-.3-1.2.2-1.7.4-.4.5-1.6.2-2-.3-.5-1.3-1-1.5-.8-.3.3-.2 2.5.2 3 .2.5.2.6 0 .8-.4.2-.4.4 0 1.4.3.7.4 1.5.3 1.8v.5c.2 0 .5-.6.6-1.4zm18.3.9c0-.6-.4-1-.8-.7-.1.1-.1.4.1.7.4.7.7.7.7 0zM13.8 33c0-.2 0-.3-.2-.3-.3 0-.4.1-.4.3 0 .3 0 .4.2.4.1 0 .3-.1.4-.4zm82.3-1.4c-.2-2 0-2.7 1-2.7.6 0 .7-.6.9-5.3.1-3.3 0-4.1-.3-5.1-.4-1-.4-1.9-.3-5.7 0-4.2.1-4.5.7-5 .4-.4.5-1 .6-1.7 0-.6 0-1.4.2-1.8.1-.6.2-.6.4-.1.3.4.4.4 1.5 0 2-.6 1.6-1-1.2-1h-2.5l-.1 1-.2 2.5-.4 3.6c-.6 3.2-1 6-1 9.6 0 1.8 0 5.3-.2 7.9l-.3 4.7.6.5.7.4-.1-1.8zm-37.4.6a6 6 0 0 0 .2-1.7c0-.6.2-1.3.5-1.7.5-.9.2-1.8-.5-1.5-.7.3-1 1-1.2 3.7-.1 1.7-.1 2 .3 2 .2 0 .5-.4.7-.8zm1.8-2.2c.2-1.5.3-2.7.2-2.8-.4-.4-.7.3-.7 1.4 0 .6-.1 1.7-.3 2.3-.3 1.2-.2 2.2.3 1.9.1 0 .4-1.3.5-2.8zm4.8 2.3.3-3c.2-2.4.2-3-.2-3.3-.2-.2-.5-.7-.5-1l-.1-.6-.3.3c-.1.2-.3 2.1-.3 4.2 0 3.6 0 3.8.6 3.8.3 0 .5-.2.5-.4zm23-2.4c.4-3.4.4-8.3 0-8.5l-1.5-.2-1.1-.2v9.9l1 .8c.5.5 1 .8 1.1.7l.5-2.5zm104.5 1.6c0-.9-.1-1.3-.6-1.8-.8-.6-.7-1.1.1-.9.5.2.6 0 .5-2a45 45 0 0 1 .4-7c-.3-.3-.6-.1-.6.4 0 .3-.2.6-.4.7-.5.2-.6 1.7-.1 2.6.2.4.2.6-.2.8-.4.3-.5 1-.6 3.4-.1 2.8-.1 3 .5 4l.8 1 .2-1.2zM21.3 32c1.2-1.5 1.3-1.7.7-2a2 2 0 0 0-1-.4c-.3 0-.4.2-.4 1.4 0 1.6.1 1.8.7 1zm47.2.2c.4-.2.5-.6.5-2.5 0-2 0-2.3-.4-2-.2.2-.5.2-.7.1-.3 0-.5 0-.6.4 0 .4-.1.4-.3-.1 0-.4-.3-.6-.4-.6-.2 0-.5 2.5-.5 4.1 0 .8 0 .9 1 .9.5 0 1.1-.1 1.4-.3zm12.6-.3c0-.3 0-.7-.3-.8-.2-.2-.4-1-.5-1.9 0-.8-.3-1.7-.4-1.8a3 3 0 0 1-.4-1.1v2.4c0 1.7 0 3.3.2 3.5.3.5 1.3.2 1.4-.3zm30.8-.4c0-.7-.1-.9-.3-.7-.2.2-.3.6-.2 1 .3 1 .5.8.5-.3zm-104.7 0 1.2-.9v-2.1c0-2 0-2.1-.5-2-.7.2-1.3-.9-1.5-2.9-.4-3-.6-1.6-.6 3.4v5.2l1.4-.8zm8-.8c0-1.2 0-1.3-1-1.3-.8 0-.9.1-1 1 0 .8 0 1 .8 1.3.5.3 1 .4 1 .3.2 0 .2-.6.2-1.3zM32 31.9c0-.1-.3-.4-.7-.5-.8-.4-1.2 0-.5.4.6.4 1.2.4 1.2.1zM189.4 30l-.9-1.4c-.3-.7-.5.1-.3 1.3.1 1 .3 1.3.8 1.4l.8.6c.2.3.3.2.3-.2 0-.3-.2-1-.7-1.7zm33.9-.8c.8-3.3 1.4-13.2.7-13.6-.1-.1-.2 0-.2.2s-.3 1-.7 1.6c-.3.8-.6 1.8-.6 2.3v1l.3-.8.5-.7c.3 0 .1 2.1-.5 6-.5 3.5-.7 7.2-.4 6.7l.9-2.7zM70.2 31.6V30c-.2-1.2-.3-1.3-.4-.8-.5 1.6-.2 3.3.4 2.4zm71-2.6-.4-6.4c-.1-3.6-.7-6.2-1.3-6-.2 0-.2 2.3-.2 6.6v6.5l.7 1c1.1 1.8 1.3 1.5 1.1-1.7zm24.4-1.4c-.2-.5-.3-.1-.3 1.6a9 9 0 0 0 .2 2.5c.3.3.4-3.4.1-4zm1.9 2.4c0-.9-.2-1.6-.2-1.5-.2.2-.4 2.5-.2 3 .3.8.5.1.4-1.5zm7 .4c0-.7 0-.7-.2-.3l-.2 1.2c0 .5 0 .6.2.3.1-.2.3-.8.2-1.2zm26.3 1c0-.2-.2-.3-.3-.3-.1 0-.3.1-.3.4 0 .2.2.3.3.2l.3-.4zM28 31l.3-.6.5.6c.6.8.8.7.8 0 0-.6-.2-.8-.6-1-.5 0-.6-.4-.2-.7.1 0 .2-.5 0-.9 0-.6 0-.8.4-.8.3 0 .4-.1.3-.4 0-.5-.2-.5-1.8-.2-.7.1-.8.3-.8 1.3 0 .8.1 1.2.4 1.2.7 0 .8.5.2 1-.3.4-.5.7-.4.8.2.4.5.3.9-.3zm44.4-1c0-1 0-1.5-.2-1.5-.1.1-.2.6-.1 1.1.1 1 .1 1-.4.8-.4-.1-.6 0-.8.4-.4.6-.2.8.8.8.7 0 .7 0 .7-1.6zm21.5.3c0-.7.1-1.1.4-1.3.3-.2.4-1.5.5-8.8a119.1 119.1 0 0 1 .7-12.1c0-1 .3-1.8.4-1.8.2-.1.4-.7.4-1.4 0-1.5-.3-1.6-2.4-1.6h-1v1c0 1 0 1.1.4 1 .6-.2 1.1.6 1.1 2 0 1-.5 1-1-.4-.5-1-.6-1.1-.6-.3v5.1c0 3.9.1 4.4.6 4.8.6.7.6 1.1 0 1.5-.5.3-.6.7-.6 2l-.3 6-.3 4.5.6.5c.9.7 1 .5 1-.7zm39-.7c.4-.6.4-.7 0-1-.2-.5-.3-.4-.5.5a11 11 0 0 0-.1 1.8v.8l.1-.7c0-.5.3-1 .5-1.4zm31.9-.7c0-2.8-.4-2.7-.6.2-.2 2 0 2.6.3 2.3.2 0 .3-1.2.3-2.5zm40.8 2c.6-1.2.6-2.5 0-2.5-.3 0-.6.3-.7.5-.1.6 0 2.7.3 2.7l.5-.8zm13-2.7c-.2-1.2-.2-1.2-.4.9-.1 1.5-.1 2.2.1 2.3.4.2.6-1.6.3-3.2zM78.3 30.9c0-.2.1-.4.4-.4.3 0 .3-.3.2-1.6l-.4-2.2c-.2-.5-.2-.5-.5.2-.3 1-.4 4.4 0 4.4.1 0 .3-.2.3-.4zm35.7-.8c0-1.5-.3-1.3-.5.2 0 .6 0 1 .2 1s.3-.5.3-1.2zm85.5.4c.3-1.3.2-1.7-.5-2.8-.8-1.2-1.1-1.4-1.1-.7 0 .8-.5.3-.8-.8l-.2-1v1c-.1.8-.3 1.2-.7 1.5l-.6.4.8 1.1c1.5 2.1 2.9 2.7 3.1 1.3zm16 .2c0-.2-.2-.1-.2.2 0 .3 0 .4.2.4v-.6zM12 31c.2 0 .4-.4.4-.8 0-.7-.6-.8-1.8-.3l-.7.2.6.5c.8.6.9.6 1.5.4zm73.2-.6c0-2.4-.1-6.3-.3-6.5-.3-.5-.5.9-.5 3.8l.1 3.3c.4.4.6.1.7-.6zm46.2-1c0-1.2 0-1.8-.4-2.1-.2-.2-.4-.7-.4-1 0-.4-.2-1-.5-1.6-.6-1-.5-1.9.2-1.6.3 0 .3-.1.3-1 0-1-.3-1.4-.6-.5l-.1-2c0-2.5-.4-3.2-.7-1.5a48.5 48.5 0 0 0 .5 10.3c.4.7.4 1 .2 1.7-.3.8-.2 1 1 1 .5 0 .5 0 .5-1.7zm89.5 1.2a32.7 32.7 0 0 0 .4-4.6c.1-3 .1-3-.4-2.7-.5.3-.5.5-.5 4 0 2.2.2 3.9.3 3.9l.2-.6zm-85-3.1c-.3-3.5-.5-4.3-.8-3a13 13 0 0 0 .2 5.8c.3.3.5.5.7.4v-3.2zm32.5 2.8c0-.2-.1-.1-.2.2 0 .3 0 .4.2.3v-.5zm26.8-.3c0-.3-.3-1-.6-1.5l-.6-1v1.3c-.1.9 0 1.2.3 1.5.7.5 1 .4.9-.3zm-83.4-1.2c-.1-.4-.1-.4-.3 0v1c.2.4.2.4.3 0v-1zm-92 .2c0-.3-.2-.5-.5-.5-.6 0-.7.3-.3.8.5.4.8.3.8-.3zm130.6-4.8c0-4.9 0-5-.6-5-.5 0-.5.1-.6 4.4 0 3.9 0 4.5.4 5l.6.7c.1 0 .2-2.3.2-5zm50.9 3.2-.6-1c-.4 0-.2 1.3.2 2.2.4.7.5.8.6.3 0-.2 0-1-.2-1.5zM12 28.5c.6-.1.4-.6-.3-.9-.5-.2-.6-.4-.7-2.8-.1-2.6-.8-5.8-1.2-5.5-.3.1-.7 9-.5 9.4.2.2 1.8.1 2.7-.2zm178.5-1.9c0-3.2 0-3.4-.4-3.9-.4-.3-.4-.5 0-1.6.2-.7.3-2 .3-2.9 0-2.2.3-3.3.7-3.2.3.1.5-.2.7-1 .4-1.6.8-1.5.8.3V16l.4-1c.3-.7 1-4 .8-4.1l-1.2.5c-1.3.7-2.7 2.5-2.5 3.3 0 .3 0 1.3-.3 2.2-.3 1-.6 3.1-.7 4.9 0 2-.3 3.1-.5 3.2-.1 0-.3.3-.3.5 0 .5 1.6 3.5 1.9 3.5.1 0 .3-1 .3-2.3zM22.7 27.7c0-.7-1.1-1.4-1.6-1-.2.2 0 .6.5 1.1.8 1 1.1.9 1.1 0zm103-1.2c0-1.2-.2-2.8-.3-3.5l-.1-1.3-.5 1c-.4.6-.5 1.4-.5 3.2 0 1.3 0 2.5.2 2.6l.6.2c.5 0 .5-.3.5-2.2zm-110.5-.2.1-2h-2.1v4.1h1l1-.1zm2.6 1.3c.1-.3.5-.9 1-1.3.6-.7.7-.9.4-1-.4-.3-1.2-.2-1.8.4-.2.2-.6.3-.9.3-.3 0-.4.3-.4 1l.1 1.2c.3.3 1.5-.1 1.6-.6zm30.3.3c0-.3-.1-.5-.3-.4l-.2.5c0 .2 0 .4.2.4s.3-.2.3-.5zm75-.5-.4-.6c-.3 0-.3.6 0 1.2.2.6.6.1.4-.6zm4.7 0c.2-1.2-.2-1.6-.6-.9-.3.6-.1 2 .3 2l.3-1zm49.1 0c0-.3 0-.5-.2-.4-.2 0-.3.4-.3.8s.1.6.3.5l.2-.8zM31.2 28l.4-.7c.4-.3.3-.4-.1-.4-.6 0-1.2.7-1 1 .2.4.7.4.7.1zm3-.8c0-.4-.3-.8-.4-.8-.3 0-.3.4 0 1.2.4.9.6.7.4-.4zm-9.1.3c.2-.5.2-.6-.2-.6-.7 0-.9.3-.7.7.2.5.5.5.9-.1zm25.7-.8c0-1.8 0-1.8-.3-1.4-.3.3-.1 2.7.2 2.7.1 0 .2-.6.1-1.3zm83.2-.1-.2-3.7c0-3.4-.2-4.1-1.3-5.5l-1-1.1v2.5c-.2 1.3-.2 3.3 0 4.3.1 1.7.1 1.8.3.9.3-1.6.7-1.2.7.7 0 1.4.1 1.9.6 2.5.7 1 1 .7.9-.6zm41-1.1c.4-2.7.4-3.5 0-3.8-.2-.2-.4-.3-.5-.1a60 60 0 0 0-.2 6.3c0 .6.5-.7.7-2.4zm12 1.5c0-.5-.3-1.3-.6-1.8a4 4 0 0 1-.5-1.7c0-1.5-.3-.6-.4 1.2-.1 1.6 0 1.7.6 2.5.4.4.8.8 1 .8v-1zm20.4.6c0-.2-.1-.4-.3-.4-.1 0-.3.2-.3.4s.2.4.3.4c.2 0 .3-.2.3-.4zm-99-1.6c0-.4-.2-1-.4-1.3-.3-.5-.4-.4-.4 1.3 0 1.7 0 1.8.4 1.3.2-.2.4-.8.4-1.3zM217.1 21c.3 0 .8-2.8.5-3l-1 1-1 1.3v7.5l.6-3.4c.3-2 .7-3.4.9-3.4zm-47.6 2c0-4 0-4-.5-4.2l-1.2-.2c-.6 0-.6.1-.6 1.5 0 1.2.1 1.7.8 2.6.8 1.2 1.3 2.8.8 2.8-.1 0-.5-.3-.8-.7-1-1.1-1-.3 0 1.3.4.7 1 1.2 1.1 1.2.2 0 .3-1.5.4-4.2zM71 26.7c0-.3-.1-.5-.2-.4-.2 0-.3.3-.3.5s.1.4.3.4c.1 0 .2-.2.2-.5zm44-3.4c-.1-.5-.6-.1-.6.6l.3 2 .4 1.4v-4zm30 .8c0-2.4-.1-2.9-.4-2.9-.4 0-.4.6-.5 3 0 2.8 0 3 .4 3 .4-.1.5-.5.5-3zm35.8 2.2c0-.5 0-.7-.3-.6-.2 0-.4.4-.4.8 0 .5 0 .7.2.6.2 0 .4-.4.5-.8zM196 26c0-.3-.1-.4-.3-.4l-.2 1c0 .5 0 .5.2.2.2-.2.3-.6.3-.8zm-143.7-.6c-.1-.3-.2 0-.2.5 0 .6 0 .9.1.6v-1zm86.3-1.7-.2-3c-.3-.5-.6.5-.6 1.8 0 2-.4.9-.7-2-.4-3.3-.9-3.8-.9-.9 0 2.2.5 4 1.2 4.9.2.2.4.8.4 1.2 0 .6.1.9.4.9.4 0 .4-.4.4-2.9zm63.3.8a4 4 0 0 1-.4-1.3c0-.4-.1-1-.3-1.4-.4-.6-.4-.6-.4.8 0 .8.2 2 .4 2.7.5 1.3.5 1.3.7.6.2-.5.1-1 0-1.4zm4.4-2.3c.3-2.3.2-2.5-.5-2.3-.5.1-.8 2-.8 5v1.8l.6-1.2c.3-.6.6-2.1.7-3.3zm-92.8 3.9c.1-.1 0-.6-.3-1.1-.6-1-.6-1-.7.3 0 .8 0 1 .4 1 .3 0 .6 0 .6-.2zm95-2.3 1-3c-.2-.7-2.4 3.7-2.4 4.7l.1.8 1.2-2.5zm-42.7 1.6c0-.2 0-.4-.2-.4s-.3.2-.3.5.1.5.3.4l.2-.5zm33.9-.8c0-.7-.1-1.8-.3-2.4-.5-2-.6-2.2-.3-2.2.1 0 .4.2.5.5.3.5.3.6.4.2 0-.5-1.1-2.6-1.4-2.6a24 24 0 0 0-.5 5c0 .8 1.2 3.1 1.5 2.9l.1-1.4zM31.8 25c.2-.4 0-.5-.7-.2-.3 0-.5.3-.5.5 0 .4 1 .2 1.2-.3zm91.1-.5c.4-1.3.5-20.2.2-20.5l-.8-.4c-.5-.1-.5 0-.5 1.2 0 1 0 1.3.4 1.4.6.2.6.6 0 3a9.7 9.7 0 0 0-.5 4c.1 1.2 0 3-.2 4.6a10 10 0 0 0 .1 5.1 72.3 72.3 0 0 1 .8 2.8c.1 0 .4-.5.5-1.2zm88.6-.6c.8-1.6 1.3-3.5.7-3.1-.6.3-2 3-2 4 0 1.2 0 1.2 1.3-1zm-28 .6c0-1-.6-1.7-1.2-1.3-1 .6-.5 2.2.8 2.2.4 0 .5-.2.5-.9zm-158 .3c.7-.6.4-1-.5-1-1.2.1-1.3.2-1 .8.3.6 1 .7 1.6.2zm3.8 0c.2-.3.3-.5.2-.6-.2-.2-1 .4-1 .7 0 .4.4.3.8-.2zm149.5-.3c0-.4 0-.5-.2-.2-.2.2-.2.5-.2.6.3.4.4.3.4-.4zM22.3 24c-.5-.4-1.3-.4-1.4 0-.1.6 1.4 1.1 1.5.6l-.1-.6zM127.8 21c.2-.4.3-2.8.4-5.8 0-4.8 0-5.3-.5-6-1-1.7-1.1-1.2-.9 5.1.2 5.3.2 6-.2 5.7-.3-.3-.4 0-.3 1.7 0 3.5.1 3.6.7 1.7l.8-2.4zm-119-3.3c.2-3.3.3-6.1.2-6.2l-.8.4a4 4 0 0 1-1.5.4c-.6 0-.7 0-.7 1.2 0 1 .2 1.4.9 2.1.8 1 .8 1.6 0 1.2-.8-.4-.8-.4-1 .5 0 .8.2 1 .5.5l.6-.2c.3 0 .4.6.5 2.5 0 2.7.6 5 1 4.2l.4-6.6zm19.7 5.9 1-1.2v-5.7c0-3.6 0-5.8-.2-5.9-.4-.2-2 .4-2.2.9a86 86 0 0 0-.2 7.5c0 .3.4.7 1 1 1.7.6 1.7 1.5 0 2-.7.3-.8.4-1 1.4 0 .6.1 1.1.2 1.1a6 6 0 0 0 1.4-1.1zm126-2.8v-4l-1.3-.1c-1.3-.2-1.5-.1-1.7.6-.1.4 0 .6.5.8.8.3.8.7 0 .8-.7.1-.7.7.3 2.5a4299.2 4299.2 0 0 0 2 3.3s.2-1.8.2-4zm22.8 2.5c0-.2-.3-.5-.5-.5-.3-.2-.4 0-.4 1v1l.6-.5c.3-.3.4-.7.3-1zm-67.6-.8c0-1.4 0-1.8-.6-2.6-1-1.6-1.1-2.7-.3-6.7.1-.4 0-.6-.3-.6-.4 0-.5-.2-.4-2.5l-.1-2.6c-.2 0-.4.4-.5 1 0 .5-.3 1.1-.5 1.4-.3.6.1 7.3.6 7.7.1.2.2.6 0 1v2.9c0 2 .1 2.2.7 2.2.3 0 .7.2.8.4.2.7.5.1.6-1.6zm71.2 1.4-.1-.2s-.2 0-.3.2l.1.3c.2 0 .3-.1.3-.3zm7-3.2c.3-2 .7-4 1-4.5.7-1.4.6-1.8-.3-.9-.7.7-1.3.7-1.3 0 0-.1.6-.9 1.3-1.6.8-.7 2.2-2.5 3.2-4 1-1.6 2-2.8 2.2-2.8.5 0 .5.9-.1 1.6-.7 1-.7 1.2.2.8.9-.5 1.1-1 1.1-2.2 0-.5.4-1.6.8-2.4 1-1.7 1-2.2.3-2.2-.4 0-.6.2-.7.6-.3 2-.6 2.7-1 3-.7.4-.9 0-.8-2 0-1.4 0-1.6-.5-1.6-.8 0-1.2.7-1.5 3-.4 2.8-.8 4.4-1.1 4.4-.2 0 0-3.6.2-4.5 0-.3 0-.3-.3 0-.2.3-.5 1.5-.6 2.7-.1 1.5-.3 2.3-.6 2.6-.3.3-.5.8-.5 1.1 0 .4-.1.5-.3.3a24 24 0 0 1-1-7c0-1.8-.1-1.9-.5-1.5-.6.6-.8 3.8-.3 5.4.3.7.5 2 .6 3 .2 1.4.1 1.6-.5 2-.8.7-1.4 2.3-1 3 .2.2.2.7 0 1.3a4 4 0 0 0-.1 1.5c0 .4 0 .3.1-.3 0-.4.2-1 .4-1.1.5-.4.5-.5.5 2.6 0 2.2.2 3.2.6 3.2l.5-3.5zm16.3 1.4c0-.3-.1-.5-.3-.4l-.2 1.4c0 1 0 1.1.2.4l.3-1.4zm15.3-.7v-1.6l-.6 1.4c-.3 1-.4 1.4-.1 2.2.3.9.3.9.5.2.2-.3.2-1.3.2-2.2zM17.4 23.3c.4-.4 1-.8 1.6-.9.9-.2 1-.3 1-1.4.1-1.7-.3-2-1.4-.7l-1.2 1.8c-.2.4-.5.8-.7.8h-.4l-.1.6c-.3.6.4.5 1.2-.2zm2.3.4c0-.2 0-.3-.2-.3-.1 0-.2.1-.2.3v.2l.4-.2zM34.9 20v-2.6l-.8.7c-1.1 1.2-1.3 1.8-1.3 3.4 0 1.6.3 2 1.5 1.4.5-.2.6-.4.6-2.9zm126.9 2.4c0-.2-.2 0-.2.4 0 .3.1.5.2.3v-.7zm2.2-1.4c.4-1.1.8-2.4.8-2.8 0-.8-1-2-1.6-2-.5 0-.5.1-.5 1.5 0 2 .3 5.6.4 5.5l.9-2.2zm-50.2 1.4v-1.7c0-1.3-.5-1.4-1-.3-.4 1-.3 1.4.3 2.2.6.6.8.5.7-.2zm2.9-7V6.8c0-1-.1-1.5-.7-2.2-.4-.6-.8-1-1-1-.3 0-.5 1.5-.5 4.3 0 1.6.1 2.8.3 3 .1 0 .2-.5.2-1.5 0-1.5.3-2 .7-1.3.3.4.4 3.7.4 9.8 0 3.1.1 5.2.3 5.2l.3-7.6zM32 22c0-.5-.2-.6-.5-.3-.4.3-.4 1 0 1 .5.3.7 0 .5-.7zm5.1.5c.2-.2.4-.8.4-1.5 0-.6 0-2.6.2-4.4l.1-3.3-.8.8c-.4.5-.9 1.3-1 1.9-.5 1.5-.4 6.6 0 6.8.5.2.7.2 1.1-.3zm11.5.1c.4-.3.4-3.8 0-4h-1.2l-.9.2v2c0 1.5 0 1.9.5 2 .8.2 1.3.2 1.6-.2zm5 .1c0-.1.3-.2.6 0 .5 0 .5 0 .6-2v-2.3c0-.6-2-.6-2.4 0-.4.6-.5 4.2 0 4.4.5.2 1 .2 1.1 0zm-13.5-1V20a61 61 0 0 1-.2-5.8c0-2.9-.1-4.8-.3-4.7-.2.2-.7 1.4-.9 2.6-.2 1-.6 10-.5 10.3h.9c.6 0 .8-.3 1-.8zm11.3-.8c.2-2 .1-2.4-.7-2.4-.9 0-1.3.7-1.3 2.5v1.7h1.8zm5.3 1.6c.3 0 .4-.6.4-2.5v-2.3h-1.6V20c0 2.6 0 2.8 1.2 2.3zM45.9 21c.2-2 0-2.3-1.1-2.2-1.1.2-1.2.3-1.3 2 0 1.3.1 1.5 1.7 1.4.6 0 .7-.1.7-1.2zm13.3 1.2c.5-.2.6-.3.5-2.5v-2.3h-2l.1 2.2c.1 2.9.1 2.9 1.4 2.6zm2.1-2.2c0-2-.3-3.3-.6-2.4-.3.9-.4 3.5-.2 4.1.5 1.2.8.4.8-1.7zm49.8 2c-.2-.3-.5-.5-.6-.5l-.2.4c0 .3.2.4.5.4.5 0 .5 0 .3-.4zm-89-.6c.5-1 .7-4.8.3-5.3a1 1 0 0 1-.1-.8c.3-.8.4-2.3.2-2.7-.2-.3-.3-.3-.8.1-.4.4-.6 1-.7 3-.2 2.6-.2 2.7.5 3 .9.7.9 1.5 0 1.5-.6 0-.7.1-.7 1 0 .7.2.9.5.9s.7-.3.8-.7zm20.7-.9c-.1-1.4-.2-1.5-.9-1.6-.9 0-.8-.6.2-.8.8 0 .8-.3 1.1-7.3l.3-3.5h.4c.2.2.2 1 0 3 0 2.2 0 2.6.3 2.3l1-.4c.6 0 .7-.2.7-1.4.1-2.6.4-4 .7-4 .2.2.2 1.5 0 4.2-.2 4.4 0 4.6 1.5 3.8.9-.5 1-.8 1.2-5l.1-3-.8-.7c-1-1-3-1-5.4 0-2.4 1.2-3 2-1.4 2 .7 0 .8 0 .7.5 0 .4-.4.8-.8 1-.7.3-1 1.3-1 4 0 1.6 0 1.6.8 1.8 1 .1.9.6 0 .9-.7.1-.7.2-.8 2.6l.1 2.8c0 .2.5.4 1 .4h1zm20.2.7c.6-.8.9-2.8.8-6.5l-.1-3h-.8c-.6 0-.7.2-.9 1.3-.3 2-.2 3.2.3 3.4.2.1.3.3.3.5 0 .3-.1.5-.3.6-.4 0-.4.6-.4 2.4 0 2.4.1 2.6 1 1.3zm132.9-.2c.6-.9.7-1.3.8-3.7.2-2.6-.4-6.9-1-7.5-.3-.3-.3-.1-.4 1.7l-.4 3.3c-.2 1.2-.3 3-.3 4 0 3.8 0 4 1.3 2.2zM12.3 18c-.2-1.6-.7-2.5-1.2-2.2-.4.2-.4 1.8 0 2.5l1 3c.2 1 .4-1.6.2-3.4zm13.5 3.4c.2-.6-.3-1-1.1-.8-.6.1-.7.2-.4.7.3.6 1.3.7 1.5 0zm40.3-.8c0-.6-.2-1-.5-1.1-.4-.3-.4-.3 0-.8.6-.7.4-1.1-.4-1.1-.6 0-.6.1-.8 1.6-.2 2 0 2.3 1 2.3.6 0 .7 0 .7-.9zm3.4-.3c0-1.2 0-1.3-1.5-1-.8.2-.9.3-.7 1 .3 1.2.3 1.3 1.3 1.2.7 0 .8-.2.9-1.2zm101.1.6c0-.4.1-.7.3-.8.2-.1.2-.3 0-.5-.1-.1-.4-.2-.5 0-.4.2-.4 2 0 2l.2-.7zm-98.7.1c.6-.3.8-2 .3-2.2-.4-.3-1.9.4-1.9.8 0 1.5.6 2 1.6 1.4zm-56.8-.4.5-6L16 8c.1-1.1 0-1.3-.8-2.2l-.8-1-.2 2c-.8 8-.8 8.7-.2 9.4.5.5.6.9.5 2.7 0 2 .2 2.7.6 1.7zm16 0c0-.3.2-.4.5-.3.2.1.4 0 .4-.2s-.2-.3-.4-.2c-.3 0-.5 0-.6-.3-.2-.7-.6-.3-.6.6 0 .9.3 1 .6.4zm44.6-.3c.2-.1.3-1.2 0-1.8-.3-.7-2.7 0-2.7 1s.3 1.3 1.4 1.1a6 6 0 0 0 1.3-.3zm36-.5.1-4c.1-3 0-3.4-1-2.5-.5.5-.5.9-.5 3.2 0 2.3 0 2.8.6 3.5l.7.7.1-1zm3.6-2v-3l-.3 2.6c-.3 2.3-.2 3.3.2 3.3v-3zm89 2.3c-.4-.3-.8 0-.5.4 0 .1.3.2.4 0 .2 0 .2-.2 0-.4zm4.9-1.9c.5-1 1.2-5.6 1-5.9-.2-.1-.2 0-1 2-.4 1.5-1 1.8-.8.6 0-.3 0-.5-.1-.4a19 19 0 0 0-.8 4.8l-.1 1.6.6-.8c.4-.5 1-1.3 1.2-1.9zm12 1.2c.2-.7.5-2.2.6-3.5.2-2.4.2-2.4-.3-2-.4.4-.6 1-.7 2.7l-.3 3c-.3 1.3.2 1 .7-.2zM78 19c0-1.3 0-1.3-1-1-.5 0-.6.3-.6 1.2 0 1 0 1 .9 1 .8-.1.8-.2.7-1.2zm3.7.6c.3-.3-.1-1.9-.4-1.9l-1.4.3c-.8.1-1.1.3-1 .6l.2 1c0 .7 0 .7 1.2.5.7-.1 1.3-.3 1.4-.5zm2.9-1.3-.1-2h-2V18c.2 1.8.4 2.2 1.5 2.2.6 0 .6 0 .6-1.9zm40.5-5.4c0-3.4-.2-5.6-.4-6.3l-.3-1-.2 1.4c-.2 2.2-.2 10.3 0 12l.2 1.3.3-1c.2-.7.4-3 .4-6.4zm53.5 4.1c-.6-.6-.7-1-.3-1.5.1-.3 0-.8-.6-1.8-.4-.8-.8-1.6-.8-1.9 0-.2 0-.3-.2-.2-.3.4-.6 7.4-.3 7.8.1.2.5.3.9.2.3 0 .8 0 1.1.2.5.4.5.4.6-1 0-1 0-1.4-.4-1.8zm4.7 2.2c1.2-1 1.4-1.7.4-1.5-1 .3-1-.3.1-1.4l1-1v-6l-.6 2-1.6 5c-1.3 4.1-1.2 4.7.7 3zm31.5-.9c0-.2 0-.5-.2-.5s-1.1 1.7-1.1 2.2c0 .6 1.3-1 1.3-1.7zm-69.6-2c0-3.8-.1-4.9-.6-4.2a24.1 24.1 0 0 0 .3 7.9c.2 0 .3-1.5.3-3.7zm47 2.8c0-.2-.1-.1-.1.2v.3c.2 0 .2-.3.1-.5zM18 19c1.2-.6 1.4-1 .7-1.6-.3-.3-.5-.3-.8.2-.3.4-.4.4-1 .1-.4-.3-.5-.2-.5.8l.2 1A8 8 0 0 0 18 19zm8 .1.1-1.7c0-1.5 0-1.6-.7-2-1-.5-1.4-.5-.9.2.5.8.5 2.7 0 3.1-.5.5-.2.9.6.7l.8-.3zm185.4-1.4c0-.3 0-.3-.4 0-.2.2-.3.7-.3 1.1v.9l.4-.8.3-1.2zm-73 0c0-1-.1-1.6-.2-1.6-.3 0-.4 2-.1 2.7.2.8.3.5.3-1.1zm27.5.9v-.4l-.3.4c-.1.2 0 .4 0 .4.2 0 .3-.2.3-.4zm40.7-1.6c.2-1 .2-2.3.1-4.2 0-2.3-.1-2.5-.3-1.6-.4 1.6-1 7-.8 7.5.2.6.6-.1 1-1.7zm6.3-.8c.2-2.1.2-2.1-.3-1.3-.6 1-.8 4.3-.2 3.8.2-.2.4-1.3.5-2.5zm-179.3 2c0-.2 0-.3-.2-.3s-.3.2-.3.4c0 .3.1.4.3.3l.2-.4zm35.3.3h.8l-.1-7.4c0-5.2 0-7.3.2-7.4.5-.1.6.9.6 4 0 2.6 0 2.8.5 2.8 1.3 0 1.4-.2 1.4-2.5 0-1.8 0-2.2.4-2.2.3 0 .4.4.4 2 0 2 0 2.2.5 2.3.7.2.7.9 0 1.2-.5.3-.5.5-.5 2.2.1 1.8.1 2 .7 2H75c.6-.2.6-.3.8-5l.3-5c.1-.2.3-.2.4-.1.2.1.2 1.8.1 5l-.2 4.9h.7c.4 0 .8-.2.8-.3 0-.2.3-2 .4-4.1.2-2.1.5-4.3.7-4.8l.4-1v1l-.3 4.7c-.2 2.6-.2 3.8 0 4.3.2.4.2.7 0 1-.4.7 0 1 1.3 1.1.8.1 1.1 0 1.2-.2v-6.7c-.1-5.3 0-6.4.2-6.3.6.2.8 1.7.7 6.5v4.7h.9c1.1.2 1.3-.2 1.2-2V7.6c.2-3.5.2-4.1-.2-4.3-.2 0-4.2-.2-9-.2h-8.5l-.1 6.6v6.5h1.1c.7 0 1.2.1 1.2.3l-1.2.7c-1.1.4-1.4.8-1 1.3h.7l1.3-.1zm74.7-.2a62.9 62.9 0 0 0-.1-11.9c.3-.7.2-1-.3-1.8l-.7-.9s-.2 1.5-.2 3.1c0 1.7-.3 4.6-.5 6.5l-.3 3.4.7.5c.5.4.5.5.2.7-.4.3-.4.3 0 .6.6.3 1 .3 1.2-.2zM202 17c0-1.3 0-1.3-.4-.9-.4.6-.5 1.4-.2 2.1.3.8.6.1.6-1.2zm2.4 1.4c0-.2-.2-.3-.3-.3-.2 0-.2.1-.1.3l.2.2c.1 0 .2 0 .2-.2zm15.3-1.8c0-1.7-.8-.9-1.1 1l-.2 1.1.7-.6c.4-.4.6-1 .6-1.5zm-106.4.7c0-.7-.2-1.3-.5-1.3-.1 0-.2.5-.2 1.2 0 1 0 1.2.4.9.2-.2.3-.5.3-.8zm58.3.7c0-.4-.6-1-1-1-.5 0-.4.6.1 1 .6.4.9.5.9 0zm4-4c0-2.7 0-4-.2-4s-.4.7-.6 2.2c-.6 4.3-.4 6.7.5 6l.3-4.2zm-143.4.4c0-2.3 0-2.7-.4-2.7-.2 0-.5 0-.7-.3l-.4-.2-.3 3-.2 2.7.8.6c.7.5.7.6.9.1l.3-3.2zm13 3.4c.6 0 .5-1 0-1l-1.1-.2c-.5-.1-.6 0-.6.5 0 .8.2 1 1 .9l.8-.2zm26.8 0c.4-.5.2-1.3-.3-1.3-1 0-1.5.4-1.5 1 0 .5.2.6.8.6.4 0 .9-.2 1-.4zm78.5 0c.4-.5-.1-1.3-.8-1.3-.5 0-.6.2-.6.6l.1.8c.3.3 1.1.2 1.3 0zm66.7-1c.4-.6.7-1.2.6-1.3 0-.4-1.8 1.9-1.8 2.4 0 .4.4 0 1.2-1.1zm-168.6.6c.4-.3.2-.9-.3-.9-.3 0-.6-.1-.6-.3 0-.5-1.1-.1-1.2.4-.2 1 .1 1.3 1 1a6 6 0 0 0 1-.2zm26.8-.1v-.6c-.3-.8-2.5-.4-2.5.3l.1.7c.3.2 2-.1 2.4-.4zm93.8.3c0-.2-.4-.3-1-.3-.5 0-.8.1-.7.3l.9.2c.4 0 .8 0 .8-.2zm-21-.7c0-.6-.6-1.2-1.4-1.2-.5 0-.5 1.2 0 1.6 1 .5 1.5.3 1.5-.4zm51.9.2c0-.2-.3-.5-.6-.5-.4-.1-.4 0-.2.4.4.7 1 .8.8.1zm-148.7-.4c0-.7-1-1.4-1.5-1.1-.2 0-.3.5-.3 1 0 .6 0 .7 1 .7.7 0 .8 0 .8-.6zm3.3 0c.2-.6-.7-1-1.6-1-.8.2-1.2 1-.6 1.3.4.3 2 0 2.2-.4zm22.8.4c.6-.2.5-.8-.3-1-.7 0-1 .2-.8.8.2.4.4.5 1 .2zm84-.9c-.2-.7-.6-.3-.3.5 0 .4.2.5.3.4.2-.1.2-.5 0-.9zM173 16a202 202 0 0 0-1-12c-.5-.7-.6 0-.4 2a59.3 59.3 0 0 1 .7 10.5c.3.9.7.6.7-.5zm-154-.3.6.4c.2.2.5.3.6.2.2-.4 0-6.1-.4-7.2-.3-1.2-1.2-3-2-4-.4-.4-.6-1-.6-1.1.2-.4 2.3-1 3.6-1 1.2 0 2.2.5 2.3 1 .1.4.5.6 1.2.7.6 0 1.3.3 1.5.5.3.3.7.5 1 .5.3 0 .4.3.4 2l.2 2c.1.1.6 0 1-.1.7-.3.8-.4.6-.8-.5-.7.6-4 1.4-4.4 1.1-.5 2.4-.9 3.3-.9 1.1 0 1.7-.2 1.7-.6 0-.3-.6-.4-3.1-.4A269.5 269.5 0 0 0 9.5 3c-.2 0-.3.2-.2.4.2.5-.2.8-1.7 1-1.2 0-1.2 0-1.3 1.1 0 .6.1 1.3.3 1.7.2.4.2.7 0 .9-.3.4-.7 3.6-.4 3.6l.8-.5c.8-.6 2-.7 2-.2 0 .8.5-.5.5-1.4 0-1.1.2-2 .5-2 .2 0 .3.2.3.5 0 .9.2 1 1 .6.4-.2.9-.3 1.1-.2.8.2.6-1.1-.1-1.7-.5-.3-1-.4-2-.2-1.5.2-1.7-.1-.8-1.1.7-.7 1.5-.8 2.7-.2.7.4.8.4 1.2 0l.3-1c0-.9 1.5-.6 2.6.5.8.8 1.1 1.4 1.5 3 .5 1.9.4 2 0 2.3-.5.3-.6.8-.7 1.6 0 1.2 0 1.2.5 1.2 1.3-.2 1.9 1 .7 1.5-.5.2-.6.4-.6 1.1 0 1.2.2 1.4.7.7l.6-.5zm15.8.4c0-.4 0-.6-.5-.7-.5-.2-.5-.2-.2-1 .5-.8 1-2.4 1-3 0-.6-.5-1.7-1-1.9-.5-.2-.7.7-1 4-.1 3-.1 3 .5 3 .9.3 1.1.2 1.2-.4zm21.8.4c0-.1-.2-.3-.4-.3-.3 0-.4.2-.4.3 0 .2.1.3.4.3.2 0 .4-.1.4-.3zm2.9-.3c0-2.2.2-9 .4-10.7.2-2.1.2-2.2-.4-2.2a4 4 0 0 0-1.2.2l-.6.3V9c0 5.3 0 5.4.5 5.9.6.4.6.4.1 1-.5.5-.5.5.3.5.5 0 .9-.1.9-.3zm6.4-.8V3h-1.6l-1.5.2-.4 3.6c-.2 2-.2 3.8 0 4h.7c.6-.2.9-1 .9-3.3 0-1.4.3-2 .6-1.2v5.3l-.1 5 .7-.1c.7-.1.8-.2.7-1.1zM61.3 14c0-2.3-.3-3-.6-1.1-.3 2.1-.2 3.2.2 3.2.3 0 .4-.4.4-2zm119.9-.4.4-6c.4-3.6.4-4.2-.2-4.2a35 35 0 0 0-1 12c.6 1.3.8.8.8-1.8zm23.4 2-.1-.2c-.2 0-.3 0-.3.2l.1.3.3-.3zM217 15l.5-1-.7.8c-.7.8-.8 1.2-.5 1.2l.7-1zM72.1 13.6c0-1.8 0-2-.4-2.2-1-.3-1.4.2-1.4 2.4v2l.9-.1.8-.1zm68.3-1c0-2.3 0-3-.3-3-.5 0-.7 1.3-.7 4 0 1.9.1 2.1.5 2.1.5 0 .5-.2.5-3zm14.3 1.4v-1.6l-1.1-1c-.8-.6-1.3-.9-1.4-.7-.3.5-.7 4.2-.5 4.6.1.3.5.4 1.5.4l1.4-.1zm-109 .9c.1-.2.3-.6.2-.9 0-.4-.3-.6-1-.7-.7-.1-1 0-1 .2l-.2 1.2c-.2.8-.2.8.7.7l1.2-.5zm11.3-.2c.1-.3 0-.8-.3-1.1-.3-.4-.4-.6-.2-.9.1-.1.3-2.1.4-4.4 0-4 0-4-.5-4a22 22 0 0 0-3.2.7L53 6.5a5916.1 5916.1 0 0 0-.6 7.8c0 .6 0 .6 1.1.6 1.5 0 1.5 0 1.5-4.7 0-2.1.2-3.5.4-3.5.1 0 .2 1.5.1 4.2 0 3.2 0 4.1.3 4.3.6.4 1.2.2 1.2-.5zm93.8.3c0-.5-1.2-1.4-1.5-1l.1.8c.4.8 1.4.9 1.4.2zm18.7-2.9V8.9c-.2 0-.5 1.3-.9 2.8a17 17 0 0 1-.9 3c-.4.5 0 .8 1 .8h.8zm1.6 2c0-.3 0-.5-.2-.6-.2-.1-.2-.8-.1-1.7 0-1 0-1.6-.2-1.7-.2-.2-.3.6-.3 2.6 0 2.6 0 2.8.4 2.4.3-.3.4-.8.4-1zm29.3.2c0-.5-.1-1-.3-1-.3-.1-.7 1.4-.5 1.8.2.7.8.2.8-.8zm-67.2-4c-.2-2.8-.2-2.8-1-3.2-1-.6-1-1.3.3-1.4 1 0 1.6.4 1.6 1.5s.5-1.2.5-2.7V3.3h-1c-.8 0-1.1 0-1.1.4 0 .2-.3.5-.6.6-.5.2-.7.5-.8 1.8-.2 1.3-.1 1.6.3 2 .3.3.5.7.5 1-.8 2.4-.8 2.8 0 4 1 2.2 1.2 2.4 1.3 1v-3.9zm68.9 4.4c0-.3-.1-.6-.3-.6l-.2.6c0 .3 0 .5.2.5s.3-.2.3-.5zm2.8-1.9c0-.3-.2-.7-.3-.7-.3 0-.5 1.6-.3 2.5l.2.7.3-.9a5 5 0 0 0 .1-1.6zM52 11.6c0-1.9.2-4.3.3-5.3.2-2 .2-2-.4-2-1.2 0-1.3.3-1.7 4.8-.6 6.2-.7 5.5 1.3 5.8.2 0 .4-1.1.5-3.3zm61.8 2.7c0-.3 0-.5-.4-.4-.3 0-.5.3-.6.6 0 .3 0 .4.4.4.3 0 .5-.3.6-.6zm24.5.4-.1-.3c-.2 0-.3.1-.3.3l.1.2.3-.2zm9.6 0c0-.3-.3-.6-.5-.4-.3.2 0 .6.3.6.1 0 .2 0 .2-.2zm18.7-4.7.4-5c.2-1.3 0-1.9-.7-1.6-.3.1-.4.4-.3 1.1v1.3c-.3.3-.6 8.7-.4 9 .5.4.8-1.4 1-4.8zm-29.7 1.8c0-3.3 0-3.2-.3-3.2s-.4 4.5-.1 5.5c.3 1.2.5.4.4-2.3zm26.6 2.4c-.3-.6 0-1 .6-.5.4.4.4.2.6-3.5.2-3.3.1-4-.2-4.2-.5-.3-.5-1 0-1.2.2-.1.4-.5.4-1 0-.7 0-.8-1-.8-.7 0-.9.1-1 .7-.1.4 0 1 .3 1.6.3.8.4 1.2.1 2.5a17 17 0 0 0-.3 6.3c.4.6.7.8.5.1zm20.5-7c0-1.7 0-2.1-.4-2.5-.2-.2-.5-.3-.6-.2-.2.5-1 6.8-.9 8.6v1.7l1-2.8c.6-2 .9-3.3 1-4.8zm28 6.2-.4-.4c-.3-.1-.4 0-.4.8 0 1 0 1 .4.5l.4-.9zm7.9.8c.3-.6.6-3 .4-3-.2 0-1.2 2.4-1.2 3 0 .6.5.6.8 0zM5 14l.1-2.5c0-1.6 0-1.9-.3-1.4-.1.3-.4.6-.6.6-.4 0-.5 1-.2 2.7.1 1 .7 1.3 1 .6zm7.7-1.7c.1-2 .1-2-1.5-2.2-1-.2-1-.1-1 .4 0 .4.2.7.5.8.6.2 1.4 1.3 1.2 1.9-.1.2-.5.4-1 .4-1 0-1 .5.1.6 1.6.2 1.6.2 1.7-1.9zm161.5-3.6c0-1.8-.2-2.5-.9-2.5-.2 0-.1 2.4.3 6.5l.2 1.8.2-2 .2-3.8zm-17 4.8c0-.6-.6-1.4-.9-1.2-.1.2.5 1.8.8 1.8l.2-.6zm-27.7-.4c0-.5-.1-.8-.3-.8-.1 0-.2.3-.2.8 0 .4 0 .8.2.8s.3-.4.3-.8zm94-2c.2-1 .2-1.3 0-1a6 6 0 0 0-.5 2c-.1 2.1.2 1.4.5-1zm-75.1-.3c0-1.3 0-2.2-.2-2.6-.2-.5-.2-.8 0-1.3.3-.5.3-.8 0-1.3-1-1.5-1.2-1.2-1.4 3.2v4.5c.1.2.4.2.8-.1.5-.3.6-.7.8-2.4zm-123.7 2c0-.5-.6-.7-1-.3-.1.4.2.8.6.8.2 0 .4-.2.4-.5zm12.4-.3c.7-1.2.9-3 .2-3-.6-.2-1.6 2-1.3 3 .2 1 .5 1 1.1 0zm114-1.7c0-1.7 0-2-.5-2.6-.6-.8-1-.9-1 0l-.2 2.3c-.3 2-.3 2.2.6 2.6.7.2.8 0 1-2.3zm-12.9 1.9c0-.4-.4-.8-.6-.5-.2.2 0 .9.4.9l.2-.4zm64.5-.6c.1-.9-.3-1.8-.7-1.5-.3.1-.4 2-.1 2.3.4.4.6.1.8-.8zm7-1.8c0-.3-.3-1-.6-1.6l-.4-1-.2 1.6v2.1c.2.3.3.8.2 1.2 0 .3.1 0 .4-.5.3-.7.5-1.5.5-1.8zm5.8.1c0-1.4 0-1.4-.4-.8a4 4 0 0 0-.2 2.8c.1.5.2.5.3 0a8 8 0 0 0 .3-2zm-56.4 1a4 4 0 0 0-.7-1v.8c0 .5.1.8.5 1 .9.4.9.2.2-.8zm41.7-.2v-.6a3 3 0 0 0-.5 1.1c-.2.7-.1.9 0 .7.2-.1.4-.7.5-1.2zm11.3-1.4c.2-.7.2-.8-.2-.4-.2.2-.5 1-.5 1.8l-.2 1.5.4-1 .5-1.9zm9.8 1c.5-1.7.6-3.5.2-3.5-.5 0-.7.9-.9 3.1-.2 2.5 0 2.6.7.3zm-112.6-.4c.1-1 .3-1.4.6-1.4.2 0 .4-.3.6-.6.3-.8.2-4.8 0-5-.7-.4-1 .5-1.4 3.5l-.4 4.3c-.2 1.8.4 1 .6-.8zm90.3.6c.5-2.6.6-3.4.3-3.6-.2-.1-.3 0-.3.5l-.2 1.4c-.4 1.2-.6 3-.4 3 .2 0 .4-.6.6-1.3zm13.5-.4c0-.4-.2-.3-.4.4-.5 1.2-.5 1.6 0 .7l.4-1.1zm-99.8.5c-.1-.2-.3-.4-.5-.4-.3 0-.3.9 0 1.1.2.3.6-.2.5-.7zm66 .3c0-.4-.1-.5-.4-.3-.1.2-.2.5 0 .6.2.5.3.4.3-.3zM113 10c.7-.3.7-.5.7-2 0-1 0-1.7-.2-1.8-.1 0-.6.5-1 1.3-1 1.4-1.4 3.2-1 4 .1.4.2.4.5-.3.2-.5.7-1 1-1.2zm-91 1.3c.2-.2.8-.3 2-.1 1.8.1 1.8.1 2-.6.2-1 0-1.4-1.2-1.4a2 2 0 0 1-1.6-.6c-.7-.8-.6-1.5.5-2.2l.8-.6-.8-.1c-.8-.2-1.8.1-2.1.7l.1 1c.2.6.2 1 0 1.4-.6 1.3-.3 3.5.4 2.5zm139.6-1.7v-2c-.3.3-.5 4-.3 4s.3-.9.3-2zm36.2.3c0-1 0-1.3-.3-1.2-.2.1-.3.7-.4 1.4 0 1 0 1.2.3 1.2.2-.1.4-.7.4-1.4zm-136.5 1a1292.4 1292.4 0 0 0 .6-7c0-.4 0-.6-.2-.7-.2 0-.4.4-.6 1.2-.4 1.8-.4 6.7 0 6.7l.2-.1zm77.2-.7c0-1.2-.7-1.3-.7 0 0 .6.1.9.4.9.3 0 .4-.3.3-.9zM159.6 9c-.2-.8-.4-1.5-.6-1.6-.4-.3-.2-2.3.3-3 .5-.5.5-.5-.2-.8-.6-.2-.8-.1-1.4.3-.7.8-.8 1.8 0 2.7l.5 1c0 .4 1.5 3 1.7 3 0 0 0-.7-.3-1.6zm19.6-1.5c-.4-.3-.7-1.8-.5-2.9.1-.6.3-.7.8-.6.5 0 .6 0 .6-.4 0-.5-.7-.7-2.8-.7h-1.7v1.8c.1 1.3.3 2 .5 2 .2.1.3 0 .3-.5 0-.8.7-2.6 1-2.8.2 0 .4.2.4.6a601.3 601.3 0 0 1 1.4 6c.2.6.3.5.3-.8.1-1 0-1.5-.3-1.7zm-33.7-.2c-.7-1.8-1-.3-.5 1.9l.3 1.2.2-1.2c.2-.7.2-1.5 0-2zm43.6 1c-.1-1.7 0-2.3.3-3.3.5-.9.6-1 1-1 .5.2.6 0 .6-.5 0-.6-.1-.6-1.4-.6h-1.4l.2 3c.2 3 .4 4.4.7 4.4v-2zm14.1 0c.3-2 .3-2.9-.1-2.7-.5.1-1 1.9-1 3.3 0 1 0 1 .5.9.3-.2.5-.7.6-1.5zM32.3 9c.3-.9.2-1-.4-1-1.1 0-1.7 1.2-.8 1.4.9.3 1 .2 1.2-.4zm97.7-.5.2-2.6c.2-2.3 0-2.5-2.4-2.4-.9 0-.9 0-.9 1.5 0 1 .2 1.6.6 2 .7 1 1 .8 1-.6 0-.7.1-1 .4-1 .3 0 .4.4.4 2 0 2 .4 2.7.7 1.1zm47.7-1c-.3-1.1-.3-1.1-.5-.5-.2.5-.2.9.2 1.5.6 1.1.8.6.3-1zm-22.7 1c0-.8-.9-3.5-1.3-4-.5-.6-.8-.1-.9 1.6 0 1.2 0 1.5.7 2.2 1 1 1.5 1 1.5.2zM140.3 7c-.2-1.8 0-2.2.7-1.6.4.3.4.3.6-.8.2-1.5-.3-1.8-2-1.6-.8 0-1.4.2-1.5.3 0 0-.2 1.1-.2 2.5-.2 2-.1 2.3.2 2.3.5 0 .7-.5.7-1.4 0-.4.2-.7.4-.7.3 0 .4.3.4 1.2 0 1.1.2 1.5.7 1.5V6.9zM37.8 8.1c0-.2-.9-1.1-1.1-1.1-.4 0-.3.7.2 1 .6.3.9.4.9.1zM26 7.7c.1 0-.3-.2-.8-.2s-1 .1-1 .3c0 .3 1.6.2 1.8 0zm185-2.6V2.6h-.8c-.6-.1-.7 0-.7.7 0 1 .5 4.2.7 4.6.4.6.7-.6.7-2.8zm13.6 2.4c0-.3-.1-.5-.3-.4l-.3.6c0 .2.2.3.3.3.2 0 .3-.2.3-.5zM35.4 7.4c0-.3-.1-.4-.3-.3l-.2.4c0 .2 0 .3.2.3s.3-.2.3-.4zm165.8-.9c-.3-.3-.4.1-.2.8l.1.6.1-.6v-.8zM137 5.4V3.3h-.8c-.8 0-.8 0-.8 1.2 0 .6.1 1.4.3 1.6l.3 1c.1.2.4.4.6.4.3 0 .4-.4.4-2.1zm78.3 1c.4-1 .3-1.4-.4-1.2-.2.1-.4.5-.4 1.2 0 1.4.4 1.4.8 0zM5 6.8 5.2 5c0-1.2 0-1.4-.5-1.4-.4 0-.5.3-.6 1v2.7c.2.2.6 0 .9-.5zm34.6-.2c0-.3 0-.6-.2-.7-.2-.1-.3.2-.3.7 0 .4.1.7.3.6l.2-.6zm69-2c.2-.8-.4-1.1-1.6-1.1-1 0-1 0-1 1l.1 1.9.2 1 1-1.2c.7-.6 1.2-1.3 1.3-1.6zM206 5.8c.2-.6.3-1.6.3-2.1 0-1 0-1-.7-.9-.7 0-.7.1-.7 1.7.1 3 .6 3.5 1.1 1.3zm7.8-.6c.6-.8 1-1.7 1-2 0-.7-.1-.7-1.1-.7-1.3.1-1.5.5-1.5 3.2 0 2 0 1.9 1.6-.5zm3.9-2c0-.3-.2-.4-1-.4-.7 0-.9 0-.9.5 0 .3.3.6.6.8.4.2.5.5.5 1.8v1.5l.4-1.9.4-2.3zm-97.8 2.5c.2-1.8.1-2.3-.8-2.4-1 0-1.2.3-1 1.2.2 1 1 2.5 1.4 2.5.1 0 .3-.6.4-1.3zm99.4.8c0-.8.5-1 .7-.3.3.6.3.6.4-.1l.3-2.2c0-1.3 0-1.3-.8-1.4-.8 0-.9 0-1 .8v2.3L219 7c.2 0 .3-.2.3-.5zM32.7 6c.4-.5.4-1.1.1-1.1-.5 0-1.9 1-1.9 1.4 0 .5 1.3.3 1.8-.3zm128.8-1.3V6 4.7zM38.2 6.2c.2-.3-.2-1-.6-1-.5 0-.7.4-.3.9.3.4.6.5.9.1zm161-.4c.2-.5.4-.7.6-.6.3.1.4 0 .4 0 0-.2.7-.8 1.5-1.3s1.4-1 1.4-1.2c0-.1-.5-.2-1.3-.2-1.3 0-1.3 0-2.4 1.6-1 1.5-1.3 2.4-.7 2.4l.5-.7zM35.4 5.5c0-.4-.2-.7-.6-.8-.8-.2-.9.1-.2.8.8.8.8.8.8 0zm77.2-.2c.3-.5.7-1 .9-1 .1 0 .2-.2.2-.5 0-.6-1-.7-1.5-.2-.4.5-.7 2.6-.4 2.6 0 0 .5-.4.8-1zm38.2.1.4.3c.3.5.6.2.9-.9.4-1.4.2-1.8-1-1.8-.8 0-.8 0-1 1.2-.2 1.2 0 2.6.3 1.7 0-.3.2-.5.4-.5zm18.5-.5c0-.6-1-1.4-1.2-1.2L168 5c0 1 0 1 .6.7.4-.2.7-.5.7-.7zm-23 0c.3-1-.4-1.6-1.7-1.6l-1 .2c0 .4 1.9 2.2 2.3 2.2.2 0 .4-.3.5-.7zm76.8-.1c1-.8.8-1.5-.2-1.5-.4 0-.7 0-.7.2 0 .1 0 .6-.2 1-.2 1 0 1.1 1.1.3zM44.3 4.5c1-.4 2.7-.8 3.6-.9.9 0 1.7-.3 1.7-.5.2-.4-4.3-.5-5.4 0-1 .4-2.7 2-2 2l2-.6zm154-.7c.7-1.1.6-1.7 0-1-.3.2-.6.8-.8 1.3-.6 1.4 0 1.1.8-.3zm10-.3c-.1-.7-.3-1.3-.4-1.3-.3 0-.3.6 0 2 .1 1.4.5.8.3-.7zm-82.4.7c0-.7-.7-1.2-1-.7-.4.2.3 1.4.7 1.4.2 0 .3-.3.3-.7zm49-.5c0-.5-.2-1-.3-1-.2 0-.3.5-.3 1.1 0 .7.1 1 .3 1l.2-1.1zm-25.7.1c0-.4-.2-.5-.7-.5-.8 0-.8.2-.2.8.5.6.9.4.9-.3zM41.5 3.6c.7-.6.6-.8-.3-.8-.6 0-.8 0-.8.4 0 1 .4 1 1.1.4zm143.6-.1c0-.3-.1-.6-.3-.6-.6-.3-.8 0-.6.6.2.7.8.6.9 0zm-147 0c.1 0 .2 0 .2-.2 0-.4-1.1-.2-1.3.2 0 .3 0 .3.4.2l.7-.2zM54 3c1.3 0 2.2 0 2-.2a15 15 0 0 0-5.4.3 18.4 18.4 0 0 1 3.4 0z"/>
</svg>
