<?xml version="1.0" encoding="utf-8"?>
<svg xmlns="http://www.w3.org/2000/svg" xmlns:svg="http://www.w3.org/2000/svg" version="1.1" viewBox="0 0 222 146">
  <title>Pigling Bland and Pig-wig walk away from the farmhouse in the pre-dawn light.</title>
  <path d="m214.3 145.2-8-.5c-3.7-.3-10.6-.4-13.4-.3-.7 0-2 0-3-.2-4.2-.6-7.3-.9-13.3-1.2a7388.7 7388.7 0 0 1-20.7-1.4 113.4 113.4 0 0 0-20.4-2.6l-9.2-.7c-5.5-.4-15.9-1-21.8-1.1-5.8-.2-12.1-.6-12.4-.8-.1-.2-.4-.2 5.8 0l10.2.5a418 418 0 0 1 47.7 4c1.1.2 4.3.5 7.2.6a404.8 404.8 0 0 1 22.4 1.5l5.3.2a332.2 332.2 0 0 0 16.7 1c6 .3 12.7.9 12.7 1 0 .2-.4.3-.8.2-.5 0-2.7 0-5-.2zm-61.8-2.2-1.6-.4 2.1.2c1.2 0 2.4.2 2.8.3 1.2.4-1.5.3-3.3-.1zm-5.7-.6a255.7 255.7 0 0 0-16.6-1.4 374.2 374.2 0 0 0-21.8-1.6c-2.9 0-4.5-.2-4.3-.5.1-.2 4.3 0 16.7.9l9.8.7a214 214 0 0 1 20 2.1c.5.3-.2.3-3.8-.2zm59.4.3-9.5-.5c-4.8-.3-9.1-.5-9.6-.7l-1-.2h1.1a133.8 133.8 0 0 0 11.1.6c7.5.2 18.8.7 18.9.8.1.2-9.7.1-11 0zm11.8 0h1.1-1.1zm-1.3-1.4-1-.2h1l2.4.1 1.4.2h-1.4l-2.4-.1zm-3.5-.2-3.4-.1a234.3 234.3 0 0 1-15.5-.7c-5.7-.2-9.1-.4-9.2-.6-.1-.2 3.6 0 18.1.6 5.3.2 10.3.5 11 .7l1.3.2h-2.3zm-26-.2c-.2-.3-14.5-1.2-24.3-1.6l-11.2-.7a523 523 0 0 1 38.2 2.1c0 .3-2.4.4-2.6.2zm31-1.5c-2.4-.4-12.4-.9-22.1-1.2-6-.2-8.5-.4-8.4-.7.2-.2-1-.4-5.5-.7a597.5 597.5 0 0 0-23-1.4 210.2 210.2 0 0 0 15 .4 6307.6 6307.6 0 0 1 16.4 1.4c.4.3 1.5.4 6.4.6a190.3 190.3 0 0 1 21.3 1.6zm-173-1c0-.2-.3-.3-1.6-.3-1 0-2-.2-2.3-.3-.5-.1.2-.2 1.9-.2 1.4 0 2.6 0 2.8.2 0 0 0 .4-.3.6-.4.4-.5.4-.5 0zm50.7.2c-.4-.1 0-.2 1.2-.2 1.3 0 1.5 0 1 .2-1.1.3-1.6.3-2.2 0zm4.2 0h2.5c.7.1.1.2-1.3.2-1.3 0-2 0-1.2-.1zm-43.7-.2h.8c.2.1 0 .2-.4.2-.5 0-.6-.1-.4-.2zm-8.2-.3a33.1 33.1 0 0 1 5.8.2c.2.1-5 0-5.8-.2zm31.7 0c0-.3 4.7-.1 5 .1l-2.4.1c-1.5 0-2.6 0-2.6-.2zm6.8 0H88c.3.1 0 .2-.6.2s-1 0-.6-.1zm-24.1-.3c-1.5 0-2.6-.2-2.4-.2.7-.2 6.4 0 6.6.2a1067.4 1067.4 0 0 1-4.2 0Zm7 0zm-45.8 0-10-.3c-6.8-.1-10-.3-10.2-.5a48067.8 48067.8 0 0 0 20.9.6c-.2.2-.5.3-.7.1zm5.4-.2c.2-.4 1.2-.4 1.8 0 .2.1 0 .2-.8.2-.7 0-1 0-1-.2zm3 0c-.5-.2-.5-.3 0-.3.2 0 .7.1 1 .3.7.2 0 .2-1 0zm2.2 0c0-.4.4-.4 1.3 0l.7.2h-1c-.6 0-1-.1-1-.2zm3.9 0h1c.3.1 0 .2-.5.1h-.5zm110.1 0-.9-.2h1.3c.7-.1 1.2 0 1.2.2s-.2.2-1.6 0zm-6-.6a685.5 685.5 0 0 0-45.4-3c-9.8-.5-13-.8-13.4-1-.5-.3 7.4 0 11.5.3a226.6 226.6 0 0 0 17.3 1c5.8.2 18.3 1.1 22.5 1.5 7.2.8 12.4 1.4 10.9 1.4-.8 0-2.4 0-3.5-.2zm74 .2a212 212 0 0 0-17-1.1l-8-.4c-3.8-.2-5.9-.4-6-.6-.1-.2-.3-.2-.4 0-.3.4-1.6.2-1.6-.2 0-.2-.3-.3-.6-.3-.5 0-.6.1-.2.3.2.2 0 .3-.8.2-1 0-1 0-.7-.2.4-.2.5-.2.1-.3a186.7 186.7 0 0 0-20.6-1.3c-1-.3 5-.1 14.3.3 8 .4 12.3.8 12.2 1.2 0 .2.1.4.3.4a601.9 601.9 0 0 1 27.4 1.4l4.5.4 1.2.2h-4.1zm-172.5-1-1.7-.1h1.6l2.4.1.8.2h-.7c-.4 0-1.4 0-2.4-.2zm104.7-.5a28 28 0 0 0-3.7-.8c-.4 0-1.2-.3-1.7-.6l-1-.7-5.7-.4a2877.8 2877.8 0 0 0-46-2.6 221 221 0 0 0 9.1.2c8.6.2 30.2 1.2 34.7 1.6 1.7.2 2 .1 2-.2 0-.5 1-.4 3.3.2 1.3.4 2.3.6 6.8 1.2a65.5 65.5 0 0 1 9.8 1.6l1.9.2h-6.2v.6c0 .6.2.6-3.3-.3zm-.7-1c0-.4-.7-.6-1.7-.6s-.8.3.4.5c1.3.3 1.3.3 1.3 0zM40.2 136h.5c0 .2 0 .2-.4.2-.3 0-.3 0-.1-.2zm45 0h1c.2.1 0 .2-.6.2s-.8-.1-.5-.2zm3 0h.9c.3.1 0 .2-.5.2s-.7 0-.4-.2zm-62-.2-25.6-.4c-.2 0-.3 0-.3-.2s1.2-.2 3.2-.2a1164 1164 0 0 0 25.9.7l2 .2h-2.6a16 16 0 0 1-2.6 0zm8.4 0h1.8-1.8zm38.4-.1c0-.1.2-.3.4-.3s.4.2.4.3c0 .1-.2.3-.4.3s-.4-.2-.4-.3zm5.8 0 .5.1s0 .2-.3.1c-.4 0-.4 0-.2-.1zm1.3 0 .5.1c.1 0 0 .2-.3.1-.3 0-.4 0-.2-.1zm1.2 0h.8c.2.2 0 .2-.5.2-.4 0-.6 0-.3-.1zm-20.4-.3c0-.3 1.5-.3 2.7 0 .6.2.4.2-1 .3-1 0-1.7-.1-1.7-.3zm5.8.1h1l-.5.1h-.5zm2.8 0h1l-.5.1h-.5zm-17.7-.3h1c.3.1 0 .2-.5.2-.6 0-.8 0-.5-.2zm3.2 0h2.6l-1.4.1H55zm164-.5h1l-.5.1h-.5zm-5-.3c.1-.2.6-.2 1.3 0l1 .2H215c-.9 0-1.2 0-1-.2zm-8.3-.3-8.5-.4c-3 0-6-.3-6.5-.4l-.9-.2h.8l22.9 1.1c.2.2-4.1.1-7.8-.1zm-165.4-.8c-1.4-.1-9-.3-17-.3-22.8-.2-23.1-.2-23-.4l16.6-.1c15.6 0 25.9.3 27.5.8l.7.2h-1a77 77 0 0 1-3.8-.2zm110.4-.2c-2.7 0-4.3-.2-4.5-.4-.2-.2-.2-.2.2 0l5.1.1c2.6 0 5.3.1 6 .3l1.1.2h-1.8l-6.1-.2zM50 132.8a162.6 162.6 0 0 1 13-.1c-.3.1-8.2.2-13 0zm16.1 0c-1-.2-.7-.2 1-.2h2.2c0 .2-2 .3-3.2.2zm7.3 0c.5-.3.8-.3 1 0 .2.2 0 .2-.7.2h-1zm3 0a7 7 0 0 1 1.6 0c.4.1 0 .2-.9.2-.8 0-1.2 0-.7-.1zm3.3 0H81c.4.1 0 .2-.7.2s-1 0-.6-.1zm-8.8-.2h.5c0 .1-.1.2-.4.2-.3 0-.4-.1-.1-.2zm71.8 0h2l-1 .1c-1.1 0-1.6 0-1-.1zm73.7-1.3h.6l-.3.1c-.4 0-.5 0-.3-.1zm2.3 0h.7l-.3.1c-.4 0-.5 0-.4-.1zM85.1 131l-3.4-.3c-2.6-.2-3.4-.4-2.5-.7.4-.2 10 .3 10.2.4v.3c-.2.2-3.7.4-4.3.3zm85.4-.2a359 359 0 0 0-24.7-1.4c-6.6-.3-13-1-8.7-1 4 0 36 2 37.5 2.4l1 .2H174c-1 0-2.5 0-3.5-.2zm42.4.1h1.7c.5 0 .1.1-.8.1h-.9zm-166.7-.3a318 318 0 0 0-24.8-1c-9 .3-20.9.4-20.9.2 0-.5 25.7-.7 35.5-.3a92 92 0 0 1 12.5 1c.3.4 0 .4-2.3 0zm162.5 0h.5c.1.2 0 .2-.3.2s-.4 0-.2-.1zm-75.3-.3a53.8 53.8 0 0 0-13-1.5 849.7 849.7 0 0 0-41.8-1.1 645 645 0 0 1 49.2.8c0-.2-.3-.3-.7-.3-.3 0-.6-.1-.6-.3 0-.3.2-.3 1.9 0a42.5 42.5 0 0 0 12.4 1.8l5.1.6 1.3.2h-1.9c-1 0-3 0-4.4-.2-5.5-.5-5.7-.5-5.7-.1s-.4.4-1.8 0zm66 0-1.4-.2h1.6l3.6.2 2 .2h-2.3c-1.2 0-2.8 0-3.5-.2zm-126.6-.2h2.4l-1.2.1h-1.2zm117.4 0-2-.2h2.9c1.6-.1 2.9 0 3 .1.1.3-.5.3-3.9 0zm5 0h1.7c.5 0 .1.1-.8.1h-.9zM60.6 130l-8.9-.2c-4.8-.1-10.4-.4-12.5-.6l-3.9-.3h2.2c1.2 0 4 0 6 .2 5.5.4 7.2.4 13 .5 3 0 4.9.1 4.9.3 0 .2-.6.3-.8.1zm3.2-.1a21 21 0 0 1 3.5 0l2.2.2h-3.6c-2.6 0-3.2 0-2.1-.2zm116.3-.2h2.7-2.7zm-146-.7-8.7-.3c-4.7 0-8.6-.2-8.7-.3a215.6 215.6 0 0 1 18 .7l-.6-.1zm-33.6-.7c0-.4 15.2-.3 15.7 0 .2.2-3.3.2-7.7.3-5.4 0-8-.1-8-.3zm174.3-.3-12.3-1-2.8-.2h2c3.4-.1 14.4.7 17.4 1.2l1.2.2h-1.8c-1 0-2.7 0-3.7-.2zm44.1 0c0-.1.2-.2.6-.2.3 0 .6 0 .6.2s-.2.3-.5.3-.6-.1-.7-.3zm-6-.2c-.9-.1-1.5-.2-1.4-.3.5-.3 5 0 4.8.3-.2.2-.5.2-3.3 0zm-3.1-.1-5.1-.3a324.7 324.7 0 0 1-5.6-.5c7.8.1 12.3.4 11.6.6-.6.3-.8.3-1 .2zm-169.3-.5-1.5-.1h1.7c1-.1 1.6 0 1.5.1 0 .2-.2.3-.2.3l-1.5-.3zm26.3-.1-8.2-.4c-4.7 0-14.8-.6-15-.8a409 409 0 0 0 8.2.1 940.9 940.9 0 0 1 24.4 1.2c1 .4-3.5.3-9.4-.1zm68.4.1a1056.1 1056.1 0 0 0-21.4-1.4 62.2 62.2 0 0 0-13.2-.2c-.4-.4-1.3-.4-14-.7a302 302 0 0 1-10.8-.4l1.2-.3c.8 0 1.3-.2 1.3-.3-.2-.1-14.4-.6-23.3-.8-7.8 0-9 0-9.1.3-.2.5-1 .5-.9 0 .1-.3-2-.4-3.3 0l-.8.2.4-.5.3-.4 13.2.1c14.8.2 24.5.6 25.8 1.1.6.3 3 .4 9.6.5 4.8.1 9 .3 9.2.4.2 0 .4 0 .5-.3 0-.2-.4-.9-1.2-1.7l-1.2-1.3-7.1-.2a83.3 83.3 0 0 0-6.2.1c.6 0 1.3.1 1.5.3a228.8 228.8 0 0 0-6-.2c-2.4-.1-3.2-.3-3.5-.6a12 12 0 0 0-5.6-.7c-.7.2-1.5-.4-1.2-.9.3-.4 1.6-.5 5-.1 2 .2 5 .3 6.8.3 2.3 0 3.6.1 4 .3.4.2 1.8.4 3.7.4 1.7 0 3.8.2 4.7.4 2 .4 2.5.2 1.6-.8-.4-.4-.6-.9-.5-1.6 0-.8-.1-1-.5-1L93 117l-5.9-.2-5-.2-.4.5-.5.5h1l1.1.4a423.2 423.2 0 0 0-25.7-.9c-7 0-13.4-.3-13.9-.5-1-.2-1.6-.7-.9-.7a142.4 142.4 0 0 0 16.6 1c2.8 0 7.6 0 10.7.2 4.7.1 5.6 0 6-.2.2-.2.7-.6 1.2-.8 1-.4 1-.7.4-.9-1-.3-14.8-.7-26.1-.7-6.4 0-12.1-.2-12.6-.3a467.2 467.2 0 0 1 37.3.3 5 5 0 0 1 1.7-.3c1.3 0 1.6-.2 2-.8.7-.8.6-1-.6-1.3l-.9-.2h2.3l.5-1c.5-1.1.3-1.3-2-1.4-2.5 0-2.4-.3.1-.3h2.2l.4-.6c.7-1 .3-1.5-1.2-1.5-1.4 0-1.7-.3-.3-.4 1.3 0 1.4-.1 1.3-.4 0-.2-.7-.4-1.4-.5l-1.3-.2h1.2c1.3 0 1.9-.6.7-.6h-.6l.5-.4c.2-.2.4-.5.4-.8 0-.3.4-.8.8-1.2 1-.8 1-1.2-.4-2l-.9-.6H77c-2.1 0-4.1-.1-4.5-.3l-4.7-.4a21 21 0 0 1-4.1-.4 215 215 0 0 0 14 .6h2.2l.2-.6c.2-1-.5-1.3-2.7-1.3l-3.6-.3c-3.6-.5-7.2-.7-30.3-1.4l-4.4-.2 1 .4c.5.2 1.3.4 1.8.4 1 0 2.2.6 1.2.6-1.3 0-6.8-1.1-7.3-1.5l-.6-.3 1-.2 1.9-.2h1l-1-.5c-.7-.4-1.7-.5-4.4-.5A395 395 0 0 0 3.9 92c-2.6 0-3-.2-2.8-.5a530.2 530.2 0 0 1 33.6 1.7c0-.1-1-.5-2.3-.9-1.2-.4-2.7-1-3.2-1.4-1-.8-2-1-2.3-.5a250.6 250.6 0 0 0-26-1 211.3 211.3 0 0 1 22.9.5h1.9c0-.4-1-.7-3-.8-4.4-.1-9.5-.5-9.7-.7h3l3.3-.1c0-.7-3.2-1.1-10.9-1.4-4.1-.2-7-.4-7-.6 0-.2 1.5-.2 4 0l4.1.1v-.4c0-.5.1-.5 2.2 0 1.7.4 4.6.7 9 1 1.5.2 2 .3 1.7.5-1 .6 0 1.4 1.4 1 .8-.1.7-.7-.2-.9-.6 0-.6 0 .2-.1 1 0 7 .6 8.4.9l.8.2-.3.7c-.2.6-.5.8-1 .8-1 .1-1.2.6-.3 1.2.5.4 1.3.5 5.2.4l6.1.2c1.2.2.2.2-3.5.2-5.3-.2-5.8 0-3.3.7 1 .4 3.2.5 11.5.6 5.6 0 13 .2 16.5.3 10.8.3 23.2.2 23.4-.2.2-.2.1-.4-.2-.5h-7c-3.5 0-7 0-7.6-.2a395.9 395.9 0 0 1 12.9-.3h2.4l.6-.6c.4-.3.8-1 .8-1.4l.1-.8H86c-2.3.1-3.4 0-3.6-.1 0-.2.9-.3 3.4-.3 2 0 3.7-.1 3.7-.2.1-.2-.3-.6-.8-1-.9-.5-1.4-.7-2.4-.7-3 .2-3.5 0-3-.5l.3-1.2c0-1 .4-1.4 1-1a12 12 0 0 0 4.2 2.2c1.8 0 2.3-.2 3-1.6.5-.8.8-1.4.7-1.5h-4c-2.5 0-3.8-.2-3.7-.3.2-.2 2.1-.3 4.4-.3l4-.1.1-.5.1-.4-2.6-.1-2.6-.1h3l3-.1.9-.8 1-1a65.8 65.8 0 0 1-7.8-.6 79 79 0 0 0-6.4-.5 232.5 232.5 0 0 0-36.2-.8 356.7 356.7 0 0 0-28.7-.6c-8.6 0-15.7-.2-15.7-.2 0-.4 2.5-.4 16.3-.4 14 .1 15.5.1 19.4.5a33.7 33.7 0 0 0 11-.1h5.8c4.6 0 2.6-.6-4.9-1.2-1.1 0-4.3-.5-4.8-.6-2-.4-7-1.2-9-1.4a39.3 39.3 0 0 0-12-1.1 41 41 0 0 1-11-.8c-2 0 .3-.2 8.9-.3a7 7 0 0 0 2.3-.2v-.2l-11.3-1a9 9 0 0 1-2.8-.7c-.4-.3-1.4-.5-3-.5-2.7-.2-3.7-.5-1.4-.5.8 0 1.6-.1 1.8-.3.3-.3 2-.5 4.8-.7 3.3-.2 4.4-.4 4.8-.7.7-.6.3-1-1-1-4 .2-13.3 0-13.3-.2s2.2-.3 7.5-.2H17l.6-.7.7-1c0-.2-3.5-.6-3.7-.4 0 .1 0 .4.2.6l.4.4-.8-.2c-.4 0-1-.3-1.1-.4-.2-.2-2-.3-4-.4H5l-.8-.1 1-.2a4 4 0 0 1 1.4-.1l.7-.1c.2-.4-4-1.5-4.6-1.3-.6.2-1.5 0-1.5-.4 0-.2.7-.3 2-.1 2.3.2 3.3-.2 1.5-.6l-1-.2.9-.1 1-.2v-2.2H4c-2 0-2.1-.5-.1-.6h1.5v-.9c-.2-1-.6-1.5-1.4-1.3l-1-.1c-.4-.2-.2-.3.6-.3l1.2-.1c.3-.3-.2-2.1-.6-2.2-.2-.1-.2-.2 0-.4.4-.6 0-2.6-.6-2.9l-.5-.3.4-.3c.4-.2.4-.6.2-2-.3-2.9-.6-2.9-1.1 0l-.4 1.9.4.2.4.3h-.4c-.5 0-.6.3-.9 2.5 0 1-.3 1.9-.5 2.2-.3.4-.4.2-.3-1.1l.4-2.6c.4-1.3 1.4-6.5 1.5-7.8.1-.8 0-1.2-.1-1.2-.2 0-.3-.1-.3-.4 0-.3.1-.3.5-.2.4.1.6 0 .8-.7.2-.5.4-.7.5-.5.3.4.2 1-.2 1.8-.2.3-.3 1-.2 1.6 0 1.1.5 1.3 2 .7a66 66 0 0 1 1.5-.7c3.2-1.2 4.2-1.8 4.3-2.1 0-.3.5-.5 1.3-.6 1.4-.2 4-1.4 4-1.8 0-.3-2.6-.3-7.9 0-2.3.2-4.3.2-4.6 0a174.5 174.5 0 0 0 11-.7c1.3 0 1.6-.2 1.7-.6.2-.7.5-.7.7 0 .2.8 1.3.7 2.1-.1.5-.5.8-.6.9-.4v.4l.1.5c.3.3.2.4-.2.4-.5 0-1.4 1.1-1.4 1.8 0 .2.7.3 1.5.4h1.6l-1.8.2-1.7.1-.3 1.2c-.2.7-.3 1.5-.2 1.7l.1.5 4.5-.2 4.4-.1c.2 0 1.6-2.4 1.8-2.8l.2-.4h-3.1l-3.1-.1 3.2-.2a24 24 0 0 0 3.3-.2l1-2c0-.1-.5-.2-1.1-.2h-1.2l.8-.2 1.5-.4c.8-.2 1.3-1.1 1.4-2.8v-1.2l-.6-.1-.7-.2h.7c.8 0 1.2-.8.8-1.4-.2-.2-.2-.7-.1-1.1.1-.7 0-.8-.5-.8h-.6l.6-.2.6-.3v-1.6c0-1-.2-1.8-.3-2-.2-.2-.1-.4.1-.6.3-.2.4-.6.4-.8 0-.7.5-.9 1-.5.8.5 1.4 0 1.4-.8 0-1-.7-1.3-1.8-.9-.8.3-3.7.1-3.7-.2 0-.1 1.4-.3 3-.3l3.2-.1.1-.8.2-.8h1c.9 0 1.1.1 1.5.8l.6 1-.2.8c-.6.8-.4 1 1 1 .7 0 1.5.1 1.8.3l.6.3-.6.2c-.5.2-.6.3-.3.6.3.4.2.5-.1 1-.8.8-.2 1 4.6 1.2l4.6.3h-4.5c-2.6 0-4.7 0-4.9.2-.1 0-.2 1-.2 2.4v2.3l4 .2a1242.5 1242.5 0 0 1 28.8 1.7c0 .4-3.7.3-9.3 0-2.6-.3-8-.6-12.3-.8-6.6-.3-7.8-.3-8.6 0-1.3.6-3.9.4-3.7-.1.2-1 .3-2.7 0-3-.2-.2-.2-.4 0-.7.2-.5.4-3.6.2-3.9l-3.2-.1c-3.2 0-3.9 0-3.5 1 0 .2.6.3 2.6.4h2.4l-2.5.2-2.5.1v7.5l.1.6h2c1 0 2.1.1 2.4.3h-2l-2.5-.1-.5.7C32 37 32 37 35 37c1.6 0 2.7 0 2.7.2 0 .1-1.3.3-3 .3h-3l-.4.9c-1 1.6-1.7 1.5 12.3 1.4h11c-1 .2-5.4.3-10 .3s-8.4.2-8.5.2l-1 2c-.1.1 1 .2 2.7.1h2.8c0 .3-4.3.9-6 .9-.9 0-1.5-.2-1.7-.4-.3-.4-.1-.6.7-.5.4 0 1.4-1.2 1.4-1.8v-.5h-4.4l-.5.6c-.8.9-1.7 2.5-1.5 2.6l1.2.2c.6 0 1 .1.9.2l-1.4.2c-1.5 0-2 .7-.6.7h.9l-1.1.2c-1.1.2-1.8.7-1.5 1.2 0 0 3.4.2 7.4.2s7.3 0 7.4.2c.2.5-.1.5-7 .3H26l-.6 1-.5 1.2 2.5-.1c3.7-.4 39.9-.6 42.2-.3a2741 2741 0 0 0-30.9.2l-8.5.1-.4.5c-.4.3-1 .4-3 .3-2 0-2.5 0-2.3.3l2.5.4 4.4.3c1.1.2 5.2.3 9 .3 3.7 0 7.3.2 8 .3.6.2 4.7.3 9.1.4 4.4 0 9.3.3 10.9.4l15.5.7 14.4.5 1.9.2v-4a24.6 24.6 0 0 0-.5-7v-1.4h-1.2l-1.1-.2v1.2l-1.7-.2c-4.3-.4-5-.5-5-.7 0-.1-.1-.2-.4-.2-.2 0-.3-.1-.2-.3 0-.1 1.8-.2 4.5-.1 5 .2 5.5 0 5.4-.9l-.1-.7h-1.5c-2-.2-2-.7-.1-.7 1.6 0 1.9-.3 1.6-1.7l-.2-.7-12.9.1H74.4c.2-.2 5.4-.3 11.7-.3 6.2 0 11.4-.1 11.6-.2.6-.4-.1-.5-3-.6a126.4 126.4 0 0 1-10.1-.4c-8.8-.3-10-.4-10-.8a280 280 0 0 0 14.5 0 176 176 0 0 1 11.5.4c-.3.1-.2.3.2.9l.6.7h3c1.5 0 2.8 0 2.7.1-.1.1-1.5.2-3.2.2h-3v1l.1 1.1c.1.1 1 .3 1.8.3 1 0 1.8 0 2 .2.5.3.2.3-2 .3-1.3 0-1.8 0-1.9.3-.3.7.4 1.5 1.3 1.5.4 0 .7.1.6.3 0 .1-.5.2-1 0-.9-.1-1 .3-.7 2.7a94.8 94.8 0 0 1 .7 9.6v.6h4.1c6.5 0 17.3.4 16.7.6h-19.8c-.7 0-1.2.6-.8 1 .2.2 3.4.3 7.3.4l7.5.3 9.4.4 10 .5 1 .2h-1c-.7 0-3.7 0-7-.2a1706.2 1706.2 0 0 0-21.8-.8l-5.4-.1v1.6l6.7.2c8.8.2 17.8.7 17.8 1 0 .2-1 .2-2.5 0l-3-.1c-.2 0-2.2 0-4.3-.2-2.1-.2-6.4-.3-9.4-.3h-5.6v1.2l5.6.3c4.3.2 5.5.4 5.8.7a315.2 315.2 0 0 0 20.8.5h1.5l.1-.7c.1-.3 0-.7 0-.8l-1.9-.1c-1.4 0-1.6 0-1.1-.3.3-.2 2.3-.2 6 0h7c1.2 0 1.3 0 1-.4-.4-.6-3-1.7-4.4-2-.7 0-2-.4-3-.7-1.6-.5-2.8-.6-6.6-.7a33.4 33.4 0 0 1-7.5-.7c-1 0-1.7 0-1.6-.2.1-.2.6-.3 1.2-.3h1l-.7-.3-1.5-.7c-1-.5-9.8-.9-15-.7-2.5.1-3.6 0-3.6-.1 0-.3 1.7-.4 9.6-.3 2.8 0 5-.1 5-.2 0-1-1.3-1.1-10.7-1.6-2.5 0-4.5-.2-4.5-.4 0-.3 4.9-.2 7.8.2l4 .4 1-.1-2.4-1.3L112 48h-2c-1.1 0-1.8-.1-1.6-.2l.8-.3c.6-.2-.8-1-1.7-1-.6 0-.9-.1-1-.5 0-.3.1-.4.9-.3a8 8 0 0 1 1.4.4l1.6.5 1.6.7c.4.3 2 .4 6 .4 5.2.1 9.7.3 9 .5H116.7c-2-.1-2 .4.2 1.3 1.9.9 2 .9 12.2 1.3 2.6 0 4.5.2 4.5.4A79.5 79.5 0 0 0 121 51c0 .6 2.4 1 7.4 1.4l7.3.5 2.1.2h-2.4c-1.3 0-3.5 0-5-.2-2.7-.2-5.5 0-5 .3l1.8.7c1.2.4 2.9.6 6.8.8 4 .2 5.3.4 6.2.8 3 1.4 6.1 1.7 18.3 2.1a460.2 460.2 0 0 1 26.1 1.5l14.2 1.2c5.5.6 8.5.7 9.4.5 1-.3 2-.1 1.6.3-.2.1-1.7.3-3.5.4-2.5.1-3.5.1-4.4-.2-.8-.2-1.1-.3-1.2 0 0 .1-1 .4-2 .5-1.4.1-1.7.2-1.3.4a91.5 91.5 0 0 0 18.5-1c2-.1 3.1-1.2 1.4-1.2-.7 0-.8 0-.5-.4.2-.3.4-.3.8 0 .5.2.6.2 1-.2.6-.9.3-1.3-1.2-1.6l-1.6-.5h-.7c-.3.3-.8.3-2 0-3.7-1-6.4-1.5-8.1-1.5a359 359 0 0 0-42.8-3l-8.6-.5c-.4 0 1.9-.2 5-.1 5.3 0 6.7 0 5.3-.5-.3 0-.6-.2-.6-.4 0-.5.4-.4 3.6.7.6.2 3.6.4 7 .6l7 .4c.7.1 1 0 1-.2 0-.4-1.5-1.2-2.3-1.2-.3 0-1.2-.4-1.9-1-1.3-.8-2.2-1-5.5-1.3l-4.2-.4c-5-.4-11-.6-10.5-.3.2.2.7.3 1 .3.8 0 3 .8 3 1.1 0 .2-.3.2-.7.1l-1.8-.4c-.6 0-1.6-.4-2.2-.8-.8-.4-1.6-.6-4-.8-1.6 0-3-.3-3.1-.4h1.8c2.5.2 2.9 0 1.8-1-.9-.7-2.5-1-8.1-1-1.8 0-3.4-.1-3.6-.3-.2-.1 1.3-.2 3.8-.1h4.3c0-.2-.3-.7-.8-1.2l-1-1-.6.4-.7.4-.4-.4c-.2-.2-.6-.3-.8-.2-.2 0-.3-.1-.3-.4 0-.3-.2-.6-.5-.7-.6-.3-7.6-.9-12.2-1a866.2 866.2 0 0 0-20.4-.7l-4-.1 1.6-.2c1-.2 3.1-.2 4.8-.1a1324.9 1324.9 0 0 0 16.5.6 1835.6 1835.6 0 0 0 11 .7c1.9.2 2.2-.3.5-.5l-2.5-.5A299 299 0 0 0 117 39l-.6-.2.6-.1h4.3a475.5 475.5 0 0 1 16.4 1l.6-.1-.5-.2-1.3-.6-2.4-.5c-.9-.1-1.8-.3-2.1-.5a29 29 0 0 0-5.3-1.2c-.7 0-1.6-.3-1.8-.5l-2.6-.6-2.7-.7c-.4-.2-1.7-.4-2.9-.5-1.6-.1-2.3-.3-2.7-.7a4 4 0 0 0-1.6-.7L110 32c-.8-.3-2.2-.5-4.3-.6a10 10 0 0 1-3.2-.4l-1-.4-2.5-.3c-1-.1-3.4-.3-5.3-.3-2 0-3.3 0-3-.2.1-.1 1.2-.2 2.4-.1l2-.1c0-.5-.7-.9-1.6-.9-1 0-5.4-.7-6.4-1a6 6 0 0 0-1.8-.3c-.8 0-1-.1-1-.5 0-.3-.1-.6-.3-.6l-1.6-.6A12 12 0 0 0 80 25c-.7-.1-1-.3-1-.7 0-.6-.2-.8-2.2-1.2-.9-.2-2.2-.7-3-1.2-.7-.4-1.7-.8-2.2-.8-.5 0-1-.3-1.9-1a7.4 7.4 0 0 0-3.3-1.7c-2.5-.8-2.7-.8-3.3-.3l-.5.5-1-.4-1.8-.4c-.5 0-.8-.1-.9-.5v-.5l1 .2 1.7.6c.6.3.8.3 1.5 0l.8-.4 1.8.4c2.6.6 2.6.6 4 1.6s2.3 1.4 5.7 1.6l2.4.2h-1.6c-1.6.1-2 .4-1.4.8l2.2.7 2.8.8.8.3-.4.5-.5.5H81c2 0 4.2.3 4.2.6 0 .8 2.4 2 4.6 2.1 1 .1 2 .4 2.2.6.3.3.7.4 1.2.3.5 0 1.2 0 1.7.2l1.2.3h.6c0 .2.5.4 1 .4s1.3.1 1.8.3c.5.1 2.8.3 5.1.3l4.4.3-.7.1c-.5 0-1 .1-1 .3-.2.3 2 .8 3.4.8.9 0 1.2 0 1 .3 0 .4 3 1.3 4.3 1.3 1 0 3.9-.8 4.2-1.1l1.2-.2a9 9 0 0 0 1.9-.3l2-.4 1-.2-.4-.3c-.4-.3-.2-.4 1.7-.5 3.1-.2 4.5-.5 5.1-1 .4-.2 1-.2 1.8-.1.7 0 1.4 0 1.9-.2l.8-.3-.7-.1c-.4 0-.8-.2-.8-.4 0-.1.4-.2.9-.1.4 0 1.1 0 1.5-.2 1.4-.8 2.8-1 3.4-.7.7.4 1.7 0 2.1-.9.5-.8.7-.9 2.8-1.1 1.7-.2 2.6-.7 2.6-1.5v-.5h-2.5a64 64 0 0 1-8.3-.6c-1 0-2.6-.6-2.4-.8a248.2 248.2 0 0 0 16.8 1.3c1.3 0 2 0 2.5-.4l.7-.4.5.5c.6.5 1.4.5 2 0 .7-.5 4.3-.2 5.2.5.6.4 1 .4 1.4.3.6-.2 1.3-.3 3.5-.4.6 0 1.2-.3 1.6-.7.6-.6 2-1.2 3.7-1.6l1.2-.5 2.3-.2c1.6 0 2-.1 3-.7.5-.5 1.2-.8 1.5-.8.3 0 .7-.1 1-.3.7-.5 2.2-.8 2.4-.5.3.5 1.8.3 2.7-.4l1.7-.8c.4 0 .8-.3.9-.5.2-.5 1.3-.7 5-.8l3.8.1c.4.2 1.1.2 2.5 0 1-.2 3.3-.3 5-.4l3.7-.2a5 5 0 0 1 2 .3c1 .3 1.5.4 2.6.1 1-.2 1.6-.2 2.1 0s1 .2 1.5 0c1-.4 1.6 0 .8.5a22.9 22.9 0 0 1-9-.3c0 .1-1.7.2-3.5.2a18 18 0 0 0-6.2.7c-.5.2-.8.1-1.7-.3-1.2-.6-2-.7-3-.2-.4.3-.7.3-1.1.1-.4-.2-.8-.1-1.6 0-.6.3-1.3.4-1.6.4-.3 0-.7.1-1 .3-.1.3-.5.4-.7.4-.3 0-.8.3-1.3.7-1.1.8-2.7 1-3.8.7-.6-.3-.9-.3-1.6.2-.5.3-1.2.6-1.5.6-.3 0-.6 0-.7.2-.5.8-2.5 1.4-4 1.2-1.4 0-1.7 0-2.1.4-.3.4-.7.5-1.3.4-.6-.1-1 0-1.2.2-.2.3-.5.5-.6.5a4 4 0 0 0-1.4.8 3 3 0 0 1-2 .7c-2 0-3 .2-3.6.5-.5.3-.7.3-1.6-.3-1.4-.9-4-1-5-.4s-1.4.6-2 0c-.4-.3-.6-.3-1.1 0l-3 .2h-2.3l-.5.8c-.2.4-.8 1.1-1.4 1.6l-1 1V26c-.2-.5-.4-.6-1.2-.6-.9 0-1.2.2-2.4 1.4L142 28l-.4-.6c-.5-.7-1.1-.7-1.8 0-.2.3-.6.5-.8.5-.5 0-3 1.3-3 1.6 0 .2-1 .3-2.1.3-1.2 0-2.2 0-2.3.2 0 .2-.5.3-1 .3l-2.7.6c-1 .3-3 .6-4.3.8-1.4 0-2.8.4-3.1.6l-1.2.4c-.4 0-.8 0-1 .2-.8.5 0 .8 2.3.9 1.2 0 2.2.1 2.2.3l-.3.2c-.2 0-.2 0-.1.2 0 .2.4.3.7.3l2.2.5c.8.3 1.8.5 2.2.5l1.4.4c.9.4 2.3.6 6.7 1 1.2 0 1.8.2 1.4.2-.7 0-.8.1-.5.4l1.3.7 1.5.7c.3.2 1.4.4 3 .4 1.4 0 2.3 0 2 .1-.8.2-.8.4 0 1.2l.7.6h2a15 15 0 0 0 2.9-.2c.6-.2.7-.2.6.2-.3.6.8.6 1.1 0 .4-.8.8-.8.6 0l-.1.4h2.7c3.6 0 4.7.2 4.8.9.1.4.4.5 1.3.5a6 6 0 0 1 2.2.5c1.3.6 5.5 1 7.6.7 1.7-.2 3 0 5.1.7 1.2.4 2 .4 3.2.3l4.2-.2c2.8-.2 2.7-.1-1.7.5l-1.5.3.8.3 2.2.5c.7 0 1.6.2 2 .4.4.3.6.3.7 0 0-.2.3-.3.5-.3s.3 0 .2.2c-.2.3.3.4 2.6.7 1.4.2 1.5.2.8.4l-.8.2 1.2.3 3.2.5 2 .2h-2c-1 0-1.8.2-1.8.4 0 .1.5.4 1 .5.7.2 1.3.5 1.5.7.4.4 5.2 1.1 8.2 1.2 1.3 0 2 0 1.6.1-.9.2-.7.6.2.6.4 0 .7.2.7.4s.3.5.7.6c.3 0 1.5.5 2.5 1 1.5.7 2.6 1 4.6 1.2 3 .4 6.8 1.3 7 1.7.2.1.1.5 0 .8-.2.3-.2.6 0 .8.5.6-1.7 2-4 2.4-1.5.3-.3.7 2.4.7 1.5 0 2.4 0 2.4.3 0 .2-4.2 0-6.5-.3-1.2-.2-10 .3-9.4.6l5.8.7c7.4.8 9.3 1 5.3.9a61.9 61.9 0 0 1-9.5-.9l-5-.5a88 88 0 0 0-15.6 0c-2.3.2-3.6.6-2.7.9l6.8.4a385.2 385.2 0 0 1 25 2 119 119 0 0 0-10.3-.7 488.8 488.8 0 0 0-25.8-1.4H177v1c0 .8.2 1.3.6 1.8l.5.8 4.3.4 4.5.7h-1.5c-4.7-.4-5-.5-5-.2s1 .7 3.4 1.2c1.5.3 6.4 0 6.6-.3a51.7 51.7 0 0 1 21 .3l5 .2c2.9 0 4.2.1 4 .3-.4.4-8.8.3-9.8 0-.8-.3-6-.8-9-.8-1 0-2-.1-2.1-.3-.3-.3-2.8 0-2.6.3 0 .1.8.3 1.7.3 1.8 0 3.7.3 3.3.5h-1.4a32.9 32.9 0 0 0-9.7 0c-1.2 0-1.5 0-1.5.4s-.2.4-1.1.3c-1.5-.2-1.7 0-1 .6.7.4 1.4.5 11.8 1.8a2163.8 2163.8 0 0 1 18.3 2.2c3.4.3 4 .4 3.6.7-.2.2-4.9 0-13.4-.6-2-.2-2.4-.3-2.2-.7.2-.2-.8-.5-2.2-.5H202l.7.4.6.4-1.8-.2-4.4-.3-6.6-.5c-3.3-.1-4.4 0-5.4.3a31 31 0 0 1-6.4 1.5c-1.1.1-2.7.5-3.5.7l-1.5.5 5.7.1 5.7.2h-5.8l-9.3.3c-.2 0-.2.1 0 .3l3.4.4c1.8.1 3.5.4 4 .6.3.2 1.1.4 1.8.4 1 0 1.1 0 1-.4 0-.4 0-.4.7-.2l1.3.5c.3.2 1.2.3 2 .3s1.1.1.8.2c-1 .2-.6.5 2.1 1.5 2.1.7 3.5 1 6 1.2l3.5.4-1.4.1c-1.8 0-1.8.4-.1.7.6 0 2.4.4 4 .8 1.7.4 3.2.6 3.7.5.6 0 1 0 1.3.4.7.6 2.8 1.1 8 2a310 310 0 0 1 7.6 1.2c1 0 1.8.2 1.8.6 0 .3-1.1.3-3 0l-5.4-1a86.7 86.7 0 0 1-11.7-2.4c-.7 0-2-.4-2.8-.7l-2-.5c-.3 0-2-.4-3.8-1l-3.2-.9-6.4-.3c-10.6-.6-25-1.1-26.6-1-.2.1.5.3 1.6.5l2 .3h-1.8c-2 0-2.5.3-1.5 1 1.2.6 4 1.4 5.5 1.5 1.3 0 1.4 0 .6.2l-1 .1 1.5.5c2 .6 4.2 1 8.3 1.4 2 .2 3.3.3 3 .4-1 0 5.4 1.7 7.8 2a86.3 86.3 0 0 0 14.7 1.3 62.6 62.6 0 0 1 11.6 1.3c1.3.2 3.4.4 4.6.4 1.4 0 2 .1 1.7.2-.4.2-.3.3.7.5l3.2.3c1.3.1 2 .3 2 .6.2.5-3.2.2-7-.5a37 37 0 0 0-4.7-.6c-1 0-2-.2-2-.3-.3-.4-2.4-.8-5-.9a97.8 97.8 0 0 1-11.7-.9 143.2 143.2 0 0 1-16.6-2.4 72 72 0 0 0-12-1.5c1.2 0 1.1-.6-.1-.6a41 41 0 0 1-4.6-.7 53.5 53.5 0 0 0-14.3-.7l-6.5.1h-2.2v.4c0 .6.9 1.7 1.3 1.7.2 0 .3.1.3.3l-1 .4-1.1.2v1.5h1.6l2.7.2c.9.2.4.3-1.9.3h-3l-.2 1c-.2.7-.3 1.2-.2 1.3.1.1 1.3.3 2.5.3 1.3 0 2.4.2 2.6.4.2.1-.4.2-1.5 0l-1.8-.1-.4.8-.4 1h1.1l2 .3c.6.2 4.8.3 9.4.4l8.6.3a919 919 0 0 0-21.6 0c-.8.1-1.9.8-1.6 1 .3.4 8.4 1 16.1 1.1l8.7.4a235.4 235.4 0 0 1-21-.5c-3.4-.4-3.4-.4-3.3.3.1.5.3.6 1.6.8l5 .3c2.1 0 3.8.1 3.9.2 0 .2-2.2.2-5 .2h-5.1v.6l-.2.7 1.4.5a8 8 0 0 1 2.2 1c.3.4 1.1.7 1.7.8 2 .3 8.7.7 12.6.7a247 247 0 0 1 25.3 1.7c.1.2-2.7 0-8-.4a78 78 0 0 0-17.6-.5c1 .3 1.4.9.4.6a98 98 0 0 0-12.1-1.2c-2-.3-3-.1-3 .6 0 .3.2.5.5.5.2 0 .4.1.4.3l-.4.2c-.2 0-.5.3-.7.6l-.4.6-.7-.7c-.6-.6-1-.7-3-.8h-2.8l-.2.7v.6l2 .2 15.3.4c16 .3 14.7.3 14 .5a354.8 354.8 0 0 1-30.4-.4h-1.3l-.2 1v.9l12.6 1 13 .3c10.4.2 12.6.3 19.8.9a62.7 62.7 0 0 0 5 0c-1 0-1.7 0-1.8-.2-.1-.2.2-.3.7-.3 1 0 3.7.5 3.2.5-.2 0-.3.2-.3.5 0 .4-.3.4-1.5.3a419 419 0 0 0-32.5-1.4 91.7 91.7 0 0 1-14.8-.8l-3.6-.2-.4 1c-.3.6-.3 1.1-.2 1.2 0 .1 1.8.3 3.9.4l4.2.2 9.7.3c8.4.1 22.8.7 27.4 1 1.1.2 1.9.3 1.8.5-.1.1-1 .2-2 .1a286 286 0 0 0-26.7-1c-1.5 0-4 0-5.6-.2l-8-.4-5.4-.2-.3.6c-.4.6-1 .7-.7 0 0-.2 0-.1-.4.3-.8 1-.7 1.3.6 1.3l2.6.1a382 382 0 0 0 9.5.8h-1.7l-6.7-.3-5-.2-.4.6c-1 1-.5 1.3 3.7 1.5a292.5 292.5 0 0 1 21.5 1.6l4.1.1c2 0 3.2.1 2.8.3h-7.3l-5.7-.2c.5 0 .8-.2.7-.3-.3-.3-7.8-.7-16-1l-5.3-.2-1.4 1.4-1.3 1.7 2 .2c2.1 0 4 .1 10.9.9l8 .8c5.4.5 8.2 1 8.2 1.3h-.6c-1.2-.3-4.4-.6-8.1-1-2.1 0-4.7-.3-5.9-.5a117.5 117.5 0 0 0-12.8-.9l-2.7-.2-.7.6a2 2 0 0 0-.7 1.5c0 .5 0 1-.2 1a4 4 0 0 1-2.5-1.5c-.3-.4-.8-.7-1.4-.9-.6 0-1.3-.3-1.7-.5-.9-.4-9-.9-9-.5s1 1.8 1.6 2.5c.4.4.9.6 1.8.6a164.6 164.6 0 0 1 9.2.4 393.6 393.6 0 0 1 18 1c.4-.2 19.3-.2 19 0 0 .1-3.8.2-8.3.2-5.2 0-8.2 0-8 .2 0 .2.7.3 1.4.3s1.3 0 1.3.2v.3l-2.9-.3zm-18.7-4.5.6-.3-1-.2c-1.8-.4-2.3-.3-2.2.2.1.2.4.3.7.2.3 0 .6 0 .6.2.2.3.6.3 1.3-.1zm-15.8-.6c-.1-.2-.3-.4-.5-.4-.3 0-.2.7.1.8.5.2.5.1.4-.4zm17.5-.9 1.2-1.5 1-1.4-2.1-.2c-1.7-.1-2 0-2.3.3-.3.3-.6.3-2.1.1l-1.8-.2h1.3l1.3-.1-.9-.2a61.6 61.6 0 0 0-11.2-.4c-.7-.2-1-.1-1 0 0 .2.3.4.7.4.4 0 1 .1 1.2.3.4.2 1.8.3 3.4.3h2.8l-2.1.2a34.9 34.9 0 0 1-4.7.4c0 .2 2.8.9 3 .7.2-.2 1.4-.3 2.7-.3l2.6-.2c.4-.2 4.4.2 4.4.5 0 0-.1.2-.4.2-.5 0-.7.4-.5.9.1.3.6.4 1.7.4.8 0 1.6 0 1.8-.2zm-7.5-2.9h.8c.1.1 0 .2-.5.1h-.3zm-30 2.5a5 5 0 0 0-2.2 0c-.7.3-.5.3 1.3.3h2zm18.7-.2-.5-.2c-.1 0-.2 0 0 .2 0 .2.2.3.4.3v-.3zm4.6.2c-.5-.5-2.3-1.6-2.8-1.6l-.5-.1.6.4c.3.2.6.6.6.9 0 .4.2.5 1 .5.7 0 1.1 0 1-.1zm5.5-.4c0-.2-.4-.3-.9-.3s-1 .1-1 .3l1 .2 1-.2zM97.8 118c0-.5-.2-.7-.6-.8-.7 0-.7 0-.5 1 .3.8 1 .6 1-.2zm22-.6h.6c0 .5 1 .3 1.5-.3l.5-.5-.7.1c-.4.1-.5.1-.3-.1.5-.6.3-.7-1.3-.9-1.2-.1-1.7 0-2.2.3-.6.3-.7.3-.9 0-.1-.3-.9-.4-2.6-.4a28 28 0 0 0-2.6 0c-.4.1 2.2.5 3.6.5.7 0 1.3.1 1.2.2 0 .1-2.2.2-4.7.1-3 0-4-.2-3-.3.9 0 1.6-.3 1.6-.4.2-.6-2.8-.5-3.2 0-.2.3-.8.5-1.4.5-1.2 0-1.6-.4-.5-.6.5-.1.5-.2.1-.3h-1c-.7.1-1.8 1-1.8 1.4 0 .2 3 .4 8.8.6l4.6.3c.3.2 3 .1 3.6-.2zm-25.2-1c-.1-.2-.3-.3-.5-.3l-1.1-.4-1.3-.4c-.2 0-.7 0-.9-.2-.2-.1-2-.3-4-.3l-3.7-.1-.4.5c-.8 1-.6 1.2 2.3 1.2 7.8.3 9.8.2 9.6 0zm6.2-.2c.5-.2.8-.5.7-.6-.2-.3-.8-.1-1.9.6l-.8.4h.6c.4 0 1-.1 1.4-.4zm-20-.5c.1-.3 0-.4-.6-.4-.8 0-1.2.3-1 .6.4.4 1.4.2 1.6-.2zm15.8-.6c-.4-.2-1.1-.3-1.6-.3h-1l.7.3 1.6.2h1zm27-.7c.5-.5.8-1 .7-1-.1-.2-5-.3-5-.2-.7 1-1 1.7-.9 1.9l2.4.2h2.2zm-42.4.4c0-.1-.2-.3-.4-.3s-.4.2-.4.3c0 .1.2.3.4.3s.4-.2.4-.3zm32.6-.6c.6-.8.6-1.3 0-1.3-.5 0-1.6 1.3-1.6 1.9 0 .5 1.1 0 1.6-.6zm4 0c.4-.7.4-.9 0-1-.6-.5-2.4-.1-3.1.6-1.1 1-.9 1.3 1 1.3h1.8zm-39.6.4h-.5c-.2.1-.1.2.2.2.3 0 .4 0 .3-.2zm33.7-.5.3-.8c0-.2-4.9.1-5.8.3h-.6c0-.2.3-.4.6-.5.5 0 .5 0-.1-.1-.6 0-.8.1-1 .6-.1.4-.2.8-.1 1 0 0 1.5.2 3.3.2h3zm-10.7-.1c.5-.3 1-.7.9-.9-.2-.5-2.7-.5-3 0-.2.2-1 .4-2.7.5a105.5 105.5 0 0 0-4.8.2c.1-.1 1.6-.3 3.3-.4 2.9-.2 3.5-.3 3.2-.6-.2-.2-6.1-.2-6.9 0-.7.2-.8.3-.5.8.4.7 1.4.8 5.4.9h4.2l1-.5zm-13.4.2-1-.7-1.1-.6-.8.5c-.4.2-.8.5-.8.7 0 0 .9.2 1.9.2l1.8-.1zm16.6-1s-.3 0-.4.3c-.4.6-.3 1 .2.4.2-.2.3-.5.2-.6zm-21.7.2.4-.8c0-.4-1.5-.2-2 .3-.8 1-.7 1.1.2 1.1.7 0 1-.2 1.4-.6zm33-1.7c.5-.5 1-1.1 1-1.3 0-.6-1.1-.4-1.3.2 0 .3-.3.5-.4.5-.4 0-1.3 1.2-1 1.4.3.3.6.2 1.6-.8zm2.7.8c.5-.2 2-2 2-2.3 0-.1-.6-.2-1.4-.1h-1.4l-.9 1c-.5.6-.8 1.2-.7 1.3.2.3 1.5.3 2.4 0zm7-.2c.5-.6.1-.8-.4-.4l-.5.4.2-.5c.5-1.3.4-1.4-1.6-1.4l-1.8-.1-.9 1c-.4.5-.8 1-.7 1.1.1.2 1.4.3 2.8.3 2 0 2.7-.1 3-.4zM103 112a10 10 0 0 0 1.2-2.3c0-.4-11.8-.4-12 0 0 .4-6.7.7-6.7.3 0-.3-1.7-.7-2.4-.5-.5.2-1.3 2-1 2.2.3.3 7.3.2 8.5-.2 1-.2 1.3-.2 1.7 0 .5.5 10.3 1 10.7.5zm-18.9-1a9 9 0 0 1 2.9-.2h2.7c-.3.2-5.6.5-5.6.3zm9.7 0c.8-.3 7.3-.3 7.1 0 0 .1-1.6.2-3.9.2s-3.5 0-3.2-.2zm19.6 1c.3-.3.4-.5.3-.6-.2-.3-4-.2-4.7 0l-1-.1-.4-.3h.6c.6 0 1.6-.7 1.6-1.1 0-.1-.6-.2-1.3-.2-1.4 0-1.4 0-1.9 1.6v.9l3.2.1c2.2 0 3.2 0 3.6-.4zm-8.4-1.7v-.4a6 6 0 0 0-1 1.9c0 .3 1-1.1 1-1.5zm8.8.1c.8-.4.2-.7-1.5-.7-1.2 0-2 .3-2 .8 0 .3 2.9.3 3.5 0zm-23.3-.9-.8-.1c-.5 0-.8.1-.7.2.1.2 1.5.1 1.5 0zm35.5-.6c.3-.4.4-1 .4-1-.1-.2-2-.3-4.3-.3H118l-.7.7c-1.2 1.2-.4 1.6.9.5.7-.7 1.2-.7.6 0-.2.2-.3.4-.2.5 0 0 1.3.2 2.8.2l3 .3c.2.3 1.2-.2 1.6-.9zm-10.4-.5.6-.8-1.2-.3c-.8 0-1.3.1-1.8.5l-.6.5.6.5c.7.7 1.7.5 2.4-.4zm-10.2.5c.2 0 .2-.9 0-1.3-.3-.3-2-.4-10-.5h-9.7l-.2.4c-.4.8-.4 1.3.2 1.4h19.7zm-18.9-1c1.3-.4 5.3-.4 5.5 0 0 0-1.2.2-3.2.2-2.3 0-3-.1-2.3-.3zm23 .3c0-.4-.5-.6-1.4-.6-.5 0-.7.1-.7.5s.2.5 1 .5 1.1-.1 1.1-.4zm2.6-.1c.2-.3.4-.6.3-.7-.3-.3-1.4.1-1.7.7l-.4.5h.6c.4 0 .9-.2 1.2-.5zm14.5-1.4v-.7c-.2-.2-1.5-.3-3-.4l-2.6-.2-.9.5c-1.8 1-1.3 1.2 4 1.3h2.3zm-12-.7c.7-.6.3-.8-1.5-.8-1.5 0-1.7 0-1.6.4l.2.8c0 .8 1.9.5 3-.4zm2.8.3.7-.7-.6-.2c-1.1-.3-1.3-.3-2.1.5-1.1.9-1 1.1.2 1.1.8 0 1.3-.2 1.8-.7zm-14.6 0c-.3-.3-.7-.7-.8-1l-.1-.4h-3c-2.2.2-3 .3-3.3.6-.7.6-1.4.6-1.6 0l-.1-.5-3.1-.1c-4.1-.2-5.4 0-5.6.6-.2 1.2 0 1.3 9.4 1.3h8.7l-.5-.5zm-16.1-.3c-.3-.4 1.5-.6 3.2-.4l1.5.2-.8.2c-1.2.3-3.8.3-4 0zm18.7.2v-1c-.1-.2-.3-.2-1 .4-.9 1-.9 1.2 0 1.2.6 0 .9-.2 1-.6zm13.6 0 .2-.6c-.2-.2-1 .3-1 .7 0 .3.5.2.8-.2zm13.7-1h-.5c-.2.1-.1.2.2.2.3 0 .4 0 .3-.1zm-6-1v-.9h-1l-3.3-.1-2.3-.1-.3.7c-.4 1.2-.5 1.2 4.2 1.3l2.7.1zm-7.7 0c.2-.2.3-.6.3-.8 0-.5-1.2-.7-2.3-.4-.6.2-1 .2-1.3 0-.1-.1-.8-.2-1.6-.1-.7 0-1.8 0-2.4-.2-1.3-.3-1.7.2-1 1.3.4.5.6.6 1.8.6 1.2 0 1.6 0 2.2-.6.7-.7 1.3-.7.7 0-.6.6-.2.8 1.5.8 1.3 0 1.8-.2 2-.5zm12 0c.3-.4 0-.6-1.1-.6h-1l.2.5c.3.6 1.6.7 2 .2zm-36.7-.4c0-.2-.3-.4-.8-.4s-.9-.2-.9-.4c0-.1-1.2-.2-2.7-.2-2.2 0-2.8 0-3.4.5-1.2 1-.5 1.1 3.8 1 3.4 0 4-.1 4-.5zm-5.7-.4h.6l-.3.1h-.3zm17 .2c0-.6-.2-.8-1-.9-1.2-.2-1.8 0-2.2.8-.3.7-.1.8 1.8.9h1.4zm-10.2.4H95h.5zm39-1s-.1-.2-.3-.2c-.1 0-.2.1-.2.3l.2.2c.2 0 .3-.1.3-.2zm-2.6-.2c0-.2.2-.3.4-.3.3 0 0-.2-.6-.4-1.3-.4-3-.2-3 .3 0 .4.5.6 2 .6.7 0 1.2 0 1.2-.2zm-5.1-.8c0-.4.2-.7.4-.8.2-.2.1-.4-.2-1l-.4-.6h-10v.5l-.5 1.2c-.5 1-.5 1 .4 1 .4 0 1.1-.4 1.7-.9 1-.8 1.3-.7.5.1l-.3.6c.1.2 7.1.7 8 .6.1 0 .3-.3.4-.7zm-2.5-.8c-.2-.3 1-.6 1.5-.4.2.2.2.3 0 .4-.5.3-1.3.3-1.5 0zm-9.4 1c.4-.4-.2-1.5-.8-1.5l-1.2-.3c-.5-.3-.8-.3-1.4.1-.5.3-1 .4-1 .3-.6-.3-.5.4 0 .9.4.4 1 .6 2.2.6.9 0 1.6.1 1.7.2l.5-.3zm-22-.8.1-.7-.9.1c-1.5.3-2.7.8-2.8 1.1 0 .3.3.4 1.7.3h1.8zm12.5.6c1-.6.2-2.4-1.2-2.4h-.6v2.5c.1.3 1.3.2 1.8-.1zm-4-.8c0-.3.2-.5.4-.5.7 0 .8-.6.3-1-.8-.6-3.5-.2-4.3.6-.3.4-.6.8-.6 1 0 .4.7.2 1.3-.5.7-.7 1.1-.6 1 .2 0 .9 0 .9 1 .8.7-.1 1-.3 1-.6zm-16.2-.3-.4-.2c-.2 0-.3 0-.3.2s.2.3.4.3.4-.1.3-.3zm46.5 0c.2-.7-.3-1-1.4-1-1 0-1.2.2-1.4.7l-.2.6h1.4c1 0 1.5-.1 1.6-.4zm-35-.5c.1-.3.2-.6.1-.7-.2-.2-1 .5-1 .9 0 .5.4.4.8-.2zm-9.8-.2 1-.5h-1c-1-.1-1.5.2-1.2.7.2.3.1.4 1.2-.2zm44.1-1.7c-.3-.6-1-.6-1 0 0 .7.8 1.2 1.1.8.1-.2 0-.5 0-.8zm-47 .5.2-.8c0-.4-.5-.6-1.7-.5-1.1.1-1 1.2.2 1.5l.8.1s.2 0 .4-.3zm5.7.1c.3-.1.2-.4-.4-.9-1-.7-1.4-.9-1.4-.4l.3.2c.2 0 .3.2.3.4 0 .3-.3.4-.9.5h-.8l.9.2c1.3.3 1.7.3 2 0zm11.8-.3c.3 0 .2-.6 0-1-.3-.4-.4-.3-1 .2-.6.6-1.4.6-2-.1-.4-.5-1.3-.5-1.3 0 0 .2 0 .5-.2.8l-.1.4 2.2-.1 2.4-.2zm18.8-.2c.5-.5.5-.6.2-.8-.2-.2-1.2-.3-2.2-.3h-1.8v.6c0 .8.4 1 2 1 .8 0 1.3-.2 1.8-.5zm6.3.1c0-.7-.7-.9-2.7-1-2 0-2.9.2-2.9 1 0 .3.6.4 2.8.4 2.2 0 2.8 0 2.8-.4zm-33-.3c.9-.2 1-.9 0-.9-.8 0-2.4.8-2 1 .4.3.5.2 2 0zm11.5-.2c0-1-.4-1-1-.4-.8.7-.7 1 .2 1 .7 0 .8 0 .8-.6zm7.6.3c.7-.3 1-.3 1.5 0 .4.3.6.3.9-.1.6-.8.4-.9-1.5-.9-1.5 0-1.9 0-2.1.5-.5 1-.3 1 1.2.5zm13.3-1.4c.7-.2.8-.3.5-.6-.4-.4-1-.4-1 0 0 .7-1 .5-1.3-.2-.3-.9-.9-1-3-1.3l-2-.2-1.2.8c-1.4.9-1.7 1-1.7.6 0-.2.4-.5 1-.7l1-.5-1.3-.2c-2.3-.5-3.5.8-1.7 1.7.6.3 1.6.5 3.7.5a781.5 781.5 0 0 1 7 0zm-42.7-1c.8-.3 1.8-1 2.2-1.3l.7-.5-5.5.1c-3 .1-7.3 0-9.3 0-4.3-.4-25.7-.7-25.5-.5l1.1.8 1 .7 2.7.1a238233 238233 0 0 0 29 1.4h2zm2.1.6-.6-.3c-.3 0-.6.2-.7.3 0 .2.2.3.7.3.4 0 .7-.1.6-.3zm3-.1c0-.3-.1-.4-.5-.4-.9.1-1 .8-.1.8.4 0 .7-.2.7-.4zm6.4-.2c0-.3-.2-.5-.5-.5-.4 0-.5-.2-.6-.7 0-.6-.2-.8-1-.8-.4 0-.8 0-.8.2 0 .1.2.3.4.3s.4 0 .3.2c-.1.2-.7.3-1.2.3-.8 0-1 0-1 .4 0 .3.1.4.7.2.7-.1.9 0 1 .4.1.5.3.6 1.4.6 1.1 0 1.3-.1 1.3-.6zm17 .2c0-.2-.3-.4-.6-.4s-.4.1-.3.4c0 .2.3.4.6.4s.5-.2.3-.4zm-11.3-.3.7.4-.2-.8c-.2-1.1.3-1.2 1.4-.1.6.6 1.2.9 1.6.9h.7l-.2-1-.3-1.2c-.2-.3-3.2-.2-4.3.1-.6.2-1.1.6-1.2.8 0 .3-.4.5-1 .6h-.9l1 .4c.7.2 1 .2 1.5-.1l.6-.4zm7.6-.5c-.2-1-.5-1.4-.7-.9-.3.7 0 1.8.5 1.8.3 0 .4-.2.2-.9zm2 .4c0-.5-.6-.4-.7.1 0 .3 0 .4.3.3.2 0 .3-.2.3-.4zm3-1.1c0-.5-.6-.7-2-.6-.7.1-.9.2-.6.5.7.7 2.4.7 2.5 0zm-72.5-.4-.5-.3c-.2.2.2.7.5.7.2 0 .2-.1 0-.4zm91.8 0c0-.2-.4-.2-.5.2 0 .1 0 .2.2.2s.3-.2.3-.3zm-41.5-.1c0-.2-.2-.3-.4-.3-.3 0-.4.1-.4.3 0 .1.1.3.4.3.2 0 .4-.2.4-.3zm38.8-.2c.2-.9 0-1-.8-1.2-.6 0-.3-.1 1-.2h2l-.2-1.1-.3-1.3-5-.3h-4.7l-.1.8c-.1 1.3.2 1.6 2.5 1.6 2 0 2.3-.1 2.3-1.2 0-1 .6-.7.9.4.3 1 .2 1.2 0 1.5l-.5.6c0 .9 2.6 1.2 2.9.4zm-5.2-2.7c0-.1 0-.3.2-.4.2-.1.3 0 .3.2 0 .3-.1.4-.3.4-.1 0-.2 0-.2-.2zm-3.4 2.7c.1 0 0-.4-.3-.6-.3-.4-.7-.5-2-.4-3.6.3-3.7.8-.3 1a31.6 31.6 0 0 1 2.6 0zM44.1 94h-1l.6.1c.5 0 .7 0 .4-.1zm64-.3c0-.5-1.2-.7-1.4-.2 0 .3.2.4 1.3.6.2 0 .2-.1.2-.4zm5.7.1c1-.4 1-.6.2-.8-1.3-.3-3.1-.2-3.3.3-.1.2 0 .5.1.6.5.3 2.3.2 3 0zm10.6-.5h-1l-.7.1.5.4c.5.4 1.7 0 1.2-.5zm-22.5 0v-.5h-2.2c-1.2 0-2 .1-2 .3 0 .1.3.3.7.3.4 0 .9 0 1 .2 0 .2.6.3 1.3.3 1 0 1.2 0 1.2-.5zm1.8.4c0-.5-.5-1-.7-.8-.5.4-.4 1 .2 1 .3 0 .5-.1.5-.2zm-9.8-.3c0-.3-.5-.7-.7-.5-.2.2.2.7.5.7.1 0 .2 0 .2-.2zm2.7 0c0-.2-.2-.3-.4-.3s-.4.1-.4.3l.4.2c.2 0 .4 0 .4-.2zm5.5-1.7c0-.5-.7-1.8-1.2-1.8-.1 0-.5.5-.8 1.1-.3.8-.4 1.1-.1 1.3.5.3 2 0 2-.6zm14 .6c.3 0 2.2-1.9 2-2.1a46 46 0 0 0-8.4 0v1l.3 1 2.5.1a25.5 25.5 0 0 0 3.5 0zM93.8 92c0-.3-.3-.4-1.2-.4-1.8 0-1.5.7.4.8.6 0 .8-.1.8-.4zm3.6-.3.3-1.2c.1-.8-.5-.5-1 .3-.6 1.1-.6 1.6 0 1.6.4 0 .6-.2.7-.7zm1.8-.2c.6-1.2.6-1.7 0-1.2-.2.2-.3.5-.3.7 0 .3-.2.7-.5 1l-.4.4h.4c.2 0 .6-.4.8-.9zm8-.5c-.1-.2-.3-.4-.5-.4-.1 0-.2.1 0 .4v.7c0 .2.2.2.4 0 .1-.1.2-.5 0-.7zm-2.8.4c0-.2-.1-.4-.3-.4-.1-.1-.2 0-.2.2l.2.4c.2 0 .3-.1.3-.2zm-9-.7c0-.4-.1-.7-.4-.7-.3 0-.3.1 0 .7l.3.6.1-.6zm-3.4.1c0-.3-.8-.6-1.1-.4-.5.3-.2.7.4.7.4 0 .7-.1.7-.3zm2 0c0-.1-.1-.2-.4-.2-.3 0-.5 0-.4.2 0 .2.2.3.4.3l.4-.3zm38.5-1.5c0-.7-.9-1.1-2.5-1.1-1 0-1.2 0-1.5.6-.5 1.1-.4 1.2 1.2 1.3 2.3.1 2.8 0 2.8-.8zm-5.6 0c0-.4 0-.8-.2-.9l-2.6-.4-2.4-.1v1.8l1.6.1c3 .2 3.5.2 3.6-.5zm-23.5 0c.3-.2-.8-1.7-1.3-1.7-.4 0-.4.7 0 1.4.2.5 1 .7 1.3.3zm16.4-.6V88l-2-.1c-3-.2-5.2 0-6.4.4-.6.2-1.3.4-1.5.3-.7 0-.9.5-.3.7l5.3.2h4.9zm-25 .1c0-.3-.1-.4-1-.2-.7 0-1.2 0-1.4-.2-.3-.2-.5-.2-1 0-.9.5-.3.8 1.6.8 1.6 0 1.9 0 1.9-.4zm5.4-.4c0-.3-.1-.5-.3-.5 0 0-.2.3-.2.7 0 .3.1.6.2.5.2-.1.3-.4.3-.7zM97 88c-.4-.4-1.2-.3-1.2.2 0 .1.2.2.5.2s.6.2.7.4c.2.2.2.2.3 0 0-.3 0-.6-.3-.8zm-6.6 0c-.1-.2-.3-.4-.5-.4l-.2.3c0 .2.2.3.4.3s.3-.1.3-.3zm41.6-.5c-.2-.9-2-1.6-4.5-1.7h-2.3l-.9.8c-.6.6-.9.7-1.2.5-.3-.3-.9-.1-.9.3 0 .3 1.3.4 6.2.4l3.7.1zm-11-.5.2-.7v-.5h-7.5l-.1.5c-.2.9-.2 1 2.2 1.1 2.8.2 5 0 5.2-.4zm-35.5-.3c-.5-.3-.7-.4-.9-.2-.2.3-.1.4.4.6.8.3 1.2 0 .5-.4zm11.6.1c0-.6-.6-.5-.7.1-.1.3 0 .5.3.5.2 0 .4-.2.4-.6zm11 0c.1-.2 0-.5-.4-.8l-.7-.5h.6c.4 0 .9-.4 1.5-1.3a9 9 0 0 0 1-1.4c0-.1-1.2-.2-2.7-.2-2 0-2.6.1-2.6.4 0 .2.5.4 1.6.6l1.7.3h-3.6l-.3.7v1c.2.3.3.5 0 .6-.5.3-.2.7.4.5l.8.1c.3.4 2.5.4 2.7 0zm-2.6-1 .5.1-.3.1c-.3 0-.4 0-.2-.1zm6.2.8V86c-.2-.3-.3-.3-.7 0-.2.1-.6.2-1 0-.3 0-.5 0-.5.3 0 .2.2.5.4.5.3.2 1.5 0 1.8-.3zm48.1-.5c0-.2-.1-.3-.3-.3-.1 0-.2.1-.2.3l.2.2c.2 0 .3-.1.3-.2zm-56.6-1c.2 0 .2-.5.2-.8v-.5H98.6c0 .5.6 1.7 1 1.8.7.2 3.3 0 3.5-.4zm9-.1c.3-.7-.1-1.6-.8-1.6-.3 0-.8.3-1 .7l-.6.8h.4l.8.4c.4.4.9.3 1.2-.3zm10.2 0 .6-.8c.2-.2.3-.5.2-.8 0-.5-2-.7-6.7-.8-3.6 0-3.5 0-3 1.9l.4 1h8.4zm4.9-.7c0-.8-.1-1.2-.4-1.2-.4 0-.6.4-.5 1 0 0 0 .4-.3.8l-.4.6h1.6zm1 1c-.2-.3-.3-.3-.6 0-.2.2-.1.2.4.2s.5 0 .3-.3zm12.6 0c.4-.2.4-.3-.4-.4a1939.7 1939.7 0 0 0-6.4-1.3s-.4-.2-1-.2c-.9 0-1 .1-1 .5 0 .6.6 1 2 1.4 1 .2 6.1.2 6.8 0zm5.7-.3c-1-.3-4.7-.3-5 0 0 .2 1 .3 2.8.2 1.8 0 2.6 0 2.2-.2zm9.2-.8c-.8-1-2-1.6-3.3-1.6-1 0-.7.5.4.7 1.8.3 2.2.6.7.6-1 0-1.2.1-1 .3l1.1.3 1.6.3c1.4.6 1.4.5.5-.6zm-59.5.3c.4-.8.3-.9-.3-.8-.4 0-.6.3-.7.7-.1.8.6.8 1 0zm28.6.3.1-1.2.2-.9-.4.7c-.5.8-.6 1.6-.2 1.6.2 0 .3-.1.3-.2zm6-.3c.2-.4.4-2.4.2-2.4s-1.2 2-1.2 2.4c0 .3.7.3 1 0zm20.2.1-1-.6c-.6-.3-1.1-.8-1.2-1l-.1-.6-2.7-.1h-2.7c-.3.2.8.6 1.9.6 1.3 0 1.9.2 1.6.7-.2.3-.5.3-1.3.1-1.4-.4-3.2-.4-2.8 0 .2.2 1.8.4 3.6.5l3.3.4c.2.2 1.4.2 1.4 0zm-10.2-1.4c.2-.5.3-1 .2-1.1a28 28 0 0 0-4.4-.3l-4.3-.1v.7c-.1.6 0 .7.6.7l3.3.5c3.7.8 4 .8 4.6-.4zm-37.4-.2c0-.5-3.2-.8-4.3-.4-1.4.6-.9.8 1.7.8 2 0 2.6 0 2.6-.4zm47.8 0c0-.3-.2-.4-.6-.4-.7 0-.9.3-.5.6.3.3 1 .1 1-.3zm34-.8c-.9-.4-1.7-.6-2-.5-.2 0-1.1 0-2-.3-.8-.2-2.7-.5-4.2-.6-1.5-.1-2.6-.4-2.7-.5 0-.2-1-.3-2.8-.3H169l2.6.2 2.5.2h-3.8c-2.6 0-3.8 0-4-.2 0-.2 0-.3.3-.2h.6c.2-.4-2.1-.6-4.8-.3l-4.3.3c-2.3 0-2 .4.4.6 2.4.2 3.4.4 3.2.6 0 0-1.5 0-3.1-.3-3.2-.4-5.6-.5-6-.2 0 0 0 .4.2.6l.2.5h3l8.8.3a1199.3 1199.3 0 0 0 19 .8h3l-1.5-.7zm-21-1.9h1l-.5.1h-.4zm-35 1.9c.2-.5-.2-1-.7-.7-.4.3-.2 1.1.3 1.1l.4-.4zm-10.6-.1c-.1-.2-.4-.3-.7-.3l-1.4-.4c-1-.5-3.2-.2-3.3.5v.4h2.7c1.7 0 2.8 0 2.7-.2zm5.5-.3c.3-.3 0-.6-.8-.7a36 36 0 0 0-5.8-.3c-.2.3 1 .7 2.6.9l1.7.4c.2.3 2 0 2.3-.3zm3.2.3c.3-.5-.3-.9-1.2-.7-1.1.3-1 1 .1 1 .5 0 1-.2 1.1-.3zm-15.3-1c0-.6-.2-.7-.7-.8a1 1 0 0 0-1 .4c-.4.7-.9.8-.9.2 0-.6-.8-.7-4.8-.7-5 .1-5.5.2-5.5 1 0 .3 0 .6.2.7 0 0 3 .1 6.4 0h6.3zm39.2.2c0-1 0-1-1.8-1.1-1.2 0-1.5 0-1.5.4-.1.2 0 .4.3.4l1 .5c.3.3 1 .6 1.3.6.6 0 .7-.1.7-.8zm-4.2-.3c-.1-.8-.2-1-.9-1-.5 0-.7 0-1 .6-.3.9-.7.9-.8 0-.1-1-.8-1-1 0v1h.8l2 .2h1zm-6.2.4.5-.8c0-.5 0-.7-.5-.9a211.3 211.3 0 0 0-28-.8c0 .9.5 1 5.2 1.2 6.7.3 7.7.3 8.7-.6l.4-.4.6.6.5.8c0 .5 1.5.3 2-.3.6-.7 1.3-.6 1.9.2l.5.6 3.6.2a587.9 587.9 0 0 1 4.6.2zm2-1c0-.2-.1-.4-.3-.4-.1 0-.3.3-.3.6 0 .4.2.7.3.6.2-.1.3-.4.3-.7zm-38.7-1v-.6l-1.7-.1c-1 0-1.7 0-1.7.2 0 .1 0 .4-.2.7 0 .3.2.4 1.8.4h1.9zm7.8.1c.6-.6-.2-.8-2.9-.8h-2.7V79.9l2.6-.1c1.5 0 2.8-.2 3-.4zm39.3.1c.4-.5.6-3.6.2-4-.7-1-1.7-1.7-2.8-2.3l-2.4-1.3c-.6-.4-1.7-.8-2.3-.9l-1-.1-.2.6-.2 3V77l.5-.3.6-.3V78c0 1.3 0 1.5.4 1.4.6-.1.8-1 .9-3.9 0-2.5.5-3 .6-.5v1.7h1.9l.1-.8c.1-.4.3-.8.5-.9.2 0 .3.3.1 1.3l-.2 2.3v1l1 .1c1.5.3 2 .3 2.3 0zm-4-1.2v-1h-.9l-.8-.1-.1.9c-.2 1.2 0 1.5.9 1.3l.8-.2zm-50 .5c-.1-.4 0-.6.3-.7.6-.2 1.3-1.2 1.3-1.7 0-.4-.1-.5-.8-.4-2 .3-5.2.4-6.2.2l-1-.2H92l7.2-.5c.3-.1.4-.4.4-.7v-.6l-3.3-.2c-3.5-.1-3.2-.3.8-.7l2.6-.2.9-1.2a8 8 0 0 0 .9-1.4s-.6-.2-1.3-.2c-.8 0-1.3 0-1.3-.2s.2-.3.5-.3h.6v-2.3a24 24 0 0 0-.2-2.6c0-.2-1.3-.3-3.9-.4-4.3 0-6.3-.2-6.3-.6 0-.1.6-.2 1.6 0 4 .3 6 .4 7.5.2l1.5-.1V62.7l-4.2-.2c-2.3-.1-5.2-.2-6.4-.1-2.8 0-14-.5-14.8-.8-.4-.1.7-.2 2.8-.1 13 .4 22.1.7 22.5.5.2 0 .3-.4.3-.8 0-.6-.3-.8-.9-1a112.2 112.2 0 0 0-11.7.1l3.4.4 2.2.4-2.5-.2a216.4 216.4 0 0 1-17-1.4 1938 1938 0 0 1-17.7-1.2H54c0 .4.7.7 1 .6.4-.3 11 .6 11.2.9a385 385 0 0 0-20.3-1c-2.5-.3-16.6-.5-21.5-.4-.4 0-.4 1 0 1.6.2.4.9.5 7.4.7 3 .1 5.3.3 5.4.4.1.2-1.6.2-5 .1l-6.7-.2h-1.2v1.1c0 .7.2 1.1.4 1.1l3.7.1c5.8.2 11.1.5 11.7.7a704.3 704.3 0 0 0-10.1-.2l-5-.1-.3 1c-.3 1.6-.2 1.6 6.6 1.7 3.3 0 6.1.2 6.2.3.1.3 0 .3-4.4.2l-6.2-.1h-2.4v1.9h2.9c1.6 0 6.2 0 10.2.2 5.7.1 7.5.1 7.8-.1.4-.4 11.3-.2 23.4.3 6.2.3 7.6.3 8 0 .6-.3 1.4-.4 3.1-.3l5-.1c.6 0 .7 0 .7.5 0 .3 0 .7.2.8l3 .3c2.8.2 3.5.4 3.3.7l-3.1-.2c-3.1-.3-3.5-.2-3.5.7-.2 1.4-.1 1.5 1.3 1.5.8 0 1.7.1 2.1.3.5.1 0 .2-1.3.1h-2v.8c-.2.9 0 1 2 1.3.9.1 1.6.3 1.6.4 0 .2-3.2.1-7.2-.1a365 365 0 0 0-33.4-.2 831.7 831.7 0 0 1 9 1c1.3.2 4.2.4 6.6.5a312 312 0 0 1 16.4.8c2.1 0 4.4.3 5 .4 1.2.4 7.3 1 10 1h1.8zm-2.8-7.7c-.7-.1-.2-.2 1.6-.2 1.6 0 2.6 0 2.6.2 0 .3-2.8.3-4.2 0zM92 68.8l-5.2-.4a402.8 402.8 0 0 0-30.5-1.7 370.4 370.4 0 0 0-14.6-.6c-.4-.1.9-.2 3-.1l10.6.3a629.8 629.8 0 0 1 39 2c.9-.1 1.1 0 1.1.3 0 .4-.4.5-3.4.2zm-53.3-2.7v-.3c.2 0 .4.2.4.3 0 .2 0 .3-.2.3l-.2-.3zm44.8-.5-1-.2H84c.7 0 1.5 0 1.7.2.5.3-.6.3-2 0zm8.2 0-2-.2h3.5c2.2 0 3.5 0 3.5.2 0 .3-1.7.3-5 0zm-15-.6a238 238 0 0 0-16.3-1l-10-.4c-7.5-.2-10-.4-9.5-.8l16.8.7c8.5.4 21.7 1.2 23.2 1.5l1.2.3h-1.6c-1 0-2.6-.1-3.7-.3zm9.3-1a214.5 214.5 0 0 0-20.4-2l-9.3-.5c-9.3-.3-10.7-.4-10.9-.6a207 207 0 0 1 31.1 1.6l9.8 1.1c.8.1 1.4.3 1.3.4 0 .2-.2.2-.3.2-.1 0-.7 0-1.3-.2zm8.5-2.9c-.4-.2-.4-.2.5-.4 1.1-.2 2.6 0 2.4.4-.2.3-2.2.3-3 0zM43.5 61h1.3l-.7.1c-.8 0-1 0-.6-.1zm115.9 18.2a46 46 0 0 0 10.2-1.3c3-.3 3.3-.5 3.5-1 .2-.3-.2-.4-2.4-.2a104 104 0 0 1-14.2 1l-3.8.2v.6c0 1-.5 1 6.7.7zm-17.9-.5c.2-.3.2-.7.1-1 0-.5-.4-.6-2-.7-5.8-.6-25.6-1.2-26.8-.9-.7.2-.8.9-.3 1.6.4.4 5.3.7 18.2.8 3.9 0 7.4.2 7.8.4 1.4.4 2.7.3 3-.2zm1.5-.1c.2-1 .2-1.3-.3-1.3-.2 0-.4.3-.4 1 0 1 .4 1.2.7.3zm-33.3-1 1-.4.3.5c.2.3.4.4.5.1.1-.1 0-.6-.3-1l-.5-.7h-4.4c-4.7 0-4.8 0-5.1 1.3l-.2.7h3.9c3 0 4 0 4.8-.4zm47.8-.5 3.9-.3 6.1-.5a38 38 0 0 0 13.2-2.8c0-.6-1.5-1-4.4-1.2-1.8-.2-3-.4-3.1-.6-.3-.4-4.3-1.1-7.4-1.4l-7-.3c-2.8 0-5.3-.2-5.5-.3-.3-.3-7.8-.4-7.8-.1l1.1 1 1.1.7 7.7.4c15.3.7 21.2 1.1 22.2 1.7 1 .5.3.5-1.4.1a381.4 381.4 0 0 0-26-1.5l-1.5.2 1.8 1.1 1.8 1.2h3.1l3.3.3-1.2.1-2.6.2-1.4.2.1.6c.1.4 0 .6-.1.6-.2 0-.3.1-.3.3 0 .2 2 .5 2.4.3h1.9zm2-2.3h1.2-1.2zm3.5 0zm6.5 0h.6l-.4.1c-.3 0-.4 0-.2-.1zm-27.8 1.1.2-2.5c.2-2 .1-2-3.4-2.3-3.8-.3-5.2-.7-1.8-.5 1.4 0 3.1.2 3.8.3l1.2.1-.1-2.4c0-1.4-.2-2.6-.2-2.6 0-.1-.4 0-.7.2-.7.4-2.1.4-3.4-.2-1.1-.5-3.2-.5-3.9 0l-2 .2c-1.6 0-3.9.7-3.9 1.3 0 .5 3.8 1 8.6 1.3 3.9.1 4.2.2 3.6 1-.2.4-.7.4-2.3.4-2.4 0-2.8-.2-2-.7l.7-.3-1.4-.2-6-.2c-3.7-.1-4.7 0-5.1.2-.3.3-.5.5-.4.7 0 .1 1.7.2 3.6.2 2 0 4.3.2 5.2.3 1.2.1 0 .2-3.4.1-4.3 0-5.3 0-5.7.3-.7.5-2.1.5-2.5 0a23.3 23.3 0 0 0-6.4-.3v3.1h1.7c1 0 1.8 0 2 .2l.4.3h-4.3l-.4.6c-.3.4-.4.8-.3.9a439.2 439.2 0 0 1 27.4 1.4h1l.2-.9zm-5-1-4.3-.4-3.4-.4c-.3-.3 0-.3 2.5-.3h2.2l.3-1c.3-1 .6-1 .7 0 .1 1 .6 1.3 3.3 1.3 1.9 0 2.2.3 1.3.8-.8.3-.8.3-2.5 0zM125 74c0-.1-1.3-.2-2.8-.1-1.6 0-3 0-3.4-.2-.5-.2-.3-.2 1.4-.3 1.6 0 2.1 0 2.7-.5l.7-.6.1.6.2.5h1.8c1.5 0 1.8.1 1.8.4 0 .3-.3.4-1.1.4-.7 0-1.3 0-1.4-.2zm2.3-2.2c0-.1 1-.2 2.5-.2l3.3-.2c.4-.1.6 0 .4.1-.4.4-6.2.7-6.2.3zm50.8 4.3c3-.3 5.5-1 5.9-1.5 0-.2.6-.4 1-.4.5 0 1.1-.2 1.4-.4l.5-.4-.6-.2c-.3 0-.6-.2-.6-.3 0-.2-.4-.3-1-.3s-1.1 0-1.2-.2l-1.2-.4c-1.5-.2-3.4-1.3-3.5-1.9 0-.3-.6-.7-1.3-1-1-.6-2.1-.8-7.6-1.2l-20.5-1.8c-2.2-.2-2.4.2-.4.9.8.2 2.2.8 3.1 1.2l1.8.8 4.9.1a90.2 90.2 0 0 1 22.1 3.1l1.2.5-.1 1-.1 1h-1a28 28 0 0 0-5.9 1.4c-.2.3-.1.3 3.1 0zm-74.1-1h-.5a.8.8 0 0 1-.7-.6c-.1-.4-.4-.5-.8-.5-.8 0-.8 0-.4.9l.3.7 1-.2 1-.3zm5.7.2h2.4l.3-.7c.2-.5.2-.7-.2-1l-.4-.4h.5c.5 0 .6-.2.5-1l-.1-1-.6.6c-.3.4-.5.9-.5 1.2v.7h-5l-.5.6c-.3.4-.8.6-1 .5l-.3.1c0 .5.2.5 1.3.5l3.6-.1zm-25.3-.7c.2-.6.2-.8-.1-1.1-.3-.4-.5-.4-.8 0-.2.1-.4.5-.4.7 0 .4-.2.5-.5.5-.5 0-.6-.1-.6-.7 0-.7 0-.8-.6-.8-.5 0-.7.1-.9.6-.2 1 .3 1.5 2 1.5h1.6zm116.8.4-3.6-.7-5-.6c-3.3-.5-5.3-.3-5.3.5 0 .1 2 .3 4.6.4a157.3 157.3 0 0 1 9.3.4zm-121.9-.8c0-.4 0-.8-.3-1-.5-.4-13.5-.8-26.2-.6h-5.4c-11.3-.5-14-.6-14-.3s.8.6 2.3.6c.9 0 1 0 .7.2-.5.2-.4.3.5.5l1.7.4 3 .4 2.4.5h35.2zm-44-1a1 1 0 0 0-.7 0c-.2.1 0 .2.3.2.4 0 .5 0 .4-.2zm68-.6c1.1-1 1.6-1 1.4-.1-.2.5 0 .7.2.7.6 0 1.2-1.2 1.1-2.2 0-.8-.1-.9-.8-1-.5 0-1.2.1-1.6.4-1.4.7-2.5 3-1.5 3 .2 0 .7-.3 1.2-.8zm-76.6-.2h-1.5c-.4.1 0 .1.7.1h.8zm51.7-.2c.5-.5.6-1.2.1-1.7-.6-.8-7.8-1.2-21.4-1.5-7.3-.1-8.7 0-8.6.2 0 .3-.2.4-.6.4-5.2-.3-23.1-.7-23.4-.6-.2.1-.3.4-.2.8.2 1 .6 1.2 1.7 1.2.6 0 1.3.2 1.5.4.4.4 5 .5 25.4.4a276 276 0 0 1 19.9.6c2.7 0 5 .2 5 .2l.6-.4zm-36.6-1.2c-.5 0 .2-.2 1.8-.2 1.8 0 2.7 0 2.6.2-.2.3-2.8.3-4.4 0zm68.6 1c.7-.5 1-1 1-1.4v-.6h-1.8c-2.4 0-2.7.1-2.7 1 0 .6.2 1 .7 1.2 1 .6 1.6.5 2.8-.3zm-29-.2.4-.7c.4-.4 1.3 0 1.3.6 0 .2.2.4.4.4.3 0 .4-.3.4-1v-.9l-1.5.1c-1.6 0-2.2.5-1.9 1.4.2.5 1 .5 1 0zm102.9-.5c.1-.2-.2-.4-1.7-.7-.5 0-.8 0-.8.2 0 .6 2.2 1 2.5.5zM21.4 70c0-.8-.7-.8-1.1 0-.3.4-.2.5 0 .7.6.4 1.1 0 1.1-.7zm-2.9.2c.4-.7.4-.8-.5-.8-.8 0-1.2.3-1 1 .2.5 1.2.4 1.5-.2zm-2.6-.3c0-.2-.1-.2-.3-.1l-.3.4c0 .2.2.2.3.1.2 0 .3-.3.3-.4zm-2.4-.1c.3-.4.1-.4-1-.4-.8 0-1.4.1-1.4.2 0 .6 2 .8 2.4.2zM103 69c.7-.7.5-.9-.7-.9-1.3 0-1.9.7-1 1.3.4.3 1 .2 1.7-.4zm3.1 0-.2-.4c-.3-.2-1.4.6-1.3.8.2.4 1.5 0 1.5-.4zm10.3.5c.2 0 0-.3-.5-.7l-1-.7h-3.7c-3.8 0-4 0-4 1.1 0 .3 7.3.5 9.2.3zm21.2-.2c0-.2-.8-.3-1-.1 0 .1.1.3.4.3.3 0 .6 0 .6-.2zm-18-1c0-.1-.2-.2-.4 0l-1.4.1h-1l.7.4c.6.4 2 0 2-.5zm31.8.2-2.2-1c-1-.3-2.2-.9-2.8-1.2-.7-.3-1.6-.6-2.3-.6h-1.2V67c0 1 0 1.2.5 1.2.2 0 .5.1.7.3.2.2 1.7.3 6.2.5h1.7zm-137 0a1 1 0 0 0-.7 0l.3.1c.4 0 .5 0 .4-.1zm5.4-.9c1-1.7-.5-1.8-1.5-.2-.7 1.2-.7 1.3.2 1.3.6 0 .8-.3 1.3-1zm-2.7 0c-.2-.1-.7.3-.7.6 0 .2.2.1.4 0l.3-.5zm5.6-.1c.4-.7.4-1 .2-1-.4-.2-.8 0-1.2.8-.7 1.3.1 1.5 1 .2zm153.8.3c0-.5-.9-1.1-2-1.5a309.3 309.3 0 0 0-22-1.7c-5.3-.2-7.9-.4-7.5-.5a186.5 186.5 0 0 1 16 .5c5.6.4 10.5.7 10.6.5.3-.3-1-.7-2.8-.8-1.4 0-2-.2-2.5-.6a29 29 0 0 0-10-2.2c-1.2-.1-2.9-.5-3.7-.7a59 59 0 0 0-16-1.1c0 .1.6.2 1.4.2 2.1 0 3.9.5 4.5 1.3.6.7 1.5.8 6.5 1.2l3.4.4c1.8.3.2.3-3.2 0a745 745 0 0 0-4.8-.4l-2-.1.1 1.2c.1.7.3 1.5.5 1.6.2.2 2 .4 4 .5A428 428 0 0 1 175 68c.3.3 1.4.1 1.4-.2zm-70.9-.5h1.2c.8.3 7.2.5 7.2.3 0-.4-.7-.7-2-1a8 8 0 0 1-2-.3c-.3-.2-.5-.2-.6 0l-1.2.2c-.9 0-1.1 0-1.3-.6-.3-.9-.5-1-3-1.2-2.8-.3-3-.1-3 1.5v1.5c.3.2 4.2-.1 4.7-.4zm19 .2c1.5-.2 1.9-.3 2-.7l.6-1 .3-.5H121l-5.7-.2c-3.3-.1-4.7-.1-4.7.1s.4.3.8.3 1.5.4 2.3.8l2 1.2c.6.4 4.4.3 8.8 0zm-106.9-.4v-.3c-.2 0-.3.1-.4.3l.1.2c.2 0 .3 0 .3-.2zm158.4-1.6c-.1-.4-.4-.8-.6-1-.5-.4-3-.5-3-.1 0 .2 3 1.8 3.5 1.9.1 0 .1-.4 0-.8zm-155.4 0c.1-.4.4-.8.6-1 .5-.5.5-.9 0-.9-.4 0-1.8 1.9-1.6 2.2.3.4.6.2 1-.4zm3 .3c.4 0 .6-.2.6-.4 0-.1 0-.1-.2 0-.2 0-.3 0-.3-.3-.1-1-.1-1-.4-1.1-.2 0-.5.2-.6.7-.3 1.3-.2 1.5 1 1.1zm85.7-.8c.1-.2-.2-.3-.6-.3-.5 0-.8.1-.8.3 0 .1.2.2.6.2l.8-.2zm32.3-1c0-.8 0-1.4-.2-1.5-.1-.2-2-.4-4.4-.5-4-.1-4.9 0-5.4.7-.1.2.2 1.1.8 2l7.5.5h1.5zm-11.8-.3c.5-.5.8-1.1.8-1.5l-.1-.5H129l-10.1-.2c-5.1 0-8.6-.1-8.7-.3 0-.1 0-.2.3-.2s.4-.1.2-.3c-.1-.1-2.3-.3-4.7-.4l-4.5-.2.3.4c.2.3.6.5.7.5.2 0 .5.2.5.5.1.3.5.6.8.7.6.1 9.1.7 16.7 1 2.1.2 3.9.3 3.9.5H122c-10.7-.6-15.5-.8-15.7-.6-.2.1 0 .4.4.7.6.4 1.6.5 6.2.6a169.5 169.5 0 0 1 10.9.2l5.2.1zm-26.4 0c.5-.5.6-.6.2-.7-.3-.1-1-.2-1.5-.1-.8 0-1 .2-1 .7l-.2.6h1c.5 0 1.1-.3 1.5-.5zm78.4 0c0-.2.4-.3.9-.3.4 0 .8-.1 1-.3.6-.3-1.1-.5-2-.2-.5.1-1.4.2-2 .1-1.3-.2-2 0-2 .5 0 .7 3.8 1 4 .3zm-4.8-1 1.2-1.2-5.6-.5c-3-.2-6.4-.4-7.5-.6-2.7-.3 7.7 0 11.8.4l3.3.3.2-.5c.1-.2.6-.4 1.4-.3 1.3 0 1.7.4.5.4h-.8l1 .3a186.3 186.3 0 0 0 16.2-.3c-.8 0-2 0-2.7-.2a77 77 0 0 0-6-.6l-6.6-.5-7-.5-14.3-.8c-9.8-.6-15-.7-15.2-.3-.2.2.7 1 1.6 1.3.4.2 1.6.3 2.7.3 3 0 6.1.3 6.1.6 0 .1-.7.2-1.9 0-2.7-.2-2 .4.8.7l4 .7 6.9 1.2c1 .1 2.3.4 2.7.6.8.4 2 .5 4.8.6l1.2.1zm-19.3-2.7c0-.2 4.7-.2 5.3 0 .2.1-1 .2-2.4.2-1.5 0-2.8-.1-2.9-.2zM19.7 62.2c.4-.5.6-1 .5-1.1-.1-.3-13 0-13.4.1-.6.4 0 1 1.2 1.3 2.1.6 2.2.6 6.7.7H19zm2.5.9c0-.3-.5-.4-.6-.2-.1.2 0 .3.2.3l.4-.1zm162.6-.4c.1-.2 0-.3-.1-.3-.2 0-.3.1-.3.3l.1.2c.1 0 .2 0 .3-.2zm5-.2h-.8c-.3 0-.1.1.3.1s.7 0 .5-.1zm-168.3-1c.2-.4.1-.4-.2-.2-.5.4-.5.6-.2.6.2 0 .3-.2.4-.5zm0-1.7.4-1a360.8 360.8 0 0 1-10.8-.4H6.5l-.1.7c-.2 1.5-.1 1.5 7.5 1.4h7zm78-.2c.8-.1 1-.3 1-.6s-.1-.6-.3-.6c-.2-.1-3.7-.2-7.7-.2a38.4 38.4 0 0 1-11.8-1l-20.9-.9a112.5 112.5 0 0 1-9.5-.7c.9 0 2.2 0 2-.2l-5-.3a362.6 362.6 0 0 1-9.7-.1l3 .5c3.5.4 4.1.5 4.1.8 0 .4 0 .4-2.8-.1-3.8-.6-16.1-1.2-17-.8-.6.2-1 1.9-.7 2.2.2.2 5 .3 10.6.4a335.8 335.8 0 0 1 18.3.6c.3-.3-.5-.7-1.5-.7-.5 0-1.2-.1-1.6-.3a22 22 0 0 1 6 .2l5.3.2 5.6.4c3 .6 9.5.9 19.9 1a216 216 0 0 1 12.7.2zm-51.3-2.2c0-.2.1-.3.4-.3.2 0 .3.1.3.3 0 .1-.1.2-.3.2-.3 0-.4 0-.4-.2zm-33.4-.2c.2-.4.3-1 .2-1.3v-.5h-4c-5.2 0-5.1 0-5 1 .2 1.3.6 1.4 5.3 1.5h3.3zM23 57c.7-1.8.6-1.8-3-1.8-1.8 0-3.4.1-3.5.2-.4.2-.3 2.2 0 2.3l3.3.2h2.8l.4-1zm77.8.5c.2-.6-.2-1.3-.8-1.3l-2-.1c-1.4 0-1.6-.1-1.6-.6l-.2-.6c-.4-.3-.7.4-.3.8.4.5-.1.7-2 .6l-1.6-.1-.3-1c-.1-.4-.5-.9-.7-1h-.5l.2 1c.2 1.2-.2 1.5-.7.6-.3-.4-.5-.5-1-.4-.5.1-.8 0-.8 0 0-.5-.8-.7-1.4-.4h-1.2c-.5-.3-.7-.2-1.2.2s-.7.5-.9.3c0-.2-.3-.1-.7.2-.6.5-.9.3-1-.8-.1-1.2-1-1.3-1-.2 0 1-.4 1-1 0l-.4-.8-.3.4c-.2.3-.4.4-1 .3-.4 0-1.1 0-1.7.2l-.9.4-.4-.6c-.5-.7-1.2-.9-1.2-.3 0 .5-.6.6-1 .2a11 11 0 0 0-3-.4 53 53 0 0 1-7.1-.6c-.4-.2-4.8-.1-7.3.1h-3.4l-5.8-.4a36 36 0 0 1-5-.6l-2.2-.2-5.3-.3c-5.6-.5-8.6-.5-8.5-.1 0 .2 0 .4-.4.5-.3 0-.5.2-.5.3l-.1.7v.9c.2.2 2.2.3 5.7.4l6 .3c.2 0 .4-.1.4-.3 0-.3 1.5-.5 4.5-.4 3.4 0 27.6 1.3 35.9 2 9.2.6 14.4 1 15 1.3l4.5.2c3.5 0 4 0 4.2-.4zM55 55.7s-.4-.2-.9-.2h-1c0 .2.5.3 1 .3l1-.1zm38.4-.6c0-.4-.2-.6-.4-.6-.5 0-.5.5 0 1 .4.4.4.4.4-.4zm112.5 0c.2-.2-1.9-1.3-3-1.5l-3.3-.6c-1.5-.2-3.4-.6-4.2-1a57.3 57.3 0 0 0-17.3-2.3h-.7l.8.6c.4.4 1.2.7 1.7.8.6 0 1.7.6 2.6 1 1.3 1 1.8 1 3.6 1.2A349.7 349.7 0 0 1 206 55zm-190.2-.9c.3-.3.4-.6.3-1.2l-.2-.7-5 .2c-2.8 0-5.1.2-5.2.2-.3.2 0 1.5.3 2 .2.2 1.3.3 4.8.1 3.8 0 4.6-.2 5-.6zm7.8-.6v-1.1H16.7v1.1l-.2 1.1h7zm59.6.8-.3-.3c-.1-.1-.2 0-.2 0 0 .2 0 .4.2.4l.3-.1zM56 53c0-.1-.1-.2-.4-.2-.3 0-.5.1-.4.2 0 .2.2.3.4.3l.4-.3zm-4.7-.2v-.3c-.2 0-.3.1-.4.3l.1.2c.2 0 .3 0 .3-.2zm-37.6-1H16l.3-1c.1-.6.2-1.1.1-1.2 0-.2-2.7-.3-6-.3H4.7l.2 1.2.3 1.3c.1.2 1.5.2 3.1.1l5.4-.2zm9.7 0s0-.4-.2-.6l-.5-1v-.7l-2.6-.1c-2.8 0-3.2.1-3.1 1.4v.8l2.8.1a76.4 76.4 0 0 1 3.6.1zm166-2c-.3-.3-1-.4-1.3-.5-.5 0-.5 0-.3-.2.3-.2 0-.3-.9-.4l-1.6-.4c-.3-.3-1.8-.6-3.1-.7l-5.3-.3c-5.2-.4-5.8-.4-5.6 0l.6.2 1.2.6.9.6 3.8.1c2.7.1 3.8.3 3.9.5 0 .2.3.3.5.3s.3-.1.2-.3c0-.1 0-.2.3-.2.2 0 .3.1.3.2-.1.2.2.3.8.3.6 0 1.5.1 2 .3l2.7.2h1.6zm-4.3-.4c-.2-.3.5-.6 1-.4.5.2.3.6-.4.6l-.6-.2zm-168.6-.8c.3-.2.4-.6.4-1l-.1-.5h-5a69.8 69.8 0 0 0-6 .2c0-.4 2.7-.6 7-.6l4-.2c.2-.1.4-.7.5-1.3l.2-1.1h-4.4c-2.5 0-4.4-.1-4.3-.2l4.3-.3c2.3 0 4.3-.2 4.4-.3.3-.4.4-2.7.1-3-.7-.5-5 .5-8.7 2.3L6 44l-2 1 .1 1 .4 1.9.2.9 5.5.1 5.7.2c.1 0 .4-.1.6-.4zm-9.4-2.9h.5c0 .1 0 .2-.3.2-.4 0-.4 0-.2-.2zm16.8 2.6c1.2-1.3 1-1.5-2.4-1.4-2 0-3 0-3-.2s.8-.3 2.2-.3l3.5-.1 1.3-.2.8-1c.3-.6.6-1 .5-1.1a43.4 43.4 0 0 0-8.5.1L18 46l-.3 2.1c-.2 1 0 1.1 3.1 1.1h2.4zm148.6 0c0-.5-1.1-.6-1.8-.2l-.7.3 1 .2c1.2.1 1.5 0 1.5-.3zm-2.7 0-.9-.2c-.5 0-.6 0-.3.2.4.3 1.3.3 1.2 0zm-3-.6c2.4 0 2.8 0 2.8-.3s0-.4-.2-.5a2668.5 2668.5 0 0 0-4.4-.7h1.3l-.5-.4a2 2 0 0 0-1-.4l-1.4-.7c-.7-.6-1.4-.8-2.4-.8s-1.7-.3-2.2-.6c-.6-.5-1.3-.5-5.2-.6h-4.5c-.1.2 0 .6.3 1 .3.5.5.6 1 .5.5-.1.8 0 1.3.5.7.7 1.2.8 7.5 1.1 2.2.1 4.1.3 4.2.4.1.2-.5.3-1.6.1a34 34 0 0 0-7.8-.2l.7.9.6.6 3 .2h8.5zm12-1c-.1-.1-.8-.4-1.6-.5l-2.2-.7c-1-.4-2.2-.5-6-.4-2 0-2.8.1-2.4.3l1.2.2c.4 0 .7.2.8.3 0 .2 1.7.5 4.7.7a1529.2 1529.2 0 0 1 5.4.1zM17.1 39.5c0-.3-.1-.3-.5-.1l-.6.4.6.1c.3 0 .5-.2.5-.4zm1.6-.9c.3-.5.1-.8-.4-.6-.5.1-.6 1.1-.2 1.1.2 0 .4-.2.6-.5zm80.7-3.2-.4-.2c-.2 0-.4 0-.4.2s.2.3.4.3.4-.1.4-.3zm34.6-6c0-.2-.1-.3-.3-.3-.2 0-.5 0-.6.2 0 .2.1.3.4.3.3 0 .5-.1.5-.3zm-93.5-4.8c.3-.5-.3-1-.7-.6-.3.3 0 .8.3.8.1 0 .3 0 .4-.2zm-3-.8c0-.2-.5-.3-1.2-.3-.8 0-1 0-.7.3.5.3 1.9.3 1.9 0zm0-2c0-.3-.1-.7 0-.8 0-.4-.5-.7-.8-.5-.2.1-.2.3 0 .5.1.1.2.5 0 .9 0 .3 0 .5.4.6.7.2.7.1.5-.6zm-3.8 105-16.7-.1c-11.2 0-16.6-.1-16.6-.3 0-.3 32.8 0 36 .3l2 .2h-2.3a11 11 0 0 1-2.4 0zm149.3 0a11 11 0 0 1-2.3-.3 72 72 0 0 1 7.3.2l-1.6.1h-3.4zm6.9-.1c0-.1.6-.3 1.4-.3.8 0 1.5.2 1.5.3 0 .1-.7.3-1.5.3s-1.4-.2-1.4-.3zm-35.4-.2zm22.4-.5c.8-.3 1.3-.3 1.3.2 0 .1-.5.2-1.1.2h-1.1l.9-.4zm41.3-.9-1.2-.2h1.2c.6 0 1.4 0 1.7.2l.5.2h-.5c-.3 0-1 0-1.7-.2zm-10.5-.5a767 767 0 0 0-33.7-.7c0-.5 1.2-.6 4.9-.5l12.3.2c8 .2 11.2.3 21.6 1l3.4.2h-2.5l-6-.2zm-184.5-.3a117 117 0 0 1 7.3 0l2.3.2h-2.6l-7-.2zm-23-.3c0-.1 1.2-.2 2.7-.2 1.5 0 2.6 0 2.4.1-.6.2-5.1.3-5.1.1zm12.8 0L11 124h2.9c1.6 0 3.2 0 3.6.2.8.2-1.2.2-4.4 0zm-6.7-.1H8 6.4zm166.6-.3h.5c0 .1 0 .2-.4.2-.3 0-.3-.1-.1-.2zm-5.5-.2-12.9-.8-13.2-.4c-6-.2-10.4-.5-9.6-.5a352.7 352.7 0 0 1 29.7 1c4 .1 10 .6 10.2.7l-2 .1h-2.2zm46.8-.4-1.2-.2h1.2c.7 0 1.4 0 1.6.2l.4.3h-.4l-1.6-.3zm-189-.3a1073.1 1073.1 0 0 0-25.3-.9c0-.3 34.3.7 34.6 1 .2.2-5.3.2-9.3 0zm178.6-.2-2.2-.2h2.3c1.2 0 2.4 0 2.6.2a999 999 0 0 0-2.8 0zm3.9 0h1.3c.3.1 0 .2-.7.2-.8 0-1-.1-.6-.2zm-15.8-.3c-7-.2-12.6-.6-22.5-1.3a179.1 179.1 0 0 0-11.5-.6h-1.2l1.3-.2h4.9l7.6.4c2.2 0 4.6.2 5.4.3 1.2.3 13 1 13.6.8.7-.1 12 .4 11.7.6a826.3 826.3 0 0 0-9.4 0zm-105-.3c-.5-.2-.5-.2.2-.2l1.3.2c.5.2.4.3-.3.3a4 4 0 0 1-1.3-.3zm-45.8-1h1c.3.1 0 .2-.5.2-.6 0-.8 0-.5-.1zm20.6 0-13.7-.4a93.5 93.5 0 0 1-7.7-.6 6 6 0 0 0 1.8 0c.3-.3 1.6-.3 1.9 0h.9a185.5 185.5 0 0 0 14.2.5c12.6.3 16.2.4 16.4.6.2.2-6.1.1-13.8-.1zm156.2-.1a940.5 940.5 0 0 0-39.7-2l-5.5-.7-4.1-.4 3.8.1a272.7 272.7 0 0 0 19.2 1 763.6 763.6 0 0 1 28.9 1.8c0 .3-2.4.4-2.6.2zm-191.8-.4-2.3-.2h3.5l5.4.1 2 .2h-3.2l-5.4-.1zm-21-.3c-2.9 0-4.6-.1-4.8-.3a92.9 92.9 0 0 0 7.6 0c3.8 0 6 .1 5.8.3a957.2 957.2 0 0 0-8.6 0zm9.7 0c0-.2.4-.3 1.3-.3 1.6 0 1.6.1 0 .4L15 120zm24-.7h.6l-.3.1c-.4 0-.6 0-.4-.1zm-8.6-.4a319 319 0 0 0-11-.4c-15.9-.3-18.8-.5-19-.9a357.5 357.5 0 0 0 21 .6c6 .2 15 .6 16.4.8 1 .2-5.2 0-7.4-.1zm55.6-.8-1.4-.1h1.7c.9-.1 1.7 0 1.8.1.1.3 0 .3-2.1 0zm3 .1h.6c.2.1 0 .2-.3.2-.4 0-.5-.1-.4-.2zm61.7-1c-4.2-.1-7.8-.4-7.9-.5a694.6 694.6 0 0 0 17.9.6c-.8.3 0 .3-10 0zm12 .2h3l2 .1h-3c-2 0-2.7 0-2-.1zm55.1-.2h.5l-.3.1c-.3 0-.4 0-.2-.1zm1.6 0h1.2-1.2zm-8.4-.4-1.5-.2h1.8c1.2 0 1.8 0 1.7.2-.1.2-.3.3-.4.2l-1.6-.2zm3.5 0h1.4c.4.1.1.2-.7.2-.8 0-1.1 0-.7-.1zm-75.9-.3c-.2-.3 1.9-.3 2.7 0 .3.2 0 .3-1 .3-.8 0-1.6-.1-1.7-.3zm69.7.2-15-.5a101 101 0 0 1-18.6-1c0-.4.5-.4 5 0 4.7.3 8.4.4 17.3.7a78.7 78.7 0 0 1 11.3.8zm-173.4-1-1.6-.1h2.2c1.3 0 2.2 0 2.2.2s-.3.2-2.8 0zm-15.4-.5c-.4-.1 1.5-.2 4.3 0 2.7 0 5 0 5.1.2.2.2-8.3 0-9.4-.2zM.6 115c.2-.2.7-.2 1-.2 1 .2 1 .4-.3.4-.9 0-1 0-.7-.2zm3.2 0c.1-.1 13 0 13.1.1a84.5 84.5 0 0 1-13.1 0zm213-1.4c-6-.4-17.2-.8-28.4-1.2-4 0-7.2-.3-7.3-.4-.1-.2 1.8-.2 5.3-.1a1072.5 1072.5 0 0 1 34.5 1.7c0 .2-.2.3-.4.3l-3.7-.3zm-175.7-1c-6.1-.4-16.7-.8-29.7-1-6 0-10.9-.2-10.9-.4s13.7 0 26 .4c10.6.3 14 .4 25.2.4a528.5 528.5 0 0 1 25.6.9 657.1 657.1 0 0 0-30.6-.4c-.2 0-.3.2-.2.4a3110.2 3110.2 0 0 1-5.3-.2zm31.8-1c-.6-.6.3-.8 1-.2l.6.4h-.7c-.4 0-.8 0-.9-.2zm145.1-.6a620.3 620.3 0 0 0-28.3-1.6c-3.3-.3-7.8-.3-7 0 1 .3-.2.5-2.4.3a299 299 0 0 0-20-1.3c0-.3 5.9-.1 10.6.2a80.6 80.6 0 0 0 9.1.2l-1.5.2 1.3.2c1.9.3 2.2.3 2-.2l-.1-.4 2 .1 7.7.3a352 352 0 0 1 29.2 2.2l-2.6-.2zm-185-.8c-.3-.3 0-.3.7 0l.6.2h-.6c-.3 0-.7 0-.8-.2zm31.8 0-8-.3c-3.2 0-3.5 0-2.3-.3a17 17 0 0 1 3.2 0c4.5.3 10.6.3 11 0 .3-.2.7-.2 1.7.2l2.1.5-7.7-.1zm-49.5-.3a531.5 531.5 0 0 1 12.8 0l3.8.2h-3c-1.5 0-7.7 0-13.6-.2zm-14.6-.2c0-.2.4-.3.8-.3.6 0 .7 0 .4.3-.6.3-1.4.3-1.2 0zm35.9-.1c0-.1 3.5-.2 7.9-.2s7.9 0 7.8.2c-.1.1-3.7.2-7.9.2s-7.7 0-7.8-.2zm30.8-.6-2-.4a12 12 0 0 1-2.9-.8c-.8-.4-1.6-.5-4.5-.6h-3.6l2.5-.2 2.5-.1-.8-.3-2-.5c-.8-.1-1.5-.4-1.8-.6-.3-.4-1.4-.5-7.6-.6-6-.1-7.3-.2-7.5-.5-.2-.3-.2-.5 0-.5s.4 0 .5.2c0 .2.7.3 1.7.2h1.6l-1.2-.2-1.2-.2H43c1 0 1.8 0 2 .2.4.4 8.7.7 8.4.3 0-.2-.4-.3-.6-.3-.8 0-6-1.3-6.6-1.7-.3-.2-1.7-.4-4-.5-1.8 0-5.8-.3-8.8-.5-6.4-.5-13.2-.9-22.7-1.3-3.9-.1-7.7-.4-8.5-.5a490.6 490.6 0 0 1 35 1.6c3.3.3 8 .4 7.8.1l-3-1c-2-.5-3.3-1-4-1.5l-.9-.7-2.4-.2a543.7 543.7 0 0 0-9-.7c0-.3.7-.3 4.4 0 1.6.2 9.7.5 17.9.8l15 .7c.2.2-3 .1-10.7-.2l-10.3-.2-3.1.1.7.5c.7.5 3 1.2 6.8 2 2 .5 4 .6 13.8.8 12.3.3 18.3.5 18.1.8l-12.8-.2a68.6 68.6 0 0 0-15.4 0c-3.4-.8-2.9 0 .6.8 5.3 1.3 6.5 1.5 11.2 1.5 2.6 0 4.8.1 4.9.2l4 .1c2 0 4.7.2 5.9.3l-17.6-.1c-.9 0-1.4.5-.7.7 2.2.6 6.2 1.2 9.4 1.3 5.6.2 12.5.7 12.7.9h-4.3l-7.8-.3-3.3-.1 1.6.5c1 .3 1.7.7 1.7.8 0 .2-.6.3-.9.1zm108-.6h1l-.5.1h-.4zm-1.5-.2c.3-.1.6-.1.8 0h-.8zm-134.5-.5a927 927 0 0 0-38.3-1.1 683.8 683.8 0 0 1 38 .6c0-.1-.3-.2-.8-.2-.6 0-1-.1-1-.3 0-.2.4-.2 1.2-.1l2.3.2c.6 0 .9 0 .6.2-.3 0-.6.2-.7.4-.2.4-1 .6-1.3.3zm.7-.4c0-.2 0-.3-.3-.3-.2 0-.3.1-.2.3l.2.3.3-.3zm2.8.3h.8c.2.1 0 .2-.4.2-.5 0-.6-.1-.4-.2zm-.2-.6c-1-.2 8-.3 9.8 0a56.3 56.3 0 0 1-9.8 0zm136.4-.2c-1.8-.2-3-.5-2.6-.5 1-.2 6.6.5 6.6.8l-.3.2-3.7-.5zm40.5 0a114.7 114.7 0 0 0-6.1-.5c.6-.2 7.4.2 7.4.5a1026.5 1026.5 0 0 1-1.3 0zm-81.3-.5c-1 0-1.8-.2-1.8-.4 0-.1.3-.2.6-.1l3.2.2c1.5 0 2.6 0 2.6.2 0 .3-.7.3-4.6.1zm71.3 0c-.5-.2-.2-.3 1-.3 1.1 0 1.9 0 1.9.2 0 .3-2 .3-3 0zm-8.6-.2-6.7-.2a77 77 0 0 1-14.3-.7h6l11.1.3 7 .2s.1.1 0 .2c0 .2-2.9.4-3 .2zm3.7-.1c-.2-.4 1.1-.4 2.6 0l1 .2h-1.7c-1 0-1.9 0-2-.2zm-3.7-.7a793.5 793.5 0 0 1-19.1-1.2c-.6-.2 4.7 0 9.3.3a165 165 0 0 0 13.5.5c1 0 1.7.1 1.7.3 0 .1-.7.2-1.5.2l-4-.1zm-24.6-.3h.5c.1.1 0 .2-.3.2s-.4-.1-.2-.2zm-142-1.3h1-1.1zm2 0h.7l-.5.1c-.4 0-.5 0-.3-.1zm-20-.3-5.8-.1c-3.2 0-6.6-.1-7.7-.3-2.4-.2 23.6 0 27.5.3a212.1 212.1 0 0 1-14.1.1zm204 0a279.6 279.6 0 0 0-28.3-1.3l-9.3-.1h-8l4.7-.3c10.6-.4 40.7.6 41.5 1.4.3.2 0 .4-.6.3zm-46-.2-5.2-.4a1122.3 1122.3 0 0 0-32.1-1.6c0-.3 9.3 0 16 .3l10.1.5c4.8.2 8 .5 12.6 1l1.9.3H176a8 8 0 0 1-1.8 0zm44.5-1.9c-9.3-1-32.5-2.5-39.4-2.5-1 0-1.2 0-1-.3a416.5 416.5 0 0 1 42.6 2.7c.1.3-.5.3-2.2.1zm-41.6-1.3h1.5-1.5zm-3.5-.3h1.8-1.8zm-5.3-.3c0-.2.2-.3.4-.3s.5.1.6.3c0 .1-.1.2-.4.2l-.6-.2zm2.5 0h.8c.2.1 0 .2-.5.2-.4 0-.6-.1-.3-.2zm-6.6-.2h2-2zm55.7 0h.6l-.3.1c-.4 0-.5 0-.3-.1zm-59.8-.3a7 7 0 0 1 1.6 0l-.9.1c-.9 0-1.2 0-.7-.1zm50.2-.1c-5.9-.6-5.8-.8.1-.4 2.6.1 4.2.3 3.8.4-.6.3-.4.3-4 0zm5.6 0h1.7c.5.2.1.2-.8.2-1 0-1.4 0-.9-.1zm-15-.6-7.5-.3-7.6-.3-6.4-.1c-6.1 0-9.2-.2-8.8-.5a485.6 485.6 0 0 1 32.5 1.3l-2.2-.1zm15.7-.1a8 8 0 0 1-2.6-.4c-.2-.2 0-.2.8-.1l3.5.2c1.4 0 2.4 0 2.4.2s-.4.3-.8.2l-3.3-.1zm-8.7-.5-4.1-.2a121 121 0 0 1-12.2-.6 180.6 180.6 0 0 1 21 .7 55.7 55.7 0 0 1-4.6 0zm-186.7-.3a955.8 955.8 0 0 0-20.4-1h4.4a5085.7 5085.7 0 0 0 19.8.7c.1 0 .2 0 0 .2 0 .3-.5.3-3.8.1zm145-.3-5.2-.3a8 8 0 0 1-2.6-.2c0-.2.9-.2 2.3-.2 8 .4 9.2.5 9.2.7l-.4.2-3.3-.2zm43.4-1a337.2 337.2 0 0 0-25.1-1.7 613.6 613.6 0 0 0-24.2-1 832 832 0 0 0-25-.8 668.6 668.6 0 0 1 37.3.9c5.2.2 14.3.6 19.3 1a617 617 0 0 0 20.2 1v.4c-.1.2-.5.4-1.3.4l-1.2-.1zm6.8 0c-1.6-.2-3.1-.3-3.3-.5h2.5a85.2 85.2 0 0 0 5.1.4c0 .2-.2.3-.6.2-.3 0-2 0-3.7-.2zm-190.5-.7-8.4-.4-5.7-.2h3.7c4.6-.1 14.5.4 14.8.7.3.3-.6.3-4.4 0zm5 0 .5-.2c.2 0 .5.1.5.3.1.1 0 .2-.5.2-.4 0-.6 0-.5-.2zm-28-.7a44.8 44.8 0 0 1 6.7-.1c-.9.2-4.7.2-6.8 0zm136.5-.8-1.4-.2h2c1.1 0 2.3 0 2.7.2.8.3-1.4.3-3.3 0zm78-.7h1.4-1.4zm2.7 0h.6s-.1.2-.4.1c-.3 0-.4 0-.2-.1zm-150.6-.5c.2-.1.6-.1.8 0h-.8zM64 91.3h1.5l-.8.1h-.7zm-8.5-.3-2-.2H56c1.4 0 3.5 0 4.8.2l2.2.2h-2.8l-4.7-.2zm84.9 0c-.5 0-.8-.2-.7-.3.4-.2 3.3 0 3.3.3s-1.2.3-2.6 0zm71.7.1-1.7-.3c-3-.2-1.8-.4 1.7-.2 3.3.1 5 .4 2.7.4l-1.8.1h-1zm7.8-.1c0-.2.1-.3.5-.3s.7.1.7.3c0 .1-.2.2-.5.2s-.6 0-.7-.2zm-147.4-.3-5.4-.5-8.4-.8c-3.7-.4-6.4-.5-14.5-.5-5.5 0-10-.1-9.8-.2 0-.1 3.7-.2 8-.1 5.3 0 7.8 0 7.6-.3l-.6-.2c-.7 0-4.4-1.2-4.6-1.4-.2-.5-8.9-.6-19.1-.4h-4.9a64 64 0 0 1 5.9-.3l4.8-.2c.7-.3.5-.6-.4-.6-1.3 0-3.4-.6-3.4-1l.3-.6c.2-.2.2-.3 0-.4-.6-.2-7.6-.4-12.6-.4-3 0-4.1-.1-4-.3.4-.3 9.7-.3 13.1 0l6.6.3a247.8 247.8 0 0 1 19.9.8l-8.4-.2c-7.9-.2-9.5-.2-9.2.2l-.9.3h-1l1 .3c2 .8 9.6 1.4 16.7 1.5 7.6 0 23.9.4 27.5.7 1.3 0 2.3.2 2.3.4 0 .3-.3.3-4.9 0-2-.2-7.6-.4-12.4-.4a229.7 229.7 0 0 1-11.4-.3c-.7.1-.8.3-.7.7 0 .4.3.5 1 .5 1.3 0 5.5.7 6.1 1 1 .5 5.2 1 12.4 1.5 2.9.2 5.3.5 5.5.6.4.4-.3.5-2 .3zm-39-5.2H33c-.2.1-.1.2.2.2.3 0 .4 0 .3-.2zm-4.2-1.4c0-.1-.2-.3-.4-.3s-.4.2-.4.3c0 .1.2.3.4.3s.4-.2.4-.3zm142 6.5-4.3-.4 4.5.1c5.2.1 4.7 0 4.5.4a202.3 202.3 0 0 0-4.8-.1zm5.8.2h.5c.1.1 0 .2-.3.2s-.4-.1-.2-.2zm1.3 0h.7l-.3.1h-.4zm39.2 0h.5c.1.1 0 .2-.3.2s-.4-.1-.2-.2zm-173.2-.3-5.7-.3-4.3-.2 6.4.1c3.5 0 7.5.2 8.8.3l2.6.2h-7.8zM33.3 90h.6l-.3.1h-.3zM152 90c-.5 0 1-.2 3.1-.2 2.3 0 4 0 4 .2 0 .3-5.6.3-7 0zm9.4 0zm-86-.2c.4-.4 5.7-.4 5.7 0 0 .1-1.2.2-3 .2-2.2 0-3 0-2.8-.2zm71 0h2.8c.8 0 .1.1-1.4.1h-1.4zm59.6 0c0-.2.2-.3.4-.3s.4.1.4.3l-.4.2c-.2 0-.4 0-.4-.2zM10.4 88.4h1.3l-.7.1h-.6zm-9.2-.3c-.2-.3 2-.3 4 0l1.3.2H3.9c-1.4 0-2.6 0-2.7-.2zm177.6 0h1.2c.3.1 0 .2-.6.2-.7 0-1 0-.6-.1zm-32.8-.8zm11.8 0h.8c.1.1 0 .2-.5.2-.4 0-.6 0-.3-.1zm35.2-.2c-7.4-.6-23.2-1.4-23.5-1.2-.2.1-2-.2-2-.4a311.7 311.7 0 0 1 27.8 1.5c.4.3 0 .3-2.3.1zm25 0c0-.2.7-.3 1.5-.3.7 0 1.5 0 1.6.2 0 .2-.5.3-1.5.3-.9 0-1.6-.1-1.6-.3zm-8-.4h2.7c2.2 0 4.1.1 4.2.2.2.2-5 0-7-.2zM11.1 85.2c-2.8-.8-4.8-1.5-6.6-2.4-.7-.4-1.4-.5-1.8-.4l-1.1-.1c-.4-.2-.1-.3 1.2-.3a5 5 0 0 1 3 .6c1.4.9 4.7 2 7.5 2.6 1.3.2 2.3.5 2.4.6.4.4-2.1 0-4.6-.6zm64 .2a203 203 0 0 0-4.9-.7c1-.1 6.4.4 6.6.6.3.3 0 .3-1.6.1zm90.1.1h1.2l-.6.1h-.6zm52.2-.3c0-.2.6-.3 1.3-.3.7 0 1.4.1 1.5.3 0 .1-.4.2-1.3.2s-1.5 0-1.5-.2zm-4-.3c0-.3 1-.3 2.3 0 .6.2.5.2-.8.2-.8 0-1.5 0-1.5-.2zm-4.2-.1-4.4-.3a26 26 0 0 1-7.4-.7h.9a281.8 281.8 0 0 0 13 .8l1.7.2h-3.9zm-194.9-.4c0-.2.3-.3.9-.3a100.8 100.8 0 0 0 4.8 0c-2.2.4-5.5.6-5.7.3zm45.8-.2a53 53 0 0 1-5.4-.5c-.2-.2 6.7.1 11 .5 5 .5 1.6.5-5.6 0zm14-.4-4-.1H73c4.2-.2 10.6-.2 10.8 0 .2.2-5.4.3-9.6.1zm93.1 0-1.3-.1h1.5l2 .1.5.3h-.7l-2-.3zm3 .1h.5c.1.1 0 .2-.3.2s-.4 0-.2-.2zm50 0H218c-1.2-.1-2.3-.2-2.4-.4-.1-.1.8-.2 2.4 0 2.4 0 3 .2 2.7.5h-.2zm-219-.3c0-.2.2-.2.4-.1l.4.2-.4.1c-.2 0-.4 0-.4-.2zm2 0H4c.2.1 0 .2-.3.2-.4 0-.5 0-.3-.1zm49.4 0H54c.4.1 0 .2-.7.2s-1 0-.6-.1zm156.5 0c-1.1 0-2-.1-2-.2 0-.2 7.7-.1 7.9 0 .1.2-3.7.3-5.9.2zm-47.7-.3-1-.2h1.6c.8 0 2 0 2.6.2l1 .2h-1.5c-.9 0-2 0-2.7-.2zm-77.1-1.2c-.2-.1-19.4-.6-31.2-.8-5.3 0-10.4-.3-11.4-.4-2.2-.4-5.6-.5-11.6-.5-2.7 0-4.9-.2-5-.3a541.7 541.7 0 0 1 27.5.5 711.5 711.5 0 0 0 31.5 1c.7.1 1.3.2 1.3.4s-.9.4-1.1.1zm132.9 0h1.3H217.3zm-7.2-.4-1.2-.2h1.8c1 0 2 0 2.3.2.5.3-1 .3-3 0zm3.9.1h1l-.6.1c-.5 0-.7 0-.4-.1zm-11.5-.4c-5.6-.3-6-.4-1-.3 2.5 0 5 .2 5.5.3l1 .3h-.8l-4.7-.3zm-116-.4h1l-.6.1h-.4zm2 0h.7c.2 0 0 .2-.3.2-.4 0-.5-.1-.3-.2zm-16.3-.3c-2 0-3.1-.2-3.1-.3 0-.2.2-.3.6-.2l4 .2c2.2 0 3.6.1 3.6.3l-1 .2-4.1-.2zm7 0H82l-1.5.1h-1.4zm107.5 0c-.4-.2 0-.2 1-.2l1.7.3c.2.2-2.2.1-2.7-.1zm4.8 0h1.8c.6 0 .2.1-.8.1h-1zm-187-.5h1l-.6.1h-.5zm2.4 0c.7-.4 14.8-.3 14.8 0 0 .1-3.5.2-7.7.2-5.2 0-7.6-.1-7.1-.3zm213-.6c-.4-.2-6.4-.5-16-1a826.5 826.5 0 0 0-18.2-.5 469 469 0 0 1 31.5.9c2.7.1 4 .2 4 .4-.2.4-.8.5-1.3.2zm-182.7-.8c-.4-.1 0-.2 1-.2s1.8 0 1.9.2c.2.3-2.2.3-3 0zm166.7-3h.7-.7zM28 75.4l-11-.2a68 68 0 0 1-15.4-.8 277 277 0 0 0 12.3.2 83 83 0 0 1 15.6.7c-.6.2-1.3.3-1.5.1zm187.8-.8-3.6-.6-4.6-.5-3.5-.2-2.7-.2c-.2-.2-1.3-.3-2.4-.4-3.2-.2-4-.3-4.2-.4 0-.1 0-.2.3-.2l1.3-.1 2.6.1 6 .5 5.5.7c.7.2 2.2.4 3.3.4 2.3 0 3.2.2 3.2.7 0 .3-.9.5-1.2.2zm3-2c-.3-.2-.1-.2.6-.2.5 0 1 0 1.1.2.2.4-1.2.4-1.7 0zm-3-.4h.7l-.5.1c-.4 0-.6 0-.3-.1zM5.6 71.7c-.4-.2 0-.3 1.3-.3 1.1 0 1.7.1 1.6.3-.2.3-2.2.3-3 0zm205.4 0h.6c.2.1 0 .2-.3.2-.4 0-.5 0-.3-.1zm-4-.2-2.4-.2a6 6 0 0 1-2-.3c.3-.3 5.3.2 5.3.4 0 .3-.5.3-1 .1zm10.8-2.2L204.8 68c-5.8-.4-13.5-1.2-13.9-1.3-.6-.3 5.9.1 12.7.8a4630 4630 0 0 0 17 1.7c.2.3 0 .3-2.7 0zm-29-2.7-2.2-.4c-.9 0-2-.3-2.3-.5l-.6-.4 2 .2c2.2.1 4.2.7 4.2 1.2 0 .3-.6.3-1.1 0zm30.6-1.5c.7-.4 1.2-.4 1.2 0 0 .1-.4.2-.9.2-.7 0-.8 0-.3-.2zm-8.2-5.6-1.4-.2h1.6c1 0 1.5 0 1.4.2l-.3.2-1.3-.2zm2.7 0 .5.1s0 .2-.3.1c-.4 0-.4 0-.2-.1zM1 58.2c0-.3.3-.5.6-.5.7 0 .6.7-.1.8-.3 0-.4 0-.4-.3zm202 0a302 302 0 0 0-10.1-.9l-6-.5a3143.7 3143.7 0 0 1-22.3-1.5l-9.8-.3c-4 0-6.2-.2-7.3-.5a44 44 0 0 0-5.4-.7l-4-.5h5c0-.3-2.8-1.4-4-1.6-.6-.1-1-.3-.7-.3.3 0 .5-.1.5-.2 0-.5-.8-1.4-1.2-1.4-.3 0-.7-.2-1-.4-.2-.3-1-.5-2-.5-4.8-.4-6.2-.6-6.2-.8 0-.2-.3-.5-.8-.8l-.8-.4 1 .1c.6.1 1.3.4 1.6.7.7.7 3.1.8 2.9.1a47.6 47.6 0 0 0 8.8 1c8 .6 8.5.7 8.1 1-.2.2-.9.2-2 0l-2-.1c-.1 0-.7 0-1.2-.2-.6 0-2.1-.3-3.4-.3l-2.3-.2.6.9c.8 1.1.9 1.2 2.5 1.5 1 .2 1.3.4 1 .5-.2.2 0 .4.7.7l1.4.4 1.1.3c1.1.6 8.5 1.2 21.1 1.7a54.6 54.6 0 0 1 7.4.5 652.5 652.5 0 0 1 27.7 2.1c5.3.5 7.6 1 4.5.9l-3.5-.2zm3-5.5c-.1-.1.1-.2.5-.2s.6 0 .5.2c0 .2-.3.3-.5.3s-.4-.1-.5-.3zm3 0 .4-.2c.2 0 .4 0 .4.2s-.2.3-.4.3-.4-.1-.4-.3zm-65-.8-1-.2h1.3l2.5.2 1.2.2h-1.4c-.8 0-2 0-2.5-.2zm-51-.2-2.4-.2h2.9c1.7 0 2.8 0 2.8.2a151.4 151.4 0 0 0-3.3 0zm-19.3-.4a7112.8 7112.8 0 0 0-9.6-.6c.2-.2 1-.2 12 .2a725.6 725.6 0 0 0 11.4.6c.2.2-3.6.2-13.8-.2zm61.8.1-1.8-.2h1.8c1 0 1.8 0 1.8.2v.2l-1.8-.2zm81.4 0 .5.1c.1 0 0 .2-.3.1-.3 0-.4 0-.2-.1zm-2.1-.2h.5c0 .1 0 .2-.3.2-.4 0-.4-.1-.2-.2zm-2.8-.3c.2-.2 1.5 0 1.5.1l-.8.1c-.4 0-.7 0-.7-.2zm-5.4-.2c-.7 0-1.3-.2-1.3-.4s.6-.2 4.3.3l1.7.2h-1.7l-3-.1zM201 50c0-.2.3-.2 1-.1 1.3.2 1.4.3 0 .3-.5 0-1 0-1-.2zm16.4 0c-.3-.2-.2-.3.5-.3.5 0 .8.1.7.3-.2.3-.7.3-1.2 0zm-6.3-.4s.7-.2 1.6-.2c1 0 1.8.2 1.9.3 0 .1-.6.2-1.6.2a5 5 0 0 1-1.9-.3zm-2.3-.2c-.6-.2-.4-.3.7-.2.8 0 1.3.5.5.5-.4 0-1-.1-1.2-.3zM73.4 49l-1.3-.1 1.3-.2c1.8-.1 4.7 0 4.7.3s-2.6.3-4.7 0zm14.4-.1-7.2-.7-2.4-.2 4 .1c5 .1 11.7.7 12.3 1 .5.2-.5.2-6.7-.2zm117.6.1a62.4 62.4 0 0 0-3.4-.7c.2-.2 5.2.5 5.2.7 0 .3-.3.3-1.8 0zm-13-.2c-.4 0-.8-.2-1-.4-.2-.2 0-.2.8 0h1.7c.3 0 .6.2.6.4s-.5.2-2 0zm-118.8-.9-10-.4c-5 0-9.3-.2-9.6-.4-1-.2 1-.2 11.2 0 8.3.3 14.4.7 11.5.8L75 48c-.3 0-1 0-1.4-.2zm122.9 0c-.2-.3 1.1-.3 2.6 0l1 .3h-1.7l-2-.2zm17.7-.3c-2.3-.3-4.7-.3-9 0l-3.5.1-1.6-.5-2.3-.6a10 10 0 0 1-2.2-.5c-1-.3-1.9-.5-2.5-.4l-1.3-.1c-.6-.4 3-.3 4.5.1 3.8 1.2 4.8 1.3 10.7 1.3 6.4 0 11.7.4 12 .7.1.3-2.4.3-4.8 0zm-20.8 0c.2-.2.4-.2.5 0h-.5zm-146-.7c-2.5 0-3.7-.2-2.7-.3 2.7-.1 7.5 0 7.8.3a159 159 0 0 0-5 0zm55.3 0c0-.1.4-.3 1-.3s1 .2 1 .3c0 .1-.4.3-1 .3s-1-.2-1-.3zM84 46l.3-.3.4-.6c.2-.8.6-.9.7 0 0 .3.3.5.8.6 1.4.2 1 .6-.5.6-1 0-1.7-.1-1.7-.3zm9.4 0c-.2-.3.6-.6 1-.4.1.1.2.3 0 .4-.1.3-.8.3-1 0zm46.2.2c-.5-.6-33.3-1.5-34-1-.4.3-.8.2-1.8-.3-1.2-.5-1.6-1-.8-1l.9.3c.5.2 2 .3 13.9.6 9.8.3 23.8 1 24 1.2.2.2-.2.3-1 .3l-1.2-.1zm-65.2-.5-3.4-.2c-1.3 0-2-.1-2-.3 0-.4 6.7-.2 7 .1.4.4-.4.6-1.6.4zm-10.9-.2-7.8-.3a550.5 550.5 0 0 1-19.7-.3c-3.4 0-6.2 0-6.1-.1.1-.2 4.3-.2 9.2-.2 6.3 0 9.3 0 9.9-.2.6-.2 1.5-.2 3.4 0 1.5.2 4 .4 5.8.4 5.4.2 8.1.4 8 .7l-.4.2-2.3-.2zm123.3-.2h.8l-.5.1c-.4 0-.6 0-.3-.1zm1.7 0h1.2l-.6.1c-.7 0-1 0-.6-.1zm19-.6c-1.9 0-3.4-.3-3.5-.4h2.6a98.9 98.9 0 0 0 5.4.4l-.8.2-3.8-.2zm-13.9-.2h1.4l-.8.1c-.7 0-1 0-.6-.1zm-103.1-.3c-.8-.1-.8-.5-.1-.7.6-.2 2 .3 1.7.7-.2.2-.6.2-1.6 0zm98.8 0c0-.1.7-.2 1.6-.1 2.2.1 2.3.3.2.3-1 0-1.8 0-1.8-.2zm-2.7-.2h1-1zm-119.1-.5-.5-.4h.9c.5 0 .8.1.7.3-.1.5-.5.5-1.1.1zm66-.1a89.7 89.7 0 0 1-6-.6 668 668 0 0 1 15.7 1l-9.7-.4zm47.2.3h2l-1 .1c-1.1 0-1.6 0-1-.1zm-10.1-.3c0-.4 1.3-.4 1.8 0 .3.1.1.2-.7.2-.6 0-1.1-.1-1.1-.2zm3 0h.6c0 .2 0 .2-.4.2-.3 0-.3 0-.1-.2zm2.2 0a7 7 0 0 1 1.6 0l-.9.1h-.7zm38.8-.3c.2-.2.5-.2 1 0l.6.2h-1c-.5 0-.7 0-.6-.2zm-124.9-.3a44 44 0 0 0-4.5-.2 14 14 0 0 1-3.5-.3c-.3-.2 0-.3 1.3-.2l5.2.2c2.6 0 3.5 0 3.4.3 0 .4-.3.5-1.9.2zm28.5 0c-2.2 0-4-.2-4.2-.3a55 55 0 0 1 9.9.3l-1.1.1h-4.6zm93.9 0c0-.1.2-.2.5-.2s.6 0 .7.2c0 .2-.1.3-.5.3s-.7-.1-.7-.3zm-168.5-.4c.2-.4-.3-.5-2.4-.7l2.6-.2c2 0 3.5 0 3.4.2-.2.2-.6.2-2.4.3-.4 0-.7.2-.7.4 0 .3-.1.4-.3.4-.2 0-.2-.1-.2-.4zm1.2.2h.5c.1.2 0 .2-.3.2s-.4 0-.2-.2zm11.6 0-.8-.1.7-.2c.5-.2.4-.2-.6-.2-.9 0-1 0-.6.2l.5.2H55c-.5 0-.7 0-.6-.2 0-.2-.2-.3-.8-.3-.5 0-1 .2-1 .3 0 .1-.2.3-.5.3-.5 0-.6 0-.2-.3.2-.2-.3-.3-1.8-.3-2.2 0-2.6-.1-1.7-.7.3-.2 1.1-.2 2.7 0a140 140 0 0 0 8.5.7c-.3 0-.6.2-.6.4 0 .4-.8.5-2.5.2zm3.2 0c.1-.1.7-.2 1.3 0l1 .2h-1.3c-.8 0-1.2 0-1-.2zm50.4 0a10 10 0 0 1 2.2-.2h1.6l-1.2.2-2.2.2c-1 0-1 0-.4-.2zm56.2 0c-.4-.2 0-.3 1.2-.3 1 0 1.8.1 1.8.3 0 .3-2.3.3-3 0zm43.2 0h.5c.1.2 0 .2-.3.2s-.4 0-.2-.2zm-47.8-.2h1l-.5.1c-.5 0-.7 0-.5-.1zm35.5-.1c-.3-.5.8-.6 4.7-.4 7 .3 7.6.6 1.2.6-3.2 0-5.8-.1-5.9-.2zM72.5 42l-1.2-.1h1.8c1-.1 1.8 0 2 .1 0 .3-.7.3-2.6 0zm3.8.1h.9l-.5.1h-.4zm-14-.3h1.3c.3.1 0 .2-.6.2-.7 0-1 0-.6-.2zm3.3 0h.5c0 .2 0 .2-.4.2-.3 0-.3 0-.1-.1zm128.7-.5-6-.4-5.7-.6c-.2-.2 1.3-.1 7 .3l6 .6.6.3h-.7l-1.2-.2zm-41.3-.6c0-.3 0-.6-.3-.8-.4-.2-.4-.2.1-.2.6 0 2-1.6 2-2.1 0-.2-1.6-.3-5-.3h-5l-1 .9c-.9 1-1.5 1-.8 0l.4-.7-2-.3-2.1-.1h2.2c1.8 0 2.3-.1 3.7-.8a8 8 0 0 0 2-1.4c1.2-1.4 2.8-2.7 3.9-3.3.4-.2.8-.7.9-1 0-.4.6-1.2 1.2-1.9.7-.6 1-.9 1-.6l-.4 1c-.1.4-.4.8-.6 1a5 5 0 0 0-.8 1.3c-.3.5-.6.9-1.1 1-.4 0-.8.3-1 .5 0 .2-.7 1-1.5 1.8s-1.4 1.6-1.4 1.8c.1.3 1.1.3 4.3.3h4l1.1-.7c1.2-.8 2.9-1.2 2.7-.6 0 .2-.6.4-1.2.5-.6.1-1.1.4-1.1.6 0 .2 1 .4 4.5.5l8.6.5 4 .2 2.6-.5c1.5-.3 3-.7 3.6-1 .7-.2 1.7-.3 4.4-.1l3.6.2-3.2.2h-3.5c-.2 0-.9 0-1.5.4-.7.3-2.1.8-3.1 1l-2.1.5c-.1 0-.4 0-.6-.2-.2-.1-.5-.2-.7-.1-.4.3-1.8.4-1.7.1.1-.1-.2-.2-.6-.2-.5 0-.8 0-.8.3 0 .2-.6.4-1.6.7-1 .2-1.6.5-1.6.7 0 .2-.6.4-1.7.5a2540.2 2540.2 0 0 0-11.8 1H153l.1-.6zm4.6-.2c1.1 0 2.1-.3 2.3-.4.2-.2 1.5-.3 3.2-.4 2.2 0 3-.1 3.2-.4.1-.2.9-.5 1.6-.6 1.2-.1 2.4-.5 2-.7l-6.7-.3-6.4-.4-.9.6c-1 .5-1.5 1.3-1.3 1.7.1.2 0 .3-.2.4-1 .4 0 1 1 .8l2.2-.3zm-152.5.2a15 15 0 0 1 3.3-.4c1.7 0 2.6 0 2.3.1-.8.3-6.2.6-5.6.3zm77.6 0-3.7-.1 3.4-.2c3.6-.1 4.7 0 4.5.3 0 .2-.2.3-.3.2l-4-.2zM71 40.5h1.4c.4 0 .1.1-.7.1H71zm3.6 0h2c.6 0 .1.1-1 .1h-1zm105-.2h.5l-.3.1c-.3 0-.4 0-.2-.1zm-9.7-.4c0-.1.1-.2.4-.2.2 0 .4 0 .4.2s-.2.3-.4.3c-.3 0-.4-.1-.4-.3zm1.8.1h.5c0 .1-.1.2-.4.2-.3 0-.3-.1-.1-.2zm1.6 0h.5c0 .1-.1.2-.4.2-.3 0-.4-.1-.1-.2zm34.5 0s-1.3-.2-2.9-.2l-3-.3a124.3 124.3 0 0 1 11.9.5 73 73 0 0 1-6 0zm-146.1-.3c-2-.1-2.8-.3-2.9-.5a42.5 42.5 0 0 1 6.5 0c.6.2.3.7-.3.7l-3.3-.2zm83.9 0h1.3c.3.1 0 .1-.7.1h-.6zm3 0h2.3l-1.1.1h-1.2zm31.5-.3c-.2-.2.5-.3 1.7-.3 1 0 1.8 0 1.8.2-.3.2-3.4.4-3.5 0zm11.9 0c-.1-.2.4-.3 1.3-.3s1.4.1 1.3.3c0 .1-.7.3-1.3.3-.7 0-1.3-.2-1.3-.3zm4.3 0c0-.2.1-.3.3-.3l.4.3c0 .1 0 .3-.3.3-.2 0-.4-.2-.4-.3zm2.3 0c.6-.2 1-.2 1.4 0 .3.2.1.2-.9.2h-1.3zm2.4 0h.5c.1.2 0 .2-.3.2s-.4 0-.2-.1zm-14.5-.2h2.6H186.5zm-80.9-.4c-.6-.2 5.4-.2 6.8 0 .9.2.1.3-2.5.2-2.1 0-4 0-4.3-.2zm-60.8-.3-2.5-.4h-.6l.6-.4c.3-.1.6-.3.6-.5 0 0 .1-.2.4-.2.2 0 .4.1.4.3 0 .1.1.2.4.2.2 0 .3 0 .2-.2-.2-.4.8-.6 1.6-.4.6.2.7.2.3.4-.8.5-.4.8.8.8.8 0 1.2 0 1 .3 0 .4-.8.5-3.2.1zm50.8.1c0-.1 0-.3.3-.3.2 0 .4.2.4.3l-.2.3c-.2 0-.4-.2-.5-.3zm-28-.2c-2.7-.1-4.4-.4-4.4-.7a811 811 0 0 0 11.2.3l4 .2-4.6.1-6.2.1zm12.3 0c0-.4 3-.4 3.4 0 .3.1-.1.2-1.5.2-1 0-1.9-.1-1.9-.3zm7.7 0zM53 37.7l-3.3-.4c-1.8-.2-1.4-.2 2.4-.2 2.5 0 4.8 0 5.2.2.5.2.5.2-.4.2a4 4 0 0 0-1.7.3 2 2 0 0 1-.8.2l-1.4-.3zm9.4.1c0-.1 0-.3.3-.3.2 0 .4.2.4.3 0 .1-.1.3-.3.3l-.4-.3zm-39.8-.3c.4-.2 5.2-.3 5-.1a23 23 0 0 1-5 .1zm190.5 0-1.5-.1h2c1-.1 2 0 2 .1.2.3-.2.3-2.5 0zm-173.4-.4h1.9-1.9zm165.5 0-2-.3h2.3c1.4 0 3.2 0 4.2.2l1.7.2h-2.1L205 37zm-4.3-.4c0-.1.1-.2.3-.2.2 0 .2.1.1.2 0 .2-.2.3-.3.3v-.3zm1 0c-.1-.1 0-.2 0-.2.2 0 .3.1.3.2v.3l-.4-.3zM1.2 36.5c0-.6.4-1 .8-1 .6 0 2.4-1.6 2.4-2 0-.3-.2-.4-.8-.3-.4.1-.8 0-1-.2-.2-.5.5-.8 1.7-.7l1.1.1.6-.7c.5-.8.5-1.3 0-1.3-.2 0-.3.2-.2.3.3.8-.2 1-1.2.7-.5-.2-1-.4-1-.6-.1-.1-.6-.3-1-.3-.5 0-.7-.1-.7-.4 0-.2.2-.3.4-.3s.6 0 1-.2.6-.2 1 0c.5.2.8.2 1.2 0 .4-.4.7-.4 1.3-.2.7.3.9.3 1.2-.2.2-.3.4-1 .4-1.7 0-1-.1-1.3-.5-1.5-.8-.2-2.4 0-3.4.7-1.2.7-1.2.7-1-.1l.2-.7h-.9c-.6 0-.8-.1-.8-.5s.3-.6 1.1-.8c1.2-.2 4-2 4-2.5 0-.1-.7-.2-2-.1-2.9.2-4.2-.5-2-1.1.6-.2 1-.5 1-.7 0-.6 1-1.4 2.2-1.5 1.2-.3 2.5-1.8 1.4-1.8-.3 0-.4-.2-.2-.6.2-.9.6-1.2.6-.6 0 .3.1.7.3.8v1.3c-.2.8-.2 1 .1 1.1.6.3 1-.4.8-1.5-.2-1 .3-2 .9-2 .1 0 .3.2.3.4 0 .5.1.6.6.4 1-.2 1 .4 0 1.6-1 1-1 1.2-.2 1.2.5 0 .8-.2 1.2-1l.8-.8c.4 0 1 .8 1 1.3 0 .3.2.5.4.6.2 0 .1.1-.2.2-.6 0-2.6 1.3-2.6 1.7 0 .6 1.3.4 1.8-.2.2-.4.4-.5.6-.3l1.3.6c.7.3 1 .5 1 .8 0 .3.2.5.6.5.9.1 1.6.7 1.7 1.4v.6l.8-.6.8-.6-.1.9-.1.9h2c2.5.2 2.7.4.3.4l-3.2.1-1.4.2.1.6c0 .5 0 .7-.3.7-.4 0-.5-.2-.4-.7l.2-.7-.6.3c-.3.2-.6.5-.6.7 0 .2-.3.4-1 .4-.8 0-1-.1-1-.4.2-.2-.2-.3-1.3-.4-2 0-2.5.3-.6.5l1.4.2h-1.8c-1 0-2.1.2-2.3.4-.4.3-.6 1-.5 2 0 .4 2.1.4 2.1 0 0-.1.7-.2 1.5-.2 1 0 1.5-.2 2-.6.5-.6 1-.5.8.3l-.1.6 1.4-.2c2.2-.3 2.2-.3 2.3.4.2.8 1 .9 1 0l-.1-.5h2.4l4.7-.2c1.3 0 2.4 0 2.5.2.1.1-1.5.2-4 .2-3.3 0-4.3.1-4.3.4 0 .2.2.4.5.6 1.1.4.9.9-.5 1H20V32.6l-2 .3-3.8.2c-1.3 0-2.6.2-4.1.7l-2.3.7h1c.6.1 1.2 0 1.4-.1.2-.2.6-.3 1.1-.2.9.3 1.7.2 2-.1.5-.4.8-.3 1.2.4l.2.7-2.4.2c-1.7.2-2.7.4-3.4.8-.8.5-1.2.6-2.5.4-.8 0-1.9-.3-2.3-.4-.7-.3-1-.2-1.5.1-.7.5-1.3.6-1.3.2zm5.2-2.4c.3-.1.6-.4.6-.5 0-.2.3-.6.7-.9.4-.3.7-.7.7-.9 0-.3.7-.5 1.4-.4.3 0 1-.5 1-1 0-.3-1.3-.4-1.5 0-.1.1-.5.3-1 .3s-.9.2-1.4 1l-1.6 1.7c-1.5 1.2-1 1.5 1 .7zm3.2-1.3c.6-.8.4-1.2-.3-.6l-.7.9c0 .4.6.2 1-.3zm3.5-.7.7-.3-.7-.3-.6-.3.9-.3.9-.3-.8-.4c-1-.5-2 0-2 .8 0 .4 0 .7-.2.7s-.3.2-.3.4c0 .5 1.2.5 2.1 0zm3.5-.1-.3-.4c-.1 0-.2-.6 0-1 0-.9 0-1-.4-1a2 2 0 0 0-1 .4l-.6.3.4.5c.2.3.4.7.3 1 0 .3.1.4.8.4.4 0 .8 0 .8-.2zm1.3-1.9c0-.1-.1-.2-.3-.2-.1 0-.2 0-.2.2s0 .3.2.3.3-.1.3-.3zM15.2 26v-.3c-.2 0-.4.2-.5.3v.3c.2 0 .4-.2.5-.3zm-2-1.6c1.2-.7 2.1-1.9 1.7-2-.2 0-.7.3-1.3.8-1.3 1.2-2.1 1.3-1 .2.4-.5.7-.9.6-1 0 0-1.2.5-2.5 1.3-1.2.7-2.1 1.4-2 1.5.7.4 3.3 0 4.5-.8zm-6.3 0 1.4-.8c.4 0 2-1.4 1.9-1.6-.1-.1 0-.3.2-.4.3 0 .4-.4.4-.7v-.6l-.8.9-1 .8c-.2 0-1 .6-1.8 1.2-.8.7-1.5 1.2-1.7 1.2l-.2.4c0 .6.2.5 1.6-.4zm8.1.1h-.5c-.2 0-.1.1.2.2.2 0 .4-.1.3-.2zm1.4 0c0-.2-.1-.4-.3-.4l-.2.3c0 .2 0 .3.2.3s.3-.1.3-.3zm.7-1c-.3-.3-.5 0-.3.4.2.3.3.3.3 0v-.5zm-5.3-1 .5-.5h-.6c-.3 0-.8.3-1.1.7l-.7.7.7-.2c.3 0 .9-.4 1.2-.7zm-3-1.4c.4-.5.2-.6-.8-.5-.5.1-.9.3-.9.5 0 .5 1.2.5 1.6 0zm-1.3-1.2c.2-.2 0-.3-.7-.3-1.1 0-1.8.3-1.8.6 0 .4 2.2 0 2.5-.3zm184.6 16.7c0-.2.2-.3.4-.3l.4.1-.4.3-.4-.1zm2.1 0c0-.2.7-.3 2.5-.2l2.5.3-2.4.1c-1.7 0-2.6 0-2.6-.2zm-123.3-.3c0-.1.6-.2 1.4-.2 1 0 1.2 0 .9.2-.8.3-2.3.3-2.3 0zm39.6 0c-1.8 0-3-.2-2.9-.3.4-.3 8.9 0 10.8.3 1.6.2-2.7.3-8 0zm80 .1h.5c0 .1-.1.2-.4.2-.3 0-.4-.1-.1-.2zm-19.3-.5c0-.2.3-.4.7-.5 1-.2 1 0 .1.5-.6.3-.8.3-.8 0zm-113.4-.1c-4.3-.2-3.3-.4 1.4-.3 2.5 0 3.7.2 3.5.3a2 2 0 0 1-1 .2l-3.9-.2zm6.5 0c-.7-.2-.8-.2-.3-.2.4 0 1.2 0 1.7.2 1 .2 1 .2.3.2l-1.7-.2zm64.8 0c0-.2.4-.5.9-.7.6-.3.7-.4.3-.4-.8 0 .9-.4 2.2-.5.7 0 1.3-.2 1.6-.5.3-.3.8-.6 1.1-.6.3 0 1-.3 1.4-.8 1-.9 2-1.1 1.2-.3-.9 1-.6 1.1 2 1.2 1.3 0 3 0 3.7.2l1.4.2H142l-2.8.1 1.3.4 1.3.3h-2c-1.2 0-1.9 0-1.5-.1.4 0 .8-.2.8-.4 0-.3-1.2-.4-2.6-.3-1.3.1-1.5.5-.3.7.6 0 .5 0-.5.1a8 8 0 0 0-2.1.4l-2.2.6-2 .5c-.2.1-.4 0-.4-.1zm54.3 0c0-.4.4-.6.8-.4.2.1.2.3 0 .4-.6.3-.8.3-.8 0zM49 35.5h.8l-.5.1c-.4 0-.5 0-.3-.1zm1.7 0c-.4-.3-.3-.3.6-.3.6 0 1 0 1 .2 0 .3-.9.3-1.6 0zm2.3 0h.8l-.5.1c-.4 0-.6 0-.3-.1zm-14.6-.3c0-.2 6-.1 6.8 0 .3.1-1.2.2-3.2.2s-3.6 0-3.6-.2zm134.9 0c0-.4 1-2.2 1.3-2.2.3 0 1.8-1.4 2-1.8.1-.6 1.8-1 2.5-.5.3.1.8.2 1 0 .4 0 .6 0 .6.2 0 .4-.8.7-1.1.3-.2-.1-.8-.3-1.3-.3-.8 0-1 .1-1.2.6 0 .2-.4.6-.6.8-.3.1-.6.5-.6.7 0 1-.3 1.3-1.2 1.5-.5.1-.9.3-.9.6 0 .2 0 .3-.2.3s-.3 0-.3-.2zm-158-.2h.6l-.3.1c-.4 0-.5 0-.3-.1zm3 0h3-3zm11.2-.1-.5-.2h.7c.4 0 .8 0 .9.2.2.3-.4.3-1.1 0zm154.4-.2c0-.4.8-1 1-.8.1.2-.4 1-.8 1a.2.2 0 0 1-.2-.2zm-19.9-.3c-1.4-.2-1-.5.6-.6 1.4 0 4.4.4 4.6.6.3.3-3.4.2-5.2 0zm25.6 0c-1-.2-.3-.4 2-.5 1.8 0 2.2 0 1.4.2-2 .4-2.9.5-3.4.4zm-65.6-.2h.7l-.3.1c-.4 0-.6 0-.4-.1zm20-.1c-.4-.2-.3-.3.1-.3s.6.2.6.3c0 .3-.3.3-.8 0zm15.2-.2v-.6l.6-1 1.3-1.9c.6-.6 1-1.3 1-1.6 0-.7.4-1.3.6-1.3.2 0 .3.4.3.8 0 .7-.3 1.2-1.4 2.3-1 1.1-1.3 1.6-1.2 2.2 0 .7-.4 1.6-.9 1.6l-.3-.5zm-56.7 0 .1-.3c.2 0 .3 0 .3.2v.3c-.2 0-.3-.1-.4-.3zm6 0h2.8c1.3 0 1 .1-1.2.1-2 0-2.4 0-1.6-.1zm85.7-.2.5-.2h.4c-.1.3-.9.4-.9.2zm-48-.3h.7l-.3.1c-.4 0-.5 0-.4-.1zm4.8 0h.5c.1.1 0 .2-.3.1-.3 0-.4 0-.2-.1zm3 0h2.2-2.2zm43-.4-.8-.2h.7l1.7-.4c.6-.2 2.5-.4 4.3-.5 7.4-.4 10.6-.7 11.8-1 1.5-.3 2.3-.2 2.3.4 0 .3-.5.4-2 .4l-7.4.3a44 44 0 0 0-9.3 1.1H197zm-175.3-.5c-.3-.2-.1-.2.7-.2.6 0 1.1 0 1.1.2 0 .3-1.3.3-1.8 0zm5.5 0h2.2c.7.1.1.2-1 .2-1.3 0-1.8 0-1.2-.1zm162.2 0 .3-.3c.2 0 .3.2.3.3 0 .2-.1.3-.3.3a.3.3 0 0 1-.3-.3zm5.2 0c-.3-.2-.1-.5.6-1 .5-.1 1.1-.6 1.5-1 .4-.3.8-.6 1-.5.3.2.3.7 0 .7-.2 0-1 .4-1.6 1-.7.6-1.4 1-1.5.9zm-65.3-.7h.5c.1.1 0 .2-.3.2s-.4-.1-.2-.2zM2.6 31.5c0-.2.2-.3.4-.3.3 0 .4.1.4.3 0 .1-.1.2-.4.2l-.4-.2zm88.5 0h2l-1 .1h-1zm7.4-.2h2.4H98.5zm15.5 0h.6l-.3.1c-.4 0-.5 0-.3-.1zm24.6-.2c.4-.3 2.4-.6 2.4-.2 0 .3-.7.6-1.8.6-.7 0-.9-.1-.6-.4zm48.2-.3c.2-.4.4-.7.6-.7.3 0 .2.2 0 .8-.5.8-1 .7-.6-.1zM30 30.8l.8-.2.8.1-.8.2h-.8zm14.6-.2a118.1 118.1 0 0 1 8.7-.5c0-.1.6-.2 1.5-.2h1.5l-1 .2-1 .2h1.2c1 0 1.4 0 1.6-.3.4-.5 1-.3.8.2-.1.3.2.4 1.5.4a234 234 0 0 1-14.8 0zm71.4-.3c-.2-.4-.2-.4.2-.4s.5 0 .4.4c-.2.4-.1.4-.6 0zm65.3 0v-.7c.2-.2.3-.2.4 0v.6c-.2.1-.4.1-.4 0zm-119-.5c0-.1 1.1-.2 2.5-.2 1.5 0 2.5 0 2.4.1-.7.2-4.7.3-4.8.1zm26.2 0s0-.2.2-.2.3.1.4.3c.1.1 0 .2-.2.2s-.4 0-.4-.2zm22.1.1h2.3l-1.1.1h-1.2zm10.3 0h.7c.2.1 0 .2-.3.2-.4 0-.5 0-.4-.1zm-61-.2h.9l-.5.1c-.4 0-.6 0-.3-.1zm9.9 0H72h-2.3zm5.5 0h1.3H75.2zm62.2 0h.8l-.5.1c-.4 0-.6 0-.3-.1zm4.2 0h1l-.5.1c-.5 0-.7 0-.5-.1zm59.5-.6c0-.3.2-.7.6-1 .7-.4 1.3-.5.6 0l-.5.8c0 .7-.7.9-.7.2zm-166.5 0h1.2c.3.1 0 .2-.6.2-.7 0-1 0-.6-.2zm-31.4-.8c0-.1.2-.3.6-.4.8-.2 1-.2 1 .2 0 .3-.3.4-.8.4s-.8 0-.8-.2zm116.1-.3c0-.1 1-.3 2.2-.3l5.7-.1 3.6.1c.1.2-.5.3-1.6.3l-5.8.1h-4zm-19.8-.3h.9c.2.2 0 .3-.7.3h-.9l.7-.3zm3.4 0c-.3-.1-.2-.2.4-.2.7 0 .9.1.3.3a1 1 0 0 1-.7 0zm3.7 0c-.7-.1-.5-.2 1-.2h1.7c-.3.3-1.8.4-2.7.2zm4.4 0h1.6l1 .3h-1.5c-1.1 0-1.5 0-1.1-.2zm3.8.1h1.2l-.6.1h-.6zm18.6 0c.5-.4 1-.4 1 0 0 0-.3.2-.7.2-.6 0-.7 0-.3-.3zm24.7 0c-.1-.2 0-.3.1-.3.2 0 .8-.4 1.5-1 1.1-.8 2.5-1.2 2-.6 0 .2-.2.2-.4.2-.2-.1-1 .3-1.7.9-.8.6-1.4.9-1.5.7zm24.2-.3c0-.3.2-.7.5-.9l.8-1c.3-.8 1-1 .7-.3l-.1.8c0 .2-.3.5-.7.6-.4.1-.7.4-.7.6 0 .2 0 .5-.2.6-.2 0-.3 0-.3-.4zm-88.7 0h2.2c.7.1.2.2-1 .2-1.3 0-1.8 0-1.2-.1zm97.2-.1c.4-.6 3-2.3 3.4-2.3.7 0 .1.6-1.2 1.2-.7.3-1.4.8-1.5 1-.1.3-.4.4-.6.4-.4 0-.4 0-.1-.3zM81 27.2l-.8-.2h.9c.4 0 .8 0 .8.2v.3l-1-.3zm75.4 0-.5-.2h.6c.3 0 .6 0 .7.2.2.3 0 .3-.8 0zm46.7-.2.7-.8c.8-.4 3.8-.9 4.3-.7 1 .3.6.7-.4.7-1.6 0-3.5.4-4 .8-.7.6-1 .6-.6 0zM51.1 27c-.3-.2.2-.3 1.6-.3 1.3 0 1.8.1 1.4.3-.7.3-2.6.3-3 0zm3.8 0c0-.2.2-.3.7-.3.4 0 .7.1.6.3l-.6.2-.7-.2zm11.4 0c-.9-.2-.7-.2 1-.3h2c-.3.3-2 .4-3 .3zm7 0c.1-.3.5-.3 1.1-.1l.9.3H74c-.9 0-1.1 0-.9-.3zm3.9 0a7 7 0 0 1 1.6 0l-.9.1h-.7zm-56.4-.2h.7l-.3.1c-.4 0-.5 0-.4-.1zm37.6 0h1.9-1.9zm4 0h1.8-1.8zm7.4 0h.6l-.3.1c-.3 0-.5 0-.3-.1zm-42.2-.3h1.3l-.7.1c-.7 0-1 0-.6-.1zm3.3 0h.5c.1.1 0 .2-.3.2s-.4-.1-.2-.2zm132.6 0c0-.2.1-.4.3-.5l.2.1c0 .2 0 .4-.2.5l-.3-.1zm-49.7-.9c2.2-.2 7.8-.2 8.8 0 .5.1-1.7.2-4.9.2-3.8 0-5 0-4-.2zM27.2 25h.5c.1.1 0 .2-.3.2s-.4 0-.2-.2zm48.7-.5c.2 0 .3-.3.3-.5s.1-.4.3-.4l.2.4c0 .2.2.4.4.5l-.6.1c-.5 0-.8 0-.6-.1zm-10.3-.3h.6c.2.1 0 .2-.3.2-.4 0-.5 0-.3-.2zm1.4 0h1l-.5.1H67zm31 0h2.5c.7 0 .1.1-1.3.1H98zM48.6 24h.5l-.3.1c-.3 0-.4 0-.2-.1zm2.7 0h.6l-.3.1c-.4 0-.5 0-.3-.1zm2.4 0h2.6H53.7zm5.6 0h2-2zm33.6 0c.3-.1.7-.1.8 0 .2 0 0 .1-.4 0h-.4zm-49.8-.3h.6l-.3.1c-.4 0-.5 0-.3-.1zm130.3 0c0-.2 0-.3.2-.3.1 0 .2 0 .2.2v.3l-.4-.3zm13.7-.2.7-1c.4-.5.6-.7.5-.4a3 3 0 0 0-.2.7l-.5.5-.5.2zm-12.8-.9h.5c.1.1 0 .2-.3.2s-.4 0-.2-.2zm1.9 0h.5c0 .1-.1.2-.4.2-.3 0-.3 0-.1-.2zm-114.9-.8h1.2c.3.1 0 .2-.6.2s-1-.1-.6-.2zm63.5 0-8.8-1.4c-2.9-.5-5.1-.8-7-.9-1.8 0-6.7-1-7-1.2 0-.1.5-.3 1.4-.4a243.3 243.3 0 0 1 38.7-.3l13.6 1 2.7.2h-3.9l-7.2-.5a383.1 383.1 0 0 0-41-.2c-.3.3 2.1.6 7.9 1.2.8 0 2 .4 2.7.7 1 .5 2.1.7 6 1l7.3.3c2.9-.1 3.6.3 1 .6a29 29 0 0 1-6.4-.2zm8.4 0c0-.2-.1-.4 0-.4.1-.2 2.2.2 2.1.4-.2.3-1.9.3-2 0zm-112.8-.2h.8l-.4.1c-.5 0-.6 0-.4-.1zm32 0h.9l-.5.1c-.5 0-.6 0-.3-.1zm3.6 0h2.1-2zm3.7 0h.7l-.3.1c-.4 0-.6 0-.4-.1zm22-.4c-.2-.1 0-.2.3-.2s.5 0 .4.2c0 .2-.3.3-.4.3l-.4-.3zm6.6.1h.5c.1.1 0 .2-.3.2s-.4-.1-.2-.2zm101.4-.6.4-.4c.4-.1.4 0 .1.3-.3.4-.5.5-.5.1zm-21.2-1c-.2-.2-.2-.3 0-.3l.6.2c.2.2.2.3.1.3l-.7-.3zm2 0h.8c.1.1 0 .2-.4.2-.3 0-.5 0-.3-.2zM22.5 19c-1-.3 0-.4 3.1-.4h2.3l-1.2.4c-.4.3-3.5.3-4.2 0zm142.1 0 1 .1-.5.1c-.6 0-.8 0-.5-.1zm-64.6-.7-3.7-.3-3-.2h4c2 0 4 0 4.2.2l.2.2c-.6.1-1 .2-1.7 0zm-42.3-.5-.2-.7c0-.5-1.2-1.3-2.2-1.3-.7 0-2-1.2-2-1.8 0-.7-.9-1.3-1.9-1.5-.5-.1-1.3-.5-1.9-1l-1-.7-1 .3c-2.1.5-3.2.6-3.7.2-1.5-1.3-4.2-2-4.7-1.3-.2.4-1.5.4-2.4 0-.4-.2-1.3-.3-2-.3s-1.3-.1-1.5-.3c-.4-.7-1.6-1.3-2.4-1.1-1 .2-1.8 0-2-.8-.2-.8-1.8-1.3-3-.9l-1 .3-.4-.6c-.6-.8-2.4-1-4.7-.5l-1.8.3-1.6-.5c-1.1-.4-1.4-.6-1-.7h1.1c1 .2 3.6.1 4-.2.3-.3 3.4.1 3.9.6.3.2 1 .3 1.7.3s1.4 0 1.5.2l.6.3c.3 0 .9.2 1.3.6.4.4 1 .7 1.4.7.9 0 2.1.5 2.6 1.1.2.3.8.5 1.5.5s1.6.1 2.1.3l1 .4.9-.4c1.1-.4 2.8-.3 3.8.5 1 .6 3.3 1.2 3.8.8a4 4 0 0 1 1.4-.4l1-.2 1.2 1c.6.5 1.4.9 1.7.9.8 0 1.6.6 2.4 2 .4.7.9 1.1 1.2 1.1 1 0 2.6.9 2.7 1.5.4 1.2.1 1.8-.4 1.3zm27.8 0h.7l-.4.1c-.3 0-.5 0-.3-.1zm5.6 0c.8-.2.7-.5-.5-1.3-.7-.4-1.1-1-1.2-1.5-.1-.4-.4-.7-.6-.7-.3 0-2.7-3.5-2.7-4 0-.2-.5-.9-2.7-3.5A29 29 0 0 1 82 5c-.4-.5-.9-1-1.2-1-1-.2-1-.6 0-.6h1l.5 1.2c.3.7 1.2 1.8 1.9 2.6a23 23 0 0 1 3.3 4.4h2.2l4.9.4 4.5.6 1.8.2-1.1.1c-.7.1-1.4.2-1.6.1-1.2-.3-9.1-1-9.6-1-.3.1-.5.4-.5.6 0 .4 2.6 3 4.2 4.2.4.4.8.8.8 1l-1.4.1c-.7 0-1 0-.7-.1zm-71.5-1.6h2.7-2.7zm148 0h.6l-.4.1c-.3 0-.5 0-.3-.1zM5.2 15.4c0-.3-.3-.8-.3-1.3L4.6 13c-.1-.3 0-.5.2-.5.5 0 1.3 1.8 1.3 2.8 0 .7-.4.9-.8.2zm146 0c-1.2-.2-1.1-.3.8-.3l3 .2c1.1.3-2 .3-3.9 0zM2.7 14.8c-.2-.6.1-2.5.5-2.4.5.2.7.9.6 1.8-.2 1-.8 1.3-1 .6zm3.5-.3c-.2-1.1 1-1.5 2.8-.7l1 .4-.4.4-.5.5-.3-.5c-.5-.6-1.4-.6-1.8 0-.3.8-.7.7-.8 0zm138.3.4-2.2-.2c-.6 0-1.2-.2-1.3-.3-.1-.2.1-.3.7-.2l4.2.4c1.8 0 3.1.3 3 .4-.1.3-3 .2-4.4 0zm-103-.7c-.6-.2-.4-.3.8-.3 1 0 1.5 0 1.4.3-.2.3-1 .3-2.1 0zm4.4 0a7 7 0 0 1 1.6 0l-.9.1H46zm-21.2-.2h1-1zm8.9 0c.2-.1.6 0 .8 0l-.5.1c-.4 0-.6 0-.3-.1zm3.8 0h.5l-.3.1c-.3 0-.4 0-.2-.1zm94.7-.1c-.1-.2 0-.3.4-.3.3 0 .4.1.4.3l-.4.3c-.2 0-.4-.2-.4-.3zm3.5 0a7 7 0 0 1 1.6 0c.4.1 0 .2-1 .2-.8 0-1.1 0-.6-.1zm-6.5-.4c-1.2-.2-3.2-.3-6.2-.2-3.2.1-4.5 0-4.5-.2 0-.4 8-.5 10.5 0 1.1.2 2.2.4 2.4.6.3.2.3.2-2.2-.2zm-15.5 0h2.1-2.1zm-12.1-.4c-.5-.2-.5-.2.5-.2.9 0 1.1 0 .8.2-.4.3-.4.3-1.3 0zm3.2 0c-.9-.3 2-.3 5 0l2.3.2h-3.4c-1.8 0-3.6 0-4-.2zM55.2 12h.6l-.4.1c-.3 0-.4 0-.2-.1zm109.1-.1c-.3-.2-.2-.3.3-.3.4 0 .8.1.8.3 0 .3-.6.3-1 0zm-144.5-.2h.5c0 .1 0 .2-.3.2-.4 0-.4-.1-.2-.2zm196.2 0c-1.2-.2-2.2-.3-2.2-.5 0-.3.2-.3 3.4 0 1.3.1 2.4.3 2.4.4 0 .2-.3.3-.7.2-.4 0-1.7 0-3-.2zm-66.7-.6c-.5-.3.4-.5 1.2-.3l.7.2-.7.2c-.8.2-.8.2-1.2 0zm2.5 0h1.2c.3.1 0 .2-.6.2-.7 0-1 0-.6-.1zm55 0-2-.4c-.2-.3 7.5.1 7.8.4.3.3-3.1.3-5.8 0zm-59.4-.3c-.3-.2-.3-.2.2-.2.3 0 .6 0 .6.2 0 .3-.3.3-.8 0zm54.7-.2c0-.4.4-.4 1.4 0l.6.2h-1l-1-.2zm-67.3-.6c-7-.6-10-.8-12.5-.8-3.3 0-5.9-.2-5.9-.6a151 151 0 0 0 7.2.2c10 .4 14.8.8 14.8 1.1 0 .2-.3.4-.6.3-.3 0-1.7 0-3-.2zm57.8 0c-.5-.3 1-.3 2.3 0l.8.2h-1.4c-.7 0-1.5 0-1.7-.2zM50 9.8c0-.1.7-.2 1.7-.2s1.9 0 2 .2c0 .1-.6.2-1.7.2-1 0-2 0-2-.2zm5 0c.6-.3 1-.3 1.4 0 .3.1.1.2-1 .2h-1.5zm2.4 0h.7c.2.1 0 .2-.3.2-.4 0-.5 0-.4-.2zm3.2 0h.5c.1.1 0 .2-.3.2s-.4 0-.2-.2zm125.8 0c-.7-.1-1.5-.3-1.7-.5-.3-.3-.1-.4.9-.2l2.5.3c.8.1 1.1.2.9.4-.4.2-.5.2-2.6 0zM19 9.3h2.2c.7 0 .1.1-1 .1-1.3 0-1.8 0-1.2-.1zm4.5 0h.5c0 .1 0 .2-.3.2-.4 0-.4-.1-.2-.2zm88.6-.3c1.8-.3 3.3-.3 1.7 0l-2.1.2c-.8 0-.7 0 .4-.2zm67.9-.2h.8l-.5.1c-.4 0-.6 0-.3-.1zm-4.4-.4c-.2-.2 3.5 0 3.8.2l-1.8.1c-1 0-2-.1-2-.3zM47.8 8.2 45.6 8h2.9c1.9 0 2.8 0 2.7.2l-.7.2-2.7-.2zM43 8h.5c0 .1 0 .2-.4.1-.3 0-.3 0-.1-.1zM8.9 6.4 8 5.7 6.2 6c-1.3 0-2 0-2.4-.3l-.6-.4-.5.6-.6.5-.2-.5c-.6-1-.4-1.2 1.3-1a67.5 67.5 0 0 0 11.4.6c0 .3-1.9 1-2.8 1-.5 0-1 .1-1.2.3-.5.6-.8.5-1.7-.3zm33.6.3h1.9-1.9zm13.7-3.3c-1-.1-1.2-.2-.7-.3.5-.2 2.7.2 2.7.4a744.9 744.9 0 0 0-2-.1zm2.4 0h2.1l1.9.2h-2.1c-1.3 0-2 0-1.9-.2zm19 0c-.4-.2-.3-.2.1-.2.3 0 .5.1.5.3-.2.2-.2.2-.7 0zm-14-.3a39 39 0 0 1 5-.2c2.5 0 4.3 0 4 .1-1.1.2-9.4.3-9 .1zm9.9.1h.5c.1.1 0 .2-.3.2s-.4 0-.2-.2zm2 0h.8c.2.1 0 .2-.5.2-.4 0-.6-.1-.3-.2zM45 1.5A77.7 77.7 0 0 0 34.7.2c-1.4-.8 12.1.9 15.4 1.9l.8.2H50c-.5 0-2.8-.3-5-.8zm-33.6-.2c-.5-.1.6-.2 2.5-.2 3.4 0 3.4.1.1.2h-2.6zM3.2 1C3.2 1 4.8.9 6.7.9c2 0 3.4 0 3.3.2-.5.3-6.8.2-6.8 0zM19 1h1.7l-.9.1c-.9 0-1.3 0-.8-.1zm4-.3h.5c0 .2 0 .2-.4.2-.3 0-.3 0-.1-.2zm4.4-.3a20 20 0 0 1 5.5-.3 20.6 20.6 0 0 1-5.5.3z"/>
</svg>
