<?xml version="1.0" encoding="utf-8"?>
<svg xmlns="http://www.w3.org/2000/svg" xmlns:svg="http://www.w3.org/2000/svg" version="1.1" viewBox="0 0 444 218">
	<title>All the village residents gather in front of the closed-up shop and chatter to each other while holding their shopping baskets.</title>
	<path d="m150.9 217-2.2-1.1c-.4-.3-1-.6-1.3-.6-.7 0-1.4-.8-1.2-1.5v-.7l-3.6.1a32.8 32.8 0 0 1-13.3-1.6c-.7 0-2.2-.8-3-1.6l-2-1.9c-1-.8-1.5-1.5-1.5-1.8 0-.3-.3-.8-.5-1.2a48 48 0 0 0-3.9-8.2 28 28 0 0 0-8-.1c-1.5.2-1.8.1-2.2-.3-.6-.5-.5-.7.7-3 .8-1.7.8-2.1 0-3.2-.6-.8-.9-.9-2-.9-.6 0-1.9.3-2.7.5-.8.3-2 .6-3 .6-.8 0-2 .2-2.9.5-1.2.5-1.6.8-2 1.6-.6 1.1-1.4 1.5-2.6 1.2-2.5-.6-3.6-.7-8-.6-4.7 0-5 0-5.4-.5-.6-.8-.5-1.2.8-2.3l1.8-2.1c.6-.9.7-1.1.4-1.5-.2-.3-.7-.7-1.1-.9-2.3-.9-5.7-3.3-8.1-5.8-1.9-1.8-2.1-2.2-2.6-3.8l-.6-2.4c0-.3-.6-1.1-1.4-2-1.1-1.2-1.5-1.8-1.6-2.7-.2-1.3-.8-3.2-1.3-4-.2-.3-.7-1.7-1-3.2l-1-4c-.6-1.7-.7-4-.3-4.5.8-.7 1.8-.4 3.3 1.1 2.4 2.3 4.7 3.2 6.5 2.4 1-.5 1.2-.8 2.6-3.7l2.5-4.4a105.4 105.4 0 0 0 7.4-11c.9 0 2.8-2.4 2.8-3.4 0-.7 2.3-3.8 4.1-5.6 2.5-2.5 3.7-4.1 5.4-7.6a15 15 0 0 0 2.2-8c0-2.3-1-5.2-1.7-5.3-.3 0-1.1.4-1.9 1-.7.6-1.5 1-1.7 1-.2 0-.8.3-1.3.7-.8.5-1.3 1.2-2 2.7-2 4.2-3.3 5.6-4.8 5.3-1-.3-1.3-1.1-.8-2.5l1-2 .5-1c0-.3-2.8 1.6-4.4 3-1 .8-2.7 1.2-3.5.7-1-.5-.8-1.6 1-3.5.9-.9 1.9-2.2 2.2-3 .6-1.2.6-1.4.4-3.4-.5-4-.5-6.8.1-8 .3-.6.7-1.3 1-1.5l.5-.8c0-.4 4-4 5-4.5 1.3-.6 3.6-1 5.3-.9 1.3.1 1.9.3 3 1.1l1.7 1 1.6 1.2c.7.7 2 1.7 2.9 2.2 2.3 1.5 3.4 2.8 4.7 5.7a22.8 22.8 0 0 1 1.8 4.6c1 2.7 1.8 7 1.5 8.1-.4 2.1-.9 8-.8 11.6 0 3.2.1 4.2.8 7 .5 1.8.8 3.7.8 4.2 0 .4.3 1.1.5 1.4l.5.7.7-.6 1.5-2.1c.6-1.1 1.3-2 2.4-2.7 1-.7 2-1.7 2.3-2.2.4-.6 1.1-1.3 1.7-1.6.5-.3 1.3-1 1.7-1.5l1.6-1.8c.9-.7 1-1 1-2.6.2-1.3 0-2.3-.3-3.4-.6-2.5-.9-4-1.1-7.7a28 28 0 0 0-.7-4.8 22 22 0 0 1-.7-5.8c.2-4.6.6-11 .8-11.7.4-1.4 3.5-4.7 5-5.2a73 73 0 0 0 1.5-.7c4-1.7 7.5-.7 9 2.5.7 1.2 1.5 5.3 1.7 8.3.3 3.2 1.2 4.3 5.2 6.1 1 .5 2 .8 2.4.8.9 0 1.5.9 1.4 2 0 1-.2 1.1-1.4 1.8a6 6 0 0 1-2 .7c-.5 0-.6.1-.4 1.2.4 2.7-2.4 3.5-4.8 1.3-1-1-5.2-3-6.1-3-1 0-1.1.5-1.1 2.5 0 1.3.3 2 1.5 3.9.3.5.6 1.2.6 1.5l.2 1c.2.1.6 1 1 2 .3 1 .9 2.2 1.2 2.7.4.4 1 1.5 1.3 2.3.3.8.9 1.7 1.2 2.1.3.4.9 1.5 1.3 2.5s1.2 2.4 1.6 3c1.7 2.2 2.1 3.6 2.5 7.6a13.8 13.8 0 0 1-.3 5.9c0 1.3-1.3 4.4-2.2 5.3-1 1-1.3 2.1-.5 2.1.7 0 2.4-1.1 3.8-2.6.8-.8 1.7-2.2 2.5-3.7 1-2 1.3-2.6 2.1-3a152.1 152.1 0 0 1 6.5-5.3c3-2.5 3.4-3 4.3-4.7 1-1.8 1-2.2 1.3-5.7a40.5 40.5 0 0 1 1.2-8.2 33.3 33.3 0 0 1 2-7s-.5-.7-1.1-1.2c-1.1-1-1.6-2.3-1.2-3.1.3-.5 3-2.2 4-2.4 1-.3 1-.8.1-2.1a5 5 0 0 1-.8-1.5l-.6-1.2c-2.3-2.9-2.6-6-1-8l.8-1.1c.8-1.6 4.8-3.4 7.7-3.4h1.8l.9-1.2c1.4-1.8 8.2-8.4 8.7-8.4a7 7 0 0 0 1.3-.5c2-.8 2.9-1 4.5-1 1.3 0 1.7 0 3.2 1 2.5 1.8 3.3 3.2 4.2 7.7.3 1.4 0 5-.4 7-.7 2.7-2.4 6.1-4.1 8-1.3 1.5-1.9 2.4-1.9 2.9 0 .7 5.2 4.9 6.4 5.2.4 0 1.3.6 2.2 1.2 1.4 1 1.5 1.2 1.4 2 0 .6-.3.9-1 1.2-.8.4-.9.4-3.8-.6-1.8-.6-3.4-1-4-1l-.8.1 1 .6c2.6 1.5 3.8 3.5 2.7 4.6-.4.5-.7.5-1.6.4-2-.2-2.9-.5-3.8-1-3.7-2.4-5.6-3-7.7-2.7l-1 .2 1 .5c1.6.7 1.5 1.4-.2 2.9-.8.6-1.4 1.3-1.4 1.5 0 .5.9 1.8 2.2 3.6 1 1.4 1.2 2.2 1.5 4.7.1 1.8-.4 2.7-1.4 2.5-.5 0-.5-.2-.6-1.6 0-2-.2-2.6-2-4.5a8.7 8.7 0 0 1-2.5-5.8c-.2-1.4-.3-2-.7-2.1-.6-.4-1.2.4-1.2 1.6 0 .5-.3 1.3-.5 2-.7 1.2-.7 2-.1 3.1.2.5.4 1.4.4 2.2 0 .8.2 2.6.5 4.1a206.9 206.9 0 0 1 1.4 6.6l.4 2.2.2 1c.5.4 1 11.4.6 12.7l-.5 2.8c-.4 2-.8 3.3-1.1 3.3-.2 0-.3.2-.3.5 0 .6-.8 2.3-1.5 2.9-.3.3-.3.7-.2 2l.4 2c.3.5 0 3.5-.5 4.6-.4 1-.3 2.4.1 2.8.5.4 1.6 3.2 2 5l.5 1.8.6 1.7.5 1.8.3 1.4c0 .4.2 1.1.5 1.6.6 1 .7 2.3.2 4.5-.4 2.2-1 2.7-4.2 3.8-1.5.5-3.1 1.2-3.6 1.5-1 .6-4.9 1.8-5.9 1.8-.4 0-1.1.5-1.9 1.1a7 7 0 0 0-2 5.3c0 1.8.7 2.2 2.4 1.4 1.4-.8 2.5-.9 9.6-1 5.6-.2 7.2-.2 8.8.2l4.3.6c1.3 0 3 .3 3.6.6 1.2.5 2 1.1 1.6 1.5-.4.4-2.6.6-4.4.4-2.3-.2-7.2.7-8.8 1.6-1.6.8-2.6 1-5.7 1h-3.2l-.6.8c-.4.8-.8 1-2 1.2l-1.3.3v1.3c-.1.7-.3 1.4-.5 1.6-.2.3-1.1.3-3.6.3-4 0-4.8 0-7.7 1.4l-2.7 1.3c-.2.2-1.3.3-2.2.4-1.6.1-2 0-3.2-.5zm5.2-3c.5-.3.8-.6.7-.7-.2 0-.6 0-1-.2-1-.2-2.3-1.4-2.3-2 0-.2.2-.7.5-1.1.3-.4.5-1 .5-1.3 0-1.1 1.2-2 2.5-2 1.2 0 1.5-.7 1.5-3.2 0-4.7.7-8 1.8-9.2.7-.7 1.2-1.7 2-4.1 1-3.2.9-5.4-.2-2.4-.3.7-1 2.5-1.8 4a31.8 31.8 0 0 0-2.9 9.2c-.6 3.6-1 4.5-2.4 4.3-.6 0-1.5-1.3-1.5-2.1l-.4-1.6c-.5-1.3-.8-4.2-.5-5.1.4-1 1.3-1 1.6-.1.2.3.3 1.7.4 3 .3 2.9.6 3.1 1.2.7a30.4 30.4 0 0 1 2.7-8.3c.8-1.3 2-4.3 2.5-6.4.2-1 1.1-2 1.6-1.9.2 0 .4.4.5.7 0 .4.4.7.7.8.3 0 .5.5.7 1.4.3 2.3 0 3.2-2.3 8.2-1.4 2.7-1.5 3.6-.9 4.3l.8 1c.3.5.3.4.7-.2.2-.3.6-1.6.8-2.9l1.2-5c.2-.4.3-1.3.4-2.1.2-1.4.7-3.3 1.6-6a7 7 0 0 0 .4-1.8c0-.5.1-1 .3-1.1.4-.4 1.3-3.3 1.3-4.2 0-.5.1-1 .3-1 .4-.3.3-1.3-.1-1.3-.2 0-.6-.2-.9-.5-.4-.5-.5-1-.4-2.6 0-1.4 0-2.4-.5-3.6-.5-1.5-.5-1.8-.2-2.4.3-.7.5-.8 1.5-.8l1.9-.2c1-.1 1.7 1.1 1.8 3.7.1 2.3.3 2.6 1.2 1.9l.5-.9c0-.3.4-.7.9-.9.7-.3.8-.5 1-1.4.4-3.5-1-9-2.5-10.8-.5-.5-.9-.8-1-.7l.4 1.7c1 2.8 1.1 5.6.2 5.6-.6 0-1-.8-1-2.2 0-1.2-1.1-4-2-5-.3-.3-.6-.9-.6-1.2 0-.4-.3-.7-.5-.8l-1.6-.7-7-3.5c-.6-.3-1.8-.8-2.6-1-1-.2-1.4-.4-1.6-.9-.2-.3-.5-.5-.7-.5-.2 0-1.2.9-2.2 2-2 2.3-4.1 4-5.8 4.8-.7.3-1.4.8-1.7 1.1-.2.3-.6.5-.7.5-.2 0-.6.3-.8.6l-.9.5c-.2 0-.7.2-1 .5l-1 .5c-.5 0-1.6 1.2-2.5 2.8-.7 1-.8 1.5-.7 2.2.2.9 0 1-2.9 3.9-2 2-3.5 3.7-4.5 5.2-.8 1.3-1.6 2.4-1.8 2.5l-.7 1.2c-.2.6-.7 1.2-1 1.5-1 .5-2.5 2.4-2.5 3 0 .2.1.2.2 0 .2-.5 1.4-.4 1.6.3.4 1 1 4.1.8 4.6-.1.2-.4.4-.7.4-.6 0-1.6-1.8-1.6-2.9 0-.3-.1-.9-.3-1.3-.2-.5-.3-.6-.6-.3-.6.4-1.2 0-1.2-.6s1.4-3 3.2-5.5a96 96 0 0 0 3.4-4.7c2.1-2.6 2.5-3.1 3-4.2a45 45 0 0 1 6.2-8l2.2-2.5c0-.1-.4-.1-.8 0-.4 0-1.2 0-1.7-.3l-2-.4c-1.3 0-2.7-.8-3.2-1.8-.2-.4-.8-1-1.4-1.4-1.2-.8-1.5-1.8-.7-2.5.5-.4.6-.4 1.2 0a10 10 0 0 0 3.8 1.2c1.4 0 1.8 1.5.6 1.8-1.1.3-.1.7 1.9.9 1.5.1 2 0 2.8-.4a11 11 0 0 0 3.9-4.3c.8-1.8 1-5.2.6-7.5-.2-1-.2-1.7 0-2.3.3-.9-.6-4.4-1.5-5.6l-1.1-1.8c-.3-.6-1-1.8-1.7-2.6-.7-.9-1.3-2-1.4-2.4a5 5 0 0 0-.8-1.6l-1-1.8c0-.5-.3-1.1-.5-1.4a19 19 0 0 1-.5-2.4c-.3-1.4-.7-2.4-1.8-4a16.7 16.7 0 0 1-2.2-4.8c-.3-.6-.5-1.6-.5-2.2 0-.8-.1-1-.5-1.3-1-.5-3-2.4-3.3-3.2-.5-1-.6-2.5-.2-3 .5-.4 1 0 2.3 2 1.5 2.3 1.8 2.5 3.4 2.5 1.1 0 1.4-.1 2-.9.4-.4.8-.8 1-.8.3 0 .3-.2 0-.7a2 2 0 0 1-.3-1.5c.2-1 2.1-4 2.7-4.3.3-.1.3-.4.2-1l-.3-3c-.1-2-.2-2.2-1-3.2-1-1-1-1-2.8-1-1 0-2 .2-2.2.3-.2.2-.5.4-.8.4-.3 0-1.2.3-1.9.7-1.6 1-2.2 2-2.4 4.6 0 1-.3 3.2-.6 4.7-.5 3.3-.6 9 0 10 .4 1 1.4 9.4 1.7 15.7l.2 3.3-.9 1.7c-.5.9-1.3 2-1.8 2.5-2.1 1.8-2.3 2.3-2.3 5.7 0 3 0 3.1.9 4.5.5.8.8 1.6.7 1.7-.2.5-1.4.8-2 .5-.7-.5-1.8-4.2-1.8-6 0-1-.2-1.8-.3-1.9-.8-.5-4.8 3.2-5.9 5.5a13 13 0 0 1-2 2.5 80.2 80.2 0 0 0-6.2 8c-.7 1.2-2.4 2.7-3 2.7-.6 0-.6-.8.1-1.8.4-.6 1-1.4 1.1-2l.8-1.4a30 30 0 0 0 4-6.5c.9-2.3 1-3.8.3-5-.5-1.1-.8-2.3-1.1-4.2-.7-4.4-.9-5-1.3-4.7a30 30 0 0 0-2.4 4.9l-.6 1c-.4.5-.6.6-1 .3-.8-.4-.6-1.2.4-3.1l1.8-4 1-2.6c1.2-1.5 2.6-7.3 2.7-11.2 0-2.2 0-3-.6-4.6l-1-2.5a16 16 0 0 1-1.2-2.8c-.7-2.1-2.4-5.1-3-5.1a14 14 0 0 1-2.4-1.6c-1.2-.9-2.6-1.7-3.1-1.9-.6-.2-1.5-.7-2-1.1-.6-.6-1-.8-2.3-1-2.8-.2-5.2.9-5.9 2.6a5 5 0 0 1-1.5 1.6c-.6.5-1.2 1-1.3 1.3-.2.8 1.3 3.3 2.7 4.4.7.6 1.4 1.4 1.6 2 .2.4.5.9.8 1 .2 0 .3.5.3 1 0 .6.1.7.7.5a13 13 0 0 0 4.8-3.1 7.6 7.6 0 0 0 1.2-3.5c0-1 .1-1.2 1-.9.7.3 1 1.4.6 2.7-.2 1-.2 1.2.3 2 1 1.5 1.9 4 2.3 6.7.2 1.5-.2 3.8-1.4 6.7a10 10 0 0 0-.5 1.5c0 .1-.4 1-1 1.8a9 9 0 0 0-1 2c0 .2-.3.5-.6.8-.3.3-.8.8-1 1.2l-.7 1.1-.9 1.2c-.3.5-1 1.2-1.5 1.6-2.1 1.5-3.8 6.4-4 11.1 0 2-.2 2.8-.4 3-.8.5-1.3-.8-1.3-2.9 0-1-.1-1.4-.4-1.4-.6 0-2.2 2-3.3 4.1-.3.6-1 1.5-1.5 2a14 14 0 0 0-1.6 2.4 48 48 0 0 1-1.9 3c-1.3 2.1-1.6 2.7-1.6 3.3 0 .3-.3.9-.7 1.4-.9 1.2-1.2 2-2 4.9-.5 2.1-1.2 3.5-1.9 3.5-.5 0-.7-1-.4-2.7.3-2.3.1-2.5-1.7-2.5-1 0-1.8-.3-3.2-1-1-.5-1.9-.9-2-.8-.3.3 2.5 10.5 3.4 12 0 .2.6.6 1 .8 1.2.6 1.5 1.3 1.9 3.4.5 3 1.8 4.9 3.6 4.9.6 0 1 .3 1.7 1.5.5 1 1.7 1.9 4.3 3.2 1.8.9 2 1 4.4 1a9 9 0 0 1 3.2.3c.5.3 1 .3 3.2 0 2.7-.5 4-.5 4.5.2.3.3.4.3 1-.4a3 3 0 0 1 2-1c1.4-.1 1.6-.7.7-1.5-.3-.3-.9-1.2-1.3-2.1a23 23 0 0 0-1.9-3l-1-1.6-1-2.5a23 23 0 0 1-1-3.3c-.3-1.4-2.2-7.4-2.9-8.7a8 8 0 0 0-1-1.7c-1-1-1-4-.2-4l1-.5c.6-.6.6-.6 4.3-.3 3.5.4 4.2.6 4.6 1.2.2.4.2.5-.2.8-.4.3-1.2.4-3.3.3l-3.8-.3-1-.2.3.8 1 2c.7 1.1 1.6 3.7 3.2 9.6.9 3.2 2.6 7.2 3.3 7.4l.9 1.1a9.6 9.6 0 0 0 3.6 3.6c1.3.9 1.4 1 1.2 1.5-.4.6-.6.7-1.4.3-.6-.4-.6 0 0 1a8.9 8.9 0 0 0 6 3.7c1 .3 4 0 4.2-.3.1 0-.3-1-1-1.8-3.4-4.9-4.1-7-2.6-7.9.5-.3 2.5.6 3.6 1.6 1 .9 4.6 2 6 2 1 0 2.6.6 2.8 1 .2.6-.5 1.3-1.3 1.2a70.8 70.8 0 0 1-7-.6c0 .5 3.7 6 5.2 7.8 2.7 3 3 4.4 1.2 4-1.1-.2-1.2-.2.1 2.8.5 1 1.1 2.3 1.5 2.7.3.4.8 1.2 1 1.8 0 .5.5 1.5 1 2a7 7 0 0 1 1 1.8c0 .4.2.7.3.7l1.2 1c.6.5 1.2.9 1.5.9l1.8.5a58.4 58.4 0 0 0 18 .4l.9-.9a6 6 0 0 0-.8-2c-.6-1.2-1-2.4-1-3.4-.3-3 .8-3.1 1.7-.3.3 1 1 2.8 1.7 4.1 1.7 3.5 1.6 4.1-.7 4.6-1.4.3-1.2 1 .4 2.4 1.8 1.7 2.8 1.9 4.4.9zm-22.3-9c-.2-.2-1.2-1.9-2-3.7-2.1-4.1-3.6-6.4-6-9-2-2-2.2-2.7-1.2-3 1.2-.4 4.4 2 6 4.6 2 3.4 4.6 9.3 4.6 10.5 0 .6-1 1-1.4.6zm9.6-5c-2-3-2.7-5-1.7-5.5.6-.2 1.7 1 3 3.2 1.3 2.4 1.4 3.4.3 3.6-.6 0-.9-.2-1.6-1.4zm-4.6-2.4a4 4 0 0 1-1-1.4c-.2-.4-.7-1.5-1.2-2.2-.8-1.3-1-1.7-1-3.8-.2-2.3-.2-2.4.3-2.4.6 0 1.4 1 1.4 1.6a45.6 45.6 0 0 1 2.8 7c.2 1.5-.3 2-1.3 1.2zm-6-5.6c-.6-1.5-1.2-5.9-.9-7 .4-1.4 1-1.7 1.7-.9.5.6.5 1.1.5 3.6 0 1.6.2 3.3.3 3.8.3.6.2 1 0 1.2-.6.7-1 .5-1.6-.7zm20.8-1.7c-.3-.3-.2-.8.7-2.6l.7-1.9.8-1.8c.4-.9.9-2 1-2.7 1.2-4.2 1.3-4.5 1.4-9 0-3.3 0-5-.3-5.7-.6-2 .8-2 1.7-.2 1 2 1.1 4.4.6 8.2a35.9 35.9 0 0 1-3.6 12.2c-.7 2.2-2.3 4.1-3 3.5zm-24.5-3.9-.4-3c-.3-4 .6-6.8 1.9-6.3.4.1.4.4.2 1.8l-.2 4.7c0 2.9 0 3-.6 3.1a1 1 0 0 1-.9-.3zm19.2-2.3c-.1-.2-.2-3.2-.2-6.7a57 57 0 0 0-.9-11.5c-.3-.6.2-1.4.9-1.4.9 0 1.3 1.1 1.6 4.4a99 99 0 0 1 0 14.8c-.2.7-1 1-1.4.4zm-37.4-9.8c-.3 0-.8-.3-1.3-.5-2.7-1-4.8-4-4.8-6.5l.1-1.5c.3-.3 1.2.3 1.2.7 0 .8 1.3 3 2.4 4.1a7 7 0 0 0 3.8 2.1c1 .2 1.7 1.3 1.1 1.7-.4.3-2 .2-2.5 0zm5.8-9.9c-.4-.5 0-1.2.8-1.2.6 0 1.3.7 1.1 1.2-.2.5-1.5.5-2 0zm4.2-.5c0-.2.2-.4.4-.4s.4.2.4.4-.2.4-.4.4a.4.4 0 0 1-.4-.4zm4.4-.1c0-.1 0-.5.2-.9s.6-.6 1.2-.7c1 0 1.4.5.7 1.3-.5.5-1.8.7-2 .3zm4.7-6c-.2-.6.4-1.2 1.1-1.2.6 0 1.1.8.8 1.3-.3.5-1.7.3-1.9-.1zm13.6 0c-.6-.7-.1-1.5.8-1.4 1 0 2 .8 1.8 1.4-.2.6-2 .5-2.6 0zM91 103.4c-1.3-1-1-2.6.7-2.9 1.5-.3 2.2.9 1.6 2.5-.5 1-1.3 1.2-2.3.4zm41.8-7c-.7-.8-.6-1.3.2-2.3.8-1 1-1 1.8-.2s.9 1.8.1 2.5c-.7.7-1.4.7-2 0zM163 211.6c1-.2 1.9-.5 1.9-.6-.2-.4-1.5-.7-1.7-.4-.2.3-2 1-2.5 1-.6 0-1.9.7-1.7 1l1.1-.3a25 25 0 0 1 3-.7zm-46.5-18.4c0-.8-1.8-2.8-3-3.2-1.4-.6-1.5-.5-1.5 1.4v1.7h1c1.7.3 3.5.3 3.5.1zm56.3-.7c.1-.2.3-.8.3-1.4v-1.2l-1.7 1c-2.2 1.2-2.2 1.1-1.6 1.6.6.4 2.7.5 3 0zm2.7-2.3c.1 0 .3-.3.3-.6v-.7c-.3 0-.8 1.5-.8 2.3 0 .6 0 .6.2-.1 0-.5.2-.9.3-.9zm-81 .3c1.2-.6 1.4-1.5.4-2.3-1-.9-2.6-1.2-5.9-1.2H86l-.5 1c-.7 1.4-.7 2.1 0 2.4.2.2 1.7.3 3.4.3 1.6 0 3 0 3.1.2.3.3 1.8 0 2.5-.4zm74.4-.2c.4-.2 1-.6 1-.9.3-.5.3-.5-.6-.4-.8.2-1 .1-1-.3 0-.5 1.4-2 2-2 .3 0 1-1.5.9-2-.1-.3-.3-.2-1.2.2a6 6 0 0 0-1.4 1c-.8.8-1.4 4.8-.7 4.8.1 0 .6-.1 1-.4zm4.8-2.8c.1-.3.2-.6.1-.7-.2-.2-1 .5-1 1s.5.4.9-.3zm3.4-1.5c0-.4 0-.6-.3-.5-.2 0-.4.4-.4.7-.1.4 0 .6.2.5.2 0 .4-.4.5-.7zm-75.3 0c.1-.2 0-.3-.2-.3s-.4.1-.4.3c0 .1 0 .2.2.2s.3 0 .4-.2zm1.7-.2h-1l.5.1c.5 0 .7 0 .5-.1zm71-2c.5-.6.6-1.3.3-1.3-.4 0-1.4 1.1-1.4 1.5 0 .6.7.5 1.2-.2zm3-1c.2 0 .6-.6.8-1.2.4-1 .4-1 1-.6s.7.4.8-.4l.2-1.2c0-.7-1.4-4.6-1.8-5.2-.6-.6-3.5-2-3.6-1.7-.3.4-1.2 3-1.4 3.9-.2 1.2.3 1.3 2.2.5 2.2-1 3.7-.9 3.3.3 0 .2-.5.5-1 .7a37.9 37.9 0 0 0-3.3 1.5c-.5 0-1.3.8-1.3 1.4 0 .3.1.4.5.3 1.6-.6 2.8-1 3.1-.8.6.2.4.9-.4 1.4-.7.4-.8.5-.4 1 .5.4.9.5 1.4.2zm1.4-28.6c1.6-.8 3-5.3 2.6-8.9a86.4 86.4 0 0 0-4.3-21.5c-.8-2.6-.9-3.4-.8-5 0-1.2.2-2.4.5-3 .6-1 .6-3 0-3.4-.3-.3-.5-.2-1.1.6-.5.6-1.3 1.1-2.1 1.4-1.2.4-1.5.7-2.4 2a13.3 13.3 0 0 0-1.9 7 6 6 0 0 1-.3 2.2c-.3.4-.6 2-.7 3.5-.2 1.5-.5 3.5-.8 4.4-.3 1-.5 2.1-.5 2.7 0 1.3-1.2 2.6-2.2 2.3-.6-.2-1.5.3-2.7 1.6-.6.7-1 .9-1.6.9-1 0-1.5.4-1.5 1s.9 1.1 2.3 1.3c1.6.2 2.7.6 2.8 1 .2.5-1.1 2.3-1.7 2.3-1 0-.2.7 1.2 1.2l2.8 1 2.8.9a8 8 0 0 1 3.3 1.7 19 19 0 0 1 2.2 2.3c.6.7.9.8 2.1.8.8 0 1.7-.2 2-.3zm-1.3-44.8a2 2 0 0 1 1-1c.8-.4.8-.7-.1-1l-1.2-.7c-.3-.3-.7-.4-1-.3l-3 .7c-3 .7-3.3.9-2.5 1.6.4.4 1 .6 2.6.7 1.6.1 3.4.4 4 .6l.2-.6zm13.3.4c0-.4-.8-.7-1-.4-.1 0 0 .3.2.4.5.3.8.3.8 0zm8.6-.4c-.5-.3-1.7-1.3-2.7-2.3-1-1-2-1.8-2.2-1.8-.5 0-1.6 1.4-1.6 1.9 0 .6.8 1 1.8 1a5 5 0 0 1 1.9.5l1.5.5c.3 0 .6.2.7.3.1.2.5.3.8.3.5 0 .5 0-.2-.4zm-109.8-1.8c.2-.7-.1-1.1-2-2.6-1.4-1.2-1.5-1.2-1.6-.7 0 .4.3 1.4.8 2.2l.8 2c0 .4 0 .4.9 0 .5-.2 1-.6 1-.9zm92 .8c.5-.7.5-1.3 0-1.3s-1.1.8-1 1.4c.2.6.5.6 1-.1zm7-2.7c1.3-.4 1.6-.6 1.9-1.4.1-.3.6-.8 1.2-1 .5-.3 1.5-1.3 2.5-2.5a24 24 0 0 1 1.8-2.2c.5-.2 1.6-2 1.6-2.6 0-.4.4-1.1.8-1.7 1-1.1 1.3-2.3 1.6-5 .3-2.2.1-3-.9-6.3-.7-2-.8-2.3-2-3.1-1.1-.9-1.2-.9-3.3-.7-1.2.1-2.5.4-3 .7-1 .4-3.9 3.2-4.3 4-.1.3-.7.7-1.2 1-.5.3-1 1-1.3 1.4-.4.7-.4.9.3 2.5.6 1.5.7 2 .5 3.2a34 34 0 0 0-.1 6c0 1.9 0 2.4-.5 3.1-.6 1-.8 3.1-.3 3.1.7 0 1.3-.6 1.3-1.2s1-1.7 1.7-1.7c.5 0 1.5-2 1.5-2.7 0-.4.2-.9.4-1.1.6-.6 1.1-.1 1.3 1 .2.8 0 1.4-.9 3.2-.6 1.2-1 2.4-1 2.7 0 .3-.3.8-.5 1-.5.8-.3.8 1 .3zm1.2-3.3c-.1-.6.3-1.8.8-2l1.3-1.6c2-2.9 2.5-4.4 1.6-5.6-.5-.7-.3-1.7.5-2.4.5-.5.7-.5 1.3-.3 1.8 1 .3 6.9-2.7 10.6-1.4 1.9-2.4 2.3-2.8 1.3zm-42.2 3c0-.4-.9-1-2-1.4-2.4-1-4.2-2.7-4.4-4.1 0-.9-.7-1.3-.7-.5 0 .6-.6 2.4-1 2.8-.5.4-.4.7.3.7s4.4 1.4 5.6 2.2c.8.5 2.2.6 2.2.2zm31.9-1c-.2-1-.1-1 .6-1.3 1-.4 1.1-1.1.2-1.6-1.4-.6-.7-2.5.9-2.1 1.2.2 1.5-.5 1.3-3.2-.3-3.9-.7-5.1-2-5.9-.8-.6-2.2-.3-2.8.6-.4.6-.6.7-1.4.5l-2-.2h-1.1l-1.2 2.3c-.7 1.4-1 2.5-1 2.8.2.6 1 .9 1.3.5.5-.4 1.7-.3 2.1.2.2.3.7 1.3 1 2.3.4 1 1 2.5 1.5 3.2.5.7.9 1.6.9 1.9 0 .3.3.7.6.8 1 .6 1.3.4 1-.7zm64 101.7c-2.3-.2-3-.7-3.4-2.2-.3-1.2-.7-1.3-2.2-.9-.6.3-1 0-3.5-3.2-1.8-2.2-2.4-2.8-3.3-3.2-3.3-1.5-3.8-1.6-12.2-.7-3.1.3-4.7.3-5.5.1l-4.4-.2c-4 0-5.2-.4-5.8-1.6-.8-1.5.4-2.6 1.7-1.4a34.2 34.2 0 0 0 14.2.2l-.5-1.1c-1-2-1-4.3 0-10 .3-1 .4-2.7.4-3.5 0-1.6.1-1.8.6-4.2.5-2.2.5-2.3-.3-2.6-.6-.2-1-.2-1.7.2-1 .6-1.5.5-2.4-.8-.5-.8-.5-.9-1.9-.7-1.7.2-2-.3-1.1-1.6.6-1 .5-1.1-.6-.7-1 .3-1.6-.2-1.5-1.3.1-.8.4-1.2 2.1-2.5 1.7-1.3 2.1-1.5 3.2-1.5.6 0 1.3-.1 1.5-.3l1-.2c.6 0 .8.3.9.8 0 .5-.1.7-1 1.1-.4.2-1.3.5-1.8.5-1 0-2 .4-2 1l.3.3c.2 0 .4.3.6.7.1.5.5.8 1.3 1 .5.2 1.2.3 1.4.2.2 0 .5.1.7.4.4.9 1 1.4 1.7 1.4.6 0 .8-.6 1.6-4.8l.6-2.8c.9-3.6 1-4.1.6-4.3-.7-.4-3.1-.6-3.7-.3-.3.1-1.3.3-2.4.3-1 0-2.1.1-2.6.4l-1.3.4c-.6 0-2.8-1.6-3-2.3-.2-.2-.3-.4-.5-.3h-1.1l-2.2-.7c-.8-.2-1.4-.6-1.8-1-.6-1-2.2-1-3-.3-.5.5-.5.8-.4 2.7 0 2.1.1 2.3 1 3.1.4.5 1 .9 1.2.9.4 0 1.8 1.1 1.8 1.5l-.4.9c-.6 1 .2 2.2 1.7 2.6l.8.2-.5-.9c-.4-.7-.5-1-.3-1.4.2-.4.1-.6-.4-1.2-1-1-.5-1.5 1.2-1.3 2 .3 2.4 1.1.8 1.8l-.7.3 1 1.2c1.2 1.3 1.3 2.2.3 2.2h-.6l.8 1.4c1 1.6 1.2 2.7.7 4-.3.5-.4 1.2-.5 1.6 0 .9-.4 1.4-1.5 2-.5.3-1.9 1.3-3 2.3-2 1.8-2.1 1.9-2.7 1.4a4 4 0 0 0-1.8-.4c-.8 0-1.5-.2-2.1-.6-.5-.4-1-.6-1.1-.5-.2.2 0 1.6.5 2.7l.6 2c.2.7.7 1.7 1.2 2.2l1.5 2 1.8 2.1c1.6 1.7 1.7 2 1.4 2.7-.2.5-.5.7-1.2.7-.5 0-1.3.1-1.7.3l-.7.3.7.1c.7.2 1.3 1.2 1.1 1.8-.2.5-1 .7-1.7.4-.3-.2-1.6-.3-3-.3h-2.7c-.6 0-.4-1 .2-1.2 1-.3.5-.5-1.4-.6-1 0-3 0-4.2-.2-2.4-.3-2.8-.5-2-1.5.2-.4.8-.5 3.5-.6 1.7 0 4-.2 5-.4 4.3-.6 4.6-.8 3.2-2.5-1-1.2-1.4-1.5-2.3-1.5-.7 0-1-.7-.7-1.6.3-.8 0-1.5-.9-1.5-.2 0-.6-.2-.8-.5-.3-.3-.3-.5 0-1l.7-1c.3-.6-.6-1.6-2-2-.5-.2-1-.5-1.2-.8-.5-.5 0-1.3.8-1.3.4 0 .7-.2.8-.3.3-.5-.4-2-1-2.6-.6-.5-.7-.8-.6-1.3.2-.6-.3-2-.7-2l-.3-.4c-.1-.3-.8-1.2-1.6-2-1.7-1.6-2-2.2-2-3.4 0-1.4.6-2.3 3.3-5 2.3-2.2 2.8-2.9 2.3-2.9l-.5-.5c-.3-.5-.3-.7 0-1 .3-.4 1.4-.5 1.6 0 .3.4 1.6.2 2.7-.5l1.6-.9c.5-.2.6-.5.6-1.1 0-.8.2-1 1-1.4 1-.6 1.5-1.5.8-1.5-1.5 0-2.8-3.2-2-4.9.4-.7.4-.9 0-1.6-.7-1-.7-1.4 0-2.2l.6-1.5c.6-3.5 1.7-5.4 3.2-5.4.5 0 .7-.1.7-.4 0-1.3 3-4 4.3-4 .6 0 .8.6.4 1.4-.2.5-.3.8 0 1.3.3.8.2 1.7-.3 1.7-.2 0-.6-.2-.9-.5-.7-.7-1.4-.5-1.4.4 0 .3-.2 1-.5 1.6-.4.8-.5.9-1.7.9-1.5 0-1.6.3-.4 1.2 1 1 1 1.8-.4 2-.8 0-1 .2-1.4 1l-.6 1c-.5.3-.1 3.2.5 4.2l.8 1c.2 0 .2 0 .2.3 0 .2.4.7.8 1 .5.5.8 1 .8 1.2 0 .6 1.6 2.2 2 2 .3 0 .4-.3.4-.5 0-.6.5-.7 1.6-.1 1.3.6 1.6 1.3 1.4 2.3-.1.7 0 .9.5 1l.8.3v-1.6c0-1.4-.1-1.4-1.1-1.7-1-.4-1.5-1.2-1-1.8.6-.8 2.7 0 3 1 0 .4.4 1.2.8 2l.7 1.7c.2.5 2 1.5 2.9 1.6.5 0 .7-.2 1.5-1.7.6-1.2 1-2.1.9-2.5-.2-1 .6-1 1.5-.2 1.2 1.1 1.7 2.1 1.3 2.7-.4.9-.3 1 1.1 1.5 1.4.5 2 .3 3-.7.6-.7.3-1-1-.8-1 .1-1 .1-.9-.6 0-.8.6-1 1.7-.8.4.1.6.3.7.7 0 .4.1 0 .3-.8.3-1.4.3-1.5-.4-2-.5-.5-.6-.7-.3-1 .2-.3.6-.5.8-.5.3 0 .3-.1.2-.6a15 15 0 0 1-.7-8.6c.4-2 .4-2.2 0-2.5-.5-.3-.5-.5-.3-1.2.3-1.1 0-2.1-.6-2.1s-1-.9-.6-1.5c.2-.3.2-.5 0-.8-.6-.6-1.1-.5-1.1.3 0 .7-.9 2.6-1.4 2.9-.5.3-1-.6-.7-1.4.4-1 .3-1.2-.8-1-.9 0-1 0-1-.7 0-.5 0-1 .2-1.2.2-.2.2-.5.1-.8-.2-.5-2.2-.4-2 .2l.2 1.5c.1 1 0 1.2-.3 1.5-.6.5-1 .3-1-.4 0-.3 0-.8-.2-1-.3-.6-.3-.6-1-.2-.3.3-.7.4-1 .4-.2 0-.5.3-.6.7-.4 1-1 .8-1.5-.2s-1.3-1.5-2.3-1.5c-.6 0-1-.7-.5-1.2l2.2-1.3c2-1 2-1 4.8-.8 2.6 0 3 .2 4.7 1 1.7.9 2.3 1 3 1 .7 0-.2-1.4-.9-1.5a5.5 5.5 0 0 1-2.8-1.3c-1.7-1.3-2-2-1.9-4 .1-.8.4-1.9.7-2.3l.5-1 .8-1.6 1.2-3.6.6-2.8c.2-.4 1-1.3 2.2-2.3 3.3-2.6 4.2-3.8 3.8-5.3-.2-.8-2-4.5-2.2-4.5l-.2-.9-.3-3c-.4-2.7-.2-3.7 1-5.7.6-.8 1-1.7 1-2 0-.5 2.3-2.7 3-2.7 1.3 0 2.4.6 3.8 2.1 1.5 1.7 2 1.9 2.2.9.2-1 1.4-2 2.3-2 .8 0 1.2.3 2.5 1.8 1.1 1.3 1.8 2.3 2.8 4.6a10 10 0 0 0 1.6 2.8c.4-.1.3-8.3-.2-13-.2-2.3-.5-5.3-.5-6.7 0-2.8-.1-4.3-.5-4.3-.1 0-.2.4-.2.9 0 .8-.7 1.3-1.1.8-.5-.5-1-9.8-1.2-28.1 0-4.7-.2-9.3-.3-10.2-.1-1.3 0-1.7.3-2 .6-.5 1.7 0 2.2 1.3.4.8.4 1.8.4 6.1 0 4.9 0 5.2.5 6.1.5.8.6 1.5.8 5a122.3 122.3 0 0 1 .6 12.5 293.4 293.4 0 0 0 1.7 29v1.3c-.5.8-.6 4.8-.4 12.6.1 3.8.2 4.3.7 5l.8 1c.2 0 .2.2.2.4s.7 1 1.4 1.9a23 23 0 0 1 1.8 2.2c.5.7.8.9 4.6 3 1.5.7 1.9 1.1 3 2.8a61.3 61.3 0 0 1 4.8 8.9c.1.5.6 1 1.8 1.6a68.9 68.9 0 0 1 3.9 2 18 18 0 0 1 5 4.8c.2.5 1 1.5 1.8 2.3.9.8 1.8 2 2.1 2.6.7 1.4 1.2 4.5 1.6 9l.7 5.2.5 2.1.9-1.7c.6-1.3.8-2.2.8-3l.2-1.6c.2-.2.4-1.2.6-2.4.1-1.1.4-2.2.5-2.4.1-.1.4-.8.5-1.5.4-1.1.3-1.7-.1-5.8-.1-1 0-1.7.2-2 .4-.4 1.4-.4 2 0 .5.2.7.2 1.5-.5.5-.5 1.1-.9 1.3-.9.7 0 1.5.8 1.5 1.6s-.2 1-2 1.2c-.7.1-1.2.3-1.2.6 0 .2-.2.7-.5 1.1-.5.7-.6.9-.3 1.5.4.8 0 2.9-.7 4.5-.3.5-.6 1.7-.7 2.5l-.5 2.2-.7 2.7-.4 2.4a8 8 0 0 1-1.2 2c-1.1 1.4-1.3 2-.7 2 .7 0 .5.9-.2 1.5-.5.5-.7.9-.6 1.5 0 .8.1.9 1.7 1.2 1 .2 1.9.5 2.2.8l.6.6.5-.7.8-.6c.6 0 1.4-1.1 2.6-3.4 1.1-2.3 1.2-3 .7-5-.3-1.4-.6-1.8-1.4-2-.3 0-.5-.3-.6-.6 0-.5.1-.7.7-.9 1-.3 1-.8.4-1.4-.2-.2-.3-.6-.3-1.1 0-.8.2-.8 1.4-1 1 0 1.3.1 2 .9 1 1 1 1.5-.1 2-.7.4-.8.6-.8 1.5l.3 2.4a18 18 0 0 1-.2 6.2c-.2 0-.3.2-.3.4s.4.4 1.1.5c1.4.2 1.5.3 1.1 1-.3.8-1.8 1.3-3.6 1.3-1.5 0-2.2.7-1 1 1.8.3 1.8 1.5 0 2.2-1.7.7-3.1.6-4-.2-1.7-1.7-2.1-2-2.8-2-.5 0-.8.2-1 .5l-.4 4c0 2-.3 4.7-.5 6.1-.6 5.3-.7 8-.5 8.4.2.2 1 .4 1.8.5l3.9.4c4.2.4 7 .6 9.5.3 3-.2 4.9 0 5.3.6.3.6-.4 1.2-1.5 1.2-1 0-.9.5 0 1 .3.1.8.4 1 .7.5.3 1.2.4 5 .4 4.8 0 5.2.1 5.2 1.3 0 1-1 1.2-4.4.9-2-.3-3.2-.3-3.5-.1-.3.2-1.4.2-2.5.1-2-.1-2.1-.1-4 .8-1.1.6-2.3 1-2.6 1l-3 .7a1815 1815 0 0 1-4.8 1.4l-4.5.7c-3 .3-4 .6-5.2 1.2-1.2.6-2.1.8-4 1-1.8.2-2.9.4-3.4.8-.7.4-1.5.5-4.8.6-2.3.1-4.6.3-5.3.6-2.1.6-5.8 1-7.4.9h-2.8c-2.2.4-2.8.5-4.7.3zm3-2.7c0-.1 0-.2-.2-.2-.1 0-.2.1-.1.2 0 .2.2.3.3.3v-.3zm10.8-2a8.7 8.7 0 0 1 3.2-3.5 280 280 0 0 1 3.6-1.6l1-.5 2.8-1.7c2-1.1 2.6-1.4 3.7-1.4h1.3v-1.9a8 8 0 0 0-.4-2.5c-.9-1.6-1.1-6-.4-8.7.5-2.1.7-3.8.9-8.6.1-3.3 0-4.2-.5-6.8-.6-3.3-.6-4 .3-3.8 1.4.2 2.1 3.5 2.2 9.8 0 3.2.1 4.8.3 4.9.2 0 .4-.4.5-1l.4-2.3c.1-.8.3-1 .8-1.1.6-.1.6 0 .5 2.8 0 3.1.1 4 .4 2.1.5-3.3 1-6 1.4-7.3.5-1.5.4-2.4-.5-7.7-.3-1.3-.4-2.9-.4-3.6 0-2.9-1.6-9.5-2.5-10.5l-.5-.7c0-.3-.8-1.2-1.8-1.9-1.3-.8-3.2-2.7-3.2-3 0-.2-.5-.4-1.2-.5-.7 0-1.3-.3-1.4-.4a3 3 0 0 0-1.7-.9c-.1 0 0 .3.2.5 1 .8 1.3 2 .9 2.7-.3.4-.6.6-1.6.6-1.2 0-1.3 0-1 .3 1.4 1.4 2.5 4.3 2 5.4-.5 1.2-1.2.7-1.8-1.3l-1-2c-.8-.8-3.6-3.2-3.8-3.2-.1 0-.4.3-.6.8l-.6 1c-.7.6-.9 1-.6 1.5l.7.4c.2 0 1 .2 1.5.5 1 .4 1.3.8 2 2.3.5 1 1 2.1 1 2.6l.8 2c.4.7.6 1.5.6 1.8l.3 1a8 8 0 0 1 1 3.7l.2 3.7c.2 1.7.1 2-.6 3.4-.8 1.5-3 4.1-3.4 4.1-.7 0-2.6 1.2-3.7 2.4-1.2 1.2-1.4 1.3-3.4 1.7-2.2.4-3.3.3-4.3-.2s-4 .1-7.3 1.5c-2.4 1-3.2 1.1-5.4.4a5 5 0 0 0-1.6-.3c-.1 0 0 .8.4 1.7.6 1.8 1 6 .7 7.2-.2.4-.5 1-.8 1.1-.5.4-.6.4-1-.2a10 10 0 0 1-.4-2.8c0-1.6-.2-2.2-.4-2.2s-.5.1-.5.3c-.4.5-1-.1-1.3-1.4-.4-1.2-1.3-5.3-1.6-7-.4-2.2-1-4.6-1.5-6-.3-.8-.5-2-.5-2.7 0-.6 0-1.3-.2-1.5a7.8 7.8 0 0 1-1.4-2.9c0-.2.2-.7.5-1 .4-.3.5-.7.5-1.6 0-1.4-.4-3-.8-3-.1 0-.2 0-.2-.3l-.4-.7c-.3-.2-.5-.2-.7.5l-.8 1.3-.8 1.5-.5 1.7a6 6 0 0 0-.3 1.7c0 1 0 1.1.4.5.6-.7 1.3-1.1 1.9-1 .5.3.5 1.4 0 1.6-.7.2-1.5 1.9-1.6 3.5l-.2 1.3.6-1c.6-1 .7-1.1 1.3-.7a82.8 82.8 0 0 1-.2 21.8c-.3.3-.7.4-1 .3a110.9 110.9 0 0 1-.4-15.7c.3-2.6.2-4.6-.2-4.1-.2 0-.5 1.3-.7 2.7-.5 3.2-.7 3.4-1.5 2.5-.7-.7-.9-.2-1.4 4.1l-.3 1.6-.4 3.6-.5 4.5a10 10 0 0 0 .3 4.9c.2.5 2.1 1.5 3.6 1.9l3.4.4c2.2.2 2.5.3 4 1.2l3.1 2.7c2.7 2.7 5 3.6 10.9 4 1.6 0 3 .3 3.8.7a8 8 0 0 0 2.6.5c.8 0 2 0 2.6.2 1.7.4 2.2.2 2.6-.7zm-13-2.3a58.5 58.5 0 0 1-7.9-3.7l-5.3-3c-2.1-.9-2.3-2.2-.4-2.2 1.2 0 2.1.4 4.8 2.1a29.7 29.7 0 0 0 4.2 2.4l3.3 1.6c3.8 1.5 4.7 2 4.6 2.9-.1 1-.7 1-3.4-.1zm13-5.1c-.4-.4 0-1 2-3 2.8-2.9 4.5-5.2 5.7-8 .4-.8.5-2 .6-4.6.2-3 .2-3.4.7-3.4.3 0 .6.4 1 1.6.6 1.2.7 1.7.5 2.6l-.6 3a13 13 0 0 1-.9 3c-.3.6-.7 1.6-.8 2.2-.1.7-.6 1.4-2.2 3-3 3-5.2 4.4-6 3.6zm-5.5-5c-.6-.6-.2-1.3 1.8-2.5 1.5-1 2.6-1.3 2.9-.8.2.4-.9 1.5-2.1 2.3l-1.5 1c-.4.5-.6.5-1.1 0zm13.7 11.5 5.2-.8c4-.5 4.2-.5 6.5-3.3 1.3-1.5 1.2-2.6-.4-4.4-.5-.7-.6-1-.6-2.9 0-1.1.1-2.3.3-2.5.3-.6.6-6.2.3-6.2 0 0-.5.6-.8 1.4-.6 1.3-.6 1.5-.3 4 .3 2.7.2 3.9-.5 6.8a7 7 0 0 1-4.7 5.4c-4.4 1.6-5.7 2-6.2 2s-1.8.6-1.8.9v.2l3-.6zm4.7-4.9c.8-.3.8-.3.2-.3-.4 0-.9.1-1.2.3-.6.5-.2.5 1 0zm-71.5-3H197c-1 0-1.7.1-1.7.2a9 9 0 0 0 3.4-.1zm76.4-14.9c0-.3-.1-.1-.1.5v.6c.2-.3.2-.8 0-1zm-74.2-1.7a9 9 0 0 0 1.5-1.2l.9-.5c.2 0 .5 0 .5-.2l1.6-.6c2.1-.5 2.2-.7 1-2.4-1.7-2-2.1-2.7-2.7-4.5-.8-2.5-1.2-2.7-2.7-2-.7.5-.8.4-1.7-.2-2-1.5-2.7-2-3.4-2-.7 0-2.2-1.7-2.2-2.6 0-.3-.2-.5-.3-.5-.6 0-1.6 1.1-1.6 1.8 0 .4-.4 1-1 1.7-.6.6-1.1 1.4-1.2 1.6a27.7 27.7 0 0 0 4.6 7l.6.8c.3.4.7 1 1 1.2.6.8 3.5 3.3 3.8 3.3l1.3-.7zm-3-2.1a174.8 174.8 0 0 0-3.1-5.6c-1-1.7-1-2.4-.5-2.4.8 0 1.9 1.3 3 3.6 1.5 2.8 2 4.1 1.6 4.5-.4.5-.6.4-1-.1zm36.7.8c-.4-.9-.6-.8-.5.3 0 .7.2.9.5.7.2-.3.2-.5 0-1zm7-1.3 1.7-.7c.5-.3 1-.4 3.7-1 1.6-.3 3-.9 7.5-3a45 45 0 0 1 7.5-2.4c.7-.1 1.1-.4 1.5-1 1-1.3.6-5.6-.8-8.8l-1.4-4.4c0-.4-.5-1-.9-1.5-.6-.6-.8-.6-2-.5-.7.1-1.7.4-2 .6l-2.7 1-3.2 1.4-2.8.9a49.8 49.8 0 0 0-11.7 4.2l-3.5 1.5c-.9.3-1.6.6-1.7.8l1.4 3.1a26.2 26.2 0 0 1 2.2 5.3l.8 2c0 .6 1.3 2.4 2 2.6.9.4 3 .3 4.3-.1zm-.8-3.2c0-.8.3-1 3.2-2 2.9-.9 3.7-.9 3.9 0 0 .6-.3.8-1.8 1.1l-2.4.7c-2.5.7-3 .8-3 .2zm-4.7-3c-.2-.5.4-1 2.3-1.9 1.9-.8 2-1 2.2-2.6 0-.4.2-.7.5-.7.5-.1 2 1.4 2 2 0 .6-.3.9-3 2.3-2.4 1.1-3.6 1.4-4 .9zm12.4-.5c-.4-.3-1-2-.8-2.5.2-.5 1.1-.6 1.5 0 .5.5.5 2.6 0 2.7a1 1 0 0 1-.7-.2zm5.6-.3c-.3-.5.3-1 2.8-2.1l2.3-1.1-.2-1c-.6-2 .8-2.6 1.7-.8.6 1.2.6 1.3-.3 2.5-.6.8-1 1.1-2 1.4-1.2.3-2.4.7-3.8 1.3-.1 0-.4 0-.5-.2zm-21-4.7c-.4-.3-.3-.6.9-1.3 2-1.4 6.5-2.5 6.5-1.6 0 .5-.5 1-1.1 1-.3 0-.7 0-1 .2-.2.2-1 .4-1.6.6l-2 .8c-.8.5-1.5.6-1.8.3zm14.3-1.5c0-.8 3.8-3 4.8-2.7.8.3.6 1.3-.4 1.8-2.4 1.2-4.4 1.6-4.4 1zm7.3-1.1c-.3-.3 0-.6.5-.5.2.1.3.3.2.4-.1.3-.4.3-.7 0zm-8.6-1.5c-.4-.5-.1-.7 2-1.6 1.5-.7 3.6-1 3.9-.5.3.5-.2 1.1-1.3 1.4-3.9 1-4.3 1-4.6.7zm13.5-.4c-.4-.1-.4-1.3 0-1.5.4-.3 1 .2 1 .9-.1.7-.4.9-1 .6zm-59.6 3.4c0-.3 0-.6-.2-.7-.2 0-.3-.7-.3-1.3 0-1.6-.4-2.4-1-2-.2.2-.3.5-.3.8 0 .3-.3.8-.6 1.1-.7 1-.6 1.5.1 1.5.4 0 .9.3 1.1.6.6.7 1.2.7 1.2 0zm-4.9-2.4c.4-.5-.1-.6-.6-.2-.4.4-.4.5 0 .5.3 0 .5-.2.6-.3zm39-3c-.1-.4-.5-.7-.8-.7-.2 0-.5-.1-.5-.3 0-.1-.1-.2-.4-.2-.5 0 0 .9 1 2 .8.6.9.7 1 .2 0-.2 0-.7-.3-1zm4.7-1.8c.3-.3.2-.5-.5-1l-1.1-.6c-.6 0-.6.8-.2 1.3.5.7 1.2.8 1.8.3zm-12.3-3.3-.4-.5c-.4-.4-.4-.4-.4.2 0 .5.1.7.4.6l.4-.3zm8.4-.7a7 7 0 0 0-1.6-3c-.3-.1-.6 0-1.1.5-.4.4-1 .7-1.2.7-.5 0-1 .5-1 1 0 .2.3.3 1.1.3 1.4 0 2.5.4 2.5 1 0 .1.2.4.4.4.4.2 1-.4 1-1zm14 .7c.6-.2.6-.3.5-1.3-.3-1.7-1.2-2.9-3-3.8l-1.8-1a6.9 6.9 0 0 0-4.9-.9c-.8.2-1.6.4-1.9.6l-1 .2c-.3 0-.6.3-.8.7-.2.7-.2 1 .3 2 1 1.9 2 2.9 3.3 2.9.6 0 1.5.2 2.1.5.9.4 1.5.5 3.8.4 1.6 0 3-.2 3.4-.3zm3.2-1.4a5 5 0 0 1 1.3-1.6c.6-.4 1.6-1.7 2.3-3 1.3-2.1 1.3-2.2 1.5-5 .1-1.7.2-3.4 0-4-.1-1.3-.6-2.3-1-2.3l-.8-.6c-1.7-1.5-3.4-1.5-6.7.1-2.3 1.2-4.7 3.3-5 4.5l-.3 1.4c-.4.8 0 1.2.8 1.2.9 0 3.6 1.6 4.6 2.8.6.6 1.4 1.6 1.7 2.3.6 1 .6 1.5.5 2.7v1.8c.2.7.8.5 1.1-.3zm-23.2-2.4c.6-.7 1-1.2.9-1.5l-.4-.4-.8-1.2c-.7-1.5-.6-3 0-3.4.6-.3 1 .1 1.2 1.5 0 .5.3 1.1.5 1.4l.6 1.3c.6 1.1 1 1.1 2.2 0 1-.8 1.3-.9 2.3-.7.8 0 1.1 0 1.1-.2a8 8 0 0 1 2.4-2.4c.7 0 3-3.1 3-4.2s1.7-4.1 3.4-6c.5-.6.6-.6 1.3-.2.7.4.8.4 2.3-.3 2.3-1 4.7-1 6.8.1l1.9 1.1c.3.4 1.6.3 1.8 0 .3-.4 1.1-.3 1.3 0 0 .3.1 0 .2-.5 0-.7-.8-2.7-1.4-3.2l-.7-1-1.3-1.6-1.2-1.6a5 5 0 0 0-2.1-1.6c-2-1-2.5-1.4-3.5-3a5 5 0 0 0-1.5-1.7l-.8-.4v1.9c0 1.2-.1 2.2-.5 3l-.5 1.7c0 .2-.2.6-.5.8-.8.7-1.6 2-2 3.3l-1 2c-.3.6-1 1.9-1.3 3-.5 1.4-.8 2-1.2 2-.7.2-1.2-.6-.8-1.5l.8-2.2c.2-.7-.5-.5-1.2.4l-2.3 2.4-1.9 2.4c-.3.8-1.2 1-1.4.2-.2-.4.1-1.7.6-3.3.2-.5-.3-1.7-.7-1.9-.5-.2-1.8 1.2-2 2.2-.1.7 0 1.2.6 4.1.4 1.9.3 2.3-.4 2.3-.3 0-.7-.2-1-.4-.1-.2-.5-.4-.8-.4-.4 0-.8-.3-1.2-1.1l-.6-1.5c0-.5-.6 0-1 .8a84 84 0 0 1-.8 1.8c-.9 2-1.4 5.6-.8 6l.2.7c0 .7.6 2 1 2a5 5 0 0 0 1.2-1zm7.3-5.8c-.1-.1 0-.8.3-1.6l.9-2.8c.3-1.4.7-2 1.3-1.6.3.2.2.7-.4 3.2l-.6 2.3c0 .6-.3.7-.8.7-.3 0-.7 0-.7-.2zm-9.2-8.8c0-.5-.9-1-1.6-1h-.8l.9 1c.6.6.9.8 1.2.5.2-.1.3-.4.3-.5zm-14.4-2.4c0-.2-.1-.1-.1.2 0 .2 0 .4.1.3v-.5zm23.4-.9c.5 0 1-.3 1.2-.4.5-.4 2.3-1.3 2.5-1.3.3 0 2-1.2 2.9-2l.3-1v-.8l-3.5.2c-6 .4-5.6.4-5.9-.3-.3-.6-1.5-.9-1.5-.4 0 .4-1.9.9-2.2.6-.1-.1-.1-.5 0-.8 0-.5.4-.7 1.4-1l2.3-.8c1.6-.8 5.7-1.7 6.9-1.6.8 0 1 .2 1 .6 0 .7-1.5 1.2-3.5 1.2-.7 0-1.4.1-1.5.3 0 .1-.4.3-.7.3-.5 0-.5 0-.2.2s7.4.2 8.2 0l.3-.6.8-2.2c.7-1.6 1-3.4.5-3.7-.2 0-.3-.4-.3-.6 0-.8-.7-.7-.8.2-.1.5-.3.7-.7.7-.4 0-.5-.2-.4-1.2 0-1.7.4-4.2.6-4.2l.5-1.3c.3-.9.4-2.3.3-5.2 0-3.8 0-4-.8-5-.4-.6-1.4-2.5-2.1-4.2-1.4-3-2.9-5.2-3.6-5.2-.5 0-1 .9-1.9 3.3-.5 1.6-.7 2.7-.8 4.8-.1 2.7-.1 2.8.6 3.5.5.6.7 1 .7 2.6.1 1.6 1 4.2 1.5 4.6.9.5 1 2.5.3 2.7-.6.1-1.4-.6-2.1-2-.5-.9-.5-.9-2.3-.9-2.4 0-4.4.5-6.5 1.8-3.6 2.1-4.8 3.8-5.7 8a8.2 8.2 0 0 1-1.2 3c-.4.5-.7 1.1-.7 1.3 0 .4 0 .4 1.7.4.8 0 1 .2 1.1.6 0 .3-.1.8-.4 1.2-.8.8-.4 1.2 1.5 1.6 1.4.2 1.5.2 2-.3.4-.7 1.3-.6 1.4.2 0 .3 0 .7-.3.9l-.4.6c0 .5.8 1.3 1.7 1.7.8.3 6.2.3 7.8 0zm-6.9-7.9c0-.6.7-1 1.1-.8.1.1.3.5.3.8 0 .5-.2.7-.7.7-.5 0-.7-.2-.7-.7zm.5-3.2c-.7-.4-1.3-1.6-1.3-2.6s1.5-3 2.5-3.4c1.3-.6 3.4-.2 4.6.9.4.4 1 .8 1.4.8 2 0 3.3 1.6 1.5 2-.5 0-1.3.4-1.7.8-.4.3-1 .6-1.5.6-.4 0-1 .3-1.5.7-1 .7-2.8.8-4 .2zm4.2-3.3c0-.2-.1-.2-.2.1 0 .3.1.5.2.4v-.5zm7-3.7c-.3-.5-.8-2-1.1-3.4l-1.2-4.5c-1-2.7-1-4-.5-4.5 1-.8 2 .5 2 2.6 0 1 .6 2.4 1 2.4.2 0 .3-.6.2-1.3 0-1 0-1.2.5-1.3 1.5-.2 2.3 3.7 1.5 6.7-.3 1-.4 1.8-.3 2 .5.7.3 1.5-.4 1.8-1 .4-1.2.4-1.7-.5zm-6 11.5c0-.1-.2-.1-.4 0-.2 0-.2.1.1.1.3 0 .5 0 .4-.1zm-1.7-17.1c.8-.4.8-.7.2-5.4-.4-2.9-.4-3.4 0-5 .5-2.3.3-3.7-.7-4.7-.8-.9-1.4-1-2.8-.2-.8.5-1 .5-1.1.1-.3-.7-.8-.3-1.6 1.3-1.3 2.5-1.2 4.1.8 8.5l1.4 2.9c.3.5.4 1 .2 1.6v1c.4.3 2.9.2 3.6-.1zM383.2 204c-1-.2-2.2-.3-2.6-.2a5 5 0 0 1-4-1.4c-.9-.8-1-.9-2.7-.8-2 0-4-.8-5.2-2.2-.6-.8-2-3.5-2-4l-.5-1.4-.6-1.2-1.4.5c-1.4.6-2.7 1-4.6 1.6-.7.2-1.9.7-2.7 1.2a18.6 18.6 0 0 1-8.7 2.3 43.8 43.8 0 0 1-14.7-.2c-.9-.3-2.6-.4-4.3-.4-2.8 0-3 0-4-.8-2.3-1.6-2.9-2.9-2-4.1.3-.4.4-1 .2-3.4-.2-5.4-.3-6-.7-6.5-.7-.8-1-2.5-1-5l.2-2.3.9-.6a12 12 0 0 1 6.3-2.6c1.6-.2 1.9-.6 1.4-1.6-.2-.4-.3-1.5-.3-2.4a6 6 0 0 0-.5-2.7 16 16 0 0 1-.8-2.2c-.3-1-.7-1.6-1.6-2.4-1.6-1.4-1.8-1.8-2.2-3.7a164.2 164.2 0 0 1-3.7-31c-.1-3-.4-5.6-.5-6-.4-1-.3-2.5.3-3.2.4-.5.5-1 .4-1.3l-.4-4.3-1-12.3a197.7 197.7 0 0 1-.7-17.8 897.4 897.4 0 0 1-.7-14.1c-.5-3.4-.8-7.6-.9-11.5a23.7 23.7 0 0 0-1-7.5c-.3-1-2.1-2.4-3.4-2.5-.9 0-1.1.1-1.6.7-.5.7-.5.7-4 .9l-3.7.1-1.3-.7c-.8-.5-2.8-2.2-4.5-4-3-3-4.7-4.2-5-3.4 0 .2-.5.7-1 1.2l-.9 1 .2 2 .3 3c.1.8 0 1-.4 1.1-1.2.4-1.5-.4-1.6-3.7 0-3 0-3-.7-3-.3 0-.7 0-.8.2v4.2l.2 4h.7a6 6 0 0 1 1.8.4c.8.4 1.2.4 2.7 0l4.2-.5c2.1-.1 2.4-.1 2.8.4.3.2.5.7.4 1 0 .7-.2.7-2.8.8-2.1.1-2.7.3-3 .6-.2.3-.9.5-1.7.6-2.7.3-2.5.2-2.5 2.5 0 1.1.2 3 .4 4.3.9 4.6 1 5.2 1.1 7 .1 1.3 0 2-.3 2.8-.3.6-.5 1.7-.5 2.8a270.2 270.2 0 0 0 1.7 20.8c.6 4.8.8 8.4.5 10.7-.2 1.3-.2 3.3-.1 4.4a2130.2 2130.2 0 0 1 .6 5.8c.2.4.6 3.9.6 5.5 0 .7.1 1.7.4 2.4.2.6.4 1.8.4 2.6l.4 3.6c.8 4.4.8 5.7-.4 5.7-.8 0-1.2-.8-1.4-2.7-.4-3.2-.7-5.7-1-7.1-.4-2.7-.8-6-1-10.5a103 103 0 0 0-1.4-12.6 159.2 159.2 0 0 0-1-9.2 43.4 43.4 0 0 0 .5 11.9l.5 6c.4 4.4.7 12 .7 16.6 0 3.4 0 4-.5 4.2-.9.6-1.1-.2-1.2-3.3 0-6.8-.5-14.7-1.4-24a138 138 0 0 1-.5-15.4 253.1 253.1 0 0 0-1.2-22.2c-.5-.9-.6-6.9-.1-8 .4-1.2.3-2.9-.3-3.8-.5-.9-1-1.1-3.3-1.6a6 6 0 0 1-2-1.3c-1.2-1.1-1.2-1.1-3.4-1.3-1.3 0-2.6-.2-3.1-.3-1.3-.3-2.6-1.5-3.7-3.4-.5-1-1.3-2-1.8-2.4-.9-.7-3.6-1.7-4.4-1.7-.3 0-1-.4-1.4-1-1.1-1-1.8-1.3-2.5-.9-.9.5-1.6.3-2.4-.4-1.1-1-1.3-2.9-.3-3.6.7-.4 4.3-1 9.3-1.2a1338.6 1338.6 0 0 0 18-1c2.6-.2 2.9-.2 3.3.2.8.7 1.2 2.4.8 3.1-.3.5-.2.6.2 1 .6.4 2 .5 2 0-.2-1.2-.1-1.2 2.4-1.2 4 0 8-.2 9.4-.6 2-.5 4.1-.1 5.3.9 1 .8 1 .9.8 2.2-.2 1.2-.1 1.4.3 1.5.4 0 .6.5.9 1.6.2.8.5 1.6.7 1.8.2.2.3-.2.3-2.6v-2.9l-.9-.4c-.6-.3-.8-.5-.8-1.1 0-.7.2-1 1-1.5.6-.4 1-.8 1-1.1 0-.5-.2-.5-1-.4-1.3.2-11.1.3-11.4 0l-3.7.2c-2.5.1-3.5.1-4-.1-1.4-.7-.9-2.2.7-2a327.7 327.7 0 0 1 22-.4c.4.1.9 1.3.9 2.3 0 1.4.1 1.5 5 1.5 2.4 0 5-.1 5.6-.3 1.4-.3 9-1 12.5-1.3 2.7-.1 3.3-.3 3.3-1.2 0-1 2.3-1.3 12.6-1.7 7.3-.3 8-.2 8 .8 0 .6-.9 1-2 1-.4 0-1 .3-1.4.5-.7.4-1 .4-3.1.1-2-.2-3-.2-5.8.1l-4.5.4c-.9 0-1.2.1-1.5.6-.6 1-2 1.2-7.5 1.5a163 163 0 0 0-11.8 1.1c-1.6.2-2.6.4-2.6.6l.4 1c.5 1 .5 2 0 2.8-.4.6-.5 1.2-.3 5.5.2 5 .4 6.4 1 6.2 2.6-.7 21.8-1.5 25.9-1a147.6 147.6 0 0 0 22.3-.3l9.8-.4c7.4-.3 15.8 0 18.8.6 5.3 1 5.4 1.1 5.4 2 0 .8-1.3 1.3-2.5 1a703.9 703.9 0 0 1-12-.4h-1l.2 3.6c0 2 .2 4 .3 4.5l.5 5.1.5 6.6a175 175 0 0 1 .9 14.4c0 1.3.1 1.4 1 2l1 .5.5-.6c.6-.6 1.5-.7 5.7-.6 2 0 2.5.2 2.9.6.3.4.4.7.2 1-.3.5-.6.6-4.5.6-3.7 0-4.3 0-4.5-.5-.2-.4-.2-.3-.4.1 0 .3-.6.7-1 1-.7.3-1 .6-1 1.2-.2 1-1 1-1.4 0-.4-1-.4-1-2.3-1.1L377 93c-11 0-11-.1-11-1.4 0-1 .9-1.4 2.7-1.2 3.7.3 22.2.5 22.4.2.3-.3 0-6.5-.3-7-.2-.3-.3-1.3-.3-2.3 0-1-.2-2.4-.4-3-.2-.6-.4-2.1-.4-3.4l-.2-3.8a94.8 94.8 0 0 1-1-8.4 179.2 179.2 0 0 1-.6-7.4c-.2-.3-1.5-.3-4.8-.3-6.4.1-13.7 0-14-.1-.2-.2-9 .3-9.6.5-.4.2-.5.3-.3.9.5 2.3 1 5 1 7.4.1 1.6.4 3.5.6 4.4.4 1.8.5 3.9.2 4.3-.3.6-1 .4-1.4-.4-.5-1.5-1.3-5.9-1.6-9.8a14 14 0 0 0-.6-3.4c-.2-.2-.2-1-.1-1.8l.1-1.5h-2.8a69.3 69.3 0 0 1-11 .7c-6.2.2-7.3.1-11-.7-1.4-.3-1.5-.2-2 .3-.4.6-.4 1-.3 3.4a84.4 84.4 0 0 0 .8 8.2c.3 3 .7 4.1 1.4 3.8.2 0 .3-.5.3-1.3 0-2 1-3.4 2.6-3.3 1.3 0 1.8.4 4.6 3a9.2 9.2 0 0 1 2.7 4.9c.5 2.8.4 2.8 3.2 2 2.5-.9 4.5-1.2 5.4-1 .4.1 1.4.3 2.3.3 2 .2 2.8.8 3.6 2.8.4 1 1.1 2 2 3 1.5 1.5 2 2.4 2 3.7 0 1-1.9 5-3.4 7.1-1.1 1.6-1.4 2.4-.9 2.7.1 0 1.1-.6 2.2-1.6 2.5-2.2 3.2-2.2 4.2-.3.5.9.6 1.6.6 3.5 0 1.4.1 2.5.2 2.7l.2 1.2.3 2.3c.1.7.4 4.1.5 7.7l.5 9.4c0 .3.6.4 1.8.4 1.8 0 2.6.4 2.3 1.2-.3.7-.6.9-2 .9-2.1 0-2.1 0-1.8 4.5a638.8 638.8 0 0 1 1 12.9c.5 2.5.3 3-1.1 3.8-1.4.6-4.7.8-7.7.4-1.5-.1-1.7-.1-1.8.4v1.8c.2 1.6-.3 3.3-1 3.8-1 .6-1.7 2.6-1.4 3.8.5 3.2.3 7.1-.4 8.1l-.5 1.9-.8 2.4c-.6 1-.7 5.5-.3 6.1.2.2.8.4 1.3.4 1 0 2.3.4 3.3 1 .6.2 1.3 2.2 1.6 4.3.2 1.1.6 1.3 3.5 1.8 1.8.3 5.2 0 5.7-.5l.3-3.6c0-2.5.2-4 .6-5.2l1-3.7c.8-4 .8-3.6-.2-4.2-1.4-.8-1.9-1.9-1.8-4 0-2.3.5-4 1.5-6.1.5-1 1-2.4 1-3l.7-2.4.5-1.4.6-.7c.7-.8 2-3.4 2.6-5.6.7-2.1.6-2.6-.8-4.2-.4-.4-.8-1-.8-1.3l-.4-1.2c-.4-.8-.5-3 0-3.8l.2-1.3c0-1.4.8-5.8 1.4-6.8l.5-1-.6-1.2-1.4-2-.7-1.2-.7-1c-1.2-1.4-1.1-7.7 0-10.1.6-1.1 2.8-3.1 3.8-3.5 1.3-.4 2.3 0 3.2 1.3l1.5 2.1c.5.7 1 1.6 1 2l1 2.4.6 1.5.1-1.1c0-.7 0-1.4-.2-1.7-.6-1.1 0-4.6 1-5.8.7-1 2.4-1.5 3.4-1a7 7 0 0 1 3.8 3.5l.8 2c0 .2.3.7.7 1.1l.7.8v5a32.8 32.8 0 0 1-1 9.1c-.1 1-.1 1.3.2 1.8.3.3.4.8.4 1 0 .3.4 1.2 1 2.1.7 1.6.8 1.8.7 4.5 0 2.6-.1 3-.7 3.9-.4.5-.7 1.2-.7 1.4 0 .2-.3.9-.8 1.4-.7 1-.7 1-.4 2 .7 1.6.8 1.7 3.1 1.5 2.2-.2 3.3 0 3.5.9.1.5-.7 1.4-1 1.1h-1.3c-1 .2-1.2.4-1.2.7 0 .7 1.6 3.8 2 3.7l.4-1c.2-1.2.9-2.8 1.7-3.8.5-.6.6-1 .6-2 0-1.2.2-1.9.8-4l.7-2.7c.3-.9.6-1.8.8-1.9.2 0 .4-.5.5-.8 0-.4.3-.7.5-.6.8.3.8 4.4-.1 6.5-.7 1.5-1.4 4.3-1.2 4.5.3.2 1.4-1 2-2.4.8-1.4 1.7-1.7 2-.7.3.7-.3 2-1.9 4.1-1 1.4-1.8 1.9-2.6 1.6-.6-.2-1 .6-1 2 0 .6-.2 1.7-.5 2.5l-.5 2v.5l.5-.5c.2-.3 1.1-.9 2-1.2l3-1.3c1.4-.6 1.4-.6 3.1 0 1.8.4 2.3.9 1.8 1.5a1695.8 1695.8 0 0 0-6.2 8.5c-.3 0-.6.6-.8 1.2-.1.6-.6 1.5-1.1 2-.8.8-.8 1-.9 2.7 0 1 0 2-.2 2.4a26.8 26.8 0 0 1 .5 9.8c-.2 1.9-.1 2.2.3 2.7.3.3.7 1.3.9 2.2.5 2.1.4 8-.1 9.9-.6 2-.4 2.2 1 2 2.2-.4 3.8-.3 4.3.3.8.9 3 1 5.3.2 1-.4 2-.6 2.4-.6 1.2 0 3.3-1 4.5-2 1.2-1 1.3-1.2 1.2-2.2 0-1 0-1.3.6-1.8.6-.7.7-.7 1.3-.3.6.4.7 1.3 0 2.6l-.3.7h.8c1 0 2.4-1 2.7-1.9l.8-1.9c.8-1.5.7-2.6-.2-3.7-.6-.8-1.2-.9-1.5 0-.4 1.2-1.8 3-2.4 3.2-1.1.3-1.3-.3-.4-2 .5-1 1-2.4 1.2-3.3l.6-3.5c.3-1.3.3-2.1.2-2.7-.2-.6-.2-1.3 0-2 .1-.5.2-1 .1-1.2l-.2-2c0-.8-.2-2-.4-2.6a37.5 37.5 0 0 1-1.4-5 93.6 93.6 0 0 0-2-8c-.6-2.4-.6-2.8-.4-4.3.4-2 .3-2.3-1-2-1.4.5-2.3.4-2.8 0-.3-.4-.4-.6 0-1 .2-.2.6-.3 2-.2l1.6.2-.1-1.4c-.3-2.1-1-5.5-1.3-6.2-.2-.4-.3-2-.3-4a40.2 40.2 0 0 0-1-14.5c-.4-.9.7-6.7 1.6-8.3.2-.5.6-1.7.8-2.8l.6-4c.2-1.3.3-3.5.3-4.9 0-2.6-.4-3.6-1.5-5-.4-.6-.4-.5-.9.5-.4.8-.5 1.7-.6 4.3 0 1.8-.1 3.4-.2 3.5l.2 2.6c.3 2.3.3 2.4-.4 3.5-.4.7-.9 1.4-1.2 1.6-.4.5-.5.5-.9 0-.5-.5-.5-.3 0-2.9.3-1.6.4-2.9.3-5.8l-.2-5.1c0-3.1-1.4-6-2.6-5.4l-1.6.8c-2.2 1-2.7 2-2.7 5.3 0 2 .1 3 .7 4.7l.7 2.8c0 .4.2 1.1.5 1.7l1 1.8c.3.6.3.9 0 1.4 0 .3-.4.6-.6.6-.5 0-1.6-1.3-2.3-2.8l-.6-1.5-1.7.1c-2.7.2-6.8 2.2-7.7 3.8-.4.6-.4.8.2 2.3l.6 2.4c0 1.5.8 3.8 1.6 4.7 1.1 1 3.4 1.9 5.3 1.9 1.3 0 1.6 0 1.8.5.4.8.1 1.5-.8 1.8a5.6 5.6 0 0 0-3 3c-.4 1.6-.9 2.1-1.6 1.9-.7-.3-1-1.6-.6-3.1.2-.9.2-1.2-.3-2.2-.4-.6-.9-1.2-1.2-1.3-1.7-.5-3-2.3-3.8-5a12 12 0 0 0-.6-1.8l-.5-1.4c-.3-.9-.3-1.4.2-3.5l.8-3c.1-.2 1.7-1 3.4-1.9a17 17 0 0 1 5.2-1.8c1-.1 2-.4 2-.5l-.4-2.3c-.8-4-.3-7.7 1.2-9.9.5-.7 4.1-2.6 5-2.6 1.2 0 2.2.6 2.8 1.8.4.6.8 1.1 1 1.1l1-.4c.8-.4 1.6-.3 2.3.3.7.5 2.2 3 2.6 4.3.7 2.2.3 9.5-.6 12.3a6 6 0 0 0-.2 2.7c.1 1 0 1.7-.4 3a10 10 0 0 0-.5 3.7c0 2.4-.2 6.7-.5 9 0 .8 0 1.7.3 2.6.3.9.4 3 .5 6.7l.4 6.2.6 2 .4 1.3h1.3c1.7 0 2.6.4 2.3 1-.3 1-.7 1.1-1.8 1.1-1.3 0-1.5.4-.5 1.1.9.7.8 1.4-.1 2.2-.9.6-1 1.2-.4 1.4.7.3 1.2 2 1.4 4.9.1 1.5.3 3 .5 3.3.2.4.5 1.6.6 2.8.2 1.2.5 2.4.7 2.6.3.3.3-.1.3-3.3 0-2.9.1-3.8.4-4.3.4-.5.6-.6 1-.3.5.2.5.5.5 4v3.6h1.6v-4.8c0-5.3.2-6.9.8-7 1-.2 1.1.3 1.5 5.6a54.1 54.1 0 0 1 .2 6.9c.2 1.2.2 1.2 1.3 1.1.6 0 1.3-.2 1.7-.4 1.3-.8 2.2.5 1.7 2.5-.4 1.3-.4 11.5 0 11.5.3 0 .2.4.4-3.7.2-3.7.5-4.2 1.4-3.7.5.2.5.6.5 3.5l.1 5.7c0 2.7 0 3-1.4 2.9-.6-.1-.8 0-.7.3 0 .3.4.4 1 .5l2 .3 1.7.4c1 .2 2.3 1.4 2.3 2 0 1-.5 1-3.2.7a15 15 0 0 1-3.3-.8c-.5-.3-1-.4-1.1-.3l-2.5.5c-3.8.7-6 1.5-7.8 3-1.6 1.3-1.7 1.4-3.2 1.4-1.2 0-1.6 0-2 .5l-1.8 1.6c-1.2 1-1.5 1-2.8 1-.8 0-2 .2-2.6.4-1.7.6-6.1 1.6-8.3 1.8-1 0-3.1.5-4.6.9l-3.6.6c-.6 0-1.3.2-2 .7-.6.4-1.7.9-2.5 1l-2 .8c-.8.4-3.6 1-4.3 1l-2.6-.4zm4.8-3.6c.9-.1 1.8-.4 2-.7.5-.5.5-.6.2-1.7l-.6-2.8c-.2-1.8-1-3-2.6-3.5-2.6-.8-7.9 3.3-7.9 6 0 .4.3.9.6 1.3.5.6 1 .7 2.8 1 1.1.1 2.3.3 2.5.5.5.2 1 .2 3 0zm-12.4-3 .8-1.9c.4-1.2 1.8-3.3 2.4-3.3.1 0 1-.6 1.9-1.4 1.4-1.3 1.7-1.5 3.5-1.8 2.6-.4 4.3-.1 6.2 1a7 7 0 0 1 3.3 4.2c.3 1 1.2 2.3 1.6 2.3l1.5-2 1.3-1.9v-4c-.1-4-.2-4.2-.8-5.1-.7-1-.7-1-.6-3.9a21 21 0 0 0-.5-6.6l-1-5c-.3-.8-.4-2.1-.4-3 0-2.3-.5-3.3-2-4-2.4-1-3.5-2.8-3.3-5.7 0-1.1.2-1.4 1-1.9 1.5-1 2.1-.7 2.7 1.4.2 1 .4 1.2 1.4 1.6 1.2.6 1.2.6 1.5.1.6-1.2.3-2.6-1.1-5.1-.8-1.3-1.7-2.8-2.1-3.2-.8-.8-4-6-4.7-7.8a9.7 9.7 0 0 1-.7-4.3c.1-.5.5-1 1-1.2.4-.2.9-.7 1.1-1.2l1-1.4.7-1.5c.4-1 .3-1-.1-1.7-1.8-2.5-2.9-7.7-2.1-10 .5-1.5 1-4.9 1.3-7.4.1-2 .1-2-.7-3-.5-.5-.8-1.1-.8-1.6 0-.9-.9-2.4-1.4-2.4-.2 0-.4 0-.4.2l-1.3 1.1c-1.1.9-1.3 1-1.5 2.5-.2 1-.2 2.5 0 4.2.3 4.6.1 5.7-1.4 6.3-2.2.8-3.3-.3-2.3-2.6.4-1 .4-1.1-.4-3.5-1-3-3.1-7.4-3.6-7.6-.2-.1-.8.2-1.4.7-.8.7-1.2 1-1.7.8-1.3-.2-1.9 1.8-1 4 1 2.7 1.4 3.6 2 4.6.8 1 2 4 2 4.7 0 .3-.2.8-.4 1.1l-.8 2.4c-.6 2.7-1 3.6-1.5 4.1-.3.3-.4.5-.2.6.1.1.3.6.3 1 0 .5.2 1.3.5 1.8l.5 1c0 .5 1.2 1.6 2.2 2 .7.4 1 .7 1.1 1.2l.4 1.5c.4 1.3.4 1.6-1 3-.6.8-1.1 1.7-1.1 1.9 0 .2-.5 1.1-1.2 2-1.3 1.7-2 3-2 3.9 0 .3-.5 1.4-1 2.5-1.2 2-1.4 2.5-2.1 5.4-.5 1.9-.4 2.3.5 2.3.3 0 .5.1.5.3l.4.4c.6.2 1.5-.6 1.5-1.3l.4-1.5c.4-.7.7-1 1.2-1s.6.2.7 1.2c0 .6-.1 1.5-.5 2.3l-.5 1.7-.8 1.5c-.8 1.2-1 1.9-1.3 4.1-.1.8-.3 1.7-.5 2-.4.7-1 2.7-1 3.3-.1.2-.2 2.6-.2 5.3-.1 5.4-.3 6.5-1.3 8a8.7 8.7 0 0 0-.3 7.1c.6 1.2 1.1 3 1.1 3.7 0 .9 1.3 1.9 3.1 2.6 1.7.7 1.9.7 2.4-.1zm15.3-12.5-.4-.8c0-.4 0-.3-.4.1-1.3 1.9-3.1-.8-2.2-3.2.2-.5.4-.7 1-.7.5 0 .8.1.8.3 0 .4.7.3 1.2-.3.6-.6 1-.4 2.3.8.6.5.8.9.8 2s0 1.2-1.1 1.7c-1.4.7-1.4.7-2 .1zm-12.5-2.5c0-.4-.3-.5-1.2-.5-1.4 0-1.7-.5-2-3.2 0-1.9 0-2.2.4-2.5 1-.7 2 .2 2 1.8 0 1 0 1 .4.6.8-.6 1.6-.5 2 .3.3.9.3 3 0 3.6-.4.6-1.4.6-1.6 0zm14.7-3.9c-.5 0-.5-.8 0-1 .3-.1 1 .9.7 1h-.7zm-11.4-40.8c-.4-.5 0-1.5.6-1.6 1.1-.3 1.8.5 1.3 1.5-.3.4-1.7.6-2 .1zM347 194c1.4.2 1.4.2 2.5-.9l1.2-1-1 .1-1.7.4c-1.7.6-3.6-.2-3-1.3.4-.8 1-1 3.2-1.2 2.3-.2 2.8 0 3 1.2 0 .7.2 1 .7 1 .4 0 .8.2 1 .3.7.7.8-.5.2-1.8-.4-.8-.4-1 0-2.1l1.1-2c.6-.7.6-1 .5-2.2-.3-1.7-.3-1.8-1.2-1.6-1 .3-1.3.6-1.3 1.4 0 .7-.6 1.4-1.3 1.4-.2 0-.2.2 0 .6.4 1.3-.6 1.8-4.7 2.2-1 .1-1.5 0-1.8-.3-.6-.6-.5-1.3.2-1.8.5-.4.7-.7.7-1.3 0-1.1.7-1.5 2.8-1.5a8 8 0 0 0 1.8-.2c.7-.2.5-.8-.4-1.3-.4-.3-.8-.7-.8-1 0-.2-.2-.5-.4-.6-.4-.1-2.4.7-3.6 1.6-.7.5-2.2.5-10.6.1-2.5-.1-2.6-.1-2.7.5-.1.3-.4.7-.6.7-.2.1-.1.4.5 1 .8.8.8.8.4 1.5-.4.6-.4.6.1.8l1.8.6 1.2.3-.2 1.2c-.1 1.1 0 1.1.7 1.1.5 0 .7-.1.9-.6.2-.7 0-.8-1-1.4-.4-.3-.4-1.6.1-2.1.4-.4.4-.5 0-.8-1.3-1.2 1-2.4 3.6-2 2.7.6 2.9 1.7.4 2.4l-1.3.4 1 .1c1.4.1 2 .6 2 1.4 0 .5-.3.7-1 1l-1 .3h1.3c1.6 0 2.3.4 2.3 1.2 0 .9-.7 1.2-2.3 1.2-1.3 0-1.4 0-1.4.6 0 .4.3.9.5 1.1.3.3.6.7.6 1 .1.6.3.6 1.6.5 1 0 1.6 0 1.8.3.3.4.4.4 1.2-.1.8-.4 1.2-.5 2.4-.4zm-12-.9-.4-.2c-.3 0-.4 0-.4.2s.1.3.4.3c.2 0 .4-.1.4-.3zm-3.7-2.2c0-1-.4-1.3-2.2-1.6-1-.1-1.3 0-1.5.3-.2.7 1.6 2.2 2.7 2.2 1 0 1 0 1-1zm102-4.5c.2-.1.4-1.6.5-3.3.1-2.8.1-3-.4-3.5-.3-.3-.7-.5-.8-.4a10 10 0 0 0-.1 2.5v2.3h-1c-.7 0-1 .1-1 .6-.1.9.4 1.6 1.4 1.9 1.1.3 1.1.3 1.4 0zm-74.3 0h-.5.1c.3.1.5 0 .4 0zm5.7 0c.8-.2 1-.3 1.2-1.3.5-1.8.4-1.9-2.4-2a50 50 0 0 1-4-.5c-1.8-.3-2.4 0-1.7.7l1.5.8c1.4.5 1.9 1.1 1.4 1.9-.3.5-.3.5 1.3.5 1 0 2.1 0 2.7-.2zm63.8-6.6c-.3-6-.7-7.2-1-3-.1 1.6-.3 2.5-.6 2.8-.4.5-.3.6.6 2l1.1 1.5v-3.3zm-92.9-.2s0-.4-.3-.6c-.5-.5-1-.2-.8.5.2.4.9.5 1.1.1zM354 178c.5-.4 1-1 1-1.2 0-.3-1.4-1.1-2-1.1-.5 0-1.3.8-1.3 1.5 0 .5.8 1.6 1.2 1.6 0 0 .6-.3 1-.8zm-26.5-.2c-.5-.7-.5-.8 0-1.3.4-.5.8-.6 2.7-.6 1.8 0 2.2 0 2.2-.4 0-.7-.7-.7-2.8-.3-2.3.5-3.3 1.2-3.3 2.3 0 .9.2 1 1 1 .6 0 .6 0 .2-.7zm16.2-.4c-.4-1.4-1-5.7-.8-6.2.2-.7 2.4-2.4 3-2.4.6 0 3-1.5 3-1.9l.7-1c.6-.6.8-1.3 1.2-3.3.4-2.2.4-2.9.2-4.9a352 352 0 0 1-1.3-9c-.5-2.7-.4-3.3.8-3.4.6 0 .7 0 1 1 .4 1.5 1 1.3 1.1-.3.3-1.8 1-4.7 1.3-5.3l.2-1.1c0-.7.7-4.4 1.5-7.7.8-3.7.9-4.3.7-5.8 0-1-.4-2.4-.7-3.4-.7-2.3-.7-5 0-6 .3-.3.9-.8 1.3-.9 1.4-.3 1.4-.5 1.4-4.1 0-1.8.2-3.8.3-4.3a342.7 342.7 0 0 1 2.2-7.3c.5-1.5.5-1.6 0-3-.2-.7-.5-1.3-.6-1.3-.5 0-1.3 1.4-1.3 2.2 0 .5-.4 1.3-1 2.2-.7 1-.8 1.5-.7 2 .1.5 0 .7-.3.7s-.4.3-.4 1.6c0 2.3-1 3-2.1 1.4-.8-.8-.3-4.2.7-5.4.2-.3.3-.7.3-1-.1-.8-.8-1.2-4.4-2.4-2.8-1-3.5-1.7-2.6-2.7.3-.3.8-.5 1.1-.5a4 4 0 0 0 1.2-.2l2.1-.7c1.2-.3 1.7-.7 2.1-1.3l1.3-1.4c.4-.5.6-.9.5-1.9 0-1 0-1.3.5-1.6 1.5-1.3 1.5-2.5-.1-4a22 22 0 0 1-2-2.2 7.7 7.7 0 0 0-2-1.7c-1.1-.7-1.1-.7-3.5-.3-2 .2-2.6.4-3.4 1.1-1.1.9-2.1 3-2.1 4.4 0 1.1-.6 3.2-1 3.3-.8.3-1-.4-1-3-.1-1.7-.3-3.1-.5-3.7a36 36 0 0 1-1.2-6.6c0-.9-.3-1.4-1-2.1-2-2-3.8-3-4.3-2.7-.3.2-.4.9-.4 2.8 0 3.4.5 5.7 1.4 7.7 1 2 1 3.3.3 3.3-1 0-3.2-4-3.2-6 0-1.2-2-4-2.7-3.8-.4.2-.7 1.2-1 3.8-.3 2.2-.3 2.2.4 3.6.4.8 1.3 2 2 2.6 2.6 2.7 3.2 3.4 3.2 4.4 0 .7.2 1 1.2 2 .7.7 1.6 1.4 1.9 1.5.7.4 2 2.8 1.8 3.6 0 .7-.7.8-1.8.3l-.9-.4v.7c.2.4.5 1.1 1 1.5.9 1.1 1 1.6.6 2.4-.5 1-.5 1.3.1 1.9.9.8.8 3.1-.2 4.7-1 1.5-1 2-.3 2.1.5.1.6.3.5 2.9v3.2c0 .3-.3 1-.7 1.6-1 1.3-2 3.6-2 4.4 0 .3-.2 1.1-.5 1.8-.4.7-1 2-1.2 3l-1 2.6c-.3.6-.4 1.4-.4 2.6a7 7 0 0 1-.6 3.4c-.4.8-.7 2.2-.8 3-.1.8-.3 1.7-.5 2-.2.5-.2 1 0 2l.3 2c-.1 1.3 0 1.9 1 2.8.4.6 1 1 1.2 1 .7 0 1.4 1.3 1.6 3l.4 2.7c0 .8 0 1.5-.6 2.8a10 10 0 0 0-.8 3.3c-.2.4-1.9 1.3-3 1.5-.3 0-.4.2-.4.7l.2 2c0 1.1.2 1.4 1 2.2a4 4 0 0 0 1.5.8c.4 0 2.4 1 3 1.6.4.3.5.2 1.3-1.4 1.1-2.5 3.2-3.5 4.3-2.3.6.7.4 1.5-.5 1.7-1 .3-1.6 1.4-2 3.6-.8 3.3-.9 3.9-.4 5.4.6 1.8 1.1 2.5 1.9 2.7.3 0 .9.5 1.2.8.8.8 1.4.9 1.2 0zm0-9.4c-.3-.7 0-1 .8-1 .7 0 1 .6.6 1.1-.5.6-1.2.5-1.4-.1zm5.7-82c-.2 0-.5-.4-.6-.7-.1-.4-.5-.8-.9-1-.4 0-.7-.5-.8-.9-.3-1 .7-1.9 2.4-2 1.3-.2 1.3-.2 2 .8l.8 1.5c0 .7-.6 1.6-1.4 2-.7.5-1 .6-1.5.3zm-11.4 90.5-.4-1.5-.7-3.4c-.3-1.6-.5-2.3-.7-2.3-.2 0-.7-.3-1.2-.8-2.4-2.4-2.9 1.2-.5 4l1 1.8c.4 1 1.8 2.7 2.3 2.7 0 0 .2-.2.2-.5zm94.4-.7c0-.3 0-.4-.2-.3-.2.1-.2.3-.2.4.3.4.4.3.4-.1zm-4.2-3.4c0-1.4 0-1.8-.4-1.8-.5 0-.6 1.5-.1 1.8l.2.9c0 .4 0 .8.2.8l.1-1.7zm-30-11.5c.5-1.1 1-2.4 1-2.8.5-2.3.5-2.3 0-2.2-.5 0-.5.1-1.4 2.2l-.9 1.7a3 3 0 0 0 .1 2.5l.4.7.8-2zm-67.1-3.6c.3-.3.5-.8.5-1.2 0-.5.3-1 .7-1.4l.7-.6-.6-.5c-.6-.6-.6-1 0-2.1a4 4 0 0 0 .5-1.5c0-.5-2-2.7-3-3-.6-.2-2.3.2-2.8.7-.1.2-.5 1.4-.7 2.6-.4 2.1-.4 2.4 0 3.3.3.6.6 1.6.7 2.3.2.7.6 1.5 1 1.9.8.7 2 1 2.2.4l.8-.9zm-4.8-12 1.5-.9c1.3-.6 1.6-1.4 1.2-3-.2-1-.2-1.7 0-2.5l1.2-7.3a11 11 0 0 1 1-3.7l.2-.8c0-.5.3-1.7.8-2.9l.3-1.8c.1-.7.5-1.7.8-2.2a4 4 0 0 0 .7-1.4l.8-1.9c.5-.8.8-1.8.8-2.4 0-.6.1-1.5.3-2.2.3-1 .3-1.7 0-3.6-.4-2.9-.4-3.6 0-4.3.6-1 .4-6.4-.3-8-.4-1-.6-1.7-.5-2.6 0-1.3 0-1.5-1-2.8-1-1.2-1.1-1.6-1-2.2.1-.8 0-1-1.8-2.9-2.4-2.4-3.3-4-3.7-6.4l-.3-2c-.2-.2.2-3 .7-4.9.3-1 .6-1.8 1.1-2.2l.7-.6-.4-2c-.6-3-1-5.5-1.1-8.5a8.9 8.9 0 0 0-.5-3l-2-.1c-1.4 0-2-.1-2.3-.5-.5-.4-.8-.4-1.7-.3-.6.1-1.3.3-1.5.5-.5.3-.4 2.3.1 3.6.3.7.5 2.6.7 4.6.3 4.8.4 6.4.9 10.6l1.2 11.9c.3 3.6.2 4-.9 3.7-.6-.2-.6-.2-.2 5.2l.3 4.2.4 2c.2.8.4 1.7.3 2-.1.3 0 2 .2 4l.4 5.7c0 1.3.2 3.5.4 4.8l.3 2.8c0 .2-.5.4-1 .5-.7.1-.8.3-.5.6l.5 6 .4 6.8c.9 9.1 1 10.2 1.3 10.5.3.5.4.5 1.2-.1zm38.8-4.5c-.2-1.1-.9-9.5-1-11.8 0-4.4-.4-6-1.3-6-.6 0-.6 0-.4 3.7.1 3.4.1 3.8-.3 4.2-.5.5-.5.8-.4 3.3.1 2.5.1 2.9-.3 3.4l-.8.5c-.5 0-.5 1 0 2.4l.3 1h4.4zm-6.3-.4c0-.2-.2-.1-.2.2 0 .3 0 .4.2.3v-.5zm-.5-1.8c0-.4-.1-.2-.2.4 0 .6.1.9.2.6v-1zm.5-10.4c0-.2-.2-.1-.2.2 0 .3 0 .4.2.4v-.6zm4.3-7.6c.5-.2.5-.5.4-2.6 0-1.2-.2-2.6-.3-3l-.1-.6-.7.8c-.5.6-.6 1-.6 3 0 2.8.1 3 1.3 2.4zm0-9.4c0-1.2 0-1.4-.3-1.1-.2.4 0 2.6.2 2.6l.1-1.5zm-.2-4.2v-1.1l-.2-1.4c0-1.3-.1-1.5-.3-1-.2.4-.2 1.3-.1 2.2 0 1.7.3 2.1.6 1.3zm-41.6-58.8c0-2.7-.3-5.1-.4-5.3 0-.2-.5-.3-1-.3s-.7-.2-.9-.7c-.2-1 .1-1.7 1.2-2.8l1-1H320c-2.2 0-2.4.2-2.6 2.4-.2 1.6-.1 2.2.2 2.9.3.5.6 1.5.7 2.2l1.4 7c.2.5 1.2 1.1 1.5.9v-5.3zm-33 2-.4-.3c-.4-.1-.7-2.2-1-6 0-1.7-.3-3.3-.4-3.6-.3-.4-.3.4-.4 3.5-.1 3.3-.2 4-.6 4.7-.6.9-.4 1.4.4 1.7.8.4 2.3.4 2.3 0zm-6.8-2.6c.2-.4.3-4.3 0-5-.3-1-.7-.6-.6.6V45c-.2.7-1 .6-1.6-.2-.4-.5-.6-.6-.6-.3l-.4.7c-.6.5-1.3 0-1.4-1-.2-.6-.3-.7-1-.8-.4 0-1-.3-1.2-.5a6.8 6.8 0 0 1-1.8-3.5c0-.8 0-.8-1.1-.8-1.3 0-4.8.5-5 .7-.1.2.8 1.2 1.2 1.2l2 .8c1.3.7 1.7 1 2.9 2.9 1.5 2.4 2.6 3.1 4.7 3.2.7 0 1.5 0 1.9.2 1 .3 1.8.3 2 0zm3-1.6c0-.3-.2-.5-.5-.5-.4 0-.5.2-.5.8 0 .7 0 .8.5.5.3-.1.5-.5.5-.8zm23-.2c.4 0 1-.3 1.4-.5.5-.5.5-.6.4-2.1-.2-1.5-.3-1.7-.8-1.7-.3 0-.7-.1-.9-.3-.1-.1-.3 0-.6.5l-.6 1.4c-.6 1.2-3.1 1.3-3.7.1-.2-.5-.2-.8.2-1.3.6-1 .2-1.8-1-1.8a12.8 12.8 0 0 1-5-1.7 552.3 552.3 0 0 1 4.4 4.9c1.4 1.6 3.7 2.8 4.8 2.6l1.4-.1zm-28.5-4.2c-.1-3.1-.2-3.2-2.3-3.1-2.4 0-2.3 0-2 .5l1 1.6.6 1.3v-1.4c-.1-1.4 0-1.5.6-1.5.8 0 1.8 1.9 1.8 3.7 0 .7 0 1.2.2 1.1l.1-2.2zm5.1-.5c-.2-1.3.1-2 1-2.3.6-.2-.2-1.1-1-1.2-1.3-.1-1.4.1-1.1 2.3.4 3 .4 3.3.9 3 .3-.3.3-.7.2-1.8zm24-2.4c-.2-.7-.7-.7-1-.1-.3.4-.3.7 0 1 .3.6.3.6.6 0 .2-.2.4-.7.3-1zm-27 .1c.2-.6.2-.7-.2-.7-.3 0-.3.1-.2.4l.1.8c0 .6.2.4.4-.5zm140 163c-.5-.3-.4-1.7.2-2 .3-.2 2.2-.3 4.2-.3 3.2 0 3.7 0 4.1.5.6.6.6 1.5 0 1.8-.6.4-7.9.3-8.4 0zm-192.1-2c0-.7.4-1 1-1 .9.3.6 1.3-.3 1.4-.6 0-.7 0-.7-.4zM.6 199.1c-.3-.4-.6-.8-.6-1 0-.8 1-1.6 1.9-1.7.5 0 1.1-.2 1.4-.3a19 19 0 0 1 2.1-.7c5.5-1.6 5.5-1.6 10.3-1.6 5.6-.1 12.6-.5 14-.8.4-.1 1.5-.7 2.2-1.2a47.2 47.2 0 0 1 4.2-3.2c.3-.6-1.4-2.9-3-3.9-3.8-2.3-4-5.7-.3-9.8l2-2.4c1.8-2.7 1.8-2.7 2-5.3 0-1.4.4-3.5.7-4.6a10 10 0 0 0 0-6c-.3-1.1-.7-1.7-1.2-2-1.4-1-2.6-4.4-2-5.6.6-1 2-1.4 3.8-1.2 2.5.2 2.8.3 3.7 1 1 .9 1.8 1 3.1 0 1.7-1 3-1.5 4-1.4 1 .1 1 0 .4-1.5-.3-1-.4-1.5-.1-3.1.2-2 1.1-4.3 1.8-4.6l.6.3c.3.4.3.7-.2 2-.9 2.4-.8 4.1.2 6l.8 1.4h1.4c.8 0 1.5.1 1.7.3.4.4.4 3.9 0 5.2-.7 1.9-1.6 3.6-2.5 4.8-.5.6-.9 1.3-.9 1.6 0 .3.6 1 1.4 1.5 1.4 1 2.7 2.5 3.4 3.8l1.5 2.3c1 1.5 1.1 1.9 1.3 3.7 0 1.1.2 2.9.4 3.9.3 1.9.1 5.4-.3 7a18 18 0 0 1-5.4 7.7l-2 1.6c-.4 0-.9 1-.6 1.3.3.3 2.3 0 4.6-.7l3.6-.5c2 0 2.3-.1 3-.9 1-.8 1.1-.9 6-1.2 1.7-.2 2.1-.1 2.4.2 1 1.2-.9 2.6-3.5 2.6-.9 0-1.2 0-1.2.3 0 .7-1.1 1.3-2.4 1.3-1.2 0-1.4 0-2 1-.9 1-1 1-3.3 1.3-1.3.2-3 .6-3.6.9-1.2.5-1.7.6-5.3.5a32.6 32.6 0 0 1-7.5-.9c-1.4-.2-1.9-.5-2.6-1.2-.7-.8-.8-1-.8-2.3 0-.8-.1-1.5-.3-1.5-.5 0-3.4 1.8-4.4 2.7-1 1-3 1.9-5.3 2.3-.7.2-4.6.4-8.6.6a253 253 0 0 0-11.3.7 19 19 0 0 0-7.8 2l-.9-.7zm49.1-4.7c0-.1-.1-.2-.4-.2l-.4.2c0 .2.2.3.4.3.3 0 .4-.1.4-.3zm-6.1-1.7c.2-.9-.2-1.5-1-1.6-.5-.1-.5 0-.5.9 0 1.2.1 1.4.8 1.4.3 0 .5-.3.7-.7zm4.3-.4.5-.7c0-.2.3-.6.7-1l.6-.7h-1.4a5 5 0 0 0-1.7.3c-.3.2-.8 1.6-.8 2.3 0 .6 1.5.4 2-.2zm4-2.9a13.9 13.9 0 0 0 4.2-4.3 7 7 0 0 0 1.6-3.5c0-.3 0-.7.2-.8.4-.2.7-4.1.4-4.8-.2-.6-2.1-1.6-2.4-1.2l.2 1c.3.8.2 1-.1 1.6l-.7.6c-.2 0-1.1-1.1-1.4-1.8 0-.2-.2 0-.2.7 0 2-1.6 2.5-2 .6-.2-1-.6-1.3-2.5-1.5-1.3-.2-1.8-.4-2-.9l-1.3-1.3a25.4 25.4 0 0 1-3.7-4c-.5-.9-.9-4-.6-4.6.3-.5 1.2-.5 1.4 0l.3 2.1c.3 1.8.4 2 1.7 3.1l2.2 2c1 1 2 1.7 2.5 1.7.3 0 .8-.8 1.4-2a7 7 0 0 1 1.5-2.2l1.4-.9c1.7-1.2 2.7-.2 1.3 1.3-.8.8-.8.9-.4.9.3 0 1 .4 1.4.9 1 1 1.3 1.1 1.7.2.5-1.4.2-3-1-3.8a7 7 0 0 1-1.2-2c-.7-1.3-3-3.7-4.2-4.3-.7-.4-.7-.2.1 1.4 1.1 2.1 1.2 4 .3 3.7-.2-.1-.7-.8-1-1.5-.5-.8-.9-1.3-1.2-1.3-.3 0-.9-.4-1.3-1-.5-.8-1-1.3-1.5-1.4l-1.6-.5c-2-.7-4.6.1-5.6 1.7-.6 1-.9 5.4-.5 7 .2.6 0 .8-1.8 2.7a75.3 75.3 0 0 0-2.5 2.5c-.8.9-2.2 3.8-2.2 4.5 0 1.2 2 3.1 5.4 5.2l2.6 1.7c1.5 1.3 2.6 1 2.6-.5 0-.4.3-1.8.8-3 .5-1.5.8-2.9.8-3.8l.1-2c.3-.5 1.1-.5 1.5.2.3.6.3 2.4 0 3.5a58.8 58.8 0 0 0-1.3 5.4c-.3 1 0 1.2 1.4 1 1.2-.2 1.2-.2 1.6-1.5.2-.8.5-2.5.6-4 .3-2 .3-2.6 0-3.4-.5-1-.5-1 0-1.4.7-.4 1.3-.3 1.5.2l.4 2.3c.3 1.6.3 2.3 0 3.3-.2.7-.4 2.4-.4 3.7a15 15 0 0 1-.3 2.5c-.2.4 1 .3 1.8 0zm-17-9.2c-.5-.4 0-1.4 1.2-2.3l2.4-2c1.5-1 2.3-1.3 2.5-.4 0 .5-1 1.5-3.2 3.2-1.9 1.5-2.4 1.7-2.9 1.5zm8.6-4c-.8-.8-.8-1.7 0-1.8.8-.1 1.9 1.3 1.6 2-.2.8-.8.7-1.6-.1zm5.5-7.1c-2.7-1.8-3.3-2.2-3.5-2.8 0-.3-.4-.8-.8-1-.7-.7-.7-1.2 0-1.4 1.2-.3 2.2.2 2.5 1 .1.6.7 1.2 2 2 1.5 1 1.7 1.3 1.8 2 .1 1.2-.4 1.2-2 .2zm5 4.4c.3-.2.4-.4.1-1.2-.3-1-.7-1.1-1.3-.1-.5 1-.5 1.5 0 2.3l.5.6.1-.7c0-.3.3-.7.5-.9zm-5.7-14.4.5-.8c.1-.4.4-.6.8-.6.7 0 1-.2 2-1.9.8-1.3.9-1.6.9-3.3 0-1 0-2 .2-2.2.5-.6 0-.7-2.8-.7-2.5 0-2.8 0-4 .8-.6.4-1.2.8-1.2 1 0 .5-1.3 1.5-2 1.5-.4 0-1-.4-1.7-1l-1-1-.1.8c-.1 1.2-1 1.3-1.8 0-.3-.5-.8-1-1-1-.4 0-.2.6 1.4 2.8.7 1 1.2 2 1.3 2.6.2 1.2.8 2.6 1.2 2.6a699 699 0 0 0 7.3.4zm-1.9-6c-.5-.4-.4-1.3.2-1.5.2 0 .6.1.8.4.8.7 0 1.7-1 1zm-29 46.2c-.3-.3-.2-1 .2-1.2.5-.2 1 .2.9.7-.1.5-.8.8-1.1.5zm192.4-13.7c-1.8-3.6-2-4.7-1.2-5 .6-.2 1 .2 2.1 2.8 1.3 2.8 1.4 3.6.3 3.6-.5 0-.7-.3-1.2-1.4zm4.4 1c-.6-.6-.8-1.9-.5-4.5.2-2 .3-2.3.7-2.4 1-.2 1.2.4 1.2 3.7 0 2.8 0 3.1-.5 3.4-.4.2-.6.1-.9-.2zm93.1-3.8c-.6-.5-1.2-.7-1.4-.6l-3.4.3c-3 0-3.7-.1-3.4-1.1.3-.6 1-.8 3.3-.9 1.8 0 4.6-.3 8.4-.8 1.3-.1 1.3-.1 1.6.7.3.9.7 1 2.2.6 1.6-.5 3.5-.5 3.9 0 .6 1 0 1.4-2.4 2-1.6.4-3.1.6-5 .6-2.7 0-2.8 0-3.8-.8zm132.3.3-.2-2.4c0-1.5.2-2.4.5-2.8.4-.7 1.3-.9 1.5-.2.3.7.2 5-.1 5.3-.4.4-1.5.4-1.7 0zm-127.5-4.3c-.3-.3-.4-.6-.3-1 .2-.6.5-.7 2.4-1 1.8-.2 2.7.3 2.4 1.2-.2.6-.5.8-2.5 1-1 .1-1.6 0-2-.2zm-9.4-1.7v-1l-1.5.9c-1.5.8-2.4 1-2.6.4-.4-.8.5-1.5 3.5-3 4.2-2 6.4-2.7 7.9-2.7 2.5 0 5-1.8 4.4-3-.3-.5-.3-.5-.8 0-.6.6-1.8 1.1-2.4 1.1-.3 0-.6-.2-.8-.6-.2-.5-.5-.6-2.2-.7-1.7-.1-2.1-.3-2.7-.8-1.3-1.4-1.7-2.5-1.9-6 0-1.9-.3-3.8-.5-4.4-.2-.6-.5-2.5-.7-4.3l-.5-4.9-.1-1.7-.9.1c-1.5.2-2.3-1.5-1-2.1.5-.2.8-.2 1.3 0 .4.2.9.3 1.3.2a6 6 0 0 1 1-.3c.7 0 1.8-1.4 2.2-2.9.5-1.5 1-2 2.3-2 .6 0 1-.1 1.2-.3.2-.3 1.4-.3 1.9 0a32 32 0 0 1 2.7 12c0 1.2.1 1.5.8 2.3.4.4 1 .8 1.3.8.4 0 .6.2.7.5.1.3.3.6.5.7.8.3 1.2 1.6 1.2 4.1.1 2 0 2.5-.3 2.8-.4.2-.4.4 0 1.2.4 1.1.4 2-.1 2.3-.5.2-1.5-.6-1.5-1.3 0-.3 0-.4-.4-.3-.2 0-.4.3-.4.5l-.4 1.1c-.5.8-.5.8.5 1.7 1.2 1.1 1.3 1.8.3 3.2a6.7 6.7 0 0 1-5 2.8c-1.2 0-3.5.6-4.8 1.1l-1.3.5-1 .6-.8.6.7.2c1 .2.5 1.5-.7 1.5-.4 0-.5-.1-.4-.9zm9.6-11.2c1.5-1.2 2-1.9 2.2-3.6.1-1 0-1.4-.8-3l-1-2.4c0-.8-.5-1.8-1-2-.9-.2-.9-2.1 0-4.3.3-.7.3-1.2-.1-3.3-.6-3-1-4-2-4.6-.8-.4-1-.3-1.7.7-.3.4-.4.7-.2 1 .2.4.2.8.1 1.1 0 .4-.4.5-1.3.5-1 0-1.1.1-1 .4.1.3.5.4 1.4.4 2.5 0 3.6.9 2.4 2-.3.3-.5.7-.5 1l-.6 1.4c-.4.8-.5 1.3-.4 2 .5 2.7.5 3-.2 3.9l-.7.8.7.4c.8.5.8 1 .1 2.2-.6 1.2-1.3 3.6-1.3 4.4 0 1 1.6 2 3.5 2 .8 0 1.3-.2 2.4-1zm-6.9-10.7c.6-.6.8-1 .8-2.4 0-.9.2-2 .3-2.4.2-.8.1-1-.7-1.3-1.7-.9-1.8-.8-1.8 2.4 0 1.8.1 3.2.3 3.6l.4.7.7-.6zm103 20.8c-.2-.2-.2-1.5.1-2.3.2-.4.7-.8 1.4-1.2 1-.4 1.2-.6 1.6-2 .9-2.7 1.6-3.4 2.4-2.2.3.4.4.4.5 0 .1-.2.4-.3 1-.3.9.1 1 1.2.3 3-.7 1.6-1.6 2.2-1.8 1.2 0-.3-.2-.5-.3-.5-.2 0-1 .7-3 2.6a7 7 0 0 0-.8 1c-.5.8-1 1.1-1.4.7zm-86.4-4.8c-.7-.5-.7-.5-.8-7-.1-5.6-.2-6.8-.6-7.6a97 97 0 0 1-2.2-14.7 291 291 0 0 1-1.3-25.4c-.2-8.2-.1-8.9.3-9 1-.4 1.3.2 1.3 2.8v5c.1 1.8.2 2.8.5 3 .4.4.4.5.5 10.5a108.1 108.1 0 0 0 1.2 16.4c.4 4.9 1 8.7 1.6 9.8.5.9.5 1.4.4 3.1l-.1 2.3.6 9.7c0 1.7-.3 2-1.4 1.1zm96-1.7c-.4-.6-1.3-3.1-1.3-3.9 0-1.6 1.6-1.7 2.3-.1.3.8.5 2 .4 3.4 0 .7-1 1-1.3.6zm-119.3-1.2c-1 0-1.4-.3-2.3-1.3-1.2-1.1-1.2-1.2-1-2.4l.2-3.9c0-1.8 0-2.8.3-3.3.2-.5.3-1.2.2-2a12 12 0 0 1 1-5.3l.3-.7c0-.7 1.4-1.8 2-1.7.7 0 .8.2.8 1 .1 1-.1 1.3-1.4 2.3-.6.4-.7.7-.8 3 0 1.3-.3 2.8-.5 3.2-.3.5-.3 1.2-.2 2.4.4 4.5 1.1 6 3.3 6.6a5 5 0 0 1 1.5.5 1 1 0 0 1-.2 1.5c-.5.3-.9.3-3.2.1zm-97-12.1c-.7-.2-.8-.6-.3-1.1.8-.8 2.5 0 1.8.8-.3.4-.4.5-1.5.3zm89.1-4.3c-.2-.4-.2-.8 0-1.3.3-.8.3-2.5 0-2.5-.2 0-.4-.2-.5-.4-.2-.4-.1-.7.4-1.3l.6-.7-.6-.5c-.5-.4-.5-.6-.3-1.2.1-.4.5-.8.7-.8 1.1-.2 5.5 3.5 5.5 4.7 0 .9-.5 1.3-1.4 1.3-1 0-2.3 1-3.1 2.2-.7 1.1-.8 1.2-1.3.5zm2.5-4.4c.4-.4.2-1-.4-1-.4 0-.5.2-.5.7 0 .7.3.9.9.3zm-98.5 3.8c-1-.4-.7-1.2.4-1.3 1 0 1.6.6 1.1 1.2-.4.4-.6.5-1.5.1zm214.4-2.6c-.1-.7.3-1.5 1.2-2 .6-.4.8-.7.8-1.5 0-1.3.2-1.8.8-1.8.6 0 1 .5 1.1 2 .2 1.4.2 1.4-.9 2.6-.9 1-1.3 1.2-2 1.2-.6 0-.9-.1-1-.5zm-190.7-.5c-.6-.6-.6-.9-.2-1.8.4-.8 1.2-1 2-.5s.8 1.4 0 2.2c-.7.7-1.3.7-1.8 0zm-23.3 0-.7-1.1c-.7-1.6.7-1.7 1.5-.2.6 1.2.2 1.8-.8 1.2zm15.9-2c-.6-.5-.9-1.7-.5-2.2.5-.5 2.2-.5 2.7.1.6.7.6 1.2-.1 1.9-.7.6-1.4.7-2.1.2zm85.7-.8c-.2-.4-.6-1.6-.8-2.6-.3-1.6-.2-1.8.2-2.3.6-.6 1.4-.7 2.1-.2.5.3.6.3 1.1-.3.9-.9 2-.7 2.6.4.5.9.5 1 0 1.8-.5 1.1-1.6 1.3-2.5.3l-.6-.7-.3.7a7 7 0 0 0-.5 2.1c0 1.9-.7 2.3-1.3.8zm-93.7-.3c-.3-.3-.5-.6-.4-1 .1-.4 0-1-.2-1.2-.5-.7-.4-1.2.2-1.8l1.1-1.1c.3-.4.7-.6 1.2-.6 1.3.1 1.5 0 1.2-.3-.2-.2-.4-.6-.4-1 0-.6.2-.8.8-1 .5-.3.8-.6.8-.9 0-.2.4-.8.9-1.3 1.2-1.1 2.3-1 3.3.2 1 1 1 1.7.4 2.3-.5.4-.6.4-1-.1l-.4-1c0-.4-.6-.6-1.2-.3-.5.2-.6.5-.8 1.6-.2 1.7-.5 2-1.5 2-.7 0-.7.1-.4.8.3.6.2.7-.7 1.6l-1.4.8c-.4 0-.6.7-.6 1.6 0 1-.3 1.2-.9.7zm-157.3-.6c-.8-.7-1.2-2.7-.8-4.6.6-3.1.8-3.7 1.4-4.5.6-.9 1.6-1 1.9-.2 0 .3-.2 1.2-.7 2.3-.8 1.6-.9 2-.9 4.5 0 1.4 0 2.7-.2 2.8 0 .1-.4 0-.7-.3zm362-1.9.3-.4c.4-.1.8.2.5.5-.2.2-.6.2-.7 0zm-191-2-1-.7.2-1.6c0-1.5.1-1.7.6-1.7.3 0 .7 0 .9.3.4.4 1.6.5 1.6.1 0-.6 1-1.3 2-1.3 1.2 0 1.5.5 1.4 2.3l-.1 1.5-1.4.1c-1 0-1.4 0-1.4-.2s-.1-.2-.4 0l-.4.7c0 .1-.2.5-.5.7-.4.4-.5.3-1.4-.2zm-3-.1c-.6-.4-.6-4.1 0-4.1.2 0 .4.1.5.4l.5 1c.7 1.3 0 3.3-1 2.7zm210-3.4-.4-2.7-.6-3.4c-.3-.9-.3-1.2 0-1.5 1-1.2 1.8.3 2.2 4.2.2 2.4.2 3.1 0 3.4-.5.6-.8.6-1.1 0zm-155-5.1c-.4-.7-.1-2 .5-2.7.4-.4 1.2-2.7 1.9-5.3.2-.7.6-1.6 1-2 .6-.6.7-.6 1-.2.2.2.3.9.2 1.6-.1 1 0 1.2.4 1.3 1.1.4.5 2-1.9 5l-1.3 1.8c-.7 1-1.4 1.3-1.8.5zm42.8-5c-.2-.2-.5-1.4-.7-3.2l-.7-5.2a177.7 177.7 0 0 1-1.5-16.6c-.2-.6-.2-.8.2-1.2.6-.5 1.2-.2 1.8 1.2.5.9.5 1.7.6 6.8 0 3.2.2 6.3.4 6.8a68.8 68.8 0 0 1 1.2 9.7c.1 1-.2 2.2-.7 2.2 0 0-.4-.2-.6-.5zm-44.9-3.2c-.4-.7-.7-5.5-1-14-.3-6.6-.2-7.5.7-7.4.6.1.8 1.3.9 4.6v3.7l.4 5.3c.4 5.6.4 8.2-.3 8.3-.2 0-.5-.2-.7-.5zm9.1-3.2v-3.4c.2-2.7.1-3.3-.4-4.7l-.5-2.4c0-.6-.5-3-1.2-5.5-.6-2.4-1-5-.7-5.2 1-1 1.7 1.1 3.1 8a8 8 0 0 0 1 3c.5.5.6.8.5 4.8a24 24 0 0 1-.4 4.9c-.3.7-1 1-1.4.5zm22.5-.3c-.4-.4-.5-1.1-.8-6-.5-8.4-.5-14.3 0-15 .5-.8 1.1-.8 1.4-.2.2.3.2 2.4 0 5.3v6.3c.6 3.4 1 8.2.6 9-.3.8-.6 1-1.2.6zm-84.6-6c-.5-.9-.9-3.3-1.4-8.6-1-10.5-1.4-19-.9-19.6 1-1.2 1.3 0 1.5 5.2 0 2.5.2 5 .4 5.5l.5 6c.1 2.7.4 5.8.6 6.8.6 3.8.3 6.2-.7 4.6zm66.8 0-.2-3.2c0-4-.4-7.6-.8-9.1-.4-1.3-.6-2.6-1.2-5.8a33.4 33.4 0 0 1-1.5-8.6c0-1.5 0-1.9.4-2.3.7-.7 1.2 0 1.4 2.6l.5 3.2a115.9 115.9 0 0 1 2.8 18c0 5.2 0 5.3-.6 5.4-.3 0-.6 0-.8-.3zm123.7 0c-.7-.1-2.4-1.9-2.6-2.7-.2-.4 0-.8.8-1.6 1.2-1.2 2.2-1.5 3.3-1 .9.5 1.9 2.1 2.2 3.7.1.7 0 .8-.6 1-1.1.5-2.6.7-3.1.6zm-99.6-.9c-.2-.1-.3-1-.3-1.9l-.3-3.6a171 171 0 0 1-1-8.7c-.2-.5-.2-1.1-.2-1.4.2-.6 1.1-.6 1.4 0a44 44 0 0 1 1.5 11.9c0 4-.2 4.6-1.1 3.7zm-87.9-6c-.2-.3-.3-1.3-.3-3 0-1.4 0-3.7-.2-5-.2-1.4-.3-5.2-.4-8.5a169 169 0 0 0-.8-14.4c0-2.3 0-2.8.4-3.2.6-.5 1.3-.2 1.6 1 .2.3.3 3.1.4 6.1.3 16.5.4 19.6.6 20.9.3 1.6.4 5.3.1 6-.2.4-1 .5-1.4 0zm40.2-.4c-.5-.6.3-2.7 2.7-7 .6-1 1.3-1.5 1.8-1.2.4.3.3 1.4-.2 2.2l-.6 1.1c-.3 1-2.7 5.3-3 5.3l-.7-.4zm27.7-5.6c-.2-.3-.5-.8-.5-1.1l-.3-13.2a275.8 275.8 0 0 0-.8-17.8c-.3-3.6-.4-4.8-.8-5.4-.9-1.3-1.2-3.4-.9-6 .3-2.2.7-3 1.4-2.7.4.1.8 1.8 1 4.2l.5 4a236.8 236.8 0 0 1 1.1 24.4l.3 5c.1 1.7.3 3.7.5 4.5.3.8.4 1.8.3 2l-.3 1.3c-.1 1-1 1.4-1.5.8zm-64.4-1c-.8-.9-1-1.8-.4-2.5.5-.7.5-1.2.5-14.2 0-11.2 0-13.4.3-13.5.7-.3 1.1.6 1.4 2.8.2 2.4.1 27.4-.2 27.8-.2.4-1 .3-1.6-.3zm93.2-.8c-1.7-.3-2.2-.8-2-1.5.2-.8 1-1.1 2.3-.8.6.2 1.8.3 2.7.3 1.1 0 1.7.1 2 .5.6.6.2 1.1-1.2 1.5-1.3.4-2 .4-3.8 0zm-14-2c-1.4-1-.9-2 .8-1.8a3 3 0 0 1 1.4.6c.3.3.3.5 0 1-.6.8-1.4 1-2.3.3zm108-11.4c-.5-.6-1-1.2-1-1.4 0-.2-.4-.7-.9-1-1.5-1.4-1.7-2-1.7-4.3 0-1.7 0-2.2.5-2.8.5-.7.7-.8 2-.8.9 0 1.7-.2 2.5-.6 1.6-.9 2.1-.9 2.8-.1 1 1 1.2 1.8 1.4 4 .2 3.3-.6 5.8-2 6.4-.5.2-.9.5-.9.6 0 .4-.8 1-1.2 1-.3 0-1-.4-1.5-1zm2.2-2.5c-.2-.5-.3-.4-.3.3 0 .5 0 .7.3.5.2-.3.2-.5 0-.8zm1.6-4.5c0-.6-.2-1.2-.3-1.2-.1 0-.3.6-.3 1.2 0 .7.2 1.2.3 1.2.1 0 .3-.5.3-1.2zm-100.5 7.6c-1.1-.1-1.5-.7-1.6-2.3 0-2.2-.6-13.6-.7-15.3a93 93 0 0 0-.8-6.5c-.2-1.2.2-2.4.9-2.4.8 0 1 .8 1 3.2a65.4 65.4 0 0 1 1 15l.3 3c.2 2.4.5 2.7 2.6 3 2.6.4 3.8 1.3 2.7 2.2-.4.3-3 .3-5.4.1zm64.6-1.3a12.2 12.2 0 0 1-2.9-5c-.2-1.1.5-2.9 1.4-3.9.7-.7 2.2-1 3.3-.4.4.2.6.2 1.1-.1a3 3 0 0 1 1.5-.5c1 0 2.8 1 3 1.7.4 1 .2 3-.5 5.3l-.9 3.2c-.1.9-.3 1.1-.8 1.2-.7 0-.6.3-.6-4.3 0-3.2 0-3.6-.3-3.6-.4 0-.5.3-.5 1.2l.3 2.2c.3 1-.2 1.6-1.3 1.6-1 0-1 .4-.3 1.2.8.8.5 1.7-.5 1.7-.5 0-1-.3-2-1.5zm.3-4.5c-.3-.3-.4.1-.2.6s.2.5.3 0l-.1-.6zm-78 4.7c-.2-.3-.5-.7-.5-1 0-.5 1.1-1.1 2.3-1.1.8 0 1.2-.1 1.3-.5l-.1-3.7a2502.2 2502.2 0 0 1-1.5-19c-.2-1 .2-1.7 1-1.7.6 0 1 1 1 2.3a1059.5 1059.5 0 0 1 1.3 18.5c.2 3 0 6.1-.5 6.5h-1c-.4-.3-.8-.3-1.4 0-1.1.3-1.2.3-1.8-.3zm122.6-1.6a124.7 124.7 0 0 1-2.8-22c-.3-5.3-.1-5.9 1.3-5.7.7 0 .9.2 1.1 1 .2.5.3 1.7.3 2.6 0 1 .2 1.9.3 2a7 7 0 0 1 0 2.3v2.9c.2.9.5 3.7.7 8.7 0 1.2.3 3.2.4 4.5.2 1.2.2 2.4.1 2.8-.2.8-1 1.2-1.4 1zM255 81.5c-.3-.2-.5-.6-.5-.8l-.8-2c-.4-.9-.8-1.9-.8-2.2l-.4-1.5c-1.2-3-2-12.1-1.7-18l.5-6.4c.1-3.4 0-3.2 3-5.6 2.6-2.1 3.4-2.7 4.8-3.1 1.5-.5 2-.4 2 .5 0 .7-.4 1.2-1.5 1.7-3.2 1.5-5 3.8-6 7.8-.4 1.6-.5 6.5-.1 7.5.1.4.3 1.3.3 2.1 0 1.2-.1 1.6-.6 2.1-.5.6-.6.8-.4 2.7l.7 4.2 1 4c.2 1.2.7 3 1.1 4.1.5 1.1.8 2.3.7 2.7 0 .7-.8.9-1.3.2zm7.1-1.3s-.2-1.7-.2-3.6c0-2.8.1-3.6.5-4 .4-.7.4-.7.9-.2.4.4.5.8.5 3.8 0 2.9 0 3.4-.5 3.8-.5.4-.9.5-1.2.2zm-29.8-1.7c-1-.5-1.2-2-1.2-9.6l-.2-9.3c-.3-2-.1-2.4.9-1.9 1 .6 1.3 1.9 1.3 7.5a255.2 255.2 0 0 0 .1 8.5c0 1.1.2 2.6.3 3.1.1.9 0 1.2-.3 1.5-.4.4-.6.4-1 .2zm36.2-1.7-.2-.9-.5-1.5c-.7-1-.8-3-.2-3.5.8-.6 1.3-.2 1.5 1.2l.4 2 .2.6.2-.6c.1-.4.4-.6.7-.5.4 0 .5.4.5 1.7v1.5l-1.2.1h-1.4zm139.2-23.1c-.3-.2-.5-.6-.5-1 0-.6.2-.8 1-1.2 2.5-1.1 5-1.1 8.8-.1 1.5.4 2 1.3 1 2-.7.7-1 .7-2.8 0-1.7-.6-3-.6-4.8 0-1.7.6-2.1.6-2.7.3zm-70.1-3.5c-.4-.7-.4-5 0-6.1.2-.5.4-.7.7-.7.6.1.8 2.2.6 5.3 0 1.5-.2 2-.5 2s-.6-.2-.8-.5zm12-.2a2 2 0 0 0-1.1-.5c-1.1 0-1.4-.7-1.4-3.7 0-2.7.2-3.1 1-2.8.8.2 1 .8.9 3.7 0 2.2 0 2.6.3 2.1.5-.6 1.8-.5 2.2.2.2.3.1.6-.3 1-.6.6-1 .7-1.6 0zm11.6.2c-.1-.2-.4-1.6-.5-3l-.6-3.3c-.6-1.2.1-2.4 1.3-2 .3.1.9 0 1.3-.2 1.4-.7 2.1 0 1.8 1.8-.2 1-.8 1.5-1.4 1.3-.4-.2-.7.3-.5 1 .1.3.3.5.6.4.5-.2 1.6.9 1.8 1.8.1.7 0 1-.4 1-.4.2-.8 0-1.2-.3l-.5-.6-.3 1.2c-.3 1.1-.9 1.5-1.4.9zm-19.8-.4-.2-3.5c0-3 0-3 .6-3.1.9-.2 1.1.7 1 4 0 2.8 0 3-.6 3-.4 0-.7 0-.8-.4zm-11.3-.1c-.5-.3-1-1.8-1-3.3 0-.8-.1-1.2-.5-1.6-.4-.4-.5-.8-.5-2.5 0-2.5.4-3 1.8-2.5l1 .3v2.1c0 3 0 2.9 1.3 2.1l1.4-.7c.5 0 1.1 1.8 1 2.9 0 1.1-.7 1.4-1.5.7-.2-.2-.8-.5-1.3-.6-.7-.1-.8 0-.8.6 0 .3.1.7.3.8.1.1.4.4.5.8.4 1-.6 1.5-1.7.9zm40.8-.1c-.3-.3-.5-.4-1.1-.2-.6.3-.8.2-1.3-.2-.7-.8-.5-1.7.5-2l.8-.2.3-2.8c.3-2.7.3-2.8 1.1-3.5 1-.8 2.4-1 2.9-.4.2.2.3.8.3 1.4 0 1.2-.6 1.8-1.4 1.4-.4-.2-.6-.2-.8 0-.3.5-.2 3 .1 4.7.4 2-.3 2.8-1.4 1.8zm36-.7a15 15 0 0 1-.3-2.6L406 43c-.3-1-.3-1.2.1-1.5.7-.4 1.6 0 1.8.8.4 1.4.6 5.6.3 6.3-.4 1-1 1-1.3.2zm-50.7-.6c-.3-.7-.2-5 0-5.4.3-.5 1-.4 1.3.3.4.7.4 4.8 0 5.3-.5.6-1 .5-1.3-.2zm31.6-.1c-.5-.7-.5-6.2 0-6.3 1.2-.2 1.7 1.3 1.5 4.3-.1 1.5-.3 2-.6 2.2-.4.2-.6.1-.9-.2zm-5.5-.2c-.3-.4-.4-1.7-.5-5-.1-3.9-.2-4.6-.7-5.3-.5-.7-.5-.7.1-1.9.8-1.3.9-1.4 3.4-1.6 1.8-.2 2-.1 2.7.5 1 1 1.5 2 1.3 3.3-.2 1.6-.6 2.2-1.3 2.1-.5 0-.6-.2-.6-1.2l-.2-1.8c-.3-.7-1.2-1-2-.7-.6.1-.6.3-.6 5.7 0 5.7 0 6.3-1 6.3l-.6-.4zm-38-.8c-.8-1.9-.2-4 .8-3 .4.3.8 2.6.6 3.2-.4.8-1 .8-1.4-.2zm9.6.5c-.6-.6-.6-5.4 0-6 .3-.2.5-.2.9 0 .3.2.4.8.5 2.6v3c-.3.7-1 1-1.4.4zm46.3.1c-.4-.1-.7-.4-.7-.7 0-.8 0-1.5.3-1.8a1556.4 1556.4 0 0 1 .7-5l.6-.2c.6-.1 1.3.7 1.3 1.5 0 .5.1.5.9.1.4-.2.6-.2.9.2.3.4.2.6-.3 1.5l-.5 1 1.2 1.2c1.3 1.3 1.5 1.7.9 2.3-.3.2-.6.2-1.3 0-.7-.3-1.1-.3-1.6 0-.8.3-1.4.3-2.4 0zm10.5 0c-.5-.4-.6-.7-.6-2.3 0-2.1.5-4 1.3-4.6.8-.6 1.1-.6 2 0 .4.5.5.7.2 1.1-.2.4-.2.6 0 .8.5.4 1.3.2 1.3-.3 0-.2.3-.7.7-1 .8-.6 1.6-.3 1.6.6 0 .4.5 1.2 1 1.9 1 1.3 1.1 2.4.2 3-.5.3-.6.3-1.2-.3-.7-1-1.3-1.5-2-2-.4-.4-.6-.4-1-.1-.3.2-.6.2-1 0-.6-.1-.7 0-.8.3-.3.7 0 1.3.6 1.5.7.1 1 .8.5 1.3-.4.6-2 .5-2.8 0zm-16.3-1c-.8-.9-1.5-4.8-1-5.4.6-.7 1.3-.5 1.7.5.3.6.6 1 1 1 1 .3 1.1 1.5.3 2.4l-.3.6c.2 1.3-.8 1.7-1.7.8zM350 43.4c-.3-.3-.3-1.1 0-1.3.6-.4 1.4.1 1.3.7 0 .6-1 1-1.3.6zm-95.7-5.7c-.7-.6-.7-1-.2-2.8l.4-2.1c0-.5.4-1.3 1-2.1a23.4 23.4 0 0 1 6.6-7.6l1.2-.7c.5-.4 5.2-2.5 6.2-2.9l6.5-1.9a54.8 54.8 0 0 1 26-.6c1.5.4 1.7.5 1.8 1.3 0 .4 0 .5-1.4.5l-4.6-.5c-4.1-.6-10.4-.6-13.7 0-5 .9-4.8.8-9.5 2.1l-1.2.5c-.2.2-.9.4-1.4.5-.5.2-1.1.3-1.3.5l-2.3.9a13 13 0 0 0-3 1.6c-.5.5-1.2.9-1.4.9-.5 0-2.8 2-4 3.8-1.5 1.9-4.1 7.2-4.1 8.2 0 .2-.3.5-.6.7-.4.2-.6.1-1-.3zm65.3-4.1c-.2-.1-.2-.4-.2-.7 0-.7 3.9-2.5 6-2.7a64.1 64.1 0 0 0 13.9-2.5c1 0 1.4-.3 1.8-.8 2.9-3.9 3.9-5 5.4-5.7 2-1.2 4.5-1.6 8-1.4 5.2.2 7 1.8 5.7 4.8-.4 1-.4 1 .3 1 .5 0 .7-.3 1-.7.3-1 1-1 1.6-.3.4.4 1 .7 1.7.8 1.3.2 1.9 1 1.2 1.5-.6.6-1.8.8-4.6.9-2.7 0-3.3-.2-3-1.4 0-.4 0-.6-.2-.6s-.2-.4-.1-1.3l.1-1.3-1.6-.4c-2.2-.7-6.6-.4-8.6.5-1.6.7-4.2 3.3-4.5 4.4-.2 1-1 1.3-4 2a23 23 0 0 0-2.4.5c-.4.3.8.6 2 .5 1.6-.2 2.4.1 2 1-.2.3-.9.5-2.6.7l-3.4.4-5.4.4a594.7 594.7 0 0 0-10.1.4zm64.7-4.5c-1-.2-3.3-.8-4-1.3-.3-.1-1.1-.8-1.8-1.4-1-.8-1.2-1.3-1.2-1.7.2-1.1 1.5-1 3.8.6 1.2.7 2.8 1.6 3.6 1.9 1.6.5 2.3 1.1 1.8 1.7-.3.3-.6.4-2.2.2zm-35.2-1.3c-.6-.6-.5-1.3.3-2 1-1 1.6-1.2 3.2-1.4 1.2-.2 1.4-.2 2 .3.8.9.5 1.5-.6 1.6-1.1 0-2.3.5-3 1.1-.8.7-1.4.8-1.9.4zm41.2-.6c-1.4-.2-3.4-1-4.5-1.8-1.4-1-3-1.7-3.4-1.7l-1.9-.7c-4.6-2-8.5-2.6-10.9-1.3-.6.3-1.2.7-1.2.9-.1.2.3.5.9.7 1.3.6 2.2 1.4 2.2 2 0 .5-.2.5-1 .4-2-.2-4.7-1.2-5.2-1.8-.6-.8-.6-2.4.1-3.2.3-.4 1.2-1 2-1.4 1.3-.6 1.7-.7 5.3-.7h4l2.3 1 4.8 2.5c5.5 2.8 5.8 3 8.2 3.2 2.7.3 3.6.8 3.4 1.6-.2.4-.4.5-2.3.5l-2.8-.2zM293.6 25c-1.6 0-2.2-.2-2.5-.5-.5-.7 0-1.3 1.6-1.5 2.2-.3 6.3-.3 7.1 0 .8.4 1 1.2.4 1.6-.4.3-3.8.5-6.6.4zm35-.3c-.8-.4-1-.6-.8-1.2 0-.7.8-1 1.9-.9.4 0 .7.3.8 1 .5 1.7-.2 2-2 1zm9.5-2c-2.9-.8-2.8-2.7 0-2.2a8 8 0 0 0 3.2-.2c1.8-.3 2-.3 2.6 0 .8.6.7 1.5-.3 2-1.2.6-4 .7-5.6.3zM309 20.6c-.9-.6-3-2.6-4.7-4.3a46 46 0 0 0-4.6-4.1c-4-2.7-8.4-2.6-17.6.4-2 .6-3 .4-3-.6s.4-1.2 3.6-2.2c4.3-1.4 7.3-2 10.5-2 2.7 0 5.5.8 7 2a76.3 76.3 0 0 1 11.5 11.6c0 .8-1.2.5-2.7-.8zm14.2-2c-.6-.7 0-1.4 1.2-1.8 1.8-.5 3.9-1.3 5-1.8.5-.3 1.6-.7 2.4-.8.8-.2 2.3-.8 3.4-1.4 1-.6 2.3-1 2.7-1 1.5 0 1.5 1.8 0 2.5a98.2 98.2 0 0 1-14 4.6l-.7-.4zm-4-6.6c-.3-1 .5-2.1 4.1-5.8A49.4 49.4 0 0 1 330 .6c1-.8 2.1-.8 2.9 0 .6.5.3 1.3-.6 1.6-1 .4-4.7 3.3-8.2 6.7-3.4 3.4-4.5 4-4.8 3.2z"/>
</svg>
