<?xml version="1.0" encoding="utf-8"?>
<svg xmlns="http://www.w3.org/2000/svg" xmlns:svg="http://www.w3.org/2000/svg" version="1.1" viewBox="0 0 504 279">
  <title>The rats lean over Tom Kitten and start to encase him in pastry.</title>
  <path d="M82.7 278.5a45.3 45.3 0 0 1-24.4-12.1c-2.6-2.6-2.9-3-2.9-5l-.3-3.7c-.3-2.5-.3-2.7.3-4.4l.6-2.3a32.1 32.1 0 0 1 5-8.6l2-2.7a28.3 28.3 0 0 1 4.8-5 196 196 0 0 0 7-6c.8-.5 2.2-1.7 3.1-2.7 1-1 2.4-2.4 3.2-3 2.5-2.3 8.8-9 9.7-10.4.5-.7 1-1.8 1-2.3.2-1 .1-1-1.2-2.5-.9-.8-1.7-1.4-2-1.4-.4 0-1.9.7-3.5 1.5l-2.8 1.5h-2.6c-2.6 0-2.6 0-3.3.9-1 1.1-1.7 1.4-3.3 1.4-.8 0-2.2.2-3.2.5-1.5.3-1.9.3-2.8 0-.9-.3-1.3-.3-2 0-.6.2-1.4.3-1.7.2-.6 0-.7-.2-.7-1 0-1.3-.2-1.3-2.7-.2-1.7.8-2 .8-2.8.5l-1.5-.3a15 15 0 0 0-4.8 2c-.7.4-1 .5-3.3.2-1.4-.2-3.2-.3-4.2-.2-1.9.2-2.2 0-1.5-1l.6-.8c0-.4-1.5-.1-2.6.4-1.7.7-2.7.7-3-.2-.2-.6-.2-.6-1.2-.2-2.5 1-6.2 1.7-6.8 1.2-1-.9.3-2.8 2-3.1a37.5 37.5 0 0 0 6.7-2.2c.7 0 2.5-.7 2.5-1 0-.2-1.6.1-2 .5l-1.5.2c-1.1 0-3.2.7-6.2 2l-1.8.6-2.1.9c-4 2-9 3-11.2 2-1.4-.6-2-1.5-1.7-2.3.2-.3.3-.7.2-.8A9533.2 9533.2 0 0 1 8 209c-2.7-.2-3.9-1.7-2.6-3 .6-.6.8-.6 4-.4 2 0 3.8.2 4 .3.3 0 .7-.3 1.3-1l.8-1.2c-.4-.3-3-1.2-3.8-1.2-2.3 0-8.4-1.2-10.3-2-1.3-.6-1.8-1.6-1-2.8.6-1 1.2-1.2 3-.4 1.5.7 4.8 1.7 9 2.7l4.4 1.4c1 .4 1.9.6 2.3.5 1-.3.6-.7-.7-1-.7-.2-1.6-.6-2-1-.9-.6-3-1.2-5-1.5-1.2-.1-3.6-.9-5.6-1.8-1.8-.8-.8-2.2 1.1-1.8l8.5 2.4c1.1.4 1.4.4 2.9-.4 1.2-.6 1.2-.6.5-.6-1.9 0-5.5-1.7-5.8-2.6-.4-1.3.5-1.8 2.5-1.5 1.2.2 1.3.1 1.4-.7.3-1.3.8-1.4 4.9-1 2.6.2 3.8.2 4.4 0a19 19 0 0 1 3.8-.3c2.9 0 3.2 0 3.5.5.3.7-.1 1.1-1.6 1.6-1.8.6-3.5 3-3.1 4 0 .3.8.5 1.8.6a24.1 24.1 0 0 1 4.2.8c.4 0 1 .5 1.4.8.7.6.8.9.7 2-.1.6-.2 1.4-.4 1.7-.1.4 0 .4 1.3.4 1.7 0 2.2.4 1.9 1.6-.1.6 0 .8.5 1 .7.1.9.6.4 1-.5.5.4.5 3.2 0l3.4-.7 2.9-.2c.9 0 2-.2 2.6-.4 1.3-.6 9.1-3.3 10.6-3.7 1-.2 1.2-.2 1.6.2.7.6.2 1.2-2 2.3-1 .6-2.1 1.4-2.6 2-.4.5-1.1 1-1.6 1l-1.7.7a35 35 0 0 0-8.5 3.5c0 .3 3 0 5.6-.8 2.6-.7 3.7-1.2 5.3-2.3.5-.4 1.2-.7 1.7-.7 1.5 0 2.4-.5 3-1.7 1-1.5 2.2-2 5-2 2.6 0 4 .4 5.1 1.5.6.5.9.6 3.3.5 3.1 0 5.4-.4 7-1 .9-.4 1-.6.8-.9-.5-.6-2-.4-3.1.4-1.9 1.3-2.5.6-1.1-1l.8-1c0-.2-.7-.3-1.5-.4a12.6 12.6 0 0 1-9.8-8.2c0-.5-.5-1.6-.9-2.4l-.9-2.3a92 92 0 0 1-.3-7.2c0-8.1-.2-9.9-1-10.8a11 11 0 0 1-1.8-4.7c0-.1.6-.4 1.2-.5l1.1-.2.3-2.5c.2-2.5.3-2.6 1.4-3.6 2.4-2.2 3.6-5.4 3.5-9.9 0-2.3-.1-2.9-.7-4-.5-1-.7-1.8-.7-2.5 0-1.1 1.3-6.1 2-8 .3-.7.6-2.4.7-3.9a31 31 0 0 1 3.7-12.8c0-.4 1.5-3 2.5-4.5l1.8-2.9 1.8-2.5c1.4-1.4 5-5.7 5.8-6.8a6.4 6.4 0 0 1 2.7-2.4c.6-.3 1-.7 1-1 0-.3.6-1 1.3-1.5.8-.6 1.3-1.2 1.3-1.3 0-.2.6-1 1.2-1.9.7-.8 1.2-1.6 1.2-1.8 0-.4 2.5-3.8 4-5.5.6-.6 1-1.3 1-1.4 0-.2.7-.9 1.4-1.6a180 180 0 0 1 22.7-22.4c1.7-1.5 4.4-3.4 4.8-3.4l1.5-1.1 2.3-1.8c1.1-.6 4.8-3.2 8-5.5.9-.6 1.8-1.2 2.2-1.2.8-.2 1-.4 5.8-2.6a22 22 0 0 0 5.4-3.4c4.5-3.8 7.1-5 13.4-6.6 3.4-.9 5.1-1 7.7-.7.6 0 .7 0 .6-1.6-.1-2 .2-2.7 1.7-3.6.9-.6 1.1-.9 1-1.2l-.3-2.2c-.2-1.9-.3-1.8 1.9-2.5.3 0 .4-.3.3-.9-.5-2.1-.5-2.9 0-3.4.6-.6.8-.6 2.2-.4l1.6.1v-1c0-2 .8-5.2 1.6-6.9.9-1.7 1.9-2.4 3.1-2.4 1 0 1.5-.5 3-2.6 2.3-3.6 4.2-4.8 8.2-5.2l3.4-.2c1.7 0 3.9 2.1 5 4.8a7 7 0 0 1 .2 5c-.5 1.4-.8 3.2-.4 3.2l.9-1a25 25 0 0 1 5.7-5.4 7 7 0 0 1 6 .1c2.3 1.3 2.7 2 4.2 6.3.5 1.2.5.7-.5 9.2-.2 2.3-.2 2.5.3 3a8 8 0 0 1 1 2c.8 1.6 2.4 3.8 3 3.8.7 0 1.5 1.2 1.7 2.7.2 1.3.8 3.1 1.3 3.8.2.2.4.2.7-.2.7-.6 1.5-.3 1.8.8 0 .4.3 1.4.6 2.3l.7 2.8c.1 1 .4 1.5 1 2.2.9.8 1 1 1 2.6a134.8 134.8 0 0 0 .2 4.5c0 1 .1 1.2.4 1.2.4 0 2.6-1.3 4-2.5a25.1 25.1 0 0 1 5.8-3.7 35.1 35.1 0 0 1 20.9-3.6c.4.4.4.4-.2.7-.3.2-1 .2-1.6.1a27.5 27.5 0 0 0-14.6 2.4c-1.3.5-3.2 1.3-4.1 1.9l-3 1.7a35.2 35.2 0 0 0-5.2 3.4c-2.6 1.5-3.5 3.6-2.4 5.6.5 1 .5.9-.3 5.4l-.3 1.9.7.8c.7.6.7.9.6 1.8-.1.8 0 1 .2 1 .6 0 1.7-.5 1.7-.8l.6-.2c.3 0 .5-.1.5-.3l.4-.2c.5 0-1.5 2-2.2 2.2-.7.3-2.4 2.8-2.6 3.9 0 .5-.2 1.3-.4 1.7-.2.4-.4 1.7-.6 2.8-.3 2-.6 2.7-1.6 4-.6.9-.7 1-.5 3.3.1 1.5 0 3.3-.2 5.2-.3 2.1-.4 3.3-.2 4.1a56.4 56.4 0 0 1 1 5.1c.4 1.1.3 2.4-.2 3-.2.4-1 1-1.8 1.6-1.6 1-2.2 1-4-.2-1-.6-1.5-.6-4.2.2-1.6.4-2.6.4-7 0h-2.2c-.2.5-.3 4.7 0 4.8l1.5-.7c.7-.5 2.1-1 3.5-1.4a20 20 0 0 1 6.9-.4c7 .3 10.5 1 11.6 2.7 1 1.5 2.3 1.4 6.5-.4a56 56 0 0 1 22.9-3.2c5.3.6 6.1.8 8.8 1.6l2.7.9 1.2-1c1.9-1.7 4.6-3 6.2-3 1 0 1.7-.3 3.2-1 1.1-.7 2.7-1.2 3.6-1.4 4.6-.8 5-1 5.2-1.8.5-1.3 2.7-3 5.7-4.4 3.5-1.6 3.6-1.7 3.2-2.7a7 7 0 0 1-.4-1.2c0-.8-.5-1.3-1-1.3-.4 0-1-.4-1.6-1.5l-1.8-2.3a35.3 35.3 0 0 0-11.8-6.7c-.9-.4-2.5-2.1-2.3-2.5.2-.3 1.7.2 2.5.8l3.4 1.9c1.5.7 3.6 1.8 4.5 2.5 2 1.4 7 6 7.3 7 .2.7.7.7.7 0 0-.2.3-.7.7-1 .8-.8.8-1.3 0-2.7l-.4-1.6c0-.4-3.9-4.9-5.8-6.7a52 52 0 0 0-14-10.3 67.3 67.3 0 0 0-14.1-3.8L276 65l.7-.7c.8-.7.8-.8.5-1.5-.7-1.7-1.5-2-6.3-2.8-2-.2-2.7-.2-7 .7-2.5.6-3.3.2-1.3-.6l3-.8c3.4-.6 9-.1 9.5.8.2.3.5.5.8.5.3 0 .5.1.5.2 0 .2.4.5 1 .7a6 6 0 0 1 1.8 1.5c.8.9 1 1 3.2 1.4a41.3 41.3 0 0 1 6.5 1.8c.7 0 6.4 2.9 8.8 4.5 2.3 1.5 8.3 6.7 8.3 7.2 0 .4 1.1.1 1.3-.4l.7-1.5c1-2.5 3.6-1.7 3.6 1.2l.3 1.7c.3.6.5 2.2.5 3.6.1 2.3.2 2.5 1 3.6.6.6 1.2 1.7 1.4 2.5.3.8 1.1 2.1 2 3.2 1.3 1.7 1.8 3 1 3-.4 0-2.6-2.2-2.8-2.7 0-.2-.3-.3-.6-.3-.8 0-.6 1.1.5 2.4a10 10 0 0 0 3 2c2.5 1.3 4.5 3.7 4.1 5-.1.3-.3.4-.7.2-1.3-.8-1 .2.7 1.7 2 2 2.3 2.5 2.1 4-.1 1.2 0 1.5 1 3.3.7 1.4 1 2.3 1 3 0 1.2.8 3.3 1.5 3.8.3.3.5.3 1 0 .7-.2.7-.3.6-1.3-.3-1.6.1-2.1 1.7-2.1.8 0 1.3-.1 1.4-.3l1-3c.4-1.5.8-3 .7-3.4 0-.5.3-1 1-1.6 1-.9 1-1 1-2.4 0-1.2-.2-1.7-.6-2.1-.8-.8-.8-2.4 0-3.4.2-.4.5-1 .5-1.3 0-.5-.1-.5-.6-.4-.7.3-2 .3-4.2 0-1.7-.2-2.3-.7-2.3-1.8 0-.9.5-1.2 1.7-1.2.7 0 1.5-.2 2-.5s1-.6 1.3-.6c.3 0 .5-.4.7-1.2.3-.9.6-1.3 1.1-1.6a2 2 0 0 0 1-1.2c.2-1 1-1.5 1.3-.7.2.6-.2 1-1 1.4-.2 0-.3.2 0 .4.2.3 2.4-.1 2.7-.5.3-.3 3.8-1.9 5.7-2.6 2-.6 3-1.3 3-2.2 0-.4.2-1.2.5-1.7.3-.8.4-1.7.3-4-.1-2.6-.2-3-.9-3.9-.8-1.2-.8-1-.4-5.2.3-3.1.1-7.8-.3-7.5l-.2.7c0 .7-1.5 2.1-2 1.9-.7-.3-.7-.7.4-5.7.4-1.7 0-5.3-.5-5.3-.3 0-.4.2-.7 1.4-.2 1-.5 1.4-1.2 1.2-.5-.2-.6-.3-.4-3.3l.2-3-1.4-2c-.7-1.1-1.3-2.3-1.3-2.6 0-.4-.1-.7-.3-.8l-1-1.8-1.6-2.5c-.8-.8-1-1.3-1.7-4.5-.4-1.5-.7-2-1.7-3a10.2 10.2 0 0 0-5-3.2c-2.2-.6-3.1-.6-4.5.2-2 1.3-4.3 4.6-4.3 6.6s.5 4.2 1 4.6c.8.5.7 1 0 1.3-.8.3-1.4 0-1.6-.9-.1-.7-.9-.7-1.9 0-.5.4-1.1.7-1.4.7-.7 0-1.1.5-1.1 1.3 0 1-.7 1.9-1.4 1.9-1 0-1.2-1-1.4-5.7-.1-4.4-.7-9.6-1.2-11.6-.4-1.2-1.1-1.7-2.8-2-1.2 0-1.4 0-2.5.8-1.2 1-3.2 4.3-3.2 5.4a5 5 0 0 1-.5 1.8c-.5 1-.6 1.4-.5 4.2.1 3 .2 3.3 1 4.7l1 2.1c0 .4.5 1.5 1 2.6 1.2 2.1 1.1 2.7-.2 2.7-1.8 0-1.6.9.6 3.4 2 2.2 2.4 2.8 2.7 4.9.1.8.5 2 .8 2.6l.5 1.6a75 75 0 0 0-.2 5.1c0 .6 0 1.3.5 2.4.9 1.8.9 2.4.2 2.6-.8.3-1.2 0-2-1.8-1-1.8-1.1-3.2-.6-3.5.4-.2.2-1-.6-2.5a5.2 5.2 0 0 1-.8-3c0-1-.2-1.9-.6-2.8-.4-.8-.7-1.9-.7-2.4 0-.8-.2-1.2-1.3-2.2-1.4-1.3-3-3.5-3-4.2 0-.8.6-1.5 1.5-1.9.5-.2 1-.6 1-.8 0-.5-1-2.4-1.3-2.6-.2-.1-.7-1.4-1.1-2.8-.8-2.2-.9-2.9-.9-4.9 0-1.3.2-2.6.4-2.8l.5-2.7c.3-3 1.8-5.6 4.3-7.5 1.3-1 3.7-1.2 6-.5 1.7.4 1.8.5 2.8 2l2.6 4.7c.9 1.7 1.7 3 2 3.1 0 0 .3-.1.4-.4 0-.3.6-1 1-1.6.6-.6 1.2-1.5 1.4-2 .3-.5 1-1.3 1.8-1.8 1.3-.8 1.4-.8 4.7-.8 3.8 0 4.6.2 7.1 2.3 2 1.6 2.9 3 3.6 5.6.4 1.7.8 2.5 1.4 3l.8.9 2-.7c1.2-.4 2.7-.7 3.3-.8 1.8-.3 5.6-.2 9.7.2a439 439 0 0 0 13.3 1.5l6 .7a44.5 44.5 0 0 1 13.6 5.4c2.7 1.4 4.2 2.5 6.8 4.8 1.5 1.4 1.6 1.5 3.3 1.6 1.4 0 2.2.3 3.7 1 1 .6 2.1 1 2.3 1 .2 0 1.8-.7 3.7-1.7 3.7-1.9 4.6-2 5.2-1 .7 1 0 3-1.4 4.3-2.5 2.1-2.6 2.1-2.2 2.4l2.2.4c5.7.5 9.7 1.5 12 3a56 56 0 0 0 3.6 1.8 22.6 22.6 0 0 1 4.8 2.8c1.7 1 9.1 8.4 10.7 10.7a58.3 58.3 0 0 1 5.6 12.5l.8 1a11 11 0 0 1 2.2 6.3c0 .9.1 2.5.4 3.6a64 64 0 0 1 .4 18c-.8 6.7-1 8.2-1 10.3 0 2.6.8 6 2.3 10.6a1952.1 1952.1 0 0 1 3 8.2c.5.5 1 1.3 1.3 1.8.2.4 1 1.7 2 2.8 1.3 1.6 1.8 2 2.3 2l4.2.3c3.5.2 6.2.8 8 1.8.6.3 2 .6 3.1.8 1.2.2 3.4.8 5 1.4l4.8 1.6c2 .6 5.2 2.4 6.9 3.8 6.4 5.4 8 7.2 9 10.2.7 2 .8 3.7.5 7a12 12 0 0 1-2.9 7.6c-.5.5-1 1-1 1.2 0 .1-.6 1-1.5 2a28.6 28.6 0 0 1-6.8 6.4l-2.2 1.5c-.7.6-4.7 2.5-5.3 2.5l-2 .9a10 10 0 0 1-3.7 1c-1.3 0-2.3.3-3.7 1a14 14 0 0 1-5 1.3 20 20 0 0 1-3.8.2l-2.8.4c-1.3.3-3 .5-3.7.5l-2.4.3c-.6.1-2.4.4-4.1.5a117.2 117.2 0 0 0-25.2 4.5c-3.5.8-5.7 1.4-7.5 2.2a8 8 0 0 1-2.1.7c-1 0-3.7 1-6.2 2.3l-3 1.3a190 190 0 0 0-11.9 6c-.7.7-2.3 1.3-3.2 1.3-3 0-.3-5.3 5-9.5a57 57 0 0 1 8.6-4.7 739.5 739.5 0 0 0 13.5-5.8c.5-.5 5.6-2.1 9-2.9a159.5 159.5 0 0 0 8.6-2l3.7-1c4.4-1.2 10-2.1 14.5-2.3 2 0 3.5-.3 5.7-.9l9-2a27.6 27.6 0 0 0 11.4-5.3c1.2-.7 4.6-4 5.8-5.7a10 10 0 0 0 1.6-4c0-2.5-3.2-7-5.7-8.2-2-.9-5.2-1.8-6.2-1.8-1.2 0-4.6 1.7-5.8 2.9l-1.3 1.7c-.2.5-.9 1.3-1.5 2-.8.8-1 1.1-.7 1.4.6.7 3.2 1.8 5 2.1l2.3.4c.7 0 1.1 1 .7 1.4-.4.5-2.5.7-5.6.5-6.5-.4-10.5-.2-11.3.6-.4.4-.4.5.2.6l2 .2c1.8.2 3.3 1 3.5 1.7.2 1-.3 1.3-2.5 1.3l-5.4.3c-1.8.2-4.3.3-5.4.2l-3.6.1c-.8.2-2.6.4-4.1.4-2.7 0-2.9.1-6 1.9l-3.1 1.4c-1.3.6-3 1.6-3.8 2.4-1 1-2.2 1.6-3.7 2.2a34.5 34.5 0 0 0-8.7 4.5c-.6.4-3.5 1-5.4 1l-2.8.6c-2.2.4-2.5.4-3.5 0l-2-.6-3.6-1.3c-1.6-.6-3.2-1-3.9-1-1.2 0-4.2-1.6-4.7-2.5-.2-.4-.6-.5-2-.5-1.9 0-4.5-.8-6-1.8-1-.6-1.1-.8-1.2-2a4 4 0 0 0-.2-1.2l-1 .6c-1.6.9-4.9.8-6.5 0-1-.6-1-.7-.7-1.1.6-.6 6.3-.8 7.1-.2.4.2 1 .4 1.6.4 1 0 3.7 1.1 4.9 2.2.5.4 1.2.8 1.6.9a34.6 34.6 0 0 1 3.7.9l4.9 2c2.5 1 5 2 5.4 2 .6 0 1-.2 1.4-.9.5-.7.6-1.2.7-3 0-1.1.2-2.8.5-3.7a35 35 0 0 0 1.8-6.7c.1-1.2.5-2.2.8-2.6 1.3-1.7 1.5-2.2 3-7.6a72 72 0 0 0 2.2-15 241 241 0 0 0-3.9-29.5 54.5 54.5 0 0 0-2.5-11.7 34.3 34.3 0 0 0-3.2-10l-.9-2.5c-.7-1.3-1.2-2.8-1.5-4.4-.3-1.7-.3-1.8.3-2.2l.6-.7c0-1-3.4-7.6-5-9.6-1.2-1.8-3-3.4-3.6-3.4-.2 0-1 .5-1.5 1-.6.6-1.7 1.4-2.5 1.8-1.3.6-1.5.8-2.2 2.3l-1.6 3a5 5 0 0 0-.8 1.5 7 7 0 0 1-1.5 2c-.8.9-1.5 1.9-1.6 2.3-.1.5-.3 1-.5 1.2-.2.1-.4.4-.4.6l-.8 1.9-.8 1.9-.4 1-1.5 3.1c-1.8 4-3.3 6.9-3.8 7.7a30.2 30.2 0 0 1-3.3 4.6l-1.3 1.6a424.7 424.7 0 0 0-15.3 14.2c-.6.7-1.4 1.2-1.8 1.2-1 .1-1.4 1-1.4 3.4 0 1.5-.2 2-.7 3-.5.8-.7 1.3-.7 2.9 0 1.5-.2 2.5-.8 4.4l-1.3 3.4a8.4 8.4 0 0 1-5 3.6c-2.6.4-2.8.7-3 5a28 28 0 0 1-.4 4 57 57 0 0 1-.8 8.2c-.5 4-1.3 6-3.2 8.3l-1.4 2.3c-.1.6-.4 1.2-.5 1.3-.1.2-4.5.3-5.7.1-.4 0-.5.1-.5.6 0 .6.1.7 1.3.8 1.8.2 3.6.8 3.6 1 0 .2.3.5.7.6.5.2.7.6 1 1.4 0 .7.3 1.2.4 1.3 2.2.2 5.3.2 5.4 0 .3-.4 2-.4 2.7 0 1.6 1.1 6.8 1.7 6.7.8 0-1 0-1.4.7-1.7 1.2-.5.8-1-1.1-1.2-1 0-2-.2-2.4-.4-.4-.1-1 0-1.8.1-1.2.3-1.3.3-1.7-.3-1-1.3-.2-1.6 3.3-1.3 5 .4 6.1.8 5.5 1.8-.4.6 0 .8 1.1.8.8 0 1.7 1.2 1.7 2.1 0 .8-.2 1-1.8 1.4a4 4 0 0 0-1.2 1.3c-.7 1-1 1.2-2 1.3l-2.3.4a186 186 0 0 0-35.6-1h-9.5l-1 .8-1.2 1c-.5.2-4.6 1-5.9 1-1.3 0-1.5.2-1.2 1.6.4 1.2 0 1.9-1.6 2.6-.7.3-1.5.7-1.8 1-.4.3-4.3 1.1-7 1.5-.8 0-2.2 0-3.7-.3-3.3-.5-8-.9-14.5-1-3-.1-6.7-.3-8-.5-3.4-.3-8 0-9.7.6-.8.3-2 .5-2.6.5a70 70 0 0 1-16.6 1.7c-2.6 0-5.7.7-10 2a579 579 0 0 1-12.4 3.7c-.7 1.2-11 2.2-15.2 1.5-1.2-.2-2.6-.5-3-.7-.5-.2-1.1-.3-1.4-.2-.4.2-.4.4-.2 1.6l.2 2.7c0 1.3-1.2 5.3-1.8 6l-1 1.6-2 3a24 24 0 0 0-1.8 2.6 17 17 0 0 1-1.4 2.2l-1.5 2.2c-.4.8-1.3 2-3.5 4.5a19.4 19.4 0 0 0-2.8 4c-.6.9-.7 1.4-.5 1.6a71.8 71.8 0 0 1 12.3 3.6c2 .7 8.3.2 12-1 1.4-.4 5-.3 6 .3.8.4 2.1 2 2.5 3 1.2 3-.7 5.8-5.4 8-2.3 1-6.8 2-13.7 2.8-3 .4-5 1-5.1 1.4 0 .2 1 .6 2.1.8 2.4.6 4.4 1.4 7.6 3.1 2.4 1.2 3.2 2 3.2 2.7 0 .5.1.7.6.7 1.4 0 1.7 1.7.4 2.3-.7.3-1 .3-2.3 0a59 59 0 0 1-10.9-3.1c-1.3-.7-4.8-1.6-6-1.6l-3.3-.4c-2-.4-2.9-.4-5.3-.2-1.6.2-4.4.3-6 .3-1.7 0-3.8.1-4.5.3-.8.2-3.4.4-5.7.5-6.5.4-8.4.7-9.9 1.9-.6.5-1 .5-2 .4-1.2-.2-2.1 0-9.1 2a106.3 106.3 0 0 1-9 2.2c-4.2 1-5.4 1.2-8.4 1.3l-5.3.4-6.2.6c-2.2.1-4.7.4-5.5.6a40 40 0 0 1-10.6 0zm9.5-3.5c6.2-.1 12-.9 17.9-2.3 3.4-.9 8-1.7 11.9-2.3.9 0 3.7-.7 6.3-1.4a107.3 107.3 0 0 1 8-1.9l9-1.6c1.4-.2 4.4-.4 6.6-.4 2.2 0 4.6 0 5.4-.2 1-.2 2.1-.2 3.7 0l5 .5a76.4 76.4 0 0 1 17 3.4c4.7 1.8 6 2.2 7.2 2.1h1.4l-1-.3a6 6 0 0 1-1.5-.8c-1.2-1-4.5-2.6-5.6-2.9-.7 0-2-.6-3-1-.9-.4-2-.8-2.6-.8a7 7 0 0 1-2.6-.8c-.8-.4-1.9-.7-2.3-.7a107.2 107.2 0 0 0-14.4-2.8c-3.8-.6-4.5-.6-9.1-.4a130.3 130.3 0 0 0-15.4 1.6l-3.4.9a137 137 0 0 0-14.5 3.8c-.3 0-1.5.3-2.6.7-3.3 1-5.7 1.5-9.4 1.7a95.6 95.6 0 0 0-13.8 1.4c-2.2.2-2.5.2-5.3-.7l-3.5-1c-1.8 0-5.7-.9-8.4-2-5.7-2.2-7.2-3.3-7.2-5 0-.5-.2-1.3-.4-1.9-.4-1-.5-1.9 0-3.3a26 26 0 0 1 2.6-5.6l2.3-3.6a24.8 24.8 0 0 1 4-5.1c1.7-2.2 5-5.6 7-7 1.1-.8 2.7-2 3.5-2.8a66 66 0 0 0 16.7-14.6 9 9 0 0 0 1.6-5c-.1-1-.1-1-1.4-1.4l-2.5-.5-1.3-.1-.9 1.2c-2 2.8-4 5-4.7 5-.5 0-.7-.2-.8-.6-.1-.5-.3-.4-1.7 1.2a18 18 0 0 1-3 3c-.8.5-2.7 2.3-4.2 3.8a439.4 439.4 0 0 1-6.9 7.3c-.8.9-2 1.8-2.9 2.2a19 19 0 0 0-5.7 5.1l-2.5 2.8c-.7.8-1.8 2.2-2.2 3.1a36 36 0 0 1-2 3.4c-.7 1-1.2 1.8-1.2 2l-.6 1.5c-.4 1-.6 1.7-.6 3.6l-.2 3c-.4 1.1 1.8 5.2 4.3 7.8 1.7 1.8 3.2 2.8 5 3.2 1.5.4 1.6.5 4.3 2 1.6 1 2.6 1.2 7.8 2.2l4.5 1.1c1.6.4 2.7.6 3.4.5l5-.3zm15.8-8.8a69.2 69.2 0 0 0 17.6-4c3.7-1.2 7.2-2 8-2 .7-.1 3.5-1 3.9-1.3.2-.2 0-.7-.4-1.6-.8-1.3-1-3.3-.4-3.7l1.5-.7c1.3-.3 1.1-.5 2.7 2a5 5 0 0 0 1 1.5c.2 0 1 .6 1.8 1.4 1.4 1.2 1.5 1.3 2.7 1.2.7-.1 2.8-.3 4.7-.3 4.7-.3 5.4-.4 5.7-1 0-.4.8-1.2 1.6-1.8 2-1.5 2.4-2 2.5-3 0-.6.4-1.2 1.4-2l1.8-2.2c.3-.5.8-1 1.1-1.2l1.2-1.4a118.7 118.7 0 0 1 1-2.3c0-.2-3.2 2.6-3.2 3 0 .5-1 1.1-1.6 1.1-.7 0-.8 0-.8-.7s.8-1.7 4.6-6l3.9-4.5c.8-1 2.6-2.8 4-4a39.5 39.5 0 0 0 6.9-10.2c0-.5.4-1.4.6-2 .4-1.3.4-1.3-.4-3-.6-1.4-1-1.9-1.5-2a49 49 0 0 0-9.7 2.3c-.9.3-2 .5-2.6.5l-2.7.4a90 90 0 0 1-18.2.8l-2.4-.2v.6l.4 2.2c.5 1.8.5 2.8.2 3.7-.5 1.4-1.4 6-1.2 6.5 0 .4 0 .9-.3 1.2-.5.9-1.6 4.5-2.3 7.7-.3 1.4-.7 2.7-1.1 3.3-.6.9-.7 1.2-.7 3.3 0 2.6-.3 3.7-1.1 4-1 .3-1.3-.3-1.3-3.7 0-3.6.4-5.6 1.5-8 .4-.8.6-1.5.5-1.6 0-.1-3-.2-6.7-.2h-6.5l-1.7-.8c-1.7-.7-2-.8-5.9-.8-3.8 0-4.2-.1-5.4-.7-2.5-1.3-3-2.4-3.1-8.7-.1-2.4-.2-2.7-1.1-4.3-.5-1-1-1.8-1.2-1.8-.5 0-3.2 1.6-3.7 2.2l-1.6 1.4c-.7.4-1.6 1.1-2.1 1.6s-1.4 1-1.9 1.3c-.5.2-1.8 1.1-3 2.1a48.3 48.3 0 0 0-10.7 9.5 44.6 44.6 0 0 1-4.2 4 38.5 38.5 0 0 0-8.6 9.9c-.9 1.6-.2 4.3 1.6 6.7 1 1.2 1.4 1.6 4.1 3a39.5 39.5 0 0 0 5 2c1.6.7 2.2.7 8 1 3.6 0 7.2.2 8 .4 2.2.5 4.3.5 9.8 0zm23.8-10.2c-.3-.3-.4-.6-.3-.8l.1-.6c0-.3 1-.6 1.5-.4.3.1.4.4.3 1 0 1-1 1.4-1.6.8zm19.6-9.2c-.1-.3.2-1.2.8-2.2 1-2 1-2.5.3-2.9-.8-.3-1-1-.4-2.2.6-1.5 2.4-8.2 3.2-11.8.3-1.3 2-2.5 2.4-1.8l-.1 2.4-.2 2.1s.4-.1.7-.4c.6-.7 1.3-.5 1.3.3 0 .4-.3 1.7-.8 3-.4 1.3-.9 3-1 4-.2 1-.7 2.3-1.1 3l-1.7 2.9c-1.7 3.2-2.2 3.8-2.7 3.9-.3 0-.6-.1-.7-.3zm4.2-11c0-.3-.1-.2-.1 0 0 .4 0 .5.1.4v-.5zm-20.4 6.2.3-.4.4.4c.2.3.2.4-.3.4-.3 0-.5-.1-.4-.4zm49.4 15.5c2.5-1 3.3-1 4-.5l1.4.6c.7.1.9 0 .9-.2 0-.3-.1-.5-.3-.6l-.2-.8c0-.7 0-.7.8-.6l2 .4c.5 0 1.4.4 1.9.8 1 .8 1.8.8 3.1-.2 1.4-1 1.8-1.5 2.2-2.7.5-1.4 0-2.3-1.4-2.8-1.3-.4-6.5-.3-9.2.3l-5 .5c-3 0-3 0-4.6-.8l-2.7-1c-.5 0-2-.4-3.1-.8-1.3-.4-2.8-.7-3.9-.7-1.5 0-1.7 0-1.6.5 0 .3-.1 1-.3 1.4-.3 1-2 3.7-2.3 3.7-.1 0-.5.4-.8 1-.5.7-.5 1.1-.4 2l.4 1c.4 0 2.7-3.2 3.2-4.5.6-1.4 1.2-1.8 1.8-1.2.5.5.4 1.6-.2 3-.8 1.3-.7 2 0 1.8.4-.1 1-.5 1.3-.9 1-.9 1.7-.7 1.8.4 0 1 .1 1 1.6.5l3-.7c2.3-.4 3.1-.1 3.1.9 0 1.2.5 1.2 3.5.2zm-58.9-24.1c2-1.3 4-3 5.2-4.8 1.6-2 1.9-2.6 1.7-3.5-.2-1.2 0-1.5.9-1.5.8 0 1.6.8 1.6 1.6 0 .7-1.7 3.4-3 5-.7.8-1.3 1.5-1.3 1.7 0 .3 1 .2 1.6-.3 1-.7 4-5.1 5-7.1.1-.5.4-1 .6-1 .4-.3.3-2-.1-3-.3-.3-.4-.9-.4-1.1 0-.3-.3-.7-.5-.9a12 12 0 0 0-5-1.3c-.6 0-1.9-.2-2.8-.5l-3.5-.8c-2.2-.2-8.9-1.7-10.2-2.1-1.3-.5-2.3.2-3.6 2.2-2.2 3.4-2.3 3.7-1.3 6 .8 1.7 1.5 4.7 1.5 6.6 0 1.7.4 2.5 1.5 2.8.6.1 1.3.5 1.8.8.5.4 1.4.8 2 1 1.3.3 1.3.3 2-.5.5-.6 1.2-1 2.2-1.3 1-.4 1.8-.9 3.1-2.2 3.4-3.4 5-5.6 5.5-7.5.2-1 1-1.4 1.7-.8.5.5.5.6 0 2-.2.7-.5 1.5-.7 1.6l-1 1.3c-.3.6-2 2.6-3.8 4.4-3.1 3.1-3.7 4-2.5 4 .3 0 1-.4 1.8-.8zm-7.8-2.2c0-.4.7-1.3 2.2-2.8 2-2 3.7-4 5-5.8a4 4 0 0 0 .5-2c0-1.9.1-2.2.9-2.1.7.1 1.2 1 1.2 2.2 0 1.3-2.5 5.3-4.4 7l-2.6 2.9c-.8 1-1.2 1.2-2 1.2-.7 0-.8 0-.8-.6zm19.1.2c.8-.4 1.7-.7 2-.7.9 0 1.2-.6.6-1.1-.3-.3-.5-1-.6-2a5 5 0 0 0-.3-1.6c-.2-.1-1.5 1.2-1.5 1.6l-1 2c-.7 1-1.1 1.9-1 2 .2.6.1.6 1.8-.2zM401 218.9c4.6-2.3 6-3 10.5-4.6a67 67 0 0 0 5.2-2c.8-.5 2.6-1 4-1.4a77.3 77.3 0 0 0 7.3-1.9c.4 0 1.1 0 1.6-.2a150.6 150.6 0 0 1 19.6-4.1 59.3 59.3 0 0 1 8.6-1.6 450.6 450.6 0 0 1 13.2-2.3l5.7-1.2c2-.4 3.6-.8 4-1.1.3-.3 1.2-.8 2-1 6.5-2.5 11.7-6.5 13.2-10.1.4-1 1-2 1.3-2.4l.5-1 .5-2.1c.4-1.3.5-2.3.6-5.5 0-4.9 0-5.1-3.5-8.3-4.1-3.8-6.4-5.2-9.3-5.6-1.2-.2-2.7-.7-5-1.8a28.6 28.6 0 0 0-7-2.4c-1-.5-7-1.6-8-1.6-.4 0-1 .1-1.3.3-.4.3-.4.5.4 2.4 1.2 3 1.2 3 4 3.2 4.4.2 7 .6 10 1.6l3.4 1c.2 0 1.6.5 3.1 1.3a14 14 0 0 1 4.7 3.3c3.2 3.2 4.6 6.6 4 9.5-.7 3-1.2 4.2-1.8 5l-1.8 2.3a11.4 11.4 0 0 1-4.4 3.5l-2.7 1.3a23 23 0 0 1-4.7 2.2l-2.4.9a6 6 0 0 0-1.8.8 8 8 0 0 1-4.6 1.3c-.9 0-2.6.3-3.9.6a114 114 0 0 1-9.8 2 758.4 758.4 0 0 1-9.4 2l-2.1.6c-2 .2-4.5.9-7.3 1.7-1.3.5-2.7.8-3 .7-.3 0-1.8 0-3.3.4a617.9 617.9 0 0 1-5.6 1.2l-2 .6a58.2 58.2 0 0 0-9.3 3.3c-2.2.8-9.6 4.2-10.6 4.8a28 28 0 0 0-6.7 5.5c-.8 1-.2 1 3.9-1.1zm-242.6-2.4 2.4-.6c.4 0 1.3-.2 2-.5l2.8-.8c.7-.2 2-.7 2.7-1.3.8-.5 2-1 2.8-1.3l2.1-.7c1.3-.9 5-1.8 7-1.8 1.6 0 2.1 0 4.3-1.1l3.1-1.4c.3 0 2.2-1 4.1-2.2 2-1.2 4-2.3 4.4-2.4a4.1 4.1 0 0 0 2.6-2.7c.4-1.4.8-2 2.2-3a16 16 0 0 0 4.6-6.5c1-2.8 1-6 0-8.3-.4-.8-.8-2-.9-2.6-.2-1-.6-1.8-2.8-5.6-1.5-2.5-1.7-2.9-2.4-5a88.9 88.9 0 0 1-2.8-10.7c-.6-1-1 1-.9 4.2 0 .8.3 1.3.6 1.7 1.1 1 1 3.4-.3 7.2a21 21 0 0 0-.8 2.7c0 .3-.6 1.4-1.3 2.6a190 190 0 0 0-2.1 3.5c-1 1.5-2 2.3-2.6 1.8-.5-.4-.4-.7 1.2-3.1 2.3-3.7 4.3-9.4 4.3-12.3 0-.7-.2-1-.8-1.5-.5-.4-1.2-1.5-2.1-3.3l-1.8-3.5c-.5-.7-1.5-3.2-2.3-5.8-.3-1-.4-1.5-.1-1.9l.2-1.5c-.1-.9-.2-1-.9-1.1a6 6 0 0 1-1.4-.5 3 3 0 0 0-.7-.3c-.3 0-.1.8.4 1.9.9 1.6 1 2.6 1.3 6.8.5 7.3.3 11.4-.6 11.6-1.2.2-1.2-.4-1.6-11.2-.1-1.8-.3-2.6-1.7-7.7-.6-2.1-.6-2.6-.3-3.5.3-1.2.3-1.2-1.4-3.7-1-1.5-2.8-6-3.4-8.8l-1-4c-.9-4.2-.8-5.8.2-6 .7 0 1.1.4 1.5 1.7l.3 1.3v-2.2a104 104 0 0 1 0-32.3c.2-1 .6-2.2.9-2.7.3-.5.5-1.2.5-1.5 0-.6 2.2-3.7 3.2-4.6l2-1.3a8.8 8.8 0 0 0 3.8-3.4 35 35 0 0 1 5-6.3c1.6-1.6 2.1-1.9 3-1.4.2.2.2.4 0 1l-.3.8c0 .2 1.2 0 2.5-.6 2.2-.8 6-.3 10.2 1.4 3.5 1.5 3.9 1.1 2-2.1-1.5-2.3-2.4-3.2-4.5-4-.7-.2-1.4-.6-1.6-.8a29 29 0 0 0-4.8-3.9c-.5-.3-1.2-.5-1.4-.5-.3 0-1.4-.7-2.6-1.6-2.8-2.1-4-2.7-5.6-2.7a4 4 0 0 1-3.7-2.2c-.9-1.6-3-4-4.4-4.8a24 24 0 0 1-2.1-1.4c-1.3-1-2.1-1.3-5.6-1.5-5.8-.3-10-1.5-11.9-3.5l-.9-1-1 .5-2 1.2c-.6.5-1.2.8-1.3.8-.3 0-2.6 1-3.4 1.5l-1.6.8a55 55 0 0 0-7.8 4l-3.3 2c-3.5 2.5-4.3 3-5.2 3.9l-2.5 1.9-2.9 2c-1.1 1-2.1 1.7-3.1 2.3-1.5 1-2.1 1.4-2.4 1.9l-1.2 1.2c-2 1.7-3.3 3-3.3 3.3 0 .2-.5.7-1.1 1.2a16 16 0 0 0-2.1 2.2A73 73 0 0 0 102 90.6 12 12 0 0 0 100 95c0 .7-1.8 2.7-2.5 2.7s-3.7 3-5 5c-.5.6-1.6 2-2.6 3A58.3 58.3 0 0 0 83 115a43.3 43.3 0 0 0-4.5 11.2c-.7 1.3-1.4 6-.9 6l2.1-4c4-8.1 6.3-11.6 8.3-12.4 1-.5 2-.2 2.3.5.4 1-.1 1.7-1.4 2.1-1 .4-1.7 1.2-3 3.6-.4.7-1 1.9-1.6 2.6a6 6 0 0 0-.8 1.6c0 .4-.8 2-1.7 3.6-.4.7-1.2 2.8-1.9 4.6a57.8 57.8 0 0 1-2.7 7 18 18 0 0 0-1 3.1c-.2 1-.5 2.3-.8 3L75 149l-.4 1.1a4 4 0 0 0-.3 1.8c0 .5-.1 1.3-.3 1.9-.4 1.2-.6 3-.7 5.6-.1 2.6-.4 3.4-1.5 4.6-.7.7-.8 1-1 3.1a16 16 0 0 0-.2 3.3l.3 6.1c.3 10.5.4 11.4 1.2 12.8.4.8.9 1.8 1 2.3.6 1.5 2.2 3.4 3.1 3.8l2.3.5c1.3.2 1.5.1 2.7-.7 1.9-1.2 2-1.3 1.5-4-.3-2.3-.4-11.8-.2-18.3a55 55 0 0 1 1.7-12 48.9 48.9 0 0 1 2.7-9.8c.5-1.9 1.4-4.1 1.9-4.6.3-.4.7-.4 1.1-.3.9.2 1 .8.2 2.3a5 5 0 0 0-.5 1.8l-.4 1.7c-.6 1.4-1.5 4.5-1.5 5.2l-.4 1.7a101.7 101.7 0 0 0-1.5 34.2c.2.3.5 1.4.7 2.3l.7 2.4c2.2 4 3.4 5.8 4.4 7 1.2 1.2 1.4 1.3 3 1.6l3.2.4c.8 0 2.1.3 2.9.5 1.6.6 5 .5 9.8-.2a22 22 0 0 1 8.7.3c3.6.7 6.4 2.1 11.2 5.6.3.2 1.8.4 4.5.6 2.9.1 4.5.3 5.9.7a117 117 0 0 0 7 2c2.4.9 2.8 1 5.8.8 2.1 0 3.5-.2 4.7-.6zm13-6.6c-.3-.6 0-1.4.9-1.8l4.6-1.7a82 82 0 0 0 11.6-4.8c3.5-1.8 4.5-1.9 4.3-.5 0 .6-.4.9-2.6 2-1.4.6-3.1 1.5-3.8 2a26 26 0 0 1-3.5 1.5c-5.8 2.2-7.9 3-8.5 3.4-.8.5-2.6.5-3 0zm-47.4-8.5a50 50 0 0 1-11.4-11.4c-.4 0-1.2-2-1.2-3 0-.8 0-1 .7-1.1.5-.2.8 0 1.2.4a349.1 349.1 0 0 0 3.3 4.3c1.5 2.3 4.4 5.2 7.3 7.6 2.2 1.8 2.7 2.4 2.4 3.3-.2.9-1.1.9-2.3 0zm-11.1-4.3c-.6-.3-.6-1 0-1.1.4 0 .7 0 .8.3.4.7-.2 1.2-.8.8zm62.4-2.3c-1.1-.2.2-2 2.3-3 1.5-.8 2-1 2.5-.4s.2 1-1.6 2.2c-1.7 1.1-2.4 1.4-3.2 1.2zm-66.6-1.1c-.4-.2-.8-.5-1-.8 0-.3-.8-1.4-1.7-2.4a45 45 0 0 1-6.4-10.5c-1-3-.8-4.8.6-4.8 1 0 1.3.4 1.6 2.3.3 1.6 2 5.4 3.6 8a665.6 665.6 0 0 1 3.9 6c.8 1.2 1 1.6.7 2-.3.5-.3.5-1.3.2zm56.6-7.1a3.9 3.9 0 0 1-2.7-2.3c-.5-1.1-1.7-1.7-4.9-2.5-1.4-.3-3.7-1-5.2-1.6-1.4-.6-2.9-1-3.2-1-.3 0-1.2-.5-2.1-1-2.4-1.4-3-3-1-3l1.3.4a48 48 0 0 0 7.9 3l2.4.7c.6.1 2 .6 3.3 1.2 1.3.6 2.6 1 2.9 1 .3 0 .9.3 1.2.7.4.4.9.7 1.1.7.2 0 .6.1.8.3.3.4.3.4 0 .4s-.4 0-.4-.2-.2-.3-.4-.3c-.3 0-.4.3-.4.6 0 .4.1.5 1.4.5l2 .1c.5.2.5.1.5-.6 0-1-.8-1.8-2-2-1.4-.3-3.2-1-4.5-1.5l-1.5-.5c-.2 0-1-.4-1.6-1l-2.5-1.5c-.7-.4-1.5-.9-1.7-1.2a66 66 0 0 1-16.4-14.9c-1.4-1.7-1.5-2-.8-2.7.9-.9 2.2-.4 3.5 1.4 2.9 3.8 8.6 9.4 13.7 13.2 3.5 2.6 3.7 2.7 3.9 2 .2-.7 1.2-1 2.2-.6.5.3 2.5.4 6.4.4 5.9 0 7.6-.3 13.1-1.9 2.3-.6 2.4-.6 2.9-.5.2.1.4.5.4.8 0 1-3.3 2.2-8.7 3.3a46.7 46.7 0 0 1-14.3.9c.8.7 5.7 3 8 3.7 1.5.4 2.6.9 3 1.3 1.2 1 2 1.3 4 1 2-.4 2.5-.3 2.4.6-.1.8-2.1 1.7-5.2 2.1-3.3.5-7.6.7-8.8.5zm-70.3-11c-.6-1.4.8-10.3 2-13.4 1-2 1.2-2.4 2.1-2.4.5 0 .6.2.6 1 0 .4-.3 1.8-.8 3-.5 1.5-.8 3-1 5.1-.3 3.7-.7 5.5-1.2 6.5s-1.3 1-1.7.2zm-2.3-8c-.4-.6-.4-.8.3-3.6.3-1.6 1-3.8 1.4-4.8 1-2.3 1-2.7 2.7-7.7a57.3 57.3 0 0 1 7.6-15.5c0-.3 1.3-.6 1.8-.4.6.2.3 1.4-.9 3.3l-2 3.2c-.7 1-1.3 2.2-1.5 2.7l-1.3 3.2a45 45 0 0 0-1.6 4c-.3 1-1 3-1.6 4.3a42.3 42.3 0 0 0-2.4 7 25 25 0 0 0-1 3.9c0 .3-.3.7-.6.8-.4.3-.6.2-1-.4zm74-24.5c-1.3-.5-4-.8-9.6-1-6.6-.2-9.6-.7-12.4-2-2.9-1.3-3.8-2.3-3-3.2.5-.4 1.9-.3 2.8.3 1.4.9 5.1 1.7 9.3 2 11 .9 14.3 1.5 15.9 3 1 1-1.3 1.7-3 1zm-53.2-14.7c-1.4-.8-3-2.3-3-3 0-2 .1-2.8 1-3.6.8-1 2.1-1.2 2.4-.4.1.2 0 1-.1 1.8-.5 1.7-.2 2.2 1.3 3.2 1.2.8 1.9 1.9 1.3 2.2-.6.4-2 .3-3-.2zm18-1.4c-1-.5-.5-3.5 2-14l1-2.2a39 39 0 0 1 3.8-9.4c1.2-2.4 3.5-5 4.4-5 1.8 0 1.9.6.3 2.3-2.9 3-4.6 6.8-6.9 15.1-1.1 4-1.5 5.7-2 9.5-.3 2.3-.5 3.6-.8 3.7-.5.4-1.3.3-1.8 0zm-33-9.3c-.8-.3-1.5-2-1.6-3.6-.1-1.4 0-1.6 1-3 1.2-2 2.2-3.1 2.7-3.1 1.6 0 1.7 1.5.2 3.3l-1 1.3v2.4c0 2.6-.3 3.2-1.3 2.7zm13.7-4.3c-.3-.2-.7-1-1-1.8-.4-1.3-.4-1.6 0-4.6.2-1.6 1.8-5.5 2.7-7 2.3-3.5 3.6-5 6.7-8.3 3.4-3.4 5.4-5.1 7.8-6.5 2-1.2 3.7-1 3.2.5a45 45 0 0 0-14 12 27.9 27.9 0 0 0-3.7 7.5c-.9 3.1-1 4.7-.6 6.3.5 2.3.2 2.8-1 1.9zm33-40.5c-.5-.4-.5-.5-.2-1 .5-.6 1.8-1 5.8-1.6 5-.7 7.2-.5 6.7.7-.2.6-.9.7-7.4 1.7l-3.7.5c-.6.1-1 0-1.3-.3zm24.1-8.4c-.6-.7-2.8-1.2-5.2-1.2l-2.2-.3-8.6-.4c-4.2 0-7.7-.2-7.8-.3-.3-.3.4-1 1.2-1.2l6.2-.4c8-.2 16.2.6 17.8 1.8a3 3 0 0 1 1 2c0 .9-1.6.8-2.4 0zM43 209.3c.4-.2 1.3-.3 2-.3 1.3 0 2.9-.9 2.4-1.3-.3-.3-3.5.4-5.2 1.2-1.1.6-1.2.7-.6.7l1.4-.3zm-21.6-.7c.3-.3.3-.3-.7-.3-1.1 0-3.1.6-2.8.8.3.3 3 0 3.5-.5zm183-.2c1-.2 2.4-.6 3-1l2.8-.8c1.1-.2 1.6-.5 1.8-1 .1-.2.4-.6.6-.6.5-.2 9.6-.3 9.8 0l7.4-.9 8.4-1 3.2-.7 2.3-.5c.6 0 3.3-1.2 3.5-1.6l1.7-.4c1.4-.2 1.6-.3 3.2-2 .9-.9 1.6-1.8 1.6-1.9a4 4 0 0 0-1.2-.8c-2-1.3-3-3.5-1.9-4.2.4-.3.8-.1 2.1.6a33.4 33.4 0 0 0 12 4.3 7 7 0 0 1 2.5.5c.8.3 1.7.5 3.2.5 1.2 0 2.8.2 3.6.4 1.3.4 1.8.4 3 .2.8-.2 2.2-.3 3.1-.2 1 0 1.9 0 2.3-.2.3-.2 1.3-.4 2.2-.5 1-.1 1.9-.4 2.2-.6.3-.3 1.4-.6 2.8-.8 1.3-.2 2.7-.5 3-.7.4-.3 1.3-.6 2-.8 1.8-.4 4.7-2.6 5.2-4 .4-.8.6-1 1.5-1.3 2.3-.6 5.5-6.3 5.3-9.2l-.1-1-1.2 1.8c-1.2 2-1.8 2.4-2.7 2.2-.7-.2-.6-.9.6-3.7a34.5 34.5 0 0 0 2.3-7.8 40 40 0 0 0 1.2-16.6c0-.5-1-3-2.2-5.2l-2.2-4.7c-.2-.6.7-1.6 1.3-1.6.6 0 2.2 2 3.2 4.2 2.7 5.9 2.8 6 3.8 6.1a2079.2 2079.2 0 0 0 6.2 1.5c1.2.4 1.5.6 1.6 1 .3 1 0 1.5-.8 1.7l-2 .4-2.6.2c-2.6 0-3.2.7-2.2 2.5.8 1.7.9 2.2.2 3-.4.4-.8 1.3-1 2 0 .7-.4 1.6-.6 2.1a19 19 0 0 0-1.4 5.4c0 .6.3.8 1 1 .7.1 1.3.6 2 1.4 1.1 1.4 2 1.5 2.2.3.1-1 .8-1.5 1.9-1.6.8 0 1-.2 1-1 .2-.5.4-1 .6-1.1.2-.1 1.3-.2 2.5-.1 1.8.1 2.2 0 2.7-.4 1-.7.6-1.3-.9-1.3-1.4 0-2.2-.4-2.2-1 0-.9.8-1.3 2.2-1.2.7 0 2-.1 3-.4 1.3-.3 1.8-.6 3-1.9.8-.8 1.7-2 2-2.6.4-1 .4-1.2 0-1.6-.4-.4-.5-.4-1.3 0-1 .3-1.7.4-2.3.1-.4-.1-.5 0-.6.6-.2.9-.8 1.2-1.5 1-.9-.3-.9-1.9 0-2.1 1-.3.4-1.5-.6-1.5-.3 0-1.4.4-2.4 1-2.2 1-3.4 1-3.4 0s1.8-2.3 4.4-3.1c.6-.2 1.9-1 2.9-2 4.5-3.7 8-5.4 9.1-4.3.7.7.3 1.4-1.5 3-1.9 1.6-3.3 3.4-3 3.8.2.5 1.5.3 2-.2.6-.7 2-.8 2.1 0 .3.6-.4 2-1.2 2.8-1 .9-1 1.7 0 1.7.8 0 3.1-2.2 3.5-3.4l.5-1h1.5c1.4-.1 1.5-.2 4.5-3 4.2-3.9 6-6.2 5.2-6.1-.5 0-3 .7-3.5 1a38 38 0 0 0-4.6 3.4c-1 .9-1.7 1-2.2.5-.6-.5-.4-1.3.7-3.6 1-2 1-2.3.7-2.6a27 27 0 0 0-11 1.1c-.7.2-2.9.4-4.9.5-3.6.2-3.7.2-4.7-.5-2.5-1.7-.7-3.3 2.8-2.6l2.4.4c.7 0 .7 0 .5-1-.3-1.8-.5-2.3-.9-2.3-3.5.5-7.2 2-7 2.7 0 1 0 1.2-1.2 1l-3-.3c-4.2-.4-3-2 2.4-3.2a68.6 68.6 0 0 0 8.5-2.4c.2-.5-1.5-2-2-1.8l-1.2.3c-.4 0-1.2.6-1.7 1.2s-1.2 1.1-1.6 1.2c-.4 0-1.4.5-2.3 1-2.3 1-4 .8-4.8-.7-.5-1-.3-1.5.9-2.3l2-1.6 3.9-2.2c3-1.5 3.4-1.8 3-2.7a5 5 0 0 1-.2-2c.2-1.4 0-1.6-1.8-2-.9-.1-1 0-1.3.5-.1.3-.8 1-1.4 1.4a80 80 0 0 0-3.3 2.7c-2.7 2.3-4.3 3.2-5 2.7-.3-.3-.3-.4 0-1 .3-.4.7-1 1-1.2.7-.7.7-1-.4-1.4-1.8-.9-1.5-2.2 1.3-6 .7-.8 1.4-2.1 1.6-2.8a4 4 0 0 1 1.4-2c.5-.5.8-1 .7-1.2 0-.2 0-.8.2-1.4.1-.6.2-1.1.1-1.2 0-.1-.5.2-1 .7-.8.7-.8.9-.5 1.6.2.8.2.9-1.2 2.6l-2.3 2.6c-1 1-2 2.4-2 2.7 0 .2-.4.5-1 .7-1 .5-1 .8-.6 3.5.7 4.3.5 7.2-.6 8-.2.2-.5.5-.5.7 0 .4-.3.5-1 .4-.2 0-1-.6-1.7-1.2a16 16 0 0 0-6.5-3.3 9.7 9.7 0 0 0-6.1 0c-2.2.5-3.6 1.4-5.6 3.5-.6.6-.8.7-1.3.5-.7-.4-.7-1.3 0-2.4.8-1.3.7-1.5-.6-1.2l-4.7.3c-4.4.3-7.2 0-9.2-1.1-1.4-.8-1.7-1.2-1.5-2 .2-.6 1-.7 2-.2l1.8.7c1.3.4 7.8.4 10.5-.1 1.5-.3 3-.4 4.3-.2 1.5 0 2.5 0 4-.3 4.1-1 8-.2 12.3 2.7l2.3 1.4c.7 0 0-4.5-1.3-7.8-.6-1.8-1.2-2.8-3.5-6.5-1-1.6-3-3.7-3.4-3.7-.2 0-.5.4-.8.9-.7 1-1.2 1.3-1.8.7-.3-.3-.3-.7-.2-1.3.2-1.9-.2-3-2-5-1.2-1.4-1.8-2-2.7-2.2l-2.2-.8a6 6 0 0 0-1.5-.5l-2.8-.8c-1.3-.5-2.9-.8-3.4-.8l-2.7-.4a53.4 53.4 0 0 0-13.5.4c-2.4 0-11.7 3.1-11.7 4l1.5 2.3c.8 1 2 3.2 2.8 4.5l2 3.7c.4.8.6 1.5.6 2.5 0 1.6.5 3 1.4 4.2.9 1.1 1.8 4.3 1.8 6 0 1.8-1.4 4.4-3.6 7-.7.8-1.2 1.7-1.4 2.5-.5 2-1.4 3.5-2.4 4-1.4.8-2.1 1.6-2.4 2.8-.2.6-.5 1.2-.8 1.4a49.8 49.8 0 0 1-14.3 3.8l-4.1.6c-2.8.6-3.2.5-4.9-.2-1.7-.8-2-.7-2.3 1.3-1 4.4-1.2 5.3-1.7 5.7-.4.3-.6.8-.6 2.3 0 1-.3 2.4-.5 3.2a42.2 42.2 0 0 1-5.6 13.2c-.2.7-1.4 1.7-2 1.7-.6 0-1 .9-1 2l-.6 3a11 11 0 0 1-1.7 4.2c-.7 1-1.3 2-1.3 2.3-.1.3-.6 1-1.2 1.6l-2 2.5c-.5.9-1.2 1.7-1.5 1.8-.6.4-2.9 3.4-2.9 3.9 0 .4.3.4 2.2.3l4-.6zm24.2-7.8c-5-.4-7-1-6.5-2.4.3-1 1.3-1.1 5-.7 4.8.6 11 1 13.2.8 2-.2 3.4.2 3.4.8 0 .5-1.5 1-4.7 1.2-4.2.4-7.4.5-10.4.3zm6.9-9.6c-4.5-2.4-7.4-5.3-6.8-7 .2-.4.5-.8.8-.8.6-.1 3.2 1.8 4.9 3.6l2.6 2.4c1.7 1.6 2 2.2 1.1 2.6-.4.2-1 0-2.6-.8zm43-2c-.4-.4-.6-.4-1.8-.1-2.8.6-6.5.2-7.6-.8-.3-.4-.3-.6-.1-1.1.4-.8 1.3-1 3-.3.6.2 1.8.4 2.7.4 1.8 0 7.4-1.3 7.9-1.8.6-.6 1.6-.4 2 .4.5 1-.4 1.7-2.8 2.3-1.4.4-2 .6-2 1-.3.6-.7.6-1.3 0zm-2-11c-.3-.4-.2-.6.5-1.2 1.4-1.4 3.3-1 2.8.6-.2.4-2 1.2-2.7 1.2-.2 0-.5-.2-.6-.5zm-31.5-.2c-.7-.6-.7-1 0-1.9l1.5-2.9c2-4 5-7.3 8.9-9.4 2-1.1 3-1.4 3.5-.8.7.6.4 1.3-.8 1.8-4.6 2-8.3 6-10.6 11.6-1 2.3-1.5 2.6-2.5 1.6zm21.5-10c-.6-2-1-7-.8-12.6 0-6.3.3-7.3 1.6-7.8.5-.2.7-.5.7-1 0-.4.2-1.2.5-1.8.4-1 .8-1.3 2.3-2 2.1-1.1 4-1.4 6.6-1.2 2 .3 2.7.7 5.6 4 2 2.3 2.9 3.8 2.6 4.7-.4 1-1.6.5-3-1.6-2.7-4.1-6-5.7-9.1-4.3-1.6.7-2.7 1.7-3.1 2.6-.2.5-.7 1-1 1.1-.5.2-1 .6-1 1-.2.2-.2 4.8-.3 10v9.5l-.7.1c-.6 0-.7 0-1-.8zm54.3-3.1c-1.2-.3-1.5-1-.8-1.8.5-.5 1.6-.5 2 0 .4.3.4.5.2 1-.3.7-.7 1-1.4.8zm-7.4-12.6c-.8-.6-.3-1.5 1-1.8 1.3-.4 2.2-.2 2.5.5.3.5.2.6-.3 1-.9.5-2.6.7-3.2.3zm-40.8-25.6-2.4-.3c-.9 0-1.6-.1-2-.5l-.5-.4.8-.4c.5-.2 1.8-.3 3-.3 3.2 0 4.8.7 3.7 1.8-.4.4-1 .4-2.6 0zM27.3 205.7l3-1.1c1-.4 1.9-.8 1.8-1-.1-.3-1.2-.2-2.3.3l-2.3.7c-1.5.2-2.6.9-2.3 1.3.2.4 1.1.3 2.1-.2zm384.6-10c1.3-.6 2-.8 3.6-.9 2-.1 2.5-.3 6.4-2.3 2-1 5-2.5 11.9-5.3a35 35 0 0 0 4.7-2.3c.7-.5 2.2-1.2 3.2-1.5a20 20 0 0 0 5.2-2.5c1.6-1.3 4.5-2.5 6-2.7 2-.2 3.4-.5 6.1-1.4 2.8-.8 4.3-2.3 5.6-5.3 1-2.1 1-2.2.7-3.7-.1-1-.7-2.6-1.3-3.8a41 41 0 0 1-1.6-4c-.6-1.7-2.7-4.9-2.7-4 0 .3.1.7.3.8l1 2.3c.5 1.5.6 2.2.4 2.4-.7.6-1.6-.3-3.1-3.2a47.5 47.5 0 0 1-6.1-14.6l-1-3.5c-.3-.6-1-.6-1.1 0-.2.6-.7.9-1.2.6-.5-.3-.8-4.6-.5-7.9.2-1.9.2-3.6 0-4.6-.1-1-.2-2-.1-2.5 0-.8-.2-3.3-.7-4.7-.1-.6-.5-.5-.8.3l-2.2 7.3c-.1.8-.6 2.1-1 3-.5 1-1 2.6-1.2 3.5-.4 1.6-1 3-2.5 6.2l-1.2 3a121.2 121.2 0 0 0-5.7 15c-.9 3-1.6 4.6-2.3 4.9-.5.3-.6.2-.8-.4-.1-.7 1-4.8 1.5-5.5l1.5-4.1a128.2 128.2 0 0 1 3.5-9.8c0-.4 2.2-6 3.6-9.3l1-3a70.1 70.1 0 0 1 2.8-8.3c.2-.3.4-1.2.6-2l.6-2.5c1-3.1 1.9-10.5 1.4-12.2-.2-1-.2-1.2.2-1.5 1.2-.9 1.8 1 1.8 5.5 0 1.9.1 3.4.3 3.4 0 0 .2-.2.2-.5l.5-3.9c.3-2.2.2-4-.4-8.8a49 49 0 0 0-5.2-17.8c-.8-2.1-2.2-5-3.3-6.7a56.5 56.5 0 0 0-12.8-12 37 37 0 0 0-9.5-4.7c-1.4-.6-5.3-1.1-8.3-1.2l-2.7-.1-.4.8-.4 1.5v.7l3.9.1c3.5 0 3.9.1 5 .7 1.6.8 2.2 1.5 1.6 1.9a58.7 58.7 0 0 0-6-.3c-4-.1-4.3-.1-5.2.4-1.3.8-1.4 1.1-2.2 3.5l-1.3 3.3c-.3.6-.7 1.7-.8 2.3-.2 1.4-2 4.9-3 6.1-.5.5-.9 1.1-.9 1.3 0 .2.6.7 1.4 1.1a17 17 0 0 1 4.8 6.5l1.7 3c.6 1 .8 1.5 2 5.5.7 2.6.9 6.3.4 7.7-.5 1.2-.4 1.2.3 2.7.4.8 1 2 1 2.8l1 2.9c.5 1.4.8 2.3 1.9 6.3.6 2.2 1.6 8 2 11.7a196 196 0 0 0 1.7 10.4l1 7a60 60 0 0 1-2.8 29.4 40.1 40.1 0 0 1-2 5.8l-1.1 3c-.7 2-.9 3-1 5.8-.3 2.6-.3 3.4 0 3.6.4.3.3.3 2.1-.6zm15.9-40c-.5-.2-.4-1.6.1-2.4l1.6-2.9 1.6-2.6c.3-.3.8-1.4 1.2-2.4a83.4 83.4 0 0 1 2.7-6.5l1.3-3.9a31 31 0 0 0 2.3-9.6l.5-2.9a60 60 0 0 0 1.4-18.5c-.4-4-.5-5-1.7-8.3a21.6 21.6 0 0 0-6-10c-1.8-1.5-2-2.2-1-2.4 1-.2 2 .5 4.2 2.7 1.7 1.7 2.3 2.6 3.4 4.8 3 6.5 3.5 9.1 3.5 18.5-.1 7.3 0 7-1.8 15.5-.3 1-.4 2-.4 2.2l-.5 2.1-1.1 4.1a36 36 0 0 1-3 8l-1.3 2.7c0 .3-1.1 2.6-1.6 3.2l-.5 1c0 .3-.3 1-.6 1.5-.4.5-1.3 2.2-2 3.6-1.3 2.5-1.5 2.8-2.3 2.5zm2.5-38c-.4-.4-.5-1-.5-3.5a60.2 60.2 0 0 0-3-18.4 38.7 38.7 0 0 0-11-17.8c-1.4-1.2-1.7-2-.9-2 2.2 0 7.5 4.9 9.8 9.1a43.4 43.4 0 0 1 4.9 12.7c.6 2.3 1.4 6.3 2 10.1.3 2.8.4 3.8.1 6.4-.3 3.3-.7 4.1-1.4 3.3zM332.4 185c1.3-.7 2-1.8 2.9-4.5 1.3-4.3 1.5-5.2 1.5-7.5a68 68 0 0 1 1.2-11s-1 .3-2.1.9l-2 1 .1 1.1c.1 1.6-.3 2.4-1.8 3.7-1 .8-1.4 1.4-1.8 2.7-.5 1.2-.9 1.7-1.5 2.1-1.3.8-3.9 2-5.1 2.4-.8.2-1.5.7-2.1 1.5-.7.8-1.3 1.2-2.3 1.5-1.7.6-4.1 2.4-4.1 3 0 .4.3.6 1.7.8 2.6.5 6 1.7 6.9 2.4.7.6.9.6 4.2.5 2.4-.1 3.8-.3 4.3-.6zm-121.8-1.5a81.8 81.8 0 0 0 6.7-17.5l-.4-5.6c0-2.8-.2-4.5-.5-5.1l-.4-1-1.8.2-2.1.3c-.2.1-.3.7-.3 1.3 0 .7 0 1.7-.2 2.4-.1 1.1-.2 1.2-.8 1.2-1 0-2-1-1.6-1.7.3-.9.3-2.5-.2-2.7-.6-.2-1.4.4-1.4 1.3 0 .4-.2 1.2-.5 1.6-.2.5-.5 1.6-.6 2.6-.5 3.7-.6 4.9-.1 6.7l.6 3.7c.2 1.8 1.1 6.8 1.6 9.1.2.6.3 2 .3 2.9 0 1.6 0 1.7.5 1.6.4 0 .8-.5 1.2-1.3zm-17-27.1c0-1.5.4-2.2 1.4-2.2.9 0 1 0 1-1 0-.7-.2-1-1-1.4-.5-.3-1-.5-1.3-.5-.4 0-2-.8-2.8-1.4-.3-.2-.6-.2-.7-.1-.2.2 1 4 1.6 5l.8 1.9c.5 1.4 1 1.2 1-.3zm39.1.3c0-.5-6.3-4.3-7.7-4.5-.7-.2-.8-.2-.8.7a3 3 0 0 1-.3 1.4c-.6.8-.4 1 .9.6.9-.3 1-.2 2 .4.9.6 2 1 4.7 1.6 1 .2 1.2.2 1.2-.2zm2.4-2.7c1-1.4 2.3-1.4 4.7-.4 2.3 1 2.8 1 3.7-.1.4-.6 1.1-1.4 1.6-1.8 1.5-1.5.8-2.3-1-1-1.3 1-2.5 1-4.4.4a21 21 0 0 1-5-2.3c-.7-1.1.5-1.4 2.6-.7 1.7.5 2.7.7 4.5.6 1.6-.1 1.5-.7-.2-2.4-1.2-1.1-1.5-1.5-1.2-1.8.2-.3.2-.4-.2-.5-1.1-.3-1-2 0-2s1.4.7 1 1.3c-.4.8-.4.8 1 1.1.9.3 1.6.7 2.7 1.8.8.8 1.6 1.7 1.7 2 .4.7 1.1.3 1.9-1 .3-.5 1.2-1.7 2-2.5.9-1 1.8-2.3 2.2-3 .4-.9 1-1.7 1.2-2 .4-.3.5-.8.5-1.7 0-1.1 0-1.3-.7-1.6-.3 0-.8-.6-1-1.1-.4-.7-.6-1-1-.8l-1.4.5-2.1.9-1.5.6c-.8 0-2 .7-2.4 1.3-.3.6-1.7 1.3-2.5 1.3-.5 0-1.2-1-1.2-1.9 0-.3.4-.7.8-1l1.5-.9a2 2 0 0 1 1.6-.4c1 .2 2.6-.6 2.4-1.2-.2-.5-2.3-1.8-3.4-2-2.3-.5-4-.3-5.7.5-2.3 1.1-3.5 1-3.1-.2.6-1.8 6.8-3.2 9.5-2l1.4.4c.4 0 2.9 1 5.1 2.2.4.1.8.6 1 .9.4 1 .7.6.5-1 0-.8-.5-2.4-1-3.4l-1-3c0-.7-.6-2.2-1.3-3.4-3-5.8-4.6-7.9-7.3-9.4l-2.4-1.4c-1.2-1-2.1-1.3-6.6-1.7-4.5-.3-4.6-.3-6.4.3-2.5.9-3.6 1.4-4.4 2.4-.9 1-1 1.4-.1 2 .8.7 2.7 3.4 3.3 5 .5 1 .5 1.5.4 2.7l-.2 1.5 1-.2c.5 0 2-.7 3.4-1.3 2.6-1.3 3.3-1.4 4.2-1 .4.3.7.3 1.8-.2l1.4-.7 3.2.5c1.8.2 3.6.4 4.1.3 2 0 1.6 2-.5 2.5-.6.2-1.5.8-2.3 1.6-1 1-1.7 1.4-2.7 1.6-2.3.5-2.5-.5-.4-1.8 1-.7 1.2-1.4.5-2-.3-.2-.6-.2-1.3 0-1.2.5-2 .4-2.8-.2-.5-.5-.6-.5-1.1-.2-1.8 1-3.1 1.7-4.8 2.1-2.2.6-2.9 1.2-2.6 2.4.4 1.8.2 8.5-.4 11.9-.7 3.9-1.2 5.3-2.8 6.8-.7.7-1.2 1.4-1.2 1.5 0 .6 1.3 1.4 3.5 2.1 1.2.4 2.6 1 3 1.3a24 24 0 0 0 6 3.3c.3 0 .6-.2.7-.4zm106.6-5.8c.7-.5 1.7-1 2.2-1l4.7-2c.2-.1.5-.7.6-1.2l.6-2.5c.4-1.3.4-1.4-.1-2.6-.3-.6-.6-1.5-.6-2 0-.7 0-.7-1.5-.7-1.3 0-2 .2-4.1 1.2a9.3 9.3 0 0 0-3 1.9 13 13 0 0 0-1.7 4.8c0 1 .6 1 1.2.2.5-.8 1.3-1.1 1.9-.7.6.5.4 1.1-.7 2.6-.7.9-1 1.7-1 2.2v.8l1.5-1zm-128 0c.8-.3 2.2-.6 3.3-.7 2-.2 2.5-.5 2.5-1.3 0-.2.4-.8.8-1.2 2.4-2.1 2.9-2.7 2.9-3.4l.5-3.2c.9-4 .6-11.2-.5-12a14.8 14.8 0 0 0-7.7-1.6c-3.2-.1-3.7 0-4.7.5-.7.3-1.6.6-2 .6-1.5 0-4.7.8-6 1.5-2 1-2.9.7-2.9-.8 0-.6.2-.8 1.1-1.2.6-.3 1.8-.7 2.6-.8l2-.7c.8-.5 1.5-2.1 1.3-3-.3-.9.6-4.7 2-8.8.6-1.9.6-6.3.1-9l-.6-3.4c0-1 0-1 .6-1 .4 0 1 .1 1.2.3.5.4.5.4.8 0 .2-.4.4-3.4.5-7.9 0-4 .2-7.3.4-7.5.1-.2.5-.3.9-.3.6 0 .6-.1.5-.7l-1.3-2.5c-1.8-3-1.9-3-1.7-3.5 0-.3.5-.5.8-.5.8 0 2.5 2.1 3.6 4.6 1 2 1.3 2.4 1.3 1.3a11 11 0 0 0-2-5.2 8 8 0 0 0-3.6-2l-3.5-1a13.4 13.4 0 0 0-12.2 1c-2.7 1.4-3 1.7-5 4.6a30 30 0 0 1-2.2 3l-1.5 2a118.5 118.5 0 0 1-3.5 5.3c-1.6 1.3-2.1 4.3-2.4 14.7-.1 7.4 0 10.6.9 14.3.5 2.2 1 7.5.9 8.9-.3 3.8.1 8.5 1 10.3a14.4 14.4 0 0 0 8.4 7 47.7 47.7 0 0 0 9.1 2.8c1.4.5 1.8.4 2-.6.1-.7.6-1.2 2.8-2.6 3.1-2.1 6.4-3.8 7.7-4 2-.2 3 1.2 1.7 2.3-.3.4-.7 1-.7 1.3 0 .5-.3.7-.9.8l-2.3.8-2.4 1c-.6.2-1.4.6-1.7.9l-.7.5h1c.5 0 1-.2 1.2-.4.6-.7 2-.5 2.7.4.8 1 1.2 1 3 .2zm-17-40.3c-.6-.7-1-1.3-1-1.5 0-1.1 1.5-1.3 2.6-.3.5.4.6.7.4 1.3 0 .5-.3 1-.5 1.3-.4.3-.5.2-1.5-.8zm135 37c1.4-.4 2-.7 2.3-1.3 1-1.6 4-5.3 6.5-7.7a27.8 27.8 0 0 0 3.2-3.9 6 6 0 0 0 1-2.3c0-.9.4-2.1.6-2.8l.6-2.8.7-3.9c.3-1.7.3-2.6.1-3.5-.3-1.4.2-3.2 2.3-7.5 3.3-6.7 3.8-7.8 4-8.6.2-1 3.3-7 4.4-8.3.9-1.2.6-1.3-1.7-1.3h-2.5c-.5-.2-1.5.3-3 1.4-.7.7-1.5 1.2-1.6 1.2-.2 0-.6.7-1 1.5l-1.2 2.2c-.4.5-.5.9-.3 1.7 0 .7 0 1.6-.4 2.6l-.5 2-1.1 3c-.6 1.5-1 2.9-1 3.2 0 .3-.7 1.5-1.4 2.7-1 1.7-1.6 2.3-2 2.4l-1.4.4c-.7.2-1.7 0-2-.5-.5-.8-2.6.5-3.4 2.2-1.7 3.7-2 3.8-6 3-.7-.3-1.5-1.1-2.4-3-.8-1.5-.8-1.7-.6-2.7a3 3 0 0 0 0-2c-.2-.8-1.6-3-2.5-4-.2-.1-.5-.9-.7-1.5l-.8-1.7c-.4-.5-.4-.4-1.5.5-1 .8-1.2 1-2 3.6-.3 1.5-1 3.5-1.3 4.4-.8 2-.8 2.8 0 5 1 3 2.6 6 3.6 6.6 1.1.7 2 2.3 2.4 4 .4 2 .4 1.9.1 3-.2 1-.1 1 .7 1.6 1.1.7 1.5 1.2 2 3.6l1 2.8c.3.5.5 1.4.5 2.1 0 1.1 0 1.4.8 2 1.8 1.3 2.8 1.4 5.5.6zm19.3-8.6c.5-.1.8-.3.8-.6-.1-1 0-1 1.8-1.9 2-1 3-1.7 3-2.6 0-1 .7-2 2.3-3.5 1.9-1.5 2.7-2 4.6-2.5 1.2-.4 1.8-.9 4-3 1.8-1.9 2.5-2.8 2.5-3.3 0-1 .6-2.3 1.1-2.4.7-.3 2.6-2.5 3.2-3.9a4 4 0 0 0 .4-2.3c-.1-.9 0-1.2.5-1.9.4-.4.9-1.6 1.1-2.6.5-1.8 1.5-3.7 2.7-5.3 1-1.1 2.6-4.3 3-5.7.7-1.8.6-2.1-.7-3l-1.5-.9c-.1 0-.5 0-.7-.2l-1.4-.5-2.2-.9-2.8-.9-2.6-.6c-1.7-.5-2.2-.3-2.6 1a4 4 0 0 1-1.3 1.7c-.5.4-1 1-1 1.2 0 .3-.2 1-.6 1.8l-.7 1.6c0 .3-1.3 3-1.9 3.8-.2.4-.4 1.2-.4 1.9a5 5 0 0 1-.6 2 42 42 0 0 0-2 4.1c-1.1 2.2-1 2.5.7 1.8 1.8-.8 2.9-.7 2.5.3 0 .2-1 .8-2 1.3-2.9 1.5-4.2 2.5-5.2 4a7 7 0 0 0-.8 1.7c0 .2-.4.6-.8 1-.4.5-1 1.3-1 1.9l-1 2.2a34.5 34.5 0 0 0-2.5 5.8c0 .3-.3 1-.7 1.5-.4.5-.7 1.1-.7 1.4 0 .7-.6 2.4-1.1 3-.7.7-.4 1.2.9 1.5 1.5.5 2 .9 2 1.6 0 .6.3.7 1.7.4zm-.6-2.3c-.4-.2-.5-.4-.4-.9.2-.7.1-.8-.8-.2-.5.4-.8.4-1.3.2-.6-.3-.6-.4-.3-1.1.5-.8 1.7-1.5 2.5-1.3.3 0 .5.3.5.8 0 .6 0 .7.6.7 1-.1 1.9.2 1.9.7 0 .3-1.6 1.4-2 1.4-.2 0-.5-.1-.7-.3zm8.2-20.2c-.5-.5-.1-1 1.2-1.5 4.3-2 5.4-2.3 5.7-1.8.3.5-1 1.4-3 2.1l-2.2 1c-.9.4-1.5.5-1.7.2zm-56.3 12.7c.5-.4.8-.9.8-1 0-.2.5-.9 1-1.6 1.3-1.5 1.4-2.2.5-1.9l-2.6.4c-1.2 0-2.3.3-2.7.6l-.7.5.7.7 1 1.5c.5 1 1 1.5 1.2 1.5l.8-.7zm12.4-.9c0-.2 0-.3-.3-.2-.1 0-.4.3-.4.5 0 .1 0 .2.2.2s.4-.3.5-.5zm-97.7-3.5c.5-.5.4-1.1-.4-3-.7-1.6-.7-1.6-.7-8 0-6.1 0-6.3-.6-6.3-1.2-.2-1.2-.8-.4-2.8 1-2.7 1.1-4.9.2-9a38.6 38.6 0 0 1-.9-4.7c-.1 0-.3 1.4-.3 3.4a42 42 0 0 1-.5 7.8c-.8 4-1 6.2-1.3 9l-.5 4c-.4.9-1.5 7.2-1.5 8.5 0 .9 0 1 .6 1.2 1.2.3 6 .3 6.3 0zm132.1-.3c.3-.3.5-.7.5-.9l.7-1.3c.4-.6.8-1.7 1-2.6.2-1.6.9-2.8 2.4-4.5.6-.6 1.3-1.6 1.6-2.2.4-.7 1-2 1.6-2.8.8-1.3 1-1.8.8-2.4-.2-1.2-.2-2 .3-2.6l.4-1c0-.5 1.6-3.7 2.5-4.9 1.4-1.8 3-6.2 2.3-6.2-.5 0-3.2 2.8-3.8 4l-1 1.8a43 43 0 0 0-4 7.2 60.5 60.5 0 0 1-3.9 7.4c-1.1 2.2-1.2 2.7-1.3 4.3 0 1-.1 2.6-.3 3.4-.5 2.1-.7 4-.4 4 0 0 .4-.3.6-.7zm-48.6-.5 2.6-1.1c1.7-.6 4.7-2.6 5.7-3.8.8-.9 1-1 2.1-1 1.2 0 1.3 0 1.5-.6 0-.4.5-1.6 1-2.7 1-2 1.4-3.7.8-3.7-.1 0-.5.3-.7.7-.7 1.1-2.4 2.2-3.4 2.2-.7 0-1-.2-1.9-1.1-1-1.1-1-1.2-.8-3 .1-1.4 0-1.8-.3-1.9-.2-.1-.6.1-1 .7l-1.3 1c-.4 0-1 .6-1.5 1.2-.7.9-3.4 2.6-4.2 2.6-.6 0-.8-1-.5-2.7.5-2.9-.2-3-4.8-.7-4 2-4.3 2.1-4 3.3.1 1-.1 2-.6 2-.1 0-.6-.4-1-.9-.4-.6-.8-.8-1-.7-.8.3-.6.9.5 1.6.5.3 1.4 1.2 1.9 1.9.6.7 1.6 1.6 2.6 2.2 1 .6 2.5 1.8 3.5 2.7 1.7 1.8 2.5 2.4 3 2.4l1.8-.6zm-1.1-1.8c-1.2-1.1-.2-2.7 1.2-2.2 1 .3 1.2 1.6.5 2.3-.6.6-1 .6-1.7-.1zm13.5 1.2c0-.2-.1-.4-.3-.4-.1 0-.3.2-.3.4s.2.4.3.4c.2 0 .3-.2.3-.4zm25.5-9.8c.1-.2 0-.7-.2-1-.3-.4-.5-.9-.5-1.1 0-.6-.6-.3-.7.3-.1.5.7 2.2 1 2.2.2 0 .4-.2.4-.4zm1-5.6c.3-1 1-2.8 2-4.8a50 50 0 0 0 2.2-4.5c.2-.7.6-1.3 1-1.5 1-.5 1.3-1 1.5-2 0-.7.5-1.4 1.3-2.3 1.1-1.3 1.7-2.7 1.3-3.2-.2-.4-2.2-.3-3.4.1l-1.6.4-1.2.4-2 .7-1.2.5s-.6.5-1.4.8l-1.9 1.1c-.2.3-.7.5-1 .5-.4 0-1 1-1 1.8 0 .4 1.5 2.1 1.8 2.1l1.2-1c.7-.8 1.1-1.1 1.5-1l2.7 1c.3.1.4.6.4 1.7.1 2.2 0 2.6-1 3.1-1 .7-1.5 1.7-1.7 3.7l-.5 2.7-.4 1.5c0 .5 0 .5.6.2.4-.3.7-.9.9-2zm-24.4-.3c.7 0 1.2-.3 2-1 1.2-1.1 1.4-1.8.8-2.6-.6-.8-.5-2 .1-2.1.8-.3.6-.6-.9-1.6l-2-1.6c-.3-.3-.7-.7-.9-.7-.2 0 0 1.4.3 2.9.2.7-.5.8-1 .2-.5-.6-2.5-.4-4 .3l-1.6.9c-.4.2-1.6 1.3-2.7 2.5-3 3.2-3.4 3.6-3.2 3.8.2.2 1.7-.5 2-1 .8-1 5.3-2.1 6.6-1.7 1 .4 1.6 1.3 1.6 2.6v1.1l1-1c.8-.8 1.2-1 2-1zm-79.5-2.8c.1-.2 0-1.5-.4-2.9-.5-2-.6-2.8-.4-5.3.2-2.5.1-3-.3-3.7-.4-.8-.4-1-.1-3.1.3-2 1.1-4.3 1.9-5.5 1-1.8 2-4.2 2-5.1 0-.3-.1-.5-.4-.5-.5 0-1.8 1.4-2 2.1-.1.3-.4.6-.7.7-.3.1-.5.3-.5.6 0 .2-.2.3-.3.3-.2 0-.3.3-.3.6 0 .2 0 .5-.2.5s-.7.7-1.3 1.5a16.2 16.2 0 0 1-3.6 4.6c-.8 0-.4-1.5.8-3 1.7-2.4 5-6 6.9-7.6l1.5-1.8c.8-1.1.8-1.2.3-2-.5-1.3-.5-2.7.2-5.4.7-2.9.7-4.6 0-6.2a10 10 0 0 0-.5-1.3l-1.3 1c-.6.6-1.3 1.1-1.4 1.1-.2 0-.3.3-.3.7 0 .3-.2 1-.6 1.7-.8 1.5-2.5 5.5-2.8 7.2-.3 1.2-.7 2.2-1.8 4.7l-.9 2.3-.6 1c-.5.2-3-1-4.3-2.2-1.3-1.2-1.6-2.2-.7-2.6.5-.3 2.1.6 3.6 2 1 1 1.5.6 1.9-1.4l1.2-4.4a93 93 0 0 0 1.3-3.8c.3-1.3 1.6-3.3 3-4.7.5-.6 1-1.2 1-1.4a21 21 0 0 1 3.5-4.4c.5-.4.6-.6.5-3.7 0-3 0-3.3-.7-4.2-.4-.7-.7-1.6-.8-2.6a22 22 0 0 0-1.4-5.8c-.4-.7-.9-.6-.9.3 0 .8-.5 1.3-1 1-.4-.2-.6-.9-.8-2-.5-3-1.2-4.6-2.5-6A5.4 5.4 0 0 1 230 32c0-.3-.3-.7-.6-1.1-.5-.7-.7-.7-1.5-.6-1.4.3-2-.3-2.4-2.2a25 25 0 0 0-.6-2.3c-.2-.6-.1-1.5 0-2.9l.4-2-.7-.7c-.8-.7-.8-.9-.3-2.3 1.2-3.3 1.4-5 .7-6.7-.8-1.7-1.5-2.2-3-2.2-3 0-6 2.7-6.1 5.6a36.5 36.5 0 0 0-1.3 7.8c-.5 4.3-.8 5.5-1.6 6-.4.1-.6.1-1-.3s-.4-.7-.3-2.4l.4-5.2.1-3.1-.8.9c-.4.5-.9 1.3-1 1.8l-1.5 3.3c-1 2-1.4 2.4-2 2.5-1 .1-1.2-.7-.6-1.8l.4-1.1c0-.3.2-.6.4-.7.2-.2.4-.7.4-1 0-1.4-1-.4-1.8 1.8-.3.8-.9 2-1.3 2.5-.7 1-1.2 1-2.6.5-.3-.2-.4 0-.4.8 0 1.5-.3 1.9-1.3 1.4-.4-.1-.9-.5-1-.8 0-.3-.2-.5-.4-.5-.3 0-.3.9 0 3.8.2 1.7.2 2.5 0 2.7-1.2 1.5-3.7-4-3.2-7 .1-1.1.9-1.9 1.7-1.9.5 0 .7-.4 1-2.3.1-1.5.7-2.2 1.8-2.2.4 0 .7-.2 1-.7.6-1.3 1.3-1.7 2.3-1.6.9.2 1 0 2-1 .5-.5 1.2-1.4 1.4-2l1-2.5c.5-.8 1-2.6 1.3-3.9.4-2 .4-2.4 0-3-1-1.8-4.8-2.4-7.4-1.2-2.2 1-5.2 4.5-5.2 6.1 0 1.3-1 1.8-2.2 1-.6-.4-1.3 0-1.6 1a7 7 0 0 1-.9 1.7c-.4.7-.7 1.6-1 3.1 0 1.2-.3 2.6-.4 3.1-.9 3.3-.8 3.2-1.6 3-.4 0-.9-.2-1.1-.3-.4-.1-.4.1-.6 1.9 0 1.9-.2 2-1 2.7-.4.5-.8 1-.9 1.7-.2 1-.5 1.4-1.5 1.6-.7.2-.8.3-1.1 2.4-.2 1.2 0 1.4 4.6 3 5.7 1.8 6.6 2.7 9.7 9l3.3 6.8c.6 1 1 2.4 1 2.8 0 .6.4 1.2 1.2 2.1 1.2 1.3 1.3 1.3 2.8 1.3 1.4 0 1.6.1 3 1.3 2.4 2 2.6 2.6.8 2.5-1.4-.1-1.1.5 1.2 2.8a27 27 0 0 1 6.5 11.4L218 80c.2.7.7 1.1 1.3 1.5 1.3.6 1.7.2 1.1-1-.3-.6-.4-1.1-.3-2.3.3-2 .4-2.1 1.3-2.1 1.2 0 1.5.4 1.5 1.8 0 .7.3 1.8.6 2.5.5 1.2.5 1.3 0 2.6-.3 1-.5 1.4-1.3 1.7-1.1.5-1.2 1.6-.2 2.4 1 .9.8 1.5-.6 1.6-.6 0-1.1.2-1.1.4 0 .1.2.2.4.1.7-.1 2 .5 2 1s-.9 1-1.7 1c-1 0-1 .3 0 .7 1.6.7 1.6 1.9.1 1.7-1-.2-1.4.4-1.4 2.3 0 2 .1 2 2.5 3.7 1.7 1.1 5 3 5.3 3 .5 0 3-1.5 3.6-2 1.2-1.3 2.8-.7 2.6.8 0 .4 0 .9.2 1 .2.5 1.4.5 1.6 0zm-10-43.2c-.7-.6-.9-1-.7-2 0-.6 1.8-2.2 2.6-2.4 1.5-.3.9-1.8-.6-1.8-1 0-2-.6-2-1.3 0-.6 1.7-1.1 3-.9 2.3.4 3.3 1.7 3.5 4.4.2 2-.1 2.6-2 3.8-1.6 1.2-2.8 1.2-3.8.2zm-18.3-1c-1-.7-2.3-2.1-2.3-2.6l-.9-2c-.6-1.3-.8-1.9-.6-2.2l.2-1.3c0-1 .6-1.9 1.3-1.8.6.1 1.8 2.5 2 3.8.2.8.6 1.5 1.8 2.7 1 1 1.5 1.8 1.3 2-.6 1-1.3 1.8-1.6 1.8-.2 0-.8-.2-1.2-.5zm1.3-7.5-1-1.4a9 9 0 0 1-1.3-3.6c0-1 .7-2 1.6-2 .8 0 1.1.5 1 1.6 0 .4.4 1.7.8 3 .6 1.6.7 2.2.4 2.6-.4.7-1 .6-1.5-.2zm4.8-1c-.4-.6-1.2-4.3-1.3-6.3 0-1 0-1.3.4-1.4.7-.1 1.5.7 1.5 1.4 0 .3.2.8.4 1 .5.8.4 5.6-.2 5.7l-.8-.4zm4.2-2.8c-.6-.5-1-2.5-.6-3.7.2-1.1.5-1.4 1.2-1.1.5 0 .5.4.5 2.3 0 2.5-.3 3-1 2.5zm4.2-7.4a3 3 0 0 0-1.3-1c-1-.4-3-2.3-3.6-3.6a10 10 0 0 1 0-6.6 84 84 0 0 0 2.3-5.6c.3-1.2 2.2-1 2.4.2.1.6.4.9.9 1 1.2.5 1.4 1.5.6 3.5a19 19 0 0 0-.6 2.8c-.2.8-.5 2-.8 2.4-1 1.6-.7 3.2.5 3.2 1 0 1.4.6 1.4 1.8 0 1.2-.5 2.7-1 2.7l-.8-.8zm97.7 60c-.2-.3-.5-.4-.6-.3-.1 0 0 .3.3.5.7.5.9.3.3-.3zm63.7-8.3.4-2c.1-1.3.3-1.9.6-2 .5-.3.6-1.5.2-2.1 0-.2-.3-.3-.5-.2-.2.1-.5.1-.8 0-.5-.1-.5-.4-.5-2.6 0-2.9-.3-4.3-1.5-5.5-.7-.7-1.2-.8-2.3-1-2.6-.2-6.5 2.2-8.2 5-.8 1.4-2 2.2-2.6 1.9-1-.7 3.4-6.3 5.8-7.4 3.3-1.4 5.6-1.5 7.9-.1 1.3.7 2 1.8 2.4 4 .6 2.4 1 2 .8-1a11.8 11.8 0 0 0-2.3-7.2c-.3-.1-.8-.6-1-1.2l-.8-.9c-.2 0-1-.4-1.8-1-1.4-.8-1.7-.8-3.7-.8-2.3 0-3-.3-2.5-.8.4-.2 3.2-.7 4-.6 2.2.4 4.4 1.6 4.7 2.7.2.3.3.3.9 0 1-.5.9-1.2-.6-3.2a60.3 60.3 0 0 1-7-11c-.8-.8-.6-1.5.4-1.2.5.1 2 2.2 2.7 3.8.6 1.2 1.7 3.2 2.3 3.8l1 1.6c.7 1.1 2.4 3 2.7 3 .2 0 .2-1 .2-2.2 0-2 .1-2.3.6-2.4.3-.1.7 0 .8 0 .2.2.4 1.6.5 3.2.1 1.6.4 3.4.7 4 .2.7.3 1.6.2 2 0 .5 0 1.2.5 2l.6 1.1.2-.7.2-2.4c0-.8 0-2.3.2-3.1.2-1.7.5-2 1.4-1.5.3.2.4 1 .3 4.3l.1 4.8c.2.8.4.8 1.5 1 .7 0 1.3-.1 1.5-.4.3-.4 1-3.2 1-4.3 0-1.2.4-1.6 1.3-1.2.6.3.7.4.5 1.9-.1 1-.1 1.6 0 1.6.6 0 1-.6 3.7-7.5 1.6-3.9 1.6-5.2.2-7-.6-.7-1.7-2.2-2.4-3.4l-2.4-3a45.2 45.2 0 0 0-14.4-8.9c-1-.6-5-1.4-6.8-1.4-1 0-2.1-.2-2.7-.3-.5-.2-2.3-.4-4-.5l-5.2-.6c-2.5-.4-14.1-.5-15.4-.2-.7.2-1 .4-1 .7 0 .3-.3.8-.7 1.1-.7.7-.8 1.3-.3 1.9l1.3 2c1 1.8 2.9 3.7 3.5 3.5.2-.1.4-.5.5-1 .3-1.5 3.3-3 5-2.6 1.2.3 1.2.4-2.3 4.5-1.7 2-3 4.3-3 5.1 0 .2.2.7.5 1.1.4.5.5 1 .4 1.5-.2.7 0 1 .2 1.3 1.7 1.3 1.8 1.8 1 3.5-.3.9-.3 1.6-.2 4 .1 3 .6 4.3 1.4 4.3.4 0 .9-.8.9-1.5 0-.8 1.1-3.2 1.6-3.4 1-.3 1.3.4 1.1 2v1.6c.1 0 .5-.3.9-.8.8-1 4-2.5 7.5-3.6l3.2-1c3.1-1.1 7.6-1.4 6.8-.5-.2.2-.9.4-2 .4-.9 0-1.9 0-2.2.2l-2.6.8c-2.8.8-3.6 1.2-4.2 2a17 17 0 0 1-1.3 1.7 13 13 0 0 0-3 7c-.4 3.4-.3 4 .3 4.7.7 1 1.1.4.8-1.3-.3-1.2-.2-1.7.3-3.2 1.1-3.3 5.2-8 6.8-8 1.3 0 1.1.7-.4 2.2-.8.8-1.7 1.8-1.9 2.2l-.9 1.7c-.9 1.7-1.3 4.2-1.1 7.5.2 3.4.3 3.6 2.9 3.8.8.1 1.8.3 2 .5l2.2.8c1.8.5 5 1.8 10 4 1.2.6 2.2.7 2.4.4zM361 87.2c-1.6-1.3-1.8-1.4-2.5-.8-.4.3-.4.3 0 .8l.9.4 1 .4c.2.2.8.4 1.2.4.8 0 .8 0-.6-1.2zm-146.8 0a6 6 0 0 0-.3-1c-.2-.5-.2-.5-.2.4 0 .6 0 1 .2 1s.3-.1.3-.3zm144.4-3.4c0-.2 0-.8-.3-1.3-.6-1.4-1-3.3-1.1-5.6 0-1.2-.2-2.4-.4-2.7-.3-.5-.3-.8 0-2 .8-2.3.6-2.7-1-2-.5.1-.6.7-.6 4.8 0 2.2-.7 2.6-2 1.3-.7-.6-.7-.6-1-.2-.4.5-.8 3.4-.8 5.8 0 1.2 0 1.4.7 1.7.9.4 3.7.8 5.4.7.7 0 1-.1 1.1-.5zM404.2 59c0-.3-1.2-1.7-3-4-.6-.5-1.5-.5-1.5 0 0 .2.3.7.7 1l2 2.1c1.2 1.5 1.8 1.7 1.8 1zm3.5-4.1c1.1-.5 1.6-1 1-1-.5 0-2.7 1-2.7 1.3 0 .3.4.3 1.7-.3zm-209.1-1.9-1-2c-.6-1-1.5-2.7-2-4-2.1-4.2-4.3-6.7-6.7-7.6l-3.3-1.2c-1.8-.8-2.3-.9-5-1-2.3 0-3.1-.1-3.5-.5-.6-.5-1-.5-4 0-2.6.4-7.5 2.5-7.8 3.2 0 .2.2 1 .7 1.6.9 1.3 2.1 1.8 4.4 1.7 5-.1 8.3 0 8.6.2.2.2 1 .5 1.8.8 2 .6 3.7 1.5 5.6 2.8.8.5 2 1.2 2.6 1.4l2.8 1.3a229.9 229.9 0 0 0 6.8 3.3zm54 191.8c-3.5-.3-5.2-.7-4.8-1.2.3-.6 6.4-.8 7.8-.3 1.2.4 1.7 1.2 1 1.6l-.8.2-3.1-.3zm-8.3-4.2a809 809 0 0 0-24.8-1.2c-5.3 0-15-.6-18.9-1-3.5-.2-4.3-.5-3.4-1.2.5-.5 3.4-.5 15.4-.2a359.5 359.5 0 0 1 36 2.2c2.4 1 .2 1.8-4.3 1.4zm69.2-10.6-1-.5c-.2-.2-1.1-.2-2.2-.3-2 0-3-.3-3-1 0-.2.6-.3 2.3-.2l4.2.2c1 0 2.2.1 2.5.3 2 1.1-.4 2.4-2.8 1.5zm-12.7-1.1-4-.8c-1.6-.4-2-.4-2.9 0-.8.2-1.8.3-4.6.1-2-.1-3.9-.3-4.2-.5-.4-.2-2.7-.4-7.2-.4a336.3 336.3 0 0 1-30.2-1.5 85.9 85.9 0 0 1-20.3-2.6l-.6-.4.6-.3c.4-.2.8-.3 1-.2a358 358 0 0 1 17.3 1.5l8.3.4a613.6 613.6 0 0 1 32.3 1.8l4.8.4 6.8.5c4.9.2 6.7.3 7.3.6 1 .5.8 1-.3 1.5-1 .3-1 .3-4-.1zM313 221v-.7c.5-.4 1.3 0 1.1.5 0 .6-1 .7-1.1.2zm-5.2-3.2-10.3-.3a1092.8 1092.8 0 0 1-46.5-1.4 214 214 0 0 1-20.7-1c-2-.2-3.9-.4-4.3-.6-.4-.1-1.9-.3-3.3-.3-3 0-5.8-.4-6-1-.2-.5.3-.6 3.6-.3 1.6.2 4.1.3 5.5.3a425.9 425.9 0 0 0 24.3 1c10.4.3 21 .6 28.5 1 11.7.5 17.3.6 23.8.7 5 0 7.7 0 8.1.3.8.4 1 1.2.5 1.5-.4.3-3 .3-3.2 0zM45.6 201.5c-.4-.4-.2-1.6.3-1.9a65 65 0 0 1 12-3.2c1.1 0 1.5 0 1.9.3.9 1 .4 1.5-2 2.2l-1.8.4a4 4 0 0 0-1.4.4c-2 1-8.5 2.3-9 1.8zm.4-6.5c-.5-.3-.6-.5-.6-1.3.1-1 .2-1 2.4-2 .8-.3.8-.3.3-.4-1 0-3.4-1.3-4.2-2.2-.3-.4-.6-1-.6-1.5 0-.6-.2-.7-.9-.9-.5 0-2-.7-3.6-1.5-2.3-1.1-2.8-1.3-3.8-1.1-1.2.1-1.2.1-3-1.8-2.5-2.5-2.6-3.6-.5-4.2.9-.2 1.4 0 4.1 1.7l2 1.2v-.5c-.4-1.2 1.1-1.9 2-.9.7.7 1.8 3.3 1.6 3.7 0 .1.3.6.8 1 .6.5 1.1 1.1 1.3 1.5.3.7.4.8 1.3.6.6 0 1.5 0 2 .2.5.1 1 .2 1.1.1.1 0-.7-1-1.7-2a31 31 0 0 1-5.2-6.2c-1.3-1.7-1.3-2.4 0-2.8 1.3-.4 2 0 4.3 3.1 1 1.5 2 2.4 2.3 2 .1 0-.5-.8-1.3-1.6-1.3-1.3-1.5-1.7-1.7-2.8-.2-1.6.2-2.1 1.4-2 1.2.3 1.1 0 0-1.4-.8-.8-1-1.1-.7-1.5.7-1.2 2.5-1.3 3.6-.2.6.5.7.5 1.6.2.6-.2 1-.2 1.4 0 .8.4 1 .3 1.3-.6.3-1 1.2-1.6 2-1.2.4.1.7.4.7.5l1 1.7c1.4 2.2 1.7 3 1.2 3.9-.3.5-.3.8.2 2 .6 1.7.6 1.7-.1 2.5-.4.3-.7 1-.8 1.4-.2.7-.2.8 2.8 2.2 2.5 1.3 3 1.6 3 2.2.2 1.1-.4 1.3-2.6.9a56.3 56.3 0 0 0-9.4-1.3c-.6-.4-.7 0-.2 1 .6 1.1 1 1.3 4.2 2 2.6.5 5 1.3 6 1.9.6.3.9 1.3.7 2-.2.7-1.3 1.1-2.6 1.1l-2.7.4c-1 .2-2.4.4-3.4.4s-2.4.2-3.2.4c-1.8.5-3 .5-3.8 0zm8.6-13.6c0-.5-2.3-2.5-3-2.7-1-.2-1.2 0-.6 1 1.3 1.6 3.6 2.8 3.6 1.7zm301.9 9.9c-.8-.3-1.1-.9-.7-1.3a42.5 42.5 0 0 1 18.1-.5c.3.2.3.4 0 .7-.4.3-1.4.5-3.7.6-4 .3-3.8.3-6.7.2-1.8-.2-2.6-.1-3.4.2-1 .4-2.6.5-3.6 0zm-15-1c-.3 0-1.2-.4-2-.9l-2.1-.7c-.5 0-1.2-1-.7-1.1 2.8-.2 4.8.3 6 1.4 1 1 .3 1.9-1.2 1.3zm-307.9-1.7H30c-4.2.2-7.7-1.3-7.1-3.1.5-1.7 4.3-1.7 9.2 0 2.4.8 3.5 1.5 3.8 2.2.2.6.2.7-.3.9h-1.9zm342.5-11c0-1 1.8-4 2.5-4.3.5-.2.6-.5.6-1.4 0-.7.3-1.4.9-2l.8-1.5c0-.3.9-2.3 2-4.5a43 43 0 0 0 2.4-5.3c.6-1 2-4.5 3.5-9.3a96.4 96.4 0 0 1 2.4-7.3c0-.4.3-1.3.7-2.2a9 9 0 0 0 .6-1.8l.8-2 .8-2.1.4-1.4c.2-.5.6-1.6.8-2.6.9-3.4 1-3.4 1.6-3.4 1.1 0 1.2 1.8.1 4.6a415.7 415.7 0 0 0-6.8 20.4l-.3 1.1a57.1 57.1 0 0 0-2.8 6.5 51 51 0 0 1-6 11.4c0 .5-1 2-1.3 2.3-.2 0-.2.4-.2.9s-.3 1.4-.7 2l-1 2c-.2.5-.4.7-1 .7-.7 0-.8-.1-.8-.8zm-311.5-1.1c-.2-.2-.7-.7-1-1.3-.7-1.3-.9-1.3-1.1-.3-.2.9-1 1.2-1.6.6-1-1-2.2-3.5-2.4-5.2l-.3-2c-.1-1 0-1.4.4-1.8.7-.7 1.5-.7 2.2-.1.4.3.6.4 1.5 0 .6 0 1.2-.2 1.4 0 .8.2 1.5 1.8 1.8 3.8l.5 2.7c.2.8.4 2 .3 3.3 0 .6-.8.8-1.7.3zm309.5-13.1c-.3-.4-.3-.6.6-2.2.5-1 1.3-2.1 1.7-2.7l1.8-3c.6-1.2 1.3-2.3 1.5-2.5l1.2-2.3 2.4-4.6a68 68 0 0 0 6-21l.4-16.3c.1-.3.4-.6.6-.6 1 0 1.4 2.2 1.4 9.2A60 60 0 0 1 389 137a79.8 79.8 0 0 1-7.3 16.2 79.2 79.2 0 0 0-3.8 6.3c-2.1 3.5-2.4 3.9-2.8 4.1-.4.2-.6.2-1-.1zm-33.4-80.1c0-.3.2-.5.4-.5.3 0 .4.1.2.2l-.4.5c-.2.1-.2 0-.2-.2zm-11.8-2c-1.9-.6-2.8-2.2-1.9-3 .4-.2.6-.3 1.4 0 1 .4 1.4.2 1.4-.5 0-1.4 1.3-2.5 3.5-2.8.8-.1 1 0 1.4.5 1 1.4-.1 4.2-2.1 5.3-1.6.9-2.4 1-3.7.6zm15.1-1.6h.6c0 .2-.1.2-.4.2-.3 0-.4 0-.2-.2zm-53.6-1.5c-1-.5-1-.6-.6-.6.8 0 2 .5 2 1 0 .4 0 .4-1.4-.4zm-2-1.1h.6c0 .1 0 .2-.4.2-.3 0-.3-.1-.1-.2zm-4-.8c-2.8-.7-7.4-.8-8.6-.2-.7.4-1.8.5-2.3.2-1.7-1 5.9-1.9 10.1-1 2 .3 4 1 4 1.3-.1.5-.7.4-3.2-.3zm41.2-4.7c-.3-.3-.3-1-.3-4.3 0-2 .4-4 1.1-5.5.3-.7.4-.7 2-.5 1.2 0 2 .3 2.3.6.5.5.5.5 0 1.7-.7 1.4-.8 1.8-.3 1.8.4 0 1-1.4 1.5-3 .4-1.4 1.2-2.8 1.7-2.8.3 0 .7.2 1 .5.5.5.4 1.3-.1 2-.2.2-.4.9-.5 1.5 0 .6-.5 2-.8 3-.6 1.6-.8 1.8-1.8 2.3-.6.2-1 .5-1 .6 0 .2-.4.7-.9 1.1-.6.8-.8.9-1.2.6-.3-.3-.6-.2-1.4.2-.8.5-1 .5-1.3.2zm-78.5-3.4.8-.7.7-.5c.6-.6 1.3-.7 1.3-.2 0 .3-1 1-1.7 1-.1 0-.5.2-.7.5-.2.3-.5.5-.7.5-.2 0 0-.3.3-.6zm87.5-.9c-.5-.2-.3-1.5.4-3.2 2.7-5.8 3.1-6.4 4.2-5.8.8.4.5 2.1-.8 4.4l-1.2 2.5c0 .5-1.5 2.3-2 2.3l-.6-.2zm-83-2c.9-.8 2.8-2 4-2.4l2.5-1c.7-.5 1.7-.7 2.2-.7.5 0 .7 0 .5.1l-1 .7c-.2.2-.6.5-.8.5l-3.6 1.6c-3 1.5-4.7 2-3.9 1.2zm87.9-.7c-.3-1 1.2-3 2.2-3 .2 0 .3.4.3.7 0 .4-.1.7-.3.7-.1 0-.3.2-.4.5-.2.6-1 1.6-1.4 1.6-.1 0-.3-.2-.4-.5zm-24.8-9c-.4-.4-.5-1-.5-2.2-.2-4.4.2-5.5 1.6-5.5.7 0 .7 0 1-1.5.2-2.6 1-3.5 2.3-2.6.8.5 1 1.4.4 2.5-.3.5-.6 2-.7 3.3-.2 2.5-.6 3.2-1.3 2.2l-.4-1c0-.8-.8-.6-1 .2a7 7 0 0 0 0 2c.3 1.5 0 3-.5 3.2-.2.1-.6-.2-.9-.5zm6.2.6c-.5-.3-.8-1.2-1.3-3.3-.4-1.8-.4-2.2-.1-3.2.5-1.5.8-1.8 1.6-1.7.6 0 .6 0 .6 2 0 1 0 2.5.2 3.4.1.8.2 1.7.1 2-.1.7-.7 1-1.1.8zm12.5-8c-.6-.3-1.4-.9-1.8-1.3-.5-.4-.8-.6-1.3-.4-2.3.5-7.5-5-8-8.8-.2-1-.2-1 .5-.9.7.1 1 .5 2 2.3 2.4 4 2.2 3.8 4 3.8 4.4 0 4.6 0 4.8 1.4.2.7.4 1 1 1.3.8.3 1 .6 1 2 0 .7-.1 1.1-.4 1.2-.6.3-.7.2-1.8-.5zM307.6 45c-1.3-1.2-1.4-2.8-.2-2.8.8 0 1 .4 1.4 1.8.4 1.5 0 2-1.2 1zm-66.5-5.7c.3-.2.6-.7.7-1.1.3-1.4 3.3-4.2 3.3-3.1 0 .7-3.6 4.7-4.2 4.7-.2 0-.1-.2.2-.5zm4.3-5c0-.6 2.6-3 3-2.8.4.1.4.2 0 .5-.1.2-.5.4-.7.4-.3 0-.4.2-.4.5s-.2.6-.5.6c-.2 0-.6.2-.9.5-.3.3-.5.5-.5.3zm5-4.5c.2-.3.6-.8 1-1 .8-.5 1.7-1.4 1.7-1.7 0-.4 2.8-1.9 3.5-1.9.6 0 1-.3 1.5-.7.8-1 1.6-1.4 2.5-1.4.3 0 1.2-.4 2-1 .7-.6 2.3-1.5 3.5-2l3.4-1.4a21 21 0 0 1 3.6-1l3.7-.8c1.5-.4 5-.3 6.6.1 1.2.3 1.5 1 .7 1.2-.5.2-2.6.2-3.5 0a23.3 23.3 0 0 0-9.5 1.4c-.8.2-2.6 1-3.9 1.5-1.3.7-2.8 1.3-3.4 1.5-.6.1-1.5.5-2 .8-2 1.3-2.7 1.6-3.3 1.6-.4 0-.7.1-.7.3 0 .1 0 .2-.2.2-.3 0-1 .5-2 1.7-.4.4-1.4 1-2.2 1.4l-1.4.9c0 .2-1.2.8-1.6.8-.2 0-.1-.2 0-.5z"/>
</svg>
