<?xml version="1.0" encoding="utf-8"?>
<svg xmlns="http://www.w3.org/2000/svg" xmlns:svg="http://www.w3.org/2000/svg" version="1.1" viewBox="0 0 223 149">
	<title>Pigling Bland and Pig-wig run across a stone bridge crossing a rocky river.</title>
	<path d="M96.4 148.6c0-.2.2-.3.4-.3.3 0 .4.1.4.3 0 .1-.1.3-.4.3-.2 0-.4-.2-.4-.3zm33.8-1c-.2-.2-.2-.7.1-1.5.2-.6.4-.7.6-.4.3.2.6.2 1.1 0 .6-.2.7-.4.5-1 0-.4 0-.8.4-1.3.7-.9.7-1.1 0-1.7-.5-.4-.5-.5-.2-1 .1-.3.4-.6.5-.6.1 0 .5-.4.8-1 .6-1 .9-1 2.5-.4.5.1.7 0 1-.8a4 4 0 0 1 1.5-1.5c1.4-.8 1.5-1.6.1-1.4-.8.2-.9.1-.8-.3 0-.3.5-.6 1.1-.8.7-.2 1-.4.8-.5-.5-.3-.5-1.2 0-2.1.6-1.2.5-1.8-.2-1.8s-1-.7-.4-1.2c.4-.4-.2-2.5-1-3.2-1.4-1.3-1.3-3.2 0-2.9l.7.1-.2-.6c0-.4 0-.6.3-.6.5 0 1 1.1 1 2.4 0 1.5.2 2.3.7 2.3.2 0 .3.2.3.3 0 .1.1.3.3.3.1 0 .3-.4.3-.8 0-.7 0-.8.5-.8.6 0 3-1.6 3.5-2.5.3-.3.3-.7.2-1.1-.3-.8 0-1.8.8-2.2l.8-1.3c.3-1.3.9-1.5 2-.9l1.1.6c.5 0 1.4-2.4 1.4-3.5 0-.7.1-1.3.5-1.7.8-.8.7-1.7 0-2.8-.4-.5-.9-1.5-1-2.2-.5-1.5-1.4-3-1.8-3l-1.4.5c-.5.3-1.1.5-1.4.5-.2 0-.7.3-1 .6-.3.4-1.2.9-2 1.1l-1.4.6-.3 1.2c-.2 1.7-.9 1.6-.8 0l.1-1.5 1.1-.7c.7-.3 1.7-1.3 2.3-2.1a30 30 0 0 1 1.7-2.2c.6-.6.6-.7.3-.7-.9 0-.8-.8 0-1.6.7-.7.8-1 .7-1.7-.1-.7 0-1 .5-1.3.9-.6 1.5-2.4 1.8-5.7l.4-3c.1-.2.9-4.5.8-4.6-.1-.1-1.9.8-3.2 1.7-1.1.8-1.4.9-1.8.6-.4-.2-.7-.2-1.5.3a7.5 7.5 0 0 0-3 3c-.3.5-.9 1.2-1.4 1.5l-.9.5-.1 1.8a49 49 0 0 1-1 7c-.2.2-.4.1-.5 0-.2-.2-.2-.8.1-2a34.4 34.4 0 0 0 1-5.5c0-.2 0-.4-.3-.5a41.3 41.3 0 0 1-1.8 7 6 6 0 0 0-.2 1.9c0 .1 0 .5-.3.8-.2.3-.6 1.5-.8 2.6-.1 1.2-.5 2.5-.6 3-.2.4-.3 1-.2 1.2.2.5.3.4.5-.3.2-1 .9-1.2 1.2-.5 0 .2.3.4.6.4.4 0 .5-.2.5-1v-1l.8.3.9.1-.2-1.8c0-1 0-2 .2-2.4.4-.8 1-5.9 1-8.6 0-1.9.5-3.4.9-2.8v1l.1.6c.2 0 1.3-.8 2.6-1.8 2.4-2 4-3 4.7-3 .7 0 0 .7-1.5 1.6-.8.4-2 1.1-2.5 1.6-2.3 1.9-2.7 2.1-3.1 2.1-.3 0-.4.2-.4.4 0 .7.5.8 1.1.2a2 2 0 0 1 1.2-.6c.3 0 .7-.2.8-.4.7-.7 4-2.6 4.3-2.3.1.1-.8 1-2.5 2l-2.8 1.8-.6 1.4-.9 2.2-.6 1.2c-.4.5-1 4.6-1 6.7-.1.7-.3 1.3-.5 1.5l-1.2 1.1c-.4.4-1.1.8-1.6 1-.6 0-1 .3-1 .6 0 .5.2.6 1.5 1 1.7.4 2 1 .7 1.2-2 .3-1 1.1 1.3 1.1a8 8 0 0 1 2.2.3c.5.2.8.2 1 0 .2-.2.1-.3-.2-.3-.6 0-.6-.5 0-.7.5-.2 1.7.4 1.7.8 0 .8-1.1 1-3.2.9-1.6-.2-2.1-.1-2.1.1s.1.5.4.6c.2.2.4.9.4 1.5 0 1 0 1.2-.4 1.3a1 1 0 0 1-.8-.3c-.5-.7-5.3-.8-5.4-.2 0 .5.3.6 2.6.9 1 .1 1.9.7 1.9 1.2 0 .7-.5.7-1.7.1-.7-.3-1-.3-2-.1l-1 .3-.9 1.9-1 2.3c-.2.2-.6.5-1.1.5-.7.1-1.2.6-2.2 1.9-.8 1-1.7 1.8-2 1.8-1 .1-1.5 1.2-1.3 2.8v1.8c-.2.7-1.3.6-1.8-.2s-.5-1 .1-1c.4 0 .6 0 .6-.7 0-1.8 1.4-4 2.8-4.3.8-.2 2-1.7 2-2.5 0-.5.6-1.2 2.3-3 .6-.5.8-1.3 1.3-3.7.7-3.2.8-6.2.4-9.3l-.2-1.8-.5.1-1.9.2c-.8 0-1.4.1-1.7.4-.2.3-.9.8-1.4 1l-1.2 1.1a18 18 0 0 0-.6 5c.1 0 .7-.9 1.3-2.1 1-2.1 1.5-2.8 1.8-2.5L126 113c-2 3.9-2 4-2.2 10-.1 3.9-.6 4.7-3.3 5.1-.5.1-.9.4-1 .6 0 .4-.5.4-2.2.4-1.8 0-2.2.1-2.5.6-.5.6-.5.9 0 .9.2 0 .7.3 1 .7.6.6.8.6.8.3 0-.2.1-.5.3-.5.2-.1.2-.2 0-.6l-.4-.4h.5c.3 0 .6 0 .9.2.2.2.5.1.9-.1.3-.2.7-.4 1-.4.3 0 .5-.2.6-.4.2-.5 1-.5 1 0 0 .3-.3.7-.5 1l-.5.5.5.3c.2.1.4.3.3.5-.2.3-1.3.3-1.6 0-.4-.4-2-.7-2-.3l-.5.8-.6.6-1.5-.2a14 14 0 0 1-1.8-.3c-.3-.2-2.2 2.5-2.2 3.1l.4.8c.5.4.5 1.4 0 1.8-.4.3-.2 1.3.2 1.3.2 0 .6-.1.8-.3.4-.3.4-.5.2-1.2-.2-.8-.2-1 .1-1.6.3-.4.4-1 .3-1.4-.2-1 .2-1.2 1-.4.9.8.9 1 0 1.9-.8.8-.8 1-.1 1.7l.5.7v-.7c0-1 .7-1.5 1.5-1 .8.4 1.2 0 1-.7l-.1-.7h.7c1 0 2-.6 2-1.2 0-.2.2-.4.5-.4.9 0 .6 1-.4 1.7-.5.3-1 .8-1 1.1 0 1-.4 1.3-1.8 1.5l-1.4.1-.1.8c-.2 1-.6 1.5-1 1.2l-.4-.7c0-.2-.1-.4-.3-.4-.2 0-.2.5 0 1.5.1 1.6-.4 2.8-1.3 2.8-.3 0-.5 0-.5.2 0 .3-2 1.5-2.6 1.5h-.9l-.7 1c-.5.8-.6 1-1 .7l-1.4-.3c-1.3 0-1-.7.5-1.2.7-.2 1.3-.5 1.5-.7.4-.3.2-.9-.5-1-.7-.2-.6-.7.2-1 .7-.3.7-.8 0-.8-.2 0-.4-.1-.4-.3 0-.4.5-.6 1-.3s.9.2 1.6 0c1.2-.4 1.4-.7.9-1.3l-.4-.5.5-.2c.8-.2.8-.4.1-1.1-.7-.7-.7-.8 0-.8.8 0 .9-.6.1-1.4-1-1-1.6-1-2.8.2-.5.6-1 1-1.2.8 0 0 1.2-1.5 2.9-3.2l3-3 .2-1.1a66.4 66.4 0 0 0 0-11.7v-2.2h-.7c-.7 0-1 .2-1.4 1-.3.7-1 2.1-1.8 3.3-1.2 2.2-1.5 3.6-1.8 7.8-.2 1.3-.5 2.3-.9 2.4-.4.2-.5 1.2 0 2.2.4 1.1.2 2.7-.5 4l-1.2 2.9c-.8 2.3-.8 2.3-2.1 2.4-1 0-1.3.3-1.9 1l-.7.7-.4-.4c-.4-.4-.5-.5-.7-.1-.2.2-.3.5-.3.7 0 .9-2.3 3.5-3 3.5-.8 0-2-1-2-1.7 0-.3.3-.6 1-1 1.5-.6 2.5-1.5 2.3-2 0-.3-.3-.3-.8-.2-.7.2-1.2-.5-.7-1 .3-.3.2-.5-.2-.6-.3 0-.5-.3-.5-.5 0-.5 2-2.8 2.5-2.8s.5.3 0 .7c-.2.2-.1.4.2.5.7.3.8.1 1.8-3.8.3-1 .3-1.2 0-1.4-.3-.2-.3-.3 0-.6.3-.5.5-4.2.2-4.7-.1-.2-.3-.3-.3-.2l-1 1.3-2.4 3.3c-1.1 1.8-1.5 2.2-2 2.2-1 0-2.9 1.7-4 3.4-1 1.5-2.4 3-3 3-.3 0-.3.5.2 1.3.6 1.2.5 2.3-.6 3.4-.8.7-1 .9-1.8.7-1.3-.2-1.5-.5-1-1.7l.4-1h.9l.8.2-.3-1.5c-.2-1.3-.1-1.7.4-2.7l1-2.5c.5-1.5 1.2-2 2.7-2 1.3 0 2.2-.7 4.2-3l2.8-3c.7-.7 1.2-1.4 1.2-1.7 0-.3.1-.6.4-.6.7-.3.4-.7-.9-.9a16 16 0 0 1-2.5-.6l-1.2-.4-.9.7c-.4.4-1 .7-1.4.7-.3 0-.8 0-1.1.2-.8.5-1.3.4-2-.2-1-.7-1.4-.5-3.7 1l-1.7 1.1-1.5-.4c-.8-.2-2.2-.4-3.1-.4-4.3 0-9.2-.2-10.3-.4-1.1-.2-2.4-1-2.1-1.3.3-.3 16.8-.2 17 .2.3.4.5.3 1.3-.4 1.5-1.4 3.8-2 4.5-1 .5.8 2 1 2.8.3.4-.3 1.8-.9 3-1.2 3.4-1 3.3-1 3.5-.2.1.6.5 1 1.1 1.4 1.2.7 1.6.4 1.8-1.1.2-1 .1-1.2-.4-1.6l-.6-.4.3-.7c.2-.4.5-.7.6-.7.4 0 1.2-.8 1.9-1.8a88.6 88.6 0 0 0 4.2-4.5l.6-.8-.4-.7-.7-1.5c-.2-.6-.5-.7-1.7-.8l-4.6-.2a21 21 0 0 1-4.1-.2c-.9-.3-1.6-.3-6.4 0-1.8.2-2.5.1-3.2-.2-1-.5-1.5-.5-2 0-.2.2-2.3.3-8.6.3-8.5 0-10.5.2-12.6 1.3a21.2 21.2 0 0 0-9.4 4.9c-.6.6-2 1.6-3 2.3l-2.7 2c-.3.4-1.1 1-1.7 1.2-.9.4-1.2.7-1.2 1 0 .8 1.2 2 1.8 2 .3 0 .6 0 .7.2.1.2.6.3 1 .3.5 0 1 .1 1.2.3.3.2 1.8.3 6.2.3 5.8-.1 7.8.2 3.6.5-6.5.5-9.6.5-11 0-2-.6-5.1-.3-6.2.6a3 3 0 0 1-1 .7 11 11 0 0 0-3.6 1.9l-1 .7-1.3.8-1.7 1a70.2 70.2 0 0 0-8.7 5.4c-1.1.4-.6.9 1.1 1 1 0 1.7.2 1.9.4l.3.4 2-.7c2-.7 2.3-.7 4.6-.2 1.4.3.8.7-1.1 1-1 0-2.6.3-3.4.6-1.2.5-1.8.6-3 .4-1.4-.1-1.8 0-2.4.4l-.7.6-1.1-.6-1.2-.5-.6.4c-.4.2-.9.4-1.1.3-.3-.1-.9.3-1.8 1.2-1 1-1.4 1.3-2.2 1.3-.9 0-1.6-.5-1.3-1 0-.2.5-.4 1-.4.6-.2 1.4-.7 2.2-1.5.7-.7 1.5-1.3 1.7-1.3.3 0 .6-.2.6-.5.2-.4 1.2-1 2.8-1.9 1.5-.7 2.9-1.5 3.2-1.8a23 23 0 0 1 4.4-2.7c1.3-.8 3.4-2 4.5-3 1.1-.8 2.6-1.8 3.3-2l2-1.4c.5-.4 1.1-.7 1.4-.7.9 0 1.3-.8 1.3-2.1 0-1.5.6-2.2 2.4-2.8.7-.3 1.4-.7 1.7-1l1.8-1.1 2.7-2.3 3.7-3c1.2-.7 2.4-1.8 2.7-2.3.4-.6.8-1 1-1 .4 0 1.9-1.6 2.3-2.5.3-.6 1-1.2 3.2-2.3a45.4 45.4 0 0 0 6.5-4.2c2.9-2.4 6-4 8.3-4h1l.5-1c.7-1.3.9-1.4 2.8-2.2 1.3-.5 1.8-.9 2.8-2.2.8-.9 1.8-2 2.3-2.3l1-.6-1-.1c-.5 0-1.6 0-2.3.2h-1.7c-.3-.3 2-.9 2.8-.7.4 0 1.4 0 2.2-.4 1.4-.4 2.3-.3 1.3.2-.3.2 0 .3 1 .2 1.2-.1 1.6-.3 2.2-1l.8-.8-.6-.1c-.7-.1-.8-.5-.1-.7.6-.2.9-.2.9.3 0 .3.3.2 1.5-.4 1-.5 1.6-.9 1.6-1l-1.1-.6-1.2-.5-1.5.3c-1.2.2-1.6.2-2.3 0a11 11 0 0 0-1.5-.6 3 3 0 0 1-1.2-.5l-.4-.4-1.3.5-1.4.5-.5-.5c-.3-.3-.5-.6-.5-.8 0-.6-1.6-2-3.4-2.8a8 8 0 0 0-4-.9c-1.3 0-2.5-.2-2.7-.3-.4-.2-.3-.8.1-1.2 1-.7.5-1-2-1.1l-2.6-.2-1.2.6c-1 .5-1.8.6-4.2.6h-2.8l-.7.8-1.5 2A6.9 6.9 0 0 1 56 82c-.3.1-1.1.5-1.7 1-1.3 1-2 1-2.1 0-.1-.4-.3-.8-.4-.7-.7.1-.4-.7.5-1.4.6-.5 1.1-1 1.1-1.3 0-.3.2-.3.7-.2l1 .2c.3 0 1.4-2 2.2-4.3.3-1 1-2.4 1.6-3l.9-1.4-.6-1.4c-.5-1-.6-1.7-.6-3.4v-2.2l-2.3.2c-1.2 0-2.5.3-2.8.4-.8.3-2 .3-2 0 0-.2.4-.4.8-.5l.7-.3-.8-.4c-1.6-.8-1-1.9 1.6-2.8 2-.8 2.2-1 1.5-1.6l-.5-.6-1 .3-2.5 1c-.8.3-2.2.6-3.2.7-.9.1-2.1.4-2.6.6a48.2 48.2 0 0 1-7.4 2.4l-2.5.8c-.7.2-1.8.7-2.4 1.2-.8.5-1.3.7-1.7.6a72.4 72.4 0 0 0-12.9 4c-1.3.3-2 .9-1.8 1.4.1.4 0 .6-.8.8-.7.2-1.2.2-1.7 0s-.8-.2-1.1.2c-.4.3-.7.4-1.2.2-.4 0-1.1 0-1.7.2-2.3.7-5.2 1.9-5.6 2.2-.2.3-1 .6-1.9.8l-1.8.6-.4.1v-4.6l.6-.3c.4-.2.8 0 1.5.3l1 .5-.7.5c-.4.2-.7.3-.8.1l-.4-.2c-.4 0-.3.6.3 1.1.4.4.6.4.9.2l1.1-.5.8-.2v-1c0-1-.1-1.3-.8-2.1-.7-1-1-1-2-1-1.5-.1-1.8-.6-.4-.7.6 0 1.2 0 1.4-.2.3-.2 1.9.6 1.9 1 0 .3.5.2.6-.2.3-.6-.3-1.5-.9-1.5-.3 0-.5-.2-.5-.4l-.2-.4-.7-.4c-.5-.5-1.7-.3-1.7.3 0 .3.1.4.8.3 1-.3 1 .3 0 .6-1 .5-1.9.1-1.9-.8 0-1 .7-1.4 2-1.2h1l.2-.7V64c-.5-.3-.3-.6.3-.6.4 0 .9-.2 1.5-.8l.8-1-.4-.7c-.5-.8-.3-1.2.4-.6.2.2.9.4 1.4.4 1.2 0 1.2.4.4 1.5-.4.5-1 .7-1.4.7-.4 0-.6.2-.6.5 0 .2-.3.6-.7.8-.7.3-.8 1-.5 2.3.1.5.4.6 1.9.6 1 .1 1.8.3 1.8.5.1.1.4.3.7.3.4 0 .5.1.3.7-.2 1-.6 1.4-1 1.4-.5 0-.5-.2 0-.7l.4-.5-.8-.1-1.2-.5c-.5-.5-.6-.3-.6 1 0 1.2.2 1.4.7 1.7.4.2.6.5.6.8-.1.8 2.5-2 3-3 .6-1.5.5-1.9-.4-1.9C9 66.8 7 66 7 65.5c0-.6 0-.6 1.2-.1.5.2 1.5.4 2.1.4h1.2v-1.9c0-2 .4-2.5.6-.9.2 1 0 2.8-.6 5-.2.7-.3 1.3-.2 1.4 0 0 .7-.6 1.3-1.6l1.1-1.6.3-2.2c.3-2.2.8-3 .9-1.5.1 1.3-.7 4-1.6 5.5l-1 1.2-.5.7c-.2.4-.5.6-.8.6-.5-.1-1.9.5-1.9 1h.6l1.6-.3c.6-.1 1.1-.4 1.3-.6.2-.2.5-.3.7-.3.5 0 1.3-1.9 1.8-4.2.4-2 .7-2.7 1-2.3.1.3-.7 4.3-1 4.8-.1.2 0 .3.2.3s1-.8 1.7-2c1.4-2 1.9-2.5 2.1-1.7.2 1 .9.6 1.4-.6.4-.8.5-1.5.4-2-.1-1 .5-1.4 1-.7l.9.5c.4.1.7-.1 1.3-1.3.4-1 .6-1.6.4-1.6-.4-.2-.4-.6 0-.6.5 0 1.6-1.1 1.6-1.5l.5-1c.3-.3.7-.7.8-1 .1-.2.3-.3.4-.1.1 0-.1.6-.5 1.2-.9 1.4-.9 1.7 0 1.4 2.3-.5 5-2.4 5.2-3.4 0-.5.2-.8.5-.8.4-.1.5 0 .5.7 0 1.5-3 3.7-5.8 4L26 59c-.4.3-3 5-2.7 5.2l1.3-.8c.7-.6 1.2-.9 1.3-.7.1.1 0 .3-.2.3-.5 0-1.3 1-1 1.3 0 .2-.1.3-.3.3-.3 0-.5.1-.5.3 0 .4-.5.7-1.2.7-.5 0-2.5 1.7-2.5 2.1 0 .3 2-.6 2.3-1 0-.2.4-.3.6-.3.3 0 .7-.2.9-.5l1-.9c.5-.3.6-.5.3-.8-.2-.3-.2-.4 0-.7.4-.3 1-.4 1 0 0 .5.7.3 1.6-.5.7-.6 1.2-.8 2-.8h1.2v.6c0 1.2.5.8.6-.4V61l.8.1.9.2-.5 1.2c-.5.9-.6 1.1-.2 1.3.5.3.7.2 1.3-1.2.6-1.5.4-2.5-.5-2.5-.3 0-.6-.1-.6-.3 0-.2.5-.2 1.3 0 .9 0 1.7 0 2.3-.2l1-.4.4.6c.4.7 1.3.7 2 .2l.5-.4-.7-.3c-1.3-.6-1.1-1 .3-1 1.7 0 2.3.5 2.1 1.6-.1.7 0 .8.3.6 2.9-.8 4.7-1.2 7.6-1.8l3.8-1c.2-.2.3-.6.3-.9 0-.7 1-1.6 2.4-2l1-.3 1.7.7 2 .6c.2-.1.3-.8.3-1.5 0-1 .2-1.5.8-2.2l2-3 2-3c1-1 1-1.5 0-1.7l-1.4-.5c-.3-.2-.6-.2-1 .1-.3.4-1 .5-2.9.5h-2.4V44c0-.6.4-1 1-1 .2 0 .3.3.3.6 0 .4.1.5.4.4l.6-.2-.2-.4c-.2-.3 0-.6 1.6-1.9l1.9-1.7 1.4-.9c1.2-.5 1.6-1 2.5-2.2l1.4-2.7c.2-.6.5-1 .6-.9.9 1-2.5 5.9-4.7 6.9-.5.2-1.6 1-2.6 2l-1.7 1.6.8-.2 3.4-.2c2.3 0 3.1-.2 2.3-.5-.5-.2 0-.7.5-.7l.8-.3c.2-.2.2-.2 0 0-.5.6-.2.8.4.4.7-.5 1-.2.4.3-.6.6 0 .4 1-.3.6-.4 1.3-1 1.6-1.4.3-.4.6-.6.6-.4 0 .2.1.3.3.3.4 0 2.9-1.1 2.9-1.3 0-.4-.7-.3-1.3.2-.5.3-.7.3-1 0-.8-.6-.7-1.3.1-2.1.4-.5.8-1 .9-1.4 0-.2.2-.5.4-.6.5-.1.5 1.2 0 1.3-.2.1-.3.2 0 .5s.4.3.7 0c.4-.3 1.8-4.2 1.8-5.1 0-.9-.9-.4-1.6 1l-.8 1.2c-.4 0-1.4-1.5-1.2-2l.2-1c.3-1 .8-.9.6.2-.4 1.7 1.1 1.4 1.7-.4.2-.9.4-1 .9-.9.5.1.7 0 .9-.5.6-1.3 1.3-.6 1.4 1.5 0 .8 0 1.7-.2 2.2a35 35 0 0 0-.6 1.8l-.8 1.7c-.5.6-.4.5.1-1 .3-1 .7-2.7.8-3.9l.2-2-.7.8c-.4.6-.7 1.3-.7 1.8s-.4 2-.9 3.4l-.9 2.5.7.1c.6.2 1 0 2-1.3l2.9-3c1-1 1.5-1.7 1.5-2 0-.4.2-1.5.5-2.4.5-2 1.3-3 3-3.8l1.3-1c.5-.6 1.2-.9 1.7-.7.4.1.7 2 .9 5.7v.5l.7-.5c.5-.3.6-.6.6-.9-.2-.7.5-3.1 1-3.7.7-.7 1-.6 2 .9.7 1 .8 1.5.7 2.3-.2 1.2.2 1.7 1.8 2.5 1 .5 2.5 2.7 2.8 4 .3.9.8 1 2.5.4l1.4-.5.4.4c.4.4.6 2.9.4 4.3 0 .7-1.3 1.6-2 1.6-.3 0-.7.2-.8.4l-2 2.2c-1.6 1.8-3.5 3-4.6 3-.3 0-.4.2-.4.9s.2 1 .7 1.2l.7.3 1.2-1 1.7-1.2L101 46c2-1 3-2 3-3 0-.7.6-2 1.4-2.8 1-1.1 1.3-2 1-3-.3-1.4 0-3.5.6-4.4.2-.3.9-1 1.4-1.3a9 9 0 0 0 1.8-2c1-1.5 1.8-1.8 2-.6l.5 2.8.4 2.2h1.7c1 0 2.5.2 3.3.4l1.5.3.6-.4c1.7-1.3 2-1.7 2-2.2 0-.7.7-1.7 1.4-2 .4-.2.7-.2 1.3.3l.7.7v2c-.2 2-1 4.9-1.8 6l-.5.7.3 2.1c.1 1.2.2 2.4.1 2.8l-.2.7 1.3-.1 3.1-.3c1.4-.1 1.8-.3 1.7-.5-.1-.3 0-.4.2-.4.3 0 .4-.2.3-.6-.2-.6 0-.6.7-.1 1.1.7 2.8.8 5.2.2 2.4-.6 5.6-.9 9.4-1 1.5 0 2.4 0 2.5-.3 0-.3-.8-.6-1.9-.6-1 0-2.7-1-2.3-1.4.1-.2.6-.1 1.2.2.6.3 1.2.4 1.6.3.4-.1.9 0 1 .1.3.2.5.3.8 0l1.6-.2c1 0 1.2.1 1.1.5 0 .3-.3.3-1 .3-.8 0-1 0-1 .2.1.3.7.4 2.2.4l2.2-.2c.3-.3-.5-1-1.1-1-.4 0-.7-.1-.7-.3l1-.2c.5 0 1.2-.2 1.6-.5l.6-.4v.4l-.2.6c-.2.1-.3.4-.3.6 0 .3.1.3.6.2 1-.3 3.6-.3 3.8 0l.8.1h.7l-.6-.4c-.3-.2-.6-.6-.6-1 0-.6.3-.6.8.1.5.6 2.7 1 2.7.6l-.4-.4-.4-.4c0-.2.4-.2 1 0 .8.4 3.8 1 4.6 1 .1 0 .2-.5.2-1.2s.1-1.1.3-1c.3.2.3 1.9 0 2-.6.4-.2.7.9.7 1.7 0 2.8-.2 2.9-.7.5-1.8.4-2-.6-3.7-1-1.4-1.2-1.6-2-1.8-1.7-.2-2-.6-.8-.6a6 6 0 0 0 1.5-.2c.2 0 .5.1.7.6.4 1 1.3 2 2.5 3.3l1 1h-.7c-.5 0-.7.2-.8.8v1l2 .3 2 .1.2-1a3 3 0 0 0 0-1.7c-.4-.6-.4-1 0-1 0 0 .4.4.6.9.4.7.4 1 .2 1.4-.7 1.1-.5 1.4 1.1 1.3l1.5-.1.3-.7.2-.6-.4.4c-.3.5-1 .7-1 .3 0-.3 2.1-2.3 2.3-2.1.1 0 0 .4-.3.8-.3.5-.3.7-.1.7.2 0 .2.2 0 .5-.3.7-.3.8.1.8.3 0 .4-.1.4-.3 0-.2.6-.7 1.3-1.1a7 7 0 0 0 1.4-1c.1-.2.3-.2.4-.1.1.1 0 .3-.1.4-.2 0-.8.5-1.3 1l-.9 1 2.5.3c2.6.3 3.1.3 3-.3-.2-.3 0-.4.7-.4.6 0 1 .1 1.1.4.2.3.6.4 2 .4 1 0 2.4 0 3.3.2 1 .2 1.8.2 2.1 0 .6-.3 1.5-1.7 1.5-2.5 0-.4.5-.5.8-.2.2.2-.4 1.6-1 2.3-.3.3-.4.5-.3.6.3.3 1.6-.6 2-1.5.4-.7.6-.9 1.2-.9s1-.2 1.4-1c.4-.4.8-.8.9-.7.5.4-1 2.2-3 3.5-1 .7-1.2.9-.8 1l1.5.2c.6 0 2.1.2 3.4.5l3.3.4c.5 0 1.6.1 2.2.4.6.2 2.1.5 3.3.6 2.4.3 4.1.6 5.2 1.2.4.2 1.3.4 2 .4 1.4 0 2 .4 1.5 1.1-.2.4-3.1.1-3.9-.4-1-.7-3.7-1.4-5.6-1.6l-2-.4-1.1-.2-2.7-.3-4.2-.5c-1.3 0-2.4-.2-2.6-.3l-1.6-.3-1.3-.2-.4.8c-.4.8-1 1-1.4.2l-.2-.4-.4.5-.4.5-.3-.7c-.5-1.2-1-1.4-1-.5-.3 1-1 1-1 0 .2-1-.2-1.1-1.4-.6-.9.3-1 .5-1 1 .2.4.1.5-.2.4-.2 0-.3-.3-.4-.4v-.6c0-.1-.6-.3-1.3-.2h-1.2l.2.6c.2.7-.3.9-.5.2l-.7-1.1-.6-.6h-14a275.2 275.2 0 0 0-21.3 1c-1.4.3-2.3.3-4 .1-1.7-.1-2.7-.1-3.9.2l-3.2.3c-1.3 0-2 .2-3 .7-1.2.6-5.3 1.3-5.8 1-.3-.2-4.7.4-5.6.7-.4.2-.8.6-1 .9-.2.3-.8.9-1.4 1.3-1.8 1.2-1.6 3.5.3 3 .4-.2 1.2-.2 2-.2s1.5-.1 2.5-.7a7 7 0 0 0 1.5-.9l.6-.2c.6 0 1 .8.6 1.5-.4.6-.2.9.7.9.3 0 .6.1.6.3 0 .6-1.2 2.3-1.7 2.5a5 5 0 0 0-1.2.6c-.4.3-1 .5-1.4.5-.8 0-1.6.5-3.4 2.1l-1 1-.2 2c0 1-.2 2.2-.3 2.4l-.1.5 1-.1 5.4-1c4.5-1 11.4-2.3 13.4-2.4l1.2.1c0 .2-.4.3-.9.4l-3.3.6-4.7.8a44.6 44.6 0 0 0-7.2 1.3c-2.6.5-4.7 1.2-5 1.6a24.7 24.7 0 0 0-2.6 6.8c-.2.2-.2.4 0 .6.2.3 5.4-2.7 7-4.1.6-.5 1.6-1 2.3-1.2l1.9-.7a96 96 0 0 1 9.4-2.9c4-1 5.4-1.6 6.4-2a15 15 0 0 1 2.7-.8c2.4-.5 3.4-1 3.8-1.4.2-.3 1-.5 2-.7 1 0 3.2-.5 5-.8l5-.9c1.2 0 3.8-.5 6-.8 2.2-.4 4.7-.8 5.6-.8.9 0 3.1-.2 5-.5a48 48 0 0 1 7-.5h8.4c2.6.1 5.1 0 5.6-.2a102 102 0 0 1 16 0h2.2l1.8.2.1.6v.6l-1.7-.2-2.3-.4c-.2-.2-.5 0-.7.2l-.4.4-3-.2c-3.6-.3-8.5-.3-12.6 0-3.6.3-7.7.2-12-.1-2.1-.2-4-.1-6.2 0-4.5.5-4.2 1 1.4 1.6 2 .2 2.3.4 3 1l.7 1 1.2.8c.7.3 1 .7 1.1 1.1l.1.6 1.4-.1c5.7-.7 7-.7 8.4-.4.9.3 2.9.4 5 .5h3.7l.2-.5.3-.8c0-.4-4.9-.4-8.7 0l-6 .4-3.1.1.4-.5.5-.4 7.4-.3a44.2 44.2 0 0 0 10-1.2c.2-.4.8-.3 1.3.2l.5.6h2.7c1.6 0 3.7 0 4.7.2 1.6.3 2 .5 2 .9 0 .5-.4.6-1 .5-1.3-.4-5.6-.7-7.2-.6l-2.1.1-.5 1-.5 1-4.8-.1c-2.7 0-5.1-.2-5.4-.3a4 4 0 0 0-1.8 0l-2.8.2c-1.7 0-3.7.4-2.6.5.8 0 1.4.3 1.4.6 0 .5-1 1-1.7.8-.4 0-1 0-1.3.2-.4.2-1 .3-1.6.2-.8-.1-1.1 0-1.8.6-1 .8-5.1 2.5-5.5 2.2l-2.5.7c-1.2.5-2.5.8-3 .8-.8 0-3.7.8-5.6 1.4-1.4.5-3.4.4-3.4-.2 0-.4.4-.5 2.7-.8.8 0 2.7-.5 4-1a82.3 82.3 0 0 1 6.8-2l2.3-.7c1.4-.3 2-.6 2.4-1.1.5-.6 2.6-1.4 3.8-1.4.5 0 .6-.5 0-.7-.2 0-.4-.4-.4-.7 0-.6 0-.6-1 0-1.1.9-3.3 1.3-9.5 1.8l-2.7.3c-2.3.3-4.3.4-4 .1.2-.3 3.9-.9 9.3-1.5 2.3-.2 4.5-.6 5-.8 1-.3 1.1-.7.5-2.3-.3-.7-.6-1-1.3-1l-3.5-.6c-4.2-.7-7.6-.8-11-.3a289.3 289.3 0 0 1-11.1 1.5l-3.5.6c-2.4.5-3.1.8-3.1 1.3 0 .1 2.1.2 5.4.1 4.8 0 5.5 0 5.6.3 0 .4-.7.4-6 .4L152 61c-.5-.1-2.3.3-3.6.8a89.4 89.4 0 0 0-18.3 5.7c-1.8.5-3 1.1-2.7 1.4.1.2 3.3.5 7.1.7 9 .6 18.4.4 20-.4l2.8-1 3.3-1.1 2.7-1a6 6 0 0 0 2.4-1.4c1-1 1.2-1.3 1.2-2.1v-1l-.7-.2c-1.3-.3-1.5-.4-1.2-.7.4-.4 2.8.2 3.2.7.5.8.4 1.4-.8 2.6-1 1-1 1.3-.9 2 .1.5 0 1-.1 1.2-.2.3-.2.4 0 .4.1 0 .3.2.3.4s-.3.4-.6.4h-.5l.2 1.3c.2 1.6.1 1.6-2.8 2.3-2 .4-2.3.6-2.4 1.1 0 .4-.5.8-1.2 1.1-.8.4-1.2.7-1.3 1.2 0 .4-.2.6-.7.6-.4 0-1 .3-1.5.5l-1.1.4-1 .3-1 .3s-.2 0-.2.3c0 .4.3.4 2.2 0 .2 0 .6 0 .8.2.2.1.1.3-.4.5l-1.1.2c-.6 0-1.2 1.2-1.3 2.5-.1 1.2-.2 1.5-1 5.9-.9 5-.9 5.3.5 3.7.9-1.1 2.3-2.1 3.6-2.5 1-.4 1.5-1 1.5-1.8 0-.3.3-1 .7-1.8.3-.7.6-1.6.6-2 0-.3.1-.8.3-1.1a9 9 0 0 0 .5-2.3c.2-2 .5-2.3 1-1 .3.6.3.8 0 1.2-.2.2-.7 1.5-1 2.7-.3 1.3-.7 2.7-.9 3L158 87c-.2 1.1-.5 1.4-2.3 2.2-2 1-4.8 4-5.3 5.7-.1.6-.6 1.6-1 2.2-.3.5-.6 1.3-.6 1.7 0 .4-.2 1-.4 1.3-.5.7 0 .9.6.2.1-.3.4-.4.6-.3.4.3 0 1.2-1 2-.4.3-.6.6-.5.7.2.2 1.2-.4 2-1.2a10 10 0 0 1 2.4-1.7l1.8-.8.1-1.2.5-3.4c.2-1.2.2-2.6.1-3-.2-.9.5-1.5 1.1-1 .5.4.5 1.1 0 3.4l-.6 3.8c-.3 1.7-.5 2.3-1 2.9-.4.4-1 .7-1.2.7-.2 0-.6.3-.9.7-.3.6-.4.8-.1 1.5l.2 2c0 1.6 1 3.7 1.9 3.9.3 0 .9.4 1.1.6l.5.4 1-.5c.7-.2 1.5-.6 1.8-.9a9 9 0 0 1 2.8-1.7 2 2 0 0 0 1-.5c.2-.4.7-4 1-8l.1-2.6 1.2-1.1c1-1 1.3-1.2 2.2-1.2.9 0 1.3-.1 1.5-.5.2-.3.5-.5.7-.5a80.3 80.3 0 0 1 3.1-1.5c.6-.3 1.4-.9 1.7-1.2.7-.8 1.3-2.5 1-3 0-.3.3-.9 1-1.6a4.5 4.5 0 0 0 1.2-4c0-.6 0-1.6.2-2.2.5-1.8.7-3.2.4-3.3h-1.2c-1 .4-1.7.2-1.7-.3 0-.2-.2-.5-.5-.8l-.6-.3-1.3.6c-.8.3-1.5.8-1.7 1-.6 1.2-1.7 1.3-1.7.2 0-.5 0-.8.2-.9h.8c.3 0 1.3-.5 2.1-1 2-1.3 2.5-1.3 3.1-.1.5.8.6 1 1.2.8l1.5-.3 1-.2c0-.2.9-.3 1.8-.4 2.6 0 3.5-.5 4.2-2 .9-2.2 1-3 .2-3.6l-.6-.5.6-.2c1.6-.3 4.3-.6 4.6-.5l.2.5c0 .3-.3.4-1.3.4-1.9 0-2.1.2-2.1 1.3 0 .6-.3 1.6-.6 2.3l-.5 1.2.4.5c.3.4.3.5 0 .7-.4.4-4.2 1.2-5.5 1.2h-1.1l-.6 2.5a25 25 0 0 0-.6 4.1c0 .9-.2 2-.4 2.3l-1 3.7-.9 5.2c-.3 2-.3 2.3 0 2.6.4.5.6 2.5.2 3.1-.3.5-2.3 0-2.2-.5l.5-2.6a73.6 73.6 0 0 1 1.3-7.1l-.3.6c-.1.6-.6 1-2.4 2.2l-2.9 2a2 2 0 0 1-1.2.6c-.3 0-1 .4-1.5.8a4 4 0 0 1-1 .8c-.2 0-.6.4-1 1-.6.7-.7 1.3-1 4.5l-.6 4.1c-.2.3 0 .5.2.5s.5-.2.5-.4c.1-.2.5-.4.8-.4.4 0 .8-.2.8-.5.2-.4.6-.5 1.9-.7.9 0 1.8-.3 2-.5l1-.5c1.5-.3 3-.8 3.4-1.3.3-.3.7-.4 1.6-.3.9.1 1.6 0 2.3-.3l1.2-.3c.7.4 1.3-.4 3.3-4.3a93.4 93.4 0 0 1 2.6-5c1.8-3.4 2.6-5.2 2.5-5.4-.1-.1 0-.6.4-1l.6-.8-.5-1c-.6-1.3-2.1-1.2-2.3.2 0 .3-.3.7-.5.7-.3.1-.3 0-.2-.8.2-1 0-1.2-2-1.2-1 0-1.6.1-2 .5-.9.7-1.3.7-1.4 0-.1-.3-.4-.5-.6-.5l-.4-.2c0-.3 4-.9 6.8-1 2-.2 3.4.5 4 1.8l.4.8-.5 1.2a55.6 55.6 0 0 1-4.4 9.4 22.7 22.7 0 0 0-2.3 5c0 .6 1 .6 1.7 0a2 2 0 0 1 1-.3l.8-.4c.2-.2.8-.5 1.3-.6 1-.1 1.4-.5 2.8-2.2.4-.6.6-.6 1-.3.5.4.5 1.2 0 1.6-.6.5-.5.9.2.7.3-.1 1.5-.3 2.7-.3 4-.3 5-.9 6.7-4.2l1.5-2.6 1.1-2c.5-1 1.2-2 1.5-2.4.9-.8 2.4-4 2.1-4.3-.4-.4-2.1-.8-2.5-.6l-.6-.1c-.3-.5 1.5-.6 2.9-.3 1.6.5 1.7.8.8 2.8a18 18 0 0 1-2 4 56.1 56.1 0 0 0-4.3 7.6c0 .8 1.4 1.7 2.6 1.7 1.3 0 5 1 5.8 1.5 1 .5 1.4.4 3.2-.6a6.2 6.2 0 0 0 2.3-2c1-1.9 2.6-2.3 2.6-.9 0 .7-1.4 2.2-3.5 3.8-.4.3-.8.8-.8 1 0 .1.4.7 1 1.1l.8 1 .8-.4c1-.4 1.5-.1 1.7 1 .2 1 .7 1 1.9 0 .5-.4 1-.7 1.2-.7.4 0 .6.7.3 1.4-.2.4-.1.8.3 1.5l.5.9-.4 1.6-.5 1.7h-1.1c-.7 0-1.2.1-1.2.2 0 .5-1.3.7-5.4.7a95.9 95.9 0 0 0-13.6.7c-.6-.2-.9 0-1.7.8-.6.6-1 1.1-.9 1.3.3.4 1.5 0 1.8-.7l.2-.6h1.7l2.3-.2c.4-.2 1.3-.2 2.2-.2.8 0 1.6 0 1.6-.2.2-.2 4.6 0 8 .3 2 .2 2.5.4 3.2 1 1 .9 1 1.3.2 1.7-.5.2-.6.4-.5 1 .3 1-.5 1-6.5 1-5 0-6.5.3-5 .7.4.1 3.5.3 7 .3 7 .2 7.5.2 7.5.8 0 .7-1 .9-6.5.8l-5.6.1s.1.4.4.7c.2.3.3.7.3 1 0 1 .3 1.5.8 1.5 1 0 4 4 4 5.3 0 .4.3 1 .6 1.5.4.5.8 1.3 1 1.8.2.4.8 1.2 1.3 1.6l1 .9-.5.5-.6 1.2c-.4 1.4-2.3.6-2.3-1 0-.3 0-.7-.2-.8-.2-.1-.3-.4-.3-.6 0-.2-.4-1-1-1.7l-.8-1.6c0-.5-1.7-2.3-2-2.3-.6 0-1.7-1.8-2.5-4.2-.4-1.2-1-2.4-1.3-2.6-.7-.8-4.2-1.8-5.3-1.6-1 .2-1.7-.1-3.1-1.4l-1.9-1.5a3 3 0 0 1-1.1-1.3c-.4-1.2-1.1-1.5-2.9-1.5-1.5 0-2.4-.6-2.4-1.7v-.5h-2.6c-1.9-.1-2.7-.3-3.4-.6-1.6-1-6.3-2.5-8.5-2.8h-4.8l-3.7.3-2.4 1-2.9.9a4 4 0 0 0-1.4.5 38.1 38.1 0 0 1-4.4 2.2c-.9.2-1.1.3-1.1.8 0 .8-2.5 5.6-3.2 6.5-.4.3-.8.6-1 .6-.2 0-1 .8-1.8 2l-.4.6.7.1c.5 0 2 0 3.5-.3l2.7-.5 2.3-2.4a18 18 0 0 0 2.3-2.6 53 53 0 0 1 11.5-1.3c.7.3 0 .7-1.2.6a57.4 57.4 0 0 0-9.5 1c0 .2-.8 1.1-1.8 2.1s-1.7 2-1.5 2h2.6c1.4-.2 2.7-.2 3-.1.8.3-.2.6-2.7.7-2.9.2-7.3.8-10.6 1.5l-2.4.5-1.3 1.4c-.7.8-1.3 1.7-1.3 2 0 .7-1 3.5-2 5.3-.3.8-.6 1.8-.6 2.4 0 .6-.3 1.6-.5 2.2-.3.7-.8 2.3-1.1 3.7a17 17 0 0 1-1 3l-.4 1.8c0 .7-.3 1.5-.6 1.8l-.5.5h-2.9a32.5 32.5 0 0 0-5.3.1zm6.7-2-.3-.3c-.1-.1-.2-1-.2-2.4 0-2.5-.1-3-1-2.4-.6.5-.8 1.2-.3 1.6v1.1c-.3 1-.1 2 .4 2 .2 0 .5.1.5.3.2.5 1 .6 1 .2zm-38.8-6c.2-.6.1-.8-.2-.8-.5 0-.7.6-.6 2v1l.3-.8.5-1.5zm3.4-.1c0-.3.3-.6.6-.7a7 7 0 0 0 1.8-2.2l1-1.8-.1-1.4-.4-2.7c-.2-1.4-.8-2.5-1.5-2.5-.4 0-1 1.4-1.3 3-.1.6-.4 1.5-.7 2-.6 1.3-1.8 5.8-1.5 6 0 0 .4-.2.7-.6.6-.8 1.1-.6 1 .5-.2.5-.1.8 0 .8.2 0 .4-.2.4-.4zm-.6-3.7.4-1 .7-2c.3-1.3.9-1.6.6-.3-.5 2.4-.8 3.3-1.2 3.3h-.5zm1.7-.7.6-2.3c.6-2 1-1.5.5.5l-.4 2c0 .4-.2.6-.4.6-.3 0-.4-.2-.3-.8zm36.8 3.9c.3-1 .2-1.4-.2-.9-.5.6-.6 1.5-.2 1.5l.4-.6zM88 137.4c.9-1.3.5-1.7-.5-.6-.6.7-.8 1.7-.4 1.7l1-1zm54.8-7.6c.6-1.4 1-2.5.9-2.6-.3-.3-1 .3-1.4 1.2-.5 1.4-1 3.3-.8 3.7.3.6.3.5 1.3-2.3zm-28.6 1.4c0-.3-.1-.3-.4 0l-.4.4h.4c.2 0 .4-.1.4-.4zm1.1-3c.8-.4 1.4-.5 2.2-.3l1.1.1.4-1c.3-1.1.9-2 1.1-1.6l-.2 1c-.6 1.3-.6 1.3.3 1.3 1.6 0 2.8-1 2.1-1.8-.2-.2-.2-1.2 0-3.4v-3c-.2 0-.6.3-1 .6-.5.4-1 .7-1.2.7-.6 0-3.5 1.4-3.6 1.7v2.3c0 1.3-.2 2-.4 2-.3.1-.4-.2-.3-1.5.1-2-.2-2.2-1.4-1-.8.7-1 1.4-.6 3.6.2 1 .2 1 1.5.3zm2-2c-.1-.8.1-3.5.3-3.7.2-.1.3 0 .3.4 0 .3 0 .6.2.6s.3-.2.3-.4.1-.5.3-.6c.2-.1.2.3.2 1.1-.1 1-.2 1.3-.6 1.2-.3 0-.4.1-.4.6 0 .6-.5 1.3-.6.8zm-15.6.2c.3-.3.7-.5.8-.4.3.2 1-.4 1-.7 0-.2-.2-.2-.5-.1-1.3.3-1-.3 1.3-2.8 1.6-1.8 2.3-2.8 2.6-3.8.6-1.6.8-2 1.5-2 .3 0 .5-.2.5-.7 0-1-.4-.8-1.5.6a33.5 33.5 0 0 1-2 2.4l-1.3 1.6c-.7.8-1.4 1.7-1.4 2l-.6.5c-.6 0-1.5 3.9-1 3.9l.6-.5zm13.4-4.8 1-.5c.1-.4 2.8-1.6 3.3-1.6a2 2 0 0 0 1-.5l.6-.4.3-3.9a723.2 723.2 0 0 0 .8-7.1c.3-.6 1.2-.7 1.5-.3.4.7 3-.5 3-1.3v-3s-.6.2-1 .6l-1 .8h.7c1.3-.2.7.5-1.2 1.5a8.3 8.3 0 0 0-2.3 1.4c0 .3-.8.7-1.4 1l-1.3.4-.7-.6-.8-.6-1.2 1.2c-.6.6-1.2 1.2-1.2 1.4 0 .2-.4.7-1 1.3l-1.3 1.8-.4.7.8 1 .9 1-.2 3c-.2 3.2-.2 3.2 1.1 2.7zm.8-6.2c0-5.5.8-5.8.9-.3 0 1.4.1 2.6.3 2.7.2.3.2.5-.1 1-1 1.4-1.1 1-1-3.4zm1.8 1.5c.3-3.5.7-7.1.9-7.4 0-.3.2-.3.3-.2.2.2.2 1.4 0 3.2-.1 1.6-.2 3.3-.1 3.7.1.6 0 1.1-.3 1.6-.7 1-1 .8-.8-.9zm1.8 1 .4-2.8c.4-3 .5-4.9 0-4.9-.3 0-.2-.7.3-.9.8-.3 1 .3.6 3.6-.3 3.6-.6 4.8-1 5h-.3zm-5-2.5c0-.3-.3-.8-.5-1.2-.3-.5-.4-.9-.2-1 .5-.5 1.2.3 1.3 1.5.2.9.1 1-.2 1a.4.4 0 0 1-.5-.3zm-11.7 5 .4-.5-.5.3c-.4.4-.6.6-.3.6l.4-.5zm2.5-2.7c.5-.6 1-1.2.8-1.3-.1-.2-2.2 2-2.2 2.4 0 .4.4 0 1.4-1zm32.7-1.6c0-.2-.1-.4-.3-.5l-.2-.6c0-.7-.7-.7-2.2.1-1.2.7-1.1.8.4 1 1.6.2 2.3.2 2.3 0zm-15.3-2.7.3-2.3c-.2-.3-.6.3-.9 1.2-.2 1 0 3.7.2 3.4 0 0 .3-1.1.4-2.3zm82.4 2.2h-.5c-.2 0-.1.1.2.2.2 0 .4 0 .3-.2zm-97.3-.8c1.2-1.5 1.3-2.7.2-2.7h-.6v1.1a5 5 0 0 1-.2 1.6v.5c.2 0 .4-.3.6-.5zm26.9-.1c.2-.2.1-.3 0-.1-.3 0-.4 0-.4-.2s.2-.5.5-.5c.4-.1.4-.3.3-.9 0-.6 0-.7.9-1 1.2-.6 1-1-.4-1-1.4.1-1.6 0-1.6-.4l-.4-1.3c-.2-.4-.4-1.1-.4-1.6s-.1-1-.3-1a36.7 36.7 0 0 1 .1 5.7v2.9l.7-.2c.4 0 .8-.3 1-.4zm69.4-.7h13.7s0-.3-.3-.7l-.5-.7h-3c-6.2 0-12 .3-12.5.7l-.4.4.5.4c.3.2.7.3 1 .2l1.5-.3zm-92-3-.2-.2s-.2 0-.2.2v.3c.2 0 .4-.1.4-.3zm23-1.5c0-.2-.1-.3-.3-.2-.1 0-.3.3-.3.6 0 .2.2.3.3.2.2-.1.3-.4.3-.6zm60.5-.6 5.1-.4 10.2-.5c6.2-.2 10.2-.5 9.6-.7-1.8-.8-8.6-1-14.8-.5a503.5 503.5 0 0 1-6.4.7c-.2.2-1.2.4-2.2.6-1.6.2-1.9.2-2.1-.2-.2-.2-.5-.3-.7-.2-.2.2-.2.3 0 .4.2.1.1.3-.3.4-.5.1-.6.3-.5.9v.8l.8-.7c.3-.3 1-.6 1.3-.6zm-105 .4 2.4-.2c1.3 0 2.2-.2 2.4-.4.2-.2 1.2-.3 2.6-.3 1.3 0 3.3-.1 4.5-.3 3.5-.4 5-.3 7 .1 2.4.6 2.6.6 2.6-.2 0-.3 0-.7.2-.9.3-.5 2.2-1.6 2.7-1.6.8 0 1.7-1.1 2-2.4 0-.7.3-1.2.7-1.5a3 3 0 0 0 1-1.3c.4-1.4 0-1.7-2.1-1.7-1.2 0-2-.2-2.3-.4-.3-.2-.9-.4-1.3-.4-1.8 0-3.8-.7-4.6-1.4l-.7-.7-2 .2c-1 .2-2.6.3-3.4.3-.8 0-1.6.2-2 .5-.6.3-1.3.4-3 .4a89.1 89.1 0 0 0-17.1.8c-.7.1-1.6.4-1.8.6-.4.2-.7.2-1 0-.6-.4-3.3 1-5.7 3a43.2 43.2 0 0 1-7.8 4.8c-.1 0-.4.2-.5.5-.3.4-.2.5.3.5.3 0 1.2.3 2 .7l1.6.6c.3 0 0 .2-.5.4l-1 .4h6a56.3 56.3 0 0 0 6.1-.5c-.2 0-.2 0-.1-.2.3-.3 5.5 0 7 .4 1 .3 1.5.3 1.8.1.4-.2.6-.1 1 .1.5.4 2.4.4 3 0zm15.6.2c.5-.4-.6-.6-3-.6-2.3 0-3.8.2-3.3.6.5.3 5.8.3 6.3 0zm81.7-2.2a797.8 797.8 0 0 1 19.8-2.4c5.7-.4 6.4-.5 5.9-.8-1.1-.6-8.7-.3-14.4.7-5.5 1-13.3 2-14 2-1.1 0-1.2.4-.2.6l1 .1 2-.2zm-65.8-1.4c.3-.6.7-1 .8-1l1.7-1.4c.9-.8 1.7-1.5 1.9-1.5.3 0 .8-3.1.5-3.4-.3-.3-1.5 1.1-2.7 3.1-1 1.7-1.5 2.4-2.2 2.7-.9.5-1.8 1.5-1.8 2 0 .2.3.4.6.4.5 0 .8-.3 1.2-1zm12.5.4v-.8a36.5 36.5 0 0 0 1.8-10.7c.6-2.3-.6-3-2.2-1.4-.7.6-1 1.4-1.6 3.2l-.7 3c0 1.1-.8 3.2-1.2 3.2-.6 0-.5-.8.4-3.1 1-2.6 1.7-5.1 1.5-5.3 0 0-.5.3-.9.8-.6.7-.9 1.5-1.2 3.1-.8 3.7-1.4 5.7-1.8 5.8-.4.1-.2-1.2.7-3.8 1.2-3.6 1-5.3-.3-3.8-.6.6-.7 1.3-1 6.6l-.2 2.4.4.1c.3.1 1.3 0 2.3-.2 2.4-.6 2.5-.6 3 .5.3 1 1 1.2 1 .4zm-1.3-6.1c-.2-.4 0-1.7.6-3.5.9-3 1-3.4 1.2-3.4.3 0 .2.7-.6 3.8a19 19 0 0 0-.5 2.5c0 .6-.4 1-.7.6zm57.6 4.6 8.7-.8c7-.5 9.6-.9 10-1.2.3-.4-1.1-.6-2.8-.4l-4.4.3c-1.6 0-4 .3-5.5.5l-5.9.7c-3.5.3-6.6 1-6.9 1.4-.2.2.7.2 6.8-.5zm-71.4-.3c0-.5 0-.6.7-.7h.7l.1-1c0-.8.4-1.6 1.3-2.7.7-1 1.4-1.7 1.5-1.8.2 0 .6-.4 1-1l1.4-1a3 3 0 0 0 1-1.2c.2-.5.7-1 1-1.2.3-.2.5-.5.5-.7 0-.5.8-1 1.6-1 .3 0 .8-.4 1.4-1.4l.9-1.3-.3-.8c-.5-1.3-.9-1.1-1.3.5-.7 2.5-1.3 3-1.6 1.1l-.3-1.8c-.1-.6 0-.7.5-.8.3 0 .6-.3.6-.5 0-.6-5.5-.5-9.4 0-3.2.5-3.9.4-3.6-.6l.2-.5h-1.9c-1.1 0-2.5.2-3.4.6l-3.8.8-3.1.4c-3.2.4-9.5 1-11.3 1-3.3 0-4 .4-6.8 3a19.5 19.5 0 0 1-3.1 2.7c-1 .4-1 .8 0 .8.6 0 .7.1.4.2a2 2 0 0 0-.8.4c-.3.3 5.7 0 6.9-.3.4-.1.6-.3.4-.3-.2 0-.3 0-.2-.2a4244 4244 0 0 0 7.3 0c.4 0 3 0 5.6-.2l5-.2.3.7c.2.4.6.8.9.8 3.5.8 4.5 1 5.8.6 1.6-.3 2.6 0 3.1.8.2.2.4.4.6.4 1 0 .7 2-.5 3.8-.4.6-.7 1.3-.7 2 0 1.1.2 1.3 1 1.2.3 0 .5-.2.4-.6zm-33.2-9.3c.2-.3 1.6-.4 3-.3.5 0 .6 0 .3.2-.6.4-3.7.4-3.3 0zm103.5 7.9c2.3-.3 5.9-.7 8-.8 6.5-.5 8-.6 8-.8 0-.4-1.3-.6-4-.6-2.5 0-17.4 2-19 2.4-1.5.5 2.7.3 7-.2zM128 98v-.3c-.2 0-.3.1-.4.3l.1.2c.2 0 .3-.1.3-.2zm9.7-3v-2.5l-.1.7c-.4 1.3-.6 2.4-.3 2.4l.4-.6zm-2.1-4.6c1.7-.3 4.3-1.6 4.7-2.5l1.2-1.5c.6-.5.8-.9.6-1.3 0-.5 0-.6.4-.6.3 0 .8-.3 1-.6.3-.3 1.2-1 1.9-1.3 1.5-.9 2.2-1.6 1.7-1.6-.6 0-3.8 1.7-5.5 2.8-1.1.8-2 1.2-2.4 1.1-.4 0-.7.1-.8.4 0 .2-.9 1-1.7 1.9l-2.7 2.4c-.5.6-1 1.2-1 1.4v.4l.8-.4 1.8-.6zm-35.6-3c7.5-.8 10-1.1 12.2-1.8 3-.9 5.6-.8 6.7.2l.6.6 3.3-.4c2.2-.3 4.3-.4 6.6-.3l3.4.2.4.7c.8 1.5 2.2.7 3.5-2l.6-1.2-.4-.6c-.3-.5-.7-.7-1.3-.8-1 0-1.1-.8-.2-1 .3 0 1.3-.5 2-1.1a29 29 0 0 1 2.5-1.8 43.7 43.7 0 0 1 8.6-5c.1 0 .2.3.1.7 0 .6-.3.9-1.5 1.4-.8.4-1.4.9-1.5 1.2 0 .3-.5.8-1 1.1l-3 2.2c-1.3 1-2.2 1.5-2.3 1.3-.2-.3-.4-.2 2.2-2.1 2-1.5 2.2-2.2.2-.9a57.5 57.5 0 0 1-3.5 2.5l-.7.7.5 1.3.4 1.2 1.2-.2c1.3-.1 4-1.3 5.5-2.3l2-1.2c.8-.4 1.7-1 2.1-1.6l.8-.8h-.5c-.8 0-.7-.4.2-.8 1.7-.9 2.8-3 1.8-3.6-.1-.1-.2-.6-.1-1.3l.1-1.1h-2l-10.6-.4c-10.4-.4-14.7-.1-15 .8 0 .3-.4.7-.8.8l-2.3 1.1-2 .8-.7.6c-.2.4-.5.7-.7.7-.8 0-4.6 1.7-5.1 2.2-.3.4-.9.7-1.3.8-1.2.3-3.1 1.5-3.4 2.2-.3.8-1.3 1.3-3.2 1.5-1.4.2-2.3.7-2.3 1.3 0 .1-1 .7-2.3 1.3-3.2 1.5-3.7 2-3.6 2.7 0 .4.2.7.2.7l3.6-.4zm23.8-5.5c0-.2.4-.4 1.3-.4a98 98 0 0 0 7-.3c.5-.2.7-.1.7.2 0 .5-.6.6-5.1.8-3.2 0-4 0-4-.3zm23.5.8c.5-.1.9-.9.4-.9-.2 0-2 1-2 1.2 0 .2.2.1 1.6-.3zm4.5-.7c0-.1 0-.2-.2-.2s-.3.3-.3.6c0 .5 0 .5.3.2l.2-.6zm-55.8.1h2.7c1 0 1.8 0 3.1-.5l2.3-.6 1.6-.4 1-.4-.1-1-.1-1 1.4-.4 1.5-.6c.1 0 0-.4-.3-.7-.5-.9-.3-1 1.2-1 1.3 0 3.9-.8 5-1.5.4-.3.6-.6.5-1 0-.5 0-.9.4-1.2 1.4-1.2 3.5-7 2.9-7.8-.2-.2-.3-.9-.2-1.7l.2-1.3-1.6-1.3c-1.4-1-1.6-1.4-1.7-2 0-.5-.1-1.2-.3-1.6-.5-.8-.5-1.8 0-1.8.2 0 .9.8 1.5 1.8l1.3 1.9h.9c.5 0 1-.1 1-.3l1-.2c.5 0 .8-.2 1-.6l.9-.8 1.6-.9c.9-.5 1-.7 1-1.3 0-1.1-.2-1.4-1-1.8l-.8-.4-1.4.5-1.5.5-1-1.1c-.5-.6-1-1.3-1-1.6 0-.9-.6-1-2-.5-.8.4-1.1.5-1.1.2 0-.4.9-.9 1.8-1 1-.1.9-.6-.4-1-1.4-.5-1.9-1.3-.7-1.1.8 0 .7-.3 0-1.7-.8-1.2-1-1.3-2.5-1.2-.6 0-.9 0-1-.5 0-.5-.3-.6-1-.5-.6 0-1.1 0-1.3-.3-.5-.4-1-.3-1.9.3-1.2 1-.8 1.5 1.2 1.4l1.7-.1.3.6c.3.5.3.6-.1.9-.6.4-1.6.4-1.8 0l-1.5-.2c-.7 0-1.3-.1-1.3-.3 0-.6-2 0-5.1 1.7-.6.3-1.2.4-1.4.4-.2-.1-.4 0-.4 0 0 .2-.5.8-1.1 1.5a73.8 73.8 0 0 0-3.2 3c-2.7 2.5-7 9.8-8.5 14.6-.4 1.2-.9 2.2-1.2 2.4-.3.1-.7 1-1 2.3-.8 2.8-1 4.1-.6 5.4 1.2 4.4 1.7 5.4 2.9 5 .4 0 .9-.3 1.1-.5.6-.5 1.8-.2 2.1.6.2.4.6.8 1 1 .7.2 1.2.2 4-.3zm-2.2-3c-1.6-.5-3-.5-4.7 0-.6.1-.8 0-1.2-.7l-.4-.9.3-2.5a16.6 16.6 0 0 1 1-4.3c.4-1.5 1.2-3.2 1.4-3.2.1 0-.1 1.2-.5 2.6-.6 2.7-.7 6.6-.2 7.2.2.2.9 0 2-.3l1.6-.6 1 .5c.5.3 1 .8 1.2 1.2l.5.8c.3.2 0 .8-.3.8l-1.7-.6zm-.6-1.5c0-.2-.4-.3-.8-.3-.3 0-.6.1-.6.3 0 .1.3.2.8.2s.7 0 .6-.2zm7.1.6c-1.6-.3.3-1.2 2.7-1.3 1 0 1.6.1 1.7.3 0 .3-.3.4-1 .4s-1.5.2-1.7.4c-.6.4-.7.4-1.7.2zm2-6.2c-.5-.1-1.2-.2-1.7 0-1 .1-1.4-.4-.5-.8.5-.1.7-.5 1-1.3 1-3.5 2.2-7.2 2.2-6.7 0 .3-.3 2-.8 3.8l-1 3.7c0 .2.3.4 1 .6.8.1 1.2.4 1.2.6 0 .4-.3.5-1.5.1zm-10.3-2.4c.4-1.3.8-2.4 1-2.3.1.1 0 .6-.3 1.1l-.4 1.3-.2.6c-.2 0-.2-.2 0-.7zm17.7-3c-.1-.5-.3-2.1-.3-3.7 0-3 0-3 1.5-7 .1-.3.3-.6.4-.5l-.6 3c-.7 2.7-.7 5.3-.3 7.9.3 1.2-.2 1.3-.7.2zm-16.5-.1.3-.3.1.3c0 .1 0 .2-.2.2s-.3 0-.2-.2zm1.5-2.6c0-.2.1-.3.3-.2.1 0 .2.3 0 .4-.2.4-.3.3-.3-.2zm10.6-3.2a36.7 36.7 0 0 1 6.4-11c.8-.9.7-.3-.2 1a71.4 71.4 0 0 0-5 8c-1 2.1-1.2 2.5-1.2 2zM95 59c-.2-.4 1.4-3.4 2.4-4.6 1.6-1.9 8-6.4 9.1-6.4 1 0 .5.5-1.1 1.5-2.8 1.6-3.5 2-4.8 3-1.7 1.4-3.9 4-4.4 5.2-.5 1.2-1 1.6-1.2 1.3zm4.6-2.2c0-.3 1.3-1.3 1.6-1.3.2 0 0 .3-.5.7-1 .9-1 1-1 .6zm14.5-3.4c-.2-.5-.1-1 .1-1.9.6-1.8 1-1.7.9.2l-.1 2c0 .7-.5.5-.9-.3zm-1.2-7c-.2-.7.1-1.3.7-1.3.5 0 1.1.9 1.1 1.5 0 .3-1.6 0-1.8-.3zm37.6 34.4c.1-.4.4-1 .7-1.2.9-.8.2-3.2-.8-2.6-.1.1 0 .4.1.7.3.4.3.7 0 1.5l-.5 1.2c-.3.3-.2 1.2.2 1.2l.3-.8zm-93.7-.1c.4-.2 1-1 1.4-1.6l2-3c1-1.4 1.2-1.6 1.7-1.5 2.4.8 6.6.8 7 0 0-.4-.2-.7-1.6-1.8-.7-.5-1-1-1-1.3 0-.4-.3-.9-.5-1.2-.3-.4-.6-.7-.6-.9 0-.4.5-.2.9.4.4.6 3 2.4 3.6 2.4l2 1 1.6 1h2.2c2.2 0 3.3.3 2.4.8-1 .6-1.1.8-1 1.2.1.2.7.4 1.7.5.8 0 2.3.5 3.2 1 1.4.6 1.8.7 2 .5V76.9c0-.1-.4-.4-.8-.5-.4-.2-1-.6-1.2-1l-.5-.7.6-.5 1.2-.6c.5-.2.7-.5.8-1.2l.6-1.9.7-1.8.2-.9-1.6.2c-3 .2-4.9.7-7.5 1.9l-3 1.2c-.3 0-3.5-1.2-4.2-1.6-1.2-.7-3.8-1.3-5.4-1.3-2 0-3.7-.4-3.9-1 0-.2 0-.7.2-1.1.3-.9.2-1.3-.3-1-.9.5.2 3.9 1.9 6 1 1.2.8 1.8-.3 1.6-.6 0-1 0-1.8.6-.5.4-.9.9-.9 1 0 .3-.5 1.4-1 2.6a49 49 0 0 0-1.2 2.7c-.1.3-.4.5-.9.5-.7 0-1.6.8-1.2 1.1.2.2 1.7 0 2.5-.5zm96.7-4.7c-.2-.5-.7-.5-.7 0 0 .4.1.6.4.4.2 0 .4-.2.3-.4zm4.5-2.2c1-.3 1.4-.5 1.4-.8-.1-.3.4-.7 1.5-1.1a10 10 0 0 0 2.2-1.2l.7-.4c.5 0 1-.8.8-1.2-.1-.4-.8-.3-5.5 1.3-1.5.5-3 1-3.4 1-1 .3-2.4 1.2-2.4 1.6 0 .6.9.7 1.5.2l.4-.4.6.7c.6.9.4.8 2.2.3zM7 72.4c0-.2-.1-.3-.2-.3-.2 0-.4.1-.4.3-.1.1 0 .3.2.3s.4-.2.4-.3zM154.6 71l1-.5-.6-.1c-.6-.2-1.7.4-1.7.8s.3.3 1.3-.2zm1.9-.7-.4-.1c-.2 0-.4 0-.4.2s.2.2.4.1l.4-.2zm1.6-.4c.5-.3 0-.3-.7 0-.3.2-.4.2-.1.2.2 0 .6 0 .8-.2zm-82.6-1a24 24 0 0 1 3.1-1.4l2.4-.8h2.4l2.5.2 1-2.5c1.2-2.7 1.2-4 .4-5.3l-.4-.6.4-.1h.6c.3.3 1.1-.4 1.1-1 0-.4.2-.8.3-.9.1 0 .3-.3.3-.6 0-.5-.2-.5-1.2-.5h-1.2L86 54.3a6.4 6.4 0 0 1-2-5.2c0-.6.3-1.2.5-1.3.3 0 .3.1.2.8-.2 1.3.4 3.2 1.3 4.3l.7 1 .9-.1h1c.3.5 1.4.4 3.1-.1 1.6-.5 2.4-1 2.2-1.4-.2-.4.5-1.3 1.1-1.3.5 0 .6-.2.5-.5-.2-.3-.4-.4-1.3-.2-1 0-1.2 0-1.5-.4-.1-.3-.2-.6-.1-.8v-.7a8.4 8.4 0 0 0-3.2-1.4c-.2 0-.4-.2-.3-.3 0-.2.6-.4 1.2-.4 1.1 0 2.8 1.1 3.1 2 .2.7.7.7.7 0a4 4 0 0 0-1.6-2.6 14 14 0 0 1-4-4.2c0-.4.1-.6.3-.5l.8.3c.8.2 1.2.6 1.5 1.6.2.5.6 1 1 1.2l1.2.7c1 .8 5.8-.2 5.8-1.1 0-.2.3-.6.6-1 .4-.3.7-.7.7-.9 0-.3 1-1 1.6-1l.7-.1c.4 0 1.4-2.5 1.4-3.5s-.6-1.3-1.4-.5l-.6.5-1.1-.3c-1-.2-1.2-.4-1.3-1 0-.4-.6-1.3-1.2-2-.5-.7-1-1.3-1-1.5 0-.3-2-1.1-2.5-1-.3.2-.4.4-.3.9.2.7-.1 1.5-1 2.5-.4.4-1 1.6-1.4 2.8l-1 2.2c-.6.2-1-.5-.7-1l.8-1.2c.6-1 .7-1.2.1-1.1-.8.1-.6-.5.2-1 .6-.3 1-.9 1-1.3l.4-1.3c.2-.4.1-.5-.3-.5-1 .1-1.2 0-1-.5 0-.2-.1-.4-.3-.4-.4 0-2 1.2-2 1.8-.2.2-.4.5-.6.5-.5 0-.5-.9-.1-1.3.2-.2.2-.5-.2-1-.3-.5-.4-.8-.1-1 .3-.3.4-4.1.1-4.1-.6 0-3.5 1.6-3.7 2a10 10 0 0 0 0 3.7c.1.2.5.3.8.3.4 0 .7.2.7.3l-.3.3c-.7 0-3.6 1.6-4.4 2.4-1.4 1.4-1.3 1.6 1 1.6 2 0 4 .8 4.4 1.7.3.6-.1.7-1.7.3-2.2-.7-4-.6-4.7 0-.3.3-.7.6-1 .6-1 0-4.8 1.3-6.7 2.4a21 21 0 0 0-7.3 7.2 24 24 0 0 1-2.1 3.2 6.1 6.1 0 0 0-1.4 4.4l-.1 1c-.3.4-.4.3-.8-.2-.9-.9-1.3-.7-1.3.4 0 .6 0 1.3-.2 1.6-.2.8.2 1.2 1.8 1.3 1 .1 1.6.4 2 .8l.6.6 1.7-1c1.7-.8 3-1 3-.6 0 .2-.4.4-1 .6a8 8 0 0 0-2 .9l-1.1.7a19 19 0 0 0-3.3 2.7c-1 1.3-.7 1.4 2.9 1.6l2.3-.1c.4-.6 2.2-.2 4.3.8 1.7 1 2.8 1.4 3.5 1.6l1-.5zm0-1v-.5c.4-.6 2.6-2 4.2-2.7 1.6-.6 4-1.1 4-.8l-3 1.6c-1.7.9-3.5 1.8-4 2.2-.7.5-.9.6-1.1.3zm-1-6.9c-.7-.3-1.5-.9-1.8-1.2-.5-.6-.6-.7-.2-1 .3-.2.5-.2.8.2 1.1 1 2.1 1.6 2.5 1.4.2-.2 1.3-.3 2.4-.2 1.1 0 2.5-.2 3-.3.6-.2 1.1-.3 1.3-.1.4.5-.5.8-2.9 1.1-1.3.2-2.5.4-2.6.6-.4.4-1 .2-2.4-.5zm7.2.3c.7-.2 1.4-.4 1.5-.3.2.3-.1.4-1.5.6l-1.3.1zM77 57.6c0-.3.2-.3.9 0l.5.2h-.7c-.4 0-.7 0-.7-.2zm3.8-2a4819.5 4819.5 0 0 0-3.5-1.1c.5-.2 4.9.6 6 1 .3.1.5.3.5.5 0 .3.3.3-3-.5zm1-.8a34 34 0 0 0-3.1-.8c-1.2-.2-2-.5-1.7-.8l5.4 1c1 .3.7 0-.8-1.2-.7-.4-1.2-1-1.2-1.2 0-.6 2.5 1.3 3.5 2.6.3.4.4.8.3.9l-2.3-.5zm-.5-4.7v-.4c.2-.2.7.2.7.5s-.5.3-.7 0zm3-8.7c0-.3.8-.3 1.5 0 .5.2.4.3-.4.3-.6 0-1-.1-1-.3zm11.9-.6a5 5 0 0 0-.8-1.9c-1-1.3-.8-1.7.2-.5 1 1 1.5 2.6 1 3-.2.2-.3 0-.4-.6zm-.3-3.3-.5-.6.6-.6c.9-.8 2.1-1.2 2.1-.6 0 .2-.2.5-.5.6-.4 0-.5.4-.5 1 0 .8-.5 1-1.2.2zm64.7 31.7c.3-.2.3-.2-.2-.2a2 2 0 0 0-.9.2c-.3.2-.3.3.1.3a2 2 0 0 0 1-.3zm1.8-1.6.8-.4c0-.3-1.6.1-2.2.6l-.6.4.6-.2 1.4-.4zm-144 0c0-.5-.1-.8-.5-.6-.3.2-.3.9 0 .9.2 0 .3-.2.4-.4zm146.7-.8.6-.2h-.6l-1.2.2-.6.3h.6a5 5 0 0 0 1.2-.3zM25.7 65.6h-.5c-.2 0-.1.1.2.2.3 0 .4-.1.3-.2zm1.7-.8c.3-.2.9-.3 1.2-.3.8 0 1.4-.8 1-1.2-.3-.2-.5-.2-1 .2l-1.7.8c-.8.4-1.1 1-.5 1a3 3 0 0 0 1-.5zm3.7-.5c0-.2-.2-.4-.3-.3-.5.1-.6.7-.1.7.2 0 .4-.2.4-.4zm31.8-.8c.6-.6.6-1.3 0-1.5l-1.4-.2c-1.3 0-2.5-.6-2.8-1.3 0-.3 0-.9.3-1.3.5-1 .3-1.9-.3-1.9-.4 0-.5-.6 0-1 .4-.4-2-.6-3-.2-1 .5-1 1-.1 1.6.3.2.6.6.6 1s.2.5 1 .5.9 0 .6.3c-.1.2-.7.5-1.1.6-.9.2-4.2 1.6-4.2 1.8l.7.6c.6.4 1.4.5 4.6.5 3.2 0 3.8.1 4 .5.3.5.5.5 1 0zm-22.3-2.3c.4-.6.2-1-.5-.5-.5.3-.7 1.4-.2 1.2.2 0 .5-.4.7-.7zm-3.6-.7c.1-.2 0-.3-.2-.3s-.5.1-.6.3c0 .1 0 .2.3.2.2 0 .5 0 .5-.2zm90.8-7.3c.5-.2.5-.7 0-.7-.2 0-.5-.2-.6-.4l-.3-.5-.7.4-.8.3.6.3.6.5c0 .3.6.3 1.2 0zm-7-6a7 7 0 0 0 1.6-1.4l.6-.7-.3-1.8-.6-2.8c-.3-1.2-.1-1.6.8-2 1.5-.8 2.6-5.4 1.5-6.6-.6-.6-.9-.7-1 0-.2.2-.1.5.1.7.6.4.6.5-.7 1.3-.6.4-1.3 1-1.6 1.4l-.5.6-1.2-.5c-.9-.3-2-.4-3.9-.4l-3-.2-.4-1.4c-.1-.8-.4-1.3-.6-1.4-.3-.1-.4-.4-.2-1.2v-1l-1.2 1-1.8 1.6c-.6.5-.8.8-.9 1.8 0 .6 0 1.5.2 1.9.5 1.1-.1 3.2-1.3 4.4-.3.4-.4.9-.4 1.4 0 .6.2.7 1 .8a3 3 0 0 0 1.6-.5c1-.5 2.3-.7 2.5-.2l1 .2c.6 0 1 .2 1.3.4.2.3.8.4 1.5.4 1.4 0 2.2.7 3 2.6.6 1.4 1.2 2.2 1.7 2.2l1.2-.6zm12.2-2.6c0-.2-2.2-.6-2.4-.4-.3.3.6.7 1.5.7.5 0 .9-.1.9-.3zM94.3 29.1c.3 0 .6-.4.6-.7 0-.6-1-2.3-1.4-2.3-.5 0-.7 3.5-.2 4.7l.3.7.1-1.1c.1-.8.3-1.2.6-1.3zm55 117.4c-.6 0-1-.3-1-.4 0-.3 0-.3 2 0 .8 0 1.4.3 1.4.4 0 .3-.8.3-2.4 0zm59.7 0c-.5-.1-.5-.6 0-.6.2 0 .4-.2.4-.5 0-.6-.8-.9-2.4-.6-.9.2-1.2.3-1.2.8 0 .7-.8.7-2.8.2a73 73 0 0 0-3.3-.7c-1.7-.3-3.6-1.2-3.6-1.7 0-.1.4-.3.9-.4 1.3-.4.9-.7-.9-.8-1.6-.1-2.3-.5-1.2-.9l.6-.2-.6-.1c-.3 0-.6-.2-.6-.3 0-.3-2.1-.8-3.4-.8-.7 0-1.2.1-1.4.4-.2.2-1 .5-1.7.6-1.4.2-1.1.5.7.6.7 0 1.2.2 1.3.4 0 .3-.2.4-1.3.2l-4.5-.4c-1.6-.1-3-.3-3.1-.5-.2-.3-2.3-.4-3.4-.2-1 .2-3.9-.4-4-.8-.1-.3 0-.4.7-.2.5.1.8 0 .8-.1 0-.2-.2-.3-.5-.3s-.6-.1-.7-.3c-.1-.2.2-.2 1.1-.1a46.7 46.7 0 0 0 5.3.4s.1 0 0 .2c-.3.3 3.5.8 4.3.6l.7-.2-.7-.1h-1c-.6-.1-.6-.5 0-1s.9-.5 2.2-.4c1.2.1 1.5 0 1.5-.2 0-.5 2-1 3.4-.8.8 0 1.1 0 1-.2-.1-.2-.3-.3-.5-.3l-2.1-1.1-1.9-1.1h-4c-4.6.1-5.6 0-5.8-.7-.1-.3-.5-.5-.8-.6-.8-.1-.9 0-.2.5.6.4.2.8-.5.4l-2.7-.8a7.6 7.6 0 0 1-2.4-1c-.5-.5-1.6-.6-4.8-.4-2.1.2-2.5.2-1.3.3 2.1 0 2.2.4.1.6-1.8.2-2.7 0-2.5-.4.1-.3-.2-.5-.7-.7-.4-.1-.8-.4-.8-.5 0-.2-.3-.3-.6-.3-.7 0-1-.4-.4-.6.2-.1-.3-.2-1-.2h-1.4v.6c-.1 1.4 0 1.4-1.9 1.3-1 0-1.9-.3-2.2-.5a7.3 7.3 0 0 0-3.8-1.3l-1.7-.4-1-.2c-.9 0-1.6-.3-1.6-.6l.6-.2c.2 0 .5-.2.5-.4 0-.5 2.9-2.1 4.4-2.4a67.8 67.8 0 0 0 5.3-1.3c.8-.1 1.3-.5 1.7-1.1.7-1 1.6-1.4 2.7-1.2 1.4.4 3 .3 3.5-.1.3-.2 1-.4 1.8-.4.7 0 1.2-.1 1.1-.2-.2-.4 3.6-.6 4-.3.3.3.5.2.8-.2l.3-.6c0-.2.3-.3.7-.4.3 0 .7-.4.9-.8.2-.4.5-.7.8-.7.3 0 .6-.3.8-.6.2-.4.6-.8 1.2-1 .6 0 1.2-.4 1.5-.6.3-.4.6-.4 1.1-.1l.7.3-.1 1.6a89.6 89.6 0 0 1-1.2 8.5c0 .7-.5 1.1-.8.7a4 4 0 0 1-.1-1.6l.1-1.2-.3.9c-.6 1.9-1.2 1.5-.8-.4.2-.9.3-1 .9-1h.6l.2-1.8c0-1 .2-2 .3-2.4.1-.5 0-1-.5-1.4-.7-.8-1-.8-1.5-.3-.2.4-.3.6 0 1a7 7 0 0 1 0 4c-.2.4-.3.4-.5.2-.1-.2-.2-.6 0-.9.1-.7-.2-2-.7-2-.2 0-.3.2-.3.6 0 .7-.3.9-.8.4-.6-.6-.6.4 0 2.3.5 1 .8 2.2.8 2.5 0 .8-.6.5-1-.4-.3-1.3-1.4-3.6-1.7-3.6-.6 0-.8.9-.7 3.1 0 2 0 2.3-.4 2.3-.3 0-.3-.4-.3-2.2 0-1.5-.1-2.2-.4-2.3-.2 0-.3.2-.3 1v1.4c0 .6-.3 1.5-.7 1.5-.4 0-.5-.6-.1-1.8.2-.9 0-1.8-.4-1-.2.5-.8.4-.8-.1 0-.6-1.5-.9-5.4-.8h-3.8l-.6.5c-.2.3-.5 1-.5 1.4l-.2 1.8-.2 1 1 .4c1.2.5 3.1.6 4 0l.7-.3-1.8-.2c-1-.1-1.8-.3-1.8-.4 0-.2.2-.2.3-.2h1.4l1-.3h-1c-1 0-2-.4-1.7-.6h2.5l2.3.1-.1.6v.7c.2 0 .2.2.2.4-.2.4-.1.4.4.3.8-.2 1.5.2 1.7.8v.5l-2 .2-2 .3 2.4.3c1.3.2 2.4.3 2.5.2 0 0 0-.3-.2-.5l-.3-.4h1.3c1.6 0 3 .3 3 .6l-.6.2c-.5 0-.6 0-.2.3l3.1.3c2 0 2.8 0 2.9.3 0 .2.6.5 1.3.6.7 0 1.4.4 1.7.6l.5.5h8.3l1.4 1 1.8.9.7.4a16 16 0 0 0 5.9 1.7c2.7.3 4.2.7 5.3 1.3.6.3 1.6.7 2.4.8 1.6.4 1.6.4 3 2.2.8 1.1 1.3 1.5 2 1.7 1.1.2 3.1 1.4 3 1.8l-.9.4c-.4 0-.9.2-1 .3-.3.2-2.2.3-2.7 0zm-3.3-2c1-.2 1.2-.4 1.1-.8a79.4 79.4 0 0 1-.3-2.3c0-.1-1.5-.6-4.6-1.4-1.8-.4-3.6-.1-3.6.7 0 .2-.3.5-.6.6l-.6.2 1 .3c1.2.5 1.3 1.1.2 1.4-1.3.2-.6.7 2 1.2 2.5.5 3.8.5 5.4.1zm-8.5-5c0-.2-2.4-.7-3.8-.7-1.5 0-1.5.4 0 .7.7 0 1.3.3 1.5.5.2.2.5.3 1.3 0 .6 0 1-.3 1-.4zm-5.6-.6h-.5c-.2 0-.1.1.2.1.3 0 .4 0 .3-.1zm-18.3-6-.7-.2c-.5 0-.5 0-.2.3.5.3 1.1.3.9 0zm-18.6-1.2a1 1 0 0 0-.6 0c-.2.1 0 .2.3.2s.5 0 .3-.2zm-1.7-2.2c3 0 3.5-.2 3.5-2v-1H155c-2.4-.1-5 .5-6.7 1.6l-1.2 1c1 .4 2.7.6 3 .5.3-.1 1.6-.2 3-.1zM122 146.2l-.3-.6c0-.2 1.6-1.8 1.9-1.8.4 0 .2 1-.3 1.8-.6 1-.8 1-1.3.6zm2.6-.9c0-.5.1-.7.5-.7.5 0 .6.2.5.6-.1.9-1 1-1 .1zm50.8.4-1.3-.6c-.2-.3-.8-.5-1.2-.6-.7-.2-1.2-.8-.9-1 0-.2.5 0 .9.2s1.3.4 2 .4c1 0 1.3 0 1.3.5 0 .3.1.6.3.6.7.3-.2.7-1 .5zm-25.8-.4-2.2-.7c-.6-.1-1.1-.4-1.1-.5 0-.2.2-.3.4-.2l1.4.3c1.5.3 3.5 1 3.5 1.2 0 .4-.8.3-2-.1zm-33.2-1.2c0-.3 1.4-1 2.4-1.1 1.3-.1 1.2.6-.2 1-1.2.4-2.2.4-2.2.1zm9.3-.2c-1.4-.6-1.5-1.2-.3-2.9.6-.8.9-1.5 1-2.5l.1-1.3-1-1.9c-.8-1.6-.9-1.8-.5-2 .6-.2 2.2 1.7 2.2 2.6 0 1.3 1.2 1.8 4.7 2.3 1 0 1.2.2 1.1.6 0 .3-.5.4-1.6.6a9.7 9.7 0 0 0-5 2.5c-.6.7-.5 1 .6 1.2.5.1.8.3.8.7 0 .7-.5.7-2 0zm-23-.4c0-.2.1-.5.3-.6.3 0 .4 0 .4.3-.1.6-.8.8-.8.3zm66.6 0c-2-1.2-3-1.6-4.6-1.6-2 0-4 .2-4.5.5-.9.7-3.3 1.1-5.7 1-4-.1-9.1-1.2-8.5-1.7.2-.2.8-.2 2 0 3.7.9 5.1 1 5.6.8a49.4 49.4 0 0 1 5-2.1c.1-.2.4-.3.7-.3.2 0 .6-.2.9-.5l.5-.6-.5-.4c-.3-.2-.8-.3-1.1-.3l-1.6-.4a35.5 35.5 0 0 0-12.8-.6c0-.6 7-1.2 9.5-.9 4.3.6 8.3 2.1 9 3.5.4.6.7.8 1.5.8s5.4 1.7 6 2.3c.3.3 0 .8-.4.8l-1-.4zm-9.3-1.6c1-.5 1-1.2.1-1.2-1 0-3.6 1.2-3.3 1.6.2.3 2.2.1 3.2-.4zm14.1 1.3a7.3 7.3 0 0 1-2.5-1 3 3 0 0 0-1.4-.7c-1.3-.4-1.8-.7-1.5-1 .2 0 .8 0 1.3.2.6.3 2 .6 3.2.9 1.2.2 2.2.6 2.2.7l-.3.2.8.4c.6.1 1.2.4 1.3.6.1.4-.4.4-3.1-.3zm-.3-1-1.2-.2c-.4 0-.4 0 .1.2l1.2.3c.5 0 .4 0-.1-.3zm-45.2 1-.9-.3c-.8 0-1-.6-.2-.9.8-.3 1.4-.1 2 .5.7.8-.1 1.5-.9.8zm91.9.2c-.6-.4-1.2-2.2-1.2-3.4 0-.9-.2-1.5-.8-2.4-1-1.3-.9-2 .1-2 .8 0 1.5 1.1 1.5 2.3 0 .7.4.8 1 .4.7-.4 1.1.2 1.1 1.3 0 .8-.1 1-.5 1.1-.6.2-.7.6-.1 1.1.9.9 0 2.2-1.1 1.6zm-103.2-.6c0-.1.7-.7 1.6-1.2 1.8-1 2-1.4.8-1-1 .4-1.3.4-1-.3.2-.8.8-1.4 2-2a9 9 0 0 0 1.6-1c.6-.7.9-.7 1-.4.2.3-.8 1.2-2.4 2.1l-1 .8c.2.2 1.5-.4 2.1-1 .3-.2.6-.3.7-.2 0 .1-.1.4-.4.6-.4.3-.4.4-.2.7.4.4 0 1-.5 1a4 4 0 0 0-1.3.6c-1.3 1-2.8 1.5-3 1.3zM104 142c0-.4.7-1 1.1-1 .6 0 .5.3-.2.8-.6.5-1 .6-1 .2zm110-2c-1.7-.4-1.7-1 0-.8 2 .2 2.1.3 2.1.8s-.4.5-2 0zm-108-.4c0-.7 2.4-3 3-3 .6 0 .6.5 0 1-2.5 2.5-3 2.7-3 2zm48.8.3c0-.2 0-.3.2-.3s.2.1.1.3l-.2.2-.1-.2zm22.3-1.2c-.7-.2-1.2-.4-1-.5.4-.2 3.4.2 3.4.5s-.9.4-2.4 0zm32.7-.4c-.2-.1-1.1-.4-2-.5-2.2-.5-2.2-1 0-.7 2.5.2 3 .4 3 .8s-.5.6-1 .4zm-67.2-1.3c0-.1.1-.4.4-.6.4-.3.8 0 .5.5-.2.4-1 .4-1 0zm56-1c-.1-.2-.7-.5-1.4-.8-2.2-.8-5.5-2.4-5.2-2.6.4-.2 6.7 1.2 7.5 1.7l1 .6c.4.1.5.3.4.7-.1.4-.4.6-1.2.6-.5 0-1-.1-1.1-.3zm-1.4-1.7c-.2-.3-1.2-.5-1.2-.3 0 .3.5.5 1 .5.2 0 .3 0 .2-.2zm10.2 1.2a6 6 0 0 0-2-.8 6 6 0 0 1-2.1-1c-.3-.3-.7-.4-1.1-.3-.5.1-.8 0-1-.3-.3-.4-.4-.4-.7-.2-.4.4-1.5-.4-2-1.5l-.3-.7-.2.6c-.1.4-.3.6-.5.6-.3 0-.4-.6-.3-3 .1-1.6.3-3 .5-3.3.4-.5 0-.7-.6-.1l-.6.5.1 1.7-.1 2c-.3.4-2.3.1-2.8-.2-.4-.4-.4-3.7 0-4.3.4-.6 0-1.7-.5-1.7s-.6.2-.4 2c.3 2.4 0 4.1-.5 4.3-.4 0-.5-.2-.5-1.3a5 5 0 0 0-.3-2c-.3-.5-.4-.1-.5 2.4 0 2-.2 2.9-.5 3-.2 0-.3-.4-.1-1.8 0-1.3 0-1.9-.2-1.9-.1 0-.3.5-.3 1.2 0 1 0 1.2-.4 1.1-.4 0-.5-.3-.4-1.2 0-.6 0-1.3-.2-1.4l-.3-.9c-.1-.3-.2.2-.4 1.2-.2 1.6-.4 2.1-.8 1.6 0-.2 0-1.6.6-5.6.2-1.2-.1-1.7-.8-1.2-.4.3-.5 1-.6 3.6l-.2 3.3-.5.1c-.2 0-.5.3-.5.5s0 .4-.2.4c-.3 0-.3-1.4 0-3.3.1-1 .2-1.1.2-.6 0 1.4.5.4.8-2l.3-2.2-.5-.7c-.3-.4-.7-.6-1.1-.6h-.6v3.7c0 2.6-.2 3.9-.4 4.1-.2.2-.3.5-.3.7 0 .6-.6.2-.8-.5-.1-.4-.2-.5-.4-.3-.2.4-1.6.4-2 0a12 12 0 0 1-.2-4.6l.2-1c0-1 .4-1.4.8-1 .2.1.5 1.5.8 3l.6 2.8c.1 0 .2-1.2.2-2.9 0-3.2.5-3 .5.2 0 3 .2 1.8.4-2.1a34.1 34.1 0 0 1 .1-4.2c-.4.8-1 .8-1 0 0-.7-.6-.5-1 .4-.6 1.2-.9.6-.9-1.7 0-1.7.1-2.1.5-2.2.5-.2.9.3.7.9-.2.5.5 1.1 1.2 1 .5-.2.6 0 .7.3.2.5 1.3 1.5 1.8 1.5l.7.3h1.1c.5 0 .6-.2.6-.8 0-.7.1-.8.6-.8.4 0 .6-.1.6-.4 0-.8.3-1.3.7-1.3.3 0 .6.5.6 1.3 0 .4.3.5.9.6h.9v1.3c0 1 .3 1.3.6 1.5.4.2.5.6.5 1.1 0 1 .8.8.9-.2.1-1.2.6-.6.5.7 0 .7 0 1 .2 1 .2-.1.5 0 .8.1.4.3.6.3 1-.2l.7-.5.3.5c.3.3.5.4 1 .3.3-.1.5 0 .5.2 0 .6-1 2-1.5 2-.2 0-.3.3-.1 1 .2 1.1.4 1.4 1 1.4.2 0 .3.3.3.8 0 .6 0 .6.3.2.4-.6.8-.5 1.6.2.5.4.7 1 .7 1.4v.7l.4-.5.4-.5 1.7.4c3 .6 3.1.6 3.1 0 0-.8.5-.7 1 .3l.3.8-.4.1c-.4.2-1 .1-3-.3-1-.2-1.1.3-.2 1 .8.4 3.3 1.7 4 1.9.2 0 .4.3.3.4-.3.4-1.6.3-2 0zm-18.3-12c0-3-.3-2.4-.6.7-.2 1.9-.1 2.2.1 2 .3-.2.4-1.3.5-2.7zm-8.4 1.2c-.3-.3-.4.3 0 1l.1.5.1-.6c0-.3 0-.7-.2-1zm11-1.8c0-.9-.6-2.4-1-2.4-.7 0-.6.5 0 .6.5.2.6.4.6 1.4 0 .8 0 1.2.2 1 .2 0 .3-.3.3-.6zm-1 0c-.1-.2-.2-.2-.2.1 0 .3 0 .5.1.4v-.5zM133.6 135c-.1-1.5.1-8.5.3-8.7.2-.2.3 1 .3 3.1l.1 4.7c.2 1 .1 1.3-.2 1.3-.3 0-.5-.2-.5-.4zm-17.6-.6-.6-.8h2.1v.7c0 1-.6 1-1.5.1zm13.8.5c-.2-.5 1-3.8 1.5-3.8.3 0 .3.5 0 1.1-.2.3-.4 1-.5 1.6-.2 1-.6 1.6-1 1zm34.7-.3c-.2-.3.5-.6 1.4-.6.9 0 1.3.4.7.7-.7.2-2 .2-2.1-.1zM128 134c-.2-.3 0-.8.7-1.2.2-.2 1-1.2 1.5-2.2 1-1.6 1.9-2.7 1.9-2.3l-2.5 4.5c-.8 1.2-1.4 1.7-1.6 1.2zm7.8-.4c-.2-.3-.4-2.2-.6-4.2l-.5-4.2c-.3-.4-.2-.5.2-.4.3 0 .6.5.8 1.3.2 1 .9 5.7 1 7.2 0 .7-.6.9-1 .3zm-8.9 0c-.2-.4.5-1.5 1.4-2.3.3-.3.6-.7.6-1 0-.2 0-.3-.3 0-.5.5-1.6.4-1.6-.2 0-.3.3-.5.8-.6.8-.2 3-2.8 3.4-3.9.1-.6.6-.8.6-.3 0 .2.1.2.2.1l.4.1c.2.3-.6 1.6-3 5.2-2 3-2.3 3.2-2.5 2.8zm84-1.6c-.1 0-.3-.3-.3-.6s.2-.5.4-.6c.3-.1 1.8.8 1.8 1.2 0 .2-1.3.2-1.8 0zm-103.3-.9c-.1-.1 0-.3.2-.4.6-.2.8 0 .6.4-.2.4-.6.4-.8 0zm69-.2c0-.2 0-.3.2-.4.4-.3 2.4 0 2.4.4 0 .3-2.3.3-2.5 0zm28.2-.4c-1-.5-1.4-1.2-.9-1.2.6 0 2.5 1.1 2.5 1.5 0 .5-.5.4-1.6-.3zm-96.7-2.9a138.4 138.4 0 0 1 .8-6.2c.2-.2-.1 7.9-.3 8.2l-.4.2c-.2 0-.2-.7-.1-2.2zm1.3-.1.5-5c.1-2 .4-3.5.5-3.5.3 0 0 8.3-.3 9.1-.4 1.1-.9.7-.7-.6zm91.2-.2c.2-.6.6-.6.7 0 0 .2 0 .4-.3.4s-.4-.2-.4-.4zm-89.8-2.4.1-2.5a51.3 51.3 0 0 0 .5-3.4c.3 0 .1 6.1-.2 6.2-.1 0-.3 0-.4-.3zm107.7 0c-.3-.3-1-.5-2.3-.6-1.6-.1-1.9-.2-1.9-.6 0-.6.7-.9 2.4-1.1l1.2-.2 1.2.8c1.1.8 1.4 1.7.6 2-.6.2-.7.2-1.2-.3zm-93.6-3.2c-.3-.2 0-.8 1.7-4.5 1.6-3.3 2.6-5.6 3-7 .4-1 .9-1.4.9-.7 0 .4-1.2 3.2-2.5 6.1-.5 1.2-1 2.4-1 2.8 0 .7-1.3 3.2-1.7 3.4h-.4zm87.3-.5c-1.7-.3-2.2-.7-2-1.3.2-.5 1-.5 2.6-.2l3 .5 1.8.1-.1.6-.1.6h-1.9c-1 0-2.5 0-3.3-.3zm-84.6-1.2c-.3-.2-.2-.6.7-2.4l1.4-3.3c.2-.7.4-1.2.6-1.2.3 0 .2.6-.5 2.6-1.7 4.8-1.6 4.7-2.2 4.3zm39.4 0c0-.1.7-.2 1.5-.2 1 0 1.4 0 1.1.2-.5.4-2.6.4-2.6 0zm-27.5-1.3c0-.2 0-.2.2-.1.2 0 .3.2.3.2 0 .1-.1.2-.3.2l-.2-.3zm1.8-.7 1-.5c.8-.4 1.2-1 .6-1-.1 0-.3 0-.3-.2s.4-.3.8-.2c.9.1 1 1 .3 1.4-.6.4-2.4.8-2.4.5zm-16.6-.5.8-2.1a65.3 65.3 0 0 0 3.3-7c.1.5-.8 3.2-1.7 5.3l-1.2 2.7c-.5 1.4-1.2 2-1.2 1.1zm59.6-2.4c-.4-.4-.6-1-.6-1.2 0-.2-.2-.2-.5-.1-.4.1-2.7-2-2.7-2.5 0-.4.7-.3 1 .2l1 1 .6.4v-.6c-.1-1.1.4-.8 1 .6.2.7.7 1.5.9 1.8l.4.6-.1-1.4c0-1 0-1.3.2-1.2.2 0 .4.4.5.9 0 .4.2.8.3 1 .5.5.3 1.1-.5 1.2-.7.1-1 0-1.5-.7zm-11.3-1.3c-.2-.3-1-.8-1.7-1.2-.8-.4-1.2-.8-1.2-1.1 0-.3-.3-.6-1.4-1-1.4-.4-2.3-1.1-2-1.5.1 0 .7.1 1.3.4l1.7.8c.4.2.7.5.8.9 0 .4.5.8 1.4 1.2 1.5.8 2.2 1.3 2.2 1.7 0 .3-.6.2-1-.2zm-160.7-.2c0-.4 4.4-1.8 4.7-1.6.5.3.1.6-1.8 1.2-2.3.8-3.1.9-3 .4zm154.3 0a11 11 0 0 1-2-.4c-1-.4-1-1-.2-.7l5 .8c1 0 1.5.2 1.4.4-.2.3-1.9.2-4.2 0zm21.6-.1c-.2 0-.3-.4-.3-.7 0-.7.9-.5 1 .3 0 .6 0 .6-.7.4zm-10-1.2c.1-.5.7-.6.7-.1 0 .2-.2.4-.4.4-.3 0-.4-.1-.3-.3zm-5.4-.4-.7-.4c-.4 0-1-.7-.7-.8.3-.2 2.3.9 2.4 1.3.2.5-.6.4-1 0zm46.7 0c-.2-.4.1-1 .4-.7.3.2.3.9 0 .9l-.4-.3zm-71.4-.6c-.4-.5-.5-.6-.2-.9.3-.2.4-.2.7.2.8 1 .3 1.6-.5.7zm26.4 0c-1.7-.8-.7-1 1.3-.3.4.1.7.4.7.5 0 .4-1 .3-2-.2zm-25.4-1.2v-.6c.2-.2.7.2.7.6 0 .5-.5.5-.7 0zm1-.8c0-.2.1-.4.3-.4.3 0 .4.2.4.4s-.1.4-.4.4a.4.4 0 0 1-.3-.4zm-116.9-1.5.5-.2c.2 0 1-.3 1.7-.7l1.6-.6 2.2-.8c2-.9 2.5-1 2.3-.5a35.7 35.7 0 0 1-7 2.8c0 .2-.4.3-.7.3-.4 0-.7-.1-.6-.3zm-10.5-.4c-.2-.4-.1-.5 2.5-1.4 2.2-.8 2.9-1 2.9-.6 0 .2-1.3.7-5 2.1l-.4-.1zm11.5-1 1.6-.8 1.7-.7c.3-.3.9-.3.9 0a382.3 382.3 0 0 0-4 1.9c-.2 0-.2-.1-.2-.3zm-33.6-.6c0-.9.6-1.4 2.8-2.6 1.2-.5 1.4-.8 1.3-1.2-.2-.4.1-.7 2.3-1.7a713.1 713.1 0 0 0 22.8-11 8.3 8.3 0 0 1 3-1.3c.6 0 1-.2 1.5-1 .7-.9 1.7-1.2 1.4-.5-.2.5-.2.5 1.5 0 1.9-.4 3-1 3.3-1.8.2-.4.7-.7 2-1.2 1-.3 2.6-1 3.6-1.5l2.2-.9c.2 0 1.2-.3 2.1-.8 1.9-.8 2.3-1 2.3-.4 0 .5-1.8 1.4-5.6 2.6-2 .7-3.6 1.4-3.7 1.7l-1.2.7c-.5.2-1.1.7-1.5 1-.3.5-.8.8-1 .8-1 0-4.7 1.2-5.5 1.8l-1.6 1.1c-.6.4-1 .5-1.3.4-.6-.3-1-.2-2.2.6-.6.5-1.9 1-2.8 1.4-2.4.8-6.3 2.7-7.8 4-.7.5-1.6 1-2 1-1 0-2 .6-1.8 1 .1.4-.3.7-1.8 1.5a39.1 39.1 0 0 0-4.4 2.5l-2 1c-1 .5-2 1-2.4 1-.6 0-2.7 1.7-2.7 2l-.4.4c-.3 0-.4 0-.4-.6zm13-7.2c.1-.2.2-.3 0-.3l-.6.3c-.2.1-.3.2-.1.2.1 0 .4 0 .6-.2zm144.4 6.3.2-.6.7-.9 1.2-2.2c.5-1 .7-1.6.5-1.7l-.2-.4c0-.4 1-.3 1.2 0 .2.3-2 5-2.8 5.9-.5.6-.8.6-.8 0zm2.5 0c-.2-.3.6-2.3 1-2.3.3 0 0 1.9-.5 2.3-.2.3-.3.3-.5 0zm-18.6-.5c0-.3 1-.6 1.2-.4v.4c-.3.3-1.2.4-1.2 0zm13-1c0-.3 0-.6.3-.6s.4.3.4.7c0 .4-.1.6-.4.6-.2 0-.4-.2-.4-.6zm1.4.4c-.1-.1 0-.4.2-.7a29.4 29.4 0 0 0 3.5-8.6c0-.6.7-.7.8-.1.2.5-1.6 5-3.3 8.6-.4.9-1 1.3-1.2.8zm-13-1.1c-.2-.5 0-1 .4-.8.4.2.3 1.2 0 1.2-.2 0-.3-.2-.4-.4zm-93.6-.8c-.4-.5.3-.7 2-.7 2 0 2.6.3 1.6.7-.5.2-3.4.2-3.6 0zm-2.6-.4c0-.3.7-.6 1-.3.2.3 0 .6-.4.6-.3 0-.6-.1-.6-.3zm7.4-.6c0-.2.3-.6.7-1 .8-.7 1.1-.3.5.7-.5.7-1.2.9-1.2.3zm2.2-2c0-.4 1.2-1.2 1.6-1 .2.2 0 .4-.4.8-.8.8-1.2.9-1.2.3zm2.4-.6c-.1-.3-.2-.3.8-.7 1-.4 1.3-.4 1.3 0 0 .5-1.8 1-2 .7zm-52.8-.4c-.4-.4-.1-.8.6-1.2 1-.6 1.3-.6 1.3-.1 0 .4-1.7 1.5-2 1.3zm55.7 0c-.2-.1-.2-.3.1-.8l.4-.6h-.4c-.2 0-.4-.3-.4-.6 0-.4.1-.5.7-.5.8.1 4.2-1 4.9-1.4.2-.2.5-.5.6-.8.3-.5 1-.8 3.5-1.5.6-.1 1.1-.4 1.2-.6.2-.5 2.7-1.8 3-1.6.1.2-.3.7-1 1l-.6.4h.5c.4 0 .8-.2 1-.4.1-.2.7-.4 1.2-.4 1 0 3-1 3-1.5 0-.2-.3-.2-1.2 0h-1.5l-.4-.3.4-.1 5.3-.9c1.9-.2 1.6.3-.5.7l-1.5.5c.5.8-1.4 2.1-3 2.1-.5 0-1 .2-1.2.3-.2.2-1.4.6-2.7 1-1.3.3-2.5.8-2.7 1-.5.4-3.6 2-5.7 2.8l-1.5.6.1.6c.1.5 0 .7-.5 1a4 4 0 0 1-.7.1L62 98zm7.3-1.6c-.1-.2.8-.4 2-.6 1.7-.2 2.4-.5 3.5-1.2 1.3-1 2-1.2 2-.7 0 .3-1.5 1.4-2.6 2-.8.4-4.7.8-5 .5zM58 96c-.1-.2.7-.5 1.7-.9l2.6-.8 1.4-.2h.9l-.8.4c-1 .4-5 1.7-5.4 1.7a.6.6 0 0 1-.4-.2zm-43.3-1.5c0-.5 1.6-1.5 2-1.3.2 0 .8 0 1.3-.3 1.2-.5 1.8-.5 1.6-.1-.3.4-4 2-4.5 2a.4.4 0 0 1-.4-.3zm28.8-.1c0-.3 1-.6 1.4-.4.2 0 .1.3 0 .4-.6.3-1.4.3-1.4 0zm121.5-1a55.2 55.2 0 0 1 .7-9.9c.2 0 .3 2.1.3 5 0 4.1 0 5-.3 5.1-.3.1-.5 0-.7-.1zm-92.2-.1c.1-.3 1.7-1 2-1 .5 0 .1.5-.6.9-.9.4-1.7.5-1.4 0zM44.5 93c-.1-.1.3-.3.8-.4l1.7-.2c1.1-.2 1 .3-.2.6-1.3.4-2.1.4-2.3 0zm34.7-.7c0-.2.4-.4.8-.5l1.7-.4c1.5-.4 2 .2.6.5-2.8.8-3 .8-3 .4zm-58.1-.5c0-.3.4-.5.8-.6.8 0 1 .4.2.8-.7.4-1.1.3-1-.2zm29.1-.3c-2.7-.1-1.9-.6 1-.6 2 0 2.7.1 2.6.3-.1.3-1 .4-3.6.3zM24 90.8c0-.5 1.3-1.3 1.8-1.1.6.2.4.8-.5 1.2-1.1.4-1.3.4-1.3-.1zM4.4 90c0-.2 3.1-1.8 6.1-3 .1 0 .2 0 .2.2s-5.6 3.2-6.1 3.2l-.2-.4zm48.7-.2c.1-.4 1.7-.9 2-.6 0 0 0 .3-.3.5-.7.5-1.8.5-1.7 0zm89.6-.2c0-.3.6-.7 2.6-1.8 1-.5 1.7-.8 1.6-.6 0 .2-.6.6-1.1 1-.6.2-1.4.7-1.9 1-.7.7-1.2.8-1.2.4zm69.3-.5 1.5-2.3c1.6-2 2-3 1.5-3.4-.6-.4-.3-.7.6-.6h.8l.1 1c.1 1-.5 2-2.5 4-1.6 1.6-1.8 1.7-2 1.3zm-189.1-.3c0-.2 1.9-1.1 2-1 .1.1-1.5 1.3-1.8 1.3-.1 0-.2-.1-.2-.3zm149-1.4c0-.8.2-1.1.5-1.1.5 0 .6 1 .2 1.7-.4.9-.8.6-.7-.6zM55.2 88c0-.4 1.3-.8 2.2-.7h.8l-1 .5c-1.2.5-2 .6-2 .2zm141.5-.4.7-1.1c.3-.6.6-1.3.6-1.7 0-.7.5-1.5.7-1.3.3.3-.2 2.4-.8 3.2-.5.8-1.2 1.3-1.2 1zm-111-.4a12 12 0 0 1 4-1.3c.8 0-.1.7-1.2 1-2.2.6-3 .7-2.9.3zm-26.2-.3c-.2-.4.2-.8 1-.8.5 0 .8.2.7.4-.1.4-1.5.7-1.7.4zm118.2-.3c0-.3 0-.5.2-.5s.3.2.3.3l-.3.4c-.1.1-.2 0-.2-.2zM22 86.5c-.1-.2 7.5-4.3 8-4.3.9 0-.1.6-3.6 2.4a2085 2085 0 0 1-4.4 1.9zm6.7-.3 2-1.2c2.8-1.4 3-1.5 3.1-1.3.1.1-1 .8-2.3 1.5-2.6 1.3-2.8 1.3-2.8 1zm62.1 0c-.7-.5-.3-.8.7-.6.6 0 1 .2 1 .4 0 .5-1 .5-1.7.1zm-26-.6c-.2-.3-.1-.4.6-.6.5-.2 1.1.2.8.5-.3.3-1.2.4-1.4.1zm-51.2-.5c0-.3 3.2-1.9 3.9-1.9.8 0 .3.5-1 1.2-1.8.8-2.9 1.1-2.9.7zm140.5-.2c0-.2-.2-.5-.5-.5-.3-.1-.5-.3-.5-.5a10 10 0 0 1 3.3-2.4c1.2-.3 1 1.1-.2 1.9l-.9.5h.6c.8.2.5.6-.6 1-1.2.5-1.2.5-1.2 0zm8.4 0c-.2-.3.3-.8 1.3-1.1.5-.2.8-.2 1 0 .2.5 0 .8-.8.8-.3 0-.7 0-.8.2-.2.4-.5.4-.7 0zM.4 84.3c0-.2.4-.5.8-.7L3 82.5c.8-.7 3.4-2 4-2 .3 0 .7-.1 1.1-.4.7-.6 1.7-.8 1.7-.3 0 .4-1.4 1.3-2.1 1.3-1 0-2.6.8-3.8 1.8-.6.5-1.4 1-1.8 1-.5.1-.8.3-.8.4 0 .1-.2.3-.4.3s-.4-.2-.4-.3zm58.5-.4 2.5-.5c1-.2 1.2-.1 1.2.2 0 .3-.3.4-.8.4-.4 0-1.5 0-2.4.2h-1.7zm161-.3c-.2-.5-.2-.7 0-1 .5-.4 1.6.7 1.3 1.3-.2.6-1 .5-1.2-.3zm-208.1.2c0-.3 1-.6 1.3-.4.2 0 .2.2.1.4-.2.3-1.4.3-1.4 0zm22.5-.1 1.4-.9c.9-.4 1.4-.8 1.2-.9-.4-.2-.5-1.7-.1-1.8.3 0 .6 1.8.3 2.4-.2.6-1.5 1.3-2.3 1.3l-.5-.1zm30.6-.7c-1 0-1.3-.2-1.3-.5s.2-.4.9-.2l2 .1c.8 0 1.1.1 1 .4 0 .3-.7.4-2.6.2zm4.4 0c-.1-.3 1-.8 1.6-.8.6 0 .5.4-.1.8-.7.3-1.3.3-1.5 0zm127-1.1a3 3 0 0 0-2-1c-.8 0-1.4-.3-1.5-.5 0-.3.4-.3 2.2-.3 1.9 0 2.3.1 2.4.5.2.7 1 .6 1.6-.2l.4-.7 1.1.2c.6.2 1.5.3 1.9.3.5 0 .8.1.9.4 0 .6-1 1-2.3.7-.7-.1-1.1 0-1.4.2-.1.2-.8.6-1.4.8l-1.2.4zm-122.7.3c-.3-.4.1-.5 1.7-.7 1-.1 1.6 0 1.7.1.2.4-.1.5-2 .7l-1.4-.1zM22 81.9c-.2-.2.6-.5 4.7-2 1.4-.5 1.8-.9.8-.9a4 4 0 0 1-1.7-.5c-.7-.5-1-.5-1.5-.3l-1 .3c-.5 0 .4-.8 1.5-1.2l1-.4.4.7c.5.8 1.6.8 3.8 0 3.7-1.4 11-3.6 11.8-3.6.2 0 .4.1.4.3 0 .3-.7.6-1.8.9a93.3 93.3 0 0 0-11.3 4c-.3.7-1.3 1.2-4.3 2.2-2.4.9-2.6.9-2.8.5zm18-.2c.1-.4.6-.9 1.3-1l1.2-.5c.9-.3.6.6-.4 1.2-.8.5-2 .7-2 .3zM213.5 80c-.3-.1-.4-.3-.3-.6 0-.3 0-.6-.2-.6s-.3.2-.3.3c0 .2 0 .3-.2.2l.1-.5c.4-.4.3-1-.1-1.8-.4-.7-.2-1 .6-1 .7 0 .7 0 1.2 2.4.2 1.3 0 1.8-.8 1.6zm-167.8-.7c0-.4 5.2-2.2 5.5-2 .3.4-.3.7-2.7 1.5-2.7 1-2.8 1-2.8.5zm-38-.3c.4-.3 1.4-.7 2.4-1a36.2 36.2 0 0 0 4.8-1.5c.2 0 .4-.2.5-.5.2-.4 1.7-1.1 2.4-1.1s.5.4-.4.8c-1 .4-1 .9-.1.7 1-.3 2-.7 2-.9l-.5-.5c-.2-.2-.3-.5-.2-.6.2-.4 1-.4 1 0 0 .6 1.2.4 4.3-.7a75.8 75.8 0 0 0 5.2-2 163 163 0 0 0-8.7 4.2c-1.2.4-2.5 1-3 1.4l-1.1.6-.3-.5-.4-.4-1.4.4a211.3 211.3 0 0 0-6.5 2h-.5zm203.7.1c0-.1 0-.3.2-.3s.3.2.3.3c0 .1-.1.3-.3.3a.3.3 0 0 1-.2-.3zm-45-1.3c-.9-.3-.6-.6.6-1 1-.3 1.2-.3 1.5 0l.4.5-.5.4c-.6.4-1.3.4-2 .1zM51.4 76.4c0-.3 2.6-1.4 3-1.2.4.3 0 .7-1 1-1.3.5-2 .5-2 .2zm116-1.4-.5-1 .5-.4c.6-.5 2.6-.7 2.9-.4.1.2-.2.4-.9.7l-1 .4v1c0 1-.4 1-1-.3zM45.4 75c0-.5 4-2.5 4.5-2.2.4.2-.2.8-1 1l-2 .9c-1.4.7-1.5.7-1.5.4zm157.3-.4c-.6 0-1.2-.2-1.3-.4l-1.8-.2c-.8 0-1.6-.2-1.7-.3-.2-.3-1-.2-3.1.3-.7.2-1.4.2-1.5 0-.1 0-.3-.8-.3-1.6-.1-1.2 0-1.5.3-1.5.4-.1.5 0 .5 1 0 1.4.3 1.6 1.6 1.3l5.2-.2c4.4.1 5.5.3 5.3 1.2 0 .5-1.2.6-3.2.4zm-14.7-1c-.5-.6 0-.9 1.1-.9.8 0 1.1.2 1.1.5 0 .5-1.8.8-2.2.3zm-10-.7c0-.2.5-.4 1-.4l2.2-.3c.8-.2 1.5-.2 1.6 0 .4.3 0 .5-1.5.7-2.2.4-3.4.3-3.3 0zm-140.6-.2c0-.3 2.2-1.1 3-1.1.8 0 .4.6-.6.9-1.8.4-2.4.5-2.4.2zm134.5-.4c.1-.4 2.7-1.2 3.7-1.2 1.3 0 .7.6-1.1 1-2 .6-2.7.7-2.6.2zm6-.4c-.2-.2 0-.3.4-.4l2.6-.6c1.8-.4 3.2-.4 2.7.1l-2 .5-2.6.5c-.6.1-1 0-1.2-.1zm-154.2-.6c-.7-.4 1.1-.8 4-.8 3.4-.1 3.8.4.6.6a115.9 115.9 0 0 0-4.6.2zm8.3-.8-.7-.2c-.2 0-.5 0-.5-.2 0-.3 1.8-1.7 2.2-1.7l2.5-.4c1.6-.3 2-.3 2.2 0 .2.2.7.1 2.4-.4 3.8-1 4-1.1 5.2-2.3l1-1.2.3.5.3.5 1-.4c1.2-.3 2.1-.2 1.9.3l-1.7.5c-2 .4-3.2 1-4.7 2a5 5 0 0 1-2 .6c-.6 0-2.3.5-3.6.9-4.2 1.4-5.6 1.8-5.8 1.5zm146.2.2c0-.3 1.7-.9 3.2-1 1.3-.2 1.6-.2 1.6.1 0 .3-.4.5-1.3.6a72.5 72.5 0 0 0-3.5.3zm37.5-.6c-.4-.3-.2-.6.6-.9 1-.4 1.6 0 .8.6-.7.5-1.1.6-1.4.3zm-20.4-2.8c-.3-.4 0-.5 2.6-.7 2 0 2.6 0 2.8.2.1.2.2.5 0 .6-.1.3-5.2.3-5.4 0zm-27.1-.5c0-.2.7-.5 1.6-.6.7 0 2.8-.4 4.5-.7 3.7-.6 3.6-.6 3.6-.1 0 .2-.4.4-1.2.5-.7 0-2.3.4-3.5.6-3.4.6-5.1.7-5 .3zm.2-1.8c0-.2.1-.3.3-.3l.2-.4c0-.5.8-1.2 1.1-1 .2 0 .2.4.2.7-.1.4 0 .5.2.3l2.6-.3c1.2 0 3.9-.3 6-.6 3.6-.5 4.5-.5 4.5 0 0 .2-3.3.7-6.5 1l-3.4.3c-3 .5-5.2.6-5.2.3zm27.7-.3v-1c.1-.9.7-1.1 1-.4.2.5.8.5 1.4-.2.3-.4.6-.5 1.3-.4a43 43 0 0 0 8.1 0c.5-.3.7-.3 1 0 .6.8-1.6 2-2.6 1.5-.3-.2-.7-.3-.8-.2h-3.2l-3-.3-1.1.7c-1.2.6-1.9.7-2.1.3zM8.9 64.2c0-.1 0-.3.2-.4.2-.1.3-.5.3-.8 0-.4.1-.7.3-.7.3 0 .3 1 0 1.6-.3.6-.8.7-.8.3zm8.2 0 .4-.9c.3-.2.5-.7.5-.9 0-.3.2-.8.4-1.1.6-.9 1.2-2.9 1-3.1-.1-.1-.4 0-.5.1-.6.4-2.1.6-3 .4-.8-.2-1.8-1.5-1.4-1.8 0-.1.6.1 1 .5.9.6 1.2.7 2 .6 1.7-.3 2.2-.7 2.4-1.7.3-1.8.3-2 .8-1.6.4.4.4 1.4 0 1.8-.4.3-1.2 3.6-.9 4l1-.7c.8-1 3.6-3.3 4-3.3.2 0 0 .2-.3.5L22 59.3c-1 1-2.1 2-2.5 2.2-.3.2-.7.7-.9 1.3l-.5 1.3c-.4.4-1 .5-1 0zm197.7-.3c-.7-.2-.8-.8-.3-.8.6 0 2.2 0 2.4.2v.5c-.1.4-1.2.5-2.1.1zM1 63.3c-.3-.7 0-1.3.5-.7.3.5.3 1 0 1.2-.2 0-.4-.1-.5-.5zm2.3-.8c0-.3.2-.4.4-.3l.4.4c0 .2-.2.3-.4.3a.4.4 0 0 1-.4-.4zm23.6-.6c0-.4.3-.8.8-1.2 1-.7 1.2-.2.4.9-.7 1-1.2 1.2-1.2.3zm-1-1.2c0-1.3.5-1.6.6-.3 0 .5 0 1-.3 1.1l-.4.4zm98.2.8a238.2 238.2 0 0 0 6.5-2.6c2.2-.8 4-1 4-.5l-1.2.5c-1.4.3-7.1 2.2-7.5 2.4-.5.3-1.6.5-1.8.2zM1 61.4a1 1 0 0 1-.8-.7c-.3-.7 0-1 .6-.4l1 .6c.3 0 .6.3.6.4 0 .2-.4.3-1.5 0zm10.6-.3c-.1-.2 0-.4.2-.4s.4.2.4.4c0 .3-.1.4-.2.4-.2 0-.3-.1-.4-.4zm200.4 0c0-.5.1-.6.4-.6.3 0 .5.3.5.5s-.2.4-.5.5c-.3 0-.4 0-.4-.5zm-89.5 0c0-.2.8-.6 1.8-1 2.5-.9 3.1-1 2.9-.7-.3.4-4.7 2-4.7 1.6zM29 60.3c-.7-1 .6-1.3 1.4-.5l.4.7c0 .3-1.5.1-1.8-.2zm-25.7-.2c-.2-.1-.3-.3-.2-.4.3-.2 1.5.1 1.5.4 0 .4-.8.4-1.3 0zm2.9-.8c-.6-.3-1-.7-1-1v-.3l.7.4c.8.4 1.5 1.1 1.3 1.3l-1-.4zm8-.1v-.6c.3-.2.8.2.8.6 0 .5-.6.5-.8 0zM.6 58.8c-.5-.8-.6-1-.2-1 .6 0 1.3.9 1.1 1.3-.2.5-.5.4-1-.3zm30.6.2c-.2-.6 0-.9 1.6-1.6l1.5-.6v-1c0-1.3.6-1.6 1-.5.4 1 .3 1.7-.2 2.2-.8.7-.7 1 .5.8.7 0 1.2 0 1.2.3.2.3-.5.4-3.1.4l-1.2.2c-.3.4-1.2.2-1.3-.2zm-21.7-.5c-.2-.6 0-.9.5-.4.2.2.2.3 0 .6-.3.2-.4.2-.5-.2zm132 0c.2-.2 6-1.4 9.6-1.9 3.4-.4 5.2-.5 5 0 0 .2-1 .4-3 .5a73 73 0 0 0-7 .8c-4.1.8-4.9.8-4.6.6zm-136-.8c-.3-.3-.6-1-.6-1.3 0-.7.9-1.7 1.5-1.7.5 0 .4.4-.2.8a1 1 0 0 0-.5 1c0 .5 0 .6.6.4.5 0 .7 0 .8.4.4 1.2-.5 1.4-1.6.4zm33 0 .3-1.3c.2-.7.4-1 .8-1 .3 0 .5.2.5.3 0 .2.2.3.4.3s.4-.2.3-.4c0-.6-2.2-1.2-3.2-1-.6.1-.7 0-.7-.4 0-.3.2-.6.4-.6l.7-.4c.3-.3.2-.5-.3-.8-.8-.6-.7-1 .3-1 1.6 0 2-.3 2-1.4v-1l.8-.1c.5 0 .9-.2.9-.4 0-.5-.8-1.5-1.6-1.9-.4-.2-.7-.5-.6-.8 0-.3-.1-.8-.3-1-.4-.5-.5-.5-1.1-.2-1 .4-1.2.4-1.2-.2 0-.3.3-.6.8-.8.4-.1.8-.5 1-.8 0-.3.2-.6.3-.6.2 0 .3-.2.3-.4l.2-.4c.8 0 2.3-2.3 2.7-4.2.2-.8.2-.7.2.6l-.1 1.5-1.6 2-1.6 2.2.5.6.6 1.3c0 .4.4.8.7 1 .6.1 1.6 1.5 1.6 2.3 0 .4-.3.7-.7.9-.4.2-.6.4-.5.8.2.6-.5 1.9-1 1.9l-1 .6c-.8.9-.5 1.4 1 1.3h1l.4.8.3.7-.6.7c-.5.6-2.4 1.7-2.8 1.7l-.1-.3zm97.6.3c0-.1 4.4-1.1 6.2-1.4 1 0 1.2 0 1.2.3 0 .2-.7.4-2.7.7a480.2 480.2 0 0 0-4.7.4zm-100-1.5c.2-1.4.4-1.6 1.4-1 .8.4.6 1.5-.3 2a5 5 0 0 1-1 .3v-1.3zm1.2-.1c-.1-.3-.2-.4-.3-.3v.4c.3.4.4.3.3-.1zm-37.1.8c-.4-.4-.2-.7.5-.7.6 0 .7.7.1.9-.2 0-.5 0-.6-.2zm18.5-.7c-.7-.3-1-1-.6-1.3.1-.2.5 0 1 .4.7.8.6 1.3-.4.9zm6.6-1c0-.1 0-.3.2-.3s.3.2.3.4-.1.4-.3.4l-.2-.4zm110.3-.4c0-.3.2-.4.7-.4.3 0 .6.2.6.4 0 .1-.3.3-.6.3-.5 0-.7 0-.7-.3zM.1 54.9l.3-.4c.1 0 .3 0 .3.3 0 .2-.2.4-.3.4-.1 0-.3-.1-.3-.3zm7.6-.2c-.3-.3-.1-.8.4-.8.3 0 .5.1.5.5 0 .5-.5.7-.9.3zm2.6-1.1c-.3-.5.2-1.3.8-1.5.8-.2 2 0 2 .3.1.2-.3.3-.9.4-.7 0-1 .2-1.1.6-.2.5-.5.6-.8.2zm14.7-.4c-.3-.3-.8-.7-1.1-.7-.3 0-.6-.2-.7-.4 0-.3 0-.4.8-.2 1 .2 2.3 1.3 1.9 1.7-.2.2-.5 0-.9-.4zm3 0c0-.3.2-.6.3-.6.3 0 .2.8-.2 1.1-.1.2-.2 0-.1-.4zm122.5.4c-.3-.1-.3-.2 0-.4.8-.2 3.4-.2 3.4.1 0 .2-.4.3-.8.3l-1.5.1h-1.1zm-148-.4c-.4-.5.3-1 1-.5.4.3.4.4 0 .6-.5.4-.6.4-1 0zm139.3.3c.3-.4 8.3-1.9 8.6-1.6.2.2-.3.6-.9.6l-2.8.4c-3.4.6-5.2.8-5 .6zM7 52.7c-.5-1 0-1.2.6-.4.6.8.6 1 0 1-.2 0-.5-.3-.6-.6zm6.9-1c0-.3.2-.5.6-.5 1 0 1.1.5.3.8-.9.4-1 .4-1-.2zm2.6-.6c-.3-1-.3-1 .6-1h.8l-.2-.6c0-.4 0-1 .2-1.3.3-.3.4-1 .3-1.4-.1-.6-.2-.8-.6-.7-.3.1-.6 0-.7-.3 0-.2-.4-.4-.8-.4-1.2 0-.6-.5.9-.8 1.9-.3 2-.3 1.8.1-.2.7.6.5 1.7-.5.7-.7 1.2-1 2-1 1 0 2.2.5 2.4 1 .2.7-.1.8-.7.5-.8-.5-1.3-.4-1.3.2 0 .5-.4.7-.7.2-.2-.4-1.2-.3-1.2.1l.3.7c.3.2.2.3-.2.4-1.5.5-1.7.7-1.5 1.2.1.4 0 .8-.4 1.2-.4.4-.6.8-.5 1.2.1.4 0 .8-.5 1.2-1 .8-1.3.8-1.7 0zm-12.1.1c0-.1.1-.2.4-.2.2 0 .4 0 .4.2s-.2.3-.4.3c-.3 0-.4-.1-.4-.3zM9 51l.8-1c.5-.4.8-1 .8-1.3l.5-1c.4-.2.5-.6.4-.9 0-.3 0-.5.2-.6l.2-.8c0-.6-.4-1.1-2-2.5-.3-.3-.6-.9-.6-1.1 0-.4.4-.1 1.7 1.1l1.8 1.7-.2 1.1c-.2 1.4.3 1.5 1.3.3.4-.5.8-.8.9-.7.2.3-.9 1.6-2.3 2.9l-2 2.1c-.7 1-1.5 1.3-1.5.7zm12.3 0v-.6c.2-.3 1.3.2 1.1.5-.1.5-1 .5-1.1 0zm14.7-.5.4-.2c.2 0 .5-.3.7-.6.3-.6.8-.7.8-.1 0 .4-.5.8-1.3 1-.3.2-.6.1-.6 0zM14.3 50c-.2-.3 1.7-1.2 2-1 .1.3-.2.6-1.1 1-.5.1-.8.2-1 0zm124.5-.2c0-.4.6-.6 1.7-.6l1.3-.3a20.9 20.9 0 0 1 8.7-2.1c2.7-.1 3.5-.2 3.9-.6.4-.4.6-.4.9-.2.3.2 1 .2 3 0l2.5-.3.4.5c.2.3.6.4 2.2.3 1.2 0 2 0 2.1.2 0 .2-.8.3-2.2.3-1.5 0-2.3 0-2.3-.2 0-.4-2.8-.3-3.6.2-.5.3-1.6.4-5.6.5-4.8.1-6.2.4-8 1.2a5 5 0 0 0-1 .7c-.2.2-1 .3-1.6.3l-1.8.2-.6-.1zm-118.2-.4v-.5c.4-.2 1.5.2 1.5.6 0 .3-1.2.3-1.5 0zM5 49c-.7-.3-.8-.8-.3-1 .4-.2 1.6 1 1.3 1.2-.2.2-.3.2-1-.2zm25 .2c-.4-.4-.2-.7.3-.6.8.1 1 .8.3.8l-.7-.2zm181.3-.5-1.7-.4c-1.2 0-5-.8-5.3-1-.4-.4.3-.6 1.8-.3a118.4 118.4 0 0 0 7.6 1c.4.2-.6 1.1-1 1-.3 0-1-.1-1.4-.3zm-197.6-.1c0-.2.4-.5.7-.7 3.2-1.6 3.2-1.6 3.2-1 0 .1-.5.4-1.1.6-.6.2-1.6.6-2 .9-.6.3-.9.4-.8.2zm32.7 0c0-.1 1.7-.3 3.8-.3a34.6 34.6 0 0 0 4.8 0s-.7.3-1.9.4c-3 .2-6.7.2-6.7-.1zm-9.7-.6c.2-.5.7-.6.7-.1 0 .2-.1.4-.4.4-.2 0-.4-.1-.3-.3zm137.7.1c-2.3 0-4.1-.2-4.1-.3 0-.3 5.9-.5 8.4-.3 1.7.2 2.4.7.8.7h-5zm-150-.5c-.3-.3-.4-.6-.2-.7.3-.2.9.5.8.9-.1.2-.3 0-.6-.2zm158.6.2c0-.2.3-.3.8-.3s1.3-.2 1.9-.4c1-.3 1.5-.1 1.5.6 0 .3-.6.3-2.1.3-1.3 0-2.1 0-2.1-.2zm-132.3-.3c0-.1.3-.2.7-.2.6 0 .6 0 .3.2-.5.4-1 .4-1 0zm1.8 0c.3-.3 3.5-.5 3.5-.2 0 .1-.8.2-1.8.2h-1.7zM5.7 47c0-.2 1.2-.8 1.8-.8h.4l-.5.5c-.5.5-1.7.8-1.7.3zm36.5-.3c0-.1.2-.2.5-.2s.6-.2.6-.3c0-.1.4-.7 1-1.3.6-.5 1-1.2 1-1.5v-.5l-.3.5c-.4.6-.7.5-.7 0 0-.7-.5-1-1.6-1s-.7-.5.8-1.2c1-.4 1.3-.7 1.3-1 0-.3.2-.7.3-.8.2 0 .3 0 .3.2 0 .6.5.2.6-.5 0-.5.3-.8.5-.8.4 0 0 1.5-.6 2.2l-1.3.8-1 .4.9.5.7.6.1-.5c.1-.5.5-.9 1-.9v.4c-.1.3 0 .4.9.2.6 0 1.4 0 1.8.2h1.2c.3-.2.5-.2.5 0l-.8.4c-1.6.4-.7.6 2.7.5H56l.1-.5c.4-1.1-.1-1.4-1.3-.8-.6.3-.8.3-1.2 0l-.5-.3.8-.6c1-.8 1.8-.7.8.1-.5.4-.7.7-.5.7.2 0 .4-.1.5-.3l.6-.2c.2 0 .8-.3 1.2-.7.5-.5.6-.8.4-1-.2-.3 0-.6.8-1.3l1.2-.8-.2.7c-.1.5-.4 1-.6 1.1-.4.3-1 1.7-.7 1.7l.8-.6c.3-.3.7-.5.8-.3.4.4.8 2.2.6 2.3l-1.6.3c-1.4.2-1.7.5-.9 1 .4.1.3.2-.5.2s-1 .1-1 .4c.2.3 0 .4-.5.4l-2.8.1c-2.3 0-3.3 0-2.8-.3.2-.1-.1-.4-.6-.6-.6-.2-1-.5-1-.8 0-.4-.2-.5-.9-.5h-1l.1 1c0 .6 0 .7.2.4.1-.8.5-.8.7 0 0 .2.4.4.7.4h.5l-.4.7c-.6.8-1.3 1-1.1.1 0-.4 0-.5-.5-.5s-.7.2-.7.6c0 .3-.2.6-.5.6a1 1 0 0 0-.6.7c-.1.4-.4.5-1.2.5-.6 0-1.1-.1-1.1-.3zm13-2.6c0-.4-.8-.5-1.6-.4-1.3.3-1.2.6.2.6.8 0 1.4 0 1.4-.2zm3.6-2.2c.2-.3.4-.5.3-.6-.2-.2-1.6.4-1.6.7 0 .3.7.3 1.3-.1zM200 46.6c-3-.5-4.6-.5-5.6-.1-.6.2-1.2.2-2 0l-3-.3c-1.2 0-2.5-.2-3-.3-.8-.2-1.3-.2-2.3.1-1.5.6-2.7.6-3 0-.3-.2-1.5-.3-5.8-.4l-5.4-.2-1.1.6c-.9.4-1.3.5-1.5.2-.2-.2 0-.4.6-.8 1-.6 2.6-1.1 2.9-1a64 64 0 0 0 9.6.2c.3-.4 1.5-.3 1.5.1.1.4 1 .5 5 .6l5.4.2c.2.1.7 0 1-.2.4-.3.7-.3 1-.2.6.3 8 .8 8.9.6l.7-.1v.6c-.2.8-.6.8-3.9.4zm-173-.2c0-.2 0-.6.2-.9l.4-.6 1.6 1v.3c-.2.2-.4.2-.8 0s-.5-.2-.5.1c0 .5-.7.6-.8 0zm19 0c.4-.3 1-.3 1 0 0 .2-.4.3-.8.3-.5 0-.6 0-.3-.2zM.1 46c0-.3.2-.6.3-.6.4.1.4 1 0 1.1-.3 0-.4 0-.3-.5zm3.8.4c-.5-.5-.1-.8.8-.7l1 .1-.5.4c-.5.4-1 .5-1.3.2zm2.4-.6c-.2-.3 2.2-1.5 2.4-1.2.2.2-.2.6-1.3 1-.6.3-1 .3-1.1.2zm22.4-.8c-.7-.7-.7-1.6-.2-1.8.2 0 .4.1.4.6 0 .4.2.8.6 1l.7.7c0 .5-.8.2-1.5-.5zm12.6 0-.5-1.2s.3-.2.7-.1c.6 0 .8.2.8.8 0 .3 0 .8-.3 1-.3.2-.4.1-.7-.6zm-38.6-.6c0-.1.3-.2.7-.2.6 0 .6 0 .3.2-.5.4-1 .4-1 0zm28.1-.1c-.2-.5.3-1 .7-.8.3.2 0 1.2-.3 1.2l-.4-.4zm26 .2h.8l-.4.1h-.5zm133.3 0c-.2-.5.1-.7.5-.4.2.2.2.3 0 .4h-.5zm-177-2c.1-2.3.1-2.2.4-1.8.3.5.4 2.2.1 3.1-.3 1.2-.5.6-.4-1.3zm113.3 1.4v-.3c.2 0 .4.2.4.3l-.1.3-.3-.3zm1.7-.2-.4-.4.7.3c.8.5 1 .6.4.6-.2 0-.5-.2-.7-.5zm59.3.2c0-.1.1-.2.4 0l.4.2h-.4c-.3 0-.4 0-.4-.2zm-170-.3-.6-.2h.5c.3 0 .6-.3.7-.7.2-.4.6-.7 1.3-.9.6-.1 1.1-.5 1.2-.7.3-.6.7-.4.5.3 0 .5 0 .6.3.5.2 0 .5-.3.5-.5.2-.5.7-.5.7-.1 0 .3-.5.9-1.8 1.9-1 .7-2.2 1-3.3.4zm7 0c-.2-.2 0-.4.9-1 .6-.3 1.4-.5 1.7-.5.4 0 .8-.2 1-.4.3-.5 3-.7 3.2-.2 0 .2-.2.3-.7.3-.4 0-1 .2-1.4.5-.4.3-.9.5-1.3.4-.5-.1-1 0-1.5.5-.9.8-1.4.9-1.9.4zm11 0c0-.3.3-.5.5-.5s.5-.2.6-.5c.2-.4.2-.6-.3-1-1-.9-1.5-1-2.7-.2-.7.4-1.2.8-1.2 1l-.4.2c-.6 0-.5-.4.3-1.1 1.4-1.4 3-1.6 4.2-.7.8.6 1 2 .2 2.7-.6.5-1.1.5-1.1 0zm29.2-1.7 1.3-.6 1-.4c.7-.4 1.2-.4.7 0-.3.4-3.5 1.7-4 1.7l1-.7zm-41.3.3c0-.1 2.4-1.2 2.7-1.2.6 0 .1.6-.7 1-.9.3-2 .5-2 .2zm29.1-.1c0-.2.1-.3.3-.3.2 0 .2.1.1.3l-.3.2V42zm86.2 0h.5c.1.2 0 .2-.3.2s-.4 0-.2-.2zm73.9-.2c0-.2.2-.4.4-.4s.4.2.4.4-.2.4-.4.4a.4.4 0 0 1-.4-.4zM51.7 41c1.1-1.1.8-1.1-.7 0-1.2.7-1.7.9-1.7.5 0-.6.4-1.4.6-1.4.2 0 1-.5 1.7-1.2.9-.7 1.5-1 1.5-.9 0 .2-.2.6-.4.7-.5.5 0 .7.7.4.4-.2.7-.6.7-.9 0-.3.1-.5.3-.5.8 0 0 1.4-1.7 3-1.5 1.5-2.3 1.7-1 .3zm-48-.4c-.8-1.4-.3-1.6.5-.2.8 1.2.8 1.3.3 1.3-.2 0-.6-.5-.9-1zm37.7.9.8-.8c.5-.4 1-1 1-1.3.2-.3.4-.6.6-.5.3.2-.1 1.1-1.1 2-.7.8-1.3 1-1.3.6zm19.6 0 .2-.5c.2-.1.2-.8 0-2l-.4-1.8c.3-.2.4 0 .8 1.5.1.7.4 1.4.5 1.5.3.3 1.4-2.1 1.2-2.6-.1-.2 0-.4 0-.4.5 0 .4 1.7-.1 2.4-1 1.4-2.2 2.5-2.2 1.9zm66.3-.2v-.4c.4 0 .7.5.4.6-.1.1-.3 0-.4-.2zm5.8.1.3-.2v.2c0 .2 0 .3-.2.3s-.2-.1-.1-.3zm5.6-.1c-1.1-.4-2.1-1.2-2-1.4.2 0 .5 0 .8.3.2.3.8.5 1.3.5.4 0 1 .2 1.2.5.5.6.2.6-1.3 0zm66 0c-.1-.5.1-1 .6-1s.5.7 0 1.1c-.3.3-.4.3-.5 0zM47.6 40.2c.5-.5 1-1.4 1.2-2 .8-1.8 2-3.7 4.2-6.3.6-.8.8-2.4.7-6 0-1.1 0-1.7.3-1.7.2 0 .2.8.1 3v3.1l1-.7c1.1-1.1 1.1-.5 0 .8-1.8 2-2.6 3.1-2.1 3.1.2 0 .5-.1.5-.3l.5-.2c.2 0 .1.2-.2.4a20 20 0 0 0-5.2 6.2c-.1 0-.2.2-.2.5 0 .2-.3.6-.7.8-1 .4-1 .3-.1-.7zm138.4.7c0-.1.2-.3.4-.3s.3.2.2.3c0 .1-.2.3-.4.3l-.2-.3zm27.6 0c-.5 0-.5-1 0-1s.9.7.5 1h-.5zM5.3 40.6c-.1-.4.1-.7.4-.5.3.2.3.9 0 .9l-.4-.4zm22.2-.3.2-.5.5-.1c.2 0 .5-.2.6-.4 0-.1.2-.2.3 0 .3.2-.6 1.4-1.2 1.4-.4 0-.5 0-.4-.4zm142.9-.1c-.1-.4-.3-.5-.5-.3-.6.5-.7 0-.4-1 .4-1.3.8-1.6.8-.7 0 .6 0 .7.4.6.3-.1.4 0 .4.9 0 1.1-.4 1.4-.7.5zm24.5 0c0-.3 0-.5.2-.4.2.1.3.3.3.6 0 .2-.1.3-.3.3-.1 0-.2-.2-.2-.5zM20 40.2c-.6-.2-.3-.8.6-1.2l1-.4c.2-.1 0 1.2-.1 1.4-.2.2-1.2.3-1.5.2zm3.4 0c0-.2.3-.4.7-.4h.6c0 .2 0 .3-.2.3-.1 0-.4 0-.7.2l-.4-.1zm167.7 0c-.6-.2-1.3-1.6-1-1.8.2-.1.5 0 .8.3l1 .9c1 .5.6 1-.8.6zm6.1-.6c0-.6.2-.8.5-.8s.4.2.3.7c-.1 1-.8 1.1-.8.1zm-18.6-.5c-.2-1.3 0-2 .6-1.2l.3.4.5-.6.6-.4c0 .3-1 2.2-1.4 2.5-.4.3-.4.2-.6-.7zm2.8.8c0-.1.3-.6.8-1 .9-.9 1-.7.2.4-.5.8-1 1-1 .6zm-144.8-.6c0-.3.2-.5.3-.5.2 0 .3.2.3.5s-.2.5-.4.5-.3-.1-.2-.5zm31.4.3c0-.2 0-.3.3-.3.2 0 .3.1.2.3l-.2.2s-.2 0-.3-.2zm72.6-.2c-.5-.6-1-1.8-1-2.4 0-.3.1-.3.3.2l.8 1.4c.6.8.5 1.5 0 .8zm10.9.2c0-.2.3-.3.7-.3.3 0 .6.1.5.3l-.7.2c-.3 0-.5 0-.5-.2zm34.3 0c-.3-.4.2-.5.8-.2l.5.4h-.6c-.3 0-.7 0-.7-.2zm-130.9-.3c0-.1.4-.2.9-.2.7 0 .7 0 .3.2-.7.3-1.2.3-1.2 0zm99.2 0c0-.4 1-1 1.8-1 1.3.1 1.3.4 0 .7l-1.4.5-.4-.1zm20.2-.5c-1.5-1.6-2.2-2.5-2.2-3.2 0-.5.5-.3.7.3a9 9 0 0 0 1.4 1.9c.8.7 1.4 1.5 1.4 1.6 0 .4-.5.2-1.3-.6zm-151.6.3c-.8-.3-.2-.6 1-.6.7 0 1.3.1 1.3.3 0 .1-.1.3-.3.3a91.8 91.8 0 0 0-2 0zm36.8-.8c0-.9 0-1.1-.4-1.4l-.6-.4 1.1-.6c1.4-.7 1.6-.7 1 0-.3.3-.4.7-.3 1l-.1.7c-.2 0-.3.4-.3.8 0 .3-.1.7-.3.8-.2.1-.2-.1-.1-.9zm73.2.7c-.3-.3-.4-1-.1-1.6.2-.7.6-.6.5.1l.2 1.2c.2.7 0 .8-.6.3zm10.6 0s.2-.2.5-.2.5.1.4.3l-.5.2c-.3 0-.4-.1-.4-.2zm-9-.2c-.6-.3-.2-.6.4-.3.2.1.3.3.2.4l-.6-.1zm52.5-.2c-.3-.7-.2-1 .3-.7l.9.2c.2 0 .5 0 .7.2.3.3.3.3 0 .5-.6.4-1.7.3-1.9-.2zM6.2 38.4c0-.3.2-.4.5-.4.5.2.5.6 0 .7-.3 0-.5 0-.5-.3zm136-.5.3-1.6c.3-.6.3-.8 0-1-.3-.1-.3-.3 0-1 .6-1 1.2-1.5 1.4-1 .2.2-.4 1.3-.7 1.3-.4 0-.2.7.3.9.6.2.8.6.3.6-.4 0-.3.8.1 1 .6.1.2 1.2-.5 1.4-1 .4-1.2.3-1.2-.6zm19 .7c-.2-.3 3.8-.6 4-.4 0 0 0 .2-.2.3-.5.3-3.7.4-3.8 0zm39.5 0c-.3-.3-.3-.4 0-.6.2-.3.3-.3.6 0 .4.4 0 .8-.6.5zm-182.1-.4c-.2-.6 0-.7 1-.7s2-.5 1.8-.8c0-.2-.5-.3-1-.3-1.2 0-1.2-.4-.1-.7.7-.1.8-.2.4-.4-.3-.2-1.2-.3-2-.3-1.6 0-2-.2-1.3-.5.5-.2 3.2 0 3.6.2.2 0 .3.3.3.6 0 .2.3.7.6 1l.6.6-.7.7c-.9.9-3 1.2-3.2.6zm7.2.1c0-.1.4-.4 1-.5 1.1-.5.9-.9-.7-.9H25l.4-.4c.2-.3.6-.3 1.3-.2l1.2-.1c.2-.4.6-.4.7 0 .3.7 0 1.3-1.1 1.8-1.1.6-1.6.7-1.6.3zm44.7-.3c1.6-1.3 2-1.8 2.2-2.1 0-.2.2-.3.3-.2.4.3-.7 1.7-1.7 2.3-1.3.7-1.7.7-.8 0zM23 37.7l1-.2c.7 0 1 0 1 .2-.1.2-.6.3-1.1.3-.5 0-1-.1-1-.3zm127-.2c-1-.7-1.4-1.2-.5-1 .6.2 2.3 1.2 2.3 1.4 0 .3-1 0-1.7-.4zm6.2 0 .1-.4c.4-.2 1.9.1 1.7.4-.2.3-1.6.3-1.8 0zm-99.8-.3c.1-.5 1-1 1.1-.7.3.2-.4 1-.8 1-.2 0-.4-.2-.3-.3zm72.7 0c0-.2.3-1 .8-1.7.4-.7.8-1.2.8-1 0 .4-1.6 3.1-1.6 2.7zm23-.2c-.9-.6-.4-.8.8-.3l1 .7c0 .2-1.2 0-1.7-.4zm32.2.3c-.2-.2 0-.9.4-.9.3 0 .3.7 0 1l-.4-.1zm3.6-.2c-.4-.3-.4-1 0-1 .2 0 1.2.9 1.2 1.2 0 .3-.9.2-1.2-.2zm23.5.1c0-.5.5-1.3.8-1.3.5 0 .1 1.4-.4 1.5-.2 0-.4 0-.4-.2zM8.4 36.5c-.2-.8.3-2 .9-2 .5 0 1.7.9 1.5 1.1 0 .2-.4.3-.7.3-.5 0-.7.1-.8.6 0 .8-.7.8-.9 0zM134 37c-.2-.2-.2-.9 0-.9s.4.3.6.6c.2.4.2.5 0 .5s-.5 0-.6-.2zm40.5 0c-.3-.3-.2-.6.2-.6.2 0 .4.2.4.4 0 .4-.3.5-.6.2zm-16.4-.4c-.2-.1-.4-.4-.4-.6 0-.4.4-.5.6-.1.1 0 1.1.3 2.3.4a7 7 0 0 1 2.2.4c.2.3-4.1.3-4.7 0zm9.8 0c-.3-.4.1-.7 1-.7.4 0 .7 0 .6.3-.1.4-1.3.6-1.6.3zm37-.2c-.3-.2-.3-.5-.1-.8.3-.6.8-.4.8.3 0 .6-.4.8-.8.5zM45 35.9l-.4-1-.4-.7.7.1c.8.1 1 .7.7 1.6-.1.6-.6.6-.6 0zm118-.6c-1.8-1-3.1-2.4-2.8-2.8l1.2.8c.5.5 1.6 1.2 2.5 1.7.8.4 1.5.9 1.5 1 0 .6-.6.4-2.5-.7zm23.6.2c0-.7-.2-1-.4-1-.5 0-.5-.3-.1-.7.2-.2.2-.4 0-.7l-.6-.4c-.3 0-.8 1.3-.8 2.1 0 1.1-.3 1-.7-.3-.4-1.2-.2-1.7.3-1.2.6.4.5-1.3-.1-2.5l-.5-1.2h.5c.6.2.7-.1.2-.9v-.5c.2 0 .3 0 .3.2l.6.9.5.6-.1-1.6v-1.7c.6 0 .8 1 .7 3.3l-.2 2.3.5-.2c.2 0 .4-.3.4-.4 0-.1.1-.2.3-.2l.2.4c0 .2.1.4.3.4.3 0 1.3-1.7 1.3-2.2 0-.3.1-.5.3-.6.2-.1.2 0 .1.4s0 .6.2.5c.3-.1 1.5-3 1.5-3.9 0-.2-.3-.3-.7-.3-.5 0-.6 0-.3-.4.1-.2.7-.5 1.2-.6.9-.1 2.5-1.6 2.5-2.3 0-.2-.3-.5-.6-.7l-.6-.4.8-.4c1-.5 1-1.4 0-1.5-.9-.1-.9-.3 0-1l.7-.5-.4-.6c-.2-.5-.2-.7 0-1 .4-.3.4-1.5 0-2-.2-.1-.6-.3-1-.3-.5 0-1-.2-1.3-.7-.4-.5-.8-.7-1.7-.6h-1l.7-.4c1.2-.5 1.4-.5 2.3.4.4.5 1 .8 1.4.8.4 0 1 .3 1.2.5.5.5.5.8.4 2.2l-.3 2 .3 1 .5.4-.4.9a7 7 0 0 0-.6 1.7 1086.4 1086.4 0 0 0-1.3 7.2c-.1 0-.2-.3 0-.7.2-1.6.4-4.3.2-4.3-.6 0-1 .6-1.7 2.9l-1.1 2.8c-.2.2-.2.5-.2.8 0 1 0 1.4-.7 1.7-.3.1-.6.5-.7.8 0 .5-.2.6-.7.5-.4 0-.6.2-.9 1-.4 1.4-.7 1.4-.7.2zm1-2.3-.2-.2c-.2 0-.3.2-.3.4s.1.3.3.2l.2-.4zm2.1-1.3v-.3l-.4.3c0 .2 0 .3.2.3.1 0 .2-.1.2-.3zm-4-.9c0-.6 0-.9-.3-.9-.5 0-.5.6-.1 1.3.3.7.5.6.5-.4zM29.6 35v-1h.7c.7 0 .9.4.2.6-.2.1-.4.5-.4.9 0 .3 0 .6-.2.6s-.3-.4-.3-1zm24.5.6c-.3-.3-.4-.5-.3-.5.3 0 1.2.6 1.2.9 0 .3-.5.1-1-.4zm10.7.2.2-.6c.2 0 .5-.7.7-1.4.5-1.6 1.1-2.2.8-.8-.3 1.8-1.7 4-1.7 2.8zm63.5-.8c0-.8.1-1.6.3-1.8.1-.3.2 0 .2 1l-.2 1.7c-.2.3-.3 0-.3-1zm52.8.7c-.1-.3 0-.4.5-.3.8.1 1 .6.2.7-.3 0-.6-.1-.7-.4zm-148.5-.3c-.4 0-.6-.3-.6-.8 0-.8.4-1.6 1-1.6.4 0 .4.5 0 1-.3.2-.2.4.3.7.3.2.5.5.5.7 0 .2-.2.2-1.2 0zM3.9 35c.3-.2.5-.4.6-.3.3.3-.1.7-.6.7h-.4Zm21.8.3c-.3-.4-.2-.7.5-1 .4-.1.6-.4.6-.7 0-.2 0-.4.3-.5.2 0 .3.3.3 1.1v1.2h-.8l-.9-.1zm9.8-.3v-.6c.1-.1.9.5.9.8 0 .4-.7.3-1-.2zm26.4-1c1-1.3 1.5-3 1-3.4-.3-.2-.4-.2-.7.1-.3.4-1.3 1-1.6 1l.8-.9c1.2-1.1 2-1.3 2.2-.4a6 6 0 0 1-1.3 3.8c-1.2 1.4-1.5 1.2-.4-.2zm-40.2.7c-.2-.2 0-.6.4-.6.1 0 .3.2.3.4 0 .4-.4.5-.7.2zm113.1 0c.5-.4.9-.4.7 0l-.6.2c-.4 0-.4 0 0-.2zm71.8 0c0-.2.2-.4.6-.6.7-.3 2 0 2 .4.1.4-2.3.5-2.6.2zM71.2 34a13 13 0 0 0 .9-3.5c0-.4.1-.9.3-1 .5-.3 0 2.8-.6 4-.5 1-1 1.4-.6.5zm106.4.2c.4-.5 2.2-.5 2.4 0 0 .2-.3.3-1.3.3s-1.3-.1-1.1-.3zm14.5 0c-.2-.3.6-1 1.2-1 .7 0 .6 0-.3.7-.4.3-.8.5-.9.3zM47.3 33.1c-.4-.7-.6-1.3-.5-1.4.2-.2 1.3 1.8 1.2 2.2 0 .3-.3 0-.7-.8zm16.6 1 .5-1.2.5-.6c0 .4-1 2.2-1 1.8zm72.2-.6c.3-.5.8-.7.8-.3 0 .3-.6.8-.8.8-.2 0-.1-.2 0-.5zm4.5 0c0-.4-.2-.6-.7-.7-1.2-.3-1.3-.3-.6-.5l.6-.2-.7-.6-.7-.5h1.2c.7 0 1.6 0 2 .3l1 .3h-1.2c-1.3 0-1.6.3-.9.8.6.3.8 1.6.3 1.6-.2 0-.3-.2-.3-.5zm34.2-.1-3.5-2c-1.6-1-2.1-1.6-2.6-2.6-.4-.8-.5-1.3-.3-1.4.1-.2.4 0 .7.9.6 1.3 1.6 2 5.2 4 1.3.7 2.2 1.4 2.2 1.5-.2.3 0 .3-1.7-.4zm15.3 0c0-.6.6-.5.8.2 0 .2-.1.4-.4.4-.2 0-.4-.2-.4-.5zm-174.2-.2c.4-.1.3-.2-.6-.4-1.5-.2-1.6-.3-.8-.5.9-.2 3.1 0 3.1.4 0 .2.2.3.4.3s.4 0 .4.2-.7.3-1.5.3c-1 0-1.4-.1-1-.3zm26.9.1c-.5 0-1-.3-1.1-.6-.2-.3-.6-.5-1-.5-1 0-1.4-.5-.4-.6 1.2 0 1.8 0 2 .4l1 .7c.7.2 1 .9.6.8l-1.1-.2zm160.3 0c0-.2 0-.3.2-.3s.3 0 .3.2-.1.3-.3.3a.3.3 0 0 1-.2-.3zM4 32.6c0-.5.7-1 1-.7.1.2-.5 1.2-.8 1.2-.1 0-.2-.2-.2-.5zm31.5.2c0-.2.2-.5.5-.5.4-.1.5 0 .5.3 0 .4-.1.5-.5.5-.3 0-.5-.1-.5-.3zm165.8-.3c-.3-.8-.1-1.1.5-.9.4.2.5 1.5.1 1.5l-.6-.6zm-144.7-.1c.4-.2 1-.9 1.3-1.5l.6-1-.4-.5-.5-.6.5.1c1.5.3-.1 4-1.8 4-.2 0 0-.3.3-.5zm-22.7 0c0-.2.1-.3.3-.3.1 0 .2 0 .2.2s0 .3-.2.3a.3.3 0 0 1-.3-.3zm149-.3c-.2-.1-.3-.4-.3-.6.1-.2.4 0 .8.3s.5.5.3.5c-.3 0-.6 0-.8-.2zm8.6 0c-.2-.3.2-.7 1.4-1.3 1-.6 2-1.9 2.6-4 .2-.7.5-1.3.6-1.3.2 0 .3 0 .3.2 0 .3-1.1 3-1.5 3.6-.3.3-.4.9-.3 1.1.1.4-.1.6-1.4 1.2-.9.4-1.7.6-1.7.5zM26.2 32c-.3-.3-.2-.6.2-.6s.8-2.1.6-2.8c-.2-.4.3-1.3.7-1l.3 1.1c.1.6.3 1.2.5 1.2.5.3.2.9-.8 1.6-1 .7-1.2.8-1.5.5zm118.4 0c0-.2.2-.4.4-.5.2-.1.3-.4.2-.6 0-.4 0-.4.1 0 .2.1.4.2.6.1.2-.1.3 0 .3.2s-.2.5-.5.5l-.8.4c-.2 0-.3 0-.3-.2zm30.7-.1c-.5-.2-.8-.3-.7-.4a31.8 31.8 0 0 1 7.3 0c0 .7-4.8.9-6.6.4zM19 31.6c0-.1.1-.2.3-.2l.4.2c0 .2 0 .3-.3.3-.2 0-.4-.1-.4-.3zm18.2-.2c-.1-.3-.6-.7-1.1-.8-.5-.2-1-.5-1.2-.8-.4-.7-.5-2.4-.2-2.5.4-.3.7.1.8 1.3.2 1 .6 1.6 1 1.3.4-.2 1.6 1.2 1.5 1.6-.2.5-.7.4-.8 0zm-16.2-.1c-.1-.3 0-.6 0-.8.3-.2.4-.1.6.2 0 .2 0 .6-.2.7-.2.3-.3.2-.4-.1zm17.7 0a.5.5 0 0 1 .1-.5c.2-.2.3-.2.5 0l-.1.6c-.2.2-.3.2-.5 0zm42.9-.3-.3-1.3.1-.8c.3-.2.9 1.2.9 2 0 .7-.5.8-.7 0zm73.4.2c-.3-.7-.3-1.4 0-1.4.2 0 .6 1.6.4 1.8l-.4-.4zm-18.5 0-.1-.7c0-.8-1.6-.8-2.7 0-1 .7-1.7.8-1.7.2 0-.2.2-.4.7-.4.6 0 .7 0 .5-.6-.2-.8.5-1.2 1.2-.5.5.4 1.9.4 3.3 0 .4-.2.3 0-.2.4-.6.4-.7.7-.4 1 .1 0 .2.3 0 .5-.1.3-.6.4-.6 0zm61.3 0c-.3-.3-.2-.9.2-.9.2 0 .4.3.5.5.1.6-.3.8-.7.4zM3.2 30.5 2 29.8c0-.3.4-.3.6 0l1.2.4c.6 0 1.1.2 1.1.4 0 .4-.4.4-1.7 0zm21.6.3c0-.2.3-.4.6-.4.3-.1.4 0 .3.2 0 .2-.3.4-.5.5-.4 0-.5 0-.4-.3zm163.1-1 .2-2.9c0-1.4.2-1.7.7-.8.2.3.4.5.6.4.2 0 .3.4.4 1.3V29l-.5-.6-.5-.7-.1 1.4c-.1.7-.4 1.5-.6 1.7-.4.3-.4.1-.2-1.1zm-38.6.9-.2-.7c0-.4 0-.4.5-.2.3.2.5.4.5.6-.1.4-.6.5-.8.3zM23.7 30c0-.2.3-.4.4-.5.5-.2.4.6 0 .8-.3.1-.4 0-.4-.3zm26.7.2c0-.1.1-.2.3-.2l.2-.6c0-.4 0-.5-.1-.3-.2.5-.7.4-.7-.2 0-.4.5-.8 1-.8l.1 1c0 .7-.1 1.1-.4 1.2-.2.1-.4 0-.4 0zm100.4-.1c-.2-.6.1-.9.4-.4.3.5.3.8 0 .8l-.4-.4zm44.7 0c0-.3.7-.4.7 0 0 .1-.2.3-.4.3-.3.1-.4 0-.3-.2zm15.4-.6c-.5-1.1-.5-1.1 0-1.1.4 0 1.2 1 1.2 1.6 0 .8-.8.5-1.2-.5zM.5 30.1c-.4-.1-.5-.8-.2-.8.1 0 .4 0 .6.2.5.3 0 .8-.4.6zm70.7 0-.2-.6c0-.7.7-.5.8.2 0 .6-.2.8-.6.4zm76.8 0h.5c0 .1 0 .2-.4.2-.3 0-.3 0-.1-.2zm-16.9-.4c0-.3.1-.4.3-.4.1 0 .3.2.3.4l-.3.3c-.2 0-.3-.1-.3-.3zm-119-.4c0-.2.4-.5.9-.7l1.4-1.1c.6-.8 1-.7.6.1-.3.6-2 2-2.5 2l-.3-.3zm52.6 0c0-.3.8-1 1-.7.2.1-.4 1-.8 1a.2.2 0 0 1-.2-.3zm63.8 0c-.4-.5-.4-.8 0-.8.2 0 .5.2.7.5.3.4.3.5 0 .5-.2 0-.5-.1-.7-.3zm70.5 0 1-2.1 1.3-2.6c.2-.6.7-.9.7-.3 0 .5-2.3 5.2-2.6 5.2l-.4-.1zM8 29.2c-.3-.3-.2-1.7 0-1.7s.3.4.3 1c0 .9 0 1-.3.7zm29.7-.2c0-.3.2-.4.6-.4.3 0 .6.2.6.4 0 .1-.3.3-.6.3-.4 0-.6 0-.6-.3zm60.6-.5c0-1.2.4-1.7.8-1 .2.4.2.7-.2 1.2-.5.9-.6.8-.6-.2zm5.8 0c-.8-.9-1.2-1.7-1-2 .3-.2 2 1.9 2 2.4 0 .6 0 .6-1-.4zm14.5.1c-.6-1.2-1-3-.9-3.8.3-1.2.6-.9.8.8 0 .9.3 2 .6 2.7.5.8.5 1 .2 1-.2 0-.5-.3-.7-.7zm33.4.5.3-.3c.4 0 .3.4 0 .5-.2 0-.3 0-.3-.2zm-75-.9-.3-1.3.1-.4c.3 0 .9 1.5.9 2.3 0 .7-.5.3-.6-.6zm72.4.6c0-.1.1-.2.4-.2.2 0 .4 0 .4.2s-.2.3-.4.3c-.3 0-.4-.1-.4-.3zm47.4 0-.3-.5c0-.4.7-.3.9 0 .3.5-.3.8-.6.5zm-150.2-.4L46 28l.7.2 2 .4 1.3.2h-1.5c-1 0-1.6-.1-2-.4zm27.5.2.1-1c.3-.6.2-.8-.1-1-.5-.2-.5-1 0-1 .2 0 .4.3.4.6l.2.6c.3.2.1 1.5-.2 1.9H74zm4.5-.3c0-.3 0-1.6.2-2.8l.2-4.7c0-1.5 0-2.3.2-2.1.3.3.9 3.2.7 3.5l-.4 2.5a19 19 0 0 1-.4 2.7c-.3.9 1-.9 1.7-2.1a614.6 614.6 0 0 0 1.5-3.6c.2-1.2.8-1.4.6-.2a22 22 0 0 1-3.9 7.3c-.1 0-.3-.2-.4-.5zm51.7.3c0-.2.1-.3.3-.3.1 0 .2.1.2.3 0 .1 0 .2-.2.2a.3.3 0 0 1-.3-.2zm72.5 0c0-.5 2-3.7 2.2-3.7.4 0 .2.5-.8 2.2-1 1.6-1.4 2.1-1.4 1.4zM107 28c0-.8.7-2 1.1-2 .3 0 .5-.1.5-.4 0-.6 1.2-2.1 1.5-1.9 0 .1 0 .6-.3 1a8 8 0 0 0-.8 1.5c-.2.5-.4.8-.7.7-.3 0-.5.1-.5.3 0 .2-.2.6-.4.7-.2.2-.4.3-.4.1zm32.6-1-1.3-1.4-2.7-.1a14 14 0 0 1-3.1-.4c-.3-.2.4-.3 2.3-.1l2.7.1-.1-.5-.3-1c-.2-.2-.1-.4 0-.4.2 0 .4 0 .4.2 0 .3 1 1.5 2.7 3.2.7.7 1.1 1.4 1 1.5-.2 0-.9-.5-1.6-1.2zm7.6 1c0-.2.3-.3.6-.3s.5 0 .5.2-.2.3-.5.3-.6-.1-.6-.3zm-131.1-.3c0-.2.7-.7 1.5-1.1.8-.5 1.7-1.3 2-1.8 1-1.5 1.4-2 1.8-1.7.2.2 0 .5-.5 1-.3.3-.7.8-.7 1 0 .5-1.3 1.6-2.6 2.3-1.1.6-1.7.7-1.5.3zm47.3-.3c0-.3 0-.5.2-.5s.3.2.3.5-.1.5-.3.5c-.1 0-.2-.2-.2-.5zm2.6-.2c0-.5.1-.8.3-.8.1 0 .2.2.2.6 0 .4 0 .7-.2.8-.2.1-.3-.2-.3-.6zm14.7.3c-.1-.4.2-.9.7-.9.3 0 2-3.9 2.4-5.3.4-2 .5-2 1-1.2.2.5.2.8 0 1l-.5.7c-.3.5-.2.6 0 .6.6 0 .6.5.1 1.6-.2.5-.5.9-.8.9-.3 0-.8.6-1.4 1.5-1 1.6-1.2 1.8-1.5 1.1zm-59.4 0c0-.2.1-.4.3-.4l.2.3c0 .2 0 .3-.2.3a.3.3 0 0 1-.3-.3zm-8.9-.4c0-.1 0-.2.3-.2l.5.2c.1.2 0 .3-.2.3s-.5-.1-.6-.3zm12 0c-.3-.4 0-.6.4-.3.2.2.2.3 0 .5-.2 0-.4 0-.5-.2zm122 .2c-.4-.4.1-.7 1.3-.7.6 0 1.1.1 1.1.3 0 .1-.2.2-.6.2l-1.1.2h-.7zm-17.2-.4c-.9-.5-.5-2 .6-2.5.4-.2.8-.7 1-1.2.5-1 1-1.1.7-.2l-.1 1c0 .3-.2.5-.5.5-.2 0-.7.3-1 .6l-.6.5.4.8c.4.8.3 1-.5.5zm2.4 0c.5-.4.8-.4.8 0 0 .1-.2.2-.6.2-.5 0-.5 0-.2-.2zm-105.4-.3-.6-.2c-.6.1-.7-.3-.2-1l.4-.5.7.8.6 1c0 .3-.7.2-1 0zm7.2-.4-1-.6.5-.1c.5-.1.6-.3.4-1-.1-.9 0-1 .4-1.3.8-.4 1-.2.5.5-.3.5-.2.7.3 1.7l.6 1.3c0 .3-.7.2-1.7-.5zm71 0c-.5-1-1.3-3.9-1.2-4.1.3-.4.7 0 .7.7 0 .3.2 1.1.5 1.8.6 1.4.6 2.6 0 1.6zm16.8 0c-.2-.4 1-3.3 1.4-3.3.4 0 .4 0-.2 1.2-.3.6-.6 1.3-.6 1.6 0 .7-.4 1.1-.6.5zm-98-.1c0-.2.2-.6.6-1l.6-.6.2.4c0 .3 0 .7-.3 1-.5.5-1.1.6-1.1.2zm78.3-.9c-.5-.7-.7-1.1-.5-1.2.5-.2 2 2 1.6 2.2-.1 0-.6-.4-1.1-1zM.9 25.2c0-.6-.1-1-.4-1.1-.5-.3-.5-1 .1-1 .7 0 .8.3 1 1.8.2 1 .1 1.2-.2 1.2-.4 0-.5-.3-.5-1zm14.3.7c0-.2 1.1-1.1 1.4-1.1.2 0 .1.1 0 .4-.5.4-1.4 1-1.4.7zm91.6-.1c0-.6 1.6-3.6 1.8-3.2 0 .2-.1.7-.4 1.2l-.4 1.2-.5.7c-.4.4-.5.4-.5 0zm-58.5-.4c-.4-.2-1-.6-1.2-1-.5-.8-.5-1-.1-1l.2.3c0 .3 1.2 1.4 1.8 1.6.3.1.3.2.2.3-.1.1-.6 0-1-.2zm17 0c-.4-.4-.6-.7-.5-.8.2-.3 1.5.4 1.5.9 0 .4-.3.4-1-.2zm120.7.2c-.7-.3-1.4-1.1-1-1.1.5 0 2.2.9 2.2 1.1 0 .3-.5.3-1.2 0zm22.1 0 .9-1.9c.5-1 1-2 1-2.3.1-.4.3-.6.4-.5.4.2 0 1.5-1 3.6-.7 1.1-1.3 1.7-1.3 1.1zm-60.9-.6c0-.6.8-1 1.1-.5.1.2 0 .5-.2.7-.6.5-.9.4-.9-.2zm-133 0c-.2-.6.4-1.3.8-.9.1.2 0 .5-.2.8l-.3.5zm46.5.1.4-1c.3-.5.4-1 .3-2-.2-1.5-.5-1.8-1-1.2l-.5.4c-.4 0-.2-.7.3-1.2.3-.3.7-.8.8-1.2l.3-.6.3.6c.1.3.5.6.8.6.4 0 1.2.4 2 1l-.2.4-.4.4-.6-.5c-1-1-1.4-.4-1.2 1.4 0 1 0 1.6-.3 2.3-.4.7-1 1.1-1 .6zm-39.4-.3c0-.2.2-.3.5-.3s.6.1.6.3l-.6.2c-.3 0-.5 0-.5-.2zm119-.2-.8-.8c-.5-.5-.6-1.4-.2-1.4l.4.6c.1.4.5.9.8 1 .7.5.9 1 .4 1l-.6-.4zm71-1c.4-1.7.8-2 .8-.4 0 1.2-.2 1.8-.7 1.8-.2 0-.2-.3 0-1.4zm-202.8 1c-.1-.2 0-.4.1-.5.3-.2.8 0 .8.4 0 .3-.7.3-1 0zm2.8-.4c-.3-.5-.2-1.2.3-1.4.3 0 .4.2.4 1 0 1-.2 1.2-.7.4zm-4.8 0c0-.2.6-.5 1.1-.5.2 0 .1.2 0 .4-.4.4-1.1.5-1.1.2zm16.8-.4c-.5-.5-.5-.6 0-.6.6 0 1 .7.7.9-.2 0-.5 0-.7-.3zm83 0c0-.5 1.3-3.3 1.6-3.3.3 0 .2.5-.6 2.2-.8 1.6-1 1.8-1 1.1zm79.5-.2c-.4-.5-.6-1.2-.4-1.2.1 0 .5.4.9 1 .7 1 .3 1.2-.5.2zm-167.5.2c-.3-.3-.2-.9 0-.9s.5.2.6.5c.2.5.2.6 0 .6l-.6-.2zm68 0c-.3-.5-.1-2.6.2-3 .1-.1.4-.3.7-.3.7 0 .7.9 0 2.3-.5 1.2-.7 1.3-1 1zm-77-.5c-.5-.7 0-.8.7-.2.5.5.5.6.1.6l-.7-.4zm64.7-.7c-.7-1.3-1.2-1.7-3-2l-1.3-.1.1-2c.2-1.7.2-2-.2-2.5-.3-.3-.7-.5-1-.5-.2 0-.5-.2-.5-.4 0-.6 1-.5 1.6.3.5.5.7 1.2 1 2.7.1 1.5.3 2 .6 2 2 .3 2.4.5 2.8 1.3.5.9.9.8 1.4-.2.2-.5.4-.6.6-.4.4.3-.1 1.6-1 2.4l-.6.6zm59.1 1c-.3-.4-.1-.6.4-.5.4.1.5 0 .5-.4 0-.7.5-.8.7-.2.3.8-1 1.6-1.6 1zm16.1-.2c-.2-.3.1-.8.5-.8.2 0 .6-.2.9-.5.4-.5 1.7-1.3 2-1.3.4 0-.7 1.3-1.3 1.6a3 3 0 0 0-1 .8c-.5.6-.8.6-1 .2zm27.1 0-.1-1c-.1-.4 0-.5.2-.5.4 0 .5.2.5.9 0 .5-.1 1-.3 1-.1 0-.3-.2-.3-.4zM96.2 23l.4-1.3c.4-.6.4-.9.2-1.7-.4-1.3-.5-3-.1-3 .2 0 .6 2 .6 3.4 0 .7-.6 2.5-1 2.8l-.1-.2zm2.6-.7c-.5-1.4.3-4.3 1.5-5.3.7-.6.7-.1 0 .6-1 1-1.2 3.5-.6 5 .2.3.1.5-.2.5-.2 0-.5-.4-.7-.8zm5.4.2c-.2-.6 0-1.7.3-1.7.4 0 .5 1.1.2 1.7l-.3.4zm54.9.1c-.3 0-.5-.2-.5-.3 0-.3 1.6-.5 1.9-.2.1.2.4 0 .8-.7.2-.5 1-1.3 1.6-1.7l1-1 1.2.3c.8 0 1.2 0 1.4-.3.5-.5.9-.5.9 0 0 .2-.4.6-.7 1-.6.3-.8.4-1.3.2-.8-.5-3 .6-3.6 2-.5.8-.7 1-1.4.9l-1.3-.2zm28.4-.3c-.4-.6-.4-.8 0-.8 0 0 .3.3.4.7.4.7 0 .9-.4.1zm-43.2-.3c0-.6.6-.6.8.1 0 .3-.1.4-.4.4-.2 0-.4-.2-.4-.5zM17.2 22c-.1-.3-.4-.4-.7-.3-.6.2-.7-.3-.2-.9.3-.2.5-.1 1 .3.6.6.8 1.3.3 1.3-.2 0-.4-.2-.4-.4zm14.4.1a525.7 525.7 0 0 0-6-2c.1-.1.9 0 1.7.3l3.6 1c1.2.1 2.2.5 2.2.7.2.3-.5.4-1.5 0zm111 .1c-.2-.3-.2-1.1.1-1.1.3 0 .6.6.6 1 0 .3-.4.4-.6.1zm-135-.4-.3-.5c0-.3.7 0 .9.4.2.5-.2.5-.6.1zm4.7 0s.1-.2.3-.2c.1 0 .2.1.2.3 0 .1 0 .2-.2.2a.3.3 0 0 1-.3-.2zm2.4-.2c-.5-.4-.6-.5-.2-.5.2 0 .6.2.7.5.4.6.3.6-.5 0zm20.4.2c0-.2.4-.4.6-.4.5-.1.5 0 .2.3-.4.5-1 .6-.8 0zm97.6-.1c0-.6 1.9-2 2.3-1.8.3 0 .6.2.8.3.2 0 .4-.2.6-.5l.2-.6.7.7c.7.7 1 1.5.4 1.1a7 7 0 0 0-2-.3h-1.6l-.7.7-.7.4zm68.2-.2c0-.3.3-.4.5-.4s.3.1.2.4c-.1.2-.3.4-.5.4s-.3-.2-.2-.4zm2.7 0c0-.3.1-.5.3-.6.3-.2 0-2.2-.5-3-.5-.8-.2-1 .6-.3.5.5.6.8.5 1.2-.1.8.5 1.9 1 1.8 1-.2.4.3-.7.8-1 .3-1.2.3-1.2 0zm-49.3-.4-.4-.5.7-.2c.9-.2 1.2.2.6.7l-.4.5zm4.7-.2c-.3-.4-.6-.6-1.2-.7h-.9l.6-.3c.4-.2.7-.1 1.4.3.5.3 1 .7 1 1 .1.6-.4.5-.9-.3zm-66.3 0c-.4-.5-.2-2.7.4-3.8.7-1.2.7-.9.3 1-.4 1.4-.4 1.8 0 2.8.2.5-.2.6-.7 0zm48.5.1c0-.1.3-.4.5-.4s.3 0 .2.2c0 .2-.3.4-.5.5-.2 0-.3 0-.2-.3zM37.4 21c-.3-.2 0-.6.3-.6.2 0 .3.1.3.4 0 .4-.3.5-.6.2zm1.5 0 .1-.5h.3l.8-.5c.4-.4.9-.7 1-.6 0 .1 0 .4-.3.6-.2.1-.4.4-.4.6 0 .2-.2.3-.3.3l-.6.1h-.6zm100-.1c-.2-.3 0-.8.4-.8.2 0 .3.2.3.5 0 .6-.4.7-.7.3zm37-.3c0-.3.2-.6.4-.7.2 0 .3 0 .3.5 0 .3-.3.6-.5.7-.2 0-.3 0-.2-.5zm-108.5 0c-.2-.3.4-.8 1-.7.5.1.4.5-.2.8l-.8-.1zm130.8-1c0-.9 0-1.2.3-1.2.7.3.7 2 0 2.3-.2 0-.3-.3-.3-1.1zM5.7 20c0-.2.1-.4.3-.4l.2.4c0 .3-.1.4-.2.4-.2 0-.3-.1-.3-.4zm111-.2-.8-.6.4-.9.3-.9-.6-.5c-.4-.3-1-.5-1.5-.4-2.1 0-2.4 0-2.8-.7-.2-.5-.7-.9-1.2-1l-1-.4h.8c.4 0 1.3.2 2 .6.7.4 1.7.7 2.2.7a4 4 0 0 1 1.8.5l.8.6V18l-.2 1.2.8.2c.4.2.7.4.6.6-.1.5-.8.4-1.6-.2zm30.2-.1c.4-.3.6-.7.5-.8-.1-.2.2-.3 1-.3l1.6-.2c.3-.1.5 0 .4.2-.1.3-3.2 1.6-3.8 1.6-.2 0 0-.3.3-.5zm25.5 0c-.3-.2-.3-.4 0-.6.1-.3.3-.2.4 0 .3.8 0 1.2-.4.7zm-107.6-.3c.1-.2.6-.3 1.1-.3.5 0 1 .1 1 .3l-1.2.2c-.6 0-1 0-.9-.2zm108.8-.2a24 24 0 0 0 1.5-6.9c0-1.2.2-2.3.3-2.4.2-.2.5 1.1.3 2.3l.1 1.2c.4.2 1.5-2.3 1.8-3.7 0-.7.2-1.1.4-1 .1 0 .2.6.1 1.2-.1 1-.5 1.8-2 4.6l-1 2.2c-.2 1.2-1 3-1.4 3-.2 0-.2-.3-.1-.5zm-97.5 0c0-.4.6-1.7.8-1.7.5 0 .5.6.1 1.2s-1 .9-1 .5zm-34.6-.5c-.1-.3-.5-.4-1.5-.4s-1.5-.1-1.8-.4c-.1-.2-1-.7-1.7-1.2-1.4-.8-1.8-1.3-1-1.3l.6-.1c.2 0 .4.3.6.6.4.8 2.2 1.4 3.3 1.2.6 0 1 0 1.5.4l.8.5 1.6-1c.9-.7 1.7-1 2.1-1 .6 0 .7 0 .5.2-.2.2-.3.6-.3 1 0 .7-.3 1.4-.6 1.4-.2 0-.2-.3-.1-.8.1-.8-.2-1.1-.5-.4 0 .2-.3.4-.5.4-.3 0-1 .3-1.5.6-1.2.8-1.3.8-1.5.3zm47.6-.5c-.4-1-.4-1.2-.1-1.2l.6 1c.3.8.4 1.1.1 1.1-.2 0-.4-.4-.6-.9zm29 .4c0-.6 1.3-1.9 1.8-1.9.6 0 .6.6 0 1.2-.4.4-.7.8-.7 1 0 0-.2.2-.5.2-.4 0-.6-.2-.6-.5zm58.4-.3c-.1-.1 0-.4.4-.5.4-.2.5-.2.5 0 0 .5-.7.9-1 .5zM3.3 18c0-.2.1-.3.3-.3 0 0 .3-.3.4-.8.2-1.1.6-1 .6.3v1h-.7c-.3 0-.6 0-.6-.2zm165.4 0c.1-.3.3-.4.5-.4s.4.1.5.3c0 .2-.2.3-.5.3s-.5 0-.5-.3zm3.6-.3c-.6-.3-1-1.2-.8-1.4.2 0 .6.2 1 .6.7.8.6 1.2-.2.8zm-112.2-.2c-.1-.2-.6-.5-1.2-.8-1.1-.6-.7-.7.6-.2.5.2 1 .6 1 .8 0 .5-.2.5-.4.2zm86.4 0c-.5-.2-.4-.5.3-.6.3 0 .6-.3.7-.5 0-.3-.3-.3-1.8-.2h-1.9c0-.2.5-.3 1.1-.3.6 0 1.6-.1 2.1-.3.8-.2 1-.1 1.4.3l.5.5-.5.6c-.4.7-1 .9-1.9.5zm33.2 0h.5c.1.1 0 .2-.3.2s-.4 0-.2-.2zM42 17c0-.7.9-3 1.1-3 .4 0 .3.7-.2 2.1-.4 1.2-.9 1.7-.9 1zm139.3.2-.5-.8c0-.4-.4-.6-.7-.6-.6 0-1-.7-.5-1.4l.3-1.2c0-.7.6-1.6 1-1.4l-.4 1.7c-.3 1.2-.4 1.6-.1 1.8.2.3.4.2.7-.2l.4-.5-.2.8c0 .7 0 1 .3 1 .2.1.4.4.4.6 0 .4-.2.5-.7.2zm-134.5-.3c0-.3 1.1-1.7 1.2-1.6.3.3-.5 1.8-.9 1.8-.2 0-.3 0-.3-.2zm5.3 0c-.2-1.1-.1-2 .1-2 .4 0 .5 1.7.2 2-.2.2-.3.2-.3 0zm1.4-.5v-.8h2c2.2 0 2.6.6.4.6s-2.2 0-2 .5c0 .2 0 .4-.2.4s-.3-.3-.2-.7zm68 .4c-.2-.4.7-1 1-1 .2.1.4.3.4.5 0 .5-1.2.9-1.4.5zm9-.1v-.2c.2.2.2.4 0 .5v-.3zm1.6 0-.7-.5c-.3 0-.4-.3-.3-.5 0-.1 0-.5-.2-.9-.4-.7 0-1.9.6-2.3.7-.4 1 0 .4.6s-.3 2 .4 2.9c.4.4.5.6.3.9-.2.2-.3.1-.5-.1zm-4.7 0c-2.8-.2-3.3-.7-1-1 1.4-.2 2.8 0 2.8.6 0 .4-.1.5-1.8.3zm25.1-.1c0-.2.4-.3.7-.3.3 0 .4.1.4.3l-.7.2c-.3 0-.5 0-.4-.2zm-76.2-1c-.2-.6-.6-1.2-.8-1.3-.5-.1-.5-.6 0-.6s1.4 1 1.6 2c.3 1.2-.3 1.1-.8-.2zm96.1-.1c-1.2-1.6-1.4-1.9-1-1.8.5 0 2.2 2.3 2 2.7l-1-1zm5.9.7c0-.3.1-.4.3-.4.1 0 .2.1.2.4 0 .2 0 .4-.2.4s-.3-.2-.3-.4zm-20.5-.2-1.7-.2c-2.4 0-3.5-.8-1.2-.8 1.4 0 3.8.5 3.8.8 0 .3-.3.4-1 .2zm-118-.3c-.9-.2-1.4-.6-1.1-.9l.6.1 1.2.5c.4 0 .7.2.7.4 0 .3-.3.3-1.5 0zm9.2 0c-.2-.7.4-1.2 1.6-1.4 1.1-.2 1.3.3.2.5-.4.1-.9.5-1.1.8l-.5.6zm-16-.2c-.6-.3-.6-1-.1-1 .4 0 1.3.9 1 1-.2.3-.4.3-1 0zm165.4-.1c0-.5 1-1 1.2-.7.2.4-.3 1-.8 1-.2 0-.4-.1-.4-.3zm-112.6-.5c-.9-.2-1.5-1.1-1.4-2 .1-.3.3-.2.9.7.7 1 1.3 1.2 2 .4.4-.4 1.8-.5 2.8 0l.7.2-.5.4c-.4.3-.6.3-1 0-.5-.5-.6-.5-1.8 0-.6.4-1 .5-1.7.3zM104 14c-.5-1.2-1.5-1.6-3-1.1l-1.3.5c-.2.2-1 .3-1.8.2l-3.9.1c-2.4 0-2.7-.1-1-.6 1-.3 1.6-.3 4.3-.3 1.1 0 2 0 2.6-.3 1.6-.9 4-.4 4.7 1 .3.5.5.6 1 .5.8-.2 1 .3.4.7-1 .5-1.5.3-2-.7zm39.3.7c-.5-.6-.3-1 .4-1.2.8-.2 1.5.3.8.6-.3.1-.4.2-.1.5.2.3.2.4-.2.4l-.9-.3zm18.1 0-1-.2h1.6c1 0 1.6 0 1.6.2 0 .3-.6.3-2.2 0zM.1 14.3c0-.5.4-.7 1.2-.4.9.3.7.8-.4.8-.5 0-.8-.1-.8-.4zm37 .2-.2-.5c0-.3 0-.4.4 0 .2.1.4.3.4.5 0 .3-.4.3-.6 0zm-3.4-1c-1-1-1-1.4 0-.5l1.1.7c.1 0 .3 0 .3.2 0 .5-.7.3-1.4-.5zm31.8.4c0-.1.1-.2.3-.2.1 0 .2 0 .2.2s-.1.3-.2.3a.3.3 0 0 1-.3-.3zm137.3-.3.8-1.2c.4-.5.8-1.1.8-1.4 0-.3.1-.5.3-.5.4 0 .2 1-.5 2-.6 1.1-1.4 1.7-1.4 1.1zm-172-.2c-.2-.1-.2-.3 0-.4.3-.2.8 0 .8.4 0 .3-.3.3-.7 0zm131.3 0c-.6-.2-.4-.2.7-.3.7 0 1.4.1 1.5.3.2.3-1.3.3-2.2 0zm21.3 0c-.3-.4 2.1-1.7 2.7-1.5.4.2.3.3-.3.4a6 6 0 0 0-1.5.8c-.4.3-.8.5-1 .3zM168 13c0-.3.2-.4.5-.4.6.2.5.6 0 .7-.3 0-.5 0-.5-.3zm-103.4-.1c0-.2.2-.3.4-.3s.4.1.4.3l-.4.2-.4-.2zm-36.4-1c-.5-.4-.9-.9-.7-1 .1 0 .2-.5.1-.9 0-.4.1-1 .3-1.2l.4-.6V9c0 1.2.4 1.8.8 1.8.3 0 .7.2.8.4.3.4.3.4-.2.4-.6 0-.8.4-.3.7.3.2.4.7 0 .7l-1.2-1zm26.6.3c-.5-.6-.1-.8.7-.4.5.3.8.3 1.3 0a14 14 0 0 1 5.5 0v.3a149.5 149.5 0 0 1-7.5.1zm57.5.2a39 39 0 0 1 11-2.7c0 .2-.9.5-1.8.7a74.2 74.2 0 0 0-9.2 2zm31.3 0c-.3-.5 1-1.7 2-1.7.4 0 .8.2.9.3 0 .2-.2.3-.6.3-.8 0-1.7.5-1.7 1 0 .4-.4.4-.6 0zm-62.6-1c-1.8-1.2-3.6-1.8-4.8-1.6-1.7.3-3.9-.1-4.8-1-.9-.6-4.1-2.3-6.3-3-1-.5-1.7-1.1-1-1.1.4 0 3 1.1 4.1 1.9.6.4 1.5.7 1.9.7.5 0 1.2.3 1.9 1l1.1 1h2.6c1.7 0 3 .2 3.9.5 1.2.4 1.5.5 2.4.2l3.2-.7A138.9 138.9 0 0 0 92 8.2s0 .2-.2.3c-.5 0-6.5 1.4-8 1.7-1.4.3-1.8.7-1.2 1.2.5.3.6 1 .2 1a9 9 0 0 1-1.6-1zm50.5.3c0-.2.6-.8 1.3-1.4 2.5-2.1 7.2-4 8.8-3.6.6 0 .8 0 1-.3 0-.3.6-.7 1.2-1 1.2-.6 2-.5 4 .6l1 .5-.7.3-.7.3-.5-.5c-.8-1-1.5-1.2-2.6-.6l-1.5 1c-.2.2-.7.3-1.2.2-1-.2-4.5.8-4.5 1.3 0 .3-.3.4-.8.4-.7 0-1.1.2-1.8 1-.6.6-1.2 1.1-1.5 1.1-.2 0-.6.2-.7.5-.4.6-.8.7-.8.2zm34.4-.2c-1.2-.6-3.6-3-3.3-3.3.1-.2 2 1.3 2.4 2l1.4.8c.6.3 1 .7 1 .8-.2.3 0 .4-1.5-.3zm-5.6-.2c-1-.2-1.4-.5-1.2-.7.1-.1.6 0 1 .1.5.2 1.4.3 2 .3.7 0 1.2.1 1.2.3 0 .3-1.5.3-3 0zm-57.3-.2h.8l-.4.1c-.5 0-.6 0-.4-.1zm69 0c-.2-.3.8-2.5 1-2.5.5 0 .4.9-.2 1.8-.5.9-.7 1-.9.7zm9.6-.4c0-.5.3-.6.9-.7l.8-.1-.7.7c-.8.8-1.1.9-1 0zm-77 .2 2-.4 2.2-.4a27 27 0 0 1 8.4-.3c0 .2-.6.3-2 .2-1.3 0-3.5.1-6 .5-4 .5-4.8.6-4.6.4zm-79-1c-.6-.5-.7-.7-.4-.7.4 0 .5-.3.5-.7 0-1 .3-.8.8.2.4 1 .5 2 .2 2 0 0-.6-.3-1-.8zm122.4.3c0-.3.5-.4.5 0 0 0-.1.2-.3.2-.2 0-.3 0-.2-.2zM52.7 10h.5c.1.1 0 .2-.3.2s-.4 0-.2-.2zM61.5 9c-1.2-1.1-1.3-1.3-.6-.9 1.3.7 3 2.2 2.5 2.2a6 6 0 0 1-1.9-1.3zm124 1c-.1-.1 0-.2.2-.2.3 0 .4.1.4.2 0 .2 0 .3-.2.3s-.3-.1-.4-.3zm-58.6-.5c0-.3 6-.6 6.4-.3.2.2.2.3 0 .3a529.5 529.5 0 0 0-6.4 0zm-74.6-.6c-.4-1-.4-1 .2-.7.6.3.7 1 .3 1.2-.2 0-.4-.2-.5-.5zm-9.7.1c0-.1 0-.4.2-.5.5-.4.9 0 .6.5-.2.3-.6.3-.8 0zm-6.1-1.1-.5-.5h.7l1.1-.1c.5-.2 1.8.4 1.5.7l-1.2.3c-1 0-1.3 0-1.6-.4zm7.8.2c.4-.5 1.3-.6 1.3-.2 0 .3-.6.6-1.2.6-.3 0-.3-.1 0-.4zM94 7.7c.4-.3.8-.4.9-.3.2.2 0 .3-.9.5l-.8.2zm-60.3-.2c-.2-.3-.2-.3.9-.7.9-.3 1.4-.2 1.4.3 0 .1-.2.2-.3 0l-1 .3c-.6.3-.9.3-1 .1zm15.3.1c-.3 0-.6-.2-.6-.3 0-.4 1.5-.3 1.8.1.4.5.1.5-1.2.2zM29 7.3c-.3-.4 0-.7.4-.3.2.1.2.3 0 .4-.1.1-.3 0-.4-.1zm66.7 0c0-.1.5-.3 1-.2h.8l-.6.2c-1 .3-1.4.3-1.2 0zm53.5-.4c0-.4 0-.7.3-.7.6-.2.8 0 .8.7 0 1-1 .9-1.1 0zm34.5 0a1 1 0 0 1-.2-.8l.2-.5.5.6c.3.3.5.6.4.8-.2.4-.6.4-1 0zm33.7-.2c-.5-.7-.3-1.5.3-1.5l.6.8c.4 1.3-.2 1.8-1 .7zm-197.7 0c-.3-.2-.4-.5-.3-.6.1-.1.4 0 .7.2.5.6.3.8-.4.4zm34-.8c-.7-.4-1.3-.8-1.2-.9a24.9 24.9 0 0 0 2 .9c.6.2 1.1.5 1.1.6 0 .4-.3.3-1.8-.6zm45.3.7c.2-.2 1.3-.4 2.4-.6l3.4-.7c1.2-.4 2-.4 1.6 0A56.3 56.3 0 0 1 99 6.6zm52.1-.2c0-.5.7-.9 1-.6.2.2-.4 1-.8 1l-.2-.4zM26.8 6a7.5 7.5 0 0 0-4-1.3h-1.4c-1-.3-.3-.7 1.4-.7 2.5 0 4.6.9 4.8 2 .1.5-.2.5-.8 0zM182 5.4c-.2-.4.5-1 .8-.8.3.3 0 1.1-.3 1.1-.2 0-.4-.1-.5-.3zM152.2 5c-.4-.3-.2-.6.3-.6l.6.2c0 .3-.7.6-1 .4zm25.9-.1c-.3-.4 0-1.6.4-1.6l.4.5c0 .3.4.6.7.7.3 0 .4.2.3.4-.2.4-1.6.4-1.8 0zm36.9-.1c-.3-.3-.3-.4.1-.6.5-.2 1 .3.8.7-.2.4-.5.4-1-.1zM19.6 4.7c-.1-.2 0-.3.2-.3.3 0 .4.1.4.3 0 .1 0 .2-.2.2l-.4-.2zm31.1 0-.3-.3c0-.4.9-.3 1.5.1l.5.4h-.7c-.3 0-.8 0-1-.2zm10 0c-.5-.2-.3-.6.4-.6.9 0 2.3.3 2.3.5s-2.1.3-2.6.1zm47.5 0 2.6-.6c2.1-.3 3.2-.2 2 .2-.8.4-5.3.7-4.6.4zm49.4-.3-.7-.6-.9.5c-.8.4-1.9.3-1.9-.2 0-.2 1.4-.5 2.8-.5 1.2 0 3 .6 3 1 0 .5-1.7.3-2.3-.2zm26.7.1c0-.5 1-1.2 1.4-.9.2.2 0 .4-.3.8-.7.6-1.1.7-1.1.1zm12 0c-.4-.6-.5-1.4-.1-1.4 0 0 .4.3.6.7.6.8.2 1.4-.4.6zm-35.7-.6c-.2-.3.9-1.1 1.4-1.1.1 0 .3-.2.4-.5 0-.4.4-.6.7-.6.7 0 .6.5-.1 1a9 9 0 0 0-1.1.8c-.8.7-1 .8-1.3.4zm48.3-.5c-.3-.8-.1-1.7.3-1.6.4.1.6 2.3.2 2.3-.1 0-.4-.3-.5-.7zm4.5.5c0-.2.1-.3.3-.3.1 0 .2.1.2.3l-.2.2a.3.3 0 0 1-.3-.2zm-1.4-.3c-.1-.1 0-.3 0-.4.5-.3.7 0 .4.4-.2.2-.3.2-.4 0zM58.2 3.2l-.8-.4h1c.4.1.9.3 1 .5 0 .4-.2.4-1.2-.1zm140.1-.4c0-.5.9-1.3 1.4-1.3.3 0 .2.9-.2 1.4-.4.6-1.2.6-1.2 0zm-10.8 0c.3-1.1 5-2 5.2-1 0 .4 0 .4-1 .3-.5 0-1.4 0-2.1.3-2 .8-2.2.8-2.1.4zM54.4 2.5c0-.1 0-.2.2-.2s.3 0 .3.2-.1.3-.3.3a.3.3 0 0 1-.2-.3zm120.5-.2c-.7-.3-1-.7-.7-1 .4-.2 2.2.7 2 1-.2.3-.6.3-1.3 0zM164.6 2c-.3-.4-.1-.5 1.2-.9.7-.1 1.8-.5 2.4-.8 1.2-.6 1.8-.5 1.8.3 0 .5-.7.7-2.6.5-.6 0-1.2.2-1.7.5-.8.6-.8.6-1 .4zm18.1-.6c0-.2.1-.3.2-.3.2 0 .4.1.5.3 0 .1 0 .2-.3.2-.2 0-.4 0-.4-.2zM171 1.3c-.3-.3-.2-.6.2-.6l.4.2c0 .4-.4.6-.6.4zm33.2-.4c-.2-.2-.3-.5-.2-.6.5-.4 3 .1 3 .7 0 .4-2.5.2-2.8-.1z"/>
</svg>
