<?xml version="1.0" encoding="utf-8"?>
<svg xmlns="http://www.w3.org/2000/svg" xmlns:svg="http://www.w3.org/2000/svg" version="1.1" viewBox="0 0 162 136">
	<title>Mr. Tod walks towards the sleeping Tommy Brock, holding a bucket of water behind his back.</title>
	<path d="m139.4 135.4-8.1-.2c-4.4 0-8.7-.2-9.6-.3a848.9 848.9 0 0 1-43.6-.5 330.5 330.5 0 0 0-24 0h-4.3l-19.1-.1a749.2 749.2 0 0 1-27-.3c-.7.2-2.3-.7-2.7-1.6-.5-.9-.9-4.2-1-8.3a1084.5 1084.5 0 0 0 .4-47A138685 138685 0 0 1 .2 6.9V2.6C.3.3.7-.2 2.5.1c1.4.2 19 .2 46.7.1h24.4a1230 1230 0 0 0 59.6 0l6.3.3A73.5 73.5 0 0 1 154.6 2c3.8.5 4.5.7 5.3 1.5.7.7.8 1 .8 2.3 0 1 .2 1.8.4 2.1.3.5.3 5.8 0 25.7l-.1 9.1c0 2.6 0 2.7-.6 2.7h-.6l.6.5.5.4v29.9a111.5 111.5 0 0 1-.6 15.6 1553.6 1553.6 0 0 0-.7 37.4c-.2 2.6-.4 3.3-1 4.2-1.2 2-1.8 2.1-11 2.1h-8.2zm9.3-3c3-1 3.7-1.4 4.7-3 .9-1.3.9-1.3 1-5.3.1-2.2.3-4.3.5-4.7l.4-3.6a1996.8 1996.8 0 0 0 1.3-29.8c.2-2.7 0-3-1-2.4a26.5 26.5 0 0 0-6.2 1.9 66.5 66.5 0 0 1-9.5 3.3c-.7 0-4.6 2.8-6.5 4.8-1.6 1.6-2.9 4-4.8 9-1.4 3.7-1.6 4.5-1 4.5.5 0 1.7-2 2.1-3.5.5-1.7.8-2.3 1.1-1.8.2.3.4.2.9-.4 1.2-1.5 1.3-.5 0 1.2-1.4 2-2.5 4.5-2.5 6 0 .7 0 .7.4 0l.4-1.6c0-.8.6-1.7.9-1.3 0 .1 0 1.4-.4 2.7a53 53 0 0 0-.8 5.7c-.2 2.5-.4 3.3-.8 3.9-.5.7-.5.9-.2 5l.3 4.3.1-3.4c0-2 0-4 .2-4.5.2-1 .3-1 .6-.6.2.3.3-.2.6-3 .4-4.4.5-5 1-5 .5.2 0 9.5-.6 10.3-.4.4-.4.7.1 2.7a113 113 0 0 0 2.2 7.5c.3 1.3.9 1.6.7.4a172.5 172.5 0 0 1-1.7-10.8c-.3-.4-.3-.5.2-1.2.3-.5.6-1.7.7-2.6.2-1.6.7-2.3 1-1.4.1.2 0 1.4-.2 2.7-.7 4-.7 4.7 0 5.2.6.4.7.4.6-1 0-.9.4-1.2.8-.4.3.5.4 6.2.2 7.9 0 .5 0 .6.6.6s.7 0 .8-1.5c0-1.3.2-1.7.6-1.7.4 0 .4.1.5 1.4 0 2.3.4-2.3.6-8 .2-5.3.4-7.6.7-8.8.2-.7.2-1 0-1.1-.7-.4-.8-.3-.9 1.8 0 1.7-.1 2-.5 2.1-.4.1-.5-.1-.5-2.3 0-3.1.3-3.8 1-3.8.5 0 .6 0 .5-.6a9.6 9.6 0 0 1 1.7-4.2c.5-.3.6.7 0 2-.7 1.5-.7 2.9-.1 3 .3.2.3.5.2 1.5a36.3 36.3 0 0 0-1 9.7c.2 1.7.6-.1.7-3 .2-3.3.6-6.2 1.2-8.3l.4-2.4c0-.7.3-1.3.9-2 .4-.6 1-1.3 1.1-1.7.6-1 3.2-4 4.4-4.9a37.4 37.4 0 0 0 6.1-5.7c1 0-.1 1.9-2.7 4.2l-2.4 2a38.8 38.8 0 0 0-5.2 7.2c0 .4-.1 1-.3 1.2-.8.8-1.6 3.8-1.7 5.5l-.4 4.4c-.2 1.5-.5 4-.5 5.4a80.1 80.1 0 0 1-.7 7.8c.1.6.2.6.6.3.3-.2.5-1.1.8-4 .4-4 .6-4.6 1-4.1a51 51 0 0 0-.7 8.9c0 1.7-.2 1.7 3.7 2l2.7-.7zm-5-1c-.3-.2-.2-1.2.3-2.2l.5-1v1.6c-.1 1.6-.4 2.1-.8 1.7zm-7.2-5-.2-3.3c0-2.5 0-2.8.4-2.8.3 0 .4.3.6 1.4.2 2 0 4.7-.4 4.9-.1 0-.3 0-.4-.3zm-1.5-7c0-.5.2-1 .4-1.4.3-.4.4-.4.5.1.3.8 0 2.2-.5 2.2-.2 0-.4-.3-.4-.9zm1.9-1.7c0-.6 0-1.2.2-1.2.4-.2.8.4.7 1-.3 1.5-1 1.6-1 .2zm-3.3-3.7c-.5-.4 0-3.3.6-3.5.3 0 .3.2.2 1.6-.2 1.7-.4 2.3-.8 2zm13.1-8.7c-.6-.2-.3-.6 1.3-1.8 1.1-.8 1.8-1.1 2-1 .5.6-2.5 3-3.3 2.8zm-10.7 27c.1-.4-.9-.5-1-.1-.2.2.3.5.7.4.1 0 .3-.2.3-.4zm1.9 0c0-.3 0-.4-.2-.3-.2 0-.4.3-.5.4 0 .2 0 .3.2.3s.4-.3.5-.5zm-32.8-.4c0-.3-.1-.5-.6-.5-.8 0-1 .3-.7.7.5.6 1.3.4 1.3-.2zm2.3.4c.6-.2.5-.6-.3-.6-.6 0-.8.2-.5.6.2.2.2.2.8 0zm3-.4-.6-.2c-.7 0-1 .4-.4.6.5.1 1 0 1-.4zm20.7-.7c-.2-.7-.2-.9.3-1.3.5-.5.4-1.2-.2-1.9-.2-.1-.4-1-.5-1.8l-.5-3c-.5-2.3-.8-.9-.4 2.2.2 2.3.2 3 0 3-.5.4-.2 2.1.5 3.3.6 1 1.1.7.8-.5zm-30.7.7c0-.1-.4-.2-1-.2-.5 0-.9 0-.9.2s.4.3 1 .3c.5 0 .9-.1.9-.3zm2.3 0c0-.1-.1-.2-.3-.2-.3 0-.4 0-.4.2s.1.3.4.3c.2 0 .3-.1.3-.3zm10.1 0c0-.1-.3-.2-.7-.2-.4 0-.6 0-.5.2.1.2.4.3.7.3.3 0 .5-.1.5-.3zm6.6-.1c0-.2 0-.4-.2-.4-.4 0-.6.4-.4.6.3.3.6.2.6-.2zm7.2.3c0-.4-1-2.6-1.1-2.6-.5 0-.3 2.1.2 2.4.5.3.9.4.9.2zm-80.8-.7c.6-.3.8-.7 2-4 .6-1.4 1.1-2.6 1.3-2.7.3-.5 1.5-4 1.4-4h-1l-1.8.5c-1.2.2-1.8 1-1.8 2.3 0 .7-.2 1-.6 1.3-.4.2-.4.4-.3 1 .1.8 0 .9-.4.8-.3 0-.4-.3-.4-.7 0-.5 0-.6-.4-.6-.9.1-1.1 0-1.1-.6 0-.4-1.2-2.5-1.4-2.6l-2-.4c-4.8-.9-5.2-1-5.2-1.6.1-.6.5-.5-6-2-1.2-.2-2.2-.4-2.3-.3-.2.2 2.3 1.5 4 2 1.2.3 2.4.7 2.6.9.2.2.8.5 1.4.6 1.9.6 2 .6 1 .9h-2l-3.7-.9c-3-.6-6-1.5-6.5-1.9-.2-.2-.2-.3 0-.5.5-.5.2-1-1-1.6-1.6-1-2-1-1.8.1l.7 5.7c.7 6 1 7.5 1.5 7.3.2 0 .3-.3.3-.5 0-.3.2-.4 1-.3h.5c-.7-.5-.6-1.2.2-1 1.7.5 1.6.5 1.6-.5 0-.8-.2-1-.9-1.5-1-.6-1-1.2-.2-.9 1.6.5 3.7 1 3.8.8l-.6-.3c-1.3-.3-3.3-1.4-3.4-1.9-.1-.2-.6-.8-1.2-1.3-.5-.4-.8-.9-.7-1 0 0 .8 0 1.6.3a2200 2200 0 0 1 11 2.4c1.1 0 1.7.4 1.5.8-.3.5-1.2.4-4-.1-2.1-.5-4.6-.4-3.6 0 1.2.5 4 1 6.2 1.2 1.8 0 2.6.2 2.6.4 0 .4-.8.7-1.9.7-.6 0-.6 0-.1.2.3.2 1.1.3 1.9.4.9.2 1.4.4 1.4.6 0 .2.2.4.4.5.3.1.4.2.2.4-.5.3-.7 1.3-.3 1.5 1 .6 5.5.7 6.5.1zm-15.3-8c-4.9-1.3-7.6-2.5-7-3a80.7 80.7 0 0 0 11 2.8c.3 0 .7.3.7.5.2.5-2.1.3-4.7-.3zm58.9 6.6c.2-2.3-.1-6-.5-6-.5 0-.6.3-.5 4.2 0 2.7.2 3.5.4 3.5.3 0 .5-.6.6-1.7zm27.4 1.4c0-.3-.3-.5-.6-.4-.3.2 0 .7.3.7.2 0 .3-.1.3-.3zm-52-1.2.3-6.8c.1-6 0-6.3-1-5.4-.3.2-.4 1-.5 4.1a233.3 233.3 0 0 1-.1 9c0 .2.4.3.7.2.4 0 .5-.3.6-1zm2.6-4c.3-9 .5-10.8 1-10.8.4 0 .5-.2.5-2.5a428.6 428.6 0 0 1 .3-16.6l.5-14.7c.6-14.8.6-16.5.1-16.7-.3-.1-.4-1.4-.4-8.1a77 77 0 0 0-.6-12.6c-.1-.2-1.6 1.3-2.1 2-.5.9-.6 1.8-.2 2.4.3.4.3.4.4-1.2 0-.6.1-.8.5-.8s.6-.2.6-.7c0-.4.3-.8.4-.8.2 0 .2 1 .1 2.8l-.3 6.6c-.1 4.3-.4 6-1.3 10.2a35 35 0 0 0-.6 10.6l.4 15.1-.1 7.8c-.3.4.4 3.6.8 4 .2.3.2-1 0-18.8 0-8.4.4-22.1.7-22.1.1 0 .2 6 .2 13.5a994.3 994.3 0 0 0 .1 26.4 53.8 53.8 0 0 1-.8 11.7 6 6 0 0 1-.7 2c-.8 1.4-.8 2-1 11.6l-.1 5 .7-.2h.7zm2.4 4 .4-6.3.5-6.7c.2-.7.3-5 .3-9.6 0-9.2.2-13.6.5-14.4.2-.3.3-6 .4-12.7.2-13.5.3-16.6.7-16.6.2 0 .3 2 .1 6.8l-.2 16.8c0 6.9-.2 10.1-.4 10.7-.2.5-.3 3-.3 8.5a183.6 183.6 0 0 1-1 21.9c0 2.7 0 2.8.5 2.8.8 0 1-1 1-4.2 0-4.4.5-11.2.8-11.5.2-.3.3-3.7.2-10.8 0-7.3 0-10.9.2-12 .2-1 .3-5.4.3-13.2 0-6.4.2-12.2.3-12.9a427 427 0 0 0 0-29.4c.2-.5.2-1 .1-1.2-.2-.3-.3 0-.4.9a96.7 96.7 0 0 0-1 16c-.2 11-.2 10.2-.4 10-.3-.4-.3-1.5-.4-10.5 0-6 0-8.2-.3-8-.3.3-.8 12-.7 16.6 0 2.2-.5 21-.7 23.6l-.6 23.6c-.1 9.7-.2 10.4-.6 10.4-.4 0-.5.2-.5.7 0 2.4-.5 10.6-.7 11.2-.1.7 0 .7.8.7 1 0 1 0 1-1.1zm4.8-3.8.2-6.1.3-11.5c0-5.7.2-11.5.4-12.9.1-1.3.3-7.9.3-14.5 0-12.6.2-18.2.8-25.2.3-4 .6-5 .8-3.4.2.7.2 1.2-.3 6.8-.5 6-.7 13.4-.6 23l-.1 13.2a372 372 0 0 0-.7 30.4c0 4.6.1 5 .5 5 .7-.2.7-.2.4-1.7-.2-1-.1-1.6.1-2.5.4-1.3.5-5.2.3-9.2a13 13 0 0 1 .1-3.5c.2-.5.2-.8 0-.8-.2-.1-.2-.3 0-.6.4-.3.4-.7.2-1.7-.3-1.8 0-17.6.3-18 .1-.2.3-5.6.3-14.6 0-7.8 0-14.6.2-15.1.1-1 1-1.3 2-.9.6.2.7.4.6 1-.1.3 0 .6.2.7.2 0 .2.2 0 .5-.3.3-.4.8-.2 1.4l.2 4.3.1 3.2-.6.1c-.6.2-.7.3-.7 1.6s0 1.3-.2.4a17 17 0 0 1 .2-5.7c.3-.2.6-1.5.3-1.3-.4.3-.5-.7-.1-1.2.2-.4.3-.8 0-1l-.2-1.1c0-.4-.1-.8-.3-.8-.1 0-.2-.3 0-.8 0-.6 0-.8-.3-.8-.5 0-.7 1.3-.7 7.4v5.6a1050.5 1050.5 0 0 0 .3 20.4c.1 0 .2-.7.2-1.5a35.9 35.9 0 0 0 .5-11.3v-4c.2.5.9.1.7-.3-.1-.2-.3-.4-.5-.4-.3 0-.4-.3-.4-1 0-1.2.4-1.5.6-.5 0 .3.2-.3.4-1.3l.6-2.1.3.1c0 .2.1.3.3.3.5 0 .8-3.3.4-4l-.2-2.6c0-2.4.4-1.9.5.6 0 .7.1 1.3.3 1.4.2.1.2 1 .1 3a150.6 150.6 0 0 0-.4 10.2c-.2.2-.2.2-.2 0s-.2-.4-.5-.4c-.5 0-.5.3 0 1 .3.4.4.8.4 1-.1.2 0 .4.3.5.3.1.5.4.5.7 0 .2.2.5.4.6.5.2.6 2 .2 2.2-.2 0-.2.3 0 .7.4.5.4.6 0 1-.5.2-.5.4-.3.6.5.6.9-.3 1-2.5a52 52 0 0 0 .3-5c.3.4.3.3.3 0s-.2-.5-.3-.6a130.2 130.2 0 0 1-.2-16.6c-.1-.8-.2-1.6 0-1.7v-1.2a255.5 255.5 0 0 1-.7-12.4c-.3-1.4-.5 0-.4 4.8l-.1 5-.3-4-.2-5.1c-.1-.9 0-1.3.2-1.5.4-.2 0-1.3-.5-1.3-.7 0-1 1-.6 1.6.4.8.6 12.1.2 12.1-.2 0-.3-.6-.3-1.4 0-1.1 0-1.5-.3-1.5s-.4.3-.4 1c0 1.3-.3 1.7-.6 1.1-.1-.2-.4-.3-.7-.2-1 .3-1.2-.2-1.2-1.8a4428 4428 0 0 1 .3-13.6c.3-5.3.3-13.3 0-13.7-.5-.4-.7.7-.6 2.4.1 2-.4 14.2-.6 15 0 .3-.3.5-.5.5-.5 0-.7 1.2-.7 4.2 0 1.5-.1 2.3-.2 2-.2-.8-.2-1.5.1-5.8.3-3.2.2-10.2-.1-13.5-.2-2.3-.2-2.6.4-2.8.4-.2.4.2.2 3v4c.2.7.3.6.5-1.4l.2-4.7v-2.5l-1 1-1 .9v15.1c0 8.4-.2 17.1-.4 19.5l-.2 14-.2 14-.2 13.9c0 6-.2 10-.4 10.7a53 53 0 0 0-.4 9c0 .3.4.4.7.3.6 0 .6-.1.6-5zm7-62c0-1.1 0-1.1.3-.3v1c-.2.2-.3-.1-.3-.8zm1-2.5c0-.3.1-.3.2-.1v.5l-.1-.4zm-7.1-3.2c0-.3.1-.6.3-.7.1-.1.2.1.2.5s0 .7-.2.7-.3-.3-.3-.5zm9.6 69c0-2 0-3.8-.2-3.9-.3-.2-1.2 1.1-1.3 2.3-.2 1 .2 4.5.5 5 .1.2.3.3.5.3.3 0 .4-.8.5-3.7zm-65.3.7c-.2-3.1-.5-5.7-.7-5.9l-1-.2-1.5-.3c-.5-.1-.6 0-.6.4 0 .5.1.5 1.6.5.8 0 1.5.2 1.5.3 0 .3 0 .3-1.6.4-.7 0-1.2.2-1.4.5-.4.7.5 1.2 1.9 1.2.8 0 1.1.1 1.1.4 0 .3-.1.4-.6.2-.5 0-.8 0-1 .2-.1.3-.2.3-.2 0 0-.1-.3-.3-.6-.3-.5 0-.5.1-.4 2l.4 3.3H20zM24 131c-.2-.2-.5-.3-.7-.3l.2.3.6.2c.2 0 .1 0-.1-.2zm4.7 0H28c-.2.1-.2.2.1.2.3 0 .5 0 .4-.1zm25.2-.5c0-.6 1.2-1.3 2.4-1.4.4 0 .7-.3.7-.7.1-.5 0-.6-.7-.6-.4 0-.8.2-1 .4 0 .2-.4.4-.7.4-.4 0-.7.1-.7.4 0 .4-.6.6-1.6.6s-1 .2-.4 1c.7.8 1.8.8 2 0zm8.8-3.5v-4c0-.2-.5.3-.9 1-.5 1-.7 1.4-.4 1.6.1.2.3 1.4.3 2.7 0 2.3.3 3.2.7 2.8l.3-4.1zm24.7 2c.2-2.3 0-4.4-.4-4.4h-.5c-.1-.1-.2 2.7 0 6.2 0 .2.1.4.3.4.3 0 .4-.5.6-2.2zm-26.8 1.6v-2c-.1-1.6-.2-1.8-.5-1.6-.4.3-.6 3.4-.2 3.8.3.3.5.2.7-.2zm18-3.7c.1-2.2 0-3-.2-3-.4.1-.8 4.3-.6 5.9.4 2.2.8.7.9-2.9zm49.4 3c0-1-.9-4.2-1.1-4.2-.2 0 0 2.3.3 3.7.3 1.1.8 1.4.8.4zm-89.8 0-1-.2c-.9 0-.9 0-.2.2 1 .3 1.3.3 1.2 0zm54.8-.1h-.5.1c.3.1.5 0 .4 0zm4 0h-1.5H97zm-87.9-2V126l-.2 1.6v1.7c.2.6.3 0 .2-1.5zm18.5 1.7H27c-.2 0-.1.1.2.1.3 0 .4 0 .3-.1zm73 0a7 7 0 0 0-1.5 0h1.6zm5.1-.3h-1.5c-1.2 0-1.6 0-1.4.2a6 6 0 0 0 3-.2zm12.6-1.2c-.2-.4-.6.4-.6 1.1 0 .7 0 .7.4-.1l.2-1zm16.5-1c0-1.7 0-1.9-.5-1.9-.4 0-.5.2-.5 1.1l.3 2.3c.4 1.5.7 1 .7-1.6zm-82 1c0-.5-.3-.6-1-.7-.7 0-.8 0-.8.5 0 .3.2.5.6.6.9.2 1.1 0 1.1-.5zm27.5-.5c0-.8 0-1-.2-.8-.4.6-.3 2 .1 1.9v-1.1zm21.9.7c4.4-.4 6.3-.7 5.8-1a51 51 0 0 0-10 0c-5.6.5-6.5.6-6.5 1 0 .5 4.8.5 10.7 0zm22.3-2.3c0-1.6-.2-2.7-.3-2.7-.5 0-.5.8-.3 3.2.2 3.1.7 2.8.6-.5zm1.2 1c0-1-.3-2-.4-2.4-.2-.4-.2-.3-.1.4l.1 2.3c0 .8.2 1.4.3 1.4.2 0 .3-.5.1-1.8zm-97.9.9-.9-.2c-.3 0-.3 0 0 .2l1 .2h.5l-.6-.2zm-20-.8c-.1-.3-.2-.2-.2.1 0 .3 0 .4.2.4v-.5zm5.8 0c0-.3-.1-.2-.2.1 0 .3 0 .4.2.4v-.5zm106.7-.8c.2-1 .2-1.5 0-1.7-.2-.2-.4.3-.6 2-.1 1.5.2 1.3.6-.3zM6.3 124.5l.2-7c.2-4.7 0-10.7-.3-10.1-.3.4-.6 18.7-.4 19.3.4 1 .5.4.5-2.2zM112 127h-.5c-.2 0-.1.1.2.1h.3zm-107.3-.8c-.2-.4-.3-.4-.3 0s.3.8.5.6l-.2-.6zm53.7.4c.3-.1.5-.4.4-.5-.2-.3-1.2.2-1.2.5 0 .4.2.4.8 0zm39.8-.5a99.1 99.1 0 0 1 12.7-.2c1.5 0 2-.1 2-.4a71 71 0 0 0-20.6.8c0 .3.2.3 1 .2l5-.4zm-41.8-.1c.5-.3.3-.4-1.4-.3-1.1 0-2.7 0-3.4-.2-1-.2-1.4-.2-1.3 0 .5.8 5.2 1.2 6.1.5zm62-1c-.1-.2-.2-.1-.2.5s0 .7.3.3c.2-.4.2-.6 0-.8zM8.2 115.5 8 104.8c-.2-.9-.3 2.3-.3 9.9 0 8 0 11 .3 10.7.2-.3.2-3.7.2-9.9zm5.4 9.8v-4.2l-.3-3.9-.3 3.9-.2 4.1c.2.5.5.5.8.1zm102.2-.1v-.6c0-.1 0-.2-.2-.3-.3 0-.6.7-.4 1 .2.4.6.3.6-.1zM11 122.5c0-1.5 0-1.5-.2-.5-.4 1.5-.4 3 0 2.5l.2-2zm46.6 1.9c2.5-.6 3.2-1 3.2-1.5s0-.5-.7-.1a15 15 0 0 1-6.1 1.2c-2.1 0-2.7-.2-2.7-.7 0-.3.3-.3 1.7-.2 1.6.2 4.3-.3 6.1-1l1.2-.2c.4 0 1.2-1 1-1.3-.3-.2-2.6.7-3 1.2-.3.4-4.2.7-5.3.4-.4-.1-.8-.4-.9-.6 0-.2.3-.3 1.8-.1 2 .1 2.9 0 2.5-.7l-1.2-.2c-.6 0-1.4-.2-1.9-.5l-1-.3a10 10 0 0 0-1.5 4.3c.3.7 4.5.9 6.8.3zm3 .3c0-.3-.6-.4-.7-.2-.1.2 0 .3.2.3l.4-.1zm67.3-4c0-3.3.1-4.2.4-4.7.3-.4.5-1.6.6-3 .2-2.1.2-2.3-.2-1.9-.5.7-.8.2-.4-.9.3-1.3.3-2-.1-1.6-.3.3-1.1 7.1-1.4 12.6-.2 2.6-.2 3 .3 3.2l.6.4c.1 0 .2-1.9.2-4.1zm-123.6 3-.1.3c0 .4 0 .5.1.3v-.6zm22 .6c-.1-.2-.5-.3-.8-.3-.5 0-.5 0-.2.3.5.3 1.2.3 1 0zm68.3-.4c-.1-.2-.2-.1-.2.2 0 .3 0 .4.1.3v-.5zm4 .2c0-.3-.2-.4-.7-.4-1 0-1.7.3-1.7.6 0 .4 2.2.1 2.4-.2zm-6.9-.4c0-.1 0-.2-.2-.2s-.3.1-.3.4c0 .2.1.3.3.2l.2-.4zm14.9.3c0-.3-2.5-.5-3.9-.4-2.3.1-2.5.1-2.5.4 0 .2 1.1.3 3.2.2 1.7 0 3.2-.1 3.2-.2zm4 0c0-.2-2.9-.6-3.4-.4-.2.1-.3.3-.2.4.2.3 3.5.3 3.5 0zM9.8 117.1c.2-4.6.1-20.9-.2-20.6-.3.4-.6 26.8-.3 26.5l.5-5.9zm69 5.1h-.5c-.3.1-.2.2.1.2.3 0 .5 0 .4-.2zm9.7-1.4v-.6l-2-.3c-1.8-.2-2.1-.1-2.3.2-.2.7.4 1.3 1.2 1.1.5-.1.9 0 1.2.4.5.5.5.5 1.1.1.4-.2.7-.6.8-1zm2 .1c0-.7-.1-.9-.6-.9-.6 0-.6.7 0 1.4.5.6.6.6.6-.5zm2.4-.4c.3-.6 0-.8-1-.6-.7.2-.7.3-.3 1.4.2.7.2.7.6.2l.7-1zm2.6.4c0-1-.5-1.3-1.3-.9-.7.4-.7 1 0 1.4 1 .7 1.3.6 1.3-.5zm13.2.9s-.1-.2-.4-.3l-.4.1c0 .2.2.3.4.3l.4-.1zm3.3-.7c0-.8-.1-1.2-.5-.9-.2.3-.2 1.7.1 1.7l.4-.8zm3.3-.3c0-.5-.6-.7-.9-.2v.8c.2.4.3.4.6.2.2-.2.3-.5.3-.8zm-96.8.4c-.2-.3-.2-.5.1-.8.3-.3.4-.6.3-1-.3-.8-.7-5-.7-6.2 0-1 .2-1.4.8-2 .8-1 2-1.5 3.3-1.5.5 0 1.7-.2 2.7-.5 1.5-.4 1.9-.6 2.2-1.2.7-1.4 2.7-4.8 3.6-6 1-1.2 1-1.3 1-3.8 0-2.4.5-5.2 1.3-6l.3-7.2.3-8a33 33 0 0 1 2.1-7.4c.4-.6.7-1.7.8-2.5.3-2.3 1.1-5.2 2.1-7.3.5-1 1-2 1-2.4l1.3-1.8 1-1v-9c0-6.8-.2-9.3-.4-10-.3-.9-.8-8.7-.8-12.6v-1.1h-5c-2.7-.1-5.6-.1-6.4 0-1.4 0-1.4.1-1 .6.4.3.7.4 1.2.3 1.1-.2 10.2-.2 10.3 0 .1.2-.1.3-.5.3a2 2 0 0 0-.9.3c0 .1-1.7.2-3.6.1-2 0-3.4 0-3.5.2-.1.1 1.4.3 4.2.4 2.6.1 4.3.3 4.3.5s-1.2.2-3.6.1H32c-1 .2-.9-.4-1.2 9.2l-.2 5.3c0-1-.2-2-.3-2.2-.2-.3-.3-2-.4-3.8-.1-2.5 0-3.3.2-3.5.5-.4.7-3.9.3-4.8l-.3-1c.1 0 0-.2-.2-.2s-.4.2-.5.4c-.1.2-.3 4-.4 8.3a60 60 0 0 1-.3 7.3c-.1-.3-.2-4-.1-8.2l.1-7.7-.9-.5c-.6-.4-.8-.7-.8-1.2.2-1.3.2-1.3 7.1-1.1l6.5.2.3-.8c.1-.5.3-2.8.3-5.9 0-4.3 0-5.1-.4-5.4a124.4 124.4 0 0 1-11.2 0c-4.1 0-7.3.1-7.3.3 0 .4 1.2 1.3 3.2 2.3 2.6 1.3 3.4 1.9 3.7 2.7.2.5.4.6 2.1.6 2.3 0 2.5.6.3.8-1.1 0-1.5.2-1.7.8l-.4.6h-5c-5.1-.2-6.7-.3-6.8-.7 0-.2 2.6-.2 5.7-.2 3.2 0 5.8 0 5.8-.2l-.8-1.4c-.6-1-1.2-1.4-3-2.2-1-.6-2.6-1.6-3.3-2.2l-1.3-1.2-2.1.1c-2 0-2 .1-2 .8 0 .3 0 2.3-.2 4.3a460.2 460.2 0 0 0 0 33c.2.3.5.4 1 .3.4 0 .6 0 .7.3.2.5-.5 1.5-1 1.5-.7 0-.7.4 0 1.7.6 1.2.7 1.5.5 3.6a9.8 9.8 0 0 1-.7 3.6c-.6 1.2-.6 1.7-.7 8.8a5128.7 5128.7 0 0 1-.1 22 983 983 0 0 1-.3 31.2c.1.8.9 1.2 2.1 1.3.8 0 .9 0 .6-.4zm1.6-15c.1 0 1.2-.3 2.4-.3 1.9 0 2.4 0 2.4.3 0 .2-.6.3-2.4.3-1.6 0-2.4 0-2.4-.2zm-1.7-2c-.1-.2 0-.3.3-.3l3.8-.2c2.3 0 3.4 0 3.5.2a92.4 92.4 0 0 0-4.7.5c-1.9 0-2.8 0-2.9-.2zm-.3-2.4c0-.2.6-.3 2-.3l5.2-.4c2.8-.4 3.6-.4 3.2 0-.6.6-10 1.2-10.4.7zm7.2-2.5c-.5-1.2-1-4-1-5.5 0-2 .5-4.5.9-4.5.2 0 .2.3 0 .9-.5 1.9 0 8.4.8 8.8l.2.4c0 .4-.8.3-1 0zm1.8-6c0-1.4-.3-4.3-.5-6.6-.3-2.3-.4-7.4-.4-11.8A900.2 900.2 0 0 0 26 53c.3-.4.4 3.4.6 16.4.1 13.2.3 17.2.6 16.9l.3-11.5.2-11.3-.1 11.7a242.4 242.4 0 0 0 0 20.7c-.2 0-.4-1.1-.5-2.5zm3.7 1v-2.4a209.9 209.9 0 0 0 .3-15c.2 3 .6 4 .6 1l.2-4.2.1-2.2-.5.9-.5 1V71c0-1.5 0-2 .2-1.5.3 1.4.5-3.6.3-7.8l-.2-4 .3-16.4.2-16.3c.2-.1 7.3.3 7.3.5 0 .1-1.4.2-3.2.2H33v4c0 2.4 0 5-.3 6.2-.2 1.2-.2 2.5-.1 2.9l.1.7h3.7c3.3 0 4.7.2 4.2.7l-4 .2h-3.7l-.2 1.3c-.2.8-.2 6-.2 11.8a460.2 460.2 0 0 1-.6 32.4c0-.3 0-.4-.1-.3-.1.1-.3 2.1-.3 4.5s-.2 4.3-.2 4.4c-.1 0-.2-.1-.3-.4zm-1-5.4c-.1-.1 0-5.4.2-5.6 0 0 .2 1.2.2 2.8 0 2.9 0 3.1-.4 2.8zm-.1-9.9c0-.4 0-.5.1-.3v.6l-.1-.3zm0-1.7c0-.3 0-.4.1-.2v.5c-.1.1-.2 0-.2-.3zm0-2.1c0-.5 0-.6.1-.3v.7l-.1-.4zm-.3-5.7v-4.7c.3.1.3 9.2.1 9.4l-.1-4.7zm1.3-5.4c0-.5.1-.6.2-.4v.8c-.1.2-.2 0-.2-.4zm-1.4-1.4c-.2-1.3-.1-2.1 0-2.4.2-.3.3-1 .3-1.4 0-.5.1-.8.3-.6.2 0 .2.5.1 1.1l-.3 3-.2 2.2zm-1.5-4c0-2.8-.1-4.6-.3-4.6-.2 0-.2-1.5-.2-4.3 0-3 0-3.8.2-2.8v3.6c0 1.4 0 2.3.3 2.7.2.4.3 1.6.3 3 0 1.2 0 2 .1 1.6 0-.3.3-.6.4-.6.3 0 0 2-.3 2.5-.1.2-.3 1-.3 1.9 0 .9-.2-.5-.2-3zm.4.2c0-.3-.1-.2-.1.1l.1.4v-.5zm1.4-8v-5.5a77.8 77.8 0 0 1 .1 10.6l-.1-5.1zm-1 1.3c0-1.2.1-1.7.2-1v2c-.1.6-.1.1-.1-1zm-4-2.2v-2.6l.3 2.4v2.6c-.2.1-.3-1-.3-2.4zm4-3.8a48.9 48.9 0 0 1 0 0zm-5.6-1.8c0-2-.2-3.5-.4-3.5-.5 0-.6-.7-.6-2.9 0-3.2.3-4.1.5-1.6.1 1.2.2 0 .1-2.8 0-3.8 0-4.9.3-4.9s.4 1.2.4 5.3l.1 9.5c.2 3 .1 4.3 0 4.3-.3 0-.4-1.2-.4-3.4zm-.3-4.9c-.1-.2-.2-.1-.2.2 0 .3 0 .4.1.3v-.5zm2.2 7c0-.5 0-.7.1-.5v1-.5zm0-7.7c0-4.7.3-9.4.5-8.3.1.7 0 10.5-.3 12.1-.1 1.4-.2.3-.2-3.8zm4.8 3.2c0-1.1 0-1.6.1-1v2-1zm-2.5-4c-.3-3.8-.3-7.4 0-7.4a68.9 68.9 0 0 1 .2 10s-.2-1.1-.2-2.5zm2.4.6c0-.6.1-1.1.3-1.1.2 0 .2.3.1 1-.3 1.3-.4 1.4-.4 0zm5.7.2c0-.2.4-.3 1.2-.3.8 0 1.3.1 1.2.3-.1.1-.6.3-1.2.3s-1.1-.2-1.2-.3zm0-1.8c-.7 0-1.2-.2-1.2-.4s.7-.3 2.6-.2c2.8 0 3.4.1 3.1.5-.1.3-1.8.3-4.4.1zm-.8-9.5c-.2 0-.4-.2-.4-.4 0-.1.8-.2 1.8-.2 2 .1 2.5.2 2.5.5s-3.4.3-4 .1zM21 23c0-.1.8-.2 1.8-.2 1.1 0 1.9 0 1.9.2s-.8.3-1.9.3c-1 0-1.8-.1-1.8-.3zm-1.6-1.8c0-.2 1-.3 2.5-.3s2.5.1 2.5.3c0 .1-1 .2-2.5.2s-2.5 0-2.5-.2zm9.1-.8c-.3 0-.6-.2-.8-.3-.2-.2-2.1-.3-4.5-.3-4 0-5.1 0-5.1-.4 0-.1 2.3-.2 5.2-.2l5.5-.1c.2 0 .3-.2.2-.4 0-.3.3-.4 1.2-.5 1.4-.2 2-.1 2 .3 0 .2-.6.3-1.2.3-.5 0-1 0-1 .2h1.4c1.2 0 1.5 0 1.5.4 0 .3.2.4.7.4.4 0 .6.2.6.4a30 30 0 0 1-5.6.2zm6-1.3c-1-.6-1-1.7-.1-2.4.7-.6.7-.6.5-2.9l-.2-2.3 2-.2H39c.9.6.6 1-.6.8-2.6-.1-2.6-.1-2.6 1.7v1.5h1.6c1.7 0 2.2.5 1.6 1.3-.3.3-1 .3-2.4 0-.3-.2-.5 0-.7.8-.4 1.3-.4 1.3.2 1.5.3 0 .5.2.5.4 0 .4-1.4.3-2.2-.2zm.5-1.5c0-.2-.1-.4-.2-.3-.2.1-.3.3-.3.4 0 .2.1.3.3.3l.2-.4zM17 18c0-.3.2-.3.9-.3l4.5.2c2.2 0 3.6.1 3.6.3 0 .1-1.7.2-4.5.2-3.8 0-4.5 0-4.5-.4zm2.3-3.5c-.5-.4.2-.6 2.9-.6 3 0 3.8.1 3.8.6 0 .2-6.5.2-6.7 0zm9.6-1.5c0-.3.5-.4 2.7-.3 3.4 0 3.4.6 0 .6-2.2 0-2.7 0-2.7-.3zm1.6-1.1c-2.2-.1-3.3-.6-1.2-.6 1.7 0 3.8.3 3.5.5h-2.3zm3.7-1.3-3.7-.1c-3.8 0-4.5-.2-4.5-.6 0-.2 1.3-.2 4.3-.1 6 .2 8.7.5 8.7.7 0 .2-4.6.4-4.8.1zm44.5 109.2c0-2-.3-3-.6-3s-.3 2.3 0 3.8c.2 1.6.6 1.1.6-.8zm19.1 1.4c.3-.6.2-1.4 0-1.4-.8 0-1.1.3-1.1 1 0 .6 0 .8.5.8.2 0 .5-.2.6-.4zm7.3-.3c0-.8.5-.8.9 0 .3.7 1 1 1 .4l.1-1c.2-.4.1-.5-1.4-.5H104v1c0 .7 0 .8.4.8.3 0 .5-.4.6-.7zm5.6 0c0-.9 0-.9-1.6-.9-1.3 0-1.5.1-1.4.4 0 .2.6.5 1.2.6.5 0 1 .2 1.1.4.3.5.7.2.7-.6zm2.9 0c0-.4-.2-.6-.4-.6-.4 0-.5.2-.2.9.2.6.6.5.6-.3zm-14 .2c.2-.3-.2-1.3-.5-1.3-.2 0-.3.3-.3.8 0 .7.5 1 .9.5zm1.8-.5.3-.7.3.6c.4.8.9.8 1 0 0-.7 0-.7-1.2-.7-1 0-1.2 0-1.2.6 0 .5.2 1 .5 1l.3-.8zm18.1 0c-.4-.6-.7-.7-1-.3-.3.4.4 1 1 1 .4 0 .4 0 0-.6zm-2.2 0c0-.4-.6-.3-.7.2 0 .1 0 .3.3.3.2 0 .4-.2.4-.4zm5.8-.4c0-.5-.8-.8-1-.5-.2.1-.2.5-.1.8 0 .5.2.5.6.3.3-.1.5-.4.5-.6zM14.6 118v-2.4c-.3.6-.4 5.1-.2 5.1.1 0 .2-1.2.2-2.7zm29.2 2 .2-4.2c0-3.8 0-3.8-2-4.7-2-1-8-1.8-10.7-1.6-1.1.1-1.8 0-2-.1 0-.2-.4-.2-.8 0l-2.5.6-1.7.4 2.3-.2c2.8-.2 5.5.1 5.5.6s.6.7 2.1.7c.7 0 1.4 0 1.5.2.1.2-.8.3-3.1.2h-2.9c.2.2 1.7.4 3.2.5 1.5 0 3 .3 3.2.4.2.2-.3.2-1.8.1l-2.2.1c0 .2 0 .3.2.3 1.6 0 5 1 3.8 1.1l-3.4-.4c-1.5-.3-2.9-.4-3.2-.3-.4.2-.4.2 0 .4l3.3.4c1.8.1 2.7.3 2.7.5 0 .1-.7.3-1.6.2-1.3 0-1.3 0 .3.4.4 0 .5.2.4.6-.1.4 0 .5 1.1.7 1.7.2 2 .4 1.9.8-.2.3 0 .4.9.4.8 0 1 0 1 .5s.2.5 1.3.5c1.4 0 1.8.2 1.3.7-.1.2-.8.4-1.6.4-2 0-.8.5 1.3.5 1.6 0 1.7 0 2-.7zm16.2 0c.7-.2 1.2-.5 1.2-.6l-.1-.3c-.5 0-3.5 1-3.7 1.1-.4.4 1.2.3 2.6-.2zm-12.7-.2 2-1c2-.7 2.3-1.2 1.6-2.7-.6-1.3-1-1.4-1-.2 0 1-.8 2.1-1.6 2.6-1 .5-1.3 0-.4-.7.7-.7 1-2.2.6-2.8a1 1 0 0 1-.1-.9c.1-.4 0-.5-.8-.8-.5-.2-1-.2-1.2-.1a12 12 0 0 0-.3 3.6c0 3 0 3.4.5 3.4l.7-.4zm33.5-.9.1-1.7c.2-.3 0-.6-.2-1-.4-.3-.4-.3-.4 0s.1.5.3.5c.2 0 .2.1 0 .4-.4.4-.4 3 0 3 .1 0 .2-.4.2-1.2zm1.2.6c-.3-.3-.5.1-.3.5.2.2.3.2.4 0v-.5zm44.4-3.5c.2-3.1-.1-3.6-.6-.8-.2 1.8-.3 2.8 0 4.3 0 1 .4-.7.6-3.5zm-66.7 2.7c1.4-.4 2-1 1.7-1.3-.1-.1-1.2 0-2.4.4-3 .8-3 .9-2 1l1 .3 1.7-.4zm30-.5c0-.3 0-.4-.3-.3l-1 .2c-.7 0-.6.5.3.6.9 0 1 0 1-.5zm4 .2c.4-.3.2-.3-.9-.2-1.8.1-1.7.1-1.6.4.2.3 1.8.2 2.4-.2zm-38.3 0c0-.6-.6-.8-1.6-.5-1.5.3-1.3.7.3.7.7 0 1.3-.1 1.3-.2zm28.2-1c-.1-1-.1-1.1.3-1 .3.1.4 0 .2-.1-.1-.2-.6-.3-1-.4-.5 0-.6 0-.7.7 0 .8.6 2 1 2 .3 0 .3-.4.2-1.2zm12.4.7c0-.2-.4-.3-.8-.3-.3 0-.7.1-.8.3 0 .1.2.2.8.2.6 0 .9 0 .8-.2zm-50.8-6c0-2.7-.2-4.6-.4-4.7-.2-.2-.3.2-.2 1.5l.2 5.6c0 3 .1 3.5.3 2.8.2-.6.2-2.6.1-5.3zm8 4.6-.5-.7-.3-.8c0-.6 0-.7.5-.7.4 0 .6-.1.6-.3 0-.4.3-.4 1.3-.2 2.1.3 3.1.3 3.1-.2 0-.3-.4-.4-1.8-.4-2.2-.1-3-.3-3-.6 0-.2.5-.3 1.2-.2 1 0 1.2 0 1.3-.5 0-.5 0-.7-.6-.9-.4-.1-.8-.4-.8-.7-.1-.2-.5-.4-1-.4a42 42 0 0 1-3.8-.5c-1.7-.3-3.1-.5-3.2-.4-.1 0-.2.6-.1 1.2 0 1 .1 1 1.4 1.4.7.3 2.1.5 3 .6 1.4.2 1.7.3 1.7.6s-.4.5-1 .5l-.9.1 1 1.1c.5.6 1 1.4 1.1 1.8 0 .4.3.8.5.8.3 0 .4-.2.2-.6zm-3-4.9c-1.5-.2-3.2-.9-3.5-1.4-.3-.6-.3-.6.3-.5l1.7.6 2.8.6c1.1.1 1.8.3 1.7.5-.1.3-1.6.4-3 .2zm-46.5 4.4-.1.3c0 .3 0 .5.1.3v-.6zm104.4.4c3.2-.3 3.2-.6 0-.5-3 .2-3.8.3-3.6.7 0 .1.4.2.7.1l3-.3zm-82-.4-.8-.3c-.7-.2-.7-.1-.2.2.5.4 1.3.5 1 .1zm32.2-.4c.2-.2-.1-.3-1.2-.4-.8 0-1 0-1.1.3-.1.4 0 .5 1 .3a5 5 0 0 0 1.3-.2zm43-.2c0-.4.1-.5.5-.5a29 29 0 0 0 8.5-.5c-.7-.3-11-.2-11.1 0-.1.2.1.3.5.3.6 0 1 .5.5.5h-6c-3-.1-9.4.1-9.4.3 0 .4.8.5 8.4.4 8 0 8 0 8-.5zm-89.2-14 .3-6.1c0-.4-.2-.8-.3-1-.3 0-.4 1-.4 4.8 0 2.7 0 5.9-.2 7.1v9.7l.3-4.5.3-10zm1.3 11.6c-.1-4.2-.3-4.6-.3-.8 0 2 0 3.6.2 3.6v-2.8zm110.4-8.7c.1-5 .3-9.2.4-9.2l.4.3a213.9 213.9 0 0 1 .1 16.5c.3-.6 1-5 .9-5.8-.2-2.3 0-10.3.1-10.4.4-.1.6 1 .6 4.2 0 1.8.1 3.2.2 3.2.3 0 .4-.7.7-4.9.2-1.8.5-2.2.8-1.2.1.5.2.6.5.3.4-.5.7-.4.8.3 0 .4.2.2.9-1 .4-1 1.3-2.3 1.9-3.1.6-.8 1-1.6 1-1.8 0-.1-.6-.3-1.4-.4a15 15 0 0 1-5.2-1.4c-1.6-.8-1.9-.8-4.1.2-1.7.8-2 1-2.4 2.1-.6 1.4-.7 2.4-.3 2.4l.3-.3c.4-1 .5.7.5 7.3a53.2 53.2 0 0 0 .5 10c0 2 0 2.3.3 2a108.9 108.9 0 0 0 .4-17c0-1 .1-2.3.4-2.2.4.1.4 1.7.5 15 0 2.7.2 4.8.3 4.8l.3.8c0 .8 0 .7.2-.3l.4-10.4zm-40.4 10.1c0-.4-.1-.8-.3-.8 0 0-.2-.1-.2-.3l-.4-1.1c-.6-1.1-.3-1.5.9-1.4 1.1 0 1.6-.4.5-.6-.7 0-.7-.1-.7-1 0-.7 0-1-.3-1-.2 0-.4.3-.4.5v1.3c-.1.4-.3.7-.5.7-.6 0-1 1-.9 2 .1.7 0 .7-.6.6-.8-.2-1 0-.5.9.4.7 1.5 1.2 2.5 1 .8 0 .9-.1.9-.8zm-2.2.2c-.3-.3-.4-.4-.1-.6.3-.2.7.3.7.8 0 .2 0 .2-.6-.2zm-58.5 0-1-.7-.4-.8c-.2-.7-.2-.8.5-1.4.9-.8.9-1.1 0-.9-.8.3-1.9 1.3-1.9 1.8 0 .4 1.8 2.1 2.7 2.4.8.4.9.2.1-.4zm-8.1-1.8c-.1-.4-.1 0-.1.6v.6-1.2zm84.8 1c.3-.2-1-1.5-1.5-1.5l-1.1.4c-.8.4-2.9.6-8.8.8-3.8.2-3.8.2-2.8.4.8.3 13.8 0 14.2-.2zm-95.8-3-.3-1.8v2.5c0 1.9 0 2.3.2 1.7.2-.4.2-1.5 0-2.5zm59.4 2.6c.5-.2.9-.5.9-.6 0-.5.7-.2 1 .3.3.6.3.6.7.1.6-.8.4-1.2-.6-1.2-1.2 0-4.1-.4-4.6-.7-.8-.5 0-.6 2.3-.2 2.4.4 3.8.3 3.8-.2 0-.6-.2-.6-1.5-.4-1.2.2-1.3.1-1.9-.6-.5-.6-.8-.8-1.6-.8-1.1 0-2.3-.7-2-1.1.3-.2.5-.1.9.2.4.3 1 .4 3 .4s2.6.1 3 .4c.3.4.4.3.4-1.6 0-2-1-7.2-1.4-8-.1-.3-.2.1-.2 1l-.1 1.8c-.2.1-1.9-.8-2.8-1.7-.4-.3-1.3-.7-2-.9l-2-.7c-1.3-.6-2.7-3.3-1.9-3.3.2 0 .3.2.3.4s.5.8 1 1.4a4 4 0 0 0 2.5 1.5c.9.3 2 .8 2.6 1.3 1.7 1.3 1.8.7.2-1-1.4-1.3-1.8-2-1.4-2l1.3 1.2c.7.7 1.3 1.2 1.5 1.2.6 0 .2-1-.7-2-1.2-1.3-2-3-1.6-3 .4-.2-2-2.9-2.4-3-.7 0-.7.9 0 1.7.7.8 1.4 2.5 1.1 2.8h-.3c-.1-.5-1.7-2.8-2.5-4-.4-.4-1-1.4-1.3-2-.3-.8-.6-1.3-.8-1.3-1 0-.3 12 1 15.2l.6 1.8c.7 2.9 1 3.8 1.5 4.8l1 1.5c.2.1.4.4.4.6 0 .5.8 1.2 1.3 1.2.3 0 .9-.2 1.3-.5zm.3-5.7a9 9 0 0 0-2.6-.8c-1 0-1.6-.3-2-.7-.7-.7-.4-1 .5-.4.4.3 1.4.5 2.3.6 1 .1 2 .4 2.3.7.5.3 1 .4 1.3.3.5-.1.6 0 .6.3-.2.7-1 .7-2.4 0zm.7-2.3c-1.6-.6-2-1-1.3-1 .6 0 3.3 1 3.3 1.3 0 .4-.6.3-2-.3zm-4.2-.8-1.8-.5c-.3 0-.5-.1-.6-.3-.4-.6.3-.6 2.3 0a57.8 57.8 0 0 0 2.3 1.1c0 .4-.7.3-2.2-.3zm4.2-1.1c-1-.6-1.6-.8-2.7-.9-2 0-4.6-1.6-4.6-2.8 0-.5.1-.5.8.3 1 1.1 2.9 2 4 1.7.8-.1 1.2 0 2.7 1l1.8 1.4c0 .4-.7.1-2-.7zm-5.2-7.1a9.3 9.3 0 0 1-2.5-4.5c-.3-1.3.2-.9.8.6.5 1.4 1.7 3.1 3.1 4.5.6.6.7.8.4.8-.3 0-1-.7-1.8-1.4zm-27.9 16.5c.2-.4-.5-.6-1.7-.6-1.4 0-1.4.5 0 .6l1.4.2.3-.2zm-25.8-.7L5 112c-.2 0-.3.2-.3.4s.1.4.3.4l.2-.4zm79 0c.3-.3-.4-.7-.9-.4-.1.2-.2.4-.1.5.2.4.8.3 1 0zm10 .1c1.2 0 1.5 0 1.6-.5 0-.3.3-.5.7-.5.3 0 .6-.2.7-.3 0-.1-.5-.2-1.5-.2s-1.6 0-1.8.3c-.1.3-1 .5-2.8.6-1.4 0-2.5.3-2.4.4.3.2 2.9.4 3.7.3h1.9zm-6-.5c0-.1.1-.4.4-.5.3-.2.1-.3-.5-.3-.5 0-.9.1-.9.2l-.1.7c-.2.4 0 .4.4.4s.7-.3.7-.5zm19.1.2c0-.3-5.5 0-5.8.2h2.9c1.6 0 3-.1 3-.2zM14.4 97.6c-.3-1.6-.4 6.2 0 11.2.1 3.2.1 3 .2-3.3 0-3.7 0-7.2-.2-8zM127 110.2v-.6l-.2.6-.2 1.4v.6l.2-.6.2-1.4zm-26.9 1s-.3-.2-.8-.2c-.4 0-.8.1-1 .3 0 .1.3.3.9.3.5 0 .9-.2.9-.3zm3.7-.2c0-.1-.1-.2-.3-.2-.1 0-.2 0-.2.2s.1.3.2.3c.2 0 .3-.1.3-.3zm-60-.5c0-.6-.2-.7-1-.6l-.7.1.6.5c.8.6 1 .6 1 0zm75.9-2.2c0-2.5-.5-2.5-.6 0 0 2.1 0 2.5.3 2.3.2 0 .3-1.1.3-2.3zm-115-.5v1.8-1.8zm61.1 2.2c.1-.2-.2-.3-1-.3s-1 0-.5.3c.7.3 1.3.3 1.5 0zm14.9-.2.3.6.3-.6c.3-.5.2-.7-.2-.8-.7-.3-1-.9-1-2.7l-.2-3.4.1-1.8c.2-.1.1-.4 0-.7l-.4-.4-.3 4.2a87 87 0 0 1-.2 4.8c-.2 1.1 0 1.4.7.7l.6-.5zm-25-.8-.1-.5c-.2-.3-.6-.4-1.7-.4-1.7 0-6.8-.6-7.6-1-.7-.2-.5.6.2 1l3.3.7c1.4.2 2.6.5 2.7.6.1.1 3-.2 3.1-.4zm22.8-5.9-.1-6.2c-.2-.1-.3.1-.3.6 0 5-.2 10.4-.4 10.6-.1.3.4 1.5.6 1.3 0 0 .2-2.9.2-6.3zm35.3 1.8c0-4.7.4-9.9.9-14.2.2-2.3.2-2.6-.2-2.9-.5-.3-.5.3.2-16.3a32.9 32.9 0 0 0-.2-10.7l.2-11.6c0-5.7.1-9.9.2-9.9.2 0 .3.4.3.8 0 .6 0 .6.2.1.2-.3.4-3.3.6-6.7l.4-6.3h.5c.4.2.4.5.3 2l-.3 5c-.2 5.1-.7 7.5-1.3 7-.2-.2-.3 2-.3 8.5 0 6.1.1 8.8.3 8.9.3 0 .4-1.6.8-10.7a267.7 267.7 0 0 0 1.2-28.2l-.3 4.3c0 2.5 0 2.6-.5 2.6-.6 0-.6 0-.4-5 0-2.7.2-6.5.4-8.5.3-4.7.3-4.7-.2-4.7-.3 0-.4.3-.3 1.9l-.1 3.4a453 453 0 0 0-.6 15.8c-.2 5.2-.3 6.6-.9 7.4-.3.4-.4 1.5-.5 4.2a222 222 0 0 1-.7 14.1 1967.3 1967.3 0 0 1-.6 51.6c-.1 1.5.1 2.6.7 2.6 0 0 .2-2 .2-4.5zm-70.4 4c-.1-.1-.5-.3-.9-.3-.3 0-.6.2-.6.3 0 .2.4.3.8.3.5 0 .7-.1.7-.3zm51.3-.3-.4-.2c-.2 0-.3.1-.3.2 0 .2.2.3.4.3.3 0 .4-.1.3-.3zM38 108c-1.6-.8-1.7-.8-1.7-.5 0 .4 1.7 1.1 2.4 1.1.5 0 .3-.1-.7-.6zm44.3-.3c-.3-.3-.8.3-.6.7.2.2.3.2.5-.1.1-.3.2-.6 0-.6zm-50.4.2c.2-.3 1-5.4.9-5.5l-1.2 1.5c-.8 1.1-1.1 1.8-1 2.3 0 .4 0 .7-.4.9-.9.5-.6 1 .6 1 .5 0 1 0 1.1-.2zm11.6-.1v-1c0-1.2-.5-1.5-2.4-1.7-1.6-.2-1.7-.2-1.2.2.3.2.6.4.7.3h1c.5.1.7.3.7.8 0 .6 0 .7-.7.7-.5 0-1.3-.3-1.8-.6-.9-.5-1.1-.5-1.4-.3-.4.3-.6.3-1.2 0-.4-.3-1-.6-1.1-.8-.5-.6-.8-.6-.6 0 .2.6 4 2.3 5.7 2.5 1.9.2 2.3.2 2.3-.1zm41 .1c0-.3-1-.8-1.5-.8-.4 0-.4 0 .3.5.8.5 1.2.6 1.2.3zM55 106.7c-.1-.2-1-.4-3-.5-3.4-.1-4.8-.4-5.6-.9-.8-.5-.9-.5-.9.2 0 .9 2.8 1.4 7.4 1.5 1.6 0 2.1 0 2-.3zm36.5-.3.6-.4c.3 0 .5-.3.4-.4 0-.1-.2-.2-.4-.1h-1c-.7.1-.8 0-.8-1l.2-4.3a199.6 199.6 0 0 0 0-15.7c-.3.1-.4 2.7-.3 5.8 0 .7 0 1.1-.2 1.1-.5 0-.5-6.2 0-6.7l.2-.9c0-.3.1-.5.2-.5.4.3.3-3 0-3.6-.2-.3-.3-1-.3-1.3.1-1.4-.2-5.2-.4-5.2s-.3.5-.3 1.1c0 1 0 1-.3.7a104.2 104.2 0 0 0-.1-16.9c-.4-.5-.4-.5.2-.5h.7v2.8c0 1.6 0 4.2-.2 5.9v3.2c.2.1.4 1.4.5 3l.3 2.8c.2.6.5-2.9.5-5.9 0-2 .1-3.7.3-3.7V65c-.1-.2-.3-2-.3-4l-.1-3.4h.8c.5 0 .9.1.9.2 0 .2.1.3.3.3l.2-.4c0-.2.3-.4.8-.4.4 0 2.1 0 3.8-.2 2.2 0 3.1 0 3 .2-.1.1 0 .3 0 .4.2.1.4 0 .4-.2 0-.3.1-.4.4-.3.5.2.4.6-.3 1-1 .3-1.6 1.4-1.2 2l.3 1c0 .6-.8.4-.9-.2-.1-.5-.1-.5-.2.1 0 .8-.8 1.9-.8 1.1 0-.2-.1-.4-.3-.4-.1 0-.2-.5-.2-1.1 0-1.7 0-1.8-.5-1.8-.3 0-.6-.3-.8-.7-.2-.5-.5-.6-1.2-.6l-1 .2c-.4.2.3.8.7.7.3-.1.4 0 .4.3L96 60c.3.5.3 1.4.1 4.3V68c.4.4.7-.5.7-2.7 0-2.7.3-5 .5-4.5v2.6l-.3 4.3c0 1.7-.1 2-.6 2.3-.8.4-.8.4-.3.8.4.3.4.6.2 3.6a28 28 0 0 0 0 5.3v5.7L96 97v8l-.7.4c-.3.3-.8.5-1 .5l-.4.3c-.1.1.4.2 1.3.2 1.3 0 1.5 0 1.5-.5s.1-.5 1-.5 1.2.2 1.2.5.4.4 1.3.5c1.2 0 1.7-.3.7-.6l-1.4-1c-.6-.6-1.3-1-1.6-1-.5.1-.6 0-.6-1.3 0-.8 0-1.6-.2-1.8v-3.3c.5-4.2.6-11.2.7-23.8l.1-11c.1-.3.2-.3.5 0 .2.1.5.2.6 0 .3-.3 1.1.5 1.1 1.2 0 .8 0 .8-.7.4-.5-.4-.6-.4-.6 0l.4.8c.3.5.4.5.6.2.2-.3.3-.1.3.7.1 2.5 0 2.9-.2 3.7-.2.5-.2.9 0 1a50.8 50.8 0 0 0 0 5.3l-.3 8.8a100 100 0 0 0-.2 10.7c0 2.6.2 3.2.5 3.4.3.2.5.6.5 1.4 0 1.5.3 1.7 1 .6.4-.8.4-1.4.4-6.8 0-5 0-6-.4-6.2-.3-.2-.4-.8-.4-2.1l-.2-4.6c-.2-2.2-.1-2.9.2-3.2.5-.6.8-7 .3-7.7-.4-.4-.4-.4-.4.2 0 .3-.1.6-.3.7-.4.3-.3-.9.2-1.8.3-.5.4-1.1.3-1.7-.1-.6 0-1 .2-1 .2-.1.4-.5.4-1 0-.8 0-.8-.3-.2l-.3.7-.2-.8c-.4-1.1.1-2.3.8-2 .7.1.7-.4 0-.7-.8-.3-1-2.8-.4-3 .4-.2.6.5.4 2 0 .2.1.4.3.4l.2-.4c0-.2.1-.4.3-.4.2 0 .2-.2 0-.6-.5-.9-.2-1.6.6-1.8.7-.1.8-.2.8-.9-.1-.7 0-.8 1.3-1 .5-.2.7-.4.7-.9 0-.4.2-.6.8-.8.8-.1.8-.2.8-1.7 0-.8.1-1.6.3-1.7.5-.4 0-2.5-.5-2.5-.4 0-1 1.8-1 2.8v.8l-2.2.2c-2.2.2-3 .8-1 .6.7 0 1.1 0 1.2.3 0 .2-.5.3-2 .3-1 0-2-.1-2-.3l.3-.2c.2 0 .3-.1.3-.3 0-.1-.4-.3-.8-.3s-.8.2-.8.3c0 .2.1.3.3.3.6 0 .2.5-.5.5a2931.5 2931.5 0 0 1-14.8.4c-.4.4.5.5 3.8.5 2 0 3.6.2 3.7.3.2.2-2.5.3-5.5.2-1.6 0-2.3 0-2.3.2 0 .1.1.3.4.4.3.2.3.2 0 .5-.5.3-.5.4-.2 1.1.4.8.4.8.6.2.3-.6.9-.8 2.4-.7l1 .1v3.1l.1 6.5a1389.8 1389.8 0 0 1 .8 36.2v2.6l-.6-.1H88c0 .2.5.4 1 .5l1.3.3c.5.1 1.5 0 1.4-.3zm-2-9.6c0-3 0-4.7.4-4.4a454.4 454.4 0 0 0-.2 7.3s-.2-1.3-.2-2.9zm11.2-6c0-1 .2-2 .3-2v2c0 1.2 0 2-.2 2s-.2-.7-.1-2zm-11-8.3c-.1 0-.3-.5-.3-1s.1-.9.3-.8c.1.1.3 0 .3-.3a51.1 51.1 0 0 1 0 2.3l-.2-.2zm-.4-2.6c-.2-.7-.2-4.2 0-3.8.3.3.5 4.2.3 4.2l-.3-.4zM97 60c0-.2.1-.5.3-.5.1 0 .3.3.3.6s-.2.5-.3.5c-.2 0-.3-.2-.3-.5zm5.4-2c0-.7 0-.8.5-.8.3 0 .5 0 .4.3-.1.2-.3.5-.3.8-.3.7-.5.5-.6-.4zm-16.6-1c.4-.5 3.3-.8 3.3-.4 0 .2-.4.3-.9.3s-1.3 0-1.8.2c-.6 0-.8 0-.6-.2zm4.7-.6h1.3c.3.1 0 .1-.7.1h-.6zm3.2-.3c0-.4.3-.4 3.4-.4a241.3 241.3 0 0 0 7.2-.1h1.6l-1 .4c-1.3.4-2.2.4-2.4.1-.1-.2-.4-.2-.9 0l-1.9.2-3.6.1c-2.1.2-2.4.1-2.4-.3zm12-1.6c0-.2.2-.2.3-.1.2 0 .3.2.3.3h-.3c-.1 0-.2 0-.2-.2zM5 106.3c0-.2-.2-.3-.3-.3-.2 0-.2.1-.1.3l.2.2c.1 0 .2 0 .2-.2zm79.7 0c.4 0 .4-.2-.1-.9-.3-.4-.8-.7-1-.7-.5 0-.6.3-.2 1.5.1.4.6.4 1.3.2zm13.2 0a1 1 0 0 0-.7 0c-.2.1 0 .2.4.2.3 0 .5 0 .3-.1zm-16-.2h-.5c-.2 0-.2.1.1.1.3 0 .5 0 .4-.1zm22-.8c.5-1.5.6-4 .7-15.6.1-7.6 0-11.7-.1-11.7-.5 0-.6.8-.4 4.4l.2 4.8a99 99 0 0 1-1 19c.2 0 .5-.4.7-.9zm-65.9 0c0-.3-1-1-1.2-.8-.1.1 0 .4.3.6.6.4 1 .5 1 .2zm14.6-.3 2-.6c0-.1-.7-.3-1.7-.3-2.2-.2-4.6-1-6-2-.8-.5-1-.6-1.3-.3-1.1.9 0 1.6 3.3 2.1 2.6.4 2.8 1 .3.6-1 0-2-.2-2.2-.3-.3 0-.3 0-.1.2.2.2 3 1 3.8 1l2-.4zm35.3-1.3a303.5 303.5 0 0 0-.2-29.4c.2-3.7.2-4.8 0-5.4-.3-.5-.4-1.8-.3-5.2.2-4 .1-4.5-.3-4.6-.3-.1-.4 0-.5.5-.1.3-.1.7 0 .8 0 .1 0 .5-.2.8-.1.3-.2 0-.3-1l-.5-1.6-.2.4c0 .3-.2.4-.5.4-.4 0-.6.2-.6.6 0 .3.1.5.3.5.1 0 .3-.1.3-.3 0-.1.1-.2.4-.2.5 0 .5.4-.1 1.4-.4.7-.5 1-.3 1.9.2.6.3 2.5.4 4.3 0 4.4 0 4.2.3 3.9.3-.3.5-3.1.6-6.6 0-1.2 0-2.3.2-2.3.3 0 .2 7-.1 9.5-.2 1.3-.1 1.6.2 1.6.3 0 .4.3.4 1.5 0 .8 0 1.3-.1 1 0-.5-.4-1-.8-1.4-.6-.6-.6-.6-.6-.1v5c-.1 7 0 8.9.3 8.7.1 0 .2-.8.2-1.7 0-1.4 0-1.5.3-.4.3 1.4 0 3.3-.5 3.3-.3 0-.3 1.4.1 5.3l-.1 2.6c-.2.6-.2 1.2 0 1.2l.2 2c0 1.5.3 3.4.7 4.4 0 .2.3.4.6.4.4 0 .5-.3.7-1.8zm-1-9c-.2-6.4-.3-17.4 0-17.3l.2 7.3c0 4 .2 8.4.3 10V99c-.3 1.4-.3.7-.5-4.3zm-1-16.6c-.3-.7-.3-1.5 0-1.5.2 0 .3.4.3 1 0 1-.1 1.1-.4.5zm21.2 26.6c0-.2-.1-.3-.3-.3-.2 0-.2.1-.1.3l.3.2v-.2zm3.7.1-.4-.4c-.3-.3-.4-.2-.4.1 0 .2.2.4.4.4h.4zm-72-.7c-.1-.2-.3-.2-.4-.1-.1 0 0 .3.2.4.4.3.7 0 .3-.3zm2.4 0c0-.1-.2-.2-.5-.2-.6 0-1-.5-1-1.3 0-.6-.1-.7-1.1-.9-.7 0-1.5-.2-1.9-.3-.4-.2-.6-.2-.5.1 0 .2.7.5 1.4.7.8.3 1.4.7 1.9 1.3.6.8 1.7 1.3 1.7.6zm52.7-.8c.2-1 0-1.6-.3-1.4-.2.1-.3-.2-.3-.6l-.2-3.8c-.3-3.5-.4-21.3-.2-23 .3-1.8.7-1 .5 1.3-.3 3.1-.2 20.3 0 22.1.3 1.6.3 1.6.5.7.1-.5.2-1.9.1-3 0-1.1 0-2 .2-2.1l-.1-.8c-.3-.6-.3-1 0-2V89a148 148 0 0 0 .3-19c.1-.3.2-.5 0-.6-.1-.1-.2-.4 0-.8 0-.4 0-.5-.4-.4-.2.1-.5 0-.6-.1-.1-.2-.2-2.3-.2-4.7 0-3.8 0-4.4-.4-4.4-.6-.1-.9 1.7-.8 5.2v6.2l.1 19.3c.1 8.6.3 13 .6 14 .2.8 1 .6 1.2-.4zM93 71.4c0-2 .1-2.7.5-2.7.3 0 0 3.6-.3 4.2-.1.3-.2-.3-.2-1.5zm-55.3 32.2-.3-.2c-.2 0-.2 0-.1.2 0 .2.2.3.2.3.1 0 .2-.1.2-.3zm6.8.2c0-.1 0-.2-.2-.3-.2-.1-.3 0-.3.1 0 .2.1.3.3.3l.2-.1zm-8.7-.7c0-.2-.1-.3-.3-.3l-.2.4c0 .3.1.4.2.3.2-.1.3-.3.3-.4zM7.6 92.3c0-9.2-.3-15-.7-15.3-.2-.2 0 20.3.2 23 .2 2.7.3 3.4.5 3.4v-11zm47 10.7c0-.3-.3-.4-.8-.4-.8 0-1 .2-.6.6.3.3 1.4.2 1.4-.2zm29.9-.8c0-.4.1-1 .3-1.4.2-.6.2-.6-.2-.6-.5.1-.9 1.1-.7 2 .2.8.6.8.6 0zm-32.3-.3c1.1-.3 1.1-.4.4-.4l-1-.2c-.2-.2-1-.4-1.6-.5l-1.4-.1.8.7c1 1 1.2 1 2.8.5zm53-.9c-.3-.3-.3-.3-.3.5s0 .8.3.5v-1zm-22-.8c0-.6 0-.8.3-.8s.5.1.5.2c0 .2 0 .3.2.3s.3-.6.3-1.3c0-.7-.1-1.4-.3-1.5-.1 0-.2.3-.2.8 0 .7-.2 1-.4 1-.3 0-.4-.4-.4-1.4v-4.3l-.5.8c-.3.6-.4 1.3-.2 4 .2 3.6.4 4.5.7 3.6v-1.4zm-39.8.5c.1-.4.3-.5.6-.4.6.1.7-.1.2-.6-.2-.3-.2-.5.2-1.1.4-.8.4-1 0-2.3-.2-.8-.6-1.4-.7-1.4-.1 0-.2.2-.1.5l.3 2c.2 1.4.1 1.5-.3 1.4l-.8-.2c-.2 0-.4-.3-.6-.7L42 97l-.6 1c-.4 1-.4 1.3-.2 2 .2.8.3 1 .5.5.3-.6.7-.5.9.1.2.7.6.7.8 0zm-3.6 0c0-.1-.3-.3-.7-.3-.6 0-.7.1-.4.3.5.3 1 .3 1 0zm7.7.1c-.2 0-.3-.5-.3-1 0-1.2-.7-1.3-1-.2-.5 1-.2 1.4.8 1.4.5 0 .7-.1.5-.2zm6.6-.2c0-.2-.2-.4-.4-.4-.7 0-.5.5.3.8v-.4zm74.3-.7c0-.4-.1-.8-.3-.8l-.2.8c0 .5.1.8.2.8.2 0 .3-.3.3-.8zm-16.4-.4c0-.6-.1-.9-.3-.8l-.2 1c0 .4.1.7.2.7.2 0 .3-.4.3-.9zm-60.2.3c.5-.4.5-.4 0-.4-.9 0-1.7.3-1.6.5.3.4 1 .3 1.6-.1zm-16.5-1c.2-.4.6-.9 1-1 .4-.2.5-.4.4-.8 0-.2 0-1.1.3-2 .5-1.8.5-2.4-.1-2.8-.7-.3-2 0-2.2.4-.2.5.2.8.6.6 0 0 .3 0 .4.2.4.3 0 1.5-.4 1.5-.2 0-.2.3-.1.7.1.5 0 .8-.5 1.2-.3.3-.5.5-.3.5.3 0 .4.2.2.7-.1.6 0 1.6.3 1.6 0 0 .3-.3.4-.8zm4 .6c0-.2-.2-.3-.5-.3-.2 0-.3.1-.2.3l.4.2c.1 0 .2 0 .2-.2zm10 0c0-.3-.7-.6-1-.3l.1.4c.3.2.9.2.9 0zm4.2 0c0-.2-.2-.3-.5-.3s-.5.1-.4.3l.6.2c.2 0 .3 0 .3-.2zm-20-1.5c-.3-.4-.3-.3-.3.4 0 .8 0 .9.2.5.2-.3.2-.6 0-1zm46.3.2c-.2-.7-.5-1-.7-.6-.3.4 0 1 .5 1 .2 0 .3 0 .2-.4zm25.9-1.8c.3-.4 0-2-.3-2-.2 0-.2 1-.2 2.2 0 1.2 0 1.7.1 1.2 0-.6.3-1.2.4-1.4zm5 0c0-2 .2-2.7.7-2.7.3 0 .3.3.2 1.6a389.9 389.9 0 0 0 1-35.3c.3-3.4.5-15.3.4-17.5-.1-2.7 0-6 .2-11.6.1-4.1.1-5-.2-5.3-.3-.1-.3-1.7-.4-7.5 0-4-.2-7.2-.3-7l-.7 6.6c-.4 6.1-.4 11.3-.3 29.5 0 6.3-.1 12.2-.5 17.8a90 90 0 0 0 .1 11.5c0-1.6.6-.6.6 1.2 0 1-.1 1.7-.3 1.7-.1 0-.3-.4-.3-.8v-.7l-.2.7a94 94 0 0 0-.2 7.8 259 259 0 0 1-.1 11.6c.2 0 .3-.8.3-1.6zm.5-15.3c0-.3.1-.4.2-.2v.5c-.1.1-.2 0-.2-.3zm-.1-8.9c.3-5.1.6-6.2.5-1.4-.1 2.3-.3 4.3-.4 4.5-.2.1-.2-1-.1-3zM53.3 97.5c0-.1-.3-.2-.7-.2-.9 0-1.4-.3-1.4-.7 0-.5-2.4-.7-3.2-.2-.7.5-.7.8.2 1 .4 0 .9 0 1.2-.3.4-.4.5-.4.6 0 .1.5.4.6 1.7.6.9 0 1.6 0 1.6-.2zM40 97.3c0-.2 0-.3-.2-.3s-.2.1-.2.3l.3.2.1-.2zm3.1-1c-.2-.4-.2-.4-.6 0-.4.4-.4.5 0 .8.5.3.6.3.7 0l-.1-.8zM3.3 94.2C3 93.8 3 94 3 95.3c0 .9 0 1.7.2 1.8.3.3.4-2.4 0-3zm50 1.7c0-.3-.8-.3-1 0 0 .2 0 .5.2.6.3.2.8-.1.8-.6zM66 94.4a111 111 0 0 1-.7-8.5c-.2 0-.8 5.3-.6 6a120.6 120.6 0 0 1 .8 4.3c.2.6.7-1 .5-1.8zM84.5 96c0-.2-.1-.4-.3-.4l-.2.4c0 .2 0 .4.2.4s.3-.2.3-.4zm31.6-3.3c0-2 .2-4.4.3-5.5.1-1.4.1-1.7-.1-1.5-.3.2-.4 2-.5 5.6v5l.3-3.6zM5.6 93c0-.5-.1-.1-.1 1v1-2zm36.7 2.2c.3-.4.4-1 .2-1.6-.1-.7-.3-.9-1-1-.4 0-.9 0-1 .2-.3.5 0 1 .5 1.1.4 0 .6.3.6.5 0 .4-.2.4-.7.3-.7-.1-1.4.2-1.4.7 0 .2.8.3 1.8.4.4 0 .7-.2 1-.6zm21.5-.7c-.3-1-3.6-4.5-4.2-4.5-.4 0-2.4-2.2-2.4-2.7 0 0 0-.2-.2-.2s-.3.2-.3.5c0 .7.8 3 1.3 3.7.3.5.4.6.8.2l.9-.4a17.4 17.4 0 0 1 4.1 4.2c.2 0 .2-.3 0-.8zM11.2 93c0-2.1-.2-2-.3.4V95c.2 0 .3-1 .3-2zm37.3 1.8c1.2-.7.3-1.8-1.7-2.3-1.3-.3-1.5-.3-2 .2-.7.5-.5 1 .4 1 .3 0 .8.2 1 .4.2.3.5.4.9.3.4-.1.6 0 .6.3 0 .4.1.4.8 0zm32.6 0c0-.2-.2-.3-.4-.3-.3 0-.4.1-.4.3 0 .1.1.3.4.3.2 0 .4-.2.4-.3zm3.2-.3c.1 0 0-.3 0-.4-.2 0-.3 0-.3.3 0 .4.1.5.3.1zm-74.4-2c-.2-.4-.3-.2-.3.7 0 1.1 0 1.1.3.5.2-.5.2-.9 0-1.2zM106 91l.1-2.8c.4-.4.6-3.8.7-11.3l.3-7.1c.3-2 .3-12 .1-12.3-.4-.6-.7.2-.9 2.2l-.5 6.7-.4 4.8.1-5.6c0-5 0-6.4-.5-5.7l-.2 2.8c0 3.2-.1 3.5-.7 3-.3-.3-.4-.2-.2.2l.2.7.4.2c.4 0 .4 0 .1.3h-.7c-.2-.2-.5-.2-.7-.1-.5.2-.6.6-.2.6.2 0 .3.2.3.5 0 .4 0 .4.6 0l.8-.5V69c-.2 1.8-.2 5.6 0 6 .2.3.3.3.6 0 .4-.3.4.3.2 6.7-.2 8.6-.3 12-.2 12.2h.5c.2-.2.3-1 .2-2.9zm-.5-18.3v-.8 1.5-.7zm-55 20.2c.2-.1.4-.4.4-.7 0-.3.3-.6.8-.8.8-.3 1-.5.5-1.2l-.4-1.1c-.2-.8-1.6-2-2.3-2-.2 0-.5 0-.5-.3 0-.8 1.3-.4 2.6.8l1.5 1.2v-1c-.2-1.1-1-2.2-1.7-2.2-.3 0-.5 0-.5-.2 0-.1-.3-.3-.7-.4-.5-.1-.8 0-1.4.7-.5.5-.8 1-.8 1.1 0 .2.7.9 1.6 1.5.8.7 1.6 1.5 1.6 1.7 0 .6-.6 1.7-.9 1.7-.4 0-1.2 1.2-1 1.4 0 .1.2.2.4 0l.7-.2zm-3-1.4c-.4-.5-1.1-.8-1.7-1-.9 0-1 0-1 .5s.2.7 1.3.9c2.2.5 2.4.4 1.5-.4zm15.7-.4c-.1-.7-.6-1.3-1.3-2a18 18 0 0 0-3.7-2.7v.9c.2.9.8 1.8 1.2 1.8.2 0 1 .7 2 1.5 1 1 1.8 1.6 1.9 1.5l-.1-1zm55.2-2.3-.1-2.8a61.6 61.6 0 0 1-.5 6.1c.3.5.6-.8.6-3.3zm-36.2-.1c-.1-2-.3-2.9-.6-3.1-.3-.3-.4-.3-.2 0l.3 2.2c.2 1.2.1 1.6-.1 1.8-.5.3-.4 1.9 0 2.2.7.4.8-.4.6-3.1zM9.8 91.1c0-.2-.2-.1-.2.2 0 .3 0 .4.2.3v-.5zm32.6-.4.7-3.3c.2-1.3.6-2.9 1-3.5a17 17 0 0 0 1.2-5c0-.4 0-.6-.4-.6s-.5.4-.6 1.8c-.1 1.4-.2 1.7-.6 1.7-.5 0-.6.2-.8 2.5a30.3 30.3 0 0 1-1.8 7.2c0 .1.2.2.5.2.4 0 .6-.3.8-1zm-38-2c-.3-.2-.4-.1-.2.4l.2 1.4c0 .6 0 .4.1-.3 0-.7 0-1.3-.2-1.5zm44.6 2c0-.3-.6-.6-1-.6-.3 0-.2.2.1.4.6.5 1 .5 1 .2zm-38-4.5c-.3-.3-.3-.2-.3.6 0 .6 0 1.7.2 2.5l.2 1.5v-2l-.1-2.6zM50 90c0-.4-1.6-1.8-2.2-2-.4-.2-.7 0-1.1.5-.7 1-.8 1.5-.3 1.5.2 0 .4-.2.4-.4 0-.6.8-.5 1.7.1 1 .6 1.5.7 1.5.3zm-12.2-.2h-.6c-.2 0-.1.1.2.1l.4-.1zm2.4-2.2c1-2.8.6-3.4-1.5-2.4-1.5.7-1.5 1 0 .9.8-.1 1.2 0 1.2.1 0 .2-.3.3-.6.3-1 0-3.5 1-3.7 1.5-.1.3 0 .4.2.3l1.4-.6c1.4-.5 2-.4 1.8.5-.1.7.1 1.6.4 1.3l.8-1.9zM9.8 88.8c0-.3-.2-.2-.2.1 0 .3 0 .4.2.4v-.5zm27.6.1c1-.4 1.4-.9.7-.9-.6 0-2.3.9-2.3 1.1 0 .3.4.3 1.6-.2zm91.3.2c0-.1-.3-.5-.7-.8a3.9 3.9 0 0 1-1.4-2.8c0-1 .5-.7 1 .5.3 1.3 1.3 2.1 2.8 2.5 1.4.4 6.5.6 6.4.3a11 11 0 0 0-3.7-1.6c-.6 0-1.6-.5-1.8-.9-.1-.1-.7-.3-1.2-.3s-1-.2-1.2-.4c-.3-.5 0-.9.5-.5.6.5.9 0 .4-.9-.4-.9-1.1-4.2-1.1-5.8 0-1.6.6-1 .8.7.3 2.5 1 4.7 1.6 5.4l1.5 1c.4 0 .8.4.8.5 0 .4 2.7 1.5 3.5 1.5l.6.2c.1.2.4.3.7.3.3 0 .5-.1.5-.3 0-.1-.1-.2-.4-.2-.7 0-1.7-.6-1.8-1.1-.1-.3-1-1-2-1.8-2.5-1.6-3.4-3.1-3.6-6.2-.1-1.2-.3-2.6-.5-3-.5-1.3-.5-1.8 0-1.4.4.4.9 2 1 4.4.2 1.6.4 2.2 1.1 3.2.8 1.2 3.6 3.4 4.3 3.5.2 0 .4.2.5.5.2.6 1.3 1.2 1.9 1 .4-.2.4-1 0-1-.7 0-2.8-2.5-3.1-3.8-.3-1-.3-1.4 0-2.1a4 4 0 0 0 0-2.4c-.5-2.4-.6-4.4-.3-4.4s.4.8.3 1.4l.4 1.9c.3 1 .4 2.5.4 3.5 0 2.3.2 3 2.2 4.8 2.1 2 2.5 1.8 1.2-.6a11 11 0 0 1-1-2.5c0-.2-.2-.7-.5-1-.3-.5-.3-.8 0-1.8a10 10 0 0 0-.5-5.8c-.7-2.3-.7-2.3-.4-2.3.3 0 1.2 2.3 1.6 4.2.3 1 .3 1.7 0 2.9-.2 1-.2 1.7 0 2l.7 2c.6 2 1.9 3.2 3.4 3.4 1 .2 1 .2.6-.4l-1-.7c-.4 0-1-.7-1.5-2-1.1-2.3-1.3-3-.7-3.4.4-.2.4-.5.3-2.2l-.3-2.6c-.1-.4-.1-.8 0-.8.5 0 1.2 4.5 1 6-.1 1.2 0 1.5.8 3 1 2 1 2 3.3 1.7.4 0 .5-.5.5-1.9 0-1.8.4-2.5 1-2 .4.6.5.4 1-1 .1-.7.4-1.4.6-1.6.6-.4 1.7.2 1.7.9 0 .8.8 2.4 1.2 2.3l.4-1.4c.3-2.2 1.5-2.6 2.1-.8.4 1 1.5 1.6 2 1.2.6-.6.4-1.3-.4-1.8l-1.8-1.2c-.7-.7-.9-.7-1-.4-.2.6-.5.4-.7-.6-.3-1.3-1.9-4-3.2-5.5a14.7 14.7 0 0 0-6.9-3.7c-1.7-.6-2.5-1-2.5-1.3 0-.6 2-.2 4.9.9l2.9 1c1 .3 1-.3 0-1.2-.8-.8-.8-1.4.1-.8.7.4.8.4.7-.2v-.6c.5 0 .4-1.1-.1-1.8-.2-.4-.4-1-.4-1.5 0-.6 0-1-.5-1.3-.9-.6-2.3-.8-2.7-.4-.5.3-2.1.1-3-.4-.5-.3-4.7-.5-5.7-.2-.7.2-.6.4.7 1.7 1.5 1.5 2.1 2.6 1.9 3.8-.1.5-.3 1-.5 1-.1 0-.2-.4 0-1 0-.7 0-1.2-.6-2-1-1.7-2.6-3.2-3.6-3.2-.8 0-1.4.6-.7.8.5.2 1.8 1.6 2.4 2.7.6 1.2.6 4 0 4.2-.3 0-.4-.1-.2-.8v-2.1c-.2-1.1-.4-1.6-1.6-2.8-1.5-1.6-2-1.7-4.3-1-1.6.4-1.9.8-1.2 1.3.3.2.4.4.3.5-.2.2-1.3-.3-1.6-.7-.1-.3-1.5.5-1.5.8l.7.5c.9.4 1.6 1.8 1.1 2.3-.1.2-.3 0-.5-.6-.2-.5-.6-1-1-1.1-.3-.1-.6-.4-.6-.7 0-.3 0-.3-.9 0-1.3.8-2.3 1.8-2.3 2.6 0 .4.6 2 1.4 3.3 1.5 2.8 1.5 3.2 1.2 7.7-.1 1.8 0 2.2.6 3.7l1.1 2c.7.6 2 2.6 2 3 0 .6-1.1.1-1.5-.6l-1-1.7c-1-1.2-2.2-3.7-2.2-4.6 0-.9-.3-.8-1.7.3-1.1 1-1.1 1-.9 2 .3 1.1.6 1.3 1 .5.3-.6 1.4-.8 1.4-.3l-.8 1c-1 1-1 1-.3 2.4 1.2 2 2.2 3.3 2.5 3.1.3 0 .6.2.8.6.8 1.6 2.8 3.1 2.8 2.2zm-3.7-4c.1-.5.9-.6.9 0 0 .2-.2.4-.5.5-.3 0-.4 0-.4-.4zm-1.6-2.2c0-.4.8-1.2 1.1-1.2.4 0 .2 1-.3 1.3-.7.3-.8.3-.8-.1zm10.9-1.3c-.2-.4-.4-1.6-.4-2.8-.1-1.1-.5-3-.9-4-.4-1.3-.5-2-.4-2.2.2-.2.3-.2.4 0a24.2 24.2 0 0 1 1.7 8.5c.3 1 0 1.4-.4.5zm-7.5-1.2c-.5-.7-.6-1.4-.7-3.4-.1-1.7 0-2.5.1-2.4.2 0 .4 1.1.4 2.3a7 7 0 0 0 .7 3l.6 1.2c0 .6-.5.2-1-.7zm17.3 0-.3-1.5c0-.4.2-.3.7.7.7 1.5.7 1.5.3 1.5-.1 0-.4-.3-.7-.8zm3-2.8c-.5-.6-.6-1.5-.2-1.5.1 0 .4.4.6.9l.4 1c.3.5-.4.2-.8-.4zm-19-.9-.4-1.7c0-.8-.4-2-.6-2.8-.6-1.6-.6-2-.3-2l.6 1 .7 1.6c.2.4.3 1.2.3 2.4 0 1-.2 1.7-.3 1.5zm15.3-1.4v-1.4c.2-.2.4-.2.4 0 .2 1.8.2 2.5 0 2.5-.1 0-.3-.5-.4-1.1zm3.2-.4v-.5c.2-.1.3 0 .3.4 0 .6-.1.7-.3.1zm-22.2-8.5c-.5-1-.6-1.4-.2-1.4.3 0 1 1.4 1 2 0 .7-.4.4-.8-.6zm10-.1c-.4-2.2-2.7-5.8-3.8-5.8-.2 0-.3-.1-.3-.3 0-.1.3-.2.7-.2 1.1.1 3.7 4.2 4 6.3.1 1.4-.4 1.4-.6 0zm-8.5-.2-.1-.8c0-.5 0-.6.4-.3.2.2.4.5.4.8 0 .5-.3.7-.7.3zm4.9-1.9c-.7-.5-1.1-1-1-1.2.2-.2 2.6 1.7 2.6 2 0 .5-.5.2-1.6-.8zm14 .1c-.8-.6-3.8-1.7-4.8-1.7-.2 0-.5-.1-.5-.3 0-.1.2-.2.5-.2.5.1.6-.6.2-1.9l-.2-.6.6.6c.3.3.5.9.5 1.2 0 .8.3 1 2.2 1.6 1.2.4 2.8 1.4 2.8 1.9 0 .3-.7 0-1.4-.6zm-20.2-.6c-.5-.6-.5-.8 0-.8.3 0 1.2.8 1.2 1.1 0 .4-.8.2-1.2-.3zm22-.6c0-.1-.5-.5-1.2-.8a169.9 169.9 0 0 1-2.8-1c-.6-.2-1-.8-.3-.8.2 0 .4-.2.5-.3 0-.3.3-.2.6.2.5.5 2.2 1.4 2.7 1.4.3 0 .3-.2.2-.6-.1-.5 0-.7.2-.7.4 0 .6.4.5 1.4 0 .3 0 .7.2 1 .2.4.2.5-.1.5-.2 0-.4-.1-.4-.3zm-83.8 25c0-1-.1-1.2-.8-1.7-.7-.5-1.1-.6-1.9-.8-.2 0-.8-1.9-.6-2 0-.1.8.4 1.5 1.2.8.8 1.4 1.3 1.5 1.2 0-.4-2-3.8-2.4-3.8-.3 0-1.3 1.6-1.3 2.2 0 .9.8 2.2 1.6 2.7.5.2 1.2.8 1.5 1.2l.8.8.1-1zm-8.2-1.8c0-.7-.8-1.8-2.3-3.1-1.3-1.2-1.6-1.2-1.8-.4-.2.9-.2 1.2.2 1.2.1 0 .2-.2.1-.5 0-.3 0-.5.2-.5.3 0 1 .8 1 1.3s2 3 2.4 2.8l.2-.8zm-18.3.3c.2-.2.2-.6.1-.9 0-.3.1-.7.5-1 .8-.8 3-1.7 3.4-1.5.2.2 0 .3-.5.5-1.1.4-1 .5.3.4l1.1-.1.5-1.9c.3-1 .6-3.6.7-5.6.4-5 .5-6.5.8-6.5.1 0 .2 1 0 2.3 0 2.8.4 3 .8.3.4-2.9 0-4.4-1-3.6-.2.2-.3.2-.3-.3 0-.8-.3-.7-2 .6-1.9 1.4-3.2 2.9-3.5 3.8-.2 1 .1 1 1 .2 1.5-1.4 2.4-2 3-2 .4 0 .7.2.7.3 0 .1-.2.3-.4.3-1 0-4 2.5-3.8 3.1 0 .2.8-.2 1.7-.9.9-.6 1.8-1.2 2.2-1.2.8 0 .7.2-.6.8a11 11 0 0 0-2.5 1.9c-1.4 1.4-1.4 1.4-.7 1.5.4 0 1-.1 1.5-.6 1-.9 2.2-.8 2.2 0 0 .4-.1.7-.3.7l-.2-.3c0-.6-.6-.6-1.4 0l-.7.7.7-.1c.9-.2 1 .2 0 .7l-1 .9c-.1.4 0 .4.7 0 1.5-1 2.8-.7 1.7.4-.5.6-.5.6-.1 1 .5.3.6.9.1.9-.2 0-.2 0 0 .2.5.3-.1.6-1.3.6-1 0-2.2.6-2.8 1.7-.3.5-.7 1-1 1-.2.1-.4.5-.4 1.1 0 1 .3 1.2.8.6zm44.2 0s0-.2-.2-.2-.3.1-.3.3c0 .1.1.2.3.2.1 0 .2 0 .2-.2zm21.8-7.1c0-6.4 0-8.2-.5-5-.3 2.8 0 12 .3 11.6l.2-6.6zm-98 4.7c-.1-.3-.2 0-.2.6 0 .7 0 1 .1.6v-1.2zm51.3.4c0-.2-.7-1-1.7-2-1.1-1-1.6-1.7-1.4-1.9.2 0 1 .6 2.2 1.7l1.9 2 .5-.8c.4-.4.6-.9.5-1-.1-.1-.3 0-.5.2-.6.8-1.1.5-2.2-1.3-1.3-2.2-1.7-2.8-2.1-2.8-.5 0-1.7 2.8-1.3 3 .5 0 3.6 3.4 3.6 3.7 0 .5.5-.3.5-.8zM11 84.1c-.1-.2-.2 0-.2.5s0 .7.2.4v-.9zm1.3-1.6-.1 1v1-2zm35 2.5c.2-.3 0-.5-.6-1-.8-.4-1-.4-1.1 0-.3.6-.2 1 .3 1.2.8.2 1 .2 1.4-.2zm-9-.4c.4-.4.3-.4 0 0-.5.3-.7.5-.4.5l.4-.5zm25-.7c0-.3.2-.8.4-1.1.2-.5.2-.7 0-1-.1-.1-.3-.4-.3-.7 0-.2-.2-.5-.4-.6-.2 0-.4-.3-.4-.5s-.1-.5-.4-.7c-.6-.5-.5.1.3 2 .7 1.9.8 2 .4 2l-.7-1.3c-.5-1.6-.8-1.9-1.2-1.5-.4.4-.1 1.3.8 2.8.9 1.3 1.5 1.5 1.5.6zm54.2-2.5c.1-2.2 0-2.8-.2-3.3-.4-.5-.4-.4-.4 1l-.2 3.6c-.2 1.8-.1 2 .2 1.7.3-.3.5-1.1.6-3zm-36.6 2.4a1 1 0 0 0-.7-.1c-.6.2-.4.3.4.3.5 0 .6 0 .3-.2zm-33.2-.2c.3-.1.2-.3-.5-.8a4 4 0 0 0-1-.6c-.4 0-.2.6.4 1 .7.6.5.6 1 .4zm105.3-.5 1.7-.5c.3-.1.2-.2-.1-.5-.4-.3-.7-.3-.8-.2-.5.5-2.3 0-2.8-.7-.7-1-1-.5-.4.6.5 1.2.5 1.5-.1 1.3-.5-.1-.7.1-.4.5.2.2 1 0 2.9-.5zm-88.7 0c0-.2-.2-.3-.4-.2-.3.2-.2.6.2.6.2 0 .3-.1.2-.4zm-25.6-1.6c1.7-1.6 2-2 1.4-2-.4 0-3.4 2.7-3.4 3.1 0 .6.2.5 2-1.1zM49 82c0-.1-.2-.4-.5-.5-.3 0-.9-.5-1.2-.8-.7-.7-1.2-.6-1.2.2 0 .3.5.7 1.1 1.1 1.1.7 1.8.7 1.8 0zm32.6 0c.4-.4 0-.6-.8-.3-.5.2-.6.3-.3.5.6.3.7.3 1-.1zm-24.1-.2c.2-.3.2-.6-.4-1.5-.7-1.3-2.8-3.7-3.2-3.7l-.6.6c-.2.4-.2.6.2 1l1 1.2c.7 1.2 2 2.7 2.4 2.8l.6-.4zm97.7-1.3c-.4-.3-.4.3-.1 1 .1.5.2.5.3 0 0-.4 0-.8-.2-1zM8.7 80.4v.9-.9zm31.7 1c.1-.2 0-.3-.2-.3s-.4.1-.4.3c0 .1 0 .3.2.3s.3-.2.4-.3zm75.5.1h-.5c-.2 0-.1.1.2.1.2 0 .4 0 .3-.1zm-66.2-.8c.6-.7.5-1.1-.7-1.9-1.2-.7-1.8-1.3-1.8-1.7 0-.4.7-.2.9.2.1.3 2.2 1.6 2.4 1.4.3-.6.7-1.7.7-2.5 0-.7-.2-.9-.8-1.1a7 7 0 0 1-1.8-1.2l-1.2-1-.5 3c-.3 3.5-.3 3.6 1.5 4.7 1 .6.8.6 1.3.1zm-.4-3.5c-.9-.4-1.8-1.5-1.8-2 0-.6 0-.5 1 .4l1.6 1.3c.9.6.3.8-.8.3zm14.8 2.6c0-.5-.1-.8-.5-.9-.4 0-.5-.2-.4-.7.1-.4 0-.5-.2-.5-.6 0-.6.6.1 2.2.6 1.3 1 1.3 1-.1zm17.6-.2c0-1.4-.4-1.8-.7-.6 0 .5-.3 1-.4 1.1-.5.5-.4.7.3.8.8.2.9.1.8-1.3zm-44.2 1c.1-.1 0-.3-.2-.3s-.4.2-.4.3c0 .1 0 .3.2.3s.3-.2.4-.3zM60 79.4c1.4-1.7 1.5-1.9.8-2.1-.6-.2-1.3-1.4-1.3-2.1 0-.6-1-2.5-1.7-3.1-.3-.4-.4-.6-.2-.8.1-.2.5.2 1.1 1.1a3926 3926 0 0 0 3 4.4l.5-.9c.4-.8.4-.9-.2-1.2-.5-.2-.8-.6-1-1.3-.2-.6-.6-1.4-1-1.8L58.7 70a4 4 0 0 0-.8-1.1c-.5-.3-.5-1 0-1 .2 0 .8.8 1.3 1.7.5.9 1.3 2 1.6 2.3.4.3 1 1 1.2 1.6l.7 1c.3 0 1.2-2.4 1.1-3l.3-1.5c.3-.6.3-.9 0-1 0 0-.2-.2 0-.4 0-.4-3.7-4.2-4.4-4.4-.4 0-.5-.4 0-.7.2-.1 3.7 3 4.7 4.2.3.4.5.5.7.2 0-.2 0-.5-.4-.7-.5-.4-.6-.5-.1-.8.4-.3.3-.4-.4-1.3-1-1.3-3.7-3.8-4-3.8-.4 0-2.2 2.8-2.2 3.5 0 .3 1 1.5 2.5 3.1 2.3 2.3 3.2 3.7 2.7 4.2-.2.2-1.2-.8-1-1.1a276.4 276.4 0 0 1-3.8-4.4c-.5 0-1.4 1.5-1.6 2.4 0 .5-.4 1.2-.6 1.6a5 5 0 0 0-.7 1.6c-.1.8 0 1 .5 1.6 2 2.2 3.3 4.3 3 5-.3.4-.6.2-1-.8-.1-.6-.8-1.7-1.5-2.6-1.1-1.4-1.2-1.4-1.6-1-.6 1-.4 1.8 1.3 3.6a23.2 23.2 0 0 1 2.3 2.8l1.4-1.4zM4 78.2c0-.7-.2-1.3-.3-1.3-.3 0-.4 2.2 0 2.5.2.3.3.2.3-1.2zm31.8.4V78c-.1-.2-.6.2-.6.6 0 .6.4.5.6 0zm9.8-3c-.3-.4-.7.5-.5 1.5l.2 1 .3-1.2v-1.3zM64.1 77c0-.1 0-.4.2-.6.1-.4 0-.5-.6-.5-.7 0-1 .6-.8 1.2.1.4 1.2.3 1.2-.1zm59.2-1.4c.5-.2.6-.5.7-2.2.2-2.4 0-3.2-1-4.7l-1.1-2c-.5-1-.9-1.4-.9-.7 0 .4 0 .5 1 3 .7 1.6.8 3.2.2 3.2-.2 0-.4-.4-.5-1.2-.2-2.2-.6-1.9-.6.6 0 2.2.3 2.7 1 1.9.3-.5 1.2-.8 1.4-.5.2.3-.9 1.3-1.9 1.8-.9.3-1.1 1-.7 2 .1.4.3.3 1-.3l1.4-1zm-41.8 1.1v-.5c-.3-.3-1 0-1 .4 0 .5.7.5 1 .1zm75.8-1.7c0-.3-.3-.4-1-.4s-.7 0-.3.4c.7.5 1.3.5 1.3 0zm-121-.7c0-.1 0-.2-.2-.2s-.3.1-.3.2l.1.3.3-.3zm15.4 0c0-.1-.3-.4-.7-.5l-1.5-1.1c-.5-.7-.8-.8-1-.6-.4.4 0 1 1 1.8 1 .7 2.2 1 2.2.4zm103.8-.3-.4-1.3c-.1-1-.1-1 .3-1.2.6-.2.4-.6-.3-.6-.3 0-.7-.3-1-.9-.4-1-1-1-.7-.1 0 .3 0 .7-.3.9-.3.3-.3.5.3 1.6a5 5 0 0 0 1.4 1.5c.9.5 1 .5.7.1zm-39.2-2.5a64.7 64.7 0 0 1 0-4.7h-.3l-.3 2.4c-.2 2.4-.1 4.9.3 4.9.1 0 .3-1.2.3-2.6zm1.5.8c0-.7 0-.9-.2-.6-.4.5-.4 1.6 0 1.6l.2-1zm-66 0 .9-.3-.2-1.7c-.1-2-.4-2.8-1-2.8-.3 0-.9-.6-1.4-1.5-.5-.8-1-1.4-1.1-1.4-.3 0-1 1.7-1 2.5 0 .3 0 .8.2 1.1.2.3.5 1 .7 1.8.4 1 1.5 2.8 1.8 2.8l1-.4zM49.9 69c-.5-.6-1.1-2-1.1-2.5 0-.6.9-.3 1 .4l.4 1.2.4 1c0 .3-.4.3-.7-.1zm-1.3 2.5c.2-.2-.6-1.7-.9-1.5-.3.2-.3 1.3 0 1.5.2.2.7.3.9 0zm-9.4-1.6 2-1.6c.5-.2 1-1.6.8-1.8-.2-.2-1.6.7-2.6 1.7-.6.6-1.2 1.1-1.4 1.1-.1 0-.4.2-.4.4-.3.6-.2 1.5 0 1.5l1.6-1.3zM6.8 67.6c-.3-.6-.6.8-.4 2l.1 1 .2-1.2a5 5 0 0 0 .1-1.8zm39.5 2.2c0-.2 0-.3-.2-.3-.1 0-.2.1-.2.3v.2l.4-.2zm57.1-.3v-.3c-.2 0-.4.1-.5.3v.3c.2 0 .4-.2.5-.3zm53.8-.3c-.1-.2-.2-.2-.2.1 0 .3 0 .5.1.4v-.5zM55 68c.3-2 .4-3 .2-3.1-.2-.1-.4.3-.5.8 0 .5-.3 1.3-.5 1.7l-.3 1c.4.5 1 .3 1-.4zm-15.5-.7c2.4-2 4-2.2 3.2-.6-.4 1-.4 1 .3 1 .6 0 .6-.2.7-1.5 0-1.7-.2-2.4-.6-2l-.5.3c-.2 0-.1-.2 0-.4.2-.1.4-.4.4-.6 0-.6-2 .5-3.2 2l-1.5 1.4c-.3 0-.7 1.5-.5 1.5l1.7-1.1zm15-3-.1-.9c-.4 0-1.1 1.9-1.3 3.3V68l.5-1.3c.4-.7.7-1.8.8-2.3zm95.2 2.5c-.1-.4-.3-.5-.5-.3-.1.2-.1.4.1.7.5.6.6.4.4-.4zm-55-.5.4-1.2c.1-.1 0-.4-.1-.6-.3-.3-.4-1.3-.5-2.7-.1-2.4-.4-3.2-.8-2.6-.2.4-.3 6.1 0 7.4.2 1.1 1 1 1-.3zm-48.7.1c-.3-.5-.4-.4-.4.2 0 .3.1.5.3.4v-.6zm73-.6c-.3-.6-.3-.6-.4.2 0 .7.1.9.3.7.2-.2.2-.5 0-1zm-9.9.5-.1-.3-.3.3.1.3c.2 0 .3-.1.3-.3zm-57.7-.5c0-.2-.2-.7-.5-1a11 11 0 0 1-1-2.3c-.5-1.5-.7-1.6-.9-.4 0 .6.2 1.2 1.3 3 .6 1 1.1 1.2 1.1.7zM8 64c-.1-.3-.2 0-.2.6 0 .7 0 1 .2.6v-1.2zm32 .3a9 9 0 0 1 2.5-1.7c.6-.2.9-.4 1-1 0-.9-.6-1.4-1.5-1-1.2.7-4.4 5-3.7 5l1.8-1.3zm64.2 0c-.3-.7-1-.8-1-.2 0 .3.3.5.6.5s.5-.1.4-.4zM51 63.1l-.6-2.4c-.2-1.5-.5-2-.8-1-.1.3 0 .6.1.6.2 0 .3.4.3.6 0 .6 1 3.5 1.3 3.3 0 0 0-.5-.3-1zM9.5 60c.2-5.2-.1-12-.5-11.7-.3.2-.3 2-.3 7.4.1 6.8.3 8.5.6 8.1 0 0 .2-1.8.2-3.8zm55.3 2.6c-.4-.7-2-2.4-2.3-2.4-.6 0 .2 1.8 1.3 3 .5.5.8.7 1 .4.3-.2.3-.4 0-1zM46 62.3c.3-.7.3-1.1.1-1.3-.5-.5-.9 0-.9 1.2 0 1.5.4 1.5.8.1zm6.2.7c.2-.4-.8-1.9-1-1.6-.2.2.5 2 .7 2l.3-.4zm51.5-.4c.3-.5.1-1.3-.3-1.3l-.3-.5-.2 1c0 1.4.3 1.7.8.8zm15.3.2c-.1-.2 0-.9.1-1.5.3-1.2.1-2.3-.3-1.6-.3.5-.4 3-.1 3.3.3.3.4.2.3-.2zm-64.8-.4c.2-.3.3-1 .3-1.4 0-.4.1-.8.3-.8.1 0 .2.4.2 1 0 1.3.5 1.1.6-.2.1-.8 0-1.3-.2-1.5-.5-.4-.5-2 0-2.3.3-.1 1-2.7.8-3l-.6.2c-.6.3-.9 1.2-1.5 4.8l-.6 3c-.2.8.3.9.7.2zm97-.3c.2-.4 0-.6-.5-.6s-.7.2-.7.6c0 .9 1.1 1 1.3 0zM65.3 61a45.8 45.8 0 0 0-1.2-2.3c-.2-.7-.9-.6-1 .2-.2.5 0 1 1.2 2.2 1.5 1.7 2 1.7 1 0zM3.6 58.1c-.3-1.1-.6 0-.5 2v2.4l.3-2c.2-1 .3-2.2.2-2.4zm106 4c0-.2-.2-.3-.4-.3s-.4.1-.4.3l.4.2c.2 0 .4 0 .4-.2zm-14-.4-.3-.3-.2.1c0 .2.1.3.2.3l.3-.1zM53 60.3a5 5 0 0 0-.6-1.5c-.8-1.3-1.3-4-.7-3.8.2 0 .5.7.6 1.5 0 .8.3 1.6.5 1.8.4.3.4.1.7-1.6l.3-2.5c0-.6-1.8-1.8-2-1.3l-.8 2.6c-.8 2.6-.8 2.3.7 5 .6 1 .6 1 1 .6l.3-.8zm8.8.2c-.1-.8-.8-1.1-1-.4-.2.4.6 1.5 1 1.3v-.9zm17.8-.4c0-.3-.2-.5-.3-.4l-.2.5c0 .1 0 .3-.3.3-.2 0-.4 0-.4.2 0 .1.3.2.7.1.5 0 .6-.2.5-.7zm-38 .2c.4-.4.4-.4 0-.1-.5.3-.6.6-.4.6l.5-.5zm76-3.2a263.7 263.7 0 0 0 .6-12 1075.6 1075.6 0 0 0 .7-14 466.6 466.6 0 0 0 1-20.2c.1-2.2-.3-3-1.2-2.7-.4.2-.4.3 0 .4.7.1 1 .6.9 1l-.4 6.4a444.3 444.3 0 0 1-.7 13.8 437.6 437.6 0 0 1-1.6 24.7c-.3 6.4.4 8.6.8 2.6zm33.4 3c-.2-.1-.4-.1-.4 0 0 .4.4.7.5.5l-.1-.4zm6.3-1.2c0-1.4-.1-1.5-.6-1.6-5-.2-6-.3-6-.6 0-.4-2.4 0-3 .5-.5.6-.4 1 .5 1.4.5.3.7.2 1.3-.3.9-.9 1-.9 1.5-.2.3.3.7.5 1 .5.3 0 .6.2.7.4 0 .3.3.4.5.4l1.5.5c.6.3 1.4.5 1.8.5.7 0 .8 0 .8-1.5zm-2.9-.3c-.6-.6-.4-.8.8-.8 1.3 0 1.6.2 1.3.7-.1.5-1.7.5-2.1 0zm-113.3 1h-.3l-.2.4c0 .1 0 .2.2 0 .2 0 .3-.2.3-.3zm58.2 0c0-.6-.6-.5-.7.2 0 .2 0 .4.3.4.2 0 .4-.2.4-.5zm-39-1.4c1.2-1 2.6-2 3.3-2.4 1-.4 1.3-.7 1.3-1.1 0-.3.2-.6.3-.6.2-.1.3-.2.2-.4-.1 0-.5 0-.8.4-.4.3-.8.5-1 .4-.4 0-1 .3-1.8 1.2l-1.5 1.4c-.4 0 0-.6 1.5-2.1 1.3-1.3 1.7-1.6 2-1.3.4.3.8-.2.8-1.1 0-.5 0-.6-.5-.4h-.5l.5-1c.7-1.5 0-1-2.1 1-2.1 2.3-3 3.7-1 1.8 1.3-1.3 1.3-.9 0 .7-1.1 1.3-1.8 1.7-1.5.9 0-.3 0-.4-.4-.2-.4.3-1.3 3.2-1.3 4.3 0 .6.7.2 2.6-1.5zm5.1 1c0-.5-.6-1-.9-.8-.2.2.5 1.6.7 1.6.1 0 .2-.3.2-.7zm5.3-6.2c.2-5.1 0-6.7-.3-6.2a113.7 113.7 0 0 0-.2 12.6c.2-.3.4-3.2.5-6.4zm-27.4 5.8c0-.2-.4-.4-.6-.4-.7 0-.7.2-.1.8.5.6 1 .3.7-.4zm37.9.4c0-.2 0-.3-.3-.3-.2 0-.3.1-.2.3l.2.2s.2 0 .3-.2zm28.4-.3c0-.1-.1-.3-.4-.3-.2 0-.3.2-.2.4.2.4.6.3.6-.1zM4.4 58.3c-.3-.2-.3-.2-.3.3s0 .6.3.4c.2-.3.2-.4 0-.7zM105 59c-.2-.5-.7-.6-.9-.1 0 .2 0 .4.4.4.3 0 .5-.2.5-.3zm14.2-3.5a178.2 178.2 0 0 0 .2-18.4s-.2 2.4-.2 5.3l-.4 8c-.3 3.7-.4 9 0 8.8 0-.1.3-1.8.4-3.7zm4.6 3h-1c-.6 0-1.1.1-1.1.3 0 .2 1.8 0 2-.2zm4.8 0h-1.1c-1 0-1.1 0-.4.2.8.2 1.5.1 1.5-.1zm-2.9 0h-1.2c-.3.1 0 .2.6.2.7 0 1 0 .6-.1zm-113-.4c.3-.6 0-14.2-.2-15.4a30 30 0 0 0-.3 7.4c0 7.5.1 9.2.6 8zm92.9 0c0-.5-.3-.7-.9-.4-.4.2-.5.3-.2.5.6.4 1 .3 1 0zm-58-.7c0-.3-.3-.7-.6-.9-.5-.4-.6-.4-.7 0 0 .5.8 1.8 1 1.6.2-.1.3-.4.3-.7zM6.8 52a34 34 0 0 0-.3-4.3 63.3 63.3 0 0 0 .2 9.3c.2-.6.2-2.8.1-5zm139 5.7h.7l-.8-.3c-1-.3-3 0-2.8.3 0 .2.5.2 1 .1l1.8-.1zm-36.4-.1-.3-.3c-.1-.1-.3 0-.3.1 0 .2.2.3.3.3l.3-.1zm24.4-.2-1.6-.2c-1.1 0-1.4 0-1 .2.7.3 2.8.3 2.6 0zm-26.3-1c0-.6-.6-.8-1-.3v.7c.3.5 1 .1 1-.5zm34 .6c0-.1-.2-.1-.4 0-.2 0-.2.1.1.1.3 0 .5 0 .4-.1zm15.6-1.2c0-.7-.2-1.2-.3-1.3a256.4 256.4 0 0 0-24-1.5h-4l-4 .2c-2.4 0-3.2 0-3.1.3.1.2 2 .3 7.4.1l7.9.1c.6.2 3.6.4 10.9.7 5.9.2 8.4.4 8.5.8 0 .3-.7.3-2.9.2-4.4-.2-12.7-.2-15.2 0-4.4.4-3.7.6 2.4.7l6.7-.1c.5-.3 4.3-.2 4.7.1.3.3 2.8.7 4.4.8.8 0 .8 0 .6-1.1zm-149-1.1c0-1-.2-1.8-.3-1.9-.1 0-.2.7-.2 1.7s.1 1.9.2 1.9.2-.8.2-1.7zm121.8 1.2h-.9l.5.1h.4zm-50-1-.1.2v.4c.2-.1.2-.3.1-.5zm-63.4-1.7c-.2-.5-.2-.4-.2.8 0 1.2 0 1.3.2.7v-1.5zM45 55c0-.1-.1-.2-.3-.2-.1 0-.3 0-.3.2s.2.3.3.3c.2 0 .3-.1.3-.3zm3.4 0c0-.3-.1-.5-.3-.6l-.6-1.2c-.5-1-.8-1.3-1.5-1.3-.4 0-.4 0-.2.7.3 1 1.8 2.7 2.3 2.7.2 0 .3-.2.3-.4zm11.2-1.2c.2-.8 1.7-2.4 2.6-2.9 1.1-.6 1.3-2 .2-2a11 11 0 0 0-2.9 3.3c0 .3-.3 1-.6 1.5a5 5 0 0 0-.7 1.3c0 .5 1.3-.6 1.4-1.2zm65.2 1h-1c-.2.1 0 .2.5.2.6 0 .8 0 .5-.1zm3.2 0h-.5c-.2.1-.2.2.1.2.3 0 .5 0 .4-.1zm2.7 0c.3-.2 0-.3-.7-.3s-1.2.1-1.2.3c0 .3 1.4.3 1.9 0zM78.9 54c0-.4 0-.6-.2-.5-.2 0-.3.4-.3.7 0 .2.1.5.3.5.1 0 .2-.3.2-.7zm54.9.5H132 133.8zm-66-2.3c0-2.1 0-2.1-.5-1.6-.4.4-.5.7-.3 1.8.6 2.8.8 2.7.8-.2zm20 1.6 1.2.1 4 .2c5.3 0 5.3 0 5.2-.6 0-.7-.2-1-1-1.4-.6-.3-1-.3-2.4 0-1.2.2-1.7.2-2 0-.4-.5-1.3-.4-1.8.2-.6.7-.5.8.9.8.6 0 1.2.2 1.2.3.2.3-2.4.2-3.6-.1-.3-.1-1.1-.3-1.7-.3-.6 0-1.3-.2-1.5-.3-.3-.1-.5 0-.5.1 0 .2-.1.3-.3.2-1.5-.5-1.5-.5-1.5.4v.9l1.5-.2 2.3-.3zm8.6-.5c-.6-.1-.5-.2.3-.2.7 0 1 0 .9.2-.2.3-.3.3-1.2 0zm-47.6-.8c-.5-1-1.2-1-.8 0 .2.4.4.9.6 1 .4.6.6 0 .2-1zm108 .4c.3-.7 0-1-1-.8l-1.9-.1c-.6-.2-2.6-.3-4.6-.4l-6-.3c-1.3-.2-5.9-.4-10.3-.5l-8.3-.1-1.5-.3c-1-.3-1.2-.2-1.6 0-.6.8-.1 1.4 1 1.4h1.8l9.8.5c7.3.2 18 .7 21.9 1 .3 0 .6-.1.7-.4zm-112-1.8c1-1.6 1-1.9.3-2-.5-.2-.6-.4-.6-2a29.8 29.8 0 0 0 .3-10.7 51.2 51.2 0 0 1-.4-9.7c0-.5 0-1 .2-1.2.2-.2.3-.7.4-1.3.3-13.6.3-14.4-.3-7.4-.1 1-.3 1.6-.6 1.6-.2 0-.3.8-.5 3l-.1 3.5-.3 5.1a25 25 0 0 0 .2 6.5 33 33 0 0 0-.2 7 44 44 0 0 1 0 5.6v3.7c.1.5.7 0 1.6-1.7zm34.5-.3a222.7 222.7 0 0 0 0-20.6c-.7.2-1 1-.7 1.5.8 1 .8 6.2.2 17.7v3c.2-.1.4-.8.5-1.6zm21.9-.5.4-8.4c.1-5.4.2-6.5.5-6.2.5.3.4 1.2.4-10.1l.2-13.3c.2-2.5.2-5.6.1-7-.1-2.2-.1-2.3-.8-2.2l-.7.1.1 2.3c.2 3 .2 4.8-.2 18.5a1971.2 1971.2 0 0 0-.7 27.4h-.4c-.2-.2-.3-.7-.2-1.7.1-.8.3-8.8.4-17.8a704 704 0 0 1 .4-26l-.2-2.4-1-.1-1.4.1a20 20 0 0 0-.5 5.5 85.8 85.8 0 0 1-.6 10.5l-.1 6a485.6 485.6 0 0 0-.2 24.5c.3-.3.4-2 .6-6.3.2-5 .3-6 .6-6s.4-.2.2-1c-.3-2-.4-14.2-.1-22.2.4-11.2.4-11 1-10.5.4.2.3 4.2-.2 13.5-.4 6-.4 18 0 19.2.2.5.3 3.6.3 7.8 0 3.7 0 7 .2 7.2.1.3.5.5 1 .4.7 0 .7 0 .9-1.8zm-14.6 1.2a65.6 65.6 0 0 1 .1-10.6c.4-.8.4-.5.3 4l.1 5c.4 0 .5-1.5.4-6.3 0-2.6 0-4.9.2-5l.3-17.7c0-17 0-17.2-.5-17.2-.5-.1-.5 0-.6 5.8-.2 9.6-.2 18.5 0 24 .3 5 .2 6.3-.2 3.4-.1-1.4-.4-2-.4-1.1l-.1.7-.3 7.9c0 7 0 7.6.4 7.6.2-.1.4-.3.3-.5zm2.5.3c.2-.3.4-9 .2-9.1-.4-.3 0-18 .4-18.7.1-.1.2 6 .2 13.5 0 7.6 0 13.8.2 13.9.7.5.8-.9.8-20.8 0-11 0-20-.1-19.8a14 14 0 0 0-.2 3c0 1.6-.1 2.7-.2 2.7-.1-.1-.2-3-.2-6.4l-.1-6.3c-.7-.5-.8.5-1.1 11.9L88.6 35a120.4 120.4 0 0 1-1 16.8c0 .3 1.3.3 1.5 0zm14-.4v-.7l.3-3.7c.2-2.5.4-3.6.6-3.5.2 0 .3-.5.3-2 0-1.7.1-2.2.4-2.3.4-.1.4-1.7.3-15.3-.1-17.6-.3-20.9-.9-20.8-.3.1-.4.5-.4 2 0 9-.5 34.7-.6 36.8 0 1.6-.3 3-.5 3.4-.4.8-1 6-.7 6.5l.6.2c.3 0 .5-.2.5-.6zm1.7-2.7c.1-2.4 0-3-.3-3.2-.3-.3-.4 0-.5 2-.3 3.5-.2 4.9.4 4.3.1-.1.3-1.5.4-3.1zm-52.5 2.8c.1-.2-.2-.3-.9-.3-.8 0-1 0-1-.4 0-.2-.3-.6-.6-.9-.4-.3-.6-.8-.7-2-.1-1.5-.4-1.8-.9-.8-.2.6-.2.8.1 1.2.3.2.5.7.5.9 0 .8.9 2.3 1.4 2.4 1 .2 2 .2 2.1-.1zm2.4 0s0-.4-.4-.7c-.7-.6-.4-.9.7-.9.8 0 1 0 .8.5-.2.4.2.8 1 .8.1 0 .7-.3 1.2-.8 1-.8 1.8-1.1 2.4-1 .2 0 .4-.1.5-.5.1-.7-.3-.7-1.4 0-1.3.7-2.3.8-3.8.2-1.6-.6-1.9-.6-1.9-.1 0 .2-.2.4-.4.4-.5 0-.5 1.6 0 2 .3.4 1.1.5 1.3.1zM7.7 50c0-.3-.1-.1-.1.3v.5c.1-.2.1-.6 0-.8zm40 .3-.2-.4c-.2 0-.3.2-.3.4s.1.4.3.4l.2-.4zm47.8 0A1366 1366 0 0 1 97 9.1V3.8l-.6.1c-.5.1-.6.2-.6 3.1 0 4-.6 22.9-.7 25.3a55.8 55.8 0 0 0-.9 15.5c.2-.1.3-2.3.4-5.6 0-2.9.2-5.3.3-5.4.3-.2.3 4 .1 9-.1 3.2-.2 3.7-.7 4.1-.3.3-.6.5-.8.4a189.1 189.1 0 0 1 .3-21.2c0 .2.2.4.3.4.1 0 .3-3.5.4-7.8a430.8 430.8 0 0 1 .5-16.2C94.8 4 94.7 4 94 4h-.7l.3 1.8c.2 2 .2 8 0 9.4-.4 1.9-.7.4-.7-3.3l-.2-5.7c-.2-2.1-.2-2.2-.8-2.2-.6 0-.6 0-.6 1.3 0 .7.1 2 .4 2.8.3 1.2.3 2.4 0 7.3-.3 8.6-.5 29.8-.2 29.8.2 0 .3-1.2.3-3.5a214 214 0 0 1 .7-15.8c.1 0 .2 1 .2 2.3a15550.5 15550.5 0 0 0-.6 18.4c-.3 4.2-.3 4.3 2 4.1.6 0 1.3-.2 1.3-.3zm-2-25c0-.4 0-.5.2-.3v.6c-.1.2-.2 0-.2-.3zm56 23.3v-3.3c0-1 .2-1.2.5-1.2s.4.2.2.8c0 .5 0 .8.2.8l.2-.2c0-.1 0-1.4.3-2.9l.7-9.1.3-6.5-.1 6.4a101.7 101.7 0 0 1-.8 10.8c-.2 2.3-.3 2.8-.6 2.7-.2-.1-.3.6-.3 1.8v2h2.3v-2c-.2-2.3 0-3.3.4-2.7 0 .2.2.3.3.2a93.9 93.9 0 0 0 1.1-8.5c-.1 5.8-.4 8.7-.9 9-.1.1-.3 1-.3 2l-.1 2h1.8l1.9-.1v-.8c0-.4-.3-.9-.6-1-.4-.4-.4-.7 0-4a246.4 246.4 0 0 0 .5-21v-3.5c0-2.2-.1-2.7-.4-2.7-.2 0-.6.3-.8.7-.4.5-.4 1.1-.2 4.7.1 2.2.2 4.1 0 4.3-.2.5-.5-1.5-.7-5.2-.1-3-.2-4-.5-4.3-.5-.4-.8.1-1 2-.3 2.2-.4 2.9-.7 2.9-.2 0-.3-.5-.2-1.2l.4-2.5.2-1.4h-.9c-.9 0-.9 0-.8 2 0 .8 0 1.5-.2 1.6-.2.1-.3-.2-.3-.7l-.2-1.9c-.1-.8-.3-1-.7-1-.6.2-.6.3-.7 4.5-.2 5.1-.5 4.8-.6-.5 0-3.2-.1-3.6-.5-3.7-.5 0-.5.2-.5 2.6 0 1.7-.1 2.7-.3 2.7-.2 0-.2-.8 0-2.4.1-2.7-.2-4-.7-2.2a10 10 0 0 0-.3 2l-.3 1.5c-.3 1.3-.4.2-.2-2v-2.6c-.5-.4-.8.2-1.2 2.5l-.4 2.3.2-2.4c0-2 0-2.3-.3-2.2-.2 0-.4.6-.4 1.5-.1 1.6-.6 1.6-.6-.1 0-1.2-.4-1.7-.8-1.3-.2.2-.3 2-.4 4a19.5 19.5 0 0 1-.7 5.5c0 .6 0 1-.2.8V26c.2-1 .4-3.3.4-5 .1-2.7 0-3.1-.3-3.1s-.4.5-.4 3.1c0 2.5 0 2.9-.3 1.8l-.2-3c0-1.6-.4-2.3-.8-1.6-.1.2-.3 3-.3 6.4 0 8.5-.1 13.2-.4 19.7l-.2 5.6 2 .1c1.2.2 2.2.2 2.2 0l.3-1.7c.1-1 .3-1.5.4-1.3v1.8l-.1 1.4h.8c.4 0 1 0 1.2.2l2.5.2h2zm-5.3-2.3c.2-5 .6-5.7.5-.8 0 2.7-.1 4-.4 4.2-.2.3-.3-.3-.1-3.4zm2.6-.3.3-8.5c.1-2.8.3-4.5.4-4.5.3 0 .2 4-.2 11.5v3.2c0 1.4-.2 2.2-.4 2.2s-.3-1-.1-3.9zm-7.4 3.2v-2.8c0-2.2.1-2.7.5-2.9.3-.2.4-.7.5-2.3v-2l.1 1.8c0 1.2 0 2.6-.3 3.7-.3 1-.4 2.4-.4 3 0 1.4 0 2-.4 1.5zm1.7-.2c-.3-.5.5-4.1.9-4.5.2-.1.4-.5.5-.7.2-.5.2 1.1 0 2.1 0 .5-.2.8-.4.7 0 0-.3.2-.3.6-.4 1.4-.6 2-.7 1.8zm8.1-6.6.4-6.3.2-4.6v5.6c-.1 3.5-.2 5.8-.4 6.2-.3.5-.3.4-.2-1zm-6.5.6-.1-6.5a423.5 423.5 0 0 0-.2-12.2 128.5 128.5 0 0 1 .3 18.7zm1.8-11.7v-5.9a72.4 72.4 0 0 1 .1 10.5l-.1-4.6zm-4 1.3v-3.3c.3-.3.3.5.3 2.8v3.3l-.3-2.8zm6.7-1.5c0-.3.1-.5.3-.5.1 0 .2.2.2.5s0 .6-.2.6-.3-.3-.3-.6zm6.6-.8c0-.7 0-.8.3-.5.3.5.3 1.3 0 1.3-.2 0-.3-.4-.3-.8zm-6.6-2c0-3.3.5-3.8.5-.7 0 1.7 0 2.7-.2 2.7s-.3-.8-.3-2zm2.1-3c0-.8.1-1.6.3-1.9.2-.2.2.2.2 1.4 0 1 0 1.8-.2 1.8s-.3-.6-.3-1.4zm2.4-1c0-.3.1-.6.3-.6.1 0 .2.2.2.5s0 .6-.2.7c-.2.1-.3-.1-.3-.5zm-53.2 20c0-4 0-6-.2-6s-.3.7-.3 1.6a313.6 313.6 0 0 1-.3 10.4s.2.1.4 0c.2 0 .3-1.8.4-6zm-47.3 5.6c0-.3-.9-1.8-1-1.8-.5 0-.6.3-.2 1.2.4.8 1.2 1.2 1.2.6zm34-7.5c0-4.5.2-7.6.3-7.7.2-.2.3-4 .3-9.5a490 490 0 0 1 .3-19.7l-.2-1.8h-1l-1-.1.2 1.4a297.5 297.5 0 0 1 0 25c-.4 1.4-.5 3.3-.5 10l.1 8c.4 0 .6-4.4.5-9.5-.2-5 0-8.4.3-8.4a148.4 148.4 0 0 1 0 19.7c.2.2.4.3.6.2 0 0 .2-3.5.2-7.6zm0-30.5c-.3-.8-.5-6-.2-6.8.1-.5.3-.7.3-.6a227 227 0 0 1-.1 7.4zM135.5 42v-7.8c.1 0 .4-.3.5-.7.3-.6.3 1.1.2 7.8v8.5h.5c.5 0 .6-.2.7-2a35 35 0 0 0-.2-9c.1 0 .3.2.4.7.4 2.2.6-.5.6-10.5V18c0-.2-.2-.3-.6-.2-.5 0-.6.3-.8 2.5a9.8 9.8 0 0 1-.4 2.5l-.1-2.3-.1-2.2c-.3 0-1.1 4.3-1.4 6.6 0 .7-.2 1.3-.3 1.3-.2 0-.3-.1-.3-.3 0-.1 0-.2-.2-.1-.2 0-.3.4-.3.8 0 .3-.1.7-.3.9a32 32 0 0 0 0 9.1c.2 1.2.3 3 .3 3.8 0 1 .2 1.6.3 1.4l.3-7.8c0-7.4 0-7.4.2-3a112.5 112.5 0 0 1-.7 17.7c-.1.5 0 .7.5 1 1.4.6 1.3.9 1.2-7.5zm.6-11.4.2-3.3c.2-1.6.2-1.6.2 1l-.1 3.3c-.2.4-.3.2-.3-1zm.3-5.6c0-.3 0-.3.1-.1v.5l-.1-.4zM106.2 49c.3-.5.3-1.6.2-4.8-.2-4-.3-4.6-.6-4.3-.3.3-.4 9.7-.2 9.7l.6-.6zm3.3-2.6c.2-2 .2-8.3.2-17.8V12c0-1-.2-1.8-.3-1.9-.2-.1-.3 0-.3.3a98.7 98.7 0 0 1-1.5 11.2c.1 0 .2 2.3.2 5 0 5 .2 6.4.5 5.8.2-.2.2 2.8.2 6.7 0 3.8 0 6.6-.1 6.2-.2-1.1-.5-.8-.7.7-.1.7-.3 1.5-.5 1.7-.2.3-.2.4 0 .6.6.4 1 .2 1.1-.5.2-.5.2-.4.2.4 0 1 .3 1.6.5 1.3l.5-3.1zm17 1.7a66.7 66.7 0 0 0-1-10.4c-.1 0-.2 1 0 2.6 0 1.9 0 3-.4 4.4-.3 1.3-.3 2-.1 2.4l.2 1.5c0 .8.3 1 .8 1 .3 0 .4-.5.4-1.5zm1.4-.2c.1-1 0-1.5-.2-1.7-.4-.4-.6 0-.6 1.5-.1 2.4.6 2.6.8.2zm3.6 1.1v-2.3c0-2.3.1-16.9.3-16.2l.3 3 .2 2.5.2-4.6c.2-6.8.5-9.3.7-9.1.1 0 .2 1 .1 2 0 1.6 0 1.8.1.9.4-1.5.8-7 .5-7.4-.2-.3-.4.2-.6 1.8-.3 2-.4 2.3-.7 2.1v-1.3c.4-1.4.4-2.8 0-2.8l-.3 1.7-1.1 9.7c-.3 1.4-.5 5.2-.7 10.3 0 4.5-.3 8.4-.4 8.8-.2 1 0 1.5.7 1.5.3 0 .6-.2.7-.6zm-6.8-.6c0-.4-.1-.6-.3-.5l-.2.8c0 .4.1.6.2.5.2 0 .3-.4.3-.8zm5-1.2c.2-1.2.4-4.8.4-8 .1-7.6.4-15 .7-15 .2 0 .3.4.3.9 0 1.3.4-1.2.6-4.6.2-2.5.2-2.9-.2-3h-.7a16 16 0 0 0-.5 3.4c-.2 1.8-.4 3.6-.6 4.1-.2 1-.2.3.2-5 .1-2 .1-2.3-.3-2.5-.6-.2-.8.6-1 4.4l-.5 5a146 146 0 0 0 .3 19c.5 0 .5-.1.5-1 0-1.4.3-2 .6-1.6.4.6.3 1.8-.3 3.8-.6 2.3-.6 2.3-.2 2.3.3 0 .5-.7.7-2.2zm-.6-6c-.2-1.7-.6-10.2-.4-10.6l.3 1.8c.5 6 .6 11.7.1 8.7zm.2-14.2v-.3c.2.3.2.6 0 .8V27zm3.7 21.3c.1-.6.3-1 .5-1 .1 0 .2-1.2 0-3.4a29 29 0 0 0-.6-7.2c-.2 0-.9 12-.7 12.4.4.5.6.3.8-.8zm-9-1.4.6-4.3c.2-2.5.2-16 .1-20.2v-2l-.3 1.6c-.1.9-.3 4.1-.3 7.3a187.6 187.6 0 0 1-1 19.5c.3 0 .6-.9.8-1.9zM53 48.2c.3.1.8 0 1.1-.1.5-.3 1-.3 2.4 0 1.2.4 1.8.5 2 .3.3-.3-1-.9-1.9-.9a4 4 0 0 1-1.3-.4c-.7-.4-1-.4-2 0l-1.7.6c-.3 0-.3.2 0 .5.2.3.4.3.6.1.2-.1.6-.2.8 0zM7.7 47.1c0-.3-.1-.1-.1.3v.5c.1-.2.1-.6 0-.8zm73.6-.8c0-1-.1-1.6-.4-1.9-.3-.3-.4-.1-.4 1.5l.2 2c.4.4.6-.2.6-1.6zm1.6-5.2a1319.4 1319.4 0 0 1 .3-16.3c.2.3.2.3.4-.1a151.1 151.1 0 0 0-.7-18.4c0-1.3-.4-3.2-.5-2.6-.2 1.6-.7 31.8-.6 39 0 4.5.1 5 1 5l.1-6.6zm39.8 5.3c.7-4.3 1-23.3.4-21.9-.2.4-.4 3.5-.5 6.9-.1 3.4-.4 8-.6 10-.3 3.8-.1 6.6.3 6.3l.4-1.3zm-60-.1c.3-.4.6-1 .6-1.3 0-.5.7-1.4 1.2-1.4l-.2.6c-.3.4-.4.8-.3.9 0 0 .2 0 .3-.3.2-.6.9-.6.9 0 0 .2 0 .3.2.3.3 0 1.6-3.3 1.6-3.8 0-.2.5-.7 1-1.1.8-.6 1.1-1.1 1.2-1.9.2-.7.5-1.2 1.3-2C74.3 33 75.3 32 75 32a32.6 32.6 0 0 0-6.2 4.7c-.4.5-.7.6-1 .4-.4-.4.2-1 2-2.4 4.8-3.4 8.5-6.8 9.3-8.5.6-1.3.6-2 0-2.4-.5-.5-.4-1 .4-1.4.6-.2.6-.3.3-.4-.3 0-.8 0-1.1.3l-1.4.6a9 9 0 0 0-2.1 1c-.7.5-1.6 1-2 1.1l-1.5.8c-1.3 1-2 1.2-4 1a9 9 0 0 0-2.1-.2c-.3.3.6.6 1.6.6.5 0 1 .2 1 .3 0 .2.3.3 1 .2.8-.2.9-.2.6.2-.6.7-3.5 1.2-3 .4.1-.3-2.7-.8-3.3-.6-.4.2-.3.2.6.3 1.5.2 1.5.8 0 .8-.9 0-1.2 0-1.2-.3 0-.6-.4-.8-1-.6-.3.1-.5.3-.4.6l-.1 1.5c-.2.9-.5 1.2-1.3 1.7-.9.5-1 .6-.3.4 1.2-.3.9.5-.5 1-1.3.6-2.2.4-1-.2.5-.3.6-.5.4-.8-.3-.2-.2-.4.2-.6.4-.2.5-.4.3-1.1-.3-1.1-.5-1.2-.8-.4-.1.3-.5.7-.8.8-.4.1-.5.3-.4.6.2.5-.3.9-1.2.9l-1 .2c-.3.7-1.3.2-3.2-1.8-2.2-2.2-3-2.8-4.2-3.2-1-.3-1.4.1-.6.6.5.2.6.4.5 1-.3 1.4 1.7 6 3 7.2.5.4.7.7.6.8h-.6c-.4 0-.8.7-.8 1.2 0 .3 0 .3.3.1.3-.2 2.5-1 4-1.2.7-.2.7-.2.3-.7-.5-.6-.5-.6.5-1 .4-.2.7-.5.7-.7 0-.4 1.3-.7 1.7-.4.1.1 0 .4-.4.5-.3.2-.5.5-.4.7.1.4-.5 1.2-1 1.2-.3 0-.4.1-.4.3 0 .3 2 0 2.6-.4.7-.4.9-.1.4.8-.6 1.2-1.4 1.6-3.5 1.8-1.9.2-3.4.8-3.6 1.4-.3.6 0 .6 1.1 0 .6-.2 1.5-.5 2-.5 1.8 0 2.1 0 2.7-.5.8-.6 1.4-.4 1.4.4 0 .4.1.6.3.6.1 0 .2.7.1 1.4-.1 1.5-.4 1.9-2 2.5-.8.4-1 1-.1 1.1a5 5 0 0 0 2-.6c.9-.5 1.4-.6 1.6-.5.2.2 0 .5-.7.9-1 .7-1.2 1-.4 1 1 0 2.2-.7 2.3-1.5.2-1 2.1-3 3-3 .4 0 .8-.3 1.4-1.3.5-.8 1-1.6 1-1.9l.7-.4h.9c.2-.1.4 0 .5.3 0 .3-.1.5-.4.5-.2 0-.7.5-1.2 1.1-.5.7-1 1.2-1.2 1.2l-.8.6c-.2.3-.7.5-1 .5-.2 0-.6.3-.7.7a3 3 0 0 1-1 1c-.3.2-.6.6-.6.9 0 .2-.2.8-.5 1.3l-.6 1 .7-.2c.4-.1 1-.5 1.4-1zm-3.9-2.9 1-1.2c.7-.7 1.1-1 1.2-.8.1.1-.2.7-.8 1.2-.9.9-1.4 1.2-1.4.8zm3.6-4.4c.2-.5.1-.5-.4-.2-1.2.6-1.1 0 .1-.8.8-.6 1.3-.7 2.5-.7s1.6 0 2-.5c.7-.8.7 0 0 1-.5.6-1 1-1.3 1-.3 0-.7.2-.7.4-.1.2-.3.4-.5.4s-.2-.2-.1-.5c.4-1.1.4-1.2-.4-.4-1 1-1.5 1.2-1.2.3zm-10.6-2.3c.1-.2.4-.3.7-.3.3 0 .5.1.4.3l-.7.2c-.3 0-.5 0-.4-.2zm5.3-.9c-.1-.1 0-.3.1-.4.2 0 .8-.5 1.3-1 1-1 1.2-1 1.5-.6.1.1-.2.4-.6.6l-1 .8c-.2.6-1 1-1.3.6zm-6.4-1.7c-1.2-1.1-1.3-1.5-.8-2.3.3-.4.4-.4 1.2.6.5.6.8 1.2.8 1.5 0 .2.3.4.7.4.8 0 1.1.4.5.6-.8.3-1.3.2-2.4-.8zm12-1.3v-2l.8.1h.8c0-.2-.1-.3-.5-.3-.3 0-.5-.1-.4-.3.1-.4 1.7-.4 2.2 0 .3.3.2.6-.5 1.5-.4.6-.8 1.2-1 1.2 0 0-.3.3-.4.8-.2.4-.5.8-.8.8-.4 0-.4-.3-.3-1.8zm-7.3.5c0-.3 1.2-.6 1.4-.4.1 0 .1.3 0 .4-.2.3-1.4.3-1.4 0zm11.9-.5c0-.2.2-.4.4-.4s.4.2.4.3l-.4.4c-.2 0-.4 0-.4-.3zm.8-2.5c0-.5.3-1 .6-1.1.5-.4.9 0 .5.4-.3.4-.3.4.2.3.7-.2.7.3 0 .8-1 .7-1.4.5-1.3-.4zm2.6-1.7c-.3-.2 0-.7.3-.7.2 0 .3.2.3.4 0 .5-.3.6-.6.3zm1-.8c0-.4 1.4-1.3 2-1.2.3 0 .4-.2.3-.5-.1-.4 0-.6.3-.7.3 0 1-.3 1.4-.6l1-.2c.3.3-1 1.5-1.6 1.5-.5 0-.6.1-.5.4.3.7-.9 1.7-1.9 1.7-.6 0-1-.2-1-.4zm-24 18.3c.5-.8.5-1 .3-2-.2-.7-.2-1 .2-1.4.2-.3.6-.5.9-.5.2 0 .5 0 .6-.2 0-.2 0-.3-.4-.3-.3 0-.6.1-.7.3-.2.4-1.4.3-1.4-.1 0-.2.2-.6.5-.8.3-.3.4-.7.3-.8a13 13 0 0 1-.2-2.9c0-2.8-.4-3.6-.6-1a38.5 38.5 0 0 0-.3 10.6c.1 0 .5-.4.8-1zm4.5.1-.1-.3-.3.3.1.3c.2 0 .3-.2.3-.3zm75.3-1.1c0-.2-.1-.2-.1.2 0 .2 0 .4.1.3v-.5zm-57.2-.6c.4-.4.4-.9.4-2.1-.1-2-.5-2-1-.2-.5 2.4-.3 3.2.6 2.3zM55 43.7c1.3-1 1.8-1.5 1.2-1.5l-2 .9c-1.4.6-1.7.8-1.4 1.1.4.6.6.5 2.2-.5zm72.4-2.8a56 56 0 0 1-.6-6c-.1-2.8-.4-5.4-.5-5.7-.2-.4-.2-1 0-2l.2-1.2v1.3c0 .7.3 1.7.5 2.2.3.9.3.6.3-3.3 0-3.1 0-3.8-.2-2.5-.3 3-.6 2-.4-1.4l.2-4.1c0-.5 0-.7-.3-.7-.4 0-.5.7-.6 3.7 0 2-.2 4.1-.3 4.6a57.9 57.9 0 0 0 0 9.3c.1.2.4 1.9.6 4 .2 2.2.5 3.9.7 4.5l.5 1v-1.4c.1-.8 0-1.8-.1-2.3zm-50.7 2.5v.8c.1-.2.1-.6 0-.8zm-20 .4c.8-.4.7-.8-.1-.4l-.7.5c0 .3.2.2.8 0zm51.6-.3c0-.5 0-.5-.2-.2-.2.2-.2.5-.2.6.3.3.4.2.4-.4zM9.5 43c0-.2-.1-.2-.1.1 0 .3 0 .5.1.4V43zm44-.8c.7-.3 1-.8.4-.8-.2 0-.4 0-.4-.2 0-.6-.5-.2-1.2.8-.8 1.3-.8 1.5 0 1l1.1-.8zm18.6 0c0-.7.2-1.4.4-1.8.5-.7.6-3.5.2-3.6-.5-.2-1.2 2-1.4 4.3-.1 2 0 2.2.3 2.2.4 0 .5-.3.5-1.1zm8.7-.9c0-.6-.2-.4-.4.5-.1.6 0 .7.1.4.2-.2.3-.6.3-.9zm0-4.9c-.2-.2-.3.4-.2 1.9v2.2l.2-1.8v-2.3zm26.1 1.4a236.3 236.3 0 0 0-.4-31c0-3.4 0-3.5-.6-3.5-.5 0-.6.1-.4 1.6.1.8.3 8.6.3 17.2a235.4 235.4 0 0 0 .7 17.2c0 1.6.2.7.4-1.5zM5.2 37.1 5 35.4c-.1 0-.2.8-.2 1.9 0 2.3.1 2.2.3-.2zm48.6 1.3c0-.1 0-.3-.2-.4-.2-.2-.4-.1-.9.3l-.6.5.8-.2a4 4 0 0 0 .9-.2zm2.3-.1c.2-.4-.7-.4-1.2 0-.4.2-.3.2.3.2.4 0 .8 0 .9-.2zM6.6 30.7 6.2 26v3.6c0 4.4.2 7.2.6 6.4.1-.4 0-2.3-.2-5.3zm39.7 1c-.6-1.7-1.1-2.1-.9-.7l.4 3c.3 2.6.7 3 .8.7a9 9 0 0 0-.3-3zM81 30.4v-4.8l-.5.6c-.5.7-.7 2.2-.2 2.6.1.2.3 1.5.3 3.2 0 2.7 0 3.3.3 3.3l.1-4.9zM9 32.4c0-.2-.1-.2-.2.2 0 .2 0 .4.2.3v-.5zm0-5.3v3.2V27zm2.8-6.4c-.2-10.7-.5-10.7-.6 0 0 5.4 0 10 .2 10.3.4 1 .6-4 .4-10.3zm45.8 8.5 1.9-.9c.5-.1.5-.1-.1-.6-.8-.6-1.4-.6-1.6 0 0 .1 0 .2.3 0 .3 0 .5 0 .5.2 0 .3-1.7 1.2-3.2 1.7-.3.1-.2.2.2.2l2-.6zM52.8 28c.4-.6.7-.7 1.3-.6 1 .2 1-.3-.2-1.5-.5-.5-.9-1.1-.9-1.3 0-.7-.5-.8-.9-.3-.3.4-.4.4-.9-.1-.3-.3-.6-.5-.7-.4-.3.6 1.1 4.8 1.7 4.8l.6-.6zm9.3-1c.1 0 0-.2 0-.2-.2 0-.4.1-.4.3 0 .1 0 .2.2.2l.2-.2zm-12.3-1.5-.8-2c-.6-1.2-.6-1.6 0-2.5.6-.6.6-1 .5-5l.1-8.6c.2-4.2.1-4.5-.8-4.2-.4.1-.4 2.8 0 3 .5.4.2 1.1-.8 2-.8.7-1 1.1-1.2 2-.1 1-1 14.6-.8 14.6a77.7 77.7 0 0 1 3.9 1.8l-.1-1zm-2.5-7c.2-6.7.3-7.6.9-7.6.3 0 .3.3.2 1.5A84.9 84.9 0 0 0 48 24c0 .4-.2.6-.5.6-.4 0-.4-.5-.2-6zm9.3 8a3 3 0 0 1 1-.7l1-.3v-11c0-7.2 0-11.2-.2-11.3-.3-.2-3.4-.3-4.2 0-.5 0-.6.2-.4 1 .3 1.5.4 18 .2 19.6-.3 1.3-.2 1.4.2 1.4.3 0 .8.4 1 .8.5.8 1 1 1.4.5zM55.8 16c-.1-9.5 0-11.6.4-11.6.3 0 .3-1 .4 11 0 8.5 0 10.4-.2 10.4-.3 0-.4-2-.6-9.8zm11.9 8.4c.2-1.7.2-2.5 0-11.5V4.5c.3-1.1.3-1.2-.3-1.2h-.6v3.3c0 1.9-.1 3.4-.2 3.4l-.6-.3c-.3-.2-.3-.3 0-.6.2-.3.2-.7 0-1.6-.2-.6-.3-1.8-.3-2.6 0-1.5 0-1.6-.7-1.6h-.8l-.1 4.2c-.1 2.3-.1 6.2 0 8.7.1 5-.1 8.6-.6 8.6A279.8 279.8 0 0 0 63.2 4C63 3.2 62 3 62 3.6c-.1.4-.2 3-.2 11.2a94.5 94.5 0 0 1-.3 9.8c.2.5.4.6 2.2.5 1.7 0 2 0 2-.5l-.2-.6c-.3-.1 0-5.2.2-5.5.2-.3.6 6.1.4 6.5-.2.3.3.7 1 .7.3 0 .4-.3.6-1.4zm1.3 1.1c.3-.7.7-7.6.8-12.9a49.5 49.5 0 0 1 .6-8.3c-.2-.8-.3-1-.8-1-.8 0-1 .6-.7 1.4.1.4.2.5.2.3s.2-.3.3-.3c.4 0 .3 1.5-.1 1.8-.2.2-.4.7-.4 1a103.8 103.8 0 0 0-.3 18.3c.1 0 .4-.1.4-.3zm45.7-2.2c0-3.7.4-13.9.5-14.5.1-.5 0-.6-1-.5-.3 0-.4.8-.4 2v3.4c-.3 2.9-.4 7.1-.2 7.1s.3-.3.3-.7c0-.3 0-.6.2-.6.1 0 .2 1.3 0 3.2 0 2.3 0 3.1.3 3.1.2 0 .3-.8.3-2.5zM7.3 15.5 7 12.2v3.6c0 2 0 5 .2 6.6l.2 3v-3.3l-.1-6.6zm53.6 3.2.1-11c0-3.4 0-4.4-.2-4.5-1-.3-1.1.1-1.3 4.2L59.3 25l.8.2.7-.1zm9.8 6.4a315.7 315.7 0 0 0 1-21.7c-.5-.5-.7 1-.8 6.5l-.4 7.6c-.4 2-.6 7.8-.4 7.8l.6-.2zM9 23c0-.3-.1-.1-.1.5s0 .8.1.6v-1zm64.8.6L75 23v-1.7l.5-9.5c.2-4.3.3-7.9.2-8-.2-.2-.5-.2-.7-.1-.3.1-.4.6-.4 2l-.2 3.1c-.2.7-.3 3.7-.4 6.5 0 5.8-.2 7.4-.7 7.6-.2 0-.3-1.5-.2-7.8 0-5.6 0-7.9-.2-8-.2 0-.4.4-.5 1-.3 1.7-.5 16.4-.3 16.4l1.6-.8zM6 22.2c-.1-.2-.3-.3-.4-.3-.4 0-.4 1.4 0 1.8.3.2.4.2.4-.4v-1zm47.3-5.4c0-3.3-.2-7.6-.3-9.8l-.2-3.8-.3 4.4c-.2 2.4-.4 6.6-.4 9.4 0 5.1.1 5.7 1 5.7.4 0 .4-.9.2-6zm72 4.5v1-1zm9.6-.2c.5-2.4.6-3.2.3-3.3-.5-.4-.7.2-.9 2.5-.2 2.5.1 3 .6.8zm-120.2.7c0-.2-.1-.1-.1.2 0 .3 0 .4.1.3v-.5zm62 .4c.3-.2.5-5 .6-11.5 0-3.3.1-4.7.4-5.1.5-.8.2-1.7-.7-1.7-.6 0-.6 0-.5 1.7v4.7c-.4 4.6-.6 12-.4 12l.5-.1zm51.2 0c.1-.2 0-.3-.1-.3-.2 0-.3 0-.3.2l.1.3.3-.3zm-47.3-1.3c.2.1.3-.4.5-2.3.2-4 .3-15 0-15-.1 0-.2 1-.2 3 0 .9-.2 1.6-.6 1.5-.2 0-.3 2.1-.4 4.7 0 5.4-.2 7.2-.8 7.4-.3.1-.3-.8-.1-5.4a705.5 705.5 0 0 1 .3-9.7c0-.8.5-1 .7-.1 0 .4.1.4.1-.3s0-.8-.7-.8c-.9 0-1.1.5-.9 2 0 .5 0 1.9-.2 3-.1 1.3-.3 4.6-.3 7.6v5.3l1-.5c.7-.3 1.4-.5 1.6-.4zm-29.2-8.7a39 39 0 0 0-.1-8.9c-.7-.4-1 0-1 2.6V20.8c.8 1 .9 0 1-8.6zM124 20c0-.3-.2-.2-.2.1 0 .3 0 .5.2.4V20zm4-1c0-.7 0-1.4-.2-1.4-.3 0-.5 2.2-.2 2.6.4.5.4.4.4-1.1zm-2.5-.1c.3-1 0-1.8-.5-1.6-.3 0-.4.5-.4 1.6 0 1.2 0 1.4.4 1 .2-.2.5-.7.5-1zm-110.4-.2-.1-.3-.3.3v.3c.2 0 .4-.2.4-.3zm108.6-1c-.3-.3-.4 0-.2.7l.2.7v-.6c.1-.4 0-.7 0-.8zM14.9 12.4c-.2-.4-.2-.3-.4.5v2c0 .6.3 1.5.4 2.2.1 1 .2.7.2-1.5 0-1.5 0-3-.2-3.2zm93.5-3.1c.1-2.5.3-4.7.5-5 .3-.6 0-1-.9-1-.8 0-1.3.6-.8 1.2.2.2.3 2.6.4 5.7.2 8 .2 8.1.5 5.7l.3-6.6zM4.6 12.7c0-2.8-.1-3.3-.5-3.3s-.4-.1.1 6.1c.3 3.1.5 1.4.4-2.8zM155.1 16l.7-.2c.5.1.5 0 .5-1.4 0-.9-.1-1.6-.2-1.7H145c-2.3 0-3.3.1-3.3.3 0 .6.7.6 6.7.6 3.2 0 6 .1 6 .2.7.4-.1.6-1.6.6-4.4 0-5.2 0-5.2.5 0 .3.3.4 2.4.3 1.5 0 2.5 0 2.5.2 0 .1-.1.3-.4.3-.8.2-1.1.3-1 .6.2.3 3.9.1 4.1-.3zm-5.1 0-1.4-.2c-.6 0-1.1.1-1.1.2 0 .2.6.3 1.3.3.8 0 1.3-.1 1.2-.3zm-9-1.4c0-.4-.2-.6-1-.6-1-.1-1.4.2-1.1.8.3.7 2 .5 2-.2zm3 .2c.3-.7.1-.9-.8-.9-1 0-1.6.3-1.6.7 0 .8 2 .9 2.4.2zm2.6 0c0-.6-2-.9-2-.3 0 .6.2.7 1.2.7.7 0 .9 0 .8-.4zm-12.6-.3c0-.6-.5-.8-1.2-.6-.6.1-.5.5.2.8.9.4 1 .3 1-.2zm2.2 0c0-.5-.9-.7-1.3-.3-.2.2-.2.3.1.5.6.4 1.2.2 1.2-.2zm2.2 0c0-.3-.4-.5-.8-.5-.6 0-.7 0-.7.4 0 .5.1.6.8.6.6 0 .8-.1.7-.5zm-11.3-.3c0-.3-.2-.5-.4-.5s-.4.2-.4.5.2.5.4.5.4-.2.4-.5zm1.3 0c0-.6-.4-.7-.6-.3-.2.3 0 .8.4.8.1 0 .2-.2.2-.5zm1.9.1c0-.2-.2-.4-.4-.5-.5-.1-1 .3-.8.6.2.4 1.2.4 1.2 0zm1.6 0c0-.3-.7-.7-1-.4-.3.3 0 .8.4.8.3 0 .6-.1.6-.4zm-6.3-.1c.3-.4 0-.6-.5-.4-.2 0-.3.2-.3.4.3.3.6.3.8 0zm-1.4-1c0-.5-.1-.8-.3-.7l-.2 1c0 .3 0 .7.2.7s.3-.4.3-1zm-80-2.3c0-.6.2-1.2.4-1.4.5-.5 0-.7-.6-.3-.5.2-.6.4-.4 1.2l.2 2.3v1.4L44 13l.3-2.1zm96.6 2.5c.6-.4-.1-1-1-1-.6 0-.8 0-.8.4 0 .7 1.1 1 1.8.6zm-10.5-.6c0-.3-.8-.6-1-.4v.6c.2.4 1 .3 1-.2zm1.6 0c0-.3-.2-.5-.4-.5-.4 0-.6.6-.3 1 .3.2.7-.1.7-.6zm2 0c0-.3-.1-.5-.6-.5-.6 0-.9.5-.5 1 .4.3 1.2 0 1.2-.4zm2.2 0c0-.3-.2-.5-.7-.5-.6 0-.9.5-.5 1 .4.3 1.2 0 1.2-.4zm2.2.4c.3-.3-.2-.9-.8-.9-.4 0-.6.2-.6.6 0 .3.2.5.6.5.3 0 .7 0 .8-.2zm-12.5-.6c0-.2-.2-.3-.4-.3-.4 0-.6.3-.3.6s.7 0 .7-.3zm2.6.3c0-.2-.1-.3-.3-.3-.1 0-.2.1 0 .3l.2.2.1-.2zm16.7-1c0-.4-1-.6-2.3-.6-1 0-1.6.3-.9.6.6.2 3.2.1 3.2 0zm11-.2c.3-.8-.4-1-2.6-1-6 0-9.2-.2-9.2-.5 0-.2 1.2-.2 3.4-.2a68.8 68.8 0 0 0 6.6-.3c-.8 0-1.6-.2-1.8-.3a40.1 40.1 0 0 0-7-.3c-1-.3-10.8-.5-10.6-.2 0 .2 1.8.3 4.1.3 2.2 0 4 0 4 .2 0 .4-.7.5-4.4.3-3.7-.3-4.3-.2-4 .7.2.4 1.4.5 1.6 0 .1-.1.3 0 .6.1.3.3 1.4.4 3.2.4 5.6.1 9.7.4 10 .8.6.6 5.9.5 6.1 0zm-29-.2c0-.1-.1-.2-.3-.2l-.2.2c0 .2 0 .3.2.3s.3-.1.3-.3zm3.2 0-.4-.2-.4.2c0 .2.2.3.4.3s.4-.1.4-.3zm3.7 0c0-.1-.3-.2-.7-.2-.4 0-.7.1-.7.2 0 .2.3.3.7.3.4 0 .7-.1.7-.3zm2 0c0-.1-.2-.2-.6-.2l-.6.2c0 .2.3.3.6.3.4 0 .7-.1.7-.3zm2.2 0c0-.1-.3-.2-.7-.2l-.6.2c0 .2.3.3.6.3.4 0 .7-.1.7-.3zm2.6 0c0-.1-.4-.2-.9-.2s-.9.1-.9.2c0 .2.4.3 1 .3.4 0 .8-.1.8-.3zm-10.4-1.4c0-.3-.2-.6-.4-.6-.6-.1-1 .7-.5 1 .5.3.9.1.9-.4zm1.5 0c0-.9-.7-.8-.8 0 0 .5 0 .6.3.6s.5-.2.5-.6zm2 0c0-.6-.9-.9-1.3-.5-.5.5 0 1.1.7 1.1.6 0 .7 0 .6-.5zm-8 0c.1-.4-.3-.8-.7-.5-.4.2-.3.9.1.9.2 0 .5-.2.6-.4zm1.4 0c-.1-.7-.7-.8-.7-.2 0 .4.1.6.4.6.2 0 .4-.2.3-.5zm1.4 0c0-.2-.2-.4-.4-.4s-.4.2-.4.4.2.4.4.4.4-.2.4-.4zM14.4 9.4c0-.3-.7-.3-1 0-.2.5.2.9.6.5l.4-.5zm109.8.6c0-.2-.1-.3-.3-.3-.1 0-.2.1-.2.3 0 .1 0 .2.2.2s.3-.1.3-.2zm-11-.8c0-1 0-1.1-.6-1-.3.2-.5 1.3-.1 1.6.3.3.5.1.6-.6zm17.2-.3c0-.1-.1-.3-.4-.3-.5 0-.6 0-.3.3.5.3.5.3.7 0zm1.6 0c0-.1 0-.3-.3-.3-.2 0-.3.2-.2.3l.2.3.3-.3zm1.7 0c0-.1-.2-.3-.5-.3s-.5.2-.4.3c0 .1.3.3.5.3s.4-.2.4-.3zm-9.8-.3-.2-.2c-.2 0-.3 0-.3.2s.1.3.3.3c.1 0 .2-.1.2-.3zm1.9.2-.3-.3-.3.1c0 .2.2.3.3.3l.3-.1zm22.8-.6.3-2.3c.2-2 .2-2-.3-2-.4 0-.5.4-.7 1.7-.1 1-.3 1.7-.6 2-.4.2-.4.3-.1.5.5.3 1.2.3 1.4 0zm2.7-.6c.1-.8-.2-3.5-.5-3.5h-.5c-.3 0-.5.5-.6 1.6 0 .8-.2 1.7-.3 2 0 .6 0 .7.8.7s1-.1 1-.8zm2-1.5c0-1.3-.2-1.7-1.1-1.7-.3 0-.2 3.2.2 3.7.3.6.9-.6.9-2zm1.8 1.3c0-2-1.1-2.7-1.2-.7-.1 1.4 0 1.7.7 1.7.4 0 .5-.2.5-1zm-125-.1c.5-.5.8-.5 7-.4 5.6 0 6.7.2 7.4.6.7.4.8.4 1.6 0 2.3-1.2-1-1.5-11.6-1.1L23 6.6c-4.7 0-6.2.1-6.3.4 0 .2 1 .3 4.3.3 2.6 0 4.4.1 4.5.3l2 .2c1.4 0 2 0 2.4-.5zm112.6 0c.1-.3.3-1.3.3-2.2 0-1.6 0-1.8-.5-1.8-.6 0-.7.3-1 2l-.4 1.1c-.4.2-.3 1.1 0 1.3.8.2 1.3.1 1.6-.4zm2.1-1.6c0-2-.3-2.7-.8-2.2l-.3 2.3c-.2 2-.2 2 .5 2 .6 0 .6 0 .6-2zm1.6 1.4c0-.3.2-.6.4-.6s.4-.4.5-1.1c.1-1.5 0-1.8-.9-1.8h-.7l-.1 2.1c-.1 1.8 0 2.1.3 2 .2 0 .4-.3.5-.6zm-8.2.1c.2-.1.3-1 .3-1.8 0-1.5 0-1.5-.8-1.5-.7 0-.8 0-1 1.6 0 1-.2 1.5-.5 1.5s-.3-.2-.3-.5l.3-1.7.1-1.1-1.5-.2c-2.2-.1-2.7.2-2.7 2.2 0 1.6 0 1.6.8 1.6.7 0 .8 0 .6-.9-.1-1 .1-2.3.5-2.3.2 0 .3.6.2 1.6v1.6c0 .3 3.8.3 4 0zm1.8-.7c0-.5.3-1 .5-1.2.5-.3.7-1.6.4-1.8h-1c-.5 0-.6.3-.7 1.9v2c.3.4.7 0 .8-.9zm-8.6-.8c.2-1.5-.1-1.8-1-1-.7.6-1 2-.3 2.2.7.3 1.1 0 1.3-1.2zM5 6.2c-.2-.3-.7 0-.7.3 0 .2.2.2.4.1.2 0 .3-.2.3-.4zm116 .3c.1 0 .2 0 .2-.2-.1-.1-1.3-.3-2.8-.4l-3.5-.3c-.7-.1-1.1 0-1.6.4l-.6.5h3.2a18.5 18.5 0 0 1 4.2.2l.9-.2zM8.8 6.4C8.5 6 5.7 6 5.5 6.3c0 .1.5.2 1.6.2l1.7-.1zM128.9 6c0-.4-.1-.6-.4-.5-.7.1-.8 1-.1 1 .4 0 .5-.2.5-.5zM74.1 4c0-.4-1.2-.7-1.2-.3L73 5l.2.9.5-.6c.3-.4.4-.8.4-1zm51.5.9c1.2-.6 1.5-1 1-1.2a20 20 0 0 0-3-.3c-1.6 0-3-.2-3-.3-.3-.2-2.2-.2-2.4.1-.1.3 1 .5 4.5.7 1.5.1 2.9.3 3 .5.1.2-5.5 0-8.2-.3-1.2 0-2 .4-1.5.8l1.8.2 2.5.2c1.7.4 4 .2 5.3-.4zM22.9 4.6c.2-.7-.2-1.3-.9-1.3-.4 0-.5.2-.5 1 0 1.2 1.1 1.5 1.4.3zm2.5-.1c.1-.8 0-.9-.6-.9s-.6.1-.6 1c0 .8 0 .9.6.8.4 0 .6-.3.6-1zm3 0c0-.8 0-.9-.8-.9-.9 0-1.2.3-1 1.2.2.6.4.7 1 .6.5 0 .7-.2.8-1zm2.8.5.1-1c0-.6-.1-.7-.8-.7-.6 0-.8.2-1 .7v1c.3.6 1.4.6 1.7 0zm3-.7c.3-1.3 0-1.7-1-1.3-.5.1-.7.4-.8 1-.1 1.1.1 1.5 1 1.4.6 0 .7-.2.8-1zm78.6.6c1.4-.7 3.5-2.1 3.4-2.3-.3-.2-2.5.5-3.9 1.3-2.1 1.2-1.7 2.2.5 1zm-105-.3-.2-.2h-.5c-.2 0-.4.2-.4.4 0 .3.2.3.6.2.3-.1.5-.3.5-.4zm4.7 0c.1-.7-.8-1-1.2-.3-.3.4-.3.5 0 .7.5.3 1 .1 1.2-.4zm2.1 0c0-.6-.1-.7-.5-.7s-.5 0-.4.4l.1.7.4.2c.3 0 .4-.3.4-.7zm1.9-.2c0-1-.6-1-.8 0 0 .6 0 .8.4.8.3 0 .4-.3.4-.8zm2 0c0-.6-.2-1-.4-1-.3 0-.4.4-.5 1 0 .7 0 .8.5.8s.5-.1.5-.9zm2 0c0-.6-.1-.8-.4-.8-.3 0-.4.3-.4.8 0 1 .6 1 .7 0zM36.5 4c0-.8 0-1-.5-1-.4 0-.5.2-.6 1-.1 1 0 1 .6 1 .4 0 .5-.1.5-1zm1.9-.1c0-.5-.2-1-.3-1-.3 0-.6 1.3-.4 1.8.2.7.7.2.7-.8zm2.2.5c.2-.8-.4-1.6-.9-1.3-.3.2-.4 1.5-.1 1.8.4.4.8.2 1-.5zm2 .5c.2-1.5.2-1.7-.3-1.7-.4 0-.5.2-.5 1 0 .6.1.9.4.9l.4-.2zM45 3.8c0-.4-.3-.7-.5-.6-.3 0-.5 1-.3 1.7.3.7 1-.2.8-1.1zm2.5.6c.1-.6-.4-1.3-1-1.3-.3 0-.4 1.6 0 2 .3.3 1 0 1-.7zm-37.3 0c-.1-.3-.4-.5-.5-.5-.1 0-.2.2-.2.5 0 .4.1.5.5.5s.5 0 .2-.5zm113.3-1.9c0-.1-.1-.2-.3-.2l-.2.2c0 .2 0 .3.2.3s.3-.1.3-.3z"/>
</svg>
