<?xml version="1.0" encoding="utf-8"?>
<svg xmlns="http://www.w3.org/2000/svg" xmlns:svg="http://www.w3.org/2000/svg" version="1.1" viewBox="0 0 421 270">
	<title>Pig-wig sits on the floor, resting one arm on the three-legged stool, and closes her eyes.</title>
	<path d="M18.5 268.7c-.7-1-.2-2.1 1-2.2.5 0 1.3-.3 1.8-.5 1-.5 5.5-4.9 5.5-5.4l1-.9c.6-.3 1.2-1 1.4-1.4.5-1 5-5.4 5.4-5.3.5.2.5 1.1 0 1.7a58.2 58.2 0 0 0-3.3 4 79.5 79.5 0 0 1-8.8 9.1c-.3 0-1 .3-1.6.7-1.4 1-1.8 1-2.4.2zm12.8-2.8c-1-.6-.6-1.7 1-3l1.6-1.8a127.3 127.3 0 0 1 5.4-7.8l1.3-1.8a18 18 0 0 1 2.6-4c.3-.3.8-1 1.2-1.8a21 21 0 0 1 1.7-2.4l2.7-3.5c.3-.6 1.2-1.8 2-2.7l2.2-3.4c.6-1.1 1.3-2 2-2.5 1.4-.9 1.5-.9 2.6-.3l.8.4 1.2-.5c.7-.2 1.7-.8 2.2-1.2 1.3-1 3-1.5 5.3-1.7l2-.4c0-.2-.7-2.5-1.4-4-.3-.6-.8-2-1-2.9-.7-2.7-.4-3.1 3.8-5.7l3.4-2.3c.4-.4 1.3-1 2-1.2 1-.5 1.4-.5 2-.3.8.3 1 .2 1.3-.1.5-.8.4-1.2-.4-1.2-1.3 0-2-.6-2-1.5v-.7h.7c1.2.1 1.5-.3 1.5-2.5a18 18 0 0 0-.3-3l-.2-1 .8-1a13 13 0 0 1 5.1-2.7c.7 0 1.4 1 1.6 2.3l.2 1 2 .8 3 .6c1.5 0 2.3.4 2.3 1.2 0 1-.8 1-3.8.7-2-.3-2.5-.4-3.2-1a6 6 0 0 1-.9-1c-.1-.3-.8.7-.8 1.2 0 .3-.5.9-1 1.4-1.2.9-1.5 2-.7 2.2.3 0 1 .3 1.4.6 1 .5.7.4 6 .7 3.3.2 4.2.3 4.3.6.3.8-.7 1-5.3 1.3-3.4.1-4.4.2-4.4.5s1 1.2 1.9 1.5c.7.3.4 1.3-.5 1.8-1.2.6-1.1 1.4 0 2 .9.3 1.4.4 3.3.2 2-.1 2.3-.1 2.6.3 1 1-.6 1.7-4.3 1.7h-2.4l-.6-.6c-.3-.4-.6-1-.6-1.4 0-.6-.2-1-.9-1.5l-.9-.7-1.4.4-3.5.5-2 .2-1.8 1.3-2 1.3c-.2 0-.8.4-1.4 1-1 .7-1.2 1-1.2 1.9 0 2 1 3.3 2.7 4.2.9.5 1.2.5 2.6.3 2-.4 3-.8 3-1.2 0-.2.2-.5.5-.6.4-.3 1 0 3 1a18.1 18.1 0 0 0 5.8 2c.7.3 2.5.5 4 .6 2.7.2 3.6.5 3.6 1.3 0 .7-1.3.9-4.1.6a30 30 0 0 1-9.7-2.1c-.7-.3-1.3-.4-1.7-.3-.9.4-3 .8-3.7.8-.4 0-1 .4-1.5.8-.9.7-2.9 1.4-6.6 2.3-1.9.4-3.5 1-5.1 2l-1.4.9h-2.2c-1.5 0-2.5.1-2.7.3-.3.2-.9 1.3-1.4 2.4-1.3 2.9-1.3 2.8-2.2 2.9-.7 0-1 .3-1.7 1.3l-1.5 2-1 1.2a128 128 0 0 1-4.9 7.6 171.2 171.2 0 0 1-4.2 6.5c-.3.2-1.8 3-1.8 3.1l-.8 1-2 2.5c-1 1.5-2 2.3-2.5 2.3-.1 0-.4 0-.6-.2zm51.4-64.2c.7-1.1.5-1.5-.6-1-.8.4-.8.5-.6 1.4.2.8.5.7 1.2-.4zm-62.5 58.8c0-.6.8-1.6 2.2-2.6l3.6-3.2c2.7-2.6 3.5-3 3.5-2 0 .5-1.8 2.5-5.6 6-2.7 2.5-3.7 3-3.7 1.8zm30.4-7.3-2.1-.4c-1.7-.2-3.1-1.4-3.1-2.6 0-1 .9-1.2 3.4-.3 2.7.9 4.6 1.4 6.4 1.6 1.1.1 1.6.3 1.8.7.2.4.2.5-.5.9-.9.4-4.6.5-5.9.1zm7.8-2.2c-1-.4-1.5-1-1.1-1.5.3-.5 7.3-.6 7.7 0 .5.5-.3 1-2.3 1.5-2.2.4-3.1.4-4.3 0zm138-.4c-.4-.2-3.6-.5-8-.7-2.7-.2-4-.5-3.8-1.2.1-.5 3.4-.6 7.3-.2l7.8.7c.2 0 .5.2.5.4.4.9-2.6 1.6-3.8 1zm-79.3-1c-.8-.1-1.1-.3-1.2-.7v-.6c0-.2 3.8-.8 8-1.3l5-.8c1.8-.6 2.1-.5 3 .3l.6.7h1.7c1.9 0 2.5.5 1.3 1-1 .3-3.8.3-4.4 0-.4-.3-1-.3-2.3 0-1 0-1.9.2-2 0 0 0-1 .1-1.8.4l-3.4.5a12.8 12.8 0 0 0-3.2.6l-1.3-.1zm-27.8-1.8c-2-.4-2.5-.6-2.3-1.4v-.5h4.8c4.7 0 5.3.2 5 1-.2 1-4.3 1.5-7.5.9zm61.5-2.8c-.6-.3-1.4-.5-1.7-.5l-1.7-.4c-.6-.2-1.6-.4-2.3-.4-1.3 0-2-.5-1.7-1.2.4-1.1 3-1 7 .3l2.5.6c1.1 0 1.6 1.1.7 1.8-.6.4-1.5.4-2.8-.2zm-47.4-2c-.7-.2-1.2-.8-1-1.3 0-.3.5-.4 1.6-.4a92.7 92.7 0 0 0 15.1-3.1c.5-.8 1.4-.8 3 0a19.1 19.1 0 0 0 4.4 1.5l3 .4c2.4.2 3.4.7 3 1.6v.5l-3.2-.2c-3.8-.2-5.5-.6-6.7-1.4a8 8 0 0 0-1.8-.9c-.8-.2-1-.2-1.5.3-.6.6-2.7 1.2-5.5 1.5l-3.2.7a29.7 29.7 0 0 1-7.2.8zm-45.3-.4c-.4-.5-.4-1.4.2-2l1.6-.6c2.5-.6 5.5-1 6.3-1h.9l-.7-.7c-.8-.7-.8-1.5.1-1.5l2.5.7c3.4 1.4 5.5 1.8 11.1 2.3 3.4.4 4 .6 3.7 1.4-.4 1.1-6 .8-11.2-.6-3.3-.9-3.8-1-3.9-.1-.1.8-.3.8-6 2-2.3.4-4.2.5-4.6 0zm40.5-1.7c-.2-.6 1-1.7 1.8-1.7.7 0 .9.7.4 1.5-.5.7-2 .8-2.2.2zm3.1-8c-5.9-.2-6.6-.4-6-1.4l.2-.6h3.7c5.3.2 10.6.6 10.8 1 .3 1-1.2 1.2-8.7 1zm209.5-1.1c-1.2-.2-1.8-.8-2.7-2.8l-.7-1.3.5-.4.7-.3c.5 0 1.7 1 1.7 1.4 0 .2.3.6.7 1l.6.6 4-.2a345.7 345.7 0 0 1 18.7-.5c6-.2 7.7-.1 8 .5 0 .3 0 .6-.4 1l-.5.4-5.7.1a4834.3 4834.3 0 0 1-25 .5zm-97.6-1.1c-.3-.2-.5-.4-.5-.6 0-.4.5-.6 3.9-1s5.4-.8 6-1.2c.3-.2 1.2-.4 2-.4s2.1-.1 3-.3c1.1-.2 1.6-.2 2.3 0 1.6.7.2 1.7-2.6 2-2 .2-6 .8-8.8 1.4-2.4.4-4.7.5-5.3 0zm31.8-.3c-1.8-.5-4.2-1.8-4.5-2.5l-.3-.6h-1.8c-2 0-2.5-.3-2.1-1.2.2-.7 1.3-1 3.7-1h1.5l.6.8c.3.3.5.8.5 1l.6.6 1.7.7c.5.3 2 .5 3.3.6 1.8.2 2.2.3 2.3.7.2 1-.4 1.2-2.6 1.2a21 21 0 0 1-3-.3zm31.5-.7c-1.3 0-1.7-.7-1-1.3a16 16 0 0 1 5-.4h6.4c1.5 0 1.9 0 2 .3 0 .7-1.3 1.2-4 1.2a621.3 621.3 0 0 0-8.4.2zm-87.7-2a37 37 0 0 1-6.8-2.3c-2.8-.8-4.1-1.4-4.3-2-.4-1.8 3.3-1.6 7 .4 1.8 1 3.7 1.6 5.6 2 .3 0 .7.3.8.5.3.9-1 1.6-2.3 1.3zm-35-2c-.8 0-1.3-.3-1.6-.7l-.4-.6.5-.4c.4-.4 1-.5 4-.6l9-.2 7.9-.2.3.4c.4.4.3.5 0 1-.4.3-1.3.4-5.2.6-2.6 0-5.4.4-6.3.6-1.6.3-6 .4-8.3.1zm-23-2.7c-3-.4-4.9-1.6-4.3-2.7.3-.5 1.2-.5 2.6.3 1 .4 6.5 1 7.8.7 1-.2 2 .2 2 .8 0 .2-.3.6-.6.8-.6.4-4.9.5-7.6.1zm-124-3c0-1 3.1-5 7.8-9.8 5-5.3 4.8-5 6.7-7.4 2-2.5 10.6-11.2 12.3-12.6 3.2-2.5 14.7-14.5 16.4-17.1 1.7-2.6 5.2-5.7 5.9-5.3.3.1.6.5.8.9.3.8.6.8 1.4-.1l3.5-3.2a21.2 21.2 0 0 0 4.3-5c2.7-2.9 27-27.4 35.1-35.3 3-3 5-5 5.2-5.6.2-.8.9-1.7 3.3-4.7.6-.7 1.2-1.9 1.4-2.5.1-.7.4-1.3.5-1.3.4-.3.3-1.4-.1-1.7-.2-.2-2.5-.3-6.7-.3l-7.8-.2c-1.7-.3-3.9 0-7.3.9-2.6.7-3.2.7-4.6.2-.9-.3-2.1 0-2.1.4L82 112c-1.7 2-2.4 3.7-1.7 4.4.4.4 1 .2 1-.3 0-.8 1-1 3.7-1l8.1-.5c8.3-.5 10.5-.4 11.5.7 1 1.3.8 1.9-2.2 4.6l-3.6 3.4c-.7.6-1.5 1.1-1.7 1.1-.5 0-1.5.9-6.5 5.7a346.7 346.7 0 0 1-18.9 17.4 14.7 14.7 0 0 1-2.7 2.3c-.4 0-3.4 2.6-5 4.3a125.3 125.3 0 0 1-6.7 6.6l-4.4 4.1-11.4 10.7c-2 2-5 4.7-6.5 6-3 2.7-5 4.6-7.5 7.2a418.5 418.5 0 0 1-18.3 17.8c-.9 1-1.6 1.1-1.8.4-.1-.4 0-1 .2-1.3.3-.6 6.7-7 9.8-9.7l9-8.7a924 924 0 0 1 36.5-34.8 215.3 215.3 0 0 0 10-9.5 188.5 188.5 0 0 0 8.8-8.3c2.4-2.2 2.9-2.8 3.1-3.7.2-.8.6-1.4 1.2-1.8l.9-.7-.7-1.4-.7-1.3.2-2.8c0-1.6.2-3.5.3-4.3.1-1.2 0-1.5-.2-1.6-.6-.3-.8.8-.6 3.5.1 1.7.1 2.4-.1 2.4s-.3.1-.3.3c0 1-2.2 1.7-2.5 1l-.1.3c0 1-.8 2.6-1.2 2.6-1.1 0-1.2-.2-1.2-2.8v-2.5l-.5.3-1.3.2c-.4 0-.6.1-.5.2.7.5 1.3 2.2 1.1 3.3-.2 1.6-1.8 3-2.4 2.1-.2-.4-1.3.2-1.6.9l-.8 1.4c-.2.4-.5 1.9-.7 3.1-.3 2.8-.5 3.4-1.5 3.3l-.7-.1v-2l-.2-2.1h-.5c-.3 0-1.1.5-1.8 1.1a94 94 0 0 1-7.2 6.1l-2.7 2.3-3.7 3.3a28.1 28.1 0 0 1-4.4 3.8l-2.1 2-3 2.4a77.7 77.7 0 0 1-6 5l-1.8 1.6a91.7 91.7 0 0 1-10.2 6.9c-.5.3-1.6 1-2.5 1.8l-2.4 2c-.5.2-2 1.6-3.4 3-1.8 1.7-2.7 2.3-3.2 2.3-.7 0-2.3 1.2-4 2.9-1 1.2-2 1.4-2.1.5-.1-.6 1.6-2.7 3.8-4.4 2-1.5 7-6.2 10.4-9.5 1.4-1.4 1.8-1.9 1.4-1.9-.3 0-.8.4-1.1.8-.7.9-1.8 1.3-2.1.8-.4-.7-.1-1 3.8-3.7l2.7-2.1a77.5 77.5 0 0 1 6.8-5.6c.3-.3 1-.9 1.6-1.2.5-.4 1.2-1 1.4-1.4.3-.5.7-.8.9-.8a22 22 0 0 0 6-4.2c1-1 1.8-1.6 2-1.6.3 0 2.6-1.3 2.8-1.6l1-.8 1.4-1.1a56.2 56.2 0 0 0 8.6-7c3.5-2.8 5.7-5 5.7-5.6 0-.2.5-1 1.1-1.6 1.2-1.1 2-1.4 2.8-.9.4.2.6.1 1-.6.5-1.2 1-1.4 1.8-.8.6.4 1.4.5 1.6.1.3-.5 0-1.2-1-1.8-1.4-1-1.5-1-1.4-2.2.1-.7 0-1-.2-1.3-.3-.2-.6-.7-.8-1.2-.2-.5-.6-1-.8-1-.6-.3-1-1.4-.7-2 .2-.3.8-.8 1.4-1.1a7.5 7.5 0 0 0 3.4-2.9c.6-1.2 2.1-2.7 4-4 .8-.5 1.6-1.2 1.7-1.5 0-.3.5-.9 1-1.2 2-1.8 3.6-3.4 3.6-3.7 0-1.1-.9-.7-3.2 1.6a56.2 56.2 0 0 1-7.6 6.4c-.7.4-1.6 1.2-2.1 1.8l-1.9 1.4a7 7 0 0 0-1.4.9l-.8.4-1.4.8c-1.2.8-2.5 1-2.5.6s-1-.4-1.5 0l-.8.8c-.3.2-.9 1-1.4 1.7-1.2 1.8-1.8 2.2-2.8 2.2-1-.1-1.4.1-1.2 1l-.1 1c-.4.5-4 3.7-6 5.3-2 1.5-6.3 5.6-6.3 6l-.8.6a60 60 0 0 0-10 9.5c-.7.8-1.5 1.5-1.8 1.6-1 .3-6.3 4.6-9.7 7.8-1.3 1.4-4.7 4.3-6.5 5.8l-.7.5.4.6c.3.5.3.7 0 1-.3.2-.9.4-1.4.4-1 0-1.3.2-2.6 1.9-1.7 2-2.8 3-3.2 3-1 0-.2-1.3 3.8-5.9 2-2.3 3.8-4 10.2-9.7a503.4 503.4 0 0 0 7.8-6.8c.1 0 2.7-2.4 5.6-5.4 6.8-6.7 7.1-7 7.5-7 .2 0 .3-.2.4-.3a66 66 0 0 0 9.5-9.5l-.1-1.5c-.2-1-.2-1.3.3-2.2.6-1.3.5-1.6-.8-1.6-1 0-1 0-1 1.6 0 1.3-.6 2.4-1.4 2.3-.5-.1-.6-.3-.7-1.3 0-.6 0-1.4.2-1.9l.3-.7-.8-.3c-.5-.2-.9-.3-1-.2l-.1 2.7c0 1.8.1 2.7.4 3.1.5.7.5.9 0 1.4-.6.6-1.6.5-2.2-.2l-.6-.6.1-3 .1-3h-1c-1.3-.3-1.7 0-1.3 1 .4.8.4 9 0 9.7-.3.5-1.3.6-1.8.1-.1-.2-.3-2.2-.4-5.3 0-5.2-.2-5.8-1.1-5.3-.4.3-.5 1-.7 4.2-.3 3.3-.4 4-.8 4.2-.3.2-.7.3-1 .3-.9-.3-1-1-.8-3.4.3-3 0-5.4-.6-5.4-.5 0-.9 1.3-1.2 4.3-.3 2.8-.8 3.9-1.6 3.9-.9 0-1.2-1-1-3.6l.3-3.5v-1H27.8v.8c0 .8-1.2 2-1.9 2-.6 0-1-.8-.9-2l.1-1.3-2-.1c-1.2 0-2.3-.2-2.5-.4-.6-.5-.4-1.5.2-1.7 1-.2 5-.2 10.4 0l13.2.2a135.4 135.4 0 0 1 10.8 0c.5-.5.7-.3.7.6 0 1.6.3 1.7 2.6.5a9.8 9.8 0 0 0 2.5-1.7c.4-.5.9-.7 1.8-.8.7-.1 1.7-.4 2.3-.7l1.5-.6c.3 0 .5 0 .6-.2l2-.8 2-.7 4.3-4.4c4.4-4.4 6.6-6.8 7.1-7.8.2-.3.4-1 .5-1.6.2-1.3.9-2.3 2-2.9.4-.2 1-.8 1.4-1.4 1.2-2 3.2-2.4 5.7-1.1 1.7.8 3.4 3 4 5l.5 1.8c.4.9.3 3.2 0 4.3-.3.6-1 1.4-1.8 2l-1.4 1.2h-1.4c-1 0-1.4.1-1.7.5-.2.3-.5.6-.8.6-.6 0-2.3 1.5-2 1.7l1-.1c.8-.3 1.7-.3 4.3 0 2.5.2 4 .2 5.8 0 3.7-.5 6-.6 10.8-.6 5.3 0 8 .5 9.1 1.8l.6.7-.1 1.7-.4 3.9a135.3 135.3 0 0 0-1 12.5c-.4 3.7-.2 11.3.3 11.7.2.2.5.1 1-.2l1.8-1.2c.7-.4 1.3-.8 1.3-1 0-.4 1.1-.6 1.7-.2.7.4 1.3.2 1.7-.5.4-.8 0-1.2-1.8-1.4l-1.7-.2-1-1c-1.3-1.5-1.3-2.2 0-5 .6-1.2 1.2-2.7 1.3-3.2.2-.6.8-2 1.4-3a32 32 0 0 0 3.2-8.7c0-.3-.2-1-.5-1.4l-.4-.8.5-.7 1-1.3c.6-.7 1-1.4.8-1.4l-.8-.2a15 15 0 0 1-6.3-2.2l-1.8-1.4-1-.8v-.8c.2-.7 0-1.1-.4-1.8-1-1.3-.8-2.6.5-4 1-.9 2.5-1 2.7-.2l.2.5.5-.5c1-1 2.7-2 3.8-2.4l1.3-.5 3-.7a29.4 29.4 0 0 0 4.9-1c.9-.1 1.2-.5 1.2-1.5s-.3-1.1-.9 0c-.5.8-.7 1-1.5 1h-.9v-1c0-1 .8-3 1.8-4.7.4-.7.8-1.9 1-2.6l.4-1.4-.7-.7c-.4-.3-.8-.5-1-.4a49.8 49.8 0 0 0-3.8 7.8L130 89h-1c-1 0-1-.5-.3-2a82.3 82.3 0 0 0 2.8-6.2 110.7 110.7 0 0 0 9.7-29.9c.7-4 1.3-10.5 1-11.6v-.5L141 40a46.7 46.7 0 0 1-3.3 3.5c0 .4 1.3 1 2 1h.5l-.2 1.1c0 .7-.6 2.2-1.2 3.4-1 2.2-1.9 4-3 7.3-1.3 3.2-2 4.5-2 3.3v-.4l-.4.4a9 9 0 0 0-.7 3.3 17 17 0 0 1-1.4 5.8l-.3 1.2c0 .5-.4 1.5-.7 2.2-.3.7-.7 2-.8 2.9-.4 2-.9 2.8-1.7 2.6l-.6-.1-.6 1.2c-2.3 5.2-2.7 5.8-3.6 5-.5-.6-.5-.7.7-3.1a106.2 106.2 0 0 0 6.6-17.1l2.3-6.6c.4-.9.7-2.2 1-3.7 0-.3.3-1 .6-1.4.3-.3.8-1.4 1.1-2.3a23 23 0 0 1 1.7-4l.4-1.1c0-.3-1.9 1.2-4 3a24 24 0 0 1-2.3 2l-1.9 1.5a46.6 46.6 0 0 1-11.6 7.2l.2.4c.4 0 2.3 1.9 2.7 2.5.4.8.4 1.8 0 2.2-1 .9-2.7-.1-3.7-2-.3-.6-.7-.9-1-.9l-1.5-.3c-.7-.2-1-.2-1.8.1-1.4.7-5.5 1.4-5.8 1-.4-.3-1.4-.3-3.1 0l-1.3.3v.8c0 .4-.2.8-.5.9-.7.2-3 .7-5.5 1a1187.7 1187.7 0 0 0-15.7 1.8l-6.8.4-12.6.3-7.7.1-.2.5c-.2.7.2 5.4.7 7.9l.6 3.3a152.3 152.3 0 0 0 6.1 20.2c1 1.8 1 2.6.1 2.7-.7 0-1.5-1-2.4-3.5-.2-.5-.6-1-1-1.1-.5-.3-.6-.4-1.5-2.4-.6-1.3-1-2-3.5-5.9a18.1 18.1 0 0 1-1.7-2.9C50 84.4 48.1 80.3 46 75a35.2 35.2 0 0 0-2.8-6.2l-.2-.7v1a52.1 52.1 0 0 0 5 16.3l.6 1.6c.4.7.9 2.1 1.1 3.2 1.4 6.4 1.4 6.3 2.3 7.3.7.8 1.4 2.2 1.8 3.6l.9 1.9 1 1.9.5 1.2h1.2c.6 0 2.3-.2 3.7-.5 3.8-.7 9.6-1.2 10-.8.5.3.6 1.4.2 1.7l-.3.6c0 .3-.2.7-.5 1l-.4.4-2.5-.3-4-.3H62v1c0 .5-.1 1-.3 1a275.4 275.4 0 0 1-21.8 0l-.4-.3.5-1.2.6-1.2 1.5-.2a85.4 85.4 0 0 1 11.3-.4c.6 0 .5-.5-.3-1.6-.9-1-2.1-3-2.4-3.7 0-.3-.5-.6-1-.7l-.8-.2v-1.7c0-1.3-.1-2-.5-2.7-.3-.5-.7-1.2-.8-1.7A5 5 0 0 0 47 93c-.3-.4-.6-1.4-.6-2.2 0-.8-.4-1.9-.6-2.5a60.2 60.2 0 0 1-2-5 162.5 162.5 0 0 0-2.8-7.5 76.8 76.8 0 0 1-2-5.7c-1.3-4.6-1.7-5.5-2-5.4-.3.1-.2 18.7.2 26.3.1 3.9.1 5-.1 5.3-.3.3-.4.3-.8 0-.3-.4-.5-1.4-.6-3.6L35 77 35 65.8c-.2-.3.3-6.1.7-7.7.4-1.6.7-2 1.3-2 .4 0 .5.2.5 1l.2.8c.3 0 1.6-1.3 2.4-2.4a10 10 0 0 1 5.5-3.4l3.2-.8 1.6-.4c.6-.2 1.5-.4 2.1-.4 1.4 0 1.7-.3.8-1.2-.8-1-1.3-2-1.7-3.5-.3-.9-.3-1.3 0-2a6 6 0 0 0 .5-2c0-.6.2-1.3.5-1.6.8-1.1 3.6-1.7 4.8-1 1 .5 1 0 0-1.2L56 36a83 83 0 0 0-5.4-7.3 27 27 0 0 1-3-4.3c-.5-1-1-2-1.3-2.2-.7-.7-2.3-3.7-3-5.7l-.8-1.7.2-1.8c.3-2.7.9-3.8 3.5-6.3a12 12 0 0 1 6.6-3.8l2.2-.6 5.6.4c3.1.2 6.2.6 7 .7a14 14 0 0 1 5.3 2.2L75 7c1.3.6 2 1.2 4.7 4.8.5.6.6 1 .6 1.6-.2.7 1 3.2 1.7 4.1 1.8 2 3.1 3.8 5 7.1.6 1.2 1.7 3 2.4 4a31 31 0 0 1 2 3.5c1 1.8 2.7 4.1 3.1 4.1.4 0 3.7-1.6 6.1-3a26 26 0 0 1 3-1.6 58.2 58.2 0 0 0 8-4c.3 0 1.4-.5 2.5-1a489 489 0 0 1 12.5-4.8c1.2-.1 2.6-.4 6.6-1.2 1.9-.4 7.5.3 9.3 1 1.8.8 3.2 2.5 4.7 5.5l1.1 2.1v2.5a161 161 0 0 1-2.2 14.5c-.3 1.2-.6 2.8-.5 3.6 0 .8 0 1.6-.2 2-.2.2-.3 3.1-.4 7.3a159.3 159.3 0 0 1-1 21.7c.2 4.3 0 8.2-.4 8.7l-.4.5-.7-.3c-.9-.5-1-1.3-.7-2.8l.3-1.7-.1-.7-.5.6c-.6.7-1.5.8-2 .3-.1-.1-.2-1.4-.1-3.5.1-2.4 0-3.3-.2-3.3l-.4.3a77 77 0 0 0 0 11.2c.4.5 1.7.5 6.5 0a85 85 0 0 1 6.9-.4c1.5 0 3.2-.1 3.6-.3.7-.2 1-.2 1.6.2.9.7 6.1 1 7 .6.8-.5 5.2-1 8-1h2.6l.1.5c.2.7.6.7 2.6-.3 1-.4 1.7-.9 1.7-1.2 0-1.2 2.2-4 3.3-4.2h2.8c2.5 0 3.4.5 3.5 1.8 0 .4.2.8.3.9.8.2 1-.5 1.2-3.4l.4-4.1.2-1.1-.7-.4c-1-.7-2-3.5-3-8.1l-.3-3.3V65l-.4 1c-.2.6-.4 2-.4 3.2v2.2h-.5a1 1 0 0 1-.8-.4 25.3 25.3 0 0 1 .6-8.8l.3-1.6c.1-.6 0-.8-.2-.8s-.8-.4-1.2-1l-.8-.8-5-.2c-5.3-.1-6.2-.3-8.7-1.5l-1.9-.7-1-.6c-.5-.5-.7-.9-.7-1.6v-.9l-1.3-.3c-2.3-.7-3.6-1.2-4.4-1.7-1.5-1-1.4-2.1 0-2.7.8-.3 1-.6 1-1.1 0-.7 1-1.5 2.6-2a9 9 0 0 0 1.9-1 39.8 39.8 0 0 0 9.1-3.8 6 6 0 0 0 1.3-.5c4.1-1.9 6.3-2.3 12.5-2.5a26.2 26.2 0 0 0 6.1-.7l2.5-.3c2-.5 4.4-2 5-3.3.3-.5 1.2-1.1 3.3-2.2 3.3-1.7 5.8-2.2 9.7-2.2l2.4.1.8-.7c1.4-1 6.6-3.5 8.7-4a27 27 0 0 1 5.1-.7c1.8-.1 4-.4 5-.6 2.3-.5 3.7-.4 4.7 0 .7.4 1 .4 1.5.2l.6-.6c0-.1.5 0 1 .3.6.3 1.6.5 2.2.5.6 0 1.6.3 2.3.7.7.4 1.7.7 2.2.7 1.6 0 1.7-.5 1.3-4.6-.5-5-.5-16 0-17 .2-.5.6-.8 1-.8h.5l-.1 2-.1 5.3-.1 3.3.6 1.2c.5 1 .6 1.2.3 1.7-.2.5-.3 1.4-.1 3.2l.1 4.2c0 1.7.3 2.4 1.7 3.6.5.3 1.5 1.3 2.2 2 1.1 1.1 1.6 1.4 1.9 1.2.8-.4 5.8-.1 8.3.5 2.6.6 3.6 1.2 3.3 2-.2.5-.3.5-3-.3-1-.2-2.3-.4-3-.3h-1.5l2 .7c2.4.7 4 1.4 6.5 2.5a34 34 0 0 0 3.8 1.5c1 .3 2 .7 2 1l2.7 1.5c3 1.4 4.8 2.6 5.2 3.5.4.8 4.5 3.5 5.3 3.5.4 0 1.4.3 2.3.6 1 .3 2.7.6 3.9.7 2.4.2 3.2.6 6.3 3.3 1 .8 2.6 1.9 3.4 2.3l2.7 1.8c1 1 1.2 1 4.4 5.4 1.7 2.3 2.3 2.9 3.7 3.6 1 .5 2.6 1.8 3.7 2.8l2.3 2c.3 0 .2-3.6 0-12v-6.7c1-13.5 1-19.8.7-36.3-.2-9.6-.2-10 1-10 .4 0 .8 0 .8.2.2.3.2 4.7 0 18.2a215.8 215.8 0 0 0 .1 16.2 200 200 0 0 0-.5 15.8c0 10.3 0 13 .3 15.6l.3 2.5 2.2 3.4a227.4 227.4 0 0 1 3.5 5.8 48.2 48.2 0 0 1 5.1 11.6 32.5 32.5 0 0 0 4.8 9.3l4.3 6a26 26 0 0 0 2.6 3.6c0 .2.2.7.6 1l.6.8.6-.4c.7-.4 3.6-.6 19-1.1 6.5-.2 6.4-.2 6.8.1.5.5-.2 1.2-1.5 1.4a388 388 0 0 1-24 1.2c0 .1.4 1 1 1.9.5 1 1.1 1.8 1.6 2a179.2 179.2 0 0 0 24.5-.2c4.9-.3 12.3-.3 14.4-.1l9.5.2c4.1 0 7.5.2 7.6.3 0 .1 1.9.2 4 .2 4 0 5 0 5.2.7.6 1.6-2.4 2.4-4.9 1.4-.5-.2-1-.2-2 0-1.4.3-2.7.2-3-.2-.2-.3-10.3-.7-18.4-.7-8.2 0-19.1.5-20.9.9a112.8 112.8 0 0 1-15 0c-.1.2.3 1.4 1 2.7l1.2 3.4 1 3.9c.3.5.5 2 .5 3 0 1.4.3 2.2.5 2.4.5.4.5 1.7 0 2-.5.5-.9 4.7-.4 5.2.4.6 3.3 1 5 .8 1.3-.3 2.1-.8 2.1-1.6 0-.5.8-.8 2-.6 4.7 1 14 1.6 21.6 1.4 6 0 7 0 7.3.8l-.1.8a217.6 217.6 0 0 1-21.9-.2 37 37 0 0 1-3-.3c-2-.3-1.8.2.5 1.5 2.2 1.3 3.2 1.8 5.2 2.4 1.7.6 2.3 1 2 1.7-.1.5-1.3.5-3.3-.2-2-.6-2.8-1-6.4-3l-2.6-1.5-1.6.3c-1 .2-2.9.3-4.4.4-2.9 0-4 .5-4 1.5 0 .3.2.5 1 .6 1 .2 1.5.8 1.3 1.5-.2.7.8.7 1.8 0a5 5 0 0 1 4-1.2c1.5.2 2.1.7 2.4 1.7.2 1.3 1 1.7 5 2.5l3.2.7c1.3.2 2 .8 1.8 1.4-.2.6-2.5.6-4.9 0l-5-1.1c-.6-.1-1.5-.6-2-1l-.7-.8h-2.4c-2.2.1-3.1.4-3.1 1 0 .2.3.2.8 0 1.1-.2 1.8.1 1.8.9 0 .6-.8 1-4 1.7l-1.6.4-.6 1.3-.5 1.5h2l1.9-.1.7.9.7.8 2-.3c2.5-.4 3.5-.1 3.3.9 0 .5-.3.6-1.6.7a122.2 122.2 0 0 0-13.6 2.3c-.8.5-2.8 1-4 1-1.1-.1-1.2 0-.8 1 .3.7-.2 1.5-.8 1.5-.3 0-.8.4-1.1.8-.6.8-1.4 1.2-3.5 1.5l-1.3.1-1.5 1.5-3 3.4c-3 3.3-4.6 4.6-8.7 6.8-2.9 1.5-4.7 1.8-6.4.9-1.5-.8-4.7-1.1-6.8-.7-.8.1-2.2.6-3 1a19.6 19.6 0 0 1-10.3 1.2c-1-.1-1.4 0-1.8.3-.5.5-.3.5-9.5.8a60.8 60.8 0 0 0-11.5 1.4c-1.2.3-1.5.4-2.1 1.6l-.3.4H272c-2.8.1-4.5 0-5.4-.2a22 22 0 0 0-4.7-.4c-3.7 0-5-.4-5.4-1.4-.2-.6-.6-.6-1.3-.1-.3.2-1.6.4-3.8.4a34 34 0 0 0-3.8.2c-.2 0-.8-.2-1.2-.6-.7-.5-1-.6-1.8-.5-.6.1-1.2.5-1.7 1l-.7.8-2.2.2-2.2.2-2.2-.6a25 25 0 0 0-4.1-.8c-1.2 0-2.3-.3-2.6-.4l-1.3-.3a6 6 0 0 1-2.1-.6c-1.6-.8-4.4-1.4-5.7-1.1-.5 0-1.2.4-1.6.8l-.7.6-.5-.6a2 2 0 0 0-1.6-.7 137.7 137.7 0 0 0-5.7-1c-1.5-.3-4-1.5-4.3-2 0-.2 0-.6.3-.8l.3-.4 1.9.4 2.6.7c.8.3 1.7.1 1.7-.3 0-.3-2.1-1.3-3.3-1.7-.3 0-.8-.4-1-.7l-.8-.5a37 37 0 0 1-3.5-1.3l-3.1-1.2-2.2-2.1-2.2-2.2v-1c0-.7-.1-1-.4-1-.2 0-.5.2-.6.5-.2.6-1.8 1.4-2.9 1.4a24 24 0 0 1-6.3-2c-.5-.1-1-.8-1.4-1.3l-1.1-1.6c-.4-.3-.5-.8-.5-1.5a26.3 26.3 0 0 0-4.3-12l-1.2-4-1.3-3.6v-3c0-3-.4-5.3-1.3-8l-1-3.5c-.2-1.2-.8-3.3-1.2-4.6l-1-4.6a7 7 0 0 0-1-2.8c-.6-.7-1.4-2.2-1.9-3.8-.5-1.6-1.7-3.1-2.3-2.9-.3.1-.5.7-.6 1.5a12 12 0 0 1-1 3.2 26 26 0 0 0-2.3 9.5 90.2 90.2 0 0 1-1.4 8.2 34.8 34.8 0 0 1-1.2 5.9l-1 4.2c-1.5 5-1.7 6.2-1.5 6.4.2.2 1.7.3 3.5.3 4.8 0 4.4 0 4.5-1l.1-.8h1.4l1.4-.2v-.6c0-.8.7-1.2 3.3-2.1 2.7-.9 3.3-.9 3.5 0 .2 1 0 1.3-1.4 1.7-1.6.5-1.6 1 .1.8.8 0 1.4.4 1.4 1.2 0 .7-.5.9-2.4 1-1.6.1-2.2.5-1.2.8h1l.8.6c.5.5.6.8.5 1.2-.4.7-1 .8-2.7.4-2.2-.6-6-1-10-1a25 25 0 0 1-4-.3l-.5-.3v1c0 .9 0 1 .4.7.3-.3 1.3-.3 4.3-.2 4.4.2 5.3.4 5.3 1.3 0 .4-.1.7-.3.8H157.4l-.5-.6-.6-.6-.3.9a54.3 54.3 0 0 1-3.3 12.8 94.8 94.8 0 0 0-2 5.4c-1 1.7-1 1.7 2.9 2.1 1.3.2 2.6.2 3.2 0l.9-.2h-.7c-.6 0-.9-.2-1.1-.7l-.3-.7.6-.5c.7-.6 1.3-.6 3.6-.2h4.3l2.6-.3.5.5c.8.8.3 1.3-1.4 1.6l-2.4.5c-.8.1-1 .3-1 1-.2 1.2-1 1.5-4.9 1.5l-6-.2-2.6-.2-.5.8c-.3.4-.8 1.3-1 2-.3.7-.8 1.4-1 1.6a8 8 0 0 1-4 1.1c-1.8-.4-2.6-5-1.8-10.3a42.1 42.1 0 0 1 2-8.4l.5-1.4c.2-.5.7-2.4 1-4.4a97.5 97.5 0 0 1 2.9-12.2c0-.3 0-.8.2-.9.3-.3 1.2-3.3 1.5-4.5l.7-2.8.7-3.1.1-1.1h-.5c-.3.1-.6.5-.8 1.3-1.4 5.1-2.2 8.2-2.2 8.9 0 1.1-.6 3-1.2 3.6-.7.8-1.2 2.8-1.2 4.2 0 1.8 0 1.8-.7 2.2-1.6.7-2.2 1.8-1 1.8.6 0 .7 0 .6.7 0 .6-.4.9-2 1.7a14.5 14.5 0 0 1-4.7 1.5l-.5.1.5.2c.5.3.6 1.2 0 1.4-.5.2-7 0-9-.3-1.6-.2-2-.4-2.5-1-.4-.5-.8-.9-1-.9-.5 0-.9 1-.7 2 .2 1-.4 2.2-1 2.2-.3 0-.7.4-1.1.9-.5.6-.7 1-.7 1.9.1 1.3-.1 1.8-2.2 4.3-1 1.2-1.7 2-2 2-.4 0-1 .2-1.4.5-.6.4-.7.6-.5 1.1l.1 1c-.1.5-1.6 1.7-3.5 2.8-.8.5-2 1.4-2.6 2a5 5 0 0 1-2.1 1.5c-1.4.4-4.3 2.3-4.3 2.8 0 .4.7 1 2.2 1.7.4.2 1 .6 1 .9.5.6-.9 2-2.3 2.3l-1.2.5c0 .4 1.4 1.4 2 1.5l1.3.2c.5.2.7 0 1-.6l.2-.9.9.2c.5 0 1.7.4 2.8.7l3.5.7c1.2.1 1.7.3 2 .7.7 1 0 1.2-3 1h-4.2c-.9.1-2.5.2-3.7 0a7.5 7.5 0 0 1-3.7-1l-1.6-.9-2 .8c-2.6 1.1-4.7 2.5-4.9 3.4-.3 1 .1 1.4 1.8 2 1.6.5 1.9.8 1.5 1.6-.4.7-1.6.5-4-.6l-1.8-.8v-2.7l-.6.3-1.1 1.3c-.6 1-1 1-1.4.3-.2-.4-.2-.8.3-1.7.4-.7.7-1.5.7-1.9 0-1.6 2.3-3 4.7-2.6 1 0 1.8 0 3.5-.6 1.2-.4 2.2-.9 2.3-1.1 0-.2-.2-.8-.7-1.2-.6-.7-.8-1-.7-1.5.3-.9 1.2-.8 2.4.1 1.3 1.2 2 .8.8-.4-.4-.3-1-1-1.2-1.5-1-1.6-.3-2.4 4-4.2 2.6-1.2 3-1.5 3.3-2.1.4-1.1.9-1.7 1.5-1.7a6 6 0 0 0 2-1l2.4-1.7.9-.5-.6-1c-.5-.7-.6-1.5-.7-4l-.1-3.2.5-1c.7-1.2.8-2.3 1-8.6 0-2.8.3-6.4.5-8.1a65.7 65.7 0 0 0 .9-10.1l.4-1.1a288.7 288.7 0 0 0 .8-20.6c.1-.4 0-.8-.2-1.1l-.4-.6-3.1 3a80.7 80.7 0 0 0-7.4 7.7c-.6.8-2 2.5-3.3 3.6l-4 4-1.9 1.8-.3 1.8a88 88 0 0 0-1 6.8c-.5 3-1.3 13.7-1.5 18.4-.2 3.3-.4 5.7-.6 5.9-.4.5-1 .4-1.2 0-.2-.4 0-4.7.3-6.7l.4-5.8a144.7 144.7 0 0 1 2-18.2 20.7 20.7 0 0 0-4 4c-.1.3-.3 2.4-.3 4.7l-.3 7.7c-.2 1.8-.4 5.2-.4 7.4-.2 6.3-.4 8-1 8.3-.4.2-.6.1-1-.4-.3-.6-.3-.9 0-2.2.4-2.3.5-4 .8-10.7.6-11.9.6-12.6.2-12.6-.3 0-2 1.6-4.2 4.2l-2.2 2.4a17.7 17.7 0 0 0-4 4.7c-.7 1.2-2.3 3-3.4 3.6l-2.4 2.1-4.4 4.1a27 27 0 0 0-3.1 3.3c-.4.5-.8 1-1 1-.3 0-2 1.5-4 3.4a24 24 0 0 1-5.2 4.3 19 19 0 0 0-4.7 3.9 426.2 426.2 0 0 1-15 14.4 646 646 0 0 0-24.3 24.5c-.2 0-.7.4-1 .8-.9.9-1.2 1-1.2.3zm263.3-36c0-.2-.2-.4-.5-.4-.5 0-.5 0-.3.4l.6.4.2-.4zm-12-1.2c.5-.2 1-.2 1.6 0 .5.2 1 .3 1.1.2.2-.2-.6-1.2-1.4-1.6-2.7-1.5-2.8-1.5-3.3-1.2l-1 .2c-.5 0-.6.2-.6 1s.1 1 .9 1.3c1 .4 1.8.5 2.7.1zm10-.2-.8-.8c-.7-.7-2.6-1.3-3-1 0 .2.8 1.5 1.3 2 .3.2 2 .1 2.4-.2zm-27.9-1.4c1.8-.3 3.4-.4 3.6-.3.2 0 .7 0 1-.2 1-.4 3.1-1 4.5-1.2l1-.1V178c0-1.7.8-2.6 2.1-2.3l1.2-.1c.5-.4 2.3-.4 3.4.1l1 .5.9-1 .8-1 1 .2 2.3.2c2 0 5 1.5 7.2 3.7l2.8 2.5 1 1 3-.3 2.9-.2.6-.6c1-1 2.9-.7 2.9.5v.5l2.4-.1 2.5-.3-.1-.7c-.5-1.4.2-1.6 2-.9l1.1.4 1.7-.5c2-.7 7-.7 7.7 0 .7.6 4 1.3 4.7 1.1 1-.3 1.3-.6 1-1.1-.3-.4-.3-.8-.1-1.4l.2-.9h1.5c.8.1 1.7.3 2 .6 1 .6 2.6.4 4.5-.7 3.4-2 5-2.7 6.8-2.8 1.4-.2 1.8-.1 2.5.3.8.5 1.4 1.3 1.4 2.3 0 .3.2 1 .5 1.4.6 1 .9 1 3-.8 3-2.6 4.5-4.1 4.3-4.5-.2-.7 0-1.2 1-1.8l1-.5v-2.6l.8-.5c2-1 3-2.3 4.6-5.8 1.2-2.6 2-5.9 2.4-8.7.2-1.9 1.1-4.6 1.9-5.4a3 3 0 0 1 1.4-.7c.7-.1 1.1-.3 1.3-.7.3-.8 1.2-1.6 1.7-1.4.5.2.5 1.3 0 2.2a37 37 0 0 0-3.2 10.7c0 .9-.4 2-.6 2.5-.6 1-1.2 3-1 3.2.2.1 2-1.3 4.3-3.3 1.7-1.4 2-2.3.5-2-.6 0-.9 0-1-.3-.2-.5.1-.9 1.3-1.2 1.3-.3 3-1.7 3-2.4l.5-1.7c1-2.2 1-2.2-.7-3.5-.4-.4-.5-.6-.3-1 .2-.6.4-.7 1.4-.7.7 0 1.3-.1 1.4-.3.3-.4 1-3.1 1.5-5.4 1.3-5.5 1-14.7-.4-14.6-.2 0-.6.4-.9.8l-.8 1c-.5 0-1.2-.8-1-1.3l.4-1.8.3-1.4-.5-1a48 48 0 0 0-7.1-10.8c-.4-.7-1.2-1.8-1.8-2.4a5 5 0 0 1-1-1.4c0-.4.7-.6 1.4-.3l.7.2a14 14 0 0 0-2-3l-1-1.5-.3-.6-.9.5-.8.5-.4-.6-4.7-7.4-.4-.8-.5.4-.8.4c-.3 0-3.1-2.7-6.4-6-3.3-3.4-6.5-6.5-7.1-7-1.4-1.3-1.6-1.1-1.8 1.4-.3 3.3-1 4.5-2.3 4.1h-.5v1.3c0 .8-.1 1.8-.3 2.1-.3.7-1.4 1.2-1.8.8V91c.4-3.3.3-4 0-4s-.5.6-.7 1.6l-.6 2.3c-.4 1.3-.3 2 .4 3s.6 1.6-.4 3c-.7 1-.8 1.4-.8 2.6 0 .9.2 2.2.5 3a18 18 0 0 1 .7 9.7c-.2 1.5-1.3 2.9-2.1 2.9-.9 0-1-.4-.2-2.4.7-2.2.7-4.8 0-8.1-.4-2.3-.8-3.3-1.3-3.3l-1.6 1.4c-.8.7-2 1.7-2.8 2.1-.8.4-1.8 1.3-2.2 1.9-1.3 2-2 2.6-4.4 5.2-2.5 2.7-3 3-3.6 2.8-.8-.3-.5-1.3.7-2.5 2-2 1.8-2-2.7.4-3.1 1.5-4.4 1.8-5.5 1.4-1-.2-1.2-.2-1.9.1-1 .5-1.6.6-2.6.2-.7-.4-1.2-1.8-1-2.8l-.1-.7c-.4-.3-3.3.3-4.6 1-.8.3-1.7.5-3 .5-2.3 0-2.9-.4-2.7-2 0-.7 0-.9-.4-.8-.2 0-.4.2-.5.3-.3.6-5.8 5.1-6.6 5.6-.7.3-1 .8-1.4 1.7l-.8 1.5c-.3.3-1.8.4-6.2.4h-5.7l-1.9-.7c-2.4-.9-2.6-1-2.2-1.7l.3-.5 2 .1 3.8.4c2.1.2 6.2-.3 6.7-.7.5-.6-.3-1.2-1.6-1.2-5.8-.2-10.9 0-13.2.7-2.4.6-4.5 1-6.8 1h-2l-.1-.6c-.1-.5-.3-.6-.9-.5a7 7 0 0 0-1.8.6c-.6.3-1.3.5-1.6.5-.6 0-1.9.7-2.8 1.4-.8.6-1.2.6-1.7 0l-.5-.4-1.5.6c-1.3.5-1.6.8-1.6 1.3 0 .4-.3.7-1.5 1.2l-1.9.7c-.5 0-3.8 1-4 1.3l-1.4 1-4.2 4c-2.5 2.5-3 3.2-3 3.9 0 .6-.2.9-1.3 1.4-.6.4-1.4 1-1.7 1.5l-1.1 1.4a12 12 0 0 0-2 4.4c-.9 3.2-1.5 6.1-1.7 7.5-.1.8-.4 1.9-.6 2.3a4 4 0 0 0-.5 1.6c0 .5.1.6.6.6.8 0 1 .7.8 1.8-.2.5-.2 1 0 1.3.3.3.9 1.3 1.4 2.3 1.6 3 3.2 5.4 4.8 6.8l1.4 1.3 1-.1c1.2-.2 1.4 0 1.6 1.6.2 1.4 1 2 3.6 2.2 1.7.2 2.1.4 2.9 1 .7.7 1.4 1 3.4 1.3 2.7.5 5.5.6 6.3.1l3.4-.4 7.7-.2c3.4-.2 5.1-.2 5.7 0l.7.4-.1.8c-.1.7 0 1 .4 1.2.3.2.4.6.4 1-.1.6-1.2.8-2.4.4a32 32 0 0 0-6.6-.3c-3.2 0-5.9-.2-6-.3-.2-.4-2-.2-2.9.4-.8.4-1.1.5-2.8.4-1.4-.2-2-.1-2.4.2-.2.2-.7.3-1 .2-.5-.2-.6-.2-.2-.9.3-.5.3-.5-2.2-1-1.4-.2-2-.4-3-1.4-.6-.6-1.1-.8-2.8-1-2.3-.3-3.4-1-3.9-2.5-.2-.6-.6-1-1.8-1.5-2.2-1-3.8-2.7-6-6.3-1.4-2.2-1.4-2.2-1.7-1.8-.4.5-.4 2 0 2.8l1.6 2.3 1.3 2c0 .2-.3.6-.6.9l-.5.6 2.8 2.8c3.2 3.2 4.8 4 8.7 5.3l3.3 1.2c.6.3 1.5.5 2.3.5 1.4 0 4 .6 4.4 1 .2.2.7.4 1.2.4.7 0 .9 0 1 .6.1.4.4.7.8.8a69 69 0 0 0 8.2 1.2c.7.3 4.1.2 8.3-.3zm57.2-6.1c-.9-1.1 1-3.5 4-5 1.7-.9 2.3-1 3.7-1 2 0 3-.3 4.7-1.4 1-.6 1.6-.8 2.7-.8.8 0 1.8-.1 2.2-.3a14 14 0 0 1 2-.8c1.4-.4 3-1.2 4.5-2.2l1.7-.8c1.8-.4 6-4 8.7-7.8 2.3-2.9 3.2-4.5 3.5-5.7l.2-.9-1.4.2-1.3.2-.7-.7c-1-1.1-.6-1.5 1.7-1.3l1.8.1.3-.6.4-1.1c.4-1.4 2-.6 1.8 1 0 1 .3 1.2.8.2.4-.8.5-3 .1-3.9-.1-.2 0-.7.3-1.1.8-1 1-2.6.6-5.7-.4-4-1.5-8.7-2.9-12.5a31.6 31.6 0 0 0-5.1-9.4c-.8-1.6-1.4-2-2.8-2.4-1.6-.4-2.1-1.5-1-2.3l.7-.4 1.5.5c.8.3 1.8.6 2.3.6.4 0 1.3.2 1.9.5.6.3 1.8.8 2.8 1 2 .8 3 1.4 5 3.5 1.7 1.8 2.8 3.9 2.5 4.9-.3 1.4-1.6.7-2.7-1.7-.3-.8-.8-1.4-1.2-1.6-.4-.2-.7-.4-.7-.6 0-.5-5.2-3.3-6.3-3.4-.8 0-.7.5.2 1.6.4.5.8 1 .8 1.2l.4.7.7 1 1.3 2.4a33.8 33.8 0 0 1 3.6 11.6v.6l1-.2c.8 0 1.2 0 1.5.4.5.6.9 2.5.9 5 0 1.3.1 2.1.6 3l.6 1.2-.3 1.5a8 8 0 0 1-.8 2l-1 2a8 8 0 0 1-.8 1.5l-1.1 1.6-1.8 2.5c-.5.6-1.3 1.9-1.8 3-.4 1-1.5 2.5-2.3 3.4a58.2 58.2 0 0 1-6.6 6.2l-2 .8c-1 .5-2 .7-2.2.7-.8-.2-2.7.7-3.2 1.5-.4.6-3.6 1.7-5 1.7-.4 0-1.3.3-2 .6s-1.8.5-2.8.5c-.9 0-2.6.2-3.9.5l-4 .8-1.7.3-1.5 1.6c-1.6 1.6-2.6 2.1-3 1.5zm32-13.7a14 14 0 0 0 2.3-2l2.2-2.8c1.4-1.7 2.5-3.4 2.3-3.6-.4-.4-1.5.8-3.8 4.7a30.1 30.1 0 0 1-5.1 5c0 .4.3.2 2.2-1.3zm12.4-16-.6.7a4 4 0 0 0-.7 1.3c0 .2.3 0 .7-.6a4 4 0 0 0 .6-1.3zm.5-1c-.1-.2-.2-.1-.2.2 0 .2 0 .4.2.3v-.5zm1.1-2.7v-.5l-.4.5c-.2.3-.4.8-.4 1.2v.6l.4-.6.4-1.2zm-130.6 21.1-1.8-.3c-1.3 0-5.2-3.7-6.4-6-.7-1.4-1.4-4.1-1.4-5.6l-.4-2.6c-.5-2.3-.3-3.3.5-3.5 1-.2 1.5.3 1.5 1.9 0 1.8.2 2.2 1 1.5.4-.4.6-1 .8-3.7.4-3.7 1-6.3 2-7.7.9-1 2.2-1.7 2.9-1.3.9.5.8 1-.3 2l-1.1 1-.6 2.1-.7 4a46.2 46.2 0 0 0 1.4 13c0 1.5.4 2 1.8 2.6l1.8.7c.3 0 .7.2 1 .5.4.4.5.6.3 1-.4.7-.8.8-2.3.4zm-5.9-10.2c0-.7-.2-1.3-.4-1.4-.6-.2-.6 1.1 0 2.2.3.8.5.5.4-.8zm13.4 7.2c-2-.3-4.2-1.6-4.9-2.8l-.8-1.4a17.1 17.1 0 0 1 .6-15.8c2-3.8 2.5-5.2 2.5-5.8 0-1.2.3-1.4 1.4-1.4.6 0 1-.1 1-.3 0-.2 1.2-.8 1.7-.8l.8.4.4.4-.4.8-1.3 1.4a12 12 0 0 0-3.8 5.9 25.2 25.2 0 0 0-2.1 7.1c0 .6.2 1.8.5 2.7l.6 2.5c.3 1.3 1.2 2.9 1.7 3l2.1 1 2 .7c.5 0 1.5 1.1 1.5 1.6 0 1-.9 1.2-3.5.8zm75.5-39.7c-.7-.4 0-1.2 1.6-2 3.4-2 6.1-4.4 7.1-6.6.3-.6 1-2 1.4-3.2.8-2.3 1.3-3 2-3 .8.2 1 1 .4 2.2-.3.6-.6 1.3-.6 1.6l-.6 2.2c-.5 1.6-.9 2-2.6 3.8-2 2-4.6 4-6 4.5-1.2.5-2.4.7-2.7.5zm-151.6 58.1c.2-.3.5-1.8.7-3.3a13 13 0 0 1 1.5-5.2l1.2-2.4-.4-.6c-.6-1.1-.4-2 .7-3.5.6-.8 1.5-2.2 2-3.2l1-1.8-.5-1.4c-.3-1-.4-1.5-.2-2.1.2-.5.3-1.4.3-2.1 0-1.1 0-1.4.6-1.8 1.4-1.1 2.4-.4 1.9 1.5-.2.6-.3 1.8-.3 2.7 0 1.3 0 1.4.3 1 1-.9 1.5-4.1 1-5.6a65.7 65.7 0 0 1 2.9-21.2l.6-3.9c.6-3 .9-9.6.4-8.6a69.7 69.7 0 0 0-6.3 21.8l-1.8 8a1226.4 1226.4 0 0 0-6 23.2c-.7 1.1-.8 9.5-.2 9.2.2 0 .5-.4.6-.7zm17.4-1.9h-.5c-.2 0-.2.1.1.2.3 0 .5-.1.4-.2zm32.4-9.1c.2-.3.1-.7-.4-1.3-.6-.8-1-1.5-2.3-3.9-.5-1-1.3-4.2-1.6-6.6-.4-3.1-1-5-1.7-5.6-.8-.6-1-1-1.1-2.4l-.5-1.9-.8-1.5c-.4-1-1.1-1.6-1.6-1.7-1 0-.5 2.7.5 3.1 1 .4 1.3 1.6 1.7 5.1.7 6.3.7 7 .2 7.5-.4.4-.4.6-.1 1.7l1 2.9c.5.8.8 1.7.8 1.9l.8 1 .8.6.8-.3c.9-.3 1.6 0 1.6 1s1.4 1.2 2 .4zm-44.1-.1.4-.7.5-1.4c.9-2 1.5-4.1 1.2-4.4-.5-.4-.8 0-2 2.4-1.4 3-1.5 5.5-.1 4.1zm44.2-6c0-.2-.1-.2-.2.1 0 .3.1.5.2.4v-.5zm-59-1 .5-.3h-.4c-.6 0-1.7-1.1-2.3-2.3-.4-1-.4-.9.4-4a48.4 48.4 0 0 1 4.3-10 523.6 523.6 0 0 1 3.3-6.8c.2-.8.9-2.3 1.4-3.4a26.6 26.6 0 0 0 2-4.6c.8-1.7.8-1.8.6-3.4-.2-1-.1-1.7.5-3.5A61.7 61.7 0 0 1 150 111c0-.2-.5-.2-1.1-.2-.8 0-1.7-.3-2.7-.9l-1.6-.8-4.6-.2-4.7-.2-1.8-1c-2.5-1.4-2.6-1.3-3 2.7-.4 3-.1 7.5.5 10.4.2 1.2-.4 5.8-1 6.5-.2.4-.6.7-1 .7h-.7l.1-1.7v-1.9s-.4.3-.7 1l-.6 1.1H125.5l-.3 2.2c-.4 2.5-.3 2.9 1.1 3.5.5.2 1 .7 1.3 1.1.6 1.3.2 2.2-2.4 4.8a21 21 0 0 1-5.7 4.3c-1.4.7-1.7 1.4-1.9 4.3v2.5l1.5-.2 3.3-.4a9 9 0 0 1 2.5-.2c1 .3 2.2 0 2.2-.5l.5-.8c.5-.3.8-.4 1.8-.3 1.5.2 2 .6 1.9 1.4 0 .3-.4.6-1 .8-.4.1-.8.4-.8.5l-.4.8-.3.5-4.2.1-5.6.2h-1.4l-.1.8-.3 3-.1 2.4h1.2c1.2.2 3.7 0 8.1-.8 1.8-.3 2.5-.2 2.8.5.2.5-1 1.4-2 1.5l-1.1.2.6.3c.3.2 1.6.4 2.7.5l3.4.4c1.9.4 2.3.4 2.8 0zm2.2-36c-.3-.3-.4-1.7-.4-7v-6.6l.7-.1c.5 0 .8.1 1.3 1s.5 1.3.4 2c-.2.6-.3 3.1-.3 5.7 0 3.5 0 4.7-.3 5-.5.6-1 .6-1.4 0zm-5-1.8c-.4-.2-.4-1.2.2-3.6l.5-2.2-.2-2.7c-.4-3-.1-4.1.7-4 .8.2 1.6 1.8 1.8 3.3.4 2.8-.6 7.6-1.7 8.8-.6.6-.7.7-1.3.4zm9.3-1.2c-.2-.2-.3-.4-.2-.5.1 0 .2-1.7.1-3.6 0-4.9 0-5.4.5-5.9l.3-.4.6.6.6.6v4c0 3.5 0 4.2-.4 4.8-.6.8-1 1-1.5.4zm55.7 36.8c-.1-.2-.2-.1-.2.2 0 .2 0 .4.2.3v-.5zm-159.4-1a27.4 27.4 0 0 0 5-4.2l1.5-1.1a57 57 0 0 1 6.6-5c0-.3 2.3-2.5 4.7-4.7a152.8 152.8 0 0 0 5.4-5 45.8 45.8 0 0 0 7.5-7.2c-.2 0-.5 0-.7.2a159.6 159.6 0 0 0-12.7 11.4c-.1 0-1.4 1.1-2.8 2.5a67.4 67.4 0 0 1-8.7 7.7c0 .2-.3.4-.5.4s-.9.4-1.5 1-1.2 1-1.4 1l-1.4 1.2a43.4 43.4 0 0 1-3 2.6c0 .5.8.2 2-.8zm101.9 0c.1-.1-.3-.4-1.2-.7-.9-.2-1.7-.6-1.8-.8-.4-.5-1-.5-1 0s1 1.8 1.6 2c.6.2 2 0 2.4-.5zm-.4-3.8 1-2.9.9-2h-.5c-1.4 0-1.7-.7-1-2.7l.4-1.4c0-.4-.7.5-1 1.2 0 .3-.5 1.4-1 2.4a12 12 0 0 0-.9 2l-.4 1-.6 2-.1 1h.9c1.9.3 2 .3 2.3-.6zm44.3-5.4c-.2-.3-.5-.6-.8-.6-.3 0-.3.2-.2 1.3a26.6 26.6 0 0 0 1.1 4.8c.1.4.2-.5.3-2 0-2.2 0-3-.4-3.5zm8.4 1c0-4.7.1-6.1.5-7.4l.3-2c0-1.5.4-2.8 1.2-3.8.4-.7.6-1.3.6-2l.3-2.5.3-1.4-.5-1c-.4-.8-.7-2-.8-3.3-.2-2.5-.2-2.3 0-6.2v-3l-2-1.8a14 14 0 0 0-2.3-2c-.3 0-1.2.3-2 .7-2 1-3.4 1-4.2 0-.4-.5-.6-.6-1.2-.4-.7.2-1.5.8-1.9 1.4a37 37 0 0 0 2.8 12 66 66 0 0 1 4.1 12.8c.6 4 1.5 6.9 2.2 7.3.4.2.5.1.5-.3 0-.6.8-1.1 1.4-1l.4.2-.5.7c-.3.4-.5 1-.5 1.5 0 1 .6 3.8.8 4l.2.8.1.7.2-4zm-50.6-6.8c.5-1.2.3-2-.2-1l-.6 1.2-.2 1v.7l.3-.5.7-1.4zm55-.7c.2-.8.2-1 0-1.3-.3-.1-.5-.2-.5 0l-.2 1.2c-.3 1.3.3 1.4.7 0zm-11.8-.7c-.4-.7-.8-1-.8-.3 0 .6.2.8.7.8.3 0 .3-.1 0-.5zm-40.3-.6c-.1-.2-.2-.1-.2.2 0 .2 0 .4.1.3v-.5zm-2.1-.5c-.1-.2-.2-.2-.2.1 0 .3 0 .5.1.4v-.5zm42.3-.5c-.1-.3-.2-.2-.2.1 0 .3 0 .4.2.4v-.5zm-26.7-.7a88.5 88.5 0 0 0 3.4-19.4c.2-2.3.5-4.5.7-5 .3-1 .1-1.3-.4-.9s-.9 2.5-1.3 6.7a98.8 98.8 0 0 1-3.3 17.5c-.2 1.5-.1 1.8.2 1.8.2 0 .5-.3.7-.7zm23.6-.6c0-1-.2-1.6-.7-1.6-.5 0-.6.5-.3 1.5.4 1.1 1 1.2 1 .1zm14.3-2c0-.5.1-1 .3-1.1.4-.5 0-.8-.4-.4-.2.2-.3.6-.3.8.1.3 0 .7-.1 1-.3.3-.3.4 0 .4s.5-.3.5-.8zm2.3-3c0-.9 0-1.7-.2-1.7-.3-.2-.6 3.3-.3 4.2l.1.8.2-.8.2-2.5zm-16.6.4-.3-1.5c-.4-1.3-1.1-1.2-1 .1 0 .5 0 1-.3 1.3-.3.4-.3.5 0 .7.6.4 1.6 0 1.6-.6zm-31.2-.5c0-.7.6-3.4 1-3.8.4-.6.4-2 0-2-.3 0-.7 1-1.3 3.5-.6 2.4-.6 2.4-.1 2.4l.4-.1zm52.8-4.7c.7-.8 1.6-1.5 2-1.7a6 6 0 0 0 2.8-2.6c.3-.6.9-1.4 1.2-1.7l.5-.6h-1.5c-1.6 0-2.3-.3-2.3-1 0-.5-1.1-1.2-1.5-1 0 .2-.4.6-.6 1-.2.4-.5 1-.8 1.2a10 10 0 0 0-1.7 4.3c-.2 1-.6 2.1-.8 2.4-.2.2-.3.7-.2 1l.1.8.7-.4c.4-.2 1.3-1 2-1.7zm-24.7 0c0-.3-.2-.5-.4-.5-.4 0-.5.4-.1 1.1.2.6.3.6.4.2v-.9zm-88-.6 1.2-1.3V122c0-2.1-.1-4-.2-4l-.6.7c-.5.7-.5 2.5-.2 4.9.2 1.6-.2 2.3-1.1 2-1-.3-1.3-1.6-1-3.7.6-3 .3-5-.6-5.3l-.4-.2.2 4.8c0 5 .3 6.7.7 7.3.4.4.7.2 2-1.3zm58.7-.8c0-.2-.1-.1-.1.2 0 .3 0 .4.1.3v-.5zm29.7-1.6c.2-.2.2-.6-.1-1.2-.3-.8-.4-.8-.8-.6-.4.4-.5 1.6-.2 2 .3.2.8.2 1-.2zm-28.2-1c.7-2.5 3-9.2 3.4-10.1.4-.7.3-1-.2-1-.4 0-.6.5-1.1 2l-.9 2.5-.7 2.4-.8 2.2c-.2.2-.3 1-.4 1.7-.2 1.2-.2 1.4.1 1.3.2 0 .5-.5.6-1zm-55.7-1c.3-.5.4-.7.1-1l-.4-2.4-.4-2c-.4 0-1.2 5-1 6 .2.6.3.7.7.4.3-.1.7-.6 1-1zm-12.1-1.7c.3-1.5.4-3.6 0-3.6-1 0-1 .3-1 3 0 2.1 0 2.5.3 2.2.2-.2.5-.9.7-1.6zm115.2 1.2v-1c-.3-.3-.9.4-.9 1.1 0 .9.7.8.9-.1zm-21.7-1.1c.6-2.6.6-2.8-.6-2.7l-.6-.6c-.3-.6-.2-.8.2-1.3.4-.4.5-1 .5-2.1v-1.7h.6c.3 0 .7 0 1 .4l.3.6.3-.7c.3-.4.3-1.2.2-2.5-.3-3.2-.4-3.2-1.9-.6-1.1 2-1.8 3-2.7 3.3l-.6.2.1 1.7c.2 1.5.5 2.6 1.6 5.2l.5 1.4c.3.7.8.4 1-.6zm-77.8-2c1-1 1.2-1.9.7-2.5-.8-.8-2.6.2-2.6 1.5 0 .7.4 2 .7 2l1.2-1zm-22.1-2.4c.4-.6.8-1.1.8-1.3 0-.1.4-.8 1-1.5 1.2-1.6 1.5-2.3 1.3-2.6-.1-.2-.4-.1-.8.3-.4.3-1 .6-1.3.6-.9.1-1.6.8-2.4 2.1-.8 1.4-.9 2-.4 2.7.5.8.7.8 1.8-.3zm141.6.5c0-.3 0-.4-.2-.2-.1.2-.4.4-.7.4-.4.1-.4.2.2.2.5 0 .7 0 .7-.4zm-18.4-2.5v-.9c-.4-.2-1 1-1 2v1l.4-.8.6-1.3zm25 .5 1.5-.3 1.8-.4c.7-.2.5-.3-1.1-.3h-2l-.6.7c-.7.6-.5.8.4.3zm-10-.5c2.3-.6 5.5-1.3 6.1-1.3 1 0 1.5-1 1.5-2.3v-1l-.7-.4c-.4-.2-1-.7-1.2-1.2-.6-1.3-3.4-2.5-6.3-2.6-.5 0-1.6-.4-2.4-.8l-1.5-.8-1 .7c-.7.4-1.3 1-1.3 1.3-.1.2-.8 1-1.7 1.6-2.5 2-3.3 3.1-2.4 3.7.4.2.5.1.7-.3.2-.8 1.2-1.6 2-1.6.3 0 1.1.3 1.9.7.7.3 1.7.6 2.1.6 1.1 0 2.1.7 2 1.4-.1.8-2.4 1.4-3.6 1-1-.4-1.4-.2-1 .5.3.3.7.4 1.5.4a4 4 0 0 1 1.7.4c.6.3 2.2.4 3.5 0zm2.5-2.8-.6-.4c-.4 0-2.4-1.8-2.6-2.4-.3-.9.6-1.5 2-1.5h1.2l1 1c.9 1 1.6 2.7 1.3 3.3-.2.6-1.8.6-2.3 0zm14.3 1.6c.3-.3.3-.4-.4-.4-1 0-2.3.6-1.9.8.4.3 2 0 2.3-.4zm30.2-.5c.1-.4 0-.4-.7-.3-.9.2-1.4-.2-1-1 0-.4.6-.7 1.6-1 1.6-.5 2.3-1 5.9-3.3 1.1-.8 2.2-1.4 2.5-1.4.8 0 1.3-.3 1.8-1.3.6-1.2 1.5-2.2 3.5-3.8.9-.7 1.5-1.4 1.5-1.6a3 3 0 0 0-.6-1c-.4-.5-.6-1-.5-1.3.1-.3 0-.6-.6-.8-1.1-.6-1.1-1.5 0-3.2.6-.9 1-1.6.9-2-.4-1.6-.8-5.1-.7-7.2v-2.4l-.7-.6c-.5-.5-.8-1-1-2.5-.5-2-.6-5.8-.2-6.4v-.7c-.2-.3-.6 0-1.5.8l-1.2 1.1v1c.2 2.5.1 2.7-.7 3.9-.7 1.1-1.4 3.2-1.8 5.8 0 .6-.4 1.6-.8 2.2a57.3 57.3 0 0 0-3.3 6.5 188 188 0 0 0-4.5 7.4c0 .5-1.7 2.9-3.4 4.6-.6.5-1 1-.8 1a20 20 0 0 0 4.5-2c.7-.5 1.3-.7 1.8-.6.6 0 .7.2.7.8 0 1.4-1.3 2-9.1 5-2.7.9-4.2 1.4-7 2l-1.3.4 1.3.4 1.8.3 1 .3c.2.3 1.6.4 5.2.4h4.9l.4.6c.5.7 2 .7 2.1 0zm4.9-7.6c-.5-.5-.4-.8.3-2 .4-.5 1-1.4 1.1-2l.8-1.5a17 17 0 0 0 1.9-6l.4-2.7-.5-1.5-.5-2.5v-1h.8c.6 0 .8.3 1 .7 1.6 3.2 1.6 3.1 1.4 4.9a19.7 19.7 0 0 1-3 10c-1 1.7-2.5 3.8-3 3.9a1 1 0 0 1-.7-.3zm-24.5 5.9c0-.2 0-.3-.3-.3-.2 0-.4.1-.4.3l.2.2c.2 0 .4 0 .5-.2zm-80.4-.6c.5-.5.4-1-.3-1-.4.1-.6.3-.7.7 0 .7.5.8 1 .3zm24-.1h-.5c-.2 0-.1.1.2.1l.4-.1zm52.3-.3c.6 0 1-.2 1.2-.4l1.1-.2c.7 0 1.2-.2 1.6-.6.5-.5.5-.7.2-.8-.2 0-.6 0-.9.2a9 9 0 0 1-2.2.7 8 8 0 0 0-2 .5c-.1.2-.4.3-.7.3l-.8.4-.3.4.9-.2 2-.3zm-67.6-.7c.5-.8 0-1.5-.6-1-.7.3-.8 1.7-.2 1.6.2 0 .6-.3.8-.6zm127.3 0 1.6-2.1c1.3-1.7 1.4-2.3.4-2.3-1 0-1.4.4-1.4 1.2 0 .6-1.3 2-1.8 2-.6 0-.6.5-.2 1.2.6.8.8.8 1.4 0zm-69.3 0c.7 0 1.8-.3 2.4-.4 2.1-.4 3.6-1 4-1.4.2-.4 1-.6 2.4-.7 2.1-.3 4.2-1 4.2-1.6 0-.2-.4-.3-1.1-.3a4650.6 4650.6 0 0 1-6.1-.4c-1.4-.3-2.2.4-2 1.7.2 1.2-.2 1.9-1 1.9-.5 0-.7-.2-.8-.8-.1-.6-.4-.9-1.1-1-.9-.4-1.4-1.1-1.4-2.2 0-.3.4-.8 1-1.1l1-1s-.3-1-.7-1.7c-1.4-2.7-.7-3.7 1.8-2.5 1.5.7 2.1 1 3 1.1.7.2 1.8 1.5 2.7 3.4l.6 1.1h1.3l3.1-.3c.3 0 .4-.2.3-.4-.1-.4-.6-.4-2.2-.4H238l-.4-.7c-.8-1.2-.4-1.6 1.9-1.8a17 17 0 0 1 3.1 0 4 4 0 0 0 2-.2c.4-.2 1-.2 1.4-.1.6 0 .7.3.7 1v1h2.8l1-1.1c.4-.6 1.3-1.6 2-2.2l2.1-3 1.1-1.9-.3-1.2c-.3-1.4-.1-2.5.4-2.5.6 0 1.7 1.5 2 2.5.1 1.1.6 1.1 1 0 .3-.4.6-1 .9-1.1.2-.2.4-1 .5-2.4.2-2.4.8-5.4 1.5-7.6.4-1 .5-1.6.3-1.7-.2-.2-.4-.1-.6.3-.3.7-.7.8-1.2.4l-.5-.4.4-2 .3-3.5a24.2 24.2 0 0 0-3.9-9.7l-.6-1.1.2-3c.2-3 .1-3.3-.8-3.8-.3-.1-.8-.9-1.1-1.7-.4-.8-.6-1.1-.6-.8 0 .3-.2 1-.5 1.6-.7 1.1-.7 2.2-.1 3.2.4.7.4.9.1 1.2-.2.2-.5.2-1.2-.2l-1-.4v.6l-.3 1c0 .8-.9 1.2-1.4.9-.4-.2-.5-.7-.6-1.7 0-.8-.2-1.6-.3-1.7-.1-.2-.3-.9-.3-1.7v-1.4l1.2-1.4a8 8 0 0 1 1.8-1.7c.4-.2.7-.6.7-.8 0-.3.2-.7.4-1 .6-.7.5-1-.3-1.5-.7-.4-.9-.4-1.1 0-.5.5-.8.4-1.5-.2l-.6-.6-1.4.7c-.8.4-1.8 1-2 1.4-.4.3-.8.6-1 .6-.2 0-.8.6-1.5 1.3-1.6 1.9-1.8 2.1-1.8 2.5 0 .2-.4.7-.8 1.2A15.4 15.4 0 0 1 236 61c-.9.5-1 .5-2.5-.5-1.8-1.2-3.6-1.5-8-1.3-2.9 0-3.7 0-4.5-.3-1.2-.5-1.5-1-1-1.9.2-.6.4-.6 1.5-.6 1.6 0 1.3-.3-.3-.4-1.4 0-1.8-.2-2-1-.3-.6.3-1.2 1.3-1.5 1-.2 4 .6 5 1.5l.9.8h3c2.5 0 3.3 0 4 .4.4.2 1 .4 1.5.4.7 0 .8-.1 2.7-2.8a280 280 0 0 1 4.2-5.8 15 15 0 0 1 8-6.5c1.5-.3 1.8-.2 2.1 0 .3.3 1 .5 2 .5.8 0 1.9.2 2.3.5 1.4.7 2 2.8 1.5 5.5l-.2 1h1c.4 0 1 .1 1.2.3.4.5.2 2-.4 3.2-.3.5-.4 1.5-.4 3 0 2.5.1 3 1 3.2.3.2.6.5.6.8 0 .2.5 1.6 1.2 3l2 4.4c.9 2.8 1.3 3.2 1.3 1.2s-.7-3.8-2.1-5.7c-1.5-1.9-1.5-2.8-.1-4 .5-.6 1.2-1 1.4-1 .8 0 1.3-.6 1.3-1.7 0-.6.2-1 .5-1.3 1-.6 1-1.2.8-3.9a7.9 7.9 0 0 0-1.3-4.2c-.6-.9-1-1.7-1-1.9 0-.1-1.6-1.4-3.3-2.6-.4-.3-.5-.6-.3-1 .1-.5.3-.6 1-.5.6 0 1 .4 2 1.5l1.1 1.4v-1.6c-.2-1.2-.4-1.8-.9-2.5a3 3 0 0 1-.7-2c0-1.6-.8-2.8-2.1-3.5-.7-.3-1.1-.8-1.2-1.2-.3-.9-1.7-2.1-3-2.5l-1.4-.7c-.4-.3-1.5-.7-3.8-1.4-1.8-.5-6.9-1.3-8-1.3-.6 0-1.3-.2-1.6-.4-.4-.3-1-.4-1.8-.3a294.7 294.7 0 0 1-7.4.7l-3.8.8c-4 .6-6.9 1.4-7.4 1.9a3 3 0 0 0-.6 1.2c-.2 1.3-.8 1.5-2.2 1.1-1.8-.4-5.8 0-8.3 1-1 .5-2.2.8-2.6.8-.5 0-3 1.3-3.6 1.8 0 0 .2.4.5.6 1 .9.7 1.6-1.4 2.7-1 .5-2.7 1.2-3.8 1.5-2.1.6-2.6 1-3 2.2-.2.5-.6 1-1 1.2l-.5.4-.5-.6c-.4-.3-.6-.8-.6-1.7l-.2-1.3-3.4-.3h-3l-.4.4c-.5.6-1.2.7-1.7.1-.2-.2-.8-.4-1.7-.4-2.5 0-6 1.4-8.3 3.3-.6.5-1.6 1-2.1 1.2-2 .6-1.8.8.5.7a20.8 20.8 0 0 1 13 3.6l1 .4c.5 0 1 .6 1.6 1.3l1.8 2 1 1 2 .2c1.4.1 2.4.3 2.6.6 1.2 1 0 2.4-2.2 2.4-1.2 0-2 .5-2 1.1 0 .2-.3.6-.5.8l-.5.5.1 3.9v3.8l-.6.7-.8.7.7 1.2c.7 1.4 1.1 1.9 1.5 1.9.2 0 .5.3.6.6.5 1 0 1.5-1.6 1.3l-1.1-.1.3.5c.7 1.3 2.2 2.7 3 2.7.7 0 1 .4 1.3 1.8.2.6.7 1.8 1.3 2.7.5 1 1 2 1 2.4 0 .6 1.8 2.9 2.3 2.9l.7.7 1 1.4a9 9 0 0 1 1 2.4 11.5 11.5 0 0 0 2.3 4.2l.4.6-.4.5c-.8.8-1.3.6-3.1-1.1a88 88 0 0 0-7.2-6.5l-.6-.3-.2 1c-.1.7 0 1.5.4 2.7l.5 1.6-.4.6c-.6 1-.5 1.4 1 3a11 11 0 0 1 1.9 2.3c.2.6.8 1.3 1.2 1.5.4.2.8.7 1 1 .3.6.7.8 1.6 1 1.7.2 1.9.3 1.9 1s-.4.9-2 1c-3.2 0-3.5.7-1.3 2.7l1.6 1.5.6-.4 1.8-1.6c.6-.7 1.3-1.2 1.5-1.2.4 0 1.2-1.1 2-2.8l.4-.8 1.7-.2c1.8-.2 4.2.3 5 1 .5.3 1.1.5 3.5.8 5 .6 7.5 1.6 7.8 3.4 0 .5.3 1 .6 1.2l.8 1.1c.4.9.3.8 2 .5zm3.6-13.6c-.9-1-1.2-1.4-1.1-2 0-.4.2-.6.8-.7 1.4 0 3.6 2.7 2.8 3.6-.5.6-1.2.4-2.5-.9zm-18.5.5c-.3-.2-1-.3-1.7-.3H211v-.6c0-.3.4-1.1 1-1.7.4-.6.8-1.3.8-1.6 0-.6.9-1.7 1.4-1.7.1 0 .2-.3.2-.7 0-.7.2-.9.7-1 1-.2 4 .1 4.4.6.5.6.1 1.3-.9 1.5-.5.2-1 .5-1.1.8-.2.3-.6.6-.9.7-.7 0-1 .7-.6 1.2.2.2.7.3 1.8.2 1.3-.1 1.8 0 2.7.4 1 .6 1.3 1 .9 1.5a8 8 0 0 1-2.7.5l-3.5.3-1.4-.1zm7-5.9c-.6-.7-.3-1.6 1-3 .8-.7 1.4-1.4 1.4-1.7a8 8 0 0 1 1.4-2l1.5-1.8-.4-.4c-.5-.5-.5-.7.1-1.2.4-.4.5-.6.2-1a4 4 0 0 0-.9-1.1c-.8-.6-.8-1.9 0-2.4 1.4-1 2.5 0 3.5 2.8l.7 2-.3 1.2c-.4 1.5-.8 2.6-1 2.6-.3 0-.9 1.2-.9 1.8a7 7 0 0 1-.6 2c-.6 1.2-.9 1.4-2 1.9-1.6.6-3.2.7-3.6.3zm4.1-3.5c.4-.4.4-.4 0-.4-.2 0-.4.2-.5.4v.4l.5-.4zm7.6-10.5-.8-.5c-.2 0-.5-.4-.7-.8l-.4-.8.7-.8c1-1.2 1.2-2 .4-2-1.4-.2-1-2 .6-2.6a2 2 0 0 0 1.2-1.2c.4-1 1-1.4 2.8-1.8a15.8 15.8 0 0 1 6.3.2c1.3 0 1.5 1.4.4 2.6-.8.9-.2 1 2.4 1l2.4-.2v.8c0 .4-.2.9-.4 1-.5.5-3.7 1.2-5.4 1.2-.9 0-1.7.1-2 .3-.4.4-.6.3-1.4 0-1-.4-2.5-.3-3 .3-.2.2-.3.9-.4 1.4-.1 2.2-1.5 3-2.7 2zm5.8-5.8c.8-.3 1-.9.5-1.2-.2 0-.3-.4-.2-.6 0-.7-1.3-.7-2.6 0-1.4.6-1.6.9-1 1.1.2.1.3.3.2.6-.2.6 1.5.7 3.1 0zm-30 2.6c-.7-.8-3.1-4-3.1-4.3l.4-.7.7-1.1c.2-.3.8-.8 1.5-1.1 1.4-.7 1.5-1.4 0-1.1l-1.2-.1c-.3-.5.2-1.3 1-1.6.3-.2.8-.6 1-1l.2-.5-.7.1c-.4 0-1.4.7-2.2 1.3-1.6 1.2-2.3 1.4-2.3.7 0-.8 1-1.7 3.1-2.8 2.2-1.2 3.2-1.3 3.4-.4.1.5.3.6 1 .5.5 0 .7 0 1 .6.2.6.2.8-.3 1.4-.6.8-.5 1.3.5 1.6.8.3 3 3.5 2.9 4.2-.2.9-1.3.8-2 0-1.5-1.7-2.7-2-1.9-.4l1 1.7c.2.5.2.8 0 1.2-.3.6-.8.7-1.6.2l-.6-.3.2.6c.2.8-.3 1.9-.9 1.9-.2 0-.7-.3-1-.6zm6.8-17c-1-.9-1-2.4.1-3.6.3-.3.9-1.2 1.3-2 .9-1.8 3-4 5.1-5.6 1.7-1.2 2.6-2.3 2.6-3 0-.6 2.3-2.7 4.1-3.7.9-.5 3-1.4 4.7-2a258.7 258.7 0 0 0 6.2-2.2l2-.5c2.1-.8 4.4-.7 5.5 0 .5.4 1.1 1 1.3 1.4l.5.8 2 .2c2.7.3 3.7.7 4 1.7.4 1 0 2-.6 2-.3 0-.7-.3-1-.7l-.7-.6-3.1-.1c-3.5-.1-3.7-.2-3.7-1.8V36h-1.5c-1.1 0-2.5.3-5 1.2-1.9.7-4 1.3-4.6 1.4a17 17 0 0 0-5.4 2.4c-.4.3-1 1-1.3 1.6l-.7 1c-.3 0-2.4 2.1-2.4 2.4 0 .2-.8 1.1-1.7 2.1a21 21 0 0 0-4.7 6.6l-.5.8c0 .7-1.8 1.4-2.5 1zM256.6 39c-.5-.5-.5-2.2 0-2.4.7-.3 1.3.6 1.2 1.6-.1 1-.7 1.4-1.2.8zM206.8 36l.2-1h.5c.8 0 1 .7.3 1.3-.8.9-1.3.7-1-.3zm46.9-1.3c-2-1-2.5-1.5-2.2-2 .2-.4.4-.3 1.6.3l1.7.7c.5 0 1.2.7 1.2 1.2 0 .7-.8.6-2.3-.2zm32.6 75c0-.2.4-.3.7-.3.9 0 1.5-.8 1.5-1.8 0-.6.3-1.2 1-2 .5-.5 1-1.5 1.3-2.3.4-1.5.7-1.7 2.2-1.7h1l-.1-.8c0-.6 0-1 .6-1.2l.6-.4-1.3-.5-1.3-.5-1.1.5c-.7.2-2 .5-3 .5l-2 .1-.2-.6c-.2-.3-.2-.7 0-1 .4-.4-.2-.3-1 .3-.3.3-.7.5-1 .5-.1 0-.4.2-.6.5-.2.3-.4.3-1.1.1-.7-.2-.9-.2-.9 0 0 .3-.6 1-1.3 1.7-2.2 2-3.9 3.9-4.2 4.5-.5.9-.1 1.9.8 2.4 1.5.7 3.1-.2 3.1-1.8 0-1.2 1-3.6 1.7-3.8 1.5-.5 2.6.8 2.6 3 0 .7.2 1.5.5 2 .4.7.5 1.2.4 1.6v1c.2.3.9.3 1 0zm-105-2.8a13 13 0 0 0-.9-2.9l-.6-1.2.5-.4c.3-.3.8-.4 1.1-.4.5 0 .7.4 1.3 2l1 2.6.2.4.6-.7a7 7 0 0 0 .9-2.2c.2-1.1.4-1.5 1.2-2 .5-.4 1.1-.7 1.3-.7.1 0 .4-.1.6-.4.2-.3.2-.4-.2-.8-.7-.6-.7-1.5 0-2 .2-.3.5-.6.5-.8l-1.1-1.3c-1.2-1.3-1.1-1.9.3-1.4 1 .4 1.1 0 .2-.6-.5-.3-.5-.6-.4-1.6l.1-1.2-.8-.7c-1-1-1.3-1-2.7-.1-.6.3-1.5.6-2 .6-1.3 0-4.6.9-5.1 1.3-.8.7-2.3 3.1-2.3 3.8 0 .4-.3 1.3-.7 2.2l-.7 1.5.1 2.2c.1 1.8.2 2.3.7 2.6 1 .8 1.3.6 1.8-1.6.6-2.2 1.1-2.8 2-2.3.2.2.5.6.6 1l.5 1.4.3 1.4c.3 1.7 1.5 4.6 1.8 4.3.2-.2.2-.8 0-2zM58 108.2c.2-.2 0-.2-.4-.3-.7 0-.7.1-.4.4l.4.2.4-.3zm1.7-.1H59h.1c.3.1.5 0 .4 0zM159 106c8.4-.3 9.3-.5 9.3-1.3 0-.6-1.1-.7-3.6-.5l-4.7.6a404.3 404.3 0 0 1-27.8.1l1.6.4 4.5.4a150.8 150.8 0 0 0 20.8.3zm91.5-.7 1.8-1.6a921.2 921.2 0 0 1 3.3-4.3c0-.2.4-.8 1-1.4.8-1 1-1.7.7-1.7-.3 0-3 3-4 4.3l-2.2 2.7c-2.4 2.7-2.5 2.8-2 2.8a4 4 0 0 0 1.4-.8zm-122.3-1.5h-.8c-.3 0-.2.1.3.1.4 0 .6 0 .5-.1zm130.3-4.6c.6-.8.7-1.8.3-1.8-.2 0-.7.6-1.3 1.5a51.3 51.3 0 0 1-3 4.4c0 .3 3.1-2.8 4-4zm-93.9 1.7c2 0 4.2-.4 5.7-.9.5-.2 1.7-3.3 1.7-4.4 0-.3.3-1.1.7-1.8l.6-1.4c0-.3-2-1.1-2.4-1-.2 0-.5.5-.8.9l-.4.8-1.7.1c-1.2.2-2.1 0-3.3-.2-.9-.3-3.2-.5-5.4-.6a217 217 0 0 0-24.5 1.2c-3 .3-6 1-7.7 1.8-3 1.5-4.2 3.5-1.8 3.2a4 4 0 0 1 2 .2l3.3.7A59.4 59.4 0 0 0 148 101l8 .1h3.3l5.4-.3zm-7.3-2.9c-1.1-.7-.5-1.2 1.4-1.1 2 0 4.4-.6 4.7-1.3.1-.4 1.5-.5 1.9-.1.1.1 1 .3 1.8.3 1.2 0 1.6.2 1.6.5s-.3.4-1 .5c-1.3 0-5.8.8-6.7 1-1.7.6-3.1.6-3.7.2zm-67.9-.6c-.2-.8-.4-1.1-.8-1.1-.7 0-1.3.3-1.3.7 0 .5.8 1.8 1.6 2.6l.7.8v-.9c.1-.5 0-1.4-.2-2zM93 99c0-.5 0-.5-.4-.2s-.3.8.1.8c.2 0 .3-.3.3-.6zm207.3-.3c.4-.3 1-.6 1.5-.7.4 0 1-.3 1-.5 1.7-3.1 2.7-6.3 2.9-9.4.2-2.4.6-2.8 1.6-1.8l.5.6v-2.5c0-2.7-.5-6-1.2-8-.6-1.9-.7-2-1.5-2.5-.6-.3-1-.9-1.4-2.1-1-2.8-1.7-4-3.2-5.2-2.7-2.3-2.6-2.1-2-4 0-.4 0-.8-.6-1.3-1-1-3.8-2.2-4.5-1.9-.8.4-2-.2-2.4-1.2-.2-.5-.5-1-.8-1-.2 0-.4 0-.4-.2s-.2-.3-.5-.3c-.2 0-.5-.1-.6-.3 0-.2-.1-.2-.2.1 0 .3.2.5.5.5.5 0 1 .7.7 1l-1.4-.2c-1.5-.5-2.7-.4-3.1.2-.3.4-.4.4-.9.1-.9-.5-1.3-.4-2.8 1.1-1.6 1.6-2.3 1.8-2.5.6 0-.5.3-1 1.8-2.5 3.1-3.2 7.2-4.4 9.8-3 .9.4 1 .2.3-.6s-.7-1.5.1-1.5c.6 0 1.9.8 2.5 1.6.4.6-.1 1.4-.8 1.2-.6-.1-.6.1 0 1.3.3.5.6 1.1.6 1.4 0 .6.8.3 1.3-.6l.5-.8 1.1.1c1.7.1 2-.4 1.2-1.4-.3-.4-.6-.9-.5-1 .3-.8-.8-2.3-2.4-3.6l-1.9-1.4-1.4-.8a69.9 69.9 0 0 0-14-8c-.3-.1-.6-.4-.7-.7-.2-.4-3.1-2.1-3.7-2.1l-2.3-1a16 16 0 0 0-4.8-1.9c-1 0-.3 2.5 1.2 4.1.3.3 1 .8 1.7 1 .7.3 1.4.8 1.6 1 .2.3.7.5 1 .5 1.8 0 4 2.1 5.5 5 1.2 2.3 1.2 3 1.3 11.8 0 .7-.3 2-.6 3l-.5 1.6.7.6.7.6-.5 1c-.3.7-.7 1.4-1 1.7-.5.6-.8 2-.5 2.4.1.2.5-.3 1-1.4 1.1-2 1.6-2.5 3-3.4.6-.4 1-.8 1-1 0-.2.4-.8.9-1.3.9-1.1 2-1.4 2.6-.6.3.3.2.7-.6 2.4-2.1 4.6-2.5 6-2.6 8.3 0 .8-.1 2.1-.3 3l-.4 1.4h-.8c-.6.1-.8 0-.9-.5-.1-.6.2-4.8.5-6.7.1-.9 0-1.2-.2-1.2-.6 0-2.1 5.2-2.1 7.4 0 2.1.1 2.3 1.9 2.3h1.2v.6c.1.4-.1.9-.6 1.3-.8.7-.8 1.4-.2 3.6.2.8.4 2.6.4 4v2.3l1-.2c1.5-.2 6.7-.4 6.9-.2.3.4 2 .9 3.1.9 1.4 0 2.6 1 2.2 1.8-.2.4-.7.5-3.1.7a20 20 0 0 0-6.9 1c-.8 0-2.6 1.1-3 2-.1.3-.4.6-.6.6-.2 0-.5.1-.7.3-.4.6.5 1.5 1.6 1.7l1 .1.4-1 1.5-1.6 1-.7 2.8-.1h4.1c2.4.4 7.2 3.1 7.2 4 0 .5.6 1 .9.8l.8-.7zm9.5-2c.4-.8.3-1.7-.1-1.5-.5.3-1.6 2.7-1.6 3.4v.6l.7-.8c.4-.4.8-1.2 1-1.7zm-189.4.6c0-.3-.1-.1-.1.3s0 .6.1.5c0-.2.1-.6 0-.8zm185.7.3.8-1.3c.2-.4.4-.9.3-1-.2-.6-.7-.6-.7-.2l-.4.8a5 5 0 0 0-.8 1.5l-.3.9.4-.1c.2 0 .6-.3.7-.6zm-46-1c.1-.1 0-.2-.2-.2-.3 0-.5.2-.5.4 0 .3.1.4.2.2l.5-.4zm-167-1c.4-1-2.2-3.4-3.5-3.1-.5 0-.8 1.1-.6 2.3v.8h1.2c.6 0 1.3.2 1.6.4.5.4 1 .3 1.3-.3zM335.3 91a27 27 0 0 0-7.6-13.1l.2.9c.6 1 1.9 4.4 1.9 5 0 .3-.2.7-.5.9-.7.3-1.2-.2-1.7-1.7a82 82 0 0 0-7.6-14s-.5-.7-1.2-1.3l-3-2.9-3.2-2.8a41.7 41.7 0 0 1-4.5-3.8c-.3 0-.8-1.1-.7-1.6.3-.8 1-.6 3 1.2 2.3 2 3.2 2.3 2 .7-1.8-2.2-4.1-3.8-6-4-.5-.2-1.3-.5-1.7-.8-.4-.3-1.7-.9-2.9-1.3l-2.2-.8V54l1.6 1.2c.8.7 1.9 1.6 2.3 2.2 1 1 1.6 1.2 1.7.3 0-.3.3-.6.6-.7.6 0 2.6 1.8 4.3 4.2.7 1 2.2 2.8 3.2 3.7 3.8 3.7 4.3 4.4 5.4 6.6.8 1.6 1.1 2.6 1 3.3 0 1.4 1.1 4.4 2.2 6a28 28 0 0 0 6.2 5.9c1.8 1 2 1.1 2 .6 0-.2.2-.4.5-.4.6 0 1.8 1.2 3 3 .8 1.2 1.5 2 1.7 2V91zm-72-.5c.5-1 .8-2.8 1-5.9.2-1.7.1-2-.2-2-.4 0-1 2.2-1 3.9 0 .6 0 1.5-.2 2-.7 2.2-.8 2.8-.5 2.8.2 0 .6-.4.8-.8zm-63.4-.3c0-.3-.7-1.2-1.6-2.2a21.1 21.1 0 0 1-3.7-6.5l-.4-.4c-.2 0-.5-.4-.7-.7-.2-.5-.2-.4-.2.5 0 .7 0 1.6.2 2l.6 2a5 5 0 0 0 1.1 2c1.3 1.3 4.3 3.8 4.6 3.8v-.5zm110 0c.7-.3 1.2-2.4 1-3.9l-.4-3.7c0-.5-.2-.8-.3-.8-.3 0-.4.8-.4 2.9 0 1.6-.2 3.4-.4 3.9-.3 1-.3 1.9 0 1.9l.5-.3zm-254.7-2c-.3-.8-1.5-5.5-2.4-9.6-.6-2.6-1-5.5-1.2-9.3-.3-3.2-.2-3-2.3-3.4a24 24 0 0 1-3.4-.8c-.8-.3-1.5-.4-1.7-.3-.3.3.8 3.5 2.3 6.7l.7 1.8 1.3 2.8a42 42 0 0 1 1.6 3.7c.9 2.6 4 8.5 4.8 8.8.2 0 .3.3.3.6 0 .5 0 .5.1.1.1-.2 0-.8-.1-1.2zm261.4-1c.3-.5.5-4 .2-6.1-.3-3-.6-4.2-1.2-5l-1-2a7 7 0 0 0-1.3-1.9c-.4-.3-.7-.7-.7-1l-1.4-2-1.4-1.6v-2.9l-1.2-.4a6 6 0 0 1-2.6-1.5c-1.3-1.1-3.2-2.3-4.3-2.8-2-1-2.6-.3-1 1.4.6.6 1.2 1.4 1.4 1.8.2.4 1.6 2 3.2 3.7 1.5 1.7 2.8 3.2 2.8 3.4 0 .5 1 1 2.1 1.2.6.1 1.3.5 1.7 1a23.7 23.7 0 0 1 4.2 14.3c0 1 0 1.5.1 1.2l.4-.8zm-128.9 0 .7-.4-1-.1H186l-.7.3.7.3c.8.3 1 .3 1.8-.1zm79-8.3c.5-.7.5-1.3 0-1.8-.7-.8-1.7 1-1.2 2.3.3.8.7.7 1.3-.5zm-124-13c0-2.2-.1-3.1-.2-2.4a8 8 0 0 1-.6 2l-.6 1.7a21 21 0 0 0 .5 9c.4.5.9-5.4.9-10.3zm121.7 7.8a544 544 0 0 1-3-6.7c-.2-.7-1.5-2-1.5-1.8 0 .4.7 2.2 1 2.4l.1.8c0 .3.4 1 .8 1.4.4.5.8 1.1.8 1.4l1 2.4 1.1 2.5c0 .3.1.1.2-.3 0-.4-.1-1.3-.5-2.1zm3.8 1.8V75c-.2 0-.3 0-.3.4 0 .6.1.7.3.1zm-129.9-1.8c.6-1.3 1.5-4 2-6.2a7 7 0 0 0 .3-2.7c0-.5-.8 1-.8 1.5 0 .2-.3 1-.8 1.8l-.8 2c0 .6-.4 2.4-.8 3.3-.4 1-.5 1.5-.3 1.8.2.4.6 0 1.2-1.5zm132.2-3.6c1.5-1.5 2-3 1.4-4-.5-1-.4-1.5.9-2.7 1-.9 1.2-1.3 1.3-2 0-.7-.1-1.2-.3-1.4-.5-.4-.4-1.5.1-1.8.3-.1.6-.7.7-1.2 0-.5.4-1.2.6-1.5.4-.4.5-1 .5-3.4 0-2-.2-3.2-.5-3.7-1.9-4.2-2.7-5.3-4-5.3h-.6l-.1 2.6c-.2 2-.1 2.7.3 3.6.6 1.3.6 3 .1 4.5l-.4 1.5c0 .3-.2.6-.4.8-1.1 1-1.8 5.1-1 6.2.4.3.3.5-.1 1.3-.7 1.2-.8 2.1-.2 3.5.4.8.4 1.4.3 2.7-.1.9-.1 1.6 0 1.6l1.4-1.3zm-140.3 0v-.5c.2 0 .4-.3.4-.7v-.7l-.4.4c-.3.2-.4.7-.4 1l-.3 1-.3.6.6-.3c.4-.2.5-.4.4-.8zm145.3-3.9h-.5c-.2.1-.2.2.1.2.3 0 .5 0 .4-.2zM42.8 64c.2-.5 0-.9-.2-1.2-.6-.7-1-.7-1 0 0 1.7.9 2.5 1.2 1.2zm12.6-1-.4-1.3c-.2-.4.6-1.5 1.2-1.6.2 0 .5.4.8 1.1.3.9.7 1.3 1.3 1.7l1 .4 3.5-.1a175.3 175.3 0 0 0 19.9-1.7 149 149 0 0 0 13.7-1c5.2-.7 10.7-1.8 11.1-2.3.2-.2 0-.9-.3-1.6-.5-1-.8-1.3-2.1-2-.9-.3-1.5-.7-1.5-.8 0-.2-.3-.3-.7-.3-.6 0-.8-.2-1-1-.4-.8-.9-1.3-2.1-2a49.8 49.8 0 0 1-6-4.4c-.1 0-.4.2-.5.5-.1.2-.5.3-.8.3-.5 0-.8-.4-1.2-1.6-.4-.8-.8-1.4-1-1.5-.7-.1-2.9 2-2.9 2.8 0 .7-.8 1.2-1.3.8-.5-.3-1.3-.3-1.3 0 0 .2.5.4 1 .5 1.2.2 1.6.7 1.6 1.7 0 .6.5.6 2.2.1 2.3-.7 4.5.1 5.4 2 .2.6.7 1.1 1 1.2.2 0 .7.5 1 1 .7 1 1.3 1.3 3.8 1.7 2.1.5 2.8 1 2.4 1.8-.1.4-.4.4-1.8.3-2.4-.2-4.2-.9-5.2-1.8a7 7 0 0 0-1.8-1.2c-.6-.3-1-.7-1.5-1.5-.7-1.5-1.5-1.7-4-1a16 16 0 0 0-4.8 2.3c-.5.3-1.3.6-1.6.6-.4 0-1.1.4-1.7 1l-1 .9h-1.5c-1 0-1.5-.1-1.9-.5l-1.4-1-.9-.4-.4.5c-1 1.2-1.4 1-3.4-1l-1.9-2-1 .5c-1 .5-1 1 0 1.4.7.4 2 2 2 2.5s1.3 1.5 2.5 1.8c1.7.6 2.3 1 2.3 1.7 0 .8-.8 1.1-1.8.8l-1.9-.6c-1-.3-2.6-1.2-3-1.6 0-.2-.7-.5-3.6-1.8a19 19 0 0 1-7.7-4.5l-1-.8c-.2 0-.7.3-1.2.8-1.3 1.3-2.4 2-2.9 2a6 6 0 0 0-1.6.7c-.7.4-2 .8-3 1-1.4.2-1.8.4-2.6 1.3-1.3 1.4-1.1 2 .6 2.1l2.5.6a6 6 0 0 0 1.6.5c.7 0 2.3.4 2.8.7.2.2.3.5.2.8-.1.5-.4.6-1.2.6-1 0-1 0-.7.4.2.2 1 .3 3.1.3h2.9l-.3-.8zm29.3-5.3c-.1-.3-.1-.6 0-.8.4-.3 7-.8 7.3-.5l.2.7c-.2.8-1.9 1.2-4.8 1.2h-2.6l-.1-.6zm.2 6H84c-.3 0-.1.1.3.1s.6 0 .5-.1zm181-2.9c0-.3 0-.4-.5-.4s-.6.1-.5.4c0 .2.3.4.5.4s.4-.2.5-.4zm-76.4-5c0-.3-.4-1.1-1.3-2a9.3 9.3 0 0 1-1.3-1.9l-1-.7-2.3-1.2c-.7-.4-1.9-.9-2.6-1l-2-.7a7 7 0 0 0-1.8-.3H176v1c0 .7 0 1-.5 1.4l-1 .5c-.2 0-.7.1-1 .3-1 .3-.5 1 1 1.1.8.1 2.2.5 3.2.9l2.6.6a6 6 0 0 1 2 .7c.7.4 1.7.6 2.4.6.9 0 1.5.2 2.1.7 1.2.8 2.5.8 2.6 0zm-11.9 0c.5-.4-2.5-1.2-4.7-1.2-.5 0-.5 0-.3.4l.8.4.7.2c.5.5 3 .6 3.5.2zm-64.4-.7 2-1 2.4-1.5c1-.8 2.5-1 2.6-.4 0 .2-.4.7-1 1.1-.6.4-1 .9-1 1 0 .5 1.3-.4 4.3-2.4 1.9-1.4 2.5-2 2.1-2-.2 0-.6 0-.7.2-.4.3-2 .4-2.2 0-.4-.6.3-1.3 2.7-2.5 3-1.4 5-2.8 9.6-6.6l2.6-2.1c2.3-1.8 6.7-7.2 6.7-8.2 0-.2.3-.6.6-.8.4-.3.9-.9 1.1-1.4l.4-1-.5-1.1c-1-2.2-4-3.5-8.3-3.5-1.8 0-5.5.6-5.9 1a39 39 0 0 0-10.4 2.6c-.8 0-2.6 1-3 1.7a5 5 0 0 1-2.7 1.5l-1.1.6c-1 .8-3.7 2.3-4.1 2.3a17 17 0 0 0-4.5 3c-.6.6-1.2 1-1.4 1-.3 0-1 .6-3.9 3.2-.7.6-1.3 1.3-1.3 1.6a35 35 0 0 0 8.3 8.3c.3.5 1 1.3 1.8 1.7.6.4 1.8 1.5 2.6 2.4 1.4 1.6 2 1.9 2.2 1.3zM80 53.8a15 15 0 0 1 2.8-2.3 13 13 0 0 0 2-1.5c0-1-7.7-.2-11 1-.3.2-.9.3-1.2.3-.8 0-1.1.7-.7 1.2.3.3.7.4 1.7.2 1.5-.1 2.5.2 4.1 1.6 1 .8 1.4.7 2.3-.5zm-30.6-.4c.5-.1.8-.4.8-.5 0-.4-1.3 0-1.8.4-.5.5-.1.5 1 .1zm16.1-1.8c.5-.3.3-1-.4-1.7-.6-.5-1.4-.3-.9.2.2.1.3.5.3.8 0 1 .4 1.1 1 .7zM166 49.2c-.5-.3-1.3-.3-1.3 0 0 .2.4.3.9.3.6 0 .7-.1.4-.3zm3 0h-1.3c-.4.1-.2.2.6.2.7 0 1 0 .7-.1zm4.5-1h-.8c-.3.1-.1.2.3.2.5 0 .7 0 .5-.2zM68.2 48c.7-.3.6-.6-.8-2-1.6-1.8-3-3.6-3-3.9l-1.6-2a8.5 8.5 0 0 1-2-2.8c-.2-1-.5-1.3-1.5-2l-1.4-.5c-.3.2.4 1.4 1.5 2.5 1.2 1.3 1.6 2.3 1.3 3.1-.2.6-.1.7.6 1 1.5.6 3.3 2.4 4.3 4.3 1.5 2.6 1.6 2.7 2.6 2.3zm184-.7c.7-.7.8-1 0-1-.6 0-1.8.8-1.8 1.2 0 .6 1.1.5 1.8-.2zm-194-.7c.3 0 .7.2.9.5.4.6 1.8.7 3 .1l.7-.4-.4-.8a5 5 0 0 0-1-1.4c-.6-.5-4.5-2.5-5-2.5v1.4a32.5 32.5 0 0 1 .2 3.6l.2.5.5-.5c.3-.3.7-.5 1-.5zm15.8 0 2.9-1c.6-.2 1.4-.6 1.7-1 1.1-1.1 3-1.8 5.8-2 2-.2 3-.3 4-.8l1.3-.7v-1c.2-1.7-2.4-7.4-5.7-12.2A117.4 117.4 0 0 0 63 5.5c-.7-.2-2.4-.3-5.2-.3h-4.3l-.7.6c-.5.3-1.3.8-2 1-2 1-3 3.6-3 8.5 0 3.2.4 4.9 1.6 6.9.5.7.8 1.5.8 1.6 0 .2.6 1 4 4.7 1 1.2 2.5 2.4 5 4 3.9 2.7 5 3.5 6 5.2l1.2 1.5a8092.5 8092.5 0 0 0 3.7 5.1c.7 1 1.3 2.1 1.3 2.4 0 .9.6.8 2.7 0zm172.5.5c0-.1.3-.4.7-.5.5-.2.8-.6.8-.9 0-.6-.6-.4-1.6.6-.8.7-1 1-.3 1 .2 0 .4 0 .4-.2zm21.4-2.1c0-.9-.4-1.2-1.3-1h-.6l.7 1c.8 1.1 1.2 1.1 1.2 0zm-123-4.1c.6-2.9 1.1-6.5 1-6.7-.2-.1-.6.1-1 .5l-.7.7V40c-.1 4.7 0 4.7.7.9zM94.6 42c-.6-.9-1-1-1-.5 0 .4 1.3 1.9 1.5 1.5l-.5-1zm4.2-4.5 2.3-1.4 2.3-1.3 1.4-.8.7-.4a6 6 0 0 1 1.5-1c.6-.3 1.2-.7 1.3-.9.1-.5-1.4.2-3 1.2-.6.4-1.4 1-2 1l-1.9 1.1-2.1 1.3c-.6.3-1.4.8-1.7 1.2l-.7.8h.5c.3 0 1-.4 1.4-.8zm-10.7-7.3L86.8 28c-1.6-3-5.8-9-6.3-9-.4 0-.2.5 1.5 2.7a38.4 38.4 0 0 1 5.3 8l.8 1.4c.7 1.2.7.5 0-.8zM47.7 22c0-.2 0-.4-.2-.4-.2-.1-.3 0-.3.2s.1.4.3.4c.1 0 .2 0 .2-.2zm29.7-7.8a11 11 0 0 0-5.2-6.6 151.3 151.3 0 0 1-3.3-1.4c-1.2-.3-1 .4.7 2a213.2 213.2 0 0 1 8.1 7.4c.1 0 0-.6-.3-1.4zm-31.6-3.1.1-.7-.4.6c-.5.6-.5 1 0 .8.1 0 .3-.4.3-.7zm263 208.4c0-.2 0-.7.3-1 .6-.7 5-1.3 5.5-.7l.4.4-.4.4a3 3 0 0 1-1.4.6c-.6 0-1.4.3-1.8.4-1.2.4-2.4.3-2.6-.1zm-186.4-1.3c0-.9 1.7-1.7 6-2.8l1.9-.6 2.6-.6 3.6-.8c2.8-.7 4-.7 4.5-.4l.4.4-.4.5c-.2.4-.8.7-1.6.8-.7 0-2 .3-2.8.5-.8.3-2.3.6-3.4.8a39.3 39.3 0 0 0-8 2.3c-2.3.7-2.8.7-2.8-.1zm-6-1.7a29 29 0 0 0-4-.6c-3.7-.3-6.2-.7-6.6-1.1-.5-.4-.5-1 0-1.1 1.4-.5 11.5.5 13 1.4.9.4.8 1.3 0 1.6-.8.3-.7.3-2.4-.2zm26.5.3c-.3-.3-.2-1 .2-1.4.2-.2 1.1-.4 2-.6l4.2-.7c2-.3 2.5-.3 2.8 0 1 .7.3 1.4-1.8 1.7-.8 0-2.1.3-3 .5-2.4.6-4.1.7-4.4.5zm193-4.1-.5-.5c0-.5 1.7-1.3 2.8-1.3a90.6 90.6 0 0 1 7-1.6c4.8-1.1 6.6-1.7 6.6-2 0-.5-5.6-2.5-8-3a11 11 0 0 1-5-2.1c-.7-.6-.2-1.4.8-1.4.9 0 3 .5 5.1 1.3a262 262 0 0 0 6.7 2.5c1 .5 2 .8 5.6 1.7 2 .5 2.6 1 2.3 1.8-.1.3-.4.4-2.1.3l-2-.2-2.8 1-4.7 1.3a130.6 130.6 0 0 0-11.2 2.3l-.7-.1zM204.4 211a40 40 0 0 0-2.8-.8c-1.7-.4-3.3-1.2-4.8-2.4-1.4-1.2-1.6-2.1-.7-2.6.7-.4 1.7 0 5.4 1.7a94 94 0 0 0 6 2.8c1.4.5.7 1.9-.9 1.8l-2.2-.5zm-88.4-1c-1.6-.2-8-.6-10.2-.6a2 2 0 0 1-.9-.3l-.5-.4.5-.5.4-.5h4c4.2 0 8.8.4 9.7.7.8.3.8 1.2.1 1.6l-.7.2-2.4-.3zm253.5-.4c-.3-.2-.4-.5-.3-.9.2-.4.6-.6 2-.8 1-.2 2.6-.4 3.6-.4s3-.3 4.2-.6l2.7-.3c.5.2.5 2 0 2.2-.6.2-5 .7-9.5 1-1.6.2-2.3.1-2.7-.2zm-189.6-.3c-.8-.2-1.3-1.1-.7-1.5a7 7 0 0 1 2.1-.2c1 0 2.6-.2 3.5-.4 2-.5 2.5-.4 2.5.4 0 1-5 2-7.4 1.7zm62.9-.4c-1-.2-2.2-.2-2.7-.1-.5 0-1 0-1.3-.3-.8-.6-.2-1.2 1.5-1.6 1.9-.4 3.2-.4 5 0l3.3.6c1.5.1 2 .3 2.3.6.2.4 0 .5-.5.8-.8.3-4.9.3-7.6 0zm-107-2c-2.7-.6-4-1-5.6-2.2l-2-1a9 9 0 0 1-3.2-2.6c-.2-.6.4-1.2 1-1.2s3.5 1.4 4 2c.1.2.4.4.6.4.2 0 .5.2.6.4.6.6 2.8 1.6 4.8 2.1 1.1.3 2.2.6 2.3.8.5.3.4 1.1-.1 1.5-.6.3-.5.3-2.4-.2zm127 .2c-.4-.9.5-1.6 3.6-2.6 1.6-.4 4.6-.4 5.1.1.6.6-.7 1.4-2 1.4-1.8 0-4.2.4-5.2 1-1 .4-1.2.4-1.4 0zm44.3-.2c-1.4-1.3 0-1.7 9.7-2.4 5.5-.3 7.7-.3 8 .2 0 .1 0 .5-.4.8l-.5.6-4.2.2c-3.9.2-7.7.5-10.8 1-1 0-1.4 0-1.8-.4zm-208.5-4.8c-2-.2-2.3-.3-2.2-1v-.8h4.7c2.5 0 5.6-.2 6.7-.3 2.2-.3 3 0 2.8.8-.3.7-2.6 1.2-6.9 1.3h-5.1zm190.7-.7c-.2-.1-.4-.4-.4-.7 0-.7 1.7-1 4-1 1.8 0 2.2.4 1.6 1.2-.2.4-4.6.7-5.2.5zm47.6-2.1c-.3-.3-.2-.5.2-1s.6-.5 1.4-.4c.7.1 1 .3 1 .7 0 .4-.2.5-.7.5-.3 0-.7.1-.8.3-.2.4-.8.3-1.1-.1zm24.1-3.9c-.3-1 .5-1.5 2.9-1.7 1.2 0 3.2-.3 4.4-.4a1096.6 1096.6 0 0 0 20.2-.8c.8.3 1 1.2.6 1.7-.5.5-.3.5-8 .5a114 114 0 0 0-18.4 1.2c-1.3 0-1.5 0-1.7-.5zm-220.6-1.2c-.6-.6-.1-1.1 1.1-1.3a59.5 59.5 0 0 0 6.6-1.4l2.5-.6c4.6-1.2 5.3-1.2 5.3-.3 0 .5-1.4 1.4-2.3 1.4-.4 0-1.1.2-1.7.5-.6.3-1.5.5-2 .5-.9 0-2.2.3-6.1 1.2-2.1.5-2.9.5-3.4 0zm12.4-.1c-.2-.2-.3-.5-.2-.7.4-.5 2-1.2 2.9-1.2.4 0 1-.1 1.1-.3.2-.2.7-.5 1.2-.6 1.1-.2 2.5-1 3.7-2 1.3-1 1.7-1 2 0l.4.6-.9.9c-1.8 1.9-9.4 4.3-10.2 3.3zm-14.4-4.5c-2.2-.1-2.6-.3-2.6-1 0-1 .5-1.1 4.9-1h4.2v.6c.1.4 0 .7-.5.9-.8.4-3.5.7-6 .5zm-19.3-.3c-6.7-1-7.7-1.4-7.3-2.6.2-.7.3-.7 4.8.1l5.1 1c.8.1 1.6.4 1.9.6l.4.4-.5.4c-.6.4-2.3.5-4.4.1zm107.7-1.1c0-.3.2-.5.7-.5.8 0 .7.7-.2.8-.3 0-.5 0-.5-.3zm-20.8-.7-1.5-.3c-.6 0-1.2 0-1.5-.2l-3.9-.4c-2.2 0-3.7-.2-4.2-.5-1-.5-1.2-1.4-.3-2l.7-.4 1.8.3c1 .2 3.7.4 6 .4h4.2l1.4.8c1.6.8 1.8 1.5.6 2.1-.8.5-2.4.6-3.3.2zm14.8 0c-.8-.1-1.2-.6-1-.9.2-.1 1.1-.2 2.4 0 1.1 0 1.8.2 1.5.3-.3 0-.6.2-.6.3-.2.3-1.6.5-2.3.4zm-4-.9c-.3-.3-.3-.4 0-.6.3-.2.5 0 .4.6v.4zm-146.6-2c-.5-.8-.9-3.7-.7-4.4l.7-1.8.5-1.4c0-.3.2-.8.4-1.1.3-.5.5-.5 1-.3.6.3.6 1-.1 2.4a8.8 8.8 0 0 0-.3 5.2c.3.6.2 1 0 1.4-.3.6-1.2.7-1.5 0zm106.6-4.9c-.5-.6-.2-1.1.9-1.4a69 69 0 0 1 6.7-.6c4.1-.2 6.2-.5 7.4-.8 2.2-.7 2.6-.7 4.6 0l3.2.8c1.8.2 2.5.8 2 1.6-.5 1-5.5.6-7-.4-.4-.2-.6 0-.8.3-.5.7-1.4.8-1.9.3-.2-.2-1-.2-2.7-.1-11.8.8-12 .8-12.4.3zm-98.3-.3v-2.7l.2-11v-8.5l.8-2.2c.7-2.2 1.2-2.8 1.8-2.2.2.2.1.8-.3 2.3l-.6 2 .1 5.5c.2 6.4-.1 15.2-.5 16.2-.3.7-1 1-1.5.6zm38.3-3.8c-1 0-1.8-1.1-1.2-1.7.4-.3 2.8-.3 3.5.1 1.4.7-.2 1.8-2.3 1.6zM186 174l-1.6-.4c-.8 0-2.6-.4-4.4-1-1.7-.5-2.3-.5-5.2.5-2.6 1-3.3 1-3.9.3-.4-.5.1-1.7.7-1.7 1 0 3.2-.9 4-1.5l.6-.7h2c1.6 0 2.2.2 2.7.6l1.2.6c.3 0 .8.1 1 .3l3 .9c2.6.5 3.2 1 2.4 2-.5.5-1.2.6-2.5 0zm204-1.6c-.4-.4-.3-.9.2-1 .4-.3 3.5-.7 7.8-1.2 2.6-.3 3.4.5 2 1.8l-.7.8H395c-2.5-.1-4.6-.3-4.8-.4zm-373.4-1.9-.4-.5c0-.4 4.3-4.4 4.7-4.4h.6l-.4.8c-.2.4-1 1.3-1.7 2-.8.7-1.4 1.5-1.4 1.6 0 .2-.2.5-.5.6-.4.2-.6.2-1-.1zm372.4-2a47 47 0 0 1-14-3 .8.8 0 0 1-.2-.8c.2-.5 1-.5 4.2.2l3.5.9 5.6.7c3.8.4 5.1.8 5.1 1.6 0 .3-1 .8-1.3.7l-3-.3zm-228.3-4.7c-2.2-.2-3-.7-2.5-1.6l.2-.4h3.7c4.6.2 4.9.2 4.9 1 0 1.2-1.2 1.4-6.3 1zm218.6-2.7c-.4 0-.8-.3-.9-.6-.1-.7 1.5-1 6.6-1.1l4.7-.2.1.4c.3.8-.6 1-4 1.3a299.7 299.7 0 0 0-6.5.2zm-360.6-.4c-.4-.4 0-1.2.8-2 1-.8 7.8-7.3 15.3-14.5 3.6-3.4 5-4.8 8.9-8.2 6.3-5.7 11.9-11 12.2-11.8.1-.5.4-.6.9-.6.7 0 1 .5.7 1.3-.7 1.5-6.3 7.2-11.8 12-1.5 1.2-1.7 1.4-6.1 5.7a425.6 425.6 0 0 1-19.5 17.8c-.5.5-1 .6-1.4.3zm351.1-.5c-.6-.2-.5-1.2.2-1.4 1.9-.8 6.3-2.2 7.5-2.4 1-.1 1.4.4.9 1.3-.2.4-.6.5-1.2.5-.5 0-1 .1-1 .3l-.8.2-2.7.8-2.3.8-.6-.1zM8 158c-.2-.1-.4-.4-.5-.7-.2-.8-.6-6.4-.8-11.2a2547 2547 0 0 0-.6-16.5c0-2 .6-8.3.9-8.7.2-.4 1.1-.3 1.3.2l-.1 2.4a266 266 0 0 0 .7 32c.1 2 0 2.4-.3 2.5H8zm-5-1.3c-.5-1-1-6.2-1.2-12.4-.2-4.4-.6-8.6-1.2-10.7 0-.4 0-2 .2-3.7a38.7 38.7 0 0 0 .1-7.3l-.4-7A473 473 0 0 1 .2 85c.2-1.5.9-2 1.6-1.3l.5.5v9.6L2 110a363.5 363.5 0 0 0 2.1 45.3c.3 1.8-.8 2.9-1.4 1.3zm383.3-.8c-.5-.2-.4-.8.3-1.2.4-.3 1.2-.5 2.3-.5 1 0 3.1 0 4.8-.2 2.4-.2 3.3-.2 3.6 0 .5.4.4 1.2-.1 1.5a78 78 0 0 1-10.9.4zm-290.7-2a66.6 66.6 0 0 0 1.3-8c.9-6.7 1-7.3 1.4-8 .2-.3.6-.6.8-.6.5 0 .4 1.1-.3 5.7l-.8 6c-.3 2.1-.6 4-.8 4.5-.3.7-1.3 1-1.6.3zM391 151c-4.4-.2-6.3-.9-5.3-2 .2-.1 1.1-.1 2.9.1 1.4.2 4.2.4 6.3.4 2.8 0 3.8 0 4 .3.4.5.2 1.3-.3 1.3h-7.6zm-348-5.7c-.4-.4-.1-.9 1-1.6a71.1 71.1 0 0 0 8.2-6.4 224.6 224.6 0 0 1 8.4-7c1.3-1.2 4.4-4.8 4.8-5.6.7-1.3 2-1.9 2.4-1 .4 1-1.4 3.4-4.7 6.6a83.6 83.6 0 0 1-13 11c-.2 0-1.1.7-2.1 1.5-2.5 2.1-4.4 3-5 2.5zm-29.3-4c-.7-.4-1.4-2.7-1-3.6.3-.8 0-8.2-.6-12.3l-.2-4.7-.2-3c-.1-.3-.5-.5-1.1-.5-3.8 0-5.8-2.5-3.7-4.4.4-.4.9-1 1-1.4.4-.8 1.2-1 2.6-.7 1 .2 1.3.5 1.3.9.1.7-.9 2.2-1.4 2.2-.2 0-.4.1-.4.3 0 .5 2.4.3 4.8-.4 2.2-.6 2.5-.6 3.2 0 .4.5.4.7.2 1.1-.1.3-.4.6-.6.6-.2 0-.7 0-1 .3-.6.2-.7.4-.7 1.2 0 .8 0 1-.7 1.3-1 .6-1.1 1.2-1 3.2a63 63 0 0 0 .8 13.8c-.2 0-.2.8 0 2.9l.1 2.9-.5.2a1 1 0 0 1-1 0zm365.6-2.2c-.2-.2-.4-.5-.3-.6.4-.6 4.9-1.3 9.9-1.6l3.2-.4h1c.4.2 1.2.3 1.8.2.9-.2 1.1-.1 1.6.4l.5.5-.6.5c-.4.3-1.2.4-3.7.5a79 79 0 0 0-6.3.4c-4 .5-6.5.5-7.1.1zm-359-2.3c-.4-.4-.5-1-.6-4.3-.1-2-.2-6-.1-8.7V119l.6-.3c.3-.2.5-.2.8.2.4.5.4 1.3.3 6-.1 3.3 0 6.6.1 8.5.2 2.7.2 3.3 0 3.6l-.5.4zm350 .1-4.4-.4c-1.8 0-2.8-.5-2.4-1.3l.3-.5h3.6c3.5.2 6.2.5 7.8.9.9.2 1 1 .2 1.4-.6.4-1 .4-5-.1zM99 134c-.5-1.2 0-2.7.7-2.4.6.2.5 2.6-.1 2.7-.3 0-.5 0-.6-.3zm-36.6-15c-.2-.2-.4-.8-.4-1.3 0-1.3 1.1-2.6 2.2-2.6 1 0 1.2.8.3 2.5-.8 1.7-1.4 2.1-2.1 1.4zm-51-9c-.3-.3-.4-.6-.3-1 .2-.7 1.8-1 5.6-1.1l3.3-.1.6-.7c.6-.5.7-1 1.1-4 .7-5.8.6-11.1-.6-20.4a329.8 329.8 0 0 1-2.5-26c-.3-5-.2-16.3.3-23.9.2-2.5.3-8.3.4-12.7 0-4.4.1-8.2.2-8.4.4-.5 1.2 0 1.4 1 .2 1.2.5 7.7.5 11.2 0 3.9-.2 6-.6 12.9a149 149 0 0 0 0 19.7c.3 6 .9 13.4 1.6 19.8a127 127 0 0 1 1.4 19.2c0 5-.2 7-.8 10.6l-.2.9 6.7-.2c5.8-.2 7-.1 7.8.2l1 .4-.1.9-.1.8-1.9.2-2.5.5c-.3.1-1.8.3-3.1.3l-18 .1c-.4 0-1 0-1.2-.2zm344.6-1.8c-1.7-.2-2.1-.4-2.1-1 0-.3.1-.6.3-.8.6-.4 2.6-.6 4.3-.3 2.5.5 3 .6 3 1.2 0 1-1.8 1.3-5.5 1zm-235-1.1c-.8-.5-.5-1.4.4-1.5.6 0 .7 0 .7.6 0 .9-.6 1.3-1.2.9zm-107-1.9c-.3-.3-.4-.5-.3-1.2 1-4.9.8-14.5-.2-21.7-.4-2.9-1-12.3-1-17.6-.1-7 .6-16.7 1.4-21.2.4-1.9.4-23.8 0-30-.2-5.7-.2-6.5.2-7.2.2-.4.6-.7.9-.7.6 0 1 .8.7 1.4a256.2 256.2 0 0 1 .2 24.6l-.2 5 .5.5.6.6-.4 1.9L16 44a14 14 0 0 1-.6 3.4c-.1.3-.4 2-.5 3.5a157 157 0 0 0 .7 29.6 648.2 648.2 0 0 0 1.2 14.6c.3 1 .3 1.2 0 1.9-.2.4-.5 2-.5 3.4-.3 3.4-.5 4.4-1.1 4.8-.5.3-.7.3-1 0zm5-3c-.2-.3-.4-1-.4-1.5 0-1-.7-7.5-1.2-11a120 120 0 0 1-.8-15.5 1457 1457 0 0 0 1-10.3h.7l.4.1-.2 2.7a125.7 125.7 0 0 0-.3 16.4l1.6 15.5c.5 3.7.5 3.7 0 4-.5.2-.6.2-.9-.4zm13.5-1.3c.2-.9.3-3 .3-4.6 0-2.9-.1-4.8-1-16.4a132.2 132.2 0 0 1 .1-26c.4-3.3 1-6 1.5-6.5l.3-.4.4.4c.3.3.3.6 0 2a129.1 129.1 0 0 0-.8 25.5c.3.5 1.2 15 1.3 20.4 0 6.4 0 7-1.4 7h-.9zm-5-.6a574.7 574.7 0 0 0 .7-44.2c0-9.8 0-10.9.9-10.9.5 0 .6.7 1 5.5.6 8.1.7 10.3.4 12l-.4 15.6c0 7.7-.2 14.7-.4 15.6a277.7 277.7 0 0 0-1 6.6c-.5.5-1 .4-1.3-.2zM63 97.9c-.4-.7-.7-1.5-.7-1.8 0-.3 0-.6-.2-.7l-.8-2.1-.9-2.1a1 1 0 0 1-.2-.7l-.5-1.4-.6-1.5-.6-2.4a27.3 27.3 0 0 1-1.5-9.7l.2-4c.2-.2.5-.3.8-.3l.5.1.1 3.8a47.1 47.1 0 0 0 1 7.4 34 34 0 0 0 3 8.8c.2.9 0-2.3-.3-7.4-.3-4.5-.2-5.4.6-4.5.4.4 1 3.5 1 5.4l.4 2.8.4 2.3c0 .5.3 2.1.7 3.6l.7 2.7-.6 1-.7 1.6c-.2.9-1.1.5-1.8-.9zm43.5-2.6c-.2-.4-.2-.9.1-1.7 1-2.7 2.1-7.3 3-12.1a410.2 410.2 0 0 1 1.8-10.6c.7-4.5 1-5.4 1.7-5.5.3 0 .7 0 1 .2.5.5.3 2.5-.4 4.1-.3.8-.6 2.2-.7 3-.1 1-.3 2.1-.5 2.6l-.7 4.2a54.2 54.2 0 0 1-1.6 8 63 63 0 0 1-2.2 7.8c-.3.6-1.2.6-1.5 0zm-5.6-1.2c-.2-.4-.2-.7 0-1.6l.6-2.4c.5-3.8 1.9-8.9 3-12 1-2.3 1.4-3 2-2.5.4.2.1 2.3-.6 4.2-.6 1.9-1.2 4.2-1.5 6.2l-.6 2.6c-.3.7-.6 2-.8 3-.4 2.5-1.2 3.5-2 2.5zm259-1.2c-.4-.5 0-1.3.7-1.4a153.8 153.8 0 0 1 16 .4c.2.2.3.6.2.8l-.2.4h-8.3c-5.2 0-8.4 0-8.5-.2zm-244.5-3c-.5-.9-.6-1.9 0-3a78 78 0 0 0 2.8-12.4l.5-1.2a63 63 0 0 1 2.5-8.8c.2-1.2.8-2.6 1.1-2.6.4 0 .6 1.8.3 2.4-.3.7-.3 1 .2 1 .2 0 .4-.2.4-.6 0-.4.2-1.2.5-1.8a39.3 39.3 0 0 0 1.8-4.8l.7-1.8c.4-1.5 1-2 1.4-1.4.3.3-.2 2.8-.9 4.3-.6 1.3-2.4 6.8-2.7 8.5a111 111 0 0 1-3.2 11.4l-1 3.4a299 299 0 0 0-2.6 7.7c-.6.8-1.4.7-1.8-.2zm4.5-14.4v-1l-.1 1.1c0 .6-.2 1.1-.3 1.1-.2 0-.3.5-.3 1v1l.4-1.1c.2-.7.4-1.6.3-2.1zm1.8-5.3.9-3c0-.4 0-.5-.3-.5s-.5.4-.7 1.2a107.5 107.5 0 0 1-1.2 5.3l-.2 1.3.4-.8 1.1-3.5zm247 17.1c-1-.2-1.4-.7-1.3-1.6.1-.9 1-1.3 3.7-1.5 1.7-.1 2.6 0 3.7.3 2 .6 2.8.6 3 0 .1-.7 3-3 3.8-3.2 1.2-.3 1.1.3 0 2-.8 1-1.5 1.7-2 1.8-.4.1-.6.3-.6.8 0 1-1 1.3-3.4.8-3-.6-3.8-.6-4.5.2-.7.7-1 .7-2.4.4zm-219.9-1.6c-.6-1-.2-4.8.8-6.9.2-.5.5-2 .6-3.5a77 77 0 0 1 1-8c.4-2.3.7-3 1.3-3 .3.1.4.4.4 1 0 1.2-.6 4.6-1 6.5-.5 2.1-.5 4.2-.2 6l.5 2 .1.9-.8.2c-1 .2-1.2.6-.8 3l.1 2c-.3.6-1.7.4-2-.2zm12.7.5-.1-11.5c-.2-12-.3-14.9-1-15.6-.6-.6-.6-1 .1-1.7.8-.7 1.2-.7 1.7 0 .3.7.8 9.7 1 22.4.2 5.6 0 6.4-1 6.4a2 2 0 0 1-.7 0zm-16-1.3c-.4-.6-.4-3.5.2-7.2l.3-4.7c.1-1.5.5-5.6 1-9.1 1.2-9.8 1.5-11.2 2.4-10.7.4.3.4 2 0 4.6l-.6 4.5-.6 6.2a72 72 0 0 0-.6 15l.2 1-.6.5c-.8.6-1.2.6-1.7-.1zm242.6-.7c-1.5-.2-.8-2 .8-2.2.7-.1 1-.3 1.6-1.6l.7-1.4-.8-.4c-1-.5-1-1-.2-2.1.7-1 .9-3.7.5-7.4a299 299 0 0 0-1.5-12.7c-.3-2-.4-6-.4-19.9a435.2 435.2 0 0 0-.4-26.3c.3-.8 1.2-.5 1.6.5.3.8.4 3 .4 14a5264.8 5264.8 0 0 0 0 16.1l-.2 4a94.3 94.3 0 0 0 1.6 18.6c0 1.4.3 3 .4 3.4.2.4.4 2.4.5 4.5 0 2 .2 4 .4 4.5.6 1.4.3 3.1-.7 5.2a12 12 0 0 1-1.4 2.4c-.6.5-2.1 1-3 .8zm-219-1.4c-.4-.5-.5-.8-.3-2l.3-6.6c.1-5 0-7.3-1-10.6-.3-.9-.3-1.2 0-1.5.5-.5 1 0 1.7 1.4 1 2.3 1.3 4.9 1.4 11.4l.2 6.5c.3.8-.4 2-1.2 2-.2 0-.7-.3-1-.6zm-14.3 0c-.1-.2-.3-2-.3-4.2 0-2.1-.2-5-.3-6.2-.2-1.4-.3-5.1-.3-8.4v-6l.4-.2c1-.3 1.2.5 1.1 3.4-.1 4.8.1 11.8.6 14.5.2 1.2.4 6 .3 7 0 .5-1.3.5-1.5 0zm249-3.6c-.5-.5-.6-1.8-.1-3.5a179 179 0 0 0 0-34.8c-.2-2.5-.3-4.9-.2-5.3l-.1-2.5c-.3-1.2-.3-1.8 0-2 .7-.8 1.5 2.3 1.6 6.7 0 6.1.1 8.1.4 11.1.5 4.4.6 7.4.6 15.6v10.8c0 2.7-.1 3.5-.5 3.9-.5.5-1.2.6-1.7 0zm-23.5-.8c-.3-1-.3-1 .6-2 .4-.6.8-1.4.9-2 .1-.7-.2-6.5-.8-13.2-.4-3.9-.5-7.3-.8-18-.3-11.9-.2-12.5.1-12.9.6-.7 1 0 1 2.3l.2 4.3a456.1 456.1 0 0 1 .6 18 51.5 51.5 0 0 0 .9 8.6 34.1 34.1 0 0 1 1 8.8l.1 3.3-.8 1-1.3 1.7c-.8 1-1.3 1-1.7.1zM333 74.1c-.3-.4-.5-4.9-.5-9.3 0-4.6.3-9.7.8-10.5a88 88 0 0 0 .6-22.2c-.2-1.8-.3-5.4-.4-7.8l-.5-7.3c-.2-2.1-.2-3.6 0-5.4.5-3.9.6-4 1.2-3.9l.6.1v5c0 5.2.5 12.2 1 17 .4 4.7.4 5 .4 10.7A79.2 79.2 0 0 1 335 55a50 50 0 0 0-.5 12.6c.4 5.5.2 6.6-.8 6.7-.4 0-.8 0-.8-.2zm52.7-13.4c-.1-.2-.2-.5-.1-.6l.1-12.2c-.1-25 0-31.6.4-32 .3-.3.5-.3.7 0 .3.2.3 1.3.2 4.3-.2 8.2 0 37.1.5 39.6 0 .6 0 1-.2 1-.6.4-1.2.4-1.6 0zm-66-5.7c-.2-.3-.4-3.7-.5-10a304.4 304.4 0 0 0-.7-20.5c-.2-5-.3-9-.1-14 0-3 .1-3.6.6-4l.4-.5.4.5c.5.4.5.5.4 8.6-.1 5 .3 17.3.5 18.8l.4 7a283.4 283.4 0 0 0 .4 12.4v1.9h-.8c-.4 0-.9 0-1-.2zM180.4 35.8c-.5-.3-.5-.8-.6-3.7 0-1.9-.3-5-.4-7-.5-7-.3-10 .7-11.1.9-1 1.1-.4 1 2.7-.2 2.7 0 6.6.7 15.5.1 1.8.2 3.4 0 3.6-.1.5-.8.5-1.4 0zm8.8-1.4a224.7 224.7 0 0 0-.8-22c-.4-4.7-.4-5 .2-5.4.6-.5 1.6-.5 1.9 0l.2 2.7c.1 5 .4 10.8.6 14.9.4 5 .3 8.3-.3 9.4-.4 1-1.4 1.2-1.8.4zm7.4-2c-.2-.6-.2-1.8-.1-3a170.4 170.4 0 0 0 .3-17.8c-.4-1.7 0-3.8.7-3.9.3 0 .7 0 1 .2.4.3.4 2 0 17.8v7.2l-.5.4c-.7.5-1 .3-1.4-.8zm90.7 0-.6-1-.3-7.8a41 41 0 0 0-.6-9.1c.4-.8.3-4.3-.2-6-.6-1.7-.5-2.4.5-2.4.4 0 .9.2 1.2.6.7.7.8 2 1 10.1.2 10.4.3 11.8.6 13 .6 2.1-.5 3.8-1.6 2.5zm-9.8-.3c-.4-.3-.5-1.3-.5-5.6v-6.8c0-1.7-.6-8.6-1-10-.2-.4-.3-1.7-.3-2.8 0-2.2.4-3.1 1.1-2.9.6.2 1.4 2.7 1.2 3.6-.1.4 0 2.3.2 4.2 1 8.1 1.5 19.7 1 20.3-.5.6-1.2.6-1.7 0zm17.5-.6c-.5-.6-.6-3-.6-12l.1-7.5.5-.3c.3-.3.5-.2.9.1l.5.5v11.4c0 .3 0 2.1.2 4 .3 3.7.2 4.3-.8 4.3-.2 0-.6-.2-.8-.5zm71.2-1.5.1-.4.3.4-.1.4c-.2 0-.3-.2-.3-.4zm37-.2c-.9-2.9-1-3.8-.3-4h.7c.3.4.7 3.5.4 4-.3.4-.7.5-.9 0zm-143.4-3-.6-.6v-6a202 202 0 0 1 .8-16.7c.2-.5.9-.4 1.1.1.3.6.4 4 .2 7.8l-.2 4.5v1.7l.5.3.6.2-.6.3-.6.2.1 1.9c0 2.6.2 3.6.4 4.3.6 1.5-.6 2.8-1.7 2zm-41.4-2.3c-.3-.6-.4-.8-.1-1.3l.4-6c.4-10.8.5-12.4 1.2-12.7.3-.2.6-.1 1 0l.4.4-.2 3.2a166.8 166.8 0 0 0-.2 16.4c-.3 1-1.9.9-2.5 0zm10-2.7-.4-.5.2-4.7a383.5 383.5 0 0 0 .4-16.3c0-.5 1.8-.4 2.3.1.3.4.4.8.3 1.8-.4 3-.7 9.8-.8 14.5v5l-.5.3c-.6.3-1 .3-1.4-.2zm50.8-20.3c-.2-.3-.2-.4 0-.5.3-.1.6 0 .8.3.2.4.2.5-.1.5-.2 0-.5-.1-.7-.3z"/>
</svg>
