<?xml version="1.0" encoding="utf-8"?>
<svg xmlns="http://www.w3.org/2000/svg" xmlns:svg="http://www.w3.org/2000/svg" version="1.1" viewBox="0 0 445 288">
  <title>As the sun rises from behind the hill, Pig-wig takes Pigling Bland’s arm and points out town in the bottom of the valley.</title>
  <path d="M64.6 286.8c-.5-.6-.3-.8.8-.8 1 0 1.3-.4.9-1-.2-.2-.2-.4.2-.7.7-.6 2.4-1.6 3.5-2a8 8 0 0 0 1.9-1.3c.5-.5 1.2-.9 1.5-.9.3 0 1.3-.3 2.2-.8l3.1-1.4c.8-.2 2.4-1 3.6-1.5 1.9-1 3.8-1.7 7.7-3.1l3.5-1.5a59 59 0 0 1 3.7-1.5c2-.7 2.9-1.2 2.4-1.6l-1-.2c-1 0-1-.3-.8-1.7.1-1.1.3-1.3 2-1.7 1-.3 1.2-.4 1.1-1v-.8c0-.4 1.3-1 3.2-1.3l3.2-.8c1.7-.4 2.7-.5 3 0 .3.1.4 0 .5-.3.1-.3.7-.8 1.3-1l1.5-.9c.9-.5 4.6-2.1 5-2.1l1.2-.8c1-1 2.3-1.4 5.3-2.1a22 22 0 0 0 6.4-2.3c.1-.2 0-.9-.4-1.5-.6-1.5-1.1-1.7-3.5-1.4a7 7 0 0 1-3.5-.5c-2.3-.8-3.1-.9-3.6-.3-.5.6-2.3.5-3.5-.2l-1-.6-.3.5c-.5.6-2.3.8-3.1.4-.4-.2-.8-1-1.2-2-.7-1.8-2.6-5.4-3.3-6.3a19 19 0 0 1-3.7-7.7c0-.3-.3-.9-.6-1.2l-.5-1-.4-1.2c-.3-.7-.3-1-.1-1.5l.3-.5 1.5.1 1.5.2 1.4-1.3c.9-.8 1.7-1.4 2-1.4.7 0 1.1-.4.7-.6-.5-.3-.3-1 .4-1.1.7-.2.7-.4 1-4l.3-2.7c.2-.8 0-1.1-.5-1.8-.5-.6-.8-1.4-1-2.9l-.4-2-1 1.2a4 4 0 0 1-2 1.5 4 4 0 0 0-1.6.9c-.3.4-1.5 1-2.6 1.5-2 .8-5.4 2.7-6.7 3.7-1 .8-4 1-6.3.4l-2-.4-1.5-.5-1.6-.7c-.4 0-.8-.5-1-1.3l-.9-1.8a25.5 25.5 0 0 1-1.7-3.7c-1.1-2.3-2.4-3-3.4-1.7-.8 1.2-5 2-6.7 1.2-.8-.3-2.3-.4-2.3-.1l.5.9 1.1 1.6c.7 1 1.9 1.5 3.6 1.6h1l2.2-1.9c1.2-1 2.3-1.8 2.5-1.8 1.2 0 .9 2.2-.4 3.6-.4.4-1 1.2-1.2 1.8-.4.8-.8 1.2-1.3 1.3-1.1.2-1.5.5-1.3 1 .2.6 2.8 2 4.2 2.2l1.1.4c.2.3 1.3.3 2 0 1.6-.8 2.9.5 2.4 2.3l-.7 1.5c-.9 1.2-.5 2.1 2 4.8 1 1.2 1.6 2 1.7 2.7 0 .5.8 2.2 1.5 3.8.8 1.5 1.7 3.8 2.2 5.1l1.1 2.5c.6.2 1-2 .8-4.4l-.2-2.3-1.1-1.6a9 9 0 0 1-1.8-4.8c0-.3-.2-1-.5-1.3-.4-.5-.5-1-.4-1.8.1-.9 0-1.4-.4-2.2-.6-1.2-.5-2 .2-2.3.7-.2 4 1 4.8 1.8.6.6 1 .7 2.5.7 1.1 0 2-.2 2.6-.4 1-.6 2.8-.4 3.3.3l.4.6-.4.4c-.3.2-.7.4-1 .4-1.3 0-3.4 2.3-3.4 3.8 0 1.2 2 4.9 3.5 6.2.4.4.7.8.7 1l1 2.3 1.5 3.2c.3.7.6 1 1.3 1.2.7.2 1.7 1 3 2.4 1.2 1.1 2.2 2.3 2.3 2.5.3.8-.4 1.3-2.3 1.4a7 7 0 0 0-2.7.6c-.5.3-1.1.5-1.5.5l-1.3.4c-1 .5-2.3.3-2.3-.4v-.5l-2 .1c-1 0-2.3.2-2.7.3-.7.2-1 .1-1.4-.2-.2-.2-1-.5-1.8-.6l-1.3-.2-.2.6c-.1.2 0 .8.2 1.2.4 1-.1 1.3-2.4 1.6-1.6.1-9 1.3-10.6 1.6-.4 0-.6.3-.6.8 0 .8-.5 1-2.8 1.3l-3.5.6a52.6 52.6 0 0 1-6.1 1c-.7.2-2.5.6-4.1.8a72 72 0 0 0-5 1c-2.5.5-6.5 1-8.5.9-1.2 0-1.6 0-1.8.4l-.2.4-1-.4c-1-.4-1.8-.5-1.4 0 .1.2.1.4-.1.7-.3.2-.4.2-.4-.2s-.3-.6-1.1-.7c-1.6-.2-2-.4-2-.7 0-.1 0-.2.3-.2.2 0 .4-.2.4-.3 0-.2-.2-.2-.5 0-.4.2-.7.2-1.1-.1l-.6-.4-.6.5c-.5.4-1.1.5-2 .5-2.1 0-1.5-.8.8-1.1.7 0 1.6-.3 1.9-.4l1-.6 1.3-.2 2-.4a144.1 144.1 0 0 0 7.4-1.6 29.1 29.1 0 0 1 12.6-1.4l1.9-.2v-.8c-.2-.7-.3-.8-1-1h-2a7 7 0 0 1-1.6 0l-2.8.4a322.6 322.6 0 0 1-13.3 2c-1.7.4-4 .4-3.3 0 .3 0 .4-.2.3-.2-.5-.1 1.3-.6 2.8-.8l9.2-1.6a176 176 0 0 1 14.8-2 21 21 0 0 0 6-1.2c.4 0 1-.3 1.4-.6a9 9 0 0 1 4.8-1.5c.7 0 1.3-.2 1.6-.5a2 2 0 0 1 1.3-.6c.6 0 1-.3 2.3-1.8l1.5-1.9-.2-1.2c-.4-3.2-1.6-7.3-2.2-8l-.5-.7-.2.6c-.3.9-2.4 1.2-4.5.7-.5 0-1.6 0-2.6.3l-5.6.7a136.5 136.5 0 0 0-10.2 1c-2.4 0-2.8 0-3-.3-.2-.7.3-1 2.5-1.3 3.1-.3 4.8-.6 7-1.2 1.4-.4 1.9-.4 2.6-.1 1.2.4 1.5.4 3.7-.4 2.6-.8 6.8-1.1 8.5-.5 1.5.5 1.5.5 1.5 0 0-1-.7-2.5-1.7-3.6l-1-1v-4l-.8-.4-2-.8c-.7-.1-2.2-.8-3.3-1.5l-2-1.1-.6-1.4c-.8-1.8-1.5-2.6-3-3.1-.7-.3-1.3-.7-1.4-1-.2-.4-.6-.8-.8-.9-.3 0-.7-.6-1-1.1a16 16 0 0 0-.9-1.7c-.6-1-1.4-3.3-1.5-5l-.2-1.5-1.9-.2c-2 0-5.6-1.2-8.8-2.9l-2.9-1.2c-2.4-.7-2.8-1-2.5-2 .6-1.5 5.8-1.9 8-.5l2.3.9c1.2.3 1.3.7.8 1.6-.5.7-.2.8 1.5 1 1.7.1 2.8-.3 3.6-1.3.9-1.3.9-2.2 0-3.1l-.6-.9-.5 1.1c-.3.6-.5 1.4-.4 1.6.2.7-.8 1.6-1.5 1.5-.8 0-.9-.8-.2-1.5l.6-.5-.4-1.2-1.4-3.2c-.6-1.2-1.3-2.9-1.4-3.7l-.8-3.6c-.6-2.3-.5-4.7.5-8.4a38 38 0 0 1 5.2-12.7 24 24 0 0 0 2.2-4.3 56 56 0 0 1 8-14.5c1.9-1.9 4-3.4 4.8-3.7 1.5-.5 2.1-1.2 3.3-3.6.6-1.2 1.3-2.5 1.7-3l1.2-2.2c.5-1 2.4-3 6-6.3a32 32 0 0 0 2.4-2.6c.7-.8 2-2.1 3-2.8l1.6-1.2v-1.6c0-3.2 1.6-5.8 5.2-8.7 1.2-1 3.1-2.9 4.5-4.4 2.6-3 3.4-3.5 4.8-3 .4.1 1 .5 1 .8l.2 4v3.3l.8.6c.5.3 1 .5 1.3.5.2 0 1.5-1 2.9-2.3l4.6-3.9 2-1.5 1 .1c.5.1 1 .3 1.2.5l.4 2.8.1 2.6.9.5c1 .6 1 1 .3 1.4-.3.2-.5.9-.8 2l-.4 2.2c-.1.2.3.6 1.1 1 3.8 2 4 2.2 5.4 6.1.9 2.2 1.3 2.9 1.5 2.4.3-.9.9-1.3 1.7-1.3 1 0 1.3.3 3.7 3.4 2.6 3.4 3.2 4.4 3.2 5.2 0 1 .8 1.4 2.3 1l1.1-.3 1.3-2.7 1.4-3c0-.8 1.7-2.8 3-3.4 1.3-.7 1.9-.6 2.1.5.5 2 1.8 4.6 3 5.9 1 .9 1.5 1.8 1.9 2.8.5 1.4.6 1.5 2.1 2.1.5.2 1.4.8 2 1.3a4 4 0 0 0 2.6 1.2 6 6 0 0 0 2.4-.1c1.2-.4 3.5 0 4.5.8.7.5.8.8 1.9 4.2l.7 2.3-.4 2c-.3 1.2-.9 2.5-1.3 3.3-1 1.5-1.4 2.6-1.8 5.9-.2 1.4-.5 3-.8 3.5-.7 1.4-.7 2 .2 2.1l1.7.8c1.7 1.1 2.2 1 4.3-1.2l4-3.6a39 39 0 0 1 9.6-5c.3 0 .8.2 1 .6.2.4.7.7 1 .7.9 0 1.8.7 1.8 1.4 0 .8-1.7 4-2.7 5a7 7 0 0 0-1.2 2.2c-.5 1.5-1.4 3-2.9 5-1.6 2-1.7 2.2-1.7 4 0 2.1-.9 4.2-2.7 6.6-1.3 1.7-2.4 2.3-5.8 3.4a12 12 0 0 0-2.5 1l.4 2.2c.3 1 .5 2.3.5 2.6l.6 2.5c.6 1.9.6 1.9.5 14.4 0 5.4.3 8.9 1 11.8.2.5.4 2.1.6 3.5.3 2.1.3 3-.1 5.5a26.2 26.2 0 0 1-6.5 14.5c0 .2.5.4 1.5.4 1.2 0 1.7-.2 2-.5.3-.4 1.3-.7 2.9-1l3.5-.8a20 20 0 0 1 3.4-.5c2.3-.2 2.8-.4 2.3-1s.4-1.3 1.7-1.3c5.7-.3 10.2-.7 11.2-1h2.3c2 .3 3.6.3 4.5 0 .9-.4 2.7-.3 6.6.5 1.3.2 5.3 0 10-.5 7-.8 18.1-1.4 20.6-1.2 1.8.2 2.5 0 3.5-1 .5-.4.8-.5 2-.3l5.3.5c3 .2 4.1.4 5 .9 2 1 1.7 1.1-3.2.9-8.2-.4-12.1-.3-20.7.7-2.8.3-6.1.6-7.5.6-2 .1-2.6.2-3.2.7l-.8.6h-5.5a47 47 0 0 1-8.5-.6c-4.1-.7-4.6-.7-7 0-1.4.4-2.7.5-4.9.5-1.6 0-3 .2-3 .3-.2.2-1 .3-1.8.3H194l1.3.2c1.4 0 2 .5 2 1.2 0 .6-.4.7-2 .8a139.3 139.3 0 0 0-10.3 1 685.2 685.2 0 0 0-10 1.3c-.4.2-1.6.6-2.6.7-2 .3-3.1 1-4 2.4-.6 1-1 1.2-3.7 2.4-3.1 1.4-4 1.6-8.6 1.8-5.2.2-5.6.3-5.6 1.4 0 .6.4 1.2 1.8 2.7l2.3 2.3c.9.4 1.1 1.5.5 2.2-.6.6-3.1.7-4.3 0l-.7-.4-.8.6a3 3 0 0 1-1.9.5c-1 0-1.2.1-1.4.7-.3.6-1.5 1.2-2.6 1.2l-1.1.4-3.3.8c-1.4.2-3.1.7-4 1-3 1.4-9.2 2.4-10 1.7-.5-.3-2.2 0-3.2.7a9 9 0 0 1-1.8.7c-.7.2-1.2.4-1.2.6 0 0 0 .2.2.2.5 0 .3 1-.1 1.1-.4.2-.5 0-.4-1 0-.5 0-.5-1.5 0-1.1.3-1.9.2-2.4-.2-.2-.1-.4-.1-.4 0v.5l-.2.6c0 .5-1 .4-1.5-.1-.4-.6-1.1-.3-1.1.4s-1 1.4-2.4 1.8l-2.2.9c-.5.3-1.2.5-1.6.5-.4 0-.7 0-.7.2l-1.9 1.1-1.8 1.1c0 .1-.3.2-.7.2-.7 0-.8-.3-.4-1 .3-.4 3.6-1.9 4.4-1.9.3 0 .6 0 .7-.2a8 8 0 0 1 2.7-1.4c.3 0 .4 0 .4-.2s.3-.3.5-.4c.7-.2.8-.8.1-.6a62 62 0 0 0-7.6 2.6c-3.8 1.6-6.4 2.6-8 3.1A126.4 126.4 0 0 0 71 285.2l-2.1.9c-2.4 1.2-3.7 1.4-4.3.7zm37.5-19.7 1-.4h-.7c-.4 0-1 .1-1.3.4-.7.4-.3.4 1 0zm8-2.5c1-.3 1.4-.5 1.4-.9 0-.3-.2-.5-.5-.5l-.8-.4c-.5-.6-1.2-.4-1.6.5-.3.6-.7.9-1.4 1a3 3 0 0 0-1.4 1l-.4.6h.8c.5-.2 1-.1 1 0s.5 0 .8-.4l2.1-1zm5.7-1.7a25 25 0 0 0 5.5-1.8l1.5-.5 1.4-.3 1-.3-.4-.7c-.5-.7-1.6-.8-2.5 0-.4.2-1.3.5-2 .6l-2 .5c-.5.2-1 .3-1.4.2-.3 0-.8 0-1 .2l-1.3 1c-.7.3-1.1.7-1.2 1 0 .8-.2.8 2.4.1zm7.3-.4h-.5c-.2 0-.2.2.1.2.3 0 .5 0 .4-.2zm4.6-.6c.2-.1 1-.4 2-.5 2-.4 3-.8 3-1.1 0-.3-1-.2-3.7.4l-3 .6c-1.8.3-2.6.6-2.6 1 0 .3 3.9 0 4.3-.4zm7.9-2.4c.4-.3.8-.7.8-1 0-.4.5-.4 1 .1.3.6 1.2.3 1.1-.3v-.8c0-.5 1.7-.5 2.1 0 1 1.2 3.1-.3 2.4-1.7-.2-.4-.6-.5-1.7-.5-1 0-1.6.1-2.7.9-1 .6-2 1-3 1l-1.8.4c-.5.2-.4.5.3.6.3 0 .7.3.8.6.4.6-.1 1-1.2 1-.4 0-.7.1-.7.3 0 .4 1.7 0 2.6-.6zm-92.4.4h-1 1zm7-.4c4.8-.4 9.5-1.2 13.4-2.1a60.2 60.2 0 0 0-16 .8c-1.4.4-3.5 1.3-3.5 1.6 0 .3.5.3 6.2-.3zm77.1-.1h-.5.5zm21-4c1-1 1-1.2.1-2.4-1.3-2.1-1.4-2.1-2.7-2.3-1.8-.3-2.2 0-2.2 1.3v1l2 1.6 2 1.5.9-.7zm-77-1a65.6 65.6 0 0 0 7.2-1.2c1.7 0 5-.7 5-1 0-.5-2.6-.7-4.1-.3l-3.5.5c-5.4.6-8 1.1-8.6 1.6-1 .9-.5 1 4 .3zm67-2.7c.2-.3.2-.4-.4-.4-.7 0-1.4.4-1.1.7.2.4 1 .2 1.5-.3zm-55.5-2.2c2.4-.4 2.5-.6 1-1.1-1.7-.6-2.7-.7-2.7-.3 0 .1-.8.6-1.9 1-1 .3-1.8.7-1.8.8 0 .2 3.6 0 5.4-.4zm16.3-1.1a5 5 0 0 1 1.8-.5c1.6 0 1.9-.4 1.9-2.2 0-1.5-.2-2-1.2-4-.6-1.4-1.6-3.2-2.3-4.2-3.2-5-3.4-5.6-3.1-8 .1-1 .4-2 .5-2.3.4-.7.4-.8-.8-.8h-1l-.9 1.2c-1 1.3-.9 2.3 0 4.5.4.7.8 2 1 2.9.2.9.5 2.3.8 3a9 9 0 0 1 0 5c-.2.4-.1.6.1.6.5 0 1.3.8 1.3 1.2 0 .2-.3.7-.7 1.2l-.6.8h.5c.7 0 1.2.8.8 1.3l-.2.6c0 .4 1 .2 2-.3zm39.2-.3c0-.4.4-.8.5-1 .3-.4.3-.6 0-1a5.8 5.8 0 0 1-1.3-2.7c0-.4.2-.6 1-.7 1.2-.2 2.1-.9 2.1-1.5 0-.3-.2-.8-.6-1.3l-.5-.8.3-3a17.8 17.8 0 0 1 1-4.8l.4-1.2c.2-.8.4-1 .9-1 .3 0 .6.1.7.3l-.4 2.6-.6 4-.2 1.7.7 1.3.8 2c.1.5.7 1.6 1.3 2.5 1 1.7 1.2 2.3.3 2.5-.5 0-2-1.3-2.7-2.5-.4-.7-.6-.4-.4.5.2 1 2.3 2.7 4 3.1 1.6.5 5.2.6 7.4.2l1.6-.3 1.7.6c1.8.6 2 .5 5.3-.5 2.8-1 6-3.7 8.6-7.5.5-.8 1.6-2.2 2.6-3.1 2.2-2.3 3.7-5.1 4-7.9l.7-3.6c.4-1.9.3-4.6 0-6.9a60 60 0 0 1-.5-2.8c-.2-1.7-.8-1.7-1.2-.2l-.4 1.6c-.2.6-1.3 1.4-1.8 1.2-.6-.2-.5-1.1.1-3.7a149.5 149.5 0 0 0 2.8-16l.2-3.3-.7-1c-.4-.5-.9-1.6-1.1-2.4l-3-7.2c-.8-1.8-1.7-2.6-3-2.6-.5 0-1-.3-1.6-.8-1.1-.9-1.4-1-1.7-.2-.5 1.7-1.6 1.5-2.6-.6-1-2-3.4-4.5-4.1-4.3-.7.2-1.6-.3-1.7-1 0-1-1.1-1.3-3-1.2l-1.6.2-.4-.6-.4-.5-1.2.3c-2.6.6-3.2.1-2.6-2.1l.4-1.2-.6-.4c-1-.6-.7-1.5.6-2.9l1.2-1.1h2.1c1.2.1 2.3.3 2.4.5.2.1.4.8.5 1.5.1.8.4 1.7.7 2l.4 1.2c0 .7.4 1 1.5 1.3 1 .2 5.2 2.4 5.7 3 .8 1 1.3 0 1.3-2.6 0-1.6.8-2.7 2.5-3.3 2.2-.9 2.4-.2 1 2.9l-.8 2.9-.1 1.2 1.3 1.4c1.1 1 1.5 1.3 2 1.1.7-.1 3.3 1 3.7 1.6.3.6 2.7.5 3.6-.1 1.6-1.3 2.7-1.9 3.5-1.9.7 0 1.1-.2 1.8-1 1.7-1.7 2-2.3 1.7-4-.1-1.3 0-1.8.4-2.8.3-.7.7-1.3 1-1.4.7-.1 2.5-3 2.5-3.7 0-.3-.3-.7-.6-.8-.2-.2-.5-.5-.6-.8a.8.8 0 0 0-.8-.6c-.3 0-.9-.3-1.2-.6-.5-.5-1-.7-1.7-.7h-1l-1.6 1.7c-.8.9-1.5 1.8-1.5 2l-.7 1-.7.9.7 1c1 1.6.9 3.5-.4 3.5-.4 0-1-1-1-1.7 0-.2-.8-1-1.6-1.6a7.1 7.1 0 0 1-2-1.8c-.5-1.4-1.1-1.6-5-1.6-2 0-4.2 0-5.1.2-1.8.2-2.4-.1-2-1.3.2-1 1-1.3 3.7-1.3h2.3l1.1-1.2a13 13 0 0 0 1.5-2.2l.5-1-.4-2c-.9-4-.4-6.8 1.4-7.7 1-.5 1.8-1.6 1.8-2.5 0-1.2-.8-3.1-1.6-3.8-.6-.6-.9-.6-1.4-.4a5 5 0 0 1-1.5.2h-.8v.8c.1 1.3 0 1.4-1.3 2-1.7.8-2.2.8-2.6.3-.3-.3-.3-.7 0-1.8l.6-1.8c.6-.8-2.7-2.8-3.9-2.3-.2 0-.7.8-1 1.6-.6 1.1-1 1.6-1.8 2-1.3.7-2.3.7-2.7 0-.4-.7 0-1.4.9-2.1 2.4-1.8 2.2-6.7-.3-8.9-.6-.5-1.6-2.4-2.2-4.1-.3-.9-1 0-2.4 3l-1.3 2.7v2.3c0 1.9 0 2.5.5 3.6.9 1.8.7 2.7-.6 2.7-.4 0-1-.1-1.1-.3-.4-.4-1.4-3.5-1.4-4 0-.2-.2-.5-.5-.7-1.1-.6-3.7 1.1-3.7 2.4 0 .5-.7 1-1.3 1-.5 0-1.1-.8-1.1-1.6 0-.4.2-1.2.5-1.7.4-.6.5-1 .4-1.5l-.2-1.5c0-.6-.1-1-.7-1.6l-.9-1.1c0-.2-.6-1-1.2-1.7-.9-1.1-1.2-1.4-1.5-1.1a13 13 0 0 0-2 3.8c-.1.6-.4 1.2-.5 1.3l-.5 1.4c-.2 1-.2 1.4.2 2.4l.5 1.3-2 3.6c-1.2 2-2.1 4-2.2 4.4l-.4 2.1c-.4 1.2-.4 1.6-.1 2.6l.3 2c0 .5.3 1.5.7 2.3.6 1.1.8 1.4 1.3 1.4l2-.2c1.2 0 1.7-.3 2.1-.7.6-.6 1.2-.6 2.2 0 .6.3 1.2.4 2 .3 1 0 1.4-.2 2.1-1.1 1-1.4 2.4-2 3.6-1.5 1.7.5 4 3.8 3.5 5-.2.5-1.7.7-2 .2-.2-.4-.6-.3-.7.4l-.2.7H141.5c-.7 0-1-.1-1.6-.8-.5-.4-1-.8-1.2-.8l-1.3-.4-.8-.4-1 .8c-2.2 2-3.6 3-4.2 3.1-1 .3-3.2 2-4 3-.3.7-1 1.3-1.7 1.6l-2.3 1.4a8.7 8.7 0 0 1-6 1.4l-1.6-.2-1 1.3c-1.4 2-1.7 2.8-1.7 4.6 0 2 .4 2.6 1.9 2.5l2.3.4 1.4.3.7-.8c1-1.1 1.8-1.4 4.6-1.5 1.2 0 2.4-.2 2.6-.3.2-.1.2-.5.1-1.3l-.2-1.2 1.2-.5c.7-.3 1.4-.8 1.6-1 .6-.7 1-3.3.9-4.7-.3-1.6 0-2.2 1-2.5.7-.3 1.1-.3 1.7 0 1 .5 2 2.5 1.8 3.6v.9c.2 0 .6-.4 1-.9 1.1-1.4 2.9-3.1 3.4-3.2.7-.3 1.7.3 3.2 1.7 1.2 1.2 1.5 1.6 1.6 2.6.2 1.4.6 1.9 1.4 1.9.8 0 1.7.9 1.7 1.7 0 .8-.8 1.7-1.8 1.9-.7.1-.9 0-1.3-.6-.2-.4-.4-1-.4-1.6 0-.7-.1-1-.5-1.1-.3-.1-.8-.7-1.1-1.4-.4-.6-1-1.4-1.4-1.7l-.7-.5-.7.4c-1 .6-1 1.1 0 1.6.5.2 1.4.8 2 1.4 1.3 1.2 1.5 2.1.5 2.6-.6.2-.8.2-1.4-.3a12 12 0 0 0-2.2-1l-1.4-.6-1 .9c-.5.5-2 1.4-3.3 2.1l-3.8 2.2-3.2 2c-1.8.9-3.5 2.2-6.5 5-2.1 2-4.8 6.3-5.2 8.3l-.5 3c-.2 1-.4 2.5-.4 3.5s-.2 2-.3 2l-.2 4c-.1 2.9 0 3.5.2 3.5.9 0 1.5 1 2 2.8l.3 1.8-.4 2.9c-.5 3.6-.5 5 0 10.7.6 6.3.9 7.5 3 11.6a21 21 0 0 1 1.6 4.1c0 .4.4 1.1.8 1.6.8 1 2 1.2 5.3 1.2 1.8 0 2.3.2 2.9.6 1.2 1 1.3.8 1.2-2.2-.2-2.3-.1-2.9.2-3.2.5-.5 1-.1 1.2 1.2.2 1.3.7 2.1 1.9 3.1 1.1 1 1.7 2.3 1.5 3-.3.6 1.2 1.2 2.8 1.3 1 0 1.3-.1 1.6-.6zm-4.7-7.7c-.3-.4-1-1.4-1.4-2.3-.8-1.4-.9-2-.8-3.1.2-1.7.6-2.3 1.3-2 .3.2.5.6.5 1.1a6 6 0 0 0 1.8 4.4 6 6 0 0 1 1.1 1.4c0 1.2-1.4 1.5-2.5.5zm-9-2.6-1-.7-.5-1.2c-1-1.5-1.2-2.2-1.8-10.3-.4-4.6-.2-5.7.7-6.1.6-.3.7-.2 1 .2.4.4.6 2.2.4 2.9l-.1 3c-.1 4 1 8.9 2.4 10.7.8 1 .8 1.4.2 1.8-.4.1-.8 0-1.4-.3zm2-5.7c-.6-.2-1-1.1-1.2-3l-.2-1.5.6-.2c.8-.3 1.2.2 1.7 2.1.6 2 .3 2.8-1 2.6zm11.2-32.3c-.5-.2-.4-1.7.2-4l.8-4a53 53 0 0 1 1.9-7.6c.2-.7.2-1-.2-1.7l-.4-1 .8-.2a2 2 0 0 0 1-1.2 8 8 0 0 1 .9-1.6c.4-.7.5-1 .2-1.3-.7-1.2-.1-2 1.2-1.7.7.2.9.5 1.6 3l.4 1.5-.4 1.7-.7 4c-.6 4.5-1 5.8-2 5.8-.3 0-.4-.3-.2-1.8 0-1 .3-2.7.6-4 .4-2.2.2-2.9-.6-2.6a44 44 0 0 0-3 12.5c-.4 3-1.2 4.5-2.1 4.2zm-12.7-2.5c-.2-.2-.3-.7-.3-1.1a43 43 0 0 1 1.7-9c1.1-2.6 3.5-6.3 6.3-9.6 2.5-3 3.3-3.5 4.3-3.2.8.3.3 1.3-1.6 3.2-2.1 2-2.2 2.3-.7 2.7.9.2 3.5 2.3 3.7 3 .1.2 0 1 0 1.6l-.3 1.1-1.1.5c-1.4.7-2 .6-5-.1l-2.5-.7-.5.7a15 15 0 0 0-2.1 7.5c0 1.5-.3 3-.4 3.2-.3.6-1 .7-1.5.2zm11.2-12.3c1.1-.3.6-1-1.9-2.5-2-1.1-2.5-1-3.4.5l-.7 1.4h.9c.7 0 1.9.2 4.4.7l.7-.1zm20.7 10.3c0-.2.3-.7.7-1 .6-.6 1.2-3 .8-3.5l-.2-3.2c0-2.8-.5-6.4-1-8.3l-1-1.6-.8-.7-.3 1.5a20 20 0 0 0-.2 3.9c0 3.3 0 6.8-.3 7.2-.2.3-.5.3-.8.2l-.6-.2.2-1.6.1-5.9c0-4.6.1-6 .7-6.3.2 0 .6 0 .8.3l.5.5.7-.4c1-.6 1.5-.2 2.2 1.3a45.6 45.6 0 0 1 1.7 16.8c-.4 1.1-3.2 2-3.2 1zm-9.6-5c-1.6-1-1.2-2.7.5-1.8l1.3.4c.6 0 .7-.2 1-1.6.3-1.4.4-6.1.2-7.8l-.1-.8.8-.1h.9l.3.8c.3 1 0 7.5-.6 9.2-.6 2.4-2.3 3-4.3 1.7zm9.9-27.8c-.7-.3-1-1-1-2.2 0-1.7-.5-2-2.7-2-1.8 0-2.4-.2-2.4-.8 0-.5 2.2-2 3.1-2 1.5 0 5.4 3.2 5.4 4.3 0 1.5-1.4 3-2.4 2.7zm-40.8 83.4c.6-1.3.3-2.1-1.8-6.4-2.6-5.2-2.6-5.2-3-8.3l-.5-2.6c-.4-.3-1.5.3-2.8 1.5l-1.4 1.3.5 1.7a18 18 0 0 0 3.5 6l2 3.3c.8 1.8 2.4 4 3 4.1l.5-.6zm-21-31c2.7-1.5 5.6-3.1 7.3-3.8 1.5-.6 1.7-.8 2-1.6l.4-1.2c.2-.2 0-.4-.4-.5-.4 0-.7-.4-.8-.8-.2-.5 0-1 1.3-2.4a9 9 0 0 0 1.5-2c0-.3.3-.8.6-1.2 1.4-1.4 2.5-3.3 2.5-4.2 0-1.3 1.5-7.5 2-8.3l2.3-6.3.3-1-1.6-1.4a6.4 6.4 0 0 1-2.2-3.3c-.6-2-.5-3.2.2-4.3.2-.3.6-1.6.9-2.9l.6-2.3-.7-1.4c-.4-.7-.7-1.6-.7-2 0-1.2-.9-4.7-1.5-5.7-.7-1.1-.5-2 .6-2.5l.6-.3v-1.2l.1-1.6c.1-.2 1.1-1 2.2-1.7 1.5-1 2.3-1.4 3.3-1.5 1.4-.1 2.4.2 2.3 1 0 .7-2.2 2.4-3.4 2.6-.6 0-1.1.3-1.2.4-.2.3-.4 6-.4 9.7 0 1.6.6 2.5 2 2.8a8 8 0 0 0 4.6-1.3c.7-.6 1.1-.7 2-.5 1 .1 1.4 0 1.8-.3.3-.3.5-.7.5-.9 0-.4 2-2 4-3.2.9-.5 1.5-1 1.5-1.3l-.6-1.2c-.4-.4-.7-1-.7-1.2l-.3-1.2c-.2-.5-.5-.7-1.2-.7-1.3 0-2.2-1.2-2.2-3.3 0-.3-.6-1.4-1.3-2.5-1-1.4-1.5-2-2.3-2.4-1.4-.6-4.2-1.5-5.5-1.7-1.4-.2-2.3-.8-2.3-1.5 0-.6.4-.8 1.4-.8l.8-.2c0-.4-2-1.9-2.9-2.2-1-.3-1.3-1-.8-1.7.4-.5 1.6-.5 2.2 0 1.4 1 2-.1.7-1.3a80.2 80.2 0 0 0-5.1-4.3c-.8-.6-1.9-1.6-2.4-2.2l-1-1.1-2.5.2c-2.9.2-5.6.7-8.7 1.6-3.5 1-4.8 1.7-8.4 5-1.8 1.5-2.3 2.5-1.7 3.4l.4.7-.4.4-.7.4-1.2.9c-.6.5-2 1.6-3.4 2.5a16 16 0 0 0-5 4.5 103.3 103.3 0 0 1-4.1 5c0 .7 1 .2 2-.8 1.2-1.3 2-1.4 2-.3 0 .3-.8 1.4-1.7 2.6a66.7 66.7 0 0 0-6.4 9.5 68 68 0 0 0-4.8 8.5c-2.4 4.7-2.6 6.8-1.7 13.4.6 4 1.1 6.3 1.8 7.4l.5.7.9-.7c.5-.5 1-.8 1.5-.8 1.5 0 3 2.2 3 4.2 0 1.4 1 3.6 1.8 4.4.3.3.5.7.5 1 0 .5.6.9 2 1.1 1.1.2 5-.6 5-1l.5-1.6c.3-.7.4-1.4.4-1.6l-.3-2.3-.1-2 .8-1.2c.8-1.3 1-1.8.3-2.3-.5-.5-.5-1.6 0-2.8.6-1 1.1-1.3 2.1-1 1 .4 1 1.2.2 4.7-1 4.6-1.4 9.1-.8 10.6.3.8 1.1.9 1.5 0 .7-1.5 1.8-1.1 2.2 1 0 .6.9 2.5 1.7 4.2l1.6 3-.5.6c-.3.3-.6.5-1 .4-1-.3-.3.6 1.4 1.6 3.7 2 3.4 2 5.3 1.8 1.3 0 2-.3 3-1zm-7.5-7a9.9 9.9 0 0 1-1-3.7c0-.3.1-.7.3-1l.5-.3.4.4c.3.2.6 1 .7 1.5l.3 2c.1.6 0 .9-.4 1-.2.2-.6.3-.8.1zm-.4-8.7c-.2 0-.6-1-1-2a13 13 0 0 1-.6-5.3c0-4.4.6-6 1.7-4.8.2.3.2.9 0 2.4-.4 2.3 0 5.4.8 7.5.5 1 .5 1.3.3 1.8-.3.7-.7.8-1.2.4zm-1.1-18.5c-1.5-1-1.6-2.7-.2-2.7.6 0 .8-.1 1.1-.9.4-1 1.5-1.6 2.5-1.4.8.2 1.2 1.4 1.2 3.1 0 1.6-.4 2-2.5 2.2-1 .2-1.5.1-2.1-.3zm-9.4 0c-1.7-.5-3.1-1.7-3.1-2.6 0-.6 1-1.4 1.6-1.4.4 0 .8.3 1.2 1 .7 1 1.6 1 2.1 0 .7-1.4 2.2-2.2 3-1.5.4.5.3 3-.1 3.4-.6.5-4 1.2-4.7 1zm16.1-47.3c-.6-.8.1-1.3 2-1.5a53 53 0 0 1 8.2 0c.3 0 .4.4.4.8 0 .8-.1.8-5.7 1-3.8 0-4.6 0-4.9-.3zm-22.5 73h-.5c-.2.1-.2.2.2.2.2 0 .4 0 .3-.2zm-3-1.7-.3-1.4a2 2 0 0 0-.7-1c-.4-.3-.6-.2-1 .3l-.5.7.6.3c.4.2.9.6 1.1 1 .6.8 1.1.9.8 0zm11.2-.3c0-.8-.6-.8-1 0l-.5.6h.8c.7 0 .8 0 .7-.6zM134 171c.4-.2.5-.6.5-1.2v-.8l-.3.5-.8 1.1c-.6.7-.3.8.6.4zm18-3s-.2-.2-.5-.2-.6.1-.6.3l.6.2c.3 0 .5 0 .5-.2zm36.1-6.3 1.2-.3h1l.2-1c.2-1-.4-3-1-3l-1.7 1.5-1.5 1.4.3.9c.4.8 1 1 1.5.5zm-40.6-3.2c0-1-1.4-1.8-2-1.3-.4.2-.2.4.6 1 1.1.7 1.4.8 1.4.3zM127.8 146l1.1-2.2c.3-.4 1.2-3 2.1-5.7 1-2.8 2.1-5.9 2.6-6.9l1-1.8-1.5-2.8c-.8-1.5-1.5-3-1.5-3.3 0-.7-2-2.7-2.8-2.9-.4 0-1.1-.3-1.6-.5l-1-.3-.4.6c-.2.3-.5 1-.6 1.7-.3 2.3-1.7 4.2-3.1 4.2-1 0-1-.4-.3-1.5.5-.6.6-1.2.5-2.7v-2l1.3-1.2c1.2-1 1.4-1.4 1.7-2.8.2-.8.2-2 .1-2.8l-.3-3.1-.1-2h-.6c-1.3 0-4.3 3-5 4.9-.7 1.9-2.6 3-3.7 2.4-1-.7-1.8-.4-3.4 1.2-1.6 1.7-2 1.9-2.6 1.3-.5-.5-.3-1.4.7-2.7l1-1.2-.4-1.5a5 5 0 0 0-.6-1.6c-.3-.2-.2-1.5.2-2.6.4-1 .5-2 .1-2-.3 0-9.2 8.7-9.8 9.7-.3.5-.5 1.6-.7 3.1-.2 2.8-.6 3.5-2.6 4.9-.9.6-2 1.6-2.7 2.3a14 14 0 0 1-2.1 1.8c-.5.2-.8.6-.7.7.2.4 1.7.3 3 0 2.5-.9 11-1.8 12.3-1.5a19 19 0 0 1 3.3 2.4l2.9 2.3c.4 0 4.6 4.5 5.1 5.3.4.9.8 2.5 1.2 4.7.2 1 1 1.6 2.1 1.6 1.3 0 1.7.3 2.2 1.4.5.8 2.2 2.6 2.7 2.6l.9-1.5zm-1.5-13.6c-1.6-1.2 0-4 2.1-4l1 .2-.1 1.6c-.2 2.3-.4 2.7-1.5 2.7-.5 0-1.1-.2-1.5-.5zM116 119.3c-.2-.6.2-1.3.8-1.3.5 0 1 .7.8 1.3-.1.3-.4.5-.8.5s-.7-.2-.8-.5zM96.8 285c-.7-.3-.3-.9.8-1.4 1.2-.7 2.3-1.4 3.3-2.3l3.6-2.3 5.2-3.2c1.2-.8 2.6-1.5 3.1-1.6a83.8 83.8 0 0 1 12.8-6.5c2.8-1.2 5.1-1.9 5.3-1.7.3.3-.2 1-.7 1l-1.2.4-.9.6a20.7 20.7 0 0 0-4.1 1.9l-1.4.6a726 726 0 0 1-8.2 4c-.3 0-.6.3-.7.5 0 .2-.7.7-1.4 1l-3 2a80.6 80.6 0 0 1-7.8 5.2l-1.6 1c-1 .7-2.5 1.1-3.1.8zm-17.7-.8c-.3-.6.7-1.5 2.7-2.3l3.1-1.4c4.5-2.4 6.4-3.4 6.7-3.7.2-.2 1-.5 1.9-.8.8-.2 1.7-.6 1.9-.8.6-.4 2-1.1 2.4-1.1.6 0 0 1.1-.6 1.5A36.7 36.7 0 0 0 94 277a51.3 51.3 0 0 0-4.8 2.5 50 50 0 0 0-5.2 3l-2 1c-1.9 1.1-2.8 1.3-3 .6zm8 .2c-.3-.4 0-1.2.5-1.5a76.6 76.6 0 0 1 6-3.3c.3 0 1.7-.8 3.7-2.1a65.2 65.2 0 0 0 6.3-3c3.7-2 5-2.4 5.3-2.3.8.4.3 1-1.7 1.9a57.4 57.4 0 0 0-10.5 5.5 42.3 42.3 0 0 0-6.3 3.9c-1.7 1-3 1.4-3.4.9zm26.4-2.2c-.2-.4 0-.8 1.1-1.8.7-.6 1.9-1.6 2.6-2l2-1.3 2.2-1.2 2-1.2c.5-.5 3.7-2.4 5.5-3.2l3.2-1.7c1-.6 2-1 2.3-1 .2 0 1-.3 1.6-.7.7-.4 1.4-.6 1.7-.5.3 0 .6 0 .8-.4.5-1 2-.9 1.8.1 0 .4-.3.6-1.3.6-.7 0-1.2.3-1.4.5-.1.2-1.6 1-3.3 1.9a79 79 0 0 0-16.1 9.7l-2.4 1.6c-1.6 1.3-2 1.5-2.3.6zm-3.3-.3c-.5-.6-.2-1 1.5-2.5 3.4-2.7 4.1-3.2 4.6-3.2.2 0 .5-.2.6-.4 0-.2.9-.8 1.8-1.3a31.5 31.5 0 0 0 4.8-3.3c.8-.5 1.8-.5 1.8 0s-1.6 1.8-2 1.8c-.2 0-.7.3-1 .6-1 1.1-4.2 3.4-4.6 3.4-.3 0-1 .5-1.5 1-.6.7-1.5 1.4-2 1.6a7 7 0 0 0-1.6 1.2c-.4.4-1 .9-1.4 1-.6.4-.7.4-1 0zm8.7-.5c0-.8.9-1.4 7-4.5a80 80 0 0 0 4.8-2.7c1.3-.9 3.5-1.9 4.6-2.1l1-.2-.5.6c-.3.5-3 2.3-4.2 2.8-2 .8-9.8 5.3-10.6 6.1-.4.5-2 .4-2 0zm8.6-1.8c-.1-.2 1.2-2 1.9-2.4.4-.3.8.5.7 1.2-.2 1-2.1 2-2.6 1.2zm43-3.1c-.5-.2-.8-.6-.6-1 .2-.4 2.5-1.7 3-1.7l1.5-.5c1.3-.8 3.3-1.5 5.1-1.9.8-.2 2-.6 2.6-1l1-.6.5.4c.4.3.5.5.3.9-.4.5-2.7 1.9-3.3 1.9l-4.6 1.7c-5.1 2-5 2-5.5 1.8zM31 274.3c.2-.5 5-1.8 6.5-1.8 1 0 .4.3-2 1.1-2.5.8-4.7 1.1-4.5.7zm79.5-2.5c-.1-.2 0-.5.3-.6.4-.2.5-.2.7 0 0 .3-.1.6-.4.7-.4.2-.5.2-.6 0zm2-1c-.1-.6.2-.8 2.2-1.8l2-1 .3.4c.6.6.3 1-1 1.6-1.7.8-3.3 1.2-3.4.8zm-19.7-.2c-.7-.4-.6-1.3.1-1.5a10 10 0 0 1 3.8-1l.4.2-.5.5c-.8 1-3.3 2-3.8 1.8zm33.4 0c-.2-.1-.2-.2 0-.5.4-.2.5-.2.6.1.2.5-.1.7-.6.4zm-99-.3c0-.5.8-.7 2-.7s1.2.4 0 .7c-1.4.4-2 .4-2 0zm157.5 0c-.1-.6-.1-.6.7-.9.5-.1.6 0 .6.5 0 .6-.2.7-.6.7-.3 0-.6-.2-.7-.4zm-150.4-1.8c-.4-.5 1-1.2 3.2-1.5l1.5-.3c.3-.2 1-.3 1.6-.4 1.5-.2 2.2-.5 2.2-.8 0-.2-.1-.4-.4-.5-.4-.2-.5-.9-.1-1.1l3-.3c1.5 0 3-.2 3.5-.4a5 5 0 0 1 2-.1c.8 0 1.7 0 3.1-.5 1.3-.4 3.2-.8 5.2-1a20.2 20.2 0 0 0 4.6-.8c.9 0 .6 1-.2 1-.8.1-3.6 1-4.4 1.5a4 4 0 0 1-1.7.2c-.8 0-1.3.1-1.9.6-.4.4-1.3.7-1.9.8l-2.7.7c-1 .3-2.2.6-2.8.6-1.6.2-3.1.4-4 .7l-2.2.4c-2.6.3-2.8.4-4.5 1-1.6.5-3 .6-3.1.2zm10.2-3.3c-.2-.1-.5-.1-.8 0h.8zm85.3 3.4c-.3-.3.4-1.2 1-1.2.8 0 1 .4.5 1-.4.4-1.2.5-1.5.2zm57.9-.7c-.2-.6 0-1 .6-1 .3 0 1-.2 1.5-.5l2.2-.6c1.1-.2 2.7-.9 3-1.3l.6-.3-3.5-.1c-2.3 0-4.2-.2-4.4-.3v-.7c0-.3 1-.4 7-.4 4.2 0 7 .1 7 .3.3.5-.4 1-1.5 1-.9 0-1.3.2-1.8.8-.4.4-1.1.8-1.5 1-1.7.6-2.7.9-3.2.9-.4 0-1.3.3-2 .6-1.8.9-3.8 1.2-4 .6zm-55.2-.5c-.6-.3 0-1 1.1-1.4l1.8-.9c.4-.3 1-.6 1.4-.6.4 0 .8-.1 1-.3.4-.5 1.5-.7 1.9-.3.3.4 0 .8-1 1l-1.3.6-1.9.7a5 5 0 0 0-1.5.7c-.3.5-1.1.8-1.5.5zm-99.7-2.2c0-.2.3-.5.7-.7.5-.3.7-.3.9 0 .2.3.2.4.2 0l.6-.2c.4 0 .6.3.6.6 0 .5-.2.6-1.5.6-1.2.1-1.5 0-1.5-.3zm5 .2c-1-.1-1.3-.6-.2-.6l.9-.2c.4-.4 2.2-.5 2.5-.1.3.3.3.4 0 .6l-.9.2-.8.1h-1.4zm232.3-.2c0-.5 4.2-2.5 5.3-2.5l2-.5a59.4 59.4 0 0 1 8-2.2c0 .5-2 1.9-2.7 1.9a44.7 44.7 0 0 0-8.2 2.6l-1.7.6c-1.3.6-2.7.7-2.7 0zm-235.5-1.5.4-.2.4.2c0 .2-.2.3-.4.3s-.4-.1-.4-.3zm226 0c0-.5.7-1.1 1-.9.2.1.3.4.3.7 0 .4-.2.5-.7.5-.3 0-.6-.1-.6-.4zm73.8 0c-.6-.9.3-1.5 2.5-1.7 1 0 2.6-.3 3.5-.5 2.6-.6 4.6-.6 5 0 .5.7-.4 1.3-2.2 1.3-.8 0-2 0-2.5.2a33.9 33.9 0 0 1-5.3.9c-.4.1-.8 0-1-.3zm-295-.4-.6-.2.5-.5c.4-.3.9-.5 1.7-.4 1.3.1 1.6.6.5.7a2 2 0 0 0-1 .3c-.2.3-.5.3-1.2 0zm248.8-.6c0-.2.2-.6.6-.9.8-.6 3.5-2 4-2l.6-.4c.2-.2.8-.6 1.5-.8l1.1-.5.5.5.6.4 1.6-.4c3.3-.8 6.8-1.4 9.5-1.6l2.9-.2.1.6c.2.3.1.7 0 .8l-4.2.5a40.7 40.7 0 0 0-9 1.4 99.3 99.3 0 0 0-7.2 2.2c-2.3.7-2.3.7-2.6.4zm-87.6-2.2c0-.1 0-.5.4-.7.5-.6 4.9-1.3 7.7-1.4 1 0 2.3 0 2.9-.2 1.2-.3 2 0 2.3.8.3.6-.4 1-2.5 1-3.7 0-8 .3-8.6.6-1 .3-2 .3-2.2 0zm19.2 0-.3-.5.6-.5c.5-.4 1-.5 3.8-.5l3.4.1v.7c-.2.3-.8.5-2 .6l-3.4.3c-1.4.1-1.8 0-2-.3zm14-.2a.5.5 0 0 1-.1-.6c0-.3.7-.4 2-.5l3.6-.6 2.6-.7c1.4-.3 4.3-1.2 5.4-1.8.6-.2 1-.3 1.2 0 .8.7-.9 1.7-5.1 2.8a26.9 26.9 0 0 1-9.5 1.4zm88.6-.3c-1-.6-.2-1.4 2-1.7 2.5-.3 2.5-.3 2.5.5.1.5 0 .8-.5 1-1 .4-3.5.5-4 .2zm-105-2c-.4-.6.1-1.1 1.1-1.1.6 0 1.4-.2 1.9-.4l.9-.4H220c-.7 0-1.2 0-1.2.2 0 .3-.8.4-2 .1-.6 0-.9-.3-.8-.6 0-.5.8-.6 9.9-1.6 3.7-.4 5.2-.7 7.2-1.5 1.1-.5 2.7-1 3.5-1 .8-.2 2-.5 2.6-.8 1.2-.4 2.8-.5 4-.2.5.2.5.3.2.5-.6.5-2.2 1.2-2.9 1.2-.3 0-1.2.4-2 1l-1.5 1-2.3.1c-1.2 0-2.8.4-3.4.6-1.5.5-4.6 1.1-6.6 1.4a8 8 0 0 0-2 .4c-.5.3-3 1-4.6 1.2l-1-.1zm-187.4-.8c.6-.7 5.7-1.2 5.8-.6 0 .1 0 .2 0 0-.1-.2-.3-.1-.5.1-.2.3-1 .5-3 .6-1.8.1-2.5 0-2.3-.1zm7.2-1h.5l-.3.1c-.3 0-.4 0-.2-.1zm250.7-4.6c-1.2-.1-1.1-.7.1-1a102.4 102.4 0 0 1 8.6-.8c3-.5 5-.5 5.2-.2.2.7-1.2 1-4.4 1.1-4.4.1-5 .2-6.3.5-1.5.5-2.2.6-3.2.4zm-57.5-2.4v-.5l2.3-.3c2-.3 10.8-.8 14.2-.9 1.4 0 2 .4 1.5 1-.2.3-.8.4-2.2.4-1.6 0-6.6.2-14 .7l-1.8.2zm15.6-3c-.5-.6 0-1.3 1-1.6 4.2-1.2 11-1.9 12.3-1.2.6.3.7 1.4.2 1.7-.2.2-2.1.3-4.2.4a50 50 0 0 0-8.2 1c-.5 0-.8 0-1-.4zm18.7-2V243l.2-.9-1.8.2-1.8.2.1-.4c0-.3.5-.6.9-.8.7-.2 7-.5 14.6-.8h1.5v.5c0 .5-.2.6-1.4.7-1.4.2-4.8 1-9.6 2.1-2.4.6-2.5.6-2.7.3zm89.3-.8a160.8 160.8 0 0 1-7.6-1 166.8 166.8 0 0 1-9-1.2 316.3 316.3 0 0 1-14.4-1.4c-.6-.2-1.8.4-1.8.8 0 .5-1.4.7-3.5.5l-17.7-.8a104.3 104.3 0 0 0-17.2 2c-1.1 0-1.3 0-1.3-.4 0-.2.2-.5.4-.6.3 0 1-.4 1.7-.7a21 21 0 0 1 8.5-1.2c5.9-.1 7-.2 7.6-.4l.6-.2-.6-.3c-.4-.2-1.7-.5-2.9-.7-1.1-.1-2.3-.3-2.5-.5H293l-2.6.6-1.8.4-.8-.5c-.5-.3-1.1-.5-1.4-.5a36.5 36.5 0 0 0-13.8-1.7l-6.4-.3-.7-.2.6-.3c.3-.1 1.6-.3 3-.3s3.5-.1 4.8-.3c3-.2 8.7.5 12.1 1.6 1.4.4 2.4.5 5 .5 1.8 0 3.8.1 4.7.3 1.5.4 3 .5 7 .8.8 0 2.2.4 3 .7 1.1.3 2.9.6 5.5.8 2.2.1 5 .4 6.2.6l2.3.3-.2-.5c0-.3 0-.8.2-1l.4-.6 3 .5c1.7.3 3.8.5 4.8.5 1.1 0 2.1 0 2.6.3.7.4 3.7.7 8.5.8a21 21 0 0 1 5.5.7 124 124 0 0 1 12 2c.2.3.2.5-.2.8l-.8.3-1.7-.2zm15.6-.3c-.7-.1-1.5-.3-1.8-.5a8 8 0 0 0-2.5-.3c-1 0-2.7-.2-3.6-.4a110.2 110.2 0 0 0-6-1.4c-.4-.2-1.2-.3-1.8-.3-1.2 0-1.8-.4-1.3-.9.3-.2 2.1 0 6.5.5.8.2 1 .1 1-.2 0-.3.2-.5.9-.5.8 0 1.4.5.6.6-1 0 2.6.8 4 .8.9 0 2.4 0 3.4.2l3.6.4 1.8.2.2-.7.3-.7h2.9c1.5.2 3.9.1 5.2 0l11.6-.4c5.5 0 10.6-.3 12.7-.5 5.7-.6 7.3-.7 7.3-.3 0 .9-.8 1.1-3.4 1.3l-4.6.6c-4 .8-9 1.2-17.8 1.2a149.9 149.9 0 0 0-11 .4c-1 0-2.4.3-3.2.5a11 11 0 0 1-5 .4zm-34.6-5a.6.6 0 0 1-.3-.4c0-.2.1-.5.3-.6.2-.1 2.8-.3 5.9-.4a102.9 102.9 0 0 0 24-3.2c.5-.2 2.3-.5 4-.7 2.3-.2 3.6-.5 4.5-1l2.5-1c2.6-.8 4.4-1.6 5.6-2.3 3.2-2 3.7-2 3.7-.8 0 .5 0 .6.4.3l1.7-1.2c2.4-1.4 3-1.8 3.3-2.4.8-1.5 1.8-1.8 2.3-.8l.3.5-1.3 1.2a17.1 17.1 0 0 1-6.2 4l-2.7 1.2c-.4.3-1 .4-2 .4-.8 0-1.9.2-3.5.8a63.2 63.2 0 0 1-13 3.7c-1 .2-3.6.6-5.9.8-2.3.3-5 .7-6 1-1 .2-3 .4-4.4.4a37 37 0 0 0-4.2.2 62 62 0 0 1-9 .4zm-304-.3-.6-.5c0-.4 1.1-.9 1.7-.7.4 0 1.5 0 2.6-.2 1-.3 3-.4 4.2-.4 2.7 0 9.4-.5 13-.9 2.6-.3 3.9 0 3.9.7s-1.5 1-8 1.2c-3.7.2-8 .4-9.5.6-5.1.4-6.7.5-7.3.2zm380.7-.7c-.2-.7.7-1.2 4.6-3 4-1.7 5.4-2 5.6-1 .1.6-1 1.2-4 2.2-1.2.4-2.9 1-3.7 1.5-1.7.9-2.2 1-2.5.3zm-390.4-.6c-.3-.5 0-.8.9-.8 1 0 1.2.4.4.8-.8.3-1.1.3-1.3 0zm3.4-.8c-.1-.2 1.5-.6 1.7-.4.2.2-.5.7-1 .7-.3 0-.6-.1-.7-.3zm3-.1c-.6-.4-.4-1 .2-1l2.2-.5c1-.3 3-.6 4.4-.8l3.6-.5c.5-.2 2-.3 3.2-.4 1.7-.1 2.3 0 2.6.2.2.3.2.4-.2.6-.5.2-2.4.6-4.9.9-1 .1-2 .4-2.3.5-.6.4-3.9.9-6 1-.8 0-1.7 0-2 .2-.2 0-.6 0-.8-.2zm395.8-1.1c-.5-.5-.1-1 1.1-1.8a5 5 0 0 0 1.8-1.7 6 6 0 0 1 1.8-1.8c1.8-1.1 3-3.3 2.7-5-.3-2-3-3.8-6.5-4.4-1.5-.2-2.2-.6-2.2-1.2 0-.5 1.8-.5 4.5.2 2.6.6 3.2.9 4.9 2 1.6 1 2.1 2 2 4.3-.1 1.5-.3 2-1 3a7.5 7.5 0 0 1-2.4 2.6l-1.6 1.3c-.4.3-1.1.8-1.7 1l-1.9 1.1c-.8.6-1.2.7-1.5.4zm-373.5-5c-1-.2-1-.7 0-1.2.5-.3 6.5-.8 9.5-.8 1.1 0 1.8.6 1.4 1.3-.2.3-.7.4-2.3.5-1.1 0-2.6 0-3.3.2-1.7.3-4.3.3-5.3 0zm13.2-.7c-.5-.3 0-1.1.8-1.2.4 0 1.3-.4 2.2-.7l1.5-.5 2.7.1c3.3.3 4.7.6 5.2 1.2.2.4.2.5 0 .8-.4.3-.8.4-2.7.1a16 16 0 0 0-6.5 0c-1.7.5-2.6.6-3.2.2zM393 218.6l-3.4-.5c-3.2-.3-4-.6-3.6-1.2.3-.4 6.3-.2 7.4.2.5.3.7.5.6 1 0 .5-.7.9-1 .5zm-88-.8c0-.1-1.4-.3-3-.4a65 65 0 0 1-9.8-1.2c-.5-.2-1.7-.3-2.7-.3-3 0-4-.5-2.1-1.1a29 29 0 0 1 8.7.4 195.3 195.3 0 0 0 25.8 1.3 675 675 0 0 0 22-.1 3625 3625 0 0 0 11.4.2l3.7.2v1h-9.6l-14.6-.1a519.1 519.1 0 0 0-29.7 0zm58.5 0c-.3-.6.3-1 2.3-1.2 1.1 0 3-.3 4.2-.5 1.6-.3 2.2-.3 2.5 0 .2.2.2.4 0 .6-.8.7-8.6 1.6-9 1zm45.8-1.3c-.3-.6.2-1 1.6-1l2.8-.5c2.2-.5 4.1-.7 9.8-1l6.4-.4c3-.3 10 .7 11.6 1.5 1 .5.3 2-.8 1.7-3.5-1-4.7-1.2-6.4-1h-8c-4.5 0-6.8.2-8.7.5l-5.3.5-2.8.2zm-128-1.1a8760 8760 0 0 1-7.4-1.1 85.3 85.3 0 0 1-10.7-1.9 63.2 63.2 0 0 1-11.4-2.2c-.4-.2-1.7-.5-2.8-.6a19 19 0 0 1-3-.6l-3.4-.8-4-1.2-3-1c-1.5-.2-2.6-.8-2.6-1.3 0-.3 1.3-.2 3.3.4a185 185 0 0 0 11.3 2.8c1.4.5 4 1 5.7 1.3l3 .6 6.4 1c.8 0 1.2 0 1.2-.2 0-.5.8-.3 1 .2 0 .5 2 1.1 3.1 1.1l3 .4a72.9 72.9 0 0 0 8.3 1.2 57.5 57.5 0 0 0 6.5 1c.4.1.5 1 0 1.1-1.3.2-3.4 0-4.5-.2zm132.4-5.4-3-.8a56.5 56.5 0 0 1-7.4-2.1c-.4-.2-1-.5-1.2-.8l-1-.7c-.9-.5-1-2.2-.2-2.2.5 0 2.3 1.3 2.7 1.8.2.2 4.6 1.7 7.6 2.5 3.8 1 4 1.1 4.2 1.6.3 1-.4 1.2-1.7.7zm-31.5 0c-.1-.2-.7-.3-1.4-.5-3.4-.7-4.8-1.3-4.8-1.7 0-.7 1.3-.7 4.2 0 2.8.6 3.9 1 3.8 1.6 0 .5-1.5.8-1.8.5zM308 207a18 18 0 0 0-3.6-.2c-1.7 0-3.8-.2-4.8-.3l-5.6-.4a44.8 44.8 0 0 1-11.2-1c-.8.2-9-.5-9.4-.7-.2-.1-.2-.4-.1-.7.1-.4.4-.4 1.5-.3a284.4 284.4 0 0 0 15.8 1.3c1.5.5 25 1 28.3.5 2.2-.3 3-.2 3 .4 0 .7-.9 1-3.5 1-4 .2-7.4.4-8.7.6-.7 0-1.4 0-1.7-.2zm60.8 0-3-.5-7.3-1.5c-.7-.1-2.2-1.5-2.5-2.3-.8-2 0-2.5 1.8-1 .7.7 1.8 1.5 2.5 1.7 1.8.7 8.4 2.3 9.4 2.3 1.2 0 1.7.3 1.6 1-.1.5-.7.6-2.5.3zm-41.4-1.7c0-.7.8-1 4.7-1.4 1.9-.3 6.1-1 6.8-1.4.8-.3 2-.5 3.7-.8 2.3-.3 4.4-.7 5.7-1.2l2.4-.6 2-.5 2.4-.6a49.2 49.2 0 0 1 9.3-2.3c.5 0 .6 0 .6.4 0 .5.1.6 1.1.6.6 0 1.6-.2 2.2-.4 3.1-1.2 6.6-2 9.3-2.1l4.2-.4a213.2 213.2 0 0 1 20.9-.8c.8.4 1 1 .5 1.3-.5.1-3.5.2-7.8 0-2.3 0-6.2.3-9.1.8-.9.2-3.4.4-5.7.4-4.3 0-5.2.2-6.3 1.3-.4.4-1 .5-2.6.6-2.5.1-3.3.5-3.3 1.3 0 .7-.4.8-1 .2-.5-.5-2.7-.4-5.6.5-3.3.9-3.4.9-3.7 0-.2-.5-.4-.6-.7-.4l-2 .5-1.7.6-1.6.4c-1.6.2-3.2.7-3.8 1.2-.3.2-1.3.4-2.7.4-2.3.1-2.8.2-4.6.7l-2 .2a4 4 0 0 0-1.5.3 54.5 54.5 0 0 0-6.9 1.2c-2.4.5-3.2.5-3.2 0zm71.7-2.5c-.7-.4-.6-.9 0-1.7.8-.8 5.8-2.5 7.2-2.5 1.1 0 6-.8 7.8-1.2a31 31 0 0 1 11.1.5c.3.7-1.2 1-3.4.6-1.5-.2-2.5-.2-3.6 0-.8.2-2.2.3-3.1.3-1.6 0-3.6.4-4.7.8l-3.2 1.2c-2.1.8-2.9 1-3.8.8-1-.1-1.4 0-2.3.7-1.1.8-1.3.9-2 .5zm28.5-4c-2-.2-2.7-.8-1.4-1.3.8-.3 1-.8.2-.8-.3 0-.6-.1-.7-.3 0-.1-.8-.2-1.7-.2l-1.5.1V195.1h1.4l2.9.4c.8.2 2 .3 2.7.3h1.1v.5c0 .5-.1.5-1 .5-1.6 0-1.9 0-1.7.4 0 .2.7.4 1.7.5 1.8.2 2.2.4 2 1-.2.5-1.5.6-4 .2zm5.9-1.3a1 1 0 0 1-.5-.8v-.5h1.5c1.7 0 2.4.4 2.1 1.2-.2.4-2.4.5-3.1 0zm9.3-1a8 8 0 0 0-1.9-.6l-2.2-.6c-2-.9-2.9-1.2-3.4-1.2-.8 0-2.3-.8-2.1-1.2.2-.8 5.3 0 7.6 1 .4.3 1 .4 1.4.4 1.1 0 2 .7 1.9 1.6-.1.7-.7 1-1.3.5zm-32.5-1c-.4-.2-.5-1.2-.1-1.2 1-.2 1.6 0 1.8.3v.8c-.2.3-1.1.3-1.7 0zm-5.9-.6c-.3-.2-.3-.4 0-1 .4-1 1-1.3 1.4-.8 1 1-.3 2.5-1.4 1.8zm25.9-2.6a4 4 0 0 0-1.4-.2s-.9 0-1.9-.3a43.3 43.3 0 0 0-7.4-1.2 88.4 88.4 0 0 0-6.4-.8c-3.6-.4-4.7-.5-10.4-.6a112.8 112.8 0 0 1-18.9-2l-3.4-.5-5.7-.7-5.8-.4a11.6 11.6 0 0 1-4.1-.5l-1.9-.5-2.5-.6c-.7 0-1-.3-1-.7 0-.4.3-.5 1.4-.6.8 0 2.3.1 3.4.4a92.4 92.4 0 0 0 8.7 1.4c.5.2 4 .6 6.1.5h1.8l1.2-.8 1.8-1.3c.4-.3.7-.8.8-1.2l.7-1.4c.3-.5.5-1.2.5-1.8v-1.2l-.9.1c-2 .1-2.3-.4-.9-1.7.5-.5 1-1 1-1.2.2-.6 1-.1 1 .5 0 .3.3.8.6 1 1 .8 1.4 1.8 1.2 3.2-.3 1.6-1 2.6-3 4.5l-1.7 1.8c0 .3 6.5 1 12.9 1.4l5.4.5c1.1.2 3.4.3 5.1.4 1.8 0 3.5.3 4 .4.5.2 2.1.4 3.7.6a72.1 72.1 0 0 1 12 1.7 28.3 28.3 0 0 1 5.2 1c.5.1.7.4.7.7 0 .6-.2.6-2 .1zm10.9-.6c-.2-.2-.7-.3-1.1-.3-.4 0-1-.3-1.3-.7-.9-1-2.2-2-2.9-2-.9 0-1.8-.5-2.1-1.3-.4-.8-.5-1-2.5-1.2-1.6-.1-1.8-.3-1-.9.3-.3.8-.3 2.5 0l2.2.3.6.8c.3.4 1 1 1.6 1.3.6.3 1.3.9 1.5 1.3.4.8.5.9 3.3 1.6.6.1 1 .3 1 .7 0 .6-1.1.8-1.8.4zm-14-4.8a9 9 0 0 1 0-2.6v-2.2l-.6-.5-1.2-1c-.9-.6-.6-1.6.3-1.6.7 0 3 2.1 3.4 3a5 5 0 0 1-.2 2l-.5 2.3c0 .8-.8 1.2-1.1.6zm-27.8-2.2c-.7-.3-1-.5-1-1s0-.8.2-.8c1.4-.1 2.7.6 2.6 1.5-.1.6-.6.7-1.8.3zm11.4-1.6c-.6-.4-.8-1.3-.4-1.6.4-.2 2.7.4 2.8.8.2.5-.5 1.2-1.2 1.2l-1.2-.4zm-57 0-1.8-.4-2-.5h-1.2c-1.2.3-1.7 0-1.4-.8.2-.7 1.2-1 2.2-.7l1.2.3c5.1.7 5.2.7 5.2 1.3 0 .6-1.7 1.2-2.2.8zm60.5-.7c-.5-.5.3-1.3 1.1-1.3s1 .4.8 1c-.2.7-1.4.8-2 .3zm-23.5-.2c-.5-.3 0-1.3.8-1.5.5-.2.6-.3.5-.7 0-.3 0-.7.2-.9.2-.3.5-.2 1.5.8.8.8 1.1 1.3 1 1.8v.6h-4zm-51.5-1.6-2.7-.6c-.7-.3-2.2-.5-3.2-.6-1-.1-2.1-.3-2.5-.5-.4-.2-1.5-.4-2.5-.4s-2-.2-2.3-.3c-.3-.2-1-.3-1.6-.3-.6 0-1.3-.1-1.7-.3a58.5 58.5 0 0 1-8.6-2 27 27 0 0 1-8-2.7c-.6-.4-1.7-1-2.4-1-1.5-.3-1.6-.4-1.4-1 .2-.7 2.6-.3 3.7.5.5.3 1.5.8 2.4 1 .9.1 2.3.5 3.1.8 1.7.6 1.8.5 3-.7.4-.5.5-1.2.2-1.2l-.8.5c-.8.7-1.3.7-1.6.1-.2-.3 0-.6 1-1.5l1-1.2.9-1.6c1-1.6 1-2.7.3-4.5-.3-.9-.4-1.2 0-1.3.5-.4 1.3 0 1.6.7.1.4.3 1 .5 1.2.5 1 .2 2.6-.6 4.1l-.8 1.5.3 1.1c.3 1.6.3 2.4-.2 2.8l-.4.5c0 .3 1.8 1 3.5 1.3l2.4.6c2 .5 8.9 1.8 9.8 1.8h1v-.8c0-.4.2-.9.4-1 .4-.4.6-.3 1.1.1l1.3 1.4c.6 1 1.1 1 1.3.2.1-.4.4-.9.7-1.1.7-.7 1.4-.3 1.6 1 .2 1 .8 1.6 2 1.8 1 .1 1.4.8.9 1.4-.4.5-.8.5-2.7.2zm77.4 0c-.4-.7.2-1.3 1.8-1.8 1.3-.4 1.9-.4 2.7-.2 1.4.3 1.7.6 1.7 1.2s-.5.8-1.3.3l-.7-.4-1.8.6c-2 .6-2.2.6-2.4.3zm-43-.2c0-.5 1.3-3.9 1.6-4.1.1-.2.3-1 .3-1.7 0-2 .3-2.8 1.2-2.8h.7l-.1 1.5c-.1 1-.3 1.7-.7 2-.3.2-.5.8-.5 1.6a8 8 0 0 1-.6 2.4c-.4 1-.7 1.3-1.2 1.3-.4 0-.7-.1-.7-.2zm-23.4-1.2c-.8-.3-1-1-.6-2.9.4-2.5 2.7-5 3.3-3.5 0 .2-.2 1.1-.6 2a9.3 9.3 0 0 0-.9 4c0 .5-.6.7-1.2.4zm42.5-1c-.2-.1-.3-.5-.2-1v-.6l.6.3c.4.3.4.6.2 1-.1.4-.3.5-.6.3zm38.5-.8c-.7-1 .1-2.1 1.5-2.1.4 0 .8.2 1 .5.4.7.3 1-.3 1.6-.7.7-1.7.7-2.2 0zm-40-1.3-1.2-.6a1 1 0 0 1-.5-.7c0-.5-1.2-1.6-1.6-1.6-.2 0-.1-.2.1-.4.6-.7 1.4-.5 1.7.3.2.4.7 1 1.1 1.2.8.4 1.8 2 1.4 2.1-.1.1-.6 0-1-.3zm-66.4-1c-.6-.6-.5-3.5.1-4.8.7-1.4 2.4-3 3.2-3 .5 0 .6.2.5.9 0 .6-.3 1-1 1.5-1.1.7-1.4 1.2-1.4 3.6-.1 2-.6 2.6-1.4 1.8zm70.3-.5.5-2 .5-2c0-.8.8-1 1.3-.3 1 1.1.8 2.6-.4 4-.8.7-2 1-2 .3zm-10.1-3.2c-1-.5-1.4-.6-1.8-.4-.9.5-1.6.3-2.3-.4-1.2-1.4-.7-2 1.1-1.3l1.9.3c.4-.1 1.2 0 1.7.2a9 9 0 0 0 3.1.4c1.7 0 2.1.1 2.1.4 0 .5-.4.6-2.4.8l-1.8.4c-.3.2-.9 0-1.6-.4zm-9.9 0c-.7-.7-.4-2.2.5-1.9.3.1.4.5.4 1.1 0 1.1-.3 1.4-.9.8zm17.8-.8c0-.2.2-.4.4-.4.3 0 .4.2.4.4 0 .3-.1.4-.4.4a.4.4 0 0 1-.4-.4zm-52.5-.7c-.3-.4-.6-.8-.6-1 0-.4-1.4-1-2.8-1.1-1.3-.2-2-1-1.4-1.5.6-.5 3.3.1 4.5 1l1 .9.7-.3 1-.8c1.1-1 1.7-1.1 2.3-.5.7.7.3 1.3-1 1.3-.6 0-.9.1-1.4 1-.8 1.5-1.5 1.8-2.3 1zm70.2 0c-.3-.3-.7-.7-.8-1-.2-.6-1.4-.7-2.4-.2a4 4 0 0 1-1.4.3l-2.4.4c-1.5.4-2.6.3-2.3-.2 0-.1 1.3-.6 2.7-1l2.6-1h7c8.4-.1 10 0 10.2.7.1.4.4.5 1.1.5 1.1 0 1.6-.4 1.6-1.2v-.5l2.5.2c1.3 0 2.7.2 3 .4l1 .4c.2 0 .4.4.4.7 0 .6-.9 1-1.4.6-.3-.3-1.3-.5-4-.8l-1.2-.1v.7l-.1.8-1.5.2c-1.7.2-2.4 0-2.4-.6 0-.7-.4-.8-4.9-.8h-4l-.2.5c-.7 1.3-1.8 1.7-3 1zm-114.1-.2a2488.1 2488.1 0 0 0-3.1-1.5c-.4-.2-1.6-.4-2.6-.5a40.4 40.4 0 0 1-14-3.7 51.2 51.2 0 0 1-3.9-1.4c-.4 0-3.5-1.2-4.4-1.6a2 2 0 0 0-.8-.3l-1.4-.5-2.7-1c-2-.7-3.3-1.5-4.3-2.3-.6-.6-2.2-1.4-8.2-4.1a21.3 21.3 0 0 0-5.1-2.1 10 10 0 0 1-2.1-.8c-1-.5-2-.8-2.2-.8-.4 0-1-.3-1.5-.6s-1.8-.8-2.9-1l-2.7-1a233 233 0 0 1-20.2-9.7c-1.5-1-2-1.8-1.6-2.2.3-.2.7-.1 1.4.3a91.7 91.7 0 0 0 11.7 5.7c.5.5 3.2 2 4.6 2.6l.7.3 1-.7 1.6-1.5c.4-.5 1.2-1.1 1.6-1.4 1-.7 2.4-.8 2.7-.2.2.5-.6 1.6-1.3 1.9-.6.1-2.9 2.3-2.9 2.7 0 .4.5.7 2 1.2l3 1a62 62 0 0 0 6.8 2.8 159.6 159.6 0 0 0 7.2 3c1.6.7 2.7 1 2.7.5l-.3-1c-.3-1.1 0-2.3.5-2.1.6 0 1.2 2.6.8 3.5l-.2.7 3.3 1.5a69.4 69.4 0 0 1 6.7 3.4c.4.3 1.4.7 2.2 1l1.5.5.7-.5 1.3-.4c.5.1.6.3.7 1.2 0 1.3.1 1.3 2.2 1.6l1.3.1v-.4l-.5-2.5c-.4-2.2-.3-2.7.5-2.6.7.1 1.8 2 1.8 3.3 0 1 .6 1.8 1.7 2.2.5.2 1 .5 1 .8.4 1 1.1 1.1 2.5.2 2.1-1.3 3-1.8 3.5-1.8 1 0 1 .6-.4 1.9-.8.7-1.4 1.4-1.4 1.5 0 .4 3.5 1.5 6.1 1.8.9 0 1.6.3 1.7.4l.8.2c.3 0 .9.3 1.2.6l1.6.6c1.8.2 3 1 2 1.3-.6.2-.9.2-1.9-.1zm97.6-.6a50 50 0 0 0-15-1.2c-9 .6-10.2.3-10.2-2.4 0-.4-.3-1.2-.7-2l-.7-1.2.5-.2c.2 0 .7 0 1.1.2.5.3.9.4 1.4.2.6-.2 1-.1 1.7.4l1.8.9c.4 0 1 .6 1.5 1.1 1.4 1.8 1.6 2 1.9 1.7.8-.5 10.4-.1 13.4.5 1.6.3 4.1 1.4 4.7 2 .3.2.2.3-.3.3-.3 0-.8-.1-1.1-.3zm-19.7-2.9c-.1-.6-1.3-1.3-2.8-1.6l-.9-.2v.7c0 1.2.7 1.7 2.3 1.7h1.5zm64.8 1.8c-.3-.5-.1-1.2.4-1.2l.8.4.6.4-.6.4c-.6.5-.7.5-1.2 0zm-142.5-.2c-.8-.7-.1-2 1-2h.5v1c-.1 1-.2 1.2-.6 1.3-.3 0-.7-.1-1-.3zm35-.1c-1-.1-1.6-.7-1.3-1.4.2-.7.8-.7 1.6-.1l.6.4.8-.6c1.6-1.1 2.2-.3.8 1-.4.5-1 .8-1.1.8l-1.3-.1zm103.8-.8c0-.5.2-.6.7-.6.5 0 .7.1.7.6 0 .6-.2.7-.7.7-.5 0-.7-.1-.7-.7zm-77.7-2.4c-.5-.6-.8-1.1-.8-1.3 0-.5.7-.7 1.3-.4.5.3 1.3 0 2.1-.7.4-.3.5-.3 1 0l.4.4-1.2 1.3c-.6.8-1.3 1.4-1.6 1.5-.2 0-.7-.2-1.2-.8zm-70.1-.1c.2-.5.7-.6.7-.1 0 .2-.2.4-.4.4s-.4-.2-.3-.3zm64.8-2.2c-.4-.4.1-.7 1.3-.7.8 0 1 .2.9.7-.2.5-1.8.5-2.2 0zm-48.5 0c-.8-.8 1.2-2.7 3-3 2.6-.3 7.1 1.5 6.4 2.6-.3.5-1.1.2-2.2-.7-1.3-1-1.1-1-3.4-.7-1.4.2-1.9.5-2.6 1.1-.8.9-1 1-1.2.6zm115.5-.6c-.2-.7.9-1.5 1.4-1.1.2.2.3.6.3.9-.1.7-1.4.9-1.7.2zm-20-1-2-2c-1-1-1-1.4-.4-1.7.5-.2 2.4.8 2.6 1.4.3.5 1.5 1.6 1.9 1.6.2 0 .4-.2.6-.5.2-.3.5-.5.7-.5.2 0 .4-.1.4-.3 0-.1 1-.8 1.4-.8l1 .8c.4.5.7.7.7.5 0-.4.5-.6 3.3-2.1a6 6 0 0 0 3-3c.4-1.1 1.1-1.7 1.7-1.4.1.1.2.7 0 1.4 0 .6 0 1.9.2 2.7.3 1.3.3 1.7 0 2-.5.7-1.2.5-1.9-.4-.8-1-1.5-1.1-2.1-.3l-1.3 1c-.6.3-.8.6-.8 1.2 0 1.2-.8 1.3-2 .2-.5-.4-.9-.7-.9-.5 0 .2-.4.3-1 .3s-1.1.2-1.8.8c-1.3 1.1-2 1-3.3-.3zm-25.6.3c0-.5.2-.7.6-.8.3 0 .8-.6 1-1 .5-1 1.6-1.7 1.9-1.1.3.4-1 2.2-1.5 2.2-.2 0-.6.3-1 .7-.6.8-1 .8-1 0zm-57.5-.6c.3-1.5.6-2 1.1-2 .3 0 .7-.3 1-.6.5-.8 1-.9 1.3-.2.2.7 0 1.1-.6 1.1-.2 0-.5.3-.6.6-.5 1-1.4 1.8-2 1.8-.3 0-.4-.1-.2-.7zm68.2.1c-.6-.3-.5-1.7.1-3.3.3-.6.5-1.3.4-1.5a20 20 0 0 0-5.4 0c-4.4.1-5.2 0-5.5-.3-.5-.6.1-.7 4.3-.7l4.4-.2c.9-.2 2.4-3.4 2.8-5.6 0-.6.3-1.3.4-1.5.2-.2.3-2.5.4-5.3 0-2.7.2-5 .2-5.1.3-.5 2-1 3.1-1a3 3 0 0 1 2 .6l1 .7c.2 0 .5.2.8.5.3.4.3.5 0 1-.4.5-.6.4-2.3-.9-1.1-.7-1.4-.8-2-.6-.7.4-.9 1-1 5-.1 3.2-.1 3.6-.7 7.7l-.3 2.5-.9.8-.9.8 1 .5c1 .3 1.1.5 1.1 1.1 0 .4-.1 1.1-.4 1.5l-.3 1c0 .4 1.2.2 1.8-.3.8-.7 1.9-.7 2.3 0 .4.6 0 .8-1.1.8-.4 0-1.2.4-2 .8-1.6 1-2.7 1.3-3.3 1zm-37.9-.4c-.4-.5-1.3-.8-5-1.7l-2.9-.5-2.6-.5c-1-.3-6.3-.2-8.6.3-3 .5-3.2.2-2-2 .4-.9.5-1.5.5-3.1v-2.1l1 .3c.5.2.8.5.8.9 0 .3.2 1 .5 1.6.6 1.2.6 1.5 0 2-.2.4-.2.5 0 .5l3.8.1a44.8 44.8 0 0 1 8.2.9c1.2.1 1.5 0 1.5-.3 0-.2.3-.8.8-1.3.4-.5.8-1 .8-1.2 0-.6-1.7-1.6-2.5-1.6-1 0-1.9-.8-1.6-1.3.6-.8 3.5-.5 4.5.4l1.1.8c.5.3.6.5.4 1.3-.2 1.5-.8 2.7-1.3 2.9-.3 0-.8.3-1.2.5l-.7.3 1.2.5c2.4.9 2.7 1 2.7 1.2 0 .5 1.2.3 11.5-1.4l2.8-.2h1.4l-.5-.6c-.7-.8-1.6-1.1-4.3-1.8-2-.5-2.6-.6-3.1-.3-1.5.7-2.1.1-1.8-1.6.3-1.2 1.1-1.2 3.8 0 1.2.6 3 1.3 4 1.5 2.2.5 3.1 1 3.2 1.3 0 .6-.1 1-.4 1.2-.2.2-.1.4 0 .7.5.9 0 1.1-3 1.3-1.4 0-4 .3-5.5.7a49 49 0 0 1-5 .7l-2 .1-.5-.5zm77.8.2c0-.2 0-.5.2-.7.3-.3 1-.4 2.9-.4h4c1.3 0 3.3.2 4.2.5.2 0 .3.2.1.3-.3.4-11.2.6-11.4.3zm-124.6-.6c-1.2-1.2-3-2-3.3-1.3 0 .2-1.2.3-2.5.4h-2.4v-1.7l.1-2c.4-.6 1-.1 1.3 1.1l.4 1.2 1.3-.1 2.6-.3c1-.2 1.4 0 2.3.5 1.3.8 1.9 1.4 2 2.1.1.8-1 .8-1.8.1zm138.2.4a1 1 0 0 1-.2-.5c0-.3.3-.4 1.1-.3.8 0 1.2.2 1.2.5 0 .4-1.7.7-2 .3zm3-.5c-.2-.1-.3-.6-.3-1.1 0-1.7-.5-2.8-1.3-3.2-1.8-.6-1-2 1-1.8 1 .2 1.2.1 1.6-.3.4-.7 1-.7 1.8-.2 1.2.8.5 2.5-.7 1.8-.7-.4-.9 0-.7 1.4.2 1 .3 1.2 1 1.5.7.3.9.5.9 1.1v.8l-1.6.1a5 5 0 0 1-1.8-.1zm-174.9-1.8a5 5 0 0 1-.3-1.9v-1.6h.4c.4 0 .6.2.7 1 0 1 .4 1.4 1.1 1 .3-.1 1.1-.2 2 0 1 0 1.4.2 1.3.5-.2 1-4.4 1.9-5.2 1zm22.7-1.3c.4-2.2.2-4.8-.5-6-.8-1.6-1.6-2.4-2-2.4-.6 0-2.5-1.2-2.5-1.6 0-.5 2-.2 3.4.6 2.3 1.3 3.1 2.9 3.4 6.4.1 1.3 0 1.8-.4 2.9-.4.8-.8 1.2-1.1 1.2h-.5zm14 .2c0-.4 1.6-1.4 2.3-1.4.2 0 .5.2.7.5l.2.5-1.2.4c-1.5.5-2 .5-2 0zm-75.6-1.7c-.5 0-1.6-.5-2.4-1l-3.8-2a10 10 0 0 1-3-2c-.4-.5-1.2-1.1-1.8-1.4-1.4-.6-3.8-2.3-3.8-2.6 0-.5.3-1 .7-1a81.4 81.4 0 0 0 8.3 4.5c3.5 1.8 4.8 2.5 5 3 .4.8.8 1 2 1.3.5.1.7.3.6.7 0 .7-.4.8-1.8.5zm45.5-.3.6-1.5c.4-.7.8-2 1-2.8.4-2 .7-2.3 1.2-1.7.7.6 0 3.5-1.1 5-.8 1.2-1.7 1.7-1.7 1zm58.7.1c-.5-.7 1.2-1.4 3.2-1.4 1 0 1.3.3.9 1-.3.3-4 .7-4.1.4zm94.4-.3c-.2 0-.4-.8-.5-1.6 0-.8-.4-1.6-.6-1.8-.5-.6-2.2-.5-3.4.2-1.1.6-1.9.5-2.2-.3 0-.5 0-.8.7-1.3l.8-.8h1.8c2.4 0 4.5.8 4.7 1.8l.4 1.2.3.4.9-.6c.5-.4 1.7-.8 2.7-1l1.8-.2.3-.7c.5-1.2.7-2.4.7-4.7 0-2.3.4-3 1.2-3 .3 0 .6 0 .7.2l1.5.6 1.1.3.5 1.5c.3 1 .5 1.4 1.2 1.7.4.2 1 .2 1.3.1 1.4-.6 3.2 0 2.5 1-.3.3-5.4.5-6.2 0a1 1 0 0 1-.4-.7l-.4-1.2-.4-.6-.6.6-.6.6.2 3.3c.2 4 .1 4.1-1.9 3.5l-1.3-.4-.9.4c-1.2.5-2.8.7-3.4.4-.4-.2-.6-.1-.8.3-.4.7-.8 1-1.2 1-.1 0-.4 0-.5-.2zm-146.1-1c0-.2 0-.9.3-1.6.5-1.5.5-5.1 0-6.5-.5-1.6-1.8-2.4-4-2.3H275l-1-1c-.4-.5-.8-1.1-.8-1.4 0-.4-.3-.6-1.1-.8-.7-.2-1.6-.5-2-.8-.7-.4-1.7-.6-3-.7l-2-.2v-.6c-.2-1.2 1.6-1.4 4.6-.3.8.3 1.8.5 2.2.5 1.2 0 2.3.8 3.1 2 .4.7.9 1.2 1.2 1.3.2.1.4.3.4.5 0 .5.6.7 1.3.4 1.2-.6 3 .5 3.8 2.3.6 1.4.7 4.6 0 7-.5 2.2-1.4 3.3-1.8 2.3zm80.5-1.3-.5-.3.5-.4c.7-.8 2.7-.5 2.2.3-.3.5-1.7.8-2.2.4zm30-.3-.6-.5.3-.8c.6-1.6 1.6-1.1 1.6.7 0 1-.6 1.2-1.3.6zm-23.8-.2c-.3-.2-.5-.7-.5-1 0-.4.1-.5 1-.5a3 3 0 0 1 1.4.4l.5.4-.5.5c-.7.7-1 .7-1.9.2zm-43.1-1.4-3.1-.9c-1.4-.4-2-.7-2.1-1-.3-1 .3-1.2 1.3-.8l2.1.7a23.1 23.1 0 0 1 3.5 1.3c.4 0 .6.4.6.7 0 .6-.6.6-2.3 0zm50.3.2c-.4-.2-1-2.2-1-3.6 0-1 .8-1.2 1.9-.3l.7.7v3.3l-.6.1c-.4 0-.8 0-1-.2zm-16.3-1.5v-.9c.5-.8.4-1-.5-1.2-.9-.2-1.3-.6-1.1-1 .2-.3 1.9-.2 2 .1.2.2.5.3.7.3 1.4 0 2 1.8.8 2.6-.8.6-1.7.7-2 .1zm8.3-.5c-.2-.2-.3-.6-.2-1 0-.4.2-.6 1-.7h.8v.7c0 1-1.1 1.6-1.6 1zm34.4 0c-.3-.3-.3-.6.1-1.6l.6-1.7c0-.7.4-1.7 1-2.4.7-1 1-5.2.3-6.2-.4-.6-.4-.8-.2-1.3.2-.4.5-.7.7-.7.4 0 2.2-1.2 2.8-1.8.3-.4 2.3-1.9 2.5-1.9l1.8-1.2c.9-.6 2-1.2 2.5-1.3l1.6-.3c.6-.1 2.2-1.3 2.2-1.8 0-.1.3-.6.8-1.1.7-.7.8-1 .6-1.4-.2-.2-.7-.5-1-.5a169.6 169.6 0 0 0-7.2-2.2l-6-2-1-.5.8-.2c.6-.2 1 0 2 .3.5.3 1.7.7 2.6.9.9.1 2.2.5 3 .9l1.7.6 2.6.9c2.5.9 4.3 1.2 5.1.8a90.8 90.8 0 0 1 3.4-1.7c.6-.4 1.2 0 1 .7-.2.4-.7.6-2.2 1-1 .4-1.1.8-.6 1.3.6.6.5.8-.4.6-.7-.1-1.2 0-2 .4-1.1.5-2.4 2.3-2.4 3.2 0 .3-.3.6-.7.8-1 .3-1.3 1.3-1.3 3.5v1.9l-.8.4c-.8.4-.9.5-1 2 0 1-.6 1.4-1.2.9l-.5-1.3c-.1-1 0-1.3.5-2.1a4 4 0 0 0 .7-1.6l.4-1.7c.4-1 .3-1.1-.6-1-.6.1-2.6 1.5-3.9 2.8l-2 1.7c-1.2 1-1.8 2.3-1.8 4.3 0 2.4-.4 3.7-1.9 6.8-1.4 2.8-2 3.5-2.6 2.8zm-67.1-.3c-.1-.2.4-1 1.4-2l1.7-1.5v-1.4c0-1.2-.2-1.5-.7-2l-.8-.6c-.5 0-1.3-1-1.1-1.4.1-.3.5-.4 1.8-.3l1.7.2.5-.6c.2-.4.4-1.1.4-1.7 0-1 .2-1.3 1.2-2.4.9-1 1.3-1.6 1.3-2.1 0-.7.2-.8 1-1 1.2-.4 2 .1 2.7 1.6 1 1.8 1.8 3 2.5 3.2l.9.6c.1.3.4.2 1-.2.7-.3 1.4-.4 3.5-.4 3.8 0 3.6 0 3.6.6 0 .9-.6 1-4.7 1.1-2.5.1-3.4.2-3.4.5-.3.9-2 1-2.5.2-.1-.3-.2-.6-.1-.7 0-.1 0-.4-.2-.5-.3-.3-.4-.1-.7.6-.4 1.2-1.2 1.6-1.9.9-.8-.9-.6-2.7.3-2.7.7 0 .7-1 .1-1.6-.4-.3-.5-.3-1 .3l-1 1.3-.5 1c0 .3-.3 1-.7 1.7l-.6 1.2.7.5c2.3 1.7 3 2.2 3.5 3 .4.7.5 1 .2 1.1-.4.3-4 0-4.2-.4-.2-.4 0-.7.6-.7.8 0 .6-.5-.3-1.3-1.2-1-1.7-.5-1.8 1.7-.2 2.3-1.3 3.8-3.4 4.4-.7.2-1 .1-1-.2zm-312.2-1.7-.1-1.2v-1.6c-.2-1.1.4-1 1.1.3.8 1.3.9 2 .4 2.5-.4.4-1.2.4-1.4 0zm343.1-.1c-.8-.5-1-1.6-.5-2.4l.4-.6.7.3c.5.2.7.5.7 1.4 0 1.4-.5 1.8-1.3 1.3zm3.5-1.3c-.3-1.6 0-3.3.5-3.3.8 0 1.2-1 1.2-3v-2.1l-.6-1-.7-.8.5-.2c.2-.2.9-.3 1.4-.4 1-.2 2.2-.8 4.7-2.3l1.5-1 3 .1c5 .1 7.2 1.2 7.3 3.4v1l-.7.1-.7.1-.7-1.5-.7-1.4-1.5-.5c-2.4-.6-5-.2-8.3 1.6-2 1-2.4 1.7-2.4 4.4 0 2.2-.3 3.4-1.6 5.9-.6 1.2-.9 1.5-1.4 1.5-.5 0-.7-.1-.8-.6zm-164.4 0c-.8-.6-.8-2.2 0-2.4.5-.2.5-.2.2-.5-.4-.4-2-1-3.6-1.5-1.4-.3-1.6-.9-.6-1.3.8-.4 1-.7.5-1-.5-.2.5-.7 1.1-.5.4.2.5.3.2.6-.5.6.1.9 1.8.9 1.5 0 1.9.2 2 1 0 .4.5.8 1.1 1.2.7.4 1.1.8 1.1 1.1 0 .6-.4.6-2.2.2-1-.1-1 0-.5.9l.4.5 1.4-.4a35 35 0 0 1 3-.4c1.4-.2 1.7-.1 1.8.2.3.8-.4 1.3-2.5 1.5-3 .4-4.5.3-5.2-.1zm143.2-.4c-1.7 0-2-.6-1.1-2 .6-1.1 1.1-1.2 1.9-.2l.6.7h1.6c1.3-.1 1.7 0 1.8.3.1.2 0 .6-.1.7-.4.4-2.8.6-4.7.5zm75.1-1.2c-.1-.5.1-1 .6-.8.2.1.3.4.2.7-.1.6-.5.6-.8.1zm-207.8-.4c-1-.8-1-1.3 0-1.3s2 .9 1.6 1.4c-.4.6-.7.5-1.6-.1zm144.8 0c-.3-.2-.6-.7-.6-1 0-.3.2-.4 1-.2 1.1.1 1.7.6 1.7 1.2 0 .7-1.3.7-2 0zM297 142l-.2-.7c0-.6 1.4-3.4 1.7-3.6.2 0 .5-.4.5-.9.2-.9 1.3-1.7 2-1.4.8.2.7.7-.2 1.2-.5.3-1 1-1.4 1.8a91.3 91.3 0 0 1-1.1 2.9c-.2.8-.8 1.1-1.3.7zm-57.2-1.3c-.3-.8 0-1.2 1.4-1.2.8 0 1.5-.2 2-.5.9-.6 2.4-.8 2.7-.3.2.4-.8 1-2 1.1-.7.1-1.7.4-2.2.7-1 .7-1.7.7-2 .2zm116.2-.6c-.2-.2-.2-1.3 0-1.5h.6c.7.2.8 1.7 0 1.7l-.6-.2zm-109.4-1.8c0-.7 1-1.4 2.5-1.8.8-.1 1.5-.2 1.6-.1.3.3-.1 1-.6 1-.3 0-.8.3-1.1.6-.7.8-2.4 1-2.4.3zm14.7-.1c-.5-.8.7-1.6 1.4-1 .3.3.3.5 0 .8-.4.5-1.2.6-1.4.2zm70.6-.1c0-.2 0-.5.2-.7.4-.4 1 0 1 .5 0 .6-1 .7-1.2.2zm-18.6-.3c-.8-.6-.8-2.2 0-2.5.8-.3 1 0 1.5 1.3.3 1 .3 1.1 0 1.3-.5.4-.8.3-1.5-.1zm-58.4-.3v-.7c.5-.4 1.2 0 1.1.5 0 .6-1 .8-1.1.2zm-64.7-.7c-.4-.1-1.8-.4-3.2-.5-3-.3-3.4-.4-3.4-1 0-.8.9-.9 3.8-.3 2 .4 3.5.6 5.8.6 2.2 0 3.4 0 3.8.3l.7.3-.8.3c-1 .4-5.9.6-6.7.3zm167.8 0c-.2-.6.6-1.7 1.3-2 .7-.2.8 0 .8.9 0 1.1-1.7 2-2 1zm-73-.3c-.2-.7 0-1.4.5-1.5.5 0 1 1 .6 1.6-.2.4-.9.3-1-.1zm23.3-1.9c-1-.9-2.2-1.8-2.7-2-.6-.4-.8-.7-.8-1.2 0-.3.1-.6.3-.7.4-.1 2 .8 3.1 2a12 12 0 0 0 1.7 1.3c1.1.7 1.5 2.3.5 2.3-.2 0-1.1-.7-2.1-1.7zm13.3.9-.7-.6-1.3.5c-1 .3-1.5.3-2.8 0-2.4-.5-1.5-1.5 1-1 1 0 1.4 0 1.8-.3 1.4-1 3.4-.3 3.4 1 0 .9-.6 1-1.4.4zm8.9 0-1.1-1.3-.8-1-.5.4c-.3.2-.8.3-1 .3-.6 0-2-1.2-2-1.6 0-.3-1.2-1.5-2.2-2a12 12 0 0 1-1.9-1.4l-1.6-1.1c-3.3-1-4.7-1.4-5.8-2-1.5-.6-6.4-2-7.4-2s-1.6.5-2.9 1.8c-1.3 1.3-2 1.5-2 .6 0-1.1 0-1.4 1-2.4a5 5 0 0 1 2.6-1.4l1.7-.3c.1.1 1.1.4 2.3.6 1.1.2 2.4.6 2.8 1l1.5.5c1.2 0 3.6.6 5.1 1.4 1.8.8 4 2.1 4.4 2.5.4.4 1.1.3 1.3-.1.2-.5 1.5-.5 1.9 0l.4 1 .5 1.7.2.8 2.6.1c2.2 0 2.6.2 2.6.6.1.3-.1.5-.7.6l-.8.1.6.8c.3.4.5 1 .4 1.3 0 .7-.8 1-1.2.5zM209 133.2l-2.9-1.7-2.6-1.6c-.3-.3-1.5-.7-2.5-1-1.7-.4-3.3-.4-9.4-.5-4.6 0-8.9.2-11.2.4-2 .2-7 .4-11.1.4l-7.5.1v-.5c0-.6.5-.8 2.2-.8 2 0 2.5-.4 3.4-2.5 1-2.2.9-3.4-.3-4.4-.4-.4-1-1.2-1-1.8-.5-1.5-1.7-2.9-2.9-3-.5-.2-1.2-.6-1.7-1.2l-.9-.9-1.6.2-2.8.2c-.7.1-1.7.4-2.3.7-1.6.8-2.2.8-2.7-.1-.7-1.5-2.2-2.5-3.4-2.5-.6 0-1.5-.2-2-.4-.6-.2-1.4-.4-2-.4l-1.8.4-1.6.4c-.8 0-2.4 1.3-2.4 2 0 1.2-1.5 1.5-2.4.5-.6-.9-.5-1.4.6-1.7l2-1.2c2.1-1.5 5.3-2.3 7.8-1.8l2.6.4c1 .2 1.5.5 2.8 1.5 1.6 1.4 2.3 1.6 3.6.9.6-.4 1.5-.5 3.4-.5 2.6 0 3.6.3 4.4 1.5.2.3.8.6 1.4.8 1.7.5 3.1 2 4.4 4.6l1.2 2.3-.3 2-.5 2.9-.1.8h.8c.5 0 2-.1 3.4-.4 2.2-.4 2.8-.4 4.3 0 1.5.2 2.3.2 4 0a219.3 219.3 0 0 1 9.8-1.2c1.9-.2 2.4-.2 3.4.2l5 1c4.2.4 4.2.4 6.3 1.9l1.7 1c.3 0 3 2 3.2 2.5.3.5 0 1.1-.6 1.1-.2 0-.8-.2-1.2-.6zm-201 0c0-.2.2-.4.5-.4.2 0 .4.2.4.4s-.2.4-.4.4a.4.4 0 0 1-.4-.4zm338.1.2c-.2 0-.4-.4-.4-.7 0-.5.3-.8 1.5-1.4l1.5-.8.8-1.8.7-1.9-.7-1.4c-.4-.8-1.2-1.9-1.8-2.5-.7-.7-1-1.2-.8-1.5V120l-.2-.8h-2.2c-.3-.3.3-2 .8-2.4l.4-.7c0-.3.2-.4.6-.3.6 0 .6.4.3 1.9l-.2.7h.7c.8 0 1.6 1 1.6 2.3 0 .6.3 1.1 1 1.8l1.6 2.8.8 1.8-.9 2c-1 2.6-.9 2.5-2.3 3.5-1.2.8-1.7 1-2.8.7zm87.5-.4c-.4-.7 1.4-1.5 2.2-1 .4.4.4.5.1.9-.4.5-2 .6-2.3.1zm-142.2-1c-.3-.2-.6-.8-.7-1.4 0-.7-.4-1.2-1.2-1.9l-2-1.8-1-1h-1.3c-1.3 0-2-.3-3-1.2-.4-.4-1.2-.8-1.7-1-.6-.1-1.3-.4-1.4-.5-.2-.2-1.2-.2-2.5-.1-2.5.2-3.2 0-2.5-.7.2-.3.7-.5 1-.5.6 0 1.4-.4 2.2-1 .8-.8 1.8-.6 2 .3 0 .5.3.9.5 1l3 1.4c2 1 3 1.3 3.9 1.3 1.3 0 1.9.4 2.3 1.5.2.4.8.9 1.4 1.2.6.3 1.2.8 1.4 1.2l.6 1.4c.5 1 .5 2-.1 2-.3 0-.7 0-1-.2zm5.3-1.4c0-.4 1.6-.7 3-.5.6 0 .7.1.5.4-.5.6-3.5.6-3.5 0zm-151-.7c-.1-.3 1.2-1 1.4-.8v.6c-.1.5-1 .6-1.3.2zm228.4 0c-.4 0-.6-.3-.6-.6 0-.6.7-.8 2.9-.9h2l-1.7-2.1c-2-2.2-2.2-3-1-2.9.7 0 2.2 1 2.4 1.7 0 .2.5.6 1 1 .9.6 1 1.6.2 2.1-.3.2-.5.5-.5.7 0 1-2.5 1.5-4.7 1zm55.6-1.1c-.8-.8-5.2-3.2-5.8-3.2l-.7-.4-.4-.4 1 .1c1.8.2 3.8.9 5.6 1.8 2.1 1.1 2.3 1.2 2.3 2.1 0 .7-.1.8-.6.8-.4 0-1-.4-1.4-.8zm-47.2.2c-.4-.5 1.3-2.2 2.5-2.6a31 31 0 0 0 2.3-.8c5-2 7.7-2.5 11.4-2 1.6.3 4.1 1.7 4.1 2.3 0 1.1-.9 1.4-2 .5-.7-.4-1.2-.6-2.3-.5-1.3 0-1.7-.1-2.4-.7s-1-.7-2-.5c-.7 0-2.3.7-3.7 1.4-1.7.8-3 1.3-4.1 1.4-1.3.2-1.7.3-2.2 1-.8 1-1.2 1-1.6.5zm14.6-.2c-.2-.4.7-2.1 1.4-2.3 1.3-.3 1.5.5.5 1.8-.7.8-1.5 1-1.9.5zm-86.5-.7c-.4-.4-.3-1 .4-1.3.6-.2 1.3.1 1.3.5 0 .9-1 1.4-1.7.8zm20.8.1-.3-.7a4 4 0 0 0-.7-1.4c-1.3-1.9 0-2.5 1.6-.7.6.7 1 1.3 1 1.8 0 .7-.4 1.3-1 1.3l-.6-.3zm7.2 0c0-.3-.4-.6-.8-.7-1-.4-.8-1.1.6-2l.7-.4-.1-1c-.2-1-.7-2-2.6-4.5-.5-.6-1.9-1-3.3-1.1-1.2 0-1.4-.7-.5-2.4.6-1.2.6-2 0-2.4l-.3-.8c-.1-.6 0-.7.4-.9.8-.2 1.5.3 2.1 1.6.7 1.5.7 1.5 0 2.3l-.5.7.6.3 1.5.5c.5.2 1 .7 1.3 1l.9 1.3c.7.7 2.6 4.5 2.6 5 0 .4-.2.9-.5 1.2-.3.4-.6 1.1-.6 1.6 0 .7-.2 1-.7 1-.4 0-.7 0-.8-.4zm-42.1-.5-2-1c-1.2-.7-1.5-1-1.3-1.5.2-.6 1.1-.6 2.7.2 1.8.8 2.5 1.8 1.9 2.5l-.4.4zm74-.8a1 1 0 0 1-.2-.7 4 4 0 0 0-.8-1.4c-1-1.1-.9-1.4.4-2 .7-.3 1-.3 1.9 0 1.4.5 1.5 1.1 0 1.3-.7.2-1 .3-.8.6 0 .2.2.4.4.4.1 0 .2.4.2.9 0 1-.5 1.4-1 .9zm-337.1-.4c-1.3-1.4.2-4 2.8-5.1.9-.3 1.6-.5 1.7-.4 0 0 .5 0 .9-.3l.7-.5.8.6c.9.7 1.2 2.6.4 2.9-.3.1-.6 0-.8-.4a14 14 0 0 0-1-1.2l-.4-.6-1.5.8c-.8.5-1.8 1.2-2 1.6l-.6.7.5.8c.3.6.4 1 .1 1.2-.4.5-1.1.4-1.6-.1zm-8.8-1.8c-.5-.5-.5-.5-.1-1.2.3-.6 1-.7 1.5-.2.5.5.4 1.2-.2 1.5-.6.4-.7.4-1.2-.1zm240.5-1.5-1.2-1-.7.2c-1 .5-1.3.4-1.5-.5-.1-.6-.3-.8-1-.8a3 3 0 0 1-1.4-.4c-.7-.4-4-1-5.1-.7-1.2.2-1.7 0-1.4-.7.4-.8 2.2-1 4.1-.4l3 .7c3 .6 3.6.8 4 1.3.4.7 2.3 1.6 3.3 1.6s1.5.7 1 1.4c-.7.8-1.8.5-3.1-.7zm-182.3 0a63.4 63.4 0 0 1-14-2.3c-1.6-.4-3-1-3-1.5s1-.5 3.4 0l5.3.8c1.9.2 4.2.6 5 .8 2 .4 5.4.8 9.5 1 3 .3 3.6.5 3.2 1.3-.3.6-1.9.6-9.4 0zM365 123c-2.1-.8-2.3-1-2-1.4.7-.7 4 .3 4.2 1.3.1.6-.5.7-2.2 0zm-336-.7c-.4-.5-.7-.8-1-.8-1.4.1-1.7-.4-.7-1.2.9-.6 2-.5 2.5.2l.3.5.2-.5c.2-.7 1.4-.8 2-.3.4.5.4 1.7-.2 2-.6.2-1.4-.1-1.4-.7l-.2.5c-.2 1.3-1 1.4-1.6.3zm213.3.6c-.3-.3-.2-1.3.2-1.9.2-.3.9-.7 1.4-.8 1.4-.5 1.5-.7 1-1.5-1-1.5 0-2 1.2-.6.6.6 1 .8 1.8.8s1.2 0 1.3.4c.2.6-.4 1.1-1.4 1.1-1.7 0-2.6.4-3.7 1.5-1 1.2-1.4 1.4-1.8 1zm84.6-.3-1.5-1.6c-.5-.6-1-1.3-1-1.5 0-.7 1.2-.4 2.2.6 1.3 1.3 1.7 2.1 1.2 2.7-.4.3-.5.3-1-.2zm-57.4 0c-.2-.4.6-1 1-.7.3 0 .5.3.4.5-.1.4-1.1.5-1.4.2zm-253.3-.9-.3-.9c0-.3-.2-.6-.5-.8-.4-.3-1.3-2.6-1-3 .6-.5 3.1 1.4 3.7 2.9.4 1.1-1 2.6-1.9 1.8zm343.4-.1-.8-.6-1.3-.7c-.6-.3-1.3-.7-1.4-1a11 11 0 0 0-2.6-1.5 29.5 29.5 0 0 1-4.5-2.6l-1.4-.6c-.4-.2-.8-.2-1-.1-.2.2-1-1-1-1.7 0-.8.6-1 1.3-.5l1 .5c.3 0 1 .4 1.6.8 1 .9 2.8 2 4.4 3l1.6 1.2c1.4 1.4 2 .9.8-.6a5 5 0 0 1-.8-1.7l-.2-.9h.6c.7 0 2.5 1.7 3.2 3 .3.6.8 1.1 1.2 1.3.4.2.6.5.5 1 0 .5.1.7.5.8.9.1 1.3.5 1 1-.5.5-2 .4-2.7-.1zm-281.4-2.1c-.6-.6-.4-2 .3-2 .5 0 1.2.8 1.2 1.4 0 .7-1 1.1-1.5.6zm303.4-.9-.8-1.2 1.4-.8c1.6-.8 3.6-.9 4.1-.2.3.3.7.3 1.3.2 1.2-.1 2.7.5 2.7 1.2 0 .6-1 1-2.2.7-3-.7-4.6-.5-4.8.5-.3 1-.7.8-1.7-.4zm18.5 0c-1.3-.3-1.4-.8-.2-.8 1 0 2 .3 2 .5 0 .4-.6.5-1.8.2zM57 117.8c-.7-.2-2-.5-2.6-.5-1.2 0-4.3-.6-5.4-1l-2.2-.6c-2.2-.4-2.7-.6-2.6-1.4v-.5h1.3c.6 0 1.5.3 1.9.6 1.2 1 2.7 1.4 4.7 1.5 1 0 2.5.2 3.2.4 1 .3 1.5.3 2.3 0 1.4-.4 2.4-.2 1.9.4-.3.3-.3.5 0 .9.5 1-.4 1-2.5.2zm335.3-.3c-.5-.2-1-.5-1-.8v-.4h3.3c2.7.1 3.4.2 3.8.6l.6.7c0 .3-5.7.2-6.7-.1zm-149.4-1c-.9-.4-4.6-1-5.7-.9-1.9.3-3-.8-1.9-1.7.5-.4 3.8-.1 4.3.3s2.5.3 4-.1l6.4-2.3a11 11 0 0 1 3-.4c1.5 0 2.1-.2 3-.7 1-.6 3.3-1.3 5.1-1.7l2-.7c1-.5 3-.7 3-.3 0 .3-.7.6-2.8 1.3-.8.2-1.9.8-2.3 1.2-.7.6-1.3.8-3.1 1a57.8 57.8 0 0 0-11.6 2.8c-2.1.5-2.4.7-2.1 1.6l.2.8c0 .2-1.1 0-1.5-.1zm-182.3-.9c0-.2.3-.6.8-1 .4-.2.7-.6.7-.8 0-.7-2.7-2-4.4-2-.4 0-1-.2-1.1-.5l-.4-.4 1.2.2 2 .2c.5 0 1 .3 1.2.4.2.2.9.4 1.5.5.6 0 1.2.3 1.3.4l.7.2c.4 0 1 .3 1.2.5.3.3.8.8 1.2 1 1.4 1 .5 1.8-1 1-1.3-.8-1.5-.8-2.7 0-1.1.8-2.2 1-2.2.3zm21.1-1c-.3-.4-.6-.5-1.8-.3l-1.5.1-.6-.8-.7-.7h-2.1c-1.2-.1-2.5 0-2.9.2-1 .4-1.2.3-1-.4.5-.9 1.4-1.2 3.6-1.2 1.7 0 2.2.1 3.4.7 1.9 1 3.7 1 5.2 0 2.4-1.6 6-2.5 6.8-1.7.5.5.4 1.5-.1 1.8-.3.1-.9 0-1.5-.1-.9-.3-1.3-.3-2.3.1-1.6.5-2 .9-2.2 1.9l-.1.7h-1c-.5 0-1-.1-1.2-.4zm347-.2c-.4-.1-.8-.4-1-.6-.2-.2-1-.6-1.7-.8-1.1-.4-1.7-.4-3.1-.2-2.3.4-2.3.4-2.2 0 0-.3 2.2-1.1 3.6-1.5.9-.2 1-.8.1-1.4-1.3-1-3.6-2.4-4-2.4-.3 0-.8-.2-1.1-.4l-1.4-.9c-.4-.2-.7-.4-.7-.6 0-.3.7 0 2.8.8.9.4 2.2 1 3 1.2 1.2.5 1.9 1 3.3 2.6 2.2 2.5 2.8 2.7 6.5 2.3 3.1-.3 4.3 0 4.2 1v.5h-3.2l-3.9.4h-1.3zm-15-1.2c-.6-.5-.6-.7 0-1.2.5-.4 2.3.4 2.1 1 0 .7-1.6.8-2.1.2zM37.8 113c-1.7-.5-2.3-1.2-1-1 1.3.3 3.3 1 3.3 1.3 0 .4-.5.3-2.3-.3zm316.2.2a13.8 13.8 0 0 0-4.4-3c-3.4-1.7-4-2.3-2-2.3.6 0 1.4.3 2.2.9 1.3.8 2 1 2 .5s1.2-.5 4 .1c1.6.4 3.3.7 3.8.7 1.7 0 3.5 1.2 3 2l-.1.4-1-.5c-.7-.3-1.8-.6-2.6-.7-2.5-.2-5.1-.7-6-1.1-.5-.3-.7-.3-1-.1-.2.2-.1.3.2.3.2 0 .6.2.9.5.2.3.6.5.7.5.7 0 1.3 1 1 1.6-.1.4-.3.5-.7.2zm-82-.4c-.3-.4-.8-.6-1.6-.6-.6 0-1.2 0-1.4-.2-.1-.2-1-.4-1.8-.4-.9-.1-2-.2-2.4-.4-.4-.1-.9-.2-1 0-.3 0-.4-.2-.4-.4 0-.9 2.5-1.3 3.9-.6 1.3.7 2.7 1 4.6 1.2 1 .1 2 .3 2 .5 0 .1-.2.5-.7.8l-.7.6zm-141 0c-1.8-.7-1.2-1.6.8-1.4l1.3.2v.6c0 .8-.8 1-2.1.5zm-97-1c0-.4.5-.4 1 0 .4.1.3.2-.3.2-.4 0-.7-.1-.7-.3zm-.8-.5h.5l-.4.1c-.3 0-.4 0-.1-.1zm311 0c-.3-.4 0-1 .4-1s.5.3.5.6c0 .5-.5.7-.8.4zm-293.7-.4c0-.1.2-.2.6-.2.4 0 .6 0 .5.2-.1.2-.3.3-.5.3s-.5-.1-.6-.3zm262.3-.5a16 16 0 0 0-2-1.2c-.8-.4-1.5-1-1.6-1.3-.5-1.1-1.2-1.7-2.6-1.8-1.8-.2-2.7-.6-2.7-1.2v-.6l1.5.2c.8 0 2 .4 2.4.6 1 .6 1.8.5 2.8-.2.3-.2 1.3-.3 2.5-.3 1.9 0 3.7-.4 4-1 .2-.2-.4-1.6-1-2.1-.5-.6-1.4-1-2.5-1-.6 0-1.6-.2-2.2-.5-1-.4-1.2-.6-1.4-1.5-.4-1.2-.3-1.2-1.7-.8-.6.2-1 .5-1 .8 0 .8-.4 1-3.4 1.5-.6 0-.9 0-1-.3l.1-.8c.2-.1.3-.5.3-.7 0-.7 1.3-1.4 2.6-1.5.7 0 1.7-.2 2.2-.5 1-.5 2.7-.4 3.5.3.3.3.5.8.5 1.4 0 .4 0 .8.2.8a42.4 42.4 0 0 1 8 1c.4 0 1 .2 1.1.4.7.9 2.7 1 3.3.3.1-.2.5-.3.8-.3.4 0 .5.4.5 1.4v1.2h-.7c-.4 0-1-.2-1.3-.5a6 6 0 0 0-3.2-1c-.4 0-.8-.2-1-.4l-1.1-.2-.9.1.4.4 1.1 1.8c.5.8 1 1.4 1.1 1.4.2 0 .8.4 1.4 1l1 .9h2.5c1.7 0 3 .1 4.2.5 2.7.8 5.5 1.2 7.7 1 1.5 0 2.3.1 2.9.4 1.1.6 1 1-.4 1-.6 0-1.2 0-1.3.2-.3.4-1.5.3-3.2-.2a7.2 7.2 0 0 0-4.5-.3c-.5.2-1 .2-2.2-.2-.8-.3-2.5-.6-3.9-.7-2.5-.2-3.1-.4-3.9-1.4-.7-.9-3-1.1-7.5-.7-1.7.1-2.3.3-2.8.7l-.6.5 1 .9 1.5 1c1 .2 2.4 1.2 2.4 1.6 0 .6-1 .5-1.9 0zM27 110.1c-.5-.6-3-1.7-4.5-2.2a28.6 28.6 0 0 1-6-1.8.4.4 0 0 1-.5-.5c0-.3.2-.4 1-.3l1.7.6c.5.2 1.3.4 2 .4.6 0 1.4.3 2.3.8.7.4 1.6.8 2 .8.4 0 1 .2 1.4.4l1.1.4c.5 0 2.6 1.1 2.8 1.4 0 .2-.5.3-1.4.3-1.1.1-1.5 0-1.9-.3zm239.5-1.3c-.4-.4-.2-.8.4-1l2-.5c1.7-.5 10.7-1.2 17.4-1.4 3.8-.1 4.6 0 4.7.2.2.7-1 1-3 .9-1-.1-3 0-4.4.1a88.3 88.3 0 0 1-9.2.8 254.6 254.6 0 0 1-7.5.8c-.1.2-.3.2-.4 0zm-216-1.8a5.8 5.8 0 0 1-1.3-2c-.2-.8 0-1 .5-1.5 1.2-1 2.2-.8 1.7.4-.2.7.2 2.2.6 2.2l.5.6c.2.6.2.8 0 1.1-.5.6-.8.4-2-.8zm384 .5-4.3-1.8a81.7 81.7 0 0 1-5.7-2.3 6 6 0 0 1-1.7-.7l-1.7-.6a33.3 33.3 0 0 0-8.2-2.6c-1.6-.5-3.1-.8-7.4-1.7-.9-.2-1.6-.4-1.6-.6 0-.6 8.4.9 11.6 2 1.3.6 3.5 1.3 4.5 1.5.4 0 1 .4 1.5.6.4.3 1.1.5 1.5.5a96.4 96.4 0 0 0 11.7 4.2c1.3.6 1.7 1 1.7 1.4 0 .6-.8.7-1.8.1zm-91.7-.7-1.4-.2c-1.2 0-2.8-.8-3-1.4-.1-.7.4-.6 3.2.4 2 .6 2.4.9 2.2 1.2-.4.4-.5.4-1 0zm-44.6-.1c0-.1-1.6-.2-3.3-.2-2.7 0-3.2 0-3.2-.3 0-.5-.3-.4 2.6-.7l4.1-.4c2-.2 3.8.3 3.8 1v.6h-4zm-31.4-1.3-1.8-.6-4.9-1.6a3 3 0 0 1-1.3-1c-.4-.5-.5-.7-.2-1.3.3-.8 1-.8 1 0 .2.9.6 1.1 3.4 2 4.2 1.2 6 2 6 2.4 0 .5-.7.5-2.2.1zm125.8 0c-.2-.6.1-1 1-1 1 0 1.7.6 1.5 1-.3.5-2.3.4-2.5 0zm-7.9-.2-5.6-.3h-2.3v-1.1h2a63.7 63.7 0 0 1 11 .7c.7-.1.7.2.1.7-.5.3-.7.3-5.2 0zm29.9 0c-.6-.3-1.3-.5-1.6-.5-.3 0-.7 0-.8-.2-.5-.5-6-2.5-10.2-3.7-3.8-1.2-5.7-1.9-5-1.9a39.5 39.5 0 0 1 11.4 3l2.8 1c1 .3 2.3.8 2.9 1.2a4 4 0 0 0 1.3.6l.7.4c.4.5 0 .5-1.5 0zM11 104.3c-.8-.5-.9-.6-.4-.7.7-.1 2.5.5 2.5 1s-1 .4-2.1-.3zm62.7.2c-.5-.4.2-1 1.4-1 2 0 8.8-1 10-1.6 1.6-.7 2.7-.5 2.8.4.1.6 0 .8-.8 1.1-.5.2-2 .5-3.2.6-1.3 0-2.9.2-3.5.4a23 23 0 0 1-6.7.1zm-10.2-.1v-.7c.2-.4.5-.4 1.9-.3 1.7 0 2.4.4 2 1-.1.3-3.7.3-3.9 0zm130.1-.2c-.3-.7 2.1-2.3 2.8-1.8.6.3.3.8-.7 1.5-1.1.8-1.8 1-2 .3zM331 104c-1.4-.5-1.8-1-1-1h1l1 .5c.3 0 .5.3.5.6v.3l-1.5-.4zm40-.2c-.4-.3-1.2-.7-1.7-.8-.6-.1-1.2-.4-1.4-.8-1-1.5 1-1.2 4.5.6 1.7.9 1.8 1.5.3 1.6a2 2 0 0 1-1.7-.6zM6.4 103c-.2-.1-.4-.4-.3-.4.2-.3 1.8.1 2 .5 0 .4-1 .4-1.7 0zm-4.8-1.2c-.3 0-.8-.5-1-.8l-.6-.6 1 .2c1.2.2 2.8.9 2.8 1.2 0 .3-1.4.3-2.2 0zm354.2 0c-.4-.3-5.3-.7-8-.6a34 34 0 0 1-6 0c-.1-.1 0-.3.2-.6.3-.4 2.4-.5 9.1-.4 3.6 0 5.2.4 5.5 1.2.2.4-.4.8-.8.4zm-180.3-.4c-.2-.3 0-.5.7-.8 1.2-.5 1.6-.5 2.1 0 .6.7.3 1-1.3 1.1-1.1.2-1.4.1-1.5-.3zm24.2.1c-.4-.1-.6-.4-.6-.7.1-.3.5-.5 1.9-.6.9-.1 2.5-.5 3.5-.8 1.6-.6 1.9-.8 1.8-1.2-.1-.8 1.2-1.7 2.8-1.9 1.2 0 1.4 0 1.4.3s-.5.7-1.2 1c-1.3.6-1.6 1-1.2 1.2.4.2 0 1-.8 1.2-1.2.5-4.9 1.5-6 1.6-.5.1-1.3 0-1.6 0zm47.7-.2c-.3-.4.6-1 1.3-1 .3 0 .7-.2.8-.3l1.7-.6c.8-.1 1.7-.5 2-.6l.4-.4-1.4-.4-2.3-.4c-1.1 0-2.1-.5-2.1-1 0-.3.2-.4.8-.2l1.8.3c2.2.3 5.2 1 5.5 1.3.9.8-.5 2-2.3 2l-1.5.4c-1.1.5-3.6 1.2-4.2 1.2a.7.7 0 0 1-.5-.3zm-31.5-.8c-.7-.8-.3-1.7 1.1-2.8 1.3-1 3-1.6 5.7-2a206 206 0 0 1 17.3 0c2 .2 2.8.6 2.3 1.1-.2.2-.8.2-2.1 0-4.5-.7-15-.5-18.3.3a7.7 7.7 0 0 0-4 2.7c-1 1.4-1.3 1.5-2 .7zm111.4 0c-1-.2-.2-.7 1.5-.8 1.7-.2 2.2 0 2 .6-.1.4-.5.5-1.6.4l-1.9-.1zm6.4-.2v-.5l.5.1-.1.5-.4-.1zm55.5-1-.1-1c0-.8-.3-.9-4.1-1.7l-2.8-.7c-.4-.2-1.6-.6-2.7-.8-2.7-.6-4.4-1-7.6-2.2a51.9 51.9 0 0 0-5.4-1.6c-.5-.3-2.1-.8-2.6-.9-.3 0-1.1-.2-1.9-.6a17.4 17.4 0 0 0-9.5-1.7c-1.8.2-2.3.3-2.7.8l-.5.6.5.3c.2.2 1 .3 2.3.2 1.6-.1 2 0 2.1.3v.5c-.3.2-6.3.3-6.6 0-.4-.2-.4-1.2 0-1.6.2-.3 0-.3-.8-.3-1.5 0-2.5.7-3.3 2.2-1.3 2.7-2 3.6-3 3.6-.3 0-.4-.2-.3-1.1 0-.7 0-1.2-.3-1.2-.5-.2-.4-.6.6-1.6.5-.5 1-1 1-1.2 0-.6 2-1.5 4.5-2 1.5-.2 3.1-.5 3.7-.8 1.8-.6 2.2-.7 3.1-.2l3.3.7c2.6.3 4.8.7 5.6 1l2.2.7 2.3.7 2.5 1.1a86.8 86.8 0 0 1 5.3 1.9 425.2 425.2 0 0 1 9.8 2.6l4.5 1.2c2.3.5 2.7.5 4.9 0l3.3-.3c2.1 0 6.6.7 6.6.9 0 .1-1.5.2-3.3.2-3.4 0-4.5.3-4.2 1 .1.3-.2.4-1.8.2l-2-.2-.8.7c-.8.8-1.5.9-1.8.3zm-107.4-1.4c-1-.9-4.9-3.3-7.6-4.8a11 11 0 0 0-2.3-.8c-.7-.2-1.6-.6-2.1-1a3 3 0 0 0-1.7-.6c-.5 0-1.1-.2-1.4-.4l-2.2-.6a29 29 0 0 1-3.3-.9c-.8-.2-2-.5-2.8-.5a42.2 42.2 0 0 0-11.5-1.5l-3-.1v.6c0 .9.5 1.3 2 1.4 1.6.1 3.7.7 3.7 1 0 .3-2.7.3-3.5 0-.4-.2-.7-.2-.8 0-.2.3-3.2.2-4.7-.1l-1.2-.3-.9.7c-.9.8-1.4.8-3 .4-.8-.2-1-.4-1-1 0-.5.2-.8.3-.8.2 0 .5-.3.8-.6.5-.4.7-.5 1.4-.2.4.1 1.7.3 2.9.3h2v-1c0-.8.2-1 1-1.3l.9-.5 4.4.3a40.3 40.3 0 0 1 8.1 1.1 58.8 58.8 0 0 0 7.3 1.5c2.8.5 5 1 6.3 1.6 2.9 1.2 4.9 1.9 5.1 1.6h1.4c1 .1 2.5.2 6 0l3 .3c1.4.2 1.7.3 1.7.7 0 .5-.2.6-1.3.6-.9 0-1.4 0-1.5-.2-.2-.3-.3-.3-.3 0 0 .4.2.6.8.6.5 0 .8 0 .8.2s.9.3 2 .3c1.8 0 2 0 1.7-.4-.6-.8.2-1.2 1.5-.6.7.3.9 1.2.3 1.3-.7 0 1.6.7 2.5.7.6 0 1 .1 1 .3 0 .1.6.3 1.4.4 1.8.1 4.7.8 5.2 1 .4.3.4 1 0 1.1-.3.1-1.4 0-2.5-.3a89 89 0 0 0-4.4-1c-5.5-1-6.8-1.3-8.3-1.9l-1.7-.4a22 22 0 0 1-3.3-.5l-3-.5c-.7 0-.3.7.8 1.2l1.4.8 1.8 1.1c1.5 1 2.2 1.9 2 2.4-.4.5-1 .3-2.2-.7zm-51.2 0c.1-.6 1.5-1 1.9-.6.5.5 0 1-1 1-.8 0-1 0-.9-.4zm13-1c-.2-.7.3-.9 1.8-.7 1 .1 1.3.2 1.3.6-.2.6-2.8.7-3 .1zm93.5-.4c-1.4-1.5-3-1.9-9.5-2.3a11 11 0 0 0-6.5 1.6c-1 .5-1.6.5-1.6-.2 0-.4 2.3-1.7 3.2-1.7.3 0 1-.3 1.6-.6l1-.5 2.4.2c5.4.4 7.2.8 8.8 1.7 1.7 1 2 1.4 1.5 2l-.4.4zM295 95c-.3-.4.3-.9 1-.8.5 0 .8.3.8.5.1.4 0 .5-.8.5-.5 0-1 0-1-.2zm-158.5-.2h.5l-.3.1c-.3 0-.4 0-.2-.1zm91.3-.9c0-.4 1.1-1 1.7-1 .6 0 .6.6 0 1-.7.3-1.7.3-1.7 0zm-41.7-.3c-1.7-.3-1.8-.4-1.5-.8a77.7 77.7 0 0 0 11.1-1c1.6-.3 2.2-.6 2.2-.9l.8-.2c.4 0 1-.2 1.3-.4l.6-.3-.4-.2c-.8-.3-2.8.1-3.7.7-.5.4-.8.5-1 .2-1.2-.9-.1-1.7 2.4-1.8l2-.2.2-.7c0-.6.5-1 3-2.1 3-1.5 3.7-1.7 7.8-2l1.9-.2c.2 0 1 0 1.6.2.6.3 1.8.4 2.6.4s1.7 0 2 .2l.5.3-1 .2c-.7.2-1.9 0-3-.1a17 17 0 0 0-6.8-.1 11 11 0 0 0-4 2.1c-.3.4-.9.8-1.3 1-.8.5-1.1 1.4-.7 1.9.4.4 1.6.5 1.6.1 0-.1.4-.3 1-.3.4 0 .8.2.8.3 0 .2.7.3 1.5.3 1.3 0 1.5 0 1.4.4-.1.6-2.1.8-4.2.4l-1.3-.2-2.6.8a34.4 34.4 0 0 1-14.8 2zm210.8-.7c.2-1 2.4-1.7 6.6-2.5l2.4-.6c2.2-1 8.5-1 10.1-.2 1 .4 1 1.4.2 2-1.1.8-1.8.4-1.8-.9 0-.2-.2-.5-.5-.6a48 48 0 0 0-10.8 1.4l-2.3.8c-1 .4-2.3.9-2.9 1l-1 .1zm-221 0c-.2-.3-1.4-.4-3-.3a51 51 0 0 1-5.3-.3 110.5 110.5 0 0 0-7.8-.8c-.3-.2-1.8-.3-3.3-.3-3.7 0-5.9-.6-5-1.4.4-.4 2.4-.4 4.3 0 1.7.5 5.3.4 5.7 0l.5-.7c0-.6 1.2-.2 1.8.5.5.7.7.8 1.7.8.6 0 1.7.2 2.4.5a9 9 0 0 0 3.7.2c2-.2 2.4-.1 3 .3l.7.4.5-.7c1.4-1.9 3.3-1.6 3.7.6l.2.8-1 .3c-1.3.4-2.6.4-2.9 0zm82.7-.4-.5-.5h-2c-2.3.2-3 0-2.2-.9.6-.6 1.6-.8 2.8-.4l1.8.3c.9 0 1.7.8 1.6 1.5-.2.7-.9.7-1.5 0zm-154 0v-1c0-.6-.7-1.6-1.3-1.6a5 5 0 0 1-1.4-.5c-.6-.3-1.6-.5-2.2-.5-1 0-1.3-.2-1.4-.5-.3-.6.4-1 1.6-.7.8 0 1 0 1.5-.6.7-.8 1.2-.8 1.7.2.2.5.8 1 1.7 1.6 1.1.7 2.1 1.8 2.1 2.5 0 1-2.3 2-2.4 1zm29-1.5-.8-.8.4-.6c.3-.5.7-.7 2-.8 2-.2 3.3 0 3.7.4.3.4-.3.8-1.8 1-.4.2-.9.5-1 .9-.4 1-1.4.9-2.5-.1zm7-.6c-.6-.2-1-1-.5-1.1l2.9-.3c2.6-.1 5.8.3 6.3.9.6.5 0 .7-1.4.5h-2.7c-1.6.4-3.8.4-4.6 0zm230.5 0c-.1-.3 0-.6 0-.8.3-.5 2.9-1.5 5.4-2 2.9-.7 3.6-.7 3.9-.3.3.5-.6 1-2.6 1.1-1.4.2-2.5.5-4 1.3-2.6 1.1-2.5 1.1-2.7.6zM37.7 90c-.5-.7 0-1.7 1.1-2.3 1.7-.9 2.6-.2 1 .7-.4.3-.8.6-.8.8 0 .1-.2.5-.5.7-.4.4-.5.4-.8 0zm195.5-.1-.6-.5c-.2-.2-1.2-.4-2.7-.4-2.7-.2-3.2-.3-2.7-1 .3-.3.8-.3 2.8-.2l3.4.3.9.2v.9c0 .9-.2 1-1 .7zm-60.6-.6c0-.3.2-.5.4-.5.3 0 .4.2.4.5s-.1.5-.4.5c-.2 0-.4-.2-.4-.5zm-105.3-.1c0-.3.3-.6.7-.9.5-.3.8-.3 1.6 0 1.3.3 3 .3 3.2 0 .2-.5 1.4-.4 1.6 0 .4 1-.4 1.2-3.8 1.2-2.7 0-3.3 0-3.3-.3zm137-.2c0-.3 1.4-.5 2.4-.3.5 0 1.4-.1 2.3-.4 1.2-.5 1.7-.6 2.6-.4 1.3.3 1.8.8 1.3 1.1-.5.3-8.5.3-8.5 0zm15.4 0c-2.8-.1-3.5-.3-3-.8.3-.3 2.1-.4 5.2-.3 1.6 0 2.1.2 2.2.5.2.5-.3.9-1 .8-.3 0-1.9 0-3.4-.2zm-130.3-.5c-.6-.3-.8-2-.3-2.3.6-.5 2 0 2.2.9.3 1-1 2-2 1.4zM48 86.7c-.5-.2-1.4-.4-2-.4l-2.7-.3-2-.3H40c-.7.1-1 0-1-.4l-.1-.5 2 .2 2.7.4h2.5l1.7-.1.3-.7c.5-1 2-1.7 4-2.1 3-.5 3.7-.8 3.9-1.3.1-.5-.1-.9-1.3-2-2.3-2-2-2.6.7-1.3 1.7 1 4.2 3.3 4.2 4 0 .2-.4.4-.8.5-1.3.3-2.8.7-3.6 1.1-.4.2-1.5.5-2.5.6-2 .3-2.7.8-2 1.6l.5.5-.7.5c-.7.7-1.4.7-2.6 0zm184.8.4c-1.5-.1-2.2-.4-2.2-1 0-.3 4.7 0 5.2.4.6.5.4.8-.5.7l-2.5-.1zM32 86c-1.6-.1-2.6-.3-2.5-.4 0-.2.7-.3 1.4-.3l3.3-.3c1.5-.2 2.2-.2 2.4 0 .4.4 0 .8-1 1h-3.6zm191.1-.4c-.4-.2-1.3-.6-2-.7-1.5-.2-1.7-.8-.4-1 1-.2 4 1 4 1.7 0 .6-.7.6-1.6 0zm-201.3-.1c-.3-.7 0-1 1.9-1.1 2-.2 2.6 0 1.6.9-.8.7-3.3.8-3.5.2zm58.2-.5c-3-.8-3.6-1-3.6-1.5 0-.7.7-.8 2-.4a5 5 0 0 0 3.2.1c.4-.1.7 0 1.2.3.4.3.9.5 1.1.5l.9.4.5.3-.6.3c-1 .5-2.6.5-4.7 0zm230.5.4c-.4-.4-.1-1 .8-1.3 1-.5 1.7-.3 1.7.4 0 .6-2 1.4-2.5.9zm11.6-.7c-.3-.4-.7-.6-1.5-.6-1.7 0-1.5-.6.3-1a8 8 0 0 0 2.1-1c1-.7 2.1-1 2.7-.9.7.3.6.6-.5 1.7a15 15 0 0 0-1.5 1.7c-.5.9-1 1-1.6.1zm32.2 0c0-.3 0-.6.2-.8.5-.7 2.7-1.8 3.4-1.8 1.1 0 .6.9-1.3 2-2 1-2 1.1-2.3.6zM171 84.6l-6.2-.2a130.9 130.9 0 0 1-8 0 254.8 254.8 0 0 1-27.8-1.3l-1.5-.4-.8.6c-.5.4-.8.4-1 .2-.4-.4 0-1 .6-1 .3 0 .7-.2 1-.4.4-.3 1-.4 1.2-.3.6.3 4.8.4 14 .6 4.8 0 9.4.2 11 .5 3.4.4 3 .4 9.7.3h7.5c1.3.1 4 0 6-.3 3.2-.3 4-.3 5.3 0 1 .2 1.5.4 1.5.7.1.5-1.6.8-5.5.9l-3.8.2-3.2-.1zm-142-.5c0-.2.5-.3 1-.3s1 .1 1 .3c0 .1-.6.3-1.1.3-.7 0-1-.1-1-.3zm157.4.1c-.7-.7 1-1.5 3.6-1.6 5-.2 6.8-.4 18.5-1.8 3.9-.5 5.8-.5 6.4 0 .8.5.3 1.1-1.3 1.4l-1.5.4-.8-.6c-.8-.7-1-.7-2.6-.1l-3 .5c-1.1 0-2.4.2-2.9.3-1.3.5-5 .8-10.2 1.1a73.5 73.5 0 0 0-6.2.4zm-114.2-.8a9 9 0 0 0-3.5-.4c-3.3 0-4.4-.2-4.4-.7 0-.4 1.1-.9 1.9-.7l2.3.2c3 .2 6 .8 6 1.2 0 .2-.2.4-.6.6-.9.3-.9.3-1.7-.2zm310.5-.5-1.8-.3c-1 0-1.5-.3-1.5-.5 0-.6 1.4-.8 3.5-.5.8.2 1 .3 1 .7-.2.6-.6.8-1.2.6zm-7-.7c-1-.3-.5-.9.7-.9.8 0 1 .1 1 .5 0 .7-.7.8-1.7.4zm-13.5-.6c-.2-.2-.3-.5-.2-.6.2-.3 1-.3 3.2-.2 2.8.2 3.8.4 3.4 1-.2.3-5.9.1-6.4-.2zm-7.8-.2.3-.2v.2c0 .2 0 .3-.2.3s-.2-.1-.1-.3zM258 81c-.2-.1-.4-.4-.4-.6 0-.5.5-.6 4-.8 2.3-.2 3.1-.2 3.3.1.3.6-.7 1-3 1.2-1.3 0-2.6.2-2.9.3-.3 0-.7 0-1-.2zm166-.4c-.1-.6.3-1 1-.9.5.1.7.3.7.7 0 .6-1.4.9-1.6.2zm-152-.1c-.4-.6.2-1.3 1.3-1.6l2.6-.8c.9-.3 2-.5 2.3-.5.4 0 .8-.1 1-.3.1-.3 1.8-.5 2.6-.3.4.1 1.1.1 1.6 0 2.5-.8 10-1 12.3-.5 1 .3 1.6 1.1 1.2 1.5-.1.1-1.3 0-2.6-.1l-2.7-.3-2.7.1c-2.4.1-4.1.4-8.3 1-5 .9-6.7 1.3-7.2 1.7-.7.4-1.2.5-1.4 0zm32.2-.3c0-.5.5-.8 1.4-1.3a20 20 0 0 1 5-1.6c.6 0 1.9-.7 2.6-1.3.4-.4 1-.5 2-.5.8 0 2-.2 2.8-.4 6-1.8 11.7-2.2 13.2-1 .4.3 1 .7 1.4.8 1.5.6 1.2 2-.6 2.9-1.4.7-1.8.6-1-.2.4-.3.7-.9.7-1.2 0-1-.9-1.3-4.5-1.3-2.7 0-3.7 0-5.5.6a248 248 0 0 1-11 3.1l-1.1.4a30 30 0 0 1-5 1.6c-.4 0-.5-.2-.4-.6zm27.6-.5c-.3-.5 0-.7 2.3-1.4a21 21 0 0 1 9.9-1.3c.8.1 1 .3 1 .7v.5l-2.9.2c-1.6.1-4.2.4-5.7.8-3.8.8-4.4.9-4.6.5zm32.7-1.3c0-.8 3-2 6.5-2.9 1-.2 2 .2 2 .8 0 .6-1 1-2.4 1-.5 0-1.3.1-1.8.3-3.7 1.1-4.3 1.2-4.3.8zm24-1c-.7-.7.5-1.8 2.8-2.5 3.2-1 9.1-1.4 11-.6.7.3.8.4.5.8-.2.3-.6.4-1.1.3-1-.2-6.2.3-7.6.6l-3.1 1c-2.1.6-2.3.7-2.5.4zm-340-.8c-.6-.5-.2-.9.8-.8 1.2 0 1.4.8.2 1-.5 0-1 0-1-.2zm-9.1-2.4c-.7-.1-1.3-.7-1-1a11 11 0 0 1 4.4-2c.8 0 1 .1 1 .6 0 .3-.2.5-.7.6-1.2.3-1.5.5-1.7 1.2-.1.7-.8.9-2 .6zm315.4-.8c-.3-.6.6-1.2 2.3-1.4 1.2-.2 1.8-.4 2.1-.8.6-.6 1-.6 1.7 0 .9 1 .3 1.9-1 1.4-.4-.2-.8-.1-1.3.3-.8.6-3.5 1-3.8.5zm27.5-1.2c-.4-.4-.6-.8-.5-1 .3-.4 1.3-.3 1.8.3.4.4.5.6.2 1-.5.5-.7.4-1.5-.3zm-325.5-.9c-1-.3-1.4-.3-2-.1l-4 .2c-2.6 0-3.2-.1-3.3-.5 0-.6.2-.6 4.6-1 3.2-.3 4-.3 4.7 0l1.6.4 1 .1c.2 0 .3.3.2.6 0 .8-1.2 1-2.8.3zm-29.6-4c.1-.1.4-.2.7-.1.7.2.7.3-.1.3-.4 0-.6 0-.6-.2zm-1-.5h.6c0 .1 0 .2-.4.2-.3 0-.3-.1-.1-.2zm-2-.6c-.2-.1-.3-.4-.2-.7.3-.6 1.3-.4 1.6.4.1.5 0 .6-.4.6-.3 0-.8-.1-1-.3zm1.6-1.4c0-.6 1.5-1.7 2.7-2l1.7-.6c1.3-.6 2.2-.8 5.8-1.4a89.8 89.8 0 0 0 11-2.4 49 49 0 0 0 4.4-1c1.9-.7 3.4-.5 2.4.3-.6.4-4.8 1.6-6.2 1.8-.7 0-2 .4-3 .6-1 .3-3.4.8-5.4 1a52 52 0 0 0-10.9 3c-1.4.8-2.5 1-2.5.7zM56.3 57c-.3-.1-.6-.4-.6-.6 0-.3 1.3-.5 5-.8 2 0 2.4 0 2.6.3.2.6-.4 1-1.3.8-.4 0-1.3 0-2 .3-1.3.4-2.8.5-3.7 0zm17.2-.8.1-.7c.3-.3 3.3-.4 9.2-.5.2 0 .6-.3.9-.6 1.3-1.6 2.8-1.9 11.5-2.3a108.7 108.7 0 0 1 22.7 0c.7.5.3.7-1.4 1-1.3.3-1.7.3-2.7-.2-1.6-.7-3.8-1-5-.5-.5.3-3 .6-5.6.9-6.6.6-6.4.5-6.4 1.2 0 .4-.1.6-.4.7-.4 0-.5 0-.5-.6V54l-1.2-.2-4.4-.1c-2.7 0-3.4.2-3.8.6l-.4.4h1.5c.8 0 2-.1 2.6-.3 2.2-.5 5.1.2 4.3 1-.1.2-2.6.3-5.4.3a64.5 64.5 0 0 0-9.6.5 45 45 0 0 0-4.3.2c-1.3.2-1.5.2-1.7-.2zm-6.4-6.3c-2-.4-4.5-.8-6.5-.9a152.9 152.9 0 0 1-17.3-2 338 338 0 0 1-9.1-.9c-2.4-.1-3-.4-2.3-.8l1.9.1c.9.2 3.7.4 6.3.5a131.4 131.4 0 0 1 24.6 2.3l9.1.5c1 0 1.8.3 1.6.8h-2.2c-1.6-.1-2.4 0-3.2.3-1.2.5-1.5.5-3 .1zm10.9-.4c-.3-.2-.3-.3.2-.6.8-.4 4-.4 4.4 0 .4.3.2.4-.9.6-1.9.2-3.3.2-3.7 0zm39.8-3.4h.5l-.3.1c-.3 0-.4 0-.2-.1zm.9 0c0-.3 4-1.7 4.2-1.5.2.2-.7.9-1.6 1.1-2 .5-2.6.6-2.6.3zm18.5-4.9c.2-.4 4.1-1.3 4.8-1.1.9.2.3.7-1 .9-.7 0-1.9.3-2.6.4-1 .1-1.3.1-1.2-.2zm8.1 0c-.2-.6 0-.8 1-.8.4 0 1.2-.2 1.7-.5.7-.4 1.2-.5 1.5-.4l.5.2-.6.5c-.3.3-.9.5-1.2.5-.3 0-.8.2-1.1.4-.7.5-1.6.5-1.8 0zm74-1.2c-.8-.8-.2-1.5 2-2.9l2.5-1.4c1-.5 2.8-1.8 3-2.1.1-.5 2.9-2.2 3.6-2.2.2 0 .5.2.6.5.2.5-1.3 2-3 2.7l-1.6 1-1.8 1.3-1.9 1.4c-2.3 2-3 2.4-3.5 1.7zm-64.5-2.5.5-.2c.2 0 .4 0 .4.2s-.2.3-.5.3-.5-.1-.4-.3zm57.5-.8c0-.5 1.3-1 2.6-1.1 1.7 0 1.7.4.1 1-1.5.4-2.7.5-2.7.1zm-89-1.4a11 11 0 0 0-2.4-.4 79.1 79.1 0 0 0-6.9-.8c-3.5-.4-5.5-.7-9-1.5a53.3 53.3 0 0 0-9.5-1.4l-3.4-.5a65.2 65.2 0 0 1-8.7-2.2c.2-.2 1-.2 2.7 0A378 378 0 0 0 99.2 30l3.6.4c1.6.1 2.4.3 2.8.6 1 .8 4.2 1.4 10.7 2l9.3 1c.5.4 0 1.8-.7 1.8l-1.6-.4zm40-.3c-.4-.8.7-1.5 3.3-2.2l1.4-.6.8-.2c.4 0 .7-.1.8-.3 0-.1.4-.3.7-.3l1.7-.6a5 5 0 0 1 2.2-.6c.6 0 1.6-.3 2.4-.7.8-.4 1.7-.7 2-.7.8 0 3.5-.7 4.7-1.3l2-.7 2.5-.7c1-.3 2-.5 2.2-.4l.4.2-.4.5c-.3.3-.8.5-1 .5-.4 0-1.6.5-2.7 1.1-1.1.6-2.4 1-2.7 1a155.5 155.5 0 0 1-6 1.6c-2.3.6-3.3 1-6 2.2l-2 .8c-.2 0-1.2.3-2.2.8-2.2 1-4 1.3-4.2.6zm56.7-.6h.5c0 .1-.1.2-.4.2-.3 0-.4 0-.1-.2zM41.8 30.8l.4-1.3c.2-.2.3-.7.3-1.1 0-.5.2-1.2.5-1.5.5-.7 2-1.4 2.2-1 .2.2-.4 1.4-1.7 3.4l-1.2 2.2c-.3 1-.7.5-.5-.7zM236 29c-.4-1 .3-1.7 3.7-3.3 2.6-1.3 3.5-1.7 4.5-1.7 1.3 0 1.8.5 1.5 1.4 0 .3-.3.5-1 .4a3 3 0 0 0-1.6.6 3 3 0 0 1-1.3.5c-.3 0-1.3.5-2.2 1.1-1.8 1.2-3.4 1.6-3.6 1zm201.2-1c-.7-.2-1.3-.7-1.6-1.3l-.5-.8.5-.8.6-1c0-.2-.7-1-1.4-1.7-2.5-2.5-3.4-3.6-3.4-4 0-.3-1.4-1.7-2.9-2.9-.5-.4-.2-1.4.4-1.5 1.3-.2 4.6 3 5.4 5.3a5 5 0 0 0 1.3 1.9 15 15 0 0 1 3.1 3c.3.5.8 1 1.5 1.1.6.2 1.3.5 1.6.8.6.5.6 1.6-.1 2-1 .4-3.2.4-4.5 0zM78 27.8a29 29 0 0 1-2.8-.8c-.8-.3-2.7-.7-4-.7-.3 0-.5-.2-.5-.3.3-.4 3.5-.2 4 .2.2.2.6.3.8.2.5-.2 3.9.5 4.8 1 2 1 1.2 1.2-2.3.4zM192 26c-1-.3-1-.7 0-.9 1.1-.2 1.9 0 1.7.5-.1.4-1 .7-1.7.4zm238 0c-1.1-.6-1.2-2 0-2 .7 0 1.7 1 1.6 1.7 0 .6-1 .7-1.6.3zm-364.2-.9c-.7-.3-4.4-1.2-5-1.2v-.2c0-.4 2.4-.8 4.3-.8 1.3 0 1.7-.1 1.7-.4 0-.2-.3-.4-.6-.5a57.8 57.8 0 0 0-12.9-1.8c-1-.4-2.5.2-3.5 1.4-.9 1.1-1.9 1.4-2.2.5-.3-1 .9-2.6 2.5-3.2a30.2 30.2 0 0 1 12.3.8c4 .7 5.2 1 5.7 1.8.6.7.5 1.2-.3 2.1l-.9 1.3-.2.6-.9-.4zm367.4 0c-.2-.4.4-.8.8-.5.4.2 0 1-.3 1-.2 0-.5-.3-.5-.5zm-217.4-1-2.6-1.6-.9-.5-1.8.6c-1 .3-2.4.5-3.2.5-1.5 0-4.8.4-6 .7l-.7.2.3-.5c.2-.3.6-.7 1-.8 1.7-.6 5.7-1.4 8.5-1.7l2.9-.3 1.8.8c1 .4 2.3.9 3 1l2.3.5c.5.2 1.4.4 2 .4 1.5 0 2.6.3 2.7.7.1.3-.4.3-3 .2l-3.2-.2-.1.6c-.3.9-1.2.7-3-.6zm206.5.5c-.5-.3-.5-.5-.2-1 .3-.4.2-.5-.3-1-.3-.3-1-.6-1.6-.7-1-.2-1.7-.7-1.4-1.1.3-.5.7-.4 2.8.5 1.1.4 2.2.7 2.4.6.4 0 .9.2 1.6 1 .6.5 1 1 1 1.2 0 .2-.3.4-.8.4l-2 .4c-.7 0-1.1 0-1.5-.3zm-2.8-.3a16 16 0 0 0-3-.8c-2.8-.6-4.4-1-6.7-2-1-.6-2.5-1.1-3.3-1.4a9 9 0 0 1-2-.8c-.4-.3-1.2-.5-1.7-.5l-1.8-.3-.9-.2.2.8.2.9h-1c-.6 0-1.8-.3-2.6-.5l-3.3-.9c-1.8-.3-3.9-1.2-3.9-1.8 0-.7.9-1 1.9-.6 1.1.4 6.8.4 7.6 0 1.2-.6 3.2-2.3 3.6-3 .5-.8.7-1 1.5-1 .5 0 1.6-.2 2.4-.5l1.5-.5-.6-.6c-.7-.7-.4-1.1 1-1.4.7-.1 1 0 1.4.4.4.4.6.5 1.5.3.7-.2 1.2-.1 1.8.1.4.2 2.3.5 4.2.6 1.9 0 3.5.2 3.7.4v.6c0 .4-.3.4-1.2.3l-3.8-.3c-1.5 0-2.7-.3-2.8-.5-.2-.2-.5-.1-1.2.2a5 5 0 0 1-1.7.5c-1 0-3.3 1-5.3 2.3-1.5 1-2 1.7-1.6 2 .4.3.3.7 0 .7a1 1 0 0 0-.7.3c-.3.3-.1.5.6.8.5.3 1.2.5 1.5.5l2 .6a6 6 0 0 0 2 .7c.4 0 1 .1 1.2.3a10 10 0 0 0 3.5 1.3c.5 0 1.3.3 2 .6 1 .5 1.5.7 2.3.5 1 0 1.3 0 2.1.6l1.3.7c.4 0 .2.7-.2.9-.6.2-1 .1-1.7-.3zm-168.2-.7c-.5-.5-.4-1.2.2-1.5l3.5-.6c3.4-.3 4-.2 3.8 1 0 .4-.3.5-1.9.7-1 0-2.3.3-2.9.4-1.4.4-2.3.4-2.7 0zm43 .2c-.1-.1-8-.5-11.8-.5h-3.2l-.7-.8c-.6-.6-.9-.7-2-.6h-1.2v-1.5l1-.1c.5 0 1.4 0 2 .2 1.7.5 5.6.7 7.2.3 1.7-.4 2.4-.3 3.5.7.8.7 1.3.9 2.8 1l2 .3 1.2-.8 1.2-.7h2.1c1.2 0 3 0 4-.3 2.2-.3 3.2-.1 3.6 1 .4.8.9 1 1.6.4.4-.4 1.2-.6 3.8-.7l4-.1c2.1 0 4.3-.4 5-.9.8-.6 1.8-.6 2.6 0 .5.4.5.6.2 1-.4.5-3.5 1.2-5.4 1.2-.9 0-2.6.1-3.7.3-2.4.4-8.2.4-9 0-1-.4-3.2-.3-3.7.2-.4.3-1.2.4-3.7.5h-3.4zm-32.9-1.6c-.7-.8 0-1.1 2.7-1.2l2.8-.4c1.2-1 2.8-.9 2.8.1s-1 1.5-3.5 1.5c-1.3 0-2.8.2-3.4.3-.7.1-1 0-1.4-.3zm63.8-1.4c-.2-.3 2.7-1.7 4.6-2.3l2-1c.4-.5 1.5-1.1 2.4-1.5 1.2-.6 1.4-.8.9-.8-.4 0-.8.1-1 .3-.2.2-.4.1-.6-.2-.5-.6.2-1.2 2.3-1.5 1.7-.4 2.7-.7 4.5-1.4.4-.2 2.6-.5 4.9-.6 3.1-.2 4.9-.5 7.3-1.1 3.8-1 5.5-1.1 7.5-.5.8.3 2.6.6 4 .8 1.3.1 3.1.5 3.9.7.8.2 2.2.5 3 .5 1.6 0 5.3.8 7.6 1.6.6.2 2.2.4 3.4.5 1.7 0 2.6.2 3.4.6.6.3 1.4.6 1.8.6 1 0 1.7.4 1.7 1v.4l-3.8-.2c-2.7-.2-4-.3-4.4-.6-.5-.4-.8-.4-1.6-.1-.8.3-1.3.2-2.8-.1l-2.6-.9c-1.1-.6-4.6-1.7-6.2-2l-3.8-.2c-1.3 0-2.6-.1-3-.3-.5-.2-.7-.2-1.1.1-.7.6-2.4 1-3.8.8l-1.2-.2.8-.2c1.2-.3 1.6-.7 1.2-1.1-.5-.6-1.6-.5-3.3.3-2 .8-3.6 1.1-6.7 1.3a42.4 42.4 0 0 0-8.8 1.4c-.3 0-.6.2-.7.5-.2.6-1.1 1.4-1.6 1.4l-1.3.6a7 7 0 0 1-1.8.9c-.4 0-1 .3-1.2.5-.7.6-3.8 2-4.8 2.1h-1zm76-.5c-.3 0-.5-.2-.5-.4 0-.3 1-.3 1.2 0 .2.4-.1.5-.7.4zm16 0c0-.2-.4-.3-.7-.3-.4 0-.7-.2-.8-.3-.1-.1-.7-.3-1.2-.3-.8 0-1-.1-1.3-.6-.5-.8-.8-1-2.8-1.1a8 8 0 0 1-2-.4c-.3-.1-.8-.3-1.3-.3l.9-.2h1.9c.1.2 1.3.4 2.5.5 5.2.6 6 .9 6 2 0 .9-.8 1.5-1.2 1zM327 17.6c0-1 1.6-2 1.6-.8 0 .9-.3 1.3-1 1.3-.4 0-.6-.1-.6-.5zm-1.2-.4.3-.4.1.4c0 .2-.1.4-.3.4-.1 0-.1-.2 0-.4zm110.6-.1.1-.4c.1-.1.3 0 .4 0v.5l-.5-.1zm3.2-.5c-.6-.6.8-2.3 2.2-2.6l1.6-.4c1-.4 1.7 0 1.5 1.2v.8h-1c-.7.1-1.7.4-2.3.7-1.2.5-1.7.6-2 .3zm-110.2-.5c0-.6 1-1.2 1.7-1 .6.1.6.2.3.5-.4.5-2 .8-2 .5zm60.8-3c-1.8-.9-3.1-2.1-3.1-2.8 0-.5.1-.7.5-.7.3 0 .5.2.5.3 0 .2.5.5 1.2.8l2 1.3c.8.7.9.8.5 1.2-.4.5-.4.5-1.6-.1zm46.5-2c-.3-.4-.2-1.2.4-2.3.7-1.5 2.8-3 3.8-2.7.8.2.9.8 0 1.2-.3 0-1.2 1-2 2-1.3 1.8-1.8 2.2-2.2 1.8zM406 7c-.3-.5-.4-1-.4-1.2l-.8-1.6c-.7-1-.8-1.4-.6-1.8.2-.3.5-.6.8-.6 1.2 0 3 2.6 3 4.4 0 1.9-1.4 2.4-2 .8zm10.8 0c-.1-.3 0-1 .1-1.5.6-1.9.2-3.4-.9-3.4-1 0-1-.6 0-1.4 1-1 1.8-1 2.7 0 .9.9 1.2 1.7 1.2 3 0 1.9-2.6 4.6-3.1 3.3zM431 7c-.5-.5-.2-1.9.7-3.1 1.7-2.6 1.6-2.5 2-2.1.6.4.6.9 0 2.7-.8 2-2 3.1-2.7 2.4zm-16.3-2.7c0-.3 0-.4.1-.2v.5c0 .1-.2 0-.1-.3z"/>
</svg>
