<?xml version="1.0" encoding="utf-8"?>
<svg xmlns="http://www.w3.org/2000/svg" xmlns:svg="http://www.w3.org/2000/svg" version="1.1" viewBox="0 0 358 267">
	<title>Peter Rabbit and Benjamin Bunny walk up a steep hill towards some trees.</title>
	<path d="M311.5 265.7c-.2-.2-.3-.8-.3-1.4 0-.7-.2-1.3-.4-1.5-.3-.2-2.3-.3-7.2-.4l-8-.2a263.3 263.3 0 0 0-27.7-.1c-13.3.4-19.3.4-22-.1a288 288 0 0 0-25.8-.4 79 79 0 0 1-15.2-.8c-1.2-.3-3.7-.4-10.4-.4a171.2 171.2 0 0 1-22.8-.7c-.9.3-1.2.2-2.4-.2-1.3-.4-1.7-.4-3.6-.1-2.1.3-2.5.3-18.4-.6-5.9-.3-4.7-.3-12-.1-3.5 0-7.8.3-9.8.5-3.4.3-6.9.2-11-.3-3.5-.4-12.5-.4-18 .2a89 89 0 0 1-17.2 0c-1.2-.4-14.8-.2-23.1.3-5 .3-7 .2-12.8-.6a198.4 198.4 0 0 0-25 0l-3-.5c-5.2-.6-6-.7-6.8-1-.5-.2-1.5-.3-3.2-.2l-2.4.2-1-1.3c-.7-1-.9-1.3-.7-2 0-.8 0-1-.4-1l-.7-.6.1-3.7c.2-1.7.2-4.3.1-5.6a145.7 145.7 0 0 1-.3-19.3v-8.7c.3-8.2.6-20.2.5-21.7 0-.5 0-1.8.2-3 .4-2.7.5-5.2.7-12.5l.2-7.2v-3.3a5 5 0 0 1 .1-2.7c.3-.8.3-2 .2-5.9-.2-4.6-.2-14-.1-29.5l-.1-13-.9-22.5a232.4 232.4 0 0 0 .3-29.4c0-8.7 0-12.2.3-15.6.3-3.2.4-5.9.3-10.3-.3-7.3-.3-6.7 0-9A224 224 0 0 0 3 21.9c.2-1 0-5.3-.3-6.6l-.4-5.7c-.3-4.8-.2-5 .3-5.9l.7-.9c.2 0 .5-.4.8-1 .3-.6.7-1.1 1-1.2.4-.2 7.2-.5 11.8-.5l4.8.4c1.9.3 4.5.5 5.7.5a104.9 104.9 0 0 0 12 .8 1496.7 1496.7 0 0 1 28.8 1 175 175 0 0 1 29.8.5c4.2.2 24.2.1 28.4-.2l16-.4a338.1 338.1 0 0 0 18.4-.4 99 99 0 0 0 7.5-.2h3.3a78 78 0 0 0 17 1.8c4.7 0 23.2.2 24.3.4a79.7 79.7 0 0 1 17.3-.6c7.6.3 19 .3 22.4 0 4-.4 19.7-.3 20.4.1l11.4.3h20.4a674.2 674.2 0 0 1 34.3-.2 75.3 75.3 0 0 0 12.2-.3l1.3.5a5 5 0 0 1 1.8 1.4c.8 1 1 1.3 1 2.8 0 2.5.4 5.5.7 6.2.2.3.4 1.7.4 3l.3 4.8c.4 2.6.4 2.7.2 21.4a165 165 0 0 1-.4 15.8c.3 1 .4 6.7.1 13.6a17483.5 17483.5 0 0 0-1.5 42.7c.2 4 .4 5.3.7 5.6.4.4.4 1 .3 3-.3 3.7-.4 5-.8 5.8-.3.5-.4 2-.4 3.7a29.3 29.3 0 0 0 .1 7l.6 6.1a363.3 363.3 0 0 1-.4 33.9 149 149 0 0 0-.7 21.3l-.1 13.6v9c.3 10 .4 13.8.1 17.8l-.3 8.7c-.1 4.3-.2 5.2-.7 6.5l-1 3c-.8 2.5-.5 2.4-5 2.6-6.1.2-9.3.1-11.7-.2-1.4-.2-6-.3-11.7-.3-10.2 0-10.8 0-11 1.3-.5 2-.9 2.3-1.6 1.6zm23.4-8.1c.2-.4-.5-.8-2.3-1.1-2.4-.5-3.4-.8-4.5-1.5-1-.6-1-.6-3.4-.4a53.5 53.5 0 0 1-6.8.4c-.5.2-.6.3-.3 1 .5 1.6.3 1.5 6.8 1.6a795.7 795.7 0 0 1 10.5 0zm7.1-.5 2.7-.4c1.8 0 1.8 0 2-6l.5-9.9c.4-5.8-.2-18.9-1.1-24.7-.3-1.7-.4-1.9-.6-1.3-.3.5-.6.5-4 .7-4 .2-5 0-5-1 0-1.2 1-1.5 4.6-1.4 2.2 0 3.5.1 4 .3l.7.4.2-1.3.3-11.5c0-5.5.2-11.2.3-12.7.7-6.3 1-8 1.5-10 .7-2.8 1.2-9.2 1-12.6-.3-3.2-.3-4.8.2-6.5.2-.6.2-2 .2-3.3l-.5-11.8c-.4-8.2-.4-9.9 0-11.4l.6-8.9.4-9.2.1-2-.7-.3c-.4-.2-1.1-.3-1.5-.2l-5.7.2h-10.8c-2.8 0-5.2.1-5.5.3l-2.1.6c-1.7.4-2.4.3-5.2-.5-1.8-.5-3.4-.5-6 0l-4.3.8c-3.5.6-5.2 1.3-6.2 2.2-.4.4-1.3.6-2.8.8-1.3.1-3.3.5-4.4.9-1.2.4-3.2 1-4.6 1.2l-4 1.3-3.8 1.7a26.4 26.4 0 0 0-9.2 5.2c-.6 0-7.4 3.2-8.5 3.9-1.9 1.3-1.5 2 1.3 2.3l1.8.1 1.4-1.4c1.6-1.5 2.3-1.7 4-1.1 1.8.6 4.1-.7 5.3-3 .3-.5.8-1 1.3-1.3l2.2-1.7c.8-.8 1.8-1.5 2.3-1.6l1.4-.5c3.2-1.6 5.1-1.5 6.6.3.6.7 1 1 1.5 1 .3 0 .8.2 1.1.5.4.4.6.3 1.6-.4.6-.4 1.7-.9 2.4-1l1.9-.6 2.6-1c2.4-.9 3-.8 3.5.6.4 1.3 1 1.6 2.2 1.2.7-.2 1-.2 1.8.2 2 .9 2.8 1.4 2.8 1.7 0 .4.8.3 2.2-.4 1-.5 1.6-.7 2.2-.6 1.3.3 1.6.6 1.5 1.6 0 .8 0 .9.9.8.6-.1 1 0 1.3.4.4.4.7.5 1.4.4.8-.2 1 0 2.7 1.7 1.6 1.7 1.9 1.9 3 2l2.3.5c1.1.3 2.6 1.7 2.6 2.4 0 .5-1.8 2-2.8 2.2l-1.2-.1c-.7-.5-2.3-.4-2.5 0 0 .3.3 1 1 1.7 1 1.1 1 1.4 1 2.2-.1.5-.4 1.1-.7 1.4-.3.4-.6.8-.6 1 0 .6 1.4 1.6 2.3 1.6 1.2 0 2.1.8 2.6 2.5.3.9.7 1.9 1 2.3.3.4.5 1 .5 1.2 0 .7-1.3 1.7-1.9 1.5a15 15 0 0 0-6-1.4c-2.5-.2-3-.3-3.7-.8-.5-.4-1-1-1-1.4-.1-.3-.5-1-1-1.3-1-1-1.5-3-1.5-5.6 0-3.1.4-4.6 1.8-6 1.2-1.5 1.3-1.6.7-2.8-.6-1.2-1.2-1.3-3.3-.9-1.6.3-1.8.5-2.2 1.3a21.6 21.6 0 0 0 .2 13c.9 1.6.3 3.1-1.1 3.1-.8 0-1.5-1-1.7-3-.3-1.8-.3-2-1-1.5-.8.5-1.6-.4-1.9-2 0-.9-.4-2.8-.8-4.3-.3-1.6-.5-3.5-.5-4.3 0-1-.1-1.8-.4-2.3-.3-.7-.4-1-.1-2 .1-.5.4-1 .7-1.1.3-.1 0-.4-.7-.8-1.3-.8-2-.7-1.8.2a1712.4 1712.4 0 0 1 2.2 12.4l.6 5.4c.3 3.4.4 3.7 1.9 4 .5.2 1 .6 1.3 1 1 1.7-.9 3-3.6 2.5a9 9 0 0 0-2.5 0c-.6 0-2 0-3.2-.2-3-.5-11.5 0-14.1.8l-2.1.8c-.6.4-3.8.8-4.4.5-.7-.4-.7-1.2 0-2l.7-.7-2.3.2c-1.2 0-2.8.2-3.5.3l-1.3.1.6.7c.7.7.5 1.5-.4 2-.3.2-2 .3-3.8.4a97 97 0 0 0-6.8.5c-4.9.5-5.2.5-6-.4-.6-.8-.6-.8-2.3-.5l-5 .5c-1.7.1-4.5.5-6.1.8-5.4.8-5.7.8-6.3.3-.5-.4-.5-.6-.3-1 .3-.8 1.1-1.2 3.5-1.5l4-.5 10.3-1c1.8 0 2.2 0 2.5.3.4.5 2.9.6 7.7.2 4.7-.4 4.6-.4 4-1.2-.2-.5-.3-.8 0-1.1.1-.4.7-.6 3.3-.9l5.1-.6c3.1-.4 6.8-.3 7.9.3.8.4 1.3.4 5 0 2.3-.2 6.2-.3 8.7-.3 4.3 0 4.5 0 4.4-.6-.2-1.4-.1-2.2.3-2.7.5-.5.5-.8.2-3.1-.8-6.9-1-8.5-2.2-13.4-.6-2.3-.7-2.5-1.3-2.5-.5 0-.7.3-1.2 1.3-.4.9-1 1.6-1.7 2.1s-1.3 1.2-1.8 2.5c-.5.9-.8 1.8-.8 2l-.8.6c-.6.3-.8.5-.7.9.4.8 1 3 1 3.7 0 .3.2.7.6.8.5.2 1.2 0 1.2-.5l.6-1.7c.3-1 .8-1.6 1.3-2 .7-.4 1-.8 1.2-1.8.2-1 .4-1.3 1-1.5 1-.4 1.4.2 1.7 2.5.6 4.3.8 5.8 1 6.3.8 1.3 0 3.3-1.2 3.6-.6.1-1.2 0-2.7-.8-1.7-1-1.8-1-2.3-.6-.6.6-1.4.6-2.3 0-.6-.2-1.3-.3-2.7-.1-1.6.1-1.9 0-2.3-.4-.7-.8-1.8-3.5-1.8-4.5a5 5 0 0 0-.5-1.9l-.6-1.9c-.1-.5-.4-1.1-.7-1.4-.8-1-.9-1.7-.2-2.9 1.3-2 2.4-5.7 1.8-5.7-.4 0-2.4 2.7-3 4-.5 1.5-1.4 2.6-2 2.6-.9 0-.6.7.2.9 1 .2 2.5 1.7 3 2.7l.2 2.6c0 1.5.1 2 .5 2.6.8 1 .7 2-.1 2.5-1 .6-2 .3-2.5-1.1-.6-1.3-1-1.8-1-1 0 1.3-2 1.8-3 .7-.4-.6-.5-1.1-.5-3.5 0-3.6-.6-3.1-.8.6 0 2-.2 2.6-.6 3-1.2 1-2.7-.8-2-2.7.2-1 .7-7.2.5-8-.2-1-.7-.1-.7 1.5a28 28 0 0 1-.9 8.5c-1 1-2.7 1.3-5.2 1-2.1 0-2.6 0-3.2.4-1 .6-3.1.6-4.8 0-1.1-.4-1.3-.4-2.7.2l-1.8.9-2 1c-1.4.6-1.9.7-3.3.6-1.8-.1-2.6-.6-2.7-1.6-.1-.4-.3-.6-1.1-.7-.8 0-1.4.2-2.6 1-2.2 1.2-3.3 1.6-4.4 1.6-.4 0-1.5.4-2.3.8-.8.4-2.2 1-3 1.1-.8.2-2.4.7-3.4 1.2s-2.3 1-2.7 1c-.4 0-1.5.1-2.4.4-.9.3-2.4.6-3.3.7-2.2.3-2.7.5-3.9 1.7-.8.8-1.3 1-3.2 1.5l-3.6.8c-.7 0-2.4.4-3.7.7-2.4.6-3.1.7-3.3 0-.5-1 2.1-2.5 5.8-3.1 4.2-.7 5.7-1.2 6.6-2.1.6-.7 1.1-1 2.7-1.3a48 48 0 0 0 9.3-2.6l4.5-1.7 4-1.2c.5-.2 1.5-.9 2.3-1.6.7-.7 2-1.6 2.7-2 .8-.4 2-1.3 2.8-2 2.3-2 5-4 7.3-5.3.8-.5 1.6-1.2 2-1.9 1-1.6 2.4-2.7 4-3.3a41.2 41.2 0 0 0 12-5.8 91.9 91.9 0 0 1 9-3.9l4.8-1.8 4.5-1.7a89.7 89.7 0 0 1 15.8-4.3c2-.5 6.3-.7 10.4-.4 3 .2 4.6.1 6.4-.1 1.3-.2 2.5-.3 2.7-.2.3.2 8.1-.5 9.8-.9 1.7-.3 4.3-.2 5.5.3.8.3 1 .3 2.2 0 .8-.4 1.6-.5 2.2-.4l1 .2-.2-8.3c0-4.6-.2-9-.3-9.9-.4-2.3-.4-9.4 0-12.9.3-1.6.5-4.6.6-6.7.1-3.3.4-7.1.9-12a5 5 0 0 0-.3-2.5 176.4 176.4 0 0 1 0-20.9c.4-2.6.4-2.7-.2-3.1-.5-.5-1-.5-3.5-.4-2 0-3.5.2-4.4.5-.8.3-2.1.6-3 .6-1.3.2-1.5 0-2.4-.6-1.5-1.2-4.8-1.8-10.3-2-5.1-.2-10 .2-14 1.2-3.7.9-5.8 1.9-7.5 3.6-1.3 1.3-2.3 1.7-3.8 1.4-1 0-1.2 0-2.5 1.3-.7.7-2.5 2-3.9 3a199.8 199.8 0 0 0-5.4 3.2c-.6.2-4.5 2.6-7.2 4.5a27.2 27.2 0 0 1-8.3 4.6l-2.8 1.1-1.2.5a26.9 26.9 0 0 0-6.6 3.4c-.4.2-1.6 1.1-2.6 2-1 .8-2 1.5-2.2 1.5 0 0-1 .7-1.8 1.6l-2.6 2c-1 .4-3.2 2.1-3.5 2.6a26.8 26.8 0 0 1-6.5 7c-1.3.8-3 2.1-4.1 3-1 .9-2.3 1.8-2.7 2a25 25 0 0 0-3 2.2c-1.1 1-2.5 1.9-3 2l-2.2 1.1c-2 1.3-5.2 2.9-9.8 4.7l-6.4 2.6c-.7.4-3 1.2-5 2a67.3 67.3 0 0 0-7.6 2.9l-4 1.4c-2.2 1-5 1.7-9 2.4-6.8 1.3-6.7 1.3-11.8 2l-3.7.6a36.7 36.7 0 0 1-12.2-.8c-.7 0-2.8-2-3.3-3-.4-1-.5-1-4.4-1.4-1.3-.1-2 0-2.2.1-.2.2-.8.4-1.2.4a55.7 55.7 0 0 1-15.4-2.9c-1.2-.8-1.6-.8-2.5-.1-.6.5-1.4.4-3.2-.2l-2.2-.6c-2.7-.6-7.4-2-10.7-3.4a310.7 310.7 0 0 0-11.7-4.4c-.7-.5-.8-1.5-.2-2 .6-.5.5-1-.3-1-.4 0-1.4-.3-2.2-.6-.8-.3-1.8-.5-2.2-.5-.6 0-1.8-.6-5.7-2.7-.5-.3-1.1-.5-1.3-.5-.2 0-1.1-.2-2-.6l-1.7-.5-2.5.5a58.4 58.4 0 0 1-8.6 1.5l-3.4.3a8 8 0 0 0-2.2.4l-2.2.7c-.8.2-1.8.6-2.1.9a28 28 0 0 1-10 3.6c-5.2 1.2-7 2.2-7 4 0 .5-.5 1.5-1.4 2.7-.8 1-1.4 2-1.4 2.2 0 .2-.4.7-.9 1.2-.7.7-.7.9-.3.9.2 0 1-.4 1.7-.9 1.6-1 2.3-.9 3 .3.4.8.4.8 2 .7 1.2-.2 1.6-.1 1.9.2.1.3.7.4 1.1.4 1.7 0 2.6 1.3 1.6 2.3-.3.3-.9.4-2.7.4-1.6 0-2.5 0-3 .3s-1.6.6-2.4.7l-2.4.8-1.7 1-2.3 1a36.5 36.5 0 0 1-10.4 4.2c-.7.4-6 2-9.6 3-3.2 1-3.8 1.2-4.2 1.6l-1.7.8-2.4 1.2c-.5.4-1.2.7-1.4.7-.8 0-3.3.9-3.7 1.3-.3.4-.4.8-.2 3 0 1.3.4 3.7.6 5.2.3 2.2.4 5.5.5 14A81 81 0 0 1 8.7 162c-.2.9-.3 3.3-.3 6 .2 14.4 0 34.4-.2 39.5a308 308 0 0 0 .3 31.4c.2 3.9.6 7.5 1.2 9.6.4 1.3 5.2 1.9 14 1.5a1374 1374 0 0 1 15.6-.7c4.6-.5 12.7-.2 14.7.6.5.2 11.6.8 16.6.8 4.8 0 18.6.9 20.9 1.3 1.4.2 4.1 0 10.1-.7 3.4-.5 5.4-.7 9.9-1.1 3-.3 23.2 0 26.7.5 2.5.3 4 .3 5.9 0 .7 0 2 0 3 .2s3.7.3 6 .4a42.9 42.9 0 0 1 10.3 1.2l4.7.8c1.8.4 5.5.3 7.1-.2 1.6-.5 7.7-.5 9.7 0l2.6.2 4.5.4c3.8.5 10.5 1 19.2 1.3 1.4 0 2.8.2 3 .4a522 522 0 0 1 18.4-.4c8.5-.2 9.2-.2 9.8-.7.7-.5.8-.5 1.5-.1 1 .5 3 .6 4.3.2.9-.3 5.3.2 11 1.3a89.3 89.3 0 0 0 17.6.4c0-.5-1.2-1-2.6-1a7 7 0 0 1-4.5-1.4 5 5 0 0 0-4.3-1c-1.3.4-2.1 0-2.1-1 0-1.3 2-2.7 4-2.7 1.2 0 4.2 1 6.2 2 1.3.6 1.6.7 2.2.5.3-.2.8-.3 1-.3l1.8-.6 1.3-.6-.6-.4c-.4-.2-1.7-.5-3-.6a4283.9 4283.9 0 0 0-9.9-.7c-2.6 0-2.7 0-3.2-.7-.8-1-.7-1.3.2-2.3l.8-.7h-1.2c-.6 0-1.5.2-2.1.4a13 13 0 0 1-8.8-.6c-1.3-.8-.8-2.3 1-2.7.5-.2 3.8-.3 7.3-.3 7.1 0 7.1 0 7.1 1.8v1l4 .4c2.2.2 4.7.6 5.5.8 2.4.7 5 2 5.7 3.1.6 1 .6 1 2 .9 1.4 0 5.5.4 7.9.9.5 0 .8.4 1 1l.3.7 2-.2c1.1 0 2.8-.2 3.7-.4 2.3-.3 3.1 0 3 1.3 0 1.1.6 1.3 2.4.6.8-.3 2-.5 2.7-.5l3.6-.4c2.5-.5 3.6-.4 4.3.4.5.7 1.9.7 3.1 0a17 17 0 0 1 4.8-1.2c.3 0 .1-.1-.5-.1-1 0-1.2-.2-1.6-.8-.5-1-2-1.7-3-1.5l-.5.2.5.6c.8.8.5 1.6-.5 2-1.3.4-1.8.3-2.1-.4-.2-.5-.6-.7-2.6-1l-3.3-.8-2.3-.2c-1.4 0-4-.5-4.4-.9-.3-.1-.3-.4-.1-.7.4-.7.4-.7-1.4-.7-1 0-2-.2-2.7-.5l-3.2-.8a7.8 7.8 0 0 1-2.9-1 18 18 0 0 0-6.6-1.5 63.7 63.7 0 0 1-6.9-1c-.8 0-1.1-.2-2.1-1.2-1.2-1.2-1.5-1.4-3.4-1.6-4.4-.5-8.6-1.2-9-1.4l-1-.7c-.2-.3-.8-.4-2.4-.4-2.5 0-5.7-.8-6.1-1.4-.4-.6.4-1.6 1.3-1.6.5 0 .6 0 .4-.2-.7-.8-4.7-.2-7.5 1.2-.8.4-1 .4-1.7 0-1.1-.5-1.4-1-.8-1.8.7-.7 2.2-1.7 3-1.9a29.2 29.2 0 0 0-9.8 2.5c-.8.5-1.1.5-1.7.3-.3-.2-.6-.5-.6-.8 0-.9-.4-.9-2.2-.2-2 .8-3 .9-3.8.3-.4-.3-.5-.4 0-1 .2-.6.8-1 2.3-1.4 1-.4 2.3-.7 2.8-.7.6 0 .6 0-.4-.2a5 5 0 0 0-3.6.8l-.6.2c-.5 0-4 1.3-5.6 2-.8.4-1.7.4-2.3-.2-.2-.2-1.6-.2-3.5-.2-2.8 0-3.1 0-3.6-.5-.4-.4-.4-.6-.2-1.2l.3-.8-3.4-.1c-3.4 0-4.7-.3-5.8-1.1-.5-.4-1.1-.5-3.2-.5-3 0-5.8-.4-7.8-1-1.2-.3-1.5-.5-1.5-1l.3-.9c.5-.4-2-.4-4 0-1.8.4-2.7 0-3.1-1.3l-.3-1-2.6-.3a43 43 0 0 0-3.9-.3 34 34 0 0 1-6.5-1c-.5-.2-1.2-.6-1.4-1-.4-.7-.8-.8-4.7-1.2a241.7 241.7 0 0 1-9-1c-1.2 0-2.2-.9-2-1.6v-.8c-.3-.5-3.8-.8-8.5-.8-5.4 0-6-.3-5.3-2l.2-.7-2.7.1c-3 .2-5.4.5-7 1-.6.1-2 .2-3.8 0-2.6 0-4-.5-4.2-1.1-.1-.2-.4-.2-1.2 0-1 .3-1.4.3-3-.2-1.1-.4-3-.7-4.2-.9-3.4-.3-5.4-.7-5.8-1-.2-.2-.3-.6-.3-1 0-.8-.5-1-5.5-1.5-3.2-.4-5.2-.4-8.3-.3-4 .1-4 .1-5.2-.5-1-.6-1.3-.7-3-.5-1.1 0-3.1.4-4.5.6-3.3.7-4.4.7-5 0-.2-.3-.7-.5-1.1-.5-.9 0-3 .5-4.6 1.1-1.8.7-2.9.8-3.7.3-.9-.4-.7-.4-5.4.6a423.9 423.9 0 0 1-8.3 1.5c-1.5-.6-.6-2.3 1.4-3 .9-.2 5-1 9.3-1.6 1.6-.2 2.2-.2 2.9.1.8.3 1 .3 2.7-.2 3.2-1.1 8-2.2 9.5-2.2.4 0 1 .2 1.6.6.6.6 1 .7 1.7.5 3.4-.6 8-.6 9.3 0 .7.3 1.7.4 4 .5 1.8 0 4 0 5 .2 4.8.8 7.2 1 9.4 1 1.2 0 2.8.2 3.5.4 1 .2 1.4.2 2.5-.2 1-.3 3.1-.5 9.7-.7 4.6-.1 8.9-.4 9.4-.5l2.4-.7 3.1-.5c1 0 2.1-.3 2.5-.4a845.4 845.4 0 0 0 11-1.5c5.2-.6 7.6-.7 8-.3.5.4.5 1.1 0 1.5 0 .1-2 .5-4.2.7-5.3.6-15 2.2-17 2.8a5 5 0 0 1-2 .1c-.6 0-1.4 0-2.6.5-1.6.5-2 .6-6.5.5a60.3 60.3 0 0 0-13.2 1c-.6.1-.5.3 1.2.8 2.4.7 4 1.5 4.1 2 .2.3.2.3.6 0l.8-.4 4-.1c2 0 4.2-.2 5-.4a53 53 0 0 1 6.4-.3c5.6 0 6.5.2 6.5 1.3 0 .3.1.7.3.8.1.1 1.6.3 3.4.4 6.8.3 10.8 1.2 12.2 2.7.5.6 1.2 1 2 1.1 2.6.6 6.7 1.2 7.5 1.1 2-.1 3 0 6.6.8l5.7 1.1c1 .2 5.2.4 11 .4 20.5.1 24.3.2 25 .6.6.4.7.9.1 1.4-.6.6-12.8.7-14.4.1-1-.3-1.8-.3-4.2-.1a90.7 90.7 0 0 1-8 .4c0 .4.7.6 2 .6 1.7 0 3 .6 3 1.4.2.5.4.6 2.2.9l3.7.7a36.2 36.2 0 0 0 10.3 1.8c.7 0 1.9.3 2.7.5 1.3.3 1.6.4 2 1.1.3.6.5.8 1 .6l2.4-.4c1 0 2.3-.4 3-.6 2.7-1 3.6-1.2 6.2-1.2s2.7 0 3.3.7c.7.8.7.8 1.8.5 1-.2 1.3-.2 2 .2.6.3 1.2.4 1.7.3 5.9-1 6.8-1.2 7.4-1 .4.2.6.5.6 1 0 .4.2.6.5.7l3.5.3c3.6.5 5.3 1.1 5.8 2.4.2.4.6.9 1 .9 1.5.3 2.5.7 3.3 1.3.9.8 2.8 1.2 8 2 2.4.2 3 .4 5.7 1.8a21.2 21.2 0 0 0 10.2 2.4c1.2 0 2.6.2 3.6.5l3.8.9c2 .4 2 .4 4.8-.3 1.6-.4 3.5-.7 4.2-.7 1.2 0 1.3 0 1.7.8l.4.8h3c5.2 0 6.7.2 7 .6.3.8-.6 1.3-3.9 2.1-3.3.9-4.1 1.2-4.1 1.7 0 .4 4.6 0 6.4-.6l2.6-.7c1.1-.2 2.5-1 3-1.7l1-1.2c.4-.5.9-1.3 1-1.8.3-1 .8-1.3 1.6-.8.7.5.7 2 0 3.8-.3.8-.4 1.3-.2 1.3.4 0 5-3.1 5.5-3.8.3-.3.9-1.3 1.3-2.2.9-1.6 1.9-2.4 3-2.4 1.8 0 1.6 2.6-.4 4.3l-2 2.2a10 10 0 0 1-1.6 1.8c-.3.2-.7.7-1 1.2-.3.5-1 1-3.1 2.1l-2.8 1.6c0 .3 0 .3 2.2 0a135.6 135.6 0 0 1 7.4-1c4.2-1 7-.5 7 1.1 0 .6-.2.8-.9 1a9 9 0 0 1-1.8.2c-.6 0-1.4.2-1.9.4-.4.2-1.6.4-2.6.6-1.1 0-1.7.2-1.4.3 1 .3 3.2 1.6 3.7 2.1.3.3.5.8.4 1-.2.6 0 .6 1.3.6.9 0 2.2-.1 3.1-.4zm-3.8-.3c-.5-.5 0-1.3.8-1.3.7 0 1 .8.5 1.4-.4.5-1 .5-1.3 0zm-98.4-7.2-2-.2c-1.4 0-2.3-.6-2.3-1.3 0-.4.9-1 1.7-1.2 1.1-.2 4.7.3 5.4.7.6.5.8 1.4.3 2-.4.3-2.1.3-3.1 0zm-12.7-3.7c-.5-.5-.4-1.2.2-1.7.3-.3 1.5-.5 4-.8l4.8-.7c1.5-.4 2-.2 2 .6 0 1.2-.7 1.6-4.2 2.4-2 .4-6.4.5-6.8.2zm-14-2.7c-1.8-.5-2.2-.7-2.2-1.4 0-.3.2-.8.4-1 .4-.4.4-.5-.3-.7-.3-.2-1.6-.3-2.7-.3-2.4 0-3-.3-3.6-1.5-.6-1.1-.2-1.8.9-1.4l3 .4c2.7.2 6.2.8 6.6 1.1l.3.9c0 .4.1.7.3.8a44.5 44.5 0 0 0 12.8-1.1c.7-.1 1.3-.4 1.5-.5.2-.2.7-.3 1.2-.3 1.7 0 1.8 1.2.1 2-1.5.8-4.2 1.6-6.3 2l-4.5.8c-2.8.5-5.7.6-7.4.2zm87.6-13.9c-.7-.4-.6-1 .2-1.4.2-.1 1.3-.4 2.4-.5 2.3-.4 3.4 0 3.4.9 0 .8-.9 1.1-3.5 1.3-1.5.1-2.1 0-2.5-.3zm-15-3c-2-.4-2.2-.4-2.2-1 0-.3 0-.6.2-.7h4.2c3.9.3 4.8.6 4.4 1.6-.2.5-3 .5-6.5 0zm-13.3-2.9c-.5-.1-1.3-.6-1.8-1-.9-.8-1-.8-5-1-3.8-.1-4.4-.2-5.2-.8-.8-.5-1.6-.6-4.3-.8-1.8-.2-3.6-.4-3.9-.6-.3-.2-.6-.7-.7-1.1-.1-.5-.3-.9-.6-1-.2 0-1.8 0-3.6.3-3.9.6-5.1.5-6.2-.5l-1.2-.6c-.6 0-.7-.8-.2-1.4.7-.6.3-.8-2.3-.8-1.1 0-2.6-.1-3.4-.4a43 43 0 0 0-9.7-.4l-11.6.1c-2.8 0-3.2 0-3.5-.4-.2-.3 0-.6.6-1.4l1-.9h-.9c-.8 0-1.2.1-3.1 1-1.1.4-2.8.7-3.8.6-1 0-1.7-1.1-1-1.7.4-.4 3.5-2 5-2.6.5-.1 1.7-.7 2.7-1.2 2.7-1.4 5.6-2.4 6.7-2.4.6 0 1.4 1 1.4 1.8 0 .6-.4 1-1.5 1.2-.4 0-1.2.6-1.8 1l-1 1 1.5-.2c2-.3 7.1-.1 8 .2.3.1.7.5.8.9.2.8.5.9 7.7.7 5 0 6.1-.2 6.7-.5.3-.3 1.5-.8 2.6-1 5.7-1.7 6.6-1.7 6.6-.5v.7l2-.2 5.5-.2c5.4.1 20.6-.4 23-.7l4.1-.8c2.3-.6 3-.7 3.5-.1.5.5 0 1.2-1 1.5l-2.1.5c-.9.2-2.6.6-4 .7-2 .3-2.3.4-2.1.7.2.3 1.3.4 4.3.4 3.5 0 4.1 0 5-.5a97.6 97.6 0 0 1 22.3.3c1 .4 1 1 .5 1.6-.4.5-1 .5-6.6.3a63 63 0 0 0-16 .2c-1.2.4-2 .5-4.5.4a1859.1 1859.1 0 0 0-31.4-1.1l-4-.2-.5.7c-.2.4-.6.7-.8.7-.3 0-.1.1.3.2.4.2 2.2.3 4 .2 3.6 0 5.5.3 7.2 1.2.5.3 1.1.5 1.3.5.2 0 .6.1.8.3a16 16 0 0 0 4.6 1.5c.5 0 1.3 0 1.8-.2a91 91 0 0 1 8-1.9c.3 0 .8.2 1 .4.4.4.6.4 1.2.2 1-.4 3-.1 3.2.4.3.7-.6 1.6-2.6 2.3-3 1.2-3 1.4-.4 1.6 2.4.1 3.2.6 2.7 1.4-.6 1-3.8 1.8-5.3 1.4zm-30.3-9.1c.5-.6-.1-.6-1 0l-.7.4h.7c.4 0 .9-.2 1-.4zm40 9.1c-.3-.1-.5-.4-.5-.7 0-.5 1-.9 3.5-1l4-.6c1.9-.4 2.8-.3 2.8.4s-1.2 1.4-2.3 1.4c-.6 0-1.4 0-2 .2-1.4.4-4.8.6-5.4.3zm45.6-8.7c-.2-.2-4-.5-10.8-.7-3.2 0-6.2-.3-6.6-.4-1.3-.6-1.2-1.6.3-2.2a62.5 62.5 0 0 1 17 .5c2.1 0 2.7.3 3 1.2.3.8-.8 1.8-1.8 1.8-.5 0-1 0-1-.2zm-145.6-2.2c-1.6-.2-2.8-1-2.9-1.7-.2-1.1.5-1.3 6.4-1.5a44.4 44.4 0 0 0 16.7-2.4c1.2-.4 2.5-.7 3-.7.8 0 .9 0 .8.7 0 .9-.7 1.2-3 1.8-1 .3-1.8.7-2.3 1.2-1 1-1.7 1.5-3.5 2.2-1.4.5-2.2.5-7.7.6-3.3 0-6.7 0-7.5-.2zm-171.6-20c-.4-.6.1-1.6 1-2l2.7-1L18 188l3.1-.8 2.8-.6a98 98 0 0 1 3.2-.8c1.4-.2 2.1-.6 2.9-1.2.5-.5 1.6-1.3 2.4-1.7l2-1.2 2-1.2a1042.2 1042.2 0 0 0 7.6-3.1l2.6-1.2c1.2-.8 3.7-1.7 5.3-2a38.6 38.6 0 0 0 5-1.2c.8-.1 1.9-.5 2.4-.7.8-.3 1.1-.4 2.2 0 .7.1 1.4.2 1.7.1a42 42 0 0 1 7.3-1c.6 0 .8 0 1.2-1a4 4 0 0 1 2-2c.8-.4.8-1 .1-2.4-.5-1-.5-1.3-.2-2.2.2-.7 1-1.6 2-2.7 2.5-2.4 6.1-5.5 6.7-5.6.2-.1.7-.7 1-1.4a7 7 0 0 1 1.5-1.9c1.4-1 2-1.7 3.2-3.5.6-.9 1.5-1.9 2-2.2 1.5-1 1.6-1.2 1.4-2.6 0-.8 0-1.8.2-2.6.4-1.4.6-1.8 2-3.8l1.7-2.6c1.4-2 2.8-2.5 4-1.6.9.7 1.1.7 2.2 0 1-.8 2-1 2.5-.4 1 1.3.8 4.6-.4 7.1-1.2 2.3-1.2 2.5-.6 3.6a8 8 0 0 0 1.3 1.7c.7.7.8.7.7 3.2-.1 2.5-.1 2.6-1 3.5-.6.6-1.3 1-2.2 1.2-1.3.3-2.3 1-2.3 1.7 0 .3.3.4 1.2.4 1.2 0 1.5.2 1.5 1.6 0 .8-1.1 2.3-3.5 5-.5.5-1.1 1.5-1.3 2-.4 1.7-2.4 3.3-4 3.3-.8 0-.8 0-.4.6 1 1.5.7 3.5-.7 5.7-.8 1.2-1 1.7-.3 1.4a38 38 0 0 0 8.2-5.4c3.2-2 3.7-2.5 3.3-3.3-.3-.7-.4-2.2 0-3 .3-.8 4.2-5.7 6.8-8.5a9.5 9.5 0 0 0 2.2-3c0-.2.2-1 .5-1.6.3-.7.5-1.5.4-1.9-.1-.4 0-1.4.4-2.3a24.3 24.3 0 0 0 1.4-5.3c.1-.7.3-2.4.3-3.8 0-2 .1-2.7.6-3.3l1-1.8c.2-.5 1-1.5 1.6-2.2 1.8-1.8 3.1-1.5 3.5.8 0 .7.2 1.2.3 1.2l1-1c1.1-1.4 2-1.6 2.9-.6.7.9 1 2.8.8 4l-.3 1.4c-.1 1.8-.5 3.3-1 4.6-.9 1.8-.9 1.9-.1 3.4.5 1 .6 1.7.6 4v2.7l1-.3a15 15 0 0 1 2.8-.6c1.5-.1 1.9 0 2.6.4 1.1.7 1.2 1.7 0 2.8a12 12 0 0 0-2.8 4.7c0 1.2-.8 2.6-2.1 4-.7.6-1 1.2-.9 1.2a35.9 35.9 0 0 0 6.7-1.3c.3 0 1.4-.8 2.4-1.7 2.4-2.2 4.4-3.1 8.6-3.8.8-.1 1 0 1.4.5.5.6.5.6 1.9.1 4.6-1.4 5.2-1.5 5.9-.8.6.7.4 1.5-.5 1.8a96.8 96.8 0 0 0-4 1c-1.2 0-1.5.2-1.2 1 .4 1 .2 1.2-1.3 1.7-1.4.5-1.6.6-2 1.9-.2.6-.6.8-2.6 1.5-2.2.7-2.4.9-3.2 2a6 6 0 0 1-1.7 1.8c-2.2 1.1-2 1.4.6 1.1a6 6 0 0 0 3-.8c1-.7 5.2-2.1 7-2.4a41 41 0 0 0 5-1.4 54.5 54.5 0 0 1 13.3-2.4c1 .2 1.4 1 .8 1.7-.3.4-.8.6-3.2.7-1.6.1-3.6.4-4.4.7a72.7 72.7 0 0 1-7.6 2.1 60.4 60.4 0 0 0-13.4 4.4l-4.5 1.7c-1.3.6-2.2.8-2.9.7-1 0-1-.1-1-.8 0-.6-.1-.7-.8-.7-.6 0-1.3.3-2.1 1-1.2 1-1.3 1-1 2 0 .7 0 1.4-.2 1.7-.7 1.4-7.7 2.8-9.3 2-.3-.2-.7-.8-1-1.4-.8-1.4-1.7-1.4-3-.1-.4.5-1 .9-1.2.9-.2 0-.7.5-1 1.1l-1.9 2.4c-.6.7-1.1 1.3-1.1 1.5l-.6.6a18 18 0 0 1-5 1.3c-.6-.1-1.8-1.8-1.8-2.3 0-.2.6-1.2 1.4-2.3.8-1 1.5-2.2 1.5-2.5 0-.6 0-.6-1.3-.4-.7 0-1.7.2-2.3.1a7 7 0 0 0-2.7.6c-.8.4-2 .7-2.5.8-.7.1-1.3.5-1.8 1-.6.7-1 .8-2.8 1l-3.4.5c-1 .2-1.5.2-2.2 0-.7-.4-1-.4-2 0-1.5.5-2.2.3-2.3-.6 0-.6 0-.8 1.2-1.2l1.5-.6c.2 0 .5-.1.7-.3.2-.3 0-.4-.7-.7-1.7-.5-2.2-.9-2.2-1.4 0-.6 2-2.6 2.5-2.6.3 0 1 .3 1.7.7l1.2.7 1.7-1.1c1.7-1.2 3.2-3 3.2-3.6 0-.2-.4-.6-.8-1-.8-.4-1.1-.5-4.5-.3a544.4 544.4 0 0 1-6 .3c-.1 0-.2.9-.2 2 0 2 0 2.1-.8 2.8-.7.6-1.2.6-2.2.2-.3-.1-.7.2-1.1.8l-.8.9 1.5.4c1.4.5 1.5.5 2.3 0 2-1 2.9.7 1.2 2-.8.8-1.3 1-2.8 1.1-.9 0-1 .2-1.4 1.4a6.2 6.2 0 0 1-2.9 3.4c-2 1.3-2.1 1.3-2.8 1-.6-.1-.9-.5-1.1-1.3-.3-1-.3-1.2.2-2.3.7-1.5 1.9-5 1.9-5.5s.7-2 1.2-2.3a1 1 0 0 0 0-1.6c-.3-.2-.5-.3-.8 0-.5.4-4.1 1.3-8.2 2-4.6.8-4.8.8-6.4 1.6l-1.7.6-6.8 1.7a65.5 65.5 0 0 0-10 4c-.5.1-1 .4-1.2.6l-.6.3-1.4.8c-.6.5-1.3.8-1.4.8-.1 0-.6.4-1 .9-.8.7-.8.9-.5 1 .5.2 2.8-.1 4.8-.5a28 28 0 0 1 3-.5c1.6-.1 1.8 0 2 .4.5.9-.3 1.6-2.3 2l-2.6.7c-2.4.6-7.6 1.2-8.3 1-.6-.3-.6-1 .1-1.7l.5-.6H28a6 6 0 0 0-1.7.5l-1.7.5-2.5.6a4786.3 4786.3 0 0 0-4.1 1c-.4 0-1.6.3-2.7.7-2.2.8-4.5 1.1-4.8.7zm96.8-13.7c.6-.5 1.3-1.2 1.5-1.6.2-.7 1.4-1.7 3-2.7.4-.3 1.4-.3 3.8-.2 3.6.2 3.4.3 4.2-2.3.5-1.6.2-2-1.4-2-.8 0-1.6.2-2.9.9-1.5.8-1.9.9-2.6.7-1.3-.5-2-.4-2.6.4l-.7.7-1-.4c-1.3-.7-1.8-.6-2.7.6l-.9 1 .5 1.6c.3 1.2.4 1.7.1 2.6-.5 2-.2 2.1 1.7.7zm-34.6.1c0-.2-.1-.1-.1.2 0 .2 0 .4.1.3v-.5zm3.3-5.8c0-.3-.1-.5-.3-.5-.4 0-.8.8-.7 1.2.2.4.3.4.6.1.2-.2.4-.5.4-.8zm36.3-5c1.4-1.7 1.2-2.2-.8-2H110l-.1 1.3v1.7c.3.7 1.3.2 2.4-1zm13.1-1.4c.4-.7.8-1 1.6-1.2l1.4-.6c.3-.2.2-.2-.2-.2s-.8 0-1.1.2l-1.4.6a3 3 0 0 0-1.4 1.3c-.4.7-.4.8 0 .8s.8-.4 1.1-1zm-42 .2h-1.1 1zm34.7-2.7h-1.3c-.4 0-.1.1.6.1h.7zm-30.6-1.1h-1.3c-.2.1.2.2 1 .2h1.3zm-5.7-1.7c0-.3-.1-.4-.3-.4-.1 0-.2.1-.2.4 0 .2 0 .4.2.4s.3-.2.3-.4zm7.9-1.1c-.8-.8-1-1-2.2-1-.8 0-1.6-.1-2.3-.5-.8-.5-1.2-.5-1.5-.3-.6.4-.5.7.6 1.2.7.4 1 .4 1.5.2.4-.2.6-.2 1 .2.7.5 2.2 1 3.2 1.1.6 0 .6 0-.3-.9zm31.4-1.6.7-.9-.6-.1a9 9 0 0 0-4 0l-1.7.3 1.4.1c.8.1 1.5.4 1.7.6l.7.8c.4.5 1 .3 1.8-.8zM90 157c0-.5-.8-.9-2.2-1-1.8-.3-1.8.2 0 .8 2 .7 2.2.7 2.2.2zm1.3-2.8c-.2-.5-1.6-1.2-2.4-1.3-.5 0-.7.1-.6.4.3.8 3.2 1.7 3 .9zm3.8-.9c.2-.6-.5-1.2-1.5-1.2-1.1 0-1.3.3-.8 1s2 .8 2.3.2zm26.6 0c.6-.4 0-.7-1-.5-.4 0-.8.3-.8.4 0 .3 1.3.3 1.8 0zm-20.1-3c.8-.5.8-.7.8-1.8 0-1.6-.4-2.2-1.6-2.2-1 0-2-.9-2-1.8 0-.3.5-1.5 1.2-2.6 1.3-1.9 2-3.6 1.5-4-.2-.2-.9.6-2 2.3-.8 1-1.5 1.3-2 .8s-.4-1.3 0-2.6c.5-1.4.3-2.4-.2-1.9a15 15 0 0 0-1.5 2.2c-1.2 2-1.2 2-1.2 4.6 0 1.4 0 3-.2 3.4-.2.7 0 1 1.2 2.3 1.5 1.4 2.1 1.7 4.2 1.8.5 0 1.3-.2 1.8-.5zm20.9-1.2c1-.8.6-3.2-.9-5-1-1.1-1.2-2-.3-3 1.2-1.5 2.3-3.4 2.3-4 0-.7 0-.7-1.3 0-.6.4-1.2 1-1.4 1.4a15 15 0 0 1-1 1.9c-.4.6-.6 1.5-.7 2.2 0 1-.2 1.3-1.4 2.4l-1.3 1.4c0 .5 1.5 1.6 3 2.2l2 .7c.2.3.4.2 1-.2zm-3-12.5c.8-2.5.7-4.1 0-3.2-.5.6-1.2 3-1 3.6.2.9.8.7 1-.4zm73.4 50.7c-.7-.4-.6-1.1.4-2.1.7-.8 1.3-1 3.7-1.7 3.8-1 4.5-1 4.6-.2.1.8-.7 1.5-2.9 2.3l-3.2 1.3c-1.4.7-2 .8-2.6.4zm10.5-1.5c-.4-.4-.1-1.3.4-1.9a47 47 0 0 1 9.3-3.7c.7 0 1.1 0 1.5.3.6.6 1.7.4 4.5-.9a40 40 0 0 1 2.3-1l1.3-.8 2.2-1c.7 0 .9 0 1.2.6.7 1 .1 2-1.3 2.4-1 .2-4.6 1.9-6.5 2.9l-2.2.8c-1.5.4-1.5.4-2.3-.1-.5-.4-1-.6-1.3-.5l-5.7 2.3c-1.7.8-3 1-3.4.6zm-33.9-17.7c-.4-.4 0-1.4.7-2 1.1-1 3.6-2.2 4.9-2.5.5 0 1.9-.4 2.9-.7 4.5-1.5 5.4-1.7 7.9-1.5 1.6 0 2.1.2 2.4.6.6.8 0 1.2-1.7 1.4a36.4 36.4 0 0 0-8.4 1.8c-.9.2-2.8 1-4.3 1.7-2.4 1.3-3.9 1.6-4.4 1.2zm169.6-17.7c-.6-.6-.5-1.6.1-2 1.5-.8 3.2.5 2.6 2-.3.5-2 .6-2.7 0zm-182.3-.6c-.3-.3-.1-1.3.3-1.6.3-.3 3.2-1.5 4.7-1.9a280.8 280.8 0 0 1 11-3.8A201 201 0 0 0 183 139c.3 0 4-2 6.5-3.4 1.8-1 2.4-1.6 2.4-2.5 0-1.3 2.2-3.2 5.7-5a93 93 0 0 0 14.4-9 67 67 0 0 0 5.2-4l1.2-1.3c.4-.6 2-1.7 3.3-2.5a120 120 0 0 0 9.4-5.9 116 116 0 0 1 23-9.9 33 33 0 0 1 8.6-3.8c1.8-.6 3.3-1.3 4.7-2.3l2-1c.7-.1 1.8-.6 2.6-1 2.6-1.3 4-1.7 4.9-1.3.8.4 1.8.1 4.4-1a276.8 276.8 0 0 1 11.6-4.7l6.2-2.6c5.7-2.3 8.8-4.1 12.2-7.5 2.4-2.3 4-3.3 5.2-3.3.8 0 1.6.8 1.3 1.4-.2.5-1.9 2-3.9 3.5l-2 1.8c-.8.9-1.1 1.1-4.5 3a68.1 68.1 0 0 1-9.7 4.3 203.3 203.3 0 0 0-12 5 51 51 0 0 1-10 3.5c-2.3.1-2.7.3-4.5 1.2a14 14 0 0 0-2.8 1.9c-.8.8-1.5 1-3 1-.3-.1-1.2.2-2 .5l-2.6 1c-1.7.5-3.6 1.5-4.7 2.6-1.9 1.6-2 1.7-4 1.9-2 .2-3.7.8-5 1.9-.5.4-1 .5-2 .5-.9 0-1.8.2-3.6 1a51.5 51.5 0 0 0-8 4.1c-.7.3-2.5 1.3-4 2.4l-3.3 2.2c-1.2.8-2.1 1.8-2.5 2.6-.2.7-.8 1-2.8 2a29.5 29.5 0 0 0-5.9 3.8c-1.5 1-3 2.4-4.7 3.9-1 .8-2 1.5-3.6 2-1.3.6-3.3 1.6-4.6 2.5l-3 1.9c-.6.2-1.1 1-1.5 1.7-.5.9-1.2 1.7-2.2 2.5a60.7 60.7 0 0 1-7.8 5.2 68.8 68.8 0 0 1-8.5 3 176.1 176.1 0 0 1-14.4 5.2l-3.3 1.2c-2.6.9-4.2 1.1-4.6.7zm-23-7.3c-.1-1 .4-1.5 3.6-3a50.7 50.7 0 0 0 6-3.3c3.9-2 4-2 5.3-3.3.7-.6 2.7-2 4.4-3 3.8-2.2 5-3 8.3-5.1 2.9-1.9 3.6-2.2 7.4-3.3a13 13 0 0 0 3.5-1.6c.4-.3 4-2.3 8-4.3 11-5.6 17.8-9.1 19.7-10.4 1.5-1 3-.9 3 .2 0 .8-.5 1.1-3.2 2.7-1.2.7-2.6 1.5-3 1.9a15 15 0 0 1-5 2.5c-.8.1-1.7.5-2.2.9l-2.8 1.6c-2.2 1-3.6 2-3.4 2.3.3.3 7.6-2.2 9-3 .7-.4 2-.3 2.3 0 0 .2-.1.5-.4.8a45.7 45.7 0 0 1-11.9 5.4c-.5.3-1.5.5-2.2.7a36.4 36.4 0 0 0-4.6 1 37 37 0 0 0-7 2.6c-1 .5-2.3 1-3.2 1.1-1.2.2-2 .6-3.8 1.7l-4.5 3a44.9 44.9 0 0 1-11.6 7.3l-8.1 4.2c-.7.5-1.6.9-2.3 1-1 0-1.1 0-1.2-.6zm200.7-5.2c-.5-.5-.4-1.4.3-2 .4-.4.8-.5 2.5-.4 2.5 0 3.3.4 3.3 1.2 0 .3-.2.8-.4 1-.6.4-5.2.6-5.7.2zM64.1 103.3c-.7-.3-1-1-.6-1.7.2-.5 1.6-1.1 8-3.2 2.9-1 3.7-1.2 4.4-1 1.3.3 1.8 1 1.3 2-.2.4-.6.6-1.9.9-1.6.2-2.9.6-6.2 1.8a45.5 45.5 0 0 1-3.6 1.1c-.4.2-1 .2-1.4 0zm183-12.6-.2-.8c0-.7 1.3-1.5 3-1.8a193.5 193.5 0 0 0 15-4c2.4-.8 3.5-1 5.4-1 1.3-.1 3-.4 3.8-.6l2.4-.6c1-.2 3.4-1.1 7.2-2.5 1-.3 2.6-1.3 3.8-2 2.3-1.7 9.1-5 10-5 1.3 0 1.7.8.7 1.6-.5.5-6.6 3.9-6.9 3.9 0 0-.5.3-.9.8a13 13 0 0 1-4.7 2.6l-5.2 2a59 59 0 0 1-7.8 2.4c-1.2.4-2.5.5-3.9.2-1-.1-3.2.3-5.5 1.1-1.5.5-13.3 3.5-14.8 3.7H247zm52.7 163.8c.4-.4.3-.4-1-.3l-2.3.3-1 .2.9.2c1.3.3 2.9 0 3.4-.4zm-10.4-1.5c.6-.3.6-.3-.9-.7-2-.4-4.6-.4-4.6 0 0 .2.4.2 1.2.1.9-.1 1.2 0 1.6.3.6.6 1.7.7 2.7.3zm39-106.6c0-.3-1.9-1.1-2.2-1l-1 .6c-.6.4-.6.4.4.5 2 .2 2.8.2 2.8 0zm-3.7-3.6 1.2-1.7.5-1-1-1.1c-1-1-1-1.2-.9-2.2.2-1 .2-1-.5-.9-1.4.4-1.8 1-2 3.5l.1 3.2c.2.8.3.9 1.1.9.7 0 1-.2 1.5-.7zm-11.7-1.9c-.1-.2-.2 0-.2.3 0 .5 0 .7.2.5v-.8zm-42.8-.8c.3-.3.5-1.3.6-2.8.2-1.9.1-2.3-.2-2.3-.7 0-1.7 1.6-2 3.1-.4 1.4-.4 1.5.2 2 .8.6 1 .6 1.4 0zm4.8.2 1-.5c.3-.2.4-.8.5-3 0-2.8 0-2.9-.5-2.6a1 1 0 0 0-.5 1c0 .4-.3 1-.8 1.4-.9.8-1.3 2.6-.8 3.4.3.7.3.7 1.1.3zm20-.3c0-.3-.1-.8-.3-1-.4-.5-.4-.5-.6 0a2 2 0 0 0 0 1c.3.8 1 .7 1 0zm-8.3-1.9c-.3-1.5-1-1.6-1.3-.2-.2.8-.1 1 .4 1.3.3.2.5.6.5.8 0 .3.1.3.3-.1.2-.4.2-1 0-1.8zm26.3 1.6c-.1-.2-.2-.1-.2.2l.1.4v-.6zm.4-6.1.2-1.6-.8 1.5c-.7 1.4-.8 1.8-.6 3 0 .7.2 1.7.4 2.1.3.7.3.6.5-1.3l.3-3.7zm-52.8 3.1c1.4-1 1.7-1.7.7-1.9-.4 0-.8.3-1.5 1.2-1.5 2-1.3 2.2.8.7zm33-2.4c0-1.9.2-2.6.8-4.1.8-2 .7-2.7-.3-2.5-.6 0-.8.2-1 1l-.9 2.6-.6 1.6.6.8c.4.4.7 1.2.8 1.8.3 1.8.6 1.3.6-1.2zm-9.6-2c.5-.2.7-.5.8-1.3.1-.6.2-1.1.1-1.2 0 0-.6.1-1.1.4-1.1.5-1.6 1.7-1.3 3l.2.6.3-.7c.3-.4.7-.8 1-.9zm14.2-3.6c0-.7 0-.7-.4-.2-.2.3-.4 1-.4 1.5v1l.4-.8c.2-.4.4-1.1.4-1.5zm19.6-.5c0-.2-.1-.3-.2-.3-.2 0-.4.1-.5.3 0 .1 0 .2.3.2l.4-.2zm1.3-1h-.6c-.2 0-.1.1.2.1l.4-.1zM11.7 113.5c1-.2 2.2-.6 2.8-1a74 74 0 0 1 8.9-3.6l2.8-.7c1.6-.3 6.2-1.7 7.6-2.4a51 51 0 0 0 5.3-3.5c.6-.5 1.1-1.3 2-3.4.7-2 1.3-3 2-3.7.7-.6 1.6-2 2.2-3.2 2-4.2 5.5-7 9.8-8l3.8-.8c2.1-.4 2.3-.6 1.3-2-1.1-1.5-2.4-2-5.3-2.3a13 13 0 0 1-3.3-.6c-1.3-.7-2.1-.4-2.8.7-.6 1-1.4 1.6-5 3.3-3.7 1.8-8.7 1.8-9.1 0 0-.3-.4-.6-.7-.7-1-.1-2-1.4-2-2.3 0-.9 0-1-1.6-1.3-1-.2-1.5-.8-1.5-1.6 0-.7 0-.7-2-.5-2.2.2-4.2-.3-5.3-1.4-1-1-.8-3.1.7-4.7.3-.3.7-1 .9-1.5.4-1 1-1.5 2-1.5.2 0 .7-.4 1.1-1 .4-.7 1.2-1.4 2.3-1.9l1.7-1.1c.1-.1-.3-.5-.8-.9a4 4 0 0 1-1.4-1.4c-.3-.8-.4-.8-1-.4-.3.2-.8.3-1 .2-.5-.1-.6-.5-.8-4.7a433.2 433.2 0 0 0-.5-10.7c-.2-3.7-.2-4.1.2-4.6.3-.3.7-.5.9-.5.4 0 .9 1.6.9 3.3l.1 2.3c.2 1 .2 1 .6.4.2-.3.3-1.5.3-2.6 0-2 .3-2.7 1.1-3 .7-.2 1 .5.9 2.9 0 2.3-.7 5.4-1.4 7.6a6.8 6.8 0 0 0-.3 3.5 24 24 0 0 1 0 3.7l-.1 1.5.6-.4 1-.4c.5 0 3.8-1.6 4.7-2.3 1-.7 2.2-.8 3-.3.2.3.6.4.8.4.4 0 .4-1-.1-1.7-.8-1-.1-2.4 1.4-2.9.5-.1.6-.3.6-1 0-1.3 1.2-2.1 2.9-2 .7.1 1.6 0 2.4-.3.7-.3 1.8-.5 2.5-.5a3 3 0 0 0 1.8-.5c.4-.3 1-.6 1.4-.6.3 0 1-.2 1.3-.4.4-.2 1-.4 1.6-.3 1.3 0 1.7-.4.8-1.2-1-1-2.1-1.1-3.7-.5-1.4.6-2.2.7-3.6.3-1.3-.4-3-1.7-3-2.5 0-.4-.3-1.4-.7-2.3-.6-1.2-.8-1.7-.5-2 .3-.8 1-1.1 2.2-1.1 1 0 1 0 1-1.2 0-1.1 0-1.3 1.2-2.1l1.3-1-.3-1.1a4.9 4.9 0 0 0-2.5-3.4c-1-.4-1-.6-1-1.3 0-1-1.3-2.2-2.8-2.6-.6-.1-3-.4-5.2-.5-4.3-.3-6.3-.1-8.6.8-1.3.6-2.5.6-3.8 0-.6-.2-1.8-.4-3-.4-2 0-2.4 0-4.6 1-3.3 1.6-4.3 1.5-3.2-.4l.4-.9c0-.3-1.4-.1-2.2.4l-2.2 1.2a5 5 0 0 0-1.7 1.2v2.1c.3 1.1.3 3.6.2 7.2C8.2 39 8 47 8 53.4 8.1 62 8 65.8 7.7 67c-.4 2-.2 6.2.5 7.5l.4 1 .5-1.1.5-1.7c0-1.1.7-3.8 1.2-4.3.4-.4.4-.6 0-1.3-.4-1.1-.1-5 .5-5.4 1.2-1 1.8.9 1.4 4.1A1216 1216 0 0 1 11.2 76c0 .3-.3 1-.6 1.6l-.6 1 .6 3 .8 4.2c.4 1.9.8 5.6 1 10.4l.5 5c.2.8-.4 1.4-1.3 1.2-.8 0-.9-.8-1-6.7A60 60 0 0 0 8 80.8l-.7-.7v1.5l.1 8.3c.3 7.2.4 9.8 1 13.4.2 1.7.4 4.6.4 6.6 0 4.4 0 4.3.6 4.1l2.2-.5zm5.2-20c-.4-1.4-.8-7.3-.8-11.1l.2-9.3c0-4.1.1-5 .5-5.6.4-.6.4-.7 0-2.2l-1-2.1a23 23 0 0 1-1.2-8.4l-.1-4.3h-.8c-.8-.2-2.3-1.7-2.3-2.5 0-1.5 1-1.8 2-.5.7 1 1.2 1 1.2-.3 0-.6.2-1.3.5-1.6.5-.6.5-.6 1-.2.3.4.5 1 .5 2l.2 6c.2 3.6.3 4.3.6 4 .3-.1.4-1 .3-3.5 0-3.2 0-3.3.8-4.7a5 5 0 0 0 .9-3c0-1.2 0-1.5.6-2 .7-.8 1.3-.7 1.6.1.2 1-.7 6.2-1.5 8-.4 1-.5 2.3-.7 9.9l-.3 13c0 3.8 0 4.2-.5 4.7-.5.4-.6.8-.6 3.2 0 1.6.2 4.4.4 6.3.4 3.8.3 4.6-.8 4.6-.3 0-.7-.2-.7-.4zm8.4-5c-.6-.5-.7-.8-.7-2.2 0-2.6.6-6.7 1-7.2.5-.5 1.3-.6 1.6-.2a44 44 0 0 1 .1 9.2c-.4.8-1.2 1-2 .3zm5.5-33c-.8-.6-1.2-8-.5-9.3.6-1.2 1-1.4 1.6-1 .5.3.5.7.5 4.9 0 4 0 4.6-.5 5-.5.6-.6.6-1.1.3zm142.3 46c1-.3 2-.5 7.8-1.1 2-.2 3.4-.6 7.5-1.9 1.3-.4 2.9-.8 3.4-.8 1.5 0 7.8-2.3 8.7-3.2.2-.2.5-1.4.8-2.6.8-4 .8-4.3 1.3-4.7.3-.4.5-.4.8-.2.6.4.5 1.6-.2 4.2-.3 1.2-.4 2-.2 2.1.1.2.9 0 1.9-.5l7.2-3c2-.8 5-2.7 4.8-3.2 0-.5-1.7-1.6-2.4-1.6-.3 0-.7.2-1 .5-.3.2-.7.3-1.1.2-1-.2-1.5-1.5-1.3-3.7.1-1.6.1-1.7-.8-3l-1-1.4-1.7-1c-1.4-.6-1.6-.9-2.4-2.4-.7-1.5-1-1.8-2.3-2.4-1-.6-1.8-.8-3-.8-2 0-3-.3-3.9-1.3-.7-.8-.7-.8-3-.8-2.4.1-3-.2-3.7-1.7-.2-.5-.6-1.2-1-1.5-.4-.7-.5-.9-.2-1.7.3-1 .3-1-1-2.2a9.6 9.6 0 0 0-3-1.8c-2-.7-5.8-1.3-7-1-2 .4-5.4.4-6 0l-1.5-.5c-.5 0-1.7-.5-2.6-.9-1.5-.6-1.8-.7-2.5-.3l-2.6.4c-1.5.1-2 0-2.7-.4-.5-.3-1.6-.7-2.5-.7l-2-.3c-.5 0-1 .1-1.6.7-.5.4-1.2.8-1.5.8-.8 0-1.3.4-1.3 1.3 0 .4-.5 1.2-2 2.6a439 439 0 0 0-3.4 3.2c-1.4 1.4-3 2.1-8.3 3.9l-3.2 1.1c-1.5.8-6.8 1.1-10.4.7-1.7-.2-1.8-.2-3 .7-1.2.9-1.3.9-3.6.9-1.4 0-3 .2-3.6.4-.9.3-1.5.3-3.3 0l-5.4-.4c-3.2-.2-3.3-.2-4.4.5-1 .7-1 .8-.8 1.9.1 1 0 1.7-.8 3.9-.5 1.4 0 1.9 3 2.7 2.5.6 4.3 1.4 5.2 2.2 1 1 2.4 1.6 3.7 1.6 1 0 4.3 1 7.5 2.1l4.6 1.6c1.4.4 3 1.1 3.9 1.6l4.7 2A51.2 51.2 0 0 0 149 96c1.7 0 4.2.3 5.4.5 1.2.3 2.9.4 3.7.4 1.7 0 2.2.3 3.4 1.7.5.5 1.4 1.2 2.1 1.5a8 8 0 0 1 1.8 1c.3.3.8.6 1.2.7 1 .2 5.5 0 6.6-.4zm9.4-6.3c0-.1.3-1 .8-1.8a35.5 35.5 0 0 0 4.3-11.3l1.5-7.7c0-.6.4-1.1.6-1.3.7-.3.8-.3 1 .2.4.6.1 3-.7 6.6l-.8 3.5c-.3 1.5-1.7 5.8-2 6.2a32 32 0 0 0-1.3 2.2l-1.6 2.7c-.7.8-1.6 1.2-1.8.7zm2-8.3-.4-3.8c-.1-1.9-.4-4.4-.6-5.6l-.4-3.8c0-1.5 0-1.8.6-2.2.6-.5.6-.5 1 0 .4.4.5 1 .5 2.1l.4 3.8.6 4c.3 3.7-.8 7.3-1.7 5.5zm-10-1.4a48 48 0 0 1-1.7-11.5c-1-7.8-1-8.6-.4-9.5.5-.8 1.1-1 1.5-.7.2.2.3 1.3.4 2.6 0 2.5.4 6 1 10.8 1 7.6 1 8 .7 8.5-.5.5-1 .5-1.4-.2zm-13-.6c-.8-.9.2-14.3 1.3-18 .6-2.1 1.2-2.7 2-2.2.4.4.4.5 0 3.4l-.6 3.2-.9 9.7c-.2 3.4-.5 4.3-1.2 4.3l-.7-.4zm-16.7-1.3c-.3-.3-.8-2.8-1-5.3-.2-2 1.1-3.9 2.2-3 .3.2.4.7.3 2v3.6c.2 1.5.2 2-.1 2.5-.4.6-1 .7-1.4.2zM122.3 92c0-.3-2-1.2-2.5-1.2-.9 0-.4.5.8 1 1.5.4 1.7.4 1.7.2zm-3.3-1.3h-.5c-.2 0-.1.1.2.1.3 0 .4 0 .3-.1zm-1-.3c0-.3-1.2-.9-1.8-.9-.2 0-.6-.1-.7-.3a1 1 0 0 0-.8-.2c-.4.1-.3.2.2.4 2.3 1 3.1 1.3 3.1 1zm103.4-6.2a151.7 151.7 0 0 0 11.3-7.6c.5-.4 1.2-1.2 1.5-1.7.4-.6 1.3-1.7 2.2-2.5 1.5-1.4 2.2-2.7 1.3-2.3-.3 0-1.5.8-2.7 1.6-3.2 2-4.8 1.9-4.4-.2.3-1.4-.2-1.7-2.6-1.4-1.7.1-2 0-2.8-.5-.7-.5-1-.8-1-1.5v-1l-2.5-.4c-3.5-.7-6.2-2.3-5.5-3.4.3-.4.1-2.4-.3-3.5-.2-.5-.2-1 .3-1.8.7-1.5.7-1.7-.3-3.2-.7-1.2-.8-1.3-1.8-1.3-1.5 0-2.2-.7-2-2 .1-1 0-1.1-.7-1.8-1.5-1.5-1.7-2.9-.6-4.2.6-.6 2.5-.6 4.5.1 1.9.7 2.6.6 2.6-.2 0-.3.1-1 .4-1.7.7-1.3.7-1.3-.2-1.3-1.2 0-2.6-.5-2.8-1-.4-1 0-1.4 1.5-1.4 1.1 0 1.5-.1 2.1-.6l.8-.7-.8-1c-1.8-2.2-2.2-2.8-2.3-3.6-.2-1 .2-1.7.8-1.7.2 0 .9.4 1.4 1 1.4 1.5 2.6 1.8 4.4 1.2 2-.6 2.2-1 1.3-2-.8-.7-1-.8-3-.8-2.2 0-3.6-.4-4.6-1.2-.6-.6-.6-1.3 0-1.7.5-.4.9-.3 2.5 0 1.2.4 2 .5 2.2.3.1-.1 0-.8-.3-1.7-.8-2-.8-3.5 0-4.3.7-.6.8-.6.4-1.5-.9-2.5 2-2.7 3.2-.3l.6 1c.4 0 .3-1.3-.2-2.3-.2-.5-.4-1.4-.4-1.9 0-.7.2-1 .7-1.2.7-.3.8-.3 1.4.4.3.4.6 1 .6 1.3 0 .3.3 1 .6 1.6a14 14 0 0 1 2.2 4.8c-.1.3-.6.4-1.7.4-1.8 0-2.5-.4-3-2-.3-.8-.8-1.3-.8-.7 0 .2-.4.4-.9.5l-1 .1.2 1.4c.3 2.7 1.2 4.2 2.7 4.8.5.2 1.1.7 1.4 1.2.4.7 2 1.6 3 1.6s4.6-.9 5-1.2c.2-.3 0-.8-1-2.8-.8-1.3-1.4-2.6-1.4-2.8l.4-1c.6-1 .1-2-2.3-4.6-2-2.1-2.7-3.2-2.2-4 .4-.7 1-.6 1.9 0 .4.5.9.7 1 .6l.2-2c.2-2 .8-3.5 1.4-3.8.5-.2 1.7.9 1.7 1.5s.4 1.5 1.7 3.4c1 1.5 1.2 2.2.5 2.6-.5.3-.7.2-2.2-.7-.5-.3-.5-.3-.5.6 0 1.6.4 1.8 3 1.7 2.3-.2 2.5-.1 2.9.3.4.6.3 1.5-.2 1.8l-2 .5c-1.7.2-1.8.3-1.8 1.1 0 .6-.1 1-.4 1.1-.7.4-.6 1 .6 3.2 1.3 2.1 1.6 2.3 3.2 1.8 1.3-.4 2.3-.2 2.3.7 0 .4-.2.8-.8 1-.4.3-.8.6-.8.8 0 .5 1.4 1.4 2.7 1.8 1.9.5 2 2.3.2 2.3-1 0-3-1-4.4-2.2-1.4-1.1-1.4-1.1-5.3 0-1.4.4-3 .8-3.5.8-.6.1-1 .3-1 .5 0 .8-.8 1-1.9.7-.9-.3-1.3-.3-2.8.1-2.3.6-2.6.8-2.2 1.5.4.7 3.8 2.2 5.5 2.4 1.8.2 2.4.6 2.4 1.5 0 1.1-.6 1.5-2.4 1.4h-1.6l.7.5c.9.7 1 1.5.6 2.2-.7 1-2 .9-4.2-.3-2-1-2.5-.9-2.2.3.2.8 1.5 1.3 6.2 2.7 5.7 1.6 5.8 1.7 6 3l.2.9 1-.9 1.3-.8.7-.4c.5-.5 1.6-.5 1.8 0 .1.2 0 .7-.3 1.2l-.4.8h4.2c2 0 2.7.3 2.4 1.2-.3.5 1 .5 1.4 0 .2-.3.2-.4 0-.4s-.3-.3-.3-.6c0-.7 1-1.8 1.5-1.8.8 0 .5-.7-.4-1.1-.8-.4-2.4-1.4-3.3-2.1-3.1-2.3-4.7-4.1-4.7-5.4 0-.6.5-1.2 1-1.2.6 0 1.4.8 1.4 1.3 0 .8 2.7 3.4 4.6 4.3l1.2.8a4 4 0 0 0 1.6.8l.4-.5c.4-1.1.8-1.3 2.5-1.2 1.6.2 1.6.2 1.6-.5 0-1 .6-1.5 3.3-2.5 2.9-1 3.6-1 3.6 0 0 .7-.7 1.1-3.1 2-.9.4-.9.4-.9 2 0 1-.1 2-.4 2.4-.2.5-.4 1-.4 1.4 0 .4-.2.7-.6.8l-1.6 1.3c-1 .9-1.6 1.2-5 2.3l-4.8 1.5-2.5.2c-1.3 0-1.6.1-1.4.4.4.4 3 .5 6.1.2 1.7-.2 3.2-.2 3.6 0 1.3.3 3.2-.6 3.8-1.8l1-1.6c.5-.4 1-1.3 1.5-2A28 28 0 0 1 262 45c1.2-.6 1.7-1.5 1-1.5-.6 0-1.5-1.2-1.7-2.1-.2-1-1.7-2.2-2.7-2.2l-1.5.3-2.4.7c-.9.2-2 .6-2.6 1-1.2.6-2.8.4-4-.6-.8-.8-.8-.8-.3-1.5l.8-1.6c.5-1 1-1.1 2-.2 1.4 1.1 4.4 1 5.8-.1.5-.5.5-.5-.7-2-2.3-2.8-4.9-8.7-4.3-9.9.3-.7 1-.8 1.6-.2l.9 2.2c1 3.1 1.9 4.4 4 6.2 1.2 1 2.4 2 2.9 2.2l.7.5.6-.7c.6-.8 1.5-1 2-.3.6.7 1.8 1.2 2.5 1a4 4 0 0 0 1.2-.8l1.7-1 1.3-.4a107.5 107.5 0 0 0 4.8-1.3l3.2-.7c4.2-1.1 5.2-1.3 5.8-1 .4.2.7.5.7.7 0 .4-1.9 1.7-2.4 1.7a36 36 0 0 0-4 1.8c-.4.3.4.3 1.8 0 1.6-.4 5.5-1 6.7-1 1.5 0 1.3-1.5-.3-2.2-.8-.3-1-.7-1.3-1.3-.2-1 .4-1-6.6-.6-4 .2-4.2.2-6.1-.5-2.8-1-5.5-1.3-6.3-.8-.9.6-1.3.5-2-.5-.6-1-.7-1-2.6-1.3-.7-.1-1.4-.4-1.5-.6-.5-.5-.1-1.4.6-1.8.9-.3.8-.8-.2-1.8a27.8 27.8 0 0 0-10-5.9c-1.4-.4-1.8-.9-1.2-1.8.4-.6.7-.7 1.5-.7 1.5 0 2.4.4 6.3 3 2.7 1.8 4 2.8 6 5s2.9 3 3.8 3.2c.7.2 1.1.3 1.2.1.2-.2-.7-1.6-2-3a9 9 0 0 1-1.3-2.1c-.7-1.7-3.1-4.9-4.6-6-1-1-1.2-1.2-1.4-2.3 0-1-.4-1.6-1-2.4l-1-1.3c0-.2-.2-.4-.6-.6-.7-.3-12.5-.3-13.2 0-.2 0-.6.4-.8.8-.2.5-.7.8-1.1 1-.4 0-.9.2-1 .3-.5.3-1.7 2.4-1.7 2.8 0 .2.4 1 1 1.7 1.3 1.6 1.6 2.8.9 3.2-1 .5-2.2-.4-3.6-2.9-1.2-2.1-1.3-2.9-.4-4.6l.7-2c0-.4-4-.7-12.3-.5a933.6 933.6 0 0 1-49-.8 348 348 0 0 1-30.6-.5c-2-.6-7.8-.6-14.2-.2-6.7.5-8.8.5-9.5.1l-7.5.1c-9.3.4-13 .4-21.6 0-6-.4-8.7-.4-19 0-19.5.6-28.5.4-36.2-.8A122 122 0 0 0 20.4 5l-2.9.5c-.2.2-1.3.4-2.5.7-2 .4-2.2.5-3.2 1.6-1.2 1.3-1.4 1.7-2.2 5-.3 1.3-.8 2.7-1 3.2-.6 1.1-.8 5.4-.3 6 .4.6.4.6 2.2-.2 3.2-1.3 4.5-1.5 8.2-1.5 2 0 3.6 0 3.9.2.2.2.9.5 1.5.6l2 .8c.8.3 1 .3 1.4 0 .6-.6 1-.7 4-1.1 1.8-.3 3-.3 4-.2l3.8.4c4.2.3 6.8 1.5 7.7 3.7.2.5.7 1.1 1.2 1.5 1.2.8 2 2 2.4 3.6.2 1 .5 1.5 1 1.8l.6.4v-1.5c0-2 .7-3.4 2.6-4.7.8-.6 2-1.4 2.7-1.7.8-.4 1.7-1.1 2.7-2.4l1.5-1.8 1.8-.2c1.2 0 2.4 0 3.8.3 2 .4 2.2.4 3 0 1-.5 1.1-1 .5-2.4-.4-.8-.4-1 0-1.6.4-.6.6-.7 1.5-.7l2.8-.1c1.4-.2 1.7-.1 3.2.6l1.7.9 1-.7c1-.7 2.2-.8 3.2-.3.3.2 1 .4 1.4.4a6 6 0 0 1 3.7 1.8l1 1 1.8-.3 2.7-.4c1.3 0 1.7-.5 1.3-1.7-.3-.8-.3-1 .2-1.7 1-1.2 1.9-1.8 2.9-1.8.6 0 1.2-.3 1.7-.7 1-.8 1.5-.8 2.7-.2 1 .5 3.5.3 4.5-.4.9-.5 2.7-.2 3.5.6l.7.7 1.7-1.2c1.5-1.3 2.7-1.7 4-1.4.5.1 1.4 0 2-.2 1.4-.5 2.8-.5 3.5 0 .4.2.5.2 1-.2.6-.6 1.1-.6 1.7 0 .2.4 1 1.1 1.6 1.8 1.7 1.7 1.4 2.5-.7 2.5-1.3 0-2.2-.7-2.7-2l-.4-.9-2.5 1.2c-1.8.8-2.6 1.2-3 1l-1.3-.3c-.5 0-1 .3-2.4 1.6-1 .9-1.8 1.8-1.8 2 0 .3.3 1 .7 1.7.6 1 .7 1.8 1 4.4.1 1.7.2 3.5 0 3.8a21 21 0 0 1-5 5.4c-2.4 1.6-2.6 2-1.9 3.8.3.6.7 1 1 1.1.7.2 2.3-.3 3.7-1 1.1-.6 1.5-.5 2 .4.3.6.6.8 1 .8 1-.1 1.2 0 1.5.7.3.6.2.7-.4 1.4-.7.7-.8 1-.8 2.5 0 1.8-1.1 5.3-2 6.6-.6.7-.7.8-1.8.6-1.3-.1-2.2-.9-2.2-1.9 0-.8 1-1.4 2-1.3.8.2 1.1-.3 1.3-2.1 0-1 0-1-.8-1.3-1.1-.2-1.3-.5-.8-1.5l.4-.8h-2c-1.2.1-2 0-2.3-.2-1-1-4.2-.2-5.5 1.2-.7.7-1.3.7-2 0-.5-.6-1-.6-2.2 0-1 .5-4.4 1.4-5.4 1.4s-2.3-.7-4.8-2.4c-1.7-1.2-2.3-2-1.7-2.9.3-.5 1.6-.7 2.1-.2.7.6 3 1.7 4.6 2.2 1.2.3 2 .4 3.8.3l2.2-.2.8-1.2c.5-.6 1.1-1.4 1.5-1.7 1-.7 1.2-1.3.8-2-.4-1 .3-1.8 2.2-2.4 1-.3 2.4-1 3.7-2 2.2-1.6 2.4-1.9 1.7-2.2-.6-.2-1.6.3-2 1-.5 1.1-1.2 1.5-1.7 1-.3-.4-.3-.7 0-2 .3-2.2.1-4.9-.6-6-.3-.5-1.1-1.5-1.9-2.2-1.3-1.3-1.5-1.9-1-2.5.7-.6 1.6-.3 3 1.1 1.4 1.3 2.8 3.6 2.8 4.6 0 .2.2.5.4.5.5.2 3.2-1.1 3.4-1.7.3-.9-.6-2-1-1.4-.3.5-1.2.5-1.9 0-.8-.6-.8-1.2-.1-3.2l.5-2.1c0-.5-.1-.5-1-.3l-4 .2c-3.6 0-4 .3-4 2.6v1.8c-.4.5.1 1.1 1.2 1.6 1.2.5 2.3 1.8 2.3 2.7 0 .7-1 1.1-1.8.8-1.2-.6-1.6-.4-2.5 1-2.2 3.3-5.9 6.6-6.6 6-.5-.6 0-1.2 1.7-2.5 2.8-2 4-4.2 2.9-5.1l-.8-1.3c-.3-.8-.4-.8-1.8-.8-1.2 0-1.7.1-2.7.8l-1.4.8-1 .5c-1 .7-4.1.8-4.5 0-.3-.4.3-2 1.2-2.7.8-.8.7-1.5-.3-2-.6-.5-1.1-.6-1.9-.5-2.3.3-2.7.5-2.9 1.2-.4 1.7-2.1 2.4-3.9 1.5-.6-.3-.7-.6-.7-1.2 0-1.2-.5-1.9-1.2-1.9-.8 0-1 .3-.6 1 .7 1 .2 1.6-2 2.2-2.5.8-4.7 2-4.7 2.7 0 .3-.2.7-.5 1-.7.7-1.7.6-2.5-.4-.4-.4-1-.7-1.7-.8-1-.2-1.1-.1-1.5.7a6 6 0 0 1-1 1.7c-.7.6-1 .7-2.5.7-1.4 0-1.7 0-2.4.8-1 1-1 1.4 0 3.5.5 1 .7 1.8.6 2.1a11 11 0 0 1-3.1 3.4c-.2 0-1-.3-1.6-.7-1.7-.8-2-.8-2 0 0 1.2-.6 2-2 2.6-1.3.6-1.5 1-.8 1.6.6.6 1 .5 2.2-.4 1.2-1 2.2-1.3 4.9-1.8 2-.3 3 .1 3.5 1.7.3 1 .3 1.2 0 2-.7 1.4-.3 2 .8 1.3.5-.3 1.1-.4 1.7-.3.7 0 1.4-.1 2.6-.7 2.2-1.2 3.2-1 4.3.7 1 1.7 1.2 2.3.5 3.2-.6.9-.5 1.2.9 1.6.6.2 1.4.7 1.8 1.1.4.5.7.7.8.5.1-.1.6-.3 1-.3.6 0 .9.2 1.3.9.3.5.5 1.1.5 1.5 0 .7.6.7 1.4-.1.4-.5.6-1 .6-2 .1-1.6.4-3 1-4 .4-.8 1.5-.6 2 .4.4.5.4.8.1 1.6-.2.4-.3 2-.3 3.5 0 2.4 0 2.9.6 3.7.3.5.8 1 1 1 .3.1.9.5 1.3.9.6.4 1.2.7 2 .7l2.5.3c1.5.2 1.8 0 2-2 .1-1 .4-1.7 1-2.3l1.1-1.8c1-2 2.6-3.2 4-3 1.6.4 2.8 2.2 2.3 3.5-.4.8-1.3.9-1.7.2-.4-.8-1.5-.7-2.1 0-.6.7-.6 1-.1 1.7.2.3.4.8.4 1.1 0 .6 0 .6.8.2 1-.5 1.6-.2 1.4.8-.2.8-.1.8 3.4.3 1.4-.2 3.1-.4 3.8-.3 1 .1 1.5 0 2.3-.4 1.5-.7 2.2-.7 2.6.1.1.4.4.8.6.8.4.2 1.4-.2 1.7-.6l1.5-1.2c1.7-1.3 2.5-1.3 4 .2.6.7 1.2 1.4 1.2 1.6 0 .3-.5.9-1 1.4-1.2 1-1 1.1 1.9.4 2.7-.7 4.6-1.8 6.7-3.7 2.5-2.2 3-3.1 3-5-.2-1.6 0-2 .9-2 .8 0 1.2.8 1.2 2.7 0 2.2-1 4-3.7 6.6l-1.8 2c.3.4 2.3-.5 3.5-1.4 2.5-2 6.4-6 7.5-7.7 2-3 1.3-4.4-1.2-2.7-1.8 1.3-3 1-2.2-.8.2-.6.2-.8-.1-1.3-.3-.4-.5-1-.5-1.2 0-.8 1.5-2.5 2.4-2.7.4 0 1-.3 1.4-.6.6-.3.7-.5.7-1.5 0-1.3.6-2 1.4-1.7.7.4.8.7.9 2.1l.4 4.6c.4 4 .2 5.1-1.3 7a29 29 0 0 0-1.4 2.2l-.5.8.7.3 1.1.2c.7 0 2.4-.7 3.3-1.3 1.3-1 3.1-.6 3.1.6 0 .7-.5 1.5-.8 1.5l-2.7 1.2c-2 1-2.6 1.4-3.2 2.3l-1.7 2.1-.9 1 .6.5c.7.8 1.8.7 4.5-.2 1.4-.5 2.6-1.2 3.5-1.9.7-.6 2-1.3 2.8-1.6 2.5-.8 6.5-3.3 6-3.8l-2.4.8-4.5 1.9c-2 .9-2.8 1-2.8.2 0-.6 1.5-1.5 5.9-3.6 4.5-2.2 5.2-2.7 4.7-3.6-.5-1 .1-1.7 3.2-3.7 2.4-1.4 2.4-3.8 0-2.5-.8.5-.9.5-1.2 0-.3-.4-.3-.7 0-1.3 0-.5.3-1.3.4-1.7l.5-1.3c.7-.8 1.9-.3 1.9.8 0 .7.6 1.3 1 1 .4-.2 1.3.9 1.5 1.9.2 1.1-1.1 4-2.1 4.8-1 .6-1.6 2-1.4 3.4.2 1 .3 1.2 1.4 1.8 1.5.7 4.1.9 7 .4 3.3-.5 4.2-.3 6.8 1.5 1.7 1.1 2.8 1.4 4.2 1 .6-.2 1.9-.5 2.9-.6l3-.4c1.6-.2 5.1 1 6.7 2.1 1.3 1 2.7 3.2 3.4 5.5.6 2.2 1.6 3 3.2 2.7 1.2-.2 2 .2 3 1.2.8.8 1.2 1 2.8 1.1 2.2.3 3.2.6 5.2 1.7 1.2.7 1.5 1 1.8 2 .5 1.5.8 1.7 3.8 3.7 2.3 1.5 2.8 2.2 3 4.2.3 2 .5 2.3 2.2 3.1.8.4 1.8 1.1 2.2 1.6.4.5.8.9 1 .9l2.1-1.1zm-73.6-34.4c-.3-.2-.4-.5-.2-1.9a7 7 0 0 1 .5-2.2c.5-.7 1.3-.8 1.5-.2.3 1 .3 3.5 0 3.9-.5.5-1.2.7-1.8.4zm-42-1c-1-1-.4-2.4 1-2.4 1.5 0 2 1.1.8 2.3-.8.7-1.2.8-1.8.1zm43.9-6.2c-1-.3-2-1.2-2-1.8 0-.3.2-.7.5-1 .4-.5.8-.5 1.5-.4l.9.2v-1.2c0-1.4-.3-1.6-1.6-.9-.5.3-2 .7-3.3 1l-3.2.8c-1 .3-3.1.3-3.5-.1-1-1 0-2 2.4-2.4.9-.1 1.8-.3 2-.5.2 0 1.3-1 2.5-2.2 2-2.1 2.8-3.2 3-4.8.2-.8.1-.9-.4-.9a4 4 0 0 0-1.2.2c-.8.3-1.7-.1-2-.9-.3-.7-.2-.8 1.7-2.2 1.6-1.2 2.3-2.5 2.1-3.7-.1-.7-.2-.7-1.2-.4-1.2.3-2-.2-1.7-1.2.1-.7.7-2.3 1-2.8.4-.7 1.5-.4 2.6.6 1.9 1.7 2.5 3.5 1.8 5.3-.3.9-.2 1 .8.5 1-.4 2 0 2.7 1.3.2.5.7.8 1 .9.9.1 1 .4 1.1 1.5 0 .7-.2 1-1.3 2-.6.6-1.5 1.2-2 1.4-1 .6-1.2 1.2-1.2 3 0 1.3.1 1.7.7 2.4 1.1 1.4 1.3 2.2.6 3.4-.5.9-2.2 2.5-3.3 3h-1zm-.5-7.6 1-.6c.2-.4.2-2.3 0-2.3s-.6.5-1 1.1l-1.2 1.6c-.3.4-.3.5 0 .5l1.2-.3zm1.3-3.7c0-.2-.1-.2-.2.1 0 .3.1.5.2.4v-.5zm3-3.8s-.3-.2-.7-.2c-1.2 0-1.7-.4-1.7-1.6 0-.9 0-1-.3-.7v1.7c.1.6.2 1.7.1 2.3l-.1 1.2L152 29c.8-.7 1.4-1.4 1.4-1.5zm-79.4 11c-.7-.7-.7-.8-.6-2.6 0-1 .3-2 .5-2.4.3-.4.4-1 .3-1.5-.2-.8 0-1 .5-1.5.4-.3 1.1-.5 1.7-.5 2.2 0 2.5 1.6.6 2.5-1.3.6-1.5 1-1.1 2.2.2.9.4 1.1 1.3 1.4 1 .4 1 .6 1 1.3 0 1.7-2.8 2.5-4.2 1.1zM245.8 35c-.5-1 0-1.8 1.5-2l2.3-.3c1.6-.4 2.7.4 2 1.4-.5.7-2.8 1.4-4.2 1.4-1 0-1.3 0-1.6-.5zm-102.2-8.3c-.9-.6-2.5-6-2.5-8.3 0-1 0-1.1-.8-1.1-.5 0-1.3.2-1.8.5-1.7.9-2.4 1-2.7.3-.4-.7.6-2.1 2.3-3 2.5-1.4 4.7-1 6.2 1.3 1.1 1.6 1.2 2.7.3 3.8l-.7.8.6 1.7c.7 2.2.7 3.7 0 4.1-.3.2-.6.2-1 0zm-15.8-.3c-.6-.8.2-1.6 3.7-3.9 3-1.9 3.3-2 3.9-1.8 1.1.5.8 1.4-.8 2.7-3.8 3-6 4-6.8 3zm4.2-8.7c-.3-.3-.5-.6-.5-.8 0-.4-.3-1.2-.9-2.2-.3-.6-.3-.8 0-1.2 1.3-1.4 4.1.6 4.1 3 0 1.3-1.8 2.1-2.7 1.2zM42.9 80c.8-.4 1.8-1 2.2-1.4.8-.9.6-1.2-.9-1.5-.7-.1-1.2 0-3 1-2.2 1.2-2.7 1.7-2.5 2.4.3.6 2.3.3 4.2-.5zm19.6-.9-.3-.4c-.1 0-.2 0-.2.3 0 .2 0 .4.2.4s.3-.1.3-.3zm14-2c.3-.1.6-.8.6-1.4l.3-2.3.2-1-.4.8a4 4 0 0 0-.4 1.2c0 .3-.3.8-.6 1.2-.5.7-.7 2-.3 2l.7-.4zm-38-.6c.9-.4 1.5-1.6 1.7-3.2.1-1.1 0-1.3-.4-1.6-.5-.2-.6-.5-.6-2 0-2 .4-2.6 1.7-2.4 1.3.3 4-.3 5.4-1 .6-.5 1.7-1.3 2.3-2 1.5-1.5 2.8-1.4 2.8.3 0 .4.1.8.3 1 .5.3 3 1 4 1s2.8-.8 2.8-1.2c0-.2-.5-.8-1-1.4-.6-.6-1.1-1.2-1.1-1.4 0-.7 1.2-1.4 2.6-1.6 1.7-.2 2.7 0 3.5 1 .4.5.9.7 1.6.7.8 0 1 .1 1.2.7.5 1 .4 2.5-.2 3.3-.3.3-.5.8-.5 1 0 .3 0 .3.2.2.4-.5 1.3-1 2.5-1.1 2.2-.4 2.2-.4 2-3.5-.2-2.9-.7-4.5-1.5-4.9l-1.1-.4c-.4-.2-1.8-.3-3.8-.3l-3 .1-.9-1-1-1.2c-.1-.3-.5-.3-1.9 0-3.8 1-4.7.5-4.7-2.2 0-2-.5-2.7-2.3-2.6-1 0-1.7.2-2.7.8-1.2.7-1.3.8-3.4.6-2.6-.2-2.7 0-1.4 1.6.7.9.8 1.3.8 2.6 0 3.4-2.6 5.5-4.6 3.9-.7-.5-.9-.5-2-.3-.5.2-1.4.3-1.9.3-1 0-1 .5 0 1.5.6.6.8 1 .7 1.5 0 .7-.3 1-1.6 1.6-.8.5-1.4.9-1.2 1 .1 0 1-.3 1.7-.7 1.5-.7 2-.8 2.8-.4.4.3.5.5.4 1-.3 1-1.3 1.8-3.5 2.4-2.1.6-2.6.8-3.8 1.5-.4.2-1 .4-1.4.4-.8 0-2 1-2 1.8 0 .3.1.7.3 1 .3.3.5.4 1.5 0 1-.2 1.3-.5 1.6-1.2.5-1 1.2-1.6 1.7-1.4.6.2 1.7 2.3 1.7 3 0 .5-.2 1-.5 1.2-.5.3-.5.4-.3.7.2.2.7.1 1.8-.3.9-.3 1.8-.5 2.2-.4.7.2.7 1.2 0 1.8-.3.3-.4.6-.3.7.1.3 1.8 0 2.8-.5zm28.5-.2c0-.2.3-.7.6-1l.6-.7-1.3-.5c-1-.4-2-1.2-3.2-2.4-2.2-2.2-3.4-2.6-5.2-2-1.6.6-2.4.5-3.4-.3-.7-.4-1.3-.6-2.1-.6a12 12 0 0 1-2.2-.3c-1.7-.3-3.1 1-3.6 3.1-.1.8 0 .9.8 1 1 0 2-.2 4-1.2.9-.4 1.9-.8 2.3-.8.9 0 1.6 1 1.8 2.4.1.8.3 1 1 1l1.3.6 2.1.4c.9 0 1.7.3 2 .5.2.3 1 .4 1.6.4.6 0 1.5.2 1.8.4.9.5 1 .5 1 0zm27.1-.8c-.1-.3-.2-.4-.4-.2s-.3.5-.2.8c.2.3.3.4.5.2s.2-.5.1-.8zm-12.4 0c.4-2.4.7-3.2 2-4.5 1.4-1.6 1.7-1.7 2.6-1 .6.5.6.6.3 2.9-.2 1.3-.2 2.4-.1 2.5.2.3.9-1 .9-1.8 0-1.1.1-1.5 1.8-3.2l1.7-1.9c.2-.3 1-.6 1.7-.7.9 0 1.6-.4 2-.8.5-.3 1.1-.6 1.5-.6l1.6-.4c.4-.3 2-.6 3.4-.9l3.2-.6c.7-.3.7-.3-.5-.7a18 18 0 0 0-3.5-.3c-3.4 0-4.8-.7-3.8-1.9.4-.4.7-.5 2.3-.3l2.2-.1c.2-.1.4-.6.5-1 .2-1.3-.2-1.4-2.7-.8-4 1-5.7 1.5-6.7 2.3-.5.5-1.3 1-1.8 1.3-.4.3-1.4 1.2-2 2a8 8 0 0 1-2.6 2.4c-.7.3-1.4 1-1.6 1.3-.2.5-1 1.2-1.6 1.8-2.7 2.3-2.8 2.7-2 4.5.5 1.2 1.1 1.5 1.2.5zM47 75.1c.3-.1.3-.3 0-.8-.2-.5-.2-.6-.6-.2-.2.2-.3.5-.2.7.1.5.2.5.8.3zm21-4.7c0-.4-2.2-.7-2.7-.4-.3.2.5.3 1.5.2.2 0 .4.1.4.3l.4.2c.3 0 .4-.1.4-.3zm12.4-.8c1.5-1.2 2.4-2.4 2.7-3.6.2-.7.6-1.6 1-2 .3-.4.7-1 .8-1.4l.4-1.6c.3-1 0-1.6-.8-1.6-.3 0-.8-.3-1.1-.6l-1-.5c-.2 0-2 2.4-2 2.8 0 .6-1.3 4.4-1.8 5.6-.7 1.3-.7 2.3 0 3.1.5.6.9.5 1.8-.2zm32.7-.3c.4-1 .2-1.5-1.4-2.4l-1.8-1s-.6-.3-1.2-.9c-.7-.5-1.3-.9-1.8-.9-.9 0-.9 0-.4 1 .3.5.4 1 .3 1.7-.2 1-.1 1 1.1 1.7 1.8 1.1 2 1.1 3.6 1.2 1.1 0 1.5-.1 1.6-.4zm123.3-2c1-1 .8-1.2-.4-.8l-1.4.3c-.4 0-1 0-1.3.2-.6.3-.7.4-.4.9.2.4.4.5 1.5.3.9 0 1.5-.4 2-1zm-106.4.4 3.6-.6c1.4-.3 4.4-1.2 5-1.6.3-.2.3-.4.1-1-.2-.5-.4-.6-1-.5l-1.7.3c-.4 0-1.1.3-1.5.6-.8.6-2.4.7-3.1.2-.9-.7-2.2-.5-3.3.4a53.3 53.3 0 0 1-2.6 2.3c0 .4 1.8.3 4.5-.1zm-28.1-.3-.4-.1c-.2 0-.4.1-.4.3 0 0 .2.1.4 0l.4-.2zm23.6-1.7c1.6-1 2-1.5 1.5-1.7a26.4 26.4 0 0 0-9.7-1.5c-2.2 0-3.6.2-3.4.3.2.2 1.4.6 2.8 1 3.3 1.2 4 1.5 4.3 2.3.2.7.3.7 1.7.5 1 0 2-.4 2.8-1zm-8.6.6h-.5c-.2.1-.1.2.2.2.2 0 .4 0 .3-.2zm124.8-1.2c1.3-1.7.8-2-1.2-.7-1.1.7-1.3.9-1 1.2.6.7 1.5.4 2.2-.5zM72.3 64c0-.5-.2-.8-.4-.8-.5 0-.6.9-.1 1.3.4.4.5.4.5-.5zm148.9-.4h-.5c-.3 0-.2.1.1.1l.4-.1zm18.3-1c1-.7 1.6-2 1-2.3-.2-.2-.8-.2-1.3-.1-1 .1-2-.3-2.5-1.4-.4-.8-.4-.8-3.6-1-1.8 0-3.9-.2-4.6-.3-1.3-.1-1.4-.1-1.5.6-.2 1-1.4 1.7-3.6 2-2 .3-2.5.6-1.8 1.2.4.3 1 .3 3 .2 2 0 3-.3 6.3-1.4 4.2-1.5 4.7-1.5 5-1 .5.5 0 1.5-1.1 1.9-2 .8-3.5 1.6-3.5 1.8 0 .5 2.8 0 4-.7.9-.7 1.2-.7 1.7-.5.4.2.6.5.6 1 0 .8.5.8 1.9 0zm-96-.6c1.5-.7 2-1 1.7-1.3-.3-.3-2.2.5-3 1.2-1.3 1-.6 1 1.3.1zm106-.5c.2-.6-.1-.7-.7-.3-.3.1-.6.5-.6.8 0 .4.1.4.6.2l.7-.7zm-122.6-.4c.1-.1 0-.3-.4-.3-.3 0-.5.2-.5.3 0 .2.2.3.4.3s.4-.1.5-.3zm4-2.1c.3-.7.3-.8 0-1-.5-.1-1.7.7-1.7 1.1 0 .4.3.6 1 .7l.6-.8zm-55-2.2v-1.4l-.3 1-.4 1.9c0 .6 0 .7.4.3.2-.2.4-.9.4-1.8zm-5.3.6c0-.3-.1-.2-.2.1 0 .3 0 .5.2.4v-.5zM259 55.9a62.1 62.1 0 0 1 11-5.4c2.4-.3 3.3-.9 3.7-2 .3-1.1.1-1.4-1.1-2-.6-.3-1-.3-2.2 0-.8.3-2.8.6-4.5.8-1.6.2-3.3.6-3.7.7-1 .4-2 1.7-2 2.4 0 .9-.6 1.5-1.5 1.8-.8.3-1.5 1.2-1.5 2.2l-.4 1.5c-.4 1.2-.3 1.5.6 1l1.6-1zm-166.5.2c.4-.4.4-.4-.2-.4-.3 0-.8.1-1.1.3-.5.4-.5.4.2.4.4 0 1-.1 1.1-.3zm144.6-.4h1c1 .1 1-.8 0-1.4-.5-.3-.7-.7-.7-1.2 0-.6 0-.6-.6-.3-.7.3-3.1 2.6-3.1 3h1.5l2-.1zm-170.7-2c-1-2.1-1.5-3.1-1.8-4.3-.5-1.7-.6-1.8-1.9-1.8-.6 0-1.4.2-1.7.4-.5.3-.5.4-.3 1 .6 1.2.2 1.4-3.3 1.4-3.6 0-4 0-4 1.4 0 1.2.6 1.6 1.9 1.2l1.6-.3c.4 0 .8-.3 1-.6.4-.9 1-1.5 1.6-1.5.4 0 .7.4 1 1.3.4 1.2.5 1.4 1.4 1.6a9 9 0 0 0 2 .3c.8 0 1.3.2 2 .8.5.5 1 .8 1 .7l-.5-1.6zm165.4.6a6 6 0 0 0 .8-1.3c0-.2-.4-.3-.8-.3-.8 0-3-.4-4.9-1-.4-.2-1-.3-1.4-.3-.3 0-1.1-.2-1.7-.5-1.6-.7-2.7-.8-2.8-.2-.1.7.6 1.7 2 2.4.9.6 1.2.7 1.6.5 1-.5 2-.4 2.2.3.2.5.6.7 1.3.8l1.5.4c1 .5 1.4.3 2.2-.8zm-11.3.7c.2-.3-1.7-2.5-2.1-2.5-.5 0-.4 1.2.2 2 .5.6 1.5.9 2 .5zm-3.4-4.9 1-.4c.5-.1.5-.2.2-.5-.4-.4-3.6-1.1-3.9-.9-.1.2 1.5 2 1.8 2 .2 0 .5 0 .9-.2zm59.9-4.4h-.5c-.2 0-.2.1.1.1h.4zm-10.5-4-.8-.4c-.6-.2-.7.2-.2 1.2l.3.7.4-.6c.4-.4.5-.6.3-.8zm-41.4.4a40 40 0 0 1-4.4-2.4c0 .3.8 1.6 1.2 1.9.4.4 2.6 1 3.6 1 .5 0 .5 0-.4-.5zm48.3.3s.2-.3.5-.3c.4 0 0-.1-.7-.2-.8 0-1.4.1-1.4.2 0 .2-.2.3-.5.4l.8.2c.7 0 1.3-.1 1.3-.3zm12.4-2.7 2-1.4c.4-.3.4-.4.2-.7-.3-.2-.5-.2-1.3.1-.6.3-1.6.5-3.1.5-1.7 0-2.4.1-3.3.6l-1.2.6 1.2.5c3 1.3 3.7 1.3 5.5-.2zm-14.6-.8c1-.7 1-.8-.2-.7-1.3 0-2.4.5-2.2 1 .2.5 1.3.4 2.4-.3zm2.3-1.2 2.2-1c2.1-.8 2.4-1.3.8-1.3-2.3 0-3.5.6-4.2 2-.3.5-.2.5.3.5.4 0 .8 0 .9-.2zm19.4-5c0-2-.2-2.4-1.5-2.4-.5 0-.6.1-.6.9 0 1 .4 2.2 1 2.8.8 1 1 .6 1.1-1.4zm9.9-1c.7-.7.6-1.1-.3-1.2-.4 0-.8-.4-1-.8-.4-.7-.4-.8 0-1.3.4-.4.8-.5 1.3-.5.5.1.7 0 .7-.3l.4-1.1.4-1-3-1.6c-3.6-1.7-6.4-4-6.8-5.5-.3-1.4-.7-6.4-.5-7.5.1-.6.6-1.2 1.2-1.7 1-.8 1.2-.9 2.5-.8 1.1 0 1.5 0 1.5-.4 0-.2-.3-.4-.7-.4l-2.8-.4c-2.2-.2-12.1 0-12.5.4 0 0 0 .6.3 1.1.4.9.5 1 1.3.8 1.5-.2 3.5.5 4.6 1.8.9 1 1 1.1.7 2-.4 1.8-.2 4 .4 5.2l1.1 3.4c1 4.2 2 6 3.6 6 1 0 1.7.5 1.7 1.2l.5 1.4c.3.6.6 1.4.6 1.8 0 .5.1.9.3 1 .6.1 4-1 4.5-1.5zm-4.6-4.5c-1.4-1.2-.8-3 .8-2.3 1.1.7 1.8 2.5 1 2.8-.7.3-.9.2-1.8-.5zm11.1 2.6c1.2-.5 1.4-1 .4-1.4-.5-.3-.6-.5-.6-1.4l.2-2.3c.3-1.4.2-1.6-.4-.8-.2.3-.6.5-.8.5-.3 0-.3.2-.2 1 .1.6 0 1.3-.4 2.3-.7 2-.7 2.6.1 2.6a6 6 0 0 0 1.7-.5zm30.6 0c0-.2 1-.3 2-.3 1.8 0 2-.4 0-.8-.8-.2-1.2-.1-1.8.3-.5.3-.9.6-.9.8 0 .3.5.3.7 0zm-2.8-1.5c.4-.4.8-.7 1-.7.1 0 .6-.4 1.1-1 1-1 1.8-1.1 3.3-.4.9.4 1 .4 1.6 0 .8-.5 1-1.3 1-2.6-.2-.8-.2-.9-1.2-.8-.8 0-1 0-1.3-.7-.2-.4-.5-1.3-.6-2-.3-2.6-2.5-5-4.6-5-.8 0-1.2.3-2.6 1.8-1.1 1.2-1.8 1.7-2.3 1.7-.7 0-1.5 1-1.8 2-.1.4-.6 1.3-1.2 2-.7 1.1-.8 1.4-.5 1.8.1.2.3 1 .3 1.8v1.4l1.5.2c1.7.2 3.9.8 4.1 1.2.2.4 1.5 0 2.2-.7zm7.4.5h-.6c-.2 0-.1.1.2.1l.4-.1zm6.2-.5c.4-.5.1-.8-.5-.5-.3.2-.7.4-1 .4-.2.1-.4.3-.4.5 0 .4 1.6.2 2-.4zM318 28c.1-.2 0-.3-.2-.3-.3 0-.4.1-.3.3l.3.2.2-.2zm-36.3-.7 1.1-.6h-1c-.6 0-1.5 0-2 .2-1.9.6-5-1-5.4-2.6-.4-1.4 1-1.8 2.7-.7 1.2.8 2 .8 3.9 0 1-.5 1.8-.7 2.6-.6h1l.3-1.2c.2-1.1.2-1.3-.4-2-.6-.7-.7-1-.5-1.2.2-.3.1-.4-.5-.7-1.8-.7-1.3-2.1.7-2.1 1 0 1.1 0 2-1.5l1-1.4-.7-.6c-.6-.4-1-.5-2-.3l-2.4.2c-1.3 0-1.4 0-1.5-.7 0-.5.1-1 .4-1.3.5-.5.5-.6 0-1.5l-.6-1H276l-9.8.1a27 27 0 0 0-5.7.3l.5 1.2c.4.6.7 1.4.7 2 0 .8 1 2.1 1.8 2.1.6 0 2.2 1.8 2.2 2.4 0 .9 1 2.4 1.4 2.4.5 0 1-1.6 1-3.2 0-1.7.2-2.1 1-2.1.6 0 .8.1 1 .7.3 1.2-.1 3.9-.8 5.4-.4.8-.7 1.7-.7 2 0 .8 3.4 4.4 5 5.3l2.1 1.1c1.4.8 4.3.8 5.9 0zm9.1.4c.2-.2 0-1-.6-2.9a105.2 105.2 0 0 1-2-5.9c-.3-1.3-.8-1.6-2-1.4-1.6.3-1.9.8-.6 1.2 1.2.3 1.6 1 1.4 1.7-.2.5.3 2 1.2 3.6.9 1.7.1 2.5-2.1 2.3-1 0-1.4 0-1.4.3s.6.5 2 .7l2 .5c.3.3 1.8.2 2.1-.1zm34.4-1.2c1.2-1 1.4-1.6.9-2.5-.4-.7.2-1.8 1.7-3a5.9 5.9 0 0 0 1.6-6.7c-.6-1.1-1.1-1-1.8.3-.5 1-.7 1-1.5 1h-1v-1.3c0-1.5-.3-2-1.4-2.3a2 2 0 0 1-1.2-.9c-.9-1.4-1.4-1.6-3-1.5-1.2.2-1.3.2-1.7-.6l-.4-.9h-5l-.4 1.4c-.7 2.2-.6 2.3.8 2.3.6 0 1.4.2 1.7.3.7.4.6 1.4-.2 2.3-.5.7-.6 1-.6 2.9 0 1.3-.2 2.3-.4 2.8-.6 1-.5 1.4 0 1 1-.9 1.4-.8 2.2 0 .5.5.8 1.2 1 2 .3 2.2 1 2.4 1.8.6.5-1.1 1.5-1.6 2.2-1 .5.2.6 1.3.2 2.3-.2.8.2.8 1.1 0 .8-.6 1.3-.6 1.9 0 .4.5.5.7.3 1.5l-.1 1 1.3-1zm22.5-.5c.2-.4.4-1.3.3-1.9 0-1 0-1-.2-.2-.6 2.2-.7 3-.6 3 .1 0 .4-.4.5-.9zm-35.2-1c.5-3.7.2-4.6-.5-1.5l-.6 2.6c-.2.7-.2.7.4.2.3-.3.6-.9.7-1.3zm38.6-.1c-.3-1.2-.7-1.4-.7-.3 0 .7.2 1 .5 1s.4-.2.2-.7zm-43.6-2.4c1.1-2 2-7 1.4-8.4-.3-.9-.8-.9-1.6 0-.7.8-.8 2-.4 4.5.2 1.4.2 1.4-.4 1.7-.8.4-2-.1-3-1.3-.9-.8-.8-1.2.2-2.2.8-.8.8-1 1-3.2l.1-2.4h1.3c1.2.1 1.4 0 2.3-.9 1.2-1 1.2-1.4.6-2-.4-.3-1.4-.4-3.7-.6l-3.3-.2-.3.8c-1 2.5-1.5 3-3.4 2.5-1.8-.3-2-.1-1.9 2.3.1 3.6.2 4 2.2 6 1.5 1.4 2.3 2 4.8 3.2a20 20 0 0 0 3.3 1.3c.1 0 .5-.5.8-1.1zm39.6-3.2a3 3 0 0 0-.4-1c-.4-.5-1.2-.5-1.5 0-.2.4 0 .6.7 1.1 1.3.8 1.3.8 1.2 0zm3-3c0-3 0-3.6-.4-4.4-.8-1.6-3.3-3.2-5-3.2l-2.8-.4a74.1 74.1 0 0 0-15-.5 25 25 0 0 0-2.6.4l.7.3c.6.1 1 .4 1.4 1.2.5 1 .5 1 1.6.9 1.3-.1 2.7.6 3 1.4l1.2 1.7c.8 1.2.9 1.3 1.6 1l1-1c.3-.2.9-.6 1.5-.8 1-.4 1-.4 2.2 0a18 18 0 0 1 3.8 1.8 9 9 0 0 0 2.6.1l2.3-.1.8 1c.5.6.9 1.2.9 1.4 0 .3 1 2.7 1.2 2.7v-3.5z"/>
</svg>
