<?xml version="1.0" encoding="utf-8"?>
<svg xmlns="http://www.w3.org/2000/svg" xmlns:svg="http://www.w3.org/2000/svg" version="1.1" viewBox="0 0 419 311">
  <title>Ginger and Pickles sit next to each other in the shop and eat, lit by a candle.</title>
  <path d="m183.5 310.2-.2-1c0-.5.2-.7.7-1 .9-.2 7-.8 10.3-.8 2.5 0 3.5.3 3.5 1 0 1-.5 1.3-2.3 1.5-2.8.3-11.8.5-12 .3zm-9.3-5c-.7-.4-.4-1.6.4-2 .3-.2 2.7-.3 6.1-.4 5.8-.1 10.8-.4 14.7-1 2.3-.3 3.3-.1 3.8.7.3.3.2.5-.1 1-.4.3-1 .5-3.2.6-1.4.1-3 .3-3.3.5a34.1 34.1 0 0 0-6.4.4c-6 .6-11.4.7-12 .3zm156.7-.4c-2.5-.2-3.2-.5-3.2-1.7 0-.6.2-1 .5-1.2l3.8-.4 8.6-.4c5.7-.3 6.3-.2 6.7.9.4 1-.6 2-2.6 2.6-1.1.3-10.9.4-13.8.2zM118 302.6c-2.5-.2-4.7-.4-4.8-.6-.7-.7-.4-2.2.5-2.7.8-.3 1.1-.4 2.7 0a335.6 335.6 0 0 1 25.2 1c1.6 0 2.2.2 2.7.7l.7.6-.6.7-.7.7-6.5-.2h-14.1c-.3 0-2.6 0-5.1-.2zm227.7-3.4c-2.3-.2-7.5-.3-14.8-.2-5 .1-5.2.1-5.7-.5-.7-.6-.8-1.2-.3-1.7s3.7-.7 14.5-.9c10.5-.2 12.6.1 12.4 2-.2 1.2-2.4 1.7-6 1.3zm8-7-4.7-.3c-4.2-.1-4.5-.2-6-.9-1.4-.7-1.8-.8-5-.9-3.4 0-8.7.2-14.5 1-2.7.3-7 .2-9-.3-1.4-.3-2.1-1-2.1-1.9 0-1.2.5-1.4 4.5-1.5 4 0 5.8-.2 5.8-.6 0-.1-.2-.3-.5-.3-1.1 0-2.1-1.9-1.3-2.5.5-.4 1.7-.7 2.9-.8l3.8-.3a122 122 0 0 1 9.6-.7c.1-.1-.1-.4-.4-.8-.6-.5-.9-.5-3.7-.6-2.1 0-3.6-.1-4.5-.4-1.3-.4-1.8-.4-5.4 0-2.1.1-4.1.4-4.4.6-.5.3-.5.4.3.6 1.1.4 1.4 1.3.5 2.3-.7.9-1.5 1.2-4.6 1.6l-3.8.5a133.7 133.7 0 0 1-16.3.2c-.6-.2-1-.6-1-.7 0-.2-.2-.3-.4-.3-.3 0-.7 1-1.2 3.5-.3 1.3-1.3 2.3-2.2 2.3-1.4 0-5-1.6-8.9-3.9l-1.6-.8-1-.5c-1.2-.7-3.6-.6-5.6.3-1.6.7-1.8.7-4.2.6l-2.8-.4-1.5-.5a32.7 32.7 0 0 0-13.8-1.8l-6.6-.1c-1-.2-8-.8-9.8-.8a109.5 109.5 0 0 0-15.9 1.7c-3.3.2-3.7.1-6.8-1.3-1.4-.6-2-1.2-3.8-3.4-.9-1.1-4.1-2.9-5.3-2.9l-2.4.2-2-.1c-.6-.3-1-1.6-.8-2.3.5-1.2 4.2-3.6 6.3-4 1.3-.2 1.6-.5 1.6-1.5 0-2.7 3.8-4.6 10.5-5.2 3-.2 7.3-1 7.7-1.4.1-.1-.5-.9-1.3-1.7a9.1 9.1 0 0 1-2.8-4.4c-1-3.2-1.2-3.8-1-5a204 204 0 0 0 1-7.1c-.3-.4-1.8.2-2.7 1.1-.5.6-1.1 1-1.2 1l-1.1.8a8.9 8.9 0 0 1-2.8 1.7l-1 .2c-.3 0-.5.1-.5.3 0 .1-.3.2-.7.2l-1.2.3c-.4.2-1.7.3-3.4.3-3.2 0-4.3.2-5 1.1-.4.4-1 1-1.6 1.2a25 25 0 0 0-3.5 2.2 538.4 538.4 0 0 0-5.5 3.6c-.6.3-2.7 2-4.7 3.9a60.8 60.8 0 0 1-7.6 6.2 23 23 0 0 1-5.4 3.6c-.3 0-1.3.8-2.2 1.7-1 .8-2 1.7-2.6 2-.5.2-1.3.8-1.8 1.2-.5.4-1 .8-1.3.8-.3 0-1.4.8-2.5 1.8-1.2 1.2-2.2 1.9-2.7 2-.5 0-2.3-.1-4-.4-4.3-.7-5-.7-5.7.1-.5.6-.8.7-2.2.7a156.6 156.6 0 0 1-13.6.7l-10 .1c-.4 0-2.6 0-4.9-.2-4.6-.3-7.2-.9-8.6-1.8-.9-.6-1-.6-1.8-.1l-2 .6c-1.7.3-3.3.9-2.9 1l3.6.2c3.6 0 4 .1 4.2.9.2.8-.5 1.7-1.6 1.9-2.5.5-7.4.7-14.2.6a38 38 0 0 1-9-.6c-1.5-.5-1.7-.5-11-.4-4.1 0-7.1 0-8.7-.2a22 22 0 0 1-7.9-2.6c-.8-.7-.3-.7-7.5 0a55.6 55.6 0 0 1-16-.6c-1.3-.1-1.7-.3-2.1-.9-.6-.7-.5-1.6.3-2a30 30 0 0 1 4.7-.4c5-.2 6.4-.4 6.4-.7 0-.1-.4-.3-.9-.3s-1 0-1-.2c-.1-.1-1-.4-2.1-.5a30 30 0 0 1-4-1.1l-2.3-.7-3.3.3c-7 .7-13.4.4-16-.7-.4-.3-.6-.2-1.1.3-.9.7-1.2.7-2.5-.4-.6-.5-1.2-1-1.5-1-.4-.2-1-1.3-1-2.1 0-.5-.1-.6-1.3-.6-1.3 0-2.5-.6-4-2l-1.1-.8c-.5 0-1.5-1-1.7-1.9 0-.5 0-.8.5-1.4l.6-.7h17.2c.8 0 1 .2 1.4.9.4.6.6.7 1.2.7.7 0 .8-.2 1.1-1.4.3-1 .3-2.2.2-4.1-.1-2.5-.5-4.9-.6-3.7 0 .3-.3.7-.7 1-.7.5-1.3.6-4.6.6l-4.2-.1c-.4-.3-.4-2 0-2.3 1-.7 6.1-1 8.9-.4l.8.2V248c0-6.4-.2-7.5-.6-8.2-.4-.9-.4-1 .2-2.6.7-2.1 1-2.5 2-3.7.6-.6 1.2-1.4 1.4-1.8.3-.4 1-.9 1.8-1.1a88.7 88.7 0 0 0 4.7-1.8 125.9 125.9 0 0 1 .5-15.1c1-10.4 1-14.4.1-20.8a22 22 0 0 1 .6-9.2c.7-.9.7-4.8 0-5.5-.4-.4-1.5-.4-3 .1l-2.5.6c-1 .1-2 .4-2.4.5a30 30 0 0 1-9.5-.3c-2 0-3.2-1.3-2.3-2.6.4-.6.5-.6 2-.5 1.3 0 2 .3 2.3.6.7.6 4 .9 6 .4 7-1.5 8.8-1.8 10.8-1.5 1.9.3 2 .6 1.7 7.9l-.3 7.8.2 5.1c.6 8.8.2 18.7-1 24.7-.2 1.4-.2 1.6.2 1.8.6.4.8 2 .4 3.2-.6 1.8-.5 1.8 4.9-.2 1.2-.5 2.5-.9 5.7-1.8 2.6-.8 3.6-1.1 5.3-1.8l3-1c3.3-1 4.2-1.6 4.7-3a18 18 0 0 1 2-4.2c.7-1 1.5-4 2-6.8 0-.9.2-1.8.3-2.1.2-.5 0-.8-.5-1.4-.8-.8-.8-.8 0-3.5.2-1 .6-3.4.8-5.5l.7-5.8a54 54 0 0 0-.2-10.4c-.2 0-.4-.5-.4-.8 0-.4-.2-1-.5-1.3-.7-1-.5-1.3.7-1.1.8.1 1 0 1.2-.6l.6-3.4a36.8 36.8 0 0 0-3.8-22.7c-1.2-1-.9-2.8.5-2.8.9 0 2.3 1.3 2.5 2.4.1.5.5 1.5 1 2.3.5 1 .7 1.3 1 1 .7-.3 1.5.2 1.7 1.1l.5 2 .5 2.7a79.7 79.7 0 0 1 .2 23c-.2.7-.3 2-.3 3.1s0 2-.3 2.3c-.3.3-1 3.2-1.2 6a58.6 58.6 0 0 1-1.2 7.7l-.4 2.5v1.7c.1.5 1.2-3 2.2-7.3l1-3.4c.6-2.2 1-4.2 1.8-8.6 1.2-7 1.6-10.1 1.6-15 0-4.5.2-5.1 1-5.1.5 0 .7.1.9.8.1.7.1.7.2-.3A84.2 84.2 0 0 1 73 153c-.5-3.5-.4-4 .7-4 .6 0 1 .7 1 2.1 0 1.2.4 4.1 1.3 9a54.4 54.4 0 0 1 1 7.1c.2.6 1.6-1.8 1.8-2.9a65.7 65.7 0 0 1 3.3-10 26.8 26.8 0 0 1 3.2-6.5l1.2-2c1.5-2.4 3.4-4.5 4-4.5.4 0 1.4-.8 2.4-1.7 2.2-2 2.2-2 1.9-2.5a33 33 0 0 0-8.4-.3c-6 0-8.2-.1-8.5-.3-.4-.5-.4-1.5.1-2 .4-.3.4-.4 0-.5h-2.5c-1.8.1-2.3.1-2.8-.3-.9-.5-.8-1.4.1-1.9.6-.2.6-.3.2-.3-1 0-2-.9-2-1.6 0-1 .3-1 3.3-1.1 2.6 0 13.5.3 14.4.5.5 0 .6.2.5 1.3 0 1.1 0 1.2.8 1.4.5.2.9.5 1 1 .2.7 0 1-1 1.5-.9.4-.8.4 1.7.4 1.4 0 3.1.2 3.8.3.8.2 1.3.2 1.4 0 .7-.5 2.4-6 2.4-7.5l.3-1.2a41.9 41.9 0 0 1 5.4-10.1c2.3-3 3.2-4 5.4-5.3l3.9-2.4 1.6-1 .1-4c.2-3.8.2-3.8 1.2-5.8 1.2-2.2 1.8-3.3 2.5-4.1l.8-1.6c.2-.6 1-1.6 1.6-2.4.7-.7 1.6-1.8 1.8-2.3a8 8 0 0 1 1.2-1.6 57 57 0 0 1 5-3.7c.7-.4 2.3-.7 3.3-.7 1.6 0 2.4-.5 2.7-1.6.1-.6.6-1.3 1-1.7 1-.9 1-1.3-.6-2-1.3-.6-1.6-.8-2.2-2.4-1-2.6-.8-3.6 1-4.4 1.3-.6 3-.9 6.8-1 3.3 0 4.6-.4 6.1-1.4 2-1.2 5.5-1.7 7-1 1.6.9 2.4 3.5 1.7 5.3a7 7 0 0 0-.5 1.2s.7.4 1.5.6c.8.3 1.8.9 2.3 1.3l.9.7v3l.2 3.1 1 1a61 61 0 0 1 2.3 2.7c.8 1 2.1 2.3 3 3L171 91l1.9 1.8v2.4c0 2.7.1 3.2 1.3 4.2.5.4 1.1 1.2 1.5 1.7a8 8 0 0 0 2 2l2.3 1.6c.4.5 1.1 1 1.4 1l2 1.2a6 6 0 0 0 2.2 1c1.1 0 3.4 1.7 4 3 .1.5.2.8 0 1.2a3 3 0 0 0-.3 1.2c0 .4-.5 1.2-1 1.8-.5.6-1 1.3-1 1.6a8 8 0 0 1-3.3 1.8l-1.3 1c-1 .8-1 1-1 1.8.3 1 .6 1.6 1.5 2.6.6.6.8 1 .8 2 0 .9.2 1.4 1.2 2.7.8 1 1.2 1.8 1.2 2.4 0 .9-.8 1.9-1.9 2.3l-2.2.9-1.6.6 1.2.3c1.1.4 3.2.4 6.3-.2l4.2-.4c1.8-.1 2.4-.2 2.4-.5s-.6-.4-2.7-.4c-2.3 0-2.8 0-3.2-.5-.5-.6-.5-.8-.1-1.4.3-.5.6-.5 6 0 6.5.4 16.2.5 27.2.2a66.3 66.3 0 0 1 9.7 0c.3-.1.7-.1 1 .1.6.3 1.4.3 4 0a111.8 111.8 0 0 1 12.6-.3 257.3 257.3 0 0 0-19.3-.4c-7.8-.2-12-.2-15.5 0-4.3.3-5.2.2-5-.7 0-.8 1.2-1 6.7-1 7.4-.3 18-.7 20.2-1 1.8-.1 1.9-.1.9-.3-1.5-.3-15-.3-19.9 0-8.8.6-15.7.7-16.8.4-1.1-.3-.7-2.2.4-2.2.4 0 .7 0 .8.2.1.2.9.3 1.7.3.8 0 1.3-.1 1-.2-.3 0-.7-.2-.9-.4l-1.8-.6c-1.5-.3-1.6-.3-1.6-1-.2-1.5 1.6-1.9 5-1l3.9.6c2.2.3 33.6.4 45.8.2a664 664 0 0 1 36 .5c7-.2 26.2 0 35.8.3 5.8.2 16.3.4 23.4.4 8.5 0 12.8.1 13 .3.6.6.2 1.5-.7 1.7-.9.3-17.6.4-18 .2a768.2 768.2 0 0 0-41-.6c-.6-.2-1.6-.3-3.7-.3a2204.5 2204.5 0 0 1-23 .6c-.4 0-.7.3-.7.5 0 .3 1.2.4 6.5.4 5.6 0 6.5 0 6.8.4.2.3.3.5 0 .9-.2.3-.7.4-2.2.5-1.2 0-2 .2-2 .3 0 .2-.3.3-.7.3-2.1.2 5 .4 8.2.3 4.5-.2 17.3-.2 31.5-.1 9.2 0 14.4 0 23.8-.3 2.4-.1 8.8-.3 14-.3 9.5-.2 9.5-.2 10.2.4.9.6 1 1.4.3 1.8-.7.4-.7.4-6.5 0l-4.8-.2-.8 1-.9 1h-6.3c-6 0-6.4 0-7 .5-.5.4-1 .5-5.3.6l-5.1.1c-.2.1-.4.5-.5 1-.2 1-.9 1-1.3 0l-.2-.8-7.4.2a2383.8 2383.8 0 0 1-41.4.3 771.6 771.6 0 0 1-35 .2c-.7.4-1 .4-2.3 0-1.6-.5-6.5-1-8.2-.8l-2.8.4-8 .4-8 .2-8 .3-10.1.3c-2.3 0-6.9.2-10.2.1-9.9 0-11.8-.3-11.8-1.7 0-.7-.6-1-1.2-.5a6 6 0 0 1-1.3.6c-1.7.5-2.8 1-4.3 2-3.3 2.3-3.2 2.3-4.4 1.3-.8-.5-1-.6-1.8-.4-2.2.7-5.3 3.7-4.5 4.5.4.4 4.5.4 17.7.1 7.1-.1 9.7 0 10 .1.6.3.7.6.7 2 0 1 .1 2 .3 2.4.3.6.4.7 1.9.7a49 49 0 0 0 9.1.6c2.3 0 4.3 0 4.4.2.7.5 2.4.8 6.6 1 5 .4 6.8.4 7.1 0h.7a328.2 328.2 0 0 1 7.5.7c1 .1 2.1 0 2.7-.1.7-.3 1-.2 1.7 0 .4.3 1.4.5 2.1.5 1.5 0 2.6.4 2.8 1.3.1.2.4.5.8.7.3.1.7.5.8.8.2.4.4.6.5.6 0 0 .2.4.2.9 0 .7 0 .7.4.5.3-.3.3-.5-.1-1.4l-.9-2.8-.3-1.6-1.3-.3c-.8-.1-3-.3-5.2-.3l-4-.1a2050.2 2050.2 0 0 1-27.8-2.8 109 109 0 0 0-5-.4c-2.5 0-3.2-.3-3.2-1.2 0-.9 1-1.1 3-.8l3 .3a173.3 173.3 0 0 0 16.6 1.6l7 .5c1.7.2 6.7.3 11.2.4 4.4 0 8.3.1 8.6.2.5.2.6.5.8 1.5.1 1.1.3 1.5 1 2 1.3 1 1.6 2.1 1.2 4.2-.2 1-.2 2 0 2.6v4.7a367.6 367.6 0 0 0 1 33.8l.2 7.6c.1 3 .3 5.6.5 6l.3 3.3.2 4.5c.2 1.3.1 2.4-.1 3.6-.5 2.1-.2 2.3 1.7.8.8-.6 1.8-1.2 2.4-1.4.6-.2 1.4-.5 1.8-.8 1.2-.8 2.3-1 3.5-1 .8.2 1.5 0 3-.4 1.7-.6 2.1-.7 7-.7 4.8 0 5.4 0 6-.5.5-.3 1-.5 1.3-.5.8 0 1.5-.5 2.8-1.7.6-.5 1.2-1 1.4-1 .2 0 .4 0 .4-.2 0-.4 1.4-1 3-1 1 0 2.2-.3 2.9-.6l2.5-1a14 14 0 0 0 5.6-3.5c1-1 2.3-1.6 3.3-1.6l2.5-1.3c1.3-.8 2.8-1.4 3.3-1.5 1-.2 3.4-1 5.7-1.9.5-.2 2-.4 3.7-.5 2 0 3.2-.2 4.3-.6 1.4-.6 1.9-.6 4.1-.5 3.5.2 5.3.5 6.3 1 .5.3 1.9.6 3 .8 3.7.5 4 .5 4.3 1 .1.1.6.3 1 .3.8 0 1.3.4 2 1.3.1.4.7.9 1 1 .5.3 1.5 1 2.3 1.8a29.6 29.6 0 0 0 4.8 3.5 25.6 25.6 0 0 0 4.8 3.2c.7.5 1.5.8 2 .8.6 0 1.2.3 2 1l2 1.8c1.9 1.6 3.9 4 4.4 5.1.3.7 1.2 1.9 2 2.6l1.8 2c.7 1.2 2.2 2.9 4.6 5.2 1.5 1.5 2 2.3 2.2 3 0 .4.7 1.8 1.3 3 .8 1.4 1.2 2.7 1.4 4 .2.9.5 2.2.8 2.9l.6 1.8c0 .4.1.8.3 1 .6.4 2 .5 2.8.1 1-.5 5.3-.6 7.8 0a8 8 0 0 0 2.4.2l2.3-.3c1.9 0 2.2 0 2.7.5.7.6 2.4 1.2 4.7 1.6 1 .2 2.3.7 3.4 1.3 1.6 1 1.9 1 3 1 1.2-.2 1.3-.2 2.3.7 1.3 1.1 1.8 1.3 3.7 1.6.8.1 1.8.4 2.2.6a5 5 0 0 1 2 2.7c.1.4.4.7.7.8 1.4.2 1.8.4 2.1 1.1.3.6.4 1.1.3 1.8-.1.9 0 1.1.5 1.8 1 1 .9 2-.3 3.9a49 49 0 0 0-1.6 2.9 8 8 0 0 1-4.3 3.6c-.7.2-1.7.6-2.3 1-1.4.8-4.8 2.1-6.2 2.5l-6.2.5a52.8 52.8 0 0 0-12 1.6c-.9.2 1.4.3 3.9.3 1.7 0 2 0 2.6.6.8.8.8 1.4 0 2.2-.6.6-.8.6-6 .6-3 0-6.3-.2-7.3-.4-1.7-.2-2-.3-2.2-1-.3-1 0-1.4 1-1.8.8-.3.9-.4.5-.6-.3-.2-1-.1-1.7 0-1.8.5-2 .5-6.8.9-2.4.1-5.3.4-6.5.7-1.2.2-2.5.3-3 .2-1-.2-4.1.3-4.1.7a251.4 251.4 0 0 1 14-.1c3.5 0 4.3 0 4.8.4 1 .6 1 1.6-.1 2.6-.8.7-1 .8-2 .6-1.5-.2-10.2-.1-11.7.1-1.3.3-14.8.7-16.7.6-2.4-.2-5.6 0-7 .2-1 .2-1 .2.8.3 3.1 0 5.1.4 5.9 1.1l.6.6h11.8c10 0 12 0 12.6.4 1 .5 1.2 1.4.6 2.3-.6.9-1.8 1.1-5.4.9a48 48 0 0 0-9.9.1zm-22.3-5.2c3.2 0 4.9-.4 2.1-.5-2.3 0-8.3 0-8.4.2-.4.3.8.6 1.8.5a46 46 0 0 1 4.5-.2zm-42.5-1.8.6-1.3a14.8 14.8 0 0 1 8.7-6.5c.4-.3.2-.4-1.3-.5l-3.4.1a42 42 0 0 1-10.2.3c-2.7-.4-3-.3-6.6.9-3.6 1.2-4.3 1.3-5 1-.4-.2-2-.5-3.8-.5a19 19 0 0 1-4-.5c-.6-.2-1.6-.4-2.3-.4-1.6 0-1.9-.2-2.1-1.6a15 15 0 0 0-.6-2.2c-.3-.8-.4-1.2-.1-1.7.4-1 1.2-2.2 2.3-3.4l1-1.1-.7-1.3c-.7-1.6-1.7-2.3-2.6-1.8l-.7.5c-.2.3-1.8.7-2.6.7-.4 0-1.1.2-1.7.5a5 5 0 0 1-1.4.6c-.3 0-.3 0 0 .4.1.2.5.4.7.4.8 0 1.4.9 1.5 2.4.1 1.1 0 1.5-.3 1.8-.5.4-1.5.2-2.6-.8-.5-.5-1.6-1-2.3-1.3l-2.8-1.2c-1.7-.8-4.6-1-5.3-.3-.4.4-.4.5 0 .7l1.1.2c1.6 0 2 1.4.6 2.5-.7.6-1.2.9-1.9.7l-3 .4c-3.2.5-3.4.4-5-.9l-.7-.6-4.7.2-5.3.2-3.4.3c-1.5.2-3.7.5-4.8.5a8 8 0 0 0-3.1.9l-2.1 1c-.5.2-.9.6-.9.7 0 .2.6.8 1.3 1.4 1.3 1 1.5 1 4.8.4.7-.1 3.5-.4 6.3-.5l5.9-.5c.5-.2 1.4-.2 2.2 0 .8 0 3.2.2 5.3.1 4.7 0 6.6.2 7.9 1 .7.5 1.3.7 2.5.7.9 0 2.3.2 3.2.4 1.6.5 2.5.5 5.7.3 1.1-.1 2.3 0 3 .1 1.5.4 1.8.4 3.8.7.8 0 2.3.4 3.4.8a31.7 31.7 0 0 0 6.5 1.3c.4.1 1.4 0 2.6-.3 1.3-.4 2.9-.5 5-.5 4 0 4.8.3 8 3 2.3 2.1 3 2.4 3.4 1.6zm8-2.4c-.3-.2-.5-.2-1 0s-.5.3.3.3c.7 0 .9 0 .6-.3zm54.9-.4c.7-.7-8-1-8.8-.2-.5.3-.5.3.1.4.9.1 8.5 0 8.7-.2zm-273.7-2.6c1.6 0 2.1-.6.8-.8-2-.4-4.5-.3-5.2.2-.4.3-1 .5-1.2.5-.3 0-.3 0 .2.2.3.2 1.4.2 2.4.1l3-.2zm231.4-.6a5 5 0 0 1 1.7-.1c1.8 0 2.3-.3 1.2-.8-.7-.2-1.3-.3-3.2 0-5.1.7-5.2.7-6.2 0l-1-.5c-.1 0-.2.4-.2 1v.9l3.7-.1c2-.1 3.8-.2 4-.4zm-226.8 0h-1c-.4 0-.2.1.4.1h.6zm6 0h-.5c-.2.1-.1.2.2.2.3 0 .4 0 .3-.2zm20.3-.2c.2-.1.5-.4.5-.6 0-.3-.5-.3-2.6-.2-4.2.3-5.2.6-2.2.6a11 11 0 0 1 3.6.5l.7-.3zm-63-1c0-.3-.3-.5-1-.5-1 0-1.2.5-.3.7 1.1.2 1.3.1 1.3-.3zm2 .2h-.5c-.2 0-.2.1.2.1.2 0 .4 0 .3-.1zm7.5-.4c1.6 0 1.2-.1-1.7-.3-4.2-.1-5 0-5 .4a94 94 0 0 1 6.6-.1zm6.8-.3c-.2-.5-3.3-.6-4-.1-.5.4-.4.4 1.8.4 1.7 0 2.3 0 2.2-.3zm95.2-1.5 1-.4c1.7-.3 1.7-.3 1.3-5.8-.3-4.6-.3-9.8 0-17 .2-2.8.2-3-.4-4-.4-.9-.5-1.2-.3-1.5.6-.5 0-1-1-.7-.4.2-.6.2-.7 0 0-.2-.6-.3-1.2-.3s-1.5-.1-2-.3c-.6-.1-3.4-.2-7.7-.2h-15.6c-3.1 0-7.7.1-10 .3-2.6.1-8.1.2-13 .1h-9.2a113.8 113.8 0 0 1-21.4-1.5l-4.2-.4c-4-.2-8-.8-8.8-1.3-.8-.4-1.8-.4-10-.3-15.2.3-17.3.3-20.2-.2-2-.3-3-.6-4.2-1.2-1.3-.8-1.6-.8-2.8-.7-2.2.2-2.2.3-2.2 5.5 0 2.5.1 5.7.3 7l.2 2.4.2-1.6.4-3c.1-2.3.7-6 1-6.5.3-.6 1.1-.6 1.5 0 .1.3.3 1 .3 1.6 0 1.3.2 1.6.6.8.4-.9 1.7-.8 2.2 0 .4.9.4 3.8 0 6.1a78 78 0 0 0-.7 10.2c.3.8.3 1.1 0 1.7-.5.8-1.6.9-2.4.2l-.6-.4c-.4 0-.2 1.2.2 1.7.5.6.5 1.5 0 2.2-.5.7-1.2.7-2 .2-.7-.4-.7-.4-1.5.4l-.7.8 1.2-.2c.6-.1 2.1-.2 3.3-.1 1.6 0 2.4 0 3-.4.7-.4 1-.4 2.5-.1a808.9 808.9 0 0 0 26.1 1.2c5.8.1 7.6.4 7.6 1 0 .3.8.2 2-.2.6-.2 1.6-.3 2.3-.3a61319.7 61319.7 0 0 1 8.8 1l2.7.3c5 .3 6.4.5 7.5.9 2.1.7 6 1 14 1a414.8 414.8 0 0 1 21.2.6c1.9 0 4.7.2 6.3.4l6 .6c3 .2 3.3.1 7.4-.8 1-.3 2.5-.4 3.9-.3 1.9 0 2.5.2 3.7 1 1.4.7 3.7 1 4 .5zm-2.5-2.6a12 12 0 0 1-.3-3c0-1.3-.1-3-.3-4-.1-.9-.2-1.8 0-2 .1-.6.5-4 .8-8.6.5-7 .9-8.7 2-8.7 1.2 0 1.3.5.8 5-.8 8.7-1 15.9-.3 19.4.1.5 0 1.1-.2 1.6-.4.6-.6.7-1.3.7-.6 0-1-.1-1.2-.4zm-29-4.1a61.7 61.7 0 0 1-.6-15.5c.3-.4 1.7-.4 2 0 0 .2.2 2.8.2 5.9 0 3 0 6.3.2 7.3l.2 1.8-.8.4c-.6.3-.8.3-1.2 0zm-92.3-1c-.9-.4-2-2.2-2.2-3.6a27 27 0 0 1 .8-9c.8-2.9 1.3-3.8 2-3.8 1 0 1.2.6 1 2.7-.2 1-.3 3.8-.3 6.2 0 4 0 4.3.5 4.9.9 1 1 1.4.4 2.2-.6.7-1 .8-2.2.3zm85.1-.8c-.7-.4-1.1-1.3-1.1-2.4 0-.5-.2-.8-.4-.8-.3 0-.4.2-.4.5 0 .6-.7 1.4-1.1 1.4l-.6-.6c-.4-.5-.5-1.8-.6-5.6-.2-5.3 0-5.7 1-5.7s1.3 1 1.3 4.5c0 2.6 0 3.1.4 3.1s.5-.9 0-4.4c-.2-3 0-3.8 1.1-3.7 1 .1 1.3 1.3 1.4 5.6a34 34 0 0 0 .6 7.2c0 .8 0 1-.5 1-.3.1-.8 0-1-.1zm19.6-.5c-.4-.6-.5-1.4-.6-5-.1-6.7.5-9.1 2-8.3.8.4.8.7.6 3v2.9c.2.5.2 1.6.1 2.4-.1 1 0 1.7.3 2.3.6 1.3.5 2.5-.2 3-.9.7-1.7.6-2.2-.3zm8.3-.5c-.6-.7-.9-2.6-1.2-8.2a28 28 0 0 1 0-4.1c.3-.9 1.1-1.2 2-.6.6.4.6.5.6 3.6 0 3 .4 5.8.8 5.8.1 0 .2.2.2.5s.2.6.3.7c.3.2.3 1.6 0 2.2-.4.7-2.1.8-2.7.1zM41.5 266c-.3-.6-.5-2.4-.7-5.7 0-1.3-.2-3-.3-3.6-.2-1.4.4-2.7 1.4-2.7 1.3 0 1.9 2.3 2 8 0 2.6 0 3.7-.3 4-.5.6-1.8.5-2.1 0zm45.4 0c-.6-.8-.6-6.5 0-9.5.6-2.6 1-3.6 2-3.6 1.1 0 1.2 1.2.3 5a20 20 0 0 0-.3 4.8c0 1.7 0 3.2-.2 3.4-.3.5-1.3.4-1.8-.1zm7.3-1.3c-.3-.3-.6-.8-.6-1.1-.2-3-.2-4.2 0-6.1.3-3.4 1.8-5.1 3.2-3.9.5.5.5.7.4 2.8l-.3 5c0 2.6 0 2.8-.8 3.4-.9.7-1 .7-1.9 0zm36.5 0c-.4-.6-.4-1.1-.2-4 .1-3.4.3-4.1 1-4.4.6-.2 1 0 1.5.6.2.5.2.9 0 2a12 12 0 0 0-.2 3.2c.2 1.3.1 1.7-.3 2.4-.7 1-1.2 1.1-1.8.2zm-28.3-.3c-1.2-.3-1.6-2.2-.6-3.1.8-.7.7-2-.3-3-.7-.8-.8-1-.8-2.6 0-1.4.1-1.8.7-2.5.4-.5 1.2-1 1.6-1.2.8-.4 1-.4 1.6 0 .8.5.8.8-.2 1.8-.9.9-1 1.7-.2 2 1.1.3 1.5 1.3 1.5 3.8 0 2.8-.5 4.2-1.9 4.7a5 5 0 0 1-.8.2l-.6-.1zm-24.4-.5c-.1-.3-.2-2.8 0-5.6 0-5 0-5.1.7-5.5.6-.4.6-.4 1.1 0a44.7 44.7 0 0 1 .3 9.6c-.3 1.7-1.6 2.5-2 1.5zm-17.8-1c-.1-.2-.3-2.5-.3-5.4 0-4.5 0-5 .5-5.9.7-1.2 1.3-1.5 1.8-1 .4.3.4.7.2 2.8a40 40 0 0 0-.2 5.7c.1 2.2 0 3.6-.1 3.9-.4.7-1.5.7-1.9 0zm23.6-.6c-.6-.3-1-1.6-1.3-4.5-.4-3.3-.2-4 .9-4 .8 0 1 .4 1.3 2.2 0 .9.3 2.4.5 3.4.4 2.4 0 3.4-1.4 2.9zm38-1.8c-.2-.3-.4-.7-.4-1 0-.6 1.3-1.3 2.4-1.2.8 0 .9.2 1 .9 0 1-.3 1.2-1.8 1.5-.5.2-.9 0-1.2-.2zm-56.4-2.1c-.2-.3-.4-1-.5-1.7l-.4-2.6c-.3-1.9.1-3.1 1-3.2.4 0 .9 0 1 .3.6.6 1 6 .6 6.8-.3.8-1 1-1.7.4zm5.7-1c-.3-.4-.3-1.1-.2-3 .3-3 .3-3.2 1-3.6.5-.2.7-.2 1 .1.6.6.6 4.7 0 5.9-.4.9-1.3 1.1-1.8.5zm-24.3-5.9c-1.1-1.1-.6-3 1-3.8 2.2-1.1 5.4-.5 6 1.1.2.6 0 .8-.4 1.3-.5.5-.7.5-2 .3l-1.6-.4-1 1c-.5.7-1 1.1-1.2 1.1-.1 0-.5-.2-.8-.6zm299 24.4 6.3.1c4.4.2 5 .2 6.2-.3.7-.3 2-.6 2.9-.7 1.5-.2 1.6-.3 1.7-1l.4-1.2c.3-.4 2-.3 3.6.3l1.5.5 1.8-1.1 1.8-1.2h2.6c2.6 0 4.4.2 8.4.7a459.3 459.3 0 0 0 10.2 1c2.8.4 6 .2 7.8-.5l3.2-.9c4-1 3.8-.8 4.8-2.2.4-.7 1-1 2-1.4 1.2-.4 1.3-.5 1.3-1.5l.4-3 .3-1.9-1.2-1a8.9 8.9 0 0 0-3.2-1.7 32 32 0 0 1-3.3-1.3 6 6 0 0 0-1.9-.7c-.3 0-1.2-.4-2-.9l-2.4-1.5c-.6-.3-1.3-.7-1.4-1-.2-.1-.8-.3-1.3-.3-1 0-3.1-.5-3.7-.9-.1 0-.8 0-1.5.2-1 .2-1.3.2-2-.2a9 9 0 0 0-2.7-.6c-2-.1-2-.1-2.5.5s-.6.6-1.8.2c-1.1-.3-5.9-.4-6.2-.1l.1.5c.2.3.4.4 1.4.2 1-.1 1.1 0 1.4.6l.5 1.6c.1.6.4.8 1.4 1.2.6.2 1.7.7 2.3 1.1.9.6 1.7.9 3.2 1 2.3.3 3.4.8 4.2 1.9.6.7.6.7 1.5.3a13 13 0 0 1 6 0c.6.2.9.2 1 0 .5-.5 2.5-.4 2.9 0 .5.5.3 1.4-.3 2-.8.7-1.5.8-2.6.6h-3.5c-1.8.2-2.7.2-3.6 0-1-.3-1.3-.3-1.6 0-1 .8-1.8 1-3.4 1.2-1.7.1-2 0-3.1-.6-5-2.9-5.3-3-7.1-5.1-1-1.2-2.1-2.2-2.4-2.4-1-.4-2.4-3.3-3-5.7l-.8-3.5c-1-3.2-1.4-4.5-1.4-5.5 0-2.1-2.4-6.1-5.7-9.7a47.7 47.7 0 0 1-4-4.7c-8.2-8.5-7.9-8.2-9.5-8.2-1 0-1.3-.2-3.3-1.9-2.6-2.1-6.5-5-7-5-.1 0-.9-.7-1.6-1.6-2.4-2.7-5.8-4.9-8.2-5.1-.8-.1-2.3-.5-3.5-1-1.9-.7-2.1-.8-3.3-.5-1 .3-1.5.2-2.7-.2-1.2-.3-1.7-.4-2.4-.1a29.8 29.8 0 0 0-6.9 2.6c-.8.4-1.5.4-2.6 0-1.2-.4-2.6 0-4.7 1.5-1.1.7-1.7 1-2.7 1-1.2 0-2 .5-3.2 2.2-.2.4-.8.8-1.2.8-.7.2-3.4 2.7-3.4 3.2 0 .4-1.1 1.3-2.1 1.8s-5.5 1-6.5.8c-.3 0-1.1.1-2 .5-.7.4-1.5.7-1.8.7-.3 0-.7.3-1 .6l-2 1.5c-3.5 2.3-6.7 3-8.7 1.7-.4-.4-1.5-.5-3.7-.7-4.3-.2-4-.2-5.7.3-.9.3-2.3.6-3.3.7a14 14 0 0 0-7 3.4c-.3.2-.7.4-1 .4-.8 0-2 .8-2.4 1.6-.5.8-.2 1.7.8 2.2 1.5.7 3.8 3.5 4.3 5.1.5 2 .4 3.2-.6 4.2-.9 1-1.6 1.2-2.2.8-.2-.2-.4-.9-.3-2 0-1.4-.1-2-.6-2.6l-.5-1c0-.4-2.8-3.5-3.2-3.5-.1 0-1-.7-1.8-1.5-2-2-4.7-3.9-5.4-3.6-.7.2-1 .7-1.1 2.7l-.2 1.6h.9c1.2 0 1.9.6 2.3 2 .4 1.5.6 1.8 1.2 2.1 1 .5 1.4 1.2 1.9 2.7.4 1.4.4 1.5 0 2.4-.5.8-.8 1-1.4 1-1.2.2-1.7-.4-1.7-1.7 0-1-.1-1.2-1-1.8a5 5 0 0 1-2.2-3.7c0-.5-.2-1.1-.4-1.3-.4-.4-.4-.4-.2.7.2 1.4.2 6.1 0 7-.3 1-2.2 2.8-3 2.8a2 2 0 0 0-2 1.6c-.3 1-.8 1.6-1.5 1.6-.9 0-1.3-.8-1.3-2.3 0-1.5 1-3.7 3.1-6.8l1.2-1.6-.4-1.8c-.8-4.1-.7-4-3.8-5.8-1-.5-3.1-.8-3.5-.5l.2 1.2c.1.6.3 1.9.3 3 0 1 .1 2 .4 2.6.3.5.3 1.1.2 2.4l-.2 1.8.9-.8c.4-.5 1-1.3 1.2-1.8.8-1.6 1.4-2.3 2-2.3 1.3 0 1.2 1.8 0 3.9-.5.6-.8 1.3-.8 1.5l-.5.8c-.6.6-1 1.8-1.3 3.4-.2 1.4-1 2.8-1.6 2.8-.2 0-.6-.1-.8-.3-.9-.4-1.1.1-1.3 2.2l-.3 3.7c-.1 1.8.1 2.7 1.5 4.3.5.6.6 1 .5 1.7-.2.7 0 1 .7 1.8.5.6 1.2 1.2 1.6 1.4 2.7 1.4 4.3 3.1 4.8 5.2.2 1 .3 1 1.4 1.2 1 .1 1.3.3 2 1.1 1 1.3 1.9 1.3 3 .1.5-.6.8-1.2 1-2 .3-2.4 1.9-4 3.9-4 1 0 1.6.4 2.6 1.8.2.5.7.7 1.6.8 1.2.1 1.2 0 1.4-.8.2-1 .6-1.5 1.2-1.5.2 0 .7-.3 1-.6.2-.3.5-.5.6-.5l.7-.4c.2-.2.8-.5 1.4-.6 2.4-.7 3.2-2.1 3.2-5.8 0-3 .3-3.5 1.8-3.5 1 0 1.4.2 1.8 1 .4.7.4 2.9 0 3l-.2.8c0 .2-.1.5-.3.5l-.2.4c0 .2.2.4.8.4.9 0 1.6-.5 1.6-1.2 0-.2.1-.7.4-1 .4-.8 2.3-2 2.8-2 .6 0 1.3 1 1.2 1.7 0 .5.2 1 .5 1.5.4.5.6 1.1.6 1.7 0 .7.1.9.6.9.4 0 1 .2 1.2.5.5.5.6.7.5 1.6-.2 1.2 0 1.3 1.4.6.7-.5.8-.5 1.8.2l1.3.8c.3 0 1.3-1.6 1.6-2.6.3-.7.2-1-.5-2-.9-1.5-.9-2.5 0-3.4.4-.5 2.3-.7 2.6-.2l.5.2c.3 0 .4-.3.4-1 0-1.5 1.2-2.7 2.8-2.7 1 0 1.2.1 1.6.7 1.1 1.7.3 3.9-2.2 6.4-.6.6-1.2 1.4-1.3 1.8 0 .4-.4 1.3-.7 1.8-1.6 3.1-2 4-2 4.4 0 .8-1.2 2-2.7 2.8-1.4.7-2 .8-5.2.7h-1.7c-.5.2-.5.3 0 .7.2.2.6 1 .8 1.8.2.8.6 1.7 1 2.2.7.7 1 .8 2.2.8.7 0 1.7.2 2.2.4.6.4 1 .4 1.4.2l1.1-.3c.6 0 5.6-2.6 5.6-3l1-.8c1.2-.9 4.5-3.8 7.4-6.5.4-.5.4-1.1 0-1.1-.6 0-1.3-1-1.3-2a7 7 0 0 1 1.3-2.6c1.3-2 2.5-4.1 2.4-4.7l.6-1.4a50.4 50.4 0 0 0 3.5-9.9c.3-.3.3-3.3 0-4l-.6-1c-.2-.4-.3-1.2-.3-2 0-1.7.8-2.8 1.9-2.8.9 0 1.4.5 3.2 3.7 1.4 2.4 1.4 2.5 1 6.6-.4 3.6-1 5.9-1.9 7.7l-.2.8-.5 1c-.4.5-.5 1-.4 1.4 0 .3 0 1.9-.2 3.5l-.4 2.8.7 1.1c.4.6 1.2 1.4 1.8 1.8.6.4 1.2 1.1 1.4 1.5.4.9 1 1.1 2 1 .8-.2.8-.5-.4-1.8a8.5 8.5 0 0 1-2.1-4.2c0-1 .6-2.5 1.2-2.7h1c.6.2 1.7 1.4 1.7 1.8 0 .8 2.3 2.8 4.2 3.7l2.2 1 1.6.7c.3.4 1.3.8 1.8.8.8 0 .4-.6-.9-1.4a14 14 0 0 1-2-1.6c-.6-.5-1.2-1-1.4-1-.5 0-2.2-.9-3-1.5a5.6 5.6 0 0 1-1.4-3c0-1.6 2-2 3.2-.8l.7.6.5-.5c.8-1 1.7-.6 2.5 1 .7 1.3 1 1.7 2.2 3.1.5.6 1 1 1.6 1 .7 0 .8 0 .7-.8-.2-1.5-.8-3.4-1.8-5.4l-1.2-2.5c-1-2.4-1.6-7.8-1-9.7.4-1.4 1.3-3.4 1.6-3.4 0 0 .4-.4.6-1 .6-1.2.2-2.3-1-2.6a2 2 0 0 1-1.2-1c-.2-.5-.2-.8.3-1.9.3-.7.7-1.4 1-1.7l1.3-1.6c1.5-2.2 5.8-6.3 7.4-7l2.4-1.1c1.1-.6 2-.6 4.5 0 1.5.3 2.1.6 2.6 1.2.7.8.8 2 .2 2.4-.6.5-2 .4-2.6-.2-.5-.4-1-.5-2.5-.4-1.7 0-2 .1-3.6 1.1-1.5 1-4.1 3.7-4.1 4.2 0 .2.3.4.8.5.8.3.9.4.9 1.3 0 .8-.4 1.5-1.2 2.8a9 9 0 0 0-1 2c0 .2-.4 1-.9 1.6-.7 1-.8 1.5-.8 3.2v2l-1 .6c-1 .6-1 .7-1 1.8l.1 1.2 1 .1c.7 0 1.2.5 1.2 1.1 0 .2.3.7.6 1 .8.9 1 3.3.8 6 0 .9 0 2 .3 2.6.3 1.1.4 1.3 1.6 1.6 1.7.6 2.6 1.5 2.4 2.2-.2.7-1.7 2-2.2 2-.2 0-.3.2-.3.4l-.4.2c-.7 0-.4.7.5 1.1.5.2 1.6.3 3.1.3 2.2 0 2.4 0 3 .6.4.3.7.9.7 1.2 0 1-1 1.3-5 1.5-4.6.1-5.8.4-6.3 1.4-.2.5-.7 1-1 1.2-.4.2-.8.8-1 1.2-.3.8-.3.9.5 1.6l.8.9 1.5-.6c1.1-.5 1.7-.6 2.5-.5a3 3 0 0 0 1.6 0c.3-.3 1-.2 2.4 0 1.5.4 2.2.4 3 .2 1.9-.5 2.8-.4 3.4.4.6.6.8.6 3.4.7 1.5 0 3.5.2 4.3.4 1.1.2 2.4.3 3.8.1l3.5-.1zm41.5-5.5c-1-.9-1.1-2-.3-2.8.5-.4 1.6-.4 5.9 0h1.8c.2-.2.9-.4 1.5-.6 1.5-.5 3-.2 3.5.8.6 1.1 0 1.7-2.5 2-1.2 0-2.3.3-3.1.7-1 .6-1.6.7-3.6.7-2.3 0-2.4 0-3.2-.8zm-39.6-3.4c-.7-.3-3-2.6-3.6-3.6-.6-1-.6-2.5-.2-3 .8-.8 2.9 0 2.9 1 0 .3.7 1.2 1.6 2.2 1.5 1.8 1.6 2.1 1 3-.3.4-1 .6-1.7.4zm2.8-3.8c-.5-.7-.5-1.3-.5-3.7 0-3 .1-3.4 1.3-3.4.6 0 1 .2 1.3.9.5.7.5 1.1.4 3.5-.2 2.7-.5 3.6-1.5 3.6-.3 0-.7-.4-1-1zm-21.9-1.4c-1-.5-1.3-1.4-1-5.4.1-2.5.3-3.2.7-3.6.4-.4.5-.5 1.1 0 .6.4.7.6.7 2 0 1.6.4 2.9 1.1 4 .7 1 .6 2.1-.2 2.8-.7.7-1.2.7-2.4.2zm32.2-2c-1-.8-1-1.2-.7-8.1.2-5 .7-6.2 2.2-6.2.9 0 1.4 1 1.7 2.7l.5 3.3c.6 3 .6 3.4.3 5.4-.2 1.8-.4 2-1.2 2.9-1.1 1-1.7 1-2.8 0zm-130.1-1.3c-2.3-2-2.5-2.2-2.6-3.5-.2-1.1-.1-1.2.8-1.8.6-.4 1.3-.5 2.5-.6.9 0 1.7 0 1.8.2l2 .4c1.4.2 2.1.5 2.6 1 1.2 1 1 1.7-1.1 4-1.8 1.8-2 1.9-3 1.9s-1.4-.2-3-1.6zm13.7.1c-.4-.5-.1-1.3.6-1.5 1.2-.3 2 .4 1.6 1.4-.2.6-1.6.7-2.2.1zm87.2-1.8c-.6-.6-.7-.8-.7-2.6 0-2 .4-2.8 1.4-2.8.6 0 1.5 1.5 1.5 2.5 0 .5.1 1 .3 1 .4.3.3 1.6-.2 2.1-.7.6-1.4.5-2.3-.2zm-90.4-2.2c-.4-1.1.1-2 1.7-2.7 1.1-.6 2.3-2.1 2.3-3.2 0-1 .8-2.4 1.6-2.8 1.6-.8 2.5-.3 2.3 1.4l-.4 2.9c-.3 2.3-.5 2.7-2.2 4-1.2.8-1.7 1-3.2 1l-1.7.2zm81-3.8-.8-.8v-3.2c-.1-7 .2-8.5 1.7-8.6.4 0 .9 0 1 .2.2.2.3 1.5.3 3.4 0 1.7.2 3.8.4 4.7.7 3.4.7 3.8-.1 4.5-1 .8-1.5.8-2.5-.2zm30.7-.2c-1-.5-1.5-4.8-.5-5.7.7-.7 1.7-.8 2.3-.2.5.5.6.9.6 2.8 0 2-.1 2.3-.6 2.8-.6.6-.9.6-1.8.3zm-102.2-3.4c-.4-.4-.2-1.9.3-2.4.7-.8 1.7-.8 2.4 0 .6.6.5 1.3-.2 2.1-.4.5-2.2.7-2.5.3zm86.2-1.2c-1.4-.8-2-2-2-3.8 0-1.8.6-3 1.6-3 .7 0 1.6.9 1.6 1.7 0 .4.9 2.1 1.4 2.7 1.4 1.4-.9 3.4-2.6 2.4zm-77.2-4.6c-.5-.7-.5-1-.4-2.7.2-2.4.7-3.2 1.7-3.2.6 0 .9.2 1.2.9.5 1 .7 1.1 1.1.6.4-.3 1.7 0 2 .6.5.7 1 .6 1 0 0-.8 1-1.9 1.7-1.9 1 0 2.3.9 2.7 1.8.8 1.7.3 3.5-1 3.1-1.7-.4-2-.4-2.2.2-.7 1.3-2.5 1.6-4.1.8-1-.5-1-.5-1.4 0-.7.7-1.6.6-2.3-.2zm90.7-.3a8.8 8.8 0 0 1-2.4-2.9l-2-2.9a7.3 7.3 0 0 1-1.3-3.2c0-.9.7-1.7 1.5-1.7.5 0 2.7 2 2.7 2.6l1 1.4 1.4 1.9 1 1.6c1 1 1 2 .4 2.8-.5.8-1.2.9-2.3.4zm-73.7-1a3.6 3.6 0 0 1-2-2.9c-.3-1.6.3-2.3 1.8-2.3a4 4 0 0 1 3.3 2c.6 1 .7 2.8.3 3.3-.5.4-2.6.3-3.4-.1zm-20.4-.7-.4-1.1c-.1-.5-.6-1.2-1-1.6-1-1.2-1.4-2.2-1-3 .2-.4.2-.6-.3-1-.5-.5-.6-1.7-.2-2.2.2-.2.7-.3 1.1-.3.6 0 .8-.2 1.3-1.2.7-1.5 2.2-2.6 4.5-3.3l2-.6a7 7 0 0 1 5 .7c.2 0 .4.6.4 1.2 0 1.5-.6 1.9-3.3 1.9-1.2 0-2.3 0-2.4.2-.1.2-.6.3-1.2.3-.7 0-1.4.2-2.1.8-.7.4-1.4.8-1.7.8-.2 0-.6.2-.7.6-.6 1.6-.6 1.6.5 2.7 1.8 1.7 2.3 3 1.6 4.4-.6 1-1.5 1.3-2 .7zm29.9-3c-2-.8-1.7-3 .4-4.4a6.8 6.8 0 0 1 7.5-.2c.9.9.7 2.5-.4 3.7-.3.2-1.5.5-3.2.7-3.1.3-3.7.4-4.3.1zm17.3-5.6c-.5-.3-.6-.7-.6-1.3 0-1.3.8-2.3 2.1-2.7l1.6-.6 1.3-.2c.5 0 1.4-.2 2-.5 1-.4 1.2-.4 2.2.2 1 .5 1 .6 1 1.4 0 .6-.1 1-.5 1.4-.6.6-2.8 1.4-3.7 1.4-.3 0-.9.3-1.3.7-.6.5-1.1.6-2.2.6a4 4 0 0 1-2-.4zm39.8-3.8c-.3 0-1-.4-1.7-.7-.6-.4-1.2-.6-1.3-.6a15 15 0 0 1-2.5-1.2l-3-1.6c-2.2-.9-1.7-3.3.6-3.3a16 16 0 0 1 7.1 3.2l1 .5c.5 0 2.5 2 2.5 2.4 0 .5-1.2 1.6-1.7 1.6l-1-.3zm-41.5-6.9c-.3-.1-.6-.7-.8-1.2-.2-.7-.2-1 .1-1.5.6-1 2.6-2.5 3.6-2.9.5-.1 1.4-.6 2-1 .5-.4 1.1-.8 1.3-.8l1.1-.7a10 10 0 0 1 2.3-1.1c1.3-.5 1.5-.5 2-.1.6.4.7.3 1.7-.3.5-.4 2-1 3.1-1.4l2.2-.7 1.2.6c.8.3 2.3.6 4.1.8a14.6 14.6 0 0 1 5.4 1.3c.4 0 3.2 2.7 3.2 3.1 0 .2-.2.6-.5.9-.8.8-2.1.7-4-.4-2.7-1.6-3.7-1.8-6-1.5-1.1.2-2.6.5-3.4.8-1 .3-1.5.3-2.2 0-.7-.1-1-.1-2.1.3-1.6.6-2.6.7-3.3.1-.4-.3-.6-.2-1.6.4-.6.3-1.4 1-1.8 1.4-.4.4-1.1 1-1.6 1.2-.5.2-1.4 1-2 1.6-1 1-1.5 1.2-2.4 1.3-.7 0-1.4 0-1.6-.2zm-38 51.7c-.2-.3-.9.8-.9 1.5 0 .6 0 .6.6-.3.3-.6.4-1.1.3-1.2zm-98.6.1c1.2-1 3.1-2.1 5-2.7 1.1-.4 3.4-2 5.8-4.2a6 6 0 0 1 1.3-1c.1 0 1.3-.9 2.5-2a64.2 64.2 0 0 1 13-9.3l1.3-.9c3.1-1.8 3.1-1.8 2.4-12.4a62 62 0 0 1-.3-8.9c.2-2.5-.7-3-2.9-1.9-1 .6-1.5 1-1 1 .3 0 .8 1.3.8 2.2 0 .8-.7 2-1.4 2.5s-2.2.9-3 1l-1 .1c0 .5-1.8 1.2-2.3 1a14 14 0 0 0-7.7 2.5l-.6.8c-.2.7-.3.8-1.5.8-1 0-1.5.1-2 .5l-1.1.6-.9.6c-.3.4-1.3 1-2.2 1.5-1.4.7-1.7.8-3 .6-1.4-.1-1.7 0-3.3.8l-1.8.9 1 1.3 1.2 1.3-.2 2-.4 2.7c-.4 1.1-.4 6-.2 14.2.1 5.5.5 6.2 2.5 4.4zm6.3-13.4c-.6-.6-.5-1.6.1-2.3.7-.7 1.9-.8 2.5-.1.6.6.6 2 0 2.5-.7.6-2 .5-2.6 0zm12.6-4.7c-.2 0-.3-.5-.3-1 0-.8.2-1.2 1-2 .9-.9 1.2-1 2-1 .7 0 1.3.1 1.4.3.6.5.4 1.5-.3 2l-1.5 1.2c-.8.6-1.5.8-2.3.5zm34.1 16c.5 0 1.3 0 1.7-.2.5-.1 2.2-.3 4-.3 1.7-.1 3.2-.3 3.3-.4v-1.2c-.1-1.4-.9-1.8-2.3-1.1-.9.4-1.5.5-4.5.4-6-.1-11.6 1.1-11 2.5.2.5 1.2.6 4.7.4a76 76 0 0 1 4.1 0zm-189.5-17c0-.3-.2-.2-.2.3 0 .4 0 .6.2.4v-.8zm180.4-6.5c2-.8 2.9-1.2 6.6-3 2.1-1.1 4.2-2 4.5-2 1 0 1.2-1.2 1.2-5.5 0-.4-.4-1.6-.8-2.5-1.4-2.8-1.7-6.4-.8-8.3.7-1.4 1.8-1.8 4.5-1.5 2.5.3 3.7.7 5.6 2 .9.6 1.8 1 2 .9l.8-1.4c1-2 2.7-2.7 4.6-2l1.5.3c.3 0 1.2.7 2.1 1.6 2.5 2.4 3.2 2.1 3.2-1.2 0-1.4-.1-2.9-.5-4.3a48 48 0 0 1-.2-11c.2-1.1.2-1.8 0-2.5-.2-.5-.4-3.4-.6-6.4 0-3.2-.3-5.7-.5-6l-.6-1.1-.2-1.7c0-1.8-.7-4.8-1.3-5.9-.5-1-.6-1.4-.6-8.9 0-10.4-.6-19.3-1.4-20.5-.5-.7-1.4-.8-2-.3 0 .1-1.8.4-3.7.5-2 .1-4 .4-4.6.6-.7.3-2.8.4-5.9.5a173.5 173.5 0 0 1-18.3.8c-9.5 0-10.2.1-10.4 1.2-.1.2 0 1.2.2 2.2a85.4 85.4 0 0 1 1.5 7.5c.2.4 0 1-.4 2-.7 1.4-.7 1.7-.6 5.6a86.3 86.3 0 0 0 .7 11c0 2.3.3 6.2.5 8.7.3 4 .3 4.7-.1 6.1-.7 2.5-.6 4.8.3 7.5.5 1.2.8 2.4.8 2.6 0 .3-.3.9-.6 1.4-.6.7-.7 1-.5 1.8.4 2.5 1.2 3.7 2.3 3.7.8 0 1.3.6 2 2.7.5 1.5.6 2 .3 2.6-.2.5-.3 2.5-.2 7.2l.2 7.7c0 1.9.5 6.4.8 6.8.1.2.8.3 2.2.3 1 0 2.3 0 2.6.2.8.4 3 .3 3.8 0zm-3.7-17c-1.3-2-3-12.6-3.2-20.7l-.4-5.8c-.2-.9-.4-6.3-.5-12-.2-13 0-17.5 1-18.5.8-.6 1.5-.1 1.4.9a424.6 424.6 0 0 0 .6 39.5 81 81 0 0 0 2.2 15.3c.5 1.8-.2 2.6-1 1.3zm2.7-4.2c-.6-1-1.5-4-1.5-4.9 0-.5-.2-1.5-.5-2.4l-.6-3.2a310.3 310.3 0 0 1-1.3-14.7 202 202 0 0 1 .8-17 21 21 0 0 1 6.8-14.6c3.4-3.3 5.3-4 9.4-3l3.1 1a9 9 0 0 1 3 3.1l.8 1.5c.9 1.3 1.3 5 1 9-.1 3.1-.6 4.2-1.4 3.7-.3-.2-.4-1-.4-4.4 0-3.6-.1-4.5-.6-6a8.2 8.2 0 0 0-4-5c-4.9-2.2-6-2-10 1.8l-1.7 1.7.5 1c1 1.5.8 2-.6 2.7-1.8.9-2.7 3-3.7 8.7-.3 2-.4 2.4 0 3.6l.6 2.6c.1 1.1 0 1.3-.5 1.5-.7.2-.8 1-.7 5.3a198.1 198.1 0 0 0 1 15.5l.8 4a50 50 0 0 0 1.3 5.8c.5 1.3.8 2.6.7 2.9-.3.6-1.9.5-2.3-.2zm4.7-.6c-.4-.4-.5-.7-.6-3 0-1.9-.3-7.2-.6-10.9a83 83 0 0 1 0-14.8 43.2 43.2 0 0 1 .9-18.4c0-1.4.5-1.8 1.3-1.4.3.2.4.5.4 1.2 0 .8.1 1 .6 1.2.8.2.7 1.5-.3 1.8l-.7.3v11l.7.1c1.1.3 1.2 1 .4 4.8a32 32 0 0 0-.7 7.8 30.7 30.7 0 0 0 1.2 9.4l1 3.8c1 2 1 3.5.4 3.9-.5.3-1.7 0-1.9-.6l-.1 1.1c0 2.5-1 3.7-2 2.7zm1.6-5.4-.1.4c0 .4 0 .6.1.4v-.8zm7.4-3.4c-.3-.7-.2-1.4.4-2 .6-.5.6-.6.6-6a108.5 108.5 0 0 0-1.5-18.7 74.4 74.4 0 0 0-1-5 4 4 0 0 0-.4-1.6c-.5-1-.5-1.8.1-2.4.5-.4.7-.4 1.2-.1.4.1.7.5.8.9l.8 3.5c1 4 1.2 5.3 1.5 8.7l.6 4.8c.4 2.3.4 10 0 12.7-.3 2-1.1 4.6-1.7 5.3-.4.5-1.2.5-1.4 0zm-4.6-14.5a9 9 0 0 1 .6-3.9c.4-1 .6-1.2 1-1.2.5 0 .7.1.8.6.2.8-.5 4-1 4.6-.3.4-1.2.4-1.4-.1zm-56.7 42 1-.8 1.1-.8c.5-.5 2-1.4 2.2-1.4.2 0 .7-.2 1-.5l1-.5a24 24 0 0 0 4.2-2.2 6 6 0 0 1 1.4-.7c1.5-.6 3.1-1.6 2.7-1.6-.8-.1-1.5 0-2.5.5a21.7 21.7 0 0 1-3.7 1.4l-1.2.3c-.3.1-1 .5-1.4.9-.4.4-1.1.7-1.6.7-.7 0-.9 0-1-.6 0-.5.2-.8 1-1.3a4 4 0 0 1 1.1-.6l2-.8a514.4 514.4 0 0 1 2.9-1.5c1-.5 1.9-.9 4.7-1.8l3.6-1.3 2.9-1.2a11 11 0 0 0 2.3-1c0-.2.3-.3.5-.3.4 0 1.6-.5 4.3-1.7a30 30 0 0 0 5.6-4l.9-.8-.7-.3c-1-.5-4-.9-9-1a62 62 0 0 1-10.2-.7c-1.7-.4-2-.3-2.3.5-.2.4-.7.9-1 1-.8.5-.9 1.1-.2 1.1.8 0 2 .6 2.8 1.3.9.9 1 2 .1 2.6l-.6.4.9.3c1 .3 1.2 1 1 2-.2.7-.6 1.1-2 2-3.2 2-5.2 2.7-8.9 2.9-3.5.1-4.1 0-7.3-1.4-1.8-.7-3.6-1.3-4.3-1.3-.4 0-1.3-.3-2-.7-1.4-.7-1.4-.7-3-.3l-2.6.6c-.5 0-1.4.4-1.9.6a5 5 0 0 1-2 .6c-.5 0-2.3.4-3.9 1-2.6.8-3.2 1-6.2 1a34.1 34.1 0 0 0-10.3 1.8c-1 .5-2 .6-2.9.2-.4-.2-.8-.3-1.5 0-2.4.5-4.5 1-5.3 1.3l-2.5.4c-1 0-2 .3-2.4.5-.4.2-1.3.4-2 .4a6 6 0 0 0-2 .3c-.5.2-1 .2-2.2-.3-1.8-.6-3.2-.7-3.4-.2 0 .2 0 .6.2 1 .2.6.2.6 2.2.4 1.3-.1 2.1 0 2.3.1.2.2 2 .4 3.8.6 3.6.3 3.4.1 4.9 2 .2.3 1.6.3 6.5.2a317.4 317.4 0 0 1 43 .7zm-112.6-4c.5 0 .5-.1-.1-.4a4 4 0 0 0-1.6-.4c-1.1 0-2.4.5-2.2.8.1.3 3.1.3 4 0zm35.3-.8c0-.3 0-.7-.2-1-.5-.5-.1-1.6.6-2h-5.2c-3.7 0-6.1.2-6.5.4-.5.2-.7.6-.9 1.3l-.3 1.5-.2.6h6.3l6.3-.2zm-43-1.6c.7-.3.7-.4.2-.7-.7-.5-.7-1 0-2.6.5-1.6 1.6-2.3 3.4-2.3 1.1 0 3.5-1 4-1.6l.1-1.7c0-1.1.1-1.3.7-1.4.3 0 .8.1 1 .4 1 .8 7 1.3 8 .6l.3-.9c0-.7.4-1.2 1.3-1.2.4 0 1-.3 1.4-.8 1.2-1.2 4.1-2.8 5.5-3l2.7-.9 1.5-.7 2.3.5c3.3.6 8.8.8 9.6.4.5-.3.6-.4.4-1.8-.2-2-.3-2.1-1.1-2.3-.5-.1-1 0-1.7.6-1.1.7-1.2.7-5.4.9-3.2 0-4.5.2-5.4.6l-2.5 1-3 .9c-1.7.3-3.3.8-7.4 2.4l-3 1c-.6.2-1.5.6-2 1a4 4 0 0 1-1.4.5c-.3 0-.6 0-.7.2l-.9.4a60.6 60.6 0 0 0-9.6 3.6l-1.3.5a50.1 50.1 0 0 1-7.5 2.8 17 17 0 0 0-4 2.4c0 .3.2.4 9.3 1l4.4.4s.5 0 .9-.2zm18.2-.8c3-.6 3.7-.9 3.7-1.3 0-.5.8-1.3 1.3-1.3.4 0 .5-.2.4-.4-.1-.3-.3-.4-.5-.4l-1-.5c-1-.8-3.8-1.3-5.1-1-2.4.7-3.2 1.2-4.3 2.4-1 1.1-1.2 1.2-2 1l-2.4-.3c-1.4 0-1.6 0-1.3.3.4.5 1 .6 5.4 1.2 4.1.6 4.1.6 5.8.3zm30.4-1c.5-.1.5-.1-.3-.7-.5-.4-1-.7-1.2-.7-.5 0-1.4 1-1.3 1.4.2.2 1.8.3 2.8 0zm20.1-.6c.4-.3 1.9-.7 3.3-1 1.4-.3 3.4-1 4.4-1.4 2.1-1 5-3.5 5.8-5.3l1-1.7c.6-.6 1.4-4 1.4-5.7 0-.7-.2-1.4-.4-1.8-1.1-1.6.5-2.5 2-1.2l1.2 1.1c.2.2.4.8.4 1.6a21.6 21.6 0 0 1-1.6 6.8c0 .3.3-.2.9-1.3.5-1 1-2 1.2-2 .6-.9 1.3-3.5 1.4-5.8.1-1.4.4-3 .8-3.9.5-1.4.5-1.4 1.3-1.4 1.2.2 1.7 1.2 1.6 3.7a21 21 0 0 1-2.6 9l-1.4 3.3c0 .6 1.3.1 1.8-.7l.5-1c0-1.5 2.5-6.4 3.7-7.3.8-.7 2.2-3 2.2-3.9l.8-2c1-2 1-2.4 0-2.7-1.4-.7-.3-2.5 1.4-2.3 1.8.1 2.7 2.5 2 5.4-.2.8-.3 1.5-.2 1.6.2.2 1.2-2.2 1.4-3.5.2-1.6.5-2 1.3-2 1 0 1.7.9 1.9 2.1.1 1 .2 1 .6.8.4-.4 1.4-2 2-3.1.5-.8.6-2 .3-3.3-.2-.9 0-1 .8-2a17 17 0 0 0 2.7-4.1c.6-1.3.7-3.5.2-4.3l-.7-1.7a3 3 0 0 0-2.8-2.1c-1 0-2-.7-2-1.3 0-1.2-.2-1.4-1.9-1.4-.9 0-2.5.3-3.7.6l-2 .6-.8 1.5-2.4 3.8c-1.4 1.8-2 2.4-3.1 3-1.2.5-1.6.6-2.6.5-1.3-.2-2.5-1-2.5-1.7s.8-1.4 1.8-1.4c.5 0 .8-.1.8-.2 0-.2 0-.3-.2-.3s-1.2-.8-2.2-1.9c-1.2-1-2.1-1.8-2.5-1.8-1 0-1.5-.9-1.3-2.2l.2-2.6c.1-1.9.6-2.5 3-4.3 2.2-1.7 2.1-1.6 2.4-2.8.1-.6 0-.8-.3-.8a7 7 0 0 0-3.2 1.8c-.6 1-3 .6-3-.6 0-.6.7-1.7 1-1.7.5 0 3.2-2 4.7-3.5 1.8-1.7 3-1.7 3.8 0l.5.9.3-1.3 1.1-3.2c.9-2.3 1-4.6.4-5.8-.2-.5-.8-1.3-1.3-2-1.4-2-4-6.3-4.6-8-.5-1.5-.7-3.4-.6-5.4 0-.7.3-1.4 1-2.4 1.2-1.5 1.3-2.1.8-4.3-.1-.7-.6-1.5-1.1-2a7.6 7.6 0 0 1-2.2-4.7c-.1-1.3 0-1.7.3-2 .9-1 1.5-.5 3 2.2.6.9 1 1.6 1.2 1.6.5 0 1-1.2 1.4-3.4.5-2.6 1-3.8 1.6-3.8.8 0 1.6.7 1.9 1.6.1.6.4 1 .8 1 1.1.3 1 1.5 0 3.4-.6.8-1 1.7-1 1.9l-.5 1-1.1 2.2-.8 1.9a13 13 0 0 0-.6 1.9c-.2 1-.7 1.9-1.3 2.7-.6.7-1 1.3-1 1.5l.4 2.3a16 16 0 0 0 5.2 8.7 5 5 0 0 1 1.9 2.2c.6 1.5 1.5 2.3 2.2 2.3.3 0 .3-.1 0-.7a2 2 0 0 1-.4-1.3c0-.4 0-1-.2-1.5-.3-.6-.4-1-.2-1.4.4-.8 1-.8 2.3 0 1 .8 1.2 1.5.4 2.2-.5.5-.5.5.3 2l.8 1.8c0 .5.8 1 1.7 1 .7 0 1-.2 2-1.4 1.2-1.3 3.2-5 3.2-5.6 0-.2.4-.8.9-1.5a5 5 0 0 0 1-1.6c0-.2.1-.5.3-.7a15 15 0 0 0 2.5-5.6l1.1-3.5.2-2c0-1.7.2-2 1.4-2.7.7-.4 1.3-1 2.1-2.4.6-1 1.3-2 1.6-2l1.2-1.4c.4-.6.9-1.1 1.4-1.2.4-.2 1-.6 1.4-1.2.6-.8.7-.9 2.2-1 1.2-.1 1.8-.3 2.4-.8l1.8-1.3c.5-.4 1.1-1 1.3-1.5l1.2-1.7c.6-.9.7-.9.2-1.6-.4-.8-.3-1.6.1-1.6.2 0 .3-.2.3-.4 0-.3-.5-.4-2.6-.4-2.4 0-2.5 0-4 1a39.4 39.4 0 0 1-9 5.4c-.3 0-.9.4-1.5 1.3-.7 1-1 1.3-1.8 1.4-1.2 0-2 1.4-2 3 0 1.4-1 3.6-3.2 7.2-2 3.4-2.6 3.8-3.7 2.6-.6-.7-.6-.8-.3-2.2.1-.9.6-2 .9-2.5a6 6 0 0 0 .8-2c.1-1 1.3-3.5 2.8-6 .7-1.3.8-1.5.6-3.4-.1-2.6-.3-3.1-.7-3.1-.2 0-1.5-1-3-2.3a48 48 0 0 0-6.1-4.8c-1.2-1-2.7-2-3.2-2.2-1-.5-1.4-1.1-1.2-1.9.3-.8 1-.8 2.5 0 3.3 1.8 4.6 2.4 5 2.4.2 0 .3-.3.3-.9 0-1.4-1.3-2.5-3-2.5-1 0-1.4-.2-2.4-1-1-.7-1.6-1-3-1.2-3.4-.4-3.8-1-1.8-3 1.3-1.1 1.3-1.4-.1-1.8-.8-.3-1.2-.2-2.2.3-1.5.7-3.5.3-4.4-.8-.5-.6-2.5-.6-4.4.1-.9.3-2.1.6-2.8.6-1.1 0-1.3.1-1.8 1-.6.8-2.6 2.4-4 3-.7.4-1.9 1.3-1.9 1.6 0 .3 1.1.1 2.5-.4a53 53 0 0 1 7.2-2.4c1.3-.3 2 0 2 .7 0 .5-2.7 1.7-3.8 1.7-.5 0-1.5.2-2.4.5l-3.7 1.2c-3.7 1-4.1 1.3-6.8 4.1-1.4 1.4-3 3-3.7 3.3-1.1.6-1.2.6-.7 1 .5.3.6 1 .2 1.8-.4.7-.2 1 .3.5a100.7 100.7 0 0 1 12-8.7c.8-.3 1-.2 1.6.1.8.5.9 1.7.1 2.4-.3.3-.5.9-.6 2v1.6h1.5c1.4 0 1.8.1 3 1 .9.6 1.9 1.1 2.3 1.2 1 .3 2.6 1.3 3.3 2.2.7 1 .7 2.4 0 2.7-.4.3-.6.2-1.5-.8s-3.7-2.6-4.5-2.6c-.2 0-.6-.3-1-.7-.8-.6-1.1-.7-2.2-.6-1.2.2-2.8.6-4.9 1.4-1.4.5-2 .3-2-.6.1-.6.4-.8 1.8-1.5 1.7-.8 2-1.3 1-1.6-.8-.2-3 .7-4.7 2-3.8 2.7-4.3 3-5.2 2.6-.3-.2-.7-.6-.8-1l-.1-.6-.6.6c-.6.6-.7.8-1 3l-.2 1 1-.6c.7-.5 1-.5 1.5-.3.4.2.7.6.7.9 0 .6.6.7 1 .1.2-.2.8-.5 1.4-.6.6 0 1-.3 1-.5s.3-.5.7-.7c1.7-.8 4.3 2.2 3 3.5-.6.5-1 .3-2.2-1l-1.1-1.2-.5.7a13 13 0 0 0-1 2.8c-.4 2-.4 2.3 0 3 .8 1.5.9 1.8.6 3-.4 1.5-.6 1.6-2.2 1-.7-.4-1.5-.6-1.8-.6l-.7-.2c0-.2-1-.4-1.9-.5l-1.6-.1-1.8 1.6c-1.4 1.4-1.8 1.6-2.1 1.4l-.6-.7c0-.5 1.3-2 2.4-2.5.7-.4 2.5-2.7 2.3-2.9-.1 0-1.3 1-2.6 2.4-2.4 2.3-3 2.7-4.6 3.3-.4.2-.8.6-1 .9 0 .3-.7 1.1-1.4 1.8-.7.6-1.2 1.3-1.2 1.4 0 .2-.4.7-1 1.2-.4.5-1.4 2.1-2 3.6l-1.2 2.6.8.4c.4.1.8.4.8.6 0 .9.8-1 1-2.3a8 8 0 0 1 .5-1.8l.7-1.6c.6-1.5 1.6-2.8 2.3-2.8.2 0 .7.3 1 .7.5.6.5 1 .4 1.8l-.4 1.6a27 27 0 0 0-.3 6.5c0 1.4.1 1.9.4 1.8.2 0 .5-1.4.7-3.7.6-4.9.9-5.8 2-7.7.6-.8.8-1 1.4-1 .7.1.7.2.7 1.5-.1 1.6-.5 4.4-1 5.8-.8 3.1-.9 9.8 0 13.8.2 1.2.8.2 1.1-2.2.3-2.1.3-2.5 0-3.4-.5-.9-.5-1.7-.4-5.3.2-5.8.8-8.5 2.1-8.7l1.4-.3c2.3-.5 2.5 0 2.2 3.4-.3 3.6 0 8.4.5 9l.7.4c.2 0 .4.2.5.5v-.6c-1-8.2.3-10.6 3.6-7.6 1.1 1 1.2 1.1 1 2.3-.4 2.7 1.1 10 2.1 10.3l.4-.1c0-.1.2-.4.5-.5.8-.4 1.2.2 1.7 2.5.3 1.7.6 2.3 1.3 3.1 1 1.1 1.6 1.2 2 .5.5-1 .3-1.5-1.7-4-1.1-1.3-2-2.8-2.2-3.2a28 28 0 0 1-1.7-9.2c0-1.7.2-2.4.5-2.7.6-.7 1.3-.7 2.2 0l1.4.7c.4 0 .8.4 1 .6.2.4.2.3.2-.2l.4-1.5c.3-.7.6-1 1-1 .8 0 1.6 1 1.6 2 0 .6 0 .6.4-.3.8-1.6 2.3-1.3 2.6.5.8 4.1 1.3 5.1 3.4 7.2 2.2 2.2 3.6 4 3.6 4.8 0 .3-.2.8-.4 1-.4.4-.5 1-.5 2.1 0 .9-.2 1.7-.3 1.9-.2.1-1 .3-1.9.3-2.5.2-3.9.5-4.5 1-.4.3-1 .5-1.6.5-.7 0-1 .1-1.2.9-.8 1.7-2.2 2.2-4.2 1.2-1.3-.7-1.8-.5-1.8.5 0 .4-.2 1-.5 1.3-.7.9-1.4.5-1.6-.8 0-.6-.4-1.2-1.6-2.3a8.8 8.8 0 0 1-2.3-3.6l-1.1-2.6c-.5-.8-1-2.7-1-3.4 0-.4-.2-.7-.4-.7-.1 0-.2 1-.2 2.5 0 3.2.7 5 2.2 5.9 1 .6 1.2 1.2 1.2 2.4 0 .4.3 1.4.7 2.2.9 1.9.8 2-.2 1.7a3 3 0 0 0-1.4 0c-.8.1-1.5-.5-1.5-1.5 0-.7-.5-1.6-.9-1.6v3.9c0 4.3 0 4.6 2 6.3.4.5.8 1.1.8 1.4 0 .7 1.7 2.4 2.4 2.4.6 0 .7-1 .1-1.2-.8-.3-.7-1.7.2-1.7.7 0 1.3 1.4 1.5 3.4l.4 2.5c.2.6 0 .9-.6 1.5-1 .9-2 1-3 .5-.4-.2-.6-.2-1.1.4-1.7 1.7-2.6 2.3-3.4 2.4-.4 0-.9-.2-1-.3-.5-.5-.7-.4-1.2.4-.6 1.3-2.2 1.2-3.6 0-.3-.4-1.2-.8-1.8-1-1.9-.8-4.6-3.8-6.9-7.6l-1.5-2.5c-.3-.4-.6-.7-.8-.7-.4 0-.4 1.1.2 3.5.4 2-.5 3.4-1.6 2.4a7 7 0 0 1-1.1-2.4 21.3 21.3 0 0 0-1.4-3.6c0-.2-.9-.8-1.8-1.2-3-1.5-3.4-2.1-3.2-4.5.1-1 0-1.7-.1-1.7-.4 0-.9 1.5-.9 2.4l-.6 2.6c-1 2.7-.9 3.5.4 5.6.6 1 1.3 2.7 1.5 3.7.3 1 .7 2.2 1 2.5.4.3.8 1.2 1 1.9.3.9.8 1.7 1.7 2.6 1.5 1.6 2.2 2.8 3 5.3.3 1 .8 2.1 1.2 2.6l.8 1.3c.3 1 .6.5.4-.9-.2-1.8.3-2.3 1.8-1.8 1.2.4 2.2 1.5 3.1 3.5.7 1.6.7 1.6 1.2 1 1.2-.9 2.1-.2 3 2.2.6 1.8 1.2 3.1 1.5 3v-1.7c-.2-2 .2-2.7 1.4-2.7 1 0 1.5.4 3.2 2.6 1.4 2 1.8 2.2 2.5 1.5 1.1-1 2.6-.3 3.2 1.4l1 2.4c.5 1.1.6 1.5.3 2-.4.9-3.1 2.3-3.9 2-.3-.1-.9-1-1.4-2-.8-1.5-2.6-3.8-3-3.8-.6 0 .8 4.6 1.8 5.9.3.4.8 1.1 1 1.7l.3 1-1.4 1.1c-.8.7-1.6 1.7-1.8 2.3-.5 1.3-1.5 2-2.3 1.8-.3-.1-1.2-.2-1.8-.1-1.3.1-1.3.1-1.1 1 0 .6 0 1-.6 1.6-.3.5-.6 1-.5 1.2.2.7 1.5 1.2 3.6 1.5l3.5.7c1.8.4 4.8.1 5.7-.4zm7.2-5c-.5-.1-.3-.9 1.1-3.3 1.2-2 1.5-2.4 2.1-2.5.6 0 .7 0 .7.6 0 .8-.7 2.4-1.8 4-.8 1.1-1.4 1.5-2 1.3zm1-11.4c-1-1-.5-2 2.6-5.5 1.4-1.5 2.7-2.7 2.8-2.7.6 0 3-2 5.2-4.4 1-1.2 1.4-1.4 2.2-1.4 2 0 3.4 1 3.4 2.5 0 .8-.8 1.2-2.4 1-1.3-.2-2.8.7-3.7 2.1-.3.5-1 1.2-1.3 1.4a3810.6 3810.6 0 0 1-5.6 6.2c-.9 1-2.7 1.5-3.3.8zm-4.7-14c-1.7-1.2-2-2.6-.6-3.4.4-.2 1-.7 1.2-1 .6-.7 3.2-1.4 4.8-1.4 1.3 0 2.2.6 2.2 1.5 0 .5-.2.7-1 1.1-.7.3-1.5.5-1.8.5-.5 0-.6.1-.3.6.3.7.3 1.7-.2 2a5 5 0 0 1-1.9.5c-1.3.2-1.6 0-2.4-.5zm-2.7-21c-1.2-1-2.4-3.6-2.2-4.7.1-.4.4-1 .7-1 .7-.4 1.6.6 2.7 3 1 2 1.1 2.5.6 3-.5.5-.9.4-1.8-.4zm28.9-26.7c-.2-.4-.3-1.2-.3-1.7 0-1-.6-1.1-.8-.1 0 .7-.9 1.2-1.3.7l-.4-1.8c0-1.3-.2-1.6-1-2.2-.4-.4-.7-1-.7-1.3l.9-3.5a173.8 173.8 0 0 0 2.2-6.8c.5-.9 2-2 2.6-2 .6 0 .7.8.4 1.7-.7 1.6-.7 1.7 0 1.7 1.2 0 1.4 1.7.5 4-.3.8-.5 1.5-.3 1.7.1 0 .7 0 1.3-.4 1-.6 1.1-.6 1.5-.2.5.5.5 1.5.3 5.5-.2 3-.4 3.7-1.2 3.7-.8 0-1.9-1-2-1.8l-.1 1.4c-.2 2-.2 2.1-.8 2.2-.4 0-.6-.1-.8-.8zm1.7-5.8c0-.2-.1-.2-.1.2 0 .2 0 .4.1.3v-.5zm-1-9c0-.2-.1-.1-.3 0-.3.2-.4.6-.4.8 0 .3 0 .3.3-.1.3-.3.4-.6.4-.8zm-21.8 2.7c-1-.8-1.8-1.8-2-2.1-.2-.4-.4-1.7-.4-3-.2-2.7.6-6.4 1.5-7.1.7-.6.8-.6 1.3-.3.3.3.3.6-.1 2.9-.7 3.7-.7 5 .1 6.2.4.5.9 1.2 1.1 1.7l1 1.6c.3.7.4.9 0 1.3-.5.6-.8.5-2.5-1.2zm14.9-14c-.5-.3-3-5.3-3.1-6.2-.1-.7 0-1 .6-1 .9 0 1.8.8 2.4 2l1 2.1c.7 1.5.8 2.5.1 3-.4.2-.7.2-1 0zm-7 100c1.1-.6 1.3-.8 1.3-1.5l-.3-1.6c-.3-.7-.3-.7-.6-.2-1.2 2-2 3.8-1.8 3.8.1 0 .8-.2 1.5-.6zm44.7-.8c.1-.1 0-.5-.4-1-.4-.3-.7-.9-.7-1 0-.8.8-1.4 1.8-1.5.7 0 .8 0 .3-.1l-.8-.4-1.3-1-1.2-.7-1 1c-1.2 1.1-3 2-3.9 2l-1.8.4-2.2.6c-.7 0-1 .3-1 .5s0 .4.2.4l.7.5c.3.3 1 .6 1.5.6 1.6.2 9.6 0 9.8-.3zm-36 0a51.5 51.5 0 0 1 12.6-2.6c.4-.2 2-.4 3.4-.6a50.1 50.1 0 0 0 6-1c.7-.2 2.3-.8 3.5-1.4a12 12 0 0 1 2.7-1c1 0 1.6-.5 1.4-1.5-.1-1.2.7-1.7 2.9-1.7 1.6 0 1.8 0 2.6-.8 1.2-1.2 1.1-1.6-.4-1.6-.7 0-1.4.1-1.6.3-.1.2-1 .2-2.2.2-1.5 0-2-.2-2.2-.5-.5-.8.1-1.4 1.7-2 2.5-.7 2.8-.9 2.4-1.2-.8-.5-6 .6-7.4 1.6a112.5 112.5 0 0 1-2.3 1.5c-.5.3-1.2.5-2.4.5-1.7 0-1.8.2-2.7 1-1.2 1.3-2 1.6-4.2 1.6-1.7 0-2 .1-2.9.9l-2.7 1.7c-1.3.7-1.7 1.1-2 1.9-.3.8-.7 1.1-2 1.8-.9.4-1.9.8-2.2.8-.3 0-1 .3-1.5.7l-1.4 1c-.3 0-.5.2-.5.4 0 .3.6.3 1.4 0zm-42.8-1c0-.4-.4-1-.7-1.5l-.6-.8v1c-.2 1 .4 2 1.1 2 .3 0 .4-.2.2-.7zm81.3-2c0-.2-.3-.2-.5-.1-.2 0-.1.1.2.2.2 0 .4 0 .3-.2zm-33.8-5.7.5-.7c1-1.1 1.6-2.8.7-1.9l-.4.7c0 .2-.2.5-.5.8l-.8 1c-.2.5-.2.6.1.4.2 0 .4-.2.4-.3zm-73.1-2.8c1-.4 2.2-1 2.6-1.5 1.1-1 3.3-1.5 8.4-1.6 2.2-.1 4-.3 4.2-.4.2-.2 0-1.2-.5-2.6l-.8-2.3-1.5-3.3a30.5 30.5 0 0 1-3.8-12.7l-.6-4.9c-.3-3.1-.2-4.5.5-6 .6-1.1 1-3.7 1.3-7a25 25 0 0 1 1.2-6.6c.2-.4.2-.5-.3-.2l-1.5.3c-1 0-1-.4-1 4.2a68 68 0 0 1-1.2 12l-1.5 7.8-1.2 5.5-1.4 5.5a54.1 54.1 0 0 1-2.5 8.5c-1 2.4-1.2 2.8-1.8 3-.6.3-.9.8-1.2 2.2-.3 1 .1 1 2.6 0zm126-.3c0-.2 0-.4-.2-.5-.2-.1-.3-.4-.3-.7 0-.9-.6-1.8-1.3-2.1-1.4-.6-1.3-1.9.1-2.5 1-.4 1-.4 1-2v-4.5c-.2-5-.1-20.8 0-24.1.2-2.7.2-3.3-.2-4.1a4 4 0 0 1 0-3.6c.3-.5.3-.8 0-1-.7-.6-2.2-1-4.1-1.2-1.9-.2-2-.1-2.2.3a75 75 0 0 1 .6 11.9 80.6 80.6 0 0 0 .6 10c-.2 3 0 16.8.2 18 .4 2.1-.3 3-1.5 1.8-.9-1-1.1-5.1-1.6-26.5a1396 1396 0 0 0-.4-18.4c0-1.6-.2-2.9-.4-3.3-.6-1 0-2.4 1.1-2 .2.1.5.7.7 1.3.3.9.4 1 .6.6.4-.7 1.5-1.2 3.7-1.4 1.3 0 2-.3 2.2-.5l-.5-2-.6-1.7-2.9-.2-14.4-.1h-13c-1.8-.1-2.7.3-3.2 1.3a45.1 45.1 0 0 0-2.7 6c0 .4-.7 1.2-1.4 1.7l-2.5 2.6c-1.8 2.2-2.2 2.3-4.1 1.3l-1.5-.8-1 1.7c-.6.9-2 2.5-3 3.6-3.6 3.5-5 5.2-6.4 8.1-1.5 2.8-1.8 4.2-1 4.8.4.4 1.5 0 3-1.3 2-1.5 6.2-3.2 7-2.7.2.1 1.4.2 2.7.1 2 0 2.5 0 3.5.6a28.2 28.2 0 0 1 5.4 3.4c.3.2 1.1 1.4 1.7 2.6 1 2 1.2 2.4 1.2 4.2 0 2.1-.5 3.6-1.8 5.5-.4.7-.6 1.4-.6 2 0 .7-.4 1.8-.8 2.8-1 2-1.4 3.8-1.2 4.5.2.7 1.2 1 2.6 1.1.6 0 1.3.2 1.6.4.6.4 1.6.5 1.8.2.2-.3 2.8-1.2 5.1-1.8a13 13 0 0 1 6.7 0c.4.2 1.3 1.1 1.9 2 .6.8 1.5 1.9 2.1 2.4.6.4 1 1 1 1.3 0 .3.3.5.5.5 1.4 0 6.2.5 6.4.6 0 .1 2.3.2 5 .2 4 0 4.8 0 4.8-.4zm-13.7-3.8c-.6-.7-.7-1.4-1-6a70.4 70.4 0 0 1-.7-9.2l-.4-10.6a1640.6 1640.6 0 0 1-1.2-24.4c.3-.7 1.3-.4 1.6.4.4.9.7 4 .8 8.1 0 1.8.2 3.7.3 4.2.2.6.4 3 .4 5.3 0 2.4.3 4.7.4 5.2.2.5.4 3.6.5 6.9a164.3 164.3 0 0 0 1 19.2c0 1.1 0 1.3-.6 1.4-.3 0-.8-.2-1-.5zm-6.4-7.5c-.6-.6-.9-6.2-.9-18a1051 1051 0 0 1 0-20.8c-.2-4.4-.1-5.3.2-5.5.6-.5 1.2-.1 1.5 1 .4 1 .8 5.5 1 11.2.1 3.5 0 4-.5 5.6-.5 1.7-.5 1.8-.2 11.8.4 14.2.4 14.4-.3 14.8-.3.2-.6.1-.8-.1zm-6.7-11.7-.8-.6.4-12.4.3-15.8c0-2.9.2-3.5.5-3.7.3-.2.6-.2.9 0 .3.4.4 1.4.4 8 0 6 0 7.7.4 8.1.3.5.3.7-.1 1.6a93.5 93.5 0 0 0-.1 13c.3 1.9-.7 3-2 1.8zm-5-4.3c-.4-.6-.4-2.5-.2-4 .3-1.4.3-1.7 0-2.8-.5-1-.5-1.5-.3-3a7 7 0 0 0 0-2.7c-.3-1.2-.8-6-1-9.9 0-2.7.1-3.6.8-3.6.6 0 1 1 1 2l.4 2.8.6 4c0 1.4.3 3.5.5 4.8a48 48 0 0 1 0 11.3c-.2 1-.4 1.2-1 1.2h-.8zm-4.2-9.4c-.5-.4-.9-2.6-1.1-6.7-.2-2.3-.2-2.4.4-3.1.6-.7.7-.7 1.2-.5.8.4.8.8.9 3.9 0 4.7 0 5.6-.5 6.2-.4.5-.5.5-.9.2zm-5.2 34c0-.3-.1-.3-.4 0-.3.1-.4.3-.4.4h.4c.2 0 .4-.1.4-.4zm-84.8-9.8-.1.3c0 .5 0 .7.1.5v-.8zm17.6-1c0-1-1.5-4-2-4-.4 0 .4 4.7 1 5.7.4.6 1-.4 1-1.6zm51.4-11.2c.4-.6.7-1.1.6-1.2-.2-.3-1 0-1.7.6-.5.4-.6.6-.5 1.2.3 1 .6.8 1.6-.6zm-33.8-.9-2.1-3.1c-1.9-2.7-2.4-3.3-2.8-3-.7.4.2 2.4 1.7 4 .4.3.6.7.6.8 0 .4 2.2 2 2.6 2 .3 0 .3-.2 0-.7zm6-2c0-.3-3.6-4.4-4-4.7-1-.5.8 2.1 2.8 4.5.4.5 1.1.6 1.1.2zm-8.3-10.6c-.5-.7-.7-1.8-1-4.3-.1-1.8-.8-2.7-.9-1.2a31.9 31.9 0 0 0 .6 7.6c0 .6 0 .5.9-.4l1-1zm1.9 1.4c0-.3 0-.7.3-.8a42.8 42.8 0 0 0-.2-7.5l-.7.3c-.5.4-.6.5-.4 3.5a118.3 118.3 0 0 1 .3 5.2c.2.5.7 0 .7-.7zm-12 .4c.2-.2.2-.5-.2-1.2-.7-1-.5-2.6.3-4.5.3-.8.5-1.8.5-3.3 0-2 .1-3.2.8-8.4.2-1.2.3-2.2.2-2.3h-1c-.6.2-.8.4-1 1.4-.2.7-.5 2.5-.6 4-.5 4.3-.5 4.6-1 5l-.6 1.3c-.3 1-1 1.1-1.3 0l-.4-.8-.2.8c-.2 1-.3 3.6 0 4.2 0 .2.3.4.4.4.6 0 1.3 1.3 1.3 2.1 0 1 .3 1.2 1.4 1.4l1 .2.4-.3zm4-.4c0-.3.2-.7.4-.9.3-.2.5-.1 1 .6.7 1.3 1 1.3 1 0 0-.9-.1-1.1-.5-1.1-.3 0-.3-.1 0-.2.3 0 .4-.9.4-6.1 0-5.8-.2-7.2-1-7.2-.3 0-.8 1.7-.8 3.1 0 2-.5 5.3-1 6.6-.3.7-.5 1.7-.5 2.4 0 .6-.2 1.5-.5 2-.4.8-.4.8 0 1.2.8.4 1.4.3 1.5-.4zm-24.6-5.3c0-.7-.1-1-.2-.6l-.3 1c-.2.1-.1.3 0 .5.5.5.5.5.5-1zm11.6-1c0-.3-.2-.2-.2.3 0 .4 0 .6.2.4v-.8zm110.8-6.5c.6-.5 0-.7-2.8-1-1.4 0-2.7-.2-3-.4-.3-.2-.4 0-.4.4 0 .3.1.8.3 1 .2.6.4.6 2.9.5 1.6-.1 2.7-.3 3-.5zm-87.5-1.5c0-.9-.2-2.3-.4-3.3l-.5-2.8c-.2-1.2-.9-1.6-1-.5a22 22 0 0 0 .7 6.7c.7 2 1.2 1.9 1.2-.1zm21.2.1c0-.2-.3-.7-.7-1.1-.7-.8-.7-.8-.5-.1.2.6.9 1.5 1.1 1.5l.1-.3zm-4.2 0-1.6-3.1-1.7-3.7a486 486 0 0 1-1.3-4.8l-.4-.8-.1 1.4c-.2 1.6.4 4.2 1.5 6.8.6 1.7 2.6 4.2 3.2 4.3h.4zM82.7 164a9 9 0 0 0 .7-1.5l.8-2c.8-1.8 1.2-3 1.2-3.9 0-.7 0-.7-.6-.3-.6.6-1.3 2-1.3 2.5 0 .3 0 .6-.2.7-.7.7-1.8 5.4-1.3 5.4l.7-.9zm38.7-1.4-.8-2.2c-.5-1-.8-2-.8-2.2 0-.5-1.7-4.1-2-4.1-.4 0-.2 1.3 1 4.9l.2 1.2c0 .6 1.5 2.6 2 2.6.2 0 .4 0 .4-.2zm120-5c-.2-1.2-.4-.1-.2 2l.1 2 .2-1.7v-2.3zm-75.9-.9c.6-.3-.8-1.1-3.4-2-1.2-.6-2.4-1-2.5-1.2l-.8-.2c-.5 0-.7.3-1.2 1.3-.7 1.8-.7 2.3 0 2.5 1 .1 7.5-.2 8-.4zm-64.3-.6c.4-1 0-4.4-.4-4.4-.3 0-.8 3.6-.5 4.5.3.7.6.7 1-.1zm81.6.4h-1.3c-.4.1-.1.2.6.2s1 0 .7-.2zm5-8c.8-.2 1.5-.4 1.6-.6.2-.3-.3-1.8-.7-2-.2-.3-9-.2-19 0a61 61 0 0 1-8-.1c-.2 0-.5.7-1 2.5-.2.5.3.5 8 .6 11.4 0 17.4 0 19-.4zm-85.4-13c.1 0 0-.2 0-.2-.2 0-.4.1-.4.3l.2.2s.2 0 .2-.2zm-14-.6c0-.1-.2-.1-.4 0-.2 0-.2.1.1.1.3 0 .5 0 .4-.1zm90.9-2.5 2.4-1c.4 0 .8-.8.7-1.3l-.7-1.1c-.5-.5-.7-.5-1.2-.3-2 1.1-5 4.7-3.8 4.7.2 0 1.4-.4 2.6-1zm-99-1c.4-.3.2-.4-2-.2a32 32 0 0 0-3.4.3l-1 .2 1.3.2c1.9.2 4.7 0 5.1-.5zm79.4-3.3c3.3-1.7 4.5-2.5 4.5-3.1 0-.7-1.5-3-1.9-3l-1.4-.7c-1-.6-1.5-.8-2.4-.8a3 3 0 0 1-2-.5c-.3-.3-1-.6-1.3-.6-.7 0-.8.1-.8.9 0 .5.1 1 .3 1.1a17 17 0 0 1 1.6 5.7c0 2.5.3 2.6 3.4 1zm90.4-.1h-1 1zm-81-5.6c.9-.6 1.4-.7 2.8-.7 1.5 0 1.9 0 2.7.7.9.7 2.5 1 3 .6.2-.3-1.2-2.7-2-3.2l-1.7-1.5c-.6-.6-1.3-1-1.6-1-.4 0-1-.2-1.3-.4-.5-.3-1-.4-2-.3-2.2.4-2.3.5-2.5 2.5-.3 2.7-.3 3.2.1 3.6.5.6 1.3.5 2.5-.3zm-8.6-5.8c-.4-.4-1-.5-1-.1l.4.7c.3.3.5.3.6 0 .2-.1.1-.4 0-.6zm21.2-.9c.9-.4 1-1 .4-1.6-.6-.5-.5-2.1.1-2.5.7-.5 1.7 0 2.1.8.4.8 1 .9 1.3.3.2-.6-.4-1.2-1-1.2l-1-.3c-.1-.2-.9-.7-1.7-1.2-.7-.4-2-1.2-2.7-1.8a20 20 0 0 0-4-2.6c-.6-.5-4.4-4.8-4.8-5.6-.2-.3-.4-1.8-.4-3.3-.2-3.2-.3-3.6-1.2-4l-1.5-1c-.4-.5-1.5-1.4-2.3-2-.8-.6-2-1.8-2.6-2.6-1.3-1.7-2-2.3-2.5-1.8-.5.4-2 .3-2.3-.2-.7-1-2-1.5-3.5-1.3-2.2.3-3 1.1-1.7 1.7 1 .4 1 2 0 2.8a3 3 0 0 1-1 .7l-.7 1.2c-.6 1.2-1.2 1.6-2.2 1.3-.6-.1-2.9-3.5-3.2-4.7 0-.5-.5-1.2-.8-1.6-.6-.7-.6-1-.5-2.5 0-1 .3-2.1.4-2.5l.2-1.5.3-1.5.4-1.5c.2-.7.5-.9 1.7-1.2l2.8-.3c1.1 0 1.6-.2 2.2-.7.5-.4.8-1 .8-1.2 0-.5-.1-.5-2.5-.4-1.5 0-3.5.3-4.6.4-2 .3-2.6.3-6-.4-.7-.2-.7-.2-.3.4.2.4.8.8 1.2.9 1.5.4 2.3 2.6 1.6 4.1l-.5 1.2c0 .3-.3 1-.6 1.4-.4.6-.7 1.3-.7 1.7 0 1.4-2 2.7-4.5 3-3.6.4-7.3 2-9.3 4.2-.5.5-.3 1.8.2 1.8l2-1.1c2.7-1.8 3.4-2 4.3-2 1.5 0 2 1.2.9 2.4-.4.5-1 .8-1.8.9-.7 0-1.7.5-2.5 1l-1.3.9h1c1.2 0 1.7.4 2.2 1.7.4.9.9.9 2.6 0l1.5-.6 1.5-.6 2.2-1c3.9-1.7 6.3-1.4 6 .8-.1.6 0 .9.6 1.3.4.3 1 1 1.2 1.5.2.6.8 1.2 1.2 1.5.5.3 1 .8 1.1 1.2.2.4.5.6 1.2.6h.9l-.6-.6c-.9-.6-1-2.6-.1-3.3.4-.4.5-.6.3-1.2-.3-.7.1-1.8.6-1.8.3 0 3.2-2.1 3.4-2.5.1-.3 1-.2 1.7.1 1.3.7 1.3 1.5-.2 3.1-.9 1-1.1 1.4-1 1.7.6.8.4 1.8-.4 2.1-.4.2-.8.7-.9 1.1-.3 1-1 1.5-2 1.5-.6 0-.6 0-.4.4.6.7-.3 1.7-1.4 1.7-.6 0-1 .2-1 .4-.3.6.5 2.3 1.5 3.1 1.2 1 1.3 2.4.3 3-.4.3-.7.7-.7 1 0 .6 1.5 2.3 2 2.3.2 0 .6-.4.8-1 .3-.7.4-1 .1-1.7-.4-1 .1-1.6 1-1.4l3.2.5 2.4.5 1.7-1c2.3-1.1 3.4-1.4 4.3-.8.4.2.7.7.8 1 .1.5.5.8 1.1 1 1 .4 1.8 1.5 1.1 1.9-.6.4-1.1.3-2.4-.4-1.5-.8-2.1-.8-3.5-.3l-2.3.7c-1.4.3-1.5.4-1 1.4 1.3 2.2 1.8 2.3 6.8 2 4.8-.3 5.9-.1 7.4 1.2l1.7 1.2c1 .3 5 .1 5.8-.3zM166 101.4l-1-1.1-.4-.7-.5.6c-1.1 1.2-3.1 1.1-4.7 0-1.6-1.3-.9-2.8 1.2-2.5.9.2 1.7-.2 4.4-1.8.6-.4 1.5-.6 2-.6 1.4 0 1.7.7 1.3 2.5-.1.7-.2 1.7 0 2.1 0 .6-.1 1-.5 1.4-.7.7-1.2.7-1.8 0zm-6.4-6.3c-.3-.2-.4-1.1-.1-1.6.3-.4 1.3-.9 1.8-.9.2 0 .8-.3 1.2-.7 1.1-.9 2-1 2.7-.5.4.4.5.8.4 1.6-.2 1.4-.6 1.6-1.5 1.2l-.9-.5-1 .8c-.7.7-1.7 1-2.6.6zm-2 19.3c.5-.4.4-.5-2-1.6-1.8-1-2.5-1.1-1.7-.4.8.6 1.7 2.2 1.7 2.8 0 .5 0 .5 2-.8zm-13.7-3.3a15 15 0 0 1-1.8-2c-.6-.8-1.2-1.4-1.3-1.3-.2.1-.4.5-.7 1-.4.8-.4.9.2 1.3.6.5 1 .7 2.3 1.2 1.6.7 2.3.6 1.3-.2zm4-2.2c-.3-.5-.8-.5-.8 0 0 .4.7 1 .8.6v-.6zm.5-2.4c0-.3-.7-1-1.1-1-.2 0-.2 1 0 1.2.3.3 1.1.2 1.1-.2zm-9.2-2c.5-.4.4-.5-.5-.7-1.4-.5-2.6-.6-4.6-.8-1.5-.1-1.8 0-1.8.3s.3.4 1.1.4c.6 0 1.8.2 2.5.5 1.6.6 2.7.7 3.3.2zm4.2-2c-.7-.2-1.6-1.8-1.4-2.6.1-.6 0-.7-.7-1.2-.5-.3-1.1-.5-1.4-.5-.2 0-.7-.1-1-.3-2-1-2.4-1.1-3.8-.7-.8.3-1.7.7-2 1-1 1-1.9 1.3-3.2 1-1.2 0-1.3 0-1.3.5s.1.5 3 .4c3.1-.2 3.9 0 9.6 1.9l2.2.6c.4 0 .4 0 0-.1zm6.3-19.8c.7-1.1 1.4-1.7 2.9-2.3 1.6-.6 2.6-.6 4.2 0l1.2.5.2-.7.2-2.3c0-1.5 0-1.6-.8-2-.6-.2-1-.2-2.8.3l-4 .7c-1.1 0-2.1.3-2.3.4-.1.1-.2.6-.1 1.1l-.3 2.5c-.4 1.2-.4 1.8-.2 2 .2.2.3.5.3.8 0 .4 0 .4.5.2.3-.2.8-.7 1-1.2zM9.2 253.3c-.5-.3-.6-.6-.5-1.5.1-1.3.8-2 3.3-2.6 2-.5 3-.6 3.7-.3.3.2.7.4 1 .4.5.2 1.3 1.4 1.1 1.9-.2.7-1.5 1.3-3 1.5l-2.6.5c-1.9.6-2.3.6-3 .1zM40 224.1c-.4-.2-.7-.7-.8-1.3l-.3-14c0-7-.2-14.1-.4-15.6-.2-2.5-.2-2.8.2-3.3.5-.5 1-.6 1.4-.1.1.2.4 3.5.5 7.4l.5 8.1.1 5.6c0 5.3.3 8.4.9 10 .5 1.4.2 3-.7 3.3-.7.2-.7.2-1.4-.1zm-21.1-1.7c-1-1-1-2.2.3-6.8l1.5-5.7a9 9 0 0 1 1-2.6c.7-1 2.1-.8 2.3.1.1.5-.5 4-1 5.7-1.3 5-1.5 6.4-1 7.8.1.5 0 .9-.4 1.4-.7 1-1.8 1-2.7 0zm30.8-6.4c-.7-.9-.9-1.6-.8-3 0-.8.2-1 1-1.2.4-.1.8-.4.9-.5l-.1-3.6c-.1-1.8-.4-8-.5-13.8a129.1 129.1 0 0 0-1.4-20.6l-.4-4.1c-.1-1.7.4-3 1.4-3.2.5-.1.9 0 1.6.8l1 1-.2 2.2a42.4 42.4 0 0 0 0 6.3 179 179 0 0 1 .6 12.2v4.6h.8c.5.2.7.3.8.9 0 .5-.1.8-.7 1l-.7.4-.1 3c0 1.7 0 5.8.2 9 .2 5 .2 6.3-.2 7.3-.4 1.7-.8 2-1.8 2-.6 0-1-.2-1.4-.7zm-4.6-2.5c-.4-.2-.5-.7-.5-2.9 0-1.4.1-3 .3-3.3.2-.5.1-1.2-.1-2.6a47 47 0 0 1-.5-5.6c-.2-3.8-.7-10.3-1.2-13.5a99 99 0 0 1-1.6-14.4c-.9-1.6-1-2.9-1-6 .1-3.5.4-4.5 1.4-4.8 1.7-.4 3.2 3.6 2.5 6.5-.3 1.2-.2 4 .2 5 .5.9.8 4.3.5 5.1v1.8l.2 2.6c0 1 0 1.8.3 2.3.3.5.5 1.6.5 2.7l.4 5.3.5 10.1c.2 6.5.2 6.8.7 7.2.7.6.8 1 .3 1.2-.3.1-.6.8-.7 1.5-.4 2-1 2.5-2.2 1.8zm232.7-8.3c-.4-.6-.4-1.7-.4-8.4a930.8 930.8 0 0 1 .3-23.5c-.2-2 0-11.2.2-11.5.5-.7 1.4-1 2-.6l.5.3-.1 11.3-.3 12c-.1 1 .2.9 1.3-.3l1-1-.2-4.1c-.5-13-.5-14.8-.2-15.6.6-1.4 1.6-1.3 2.4 0 .3.7.3 1.4.2 4-.2 3.3-.2 13.5 0 16 .3 4 .4 11.1.1 11.8-.3.8-1.3 1-1.8.4-.3-.4-.5-3.1-.5-7.7 0-1.5-.2-1.8-.5-2l-1-.3c-.3-.2-.5-.3-.6-.2l-.1 3.9a85.5 85.5 0 0 0 .9 14.3c-.4 1.7-2.3 2.5-3.2 1.2zm-16.8-1.7c-.9-.2-1.2-1.4-1.4-5.6a299.1 299.1 0 0 1-.1-30.8c0-2.8 0-3.6-.4-4.3-.6-1-.5-1.5.1-2.3 1.3-1.6 3.4-.1 3 2.3a199 199 0 0 0 .5 40.2c-.4.5-1 .7-1.7.5zm5.3-4.2c-.3-.4-.5-1.2-.5-4.2l-.3-7c-.4-5.7-.3-19.2 0-22 .4-2.4.4-2.6 1-2.8 1.1-.2 1.7.6 1.7 2.4a152 152 0 0 0 .4 29.8c.2 2.5-.2 4-1.2 4.2-.4 0-.9-.1-1.1-.4zm33-4.7c-.4-.3-.5-.8-.6-3.2l-.3-6c-.2-1.8-.4-6.8-.5-11.1a37 37 0 0 0-.4-7.9 3 3 0 0 0-1 .6l-.8.6-.1 6c-.2 4.4-.1 7 .2 10.3.5 5.3.6 9.2.1 9.8-.6.7-1.2.8-1.9.2-.5-.6-.6-.8-.6-6a196.4 196.4 0 0 1-.2-23.3c.1-1.7.3-2.4.7-2.9l.6-.5-.6-2.8c-1-4.6-.6-8 .8-8 .9-.2 1.4.5 1.4 1.7v3.2c.2 1.8.3 2.1.6 1.8.2-.1.3-.5.3-.7l.4-1.4c.2-.5.4-1.4.4-2 0-2 0-2.1 7-2.5l10.2-.6c5.8-.5 15-.8 18.5-.5 4 .4 5.2 1.2 4.2 3.2-.3.6-.4 2.9-.2 15.1.1 20.3.2 19.6-1 19.6-1.5 0-1.8-3.7-2-22.2 0-6.6-.2-12.2-.3-12.5-.3-.9-4.6-1-13.7-.5-3.8.3-5 .5-6.1.9-1.2.5-2 .5-6.8.6-3.6 0-5.6.1-6 .3-1 .6-1.7 2.2-2.3 6l-.2 1.4c0 .3 0 .5.5.6 1 .1 1.2 1 1 2.6a152.4 152.4 0 0 0 .4 19.6l.4 6.6c.2 3.4-.6 5-2.1 4zm-287-2a2 2 0 0 0-.9-.2c-.9 0-1.5-1-1.3-1.9.3-1.4 1.6-2 6.2-2.6 11-1.7 10.8-1.7 11.3 0 .6 1.8-.5 2.8-3.2 3-.9 0-2.3.2-3 .5-4 1-8.4 1.7-9 1.2zm342.3-5.7a2 2 0 0 1-.4-.5l-.4-2c-.3-1.1-.5-2.7-.5-3.6l-.4-3.4c-.3-2.1-.5-3.7-.9-10.5-.4-6.9-.3-7.1 1.1-7.1 1 0 1.3.7 1.5 3 .3 3 .3 3.7.6 5.5.2 1 .3 2.8.3 4 0 1.4.1 3 .3 3.9l.2 3c0 1.2.2 1.8.5 2 .2.3.3.6.2 1a10 10 0 0 0-.1 2.2c0 2.4-.9 3.6-2 2.5zM253 185.1c-.5-.6-.8-4-.8-9.7l-.3-10.3c-.3-5.3-.1-5.9 1.2-6 .7-.1 1 0 1.5.7.5.8.5 1 .3 3.4l-.2 11.8c-.1 11.6 0 10.5-.8 10.5-.3 0-.7-.2-1-.4zm76.2-3.7c-.5-.6-.5-1.4-.7-9a166.5 166.5 0 0 0-.6-13c-.1-5.5 0-6.6 1-6.8.3 0 .8 0 1 .3.5.4.6 1 .8 6.9.5 13.1.5 21 0 21.6-.4.5-1.1.5-1.5 0zM23.2 168.1c-.5-.5-.5-.5-.3-4.2.4-5 .4-6.6 0-8.2-.3-1.5 0-4.7.5-5.8.4-.8.9-.9 1.5-.2.4.4.5.8.3 3.2l-.4 8.8c-.1 5-.2 6.1-.6 6.4-.3.4-.4.4-1 0zm-5-.3c-.3-.3-.4-1.2-.4-5.3-.1-8.4.4-11.4 1.8-11.4 1.3 0 2 2.1 1 3.4-.4.6-.5 1.5-.6 6.5-.1 5.3-.2 6-.6 6.5-.6.6-.7.6-1.2.3zm10.2-.2c-.4-.5-.9-1.7-1.5-3.7a43 43 0 0 1 .1-11c.3-.5.7-.8.9-.8.2 0 .5-.2.7-.6.4-.5.4-.7 0-2-.3-1-.3-1.4-.1-1.9.1-.3.4-.5.5-.5l3.9-.1a91.3 91.3 0 0 0 19.7-2.4c1.9-.5 3.5-.5 4 0 .3.2.5.5.5.7 0 .5-1.4 1.6-3 2.4l-2 1 1.5.1c1.4.2 2.1.7 2.1 1.4 0 .4-1 1.4-1.4 1.4-.2 0-.6.4-.9.8-.8 1-1.6 1-2.5 0l-.6-.9h-2.7c-1.5 0-3.4.2-4.3.4-2.2.4-5 .3-6.3 0l-2.2-1.5c-1.3-1.2-2.3-1.5-3.4-.9-.7.4-.7 1.2.3 2.7.7 1.2.9 1.7 1 3.2 0 1 .1 2.4.3 3 .4 1.7-.2 4.7-1 4.8-.8.2-1.1-.7-1-2.7.2-2.4 0-4-.7-5-.6-.7-.8-.5-1.2 1a33 33 0 0 0 1 10.8c-.2.7-1 .9-1.7.3zm19.3-19.7c0-.1.7-.3 1.3-.3.7 0 1.4 0 1.7-.2.2-.2.7-.3 1.1-.4.4 0 .9-.3 1.1-.5.2-.2.6-.5.9-.5h-.3c-.8 0-2.2.3-4 .8-.6.2-2 .6-3.3.8l-2.2.5h1.7c1 0 1.9 0 2-.2zm2.9 17.2c-.3-.5.1-.9.5-.5l.3.5c-.2.3-.6.3-.8 0zm-37.2-2.6c-.5 0-1-1.5-1-2.6l-.6-3c-.6-2.2-.6-2.4-.2-3 1-1.4 2-.5 2.4 2.1l.5 3.3c.3 2 .3 2.7 0 3.1l-.5.3-.6-.2zm262.9-5.1c-.6-.8-.5-2 0-3.2.3-.5.5-1 .4-1.2-.3-.6-2.7-1-5-.8a4372.8 4372.8 0 0 1-15.5 1c-2 .4-3.5-.8-3-2.4.3-.8 2-.9 12.9-.9 10.5 0 14.9.2 15.8.8 1 .6.7 1.5-.8 2.2-1 .4-1.3.7-1.3 1.1 0 1-1 2.8-1.8 3.4-1 .7-1.2.7-1.7 0zm-198-14.7c-1.3-.3-3-.4-6.4-.4-34.7.1-32.9.2-33-1.7-.1-1 0-1.2.6-1.6.5-.3 1-.4 2-.2a349.4 349.4 0 0 0 42-1.1c1.3-.2 1.7-.1 2.1.3 1.2 1 .4 2-1.6 2-1 0-1 0-1 .5.3.8 0 1.4-1.2 2-1 .7-1.2.7-3.6.2zm150.2.2-5.3-.2c-2.3 0-5.6-.2-7.5-.5-1.9-.2-3.8-.4-4.2-.3-1 .2-2.3-.3-2.3-1s1-.9 4.3-.8c5.7.3 40 .1 45.3-.2l9.4-.5 11.3-.2 12-.2c6.4-.3 13.7-.3 14.9 0 .7.1 1 .4 1.3.9.3.6.2.7-.4 1.3-.6.5-.8.5-1.8.3-1.3-.4-5.5-.4-27.8 0-9.3 0-14.7.2-17 .5-2.1.2-7 .4-12.2.5a374 374 0 0 0-20 .4zM50.2 127.2c-5.4-.2-8.3-.5-8.9-1-.5-.5-.5-1.8 0-2 .4-.2 1.7-.1 3.5 0 4.4.6 8 1 9.8 1.1 2.6.2 3.6.9 2.7 1.7-.6.4-2.1.5-7.1.2zm28.1-2.3-7.8-.2a36 36 0 0 1-7.1-.4 23 23 0 0 0-5.2-.3h-4.6l-.7-.8c-.6-.7-.8-.8-3.3-1-2.2 0-2.7-.2-3-.6-.3-.5-.3-.6 0-1 .3-.5.6-.6 2-.5 1.7 0 1.7 0 2.2-.8.4-.7.6-.8 1.8-.8h3c.8 0 1.6 0 1.9-.2.1-.2.4-.2.4-.1a213.4 213.4 0 0 1 23.1.1c1 .3 1.2.7 1.2 1.5 0 .7-1 1-3 .6a13.4 13.4 0 0 0-3.2-.3c-2.9 0-8.6 0-9 .2-.5.2-.5.2 0 .4.4.1.6.4.6.6 0 .2.3.4.5.4l2.7.1c1.5 0 2.6.3 3.3.6 1 .5 1 .5 1.6-.1.7-.7 2-.8 3.5-.2 1.5.7 4.7.3 8-1 1.4-.5 2.2-.5 4.3 0 1.2.4 2 1.2 2 1.8 0 .8-1 1.5-2.1 1.5-4.3 0-9.5.2-9.8.4-.3.4-1.2.4-3.3 0zm195.7-5c0-.2.1-.3.3-.2l.3.3-.3.1c-.2 0-.3-.1-.3-.3zm-53.2-1.1c-.6-.4-.6-1.7-.1-2.1.5-.4 5-.6 19.9-.6l14-.2 1.8-.2H255c-1.6 0-2.1-.5-2-1.5 0-.6.1-.6 3.7-.6l5.2-.2h2c.2.2 2.2.3 4.8.3 3.4 0 4.3 0 3.7-.3a36 36 0 0 0-9.2-.6c-1.1.2-1.6.2-1.9 0-.1-.2-1.3-.4-3.1-.4-2.8 0-2.9 0-2.9-.6 0-.5-.2-.6-1.5-1-2-.4-3-1-3.6-1.8-.6-1-2-1.8-3-1.8a44 44 0 0 1-3.9-.5 11 11 0 0 1-4.6-1.4c-1.4-.7-1.8-1.1-2-1.8-.2-.7-.1-1 .3-1.6.5-.6.7-.7 2.1-.7.9 0 2 0 2.5.2l3.5.5c2 .1 2.7.3 3.2.7 1 1 3.4 1.2 16.3 1.5 4.2.1 6.2 0 6.4-.1.2-.2.3-1 .3-1.9 0-1.2 0-1.7.5-2.2.3-.4.5-1 .5-1.7 0-.9.1-1.2.9-1.8 1-1 2.2-1.2 4-.9 2.2.4 3.2 1 4 2.3 1.2 1.7 1.2 3.3.2 4.3l-.7.5.6.2c.9.2 2.5 0 4-.4 1-.3 1.3-.3 1.9 0 .5.4.7.8.7 1.4 0 .9-.1 1-1.1 1.5l-4.3 1.5c-3.3 1-4 1.5-5 3.3l-.4 1 .9.4c.5.2.9.6.9.8 0 .5-.8 1.2-1.3 1.2s-.5.1-.2 1c.3 1.1.8 1.2 3.8 1 10-.8 23-.5 24.3.7.2.2.4.5.3.9 0 .4-.2.5-1.4.4a166.6 166.6 0 0 0-18.1.2h-6.4a60.7 60.7 0 0 1-7.7-.2c-1.1.2-9.9.4-29.3.7-5 0-10.1.2-11.4.3-3.6.4-10.1.6-10.6.3zm52.4-12c-.3-.2-.8-.2-1-.1-.4 0-.2.1.4.1h.6zm.1-3.3h-.8c-.3.1-.1.2.3.2.5 0 .7 0 .5-.2zm6.4-.3c0-.2-.1-.3-.6-.3-1.4 0-1.9-1.5-.7-2.3.9-.5.8-1-.2-1.8a3 3 0 0 0-2-.6H275v1.8c.1 1.8 0 2-.6 2.4-1.4 1-1 1.2 2.2 1.2 2 0 3-.1 3-.4zm-247 14.5c-.8-.3-.8-1-.1-1.7.7-.7.8-.7 4-.6 5.8 0 6.7 0 6.7-.4 0-.2-.4-.4-1.2-.5-1.9-.2-2.9-1.7-1.8-2.6.3-.3.7-.3 1.8 0 3 .7 5.4.9 7.4.6 1-.2 4.7-.3 8.4-.3a90 90 0 0 0 13-.8c2.7-.3 3.4-.3 3.8 0 .5.4.5 1.4 0 1.8-.3.3-12 .8-20.1 1a86.3 86.3 0 0 0-9.7 1l13.4.3c21.2.2 25 .4 25.4.9.3.3.3.5 0 .8-.5.4-4 .6-5.5.3H77c-.1.2-8 .2-8 0 0-.1-2-.2-4.5-.1-19.4.4-31 .5-31.8.3zm56.1-3c-1.6-.7-1.7-2-.3-3.3l1-1 .2-3.1a208.9 208.9 0 0 1 .9-11.7l.1-2.7-.8-.1c-1-.2-1.2-.6-.7-2.4.4-1.3.5-1.5 1.2-1.5 1.3 0 2.5 1.5 2.9 3.8.2 1.2.2 2-.2 4-.5 3.3-.8 5.6-1 9-.2 3.1-.1 3.3 1.3 2.1 4-3.2 6-4.6 6.8-4.6l.6-.2 1.1-.9c.6-.3 1.5-1 2.1-1.6a7 7 0 0 1 2.1-1.3c1.4-.4 4.8-2.9 7-5 2.2-2.2 2.3-2.4 2.6-4.3.2-1.8-.3-2.9-1.4-2.9a9 9 0 0 1-1.8-.2c-3.2-.9-3.8-1.3-3.8-2.4 0-.5.2-.8 1-1.3.6-.3 1.2-.6 1.5-.6.7 0 5-2.2 5.3-2.8.5-.7.2-2-.5-2.4-.4-.1-1.1-.1-2.2.1-2.6.7-3.2.7-3.8.4-1.2-.6-.3-2.7 1.2-2.7.4 0 1.2 0 1.8-.2 1-.3 1-.4.8-1.2-.3-1-.3-1.8 0-3.9.2-1.3.1-1.6-.6-3l-.8-2-.8-1.8c-1.6-2.9-.9-5.5 1.5-5.4 1.5 0 4.4 1.5 5 2.6.7 1 .8 1.7.2 1.9-.4.1-.7 0-2.7-1-1.8-1-2-.8-1.2 1.4l1.3 3.1.9 2.4c.2.6.4 1 .6 1 .2 0 1-1 1.8-2.1a59.2 59.2 0 0 1 5.5-6.8l1.6-1.9c1.2-1.2 1.9-3 1.3-3.6a28 28 0 0 0-5.5-2l-1.4-.7c-.6-.5-1.2-.8-1.4-.8-.1 0-.6-.4-1-.9-.5-.4-1.5-1.1-2.3-1.5l-2.5-1.5c-1.3-.8-1.8-.8-3.2 0a17 17 0 0 1-4.7 2.1c-2.7.7-5.3 1.5-6 1.8-.4.2-1.5.4-2.5.5-1.6.2-2 .4-2.6 1.1a15 15 0 0 0-3 8l-.2 2 1-.2c1.2-.2 1.7-.8 1.7-1.9 0-1 1.7-4.4 2.8-5.5 1.5-1.7 2.7.5 1.3 2.5a23 23 0 0 0-1.4 2.7c-.8 1.8-.8 2-.4 2.3l.9.6c.4.4.5.4.9 0s.6-.5.9-.2c.7.6.4 1.2-.8 1-.4 0-.5.2-.5 1.4 0 1.7 1 3.7 2.2 4.2a2 2 0 0 1 1.2 2.1c0 .6-.1.7-1.9.6-2.6-.1-3.5-.9-2.6-2.2.2-.4-.9-2.6-1.3-2.6-.2 0-.7.5-1 1.2-.8 1.3-1.5 1.5-2.2.6-.4-.4-.5-.8-.3-1.8v-.8l-.9 1.1c-.3.5-1 1.5-1.4 2.4-.9 1.8-1.7 2.8-2.2 2.8-.2 0-.6-.3-.8-.7-.5-.6-.4-.7 0-1.6a16.7 16.7 0 0 0 2.8-8.5c0-1.3.2-1.3-3.5-.2l-2.4.8-.6-.6c-.7-.7-1.8-.7-9.3-.1-7.5.6-8.5.5-8.6-.6 0-.7 1.3-1 4.7-1.2l8.7-.5c3-.1 6.6-.5 8.3-.7l3-.5.4-1.4a28.4 28.4 0 0 1 1.6-4.6 6.2 6.2 0 0 1 2.9-3c2.3-.8 6.4-2 9.9-2.5 2-.3 4-1.3 5.2-2.5.6-.7 1.3-1.2 1.5-1.2.8 0 3.4 1 4.7 1.9a6029.3 6029.3 0 0 1 5.4 3.6c1.7 1.3 2.5 1.6 6.8 2.8 2.1.6 2.6 1.1 2.6 2.9 0 2-1.2 4-3.5 6.6a52.7 52.7 0 0 1-8.2 8.6c-.4.3-.8.8-.8 1 0 .3 0 .6-.2.7-.2.3-.8 2-.8 2.6 0 .2.5.8 1.1 1.4.7.5 1.3 1.4 1.6 2 .4 1.2.4 1.3-.3 3-.6 1.6-.9 2-1.5 2.1l-2.7 1c-.9.4-1 1 0 1 1.7 0 3.2 1 3 2.1 0 .3 0 1 .2 1.6v1.9l-.7 1.9c-.5 1.6-3.7 5-6.2 6.4a26.4 26.4 0 0 0-5.6 3.8 4 4 0 0 1-1.6 1 2 2 0 0 0-1.2.7c-.2.2-.9.7-1.6 1a23 23 0 0 0-3.7 2.7 29.7 29.7 0 0 1-3.2 2.4c-.8.4-2.5 2.6-2.5 3.1 0 .2-.3.6-.7 1-.6.6-1.6.8-2.5.4zm152.3-.8c-.3-.4-.2-1.7.3-1.8a68 68 0 0 1 10.1 0c.6.5.7 1.3.3 1.6-.5.2-10.4.4-10.7.2zM45.3 111c-1.4-.4-1.7-.6-1.7-1.3 0-.4.1-.7.3-.9.2-.1 2.4-.3 5-.3 10.7 0 23.5-.6 26.3-1.2 2.3-.5 3.4-.3 3.7.7.4 1.2-1.1 1.8-4.8 1.8-1.6 0-4.5.1-6.5.3l-7.2.2a62 62 0 0 0-11.4.8c-.3.4-2.3.3-3.7 0zm163.3-7.3a3 3 0 0 1-.7-1.1l-.3-.8-2 .2c-2.1.2-2.9 0-3-1-.3-1.3.3-1.4 5.3-1.6a324.7 324.7 0 0 0 12.4-.6c3 0 6.8-.2 8.4-.3 3.1-.1 4.3.2 4.7 1.1.2.7.2.9-.4 1.5-.7.6-3 .7-4.6 0a12 12 0 0 0-5.5 0c-.5.2-.6.4-.5 1 0 .6 0 .8-.4 1-.3.2-2.2.4-4.3.4l-6.3.4c-1.7 0-2.4 0-2.8-.2zm3.6-2.3h-.8c-.3 0-.1.1.3.1h.5zm131.9 2.2c-.5-.4-.4-1 .1-1.7.2-.2 1.1-.3 2.8-.3 1.8 0 2.3-.1 1.7-.3h-4.2c-2.6 0-3.4 0-3.7-.4-.5-.5-.5-1.2.1-1.8.6-.5 3.4-.5 6.8-.1l4.2.4 4.1.3c1.1.2 3.7.4 5.7.5 3.8.3 5 .6 5 1.3 0 .7-.6 1.4-1.2 1.4l-1 .3c-.2.3-2.3.4-8.4.4-4.5 0-9 0-9.9.2-1.4.2-1.8.2-2.1-.2zm-21.1-1.2c-3.5-.6-9.8-.8-15.1-.6-5 .1-5.8 0-6.6-.3-.6-.3-.8-.6-.8-1 0-1 .8-1.4 2.6-1.2l7.6.3c7.6.2 12.7.5 14 1 1 .3 1.5 1.2.8 1.7l-.8.3-1.7-.2zm-25.5-.9c-.7-1-.6-7.2 0-9.3.8-2.2 1.5-2.7 3.6-2.9 4.9-.4 18.9-.5 33.2-.2h10.2c3.1 0 4.1.3 4.1 1 0 .6-.8 1-2.2 1-1.2 0-1.2 0-1.2.6.2 2.1-.8 4.2-2 4-.5 0-.5-.2-.5-1.4l.2-2.4v-1l-3.1-.2h-5c-1.6.1-1.7.2-2 .9-.2.7-.3.7-2.2.8a634.7 634.7 0 0 1-29.2-.4c-1.5.4-1.7 1.1-2 5.7-.1 3.6-.4 4.4-1.2 4.4-.2 0-.5-.2-.7-.6zm-42.7-.5c-.1-.4 0-.7.6-1.2.4-.3 1-.6 1.3-.6.3 0 .6-.4.6-.7.2-1.3 1.3-1.6 4.6-1.3 1.5.2 1.9.1 2.9-.4 1.5-.7 2.3-.4 2.3 1 0 .4-.1 1-.3 1.1-.2.2-.5.7-.6 1.1-.3 1.4-.6 1.4-6 1.6H255zm-195-2.2c-.9-.6-1.2-.7-2.3-.5l-6.4.3c-5.2.1-6.2 0-6.4-1-.2-1 .2-1 7.1-1.2l9.9-.2c2.7 0 3.2 0 3.6.4 1 1-.2 2-2.6 2.6-1.8.4-1.9.4-3-.4zm292-.4a14 14 0 0 0-2.6-.2c-2.9-.1-4.1-.5-4.2-1.4 0-.5 0-.8.4-1 .2 0 .8-.5 1.3-.9.8-.6 1.1-.7 2.5-.7 2.4 0 6.3.7 6.6 1 .1.3 0 .6-.2 1l-.7 1.2c-.2.5-.6.8-1.2 1-1 .3-1 .3-1.9 0zM31 96.4c0-.1-3.6-.3-7.9-.4a320.2 320.2 0 0 1-21-1.2c-.2-.1-.4-.7-.4-1.1 0-1.3.6-1.7 2.3-1.5 2.4.3 8.1.7 14 1 10.5.4 14.8.9 15.4 1.6.7.7.2 1.3-1.2 1.5H31zm228.1-.5c0-.1-.2-1.5-.2-3.1 0-7-.9-10.5-3.6-14-2.2-2.9-2.1-3.6.4-5.6 1.3-1 1.6-1.5 2.2-3.2.4-1 1-3 1.3-4.5.5-2.1.6-3 .4-4.9-.4-4.3 0-6.8 1-8.9 1.2-2 3-1.6 3.6.9.7 3.3.9 6 .8 10.5-.2 5.2-.4 6.3-1.4 6.2-.5-.1-.6-.2-.6-3 0-3.9-.3-8.5-.7-10-.2-1-.3-1-.5-.5-.3.8-.3 3 0 4.7 0 .8 0 2-.3 3.3-.3 1-.6 3-.7 4a9.7 9.7 0 0 1-.8 3.4c-.7 1.3-1.3 3-1.2 3 0 .1.8 0 1.6 0 1.4-.2 1.6-.4 2.1-1.1.7-1 1-1 1.7-.2.5.7.5.7 1.6.4 1.5-.4 2-.4 3 .3 1.2.9 1.5 1.3 1.5 2.3 0 1.2-.4 1.7-1.6 2.3-.5.3-1 .9-1.3 1.3l-.8 1.5c-.8 1.3-1 2.6-1.3 6.2-.3 3.6-.3 3.7.2 4.8.7 1.4.7 2.3 0 2.7-.3.2-.6.1-1.2-.4l-1.5-.8c-1-.2-1.2-.5-1.2-2 0-.9-.2-.6-.5 1.4a12 12 0 0 1-.6 2.8c-.3.4-1 .5-1.4.2zm2.4-15.5c-.3-.6-.5-1.4-.4-2.2V77h-1.3c-2 0-2.1.4-1 2.3 1.5 2.5 2.4 6 2.6 10.1l.3-3.5c.2-4 .2-4.6-.2-5.5zm2.9-1.4c.4-.2.5-.4.4-1.1-.1-1.1-1-1.8-2-1.6l-.7.2.5.6c.3.3.6.9.7 1.3.2.8.2.8 1 .6zM65.9 95.2 50.1 95H37c-.7-.3-1-1-.8-1.6.2-.7.9-.9 2-.5.5.1 8.1.2 18.9.2 19.8 0 19.5 0 19.4 1.5v.8h-3.7c-2 0-5 0-7-.2zm116.2-1.5c-3.8-.2-4.3-.2-4.3-.7-.2-1 .6-1.4 3.4-1.6 1.4 0 2.7-.3 2.7-.4.3-.4-3.7-.3-4.8 0-.7.3-1 .3-1.3 0-.8-.7-.4-1.8.6-2.4.7-.3 1.9-.4 7.2-.4 5.9 0 6.4 0 6.9.5.7.7.7 1.4 0 1.8l-2.5.2c-1.6 0-2 .1-2 .4 0 .3.2.4.5.4a1 1 0 0 1 .7 2c-.5.3-1.3.3-7.1.2zm4.6-2.4c0-.2-.2-.3-.4-.3s-.4.1-.4.3l.4.2c.2 0 .4 0 .4-.2zm-109 .2A91.3 91.3 0 0 0 57.2 90c-5.2 0-7.6 0-14.8.8-4.1.4-9.8.6-10.6.4-1.1-.3-1.2-2 0-2 .3 0 .9-.3 1.2-.5.6-.5 1-.5 7.1-.4 3.8 0 8.4 0 11-.2a276.8 276.8 0 0 1 16.4-.7 817.8 817.8 0 0 1 21.6-.4c.7.5.6 1.4-.3 1.7h-6.7c-5.4-.1-6-.1-6 .3 0 .3.3.4 1.5.4 2.7 0 4.6 1 3.8 2-.4.5-2.6.5-3.7.1zm136.8 0-7.3-.5a1 1 0 0 1-.4-.8c0-1 .3-1.1 13-1.2l13.2-.1c1.2 0 2.1.6 2.1 1.6 0 1.2-.8 1.4-4.7 1.2a157.6 157.6 0 0 1-15.9-.2zm98.8-3.5c-.7-.6-.3-1.4.9-1.6 1.4-.2 13.5-.5 22.4-.5 8.3 0 8.6 0 8.6 1.3 0 .8 1.6.7-13.9.8l-15 .2c-2 .2-2.6.1-3-.2zM78.8 82.5a76 76 0 0 0-7.8-.2c-6.8.1-7.3 0-7.8-.4-1.3-1.1-.3-2.2 1.6-1.9 1.6.3 34.2.3 35.9 0 1.1-.1 1.4-.1 1.9.3.7.6.6 1.3 0 2-.7.6-2.2.7-5 .2a158.1 158.1 0 0 0-18.8 0zm119.9 0c-.7-.4-1-1.2-1-3.5l-.4-8.9c-.3-6.8-.3-7 .2-7.5.6-.6 1.4-.4 1.4.3l.2.7c.2.1.3 1 .3 1.8l.2 2c.7 1.2 1.3 12.3.8 14.1-.1.8-.7 1.4-1 1.3l-.7-.3zm95.5-2.2c-.7-.5-.8-1-.1-1.5.4-.4 2-.5 11-.7 5.8-.2 11.3-.4 12.2-.6 2.4-.4 3.7.3 3 1.6-.4.7-2.1 1-5.3.9-2.6-.2-17.4.3-19.3.6a2 2 0 0 1-1.5-.3zM34 79.3c-1.1-.3-1.5-.5-1.8-1.1-.8-1.7.5-2 4.5-1 1.6.3 2.3.3 3 .1l1-.3H40c-1 0-1.7-1-1-1.8.3-.3 1.4-.3 7-.3a477.7 477.7 0 0 1 19.4.3c2 0 5.9 0 8.4.2 4.8.2 7 .1 7.1-.4.2-.7-1.1-1-3.9-1-4.8-.1-4.7-.1-5-.8-.5-1 0-1.5 2-2.6 1-.5 1.6-1 1.5-1L73 70c-3.3.6-4.6.5-4.6-.7 0-.6 1.4-1.6 2.1-1.6.3 0 .6-.1.6-.3 0-.2-.6-.2-1.8-.1-4.4.4-5.4.2-5.4-.7 0-.4.2-.8.4-1 .2 0 2.5-.3 5.2-.4a110.3 110.3 0 0 0 13.4-1c2.5-.2 3-.2 3.3.2.6.6.6.8 0 1.4-.4.4-.4.4 0 1.2.5.7.5.7-.1 1.4-.5.4-1 .7-1.6.7-.5 0-1.7.3-2.8.7-1.1.5-2.5 1-3.1 1.1-.7.2-1.2.4-1.2.6 0 .1.5.2 1.2.2 2.2-.1 4.5 1.3 4.8 3l.2.7 2-.1L96 75c9.4 0 9.6 0 9.6 1.5v.9h-3c-1.8.1-3.1 0-3.3-.1-.5-.5-2-.4-2.7.2-.5.5-1 .5-5.3.6l-8.6-.2c-7.3-.4-17.4 0-27.4 1.2-3.4.5-19.5.6-21.3.2zm16-2 3.5-.2h-4.7c-4.2-.1-4.7 0-4.7.3 0 .4.2.4 1.3.3l4.7-.4zm143.3 1.2a46 46 0 0 1-.4-9c0-5.5-.2-8.8-.4-9.3-.6-1.8.8-6 1.6-4.7l.4 2.7c0 1.2.4 3.4.7 4.7.6 2.3.6 2.7.3 6.1l-.4 6.3c-.1 2.7-.4 3.5-1.1 3.5-.2 0-.5-.1-.7-.3zm-19.4-6c-.3-.3-1-.8-1.5-1-.5 0-1-.5-1.4-1-.4-.8-.4-1-.1-2 .6-2.3 2.7-4 3-2.6.2.6.6.7 1.3.1.5-.3 1.3-.3 1.9.2.2.1.7.2 1.2 0 .8 0 1 0 1.3.4.4 1-1 2-2.4 2l-1.1-.2c-1-.2-1-.1-1.3.5-.4 1 0 2 1 2 1 .2 1.4 1 .6 1.7-.8.9-1.6.9-2.5 0zm42-.2c-1.2-1.4-1.5-2.9-.6-3.8.7-.7 1.4-.3 1.8.8.2.5.6 1.2 1 1.6 1 1.4.8 2.1-.8 2.1-.4 0-1-.3-1.4-.7zm-184-1c-.5-.2-2.1-.4-3.6-.5a127 127 0 0 0-15.7-1.7c-1.8-.1-3-.4-3.6-.7-.6-.3-1.5-.4-2.8-.4-1.8 0-2 0-2.8-.8-1-.9-1-1.6-.3-2.2.6-.6 2-.5 3.9.4l2.2.8a401.4 401.4 0 0 1 4.7.9 42.6 42.6 0 0 1 8 1l2.4.4c.3.1 1.7.4 3.1.5l3 .6 1.3.2a8 8 0 0 1 1.9.4c.8.2 1 .4 1 .9s-.2.6-.9.6c-.5 0-1.3-.2-1.8-.4zm186.5-2c-1-1-.9-1.7.5-2.5.4-.2 2.2 1.6 2.2 2.3 0 1.2-1.7 1.4-2.7.3zM61.7 66.7c-.4 0-1.2-.6-1.8-1.2l-2-1.5c-1-.5-1-.6-1-2.4 0-1 .1-2 .3-2.3.3-.7-.6-1-3.3-1-3.7 0-13.4.4-14.8.8-3 .6-18.8.9-24.9.4-2-.2-2.8-.9-2.4-1.7.2-.4.6-.6 1.7-.6.7 0 1.2 0 .9-.1-.5-.2-.9-1.2-.6-1.7.2-.3 5.3-.3 31.5-.4H54l.4.6c.3.5.6.6 1.5.6 1 0 1 0 1-.7-.1-.4 0-.9.2-1.1.3-.4.4-1.7.3-6.1 0-7.3-.3-13.5-.6-14-.3-.6-.5 2-.3 4.5.2 3 .1 6.1-.2 6.8-.5.8-1.2 1.1-1.7.7-.4-.4-.4-1.2-.3-5.4l.5-18c.3-13.2.6-16.8 1.6-18 .6-.5.7-.6 1.1-.3.7.6 1.2 2 1.2 3.3 0 .9-.2 1.4-.8 2l-.7.9v5l-.2 4.9h.6c.4.1.8.5 1 1 .5.9.5 1.4.3 4A126 126 0 0 0 60 51c.4 1 .3 2.2-.2 3-.4.7-.4.8.1 1.2.8.7 1.2 2.2.7 3-1 1.9-1 1.9-.4 2.3.4.3 1 .4 1.6.4.8 0 1.1 0 1.3.4.5 1 .4 1.9-.3 2.4-.8.6-.8.6-.2 1.4 1 1.1.6 2-.9 1.5zM29 57.8c2-.1 3.7-.3 3.7-.4 0-.1-3-.2-6.8-.2l-8.6-.1c-1.4-.1-1.8 0-1.8.2 0 .3.5.4 1.7.4a37 37 0 0 1 7.4.4l4.4-.3zm28.2-31c0-3.2 0-4-.2-3.1a32 32 0 0 0-.5 7.6c.1 2.4.1 2.4.4 1.1.1-.7.3-3.2.3-5.5zm48.6 37c-.5-.8-.4-1.2.3-1.8.7-.7 1.6-.8 2-.3.5.7.5 1.3 0 2-.7.7-2 .8-2.3 0zm146.6-10.6c-.5-.6-.3-1.2.5-1.7 1-.6 2 1 1.3 1.8-.5.6-1.2.5-1.8-.1zm-85-.3c-2-.5-2.7-2.5-1-2.7a163.9 163.9 0 0 1 18.8.8c.7.7.5 1.5-.6 1.8-.5.2-1.1.2-1.3.1-.3-.1-3-.4-6.3-.5-5.7-.4-5.8-.3-6.9.2-.6.3-1.2.6-1.3.5-.1 0-.7 0-1.3-.2zm-82.2-2.2a205.2 205.2 0 0 0-7.1-15 2046.7 2046.7 0 0 1-6.4-12.2c-.5-.4-.5-1.4 0-1.7.8-.2 1.4.4 2.4 2.3l3.8 7c.2.1 1.6 2.8 3.1 6a103.7 103.7 0 0 0 5.1 9.5l.9 2.2c.3.7.2 1-.2 1.5-.5.8-1.2 1-1.6.4zm-6.8-1.3a78.8 78.8 0 0 1-6-14.2c-.3-.5-.5-1.2-.5-1.6 0-.7-1.7-5-2.2-5.4l-.2-1.4c0-.8-.3-1.9-1-3.4a8.3 8.3 0 0 0-1.4-2.2s-.1-.4 0-.8c.4-1.6 1.8-.3 2.8 2.7.2.8.8 1.8 1.2 2.4.8 1.2 1.5 2.6 2.3 4.8a112.7 112.7 0 0 0 3.8 9c0 .9 1 2.9 2 3.8.9 1 1.7 3 1.7 4.3 0 1.4-1 2.6-1.9 2.6l-.6-.6zm184 .3c-.8-.5-1.7-3-1.5-4.7.2-1.4.4-1.7 1.2-1.6.5.1.7.5 1.3 2.8.6 2.7.7 2.8.2 3.3-.5.4-.7.4-1.2.2zm-128.2-1c-1.7-.2-2.3-.4-2.3-1 0-.7.9-1 3.8-1 3.3 0 4.3.2 4.1 1.3-.1.9-1.9 1-5.6.7zm78.2 0c-.8-.9 0-1.7 1.8-1.8l16-.4c1.4 0 2.3.1 2.7.5.6.6.5 1-.4 1.5-.6.4-1.5.4-5.7.2-6-.2-10.3-.2-12.4 0-1.2.2-1.7.2-2 0zm-40.4-.3h-6c-5.3 0-5.4 0-5.5-.5-.4-1.3-.5-1.3 15.9-1.5 8.4 0 16.6-.2 18.4-.3 3.9-.3 5.2 0 4.6 1.3-.2.4-1.1.4-10.6.5-9.1 0-12.2.1-15.5.6H172zm79.9-1.6c-1.1-.4-1-1.8.2-1.8.4 0 1.3.9 1.3 1.3s-1 .7-1.5.5zm18.6-2c-.2-.4 0-.9.4-.9l.2.5c0 .6-.4.8-.6.3zm-16-4.4c-.7-.2-.8-.3-.8-1.1 0-1.1.7-1.6 2-1.3 1.4.2 2.2 1.9 1.1 2.5-.6.3-1.1.3-2.3 0zm-102.7-1.9c-.2-.2-.4-1-.5-1.8-.4-2.2-.6-3-1-3.4-.3-.4-.6-3.5-.8-10a169 169 0 0 0-.2-8.8c.2-.8 1-1.2 1.5-.8.4.4 1 3.3 1 5 0 1 .2 3.6.5 5.9l.6 6.2c0 1.4.1 2.6.5 3.6.6 1.9.7 3.5 0 4-.6.6-1.2.6-1.6.1zm-50.8-.3a119 119 0 0 1 0-18.5c.2-2.3.3-6.1.3-8.4 0-3.6.1-4.2.6-4.6.3-.4.5-.4.9-.2.5.4.5.7 0 6.6l-.2 14.4c0 8.4 0 10.3-.3 10.7-.4.5-.9.5-1.3 0zm73.8-5.8c-.8-.9-1-2.7-.1-3.6 1-1 3.8-.2 3.8 1.1 0 .4.3.7.8.8.9.3 1.3 1.4.8 2-.2.3-1 .4-2.5.4-2 0-2.2 0-2.8-.7zM127 31c-1.3-.5-1.5-.8-1.5-2.2 0-1.4 1.1-2.4 2.6-2.4 1.2 0 1.4.2 1.5 1.3 0 .5.2.8.9 1 1.4.8 1.7 1.5 1 2.3-.6.5-3 .5-4.5 0zm91-.4c-1.6-.6-2-3.5-.7-5 1.2-1.2 2.3-.4 2 1.7-.1 1 0 1.1.5 1.4.7.3 1 1.4.5 1.7-.5.3-1.9.4-2.4.2zM64.5 21c-.3-.2-1.6-.5-3-.7-3-.5-3.5-.8-3.4-1.7 0-.7.1-.7 1.4-.7.7 0 2.4.5 3.8 1 2.4.8 2.5 1 2.5 1.6 0 .9-.5 1.1-1.3.5zM23.3 16c-.7-.3-.8-1-.4-1.9.3-.5.6-.5 3.4-.5l10.4-.1c8-.2 8.5-.1 8.7 1.2.1 1.1-.5 1.2-5.3 1a81.5 81.5 0 0 0-15.4.4l-1.4-.1zM126 13l-.5-.7c0-.3-2-.2-8.4 0a53 53 0 0 1-8.7.1c-.6-.4-.7-1.3 0-1.6.3-.2 3.9-.4 10.2-.5l13.6-.2c3.7-.2 4-.2 4.2.3.2.4.2.7 0 1-.4.4-.7.5-2.7.3-2.5-.2-3 0-3 .9 0 .6-.6.8-2.6.8-1.1 0-1.8-.1-2-.4zm32.7-.8c-.2-.1-.3-.5-.3-1s.2-.8.6-1c.7-.2 16-.8 23.6-.8 5.7 0 6.2 0 6.2 1.5v.8l-13 .2a789.2 789.2 0 0 0-17 .3zM50.1 9.7a233 233 0 0 0-21.3-1.3c-3.9-.1-9.3.2-10.3.6-.7.3-1 .3-1.5 0-1.1-.6-1.3-1.2-.8-2.3.5-1 1.3-1.3 2.7-.9.6.2 4 .4 8.5.5 4.2 0 7.7.2 7.8.3.3.2 5.4.4 14 .7 3.3 0 4 .1 4.4.5.7.6.7 1 0 1.6-.6.4-3.1.6-3.5.3zm58-4c-.4-1 .1-1.3 2.9-1.5l5-.5c1.2-.2 3.6-.3 5-.3 3.4 0 3 0 6.2-.2 3.5-.2 4.8 0 5.2.8.2.3.2.7 0 .9 0 0-3 .2-6.3.1a113.5 113.5 0 0 0-16.6 1c-.9.1-1.1 0-1.3-.4zm1-3.9c-.2-.4-.2-.7 0-1.2.4-.7.4-.7 2.3-.5 2.1.2 3.3.6 3.3 1.1 0 .7-.8 1-3 1.1-2 .1-2.2.1-2.5-.5z"/>
</svg>
