<?xml version="1.0" encoding="utf-8"?>
<svg xmlns="http://www.w3.org/2000/svg" xmlns:svg="http://www.w3.org/2000/svg" version="1.1" viewBox="0 0 608 264">
	<title>The rats lean over Tom Kitten and rub him with butter.</title>
	<path d="M170.1 263c-2-1-3.1-1.8-3.9-2.5l-1.4-1.2c-1.2-.9-2.8-3.6-3.2-5.2-.3-1.6-.4-4 0-5.2 0-.5.5-1.9 1-3 2.8-7.6 3-9.2 1.6-11-.7-1-2.9-1.4-5.2-1.3h-6.3a48.6 48.6 0 0 0-9.7.8 48 48 0 0 0-7.4 1.3c-2 .5-4 .5-6.8 0a8 8 0 0 1-3.9-2c-1-.7-2.1-1.7-2.3-2-1-1.6-.6-6.2.6-8 1.7-2.5 1.8-7.9.2-9.3-.9-.9-3-1.4-6.4-1.6-1.9-.1-3.4-.4-3.8-.6l-2-1.1c-.8-.4-2.3-1.7-3.7-3.2a15.7 15.7 0 0 0-2.7-2.6c-.4 0-1.5.7-2.6 1.6a17 17 0 0 1-2.8 1.7A8 8 0 0 0 97 210c-.4.7-4.4 3.6-5.8 4.2-.6.3-1.5.9-1.8 1.4-1.8 2.2-6.5 4.4-11 5-1.8.2-2.7.5-4.5 1.4-2 1-2.7 1.3-4.8 1.5-1.4.1-3.2.5-4.1.7-2.3.8-4.2 1.3-6.6 1.8l-3 1c-2.5 1-5.3 1.7-6.4 1.4-.4-.1-1.5 0-2.6.1-1.4.3-3 .3-6.9 0-5.8-.3-7.4-.5-9.5-1.3a6.1 6.1 0 0 0-3.3-.4c-1.2.1-2.1 0-3-.2a14 14 0 0 0-3.4-.5c-2.3 0-3.7-.2-6.6-1.2a104.7 104.7 0 0 0-5.3-1.9 9 9 0 0 0-1.6-.8c-1-.5-2-1.3-5.1-4.9-1.8-2-2-3.5-1.3-6.3.7-2.4 2.8-4.7 5.7-6.2l3-1.7 2.6-1 2.2-.8c.1-.2 1-.5 1.8-.7.9-.2 1.9-.6 2.2-.8a125 125 0 0 0 12.3-4.1c.4-.3 1.8-.6 2.8-.7 1.1 0 2.3-.3 2.6-.4.6-.4 4.3-1.3 7.4-1.8l3.4-.8c1-.3 3.5-.7 5.5-1a109.2 109.2 0 0 1 12.6-.8l10.8-.2c1.3-.2 4.8-.2 7.7 0 9.7.3 9.2.4 10-.4.3-.3.6-.8.6-1 0-.5-2.6-3-5.1-4.9-.4-.2-1.3-1.3-2.2-2.3l-2.4-2.9c-1-1-2.6-4.3-3.4-6.8-.4-1.2-.4-1.6-.1-2.6l.6-2.7c.1-.8.6-2 1-2.7.5-.6 1-1.7 1.3-2.3.3-1.2.8-1.8 2.2-2.8.6-.4 1.3-1.2 1.7-1.7a13 13 0 0 1 2-2.2l2.8-2.4c1.1-1.1 3.1-2.5 4.9-3.4l2-1.5c1.1-1.1 1.1-1.1 1-2.5-.2-1.1-.2-1.4.4-2.3.6-.8.7-1.4.8-3.4.1-1.5.4-3 .9-4.3l1-3c0-.5.7-2 1.3-3.2.7-1.2 1.4-2.7 1.6-3.3.2-.5 1-2.2 2-3.7l2.8-4.6c.6-1 1.4-2.2 1.8-2.6.6-.6 1.1-1.4 2.2-3.3.2-.5.8-1.3 1.3-1.9.5-.5 1.2-1.6 1.5-2.2.7-1.3 2.2-3.3 3.4-4.6l.8-.9a57 57 0 0 1 8.2-8.6c.1 0 1.5-1.2 3-2.7 1.5-1.5 3.1-3 3.7-3.2l1.7-1.4c.4-.4 2-1.7 3.6-2.7a105.4 105.4 0 0 0 5.6-3.7c.2 0 .7-.4 1.1-.8.4-.4 1.4-1 2.3-1.5.9-.3 1.9-.9 2.3-1.1.3-.3 1-.6 1.5-.8l1.5-.6c1.2-.5 5.1-1.6 6.5-1.8 2.4-.3 6-1.3 8-2.3a73.7 73.7 0 0 1 12.5-4.1l5.3-1.6c1.3-.3 2.8-1 3.6-1.4 2-1.4 3-1.6 7.9-1.6 3.8 0 7.4-.3 11.7-.8.8-.1 1.5 0 2.2.2.5.3 1.6.5 2.4.5 2 0 2.5-.6 2.8-2.7.3-2.5.7-3 2-3.1 1.3-.1 1.4-.4.7-2s-.6-2.5.4-3.5c.8-.8.9-1 .7-1.9-.3-1.4-.4-3.4-.2-4.8.2-2 1.1-2.6 5.9-4 1.5-.5 1.9-.5 3.1-.2a7 7 0 0 1 2.3.9l1.9 1.1c1.9 1 4 4.4 4 6.4 0 .5.3 1 1 1.5.7.6.9 1 1 2.1.3 1.6.9 3 1.3 3 .5 0 1-.6 1.8-2.1A17 17 0 0 1 250 48c1.2-.8 5.2-2.2 6.2-2.2 2 0 6.2 3.3 7.2 5.5l.6 2.6.4 2.3c.2.5.1 1.2 0 2-.3 1-.3 1.2.2 2 .6 1 .6 1.1.3 2.9-.3 1.8-.3 2 .4 3.4.4.9.7 2 .7 2.4 0 .5.2 1.3.4 1.9l.4 1.8c0 1 .5 2 .5 1.2s1.2-3.3 1.7-3.5c1.2-.5 1.7.7 1.2 3-.2.9-.3 1.7-.2 1.8.2.1 1.8-1.6 2.3-2.5.5-.9.8-2.7 1-6.2.5-4.8 1.1-6.5 4.1-9.7 1-1 3.4-3 4.9-3.9 1.4-.9 3.2-2 4.6-3.1 1.1-.8 1.6-1 2.3-1 .5 0 1 .3 1 .5.3.6-2.4 2.9-6.5 5.5-1.9 1.1-5.7 4.9-6.4 6.2-.7 1.4-1.8 5.6-1.8 7 0 1-.7 3.7-1.6 6-1.9 4.8-2.2 7-1 7 1 0 1.4 1.3 1.2 4.3V88c.2.2.5.2.9.2.4-.1.8 0 1.1.2.8.5 1 3.4.4 5-.4 1-.4 1.5-.2 2.4.2.8.2 1.4 0 2.4-.2.8-.3 1.8-.2 2.3.5 2.6.5 2.8 0 3.8-.2.6-.7 1.5-1.1 2-.4.5-1.1 1.7-1.5 2.6-.8 1.7-.8 1.9-.8 5.3 0 3 0 3.6.5 3.8.3.2.6.2 1 0a27.4 27.4 0 0 1 6-3l1.1-.5 2.7-1.3c1.2-.8 2.4-1.2 4-1.6a5949.3 5949.3 0 0 1 7.4-1.6c.7-.2 1.6-.3 2-.2.5.2.6.3.6 1.2 0 1 0 1-1.9 1.9a11 11 0 0 0-2.5 1.4c-.3.4-1.2 1-2 1.5-.7.5-1.3 1-1.2 1.2l1.4.7c.7.2 1.5.6 1.8 1 1.8 2 5 5 5.8 5.3.5.3 1.4.5 2.2.6 1.9.3 4.6 1.2 5.3 1.9.5.4.6.8.6 1.3-.1.8-.2.8-1 .8l-2.2-.2c-1-.2-1.5-.1-2.6.3-.8.4-1.6.5-2 .4-1-.2-2.2.1-2.2.5 0 .2 1.2 1.7 2.6 3.3 1.5 1.6 2.8 3.3 3 3.9l.8 1c.5 0 1.2.9 1.2 1.5 0 .7-1 1.4-2.1 1.4-1 0-1.7-.5-2-1.7-.2-1-.5-1.1-1.3-.7-.5.3-.8.2-1.9-.1-2.3-.8-3.3-.8-4.6-.1-1.1.6-1.2.6-1.1 1.8 0 1 .2 1.6.8 2.7 2.3 3.5 2.6 4.3 2.2 5.8-.4 1.3-1.3 1.6-2.7.8l-1.4-.6c-.3 0-1-.2-1.6-.5l-1.2-.6-1.3.8-2 1c-.9.6-1.9.4-3.8-.6-2.1-1.1-2.9-1.7-4.6-3.4l-1.4-1.3-2 .2c-2 .2-3.6.7-4.7 1.6-.6.5.2 1 1.7 1 1 0 1.6.1 2.4.6.6.4 1.3.7 2 .7 1.3 0 3.5.7 4 1.3.3.3 1 .7 1.7 1 1.5.7 1.9 1 2.2 2.3.2.8.1 1-.3 1.5-.4.3-.8.4-2.3.3-1.5-.1-2 0-2.7.4-1 .6-2 .8-2.2.4-.3-.4-2-.6-6-.8-4.6-.1-5.7.1-5.3 1 .2.4 1.1 1.2 2.1 2a23 23 0 0 1 3 2.4c.8 1 1 1.3 1 2.3 0 .9 0 1.3.5 1.8l1 1.4c1 1.8-.4 2.6-2 1.2-.8-.7-1-.7-2.6-.6-1.6.1-2 0-3.4-.7-2.3-1.2-2.3-1.2-3.2 1.8a27.1 27.1 0 0 1-2 5.4A129.8 129.8 0 0 1 250 188c-1.5 2.4-1.9 3.3-1.9 4.1 0 1.2-.3 1.8-1.3 2.1-.5.2-1.4 1-2 1.8-5.1 6-6 7-6.8 7-1.2 0-1-.8.3-2.3 4.1-4.2 6.7-7.2 6.7-7.7 0-.6 1-2.5 1.4-2.7.5-.1 2.8-3.7 4-6a24.9 24.9 0 0 1 2-3.8l1-2.2 1.1-2.3.5-1.4.6-1.4.4-1c.3-.3.7-1.3.9-2 .2-.9.5-2 .8-2.6.9-1.9 1.4-3.8 1.2-4.5-.1-.3-.7-1.2-1.4-1.9l-2.2-2.3c-1-1.4-2-1.6-3-.7a14.8 14.8 0 0 1-6.3 2.6c-.8 0-1.9.3-2.4.5-1 .5-1 .6-1.7 3.7a159 159 0 0 0-1.7 14.3l-.5 1.3a7 7 0 0 1-.5 1.3 86.1 86.1 0 0 1-10 17.9c-.4.5-1.7 2-3.1 3.3a29.5 29.5 0 0 0-2.6 2.6l1.2.2c.6 0 1.6.2 2.1.5 1.4.7 1.9.7 1.6 0-.2-.7-.2-.7-.1-1.6 0-.6.2-.8 1-1 1.1-.5 1.8 0 4.5 2.4 3 2.9 7.3 6 8 6 .6 0 .2-1-1-2.6-1.5-1.9-1.9-3-1.4-4s1.6-.7 3.6.8l2 1.3c.5 0 2-2.4 2-2.9l-.3-1.8c-.2-1.2-.1-1.4.3-1.5.3-.2.6 0 1 .5.2.4.6.7.8.7.6 0 2.2-1.7 3.5-3.8l2-2.3c.7-.6 1.3-1.3 1.3-1.5 0-.2.3-.7.7-1 .4-.4.7-1 .7-1.4 0-.6.1-.7.8-.8.5 0 .9-.3 1-.7.2-.3.7-.7 1.2-.8.5-.2 1.7-1.1 2.7-2.2l3-2.8c.8-.8 1-1.1.8-1.6-.3-1.2-.3-1.3.9-1.5 1.4-.2 2-.6 1.1-1-1-.6-2.7-.4-4.3.5-1.6.8-2.6 1-2.6.4 0-.5 1-1.2 3.4-2.3l2-.9 1.5.5c2.3.8 3.2.6 5.3-1l2.2-1.5c1.6-.8 4.5-3.4 4-3.4-.3 0-1 .2-1.6.5-.5.3-1.2.5-1.5.5l-.6.3c0 .1-.4.3-.8.3-1 0-.8-.8.3-1.2.5-.2 1-.5 1-.7.4-.5 5.6-2 7-1.9.9 0 1.5 0 2-.4a15 15 0 0 1 2-1.2c2-1 2.3-1.3 1.8-2.4-1-2 .2-2.7 1.4-.9.5.8.8 1 1.4 1l.8-.2c.1-.2.5-.4 1-.5.3 0 1.6-.6 2.8-1.2l2.5-1 1.5-.7 5.1-2 4.7-1.6c.8-.2.8-.4.8-1.3 0-.5.2-1 .4-1.3l2.4-.7c1.2-.3 2.3-.7 2.6-.9a6 6 0 0 0 .7-2.2c.3-1.6.3-2-.1-3.2-.2-.8-.7-1.8-1-2.2l-.7-1c0-.2-.1-.4-.3-.4a7 7 0 0 1-1.5-1 27 27 0 0 0-2.4-1.5c-2-1-1.3-1.6 4.3-4 3.8-1.5 4.6-1.6 4.4-.3 0 .4.1.5.9.5a3 3 0 0 1 1.6.6c.6.5 1.1.6 2.7.6 1.8 0 2 0 2.4.6.3.5.3.6-.5 1.4l-.9.8 1.7-.2c1.9-.2 2.3-.5 3.2-2.2.3-.5 1-1.2 1.8-1.6l1.8-1.3c.8-.7 1-2.3.6-3.3a5 5 0 0 1 .2-3.7c.2-.4.4-1 .4-1.4 0-1.2.5-1.9 2.5-2.8 2.1-1.1 6.3-2 8-1.7 1.1.1 1.2.1 4.8 2.2 3 1.7 3.3 1.9 3.6 2.7 0 .3.5 1.4 1 2.2.3 1 .7 2 .7 2.4 0 1-1 4.9-1.6 6-.5.9-.5 1.4-.4 2.5.1.9 0 2-.1 2.8-.3 1-.3 1.4 0 1.9.4.5.5 1.3.5 3.4 0 2.5 0 3.1.8 5.2l.8 2.8c0 .2.1.4.3.4.3 0 .6-.7.9-2a49 49 0 0 1 4.2-12.4l.8-1.7.8-1.7.6-1.6.6-1.2c.4-1 1.6-2.9 2.8-4.3a76 76 0 0 0 5.4-7.3c1.3-1.6 2.5-4 3-5.6 0-.6.6-1.7 1-2.3.5-.7.8-1.4.8-2 0-.7.1-1.1.5-1.4l.5-.7.6-1.1c.4-.5 1.3-2 2.1-3.6 1.6-3 2.8-5 4-6.7a98.5 98.5 0 0 0 5.5-9c1.5-2.1 2.3-3.5 2.3-4 0-.8-2-3.3-5.8-7a28.3 28.3 0 0 0-4.5-4c-.3 0-.5.3-.6.7-.4 2-1.8 4-3.8 5.2-2.1 1.3-3 .8-3-1.8 0-.7 0-1.2-.2-1.2s-.3.2-.3.4l-.6 1.6c-.4.8-.7 1.7-.7 2.4 0 1.2 0 1.6-1.4 3-2 2.7-3.3 3.3-4.9 2.7l-1.5-.4c-.8-.2-1.7-1.8-1.7-3.1 0-.5-.5-1.4-1.3-2.4A44.7 44.7 0 0 1 360 84c-1-1.4-1.3-2.6-.7-3.2.4-.4-.3-1.3-1.7-2.3l-.7-.5-1.7.5-2.8.7-3 .7-3.2.8c-.6.1-1.7.5-2.2.8l-3.3 1.2a22 22 0 0 0-4 1.8 42.7 42.7 0 0 1-8.3 4.5c-2 1.1-2.1 1.6-.4 3.1 1.6 1.5 2.1 2.4 2.3 4.6.2 1.6.2 1.8-1.4 5.7-1 2.2-1.6 4.3-1.6 4.6 0 .3-.5 1-1.2 1.6-.9 1-1.4 1.2-2.7 1.5-2 .4-4.1 0-5.3-1-.9-1-3.2-2.4-5.1-3.4-2-1-2.2-1.6-2-5l.2-4.6c-.1-2 .6-4.8 1.4-6 .5-.8 2-4.4 2-4.8a23 23 0 0 1 2-4.7c1.2-2 4.4-5.6 7-8 2.8-2.3 4-3.1 5.5-3.6.7-.2 1.5-.7 2-1.2l4-3.9a33.7 33.7 0 0 1 9.4-5.1c2.2-.7 3.3-1.4 3.8-2.4.3-.7.3-.9-.3-2.4-.7-1.9-.8-2.4-.2-4 .3-1.1.4-1.6.1-3.5a13 13 0 0 1 0-5.6 13.3 13.3 0 0 0-1.7-8.4c-.3-.8-.7-1.1-1.4-1.4-.7-.3-1.5-1-2.4-2.3-1.3-1.6-1.4-2-1.6-3.4a15 15 0 0 1 1.4-6.8c.4-.7 1-1.2 2.1-1.8 2-1 3.7-1 6.2-.5l2.8.5h.7l.1-2.4c0-1.3.2-2.8.5-3.4a8.4 8.4 0 0 1 3.8-4.2c1.2-.6 1.5-.7 3.5-.4 3.8.4 5.8 1.2 7 2.7.5.5 1.3 1.1 1.9 1.3a4 4 0 0 1 1.3 1l1.2.7c.7.2 1.1.6 1.7 1.7.7 1.3 1 1.4 1.8 1.5.8 0 1 .2 1.6 1.6l.8 2c.1.2.6.7 1.1 1 1 .6 1.5 1.3 2.1 3.5a7 7 0 0 0 1 2.2c.4.4.8 1.1 1.1 1.8.5.8.7 1 1.4 1.1 1 .2 1.4.5 1.6 1.9.3 2.5.4 2.7 1.2 3 .4.1 1 .6 1.4 1.1.6.8 2.7 1.8 4 1.8.2 0 .8.3 1.3.7.5.5 1.3.9 1.8 1 .9.2 1.1 0 2.3-1a35.6 35.6 0 0 1 3.3-2.4c.7-.6 2-.4 2 .2a9 9 0 0 1-2.1 2c-1.3 1-2.1 1.9-2 2 0 .6 4.6 3.3 5.4 3.3 1.1 0 3.2-.7 4.9-1.6l1.9-.8c.2 0 1-.3 1.7-.7a18 18 0 0 1 3-1l2.4-.8c2.5-1.1 4.4-1.7 5.1-1.7 1.4 0 1 1.2-.7 2a66.6 66.6 0 0 1-8.6 3 1412.2 1412.2 0 0 1-5.7 2.7c0 .2.3.6.7 1 1 .8 5 3 5.5 3a893.6 893.6 0 0 0 6.6 2.9c1.9.7 4.6 3.5 6.2 6 .3.5 1.5 1.9 2.8 3 3.2 3 5.4 6 5.4 7.4 0 .7 1 2 1.4 2l1.8 1c.8.5 2 1 2.8 1.3a16 16 0 0 1 6.2 3.8c2 1.7 2 1.8 1.9 3 0 1.1 0 1.2 2 3.3 3.3 3.2 3.4 3.2 4.3 5 .5 1 1.5 2.4 2.2 3.3 1.5 1.6 3.5 5.3 4.6 8.1 1.3 3.6 2.8 8 3 9 .5 2.1.6 2.5.3 3.5-.3.7-.3 1.7 0 4.1.5 5.6.5 6-1.1 14.9-.3 1.7-.5 3.4-.4 3.7.1.4.4.4 2.4.3 4.2-.3 25.4.2 27.9.7 3 .6 5.2 1.8 7.4 4.1 1 1 2.3 2 3.1 2.5 4.5 2.2 7 4.8 7.9 8.2.2.8.6 2 1 2.4l.6 2.4c.1.8.3 1.5.5 1.6l4 .3c5 0 9 .4 14 1.4 3.1.6 4.9.8 6.7.7 2.8 0 9 .5 10.8.9 4.3 1 5.4 3.7 2.1 5.1-1.7.8-2 1-1.2 1.2.5.1.6.4.6 1s0 .6 1 .5c4.2-.5 10.1-.7 17.3-.6l16.9.3c5.1.1 9.2.3 9.5.4.5.3.6 1.1.1 1.5-.2.2-1.7.2-3.5.2-3-.2-6.4-.2-23.8-.4-9 0-13.5.1-15.3.6-1.1.3-1.3.3-2-.3-.8-.6-1-.6-3.3-.4-1.3 0-3 .3-3.9.5l-4 .8c-2.4.4-6 1.5-7.4 2.3l-1.1.2c-.4 0-.7.2-.7.3a920.2 920.2 0 0 1 36.4 0 5476.7 5476.7 0 0 1 35 .9c1.2-.1 2.7.4 2.7.8 0 .5-.6.7-2.4.7-.9 0-1.7.2-2 .4-.6.5-1.4.5-2 0-.4-.4-11-.8-20.2-.7a182043.2 182043.2 0 0 0-30-.1l-19.2.1c-4 .3-4.7.4-6.4 1.1-1.7.7-2.2.8-6 1a82.2 82.2 0 0 1-12.7.7 443.5 443.5 0 0 0-34.7 1.2c-2.7 0-2.8 0-3.2.7-.4.5-.4.8-.2 1.1.4.6 8.8.7 50.3.6 19.3 0 27.9.3 28.4 1 .3.6.3 1-.2 1.4-.3.4-1 .4-3.2.3-1.6 0-3.6-.2-4.6-.4-2-.3-31.8-.3-35.2 0a540.1 540.1 0 0 1-34.3-.9c-.9-.3-1.2-.3-1.5 0-.4.3-.5.6-.3 2.2.2 2.6.7 3.5 2.4 4l2.7 1 1.6.6.5-1c.2-1 .4-1.3 1-1.5.5-.1 1-.4 1.2-.6.2-.2.6-.5 1-.6.7-.3 3.9.1 5.5.7 1.2.5 2 1.2 1.7 1.6-.2.1-2.8-.1-7-.7-1.3-.1-1.5-.1-1.6.4l-.7 1.3c-.6.8-.8.5 2.4 2.4 1 .6 2.1 1.3 2.5 1.7l2.2 1.4c1.4.7 3 2.5 3.9 4.1a43.6 43.6 0 0 1 5.5 6.7c3.8 5 4.3 5.8 5.8 8 .6.8.8 1.5.9 3a13 13 0 0 1-3 9.8 40.3 40.3 0 0 1-6.4 6.7c-1.3 1.2-4 2.6-6.6 3.3l-3.2 1.1c-1.6.7-3 1-6.3 1.4l-4.8.8a63 63 0 0 1-8 .9l-2.4.3a122.3 122.3 0 0 1-6 1c-.7.3-2.6.6-4.4.7-4.8.5-7.5.8-9.2 1.2a24.5 24.5 0 0 1-7 1.3c-1-.2-4.1.4-5.2.9-.9.5-3.8 1.1-5 1.1-.5 0-1.6.2-2.5.5l-3.6.6c-1.2.1-2.5.4-2.8.6-.8.5-3.4 1.2-5.5 1.4-.9 0-2 .3-2.4.5-.4.2-1.6.4-2.7.5-1.1 0-2.4.3-2.8.5-1.4.5-8.1 1.7-10 1.8-4.4.2-6.8-2.4-3.9-4a74.7 74.7 0 0 1 15.7-4.8l2.9-.7a116.7 116.7 0 0 1 9.6-2.5 291 291 0 0 0 11.2-2.8c6.8-1.8 11-2.7 11.7-2.5.7.2.7.7.2 1.2-.5.5-.6.5-3.4 1.2A208 208 0 0 1 421 241a84.4 84.4 0 0 0-12.9 3.7c-1 .5-2.1.8-2.5.8l-3 .5-4.2.6c-1 .2-2.4.6-3.3 1l-3.2.9a6 6 0 0 0-2.4 1l-.7.6 2-.1a82 82 0 0 0 12.8-3.1 24 24 0 0 1 3.7-.8c1 0 5.8-1.2 7.8-2 1.2-.4 6-1.8 9-2.5a4 4 0 0 0 1.3-.6 6 6 0 0 1 2.3-.6c1 0 2.8-.3 3.9-.6l3.2-.3c.6 0 1.7-.2 2.5-.5a90.7 90.7 0 0 1 33.3-4.3c6.7-.2 9.9-.7 13.6-2 2.5-.9 5.5-2.5 6.2-3.5a75.3 75.3 0 0 1 2.8-3.6c0-.2.4-.7.9-1.2 1.3-1.3 1.8-3 1.8-6.9 0-4.5-.6-6.3-2.8-8.5-.8-.8-1.8-2-2-2.7l-1-1.3-2.9-2.6a53.5 53.5 0 0 0-15.5-10.5c0-.5-1.7-2-3-2.5-1.7-.9-3.5-1-6.2-.3-2.6.6-2.7.9-1.3 1.9.7.5 1.7.9 2.4 1 1 .2 3.2 1 4.7 1.9l4 2a30 30 0 0 1 6.8 4.4c.2 0 1.1.8 2.2 1.7 1 .9 2.6 2 3.5 2.5 3.2 2 5.8 5.7 7.4 10.5.4 1.2.7 2.7.7 3.2 0 1.7-1.9 4.9-4.2 6.8l-1.7 1.5-1.3 1-1.8 1.1c-1 .9-6.3 2.4-8.1 2.4a42.2 42.2 0 0 1-7.9.7c-2.2 0-4.6.1-5.3.3l-8.3 1.4c-2.4.3-3.5 0-3.5-.7 0-.6 1-1 3.4-1.2A102.1 102.1 0 0 0 466 230c.6 0 1.5 0 2-.2s2.4-.4 4.2-.6c4-.3 8-1.5 10.2-3 1.3-.8 5.3-4.7 6-5.7.5-.8.5-1.2.5-3.6a9 9 0 0 0-1-4.7c-1.6-3.3-6-8-10-10.7-1-.6-2-1.1-2.3-1.1-.3 0-.9-.2-1.3-.5a12 12 0 0 0-2.4-1 5 5 0 0 1-1.6-.6c-.3-.5-5.3-2.8-7-3.3-2.1-.6-5.5-.8-6-.4l-1 .2a62.1 62.1 0 0 1-15 3.3l-4.7.9c-1 .2-3.3.5-5.1.6-1.9.1-3.5.3-3.7.4-.1 0-1.7.3-3.6.4-1.9.2-3.9.4-4.4.6-2 .5-2.7.5-22.2.8-4.2 0-5.4 0-6.6-.4-1.4-.4-1.6-.5-2.7 0-1.8.5-3.5 1.5-4.4 2.5-1.2 1.4-1.4 1.5-3 1.5-1.2 0-1.9.2-2.5.6l-1 .5.7.4c.6.5 2.2.5 3.3.1 1-.3 1.1-.1.6.8-.3.5-.9.8-2 1.1-.9.2-2.1.7-2.9 1-.7.5-1.8 1-2.4 1.3-.8.4-1.2.8-1.3 1.4-.2.7-.4 1-1 1-3.4.2-4.9.7-4.6 1.4.1.4 1.5.4 8.7.4 8.9 0 15.5.2 16.5.6.6.3 1.1 1.6.8 2.1-.2.4-1 .4-1 0 0-.8-3.7-1.2-12.8-1.5-12.2-.3-13.1-.3-13.8.4-1.5 1.3-3.2 2-6 2.2a29.9 29.9 0 0 0-6 1c-1.2 0-3.3.8-2.6.9h4.3c3.2 0 3.9 0 4.2.3 1 1-.2 1.6-3.7 1.9-1.6.2-2.4.6-2 1.2l1.2.8c1 .5 1.7.5 13.4.6 14.5.2 19.5.4 20 1 .4.4.4.5 0 .8a157.9 157.9 0 0 1-14.2 0 208.6 208.6 0 0 0-15.6-.7c-1-.1-1.7 0-2.2.2-.4.2-1.9.5-3.2.7-2 .3-2.5.4-2.5.8 0 .3.2.6.3.7.4.2.3 1.1 0 1.2h-1.4c-2.7-.6-6-.1-6 .8 0 .7 1.3.9 10 1 13.2 0 16.9.2 23 .8 6 .6 6.7.8 6.2 1.9a22.5 22.5 0 0 1-6.3.7l-5.2-.3c-2.7-.1-5.5-.3-6.2-.5-2-.4-10.3-.4-13.4 0-2 .3-3 .3-3.8 0l-3-.2c-1.6 0-1.9 0-2.6.7-.4.4-1.4 1.1-2.2 1.5-1.5.8-3 2-5.1 3.5-.6.5-1.7 1-2.2 1-1 .2-1.2.1-2-.6-.9-.7-1.2-.8-2.7-.8-1.7 0-2.2.3-1.2.7.4 0 .6.4.6 1 0 1-1 1.6-2.1 1.3a30 30 0 0 1-5.2-1.7c-.2-.3-2.2-.3-2.4 0 0 .1.2.4.6.7.9.4 1 .9.6 1.7-.5 1-3.3.4-5.7-1.1-1-.6-1.7-.9-2.5-1-.7 0-1.7-.2-2.3-.4-.5-.2-1.5-.4-2.3-.4-.7 0-2-.3-3-.7l-3-1a11 11 0 0 1-2.2-.7c-.7-.4-1.7-.4-7.7-.4a355.5 355.5 0 0 0-15.2.5 27 27 0 0 0-4.5.6c-2 .5-2.7.3-2.7-.9 0-.5.2-.6 1.1-.9l1.8-.5 3.5-.4c1.8-.2 2.7-.4 2.7-.5 0-.2-.5-1-1.2-2l-1.3-1.7-.7.9c-1.3 1.5-1.7 1.2-4.2-2.3-.6-.8-1.3-2.1-1.5-2.8-.4-1-.6-1.2-.7-1-.4.6-.3 1.5 0 2.1.3.4.3.8 0 1.7-.1.6-.2 1.4 0 1.8l-.1 1.4c-.4 1.4-2.3.5-2.7-1.2-.2-1-1-1.7-1.6-1.4l-3.7.4-5 .5a45.9 45.9 0 0 1-14.1-1.4 93 93 0 0 0-4.7-.8c-3.7-.6-5.7-1.1-5.7-1.6 0-.7 1.2-1 2.6-.7l4 .4c1.6.1 4 .4 5.5.7 4.6 1 7.7 1.1 11.3.8a75.2 75.2 0 0 1 6.4-.6c0-.1-.5-1-1.2-1.8a28 28 0 0 1-3.9-6 14 14 0 0 0-.8-1.5c-.2-.2-.5-1-.7-1.8-.8-2.6-1-2.9-2.4-3.8l-1.8-1c-1 0-.5 1 1.8 3.3a17 17 0 0 1 2.5 3c0 .5-1 1-1.7.8a48.2 48.2 0 0 0-6-2c-1-.4-2-1-3.1-2-1.8-1.3-6.6-3.9-8.2-4.2-.4-.1-1-.4-1.1-.6-.3-.3-1-.5-1-.2l1 1.5c1.3 1.6 2.2 3.5 2 3.9-.4.6-1.3.2-2.7-1.2-.8-.8-1.9-1.7-2.4-2l-2.5-1.8c-1.7-1.3-3.3-2.1-4.2-2.1-.3 0-1-.3-1.5-.6l-1.1-.5c-.4.2-5.4 4.6-7.6 6.8a23.9 23.9 0 0 1-7.1 4.8c-2.9 1.5-3 1.5-3 2.4-.3 5-1.5 11.1-2.3 12.3-1 1.3-.2 3.6 1.4 4 .4 0 1.2.4 1.9.7 1 .5 1.8.6 4.2.7 5 0 8.7.4 11.4 1.1 3.8 1 4.5 1 6.5 0l3.1-1.2 3.4-1c1.7-.6 2.3-.7 4-.6 1.9 0 2.4.2 3.4.8 2 1.3 3.4 4.5 2.6 6.2-.5 1.3-2.8 3.9-3.9 4.4l-1.9 1.4c-.5.5-1.3 1-2 1.4l-1.8 1c-.5.3-1.4.7-2.2.9a6 6 0 0 0-1.7.7 8 8 0 0 1-2.3.7c-1 .2-2.5.6-3.3 1-.8.4-2 .8-2.8 1l-3 .7c-.7.2-2.5.5-4 .6l-2.9.4c-.1.1-1.8.3-3.7.4a68 68 0 0 0-4.5.4c-.6.1-1.1 0-1.6-.2-.4-.3-1.4-.4-4-.4-3 0-3.7 0-4.2.5-.3.2-1 .6-1.6.7-1.6.4-8 1-9.1.7-.8-.1-1.4 0-2.3.4-1.3.6-4 1.2-6.9 1.5-1.4 0-1.8 0-3.3-.8zm5-6.5c.8-.3 1.5-.3 2.3-.2.9.1 1.5 0 2.3-.3.8-.4 1.2-.4 1.9-.2.4.1 1.5.2 2.4.1l5.2-.3c3.9-.1 3.8-.1 6.4-2.2 1.5-1.2 5.5-5.3 6-6.2.5-1 .3-2-.8-3.7-1-1.7-1.8-2.4-2-2-.2 0-.7 1-1.2 2.3-1 2.3-1.5 2.8-2.2 2.3-.5-.4-.5-1.5 0-3l.8-2.7a40.6 40.6 0 0 1 2.3-8l.9-4c.5-2.4.6-3.5.5-4.8a11 11 0 0 1 0-3.8c.1-.8 0-1.1-.4-1.6-.6-.6-1.6-4-1.6-5.4 0-.5-.5-.4-1.3.2a32 32 0 0 0-7 6c.1.5-.6.7-1.3.3-.5-.2-.6-.2-1 .4-.6.8-3.9 2.4-5.4 2.7-.6.1-1.6.4-2.2.7-.6.3-2.3.7-3.8.9-1.5.2-3 .6-3.4.8a50.6 50.6 0 0 1-10 2c-.7.2-.6.3 1.3 2.2 1.2 1 2 2 2 2.3l1.2 2.8c2.7 5.4 2.9 6.1 3 10.4l.1 4.5c0 .9.9 1.8 1.7 1.8 1.6 0 1.6 1.6 0 2.2-.7.2-1 .2-2-.3-.7-.3-1.4-.7-1.6-1-.6-1.3-1-3.6-1-6.3 0-2-.1-2.8-.4-3-.3-.3-.4-.3-.4 0s-.3 1.2-.7 2a19 19 0 0 0-1.3 5.8c-.2 1 0 1.2.8 2.2.5.6 1 1.4 1 1.8 0 2.2 5.2 3.6 8.9 2.3zm3.3-12-.2-4.2c0-2.9-.2-4.3-.5-5.6-.3-1-.5-2.5-.6-3.6 0-1.6 0-1.8.5-2 .8 0 1.7 1 2 2.6a32 32 0 0 1 .5 12.7c-.4.4-1.4.5-1.7 0zm29.3 12c.7-.4 4.2-3.7 4.2-4l.4-1.2c.2-.5.5-2.1.6-3.6.2-2.2.4-2.8.7-3.1.6-.4.7-.4 1.2-.1.3.2.4 1 .4 4v4l.7-.5c.6-.3 1.5-1.9 2.2-3.9.2-.7 1.3-.6 1.7.2.6 1 .1 2.6-1.3 4.5-1.4 1.9-1.6 2.7-.5 2.7.4 0 .8-.3 1.4-1.2.4-.6.9-1 1-1 .4 0 2.6-2.2 3-3.1l.7-1.7c.2-1.2.7-1.5 1.7-1 .7.3.8.5.9 1.7 0 1.1.2 1.5.7 1.8.6.4.7.4 2.2-.4 2.3-1.4 6-3.9 7-4.8 1-1.2 2.8-3.4 2.8-3.7 0-.5-1-1.3-1.7-1.3-2 0-7.4 1.8-8 2.6 0 .2-.3.3-.6.3l-1.5.6c-1.3.7-3.8.7-6.7.1a103.6 103.6 0 0 0-17.5-2l.7 1.6c.4.7.7 1.5.7 1.8 0 .3 0 1 .3 1.7l.3 1.1-1.5 2c-1 1.3-1.5 2.2-1.5 2.8l-.2 1.3c-.3 1 .5.7 2-.8 2-2.3 4-5.5 4-6.9 0-.8.5-2 .8-2.3.6-.3 1.5.4 1.7 1.2.2 1.3.2 2-.4 3.8-.5 1.3-1 2-2.8 4a10.6 10.6 0 0 0-2 2.7c.1.3 1.4.3 2.2 0zm107.1-17.8-.3-.7c-.5-.6-1.3-.4-1.3.4 0 .4.2.5.8.5.5 0 .8 0 .8-.2zm5-1.2c.9-.4 1-1.1.5-1.7-.2-.2-1-.3-1.9-.3-1.4 0-1.7-.1-2.5-.7-.7-.6-.8-.9-.7-1.4.2-.7.5-.7 3.8-.1 1.5.2 2.1 0 3.3-1.1.5-.5 1.1-1 1.3-1 .2 0 .5 0 .7-.3l1.8-1 1.6-.9v-1.4c0-.7 0-1.4.2-1.5.1-.2 1.5-.3 3-.3 3 0 4.7-.3 5.3-.7.5-.4 1.4-3.1 1.1-3.4-.3-.4-3.1.8-3.5 1.4-.3.6-1.8.7-1.8.1s1.6-2.4 2.5-2.9l2.4-1c1.2-.6 1.6-.9 1.9-1.7.2-.5.4-1.3.3-1.8v-.8l-1.1 1c-1.7 1.7-2 1.8-6.1 1.5H327l-2.5.3c-1.3 0-1.7-.1-2.4-.8-1-.9-1-1.6.3-1.6.4 0 1 0 1.1-.2.5-.1.3-.9-.1-.9s-2.1-2-2.8-3.3c-.7-1-.6-2.3.1-2.6.2 0 .9.2 1.4.5a3 3 0 0 0 2 .6c1 0 1 0 1-1-.1-1.3.4-1.6 1.6-1 .6.5 1.1.5 2.5.4 2-.2 3.2-.7 2.7-1.2a3 3 0 0 0-1.3-.4c-.8 0-1-.1-1-.7s.2-.7 1.5-.9c1.8-.2 2.9-.8 3.7-2 .5-.8.5-1 .2-1-.2 0-.6 0-1 .2-.9.5-3.2.6-3.8.2-.5-.4-.5-.4 0-2 .6-2 .7-2 2.9-2.6 1.5-.4 2.1-1 1.5-1.4h-1.2c-1.2.3-1.6.3-2.3-.3-.6-.4-.6-.5-.2-.9.2-.2 1.1-.5 2-.7 1.6-.3 3-1 3.6-1.7 0-.1 0-.4-.4-.6-.4-.3-.5-.6-.3-1.9 0-.8.4-2.1.6-3 .3-.7.5-1.8.5-2.2 0-.9 0-.9-.7-.7-.4 0-1 .3-1.5.5l-1.8.5a4 4 0 0 0-1.1.4 65.7 65.7 0 0 1-29.4.2c-1 0-2.4-.3-3.2-.4-3.2-.7-6.5-1.2-6.6-1-.4.4 1.4 3.6 4.5 7.7a23.7 23.7 0 0 1 2 2.7 62.2 62.2 0 0 1 10 17.1l1 2.7c0 .4.6 1.6 1 2.6l2.2 4.5c1.4 3 3 7.4 3 8.3 0 .4-.1.6-.5.6-.7 0-1.3-.8-1.8-2.4l-.7-1.5-.2-.7c0-.3-.8-2.1-1.7-4.1a66 66 0 0 1-3.6-8.7l-1.4-3.3-1.8-3.7c-.9-1.7-5.2-8.2-8.4-12.4a31.9 31.9 0 0 1-5.4-9c-.5-1.4-.6-1.6-1-1.3-.3.2-.7 1.1-1 2a213.8 213.8 0 0 1-6 16.9 120 120 0 0 1-2.4 7.6l-.7 2.4a43.4 43.4 0 0 1-6 12.1c-1.1 1.3-.7 3.7.7 3.7a28 28 0 0 1 6.9 6.3c.4 1 1.4 1.7 2 1.5.6-.3.6-.6-.1-1a20.5 20.5 0 0 1-5.8-7c-1.1-1.4-1.6-2.3-1.6-3.2 0-.9.6-1.6 1.3-1.6.6 0 1.5 1 1.8 1.8a19 19 0 0 0 3.4 6c1.7 2 2.3 2.5 2.3 2l-.9-1.1c-.8-1-1.6-3.3-1.3-4 0-.2.4-.2 1-.1l2.4.2c.8 0 1.7.3 2.3.7 1.5.9 2.9 1 3.8.3 1-.7 2-.6 3.7.4l2 1.1 2.4 2c.8.8 2.2 1.8 3.1 2.3 1 .4 1.7 1 1.8 1 .2.4 1.6 0 1.6-.4 0-.1-.3-.5-.7-.8-1-.7-1.8-2.2-1.6-2.8.3-.8 1.5-.5 3.5 1a25.4 25.4 0 0 0 10 5c.5.3 1.2.2 2-.2zm4.2-8c-.5-.1-.8-.9-.6-1.5.2-.5.4-.5 1.3-.2.6.2.7.4.7 1-.1.7-.5 1-1.4.7zm-14.3-1.3c-3-.4-3.1-.4-4.5-1.6-1.8-1.6-2.5-2.9-2.5-4.2 0-1.3.2-1.8 1-1.7.5 0 .8.4 1.2 1.6a7.6 7.6 0 0 0 3.5 4c.5.3 1.4.5 2 .5 2.6 0 3.6.6 2.2 1.2-.7.3-1.3.4-3 .2zm-19.2-2.2-1.3-1.8a6.2 6.2 0 0 0-1.3-1.7c-.2 0-.5-.5-.8-1-.6-1.3-.4-2.1.4-2.1 1.1 0 4 4.1 4 5.7 0 .8-.4 1.2-1 .9zm24.9-4.8c-.2-.3-.2-.5 0-.7.4-.5 1-.1 1 .6 0 .8-.6.9-1 .1zm-22.2-1.5c-1.6-.3-3.2-1.1-4.6-2.3-1.2-1-1.3-1.4-.3-1.7.5 0 1.4.2 3.7 1.4 3.2 1.6 3.5 1.8 3.3 2.4-.2.5-.6.6-2.1.2zm2-5.6-1.8-1.2c-1-.5-1-1.2-.2-1.2 1.2 0 4.2 1.8 4.2 2.5 0 .3-.6.7-1 .7-.2 0-.7-.4-1.2-.8zm-5-6.5c-.6-.3-.8-1.6-.4-2 0 0 .5 0 .9.2.6.2.7.4.7 1.1 0 1-.5 1.3-1.3.7zm24.2-4.7c.1-.5 2.6-1.6 2.8-1.3.4.3 0 1-.7 1.3-.9.4-2.3.4-2.1 0zm-25.4-1c-1.2-.5-1.8-1.2-1.6-1.7.2-.6 1.5-.5 3 .2 1.6.9 2 1.2 1.8 1.6-.2.6-1.9.5-3.2 0zm27.6-2.5-.7-1c-.2-.3-.6-.5-1.3-.5-1.3 0-1.7-.5-1.5-1.8.2-1 .1-1.2-.8-2.2-1-1.1-1.2-2-.4-2.3 1-.6 3.1 1.1 4.3 3.4l1 1.9c.7 1 1 2.2.7 2.6-.4.4-.8.3-1.3-.1zm-28.7-3c-.3-.7.3-1.2 1.6-1.5 1.4-.2 1.8 0 1.8.8 0 .5-.2.7-.7 1-1 .3-2.5.2-2.7-.3zm17.6 40.5c0-.3-.3-.5-.7-.6-.6 0-.7.2-.2.7.4.5 1 .4 1-.1zm29.2.2c0-.2-.1-.3-.3-.3l-.4.3c0 .1 0 .2.3.2.2 0 .4 0 .4-.2zm-4.8-.6c0-.6-1.2-1.8-1.8-1.8-1.2-.1-4.2 0-4.4.3-.3.3 1.9 1.4 3.3 1.6 2 .3 2.9.2 2.9-.1zm-18-.2c0-.2-.3-.3-.7-.3-.6 0-.7 0-.3.3.5.3 1 .3 1 0zm-9-.2c0-.4-.9-1.1-1.3-1.1-.7 0-.7.6 0 1 .8.3 1.3.4 1.3.1zm-17-2c0-.1 0-.2-.2-.3-.1-.1-.2 0-.2 0 0 .2 0 .4.2.4l.3-.1zm45.4-1.5c1.7 0 2.2-.4 1.7-1.5-.3-.6-.3-.7-2-.6-1.5.1-4.2 1-4.7 1.4v.6c.1.3.4.4 1.8.2l3.2-.1zm-196.8-1c.7-.4 1.4-.6 3.2-.7 1.3-.1 3-.4 3.7-.6a53.6 53.6 0 0 1 4.5-1.2l1.2-.2a6 6 0 0 0 4.5-2.1c.7-.8 1-1.4 1-1.9-.1-1-.8-.7-1.3.7-.4 1.2-.5 1.3-1.8 1.7l-1.5.6-.8.2c-.4 0-.7 0-.8.2 0 .2-.5.3-1 .3l-2.7.4c-6.5 1.5-10 2-11.2 1.6-.3 0-.6-.3-.6-.6 0-.4 1.3-1 2-.7.4.1 3.6-.4 6.1-1l2.8-.8c1.6-.3 4.1-2 4.4-3V223c0-1 0-1-3-2.2a53 53 0 0 1-4.4-2 5 5 0 0 0-3.1-1c-1 0-2.1 0-2.6-.2-.9-.2-3.3-.7-5-.9-.4 0-.5.1-.5 2.6v2.6l-1.5 3c-1.6 3-1.8 4-1 4.7 1 1 4.1 2.4 5.5 2.6 2.5.3 3 .2 3.9-.4zm204.9-.5c2-1 2-2 .2-1.4-.6.2-1.1.6-1.4 1-.6 1.3-.6 1.3 1.2.4zm-45.6-1.5c-.1 0-.3-.1-.4 0-.2 0-.2.2-.1.4 0 .1.2.1.4 0 .1 0 .2-.2 0-.4zm52.6-3c1-1.3-.7-2.2-1.8-1.1-.4.3-.7.8-.7 1 0 .7 1.9.7 2.5 0zm-82-1.9c0-2.2.2-3 .8-3.2.7-.1 1.1.4 1.8 2.1.3.9.7 1.6.9 1.6.7 0 2.7-1 2.7-1.4 0-.4.7-.8 2-1.1.8-.2 1.7-1.8 3.3-5.7a69 69 0 0 0 2.8-7A150.8 150.8 0 0 1 284 195a267.7 267.7 0 0 0 3-8.4c.3-1 1.6-6.2 2.3-10.2.7-3.5.7-5.2.1-5.4-.4-.2-3.1 1-3.4 1.4 0 .2-.6.5-1.1.7l-1.4.8-2 1.2c-.9.4-1.8 1-2.1 1.3l-2 1.2c-1.3.7-3.2 2.4-3.2 2.8 0 .1-.4.4-1 .6-1.3.6-1.6 1.1-.5 1.4.9.1 1.3.8.7 1.2-.2.1-.8.2-1.4 0-2-.2-2.9.3-7 4.3-2 2.1-3.7 4-3.7 4.2l.4.7c.6.5.4 1.3-.6 2.3a8 8 0 0 0-1.4 1.7c-.2.4-.8 1-1.4 1.2-.6.3-1 .8-1.3 1.3-.5 1.4-.6 1.6-1.6 2-.7.4-1.5 1.2-3 3.6-3.3 4.8-3.5 5.6-2 6.6.5.4.8.4 1.7 0 1.7-.5 2.2 0 4.1 3.9 1.7 3.2 2.4 4.2 2.4 3.1 0-.6.8-1.6 1.2-1.6.6 0 1.4 1 1.6 2a60.2 60.2 0 0 0 2.5 7.5c.2 0 .3-.8.3-1.8zm2.5-14.8a89 89 0 0 0-2.5-2.1l-1.4-1.2v-2.3c0-2.7.4-3.6 1.5-3.3.9.2 1.6.8 1.6 1.4l-.6 1.2c-.7.9-.7 1-.3 2 .2.8.8 1.5 1.6 2.2 1.5 1.3 2.1 2.4 1.6 2.8-.3.3-.6.1-1.5-.7zm2.2-7.3c-.5-.6-1-1.2-1-1.4-.6-.6-.9-1.4-.9-2 0-.6.1-.7.6-.7.6 0 1 .4 2.8 3.5 1.2 2-.2 2.5-1.5.6zm6-5.9c-1.6-1-3-4.3-2.3-5.2.6-.7 1-.3 1.7 1.3.2.7.9 2 1.5 2.7 1.3 2 1 2.5-1 1.2zm5.7-7.5c-1.5-.7-3-2-3-2.7 0-.5 1-.2 2.4.7a9 9 0 0 0 1.5 1c.4 0 1.7 1.3 1.5 1.5-.2.4-.7.3-2.4-.5zm-243 32.3c1.2 0 2.5-.3 2.8-.5a13 13 0 0 1 2.5-.6c1-.2 2.4-.4 2.8-.6l3.1-.2c1.4 0 2.7-.2 3.2-.4.8-.3 2-.4 4.1-.3a44.7 44.7 0 0 0 12.7-2.5 2 2 0 0 1 1 0c.4 0 1.3-.3 2.3-.9l2.2-1c1 0 4-1 4.8-1.7l3.2-2 3.6-2.7c.7-.7 1.7-1.4 2.1-1.6.5-.2 1.2-.6 1.6-1L92 204l3-2.4 2.5-2.2 1.1-1.1c.1-.3-.2-1-.7-1.8-.4-.7-.9-1.8-1-2.3 0-1-.1-1-.8-1-.6 0-1.5.7-4.5 3.6-5.4 5.2-7.4 7-9.2 8a45.9 45.9 0 0 1-11 4.8c-1.3.3-2.6.8-3 1-.2.3-.8.6-1.2.7-.4 0-.8.3-.9.4-.2.4-2.2 1.2-3.4 1.4-.6.1-1.9.6-2.9 1.1-1 .5-3.5 1.3-5.4 1.8a14042.4 14042.4 0 0 0-8.2 2l-3 .6c-4.3.8-10.8.8-13.7 0-2-.7-7.1-1.4-8.1-1.2-.4 0-2-.2-3.5-.6l-3.8-.9c-.6 0-1.5-.5-2.1-1-1.1-.8-1.2-.8-1.2-2.5l-.1-1.7 1.4-1.6c.7-1 1.8-2 2.4-2.4 1.1-.8 5-2.7 7.2-3.5a157.3 157.3 0 0 1 24.3-7.1c1.5-.7 8.8-1.4 13.4-1.3 1.8 0 4.6 0 6-.2a87.9 87.9 0 0 1 12.7 0l3-.3c1.5-.1 2 0 3.4.5 1.6.5 1.8.5 3.2.2 1.4-.4 3-1.3 3-2 0-.2-.4-.4-.8-.5-.7-.2-7.6-.4-14.6-.4h-7.7c-6.5-.1-7.5-.1-10.4.2-6.7.7-10.3 1.2-12.6 2a48 48 0 0 1-7 1.5c-2.2.4-4.2 1-6.5 1.7l-4.1 1c-3 .7-4.2 1-4.9 1.5l-2 .7c-.9.2-1.9.6-2.3.8a41 41 0 0 1-4.7 1.9c-.7.2-1.8.8-2.6 1.3l-2.9 1.6c-1.4.7-4 3.3-4.5 4.7-.2.4-.3 1.4-.3 2.3 0 1.3 0 1.6.6 2 1 .6 4.8 2 6 2.1.6.1 1.4.3 1.6.5a27 27 0 0 0 9.1 2.6c.6 0 1.8.3 2.6.5 1.2.2 1.7.2 2.4 0 1-.4 3.9-.4 3.9 0 0 0 .3.3.7.4 1.4.6 3 .6 8 .1zm32.8-9.4c0-.4.1-.4.2-.2v.5c-.1 0-.2 0-.2-.3zm97.5 8.2 3.6-.8c2.9-.7 4-1 9.6-3.2l5.2-2 2-1.5a88 88 0 0 1 14.6-9.4l6.6-3.5c1.3-.7 2.8-1.6 3.3-2.1.7-.7 1.1-1 1.8-1 .6 0 1.1-.2 1.5-.5.6-.6 1.3-.5 1.6.1.4 1.1-4.6 6.3-10.6 11-2.7 2.2-3.1 2.4-3.6 2.1l-.9-.2c-.6 0-.6 1.2 0 4.1.5 2 .6 2.1 1.2 2.2 1 .1 3.2-1 5.4-2.9l4.2-3c1.5-1 3-2.4 4.2-3.7l3.2-3.4c2.3-2.3 3.6-4 4.3-5.3.4-.8 1-1.5 1.5-1.7 1-.6 2.8-2.2 2.8-2.6 0-.2.3-.5.6-.8.2-.2.5-.6.5-.8 0-.7 1-2.4 1.7-2.8.3-.3.7-.7.8-1 .1-.4.5-1 .8-1.5a36 36 0 0 0 4-17.6 96.4 96.4 0 0 1 .3-8.7c-.3.2-.8 1-1.3 2a8.2 8.2 0 0 1-2.8 3.5c-.6.4-2.5 3-3.3 4.8l-1.5 2c-.6.7-1.4 1.8-1.7 2.4a8 8 0 0 1-1.4 1.9c-.8.7-2.2 2.7-3.5 5-.7 1.1-2.5 3-3.7 3.5-.5.3-1.5 1-2 1.7a16.4 16.4 0 0 1-4.8 3.5c-.4.1-1.6 1-2.6 2s-2.3 2-2.9 2.4a48 48 0 0 0-3 2.7 26 26 0 0 1-5.3 4 23.8 23.8 0 0 1-6 2.6c-2.2-.3-2.3-.3-2.2-1 0-.4.3-.5 1.4-.7 1.2-.1 2.8-.8 4.2-1.6 4-2.4 5-3.3 5.3-4.7.1-.8.3-1 1.8-1.8a35 35 0 0 0 8.3-7c3.2-3.4 3.8-4.3 4.3-5.6.3-.8.7-1.2 1.4-1.6.6-.2 1.3-1 1.6-1.5.4-.5.8-1 1-1a105.6 105.6 0 0 0 13.3-23.5c.7-2 .6-2.4-1.4-3.4-4.4-2.2-9-4.4-9.1-4.3l.8 1.4 1.7 2.8a7 7 0 0 0 1.5 2c.8.7.9 1.6 0 4.5-.6 2.5-1 3.2-2.3 4.5-.6.5-1 1-1 1.2 0 .2-2.8 4.4-3.6 5.4-1 1.3-2.5 3.4-3 4.3-.7 1.5-2.7 3.2-3.8 3.4-.9.1-1.2.3-1.7 1.2-.7 1.2-1.9 2-2.5 1.9-.5-.2-.3-1.5.4-2.6a62.7 62.7 0 0 0 6.5-16.7l.5-4.5c.2-3 .2-3.6-.3-5.5-1-3.5-1.4-4.1-3.4-4.1-1 0-1.2-.1-1.7-1-.2-.4-.7-1-1-1a22.8 22.8 0 0 1-7.8-3c-1.5-.6-3.3-2.5-3.3-3.4 0-1.3.3-1.9 1.2-2.3.5-.2 1-.6 1-.7 0-.2-.6-.8-1.1-1.3-1.2-1-1.3-1.7-.8-3.1.2-.7.2-1-.5-2.3-.5-.9-1.3-2-1.8-2.4a8.4 8.4 0 0 1-1.7-2.3c-.6-1.3-.7-1.7-.6-4.3 0-5.4 1.6-9.2 4.3-10.7.8-.5 1.9-1.5 2.8-2.7 2-2.4 3.8-3.5 7.1-4.1 2.4-.5 4.6-1 5.9-1.6 1.8-.8 3.5-1 5.6-.7l2.6.6c1 .3 3 2.3 3.6 3.4.7 1.3 1.3 1.7 3.3 2.4.9.2 2 .7 2.6 1a5 5 0 0 0 1.4.6c.2 0 1.2.4 2.3 1 1 .5 2.1.8 2.4.7.2 0 .4-.5.4-1 0-.6-.3-1-1.3-2-.8-.7-2-2.3-2.8-3.6-3.2-5.1-3.8-6-4.7-6.5l-2.3-1.5c-.7-.5-2-1.1-2.7-1.4-1.9-.8-6.3-3-7.8-4-1.3-.8-1.5-1.6-1-2.6.5-.8 1.9-.7 3.5 0 .6.4 2.4 1 3.8 1.5a31.3 31.3 0 0 1 7.5 3.5c2.7 1.4 3.6 2.3 4.2 4.2.7 2 2.2 4.8 2.6 4.8.6 0 1-1.4 1.1-4.5l.2-2.8-.9-1.2c-.4-.7-1-1.3-1-1.3-.3 0-2.3-3-3.3-4.9a40.2 40.2 0 0 0-7.7-10l-1.8-2c-.6-.7-1.9-2.3-2.8-3.7a9.6 9.6 0 0 0-5.4-4.4 9.3 9.3 0 0 0-4.3-.7c-1.5 0-3.3.2-4.1.4-1.8.5-5.6.5-7 0-1.4-.5-2.8-.5-3 0-.1.5 2 2.8 2.5 2.8l1.3.5c.6.4 1.4.6 2.4.6.8 0 2 .2 2.7.5 1.8.6 6.4 3.8 10 6.9a69 69 0 0 0 4.7 3.6c2 1.3 3 2.4 3.4 3.9.2 1 .2 1.1-.5 1.7-.3.3-1 .6-1.2.6-.7 0-2.2-1-2.6-1.8-.2-.3-.9-1-1.5-1.3-.7-.4-1.8-1.3-2.4-2a81 81 0 0 0-11.6-9c-.4 0-1.5-.5-2.4-.8-1.1-.5-1.8-.7-2.5-.6-.7.1-1.4 0-2-.3-1-.4-1.3-.4-3 0l-2.6.6a97 97 0 0 0-11.5 2.7l-4 1c-1.1.2-2.6.6-3.3 1-1.2.6-3.5 1.4-5 1.7-.8.1-1.2-.2-.9-.7.3-.4 3.8-2.7 4.2-2.7.2 0 .3-.1.3-.3 0-.5-2.4 0-4 .9-1.3.8-4.9 2.3-5.3 2.3l-1.6.9a102.6 102.6 0 0 0-12.2 7.3c-1.7 1.2-2.6 1.3-2.7.4-.1-.5.7-1.4 1.8-2.1a57 57 0 0 0 4.2-3l2.4-1.7c.8-.4 1-.6.7-.7-.4 0-4.8 2-5.4 2.5l-1.2.8c-.9.3-1.8 1-5.3 3.6-5.5 4.2-7.4 6-12.7 11.3a63.3 63.3 0 0 0-11 13l-1.5 2.2a39 39 0 0 1-2.8 4.5 35.2 35.2 0 0 0-3.2 5.4 18 18 0 0 1-1.7 3l-1 1.3c-.2.6-.8 1.6-1.2 2.2-.5.7-1 1.6-1.1 2l-.7 1.4c-.6.7-2 5-2 6.3 0 .7-.3 2.3-.7 3.7-.9 2.7-1 3.2-.5 3.2a32 32 0 0 0 5.3-3.9c.6-.5 1.2-.9 1.4-.9.4 0 3.8-1.8 5.4-2.9 2.3-1.5 5.3-3 6-2.8.5 0 1 .4 1.7 1.5.6.8 1 1.6 1 1.9 0 1.7-1.4 1.7-3.3-.1-.9-.8-.9-.9-1.6-.4l-2 1a76.6 76.6 0 0 0-12.5 9.3 21.8 21.8 0 0 1-6.4 5 7.6 7.6 0 0 0-3.2 2.3 8 8 0 0 1-1.8 1.8c-1 .5-4.7 4-5.5 5.2-.7 1-1.9 3.4-2.4 5a13 13 0 0 1-1 2c-.5.8-.5 1.2-.4 2.9a7 7 0 0 0 .8 3c.4.7 1 1.6 1.2 2.2.4.6 1.1 1.6 1.7 2.2a5 5 0 0 1 1 1.3l2 2.4c2.1 2.3 2.5 2.3 3.3.7.2-.4.6-1 .8-1.1a5 5 0 0 0 1-1.5l1.2-1.7c1-1 3-4.1 4-5.7a22 22 0 0 1 1.8-2.9l1-1.5c0-.3 4.2-5.7 5.8-7.4l2.9-3.4c.8-1.2 2.2-3 3.1-4 1.6-2 2-2.6 1.4-2.6a52.2 52.2 0 0 0-9.7 5c-1.3 1.2-2.1 1.4-2.7.8-1-1-.4-1.7 3.3-4 1.2-.8 2.8-1.8 3.7-2.2l6.1-3 5-2.2c1 0 1.8-.4 3.8-1.7 1.5-1 2-1.2 2.6-1 .3 0 .6.3.6.5 0 .5-2.4 2.6-3.7 3.3-.4.1-1 .6-1.3 1l-2.3 1.8c-.9.6-2 1.6-2.4 2.1l-2.4 2.7c-1.8 1.8-3 3.4-5.5 7.6a58.2 58.2 0 0 0-6.6 13.6c-.7 2.4-1.6 4.7-2.8 7.1a32.2 32.2 0 0 0-2.6 6.7c-.2.7-.3 1.4-.2 2 .1.8 0 1.6-.1 2-.3.9-.3 1 .2 1.5l1.7 1c1 .2 1.6.8 3 2.3l2 2.4a52.7 52.7 0 0 1 3.8 3.3 27.4 27.4 0 0 0 6.2 4.5c1.8 1 5.2 2.1 7 2.1 1 0 2.4.2 3.4.4 1 .3 3 .5 5 .5 3.2 0 3.5 0 7 1.1l5.6 1.6c2.3.5 4.1 1.3 5.6 2.4l1.6 1 2.2 1.8c1.9 1.7 2 1.7 4.2 2 2.7.4 7.6.2 9.9-.3zm-7-16.3c-.3-.3-.6-1-.7-1.8-.3-2.4-.7-4.2-1.4-6.5a75 75 0 0 1-2.8-10.3c-.2-.4-.4-1.5-.5-2.5l-.6-3.4c-.4-1.8-.5-3.2-.3-3.3l.6.1c.6.2 1.2 1.3 1.7 3.4l.6 2 .6 2.7a102.8 102.8 0 0 0 3.3 12.8l.6 2.9c.6 2.4.5 4-.2 4.3-.2 0-.6-.1-.9-.4zm7.2-6.3c-4-3.5-6-7-6.8-11.7-.4-2.1-.3-2.6.4-2.6.6 0 1.5 2 2.5 5.2.9 2.9 4.2 7.6 6.7 9.3 1 .6 1.1 1.5.4 1.7-.7.3-.8.2-3.2-1.9zm11-1.4a608.6 608.6 0 0 0-5.2-3.8 32.2 32.2 0 0 1-7.3-7c-1.5-1.6-3.7-5.4-3.4-6.1.2-.7-1-2.5-3.2-4.6a18.8 18.8 0 0 1-4.4-5.8c-.7-1.5-.8-1.9-.6-2.5.5-1.6 1.7-1 5.7 2.8a21 21 0 0 0 4 3.1c.4.4 2.7 1 5.7 1.6a9 9 0 0 0 4 .1c.8-.2 2.1-.2 2.8-.2 1 .2 1.8 0 4-.8l2.6-1 2.5-2.8c2.8-3 5.3-6.3 6.4-8.2.9-1.4 2-2.6 2.5-2.6.7 0 1.1.7 1 1.5-.3.8-1.7 3-2.4 3.5l-1.2 1.8c-.4.8-1.9 2.5-3.3 4-2.2 2.2-2.4 2.5-2.5 3.6v1h.8c2.5-.2 5.8-.2 6.2 0 .7.4.5 1-.4 1.4l-4.3.9c-7 1.1-8.5 1.4-9.7 1.9-1.5.6-4.7 1.5-6.6 2-1.9.5-2.9.4-5.2 0-3.3-.7-3.3-.3.3 3.8 3.8 4.3 8.3 8.7 10.7 10.5 1.7 1.4 2.2 2 1.7 2.3-.2 0-.7 0-1.2-.4zm5.2-11.2c-1.5-.6-6.3-.8-8-.4-1.5.3-2.5 0-2.3-.6.3-.7 3.2-1.1 7.3-1.1 4.4 0 5.3.2 5.3 1.4 0 .5-.2.8-.5 1-.5.1-.5.1-1.8-.3zm-14.2-23.2c-.8-.7-.1-1.4 2.6-2.7l4-2c5.6-3 7.3-3.6 7.7-3.3 1 .7.1 1.3-6.7 4.8-3.7 2-6.8 3.5-7 3.5l-.6-.3zm-34-6.4c-4-2.7-5.3-4.5-5-6.7 0-.7.3-1.3.5-1.4 1-.7 2.1 0 3.5 2.6.4.7 1 1.6 1.5 2 1 1.2 2 2.9 2 3.4 0 .4-.7 1-1.2 1l-1.4-.9zm207 63c.7-1.2 1.5-2.2 1.7-2.3.5-.3 1.3-.1 1.3.3l.6-.4c.4-.5 1.1-.7 2-.8 2.6-.4 5-1 6.2-1.8 1-.7 1.3-.7 1.9-.5.5.3 1 .3 1.8 0 1.3-.4 1.8-1.2 1.3-2.6-.3-.8-.3-1 .1-1.3a2 2 0 0 1 1-.3c.4 0 .9-.3 1.1-.6a7 7 0 0 1 2.4-1c2-.7 2.5-1 1.8-1.5-.5-.4-1.7-.5-3.4-.1a55.7 55.7 0 0 1-13.6 2c-.1-.2-.3-.4-.3-.7 0-.6.4-.7 3-.9.9 0 2.7-.3 4-.5 2-.4 2.4-.6 3.3-1.4.5-.5 1.6-1.4 2.4-1.9l1.8-1.2.9-.6c.6-.2.6-.7 0-1.2-.3-.2-.5-.2-1.4.3-1.5.8-4.1 1.6-4.8 1.5-.9 0-.8-1.8 0-2.2.4-.1.9-.5 1.2-.8l2.4-1.6a55 55 0 0 0 4.2-2.5c1.7-1 2-1.2 2.2-.7.3.4-1 1.6-2.5 2.3-2 .8-4 2.1-4 2.6 0 .2-.2.4-.4.4-.3.1 0 .2.6.2s1.6-.2 2.1-.4l2.8-.8c2-.4 2.3-.3 2.8 1 .3.6.6.7 1.9 1l3.3.6c1.5.4 2.3.4 3.9.2l4-.5c2.7-.3 3.4-.6 4.1-1.5 1-1.3.6-1.4-3.8-.5l-3 .8c-1.7.5-3.3.4-3.3-.2 0-.8 1-1.2 5.3-2.2l2.3-.5c.7-.2 1-.8.8-1.5-.2-.6.3-.9 2.3-1.4 1-.2 2.5-.8 3.4-1.1.8-.4 2.3-1 3.3-1.2 1.9-.5 3.8-1.6 5-2.9.8-.8.8-.8.4-1.6-.7-1-.4-2.1.4-2.1.3 0 1.1-.3 1.8-.7a14 14 0 0 1 1.6-1c.3 0 .6-.4.7-.6.3-.5.2-.6-.2-.7-.7-.3-2 .4-3.6 1.9-.7.7-1.8 1.6-2.5 2-.6.4-1.7 1.5-2.4 2.5-1.5 1.8-2.2 2-2.3.7 0-.7.2-1 1.6-2.5l2.9-2.8c.7-.6 1.3-1.4 1.3-1.6 0-1 1.6-2 3.7-2.4 1.7-.3 4.7-2.5 3.4-2.5-.5 0-.3-1 .3-1.4.8-.8.2-1.2-1.6-1.2-1 0-1.6-.1-1.9-.4-.5-.6 0-1.3 1.1-1.5 1.2-.3 1.7-.9 2-1.8.2-1.3 1.4-2.3 4.5-3.9a47 47 0 0 0 4.7-2.6c.8-.4 1-.4 1.3-.2.3.3 0 .6-1 1.6-1.9 1.7-2.2 1.9-2.5 1.9l-.7.4c-.4.4-.4.4 0 .4.2 0 .4 0 .4-.2s2-.9 2.6-.9c.3 0 .6 0 .7-.2l.9-.4a12 12 0 0 0 2-.9c1-.4 1.4-.5 1.6-.3.4.4-.2.8-5.9 3.7a27.5 27.5 0 0 0-5.3 3c0 .3.4.4 1.4.4 1.4 0 2.5-.2 6.3-1.4.8-.3 2.5-.5 4-.6 2.7 0 3-.1 3.5-1.2a3 3 0 0 1 1-1c1.1-.6 1.2-1.4.3-2.2-.5-.4-.7-.8-.6-1.1.2-.4.5-.5 3-.3a52.2 52.2 0 0 1 7 .7c.1 0 .3-.4.3-.8 0-1-.6-1.1-4.3-1.7a25 25 0 0 0-5.2-.4c-2.4.2-2.5.2-2.7-.5-.4-.9 0-1.6.7-1.8.7-.2 2.6 0 6.1.4 1.9.3 2.6.3 2.8 0l1.7-.2h1.4l-1.1-1.2-1.2-1.2-4.2-.3H425c-.2.2-.6.3-1 .2-.5 0-.6-.2-.5-1a4 4 0 0 0-.6-2c-.4-.7-.8-1.8-1-2.6l-.6-2.1-.3-.8-.3.8c-.5 1.4-.7 3.3-.6 6.4 0 3.5 0 4-1 4-.6 0-1.6-1.3-1.6-2.2l-.5-2c-.3-.7-.6-1.7-.6-2.2 0-1.4-.3-1.6-2.1-1.6-1 0-2 0-2.2.2-.7.2-1.9 1.8-2.9 3.7-1.3 2.4-2 2.5-2.6.4-.2-.7-.5-1.1-.9-1.2-.5-.1-2.4.5-2.8.9a322.5 322.5 0 0 0-7 6.4c-1.7 1.6-2 1.8-3.2 2-1.7 0-5.1 2.2-5.1 3 0 .6 1.2.3 2.2-.5 1.1-.8 1.5-.8 1.5 0 0 .6-1.4 2.1-1.9 2.1-.6 0-3.3 2.3-7 6.1-2 2.2-4 4-4.2 4-.7 0-.5-1.2.5-2.3l3.7-4c3-3.1 3.6-3.8 3-3.8-.5 0-2.6 2-2.6 2.6 0 .3-1.1 1.1-1.5 1.1-.2 0-.4-.2-.6-.4-.1-.4 0-1 .8-2.7.7-1.4 1-2.6 1-3.4.1-2 .1-2.1-.5-1.3l-2 2.3c-.9.8-1.9 2-2.3 2.9-.4.8-1.2 2-1.8 2.6l-1.4 2c-1.2 2.5-4.2 6-5 6-.8 0-1-.8-.3-1.4.4-.3 1.7-2.8 1.7-3.3l.8-1.2c.4-.5.8-1 .8-1.3 0-.3.1-.5.3-.5l.2-.4c0-.4 0-.4-.4 0-.2.2-.4.5-.4.8 0 .2 0 .4-.2.4a101 101 0 0 0-11.2 11.9c-.6.8-1.3 2.3-1.3 3 0 .1.3 0 .7-.4.7-.7 1.5-.5 1.4.4 0 .3-.3 1.2-.7 2l-.8 1.6c0 .5.8.2 2.5-1l1.9-1.1c.1 0 1.2-.8 4-3.1 1.1-.9 1.6-1 1.6-.3 0 .4-2.2 2.6-3.4 3.4a23 23 0 0 0-4.4 3.3l-.6.7h.6c.4 0 .7 0 .8.2.1.2-2.4 1.5-5.5 3-.7.2-1.7 1-2.3 1.4-1.5 1.4-1.9.9-.8-1 .4-.8 1-1.7 1.4-2 .3-.4.9-1.3 1.2-2l.7-1.1-.7-.9-.6-.8-1.3 1.2a35.5 35.5 0 0 0-5.7 7.7l-.7.9c-.6.4-.8.4-1 .2-.6-.4-.3-1.3.6-2.8.5-.6.8-1.2.8-1.3 0-.2.3-.6.7-1l.9-1c0-.3 1-1.4 2-2.5 3.5-3.8 5-5.7 4.6-6-.3-.4-.4-.4-.9 0-.3.4-.7.6-.8.6-1.2 0-5 3.3-6.7 5.7a15.3 15.3 0 0 0-2.3 4.9c0 .6-.4 1.3-.7 1.6l-.5.6-.5-.6c-.3-.3-.5-.8-.5-1.1 0-1.2-1.4.9-2.1 3.2-.6 2-.2 4 .8 4 .5 0 .5 0 .4 1.2l-.4 2.4-.1 1.3.6-.7c.8-.7 1.9-.6 2 0 0 .3-.1.9-.4 1.3a3 3 0 0 0-.6 1.4c0 .4-.3 1.3-.8 2.2a8 8 0 0 0-.8 1.8c0 .2-.3 1-.8 1.8-.7 1.4-1 2.6-.5 2.6l1.5-2zm6.6-6.8c-.3-.4.2-.9 1.2-1.2.5-.2 1-.6 1.2-.9.2-.6.4-.7 1.1-.3.3.1 1.1 0 2.2-.2.9-.2 1.8-.2 1.9-.1.4.5-.6 1.1-3.4 2-3 1-4 1.1-4.2.7zm27.5-18.6c-.1-.1 0-.4.2-.6.3-.3 3.1-2 5.9-3.4 1.1-.6 1.7-1 1.7-1.4l-1.1-1.2-1-1-1.4.7a14 14 0 0 0-3.7 2.7c-1 .9-1.4 1-1.7.8-.5-.5-.4-.9.4-1.8a29.4 29.4 0 0 1 8.3-4.9c.9-.4 2.5-1.4 3.6-2.2 7.2-5.5 8.2-6.2 8.2-5.3 0 .6-.7 1.4-3.3 3.3-6.4 4.8-7.5 5.8-7.5 6.4 0 .5.1.6 1 .6.8 0 .9 0 .8.7 0 .4 0 .9.2 1.1.1.4-1 1.9-1.5 1.9l-1 .5c-.5.3-1.4.8-2.2 1l-3.2 1.5c-2 1-2.4 1.1-2.7.6zm4-13v-.7a44 44 0 0 1 5-3.4c.2 0 2.8-2 4.4-3.3 2.2-1.7 3.7-2.2 3.7-1 0 .5-.7 1-5 3.8l-4.6 3.4c-1.3 1.2-2 1.6-2.6 1.6-.5 0-.9-.2-1-.4zm13.4-11.2c-.1-.4 0-.5 2-2.9s3.7-4.1 4-4c.9.3.5 1.2-1 2.8l-1.9 2.3c-1.2 1.9-2.7 2.8-3 1.8zm10.6-3.5c-.5-.1-.4-1.1 0-2.2l.8-1.9c1-2 2.4-2.8 2.2-1 0 .7 0 .8.5.8.3 0 .7 0 .8-.3.4-.3 1.2 0 1.2.5 0 .3-2.2 2.7-3.2 3.5-.6.4-1.9.8-2.3.6zm-57.9 52.9c.3-.3.8-.5 1.2-.5.5 0 1-.2 1.2-.4.4-.4.4-.4 0-.4-.2 0-.4 0-.4.2s-.3.3-.7.3l-.6-.2c0-.2-.3-.3-.7-.4-.7-.1-1.2.5-1.2 1.4 0 .7.6.7 1.2 0zm-301.3-2c8.3-1.9 8.1-1.8 13.7-3.7a30 30 0 0 0 3-1.2c.8-.5 1.8-.8 3.5-1.3 1.8-.5 2.6-.9 5-2.2l1.7-.7c1 0 5.6-2.2 7-3.2 2.3-1.9 4-3.5 4-3.8 0-.8-2.6-2-5.3-2.3-1 0-3.1-.4-4.9-.7a72 72 0 0 0-15.7-.4l-5.6.4c-2 0-3.5.2-5.7.8l-3.8.7c-.4 0-1.6.3-2.6.7a128 128 0 0 0-15.4 5.5c-1.5.6-3.3 1.4-3.8 2-.6.4-1.6 1-2.2 1.2-1.2.5-3.7 2.2-3.9 2.6l-.5 1.3-.4 1 1.6.8c2 1 3.8 1.5 8 2 2.6.3 3.7.4 5 .2a39 39 0 0 1 4-.4c2.2 0 2.5 0 3.1.5.3.3 1 .6 1.4.7 1.6.2 7.1 0 8.8-.5zm316-1c.2-.3.2-.5 0-.8-.4-.4-.5-.4-1.8 0-1 .4-1.3.5-1 .8.3.5 2.4.5 2.7 0zm2-1.1c.4-.4.3-.4-.3-.4-.4 0-.7.1-.7.4 0 .2.2.4.3.4l.7-.4zm-164.5-.6c-.1-.9-.8-1.1-.8-.3 0 .7.2 1 .6 1 .2 0 .2-.3.2-.7zm46.5-1c0-.6-.2-.8-.7-.9-1-.1-1.2.4-.7 1.2.6.9 1.4.7 1.4-.3zm125.8-1.5c.5-.2 1.2-.7 1.5-1l.7-.5h-1c-2 0-3.7.7-3.4 1.4.2.5 1.1.5 2.2 0zm-44.8-.4c.3-.4.2-.6-.3-.8-.4-.2-.7-.2-.8-.1-.3.2-.2 1 .2 1.2.5.2.7.2 1-.3zm39.6-.8c.2-.3 0-.3-.7-.3-1.1 0-2.2.4-2 .7.2.3 2.3 0 2.7-.4zm-118.4-1.5c.6-1 .7-2 .2-2-.4 0-.7.2-1.6 1.2-.7.8-.7 1-.4 1.3.5.6 1.3.4 1.8-.5zm-43.3-1.6c2-1.3 4.4-3.6 3.8-3.6-.2 0-.5.2-.7.5-.1.3-.8.7-1.4 1-1.6.8-3.4 2.2-3.4 2.6 0 .6.2.5 1.7-.5zm168.4-.8-1.4-.1c-.9 0-1.4 0-1.3.2.4.2 2.5.2 2.7 0zm-122.3-2.2c.4-.6.6-1.2.6-1.3-.2-.2-2 1.6-2 2 0 1 .7.6 1.4-.7zm116.5-1.4c.2 0 .3-.4.2-.7-.3-.8-1.4-.8-2.4 0l-.7.7h.9c1.5.3 1.6.3 2 0zm-33.9-2.8h-.5c-.2 0-.2.1.2.2.2 0 .4-.1.3-.2zm87.8-1.4a1157 1157 0 0 1 8-1.5 150.8 150.8 0 0 1 6.6-1.7c2.6 0 11.7-2 14.2-3.2a70 70 0 0 1 11.2-4l1.8-.5 2.3-.5.9-.3-.3-1.6c-.2-1-.4-2.9-.3-4.3 0-3.7-.3-4.5-2.1-5.4-.8-.3-1.5-.6-1.6-.5-.1.1 0 .2.1.2.2 0 .3.2.3.5 0 .2.2.8.5 1.2.8 1.4 1 2 .4 2.6-.4.4-.4.6 0 1.1 0 .4.2.8 0 1-.2.3-1.2.3-2 0-1-.5-1.6 0-1.2 1 .5 1.3 0 1.5-1.7 1-.8-.3-1.6-.6-1.8-.8-.8-.8-4.8-2.6-5.3-2.5-.3 0-.7.3-.9.5-.3.6.6 1.7 1.7 2 .6 0 .8.2.8.7 0 .6-.1.7-.8.7-.9 0-3.5-1-4-1.4l-1.5-1c-1-.5-1.2-.5-2-.1-1.1.5-2.1.5-3.5 0l-1.9-.7c-.5-.2-1.3-.5-1.7-.8-.8-.4-1.5-.6-2.3-.5-.3 0-.4.8 0 .8.3 0 .8 1.5.7 2-.2.5-1.4.5-1.8 0-.3-.4-1.2-.9-2.9-1.5-1.4-.5-1.5-.7-1-1.7.7-1 .5-1.7-.4-1.7-.8 0-1.3 1-1 1.7.6.9.2 1.1-1.2 1-2-.4-6-.4-6.4 0-.7.7-.3 1.2 1.2 1.7 1.5.4 2 .7 2 1.4 0 .3-.5.3-2.7.2-2.5-.2-2.5-.2-2.8.4-.3.6-.4.6-3.3.5-3 0-3.8.1-4.7 1-.3.2-.3.3 0 .3 1.7 0 2.4 1.6.9 1.8-.7.2-.9.3-1 1.1l-.1 1h-2.8c-2.7 0-4 .2-7.4 1.1l-2.5.7c-.8.1-3.3 2.4-3.3 3 0 .2.4.3 1.6.3.8 0 1.6 0 1.7.2.3.5-.2 1-1 1.4-1 .4-.8.5 2.5 1.6 2.1.7 3 .9 6.3 1 6 .3 11.9.1 15.5-.5zm-79.5-4.4c.2-.9.8-2.2 1.2-3 .7-1.3.7-1.4.3-2.3-.5-1-1.4-1.2-1.7-.4-.2.7-.6 4.3-.8 6.5-.1 1.9.2 1.6 1-.8zm50 .5.5-.8c0-.4-.7-.4-1 0l-.6.2c-.3 0-.8.1-1.1.3-.6.3-.6.3 0 .5.8.4 1.5.3 2.1-.2zm-43.4-4.5c0-.5-.5-.4-1 .2-.6 1-.4 1.4.3.7.4-.3.7-.7.7-.9zm-1.7-2.2c.2-.7-.3-1.3-1.1-1.3-.5 0-.7.1-.7.6 0 1.2 1.4 1.7 1.8.7zm-24.2-1.9c1.5-.1 3.3-.4 4-.6 6.7-1.8 7.1-2 8.2-3.2a7 7 0 0 1 1.7-1.4l1-.5-.7-.5c-1-.6-1-1.1 0-1.3.4 0 1-.3 1.3-.4.5-.2.6-.3.3-.7-.1-.2-.5-.3-.8-.3-.5 0-1-.8-1-1.5 0-.5 1.7-.6 2-.1.2.4 1.2.3 1.2-.1a33 33 0 0 0-9.9-10.2c-.9-.5-1.9-.8-2.2-.8-.4 0-1-.2-1.4-.4-.4-.2-.8-.3-1-.2-.2.1-1.8 4.8-3 8.8-.5 1.8-.7 2.1-1.4 2-.9-.3-1.2.5-1.5 4.5-.2 3.3-.3 3.7-1 4.8-1.7 2.4-1.2 2.7 4.2 2.1zm-2-8.4c0-.2.2-.3.3-.3v.3c0 .1 0 .2-.2.2s-.2 0-.1-.2zm-8 8.2s-.2-.4-.7-.7c-.5-.2-1.1-.7-1.5-1-.7-.7-2-3-1.8-3.4.2-.5 2-1 3.1-1 .5 0 1.3.2 1.7.4 1.2.7 1.7.5 1.8-.5 0-1 0-1.6-.2-1.7-.3-.4-2.9-.4-3.8-.1-1.4.5-4 .7-4.9.3-.6-.2-.7-.4-.6-1 0-.4.3-.8.7-1 1.2-.7 3.7-1.7 4-1.7.4 0 1.1-.8.8-1-.5-.3-4.5.4-6.6 1.1-3.4 1.2-4 1.2-3.6-.1.2-.6 2.6-1.8 3.4-1.8l.9-.3c1-.5 5.1-1.3 7-1.3 2 0 2 0 1.4 1.7-.6 1.4-.5 1.6.4 2.1 1.5.8 1.8.6 2.4-1.5.6-2 1.3-3 1.8-2.7.4.2.3.5-.1 4-.2 1.2-.2 1.2.2.8.3-.2.5-.7.5-1 0-.3.3-1 .7-1.7.8-1.2 1.5-3 1-3s.2-3.1 1.8-7.6c.4-1 .7-2.2.7-2.7s.1-1 .3-1l.2-1 1.3-4.7 1.4-4.3c0-.6-1.7-2-2.9-2.4l-1.1-.7-.4-.6c-.3-.5-.4-.5-1.9 0l-2.4.8c-.8.3-.8.4-.6 1l1 1.3c1.4 1.6 1.8 4.7 1 8.3l-.5 2.4c0 1.1-.3 1.5-1.6 1.7-1.4.2-3.3.8-6.1 1.8a68 68 0 0 1-6.1 2.2c-1.4.6-2.6 1.2-5.2 2.1a62.5 62.5 0 0 0-6 2.6c-1.6.7-1.8 1.2-2 3.5a61 61 0 0 1-.4 4.5c-.3 2-.3 2.4 0 2.9.3.3.6 1 .8 1.6.5 1.6 1.2 1.8 7.6 2.7 1.9.2 4.1.6 5 .8 3.7.9 7.8 1.4 8.1 1zm-13-14.4c-.3-.3-.3-.4 0-1 0-.2.5-.5.8-.6 3.6-.8 7.7-1 8-.3.2.6-.8 1.1-2.5 1.4l-1.7.1-3.5.6c-.3.1-.8 0-1-.2zm19.8-8c-1-.4-3-.4-4.2 0-1 .4-.4-.3 1-1 1.7-1 3.7-1 4.5-.1.6.6.6 1.4 0 1.4-.2 0-.8 0-1.3-.3zm87.8 21.5c1.7-.8 1.6-1.2-.3-1.9l-1.4-.5-1.8.9c-2.3 1.1-2.3 1.7-.2 2.1 1.2.3 2 .1 3.7-.6zm-48-.8.4-1c0-.3.2-.9.5-1.4.4-.6.4-1 .2-1-.3-.1-1 .5-1 1 0 .3-.3.8-.6 1.4a4 4 0 0 0-.7 1.3c0 .6.7.4 1.2-.3zm-12-1 1-1 1 .5c1.7.8 2.1.7 2.7-.6.7-1.6.7-1.8-.4-1.8-.6 0-.9 0-.9-.4 0-.5 1.7-1.2 2.5-1 .7.2.9-.1.4-1-.2-.4-.5-.5-1-.4h-1c-.4-.3-.4-.4 0-.7.2-.2.7-.4 1-.4.8 0 2.7-1.6 2.1-1.8-.1 0-.5 0-.7.3l-1 .5c-.2.1-.4.3-.4.5l-.8.2c-.5 0-.8.1-.8.3 0 .3-1.5.3-1.8 0-.3-.5.5-1.6 1.3-1.9 1.5-.5 3.5-2.4 3-2.7-.4-.2-2.3.7-3.5 1.7-2 1.8-2.5 2.3-2.5 3 0 .8-.3 1.1-2.5 2.8-2.4 1.8-2.5 2-2.5 3s0 1 1 1a3 3 0 0 1 1.7.5c.9.7 1 .6 2.1-.5zm-30-2.5v-1.6l-.2 1.4c-.2 1.2-.1 1.7.2 1.7v-1.5zm131.7-.4c-.2-.6-1.4-1.3-1.9-1.1-.5.2 0 .9 1 1.4 1 .5 1.1.5.9-.3zm-33.2-.4c-1-.2-1.3-.6-1.3-1.3 0-.6.1-.7 1.8-1.2.8-.3-1.9-.1-4 .2-2 .3-2.6.6-2.6 1 0 .5 1.2.5 1.5.1.2-.4 1.2-.3 1.2.2 0 .2-.2.4-.3.4-.7 0 .3.7 1.1.8 1.2.1 3.5-.1 2.6-.2zm25.5-.5c-.4-.1-.6-.3-.6-.4 0-.1-.2-.3-.4-.3-.4 0-.4.1-.1.4.2.2.6.4 1 .4.6 0 .6 0 0-.1zm-75.3-2.6c3.9-3.7 5.4-5.3 6.2-6.5.8-1 1.6-1.7 1.9-1.4l.2 1c0 1 .4 1 1 0l1.2-1.6a115 115 0 0 0 7.5-11c0-.4 1-1 1.7-1 1 .1 1 1.3 0 3-.5.6-.9 1.3-.9 1.5 0 .4.6.2 1.2-.4a18.3 18.3 0 0 1 2.8-2.3l1.3-1c1.2-.8 1.9-.9 1.9 0 0 .4-2.9 3.3-5 5.1-1.8 1.4-2.9 3.7-2.3 4.5.3.4.4.4 1-.1.3-.4 1.1-1 1.8-1.3 1.7-1 2-1.3 2.3-2.3.1-1 3.6-4.3 5.9-5.8l2.9-1.8c1.4-1 1.6-1 4.1-1.1l3-.2c.6 0 .9-.7 1.6-6l.5-2.7.1-1-2.5.5c-2.6.4-3 .6-4.1 1.9-.7.8-1.8 1-2 .3-.2-.4.5-1.4 1-1.4.4 0 2-1.6 3-3 .9-1.2 3-3.3 4.2-4a5.8 5.8 0 0 0 2.5-2.9c.5-1 .5-1.5.4-2.7a57.5 57.5 0 0 0 .1-15.3c-.3-4 0-8 .7-10.6l1.5-4.5c1.3-3.2 1.7-4.8 1.3-5.4-.2-.3-.9-.5-2-.5-2.7-.1-4-.2-5-.1-3.2.2-9.4 0-10.3-.4-1-.4-1-.4-1.8.2a13 13 0 0 0-4.9 7.6c-.1 1-.4 1.5-1.4 2.5-1.8 2-6 9.5-6.5 11.5 0 .7-.5 1.6-1 2.2l-1.4 2.4-1 1.8c-.3.2-.6.9-.7 1.5a53.9 53.9 0 0 0-4.5 9c0 .2.2.4.5.4 1.2 0 .3 2.7-1 3-.5 0-1 .5-1.2.8-1 1.5-1.8.2-1.1-1.9.2-.7.3-1.3.2-1.4-.3-.3-1.9 1.9-2.4 3.3l-1 2.9c-.5 1.8-1.5 4-1.8 4.1-.3 0-.9 1.3-1.1 2.4l-.6 1.7-.8 2.2-1 3a42.9 42.9 0 0 0-2.5 9.6c-.4 1 .2 3.3 1.1 4.6.6.8 1 1.8 1.2 3a350 350 0 0 0 1 5.7l.4.6c.2 0 1.4-1 2.6-2.2zm23.8-21.8c-.7-.8-1-2.9-1-7.5 0-4.3.2-6.5.8-10.8a45.6 45.6 0 0 1 2-10c0-.7.3-2 .6-3 1.3-5.9 2.1-8 3-8 .7 0 .6 1.6-.3 4.4a39 39 0 0 0-2.3 8.7l-.4 2c0 1-.4 3.1-.7 4.8-.9 4.8-1.2 11-.9 15.5.3 3 .3 3.7 0 4-.3.3-.4.3-.8 0zm9-27V125l.5-3.4c.2-3.2.6-6.2 1-6.8 1-1.4 1.9-.2 1.5 2a78 78 0 0 0-1.2 7 15 15 0 0 1-.8 3.9c-.3.4-.9.3-1-.2zm-53.5 47.7 1.2-1c.2 0 .4-.4.7-1 .2-.6.6-1 .9-1.2.3 0 .6-.4.7-.6.3-.4.2-.5-.2-.6-1-.3-.6-2.1.7-2.4.3-.1.3-.2-.2-.2l-.8.2c0 .2-.5.4-1 .5-.6 0-1.3.3-1.6.6-.5.4-1.6 3.3-1.6 4.2 0 .3-.1.6-.3.7-.4.2-.3 1.7 0 1.7s.9-.4 1.5-.9zm66.5.1c.6-.3 1.4-.5 1.9-.5.9 0 1.7-.4 2.4-1.1.5-.6.6-.6 2.5.3 1.4.7 6.3 1.9 7.7 1.9l1.4-.6.9-.6-.6-.3c-.4-.2-1.4-.4-2.4-.4s-2-.2-2.7-.5c-1.6-.8-4.6-1.3-5.3-.9-.3.2-.9.4-1.3.4-.8 0-3.6.5-5.7 1-1 .2-2.5 1.1-2.5 1.5 0 .6 2.4.4 3.7-.2zm54.4-2.3.5-1.9c.4-1.2.5-2.5.2-3.3a6 6 0 0 1 0-2l.5-3.9.3-2.4-.8-1.5c-.5-.9-.8-1.7-.8-2 0-.6-.6-2-1-2.2-.3-.1-.9.7-1.9 2.7-.3.7-1 1.7-1.6 2.3-.5.6-1.1 1.6-1.4 2.3-.5 1.5-1 1.7-2 1.2l-1.2-.5c-.4 0-.2.8.6 1.8.7.9.8 1.2.8 2.8 0 1.8 0 1.9 1 2.9l1.3 1c.2 0 .4.3.4.6.3 1 1.5 2.3 2.2 2.3.3 0 .7.1.8.3l1 .2c.8 0 1 0 1.1-.7zm-252.6-.6c-.1-.2-.2-.2-.2.1 0 .3 0 .5.1.4v-.5zm127.4-.1c-.2-.6-.8-.5-.7.1 0 .3.3.5.5.4.2-.1.3-.3.2-.5zm92 .2c-.2-.2-.3-.4-.2-.5 0-.1-.2-.3-.4-.3-.3 0-.5 0-.5.4 0 .5.2.6.8.6.5 0 .6 0 .3-.2zm13.5-.9c-.3-.3-.7-.4-.8-.3-.4.2.2.9.9.8.5 0 .5 0 0-.5zm-18.3-1.6c.8-.1.7-.2-.9-.2s-1.7 0-1.4.4c.2.3.5.3.9.2l1.4-.4zm-211.6-1.7.9-1.4a59.7 59.7 0 0 0 4.5-7.7c.7-.9 1-2.6.7-4-.6-2-1.7-4.6-2.2-5.2-1-1.1-1.2-.8-1.3 3a33.1 33.1 0 0 1-.5 5.6l-.6 2.7-1.2 3.6-1.3 3.5-.6 1.6c0 .6 1-.4 1.6-1.7zm293.1 1.5 7-.5c3.7-.3 4.7-.4 4.7-.9s-1.6-.5-5.4-.2c-6.4.5-37.8-.1-41.3-.9-2-.4-4.3-.3-4.8.1s-.5 1-.1 2l.2.6h18.2l21.5-.2zm-168-.8c0-.4-.2-.8-.5-1-.7-.4-.7-1.3-.1-1.5l1.6-.2c1 0 1.2 0 1.7-.8l.5-1.2c0-.5-1-.4-1.5.2-1.3 1.2-2.3.3-2.6-2.2-.2-1.6.1-2.5 1.1-3.5.4-.3.6-.7.6-1l.4-.8c.2-.3.3-.7.2-1.5-.1-.8 0-1.2.3-1.6.3-.3.4-.7.3-1.2-.2-1 .2-1.6 1.3-1.8 1-.2 1.1-.4.4-1.8-.7-1.3-.7-2.2 0-2.6.8-.4 1.6-.2 3 .8 1.6 1 1.9 1 1.6 0a10 10 0 0 0-2.4-4.2c-1.9-2-6.4-3-9-2a57.8 57.8 0 0 0-5 2.2c-1 0-3.8 4-6 8.5-1.2 2.5-1.5 3.4-1.5 4.4 0 1.2 0 1.2.3.6.4-.8 1.4-1 1.6-.4.1.2-.1 1.2-.6 2-1.3 3-1.5 3.6-1.3 4 .2.2.4.2 1.2 0 .8-.3 1.2-.3 2 0 1.8.5 4.3 2.4 6.9 4.9 1.8 1.7 2.4 2.2 2.8 2.1h1.2c1.1.6 1.5.4 1.5-.4zm102.7-.6c-.2-.8-1.2-1.8-1.8-1.8-.3 0-.6-.1-.8-.3-.3-.3-1.5-.2-1.6.2-.1.4.7 1.2 1.6 1.6 2.6 1.2 2.9 1.3 2.6.3zm80.6.1c1.4 0 2.3-.2 2.5-.5.2-.3 0-.3-1.1-.3-2.3 0-4.8.5-4.8 1 0 .2.2.3.6.1l2.8-.3zm-138.3-.3c.5-.4.5-.5.2-.5s-.5 0-.5.2-.2.3-.4.3-.3.1-.2.3c.2.3.2.3.9-.3zm-37.7-2.4 1.3-1.3-.7-.2c-1.1-.2-1.7.1-2.3 1.4l-.6 1.4c0 .5 1.1 0 2.3-1.3zm170.5.1c.4 0 .8-.3.8-.5 0-.5-3-.5-3.3-.1 0 .1-.4.3-.7.3-.5 0 .4.2 2 .4h1.2zm5.6-.6c0-.5-2.2-.7-3-.4-1 .4-.4.6 1.2.6 1 0 1.8 0 1.8-.2zm18-.5a23 23 0 0 0 5.1-2.6l1.8-1c.8-.1.8-.1.6.7-.1.8-.1.8.7.6 1-.2 1.8-.8 1.8-1.4 0-1-3-1.6-13.3-2.2a2248 2248 0 0 0-20.7-1.3c-.1-.1-.6-.3-1-.3-.5 0-.7.2-.7.5s.1.6.3.8c.6.4 2.7.8 5.1.8 2.7 0 3.7.3 5.4 1.3.8.5 1.7.7 3.2.8 2.2.2 2.5.4 2.3 1-.3.8-3.6 1.8-6 1.8-1 0-2.4.6-2.4 1 0 .2 3.2.3 8.2.1 7-.1 8.5-.2 9.6-.6zm-37.4-1.4c2-.6 2.4-.8 4.3-2.3 1.9-1.4 2-2.2.8-2.8-1.3-.7-1-1.5.6-1.5.3 0 .8-.3 1.3-.6.4-.4 1-.6 1.2-.5.4 0 .6 0 .7-.3.2-.5-.3-2.7-.8-3.5l-.5-1.4c0-.4-.6-1.7-1.2-2.9-1.3-2.5-3-4-6.5-5.7-2-1-2.8-1.6-4.4-3.2-2.3-2.4-2.5-2.5-4.8-3-3.4-.5-5-.6-16.4-.7a273 273 0 0 1-11.6-.3c-.2 0-.9 0-1.5.2-1.4.4-1.6.8-1.6 3.1 0 1.5.6 3.5 1.8 6.3a37 37 0 0 1 3.2 15v3.5c.2.1 1 .2 1.8.1.8 0 2.4.1 3.5.3 1.2.2 2.2.2 2.3.1l-.6-1c-1.8-2.1.2-3.2 3.2-1.7 2.1 1 4.6 1.7 7.4 1.9 2.4.2 3 .1 6.9-.8a124.5 124.5 0 0 1 10-1.7c1 .8-.8 1.8-5.4 2.8-1.4.3-2.6.7-2.5.9 0 .1 1.7.2 3.6.2 2.8 0 3.9 0 5.2-.5zm-14.6-3.3c-.3-.8-.2-1.1 1-2.6 1.1-1.4 2.3-3.5 2.3-4.2 0-1.2-5-4.8-7.9-5.8-3.7-1.2-4.6-1.8-3.5-2.3.7-.4 3.3.4 7.8 2.6 2.6 1.3 4 2.1 4.8 2.9 1 1 1 1.1.7 2-.2.4-.3 1.3-.3 1.9 0 .8-.4 1.5-1.8 3.5-1.3 1.8-1.9 2.4-2.3 2.4-.4 0-.7-.2-.8-.4zm7.3-.2c-.5-.5-.4-1.8.2-3.1 1-2 1.3-4.3 1.2-7.5-.1-2.5 0-3 .2-3.3 1.2-1 2 .8 2 4.4 0 2.2.1 2.7.5 3 .6.6 3 1.6 3.7 1.6.7 0 2.7 1 2.7 1.4l-.4.7c-.3.3-.7.2-2.3-.1-1-.3-2.6-.6-3.4-.6-1.7-.2-1.9 0-2.2 2-.1.7-.3 1.3-.5 1.5-.3.4-1.3.4-1.7 0zm-19.2-4.9c-.7-.1-2-1.3-2-1.8 0-.4-.7-1-2-1.7-.8-.4-1.2-.7-1.2-1 0-.5.2-.6 1.2-.6 1.4 0 3.3 1 4.6 2.6.8.9 1 1.5.7 2.3-.2.4-.4.5-1.3.2zm-96.3 8.1c0-.2-.1-.1-.2.2 0 .3 0 .4.2.3v-.5zm-118.2-2.9c-1-1-2-1.8-2.2-1.8l-.5.7c-.3.6-.2.7.2 1 .3.3.8.4 1.1.4 1 0 1.9.5 2.2 1.2.2.5.4.6.7.5.3-.1 0-.6-1.5-2zm181 1.2c-.4 0-.8-.2-.8-.4l-.4-.2c-.3 0-.4 0 0 .4.1.2.7.3 1.2.3h1zm-61-.6c0-.2-.3-.2-.4-.1-.2 0-.2.2-.1.4 0 .1.3.1.4 0 .1 0 .2-.2 0-.3zm74.5-2.9 1.6-4.5c1.7-4.8 1.9-5.6 1.5-9.4-.2-2.5-.2-3.6 0-4.5.2-.7.3-1.8.3-2.5l.4-3.8c.4-2.4.4-2.8 0-4.3a30 30 0 0 0-2.5-7c-3.3-5.6-4.3-9.2-2.4-8.6.7.2 2.5 3.2 3.8 6.3a81.2 81.2 0 0 0 1.9 4.5c.7 2.1 1.3-4.5.7-7.7-.2-.7-.5-3.2-.7-5.6a49 49 0 0 0-4.6-15.4 56.7 56.7 0 0 0-11.4-16.8c-1-.6-1.8-2-1.8-2.9 0-1.1-.6-1.5-3.2-2.3-3.3-1-4.3-1.2-4.9-.5-.5.6-1.2 3-1.2 4 0 .5-.3 1.5-.7 2.4-.8 2-1 4-.5 4.4.2.3.4.3.5.1.3-.4 1.2-.3 1.2.1l.5 2c.3.8.9 3 1.2 5l1.4 6.2a42.1 42.1 0 0 1 1.3 9.6c.1 1.1 0 1.4-.3 1.5-.6.3-1-.2-1.3-1l-1.2-8a87.3 87.3 0 0 0-2.9-12.4c-.3-.6-.3 1.1 0 3.7v2.6l-.7 2.6c-.2 1-.8 2.8-1.4 4-.7 1.8-1 3-1.2 4.3 0 1-.4 2.7-.8 3.7a52.8 52.8 0 0 0-2.5 9.1v2l-1.5 1.4c-.8.8-1.5 1.8-1.6 2.2 0 .4-.6 1.6-1.1 2.8-2.4 5-2.7 5.8-2.9 7 0 .6-.4 1.4-.8 1.9-.3.4-.6 1-.6 1.3 0 .7.7 3.3 1.4 4.7.5 1 .8 3 1.1 7l.2 1.8h1.1c.6-.2 2-.6 3.2-1.2 1-.5 2.2-1 2.5-1 .3 0 .9-.1 1.3-.3.4-.3 1.3-.5 1.8-.5.9 0 1 0 1.1.5 0 .5-.1.6-1.2 1-1 .3-1.4.6-1.4 1 0 .5.8.6 6.6.9 3.5.1 5.5.6 5.7 1.4.3.9 0 1.6-.7 1.6-1 0 .8.7 3.1 1.2 2.1.4 2.5.6 4.5 1.7.5.3 1.7.7 2.6 1 .9.2 1.7.4 1.9.6.4.4-.1 1.2-.9 1.3-.3 0-.7.3-.9.6-.3.5-2.1.7-2.4.2-.3-.4-2-.3-2 .2 0 .3.4.4 2.4.4 2.1 0 3.7-.4 3.7-.8 0-.2.2-.3.4-.4.4-.2 1.4.3 2.2 1l.4.4.7-1.8zm-7.2-22.3a50.4 50.4 0 0 0 .5-14.9c-.8-4-1.3-6-1.7-6.7-.3-.7-.3-.7-.3-.1a25.5 25.5 0 0 1 .6 7c-.2.5-1.3.6-1.6.2a33.5 33.5 0 0 1-1.3-8.6c.3-.6 1.4-.5 1.6.1.2.7.5.7.9 0 .9-2.2 3 2 3.8 7.1.5 4.2 0 10.2-1.1 14.4-.5 1.7-1.1 2.3-1.4 1.5zm-10.2-6.2a64.1 64.1 0 0 0-2-11.4c-.6-1.6-.6-4 0-4.1.3-.2.9.3 1.3 1.3.4.6 1 5.3 1.3 8.4l.3 3.9c0 1 0 1.6-.3 2-.3.4-.4.4-.6-.1zm2.7-17.2c-.2-.2-.4-1.2-.5-3a329.7 329.7 0 0 1-.7-13.2 99 99 0 0 1-1-10.3c0-2.3 0-2.7.4-3 .6-.7 1-.3 1.2 1.5.6 4.3 1 8.1 1 10l.4 4.3c.2 1.3.4 3.8.4 5.5l.1 5.7c.2 2 .2 2.5-.1 2.7-.5.3-.7.3-1.2-.2zm-6.9-1.2-.2-2.9-.3-4.2c-.2-1.5-.1-1.8.2-2.2.5-.5 1.1-.4 1.4.2.2.7.5 8 .3 8.7-.2.7-1.1 1-1.4.4zm-111.9 46.5v.7-.7zm-65.8-.5c.3-.3 0-1-.6-1.7-.7-.7-.8-1.7-.2-2.1 1.3-1 3-1.2 8.4-1.3 5.6 0 7.1-.2 7-.7-.2-.5-2.2-1.5-3-1.5-.9 0-5.1-1-5.8-1.4-.7-.4-2.3-.3-3.3.3-1.2.6-4.5 1.6-7 2.3l-2.6.7c-.3.2-1.6.3-2.8.3-2.1 0-2.2 0-2.2.6 0 .8 1.4 1.7 2 1.4.9-.4 2.4-.8 3-.8.8 0 2.4 1.2 2.4 1.7 0 .3 1.1 1.1 2.8 2 1.2.6 1.5.6 1.9.2zm88.7-.5-.4-.7c-.4-.3-.4-.2-.4.6 0 .9 0 1 .4.7l.4-.6zm91.5.7h-.5c-.3 0-.2.1.1.1.3 0 .5 0 .4-.1zm-11.7-2.8c1.7-.3 2.3-.8 1.4-1.3-.6-.3-2.3-.3-2.5 0 0 .2-.4.3-.6.3-.6 0-1.1.5-1 1 .2.4.5.4 2.7 0zm-2.8-2.4c.6-.7.4-1.3-.4-1.3-.6 0-.7.2-.7 1 0 1 .4 1.1 1.1.3zm16.5.2c-.1-.4-.6-.5-3.2-1-2.2-.3-3 .2-1.6 1 .8.5 5 .4 4.8 0zm-31.7-1.7c.3-.3 1-.8 1.8-1.2l1.2-.7 1.8.4c3.3.8 3.9 0 4-6 0-2.3 0-3.4-.3-4-.3-.5-.6-1.3-.7-2-.3-1.2-1-1.5-3.5-1.7-2-.1-2.4 0-2.7 1-.1.3-.7.8-1.2 1.2-1.2.8-5.7 4.8-5.5 5l1.8.1c2.2.2 3.1.5 3.1 1.3 0 .6 0 1-1 5l-.5 2.4c0 .3 1-.2 1.7-.8zM249 147c.8-.2 1.4-.6 2.7-2 3-3 4.6-7 4-10.3-.2-.8-.2-2.4-.2-3.6.1-1.7.2-2.1.7-2.5.5-.4.7-.5 1.2-.2.6.3 1 0 1-.9 0-.2.1-.6.3-.7.3-.2.5-.1.9.6.7 1.2.7 5.2-.1 7.6-.3.9-.7 2.3-.7 3.1l-.6 2.9c-.3.7-.4 1.4-.3 1.5 0 .1 1-.4 2-1.1l1.8-1.3 1-3.2c1.1-3 1.4-4.4 1.3-7.2 0-1-.2-1.1-.9-1.5-.9-.5-1-1.1-.5-3.6.4-1.9-.2-3-1.9-4l-2-1.2c-.6-.6-.9-.6-2.2-.5-.8.2-2.1.2-3 .2-1.4 0-1.5 0-1.5.6 0 .7-.2 1-1 1.5-1 .5-2 0-2.5-1.4l-.7-1-2-1.5a38 38 0 0 0-9.7-6.3c-2-1-3.9-2-4.3-2.4-1.6-1.1-2.5-1.4-3.2-1.2-1.2.5-1.9.3-2.8-.6-.7-.7-1.3-1-2.3-1l-2.7-.6c-.8-.3-2-.5-2.9-.6-2.1-.2-2.8-1.7-1-2.1.8-.2 1.5-.2 4.8.3 1.1.2 1.3.2 1.2-.3-.2-.7-2.3-1.7-3.9-1.7-3.6 0-7.8 1-12.7 3.3-1.5.7-2.7 2-2.7 3 0 .3-.4 1-.9 1.5-1 1-1.7 2.4-2.7 5-.7 1.8-.8 2.4-.4 2.7l1 1.3c.6.9.6 1.2.5 2.1-.5 2.3 0 6 .9 7.3.5.9 8.7 8.8 10.2 10 .6.4 2.4 1.3 4.1 2a101.3 101.3 0 0 1 13.9 7c1 1 1.5 1 7.1 1l7 .1c1.3.2 2.8.2 4.7-.1zm35.8-.2c.8-.4.7-1.1-.5-2.3l-1-1.1-1.7.2a5 5 0 0 1-2.7-.3l-1.1-.4c-.3 0 .5 1.2 1.4 2 1.7 1.7 2.2 2 4.7 2.2.2 0 .7-.1 1-.3zm6.9-.9c0-.6-1-2.3-1.7-2.9-1.2-.9-1.7-2.4-1.3-4l.4-1.8c0-.4.1-.7.5-.8l1.5-.8 1-.7 3.2.4c3.7.5 3.5.5 3.5.2 0-.8-4.8-6.1-5.5-6.1-.7 0-2.1-1.2-2.1-1.8 0-.7.3-.8 3.3-1 2.3 0 2.8-.4 2-1a30 30 0 0 1-2.8-3c-1-1-1.6-1.5-2.6-1.8-.7-.3-1.4-.7-1.7-1-.3-.5-.6-.7-1.3-.7-1 0-1.7-.6-1.7-1.5 0-.6 1-1.5 3.4-3.1 1.9-1.3 1.4-1.7-1.2-1-1.2.3-2.2.7-2.9 1.3-.6.5-1.7 1-2.5 1.3l-4 1.7c-3 1.4-4 2.5-4.3 4.4a8 8 0 0 1-.5 1.9c-.7 1.4-2 5.5-2.4 7.3-.2 1-.4 3-.4 4.3 0 2.9.4 3.9 2 4.8l.8.5.4-.6c1.4-1.8 1.7-1.8 3.5-.7.9.6 1.7.9 3.8 1.2 3 .5 4.3.8 4.9 1 1 .7 2.1 1.9 2.6 3 .5 1 .7 1.2 1.3 1.2.5 0 .8 0 .8-.2zm-24.9-2 1-1h-.8c-.4 0-.7.1-.7.3l-.5 1c-1 1 0 .6 1-.4zm49.6 0 .7-.5c0-.2-.3-.3-2-.6-1-.3-1.5.4-.9 1 .4.5 1.4.5 2.2.1zm2.1-1h-.8c-.3.1-.1.2.3.2.5 0 .7 0 .5-.1zm-49.3-8.3c.3-4.4.6-6.4 1.1-7.7 2-5 2.1-5.7 1.5-6.2l-2.5-.4c-2-.2-2.2-.2-2.8.5-.6.5-.7.9-.7 2.2a56.9 56.9 0 0 1 1 11.7c0 4 .2 4.6 1.2 5.8l.6.6.1-1.6c.2-.8.4-3 .5-5zM346 138c-.3-1 0-1.6.7-1.6.8 0 2.5.9 3 1.5.2.2.6.4.9.4.5 0 .6-.6.1-1-.7-.7-2.2-1.7-3.7-2.5-.8-.4-1.5-1-1.6-1.3-.2-.6-.2-.7.8-1 1.2-.3 3.6.3 4.8 1.2 1.2 1 1.7 1.1 1.7.2 0-1.5-.5-1.9-3.4-3.3-1.6-.7-3.2-1.3-3.7-1.3s-2 .3-3.3.8c-1.9.6-2.7 1-3.3 1.6-1.5 1.6-2 3.2-1 3.2.8 0 1 .8.5 1.9l-.2 1c0 .2 1.2.2 2.6.2 1.3 0 2.8.2 3.3.4 1.6.6 2 .5 1.8-.4zm72.7-3.9c.4-.3.8-1.2 1.4-3.5l.9-2.4 1.4-4a52.8 52.8 0 0 1 3.3-8.7c0-.2.3-1.2.8-2.1.4-1 .8-2 .8-2.4 0-.4.1-1.2.4-1.8l.4-1.9c0-.4.2-1.2.5-1.7.3-.6.5-1.3.5-1.6 0-.8 1.3-3.3 2-4 1.5-1 2.5-5 2.5-9.8 0-2.2-.1-3.5-.4-4.3l-.7-2.4a33.5 33.5 0 0 0-6.7-11.2c-1.5-1.8-1.6-1.9-1.5-3.2v-1.4l-1.5-1.2a85.5 85.5 0 0 0-8-5.1c-1.6-.7-2.2-1.3-1.6-1.7.8-.4 1.5-.3 4 1 4 2 7 4 10.5 7.6 3.3 3.4 5.7 5 5.7 3.7l-.6-2.5c-.6-2.2-.5-3.4.2-3.4.5 0 1.2 1.2 1.4 2.7.3 1.5.6 1.9 1.2 1.7.7-.3.5-1.8-.5-3.8-.8-1.6-1.8-2.7-6-6.9a95.7 95.7 0 0 1-6.3-6.9c-1.5-2-2-2.3-7.2-3.9-2.2-.7-2.2-.7-2.6-.1-.2.3-.6.5-.8.5-.3 0-1.7-.9-3.2-2-1.4-1-2.7-2-2.9-2-.7 0-1.8.9-2.4 1.8-.5.8-.6 1-1.4.8-.8-.1-1.1 0-2 .6l-2.5 1.9c-.8.6-1.6 1.4-1.8 1.8l-1 2c-.6 1.5-1.6 4.3-1.6 4.8 0 .8-2 4.2-3 5.3-.6.6-1 1.3-1 1.7 0 .3-.3 1-.7 1.3-.6.7-.7.8-.3 1.8.3 1 .3 1.1-.4 2a30 30 0 0 0-3.2 7.2c0 .2.4.4.8.4s1 .2 1.3.5c1.3 1.1 4.3 3 5.5 3.4 2 .7 2.2 1.2 1 2.3-1 .8-1 .9-.7 1.6.2.4.6 1 1 1.3.3.3 1 1 1.3 1.6 1 1.4 1.8 1.8 3.8 2h1.3c-.2 0-.6-.5-.9-1-.2-.6-1.1-2-1.9-3.3a26.8 26.8 0 0 1-2.4-4.6c-.5-1-1.9-5.2-2.4-7.4-.3-1.2 0-2 .5-2.1.3 0 .9 1 1.5 3a38.2 38.2 0 0 0 7.8 14.8c.3.3.6.9.6 1.2 0 .5.2.6 1.4.8 3.3.4 3.8.3 5.2-1 1.6-1.6 1.9-2.5 1.2-4.1-3.7-8.6-5.7-23.4-3.5-25.7.4-.4.6-.5 1-.3.5.3.6.5.4 1.3-.1.9 0 1 .5 1.5.8.5.9 1 .2 1.7-.3.2-.7 1-.8 1.7-.3 1.6 0 3.4 1.3 10.1a12 12 0 0 0 1.4 3.7c.2.4.5 1.2.5 1.8l.1 1.4c.2.3.2.3.7 0 1.3-1 1.5-.6 2 3.8.3 3.6 1 6.1 2.2 7.3.5.6.6.6 1.2.2.6-.4.8-.3 2.6.5 2.2 1 4.2 2.8 4 3.6 0 .7-1.3.5-2.6-.5-1.5-1.2-2-1.4-2.9-.9-.4.3-1.2.4-2 .3h-1.2l-.3 1.3-.5 1.7c-.2.2-.5 1.8-.7 3.5-.4 2.7-.6 3.3-1.2 4-.8.8-1 2-.6 3.6.1.7.4 4.2.5 8 .2 6.4.5 10.1.9 10.7l-.1 1.1-.2.8 1.9.1a93.7 93.7 0 0 1 3.2 0zm-16.3-52.6a20.5 20.5 0 0 1-3-8.7L399 71c-.3-.2-.7.9-1 2-.3 1.5-.7 2.3-1.3 2.5-1 .5-1.4-.3-1.5-3.7 0-1.6 0-2.5-.1-1.9-.2 1.8-1.4 2.6-2 1.3-.2-.5-.2-1.1.3-3A99.4 99.4 0 0 0 395 60c.2-1.1.4-1.6 1-2.5.1-.2.6-.5 1-.6.8-.2 1-.1 1.4.3.7.6.7 1.6.2 4-.7 3.2-1 5.1-1 6.2.2 1.1.2 1.1.8.8.6-.3.7-.6.9-1.7.8-6.4 1-7.3 1.9-7.2.7.1.7.5 0 5.6-.4 4-.2 7.5.6 10.7.6 2.1 1 2.9 2 3.1.7.2 1 .9 1 2.1 0 1.6-1.3 2-2.4.8zm-132.5 35.6c.6-.7.5-1.7-.2-1.8-.8-.1-1.2-.6-1.2-1.4a26.6 26.6 0 0 1 3.5-7c0-.7-.7-.2-1.3.8-.6 1.2-1.5 1.6-2 1-.4-.5 0-2 1.7-5.3.9-1.7 1.8-3.7 2-4.4l1.7-6.2c.3-1.1.3-2.4 0-2.9-.2-.3-.3-.3-.8 0-.4.2-.6.2-1.1-.3-.5-.5-.5-.8-.4-1.7.3-1.8 0-4-.6-4.2-.5-.2-1.2-1.7-1.5-3.3-.2-1-.7-1.2-.7-.3 0 .3-.1 1-.3 1.4-.3.8-.5.9-1 .8-.8-.2-1-1.1-.8-4.1l.1-2.7-.7.2h-1c-.5-.2-1-1.7-1.4-3.6a17 17 0 0 0-1.3-3c-1-2-1-2.2-1.1-4.6v-2.7c-.1-.1-.6.3-1.2.9-.9.9-1 1-1.6.7-.6-.3-.7-.8-.1-1.3.5-.4 1.9-3.6 2.4-5.4.5-2 .2-3-1-4.7-1.3-1.6-3.7-3.1-5-3.1-.2 0-1.4.4-2.5 1-1.6.7-2.5 1.3-3.7 2.6-2.5 2.6-2.6 3-2.6 7.2 0 3.5-.3 4.6-1 5.1-1 .7-1.8-.2-1.8-2.3 0-3.7-.3-4.2-2.3-6.2-1-1-2-2-2.4-2-1.2-.3-2.7-4.4-2.7-7.4 0-.8-.3-1.1-1.8-2.5l-2.3-1.8c-1.4-.8-4.2-.1-5.8 1.4l-1 1v2.4c0 2.5.4 3.4 1.3 3.7.6.2 1.4 1.5 1.9 3 .2.5.7 1.5 1.2 2.1 1 1.2 1 2 0 2-.7 0-2.7-1.4-3-2a2 2 0 0 0-.5-.7c-.6-.6-.4.6.3 1.5 1 1.1.9 1.8-.2 2.1-.6.2-.9.4-1 .8 0 .9-.8 1.2-2 .9-1.5-.4-1.9-.2-2.2 1.1-.2 1-.1 1.2.5 2 .4.3 1.2 1.4 1.9 2.3a61.6 61.6 0 0 0 5.7 6.6l2.4 2.7c1.1 1 4.3 5.3 4.7 6.4.2.4.4 1 .4 1.4 0 .8 1.1 3.2 1.8 3.9.5.5.7.5 1.4.3.6-.3.9-.2 1.4.1 1.3.9 1.5 3 .6 5.4-.4 1-.4 1.7-.3 3.5.1 1.6 0 2.8-.2 4.2-.7 2.9-.6 5.2.1 6.3 1.2 1.8 1.3 2 1.1 2.9-.2 1 .7 2 3.3 3.6 2 1.3 2.3 1.4 4 1.3.8 0 .8 0 .7-1.2-.1-.6-.4-1.4-.6-1.7-.4-.7-.4-2.2 0-2.2.6 0 1.1 0 1.5.4.3.2.8.4 1.3.4.6 0 .8.2 1.2 1l.7 2c.1.7.4 1.3.6 1.5.2.1 1.4.4 2.7.5 5.5.7 7 1.1 7.8 2 .3.4.7.5 2 .4 1.5-.1 1.9-.3 2.3-.8zm-8-5.1c-.4-.5-.2-1.2.4-1.4.5-.2 1 .3 1 .9 0 .6-1 .9-1.4.5zm-2.7-2.8c-.2-.3-.7-.7-1-.8-1-.5-1.2-1.3-.6-2.5.8-1.7 2-1.5 2 .5v1l.8-.8c1-1 2.3-1.2 2.3-.3 0 .7-.4 1.5-1.4 2.6-1 1-1.6 1-2.1.3zm-6.5-.5c-.3 0-.7-.5-1-1.1-.8-1.4-.6-2 .7-1.8.5 0 1.2-.1 1.6-.3 1-.5 1.3-.2 1.5 1.4 0 .7 0 1.2-.2 1.4-.5.3-1.7.5-2.6.4zm11-9.7-1-.2c-.7-.2-1-.5-1.5-1.6-.8-1.9-.8-3.2 0-3.8.5-.3.8-.9 1-1.4 0-.7.3-1 1-1.1a5 5 0 0 0 1.6-.8c1.2-1 2.5-.5 2.8 1l.4 1.5c.7 2 0 4-2.2 5.7-.5.4-1.8.8-2.2.7zm-9.5-16.6c-.2-.5 0-1 .5-1 .4 0 .4 1 0 1.2-.3 0-.5 0-.5-.2zm-6.2-1.1c-.5-.6-.5-1.6 0-2.1.4-.3.6-.4 1-.1 1 .4 1.2 1.4.6 2-.6.7-1 .7-1.6.2zm3.4-2.6c-.2-.2-.3-.8-.3-1.5 0-1 0-1.2.7-1.6.5-.2.9-.7 1-1.2.5-1.7 2.2-.7 2.2 1.2 0 .9 0 1-.8 1.4-.4.3-.8.5-.8.7 0 .3-1 1.3-1.4 1.3l-.6-.3zm-1.7-8.3c-.2-.7-.2-1 .6-2.4.8-1.5.8-1.7.6-2.7l-.5-2.2c0-.6-.4-1.6-.6-2.1-.7-1.8.4-4 1.8-3.5.6.1 1 1.6 1 3.2 0 1.4.7 2 1 1 1-2.5 1.3-3.5 1.5-5 .3-1.5.4-1.6 1-1.7.6 0 .8.1 1.3.8.7 1.2.7 1.7 0 3.7-.6 1.5-.6 1.6-.1 3.1.4 1.5.4 1.7 0 2.5-.2.5-.8 1.4-1.3 2-.5.5-1.1 1.5-1.5 2.2-.5 1-.7 1.2-1.7 1.5-2 .5-2.8.4-3.1-.4zm-17.3-15.7c-.7-1-1.3-3.7-1-4.6 0-.2.4-.5.8-.6 1.3-.3 2.4 1.8 2.5 4.3 0 1.5-.3 2-1 2-.4 0-.8-.4-1.3-1zm90.8 52.3c.3-.4.6-.8.6-1 0 0 .4-.3.8-.3 1.5-.3 3.8-6.5 3.3-9 0-.5-.5-1.4-1-2-.8-.8-1-1-1.4-.7-.7.4-1 2.8-.6 4.4.3 1.3.3 1.3-.4 2-1 .9-1.6.6-3.5-1.7a11 11 0 0 0-2-2c-1.1-.6-1.6-2-1-2.7.5-.7 1-.5 2.5 1.2l1.8 1.6.6-1c.6-1.3.2-2.2-1.6-3.7a9.9 9.9 0 0 1-1.7-1.9c-.3-.5-.5-.6-2-.6-1.6 0-1.7 0-2.7 1.2-1.5 1.8-1.7 2.6-1.8 7.5v4.3l.8.7c.8.6 2 .9 1.5.3-.7-.9-.3-3 .7-4.7.8-1.2 1.2-1.5 2-1 .6.3.6 1.1-.2 2.1-.4.6-.7 1.3-.7 2.2l-.2 1.4 1 .1c1.6.2 2 .7 1.6 2-.4 1-.2 1.3.6 1.6 1.1.5 2.3.3 3-.3zm-6.6-2.7h-.5l.2.1c.2 0 .4 0 .3-.1zm53.5-12.7c.4-.5.8-1.1.8-1.3 0-.2-.4-.7-1-1.1-.6-.5-.8-1-.8-1.5 0-1 .6-1.3 2.3-1.3h1.3l.8-1.6.9-2c0-.2 0-.3.3-.4.3 0-.1-2-.9-4.6l-.2-1.4c0-1-.8-2.9-1.3-3.4-.4-.4-.4-1.3 0-2.2.2-.3 0-.5-.3-.6-1-.2-.7-.9.4-1.1 1-.3 2-1.4 2.4-2.7 0-.4.6-1.4 1.2-2.4l1-1.8a66.2 66.2 0 0 1 4.5-6.6c.2-.4.4-.7.6-.7l.3-.5.8-1.3a41.1 41.1 0 0 1 5.5-6.4c1-1 1.5-1.7 1.5-2.2 0-.8-.3-1-1-.7-.4.3-.5.2-.7-.5-.1-.5 0-1 .3-1.6.3-.8.3-1 0-2.2-.3-1.6-.6-2-1.2-2-.8 0-1.2-.7-1.7-2.8-.4-1.6-.6-2-1.1-2.3-.4 0-.9-.7-1.2-1.3L382 29c-.4-.5-1-1.5-1.1-2.1-.2-.9-.5-1.3-1.2-1.7-1-.6-1-.7-2.2-4.2-.6-2-.8-2.6-1.3-2.8-1-.3-1-.3-1 .8v1H374c-2 0-2.2 0-2.4-1.4-.2-1.3-1.2-3.6-2-4.4l-.9-1.4c-1.1-2.2-4.6-4-7.7-3.7-1.5 0-1.8.2-2.5.8-1 1-2.4 3.7-2.4 4.8 0 1 1 4 2 5.4 1.1 2 2.3 5.3 2.1 6.3-.4 2.8-.7 3.3-1.6 2.6-.5-.4-1.2-2.7-1.4-5-.2-1.6-.2-1.6-1-1.7-1-.1-1.4-.5-1.7-1.7-.2-.7-.5-1.1-.9-1.3-2.5-.9-7-1-8.2-.3-1.5 1-2.3 2.8-2.6 5.8-.2 1.3-.2 1.5.6 2.5 1 1.1 3.2 2.6 4.1 2.6.7 0 2 .9 2.4 1.6.4.8.5 2 0 2.3-.1.2 0 .7.3 2 .4.8.6 2 .6 2.4l.3 2.3c.2 1.3.2 1.5-.3 2.2-.4.5-.5.8-.2 1.4.1.4.2 1.2 0 1.8 0 .6 0 1.6.2 2.2.3 1 .2 1.3-.2 2-.5.8-.5 1.1-.3 1.7l.2 1.9c0 .8.2 1.5.6 2 .6 1 .6 1.6 0 2.2-.3.2-.6.6-.6.9 0 .6 1.2 3 2.6 5 .8 1.1 1.1 2 1.1 2.6 0 .7.4 1.2 2 3 2 2.1 2.5 3.2 1.7 3.4-.5.2-1-.1-2.4-1.5l-1.3-.9c0 .6 2.4 3 3.3 3.5 1.2.6 1.5 1 1.3 2.3-.1.9 0 1 1.5 2.7 1.6 1.6 2 2.9 1.2 2.9-.5 0-.5.3.2.9.2.3.8 1.1 1.2 2 .3.8 1 1.8 1.5 2.2.7.6 1.2 1.4 1.6 2.7 1.1 3 2.6 3.8 4 2zm-.4-18.4c-.2-.3-.6-.5-.8-.5-.5 0-.8-1.3-.4-1.7.6-.8 1.6-.5 2.3.5.5.8.6 1 .3 1.6-.3.8-.7.8-1.4.1zm-3.9-6.9c-.6-.3-.6-1 0-2 .7-1 1.6-1.2 2.3-.5.6.6.5 1-.3 2-.7.8-1.2 1-2 .5zm1.2-9.8c-1.2-.6-1.2-3.3 0-3.8.9-.4 3.7-.2 4.1.3.6.8.4 1.6-.7 2.7-1 1.2-2.1 1.4-3.4.8zm1.9-5c-2.6-1.2-3.1-2.4-1.4-3.3 1.6-.8 3.6-.2 4.3 1.4.6 1 .4 1.7-.5 2.1-.9.4-.8.4-2.4-.3zm3.5-7.8c-.7-.7-.5-4.1.4-5.6.5-1 .7-1.1 1.2-1 .4 0 1 0 1.4-.3.9-.4 1.6-.3 1.6.2l-.8 2-1 2.8c-.2 1.5-.5 2-1.5 2.2-.6 0-1 0-1.3-.3zm14.8-3.5.4-.5c.2-.1.2 0 .2.2 0 .3-.1.5-.4.5-.2 0-.3 0-.2-.2zm-8.7-1.4c-.4-.5.1-1.8 1-2.6.5-.6 1-.8 1.6-.8 1.1 0 1.2.4.2 1.5-.4.4-1 1-1.3 1.5-.6.7-1.3.9-1.5.4zm-25.5-.5c-.4-.2-.7-1.3-.5-1.9.3-.8 1.6-.6 1.7.3.2 1.4-.4 2.2-1.2 1.6zm2.3-1c-.7-.7-.6-1.9 0-2.3.7-.4 1.3.2 1.5 1.3.1.7 0 1-.4 1.2-.5.2-.7.2-1.1-.3zm-2.4-5c-.5-1.9.2-4.7 1.4-5 .8-.3 1 .2 1.4 2.3l.3 1.9-.7.7c-.4.3-.8.8-.8 1 0 .2-.3.3-.6.3-.5 0-.7-.2-1-1.1zm15.6-3.7a4 4 0 0 1-.2-1c0-.3-.8-1.3-1.7-2.4l-2.3-2.5c-.4-.4-.7-.6-1.2-.5-.8.3-2.9-1-3.6-2.1-1.3-2-1.5-2.5-1.3-3 .4-.7 1.5-.3 2.4.8 1 1.2 1.2 1.3 1.9.6.7-.6 1.4-.2 2.5 1.3.6.9 1.1 1.3 1.6 1.3s.8.4 1.1 1c.2.5.7 1 1 1 .3 0 .7.5.9.8.3 1 .6 4.1.4 4.8-.3.8-1.2.7-1.5-.1zM326 87.2c1-.9 6.2-3.8 7.9-4.4 1.2-.4 1.8-1.2 1.8-2.1 0-1 .7-1.6 1.8-1.6.4 0 1.2-.1 1.5-.3.5-.2.8-.2 1 0 .6.5.7.4.6-.5-.2-.8-.8-2-2.2-4.3-.5-.8-.1-1.4.7-1.1.7.2 2.6 3.2 2.9 4.5 0 .5.3 1 .5 1 .3 0 .4-.5.4-1.7 0-2-.8-4-2-5-.9-.7-.8-1.4.1-1.5.6 0 1 .2 1.7 1a7.4 7.4 0 0 1 2 4.2c.1 1.1.2 1.2 1 1.3l3.4-.4 4.4-.8c2-.1 2.2-.4 1-1.7-1.2-1.3-2.4-3-2.4-3.5 0-.2.3-.6.6-.8l.6-.4-.8-.9c-.9-1-1.6-2.6-1.8-4.2-.1-.6-.5-1.7-.9-2.5-.7-1.2-.8-1.3-1.8-1.3-1.6 0-7.7 2.8-9.3 4.2a3 3 0 0 0-.7 1.5c-.2 1.2-.6 1.4-2.2 1.7-.7 0-1.5.4-2 .9l-4 3.2c-3.7 3.2-4.6 3.8-5.3 3.8-1.2-.1-3.1 1.7-4.7 4.3l-1.3 2.1c-.8 1.2-1.5 3.3-1.2 4 .1.3.4.4 1.1.3 1-.2 5 .9 5.7 1.5.5.6.7.5 1.9-.5zm53.5-3.5c.5-.6 1.2-2.5 1.5-4.2 0-.7.6-2.4 1.1-3.7.7-1.8 1-2.7.8-3.3-.1-.9 0-1 1.3-2.4 3.8-3.9 4.2-4.4 4.2-5.2 0-.4.2-1.1.6-1.5.5-.7.5-.8 0-1-.5-.5-.3-1.1.6-2.7.7-1 .8-2 .3-2a51 51 0 0 0-9.5 10.6c-.7.7-1.5 2.6-1.5 3.4 0 .4-.4 1.4-.9 2-.8 1.4-.8 1.4-.3 2.3.4.8.9 5 .7 6.1 0 .3-.3.5-.7.4-.4 0-.6-.4-.9-1.3-.1-.6-.3-1-.3-.7 0 .2-.3.7-.6 1-.6.7-.6.7-.2 1.4.3.5.5.7.6.5.3-.5 1-.4 1.4.2.6.7 1.2.7 1.8 0zm-2.8-5.7c0-.6-.7-1-.9-.7-.3.4 0 1 .5 1 .3 0 .4-.1.4-.3zm-200.3-6.2 1.7-.5 1.7-.5 3.4-.9 4-1c1.3-.2 2.6-.6 3-.8.4-.2 1.2-.4 1.8-.4.5 0 1.2 0 1.4-.2.3-.2.3-.3 0-.7-.5-.4-.7-.4-1.7-.2l-2 .4c-.4 0-1.8.3-3 .7a69.9 69.9 0 0 1-6.9 2c-.4.3-1.6.6-2.6.8-2.5.5-4 1.1-4.1 1.7-.2.4.7.3 3.3-.4zm199.5-2.5c.1-.2.8-.3 1.4-.3 1.5 0 1.6-.2 2.7-2 2-3.4 2.3-3.7 3.7-5.2.8-.7 2-2 2.6-2.8l2.3-2.5c1.8-1.7 2.2-2.4 1.9-3.1-.2-.5-.2-1 .2-2 .7-1.8.7-2.1.1-2.7-.7-1-.8-.9-4.3 2.8a51.5 51.5 0 0 0-8 11l-1.7 2.7c-.9 1.4-2 3.5-2 4s.6.5 1 .1zm21.6-20.8 1.8-1.4c.5-.4.5-.6.3-1a11 11 0 0 0-4.3-2.2c-.8 0-1 .5-.6 2.2.6 2.6.8 3.4 1.2 3.4.2 0 1-.5 1.6-1zm3.8-5.2c0-1-.3-1.3-2.2-2-1.2-.3-2-.2-2 .5 0 .3.6.8 1.8 1.4l2 1c.2 0 .4-.4.4-.9zm-6.6-2.4c.4-.5.2-.8-.7-1-.5-.2-.6-.1-.6.3s.5 1 .8 1c.1 0 .4 0 .5-.3zm-19.6-23.7-.3-.5c-.4-.3-.4-.3-.4 0l.1.6c.3.3.6.2.6 0zm-26 223c-1-.9 0-2.3 1.2-2 1 .4.5 2.3-.6 2.3-.2 0-.5-.1-.7-.3zm33.7-33.7h.5l-.4.1c-.3 0-.3 0-.1-.1zM259 188.2c-.8-.1-1.4-.6-1.2-.9l1.9-.2c1.3 0 1.7 0 1.9.4.2.8-.8 1-2.6.7zm-16.4-3c-.7-.6-.7-1.3-.1-1.5.3 0 .6 0 1 .5.9 1 .1 2-.9 1zm4.6-8.4c-1-.2-1.7-.9-1.7-1.5 0-.9.3-1 1.6-.4s2 1.3 1.5 1.8c-.3.3-.5.4-1.4.1zm20.8-1.3c-.6-.4-.1-1 1.1-1.6 4-1.9 5.6-2 5.3-.7-.1.6-.8.9-5.6 2.4a1 1 0 0 1-.8-.1zm-21.4-5.2c0-1 2.4-1.8 4.6-1.5 1.3.2 2 .8 1.6 1.3-.5.4-6.2.6-6.2.2zm1.3-4.1c0-.4.2-.5 2.5-1 2-.6 2.8-.5 2.4.1-.5.8-5 1.6-5 .9zm50.6-6.2c-.4-1 .2-1.4 4.6-3 5-2 6.1-2.1 5.7-.7-.1.6-2.7 2-4.5 2.4-1.4.4-3.3 1.1-3.6 1.4-.4.4-2 .3-2.2-.1zm-12.3-.5c-.4-1.2 2.5-6 3.5-6s.7 1-.7 3.8c-1.2 2.3-1.6 2.8-2 2.8-.5 0-.7-.2-.8-.6zm-2.5-1.4c-.7-.3-.4-1.7.8-3.2 1.2-1.5 2.3-2.3 3-2 .6.2.3 1-1 2.7l-1.4 1.8c-.4.8-.7 1-1.4.7zm9-.2c-.5-.5 0-2.2.8-3.2.5-.6.7-.7 1.3-.4.7.2 1 .1 2.7-.8 1.1-.6 2.3-1 2.5-1 1.4 0 .6 1.8-1.3 2.8-.5.4-1.4 1-1.9 1.7-.6.6-1.2 1-1.6 1l-1.5.1c-.5.1-.8 0-1-.2zm12.8-15c-.3-.2-.2-1 .3-2l.6-1.4c0-.2.4-.6 1-1l1.5-1.1a2 2 0 0 1 1.2-.6c.5 0 .5.1.4 1-.2 1-.1 1.1.4 1.1l1-.2a8 8 0 0 1 2-.5l1.5-.1v.8c0 .7-.1.8-.7.8-1.8 0-7.2 2-8.3 3-.4.5-.7.5-1 .3zm-23.2-51.4.7-1.4 2-3c2.4-3.6 8.8-7.6 15.3-9.6 2.8-.9 3.8-.9 3.9 0 0 .4-.3.6-2.5 1.5a49.8 49.8 0 0 0-9.3 4.5c-1.8.8-5.4 4.1-5.4 5 0 .4.1.4.4.2.8-.8 1.3 0 .5.8l-.8 1.3c-.6 1.1-1.6 1.4-1.6.4 0-.8-.4-.9-1.2-.4-1.1.8-2 1-2 .7zm-6.8-4.6a60.2 60.2 0 0 1 15.1-21.7 30.5 30.5 0 0 1 6.8-5.7c1.6-1.3 3.4-2.3 4.1-2.3.3 0 .7.1 1 .3.7.6.3 1.3-1.5 2.4a86.3 86.3 0 0 0-20.6 21.5 80.4 80.4 0 0 0-2.4 4c-.5.8-1.9 2.2-2.4 2.2-.2 0-.2-.3 0-.7zM104.8.4c0-.2.2-.4.3-.4.4 0 .4.6 0 .8-.3 0-.4-.1-.3-.4z"/>
</svg>
