<?xml version="1.0" encoding="utf-8"?>
<svg xmlns="http://www.w3.org/2000/svg" xmlns:svg="http://www.w3.org/2000/svg" version="1.1" viewBox="0 0 582 294">
	<title>The two kittens emerge from the cupboard in the wall into the lit hallway.</title>
	<path d="M326.8 293.7c-.5-.2-.6-.3-.2-.3.2 0 .7-.3 1-.6.5-.6 1.7-.6 2.9-.1.4.2.7-.3 1.3-2.3.3-1 .5-1.2 1.1-1.2.6 0 .8 0 1 .6.5.9 1 .7 1.7-.4l2-2.6a12 12 0 0 0 1.5-2.6c0-.3.3-.7.4-.8l.2-1.4c0-1.4-.4-2.4-1.7-4.2l-1.2-2.4c-.3-.8-.8-2-1.2-2.6-1.9-3.2-3-8-3.1-13.8-.1-5-.2-5.3-2.7-9.8-.7-1.2-1.2-3.1-1.2-4.4 0-.6-.2-1.3-.8-2.1-1.3-1.9-2.4-4-3-6-.6-1.6-.7-2.4-.7-5.2 0-2.5-.1-3.6-.5-4.7-.4-1-.6-2.5-.6-4.9-.1-3-.2-3.5-.8-4.5a5.7 5.7 0 0 0-3.9-2.5c-1.4-.3-2.1-.8-2.1-1.7 0-1.4.8-1.6 3.3-.8l3.2 1c1 .2 2 .6 2.2.9.5.5.5.5.5 0 0-.4.3-.7.7-.9.6-.2.8-.2 1.2.2.3.2.5.6.5.8 0 .2.2.5.4.6.4.3.4.2.4-.5 0-1.9 1.6-2.4 2.8-1 .6.9.7.9 3.1 1 1.4 0 3 0 3.7.2 1.1.1 1.4 0 1.8-.5l1-1.5c.4-1.2 1-1.4 1.8-.5.7.9 1 1 1.6 0 .3-.4.6-.6 1.1-.5.6 0 .7.2.8 1v1l.6-.6 1.6-1.9a18 18 0 0 1 1.7-2 19 19 0 0 1 6.3-3.5c.4-.1 1-.5 1.5-1l.7-.6-.2-2.4c-.1-1.5-.4-2.8-.7-3.5-1-1.7.1-2.6 1.8-1.4.6.4 1 .5 2.4.5l1.7-.1.2-2.4c0-1.3.3-2.8.6-3.2l.4-1.3.1-1c.2-.6 1.5-.6 2 0 .2.2.6.3 1 .3.3 0 .7.2 1 .4.3.4.4.4.6 0 .5-.5.2-2-.6-3-1-1.2-1.2-1.8-1.2-2.9 0-.8-.6-2.2-1.8-3.7l-1.2-.3c-1-.1-1.1-.2-1.2-.9 0-.4.1-1 .4-1.3.3-.3.5-.9.5-1.8v-1.4h1c1.3 0 4 .8 4.6 1.2.2.2.3.6.3 1-.1.6-.2.7-1.4.8-1.4 0-3 .7-3 1.2s.5 1 1.3 1c.7 0 3 1 3.3 1.6.2.4 1.7-1.1 1.7-1.8l-.4-1.2c-.6-1-.5-1.6.3-2.4.6-.6.6-.7.2-1.2-.3-.3-1-.7-1.6-.9-1.5-.4-2-1-2-2.1.2-1.2 1-1.3 2.5-.5.9.4 1.6.5 2.5.5l1.2-.1-.7-.9c-.8-1-.9-1.2-.2-1.9 1-1 2.1-2.9 2.1-3.7v-.8l-1.7.2c-1.5 0-2 .2-2.5.8-.8.7-2.2 1.1-3.9 1.1-1 0-1.1.1-1.1.5 0 1-.3 1.4-1 1.4-.5 0-1-.1-1-.3 0-.1-.5-.3-1-.3-.3 0-1-.3-1.5-.6-1-.8-1.5-.7-2.7.4a15 15 0 0 1-5.8 1.8 17 17 0 0 1-2.8-.8c-1.3-.4-2.8-.8-3.6-.8-.6 0-1.3 0-1.4-.2 0-.2-.4-.3-.7-.3-.3 0-1-.2-1.4-.5-.4-.3-1-.5-1.4-.5-.3 0-.8-.4-1.2-.8-.6-1-.9-1-3.2-.4l-2.3.5c-1.1.2-2 1.7-3 5.7-.1.2-.2.3-.4 0-.4-.3.2-3.3 1-5 .4-1.2.3-1.5-.7-1.7-1.3-.3-3.2-1.2-3.6-1.8-.3-.5-.6-.6-1.5-.6-1.3.1-1.8-.2-1.8-1.1 0-.7-.6-.9-1.5-.3-2.2 1.2-5.1 3.1-5.5 3.6-.6.6-1.2.7-1.2.2 0-.6 3.3-3.3 4.5-3.7 1.1-.3 1.6-.7 1.6-1.2 0-.3-.2-.3-.8-.2-1.3.3-4.5 2-5.6 3-.9.7-1.1.9-1.3.6-.2-.3-.1-.6 0-1 .6-.7 3-2.3 4.8-3 2.7-1.1 2.7-1.5.2-1.6-2.2-.1-3.2-.8-3.4-2 0-.9-.1-.9-1-.7-.5 0-1 0-1.7-.4l-1-.6-1.2 1c-.8.8-1.4 1-1.5 1-.5-.5 0-1.4 1.6-2.8.9-.7 1.6-1.5 1.6-1.7 0-.2-.3-.4-.7-.5a6 6 0 0 1-1.6-.8c-.7-.4-.9-.8-1-1.8-.2-1-.3-1.4-1-1.9-1.8-1-1.9-3-.2-3 .8 0 2.5.6 2.8 1 0 0 .6.3 1.3.4 1.3.2 2 .9 1.3 1.5-1 .8.3 2.6 2.2 3.1 1 .3 1.3.3 2.8-.2 1.4-.6 2.2-.7 6.2-.8 4 0 4.6-.1 5-.6.4-.4.3-.5-.4-1.2-.4-.5-1.4-1-2.4-1.3-1.8-.5-2.4-1.3-1.6-2.1.5-.4.6-.4 2.7.6 1.2.5 2.6 1.3 3 1.6 1 .6 1.5.7 4.1 1 1.2 0 1.6 0 2.2-.4.3-.3 1-.5 1.4-.5.9 0 2.4.7 2.9 1.4.3.5.3.6-.2 1.4-.3.5-.5 1.1-.5 1.4 0 .6-.5 1-1.2.8-.8-.4-1-.3-1 .5 0 1-.5 1.4-1.8 1.2-1.7-.3-3-.9-3.3-1.5-.4-1-2.2-1.2-7-1a27 27 0 0 0-8 1c-1 .5-.8.8.4 1.2.6.3.9.5.9 1s-.3.6-1.4 1c-2.2.6-1.4 1 1.8 1 2.4 0 2.6.1 3.4.8l.8.7 2.3-.4c4-.5 5.4-.6 7.5-.2 2 .3 2.5.7 1.7 1.5-.3.4-.6.5-1.4.3-2-.4-2.3-.3-2.6.9a4 4 0 0 0-.3 1c.9.6 2.4 1 3.2 1 1.4-.2 2.2-.8 2.6-2.1.3-1 .4-1.2 1.3-1.2.8 0 1 .1 1 .8 0 .6 0 .7-1 1.2-2.2 1-2 1.2 1.4 2.4 2.7.9 3.5 1.4 4.8 3.3.4.7.5.7 2.5.6 1.8 0 2 0 2.4.6.6.9.8 1 1.8 1 .6 0 1-.1 1.2-.6.4-.5.7-.6 2.2-.7 1-.1 1.9-.3 2-.5l.7-.3c.3 0 .9-.4 1.3-.9.8-.7 1.1-.9 2.6-1a8 8 0 0 0 4.5-1.8c.4-.4.8-.5 1.4-.4 1.8.3 3 .3 3.7-.1.5-.2 1.7-.4 3.5-.4h2.7l.5-.8c.2-.4.6-.8.9-.9.9-.1 1.2-.5.9-1.1-.3-.6-.3-.6-3 0l-1.5.4c-1 .3-.4-.3.8-1 1.3-.6 1.2-1.2-.3-1.2-.5 0-1 0-1.1.2l-1.4.4c-.7 0-1.6.3-1.8.5-.3.2-1 .5-1.7.5-.9.1-1.4.4-2.2 1.2-.8.8-1.1 1-1.5.7-.6-.3-.7-1.3-.3-1.8.2-.2.6-.4 1-.4s1.1-.2 1.5-.4c.4-.2 1.2-.4 1.7-.4 1.1 0 1.4-.2 1.2-.7-.3-.6-2.6-.5-3.9.2-1.2.7-1.8.4-1.3-.5.5-.8.4-3.1 0-3.3-.7-.3-.6-1.6.2-2 1-.6 1.1-1.6 0-2.2-.5-.3-.6-1.4 0-1.8h1.7c2.4.2 4.6-.2 6.2-1.2 1.7-1 2.5-1.2 2.7-.5.3.7-.2 1.7-1 2.1-1 .4-1 .5-1 1.7.1 1.1 0 1.2-1 1.6-.6.2-1.5.7-1.9 1.1-.4.4-1 .7-1.4.8-.7 0-1 1-.4 1.4.2.2 1.6.5 3 .7 1.6.1 3.8.5 4.9.8 3 .8 3 .8 4.5.3 1.6-.6 2-1 1.3-1.3-.3 0-.6-.3-.6-.5 0-.5 3-3 4.7-3.7.9-.4 1.6-.8 1.7-1 .4-.5 3.4-1.8 4.4-2 1-.1 1.1 0 1.3.6v2.3c-.2.8-.2 2-.2 2.7.1 1.4.6 1.8 2.4 1.8h1l.2-3.3a80.5 80.5 0 0 1 .6-13c.1-1.3.7-1.6 1-.6l-.2 7.7c-.1 4-.2 7.8-.1 8.5l-.1 6.3a772.5 772.5 0 0 0-.8 15.1l-1 12c.3.8 0 1.4-.6 1.4-1 0-1-.7-.2-7.8.6-6.6 1-12.5 1.2-19.2.1-4.6.1-5.2-.3-5.5-.6-.5-3-.7-3.2-.3l-.3 9-.2 9.4-.3 8c0 3.8-.2 8.4-.4 10l-.3 8.4c0 7.3-.2 9.3-.8 9.4-.7.1-.8-1-.5-7a196.5 196.5 0 0 0 .6-14.3l.4-11.4.2-7.7h-1c-.6 0-1.5-.5-3.6-1.8-1.5-1-3.3-2-3.8-2.2-1.5-.4-3.7 0-5.6.8l-2 .8c-1 0-.8.8.4 2 1.2 1.4 1.2 1.4 1.2 3.2 0 2.2-.3 2.5-1.5 2.2-.8-.3-.9-.2-.9.5s-1.5 2.6-2 2.6c-.2 0-.3.7-.3 1.4a63.5 63.5 0 0 1-.1 3.6c0 1 .2 1.2.7 1.4 1 .4 1.3 1.1 1.1 4.2-.1 2 0 3.3.3 4.5.2 1 .3 2 .2 2.4-.5 2-1 9.1-1 14.9a28 28 0 0 1-.5 7c-.5.6-.7-.1-.7-2.9 0-1.5-.2-2.6-.4-2.8-.2-.2-.2-.5 0-1.3.6-1.8.8-4.6.9-8.3 0-2 0-4.2.3-4.9a9 9 0 0 0 .1-2.7 88.4 88.4 0 0 1-.5-7.4c-.1 0-.2.2-.2.6 0 .3-.2.9-.4 1.1l-.9 1.1-.5.7-.7-.6-.8-1.3-.2-.7-.3.6a4 4 0 0 0-.4 1.6 3 3 0 0 1-.5 1.7c-.3.3-.6.8-.6 1 0 .2-.3 1-.7 1.7-.6 1.2-.7 1.6-.8 4.6 0 1.8 0 5.9.2 9 .2 4.4.2 6.4 0 8.7a86 86 0 0 0 0 15.4c.3 1.6.3 2.2 0 4.8-.5 3.6-.4 9.7 0 10 .8.5 1.4.2 1.6-.8.7-3 1-8 .6-11.9a219.8 219.8 0 0 1 .5-28c0-2.3.1-2.8.5-2.8.3 0 .4.3.3 1.4a249.6 249.6 0 0 0 .4 22.4c0 6.4.3 7.5 1.1 7l.7-.5c0-.2.3-3.3.4-7 .3-7.8.4-8.6 1-8.1a317.3 317.3 0 0 1 0 26.9c-.4 1.2 1.6 2.3 2.4 1.3.2-.2.4-1.8.6-3.6l.6-6.6c.8-6.3 1-11.7 1-28.5.1-13.4.2-17.8.6-21.1.5-5 .5-5.1 1.1-4.6.5.4.4 1.4-.2 7a204.6 204.6 0 0 0 .3 27.7l-.6 13.8-.4 13.3-.1 3.2 1 .4a5 5 0 0 0 1.4.4c.3 0 .5.2.5.4 0 .3-.7.5-3.5.8-1.1.2-2.8 1-2.8 1.3 0 0 1 .2 2.3.2 1.8 0 2.5 0 3.1.5.7.4.8.4 1.1 0 .4-.5 1.2-.2 1 .4 0 .2-.4.4-.7.4-.3 0-.8.2-1 .5-.6.6-4.8 1.2-7.3 1l-1.8-.2 1.3.5c1.7.6 2 .8 2 1.4 0 .4-.2.5-.9.5a3 3 0 0 0-1.6.6c-.7.5-.8.5-2.4.2-1-.2-3.8-.3-8.9-.2l-8.4.2c-1 0-1.1 0-.8.4.3.4.8.4 3 .3l3.2-.2c1.5 0 8.8.4 9.3.6.7.2 1 1 .7 1.3-.2.2-.8.3-1.4.3-1 0-1.2 0-1.6.9-.7 1-1.3 1.4-2.3 1.4-.5 0-1 .1-1 .3 0 .1-.7.4-1.4.5a3 3 0 0 0-2 1.4c-.4.6-1 1.4-1.5 1.7-.6.5-.8.9-.8 1.6 0 1.3-.7 4-1.4 5.2-.8 1.3-5.3 4.4-7.6 5.2-.8.2-1.2.2-1.7 0-.7-.4-1-.4-2.4 0-1.6.6-2.8 1.4-2.8 2a25.8 25.8 0 0 1-3.5 6.8c-.7.4-.7.5-.7 2 0 1.2 0 1.5-.7 2.2-.5.5-1 1.1-1.1 1.5-.2.3-.7.7-1.3.8l-2.4 1c-1.3.6-1.5.6-2.3.3-.8-.3-1.1-.3-2.2.2-1.7.6-2.5.7-3.2.2zm19.1-20.2c1.6-1 3-3.8 2.7-5.4v-1.4c.3-.5.9-.4 1.3.3.6.9 1.3 4.3 1.1 5.2-.2 1 .3 1.3 1.7.7 1.8-.8 2-1.3 2.4-4.7.3-2.9.3-3-.3-4.5-.7-2-2-3-5-4.5a8.7 8.7 0 0 1-2.2-1.4c0-.2-.2-.2-.6 0-.7.4-1.4 0-1.4-.8 0-.3.3-1 .8-1.6a5.8 5.8 0 0 0 1.5-4c0-1.2-.3-1.6-1.4-1.7-1.1-.2-1.4-.8-1-2.2.4-1 .7-1.2 2.4-2a14.9 14.9 0 0 0 2-6.9c0-1-.1-1.3-1-1.3-.6 0-1-.2-1-.5a8 8 0 0 1 0-3.4l.9-1.8c1-2.2 2-3.6 2.9-3.6.3 0 .8.1 1 .3.1.2.3-.2.4-1.2 0-.9.3-2 .5-2.5s.4-2 .4-3.2c0-1.7.1-2.7.6-4.1l.9-3c0-.6.4-1.4.6-1.7.8-1 1-2.9.3-2.9-.2 0-1.2.9-2.3 2-2.5 2.2-3 2.2-3.2.4v-1.3l-.9.8a34 34 0 0 0-3.5 4.6c-.8 1-1.7 1.6-2.4 1.4-.4-.2-.4-.4-.3-1.6l-.1-1.5c-.6 0-1.1 1-1.4 2.7-.4 2.3-.8 2.7-1.6 1.7-.8-1-1.2-.8-2.3.8l-1 1.2c-.2 0-1 1.1-1.9 2.5-1 1.4-1.8 2.6-2 2.7-.7.2-1-.3-.7-1.3.3-.7.2-.8-.3-1a2.5 2.5 0 0 1-1.2-2c0-.3-.6-.7-1.1-.7-.6 0-1.8 4.3-1.8 6.6 0 1.6.7 4.7 1.4 6l.4 1.7c0 .5.2 1.3.4 1.8.5 1 .5 2.2.2 2.6-.2.1-.2 1 0 2 0 1.4.3 2 1 2.8a21 21 0 0 1 4 12c0 1 .2 2.6.4 3.4.4 1.2.4 1.6.1 3.4-.5 3.2 0 6.4 1.5 8.1l1.3 1.7c.5.6 1 .8 2 1 2.2.5 3.5.3 4.8-.7zm-4.4-36.3c-1-1.3-.3-3.4 1-3.4.6 0 .7.5.5 2.3-.3 1.7-.8 2.1-1.5 1.1zm2.9-2.3c-.5-1-.6-3-.1-3.4.6-.6 1.3-.3 1.7.6.4.8.4 1 0 2.2-.4 1.5-1 1.7-1.6.6zm16.5 10.8.6-2c.4-1.2.5-11.5 0-18.1-.1-4.2-.1-4.2-.8-4.2-.5 0-.6 0-.4.5.3.5.2 6.2-.2 13.1v5l-.2 3.4-.2 3.4c.1.2.4.2.6.2.3 0 .5-.5.6-1.3zm5.5-.4.4-1.6c.2-.4.5-1.8.6-3.1 0-1.3.3-2.9.4-3.5l.4-9c0-4.5.2-10 .3-12.4.2-5.1.2-13.9 0-15-.2-.7-1-1-1.7-.8-.7.2-1.6 2.6-2.6 7.6a91 91 0 0 0-.5 15.2 92 92 0 0 0 .4 13.8c.2.4.3 1.4.1 4-.2 3.5 0 4.5 1 5.3.8.6 1.1.5 1.2-.5zm-9.3-1c.6-.9.7-1.2.5-2.4 0-.7.1-4.6.4-8.6.5-7.3.5-7.6-.2-9.2-.7-1.5-.8-1.4-2 1.8-1 2.8-1.1 3.5-.3 4.2.6.5.6.6.4 2.5a66.6 66.6 0 0 0 .2 12.6c.1 0 .6-.4 1-1zm-20.5-27.6.2-1.1c-1.4 0-3.3 2.7-2.8 3.9.2.5.3.5 1.3-.5.5-.7 1.1-1.7 1.3-2.3zm23.3 1.6c.1-2.3 0-2.6-.8-2-.5.3-.6.6-.6 2 0 1.7 0 1.8.7 1.8.6 0 .6-.1.7-1.8zm1.4-6.8c-.1-.8 0-1.4.2-2l.7-2.1.7-2.2c.4-1 .4-1 0-2.2-.5-1.3-.5-1.3-.8-.6a4 4 0 0 0-.4 1.5c0 1-.5 2.8-1.1 3.8-.3.6-.3 4.4 0 5.1 0 .3.2.3.5.1.2-.2.3-.6.2-1.4zm-6-2.4c1-1.4 1-2 .4-2-.5 0-2.4 2-2.5 2.7-.3 1.7.6 1.4 2-.7zm18.2-26.3c-.2 0-.4-.3-.5-.4-.1-.2-.2-.1-.2.2 0 .2.2.4.4.4.3 0 .4 0 .3-.2zm21.6-15.7.2-6.3c0-6.4.2-6-2.8-6-2.1 0-4 .4-5.9 1.3-1.2.7-1.3.8-1 1.3.2.4.2.6-.3 1.1l-.6.6 1 .6c1 .6 1.2 1.5.3 1.9-.6.2-.5.2.3.8.4.3.8.7.8.9 0 .1.6.5 1.3.7 1.4.5 4.1 2.3 5 3.3 1 .9 1.5.8 1.7-.2zm-15.7-3.4c0-.6-.6-.7-1-.2-.2.3-.2.5 0 .7.4.4 1 0 1-.5zm15.8-10.6c.4-.4.7-4 .3-4.3-.2-.3-1.6 1.3-2.8 3.1-.6 1-.8 1.4-.5 1.6.5.3 2.6 0 3-.4zm-58.5-4.9c-.1-.2-.4-.4-.7-.4-.3 0-.5.2-.5.4 0 .3.3.4.7.4.4 0 .6 0 .5-.4zm-14.2 144.9c-.5-.2-1.5-.2-2.2-.1-1.2 0-1.5 0-3-1-2.4-1.7-4.3-4.4-4.3-6.2 0-.4-.3-1.5-.8-2.4l-1.3-3.9c-.4-1.9-.5-2.5-.2-5.2v-4c-.1-.9-1.3-2.7-2.8-4.3a8.7 8.7 0 0 1-1.7-4.8c-.2-1.5-.4-2.1-.8-2.3-1-.6-1.9-1.8-2.4-3.4-.4-1.2-.8-1.8-1-1.8l-1.4-.8-1-.8-5.9.1c-4.4 0-6.4 0-7.8-.3-2.3-.5-2.4-.4-2.6.2 0 .3-.4.5-.7.5-.3 0-.7.3-1 .9-.6.8-.6.8 0 1 .2.1 3.6.3 7.3.4 5.6.1 7 .3 7.2.6.5.5-.7 1.4-1.6 1.2-1.2-.3-7.8-.5-10.5-.3-4 .3-8.8 1-8.8 1.5 0 .2 1.8.4 5.7.7 3.2.2 3.7.3 3.5 1-.2.5-2.5.6-8 .1-3.6-.2-4-.2-4.6.2l-1.3 1c-.6.3-.6.4-.2.7.3.3 2.1.3 8.4.2h8.3c.2 0 .3.3.3.6s-.1.6-.3.7l-7.6.2a49.7 49.7 0 0 0-11.1.9c-2.3.2-3 .7-1.5 1l9.4.2h9.1c.3.2.5.4.5.7 0 1-.5 1.1-7.8 1-3.8 0-7 0-7.3.2-.1 0-.3.3-.3.5 0 .3.6.4 2.9.5 2.7 0 2.8 0 2.9.6.1 1-1 1.5-3.7 1.5s-6.3.4-6.7.7c-.2.2 0 .3.3.3.7 0 1.7 1 1.7 1.9 0 .7-.7 1.1-2.5 1.4-.6.1-1.6.4-2.2.7l-2.2.6c-.7.1-1.5.5-1.9.9l-2.6 1.8a7.3 7.3 0 0 1-4.4 1.3c-1.5.1-3 .4-4 .8-2 .8-3 .8-4.3.2-1.6-.9-7.3-2.6-13.8-4.2a980.2 980.2 0 0 1-25.7-6.6l-2.7-.8-3.7-1-4.8-1.2a216.6 216.6 0 0 0-12.4-3.4l-2.5-.6-5-1.5a255.2 255.2 0 0 0-22-5.8c-2.8-.4-3.6-.8-5.2-2-.5-.5-1-.8-1.7-.8-.6 0-1 0-1.2-.2a4 4 0 0 0-1.4-.5l-2.2-.7c-.7-.3-1.5-.4-2.3-.3-1.2.2-3.8-.3-5-1l-2.1-1c-3-1-3.4-1-33.2-1.4-3.6 0-5.3-.1-5.6-.4-.2-.2-.2-.3.1-.3l1.2-.1 8.3-.3 8.2-.2c.5-.1 1-.5 1.1-.8.3-.4.5-.5 2-.3 1.3.1 2.2 0 3.1-.3a15 15 0 0 1 3.5-.4c2.7 0 3.5-.3 3.5-1.3l.3-1.4c.8-2.1.8-2.5.4-4.5-.4-1.8-.4-2.6 0-8.6a185 185 0 0 0 .7-12.1c.4-.5.6-.5 1.2-.3.3.2.6.6.7 1 .1.7-.2 3.8-.6 5.6-.2.8-.3 3.3-.2 5.6 0 2.9-.1 4.5-.3 4.9-.2.4-.2.8 0 1.6l.2 2c0 1.2.3 1.7 1.7 3 1.1 1 1.4 1.2 3.6 2a286.4 286.4 0 0 1 10.5 3.9l1.1.8c.4 0 3.2 1.4 4.4 2.2a4 4 0 0 0 1.4.7l1.9.7c.8.4 2.4.9 3.4 1l3.7 1a146.7 146.7 0 0 0 11 3.7 181.9 181.9 0 0 0 19.6 5.5 395.5 395.5 0 0 0 15.6 4c4.5 1 7 1.6 8.1 1.6 2 0 4.3.4 6.8 1.4 3 1 3.5 1.7 2.6 2.6-.5.5 0 1 1.6 1.1l2.5.5 2.7.5 3.4.7 5 1c1.7.2 4 .6 5 1 1.4.4 2.1.5 2.2.3v-14.8c-.2-18-.2-26.2.1-31a1321.3 1321.3 0 0 0-1-76.7c0-.9.3-1.7.6-2 .4-.4.4-.5.1-1-.2-.3-.3-1.5-.3-4.7a1505.8 1505.8 0 0 1-.9-76.6c0-3.1 0-7.5-.3-9.8a104 104 0 0 1-.3-8v-9.9c0-8.8 0-9.3.7-10 .5-.5.5-.7.4-4-.2-3.7-.2-3.7-1-4.5-.5-.4-1-1-1.1-1.5-.3-1-1.2-1.2-3-.8-1.4.3-5.6.7-6.7.6-2.2-.1-4.6 0-5 .3-.4.2-1.4.1-3.6-.2-2.4-.4-3.9-.4-8.2-.2a98.5 98.5 0 0 1-16.4 0 89 89 0 0 1-15 0c0-.5 6.4-1 12.7-1 4 0 5.3 0 5.8-.4a4 4 0 0 1 1.7-.3c.5 0 1-.2 1-.3 0-.2.2-.3.4-.3s.4.1.4.3c0 .1.2.2.5.2s.5 0 .4-.4c-.1-.2-.5-.4-1.2-.4-.5 0-1 0-1.3-.2-.8-.6.4-.8 4.4-.8 4.3 0 4.8.1 4.8 1 0 .4.2.6.4.6 3 .1 20.7 0 25.6-.3l6.5-.3 1.3.7c.7.3 1.8.7 2.5.8.7.1 1.4.4 1.7.5.4.3 1.3.3 4 .1 1.9-.2 8-.3 13.5-.3h10.1l.8-.7A16 16 0 0 1 281 18c.9-.5 1.9-.4 2.6.1.6.4.7.4 1.2 0a20.1 20.1 0 0 1 5.1-2.2c1-.5 1.5-.5 3 .2 1.2.6 2.6.5 4-.2 1-.5 1.5-.4 2.2.3.6.7 1.6.9 1.9.4.2-.3 3-1.6 3.2-1.5.1.1 0 .4-.1.7-.4.6-.2.8.7.8.4 0 1 .2 1.2.4.5.6.5 2.6-.2 3.4-.5.7-.6 1.2-.2 1.2l.4.6c.2.6 1 .6 2.5.2a13 13 0 0 1 4 0c2.5.3 4.6.3 9.7 0a455.9 455.9 0 0 1 28-.6c3.5.1 4.4.2 4.4.5 0 .2-.3.4-.6.4l-1.8.4c-.7.2-1.8.3-2.7.2-1.1-.1-1.7 0-2.4.3-.7.4-1.8.5-6 .7-2.7 0-5.1.2-5.4.4-.3 0-.7.5-1 1-.3.7-.4 1.9-.4 8.6 0 10.4-.3 19.2-.7 23.7-.3 4.2-.1 20 .3 24.2.2 1.8.5 3 1 3.9.8 1.5 1.4 2.3 1.7 2l-.2-6.3c-.5-6.8-.6-10.7-.5-9.4l.3.8c.3 0 .9 1.4 1.1 2.8.2.7.4 4 .6 7.4.4 8.7.3 8.5 1.6 10 1.8 2.2 3.3 2.7 5.5 1.7 1.3-.6 1.4-.6 3.3-.3l2.5.6h1.2c.5 0 1.4 0 2 .3 1.3.4 1.4.4 2-.2.5-.5.8-.6 1.6-.5l1.6.6c.5.2 1.4.3 3.3.2 1.8-.1 2.6 0 2.7.1.1.2.6.3 1.1.3.8 0 1-.2 2.1-1.5l3-3.3 3.9-4a31.1 31.1 0 0 1 7-6.2c1.2-1 1.2-1.1 3.1-1.1 2 0 2 0 3.1 1 .7.7 1.4 1.6 1.7 2.3.3.6.8 1.3 1.1 1.5.3.3.6.8.7 1.2.1.8.5 1.9 1.6 4.8l.8 2.8c0 .6.4 1.9.8 2.9l.6 2.6.4 2.3c1 4 1.2 7 .7 9.3-.6 2.4-.6 3.2-.1 4.2.2.7.3 1.3.2 1.7l-.3 2.7c0 1.9-.2 2.4-1 4-.5 1.1-.9 2-.8 2.2l1 .4c1.4.2 1.5 1.1.5 2.7-1 1.5-1.3 2.4-.9 2.8.5.5.4 1.4-.2 2l-.9 1c-.2.4-.1.4.8.3 1.5-.3 1.8.2 1.6 2.3-.1 1.7-1 4-2.2 5.2l-1 1.3c-.4.7-.4.7.3.6.7-.1.9 0 1 .5.2.4 0 .7-.4 1-.3.3-.8.5-1 .5-.3 0-.8.3-1.1.6-1.6 1.5-3 2-3.4 1.2-.2-.3-.4-.3-1.2 0-2.9.8-3.3 1-3.6.8-.5-.3-.3-.9.4-1.3.6-.4.6-.6.3-1-.3-.3-.2-.4.7-1.2.6-.5 1.2-.8 1.4-.7.5.2.5 1 0 1.5-.4.4-.4.4.6.4.6 0 1 .1 1 .3 0 .5.8.3 1.4-.4.6-.6.7-1 .8-3.1 0-.9.3-1.3 1.6-2.7 1.6-1.8 2-2.7 1.1-3l-1.3-.5c-1-.6-2-.2-3.7 1.7l-1.5 1.6-2 .1-2 .2.7-.7.8-.9 2.3-3.1c0-.6-1-.6-1.6 0-.7.7-1.2.5-1-.5 0-.5-.1-1-.3-1l-.2-1c0-1-.1-1-1.2-1.3-1.8-.5-2-.5-2.6-1l-.6-.6-.5 1.6c-.2 1-.7 2.3-1.1 3-.6 1.1-.7 1.4-.4 2 .4.7 0 1.5-1.5 2.2-.7.3-1.3.8-1.4 1.2-.4 1.1-2.6 1.8-3.4 1.1-.2-.2-1-.3-2.4-.3-1.9.1-2.2 0-3.6-.7l-1.9-.8c-.2 0-.2.5-.1 1.8 0 1.4 0 2-.3 2.6-.6 1.2-1.4 1.5-2 1-.6-.7-.7-1.5-.2-3.7l.4-3.4c0-.7 0-2.5.2-4 .2-2.1.4-3 1.2-4.6 1-2 2.6-4 3.6-4h3.7c3-.1 3.5 0 4.4.4.8.5 1.4.6 2.7.5 1.4-.1 1.7 0 2.2.4.6.6.8.6 3.6.4 2.7-.1 3-.1 3.5.4.5.4.9.5 1.6.4 1.2-.2 1.4-.4 2.3-1.8.4-.8 1-1.3 1.5-1.5 1.5-.5 3-3 3.4-5.3.2-1 .2-2 .1-2l-1.3.1c-2.2.7-2.3.7-2.3.2 0-.3.3-.9.7-1.2 1-.9 3.3-5.7 3.3-6.7l-.4-3c-.2-1.2-.3-2.8-.2-3.6.1-1.5-.4-3-1.4-3.9a14 14 0 0 1-1.7-5.6c-.2-1.5-.6-2.8-1.5-4.6l-1.6-4.2c-.4-1.8-1.3-3.2-2.2-3.5-.4 0-.8.1-1.4.7l-2 1.3c-1 .4-1.5.8-2 1.7-.3.6-.9 1.3-1.2 1.6-.4.4-2.4 5.9-2.4 6.8 0 .6-1 2.6-1.4 2.6-.4 0-.4-1.2 0-3V92c-.2 0-.8.6-1.4 1.3-1.7 2-1.8 3.6-.2 7.1.4 1 .6 1.9.6 3 0 1.7.3 2.4 1 2.4.5 0 1-1.7 1.4-6.1.3-3 1-5.2 2.6-8 1.3-2.5 2.4-3.7 3.6-3.7.3 0 .8-.2 1-.5.4-.4.6-.5 1-.3.3.2.5.6.5.8 0 .3.3.6.6.6.6.2 1 1 .5 1.3-.2.1-.5.2-.6 0-.1 0-.6.3-1 .8-.6.6-.9.8-1.2.5-.2-.2-.4-.1-.7.2-.7.8-1 1.6-.8 2l-.3 1.8-.4 1.2h2.2l.1 1.3c0 .8.3 1.5.6 1.9l.6 1c.1.4.5.9 1 1.1.9.7 1 .9 1 2.1 0 .7.2 1.2.4 1.4.6.5.5 1.7-.2 3.2l-.7 1.6c0 .2.3.4.7.6.5.2.6.5.6 1.3 0 .6-.2 1.5-.4 2-.3.9-.3 1 .2 1.8.7 1.2.6 1.9-.6 3.8-.9 1.4-1.2 1.6-1.8 1.6-1 0-2.1-1-2.1-1.7 0-.4.2-1 .5-1.4.7-.8.7-1.4 0-2.3-.6-.7-.7-1.4-.4-2.7.2-1.1-.4-1.5-1.2-.7-.3.4-.7.6-1 .6-.4 0-.7-1.1-.5-1.6l.6-1.7c.3-1 .3-1.6 0-2-.4-.8-.8-.5-1 1-.4 2-.6 2.2-1.6 2.2-.5 0-.8.2-1 .5-.2.7-1.3 2.1-1.7 2.1-.6 0-1.2-1-1.4-2-.1-1 0-1.1.5-1.5 1.1-.7 1-1.1-.1-1.8-.6-.4-2-1.6-3-2.7s-2-2-2.2-2c-.6 0-1.1 1-1.1 2 0 .8-.7 1.7-1.3 1.7-.4 0-.3 1.3.2 2.8 1.3 3.3 1.4 4.4.6 5-.5.3-.5.4-.3 1.6.2.7.3 2.3.3 3.5.1 1.9 0 2.3-.4 2.5-.7.5-1.2-.2-1.7-2.5-.3-1-.5-1.7-.5-1.3 0 .3-.2.6-.3.7l-.8 1.2c-1.3 2.5-1.8 3.3-2.2 3.4-.9.1-1.2-.5-1.4-2.4 0-1-.5-3-.8-4.3-.5-1.7-.7-2.6-.5-3.3.2-1 .2-4.3 0-5.1-.2-.6-1-.9-1.7-.5-.4.2-.5.6-.5 1.8-.1 3.2-.5 4.2-2 4.6-.5.1-1 .5-1.2.7l-.4 4.5a14 14 0 0 1-.4 4.4c-.5.5-1.3.5-2 0a2 2 0 0 0-1-.4c-.6 0-1-.5-1.7-2.5-.3-1-.9-2-1.1-2.2-.5-.3-.6-.7-.6-1.6 0-.7 0-1.7-.2-2.1-.1-.8-.2-.8-.5-.4-.3.5-.4.5-.7 0-.3-.3-.4-1-.4-1.5 0-1.4-.5-1.8-1.1-.8-.3.5-.7.8-.9.8-.5 0-1 1-1 2.9-.2 2.8-1.8 3.6-2.4 1.2-.1-.7-.4-1.2-.5-1.2l-.6 1.2c-.3.7-.6 1.2-.8 1.2l-.8.1c-.3 0-.7.4-1 1-.8 1.4-2.3 2-3 1.2-.6-.5-.4-1.1.4-1.7.5-.4.8-1 1-1.8 1.2-4.4 1.7-5.4 3-5.4.9 0 1.3-.5 2.1-2.5.7-1.7 1.5-2.3 2.2-1.8.3.2.4.6.4.8 0 .4 0 .4.4 0 .5-.5 1.8-3.7 1.8-4.5 0-.8-.8-1.7-1.5-2-.5 0-.8.1-1.6 1.4l-1 1.4c-.2 0-.2-.4 0-1 .2-1.5-.4-1.4-1.7.2a10 10 0 0 1-1.8 1.8c-.4.3-1 1-1.4 1.8-1 2-2 2-2.3 0a3 3 0 0 1 .4-2.2c.5-.8.6-1.3.4-2a10 10 0 0 1 .1-4.1c.3-1 .1-2.5-.4-3.6-.4-.6-.3-.8 0-1.7l.5-1-1-2-1.3-2.9c-.2-.5-.7-1.1-1.1-1.4-.5-.2-1-1-1.4-1.5a9.4 9.4 0 0 0-4.5-4.4l-2-1-1.5 1c-2.4 1.7-2.9 2.1-2.9 2.4 0 .2-.3.7-.6 1l-1.7 2.4c-.5 1-1.1 2-1.4 2.2-.4.6-2 6.3-2.2 8.8-.2 1.6-.7 3.4-1.6 5.7a9.6 9.6 0 0 0-.7 3.6c0 1.4 0 1.7-.4 1.5l-.5-.1v-2.3c-.3-.4-.4-.3-.6.4-.3.6-.3 1-.1 1.2.2.1.3 1 .4 1.9 0 1.5 0 1.6 1 2.2.7.5 1.4 1.3 1.8 2.2.7 1.4.7 1.6.4 2-.4.3-.5.3-1.2 0-1-.6-1.3-.6-1.3.2 0 1.3 0 1.4-.5 1.4-.3 0-.6.2-.7.5-.3.6 2 4.9 3.3 6.3 3.3 3.7 3.3 5.4-.1 2.5-1.7-1.5-2-1.4-1.8.3.1 1.3.3 1.5 1.7 3l1.6 1.4.8-.4c.7-.3 1-.4 2-.1 1.8.5 2 .4 1.6-.5-.6-1.6.8-2 2.4-.8.5.4 1.5.9 2.1 1 1.6.5 1.8.7 2.2 2 .4 1.4-.2 2.6-2 3.7-.7.6-1.5 1-1.7 1-.2 0-.3.3-.3.6 0 .9-.5 1.2-1.7 1.2-1.4 0-2.7-.6-3.2-1.7s-2.3-1.7-2.3-.7c0 .6 1.5 2 3 2.7l1.6 1.1c.3.6 0 1.3-.4 1.3-.2 0-.5.3-.5.7-.2.6-.4.8-1.2 1-1.3.5-1.8.3-2.1-.5-.3-.5-.7-.7-2.3-1-1.7-.3-2-.4-2.3-1.3l-1.1-1.3-1.7-1.4c-.9-1-1-1-2-.9a6 6 0 0 1-2 0c-.9-.3-1.3-.3-1.8 0l-.6.3 1 1.2c1 1.1 1.3 1.7.8 2-.6.4-.2.7 1 .6 1.6 0 2 .3 1.8 1-.2.8-1.7 1.3-4.3 1.3-2.4.1-3.7.3-4 .7 0 .2.7.2 1.8.2 1.8-.1 2 0 2 .4 0 .7-1.5 1.4-3.2 1.5h-1.3l1.4.3c.8 0 1.8.2 2.2.3.7.2 4.4-.6 6.3-1.3 1-.4 1.1-.4 1.5 0 .6.5.2 1.3-.8 1.8-.4.3-1.4 1-2 1.7-.7.6-1.4 1.3-1.7 1.4-.4.2-.1.2 1 .3 1.1 0 1.5 0 1.7.4.3.8-.4 1.3-2.2 1.7-2.3.6-5.7 3.1-5 3.8.4.3 1.7.1 3.5-.5 1-.4 2-.7 2.3-.6.2.1.5.6.6 1 0 .5.3.8.6.8.7 0 1.3.3 1.3.7 0 .7-1.4.8-2.1.2-.5-.4-.6-.4-1.4.2l-1.5.9a32.3 32.3 0 0 1-2.8 1c-.6 0-1.5.5-2 .8-1 .7-1.9 2-1.7 2.3.2.3 2.8-1 4.4-2 .8-.5 1.5-.9 1.7-.8l1 .1c.5 0 1 .8.8 1.5 0 .3-.8 1-1.6 1.4-1 .6-1.5 1.1-1.7 1.7-.3 1-.3 2.5 0 2.7.2.1.4.5.6.8.2.7.2.7 1.4-.7 2-2.4 2.4-2.7 3.2-2.5.7.2.7 0 .2 2.5 0 .5 0 .8.3 1 .7.6.5 1.1-.7 1.8-1 .7-1.3 1.2-.6 1.7.5.4 3.2-.5 4.5-1.6 1-.8 1.3-.9 2-.6.4.1.5.5.3 2.5-.1 2 0 2.5.4 3.6l.7 2.3c0 .6.2 1.1.4 1.2l.4.6c0 .2.1.1.1-.3s.2-.9.4-1.2c.6-.8 1.1-.3 1.3 1.2l.3 1.5c.3.3 2.1-.9 2.4-1.4.7-1.3 1-1.4 2.5-1.3.8.1 1.7.4 1.9.6.6.6-.6 1.4-2.1 1.4-.7 0-1.5 0-1.8.2-.7.2-1.4 1.3-1.4 2.2 0 .8 1 2.9 1.5 2.9.2 0 .4-.5.6-1l.5-1.2c.3-.4 1 .5 2.1 2.9.6 1.2 2.5 3.3 3 3.3.2 0 .5-.3.6-.7 0-.3.5-1 .8-1.4.5-.6.8-1.4 1-3 .6-3 1-4 1.9-3.9.5 0 .6.3.6 1.6v2c0 .3.3.6.6.7.3 0 .5.3.5.6 0 .6 1 .3 2.3-.6.6-.3 1.2-.6 1.5-.6.7 0 1.3.7 1.3 1.6 0 1.1 1 2 2.7 2.2.8.2 1.7.2 2 .1l1.4-.2c1 0 1 0 1.3 1 .2.8.4 1.1.9 1.2.8.3 1.7 0 1.7-.5 0-.2.3-.5.5-.7.5-.2.6-.1 1 .4l.5.6.7-.8c.6-.7 1-.8 1.8-.8 1.2 0 2.5.8 2.5 1.6 0 .2-.5.8-1.2 1.3-1 .8-1.7 2-1 2 .4 0 .3.6-.1 1-.6.5-1.7-.2-2-1.2 0-.6-1-1.1-1.3-.8l-.2 2.3c0 1.1 0 2.2-.2 2.3-.1 0-.4 0-.7-.4-.4-.3-.6-1-.7-2.3-.2-2-.4-2.5-1.2-2.5-.2 0-.8-.3-1.2-.7-.8-.7-1.7-.9-1.7-.4 0 .4 1.6 3.5 2.5 4.7 2 3-.4 2.9-3-.2a18.9 18.9 0 0 0-4.3-4c-2.1-1.5-2.6-2.2-2.8-3.8 0-1-.2-1.2-.7-1.2-.5 0-.6.2-.8 1.2-.2 1.4-1.6 3.4-2.4 3.5-.5.1-.7-.1-1-.7-.5-1-1-.8-1.5.3-.4 1-1.2 1.5-2.1 1.5-.5 0-1.2-.6-3-2.3-2-2.3-2.3-2.4-3.3-2.4l-2-.3c-2.3-.8-5.5-5.3-7-10-.4-.9-.8-1.6-1-1.6l-1 .5c-.4.3-.9.5-1.2.5-.5 0-.6-.1-.6-.9v-1l-1.5.1c-1.6.1-1.7 0-2-2.2l-.2-1H300c-2.1.3-2.5-.1-2.4-2.9 0-1 0-2.5.2-3.1v-1.1c-.3 0-2.9 1.6-4 2.5-1.4 1.1-3 1.3-3.2.3-.2-1 .2-1.8 1.5-3.2.9-.7 1.3-1.4 1.3-1.8 0-.4.5-1.6 1.1-2.7.6-1.3 1-2.5 1-3 0-1.3 0-1.5.8-2.4 1-1 1-1.2.4-1.6-.2-.2-.4-.8-.4-1.4 0-1 0-1-.7-.9-1.1.4-2.1.3-2.7-.2-.4-.4-.4-.6-.2-1.2.3-.9 0-1.4-.7-1.4s-2.3-1.6-2.3-2.4c0-.8 1.1-1.3 2.4-1.1h2l1-.2-1.1-1.1c-.6-.6-1.1-1.4-1-1.7 0-.5.8-2.4 1.6-3.6.7-1 .5-1.8-.6-2.2-1.1-.3-1.5-.7-1.3-1.5.3-1 .8-1 2.3-.5.7.2 1.5.3 1.7.2.2 0 .4-.6.5-1.2.4-2.5 1-2.7 4.1-1 2.3 1.1 3.3 1.3 2 .3-.4-.4-1-.7-1.3-.8-.6-.2-1-.8-1.4-2.7-.2-.6-.5-1.1-.7-1.2-.2 0-.8-1-1.3-2.1-.6-1.1-1.2-2-1.4-2-.2 0-.3 0-.3.2 0 .5 1 4 1.3 4.5l.3 1c0 1-1 .7-2-.6-1-1.5-1.5-1.7-1.5-.6 0 .4.1 1 .3 1.3.4.7.1 1.8-.4 1.8-.2 0-.7-.5-1.1-1.2l-1-1.5-.9-1.2c-.7-1.3-1.1-1.9-1.6-1.9-.3 0-.3.2.2.6 1.2 1.4 3.6 6.1 3.3 6.9-.1.4-.2.5-.8 0-.9-.5-1-.5-1.2.5-.2.6-.4.8-1 1-.8 0-1 .6-.5 1l.2.6c0 1.3-4.1 0-7.1-2.4-1.4-1-2.4-1.3-2.4-.8 0 .3.9 1 1.2 1 .2 0 .5.3.8.6.2.3.7.6 1.1.7.4 0 .8.2.9.3l.8.7c.8.5 1 1 .5 1.4-.2 0-1 0-1.9-.2-1.2-.2-1.7-.2-2.2 0l-1.3.3c-.6 0-.9.3-1 .7 0 .9.9 1.2 2.6 1 1.6-.2 2.4.1 2 1-.3.4-3.8 1.4-4.4 1.2h-1.2c-.7 0-.9.3-1.1 1.1-.2.7-.2 1.1 0 1.5.2.3.1.7-.1 1.2l-.5 1c0 .3-.6.7-1.1 1a202.2 202.2 0 0 0-4.4 2c-.3 0-3.2 1.8-3.8 2.3l-1.4 1c-1.2.6-1.6 1-1.6 1.5 0 .7-1 1-1.8.7-1-.5-1.3-1.4-.9-2.5.2-.7.5-1 1.1-1.2 1-.2 1-.4 1.6-2.1.4-1.4.8-1.6 3.4-1.6 1 0 2.4-.3 3.3-.6l2-.5c.3 0 .5-.1.4-.3-.1-.2-1-.2-2.2-.2-2.6.1-3.8-.3-3.8-1.3 0-.4.2-1 .4-1.1.4-.3.7-.3 5.2.2 1.5.1 1.6.1 2-.8l.6-.9h-1c-2.5-.3-.3-3 2.5-3 .8 0 1-.1.6-.2-.4 0-.7-.2-.7-.3l-.6-.4c-.6-.2-.9-1-.5-1.7.2-.4.5-.6 1.3-.6h1l-.3-.9c-.2-.7-.2-1 .1-1.6.3-.6.3-.7-.2-1.2-.4-.5-.5-.8-.3-1.2.3-.7 1.3-.8 3-.3a4 4 0 0 0 1.7 0h.7l-1-.5c-.4-.3-1-.9-1.3-1.4-.4-.9-.4-1 0-1.4.5-.5 1.1-.5 3.1 0 .8.1.8.1.3-.4-.4-.4-.4-.8-.3-1.6.1-.7 0-1.2-.3-1.8-.3-.7-.6-.9-2-1.3-2.4-.5-2.8-.5-2.9.2 0 .5-.3.6-1.6.7-1.7 0-3.9-.5-5-1.3-.5-.4-.6-.7-.5-1.4 0-.7 0-1-.4-1l-.7-.4c-.7-1-3.8-3-4-2.8-.7.7 2 4.5 3.7 5.2.8.3.9.5.6 1-.3.5-1 .6-1.8.2a29 29 0 0 0-2.4-.8 31.3 31.3 0 0 1-3.5-1.2c-1-.2-3-1.8-3-2.5-.2-.8.3-1.3 1.2-1.3.7 0 .8 0 .8-1.2l.2-1.3c.2-.1.2-.6.1-1.2-.3-2 1.2-2.4 3-1 .7.7 1.2.7 1.2 0 0-.5 1-1.7 1.5-1.7s2.7-1 3.4-1.6c.4-.4 1-.5 2.3-.5 2 0 2.2-.3 1.2-1.7-1.4-2-2.9-3-3.2-2.2 0 .3-.3.3-.8 0-.6-.2-.7-.2-1 .4l-.3 1.3c0 1.5-1.7 0-2.9-2.6-.5-1.1-2-2.7-2.8-3-.5 0-.6 0-.6.6 0 .5.4 1 1.5 2 1.2 1.1 1.4 1.5 1.3 2 0 .3 0 1 .2 1.7.9 2.4.2 2.6-2 .6-2-1.8-2.7-2-2.5-.5 0 .5.3 1.2.6 1.4.5.6.4 1.7-.2 1.8-.3 0-1-.4-1.9-1.2-1.2-1.1-1.5-1.3-2.8-1.5-.8 0-1.7-.2-2-.3-1-.3-.8.8.1 1.8.7.6.8.8.6 1.3-.2.3-.4.5-.6.5-.1 0-.2.2-.2.5 0 .4.4.8 1.4 1.2 1.7 1 2.3 1.4 2.3 2 0 1-1.6.9-3-.3-.6-.5-1.3-.4-1.3.2 0 .2.3.4.8.4.6 0 .8.1 1 .8.4 1 .4 1.7 0 2-.3.2-1.5-1-1.6-1.7 0-1.2-.3 8.5-.2 10.3.1 2 .1 2 .7 1.9.8-.2.8-.7.1-1.2-.7-.5-.6-1.3.1-2 .5-.5 1-.6 2.5-.7 1.2 0 1.5 0 .7-.1-.7 0-1.2-.2-1.2-.3 0-.1-.3-.4-.8-.7-1-.6-1-1.7 0-2.2.7-.3 1.3-.2 4 .3 4.8 1 6.9 1.9 6.9 2.7 0 .2-.3.4-.6.4-1 0-2.4 0-3.1-.2-.6 0-.7 0-1 .9-.2.5-.8 1.2-1.4 1.7l-1.1.8.7.2c1.6.6 1 1.7-1 2l-1.4.4c-.3.2-2.8.8-3.2.8-.6-.1-.9 0-.9.7 0 .6.5.8 1 .4.4-.4 3.4-.6 3.8-.2.6.8-1.6 2.3-3.5 2.3h-1.3l.1 1.5c.1.8.3 3.5.3 6l.4 6.5c.3 2 .4 2 1.7 3 .4.2 0 1-.7 1.2-.7.3-.7.4-.7 2.4 0 1.4-.1 2.4-.4 3-.4.6-.4 1.3-.2 4.2l.2 4.9c.2 6 .5 11.5.7 11.5l.9-.7 1.1-.8c.3 0 .7-.5 1-.9.5-.9 1.9-2.1 3.7-3.3 1-.6 1.4-1 1.5-1.6 0-.4.3-1 .4-1.4.5-.8-.2-1-1-.2l-1.5 1.2-1.8 1.5c-1 1.1-1.7 1-1.7-.1 0-.5.4-1 1.4-2 .7-.7 1.5-1.3 1.7-1.3.1 0 .5-.2.7-.5.3-.3.6-.5.8-.5.7 0 3.3-2.5 3.3-3.2 0-.7 1-1.7 1.3-1.5.5.3.2 3-.4 3.9-1 1.5-1.4 3.7-.8 3.7l.7.4c.3.3.2.5-.4 1l-.9.7c-.5 0-1.4 3.7-1 4.3l.2.8c0 .8-1.8 3.2-2.8 3.7l-.9.7c0 .2-.5.7-1 1.3-1.4 1.4-1 2 .6.9 2.7-1.8 3.4-1.8 2.3.2-.5 1-.6 1.4-.4 1.6.3.3 3.6-2.6 4.5-4.1.3-.4 1.1-1.4 1.8-2 .8-1 1.3-1.8 1.5-2.5l.9-3c.4-1.1.7-2.4.7-2.9 0-1 .3-1.8 1.2-2.7.3-.4.7-1 .8-1.4.1-.7 0-.7-.7-.7-1 0-1-.6-.3-1.6.3-.4.5-1 .5-1.8s.2-1.3 1-2.1c.4-.6 1-1.5 1-2 .3-1.5 1.6-2 3.1-1.1.4.2 1.4.4 2.1.5 2.4.3 2.7.5 2.6 1.7 0 .8-.2 1-1.2 1.3-2.6 1-2.5.8-1.9 1.4.4.4.5.6.2 1-.2.2-.1.3.6.4 1.4 0 1.2.9-.4 1.7-1.6.8-1.8 1-1.6 1.6.3.8.7.8 1.6.3 1-.6 1.7-.5 1.7.3 0 .3-.6.9-1.6 1.6l-1.7 1 .9.5c1.3.6 1.5 1.3.6 2l-1.5 1.2c-.9.8-.8 1.3.2 1.3.4 0 .9.3 1.1.7.4.6.4.8 0 1.7-.4 1-.3 1.9.1 1.9.2 0 .4.2.5.5.3.4.1.7-.8 1.7-.8 1-1.3 2-2 4.2-.6 1.6-1.2 3.8-1.4 4.8-.2 1-.5 2.2-.8 2.6-.5 1-.9 3.4-.6 4.2l.2.6.3-.6c.2-.4.5-1.3.6-2.1l.6-2.3.3-1.5c0-.5.2-.8.7-1.2a3 3 0 0 0 1.1-1.2c.3-.8 1.1-1.4 1.4-1 .4.3.2 1-.6 2.8l-.8 2.3-.4 2.3c-.5 2-.4 3.1.2 2.2.4-.5.6-1.4 1-3.3 0-1.2 1.1-2.4 1.7-2.2.5.2.5.7 0 4.5l-.7 5.4c-.2 1.9-.2 2.5 0 2.8.3.3.5.3 1-.4.4-.4 1-1 1.5-1.2.6-.3.8-.6 1-2 .4-1.8 1.3-3 2-2.3.5.4.5 1.5 0 3.4s-.5 3 0 3c.6 0 1.2 1.1 1.3 2.8.2 3.3.4 4 1.3 4.8 1.4 1.3 1.5 1.2 1.5-3.4.1-4.1.1-4.1.8-4.5.5-.2.7-.2 1 .1.6.5.5 1.7-.2 4-.5 1.8-.1 3 1.4 3.7.7.3 1.4 1 1.9 1.7.8 1.3 1.6 1.6 2.5 1 .5-.3 1.3.2 1.3.8 0 .3.3.7.7 1 .7.4.7.5.5 2.2-.1 1.3 0 1.8.1 1.8.5 0 .4 2.3-.1 2.8-.4.4-.5.4-1.1 0l-1.4-1c-.3-.4-.8-.7-1-.7-.5 0-.4 1.3.2 2l.6 1.4c.1.4.5 1.3 1 2 .4 1.2.7 1.5 1.3 1.5.5.1.7.3.8.9 0 .4 0 .9-.2 1-.2.2-.3 1-.3 1.9v1.6l.7-.7c.6-.6.6-.6 1-.1l.4.7.6.4c.3.1.8.8 1.2 1.5.5 1.1.6 1.2 1.8 1.3 1.6.2 3.3 1.8 3.3 3.3 0 .3.4 1.2 1 2 .9 1.5 1 1.8 1 3.6 0 1.6 0 2.2.5 3 .3.5.7.8 1 .8 1.8-.5 2-.4 2.5.6.2.6.7 1.3 1 1.6.5.7.8 1.5.4 1.8-.3.3-1.8-.4-2.3-1.3a3 3 0 0 0-1.4-1c-.5 0-1.3-.4-1.7-.7-.5-.2-1-.4-1.3-.3-.5.1-1.6-1.6-2.3-3.7-.4-1-.5-1.2-.6-.8-.3 1-1 1-1.8.1-.5-.4-1-1-1.2-1.6-.5-.9-2.3-2.2-3-2.1-.4 0-.4.4-.3 1.5 0 1.3.2 1.6 1 2.5.6.5 1.4 1.1 1.9 1.3 1 .6 1 1.1 0 1.4-.7.1-.8.2-.5.5.2.2.6.4.9.4.9 0 1 .3.4 1l-.6.5.7.5 1.4 1c.6.5.6.6.5 1.4-.2.9 0 1.2 1.5 3.5 1 1.4 1.9 3 2 3.6.3.6.6 1.4.9 1.7l1.4 3.5c.9 2.4 1 2.9.8 4l-.3 5.5c0 3.7 0 4.3.5 5.6.3.8 1 1.9 1.4 2.4.5.6 1 1.3 1 1.6 0 .8.3 1.1 1.4 1.4.5 0 1 .3 1.2.5.1.2.4.4.6.4l.7.4c.2.2.8.4 1.3.4 1 0 1.1-.1 1.7-1l.8-1.6c.2-.7 1-.8 2-.2.7.6.7 1.6-.1 2.1-.4.3-1 1-1.2 1.7-.8 1.7-1 1.8-2.7 1.4zm-72.7-15c1.5-.5 2-.8 3.3-2l1.5-1.6-.2-1.8c-.2-2.1-.2-2.7.2-18.4.4-16.7.4-16 0-21.8-.5-6-.5-16 0-23.7.2-3.8.2-8.6 0-17-.2-13.5-.3-19-.4-39a340.8 340.8 0 0 0-.7-21.9v-5.4l-.4-8.6c-.7-18.9-.7-21.9-.5-29.1.3-10.8.3-16.9-.1-20.1-.3-2.6-.4-2.8-1-3.3l-.8-.6.8-.1c.8-.1.8-.2.9-2 0-1.7 0-2-.6-2.4-.3-.3-1-.7-1.7-.8l-2.2-.7c-.9-.2-1.1-.2-1.7.2-.5.3-1.1.4-2.1.4l-1.5-.1v.8c0 1 .4 1.2 1.9 1.5.9.2 2.4 1.3 2.4 1.9 0 .2-1.3 0-2.7-.3-1.5-.3-2 1.1-1 2.4.6.7 2.4 1.5 4.7 2.1 1.4.4 2 1 1 1-.4 0-.8-.2-.8-.3-.1-.1-.6-.3-1.2-.3-.5 0-1.4 0-1.9-.2-1.7-.5-2.9.3-1.9 1.2l.7 1c.2.8 1 1.3 2.3 1.5 1.1.2 1.4.8.3.8-.5 0-.9-.1-1-.3-.2-.3-2-.3-2.5 0-.3.2-.3.4.1 1.2.5.9.5 1 0 1.4-.4.5-.4.7-.2 1.3.2.7.3.7 2 .8 1 0 2 0 2 .2.3.3-1.4.7-2.2.5-1.2-.2-2 .6-2 1.9 0 1 .8 1.7 2.2 1.7.5 0 1 .2 1.3.4.2.3.2.4-.4.6L244 81c-1.3-.4-1.8.1-1.6 1.5l.2 1c.7.1 1.5.6 1.5.8 0 .2-.3.5-.8.6-.5.2-.8.5-.9 1-.2 1 0 3.2.5 3.7.2.2.2.7 0 1.7-.4 1.6-.4 1.2-.4 8.3a559 559 0 0 1 .7 52.6c.4.5.4 1 .3 2.5-.4 3.3-.4 4.2 0 9.3.5 5.2.6 11.2.6 34 0 11.6.1 12.5.5 13 .5.4.5 1.4-.1 3.4-.3 1-.3 11.5 0 13.8.2 1.1.1 2-.1 2.9-.3 1-.3 1.3 0 1.8.2.4.3 1 .2 1.8-.2 1.6 0 2 1.5 2 .9 0 1.2.1 1.2.4 0 .5-.8 1-1.8 1-.8 0-1.6.5-1.6 1.1 0 .6.4.9 1.3 1 .6.2 1 .4 1.1.6.2.5-.7 1.2-1.4 1.2-.3 0-.6.2-.8.5-.3.3-.3.4.1.7.3.3 1 .4 1.7.4 1 0 1.8.5 1.4 1 0 .2-.7.4-1.5.5-1.6.2-2 .5-2 1.5v.7h2.2c2 0 2.5.2 2.2.9-.1.3-.7.4-2 .6-2 .2-2.4.4-2.1 1.2 0 .4.3.5 1.7.5 1.7 0 2.6.3 2.4 1-.1.2-.6.3-2 .3-1.6 0-1.8 0-2 .6-.3.3-.3 1-.2 1.5.1.7.2.8.6.7 1.7-.8 3.5-.2 2.5.8-.3.3-.7.4-1.7.3-1.2-.1-1.3 0-1.3.6 0 .4.3 1 .5 1.5.7 1 .7 1.8.1 2.4l-.8 1.2c-.4 1-.4 5.3 0 5.8.2.3.9.5 2 .5.8.1 1.8.3 2.1.6.6.4.6.4.2.8-.4.4-.8.5-2.1.3-1.3 0-1.7 0-2 .3-.6.7 0 1.6 1.5 2 1.7.5 1.8 1.3.2 1.7-1.3.3-1.7.6-1.7 1.2 0 .4.2.5 1.2.5 2.2-.1 2.4.9.3 1.6-.8.2-1.4.6-1.4.8 0 .2.4.6 1 1 1 .4 1.3.4 2 .2.4 0 1.5-.4 2.5-.7zm-5-13c0-.5.1-.6.7-.6 1.1 0 1.6.3 1.5.7-.1.2-.6.4-1.2.4-.9 0-1-.1-1-.6zm1-2.6c-.3-.4 1.2-.8 2.3-.5l.8.2-.7.3c-.9.5-2.3.5-2.5 0zm3.4-199c-.3 0-.5-.2-.5-.3 0-.3.2-.3 1 0 .5.2.2.5-.5.3zm-32 207.8c-.2-.6-4.2-1.7-6-1.7-2 0-1.9.2.3.9 3.8 1.1 5.9 1.4 5.7.8zm47.3 0c-.2-.2-.7-.2-1 0h1zM204 268c-.1-.2-.4-.2-.7-.1-.3 0-.5 0-.5-.2 0-.1-.5-.3-1-.3-.7 0-1.1 0-1.1-.2s-.4-.3-.8-.3c-.6 0-.6 0-.1.2.3 0 .6.2.6.3 0 .2.5.3 1 .3.6 0 1.1.1 1.1.2 0 .3 1 .6 1.4.4.1 0 .2-.2 0-.3zm-8.2-2c0-.1-.3-.2-.5 0h.5zm77-8.3 1.3-.2-2.1-.2c-5.8-.5-7-.5-7.7 0-1.3.8-.8.9 3.2.8 2.2-.1 4.5-.2 5.3-.4zm3.8-3.6c0-.3-.2-.4-.5-.5-4.7-.3-5.8-.2-5.8.5 0 .3.5.4 3.1.4 2.7 0 3.2-.1 3.2-.4zm1.3-.3h-.6c-.2 0-.1.1.2.1l.4-.1zm-14.2-3.7c1.8-.5 2.2-.8 2.6-1.7.3-.9.2-3.4-.3-4.3-.3-.6-.3-2 0-2.2 1-.6 2.2 1 2.6 3.7.5 2.7 1.5 3.1 3.7 1.7 1.1-.8 1.3-1 1.8-2.7.4-1.6.4-1.8 0-3-.2-.9-.7-1.9-1-2.4-.7-1-2.5-2-3.8-2-.9 0-1.3-.1-2.3-1.2-1-1-1.2-1.3-1.2-2.2a9 9 0 0 0-.7-2.6l-.7-2.1c0-.3-.3-1.7-.8-3-.6-2-.8-3.1-1-6.5l-.4-5a3 3 0 0 1 .2-1.8c.4-.7.4-1.3.3-2.8l-.3-1.4c0 .4-.2.6-.4.6l-.3 1.3c0 1.2 0 1.2-1 1.3-1.6 0-1.6 0-1.6 1.2a49.4 49.4 0 0 0-1 15l-.2 14.7a13 13 0 0 0 0 3.7c.3 1.3.6 1.7 1.9 3 1.2 1.1 1.6 1.4 2 1.2.4 0 1.2-.3 1.9-.5zm33.6-.2c2-.3 2.3-.7 1-1.3-.8-.3-2.2 0-3.9.6-.4.2-1 0-1.7-.3-1.3-.5-1.7-.4-2 .6 0 .5 0 .7.4.8.6.2 4 0 6.2-.4zm-8.8 0c0-.5-.6-1-1.2-1s-1 .4-.7 1c.2.4 2 .4 2 0zm22.5-2.2c0-.3-.2-.8-.5-1-.4-.5-.4-.5-.5 0-.1.5.5 2 .8 1.8l.2-.8zm-3.3-3.3c-.4-.3-.4-.3-.4 0s.1.6.3.7l.3 1.1c0 1 0 1 .1-.2 0-.8 0-1.3-.3-1.6zm-19.5 1c0-.7 0-.7-.7-.7-.5 0-.7.3-.8.7 0 .4 0 .8.2.9.6.3 1.3-.3 1.3-1zm7.7.8c.1-.6 0-1.1-.3-1.3-.4-.2-1 .2-1 .7 0 .7 1.3 1.3 1.3.6zm-12.2-.5c0-.4-.1-.5-.6-.5-.6 0-.9.5-.5.9s1.1.1 1.1-.4zm-156.4.1h-1c-.4 0-.2.1.4.1h.6zm168.6-4.5c0-.4-.1-.6-.5-.6-.7 0-1 .7-.6 1.2.5.5 1.1.2 1.1-.6zm-4.2-.3c0-.5 0-.6-.3-.3a1 1 0 0 0 0 .7c.2.6.3.4.3-.4zm7-7.3c.2-.3.4-.7.4-1 0-1.2-2-6-2.6-6-.6 0-.5 1.3.1 2.1.7.8.8 1.6.2 1.8-.2 0-.8-.3-1.3-.8-.8-.8-1-1.1-1-1.8 0-.8-.2-1.4-1.2-2.9-1.2-1.6-1.4-2.1-1.2-2.8.1-.7 0-.8-1-1.4l-1.5-.6c-.4 0-.4.7 0 1l.2.5.8 1.6c.5.7.8 1.6.8 2 0 1.4 2.3 5 4.5 7.4 1.3 1.4 2 1.6 2.7.9zm-4.1-10.5c-.5-.3-.7.2-.2.8.3.3.3.3.4 0 0-.3 0-.7-.2-.8zm-7.5-8.8-.9-3.3c-.3-1.4-.5-1.8-.7-1.6-.5.4.5 5 1.3 6.3.7 1 .8.3.3-1.4zm-3.4-4.2c0-1.1-.5-1.7-1-1.1-.3.3-.3.5 0 1.2.4 1 1 1 1-.1zm-8.4-7.6c0-.3-.3-1.5-.7-2.6a8.3 8.3 0 0 1-.6-2.6 22 22 0 0 1 2-5.1 6 6 0 0 0 .7-1.6l.7-2.2.5-1.5-.7-.2c-.4 0-.8-.2-.9-.4-.2-.3-.6.1-1.6 1.8a24 24 0 0 0-3.1 8c-.4 1.7-.5 2-1 2-.4 0-.5-.1-.4-1.5 0-1.8.7-4.5 1.4-5.9.3-.6.5-1.3.5-1.6 0-.6 0-.6-.5-.2-.3.3-.8.9-1 1.4-.4.9-1.4 1.2-1.4.4 0-.4 2.7-6.3 3.7-8.1.1-.3.3-.9.3-1.4 0-.9 0-1.1.7-2.4.5-1 .4-1.8-.1-1.6l-.6.2c-.2 0-.4.8-.7 4.1-.2 1.2-.3 1.5-.8 1.6-.4 0-.8 0-1-.2-.8-.6-3.5 3-4 5.5-.2.8-.1.8.6 1 .6 0 .7.1.7.7-.2 1.7-.4 3-1 3.8l-.5 1.5c0 .5.1.5 1 .1 1-.5 1.5-.2 1.2.7-.2.4-.4.8-.6.9-.5.3-.3 1.4.4 1.7.4.2.8.6 1 1.1 0 .6.3.8.5.8 1-.3 3-.5 3.2-.3.3.3.7 2 .7 3.1 0 .5.2 1 .4 1.2.2.3.4.2.6-.6l.4-1.6zm-9.8-10.7c.4-.7.3-.7-.2-1.1-.4-.3-.6-.7-.6-1.4 0-.5-.1-.8-.2-.6 0 .3-.3.8-.5 1.3-.3.6-.4 1.3-.2 2.1.1 1.1.2 1.2.7.8.3-.2.8-.7 1-1.1zm-7.7.1c0-.3-.2-.7-.4-1-.3-.3-.4-.2-.4.6 0 .7.1 1 .4 1 .2 0 .4-.3.4-.6zm4-1.9.2-2c0-.5 0-.6-.3-.3-1.4 1.5-2 3.4-1.2 4.2.4.4.8-.2 1.2-1.9zm11.9-4c0-.2.1-.4.3-.4l.2-.4c0-.4 0-.4-.3-.1-.8.8-1.5 2-1.5 2.6 0 .6 0 .5.6-.3l.7-1.4zm-14.9-1.4c0-1 0-1.2-.1-.7 0 .5-.2.9-.4.9-.3 0-.3.5.1 1l.4.3v-1.5zm56-1c-.2 0-.5-.1-.8 0-.3 0-.3.2 0 .7l.5.8c.4.3.6-1 .2-1.4zm-36-1.6c.6-.5 1.2-2.6 1.2-3.7 0-.6-.4-.5-2.3.5l-1.8.8-.1 1.4c-.2 1.5 0 1.6 1.4 1.6.7 0 1.2-.1 1.6-.6zm-16.6-2.5c1.5-1.5 2-2.4 2-4 0-1-.6-1-1.8.4-.9 1-1.1 1.4-1.1 2.1 0 .5-.2 1-.3 1-.4.3-.3 1.3 0 1.3.2 0 .7-.4 1.2-.8zm46.4-5.4c0-.3-.1-.4-.2-.4-.2 0-.3.1-.3.4 0 .2.1.4.3.4l.2-.4zm-32.8-2.5.9-.7.8-.4h-.8c-.6 0-1 .2-1.3.7-.3.5-.3.6 0 .6.2 0 .4 0 .4-.2zm2.8-5.4c.4-.2 1-.5 1.1-.7.3-.2.2-.3-.5-.3-.5 0-1 .2-1.3.6l-.5.6c0 .2.5.1 1.2-.2zm91.4-27.6 2-1c3.2-.8 3.7-1.6 3.9-6v-3h-1.6c-1 .1-1.8 0-2-.2-.7-.5-4-.4-5 .1-.5.3-1 .4-1.3.4-.7 0-1.7 1-2.1 2.1-.3.6-.5 2-.5 3.4 0 2.7 0 2.7 2.5 4.3 1.5 1 2.5 1 4 0zM368 134c-.5-.6-.6-.9-.5-1.8.2-1.5.6-1.8 1.3-1 .7.6 1.3.7 1.8 0 .5-.5 1.4-.3 1.5.4 0 .4-.2 1-.9 1.8-1.1 1.4-2.2 1.6-3.2.6zm-59.2 3.1-.1-1.3c0-.7-.2-1-1-1.3-1-.5-2-.6-2-.2 0 .2.7 1 1.4 1.7 1.3 1.5 2 2 1.7 1.1zm1-4.2c-.6-.5-1-.5-.6 0 .2.2.5.4.8.4.3 0 .3 0-.1-.4zm81.7-.6c.2-.4.2-1 0-1.2-.1-.4-.2-.4-.7 0-.7.4-.8 1.1-.3 1.6s.7.4 1-.4zm-103.5-.6c0-.5-1.5-1.6-2.5-1.8-1.5-.2-1.1.6.7 1.4 1.6.7 1.8.8 1.8.4zm105-2.8c-.1-.1-.4 0-.7.4-.8 1-.6 1.3.2.5.4-.4.6-.8.5-1zm-104.6-3.3c0-.1-.3-.3-.5-.3s-.4.2-.5.3c-.1.2.1.3.5.3s.6-.1.5-.3zm1.6-2.1c.1-.2-.3-1-1-2-1-1.4-1.2-1.6-2-1.6s-1-.1-2-2c-.7-1.3-1.6-2.6-2-3l-.8-.8v.7c0 .3.4 1.4.8 2.2.4 1 1 2.3 1.2 3.1.3 1.3.6 1.7 1.4 2.2 1.8 1.1 4 1.7 4.4 1.2zm-8-3.4c-.4-1-1.8-3.1-2.5-4-.7-.6-1-.8-1.9-.8-1 0-1.2-.2-2.4-1.6-1.4-1.7-1.8-1.8-1.4-.5.2.5.4 1.3.4 1.8.2.7.4 1 1 1.3l2.5 1.7a24 24 0 0 0 4.3 2.6v-.5zm-9-.8c.7-.3.7-.3.4-1.3-.3-.8-.7-1.2-2-2-2.8-1.7-3.1-1.5-1 .8.7.8 1.3 1.8 1.4 2.1.2.7.3.7 1.3.4zm78.6-2.3c.2-.3.2-.8 0-2l-.5-4c-.2-3.3-.2-3.5-1-3.9-1-.4-1.1-.4-1.3.8-.3 1.5-.6 2-1.3 1.5-.5-.2-.6-.2-1 .3-.5.6-.5.7-.1 1.5.2.6.4 1.4.4 1.9 0 .6 0 .8.3.7.2 0 .2-.5.1-1.2s0-1.1.3-1.6c.7-.8 1.6-.5 2.7 1 .9 1.3.9 1.3.4 3.8-.3 1.4.2 2 1 1.2zm-46.5-2.3a59.6 59.6 0 0 0-.1-17.3c-.4-1.5-.3-2 0-4 .9-3.9.9-3.8.4-3.8-.7 0-1 .8-1.3 3.1-.1 1.6-.1 2.4.1 2.7.2.2.2.7.2 1.2l-.6 3c-.5 3-.6 15.2-.1 15.8.4.5 1.2 0 1.4-.7zm-19.5-1.6c-.1-.2-.2-.1-.2.2 0 .3 0 .4.2.3v-.5zm-3.2-.7c.6-1.5.5-1.7-.1-1.8-1.2-.2-1.8 1.4-1 2.4.6.6.7.6 1.1-.6zm18.7-9.9c0-5.6 0-10.3-.2-10.4-.3-.3-1.5.4-1.5.9l.4 2.1c.2 1 .3 2 .1 2.4a52 52 0 0 0-.8 6.5c0 1 .6 5.7.9 7 .2 1.2.7 2 1 1.8v-10.3zm-22 5.5-1-1.2c-.7 0-.4 1 .6 2.1.8 1 1 1.1 1 .8.1-.3-.2-1-.6-1.7zm8.1-1.5c0-.7-1-2.5-1.2-2.2-.2.2.8 2.8 1.1 2.8l.1-.6zm9.9-1.6-.3-3.8c-.2-.9-.3-2.1-.3-2.8 0-1.3-.5-2.1-1.2-1.9-.4.2-.4.6-.3 3l.3 4.6c0 1.4.1 1.8.7 2.4 1 1.1 1.2.9 1.1-1.5zm81.9 1.4c0-.2 0-.3-.4-.2-.2 0-.5.2-.5.4-.1.2 0 .3.3.3s.5-.3.6-.5zm-22.2-3.7c-.1-.3-.4-.5-.6-.5-.4.2-.3 1.7.3 3.1l.5 1.2v-1.6c0-1 0-2-.2-2.2zm-100.2 2.3c0-.5-.5-.7-1-.5-.6.2-.4.8.3.8.4 0 .7-.1.7-.3zm28-.9.7-.4-1.1-1.1c-1-1-1.3-1.2-2.4-1.3-1 0-1.3 0-1.4.4 0 .3.1.8.4 1.2.3.5.5.6 1.3.5.8-.2 1-.1 1.3.5.5.8.5.8 1.3.2zm67.7-.4c-.1-.2-.2-.1-.2.2 0 .2 0 .4.1.3v-.5zm-91-.3c0-.5-1.5-1.8-1.9-1.6-.2.2 0 .5.7 1.4.6.6 1.2.7 1.2.2zm120.7 0-.1-.2-.3.3v.3c.2 0 .4-.2.4-.3zm-112.3-1.6c-.6-1-1-1.3-.8-.5.5 1.1 1.3 2.2 1.4 1.8 0-.2-.2-.8-.6-1.3zm8.5-1.3c-.1-.2-.5-.5-1-.7-.7-.2-.9-.2-1 .1-.2.6.1 1.5.8 2.4l.5.7.4-1.1.3-1.4zm-4-.4c0-.3-.4-1-.6-.8-.2.2.2 1 .4 1s.3 0 .3-.2zm34.7-1.2.3-.9c.3-.2.3-2 .3-5.8 0-5.1 0-5.5-.5-6l-.5-.5.6-1c.8-1.2 1.2-3.4.6-3.4-.2 0-.6.6-1 1.4-.5 1.4-.5 1.8-.5 9.4 0 7.1 0 8 .3 7.7.3-.2.4-.6.4-1zm-47.5.3c.1 0 .2-.5 0-.8 0-.5-.3-.8-1.1-1-.6-.1-1.3-.5-1.7-.8-.6-.5-.7-.5-.7-.1l.3 1c.2.3.2.7 0 1.2-.2.6-.2.8 0 1 .5 0 3-.2 3.2-.5zm12-.8c0-.5-.7-1.4-.9-1.2 0 .1 0 .5.3.9.5.7.7.8.7.3zm14.9-1.6c.5-1 .8-1.3 2.3-1.9l2.1-.7c.3 0 .3-.1 0-.6-.4-1 0-1.4 1.7-1.9.8-.2 1.7-.6 2-.8.3-.4.3-.5-.2-1.2-.5-1-.3-1.6.7-1.6.7 0 2.4-.9 3.4-1.8.6-.5.7-.8.6-1.5-.2-.7 0-1 .6-1.9 1.1-1.4 1.2-2.1.6-3.4-.6-1-.6-1.2-.2-1.9.2-.4.5-1 .5-1.4.1-.4 1-1.5 1.9-2.5.9-1 1.7-2 1.8-2.3l1-.9c1.7-.8 2.5-2 1.3-2-.3 0-.6-.2-.8-.5-.2-.4 0-.7.9-1.8 1.5-1.6 2-2.4 2.3-4.7.1-1 .6-2.8 1-4 .8-2.9 1.6-7.9 1.6-10 0-2.5-1.2-4.9-2.5-4.9-.6 0-.9.5-.9 1.4 0 .3-.2.8-.5 1.2-.3.3-.4.8-.4 1 .1.4-.3 1-1.3 2-1.2 1.2-2.4 3-4.2 5.9-.4.5-.7.7-1.4.7s-.9.1-1.1.8c-.2.6-.5.8-1 .8-.6 0-.8-.2-1-.8-.4-1-1-1-1 0-.1.3-.3.6-.4.5-.3-.1-.3-.8 0-1.8.1-.4 0-.6-.2-.6-.5 0-1.5 1.2-1.5 1.8 0 .8-.8 1.7-2.3 2.5-1.1.5-1.2.6-1.6.2-.4-.4-.4-.5 0-1.4.2-.4 1.3-2 2.5-3.5 1.1-1.4 2.4-3 2.7-3.7.4-.6 1.8-2 3-3.2 1.3-1.1 2.3-2.1 2.3-2.2 0-.4-1-.3-2.5.3-1.3.4-1.7.5-2.4.2-1.2-.4-2 0-3.9 2-.8.8-1.6 1.5-1.8 1.5-1 0-4 2-4.7 3.3-.4.6-.9 1-1.6 1.2-.7.2-1.3.6-2 1.4-.5.6-1.5 1.4-2.2 1.8-.7.3-2.3 1.3-3.5 2.1-1.2.9-2.3 1.6-2.5 1.6-.4 0-2.3 1.3-2.3 1.6 0 .6 1.6.1 3.2-.9 1.5-1 2.4-1.1 2.4-.5 0 .2-2.8 2.4-3.1 2.4-.1 0-.6.4-1 .9-.8.7-1.2.8-2.2.8-.7 0-1.6.2-2 .4-2.5 1.5-3.9 2.5-3.9 3 0 .3 1.5.2 2.5-.2l.9.1c.6.4-.3 3-1.2 3.5-.7.4-.8.4-1.9.5-.4 0-.5.2-.5.9l-.4 1.8c-.5 1.1-1.7 1.8-3.2 1.8-1.3 0-2.5.3-2.5.6 0 .2.3.5.8.8.7.4.7.5.5 1-.2.3-.8.6-1.5.8-1 .2-1.3.5-2 1.7a9 9 0 0 0-1.5 4.5c-.2 1-.5 1.7-1 2.2-.9 1-.8 1.9.2 2.8 1.2 1 1.3 1 1.6.2.1-.5.4-.8.6-.8.7 0 .7-.6 0-1.4-1-1.3-1-1.8-.4-2.3.4-.3.5-.6.5-1.8 0-1.2.2-1.6.7-2 .5-.6.8-.7 1.4-.5 1 .3 2.4 1 3.5 1.8.8.6 1.3.7 3.5.9 2.6.1 3.1.3 3.1 1.2 0 .6-1 1.4-2 1.5-1.1.2-2.9 1-3.1 1.5-.1.2-.7.5-1.3.8-.5.3-1 .7-1 1l-.5.8c-.3.2-.6.6-.5.7 0 .5 3.6 4.1 4.2 4.1.7 0 .7-.6 0-1s-.7-1.8 0-2c.3-.1 1.2 0 2 .1.8.2 1.5.2 1.7.1l.2-1c0-1.3.2-1.5 1.6-1.3 1.2.1 1.3 0 1.4-.4.2-.7.8-1 3.8-1.5 3.6-.6 7.3-.1 6.6 1-.1.1-.6.2-1.5 0-.8 0-1.3 0-1.3.2l-.6.7c-.6.4-.8.4-2 0-1.8-.6-2.2-.6-3 .2-.3.4-.7.7-.9.7-.2 0-.3.1-.3.3 0 .2.6.2 2.2.1 2 0 4.6.3 5.1.7.3.4-.3.7-1 .6-1.3-.3-3.5 1-2.6 1.6.4.3.3.9-.3 1-.3.1-.9 0-1.3-.2-.6-.3-1-.4-1.2-.2-.5.5.4 1 2.6 1.5 3.9.7 5.5.8 7.2.3 1.4-.5 1.5-.5 2 0 .8.9 1 .8 1.8-.5zM274.7 87c-1.4-1 .2-2.5 1.8-1.7.5.3.7.6.7 1.2 0 .7-.1.8-1 .9-.5 0-1.1-.1-1.5-.4zm18.7-1.2.4-.2c.2 0 .5 0 .6.2 0 .2-.1.3-.4.3-.3 0-.6-.1-.6-.3zm-7.8-2c-.5-.4-.9-.8-.9-1.1 0-.7.5-.7 1.2-.2.7.6 1.4.5 2.1 0 .7-.6 1-.6 2.7 0 1.2.3 1 .7-.6 1.1-2.6.7-3.6.7-4.5.1zm-12.2-1.6c-.6-.2-.4-1.5.3-2.2 1-1 3.6-5.8 3.9-7.1.6-2.8 1.7-4.1 4.9-5.7 1.3-.6 3.6-.8 4.6-.3a26 26 0 0 1 7.3 6.1c.8 1.5 1.5 1.8 3.5 1.4 2.1-.3 2.6-.3 2.8.2.1.4 0 .7-.5 1.1-.6.5-1 .6-2.5.6-1 0-2-.2-2.4-.4-1-.5-1.5-.2-3.5 2l-2.4 2.7-.7.7-2.5-.1c-2.2-.2-4-.7-5.8-1.7-1-.6-3.3 0-3.8.9-.3.5-2.2 2-2.6 2l-.6-.2zm15.4-3.3c1.2-.5 1.5-.8 2-1.7l.6-1.1-.6-.6c-.4-.4-.5-.7-.3-1l.7-.7c.7-.3.4-1.1-1-2.8l-1.3-1.6h-3.1a20 20 0 0 0-3.8.3c-.6.2-2.2 2.2-2.6 3.2-.1.2 0 .8.2 1.4.2.5.3 1.5.3 2.2 0 1 .1 1.2.9 1.5l1.5.8c.4.2 1 .4 1.5.4l1.3.3c.7.3 2 .1 3.7-.6zm-6-2-.4-2.4c-.2-2.6 0-2.8 2-2.2 1.3.4 1.5.6 1.6 1.2 0 .5-.2.9-.7 1.4-.4.3-1 1-1.1 1.5-.5 1-1 1.2-1.3.5zm9.8 4.6c-.2-.4-.2-.5.4-.7 1-.4 2-.3 2 .1 0 .2-.4.5-.8.7-1 .3-1.2.3-1.6-.1zm3.5-2.6c0-.2.3-.5.7-.7.6-.3.6-.3.6.3-.1.7-1.3 1-1.3.4zm-26-4.8c-.3-1 .4-3.2.9-3.3.4 0 .4 0 .3 1.3-.2 1.7-.5 2.6-.9 2.6l-.4-.6zm-2.3-.6c-.4-.2-.4-1.3 0-1.7.3-.2.5-.2.7 0 .4.5-.2 1.8-.7 1.7zm35.7-3.8c0-.8.6-1.9 1-1.9.7 0 .2 2-.6 2.2-.3.1-.4 0-.4-.3zm-30.2-1.6c0-.6 1-1.9 1.5-1.9s.5 0-.4 1.4c-.7 1.1-1 1.3-1 .5zm28 .3c-.1-.2.2-.8.6-1.5.5-.6.9-1.6 1-2.1.1-1 .7-1.3 1-.5.2 1.4-2 5-2.7 4zm-11-4.7c-1.1-.4-1.1-.5-1-1.3l.2-1H287c-2 0-2.6.2-3.3.6l-.9.6-.1-.6c-.1-.3-.3-.5-.5-.5-.7 0-.4-1 .5-1.8 1.1-1 2.6-1.3 3.4-.7.3.2.8.4 1.1.4.3 0 .8.1 1 .4l1.2.4c.8 0 1.5.7 1.1 1.1-.2.2 0 .4.6.6.5.2 1 .6 1.3 1 .3.6.3.7 0 1-.5.3-.7.3-2.1-.2zm4.6-.2c-.3-.8 0-1.2 1-1.2.7 0 1 .1 1.1.4.3.5 0 .9-1.1 1-.7.2-1 .1-1-.2zm7.4-.2v-1.2l.2-1.4v-1c.2-.5.4-.6 1-.6.7 0 .8-.1.8-.9 0-.5.3-.8.6-.9.4 0 .4.2.4 2 0 2 0 2.2.6 2.4.7.2.6.5-.1 1-1 .6-1.5.2-1.5-1 0-.4-.1-.6-.2-.3 0 .2-.3.9-.6 1.3-.4 1-.9 1.1-1.2.6zm7-3-.1-2.5c0-1.8 0-2.2.3-2.4 1.3-.6 1.5 1 .6 3.5-.5 1.4-.7 1.8-.8 1.3zm-8.5-.8c-.7-.4-.7-1 .1-2 1-1 2-.4 1.7 1.2-.2 1-.9 1.3-1.8.8zm-30.4 36.5c0-.5-.7-.8-1-.5-.5.5.2 1.5.7 1.1.2-.1.3-.4.3-.6zm2-2c.1-.1 0-.2-.5-.2s-.7.1-.7.4c0 .5 1.1.4 1.3-.1zm3.5-.7h-.5c-.2.1-.2.2.2.2.2 0 .4 0 .3-.2zm20.4 0h-.5c-.2.1-.2.2.1.2.3 0 .5 0 .4-.2zm9-7.3c-.1-.2-.2-.1-.2.2 0 .3 0 .4.1.3v-.5zm-41.5-.1c0-.5-1.4-1.2-1.6-1-.5.5 0 1.2.8 1.2.5 0 .8-.1.8-.2zm50-2.9c0-1.6 0-2-.4-2-.8 0-1.2 2.5-.6 3.8.6 1.2 1 .4 1-1.8zM252 58c.2-.1.4-.4.4-.7 0-.2.1-.5.3-.6.1-.1.3-.7.2-1.3 0-1 0-1.2-.8-1.7s-.8-.6-.3-.6c.3 0 .7-.2.9-.5.1-.3.2-3.2.2-7.3 0-3.8.1-9.2.3-12.2.3-7.7.7-6.8-4-9.2l-4.5-2c-.6 0-.8.6-.6 1.6.2 1 .8 1.3 2 1.3.8 0 1.6.6 1.6 1.2 0 .4-.7.6-2.4.7-1 0-1.2.2-1.3.6 0 .3.1.4 1.2.4 1.4 0 3.5.9 3.5 1.4 0 .8-.7 1-2.4.9-1.4-.2-1.8-.1-2 .2-.7.7 0 1.3 1.4 1.5 1.3.2 1.8.6 1.6 1.3 0 .3-.5.4-2 .5-1.4 0-2 .2-2.3.6-.4.4-.4.6-.1 1.2.2.6.4.7 1.1.5.9-.2 1.5.2 1.5.8 0 .4-1.2.9-2 .8-.6 0-.8.1-.8.5-.1.7 1 1.7 1.8 1.7.2 0 .8.3 1.3.7.4.3 1.5.8 2.4 1.1 1.3.5 2.1 1.2 1.8 1.5-.2.2-2.3-.4-4-1-2.4-1-3.2-.8-3.3.2-.1 1.1.5 1.7 3 2.7l2 1c-.2.3-3.2 1.2-4.2 1.2-.5 0-.6.2-.6.8 0 .6.2.8 2 1.7l3.8 1.8c2.3 1 2 1.8-.4.9a10 10 0 0 0-2.7-.4c-1.4 0-1.7-.1-2.2-.7l-.6-.6-.4.7c-.4.8-.2 2.6.3 2.9.2.1.8.3 1.4.3.8.1 1.1.3 1.3.8.3.7 2 1.7 4.4 2.4 1.7.6 1.7.6 2.2.4zm-8.6-1.3c0-.2-.2-.4-.4-.4s-.4.2-.4.5c0 .4.2.5.4.4.2-.1.4-.3.4-.5zm22.8 0c0-.9-1.5-.8-1.8 0 0 .3.2.4.8.4.7 0 1-.1 1-.4zm-7.4-3.8c1.3-2.7 1.6-4 1.2-5.3l-.3-1.3-.3 1-.4 1.4c0 .3-.3.9-.6 1.2-.8.9-1.6 3.6-1.2 4.2.4.5.9.2 1.6-1.2zm19 .8c1.5-.8 1.7-1.2.3-1-1.1.1-2.4.8-2.4 1.2 0 .4.8.3 2-.2zm-8.8-1.4a5 5 0 0 0 1-1.4 9 9 0 0 1 2.4-2.8c.4 0 1.7-1.1 1.7-1.5 0-.7-.7-.4-1.6.7-.5.6-1 1-1.1 1-.6 0-4.4 4-4.4 4.7 0 .4 1.3 0 2-.7zm-5.4-1.2c.8-.8 1-1.2 1-2 0-.5.3-1.7.7-2.6.4-1 .7-2.3.8-3.2v-.7c-.2.4-.3.7-.5.7-.1 0-.2.2-.2.5 0 .5-.8 1.4-1.2 1.4-.7 0-1.2-.9-1.2-2 0-.6-.1-1.2-.3-1.3l-.2-.9c0-.5 0-.6-.4-.3-.5.6-.5 4.6 0 6.2.5 1.4.3 4.2-.2 4.5l-.2.7c0 .7.6.4 2-1zm20.2-.4-.1-.2c-.2 0-.3 0-.3.2l.1.3.3-.3zM282 48c.6-.5.4-.7-.7-.7-1.2 0-1.4.3-.6.8.6.3 1 .3 1.3 0zm-12.2-1.8c.5-.4.8-1 .7-1-.2-.4-1.7.5-2.2 1.3-.6.9.5.7 1.5-.3zm20.2.4c0-.2-.1-.3-.3-.2l-.2.4c0 .1 0 .2.2.2s.3-.2.3-.4zM278.2 45c.5-.2.4-.2-.3-.2-.5 0-.9 0-.9.2 0 .3.5.3 1.2 0zm7.3-.7c.6-.5 0-1-1.1-.8-1.1.2-1.9.6-1.6 1 .2.4 2.4.2 2.7-.2zm-26.1-1.3c-.1-.3-.2-.3-.5 0-.3.2-.3.3 0 .6.3.4.7 0 .5-.6zm22-2c.4-.4.4-.4-.2-.6-.8-.2-1.4 0-1.6.5-.2.5 1 .5 1.7 0zm-6.5-.7c1.3-.9 1.5-1.2.7-1.9l-.6-.5-1 1.3c-1.6 2-1.2 2.5.9 1.1zM270 39c.2-.6.2-.7-.4-1-.3-.3-.6-.7-.6-1 0-.6 1.6-2.3 3.3-3.5 1.7-1 1.8-1.3 1.2-1.8-.6-.3-.7-1.6-.3-1.6.2 0 .3-.2.3-.4 0-.4 0-.4-.4 0l-.4.5c0 .2-1.2 1.3-2.2 2-.8.5-1.2 0-1.2-1.7 0-.7-.1-1.2-.2-1.1l-.2 1.1-.1 1c-1 0-1.1 5.3-.2 7.1.6 1.2 1 1.3 1.4.4zm22.5-1.6c.4-.9 0-1-.6-.2-.4.5-.5.8-.3.9.3.2.7 0 1-.7zm-20 .1c0-.3.4-.7.6-.9.8-.8-.3-.5-1.2.4l-1.1.9.5.1c.6 0 1-.1 1.1-.5zm-6.7-1.2c.2-.7.2-1 0-1.5-.3-.5-.3-.5-.8.3-.4.6-.5 1-.4 1.6.2 1 .7.8 1.2-.4zm20.5.7v-.4c-.4-.2-1.2.1-1 .4.2.3.8.3 1 0zm-2.8-1.9s-.1-.3-.3-.3c-.5-.2-1.3.8-1 1.2 0 .2 1.3-.5 1.3-.9zm-4.9-3.8.7-.9-1-.2c-.4-.2-.9-.2-1 0h-.7c-.4-.2-.7-.1-1.2.3l-.5.6.7.1c.4 0 .8.3 1 .8.3.7.4.7.8.4l1.2-1.1zm4.9 0c.4-.7.5-1 .2-1-.6 0-1.9 1.3-1.6 1.6.3.5.8.3 1.4-.6zm12.2 0c0-.6-.7-.7-1-.1-.3.4-.2.5.3.5.4 0 .7-.2.7-.4zm2.8-.7c0-.1-.1-.2-.4-.2-.3 0-.5 0-.4.2 0 .2.3.3.4.3l.4-.3zm-17.9-3.2c1-.5 2.2-2.3 1.6-2.3-.1 0-1 .6-1.8 1.4-1.5 1.5-1.5 1.9.2 1zm-15-3.6c5.5-.3 6.3-.4 6.3-1 0-.3-3-.5-8.5-.5-3 0-7.4.6-7.7 1-.5.8 1 .8 10 .5zm17.3-2.9h-.5c-.2.1-.1.2.2.2.3 0 .4 0 .3-.2zm4.5-1.8c.2-.2.4-.5.3-.6 0-.1-.3 0-.7.4-.3.3-.4.6-.3.6l.7-.4zm15.9-2.1c.2-.2.3-.4 0-.4l-.6.4c-.3.2-.3.4-.1.4l.7-.4zm7.1 241.7c-.7-.7-1-1-1-1.8 0-.7.2-.8.7-.8.5 0 .9.3 1.5 1.1 1.4 2 .6 3-1.2 1.5zm-265.2-8.5-3-.5c-1-.2-1-.2.6-.1 2.5.1 4.6.5 4.3.6h-2zm-45-.3c-.8-1-.2-1.2 3.9-1.4 4-.1 5.3 0 5.3.8 0 .5-1 .6-5.3.8-3 .2-3.6.1-3.9-.2zm34.4-.3c-.8-.4-.9-1.2-.2-1.6.3-.2.5-.2 1 .2.2.3.9.5 1.4.6 1 .2 1.3.7.5 1-.7.3-2 .2-2.7-.2zm-18-.3c0-.7 1.5-1 6.2-1 2.5 0 4.7-.1 4.8-.2.2-.4 1.3-.2 1.8.3l.8.5c.2 0 .4.2.4.4 0 .3-.4.4-2 .4-1 0-2 0-2-.2-.3-.2-2.6-.3-2.8 0 0 .1-1.7.2-3.7.2-2.8 0-3.5 0-3.5-.4zm15.7-.8c-.2-.5 0-.7.7-.6h.6l-.6.6c-.5.4-.5.4-.7 0zm29 .1c-.2-.1-1-.2-1.7 0-1 0-1.2 0-1.2-.3 0-.2.1-.5.3-.6.5-.3-.6-1.1-2.1-1.5l-1.5-.3 2.2-.2c1.5-.2 3-.1 4.5 0 1.4.3 3.7.3 6.4.2h4.5c.4.1.5.4.5 1.1 0 1 0 1-1 1.2-1.3.2-4.2.2-4.4 0l.1-.5c.3-.3.2-.4-.4-.5-.8-.2-1.3 0-1 .5.5.5-.2 1-1.4.9l-2.2.1c-.7.1-1.4.1-1.6 0zm3.5-1.2h-.8c-.2 0-.1.1.3.1h.5zm340.5 1.3c-.2-.1-4.1-.2-8.7-.1-6.7 0-8.4 0-8.5-.2-.4-.6 0-1 .6-.9.4 0 .9-.2 1.6-.8l1-.9.1-13.2c.1-18.3.2-20.1.6-20.5.2-.3.4-.3.7 0 .3.4.4 1.5.4 7 0 3.7-.1 9.5-.3 13a60.5 60.5 0 0 0 0 10.2c0 2.7 0 2.8.6 3.3.4.2.7.7.8 1 .2 1.2 1.2 1.3 6 .8 2.4-.2 2.6-.3 2.7-1l.2-.8v.7c0 .4.2.8.4.8h4l4.2-.3 2.2.1c1.4.2 1.7.2 2.6-.4.7-.4 1.4-.6 3.4-.6l5-.3c2-.1 2.7 0 3.4.3.8.4 1.1.4 3.3.1a8 8 0 0 1 3 0h1.2c.2-.2 1-.3 1.5-.2l3.4-.1 11.1-.4c4.9 0 9.5-.2 10.2-.3a48 48 0 0 1 10.2 0c1.3.2 1.6.2 2.4-.1 1.2-.6 9.6-.6 10.4 0 .7.4 1.3.4 2-.2.5-.4 1.4-.6 4-.8l3.2-.3.6.7.6.6 6.4-.1c5-.2 6.5-.1 6.8.1.3.3.5.3 1 .1 1-.5 4.7-.6 5.5-.2.3.2 1.1.4 1.8.4 1 0 1 0 .8.4-.4.5-2.4.5-2.8.1-.2-.2-.7-.2-1.6 0a4 4 0 0 1-2.4 0c-.5-.2-1.6-.2-2.7-.1-4.2.4-11.1.6-15.4.5h-8.4c-4.8 0-7.8-.2-8.4-.4-.7-.2-1.2-.2-2.2.1-.8.3-2.6.5-5.6.5-3.8.1-4.5.2-5 .6-.3.4-.4.4-1 0-.6-.7-3-1.3-3.3-1-1.2 1-10.4 1.9-12.8 1.2-.8-.2-1.3-.2-2.4.1-1.3.4-1.5.4-3.8 0a117.5 117.5 0 0 0-22.1.3l-3.3.5a15 15 0 0 1-3.7.3c-1-.1-1.7 0-2.3.2-1 .4-2.7.5-3.2.2zM40.2 248c-.2-.1-.2-.3-.1-.5.2-.4 1.5-.4 1.5 0 0 .5-1 .8-1.4.5zm7 0c-4.1-.3-3.4-1 1.1-1 2.7 0 3.4.1 2.7.7-.5.4-1.5.5-3.8.3zm38.5-.2c-1-.2-1.2-.6-.3-.6 2.9-.2 4.8-.1 5 0 .4.2.3.3-.2.4-1 .2-3.8.4-4.5.2zm-10.3-1.3c-.4 0-.8-.3-.8-.5 0-.5 1.9-.7 3.7-.5 1.3.2 1.4.2 1 .6-.4.4-2.6.6-4 .4zm7.2-.4c-.5-.3-.6-.4-.2-.7.4-.3 4.7-.8 10-1 4.8-.2 6.5-.3 6.8-.5h1.8l1.5.2-.8.4c-.6.3-1.6.5-4.3.5-2 0-4 .2-4.5.4l-3.2.2c-1.2 0-2.9.2-3.7.4-1.8.5-2.6.5-3.4 0zm305.2.1h.5c.1.2 0 .2-.3.2s-.4 0-.2-.2zm10.7-1.2c0-1.4 0-1.5.7-1.5.6 0 .6 0 .5.8l-.2 1.5c0 .4-.1.6-.5.6-.5 0-.5-.2-.5-1.4zm130.6.6c-.2-.1-.4-.4-.3-.6.2-.5 1.4-.7 3-.5 1.5.2 1.5.5-.2 1-1.2.5-1.9.5-2.5.1zm6.5 0c-.4-.1-.6-.4-.6-.7.1-.4.6-.5 4-.5 12-.2 24-.6 25.9-.8 2.4-.3 3.2-.2 3.2.3 0 .4-6.8 1-15.1 1.1l-9.7.2c-1.9 0-4.1.2-5 .4-1.8.3-2 .3-2.7 0zm-12.4-.2c-.4-.2-.4-.2.3-.4.5-.1 1.2-.1 1.6 0 .7.2.7.2.2.4a3 3 0 0 1-2 0zm-208.5-.7c-.3-.3-1.2-.8-2-1.2-1.5-.7-1.6-.9-1.5-1.6 0-.7.2-.9 1-1.1 1.4-.4 2 0 3 1.3 1.1 2 .9 3.6-.5 2.6zm261.8.2c-1.8 0-2.3-.2-2.3-.4s.1-.5.4-.6c.2 0 .4-.3.4-.5 0-.5 1.2-.9 3.7-1 2.2-.2 2.9 0 2.9.5s-.6.6-2.8.7H577l1.9.2c1.6 0 1.8.2 1.8.6 0 .6-.2.7-4.1.5zm-173.7-.3c-.4 0-.5-1.5 0-1.8v-1.4l-.2-1.5.2-4.8c.2-4.7.4-6 1-4.8.2.3.3 1 .3 1.5l-.2 5.4c0 2.8-.2 4.3-.4 4.4-.3.1-.3.7 0 1.3.4.6-.2 2-.7 1.7zm-7-.3c-.2-.1-.3-.6-.1-1.6a142 142 0 0 0 .7-8.4l.5-7.5a988.8 988.8 0 0 1 1.2-27.3c.2-6.7.2-7 1.5-7.6.4-.2.4 0 .3 1.6l-.4 4a144 144 0 0 0-.4 9.8 235.6 235.6 0 0 1-1.6 29c0 1.7-.2 3.8-.5 4.7l-.4 2.4c0 1-.2 1.3-.8 1zm-288.4-.3c0-.1.6-.2 1.3-.2.8 0 1.4.1 1.5.2.1.2-.4.3-1.3.3-.8 0-1.5-.1-1.5-.3zm461.2 0c-.5-.7.8-.8 2.8-.3l2 .5-2.2.1c-1.6 0-2.4-.1-2.6-.4zm-181.2-.7c-.6-.4-.7-2.6-.3-5.6.6-5.8.8-8.2 1-11.8 0-2.1.2-4.5.3-5.4a6 6 0 0 0 0-3c-.3-1-.3-1.6.1-3.5a122.3 122.3 0 0 0 1.4-7.8c.2-.3.1-15.5 0-26.1-.2-8.8-.2-8.8.3-8.8l.7.2c.2.3.2.2 0 23 0 9.2-.1 17.5-.2 18.3l-.4 3.4c-.2 1-.3 2.9-.3 4l-.2 4c-.3 2-.4 2.9-.9 12.4a99 99 0 0 1-.4 5.6c-.1 1-.5 1.4-1.1 1zm31-1.5c0-.2.1-.4.3-.4l.4.2c0 .2-.2.3-.4.4-.2.1-.4 0-.4-.2zm5-1.9c-.2-1.4.1-8.8.5-9.2.6-.6.7.4.6 5.2-.1 3.8-.3 5-.5 5s-.4-.5-.6-1zm-202.9-1a48.2 48.2 0 0 0-7.5-2.1 49.4 49.4 0 0 1-10.2-3c-.3-.2-1.3-.4-2.2-.6-1.6-.3-3-1-3-1.6 0-.4 1.4-.3 2.2.1l3.8 1.3 5.6 1.8c1.3.5 3.5 1 5 1.3 1.4.3 2.7.6 2.9.8.1.1.6.3 1 .3l2.5.6 2.3.7 1 .4c.4.4.5.5.2.7-.5.3-.6.3-3.6-.7zm225.8.2c-.4-1-.1-2.5.5-2.5.3 0 .4.4.3 1.4 0 1.4-.5 2-.8 1.1zm9-.2c-.5-1.4-.1-2.4.7-1.6.4.5.5 1.1.3 1.8-.3.6-.7.5-1-.2zm-16.3-.7c0-.3 0-.5.2-.5s.3.2.3.4-.1.4-.3.5c-.1.1-.2 0-.2-.4zm-25.6-.7c-.5-.2-.5-2 0-2 .4 0 .7 1 .4 1.7 0 .2-.3.4-.4.3zm-5.4-.5c-.8-.9-.2-4 .7-3.6.3 0 .4.6.4 1.8 0 1.8-.5 2.6-1.1 1.8zm25.2-.6c0-.5 0-.7.1-.5v1l-.1-.5zm-212.7-2c-.4-.1-.6-.3-.6-.4 0-.1-.4-.3-.9-.3-.5-.1-.3-.2.6-.2 1.5 0 1.5 0 2-1.2.6-1.7.7-3.6.2-5.7-.2-1.4-.3-3.5-.3-7.5V199c-.2-14.5 0-24.3.4-26.6.3-1.8.3-16.6-.1-23.2-.3-5.7-.6-8.6-1-10.6-.4-1.9.7-7 1.9-8.9.4-.6.6-13.7.3-21v-5.4c.4-1.3.6-8.6.3-12l-.7-12.8c0-2.8-.3-4.3-.5-4.9a6 6 0 0 1-.4-2.2c0-1.9-.3-2.3-2.2-2.5-2.4-.3-4.2-.7-4.5-1-.5-.4-.5-1 0-1.1.9-.4 5.5.3 7.3 1 .6.2 1.3 2 1.6 3.8.3 1.7.8 17.3.8 23.7 0 2.3 0 6.8-.3 9.9-.2 4.1-.2 5.8 0 6.6l.4 7.5c.2 8.4.1 8 1.5 8.3.6 0 1.3.4 1.7.9l2 1.4 1.3.7.6-.5c.9-.8 1.8-.5 2.3.7.5 1 1.4 8.7 1.2 10-.3 2.2-3 4.1-4.6 3.4-.8-.4-.8-.4-1 .4-.2 1-2.1 3-3.6 3.7-1 .5-1.3.6-2 .3-1-.5-1.3 0-1 1.1.3.6.4 4.3.4 10.2 0 8 0 9.4-.4 10.5a79.8 79.8 0 0 0-.4 19.2c.2.9.2 3.9 0 10.9a152 152 0 0 0 .4 21.8c.6 6.3.6 10.3.1 11.4-.3.6-.6.8-1.3.8a8 8 0 0 1-1.5 0zm6.7-90.4.2-2.3c0-1.1.2-2.6.4-3.2.3-1.2.3-1.3-.2-2.4l-.6-1.8c0-.6.5-1.2 1.1-1.4.5-.2 0-1-.6-1a2 2 0 0 1-1.1-.5c-1-1-1.2-.8-1.9.8-.5 1.3-.6 1.8-.5 5.3 0 3.8.4 5.2 1.4 6.3.4.6 1.5.6 1.8.2zm5.4-3c.5-1.2.7-2.1.3-2.4-.2 0-.2-.3-.1-.5.2-.6-.5-1.2-1.3-1.2h-.8v2c.2 2 .6 3.3 1.1 3.3.2 0 .5-.5.8-1.1zm-.5-7.4-.3-.3-.3.1c0 .2.1.3.3.3l.3-.1zm-16.2 99.6c-.5 0-1.1-.3-1.4-.4-.5-.3-.5-.3 0-.5l1.4-.3c.9-.1 1 0 1.3.5.3.8 0 1-1.3.7zm192.6-1.3a3 3 0 0 1-.1-1.7c.3-1.8.4-2 .8-1.8.2.2.3.8.2 2-.1 1.8-.4 2.3-.9 1.5zm-196.9-.5h.5c.1.1 0 .2-.3.2s-.4 0-.2-.2zm-19.5-.4a9 9 0 0 0-2-.7l-1.8-.5h1.4a11.3 11.3 0 0 1 4.8 1.3c0 .3-2 .2-2.4 0zm16.5-.3c-.3-.3-.3-.4 0-.4l.4.2c0 .2.3.3.6.4.6.1.6.1 0 .1-.4 0-.9-.1-1-.3zm8.5-.8c-.1-.4 0-3.7.1-7.2.2-3.6.3-10.3.2-14.8 0-7.5.1-10.2.6-9.8.4.4.5 4.7.5 15.8a237.8 237.8 0 0 1-.5 16.2l-.4.3c-.2 0-.4 0-.5-.5zm-12.6-.1c0-.2-.2-.3-.6-.4-.3 0-.2-.1.4-.1.6 0 1 0 1 .2 0 .1.4.3.9.3.6.1.6.1-.4.2-.7 0-1.3 0-1.3-.2zm-17.9-.2c-.8-.1-1.2-.6-.5-.6.8 0 2 .3 2 .5s-.1.2-.3.2l-1.2-.1zm216.3-.8v-7.1c.2-3.7.2-7.1 0-7.7-.3-1.5-.7-2.5-1.1-2.5-.5 0-.7 1.7-1 8-.1 3.6-.3 5.7-.5 6-.6.7-.8-.5-.8-6a52 52 0 0 1 1.2-13.7c.3-.4.4-.3.7 1 .7 2.8 1 1.6 1.3-9.9a350.3 350.3 0 0 1 1.3-21.6c0-1.2.3-8 .6-9.7 0-.9.3-5.6.3-10.5a11599.7 11599.7 0 0 1 1.2-49.7c.3-2.7.4-7.3.5-18.1 0-15.7.2-23.2.5-24.2.2-.7.8-.7 1 0 .3 1 .3 5.1 0 5.7-.3.4-.3 1-.1 1.8.1.7.2 2.8.1 4.8-.3 10-.4 16.6-.4 31 0 12 0 16.3-.4 17.8-.3 1.9-.5 8-.8 24.3a554.3 554.3 0 0 1-1.7 34.4l-.6 11a163.3 163.3 0 0 1-1 14.8c-.2 3-.1 3.1.4 3.4.8.3 1 1.3.9 9.5 0 5.2-.2 6.9-.5 7.2-.4.6-1 .5-1 0zm-201 0h.4c.1 0 0 .2-.3.1-.3 0-.4 0-.2-.1zm-19.7-.4-2.3-.5-3-.8-2.8-.8c-2.9-.7-6-2.6-3.6-2.2 1.8.3 3.3.7 4.3 1.3.5.4 1.3.7 1.7.8a61.2 61.2 0 0 1 7.4 2.3c0 .2-.3.2-1.7-.1zm16-.3-1-.3.9-.1c.5 0 1.2 0 1.6.3l.7.4h-.6a7 7 0 0 1-1.6-.3zm-5.6-1.7c-.6-.4-.6-.4.5-.2 1.6.2 2.4.6 1.1.6-.5 0-1.2-.2-1.6-.4zm-26.6-1.9c-.3 0-.6-.2-.8-.3l-1.2-.5-1.8-.7c-.3-.2-1-.4-1.6-.4-1.6 0-4.7-.8-6.3-1.6-1.2-.6-2-1.6-1.8-2.2.3-.8 1.1-.5 1.4.4.2.9.3 1 2.3 1.3l3 .8c.3.1 1 .3 1.6.3.4 0 1.3.2 1.7.5l1.8.6c1.9.4 2.9.8 3 1.1.2.5-.6.9-1.3.7zm140.8-.8-.7-.7-.5.6c-.7.9-1.2.2-.8-1.2.3-1.6 0-1.9-1.3-.9-.6.5-1 .8-1.2.6 0 0 .5-1 1.3-1.9l1.5-1.8c0-.3.8-.6 1.3-.4.3 0 .6.6.8 1.4l.8 2.3c.6 1.3.6 2.6 0 2.7-.2 0-.7-.3-1.2-.7zm-124.6-.2-1.1-.4-.1-.3c0-.1.3-.2.7 0 1.2.2 2.2.7 2.2.9 0 .3-.5.3-1.7-.2zm-2.1-.9c-.1-.1 0-.3.2-.3s.4.2.4.3c0 .2 0 .3-.2.3s-.4-.1-.4-.3zm228.6 0c-.3-.4 0-5 .4-5l.3-.6.1 2.2c0 2 0 3-.3 3.3-.2.3-.4.4-.5.1zM173.4 221c-2-.6-2.2-.7-1.7-1.2.2-.2.4-.2.8 0l1 .4c.3 0 .6 0 .7.2.1.2.4.3.7.3.5 0 .7.4.3.6a7 7 0 0 1-1.8-.3zm-50-6c-.3-.7-.3-1.2-.1-2.4.4-2 .3-4.7-.2-7.1-.4-2.4-.5-4.6-.2-9.4.2-4.3.3-6.6.2-9.5v-5.6c.2-2.5.2-3.8 0-4.2-.3-.4-.3-.8 0-1.6.2-1 .2-1.2-.1-1.8a12 12 0 0 1 0-6 138.8 138.8 0 0 0-.3-17.2c-.1-2.3-.1-2.8.3-3 .3-.2.4-.7.3-2.3 0-1.2-.1-2.2-.2-2.3-.2-.2-.2-.5 0-.8.3-.4.2-.5-.2-.8-.4-.3-.4-.8-.4-5.1 0-13.4.3-25.2.7-25.8 0-.2-.1-1-.4-1.7-.5-1.2-.6-1.6-.3-2.6.2-1.1.2-1.3-.3-1.6-.6-.4-1.1-2.4-.8-2.9.4-.7.6-2.5.7-6.4l.4-10.5v-6.8c-.4-.8-.5-10-.2-11.8.4-2.1 1.3-1.2 1.3 1.3a276.5 276.5 0 0 1 .8 32.1v15.3a159.9 159.9 0 0 1 .3 24.6v5c.2 3.8.3 12 0 22.6 0 6 0 8.7.2 9.2.3.8.3 2 .2 11 0 3.2 0 8.4.3 11.6.3 4.9.3 5.9 0 7.6a9.2 9.2 0 0 0-.2 3.5c.4 2.6.6 4.7.4 5.4-.2.6-.3.7-1 .7-.8 0-1-.2-1.3-.8zm286-1.1c0-.3-.2-.6-.3-.6-.2 0-.3-.4-.3-1s.1-.9.4-.9c.5 0 .6.5.4 1.9-.1.6-.2 1-.2.6zm25.9 0c-2.7-.1-4-.4-3.2-.9.6-.3 13.7-.1 14 .3.9.8-1.3.9-10.8.6zm-10.7-.4c-5.2-.4-6.3-1.4-1.4-1.1 3 .1 6 .6 5.4.9-.7.4-1.5.4-4 .2zm4.7-.2c-.2-.4.4-.6 1.1-.4.4 0 .6.2.5.3-.2.2-1.5.3-1.6 0zm-12-.4c0-.4.8-.6 1.6-.5.3 0 .4.3.3.5-.2.5-2 .5-2 0zm-5.9-.4c-.4-.3-.5-.5-.2-.7.3-.2.5-.2.8.3.6.8.2 1-.6.4zm-87.1-.7c-1-.2-1.5-1-1.7-2 0-.6-.2-1-.3-1.2-.2 0-.8.4-1.5 1-.9.8-1.4 1-2 1-.8 0-1 0-1.5-1.2l-.7-1.9c-.2-.7-.8-.7-1.8.1-1 .8-1.3.8-2 .1-.2-.3-1.1-.9-2-1.3-1.8-1-2.9-2.2-2.8-3.3l.1-.8-2-.2c-2.7-.2-4-.8-4-1.8 0-.9.9-1 3.1-.6 1.2.2 2.4.3 2.8.2 1-.2 1.7.3 1.5 1-.2.6 1.8 3.5 2.3 3.3.2 0 .4-1.2.6-2.7.4-3.1 1.4-6 2-6.2.8-.1.8.8 0 3-.9 2.7-1.1 6-.5 6.5.7.5 1.2.2 2.3-1.7 1-1.8 1.7-2.3 2.1-1.8.3.2.3.7 0 1.8-.1.9-.3 2-.2 2.8 0 1.2.6 3 1.2 3 .1.1.7-.4 1.2-1 2.2-3.2 3-3.7 3.9-2.8.4.4.4.6 0 2.3-.3 1.7-.3 1.8.3 2.4.7.7 1.2.5 3-1.5 1-1.2 1.4-1.4 1.9-1.3.3.1.6.5.7.9.2.8.4.8 1.5.1 1.1-.6 4.7-1 5.2-.5.2.2.2.5 0 1-.3 1.2-1 1.4-2.4 1-1-.2-1.3-.2-3 .6-1.5.7-2 .8-3 .6-1 0-1.4 0-1.8.2-.6.6-1.6 1-1.8 1l-.7-.1zm130.5-.8h.6l-.3.1c-.4 0-.5 0-.3-.1zm4.9-.2c.1-.5 1-.5 1 0 0 .2-.3.4-.6.4s-.5-.2-.4-.4zm1.2 0c0-.2.2-.4.4-.4s.4.2.4.4-.2.4-.4.4a.4.4 0 0 1-.4-.4zm1 .1c0-.1.3-.3.5-.3s.4.2.4.3c0 .2-.2.3-.4.3s-.4-.1-.4-.3zm1.7-.1c0-.3.2-.4.9-.4.4 0 1 .2 1.2.4.3.3.1.4-1 .4-.8 0-1.1-.1-1.1-.4zm3.1 0c0-.3.3-.4.9-.4 1 0 .9.6-.2.7-.5 0-.7 0-.7-.3zm4.1-.2c-.2-.4.6-.6 1.7-.3 1 .1 1 .2.3.4-1 .2-1.8.2-2 0zm3 0c-.2-.1-.1-.2.4-.4.9-.2 1.5.1 1 .5-.5.3-.8.3-1.3 0zm-134-.3c-.6-.7.4-1.5 2.2-2.2 1.5-.5 1.5-.5 1.9 0 .2.3.3 1 .3 1.4-.1.7-.1.7-1.6.8a9 9 0 0 0-2 .2c-.3.1-.6 0-.9-.2zm71.6 0c-.3-.3-.2-2.8 0-3.6.2-.6.3-.6.3-.1 0 .3.1.6.3.8.4.4.4 2.2 0 2.6-.3.2-.5.3-.6.2zm66.7-.2-1-.1 1.3-.2h2.3c1.2.1 1.2.2.5.3a7 7 0 0 1-3 0zm4.2 0c-.2-.2.1-.3 4.8-.9 2.5-.3 3.1-.3 3.7 0l.7.3-1 .2a51.7 51.7 0 0 1-8.2.5zm-331-1.1c-.3-.5-.5-2.7-.6-11 0-5.8-.2-11.8-.3-13.3-.1-2.6 0-5 .3-4.6l.3 3.6c0 2 .2 4.1.3 4.7a309 309 0 0 0 .6 14.9c.3 5 .3 6.3 0 6.3l-.6-.6zm342.3.3c.7-.2 1.1-.2 1.3 0 .2.2-.2.3-1 .3h-1.4zm15-.2c-1.9-.2-2.3-.2-1.3-.3 1 0 2.6-.1 3.8-.3 1.8-.3 2.3-.2 2.6 0 .6.5 0 .8-1.2.8l-3.8-.2zm11.3 0c-.3 0-.5-.3-.5-.5 0-.5 2-.5 2.2 0 .2.7-.4.9-1.7.5zm-412.5-1.8c-.3-.3-.4-1.3-.3-4.5 0-3.8 0-4.7.5-4.2.3.2.6 7.1.4 8.3-.2.9-.2.9-.6.4zm301.5-1.6-.2-8.6A113.2 113.2 0 0 1 410 176c0-1 .1-1.8.4-2.4.4-.7.5-2 .7-6.7a287.1 287.1 0 0 1 1-17.6 268.6 268.6 0 0 1 .7-17.6c.2-4.4.5-5.7 1.1-5.2.3.3.4 1.3.2 6l-.2 11.9c-.2 7.8-.3 10.8-1 16.8-.3 2.6-.5 5.6-.5 6.7a1088.5 1088.5 0 0 1-.5 30.2c-.3.3-.3.5 0 1 .1.3.3 1.6.3 3 0 2 0 2.4-.4 2.8-.4.4-.5.4-.7-.5-.2-.6-.2-2-.1-3a128.5 128.5 0 0 0-.3-12.7c-.4-.9-.4-.9-.4-.3l-.2 1.5-.2 7.5c-.1 9.3 0 9-.5 9-.3 0-.5-.3-.6-.7zm17.8-3.4c-.1-1.2.2-1.7.5-.9.2.5.2.8 0 1.3-.3.6-.4.5-.5-.4zm-361.9-.5c0-.3.3-.4.7-.4.3 0 .7.2.8.4 0 .3 0 .4-.7.4-.5 0-.8-.2-.8-.4zm90.5 0v-12.3l-.3-13.1c-.2-1 0-2 .5-1.6l.3 3.1.3 8.1c.4 6.7.4 14.7 0 15.4-.3.5-.7.7-.8.3zm26.4-.4c-.1-.2-.2-3-.2-6.2a335.8 335.8 0 0 0-.3-19 68 68 0 0 1 .5-15.2c.3-.1.3 2 .4 10.1 0 11.3 0 15.4.5 21.4.3 4.4.3 8 0 8.8-.1.7-.7.8-1 .1zm15.2-.1c-.2-.6-.4-3.4-.4-8 0-4-.3-7.7-.4-8.5-.3-1.2-.2-6.1 0-6.4.4-.3.8 2.6.8 6.6l.2 7.8c.6 6.4.6 8.3.3 8.8-.2.4-.3.4-.5-.3zm225.1 0c0-.4.1-.4.2-.2v.5c-.1 0-.2 0-.2-.4zm-67.8-.1-.1-2.2a7 7 0 0 0-.5-3c-.5-1-.5-1 0-1.9.4-.7.7-1 1.2-1 .6 0 .8.3 1.2 1.1.4 1 .5 1.5.3 3.5a9.6 9.6 0 0 1-.6 3c-.4.7-1.3.9-1.5.5zm72-1.9a151.7 151.7 0 0 0-1.3-9c-.2-.6-.4-2.6-.6-4.4-.4-3.3-.6-20.7-.3-21.6.3-.7.9-.6 1 .1l.3 10.1a240.2 240.2 0 0 0 1 19c.6 2 1 5 .9 5.6-.2.8-.8 1-1 .2zm-4.8-1.6-.4-2.1c-.9-3.9-1-34.3-.2-35.5.8-1.2 1-.1.9 13.6a518.4 518.4 0 0 0 .3 25c-.3 0-.5-.3-.6-1zm-119.2.2c-.4-.4-.4-1 0-1.6.3-.4.4-.7.2-1.1-.2-.7 0-1.5.6-1.7l2.6-.1c1.8 0 2.1.2 2.3.6.2.8-.1 1-1.7 1.3-1.4.2-2.3.7-2 1 0 .2.3.3.6.3.6 0 .7.6.2 1-.6.5-2.4.7-2.8.3zm-84.6-1.5c-.4-.8-.4-5 0-5.5.3-.4.4-.4.7.5.2.6.2 1.1 0 1.6s-.2.9 0 1.3c.2.3.2.8 0 1.5-.3 1.2-.4 1.3-.7.6zm-28-.7c-.2-.6-.2-3.1 0-3.7.3-.9 1 .1.9 1.5 0 1.6-.6 3-.9 2.2zm-88.2-2.3c0-1 .1-2 .3-2.6.4-1 .4-1 .6-.3v2.6c0 1.5-.1 1.8-.5 1.9-.4 0-.5-.1-.4-1.6zm329.5-.3v-.7c0-.2 8.6-.2 10 0l-.1.4c-.3.3-1 .4-3.3.4-1.6 0-3.7 0-4.7.2-1.4 0-1.7 0-1.9-.3zm-129.5-.7c0-.4.4-.8 1.7-1.4 1.9-.8 2.9-1 3.1-.3.2.4-.1.6-2.3 1.6-1.6.8-2.5.8-2.5 0zm51.5-.5c-.4-.4-.4-.5.1-1 .7-.8 3.3-2 3.7-1.8.7.4.3.9-3.1 3-.2.2-.5 0-.7-.2zm137.4-.7c0-.3 0-.4.2-.2v.5c-.1.1-.2 0-.2-.3zm-40.7 0c-1.3-.2-1-.6.5-.8 1.4-.2 1.8 0 1.8.5 0 .4-.4.5-2.3.2zm47.8-.5c0-.3.2-.4.4-.4s.4.1.4.4c0 .2-.2.4-.4.4a.4.4 0 0 1-.4-.4zm-307.8-.4a15 15 0 0 1 0-3.2c.2-2.3.2-2.4.5-1.5.4 2.1.5 4.5 0 4.9-.3.3-.4.2-.5-.2zm208.8 0h.5c.1.2 0 .2-.3.2s-.4 0-.2-.1zm41.9 0c0-.2.3-.3.8-.3.4 0 .8.1.9.3 0 .1-.2.2-.8.2-.5 0-1 0-1-.2zm76.1-.5h1.9c.5 0 .1.1-.9.1h-1zm-220.4-.2-.2-.8c0-.4.5-.8 1.9-1.7a8 8 0 0 1 2.5-1c.6 0 .7 0 .6.7-.2 1.3-4 3.5-4.8 2.8zm4.7-.2c-.2-.3.7-.6 1-.3.1.2 0 .4-.3.4h-.7zm-198.8-1.5c0-.7 0-1.3.2-1.3s.2.5.1 1.2c-.2 1.7-.3 1.8-.3.1zm328.6.2c-.5-.8-.3-5 .2-5.2.3-.2.5-.2.6-.1 0 0 .5 3.2.6 5 0 1-1 1.2-1.4.3zm-73.7 0c-.3-.7 0-1.2.9-1.6l1.5-.6c1.1-.5 2.5-.2 2.5.4 0 .3-.2.6-.5.7l-2 .8c-1.9.7-2.2.8-2.4.2zm-139.4-.4.4-.5c.1-.1.2 0 .2.2 0 .3-.2.5-.4.5-.3 0-.3-.1-.2-.2zm137-3.3c-.6-.5-.7-.5-2.4-.2-1.8.3-2 .3-5.6-.5-3.3-.8-5.6-1.7-7.8-3.2-2-1.3-2.8-2.2-2.8-2.9 0-.2.4-.6 1-.9.8-.5.9-.6.7-1.5-.3-1.4-.2-2.9.1-3.3.2-.3.7-.4 1-.4.7.1.8.3 1.1 1.8l.4 1.7.8-.2c1.2-.2 2.1.8 2.6 2.6l.3 1.5 1-.6 1-.6 1 1c.7.6 1.1 1.2 1.1 1.3l.6 1.1c.8 1.2 1.7 1.3 2.3.1l1-1.5c.5-.6.7-.6 1.3-.4.5.2 1 .7 1.3 1.3.3.5.8 1 1.1 1.1 1 .3 3.3-.7 4.6-2.1 1.4-1.4 2.5-1.6 2.6-.5.1.9-2 2.6-4.6 3.5-2 .7-2.2 1-2.3 1.5 0 1-.7 1-1.4.3zM189.7 183c0-1 0-1 .3-.5.2.4.2.7 0 1-.2.5-.3.4-.3-.5zm-87.8-.5c0-.3.2-.4.4-.4s.4.1.4.4c0 .2-.2.4-.4.4a.4.4 0 0 1-.4-.4zm87.8-3.7c0-1.8.1-2.5.3-2 .3 1 .3 3.7 0 4.2-.2.3-.3-.4-.3-2.2zm-83.2-.8c-.3-4.5 0-9 .4-8.7.3.1.2 10.6 0 10.8-.1 0-.3-.9-.4-2zm196.8 1.1c-.5-.4-.4-.9 0-1.3.6-.4 1.3.2 1.2 1-.1.6-.7.8-1.2.3zm27.2-2c-2.9-2.6-3.8-4.7-2.8-6 .9-1.3 1.9-.7 2.9 2 .4.9 1 2.3 1.5 3 .9 1.6 1 2.1.4 2.4-.3 0-1-.4-2-1.4zm-228.6.4c0-.6 0-.8.2-.5.4.6.4 1.4 0 1.4-.1 0-.2-.4-.2-.9zm94.2-.5-.2-3-.4-8.6a40 40 0 0 1 0-7c.2-.1.3.6.4 2 .3 3.2.6 14.7.4 16.4l-.2 1.4zm163-.7c-.7-.9-.6-1.5.2-1.6.9 0 1.4.5 1.3 1.5-.1 1-.8 1-1.5.1zm-257.2-2.8c0-.6.1-.8.2-.5v1c-.1.3-.2 0-.2-.5zm52.9 0-.3-2.8c-.2-1.4-.3-5.2-.4-8.5 0-3.3-.4-9.8-.6-14.5-.3-4.8-.5-11-.5-14l-.2-16.2c0-8.5 0-11.4.3-14 .3-2.6.4-4.8.3-10-.3-11-.3-12.5.3-12.5l.5 3.2c.6 5.7.7 9 .2 13.9-.4 4-.4 5.6-.1 17.2a2885.2 2885.2 0 0 1 .5 34 88.4 88.4 0 0 0 1 19.2c-.2.4-.3 1.8-.2 3 0 2 0 2.4-.4 2.4-.2 0-.4-.2-.4-.4zm35-.6c0-.3 0-.4.1-.1v.5c-.1 0-.2-.1-.2-.4zm80.8.3c-.5-.6.1-5.9.9-7.3.3-.6.6-.6 1.3 0 .4.5.4.7.1 1-.4.4-.8 1.6-1.2 4l-.4 2.1c0 .4-.4.4-.7.2zm54.2-1.5c-.4-.6.5-1.7 2.1-2.8 1.6-1 2.8-1.4 2.8-.7l-.6.6-2.3 1.8c-1.7 1.5-1.8 1.6-2 1.1zm-223-.7-.4-2.8c0-2.2 0-2.5.3-2.5.4 0 .4.4.4 2.7 0 2.7 0 3.1-.4 2.6zm258-.6c-1-1 .3-2 1.6-1 1 .7 1 1.4-.2 1.5-.5 0-1 0-1.3-.5zm-39.7-1.2c-.7-.8 1-2.5 2.5-2.6 1.1 0 1.2.5.2 1.5-1.4 1.2-2.3 1.6-2.7 1.1zm-60.6-1.3c-.3-.3-.2-1.3.1-1.7a37.4 37.4 0 0 1 6.1-4.3c.6-.6 1.1-.5 1.2.2 0 .4-.6 1-2.3 2.4-1.4 1-2.8 2.2-3.3 2.7-.8.8-1.4 1-1.8.7zm92.1-3.5c0-.3-.3-.6-.6-.8-.4-.2-.7-.5-.7-.7 0-.5.8-1.1 1.7-1.3.4-.1.7-.4.8-.8.3-.7-.8-1.6-3.4-3-2.1-1.1-2.4-1.6-1.8-3.4.2-.7.3-1.7.2-2.3-.2-.9-.1-1 .5-1.3.5-.2.9-.2 1.5 0 .5.2 1.3.3 1.8.3.6 0 1.4.3 2 .7 1 .6 1 .6 2.6.3 1-.2 2.2-.6 2.9-.9 1-.4 1.4-.4 1.9-.2.6.3.6.5.6 2.1 0 1.5-.2 2-.8 3-.6 1-.8 1.1-1.6 1.1-.7 0-1.1.3-2.5 1.7-.9 1-1.6 2-1.6 2.2 0 .2.3.8.7 1.2.5.5.6.8.5 1.4-.2.6-.3.6-1.4.6l-2.3.3c-.8.2-1 .2-1-.2zm3.5-6.8.6-.4c.5 0 1.3-1 2-2.5l.4-1.4-1 .2c-.6.2-2.1.4-3.4.4-2.7 0-3 .2-1.7 1.7.5.5 1 1.3 1.2 1.7a1 1 0 0 0 1.9.3zm-96.3 4.5c-.4-.5-.1-1.7.5-2a140.5 140.5 0 0 0 5.7-3.3c1.5-1 2.3-1.1 2.4-.3 0 .4-.6 1-2.8 2.4-1.6 1-3 2-3 2.3-.2.5-1.5 1.3-2.1 1.3-.2 0-.6-.2-.7-.4zm-77.3-2.4c-.2-.3-.3-4.7-.3-18.4 0-19.8.2-28.2.8-28.5.8-.3 1 .4.6 3.6a728.2 728.2 0 0 0-.7 43.7l-.4-.4zm97.6-2.9c-.3-.5-.2-.8.2-1.2.5-.6 1.5-.7 3.5-.1 1.6.4 2.3 1 2 1.5 0 .4-.6.5-2.7.5-2.6 0-2.7 0-3-.7zm6.9-2.5c-1.8-.2-2.4-.6-2.4-1.5 0-1 .8-1.2 3.9-1 2.2.1 2.8.3 3.2.7.6.6.3 1.2-.8 1.7-1 .4-1.5.4-4 0zm93.7-1.1c0-.4.4-.7 1-.9l2-1c1.2-.7 2.4-1 2.7-.4.2.3-.3.7-1.5 1-.5.2-1.1.4-1.3.7-.4.5-1.8 1.2-2.4 1.2-.4 0-.5-.2-.5-.6zm-231-1.1-.5-11.5a209 209 0 0 0-1-18.7l-.3-10c-.2-3.1-.3-7.4-.3-9.6 0-2.2-.1-4.7-.3-5.7-.3-2.3 0-8.2.4-8.2.5 0 .7 1.3.7 5.7 0 2.2.1 4.4.3 5 .1.5.2 2.5 0 5.6a138 138 0 0 0 .6 23.5c0 2.5.2 5.9.4 7.6.2 1.6.4 4 .4 5.4l.3 6.5c.2 4.3 0 5.7-.6 4.4zm46.3.5a668.4 668.4 0 0 1-.4-17.4c-.2-1 .2-2 .7-1.7a541.2 541.2 0 0 0 .3 11.4c0 6.3 0 7.8-.2 7.8h-.4zm62.4-3.8c-.3-.3-.2-1.5.1-1.9.7-.7 3.7 0 3.7 1 0 .4-.3.6-1 .8-1.2.3-2.6.4-2.8.1zm-159.3-1c-.3-.3-.2-3 0-3.2.3-.1.6.8.6 2 0 1-.3 1.5-.6 1.2zm162.7-2.1-1-.4c-.6 0-2.7-1.2-2.9-1.6-.4-.8.6-1.7 1.8-1.5 1.5.2 4.3 2.4 4.3 3.4 0 .6-1 .7-2.2 0zm85.7-1c-.2-.3-.5-.7-.5-1-.1-.3-.8-.8-1.4-1-1.3-.7-2-.6-4 .5-.6.2-1.8.5-2.8.6-1.6.2-2 .1-2.8-.3-.4-.3-.8-.7-.8-.9 0-.1-.6-.5-1.3-.8-1.3-.5-3-2-3-2.5 0-.2-.5-.9-1.1-1.6-1.5-1.7-1.8-2.2-1.8-3.8v-1.3l-1.4-.8c-1.8-1-2.3-1.7-2.5-3.3l-.1-1.2h1.2c.9 0 1.3.1 1.7.6.4.5.7.5 2.9.4a11 11 0 0 0 4.3-1c3.1-1.3 5.9-1.5 6.5-.5.1.2.8.5 1.4.8a151 151 0 0 1 4.4 2c.6.1 1 1.2 1 2.8 0 .7.1 2.2.4 3.3.3 1.7.3 2.3 0 3.4-.2 1.2-.2 1.3.3 1.7a6 6 0 0 1 1.6 3c0 1.2-1.4 1.6-2.2.8zm-3.9-4c.6-.3.8-.7 1-1.5 0-.6.2-1.2.4-1.4.7-.5.8-1.7.4-3-.8-2.4-2.4-4-3.8-4-.3 0-.7-.2-.9-.5a5.5 5.5 0 0 0-3.7-1.5 14 14 0 0 0-4.9 1.3c-.8.5-1 3.1-.3 5.2.8 2.6.6 2.4 5 4.4 1.4.6 2 .8 3.2.8.9 0 1.7 0 1.9.2.4.5.8.4 1.7 0zm-8.1-6.2c-.7-.8-.7-.7 0-2.7.4-1 .9-1.8 1.1-1.8.2 0 .4 0 .4.3 0 .6 1.3 2.1 2.2 2.6 1 .4 1.2 1.1.6 1.8-.4.4-.8.5-2.1.5-1.5 0-1.7 0-2.2-.7zm-236.5 9-.2-2.8-.4-7.4a27 27 0 0 1 0-6.4c.3-.9.3-1.4 0-2.2-.1-.6-.3-2.3-.3-3.8 0-2.4 0-2.9.4-2.9.5 0 .5.3.5 6.4l.3 8.6c.2 5 .2 11 0 11.2l-.3-.7zm165-1.1a8 8 0 0 0-1.7-.8c-.5 0-1.2-1-1.2-1.5 0-.6.7-1.2 1.4-1.2.6 0 3 2.3 3.5 3.2.7 1.3 0 1.4-2 .3zm3.3-.2c-.2-.4.6-1.4 1.2-1.4.2 0 0-.3-.7-.5-2.1-1.1-3.1-2-3.1-2.8 0-.7 0-.8 1-.9.7 0 1 0 2 1.2.7.7 1.3 1.6 1.3 2 .2.5.3.6.9.5 1.5-.1 1 1-.7 1.9-1.3.5-1.7.6-2 0zm122.5-1.9c-.3-.5.2-1.1.8-1 .7 0 .7 1 0 1.2-.3 0-.7 0-.8-.2zM257 139.1c-.8-.9 0-2.4 1-2 .7.3.6 1.7 0 2-.6.3-.6.3-1 0zm13.2-2.3c-1.8-.6-1.8-2.7 0-3.6l.7-.5 1.5 1.6c1.4 1.5 1.6 2 .6 2.3-1.4.2-2.5.3-2.8.2zm-119.7-2.4c-.4-.3-.2-1.6.2-1.7.7-.3 1.2 0 1.1 1 0 .5-.2.8-.6.9-.3 0-.6 0-.7-.2zm121.9-4.8c-1-.4-1.1-.8-1-2.8l.2-1.8 1.3-.5c1.6-.6 2.3-.6 4.3 0 .8.1 1.7.3 2 .2.6-.2 1.5.3 1.5 1 0 .5-1.5 1.4-3 1.6-1.3.3-1.7.6-1.7 1.4 0 .3-.3.7-.5.9a5 5 0 0 1-3.1 0zm56.8-6.7a9 9 0 0 1-.4-3.7c.2-.5 1-.6 1.7-.2.4.3.7 3 .3 3.5-.5.6-1.3.7-1.6.4zm47.5-1.3c-.3-.2-.5-.6-.5-1.6 0-1.3 0-1.5-1.2-2.7-.6-.6-1.4-1.2-1.7-1.2-1 0-1.4-2.2-.5-2.7.6-.3 1.5.2 1.7.9.1.3.5.5.8.5.3 0 .8.2 1.2.5l1 .5c.4 0 1.1 1.4 1.1 2.1 0 .3.1.6.3.7.5.3.3 1.9-.4 2.6-.8.8-1 .8-1.8.4zm-145-.6c-.4-.4-.4-1.3-.4-3.8 0-4.6.2-5.7 1-5.8.3 0 .5 0 .6.4v9.2c0 .6-.8.6-1.2 0zm90.2 0c-1.2-.9-.8-2.4 1-3.5.5-.3 1-1 1.1-1.3.2-.7 1-.9 1.7-.3.2.2.4.2.7-.3.3-.4.7-.6 1.3-.6.8 0 1 0 1.2-.7.1-.4.5-.9.8-1l1.6-1.1c1.7-1.2 2.4-1.3 3-.6.6.5 1 2.4.7 2.9-.1.1-1 .4-2 .5-1.5.3-1.7.4-1.7 1 0 1.1-.3 1.4-1.4 1.4-.5 0-1 .1-1.1.3-.3.4-1 .3-1.8-.5-.4-.5-.8-.7-.8-.6 0 .1-.3.8-.8 1.4-.8 1.3-.8 1.3-.4 2.2.5 1 .2 1.4-1.3 1.4-.7 0-1.3-.2-1.8-.5zm-5.7-6.6c-.3-.4-.5-1-.5-1.3l-.4-1.3c-.8-1.4.3-7.6 1.5-8.8.6-.5.7-1 .7-1.8 0-3.2.7-4.6 1.3-2.8.1.4.4.8.5.8.6 0 1.1-.4 1.2-.8l.2.9c.1 1.2.2 1.3.8 1.3.5 0 .7-.2 1-1.1.3-.6.7-1.4 1-1.7a4 4 0 0 0 .8-1.8c0-.8.4-1.4 1-2 .5-.6.9-1 .8-1.2v-1c.2-.9 1.2-.7 1.8.4a13 13 0 0 1 1.5 4.4c0 .8.5 2 .9 2 .3 0 .2-1.5-.2-2.3-.2-.4-.6-1.8-.8-3-.7-3.7-1.2-5.4-1.9-6.3-.5-.7-.5-1-.3-1.4.5-1 1.1-.4 2.6 1.9.8 1.4 1 1.8.7 2.3-.2.4-.1 1.1.2 2.6.7 3.6 1.2 6.3 1.2 7.2 0 1.1-.7 1.2-1 0-.2-1-.6-1-.5.1 0 .5 0 2.6-.2 4.6-.2 4.2-.4 4.8-1.6 4-.9-.6-1.4-.5-1.8.1-.3.4-.6.5-1 .4-.6-.1-.7 0-1.2 1l-.5 1.3c.5 1.4.4 1.5-.3 1.7-.3 0-1 0-1.4-.2-.7-.2-1-.2-1.3.1-.4.4-.5.4-1.2 0-.8-.4-.8-.4-1.3.2-.2.3-.5.9-.5 1.2 0 .6-.4 1.2-1 1.2-.1 0-.5-.4-.8-.9zm74.4-2.4c0-.2 0-.8.2-1.5l.5-2.6c.2-.8.5-1.6.8-2 .5-.4.6-.4 1.3-.1 1 .4 1.3 1.3.7 2.5l-.4 1.2c0 .6-1.7 2.5-2.4 2.7-.3 0-.6 0-.7-.2zm-293.1-5.7c-.2-.2-.4-1-.4-1.7-.1-1 0-1.3.3-1.4.5-.1.7.8.5 2.4-.1.8-.2 1-.4.7zm19.7-7.9c-.3-5-.3-8 0-8.3.3-.3.7 4.4.4 4.8 0 .2 0 .7.2 1 .2.6.2 1.3.1 2-.2 1.4-.7 1.7-.7.5zm240.7-5.3-.2-3.4c.1-4-.2-9.6-.7-12.5-.6-3.7-.4-8.3.3-7.2l.3 4.9.4 5.6c.2.6.3 2.8.4 5 0 2.2.1 4.9.3 6 .1 1.6.1 1.8-.3 1.8-.2 0-.5 0-.5-.2zm-35.7-2.4c-.4-.4-.4-.6-.1-1.2.4-1 2-3 2.4-3.1.7-.3 1.2 0 1.2.9 0 1-2.2 4-3 4l-.5-.6zm27.6-6.5a214.2 214.2 0 0 0 .4-19.4c0-11.9.3-19.8.6-21.4.3-1.3.7-1.7 1.3-1.5.3.2.4.6.2 2.7 0 1.4-.3 3.2-.4 4-.1.8-.3 5.8-.3 11.1 0 8.7-.2 13.7-.6 22-.2 2.6-.5 3.3-1.2 2.5zm-203.6-1.3c-.2-.7-.2-3.8.1-4 .2 0 .3 0 .3.2.2 2.5.2 4.2 0 4.2l-.4-.4zM116.6 77c0-3 0-3.7.4-3.5.3.2.3 6.2 0 6.4-.2 0-.3-1.2-.4-2.9zm226.9 2.5-.4-4.4-.5-8.3c-.6-9-.3-35.4.5-36.6.4-.8 1 0 1.2 2 .3 2.2 0 8.8-.5 10.5-.3 1.1-.4 3-.3 10.6l.2 12.3c.5 7.1.6 14 .3 14.2-.1.1-.4 0-.5-.3zm-190-1.7c0-1.7 0-4 .4-4.4.3-.3.5.6.4 2.8 0 3.2-.4 4-.7 1.6zm224.8.6c-.4-.4-.5-1.5-.3-16.6.2-15.2.3-16.3.7-16.6.4-.2.5-.2.7 0l.3 6.7-.1 17c-.2 9.5-.3 10.2-1.3 9.5zm-232.4-2.2v-1l-.1-1.1c-.3-1 0-2.3.4-2.3.5 0 .6.5.5 2.8-.2 2.2-.5 2.8-.8 1.6zm7.9-6.1c0-1.4.1-2 .4-2.3.3-.2.3 0 .3 2 0 1.8 0 2.3-.4 2.3-.3 0-.4-.4-.3-2zm-37.1.2c0-.7 0-1.1.3-1l.2 1-.2 1.1c-.2.1-.3-.3-.3-1zm93.1-3-3.4-.2-4.8-.3c-1-.2-3-.4-4.2-.4-6-.3-8-.5-8-.9 0-.3.2-.3.8-.2.4.1 3.7.3 7.5.3 7.7.1 13.8.5 14.8 1 1.7.6-.8 1.3-2.7.7zm-55.5-1.2c0-1 0-1.4 1-2.3 1-1 1.8-1.2 2.8-.8.7.2.5.7-.5 1.2-.5.2-1.1.8-1.4 1.2-.6 1-1.4 1.9-1.7 1.9-.1 0-.2-.5-.2-1.2zm24.2-1c-3.9-.3-5.3-.6-5.2-.8.2-.3 3.8-.2 4.7.1.4.2 1.3.3 2.2.3 1.2 0 1.6 0 1.6.4s0 .4-3.3 0zm5.3 0c.2-.2 1.6-.2 2.3 0 .4.2.1.3-1 .3-1 0-1.4 0-1.3-.2zm-67.1-.3c0-.2.1-.4.3-.4l.2.4-.2.4c-.2 0-.3-.2-.3-.4zm274.4-.6a44 44 0 0 1-.6-9.6c0-4.6.2-5.7.8-5.3.4.2.5 1.6.6 8.5 0 4-.1 6.8-.3 7-.1 0-.3-.2-.5-.6zm-224 0c-2-.3-4.4-.9-3.9-1 .2-.1 1.3 0 2.5.1 1.2.2 2.8.3 3.7.3 1.6 0 2.3.2 2.3.6 0 .2-1.8.2-4.6 0zM122 61.5c-.5-1-.6-1.6-.6-3.8a1022.4 1022.4 0 0 0 .3-5.4c.2-.6.1-1-.2-1.6-.3-.6-.3-1.3-.2-3 0-1.7 0-2.6-.3-3.3-.4-1-.5-4.5 0-5.6.1-.5.1-.9-.2-1.6-.3-.5-.5-1.5-.4-2.4a31.8 31.8 0 0 1 .8-9c-.1-.2-1.7-.3-6.3-.3-8.6 0-9.4-.6-1.1-1l5-.2c1.5-.2 1.6-.3 1.8-1 0-.4.4-.8.6-1 .5-.3 12.3-.3 13.9 0h.7l-.7.5c-.5.2-2.1.4-5.6.5-3.7.1-5 .3-5.2.5-.1.2-.3 1.4-.3 2.7a76 76 0 0 0-.6 19.4c.3 5.5.3 14.5 0 16-.2 1-.8.8-1.4-.4zm74.9.5c0-.3 3.1-.3 3.7 0 .2.2-.3.3-1.7.3-1.2 0-2-.1-2-.3zm-3-.3c-.2-.1 0-.2.2-.2l.4.2c0 .2-.1.3-.3.3l-.4-.3zm-5.7-.1c-.7-.3-.3-.6.8-.6.7 0 1.3.1 1.5.4.3.3.2.3-.8.3l-1.5-.1zm-3.4-.3c-.6-.1-.7-.2-.3-.3.6-.3 3.1 0 3 .2-.2.3-1.3.3-2.7 0zm-67.7-.5c-.2-.3-.2-1.4.1-1.6.2 0 .3.3.3.8 0 1 0 1-.4.8zm60 0c-.9-.2-2-.7-2-1 0-.3 3-.2 3.9.2.4.2 1.2.4 1.8.4.6 0 1 .1.9.2-.2.2-3.7.3-4.6.2zm-8.7-1.6c-.7-.2-.8-.5-.2-.7.5-.2 3 .3 3 .6s-1.8.3-2.8 0zM487 48.2c-.8-.3-1-.7-.8-1 .4-.5 1.3-.5 2 0 .9.7 0 1.4-1.2 1zm-75.6-.4c-1-.2-1.9-.4-1.7-.5.2-.3 2.6-.3 7.8-.3 2.5 0 3.4.1 3.3.4 0 .2-1 .3-3.3.3-1.7 0-3.4 0-3.6.2l-2.5-.1zm10.7-.2c-.2 0-.4-.2-.3-.3.2-.4 2.8-.3 2.8 0 0 .1-.3.3-.7.3h-1c-.2.1-.5.1-.8 0zm4 0c-1-.1-1-.8.1-.9a70 70 0 0 1 8.3.3 32 32 0 0 1-8.4.6zm57.5 0c-.3-.2-.3-.3 0-.4h.5c.4.4 0 .7-.5.4zm-7.8-.3c-.1-.2-.6-.2-1.1-.1h-2.2c-2.2-.4-.3-.7 2.6-.5 2.4.1 2.6.2 2 .5-.9.4-1.1.4-1.3 0zm-37.7-.3c-.6-.1-.5-.2.5-.3l3-.2a330.2 330.2 0 0 0 9.6.2c1 .1 1 .2.4.4-.7.2-12.5.2-13.5 0zm14.6 0c-.3-.1 0-.2 1-.2s1.5 0 1.4.2c-.2.3-1.6.3-2.4 0zm15.6 0c-.6-.3-.1-.8.7-.8 1 0 2.3.6 1.8.9-.4.3-2 .2-2.5 0zM424 44.8c-6.7-.5-9-.6-13-.6l-8.4-.2a587.5 587.5 0 0 0-16.4-1.1c-.4-.6 1-.8 3.6-.7l5.6.3a1071.2 1071.2 0 0 1 29.8 1.2c1.7 0 4.2.6 3.4.9-.5.2-3.4.3-4.6.2zm-49.8-15.5c-.8-.9.1-1 7.5-1a892 892 0 0 0 25.5 0 869.6 869.6 0 0 1 14.6.2c1.7 0 2 0 2 .5s-.3.5-4.8.4c-10.2-.1-33.4 0-38.8.1-5 .2-5.7.2-6-.2zm-21.7-3.1c-.5-.2-.8-.4-.7-.5.4-.3 4-.8 4.8-.7h7.5c4.8-.2 7-.2 7.5 0l1 .3-1.2.3a128 128 0 0 1-19 .6zm-268.2-.2c-.9-.1-1.2-.5-1-1 0-.3.4-.4 1.3-.2l3.4.3c2.3.1 3.4.6 2 .9-.8.2-4.5.2-5.7 0zm7.6 0c-1.8-.7-.1-1.1 3.5-.9l2.4.2-1.2.3c-1.6.4-4 .6-4.7.4zm7-.5c-.5-.2-.5-.3.2-.4a44.9 44.9 0 0 1 5.3.3l-3.7.2-1.9-.1zm-8.9-2c-.4-1-.7-1.1-3.2-1-2.5 0-3.6-.3-3.6-1.2 0-.9 1-1.1 3.3-.7l4.1.6c3 .5 15.3.6 17.8.3 1.7-.3 2-.3 2.6 0 1 .7.7 1.2-.7 1.1H91.6l-.7.9-.6.7-.3-.7zm62.2.3c-1.3-.4-1.8-.8-1.6-1.4.3-.5 2.9-.6 4.4 0 .5.1 2 .3 3.4.3 1.3 0 2.6.1 2.9.3.6.3.8.2-2.4.8-2 .4-5.2.4-6.7 0zm10.6-.4c-1.1-.1-1.1-.8 0-1 1-.2 4.8-.2 5 0 .6.6-3 1.3-5 1zm-22.7-.3c-2.3-.2-3-.4-3-.4a19.5 19.5 0 0 1 5.2-.4c.2.2.3.4 0 .7-.3.3-.6.3-2.2.1zm5.6 0c-.7-.1-1.1-.3-1.2-.6 0-.4.2-.5 1.5-.6 2.3-.2 3 .2 2.1 1.1-.3.3-.7.3-2.4 0zm278.1-.2c-.4-.1-.4-.3-.2-.6.4-.8 1.1-.9 2.5-.5 1.3.3 1.7.7 1.2 1-.4.3-2.7.3-3.5 0zm67-.3c-.5-.3-.7-.4-1-.1-.7.4-3.3.4-4.1 0-.7-.4-.7-.4.7-.6 1.6-.2 5 0 5.4.4.3.3.2.8-.2.8l-.8-.5zm5.1.3c-1-.1-1.4-.2-1.4-.5s.4-.4 1.3-.4l4-.1c2.2 0 3 0 3.2.3.3.3.3.4 0 .6-.4.2-4.2.3-7 0zm-325-.5c0-.3.3-.4.7-.4.4 0 .7.1.7.4 0 .2-.3.4-.7.4-.4 0-.7-.2-.7-.4zm273.7.2c-.2 0-.4-.2-.4-.4 0-.6 2.6-.7 11.8-.7 7.8 0 9.7 0 9.7.3s-1.5.4-6.8.6a275 275 0 0 1-14.3.2zm-270.9-.3c0-.2.3-.3 1.1-.3 1 0 1.2 0 .8.3-.8.3-1.7.3-1.9 0zm295.6 0c-1-.1-1-.2-.7-.5.6-.4 5.7-.5 6.2 0l2.2.2h1.9c-.2.3-8.6.4-9.6.3zM366 22h.6s-.1.2-.4.1c-.3 0-.4 0-.2-.1zm2.8 0h.8l-.5.1c-.4 0-.5 0-.3-.1zm-174.4-3.5c-.4 0-.8-.2-.8-.4s.5-.2 1.4 0h2.2c.5 0 .9.2.9.4s-1.9.2-3.7 0zM369.8 17c-.2-.5 1-1 3-1 1 0 2.2 0 2.5-.2.3-.2 2.9-.4 7-.5 8.6-.1 8.2-.1 11.7.1h6.6c2-.3 5.8-.4 8.6-.5 4.3 0 5 0 5 .4s-1.1.5-12.8.6a206.2 206.2 0 0 0-15.6.5c-5.9.1-11.3.4-12.8.7-1.8.4-3 .4-3.2 0zm48-1.4c-2 0-2.4-.3-1.8-.6a30 30 0 0 1 8.4-.3c4.9 0 6.4.3 5 .7-.6.2-9 .3-11.6.2zm-86-1c-4.3-.2-5-.4-4.6-1.3a816 816 0 0 0 29.6 0c1.4-.1 6 0 7 .1.3 0 .4 0 0 .3h-2.3c-1 0-2.2 0-2.6.2-.6.2-1.6.2-3.3 0-1.8-.2-2.6-.2-3 0-.3.2-2.3.4-4.8.4l-8 .3h-8zm-212.4-1c-1.4-.4-.3-1.2 1.2-.8 1.1.2 2.7.4 4.4.4 3 0 3.5 0 4.8.2l1.3.2-1.2.1c-2.4.2-10 .1-10.5 0zm12.5.1c-.7-.1-.7-.2.5-.3 2-.3 8.7-.2 9.3 0 .4.2.2.3-1 .4-1.7.2-7.7.1-8.8-.1zm17.3 0c-1 0-1.6-.1-1.6-.4 0-.4 2.5-.6 5.3-.4 1.9.1 2 .2 1 .4a34 34 0 0 0-3.1.6l-1.6-.1zm-6.7-.3c.5-.5 1.6-.5 2-.1.3.3.2.4-1 .4-.8 0-1.2-.1-1-.3zm14.3-.5c0-.1.4-.3.8-.3.3 0 .7.2.8.3 0 .2-.3.3-.8.3-.6 0-1-.1-.8-.3zm3.2 0c0-.1.4-.3.7-.3.4 0 .7.2.8.3.1.2-.2.3-.8.3-.5 0-.8-.1-.7-.3zm4.7 0c.1-.1.3-.3.5-.3l.6.3c0 .1-.2.3-.6.3-.4 0-.6-.2-.5-.3zm7.3-.1c0-.3.3-.4 1.5-.4 1.8 0 1.6.5-.3.7-1 .1-1.2 0-1.2-.3zm14.5 0c.2-.3.7-.4 1-.4.4 0 .6.1.6.4 0 .2-.3.4-1 .4-.8 0-.8 0-.6-.4zm75-10.4-9-.4c-9.4-.3-12.7-.6-13-1.3-.5-.7.2-.9 2.3-.5a444 444 0 0 0 46.5 1.2c3.4-.1 5.3 0 5.5.1.3.4 2.3.4 2.3 0s3.3-.3 3.7.2c.3.3-.1.4-3.5.4a711.7 711.7 0 0 1-20.6.1l-14.3.2zm41-.3c-.5 0-.6-.2-.3-.5.2-.2.8-.3 2-.3 1.4 0 1.7 0 1.3.3-.3.4-2 .6-3 .5z"/>
</svg>
