<?xml version="1.0" encoding="utf-8"?>
<svg xmlns="http://www.w3.org/2000/svg" xmlns:svg="http://www.w3.org/2000/svg" version="1.1" viewBox="0 0 224 152">
	<title>Pigling Bland walks up to a closed door and listens attentively.</title>
	<path d="M198.4 151h-2.1c-1.6.1-1.8 0-2-.4-.4-.7-.5-3.4-.1-3.6.3-.2 0-3.1-.4-4.8l-.4-1.3v1c0 2-.5.4-.5-1.8 0-2.3-.4-5-1-6.7-.5-1.8-.6-4.4 0-5 .4-.5.4-.8 0-3.6-.4-3.8-.5-5.5 0-5.5.2 0 .2-.7 0-2.7-.3-5.5-.4-8.9-.1-9h.3a560.2 560.2 0 0 0 1.1 16.3c0 1.8.1 3.4.2 3.4l.6-.4c.5-.4.5-.6.2-2.7-.4-3.7-.5-4.7-.3-5.4.2-.6.2-.4.4.7a129.7 129.7 0 0 0 1 6.4c.5 0 4.1-1.8 5-2.5.4-.4 1.2-.7 2-.8l1.3-.2v-7.2c.1-4 0-5-.2-5.2-.3-.3-.4-.7-.2-1.6.2-.6.3-3.6.4-6.7.1-3.3.3-5.7.4-5.7.2 0 .3 1.4.3 3.4l.1 5.8.2 2.4.4-4 .7-6.5c.8-4.6.9-7 1-18.6.4-17.1.4-18 0-18-.3 0-.4 2.4-.5 10.8-.2 13.4-.5 17.2-.6 7a460 460 0 0 0-.4-14.7c-.2-6 0-6.6 1-5.4.5.7 2 1.5 3.7 2 1.5.5 3 1.3 3.9 2.3l2.4 1.8c1.9 1.2 2.2 1.9 1.2 1.9-.7 0-2.3-1-3.8-2.4-.5-.5-1-.8-1.1-.7v2c.2 1.8 0 6-.2 6.4l-.3 6.8a182.2 182.2 0 0 1-1 18 132.8 132.8 0 0 0-.8 14.2c-.4.5-.5-8.4-.1-13.1.1-1.4.4-5.5.5-9.2.4-8.4.5-9.5.8-12.5.2-1.4.2-4.1 0-6.2V64c0-2-.2-2.2-1-1.3-.3.4-.4 1-.4 1.8 0 .7-.1 1.5-.3 1.8-.4.5-.4 1.8-.4 7.2a241.5 241.5 0 0 1-1.6 26.1c-.1.3-.5 10.1-.5 15.8 0 2.8-.2 4-.5 4.7a3 3 0 0 0-.3 1.3c.1.5 1 .6 5.4.3a19.8 19.8 0 0 1 8.3.8c1 0 1.6.7 1.4 1.2-.1.4-.4.4-1.9.3a23 23 0 0 0-11.3-.4 8362.9 8362.9 0 0 0-7.9 1.7c-4 1.8-4.9 2.4-4.9 3.3 0 1-.4 1.2-.6.5-.2-.6-.2-.6-.9.1-.5.6-.6 1-.5 1.6.5 2 1.8 4.2 3.7 6 .9.8 1.4 1 1.5.5.2-.6 1 0 1 .7s0 .7.6.3c.6-.6 1.1-.3 1 .5-.3.7-.2.7.7.5.8-.1 1 0 1.2.6.2.6.4.6 1 .5.6-.1 1 0 1.4.5.4.5.8.6 1.2.5.5 0 .7 0 1 .6.2.5.4.6 1.1.6.7 0 1 0 1.4.5.5.6 2.3 1.6 3 1.6.4 0 3.1 1.4 3.6 1.8 0 0 0 .3-.2.5-.5.6-1.5.5-2-.3-.3-.4-.7-.6-1-.6-.5 0-1.7-.3-2.7-.7l-2.1-.6-1.8-.5c-.5-.2-.5 0-.4 1.1.6 4.4.6 4.4 0 4.4-.7 0-1.2-.7-1-1.3.1-.8-.3-4.8-.7-5.2a1 1 0 0 0-.7-.4c-.3 0-.4.2-.2.8.4 2 .7 6.7.4 7h-.5a19 19 0 0 1-.8-6c0-2-.3-2.3-1.1-2.3-.4 0-.4.4-.3 4 .1 3.2 0 4-.2 3.8-.5-.1-.7-1.2-1-4.8l-.5-3.7c-.1-.6-1-1.1-1.4-.8a37.6 37.6 0 0 0 1 9.8c-.2.5-1 .6-1.3.4zm-1.8-2.4-1-3.7c-.3-.7-.4-.7-.6-.4-.2.2-.2.5-.2.8l.3 1.3c.2 1 1 2.6 1.4 2.6.2 0 .2-.2.1-.6zm1.3-3.5c-.7-4.5-1-5.2-1.8-6l-.7-.6.2 2c.2 2 .3 2.7 1.6 5.7l.8 2c.4 1.3.4 0-.1-3zm7.4-25.4c0-.4-.1-.6-.2-.6-.3 0-.7 1.2-.4 1.6.2.4.6-.3.6-1zm-13 .4c-.1-.2-.2-.2-.2.1 0 .3 0 .5.1.4v-.5zm13.7-3 .3-3.9c.3-2.4 1.4-22.2 1.2-22.4-.3-.4-.4.5-.5 3-.1 2-.3 3-.6 3.3-.2.3-.4 1.5-.6 3a168 168 0 0 0-.1 18.6c.1 0 .3-.7.3-1.5zm.4-17.9c0-.7 0-1.3.2-1.3s.3.6.3 1.3c0 .8-.1 1.3-.3 1.3-.1 0-.2-.5-.2-1.3zm1.3-9.8c0-.9-.1-1-.3-.6-.3.7-.3 1.7 0 1.7.2 0 .3-.5.3-1.1zm.4-9.2a65 65 0 0 1 .2-7c-.4 0-.6 2.8-.7 8.6 0 2.6 0 4.1.1 4 .2-.1.3-2.7.4-5.6zm.4-13.3c0-2.2.1-3.4.4-4.2.5-1.1.4-1.5-.2-1.2-.5.1-.8 3.2-.7 7.8 0 2.6 0 3 .2 2l.3-4.4zm-52.1 84-1.4-.2c-.8-.1-1-.3-1-.6 0-.5-1.1-1.5-4.4-4.4a67.5 67.5 0 0 0-6.1-4.9c-3.9-3-3.4-2.8-6.4-2.9-2.4 0-2.7-.2-2.7-.6 0-.4.3-.5 1.8-.6 1-.1 1.9-.3 1.9-.4a4 4 0 0 0-1-1c-.4-.5-.9-1-.9-1.2 0-.4-.6-.8-2.1-1.3-.6-.1-1-.4-1-.5l-1-1.2-2.3-2.8c-.7-1-1.9-2.2-2.5-2.8a15 15 0 0 1-2-2.4 9 9 0 0 0-1.8-2l-1.3-1.1c-.6-.7-3.8-2.9-5.5-3.8-.7-.4-1.9-1.4-2.5-2.2a22.1 22.1 0 0 0-5.2-4.9c-1.1-.7-1.9-1.3-1.9-1.6 0-.3-.6-1-1.3-1.6-1.6-1.4-2.3-1.5-8.7-1.8-2.3-.1-4.3-.3-4.4-.4-.3-.5 1-.6 3.6-.5l4.6.2h1.9l-.6-.5c-.5-.5-1-.6-2.5-.6l-2.1-.2-2-.4c-1.1-.2-1.8-.4-1.9-.6-.1-.3.3-.3 2.5-.2l3.1.3c.7.3-.3-1.3-1-1.7-.4-.1-.7-.5-.7-.8 0-.3-.3-.9-.7-1.3-1-1.2-4.9-4-5.2-3.9-.2 0-.4.5-.5 1a22 22 0 0 1-3.2 6.2l-2 3c-.3.6-.9 1.3-1.2 1.5-.7.4-.9 1.1-.4 1.6l1.4 2.6A44 44 0 0 0 88 113c.8 1.2 1 1.3 2 1.3 2 0 2.3-1.2.3-1.4-1 0-1.2-.1-1.2-.6 0-.4.2-.5 1.1-.4.6 0 1.3 0 1.5-.2.4-.2 1-.2 7.3-.3 2.7 0 5 0 5.2.2.5.3-1 .5-2.8.4-3-.2-4.5.3-2.7 1 .3.1.7.4.8.7a34.2 34.2 0 0 0 7 6.8c1.3 1.4 1.5 1.5 3 1.7.9.2 3 .3 4.6.3 3.6 0 4.5.3 2.2.8-2.6.5-3.4.8-3.8 1.5-.2.5-.2.7.5 1.7.5.6.9 1.3.9 1.5 0 1 1 2.1 2.7 2.8 2.3 1 3.7 1.8 4.4 2.8.6 1 2.7 2.2 5.8 3.7.8.4 1.6.6 3 .6 1 0 1.8 0 1.8.2 0 .3-1.4.7-2.6.9-.4 0-.7.2-.8.3 0 .3 4.1 4.6 4.5 4.6l.2.6c0 .3.3.6.7.9 1 .5 3.6 3.5 3.4 3.8-.2.4-1.3-.1-2.5-1.3l-3-2.3c-1-.6-2.3-1.7-2.8-2.4-1-1.3-6.7-7-8.7-8.7-1.6-1.3-4.1-2.7-5.5-2.9-.6 0-1.4-.5-1.8-.9-.9-.8-1.8-2.4-1.8-3.2 0-1-1-2.5-2-3-.6-.3-1.2-.7-1.3-1 0-.2-.8-1-1.7-1.8a20.4 20.4 0 0 1-4.5-4.5c0-.6-2.3-2.8-3.2-3.1-1.2-.5-3.4-.4-4 .1-.4.4-1.3.6-3.2.6-.8 0-1 .1-1 .5 0 1 1.7 1.2 2.4.3.3-.5.6-.6 2.5-.4 1.1 0 2.2.2 2.2.3.3.3-.2.4-1.7.4-1.2 0-1.7.1-1.7.4 0 .4-.8 1.2-1.4 1.2-.5 0-.5 0 0 .4.4.2.9 1 1.2 1.6l.8 1.2c.2 0 1 1.6 1 2 0 .7-1.3 1-3.7.9-2.5 0-3.4-.3-4-1.3-.4-.4-3.4-1.2-3.6-.9-.5.6-2.1 1.1-3.5 1.1s-1.6 0-1.5.6c0 .4-.2.6-1.2 1-.7.2-1.2.5-1.1.6.1 0 0 .4-.2.6-.2.3-.2.9-.1 2 .2 2.3-.5 3-2 1.8l-.5-.6-.6.7c-.7.9-1.1.9-2.4 0-1-.6-2-2.3-2.4-4.1-.2-.7-.8-1-1-.5-.2.2-.5.3-.8.3-.5 0-.6-.3-1.3-2.4l-.4-1.2h-1.3l-4.7.5c-2 .2-3.6.3-3.7.2-.4-.4.1-.5 3.6-.8 3.8-.4 4.5-.6 2.7-1a11 11 0 0 0-2.1-.3c-.6 0-1.2-.2-1.5-.4-.3-.4-.6-.4-1.9-.1-1.6.3-2.8.1-2.8-.5 0-.2.2-.4.9-.4.5 0 1 0 1-.2s-1.1-.3-2.7-.3-2.7-.1-2.7-.3a112.6 112.6 0 0 1-18.4-.4c-2.7 0-4.5-.3-4.8-.7-.2-.4 0-.4 2.2-.2 4 .5 15.8.8 21.8.5 3.1-.1 4-.1 4.4.2.3.2 1 .4 1.5.4s1 .2 1.2.4l1.1.5c.4.1 1 .3 1 .5.2.2 1.2.5 2.3.6 1 0 2.1.2 2.4.3.6.1.5-.3-.5-2.5l-.7-1.8a24 24 0 0 0-1.8-4.6l-.8-1.2-1-1.2c-.4-.2-.4-.3-.2-.6.2-.2.4-1 .4-1.7l.1-1.3H59c-.5-.1-1.4-.6-2.1-1.1l-2.6-2a8.5 8.5 0 0 1-1.6-1.4c-.2-.4-.5-.6-.7-.6-.2 0-.5-.2-.6-.5-.2-.3-.6-.4-2-.4-2.4.1-2.6-.1-2.6-3.6 0-1.5 0-2.7-.2-2.7-.4 0-.2-3 .2-3.3.2-.2.3-.6.2-1.3-.2-1.3-.6-1.7-1.4-1.7-.4 0-1.1-.3-1.7-.6-1.2-.7-2-.5-3.3.6-.5.4-1 .8-1.3.8-.2 0-.4.1-.5.3-.2.6-1.4.5-1.8 0-.4-.8-.3-1 .4-1.7.4-.4.9-1 1.1-1.5a9 9 0 0 1 3-3.1c.8-.2 1-1.3.4-2-1.1-1.5 0-4.5 1.7-4.5 1 0 2.3 1.1 2.7 2 .4 1 .7.6.9-1.3.3-2.4.8-4.4 1.7-6.2 1-1.9 1-2.2.3-2.2-.3 0-1-.4-1.8-1-1-.9-1.4-1-2-1-.8.3-1.7 1.2-2.2 2.3-.2.5-.6 1.2-1 1.5-.5.6-.7.6-1.7.5-2.5-.4-3.1-.7-3.6-1.8l-.5-1.5c0-.2-.1-.4-.4-.5-.8-.2-1.2-2.2-.5-2.9.4-.4.2-.6-.8-.7-1 0-.8-.5.5-.7 2.4-.4 2.4-.8 0-1-1.8 0-2.2.1-2.3 1.3-.2 1.7-2.2 2.5-4 1.6l-.9-.6.1-2 .2-2.6c.1-.4 0-.5-.7-.4h-7.8c-6.3.2-7.2.2-7.6.6-.4.5-.4.5.7.5l4.4-.3a21 21 0 0 1 3.8-.1c.4.1.4.2-.1.6-.3.2-.6.6-.7.9-.1.3-.8.4-3.5.6-2.9.2-3.4.3-3.6.7-.2.3-.1.5.2.7.5.3.2.8-.5.8-.3 0-.5.2-.5.3 0 .2.2.3.4.3.5 0 .5.1-.2 1-.3.4-.4 1-.4 1.2.1.3 0 .6-.3.8-.3.1-.5.5-.5.8l-.5 1.8c-.3 1-.5 1.3-1 1.2-1 0-1.2 0-1.5.7-.4.9-1 .9-1 0 0-.5-.2-.6-.5-.6s-.8-.4-1-.7c-.4-.6-.4-1-.1-2.8.2-1.2.3-2.2.2-2.3l-1.2 1.1c-.9 1-1.2 1.2-2 1.2-1.2 0-1.7-.4-1.9-2C1 63.7.7 63 .5 63c-.1-.2-.3-1-.3-1.8 0-1.5 0-1.6.6-1.4.5.1.5.1.3-4.4-.2-5.4-.2-7.2 0-13.5l.3-12c.2-8.2.1-8.1 2-8.6 1.2-.4 2 .2 2.3 1.5l.2 1 1.2-.2 2-.2c.7 0 .7 0 .5-1 0-.5-.5-1.8-1-2.8L8 17.3l-.4-.7c-.3-.3-1-.4-3.8-.3-3 .1-3.5 0-3.5-.3s.4-.4 2-.4c1.8 0 2 0 2.4-.7.3-.4.4-1 .4-1.7L4.9 12 3.6 12c-1.4-.2-2-.5-.8-.5.4 0 1.2-.2 1.7-.5.8-.4.9-.4 1.2 0 .2.4.4.5.5.4.2-.2.4-1.8.4-4.3V5.4L7 6.6l.2 4.3-.1 3 .7.5c.5.3.8.8 1 1.6.5 1.8.6 2 .8 2a90 90 0 0 0 0-13.7c-.3-2.2-.3-2.5 0-2.9.3-.2.7-.3 1-.2.3.1.4.4.2 2.4l.1 6c.2 2.7.2 3.8 0 4-.2.3-.2.4 0 .4l.2 1.6c0 1 .2 1.8.4 2 .2.3 4.6.3 10.3 0 2.6-.2 3.4-.1 3.5.1.3.5-.3.9-1.1.7-.8-.2-9.6.4-9.6.7 0 .3 1.8.5 4.7.3 3-.2 4.1 0 3.6.5-.2.2-3.3.3-10.4.5-.9 0-1 0-1.2 1-.4 1-.1 1.8.8 2h6.8c3.4 0 6.6.1 7 .3.8.2 1 .1 1.2-.5l.2-5.7c0-4.4 0-5-.4-4.9-.7.3-.5-8.6.3-11.3.2-.5 1.2-.7 1.2-.2l-.3.2c-.3 0-.4 2.3-.3 10.8a187.2 187.2 0 0 0 .3 9c0-1.2.1-2.6.3-3 .1-.6.3-2.5.3-4.4 0-4.8.4-6.8.4-3 0 2 .2 2.8.4 2.6.4-.2 0-5.5-.4-6-.7-.7-.8-4.4-.2-5 .2-.2.3 0 .3.9 0 1 .4 4.2.5 3.5 0-.2.1-.3.2-.3s.2 2.4.2 5.4c0 6.7.1 10.7.4 10.7A178 178 0 0 1 33 2.2c0-.6.5-1 .8-.8 0 .1 0 1.2-.3 2.5-.6 2.7-.7 4.8-.5 5 .2 0 .2.7-.1 2.2 0 .3-.2.5-.4.4l-.2.1c0 .2.1.3.3.3.4 0 0 3.5-.5 4-.4.4-.5 1.3-.6 4.2l-.1 3.7h1.1c1 0 1.1 0 1-.6-.4-1-.2-4.3.4-8.2A5046.6 5046.6 0 0 0 36 1.4c.2-1 .5-1.6.8-1.3.2.2-.4 3.6-.8 4.7a27 27 0 0 0-1 5.6l-.2 1.5h1c1.3 0 2.7.6 3 1.1.5.7 0 .9-1 .4-1.2-.6-1.9-.6-2.2.2a50 50 0 0 0-.8 8c0 1.8 0 2 .4 2l1 .2c.4.2.6-1.8.7-5.9 0-2.5.3-3.6 1-3 .6.6.6 1.7.2 5.7-.5 5.3-.6 5.7-1 6.2-.3.4-.4.3-1.4-1l-1-1.3h-8.2c-4.4 0-10.2-.2-12.7-.3-4.8-.1-7 .1-7.9.9-.2.2-.6.3-.9.2-.3-.1-.4-.4-.3-1.2.1-.7 0-1.2-.2-1.6-.5-.7-1-.7-1.5 0-.4.4-.5 1.4-.7 7.3L2 39.7c-.3 4.5-.3 21.7 0 22.5 0 .4.2.8.3.8.3 0 .4-1.7.9-8 .3-5 .4-5.5.8-5.5.5 0 1.5 1.1 1.5 1.6 0 .3-.2.5-.4.6-.5 0-.5.4-.5 2.4L4.5 59c-.2 2.7 0 4.2.8 4.4.3.1.6 0 .7-.1.2-.4.6-3.7.8-7.3.1-3 0-3.2-.4-3.3-.3 0-.6-.3-.6-.6s.2-.4.6-.3l.6.2.2-4A106.5 106.5 0 0 0 7 32.5c0-.6-1-1.5-1.4-1.3l-.3 4.3-.4 7.8-.1 3.6.8.8c1 .8 1 1.4.2 1.6-.2 0-.4-.1-.4-.4 0-.2-.4-.5-.8-.7l-.8-.5c-.3-.4-.3-6.3 0-7.9.2-1.4.4-8.6.2-9.6 0-.4.1-.6.8-.8.8-.3 1-.2 1.6.5l1.2 1c.4.3.4 1.2.5 11.8 0 11-.3 19-.9 21.8-.3 1.6 0 3.2.6 3.6.3.2.6.2.8 0 .5-.5 1-5.9 1.1-13 .2-8 .5-15.6 1-20.2 0-2 .2-2.7.6-3l.9-.3c.2 0 .3-.2.3-.4 0-.5.5-.5 1 0 .2.4 1.2.5 6.7.6a101.9 101.9 0 0 1 19 1h3.3c.3.1.2.7-.2 1.1-1.5 1.6-2 2.5-2 3.2 0 .4-.2 1.6-.5 2.5-.6 1.7-.6 1.8-.1 2.7.3.7.3 1.1.1 1.7-.3.8-.6 3.7-.5 5 0 1 0 1.9-.2 3.2-.1.8 0 1.3.4 2l.5.9-.6 1a51 51 0 0 0-.3 10.6c.2 1 .3 1.1.9 1.1.4 0 .8 0 1-.2.5-.3.9-4.4.6-5.4-.2-.6-.2-1.2 0-2.1.2-.8.4-3.5.6-6a105 105 0 0 1 .4-8.3c-.3-.6-.2-2 .2-4.2.4-1.5.4-2.8.3-5.8-.1-3 0-3.9.2-4.2.3-.4.9-5.5 1.1-10a1866.7 1866.7 0 0 0 2.4-16c.2-1 .2-1.8 0-2.8-.2-1-.2-1.5 0-1.8.8-1.3 1.5 0 1.1 2.4a680 680 0 0 0-1.6 14.4l-.4 2.4c-.3.2-.3 1.5 0 1.8.1 0 .2 1 .2 2.2 0 1.9 0 2-.4 1.2-.3-.7-.4 1-.4 12.7v16.2c0 3-.1 4-.5 3.5-.2-.2-.3-1.2-.2-2.3 0-3 0-3.5-.4-3.5-1 0-1.3 6.4-.5 7.2.2.1.3.5.3.8 0 .7.9 1.6 1.1 1.3l.2-.7c0-.8.6-.1.8 1 .2 1 .7.9.6-.1-.1-3.1 0-6.5.4-9.1.5-4 .4-11.1-.3-11.6-.4-.3-.5-1-.5-4l-.3-4.6c-.2-.9 0-1 .6-.6.3.2.4 1.1.4 4.6 0 2.8.2 4.5.3 4.6.6.4 1 6.9.7 9.8-.3 2.4-.3 2.8 0 3.4.3.3.5 1.2.5 2 0 2.2.7 6.4 1 6.3 0 0 .2-1.1.1-2.4 0-1.2 0-2.4.2-2.6.3-.5.6 5.1.3 5.8-.3.6-.4 3.8 0 3.6l.4-.9c.4-1.9 3.6-7.7 5.9-10.7 1.2-1.7 1.3-2 1-2.3-.6-.6-.4-24 .2-30.9.5-5.6.6-17.5.2-18.3-.5-1 .4-2.5.9-1.6.3.5.1 14.8-.3 19.3a138 138 0 0 0-.3 18.4 29 29 0 0 1-.2 8c-.4.6-.3 1.5 0 4 .2 1.2.6 1 .6-.3 0-.7 0-2 .3-3.2l.4-8.3a52 52 0 0 1 .7-11.4c.3-.1.1 7.7-.3 17l-.1 4.8 2.3-2 3.2-2.9c.6-.5 1-1 .8-1.2-.2-.3-.2-.4.2-9.7.2-5.6.3-6.7.6-6.3l-.1 7.6v8c.1.5.2.4 1-.2.6-.3 1-.8 1.2-1.1.2-.3.3-4.7.4-12.1a14507.8 14507.8 0 0 1 0-26.5c-.3-1.9 0-2.2.6-.6.2.8.3 2.5.1 7.6a484.1 484.1 0 0 0 .4 30.7c0 .1 2.5-1.3 4.1-2.4a35.8 35.8 0 0 1 6.6-3.9c1.9-1 8.6-2.7 10.5-2.7A6 6 0 0 0 93 32c.7-.3 2.4-.6 3.7-.8l4.4-.5c1.7-.2 5.5.2 7.5.7.4 0 1.7-.1 3-.4l2.5-.6 1.4-.7c.8-.6 1.5-.8 3.7-1.2a16 16 0 0 1 4.2-.2h2.4l1.6-.4c1-.2 2 .7 1.7 1.7 0 .5-.4 1.1-.7 1.5l-1.6 2-2 2c-.6.3-1 .8-1 1 0 .3.4 1 1 1.6a4 4 0 0 1 1.3 2.3c.1.8.8 2.2 1.5 3.3l1.3 2.4c.2.8 2.3 2.9 3.6 3.6a3 3 0 0 0 2.2.3c1-.1 1.2 0 1.6.5.5.8.5 1.5-.1 2.6a18 18 0 0 0-1.1 2.6c-.7 2-1.1 2.5-2.5 3.2a34 34 0 0 1-7.7 2.3c-1 0-1.8.3-2.1.6-1 .8-3.3 2.2-4.3 2.4l-3.4.7a18.6 18.6 0 0 1-7.8-.7c-.3-.2-.8-.3-1.1-.3l-.9-.2c-.1-.2-.5-.3-.8-.4-.5-.2-.6-.1-.6.3l-.4 1.3-.4 1.3c0 .5.2.6 1.5.7.8.1 2.4.6 3.6 1 1.6.7 2 1 2 1.4 0 .4.6 1 1.9 2 3.5 2.7 3.4 2.6 3.4 3.9 0 1.3.5 2.6 1.6 4.4 1 1.5.8 1.9-.6 1.7-1.6-.3-3.1-1-4.3-2.1-.6-.5-1.4-1-1.8-1.1a3 3 0 0 1-1.3-.8c-.4-.5-.8-.6-2.5-.6l-3.8.2-2.3.3c-.8 0-1 .5-1.2 3.6-.1 1.4-.4 2.9-.6 3.3-.6 1.5-3.5 3.6-5 3.6-.9 0-1.1.4-1.5 2.5-.3 1.7-.2 1.8.4 2.6l1.5 1.5a94.9 94.9 0 0 1 3.7 3c.1 0 .2-1.5.2-3.3 0-2 .2-3.4.3-3.5.2-.1.5 5.4.3 6.7v1c.2.5.4.6.8.6.9-.1 1-1.4.2-1.7-.6-.2-.6-.4 0-.9.5-.3.6-.6.6-3.8 0-3 0-3.2.2-1.8.1 1 .2 2.5.1 3.5-.1 1.8.1 2.5.9 2.2.4-.1.4-.5.3-3.6v-4c.4-.6.6.2.6 4l.1 3.6 1 .2 1 .1v-2.6c0-1.4-.1-2.6-.3-2.7l-.2-1.3c0-1-.1-1.2-.4-1-.4 0-.4-.5-.4-4.5 0-5 .1-6.6.7-6.6.5 0 .7 2.6 1 12.7.1 5.2.4 8.6.8 9l.6-.1c.3-.3.4-.8.3-3.1 0-1.6 0-3 .2-3.2.4-.5.6-2 .6-6.2 0-2.2.2-4 .3-4 .1 0 .2 2.4.2 5.3 0 4.5 0 5.6-.4 6.3-.4.7-.4 1.3-.2 3.1l.1 3.3c0 .9 0 1 .7 1.3.5.2.8.2 1 0 .2-.2.3-3.5.3-10.5l.1-10.2c.5 0 .6 1.2.6 6.6 0 11.2-.1 16.2-.4 16.7-.5.7-.8.2-.6-.8.2-1.1 0-1.3-.9-1.1-.5.1-.6.3-.4 1l.3 2.1c.1 1 .2 1.2 2 2.2a7 7 0 0 1 3 2.7c1.8 2.6 3 3.7 3.8 3.7.4 0 1 .2 1 .4l.7.4 1.7.7a4 4 0 0 1 2.2 2c.5 1 2 2.7 4 4.6l4.3 4.4c1 1.1 1 1.3 1.4.9.1-.2.4-.4.6-.4.1 0 1.1.8 2.2 1.9 1 1 2.9 2.6 4 3.4l2.8 2.3c.3.5.7.8 1 .8.2 0 .4.3.5.5a84.5 84.5 0 0 1 4.8 4.7 31 31 0 0 0 4.7 3.8c.2.5 2.5 2 2.7 1.8 0 0-.4-.7-1-1.3l-1.6-2-1.3-1.2c-1-.8-2.1-2-2.1-2.3 0-.5 1.6.9 4.9 4l4.3 3.8c2 1.3 3 2.3 2.9 3 0 .4-.3.5-2.5.5h-2.7zm-12.6-13c-1.1-.9-1.5-1-1.5-.6 0 .3 1.8 1.6 2.3 1.6l-.8-1zm-3.2-3c-.7-.7-1.3-1.2-1.4-1 0 .3.2.7 1.5 2 .6.7 1 1 1 .7.1-.2-.4-1-1.1-1.7zm-6.9-5.4a149.7 149.7 0 0 0-1-1.1c-.1 0 .2.6.7 1.2 1 1.3 1.3 1.2.3-.1zM72 126.7c.4-1.2 1-1.3 2-.5l.4.6-.1-.8c-.1-.4-.4-.9-.7-1.1-.2-.2-.5-1-.6-1.5-.1-.6-.4-1.3-.6-1.4-.2-.2-.4-.7-.4-1.2 0-.4-.1-1-.3-1.3l-.8-1.9-1.1-3.2c-1-2.4-1.3-5.2-.8-6.4.2-.5.4-.8.3-.9h-1.4c-.9-.2-1.8-.4-2.2-.7a3 3 0 0 0-1.4-.6l-1.2-.4c-.6-.4-.7-.4-1 0-.6.8-.4 2.3.4 3.6a26 26 0 0 1 3.6 9c0 .8.4 2.2.6 3.1l.4 1.7 1-.2c1.2-.2 1.6.3 1.8 2 .1 1.6.8 3.2 1.4 3.2.2 0 .5-.4.7-1zm20.5-5-1.1-1.6c-.3-.6-.7-1-.8-1l-.7-1.4c-.2-.7-.5-1.3-.6-1.3l-1.3-1.7c-.7-1-1.5-2-1.8-2.1a2 2 0 0 1-.8-1c0-.4-.4-1-.9-1.4l-2.2-2.7c-1.2-1.4-1.7-2-2.2-2-.3 0-.7 0-.8-.2-.2-.3 1-.8 2.1-.8.6 0 1.2-.2 1.7-.6l1.4-1c1-.7 4-5 3.3-5l-1.3.7c-1.5.8-4.4 2-4.6 1.8-.2-.1-.5 0 3.2-1.8 1.7-.9 3-1.8 3-2l1.1-2.5c.7-1.5 1-2.7 1.2-4 .2-1.8 0-2.2-.9-1.7-.3.1-2.4.4-4.8.5-2.5.1-4.4.4-4.6.5-.3.3-.4 1-.4 3 0 1.7-.1 3-.4 3.5-.2.5-.3 1.1-.2 1.4.2.8-1.1 3.4-2.5 4.9-.7.7-1.1 1.4-1 1.4.2 0 .6.3.8.5.5.3.5.4-.2 1.2-1 1.3-.9 1.8 1 2.9 1.2.7 2.2 1.9 3.3 4 .5 1 1.2 2 1.6 2.4.4.3 1 1.3 1.4 2.1l.7 1.5 1.5-.3c1.4-.2 1.6-.2 2 .4.3.3.5.9.5 1.3 0 1.1.4 2.1 1.1 2.4l2.2.2h1.5l-.5-.6zm-14.4-.5c0-.2-.3-.3-.6-.3-.4 0-.6.1-.6.3l.7.2c.3 0 .5 0 .5-.2zm-2.5-2c.2-.2 1-.4 1.7-.5a4 4 0 0 0 1.9-.5c.3-.4.8-.5 1.5-.4.5 0 1 0 1-.2.1-.1-.3-.9-.8-1.6l-1.3-2.1c-.2-.5-.6-1-1-1.2-.2-.3-1.2-1.4-2-2.7l-2.2-2.9c-.3-.4-.5-1-.5-1.4 0-.4 0-.7-.2-.6-1.4.7-1.6.9-2 2-.3.8-.7 1.7-1 2-.5.6-.5 1-.4 2.2.3 1.8 1.3 5 2 6.2.3.5.5 1.1.5 1.4 0 .2.3.5.5.7.6.3 2 0 2.3-.4zm21.2-6.5c0-.1-.1-.4-.4-.5-.7-.4-3.2-.3-3.2.1 0 .5 3.3.9 3.6.4zM107 104c0-.7-.3-1.2-.4-1.2h-.4c-.4 0-.4 2 0 2.4.7.7 1 .2.8-1.2zm-35.7.7c.7-.4 2.6-2 4.7-4.2 2.2-2.3 3.3-6 2.8-9.7a4.2 4.2 0 0 0-1.2-2.7 7 7 0 0 0-1.2-1.2l-1.7-1.5c-2-1.9-5.4-3.6-5.4-2.8l1.2 1.4c1.6 1.5 3.1 3.4 3 3.6-.2 0-1.1-.7-2.2-1.7a28 28 0 0 0-6.6-5.2c-2.5-1.2-2.6-.3-.3 2 .5.6.8 1 .7 1.1-.4.3-2.3-1.2-3-2.4-.6-.8-1-1.1-1.2-1l-.6.1c-.5 0-1.8 1.4-1.8 2 0 .3-.6 1.4-1.2 2.5-1 1.7-1.2 2.2-1.2 3.3 0 1-.2 1.9-.6 2.7l-1.1 2.3c-.2.6-.7 1.1-1.1 1.3-.6.3-.7.5-.7 1.9 0 1 .2 1.6.5 2l1.3 1.5c.4.5 1.5 1.3 2.5 1.8s1.9 1.1 2 1.3c.3.3.8.5 1.5.5.8 0 1-.1.9-.5a3 3 0 0 1-.2-.8c0-.3-.5-.8-1-1.2-.6-.4-1.1-.9-1.1-1 0-.4 1-.3 1.3.1.2.2.7.5 1.2.6.4 0 1 .3 1 .4l2 .6 1.7.7c.4.4-2 .3-3.1-.1-2.2-.8-1.6.3.6 1.2a31 31 0 0 0 6.1 1.5c.4 0 1-.1 1.5-.4zm-12.4-6c-1.6-.8-2.8-2.7-2-3.4.2-.2.2-.2.2.2 0 .5 2.5 3.3 3 3.3.1 0 .2.1.2.3 0 .3-.2.3-1.4-.3zm1.2-1.6c-1-1.5-1-1.7-.5-1.7.2 0 .6.6 1 1.4.8 1.6.9 1.7.5 1.7-.1 0-.6-.6-1-1.4zm4.1-.5c-1.4-1.3-1.8-2-1.8-3.1s.4-.8.8.7c.2.8.7 1.4 1.4 2 .6.6 1.2 1 1.3 1 .1 0 .2.1.2.3 0 .5-.7.2-1.9-.9zm40.8 6.8c0-.3-1-.9-1.4-.9-.3 0-.1.6.3 1 .6.4 1.1.4 1.1 0zm-.4-1.8c.4-.2.4-.4.2-1-.3-.9-1.2-1-1.6-.2-.5 1-.4 1.3.8 1.5 0 0 .3 0 .6-.3zm2.2-.5c0-.6-.2-.9-.6-1-.6 0-.9.4-.7 1.2 0 .5.3.7.8.7s.6-.1.5-.9zm-4.7-.5c0-.6-.1-.7-.5-.7-.7 0-.9.3-.4 1 .6.8 1 .7 1-.3zm2.7-2.6c0-1 0-1-1-1-.9 0-1.1 0-1.2.5-.3 1 .1 1.5 1.6 1.5.5 0 .6 0 .6-1zm-2.8-.1-.1-.8c0-.1-.3-.2-.6-.1-.8 0-1 .8-.4 1.4.6.5 1.3.2 1.1-.5zm-51-3.2c2-2.4 3-4.3 3.2-5.8.1-1.4 0-1.5-.6-.4-.5 1-1 1-.9.2.3-1.5 1.5-4.2 2.3-5.4l2.8-3.8 1.8-2.5 1.2.2a6 6 0 0 1 3.3 1.8c1 .9 3 1.4 4.3 1.2 1.7-.4 2.5-1 3-2.1.3-.7.9-1.5 1.4-2 .5-.4 1.1-1 1.4-1.5.7-1 1.1-3.9.7-3.9-.2 0-.3 0-.3-.2 0-.1-.4-1.2-1-2.3-.8-1.8-1-2.4-1-4.4 0-1.3-.2-2.8-.4-3.3-.4-1.2.2-4.9 1.3-7.3.8-2 1.3-2.5 2-2.2.5.2.4.3-.4 1.2-1.2 1.2-2.1 4-2.2 6.4 0 1.5.1 2 1 3.7a8.7 8.7 0 0 0 1.7 2.6c.9.6.7 1-.4.4-.9-.4-1.4-.5-1.4-.1 0 .8 2.3 4.8 3.5 6l1.3 1.3 1.5-.2 3-.6a13 13 0 0 1 2.1-.4c1.1 0 1.6-.7 1.8-2.4.3-1.8 1.4-3.8 2.2-4 .7-.2.7-1.3 0-1.3-.3 0-.6-.1-.6-.3 0-.1-.3-.2-.7-.2-.4 0-1 .4-1.9 1.2-1.3 1.3-2.2 1.6-1 .4.4-.4.7-1 .7-1.2 0-.5 0-.5-1.2 0-1 .3-2.2 1.6-3 2.8-.2.4-.6.7-.8.7-.4 0 .2-1.2 1.1-2 .4-.4.7-.8.7-1 0-.2.5-.7 1.2-1l1.2-.9c.3-.2-.7-.6-1.1-.5-.7.3-.6-.3.2-.8.6-.5.7-.8 1-3 .2-2.6.2-4.7-.2-5.8-.2-.4-.1-.6.2-.6.4 0 .5-.1.3-1 0-.8 0-1.3.3-1.7.6-.9.3-1.9-.6-2.5-.6-.4-.7-.4-1 0-.3.5-.4.5-1 .1-.3-.2-1-.4-1.6-.4-1.2 0-3.6.9-4.2 1.6-.5.6-.9.6-.6 0 .1-.5 1-1 3-2 2.4-1.3 6-.6 7 1.2.1.4.4 2 .5 3.8l.3 5.1c.2 2.2 0 3-.5 3.6-.4.4-.4.4 0 .8.2.2.4.6.4.9 0 .3.1.6.3.8.3.3 1.7 0 2.2-.4a20.2 20.2 0 0 0 1-13.5c-.2-.5-.3-1.3-.3-1.7 0-.5-.2-.8-.4-.8-.4 0-1.5-1.7-1.5-2.3 0-1.2 2.3 2.2 3 4.4.7 2 1 4.8 1 7.5 0 3.2.1 6.7.3 7 .1.2.7.4 1.3.5 1.4.2 2.1.7 3.8 2.4 2 2 2.4 3 1.2 3-.7 0-.9.4-.5 1.2.7 1.6-1.2 2-4.3 1a8.6 8.6 0 0 0-2.7-.5c-.3.1-1.1.8-1.9 1.6-.8 1-1.4 1.5-1.8 1.5l-.9.2c-.4.4-2.7.9-4.6.9-2.9 0-3.5.2-3.6 1 0 .5 0 .8.6 1 .9.5.8 1 0 .7-1.1-.2-.6.2 1 .9l1.5.8c.1.6-1.1.3-2.8-.6-1-.5-1.7-.9-1.7-.7 0 .8.7 1.6 2 2.2 1.4.6 1.8 1 1 1-.5 0-3.2-1.3-3.7-1.8-.6-.7-1-.7-.6 0l1.4 1.1c1.5.9 1.6 1.3.2.8-.6-.3-1.2-.4-1.3-.3-.3.4 1.4 1.8 2.8 2.2 1.3.4 1.9.8 1.6 1.1a16 16 0 0 1-4.3-1c-.3-.2-1-.4-1.4-.4-.4 0-1.2-.3-1.8-.5-1-.5-1.7-.4-1.7.1 0 .2.2.3.4.3.4 0 3 1.8 3.2 2.2.2.2 2 1.4 3.3 2.1l1.6.9c.8.5 3.7.5 6 0l2.6-.3c1.3.3 2.6 0 3.6-1 .4-.4.8-.8.7-.9l-1.8.6c-2 .8-2.8.8-2.6.2 0-.4.4-.5 1.2-.7 1.6-.2 2.5-.5 3.8-1.6 1.5-1.2 2.2-3 3.1-8 .4-1.7 1-3.1 2-3.5 1.3-.7 2.1-5.2 1.3-7.9l-.5-2c0-.2-.3-.4-.7-.5-1.2-.3-2.6-1-3-1.7-.6-.8-.3-1.9.4-2.3.7-.4 1 0 .6.7-.5 1 0 1.6 1.2 2 1 .2 1.2.2 1.5 0 .4-.3.5-.3.8 0 .4.6.7.7.7.2 0-.4-1.7-2-2.2-2 0 0-.3 0-.4.2-.2.4-.6 0-.6-.6 0-1 .7-1 2.1.1l1.4 1 .2-1.1c.1-1 0-1.1-.4-1-.3 0-.8-.2-1-.5-.4-.4-.7-.5-1.3-.4-1.2.3-1.6-.2-1.4-1.9.1-1 0-1.4-.1-1.4-.2 0-.3-.6-.3-1.8 0-2.1-1-5.5-2.4-8-.5-.7-.7-1.5-.7-1.5.4-.4 1.7 1.5 2 2.6L97 46l1.4 3.5c.8 2.3 2.3 4.8 2.9 4.8.7 0 1.2 1 1.4 2.7a10.7 10.7 0 0 0 .7 3.2c0 .3.3.5.4.5.2 0 .3-.2.1-.6a5 5 0 0 1 0-3.5l.4-2.5c0-1.1.4-2.1.8-2.1v1c-.5 3 1.3 7.8 3.3 8.4.3 0 .7.3 1 .5l2 .8c1.5.5 2 .5 3.6.4 2.4-.3 3.8-.7 5.3-1.5 1.1-.7 1.7-1.4 1-1.4-.4 0-.1-2 .3-2.2.2-.1.6 0 1 .4.8.8 2.7 1 4.6.7a4 4 0 0 0 2.3-1.2c1-1 1.4-1.1 1.6-.6.1.4 1.2.1 2-.5.3-.3.4-.4.1-.5-.5-.2-.4-.7.2-1 .3-.3.6-.8.7-1.3.1-.4.4-1.2.7-1.6.2-.4.4-.9.3-1h-1.2c-1 0-1.3 0-2.7-1.3l-1.7-1.3c-.2 0-.8 1.2-.8 1.5h.4c.5 0 .5.4 0 1-.2.3-.4.4-.5.2-.1-.2-.3-.3-.5-.2-.5.4-.7-.2-.4-1 .7-1.6.8-3.6.4-4.1l-1-2a26 26 0 0 0-1.8-3.3 8 8 0 0 1-1.1-2.2c0-.2-.6-.8-1.3-1.3-.8-.4-1.4-1-1.5-1-.3-.5.2-1.1.8-1.1.6 0 3.2-2.3 4.3-3.8 1.3-1.7 1.3-3.2 0-2.5-.4.2-2 .3-4.2.4-2.4 0-3.9.2-4.6.4-1.1.4-1.5 1-.8 1.2.2 0 .4.3.4.5s-.5.3-2.1.3l-4.4.3c-1.7.3-2.7.3-3.7 0-2-.4-3.8-.5-6.3-.2-4.4.4-6 .7-7.4 1.3-.8.5-2 .8-3 .9-4 .3-6.2.9-8.7 2.1-.7.4-1.5.7-1.8.7-1.2 0-8.1 5.3-10 7.5-.3.4-.3.4-.7 0-.4-.3-.5-.3-1 0l-1.6 1.2-1.5 1.2c-1.5.9-5.2 4.5-5.2 5 0 .4-2.5 4.5-3 5-.4.3-1.3 1.7-2 3.1a77.2 77.2 0 0 1-2.4 4.8l-.4.8c-.2.1-.4.5-.4.7 0 .3-.5 1.4-1 2.5l-1 2.4-.1.7a33.6 33.6 0 0 0-1.1 10 92.4 92.4 0 0 1-.2 14.5c.4.8 1.2.4 2.8-1.6zm32.5-11.5c-1.1-.3-3-1.3-3-1.6 0-.4.3-.3 1.3.3.6.3 1.9.6 3.5.8a8 8 0 0 1 2.5.5c0 .3-3.2.3-4.3 0zm5.1-3.5c0-.1.2-.2.5-.2l1.2-.4c.9-.5 1.2 0 .4.5-.7.5-2 .6-2 .1zm1.3-2-.8-.7c0-.3 2.1-.2 2.2.2.2.4 2.8-.8 3-1.3 0-.2.3-.4.5-.4 1.1 0-.2 1.3-2.1 2-1.6.8-1.9.8-2.8.2zm-19-2.9c-1.3-.2-1.4-.3-1-.7.1-.3.5-.4 1.2-.2.9.1 1 0 .8-.7l-.4-1.3c-.1-.6 0-.7.9-.6.8 0 1 .2 1 .6 0 .3.1.8.3 1 .1.4 0 .7-.6 1.3-.7.8-.9.8-2.2.6zm12-14c0-.1.1-.6.4-1.1.3-.8.4-1.8.4-4.5 0-3 0-3.5.3-3 .2.2.4.7.4 1l.1 2.1c0 1 0 2-.4 3a11 11 0 0 0-.5 2c0 .4-.4.7-.6.5zm11-1.8c1.5-2.6 2-3.5 2.2-4.8.3-1.5.7-2 .7-.7 0 1-.9 3.3-1.5 4.2-.3.4-.6.8-.6 1 0 .3-.8 1.2-1.2 1.2 0 0 0-.4.3-.9zm22.2.5.8-1c.4-.6.9-1.4 1-1.9 0-.5.3-1 .4-1 .3 0 .2 1.6-.1 2.6-.2.4-.1.3 0 0 .3-.4.6-.7.8-.7.4 0 .4.2-.2 1.1-.5.6-.7.7-1 .5-.2-.2-.4-.2-.7.1-.4.4-1 .6-1 .3zM123 57c0-.1.5-.9 1.2-1.6 1-1 1.3-1.3 1.3-1 0 .6-2.3 3-2.5 2.6zm-.1-1.9c1-2 1.3-2.5 1.6-2 .2.3-1 2.2-1.4 2.2-.2 0-.3 0-.2-.2zm-.7-2.2c.2-1.6.3-1.8.7-1.8.5 0 0 2.9-.5 3-.3.2-.4 0-.2-1.2zm-28.7-1.6c0-2.2-1-4.8-3.4-9-.8-1.4-1.5-3.3-1.7-4.4-.4-1.7.3-.8 1.7 2.4l1.8 3.6c1.2 2 2.1 5 2.1 7 0 .9-.1 1.5-.3 1.5-.1 0-.2-.5-.2-1.1zm24.1 0c-.7-.4-.6-.7.3-1.4.9-.6 1.8-.4 1.8.5 0 .5-.2.8-.7 1-.4 0-.7.2-.7.2l-.7-.3zm9-1.1c0-.6.4-1.5.8-1.5s.2.7-.3 1.3c-.5.6-.5.6-.5.2zm-20-1.3c-1-1.1-1.2-2.1-.4-2.3.3 0 .7.3 1 1 .4.8.7 1 1.2 1 1.2 0 2-.4 2.4-1.3l.8-1.3c.6-.5 2.8-1 4.1-1 1 0 1 0 1.2-2.2.3-2.6.2-4.5-.2-4.7-1-.7-3.1-.1-5.4 1.3-.7.5-1 .5-1.4.3-.4-.3-.7-.2-1.9.5-1.2.8-2 1-2 .4 0-.3 2-1.7 2.5-1.7.2 0 1-.3 1.7-.7a7 7 0 0 1 1.8-.6l1.2-.4 1.6-.4c2.8 0 3.4 1 3.1 4.5-.3 3.5-.2 4.1.7 3.3.6-.5 1.5-.5 1.5.1 0 .2-.3.5-.6.7a6 6 0 0 0-1 .6c-.3.3-.4.3-.6-.1-.3-.4-.3-.4-1 0a9 9 0 0 1-1.9 1c-.7.3-1.6.9-2 1.3-.8.6-3.9 1.8-4.9 1.8-.2 0-.9-.5-1.4-1zm11.2.3.4-1c.5-1 1.4-1.5 1.8-1.1.4.4 0 1.5-.7 1.7l-1 .3h-.5zm8.6-1.6.1-.4c.2 0 .3 0 .3.3 0 .4-.1.5-.4.1zm-4-2.3c0-.4 1-2.2 1.3-2.2.4 0 .2 1-.4 1.7-.7.7-1 .9-1 .5zm-1.4-1.7.4-.8c.3-.1.6-.6.7-1 .2-.6.7-.7.7-.2 0 .5-1.2 2.3-1.5 2.3-.2 0-.3-.1-.3-.3zm-24.2 40c1-1.7 1.6-3.8 1.9-6.7.1-1.5 0-2-.1-2-.2.2-.4.7-.5 1.2-.5 2.7-1.2 5-2.2 6.7-1.2 2-1.4 2.5-1.2 2.8.4.3 1.3-.6 2.1-2zm-50.2.7c0-.4-.9-.8-1.3-.5-.4.2.2.9.9.9.2 0 .4-.2.4-.4zm57.4-.5c-.1-.2-.2 0-.2.3 0 .4.1.6.2.4v-.7zm-61.6-1.2c.9-.5 1-.5 1-.2s.2.4.4.3c.1-.1.2-.4 0-.6 0-.2.2-.8.6-1.3 1.2-1.8.8-5.1-.6-5.1-.3 0-.6.1-.8.3-.4.4-.4 2 0 2.3.7.5.6 2.1-.2 3.1-.4.5-.8.9-1 .9-.2 0-.7.3-1.2.7l-.7.7.7-.2a11 11 0 0 0 1.8-.9zm61.6-.4c-.1-.2-.2-.1-.2.2 0 .3 0 .4.2.3v-.5zm12-2.8c0-.7-2-5.1-2.4-5.3-.2 0-.8-.6-1.4-1.2-.7-.8-1.2-1.1-1.8-1.1-.7 0-.8 0-1.2.9-.5 1.2-.5 1.8.1 2.2.3.2.6.6.8 1 .3.6 1.1.8 1.1.3 0-.9 1.5.3 2 1.7.5 1 2.8 2.3 2.8 1.5zm-9.9-4.7c.4 0 .7-.4.8-.8 0-.4.3-1 .5-1.3.5-.8 0-.8-.6 0-.3.4-.8.7-1.2.8-.9.2-1.7 1-1.4 1.5.1.2.4.2.8.1l1.1-.3zm-1.7-1.8c1.2-1.3 2.2-3.2 1.8-3.6-.2-.2-.3-.1-.5.4-.3.8-1.6 2.8-2 3.1-.2.1-.5.2-.6.1-.5-.2-1.7.6-1.7 1 0 .2.4.5.9.6.7.2.9.2 1-.2.1-.3.6-.9 1.1-1.4zm-1.3-1.4c.8-1 1.2-1.5 1.2-2 0-1.1-.5-.7-1.4 1-1 2-1.5 2.1-1.5.6 0-1.2-.1-1-.7.8-.3.8-.3.9.4.9.5 0 1-.4 2-1.3zm-5.5-2.2c0-.2 0-.5-.4-.9-.3-.3-.5-.7-.5-.9 0-.4.9-.8 1.4-.7.8.4.4-.3-1.3-2L95 63.3l-2.2.1h-2.1v1.3l-.4 2.3c-.1 1 0 1.1.3 1.1.2 0 .4-.1.5-.3.3-.4 1.1-.3 1.9.3 1.4 1.2 4.1 2 4.5 1.3zm-8.8-.7c.3-.6.2-1 0-.7-.4.1-.6 1.2-.3 1.2l.3-.5zm.1-1.7c0-.2-.1-.2-.2.2 0 .2 0 .4.2.3v-.5zm12.9-.6-.1-.6c-.2 0-.3.1-.3.4 0 .7.2.7.4.2zm-53.3-3.4c0-2-.6-7.6-.8-7.6-.6 0-.5 8 0 8.7.6.6.8.3.8-1zm53.5.3c0-.9-.4-1.4-.8-1.2-.3.2.2 2.3.6 2.2.2 0 .3-.5.2-1zm-11.4-.9c0-.2-.1-.3-.3-.3-.1.1-.3.3-.3.5l.3.2c.2 0 .3-.2.3-.4zm-58.8-1.5c.2-.6.3-1.7.2-2.3 0-1-.1-1.2-.6-1.2-.4 0-.5.2-.7 2.2V62c.3.5.7 0 1-1.2zm-20-.6c-.1-.3 2.6-.7 6-.7 1.2 0 1.6 0 1.5-.3 0-.2-.5-.3-1-.3-2.4 0-6.3.3-6.6.5-.3.2-.3 1.2 0 1.2.2 0 .2-.2.1-.4zm93-1.5-.5-1c-.3 0-.3.3.2 1.3s.7 1 .3-.3zm-70.1.4.4-.9c0-.6.2-.6.5.6.2.5 1.2.6 1.3.1 0-.7-.1-1.4-.4-1.5-.5-.4-2.1-.3-2.8.2-1 .6-.7 1.4.5 1.6l.5-.1zm66.7-3.4-.2-.3c-.2 0-.3 0-.3.2 0 .1.1.2.3.2h.2zM34.6 55c.7-.2 1.4-.3 1.5-.2.2.2 1.2-.2 1.2-.5 0-.4-1.2-.6-3.9-.5-1.7 0-2.9.1-3.2.3-.5.3-.6.3-1 0-.5-.5-1.6-.5-7.3-.2a360.3 360.3 0 0 1-11 .7v.7c.2.4 1 .4 11.2.3 8.3-.1 11.4-.3 12.5-.6zm-17.7-2c.3-.3 1-.5 2.6-.6 2.1-.2 2.2-.2 2.4.4.1.5.2.6 3.3.4a61 61 0 0 0 3.3-.3l.2-3.9.1-3.8-1.5-.2a111.8 111.8 0 0 0-10.8-.2H12v3c0 1.9.1 3.1.3 3.2.1.1.2.5 0 1-.2 1.2.3 1.6 2.4 1.6 1.5 0 2-.1 2.3-.6zm-1.8-.5c0-.6 1.2-1 3.4-1.3 2.4-.3 4.3-.2 4.4.2.1.2-.4.3-2 .3a17 17 0 0 0-5.4 1c-.3 0-.4 0-.4-.2zM26.4 49l.2-3.2c.4-1 .6-.2.6 2.8 0 2.6 0 3.2-.4 3.2-.3 0-.4-.6-.4-2.8zm-13 1.2c-.1-.1-.1-.3 0-.4l8.9-.5c1.7 0 1.8 0 1.7-.5 0-.6-.1-.6-4.9-.5-6.2.1-6.6-.4-.5-.6 5-.2 5.4-.3 5.5-1 .1-1 .6-.7.8.4.2.7.2 1.1-.2 1.6l-.4 1c0 .6-.7.9-1.2.5a60.4 60.4 0 0 0-9.8 0zm5.1 3s-.1-.2-.3-.2c-.1-.1-.2 0-.2 0 0 .2 0 .4.2.4s.3-.1.3-.2zm13.3-.7c0-.3-.4-.3-.6 0 0 .2 0 .3.3.3l.3-.3zm3.2-3 .3-3.9c.2-.6.1-.7-.4-.7-1.3 0-1.5.4-1.8 3.7l-.5 3.5c0 .4 0 .5 1 .5h1.2zm2 0c-.2-6.2-1.2-6-1.3.4 0 1.8.3 2.4 1 2.4.5 0 .5-.3.4-2.7zm-5-1c.2-1.3.2-1.8 0-1.7-.3 0-.4.8-.4 2 0 2.4.3 2.2.5-.3zm12.7.3c0-.4-.1-.7-.3-.7-.1 0-.2.5-.2 1.2 0 1 .1 1.1.3.7l.2-1.2zm-34.2 0c-.1-.2-.2 0-.2.3 0 .4.1.5.2.3V49zm34.2-9.1c0-5-.1-7.5-.3-6.9-.4 1.9-.2 14.7.2 14.7v-7.8zm-12.2 5.8c0-.2 0-.3-.2-.2-.2 0-.2.3-.2.4.3.4.4.3.4-.2zm-21.1-3c0-.3-.2-.5-.4-.5-.2.1-.3.8-.4 1.8v1.7l.4-1.1.4-1.9zm16.2.8 4.2-.5c.2-.1.6-.1.8 0 .6.3 5.1 0 4.8-.3-.3-.3-3.4-.4-10.6-.3H19c-1.2-.2-3.2-.2-4.5 0l-2.4.2 1.2.4c2.7.8 8.2 1 14.4.5zm1.4-2c.3 0 .4-.7.3-2.4 0-1.3 0-3 .2-3.9l.2-1.5h-.9l-.9.1.1 2.4c0 1.9 0 2.5-.3 2.8-.6.5-.7 0-.5-2.5.2-1.6.1-2.5 0-2.6-.4-.2-6.2-.5-6.6-.3-.1 0-.2.4-.1.7.2.7 0 1.9-.5 1.7-.2 0-.3-.5-.2-1.3v-1.3h-1l-1 .2V36c0 2 0 2.5-.4 2.5-.3 0-.4-.5-.4-2.5v-2.5h-1c-2 .1-2.8.4-3 1-.2.4-.4 1.8-.5 3.3-.1 2.5-.1 2.6.4 3 1.3.6 14.7 1.2 16.1.6zm-15.2-2 .2-2c0-.9 0-1.2.3-1 .4.4.2 3.6-.3 3.8-.3 0-.3-.1-.2-.8zm20.8 1.7.8-.1v-2.5c0-1.5 0-2.6.2-3 .3-.4.4 0 .3 2.4v2.8l.8.2 1.2-.1c.8-.8.8-6.2 0-6.6-.7-.4-2.6-.6-3-.4-.1.1-.4 1.4-.5 3-.3 3.3-.4 3.4-1 3.4-.4 0-.4-.2-.2-1.8.3-3 .3-3.8.2-4.2-.5-1.3-1.4 3.6-1 5.9.2 1.3.4 1.4 2.2 1zm-22.4-4c0-.5-.2-.8-.3-.7-.2 0-.3.5-.3 1 0 .4.1.7.3.6.1-.1.3-.5.3-1zm17.4-20.5c0-1.8 0-2.8-.2-2.7-.2 0-.3 1.4-.3 3 0 2 0 3 .3 2.8.1 0 .2-1.4.2-3zm8.1.4V18.3 17zm-5-6.5c0-.4 0-.5-.2-.3s-.2.5-.1.6c.3.5.4.4.4-.3zm153 138.9c-.3-.4-.4-.8-.3-1a30.1 30.1 0 0 0 .6-6.8c0-2 .3-5 .5-5.7.2-.5.3-1.5.2-2.3l.1-4.6.4-13c0-7.5.2-10 .4-10.4.3-.3.4-.3.7.4.2.4.3 1.1.3 1.5 0 .6.1.7.3.5.7-.6 1.4-14.6.8-14.6-.3 0-1.3 2.8-1.3 3.7 0 .5-.1.6-.3.3-.2-.2-.2-.5 0-1 .1-.5.2-1.3 0-1.9 0-.8 0-1.1.5-1.6.7-.7 1.2-2.5 1-3.2-.1-.3 0-.7.1-1 .4-.4.4-.7.7-11.7l-.1-9a12 12 0 0 1-.3-4.8 166.6 166.6 0 0 0 .7-11c.2-.1.3-.7.4-1.3.2-1 .2-1.2-.3-1.3-.8-.2-.7-.6 0-.7.6 0 .6-.3.8-2.2a371.7 371.7 0 0 0-.1-29.2c-.3-.3-.4-.7-.2-1.7a49.8 49.8 0 0 0 .7-13.3c.1-.4 2-.7 2.4-.3.4.3.4 1.5 0 2.5a167 167 0 0 0-.7 26.6c.4 6 .3 7.5-.2 9.4-.2.7-.3 1.6-.2 2 0 .2 0 .6-.2.8-.2.3-.2.7 0 1.6v2.7l-.5 4.7-.5 5.4c-.2 1.3-.4 8.5-.4 16a710.4 710.4 0 0 1-1 30.4l-.4 2.7c-.3.5 0 18.2.3 21.3.3 2 .4 5.7.4 11.2 0 7.3-.1 9-.6 8.2L190 136c0-7.5-.2-11.5-.4-11.7-.2-.2-.3-2-.3-4.8l-.2-6-.2-1.4-.2 2-.2 8.7c0 6.8-.3 11.4-.9 13.6-.5 1.7-1 8.3-.8 11 .1 1.2 0 2-.1 2.3-.5.5-.6.4-1.2-.3zM193 14c0-.1-.1-.2-.3-.2-.1 0-.2 0 0 .2 0 .2.1.3.2.3l.1-.3zm-11.5 135.2a113.9 113.9 0 0 0 0-12.3 86 86 0 0 1 0-14c.2-.1.3.4.3 1l.1 4.3a104 104 0 0 1 0 21.1c0 .1-.3 0-.4 0zm-4-7.2c0-3.5 0-6.7.2-7 .2-.8.3.5.3 8.4 0 3.3 0 5-.3 5-.2 0-.3-1.8-.3-6.4zm-7.8.7c0-1.2.1-2.2.3-2.2.3 0 .6 2.8.4 3.7-.3 1.5-.7.8-.7-1.5zm-49.3 1.6.2-.8c0-.4-3-.4-6 0l-3 .2a385.8 385.8 0 0 1-10.7-.6c-1.8-.6-1.1-.8 1.6-.6l10.6.2c4.5 0 8.3 0 8.5.2.2.1.2.3 0 .8-.5 1-1.6 1.5-1.2.6zm53-2.7v-5.8c0-3.3 0-4.4.4-4 .2.2.4 8.7.2 10.4-.2 2.2-.5 1.8-.6-.6zm-75.6.5c-.4-.2-.4-.3 0-.5.5-.4 3.6-.6 4.8-.4l1.1.2-1.8.3-2.8.5-1.3-.1zm118.1-.7a3 3 0 0 0-1.5-.4c-1.1 0-5.5-1.3-6.3-2-.4-.2-1-.5-1.6-.6-2-.5-3.6-2.7-2-2.7.2 0 .4.1.4.3 0 .2 1.2.8 2.5 1 1 .3 1 .2 1.3-.6l1.6-2.4a12 12 0 0 0 1.4-2c.1-.4.3-.5.8-.4.7.2 1 0 .6-.7-.3-.6-1.5-.6-3 0-.6.4-2 .8-3.2 1.2a11.7 11.7 0 0 0-3 1c-.4 0-.4-1 .1-1.2.6-.3.5-.5-.3-.9-.7-.3-.8-.9-.2-1.3l.4-.8c0-.3-.2-.3-1-.2-1 .2-1.1.1-1.4-.3-.2-.4 0-.7.7-1.3 1-.8 2.3-1.3 5.7-2 2-.5 10.2-.7 11.7-.3 1.1.2 2.2 1.3 2.4 2.4.2 1-.9 3.6-1.6 3.9-.2 0-.3.2-.3.4.1.1 0 .4-.4.5-.6.4-1.7-.2-2.1-1.2a3 3 0 0 0-1-1c-.6-.5-.7-.5-1 0-.6.8.2 3 1 3 .2 0 1 .6 1.6 1.2 1.4 1.3 1.7 2 1.4 4.3-.1 1.7-.1 1.7-1 1.8-.4 0-.6.2-.7.8-.2 1-1.1 1.2-2 .5zm-.1-3.4.2-1.8c.2-.6.2-.7 0-.7-.3 0-.5.2-.5.6l-.4 1.2c-.5.7-.3 1.9.3 1.9.3 0 .4-.3.4-1.2zm-4.2-2.5c.5-.8.7-1.4.7-1.5-.2-.2-2 2.3-2 2.7 0 .8.6.2 1.3-1.2zm6.1.4c-.2-.4-.6.3-.4.8.2.4.2.4.3 0 .2-.3.2-.7.1-.8zm2-7c0-.2-.1-.3-.4-.3-.7.2-.7.8-.1.8.3 0 .6-.2.6-.4zm-5.3-.2c.1-.3-.9-.6-2.3-.6-1.5 0-2.4.2-2.4.6 0 .4 4.6.3 4.7 0zm-81.7 9c0-.2.2-.4.4-.4s.4.2.4.4-.2.4-.4.4a.4.4 0 0 1-.4-.4zm34.6-1.2a32.7 32.7 0 0 0-3.1-2.5c-.4-.4-.8-.6-1-.6l-.8-.6-1.7-1.2a30 30 0 0 1-3.1-2.7 20 20 0 0 0-3.6-3c-1.2-1-1.3-1-4.3-1.2-1.6 0-3-.2-3.1-.4-.3-.4.5-.5 2.4-.2 1.1.2 2.1.2 2.2 0 .3-.1-1.9-1.9-4.7-3.8-1.8-1.2-3-2.3-3-2.7 0-.7.6-.4 2.3 1a83 83 0 0 0 8.5 6.4c1.6 1 3.7 2.7 4.6 3.5a53.8 53.8 0 0 0 8 6c.1.3.6.6 1 .8 1.1.4 1.4.8 1.2 1.3-.3.6-1 .6-1.8-.1zm-69-.7c-.8-.2-.8-.2-.5-.5.5-.4 2-.2 2.1.3 0 .3-.4.4-1.6.2zm80.1 0v-.5l.4-2.2a392.7 392.7 0 0 1 1.3-11.3l.4-3.2.9-14.3c.1-3 .3-5.5.5-5.8.2-.3.2.8.2 4.6a222 222 0 0 1-2.4 28.8l-.6 3.8c0 .3-.6.4-.7.1zm-93.6-.4c-.2-.3-.2-.4.2-.6.4-.1 1.4.3 1.4.7 0 .4-1.2.3-1.6-.1zm6.7.1c-.7-.4.3-.8 1.6-.6 1.4.1 1.7.6.3.6l-1.2.1h-.7zM62 135c-1-.4-.4-.5 2-.3 1.5.1 2 .2 1.5.4-.7.2-2.7.2-3.5-.1zm10.6 0c0-.1 1.4-.2 3-.2 1.7 0 2.9 0 2.7.1-.6.2-5.7.3-5.7.1zm104-1.2c-.2-3 0-11 0-11 .4 0 .6-2.3.4-2.6-.6-.8-.7-1.5-.1-1.7.2 0 .5-.4.5-.6 0-1 .5-8.3.7-9.6.2-1.3.6-2 .7-1.1a130.6 130.6 0 0 1-1 18 211 211 0 0 0-1 9.6l-.2-1zm22.9.5c-1.1-.7-1.6-2-1-2.9.5-.7 1.4-1.1 2.2-1 .6.2.7.5.1 1s-.4 1 .6 1.4c1 .4 1.1.9.4 1.5-.6.6-1.3.6-2.3 0zm-28.3-4.1c-.5-.4-.5-.4 0-1.4.7-1.4 1.1-1.4 1.2 0v1.5c0 .3-.6.3-1.2-.1zm13-.5-.2-3.5-.2-4.9a5.9 5.9 0 0 1 0-2.4c.2-.4.3-.3.6 1v-1.4c-.6-9.6-.6-16.5 0-28.2.6-10.3.8-12.4 1-12.3.4 0 .4 6.5.1 9.3a201.8 201.8 0 0 0-.1 29.6c.3 3 .3 7 0 7.4-.2.2-.3.1-.3-.2 0-.2-.1-.5-.3-.6-.1 0-.2.7 0 2.2 0 2.4-.2 4.9-.6 4zm-21.9-3.1c0-.2.2-.2.3-.2l.3.3-.3.1c-.1 0-.3 0-.3-.2zm-5.8-1-7.1-5.9a40.6 40.6 0 0 0-5.5-3.5l-1-.8-2.5-1.9c-2-1.5-4.4-2.9-5.3-3.2-.4 0-1.4-.8-2.3-1.7l-1.7-1.5.3-6 .4-8.7.3-14.8c.1-13.2.5-18.9 1.1-18.9a62.7 62.7 0 0 1 0 12.8c-.1 1.3-.2 3.1-.1 4.5.2 3.5.2 4 .1 5l.3 4.3c.5 4.8.4 6.5-.2 7.2-.4.4-.4 1.1-.5 6.6l.1 6.5c0 .2.4.4.8.5.4 0 1 .4 1.4.7l1.4 1.1a61.4 61.4 0 0 0 12.4 10.3 79 79 0 0 1 5 3.6l2 1.4c.5.4 1.2.7 1.4.7.4 0 .5.2.5 1 0 .6 0 1.2-.2 1.3-.1 0-.7-.2-1.1-.7zm2.1.2c0-.3.2-.5.3-.4.1 0 .3.3.3.5s-.2.4-.3.4c-.1 0-.3-.2-.3-.5zm-13-.4c.1-.3.2-.4.2-.2v.5l-.1-.3zm24.1-.1c0-.2.2-.4.3-.4h.3c0 .2-.1.4-.3.5l-.3-.1zm-158.7-1.5c0-.2.2-.4.5-.4l1.3-.2c1.8-.1 2-.2 3-.1.6 0 1 .1 1 .3 0 .3-1.1.5-3.6.7-1.9.1-2.2 0-2.2-.3zm107.8-.5-1-.4h2c1.7 0 2 0 2 .4 0 .5-1.5.5-3 0zm-70 0c-.3-.3 0-.7.6-.7.3 0 .4-.1.3-.4-.1-.3 0-.4 1.2-.2 1.3.2 1.9.6 1.3 1a8 8 0 0 1-3.4.3zm123.4-.9c-.4-.6-.3-5.4 0-5.8.1-.2.4-1.6.5-3 .5-6.5.7-8.5.9-8.7 0-.2.2-8 .2-17.4 0-9.3 0-17 .2-17.2.1 0 .3 0 .4.2v23.9a66.4 66.4 0 0 1-1 16.3l-.3 6.2c0 4.5 0 5.7-.3 5.8-.2 0-.5 0-.6-.3zm45.5-2c0-.4 0-.4.1-.2v.5s-.2 0-.1-.4zm-9.6-10.6c0-5.5.1-10 .2-10a106 106 0 0 1 .1 19.8c-.2.1-.3-2-.3-9.8zM24.3 119c0-.4.8-.8 1-.6v.5c-.2.5-1 .6-1 0zm82.5-1.2c-.1-.2 0-.4.4-.5 1-.2 3.5 0 3.4.3 0 .4-3.6.5-3.8.2zm103.9-2 .2-6c0-2.5 0-4.5.2-4.5.3 0 .5 2.9.6 7.8v4h-.6c-.6.2-.6.1-.4-1.4zm-10.7.9c0-.2.1-.2.3-.1l.2.2c0 .1 0 .2-.2.2s-.3-.2-.3-.3zm-20.8-3.2.4-2.8c.2-1.4.2-1.3.2 1 0 2-.1 2.7-.4 2.8-.3.1-.3 0-.2-1zM32 114c-.6-.2-.6-.2.1-.2l10.4-.2c8 0 9.7 0 9.6.2a172.4 172.4 0 0 1-20.1.2zm-9.8-.2c-.2 0-.4-.2-.4-.3 0-.2.5-.3 1.4-.2l3.3.2c1.1 0 2 0 1.8.2-.1.1-5.4.3-6 .1zm190.7-5.8c-.1-7 .7-25.7 1.2-26.3.3-.6.5 2.5.3 5.6-.3 3.7-.4 7.4-.7 15.2-.1 4.3-.1 5.8.1 6 .2.3.3 1.2.3 2.3 0 2.3-.2 2.7-.7 2.7-.4 0-.5-.5-.5-5.5zm-188 5c-.2-.2.2-.3.9-.3 1.2 0 1.3.1 0 .4l-1-.1zm3-.3c.2-.3.3-.3.5 0 .3.2.2.3-.3.3s-.5 0-.3-.3zm2.6 0c-.6 0-.6 0 .4-.4.7-.2 1.2-.3 1.8 0 .7.2.9.2 1.4-.5.7-.8.9-.8.8-.2 0 .4.3.5 3.4.5 4.2.1 5.2.6 1.3.6a828.2 828.2 0 0 0-9 0zm133.5-1.5c-.2-.1-.5-.4-.6-.7a9.3 9.3 0 0 0-4-2.3 5 5 0 0 1-1.9-1l-1.5-.8-.8-.6a9.2 9.2 0 0 0-3.7-2c-.9-.2-1.8-.8-2.4-1.4a6.1 6.1 0 0 0-2-1.3 3 3 0 0 1-1.3-1c-.3-.3-.7-.6-1-.6-.1 0-.9-.3-1.5-.7l-1.2-.7.2-1.7.1-4.3c-.1-12.4.2-29.1.6-33 .3-3.2.7-13.3.8-20 0-5.7.2-7.8.8-8.2.7-.4 2-.2 3.5.6a108 108 0 0 0 9.8 4.3c1.9.7 6.8 2.9 10 4.6 1 .5 2.1.9 2.6.9.6 0 1.1.2 1.4.5.3.3.8.5 1.1.5 1.3 0 2.5 2.7 2 4.5-.6 2.3-1.2 8.1-1.5 15a244.6 244.6 0 0 0-.9 29.7c.1 11.1.1 12.5-.3 12.4-.3 0-.4-1.2-.5-9 0-8.3.3-22.7.7-29.2.2-2.6.2-2.6-.4-2.8-.6-.2-.6-.2-.4-3.3 0-1.8.3-3.8.5-4.5l.3-1.3.1 2.2c0 2 0 2 .3.8 0-.7.3-2.3.3-3.6l.6-5.7c.4-2.8.4-3.4 0-3.6-.4-.3-.6-.3-.8.2l.1.8c.3.3.1 2.7-.2 2.7-.3 0-.6-1-.6-1.8 0-.5-.2-.8-.8-1a47 47 0 0 1-8.7-4.8 140.4 140.4 0 0 0-15.6-5.8 1575 1575 0 0 0 .2 39.6v9.4c.2.3.1 2.6 0 5l-.3 5.6-.2 4 .8 1.4c.5 1 1.1 1.6 2.2 2.2l3.5 2.2 6.1 3.3c4.7 2.4 5.5 3 5.4 3.7-.1.7-.5.9-1 .6zm-18.4-14.7v-1.2a736.6 736.6 0 0 0 .3-46.2c-.4-.4-.4-1.4.1-2.7.4-1 .4-1.7.2-5.1v-6c0-1.6 0-2-.3-2.2-.2 0-.4 0-.5.2a813 813 0 0 1-1 18.5c-.2 4.7-.3 7.2-.1 7.5.2.4.3 2.8.2 6 0 .5-.2 1-.3 1.2-.2 0-.1.4 0 .9.3.6.3.9 0 1.5-.7 1.4-1 7.1-.8 14.7.2 9.6.3 11.4.5 12.4.3 1.7.3 1.8 1 1.2l.7-.7zm70.2 8.7c.1-3.4.3-7.3.5-8.5l.2-6c0-3.5.2-4.6.8-4 .4.4.4 4.6 0 10.1a417.8 417.8 0 0 1-1.4 14.6c-.2 0-.2-1.6 0-6.2zM91 110.6c-.7-.5.2-.8 1.8-.6 1.3.1 1.4.1 1.3-.3 0-.4-.4-.5-2.8-.6-1.5 0-2.8-.1-2.9-.2v-.6c.2-.3.5-.4 2-.2 1.6.1 2 0 2-.2 0-.5-1.1-1.4-2-1.6-.7-.2-.7-.3-.4-.6.3-.4.2-.5-.4-1-.7-.6-1-1-.5-1 .1 0 .7.4 1.3 1 1 .8 1 .8 4.6 1 4.4.3 4.2.3 6.5 0 1.7-.2 2-.1 2 .2 0 .9-2.5 1.1-7 .7-4-.3-4.6-.2-3.5.8.6.6.8.6 4.4.6 2.4 0 3.8 0 3.9-.3 0-.1.4-.2 1 0 .7 0 1 0 1.2-.4.4-.6 1.3-.4 1.3.2 0 .3-.3.5-.7.5-.4 0-.7.1-.7.4 0 .3-.5.3-3.4.3-3.2 0-5.3.4-4.9.9h4.2c4-.2 4.7-.2 4.7.2 0 .2-1 .3-2.4.3-2.5 0-3.2 0-7.1.5-3.3.3-3 .3-3.5 0zm28-.4c-.3-.3.1-11.4.4-11.6.2-.2.2 1.3 0 4.5l.1 5.6c.3 1.3 0 2-.5 1.5zm4-4.2c0-1.5 0-4.7-.2-7.1l.1-4.4c.4 0 .6 3 .7 9.6.1 3.8 0 4.6-.2 4.6-.3 0-.4-.6-.4-2.7zm56.8 2.2v-1.5a145.6 145.6 0 0 0 .9-12.7l.4-4a281.7 281.7 0 0 1 1-13.7c.1-2.8.4-5.1.5-5.1.3 0 .3 3.2 0 6.7a536.4 536.4 0 0 0-1.1 13.4 700.6 700.6 0 0 0-1.4 17c0 .2-.2 0-.3 0zm-65.6-3c-.2-2.4-.3-18.3-.1-18.5.2-.2.4 5 .5 10a136 136 0 0 0 .3 9.9c-.3.7-.6.2-.7-1.5zm54.2 1.2a794.1 794.1 0 0 1 1.3-35.4c.6-8.3.7-9.3 1-10.7a70 70 0 0 1-.3 11.5c-.8 10.8-1 17.4-1 25.9s0 9.2-.4 9.2c-.2 0-.5-.2-.6-.5zm-51.8-6.3-.4-6.6c0-1.8 0-2.5.2-2.5.1 0 .3.4.3 1 0 .5 0 .9.2.9v-5c0-3.5 0-5 .3-5s.3.4.4 8.6c0 4 0 5-.3 5.2-.2 0-.3.4-.2.9l.2 3.7c.1 2.4.1 3-.2 3-.3 0-.4-1-.5-4.2zm70.9 4c-.2-.3 0-1.8.3-4 .2-1.4.2-1.2.2 1.2 0 2.5-.2 3.3-.5 2.7zm-75.4-1c-.2-.5-.5-18-.3-19.1.4-2.1.6-.6.5 3.5 0 2.5 0 7 .2 10v5.8c-.2.2-.4.1-.4-.1zm53.5-1.1c0-3 .3-16.4.7-22.9l.2-12c.1-5.6.3-10 .4-10 .6.2.5 12.9 0 23.9-.2 1.2-.3 6.5-.3 11.7-.1 8.4-.2 9.6-.6 9.7-.2 0-.4-.2-.4-.4zm-116.1-1.3c0-.4 0-.4.1-.2v.5l-.1-.3zm-24-.4c-3 0-4.2-.5-1.6-.6 1.8 0 5 0 5.3.2.2.2-.4.7-.6.6l-3.2-.2zm6.6 0c-.6-.2 0-.5 1-.6.4 0 1 0 1.2-.2.5-.3 1.4 0 1.4.4s-2.8.8-3.6.5zm88.9-1c0-1.3.4-1.4.4-.1 0 .6 0 1-.2 1s-.2-.3-.2-.8zm-79.4.5c-.3 0-.6-.2-.6-.4s.6-.3 2.2-.2c2.2 0 2.5.2 2.2.5-.2.2-3 .3-3.8.1zm-31.8-1c-.8-.2-1.5-.4-1.6-.6 0-.2.5-.3 2.2-.3 1.8 0 2.3 0 2.3.4 0 .3-1 .7-1.3.6l-1.6-.2zm21.3-.1c-.2-.3.5-.5 2.7-.6 2 0 2.5.1 1.7.6-.6.3-4.2.3-4.4 0zm-6.5-.5c0-.9 2-1.2 2.3-.4 0 .2-.1.4-.6.4-.3 0-.7 0-.8.2-.3.5-1 .3-1-.2zm-8 0c0-.4 1.8-.8 3.3-.8 1.8 0 1.5.3-.6.7-2.2.4-2.6.4-2.6 0zm26.7-.5v-.5c.5-.2.8.1.4.5-.2.2-.3.2-.4 0zm75.7-.5c-.2-.2 0-10 .2-11 .3-1 .5 2.5.4 7 0 3.8-.2 4.5-.6 4zm-89.4-2a94 94 0 0 0 7.9-.6c2.2-.2 3-.1 3 .1s-.2.4-.4.4a81 81 0 0 1-10.5.1zm111.4-2c0-.2.1-.3.3-.3.1 0 .2 0 .2.2s0 .3-.2.3a.3.3 0 0 1-.3-.3zm77.7-1.6c-.1-.2 0-.3.2-.3s.4.1.4.3c0 .1 0 .2-.2.2l-.4-.2zm-13.7-.8c-.1-.6.4-5 .6-4.7.2.3-.2 5-.4 5.1l-.2-.4zM161.5 87c.1-1.8.4-4 .6-5.1.3-1.8.3-1.7.2 2.5-.2 4.5-.3 5.8-.7 5.8-.1 0-.1-1.4 0-3.2zm-55.8 1a12 12 0 0 1 .1-4.7c.2 0 .3 1 .3 2.4 0 2.4 0 2.6-.4 2.2zm42.5-.9c-.2 0-.2-.2-.1-.4 0-.2.3-1.5.3-3l1.3-16.8.2-2.7v2.6c0 1.5-.1 5.6-.4 9.3l-.5 8.8c0 2.2 0 2.5-.8 2.2zM16.7 82.8c0-.5 0-.5 1-.5.9.1 1.2.2 1.3.6 0 .4-.1.4-1.1.4s-1.2 0-1.2-.5zm-6.7-1c0-.4 1.2-.6 8-.7 8.8-.1 16.7.1 16.9.6 0 .3-.2.4-1.5.2a305.5 305.5 0 0 0-23.4 0zm10.8-2.4L19 79H25c3.3.1 7.3 0 9-.1 3-.3 4-.1 3.1.5-.5.3-14 .3-16.2 0zm141.6-1c0-.6.1-1.1.3-1.1.1 0 .2.4 0 1-.1 1.3-.3 1.4-.3 0zm0-2.7c0-.6 0-.8-.4-.8s-.4-.1 0-.3c.7-.2.7 0 1.1-11.2a680.8 680.8 0 0 1 .3-6.4c0-.5.2-.9.3-.9a179.5 179.5 0 0 1-.7 19.6c0 1-.6 1-.6 0zm23-1.5c-.4-.4-.2-1.2.2-1.2.2 0 .4.3.4.7 0 .6-.3.8-.6.5zM21.2 68.9c-.2 0-.3-.3-.2-.4.2-.3 3.3-.3 3.3 0 0 .2-.4.3-1 .3l-1.4.1h-.7zm4-.3c0-.6 5-.7 5.1-.1.1.2-.5.3-2.5.3a8 8 0 0 1-2.7-.2zm161.2-1 .8-.4c.1 0 0 .2-.3.4l-.8.4c-.1 0 0-.2.3-.4zm-165.6-.3c-.3-.3 9.4-.9 9.8-.6.2.2.3.4.2.5-.2.2-9.8.3-10 .1zm116.8-7.2c-.5-.3-.4-3.5.1-6.3.1-.6 1-.9 1.3-.4l.2 3.2c0 2.7 0 3-.5 3.4-.5.4-.6.4-1 .1zm-92.8-.7c-.2-.2-.4-.5-.3-.6.3-.2 1 .2 1 .6 0 .5 0 .5-.7 0zm6.7-.9c-.2-.4 0-4 .2-4s.3.5.4 1.2l.4 1.7c.3.4-.1 1.3-.5 1.3-.2 0-.4 0-.5-.2zm98-2-.4-1.7c-.4-1.2-.4-1.9 0-1.9.5 0 .9 1.8.7 3-.1 1.3-.3 1.7-.3.7zm-100.1-.8c-.1-.2-.2-3-.2-6.2 0-3.3 0-7.2-.2-8.6-.3-2.8-.2-5.4.2-5.8a1526 1526 0 0 0 .7 15.8c.1 3.4-.1 5.4-.5 4.8zm4.6-5.2V40c0-4 0-7.8.2-8.4.2-.8.3-.4.3 2.3l.1 11.5c.2 7.3.1 8.3-.2 8.3-.4 0-.4-.5-.4-3.2zm-3.6 2.8.7-12.5c.4-6.8.4-23 0-28.9-.3-4.7-.2-9.2.3-9.2.3 0 .3 1 .3 3.5 0 1.9 0 5.4.3 7.8a216.6 216.6 0 0 1-.6 34.6c-.2 3.2-.3 4.7-.5 4.8l-.5-.1zM0 46.6c0-2.3.1-3.8.3-3.9.3-.2.2 7.2-.1 7.5-.1 0-.2-1.5-.2-3.6zm134 1.6c-.2-.4.1-3.2.4-3.4.5-.2.6 0 .6 1.5 0 1.4-.6 2.5-1 1.9zm56.2-1c0-.8.1-1.2.4-1.2.3 0 .3.3.1 1-.3 1.4-.5 1.4-.5.1zM61.8 45.7v-2.3c.2-1 .4-3 .4-4.1 0-1.2 0-2.1.1-2 .3.3.2 8.1 0 8.4-.3.2-.4.2-.5 0zm72-2.1c-.2-.2 0-1 .2-1.8.6-1.7.6-2.8.5-22.4a249.8 249.8 0 0 1 0-13.5c-.6-.4-.8 1.2-.7 7.6 0 4.7 0 6.5-.2 6.4-.4-.2-.2-15.8.2-17.5.2-1.1.6-1.4 1.2-.8.3.3.4.6.1 1.2-.2.6-.2 1 0 1.4a125.4 125.4 0 0 0 0 12.9 348 348 0 0 1 0 25.5c-.3 1-1 1.6-1.4 1zm-69.6-6c.1-3.4.2-4.1.4-3.8.2.3-.1 7.6-.4 7.6-.1 0-.2-1.2 0-3.7zM190.8 40c0-.8 0-.8.3-.3.2.5.2.7 0 1-.3.2-.3 0-.3-.7zm-143-1-.3-3.6c0-1.8-.1-3.4-.2-3.4-.1-.1 0-.4.2-.6.2-.2.3-.5.2-.6 0 0-.2 0-.3.2-.2.6-.9.4-.9-.3 0-.6.3-.9 1-1 0 0 .3 0 .4-.3.1-.2.3-.2.4-.1.1.1 0 .3-.2.5-.5.2-.5.3-.2.8.5.7.7 8.3.2 8.5-.1.1-.3 0-.4-.2zm167.8-1.6c0-.1.1-.3.3-.3l.2.3c0 .2 0 .3-.2.3a.3.3 0 0 1-.3-.3zm-1.2-1.5a49 49 0 0 0-2.2-.8 5 5 0 0 1-1.9-1c-.5-.5-.5-.7-.3-1.6.2-.6.4-5 .6-10 .5-16.1.6-17.2.9-19 .2-1.4.4-2 .7-2 .3 0 .4.4.3 1.6a61 61 0 0 0-.7 9.4c0 3.4-.2 6.2-.3 6.4-.1.2-.2 7.6 0 10l-.1 3.2c-.2 1-.2 1.3.3 1.7l1.2.4c1 0 3.5 1.3 3.5 1.7 0 .6-.6.5-2 0zM62.2 34.3c0-1.2 0-1.5.3-1.3.2.2.2.7 0 1.6l-.3 1.3zm160.6 1c0-.2-.6-.4-1.4-.6l-3-1c-2.6-1.1-4-1.5-4.6-1.2-.6.4-1 0-1.4-1-.1-.6-.1-1 .2-1.4.2-.4.4-2.1.5-5.6 0-2.8.3-6 .4-7.3.2-1.2.4-5.2.4-8.9 0-3.6.2-6.6.4-6.6.4-.2.8 5.2.5 7.6-.3 3.4-.8 15.7-.7 18 .2 3.3.5 3.7 4.3 5 3.5 1.4 3.9 1.4 4.1.4.2-.8.2-.8.8.9.4 1.3.3 2.1-.1 2.1-.3 0-.4-.1-.4-.3zM64.6 33c0-.3 0-.3.1-.1v.5l-.1-.4zm18.2.1-.2-15.6c-.1-14.1-.1-15.5.3-15.5s.4 1 .4 10.7c0 7.6 0 12.2.3 15.2.3 3.7.3 4.5 0 4.9-.3.3-.8.5-.8.3zm-20.4-1.6c0-.5.1-1 .3-1 .1 0 .2.4 0 .9-.2 1.2-.3 1.2-.3.1zm-21-1.1c-.4-.6-.6-.7-1.7-.5-.7 0-2.3 0-3.6-.2-1.3-.2-3.8-.3-5.4-.4-9.4-.2-14-.4-14-.6 0-.3 1.3-.5 2.8-.5.6 0 1.1-.2 1.1-.3 0-.4-1.2-1.1-2.1-1.3-1-.2-1.4-.8-.5-.8.7 0 2.9.7 3.3 1 .2.2.4.6.4.9 0 .8 1 .5 2.3-.7.7-.7 1.4-1.2 1.6-1.2.5 0 .4.7-.3 1.1-.4.3-.7.6-.7.9 0 .2.2.4.7.4.4 0 .6-.2.6-.4 0-.5 3.9-2.4 4.3-2.1.3.2.3.9 0 .9-.7 0-2.7 1-2.6 1.3.3.5 1.5.2 3.3-.7 1.9-1 2.3-1 2.6-.6.2.4-.4 1-1 1.1l2.4.2a15.2 15.2 0 0 1 4 .3l.1-2.6c.1-2.2 1-8 2.3-15 .3-1.6.6-4.3.6-5.9.1-1.6.3-3 .4-3.1.1-.1.5 0 .8 0 .6.4.6.4 0 7-.4 3.8-.6 4.9-1 4.7-.2-.1-.2-.4 0-3 .2-1 .2-1.8.1-1.7a64.6 64.6 0 0 0-2 14.4c-.2 2-.2 2.8 0 3.5.1.4.2 1.1.1 1.6-.2.8-.1.8.7.8 1.1 0 1.6.4 1.6 1.4 0 1-.6 1-1.2 0zm132.8.2-1.2-.7c-.2-.2-1.7-.8-3.3-1.3a48 48 0 0 1-7.8-3c-.3 0-.6-.3-.8-.5-.4-.5-2.4-1.4-4.1-2l-2.7-1c-.9-.5-1.8-.8-2-.8a5 5 0 0 1-1.5-.6l-1.5-.5c-.7 0-4-1.2-4.5-1.6-.3-.3-.4-1.2-.2-7.8.1-8.1.2-9.1.8-9.1 1 0 1.1.8 1.2 6.3 0 8.1.4 7.2 1-2 0-2.2.2-3 .4-2.7.3.3.4 5 .2 9.2-.2 2.2-.3 2.8-.7 3-.3.2-.4.6-.4 1.4 0 1.1 0 1.1 1 1.3.5 0 1.3.5 1.7.8l1 .7a113.1 113.1 0 0 0 8.4 3.4c1.2.3 7 3 7.7 3.5a8 8 0 0 0 2.5 1l1.9.5 4.6 1.4c.4 0 .4-2-.1-2.8-.3-.4-.4-.8-.3-1l.5-6.5c.7-10 .7-10 .2-10.6-.5-.5-.5-.5-.7.8l-.2 5.1a79 79 0 0 1-.6 9.4c-.2 1-.7 1.4-1 .8 0-.4.3-4.8 1-11.5a99.4 99.4 0 0 0 .4-11.3l1.4-.3c1.2-.2 1.3-.2 1.3.3l-.2.7a1074.2 1074.2 0 0 1-.7 18.3c-.2 4-.2 4.7.2 5.5.5 1 .4 2.7-.2 4-.3.8-1.5.9-2.7.2zM146 11.7c-.1-1.1-.1-1.2-.3-.5-.2.4-.2 1.5 0 2.5.2 1.8.2 1.8.3.5v-2.5zm-100.2 18-.2-1.6c-.1-.3 0-.6.1-.6.3 0 .6 2.7.3 3-.1.2-.2-.2-.2-.7zm176.8-4.4c.3-7.5.2-16.7-.1-17-.2-.1-.3.5-.3 1.6 0 3.2-.5 14.7-.7 16.8 0 1.1-.2 1.8-.4 1.6v-1l.2-5 .5-13.6c0-.5.2-.9.3-.9.2 0 .4 0 .6-.2.1-.1.4 0 .4 0 .4.6.5 15 .2 18.4-.5 5.6-.8 5.3-.7-.7zm-141.9-3a660.9 660.9 0 0 0-.4-20.4c.5-.6.7 1.5.8 11.6 0 6.2.2 12.3.4 13.6.2 2.4.1 3-.4 3-.2 0-.3-1.9-.4-7.8zm-68.5 7.2-.7-1.5c-.3-1.1-.4-1.1-1.5-1.2-1 0-1.2 0-1.8.9-.5.9-.6 1-1 .5-.4-.4-.4-.5 0-1.3l.7-1 2-.1c1.9-.1 2-.1 2.5.6.9 1.2.6 4.2-.2 3.1zm195.9.2v-1.2c.1-1 .6-12.4.8-20.7.1-6 .3-6.8 1.1-6.2.3.2.4.4.1.9a582.2 582.2 0 0 1-1.2 26c0 1.2-.4 1.7-.8 1.2zM14 29c-.5-.4-.6-.5-.3-.8.2-.3.5-.3 1.2.2.5.2 1 .6 1 .7 0 .5-1.3.5-2 0zm119.3-1.6c0-1 .1-1.8.3-1.8.1 0 .3.7.3 1.7s-.2 1.8-.3 1.8c-.2.1-.3-.5-.3-1.7zM47 28c0-2.2.5-12.5.7-12.8.2-.1.2 1 .2 2.6l-.2 6.9c0 3.1 0 4.1-.3 4.1-.2 0-.4-.3-.4-.8zM171 27l-3.7-1.6c-.9-.5-7.2-3-10.3-4.2a12 12 0 0 1-3.5-1.8 91.3 91.3 0 0 1 16.2 6c.6.3 1.8.6 2.6.8a5 5 0 0 1 1.8.7c.3.3 0 1.2-.2 1.1l-2.9-1zM16 26.9c-1-.3-1.8-.7-1.8-1-.2-.3.3-.3 2 .2 1.7.6 2.1.8 2.1 1.2 0 .3-.4.3-2.3-.4zm6.5.3c0-.6.1-1.1.4-1.3.5-.3.7 0 .5.7-.2.8-.8 1.2-.9.6zm111.3-2.7V24v1-.5zm81.5-2.3.3-5 .8-13.5c.9-2.7 0 16.3-1 19.8-.1.8-.2.5 0-1.3zm-201.8-1c.6-.3 11.6-.6 12.2-.4 1.1.5-.7.6-6.4.6-4 0-6.2 0-5.8-.2zm137.4-2.8c-.8-.3-1.5-.8-1.6-1.1-.2-.5-.1-14.4.1-14.6h.7c.5.2.5.4.5 5 0 3-.1 5.2-.4 6.4-.2 1-.3 2-.2 2.3.2.3.3 0 .4-.7 0-1 .2-1 .8-1 .6.1.8 0 .8-.4 0-.5 0-.5.4-.3.2.2.3.8.3 1.4 0 .8 0 1-.5 1-.4.1-.6.2-.5.3 0 0 0 .4-.2.7-.3.4-.2.6.3.8.4.2.7.4.7.6v.2l-1.6-.6zM16.1 16.9c-.2-.5-2.2-.5-2.7 0-.4.4-1.2-.4-.8-1 .2-.2.5-.4.7-.3l1.8.2c1 0 1.6.3 1.7.5.1.2.6.4 1.3.4 1.3 0 2 .5.8.5l-1.7.1c-.5 0-1-.1-1-.4zm33.5-.7c-.2-.2-.2-7 .1-8.5V11c0 3.2 0 4.6.3 4.7.1.1.3.3.3.5s-.4.3-.7 0zM13 11.1l.2-4.5a46 46 0 0 1-.2 8.2V11zm139-2.6c0-2.9 0-4 .1-3a35 35 0 0 1 0 7.3l-.1-4.3zm1.7 3.4c0-.4.1-.5.2-.3v.6c0 .2-.2 0-.2-.3zM.5 11.7c0-.4.4-.6 1-.4.3.1.3.2 0 .4-.4.3-1 .3-1 0zm36.7-1c-.6-.1-1.2-.2-1.3-.4L36 9c.3-.7.6-2.3.8-3.6L37 3H39c1.9.1 2.7.5 2.2 1-.2.2-.5.2-1 0-1-.4-2 0-2.3.7a43.4 43.4 0 0 1-1 4.8c0 .5 0 .6 1.1.6 1 0 1.2 0 1.2.4 0 .2-.2.3-.4.3l-1.5-.1zM3 9.3C1 9.3.2 9.1.4 8.7c.2-.3 5.4-.3 5.4 0s-1 .9-1.1.8L3 9.3zm-2.5-2c0-.2.2-.4.5-.4s.9 0 1.3-.2c1.1-.2 1.1.3 0 .7-1.1.4-1.8.4-1.8-.1zM4.7 6c-.6-.6-1.7-.8-3.1-.7-.6 0-1-.1-1-.3-.1-.3.4-.3 2.5-.2l2.6.1c.2 0 0 1.3-.1 1.5-.2 0-.5-.1-.9-.4zm45-.2c0-.3.1-.3.2-.1v.5c-.1 0-.2 0-.2-.4zM30 4V2.5 5 3.8zM6.5 5c-.3-.2-.2-3 0-3.1H7c.2.4-.2 3.4-.4 3.1z"/>
</svg>
