<?xml version="1.0" encoding="utf-8"?>
<svg xmlns="http://www.w3.org/2000/svg" xmlns:svg="http://www.w3.org/2000/svg" version="1.1" viewBox="0 0 161 135">
	<title>Peter Rabbit stands with his ears pricked up in a field between two stands of trees.</title>
	<path d="M54.48 134.64c-.94-.1-8.03-.18-15.74-.15l-23.15.06c-6.39.02-9.37-.06-9.92-.28-.44-.17-1.1-.38-1.46-.46a7.7 7.7 0 0 1-2.1-1.44l-1.43-1.28-.1-8.7c-.05-4.8-.18-9.37-.28-10.17-.1-.8-.1-5.68.03-10.85C.56 91.37.55 75.4.3 51.1.22 42.88.18 33.53.22 30.33.32 20.13.26 6.87.09 4.26-.08 1.78-.07 1.72.65.86L1.38 0l8.36.14c19.3.33 24.62.45 26.7.59 2.03.14 2.22.2 2.45.8.25.66.78.64.78-.02 0-.52 7.87-.88 8.99-.41.63.26 2.72.25 10.25-.02 7.47-.27 10.36-.27 13.7-.02 5.14.38 42.2.45 47.49.08C122.07 1 131.3.9 140.6.93l16.94.04.98.61c.54.34 1.07.87 1.17 1.19.1.32.15 8.14.1 17.38-.05 9.24-.08 17.21-.07 17.72.05 1.98.41 47.65.44 55.04.02 7.5-.23 20.16-.51 25.4-.2 3.8-.13 6.44.17 6.63.2.12.17.37-.07.77-.28.48-.29.63-.03.72.18.07.33.44.33.83 0 .55-.06.62-.26.3-.2-.31-.26-.27-.26.22 0 .34.1.55.23.47.24-.15.56 1.05.56 2.13 0 .78-1.48 3.46-2.08 3.78-.65.33-10.33.57-20.54.5-4.95-.04-10.25-.06-11.78-.05-16.78.1-25.46.1-38.5.02-8.44-.05-18.91-.03-23.28.06-4.36.08-8.71.06-9.66-.05zm8.61-1.8c.29-.46-.04-.56-.4-.12-.2.25-.23.4-.05.4.15 0 .36-.12.45-.28zm-11.78-1.97c16.17-.05 43.15-.37 43.39-.52.09-.06 5.69.01 12.45.16 6.76.14 14.55.24 17.32.21 2.76-.02 5.44-.03 5.95-.02 8.1.12 21.24.03 21.57-.16.24-.13 1.2-1 2.13-1.91 1.27-1.26 1.73-1.9 1.84-2.62.08-.53.28-1.5.45-2.15.2-.79.25-3.83.18-9.12-.06-4.37-.1-9.49-.08-11.38.03-3.19.03-5.28 0-7.94a451.07 451.07 0 0 0 .12-12.17c0-3.2.08-7.73.19-10.05.3-6.89.06-14.79-.46-15.31a1.03 1.03 0 0 1-.28-.62c0-.23-.36-.35-1.05-.35-.59 0-1.06-.11-1.06-.26 0-.26.57-.44 1.98-.62.44-.05-.33-.11-1.7-.13-1.37-.03-2.4-.13-2.3-.24.11-.11 1.06-.33 2.1-.5l1.9-.3-2.84-.03c-1.57-.02-2.85-.14-2.85-.26 0-.32 2.87-.54 4.77-.37 1.1.1 1.58.05 1.58-.16 0-.21-1.32-.3-4.55-.3-3.44 0-4.47-.08-4.24-.3.18-.19 1.61-.36 3.56-.43 1.78-.07 3.3-.19 3.38-.26.07-.07-1.98-.08-4.57-.01-2.6.07-4.76.04-4.83-.07-.22-.37 1.57-.52 6.46-.55 6.64-.03 4.9-.42-2.88-.65-5.83-.16-7.94-.4-7.94-.92 0-.14.45-.25 1-.25.73 0 .89-.07.59-.26a4.3 4.3 0 0 0-1.65-.27c-.7 0-1.26-.1-1.26-.23 0-.3 2.89-.55 3.57-.3.3.1 3.26.2 6.6.22 5.7.02 6.03 0 5.6-.43-.4-.4-1.4-.46-9.36-.54-5.56-.06-9.05-.2-9.26-.37-.2-.16-.8-.2-1.45-.09-2.55.41-3.06.44-3.22.2-.26-.44.38-.67 2.36-.86l1.85-.17-2.38-.03c-1.49-.02-2.78.1-3.44.34-1.23.45-3.2.53-3.44.14-.09-.14-1.16-.26-2.38-.26s-2.29-.12-2.38-.27c-.09-.14-1.04-.26-2.1-.26-1.4 0-2.03-.11-2.27-.4-.18-.22-.7-.4-1.17-.4-.46 0-.97-.13-1.14-.3-.19-.18-1.01-.28-2.05-.25-.96.03-1.98-.02-2.28-.11-.51-.17-.52-.19-.05-.54.42-.33.3-.37-1.08-.31-1.01.04-1.6-.05-1.67-.25-.06-.18.2-.36.63-.42.41-.07-.12-.13-1.17-.16-1.99-.04-2.54-.37-1.1-.66.46-.1 2.61-.17 4.78-.17 2.5 0 3.9-.1 3.8-.26-.17-.26-7.83-.16-10.9.15-1.02.1-1.68.06-1.78-.11-.35-.56.96-.87 3.62-.84 3.62.05 3.6.05 2.98-.31-.34-.2-1.87-.29-4.29-.26-2.32.03-3.82-.05-3.92-.22-.1-.14-.83-.27-1.63-.27-1.22 0-1.5-.08-1.6-.5-.14-.53-2-1.02-2.15-.56a9.7 9.7 0 0 1-.73 1.2c-.76 1.11-.79 1.79-.23 5.31.23 1.44.48 3.1.56 3.68.09.58.28 1.21.43 1.4.18.24.17.44-.04.65-.43.43-.39 3.53.06 4.25.2.32.44 1.3.52 2.17.22 2.27 1.1 4.6 2.2 5.81.51.58 1.09 1.27 1.28 1.55.32.45.4.45.97.1.4-.27 2.53-.6 6.17-.96 6.16-.62 6.75-.73 6.75-1.2 0-.51 1.29-.67 5.52-.67 2.13 0 4.14-.08 4.47-.17 1-.26.66-.62-.58-.62-1.22 0-1.83-.41-1.06-.7.25-.1 3.36.03 6.91.28 5.22.37 6.54.4 6.87.12.29-.24.45-.25.58-.04.1.16.6.33 1.1.38.51.05.87.2.8.35-.13.26-4.96.36-8.34.17-.87-.05-2.66.1-3.97.34-1.3.24-3.8.54-5.53.67-1.73.14-3.46.37-3.83.52-.93.36-7.45 1.29-11.3 1.6-3.17.26-4.87.51-4.87.72 0 .06.43 1.03.96 2.15 1.3 2.78 1.61 3.7 1.83 5.5.1.86.54 2.3.98 3.22.8 1.65.8 1.66.64 5.03a43.8 43.8 0 0 1-.33 4.1c-.15.65-.07.77.85 1.15 1.35.56 2.64 1.72 2.53 2.26-.04.24.05.51.2.61.15.1.28.4.28.69 0 .44.2.52 1.52.55 2.13.07 2.27.09 2.65.32.18.1.78.06 1.32-.1l1.72-.52c.79-.24 1.18.04.66.46-.18.15-.75.35-1.26.46-.5.1-1.2.36-1.54.58-.55.35-.65.34-.94-.06-.28-.37-.64-.42-2.17-.3l-1.85.16-.6 1.2c-1 1.97-3.4 4.33-5.33 5.23-1.85.86-3.18 1.92-3.18 2.53 0 .28.17.33.6.18.33-.1 1.19-.25 1.9-.32 1.2-.12 1.29-.09.97.3-.2.23-.68.42-1.06.42-.4 0-.83.11-.96.24-.14.14-.61.29-1.05.34-.6.06-.79-.02-.76-.35.03-.37-.23-.43-1.66-.39-.92.03-1.83.2-2 .38-.17.17-.72.31-1.2.31-.5 0-1.06.17-1.26.37-.27.26-.67.3-1.5.15-.64-.12-2.14-.1-3.38.06-3.6.43-5.98.15-7.5-.9-.4-.28-.54-.26-.83.12-.54.73-2.87.65-3.38-.11-.34-.51-.48-.55-1.16-.29-1.1.42-6.12.67-6.34.32-.28-.45.03-.58 1.8-.76 2.56-.25 1.21-.74-2.18-.79-2.41-.03-2.83-.1-3.18-.55-.34-.45-.8-.52-3.44-.59-2.5-.06-3.04-.14-3.04-.47 0-.22-.12-.48-.26-.58a.74.74 0 0 1-.27-.53c0-.46-1.44-.38-3.3.16-1.77.52-5.28.58-5.34.1l-.07-.74c-.01-.29-.34-.4-1.21-.4-.96 0-1.18.1-1.12.44.05.32-.2.47-.93.58-3.94.56-5.93.76-6.08.6-.4-.4.52-.73 2.58-.9 1.45-.12 2.24-.3 2.31-.53.07-.2-.13-.42-.44-.5-.8-.2-.69-.55.3-.97.78-.33.81-.39.34-.56-1.97-.73-2.52-1.06-2.39-1.42.13-.33-.22-.36-2.3-.21-2.56.18-3.4.5-2.15.82.46.11.77.07.83-.1.17-.5 4.29.5 4.29 1.05 0 .4-.72.45-1.74.1-1.28-.45-1.17-.45-1.17.02 0 .47-.25.5-1.24.1-.41-.16-1.13-.38-1.59-.5-.7-.16-.86-.11-.97.32-.11.43-.28.48-1.1.33-.54-.1-1.53-.2-2.2-.22-.96-.02-1.25-.14-1.32-.51-.08-.38-.25-.44-.86-.31-.98.21-1.84-.05-1.84-.57 0-.34-.3-.38-2-.22-1.9.18-2 .16-2.14-.37-.14-.5-.34-.56-1.84-.56-1.33 0-1.69-.09-1.69-.4 0-.32.5-.4 2.65-.45 5.12-.11 5.42-.1 5.35.25-.04.2.24.33.75.33.68 0 .78.08.65.5-.14.46-.02.51 1.05.5.82-.02 1.29-.16 1.45-.44.13-.23.75-.57 1.38-.75l1.14-.33-1.26.12c-.76.08-2.2-.09-3.65-.42-2.3-.53-2.7-.55-10.12-.28-7.02.25-7.75.23-8.06-.16-.23-.3-.67-.41-1.52-.36-.92.06-1.19-.02-1.19-.33 0-.27.36-.44 1.13-.54 1.15-.16 12.77-.68 15.15-.69.95 0 1.2-.07.92-.26a2.48 2.48 0 0 0-1.1-.26c-.4 0-.9-.2-1.15-.43-.34-.35-.76-.4-2.03-.3-1.42.14-1.62.1-1.73-.35-.1-.38-.37-.51-1.04-.51-.59 0-.96-.15-1.07-.43-.14-.37-.45-.4-2-.26-1.69.16-1.84.13-1.97-.36-.12-.46-.36-.54-1.7-.54-1.26 0-1.55-.08-1.55-.43 0-.38.33-.41 2.93-.28 1.61.09 3.07.27 3.24.4.17.14.84.32 1.5.4 3.83.43 5.41.73 5.82 1.1.36.33.82.38 2.34.24 1.24-.12 1.9-.09 1.9.1 0 .14-.33.36-.74.47l-.72.2.8.18c.5.11.94.05 1.2-.18.23-.19.7-.35 1.06-.35.35 0 .82-.12 1.04-.26.32-.2.28-.26-.2-.26-.35 0-.6-.17-.6-.4 0-.43.32-.48 1.28-.23.34.1.55.31.48.5-.07.18.16.45.5.61.42.2.59.44.49.7-.2.53.52.54.96 0 .22-.26.83-.39 1.9-.39 1.93 0 1.81.42-.19.67-.8.1-1.45.3-1.45.44s-.32.19-.72.1a4.83 4.83 0 0 0-1.66.07c-.87.2-.79.23 1.36.69 1.73.36 2.65.43 3.84.26 1.3-.19 1.4-.24.62-.3-1.48-.14-2.11-.33-2.11-.65 0-.21 1.15-.26 4.08-.16 2.24.07 4.18.05 4.3-.06.4-.35 5.44-.83 5.73-.55.17.18.14.3-.11.38-1.18.36-1.32.45-1.15.73.12.2.57.22 1.4.08a34 34 0 0 1 4-.23c2.48-.02 2.78-.07 2.87-.51.08-.45.3-.48 2.25-.38 1.43.08 2.6.31 3.45.7.9.4 1.81.57 3.05.57.97 0 2.45.18 3.29.4 2.02.52 3.58.52 3.79-.02.08-.22-.16-1.38-.54-2.58-1.33-4.17-1.46-5.53-.75-7.55.32-.9.34-1.26.1-1.64-.2-.35-.22-.7-.04-1.18.23-.6-.13-5.87-.42-6.19-.06-.05-.64.4-1.3 1-.65.6-1.37 1.1-1.6 1.1-.22 0-.68.17-1.02.4-1.02.66-1.47-.14-1.55-2.72-.06-1.9 0-2.2.53-2.77.32-.35.6-.8.6-.99 0-.37-.1-.36-4.77.42-1.24.21-3.24.5-4.46.63-2.52.28-3.18.44-3.76.95-.22.2-2.4.66-4.87 1.03-2.5.37-4.74.84-5.09 1.07-.34.22-1 .37-1.47.33-1.28-.11-5.3.33-5.66.62-.37.3-2.15.58-3.66.57l-10.57-.06c-8.56-.05-13.48.14-18.4.74l-1.46.17-.07 6.03c-.08 6.46.06 7.68.88 7.8 1.93.3 2.2.72.46.72h-.93l-.04 11.38c-.02 6.26 0 14.8.04 18.98.08 7.5.1 7.61.7 8.33.33.4.68 1.17.78 1.7l.18.95 3.76.31c2.07.17 7.75.36 12.63.41 5.03.06 9.26.22 9.79.38.53.16 1.77.2 2.91.1 1.1-.1 8.35-.19 16.14-.21zm40.64-4.59c-.1-.16-.53-.3-.95-.3-.84 0-1.13-.25-.83-.73.13-.23 1.64-.3 5.34-.28 4.06.04 5.45-.05 6.6-.39 1.4-.41 1.41-.42.3-.28-1.01.13-1.13.1-1.05-.34.08-.4.38-.5 1.74-.57.96-.05 1.65.03 1.65.18 0 .14-.2.3-.46.37-.25.07.07.06.73 0 1.12-.12 4.58-1.32 7.08-2.47 2.21-1 2.65-.33.5.77-1.4.72-1.63 1.24-.45 1 .8-.16 1.32.21.9.64-.22.22-1.37.52-3.67.97-.43.08-1.05.32-1.38.53-.72.48-1.26.33-1.26-.35 0-.62-.63-.61-2.94.02-1.18.33-1.62.57-1.6.88.04.37-.23.42-1.94.32a28.7 28.7 0 0 0-5.72.13c-1.72.14-2.46.12-2.6-.1zm23.06-2.56c-.29-.3.03-.65.59-.65.27 0 .53-.14.6-.31.06-.2.67-.29 1.74-.25 1.92.07 2.69-.12 2.69-.65 0-.43-.42-.5-.66-.11-.27.43-.6.3-.77-.33-.17-.6-.17-.6-.71.13-.3.4-.8.73-1.1.73-.52 0-.52-.03-.1-.5.24-.26.37-.67.29-.9-.13-.3.1-.45.96-.6.93-.15 1.19-.1 1.48.3.2.28.57.5.82.5.27 0 .49.25.54.6.05.38.26.6.6.6.27 0 .5-.1.5-.23 0-.3-1.07-1.7-1.51-1.97-.64-.4-.34-.71.69-.71 1.5 0 4.57 1 5.19 1.68.74.83 1.83 1.27 2.21.89.22-.22.3-.19.3.13 0 .23-.15.49-.33.56-.25.1-.23.2.06.4.9.63-.15.79-3.57.53a45.38 45.38 0 0 0-9.26.18c-.58.1-1.14.08-1.25-.02zm11.44-1.3c0-.06-.12-.19-.26-.28-.15-.09-.27-.03-.27.12s.12.28.27.28c.14 0 .26-.05.26-.12zm-2.25-1.2c-.09-.15-.4-.27-.7-.27-.28 0-.45.12-.36.27.1.14.4.26.7.26.29 0 .45-.12.36-.26zm12.17 2.22c-.53-.41-1.4-.4-4.53.05-1.29.19-1.68-.2-.8-.77 1.03-.67 4.47-1.24 7.54-1.24 3.36 0 4.45.17 4.66.73.13.35-.09.38-1.5.25-2.17-.2-4.08.2-4.26.9-.16.6-.4.62-1.1.08zm-41.35-.82c-.83-.16-.6-.7.36-.87.56-.1.78-.29.78-.66 0-.52.17-.53 5.16-.53 3.64 0 5.45-.1 6.16-.36 1.08-.38 4.68-.2 4.68.25 0 .47-3.87.82-9.79.87l-3.83.03.07.73c.08.72.07.72-1.45.69-.84-.02-1.8-.09-2.14-.15zm19.03-.6c.06-.17.2-.3.3-.3.32.04.26.4-.08.52-.18.05-.27-.04-.22-.22zm.23-1.4c-.88-.4-.87-.39-.69-.68.23-.37 2.01.22 2.01.66 0 .42-.42.43-1.32.02zm-4.23-3.86c0-.27.31-.63.71-.81.4-.18.88-.56 1.08-.84.23-.33.66-.5 1.24-.5.5 0 2-.3 3.36-.67 2.58-.69 3.93-.83 3.93-.41 0 .31-2.4 1.2-4.67 1.73-.98.23-2.4.77-3.15 1.2-1.6.91-2.5 1.02-2.5.3zm19.8.1c-.21-.21-5.5-.92-6.87-.93-1.26 0-2.16-.56-1.54-.94.37-.23 3.32.04 6.47.6 2.3.4 3.04.68 3.04 1.16 0 .25-.88.33-1.1.1zm-61.48-.9c-4.27-2.96-5.08-3.41-8.6-4.83-1.44-.58-2.27-.77-3.04-.68-1.12.12-4.32-.5-4.76-.94-.17-.17.3-.2 1.39-.09.9.1 1.65.08 1.65-.05s-.3-.51-.66-.85c-.36-.34-.66-.77-.66-.96 0-.69.51-.6 1.54.26.59.49 2.24 1.4 3.67 2.02 4.21 1.84 8.05 3.92 9.6 5.22.8.66 1.5 1.31 1.55 1.43.17.45-.64.2-1.68-.52zm48.3.13c0-.4.77-.68 1.87-.69.85 0 1.11.24.73.7-.4.49-2.6.48-2.6-.01zm19.62-.1c.12-.63 1.71-1.46 3.9-2.03 1.56-.4 1.94-.42 2.3-.13.37.32.37.38-.06.7-.26.18-.67.34-.91.34-.25 0-1.31.35-2.37.8-2.22.9-2.99 1-2.86.33zm-33.33-.9c.06-.2.35-.38.62-.4 4.99-.45 6.73-.72 6.73-1.03 0-.35.28-.48 1.76-.77.96-.2 1.18.02.87.83-.31.84-2.41 1.33-6.56 1.55-2.94.16-3.52.13-3.42-.17zm-53.78-.9c-.52-.63.03-.99 1.1-.71 1.27.33 1.37 1.12.15 1.12-.5 0-1.06-.18-1.25-.4zm29.78-.27c-.15-.04-.95-.15-1.79-.24-.84-.1-1.7-.36-1.93-.59-.6-.58-.11-.95.8-.6 1.22.46 4.18.8 4.53.5.45-.37 3.2-1.06 4.7-1.18 1.2-.1 1.28-.06 1.14.44-.12.49-.06.53.57.33 1.02-.3 4.54-.28 4.55.04 0 .14-.8.34-1.79.44l-3.32.37c-1.25.15-1.62.1-2.03-.28-.49-.44-.57-.43-1.78.16-1.11.55-2.84.83-3.65.61zM39.3 112.8c-.24-.27-.44-.57-.44-.67 0-.27 1.76-.2 3.06.12 1.32.33 1.97.05 1.97-.86 0-.48.16-.5 2.45-.37 2.15.13 2.34.1 1.6-.18-.97-.38-1.93-1.13-1.93-1.51 0-.5.54-.57 1.25-.16.4.24 2.2.93 4 1.55 1.79.61 3.22 1.23 3.17 1.37-.12.37-2.28.25-2.76-.15-.3-.25-.47-.26-.7-.02-.19.18-1.26.3-2.77.3-1.35 0-2.46.1-2.46.21 0 .45-1.84.85-3.88.85-1.72 0-2.2-.1-2.56-.48zm56.83.1c-.48-.35-.48-.39-.05-.56.67-.25 1.79.09 1.79.55 0 .5-1.06.51-1.74.01zm-23.28-.17c-.1-.15-.1-.35-.03-.43.22-.21.97.13.97.44 0 .36-.72.35-.94 0zm-3.83-1.06c-.72-.56-.74-.57-2.2-1.66-.87-.65-1.42-.8-4.12-1.11-3.42-.4-4.63-.74-4.45-1.24.13-.37.17-.37 3.47.18 1.3.22 2.46.33 2.6.25.14-.09-.02-.44-.35-.8-.38-.4-.5-.72-.35-.88.16-.16.66.16 1.37.88l1.12 1.13 4.3.72c6.26 1.05 7.11 1.24 6.93 1.53-.18.29-.83.2-4.96-.6-2.71-.52-4.42-.63-4.4-.3.02.55 1.51 1.23 2.85 1.3 1.28.06 2.22.42 1.88.71-.06.06-.77.17-1.57.25-1.18.11-1.59.04-2.12-.36zm47.7-.02c-.48-.3-.86-.62-.86-.71 0-.1.68-.2 1.52-.2.84-.02 2.23-.28 3.1-.58l1.6-.55-1.86.16c-1.66.14-1.81.11-1.5-.26.22-.28 1.02-.48 2.33-.6 1.32-.13 2.04-.32 2.13-.56.11-.29.67-.36 2.36-.31 1.23.03 2.22.15 2.22.25 0 .2-2.38 1.15-3.3 1.33a.63.63 0 0 0-.53.62c0 .48-.21.53-2.17.6-2 .07-2.17.12-2.25.66-.1.68-1 .99-1 .34 0-.22-.14-.41-.3-.41-.16 0-.22.18-.14.4.2.53-.3.46-1.35-.18zm7.34-2.63c0-.38-.72-.27-.88.13-.1.26.01.33.37.23.28-.07.5-.24.5-.36zm-29.51 1.86c-.28-.45.39-.77 1.65-.77 1.02 0 1.69.33 1.2.6-.56.33-2.68.46-2.85.17zm18.47-.5c-1.3-.2-1.61-.43-1.2-.84.19-.19.8-.23 1.7-.12 1.6.2 2.22.5 1.96.92-.2.32-.73.33-2.46.05zm22.63 0c-1.44-.14-2.37-.6-1.99-.97.28-.27 3.97.27 4.08.6.15.43-.4.53-2.1.37zm-8.42-.49c0-.53 1.73-1.9 2.4-1.9.16 0 .47.18.68.4.22.21.7.4 1.04.4.39 0 .65.15.65.37 0 .3-.38.37-1.71.34-1.07-.03-1.83.07-2.04.28-.37.37-1.02.44-1.02.11zm18.47-2.05c-.09-.08-1.77-.18-3.75-.23-2.42-.06-3.73-.2-4-.42a2.1 2.1 0 0 0-1.2-.32c-.54.02-.78-.1-.78-.38 0-.34.23-.37 1.38-.22.77.1 2.52.21 3.9.24 3.7.09 6.08.6 5.69 1.23-.17.27-1 .34-1.24.1zm-50.35-1.18c-.2-.32.53-.64.92-.4.15.1.21.29.13.42-.2.33-.84.32-1.05-.02zm27.4-.06c0-.18.5-.57 1.1-.86 1.2-.57 1.78-1.39.77-1.07-.3.1-.56.09-.56-.03 0-.26 2.4-2.47 2.7-2.47.42 0 .2.65-.5 1.36-.55.59-.63.81-.38 1.11.39.47-.09 1.01-1.57 1.77-1.19.6-1.58.65-1.56.19zm-96.72-2.1c-1.6-1.06-3.14-2.04-3.42-2.19-.66-.36-.83-.9-.34-1.08.4-.16 7.6 4.54 7.6 4.95 0 .57-1.16.06-3.84-1.69zm86.94 1.39c-.24-.15-.15-.36.37-.76a5 5 0 0 1 1.22-.72c.28-.09.5-.27.5-.4 0-.14.18-.25.4-.25.54 0 .5.62-.07 1.11-.8.7-2.06 1.24-2.42 1.02zm5.4-.44c1.6-1.19 2.6-1.71 2.84-1.47.15.14.18.39.08.55-.28.46-2.17 1.34-2.84 1.33-.6-.01-.6-.02-.08-.4zm13.1.26c0-.08.23-.48.52-.88.4-.57.53-1.26.6-3.2.04-1.68.17-2.5.4-2.57.24-.08.33.36.33 1.65 0 1.13.1 1.7.27 1.59.15-.1.74-1.17 1.31-2.4.57-1.23 1.18-2.23 1.35-2.23.18 0 .23.18.11.46l-.47 1.25c-.15.43-.74 1.6-1.31 2.6-.57 1-1 1.87-.94 1.92.05.05.74-.32 1.54-.83 1.25-.78 3.57-1.96 3.86-1.96.06 0 .1.16.1.36 0 .2-.5.58-1.12.86-.61.27-1.8.95-2.65 1.5a6.8 6.8 0 0 1-2.02.98c-.26 0-.7.24-.96.53-.46.51-.92.7-.92.37zm6.28-.28c-.68-.18-.57-.88.13-.88.8 0 1.37.4 1.15.76-.19.3-.46.33-1.28.12zm-113.73-.5c-1.7-.9-8.03-1.97-11.68-1.97-1.56 0-2.34-.1-2.55-.35-.44-.53-.09-.7 1.4-.7 1.8 0 8.94.95 10.66 1.42 1.72.46 3.33 1.25 3.46 1.68.13.42-.4.38-1.29-.09zm10.61-.15c-.5-.27-1.32-.5-1.8-.5-1.32 0-2.7-.66-2.7-1.3 0-.65.17-.67 1.42-.15 1.28.54 1.76.5 1.76-.13 0-.7.96-.71 1.19-.01.09.29.51.77.94 1.08.77.55 1.08 1.6.45 1.54a5.47 5.47 0 0 1-1.26-.53zm113.88 0c-.26-.42.4-.75 1.61-.8 2.15-.1 2.7.12 1.87.72-.61.45-3.21.5-3.48.08zm-6.4-.27c-1.2-.27-1.58-1.02-.52-1.01.95 0 3.13.64 3.19.92.07.36-1.3.4-2.66.1zm-113.23-.3c-.65-.3-.82-.98-.24-.98.44 0 1.34.96 1.05 1.13-.12.07-.49 0-.81-.15zm83.34-.26c.45-.68 1.26-.94 1.26-.4 0 .52-.55 1-1.15 1-.47 0-.47-.05-.11-.6zm-9.28-.2c-1.01-.42-.4-.86.91-.67.91.14 1.16.1 1.16-.2 0-.3.57-.41 2.58-.5 2.82-.14 3.3-.05 2.57.49-.31.23-1.24.36-2.53.36-1.56 0-2.07.09-2.19.4-.17.44-1.52.5-2.5.11zm27.82-.95c.1-.57.17-1.24.18-1.5 0-.25.12-.46.28-.46.43 0 .2 2.72-.26 2.86-.29.1-.33-.09-.2-.9zm-6.9-.94c.06-.2.38-.4.71-.44.41-.06.57.02.49.26-.06.2-.39.4-.72.44-.41.06-.57-.02-.49-.26zm12.63-.24c0-.27 1.4-2.47 2.4-3.75.78-1.01 1.14-.65.47.47-.5.86-.5.91-.05.74.27-.1.8-.4 1.2-.66 1.4-.98 1.8-.37.42.65-1.1.82-1.66 1-1.99.67-.18-.17-.52.1-1.02.81-.76 1.07-1.43 1.57-1.43 1.07zm-94-3.85c-.28-.28.07-.63.64-.63.32 0 .5.14.43.33-.13.38-.8.57-1.06.3zm105.86-3.41a7.31 7.31 0 0 0-1.67-.33c-.95-.12-1.59-.34-1.67-.57-.1-.3.17-.33 1.57-.15 2.21.29 3.73.3 5.6.02 1.32-.19 1.51-.16 1.51.21 0 .24-.3.55-.68.7-.7.26-4.42.36-4.66.12zm-27.45-.9c-.84-.23-1.03-.82-.26-.82.33 0 .8-.18 1.05-.4.44-.4 1.52-.3 3.56.32.47.14.48.11.15-.29-.54-.65-.04-1.04.88-.7.97.37 1.22.35 1.22-.1 0-.23.4-.5 1-.64 2.67-.67 3.32-.78 3.67-.65.64.25-.09.8-1.3.99-.62.1-1.6.3-2.17.45-.86.23-.97.32-.6.53.25.14.46.44.46.67 0 .33-.2.38-.92.24a2.15 2.15 0 0 0-1.44.16c-.42.26-.78.26-1.67.02-.94-.26-1.18-.24-1.43.08-.3.4-1.1.45-2.2.15zm-5.3-.23c0-.31 2.72-1.91 3.25-1.91.92 0 .4.69-1.08 1.4-1.53.74-2.18.89-2.18.5zm14.2-.35c-.2-.72.01-1.04.34-.52.18.3.54.32 1.98.08 1.9-.32 2.52-.22 2.52.36 0 .25-.32.37-.99.37-.55 0-1.6.08-2.34.17-1.26.15-1.36.12-1.51-.46zm12.38.15a15.9 15.9 0 0 0-3.06-.36c-1.66-.03-3-.53-2.56-.97.27-.28 3.42-.14 5.5.24 1.46.26 1.72.4 1.8.9.09.67.14.66-1.68.2zm-32.23-1.89c-.31-.3-.2-.57.32-.74.58-.18 1.88.26 1.88.65 0 .3-1.92.38-2.2.1zM8.98 90c-.22-.14-.9-.26-1.53-.26-1.21 0-1.45-.34-.56-.82.4-.22 1.12-.22 2.7 0 1.2.16 2.63.32 3.2.36.57.03 1.09.2 1.15.39.08.24-.4.33-1.88.33-1.09 0-2.14.06-2.34.13-.19.07-.53.01-.74-.13zm-4.1-.25a.3.3 0 0 1 .1-.4.3.3 0 0 1 .41.1.3.3 0 0 1-.1.4.3.3 0 0 1-.4-.1zm109.27-.02c-.21-.33.53-.63 1.06-.43.21.08.4.27.4.42 0 .36-1.25.36-1.46.01zm4.16-.8c-.64-.26-.78-.68-.28-.84.49-.17 2.7.47 2.8.8.13.37-1.63.4-2.52.04zm-75.61-.5c.2-.32 1.72-.65 1.94-.43.1.1 0 .28-.22.42-.5.32-1.92.33-1.72.01zm81.83-1c-.53-.14-.61-.57-.13-.75.55-.2 2.66.26 2.78.6.1.34-1.6.43-2.65.15zm5.36-.08c0-.14.24-.26.53-.26.29 0 .53.12.53.26 0 .15-.24.27-.53.27-.3 0-.53-.12-.53-.27zm-83.87-1.04c-.33-.22-.33-.28.05-.42.6-.23 1.68-.05 1.6.27-.07.36-1.17.46-1.65.15zm-18.13-.34a42.9 42.9 0 0 1-2.25-.48c-.5-.13-3.48-.3-6.6-.4-3.12-.07-5.73-.2-5.8-.26-.06-.07-.03-.21.08-.32.27-.27 6.63-.13 10.82.23 2.68.23 3.53.23 4.02-.04.38-.2.91-.25 1.37-.13.4.1 1.37.25 2.13.32 1.74.16 1.83.6.14.62-.7 0-1.5.18-1.77.4-.29.2-.58.37-.67.35l-1.47-.29zm5.7.05c0-.35 1.87-.57 6.17-.7 4.14-.12 5.26-.02 4.78.42-.3.28-10.96.56-10.96.28zm-24.42-.98c-1.07-.16-.88-.6.27-.6 1.44 0 2.98.3 2.98.56 0 .23-1.85.26-3.25.04zm16.94-1a.37.37 0 0 1-.05-.43c.2-.33 8.84-.3 8.84.04 0 .15-.95.26-2.34.26-1.28 0-3.22.07-4.3.16-1.07.1-2.04.08-2.15-.03zm-1.46-2.31c.06-.2.81-.4 1.8-.5.94-.08 3.77-.53 6.3-.99 2.52-.45 4.7-.83 4.85-.83.48 0 .04.66-.47.7-.28.03-2.23.37-4.34.76-7.17 1.32-8.33 1.45-8.14.86zm98.23-13.69c-.09-.15 0-.34.2-.41.63-.24 4.7 0 4.76.27.09.37-4.73.5-4.96.14zm5.1-2.58c-5.16-.08-6.67-.38-3.74-.75 1.75-.22 10.08 0 10.35.26.24.24-.49.7-1 .62-.21-.03-2.74-.09-5.62-.13zm11.83-4.5c-1.63-.12-1.97-.41-1.33-1.12.36-.4.82-.53 1.75-.53 1.57 0 2.1-.2 2.1-.78 0-.58 1.6-2.66 2.04-2.66.19 0 .57.13.84.3.38.24.76.22 1.72-.1 1.22-.4 1.24-.4 2.28.36.58.42 1.05.93 1.05 1.13 0 .2.17.43.37.5.2.09.51.57.68 1.08.25.76.45.94 1.13 1 .88.1 1.27.6.64.83-.2.08-.83.02-1.4-.13-1.96-.54-6.36-.47-10.02.14-.29.05-1.12.04-1.85-.01zm10.04-2.04c-.36-.36-.65-.77-.65-.93a.27.27 0 0 0-.26-.27c-.47 0-.28.7.4 1.43.36.4.77.65.9.56.14-.08-.04-.44-.4-.8zm-5.8.39c-.1-.15-.28-.27-.42-.27-.13 0-.25.12-.25.27 0 .14.19.26.42.26.22 0 .34-.12.25-.26zm1.98-.12c0-.2-.15-.42-.33-.49-.27-.1-.26-.23 0-.68.37-.63.27-.7-.46-.3-.42.22-.45.37-.19 1.05.3.82.98 1.1.98.42zm2.12-2.03c0-.13-.36-.24-.8-.24-.88 0-1.04.37-.33.76.47.27 1.13-.04 1.13-.52zm-42.34-1.72c-1.52-.2-4.24-.45-6.02-.56-3.57-.23-4.47-.7-1.52-.8 2.65-.08 12.1 1.04 12.24 1.45.14.42-.92.4-4.7-.09zm9.5-1.58c-.31-.39-.02-.64.73-.64.92 0 .79-.8-.3-1.85l-.93-.9-.66.63c-.86.8-.84 1.1.06 1 .65-.06.73.02.73.72 0 .8 0 .8-1.85.97-1.72.16-3.74.07-4.6-.2-.29-.1-.3-.19-.02-.52.19-.22.49-.35.67-.28.18.07.55-.04.81-.24.27-.2.93-.38 1.46-.38.83 0 1-.12 1.24-.8.19-.54.6-.93 1.28-1.23l1.57-.68c1.45-.66 2.11.06 2.34 2.57.07.85.21 1.08.71 1.2.34.08.62.3.62.48 0 .44-3.5.57-3.85.15zm16.04.18c-1.5-.11-2.1-.26-2.06-.49.05-.2-.23-.33-.72-.33-.85 0-1.07-.37-.38-.63a19.3 19.3 0 0 1 3.11-.16h2.7l.69-.88c.57-.71.98-.93 2.3-1.17 1.95-.36 3.05-.13 3.17.68.05.32.38.88.75 1.25 1.17 1.17.78 1.57-1.63 1.61-1.16.02-2.95.1-3.97.16-1.01.06-2.8.05-3.96-.04zm8.6-1.32c0-.28-1.36-.57-1.69-.37-.12.08-.06.24.13.37.48.3 1.55.3 1.55 0zm-3.42-3.2c-1.28-.1-2-.26-2.08-.48-.1-.27.32-.3 1.96-.17 1.91.17 2.85.44 2.3.68-.12.05-1.1.04-2.18-.03zm-48.5 53c2.18-.52 2.66-.88 1.18-.88-.6 0-1.17-.12-1.26-.27-.26-.43-.73-.3-.55.16.24.63-.07.94-.63.64-.32-.17-.75-.16-1.29.02-.74.26-.87.21-1.58-.58-.76-.86-.78-.86-1.47-.41-.91.6-.88.89.17 1.34 1.17.51 3.3.5 5.43-.01zm-10.53-1.41c-.52-.34-1.06-.34-1.06 0 0 .14.33.26.73.26.57 0 .64-.06.33-.26zm6.8-.97c-.1-.1-.18-.02-.18.18 0 .19.08.27.17.17.1-.1.1-.25 0-.35zm4.32.34c0-.05-.18-.25-.4-.43-.33-.27-.4-.25-.4.1 0 .24.18.43.4.43.22 0 .4-.04.4-.1zm-19.85-.41c0-.38-.28-.48-1.72-.64-.73-.08-1.11-.09-.86-.01.26.08.46.31.46.52 0 .26.32.38 1.06.38.59 0 1.06-.12 1.06-.25zm8.12-.46a.25.25 0 0 0-.36 0c-.1.1-.02.18.18.18.2 0 .27-.08.18-.18zm18.6-.09c.33-.21.31-.25-.13-.25a2 2 0 0 0-.92.25c-.33.21-.31.26.13.26a2 2 0 0 0 .92-.26zm-33.6-1.06c-.18-.34-.55-.53-1.07-.53-.72 0-.76.05-.45.53.2.33.61.53 1.07.53.65 0 .7-.06.45-.53zm31.75.4a.13.13 0 0 0-.13-.13.13.13 0 0 0-.13.13c0 .07.06.13.13.13s.13-.06.13-.13zm-25.4-.54c0-.23-.12-.34-.26-.25-.15.09-.27.27-.27.4 0 .15.12.26.27.26.14 0 .26-.19.26-.41zm24.47-.28c.42-.64.42-.7-.02-1.02-.5-.37-.34-1.26.22-1.17.18.03.55-.04.81-.16.7-.3.85.02.35.78-.24.37-.4.67-.34.67.22 0 1.18-.98 1.62-1.65.26-.4.62-.73.81-.73.2 0 .4-.15.46-.33.09-.26.2-.26.52 0 .34.28.44.27.57-.08.23-.6.2-1.7-.04-1.7-.1 0-.35.24-.53.53-.53.84-.75.43-.6-1.11.15-1.45.54-1.78.85-.7.1.34.18.43.2.21.01-.21.1-.66.19-.99.11-.43.04-.6-.26-.6-.6 0-.74-.38-.45-1.16.33-.86.8-.89.8-.05 0 .35.18.7.4.78.22.09.4.37.4.63 0 .4.05.4.26.07.18-.29.32-.31.54-.1.37.37.08 2.63-.4 3.1-.18.19-.42.6-.52.93-.1.33-.48.7-.83.84-.6.23-.94 1.32-.42 1.32.66 0 2.96-3.53 2.96-4.55 0-1 .44-.95.66.08.17.73.23.78.59.42.43-.44 1.08-2.53 1.37-4.42.1-.66.27-1.35.39-1.54.13-.21.03-.54-.24-.85-.5-.55-.69-2.3-.26-2.43.15-.04.3.25.35.65.15 1.28.5.79.65-.91.15-1.64-.2-3.1-.83-3.5-.16-.1-.62.05-1.02.32l-1.53 1.01c-1.28.85-3.8 1.46-6.25 1.51-1.9.04-2.38-.03-2.83-.44-.37-.32-.73-.42-1.12-.3-.37.12-.66.06-.8-.17-.17-.28-.3-.29-.54-.04-.18.18-.65.25-1.13.16-1.1-.21-1.12-.26-.56-.88.61-.67.23-.67-.8 0-.43.3-.94.53-1.12.53-.53 0-.38-1.54.24-2.37l.56-.77-1.03-1.18c-1.73-1.98-2.75-3.9-2.9-5.5-.23-2.5-.71-5.27-.93-5.41-.12-.07-.76-.3-1.43-.5-1.17-.35-1.23-.34-1.83.3-.34.37-.56.88-.5 1.14.08.28-.14.67-.56 1-.83.65-.86.85-.1.66.44-.12.53-.06.4.28-.09.23-.05.5.1.59.14.09.03.44-.28.84-.5.62-.5.7-.1 1 .35.25.4.56.24 1.57-.23 1.57.23 1.43.66-.2.17-.6.47-1.3.67-1.52.2-.23.3-.5.2-.6-.1-.1.05-.43.33-.74.5-.57.5-.57-.1-.26-1.18.62-1.1-.03.14-1.16 1.4-1.28 2.16-1.2 1.17.13-.47.63-.5.8-.18.8.54 0 .51.44-.06.76-.43.25-.43.29.07.65.51.39.51.4-.2.68-.41.15-.84.55-.96.88-.6 1.58-.6 1.72 0 1.87.55.15.55.17-.23.95a4.17 4.17 0 0 0-.98 1.54c-.1.4-.68 1.5-1.3 2.45-1.05 1.65-1.1 1.81-1.08 3.7.03 2.64.4 5.3.72 5.3.16 0 .2-.46.1-1.16-.13-1-.08-1.22.4-1.54.41-.27.57-.64.55-1.29-.01-.5.08-1.14.2-1.43.12-.3.47-1.28.77-2.2.92-2.76 1.36-3.18 2.27-2.17.47.52.47.55-.12 1.18-.38.4-.54.81-.44 1.09.1.27-.24 1.2-.89 2.38a9.42 9.42 0 0 0-1.06 2.53c0 .83.3.42.94-1.3.52-1.4 1.22-2.22 1.58-1.86.09.09-.15.76-.52 1.5-.9 1.8-1.53 3.67-1.4 4.22.1.39.14.37.31-.08.88-2.32 1.11-2.78 1.4-2.78.43 0 .42.38-.03 1.27-.2.4-.45 1.22-.55 1.84-.16.93-.12 1.12.23 1.12.23 0 .42-.12.42-.26 0-.15.1-.27.23-.27s.37.54.53 1.2c.33 1.28.83 1.6.83.52 0-.36.1-.66.22-.66.13 0 .3 1.04.37 2.32.19 3 1.03 5.04 1.66 4.02.12-.19.3-.18.55.03.24.2.37.22.37.03 0-.34-.52-.7-1.06-.7-.48-.01-1.02-1.5-1.04-2.88-.02-1.06.57-1.29.73-.28.26 1.62.69 1.42 1.18-.56.38-1.49.98-1.91.98-.69 0 .64.1.78.43.65.37-.14.4-.01.24.93-.15.9-.1 1.1.24 1.1.3 0 .42.26.42.93 0 .62.12.92.38.92.2 0 .45.23.54.52.1.3.45.54.88.6.5.05.74.25.8.67.2 1.38 2.31 1.87 3.08.7zm-1.67-3.85c.05-.34.2-.6.35-.56.4.1.32.93-.09 1.07-.24.08-.32-.08-.26-.5zm-1-.33c-.2-.53.13-1.25.64-1.42.44-.15.4.79-.06 1.4-.37.5-.38.51-.57.02zm-.9-.8c0-.68.32-1.21.72-1.21.21 0 .32.14.23.33-.08.18-.23.54-.31.8-.2.55-.64.6-.64.08zm-.74-1.76c.04-.48.24-.92.43-.98.25-.08.33.13.27.75-.05.48-.25.92-.44.99-.25.08-.32-.13-.26-.76zm-4.81-1.16c0-.22.12-.4.26-.4.15 0 .27.1.27.24 0 .14-.12.32-.27.41-.14.1-.26-.02-.26-.25zm11.38-.07c0-.13.16-.47.37-.75.44-.6.92-.3.52.34-.31.5-.9.76-.9.4zm-1.06-.47c0-.46 1.12-1.98 1.46-1.98.38 0 .02.9-.66 1.64-.68.75-.79.8-.8.34zm6.88-.33c.01-.62.75-2.57 1.01-2.66.43-.14.38.76-.1 1.9-.34.84-.92 1.32-.91.76zm-16.22-.23c-.09-.09-.1-.5-.01-.93.1-.45.04-.76-.13-.76-.15 0-.36-.25-.46-.56-.25-.81-.64-.12-.64 1.16 0 .95-.32 1.29-.67.72-.17-.28.3-3.85.56-4.28.09-.13.32-.1.52.07.27.22.38.23.38.01 0-.16-.12-.3-.27-.3-.45 0-.3-.57.42-1.5.78-1.02 1.44-.93.76.1-.34.53-.36.72-.11.88.24.15.26.4.06.96-.3.85-.14 2.52.26 2.77.14.1.18.54.08 1-.18.8-.4 1-.75.66zm14.3-.25c-.16-.16-.1-.86.22-2.43.2-.96.64-.69.64.4l.01.99.48-1.06c.35-.8.42-1.32.27-2.12-.12-.58-.22-1.35-.22-1.7-.01-.6.03-.62.39-.26.5.5.83 3.02.45 3.48-.15.18-.36.79-.46 1.34-.14.74-.3.98-.62.92a.77.77 0 0 0-.7.26c-.16.2-.36.28-.46.18zm-5.57-.3c-.22-.34 1.64-2.77 1.96-2.57.29.17-.01.74-1.03 1.94-.44.53-.83.8-.93.63zm5.83-4.02c-.21-.82.22-1.26.58-.59.3.57.2 1.09-.23 1.09-.12 0-.28-.23-.35-.5zm-16.51-1.62c.06-.8.2-1.69.31-1.98.33-.81 1.2-1.99 1.47-1.99.38 0 .3.57-.16 1.07a5.29 5.29 0 0 0-.65 2 4.86 4.86 0 0 1-.66 1.94c-.37.37-.4.27-.31-1.04zm-.51-3.37c.06-1.17.3-1.65.83-1.65.21 0 .38-.18.38-.4 0-.42.41-.54.63-.19.2.34-1.2 3.23-1.56 3.23-.22 0-.32-.35-.28-1zm-1.17-1.64c0-.4 1.1-2.13 1.35-2.13.39 0 .27.6-.29 1.52-.5.82-1.06 1.14-1.06.61zm-2.11-.92c0-.23.18-.42.41-.42.23 0 .38.14.32.32-.16.49-.73.57-.73.1zm1.37-.62c.65-1.33.88-1.65 1.18-1.65.46 0 .45.16-.1 1.08-.25.43-.61.77-.81.77-.2 0-.32-.09-.27-.2zm-.04-1.73c0-.27.11-.71.26-1 .32-.59.19-.63-.53-.19-.9.57-.83.06.13-.97.95-1 1.58-1.09.98-.14-.26.42-.25.48.08.36.64-.25.47.84-.26 1.68-.54.6-.66.65-.66.26zm-1.86-7.88c0-.6.1-.79.43-.72.7.13 1.1.97.62 1.28-.72.46-1.05.28-1.05-.56zm23.14 31.53c.08-.14.6-.4 1.14-.57a5.59 5.59 0 0 0 1.86-1.2c.48-.5.98-.9 1.12-.9.14 0 .25-.2.25-.45s.33-.72.73-1.04c.56-.45.66-.66.41-.9-.24-.25-.22-.47.1-.94.54-.84.01-2.12-.96-2.32-.85-.16-1.11.13-1.72 1.95-.27.8-.82 1.83-1.21 2.28-.4.46-.8 1.24-.89 1.75-.1.5-.47 1.19-.83 1.53-.36.34-.65.71-.65.83 0 .3.46.28.65-.02zm-26.48-.18c.36-.14.36-.22 0-.77-.36-.56-.36-.64.08-.9.43-.24.43-.27.03-.28-.44 0-2 1.23-1.78 1.41.12.1 1.14.68 1.21.7l.46-.16zm-21.4-.37c.1-.15-.18-.26-.65-.26-.44 0-.8.11-.8.26 0 .15.28.26.64.26.35 0 .72-.11.8-.26zm41.8 0c.1-.15.04-.26-.11-.26-.16 0-.28.11-.28.26 0 .15.05.26.11.26.07 0 .2-.11.28-.26zm3.04-.51c.4-.75.34-.86-.26-.49-.55.34-.73 1-.27 1 .14 0 .37-.23.53-.51zm-47.78.09c.54-.21.28-.64-.38-.64-.34 0-.45.13-.35.4.17.45.17.45.73.24zM62.16 97a.13.13 0 0 0-.14-.13.13.13 0 0 0-.13.13c0 .07.06.13.13.13.08 0 .14-.06.14-.13zm16.47-.2c-.04-.1-.07-.5-.07-.87 0-.64-.06-.66-1-.5-1.3.24-1.31.27-.58 1.05.57.6 1.82.84 1.65.32zm1.51-.34c-.18-.22-.39-.35-.45-.28-.19.18.19.69.5.69.18 0 .16-.16-.05-.4zm-24.2-.39c.1-.16-.48-.26-1.57-.26-.98 0-1.74.11-1.74.26 0 .15.7.27 1.57.27.87 0 1.65-.12 1.74-.27zm-5.02-.8c.24-.4.17-.43-1.26-.64-1.44-.2-1.68.14-.4.56 1.18.39 1.46.4 1.66.07zm-14.86-.39c.08-.22.45-.4.82-.4.5 0 .67-.13.67-.55 0-.45-.12-.53-.6-.41-.32.08-1.09.22-1.7.32-1.74.28-1.78 1.42-.04 1.43.38 0 .76-.17.85-.39zm24.66-.2c.4-.39-.09-.46-1.45-.2-.93.18-1.78.17-2.6 0-1.27-.3-1.57-.23-1.26.28.21.34 4.97.27 5.31-.08zm25.25.2a.13.13 0 0 0-.13-.13.13.13 0 0 0-.14.13c0 .07.06.13.14.13.07 0 .13-.06.13-.13zm-19.93-.3a.25.25 0 0 0-.36 0c-.1.09-.01.17.18.17.2 0 .27-.08.18-.18zm13.43-.07c.08-.13-.03-.3-.25-.39-.24-.09-.4 0-.4.24 0 .43.42.53.65.15zm21.65-.55c.21 0 .2-.1-.02-.32-.24-.25-.4-.2-.7.2-.52.68-.51 1.05 0 .53.24-.23.56-.41.72-.41zm-54.21.13c.1-.28.54-.4 1.5-.4.83 0 1.28-.1 1.18-.26-.3-.49-3.91-.32-5.05.24l-1.04.5 1.2.12c.65.05 1.38.12 1.62.15a.6.6 0 0 0 .59-.35zm21.79-.03c-.09-.09-.32-.1-.5-.02-.22.08-.16.15.15.16.28.01.44-.05.35-.14zm-2.33-1.06c-.39-.46-.63-.28-.41.3.09.23.29.35.44.25.2-.12.18-.29-.03-.55zm-39.4.3a.13.13 0 0 0-.14-.14.13.13 0 0 0-.13.13c0 .08.06.14.13.14.08 0 .14-.06.14-.14zm1.5-.05a.25.25 0 0 0-.36 0c-.1.1-.01.18.18.18.2 0 .27-.08.18-.18zm30.5-.28c.99-.39.3-.58-1.52-.41-1.04.1-1.64.26-1.64.47 0 .38 2.12.34 3.15-.06zm-15.75-.21c.38-.3.42-.4.14-.42-.72-.06-1.18.07-1.57.45-.33.32-.3.37.27.36.36 0 .88-.18 1.16-.4zm18.32-.04a.25.25 0 0 0-.35 0c-.1.1-.02.18.17.18.2 0 .28-.08.18-.18zm19.05-.26c-.1-.1-.18-.02-.18.17 0 .2.08.28.18.18.1-.1.1-.26 0-.35zM39 92.39c1.39-.28.14-.31-1.46-.03-.9.16-1 .22-.4.23.44.01 1.27-.08 1.86-.2zm11.77 0c0-.4-.31-.49-2.39-.64l-1.98-.14 1.83.38c1 .21 1.89.44 1.96.52.23.22.58.15.58-.12zm47.8-.73c-.06-.26-.12-.12-.12.32s.05.65.12.47c.07-.18.08-.54 0-.8zm-64.73-.2c0-.3-.3-.4-1.05-.4-1.8 0-1.63.72.19.77.6.01.86-.1.86-.38zm10.22-.81a.64.64 0 0 0-.56-.39c-.56 0-.5 1 .06 1.12.53.1.71-.17.5-.73zm13.52.6c-.08-.2-.5-.3-1.15-.24-1.63.13-1.74.57-.13.57 1 0 1.36-.09 1.28-.33zm4.96.06c.53 0 .53-.01.02-.4-.33-.24-1.05-.37-1.99-.35-.8.02-1.17.1-.8.16.36.07.76.3.88.52.14.25.44.34.8.24.3-.08.8-.16 1.1-.17zm4.3-.01a.85.85 0 0 0-.92 0c-.38.22-.3.27.46.27s.84-.05.46-.27zm13.82-.05c0-.18-.12-.5-.26-.72-.2-.31-.25-.24-.26.33 0 .4.12.72.26.72.15 0 .27-.14.26-.33zm-56.1-.03c-.3-.25-2.63-.4-2.63-.16 0 .14.62.26 1.37.26.75 0 1.31-.04 1.25-.1zm29.22-.3c.16-.42-.06-.5-.74-.23-.58.22-.53.63.08.63.28 0 .57-.18.66-.4zm11.01 0c-.86-.49-1.32-.49-1.32 0 0 .29.28.4 1 .39h.98zm-33.93-.39c1.07 0 .66-.72-.5-.87-1.49-.2-1.88-.03-1.47.64.2.33.5.46.85.37.29-.07.8-.14 1.12-.14zm16.62-.01c1.09-.41.58-.6-1-.37-1.17.17-1.3.23-.74.4.94.27.95.27 1.74-.03zm30.67-.79c0-.2-.14-.4-.33-.46-.2-.07-.33.12-.33.46s.14.53.33.47a.52.52 0 0 0 .33-.47zm-.79-1.59c.09-.14.04-.26-.12-.26-.15 0-.28.12-.28.26 0 .15.06.27.12.27s.19-.12.28-.27zm17.7-7.8c-.1-.23-.5-.4-.95-.4-.87 0-.92-.6-.06-.73.88-.14 4.08-1.46 4.08-1.7 0-.37-.6-.24-2.91.66l-2.75 1.07c-.47.18-.48.2-.04.7.7.77 2.9 1.1 2.62.4zM75.6 78.62c.87-1.66 1.03-2.88.56-4.13-.2-.5-.36-.64-.55-.44-.2.19-.2.44-.02.77.32.6.06 2.1-.7 4-.76 1.88-.32 1.76.71-.2zm10.54.62c-.1-.1-.18-.02-.18.17 0 .2.08.28.18.18.1-.1.1-.26 0-.35zm5.38.3a.13.13 0 0 0-.14-.13.13.13 0 0 0-.13.14c0 .07.06.13.13.13.08 0 .14-.06.14-.13zm6.61-.4c.32-.2.29-.25-.18-.25-.32 0-.66.11-.75.26-.2.34.4.34.93 0zm1.72-.26c.09-.14-.02-.26-.23-.26-.22 0-.47.12-.56.26-.1.15.01.27.23.27s.47-.12.56-.27zm-8.07-.79c.31-.2.26-.25-.26-.23-.37 0-.96.11-1.33.23-.6.2-.58.21.27.23.5.02 1.1-.09 1.32-.23zm3.03-.82c.4-.37-.21-.29-1.21.17l-.9.4.93-.17a3.2 3.2 0 0 0 1.18-.4zm5.64.03c.5-.31.86-.74.86-1.06 0-.3-.05-.53-.1-.53-.04 0-.58.48-1.2 1.06-1.19 1.13-.97 1.39.44.53zm-7.58-.57c1.66-.56 1.34-.7-1.58-.66-2.88.04-3.7.23-2.94.7.54.35 3.43.32 4.52-.04zm7.19-1.09c.5-.62.97-1.33 1.06-1.58.27-.77.71-.53.71.38 0 .6.09.76.29.56.3-.3.1-1.85-.32-2.48-.22-.32-.3-.3-.57.12-.18.28-.89 1.27-1.58 2.2-1.4 1.87-1.42 1.93-.88 1.93.21 0 .79-.5 1.29-1.13zm-4.16.11c-.56-.1-.8.1-.55.48.13.22.3.2.6-.04.37-.31.36-.36-.05-.44zm1.97.1a.13.13 0 0 0-.14-.14.13.13 0 0 0-.13.13c0 .07.06.13.13.13.08 0 .14-.06.14-.13zm-9.86-.96c-.25-.14-.46-.44-.46-.66 0-.21-.3-.5-.66-.64-1.1-.42-.76-.8.73-.8.77 0 2.05-.17 2.85-.4.8-.22 1.9-.47 2.45-.56.7-.11 1.37-.52 2.2-1.33.67-.65 1.15-1.24 1.07-1.31-.08-.08-.5-.07-.94.03-.54.12-.82.36-.87.74-.07.46-.62.75-3 1.57-2.45.85-3.13.98-4.36.86a4.21 4.21 0 0 0-1.84.11c-.91.62 1.12 2.69 2.63 2.67.58 0 .6-.04.2-.28zm5.75-.38c1.57-.46 3.46-2.03 2.64-2.2-.24-.05-.75.2-1.14.57-.39.37-1.77 1.04-3.08 1.5-2.13.73-2.25.8-1.11.68.7-.08 1.9-.32 2.7-.55zm3.24.06c.56-.31.57-.34.1-.64-.41-.25-.6-.2-1.1.34-.57.6-.57.64-.1.64.28 0 .78-.16 1.1-.34zm-6.68-.71c.46-.2.42-.23-.26-.24-.44-.01-.97.1-1.19.24-.31.2-.26.25.26.24.37 0 .9-.12 1.2-.24zm8.74-1.75c.38-.5.76-1.33.84-1.84.09-.5.25-.98.37-1.06.26-.16.02-.9-.3-.9-.11 0-.29.5-.4 1.12-.1.62-.58 1.67-1.07 2.35-.5.67-.9 1.3-.9 1.38 0 .37.83-.22 1.46-1.05zm-89.64.28c.33-.34.9-.4 2.96-.3 1.4.05 7.24.13 12.99.17 8.9.06 10.62 0 11.57-.35.61-.22 2.16-.49 3.44-.59a19.1 19.1 0 0 0 3.43-.54c1.24-.42 3.99-.84 6.93-1.07 1.55-.13 1.98-.25 2.07-.62.07-.25.5-.58.96-.73.75-.24.65-.27-.97-.3-1.82-.02-3.86.22-7.75.93-1.18.22-2.97.37-3.97.35-1-.03-5.95 0-11 .06-5.06.06-9.1.01-8.98-.1.11-.12 3.83-.29 8.26-.37 10.12-.19 15.1-.48 17.97-1.03 1.34-.26 5.45-.59 10.19-.8 4.36-.21 8.62-.45 9.46-.54l1.53-.16.76-1.5c.41-.82 1.01-2.45 1.33-3.61.31-1.16.73-2.36.91-2.65.19-.29.42-.91.51-1.39.1-.47.4-1.36.67-1.98.27-.62.57-1.51.66-1.98l.16-.86h-2.36c-1.3 0-3.53.11-4.96.25-3.83.38-20.75.5-20.63.16.05-.16.68-.34 1.4-.41.87-.1 1.14-.2.83-.33-.75-.3-.53-.73.4-.74.7 0 .78-.06.4-.27-.3-.18-1-.18-2.1 0-1.21.2-1.73.18-2.02-.05-.24-.2-1.1-.29-2.33-.24-1.65.07-1.95.02-1.95-.34 0-.35-.24-.4-1.53-.26-.83.1-2 .28-2.57.42-1.98.48-3.66.73-3.89.59-.42-.26.07-.64.83-.64.4 0 .89-.17 1.07-.4.18-.21.73-.39 1.2-.39.5 0 .97-.13 1.06-.29.13-.2-.25-.24-1.24-.12-1.8.2-30.71.7-30.89.53-.55-.56 1.22-.7 10.32-.79a845.5 845.5 0 0 0 18.5-.42c11.83-.44 12.45-.44 13.02.13.24.24 1.4.43 3.4.56 1.66.1 4.69.49 6.72.84l5.96 1.04c1.23.2 4.35.44 6.93.51 5.34.15 4.82.38 5.8-2.47.43-1.26 2.6-4.5 3.18-4.76.1-.05.68-.72 1.29-1.51 1.05-1.36 1.18-1.98.4-1.98-.43 0-1.88-1.62-2.12-2.38-.1-.3-.58-.96-1.07-1.44-.78-.8-1.09-.9-2.82-1.06a61 61 0 0 1-4.05-.55c-5.01-.88-7.44-1.27-7.8-1.25-.95.04-7.18-.75-7.8-.99-.37-.14-1.47-.33-2.46-.42-.98-.09-3.04-.4-4.56-.7-1.53-.3-3.36-.63-4.07-.75a52.51 52.51 0 0 0-8.35-1.44 7.95 7.95 0 0 1-2.11-.5 9.77 9.77 0 0 0-2.6-.5 9.55 9.55 0 0 1-2.42-.44 4.58 4.58 0 0 0-1.69-.28c-.64 0-1.84-.13-2.68-.28a6.96 6.96 0 0 0-1.83-.18c-.17.06 2.07.68 4.98 1.37 6.97 1.65 7.44 1.87 9.7 4.55l1.82 2.16 1.51-.13c.96-.09 2.12.02 3.14.29 2.2.57 2.43.55 2.29-.2-.18-.93.55-1.5 1.93-1.5.64 0 1.17-.11 1.17-.26 0-.56 1.04-.23 1.7.55.37.45.68.92.68 1.04 0 .56-.6.5-1.35-.12-.77-.65-1.3-.86-1.3-.52 0 .09.27.38.6.66.51.42.54.53.2.76-.22.15-.76.27-1.2.28l-.79.02 1.06.56c1.39.74 6.1 2.72 8.54 3.59 1.95.7 2.6 1.3 1.05.98-.47-.1-2.07-.64-3.55-1.2a40.84 40.84 0 0 0-2.87-1.04c-.1 0-1.12-.42-2.27-.93-2.13-.93-7.84-2.51-9.08-2.51-.93 0-.86.27.37 1.48.87.86 1.65 1.25 4.43 2.2 1.86.65 3.68 1.39 4.04 1.65.6.43 4.7 1.24 9.86 1.94 1.18.16 1.67-.1 1-.53-.15-.09-.27-.33-.27-.54 0-.62.97-.44 1.5.28.6.83 3.04 1.4 6.83 1.6 4.55.24 5.43.38 5.43.83 0 .33-.2.38-1 .25-.54-.08-3.07-.29-5.62-.45-2.55-.16-6.6-.53-9-.84-2.4-.3-4.96-.58-5.68-.6a6.95 6.95 0 0 1-1.99-.35 44.7 44.7 0 0 0-5.1-.96c-4.4-.66-6.24-1.1-8.26-2-1.3-.58-2.87-.88-2.64-.52.4.64-.81.52-2.33-.24-2.36-1.17-3.37-1.43-3.74-.96-.3.4-.59.34-6.37-1.33a77.94 77.94 0 0 0-5.03-1.2c-2.72-.56-3.57-.85-3.28-1.15.3-.3 10.9 1.93 12.64 2.65 1.06.44 1.58.5 1.2.11-.14-.14-.9-.48-1.69-.75-1.36-.46-2.08-1.1-1.24-1.1.22 0 1.4.34 2.6.76 4.75 1.66 5.36 1.24 1.15-.76-2.55-1.22-2.94-1.33-4.71-1.33-1.06 0-2.04-.1-2.18-.24a2 2 0 0 0-.92-.33c-.36-.05-.66-.25-.66-.46 0-.3.5-.36 2.37-.31 1.3.03 2.6.18 2.88.33.59.32 4.51.4 5.42.1.58-.18.59-.22.18-.67a6.65 6.65 0 0 0-1.8-1.06c-.76-.32-1.85-.8-2.43-1.06-.58-.27-1.48-.56-1.99-.66a25.8 25.8 0 0 1-4.36-1.34c-1.42-.63-5.6-1.97-6.15-1.97-.3 0-.94-.16-1.43-.36-1.14-.46-6.85-1.06-7.15-.76-.3.3-.36 22.95-.1 36.68l.21 10.82 2.37-.17c1.61-.11 2.5-.3 2.78-.58zm8.55-6.11c0-.13.45-.42.99-.66 1.37-.6 19.98-1.1 24.06-.64 2.58.29 3.27.48 2.92.83-.09.09-2.4.05-5.14-.1-3.83-.19-5.1-.17-5.51.08-.63.38-17.33.85-17.32.49zm36.55-.23c-1.56-.38-1.85-.56-1.48-.9.37-.35 4.6.52 4.6.95 0 .44-1.2.41-3.12-.05zm-5.54-.4c-2.62-.56-2.97-.69-2.97-1.04 0-.39.9-.35 3.04.14 2.7.62 3.13.77 3.25 1.12.13.4-.59.36-3.32-.23zm10.66.28c-.25-.4.08-.8.65-.8.46 0 .98.45.76.64-.32.28-1.27.4-1.41.16zM35.96 53.51a2.72 2.72 0 0 0-1.25-.29c-.48 0-.86-.12-.86-.26 0-.4 1.23-.62 2.33-.43.53.1 2.6.2 4.59.23 3.25.06 4.26.2 3.89.59-.29.28-8.3.43-8.7.16zm-10.69-.25c-.34-.55 1.13-.83 4.36-.83 2.88 0 3.82.21 2.75.63-.89.34-6.92.5-7.1.2zm-5.92-1.12c.09-.29 1.02-.42 3.93-.57 3.96-.2 4.78-.13 4.3.35-.16.16-2.1.35-4.32.43-3.4.13-4.02.1-3.91-.21zm-9.94-.19c-.1-.15-.09-.34.02-.4.12-.07 1.96-.2 4.11-.31 3.48-.17 3.9-.15 3.9.23 0 .35-.32.43-1.78.43-.99 0-2.75.08-3.93.17-1.41.1-2.2.07-2.32-.12zm42.06-14.03c-.1-.15.08-.35.38-.45.43-.13.53-.35.47-1-.08-.81-.04-.85 1.16-1.08 1.67-.33 2.66.26 2.54 1.5-.1 1-.83 1.18-.96.26-.11-.81-.58-.76-.58.06 0 .45-.14.66-.46.67-.25 0-.9.07-1.42.16-.55.09-1.03.04-1.13-.12zm-36.67-.55c-.8-.09-1.43-.25-1.4-.36.1-.26 0-.26 1.87-.05.9.1 1.72.3 1.8.42.15.24.08.24-2.27-.01zm85.72 34.7c0-.32-.07-.33-.4-.06-.21.18-.4.5-.4.72 0 .32.08.34.4.07.22-.18.4-.5.4-.73zm-30.75-.76a1.9 1.9 0 0 0-.87-.4c-.42-.08-.51.03-.46.57.14 1.32.3 1.44 1 .78.54-.5.6-.69.33-.95zm5.35-1.08c-.26-.41-.28-.38-.15.19.08.36.16.84.18 1.06.03.21.1.13.16-.2.06-.32-.02-.8-.19-1.05zm21.92.87c1.23-.62 1.9-1.5 1.9-2.51 0-.27.17-.64.4-.82.53-.44.5-.64-.25-1.5-.83-.96-1.2-.6-.58.57.48.89.48.91-.12 1.9-.71 1.18-1.73 2.2-2.18 2.22-.18 0-.55.18-.83.4-.86.64.2.48 1.66-.26zm-6.78-.19c2.48-.64 2.66-.74 2.33-1.28-.21-.34-.4-.33-1.51.06-1.8.62-4 1.06-5.3 1.06-.79 0-1.13.11-1.13.36 0 .57 3.06.46 5.61-.2zm10.7-.4c-.1-.1-.17-.02-.17.17 0 .2.08.28.17.18.1-.1.1-.26 0-.35zm-26.49-1.17c.29-.46-.04-.56-.4-.12-.21.25-.23.4-.06.4.16 0 .36-.12.46-.28zm20.8-.8c1.12-.56 2.16-1.88 2.02-2.56-.07-.34-.28-.17-.81.66-.48.74-.97 1.17-1.45 1.27-1.02.2-1.99.72-2.12 1.13-.14.43.97.2 2.36-.5zm-6.38-.4c1.19-.37 2.1-.72 2.04-.79-.34-.34-4.43.9-4.43 1.35 0 .2.09.18 2.4-.55zm1.58.56a.13.13 0 0 0-.14-.13.13.13 0 0 0-.13.13c0 .07.06.13.13.13.08 0 .14-.06.14-.13zm-18.26-.37c0-.25-.9-.55-1.65-.55-.82-.01-.5.48.4.6.47.05.94.12 1.05.14.11.03.2-.06.2-.19zm20.58-.4c1.16-.58 2.52-1.75 2.05-1.75-.72 0-2.77.99-2.88 1.38-.06.26-.4.59-.74.72-.47.2-.5.26-.15.27.26 0 1.03-.27 1.72-.62zm-20.71-.95c-.1-.15-.37-.26-.61-.25-.37.02-.35.06.08.25.7.3.72.3.53 0zm15.48 0c.35-.23.35-.26 0-.26-.22 0-.58.12-.8.26-.35.23-.35.25 0 .25.22 0 .58-.11.8-.25zm5.62-1.1c.25-.14.46-.41.46-.61 0-.47-1.26-.15-2.47.64l-.84.55 1.2-.18a7.2 7.2 0 0 0 1.65-.4zm3.24-.49c.29-.46-.14-.85-.55-.5-.2.16-.38.4-.38.53 0 .32.73.3.93-.03zm-9.97-.73c.29-.4.6-1.4.7-2.21.18-1.33.12-1.6-.53-2.65-.88-1.4-.88-1.41-1.05-1.24-.08.08.16.66.52 1.3.86 1.5.84 2.09-.12 3.98-.58 1.14-.69 1.55-.41 1.55.2 0 .6-.33.9-.73zm-2.68-1.42c.18-1.4-.21-1.13-.67.46-.4 1.44-.39 1.62.11 1.12.23-.23.48-.94.56-1.58zm8.67 1.24c.92-.22 2.26-1.12 2.26-1.53 0-.16-.22-.09-.48.15-.5.45-1.15.57-1.46.27-.09-.1.04-.33.3-.52.28-.22.32-.36.12-.36-.19 0-.54.23-.79.52-.25.29-.6.53-.76.53-.17 0-.36.35-.42.79-.08.53-.03.71.16.56.16-.12.64-.3 1.07-.4zm-17.38.12c.18 0 .33-.15.33-.34 0-.18.24-.48.54-.67.3-.18.47-.44.38-.58-.08-.13.09-.36.38-.52.41-.22.58-.18.8.19.23.38.27.29.22-.46-.07-.8-.18-.94-.83-1.02a4.63 4.63 0 0 0-1.37.07c-.71.18-1.57 1.5-1.8 2.76-.16.83-.13.88.42.73.33-.08.74-.16.93-.16zm20.27-.4c.67-1.01.5-1.41-.22-.53-.36.44-.66.88-.66 1-.02.42.47.16.88-.46zm-13.06-.28c.6-1.57.06-4.09-.87-4.09-.22 0-.21.1.02.32.17.18.32.55.32.83 0 .42-.18.35-1.07-.46-1.04-.94-1.58-1.04-1.58-.3 0 .22.2.3.5.23.67-.18 1.32 1.04 1.54 2.84.17 1.46.71 1.76 1.14.63zm2.74.26c.1-.23.16-.62.16-.86-.01-.38-.06-.37-.4.07-.43.57-.51 1.2-.15 1.2.13 0 .3-.18.4-.41zm4.5-.8c.25-.63.19-2.04-.1-2.49-.19-.28-.26-.05-.26.84a6.8 6.8 0 0 1-.17 1.65c-.08.23-.04.42.1.42.15 0 .34-.19.43-.42zm-9.6-1.35c-.24-.42-.28-.4-.28.2 0 .38.08.78.19.9.32.31.4-.59.09-1.1zm14.21-1.38c.07-.22-.13-.18-.58.11-.38.25-.7.58-.7.72 0 .35 1.13-.4 1.28-.83zm-14.5.37a.13.13 0 0 0-.13-.13.13.13 0 0 0-.14.13c0 .08.06.14.14.14.07 0 .13-.06.13-.14zm4.23-.22c0-.2-.24-.57-.53-.83-.6-.55-.65-.44-.22.51.33.73.75.9.75.32zm6.57-1.03c-.32-.95-.66-1.43-.88-1.22-.2.2.62 2.08.92 2.08.14 0 .13-.36-.04-.86zm-16.18-.53c-.08-.18-.14-.03-.14.33s.06.51.14.33c.07-.18.07-.48 0-.66zm21.25.2c0-.22-.11-.4-.26-.4-.15 0-.26.18-.26.4 0 .22.11.4.26.4.15 0 .26-.18.26-.4zm-18.68-.27c.08-.23.42-.5.75-.63.33-.12.6-.43.6-.7 0-.67.57-.78.74-.13.1.35.36.54.76.53.99 0 1.33-.34 1.07-1.05-.27-.73.2-2.99 1.17-5.52.95-2.49 1.33-3.14 2.87-4.93 1.88-2.18 1.97-2.37 1.1-2.15-.5.13-.75.06-.86-.23-.2-.52-.9-.52-.9 0 0 .21-.2.4-.46.41-.36.01-.34.08.14.3.73.36.74.52.06.95-.45.28-.56.26-.7-.07-.22-.6-1.41-.53-1.41.08 0 .34-.33.59-1.06.8-.58.18-1.06.47-1.07.65 0 .34-1.92 2.03-2.3 2.03-.57 0-1.94 5.92-1.9 8.16.02.83.09 1.26.15.97.26-1.29.72-2.51.95-2.51.28 0 .14 2.26-.18 2.98-.12.27-.1.46.06.46.14 0 .33-.18.42-.4zm1.09-2.78c-.09-.14-.09-.26 0-.26.1 0-.08-.35-.38-.77-.45-.63-.55-1.13-.51-2.72.04-2.07.42-2.86 1.37-2.86.5 0 .51.02.06.52-.26.29-.4.7-.31.94.09.23.02.63-.14.9-.25.4-.2.6.28 1.11.35.38.53.83.45 1.15-.08.28-.01.66.13.84.2.22.19.5-.02.87-.31.6-.67.7-.93.28zm2.51-6.82c0-.38.62-.85 1.11-.85.6 0 .61.24.02.7-.52.39-1.13.47-1.13.15zm1.46-1.64c-.2-.31.48-.63.98-.47.22.07.14.22-.24.42-.38.2-.63.22-.74.05zM94.3 59.04c.1-.15.04-.26-.11-.26-.16 0-.28.11-.28.26 0 .15.05.27.11.27.07 0 .2-.12.28-.27zm-7.36-1c-.59-.92-1.76-1.5-1.76-.87 0 .16.23.28.52.28.31 0 .68.32.93.8.23.43.53.8.67.8.15 0-.02-.46-.36-1zm4.34-.89c-.3-.28-.55-.63-.55-.77 0-.53-.48-.22-.64.41-.13.53.02.82.7 1.44l.87.77.08-.67c.06-.42-.11-.86-.46-1.18zm-16.95 1.23a.13.13 0 0 0-.13-.13.13.13 0 0 0-.14.13c0 .07.06.13.14.13.07 0 .13-.06.13-.13zm14.02-.57c0-.63-1.04-2.2-1.46-2.2-.69 0-.64.45.15 1.32a4 4 0 0 1 .78 1.1c0 .12.12.22.27.22.14 0 .26-.2.26-.44zm6.77-.29c-.26-.26-.49.14-.27.5.17.27.23.27.32 0 .06-.19.04-.4-.05-.5zm-1.21.07a.13.13 0 0 0-.14-.14.13.13 0 0 0-.13.14c0 .07.06.13.13.13.08 0 .14-.06.14-.13zm-4.4-2.55c-.24-.86-1.53-2.06-1.86-1.74-.1.1.07.46.39.8.3.33.7.99.87 1.47.4 1.16.95.69.6-.53zm2.28.3c0-.56-.29-1.1-.95-1.8-.9-.94-.94-.96-.8-.28.14.62 1.44 2.87 1.66 2.87.05 0 .09-.36.09-.8zm2.33.01c.07-.2-.03-.3-.23-.23-.2.07-.4.27-.46.46-.07.2.03.3.23.24.19-.07.4-.28.46-.47zm-10-.15a.13.13 0 0 0-.14-.13.13.13 0 0 0-.13.13c0 .08.06.14.13.14.08 0 .14-.06.14-.14zm3.44-.53a.4.4 0 0 0-.4-.4c-.29 0-.35-.2-.24-.85.14-.82.12-.84-.27-.35-.55.68-.53 1.38.05 1.72.64.37.86.34.86-.12zm-2.91-.4c0-.14-.33-.25-.73-.24-.65.02-.67.05-.2.25.72.3.93.3.93 0zm9-.65a.13.13 0 0 0-.14-.14.13.13 0 0 0-.13.14c0 .07.06.13.13.13s.13-.06.13-.13zm1.05-1.72c0-1.45-.06-1.6-.73-1.95-1.25-.64-3.56-1.04-4.3-.74-.58.24-.6.27-.11.29.3 0 .77.19 1.06.4.28.22.95.4 1.48.4s1.16.08 1.39.17c.74.28.15.63-1.08.63-.84 0-1.16.1-1.08.33.07.19.4.3.75.24 1.28-.2 1.64-.16 1.76.16.06.2-.11.33-.44.33-.3 0-.55.13-.55.28 0 .16.2.26.46.24.86-.09 1.13 0 1.13.4 0 .23.06.4.13.4s.13-.7.13-1.58zm-10.26.99c-.64-.2-.96-.2-1.18.02-.23.24-.02.3.87.28l1.18-.02zm72.17.06c0-.14-.1-.26-.25-.26-.13 0-.32.12-.4.26-.1.15.01.27.24.27.23 0 .41-.12.41-.27zM88.5 52.3c-.59-.45-.94-.5-.94-.15 0 .27.46.5 1.06.52.3.01.26-.09-.12-.37zm-37.66-.44c-.23-.23-.47-.23-.91-.02-.57.28-.55.3.3.31.7.02.85-.05.61-.29zm8.79.07c.19-.3-2.76-.96-6.07-1.34l-3.44-.42c-.68-.1-.62-.03.4.45 2.92 1.38 3.51 1.53 6.26 1.54 1.49 0 2.77-.1 2.85-.23zm26.07-.02c0-.15-.44-.26-.99-.24-.88.02-.92.05-.33.24.95.3 1.32.3 1.32 0zm4.56-.59c-.17-.17-.4-.22-.5-.1-.12.1-.03.3.18.42.5.3.72.08.32-.32zm65.82-.57c0-.48-2.41-.7-7.87-.7-2.69 0-4.3.1-4.3.27 0 .14.03.29.07.31.04.03 2.27.13 4.96.21l6.02.22c.8.04 1.12-.05 1.12-.3zM85.75 49.3c-.71-.1-.97.06-.72.46.12.2.35.19.76-.04l.58-.33zm-44.7-.24a3.77 3.77 0 0 0-1.18 0c-.33.07-.06.12.6.12.65 0 .91-.05.59-.12zm47.3-.07c0-.14-.18-.18-.4-.1-.21.08-.4.2-.4.26 0 .05.19.1.4.1.22 0 .4-.11.4-.26zm5.93-.33c-.1-.33-.18-.78-.17-1 .04-.6-.5-2.68-.91-3.5-.38-.76-1.09-.95-1.61-.42-.24.23-.2.38.13.63.38.27.4.4.1.75-.38.45-.25.56.87.74.28.05.56.21.6.38.08.2-.49.25-1.82.17-1.5-.09-2.05-.02-2.46.3-.5.4-.47.41.57.26 1-.15 1.12-.1 1.55.63.32.53.86.91 1.69 1.18 1.68.54 1.68.54 1.46-.12zm-1.95-.87c-.35-.35-.55-.73-.44-.84.29-.29 1.6.52 1.7 1.05.13.64-.5.54-1.26-.21zm-5.57.67c.31-.2.23-.26-.34-.26-.43 0-.68.1-.58.26.2.33.41.33.92 0zm3.25-.44a1.52 1.52 0 0 0-.8-.01c-.25.07-.1.13.33.13.44 0 .65-.05.47-.12zm-11.18-.64c0-.13-.18-.16-.4-.08-.22.09-.4.26-.4.38 0 .13.18.16.4.08.22-.08.4-.26.4-.38zm65.96.37c.1-.1.04-.33-.12-.53-.4-.48-4.3-.5-4.13-.02.1.28 1.24.5 3.53.68.3.03.63-.03.72-.13zm9.18-.07c-.62-.36-8.73-.65-8.73-.32 0 .28 1.78.42 6.61.5 1.55.03 2.36-.04 2.12-.18zm-66.41-.58c0-.3-.99-.3-1.17 0-.08.12-.08.29 0 .37.2.2 1.17-.1 1.17-.37zm52.58-.76c3.01 0 4.3-.09 4.3-.3 0-.44-15.02-.19-15.74.27-.43.27.16.3 3.3.18 2.12-.08 5.78-.15 8.14-.15zm-18-.42c-.08-.1-.31-.1-.5-.02-.21.08-.15.14.16.16.28 0 .43-.06.35-.14zm7.35-.37c.68-.18.59-.21-.6-.24-.88-.02-1.35.07-1.25.24.18.3.69.3 1.85 0zm26.46 0c.1-.15.04-.27-.12-.27-.15 0-.28.12-.28.27 0 .14.06.26.12.26.07 0 .2-.12.28-.26zm-34.7-.37c.09-.25-.13-.42-.67-.53-.92-.18-3.24-.16-2.53.02.25.07.46.3.46.5 0 .52 2.53.53 2.73 0zm32.98 0c0-.22.08-.58.17-.82.14-.36.03-.43-.57-.36-.9.1-1.1.54-.52 1.12.53.53.92.55.92.05zm-65.2-.29c.28-.21.4-.39.25-.39-.15 0-.5.18-.78.4-.28.2-.4.38-.25.38.14 0 .5-.17.78-.39zm61.16-.03c-.09-.1-.31-.1-.5-.02-.22.08-.15.14.15.16.28 0 .44-.05.35-.14zM82 44.62a.13.13 0 0 0-.13-.13.13.13 0 0 0-.13.13c0 .07.06.13.13.13s.13-.06.13-.13zm41.47-.03c-.09-.09-.32-.1-.5-.02-.22.09-.16.15.15.16.28.01.44-.05.35-.14zm1.57-.01a.25.25 0 0 0-.35 0c-.1.1-.02.17.17.17.2 0 .28-.08.18-.17zm16.2-.95c.12-.33.17-.73.1-.9-.18-.5.31-.62 1.37-.33 1.3.36 1.58.07 1.34-1.34-.22-1.3-.74-1.3-.93-.01-.07.48-.28.93-.46 1-.25.07-.33-.41-.33-1.88v-1.99l-.82-.18c-.44-.1-.89-.1-.98 0a8.7 8.7 0 0 0-.09 2.3c.06 1.69 0 2.1-.27 2.01-.27-.08-.38-.94-.43-3.38-.08-3.21-.27-3.97-1.02-3.97-.29 0-.36.66-.36 3.18 0 2.61-.07 3.17-.4 3.17-.3 0-.4-.6-.45-3.23-.07-2.64-.15-3.26-.48-3.31-.84-.15-.94.3-.84 3.71.09 2.9.16 3.32.46 2.91.33-.45.35-.45.52.06.5 1.55 1.02 1.79 1.41.65.17-.49.41-.75.58-.65.16.1.23.35.15.55-.16.41.33 1.71.76 2.02.5.36.95.2 1.17-.4zm3.2.2c-.18-.22-.43-.4-.56-.4-.13 0-.23.18-.23.4 0 .22.24.4.56.4.47 0 .5-.07.23-.4zm7.68 0c0-.22-.12-.4-.27-.4-.15 0-.26.18-.26.4 0 .21.11.4.26.4.15 0 .27-.19.27-.4zm-34.59-.07c-1.33-.05-3.6-.05-5.02 0-1.43.05-.33.09 2.43.09 2.77 0 3.93-.04 2.6-.09zm6.96-.1c-.87-.18-1.39-.17-1.57.02-.2.2.2.27 1.3.25l1.57-.03zm26.3-.94c0-.74-.08-.9-.42-.77a2.7 2.7 0 0 1-.53.16c-.27 0-.07 1.55.22 1.66.55.2.73-.06.73-1.05zm-2.51-.1c0-.63-.12-.91-.4-.91-.42 0-.67.97-.42 1.63.27.7.82.21.82-.73zm-12.17.54c-.1-.14-.4-.26-.7-.26-.29 0-.45.12-.36.26.09.15.4.27.7.27.28 0 .45-.12.36-.27zm-4.1-.9c.16-.5.43-.97.6-1.03.46-.16-.05-.63-.9-.84-.63-.16-.7-.1-.82.66-.3 2 .55 2.9 1.11 1.2zm14.28.16c0-.71-.4-1.37-.84-1.37-.25 0-.28 1.1-.05 1.7.27.7.9.48.9-.33zm-16.14.27c0-.1-.18-.46-.4-.77-.36-.52-.35-.6.02-.8.32-.19.4-.61.33-1.94-.08-1.7-.08-1.7-.87-1.7h-.8l.1 1.72c.05.98.25 1.9.46 2.13.2.23.37.6.37.82 0 .22.08.48.18.57.24.24.61.23.61-.03zm3.92-.38c-.06-.48.06-.62.66-.69l.74-.08-.08-1.9c-.07-1.77-.12-1.9-.7-1.99-.87-.12-1.1.37-.97 2.04.1 1.23.04 1.43-.4 1.55-.85.22-.57 1.66.32 1.66.38 0 .5-.15.43-.6zm.19-2.58c-.1-.15.02-.27.24-.27.23 0 .42.12.42.27 0 .14-.11.26-.25.26s-.32-.12-.41-.26zm18.65 2.43c0-.26-.14-.61-.3-.78-.24-.23-.23-.4.03-.72.19-.23.35-.98.37-1.67.03-1.16-.02-1.25-.66-1.33-.87-.1-.93.1-.82 2.8.1 2.1.12 2.18.74 2.18.44 0 .64-.15.64-.48zm1.59.08a.4.4 0 0 0-.4-.4.4.4 0 0 0-.4.4.4.4 0 1 0 .8 0zm1.32.13a.27.27 0 0 0-.27-.26.27.27 0 0 0-.26.26c0 .15.12.27.26.27.15 0 .27-.12.27-.27zm-67.07-.67c.29-.19.94-.42 1.45-.52 1.08-.22 3.1-1.41 3.31-1.95.12-.3.07-.3-.24-.05-.46.37-2.06.28-2.2-.14-.07-.24.6-.52 2.5-1.06.19-.05.3-.34.27-.66a.98.98 0 0 1 .38-.86c.58-.37.92-.05.5.47a.68.68 0 0 0-.08.83c.3.53.38.41.97-1.4.25-.76.38-1.62.29-1.9-.1-.3.06-.93.36-1.5.46-.84.48-1.03.15-1.35-.32-.32-.24-.63.58-2.25.87-1.7.99-2.2 1.23-5.11.24-2.87.22-3.38-.2-4.53-.25-.71-.55-2-.64-2.88a7.99 7.99 0 0 0-.52-2.18c-.37-.68-.97-.79-1.2-.21a3.8 3.8 0 0 1-1.19 1.04c-.97.62-2.14 2.27-1.6 2.27.13 0 .25.33.26.73.02.68.05.66.5-.33.57-1.28 1.44-2.1 1.99-1.9.6.24.5.92-.4 2.67-.9 1.77-.97 2.67-.34 4.07l.44.98.26-.99c.29-1.05.62-1.27.89-.56.2.5-.28 3.35-.89 5.32-.34 1.1-.36 1.46-.1 1.78.27.32.19.54-.48 1.2-.86.86-.86 1.59 0 1.59.27 0 .5.09.5.2 0 .31-2.28 2.44-2.62 2.44-.35 0-.4-.43-.06-.64.12-.08.29-.44.36-.8.1-.57.02-.67-.5-.67-.79 0-.8-.35-.03-.88.48-.34.51-.42.15-.43-.25-.01-.57-.23-.72-.48-.23-.4-.34-.42-.84-.11-.51.32-.65.27-1.41-.46-.92-.9-1.65-1.01-2.75-.45-.4.2-1.24.45-1.88.56-1 .16-1.14.13-1-.24.2-.54-.49-.55-1.4-.03-.89.5-1.78.5-2.07-.02-.2-.35-.4-.38-1.24-.14-.95.26-2.25 1.21-2.25 1.65 0 .1.26.23.6.28.77.11.97 1.01.22 1.01-.58 0-1.09.71-1.09 1.52 0 .61.93 1.52 1.94 1.9.58.22.7.4.58.8-.13.41.26.96 1.67 2.39 1.76 1.77 2.7 2.29 2.7 1.5 0-.2-.17-.51-.38-.68a11.3 11.3 0 0 1-1.74-3.59c0-.2-.26-.62-.58-.92-.32-.3-.53-.58-.46-.63.06-.06.8-.16 1.63-.23 1.32-.1 1.52-.06 1.52.35 0 .6 2.5 1.49 3 1.06.24-.2.64-.2 1.31-.01 1.04.29 1.42.64.98.9-.15.1-.2.29-.12.42.25.4-.14 1.3-.56 1.3-.2 0-.34.14-.3.3.1.43-1.68.5-2.65.1-.56-.24-.86-.55-.86-.89 0-.28-.4-.84-.86-1.24-.85-.71-.86-.72-.95-.15-.05.31.22 1.07.6 1.69.37.62.8 1.42.97 1.78.62 1.36 2.87 1.83 4.34.92zm.72-1.35c-.68-.3-.28-.62.75-.62.75 0 1.05.1.98.33-.12.35-1.17.52-1.73.29zm.73-2.7c0-.28 2.33-.63 2.68-.42.13.08.17.26.09.4-.2.3-2.77.32-2.77.01zm.86-1.7c.13-.39 1.52-.6 1.52-.24 0 .28-.62.58-1.23.58-.22 0-.35-.15-.29-.33zm-4.7-1.36c-.79-.65-.78-.69.32-1 .23-.06.21-.22-.06-.58-.31-.43-.44-.45-.79-.16-.31.26-.49.27-.72.04-.56-.56.62-1.72 2.18-2.14l1.4-.38.91 1c.52.56 1.07.93 1.28.85.2-.08.43-.03.52.1.24.4-.35 1.27-1 1.47-.33.1-.77.32-1 .5-.2.19-.63.4-.92.47-.29.08-.7.22-.92.3-.23.1-.74-.11-1.2-.47zm1.06-2.54c.1-.14-.01-.26-.23-.26s-.47.12-.56.26c-.09.15.02.27.23.27.22 0 .47-.12.56-.27zm-5.95 2.63c0-.15.12-.2.27-.11.14.09.26.21.26.28 0 .06-.12.11-.26.11-.15 0-.27-.12-.27-.28zm-2.86-2.9c.13-.4 1.49-.93 1.74-.68s-.25.63-1.1.84c-.57.14-.73.1-.64-.16zm2.7-.04c-.12-.2.95-.75 1.47-.75.17 0 .55.62.54.89 0 .16-1.9.04-2.01-.14zm29.66 10.1c.1-.14-.08-.26-.38-.26s-.54.12-.54.26c0 .15.17.27.38.27.2 0 .45-.12.54-.27zm11.78.13a.13.13 0 0 0-.14-.13.13.13 0 0 0-.13.13c0 .08.06.14.13.14.08 0 .14-.06.14-.14zM45.2 41.2c-.06-.06-1.18-.46-2.49-.9-3.5-1.17-4.36-1.58-4.37-2.1 0-.25-1.17-1.67-2.58-3.15-2.33-2.44-2.72-2.73-4.1-3.13-.83-.24-1.52-.53-1.52-.66 0-.25-2.65-.88-2.86-.67-.07.07.54.43 1.37.8 2.4 1.06 3.6 1.96 3.6 2.7 0 .75 1.28 2.7 2.7 4.11.76.76 1.2 1 1.9 1 .49 0 1.77.36 2.85.8a22 22 0 0 0 3.01 1.04c1.16.24 2.67.34 2.5.16zm105.6-1.72c0-1.63-.07-1.86-.56-2.01-.75-.24-.93.03-.6.91.17.44.2.91.07 1.12-.39.61.19 1.8.88 1.8.11.01.2-.81.2-1.82zm-34.88.98c-.2-.19-.32-.2-.32-.04 0 .36.32.67.5.5.07-.08-.01-.29-.18-.46zm5.77.32c0-.14-.18-.26-.4-.26-.22 0-.4.12-.4.26 0 .15.18.27.4.27.22 0 .4-.12.4-.27zm1.72 0c.09-.14.04-.26-.12-.26-.15 0-.28.12-.28.26 0 .15.05.27.12.27.06 0 .19-.12.28-.27zm2.2-.2c-.11-.56-1.28-.8-1.28-.26 0 .51.26.73.86.73.34 0 .48-.15.42-.46zm2.16-1.34c0-1.58-.08-1.88-.66-2.42l-.66-.63v1.6c0 2.34.23 3.26.83 3.26.43 0 .5-.22.5-1.8zm27.9.72c-.25-.4-.64.26-.45.76.13.33.19.32.39-.04.13-.24.16-.56.06-.72zm-6.9.43c.23-.6-.09-1.2-.62-1.2-.46 0-.9.95-.64 1.38.23.36 1.1.24 1.26-.18zm5.68-.2c-.05-.33-.2-.6-.35-.6-.15 0-.3.27-.35.6-.06.4.05.6.35.6s.4-.2.35-.6zm-7.93-2.76c-.07-2.3-.01-3.11.24-3.2.19-.06.33.12.33.44 0 .7 1.03 1.3 1.34.78.14-.22.08-.5-.14-.72-.32-.32-.31-.46.04-1 .33-.5.63-.62 1.63-.62 1.94.01 2.42.22 2.42 1.06 0 .4-.18.88-.41 1.07-.63.52-.38 1.44.4 1.44.58 0 .67-.15.94-1.66.17-.92.41-1.77.55-1.9.13-.13.72-.28 1.3-.32 1.42-.12 1.34-.58-.13-.75-1.46-.16-1.46-.63-.01-.74.59-.04 1.06-.19 1.06-.32 0-.52-1-.67-2.61-.4-1.48.24-1.64.32-1.26.64.6.5.54.82-.17.82-.34 0-.74.13-.9.29-.2.2-.59.2-1.3 0-.57-.14-1.6-.34-2.27-.42a6 6 0 0 1-2.2-.82 5.85 5.85 0 0 0-2.2-.8l-1.24-.14.64.57c.36.3.99.63 1.4.71.74.15 1.18.52.92.78-.26.26-3.19-.44-3.67-.87-.7-.63-.8-.35-.56 1.4.18 1.33.3 1.56.8 1.64.43.06.67-.1.84-.53.26-.68.46-.4.6.84.11.9 1.2 1.09 1.32.23.14-.93.67-.87.86.09.23 1.2.23 1.2.01 3.03-.23 2-.08 2.47.83 2.47h.7l-.1-3.09zm-1.75-3.86c.17-.51 1.52-.58 1.52-.08 0 .29-.25.41-.81.41-.54 0-.78-.11-.7-.33zM99.47 40c0-.15-.19-.26-.4-.26-.22 0-.4.11-.4.26 0 .15.18.26.4.26.21 0 .4-.11.4-.26zm9.67-.93c-.33-.36-.72-.66-.86-.66s-.63-.54-1.1-1.2c-.8-1.13-.83-1.28-.54-2.1.26-.72.26-.98-.02-1.31-.44-.53-1.07-.54-1.07-.02 0 .23-.24.4-.55.4-.48 0-.53.1-.37.86.23 1.1.77 1.95 1.47 2.33.4.21.51.46.4.9-.1.38 0 .74.24.94.32.27.4.25.4-.1 0-.6.87-.54 1.45.1.26.29.63.53.82.53.21 0 .1-.26-.27-.67zm3.02.42c0-.14-.12-.33-.26-.42-.15-.09-.27.03-.27.25 0 .23.12.42.27.42.14 0 .26-.12.26-.25zm2.38.11a.13.13 0 0 0-.13-.13.13.13 0 0 0-.13.13c0 .08.06.14.13.14s.13-.06.13-.14zm18.47-.97c.08-.87.01-.98-.6-1.06-.85-.1-.9-.56-.09-.76.5-.12.6-.32.57-1.01a2.58 2.58 0 0 0-.52-1.39c-.39-.43-.42-.62-.15-1.04.28-.44.25-.52-.21-.55l-.82-.07c-.35-.03-.56 1.67-.53 4.2.03 1.56.12 1.94.6 2.33.92.77 1.66.5 1.75-.65zm11.07.7c.16-.4-.32-1.18-.73-1.18-.13 0-.23.36-.23.8 0 .85.68 1.12.96.39zm-30.34-.45c0-.19-.18-.57-.4-.85a2 2 0 0 1-.38-1c0-.25-.14-.47-.3-.47-.3 0-.2.69.3 1.97.26.7.8.93.78.35zm1.07.2a.13.13 0 0 0-.13-.14.13.13 0 0 0-.14.13c0 .08.06.14.14.14.07 0 .13-.06.13-.14zm7.4-.25c0-.21-.11-.46-.26-.55-.14-.09-.26.08-.26.38s.12.55.26.55c.15 0 .27-.18.27-.38zm2.06.05c-.13-.39-1.26-.62-1.26-.27 0 .38.31.6.86.6.29 0 .46-.15.4-.33zm1.65-.05c0-.21-.12-.46-.26-.55-.15-.09-.27-.1-.27-.04 0 .07-.07.32-.16.55-.1.27-.01.42.27.42.23 0 .42-.18.42-.39zM98 37.68c.14-.48.47-.93.74-1.02.55-.18 1.25.3 1.25.86 0 .22.13.3.3.2.45-.28.09-2.2-.54-2.87-.3-.32-.55-.84-.55-1.16 0-.61.41-.8.59-.27.06.18.72-.3 1.5-1.05.76-.75 1.31-1.48 1.22-1.63-.1-.15-.04-.27.11-.27.16 0 .28.12.28.28 0 .15.22.24.5.2.26-.05.67.07.9.27.56.45.98.18.98-.64 0-.85.72-.85 1.1 0 .35.77.76.65.76-.21 0-.91.48-1.26 1.07-.76.54.47.44.91-.16.68-.28-.1-.38.06-.38.64 0 .7.07.77.66.66.36-.07.66-.24.66-.38 0-.13.26-.06.59.17.8.56 1.06.51.85-.15-.14-.46.13-1.37.6-2.07.05-.06.24.11.45.39.32.43.42.45.81.12.4-.33.5-.3.91.24.65.85 1.39.63 1.68-.5.16-.62.15-.95-.05-1.01-.16-.05-.29-.2-.29-.33s.18-.17.39-.09c.52.2.81-1 .42-1.72-.37-.7-.81-.72-.99-.05-.13.52-1.31.91-1.56.51-.08-.12-.36-.1-.64.04-.27.15-1.38.27-2.48.27-2.19 0-3.34.3-3.34.9 0 .62-.58.8-.95.3-.3-.42-.47-.44-1.74-.13-.78.2-1.97.62-2.66.96-.68.34-1.52.61-1.85.61-.58 0-.57-.03.2-.64 1.47-1.19 7.22-2.8 10.04-2.8.88-.01 1.89-.19 2.25-.4.37-.2.94-.38 1.29-.38.34 0 .97-.27 1.41-.58.71-.5.78-.67.64-1.56-.11-.7-.06-1.03.2-1.13.28-.1.33-.71.23-2.75-.17-3.44.14-4.1 2.16-4.69.79-.23 1.74-.41 2.12-.41.43 0 .69-.15.69-.4 0-.47 1.37-2.06 2.46-2.84.63-.45 1.23-.59 2.68-.62a9.9 9.9 0 0 1 2.43.17c.65.24 1.69-.35 1.69-.97 0-1.57 1.79-2.85 4.33-3.1 1.16-.11 1.73-.32 2.25-.81.7-.67 3.32-2.01 3.93-2.02.18 0 .33-.13.33-.3 0-.22-.8-.25-2.97-.1-4 .27-12.11.42-20.31.38-3.71-.02-13.65 0-22.1.04-27.75.13-44.58.06-53.3-.23-8.6-.28-13.56-.4-27.86-.7L6.3 2.67l-.36.87c-.43 1.04-1.11 5.68-.87 5.92.1.1.55-.15 1.02-.54.59-.5 1.01-.67 1.4-.55.3.1.96.21 1.47.27.5.05 1.06.3 1.24.54.22.3.49.38.8.25.26-.1.84-.24 1.27-.3 1.24-.15 1.46-.3 1.46-.96 0-.73.45-1.25 1.1-1.25.25 0 .78-.42 1.16-.93.79-1.03 1.39-1.14 2.52-.48.77.46 1.3 1.53 1.3 2.6 0 .6.59.91 1.76.92.6 0 2.21 1.47 2.21 2 0 .18.26.39.57.47.51.14.55.27.39 1.45-.24 1.8.3 3.07 1.31 3.08.55.01 1.04-.3 1.88-1.2.63-.67 1.14-1.4 1.14-1.62 0-.5 1.56-3.45 1.96-3.7.16-.12.8-.2 1.4-.2 1.04-.01 1.17.07 1.73 1.04.48.84.74 1.05 1.26 1 .96-.1 1.7 1.5 1.64 3.54-.02.84.08 1.6.22 1.69.14.09.26.37.26.64 0 .36.15.44.66.35.52-.1.7.01.92.58a5 5 0 0 1 .27 1.48c0 .95.1.96 1.1.12 1.28-1.07 2.19-.74 2.86 1.02.23.61.4.73.9.6s.68.01 1.05.78c.24.5.44 1.32.44 1.81s.17 1.02.37 1.19c.2.16.43.64.52 1.07l.15.76 2.06-.12c1.13-.07 3.54-.19 5.34-.27 2.97-.12 3.38-.2 4.33-.83.92-.61 1.35-.7 3.5-.75 1.7-.03 2.7-.18 3.32-.5a7.37 7.37 0 0 1 5.17-.27c.97.37 1.36.4 1.87.17.36-.16.93-.3 1.28-.3s.71-.11.8-.26c.23-.37 1.57-.31 3.44.14.87.2 1.68.38 1.79.39.1 0 .2-.6.2-1.32 0-1.05.08-1.33.43-1.33.38 0 .41.25.28 1.86-.17 2.02.18 2.51.53.74.35-1.78.92-1.63.82.21-.1 1.8.14 1.96 2.09 1.41 1.02-.28 1.15-.4 1-.88a20.4 20.4 0 0 1-.35-6.4c.35-2.14 2.12-4.97 3.19-5.09.61-.07.88.15 1.85 1.5 1.2 1.7 1.66 1.95 1.93 1.1.09-.3.25-.53.36-.53.11 0 .9-.65 1.77-1.45.87-.8 1.77-1.45 2-1.46.24 0 .87.48 1.4 1.06.8.89.95 1.25.95 2.26 0 .66.23 1.64.5 2.2 1.08 2.1.83 8.07-.46 10.98a4 4 0 0 0-.39 1.79c.07.34-.03.98-.2 1.42-.4.96-1.27 5.74-1.1 6.03.3.54 1.26.02 1.5-.8zm11.25-8.27c0-.15.11-.27.25-.27s.32.12.41.27c.1.14-.02.26-.24.26-.23 0-.42-.12-.42-.26zm1.06-.66c0-.08.06-.14.13-.14.08 0 .14.06.14.14 0 .07-.06.13-.14.13a.13.13 0 0 1-.13-.13zm1.15 9.52c-.17-.45-.51-.52-.74-.15-.08.13.06.3.32.36.25.07.49.14.52.16.03.01-.01-.15-.1-.37zm43.04-.8c0-.66-.13-1.18-.29-1.18-.16 0-.2.22-.11.52.09.28.04.74-.1 1.02-.27.5-.16.84.28.84.12 0 .22-.54.22-1.2zm1.03-.06-.03-1.26-.23.93c-.12.5-.17 1.07-.11 1.26.24.68.4.28.37-.93zm-51.23.13c-.13-.7-.87-1.05-.87-.42 0 .3.82 1.35.95 1.22.03-.04 0-.4-.08-.8zm16.32.42c.22-.2-.43-1.01-.81-1.01-.21 0-.4.32-.46.75-.07.68-.02.73.53.56.34-.1.67-.24.74-.3zm28-.29c-.05-.52-.25-.75-.67-.8-.48-.07-.6.04-.6.54 0 .77.2 1 .86 1 .39 0 .48-.17.42-.74zm-46.13-2.23c-.48-1.09-.83-1.52-1.23-1.53-.2 0-.08 2.16.2 3.26l.19.75.67-.67.68-.67zm23.06.7c-.08-.21-.26-.38-.41-.38-.38 0-.35.95.05 1.6.32.52.34.51.42-.16a2.8 2.8 0 0 0-.06-1.07zM32.8 37.2c0-.39-1.44-2.25-1.74-2.25-.46 0-.72.45-.38.66.14.1.27.36.27.59 0 .5.75 1.11 1.38 1.13.26 0 .47-.06.47-.13zm81.4-.44c-.08-.22-.14-.15-.15.16-.02.27.05.43.13.34.1-.09.1-.31.03-.5zm20.84.41c.33-.12.42-.59.42-2.25 0-1.33.1-2.08.29-2.08.15 0 .35.23.42.53.08.29.3.52.5.52.56 0 .51-2.53-.04-2.75-.7-.26-.9-.18-.9.36 0 .28-.13.58-.27.67-.15.1-.27.4-.27.7 0 .29-.12.45-.26.36-.15-.09-.27-.37-.27-.63s-.24-.7-.53-.95c-.29-.27-.53-.7-.53-.97s-.11-.49-.26-.49c-.15 0-.26.59-.26 1.3 0 .73.11 1.39.26 1.48.15.09.26.98.26 1.99 0 1.45.1 1.87.47 2.09.56.33.47.32.97.12zm6.94-1.03c-.05-1.3-.1-1.33-1.09-.88-.47.22-.67.51-.67 1.01 0 .9.17 1.06 1.08 1.06.7 0 .73-.05.68-1.19zm2.47.82c0-.43-.9-.8-1.32-.55-.58.36-.26.92.53.92.51 0 .8-.13.8-.37zm-33.07-1.09c0-.43-.12-.6-.36-.5-.42.16-.75-1.08-.52-1.97.2-.75-.58-.77-.98-.02-.4.76-.07 2 .74 2.76.78.73 1.12.65 1.12-.27zm12.76.79c.28-.29-.13-1.18-.55-1.2-.37-.02-.37-.04-.04-.17.22-.09.53-.33.69-.55.25-.34.3-.33.45.04.24.63.98.54.98-.11 0-.74-.55-1.23-1.33-1.2-.57.02-.67-.1-.74-.96-.06-.76.02-1 .33-1 .47 0 .57-.93.13-1.2-.15-.1-.43.04-.62.3-.19.25-.46.38-.61.29-.73-.45-1.03 1.35-.34 2.04.14.14.27 1 .27 1.91 0 1.59.14 1.88.94 1.93.16.02.36-.04.44-.12zm5.76-1.43c0-.72-.09-1.36-.2-1.42-.1-.07-.7-.2-1.32-.3l-1.13-.2v1.24c0 1.11.06 1.22.53 1.06.37-.11.53-.04.53.23 0 .42.38.65 1.13.68.38.02.46-.21.46-1.29zm20.9 1.2c0-.62-.6-1.48-1.05-1.48-.6 0-.73.76-.22 1.27.3.3 1.27.46 1.27.2zm-42.6-.48c0-.19-.12-.51-.26-.73-.2-.31-.26-.24-.26.33 0 .4.11.73.26.73.15 0 .26-.15.26-.33zm11.65-.47c0-.53-.14-.8-.4-.8-.4 0-.57 1.07-.22 1.42.38.38.62.14.62-.62zm-6.32-.18c-.23-.4-.28-.4-.3-.06 0 .45.28.85.47.66.06-.06-.02-.33-.17-.6zm-38.32-.78c-.38-1.13-.38-1.34.02-2.62.38-1.18.64-1.52 1.73-2.22a4.19 4.19 0 0 0 1.85-2.13c.68-1.58.7-2.03.1-2.34-.86-.44-3.5-.6-4.12-.26-.32.18-.8.29-1.06.25-.27-.04-.78.12-1.15.36-.58.38-.73.39-1.1.07-.68-.56-2.98-1.03-4.02-.83-.51.1-1.35.4-1.86.67-.7.36-1.43.47-2.91.42-1.84-.06-2.08 0-3.43.84a4.82 4.82 0 0 1-2.91.94c-.8.02-1.77-.06-2.16-.2a4 4 0 0 0-2.11.16 23 23 0 0 1-4.73.41c-1.82.01-3.87.16-4.55.34-.97.25-1.56.25-2.6 0-.75-.17-2.02-.3-2.82-.3-1.3 0-1.43.04-1.13.4.19.23.58.54.87.7.43.23.5.2.36-.14-.27-.7.27-.75 1.46-.14 1.18.61 2.83.7 3.17.15.13-.2.37-.19.84.06.36.2.83.3 1.03.22.59-.23 2.89.3 3.42.77.3.27.43.64.33.93-.17.55.15.64.62.17.18-.18.21-.43.08-.6-.12-.15-.3-.55-.4-.87-.24-.78.5-.83.9-.07.16.3.4.53.55.53.14 0 .25-.24.25-.53 0-.29.1-.53.23-.53.34 0 2.15 1.77 2.15 2.1 0 .16.19.28.41.28.25 0 .64-.53.97-1.32.57-1.38 1.16-1.8.94-.66-.13.7.38 1.35.85 1.06.15-.09.27-.34.27-.55 0-.91.73-.27 1.06.94.4 1.48.62 1.52.64.1.01-.57.18-1.04.42-1.16 1.9-.95 1.88-.94 2.42-.28.97 1.2.49 1.62-1.45 1.23-.9-.18-.86.37.05.78.32.14.67.56.76.92l.17.66.16-.64c.2-.83.7-1 .93-.3.34 1.07.62.52.6-1.16-.03-1.98.44-2.93 1.04-2.1.46.63.44 1.16-.05 1.16-.55 0-.5.51.07.71.25.09.73.4 1.06.7.75.68 1.34.29.88-.57-.35-.65-.39-2.7-.06-2.7.13 0 .32.53.41 1.16.2 1.3 1.34 2.68 1.72 2.06.14-.23.38.18.71 1.2.68 2.08 1.22 2.07 1.5-.05.3-2.3.33-2.34 1.11-1.83.47.3.67.68.67 1.23 0 1 .53.86 1.05-.3.33-.74.48-.84 1.12-.71.51.1.74.04.74-.2 0-.54 2.69-4.14 3.09-4.14.19 0 .35.07.35.15 0 .32-.64 1.34-1.35 2.16a6.2 6.2 0 0 0-1.07 1.99c-.43 1.51-.64 1.74-1.46 1.58-.8-.16-1.41.47-1.41 1.45 0 .77.46.8.57.03.15-1.01.75-.89.75.16 0 .86.07.95.73.95.4 0 .9.12 1.12.26.88.57 1.04.3.61-.96zm-7.7-3.59a1.47 1.47 0 0 1-.32-.9c0-.87-.27-1.43-.69-1.43-.39 0-.5-.41-.16-.62.42-.26 1.14.6 1.51 1.84.22.71.4 1.33.4 1.36 0 .19-.46.03-.74-.25zm-15.22-.12c-.27-.27-.21-1.41.07-1.41.36 0 .64 1.07.36 1.35-.14.13-.33.16-.43.06zm18.87-.57c0-.26.16-.7.36-.96.28-.38.38-.4.5-.12.17.47-.23 1.56-.58 1.56-.15 0-.28-.22-.28-.48zm-5.66-.28c-.12-.18-.14-.4-.05-.5.23-.23.5.12.36.5-.09.27-.15.27-.31 0zm6.99-.42c0-.46.95-2 1.24-2 .45 0 .43.27-.07 1.29-.23.46-.59.83-.8.83-.2 0-.37-.05-.37-.12zm-4.59-.98c-.37-.9-.34-1.28.1-1.28.14 0 .25.29.25.64 0 .72.66 1 1.38.57.5-.3.98-.01.59.35a3.1 3.1 0 0 1-1.1.42c-.78.16-.88.1-1.22-.7zm2.73-.49c0-.14.19-.26.42-.26.22 0 .33.12.24.26-.09.15-.27.27-.4.27-.14 0-.26-.12-.26-.27zm51.07 7.15c0-.15-.05-.27-.12-.27-.06 0-.19.12-.28.27-.09.14-.04.26.12.26.15 0 .28-.12.28-.26zm-6.9-.73c-.02-.64-.05-.66-.23-.2-.12.3-.16.62-.1.73.22.39.35.19.33-.53zm11.82-1.82c-.2-.5-.95-.46-.95.05 0 .23.18.6.4.82.21.21.41.71.44 1.1.02.4.09.19.15-.44.05-.64.04-1.32-.04-1.53zm28.63 1.89c.22 0 .45-.16.52-.35.08-.26-.13-.33-.77-.27-.71.07-.9.22-.98.74-.09.58-.05.6.36.26.26-.2.64-.38.87-.38zm-51.68-.63c-.18-.72-.55-1.08-1.12-1.09-.44 0-.42.38.07 1.32.51 1 1.32.82 1.05-.23zm13.63.63c0-.22-.12-.4-.26-.4-.15 0-.27.18-.27.4 0 .21.12.4.27.4.14 0 .26-.19.26-.4zm-47.2-.6c.48-.63.46-.75-.16-.75-.38 0-.53.18-.53.61 0 .72.22.77.7.14zm38.11-1.6c-.4-.4-.43-.37-.43.4 0 .45.08 1.05.18 1.31.16.4.23.33.44-.39.2-.7.16-.96-.19-1.31zm8 1.59c.34-.62-.1-1.45-.46-.89-.21.33-.12 1.36.12 1.36.05 0 .2-.21.34-.47zm-49.8-.2c.15-.4-.32-1.18-.74-1.18-.27 0-.31 1.15-.05 1.41.3.3.62.2.79-.22zm45.8.1c-.16-.5-.73-.58-.73-.1 0 .22.19.41.42.41.23 0 .37-.14.31-.31zm27.8-.42c.04-.33-.03-.6-.17-.6a9 9 0 0 1-1.08-.16c-.7-.14-.82-.09-.82.39 0 1.12 1.91 1.47 2.07.37zm-19.8-.38c0-.55-.1-.76-.26-.6-.14.15-.18.53-.1.85.22.84.36.74.36-.25zm-56.62.22c0-.56-.76-1.1-1.09-.78-.18.19-.13.41.17.7.52.54.92.57.92.08zm50.54-.15c0-.14-.12-.33-.27-.42-.15-.09-.26.03-.26.25 0 .23.11.42.26.42.15 0 .27-.12.27-.25zm4.67-.2c-.1-.1-.18-.01-.18.18 0 .2.08.27.18.18.1-.1.1-.26 0-.35zm10.67-.48c-1.1-.42-2.12-.5-2.12-.15 0 .32.67.48 1.99.5h1.06zm-25.66-.28c0-.23-.12-.34-.27-.25-.14.1-.26.28-.26.41 0 .14.12.25.26.25.15 0 .27-.18.27-.41zm17.94-.6c.04-.46-.02-.84-.14-.84-.13 0-.24.2-.25.46a3.3 3.3 0 0 1-.23.97c-.16.37-.11.46.16.37.2-.07.41-.5.46-.96zm-66.1.48c0-.34-1.26-.94-1.5-.7-.08.09-.01.34.17.56.38.46 1.33.55 1.33.14zm84.35-.84c.06-.48-.22-.99-.99-1.82-.93-1-1.07-1.07-1.07-.57 0 .32.13.59.3.59.26 0 .24.76-.06 1.83-.07.22.16.45.55.56.94.28 1.18.17 1.27-.59zm-7.4-.15c-.07-.56-.24-.75-.78-.8-.44-.06-.75.06-.85.32-.27.72.1 1.2.93 1.2.7 0 .77-.07.7-.72zm-6.09-.13c.07-.35-.09-.46-.6-.46-.64 0-.9.47-.49.89.32.32 1 .05 1.1-.43zm1.1.35c0-.48 1.05-.58 1.68-.16.55.36.68.36.95.04.41-.5.2-.6-1.63-.83-1.51-.19-1.52-.19-1.52.5 0 .38.12.7.26.7.15 0 .27-.12.27-.25zm22.52-.44c-.7-.59-.97-.66-1.9-.5-.75.12-1 .26-.8.46.27.28 1.78.64 2.9.7.58.02.58 0-.2-.66zM49.99 30.6a.13.13 0 0 0-.14-.13.13.13 0 0 0-.13.13c0 .07.06.13.13.13.08 0 .14-.06.14-.13zm-4.77-.27a.13.13 0 0 0-.13-.13.13.13 0 0 0-.13.13c0 .08.06.14.13.14s.13-.06.13-.14zm71.73-.6a6.39 6.39 0 0 1-.4-.92c-.2-.69-.68-.56-.68.19 0 .35.2.77.46.92.69.4.9.34.62-.18zm2.36.1c0-.21.15-.44.33-.52.22-.09.09-.32-.39-.7-.88-.68-2.06-3.2-2.06-4.4 0-.49.05-.89.12-.89.3 0 2 1.14 2 1.35 0 .3-.08.3-.91-.02-.86-.32-.88-.03-.1 1.35.34.6.74 1 .99.96.23-.04.39.07.36.24-.08.37 1.74 1.8 1.98 1.56.1-.1.05-.26-.11-.36-.16-.1-.38-.48-.49-.84a3.66 3.66 0 0 0-.62-1.15 2.21 2.21 0 0 1-.43-1.24c-.01-.56-.25-.91-.92-1.37-1.09-.74-1.33-1.27-.57-1.27.3 0 .55.12.55.26 0 .15.12.27.27.27.14 0 .26-.24.26-.53 0-.36-.18-.53-.55-.53-.3 0-.79-.13-1.09-.3-.4-.21-.7-.2-1.17.05-.7.37-.84 1.5-.36 2.78.2.5.18.81-.02 1.06-.23.27-.16.55.26 1.14.3.42.55.88.55 1s.43.51.95.86c.65.45.9.8.81 1.13-.07.26-.02.48.12.48.13 0 .24-.17.24-.37zm-25.93-.3c0-.44-.05-.45-.66-.22-.36.14-.37.22-.1.4.53.33.76.27.76-.17zm29.9.03c0-.42-.39-.95-.7-.95-.37 0-.5.57-.19.89.2.19.89.24.89.06zm28.04-.62c0-.83-.63-3.02-1.06-3.7-.22-.36-.25-.19-.13.77.09.7.05 1.3-.1 1.4-.37.22-.48-.06-.7-1.82-.17-1.38-.15-1.54.24-1.4.23.1.43.06.43-.08 0-.4-1.31-3.25-1.7-3.69-.55-.62-.78-2.08-.4-2.53.39-.48.14-1.89-.45-2.54a6.38 6.38 0 0 1-.78-2.14L146 10.2c-.35-1.45-.15-2.67.3-1.95.14.21.25.7.25 1.1.01.87.44 2.07.75 2.07.13 0 .38-.51.57-1.13.43-1.46 1.02-2.58 1.34-2.58.42 0 .3.63-.4 2.22-.86 1.94-1.07 3.35-.67 4.45.18.48.42 1.74.53 2.81.28 2.68.65 2.9 1.14.72.32-1.4.63-2 1.52-2.97l1.12-1.2-.16-1.73a6.18 6.18 0 0 0-.44-2.05c-.3-.37.15-2.78.52-2.78.1 0 .34 1.4.51 3.09.3 3.05.3 3.1-.34 4.43-1 2.06-1.1 2.54-.46 2.54.69 0 1.02.53.5.82-.36.2-.45 2.3-.23 5.26.09 1.15 1.1-2.06 1.27-4.04.09-.99.26-1.86.39-1.94.12-.07.24-1.23.25-2.57.04-2.71.24-4.01.62-3.93.15.03.22 1.01.18 2.3a9.73 9.73 0 0 0 .05 2.24c.07 0 .41-.56.75-1.25.57-1.17.62-1.58.62-5.61V4.17l-.66-.19c-.97-.27-11.24-.27-13.1 0-2.28.34-4.3 1.18-5.78 2.4-1.13.94-1.45 1.07-2.65 1.07-1.8 0-3.36.87-3.66 2.03-.4 1.53-1.2 1.9-3.98 1.8l-2.45-.08-1.36 1.05a7.2 7.2 0 0 0-1.81 1.98c-.41.86-.52.93-1.3.78-.6-.11-1.26.01-2.1.38-1.06.47-1.23.66-1.23 1.32 0 .91 1.38 3.07 2.12 3.3.54.18.73.67.26.67-.43 0-.3.45.16.63.24.1.58.05.75-.1.23-.19.4.1.65 1.13.43 1.8.83 2.83 1.1 2.83.12 0 .26.45.32 1l.1.99.05-1.13c.05-1.23.25-1.34 1.25-.69 1.04.68 1.15.12.13-.66-1.53-1.16-2.66-2.43-2.66-2.96 0-.75.35-.63.89.29.63 1.06 2.1 2 3.74 2.39.73.17 1.62.42 1.98.57.63.24.64.27.17.61-.48.35-.68 1.55-.32 1.9.25.26 2.8.28 2.8.02 0-.11-.16-.2-.36-.2-.51 0-1.18-.83-1.29-1.6a7.03 7.03 0 0 0-.8-1.87c-.4-.67-.72-1.4-.72-1.62 0-.68-.8-1.12-1.88-1.04-.61.04-1.04-.04-1.04-.2 0-.17.3-.3.67-.3.98 0 .81-.68-.35-1.42-.9-.56-2.1-1.94-1.86-2.13.05-.04.4-.15.77-.24.61-.14.8.02 1.8 1.54.62.93 1.32 1.85 1.55 2.04.38.3.4.27.23-.31-.4-1.35-.5-2.91-.2-2.91.17 0 .3.26.3.6 0 .99 1.46 3.75 2.27 4.28.73.47.73.5.2.7-.5.18-.54.32-.35 1.15.24 1.06.7 1.73 1.18 1.73.58 0 .27-2.9-.52-4.76-1-2.35-1.5-4.3-1.19-4.6.28-.28.35-.13.8 1.69.34 1.32 1.8 4.23 2.13 4.23.11 0 .34.42.51.93.36 1.08.94 1.28.68.23-.2-.82.36-3.58.7-3.38.12.08.15.7.06 1.38-.15 1.13-.1 1.3.63 1.99.94.9 1.28.58.84-.77-.35-1.05-.34-1.08.39-1.21.38-.07.58.12.75.7.14.44.44 1.21.68 1.72l.43.93.08-1.17c.13-1.69-.08-2.18-1.28-3l-1.06-.73-.23.6c-.22.57-.24.56-.4-.2-.1-.44-.28-1.16-.42-1.6-.34-1.08-.33-1.18.14-1.18.22 0 .51.28.64.62.27.7 2.4 2.64 2.64 2.4.09-.08.28-.88.42-1.78.15-.9.38-1.61.52-1.59.13.03.38.52.55 1.09.5 1.66 1.22 2.73 1.63 2.4.27-.23.34-.14.34.38 0 .37.2.87.43 1.1.4.4.4.48-.13.96-.42.4-.52.71-.4 1.25.24.96.27 1 1.17 1.65l.8.56-.18-1.91c-.15-1.58-.12-1.89.19-1.79.26.09.42.74.52 2.09.14 1.94.55 3.15 1.06 3.15.14 0 .2-.26.14-.6-.34-1.69-.38-2.3-.15-2.44.15-.1.3 0 .35.18.43 1.62 1.09 3.4 1.25 3.4.11 0 .39.07.62.15.31.12.42 0 .42-.51 0-.38-.1-.95-.24-1.29l-.7-1.88c-.4-1.15-.51-1.26-1.08-1.12-.56.14-.7.01-1.15-.97a14.1 14.1 0 0 0-2.12-2.85c-1.56-1.65-2.62-3.2-2.2-3.16.12 0 .93.83 1.8 1.83s1.74 1.82 1.92 1.83c.2.02.33-.31.33-.83 0-1.02 1.2-4.27 1.74-4.72.68-.56.75-.02.17 1.16-.32.62-.72 2-.9 3.06-.37 2.14-.1 3.05 1.04 3.62.32.16.85.64 1.18 1.06l.6.77.15-1.32c.14-1.23.16-1.27.35-.53.77 2.93 1.07 3.62 2.17 5.1a7.3 7.3 0 0 0 1.46 1.65c.13 0 .24-.33.24-.73zm-26.72-6.68c0-.14.18-.26.41-.26.23 0 .34.12.25.26-.09.15-.28.27-.41.27-.14 0-.25-.12-.25-.27zm22.54-1.52c-.29-.83-.77-2.14-1.08-2.9-.42-1.06-.47-1.4-.2-1.4.37 0 2.29 4.41 2.29 5.29 0 1-.49.53-1-.99zm-26.51-1.39c-.18-.34-.55-.53-1.04-.53-.64 0-.74-.08-.62-.54.12-.45.28-.51.97-.37 1.06.23 1.4.52 1.55 1.32.15.8-.45.9-.86.12zm9.26-1.7c0-.66-.15-1.3-.33-1.46l-1.2-.96c-.56-.45-.85-.92-.85-1.37 0-.68 0-.68.97.29.53.53 1.19.97 1.45.97.43 0 .49.23.49 1.85 0 1.06-.11 1.85-.27 1.85-.14 0-.26-.53-.26-1.18zm2.56 1c-.1-.1-.18-.62-.18-1.16a2.9 2.9 0 0 0-.53-1.65c-.7-.89-.7-1.6-.01-1.39.49.16.49.12-.07-.9-.45-.82-.5-1.12-.26-1.37.25-.25.39-.15.61.45.28.75 2.03 2.75 2.4 2.75.1 0 .3-.44.42-.99.13-.54.35-.93.5-.86.29.15.18 2.2-.18 3.12l-.23.63-.69-.82c-.37-.45-.8-.81-.92-.81-.14 0-.24.71-.24 1.59 0 1.46-.18 1.85-.62 1.4zm10.04-.52a3.1 3.1 0 0 1 .1-1.42 22 22 0 0 0 .24-3.92c0-1.66.05-3.07.12-3.15.36-.35.7.35.7 1.46.01 1.13.05 1.2.4.74.2-.27.42-.63.48-.8.06-.15.2-.2.33-.07.12.11-.09 1.12-.47 2.24a39.73 39.73 0 0 0-1 3.37c-.38 1.71-.68 2.23-.9 1.55zm-24.36-.87a.3.3 0 0 1 .1-.4.3.3 0 0 1 .4.09.3.3 0 0 1-.1.4.3.3 0 0 1-.4-.1zm6.57-.13c-.23-.6.64-2.8 1.11-2.8.48 0 .47.14-.1 1.64s-.78 1.75-1 1.16zm16.74-.11a5.29 5.29 0 0 1-.71-1.98c-.23-1.22-.2-1.63.14-2.3.58-1.11.9-1 .66.26-.17.97-.1 1.6.42 3.77.2.86.09.91-.51.25zm-22.4-.84c0-.15.12-.27.27-.27.14 0 .26.12.26.27 0 .14-.12.26-.26.26a.27.27 0 0 1-.27-.26zm18.2-.05c-.2-.5.24-2.89.59-3.24.41-.4.32 2.58-.1 3.14-.29.4-.37.42-.5.1zm-.71-3.55c0-.3.07-.37.16-.16.07.2.06.42-.03.51-.08.09-.15-.07-.13-.35zm-2.83-1.27c-.5-1.08-.61-1.61-.41-1.81.2-.2.38-.06.62.48l.35.76.13-1.18c.2-1.78.66-1.18.66.85 0 2.54-.45 2.85-1.35.9zm4.84.46c-.27-.27-.22-1.36.07-1.54.35-.21.68 1.16.36 1.47-.14.14-.33.17-.43.07zm1.58-1.85c-.28-.28-.2-3.22.09-3.4.17-.1.26.53.26 1.7 0 1.88-.03 2.02-.35 1.7zm13.32-.46c0-.22.12-.47.26-.56.15-.09.27.02.27.24 0 .21-.12.47-.27.56-.14.09-.26-.02-.26-.24zm-25.4 19.56c0-.07-.24-.25-.53-.4-.42-.23-.53-.2-.53.12 0 .23.23.4.53.4.29 0 .53-.05.53-.12zm27.38-2.46c-.08-2.32-.67-6.41-.92-6.41-.09 0-.31.62-.49 1.39l-.59 2.44c-.49 1.98-.69 4.09-.4 4.36.14.15.53.27.85.27.33 0 .67.13.77.28.12.2.27.2.51 0s.32-.9.27-2.34zM87.16 28.6c.09-.14.04-.26-.12-.26-.15 0-.28.12-.28.26 0 .15.06.27.12.27s.19-.12.28-.27zm39.29-.23c0-.58-1.21-1.48-1.46-1.09-.2.33.69 1.57 1.13 1.58.18 0 .33-.22.33-.5zm10.3-1.66c-.31-.76-1.1-1.4-1.38-1.12-.17.17.46 1.76 1.09 2.72l.44.68.09-.75c.05-.41-.06-1.1-.24-1.53zm-52.58 1.31c.34-.34.46-.61.28-.67-.41-.14-1.69.73-1.5 1.02.23.38.6.27 1.22-.35zm8.9-.63c.17-1.77.05-4.17-.27-5.14a9.23 9.23 0 0 1-.25-2.51c.03-1.01-.04-1.44-.19-1.2-.31.54-.85 7.61-.65 8.6.34 1.74 1.19 1.9 1.35.25zm55.24.49c-.46-.9-1.49-1.87-1.49-1.42 0 .5.75 1.82 1.12 1.97.67.27.74.16.37-.55zm-67.37-.59c.51-.4.56-.53.22-.53-.24 0-.6-.07-.81-.15-.23-.09-.5.12-.68.54-.62 1.36-.29 1.4 1.27.14zm61.57.62c.06-.17-.35-.48-.9-.7-.87-.35-1.02-.35-1.1-.02-.04.2.07.56.25.78.37.44 1.6.4 1.75-.06zm-18.22-.57c.05-.38-.06-.59-.3-.59-.21 0-.53-.18-.71-.4-.46-.54-.71-.5-.88.16-.2.73.02 1.24.57 1.39.8.22 1.23.04 1.32-.56zm9.13.06c-.2-.54-.35-.48-.35.16 0 .3.1.48.25.39.14-.09.18-.33.1-.55zm-103.76-1.2c-.04-.64-.19-2.18-.32-3.42-.31-2.79-.33-5.82-.04-5.82.27 0 .84 2.99.84 4.37 0 1.94.62 5.69.94 5.69.22 0 .36-1.2.48-4.04l.2-4.3c.01-.14-.15-.92-.36-1.72-.38-1.41-.36-2.11.06-2.11.12 0 .3.44.4.99.1.54.35 1.18.55 1.4.58.65.79 4.88.3 6.2a4.45 4.45 0 0 0-.2 2.25l.2 1.2.81-1.75c.8-1.7.81-1.78.55-3.77a9.76 9.76 0 0 1-.13-2.43c.29-.74.7-.39.72.6.02 1.21.34 2.14.6 1.72.1-.16.41-1.22.7-2.35.36-1.44.43-2.15.23-2.38-.15-.19-.25-.79-.22-1.34.07-1.5.01-2.02-.26-2.45-.2-.33-.32-.32-.77.1-.68.6-.98.4-1.17-.76-.2-1.25-1.1-2.21-1.72-1.83-.78.48-1.58 1.89-1.46 2.55.07.35-.04.76-.27.95a.9.9 0 0 0-.25.84c.1.42 0 .52-.54.52-.8 0-1.6.7-1.4 1.23.1.23-.1.47-.5.62-.4.15-.71.54-.82.98-.09.41-.32 1.22-.5 1.8-.49 1.5-.23 7.28.32 7.28.3 0 .34-.23.18-1.13-.29-1.66-.27-2.12.08-2.24.18-.06.43.27.57.77.2.7.26.35.28-1.84.01-1.49.12-2.7.23-2.7.35 0 .85 2.92.85 4.95 0 2.05.17 2.79.62 2.64.17-.06.26-.59.22-1.27zm13.86.71c.39-.54.64-.53 1.04.01.17.24.45.36.61.26.2-.12.13-.35-.22-.7-.43-.44-.5-.77-.38-1.91.1-1.02.03-1.53-.26-1.9-.51-.64-.92-.31-1.18.95-.1.55-.36.91-.66.97-.44.09-.47-.05-.3-1.79.14-1.34.1-2-.13-2.27-.5-.6-.79-.47-.79.38 0 .88-.42 1.29-.87.84-.79-.79-.98-.31-.98 2.47v2.75l.73.28c1 .39 3 .18 3.39-.34zm-2.48-.21c-.17-.18-.31-.64-.31-1.03 0-.91.69-1.22.9-.4.07.33.45.74.82.9.38.18.61.44.52.58-.22.37-1.54.33-1.93-.05zm98.76.1c.1-.24-.21-.96-.77-1.77a5.85 5.85 0 0 1-.94-1.79c0-.23-.13-.5-.3-.6-.5-.32-.15 3.33.39 4.15.5.76 1.34.77 1.62.02zm-53.57.22c.36-.23.36-.26 0-.25-.21.01-.63.12-.92.25l-.53.22.53.02c.29 0 .7-.1.92-.24zm47.84-2.43c-1.63-1.26-1.71.35-.11 2.12l.56.62.08-1.14c.07-.93-.02-1.21-.52-1.6zm-99.7 2c0-.22-.14-.36-.3-.3-.5.16-.58.73-.11.73.23 0 .42-.2.42-.42zm97.9.02c0-.55-1.08-1.99-1.36-1.82-.44.28-.21 1.38.37 1.78.76.54 1 .54 1 .04zm-109.4-.48c0-.17.22-.29.47-.27.37.03.4-.04.17-.32-.4-.48-.08-2.23.4-2.23.4 0 .69.7.93 2.25.14.96.18.87.35-.93a9.54 9.54 0 0 0-.05-2.77l-.24-.8-.03.86c-.01.58-.15.86-.42.86-.21 0-.4-.2-.4-.46s-.07-1.09-.16-1.85c-.14-1.14-.1-1.4.23-1.4.24 0 .48.36.59.87.18.85.18.85.69-.7.52-1.59.49-2.01-.16-2.01-.2 0-.51-.27-.68-.6-.43-.82-.4-.8-1.01-.47-.45.24-.6.21-.72-.12-.09-.23.03-.63.26-.88s.5-.96.59-1.57c.14-.9.1-1.15-.25-1.28a.72.72 0 0 1-.44-.6c-.01-.72-.95-1.63-1.68-1.63-.5 0-.71.16-.8.6-.85 4.64-.85 4.74-.26 4.51.33-.12.39-.38.26-1.18-.18-1.1.17-1.37.63-.5.37.7.34 1.8-.05 1.93-.49.16.51 2.26 1.06 2.22.87-.07.98 2.03.41 7.64-.09.9-.06 1.49.07 1.36a.87.87 0 0 0 .24-.53zm15.5.03c.14-5.23.13-7.09-.04-7.38-.43-.69-.65.12-.67 2.5-.03 2.69-.3 4.64-.7 5.14-.2.25-.07.33.56.33.67 0 .83-.1.84-.6zm88.08-.04c0-.7-.72-1.13-1.15-.7-.18.17-.1.44.22.8.64.7.93.67.93-.1zm-104.27-5.3c.02-.93-.46-1.7-1.08-1.73-.46-.03-.48 1.83-.05 4.42l.48 2.84.32-2.24c.17-1.24.32-2.72.33-3.28zm-9.2 4.41.09-2.28c.03-1.08.17-1.66.47-1.87.48-.35 1.3-3.18 1.08-3.75-.42-1.07-1.56.33-1.91 2.35-.37 2.12-.39 6.28-.03 6.28.15 0 .28-.33.3-.73zm6.05-.41c0-.47.12-1.03.27-1.24.23-.36.29-.36.52 0 .19.29.26.06.26-.85 0-.96-.14-1.4-.66-1.96-.36-.4-.7-.67-.75-.6-.19.2-.43 5.44-.26 5.6.32.33.62-.12.62-.95zm-3.45-.12c.3-1.13.32-4.1.02-5.1-.19-.61-.21-.62-.4-.12-1.23 3.17-1.4 3.78-1.29 4.63.2 1.4.3 1.58.87 1.58.38 0 .6-.27.8-.99zm1.99-.73c.03-2.94-.34-6.07-.94-7.88-.32-.98-.7-1.75-.84-1.71-.13.05-.43.4-.66.78-.4.66-.4.73.24 1.48.9 1.08 1.41 4.08 1.16 6.94-.18 2.14-.18 2.15.42 2.07.54-.08.6-.23.62-1.68zm19.06-1.93.15-2.56-.78 2.2c-.74 2.11-.76 2.26-.38 3.18.4.92.42.94.64.36.12-.33.29-1.76.37-3.18zm52.45 3.32c.43-.54.66-1.52.35-1.52-.16 0-.29.3-.29.66 0 .37-.14.66-.33.66-.7 0-1.36-2.65-.74-3.03.13-.08.33.12.45.45.19.57.2.56.38-.2.1-.43.18-1.5.17-2.38 0-.87-.06-1.17-.11-.66-.16 1.5-.33 1.81-.65 1.24-.25-.44-.31-.42-.87.23-.61.71-1.15.53-.84-.28.07-.2.01-.46-.15-.55-.18-.11-.22-.72-.12-1.66.16-1.48.16-1.49-.27-.71-.33.6-.4 1.27-.29 3.1.07 1.29.26 2.48.4 2.67.16.18.32.69.37 1.12.07.64.25.83.88.96 1.24.26 1.38.26 1.66-.1zm63.04-.06a.13.13 0 0 0-.14-.14.13.13 0 0 0-.13.14c0 .07.06.13.13.13.08 0 .14-.06.14-.13zm-140.66-.96c.2-1 .22-3.29.02-3.1-.07.08-.22.84-.33 1.7-.1.9-.3 1.5-.46 1.43-.14-.07-.24-.3-.22-.5.03-.2.13-1.6.23-3.11.17-2.45.14-2.74-.25-2.74-.26 0-.63.46-.93 1.16-.28.64-.65 1.21-.84 1.27-.37.13-.52 3.98-.17 4.34.35.35.55-.12.68-1.62.07-.93.23-1.43.41-1.37.19.07.27.62.21 1.46-.1 1.59.04 1.9.87 1.9.47 0 .65-.18.78-.82zm140.24-2.42c-.24-4.12-.67-5.7-.51-1.92.11 2.86.36 4.9.58 4.9.06 0 .03-1.34-.07-2.98zM6.86 24.45c0-.11.13-.96.28-1.89a9.62 9.62 0 0 0-.17-3.96 74 74 0 0 1-.66-4.14c-.13-1.02-.3-2.18-.4-2.58-.13-.55-.07-.73.22-.73.25 0 .46.37.57 1 .1.54.33 1.34.52 1.78l.34.8.56-1.26c.31-.7.74-1.26.95-1.26.5 0 .6-.33.48-1.63-.1-1.05-.12-1.06-.98-.9-.57.1-.9.05-.97-.16-.12-.33-.38-.25-1.67.53l-.8.48-.2 3.49c-.18 3.12-.15 3.6.3 4.6.82 1.84.9 2.26.45 2.5-.31.18-.35.43-.16 1.15l.4 1.65c.13.63.94 1.07.94.53zm-1.94-.51c-.1-.1-.18-.02-.18.18 0 .19.08.27.18.17.1-.1.1-.25 0-.35zm134.97-.7c-.13-1.07-1.17-3.08-1.6-3.09-.25 0 .04 1.35.37 1.7.12.14.23.62.23 1.07 0 .8.39 1.46.88 1.46.13 0 .19-.51.12-1.14zm16.08-.91c-.32-.32-.47.2-.26.91l.21.74.1-.75c.06-.41.04-.82-.05-.9zm-28.15.4c-.19-.18-.31-.2-.31-.03 0 .35.31.66.49.49.07-.08 0-.28-.18-.45zm28.62-2.91c.25-2.09.2-4.65-.08-4.83-.52-.32-1.07 1.75-1.07 4 0 1.98.05 2.22.5 2.22.39 0 .52-.28.65-1.4zm-39.51.21c0-.43-.38-.74-.61-.51-.2.2.08.9.37.9.13 0 .24-.18.24-.39zM20.2 16.68c-.25-.56-.55-.96-.67-.89-.34.21-.4-1.19-.14-3.24.2-1.6.17-2.09-.2-2.92-.25-.54-.54-1.53-.65-2.18-.18-1.1-.26-1.2-1.05-1.28-.71-.07-.85 0-.85.48 0 .35-.34.75-.93 1.1-.5.3-.92.7-.92.9 0 .57-1.37 1.49-2 1.33-.39-.1-.76.07-1.18.51-.34.37-.77.66-.96.66-.63 0-.65.52-.08 2.37.3 1.03.6 1.86.65 1.86.05 0 .28-.65.51-1.45.29-.98.56-1.46.85-1.46.3 0 .37.16.24.6a37.02 37.02 0 0 0-.93 5.05c.01.38.25.08.7-.88.49-1.03.7-1.93.72-3.04.02-1.28.1-1.6.48-1.67.38-.08.47.1.47.98 0 1.36.31 1.37.92.04.48-1.07 1.2-1.63 1.2-.94 0 .51.79 2.85 1.06 3.14.12.13.2-.53.17-1.45-.04-1.35.03-1.7.35-1.7.29 0 .45.42.57 1.46.24 2.1.68 4.55.9 5.13.18.43.27.36.71-.5.5-.95.5-1.04.06-2.01zm-5.84-5.63c-.17-.45.06-.96.44-.96.34 0 .32.99-.02 1.2-.14.08-.33-.02-.42-.24zm22.65 8.17a.13.13 0 0 0-.13-.13.13.13 0 0 0-.13.13c0 .07.06.13.13.13s.13-.06.13-.13zM9.06 18.15c.48-1.01.64-5.15.2-5.15-.4 0-1.43 2.97-1.43 4.14 0 2.09.52 2.5 1.23 1.01zm1.24-2.37a.13.13 0 0 0-.13-.13.13.13 0 0 0-.14.13c0 .07.06.13.14.13.07 0 .13-.06.13-.13zm78.05-.94c0-.52-.53-.48-.9.07-.61.86-.52 1.08.24.58.36-.24.66-.53.66-.65z"/>
</svg>
