<?xml version="1.0" encoding="utf-8"?>
<svg xmlns="http://www.w3.org/2000/svg" xmlns:svg="http://www.w3.org/2000/svg" version="1.1" viewBox="0 0 153 128">
	<title>Tommy Brock sits on a bank, and watches Mr. Tod slink past in the distance.</title>
	<path d="M41.5 126.9c0-.1-8.6-.2-19.1-.2-12.1 0-19.2-.1-19.6-.3l-1.4-1-.8-.7-.1-11.3c0-6.2-.2-14.3-.4-18a244 244 0 0 1 .5-23.8A2058.4 2058.4 0 0 0 1.6 6l-.2-3.6.8-.6C3.9.2 3.5.3 32 .1h28.3a1512.4 1512.4 0 0 1 48.4.6 325.9 325.9 0 0 1 31.7.8l6.6.6c2.2.1 2.4.2 3.5 1.2l1.7 1.2c.4.3.4 1 .5 9.8a1756.1 1756.1 0 0 1-1.3 83.3l-.4 10.7c-.1 10-.5 14.1-1.3 15-.5.6-2 1.2-4.6 1.8-1.5.3-3.7.5-8.8.5l-15.4.3c-4.8.2-10.8.1-13.3 0-4.8-.2-20.5.2-24.4.6-2.2.3-11.9.2-12.1 0-.2-.2-.7-2.1-.7-2.9 0-.6 0-.6 2.3-.8 2.5-.1 4-.5 6.9-2 3.8-1.7 7.5-2.9 7.5-2.2 0 .1-.3.3-.7.4-2.4.5-8.8 3.1-8.4 3.5l2.2-.2c1.1-.2 3.6-.3 5.5-.3H89l.3-.7c.6-1.6 1.4-1.7 12.6-2.3l3.3-.4 1.8-.4c.9 0 2.5-.4 3.7-.8 1.2-.4 2.3-.6 2.5-.5a33.4 33.4 0 0 0 15.3-2.2c.8-.3.9-.3.8.1 0 .3-.5.6-1.4.8l-2.6.9c-2.4.9-3.6 1-8.8 1.1-5.2.2-8.7.8-9.2 1.7-.1.3-.8.4-3.5.4-4.3 0-11 .4-12.4.9-.7.2-1 .5-1.1.8-.2 1.2-.3 1.2 11.3 1.2l11.9-.1c.5-.1 1.3-.6 1.8-1 2.7-2.2 5-3.2 9-3.6 1.3-.1 1.8-.4 4.1-2 3.7-2.4 4-2.6 4.5-2.6.7 0 .5.5-.3.8l-3.6 2.3c-2.4 1.6-3.2 2-4.3 2-2.9.4-3.6.5-5.3 1.3-1.9.8-4 2.3-4 2.7 0 .5 23.3-.5 27-1.2 2-.3 3.8-1.1 4.3-1.9a43 43 0 0 0 1.6-14c.2-4.3.1-5.3-.2-5.5-.5-.4-3.2 0-4 .6-2.4 1.7-3.3 1.9-7.6 2-3 0-3.3 0-3.3.4s.3.7.8 1a2166 2166 0 0 0 2 .8c.7 0 1.6 1.2 1.6 1.9 0 1-1.4 1.7-2.6 1.3-.4-.2-1-.3-1.2-.2-.2.1-.5 0-.6-.1 0-.2-.3-.2-.4-.1-.1 0-1-.1-1.8-.4a4.6 4.6 0 0 0-3.3-.3c-.9.2-2 .6-2.6 1-.5.3-1.3.6-1.8.6s-.9.1-1 .5c-.3.5-.5.6-1.5.4-.6-.1-1.2-.4-1.4-.6-.5-.6-2-1.1-4-1.3-1.3-.1-2 0-4.4.8-2.7 1-4 1.1-4 .6 0-.2.6-.4 1.3-.5 1.6-.3 2.2-.7 1.3-.9-1.3-.3-.5-.6 1-.5a5 5 0 0 0 2.3 0c.3-.3 0-.3-1.2-.3-1 0-1.7 0-2-.3-.3-.3-.8-.2-2.4.2-1.7.5-2.4.6-4 .4-3.8-.4-7.3-.3-10 .3-1.3.4-3.5.8-4.8 1-1.3 0-3.1.4-4 .6a28 28 0 0 0-8.4 4.9c-.8 1-1.8 1.4-1.8.8l1.4-1.5 1.4-1.3h-3.6c-2.9 0-3.7-.1-4.6-.5-1.9-.8-3-.2-1.3.8 1.1.6 1.2 1.1.2 1.2-1.6 0-2.5.2-6 .6-4.1.4-5.4.7-5.3 1 0 .2.3.4.6.5 1 .2.6.6-.6.7-1.4 0-4.5.5-5 .7-.3.1-.4 0-.4 0 0-.4 1.1-.8 2.7-1 1-.2 1.3-.4 1.4-.7.2-.9 2-1.4 7.6-2.1l3-.3c1.2 0 1.1-.6-.2-1.1-2-.8-.9-1.6 2.4-2l2.1-.1v1.4h2.9a12 12 0 0 0 7-1.7 5 5 0 0 1 1.8-.7c1 0 1.4-.4 1-.9-.2-.3.1-.4 2.8-.5l3.8.1a6 6 0 0 0 2.2 0c2.2-.5 2.8-.8 1.3-.8-.6 0-1.1-.2-1.1-.3 0-.1.2-.3.6-.3a71.6 71.6 0 0 1 5.8-1.3 14 14 0 0 0 2.7-.8l1.4-.5c1.5-.3 1-.7-1-.7-1.1 0-2-.2-2.8-.5-.8-.4-1.7-.5-4-.6-1.7 0-3.3-.2-3.5-.3l-2.8-.2c-1.7 0-2.3 0-2.4-.3-.1-.3.8-.4 5.2-.3l5.4.1.2-.8c.2-.5.2-.9 0-1.2-.1-.2-.4-.9-.4-1.5-.1-.5-.5-1.5-.9-2.1-.5-1-.6-1.3-.4-1.8.3-.7 1.3-1.3 2.6-1.6.9-.2 1-.1 1.5 1.2.6 1.4 2.2 3.2 2.5 2.9 0-.1 0-.7-.2-1.2a5 5 0 0 1-.2-1.7c0-.6.2-.7 1.6-.6h1.6l-.2-1.6c-.1-1.2 0-1.8.1-1.9.2 0 .6-.7.9-1.3l1.1-1.7c.4-.5.7-1.2.8-2l.1-1.4h-2.7c-2.6 0-4.3-.1-6.4-.6-1.1-.3-2-1.4-2-2.5 0-.5.3-.6 1.6-1 1.3-.2 1.6-.4 2.3-1.4.4-.7.8-1.2 1-1.2l.6-1c.2-.6.9-1.4 1.7-2l1.3-1.1-.1-1.3c-.2-1-.1-1.4.3-1.8.5-.6 1.2-.6 1.8 0 .2.3.6.5.8.4.2 0 .6 0 .8.2.3.3.4.2.4-.5 0-1 .8-1.9 1.8-1.9.6 0 .8.2 1 1.3l.5 1.2 1.6.3c1 .2 2 .5 2.3.8a9 9 0 0 0 3.9 2c.8 0 4 1.5 5.3 2.5l2 1.4c.8.7 2.5 2.9 2.5 3.5 0 .1.4.7 1 1.3 3 3 3.5 3.7 4.1 5 .7 1.6 1 1.8 2.5 1.9 1.5 0 1.6 0 1.7-.6 0-.5.3-.6.9-.7 1 0 1.6.5 1.7 1.7.1.7.3.9 2.2 1.3.6.1.7.3.6.9 0 .4.1 1.5.5 2.6s.6 2.5.6 3.2c0 1.1 0 1.1.6.7.4-.3 1-.3 1.6-.2.9.1 1 0 1-.4s-.3-.6-1.3-1c-.7-.2-1.3-.5-1.3-.7 0-.4.7-.5 1.6-.2.7.2.9.2 1 0 .2-.3.3-4.2.3-8.9l.2-14c.3-5.9.4-8.5.7-23.2.2-10 .2-10.2-1.1-8.7l-1.2.9c-.3 0-.5.3-.5.6 0 .9-6.3 3.3-9.5 3.5-2 .2-2.4.3-4.3 1.5-3 2-4.4 2.7-6.1 3.6-1.8.8-3.6 2.4-4.2 3.5-.3.5-.7 1.2-1.1 1.6-.4.4-.6.9-.5 1 .1.5 1.7.8 2.7.6.5 0 .8 0 1 .2.4.7-1.4 1.3-6 1.8-1.4.2-3 .6-3.6.8l-4.9 1.6a49.1 49.1 0 0 0-10 4 21.4 21.4 0 0 0-4.7 2.2c-2 1.1-2.4 1.7-2.7 3.3-.3 1.5-.2 3.4.2 4 .3.6 0 3.8-.4 4.7-.4.8-.4 1 0 1.7a8 8 0 0 0 1.4 1.7c.8.7 1 .9.6 1.2-.1.3-.7.5-1 .6-.5.1-1.3.5-1.7 1-.5.3-1.4.9-2 1.1-.8.4-1.1.6-1.2 1.2 0 .5-.3.8-1.2 1.1l-3 1.2a7 7 0 0 1-2.5.5c-.7 0-2.5.5-2.5.9 0 .1-.7.5-1.6.8-1 .3-2.2.9-2.8 1.2l-1.4.7-2.2.9-2.4 1c-.2 0-.4 0-.4.2l-.4.2a9 9 0 0 0-2 .8c-.9.4-2.2 1-3 1.2l-1.2.7c0 .1-.3.3-.7.3-.4 0-1.3.2-2 .6l-1.9 1c-.4 0-.7.4-.7.6 0 .2-.2.4-.4.5-.2 0-.4.4-.4.8 0 .5-.4 1-1.9 2-2.5 1.6-2 1.4-5.4 2.7-1.9.8-2.9 1.3-3 1.6 0 .3-.6.8-1.2 1.1-1 .6-1.7.8-4.5 1.5-.7.2-1.3.5-1.4.7l-2 .9c-1 .3-2.3.7-2.8 1l-2.5.7c-1 .2-2.4.6-3.2 1-1.3.4-2.2.5-4.5.5-1.8 0-3 0-3.1-.3-.3-.2.5-.3 3-.3 3.1 0 3.4 0 3.6-.5 0-.4.4-.5 2.2-.7 1.4 0 2.2-.3 2.7-.6a5 5 0 0 1 1.9-.7c1.5-.2 4-1 4.6-1.6l4.5-1.8c.3 0 .2-.1-.2-.1-.9 0-.7-.5.4-1 1.5-.6.8-.8-1-.1l-2 .5c-.2 0-1.7.4-3.3 1-2 .6-3 .8-3.2.6-.2-.1 1-.6 3.7-1.5 5.8-1.8 8.6-2.8 9-3 .4-.4 1.2-.1 1 .3-.1.1 0 .2.2.2.8 0 2.4-.8 3.4-1.8a9 9 0 0 1 1.9-1.3c.3-.1 1.1-1 1.7-1.7 2.3-3 3.2-3.6 7.9-5.6l1-.5-1.2-.2c-1.8-.3-10.6-.3-12.7 0a108 108 0 0 0-18.3 5c-5.6 2.2-8.9 3-9.3 2.7-.3-.3-.3-.3 2.6-1 2.2-.6 7.4-2.5 7.2-2.7l-4 .8c-6.6 1.3-6.6 1.3-6.7 1-.1-.3-1.7-.3-2.6 0-1 .4-7 .7-7 .3 0-.2.7-.3 2-.3 1.2 0 3.6-.2 5.4-.5 1.9-.3 4.4-.6 5.7-.6 2.1-.1 7.4-1.3 9.7-2.2l.5.1c0 .5 1 .1 1.7-.5.2-.3.7-.5 1-.5.3 0 1-.4 1.5-.8.5-.5 1.5-1.1 2.1-1.4 1.1-.5 1.2-.5.7-.9-.3-.2-.7-.3-1-.2-.6.2-5-.6-5.4-1-.5-.5-.2-1 .7-1.3 1.2-.5 2.4-1.7 2.5-2.4 0-.5.2-.6.8-.5.5 0 .9-.1 1-.4.4-.4.5-.4 1.3.2 1 .7 3 .8 6.9.2 3.8-.5 7-.4 9 .2l3.4 1c2 .5 4.5 1.5 4.9 1.9l1.2.9c.6.3 1 .7 1.1 1 .3.5 1 .4 2.7-.3a208.9 208.9 0 0 1 7.5-3.5L80 89l2.4-1c1.2-.6 2.6-1.2 3.1-1.3.6-.1 1-.4 1.2-.8.1-.3.5-.7.7-.8 1.3-.4 2.8-3.8 2.5-5.6-.1-.8 0-1.7.6-3.5.5-1.4.9-3 1-3.7v-1.2h-5.6c-5.5 0-10.3-.5-18.2-1.7A61.5 61.5 0 0 0 54.9 68l2 .5a296.5 296.5 0 0 1 16.5 2.8c2.4.4 4.5.8 4.6 1 .5.4-.1.4-1.6 0a36 36 0 0 0-4-.6 216.2 216.2 0 0 0-28.6-4 233.5 233.5 0 0 1-18.2-1.5l-2.2-.1-1.6 2.1a13 13 0 0 0-1.6 2.5c0 .5-2 2.4-3.9 3.8-1.4 1-1.7 1.3-2.2 2.8-.8 2.2-1.8 4.7-2.3 5.4-.4.6-.4.6.9.6a109.3 109.3 0 0 1 15.7.8 267.3 267.3 0 0 1 14.7.5c2.4 0 2.3 0-2.9-1-3-.5-3.3-.7-3-1A207.5 207.5 0 0 0 58 85.5l10.6 1.1c1.6.2 4.2.2 5.9.2 2.7-.2 3.8 0 2.3.4-1 .3-7.3.2-10.3-.2a178.8 178.8 0 0 0-11.8-1.2A277 277 0 0 0 35 85a63.5 63.5 0 0 0-18.9 1.4L14 87c-1 .3-2 1-1.8 1.4l1.1.2c1.1 0 1.1.5 0 .8-.4.1-1 .5-1.1.8-.2.3-1 .8-1.6 1.2l-1.4.9c-.3.3-1.8 1.3-2 1.3l-1.8 1-1.4 1-.1 7.4a43.2 43.2 0 0 0 .5 10.8c0 2.5.8 6.6 1.4 7.2 1 1.2 1.8 1.3 5.6 1 3-.3 4-.3 7.2 0 4.3.5 18 1 25.5 1h22.8v.6c.2.3.3 1.1.3 1.8v1.2h-2.3c-17.7.4-23 .4-23.3.2zm84.2-20.7c1.3-.5 1.5-1 .4-.7a57.5 57.5 0 0 1-5.4.7l1.5.2 2 .2c.2 0 .9-.1 1.5-.4zm-20.2 0 2-.5c.6-.3-.6-.6-2.4-.6l-2-.2c-.2-.4.8-.9 1.8-.9.8 0 .8 0 .4-.4-.3-.4-.5-.3-2.3.3-1 .4-2.2.7-2.6.7a15 15 0 0 0-4.6 1c-.3.3.3.3 2.3.2a12.8 12.8 0 0 1 5.4.6l2-.2zm16.8-1.8c1.7-.5.8-1-1.8-1.1-2.3 0-3.4-.5-3.9-1.4-.5-1-.2-1.6.4-.8.4.5.7.6 2.2.6.9 0 2.4-.2 3.2-.4 1.8-.5 5.2-2.2 5.2-2.6 0-.2-1.3-.1-2.8.3-1.6.5-5 .8-7 .5-2.4-.3-3.1 0-3.1 1.2 0 1 1.2 3 2.2 3.4l1.6.2c.8 0 1 0 .8.4-.1.4 0 .4 1 .3l2-.6zm4.6.2c3.1-.8 4.4-1.7 3.7-2.5-.2-.1-.9 0-2.2.7l-3.8 1.4c-1 .2-1.8.5-1.9.7-.3.4 2.1.2 4.2-.3zm-12.1-.6-.6-2c-.4-1.3-.5-1.4-1.6-1.5-.6-.1-1.2-.4-1.4-.6-.8-1-1.6-.2-1.6 1.6 0 1 .5 1.6 1.7 2.1l1 .4-.6-.8c-.5-1-.8-2.4-.4-2.5.2-.1.4.2.5.7a7 7 0 0 0 1.3 2c1.2 1.3 2 1.6 1.7.6zm10-1.2c.5-.3.5-.3 0-.3l-1 .1c-.4.2-.4.2-.1.4.5.3.5.3 1.1-.2zm-.4-.9a49.1 49.1 0 0 1 6.5-1c.9-.3 1-.5 1.8-2 .4-1 .7-1.8.6-2-.2-.2-1.1.3-2 1-1.9 1.8-2.5 2.2-3.5 2.2-.5 0-1.8.3-2.9.7-1 .4-2.7 1-3.6 1.1-1.7.4-2.4.8-1.3.8.3 0 2.3-.3 4.4-.8zm-18.3-1.6c.7.1 1-.4.5-.7-.2 0-.6-.5-.8-1-.2-.5-.5-.9-.7-.9-.5 0-1.3 1-1.3 1.8v.6l.6-.6c.3-.4.7-.7.9-.7.5 0 .4.2-.2 1-.5.7-.6 1.4-.3 1.7 0 0 .3-.2.5-.6.2-.6.4-.8.8-.6zm2.9.2c.4-1.1.2-1.7-.5-1.4-.3.1-.5.5-.5 1.4 0 1.5.5 1.5 1 0zm31.3.4c.5-.5.7-.5.9-.2.1.3.3.3 1 0 1.3-.7 2.3-2.6 2.4-4.6 0-2-1.4-4.3-2.2-3.5-.2.2 0 .5.7 1.1 1 1 1.2 1.3.4 1.3-.4 0-.5.2-.5.7 0 .4-.4.9-1.3 1.6-.7.5-1.6 1.4-2 2-.8 1.1-1.5 1.4-1.5.5 0-.3.2-.5.4-.5.4 0 1-1 1.3-2 .2-1 .5-1.2.7-.6.2.6 1-.3 1-1 0-.9-.6-3.6-.9-4.1-.1-.2-.5-.3-1.2-.2h-1.2c0-.2-.4-.3-.8-.3-.8 0-.7-.6.1-.8.5 0 .6-.2.6-1s0-.9-1.1-.9h-1.2v3.8c0 3.5 0 3.9-.6 5.2l-.7 1.3.6.5c.9.5 1.3.3 2-1 .8-1.5 1-3.1.4-3.6-.6-.4-.4-.9.3-.9s1 1 .8 2.4c-.2 1.4-1.5 4-2.1 4.2-.8.2-.6.5.3.8 1.5.4 2.6.3 3.4-.2zm-15.5-2.4c6-1 6-1.1 7.6-2.9.8-1 1.2-1.9 1-2.5-.3-.6-1.9.3-3.3 1.7-.7.6-1.4 1-1.8 1-.4 0-1.5.5-2.6 1-1 .5-3 1.2-4.4 1.5a15 15 0 0 0-2.6.8c-.3.3 2.5 0 6.1-.6zm-9.6-.9c2.6-1.8 3-2.8 3-7.5 0-2-.3-3.5-.5-4.4-.8-2.4-2.2-3.9-1.8-2 .1 1-.2 1.3-1.6 1.4l-.8.1c-.7.1.6.6 1.6.6s1.1 0 1.1.6c0 .5-.2.5-3 .1-.8 0-1.4 1.9-.9 3 .5.8 2 1.4 3.7 1.2.9 0 1.3 0 1.2.2 0 .2-1 .3-2.4.3-2 0-2.3 0-2.3.4 0 .9.8 1.3 2.2 1.3 1.3 0 1.4 0 .9.4-.4.3-.9.4-1.7.3h-1.1c0 .5.4.7 1.6.7.6 0 1 .1 1 .2 0 .5-1.2.6-2.1.3-1.1-.4-1.3-.4-1.3 0 0 .5.6.8 1.4.8.3 0 .5 0 .4.2h-1.4c-1.1 0-1.2 0-1.2.8 0 .5.3.9 1 1.4l1.1.8 1.9-1.2zm-1.8-8c-.8-.3-1.2-1.2-.6-1.2l.3.3c0 .1 0 .3.2.3s.2-.2.1-.4c0-.2.3-.3 1.7-.3 1.8.1 1.8.1 1.8.8 0 .8 0 .8-1.3.9-.8 0-1.7-.2-2.2-.4zm2.8-.3h-.5c-.3.1-.2.2.1.2.3 0 .5 0 .4-.2zm1.1 9h-.4c-.2 0-.4 0-.4.2 0 .1.2.2.4 0l.4-.2zm7.2-1.5 2-1.1c-.1-.1-.8 0-1.6.3-1.6.5-5.8.5-6.2 0-.3-.2-.5-.1-.9.2-1.2 1.2 0 1.8 3 1.6 1.3 0 2.1-.3 3.7-1zm-82.4-.5c1.6-.5 2.8-1.1 1.5-.9-1 .2-3.6 1.2-3.2 1.2l1.7-.3zm79.2-.7c0-.2-.2-.3-.4-.3-.3 0-.4.1-.3.3l.4.2c.2 0 .3 0 .3-.2zm-16.8-.2h-.5c-.2 0-.1.1.2.2.3 0 .4 0 .3-.2zm23-.9c2.6-1 3.5-1.6 4.3-2.7.8-1.1 1.2-2.4 1-2.7-.3-.2-1.4.5-3.3 2.2-1 .9-2.5 2-3.4 2.5-2.2 1.4-2.5 1.8-1 1.5a17 17 0 0 0 2.5-.8zm-3.3 0c2-1.1 2.4-1.5 2.4-2.3 0-.6-.1-.6-.9-.5l-3.7.5c-2.1.2-2.9.4-2.9.7 0 .3.5.3 2.6.2 3.1-.2 2.9.2-.4.6l-2.4.4c-.3.3.3.5 1.8.6 1 0 1.7.3 1.8.4.2.3.2.3 1.7-.6zm-13.6.3c0-.2 0-.4-.3-.4-.5-.2-.8 0-.6.4.3.3.6.3.9 0zm-55-.7-.8-.5a10 10 0 0 1-1.3-.7c-.4-.3-.7-.2-1.7.3-2.2 1.2-2 1.3 1 1.1a29 29 0 0 0 2.8-.2zM4.2 85.9l.2-11.6c0-4.3.3-4.6.6-.3l.3 2.7c.3-.3.8-3.4.7-4-.2-1 .9-4.7 2.4-8.1 1.7-3.6 1.8-4.2.7-3.5l-2.7 2.6C4.9 65 4.3 66 4 66.7l-.4 5c-.5 10.8-.5 11.3-.9 11.7-.3.4-.3.5 0 1 .4.4.5 1.1.4 2.4 0 2.6.4 7.5.6 7.3.1-.2.3-3.8.4-8.2zM5 69.2c-.2-.3 1.6-4.2 2-4.4.5-.4.2.6-.6 2.2l-.8 2c0 .4-.4.5-.6.2zM58.4 94c.1-.2-.1-.3-.6-.3-.4 0-.9.1-1 .3 0 .1.2.3.7.3.4 0 .8-.2 1-.3zm5.3 0c0-.2-.4-.3-.7-.3-.5 0-.5 0-.2.3.5.3 1.1.3 1 0zm3.3-.2c0-.4-2.6-2.2-4-2.7-1.2-.5-1.7-.6-2.1-.4l-.6.3.6.3c.4.1 1 .6 1.5 1 .4.5 1 .9 1.2 1 .2 0 .8 0 1.3.3 1 .4 2.1.5 2.1.2zm31 0c.3 0 .5-.2.5-.3 0-.3-1 0-1.2.3-.2.2.2.3.8 0zm-50-.5c.8-.1 1.9-.5 2.2-.8.4-.4 2.7-1.4 3.2-1.4l1 .8c.9.8 1.2.9 2.6.5.6-.2 1-.2 1.2 0 .6.5.4-.1-.2-.9-.3-.4-.5-.9-.4-1.1.1-.4-.1-.6-1.3-1-.8-.2-1.7-.4-2-.3l-1.7.3a50 50 0 0 0-5.5 1c-.6 0-1.9.2-3 .1-1.5 0-2 0-2.8.5-1.3.8-1.6.8-1.5 0 .2-.8-.1-1-.4-.3 0 .2-.5.5-.8.6-.4.2-.6.4-.5.6.3.5 3.3 0 4.1-.6.7-.5.7-.5 1 0 .4.8.3 1.4-.1 1.4-.9 0-.4.5.7.7 1.6.4 2.2.4 4.1 0zm13.7-.1c0-.3-1.3-1.2-1.4-1-.2.2 1 1.5 1.2 1.4l.2-.4zm42.1 0c0-.1-.2-.3-.4-.3s-.4.2-.5.3c-.1.1 0 .3.4.3.3 0 .5-.2.5-.3zm4.5 0c0-.1-.1-.3-.3-.3l-.2.3c0 .1 0 .3.2.3s.3-.2.3-.3zm2-1c-.2-1-1-1.2-1-.4 0 .5.5 1.1.9 1.1v-.8zm-102.6-1c.2-.7.5-3.6.6-6.5.1-2.8.4-6 .6-7 .6-2.4.6-3.3 0-3.3-.4 0-.5-.4 0-1.1.1-.3.4-2.3.5-4.3a39 39 0 0 1 .3-5A19 19 0 0 0 7 69.8c-.5 1.9-.6 2.4-1 5.4-.2 2.6-.6 4.3-1 4.8-.3.4-.7 8.2-.4 9.2.2.8.4.7 1.2-.7.4-.9.5-1.5.5-5.3 0-3 .1-4.8.4-5.8l.4-2.6c0-.8.1-1 .4-1 .5 0 .5-.2-.1 3.2-.5 2.5-.6 4-.6 9.4 0 6.5.1 7.5.8 4.9zm99.5.4c0-.3 0-.6-.2-.7-.2 0-.3.2-.3.7 0 .5.1.8.3.7l.2-.7zm26.2-.2c0-.7 0-.7-.4-.2-.5.7-.5 1 0 1 .3 0 .4-.3.4-.8zm-7.9-.3c3.5-.9 4.2-1.2 5.4-2.6.8-1 1-2.8.4-3.9-.4-.7-2.1-2.5-2.5-2.5-.1 0-.5.4-.9 1-.3.4-1 1.3-1.6 1.8-1.2 1.2-.5 1.2 1.6 0 2.1-1.3 2.4-1.3 2.2.2a8.2 8.2 0 0 1-3.2 4.4c-.5.3-1.9 1-3 1.3-1.9.7-2 .8-1.3.8.5 0 1.8-.2 2.9-.5zm2.2.2c.1-.1 0-.2 0-.2l-.5.2.1.3c.2 0 .4-.1.4-.3zm-5.5-.6c3-.8 4-1.3 4.4-2 .3-.7.4-.7-2.8.1-3.2.8-4.1.9-4.1.3 0-.4.1-.4.6-.3.8.2 5.2-.8 6.4-1.4 1-.5 2.5-1.6 2.5-2 0-.3-.7-.2-2 .5-1.4.7-6 2-6.3 1.8-.4-.4 0-.8 1-1a9.5 9.5 0 0 0 4.7-3.1c1.2-1.4 1.3-2 .4-1.8-1 .1-.9-.2 0-.5 1-.4 1.1-1 .5-1.6-.4-.3-.6-.2-1.2.5-2 2.8-5 5.3-6 5.3-.6 0-.4-.5.3-.8.4-.1 1.2-.7 1.9-1.2 1.3-1.2 3.9-4.3 3.7-4.6-.2-.2-1.8.1-2.7.6l-1.5 1.2c-1.8 1.7-3.1 2.1-3.1 1 0-.9.8-1.6 2.4-2.2 1.5-.5 1.5-.5 2.4-2.1.5-1 .6-1.1 0-1.7-.2-.3-.5-.5-.6-.5l-.8 1.2c-1.1 2.2-3.4 4-4.8 3.7-.6-.2-3 .7-3.3 1.2 0 .2.4.3 1 .3.7 0 1 0 1 .3 0 .2.3.5.5.8 1.4 1.1 2.4 4.2 2.4 7 0 1.2.2 1.6.5 1.6l2.6-.6zM41.6 90c-.7-.3-1 0-.9.4.1.3.3.3.8 0 .6-.2.6-.3 0-.4zm101.1 0c0-.1-.2-.2-.5-.2s-.6 0-.6.2.3.3.6.3.5-.1.5-.3zm-34.1-3c.6-1.2.2-1.5-.6-.3-.9 1.1-1.3 1.9-1.3 2.4 0 .4.2.4.7-.3l1.2-1.7zm2.3 1.8c0-.5 0-.7-.2-.5-.2.2-.2.5-.1.8.2.6.3.5.3-.3zm29.5.4c.2-.3 0-2-.3-2-.1 0-.2.4-.2 1.1 0 1.1.2 1.5.5 1zM86 88.4c.5-.5.3-.5-.8-.2s-1.4 1-.3.6c.4 0 1-.3 1.1-.4zm-76.5-.5c.3-.2 1-.6 1.7-.8l2.6-1c1-.3 2.8-.7 5-1l3.7-.5c.3-.3-.9-.5-2-.3l-4.8-.1c-4.7-.3-5-.2-5.7 1.5-.3.8-.7 1.6-.9 1.7-.3.3-.4 1-.2 1 .1 0 .4-.2.6-.5zm123.1 0c0-.1 0-.3-.2-.3s-.3.2-.3.3c0 .2.1.3.3.3.1 0 .2-.1.2-.3zm-122-4.4 1.8-3.3c.7-1.8 1.1-3.4 1-3.5-.3-.2-3 1.1-3 1.4 0 .2-.2.3-.4.3s-.4.1-.4.3c0 .6-.1.9-.4 1.5v.9c.2.1.3.6.1 1-.3 1.3-.4 3.4-.3 3.4l1.6-2zm101.4 1c.5-1 .3-1.2-.4-.5-.7.8-.8 1.3-.3 1.3.2 0 .5-.3.7-.7zm-1.7-.5c-.2-.2-.7.2-.7.5 0 .2.2.2.4 0s.4-.4.3-.5zm4.8 0c0-.2-.2-.3-.7-.3-.8 0-1.1.3-.5.6.5.2 1 0 1.2-.3zm.3-1.1c0-.2-.1-.3-.4-.3-.2 0-.3.1-.3.3 0 .1.1.2.3.2.3 0 .4 0 .4-.2zm-4.3-.8c.6-.8.9-1.6.4-1.6-.4 0-1.6 1.6-1.6 2 0 .6.4.4 1.2-.4zm9.8-1.3c0-.2 0-.3-.2-.3-.4 0-1 .5-1 .9 0 .2 1-.3 1.2-.6zm-4.3-1.3 1.8-.3c1.4 0 3.7-2.8 3.7-4.4 0-1-.4-1.2-1.4-.6-.4.2-.5.3-.2.6.2.3.2.5-.1.9-.3.3-.5.7-.5 1 0 .6-1.7 1.5-3.5 1.9-1 .2-2 .6-2.7 1.4-1 .8-.5 1.1.6.4l2.3-1zm-11 .5 1.5-1c.6-.6.8-.7 1.2-.4.7.4 1.6-.5 1.6-1.6 0-1-.5-1.2-1.7-.4-.5.4-1.6.8-2.3 1-1.8.4-4.6 1.8-4.3 2.1.1.1.8.3 1.5.3.8 0 1.4.2 1.5.2.1 0 .6 0 1-.2zm6.1-.6c.8-.6.9-.8.6-1-.6-.4-.7-.4-1.3.5-1 1.5-.7 1.7.7.5zm-14.6-.7c0-.2 0-.3-.3-.2-.2.1-.4.3-.4.5 0 .3.6 0 .7-.3zm28.3-.5 1-.4-.7-.6-.7-.7c-.2 0-1 1.8-.9 2 .2.2.1.2 1.3-.3zm-12-.6c.1-.1.5-.2 1-.1.8.2 2.3-.8 4.3-2.7 1.1-1.1 1.2-1.3.8-1.6-.5-.4-1.3-.2-1.7.4-.7 1-1 .8-2.8-1l-1.8-1.8-2.5-.2a24 24 0 0 1-3.1-.3c-.5-.1-.6 0-.6.3 0 .6 1 .8 2.7.7 2.1-.2 2.6 0 4.4 1.7l1.6 1.5-.8.9-1.1.9c-.4 0-1.5 1-1.5 1.3 0 .3 1 .3 1.2 0zM119 76c.8-.8-.1-.7-.9.1-.6.6-.6.7 0 .5.2 0 .7-.4 1-.6zM11.1 75a61.4 61.4 0 0 0 4.8-6.1c.5 0-.3 1.4-2.2 3.9a15.9 15.9 0 0 0-2.1 3.2c.2.3 1.7-.2 2.4-.7l1.2-.8c1-.4 3.4-2.7 3.2-3.1 0-.2.4-.8 1-1.4.6-.5 1.8-2.1 2.8-3.5 1.5-2.3 1.7-2.7 1.4-3.2-.2-.5-.2-.6.4-1 .4-.4 1-1 1.2-1.5.5-.9.6-1.2.5-2.8-.2-2.3-1.3-4.6-2.2-4.9a2 2 0 0 1-1-.9 12 12 0 0 0-1.3-1.7c-.8-.8-1-1-1.3-.6-.5.6-.7.3-.6-.8.2-1.3-.4-2.7-1.3-3-.4-.2-.9 0-1.7.4-.6.4-1.2.6-1.3.4-.2-.4 1.8-1.6 2.6-1.6.9 0 2.3 1.3 2.3 2 0 .5 1.5 2.7 2.6 3.8l.6.8c0 .2.4.4.8.6.9.3 1.7 1.6 2.3 3.8.5 2 .4 3.5-.2 4.6l-1.1 2.3c-.9 2.3-.9 2.2 0 2.2l3.5.4 9.9 1c6.7.4 8.7.6 14.1 1.2 1.4.1 1.7 0 1.7-.3 0-.2 0-.4.2-.4s.3-.3.2-.6c-.3-.6 0-.6.8 0 .5.5 1 .6 2 .6 2 0 2 0 1.3-.6-.7-.5-.6-.6.4-.3.3 0 .6.3.6.5 0 .6 1 .9 4.8 1.4l7.3 1c5 .8 10.9 1.2 15.6 1.1 3.7 0 4.1-.1 4.5-.6.2-.3.3-.8.3-1-.2-.8.2-1.5 1.5-2l1.6-1.1c.3-.3 1.3-.8 2.3-1.2a76.3 76.3 0 0 0 5.1-2.3l.8-.3-.8-.6c-.6-.5-1-.6-1.8-.5-4 .5-3.7.5-3.6 0 .4-1.5-2-2.6-5.6-2.6-2 0-2.4-.1-2.9-.7-1.1-1.2-1.6-1.4-5.1-1.8-.8 0-1.5-.3-1.6-.4-1-1.2-2.1-1.8-3.2-1.8-.8 0-1.6-.2-2.5-.7a9.7 9.7 0 0 0-6.8-.5c-1 .3-2.6.5-4.5.6-3.6 0-6.6.8-9.3 2.4-1 .7-2.5 1.4-3.3 1.6l-3 1.2C44.2 60.2 44 60.3 44 60c0-.1 1.7-1 3.8-1.8 6.4-2.5 9.2-4 9.2-4.7 0-.1-1.4-.2-4 0l-3.8.1-1.4-.7c-1.1-.7-1.6-.7-4.2-.8-1.6 0-3.6-.3-4.4-.5-1.3-.3-1.6-.3-3.3 0-1.1.2-2.2.5-2.5.7-.4.2-.7.2-.8 0-.2-.1.2-.4 1.2-.7.9-.3 1.6-.7 1.7-.8 0-.3-1.5-.9-2.5-.9-.4 0-1.4-.3-2.4-.7a14 14 0 0 0-8.9-.2l-.4-.1c0-.5 1-.8 3.2-1.1 1.5-.3 2.3-.2 3.6 0 3.9 1 7 2 7.9 2.4a4 4 0 0 0 1.7.5l2.2.4c.8.2 2.4.4 4 .4 2.3 0 2.8 0 3.9.7 1.2.6 1.4.6 5.3.6 2.9-.1 4.2 0 4.6.2.5.3 1 .3 2.8-.2 1.4-.4 3.1-.6 5-.7 1.6 0 3.4-.2 4.3-.5a8 8 0 0 1 6.4.4c1.4.7 1.9.8 2.4.6.8-.2 1.4 0 3.4 1.4.7.4 1.8.8 3.2 1 2 .4 4.3 1.5 4.3 2 0 .1 1 .3 2.3.4 3.7.3 5.2.8 6.3 2.4.3.4.5.4 2 .1 1.8-.2 2-.2 2.5.3.8.7 2.5 1 3.7.5a44.7 44.7 0 0 0 8.4-2.7c3.4-1.5 6-3.6 7.3-5.8 1-1.8 2-2.6 4.7-3.9a8 8 0 0 0 2.2-1.3c0-.2-.4-.3-1-.3a2127.7 2127.7 0 0 1-60.6-1.3A5580.6 5580.6 0 0 1 26.8 44c0-.4 4.3-.4 12.9 0a815.5 815.5 0 0 0 28.4.6c2 .2 27 .8 50.8 1.2l11.5.2 1.3-.8c2.6-1.7 3.4-2 5.4-2l2.8-.5.8-.3-.8-.4-1.7-1.3c-.6-.6-1.2-1-1.6-1-.9 0-3.5-.8-3.8-1.2-.2-.2-1.1-.5-2.1-.6l-3.6-.7c-4-.8-6.3-1-7.8-.5-1.4.4-1.5.4-2.6-.1a6 6 0 0 0-2.1-.6 56 56 0 0 0-14.9-1h-4.6c-2-.1-3.7 0-5.9.5l-3 .6-2-.6c-1.8-.6-2.3-.6-6.5-.6-6 .1-11.6.5-14.7 1l-2.6.5-4.1-.7-4.1-.8-3 .5c-1.6.3-3.7.4-4.6.4-1 0-2 .1-2.5.3-1 .4-2 .4-2 0 0-.2.3-.4.7-.5a35.5 35.5 0 0 1 4.8-.7c1.8 0 4.2-.2 5.2-.3 1.5-.2 2.8 0 5.6.4 3.7.6 3.7.6 7.2.1 3-.4 13-1 17-1 .8 0 2.1.3 3 .6 1.4.4 2.1.5 3.2.4 1.6-.2 1.6-.5.1-1-1.1-.3-4-1.4-8.1-3A40.9 40.9 0 0 0 56.3 29c-1.3.5-1.7.5-2.7.3a288.8 288.8 0 0 0-8-2c-1.9-.6-2.8-.7-5.5-.7-2.3 0-3.4.1-4 .4-.9.5-1.6.5-1.7 0 0-.1.2-.3.6-.3.4 0 .8-.3 1-.4.3-.2 1.6-.3 4.2-.3 3.3 0 4 .2 6.2.9l5.2 1.3c2.7.6 2.7.6 4.6.2 1-.3 2.5-.5 3.4-.5l4.4-.1 2.9-.2-1.2-.4A70.4 70.4 0 0 1 51.1 23l-5.6-1.7c-1.6-.4-3.3-1-4-1.3-.6-.4-1.5-.7-2-.8-3-.6-8.8-2-11.6-2.8a135.9 135.9 0 0 0-14.6-3c0-.3 2.3-.1 3.5.3 1 .3 6.2 1.3 7 1.3.5 0 2.2.4 3.9.8a100.7 100.7 0 0 0 9.8 2.3 231.8 231.8 0 0 0 30.1 5.6c1 0 4.7 1 5.5 1.5a19 19 0 0 0 6 1.8c2 .2 7.8 1.6 8.8 2.1 1 .6 12.7.3 15.5-.3l5-.5A31.8 31.8 0 0 0 118 27c.5-.2.5-.2-.1-.3-.3-.2-.6-.4-.6-.6 0-.3.2-.4 1.3-.2 1.7.2 1.7-.2.3-1.1-.9-.6-1.3-.7-2.1-.6-.9.2-1 .1-1-.2 0-.7-1.2-2.5-1.6-2.5-.4 0-.4 0 0 1.1.5 1.1.2 1.5-.5.8-.5-.5-.5-.5-1 .2l-.4.8h1c.4 0 .8.1.9.3v.5c0 .4-3.3.6-4.6.2-.7-.1-1-.4-1-.6 0-.3.1-.4.4-.3l1 .4c1 .1.9-.6 0-1.1-.7-.5-.9-1.5-.3-1.5.2 0 .6.3.8.6.6 1 1 .9.8 0 0-.7 0-.9.3-.9s.4-.2.4-.7c0-.5.1-.6.6-.6l1-.1c.3-.1.7-.2 1 0 1.4.5-1.3-2.5-2.8-3.2l-1-.3.8-.2c.4-.1.9 0 1.1.1.6.6.7 0 0-.6-.5-.6-.9-.7-2.5-.9-2-.1-2-.1-2.3.5-.2.6-.9.8-3.3 1.4-.4 0-1 .6-1.5 1.3-.7 1-1.1 1.2-2.4 1.6-.8.2-1.8.4-2.1.3-1 0-1.1-.7-.3-.7 1 0 3-.7 3.5-1.1.5-.6.5-1.1 0-1-.2.2-.8.3-1.3.3-.7 0-1 .1-1.2.6-.4.8-.8.9-1 .1 0-.2-.2-.5-.3-.5-.4 0-.8.9-.6 1.3v.7c-.2.4-.3.4-.6.1-.2-.1-.4-.5-.4-.8 0-.4-.2-.4-2-.4-1.4 0-2 0-2.2-.3 0-.2.3-.3 1.1-.3 1.3 0 2.3-.4 2.3-.8 0-.1-1-.3-2.3-.4a9.6 9.6 0 0 1-2.6-.4c-.2-.2-.5-.2-.9 0-.4.3-.8.3-1.7 0l-1.7-.3c-.4 0-.5-.2-.5-.9 0-.6 0-.8.3-.7.2 0 .4.3.4.5s.2.3.6.2c.4-.1.7 0 .8.1.1.2.5.3.7.3.4 0 .6-.2.6-.8 0-.8-.5-1-.7-.4-.1.2-.4.4-.6.4-.2 0-.3-.3-.3-1.2V13h-1.3c-2.2.1-5.1-.3-7.3-1a19 19 0 0 0-10-.8l-9.4.4-12.5.3a242.9 242.9 0 0 1-41.6-1.4c-.3 0-.5 1-.7 2.8-.5 4-.5 5.4-.1 5.3l2-.2c1.3-.1 1.7 0 2.9.5l2 1.1 1.4 1.3c.7.5 1 1.1 1.4 2.3L15 25l3.6.2c4 .3 4.8.3 8.3.1 2 0 2.7 0 4.2.5l2.2 1c.9.6-.2.8-1.5.2l-1.9-.8a13 13 0 0 0-5.4 0c-.6.2-1.2.2-2.1 0-1.2-.3-4.9-.4-6.8-.3-.4 0-.7.1-.7.3 0 .2.3.2.8.1 1.2-.2 2.8.9 3.6 2.6.2.5.8 1 1.3 1.4 1.3.6 1.7 1.4 1.7 3.4v1.5h3c5.8-.2 13.4.3 13.4.8a156.3 156.3 0 0 0-16 0c-.5.2-.7.5-1 1.4-.7 3-1.7 4.4-5.6 7.8-1.7 1.5-8.2 8.3-8.9 9.2-.5.8-.6 1.3-.7 4.3l.1 3.4 1.6-1c1.3-1 1.4-1.1 1.3-2A170.7 170.7 0 0 1 9 54c.2 0 .5 1 .7 2.4.1 1.3.4 2.4.4 2.5.3.3 1.8-1.3 2.3-2.5l1.4-2.4c.5-.7 1-1.5 1-1.7.2-.3.4-.5.6-.5.5 0 0 1.5-1 2.8a18 18 0 0 0-1.4 2c-.2.5-.8 1.4-1.3 2-.9 1.1-1 1.3-1 3.2 0 1.1-.2 2.4-.4 2.9-.4 1-.7 5.1-.3 5.1l.6-.8c.3-1.2.9-1.8 2.7-3.1a11 11 0 0 0 3.3-3.2c.5-.9.8-1 .8-.5 0 .4-.8 1.8-1.4 2.4l-2.4 2A7.6 7.6 0 0 0 11 70c-.8 1.6-1 2.2-1 4.3-.1 2 0 2.3.2 1.8l.9-1zm6.4-7.2c1.2-1.1 1.4-1.2 1.4-.7s-1.4 1.8-2 1.8c-.4 0-.3-.2.6-1.1zm64-2.4c.2-2.5.3-3.2.6-3.2s.3 2.9 0 4.1c0 .4-.3.8-.5.9-.2 0-.3-.3-.1-1.8zm-70.6 1.2 1.4-1.6a27 27 0 0 0 4.4-6.4c.7-1.5 1.3-1.9 1-.7-.1.7 0 .6 1.2-.6 1.4-1.5 1.6-1.6 1.6-1 0 .5-2.8 3.3-3.3 3.3-.2 0-.6.6-1 1.3-1 1.8-4.4 5.8-4.9 5.8l-.4-.1zm35.6-1c-.2-1.2 0-2.1.4-2.2.2-.1.3.3.3 1.5 0 1.7-.4 2.1-.7.7zm4.1-.7c0-1.2.1-1.6.4-1.5.2 0 .3.6.3 1.5s-.1 1.4-.3 1.5c-.3 0-.4-.3-.4-1.5zm25 1.4c-.2-.2-.1-3.2.1-4 .4-1.3.7-.4.6 1.7 0 2-.2 2.7-.6 2.3zm-20-.4.6-.2c.3 0 .5.1.5.2 0 .2-.2.3-.5.3s-.6-.1-.6-.3zm29-.4c-.2-.6-.1-1.4.2-1.6.3-.2.4-.1.6 1 .2.8.1 1-.2 1-.2 0-.5-.1-.6-.4zm-43.2-1.3c0-1.3.3-2 .6-1.5.2.3-.2 3-.4 3-.1 0-.2-.7-.2-1.5zm1.6.6c0-1 .2-2 .5-2s.3.9 0 2c-.1 1.1-.6 1.1-.5 0zm16.2.6c-.4-.7.1-4.5.7-4.5.2 0 .2.5.1 1.5a16 16 0 0 0-.2 2.3c0 .7-.3 1.2-.6.7zm8-1.3v-3c0-.8.2-1.2.4-1.2.6 0 .2 5.3-.4 5.7-.2.1-.2-.3 0-1.5zm-30.7.9c-.3-.4-.2-1.7.2-1.7.3 0 .4.3.4.8 0 .8-.3 1.2-.6.9zm2.7-.7c0-.4.2-.9.4-1.1.4-.5.4-.5.4.6 0 .8 0 1-.4 1-.2 0-.4-.2-.4-.5zm14.2-1c.2-2.2.7-2.3.7-.2 0 1.5-.1 1.8-.5 1.8-.3 0-.4-.2-.2-1.5zm1.7 1c-.3-.6-.1-1.4.2-1.2.4.2.6 1.5.3 1.7 0 0-.3-.1-.5-.5zm8-.4c0-.5 0-.9.3-.9.4 0 .4 1.4 0 1.6-.2 0-.3-.2-.3-.7zm8.8-2c0-2.7.3-3.7.7-3.2.3.4-.1 5.7-.5 5.9-.2 0-.3-.6-.2-2.7zm-38.6 2c-.3-.3-.2-.6.3-.6.2 0 .4.2.4.4 0 .4-.4.5-.7.2zm35.3-2c0-.5.1-1 .3-1l.2 1c0 .7 0 1.1-.2 1.1s-.3-.4-.3-1zm-32.5-2.6c.2-.6 12.4-4.4 13-4 .4.2 0 .3-2.6 1A90.3 90.3 0 0 0 36 59.6v-.3zm-4.6-.7a45.9 45.9 0 0 1 13.9-4c.1 0 .2 0 .2.2a55.4 55.4 0 0 0-11.1 3c-2.9 1-3.5 1.2-3 .8zm83-14.8c0-.3.2-.5.5-.6.4 0 .4 0 .2.5-.4.7-.9.7-.8 0zm-24.9-.4c-.2-.6 0-1.9.4-2 .2 0 .3.2.3 1 0 1-.4 1.7-.7 1zm22.3 0c-.3-.7 0-2.1.3-2.3.2 0 .3.3.3 1.1 0 1.2-.4 1.9-.6 1.2zm-29-.6c0-.7.6-1.7 1-1.7s.4 0 0 1.1c-.5 1-1 1.3-1 .6zm10 0c-.1-.2-.2-.5-.1-.6.2-.2.8.4.6.7 0 .3-.2.2-.4 0zm14.9 0c0-.2 0-.4.2-.3.2.1.3.3.3.4 0 .2-.1.3-.3.3l-.2-.4zM58 42.6c-.2-.6 0-1.3.3-1.3.4-.1.5 1.1.2 1.4-.2.2-.3.2-.5-.1zm18 0c-.1-.2.1-.7.5-.7.3 0 .3.7 0 .9l-.4-.1zM48.3 42l.4-1c.5-1 .8-.3.4.7-.3.9-.8 1-.8.3zm21.2.1c-.4-.4-.3-1.2.2-1.4.2 0 .3.2.3.8 0 1.1 0 1.2-.5.6zM102 42c0-1 .5-3 .8-3 .2 0 .2 1.4 0 2.5-.2 1-.9 1.3-.9.5zm4.2-.1c0-.9.4-1.5.8-1.1.2.2.2.5 0 1-.3.9-.8 1-.8.1zm16.4 0c0-.4.2-.7.4-.7.1 0 .3.3.3.6 0 .5 0 .7-.3.7s-.4-.2-.4-.7zm-69.8 0c-.2-.6 0-1.3.5-1.3.3 0 .3 1.3 0 1.5-.2 0-.4 0-.5-.2zm-10-.1-.1-.8c0-.8.6-.7.7 0 .1.5-.3 1-.5.8zm29.4-.5v-.7c.3-.2.4-.2.5.2v.7c-.3.2-.4.2-.5-.2zm2.4.2c-.3-.3-.2-1.4.2-1.4.3 0 .4.3.4.7 0 .6-.3 1-.6.7zm20.8 0c0-.4.5-.5.5-.1l-.3.3c-.2 0-.3 0-.2-.2zm4.6-.9v-1.1c.5-.4.6-.2.7.9 0 1.1-.5 1.3-.7.2zm15.4.6c0-.2.2-.2.3-.2l.3.3-.3.1c-.1 0-.3 0-.3-.2zm-19-1c-1-.5-.8-1 .2-.6 1 .5 1.2.7.8.8-.2.1-.7 0-1-.2zm-10-.9c0-.1 0-.2.2-.2.1 0 .3 0 .3.2s-.2.3-.3.3a.3.3 0 0 1-.3-.3zM104 75.3c.2-.2.2-.4.1-.5-.2-.3-1 .1-1 .5 0 .5.4.5.9 0zm3.4-1.7c0-.4-.4-.5-1-.1-.4.3-.4.4.3.4.4 0 .7-.1.7-.3zM5.7 61.5c.3-2.8.2-4.3 0-4.3-.5 0-1.2 2.3-1.2 4.1 0 1.4-.2 2.2-.7 3-.9 1.7-.6 2 .6.5 1.1-1.2 1.2-1.4 1.3-3.3zm-1.2-3.3c.7-1.3.8-1.7.6-2.7-.6-3.2-.8-4.8-.8-6.7v-2L3.9 48c-.5 1.4-.7 4.4-.4 4.6.2 0 .3 0 .3-.2 0-.3 0-.3.2 0 .2.2 0 1-.2 2a8 8 0 0 0-.4 3.5c.1 1 .2 2 .3 1.9l.8-1.6zM6.2 55c0-.1-.1-.3-.3-.3l-.4.3c0 .1 0 .3.3.3.2 0 .4-.2.4-.3zm1.5-2a831.4 831.4 0 0 1 5.7-6.3c.6-.7 1.8-1.8 2.6-2.4 1.7-1.2 3.5-3.2 4.2-4.6.6-1.3 1.3-4.2 1.3-5.8 0-.6-.2-1.6-.4-2-.3-.9-.4-1-1.1-.8-.8.1-.8 0-1.1-1-.6-2.3-2.8-3.6-4-2.4-.5.3-.6.4-1 0-.2-.3-.2-.6 0-1.8.4-2.4-.5-4.3-2.5-4.8-.5-.1-1-.5-1.1-.7-.4-1.2-2.8-1.7-5-1.1l-.9.2-.2 7.8A122.5 122.5 0 0 0 5.6 54c.2 0 .6-1 1.1-2.1.9-2.2 1-2.3 1-6 0-2-.2-4.6-.3-5.8-.3-3 .2-2.9.6.1l.3 5.1c0 2.5 0 2.7.4 2.3.6-.8 2.5-6 2.8-7.6.3-2 1-4 1.4-4 .3 0 .3.3 0 1.4-.4.8-.7 2-.8 2.7-.2 1.5-1 4-2.9 7.7a18 18 0 0 0-1.2 3c0 .3-.2.9-.5 1.4-.6 1-1.1 2.1-1 2.1l1.2-1.1zm3.5-7.7c0-.3 4-4.6 4.3-4.6.6 0 0 .8-1.9 2.7-1.9 2-2.4 2.3-2.4 1.9zm132.5-4.6c-.4-.2-1.3.6-.9.9.2 0 .5 0 .8-.3.3-.3.3-.5.1-.6zm-1.4 0 .7-.5-.9-.3-1.3-.2c-.3 0-.5-.2-.5-.4 0-.3.2-.4.5-.4s.6-.2.6-.3c0-.2-.2-.3-.5-.3-.6 0-2.2-1.7-2.2-2.4 0-.3-.2-.6-.5-.7-.3 0-.6-.3-.6-.5-.1-.2-.6-.3-1.2-.3-1 0-1.1 0-.8.5l.8.7c.2 0 .7.7 1 1.5 1.2 2.4 2.6 3.8 3.7 3.9l1.2-.4zm3.3-1.6c.3-.1.1-.3-.7-.7l-1.5-.8c-.2-.2-.6-.3-.9-.3-.4.1-.3.3.5 1.1 1 1 1.9 1.2 2.6.7zm-8.7-.6c0-.9-3.2-4.6-4.6-5.4-.9-.4-2.4-.2-3.4.5s-3 1.1-4.1 1c-.6-.2-1.4-.2-2-.2-1.6.1-3.2 0-4.4-.2-1-.2-1.1-.1-1.1.4s-.2.6-1 .6c-1.3 0-2-.3-2-.7 0-.3.4-.4 1-.4s.9-.1.6-.2c-.2 0-.5-.3-.5-.5 0-.1-.5-.4-1.2-.6-1.3-.3-2-.7-2-1.1 0-.4 1-.3 1.5.2.3.2.7.3 1 .3.7 0 .3-1-.5-1l-.7-.2.7-.3c1-.4 2.3-.4 3.2 0 1 .3.6 1-.8 1.1-1 .2-1.2.3-.8.5.2.1.7.2 1 .1l.8.1c.3.2.2.3-.3.5-.6.2-.4.3.8.3 1.2 0 1.4 0 .8-.3-1-.5-.7-1 .8-1 1.2 0 1.3 0 1.3-.6 0-1-.7-1.7-1.7-2-1.2-.4-1.5-.3-.5.2.7.4.9 1.2.1 1l-1.1-.5c-1.1-.4-.9-1.8.3-1.8a9 9 0 0 1 3.2 1.6c0 .4 1.4 1.8 1.8 1.8l.5-.1c0-.5-.4-1-1-1.2-.6-.3-.7-.7-.1-.8.4-.1.3-.2-.1-.8-.5-.6-.6-.6-1-.3s-.5.3-.7 0l-.2-.7c0-.8-2.7-.7-4 .2a5 5 0 0 1-2 .4c-5.3.3-10.3.7-11.5 1-1 .4-2.8.5-6.8.5-3 0-5.4 0-5.4.2 0 0 1.3.6 2.8 1 2.9 1 4.2 1.6 3.3 1.7a40 40 0 0 0-5.4-1.6c-1.3-.3-3-1-3.7-1.4-1.5-.8-5.7-1.9-8.5-2.2-2-.2-5.2-1.2-6.6-2a13 13 0 0 0-2.9-.9 2430.5 2430.5 0 0 0-8.5-1.6L53.1 22c-2.8-.6-6.5-1.2-6.7-1l2.8 1L56 24c2.2.8 5.5 1.7 7.2 2l5.6 1.4c1.3.5 3.1 1 4 1.2 2.3.4 4.2 1 5.6 1.7l4.1 1.5c4 1.3 6 2 6.6 2.4.4.3.8.3 1.7.1 1.6-.3 6-.4 8-.1h2c.3-.2 0-.4-1.3-.6-1-.2-1.8-.5-1.8-.6 0-.4.8-.3 4.5.5 1.8.3 4.5.7 5.8.7 2.8.2 5 .5 6.3.9 1.8.6 3.2 1 4.2.8 2.2-.1 4.8 0 6.5.3l4.4.7c1.6.2 3.6.7 4.7 1.1 2 .9 2.8 1 2.8.5zM110.7 33l.2-.4c.2 0 .3.2.3.4s-.1.4-.3.4l-.2-.4zm36.9 4.7c.4-.2.3-.4-.9-1-.8-.5-1.5-1-1.6-1.5-.2-.4-.5-.9-.8-1-.3-.4-.3-.3-.2.7.3 1.7.7 2.4 1.5 2.7.8.3 1.3.3 2 0zm-6.5-1.4c-.3-.6 0-2.1.4-2.3l1 .5.4.6v-.7c0-.4 0-.8-.2-.9-.2 0-.3-.8-.2-1.8 0-1 0-1.6-.3-1.7-.2 0-.7-.8-1.1-1.7-.4-.8-1-1.5-1-1.4-.2.1-.4.7-.6 1.3-.2.6-.5 1-.8 1.2-.3 0-.5.2-.5.3 0 .3.8.5 1 .3.2-.5.5-.3.9.6l.8 1.5c.6 1 .6 1.2 0 1.9-.6.5-1.2.4-1-.2.1-.2-.2-.7-.6-1.1-.5-.5-.8-1-.8-1.2 0-.2-.4-.7-.8-1.1-.6-.6-.8-1-.7-1.4.2-.7 0-1.2-.5-1-.3.1-.4.4-.3.7.2.6 0 .6-.6 0-.5-.5-1-.4-.7.2.1.4 0 .7-.1.8-.5.3-.1.8.5.8.5 0 2.6 2.3 2.3 2.5-.1.1-.7 0-1.4-.3-1.7-.7-2.9-.9-2.9-.4 0 .6 1.4 1.2 3.1 1.3 1.2 0 1.5 0 1.5-.4 0-.5.6-.3 1 .4.7 1.4 2 3.2 2.2 3.2.2 0 .2-.2 0-.5zm8.7-1c0-1.3-.2-1.7-.6-1h-.7c-.5-.1-.7.3-.2.6l.2.5c0 .6.8 1.5 1.1 1.3.1 0 .2-.7.2-1.5zm-2.3.2c-.4-.4-.4-1.7 0-2.4.2-.4.2-.7 0-1.2l-.3-.7-.4.6c-.2.5-.5.7-1 .6-1.3-.2-1.3-1.1 0-1.1 1 0 1.1-.5.2-.7-.6-.1-.7-.3-.5-.7.7-2.5.7-3.5 0-4.5-.4-.6-.4-.6-.4.2.1.7 0 .8-.5.9-.5 0-.8-.1-1.1-.5-.3-.4-.6-.5-.9-.4-.6.2-.6.8 0 1.1.5.3 1.4 3 1.3 3.6-.3.9.4 2.2 1.8 3.6.8.8 1.5 1.5 1.5 1.7 0 0 .1.2.3.2.3 0 .3 0 0-.3zm-3.1-6.8c-.3 0-.2-.3.1-.9.3-.5.5-.6.8-.4.4.4.4 1.1-.1 1.3l-.5.2-.3-.2zm-22 4.4-.5-.2c-.2 0-.3 0-.2.2 0 .2.3.3.5.3s.3-.1.3-.3zm3-2c-.1-.6 0-.9.2-1.1.5-.5.5-1.1 0-1.8-.4-.6-.5-.9 0-.9.1 0 .5.4.7.8.4.6.7.8 1.2.8.8 0 .8-.2 0-1.7l-.8-1.1H125l-3.3.5-1.7.3 1.1.3c.8.2 1.3.5 1.6 1l.8 1c.2.2.4.8.5 1.4.1 1 .2 1.2.8 1.2.6 0 .6 0 .5-.7zm2.9.2c-.1-.3 0-.6.5-1 1-.5.5-1-.7-.6-1.8.6-2 .8-2 1.2 0 .2.2.4.5.5a716.9 716.9 0 0 0 1.8.4l-.1-.5zm2.2-.3h-.6c-.2.2-.2.4.1.5.2.2.5.2.7 0 .1-.1 0-.3-.2-.5zm19.3-2.2c0-4.1-.1-4.4-1.2-2-1 2.1-1 2.8.2 3.6.3.2.5.6.5.9 0 .3.1.5.3.5.1 0 .2-1.2.2-3zM134 30.5c0-.3-1.6-1.9-1.9-1.9-.5 0-.2 1.2.4 1.3.3 0 .7.3.9.5.4.4.6.5.6.1zm-4.4-3.8c-.4-.7-1.2-1-1.7-.7-.3.1-.1.5.5 1.5l.9 1.2.4-.7c.3-.6.3-.8 0-1.3zm9.4.7c.4-1.3.8-1.8 1.1-1.4.4.4.7.3.7-.1s-1.4-.8-1.8-.6c-.4.3-.3-.7 0-1 .2-.3.3-.8.1-1.4-.2-1-.4-1-1 .7-.5 1.3-.7 4-.3 4.5.3.6.9.3 1.2-.7zm-5.4-.4c.3-.3-.7-1.3-1.1-1.2-.2.1-.5-.2-.7-.6a4 4 0 0 0-.8-1.2c-.4-.4-.5-.4-.6 0-.2.3-.1.5 0 .6.3 0 .4.6.4 1.3 0 1.5.5 2 1.7 1.6l1.1-.5zm1.7-.2c0-.2-.1-.3-.3-.3-.1 0-.2.1-.1.3l.3.3v-.3zm12.7-1c.3-.5.6-1.5.7-2 0-.6.3-1.4.5-1.9.4-.9.8-6.2.5-6.2a4 4 0 0 0-1.2.6c-1.3 1-1.3.6 0-.7 1-1 1.3-1.9 1-3-.2-.3-.3-.3-1 0-1.5.9-1.6.5-.2-1.6a18 18 0 0 0 1.3-2.3c0-.7-2.3 1-2.5 1.9 0 .2-.3.5-.5.5-.4.1-.5 0-.5-1 0-.6-.2-1.2-.5-1.6-.3-.4-.5-.9-.5-1.1 0-.2-.1-.5-.3-.6-.3-.2-.3 0 0 1.7.5 2.6.6 4.5.3 4.7-.2 0-.3.5-.3.9l-.4 2.3c-.4 1.7-.5 3.4-.1 3.1.2-.1.4-.8.8-3.6l.7-2.5.3-1.3c0-.3 0-.5.2-.6.3 0 .3.6.3 3l-.1 3h1.1c.7 0 1.2.1 1.2.3 0 .2-.6.3-2.2.4-.7 0-.9.1-1.2 1-.2.7-.2 1.2 0 1.3l.2 1.8c0 1.4 1.1 4.8 1.6 4.8l.8-1.2zm-.5-3c0-.5 0-.8.4-.8.2 0 .4.3.4.8s-.2.8-.4.8c-.3 0-.4-.3-.4-.8zm.2-3.2c0-.1.1-.2.3 0l.3.2-.3.1c-.2 0-.3-.1-.3-.3zm-26.2 5.7c0-.4-.8-.9-1.4-.9-.3 0-.2.2.3.7.8.7 1.1.8 1.1.2zm13.3-.1c0-.6-.6-1.3-1-1.3-.5 0-.5.1.1 1 .5.6.9.7.9.3zm-10.4-.2c-.8-1.6-.9-1.7-1.7-1.6-1.7 0-1.8.7-.3 1.4 1 .4 2.1.5 2 .2zm1.2-.2c0-.2.7-.4 1.6-.5 2-.2 2.4-.5 1-1-.9-.5-1-.5-1.8-.1l-1.2.5c-.6.2-.7 1.5-.1 1.5.2 0 .4-.2.5-.4zm15.6-1.4c-.1-.5 0-1 .2-1.2.4-.6 1.5-5 1.7-7.1.2-1.5.3-1.8.7-1.8.3 0 .5-.1.5-.3 0-.4-2.2-.1-2.4.3-.2.7-1.7 2.1-2.2 2.1-.3 0-.4.1-.4.3.1.2.3.3.5.3l.8-.3c.5 0 .5 0 .1.9a5 5 0 0 0 0 3.7c.3.8.3 1 0 1.1-.5.2-.5 1.7-.1 2.5.4.7.7.4.6-.5zm.9.4c-.1-.2-.2-.1-.2.2 0 .3 0 .4.2.3v-.5zm-6-.4c0-.3-.5-.7-.7-.5-.2.2.1.7.4.7.2 0 .3-.1.3-.2zm-1.5-1.1c.2-.6 1-.7 1-.2 0 .2 0 .2.3 0a8 8 0 0 0 1-2.9c0-.3-3.8-1-4.2-.8-.5.3-.4 1.5.2 1.8.3.2.5.6.5 1 0 .7.5 1.6.8 1.6.2 0 .3-.2.4-.5zm-9.2 0c-.1-.2-.6-.3-1-.3-.5 0-.7.1-.6.3 0 .1.5.3 1 .3.4 0 .7-.2.6-.3zm4.1 0a116.7 116.7 0 0 1-1-3c0-.4-.2-.4-.6-.1-.5.3-.6.5-.4 1.3.1 1 .5 1.6 1.2 1.9.5.2.7.2.8 0zm-12.2-.6-.4-1c-.3-.6-.4-1.2-.3-2.3.2-2.2 0-2.5-1.5-2.5-1 0-1.3.1-1 .4.1.1.3.5.3.9 0 .3 0 .6.2.7l.4.9c.2.8 1.6 3 2 3l.3-.1zm21.3-.5c0-.2-.1-.2-.1.1 0 .3 0 .5.1.4v-.5zM119 21l-.3-1.5c-.1-1-.1-1 .7-1 .9 0 2 .9 2.6 2 .4.6.4.6.7.2.3-.4.5-.4 1-.2.7.3.7.3.6-.7a4.9 4.9 0 0 0-2-3.3c-.7-.5-1.2-.7-2.4-.7-1.3 0-1.5.1-1.5.5 0 .3-.3.8-.6 1.2-.7.9-.7 2.5 0 3.3.7.7 1.5.8 1.2.2zm2.2 0c0-.2-.2-.7-.6-1.1-.5-.6-.7-.7-1-.4-.3.3-.2.4.1.7.3.2.5.5.5.8 0 .5.8.5 1 0zm9.7-.7c.1-.4 0-1.2-.1-1.7-.2-.7-.5-1-1-1-.4 0-.6.2-.6.5 0 .6 1 3 1.3 3 .2 0 .3-.3.4-.8zm8.5 0-.1.3c0 .4 0 .5.1.3v-.6zm-1.3-.7c.2-.5.3-1 .2-1.2-.1-.1-.3.3-.5.9l-.3 1.3.6-1zm-12.3-1c-.3-.3-.3-.5 0-.7.4-.5.3-1-.3-1-.7 0-.7.7-.1 2 .3.8.4 1 .6.6.2-.2.1-.5-.2-.8zm1.8-.5-.2-.3-.3.1c0 .2.1.3.3.3l.2-.1zm9.7-.6.6-.6-.8-1.5-.7-1.8c.2-.3 0-.4-.7-.4-1 0-1.4.4-2.1 1.8-.5 1-.5 1.4-.1 1.4.2 0 .5.3.8.7.3.5.7.9 1.2 1h1c0 .1.5-.2.8-.6zm-40-.9-.4-.2c-.1 0-.2 0-.2.2s.1.3.4.3c.2 0 .3-.1.2-.3zm6.5-.5c-.7 0-1.3.2-1.3.5h1c.8-.3.9-.4.3-.5zm-9.8.3c0-.2-.7-.6-1.5-1-2.7-1.4-3.4-1.4-2.1 0 .7.9 3.6 1.6 3.6 1zm36.3-.2c0-.2-.2-.5-.5-.8-.4-.6-.3-.7.3-1.3.6-.5.7-.9.7-1.8 0-1.3-.1-1.4-1.3-.3-1 .9-.7 4.4.4 4.4l.4-.2zm8-.4v.5c.1 0 .2-.3 0-.5zM96 15.3c-.1-.2-.4-.4-.7-.4-.3 0-.8-.2-1.1-.4-.4-.3-.7-.3-.8-.2-.3.4.8 1.4 1.4 1.4.3 0 .6.1.7.3.2.4.7-.2.5-.7zm29.9.5c.2-.5 0-1-.5-1-.3 0-.4.3-.4.7 0 .8.6 1 .9.3zm-25.2-.3c0-.3-3-1.2-3.4-1-.7.2-.4.5.7 1 1.2.4 2.8.5 2.7 0zm23.7-.7c0-1-.7-2.1-1.6-2.6-.5-.3-.5-.2-.4 1 0 .8.3 1.4.9 2 .8.9 1.1.8 1.1-.4zm3.4.4c-.1-.2-.3-.3-.5-.3s-.2.1 0 .4c.4.4.7.3.5-.1zm-6-1c0-.8-.2-1.6-.5-2.2-.5-.8-.7-.8-1.8-.8-1.2.1-1.3.2-1.2.8 0 .3.3.8.6 1.1.5.4.6.6.3 1-.5.8-.4 1 .5 1.1 2.2.3 2 .3 2-1zm-5.5-.6-.1-1.5h-1l-1.7.5c-.6.1-.7.3-.4.6l.5 1.2c.2.7.3.8 1.5.7h1.3zm-3.8 1.2c0-.1 0-.2-.2-.3-.2-.1-.3 0-.3.1 0 .2.1.3.3.3l.2-.1zm-7.1-.4c0-.1.3-.4.6-.5.6-.3.6-.3-.2-.6-.7-.3-.8-.3-.3-.6l3-.4c3.2-.2 3.7-.5 2.6-1.5-.8-.8-1.3-.7-1.8.2-.2.6-.5.7-1.2.7h-3l-2.2.2-.7-1.3-.8-1.2-2-.2c-1-.1-2.1-.4-2.5-.6-.5-.2-.9-.3-1-.2-.2 0-1.3 0-2.5-.4l-3.2-.7c-1.4-.2-1.3-.9.2-.9s3.6-.4 4.9-1c1.1-.4 1-.5-2-1.2-3.4-.9-4.3-1-5-.6-.2.3-.8.4-1.2.4-1 0-2 .5-2.8 1.1-.3.4-.8.5-1.3.5-1-.1-1.2-.8-.1-.8.4 0 .8 0 1-.2 0-.2-.1-.3-.3-.3a3 3 0 0 1-1.2-.4c-.6-.4-1.3-.4-5.6-.2h-6.7c-4-.4-55.6.1-60.3.6-2.5.3-3.4.9-4 2.8a9 9 0 0 0-.4 1.8c0 .7.2.7 6.5 1.6a253 253 0 0 0 35.4.7 736.4 736.4 0 0 1 22.1-.8c3-.5 5.3-.3 8 .4a29 29 0 0 0 7.4 1.4c.8 0 2.6.2 4.1.5 2.4.4 2.8.4 3 0 .1-.2.2-.5.1-.8-.2-.8.4-1.3 1.6-1.3 1.3 0 1.9.5 2.3 2 .2.7.4 1 .8 1s.5-.2.3-1c0-.6 0-1 .3-1.3.7-.7 1.4-.5 2.2.8.8 1.2 1.8 2 2.7 2 .6 0 .5 0-.3-.6-.9-.6-1.5-1.9-1.2-2.3.1 0 .4 0 .7.4.2.3.7.7 1.1.9.4.2 1.1.7 1.6 1.2.9.9 1.3 1.1 1.3.7zm-13.5-5c-.2-.2-.3-.4-.2-.6.3-.4 1.3-.3 1.3.1 0 .5-.6.7-1.1.4zm-7.1-.7c-.2-.2-.9-.5-1.5-.6-2.2-.3-2.4-.5-1.4-1.5.5-.5 1-.7 2.4-.8 1.6 0 1.8 0 1.7.4-.1.5.4.6 1.2.3.6-.2.6-.6 0-.6-.2 0-.3-.2-.3-.5.1-.6 1.2-.6 1 0 0 .3.1.4.4.3.3-.1.4-.3.3-.7-.1-.5 0-.7.7-.8h1l-.4 1c-.5 1.1-1 1.5-3.1 2.2-1.6.5-2 .9-.8.9.4 0 .6 0 .5.3-.1.5-1.3.6-1.7.1zm-.8-2c0-.2-.2-.2-.4-.1-.3 0-.4.2-.4.2l.4.1c.2 0 .4 0 .4-.2zm6.8-1.3c0-.2.2-.3.3-.3.1 0 .3.1.3.3l-.3.2a.3.3 0 0 1-.3-.2zm27 7.3c-.3-.4-.3.4 0 1.4.1.6.2.6.2-.2 0-.5 0-1-.2-1.2zm20.4 1.8-.3-.3-.2.1c0 .2 0 .3.2.3l.3-.1zm2.6-.7.3-.6-.4.1c-.5.4-.7.3-.8-1-.1-.6-.3-1.1-.4-1.1l-.8.7-.7.8.6.8c.7.8 1.4.9 2.2.3zm-31-.2c0-.2-.4-.3-1.2-.3-1 0-1 0-.7.3.7.3 1.7.3 1.9 0zm16.8 0c0-.4-.8-.7-1-.5-.2.2.2.7.6.7.2 0 .4-.1.4-.3zM95.2 13c.2-.4-.6-1.4-1.2-1.4s-.9.7-.5 1.2c.3.4 1.5.5 1.7.2zm32.7-.4-.6-1.5c-.5-1.3-.6-1.6-.2-1.6.1 0 .4.4.6 1 .5 1 .8 1 1-.1.2-.6 0-1-1-1.7-.5-.6-1.3-1-1.6-1-.4 0-.6.1-.7 1.2-.1 1.5.2 2.4 1.2 3.3 1 .8 1.3.9 1.3.4zm-29.7-.5c0-.1 0-.2-.2-.2s-.3.2-.3.4.1.3.3.2l.2-.4zm35.2-1.4c0-.2.3-.7.6-1l.6-.5-.9.1c-.5.1-1 .3-1.2.5-.3.3-.5 1.6-.4 2.4 0 .5 1.3-1 1.3-1.5zm2.6 1.3c.2-.5-.1-1.7-.4-1.7-.3 0-.6 1.6-.4 1.9.2.3.6.2.8-.2zm-12-1.8c-.6-1.4-.5-1.3-.9-1.1-.1 0 0 .6.5 1.5.8 1.6 1.1 1.2.4-.4zm14.7.5c.3-.7 1-1.4 1.3-1.7 1-.7 1.6-2 1.1-2.6-.5-.5-.7-.5-2.3.9-1 .8-1.4 1.4-1.4 1.8 0 .4-.2.7-.4.7-.6 0-.5 1.3.1 1.5.3 0 .6.2.6.3 0 .6.5.2 1-1zm-.5-1.4c0-.2.3-.6.7-1l.6-1 .4-.2c.6 0 .5.4-.2 1-.4.4-.7.8-.7 1 0 .2-.2.4-.4.4l-.4-.2zm5.7 2.4c.5-.2.5-1.6 0-1.9l-.6-1c-.2-.3-.5-.6-.7-.6-1 0-2 2.4-1.2 3.3.3.4 1.7.5 2.5.2zm-30.8-.5c0-.1-.1-.3-.3-.3-.1 0-.3 0-.3.3s.2.4.3.4c.2-.1.3-.3.3-.4zm36.2-.5c-.1-.1-.3 0-.4.3-.1.4 0 .4.2.1.2-.1.2-.3.2-.4zm-41.9 0 .6-1c.5-1 0-1.1-2.1-.8l-2.7.3c-.7 0-.7 0-.5.6.2.3.6.6 1 .7.6.3 3.3.4 3.7.1zm22.6-.4c0-.3-.1-.5-.3-.5h-.2l-.2.6c-.1.3 0 .4.3.4.2 0 .4-.2.4-.5zm-15.3 0c.4-.3-.7-1.6-1.6-1.8-1.4-.4-1.4-.4-1.3.3 0 .3.3.6.6.7.3 0 .8.3 1.2.5.6.6.9.6 1.1.4zm1.6-.4c-.4-.3-.7 0-.5.4.1.1.3.2.5 0 .2 0 .2-.2 0-.4zm2.3.3c.3-.4.1-.7-.4-.7-.2 0-.4.2-.4.5 0 .6.4.7.8.2zm-8-1.8c0-.3 0-.8-.2-1-.3-.6-2-1.3-2.3-1-.3.3.7 1 1.3 1 .6 0 .8.4.3.8-.3.2-.3.4 0 .5.6.4 1 .3 1-.3zm23.8-.6c.1-.5 0-.7-.4-.7-1 0-1.6.3-1.6 1 0 .6 0 .6 1 .5.8 0 1-.1 1-.8zm4-1 1.7-1.8c0-.2-.3-.3-.7-.3-.3 0-.8-.2-1-.5-.6-.7-1.7-.7-1.9 0-.6 3.3-.7 4.6-.1 4.4l2-1.7zm-32.5 1.2v-.3c-.3-.2-1.6.2-1.4.5.1.2 1 0 1.4-.2zm14 .2c.4-.2.4-.3 0-.4a74 74 0 0 0-7-1c-.7 0-.7 0-.2.4 1.5.9 6.4 1.5 7.2 1zm-19.4-.5c.4-.2.4-.3.2-.4-.5-.3-3.2 0-3.2.4 0 .2 2.2.3 3 0zM96 6.7c1.6 0 1.7 0 1.8-.7.1-.6 0-.7-.4-.5C94 6.3 93 6.6 93 6.9c0 .2 0 .2.6 0a9 9 0 0 1 2.4-.2zm7.1-.4c.5-.2.5-.2-.2-.6-2.6-1.4-3.2-2.2-1.9-2.2.5 0 .7-.1.6-.3 0-.3-1.5-.4-1.7 0-.1 0 0 .7.3 1.5.3 1 .6 1.6 1 1.6.3.1.5.4.5.6 0 .3 0 .3.4 0a4 4 0 0 1 1-.6zm40-.3-.3-.8-.2.7c-.2.9 0 1.5.4 1 .2 0 .2-.4 0-1zm4.3.8c.8-.2.8-.2.4-.8-.2-.4-.7-.6-1-.6-.6 0-.7 0-.7.7 0 .9 0 1 1.3.7zm-21.1-.4c0-.1-.2-.3-.4-.3s-.4.2-.4.3c0 .2.2.3.4.3s.4-.1.4-.3zm2.7-.2v-.6c-.2-.3-.4-.3-1 0-1 .4-.9 1.2 0 1l1-.4zM99.8 6c0-.3-.2-1-.5-1.4l-.4-.9-.4.8c-.3.8-.3 1 .1 1.4.6.6 1.2.7 1.2 0zm5.9.1c0-.1-.2-.2-.5-.2-.2 0-.3.1-.2.2 0 .2.3.3.4.3.1 0 .3-.1.3-.3zm5.7-.3c0-.2-.2-.1-.2.2 0 .3 0 .4.2.3v-.5zm22.8-.2c0-.1-.1-.2-.4-.2-.4 0-.5.3-.2.6.2.2.6 0 .6-.4zm-26.2 0c0-.4-.9-2.2-1.2-2.4-.4-.4-1.3-.2-1.7.2-.3.3-.2.4.7.4 1 0 1.1.1.5.6-.4.3-.3.4.1.9.6.6 1.6.8 1.6.3zm14.4-.1.2-1c0-.6-.2-.7-.7-.7-.8 0-1 .6-.7 1.4.4.8 1 .9 1.2.3zm19.8-.3c.3-1 .1-1.2-1-1.2-.8 0-.8 0-.5.6.8 1.5 1 1.7 1.5.6zm2.6-.2c0-.9 0-1-.6-1-.8 0-.9.3-.3 1.2.6 1 1 .8 1-.2zm-35.3 0c-.2-.3-.6-.8-.7-1.2-.3-.5-.8-.8-.8-.4 0 .2.6 1.3 1 1.8.6.6 1 .5.5-.2zm23.3-.6c-.2-.7-.7-.8-1.2-.3-.4.5-.3.9.3 1.2.8.3 1.1 0 .9-.9zm-28.1.8c.3-.3 0-.6-.5-.5-.2.1-.3.3-.2.4.1.3.4.3.7 0zm19.2-.7c0-.1-.1-.2-.3-.2l-.2.6c0 .5 0 .5.2.2l.3-.6zm-6.2-.1c0-.2-.2-.4-.3-.3v.6c.1.2.3.4.4.3v-.6zm17.9 0c0-.4-.2-.7-.6-.8-1-.3-1.5.7-.6 1.2.8.4 1.2.3 1.2-.4zM113 3.6c-.2-.3-.4-.3-.6-.1-.1.2 0 .4.3.8.4.5.5.5.6.1 0-.2 0-.6-.3-.8zm13.8 1c-.2-.6-.8-.7-.8-.2 0 .2.2.4.4.4.3 0 .4-.1.4-.3zM111.4 4c-.2-.2-.5-.4-.6-.3-.3.3.1.8.6.8.4 0 .4 0 0-.5zm19 .2L130 4c-.2 0-.3.2-.3.3 0 .1.2.3.4.3.3 0 .4-.2.3-.3zm-32.6-.4c.4-1.1-1.2-1.6-2-.6-.5.4-.5.5-.2.7.7.5 2 .3 2.2-.1zm18.3-.2-.7-.2c-.6 0-.6 0 0 .4.5.4 1 .3.7-.2zm-12 0c0-.4-.6-.7-1.1-.7-.4 0-.3.7 0 .9.7.2 1 .1 1-.2zm5 117.6a29 29 0 0 1 6.5-1.3 94 94 0 0 0-3.1.8c-3.3.8-3.4.8-3.4.5zm15.6 0c0-.3 1.6-.7 1.8-.5.2.3 0 .4-1 .6-.5.1-.8 0-.8 0zm-97.5-1.1c-.2-.4.2-.5 1.7-.7h1.3c0 .4-2.8 1-3 .7zm-20.2-1c-2.2-.3-1-.7 1.9-.7 2.6 0 3.5.1 2.4.5-1 .2-3.2.3-4.3.2zm25.2-.1c.1-.5 2.5-1 7.1-1.3 2.2-.1 5.6-.5 7.4-.7 3.1-.4 3.5-.4 3.7 0 .3.4 1 .4 6 .2 7-.4 8.7-.4 9.1 0 .5.4.2.5-1.4.2-1-.2-2.5-.2-4.9 0-1.9.2-6.2.4-9.6.4-5.8.1-11.7.7-13.7 1.2-1.2.4-3.9.4-3.7 0zm95.3-.7a114.3 114.3 0 0 0 6.3-.7c.7-.2 1.2-.1 1.2 0 0 .3-1.5.5-5.7.8-1.4 0-2.1 0-1.8-.1zm-59.3-.6c-.3-.4.3-.5 4.7-.5 4.7.1 5.5 0 5.5-1.2 0-1.1.4-1.3 3.1-1.6l6.4-1a72.8 72.8 0 0 1 9.7-1.3c1.4-.3 1.7-.3 1.7.2 0 .2-.5.6-1 .9-1.3.6-1.6.7-1.6.2 0-.6-6.2 0-12.3 1.3l-3.5.5c-1.4.2-1.6.3-1.8 1-.3 1.4-1 1.6-6.2 1.7-2.9 0-4.5 0-4.7-.2zm67.8-.2a9 9 0 0 1 3.2-1c.3.3-.3.6-1.2.8a51.1 51.1 0 0 0-2 .2zm-123.5-.3c0-.4 1-.5 4.7-.7h3.3c0 .3-1.2.5-5.7.8h-2.3zm92.4-1c0-.3 1.8-.7 2-.5v.4c-.3.3-2 .4-2 0zm32.4-.8 1.4-.8c.7-.2 2.2-1 3.3-1.6l2.2-1c.1 0 0 .3 0 .4a43 43 0 0 1-6.7 3.2c-.3 0-.4-.1-.2-.2zm-116.2-4c-.2-.4-.3-.3 3.3-1.3 3.9-1.1 4.9-1.3 4.7-.8 0 .1-1 .5-2 .7l-3.8 1c-2.1.7-2 .7-2.2.4zm51.7-3.3c.4-.3 2.7-.6 2.7-.2 0 .3-.7.5-2 .5-.7 0-1 0-.7-.3zm26.8 0c0-.2-.4-.2-1.2 0-1.7.1-1.5-.5.2-.8 1-.2 1.3-.2 1.7.1.2.3.3.6.2.8-.2.3-1 .3-1 0zM73 106c-.2-.4 0-.4 3.3-1.2 3.4-.8 4-1 3.9-1.7-.1-.7 1.5-1 4.8-1 1.7 0 3.7-.2 4.5-.3 1.2-.2 1.3-.1 1.3.2 0 .3-.8.5-3.8.7-3.6.3-3.8.3-6 1.4-3 1.5-7.6 2.6-8 2zm-64.9-.3c-.2-.4.1-.6 1-.5l4.9-.6 5.5-.9c2.9-.3 1.4.2-2.5.9-8.1 1.3-8.7 1.4-8.9 1.1zm82-1.3c0-.2 4.8-.5 5.3-.3v.3c-.1.3-5.4.3-5.4 0zm2-9.7c0-.3.2-.4.9-.2l1 .1c.2 0 .3.1.3.3l-1 .2c-.9 0-1.1 0-1.1-.4zm53-2.2c0-.5 1.3-1 1.8-.6.8.5.6.8-.6.8-.7 0-1.2 0-1.2-.2zM125.3 56c-.2-.4.7-1 1.4-1 .9 0 .8.6 0 1-.9.4-1.1.4-1.4 0zm3.3-.4a.9.9 0 0 1-.2-.5c0-.4.7-.5 1-.1.1.3-.6.9-.8.6z"/>
</svg>
