<?xml version="1.0" encoding="utf-8"?>
<svg xmlns="http://www.w3.org/2000/svg" xmlns:svg="http://www.w3.org/2000/svg" version="1.1" viewBox="0 0 187 137">
  <title>Mr. Tod walks from his kitchen to the next room, clutching his paws in anger.</title>
  <path d="m183.4 135.8 2 .5c.6 0 1-.7.5-1.4l-.3-1a36.9 36.9 0 0 1-.7-9c0-4.3-.2-9.9-.3-12.4-.2-2.6-.2-5.8-.2-7.2.2-4 .2-9 0-23.7a1798.5 1798.5 0 0 1 .5-78.9c-.3-1.3-2-1.8-6.8-2a18704.4 18704.4 0 0 1-10.6-.3c-6.9-.1-26.4-.2-33.8 0-3.7.1-8.4 0-11-.1-5.6-.4-23-.4-34.1 0a45 45 0 0 1-8.6 0A1643 1643 0 0 0 18 .8 82 82 0 0 1 5.3.8C3.6.3 2.3.6 2 1.3c-.4.8-.5 2.2-.7 15.6A5949.7 5949.7 0 0 1 1 55.6a155130.7 155130.7 0 0 0 .2 52c.1 4.1 0 6-.2 7.5-.1 1.1-.4 5-.5 8.5a96 96 0 0 1-.4 7.1c0 .5 0 1.2.5 2.2.4.8.6 1.5.5 1.5l.2.4c.2.3.5.4.8.3a886 886 0 0 1 70.1.5l14.8.3a1330.8 1330.8 0 0 1 36.6-.2c1.7-.5 29-.7 30.2-.2.5.1 5.8.2 14.5.1 11.5-.1 14 0 15.2.2zm-85.9-2.6c-1.5.3-5.2.4-6 .2-.4-.1-5.5-.2-11.3 0-12.7 0-21.5-.3-21.9-1-.2-.3-1.6-.3-15-.2a876 876 0 0 1-33.9 0c-4.2 0-5-.1-5.6-.5l-.8-.5.2-9 .4-23.6A3887.2 3887.2 0 0 0 4 21.7l.2-13.3c0-3 .1-4.2.4-4.3 2-.6 6-1 10-1a444.9 444.9 0 0 1 35.6-.7h23.1c1.9 0 2.3 0 2.6.4.6.7.8 13.4.4 19-.2 2.4-.5 7.4-.6 11.2l-.3 7-1 1.5c-.4.8-.9 1.8-.9 2.2 0 .9-.7 2.7-1 2.8-.2 0-.3.3-.3.5 0 .6-1.9 4-2.7 5-2.7 2.9-3.3 4.2-2.6 6.3.6 2.3 1.9 3.8 3.8 4.7 1 .4 1.2.6 1.5 1.8.3 1.4.6 6.7.6 11.4 0 2.3-.1 3.5-.5 4.5-1.4 3.8-.2 13 1.7 13l1.5.5c1.2.5 1.2.6 1.2 1.6 0 .7-.1 1.1-.4 1.2a9 9 0 0 1-2.5-.4c-1.3-.3-3.6-.7-5.4-.8a162.8 162.8 0 0 1-14.7-1.5c-.4 0-1.9 0-3.3-.3l-6.2-.5c-4.2 0-9.9-.5-12.9-1-2-.2-2-.3-.9-.4.8 0 1.2-.3 1.2-.5 0-.3-.4-.4-1.8-.5-1.3 0-1.8-.2-2-.5l-.4-4.3a967 967 0 0 0-3-48c0-.8.7-1 1.6-.7.6.2.6.3.8 4.5A274.2 274.2 0 0 0 28 60.7 431.6 431.6 0 0 1 29.3 82c.1 0 .2-.2.2-.6 0-.4.1-.7.3-.8.3-.2 5.8.6 6.8 1 1.4.7 5.8 1.2 16.6 1.8 2.6.1 5.5.3 6.4.5 5.5.9 5.6.9 6.2.5.3-.1.5-.4.3-.5l-.4-.9c-.1-.4-.4-.8-.7-1-.7-.3-6.4-.6-6.4-.3 0 .4 1 .6 3 .6l2.3.2c.7.2 1.1 1.1.5 1.1-1.7 0-9-.8-9.4-1-.6-.3-3-.6-9.7-1.3l-12.8-1.5-2.9-.5-.2-4.6-.3-6.5c0-2.7-.6-9-1-11.2l-.4-7-.5-8.3c-.2-1.8-.2-3.4 0-3.6 0-.3.6-.5 1.1-.6 1 0 1.2.2 1.2 2.3l.4 5.9.7 7.4a189 189 0 0 0 1.2 11l.3-.1c.1-.2 0-1.2-.9-11.2a381 381 0 0 1-1-13l-.2-3h.9c1.4 0 2 .3 2.2.9l.5 4.5a106 106 0 0 0 1.5 12.2c.5.5.3-1.6-.7-10.3L34 39l-.2-1.7h1.6l3.5.3 1.8.3v6.2c0 4 .1 6.2.3 6 .2 0 .3-2.3.3-5.8 0-3.7 0-6 .3-6.2.2-.3.3-.3.4 0 0 .2.4.7.8 1l.7.7v13.1a100.1 100.1 0 0 1-.7 19c.2 0 .4-.5.5-1.3.8-3.7 1-8.2 1-19.3V39.7h1l1.1.1v10.7c0 5.8.1 10.5.2 10.4a159.2 159.2 0 0 0 .7-19.4v-1.8h1l1 .1v2.4c0 2.9.4 3 .5 0v-2l3.4-.1h4l.5.2-.1 3-.4 5.5c-.6 6.6-.7 7-.4 7 .3 0 .8-3.7 1.2-9.5.4-6 .4-6 1.1-6 .9 0 .9.5 0 5.7-.1 1-.1 1.2.2 1 .2 0 .4-1 .7-3l.5-3.5c.1-.4 3.9-.2 8.4.3 1.7.2 2.4.2 2.6 0 .6-.6-.3-1-2.8-1-2 0-2.5-.2-2.8-.6-.3-.4-.8-.5-1.7-.6-1.2 0-1.4-.2-1.4-.6 0-.5.2-.5 1.2-.5s1.2-.1 1.3-.5c.1-.5-.2-.7-1.5-.8h-.9v-5.8l.4-13.3c.2-4.9.2-7.7 0-7.8a160 160 0 0 0-.9 19.8c0 7 0 7.8-1.2 7.2-.5-.3-.5-.5-.6-5 0-7-.3-15.7-.6-15.7V26l.1 10.3h-1.6V22.9c0-4.5 0-6.5-.3-6.5-.2 0-.3 1-.3 2.8 0 8.2-.2 18.5-.5 18.7-.1.2-.8.2-1.7.1l-1.5-.2v-13c0-9.5 0-13-.2-13-.2-.2-.3 3.2-.3 12.8 0 10.2 0 13-.3 13.1h-1.8l-1.5-.2v-9.8a230.2 230.2 0 0 1 .1-12.8c-.5.2-.7 4.2-.7 14.3 0 8.7 0 8.5-1.4 8.2-.5 0-.8-.3-1-.8V24.8c.2-6.2.1-11.3 0-11.3-.3 0-.5 8.6-.5 17.1 0 6.5 0 6.7-.6 6.7-.2 0-.8-.1-1.1-.3l-.7-.3-.2-6v-12c0-4 0-6.2-.2-6.2s-.3 4.1-.4 11.8l-.1 12.2c-.1.2-1.4.2-1.7 0a334.2 334.2 0 0 1 .2-26.4c-.3 0-.8 8.4-1 17.6l-.1 8.8-3.2-.1c-2.2-.1-3.4-.3-3.6-.6-.4-.3-.4-1.8-.4-10 0-6.6-.1-9.5-.3-9.4-.2.2-.3 3.7-.3 10V36h-3.1l.2-6.3-.1-6.4c-.2 0-.3.2-.3.3v1l-.2 6V36l-1-.1-1.2-.3-.2-3c0-1.5-.2-2.7-.3-2.7-.2 0-.3 1-.2 2.2 0 3.9 0 3.6-1 3.5l-1.2-.4-.3-5.6c-.1-5.3-.3-6.3-.8-6.3a117.2 117.2 0 0 1 .2 7.2l.2 4.7h-.9c-.5 0-1.7 0-2.6-.2l-1.8-.1-.2-1.5-.1-11.7c0-5.7-.2-10.3-.3-10.3-.3 0-.5 10.8-.4 17.4l.2 6.2h-1.1c-2.1-.2-3 0-2.8.3 0 .2.4.3 1 .2 1.5-.1 2.9.2 2.9.6 0 .2-.2.4-.4.5-.2 0-.2.3.1.6.4.4.5 1.3.6 3.6a249.1 249.1 0 0 0 1 12.5A401.2 401.2 0 0 0 20 69.6l.7 8 .1 1-1.8-.1-3.2-.4-1.5-.2-.2-2.9a661 661 0 0 1-1.3-45c.1-7.4 0-12.7-.4-12.4a997.3 997.3 0 0 0 1 59c.1.9 0 1-.4 1-.8 0-.8.6 0 1 .6.2.7.4.7 2.3 0 1.5 0 2 .3 1.9.2-.1.3-.8.3-2 0-1 0-2 .2-2h1.8l3 .5 1.4.2.1 2 .4 5.5.2 3.6-1.2-.1c-.9-.1-1.1 0-1.1.3s.3.4 1 .5c1 0 1.2.1 1.3.9.1.9 0 3.9-.2 4.9-.1.4-.4.6-1.3.8l-2.7.8-4.2 1.4c-3.4 1-5.4 1.8-5.4 2 0 .4.6.4 1.3 0l11-3.4c1.7-.4 2-1 2-4.2 0-2 .1-2.8.4-2.9.2 0 .5.1.7.4.3.3 1 .6 2.2.8l1.8.3v1c.3 3.3.5 4.3.8 4.3.4 0 .4-.3.3-2.6l-.2-2.7 1.4.1 3.3.5a181.5 181.5 0 0 1 23.7 2.5c0 .2.2.4.4.5a51.2 51.2 0 0 0 13.2.4c.6 0 1 0 1.1.2 0 .2.4.3.7.2.3 0 1.1 0 1.8.3a8 8 0 0 0 2.1.4c1.2 0 1.4.3 1.7 2.6.1 1.3 0 1.6-.2 1.6-.5 0-1-.4-1-.7.3-.3-.5-.5-4.2-.9-3.8-.3-16.2-1.1-16.3-1l-.2.8c-.2.7-.1.7 1 1 .7.2 2.3.3 3.4.3a156.8 156.8 0 0 1 17 1.1c1 0 1.5.2 1.8.5l.4.6a417.8 417.8 0 0 0-24-2c-.4 0-.6.2-.6.3 0 .1.9.3 2 .4 4.5.4 4.9.5 4.9.8 0 .6.8.8 3 1 1 .2 2.3.3 2.8.5l1 .2h-1.3l-3.4-.4c-2.1-.4-2.7-.3-2.2.2.4.4 4.9 1 7.3 1 2.3 0 3-.3 1.1-.6h1l3.2.3 1.4.3h-1.4c-.8 0-1.4.1-1.4.2 0 .2 1.7.4 3.8.5 4.5.2 5.2.4 5.8 1.7 1 2.1 1.3 6.6.6 8.9-.2.7-.4 1.9-.4 2.6 0 1.7-1 4.8-1.6 5.2-.4.2-.5.2-.5-.1l-.4-.7c-.3-.2-.4-.6-.4-.8 0-.3-.2-.5-.4-.5s-.6-.3-.9-.6c-.8-.8-6.6-1.5-6.3-.7 0 .2.2.4.4.4 2 .2 2.3.4 2.3.8 0 .3.2.5.8.6.6.1.7.3.7.7 0 .3 0 .6.3.7.2 0 .4.3.4.5l.6 1.4c.4.9.4 1.3.2 1.8-.3 1-.3 2 0 2 .2 0 .7.4 1.1.9l.8.8 1.4-.7 1.7-.7 1.4-.1c1.2-.2 1.6-.5 1-.8-.5-.1.2-1 .7-1 1 0 2-5 2-11.2 0-4.4 0-5 .8-5.3.2 0 1.9 0 3.6.3 3.8.5 3.8.5 3.8 0s-.5-.6-3.5-1a73 73 0 0 1-3.4-.4l-.9-.2.2-1.7c0-1 .3-1.9.7-2.3.3-.4.6-1 .7-1.5 0-.4.4-1 .8-1.3.4-.3 1-.9 1.2-1.3l1-1.3c.3-.2.7-.9 1-1.4l.5-1 .8 1.3 1.5 2a13 13 0 0 1 2.2 5.4 89 89 0 0 0 2.3 8.9c.5 1.3.7 2.1.5 2.3-.2.2-.4 0-.6-.2a2 2 0 0 0-1-.7c-.7-.2-.7-.3-.6-1 0-1.1 0-1.2-3-1.5-1.3-.1-2.1-.3-2.5-.7l-.7-.5 1 .1c1 .2 1.8-.1 1.3-.6a11 11 0 0 0-3.4-.4c-3-.2-3-.2-2.9.4.1.4 0 .6-.2.6-.5 0-.6.7-.1.8h.6l1.4.2c.8 0 1.1.1 1.1.4 0 .3.3.4.7.4.9 0 1.3.2 1.5.9.2.4.4.6 2.6 1.4 1 .3 1.4.6 1.8 1.4.4.8.7 1 1.2 1s1 .4 1.4.8c.4.5 1 .9 1.5 1 .3 0 .8.3 1 .5.1.2.7.4 1.2.4s1 .2 1 .4c.2.5 2.5.5 3.2 0l1-.4c.8 0 .8 0 .2-1.9-.8-2.3-1.3-3-2.4-3.6-1.4-.7-1.9-1.6-2.2-3.7 0-1-.4-3-.7-4.7-.3-1.6-.6-4-.6-5.3 0-2.2.1-2.5 1-4.2 1-1.9 1.2-2.2 2-2.2.3 0 .4.4.4 3v2.9h1c1 .2 1.2.1 1.5-.6l.4-2.7v-2.2l1-.2c1 0 1 0 .3.2-.5.1-.8.4-.8.6 0 .5 2.1 1 5 1.2 3.1.2 3.5.3 3.6.9.1.4.8.6 3.3 1a156.1 156.1 0 0 0 8.5 1.4c1.3.4 5 1 6.8 1.2 1 .1 2.2.4 2.7.7.4.2 1.6.5 2.5.6 1.1.1 2 .4 2.7.8.5.4 1.6.7 2.5.8l3.1.7 2 .5 1.2.7c1 .6 1.4.7 2.2.6.5 0 1 .5 1.2 1.3.4 1.4.8 1.6 3.4 1.6 2.1 0 2.5.1 3 .6.7.6 1.7.5 1.7-.3s-1.2-1.6-2.5-1.6-3.5-.5-3.7-.8l-.3-6.1c0-3.3-.3-8-.5-10.4l-.4-8.2a407.5 407.5 0 0 1-.5-36l1-10c0-2.3 0-2.6-.3-2.6s-.5.2-.5.4c0 5-.4 8.6-.9 8.6s-1 7.3-1.1 20.2a54.8 54.8 0 0 0 .6 14.5l-.1 3.7c0 2.2-.1 2.3-.4 1-.1-.4-.3-.7-.5-.6-.2.2 0 4.1.4 5.1.1.4.3.6.6.5.4-.2.6 1 .7 4.8 0 2 0 2.8-.3 2.9-.4.1-.4 2 .1 6.3.2 1.9.3 3.5.2 3.6-.4.4-1.6-.3-1.8-1 0-.5-.3-1-.5-1.2a54 54 0 0 1-.7-12.2c-.2-10.5-.2-11.9.1-12.4.4-.6.4-.8 0-1.8a32 32 0 0 1-.3-8.4c0-4 0-11.2-.2-16.1l-.2-29a322.2 322.2 0 0 0-.7-22.5V3h1.6c1 0 1.6.1 1.6.4v4.3c0 3.3 0 4 .4 4.4.2.3.4.8.4 1.4 0 .6-.1.8-.2.5a2 2 0 0 0-.4-.8 547.7 547.7 0 0 1 .3 14.8l.4 9.6c.3.4.5-.2.4-1.8-.1-3 0-5.6.3-6.1.2-.4.3-2.9.2-7l.1-6.6a90.2 90.2 0 0 0 .5 6.5l.6 10 .4 6.6-.1-7.1c0-4-.3-8.9-.4-11l-.5-10.5c-.2-8-.4-7.5 3-7.6 2 0 2 0 2.4.8.6 1.2.6 2.2 1 12a412.3 412.3 0 0 0 1 22.2c0 2 0 2.2-.4 2.3-.4 0-.5.3-.3 2.3 0 1.1.3 3 .4 4.2a67.4 67.4 0 0 1 .6 6.5v-5.7c-.1-3.5 0-3.7.3-3.3.4.4.5 1 .4 5.5 0 4.4-.4 9.7-.5 7.6 0-.6 0-.7-.2-.4-.4.5-.4 4.7 0 13.8.5 16.3.5 17.4.2 17.5-.3.3-.3 2.5 0 4.3.5 2.8 1 11.1 1 16.4 0 4.1 0 5.5.3 5.7.2.2.4.8.5 1.4 0 .5.3 1 .4.9.2 0 .3-1.8.3-5.8l-.2-17.8c-.1-13.5 0-12.8-.4-12.8-.2 0-.2.8-.1 1.9v4l-.3 2.1-.2-1.6c-.3-2-.6-17.1-.6-24.3 0-3 .3-7.6.5-10 .7-7.5.8-9.6.6-16V23.3a594 594 0 0 0 .4-19.6c.2-.2.7 2 .7 3a6767.8 6767.8 0 0 0 .7 54.7c0 3.6 0 8.1-.2 10.5-.3 4.1-.3 4.1.3 5 .7.8 1.3 1 1.5.4.2-.7.3-6.2.3-17.3 0-6.3.2-11.5.3-11.5.3 0 .5 3.8.7 13.2.2 6.2.3 8.2.5 7.8.4-.6.3-12 0-17.6-.2-2.3-.3-7.8-.2-12.7V26.6c-.1-9.6 0-18 .4-17.1a240.3 240.3 0 0 1 .8 25.2c-.4 1.7.6 32.9 1.1 32.6.2-.1.1-7-.3-19.1-.3-6.3 0-16.1.4-16.9.2-.4.3-3.8.3-12.2 0-11.1.1-12.7.8-12.7.3 0 .8 5.6.7 8.2-.3 6.7-.7 34.7-.6 34.8h.3a397 397 0 0 0 1-20.8c.3 2 .3 7 0 30.4a4798.4 4798.4 0 0 0-.1 29.5c-.2 20 .1 38.2.6 38.7.2.2.5.2.7.1.3-.1.2-2.4-.4-14.8a539 539 0 0 1-.5-11.8c-.2-6.5-.1-6.6.4-7.1l.6-.5v2c0 2.4.4 20.3.7 24 0 2 0 2.9-.2 3-.7.5.2 3.3 1.1 3.3.4 0 .5.3.5 1.8 0 2.3-.4 4.9-.8 5.1l-3.8.4c-5.3.2-27.8.2-32.3 0-3.7-.2-12.8 0-26.4.6h-5a219 219 0 0 0-16.4 0zm-2.4-.5c.3.3 1.4.1 1.4-.2 0-.4-1.6-.8-6-1.3-2.1-.2-2.8-.2-3 0-.3.2-.3.4-.2.5l4 .5 3.8.5zm80.9-1.6c.2.6.9.5 1-.2v-11.4c-.3-16.6-.2-30 .2-30.4.4-.5.6-9.2.5-17.9 0-6.6-.2-8.7-.6-8.7a118.8 118.8 0 0 1-.5 21.8c-.5 6-.7 16.7-.4 28.3a166.3 166.3 0 0 1-.2 18.5zm-34.9-1.5c-.1-.4-2.4-1-7.6-2.2a60.3 60.3 0 0 1-15.4-4 5 5 0 0 1-1.8-.6c-.7-.4-1-.4-1.2-.3-.3.6.8 1.4 3 2 4.4 1.3 5 1.5 8.7 2.2a194 194 0 0 1 11 2.5c2.9.8 3.5.8 3.3.4zm32.7-3.1s.2-.1.2-.3c0-.2.3-.5.6-.8.6-.4.6-.6.5-4.9 0-2.5-.2-7.7-.5-11.6a163 163 0 0 1 0-20.8c.3-3.5.3-3.8 0-10 0-3-.3-5-.4-4.7-.1.2-.2 2.6-.2 5.3 0 7.8-.2 12.6-.4 12.8l-.1-1.3c0-.9-.1-1.5-.3-1.5a56 56 0 0 0-.5 9.9c0 5-.4 12.3-.6 12.1-.7-.4-.3 5.6.5 6.9.5.7.6 1.6.7 4.9.1 2.2.3 4 .5 4zm.3-11c.2 4 .1 5.4 0 5.4-.4 0-.4.2-.4-5 0-2.8 0-4.1-.3-4.4-.3-.4-.3-1.7-.2-10.4v-4.9l.4 6.9.5 12.3zm-27.7 10.7c.4 0 .5-.7.1-.9a181.7 181.7 0 0 0-22.2-3.1c0 .3 1 .5 6 1.3a205.3 205.3 0 0 1 16.1 2.7zm-91-2.2c.3.3.7.2 2.3-.6l2.8-1.6c.5-.4 2-1.1 3.3-1.8l2.4-1.1 2.6.2 5.8.7c3 .4 3.8.4 3.2-.1-.1-.2-2-.5-4-.7-2.2-.3-4-.6-4.2-.8-.2-.1.3-.2 1.3 0 4.4.4 5.7.4 5.7.2s-.8-.4-1.7-.5l-3.4-.3c-1 0-1.8-.3-1.8-.4 0-.5 2-.8 4-.6 2.5.2 3-.3.6-.6-1.4-.1-1.4-.2-1-.5.5-.4 1.6-.4 4.1 0 .8 0 .5-.5-.4-.8l-1-.2 1.1-1c1-1 1.9-1.4 2.8-1.4.7 0 .8-.6.2-.8-.4-.1-.5-.3-.4-.8.1-.6 0-.6-1.3-.5-1 .1-1.3 0-1-.1.3-.2.3-.4.1-.6-.1 0-2.8-.4-5.9-.6-7.3-.6-8.4-.8-5.2-1 1.5-.2 4.1-.1 7 .1 5.5.5 5.6.5 5.6.2a10027.5 10027.5 0 0 1-16.2-1.8c-1.3 0-2 0-2.2.2-.4.3-2.8.2-9.4-.4-1 0-1.3 0-1.3.2 0 .3 1.3.4 4.7.7l4.9.5c.1 0 .2.2.2.5 0 .2.4.3 1.4.4 1.3 0 4 .4 3 .4-.6 0-.6.5.1.7l4.7.4a44 44 0 0 1 7 .8c1.4 0 1.6.4.6.8-.5.2-2 .1-5.4-.2-6.6-.8-10.5-1.3-12.2-1.7-.8-.1-2.2-.3-3.1-.2l-4.1-.4c-1.6-.3-2.5-.3-2.7-.1-.1.1-.2.2-.1.3a236.8 236.8 0 0 0 5.3 1l-1 .2c-.2.4.5.5 3 .7 4 .3 8.4 1 9.8 1.5.8.2 2.6.5 4 .6 1.6.2 2.3.3 2.2.5-.2.2-1.3.1-3.2-.2-3.3-.5-4.3-.5-4.3-.2s3.1.9 4.4.9c.4 0 1 0 1.1.2.3.2.2.3-.4.7-.8.4-1.2.4-3.7.1-3.9-.4-4-.4-3.8-1 0-.2 0-.5-.3-.6-.2-.1.2-.2 1 0 .8 0 1.2 0 1.2-.2 0-.4-.2-.5-4.4-1-2.1-.2-4.4-.6-5-.8a701.8 701.8 0 0 1-9.5-1.1c-1.5-.2-2.1-.1-2.3.1-.4.5-.2.6 5 1 3 .1 4.9.3 5.2.6.3.1 1.5.4 2.8.5 2.7.2 6.1.9 4.8.9-1 0-1.1.4-.3.6.3.1.5.3.4.6-.2.4 0 .5 4 1l2.7.3-.6.5c-.6.4-1 .5-3.6.2-2.9-.3-4.5-.2-3.3.3l1.7.2c.7 0 1.5.2 1.9.3.5.2.4.2-.7.2-1.2 0-1.3.1-.7.4.6.3.6.4.2.7-.3.2-.6.7-.7 1-.1.3-.8.8-1.5 1.2a142.3 142.3 0 0 0-4.6 2c-.4.5-.5.7-.2 1zm13.3-7.2c-.4.3-.8.3-.8.2 0-.2 1.3-.9 1.5-.7 0 0-.2.3-.7.5zm3-1.7c-.2 0-.3-.1-.2-.2 0-.2.3-.3.5-.3s.3.1.3.3l-.6.2zm-2.8-3.2c-.3-.2 0-.2 1.5-.1 3.4.3 4.2.5 3.8.7-.7.4-4.8 0-5.3-.6zm-3.5-.6c-1.5 0-2.5-.2-2.5-.4s1.4-.1 2.6.3c.6.2.6.2-.1.1zm-6-1c.7.3.7.3-.1.3a8 8 0 0 1-1.6-.2l-.8-.2h1c.4 0 1.2 0 1.5.2zm.8-2.9c-.3-.1-.2-.2.5-.2.5 0 .8 0 .7.2-.2.4-.7.4-1.2 0zM171.6 123c.3-.1.3-1 .2-2.7a355 355 0 0 1-.9-37c.2-3.2.2-3.9-.1-3.7-.3 0-.4.7-.4 2.7l-.2 3a323.2 323.2 0 0 0 1 37.5c0 .2.3.3.4.2zm-124.9-1.2 2 .5c.7 0 .7-.5 0-.7-1.3-.5-5.9-1.7-9.5-2.4-4-.8-8.8-2.3-6.5-2a145.5 145.5 0 0 0 12.8 2.9l4 1c1.3.5 2.7.7 3 .6.6-.2 0-.7-1.6-1-3.7-1-6.6-1.8-7.2-2.1-.6-.4-4-1.4-12-3.5a64 64 0 0 1-10.4-3.2c-1.4-.7-2-.4-1 .5l.5.7h-.6c-.8.2-.9.8 0 1a149.7 149.7 0 0 1 9.3 2.4c.6 0 .8.2.9.6 0 .7 1.3 1.2 4.8 2l11.5 2.7zM35.3 117c-.3 0-.5 0-.3-.1h.7l-.4.1zm-2.3-.5c-.8 0-5-1.1-5.2-1.4-.4-.3.5-.2 2.4.4a275.8 275.8 0 0 0 2.8 1zm-9.4-2.6c-.5-.2-.5-.3.2-.1 1.2.2 3.3 1 3.3 1 0 .4-2.5-.3-3.5-.9zm51 7.4c1.9.3 4.1.3 4.1 0 0-.2-.6-.4-5.3-1a413 413 0 0 1-5.2-.3c0 .3 1.5.8 3.4 1l3 .3zM57 108.7c.3.2 1.1 0 1.1-.2 0-.3-1-.5-5.2-.8a267 267 0 0 1-7.1-.6c-4.5-.5-5-.5-4.8-.1.1.5 3.4.9 10 1.2l6 .5zm-2.8-3.3c4.4.2 5.2.2 5.3 0 .2-.3-1.2-.6-4.6-.8-2.7-.1-4 0-3.6.4.1.1 1.4.3 3 .4zM6 104.7a718 718 0 0 0 15.3-5c1.2-.5 1.6-1 .8-1l-6.7 2.1c-3.5 1.2-7 2.4-8 2.6-1.9.4-2.3.6-2 1.2.1.1.4.2.6 0zm70.7-4.5c0-.3-.2-.4-.7-.4a2 2 0 0 1-1.2-.4c-.3-.3-1.3-.5-3.3-.7-4.1-.4-15.8-1-16-.9-.2.3.6.5 2.5.7 1.2 0 3.8.4 5.8.7a109.5 109.5 0 0 0 11.8 1.3c.3.2 1.1 0 1.1-.3zm-5.7-.7c-.7-.2-.6-.2.5-.2.7 0 1.3 0 1.4.2.2.3-.7.3-1.9 0zm-59-3.7.6.3c.2 0 .4-.2.5-.3l.6-.3c.8 0 1.3-.4 1-.8-.3-.2-.6-.2-1.4 0-1.2.3-1.5.7-1.3 1.1zm58.9-1.3c0-.3-1.6-.5-6.6-1-3.5-.2-5-.2-4.5.3l5 .5c6.4.5 6.1.5 6.1.2zM67.5 93c0-.3.2-.4 1.5-.4.8 0 1.5 0 1.5-.2s-.4-.3-1-.3l-1.7-.4c-1-.4-4.4-.7-5-.4-.3.2-2.6 0-4.8-.4-.8-.1-1-.1-1 .2 0 .5.8.7 2.5.7.9 0 1.2.1 1.2.4 0 .3.5.4 1.6.6.8 0 2 .3 2.7.4 2 .3 2.7.3 2.5-.2zm-.6-.5h-.8c.3-.1.6-.1.8 0zm-4-.2c-.8 0-1.2 0-.8-.1h1.5-.7zm7.2-.7c1.2 0 .7-.7-.6-.9a71 71 0 0 0-8.4-.5c-.5.2-.1.6.4.5a45.7 45.7 0 0 1 8.6.9zm-7.8-2c2.3.4 4.3.4 4.3.2 0-.3-1.2-.5-4.3-.8-2.7-.2-2.7.3 0 .7zm-50-1c4.4.6 5 .7 5.2.3 0-.1.1-.3 0-.4-.1-.1-7.4-1.2-8.4-1.2s-1.3.3-.7.7l3.9.7zm49.2-1 3.2.8c.4 0 .4-.5-.2-.8-.3-.2-.2-.3.7-.2 3.8.5 4.5.5 4.5.3 0-.6-.4-.7-5.2-1a461 461 0 0 1-4.7-.4l-.1-.4-.2-.5-4-.4a223.8 223.8 0 0 1-11.9-1c-.4.4.6.7 4 1l7.2.9c2 .2 3.5.5 3.6.7.1.2 1.5.6 3 1zm5-1.5c0-.4-.4-.5-2-.6-2.1-.2-2.7-.1-2.7.3 0 .1.7.2 1.7.2.9 0 1.8.1 2 .3.6.4 1.1.3 1-.2zm107.2-14.8c.2 0 .3-.2.3-.4 0-.1-.1-.2-.3-.2l-.2.4c0 .2 0 .3.2.2zM11 58.8v-.6l-.1.3c0 .4 0 .5.1.3zm-.1-4.6A338 338 0 0 1 9 23.4a237.5 237.5 0 0 0-.5-10.1 369.4 369.4 0 0 0 2.1 43.5c.4 1.5.4.3.2-2.6zm-4.4-5.4c.1 1.4.2 2.5.3 2.4.2-.1 0-3.5-.2-6.6l-.2-2.4v2l.1 4.6zm-.4-9c0 .3 0 .5.1.4v-.5c0-.2 0-.2-.1.1zm-.1-3c0 1 .2 1.9.2 1.9A369.8 369.8 0 0 0 6 19.3c-.2.6-.2 15.2 0 17.6zm66.4 1.3c0-.2-.3-.4-.8-.5-.7 0-.9.2-.4.7.4.5 1.2.3 1.2-.2zm-35-13.5-.5-8c-.2-4.5-.3-5.5-.7-5.4-.2 0-.3.4-.3.8A4338.3 4338.3 0 0 1 37 30.3c.4.5.4-1.5.1-5.7zm29.2 2.7c.8-6.9 1.1-11 .9-11.2-.2-.2-.3-.1-.4 0A232 232 0 0 0 65.8 29c0 2 .4 1 .7-1.6zm14.8 100.2c.3-.6 1-1.3 1.2-1.3.4 0 .2 1.3-.2 1.5-.7.2-1.2.1-1-.2zm26.3-5.7-.7.4c-.3 0-.4-.1-.4-.4 0-.8-1-2.4-1.6-2.6-.2 0-.7-.7-1-1.5-.7-1.6-.7-2.5 0-1.3.6 1.2 2.6 3.5 3 3.5.4 0 1.2.8 1.2 1.4 0 .2-.2.4-.5.5zm74.7-.8c-.3 1.7-.6 1.1-.7-1.3-.3-4.3-.7-15.2-1-25-.2-7.7-.4-10-.7-10.8a1611.8 1611.8 0 0 1 .5-63.3c0-1.6 0-1.6.2-.6.2.6.3 8.9.4 20.4 0 10.6.3 23 .4 27.5.2 4.5.3 11.7.2 16a785.1 785.1 0 0 0 .7 37.1zm-96.7-12.2c0 .3-.2.5-.4.5-.4 0-.5-.4-.1-.7.4-.2.3-.5-.4-.9-.6-.2-.8-.2-1 0-.4.3-.4 0-.4-1.3.1-1.8 0-2-.7-2.2-.3 0-.7-.3-.8-.7l-.7-.9c-.3-.2-1-1-1.5-2-1-1.6-1.1-1.8-1.1-3.7 0-2 0-2 1.6-2 .5.1.8 0 1-.5l1.1-1.3 1-1.4c0-.5.2-1.2.5-1.6.5-1 1.1-3.7 1.1-4.8 0-.5.1-.9.3-.9l3 1.3 2.6 1.4 1-.7c.4-.4 1-.7 1.1-.7a17.1 17.1 0 0 0 8-4.2l1 2 .3.7c.2.2.4.7.5 1.2.7 3.7 1.3 6 2 7 .3.6.6 1.4.6 1.9 0 1.1-.5 2.6-1 3-.2.2-.3.5-.2.7.1.3 0 .6-.3.9-.3.2-.7.7-.8 1.1 0 .5-.2.9-.4 1a2 2 0 0 0-.5.8c-.2.5-.4.6-1.3.6l-1.2-.2c0-.2-.5-.3-1-.3l-.9-.3c-.1-.2-.5-.5-1-.7a2 2 0 0 1-.9-1c-.3-.6 0-.9.6-.4.7.5 1 0 .6-.7-.6-1.1-2-2.5-2.4-2.3-.6.2-2.3-3.8-3-6.8 0-.4-.2-.8-.4-.8-.3 0-.2 1.4.4 4.3l.4 2.2c.2 1.3-.4 3.8-1 4.1-.5.3-.5.2-.2-.3.4-1-.1-1.9-1-1.8-.4.1-.5.3-.4 1 0 .8-.2 1.4-1.2 2.8a31.2 31.2 0 0 0-2.5 4.5c0 .3 1 .1 1.4-.3.6-.5 1-.2.5.4l-.8 1.4c-.3.6-.7 1-.8 1-.2 0-.3.3-.3.6zm-.9-1.7c.8 0 1-.2 1.1-.5.1-.4 0-.5-.9-.4-.7 0-1 .2-1 .5-.2.4 0 .5.8.4zm-4.4-1c0 .3-2.7.4-3.3.1a.6.6 0 0 1-.4-.5c0-.3-.2-.3-6-.9-3.1-.3-7.8-1-8.2-1.3-.4-.2 1.2-.2 7 .4 7.8.7 11 1.4 11 2.2zm63.8-1.1c-.5 0-.7 0-.5-.1h1l-.5.1zm-2.1-.2c-.6 0-1-.1-1-.2.1-.2 2-.1 2 .1l-1 .1zm9.5-1.6c-.5-.2-.4-.2.6-.2.7 0 1.3 0 1.3.2 0 .3-1 .3-1.9 0zm-2.5-.4-.3.1c-.3 0-.4 0-.2-.1h.5zm-2.7-.1-.6-.2c0-.2.3-.2.6-.1.4 0 .7.1.7.2h-.7zm-18-.5c0 .3-2.6.2-3.8 0l-1.6-.4-1.6-.4c-.7-.2-.5-.3 1.4-.2 2.6.2 5.5.7 5.5 1zm-55.2-.6 1.5.2h-5.8c-7.5-.5-11.2-.7-11.9-1a270.2 270.2 0 0 1 16.1.8zm35.8.2c-.2 0-.3-.3-.3-.8 0-1.3.8-8.7 1-9 .1-.1.4-3.4.5-6.2 0-.9.2-1.8.3-2 .2-.1.2-.4.2-.6-.1-.2 0-.5.1-.7.2-.2.4-1 .4-1.6 0-1.3.1-2 .4-2 .4 0 .1 3.7-.3 4.3-.5.8-1 3.7-1 6.3 0 1.2-.2 3.9-.5 6a51.7 51.7 0 0 0-.8 6.3zm26.9-.6c-3.4-.5-3.5-.6-1-.6 3.4 0 6 .3 6 .7.2.4-1.9.4-5 0zm-11.2-.7c-1.7 0-4.3-.3-4.5-.6a18 18 0 0 1 5 .4c.8.2.8.2-.5.2zm26.5 0-4.1-.2c-4.8-.3-8.7-.7-9-.9a51.7 51.7 0 0 1 13 1.1zm1.4 0s-.2 0-.2-.2c0-.1.2-.3.4-.3s.3.2.3.3c-.1.1-.3.3-.5.3zm-19.8-1.4c0 .5-.7.5-2.6 0-1-.2-1.6-.3-1.7-.1a25.2 25.2 0 0 1-7.7-.2c.7 0 1.2-.2 1.2-.3 0-.2-7.3-1-9.8-1-1 0-1.8-.5-1.4-1a43.6 43.6 0 0 0 14 .6c-.2-.1-1-.2-2.6-.2a27.6 27.6 0 0 1-9.4-1.4c-1.5 0-1.7-.2-1.7-1.5 0-1.2.7-5.6 1-5.8 0-.1 2.9 1.6 4 2.4 1.1.8 1.7.7 1.5-.4-.2-1 .1-1 1.9.3 1.4 1.1 2 1.2 1.8.3-.1-.5-.1-.5.5-.2 1.6.9 2.5 1.6 2.6 2 .1.1.4.3.7.3.2 0 .6.1.8.3.3.3.4.3.6 0 .1-.3.3-.3 1 .3.4.4 1.2.7 1.6.8.4.1.8.4 1 .6 0 .2.4.4.8.4.8 0 2 .6 2 1s-4.9.2-8-.3c-2.2-.4-3.3-.2-2.1.3a72.7 72.7 0 0 0 9.5 1.4 4 4 0 0 1-1.7 0c-4.5-.3-5.2-.3-5.2 0 0 .5 1.4.7 4.5.8 2.5 0 3 .1 3 .6zm-15.1-4c6.8.2 10.5.2 10.2 0-.1-.2-2.4-.4-5-.5-2.6 0-6-.2-7.4-.3-2.2-.1-2.6 0-2.3.2.2.3 1.5.4 4.5.5zm5.3-1.3c0-.2-.7-.4-1.9-.5l-5-.4c-3-.2-4 0-3.6.4 0 0 2.3.3 4.9.4l4.8.4c.2.2.6 0 .8-.3zm13.1 5.4a4 4 0 0 1-1.3-.2c-.5-.2-.4-.2.3-.2.4 0 1 0 1.3.2.4.2.4.2-.3.2zm-20.7-.6h-.6 1.1-.5zm21.4-.6c-2.8 0-3-.1-2.4-.5.3-.2.5-.6.5-.8 0-.4 1-.3 2 .2.3.2 2 .4 3.8.4 2.4.1 3.2.2 3.3.5.2.4.4.4-7.2.2zm15 0c0 .1 0 .2-.4.2-.3 0-.3-.1-.1-.2h.5zm-44.2-.5-.3.1c-.3 0-.4 0-.2-.1h.5zm-41.8-.8-.5.1-4-.2c-1.7 0-3.5-.3-3.8-.5l-.5-.3h.5c1.4 0 8.1.7 8.3.9zm81.1.1-3.4-.1c-1.7 0-3.2-.2-3.4-.3 0-.2.4-.4 1-.6.7-.2 1.4-.6 1.6-.9.4-.5.5-.5 5.2-.2 3 .2 5 .4 5.1.6.3.3-2.5.2-6.8-.3-1.6-.2-2.4-.2-2.6 0-.2.2 0 .3.5.4l1.3.6c.3.2.8.3 1.1.3.3 0 .6.2.6.3 0 .1 0 .2-.2.2zm-40-.6a14 14 0 0 1 .4-6c.4-.3 1.1-.2 1.3.2.2.5-.4 4.9-.7 5.5-.2.4-.4.5-1 .3zm30.7-1.2c0 .2-.1.3-.2.3-.4 0-1.8-1-2.3-1.6-.7-.8-1.3-.7-1.2.1.2.8.2.8-1 .1-1.1-.7-1.8-1.7-1.6-2.5.2-.5.3-.6.9-.5.8.2.9-.4 0-1l-.6-.4h.6c1.3 0 1-1.1-.6-2.2-1.2-.9-1.7-1-1.7-.3 0 .4 0 .4-.5-.1-.2-.3-.8-.8-1.3-1-1.3-.7-1-.7 1.3-.1l2.8.7c.4 0 1 .3 1.2.5.3.2.5.3.6.1.2-.4-.3-1.3-1-1.6-.2-.2-.5-.5-.5-.8 0-.8 1.2-.7 2.1.2 1 1 2.4 2 2.6 2l.1-.6c0-.4-.7-1-2-2-2-1.5-2-1.5-4-1.6l-2.2-.1c-.3-.2 3.2-.4 4.5-.3 1.5 0 1.3 0 4.6 3.6.7.8 1.4 1.4 1.5 1.4.5 0 .2-.7-.4-1.3-1-1-.9-1.5.1-.8.5.3.8.8.8 1 0 .2.2.3.4.3.6 0 1.2 1 1.4 2.3.1 1.2.1 1.2-.4 1-.7-.4-1.4-.4-1.4 0 0 0 .3.5.8.9.6.6.6.6.2.9-.2.1-.4.4-.4.6 0 .5-.4.5-.8 0-.5-.5-1.3-.6-1.6-.2-.3.2-.2.4.3.8.4.2.7.6.7 1 0 .5 0 .5-1-.1-1.7-1-2.9-.5-1.5.6.4.2.7.6.7.7zm15.6-.8c-.5.3-.9.3-1.2 0l-4.2-.3c-2.2 0-4.2-.2-4.3-.3-.3-.2-.3-.4-.1-.7.2-.3.1-1.1-.1-2.6-.3-1.1-.4-2.4-.3-2.8.1-.5 0-.7-.2-.9-.3 0-.5-.4-.5-1s-.1-1.2-.3-1.4c-.2-.2-.1-.4.4-.6l.7-.5c0-.3 2.2-.3 4.8 0 2.3.3 3.4.2 3.4-.4 0-.3-.4-.4-2.1-.4-2.6 0-5-.2-5-.5 0-.1 1.6-.2 3.5-.2 3.7 0 4.3-.2 3-1-.7-.5-.8-.5-1.5 0l-1.3.4c-.4 0-.4 0 0-.3 1-.5.5-.7-1.6-.8-1.4-.1-2.3-.3-2.4-.5l-.2-1.7c0-.7-.1-1.8-.3-2.4-.3-1-.3-1.2.1-1.8.2-.3.4-1 .4-1.7v-1.2l1.3.2c2.2.3 2.2.3 2.2 2l.1 2.7.2 1.3h-1c-.6 0-1 0-1 .4 0 .2.4.3 1 .3 2.2 0 3-.2 3.6-1.2.3-.5.5-1 .3-1.2l-.2-1.9-.1-1.5h1c.6 0 .9.2 1 .6.3.6 1.2 11.8 1.2 14 0 .7-.1.8-.5.6-.3-.2-1.5-.4-2.8-.6-2.1-.3-2.4-.3-2.7 0-.2.4-.6.5-1.4.5-1.6-.2-1.5.4.2.7 1.2.2 1.4.3.8.4-.5.2-.6.3-.3.5.4.5 6.4.6 6.3.1 0-.1-.9-.3-1.9-.3-1 0-1.7-.2-1.7-.4s.3-.2 1-.1h2l1-.3-.1 2v2l-1 .1h-3c-1.6 0-2 .1-2.1.5-.2.3-.4.4-.8.3-.8-.2-1.1.1-.6.6.3.3 1.5.4 3.8.4 3.3 0 4.4.4 3.5 1zm-4.9-3.6c1 .4 1.5.3 2.2-.2.1 0 .5-.1.8 0 .4 0 .6 0 .7-.3.3-.6-.2-.8-2.5-.9-1.7 0-2.2 0-2.3.4-.2.5 0 .6 1.1 1zm-3.4-6.2c2.9.4 4.3.4 4.3-.1 0-.3-.3-.4-1.2-.4-.7 0-2.1 0-3-.2l-1.9.1c0 .2.8.4 1.8.6zm0-5.5c.2.2 7.2.2 7.2 0 0-.4-1.4-.6-4.4-.6-2.4 0-3.2.2-2.8.6zm-15.1 13.3v.5c0 .2-.1.2-.3 0-.2-.4 0-.8.3-.5zm-49.7 0c-.6.3-1.2.4-1.4.4-.6 0-.7-.4-.2-.6.3 0 .6-.4.7-1 .1-.5.3-.8.7-.8 1.5 0 2.4-2.5 1.2-3a4 4 0 0 1-1.2-1.2c-.8-1-1.2-1-1 0l.1.8-1-.9a31.9 31.9 0 0 1-2-1.5c-.5 0-2.2-1.8-2-2 .1-.4 2 .4 3.7 1.5.6.5 1.5 1 2 1.1.4.1.7.4.7.5 0 .5 1.6 1.8 2.3 1.8.6 0 .6.1.5.6-.4 1.4-.7 2-1.2 2.2-.2 0-.5.5-.7 1-.2.5-.6.9-1.2 1.1zm-5-.4c-.3 0-.5 0-.5-.2s.1-.3.3-.3l.4.3c0 .1 0 .2-.3.2zm53 0c-.3 0-.6 0-.6-.2s.2-.3.4-.3.5.1.5.3c.1.1 0 .2-.3.2zM76 91l-1-.5c-.7-.5-1-1-1-1.5l-.2-1 1.2 1.4 1 1.6zm2 .1c-.3 0-2.7-2.6-2.7-2.9 0-.9 2.7 1.3 2.9 2.2 0 .4 0 .7-.2.7zm52-.2c.4.4-.6.3-1.7-.3-1.2-.6-1.7-.7-1.7 0 0 .3 0 .3-.6-.2-.7-.7-1.1-.7-1.3-.3 0 .3-.4.1-.8-.4s-.8-.7-1-.6h-.6c-.1-.2-.5-.3-.8-.3-.4 0-.7-.2-.8-.3-.3-.4-1-.3-1 .1 0 .2 0 .4-.2.4s-.3-.2-.3-.5c0-.6-.4-.8-2.3-1.3-.6-.2-1.4-.6-1.9-1-.9-.7-1-.8-1.4-.2-.2.2-.6.3-1 .2-.6-.2-.6-.2-.4-1.8.3-2.2.4-3 .7-3 .1 0 .2.1 0 .3 0 .3.2.5 1 .7.6.2 1.2.3 1.3.2.3-.3-.2-1-.7-1l-.6-.2c0-.2.3-.3.6-.3s.5-.2.5-.4c0-.3-.3-.4-1-.4h-1.1l.1-2.7c0-1.5.2-2.7.2-2.7l1-.8c1.1-.8 1.6-.9 1.6-.3 0 .2 0 .4.2.4l1.8-.4c2-.5 3-.5 2.5 0-.6.5-.3.7 1 .5a30 30 0 0 1 8.2.3c.6-.3 0-.9-1.2-1.2L127 73l.8-.4c.5-.3.7-.5.6-.9-.2-.6.6-1.1 1.4-1 .5 0 .7.5 1 1.7.6 1.8 1 2.2 1.4 1.8.2-.2.7-.4 1-.4.8 0 5-2 5-2.3 0-.2 1.2-.8 1.5-.8l.3 5a31.5 31.5 0 0 0 .7 5.9c0 .3 0 .4.3.4.2-.1.3-.8.4-2v-2c.1-.6.5 1 .5 2.1 0 .8.2 1.2.5 1.2h.4c0 .4-1.1 1.3-1.5 1.3-.4 0-.4.1-.3.8.1.4 0 .8 0 .8-.4 0-1.1-1.3-1.1-1.8l-.5-1.6a6.4 6.4 0 0 0-3.6-2.8c-.3-.1-.7-.5-1-.8-.2-.8-1.8-1.3-4.9-1.9-2.4-.4-4.4-.2-4.5.4-.1.4.1.4 1.3.4 1.6 0 3.7.3 5.5.7l1.2.3-.8.4-1.7.3c-.6 0-.8.1-.8.4 0 .4.3.4 3.2.5 1 0 2.6.6 2.6 1l-.4.2c-.6 0-.4.9.3 1.2l1 .7c.2.1.6.2.8.1.4-.1.5 0 .8 1.3.1.7.1.7-1.8-.6-1.5-1-2.3-1.4-3.2-1.5-1.3-.2-1.6-.6-.5-.7.4 0 .8-.2.8-.4.1-.3-.1-.3-1.2-.2l-3.6.2c-1.7 0-2.3 0-2.3.3 0 .4.8.7 2 .7s1.2.4 0 .8c-.6.2-1.3.5-1.6.8-.3.3-1 .5-1.6.5l-1.4.1c-.5.4 0 .7 1.1.7l3.2.4 2.5.4c.2 0 .3.1.3.3 0 .2-.2.2-.7.1-2.6-.6-3.5-.7-4-.4-.2.3-.4.2-1-.1l-1-.4c-.7 0-.5.5.4 1l1.3.8c1 .7-1.5 0-2.8-1-.9-.5-1.5-.7-1.6-.5-.2.3.8 1.4 1.8 1.8l.7.5c0 .2.3.3.6.3.6 0 1 .4.5.6-.6.2 0 .7 2.2 1.8l2.4 1.3zm-8-3.5c.6 0 .4-.9-.3-1-.3 0-1-.5-1.7-1s-1.4-.9-2-.9c-.4 0-1.5-.3-2.4-.8-1.5-.8-2.6-1-2.8-.5-.2.3.3.7 1 .9.4 0 .4.1-.2.1-1.4 0-1.1.8.5 1.1.9.2 1 .1.9-.8 0-.3.1-.2.6.2.4.4 1 .6 1.7.6.8 0 1.3.2 1.8.6.4.4 1.1.9 1.6 1 .4.3 1 .5 1.3.5zm-3.8-6.1c0 .5 3.1.5 3.3 0 .2-.7.1-.7-1.7-.6-1.1.1-1.6.3-1.6.6zm5-1.8c0 .2 5.2.2 6.6 0 0 0 0-.2-.3-.4-.3-.4-.7-.4-2.3-.3-2.6.2-4 .4-4 .7zm-4.3-.7a15 15 0 0 1 2.6-.2c1.2 0 1.6-.1 1.6-.4 0-1-4.8-.5-5.2.5 0 .3.2.3 1 .1zm10.5-1c.4.3.5-.4.1-.8-.4-.5-5.9-.6-5.7 0 0 .1 1 .3 2.8.4 1.4 0 2.7.2 2.8.3zm-9.5-1c1.4-.8 1.6-1 1.2-1.7-.3-.5-1.5 0-1.7.6 0 .2-.6.6-1.2.9-.7.2-1.2.6-1.3.8-.2.5 1.1.2 3-.7zM26.7 90.5c-.1.2-2.8.2-4 0l-.7-.2-.2-4.3c0-2.3-.2-4.6-.3-5.2-.1-1 .2-1.5.8-1 .3.3.5.3.9-.1.6-.6.3-1-1-1h-.8l-.2-2.1a3813.5 3813.5 0 0 0-1.5-17.5c-.3-3.8-1.5-19.9-1.5-21.5 0-.3.4-.4 1.2-.4l1.9-.1c1-.3.3-.7-1.4-.7-1.5 0-1.8 0-1.8-.4s.3-.4 1.8-.3l2.7.2c.5 0 .8.1.8.3l-.6.2c-.9 0-.8.6.1.8.6.2.7.3.9 3A800.6 800.6 0 0 0 25 57.2l.7 11c.6 10.4 1.2 22.1 1 22.4zm103.7-1.2c-.2.5-.3.5-2.3-.6-2.3-1.3-2.3-1.9 0-1l1.5.3.7.4v.9zm-50.5 0c-.9-.1-1.4-.4-2.3-1.1L76.1 87c-1.3-.7-2.7-2-2.7-2.4 0-.3.2-.5.3-.5.5 0 4.2 2.9 5 3.8.3.5.8 1 1 1 .2 0 .4 0 .4.2l-.2.2zm.8-1c-.4 0-1.6-1-1.4-1.2l.9.5c.4.4.7.7.5.7zm3-2.9-.5 1.2c-.1.1-.6-.2-1-.7l-3.7-2.5c-1.5-.8-2.7-1.6-2.7-1.7 0-.4.4-.3 1.8.4l2 .8c.4 0 .8.3.9.4l.6.2c.7 0 1-1.2.5-2-.5-1-3-2.2-5-2.4-1.6-.1-2-.4-1.3-1.4.2-.3.3-.3.6 0 .2.1.8.3 1.4.3 1.1 0 3.8 1 3.8 1.6l.4.2c.6 0 .5-.7-.2-1.3-.7-.7-2.9-1.4-4.2-1.4-.8 0-1 0-1-.4 0-.3.2-.6.4-.7.7-.3 3 .1 4 .7 1.1.6 1.1.6 1.1 0 0-.3-.2-.7-.5-1l-.6-.3h.6c1 0 .6-.8-.5-1.1-1.6-.6-1.6-.9 0-.8.9 0 1.4 0 1.5-.2.2-.4-.7-.6-3.6-.7-1.8 0-2.4 0-2.4.3 0 .2.4.4.8.5.5 0 .8.3.7.6 0 .2.3.4 1 .6 2.5.5 1.3 1-1.5.6l-1.2-.2-.2-1.3c-.1-1.1 0-1.4.2-1.6.3-.1.5-.4.5-.6 0-.4.2-.4 1.6-.2 2.3.2 3 .2 3 0 .1-.2-.7-.5-1.8-.7l-2.4-.7-.6-.4.6-.4c.4-.3 1-.4 2.6-.3 2.8 0 3-.4.2-.8-2-.2-3.1-.7-2.8-1.2l-.5-.8c-.4-.4-.5-.5-.2-.4 2.1.7 4.8 1 5 .6 0-.2-.5-.5-1.5-.6-2.4-.5-3-.7-3.2-1 0-.2.6-.1 1.5.2 1.6.5 2.4.5 2.4 0 0-.1-.5-.4-1.2-.6-1.7-.4-4.2-1.8-3.7-2l1.7.5c.7.4 1.7.8 2.3.9 1.6.3 1-.4-1-1.2-2-.9-2.4-1.5-.5-1.2 1.4.2 3-.4 3-1s-.5-.8-1-.5c-.3.3-1.7 0-1.7-.5 0-.6.4-1 .8-1 .3 0 .8-.2 1.1-.4.5-.2.6-.3.1-.6-.4-.3-.4-.4 0-.6.5-.5 1.2-.2 1.2.5 0 .3.2.8.4 1 .3.4.4.7.1 1.5-.4 1.5-.3 1.7.3 1.7s.6 0 .2 2.3c-.2 1.3-.1 2.4.1 4.5a370.8 370.8 0 0 1 1.3 9.6c.3 2 .3 6.6-.1 7.7zm-.5-4.4c0-.2-.1-.4-.4-.4-.4 0-.5.3-.2.6s.6.2.6-.2zM94 83.6c-1.7 1.3-3 1.7-3.5 1.1-.2-.3-.7-3.3-.8-5.1-.2-1.6-.7-2-.9-.6l-.2.7-1.1-.7c-.7-.4-1-.9-1.2-1.4-.1-.7-.3-.8-.9-.8-.7 0-.8-.2-1-1.5-.5-2-1-13-.5-13.3.3-.3 1.5 1 1.5 1.7 0 .4.4.8 1.3 1.5 2 1.3 3.4 2 3.9 2 .3 0 .4.3.2 1.6l-.6 3.1a8.3 8.3 0 0 0 0 4c.2 2.3.6 3.2 1.2 2.8.2 0 .2-.3 0-.6-.1-.3-.4-1.4-.5-2.5a10 10 0 0 1 .3-4.5c.6-3 .6-3.6 0-6-.7-3.3-.7-3.3-1.2-3.3-.4 0-.6-.3-.8-1.4-.2-.8-.5-1.6-.7-1.8-.3-.1-.5-.5-.5-.7 0-.2-.6-.7-1.2-1-1.4-.7-1.9-1.3-1.6-2 .1-.4.2-.3 1.1.1l1.5 1c.6.7 1.4.8 1.2.3-.1-.3 0-.5.3-.7.4-.2.2-.4-1-1.7-.7-.7-1.4-1.6-1.4-1.8 0-.5.1-.5.9 0 1 .4 1.7.3 1.4-.4-.1-.4 0-.4.4 0 .5.5.5.5 1.3-.2.7-.7 2.4-3.8 2.4-4.4 0-.5-.5-.2-1.3 1-.5.7-1 1.1-1.3 1.1-.3 0-.6.2-.6.4 0 .7-.5.7-1.4.2-1-.7-1.5-.4-.8.6.5.8.4.8-.5.4-.4-.3-.6-.2-.9.2-.6.8-.4 1.5.6 2.8l.8 1.2-1.2-.8c-.7-.5-1-1-1-1.5 0-.3-.3-1-.5-1.4-.4-.6-.4-.7 0-1.4.2-.4.6-.7.8-.7.5 0 2.5-1.4 2.8-2.1.4-.7.4-3.4 0-3.9-.2-.2-.8-.3-1.4-.3-2.6 0-2.8 0-2.8-.5 0-.3 0-.6.2-.7.2-.2 0-.8-.3-1.8-.6-2-.6-2 .2-3 .9-1 2-1.1 2-.3 0 .3.2.6.5.7.6.1.7.3.2.8-.5.5-1.2.4-1.8-.3-.4-.4-.6-.5-.8-.3-.5.5-.1 1.3.8 1.6.7.2 1 .5 1.3 1.2.3.8.7 1.1 1.8 1.7.8.4 1.5.8 1.6 1l.6.2c.5 0 .8-.5.8-1.4 0-.3.1-.5.3-.5.2 0 .3.4.3.9l.7 2.7c.9 2.6 1 3.2.6 4.5-.2.4-.4 1-.4 1.5l-1 1.9c-.6.6-1 1.3-.9 1.5 0 .2-.1.7-.5 1-.8.7-.9 1-.3 1 .4 0 2.5-2 3-2.9l.6-1.7c.2-1 .2-.8.2 1 0 1.3 0 1.8-.3 1.8-.2 0-.6.5-1 1a7 7 0 0 1-1.3 1.4c-.5.3-.8.7-.8 1 0 .7.8.3 2-1 .6-.7 1.2-1.2 1.3-1.1.5.5 0 1.5-1.3 2.8l-1.5 1.6c0 .5 1 0 2.1-1 1.3-1.2 2-1.5 2-1 0 .6-2 2.7-3 3.4-1 .6-1.4 1.4-.7 1.4.3 0 3.3-2.2 3.8-2.9.3-.3.3-.3.3 0a7 7 0 0 1-1.6 2.2C92.8 64 92.5 64.6 93 65c.1 0 .8-.5 1.6-1.3 1.2-1.4 1.9-1.8 1.9-1.2 0 .6-.9 1.8-2.3 2.9-.8.6-1.4 1.3-1.4 1.5 0 .7 1 .2 2.4-1.1l1.6-1.5c.5 0 .1 1-1 2.3-1.6 2-1.6 2.8 0 1.8.9-.6.8-.1 0 1-.4.4-1 .7-1.3.7-.4 0-.7.2-.7.4s-.2.6-.5.8c-.7.6-.7 1 0 .7.8-.4.9-.3.3.5a3 3 0 0 0-.6 1c0 .4.6.4 1 0 .5-.5.7 0 .2.6l-.4 1.1c0 .7 1.2.4 2.2-.5 1.2-1.1.8-.2-.5 1.3s-1.3 1.4-.9 2c.4.7.7.7 1.3.1l1.3-.9c.7-.3.9-.6.8-1 0-.4-.2-.6-.5-.6s-.5 0-.5-.2c0-.3 1-1.1 1.2-1 .3.4.4 2.8 0 3.4-.3.7-.3.7-2.4 1.6-1.4.6-2 1.2-1.4 1.5v.5c-.4.4-.1 1 .3.8l1.4-.5 1-.5-.6.6-2.5 1.8zm-7.3-9.2c0-.3-1.6-1-1.8-.7-.2.2.2.7.8 1 .6.1 1 0 1-.3zm.6-.4c1 .4 1.4.3 1.4-.1 0-.2-.5-.5-1-.7-.7-.2-1.2-.5-1.2-.7-.2-.3-1.1-.3-1.1 0 0 .4 1 1.2 1.9 1.5zm0-2.7c.6.6 1.3 1 1.8.9.7 0 .9-.9 0-.9-.3 0-2.3-1.1-4-2.3-.1-.2-.3-.2-.5 0-.2.1.4.7 2.6 2.3zm-1.7.2a3 3 0 0 0-.5-.8c-.7-.9-1.3-.4-.7.4.4.6 1.2.9 1.2.4zm4-1.4c-.1-.2-.7-.6-1.3-.9-.6-.3-1.6-1-2.1-1.5-1-1-1.4-1.2-1.4-.8 0 .6 1.5 2 2.9 2.7 1.7.9 2 1 1.8.5zm3.2-.2c.3 0 .6-1.2.4-1.6-.4-.6-.7-.3-.7.6 0 .6.1 1 .3 1zM90 68.2c0-.2-.7-.8-1.6-1.2-1-.5-2.2-1.4-2.8-2-1.3-1.3-1.4-1.4-1.4-.8 0 .7 2.3 2.8 4 3.6 1.7.8 1.8.9 1.8.4zm2.3-22.9c.3-1.1-.5-.5-.9.7a5.2 5.2 0 0 1-1.1 2c0 .8 1.7-1.5 2-2.7zm-3 38.4c.3 1.2 0 1.2-1.3.4l-1.6-.6c-1.1-.2-1.4-.6-.7-1.1.5-.4.5-.4-.1-.9-.8-.6-.6-1.2.2-.8.7.4 1 .4 1 0 0-.3-.4-.6-1-.9-1.4-.7-.5-.9 1-.2l1.7.7c.2 0 .5.5.5 1.3l.4 2.1zm20.3-2-.6 2c-.3.4-.2-1.5.1-1.8.2-.3.2-.4 0-.5l-.8-.2c-.3-.1-.2-.2.3-.4 1-.4.8-1-.5-1.3-.7-.2-1-.4-1.2-1-.1-.6 0-.7.7-1.1 1.2-.5 1.6-1 1.6-2 0-.5.2-.7.6-.7.5 0 .6 0 .6.8 0 .6-.2 1.2-.7 1.7-.8 1-.8 1.1 0 1.1.4 0 .4.2.3.8l-.4 2.5zm-29.3-.3c.4.3.7.8.7 1-.1.4-.2.4-.8 0a3 3 0 0 0-1-.3c-.7 0-3.3-1.8-3-2 .5-.3 3.2.6 4.1 1.3zm65.2-.4c-.8 0-1.5-.1-1.5-.3 0-.1.6-.2 1.3-.2.7 0 1.4 0 1.5.2 0 .2-.4.3-1.3.3zm-46.2-2.4-.4.5v-.5c.1-.3.3-.5.4-.5.2 0 .1.2 0 .5zm43.1-4.5v3.7c0 .3-.3-1.6-.5-4.2-.1-2.1 0-3.2.1-3.1.2 0 .3 1.6.4 3.6zm-1.1 3c-.1.3-.1 0-.1-.6v-.6V77zm-36 0c-.2.3-.4-.1-.6-1.4l-.3-1.6c-.1-.4 0-.5 0-.4.2 0 .5.8.7 1.7.2 1 .3 1.7.2 1.8zm48.1-4.6c.2 5.1 0 6.4-.3 2.3-.2-3.5-.4-4.5-.7-4.1l-1 .2c-.6 0-.8-.1-.8-.5s-.3-.5-2.3-.6l-4.8-.2c-1.6 0-2.4-.2-2.5-.4 0-.2-.8.1-2 .9-2.1 1.2-5.3 2.8-6.3 3-.7.3-.6.4-2-3.4-.6-1.4-1-3-1-3.5s-.1-1.1-.3-1.3c-.2-.2 0-1 .4-2.7a44 44 0 0 1 3-7.7 69 69 0 0 0 3.4-7.2c.5-1.3.7-1.5 1.1-.9.3.3 1.7.4 5.6.6 7.6.3 7.3.3 7.3-.1s-.8-.5-5-.7c-2.8-.2-5-.3-4.8-.4l2-.4c1-.1 1.9-.3 2-.5 0-.2.5-.4 1.2-.4.8 0 1 .1 1 .5 0 .6.6.8 1.8.8.7 0 1-.1 1.2-.7.2-.4.5-.6.8-.6 1.5 0 1.6-1 .1-1.1h-.8l1-.3c2.3-.7 2.8-1.3 1-1.3-.6 0-1.1 0-1.2-.2-.3-.4-.8-5-.7-6.5 0-.8.2-1.9.5-2.4.5-1 .5-2 0-2.3-.4-.2-1.8.2-2.3.7-.2.2-1 .5-1.5.6-1 .2-1.3.2-1.7-.1-.7-.5-3.6-.6-4.4-.2-.8.4-3.2.3-4-.1l-1.2-.3c-1 .2-.8 2 .2 2.8l1 .6c.5 0 1 1 1.3 2.7 1 5.4 1.2 7.5 1.1 7.6 0 .2-.5.3-1 .4l-1.5.5a4 4 0 0 1-1 .3c-.2 0-.6.7-1 1.8l-.8 2.2c-.4.8-3.7 9.5-4.2 11.3-.3 1.2-.5 1.5-1 1.5-.7 0-.8.5-.2 1 1 .6.4.9-2.3.8-2.2 0-2.8 0-3.8.6-.7.3-1.4.5-1.5.4-.1 0-.3-2-.4-4.3a311.4 311.4 0 0 1-1-51.7c1 0 5 .6 5.1.8.4.4.7 16.2.4 17-.2.3 0 .6.3.7.4.3.5.7.5 3.4a99.6 99.6 0 0 1 .6 11.4c.2 8.3.8 18.8 1 19.4.4.9.4-2.3 0-9l-.3-10.3c0-3.2 0-3.3.5-3.3 2.5.3 7.3.5 7.4.2.4-1.2.3-1.3-1.5-1.4-1.6-.2-1.5-.4.3-.6.4 0 .7-.3.8-.5 0-.4-.1-.5-1.2-.3-.8 0-1.2 0-1.2-.2 0-.1.1-.3.3-.3.8 0 0-3-.8-3.4h-2.7l-2.3.1-.2-2.7a1277.3 1277.3 0 0 0-.1-7l.3 1c0 .6.6 1.3.8 1l.3 1.1c.2 1 .4 1.3.9 1.5.3.1.6.3.6.5 0 .1.5.3 1 .3.7 0 1.1-.2 1.1-.3 0-.5-.7-1-1.3-1-.4 0-.5-.3-.8-1.6-.2-.8-.5-1.6-.7-1.8-.3-.2-.3-.7-.1-2.7v-.7l.3.9c.5 1.6.8.9.6-1.4a26 26 0 0 0-.2-2.5c-.2-.5.3-1.6.8-1.6.6 0 .9.9 1 3.2.2 3 .4 3.5.8 3.2l.5-.4c.3 0 .2 1 0 1.2-.5.3-.4 1.3.1 1.2.3 0 .5-.5.7-1.3.4-2.9.5-3 .7-2.6.6.8-.4 5.5-1.2 6.2-.6.4-.3 1 .4.6 1.3-.6 2-6.2 1.2-9.1-.3-1.2-.6-1.8-1-1.9-.4-.1-1.4-1.3-1.2-1.5.1-.2 5 .3 5.2.5l-1.6.1c-1 0-1.8.1-1.8.2l.4.6c.4.4.6.5 1.3.2.7-.2 6-.3 8.3 0 .8 0 1-.6.4-.9-.3 0-.6-.3-.7-.5-.1-.2-.6-.4-1-.4-.6 0-1.4-.1-1.9-.4-.5-.2-1.4-.4-2-.4-.6 0-1.2-.1-1.4-.3-.1-.3-.6-.4-1-.4-.6 0-.8-.7-.1-1 .3-.2.3-.4 0-1.5-.4-1.6-1-1.7-.8-.2l.2 1.1-1.3-.1c-1-.2-1.2-.2-1.2.2 0 .3.3.4 1 .4s1.1.3 1.1 1l-8-.3c-.4-.2-.9.2-.6.5l1.1.3c1.8.2 2.5.4 2.8.7.3.5-.1.9-1 1-.6 0-.8.3-1 1.4a41 41 0 0 0-.6 4.8l-.2 3.4-.5-2c-.5-2-.5-5 0-6.8.1-.7.1-.7-.3-.2-.4.5-.4.5-.6-.3l-.2-2.8v-2.1h1.3l3.7.1c1.7.2 2.4.2 2.7 0 .5-.4.5-.8 0-.8l-.7-.4c-.2-.2-1.6-.5-3-.8l-3.9-.8c-2.5-.7-3.4-1-6-1.5-6.8-1.3-7-1.4-7-1.8 0-.3.2-.4 1-.3.5 0 1 0 1-.2s-2.2-1.2-2.3-1l-.4.8-.3.8-1.8-.2c-1-.2-3.7-.3-6-.3-5 0-5.4-.2-5.4-1.2v-.8h5.4c4.4 0 5.4 0 5.7.4a1 1 0 0 0 1.6 0c.3-.3.8-.4 2.6-.3h2.3v1.1c.1 1 .2 1.2 1 1.4.4.2 1 .3 1.3.3.3 0 .8.2 1.2.5.8.6 3.2 1.2 6 1.6 2.6.4 5.6 1 7 1.5 1.3.5 2.1.4 2.1-.1 0-.4 0-.4-2.5-1-8.5-1.7-8.4-1.7-8.2-2.6.2-.8-.3-2.3-.8-2.3-.2 0-.3 0-.3-.2a16784 16784 0 0 0 28.7.4c.4.3.6 4.3.8 13.9.2 4.8.4 9.8.6 11l.2 11.9c0 5.4 0 10 .2 10 0 .2.2 3.9.2 8.2a182.8 182.8 0 0 0 .3 10c-.5-1-.6.1-.5 4.4zm-12-4c0 .2 0 .3.2.3.3 0 .5-.6.5-1.3 0-.3 0-.3-.4.1l-.4.9zm7.6-3.8c0-.3-.2-.4-.7-.3l-1.7-.1c-1.5-.4-2 .1-.7.7 1.4.6 3.1.4 3.1-.3zm-8-1c0 .2.2.3.3.2.4-.2.4-2.2 0-4.8l-.5-4c-.2-1.3-.2-2 0-2.4.4-.5-.3-2.1-.9-2.1-.6 0-.7.4-.3 2a69 69 0 0 1 1.4 11.1zm5.7-.8c1.9-.1 2.3-.3 1.9-.7-.4-.3-3.4 0-3.5.5-.1.3.2.3 1.6.2zm3.2-3c0-.2-4.2-.5-4.8-.2-.2 0-.3.2-.2.4.2.4 5 .2 5-.1zm-5.5-2c.2.4 4 .4 4.2 0 .2-.3-.5-.4-2.4-.5-1.7 0-2.1 0-1.8.6zm5.4-1.7c.4-.3-.6-.6-1.7-.6-1.5.1-1.7.6-.3.8.8.2 1.7 0 2-.2zm-20.5-6.7c.2.3 1.5.3 2 0 .3-.2.3-.3 0-.5s-.9-.2-1.8.1c-.2 0-.3.3-.2.4zm.3-1.6c1.5.4 2.5.3 2.5-.1 0-.3-.3-.4-1.2-.5h-1.6c-.7 0-.5.5.3.6zm2.7-2c0-.3-2.6-.6-3.3-.4-.7.2-.3.5.9.6 1.8.2 2.3.1 2.4-.2zm-1.8-1.5c1.6 0 2.1 0 2-.3 0-.4-5.2-.6-5.2-.2 0 .2.2.3.5.4l2.7.1zm2-2-2-.3c-2 0-2.7.2-1.8.6.6.3 3.8 0 3.8-.2zM145.3 30c.1-.2-.9-.2-3.1-.2-3 0-4 .1-3.5.6.2.2 6.3-.1 6.6-.4zm-8.2-.6c.5.4 1.1.5 1.7.1.4-.3.1-.8-.5-.8s-.8-.5-.8-2.3c0-.7-.1-1.4-.3-1.5l-.3-.6c0-.3.1-.3.5.1l1 .7c.6.2.7.1.7-.6l.1-1.6c.2-.6.1-.8-.2-.8-.3 0-.5.3-.6.8-.1.4-.3.7-.4.6-.2 0-.2-.4-.1-.8s0-.6-.2-.6-.5-.3-.6-.6c-.2-.9-.7-.3-.7 1l-.2 1.3c-.4.2-.4-2 0-3.2.6-1.4 1.4-2 2.3-1.6 1.2.5 1.6 1 1.9 2.2a12 12 0 0 1-.3 5.5c-.3.7-.2 1.2.3.8l.8-1.9c1-2.5.7-7.7-.3-7.7-.2 0-.2.3-.1.9l.2 1-1-.9c-1-.7-1.2-.8-2.8-.7-1.3.1-1.7.3-1.9.6l-.2 3.3c0 1.8-.1 2.9-.3 3-.2 0-.2.4 0 1.3.4 1.9.8 2.6 1.3 2.6l1 .4zm6 0c1.3 0 2.3-.2 2.3-.3 0-.2-1-.3-2.2-.3-2-.1-2.3 0-2.3.3s.4.4 2.3.3zm5.4-3.3c0-.3-.4-.5-1.2-.5-.8 0-1-.2-1-.5.2-.2-.1-.3-1-.4-1.2-.1-1.8.2-1.3.5l.4.6c.1.4.6.5 1.5.6 2 .2 2.6 0 2.6-.3zm-3.4-2.2c1 0 1.8-.2 1.8-.4.1-.3-.3-.4-1.7-.4-1.5 0-1.9.1-1.9.5 0 .3.3.3 1.8.3zm1.4-1.3c.6 0 .7-.4.1-.6-.4-.2-.7 0-.7.4l.6.2zm1.3-1c.3.5.7.6 1 .2.2-.4-.6-1.2-1-1-.2.2-.2.4 0 .8zm-5.2-8.4c0-.3-.2-.5-.6-.6-.3-.1-.7-.5-.9-.8-.4-.9-1.1-1.3-1.5-1-.2.3 0 .6.4 1l.7 1c0 .2.2.3.5.3.2 0 .5.2.6.4.2.6.8.3.8-.3zm-4.8-.4c.2.3.5.6.7.6.4 0 .4-.7 0-1l-.2-1.3c0-1.1 0-1.2-.9-1.4-1-.3-1.3-.1-.5.5.4.3.6.7.6 1.3 0 .4.1 1 .3 1.3zm10.7-.8c1.8 0 1.9-.6 0-.8-1 0-1-.1-.4-.3l1.2-.2.6-.2c0-.2-.3-.3-.7-.3h-5.6c-.6.5 0 .8 1.5.8 1.4 0 1.6 0 1.7.5.1.5.4.5 1.7.5zm.4-3c0-.4-2.8-.6-7.1-.6-2.2 0-3.5 0-3.5.2 0 .1.8.3 1.9.3l3.9.2c2.6.3 4.8.2 4.8-.1zm-8.7-1.6 3.8-.1c1.8 0 2.2-.1 2.2-.4 0-.3-.3-.4-.6-.5l-11.6.1c0 .3.9.5 2.4.5a5 5 0 0 1 1.9.3c.2.1 1 .2 2 .1zM125.7 6a347.7 347.7 0 0 1 14-.1c6.3 0 11.6-.1 11.7-.2 0-.2-.3-.3-.8-.4-1-.3-15.9-.2-20.9 0-3 .2-3.4.1-3.3-.2.2-.5-.3-2.1-.7-2-.3.1-.3 2.7 0 3zm-19.3-2.2c.7.2 1.5 0 1.2-.3a47 47 0 0 0-7-.1c-.3.2 4.2.5 4.7.3l1.1.1zm5.1 73.3c-.2 0 0-2.6.3-4.2l.5-4.2c.5-4.2.6-5 .8-4.6.2.2.1 1.2-.8 8.6-.3 2.4-.7 4.4-.8 4.4zm37.5-.5c-.2 0-.3-.2-.2-.4 0-.2.2-.4.3-.4.2 0 .3.2.3.4s-.2.4-.4.4zm22.6-.4c-.3.3-.3-2.8 0-10 0-2.9.2-5.2.3-5.2.1 0 .2 3.3 0 7.5 0 4-.2 7.5-.3 7.7zm-23-3v1.3c-.2.4-.2 0-.2-.7s0-1 .1-.6zm8.6.4v1-1zm-51-1.8a14 14 0 0 0-1.3-4c0-.2-.3-.9-.8-1.5a12.4 12.4 0 0 1-2.1-5.7c-.6-3.1-.6-3.6-.2-3.6.4 0 1.3 1.5 1.7 2.6.2.7 1 1.6 1.4 1.6.1 0 .5.2.7.5.3.3 1 .4 2.6.4l2.9-.1.6-.2V64c-.2 2.4-.5 6-.8 7.8-.2 1-1.6 1.8-2.5 1.6a.8.8 0 0 0-.8.2c-.7.8-1 .4-1.5-2zm.6-5.2c0 .6.3.6 2.3 0 2.8-.7 2.6-1.4-.3-.8-1.4.2-1.9.5-2 .8zm-2.1-2.6c0 .5 1 .5 1.7 0s.3-.7-.8-.5c-.6 0-1 .3-1 .5zm3.4 0c.4.2.9 0 .7-.4h-.6c-.3 0-.3.1 0 .3zm33.3 8v1.7c-.4 0-.5-.6-.5-1.8 0-2 .4-1.8.5.2zm-44.8 1.4c-.2 0-.4-.2-.4-.4s.2-.4.4-.5c.3 0 .4 0 .4.4 0 .3-.2.5-.4.5zm18.4-.8-1.5.5v-2.2c.2-1 .4-1.3.9-1.5.7-.4.8-.9 0-1.1-.4-.1-.5-.3-.4-.6l.5-3c.3-3 .7-4.1 1.7-4.6.4-.2.8-.7 1-1.7.5-1.3.5-1.4 0-2.6-.2-.7-.3-1.5-.2-2 .1-.6 0-.8-.4-1-.5-.3-.5-.3.1-2 .9-2.5.8-3-.2-4s-1.3-1-2.4-.4c-.6.4-1 .9-1.2 1.6-.4 1.2-.4 2.6 0 2.8.4.3.3 1.6-.3 2.1-.3.3-.5.6-.5.8 0 .3-.3.4-1 .4-1.9 0-2.3-.2-3.3-2-.6-1-1-2-1-2.2 0-.3-.2-.6-.4-.6s-.8-.7-1.4-1.5a19 19 0 0 0-3.7-4.5c-.5 0-2.2-1.1-2.2-1.4 0-.3 4.2 0 6 .3l2 .8c.3.3 1 .5 1.5.5 1 0 4.3-1 4.6-1.4 0-.1.4-.4.8-.5.3-.2.6-.6.7-1 0-.6-.2-1-1.5-1.8-2-1.4-5.6-4.9-6-6-.4-1-.1-1.7.7-1.7.3 0 .5-.2.5-.5 0-.4-.2-.6-.6-.6-.7 0-1.5-.7-1.5-1.2 0-.2-.2-.4-.4-.6-.2 0-.7-.6-1-1.2-1-1.3-.8-2 .6-4.4 1.1-2 1.4-2.9 1.2-3.7-.3-.8-1-.6-2.2.4-1 .8-2.8 2-3.2 2v-1c.5-3 .5-3.7 0-4-.3-.3-.5-.3-1.2-.1-.6.2-.8.2-1-.1 0-.4.2-8.9.4-9 .2-.2 6.7.8 7 1.1.4.3 2.3.5 9.3 1.1 1.7.1 1.8.2 2 .8l.1 8.1c0 4 .1 8.7.3 10.2.6 6.4.7 11.2.4 13-.4 2.3 0 15 .6 15.7.2.3.3 1.3.3 3.5l.1 4.3v1.1c-.5 0-.6-.7-.6-2.2 0-1.5-.2-2.3-.6-2.3-.3 0 0 5.3.3 6 .3.4.3.4.7 0 .3-.5.4-.5.3.3 0 1-.1 1-2.2 1.6l-2.2 1c-.1.5.4.4 2-.2l2.4-.9c.9-.2.9-.3.7-1.4-.1-1.3 0-1.3 2.5-2 1-.3 2.5-.4 3.5-.4l1.7.1-.1 1.5c0 1 0 1.6.2 1.6s.3-.3.3-.6c0-.4 0-.8.2-1 .2-.3.3-.1.6.6.5 1.6.2 2.2-1.6 3l-2.7 1.2c-1 .5-1.6.5-3.7.5l-3.7-.2c-.8-.1-1.5 0-2.6.4zm6.6-1.8c2.3-.8 3.3-.9 2.4-.3-.4.2-.4.3 0 .5.6.4 1.4 0 1.6-1.2.1-.5.2-1 .1-1.1-.1-.1-5.6 1.6-6.5 2.1-.3.1-.5.4-.5.5 0 .4.2.3 3-.5zM110 51.2l1.2-.1c.2 0 .3-.2.3-.4 0-.4-.1-.4-1-.3-1.4.3-1.7.4-1.4.7 0 .2.5.2 1 .1zm1.4-2.5.1-.3c0-.1 0-.2-.2-.2s-.2.1-.1.2c0 .2.2.3.2.3zm-4-.7c.5-.6.5-.9 0-.9-.3 0-.6.6-.6 1.1 0 .4.3.3.7-.2zm7.1-10.8c.3.5 1.1.5 1.5 0 .2-.2.6-.4 1-.4s.6-.2.6-.4c0-.1-1-.3-2.2-.3-1.8-.1-2.3 0-2.2.2 0 .2.3.4.6.5.3 0 .6.2.7.4zm2-4.5c.5-.4-.6-.6-3.8-.5-3.2 0-4.2.2-3.2.6.5.2 6.8 0 7 0zm-3.2-1c1.6 0 2 0 2-.3s-.5-.4-2.2-.4c-2 0-2.4.1-2 .6l2.2.2zM116 29c0 .3.2.4.4.3.5-.1.4-1.3-.1-1.6-.4-.2-.6-.2-.8 0-.3.3-.3.5 0 .7.3.1.5.4.5.6zm-1.3-1.3c0-.4-1.6-.7-3.7-.7-1.8 0-1.6.6.3.8 2.7.3 3.4.3 3.4 0zm-5.8-3.4c0-.5-.2-.6-.9-.3-.4.2-.6 1-.2 1.2.4.5 1.1-.1 1.1-.9zm4.9-1c.2 0 .4-.1.3-.3l-.3-.3-.3.3c-.1.2 0 .3.3.3zm-1-1.3c.1.3.6.3 1.5 0 .6-.2.7-.4.4-.7-.6-.7-2.5-.1-2 .7zm-1.6-.3.6-.2c0-.2-.3-.3-.6-.3-.4 0-.7.1-.7.3 0 .1.3.2.7.2zm3-3.2c1.9 0 2.4 0 2.4-.3 0-.2-.3-.4-.6-.5a.7.7 0 0 1-.7-.7c0-.6 0-.6-4.8-1.1a147.2 147.2 0 0 1-8.5-1c-1.3 0-1.7.3-.8.6.5.2 6 1 9 1.5 1.4.1 2.5.4 2.6.6a70.7 70.7 0 0 0-9.6-.5c-.4.3.3.5 4 .8l4.2.5 2.7.1zm-6.6-5.2c1.3.3 2.1.3 2.1 0s-2.9-1-3.1-.7c-.3.2 0 .4 1 .7zm8.2-.6c.2 0 .2-.1.2-.3 0-.4-.4-.5-6.7-1.5a57.9 57.9 0 0 1-4.2-.6c-.2.4.9.6 5.3 1.4a193.7 193.7 0 0 1 5.4 1zm9.8 59.7c0-.2 1.8-1 2.2-1 .1 0 0 .2-.4.4-.8.5-1.8.8-1.8.6zm-27.7-.7c0 .2-.3.3-.4.3-.2 0-.2-.2 0-.4.4-.4.7-.4.4.1zm59.3-2.2v-2 2zm-54.6-.8c-.7-.9-.7-1.2-.2-1.2.2 0 .5.3.7.7.4 1 .2 1.3-.5.5zm-12-2.4c-.3.3-4.4-2.1-4.1-2.4l1.4.6c.7.3 1.5.5 1.8.5.5-.2.6 0 .8.5 0 .4.1.8 0 .8zm66.7-1.5c-.1.8-.1.1-.1-1.5v-1.6 3zm-55.8 1.1c-.2 0-.3-.2-.3-.5s-.2-.7-.5-1c-.3-.2-.4-.6-.3-.9 0-.3 0-.5-.4-.6-.3-.1-.8-.4-1-.7-.5-.5-.5-.6.6-.5 1 .1 1.2.2 1.5 1l.5 2-.1 1.2zm-12.2-2.1c0 .6-.1.6-1.2 0-.4-.3-.8-.6-1-.6l-.2-.9c-.2-.7-.1-.8.3-.7.8.2.6-.4-.4-1.3-1.2-1-1.2-1.3 0-1.3 1 0 1.5.6 1.5 1.6 0 .3.2 1 .5 1.6.3.6.5 1.3.5 1.6zm24.2-2.4c0 .8-.2 1.5-.3 1.6-.2.2 0-2.3.2-2.7.2-.2.2 0 .1 1.1zm-28.6-.1c-.8-1-1-1.7-.6-2 .2-.3.3-.2.4.1 0 .3.3 1 .6 1.4.4 1.2.3 1.4-.4.5zm-12.3.1c-.3 0-1.3-.9-1.3-1 0-.5.4-.3.9.4l.4.6zm-1.8-3.9c-.2-.6-.4-.8-.7-.8-.5.2-.7-.7-.4-1.4.4-.7.7-.6 1 .3 0 .4.3.8.6 1 .4 0 .6.4.7.8.1.5.6 1.3 1 1.9.6.5 1 1 1 1.2 0 .8-2.8-1.7-3.2-3zm40 2.8c-.5 0-.3-1.2.3-1.8 1-1 1.4-.5.4.5-.2.3-.5.7-.5 1 0 .2-.1.3-.2.3zM172.2 49c0 6.9-.2 11.3-.3 11.3l-.4-1a1330.1 1330.1 0 0 1-.1-53.7c-.1 0-.4.4-.5.8-.3.9-.3.8-.3-.6 0-1.6.3-2.2 1.2-2 .4 0 .5.7.8 6.1.4 6.6.3 19.7-.2 24.8l-.2 14.3zM97.5 59.7c-.2.2-.8-.5-.8-1 0-.2.2-.1.5.3l.3.7zm-21.2-1.3c-.7 1.5-1.4 1.5-2.6.2-.8-.9-.8-1-.9-3.9 0-.9.6-.8.7.1.2 1 1.5 3.1 2 3.3l.7-.1c.2-.2.1-.5-.3-.8-.5-.4-2-3-2-3.6 0-.3.7-.7 1.3-.7.2 0 .4.5.5 1 0 .6.4 1.6.7 2.2.5 1.2.5 1.2 0 2.3zm28.8.3c-.3.2-.7-1.3-1-3.4-.6-4.7-.7-6-.5-6.2.2-.1.3-.2.4-.1 2 2.5 2.3 3 2.2 4-.1.6 0 1.9.4 3l.4 2.3s-.3 0-.7-.3c-.5-.4-.6-.9-.9-3.3-.2-1.6-.5-2.8-.6-2.8-.3 0-.2 4.2.2 5.6.1.6.2 1.1 0 1.2zm10.2-1c.3 1.1-.2 1.2-.5 0-.2-.6-.2-1 0-1.2l.2-1.2c0-.6.1-1 .2-1 .5 0 .7 1.8.3 2.2-.2.2-.2.7-.2 1.2zm-28.4.5c-.6 0-1.8-.6-1.8-.8 0-.3.3-.3 1.3.3.5.3.8.5.5.5zm12.8-1.8a8 8 0 0 1 0 1.6c-.2 0-.3-.6-.5-2-.2-2-.5-2.6-.9-2-.1.2-.2.7 0 1 0 .4 0 .6-.1.5-.2-.1-.3-1.5-.3-3 0-1.7 0-3-.2-3.2-.4-.3-.7.6-.6 1.6l-.1 1c-.2 0-.3-.4-.3-1 0-.4 0-.9-.2-1-.3 0 0-5.7.2-5.7.3 0 1.2 2.7 1.6 4.4a1213.6 1213.6 0 0 0 1.4 7.8zm8.7-.3c0 .5-.2 1.1-.3 1.3-.2.3-.2 0 0-.8.1-1.4.3-1.6.3-.5zm-40 .1c-.4.8-.5 1-.5.5 0-.4 1-2 1-1.6l-.5 1.1zm89.1-1.2a7 7 0 0 1 0 1.6l-.1-.9c0-.9 0-1.2.1-.7zm-45.3 1.5c-.4-.2-.4-.4-.1-.5.1-.1.5 0 .7.2.5.5 0 .8-.6.3zm-16.4-1.4c.3.2.4.6.4.7-.2.4-.8-.2-.8-.7 0-.4 0-.4.4 0zm-18.1.8c-.4 0-1-1.1-1.3-2.4l-.3-1.1 1.6-1.6 1.8-1.6c.1 0 .4 1 .5 2.2.4 2.2.2 2.9-.6 2.9-.4 0-1.4-1-1.6-1.8 0-.3-.3-.6-.4-.6-.4 0-.3 1.2.1 2.3.3.5.4 1 .4 1.3 0 .2 0 .4-.2.4zm25.3-2.2c-.1 1.3-.2 1-.3-1.3-.1-1.8-.1-1.9.1-.8.2.7.2 1.6.2 2.1zm-18.7 0c-.3 0-.3-.8 0-1.3.2-.3.3-.2.3.5 0 .4-.2.8-.3.8zm-11.2-2.2c-.3.3-1 .7-1.4.8l-.7.2.5-1 1-1c.6-.3 3.2-1 3.8-1 .7 0 .7-.3.3-.7-.3-.3-.1-.4.6-.4 1.2 0 1.6-.9.7-1.6-.5-.5-.9-.5-2.3-.4-2 .2-2 0 0-.5 1-.2 1.6-.2 2.2 0 1 .2 1.3.1 1.1-.5-.2-.5-2-.8-3.2-.4-1.1.3-1.5.2-1-.3.2-.2 1.3-.4 2.6-.5 1.2 0 2.2-.2 2.2-.3 0-.3-1.2-.7-2.3-.8h-1l1.3-.3c1.5-.4 1.7-.8.5-1-1.4 0-.9-.6.6-.6l1.3.1-.2 1c-.2.8-.2 1 .3 1.4.9 1 1.4.5 1.4-1.2 0-1.3-.5-2.3-1.2-2.3-.3 0-.3-1.2 0-1.4.2-.3 1.6.7 2.3 1.5.8 1.1 1 3.3.2 4.2-.3.4-.5.9-.5 1.1 0 .2-.2.6-.5.8-.4.4-.6.4-1 .2-.5-.2-.6-.2-.6 0 0 .4-4.4 4.8-4.8 4.8-.2 0-.3-.2-.3-.5s-.1-.3-.4-.2l-.7.1c-.1 0-.5.3-.8.7zm28.5-2-.1 3c-.3 0-.4-.6-.3-4.6 0-2.5.2-1.8.4 1.5zm56.2 2.3v.5c-.1.1-.2 0-.2-.3s0-.4.2-.2zm-75.9-1.1c0-.7 0-.7.5-.3.5.4.5.6.2.7-.5.4-.7.3-.7-.4zm33.9-2.3c-.4.3-.6.2-.8-.2-.4-.7-.3-1 .2-1s1.1.4 1.1.8c0 0-.2.3-.5.4zM74 48c0-.3.9-.6 1.6-.6.3 0 .3 0 0 .2-.8.4-1.6.6-1.6.4zm99-1.7c.2.9.2 1.2-.2 1l-.1-1v-.9l.3.9zm-87.6-.4c0-.3-.2-.7-.4-.8-.4-.5-.3-.5 1-.7 1.2-.1 1.2-.1 1 .6 0 .3-.2.8-.4 1-.4.5-1.2.4-1.2-.1zm9.6-1.2-.7-1.9c-.6-1.2-.4-1.6.4-.8.3.4.6 1 .7 2 .2 1.5-.1 2-.4.7zm53.2.3c-.7 0-1-.8-1-3 0-1.2 0-1.3.8-1.2.7.1.7.1.7 2 0 2 0 2-.5 2.2zm-5.3-1c-.2.3-1 .3-1-.1-.4-1-1.7-9.6-1.6-9.8l.7-.3c.5 0 .6.2.9 1.5.5 2.3 1.2 8.3 1 8.7zm-2.8-2.4.2-1 .3 1.3c.2.7.3 1.4.2 1.5-.5.9-1-.4-.7-1.8zm4.8 2c-.4 0-.6-.6-.4-1 .2-.4.6 0 .6.6 0 .2 0 .5-.2.5zm1.9-3.5c-.2.1-.3 1-.4 1.7 0 1.8-.3 1.5-.6-.6 0-1-.3-2.6-.5-3.8-.6-3.2-.6-3.2.5-3.4h1.2a214 214 0 0 0 1 4.8c0 .8 0 1-.4 1-.3 0-.7 0-.8.3zm21.2 2.7c-.2 0-.4 0-.5-.2-.5-1.8-.9-23.7-.4-29.3l.2-2.3.1 3.8.8 23.2c0 3.6 0 4.7-.2 4.8zm-57-1.7c-.5.6-1 1-1.2 1-.7 0-3.2-1.1-3.7-1.6-1.1-1-5-1.6-6.4-.8-.7.3-3.7.4-3.9 0 0-.1-.3-.2-.6 0-.2 0-.5 0-.6-.4a2 2 0 0 0-1-.7c-.4-.1-.6-.4-.5-.8 0-.5 0-.6-1-.7-.9-.1-1.1-.3-1.5-1-.3-.8-.4-.9-1.7-.9-1.8 0-3-.2-3.2-.8 0-.3-.5-.8-1-1.2l-.7-.6h.8c.6 0 .8-.2.8-.4s-.1-.4-.3-.4c-.2 0-.2-.1 0-.3.5-.5.4-1-.2-1.1-.7-.2-.4-.7.3-.7.6 0 1.3-.5 1.3-.9l-.8-.2c-.5 0-.8-.1-.8-.3 0-.1.3-.2.7-.2.3 0 1-.3 1.2-.7.4-.4.9-.7 1.1-.7.5 0 .6-.7.1-.8-.2 0-.2-.3.1-.8.5-.7 1-1 1-.5 0 .2.4.5 1 .7.5.3.9.6.8.7l.5 1.2c.8 1.2.8 1.4 0 1.4-.3 0-.8.2-1.1.4-.3.2-1 .4-1.5.4-1 0-1 0-1 .5.2.4 0 .6-.4.6-.3 0-.7 0-.9.3-.6.6-.1 3 .8 3.7.5.3 3 .2 3.3-.1.1-.2 0-.5-.3-.7-.3-.2-.4-.5-.3-.8.1-.2 0-.6-.1-.8-.2-.2-.2-.3 0-.3.3 0 .6-.2.6-.4.3-.7.3-.7-.3-.7s-.7-.3-.2-.7c.4-.4 1.7-.4 1.9 0 .2.3 1.2-.3 1.2-.7 0-.6.2-.5 1.1.2 1 .8 1.2.8 1.4.3.1-.5-1-1.7-2.2-2.5l-.6-.4.6-.8c.4-.4.8-1.2.9-1.7.2-1.5.6-2 1.4-2.6a44.6 44.6 0 0 0 4.1-3c.4 0 0 2.4-.7 3.8a7 7 0 0 0-.7 1.8c0 .6.7.6 1 0 .2-.3.7-.6 1.2-.7l1.7-.3c1-.2 1.2.3.3 1.1-.3.3-.5.7-.5 1 0 .5-.3.6-.7.2-.2-.2-.6-.3-1-.2-.7 0-1 1-.3 1.5.2.2.4.6.4 1 0 .7.4 1 1.3 1 .4-.1.9 0 1 .3.5.5 1.3.5 1.5-.1.2-.4.3-.3.7.6.5 1 .7 2.8.3 2.8l-.6-.6c-.4-.6-1-.5-1 .3l.4 1.2c.3.5.3.8.1.9-.6.2-.2.9.9 1.4l1.4.5c.6 0 .4-.6-.4-.8-.5-.3-.6-.4-.3-.6l.6-.2c.2 0 5.2 5 5.2 5.2l-.9 1.2zm-10.7-2.8c-.2-.6 0-.9.3-1.1.8-.6.3-1-2-1.6-2.7-.7-3.5-.8-3.5-.3 0 .3.7.6 1.9 1 1 .3 1.8.6 1.7.7l-1.6-.2c-1.8-.3-2.5 0-1.5.8.4.3.5.5.3.6-.6.2.2.8 1.4 1 2.6.4 3.3.2 3-1zm5-.6c0-.1-.4-.3-1-.3-1-.1-1.4.3-.5.5.7.2 1.5.1 1.5-.2zm3.3-.3c-.1-.6-1-.8-1-.2 0 .2.1.4.3.5.6.2.8.2.7-.3zm-6.9-2.8c.5 0 1-2.3.7-3-.2-.6-1.4-.4-2.3.3-.4.4-1 .7-1.4.7-.7 0-1.4.7-1 1 .2.3.7.2 1.6 0 1.6-.6 1.7-.6 1.7.1l.1.8c.2.1.4.2.6.1zM97 30.4c.6.4.7.4 1.5 0 .8-.2 1-.8.3-1.3-.3-.2-.4-.2-.5.1-.2.4-.4.4-1 .3-.6-.1-.7 0-.7.3 0 .2.2.5.4.6zm-6.6 10c-.3-.4-.2-1.2.1-1.2.7 0 1.1.5 1 .9-.2.4-.8.5-1.1.2zm-1.8-.7c-.4-.7-.2-1.7.4-1.8.3 0 .4.1.4.8 0 1.3-.4 1.8-.8 1zm-28.8-.5c0 .4-1.1.5-1.3 0v-.4c.2-.2 1.3.1 1.3.4zm2.4.5c-.9 0-1.6-.1-1.6-.3 0-.3 2.4-.3 2.9 0 .3.2-.1.3-1.3.3zm-9.7-.5c-1.9-.1-2.4-.2-2.4-.5 0-.5.7-.5 5.3-.2 1.7.2 2.3.3 2.3.6 0 .4-.6.4-5.2.1zm-4.4-.3c-1-.4-1-.8.3-.8.7 0 1 .1 1 .4 0 .5-.5.6-1.3.4zm-3.2-.2c-.2 0-.5-.3-.5-.5 0-.3.3-.4 1-.3.7 0 1 .2 1 .5 0 .4-.7.6-1.5.3zm83.2-.3c-.1.6-1 .7-1.3.2l-.2-2.5V34h2.2c2 0 2.2 0 2.5.7.3.8 0 2.4-.6 2.8l-1.4.3c-.7.1-1 .4-1.2.7zm1.5-1.7a2 2 0 0 0-.3-.8c-.4-.5-.4-.5-.6 0 0 .2-.1.6 0 .8.2.5 1 .5 1 0zm-51.9 1c-.2.5-.5.9-.8.9-.4 0-.4-.3-.4-4.8a128.4 128.4 0 0 1 .3-5.3c-.1 3 0 4.6.1 4.6.2 0 .4.7.5 1.7 0 .9.3 1.7.4 2 .2.1.2.5 0 1zm-19.2-.1c0-.4.2-.5.6-.5.8 0 1.1.4.7.9-.6.7-1.3.4-1.3-.4zm2.8.7c-.6.1-.7 0-.7-.4 0-.5.2-.6.8-.6.6 0 .8.1.7.5 0 .3-.4.5-.8.5zM81 38c-.4 0-.8-.5-.6-.8.2-.2 1 .2 1 .5 0 .1-.2.3-.4.3zm62.8-1.2c-.1.4-.2.3-.3-.2 0-.5 0-.7.1-.5.2.1.2.4.2.7zm-59.4-.6c-.5.7-1 .9-1.3.5-.2-.4 0-1 .8-1.5.6-.4.7-.4.8 0 .1.2 0 .7-.3 1zm97.6-1c-.2 1.5-.3.8-.3-4v-5.8l.3 4c.2 2.6.2 4.7 0 5.9zm-101.2-.4c-.8 1-1.5 1.4-1.2.8.8-1.8 1.4-3 1.6-3l1 .6 1.1.6c.5.2.5.2 0 .8-.6.7-1.3 1-1.7.8l.2-.6c.3-.4.4-.6.2-.8-.2-.2-.6 0-1.2.8zM79.7 32c-.3.3-.7 1-1 1.7-.2.7-.5 1.1-.6 1a293.3 293.3 0 0 1 .6-28.3c.1-3.5.3-4.2.9-3.6.3.3.3 3 .3 12.9 0 6.9 0 12.5.2 12.5.4 0 .5-5.5.5-15.2 0-6.8 0-10.3.2-10.5.1-.1.8-.2 1.4-.1h1.2V4c.1.7.2 4.6.1 8.7 0 5 0 7.5.2 7.7.4.2.4.7.6-9.6l.1-8.2h.6c.5-.1.6 0 .6.4l.4 4.3c.2 2 .4 6.1.4 8.9 0 2.8.1 5 .2 5 .2 0 .3-2.4.4-5.5.3-8 .5-13 .7-12.8l.1 8.5c0 4.9.2 8.5.3 8.6.2 0 .2-2.7.2-7l.1-8.9c.2-1.6.2-1.6.9-1.5h.7l-.1 3.6-.3 9c-.1 4.6 0 6 .4 5.5l.2-6.8.4-9 .1-2.3.8-.2a8 8 0 0 1 1.9 0c.7.1 1 .3 1 .7 0 .3-.3.6-.6.7-.6.1-.6.2-.4 3.2l.2 8c0 4.6 0 4.8-.5 5-.3.1-.6.3-.7.5-.1.1-.5.3-1 .3-.4 0-.8.1-1 .4-.2.2-.5.3-.7.2-.2 0-.4 0-.5.2-.1.1-.4.4-.8.5-1.4.7-2.2 1.3-2.6 2.3-.3.6-.7 1.1-.8 1.1-.4 0-3 2.5-3 2.8 0 .3-1.2 2.6-1.5 3l-.8.9zm5.7-11.2c.1 0 .2-2 .2-5.3 0-3.6-.1-5-.3-4.2a51.6 51.6 0 0 0 0 9.5zm6.3-.6c.2-.1.3-3.2.2-8.3a50 50 0 0 0-.2-7.6c-.1.3-.2 4-.2 8.3 0 5 0 7.7.2 7.6zm45.8 13c-.3-.4-.2-.5.2-.5.3 0 .6.2.7.3 0 .1.4.3.7.3.2 0 .5.1.6.4.3.7-1.8.3-2.2-.5zm11.7-.4-.2 1-.7-.5-.6-.5.8-.7.8-.5-.1 1.2zm-6.5-.3c-.3-.2-.2-.6.2-.6.2 0 .4.2.4.3 0 .3-.4.6-.6.3zm1.5.2c-.2 0-.4 0-.4-.2s.1-.3.3-.3l.4.3c0 .1 0 .2-.3.2zM119 31l-.1-.4V30v1zm-.3-2.9v.5c-.1.1-.2 0-.2-.3s.1-.4.2-.2zm-16.3-.3c0-.2.2-.4.4-.4s.4.1.3.3c-.1.5-.7.6-.7.1zm16.3-1.2c0 .4-.1.1-.1-.5 0-.7 0-1 .1-.6v1.1zm57.5-11c0 6.2 0 9.7-.3 9.7l-.2-1.4c0-3-.6-15.2-.7-16-.1-.5-.3-.9-.5-.9-.5 0-1.3-1.7-1.2-2.6.1-.7.2-.7 1.4-.7l1.4.2.1 1.1v10.7zm5.5 7.2v.5c-.1.1-.2 0-.2-.3s0-.4.2-.2zm-90.4 0s.2-.2.5-.2c.2 0 .6-.1.7-.3.4-.4.7-.1.5.4-.1.5-1.7.6-1.7.2zm88.3-2.6v.5c-.1 0-.2 0-.2-.4 0-.3 0-.3.2-.1zm-84.3-.7c-.6.6-1.1.6-1.1 0 0-.2.1-.3.5-.2.4.1.5 0 .5-.2 0-.3.2-.5.3-.5.4 0 .3.4-.2 1zm36.4.3-.2-1-.4-2c-.5-1.3-.2-1.4.6-.1.4.6.7 1.3.7 2 0 1-.3 1.5-.7 1.1zm47.9-1v.6c-.1 0-.2-.1-.2-.4 0-.3 0-.4.2-.1zm1.1-.6c-.2.8-.2.7-.2-.3 0-.7 0-1.6.2-2 .2-.7.2-.7.2.4 0 .6 0 1.5-.2 2zM94.4 9.5v7.2c-.2 1.9-.2 1.8-.3-1.9 0-2 0-5.3-.2-7.2-.1-2.2 0-3.3.1-3.3.2 0 .3 1.9.4 5.2zm3 8.5-1 .5-.2-3.7V2.4h.8c.8 0 .8 0 .8 1.6 0 .8-.1 1.6-.3 1.7-.2.1-.2.6-.1 1.2.2 1 .2 3.5.1 7.3l.1 2.7c.5.7.7-.1.8-2.1v-2.2l.2 1.7c.3 2.5.1 3-1.1 3.7zm-2-.8c-.1.4-.2 0-.2-.8s0-1.1.1-.7v1.5zm84.5-5.2c0 3-.2 5.4-.2 5.4l-.2-1.8c-.2-2.3 0-9 .3-9 .2 0 .2 2.5.1 5.4zm2-5.8c.2.2.3 2.5.2 5.5v5.1l-.2-3.4c-.3-4.9-.3-7.8 0-7.2zM77.4 12.7c-.1 1.3-.2 1-.2-1.5 0-2 0-3 .2-2.8.2 0 .3.7.3 1.5l-.3 2.8zm91-.4v.8c-.1.1-.2 0-.2-.5 0-.4 0-.6.2-.3zm-2-3-.3 2.3-.2-4.8-.2-3.6h1c1.2 0 1.4.3 1.6 3.1l.1 2.2h-.7c-.6 0-.6-.1-.5-.7l.3-2.3c.2-1.3.1-1.5-.1-1.5-.2.1-.5.5-.6 1l-.4 4.3zm14.4 3-.1-.6V11c.2.3.2.8 0 1.2zm-23-4.8v3.1c-.3 0-.4-1.4-.2-3.7l.2-2.5v3.1zm-31.7 1.9c-.5.1-4.5-.3-6-.6-1-.2-.4-.2 1.9-.1 3.1 0 6.5.5 5.1.5l-1 .2zM98.8 6.2V8l-.1-1v-.8zM117 8.5l-.2-.3c0-.3-1-.4-4-.6-2.9-.2-3.8-.4-3-.5 1.4-.2 8 .2 8.8.5.6.3.6.3-.3.3-.6 0-1 .2-1 .3 0 .2-.2.3-.3.3zm-11.4-1.3c-.3-.2-.1-.3.6-.3.5 0 1 .1 1.1.3.3.3-1.1.3-1.7 0zm2.2-.6a7 7 0 0 1-2.6-.2c-.2-.3 2.5-.4 4 0 .9.1.6.2-1.4.2zm8.6-.1-.3.1c-.4 0-.4 0-.2-.1h.5zM100.8 6c.5.2.4.2-.3.3-1 0-1.4-.6-.8-1.2.3-.3.8-.3 2.9-.1 3 .3 3.7.7.8.6h-2.6l-.5.2.5.2zm-5.5-.6-.1-.4c0-.6 0-.8.1-.5v1zm-8.6 0c-.2 0-.3-.4-.3-1s.1-1 .3-.9l.2 1c0 .6 0 1-.2 1zm23.6-.1-.7.1c-.8 0-1 0-.6-.1h1.3zm12-.9c0 .5-.2 1-.3 1a18 18 0 0 1-2.5-.6c-2.4-.6-2.7-.9-2.1-2 .2-.4.5-.5 1-.4.6 0 .7.2.8 1 0 1.3.6 1.2.8 0 0-.6.2-.8.7-.9 1-.2 1.7.7 1.6 1.9zm54.9-.3c0-.3.1-.5.7-.5.9 0 1.5.6 1.3 1.2-.3.8-2 .3-2-.7zm-99-.6c-.1.4-.2.4-.6-.2-.4-.6-.4-.7 0-.8.2-.1.4 0 .5.2 0 .2.1.6 0 .8z"/>
</svg>
