<?xml version="1.0" encoding="utf-8"?>
<svg xmlns="http://www.w3.org/2000/svg" xmlns:svg="http://www.w3.org/2000/svg" version="1.1" viewBox="0 0 161 136">
	<title>Mr. Tod stands on a chair at the head of the bed, inspecting the bucket and the “sleeping” Tommy Brock.</title>
	<path d="m118.7 135-91.7-.3c-20.4 0-21.5 0-23.3-.6-2.3-.6-2.8-1.2-2.8-3 0-.7 0-4.3-.2-8S.4 92.6.3 60.4A4067.2 4067.2 0 0 0 .3 2C.4.9.5.8 1.2.9 1.9.9 2.6.9 3 .7A2422.4 2422.4 0 0 0 50.3.4C78.6.1 77.1.1 87 .3l8-.1c.3-.4 4.3 0 4 .4-.2.4 6.8.4 7.1 0 .2-.3 5.3-.3 5.7 0l17.1.3c16.2.1 16.9.1 17.8-.4 1-.5 1.7-.6 1.7-.2 0 .4 1.5.6 4.7.5 3.5 0 5.1.3 5.1 1 0 .2.4 1 .8 1.5l.7 1v5.5a760.6 760.6 0 0 1 .8 55 2491 2491 0 0 1-1.3 55.6l-.3 8.9c-.1 1-1.4 3.8-2 4.4-.2.3-4.7.7-11.8 1-7.2.3-26.1.6-26.3.4zm-74.3-2.8c.2-.4.2-.4-.3-.4-.3 0-.5.2-.5.4s0 .4.2.4l.6-.4zm96.5-.1a118 118 0 0 0 10.5-1c.4-.4 1-.6 1.2-.6.6 0 3-2.3 2.8-2.7a36.8 36.8 0 0 0 1-11.4 493.8 493.8 0 0 1 .2-13.2c-.6 0-.2-19.2.4-22 .2-1.5.4-19.8.1-20.1-.3-.5-.4-12.5-.2-26.6a105 105 0 0 0-.2-15.6l-.6-7c-.1-4.1-.3-6.3-.7-7 0-.2-.5-.5-1-.7-.6-.4-4.7-.8-6.9-.8h-25c-2.1 0-8 0-13 .2A486.3 486.3 0 0 1 75 3.2 216 216 0 0 0 53.8 3l-20.6.3-16.9.1.5.5c.5.3.5.5.3.8-.3.3-.3.5.2 1 .6.3 1.1.4 4.3.4l8.3-.2c4.6-.3 4.8-.3 5.5-1 .8-.8 1.3-.7 1.3.3V6l10.2-.2a443.6 443.6 0 0 0 18.8-.6c.7 0 1.4.9 1.7 2.4l.4 1.6c0 .2-.1.6-.4 1l-.6.5 2.2 4.3a118.5 118.5 0 0 0 4.5 8.5c1.2 2.3 1.5 2.3 1.5.1 0-.7.2-1.3.3-1.3.3 0 .3 0 .3 3.2 0 2.5 0 2.6 1.2 5 .6 1.3 1.3 2.4 1.4 2.4.1 0 .3-2.3.4-5.2.2-5.8.4-7.8.8-7.7a332.3 332.3 0 0 0-.1 7.7l-.3 7 .9 1.6.9 1.6.3-5.9c.5-8.8 1-13 1.7-13a100.6 100.6 0 0 0-1 14.4l-.2 6.3.9 1.6.9 1.6V40c.2-7.7.7-19.2 1-20.4.3-1.7.8-2 .6-.3-.4 3-.5 4.8-.7 14.6l-.2 10.6 1.2 2 1.1 2 2.3.2c3.7.3 10.6 2.3 12 3.5l.8.6.1-4.2c0-5 0-5 2.6-5 2 0 3.5.7 3.2 1.7-.1.5 0 .7 1.3 1.3.8.4 2 .7 2.5.7l2.6.3c1.2.2 1.6.2 2-.1.5-.5 5-.4 6.5 0 .8.4 1.1.7 1.6 1.6.5 1.2.5 1.5.3 7a134.7 134.7 0 0 1-.2 7.6c.1 0 .3-.8.4-1.8a30.9 30.9 0 0 0 1-8.7 461.7 461.7 0 0 1 .7-16.6c.2-6.7.2-6.2.5-5.8.2.2 0 9-.5 22.6-.3 9.4-.5 17.3-.2 15.3l.3-6c.2-4.8.3-5.7.7-5.5.4.2.5-1 .7-6.5.2-5.7.3-6.6.6-5.7.2.4.3-.3.3-1.9 0-6.7.5-15.2 1-15.6a397.2 397.2 0 0 0-.1 40.3c0 .5-.1 22.8-.3 25.3-.3 4.4-.5 2.9-.4-2.9 0-3 0-6.2-.2-7-.1-1.2-.2 1.3-.2 8.7l.1 10.6.8.4.5.1v-26c0-26.8.2-39.2.7-39.2.2 0 .2 2.2.1 6.9a124 124 0 0 0-.2 17c.1 0 .3-1.4.4-3.2.2-2 .3-3.3.5-3.3.3 0 .2 3.8-.5 15.6a345 345 0 0 0 0 31.9c.1.2.2-2.5.1-9.8 0-9.9.2-17.2.6-17.7.3-.3.4-5.5.7-28.4.1-12.5.4-19 .8-19.3.4-.4.5.5.3 2-.3 2.5-.4 41.3 0 42.1.2.6.3.3.4-1.8a131.9 131.9 0 0 1 .1-8.2c0-3 .2-4.3.4-4.3s.2 2 0 8l-.2 9a749.9 749.9 0 0 0 .2 25.6c0 2.6.2 3.3.9 3 .3 0 .4-2 .4-10.8a314.1 314.1 0 0 1 .5-24.3c-.1-.1-.3-1-.3-2.1 0-2.4-.1-2-.7 4l-.5 4.7v-3.4l.5-6.4c.3-4.5.7-11.4 1-19.7.3-8.7.5-10.6.9-10.4.2.2 0 5.6-.3 7.5 0 .5 0 .8.1.7.2-.1.4-1.1.5-2.3.3-3.6 1.3-9 1.7-9.2.4-.1.4 0-.4 4.5a165.6 165.6 0 0 0-2 27.5c.2-.7.3-1.8.3-2.5 0-.8.1-1.2.3-1.2.2 0 .3.8.1 3a329.9 329.9 0 0 0-1 34c-.3 6.7-.3 6.3.6 6.3h.9l-.2-3.6a398.8 398.8 0 0 1 .3-39.2c0-.4.1-.4.4 0 .3.4.4.2.4-1.2l.7-15.8c.2-2.8.4-3.6.8-3l-.1 3a760 760 0 0 0-1.4 31.9c-.3-.3-.3-1.6-.3-5.6 0-4 0-4.7-.2-2.8-.6 7-.4 34.6.2 36 .3 1 .6-1.2.5-5.5v-2.9l-.4 1.7c-.5.5-.3-4.7.8-20.3.5-8.6.7-11.5.9-21.3.2-8.2.4-11.2.7-11a1024 1024 0 0 0-.2 49.6c-.4 0-.6-3.3-.6-8.3 0-2.8-.1-4.1-.3-3.9-.3.5-.3 17.2 0 21 0 2.2.1 2.3.7 2.3.4 0 .6-.2.6-.5a8047.2 8047.2 0 0 0 .5-42.9c0-3 .1-3.7.4-3.3.2.3.2 2.7.1 8 0 6.5 0 7 .2 4.3.3-3.5.8-4.7.6-1.6a613.2 613.2 0 0 0-.7 34c0-1.3-.5-.8-.5.5 0 1.4 0 1.5.8 1.6h1l.1-1.8c-.2-22 0-30.3.5-31 .2-.3.2-9.9 0-14.1l-.2-3-.1 2.4-.2 7.2c0 6.3 0 8-.2 7.9a158 158 0 0 1-.2-15.6 53.7 53.7 0 0 1 1.4-10.3c0-1 .2-1.5.5-1.5.3-.1.3 0 .2 1a102 102 0 0 0-.5 11.6c0-.6.1-1 .3-1 .1 0 .2 3 .1 6.9 0 7.5.1 6.6.7-3.2l1-13c0-.7.2-1.3.4-1.3s.2.6 0 1.9a427.5 427.5 0 0 0-1.8 54.4l-.4-5.5c-.2-2.9-.4-5.3-.5-5.2-.2.2-.4 11-.2 13.2l.2 2.3h1.2c.6 0 1.1-.1 1.2-.3l-.1-3.9a272.7 272.7 0 0 1 .4-32.6s.2.1.2.3c0 .1 0 .2.2.1a370 370 0 0 1 1.7-21.6c.2 0 .2.7.1 2.5a27644.3 27644.3 0 0 1-1.7 22.3c-.4-.2-.6 4.1-.3 4.5a93.7 93.7 0 0 0-.3 16.6c.2 0 .3-.7.3-1.5l.2-1.6c.3-.3.5-3.5.7-14.4a324.5 324.5 0 0 1 .6-10c.2.2.1 6.4 0 14-.2 10.2-.2 14.2 0 15 .3 1 .3.4.2-3-.1-4.3.3-13.4.7-13.7.1-.3 0 18.7-.2 19.3 0 .2-.2.2-.6-.1-.5-.4-.6-.8-.6-2.6 0-1 0-2-.2-2-.4 0-.6 2.3-.6 7.7v4.9h1l1.1.1.2-2.7.4-11.3a177.9 177.9 0 0 1 1.3-17.2l.4-6.5.5-6.7c.1-1.3.3-2.4.5-2.4.3 0 .2 1.5-.5 9l-.6 10.1c-.2 3-.4 6.1-.6 6.8-.1.6-.3 3.3-.3 6 0 2.6-.1 4.8-.2 5l-.3 5v4.8h.6l.7.1.2-4.2a1933.7 1933.7 0 0 1 .1-7.9l-.2 2.8c0 1.2-.1 1.9-.3 1.9-.3 0-.2-4.3.3-9.8l.5-5.8.5-3.2c.2 0 .3-1.4.3-3.5 0-3.4.7-12.7 1-13.4.3-.8.4 2 0 4-.3 2.4-.6 15.2-.2 14.2l.2-2.3c0-1.1.2-1.6.3-1.5.2.1.3.8.2 2l-.4 10c-.3 9.4-.6 11.8-1 6.5l-.1-5.3c-.1-3.7-.5 3.1-.5 9.5 0 5.6 0 6 .4 6.4.5.4.5.4-.1.5-.6.2-.6.3-.4 2.4l-.1 2.2c-.4 0-.6-1-.6-3v-1.7H150l.1 2.5-.1 2.5c-.2 0-.3-1-.4-2.5v-2.5h-1.1c-1 0-1 0-1 .9s-.5 1.6-.6.9a41.7 41.7 0 0 0-.2-1.5c0-.4-1.6-.6-2-.3-.2.2-.3.5-.3.7.1.2 0 .5-.1.7-.3.3-.3 1.2-.2 3.3.2 2.1.2 3 0 3s-.4-.5-.4-1l-.2-3.8-.2-2.8h-1l-1-.2v5c-.2 2.2-.2 2.2.5 2.2.4 0 .6.2.6.4 0 .3-.2.4-.7.4-1.1 0-.5.7.7.8 1.3 0 1.4.5 0 .6-.8 0-1 .1-1 1v.8h1.4c1 .1 1.6.2 1.7.5a70.8 70.8 0 0 1-12-.1c-.4-.3.5-.7 1.5-.7 1.5.1 1.5 0 1.5-.8v-.7l-4.4-.1c-3.3 0-4.4-.2-4.5-.4 0-.3.7-.4 4-.4 5.3 0 5 .1 5-.3s-.8-.4-4.5-.5c-2.8 0-4.4-.2-4.3-.3 0-.2 1.8-.3 4.3-.3 2.3 0 4.2 0 4.3-.2v-3.5l-.2-3.3h-.7c-1.2-.3-1.3-.1-1.3 2 0 1.1-.2 2-.3 2-.2 0-.3-.9-.3-2v-2h-.9c-.9 0-1 0-1 .8 0 1-.5 1-.7-.1 0-.7-.7-1-1.4-1-.2.1-.4-.3-.5-1-.2-1-.4-1.1-.8-1-.6 0-.6.1-.5 2.5 0 1.4.1 2.6.2 2.7.1.1.9.3 1.7.3 1.1 0 1.4.2 1.5.6 0 .4 0 .4-1.5.3l-1.7-.2.2 1c.2 1.5-.2 1.5-.6.1-.4-1.3-.6-1.4-1.8-1.2l-1 .2.2 1.3c.2 1.2-.1 2-.5 1.1 0-.2-.3-2.4-.4-5-.2-3.2-.4-4.6-.7-4.9-.3-.3-.3-.5 0-.6.2-.2.1-3.6-.3-5.5-.2-1.2-.6-.6-.6 1 0 4-.2 9.2-.4 12.7-.3 3.1-.2 4.1 0 4.7l.6 1.5c0 .4.8 1.7 1.6 3 .7 1.4 1.4 2.7 1.4 3.1 0 .4.2 1 .5 1.2.3.2.5.6.5.7a29 29 0 0 0 3.6 6c1 .9 1.8 1 4.4 1l7.1-.4zm.4-8.2c-3.9-.2-5-.3-5-.6a109 109 0 0 1 12.2.1c1 .3.5.7-.9.7l-6.3-.2zm13.6-18.7v-2.8a658.9 658.9 0 0 1 .5-20.9c.3-13.2.4-17.2.7-17 .2.1.2 2.7.1 7.2a80.3 80.3 0 0 0 0 10.5c-.3 4.1-.8 17-.8 21s-.4 5.5-.5 2zm-4.8-33.7c.2-8 .7-17.2.9-17.2.4 0 .4.7.2 3.7l-.5 9.2c-.3 7.4-.8 10.5-.6 4.3zm-25.2-29.2c0-4.4.2-6.5.4-6.7.3-.2.3.6.2 3.7l-.2 6.7c0 1.9 0 2.7-.3 2.7-.2 0-.3-1.6-.1-6.4zM88.5 46l.4-7 .7-13c.4-7.7.7-11 1.3-11.1.3-.1.3 0 .2.8-.4 2.3-.7 5.8-1 12.6a391.2 391.2 0 0 1-1 17.9c-.2.6-.6.5-.6-.2zm34.4-1.1c0-2.5.5-9.3.7-10.7.1-.6.3-1.1.5-1.1a210.8 210.8 0 0 0-.3 7.7c-.4 5.3-.9 7.8-.9 4zm-11.9-.4.3-3c.2-1.3.3-7.3.3-13.4 0-10.4.2-15.2.8-15.8.4-.4.5.1.2 1.8-.2 1.1-.3 5.3-.4 12.6 0 10.2-.2 15.7-.5 17.6-.2.8-.7 1-.7.2zm3-11.9c.2-10.5.5-15.2 1.1-15 .2 0 .3.3.2.6a275 275 0 0 0-.8 22.5c0 1.5-.1 2.4-.3 2.4-.2 0-.2-3.2-.1-10.5zm3 3.6c.1-6 .5-11 .8-11.2.4-.5.4.4.1 3.1a142 142 0 0 0-.4 8.5 24 24 0 0 1-.5 5.5c-.1 0-.2-2 0-5.9zm-8.3-7.4c0-11.5.1-14 .6-13.7a507.4 507.4 0 0 0 0 13.3c-.1 7.1-.3 12.1-.4 12.1-.1 0-.2-4.7-.2-11.7zm-4 .2c0-7 0-10.6.2-11.7.5-2.2.6-2.5.9-2.3.1.2 0 .9-.1 1.8-.2 1-.3 5-.3 12A83 83 0 0 1 105 39c-.2 0-.3-3.5-.4-10zm-12.6 9.5c-.5-1.1.3-18.7.8-20.2.3-.9.6.2.4 1.4-.2.8-.4 5.3-.5 10.2-.1 4.8-.3 8.8-.4 9 0 0-.2-.1-.3-.4zm3.6-1c0-1.3.8-14.7 1-15.8.2-2 .7-4 1-4v1c-.3 1.6-.7 6.4-1 12.1l-.4 6.3c-.2 1.1-.6 1.4-.6.4zm24.5-2.5c.2-4.2.6-8.3.7-8.5.4-.3.5.5.2 4l-.5 7.2c0 .2-.2.4-.3.4-.2 0-.2-1-.1-3zm-19.9-4.6c.2-8.3.6-12.4 1.2-12.6.3 0 .3.2.2 1.2-.4 2.9-.7 7.7-.9 13.1a27 27 0 0 1-.4 5.8 40 40 0 0 1-.1-7.5zm-14 6.3c-.3-.7 0-17 .4-18.9l.4-1.6c.4-.4.4.4.1 2.9L87 29c0 6.8-.2 8.9-.7 7.6zm40.9 95c0-.4-.9-1.4-1.4-1.6-.3 0-.5-.4-.5-.8s-.3-1.2-.6-1.7a4 4 0 0 1-.7-1.3 84 84 0 0 1-2.7-5.4c-.5 0-.3 4.1.3 6l.5 1.5-.8.8-.7.9h-4.2c-3.9-.1-4.3-.2-5.4-.8-.9-.4-1.2-.8-1.2-1.3 0-.4 0-.7.2-.7l.2-.8v-.8h-2c-1.4 0-2 .1-2 .4 0 .3.4.4 1.4.4 1 0 1.3 0 1.3.4 0 .3-.3.4-1.1.4-1.1 0-1.2 0-1.4.8-.2 1-.6.8-.7-.3 0-.4-.3-.7-.6-.7-1.1-.2-1.4-.4-.6-.6 1.2-.2 1.2-.8 0-.8-.9 0-.9 0-.9 1.2 0 .6 0 1.2-.2 1.2s-.3-.4-.3-1c0-1.2-.2-1.7-.8-1.7-.3 0-.6-.1-.6-.3-.1-.2-.2.6-.1 1.8 0 1.3 0 2-.3 2.2-.2 0-.3-.7-.4-2.2l-.2-2.3-.9.2c-.4 0-1 .3-1.1.4-.3.2-.4.2-.5-.1-.3-.7-1-.5-1 .2 0 1-.3 1-.6.1-.3-.7-.4-.8-1.8-.8s-1.5 0-1.5-.6-.1-.7-1-.7h-.8v1.3c0 .7-.2 1.4-.3 1.5-.2.1-.3-.4-.3-1.3l-.1-1.5h-1c-.8.2-.9.2-1 1.5 0 1.9-.5 1.8-.5 0 0-1.1-.1-1.5-.4-1.5-.2 0-.5-.2-.6-.4-.5-.9-.7-.1-.8 2.4 0 3.1 0 3.1-.3 3a9 9 0 0 1-.3-3c0-2.8 0-2.8-.6-2.7-.7 0-1 .8-1 3 0 2.4-.5 1.9-.6-.6 0-2-.1-2.4-.5-2.4-.3 0-.6 0-.7.4-.1.7-.6.7-.6 0s-1.2-.7-1.3.1c-.2.8-.8 1-.8.1 0-.6-.1-.7-.8-.7h-1l-.3 2.7c0 1.6-.2 2.7-.4 2.7s-.2-2-.2-5.5l.1-5.4h-.7c-.3 0-.7 0-.7.2l-.3 4.4c-.2 4.8-.4 6-.7 5.8a28 28 0 0 1 0-5c0-4.5 0-4.9-.4-5-.2-.2-.7-.1-1.1 0l-.7.4.2 3.8c.2 3.3.1 3.8-.2 3.8-.3 0-.4-.7-.6-3.9-.1-3.2-.2-4-.6-4.2-.2-.2-.5-.2-.7 0-.1 0-.2 2-.2 4.3 0 2.5-.2 4.3-.3 4.4-.2 0-.3-1.7-.4-5 0-4.9 0-5-.6-5-.5 0-.5.1-.5 4 0 2.3-.1 4.1-.2 4.1-.2 0-.4-2-.5-4.3-.1-3.9-.2-4.5-1-6.1l-.7-1.9.1 1.9c.4 5.2.5 8.6.2 8.6s-.5-1.8-.7-6.1c-.3-6.4-.8-10-1.5-10v.5c.2.2.3.6.2.7 0 .1-.2 3-.2 6.5-.2 6-.4 7.9-.9 6.7l.2-5c.2-4.1.2-7-.2-7.7l-.5-.2c-.3 0-.3 1-.2 6 0 3.9 0 6.2-.2 6.4-.1.2-.3.4-.4.3l-.1-6c0-3.3-.1-6.2-.2-6.3-.1-.4-1.4-.5-1.4-.2l.3.6c.3.2.3.3 0 .5-.2.1-.3 1.9-.4 6.4 0 4-.1 6.2-.3 6.1-.2 0-.3-2.3-.3-6.1 0-3.9 0-6.1-.2-6.2-.2 0-.3 2.1-.4 6 0 6 0 6.7-.5 6.4-.2 0-.2-2.6-.1-6.2 0-4.6 0-6-.2-6.2-.2-.1-.4-.2-.5 0v4.1c0 4-.1 5-.6 5-.2 0-.2-.6-.1-1.7.2-2.3-.1-7.6-.5-7.5-.2 0-.3 1.3-.3 3.6 0 2.4-.1 3.6-.3 3.7-.2 0-.3-1-.3-3.4 0-3.5-.1-4-.6-4-.2 0-.3 1.2-.2 3.8.1 4 0 4.7-.3 4.7-.2 0-.3-1.9-.3-4.1 0-2.8-.2-4.2-.4-4.3-.2 0-.4 1.3-.5 4.2a48 48 0 0 1-.7 8.8l-.5 1.2c-.3 0-.3.3.1-4.3.2-2.2.5-5.3.5-7 0-2.8-.1-3.7-.6-3-.2.3-.8 14.7-.7 18 0 1.7-.2 2.4-.5 2a68.5 68.5 0 0 1-.1-12.5c.4-.8.5-7.4.1-7.5a34 34 0 0 0-.7 8.6c0 1-.2 1.6-.4 1.5-.3 0-.3-1 0-7.2.2-4.1.2-4.7-.2-4.8-1-.4-1.2 0-1.2 2a163.3 163.3 0 0 1 .5 20.4c-.2.2-.5-6.2-.5-11.7 0-3.5 0-4.4-.4-4.7-.3-.3-.4-.9-.2-3.2.1-2.2 0-2.8-.2-2.7-.3.1-.3 2.3-.3 10.5 0 5.7-.1 10.4-.2 10.4-.3 0-.6-1.8-.4-2.7.1-.4 0-.8 0-.8-.2 0-.3 1-.4 2.1 0 2 0 2.2.7 3 2 2.2 4.9 2.4 27.5 2.1a1794.9 1794.9 0 0 1 51.6.3c.2.3.9 0 .9-.4zm-91-3.3c0-3.2 0-3.5.5-3.8.4-.2.5-.5.5-2.1s0-1.9-.3-1.6c-.5.5-1 2.9-1 4.2 0 .6 0 1.1-.2 1.2l-.2 2.6c0 1.4-.1 2.3-.3 2.3-.1 0-.2-.8-.2-1.9 0-1 0-1.7-.2-1.7-.1 0-.6.2-1 .6-.7.8-.9.8-1.3.3-.6-.7-.8-.5-.8.6 0 .7 0 .9.3.6.5-.5.7-.3.7.7l.2 1.2 1.7.2h1.6zm-17.6 2-.2-1.2.1-1.7c.2-1 .1-2-.2-3.2l-.7-5.6c-.4-4.4-.9-4.8-.8-.8 0 1.7.2 3.1.6 4.2.6 2 1 5.7.5 5.7-.1 0-.3-.2-.3-.5s0-.5-.2-.5c-.3 0 0 3.2.3 4.1 0 .4.4.6.6.6.4 0 .4-.2.3-1zm21.3.5c.2-.4.3-2.8.3-8.5 0-6.9 0-8-.3-8-.4 0-.5 1.1-.6 7.7 0 4.2-.2 7.7-.2 7.8h-.3a37 37 0 0 1-.2-7.8c0-5.4 0-7.9-.2-8-.2 0-.4 2-.6 6.2a30 30 0 0 1-.5 6.5c-.2.2-.4 1.2-.4 2.5v2.2h1.4c1 0 1.3 0 1.6-.6zm-10.2-.9c-.5-2.9-.6-3.3-.8-3.3-.4-.1-.5 4-.1 4.3.9.6 1 .3.9-1zm1.4 0c0-1.6-.2-2.2-.7-2.2-.3 0-.4.3-.2 1.3.2 1.6.4 2.2.7 2.2.1 0 .2-.6.2-1.3zm-11.3.1c-.1-1-.2-1.1-.5-.9-.2.2.2 1.8.5 1.8v-.9zM28 129c-.1-2-.9-4.2-1.3-3.9l.2 3c.3 2.4.5 3 .8 3 .3-.1.4-.5.3-2.1zm13.3 1.5c.2-.7 0-12.4-.3-12.6v4.5a110 110 0 0 1-.1 8.7l.4-.6zm2.4-.4v.8c.1-.2.1-.5 0-.8zm-17.3-.6c0-.7-.3-2.5-.6-4a33.1 33.1 0 0 1-.8-4.5c-.1 0-.2 2.1-.2 4.7 0 3.8.2 4.7.5 4.9.8.5 1 .3 1-1zm18.5.8c0-.2-.1-.3-.3-.3l-.2.4c0 .3 0 .4.2.3.2-.1.3-.3.3-.4zm-20.5-1-.2-4.3c0-3.6-.2-5-.8-5-.3 0-.1 9.2.2 9.7 0 .2.3.3.6.3s.3-.1.2-.6zm-10.9-1.6c-.2-2.5-.6-2.8-.6-.3l.1 2.2c.5.4.6-.2.5-1.9zM7 124c0-2.9 0-6.8-.2-8.6v-3.5c.2 0 .3-1.5.2-3.7 0-4.9 0-6 .2-11.6.1-4.4.1-4.9-.3-4.4-.3.4-.4 1.4-.4 5.3 0 3.2 0 4.7-.2 4.4-.4-.6-.4-14.7 0-15 .2-.1.2-1.4 0-4.7 0-2.5-.2-7.1-.1-10.3.1-22.5-.3-51.4-.8-52-.1 0-.2 3-.2 7s-.1 7.8-.3 8.7v7a294.5 294.5 0 0 1 0 23.3c0 4.4 0 8 .3 10 .2 1.6.3 4.7.2 7v16a55.6 55.6 0 0 0 .6 14.2c-.2.9-.2 4 0 7 .2 7 .2 8 0 8.7-.3.5-.2.6.3.6H7zm15.7-.5-.2-6.2c-.3-1.3-.6-.5-.7 1.6-.1 2.3.2 9.6.5 10 .4.7.5-.3.4-5.4zm96.5 5.4c.3-.2.2-.3-.5-.3s-.8 0-.5.3l.5.2s.3 0 .5-.2zm0-1.5.7-.1v-2.1c-.2-1.5 0-2.5.2-3.4.5-1.5.3-3.2-.4-4-.3-.1-.5-.5-.5-.8 0-.6-.9-2-1.1-1.7-.3.3-.2 1 .2 1.2.3.1.4 1 .4 3.9 0 3.2 0 3.7-.4 3.7-.3 0-.4-.5-.4-3.3 0-2 0-3.3-.3-3.3l-.2.4-.5.8c-.5.4-.6.8-.6 3.5 0 2.2 0 3-.3 3-.2-.2-.3-1-.4-2.6 0-2.7-.2-3-.7-3-.4 0-.5.4-.4 2.6 0 3.3 0 3.2-.3 3.2-.2 0-.6-2.1-.6-4.2 0-1.1-.2-1.4-.5-1.4-.7.2-.8.5-.4 2.2.5 1.6.4 2.8-.1 2.5-.1 0-.3-.5-.3-.9 0-.5 0-.4-.2.4a7 7 0 0 0 0 2.4l.3 1.3h3l3.7-.3zm-97.8-.4-.2-6c0-4.5 0-5.4-.3-5.4-.4 0-.4.9-.3 5.4.2 5.3.3 6.6.8 6.6.1 0 .2-.3 0-.6zm-6.2-4.7c-.4-3-.6-2.3-.3 1.2.2 2.9.2 3.2.4 2l-.1-3.2zm4.2 3.9c0-.2-.1-.2-.2.1 0 .3 0 .5.2.4v-.5zm13.6-.6c.1-.2.4-.1.6 0 .3.3.4.2.7-.5l.7-3 .3-2-1.7-1.4c-2-1.6-3.6-4-3.4-5 .1-.4 0-.7-.4-1l-.5-.8c0-.2-.3-.7-.7-1.2-.5-.7-.6-.9-.3-1.1.6-.5.9-.2 1.7 1.4.7 1.5 1.3 2.2 1.5 2 .1-.1-.1-.8-.5-1.5-.7-1.2-.9-2.7-.4-2.7.2 0 .3.2.4.4.3 1.1 1 2.2 1.3 2 .1 0 .4.1.7.4l.4.6.3-.6c.2-.6.2-.9-.3-1.8l-.6-2.2c0-1.1-.9-3.7-1.4-4.3-.2-.2-.3-.7-.3-1 .1-1.1-.5-3.3-1-3.5a5 5 0 0 1-1.1-1.6c-1.3-2.2-1.8-1.7-.8.7.5 1.1.5 1.8-.1 1.4a15 15 0 0 1-2.4-5.9c-.2-1.5-.1-1.6.2-1.4l.6 1c.1.5.3.6.9.6.6 0 .8.2 1.5 1.5.5 1 1 1.7 1.3 1.9.8.5.7-.1-.2-1.5-.6-.8-1-1.6-1-1.8l-.8-2c-.6-1-.8-1.6-.6-1.8.3-.2.5-.2.8.1.4.4.4.3.2-1l-.2-2.3c-.1-1.3-.8-3.9-1-4-.1-.1-.2 0-.2.1 0 .2-.2.3-.4.3-.3 0-.4.2-.3.7.1.4.3.9.5 1 .3.5.1 2-.3 2.2-.2 0-.3-.2-.3-.9 0-1.1-1.1-3.7-1.3-3 0 .3-.3.5-.5.5-.3 0-.4-.4-.4-1.6 0-1.5-.2-2.3-.8-2.3l-.3.7c0 1-1 1.2-1 .2 0-.6 0-.7-.3-.5-.2.2-.5.4-.8.4-.6 0-1.1.8-1.6 2.5a6 6 0 0 1-.6 1.7c-.3.3-.3.5-.1.6.4.3.3 1.2-.1 2.1-.5.9-.6 1.5-.2 1.5.1 0 .3.3.3.6.1.5.3.2.6-.8.5-1.5 1.1-2.4 1.4-2 .3.2-.7 4.1-1.2 4.5-.3.4-.4.4-.6 0-.4-.6-3.4-.5-3.4.1 0 .1.5.2 1.2.1.9 0 1.2 0 1.6.4.4.5.4.6 0 1.8l-.6 2.5c-.1 1 0 1 .3 1 .7-.3.7.1.3 1.8l-.4 2.4c0 .7.1.9.6.9s.5 0 .4 1.7v1.7c.2 0 .4.4.4.8 0 .3.2.6.5.7.3.1.5.4.5 1 0 .5.1.8.5.8.3.1.5.5.6.9.3 1.1 1.3 3.2 1.6 3.2.1 0 .2-.4 0-1-.3-2.2-.4-5.5 0-6.3.3-.7.3-.6.5 1.9 0 1.4.3 3.4.4 4.3.4 2.6 1.6 6.4 2 6.4V116l.1-2.4c.2-.1.3-.6.2-1.1-.3-1.5.5-1 1 .7.6 1.5.5 2.4-.2 1.8-.3-.3-.4-.2-.3.3 0 .4 0 1 .2 1.3.1.6.2.6.3.2.1-.3.3-.4.5-.3.1 0 .3 0 .4-.3l.4-.4c.2 0 1.3 2.3 1.3 3 0 .8-.5.5-1.1-.7-.3-.7-.7-1.2-.8-1.2-.2 0 .3 2 .8 3.3.9 2.2 1.3 4 1.1 4.2-.2.3 0 1.5.2 1.5l.6-.4c.4-.2.6-.2 1.2.5.7.6.8.7.9.2l.3-.7zm-2.6-4.5c-.4-.3-.4-2 0-2s1 1.3.9 1.8c-.2.6-.5.7-1 .2zm1-2a8 8 0 0 1-2.2-3.8c-.1-1.3.4-1 1 .3.2.7.9 1.8 1.6 2.5 1.1 1.2 1.5 2 .9 2-.2 0-.8-.4-1.3-1zm-10-10.7c-.2-.6.1-3.6.5-5 .4-1.2 1-1.4.6-.1a27 27 0 0 0-.3 3c0 2.2-.4 3-.8 2zm4.4-1.2c-.3-.2-.5-.7-.5-1 0-.3-.2-.7-.4-.9-.5-.4-.5-1.6 0-1.6s1 1 1.5 2.4c.4 1.3 0 2-.6 1.1zm4.5-1.1c-.3-.7-1-1.6-1.3-2-.8-1-1-1.8-.5-2 .4-.3 3.3 4.3 3 4.8-.3.5-.6.3-1.2-.8zm-2-.8c-.8-1.5-1-2-.3-2 .3 0 1.8 3 1.7 3.4-.4.5-.7.2-1.5-1.4zm-8.1 1c-.4-1.1-.4-2-.1-2.9.1-.6.3-2 .2-3 0-2 .3-3.4.8-3.1.2 0 .2.7.1 1.7-.1 1.2-.1 1.7.2 1.8.3.2.3.4 0 1.1-.3.5-.4 1.7-.5 2.7 0 1.3 0 2-.3 2-.2 0-.4 0-.4-.3zm3.2-5.5a12 12 0 0 1-.6-3.8c.4-1 .8-.2 1.3 2.4.2.9-.5 2.2-.7 1.4zm1.8-2.4c-.6-1.7-.7-2.7 0-2.5.2 0 1.4 3.2 1.4 3.9 0 1.1-.7.4-1.4-1.4zm-6 .5c0-.8.7-3.8.9-4 .2-.3 0 3.2-.3 4-.1.4-.6.5-.6 0zm2.7-6c0-2 0-3 .3-3.3.3-.4.4 0 .3 2.8-.1 4.2-.6 4.7-.6.6zm2.3 2.2c-.3-.7-.2-4 0-4l.3.1.3 3.8c.2.5-.5.6-.6.1zm.7-6.9c-.3-1-.5-3.8-.2-3.8.2 0 .3.1.3.2l.3 2c.2 1 .2 1.7 0 1.9 0 .1-.3 0-.4-.3zm-1.8-.3c-.3-.4-.5-4-.2-4s.5.6.7 2.4V88H23zm-3-2.6c0-1 .9-3.3 1.2-3.5.2 0 .3.1.2.6-.2.5-.1.7.1.7s.3.2.1.7c-.2 1-.3 1-.6.6-.2-.2-.3 0-.4.5-.2.9-.7 1.2-.7.4zM8.4 124.5c.7-.5.9-10.2.3-10.2-.5 0-.5-.2-.2-1.2.2-.4.4-5.4.4-12.5L9.4 86c.2-1.5.2-5 .2-7.8l-.1-6.4c0-.8-.2-1.6-.4-1.8-.2-.3-.2-.5 0-1 .3-.4.3-1 .2-1.6L9 64.6c-.1-2-.1-2-.3-.8-.3 1.4-.4 11.3-.3 20.8 0 3.7 0 7.4-.2 8.4a636 636 0 0 0 0 32.7c0-.5.2-1 .4-1.2zm8.8.6c0-.2-.2 0-.2.3 0 .4.1.5.2.4v-.7zm92-.6v-2.4c-.2-1.7-.3-2.1-.7-2.2-.3 0-.5.1-.5.5 0 .3.1.5.3.5.4 0 .3.6-.2 1-.4.3-.4.4-.1.9.2.3.2.6 0 .7l-.2.8c0 .5 0 .6.6.6.4 0 .8-.2.9-.4zm-2.1-.4c0-.2-.3-.4-.6-.5-.6 0-.8.5-.4.9.3.3 1 0 1-.4zm-4.4-.3c0-.3-.1-.5-.6-.5-.7 0-1 .5-.5.9.4.4 1.1.2 1.1-.4zm2.5.4c.3-.3-.2-.9-1-.9-.5 0-.7.1-.7.5 0 .5.2.6.8.6l.9-.2zm-76.6-.6c0-.6-1-3.7-1.3-4.2-.1-.3-.3-.4-.5-.2s-.2.6 0 1.2c.3.5.6 1.6.7 2.3.1 1.1.2 1.4.6 1.4.4 0 .5-.2.5-.5zm18 0c-.1-.3-.2-.2-.2 0 0 .4 0 .5.1.4v-.5zm49.5.1c0-.3-.3-.4-1-.4-1 0-1.5.3-1.2.6l1.2.2c.7 0 1-.1 1-.4zm2 0c.1-.3 0-.4-.5-.4-.7 0-.9.3-.5.6.3.3 1 .1 1-.3zm2.4 0c0-.3-.8-.5-1.4-.3-.6.3-.1.7.8.7.5 0 .7-.1.6-.3zm9.6-.4c-.1-.2-.2 0-.2.3s0 .5.2.3v-.6zm-97-.7L13 117a335.2 335.2 0 0 0-.5-14.2c.2-.6 0-7.2-.3-7.6-.4-.8-.6.6-.6 4.5a239.1 239.1 0 0 0 1.3 23.5c0 .2.1.2.3.1.1 0 .2-.4 0-.8zm30.9.6c0-.3-.1-.4-.3-.3-.1.1-.2.3 0 .4.1.4.3.3.3-.1zm58.7-.7c-.1-.5-1.3-.7-1.3-.2 0 .5.2.7.8.7.3 0 .5-.2.5-.5zM4.3 120l.3-4.5a37 37 0 0 0 0-6.6l-.2-6.5c0-1.4 0-1.5-.6-1.2-.5.3-.5.3-.4 7.6l.3 9 .6 5V120zm85.6 2.7a1 1 0 0 0-.6 0l.3.1h.3zm3.2 0h-.8l.3.1h.5zm3.1 0c0-.2-.3-.3-.8-.3-.4 0-.8 0-.8.2s.4.3.8.3c.5 0 .8-.1.8-.3zm2.1 0c0-.2-.3-.3-.6-.3-.4 0-.7 0-.6.2.1.2.4.3.7.3.3 0 .5-.1.5-.3zm2.4 0c0-.2-.3-.3-.8-.3-.4 0-.8 0-.8.2s.4.3.8.3c.5 0 .8-.1.8-.3zm4.5-.3c0-.6-.4-.7-1.1-.2-.7.5-.6.7.3.7.6 0 .8-.1.8-.5zm2.1-.2c0-.5-.3-.7-.9-.5-.6.3-.5 1 .3 1 .4 0 .6-.2.6-.5zm-28.1-.4c.5 0 .6-.1.7-1.2.3-2 .5-2.2.7-.4.1 1.4.2 1.8.6 1.8.5.1.6 0 .8-1.3.3-1 .7-.9.7.4 0 1 0 1 .6 1 .6-.1.6-.3.7-2.3 0-2.9.6-2.8.6 0 0 2.2 0 2.3.6 2.3.8 0 1-.4 1-2.8 0-2.6-.3-2.9-2.7-2.8-2.5 0-4.8.3-5.2.5-.2.1-.4 1.3-.5 2.7-.2 2.3-.2 2.5.3 2.3l1-.2zm9-2.2c0-2.4 0-2.5-.6-2.6-.8-.2-1 .1-1 2.9v2.2H88.4zm2.5.6-.2-2.1c0-.3 0-.5.2-.5.5 0 .7 1.3.8 3.2 0 1.3 0 1.3.9 1.3.8 0 .9-.1 1-.9.1-.4.2-1.5.1-2.3v-1.5l-2.1-.1-2.2-.1-.2 2.5-.2 2.4h1l1-.1zm5.5.7c0-.9 0-1-1-1s-1.1.1-1.1 1c0 1 .2 1.1 1.4 1 .6-.1.7-.2.7-1zm2.3 0c.1-1 .1-1-.7-.9-.7 0-1 .2-.9.6v.9c.1.2.3.3.8.3.6 0 .8-.2.8-1zm2.2-.2c0-.7 0-.7-.7-.7-.6 0-.8.3-.8.8s0 .8.4.8c.8.2 1.1 0 1.1-.9zm2.4.2c0-.4-.2-.6-.7-.7-1-.2-1.2 0-1 .8.1.4.4.6 1 .6s.7-.1.7-.7zm1.5.5c.4-.1.6-.4.6-.7 0-.8-1.4-.5-1.5.3-.1.6 0 .7 1 .4zm2.7-.8c0-.2-.1-.4-.4-.5-.5-.2-1.2.3-1 .7.2.3 1.2.2 1.4-.2zm-93-4.7c-.2-1.9-.5-3.5-.6-3.6v3c0 2 .2 3.2.4 3.4.2.2.4.6.4.9a25 25 0 0 0-.2-3.6zm29.8.7c-.2-.8-.6.5-.4 1.5l.2 1.3.2-1v-1.8zm52 2.4c.2-.3-1.5-.7-1.8-.3-.2 0-.2.3 0 .5.2.4 1.7.2 1.8-.2zm2 .3c.8-.3.6-.6-.3-.6-.5 0-.8 0-.8.4s.5.5 1.2.2zm2.4-.1c0-.2-.3-.3-.6-.3s-.5.1-.4.3l.6.2c.2 0 .4 0 .4-.2zm1.7 0c0-.2 0-.3-.3-.3-.2 0-.3.1-.3.3l.3.2s.2 0 .3-.2zm-77.7-1.8c-.4-1.4-1-1.9-.7-.6 0 .5.3 1.3.5 1.7.4 1.2.6.4.2-1zm20.7-1.3c0-.2-.2-.3-.3-.2-.3.2-.4 2.8 0 3.1.2.3.5-2.4.3-2.9zm-10 1.2c-.3-.8-.8-1.9-1.2-2.4l-.8-1.4c-.1-.2-.2-.2-.5 0-.3.3.4 1.8 1.4 3 .4.4.5.7.3 1.3-.1.7 0 .8.5 1h.7l-.4-1.5zm78.7 1.2c1.6-.2 1.8-.3 2.5-1 .4-.7.7-1.5.8-2.4.2-1.5.2-1.6-1.3-4-.8-1.5-1.4-3-1.4-3.2 0-.3-.5-1.3-1-2.2-1.4-2.6-4-7.9-4-8.3 0-.6-5.5-11.7-7.7-15.5a72 72 0 0 1-4.3-8.6c0-.3-.7-1.8-1.6-3.4-3.3-5.8-5.7-10.4-6.4-12.1a51 51 0 0 0-4.6-8.1c-.2-.1-.8 0-1.5.1a7 7 0 0 1-2.5 0 21.3 21.3 0 0 0-15.6 2.7l-1.5.8c-.2 0-.7.2-1.1.5-.4.3-1 .6-1.3.6-.4 0-1.3.3-2.1.7-1.1.5-1.6.9-1.9 1.5-.5 1.3-.4 1.7.3 2l2.8 2.4 2 2 .9-.4c.4-.2 1-.3 1.2-.2.5.2.5.3-.3.8l-.8.7h.8c.8 0 .9.3.3.8-.4.3-.3.5 1 1.7 1.6 1.4 1.6 1.4 1.3 2.2-.2.5-.7 1.1-1.1 1.4-.9.6-.9.7 0 3.5 1.2 3.5 1.6 6.6 1.5 12-.1 5-.3 7.7-.7 8.7-.6 1.5-.9 3.2-.9 6.5 0 2.4.1 3.8.3 4 .2.2.4 1 .6 2a20 20 0 0 0 2.1 6.4l.3 1.2c.2.5.4.6 1 .5.7-.2.8 0 1 .5.4.9 1.7 1.1 3.6.7 2.3-.5 9.4-.6 12.1-.3 1.4.2 3.9.4 5.5.4 2.6 0 3.3 0 4.2-.5l1.4-.6c.3-.2.5-1 .8-2.5.3-2 .2-5.7-.5-13.7 0-1 0-1.4.2-1.2.6.6 1.2 7 1.2 12.3 0 4 .1 5.1.4 5.3.8.5 6.7.6 10.5.2 1.2-.2 2-.4 2.4-.8.6-.5 1.1-.4 1.1.2 0 .2-.2.6-.6.9-.4.4-1 .5-3.6.7-2.4.1-3.1.3-3.5.7-.7.6-.4 1 1 1 .8 0 1.7.2 2.1.3 1 .3 2.5.3 4.6 0zm-41.5-4.9c-.2 0-.3-.3-.2-.4.3-.5 2.6-1.6 3.6-1.8l1.6-.6c.6-.4.6-.5.4-2.3-.2-2.2-.3-2.5-.8-1.8-.6.8-.7.1-.4-1.7a120.7 120.7 0 0 0 1.6-24.7l.4.4c.5 1.4-.2 18.1-1 22.1-.2 1.6-.2 1.9.1 2.2.3.1.6 1.1.8 2.1l.4 2.6c.1.5 0 .9-.6 1.5-1.1 1.1-2 1.6-2.8 1.6-.4 0-1.2.3-1.7.5-.6.3-1.2.5-1.4.3zm20.8-3c0-.2 0-.5.3-.8.5-.7.5-4.9 0-11-.5-4.7-.5-7.4 0-7.4.2 0 .4 1.7.4 3.8 0 2 .3 5.9.5 8.5.2 3.6.2 5 0 5.9-.3 1-1 1.6-1.2 1zm2.5-5-.2-4.8-.3-7.4c-.4-4.3-.4-5.5 0-5.4.4.2.6 2.6.9 11 .1 3.6 0 5.8 0 6.4-.3.8-.4.9-.4.3zm-21.3-5.4c-.2-.4 0-6 .3-6 .4-.2.6 1.6.4 3.9-.1 1.9-.4 2.6-.7 2zm2.2-10.3-.1-6.6c-.2-2-.1-3 0-3 .4 0 .6 2.6.8 8.8 0 3.7 0 4.4-.3 4.4s-.4-.7-.4-3.6zM66.1 56.6a8 8 0 0 0-1.8-.5c-1.4-.3-1.8-.8-.8-1 .7-.1 3.6 1 3.6 1.4 0 .5-.5.5-1 .1zm-28.6 59c0-1.3-.1-1.8-.4-1.7-.3 0-.5 3.2-.2 4 .3.9.6-.3.6-2.2zm103.2 2.4v-1c0-.5-.2-.6-2.3-.6h-2.2v.8l.1 1c.4.2 4.3.1 4.4-.2zm-44.2-.7c0-.3-.2-.3-.6-.2l-1.1.1c-.7 0-.3.5.5.6.7.2 1.2 0 1.2-.5zm4 .3c0-.2-.3-.4-.6-.4s-.5.2-.5.4c0 .3.2.4.6.4.5 0 .7 0 .5-.4zm1.5.1-.4-.2c-.1 0-.3 0-.3.2s.1.3.3.3c.3 0 .4-.1.4-.3zm-3.5-.3c0-.2-.4-.3-.7-.3-.3 0-.7.1-.7.3-.1.2.2.4.7.4.6 0 .8-.2.7-.4zm42-1.8c.4-.5-.4-.7-2.3-.7-1.7 0-2.2.2-1.9.7.2.4 4 .4 4.3 0zM32 114.7c-.4-.7-.9-.8-.9-.3 0 .4.9 1.3 1.1 1l-.2-.7zm-15.8-2.5c0-.8-.3-2.1-.4-3a97.1 97.1 0 0 1-1.3-10.6l-.7-5.8c-.4-4-.6-4.8-1-4.5-.2.1.1 3.9 1 10l.5 5.2a50.7 50.7 0 0 0 1.8 10.7 6 6 0 0 0 .1-2zm1.3-1c0-1.7-.2-3.5-.4-4l-.4-3.7-.2-3-.2 2A36.8 36.8 0 0 0 17 113c0 .9.2 1.3.5 1.3v-3zm120.9 2.8v-3.6c-.2-3.3-.2-3.4-1-3.4-1.6-.1-1.6-.1-1.4 3.6l.3 3.5c.2.4 2 .2 2-.1zm2.2-3.3c0-3.4-.1-3.7-.6-3.7-1.1-.3-1.4 1.3-1 5.5.2 1.8.2 1.8 1 1.8h.7zM120 109l.2-6.5.2-2h-1c-1 0-1.7.8-.8.8.3 0 .4.2.4.8l.1 4.7c.2 2.6.1 3.8 0 4-.7.7-.1 2.6.7 2.6.1 0 .2-2 .2-4.4zm-75.2 3c.8-.2.9-.3.9-1.2 0-.7 0-.8-.3-.6-.2.2-.8.3-1.4.3-.8 0-1 .1-1 .6s.5 1.2.9 1.3l1-.3zm81.3-2.2v-2.6c0-2-.2-2.4-.6-2.5-.3 0-.4.2-.5 1.7 0 1-.2 1.8-.3 1.8-.2 0-.2-.7-.2-1.7 0-2.1-.1-2.9-.7-2.9-.3 0-.4.3-.2 2.4 0 1.2.2 2.7.3 3.3.2 1 .2 1 1.1.9l1.1-.4zm-8-2.6c0-1.6-.1-2.5-.4-2.9-.4-.7-.4-2.6 0-4.3.3-.7.5-1.7.6-2.3a23 23 0 0 0-1.2-7.2c-.2-.2-.3-.8-.2-1.4v-2l-.8-3.5a13 13 0 0 0-2.1-5.4c-.8-1.4-1.1-2.9-.6-2.9.2 0 .4.2.4.5.4 1 1.6 3.3 2 3.6.3.3.3 0 .2-1.7-.6-6.5-1-8-3.2-9.8-.8-.8-1.8-1.8-2-2.4-.3-.6-.7-1-.8-1-.2 0-.5-.4-.7-.9l-1-1.3c-.7-.9-1.3-2-1-2.4 0-.3-.3-.8-.9-1.5l-1-1.3c0-.4-1.3-1-2-1-.8 0-1-.6-.3-.8.8-.2.5-.8-.4-.7-.7.1-2.5-1-2.5-1.6 0-.2-.8-.6-1.8-1l-2.1-.8a59 59 0 0 1-4.8-1.1l-3-.4h-1.3l.2.8c.2.9.4 1.4 3.5 6.5l1.6 3A71.9 71.9 0 0 1 98.6 72c.3.5.6 1.1.7 1.6.1.7.6 1.6 2 3.5l1 2.1a63 63 0 0 0 2 3.5c.6 1 1.1 2.3 1.2 2.6 0 .4.6 1.6 1.3 2.8l1.3 2.4 1.4 2.8a52 52 0 0 1 2.9 6c1 1.8 1.3 2.3 1.3 2.7 0 .2.5 1.3 1.2 2.4l1.2 2.4c0 .5 1.6 3.2 1.7 3l.2-2.4zm-77.2 1.5c0-.2-.4-.3-1.7-.3h-3.6l-1.7-.3.6.6c.6.5 1 .5 3.5.4 2 0 2.8-.1 2.9-.4zm3.5-.3c0-.3-.3-.3-.8 0-.4.2-.3.3.2.3.3 0 .6-.2.6-.3zm14.2-.7c0-.9-.3-2-.6-2-.4 0-.6 1.5-.3 2.3.2.4 1 .2 1-.3zm1.1.3c0-.2-.1-.4-.3-.4l-.2.4c0 .2 0 .4.2.4s.3-.2.3-.4zm-8.2-.5c0-.3-.2-.4-.4-.4-.4 0-.5.5-.2.9.2.2.6-.1.6-.5zm1.2-.4s-.3 0-.5.2c-.2.3-.2.4.1.6.3.2.4.1.5-.2v-.6zm1.4.5c0-.3 0-.5-.2-.4-.2.1-.3.3-.3.6 0 .2.1.3.3.3.1 0 .2-.2.2-.5zm1.5.3c.2-.4-.2-2.1-.6-2.1-.4 0-.4.3 0 .7.3.3.3.4 0 .6-.2 0-.3.4-.2.6.1.5.6.6.8.2zm1.4-.9c-.1-1.5-.7-1.6-.7 0 0 .8 0 1.1.4 1.1.3 0 .4-.2.3-1zm-15.3-.3-1.2-.3c-.9-.1-1-.1-.7.2.4.5 1.7.7 1.9.4v-.3zm18-.4c0-.3-.1-.5-.3-.5-.1 0-.2.2-.2.5s0 .5.2.5.3-.2.3-.5zm2 .1v-.7c-.4-.4-1.2 0-1.2.6s1 .7 1.2.1zm1.8-.3c0-.2-.2-.5-.4-.6-.6 0-1 .8-.5 1 .6.4 1 .2 1-.4zm74.7.2c.2-.1.4-.5.3-1 0-.7-.2-.7-1.3-.7s-1.2 0-1.2.8c-.1.6 0 .9.4 1 .7.2 1.5.2 1.8 0zm-91.5-1.2c0-.7 0-1-.4-1-.2 0-.4.3-.4 1l.2 1c.4.3.6-.1.6-1zm3.2.2c-.1-1.3-1-1.5-1.2-.4-.2 1 0 1.4.7 1.4.5 0 .5-.2.5-1zm1.6 0c0-.6-.2-1-.4-1-.1 0-.3.4-.3 1-.1.8 0 1 .3 1s.4-.2.4-1zm1.2.4a5 5 0 0 1-.1-1c0-.1-.2-.2-.3-.1-.3.1-.4 1.2 0 1.5.3.4.6.2.4-.4zm1.4.3c0-.1 0-.2-.2-.2s-.3 0-.3.2.1.3.3.3c.1 0 .2-.1.2-.3zm75.8-.5c-.1-.6-.3-.8-.8-.8-.6 0-.7 0-.4 1 0 .4.3.6.7.6.5 0 .6-.1.5-.8zm1.5.4c0-.6-.3-1.2-.7-1.2-.1 0-.3.2-.2.5v.8c.1.4 1 .4 1 0zm1.3-.5c-.1-1.2-.8-1.3-.8 0 0 .6.2.9.4.9.4 0 .4-.2.4-.9zm2.7 0c0-1 0-1-1-1s-1.1 0-1.1.8c0 1 .1 1 1.2 1 .8 0 .9 0 .9-.8zm5.4.2c.2-.8-.2-1.3-.8-1-.4 0-.6 1.2-.2 1.5.4.4.9.2 1-.5zm2.6.1c.1-.4 0-.6-.5-.8-1.1-.4-1.4-.3-1.4.6 0 .7 0 .8.9.8.6 0 .9-.1 1-.6zm-98.2-.6c0-.5-.2-1-.3-1-.3-.3-.7 1-.4 1.5.2.7.7.4.7-.5zm2.9 0c0-1-.4-1.2-.7-.5-.2.5 0 1.4.4 1.4.2 0 .3-.4.3-1zm-12.6.4c0-.2-.3-1-.9-2-1-1.5-1-1.5-1.2-.8-.3 1 .7 3 1.4 3 .3 0 .6 0 .7-.2zm8.3-.6c-.1-1-.8-1.2-1-.4-.1.7.2 1.3.6 1.3.4 0 .4-.3.4-.9zm11.7 0c0-.3-.1-.5-.3-.5-.3 0-.6.4-.3.7.3.3.6.1.6-.3zm1.3 0c0-.2 0-.4-.3-.4-.1 0-.2 0-.2.3s0 .4.2.4.3-.2.3-.4zm1.4-.2c0-.2-.2-.2-.4-.1-.1 0-.2.2 0 .4 0 .1.2.2.3 0 .2 0 .2-.2.1-.3zm-16.2-.3-.3-.6c-.4-.3-.9.2-.7.7.2.6 1 .6 1 0zm19.6.3c0-.1-.3-.3-.6-.3s-.5.2-.5.3c0 .1.2.3.5.3s.6-.2.6-.3zm1.5 0c0-.1 0-.3-.2-.3s-.3.2-.3.3c0 .1.1.3.3.3l.2-.3zm-22.8-.4-.1-.7c-.2-.3-.2-.5 0-.8.5-1 0-4-.7-4-.3 0-.4.5-.3 2.4l.3 2.9c.1.7.6.8.8.2zm-1.8-2.8c0-2.2 0-2.6-.4-2.6-.3 0-.4.4-.4 2.4 0 1.4.1 2.6.2 2.7.5.5.6 0 .6-2.5zm89.2 2.4c0-.1-.2-.3-.5-.3s-.5.2-.4.3c0 .1.3.3.5.3s.4-.2.4-.3zm1.9 0c0-.1-.3-.3-.6-.3s-.5.2-.4.3l.6.3c.2 0 .4-.2.4-.3zm5-.2h-.7c-.3 0-.2.1.3.2.4 0 .6-.1.5-.2zm2.4 0a1 1 0 0 0-.6 0c-.2.1 0 .2.3.2.4 0 .5-.1.3-.2zm-99.9-2.3-.1-2c0-.2-.2-.3-.3-.3-.2 0-.3.5-.3 1a6 6 0 0 1-.3 1.8c-.2.6-.1.9.2 1.2.7.8 1 .4.8-1.7zm9.6-.6c0-1.6-.2-2-.5-2-.5 0-.7 3.6-.2 4.2.5.7.8 0 .7-2.2zm1.6 0c0-1.6-.2-2-.5-2s-.4.3-.3 2c.1 2.3.2 2.8.6 2.4l.2-2.4zm1.6.5c0-1.7-.3-2.7-.6-2.4-.3.3-.4 4.2 0 4.3.5.2.6-.1.6-1.9zm-6.2-.3c0-1.5 0-1.9.3-1.9.2 0 .4.5.4 2 0 1.2.2 1.9.4 2 .3 0 .4-.5.4-2.2v-2.3h-2.4v2c0 2.3 0 2.6.7 2.3.3-.1.4-.5.2-2zm7.8.4c0-1 .1-1.7.3-1.7.2 0 .3.3.2 1.1 0 1 .3 2.3.6 2.2.2-.1.2-.9 0-2 0-1.2 0-1.9.2-1.9.4 0 .6.7.6 2.4 0 1 0 1.6.2 1.6.3 0 .4-.7.3-2.4 0-1 0-1.3.4-1.3.3 0 .4.3.4 1.7 0 1.3 0 1.7.3 1.7.5 0 .8-2.2.6-3.3-.2-.6-.2-.6-2.7-.6h-2.5v1.1c0 1.8.3 3.1.7 3.1.3 0 .4-.4.4-1.7zm5.4.5c.1-1.5 0-3-.4-3l-.2 2c0 2.4.3 3 .6 1zm1.5-.3c0-1.5-.3-2.5-.6-2.5l-.2 2c0 1.7 0 2 .4 1.8.3 0 .4-.5.4-1.3zm3-.6v-2h-1.2l-1.3-.2v1.6c0 1.7.2 2.4.6 2.4.1 0 .2-.7.2-1.7s.1-1.7.3-1.7c.3 0 .3.4.3 2 0 1.4 0 1.8.7 1.7.3-.1.4-.5.4-2.1zm2 .3c0-1.3-.1-2-.4-2.2-.7-.6-1 0-.8 2.1.2 1.6.3 2 .7 2 .4 0 .5-.3.5-2zm-21.2.4c.1-1.7-.2-2.8-.8-2.8-.4 0-.5.2-.5 1.8 0 1.9.1 2.2.8 2 .3 0 .4-.4.5-1zm82-5.7-.5-7.2c-.1-.3-.2 0-.2.6s-.1 1-.2 1c-.2-.2-.2-3.6-.2-7.7 0-4 0-7.5-.2-7.5-.3-.2-.3 1.3-.3 11.6 0 4.3.2 9.6.4 11.9.3 3.8.3 4.1.8 4.1s.5-.2.3-6.8zm1.7 2.3c0-3.8-.1-4.5-.4-4.5-.3 0-.4-.2-.4-.5 0-.4 0-.5.4-.4.3.1.3 0 0-.5-.5-.6-.5-1.6-.4-13.6V65c.3-4-.1-3.6-.5.6a280.4 280.4 0 0 0 .9 37.2c.3 0 .4-.8.4-4.5zm1.7 1.2c-.4-5-.3-22.6 0-23.7.5-1.4.9-9.8.7-14.5-.2-5.7-.6-3.9-.6 3.5 0 2.9-.2 5.1-.3 5l-.2-1c0-.6-.2-1.2-.3-1.5-.5-1.3-.8 30.8-.4 34.2.2 1.1.3 1.3.7 1.3.5 0 .5 0 .4-3.3zm5.2-1c.2-5 0-24-.3-24.1-.1 0-.3 1.2-.4 2.9-.3 4.8-.7 25-.6 25.3l.7.2c.4 0 .5-.4.6-4.3zm.7 1.5c-.1-.5-.2-.1-.2 1 0 1 0 1.5.2 1v-2zm-97.9.5c0-.9 0-.9-.2-.3-.3 1-.3 1.6 0 1.5l.2-1.2zM3.9 97l-.1-3c-.3.3-.4 6.1-.2 6.1s.3-1.4.3-3zm.7.2c0-.5-.1-.1-.1.8 0 1 0 1.4.1.9V97zm10.6-.1a325 325 0 0 1-.8-6.8c-.4 0 .1 5.4.8 8.5.2 1.2.2.4 0-1.7zm105 1.8c.1 0 .2-1.6.2-3.4 0-2 .2-3.7.3-4 .1-.3 0-.5-.2-.8-.5-.3-2-.2-2.2.2-.1.1 0 1.2.2 2.4.7 3.6.7 4 .5 4.9-.1.5-.2 1 0 1 0 .1 1 0 1.3-.3zm-103.4 0c0-.2 0-.4-.2-.4s-.3.2-.3.3c0 .2.1.3.3.3.1 0 .2-.1.2-.3zm44.3-6.3c0-5.2.1-6.5.6-5.3l.1 5.3v4.9l.7-.2c.5 0 .6 0 .6.3l.2.4c.5 0 1.2-.7 1.2-1.1 0-.2-.2-.4-.5-.4-.4 0-.5-.2-.5-3 0-1.7 0-4-.2-5.4-.2-2-.2-2.3.1-2 .5.3.7 2.5.8 5.7l.2 3.4.2 1.1.2-1c.1-.7.4-1.5.6-2 .3-.4.5-2 .6-4.3.2-5 0-5.5-4.4-5.7-1.3 0-2.5-.2-2.7-.4-.3-.1-.8 0-1.7.4l-1.6.7-.7.4c-.1.2-.5.4-.7.4-.3 0-.6.2-.8.5-.1.3-.6.5-1 .6h-.8v10.8c-.1.3-.2.5-.4.5-.2-.1-.3-1.6-.4-5.7V86l-.8-.7c-.8-.7-2.1-1.3-2.3-1-.1.2.2 13.2.4 13.3.1.2 6.5.5 11.6.6h1.5zm-7.6 4.2a59.5 59.5 0 0 1 .9-11.2c.3 0 .3.6.1 4.1l-.2 5.7c-.1 1.3-.4 2-.8 1.4zM56 91c0-3.3.1-5.6.2-5.6.5 0 .6 2 .5 6.6 0 3.2-.1 4.3-.4 4.4-.2.1-.3-1-.3-5.4zm2.8 5c-.2-.3-.1-10 .1-10.2.4-.3.5.7.6 5.5 0 3.3 0 4.8-.3 4.9-.1 0-.3 0-.4-.2zm-15 1.4.3-6c0-4.4.1-6 .4-6 .2.1.3 1.9.3 5.8v6c0 .2.5.4 1.2.4h1.1V86.5l-.1-2.3h-.8c-1.8 0-9-2.6-10.4-3.7-.4-.3-.6-.3-1.6.6-1 .7-1.3 1.4-1.9 2.8-.7 1.8-1.6 7.6-1.3 8.4.2.6.6.3.7-.6 0-.6.3-1 .5-1.1.3-.1.3.4.1 3-.2 3.4 0 3.8 1.3 3.8h.8l-.1-5.4v-5.4c.3-.5.8 3.5.8 7.8 0 2.3 0 3.3.3 3.4.5.2 8.1 0 8.4-.3zm-6.3 0c-.2-3.2-.2-13.3 0-13.5h.3a97.5 97.5 0 0 1 0 13.6l-.3-.1zm3.8-.4-.3-5.2a331 331 0 0 0 0-7c.4-.1.7 3 .8 7.5 0 2 .2 3.7.3 3.9.2.3 0 1-.4 1-.1 0-.3 0-.4-.2zM4.6 94.3l-.1.4v.5c.2-.2.2-.7 0-1zm6.5-2c-.3-.2-.3-.2-.3.3s0 .6.3.3c.2-.2.2-.3 0-.6zm.2-1.5c.2-1-.1-1.3-.4-.5-.2.9-.2 1.3 0 1.3s.4-.4.4-.8zM7.5 89l-.1.6c0 .7 0 1 .1.6v-1.2zm-3.7.2-.1.4v.5c.2-.3.2-.7 0-1zm148.7.3-.1.4v.3c.2-.2.2-.5 0-.7zm-7.8-9.8c0-5.9 0-8.4-.1-6.8a47 47 0 0 0-.8 10c0 5.6.1 6.7.4 6.4.3-.3.4-2.4.5-9.6zM121.2 77l.7-12c.4-9.5.5-8.7 0-8.7-1 0-.6-1 .2-1.2.9-.2 1-.3 1.2-3.4l.2-1.5h-1.8c-1-.1-1.9 0-2 .1-.1.2-.6 4-.5 4.6 0 .1.3.3.6.3.6.2.6.3.5 2l-.2 5.4c-.1 2.2-.3 3.6-.5 3.5-.1 0-.2-1.8-.2-4.9 0-3.7 0-4.6-.2-4l-.4 4.6a408.2 408.2 0 0 1-1 21.2c.3.3 1.2-1.1 1.2-1.9 0-.6.5-1.4.5-.8l.2 2c.2 2.4.2 4.6 0 5.5-.2.6-.2.7.2.8.6.1.6.1 1.3-11.6zm-.6-13.6c0-3.4.3-6.9.5-6.9.3 0 .3 7.2 0 8.5-.2 1.6-.5.8-.5-1.6zM15.4 87.4v.9-.9zm137.7.7c0-.4 0-1.1-.2-1.7-.1-1-.2-1-.4-.4-.3 1.3-.2 2.7.2 2.7.2 0 .4-.3.4-.6zM7.7 78l-.1-10.5v-.8l-.4.7A102.4 102.4 0 0 0 7.6 88c.1-.1.2-4.5.1-9.9zm6.9 9.5c-.2-.2-.3-3.6-.4-9.6 0-1.3-.1-2-.3-2a115 115 0 0 0 .3 11.6c0 .1.1.3.3.3.1 0 .2-.2 0-.3zm-1.4-6c0-4 0-5.7.2-6.1.2-.5.2-.9 0-1.7-.5-1.9-.8-.8-.9 3 0 6.1.3 10.3.7 10.3v-5.5zm105.3 4c-.2-1.2-.9-2-.9-1 0 .4.7 2.2 1 2.2l-.1-1.2zm38.8-.8c-.1-.4-.2-.2-.2.5 0 .8 0 1.1.2.8v-1.3zm-127.1-.4c.2-1 .2-1-.3-.9-.4.2-.5 1.5-.1 1.5l.4-.6zM54.4 83l.7-.5h-.6c-.9 0-.8-.5.2-1 .6-.3 1.2-.4 1.8-.3.7.2 1 0 1.5-.4.8-.9 1.7-3.7 1.9-6.4.1-2.2 0-2.6-.5-3.7-.3-.7-1.3-2-2.1-2.8a26.3 26.3 0 0 0-7.6-5 5.4 5.4 0 0 0-3.2-1l-2-.1-1-.2c-.4 0-.7-.1-.7-.3 0-.1-.4-.3-.9-.3-.7 0-.9-.2-1-.8 0-.7.8-1.5 1.3-1.1.4.2 1.3-.1 1.5-.6.2-.5-.3-1-2-1.8-.8-.4-1.4-1-1.5-1.2-.3-.6-.5-.7-1.7-.5-1.3.2-1.4.3-1 1 0 .4.3 1.5.3 2.5.1 1.6.2 1.8 1 2.3l1.3 1.2.6.7.6-.6c.3-.3.7-.5 1-.5.5 0 0 1.3-1 2.1l-.7.8.7.2c.8.3 1 1 .2 1.2-.3 0-.6.4-.7 1.2-.2 1.1.5 3 1.7 5l1.3 2.5a22 22 0 0 0 5.5 6c3.6 3.3 4 3.4 5.1 2.4zm-1.8-2c-.6-.3-.3-.6.6-.7.4 0 1.3-.2 2-.5 1.3-.6 1.6-.6 1.6-.1 0 .2-.6.6-1.5.9-1.4.5-2 .6-2.7.4zm-.6-1.7a8 8 0 0 1 3-1c.6 0 .1.5-.8.9-1 .4-2.2.5-2.2.1zm-2-1.7c0-.2.6-.5 1.5-.8 1.9-.5 2.1-.5 2.1 0 0 .3-2.2 1.2-3.1 1.2-.3 0-.6-.2-.6-.4zm-.6-2.3c.2-.5 3.5-1.4 3.8-1 .3.3-1.2 1-2.8 1.2-.9.1-1 .1-1-.2zm-1.8-2.2c-.9-1.4-1.3-3.2-.9-3.7.5-.6.8-.5 1 .5 0 .5.4 1.5.6 2.2l.6 1.5c0 .7-.8.4-1.3-.5zm1.7 0c-.3-.3.4-1 .9-1 .7 0 .9.5.3.8-.6.4-1 .4-1.2.1zm108.3 9.6c0-.1-.1-.2-.3-.1l-.2.4c0 .2 0 .2.2.1.2 0 .3-.2.3-.4zm-127-.3c-.2-.2-.2-.1-.2.2 0 .3 0 .4.1.3v-.5zm-14.5-4c-.2-2.5-.5-.7-.3 2 0 2.4 0 2.4.3 1v-3zm32 3.8.9-.3-1-.8a28.6 28.6 0 0 1-7.7-10.3c-.6-1.5-.6-1.6-1.6-1.6-1.2 0-1.2.2 0 .7 1 .5 1 1-.2 1-.4 0-.8 0-.8.2l.7.2c.4 0 .8.1 1 .3.4.4-.5.7-1.3.3-.5-.2-.6-.2-.6.1 0 .2.2.4.4.5.9 0 1 0 1 .3.1.2-.1.4-.5.5-.7.2-.7.2-.3.5.7.5.3 1-.6.8-.5 0-.8 0-.8.2 0 .4.9.7 2.7 1 1 0 1.5.2 1.4.4-.1.5-2 .5-2.6 0l-1.2-.2c-.5.2-.5.3-.3.4.3.2.2.2-.2.2s-.6.2-.6.6c0 1 .5 1.6 1.2 1.6s.9.3.4.6 0 .6.7.4h1.6c.5.2 1.3.3 1.8.2 1.1 0 1.2.4.1.7-.4.2-.8.3-.8.5s2 .5 3 .3 1.4.3.6.6c-.2 0-.3.3-.2.4.2.4 2.8.2 3.9-.3zm-10-3.9c-.2 0-.4-.3-.4-.5 0-.3.2-.4.5-.3l1.5.2c1 0 1.2.1 1.2.4 0 .3-.3.4-1.2.4l-1.6-.2zM4.8 79a129 129 0 0 1-.5-16.4c.2-7.5.2-11.5.2-21.2V31.1c0-6.7-.2-25.3-.4-25.3-.6 0-.8 1.7-1 11.2l-.2 10.2c.3.4.3 9 0 14.5a39 39 0 0 0 .2 7.5c.2 1.4.3 5.9.4 14.6 0 10 .3 17.2.7 18.5 0 .4.7-2.7.6-3.3zM63 81.4l1-1.3c.2-.5.7-1 1-1.4 1-1 1-1.8.4-4-1-3-1.2-3.2-2.3-3.2-1.7 0-2 .5-2 3.2 0 2.4-.3 3.8-1.2 5.5-.3.7-.3.8 0 .8.2 0 .5-.2.6-.4.4-.7 1-.2.6.4-.2.5-.2.5.3.3.7-.4.8-.4.8.2 0 .7.2.7.8 0zm1.9 0c.4-.6.9-1.7.6-1.7 0 0-.3.3-.4.8-.2.4-.5.7-.7.7-.2 0-.4.2-.5.3-.3.5.6.3 1-.2zm-39-.2c0-.1 0-.2-.2-.2s-.3.1-.3.2c0 .2.1.3.3.3.1 0 .2-.1.2-.3zm6-1c-.1-.2-.8-.3-1.5-.3-1 0-1.3.1-1 .3.5.3 2.7.3 2.5 0zm1-1.1c1-.4 1.1-.4 1.6-2l.3-1.6c-.3-.4-1.1 1-1 1.6.1.6 0 .7-2.3 1-3 .6-3.5.7-3.3 1 .2.4 3.3.3 4.6 0zm-7-2.1c0-.3-2-.3-2.2 0l.1.3c.5.2 2.1 0 2.1-.3zm5.7-.5c.9-.4 1-.5.5-.5a165.1 165.1 0 0 1-3.6.6c-.4 0-.7.3-.7.4 0 .4 2.5 0 3.8-.5zm-9.8.3v-.3c-.2 0-.4.1-.4.3 0 .1 0 .2.2.2l.2-.2zm-3-.7c0-.2-.2-.3-.5-.4-.6 0-.7.3-.4.6.3.3 1 .1 1-.2zm7.4-.4c0-.2-.4-.3-1-.2-1.6.1-1.7.5-.2.5.7 0 1.2-.2 1.2-.3zM33 75c2.3-.5 2.8-.8 3-2.2l.3-1.5c.2-.9-.6-.8-1 0-.2.7-.8 1-3.9 1.8-2.6.6-3.7 1.1-1.9.9l2.7-.6c1.7-.4 2.8-.5 3 0 .2.2.2.2-3 .8-3.1.6-4.2 1-4.2 1.3 0 .3 2 .1 5-.5zm-11.7 0c0-.2-.2-.4-.8-.4-.7 0-.8 0-.5.4l.8.4c.3 0 .5-.2.5-.4zm5.2-.6c0-.2-.2-.3-.6-.3-.5 0-.9.1-1 .3 0 .1.2.2.6.2.5 0 1 0 1-.2zm-8.9-.3c0-.1 0-.3-.2-.3s-.3.2-.3.3c0 .2.1.3.3.3.1 0 .2-.1.2-.3zm115.9-1c-.1-.3-.2-.3-.3.3 0 .5 0 .7.1.5.2-.2.2-.5.2-.8zm-7.7-1.7c0-.5-.1-.2-.1.7v.9a7 7 0 0 0 0-1.6zm-99.3 1.7c.4-.1.3-.2-.4-.3-1-.2-1.4-1-.5-1.2.3-.1.5-.3.5-.4 0-.4-1-.3-1.3.1l-.7.4c-.5 0-1 .8-.8 1.2.2.4 2.3.6 3.2.2zm-4.8-.6c-.2-.2-.4-.3-.5-.1-.2 0 0 .3.1.4.5.3.8 0 .4-.3zm9-.2h-.8c-.3.1-.1.2.3.2s.7 0 .5-.2zm-10.4-.6c0-.1-.6-.2-1.3-.2-1 0-1.1 0-.7.2.7.3 2 .3 2 0zm127.2-.8c-.1-.2-.2 0-.2.3 0 .4 0 .5.2.3V71zm-114.1-.2 2.5-1c.5-.5.2-.4-2.2.1-3.8.9-4 1-4.1 1.4-.2.4 1 .3 3.8-.5zm-20.5.2-.3-.2c-.2 0-.2 0-.1.2 0 .2.2.3.3.3v-.3zm4.2-.8c0-.1-.1-.2-.3-.2-.1 0-.2 0-.2.2s.1.3.2.3c.2 0 .3-.1.3-.3zm3.3 0-1-.3c-1.3 0-2 .2-1 .4 1.2.2 1.8.2 2 0zm8-.9c0-.5-.2-.5-2.2-.5s-2 0-2.2.7c0 .6 0 .7.7.8.4 0 1.4 0 2.3-.2 1.3-.2 1.5-.3 1.4-.8zm-5.5.2c0-.7 0-.8-.9-1l-1.6.1h-1.5c-.6-.1-.7-.1-.7.1.1.2.9.4 2.2.4 1.9 0 2 .1 1.9.6-.2.4 0 .5.2.5.3 0 .4-.2.4-.7zm40.2 0c.1-.4.5-.8.8-1 .7-.3.7-.7.2-1.2-.4-.3-.5-.2-.9.3-.3.4-.6.5-1 .4-.6 0-2.2.5-2.2.8 0 0 .1.4.4.7.3.5.6.6 1.5.6 1 0 1.1-.1 1.2-.7zm-29-.5c1.2-.4 2.2-.9 2.3-1 0-.4-.1-.4-.9 0l-3.1.7c-2.2.3-3 .6-2.7 1 .2.4 2 0 4.5-.7zm89-1.6v1.4-1.4zm-83.5.7c0-.4-.9-1-1.5-1-.3 0 0 1 .4 1.3.7.4 1.1.3 1.1-.3zm-6.5-.4c1.9-.4 3-.9 3-1.2 0-.3-.7-.3-3.2.2-3 .6-3 .6-2.4 1 .6.5.7.5 2.6 0zm84.3 0c0-.2-.2-.3-.4-.2-.2 0-.3.3-.3.4.3.4.7.3.7-.2zM12.5 66.5v.9-.9zm9.2 1h-.8c-.3.1-.1.2.3.2s.7 0 .5-.1zm6.5-.7c-.3-.4-3.4-.5-3.4-.1 0 .3.9.4 2.6.5 1 0 1.1 0 .8-.4zm-20-10.3c0-4.3-.1-11.7-.5-15.5A929 929 0 0 1 7 11.3c0-7.8 0-8-.6-7.9-1.2.2-1.2.4-1.2 5.2 0 2.5.1 4.1.2 3.6 0-.4.2-.8.4-.7a216.1 216.1 0 0 0 .6 16c.2 4 .4 11 .4 15.5a364.3 364.3 0 0 0 .7 23.4c.3.6.6-3.8.7-9.9zm14.3 10c-1.5-.4-2.5-.4-2.4 0l1.9.2c1.5 0 1.5 0 .5-.3zm94.5-1.7c-.6-.3-.5-.7.1-.8.3-.1.5-.3.5-.5 0-.1-.2-.2-.5-.2s-.5-.2-.5-.6c0-.3-.1-.5-.3-.5-.1 0-.2.5-.2 1.1l-.2 2.2c-.2 1-.1 1 .4.8.3 0 .6 0 .7.2.2.2.3 0 .3-.6.1-.6 0-1-.3-1.1zm-98.6 1.5-.4-.2c-.2-.1-.4 0-.4 0 0 .2.2.3.4.3h.4zm21.4-.2c0-.2 0-.8-.3-1.2-.4-.8-.5-.8-1-.5-.7.4-.6 1.1.1 1.6s1 .5 1.2 0zm23-.5c-.3-.4-.7-.9-1-1-.3 0-.5-.2-.5-.3 0-.5-2.1-2.4-2.7-2.4a2 2 0 0 1-1.1-.5c-1-.8-3.1-1.8-4.5-2-.8-.1-1.3-.3-1.5-.7-.2-.3-.7-.5-1.5-.6l-1.3-.4c-.2-.4-1.9-.3-2 0-.1.3-.3.3-.7 0-.8-.4-1-.2-.6.6.3.5.3.6-.2 1-.8.6-.5.8 1.2.5h1.9c.2.1 1.1.4 2 .5.7.2 1.6.6 1.8.8.3.3 1 .6 1.8.7 1.3.1 3.8 1.2 4.3 1.8a19 19 0 0 0 4.9 2.8l-.4-.8zm-46.8.2c0-.2-.1-.4-.3-.4-.3 0-.4.2-.4.4s.1.4.4.4c.2 0 .3-.2.3-.4zm17.5 0c2.4-.5 3.2-.8 3.2-1.3 0-.3-.2-.3-1.2 0l-3 .5c-1.8.2-2.5.5-2.3 1 .2.3 1 .2 3.3-.2zm-4.8-.2c-.1-.4-2.9-.9-3.5-.7-.9.4-.4.7 1.1.8l2 .2c.3 0 .4-.1.4-.3zm-5.2-.4c0-.1-.7-.3-1.7-.3-2 0-2.5.4-.7.6 1.7.1 2.4 0 2.4-.3zm-4.8-.4c0-.1-.1-.2-.3-.2l-.2.2c0 .2 0 .3.2.3s.3-.1.3-.3zM34 64c2.4-.5 2.7-.8 2.4-2-.2-.7-.3-.7-.3-.3 0 .7-.8 1-3.5 1.9-1 .2-1.7.6-1.8.8 0 .2.1.3.5.2l2.7-.6zm-5.3 0 .2-.5h-2c-3 .2-2.5.7.7.9.4 0 .9-.2 1-.4zm-5-.1c0-.2-.8-.3-1.8-.3s-1.7.1-1.7.3c0 .1.7.3 1.7.3s1.7-.2 1.7-.3zM38.6 62c-.5-.3-.6-.3-.6 0v.9c.2.3.2.3.6 0 .4-.5.4-.5 0-.9zm-21.3.3c0-.2-.1-.4-.3-.4l-.6-.1c-.3-.1-.5 0-.5.2 0 .4.4.7 1 .7.2 0 .4-.1.4-.4zm6.5-.1c0-.4-.2-.5-1.4-.7-1.6-.2-2.1 0-1.9.8.3.6 3.2.5 3.3-.1zm4 .3c.1 0 .4-.5.5-.9.1-.7 0-.7-.8-.7-.5 0-1-.1-1-.3 0-.1.3-.3.7-.3.3 0 .7 0 .8-.2 0-.2-.4-.3-1.3-.3-1.3 0-1.5 0-1.5.6 0 .3.2.7.5.9.4.3.3.3-.2.6-.3.2-.5.4-.4.6.2.3 2.2.3 2.7 0zm6-.6c1-.6.5-.6-1.6 0l-1.6.5H32a4 4 0 0 0 2-.5zm104.3-.6-.1.4c0 .3 0 .5.1.3v-.7zm-118.7.4c0-.2-.3-.3-.6-.3-.5 0-.5 0-.2.3.5.3.8.3.8 0zm98.1-.4c0-.2-.1-.4-.3-.4l-.8-.2c-.3 0-.4 0-.4.3s.4.6 1.2.6c.2 0 .3-.1.3-.3zm-85-.4 1.3-.6c.2 0 .4-.2.5-.5.1-.3.4-.5.8-.5s.7-.2.7-.4c0-.5 0-.5-2.5.4-1.2.5-2.4 1-2.7 1-.4.2-.6.5-.6.7 0 .6 1.2.5 2.5-.1zm79 .3c0-.2-.1-.4-.3-.4-.3-.2-1.3.1-1.2.4.2.3 1.5.3 1.5 0zM24 60.3c0-.4-.2-.5-1.5-.5-1 0-1.4.1-1.4.4 0 .2.3.4.8.5 2 .2 2 .2 2-.4zm-6.4 0c0-.3-.9-.8-1.1-.6-.2.3.3 1 .8 1 .2 0 .3-.2.3-.3zm95.2-3c-.1-2.5-.2-3.1-.8-4.1-.6-1-.8-1.2-1.6-1.2-1.3-.1-2.2.3-1.7.8a15 15 0 0 1 1.3 2.4c0 .3-1.3 0-1.6-.2-.3-.3-.4-.2-.1.4.1.3.5.4 1.3.4 1.2 0 1.6.6 1.1 1.5-.2.3-.1.5.2.6.7.3.4.9-.5.9h-.8l.8.2 1.3.8c.3.3.7.5.9.5.3 0 .3-.4.2-3zM32.5 59c1.7-.6 2.9-1.5 2.9-2.1 0-.3-.5-.1-1.8.7l-2 1c-.6 0-2 .8-2 1 .3.4.7.3 3-.6zm84.4.7c-.6-.4-.8-.4-.8 0 0 .1.2.2.6.2.4 0 .5 0 .2-.2zm-98.3-.8c0-.2.3-.2.6 0l2.7.2c1.8 0 2 0 2-.4s-.1-.4-1.3-.3c-1.8.2-4-.1-4.1-.5 0-.3.3-.4 1.4-.4 1.3 0 1.4 0 1.4-.5s-.1-.5-1.5-.5c-1.2 0-1.6 0-1.6.3 0 .2-.3.5-.7.7-.8.4-.8.7 0 1.2.6.5.8.5 1 .2zm12.1-1c1.8-.6 4.1-2 4.1-2.5s-.8-.6-1.2-.2c-.3.2-1 .7-1.8 1a46.5 46.5 0 0 0-3 1.2c-.5.1-1 .4-1 .6-.1.2-.4.3-.6.3-.3 0-.4 0 0 .3h1l2.5-.8zm86.5.5c.1-.1 0-.4-.4-.7-.5-.4-.5-.4-.5.2 0 .7.6 1 1 .5zm-92.8-1.1c0-.2.4-.3.7-.3.6 0 .6 0 0-.3-1-.4-2.3-.2-2.4.4 0 .3.1.4.7.4.5 0 .9 0 1-.2zm3.2-.6-.6-.2-.4.2c0 .2.3.3.6.3s.4-.1.4-.3zm25.4 0c-.3-.2-1.6-.4-2.8-.4h-2c.6.3 2.7.6 4 .7 1 0 1.2 0 .8-.3zm3.6-.7c.6-1 1.7-1.5 5.3-2.8l2.6-1.2c0-.2 2.4-1.5 3.8-2l1-.3v-6.2l-.1-6.7c-.1-2 0-3.6.4-3.6.2 0 .4.2.5.4.2.3 0 6-.2 12.7l-.1 3.2 2.1-.5c1.9-.4 2.7-.5 5.3-.3 3.9.2 7 .3 7.2 0 .1 0-.5-1.5-1.4-3.1-1.4-2.7-1.6-3-1.6-2 0 .4-.1 1-.3 1.2-.3.5-.3.4-.2-2.2 0-2 0-2.2-.9-3.6l-.8-1.4-.2.8-.2 4.5c0 3.2-.1 3.8-.4 3.8-.4 0-.4-.7-.3-5.3l.2-5.4-1.3-2.4c-.7-1.4-1.4-2.5-1.5-2.5v6.7c0 5.4 0 6.5-.2 6.1-.3-.4-.4-2.5-.5-8v-7.3l-1-1.6a174.3 174.3 0 0 1-6.4-13l-1.7-3.6-1.3.2-3.2.3-1.9.2-.2 1c-.2 1.5 0 3 .5 3.2.3.1.4 0 .3-.2-.2-.5.8-2.3 1.2-2.2.2 0 .4.6.4 1.2 0 1 .2 1.1 1.5 1.9 1.7 1 3.8 3.4 5 5.9.4 1 1 1.8 1.1 1.8l1 .4.5.5-1 3.5a50.6 50.6 0 0 1-4.2 12.6c-.8 2.6-.7 2.5-2.7 3-1.6.5-2 1-2 2.4 0 2.6-.3 4.6-.7 4.6-.3 0-.3-.3-.2-1.6l.3-3.4.2-1.9-2.4-.2a261.9 261.9 0 0 0-4.5-.5l-.8-.2-.1 4c-.1 5.7-.6 5.3-.6-.5v-4.5l-1-1.4a8.8 8.8 0 0 1-1.6-4c-.4-1.7-.7.1-.7 4.2 0 5.6-.3 11-.6 11-.1 0-.2-4.5-.1-10.1 0-8.1 0-10.3-.3-11-.2-.4-.4-.6-.5-.4l-.8 11c-.1 2.2 0 2.7.3 2.9.3.2.4.8.4 3.4 0 2 0 3.1-.3 3l-.3-2.2c0-2 0-2-.2.7-.1 2.5-.3 3.3-.6 3A186.1 186.1 0 0 1 46.8 29c.2 0 0-3.3-.2-4 0-.3 0-.8.2-1.2.2-.7.5-.8 1.2-.8 1.1 0 1.2 0 1.9-1.9.3-1 .7-1.6 1-1.6.2 0 .6-.5.8-1.1.6-1.4 3.4-4 4.7-4.5.6-.2 1-.4 1-.8 0-.3 0-.7.2-1 .3-.5.2-.5-.7-.4-1.4.2-3.2.3-7.5.2l-3.6-.1-.5 1.3c-.2.7-.6 1.4-.8 1.6-.7.9-1.2 2.6-1.3 4.2 0 1-.2 1.8-.4 1.9l-.4 1.6a8 8 0 0 1-.4 2c-.8 1.7-1 4.2-.4 4.9.5.6.7 5.2.2 7.5l-.9 4.3a33 33 0 0 0-.6 6.8c0 4.8 0 4.6-1.7 5.7-.6.4-.6.4 1 .5a47.3 47.3 0 0 1 7.5.6c.3-.4 3.4-.3 5 .1 1 .2 2 .7 2.4 1 1 1 1.4.9 2 0zm-13.2-4c.5-5.6.5-6.2 0-6a222.6 222.6 0 0 1-.2-21.7c0-.2.3-.4.4-.4.2 0 .2 1.6.1 4.5-.3 8.5-.4 17-.1 17.1.1.1.2-1.7.3-4.7 0-4.9.3-7 1-7.3.2 0 .3.1.1 1l-.1 4.3c0 1.6 0 3.3-.2 3.7a5 5 0 0 0 0 2.3l.2 3.6c.1 1.9 0 2.1-.3 2-.4 0-.5.2-.6 1.5 0 1-.2 1.5-.4 1.6-.3.1-.3-.2-.2-1.6zm-1.7-5.1c0-6.2.2-9 .5-9 .1 0 .2 3.5.2 7.7 0 6.2 0 7.7-.3 7.7s-.4-1.3-.4-6.4zm14 1.8c0-3.3.1-4.1.6-4.1.4 0 .2 7.2-.2 7.3-.3.1-.4-.7-.4-3.2zm2 3.1L58 48l.2-3.7c0-.2.2-.4.3-.4.2 0 .3 1 .2 3.8-.2 3.3-.4 4.7-.8 4zm-4-3.7c0-2 0-3.3.2-3.3s.3.5.3 2.6c0 2.5 0 4-.3 4-.2 0-.3-1.2-.3-3.3zm-3.8 2.2v-7.8c0-.6.1-1.1.3-1.1.1 0 .2 1.6.2 4.3 0 2.7 0 4.5-.2 4.6h-.3zm12.7-1-.1-2.5c-.1-2 0-2.5.2-2.5.4 0 .8 3.2.6 4.3-.2.6-.6 1-.7.7zm2.5-.6c-.3-.7.3-6.5.7-6.8a28 28 0 0 1-.2 6.8c-.3.5-.3.5-.5 0zm6.4-9c.1-9.3.3-11.8.7-11.8.5 0 0 19.7-.6 20.2-.2.2-.3-1.8-.1-8.4zM67 45.2c0-2.7.5-8.5.8-9.3.3-.8.3 2 0 6.9-.4 4.4-.8 5.6-.8 2.4zm8 .8c0-.3 0-.6.2-.8.2-.2.3-.2.4.2v.7c-.3.2-.4.2-.5-.1zm-30-17.4c.1-3.8.2-4.5.6-4 .2.2-.4 7.1-.7 7.4v-3.4zM128 55v1.2V55zm-96.8.5 1.8-1.2c.5-.5.5-.6.1-1s-.5-.4-1.5.1c-2 1-5 1.7-6.9 1.5-3-.2-6-.3-6.5-.1-.4.1-.4.2 0 .5s1.5.4 5.7.4c2.9 0 5.3.1 5.4.2.3.3.6.3 2-.4zm74.5-.7c.2-.4.4-.5.9-.4.6.1.6.1.6-1.6 0-1.6 0-1.7-1-2.2-.6-.4-1-.5-1.3-.4-.8.5-.7.9.2.9 1 0 1.6.6 1.6 1.5 0 1.2-1.6 1-1.9-.2 0-.3-.2-.7-.4-.7-.6-.2-.7.7-.2 1.2.4.5.4.5 0 .8-.4.2-.4.3.1 1 .7.8 1 .8 1.4 0zm11.8-2.2c0-1.6-.2-2.9-.3-3-.4-.4-.8.4-.8 1.4l.3 4.3h.5c.4 0 .4-.3.3-2.7zM9.3 46.8 9 27.5c-.3-15-.3-19.1 0-22.1.2-1.2.3-1.4.9-1.5 2-.5 2-.5 1.6-.7-.2-.1-1.2-.2-2 0l-1.8.1v9.4a300.5 300.5 0 0 0 .8 27l.2 5.7c0 7 .2 9.7.4 9.6.1-.1.2-3.8.2-8.2zm5 4.6v2-2zm15.5 2c1.4-.5 3.2-1.9 2.9-2.2-.2-.2-2.9 1.2-2.9 1.5 0 .3-4.4.3-6.6 0-3.6-.6-4.8-.7-4.8-.3l-.1 1c-.2.6-.2.6 3.9.7 4.9 0 5.7 0 7.6-.7zm84.8-1c.3-2.4.2-3.4-.3-3.4-.2 0-.6-.1-.8-.3a11 11 0 0 0-2.5-.5c-2.3-.2-2.3-.2-2.3 1.6 0 .7 0 1 .3 1 .6 0 1-.6 1-1.4 0-1 .6-.8.7.3.1 1 .9 1.2.9.3 0-.6.2-1.3.5-1.3.1 0 .3.6.3 1.4 0 .8.1 1.7.3 2.2l.4.8v-3c0-.4.2-.6.4-.6.4 0 .4.4.4 2.1 0 2.4.4 2.8.7.7zm-78-.3c.4-.9.2-1.5-.8-1.6-.3 0-.6-.3-.6-.5-.1-.3 0-.4.6-.3.7 0 1.7-.3 1.4-.6H36c-1 .2-1.2.3-1.2.8 0 .3.2.8.4 1 .3.3.4.8.4 1.1 0 .5.2 1 .5 1l.5-.9zm-7.8-.3c1.7-.5 3.5-1.4 3.3-1.9l-.5-.2A342.5 342.5 0 0 0 25 52c-.2.4 2.2.3 3.9-.1zm-4.8-.3c0-.2.2-.4.6-.4l1.1-.3c.3-.1-1-.2-3.6-.2-2.8 0-4 0-3.8.2.2.2 1.1.4 2.1.6l2 .4h.8c.5 0 .8 0 .8-.3zm6.8-2.4c.8-.4 1.3-1.3 1-1.7 0 0-.4 0-.6.2-1.4 1-2.3 1.2-5.8 1.1a77 77 0 0 1-5-.2c-1.6-.1-1.7 0-1.7.4v.6c.1 0 2.4.2 5.2.2 5 .2 5.5.1 7-.6zm-16.6-.3c0-.5-.1-.9-.3-.9-.3 0-.3.8 0 1.4.2.7.3.5.3-.5zm94.2-1-.6-.2c-.8-.2-1.2 1-.6 1.7.5.5.5.4.8-.5l.4-1zm-4 1.4c.3-.1.4-.7.4-1.8 0-1.6 0-1.6-.8-1.6-.6 0-.7 0-.4.3.4.5.4 1.3-.2 1.3-.3 0-.3 0 0 .3l.2 1c0 .8.2 1 .8.5zm16.4-.5s-.4-.3-1-.4c-1.4-.2-2-.2-1.7.1.5.5 2.7.8 2.7.3zm-14.9-1-.1.3c0 .5 0 .7.1.5v-.8zm-76-.3c.6-.5 1.3-.9 1.6-1 .4-.1.9-1 .6-1.3l-2.5.8c-2.6 1.2-3.2 1.2-7.7.7-2-.3-2.8-.3-3 0-.5.5.5 1 2.4 1.2l2 .2 2.9.1c2.6 0 2.7 0 3.7-.7zm7.8.4v-.5c-.2-.3-.4-.4-1-.2l-1.3.7c-.4.4-.3.4.9.2l1.4-.2zm-24.4-3.3c0-1.8.1-3.1.3-3.7.3-.7.4-1.6.2-4.9-.3-4.6-.3-14.8 0-17.4.3-3.1.7-2 .7 2.2 0 3.5.5 10.7 1 12 0 .4.1.4.3.1.4-.6.3-1.9-.1-2.7a15 15 0 0 1-.5-4.8c0-3.8.1-5 .4-4l.3 1.5v-1.2l-.3-8V7.7L14 7.6h-1.8c-.5.1-.5 1.3 0 1.5.4.1.5 2.3.4 21l.1 16.8c.4 1 .6.4.6-2.4zm16 .8c2-.9 3.2-1.5 3.2-1.9 0-.3-.7-.3-1 0l-2.3 1c-2 .6-2.3.7-6 .5-2.6-.1-3.7-.1-3.8.1l-.1.4c.1.1 4.9.6 6.8.6a8 8 0 0 0 3.2-.7zm8.2.4.2-.6c-.3-.3-1 .1-1 .6s.4.5.8 0zm68.5-.2-.1-.2s-.2 0-.3.2l.1.3c.2 0 .3-.1.3-.3zm30.6-1.6c0-.2-.1-.2-.1.2v.3c.2 0 .2-.3.1-.5zm-108-.1c.7-.2 1.7-.7 2.2-1a4 4 0 0 1 1.3-.4c.2 0 .4-.2.4-.4 0-.5-.3-.5-1.6 0-3 1-4 1.2-5.7 1-4.2-.8-5.3-.8-5.1.2 0 .5.3.6 1.1.8 2 .3 6 .2 7.3-.2zm5.8-.4c0-.1-.3-.3-.5-.3s-.3.2-.3.3c.1.2.4.3.6.3.2 0 .3-.1.2-.3zm3.6 0c0-.5-.8-.6-1.3-.2-.4.4-.3.5.5.5.4 0 .8-.1.8-.3zm-7.6-2.1c1.1-.5 2-1 2-1.2l-.5-.2-2.5.3c-2 .1-2.2 0-2.5-.4-.2-.4-.6-.5-2.9-.6-2.5 0-2.7 0-2.7.5 0 .4.4.5 2.7.8l3.4.3c.5 0 .8.1.8.3 0 .2-1 .2-3.7 0-2.6 0-3.7 0-3.7.2v.3c3.9 1 6.8.8 9.6-.3zm7 .5c0-.1-.4-.2-1.1-.2-1 0-1.4.2-1 .5.1.2 2 0 2-.3zm26 .1c.5-.2 1.1-2 1-2.7a64.5 64.5 0 0 0 4.9-13.3c0-.4-.2-.5-.7-.3a128.5 128.5 0 0 1-13.4.2c0 .2.6.4 1.5.5 1.8.2 2.4.4 2 .7H57a45 45 0 0 0-4-.4h-2.3l2.4.3c3.6.5 4.3.6 4.3 1h-.6l-3.6-.4c-3.2-.3-3.7-.5-3.7-1.7 0-.4-.1-1-.3-1.2-.2-.4-.4-.5-.8-.2-.7.3-.6 1 .2 2.1L49 28l.6 1.2c.6 1 .6 1 0 1s-.6.1-.2.8l1.5 4.2c1.6 5 1.8 5.6 2.4 6.2.7.6 2.9.8 3 .3.1-.2 0-.3-.4-.3-.3 0-.5-.2-.5-.4l-.4-.7c-.2-.1-.4-.4-.3-.5.2-.3-.1-1-.5-1-.3 0-.3-.3-.2-1 0-.6.2-1.1.3-1.3.2-.1 0-.4-.2-.5-.5-.4-.2-1 .4-1 .3 0 0-.1-.6-.3-.9-.3-1-.5-1.3-1.3 0-.6-.3-1-.4-1-.2 0-.3-.1-.3-.3 0-.1.8-.2 2-.2 1.6 0 1.8 0 2 .5 0 .4.3.5 1 .5 1.1 0 1.7.5 1.1.8-.2.1-.8.2-1.3 0-.7 0-1 0-1 .2s.4.4 1 .4c1.3.1 1.5.6.4.8-.6 0-.3.2 1.1.3 2.4.3 2.8.7.7.7-1.8 0-1.6.2.5.4 1.4.2 1.5.2 1.2.6-.2.3-.2.4 0 .2.4-.2.7.3.4.9a4 4 0 0 0-.2 1.2c0 .8 0 .8-1.3.9-1.5 0-2.3.6-1 .6.5 0 .8 0 .8.2l.6.4c.3 0 .4.2.3.6-.1.4 0 .4 1.4.2.9 0 1.7-.2 1.8-.3zm-1-1.7c0-.1.1-.2.3-.2.3 0 .4 0 .4.2s-.1.3-.4.3c-.2 0-.4-.1-.4-.3zm.7-6c0-.1.3-.3.6-.3s.5.2.5.4-.2.4-.5.4-.6-.2-.6-.4zm0-1.2c0-.3.3-.4.7-.4.4 0 .7.1.7.4 0 .2-.3.4-.7.4-.4 0-.7-.2-.7-.4zm0-1.2c-.3-.4-.2-.5.7-.6.6 0 .8 0 .8.3 0 .5-1.3.7-1.6.3zM52.7 31c-.7 0-1.3-.2-1.3-.3 0-.2.6-.3 1.8-.2l2.8.2c.5 0 1 .1 1 .3 0 .2-1.7.3-4.3 0zM63 30c0-.4 2.8-.8 3.3-.4.3.4 0 .5-1.7.7-1.3.2-1.6.1-1.6-.2zm-8.6 0c-.4-.2-1.4-.3-2.1-.3-.9 0-1.4-.2-1.4-.3 0-.2.6-.3 2.2-.2 2.7.3 3.6.4 3.6.7 0 .3-1.1.3-2.3 0zm8.7-1.2c0-.2.7-.4 1.5-.4 1 0 1.4 0 1.4.3s-.4.4-1.5.4c-1 0-1.5 0-1.4-.3zm-10.6-.3c-3-.3-3.1-.8-.2-.6l2.6.3c.2.2 0 .7-.3.6l-2.1-.3zm10.7-1c-.3-.4 0-.5 1.6-.7 1.1 0 1.7 0 1.8.2.3.4.2.5-1.6.7-1.1.1-1.7 0-1.8-.1zM17.5 40.9c0-.2 0-.3-.2-.3-.3 0-.5.1-.5.3l.3.2c.1 0 .3 0 .4-.2zm19.8-.6c.3-.5 0-.8-.8-.6-1 .2-1.4.6-1.2 1 .1.3 1.7 0 2-.4zm-18-1c0-.2-.2-.4-.4-.5-.3 0-.5 0-.5.5 0 .4.2.5.5.5.2 0 .5-.3.5-.5zm19.8 0c0-.2-.2-.3-.3-.3-.1 0-.3.2-.3.4 0 .3.2.4.3.3l.3-.4zm20.5.3h-.5c-.2.1-.1.2.2.2.3 0 .4 0 .3-.2zm-27-1c.4-.8 0-1-2.1-1.2-6-.5-7.5-.5-8 0-.9.8-.4 1 4.2 1.4 1.7.1 3.3.3 3.3.4.3.2 2.3-.2 2.5-.5zm4.2 0c.5-.4.5-.4 0-.4H36c-.2 0-.3.2-.3.4-.1.5.5.5 1.1 0zm22.2-.1c-2-.3-4.8-.3-3.7 0l3 .2c2.3 0 2.3 0 .7-.2zm-39-.9c-.2-.4-.7-.5-.9 0 0 .2 0 .4.4.4.3 0 .5-.2.5-.4zM38 34.8c-1.5-2-2.8-1.8-2.6.4l.4 1.7c.3.5 1 .6 1 .2 0-.6 1.3-.3 1.5.3.2.5.2.4.3-.6.1-.9 0-1.3-.6-2zM18 37l-.4-.2c-.4 0-.5.3-.2.6.2.2.6 0 .6-.4zm16.6 0c-.1-.2-.2-.1-.2.2 0 .3 0 .4.2.3V37zM15 36.1c.1-.6-.5-7-.8-7.2-.2-.2-.1 4.1 0 6.1.2 1.9.5 2.3.8 1.1zm18 0c.3-.7 0-.8-2.3-.7-5.5 0-6.6 0-6.5.4.1.4 2.4.6 6.3.7 2 0 2.4 0 2.5-.4zm-11.7-1 .6-.8c.4-.2.5-1.2.1-1.2-.1 0-.3.3-.4.7 0 .3-.4.8-.8.9-.3.1-.6.4-.6.6 0 .6.7.5 1-.2zm12.2-1 .5-1.5v-1H28.5c-2.7-.2-3.5-.1-3.6.2-.5.7-.3 1 .7 1 2 0 7.6.4 7.7.5.4.3-.8.4-4.8.4-3.4-.1-4.7 0-4.8.2-.4.6.6.8 5 .8 4.5 0 4.6 0 5-.6zm-15.2 0s-.1-.2-.4-.2c-.2 0-.4.1-.4.3l.4.2c.3 0 .4-.1.4-.2zm5-2.4c0-.3 0-.5-.3-.5s-.4 0-.4.2l-.2.5c-.1.3 0 .4.3.4s.6-.3.6-.6zm-4.4-1c.2-.9-.1-1.3-.7-.8-.4.3-.2 2 .2 1.8.2 0 .4-.5.5-1zm20.4-1.3.3-2.3-.1-.4c-.2 0-.3.1-.3.3l-.6.5c-.5.2-.6.4-.6 1.8 0 1.5.3 2.3.8 2.1.2 0 .4-1 .5-2zm-17.8.9c.2-.6.7-1.8 1.2-2.6.5-.9 1-2 1-2.3.1-.3.6-1 1.1-1.3 1-.6 1-.6.4-.8l-.7-.7a2 2 0 0 0-.6-.8c-.2-.2-.3-.4-.1-.6l.3-1.5c0-.7.2-1.2.6-1.5.4-.3.7-.6.7-.8v-.6c0-.2.3-.4.6-.5.4-.1.5-.3.3-.5-.8-.7-.1-1.6 1-1.3.5.1.6.1.3-.4-.5-.8-.2-1.5.6-1.3.5 0 .7 0 .9-.4v-.6a45.2 45.2 0 0 0-8.8.6c-.2.7.1 1.4.6 1.2.4-.2.4 0 .3 1.2-.2 1.3.2 9.1.5 11 0 .8 0 1-.2.9-.2 0-.4-.5-.4-1.2 0-1.9-.5-6.2-.6-6v2.7c0 1.6-.2 2.7-.3 2.8-.2.1-.3-.4-.3-1.3a704.9 704.9 0 0 0-.2-7.7v-4H19c-1.5 0-1.6.1-1.6 2l.2 4.1.5 4.6c.3 2.2.3 2.2 1.5 3.3l1.2 1v2.1c0 2.3.3 2.7.8 1.2zM23 16.7c0-2.3.1-3.7.3-3.9h.4c.1.2-.2 7.6-.4 7.6s-.3-1.7-.3-3.7zM18.3 18c-.2-1.2-.2-5 0-5s.4 1 .5 2.3c0 1.2.2 2.5.3 2.9.1.4 0 .6-.2.6s-.5-.3-.6-.8zm6-1c-.1-.4.2-3.7.5-3.7.1 0 .2.8.2 2 0 1.7-.2 2.3-.6 1.7zm11.9 13.7-.4-.4c-.2 0-.4-.5-.5-.9-.2-.6-.3-.8-1.3-.9a7 7 0 0 0-1.8 0c-.5 0-.8 0-1-.3-.3-.3-1-.4-3.3-.4-1.6 0-2.9.1-2.9.2 0 .3 5.2.9 7.3.9 1 0 1.2 0 1.2.4s-.3.4-3.4.2c-5.2-.3-6.1-.3-6.5.2-.4.6 0 .9.6.4.5-.2.6-.2 1 .2.4.3 1.2.4 3.7.5l5.2.1c1.3 0 2 0 2-.2zm-.6-4c.4-.8.2-1.4-.6-1.8-.7-.5-.9 0-.1.5.5.4.6.6.3 1l-.4.9c0 .5.4.2.8-.5zm-4.9.3c.3-.5 0-.6-1-.4-.7.2-.8.2-.3.4.8.3 1.1.3 1.3 0zm-2.4-.2c-.4-.2-1.7-.1-1.7.1l1 .1c.7 0 .9 0 .7-.2zm5.5 0c1-.7-2.2-2.3-4.9-2.5-1.8-.2-2 0-1.3.8.2.2.6.3 1.3.2.6-.1 1-.1 1 .1s.1.3.4.2c.7-.2 2 .5 2.3 1 .1.5.6.5 1.2.2zM16.6 26a2 2 0 0 0-.4-.7c-.4-.5-.4-.5-.4.5 0 .9 0 1 .4.7l.4-.5zm22-.3c.5 0 1.8-1.7 1.8-2.3 0-.7.4-2.2.8-3 .1-.3 0-.7-.3-1-.6-.7-.6-.7 0-1.2.3-.2.5-.6.5-1 0-.2.2-.7.5-.9.4-.4 1.5-3.6 1.3-3.8l-1.4.2-1.8.4a4 4 0 0 0-1 .3c-.3.1-.6 0-.8-.1-.2-.2-1-.3-1.8-.3-1.4 0-1.6 0-1.7-.7V11c0-.4 0-1.1-.2-1.7-.3-1-.3-1-.9-.5l-.6.7-.5 1c-.6.7-.8 1.8-.3 1.8.1 0 .3.3.3.6 0 .7-.5 1-1.5 1-.8 0-1.8.9-1.6 1.4l-.5 1c-.4.2-.7.6-.7.7 0 .2-.3.4-.6.5-.5 0-.6.3-.5.6 0 .3 0 .6-.2.7-.5.3-.3.6.6.7.5.2.7.3.6.6-.1.4.1.5 1.4.7.3 0 .7 0 1-.3.8-.4 2.8-.5 3.3-.1l.2.6c0 .5-.1.6-1.3.4l-1.4-.1 1.1.3 1.3.6.6.5c.2 0 .4.4.4.7 0 .5.2.7 1.3 1l1.3.2.1 1.2c.1 1.1.1 1.2.5.6l.6-.6zm-2.3-2.8c-.3-.4-.8-.7-1-.7-.6 0-.6-.7 0-1 .4-.1 2.5 1.8 2.3 2.1-.3.4-.7.3-1.3-.4zm-1-2.2a.6.6 0 0 1-.5-.6c0-.2-.2-.5-.4-.6-.6-.2-.2-.7.6-.7 1.1 0 1.5.3 1.3 1.2-.2.8-.4.9-1 .7zm-4.5-1.6c-1.3-.2-1.3-.6 0-1 1.2-.4 2.6-.4 2.6.1 0 .6-1.5 1-2.6.9zm4.1-1.4c-.3 0-.6-.3-.6-.5 0-.4 1.7-.3 2 .1.6.7-.2 1-1.4.4zm18.2 7.8c-1.7-.4-2.9-.5-2.5-.1.2.2 1 .4 3 .5.7 0 .6 0-.5-.4zM26.4 25l-.1-.4-.3.4.1.4c.2 0 .3-.2.3-.4zm41.2 0c.7-.2.7-.5.2-.7-.3-.1-.4-.4-.3-.8.4-1.5-2.8-5.7-5.2-7l-1.6-.9-.6.6c-.7.6-1.5.6-2 0-.3-.3-.9-.6-1.2-.6-.8-.2-1 0-4 3.3a10.6 10.6 0 0 0-2.3 3.5c-.1.5 0 .5 5.2.6 7.3 0 10 .3 10 .7 0 .3-.4.4-1.3.4-1 0-1.3 0-1.2.4.1.3 0 .4-.7.4h-1l1 .3c1.3.2 4.2.2 5-.1zm-4.8-1c0-.1-.3-.2-.5 0h.5zm-30-.8c0-.4-.6-.7-1.3-.7-.6 0-.4.4.2.7.8.4 1 .4 1 0zM27.5 22c-.1-.2-.4-.3-.6-.3-.2 0-.4.1-.4.3l.6.2c.3 0 .4 0 .4-.2zm2.3-.4c.3-.3.3-.3-.5-.3-.9 0-1.1.1-.7.5.2.3.7.2 1.2-.2zm-3.1-1-.1-.3c-.4-.2-1.2.1-1 .4.2.3.9.3 1 0zM12 16l-.4-.5c-.3-.3-.4-.3-.4 0 0 .2 0 .5.2.6.2.2.6.2.6 0zm28.2-4.1 1.5-1c1-.5 1.3-1.1.3-.7-.4.1-1.3.2-2 .1h-2.5c-1 .2-1.2.3-1.2.8 0 .4.2.6.8.7h1.3c.3 0 .6 0 .7.2.2.4.3.4 1-.1zm-9.6-.7.4-.9h-8c-1.3.3-.4.6 1 .4 1.7-.3 6 .2 5.9.7-.1.3 0 .6.2.6l.5-.8zm25.3-.4c.2-.2-1.1-.3-4.7-.4-4.8-.1-6 0-5.7.6.2.4 10 .2 10.4-.2zm8.2-2 .9-1 .5-.8h-.8c-.5 0-.9.2-1 .4 0 .2-.3.4-.5.4s-.4-.2-.5-.4c-.1-.2-.4-.4-.7-.4-.7 0-.7.4 0 .6.3 0 .5.3.5.5s-.5.3-2 .1a49 49 0 0 0-3.2-.1c-1 0-1.2-.1-1-.4 0-.4-.1-.4-4.5-.7a89 89 0 0 0-8.7.7c-.4.6-4.5.4-4.5-.2 0-.2-.3-.4-.8-.5-.5 0-.7.1-1 .7-.1.4-.2.8 0 .9.1.4 6.6.1 7-.3.5-.3 1.3-.2 1.3.3 0 .3.8.4 3.9.4l8.2.1c4.2.1 6 0 7-.4zm-40.9 0c.4-.1.1-.2-1-.2-.8 0-1.5.1-1.5.3 0 .3 1.8.3 2.5 0zm9.2-.8c1.3-.9 1-1.1-1.4-1-1.2 0-2.3.2-2.5.3-.1.1.1.2.6.2.9 0 1.2.6.5 1h.9c.7 0 1.5-.3 2-.5zM27 7.4c1-.2.9-.2-.8-.2l-2.3.2c-.8.3 1.7.3 3.1 0zm32.6-.1h-.5c-.2 0-.1.1.2.1.3 0 .4 0 .3-.1zM15 5.9c-.4-.1-.6-.7-.2-1h-.2L13 5c-1.2 0-1.2 0-.7.6.3.3.8.5 1.8.5.7 0 1-.1.8-.2zm133.4-5h-.5c-.3 0-.2.1.1.2.3 0 .5 0 .4-.2z"/>
</svg>
