<?xml version="1.0" encoding="utf-8"?>
<svg xmlns="http://www.w3.org/2000/svg" xmlns:svg="http://www.w3.org/2000/svg" version="1.1" viewBox="0 0 158 132">
  <title>Tommy Brock lies in Mr. Tod’s bed underneath a warm blanket.</title>
  <path d="m107 131-13.1-.4a352 352 0 0 1-23.8-1c-.2 0-.1-.3 0-.6.4-.3.4-.3 0-.2-.2 0-.4.3-.4.5s-.2.4-.4.5H57.8a59 59 0 0 0-13 .3 75.3 75.3 0 0 1-14.1-.2 147.3 147.3 0 0 0-24.7.7c-.4.2-1.8 0-3.5-.6-1-.4-1.4-.7-1.9-1.6l-.6-1.1v-30A3268.5 3268.5 0 0 1 1.1 3.5c0-3.6.4-3.7 8.5-3.4a24171 24171 0 0 1 122.6.6l23.8.2.9.8.9.8-.2 7.5-.2 43.5a1128.5 1128.5 0 0 1-.7 62.3c.2.6.3 2.9.2 7 0 4.5 0 6 .3 6 .5.2.3.9-.4 1.3-.5.4-1.3.5-5 .4-10.7 0-20 0-23.7.3-5.6.3-18 .5-21.1.2zm-7.8-2.6 7.3-.3h1.6l-.2-1.4-.2-2-.3-2.7a65.3 65.3 0 0 1-1.1-8.4l-.5-8.8c-.3-7.3-.5-8.7-1-11.3-.5-1.7-.8-4.2-.9-5.6-.1-2.6-.2-2.9-1.3-7.7a44 44 0 0 1-.8-4.4c0-.9-.4-2.4-.7-3.4l-.9-3.2c-.5-1.7-1.5-4.5-2.8-7.2-.6-1.4-1-3-1.3-4.4l-.7-3.4-.6-3.2-.8-3.5c-.6-1.9-.8-6.3-.3-6 .2 0 .2-.1 0-.5-.3-.7-1.3-1.2-1.8-.8-.2 0-.2.5-.1 1 .1.7 0 1-.4 1.2l-1 .3c-.4 0-.8.3-1.2.7-.3.5-.8.8-1 .8l-1 .3-1.7.5-3 1c-1 .4-2.6.8-3.4 1-1 .2-2 .5-2.5.8-1.6.8-3.2 1.3-6.3 2-.8.1-1.8.5-2.2.7l-2.8 1.8-3.1 2.3c-.6.6-1.1 1-1.3 1l-.5.4-2 1.2a27.9 27.9 0 0 0-5 3.2 9 9 0 0 1-1.8 1.3c-.6.2-1 .7-1.1 1.3l-1.6 2.2a12 12 0 0 0-3.3 5.3c-.2.8-.5 1.8-.8 2.3l-.5 2.3-.5 2-.6 2.2-.6 2.1-.6 1.9-.4 2.2-.2 2.7c0 .9-.2 1.8-.4 2.1-.2.5-.2 1.3 0 3.1a797.5 797.5 0 0 1 1.2 12.5c-.1 3 0 6.3.2 7 .6 2 1 4.4 1 5.5l.5 3 .4 2.7c0 .6.2 1.5.4 2.2l.5 1.2h2c1.2.2 3 .2 4.1 0 1.2 0 3.2 0 4.6.2l6.5.2 2.5-.1.2-1.3.3-2c0-.4.2-1 .3-1.1.7-1.2 1 1.8.2 3.2-.1.3-.2.7-.1.9.2.5 1.8.4 2.3-.1 1.2-1.3 2.4-5.6 2.4-8.7 0-1.5 0-2 .3-1.9.4.2.6 3.1.2 5.1a19.2 19.2 0 0 1-2.1 6 423.5 423.5 0 0 1 23.4.9l6.9-.4zm-6.2-.8c.6-1.9.5-4.8 0-7.9-.6-3-.6-4.4 0-3.9.4.5 1.3 5.7 1.3 8.3 0 2.6-.3 3.7-1 4-.3 0-.4 0-.3-.5zM59 125c0-3.8-.7-15-1-17-.3-1.8-.1-2.8.3-2 .3.4 1.1 13.8 1.2 18.1 0 2-.1 3.3-.3 3.4-.2 0-.3-.9-.3-2.5zm13.6 1.5c0-.4 0-1 .2-1.4.6-1.6.7-3.7.4-7.1-.2-2-.3-3.7-.2-4 .2-.6.6-.6.6 0l.3 4.2c.3 3.8.2 5.5-.5 8.1-.4 1.2-.8 1.3-.8.2zm-19.7-2.3c0-1.6-.3-4.5-.6-6.6-.3-3.2-.4-3.9 0-5 .3-1.2.3-1.2.5 3.1a45.7 45.7 0 0 0 .9 8.7c.1 2.3 0 2.7-.2 2.7-.3 0-.5-.6-.6-2.9zm23.8 2.7v-.6c.2-.3.4-1.4.5-2.6.1-1.6.3-2.2.6-2.2.2 0 .3.5.3 1.9 0 2.4-.7 4.2-1.4 3.5zm-25.7-.4-.2-1.8-.6-4.3c-.5-3.4-.5-3.7 0-3.7.2 0 .4.7.5 2.3a58 58 0 0 0 1 7.2c0 .6-.5.8-.7.3zm50.3-.1c-.3-.8-.2-6.7.1-6.9.2 0 .4-.1.4 0 .3.2.2 7.1 0 7.2-.2 0-.4 0-.5-.3zm-53-.5.5-2.2.5-1.8c.4-.4.3 2.7-.1 3.7-.5 1-1.1 1.3-.9.3zm31.5-.9.2-3.1c0-2 .3-3 .7-2.1.3.7.3 4.8 0 5.7-.1.4-.4.8-.6.8-.4 0-.4-.2-.3-1.3zm5.1-1.6a352.7 352.7 0 0 0-1.4-16.6c.5-.5.8.6 1 3.5 0 1.7.5 5.9.8 9.1.3 3.3.5 6.2.4 6.4-.4 1-.6.3-.8-2.4zm-24 .8c0-1.3.1-2 .4-2.2.6-.4.6 0 .4 1.8-.3 2.5-.8 2.8-.8.4zm36.8 1.2c-.2-.4-.3-1.4-.2-3.1.2-2.8.6-4.2 1-3.8.3.3 0 7.5-.3 7.5-.1 0-.4-.3-.5-.6zm-8 0v-3.9c0-2.1-.3-4.7-.4-5.6-.3-1.3-.3-2-.1-2.1 1-1 2 10 1 11.3-.2.3-.4.4-.5.4zM56.6 124l.1-1c.4-1 .2-2.9-.6-8.7-.6-4.2-.8-12.8-.3-12.8l.3 4.4c0 3.3.2 5.6.7 9 .7 4.8.9 9 .3 9.3-.2 0-.4 0-.5-.2zm8-1.7c-.2-.7-.2-2.5-.2-4 0-1.9-.1-2.5-.4-2.8a22.3 22.3 0 0 1 .2-9.3v4c-.2 3.9-.1 4 .3 3.9.5-.2.5 0 .6 4.7 0 4.7-.2 6.4-.6 3.5zm23 1.2c-.3-.4-.2-12 0-12.1.2 0 .4 0 .5.2a97 97 0 0 1-.5 12zm-20-.9c0-.1.1-.4.4-.6.7-.5.6-3-.4-7a61 61 0 0 1-1.1-5.4c-.3-2.6-.3-6.5 0-6.5s.3.4.3 2.9c0 1.7.9 7.2 1.7 10 .5 1.8.8 4.8.5 5.7-.2.8-1 1.4-1.3 1zm14.1-.7.1-.9c.5-.7.2-3.7-.8-9.5-.8-4.6-1.1-9.2-.6-9.5a58.6 58.6 0 0 0 1.5 10c.6 3.4 1 8.2.9 9.3-.2.8-.8 1.1-1.1.6zm-5.3-1-.3-1.7c0-.6-.6-2.9-1.2-5a75 75 0 0 1-2-9.9c0-1 0-1.2.3-1.2.2 0 .4 0 .4.2 0 1.1 1 6.5 1.5 8.6.8 3.3 2 8.3 2 9 0 .2-.1.4-.3.4l-.4-.4zm2.4-3.3-.5-2.9-1-5c-.9-4.5-.8-8.9 0-8.3.2 0 .3.8.2 2.2v3.4l1.8 10c.2.9-.3 1.3-.5.6zm-9.1-4.2a39.5 39.5 0 0 1-2-13c.1-1.5.3-2.3.5-2.3.2.1.2.9.2 2.2-.1 3.4.4 7.2 1.4 11 1 3.6 1 4 .7 4-.2 0-.5-.9-.8-1.9zm-7.5-4.4.1-4.4c.2-2.3.2-3 0-3.1-.3-.2-.3-.7 0-3 .5-2.4 1-3.7 1.4-3.3 0 0 0 1.1-.3 2.3-.4 1.8-.4 2.2-.1 2.4.3.2.3.7 0 3.4-.3 1.7-.5 4-.5 5.1 0 2.4-.5 2.8-.6.6zm13-4.5a14.4 14.4 0 0 1 1.4-9.4c.3 0 .3.5-.3 2.4-.5 1.3-.6 2.4-.6 4.7l-.1 3s-.3-.3-.4-.7zM77 100c0-.3 0-.5.2-.4.2 0 .3.3.3.5s-.1.4-.3.4c-.1 0-.2-.2-.2-.5zm-2.5-3.2V96c.7-3.7 2-7.7 2.6-8.3.3-.4.4-.4.6 0 0 .3 0 .6-.2.8l-.6 1.8-.7 2c-.4.7-1 3-1 3.6 0 .8-.5 1.4-.7 1zm-20-2.2c-.3-.6 0-1.5.4-1.5.5 0 .5 1.2 0 1.6-.3.2-.4.2-.5 0zm2.8-.9c-.1-.2 0-1.4.1-2.7.5-3.8.8-5 1.1-5 .4.1.3 1.5 0 3.3-.2.5-.4 1.8-.5 2.8-.1 1.8-.4 2.4-.7 1.6zm-2.1-4.2c-.3-.3-.2-2 0-3 .4-1.2 1.3-1.6 1-.5l-.2 1.5c0 1.9-.3 2.5-.8 2zm1.6-2c-.2-.2 0-1.1.5-3.6 0-.5 0-.6-.3-.5h-.4c0-.2-.2-.4-.5-.4-.4-.1-.5-.5-.6-2.4v-3.3a6 6 0 0 0 0-2.1 4 4 0 0 1 .8-3.3c.7-.9 1-.4.5.7-.4.7-.5 1.7-.5 4.4 0 2 .2 3.7.3 4 .2.2.3.2.3-.3 0-.8 1-4.5 1.7-6 .8-2 2-3.6 2.3-3.4l-.2.7a21.7 21.7 0 0 0-3.3 10c.1.4.3.2.5-1l.9-2.7c.9-2 .8-.7 0 2.5a67 67 0 0 0-1.2 4.6c-.3 2-.6 2.6-.8 2.2zm.2-18.3c0-.4.6-1.6 2-3.4 1-1.3 1.5-1.8 2-1.8s-.1 1-1.4 2.4l-1.5 2c-.8 1.2-.9 1.3-1 .8zm70.5 58.7c0-.2.3-.7.7-1 .4-.3 1-1.2 1.5-2 .7-1.3.7-1.4.3-2-.4-.4-.4-.5.3-2.1.3-1 .6-2 .6-2.5 0-.9.4-1.5.8-1.3.1 0 .3 0 .4-.3.3-.7.2-1.1-.4-1.1-.3 0-.5-.1-.5-.3 0-.1.3-.3.7-.3.7 0 .7 0 1.3-3.2l.7-3.4c.2-.9.5-8 .6-11.6l-.5-3.2c-1-5.5-1-5.6-.6-6.4.2-.5.2-1.6 0-4-.2-1.9-.3-5.3-.3-7.8 0-4.8-.2-5.6-1.8-7.7-.8-1-.8 0-.7-10.5a132.6 132.6 0 0 0-.3-13.2c.1-.6 0-.7-.5-.7-.3 0-1-.2-1.3-.5-.4-.3-1-.5-1.4-.5-.7 0-.8 0-.8-1s0-1.1.5-1.1c.3 0 .8.1 1.1.4.3.2.7.4 1 .4.2 0 .5 0 .5.2s.2.3.4.3c.5 0 .5.6.7-11.4 0-1 0-4.3-.2-7.3v-8.6c.2-3.1.2-3.4.7-3.4.4 0 .5-.1.4-.9l-.3-3c-.2-2.6-.4-3-1.6-3l-1 .2.6 2.3c.3 1.3.5 3 .5 4.4 0 2.7-.2 3.5-.7 3.3-.4-.1-.4.5-.2 5.2.4 7.6.2 19.8-.2 20.2-.1.3-.4.4-.5.3a83 83 0 0 1-.4-9.8 903.5 903.5 0 0 0-.3-15.9c-.1-2.3-.1-2.4-.5-1.5-.2.6-.5.9-.8.8-.4 0-.5-.6-.6-3.5-.3-5-.5-6-1.2-6-.6 0-.6 0-.6 3 0 2 .1 2.8.4 2.8.5 0 .7 1 .7 5.3a1401.2 1401.2 0 0 0 .8 25.6c.2 1.2.2 1.4-.2 1.4-.2 0-.6-.2-.7-.5-.2-.3-.5-.5-.7-.5l-3.1-.7c-2.9-.7-7.6-1.7-10-2-1.2 0-1.7 0-1.9.2-.1.2-.6.3-.9.3-.4-.1-.7 0-.9.3-.2.3-.3.3-1.5-.2a4.1 4.1 0 0 0-2.9-.5l-1.6.4c-.1.2-.5.4-1 .5-.4 0-.9.2-1 .3l-1.2.2-1.7.3-.7.1.2 2.2c0 1.2.2 2.6.4 3.2l.6 3.3a61 61 0 0 0 3.9 13.4l.5.8c.3.8.6.8 1-.2.2-.7.2-.8-.1-.5-.3.2-.4.2-.6 0-.1-.3.9-2.1 1.3-2.1.2 0 .6 1.2.5 1.8 0 .1.1.3.3.3.6 0 .6.1 0 2.1-.6 1.8-.8 3-.4 3 .2 0 .4-.5.5-1 .3-1.4.4-1.7.7-1.7.1 0 .2.3.1.8-.6 3.3-.7 4-.5 4.3.2.1.3-.4.4-1.1.2-1.3.6-1.9.9-1.6l-.1 1.4c-.2 1-.2 1.3 0 1.6.3.2.3.8.2 2 0 1.6 0 1.8.3 1.8.4 0 .5.4.5 2.3 0 1.7 0 2.3.3 2.4.3.1.4.6.3 2.4-.1 1.4 0 2.3.1 2.5.2.2.4 1.2.6 2.1l.5 3.3c.2.9.4 4.6.4 8.3a217.2 217.2 0 0 0 .6 11.7l.4 3.1.4 3.9c.2 2.3.6 4.4 1.1 6.6.5 1.7 1 3.4 1 3.8.2.6.5.8.6.2l.1-4.7c0-2.4.3-4.9.4-5.5.2-.7.3-3.3.3-5.8 0-4.8.3-8.4 1-11.7a108.8 108.8 0 0 1 5.5-16l3-5.5c1-2 1.8-3.3 2-3.3.4.2.3.4-1.4 3.7a67 67 0 0 0-8.4 28.8c-.1 3.5 0 3.8.3 3.3.2-.3.3-.7.3-1-.3-.6.2-5.2.5-5.6.2-.2.6-1.5.8-2.8a66.1 66.1 0 0 1 7.2-20.8c.4-.7.7-1.2.9-1.2.3 0 0 1.6-.4 2.2l-.7 1.1a46.7 46.7 0 0 0-1.9 7.8c-.1.3-.2.2-.2-.6 0-1-.1-1-.7 1-1.2 3.6-3.5 13.6-3.5 14.8l-.4.2c-.4 0-.4.3-.4 1.4 0 1 0 1.6.4 1.8.2.2.4.5.4.8 0 .2.2.5.5.6.5.1.5.3.3 7.2 0 4 0 7 .1 6.9l.7-3.8a164.3 164.3 0 0 1 2.5-13.6c.2 0 .3.2.3.4l-1.1 6.8c-.6 2.7-.7 4.2-.4 4.1.4 0 .4 3.2 0 5.8a25 25 0 0 0-.3 3.2c0 1.3 0 1.7.4 1.7a44 44 0 0 0 7-.4zm-2.6-3.7c-.2-.3 0-10 .3-11l.5-6.4c.1-3.2.4-6.6.5-7.5.3-1.4.2-1.6-.2-1.9-.3-.2-.4-.5-.2-1.2.2-1 4.6-9.2 5-9.4.8-.2.4 1.1-1 3.7-2.3 4-3.2 6-2.8 6.4.2.3.2 1.4-.1 4.4-.7 6-1 11-1.2 17.4a45 45 0 0 1-.3 5.7c-.1.1-.3 0-.5-.2zm1.8-14.1c0-1.5 1-7 1.5-8 .2-.6.5-1 .6-1 .5 0 .6.6.2 1.6-.3.8-1 4.2-1.4 7.1-.2 1.6-.9 1.8-.9.3zm-4-16.2a21 21 0 0 1 2.7-5.6l2.5-3.5c2.6-3.7 3.4-4.7 3.8-4.7.6 0 .3.7-.9 2.3a54 54 0 0 0-7.3 11.4c0 .4-.7.5-.9.1zm-9.2-3.6c0-1 3-7.4 5.3-11 2.4-3.7 3.6-5.4 5-6.9 1.6-1.7 1.8-1.1.3.6a81.2 81.2 0 0 0-5.8 8.5 41 41 0 0 0-3.6 7.7c-.3 1-.6 1.5-.8 1.5a.4.4 0 0 1-.4-.4zM112 86a11 11 0 0 1 1.2-3C116.1 77.4 124 66.6 125 67c.3.2-.1 1-.8 1.5-1.6 1-7.8 9.8-9.7 13.5-.5 1-1 2.2-1 2.6 0 .4-.1 1-.4 1.2-.6.5-.7.5-1 .1zm13.5-.4c-.3-.7 5.2-8.3 6-8.3.8 0 .6.4-1.1 2.6-.9 1-2.2 2.9-3 4-1.2 1.8-1.6 2.1-1.9 1.7zM113.1 80c0-.7 1.3-3.9 2.4-5.8 2-3.3 8-10.5 8.9-10.5.6 0 .3.5-1.3 2-2.1 2-5.8 6.7-7 8.7l-1.6 3.7c-.8 2-1.4 2.9-1.4 1.9zm14.2-1.6c-.1-.1 0-.6.2-1 .4-.6.4-.8.2-1-.5 0 .3-1.3.9-1.3.2 0 .8-.4 1.3-.8 1-.8 1.4-1 1.6-.3.1.2-3.5 4.5-3.9 4.5l-.3-.1zm-14.5-6.2c0-1.3 8.8-12.7 9.8-12.7.5 0 .2.4-1.9 2.8a63 63 0 0 0-6.5 8.8c-.7 1.2-1.4 1.8-1.4 1zm1.6-6.7c0-.5 1.3-2.2 3-3.9 3.1-3.2 4.8-4.8 5.1-4.8.5 0 .4.5-.3 1-4 3.6-5.5 5.3-6.8 7.3-.5.8-1 1-1 .4zm-3.1-.3c-.2-.5 1.4-2.9 3.5-5.2 1.9-2 6.7-6.6 7-6.6.6 0 0 .8-1.3 2a36 36 0 0 0-8.2 9.4c-.3.8-.8 1-1 .4zm-10.7-4.4c0-.5 1.1-2.4 1.5-2.4.2 0 .4.2.4.4 0 .4-1.9 2.5-1.9 2zm22.5-1.7c0-.4.7-.9 1-.6.2.2-.4 1-.8 1l-.2-.4zm-23-1c0-.5 1.8-2.8 2.1-2.8.5 0 .3.5-.7 1.8s-1.4 1.6-1.4 1zm-1-2.8c0-.2.2-.6.6-1.1 1-1.1 1.5-.7.6.5-.5.8-1.3 1.1-1.3.6zm1.7-.3c-.2-.3.6-1 .8-.7.2.2-.1 1-.4 1a.5.5 0 0 1-.4-.3zm11-.3c-.2-.3 10.6-6.3 11.6-6.3.8 0 0 .6-2.7 1.9l-5.7 3c-3 1.8-2.9 1.8-3.1 1.4zm-11.2-2.6c0-.4 1.1-1.3 1.5-1.3.7 0 .4.7-.4 1.1-1 .5-1 .5-1 .2zm10.4-.4a62 62 0 0 1 13-6c.8 0 .5.5-.4.7a71 71 0 0 0-9.6 4.3c-2.7 1.4-3.2 1.6-3 1zm-11.6-2.4v-.5l1-.8c.9-.6 1-.7 1.2-.3.2.5-.4 1-1.6 1.8-.3.2-.5.1-.6-.2zm14-.9c-.1-.3.3-.6 2.2-1.4 3.7-1.6 7-2.7 7.6-2.5.4.1.2.2-4.3 1.9a72.1 72.1 0 0 0-5.4 2zm-13.8-1.2c0-.4 2.4-2 3-2 .6 0 .5.5-.3 1l-1.5.9c-.8.6-1.2.6-1.2.1zm-.1-1.7c-.4-.3-.2-.6 1-1 1.6-.8 2.5-1 2.5-.7 0 .3-3.3 2-3.5 1.7zm10.5-.5c-.3-.3 0-.6 1.3-1.1 2.1-.9 2.8-.6.8.4a69.3 69.3 0 0 0-2 .7zm5.4 0c0-.3 6.8-2.7 7.9-2.7.3 0 .6.1.6.3a38.3 38.3 0 0 0-6 2.1c-1.5.5-2.5.6-2.5.4zM103 42c0-.4 1.6-1.2 2.4-1.2.8 0 .4.5-1 1-1.4.7-1.4.7-1.4.2zm-1-1.7c0-.4.7-.6 2.6-1.2.9-.3.4.3-.6.8-1.6.6-2.1.7-2 .4zm37.1 88 .4-5.8.5-6c.2-.6.8-.3.9.6l.3-10.7c.1-10.6 0-16.2-.5-16.6v6c.1 4.7 0 6.8-.3 9.5s-.6 7.6-.6 10c0 .3-.3.4-.6.3-.6 0-.6-.1-.5-2.6l.4-6.2c.3-3 .4-6.6.3-19.8l-.2-16.2-1-.2-.9-.2.2 12.5.1 12.6h.5c.4 0 .5 3.5.1 9.6-.1 2.1-.3 8-.3 13.2 0 5.1-.2 9.5-.3 9.6-.1.2-.3.2-.6 0-.3-.3-.4-1-.4-3.3 0-3.5-.5-3-.5.6 0 2.8.3 3.4 1.8 3.4.7 0 1.1-.1 1.2-.3zm2.5-4.1a33 33 0 0 0-.2-4.2c-.2-.7-.2-.7-.4 0l-.2 4.6c-.1 4-.1 4 .3 3.5.5-.5.5-1 .5-4zm-24 3c0-1.3-.6-2.6-1-2.2v1.8c.2 1 .3 1.6.6 1.6.2 0 .3-.4.3-1.3zm13.2.7c.3-.2.5-.6.5-.8 0-.3.3-.9.7-1.4l.9-1.7c.1-.4.5-.7.7-.8.8-.3.9-.7.7-2.5-.1-1.5 0-1.9.4-2.7.6-1 .8-3.7.3-4.4a126.9 126.9 0 0 1-1 3.8c-.8 3.6-2.1 7.2-2.9 7.8-.6.6-2 2.7-1.8 3 .3.3 1 .2 1.5-.3zm12.9-6.2c0-3.7 0-7.3-.2-10-.3-3.6-.3-4.7.1-9.1a231 231 0 0 0 0-28c-.1-2.5-.3-3.6-.5-3.6-.3.1-.4 6.7-.2 19.3a1931 1931 0 0 1 0 37.8c.4.8.6-.9.8-6.4zm-33 5.6c0-.5-.2-.8-.5-1-.5-.3-.6-.6-.6-1.4 0-.6-.1-1-.3-1-.3 0-.1 2.4.3 3.6.3.8 1 .7 1-.2zm8.7-.8c0-.9-.1-1.6-.3-1.6-.2 0-.3 2.1 0 2.8.2.7.3.5.3-1.2zm26-1.8v-3.1c0-.2-.2-.4-.3-.4-.4 0-.4 5.7 0 6l.4.4-.1-2.9zM25.1 120a46.1 46.1 0 0 0-.4-6 246 246 0 0 0 .1 11.4c.2 0 .3-2 .3-5.4zm90.5 1.7c.1-1.3 0-1.8-.1-1.8-.2 0-.3.2-.3.5l-.2 2.3c0 2.2.3 1.5.6-1zm1.4-2.6.2-6.2c.1-.8 0-1-.2-.9-.3.1-.4.8-.4 2.6v5.3c-.2 4-.1 4.2.2 4.2.1 0 .2-1.8.2-5zm33.6 2.8c0-.2-.1-.4-.2-.3-.2.1-.3.7-.3 1.3 0 1 0 1 .3.3l.2-1.3zm-127.4 1-.1-.8c-.2 0-.3.3-.3.7 0 1 .2 1 .4.1zm-1.8-2.8v2.3-2.3zm110.4.7c.3-.8.4-1.7.4-1.8-.2-.2-1 2-1.3 3.3-.3 1.2.3.2.9-1.5zm16.9-.7c0-.2-.2 0-.2.3 0 .4.1.6.2.4v-.7zm-136.2-2.5c0-2.2 0-2.7-.3-2a16 16 0 0 0 0 4.6c.2.5.3 0 .3-2.6zm96 .8c-.3-.7-.5-.2-.3.6.1.6.2.7.3.3v-.9zm37.2-4.4c.5-4.8.5-7.6.2-7.6-.5 0-.7 1-.6 2.8 0 1.2 0 2-.2 2-.2.2-.3 1.6-.3 4.2 0 4.9.4 4.3 1-1.4zm6.8 3c0-.5-.1-.8-.3-.7-.1.1-.3.7-.3 1.3 0 .8.1 1 .3.7.2-.2.3-.8.3-1.2zm-43.8-2.1c.1-1 .1-1.3-.2-1.3-.2 0-.5.1-.6.4-.2.5-.2 2.2 0 3l.2.7.2-.8.4-2zm7-.4a8.9 8.9 0 0 0-.6-2.4c-.2-.2-.3 0-.2 1.6 0 1 .8 3.4 1 3.2l-.2-2.4zm34.6 1.1c-.1-.2-.2-.1-.2.2 0 .3 0 .4.2.3v-.5zM10.5 115c-.2-.3-.4.1-.2.6s.2.5.3 0v-.6zm138-.7c-.2-.2-.2-.1-.2.2 0 .2 0 .4.1.3v-.5zm-139-1.4c7.8-.4 15-1.2 16-1.8.7-.3.6-.6 0-.8-.3 0-.6-.3-.6-.6s-.1-.3-.6-.2c-.3 0-.7 0-.8-.2-.3-.4-.7-.3-.7.2 0 .6-1 .4-1.4-.2a3 3 0 0 1-.4-1.5c0-.6-.1-.9-.4-.8-.4.2-.5 1.6-.2 2.3.4.6.1 1.4-.4 1.4s-.7-.7-1-3c-.1-.8-.3-.8-1-.5-.4.3-.5.5-.4 2.2 0 1.6 0 2-.4 2-.2 0-.5 0-.6-.2-.1-.2-.3-.2-.5.2-.7.8-1.3 0-1.6-1.8-.2-1.6-.5-2.3-1-2-.1.1-.2 1 0 2 .2 3.1-1 3.2-1.4 0-.4-2.5-.9-2.4-1 .2 0 1.8-.1 2-.6 2-.4 0-.5-.2-.6-1.7-.1-1-.3-1.7-.5-1.8-.4-.1-.4 0 0 2.6v1c-.5.7-1 .1-1.4-1.3-.5-2.2-.5-2.3-.8-2.2-.2.1-.3.8-.2 1.7.1 1.1 0 1.7-.2 2-.4.5-.4.5-.9 0-.6-1-2-.8-2 .1 0 .8.8 1.1 2.1 1l3.5-.3zm28.7-1.3c-.2-.2-1-.7-1.8-1-1-.6-1.4-.9-1.4-1.3 0-.6 0-.6-.5-.1-.3.3-.7.3-1.4.2-1-.2-.8.3.3.6.5 0 .8.2.8.3 0 .3 1.3.8 2.8 1.3 1.4.4 1.6.4 1.2 0zM108 110c0-.8 0-1-.4-1s-.5 1.6-.2 2.5c.2.4.2.4.4 0l.2-1.5zm44.1.9c0-.3-.1-.1-.1.3s0 .7.1.5c0-.2.1-.6 0-.8zM5.6 110c0-1.3-.3-2-.6-1.3-.2.5-.2 1.8 0 2 .4.4.6.2.6-.8zm144.8 0c0-.4-.1-.4-.3-.2-.2.1-.3.4-.2.6.3.4.5.3.5-.3zM40 109.9c.4 0 .3 0 0-.3-.8-.6-2.6-.6-2.6 0 0 .4.5.6 1.4.5l1.2-.2zm-13.7-1.1c0-.3-.2-.4-.3-.3l-.3.4c0 .2.2.3.3.3.1 0 .3-.2.3-.4zm111-7.6c0-.7 0-1.3-.2-1.4-.4-.3-1 5.8-.6 8 .2 1.4.2 1.2.4-2l.3-4.6zm-120.8 6.6c0-.3-.1-.5-.3-.5-.1 0-.2.3-.2.7 0 .4 0 .6.2.5.2 0 .3-.4.3-.7zm11.6.6-.1-.3-.3.3.1.2c.2 0 .3 0 .3-.2zm-2.8-.8c.4-.5.4-.6-.4-.6-.7 0-1 .5-.6 1 .3.2.5.1 1-.4zm12.7.1c-.4-.2-1.1-.4-1.5-.4-.8 0-.8 0-.3.4.3.2 1 .4 1.6.4h1l-.8-.4zm69.4-1.1-.1.4c0 .6 0 .8.1.5v-1zm-80 .6c0-.2-.2-.4-.5-.4-.2 0-.3.1-.2.4 0 .2.3.4.4.4l.2-.4zm8-.4c0-.2-.2-.4-.5-.4s-.6.2-.6.4c-.1.4 0 .5.6.5.5 0 .6-.1.6-.5zm-26.7-.4c1.6-.3 3.4-.4 4-.4 2.3 0 11.3-1 11.7-1.5.3-.3-.4-.4-2.8-.4a55.8 55.8 0 0 0-7.2.4 27 27 0 0 0-3.9.5c-.6.2-1.7.3-2.6.2-1 0-1.8 0-2.4.4-.6.2-1.2.4-1.6.3-.8-.2-1.7.2-1.7.7 0 .5 1.9.4 6.5-.2zM152 106c0-.4 0-.6-.2-.6-.3.2-.5 1.3-.2 1.3.2 0 .3-.3.4-.7zm-114.2-.3a2 2 0 0 0-1-.3c-.2 0-.6-.2-.7-.4-.2-.2-.5-.3-.7-.3-.2.1-.4 0-.5-.1-.4-.7.3-.8 1.7-.4 1.7.5 3.3.6 3.7.2.6-.6 0-1-.8-.6-.4.3-.6.3-1.1 0l-2.5-.7a6 6 0 0 1-2-.7c-.3-.5-.5 0-.3.7 0 .4.2.6.4.5.1 0 .2.3.2.8-.1 1 0 1 1.2 1.5.7.2 1.6.4 2 .3.8-.1.8-.1.4-.5zm112.8-4.1c.2-2.5 0-3.6-.4-1.6 0 .5-.3 1.3-.4 1.8-.3.9-.3 2.9 0 3.1.3.4.5-.6.8-3.3zm-117.6 2-.4.1c-.3.3-.3.4 0 .6.3.2.4.1.5-.2v-.5zm-4.3.2c0-.2-.3-.3-.6-.3s-.5.1-.4.3l.6.2c.2 0 .4 0 .4-.2zm1.1-1c-.1-.3-.2-.3-.4 0-.3.4 0 .8.4.5v-.6zm-11.4-.3c1-.2 2.8-.4 4-.4 2-.1 2.5-.3 2.2-.6a38.7 38.7 0 0 0-8.8-1.5c-.4-.4-1.7-.2-1.9.2 0 .3 0 .5.2.6l.3.4c0 .4-.8.7-2 .7-.8 0-1.5.3-1.5.6s5 .3 7.5 0zm17.4 0c0-.2-.1-.3-.3-.3-.1 0-.2.1-.1.2 0 .2.2.3.3.3v-.3zm-26.9-.9c.3-.4 0-.5-1.3-.3l-1.3.2 1 .2c1.3.2 1.5.2 1.6 0zm31.4-.8-.5-6c-.5-5.3-1-7.7-1.5-7.7v5.6c0 4.6 0 5.5-.3 5.5-.2 0-.4 0-.4-.2l-.3-6.3c-.2-5.7-.4-7.1-1-6.2a23 23 0 0 0-.6 6.7c-.1 2.8 0 3.8.2 4.5l.4 1.2c0 .5-.8 1-1.2 1-.3-.2-.4-1.3-.4-6.6 0-5.7-.1-6.4-.5-6.5-.8-.1-1.1 1-1.4 5.2-.3 3.7-.2 4.1.2 4.4.5.4.5 1.7 0 2.4-.3.5-.4.5-.8 0-.4-.3-.5-1-.4-6.6 0-6 0-6.3-.4-6.2-.9.2-1.2 2.3-.9 6.2l.4 4.6c.2 1.2 0 1.7-.6 1.4-.5-.3-.9-4-.8-8.4 0-4.4 0-4.3-.4-4.3-.2 0-.5.7-.8 1.6-.4 1.4-.4 2.3-.3 5.1.2 5 .2 5.2 1.6 6.3 1.4 1.2 2 1.4 3.8 1.6.8.1 2.3.6 3.3 1 2 1 3.6 1.3 3.6.7zm-29.4-1.4c.2-.1-.2-.3-.9-.5-2-.6-2.3-.5-2.3.2 0 .6.1.6 1.4.5l1.8-.2zm141.5-3.7c0-1.7 0-1.7-.2-.8-.3 1.5-.3 3.9 0 3.2l.2-2.4zm-3.6 1c0-.2-.1-.3-.3-.2l-.2.9c0 .6 0 .6.2.2l.3-1zM14.3 90a1339.2 1339.2 0 0 0-.8-15.2v-2.6l-.2 3.3c-.3 4.9.3 20.8.7 22 .4.7.5-3.7.3-7.5zm2-8.1a118 118 0 0 0-.1 14.9c0 .5.2-2.5.2-6.7 0-4.9 0-8-.2-8.2zm-4.4 8.4a564.2 564.2 0 0 0-.6-13.8c-.2-7.8-.3-10.2-.7-9.8l-.5.3v-8c0-11.3-.3-39.1-.5-39.1l-.4.4A667.4 667.4 0 0 0 7.7 53c0 2.3 0 2.5-.5 2.6-.6.2-.6.9-.1 7.8l.1 2.6c0 1.4 0 1.5.4.8.3-.5.4-2.7.6-8.8.1-7.8.3-9.2.9-8.4.3.5 0 16.2-.3 16.6a318.1 318.1 0 0 0 .8 30.5c.3 0 .3-.3.2-2l-.2-7.8c0-15.7 0-17.2 1-16 .3.4.3 1.4.2 5.8 0 3.5 0 5.5.2 5.9.2.5.2.7 0 1-.4.3-.4 4.3 0 8l.3 4c.1 2 .2 2 .5.2v-5.4zm-4.4 3.4c.3-4.6-.2-21-.6-20v4c.3 2.5.3 5.4 0 10.2a77 77 0 0 0-.1 7.3c.3.8.6.1.7-1.5zm99.3.3-.3-.7-.2.7v1.2c.3.9.8-.3.5-1.2zm44.2.1v-.5c-.2.1-.4.7-.5 1.2-.2 1 .2.5.5-.7zM27.1 93c0-2.7-.5-2.9-.7-.3-.1 1.5.1 2.7.6 2.7.1 0 .2-1 .1-2.4zM5.4 94.4c0-.4-.2-.7-.3-.7-.1 0-.3.3-.3.7 0 .3.2.6.3.6.1 0 .3-.3.3-.6zm16-7.8a26 26 0 0 0-.5-4.7c-.2-.1-.3 9.1 0 11.6l.2 1.7.2-2c.1-1.1.2-4 0-6.6zM18 94.2c-.1-.2-.2-.2-.2.2 0 .2 0 .4.2.3v-.5zm0-1.6c-.1-.2-.2-.1-.2.2 0 .2 0 .4.2.3v-.5zm1.7-1.2c0-1.1-.1-1.4-.3-1.2-.3.3-.2 2.7.1 2.7.1 0 .2-.7.2-1.5zm116.5-5.8-.1-10.7c0-3.4-.1-4.2-.4-4.2-.5 0-.6 2.3-.6 11.8 0 5.8.2 8.1.4 8.8.8 2 1 1 .7-5.7zM106 90.8c0-.4-.1-.8-.3-.8-.3 0-.3 1.1 0 1.4.3.3.3.2.3-.6zM5.3 87.6C5 85 4.8 84 4.5 84.1c-.3.2 0 4.5.3 6.4l.1 1 .3-1c.1-.5.2-1.8 0-2.9Zm12.7 2c0-1 0-1-.2-.2v1c.2.7.3.4.2-.7zm7.3-1.7c0-1.2-.2-2-.3-2-.2.2 0 3.9.1 4.2.4.5.4-.2.2-2.2zm129.2.9c0-.3-.1-.1-.1.3s0 .6.1.5v-.8zm-135-.7c-.2-.7-.4-.6-.4.4 0 .6.1.7.3.5V88zm86-2c-.3-.3-.6 1-.4 1.5 0 .3.2.1.3-.4v-1zM18 86c0-.3-.1-.1-.1.4v.6c.2-.2.2-.7 0-1zm132.6-.7c0-.3-.1-.3-.2 0a3 3 0 0 0-.3 1c0 .3.1.2.3-.1l.2-1zM6.3 82c-.4-6.6-1-14.2-1.2-15-.1-.5-.2 1.1-.2 4.2 0 4.2 0 5 .3 5 .4 0 .4.5.4 3 0 4 .2 6.8.6 6 .2-.2.2-1.5.1-3.2zm11.8-1c0-2.2 0-3.4-.3-3.6-.2-.2-.3 0-.3.9 0 1.6.4 6.3.5 6.2l.1-3.4zm7.4 2c0-.6-.7 0-.8.7 0 .8 0 .8.4.3.2-.3.4-.7.4-1zm-5.7-2.7c-.1-.5-.3-.7-.5-.5v1c0 .4.3.6.4.4.1-.1.2-.5 0-1zm11.7.1c.5-.3 0-.7-1-1-1.6-.3-5.7-2.4-7-3.5-1.2-1-1.6-2.1-.8-2.1.2 0 1 .5 1.6 1 2.1 1.8 7.3 4 7.3 3.3 0-.2-.4-.4-.8-.6a12 12 0 0 1-4-2.7c-.7-1.5 0-1.7 1.4-.5 1.1 1 4.2 2.5 5.8 3 1.5.3 2.6 0 2.6-.6 0-.7-.3-1-1.9-1.4-1.4-.5-2.6-1.3-2.3-1.7a25784.5 25784.5 0 0 0 4.8 1.3c.6.1 1 .1 1.2-.2.5-.5.2-1-.7-1-.4 0-1.4-.2-2.1-.5-1.6-.7-2.2-1.3-1.7-1.8.2-.3.6-.2 1.6.2 1.5.7 3.6 1.1 4.2 1 .5-.3 0-1-.6-1-.7 0-1.7-.6-1.7-1.1 0-.3.3-.4 1.2-.3l1.3.2-1-.7c-.5-.4-1-.8-1-1 0-.4-.6-.2-1.4.5-.6.4-1 .6-1.5.5-.7-.1-4.6.6-7.1 1.3-.8.2-2.3.4-3.4.4-1.2 0-2 .1-2.4.4-.4.3-1 .4-1.6.3-2.8-.5-2.9-.5-3.2 0-.5.9-.2 1.4 1.2 2.6 2 1.7 3.4 2.5 4.2 2.5.5 0 1 .3 1.6 1l1 1c0 .4 1.1 1 2.2 1.2 1.5.3 3.6.3 4 0zm5.6-1.1c1.3-1 1.4-1.4 0-1-.5.3-1.6.5-2.3.6-1.5.2-1.6.4-.3.9 1.3.4 1.4.4 2.6-.5zm67-1.1c-.1-1-.6-1.6-.6-1 0 .5.6 1.9.7 1.9v-.9zm-88.4-3c0-.5-.1-.9-.2-.8-.2.1-.1 1.8 0 1.8l.2-1zm87.6-2.2c0-.6-.2-1-.3-1-.3 0-.4 1-.1 1.6.3.7.4.5.4-.6zm-78.6-2.7 3-.4c.9 0 2.7-.3 4-.6l3-.6c.3 0 1-.2 1.2-.4a37 37 0 0 1 6.2-3.8c0-.1.3-.4.7-.6.8-.3.8-.6.1-.8-.8-.2-.9-1.3 0-3.2.7-2.1 1.4-6.2 1.4-9.7 0-2 .2-2.5.5-2.5.2 0 .5.3.7.7.5.8.3 7-.3 9.5-.7 3.5-.8 3.6-.5 3.3.3-.3 1.6-4.8 2-7.1.4-1.7 1-2.3 1.4-1.2.1.7-.2 3.5-.7 5.4-.2 1-.2 1.3.2 1.9.3.5.4 1 .3 1.9l-.1 1.2.6-.7c.7-.7.7-.8.4-1.6-.2-.5-.3-1.2-.2-1.6.6-3.3.8-3.6 1.8-4.4.8-.7 1-1 .7-1.3 0-.3-.5-.6-.9-.7-.4 0-.6-.3-.6-.7 0-.3-.4-.9-.8-1.3-.8-.8-.8-.9-.4-1.3.5-.6.5-.8-.2-.8s-1-.6-.3-1c.7-.7.7-1 0-1.2-.6-.2-.6-1 0-1.1.5-.3.4-.6-.5-1.5-1-.8-1.6-1-1.6-.4s-.2.5-.9-.3c-1.1-1.4-6.8-2.8-7.4-2 0 .2-1.3.4-2.7.5-2.5.1-2.6.2-4.4 1.4a34 34 0 0 0-2.5 1.8l-2.7 1.7c-1 .6-2.5 1.7-3.2 2.5-1.2 1.2-1.4 1.6-1.6 3.6 0 .2-.3.3-.7.3-.3 0-.7.2-1 .7a4 4 0 0 0-.6 1l-.6 1c-1 1.7-1.5 3.1-1.8 5.5-.3 2-.3 2.5.2 4.2.4 1.5.8 2 1.4 2.6.5.4 1 .7 1.2.6l.4.1c0 .2-.5.4-1 .5-.6.2-1 .5-1.1.7 0 .4.2.5 1.3.5 2 .2 4.9 0 6.6-.3zm-2.5-.7c-.3-.3-.2-.8.3-1 .2 0 .6 0 .8.3.4.3.4.4 0 .6-.4.3-.8.4-1 .1zm2.5-.5c.1-.6 1.2-.7 1.2 0l-.6.4c-.5 0-.6 0-.6-.4zm-4.4-1.3c-1-.7-1.2-4.5-.6-8.4.4-3 .8-4.1 1.3-4.1.7 0 .8.6.4 3.6a29 29 0 0 0 0 8.1c0 .8-.5 1.2-1 .8zm9.6-1-.3-1.1c0-.4-.4-1.5-.7-2.4-.7-1.8-1-6-.6-6.5.6-.6 1 .3 1.4 2.5.4 2.5.9 4.7 1.3 5.5.3.4.5.5 1 .4 2.5-.5 2.5-.5 2.4 0 0 .5-.3.7-2.3 1.3l-1.8.6c-.2 0-.4 0-.4-.2zm-3.4-.7c-.8-1.6-1.4-7.2-.9-8.6.3-.6 1-.5 1.2.2.2.6.8 5.7.9 7.9 0 1-.7 1.4-1.2.5zm-9-1.2c-.4-.5-.4-6 0-6.6.6-.7.8 0 1 3.2.1 2.6.1 3.2-.2 3.5-.4.2-.5.2-.7 0zm17.4-.7c-.4-.4-.9-.7-1.1-.7-.5 0-.6-.4-1.7-4-.9-2.8-1-3.8-.2-4 .5 0 1 .8 2 4.2.4 1.3.8 2.3.9 2.2l.5-1.6c.5-1.7.2-4.4-.6-6.5-.3-.9-.5-1.6-.4-1.7.3-.2 1 .3 1.5 1 1 1.8 1.4 3.7 1.2 6.5 0 2 0 2.5.3 2.5.2 0 .4-.4.5-1 .2-.7-.1-6.3-.5-10.9 0-1 .8-1 1.3.2.5 1.1 1 8.4.7 10.4-.2 2 .3.9 1-2.2.9-3.2 1-5.2.4-8s-.6-2.9 0-2.9c.7 0 1.4 2 1.7 5.1.3 2.4.2 3.2-.4 5.6-.3.8-.6 2.4-.7 3.6-.4 2.4-1 3-1.8 2l-.4-.6-.6.7c-.4.6-.8.8-1.7.8-1 .1-1.3 0-1.9-.7zm-12.2-2a15 15 0 0 1 .1-5c.5-.8 1 0 1 1.8.2 2.8-.7 5.2-1 3.1zm20.5 6.4c0-.3-.1-.4-.4-.3-.4.2-1.4 0-3-.7-.5-.1-.8-.1-1 .2-.4.4-.4.4.2.4l1.6.4c1.3.5 2.6.5 2.6 0zm58.6-.8c-.3-.4-.4.1-.2.7l.2.6V68zm-95.7-5a850.4 850.4 0 0 1 0 4c.1.5.2-.2.3-1.5 0-1.4 0-2.3-.3-2.5zm133.3 3.5-.3-10.1c0-5.4-.2-9.1-.4-9.3-.6-.6-.8.5-.8 6.1-.1 5.6-.1 5.8-.6 5.8-.6 0-.6-.1-.5-5.9 0-3.3 0-5.8-.2-5.8-.4 0-.5 1-.5 5 0 3.7-.3 5.3-.8 5.3-.1 0-.3-2.5-.4-5.4-.2-3.9-.3-5.5-.5-5.7-.6-.5-1 .3-1 2v4.8c0 1.9 0 4.3.2 5.5l.2 5c0 1.7.1 2.9.3 3 .3.3 2 .6 5 .8.4 0 .5-.1.3-1.1zm-95.2.2c.8-.2.8-.7 0-.7-.4 0-.8 0-.9-.2-.2-.2-.4-.2-.6 0-.2.3-.6.5-1 .5-.3 0-.3.1.3.3 1 .2 1.5.3 2.2 0zm101.2-6c0-4.5-.3-11.5-.6-12.1-.4-.8-.6 2.9-.4 9l.3 7.5c0 4 .7.4.7-4.4zm-42.2 2.6c0-.5-.2-.4-.7.7-.4.8-.6 1.4-.4 1.7.1.4.3.3.7-.7a4 4 0 0 0 .4-1.7zm-2.8 1c-.4-.3-.4.1-.1.9.2.4.2.4.3 0 0-.3 0-.7-.2-.8zm-88.8-6.7c.3-20.1 0-36.1-.4-33.9-.2.9-.4 23.8-.3 35.9 0 7.4.6 5.9.7-2zm-7.9 5.2c0-.3-.1-.1-.1.5 0 .5 0 .8.1.6v-1.1zm150.1 0c0-.5-.1-1-.3-1l-.2 1c0 .6 0 1.1.2 1.1s.3-.5.3-1zm-10.3-.6c0-.2-.1-.4-.3-.3-.1.1-.2.3-.1.4.2.4.4.3.4-.1zM3.8 59.7c0-1.3-.1-2.2-.3-2.2-.1 0-.2.5-.2 1.2 0 1.3.2 3.3.4 3.3v-2.3zm139.5-4c-.1-2.3-.2-5.2 0-6.5 0-2.5 0-3.1-.6-2.5a58.2 58.2 0 0 0 .3 12.8c-.3.6 0 1 .3.6.2-.1.2-1.7 0-4.4zm-91.6 2.6c0-.2.3-.4.7-.5.6-.2.7-.4.8-1.7 0-.9 0-1.5-.2-1.5-.4 0-1.3 1.3-1.3 1.8 0 .4-.2.5-.7.5-.8 0-1.3 1-1 2l.1.7.8-.5.8-.8zm-46.3-2c.1-.2.2-3.8.2-8.4 0-8.1.1-9.8.7-9.7.2.1.2 2.3.2 7.7 0 9.2.3 8.2.6-1.4.1-6.2.4-12.7.8-23.8.2-3.6.3-4.3.6-4.6.4-.3.5-1 .6-6.7.2-5.7.1-6.4-.2-6.6-.3 0-.6 0-.9.3-.4.4-.4.6-1 21.4-.1 4.7-.3 8.7-.4 8.8-.8.8-.9-2.5-.3-23.2.2-6.5.1-7.4-.5-6.9-.7.5-.8 2.3-.8 12 0 5.2-.1 9.5-.2 9.6-.5.5-.7-.6-.8-3.2 0-1.4 0-2.9-.2-3.2-.4-.9-.6 4.7-.5 10.9l.2 7.9c0 1.8 0 2 .4 1.7.3-.2.5-.2.7 0v4.5c-.2 4.6-.1 13.4.2 14.9.2.9.2.9.2-.4.1-.8.2-1.5.4-1.6zm9.2.1c0-.6 0-1-.2-1.2-.2 0-.3.4-.3 1.2 0 .8.1 1.3.3 1.2l.2-1.2zm40.2-.1c0-.3-.1-.4-.3-.4-.5.2-.5.8 0 .8.2 0 .3-.2.3-.4zM16 55.2c-.2-.3-.2-.7 0-1.1l.4-3.2c.1-2 0-2.4-.2-2.4-.4 0-.4-2.5-.2-35.5a113.9 113.9 0 0 0-.3-9.2A110.7 110.7 0 0 0 14.5 24c0 10 .4 21.7.5 24 .4 6.7.6 8.3 1 8 .2-.2.2-.5 0-.8zm40-.2-.5-.2c-.5 0-.5.7 0 .9.3.1.7-.3.5-.7zM3.4 53l-.1.4c0 .4 0 .6.1.4.1-.1.1-.5 0-.8zm9.9 0c0-.5-.1-.8-.3-.8-.1 0-.2.3-.2.8 0 .4 0 .8.2.8s.3-.4.3-.8zm4.7-5.2.3-7.5c.2-3.3.2-6 0-10.3a354 354 0 0 1-.1-26.6c.2-.5 0-.6-.7-.2-.5.4-.7 7.2-.8 27.5 0 14.4 0 15.7.5 16.2.3.4.4 1 .4 3.2 0 2 0 2.5.2 1.8l.2-4zm44.1 4.4c-.1-.4 1.1-3 1.5-3 .3 0 .2.8-.2 1.7-.2.7.4.6.7 0 .2-.3.5-.6.7-.6.2 0 .5-.3.8-.8.2-.4.5-.8.7-.8l1.1-.4c.8-.3.9-.5.8-1.1-.1-.6 0-.8.5-1.1.4-.2.7-.5.7-.6 0-.1.2-.2.5-.2.2 0 .7-.4 1-.8.2-.4.7-.8.9-.8.6 0 1.4-1 1.2-1.5-.1-.3-.4-.4-.9-.2l-1.5.2c-.5 0-.8.3-1 .6-.2.5-3 2-3.6 2-.2 0-.5.3-.7.7-.3.5-1 1-1.8 1.5-.8.4-1.6.8-1.6 1-.3.4-.8.2-1.7-.6-.7-.7-.9-1-.7-1.5.1-.5 0-.6-.6-.6-1.6 0-2.5.3-2.9 1-.3.7-.3.8.3 1.4.6.6.9 1.3.5 1.3-.3 0-1.2 1.6-1 1.7.2 0 .6-.1 1-.4.8-.5 1.7-.7 1.7-.3l-.5.8-.6.6 1-.2c1-.2 1-.2.9.6l-.2.8h1.6c1.2 0 1.5-.1 1.4-.4zm-2.6-1.6c-.2-.2 1.6-2.1 2-2.1.6 0 .4.6-.5 1.4-1 1-1.3 1.1-1.5.7zm-56 0c-.1-.3-.2 0-.2.7s0 1 .1.7v-1.3zM20 49.2a470.7 470.7 0 0 1-.2-37.3c.6-6.7.3-10.8-.5-7.2a401 401 0 0 0-.2 31.7l.2 11.8c0 1.8.2 2.1.7 1zm-6-1.5c.1-4.5-.1-15.2-.3-15.4-.3-.4-.3-18 0-23.6 0-2.9.2-4.1.5-4.3.6-.6.4-1.3-.3-1.3h-.7v4c0 2.2-.1 5.2-.3 6.7-.3 3.3-.3 10.1 0 16.3.2 2.6.2 5.9.1 7.6-.1 1.7-.2 5-.1 7.6 0 4.4 0 4.5.6 3.8.3-.3.5-1 .5-1.4zm-10.7.2-.1.3c0 .4 0 .6.1.4v-.7zM152 45.7c0-.3-.2-.4-.7-.4-.4 0-1.5 0-2.5-.2-1.5-.1-1.6-.1-1.3.3.2.2.6.4 1 .4l.8.2c.6.4 2.7 0 2.7-.3zm1.5-.2c0-.2-.1-.1-.1.2 0 .3 0 .4.1.3v-.5zM21.7 43l.1-2.1c.3-.3.3-1.4.3-16.5a364.6 364.6 0 0 1 .2-20.7c-.5-.5-.7 0-.8 2.7L21 12c-.3 2.2-.3 5-.1 10.4 0 4 .2 9.8.1 12.7-.1 6.2.2 11 .6 10.3.1-.2.2-1.3.1-2.4zm119.4 1.5c0-.5-1.5-.9-3.9-1-2 0-2.5 0-2.5.3 0 .6.5.8 1 .4.2-.2.5-.2.8 0l2.3.3c1 0 2 0 2 .2.2.1.3 0 .3-.2zm-59.3-1c.2-.2.3-.7.2-1.4-.2-2-.7-1.8-1 .4 0 1.5.2 1.8.8 1zm2.6 0c.5-.3.5-.3-.3-1l-.8-.8V43c0 1.2.2 1.3 1 .7zm-21-.6 2.2-.7c.3 0 .8-.4 1-.6.3-.3.8-.5 1.2-.5.4 0 .8-.2.9-.4 0-.3.5-.4.8-.4.5 0 1.2-.5 2.2-1.5.8-.8 1.7-1.5 2-1.6 1.2-.4 0-2-1.5-2-.7 0-1 .2-1.1.5 0 .3-.3.7-.4 1-.1.2-.2.7 0 1 0 .6 0 .7-.4.7l-.9.3c-.2.3-.3.3-.6 0-.4-.4-1.4-.4-1.8.1a30.4 30.4 0 0 1-5.2 3.8c-.5.3-.6.4-.3.6l.4.2 1.6-.5zm84.2 0c1 0 1.2-.4.2-1.3-.5-.6-.7-.6-1.2-.3a2 2 0 0 1-1.2.3c-.8-.2-.5-.9.4-1.2 1.3-.3 1-.7-.5-.5-1.2.2-1.3.1-1.3-.3.1-.3.5-.6 1-.8l1-.3-1.2-.2c-1-.2-1-.3-1-.8.2-.5.1-.7-.3-.7-.3 0-.5 0-.5-.2 0-.4.9-.8 1.8-.8.5 0 .8-.1.7-.3-.1-.1-.8-.3-1.5-.3-1 0-1.3 0-1.4-.5 0-.4-.3-.5-.5-.4-.4.3 0 4 .5 5l.4 1.2c0 .7.5 1.3 1.3 1.5.5 0 .8.3.8.6 0 .7.2.8 1 .6.3-.2 1-.3 1.5-.3zM48 41.7c-.5-.7-.7-.8-1-.2 0 .4.9 1.2 1.3 1 0 0 0-.4-.3-.8zm29.6.7c0-.3-.8-.6-1-.4-.2 0-.3.3-.2.4.2.3 1.2.3 1.2 0zm55-.7v-1.6c.9-4.3 1-12 .6-18.7l-.5-6.7c-.1-2.9-.1-3-.6-2.5-.5.4-.5 1-.4 14.5.1 7.8.3 14.4.4 14.8.1.3.4.6.5.6.2 0 .2-.1 0-.4zm2.9.2c.2-.2.4-1.3.5-4.2a324 324 0 0 0-.5-24.3c-.3.2-.4-.7-.6-4.8 0-2-.2-4-.3-4.2-.1-.2-.5-.4-1-.4h-1v2.2c0 2 .1 2.3.6 2.6.5.4.6.9 1 8 .6 8.8.7 12.9.2 19.5-.1 2.7-.2 5.1-.1 5.4.2.5.6.5 1.2.2zm3.6 0c.1-.2 0-2-.3-3.9-.2-2-.3-4-.2-4.5.2-1.1 1.2-2.1 2.6-2.5 1.4-.4 1.4-.4 1-.9-.2-.2-.2-1.1 0-3 .3-4.1.3-8-.2-10.3-.2-1.2-.4-3.7-.4-6 0-2.2 0-4.5-.2-5.2-.2-1.2-.2-1.2-1.3-1.3h-1.2l.2 1 .1 2.3c0 1.2.1 1.4.6 1.5.5.2.5.4.6 6.6 0 11.8-.1 14.8-.8 14.8a75 75 0 0 1-.4-8.3c-.2-6-.3-8.3-.5-8.4-.2-.1-.4-1.4-.6-3.6-.3-5-.4-5.7-1.3-6l-.8-.1.2 3.2a265.7 265.7 0 0 1 .9 34.6c.1.3 1.8.3 2 0zm12.3-.2c0-.2.3-.4.9-.4 1.1 0 1.3-.2.8-.8-.7-.7-.3-1.4.7-1.2.5.1.8.1.8 0 0-.2-.3-.4-.6-.4-.9-.1-1-1 0-1.3.7-.4.8-1 0-1.3-.6-.3-.6-.8 0-.8.2 0 .3-.2.3-.5 0-1.2-.8-.4-1.2 1.2-.8 2.9-1.3 4.3-1.7 4.8-.6.7-.6 1.1-.2 1.1l.2-.4zm-71.6-1.3c-.1-1 0-1.3.2-1 .5.5.9.4.7-.2-.2-.8.6-1 1-.3.6.8.9.7 1-.3.3-1.4.8-1.7 1.6-.9.4.4.7 1 .7 1.4 0 1 .5 1 .8 0 .4-1.5.9-2.1 1.4-2 .4.2.5.6.4 2 0 2.2 0 2.2.6 1.1s1.2-1.3 2-.5c.2.3.5.6.7.6 1 0-2-3-3.5-3.5-.5 0-1.3-.3-1.8-.4-2.2-.6-.6-1.3 1.7-.8 1 .2 1.5.5 3.2 2.2 1 1.1 2 2 2 1.9.7-.6-2.5-4.1-4.4-4.8-.7-.3-1.3-.6-1.3-.8v-.7c0-.4-.4-.4-3.6-.2-.8.1-6 2-6.4 2.5l-.2 1.4a7 7 0 0 1-.2 1.6l.7.4.8.6c0 .4-1 .4-1.3 0-.3-.3-.4-.3-.6 0-.5.8-.3 1 .8 1.2l1.5.6c.3.2.7.3 1 .3.5 0 .5-.2.5-1.4zm2-3.3.3-.3.3.3-.3.3a.3.3 0 0 1-.3-.3zm-36.8 4c-.2-.7 1-2.8 1.8-3.2.3-.2 1-.3 1.4-.2l.8.2v-5.6c-.1-5.5-.1-5.7-.6-5.6-.3 0-.6.2-.7.3-.1 0-.3 2-.4 4.1-.2 4.8-.3 5.8-.7 5.7-.3-.1-.3-1.4-.3-5.1.1-4.8.1-5-.4-4.9-.4.1-.5.5-.6 5.5-.1 3-.3 5.6-.4 5.8 0 .1-.4.2-.7.1-.4 0-.8 0-.9.2-.2.4-.8.3-1-.1v-.8c.2-.2.4-2.6.4-5.3l.1-5h-.7c-.6 0-.6.1-.8 1.4l-.2 3.5c0 2 0 2 .7 2.3l.7.1-.7.6c-.6.5-.8.8-.8 1.9-.1 1.4-.6 2-1.8 2-.4 0-.8.1-.9.3-.1.5 0 .6 1.5.8 1 .2 1.3.1 1.4-.2.2-.4 1-.6 1.3-.3l-.1.7c-.2.4-.1.6.6.9a5 5 0 0 0 1.5.4c.5 0 .6-.1.5-.5zm14.2-.3c.2-.3-.3-.6-.7-.4-.3.2 0 .7.3.7l.4-.3zm-33.6-.6c.2-.1-.1-.2-.9-.1-.7 0-1.2.2-1.3.4 0 .3.1.3 1 .2.5-.1 1-.3 1.2-.5zm22.5 0c.1-.5 0-.9-.2-1.2-.3-.3-.4-.3-.8.2-.5.5-.5.5 0 1 .6.7.8.7 1 0zm-18.5-.5c.1-.1 0-.2-.3-.2-1 0-2.2.3-2.2.6s2 0 2.5-.4zm4.6 0c.3 0 .5 0 .4-.2 0-.2-.8-.3-1.5-.3-1.4 0-1.4 0-.7.4.3.2.8.3 1 .3l.8-.2zm27.3 0-.3-.4c-.2 0-.3 0-.3.2 0 .1.1.2.3.2h.3zM56 38.2a8 8 0 0 1 2.4-1.2c.4 0 1-.2 1.4-.4l1-.6.9-.5c.2-.2.5-.3.7-.2.1 0 .5 0 .9-.2.3-.3 1.2-.6 2-.7l2-.6c.2-.2.7-.2 1-.1.3.1.5 0 .6-.4 0-.3.4-.5.7-.5.2 0 .5-.1.6-.3.2-.4-.4-.6-.7-.3-.2.2-.7.3-1.1.3-1 0-5 .4-5.7.7-.4 0-.5.4-.5.9 0 .6-.2.8-.6.8-.4 0-.5-.2-.5-.6 0-.4-.1-.8-.3-1-.2-.1-.6-.3-1-.3-.7 0-.7.6-.2 1.7.6 1 .4 1.3-1 1.1-1.4-.1-1.4-.1-.7-.4.5-.2.6-.3.4-1.8-.2-1.7-.4-2-1.2-1.9-1 .2-1 1.1 0 1.6l.7.3-.8.2c-.6.1-.8.3-.9.9 0 .5 0 .8.5 1 .7.2.7.2 0 .2-.2 0-.6.1-.6.3l-1.7.4c-1 0-1.6.3-1.8.6-.6.7-1 .1-.9-1.4.1-1.3.1-1.3-.7-1.4-.8 0-.9 0-1 .8l-.2 2v1.3l1 .2c.7.1 1.2.3 1.3.4 0 .2.6.3 1.1.3.8 0 1.5-.3 2.9-1.2zm-30.6.5-.1-.3c-.3-.3-2 .2-1.9.5.2.2 1.6 0 2-.2zm70.4 0c0-.2 0-.4.2-.4.5 0 .6-.8.1-1.3-.7-.8-.9-.6-.9.8 0 .7.1 1.3.3 1.3.1 0 .3-.2.3-.4zm28-1a262.3 262.3 0 0 0-1-31.6c0-2.2 0-2.2-.8-2.2h-.7l.3 3.5.2 10.1a609.3 609.3 0 0 0 .7 21.4c.8.5 1.2.1 1.3-1.2zm-94.2.6c.5 0 .8-.1.8-.4 0-.4-1.2-.3-2.5.3l-.8.4.9-.1 1.6-.2zm91.8-.2-.2-2c0-1-.2-1.5-.3-1.5-.2 0-.3.4-.2 1 .1 1.2-.1 1.8-.7 1.6-.3-.1-.4-1-.5-4.2-.2-4.2-.7-9.5-1-9.5-.2 0-.1 8.2.1 9 .2.6.1 1-.2 1.3-.5.5-.9 3.6-.5 3.8.3.2 3 1 3.5 1 .2 0 .2-.1 0-.5zM35 37.8c0-.5-1.1-.7-2.4-.3-1.5.4-1.3.7.7.7 1.3 0 1.7-.1 1.7-.4zm2-.1c0-.7-1-.8-1 0 0 .3.2.5.6.5.4 0 .5-.2.5-.5zm57.5.3c0-.3-.5-1.1-.5-.9 0 .1 0 .4-.2.6 0 .3 0 .5.3.5l.4-.2zm56.4-1a8 8 0 0 0 .7-2.1c.1-1 0-1.2-.3-1.1l-.5-.1c-.1-.2 0-4.3.2-9.3a65.3 65.3 0 0 0 0-10.3c.3-.5.2-9.6-.1-10-.2-.1-.4 0-.7.2-.4.4-.4 1.5-.4 9.3 0 8.4-.3 16.3-.6 17-.6.8-.7-.8-.7-8 0-4.7 0-7.7-.2-7.8-.2-.1-.3-1.7-.2-4 0-5 0-6.4-.8-6.5-.6 0-.6 0-.4 2.2 0 1.8 0 2.7-.4 3.9-.4 1.3-.4 2-.2 7 .2 3 .2 7.3.2 9.4l-.1 3.8 1.3 1.5c1.8 2 2.2 2.6 2.2 4.5 0 1.8.3 1.9 1 .5zm-111.3.7c.6-.2.5-.9 0-.9-.9 0-1.4.3-1.4.7 0 .4.7.5 1.4.2zm36.4 0c0-.2-.1-.3-.3-.3-.1 0-.2 0-.2.2s.1.3.2.3c.2 0 .3-.1.3-.3zm22.8-.2-.8-.9c-.9-.6-1-.4-.4.6.5.7 1.2 1 1.2.3zm-73.9-.1c.7-.2.7-.3-.1-.3-.5 0-1 .1-1 .3-.2.3.2.3 1.1 0zm3-.4c.2-.4.2-.4-.4-.4-.4 0-.7.1-.7.4 0 .2.2.4.4.4l.7-.4zm16.4-.2.1-5.2c.1-3 0-4.6-.1-4.7h-.4a59.8 59.8 0 0 0 0 10.5c.2 0 .4-.3.4-.6zm72.8-.3c.3-1.2.2-6 0-8.3a334 334 0 0 1-1.7-17.3c-.2-.5-.3 1-.2 6.2.1 6.7 0 10.6-.2 15-.2 4.9-.1 5.3 1.2 5.3.6 0 .8-.2 1-.9zm-15.3.3c.4-.5-3.2-2.5-3.7-2l.8 1.2c.8.8 1.3 1.1 1.9 1.1.5 0 1-.1 1-.3zm12.4-3 .2-9.2-.1-13.6V4h-1l-1-.2v6l.4 10.9a66 66 0 0 1-.8 13.7c-.2.9-.4 1.1-.7.8-.1-.2-.1-1.3.1-3 .5-3.7.8-13 .4-14-.2-.4-.3-3.4-.3-7.4 0-5.5 0-6.7-.3-7-.9-.6-1.2 0-1.3 2.5-.4 5.4-.6 16-.4 21.9.2 5.9 0 7.4-.5 6.4-.5-.7-.6-20.2-.2-27.6l.2-3.4h-1c-.5 0-1 .2-1.2.4-.2.3-.3 2.3-.3 8.4a4821.2 4821.2 0 0 1 .2 24c.1.1 6.3.7 6.9.6.5-.1.6-.3.7-3zm-83.5 2.9h-.5c-.2 0-.2.1.1.1.3 0 .5 0 .4-.1zm61.7-1.3c0-2-.1-2.1-2.8-2.2-2.1 0-3 .2-1.5.5 1 .2 3.5 2 3.7 2.7.3.9.6.4.6-1zm-59.9 1H32c-.2 0-.1.1.2.1h.3zm2.3 0c.1-.2.1-.4 0-.4-.2-.2-.9 0-.9.3s.8.3 1 0zM37 36c0-.1-.1-.2-.4-.2-.3 0-.5 0-.5.2s.1.3.3.3c.2 0 .5-.1.6-.3zm68.5-16V4h-.7c-1.3-.2-1.3-.8-1.4 15.8l-.1 15.5.7.6c1.6 1.2 1.5 2 1.5-15.8zM24.9 35.8c.6-.2.6-.3.3-.4-.7-.3-1.6 0-1.8.3-.1.4.5.4 1.5 0zm14.7 0c.4-.1.4-.3.2-.4-.4-.2-1.4 0-1.4.4 0 .3.5.3 1.2 0zm15.5-.3c.3-.6.2-1.3-.2-1.3s-1 1-.7 1.5c.2.5.6.4 1-.2zm39.2.1c0-.2-.2-.4-.3-.4-.1 0-.3.2-.3.4 0 .3.2.4.3.4.1 0 .3-.1.3-.4zm-41-.5c0-.4-.2-.6-.3-.6-.2 0-.3.2-.3.6 0 .4.1.7.3.7.1 0 .3-.3.3-.7zm13.5.4-.2-.3-.2.3v.3c.2 0 .4-.1.4-.3zm-39-.2h-.5c-.2.1-.2.2.1.2.3 0 .5 0 .4-.2zm3-.2c0-.5-.6-.5-1.2 0-.5.4-.5.4.3.4.6 0 .9-.1.9-.4zm2 0c0-.2 0-.4-.3-.4-.4 0-.7.4-.5.6.3.3.6.2.7-.2zm2 0c.3-.1.5-.3.5-.4 0-.4-1.4-.2-1.6.2 0 .4.5.4 1.1.2zm2.2-.5c.2-.6.1-.7-.6-.4-.4.1-.6.4-.5.5.3.4 1 .3 1.1-.1zm59.4 0c.3-.4.2-.4-.4-.4-.7 0-.9.2-.5.6.3.3.5.2.9-.2zM40 34c.2-.4.3-6.4 0-6.6h-1c-1.1.3-1.3 1.3-.2 1.6 1 .2 1.1.3 1 .7-.1.2-.5.4-1 .5l-.7.2v4.2l.9-.1 1-.5zm62.5-1.4c.2-1.6 0-10.8-.3-20.6 0-2.5 0-3.9.2-4 .5-.3.2-3.7-.5-4h-.7c-.6.3-.7 5-.5 17.8a63 63 0 0 0 .6 12.1c.7.9 1 .5 1.2-1.3zm-77.2 1.2c0-.2-.5-.4-1-.4s-1 .2-1 .4.3.3 1 .3c.8 0 1-.1 1-.3zm3-.2c0-.2-.2-.3-.8-.3-.5 0-1 .3-1 .5s.1.3.7.2c.5 0 1-.2 1-.4zm2.6-.4c0-.4 0-.5-.7-.4-.4 0-.8.3-.8.6 0 .4 0 .4.6.4.5 0 .8-.3.9-.6zm20.8-.1c.2-.5.3-.9.1-1.1l-.2-1.7c0-.7-.2-1.3-.3-1.4-.2-.1-.2-.2 0-.5.1-.1.3-.6.3-1 0-.6-.1-.7-.8-.7H50v7.1h.6c.5 0 .8-.2 1-.7zm-18.8 0c0-.6-1-.6-1.1 0-.1.4 0 .5.5.4.3 0 .6-.3.6-.5zm20.4.1.2-2c.2-1.7.1-1.9-.4-1.9-.4 0-.5.2-.5 2.1 0 1.3.1 2.2.3 2.2.2 0 .3-.2.4-.4zm2-.2c.2-.7 0-1.3-.3-1.3-.4 0-.8 1-.7 1.5.2.5.7.4 1-.2zm16.8 0c1.3-.8 1.5-1.3.4-1.3-.7 0-.9.1-1.1.8-.3.7-.4.8-1 .7H70c0 .5 1.1.4 2.3-.3zm4.6 0c0-.2-.8-.6-1-.4-.2.2.5 1 .8.8l.2-.4zm23.3-4.5L99.8 15c-.2-6.4-.2-8.6 0-9.4.4-1.3.1-1.8-.8-1.6-.3 0-.4 1.3-.3 10 0 6.8 0 9.8-.2 9.8-.1 0-.3-.4-.3-.8l-.1-2.7-.3-6c-.3-5.6-.5-3.1-.8 7.8-.2 8.1-.3 9.9-.8 8.1-.3-1.2.2-19.4.6-21.8.7-3.8.7-4.2.4-4.6-.2-.2-.4-.2-.7.1-.2.3-.4 2-.5 7.6-.2 7.4-.5 15.2-.8 18.5-.2 2.1-.3 2 1.4 2.3.7.2 1 .1 1-.3.2-.7.7-.6.9.1 0 .5 1 1.4 1.4 1.5.1 0 .2-2.3.2-5.1zM35 33v-.5c-.4-.4-1.2 0-1.2.4 0 .5 1 .5 1.2.1zm2.2-1.4c0-.9-.1-1-.6-1-.4 0-.5.1-.6 1 0 1.5.1 1.8.8 1.4.4-.2.5-.5.4-1.4zm106.2.9c.1 0 .2-.1.2-.3 0-.4-1-.2-1.2.3-.1.2 0 .3.3.2l.7-.2zm-68-.3c-.1-.2-.4-.4-.7-.5-.4 0-.4 0-.1.4.4.5.9.5.7 0zm-47.1-.5c0-.5-.1-.5-.5-.3-.9.5-1 .8-.2.8.5 0 .7-.1.7-.5zm32.5 0c0-.2-.3-.3-.8-.3-.7 0-1 .3-.6.6.2.2 1.4 0 1.4-.3zm21.4-1.5V16.2c0-10.3 0-12-.3-12.4-1-1-1-.2-1 12.7v14.2c.1 1.5.2 1.6.7 1.6.5 0 .5-.1.6-2zm-51.5 1.5c.5-.3.6-3 .1-3.4-.3-.3-.5-.3-1 0-.6.3-.6.5 0 1.2.4.6.4 1.3 0 1.5-.3 0-.5.3-.5.6 0 .4.8.5 1.4.1zm32.4.1c.5-.2.5-.9 0-.9-.8 0-1.3.4-1.1.8.2.3.5.3 1 .1zm-30.3-.5c0-.4-.6-.3-.8.1 0 .2 0 .3.4.3.2 0 .4-.2.4-.4zm32.6.2c.6-.2.6-.9 0-.9s-1 .4-.7.8c.2.4.2.4.7.1zm14.3-4.8c.3-8.3.2-23-.1-22.4-.4.7-.7 27.4-.3 27.4.1 0 .3-2 .4-5zm4.6 3c.4-1.9.5-3 .4-10a76 76 0 0 0-.4-8.9c-.1-.5-.2-1.9-.1-3.3.2-2.7 0-3.8-.5-3.8-.2 0-.4.5-.4 1.5-.2 2.5 0 26.5.3 26.5l.7-2zM35 31.2c0-.3-.2-.4-.4-.3l-.4.4.4.2c.2 0 .4-.1.4-.3zm119.6-.3c0-.4-.2-.7-.4-.7-.3 0-.4.3-.4.7 0 .4.1.6.4.6.2 0 .4-.2.4-.6zm-130.9 0c.2-.4 0-.7-.4-.7l-.2.5c0 .7.4.8.6.2zm44.9 0c0-.6-.4-.7-1-.4-.8.4-.7.8.2.8.5 0 .8-.2.8-.4zm1.9-.3c0-.2-.2-.4-.4-.4-.3 0-.4.2-.4.4s.1.4.4.4c.2 0 .4-.2.4-.4zm-15-.6c0-.8-.5-.7-.6.1 0 .5 0 .7.3.6.1 0 .3-.4.3-.7zm2.6.5c.1 0 .2-.3.1-.7 0-.6-.2-.8-.7-.8-.4 0-.7.2-.8.5-.1.8.2 1.3.7 1.1l.7-.1zm15 0c0-.2-.4-.3-.8-.3s-.8.1-.8.3l.8.2c.4 0 .8 0 .8-.2zM91.9 28c-.4-3.6-.8-8.9-.8-10.2a68 68 0 0 0-.5-8.2c-.2-.9-.2-.8-.4.8a42.5 42.5 0 0 0 .9 14.6l.7 5.4c.4.9.4 0 .1-2.4zm29 1.5c0-.8 0-1.2-.2-1-.2.2 0 2.2.2 2.2v-1.2zm24.1.6c.1-.1.2-6 .2-13.1V4l-.9.1c-.5 0-1 .3-1.2.4-.2.2-.2 2 0 6.3.6 9.6.5 18.5-.3 19.4-.2.3 0 .3.9.2.6 0 1.2-.2 1.3-.3zm-84.3-.7c0-.7-.1-.8-.6-.7-.5 0-.6.3-.7.8 0 .6 0 .7.6.7s.7-.1.7-.8zm-32-.2c0-.4-.1-.7-.3-.9-.3-.4-1.6 0-1.7.6-.3.8 0 1 1 1 .6 0 .8-.2 1-.7zm34.7 0c0-.6-.1-.7-.7-.8-.5 0-.7 0-.8.5-.2.8 0 1.1.8 1 .6 0 .7-.2.7-.7zm-30.1 0c.2-.5-.3-1.4-.8-1.2-.2 0-.4.5-.4 1s.1.7.5.7c.3 0 .6-.2.7-.4zm32.2.3c.7-.2.6-1.4 0-1.4-.7 0-1 .6-.8 1.2.2.4.3.5.8.2zm87.5-.3c.1-.3.5-.6.8-.7.3-.1.6-.5.7-1.1.2-1-.3-1.8-.6-1 0 .4-.3.6-.5.6a100.9 100.9 0 0 1 .2-14.9c.4-2.5.4-5.7-.2-6.7-.2-.5-.5-.8-.6-.8a948.9 948.9 0 0 1-.9 25c.2.3.8 0 1-.4zM35 28.6c0-1-.7-.8-.8.1-.1.6 0 .8.3.7.4 0 .5-.3.5-.8zm2.3 0c0-.8-.2-1-.8-.8-.5 0-.8 1-.4 1.4.4.4 1.2-.1 1.2-.7zm31.2 0c0-.7 0-.8-.8-.8-.6 0-.8.1-.8.7 0 .7.2 1 1 .9.3 0 .5-.3.6-.8zm-43.1.2c0-.5-.6-.5-1.6-.2-.7.2-.7.2 1.4.5 0 0 .2-.1.2-.3zm45-.4c0-.3-.2-.6-.4-.6-.3 0-.4.3-.4.6s.1.5.4.5c.2 0 .4-.2.4-.5zm2.3 0c0-.7-.9-.8-1.1-.2-.2.5 0 .7.7.7.3 0 .4-.2.4-.5zm2-.2c0-.1-.2-.3-.4-.3-.1 0-.2 0-.2.3s0 .4.2.4.3-.2.3-.4zm-21-.6c0-.2-.1-.3-.3-.2-.2 0-.4.2-.5.4 0 .2 0 .3.3.3.2-.1.4-.3.4-.5zm1.8-.4c0-.3-.2-.6-.4-.6-.1 0-.3.3-.3.6 0 .4 0 .6.3.6s.4-.2.4-.6zm2.7.2c.5-.5-.3-1.3-1-1-.6.1-.8.9-.4 1.3.3.3 1 .1 1.4-.3zm35.4-.1c0-.3 0-.5-.2-.4-.2 0-.2.3-.1.5.2.6.3.5.3-.1zm-32.9-.4c0-.3-.2-.5-.6-.6-.4 0-.6 0-.6.4 0 .3 0 .6.2.7.3.4 1 0 1-.5zm2.6 0c.1-.3 0-.6-.1-.8-.4-.5-1.3 0-1.3.7 0 .6 1.2.7 1.4 0zm57.4-6.2-.2-11.1c-.2-5.3-.6-7.4-.7-3.2 0 2.7-.2 3.8-.5 3.6-.2-.1-.3.6-.3 1.5 0 1.9 1 15 1.3 15.5.3 1.1.5-.7.4-6.3zm-55.2 5.7c0-.3-.2-.6-.5-.6-.4-.1-.5 0-.5.6 0 .5.1.7.5.6.3 0 .5-.3.5-.6zm2.9-.4c0-.6-.2-.7-.9-.8-.7 0-.8 0-.8.6 0 .8.2 1 1 1 .5-.1.7-.3.7-.8zm2-.3c0-.5-.2-.8-.4-.8-.3 0-.4.3-.4.8s0 .8.4.8c.2 0 .4-.3.4-.8zm2.2.5c.3-.4-.1-1.3-.7-1.3-.4 0-.5.2-.5.8 0 .6.1.8.5.8.3 0 .6-.1.7-.3zM25.5 26c0-.2-.3-.3-.7-.3-.4 0-.6.1-.6.3 0 .1.2.2.6.2.4 0 .7 0 .7-.2zm5.4 0c.2-.4-.1-.4-.7 0-.3.2-.3.2 0 .2s.6 0 .7-.2zm2.2 0c.5-.6.4-.8-.3-.8-.5 0-.7.1-.7.5 0 .6.5.7 1 .2zm1.9-.5c0-.6-.4-.8-.7-.3-.2.3.1.8.5.8l.2-.5zm40 0c0-.2-.2-.3-.5-.3-.7.2-.7.8-.1.8.3 0 .6-.2.6-.4zm-37.6-.3c0-.4-.2-.5-.7-.5-.6 0-1 .5-.7.9l.8.1c.4 0 .6-.1.6-.5zm5.1.2c.6-.5.4-1.3-.4-1.3-.6 0-.9.6-.7 1.2.2.5.5.5 1.1 0zm-3-.1c1-.2 1-.9 0-.9-.7 0-1.3.4-1.3.8 0 .3.2.3 1.3 0zm53.8-.7-.2-1.7c0-1.5-.4-1.8-.4-.4s.3 2.7.6 2.7c.1 0 .2-.3 0-.6zm-49-.5c0-.2-.2-.2-.4 0v.6c0 .2.2.2.4 0 .2-.1.2-.4 0-.6zm2 .2c0-.3 0-.4-.4-.4-.3 0-.6.1-.6.3 0 .8.9.9 1 .1zm2.7-.2c0-.5-.8-.6-1.3-.1-.3.4-.3.4 0 .7.4.2 1.3-.2 1.3-.6zm2.8.3c.1-.2 0-.5-.2-.7-.5-.5-1.5-.2-1.5.4 0 .4.2.6.8.6.4 0 .8-.2 1-.3zM25.5 20a1377 1377 0 0 0-.3-12.3V3.5h-.6c-.5 0-.7.2-.8.7-.3 1.3-.7 10-.7 15.1v5.1h1.3l1.2-.1zm3 1.2V10.8l-.1-7.2-.7-.2h-1c-.3.4-.4 20.2 0 20.7 0 .2.5.3 1 .2h.8v-3.1zm2.4-.5-.2-8.3c-.3-5.4-.1-8.1.4-8.1.3 0 .4 2.1.6 9.7.1 10 .2 10.4 1.1 9.9.4-.2.5-3.6.2-16.6V3.6h-1.8l-1.8-.1V7c0 5 0 16.7.2 17h.7c.6 0 .6-.1.6-3.3zm28.5 3c.8 0 1.5-.3 1.5-.4 0-.2-.6-.2-1.4-.1l-3 .3c-.8 0-1.3.2-1.2.4.1.3.5.2 4.1-.2zm-24.3-7c.3-13.8.4-12.8-.2-12.9-.3 0-.6 0-.7.2a193 193 0 0 0 0 18.6c0 1 .1 1.3.3 1.2.3 0 .4-1.9.6-7.1zm2 7c.2-.2.3-2 .4-7A100.3 100.3 0 0 1 38 4h-.9c-.6 0-.6.1-.6 2.6a115.7 115.7 0 0 0-.7 16.9c.2.4.6.5 1.1.2zm3.2-2.9.2-9.7c0-6.9 0-7-.5-7.2-.3 0-.6 0-.6.2l-1 10.5c-.2 3.9-.3 8.6 0 8.8 0 .1.5.2 1 .1h.8zm23 2.5-.4-.2c-.2 0-.3 0-.3.2.1.2.3.3.5.3.1 0 .2-.1.2-.3zm4.5 0c.6-.4.6-.5.2-.6-.5-.2-1.6.3-1.4.7.2.3.4.3 1.2-.2zM42.6 23c.2-.1.3-.5.3-.8v-3.4c0-2.2.1-2.7.4-2.7.4 0 .4-.8.4-6.2L43.6 4l-.6-.1h-1.3c-.5.2-.6.3-.3.8.2.4.2 3 0 9.2a132 132 0 0 0 0 9.1c.2.5.7.6 1.2.2zm22.8.1c0-.3-.5-.4-.6-.1-.1.1 0 .2.2.2h.4zm-21-2.2c-.1-1 0-2 .1-2 .2-.1.3-.5.3-.9s-.1-.6-.5-.5c-.4 0-.4.4-.5 2.8 0 2.1 0 2.7.3 2.6.2 0 .3-.6.2-2zm2 .4-.1-9.3c-.1-6-.2-8-.5-8.1h-.6a54.4 54.4 0 0 0 .2 15.4c0 3.4 0 3.4.5 3.4.5-.1.6-.3.6-1.4zm2.3 1c.2-.3.2-4.4.2-9.5v-9H48c-.6-.2-.7 0-.8.8a64 64 0 0 0 0 6.5l-.1 6.2c-.3.7.1 4.5.6 5 .3.5.6.5 1 0zM52 22c.6-.6.6-2.4.2-6-.2-1.4-.3-4.7-.3-7.4V3.8h-.6c-1.3 0-1.4.2-1.4 9.8v9h.9c.4 0 1-.3 1.2-.6zm7.8.1c4.6-.2 4.6-.2 4.9-.8v-9c-.1-7.6-.2-8.3-.6-8.6h-.6c-.3.5-.7 8.8-.7 12.8.1 3.5 0 4-.3 4s-.4-1-.4-8.4V3.6h-1c-1 0-1-.5-1 9.4-.1 7-.2 7.8-.6 8-.4 0-.4-.7-.4-8.7 0-5.5-.1-8.8-.3-9H56c-2.3.2-2.7.3-2.8.8-.3 1-.2 8.1.2 13.2.3 5.2.4 5.3 1.5 5l5-.2zm-4-9c-.1-4.7-.1-8.7 0-8.7 0-.1.2-.1.4 0a120.4 120.4 0 0 1 .6 17c0 .2-.3.3-.5.3s-.4-2-.5-8.6zm7.5 2.1c0-.2.2-.3.3-.3.5.2.6.8.1.8a.4.4 0 0 1-.4-.5zm55.2 5.2c0-1.2-.2-2.2-.3-2.3-.2-.2-.2 3.1 0 3.8.4 1.2.5.6.3-1.5zm-50 1c0-.1.5-.2.9 0 1.4.2 1.4-.1 1-6.2a130.4 130.4 0 0 1-.3-11.3c0-.1-.5-.1-.8 0-.6.1-.7.3-.7 1.6l-.1 4.7.1 6.8c.2 2.4.2 3.6 0 3.8-.7.7-.8-.5-1-7.8-.2-6.4-.3-7.7-.7-8.4-1-1.8-1-1-1.1 7.6v9c.1.5.3.6 1.3.6.7 0 1.3-.2 1.4-.3zm4.2-1.2c.4-1 .4-1.7.2-8.9-.1-7.3-.2-7.8-.6-7.8-1 0-1.1.8-1 8.3.2 7 .4 9.4.7 9.4l.7-1zm2.5 0c0-.4.2-.9.4-1.1.2-.3.3-1.3.1-4l-.2-7.7c0-4.2 0-4.2-.6-4.1-.5 0-.6.3-.8 1.8-.2 2.5-.3 5.8-.3 11.2V21h.7c.4-.1.6-.4.7-.8zm17.5-1.6A233.2 233.2 0 0 0 92 4c-.3-.3-.5.5-.4 1.8.3 9.5.7 15.1 1 14.8l.1-2zm-5.9-5c.4 0 .5-.5.7-2.5.2-2.6.2-2.7.7-2.5.1.2.2 1.4.2 3.4 0 2.2.1 3.1.3 2.9a6 6 0 0 0 .3-2c0-1 .2-2.2.4-2.8a3 3 0 0 0 .1-2.2l-.3-2.7c0-1.4 0-1.5-.5-1.4-.6 0-.8.5-1.2 2.7-.1 1-.2 1-.8.9l-.7-.1v11.1c.1.8.2.2.3-1.8 0-2.5.1-2.9.5-3zm.8 4.7c-.1-.3-.2-.2-.2.1 0 .3 0 .5.1.4v-.5zM95 11c0-3.9 0-6.7-.2-6.6-.1 0-.3 3.2-.3 7.3s0 7 .2 6.6l.3-7.3zM11 12.3V4.7c-.2-1.5-.2-1.6-.4-.7l-.4 6.4L10 17c0 1 0 1.2.4 1.2s.5-.6.6-6zM3.7 16c0-.4-.1-.2-.1.4 0 .6 0 .9.1.6v-1zm114.4-1.2-.2-1.3v1.7c0 1.3 0 1.6.2 1.3.2-.3.2-.9 0-1.7zm-41.3-.8c0-1 0-1.2-.3-1-.2.2-.2.7-.1 1.3.2 1.3.4 1.2.4-.3zm39.9-2c-.1-.2-.2 0-.2.3 0 .4 0 .5.2.4v-.7zM128.3 9c-1-4.7-2-6.7-1.7-3 .5 5.4.5 5.4.9 5.2.2-.3.4-.2.7.3.5 1 .6 0 0-2.5zm-51.8-.5c0-.7-.1-.2-.1 1v1-2zm15.1.6c0-.2-.1-.3-.3-.3-.1 0-.2.1 0 .3l.2.2.1-.2zM119 4.4c0-.2-.4-.4-.8-.4-.7 0-.8.5-.5 3.5.2 1.5.2 1.6.4.7.2-1.4.6-1.4.8 0 0 1 .1.6.2-1.1V4.4zm-2.4.4c-.1-.5-.3-.8-.6-.8-.5 0-.8 1-.8 2.7 0 .8 0 1 .4 1 .3 0 .5.1.6.6 0 .4.2 0 .3-1.1.1-1 .2-2 0-2.4zm-26 1.1c-.1-1.2-.1-1.3-.3-.6-.1 1 0 2.2.2 2.2V5.9zM4.1 4.3C4 4 4 4 3.7 4.5v1.2c.2.5.2.5.4-.2.1-.4.2-1 0-1.2zm82 0c0-.3-.1-.2-.1.1 0 .3 0 .4.1.3v-.5z"/>
</svg>
