<?xml version="1.0" encoding="utf-8"?>
<svg xmlns="http://www.w3.org/2000/svg" xmlns:svg="http://www.w3.org/2000/svg" version="1.1" viewBox="0 0 225 134">
	<title>Pig-wig and Pigling Bland, with walking stick, walk arm-in-arm down the road trying to look as elderly as possible.</title>
	<path d="m111 133.2.8-1.9c.7-1.5 1.5-1.8 1.5-.7l.1.7 1.4-.7 1.2-.7-.1-1.3V126c.2-1 .3-1.2 1-1.5.5-.2.8-.5 1.3-2 1-3 1.6-4 2.4-4.6a15 15 0 0 0 4-4.8c0-.3-.2-.8-.4-1.1-.2-.3-.5-1.3-.6-2 0-.9-.4-2-.7-2.5-.6-1.3-.2-2 .5-.9.3.6.6.7 1.2.6.5-.1 1.4 0 2 .2 1.8.6 3.7.7 5.8.3l2-.3.2.4c.2.3.4.3 1.5 0l2.7-.5c.5 0 .4-1.7-.3-3-.4-.8-.9-2.1-1.1-3a11176.9 11176.9 0 0 1-1.1-5.2c-.1-1-.4-2-.7-2.4l-1-2.3c-.3-.8-.7-1.6-1-1.8-.1-.3-.5-1.2-.7-2.2-.4-2-1.1-3.3-1.6-2.8-.2.1-.4.5-.4.7 0 .3-.6 1.2-1.3 2-1.5 1.5-2 1.5-2.5-.1l-.9-1.9-.6-1.2c0-.2-.3-.6-.7-1l-.6-.6.3-1.9c.3-2.1.1-2.7-.8-2.2-.3.2-.7.2-1 .2-.2-.1-.6.2-1 .9-.8 1.2-1 1.4-2.5 1.8-1.5.4-2.6.4-2.8 0-.1 0 .1-.7.5-1.3.3-.6.8-1.7 1-2.5.3-1.5.6-2 1-1.5.2.2.1.8-.2 2-.2 1-.3 1.9-.2 2 .5.5 1.5-.2 2.2-1.7l.7-1.6 1-.1c1.5-.2 1.8-.4 1.8-1.4 0-2-.9-4-1.4-3-.1.2-.7.4-1.9.6-2.2.2-3.1 1-3.6 3.4-.7 3.8-1.7 5.7-2.4 5-.3-.3-.2-.6.2-1.5a5 5 0 0 0 .6-1.6c0-.5.5-2 1.2-4 .3-.8 3-2.9 3.4-2.7.2 0 .6 0 .9-.4.2-.3 1-.9 1.8-1.3 2.4-1.4 2.9-1.9 2.6-2.8-.1-.8-.5-1.1-2.2-2.2-1.2-.8-2.2-1.5-2.2-1.7-.3-.7-1-.5-1.4.4-.6 1-3.5 4.2-4.7 5.2-.5.4-.7.9-.7 1.4 0 .6-.4 1.3-1.4 2.5a11 11 0 0 1-1.5 1.7l-1 .7c-1.3 1.2-3 5-3 6.8v1l.4-.4c.3-.4.3-.2.2 1.7-.1 1.8 0 2.3.4 3.1.3.6.8 1.7 1 2.5.3 1 .6 1.6 1 1.7.2 0 .5.3.5.4 0 .1.1.2.3.2.2 0 .6.3.9.6l.4.5-.4.5c-.4.3-.5.4-1.1 0-.4-.2-.8-.2-.9-.1l-.2 4.3v4.2l.7.9c.8 1.2 2.3 2.5 3.3 3 1.4.8 2.5 1.8 2.5 2.2 0 .5 1.1 1 2.7 1.3 1.5.3.6 1.2-1.3 1.2-1.3 0-1.8.7-1.6 2.5l.2 1.5-.8 1c-1 1.6-2.9 7.3-2.9 9.3 0 1-.2 2-.5 2.5l-.7 1.8c-.2.9-1.4 2.4-1.6 2.2a45.2 45.2 0 0 0 1.4-6c1-4.8 1.6-7.7 2-8.6 1.3-2.6 1.5-3.5 1.3-5.6-.3-2.5-1-4-3-5.6-1.5-1.1-2.7-3-3.5-5.4-.3-1-.4-1.6-.1-3.2a21.2 21.2 0 0 1 1-4.3 14 14 0 0 0-2.6-1.5c-.6-.3-1-.8-1.4-2.6-.8-2.5-1-5-.9-7.3l.2-2.2h-.5a1326.1 1326.1 0 0 1-6 3c-.7.5-3 .6-3.6.3-.3-.1-.7.1-1.2.9-.4.6-1 1-1 1-.4 0-.8.9-1.1 1.9-.3.8-1.7 2.4-2.2 2.4-.4 0-.5.4-.5 3 0 1.8.2 3.2.3 3.4.3.4.8 5.4 1 8.7a133.1 133.1 0 0 1 .4 13.7 34.1 34.1 0 0 0 .6 7.6l.3 2.1-.6.4a2 2 0 0 0-.6 1c0 .4-.2.8-.5.8-.7.1-1-1.2-1-4.4.1-3.6-.2-14.4-.5-20.8a371 371 0 0 1-.6-12.6c0-1.7-.3-2-1.1-1.6-1 .5-1.2.2-1-1.7.2-.9.3-2.2.3-3 0-1.9.9-3.8 2.4-5.4 1.8-1.9 2.4-2.6 2.4-3 0-.7 3.5-5.8 4.4-6.3.6-.4.3-.6-1.1-1-2.6-.5-4.5-2.8-3.9-4.6l.7-.8c.3-.2.5-.7.5-1.4l.3-2c.2-1.3-.3-2.8-1.3-3.8-.9-1-1.8-2.8-1.8-3.6 0-.4-.2-1-.4-1.1l-.5-.4.6-.4.5-.5.2-3.2c.2-3 0-5-.6-5.7-.1-.2-2.1.2-4.4.8a37.4 37.4 0 0 1-10.8 1.5c-13-.4-14.4-.3-7 .3 1.1 0 2 .2 2 .4 0 .3-4 .3-6.7-.2-5.7-1-11-1.7-12.7-1.8-1.2-.1-2-.4-2.6-.7-.9-.7-1-.7-.7.3.5 1.7 2.2 3.6 1.8 2-.3-.9 0-.9.9 0 .8.9 3 1.8 4.9 2.2 4.8.8 6.2 1.4 8.7 3.8 1.5 1.4 2.2 2.3 2.2 2.7 0 .3.4 1 .8 1.4a559.4 559.4 0 0 0 3.9 4.5c.5 0 3 1.3 4 2l2.2 1.3 2.2 1.2c.5.3 1.2.6 1.7.6 1.1 0 2.3.4 2 .8-.4.3-4.3-.4-5-1-1-1-5.4-3.4-5.4-3 0 .3.7 1 1.6 1.5.8.4 1 .9.4.9-.8 0-3.6-2.5-5-4.4l-2-2.2a29.2 29.2 0 0 1-3.6-4.8c-.2-.4-.6-.8-.8-.8-.2 0-.5-.3-.7-.7-.5-1-3-2-7-2.9-1.7-.3-3.3-.8-3.6-1-.4-.2-.6-.2-1 0-.5.3-.6.3-1-.2a2 2 0 0 0-1.2-.5c-.4 0-1-.4-1.4-1l-.9-1-.2-2.2c0-1.3-.4-2.8-.6-3.4-.3-.8-.4-1.2-.2-1.3.4-.2 1.2 1 1.5 2.2.3 1.2.7 1.5 1 .8 0-.2-.3-1.7-.9-3.3a10 10 0 0 0-2.1-4.3c-1.4-1.5-3.6-2.9-4.6-2.9-1.3 0-1.8-1.4-.7-1.8 1-.4.8-1-.8-2.6-1-1-1.4-1.5-1.2-1.7.1-.2.6 0 1.6.8 1.4 1.1 1.8 2 2 3.4 0 .8.2 1 1 1.5 1.6.9 1.9.9 1.7-.2-.1-.5-.6-1.2-1.4-2a4.6 4.6 0 0 1-1.1-1.3c0-.6.5-.6 1.2 0 .4.4 1.1.7 1.5.8.7 0 1 .3 1.7 1.5.4.8 1.2 1.8 1.6 2.3.9.8 1.1 1.7.5 1.7-.4 0-1.8-1.5-2.3-2.4l-.4-.7-.2 1-.2 1 .9 1.2 1.4 2.2c.3.7.6 1 .9 1 .6-.2 1.1 1 .7 1.7-.2.4-.1 1 .4 2.5.7 1.8 1.3 2.4 1.3 1.3 0-.2.1-.3.4-.3.7.3.4-1-1-3.6-1.2-2.4-1.4-3.3-.6-3.3.2 0 .7.2 1 .5.5.3 1 .5 1.3.5.6 0 2 .8 2 1 0 .2.7 1 1.4 1.7l1.5 1.5.5 1.8c.5 2 .7 2.2 2.2 2.2.5 0 .9-.2 1.3-.9.7-1.2.7-2.4-.2-4a7.3 7.3 0 0 0-3.4-3.3c-1.4-.8-1.6-1.3-.5-1.3.3 0 .7-.2.8-.4.1-.4.2-.4.5-.1.3.2.4.4.1.7-.2.2 0 .5.8 1a8 8 0 0 1 3.3 5.3c.2.8.1 1.1-.4 2a7 7 0 0 0-.7 1.2l2 .1H62l.2-.7c0-.4.3-1.4.6-2.2.5-1.8.4-2.3-.6-4-.5-.7-.9-1-1.2-1-.5.2-.7-.2-.1-.4.1 0 0-.2-.5-.3-1.1-.2-1.7-1.3-1-2l.4-.4.5.7.5.8h1.7c2.4 0 4.7.9 11 4.3 1.3.8 2.4 1.5 2.4 1.7 0 .6-.6.4-3-1-4.6-2.6-7.8-4-9.5-4-1 0-1 .1-.2 1.5l.6 1.5c.1.3.4.6.7.7.7.1 1 1.7.6 2.8-.4 1-.3 1 1 1.3l.8.2-.2-1.8c0-1 0-2 .2-2.2l.3-.5-1-.4c-.5-.3-1-.5-1-.7 0-.4 1.2-.3 2 .1.3.3.8.4 1 .4.4 0 .8.3 1.1.7.3.4.8.7 1 .7.5 0 .6 0 .4.7-.3 1.3-.6 1.3-1.7 0-1.1-1.1-1.6-1.2-1.1-.1l.5 1.3c.3.6.5.7 1.2.7.6 0 1.3.3 2.1 1l1.2.9h2.2c1.7 0 2-.1 1.6-.3-.4-.2-.8-.2-1-.1-.5.1-2.2-.4-2.2-.7 0-.1 1-.3 2.2-.3 2.7 0 2.9 0 3.3.5.2.3.6.4 1.8.2 1.2-.1 5.8-1.5 6-1.8l.4-2.6c.4-4.3 2-9.5 3-9.5.3 0 .5.1.5.3 0 .1.2.3.5.4.5.1 1.4 1.7 1.7 3 .1.5.6 1 1.2 1.5.6.3 1.2.8 1.3 1l.3.6.8-.5c.4-.3 1.1-.5 1.6-.5 1 0 1-.2.2-2.2-.5-1.3-.5-1.6-.2-2.5.2-.9 1-2.3 1.9-3.7 0-.3.3-.8.5-1.2.5-1.5 2.8-.5 4.3 2 1.2 1.9 1.9 2.6 4.2 4.2.7.4 1.3 1 1.3 1 0 .5 1.9 2.4 2.5 2.6.4 0 1.2.5 1.8 1 1 1 1.3 1.1 1.6.7.2-.3.3-.2.4 0l1.4.6c.6 0 1.7.5 2.3 1 1 .5 1.6.7 3.1.8 1.6.1 2.1.3 3 1 2.4 1.7 2.7 1.9 3.1 1.9.3 0 .3-.3.2-1-.2-1.3.4-2.4 3-5 1.3-1.4 1.9-2.2 1.9-2.6v-.7l.7.2c.8.2 1.4.8 1.4 1.3 0 .2.4.7.8 1.2l.8 1c0 .2.4.8 1 1.4.4.6.9 1.3.9 1.6 0 .5.6.6.9.2.1-.2.5-.3 1-.2l.8.2.8-1.2c1.1-1.8 1.6-2 2.3-1.2.3.4.8 1.2 1.1 2l1 1.6c.2.2.3.6.2.8-.2.5.8 2 1.9 3 .4.3.8.7.8 1l.6 1 .6.7-.2 2.2c-.1 1.2-.3 2.6-.5 3.2-.3 1.5.2 3.1 1 3.7l1.6 1.3c1 1 2.9 2 4 2 .7 0 1.5.5 3.6 2l3 2.4c.3.1 1.3 1 2.4 1.9l3 2.5c.8.5 1.9 1.3 2.5 2a69.4 69.4 0 0 1 8.5 11.3c3.7 5.7 5.1 9.2 6.3 15.5l.7 3.3c.2.8-.6 3.6-1.7 5.5-.4.6-.8 1.8-1 2.7-.1.9-.6 2.3-1 3.3l-.8 1.7c.3.3 1.9-.3 2-.8.3-.6 1-1 2.9-1.6 2.3-.7 3.5-.1 2 1-.7.4-1 .5-1.5.3-.8-.4-2.8.3-2.6.9 0 .2.4.3 1 .3 1.2-.1 1 .5-.4 1-1 .4-1.3.7-1.2 1 .1.2 0 .6-.4.9-1.2 1-1.6 1.5-2 2.8-.2.7-.8 1.8-1.3 2.4-.5.6-1 1.3-1 1.6 0 .4-.4.5-.9.2-.2-.1-.4-.7-.4-1.3l-.4-1.9c-.1-.7 0-.8.3-.8.2 0 .5.2.6.4.4.7.6.4.9-1.1.3-1.6 0-2-.9-1.1L179 119c-1 .7-1.2 1.6-.4 3 .3.5.3.8.1 1-.4.5-.9.1-1.4-1.2-.7-1.4-1-1.6-1.5-1-.3.3-.8.4-1 .4-.4 0-.9 0-1 .2-.6.4-2.8 1.7-4.7 2.5-1.8 1-5.2 1.7-7.4 1.8-1.3 0-1.8.2-2.2.6l-.4.9c0 .1-.7.5-1.4.7-2.1.6-3.3 1.4-4.7 2.8-1.8 1.7-3.4 1.8-2.6 0 .4-1 0-1-.9 0l-1.1.8c-.6 0-.8-.8-.3-1.5.4-.6.5-1.5.6-4v-3.4l-.6-.5c-.6-.4-.8-.4-1.2-.1l-1.6 1.2c-.8.6-1.4.9-2.2.9h-1l.2-1.4c.2-1.5 0-1.6-1.1-.5-.7.7-1 .8-1.9.8-1.4-.2-1.6-1-.4-1.9l.8-.5.1-2c.3-2.9.7-4.4 1.2-4.8l.4-.3-.3-.6a15 15 0 0 1-1-2.6c-.4-1.3-.7-2-1-1.9l-1.9.3-4.6 1c-.3.2-1.1.3-1.9.3-.7 0-1.7.2-2 .4-.5.3-1.4.4-2 .4l-1.1-.1.1.5.1 2v1.3l-2 2c-1 1.1-2 2-2.2 2-.6 0-1.5 2.2-3 7.4-.1.5-.4.7-.8.6-.5 0-.6 0-.5.5v.6h1.4c.8 0 1.6-.3 2-.6a3 3 0 0 1 1-.6c.1 0 .8-.4 1.5-1 1.4-1 4.5-1.9 5-1.3.4.3 0 .6-1.3 1-.7.2-1.8.8-2.6 1.3l-1.6 1.1v.5c0 .4 0 .6-.6.8-.3.2-1 .3-1.3.3-.3 0-.7.2-1 .4-.2.3 0 .4 1 .4 1.2 0 1.8.3 1 .6-.6.3-3 .2-3 0 0-.6-1-.4-2 .3a4 4 0 0 1-1.3.7c-.2 0-.4.1-.5.3a7 7 0 0 1-1.4 1c-1.3.9-2.4 1-2.4.4zm42-4.4c.6-.7 1.2-1.5 1.2-1.7 0-.3.2-.8.4-1l.4-.6-1.4-.6c-1-.5-1.4-.9-1.5-1.3-.1-.8.1-.8 1.4.1l1 .7H158.9l-1 .2c-1.2.4-1.3.8-.1.8 1.3 0 2.2-.4 2.1-.9-.1-.6 2.8-.8 3.4-.3.3.3.7.3 1.3.2 2-.3 6-2.1 8-3.5a19.9 19.9 0 0 0 9-7.3c.5-1 1.1-1.8 1.3-1.8.4-.3.6-2.5.2-3.4-.4-1 0-1.6.6-.7l.4.5.2-.7c.4-2.2.2-4.5-.6-6.9-1.3-3.3-1.3-3.5-.6-3.5.7 0 .7 0 0-2.6-.7-2-.7-2.5-.3-2.5.3 0 1.6 4.2 1.6 4.9 0 .3.5 1.4 1 2.5.5 1 1 2.2 1 2.6l.2.6c.2 0 .3-.2.4-2.3V99l-.5.2c-.4.1-.5 0-.5-1 0-.7 0-1-.3-1-.5 0-.6-.3-1.1-4-.6-3.8-.6-4-1.2-4-.4 0-.7-.5-1.2-2.1-1-2.9-2.1-5.4-3-6.1a38.2 38.2 0 0 0-14.4-15.3c-.1 0-.6-.4-1-.9a9.6 9.6 0 0 0-1.9-1.6l-1.8-1.2c-.4-.3-1-.6-1.6-.7-.5 0-1.7-.5-2.6-1-1.8-.9-2.1-.8-2.3.7a3 3 0 0 1-.4 1.4c-.4.5.2 1.5 1 1.3l.6-.2v1.2c0 1.3-.9 2.6-1.8 2.6-.7 0-.7-.4-.2-.8.5-.4 1.3-1.9 1.2-2-.2-.1-4.5 4.5-4.5 4.8 0 .4-1.7 2.6-2.7 3.3-.5.4-1.3 1-1.6 1.4l-.5.7.5.4.5.3-.5.5c-1.8 2-3 3.6-4.7 7-1.2 2.3-1.7 2.7-1.4 1.1.2-1 1.2-3.1 2.8-5.4l1-1.8.4-.5c.3-.2.4-.6.3-1 0-.2 0-.6.2-.8.5-.7-.2-.9-1.6-.3-.8.2-1.8.5-2.3.5-1.1 0-1.4.3-1.6 1.8a5 5 0 0 1-.7 2l-.6.8-.1 4.5c0 2.4-.1 4.5-.2 4.6-.4.4-.5-.8-.5-5.9v-5.6l.4-.7c.6-.9.5-1.1-.3-.9-.7.3-2.8 3-3.2 4.3l-.3 1 .6.5.6.6V84c0 1.9.2 3 1 5.2.4 1.6 1 2.8 1 2.8.2 0 .4-.3.6-.7.1-.5.4-.8.6-.8.3 0 .4.3.2 1.8a31.9 31.9 0 0 0 1.5 10.5c.2 0 .3-1.8.3-4.2 0-4.5.2-5.5.7-5.7.3 0 .4.4.4 1.9v2l1.3-1.3a12 12 0 0 1 2.6-2c1-.4 1.3-.7 1.5-1.3 0-.5.4-1.3.8-1.8.6-1 .9-2.3.4-2.3-.2 0-.3.3-.3.8 0 .8-.2 1-1 .5l-.5-.4.1-2c.2-1.8.4-2.3 1-2.4l.6 1c.5 1.3.6 1.4.9.9.4-.7.3-2.1-.1-2-.7.3-.7-.2-.2-2.3l.5-2.5c0-.4.2-.6.4-.6.5 0 .5.5 0 2.6l-.3 1.7c.8.3 1.1.8 1.2 1.5.1 1 .3 1 1.2.2.9-.7 1.2-2 1.2-4.4 0-2.8 1.4-6 2.2-5.2.2.2 0 .7-.5 1.7a6.3 6.3 0 0 0-.8 3.6c0 2.6-.7 5.2-1.4 5.4-.3 0-.5.3-.5.7 0 .4-.3.8-1 1.1-1 .7-1.3 1.3-.8 1.9.3.3.5.6.5.8 0 .1.2.3.4.3s.7.3 1 .6l.7.6 1.1-.4 2.6-.7c3.2-1 6-3.4 6-5.3 0-.4.4-1 .7-1.6a7 7 0 0 0 .8-5.7l-.6-2.3a2 2 0 0 0-.5-.8c-.2-.2-.3-.8-.3-1.5 0-1.2-.6-3-1.2-3.3-.6-.4-1.5-.2-2.4.4-.5.4-1.1.7-1.4.7-.6 0-2 1.8-2 2.6 0 .4 0 .5-.4.5-1 0-.7-1 .8-3.8 1-1.8 1.5-2.5 1.8-2.4.2 0 .4.3.5.7 0 .5.2.5.8.4.4-.2 1.1-.3 1.7-.2 1.3 0 2.2 1 2.4 2.7.3 1.8.4 2.1 1 2.1.5 0 .6.2.5 1.7 0 .8 0 1 .5 1 .4 0 .7.2 1 1l.8 2c.7 1.6 4.5 13 5.3 16.4.3.9.3 1.3.1 1.5-.2.2-.3.2-.4 0-.7-2-1.2-3.9-1.2-4.2l-.8-2.4L167 87c-.8-2.8-1-3.1-1.6-2.6l-.4.3v-1.2c0-1.2-.3-2-.7-1.6-.3.3-1.7 3.5-1.7 3.8a10 10 0 0 1-4 4.6l-1.8 1.3.5.5c.2.3 1.2 1 2.2 1.4 1.8 1 2.3 1.5 4.3 4.7l.5.8-.3 3c-.4 4-1.3 6.1-3.4 7.7-1.7 1.4-3.8 2-7.5 2-4.2 0-6.9-1-7.9-2.7-.4-.7-.8-1.1-1.5-1.3-1.8-.6-3.7-3-3.4-4.2l-.1-1.3c-.5-1.3-.2 3.8.3 5.8 1 4.3 3 7.9 5.8 11.1a9.6 9.6 0 0 0 3.3 2.7c1.4.6 1.7 1.2.6 1.2-.4 0-.5.2-.5 1.3l-.1 2.7c-.1 1.5.1 2 .8 1.3.4-.4.8 0 1 1 0 .5 0 .8.2.8 0 0 .7-.5 1.4-1.3zm2-7.3c-.8-.6-.4-1 .7-.6a9 9 0 0 0 3.1.1c2.6-.2 2.5-.2 2.5 0 0 .4-2.3.9-4 1-1.2 0-1.9-.2-2.3-.5zm10.8-2.6c0-.3.3-.4.8-.4.8 0 2.8-1 5.1-2.9 2.2-1.6 2.3-1.6 2.4-1.3.1.1 0 .4-.3.7l-2.5 2.3-1.9 1.8h-1.8c-1.4.2-1.8.1-1.8-.2zm6.3-4.7c-.2-.5-.6-5.2-.5-6.2 0-1 .2-1.3.5-1 .5.5.8 7.1.3 7.4-.1.1-.3 0-.3-.2zm4-4.4c0-1.3-.6-6.7-.9-8.2-.1-.6-.1-.8.2-.8.7 0 .8.6 1.3 5.7.2 2 .2 4 .1 4.2-.3.8-.7.4-.7-.9zm-19.5 17c.3-.3.3-.3-.2-.4-.3 0-.7.2-.8.3-.2.3.4.3 1 0zm-11.7-5.5 1-.7-.2-.5-1.2-1.6-1.6-2.2c-.4-.7-.9-1.3-1-1.3-.3 0-1 5.3-.8 5.6 0 0 .5 0 .9-.2 1-.4 1.3-.2 1.3.8s.3 1 1.6 0zm39-5.9c.6-.2.5-.6 0-.6-.4 0-.6.2-.6.4 0 .4 0 .5.6.2zm-27.9-4.7c.6-.2.8-.3.8-.8s.2-.7.6-.7c.7 0 2.7-1.2 3.6-2.1.3-.4.6-1.1.7-1.9v-1.3l-.4.2c-.6.2-.6.2.2-1.7.4-.8.7-2 .8-2.8l.1-1.3-1-1.7-1.2-1.7-2-.9c-1-.5-2-1.2-2.2-1.4-.3-.6-.5-.7-1-.3-.6.3 0 1 1.5 1.6 1 .5 1.3.8 1 1.1-.1.1-1.2-.2-2.4-.6a13 13 0 0 0-2.5-.7c-.2 0 .3.5.9 1a12 12 0 0 1 3.5 4.8c.5 1.6.5 3.7 0 3.7-.2 0-.4-.5-.5-1.3-.2-1.9-1.1-3.8-1.9-3.8-.3 0-.8-.2-1-.5-.4-.3-.9-.5-1.4-.5h-.8l-.5 2c-.8 3.3-1.3 4.9-1.7 4.9-.4 0-.4-.4 0-2 .6-1.9 1.3-6.3 1.1-6.5 0 0-.4.2-.8.7-1.1 1.3-3.5 2.3-3.2 1.3.2-.3 0-.4-.5-.4-.3 0-.6-.2-.6-.4a8 8 0 0 1 1.2-3c.6-.6.9-.1.6.7-.4 1-.2 1.3.6.8.4-.3 1-.5 1.3-.5.4-.1.7-.4 1-1l.3-.8-.6-.7c-.4-.5-.6-.6-.8-.4-.5.5-1 .3-.9-.4.1-.4 0-.7 0-.8-.4-.2-1 .8-1.3 1.7-.1.7-1.8 2.7-2.2 2.7-.4 0-2.2 1.3-2.5 1.7-.1.3 0 .6.2 1 .6.9.5 1 0 .9-.8-.2-1 .6-.8 3.2.2 2.2.7 3 2 3 .2 0 1 .3 1.4.7l.8.7-.1-.7c-.2-.3-.3-1-.4-1.6-.3-1.7.5-1.1 1 .8.5 1.4.7 1.8 1.4 2.1a8 8 0 0 1 1.4 1c.6.6.6.8.3 1H148c-.5 0-.7 0-.6.2l1.3.2c.8 0 1 .1.9.4-.2.5 1.3 1 3.1 1a124.5 124.5 0 0 1 3.3 0zm6.9-9h-.3l-.2.7v.6l.2-.5.3-.7zm-55.7-14.4-.8-4c-.2-2 .3-4 2.2-7.4.6-1.2 1.1-2.3 1.1-2.6 0-.2.5-.9 1-1.5.8-.8 1.1-1.4 1.1-2l.4-1.7c.3-.6.4-1.3.4-1.6V66l-1.3.8c-.8.4-1.7.7-2 .7-1.5 0-2.7 3-2.6 6.4 0 1 0 2.4-.2 2.8-.2.7-.2 1 0 1.2.5.5.4.9-.4 2.5-.5 1.1-.6 1.7-.5 2.4l.4 3c.3 2 .6 2.7 1.3 3.5.7.8.7.4 0-1.9zm-20 .2.7-2c.2-.5.5-1 .7-1 .4 0 .4.6.1 1.8-.2 1 .3.9.8-.2.5-1.2.5-1.7 0-2l-.6-1.2c-.1-.7 0-1 .3-1 .5-.2 1.5.6 1.5 1.1 0 .5.4.3 1.1-.5.6-.6.7-.8.5-1.3-.3-.4-.3-.7 0-1 .3-.4 1.4-.5 1.7 0 .4.6 4.8-.3 6-1.3.5-.4 1-.6 1.3-.6.3 0 .7-.4 1-1 .4-.4.8-.9 1-.9.2 0 .5-.3.7-.7l.7-1.4c.8-1.1 1.1-3.4.7-4.6-.5-1.4-1.2-1.5-3.2-.5-.8.4-2 .7-2.7.8-2.2.2-5.5 2.2-6.2 3.6l-.9 1.6-.7 1.3.1 1.4.2 1.4h-.7c-.4 0-.6-.1-.6-.3 0-.3-.1-.4-.3-.4-.1 0-.2 0-.2.2l-1.6 1.9c-1.3 1.3-1.6 2-1.7 2.7-.2 1.5-.4 5-.3 5l.5-.9zm96.4 0c0-.4-.7-1.5-.9-1.5v.8l.3 1h.3l.3-.2zM129 85.9c.5-1.5.6-1.8.3-2.1-.3-.3-.3-.6 0-1 .4-1 .4-.9-.5-1.2-1.3-.4-1-1.2.4-1.2h1v-2.4H129c-1.5 0-2.4.7-2.8 2.2-.3 1-.3 1.3.2 2.6.5 1.7 1.7 3.8 2 3.8.2 0 .4-.3.6-.7zm2.5-4.4c-.2-.2-.4-.2-.5-.1-.1.1 0 .3.2.4.2.2.4.2.5.1l-.2-.4zm1.7-4.1 1.2-1.9c.4-.4.5-.6.3-.9-.6-.6-2 1.3-2.5 3.2-.3 1.2.1 1 1-.4zm-3-.6c.8-.8-1.1-.8-2.1 0l-.8.6 1.3-.1c.7-.1 1.4-.3 1.6-.5zm-2.7-1c1.2-.8 2.6-1 3.4-.6.8.4 1.3 0 1.3-1.3 0-.8 0-1-.4-1a.4.4 0 0 1-.4-.5c0-.2-.4-.6-1-1-.5-.3-1.4-1-1.9-1.6-.9-1-1.3-1.2-1.3-.7 0 .2.2.3.4.3s.4.2.4.4-.5.4-1.3.5c-.7.1-1.5.4-1.8.6l-.7.4.5.6c.2.4.5 1.3.5 2 .3 3 .6 3.2 2.3 2zm12.6-2.5c1.4-.4.7-.8-1.2-.6-2.8.3-3.8.4-3.8.7 0 .3 4 .3 5 0zm-6.3-.3c0-.3-.1-.4-.3-.4-.1 0-.2.1-.2.4l.2.4c.2 0 .3-.2.3-.4zm11-1.1c1.3-1 3.3-3 3.3-3.4 0-.6-.7-.2-2.1 1.2l-2 1.7c-.6.6-.9 1.2-.5 1.2l1.2-.7zm-31.1-1.5-.4-.2c-.4 0-1 .8-1 1.5.1.4.2.3.7-.3l.7-1zm27.3 1c0-.1.4-.2.6 0 .2 0 .7-.2 1.1-.5.4-.4 1-.7 1.3-.8.3-.1.8-.4 1-.7.7-.7 2.3-3.5 2.7-4.5.2-.5.5-1 .8-1 .4-.1.4 0 .3.6-.5 1.8-.5 2.2-.2 2.2.1 0 .4-.3.5-.7 0-.4.4-1 .7-1.4l.6-.6.2-4.3c.1-4.4 0-5-.8-4.3-.3.3-.5.2-.8 0l-.4-.5.7-.8c.7-.9.8-1.3.3-1.5-.2 0-.1-.4.4-1.4 1-1.9 1.1-2.5.5-3.9-.4-.8-.7-1.1-1-1-.2 0-.5-.2-.8-.8a4 4 0 0 0-.7-1c-.4-.3-.7-2.2-.4-2.5.3-.3 0-.7-.9-1-.3-.1-.5-.4-.5-.9 0-1-.6-1.8-1.1-1.6-.2.1-.7.6-1 1.2-.3.6-.8 1.2-1 1.3-.8.2-1.6 1.4-1.6 2.1 0 .5-.2.7-.5.8-.8.2-.7 1.1.5 3.6 1 2.1 1 2.7 0 2.5-.2 0-.8-.9-1.5-2.5-.7-1.8-1.3-2.6-1.7-2.7-.7-.3-.7-.8 0-.8s1-.5.5-1c-.2-.3-.2-.6 0-1.4.5-1.6.4-2.3-.6-3.3-.5-.5-1-1.2-1-1.4l-1-1.3c-.8-.9-1.3-1.1-1.3-.6l-1.6 2c-.9 1-1.6 2-1.6 2.2 0 .2-.2.8-.5 1.3-.3.8-.3 1 0 2.1.3 1.3 1.2 2.3 1.8 2l1.5-.2 1.3-.2.9-.2c1 0 .5.6-1 1.2l-2.2 1c-.5.4-1.4.8-2 1-.6.2-1.2.6-1.4.9l-1.3 1.4c-1.2.8-1.3 1-.6 1.7.6.7.3.8-1.7 1-1 0-2 .2-2.4.4-.3.2-.9.4-1.3.3h-.8l.1.6c0 .4.3.9.5 1.1.5.6.8 2.5.4 3.5s-.8.9-.8-.1c0-1.7-1.3-5-2.2-5.9-1.1-1-1.6-.9-2 .2l-.3 1 .9.5c.5.3 1 .5 1.3.5.5 0 .8.4 1.2 1.7.3.8.3 1 0 1.4l-.4.4-.5-.4c-.2-.3-.5-.4-.7-.4-.5 0-.3 1 .4 1.5l1 1.4c.2.5.4.7.7.6.3 0 1 .2 1.5.7a4 4 0 0 0 1.6.8c1 0 1.7.3 1.7.7 0 .6-1.7.4-3.2-.3-1.5-.7-1.7-.7-1.4-.1.1.3 1.1 1 3.6 2.4.7.4 1.3 1 1.4 1.3 0 .3.5.7 1 .9.3.2 1.1 1 1.6 1.8l1.3 1.7c.9.6 3 1.2 5 1.2 1.1 0 2.1.1 2.2.3.3.2 2.9-.1 3-.5zm-5.3-1.4c-1-.8-1.6-2-1.6-3.5 0-1.1.5-2 1-1.8.3 0 .4.5.3 1.5 0 1.4.2 2.1 1.4 3.3l.7 1c0 .4-1 .2-1.8-.5zm4-2.9c-.2-.6.1-1.2.7-1.1.5.1.7 1 .2 1.3-.5.3-.7.3-.9-.2zm-2-3.7a8 8 0 0 1 .9-1.8 5 5 0 0 0 .8-1.5c0-.6.5-1 1.2-1 .3 0 .7-.3 1-1 .2-.5.5-.9.7-.9 1 0 0 2.2-1.2 2.7a2 2 0 0 0-1.1 1.3c-.3 1-1.8 2.9-2.3 2.9-.1 0-.2-.3 0-.7zm-9.1-2.7c.1-.6-.2-1-.5-.6-.2.5-.6 0-.6-.6 0-.8.6-1 .9-.3 0 .3.2.4.6 0 .3-.1.6-.5.6-.7 0-.3.2-.5.5-.5.7 0 .7 1 0 2.3-.7 1-1.7 1.3-1.5.4zm7.5-3.2c-.3-.4 0-.8.6-.8.7 0 1 .5.5.8-.5.3-1 .3-1.1 0zm-1.8-1.2c-.3-.3.5-1.6 1.2-2 .4-.2.6-.2 1.2.2.6.5 1 .5 1.9.3h1.4c.3.4-.6 1-1.8 1.4-.9.2-1.1.2-1.4-.1-.1-.3-.4-.3-.5-.2-.3.3-1.8.6-2 .4zm-.7-3.2c0-.3.6-.8 1.2-1.3l1.1-.8 1 .5c1.5.7 1.2 1-.7 1-.7 0-1.1 0-1.4.5-.7.6-1.3.7-1.2 0zm12.3-1-.2-.7c0-.2-.4-1-1-1.9-1.5-2.2-2-3.4-1.8-4.8 0-.6.3-1.2.6-1.4.5-.4.6-.4 1.1-.1l.4.2-.4 1.4c-.6 1.6-.4 2 1.5 3.3 1.6 1 2.4 2 2.2 2.6-.1.3-.6.7-1 1-1 .5-1.1.6-1.4.3zm.2-2.7c-.2-.4-.5-.6-.6-.5 0 0 0 .4.3.8s.6.6.6.5c.1 0 0-.4-.3-.8zm-13.9-.5c0-.4 1.6-1.5 2.6-1.8.5-.2.6-.1.8.4.4.8.1 1-.9.9-.6-.1-1 0-1.3.4-.5.6-1.2.7-1.2.1zM98 67.6c.6-1.2 1.3-1.2 1.5 0v.7l1-.2 2.4-.9c1-.4 2-.7 3-.7 1.8 0 3.8-.8 6-2.2 1.3-.9 1.6-1.3 1.8-2 0-.4.4-1.1.8-1.5.4-.4.7-1 .9-1.5.1-.5.4-.8 1-1h1c.2.2-.7 2-1.7 3.2-.7 1-.8 2.4-.1 3.1l.4.5-.4.3c-.5.2-.7 2-.3 2 .2 0 .6-.4 1.1-.9l1-.9-.4-.7-.5-1s.2-.2.5-.2c.4 0 .6-.3 1-1 .3-.8.5-1 1-1 .8 0 .9-1.1 0-1.8-1-1-1.7-2.6-2.2-4.6-.4-2.2-.3-3 .5-4.4l.5-.9 1.4.2c.8 0 1.6.3 2 .7 1.3 1 2.3 1 3.2.3.5-.4 1.1-.7 1.4-.7.5 0 1-.4 2-1.7.6-1 1.7-2.1 2.3-2.6 1-.7 1.1-.8.9-1.2-.7-.9-2.2-2.2-3-2.6-.5-.2-1.3-.8-1.8-1.2-.9-.7-2.6-1.2-3.3-1-.3.2-.2.5.3 1.6 1.1 2.5 1.2 7.7 0 7.9-.3 0-.4-.2-.4-1.2s0-1.2-.3-1c-.4.4-1.3.5-1.3.2l.5-1c.6-1 .7-1.6.2-3.4-.3-1.2-.7-1.9-.7-1.4l-.1 2.2c-.1 1.9-.5 3-1 3-.2 0-.2-.3 0-1 0-.6.2-2.3.1-3.9 0-3.3 0-3.4-2.4-3.9a20.2 20.2 0 0 1-4.7-1.6V38c.3 1.4-.2 3.5-.8 4.2-.5.6 0 1 .7.4s.8-.6 1.4.7c.9 2.1 0 3.5-1.2 1.6l-.7-1c-.2 0-.6-.2-1-.6l-.6-.7.6-1c.4-.7.5-1.2.5-2.8 0-1-.2-2.2-.4-2.7-.5-1.1-2.7-3.8-3.7-4.4-1.3-.8-2.5-2-3.4-3.4-.7-1-1.2-1.5-2-1.7l-1-.4-.6.8-1.3 2.2c-.8 1.6-.8 1.6.6 5.1.4 1.2 1 2.1 1.5 2.6.6.5.8.8.5 1-.5.5-1.2 0-2-1.2l-.9-1.2c-.4 0-2.3 1.6-3.5 2.9-.9.9-1.7 1.6-2 1.6-.2 0-.5.4-.8.8l-1 1.4-1.2 2.4-1 2.3c-.3.5-.4 1.2-.2 3.8.3 5 .3 5.1 1.9 6.4 2 1.6 2.6 2.4 2.3 3.1l-.3.6-.3-.6c-.4-.8-.7-.7-.9.3-.2 1.1 0 1.5.7 1.5s6 2.3 6.5 2.8c.3.3.3.4 0 .7-.2.2-.5.2-1.2-.2l-1.3-.4-2.1-.8L93 63l-1 1c-1 1-1.3 1.9-.8 2.5.6.8 4 2.2 5 2.1h1.1zm-5-.5c-.5-.4-.4-1.2 0-1.2s1.2 1 1.2 1.3c0 .4-.9.3-1.2 0zm2.5-1.1c-.2-.3-.2-.5 0-.7.4-.4 1.2 0 1.2.6 0 .5-.7.6-1.2 0zm8-.5c0-.6 1.3-1.4 1.6-1 .5.5 0 1.2-1 1.3-.4 0-.6 0-.6-.3zm2.7-1.1-1.2-.9c-.6-.6-.7-.8-.4-1 .3-.3.7-.3 1.5 0 1 .4 1.2.4 1.9.2.9-.4 1.6-.2 1.6.3 0 .8-2 1.6-3.4 1.4zm-12.5-8.8c0-.3-.1-.3-.3-.1-.5.4-1.4-.3-1.2-.9.2-.5.5-.5 1 0 .3.2.6.3.9.2.3 0 .4 0 .4.6 0 .4-.2.7-.4.7s-.4-.2-.4-.5zm5-1.3c0-1.7.3-3 .8-3.2.6-.2.8-.6.8-1.5 0-.5.2-.8.5-.9.3 0 .6-.4.6-.8l.1-.7h1.7c2-.2 2.5.1 1.6 1.1-.4.5-.5.6-.1.3a6 6 0 0 1 2.7-1.3c1.4 0 3.6 1.7 4 2.8.2 1.2-.4 1.4-1 .4-.7-1-2-1.6-3.5-1.6-.7 0-1.1.2-1.6.8-.7.8-1.6 1-1.6.5 0-.4-.5-.2-1.1.5-.5.5-.9.7-1.6.7-1 0-1.3.4-1 1.4.4.8-.3 2.5-.9 2.5-.3 0-.4-.3-.4-1zm3.5-4.7c.6-.7.5-1.2-.2-.7-.5.5-1 1.3-.7 1.3l.9-.6zm-2.2-2.2v-.9c.4-.8 1.1-1 1.1-.3 0 .6-.9 1.5-1.1 1.2zm-4.1-1c-.3-.7.9-1.6 2.2-1.8h1.4c.2.2-.6.9-1.2.9-.3 0-1 .3-1.3.6-.9.8-.9.8-1.1.3zm10-7.6c0-.6-.2-1.3-.6-1.3l-.3.8c0 .3-.2.7-.4.8-.3 0-2.4-3-2.4-3.5l-.6-1.3c-.5-.9-.7-2.3-.3-2.3.1 0 .4.3.6.7.7 1.5 1.6 2.4 2.7 2.6.7 0 1.4.5 2.2 1.3l1.2 1-.6 1c-.7 1-1.6 1.1-1.5.2zm0-1.8c.3-.3-.3-.7-1.2-1-1-.2-1 .3 0 .9.9.4 1 .5 1.3.1zm47 22.9c0-1.3-.1-2-.5-2-.1 0-.2.8-.2 1.7 0 1.4 0 1.7.4 1.6.2-.1.4-.5.4-1.3zm-34.7-5-.1.2v.4c.2-.1.2-.4.1-.5zM92.2 40.3c.6-.7 1.1-1.5 1.1-1.8 0-.3.3-.8.7-1.1.4-.4.7-.9.7-1.1 0-.5-1.5-1.6-2.1-1.6-.7 0-2.4-1.3-2.4-1.8 0-.6 0-.7.8-.3.4.3.5.2.5-.4 0-.6-1-1.7-1.4-1.7a51.3 51.3 0 0 1-.8 2.6c-1 4.5-1.2 5.6-.6 6.6.2.5.6.9.8.9.2 0 .4.4.5 1l.2 1.2.4-.6 1.6-1.9zm49.8.2-.4-.2c-.4 0-1.2 1.3-1.2 1.9 0 .4 1.6-1.2 1.6-1.7zm-78.2.8c.3-1 .2-1.4-.2-.7a3 3 0 0 0-.4 1c0 .5.4.3.6-.3zm-12.5 0a8 8 0 0 0-1.6-2.3c-.1 0 .2 2 .4 2.4.2.3 1.2.3 1.2 0zm1.5-1.2a7 7 0 0 0-1.7-2.5c-.6-.3-.4.4.4 1.6.7 1 1.3 1.4 1.3 1zm-3.3-4c-.1-.3-1.1-.6-1.3-.3l.3.8.5.6.3-.5c.2-.2.3-.5.2-.7zm75.1 93.3c.1-.4 2.8-.7 3-.4.3.5-.3.7-1.6.7-1 0-1.5 0-1.4-.3zm-44.8-2c-1-.2-.3-.7.8-.7 1 0 1.2 0 1.2.4s-1.1.6-2 .3zm-5.2-1.5-1.2-1.3h-2.6c-1.4 0-2.5-.2-2.6-.3 0-.2.1-.3.4-.4.3 0 .6-.2.7-.4.3-.5 1.6-.5 3.3 0 1 .3 1.8.7 2.6 1.5.6.6 1.4 1.2 1.8 1.4.9.5.7 1-.3 1-.6 0-1-.4-2-1.5zM63 124.4c-2.2-.1-2.4-.6-.5-1 1-.1 1.6 0 2.4.2 1.2.4 1.7 1 .7 1l-2.6-.2zm66.5-.8c.1-.8 2-1 2-.2 0 .4-.6.7-1.5.7-.4 0-.6-.2-.5-.5zm-95.5-1.3c-.5-.2-.4-.6 0-.6.3 0 .9-.2 1.4-.5 1.3-.7 4.8-1 4.8-.5 0 .6-.5 1-2.5 1.2a480 480 0 0 0-3.7.4zm9.8-.7c-.6-.8-.2-1 .7-.4.4.3 1 .4 1 .3a6 6 0 0 1 2-.2c2.2 0 2.1 0 1.7.5-.5.7-4.8.5-5.4-.2zm15 .3c-.2-.3-.2-.5 0-.6h.8l1.7.2c1.9 0 1.6.6-.4.7-1.3 0-1.9 0-2.1-.3zm-5.5-.8c.1-.4 2.8-.6 2.8-.3 0 .4-.9.6-2 .6-.6 0-.9 0-.8-.3zm162.4-1.6c-.5-.5-.4-1 .3-1 .8 0 1.3.4 1.1.9-.2.5-1 .6-1.4.1zm0-4.3c-.5-.4-.8-.9-.8-1 0-.5.7-.6 1-.2 0 .2.4.4.7.6.4.1.7.4.6.6-.1.8-.6.7-1.5 0zm-3.7-.5c-1-.3-2.1-1-1.8-1.4.2-.2 2.8.6 3.3 1 .2.2.2.4.2.5-.2.3-.2.3-1.7 0zm1.2-3.7c-.3-.1-1.5-.3-2.7-.3h-2.1l-.1-.5c0-.4 0-.5.7-.3.6 0 .9 0 1.4-.6l.9-1.2c.2-.6.9-.6 1.1 0 .1.2 0 .7-.2 1-.3.6-.4.5 1 1.2.6.3 1.1.7 1.1.8 0 .3-.5.3-1.1 0zm-25.8-.1c0-.4 1.2-1 3.6-1.5 1.4-.4 2-.7 2.3-1.1.4-.6 2-1.4 2.7-1.4.9 0 .2.7-1.1 1.3-.8.3-1.5.7-1.5 1 0 .5-.3.6-5.4 1.8-.4.1-.6 0-.6-.1zm-136.6-2.4c0-.5.7-.8 2.4-1.1 1.2-.3 1.7-.3 2 0 .3.3.2.3-2.2.9-2 .5-2.2.5-2.2.2zm5.1-.1c.2-.5 3.1-.9 4-.5 1.3.5.5.8-1.8.8-1.7 0-2.3 0-2.2-.3zm133.6-.8c0-.5 2.1-1.3 3.5-1.3h1.1l-2.2.8c-2.6 1-2.4 1-2.4.5zm8.2-.3c.1-.2.6-.4 1.2-.6 1.3-.3 2-.8.7-.5-.6.1-.9 0-.9-.1 0-.3.5-.4 2.5-.7 1.5-.2 2 .3.4.6-.7 0-1 .2-.7.4a57.9 57.9 0 0 0-1.7 1c-1.2.3-1.6.4-1.5 0zm14-1.1a12 12 0 0 0-3.2-.2c-1.3.1-1.6 0-1.6-.2 0-.3.3-.6.7-.8 1.2-.6 1.3-1.1.3-1.9-1-.8-2-1.8-2.3-2.4-.2-.3-.2-.5.2-.6.2-.1.7 0 1.2.6.4.5.8.9 1 .9l.9-.7.8-.6-.2-3v-2.9c.2 0 .3.3.3.5 0 .8.5 1 .7.2.3-1.1.7-.8.5.4-.2 1.1.1 4 .4 4 .1 0 .3-1.2.4-2.6.2-3 .7-4 .7-1.3 0 1 .1 1.7.2 1.7.3 0 .7-3.2.5-3.6-.2-.4.5-.7 1-.5.3.1.3.3 0 1.1-.4 1.2-.5 3-.1 3 .1 0 .3-.4.4-1 .1-.6.3-1.3.5-1.5l.4-.5v.7c0 1 .7 1 1.7 0l.7-.8-.8-.1c-.5-.1-.8-.4-.8-.6 0-.3.2-.3.8-.2l.7.1.7-1 .8-1.2.4.4.4.4-.6.8a3 3 0 0 0-.6 1.3c0 .4-.6 1-1.5 1.8-1.4 1.1-1.6 1.4-1.6 2.2 0 .8-.3 1.2-2.1 3a85.6 85.6 0 0 1-4 3.9c0 .2.5.3 1.4.3.8 0 1.5 0 1.6.2.2.2.8.3 1.3.4 1.3 0 1.7.7.4.7l-2.6-.4zm-1.8-4.5c.2-.3.1-.4-.3-.1-.6.3-.7.5-.2.5.2 0 .5-.2.5-.4zm3.1-3.2-.2-.6c-.2 0-.3.3-.3.6 0 .4.1.7.3.7.1 0 .2-.3.2-.7zm-12.5 5.8-1.2-.2-.6-.4c0-.2.5-.3 1.4-.1 1.9.2 2.4.3 2.2.6-.2.3-.9.3-1.8.1zm0-3.3c-.1-.1 0-.2.2-.2.3 0 .4.1.3.2l-.3.3s-.2-.1-.2-.3zm-1.8-1.1c0-.3.2-.4.4-.4.4 0 4-3.3 4.2-3.9l1-1.1c1.7-1.6 1.3-.5-.6 1.7l-2 2.5c0 .5-1.9 1.5-2.5 1.5-.3 0-.5-.1-.5-.3zm4.7-1.2c-.3-.4 0-.9.4-.7.3.2.3 1 0 1-.2 0-.3-.2-.4-.3zM6.4 96c-.2-.3 1-.8 2.3-.8 1.4 0 1.3.5-.2.7-.7 0-1.4.2-1.6.3-.2 0-.4 0-.5-.2zm195.8-.7c-.2-.2 1.7-2.2 2-2.2.2 0-.1.5-.6 1.2-.8 1.2-1 1.3-1.4 1zm-74-1.6c-2-1.1-2.6-1.5-3.4-2.8-1.1-1.6-.5-1.5 1.1.1 1 1 1.9 1.7 3.1 2.2 1 .3 1.8.8 1.8 1 .2.5-1.3.2-2.7-.5zm-118.3 0c.1-.2 1.2-.5 2.5-.8 1.2-.3 2.5-.7 2.9-1a10 10 0 0 1 2.7-.7c1.4-.2 2.2-.4 2.4-.8.2-.3.9-.6 1.6-.7 1.4-.3 1.9-.6 1-.6-1 0-.5-.6.6-.7.8 0 1-.2.7-.4-.4-.5 0-.8.9-.6.5.2.6.3.4.5-.5.6-.2.7 2 .7 2.4 0 2.9.1 2.5.8-.2.3-.7.4-1.9.3-.9 0-2.2.1-3 .4-.8.2-1.6.3-1.7.2-.1 0-.5.1-.9.4-.3.3-1.4.6-2.3.8l-2 .5c-1 .8-9 2.4-8.4 1.7zM202 91.6l.7-.9c.3-.2.7-.8 1-1.3.5-1.1 1-1.4 1-.6 0 .6-1.4 2.6-2 3-.8.4-1 .3-.7-.2zm-87.3-1.7c-.6-.3-1-.7-1-.9 0-.5.5-.5 1.2 0 .3.2.7.4 1 .4.6 0 .9.5.4.8-.5.3-.5.3-1.6-.3zm-98.8-2.4c-1.1-.3-1.7-.6-1.7-1 0-.2.2-.3.6-.2l2 .6c.7.2 1.3.5 1.3.7 0 .5-.4.5-2.2 0zm11.5-.4c-.5-.4.3-.6 2.7-.6 1.6 0 2.6.1 2.6.3 0 .1-.4.2-1 .2-.5 0-1.7 0-2.6.2h-1.7zm176-.2c0-1.7 1.7-4.4 2.7-4.4h.6l-.9.8c-.4.5-1 1.4-1.2 2.1-.5 1.4-1.2 2.3-1.2 1.5zm-192-1c-.4-.3-1-.4-1.3-.5-.9 0-.8-.8 0-.8s3.7 1.2 3.4 1.4c-.3.3-1.2.2-2-.2zm23-.2c-.8-.4.2-.5 5.8-.5 5.4 0 6.9.2 5 .6a75 75 0 0 1-10.8 0zm-17.6-1.2c-.3-.3-.2-.7.2-.7.2 0 .4.2.4.4 0 .5-.3.6-.6.3zm27.2 0c-.4-.4 0-.6 1.1-.8 2.2-.3 4.4-1 5-1.4.3-.3 1.8-1 3.5-1.5 2.2-.7 3.3-1.2 4.5-2 1.6-1.3 6.4-4 7-4 .9 0 .4.5-1.8 1.6l-3 1.7-.7.5.6-.1c.3-.1.7 0 .7.1.3.4-.6 1-2 1.3l-3.4 1.2a56.3 56.3 0 0 1-7.6 2.8c-1.9.5-3.7.7-3.9.5zm158.3-1.3c0-.4 1.2-1.5 2-2 .4-.1.6-.4.5-.6 0-.3.4-.7 1.2-1.1l2.6-1.9c1.3-1 3.5-2.2 3.5-1.7l-1.2 1c-.7.3-1.1.7-1 .8 0 0 .4 0 .7-.3.8-.5 2-.8 2.2-.5 0 .2-.5.5-1.4.8-1.7.7-6 2.8-5.8 2.9l.8-.2c1.3-.5.7.2-.8 1-.8.4-1.7 1-2 1.5-.7.7-1.3.9-1.3.3zM108.7 81c0-.3 0-.5.2-.6.4-.2.4.1 0 .6-.2.4-.2.4-.2 0zm85-1.6c0-.1.2-.2.6-.2.4 0 .6.1.5.2 0 .2-.3.3-.5.3s-.5-.1-.6-.3zm3.5-.2c-.1-.2 0-.3.4-.3.3 0 .5.1.4.3l-.4.2c-.2 0-.3 0-.4-.2zm6.5-1c0-.2.3-.5.7-.6l1.4-.7c.8-.4 1-.5 1-.1 0 .2-2.4 1.6-2.8 1.6-.2 0-.3-.1-.3-.3zm-4.3-2c-.4-.2 0-.4 2.4-.8 2-.4 2.7-.4 2.3 0-.3.3-4.4 1-4.7.9zm-168-.2c-.3-.2-1.4-.4-2.4-.4-1.8-.2-2.5-.5-1.8-1 .4-.1 2.4 0 3.8.3l1.7.4c.4 0 .7.2.7.4 0 .5-1.4.7-2 .3zM211 74.2c-.3-.3 0-.7.5-.7.2 0 .4.2.4.4 0 .4-.6.6-1 .3zm-145-.6a11 11 0 0 1 4.7-2.2c1.2 0 3-.5 2.9-.8 0-.1-.8-.2-1.7-.2-1.1 0-1.7-.2-2.2-.6a3 3 0 0 0-.8-.5c-.4 0-4.4-2-4.4-2.2 0-.3.7-.2 1.9.3a21 21 0 0 0 7.5 2.3l2.4.2 2.9-.7c1.6-.4 3.4-.8 4-.8 1.1 0 1.3 0 1.3.5v.5H83c-.9-.1-2.1.1-4 .7a50.7 50.7 0 0 1-5.7 1.5l-1.9.6-3.2 1c-2.7 1-3 1-2.4.4zm-12.2-1.1c-2.8-.6-3.2-.8-3-1 .4-.4 6.2.7 6.6 1.2.5.4-.7.4-3.6-.2zm153.3.2c0-.3 1-.9 3-1.6a13.8 13.8 0 0 0 3.2-1.5l1.2-.8c1.1-1 1.7-1 1.5-.4l-.2.5-1 .6c-3.9 2-4.7 2.5-5 3-.3.4-.7.5-1.5.5-.7 0-1.2-.1-1.2-.3zm4.8 0c0-.7 1.2-1.4 1.6-1.1.2.2 0 .5-.5.8-.8.7-1.1.7-1.1.2zM46.8 70.2c0-.1 0-.2.2 0 .2 0 .3.1.3.2l-.3.1c-.1 0-.2-.1-.2-.3zm156-.2.8-.4 2.1-.9c1-.5 1.5-.6 1.7-.3.2.2 0 .4-1.2 1-1.9.8-3.3 1-3.3.6zm-152.3-.4-2.8-.7c-1.3-.2-2-.4-2-.6.2-.3.6-.3 2.4-.1l1.2.2-1-.5c-.5-.2-1.6-.4-2.4-.4-.9 0-1.7-.2-1.8-.4-.4-.4-1.4-.4-1.8 0-.5.5-8-1-8.2-1.6 0-.2.3-.3 1.2-.2l3.4.3 2.2.2-.6-1.1c-.4-1-.9-1.3-2.3-2a25.9 25.9 0 0 0-6.8-2.2c-1.4 0-4.9-1-7.2-1.9-2.4-1-5.7-3.1-5.3-3.5.2-.2 1.2.2 2.3 1.1 1 1 5.3 3 6.2 3a48.4 48.4 0 0 0 5.8 1c2.8.2 3.4.4 4 .9.3.3 1.3 1 2 1.3 1.6.8 2.3 1.7 2.3 2.8v.8h.7l1-.2c0-.2.3 0 .6.2.3.4.9.5 1.5.5 1.2 0 1-.5-.3-.9-1-.3-1.7-1.2-.9-1.2.6 0 4.8 1.1 5.3 1.4 1 .5.5.8-.8.6-1.5-.2-2.5.3-1.2.6 2.4.5 3 .7 3.8 1.7 1.3 1.2 1.2 1.6-.5.9zm161-.6c0-.2.4-.8 1.2-1.5a11 11 0 0 0 1.3-1.4l-.6-.6-.5-.6.1-1.5.2-1.6h-.7l-.8.1v-1c-.1-.7 0-1 1-2l1-1.1-.4-.4c-.7-.5-1.1-.5-1.5.2-.2.5-.4.5-1.5.4a5 5 0 0 0-1.8.1c-.5.2-.8.2-1-.1 0-.2-.4-.5-.8-.6-1-.2-.9-1 0-.8 2.2.4 3 .4 3.6 0l1.6-.2 1 .2 2.3-2.1c1.7-1.6 2.3-2 2.6-1.7.2.2-.1.6-1.5 1.9-1.8 1.6-2.1 2.1-1.4 2.4.6.3.5.7-.6 1.4-1 .6-2.1 2.1-1.9 2.4l1-.2c1-.2 1.7.3 1.2 1-.2.3-.4 1-.5 1.6l-.2 1.2.8-.2c.6-.1.8 0 1 .4l.3.6.7-.6c.4-.3.9-.5 1.1-.5.8 0 0 .8-2 2l-2.9 2.1c-1 1-1.2 1-1.4.7zm-153.8-.3c-5.8-.3-5.5-.2-5.3-.5a93 93 0 0 1 12.8 0c.3.6-1.5.7-7.5.5zm142.5-2.2c0-.1.1-.2.3-.2.2 0 .2.1.1.2 0 .2-.2.3-.3.3v-.3zm-172.6-.9c-3.8-.6-6.6-1.7-5.9-2.4l3.6.8 4.5 1.1c1.2.3 1.6.8.7.8-.3 0-1.6 0-2.9-.3zm179-.9c0-.4.8-.9 1.2-.7.3.1.4.2 0 .6-.3.4-1.2.5-1.2.1zm-155.8-1c-.5-.2-.4-.9 0-.9.3 0 .5.3.5.6l-.1.5-.4-.2zM76.6 62c-.3-.3-.2-.6 0-.6l1.8-1c1.4-.9 2.4-1.2 2.2-.6-.1.3-3.3 2.3-3.7 2.3l-.3-.1zM41 59.6l-.4-.6c0-.4-1-.4-1.2 0-.4.6-1.4.1-3.2-1.6l-2-2-.3.5c-.3.4-.5.4-1 .1-.5-.1-.8-.4-.8-.4 0-.4 1.6-2 1.9-2l1.2 1.2 2.1 2.3 1.1 1.2 1-.5c1-.5 1.5-.3 2.1 1 .5.8.1 1.5-.5.8zm29.7 0 .8-.6c.4-.2.8-.6 1-1 .2-.6.9-1 3-2.2 3.2-1.6 3.6-1.8 2.3-1.7l-3.8.4c-1.6.1-3.2.4-3.5.6-.3.1-.6.2-.7 0-.2 0 0-.2.2-.4.3-.1.5-.4.5-.6 0-.3.3-.4 1.5-.4 3.2 0 10.3-1.1 10.7-1.7.2-.3 1.5-.3 1.6 0 0 .1-1.7 1.1-4 2.2-2.2 1.1-4 2.2-4.1 2.4-.2.5-1.8 1.6-4 2.8-1.5.7-1.5.7-1.5.3zm-42.7-1.3c-1.2-.7-1.9-.8-2-.3-.2.2-.5 0-1.1-.7-1.2-1.2-2.2-1.9-2.6-1.6-.1 0-.5 0-.8-.2-.4-.2-1-.3-1.4-.3-.5 0-1-.3-1.3-.8-.9-1.1-2.1-2.4-2.8-2.9-.4-.2-.6-.5-.5-.6.2-.2 2.3.5 2.8 1 1.4 1.5 3.4 2.8 4 2.8.5 0 .3-.4-.4-1.2-.8-1-.8-1.1-.1-1.1.7 0 1.5.7 2.2 2l.6 1.3 2.4 1.2c1.3.7 2.4 1.3 2.4 1.5.2.6-.4.5-1.4 0zm157.4.4c0-.1.7-.5 1.7-.8 1-.3 2.2-.8 2.8-1.2 1-.7 1.5-.8 1.5-.4s-1 1-3 1.9c-2 .8-2.7 1-3 .5zM70.3 57.4c-.3-.2-.3-.3 0-.6s1.3 0 1.3.5c0 .4-.7.5-1.3 0zm128.2-.8c-.3-.5.2-.7 2.2-.9a7 7 0 0 0 2.6-.4c.2-.2 1-.4 1.8-.5l1.5-.2-1-.6c-.5-.4-1.4-.8-2.1-.9-1.6-.3-5.4 0-5.8.3-.2.3 0 .3.5.2.4-.1 1.1-.1 1.6 0l.8.1-.5.4c-.5.4-3.2.5-3.7.2-.2-.1-.3-.6-.2-1 0-.8.3-1 1.3-1.3.6-.3 1.4-.8 1.7-1.2.3-.5.7-.8.8-.8.2 0 .6-.3.8-.7.8-1 .3-1.3-3.4-1.3a22 22 0 0 0-8.6 1.3l-2.7 1c-1.2.3-4.2 1.3-5 1.7-1.2.5-2.8.7-2.8.4 0-.3 1.5-.9 4-1.5a8 8 0 0 0 2-.7c0-.2 0-.2-.4-.1-.4 0-.6 0-.6-.2s1-.6 2-1l3-1c.6-.3 1.1-.4 1.3-.3 0 .1.5.2.9 0 .6 0 .7-.2.6-.5l-.2-.5h3.4l8.3.6.8.2v.7l-.1.6h1.7c1 0 1.8 0 1.8.2s-.7.4-3.5.7c-.8.1-1.6.3-1.8.5-.5.6-.1.7 1.3.3 2.1-.7 7.3-1.5 7.6-1.2.3.3 0 .4-2.4.8a59 59 0 0 0-8.2 2c-.4.2 0 .3 2.4.4l3 .1 1 .8c.7.4 1 .8 1 1-.1.3 0 .4.5.4.4 0 .8.2 1 .4 0 .2.3.4.6.5.3 0 .6.2.7.4 0 .3-.2.3-1.3.2a51.1 51.1 0 0 0-10.2.4zm-12.8-6.9-.3-.3-.3.3c0 .2.2.3.3.3.1 0 .3-.1.3-.3zm-12.2 6.6c0-.2.6-.5 1.3-.7l2.1-.6c3-.9 2.7-.5-.4.8-2.2.9-3 1-3 .5zm-156.4-1c0-.2.2-.3.4-.3s.4.1.4.3l-.4.2c-.2 0-.4 0-.4-.2zm163.7-.6c-.3-.4 0-.6.4-.3.2.2.2.3 0 .4-.1.1-.3 0-.4 0zM14.3 53.1c-1.1-.5-2.3-1-2.7-1-.5 0-.5 0-.4.7.2.8-.4.8-1.9 0-1.4-.8-1.5-1.2-.2-1.3h1l-.8-.2C9 51 8.1 51 7.5 51c-1.2-.1-1.4-.4-.8-1.3l.5-.5 2.3.8 3.9 1.4c2.6 1 4.4 2.4 3.3 2.7l-2.4-1zm171.6.2c0-.3.2-.4.3-.3l.3.4c0 .2-.2.3-.3.3-.1 0-.3-.2-.3-.4zm24-5.2c-.3-.2 0-.4 1.4-.6 2.5-.4 8.4-2.8 9-3.6.1-.4.8-.3.8.1 0 .6-3.5 2.3-6.9 3.5-1.4.5-3.8.9-4.2.6zM189 46.3c-1.4-.1-.3-.6 1.6-.6a9 9 0 0 0 2.4-.2c.7-.4 5.5-.6 5.2-.3 0 .2-.6.3-1 .3a21.8 21.8 0 0 1-8.1.8zm25.4-1c-.1-.3 2.7-2.2 3.2-2.2.3 0 2.6-1.7 2.9-2.3.5-.7.9-.8.9-.1 0 .5-2.2 2.4-2.8 2.4l-.7.4c-.3.4-2.9 2-3.2 2l-.3-.3zM184 45c0-.2.1-.3.3-.3.6 0-.7-.5-1.4-.5-.4 0-.8-.2-.8-.3 0-.3.7-.3 2.6-.1l4.1.2c1.5 0 2.4.4 1.8.8-.5.3-6.6.5-6.6.2zm3-1.9c0-.2.5-.3 1.5-.3 2.1 0 6.4-.4 8-.9.9-.2 1.6-.2 1.8 0l.6-.1c.2-.4 1.2-.4 1.2 0s-1 .8-2.4.9l-3.8.4c-3 .3-6.7.3-6.9 0zm-145.7-.4a5 5 0 0 0-1.4-1 11 11 0 0 1-2.4-1.6c-.7-.7-2-1.8-3-2.4l-2-1-2.1-.2h-2.2l.1.5c.2.6 0 .7-1.2.3-1-.4-2 .2-2.2 1.4 0 .7-.2.8-.9 1l-1 .2c-.4.4-.9.4-1.8 0a18 18 0 0 0-6.4-2c0 .2 0 .4.3.7l.4.5-.4.2c-.6.2-1-.1-1-.8 0-.7-.6-1-.9-.4-.2.2-.4.2-2.4-.7-1-.4-1.3-.4-2.4-.1-.8.2-1.3.2-1.5 0-.4-.3.7-1 2.5-1.4a14 14 0 0 0 2.3-.9c.5-.2 1.8-.5 3-.5 1.6-.2 2.7-.4 3.8-1l2.6-1c1.6-.5 1.6-.5.8-1.2-.6-.5-.7-.7-.4-.9.2-.1.7-.2 1.1 0 .5 0 .9 0 1.1-.3.3-.2 1-.4 2.2-.4 1 0 1.9-.2 2-.3.3-.3-.6-1-1.5-1-.7-.1-1-.3-.9-.6.1-.3.5-.5 1.7-.5 1 0 1.5-.2 1.5-.4s.2-.6.5-.9c.8-.7.7-2.2-.4-4.7-1.7-4.2-2.4-5.2-4.7-6.3-1.5-.6-3.2-1-7.4-1.4-1.5-.2-1.9-.5-1.2-1.1.5-.5 5.3-.4 8 0 3 .6 4.6 1.3 6.6 2.8l2.2 1.5c.7.2.8.9.2.9-.6 0-1.4-.5-2.8-1.7-1.7-1.5-5-2.8-7-2.8-.6 0-.4.2 1.1.8 2.7 1.2 4 2.5 5.7 5.7l1.3 2.6v3.4l.6.2c.8.3 1.4 1.3 1 1.7-.2.2-.5 0-1-.4-.5-.5-.7-.5-1.5-.3-.6.2-.9.4-1 1v.6l1.5-.1c1.2-.2 1.5-.1 1.6.2.3.8 0 1-1.6.7-.9 0-1.6 0-1.8.2l-.5.3.4.3c.4.3.8.3 2 0L32 30l.7.8c.5.5.7 1 .7 1.5-.1 1-.7 1-1 0-.5-1-1.9-1.8-1.9-.9 0 .6-.8.5-1.6 0-.5-.5-1-.6-2.3-.5-1 0-1.8.2-1.8.2-.3.3.5 1 1.6 1.4 1.5.5 1.7 1.3.3 1-.7 0-1 0-1 .3-.3.6-1.2.5-1.4-.1-.1-.4-.4-.5-.9-.5-1 0-2.6.6-2.2.8.7.5.2.7-1.2.7-.9 0-1.8.2-2 .4-.4.2-1.2.4-2.2.4l-2.1.2c-.6.4-.5.4 1.7.9.8.2 2.3.6 3.2 1 1 .3 2.4.7 3.3.7h1.5v-.5c0-.4.3-1 1-1.5l1-.8 2.3.2c3.7.2 4.2.2 4.4-.1.1-.5.7-.4 1.2.3.2.4 1 1 1.7 1.3l2 1.4c1.6 1.3 1.8.7.7-1.6-.7-1.4-.8-2.3-.3-2.3.2 0 .3.2.4.5a3511.9 3511.9 0 0 1 1.7 3.5l1.9 2.8c.6.7 1 1.4 1 1.5 0 .4-.7.2-1-.2zm171.8-1s.2-.2.5-.2.5.1.4.3l-.5.2c-.2 0-.4 0-.4-.2zm-140-.5c-.7-.3-.7-.7.1-.7 1 0 2.1.4 1.9.7-.2.4-1.1.4-2 0zm4.8-1.1a13.3 13.3 0 0 1-3.2-2.3c-.6 0-5-2.7-5-3 0-.7.9-.5 2.9.8 1 .7 2.6 1.5 3.3 1.9l1.9 1.3c.6.6 1.1.8 1.1.4l-.6-1.2c-.7-1-.9-2-.4-2 .1 0 .8.8 1.5 1.8s1.7 2 2.3 2.4c1.3.9 1.2 1.3-.2 1.3-.8 0-1.7-.4-3.6-1.4Zm137.4.6c.9-.5 1.2-.5.7.1-.2.3-.6.4-.9.4h-.6l.8-.5zm1.2-.6c0-.2 2.8-2.3 3-2.3.5 0 0 .6-1 1.4-1.2.9-2 1.2-2 .9zm-37.2-.7c-.2-.4.4-.8 1-.8.3 0 .5-.2.5-.5 0-.7.8-1.6 1.2-1.5.2.1.4.4.5.7.2.9 1.9.6 3.1-.6l2.8-1.3c1.2-.5 3.4-1.6 4.8-2.5 1.4-1 2.7-1.7 2.8-1.7.5 0 2-1.8 1.8-2-.6-.3-.3-1.1.7-2l1.3-1.3a8 8 0 0 1 1.4-1c.6-.4 1-.8.8-.8-.2 0-1.4 0-2.8.3-3 .5-5 .7-11.2 1-1.3.2-2.7.4-3.1.6-.5.3-1.5.4-2.4.4-.9 0-1.7.2-1.9.3-.3.3-3.2.8-5.5 1-3.5.1-8 .8-8.9 1.2a43.7 43.7 0 0 1-8.3 3c-1.1.4-2.3.3-1.8-.2l3.5-1.2c4.8-1.4 5-1.7 1-1-.8.1-1 .1-1-.2.2-.4 5.3-1.2 10.9-1.8 7.5-.8 8.3-1 8.4-1.3 0-.3 0-.3-.5-.2-1.5.3-4 .5-4 .2 0-.1.8-.6 1.8-1a24.7 24.7 0 0 0 4.2-2.5c.1 0 .7.5 1.3 1.2l1.1 1.1h2.4a93.6 93.6 0 0 0 16.8-1.8c.7.2 1-1 1-3.4.1-2.6 0-2.8-1.8-2.4-1.7.4-4.8.4-5.2 0-.2-.1-1.7-.4-3.5-.5-3.5-.3-4-.4-3.6-.8a13 13 0 0 1 4 0l5.2.4c1 0 2.2 0 3-.2l1.4-.2-.2-.8c0-.4 0-1 .2-1.3.2-.4.4-1.9.5-3.4.2-6.8.1-6.5.6-6.6l.5.1c0 .2.7.6 1.5 1 1.3.6 1.7.6 2.4.4.8-.2 2 0 2 .3l-1.5.6c-2 .5-1.9 1 .2 1.2l1.6.2-.6.4c-.6.4-.8 1.5-.3 2 .2.2.1.5-.1 1-.6 1.2-.6 2.7 0 3 .4.2.6.5.6.6 0 .2-.2.4-.5.4-.6.2-.7.6-.3 1.5.1.4.3 1.9.3 3.4 0 2.3 0 2.8-.3 2.8-.3.1-.5-.2-.6-1.5l-.2-2.8c0-1.7-.5-3.6-1-3.5-.4 0-.4.5-.4 2.3 0 2.3-.2 2.8-.8 1.3-.2-.5-.7-1-1-1-.6-.3-.4-.8.3-.8.8 0 .7-1.5 0-1.7-.4 0-.8-.5-1.1-1.1l-.5-1 .2 2.5c0 1.3.2 2.7.4 3 .4.7.3 3.1-.2 3.8-.5.7-.3 1 .3.6.3-.3 1-.2 1 .2l-1.6 1c-.8.4-1.6 1-1.7 1.2l-1.7 1.3-1.5.8.2.9c.1.7 0 1-.7 1.9-.4.6-1.3 1.3-2 1.7a110.6 110.6 0 0 0-5.8 3.4c-.3 0-1.6.7-5.8 2.9-2 1-5.2 1.7-5.6 1zm1.7-14.4s0-.4-.3-.8l-.4-.7-1 .7c-.7.4-1.1.8-1.1 1 0 .2 2.6 0 2.8-.2zm25-11.3V12c0-1.7 0-1.7-.9-1.7-1 0-.9-.6.1-.8h.7v-1c0-1.8-.5-2.9-1-1.7l-.6 1.5c-.7 1.5-.6 3.4.2 3.3l.4 1 .4 1.4c.3.4.6.3.7-.3zm1.9-.5c.3-1.4.2-2.1-.3-2.3-.2 0-.5 0-.6.2-.3.4-.3 2.5 0 2.7.3.4.7.1.9-.6zm.3-3.9c.2-.5 0-.9-.7-.9-.2 0-.5.1-.6.3-.3.4.1 1 .6 1 .3 0 .6-.1.7-.4zm6 29c0-.2.4-.6 1-.9l2-1.4c1-1 1.2-1 1.2-.5 0 .3-3.7 3.1-4.1 3.1 0 0-.2-.1-.2-.3zM153 36.9c0-.2.2-.4.3-.4l2-.8c1-.5 1.9-.8 2.1-.8.3.1-.4.6-1.8 1.3l-2.4 1c-.1 0-.2-.1-.2-.3zm67.9-.5c-.3-.6 0-1.3.4-1.2.5.2.6.6.1 1.2l-.3.5zM75.8 36v-1.9c.2-1.9.7-2.4 1-1 .3 1.5-.5 3.8-1 3zm105.7-.1c.2-.5 1-.6 1-.1 0 .2-.2.4-.6.4-.3 0-.5-.1-.4-.3zM.1 35.7V34l.2-1.6L2 30.5l1.7-1.7-.2-.8c-.2-.8.1-1.2 1-1 .8.4.6 1.6-.5 2.9-1.4 1.7-1.2 2 .6.6.5-.3 1-.6 1.3-.6h.5l-.5.5-2.5 2C1.6 33.5 1.2 34 1.8 34l3-1.3a19 19 0 0 1 3-1.3c.3 0 1.3-.3 2.2-.7l2.2-.7c.4 0 1-.3 1.3-.7.5-.5.8-.6 1-.4.2.2 0 .6-.5 1.2-.8.9-1.7 1.2-4.4 1.7-1 .2-5 1.9-7.8 3.3-1.5.8-1.5.8-1.7.5zm83.2 0-.4-1.3c-.1-.6 0-.8.2-.8.3 0 .4.1.4.3l.7.9c.4.4.6.8.5 1-.2.3-1 .2-1.4-.2zm129.9-.6 1-1.7c.3-.9.7-1.1 1-.7.2.4-1.6 3.1-2.1 3.2l-.5.1zM58 35.3c-.4-.4-.2-1 .2-.9.3 0 .5.3.5.5 0 .4-.5.6-.7.4zm122.5-.8c.3-.3.3-.5 0-.8-.2-.3-.2-.4 0-.5a324.8 324.8 0 0 0 7-2l2.9-.8c2.2-.6 2.8-.7 2.4-.3l-2.2.8-3.3 1.2-3.6 1.7c-2.4 1.2-3.8 1.4-3.2.7zm-101.2-.3c-.5-.3-.9-.7-.9-.9 0-.5-.6-1.1-1.4-1.4-.4-.1-.4-.3-.3-.5.4-.3 1.6.2 3.1 1.5 1.8 1.5 1.5 2.2-.5 1.3zm39.9 0c0-.2.5-.4 1.6-.6l4.7-1.2c6.4-1.9 11.1-2.8 15-2.8 2 0 3.6-.5 3.7-1 0-.2 0-.3-.2-.3l-1.2-.4c-.5-.2-2.2-.7-3.8-1-3.7-.9-4-1-3.5-1.2.4-.3 4.8.6 7.9 1.5 1 .4 2.1.7 2.5.7.6.2 4.8-.7 6.2-1.2l.6-.2v-2c0-1.4 0-2.2.2-2.2.6-.2 1 1 .8 2.5l-.2 1.4.8-.1c2-.5 7-1.3 8.2-1.4a37 37 0 0 1 9.5.8c1.2.8.3 1-2.8.9-1.6 0-3-.3-3.3-.4-.4-.4-2.7-.7-3-.4-.1.1-3.6.6-7.3 1l-2 .3a174.8 174.8 0 0 1-4.3 1.5c-.2.2-1.6.6-3.1 1a32 32 0 0 0-3 .6l-2.2.5c-1.5.3-2.1.4-2.3.2 0-.2-.5-.2-1.3 0l-2.2.2c-.6 0-2.2.3-3.6.7l-3.8 1c-.8 0-2 .4-3 .7a36 36 0 0 1-5.4 1.3c-.2 0-.2-.1-.2-.3zm35.5-.1v-.5a11 11 0 0 1 3.2-.8c.8 0 .4.5-.7.8l-1.7.5c-.4.2-.7.2-.8 0zm-81.3-1.2c-1.3-1.2-1.6-1.7-1-1.7a9 9 0 0 1 2.8 2.6c0 .5-.4.3-1.8-1zm146.8.5.5-2c.3-1.2.4-2.8.5-5.4l.2-6.4.2-2.7-.5-.4c-.3-.2-.5-.8-.5-2 0-1.1 0-1.9.2-2 .4-.2.5 0 .7 1.8 0 1.2.3 1.8.7 2l.5.5-.3 3.7-.4 3.7.5.3c.4.3.4.6.3 2.4a7 7 0 0 1-.5 2.8c-.4.6-.7 1.4-1.1 3.4-.2.8-1 1-1 .3zM51 33.1c-.4-.3-.2-.8.4-.8.3 0 .5.1.4.4 0 .5-.5.7-.8.4zm17.8-.2c-.9-.3-.6-1 .4-1s1.2.2 1 .8c-.1.3-.5.4-1.4.2zm-2.4-.7c0-.2.3-.6.6-1 .8-.8 1.2-.3.6.6-.5.8-1.2 1-1.2.4zm46.9-.7c-.3-.6-1-1.6-1.8-2.2-1.7-1.6-1.4-2.2.4-.8 1.3 1 2.4 2.7 2.4 3.6 0 .7-.5.4-1-.6zm5.3-.8a33.7 33.7 0 0 1-4.7-2.3c-.7-.2-1.3-.8-1-1.1 0-.2 1.6.5 3.4 1.3 1.8 1 3.6 1.8 4.1 2 1 .5 1.4 1.1.8 1l-2.6-.9zm93.3.9.6-1.4c1.6-3 2.2-4.8 1.8-6.7-.3-1.7-.3-3.5 0-6 .2-1 .3-2.8.3-4 0-1.6.1-2.2.4-2.2.8 0 .9 2.3.2 6.3l-.4 2.8.5.8c.6 1 .5 2.6-.1 4.6-1 3-2.8 6.2-3.3 5.8zm-176.2-.4c0-.2.2-.3.4-.3.3 0 .4.1.4.3 0 .1-.1.3-.4.3-.2 0-.4-.2-.4-.3zM55 31c0-.5.8-.9 2-1 1.2-.1.9.6-.4 1-1.6.4-1.6.4-1.6 0zm160-.2c-.2 0 0-1 .5-2.1l.8-2.6c.1-.6.5-.7.7-.2.1.4-1.5 5.2-1.7 5.2l-.4-.3zM0 30.3c0-.4 0-1.2.2-1.8.2-.6.4-2.1.5-3.3.1-1.6.2-2 .6-2 .2 0 .4.4.6 1.5.2 1.3.1 1.8-.3 3.3L1 30l-.4.7c-.3.2-.4.2-.6-.4zm64.5.4c0-.6 1-1.4 1.4-1.3l.5.2-.5.7c-.4.6-1.4.9-1.4.4zm-1.7-.3c-.1-.1 0-.3.2-.4.5-.2.8 0 .6.4-.2.3-.6.3-.8 0zM48.2 30c-.2-.6-2.2-1.4-3.2-1.4-.6 0-.9-.2-.8-.4.1-.4 2.9-.3 3.9.2.8.5 1.3 1.1 1.1 1.7-.1.4-.8.4-1-.1zm23.8-.5c0-.1.5-.3 1-.3.7 0 1.1.2 1.2.3 0 .3-.2.4-1.1.4-.9 0-1.2-.1-1.1-.4zm54.1.1c0-.1-.6-.5-1.3-.8l-1.3-.8c0-.7 3 .3 3.4 1 .4.8.4.9-.2.9-.3 0-.6-.1-.6-.3zm83.6 0 .7-1c1.2-1.9 2-4.3 1.8-5.3-.1-.5 0-.6.4-.5.2 0 .5.3.5.7.2 1.3-2.2 6.4-3 6.4l-.4-.2zm-71.4-.5a15 15 0 0 0-2.8-.3c-2 0-3-.3-2-.6l2.5-.2c2 0 3.8.5 3.5 1-.2.4-.3.4-1.2 0zm80.2.1v-5.1h-1.2v-2.6c0-3.9 0-4.2-.6-4.4l-.5-.1.2-1.2c.5-2.4.7-5.4.6-7.4-.2-2 0-2.7.6-2 .5.6.5 4.6 0 7.4-.5 3.1-.5 3.1 0 3.1.4 0 .6.8.6 3.4 0 3.6.6 2 .8-2.3a96.5 96.5 0 0 1 1.1-10.8c0-.8.2-1 .6-1 .4 0 .5.1.5.5a112 112 0 0 0-1.9 18.6c-.1 2.2-.3 3.6-.5 3.8-.2.2-.3.2-.3.1zm-166-.6c0-.6 1.6-1.9 2.2-1.9.5 0 .3.7-.6 1.5-1 1-1.5 1.1-1.5.4zm17-.1c.2-.4 3.5-.8 3.8-.5.4.4-.4.7-2.2.7-1.2 0-1.6 0-1.5-.2zm-57-.2c-.3-.1-.3-.4-.1-1.2.4-1.5 0-2.9-1-3.3-1.2-.5-1.4-.3-2 1.3-.4 1.5-1 2.2-1.5 1.7-.3-.3 0-1.6.5-2.5l.5-1c.2-.4.5-.5 1-.5 1.1 0 1.5-.4 1.3-1.2-.2-.8-1.4-1.4-2.4-1.1-.5.1-.6.2-.4.6.4.7.3 1.6-.1 1.6-.5 0-2.3-1.8-2.1-2.1 0-.2.5-.2.9-.2.6.2.7 0 .9-.4 0-.3.4-.8.8-1 .7-.4 1.5-.1 2.6.8l.4.3.3-.6c.3-.7 1.2-1 3.5-1.4.7-.1 1 0 1.4.4.4.5.4.6.1.9-.6.6-2 1-3.6 1h-1.4l.3.7c.1.4.2 1 .1 1.3 0 .4 0 .7.4 1 .7.4.9 1.6.5 3.4-.3 1.6-.5 1.8-1 1.5zm3.2-8.9c1.4-.6.8-1-.8-.6-1.5.4-2.2 1-1 1l1.8-.4zm113.5 9c-.6-.2-.5-1 0-1 .8 0 2 .6 2 .9 0 .2-1 .3-2 0zM81 28c-.3-.4-.4-1-.1-1 .4 0 1.2.6 1.2.9 0 .5-.6.5-1 0zM18.5 27c0-.4.2-.7.3-.7.4 0 .4 1.2 0 1.3-.3 0-.4-.1-.3-.6zm103.3.2c-.1-.3-.5-.6-1-.7-.8-.2-.8-.7 0-.7.9 0 1.6.5 1.6 1 0 .8-.4 1-.6.4zm84.8.2c0-.5 2-2.5 2.2-2.2.2.3-1.4 2.5-1.9 2.5-.2 0-.3-.2-.3-.3zm-123-.4c-1.4-.2-1.8-.5-1-.8.6-.1 2.4.2 2.7.5.4.4-.4.6-1.7.3zm-61.4-.3c-.5-.3-1-.6-1-.8 0-.2.4-.8 1-1.4l1-1.2 1.5.7c.8.5 1.4.9 1.3 1 0 .3-.3.4-.5.3-.3 0-.6 0-.8.2-.2.2-.7.2-1.1.1l-.8-.1.6.6.6.7-.4.2c-.5.2-.4.2-1.4-.3zm21 0c-.1-.5-1.2-1.2-2.3-1.5-.3-.1-.5-.3-.5-.4 0-.4 1.2-.6 1.8-.4.7.3 2.2 1.7 2.2 2.2 0 .7-1 .7-1.2 0zm3.4 0c-.2-.6.1-1.7.6-1.9.6-.2.7.1.3 1-.4 1.2-.7 1.5-.9 1zm13.3-.3v-.7c.4-.4 1.2 0 1.1.6-.1.6-.9.7-1.1.1zm68.2.2c-.1-.1-1-.3-1.8-.3-.9 0-1.6-.2-1.7-.4 0-.3 1-1 1.2-.7.1.2 1.4.4 3 .5 3.3.2 3.5.6.6 1h-1.3zm16.4-.3a8 8 0 0 0-2.2-.8l-4.5-1.1c-.3-.4.3-.4 2.2 0 4.4.8 6.2 1.5 5.6 2.2-.2.1-.6 0-1-.3zm-78.4-.3c-.5-.4-.5-.6-.2-1 .2-.2.2-.4-.3-.8l-1-.5c-.2 0-.4-.2-.3-.3.1-.4 1.4-.3 2.1 0 .4.3.5.5.4 1.2-.2.6 0 1 .2 1.2.2.2.4.4.4.6 0 .4-.7.2-1.3-.4zM50.7 26c.4-.6 2.4-1.9 3.2-1.9.7 0 .7.7-.1 1-.4 0-1.1.4-1.6.8-1.3.8-1.9.9-1.5.1zm23.4.2c-2-.3-2.2-.7-.4-.7 1.5 0 2.8.4 2.6.8l-.4.2-1.8-.3zm4-.7c-.9-.2-.7-.7.1-.6 1 .1 1.4.3 1.4.6s-.6.3-1.6 0zm39.8 0c-.5-.4.3-.6 2.4-.6 2.4 0 3.3.2 3 .6-.1.2-5.2.3-5.4 0zm30.3-.2a70 70 0 0 1-2.2-.3s0-.3.4-.5l.5-.4-1.3-1.2c-1-.9-1.4-1-1.6-.9-.3.3-.6.2-1.4-.3-.5-.4-1.7-.9-2.5-1.1-1.4-.4-2-.8-1.7-1.1.2-.2 2.2.4 3.6 1 .7.3 1.5.5 1.9.4.5-.1 1 .1 2 1.2.9.8 1.7 1.6 1.8 1.9.2.3.8.6 2 .8.8.1 1.6.4 1.6.5.1.4-.7.4-3 0zm-142.7 0-1-1.8c-1.2-1.7-1.2-2-.3-2 .7 0 1.6.7 2 1.6L7 24c.2.4.2.5-.2.9-.6.4-1.2.5-1.2.2zm205.2-3c0-1.9.2-5 .4-7.2l.3-4-.4-.6-.5-.6.7-.3a4 4 0 0 1 1-.3c.5 0 .6.7.1.9-.2 0-.3.7-.3 2-.3 11.7-.4 13.3-1.2 13.3-.1 0-.2-1.4-.1-3.3zM32.4 24.5c-.5-.5-.4-1 0-1s1.1.7 1.1 1.1c0 .6-.6.5-1.1-.1zm35.8-.3c0-.1.3-.4.7-.5.8-.3 5.4-.4 5.4 0L72 24a37 37 0 0 0-3 .4c-.6 0-1 0-1-.2zm99.8 0c-.3-.4-.3-.5 0-.6.3-.3 1 .3.8.6-.2.4-.5.3-.8 0zM42.7 24l-.8-.6c-.5-.3-.5-.4-.2-.6.5-.3.2-.9-.5-.9s-.7-.7 0-.9c.5-.2 1.4.2 2 .8.2.2.4.8.5 1.4l.2 1.1h-.5c-.3 0-.6-.1-.7-.3zm-23.3-.5V23c.2-.2.4-.7.4-1.3.2-1 0-1.2-1.4-2.3-.4-.3-.7-.8-.7-1 0-.4-.3-.6-1-.7-.5-.1-1-.4-1.2-.6-.4-.5 0-1 .8-.7a106 106 0 0 0 5.7 1.3c.3.1.4 0 .4-.4 0-.7.7-.9 1.8-.4 1.8.7 2.5 1.9 1.5 2.4-.3.2-.2.5.8 1.5.7.7 1.4 1.2 1.6 1.2.2 0 .4.2.4.4 0 .3-.3.4-.8.4-.4 0-.9-.2-1-.4-.5-.5-.8-.5-.9.2 0 .5-.2.6-.7.5-1.6-.1-3 0-3.7.4-1 .4-1.8.5-2 .1zm6.2-2c0-.5-2-2.2-3.3-2.7-1.7-.8-2.2-.7-1.5.2.3.4.6 1 .7 1.5l.3.8 1-.1c.4 0 1.1 0 1.5.2.8.3 1.3.3 1.3 0zM176 23c-1.6-.7-2.2-1.2-1.9-1.5.2-.2 3.9 1.5 3.9 1.8 0 .5-.6.4-2-.3zm7.7.1c-.6-1-.2-1.4.7-.7l.6.6-.4.4-.4.4zm-16 0c-.5-.4.2-.9 1.5-1 1.1-.3 1.1-.2-.2.6-.6.3-1 .4-1.3.3zm-133.6-.4-1-1.3c-.6-.6-.9-1.2-.8-1.4.2-.6 1.2-.6 2 0 .7.4 1 2 .6 2.6-.4.4-.8.5-.8.1zm59.4-.5c-1-.9-2.7-1.3-5.1-1.3-1 0-1.4-.1-1.3-.3.2-.2 1-.3 3-.2l2.7.2-.2-.4-.2-.5 1.3.2c2.9.4 4.1.7 4.1 1.1 0 .5-.4.5-2.3 0-2.4-.6-2.7-.5-1.6.5 1 .8 1.3 1.5.7 1.5-.2 0-.7-.4-1.1-.8zm66.7.6c-.4-.3-.2-.6.5-.6.4 0 .6.1.6.3-.2.4-.8.6-1.1.3zm-97.7-.7c-2-.5-2-.6-1.9-1 .2-.2 3.6.7 4 1 .4.6-.3.5-2.1 0zm51 .1s.7-.3 1.7-.4c1 0 2-.3 2.3-.5.8-.6 6-.6 6 0 0 .3-.5.4-2.6.4-2 0-2.7 0-3 .4-.3.4-4 .6-4.3.1zm-36.3-.8-1.5-1c.3-.5 4.1.9 4.1 1.5 0 .5-.7.3-2.6-.5zm-10.4.3c-2.4-.1-1.8-.6.9-.6 1.8 0 2.4.1 2.3.4-.1.3-.9.4-3.2.2zm-29.4-1-1-1.7-.5-.8.4-.1h1.5c1.3.1 2 .8 2.2 2.2.3 1.1-.2 1.7-.8 1a2 2 0 0 1-.4-1c0-.5-.7-1.5-.9-1.2-.1 0 0 .5.2.9.4.8.3 1.7 0 1.7-.2 0-.5-.5-.7-1zM70 21c-.4-.4.4-1 1.4-1 1.2 0 1.4.5.3.8l-1.1.2H70zm81.7 0-1.3-.2c-1-.2-1.4-1-.5-1 1.1 0 3.6.7 3.7 1 0 .3-1.2.4-2 .2zm-42.5-.6c0-.2.2-.4.5-.6.3-.2.3-.2 0-.2l-1.2-.5c-.6-.3-1.2-.4-2.4-.2l-1.6.1-1.6-.7-1.7-.8.5-.3c.3-.3.6-.3 1.7.3 1 .4 1.9.6 3.1.6 2.3 0 4.5.6 4.6 1.2.1.4.4.5 1.4.5.9 0 1.2.1 1.2.4 0 .3-.4.4-2.2.4-1.3 0-2.3-.1-2.3-.2zm-49.3-.2c-.6-.2-.6-.2.2-1 .7-.8 2.6-1.4 5.2-1.7 1.4-.1 2-.3 3.1-1.2 1.4-1 3.2-3 3.2-3.4 0-.3-2 .7-4 2-.7.5-1.4.9-1.5.8-.2-.2 1.5-1.6 2.9-2.4 4.3-2.4 4.7-2.8 6.1-5.6.7-1.4 1.5-4.7 1.5-6 0-.3.2-.4.5-.4.4 0 .4 0-.2 3.3-.1.9-.6 2.3-1 3.2-.5 1-.7 1.7-.5 1.7a14 14 0 0 0 4.8-3.4l1.6-1.6 2-.3 3.7-.3c1.3 0 1.6 0 1.5-.3-.1-.4 0-.7.7-1.1l1-.7c.4-.3 1.3-.5 2-.6H94v.5c0 .4-.3.5-1 .7-1.4.3-3.4 1-3.4 1.2l.9.3c2 0 3.7.5 3.8.8.1.4-.9.3-5.2-.1-1.9-.2-4 .1-5.8 1-.6.2-1.2.4-1.4.3l-2.1 1.6c-1 1-2.7 2.2-3.7 2.7a8.2 8.2 0 0 0-2.8 2.1l-2.5 2.9-1.6 1.6 2.7.2c2 0 3 0 3.6-.2 1-.5 2.2-.5 2.2-.2 0 .2-.6.5-1.4.7-1 .4-2.2.5-4.8.5H68l-1 .8c-1.2.8-2.2.9-2.4.3-.2-.5-1.1-.5-2.1-.1l-.8.3.5.1c.7.2 1.3.6 1 1 0 .1-2.4.2-3.3 0zm54.5-.1c-.3-.4.3-.6 2-.7h2c0-.1 0-.3-.3-.5-.7-.4-.5-.5 1.8-.9 1-.1 1.7-.2 1.9 0 .3.3 0 .6-1.3.7-.8.2-1.1.3-1.2.7 0 .3-.2.6-.4.7-.4.3-4.3.3-4.5 0zm9-.2c-.4-.3-1-1.3-1-1.7 0-.4.8-.3 1.2.3.2.3.7.5 1.2.6 1.4.1 1.3.8-.1 1l-1.4-.2zm-75.5-.5c.1-.7 1.2-1.1 3.5-1.3 1.5-.1 2.3-.1 2.7.1 1 .5.7.8-1 .8-2.2 0-3.5.2-4.2.5-.8.4-1.1.4-1-.1zm30.6.2c0-.3 2.2-.6 3.8-.6 1 0 1.5.4.8.6-.6.3-4.6.2-4.6 0zm78.5-.2c-.6-.3-1-1-.6-1s1.8.7 1.8.9c0 .4-.5.5-1.2 0zm27.6.2c0-.2.4-.3.8-.3.5 0 .8.1.7.3l-.8.2c-.4 0-.7-.1-.7-.2zm-140.5-.4c0-.5 2.3-1.3 2.8-1.1.6.2.3.6-.9 1-1.1.5-1.9.6-1.9 0zm99.4 0c-.8-.2-2-.6-2.6-1a8 8 0 0 0-1.6-.5c-.5 0-1.4-.8-1.2-1 .3-.2 1.7.2 2.7.9l1.4.6c1.2 0 3.5.7 3.4 1-.1.3-.6.3-2.1 0zm34 0c0-.3.2-.5.6-.4.3 0 .6.2.6.4 0 .1-.3.3-.6.3-.4 0-.6 0-.6-.3zm-173-.4c0-.6 3.4-1.9 4.4-1.6 1 .2.8.9-.4 1.1l-2.3.6c-1.5.5-1.8.5-1.8 0zm188 0c-.9-.2-1.2-.5-.7-.7.6-.2 2.1.2 2.3.6 0 .3-.6.4-1.7.1zm-152-.5c0-.6-.6-.9-1.5-.9-.6 0-1.1-.5-.8-.9l1.2-.1h1v-1c0-1.5.6-3.3 1-3.5.3 0 .4.2.2 1.6l-.2 3.5v1.8H41c-.3 0-.5-.2-.5-.5zm15.4 0c-.3-.3-.9-.7-1.3-.8-1-.4-3.4-.4-4.3 0h-.9c-.5-.2 0-.8.9-1 1.6-.3 1.7-.4 2.4-1.9.9-1.8 1.2-3.7 1.2-5.8V6.9c.3-.2.3-.6 0-.6l-1.2 1c-.6.6-1.2 1.1-1.4 1.1-.7 0-.2-.8 1.3-2 2-1.7 2-2.1 0-2.2-1-.1-1.5-.2-1.5-.5s.4-.4 1.5-.5h1.5l.1-1c0-.7.2-1 .5-1 .4 0 .4.1.5 1.5 0 .6.1.7.8.7.5 0 .8.1.8.2 0 .4-.6.9-1.2.9h-.7l.1 1.2.1 1.2.7.2c1 .3 1 0 2-2.5 0-.3.2-.4.4-.2s.1.7-.2 1.7c-.5 1.4-1.8 4-2.3 4.6a1 1 0 0 0-.2.6l-.4.8c-.5.6-1.5 3.7-1.3 4 0 .1.4.3.9.4 1 .2 2.3 1.6 2 2-.3.2-.5.1-.8-.2zM55.7 9c.7-1.2.7-1.2 0-1.2H55V10l.7-1zM189 18.3c-.5-.5-.5-1.1 0-1.1.4 0 1.2 1.2 1 1.4-.3.3-.6.2-1-.3zm-110.8-.2.2-.5.2-.6c0-.5 0-.5 5-1.3l4-.6c1.5-.5 6.6-.5 7.1 0 .4.2 1.5.3 4.1.3 4.7.1 7.2.4 7.2.9 0 .4-3.2.5-6.3 0-2.5-.3-3.5-.1-3.5.6 0 .3-.1.5-.4.5-.7 0-1.7-.7-1.7-1.3 0-.4-.2-.5-.8-.5-.9 0-1 .2-.4 1 .5.6.5.8 0 .8-.3 0-.7-.3-1-.6-.5-.8-1.7-1-1.4-.3l.3.8c.2.3 0 .4-.4.4-.6 0-1.8-1.1-1.8-1.7 0-.5-.5-.5-1-.2-.6.3 0 1.4.7 1.4.3 0 .5 0 .5.2 0 .9-2 .4-2.3-.5-.1-.6-.7-.8-1.2-.6-.6.2-.5.6 0 .6.6 0 1 .5.8.7 0 0-1.2 0-2.5-.3-3-.5-3.5-.5-3.5.1 0 .4-.2.6-.5.6s-.6 0-.7.2c-.2.4-.7.4-.7 0zm54.6.1c0-.4 2.1-1.4 2.4-1 .2.1-.1.4-1 .8-1.4.6-1.4.6-1.4.2zm-74.9-.5c-.9-.6-1-1-.4-1.2.4-.2 2.5 1 2.5 1.5 0 .4-1.2.2-2-.3zM185 18c-.2-.4 0-1.4.4-1.4.2 0 .3 0 .3-.2s-.4-.3-.9-.3-1 .2-1.3.7c-.7.8-1 .8-1 0l.1-.8-1.6-.2c-.8 0-2.5-.4-3.8-.6l-2.2-.5-.5.6c-.6.6-.9.5-1-.4-.2-.6-1-.8-1.4-.3-.3.6-1 .6-1 0 0-.3-.2-.6-.6-.7-.8-.2-1-.2-1 .2 0 .9-1.3.6-1.6-.4a20 20 0 0 0-5.7-.6c-.1 0 0 .2.4.3.7.2.8.9 0 .9a4 4 0 0 1-2.4-1.1c-.3-.3-.8-.5-1.5-.5-1 0-1.1.1-1 .5.2.8-.5 1-1.2.3-.3-.3-.8-.6-1.2-.6-.3 0-.9-.1-1.2-.3-.9-.4-1.2 0-.7.6.2.5.2.7 0 .9-.2.2-.6 0-1.4-.9l-1.1-1.2h-2.4c-1.3 0-2.8.2-3.3.3-.7 0-1 0-1.2-.2-.5-.7.6-1 4.1-1.1h2.2l.8-1.5c.4-.8.7-1.7.7-2 0-1.4-4.1-3.8-6.6-3.8-1 0-1.6-.4-1-.7 1.6-.5 5.8.9 7.9 2.8 1.4 1.2 2.7 1.5 3.6.9.7-.5 3.4-.6 4.8-.1a7 7 0 0 0 1.7.3c.4 0 .8.2 1 .5.8 1.5 1.8 1.6 4.6.7 1.1-.3 2.2-.9 3-1.6 1.2-1 1.9-1.4 3-1.6l2-.4c1.2-.3 1.5-.3 1.9 0 .3.3.6.4.7.3.1-.2.7-.3 1.2-.4.5 0 1.2-.3 1.5-.6.7-.8 1.5-.9 1.3-.2 0 .3-.4.6-.8.7a4 4 0 0 0-2.1 1.9c0 .2-.4.4-.7.4-.3 0-.6.1-.7.3l-.3 3.4-.1 3.5c0 .5.2.6 1.9.9l5.3.7c2.5.2 3.4.4 3.4.6 0 .3-.3.4-1 .4h-1l-.2.8c-.3.9-.8 1.3-1 .8zm-8-4.7.2-3.1.1-2.8c.1-.2 0-.7-.1-1-.3-.8-.5-.9-1.3-.9-1.4 0-2.8.6-3.8 1.5-.8.5-1 .8-.7 1 .4.6 0 1-.9 1-.5 0-1.3 0-1.9.2l-1 .2.6.4a13 13 0 0 1 3.2 2.4c0 .1-.4.2-.8 0-.5 0-.8 0-.9.3-.2.6.1.7 3 1.1 3.6.5 4 .5 4.2-.3zm-3.8-2.3c0-.4 0-1 .2-1.5.2-.7.5.2.4 1-.1.8-.5 1.2-.6.5zm1.5-.8c-.5-.7-.9-3-.5-3 .3 0 1.2 2.6 1.1 3.2l-.1.6zm-5.7 2.1c.3-.8-.8-2-2-2-.5 0-1.1-.2-1.4-.4-.2-.2-.7-.4-1-.4-1.2 0-1.4 0-1.9-.9-.4-.8-.7-.9-2-1-1.7-.3-4-.3-4.7 0a4 4 0 0 1-1.8.2l-1.2-.2-.7 1.4c-.9 1.5-1 2.3-.3 2.4l2.7.3h2.3v-1c0-1.3.7-2.7 1.2-2.4.1.1 0 .4 0 .8l-.6 1.7-.2 1 1 .1.9.1.9-1 1.1-1.7.5-.6c.7 0 .6.7-.3 2a7 7 0 0 0-.8 1.4l1.5.2c1.3 0 1.5 0 1.5-.4 0-.6.7-1.5 1-1.3l-.2 1c-.1.3-.2.7-.1.8l1.9.3 2.1.2c.2 0 .5-.2.6-.6zm-14.7-2c-.2-.7 0-1.5.4-1.5.3 0 .4.3.3.7 0 .9-.5 1.3-.7.7zM60 17.4c0-.3 1-1.7 1.4-2 .3-.2.7 0 .7.3 0 .2-.3.6-.8 1-.7.9-1.3 1.1-1.3.7zm38.8 0c-.2-.4.5-1 .9-.7.4.3.3.9-.3.9l-.6-.2zm12.2-.2c-.7-.4-1-1.2-.5-1.2.6 0 2.3.8 2.3 1.1 0 .5-1 .6-1.8 0zm-74.6-1c0-.8.7-1.3 1.2-.8.2.3.2.5 0 1-.5 1-1.2.9-1.2-.1zm-2.4.4-.2-.9c0-.4-.2-.8-.4-1-.6-.5-.5-1.6 0-1.6 1 0 2 1.3 1.8 2.2-.2.8-1 1.6-1.2 1.3zm85-.1c0-.2.4-.7.9-1.2l.8-1-.9.2-1.3.2c-.2 0-.5.3-.6.8-.4 1-1 1-1 0V15l-1.3.1c-1.7.1-2.2.3-1.6.6.3.2.5.5.5.7 0 .6-.9.3-1.2-.4l-.3-.6-1.1.2c-.7 0-2 .3-3 .6-1.8.4-2.7.4-2-.2l.8-.4c.6-.2 6.7-1.2 9.4-1.5 4-.5 9.4-1.3 11.3-1.7 3.6-.9 3.8-.9 4-.6.4.4 0 .8-.8 1-.2.1-.4.5-.4.8 0 .8-.7 1.7-1 1.4-.2 0-.3-.5-.3-1v-.8h-.6c-.4 0-.8.2-1 .8-.7 1-.7 1.4 0 1.4s.5.6-.4.8c-1 .3-1.5-.3-1.3-1.4.1-.7 0-.8-.3-.6l-1.1.2c-.5 0-.8.2-1.1.9-.2.5-.6 1-.8 1-.5 0-.7-.9-.4-1.2.5-.5.4-1-.3-1-.5 0-.8.2-1 .9-.6 1.3-2.6 2.6-2.6 1.7zm-72.5-.2c-.3-.2-.3-.4 0-.8.1-.3.4-1.5.5-2.6.2-1.2.5-2.8.8-3.7.4-1 .4-1.6.2-1.8-.1-.3 0-1 .5-2.7l.6-2.7c0-.2-.3-.6-.8-.7-.4-.2-.7-.5-.7-.8 0-.3.1-.4.8-.2 1.6.3 1.9.6 1.7 1.6-.1.6-.5 2-1 3.2l-.7 2.2.5.1c.4.2.5.3.3 1.3 0 .6-.4 1.4-.6 1.8-.3.4-.6 1.3-.7 2.3-.3 3.5-.5 4-1.4 3.5zM8.8 15.2l-.7-1.4-.2-.7-.6.5-.5.5-.5-.6c-.2-.3-.7-.6-1.1-.7-.4-.1-.8-.4-.8-.6 0-.3.2-.3 1-.2l1.1.2.3-.6c.3-.6.1-1-.9-3.2C5 6.6 4.8 6 5 5.6c.5-.5 1-.4 1.3.4l1 2 1 3.2.4 1.9h1.7c2 .1 2.2.2 2.2 1 0 1.6-2.9 2.5-3.8 1zm2.4-1c.2-.3-.4-.5-1.2-.3-.5 0-.6.2-.3.4.5.3 1.3.3 1.5 0zm122.3 1.2c0-.2.2-.3.4-.3.7 0 .7-.6 0-1.4-.3-.5-.6-1-.6-1.4l.1-.6 1.3.1c1.6.1 2.1.5 1.1.9-.7.2-1 1-.3 1l.7.4.6.3c.5-.2.8.3.4.6-.6.5-3.7.7-3.7.4zm-129-.6c-.7-.3-.8-.9-.2-1.3.3-.3.5-.2 1.2.4 1 1 .5 1.5-1 .9Zm57-.4c-.4-.4-.2-.9.5-1 1 0 1.5-1 3-4.4l1.2-2.5v-3c0-2.9.3-3.6 1-2.5.2.6.2 1-.2 4.4L66.6 7l-.2.8c.3.3.7-.2.7-.6 0-.2.6-1 1.2-1.8.7-.7 1.3-1.6 1.4-2 .2-.6.9-.7.9 0 0 .5-.5 1.3-1.6 2.6-.5.5-.7 1-.6 1.3 0 .4-.3.7-1.2 1.3l-1.4.7-1 2.2-1.4 2.4c-.5.4-1.7.7-1.9.5zm131 0c-.4-.4-.2-1.1.9-3.3L195 7c.8-2 1-2.5 1.4-2.1.2.1 0 .7-.3 1.4a201.8 201.8 0 0 0-3 7.5c0 .6-.4.9-.7.6zm-54.3-.5c-.2-.3-.6-.4-.8-.4-.4 0-.7-.7-.5-1h.6c.2 0 .6-.3.8-.5.5-.4 4.7-1 5.1-.7.2 0 0 .3-.2.5-.3.2-.4.5-.3.9.2.4 0 .5-.5.5-.4 0-.7-.2-.8-.4-.1-.3-.6-.4-1.7-.4s-1.4 0-1.1.3c.4.4.4 1.2 0 1.4 0 .1-.4 0-.6-.2zm6.5-.5c0-.5 1.3-.8 2.6-.7.6 0 1 .2 1 .5s-.5.4-1.9.5c-1.4 0-1.7 0-1.7-.3zm52.5 0c-.1-.4-.3-.5-.6-.4-.4.2-.4 0-.2-.9a29.6 29.6 0 0 1 2-6.5c0-.7.4-1 .8-.7.2.2 0 1-.6 2.4-.9 2.1-1 3.6-.6 5.4.1.8.1 1-.2 1-.3 0-.5-.2-.6-.4zm-12-.7c-1-.4-1-.4-1-5 0-2.6.3-3.5 1-3.1 0 .1.2 1.3.2 3 0 3.3.5 3.2.6-.2 0-1.5.2-2.1.4-2.1s.4.1.5.3c.2.6-.3 7.4-.6 7.5-.1 0-.6-.1-1-.4zm4.4-.7c0-.3-.2-1-.6-1.3-.6-.7-1-1.9-1-3.5 0-.7.1-.9.5-.8.4 0 .5.4.6 1.6l.4 2.1.2.5.4-.6c.2-.4.3-1.5.3-2.7 0-2 .2-2.8.6-2.8.3 0 .1 4.7-.3 6.7-.4 1.5-1 2-1 .8zm33.5-.2.1-2.6c0-1.4.1-1.8.4-1.8.6 0 .7.4.7 2.2 0 1.8-.4 3-1 3-.3 0-.4-.1-.2-.8zm-209.3 0c-.3 0-1-.6-1.5-1.2-.5-.7-1-1.1-1.4-1.1-.6 0-1.3-.6-1-.9l.7-.2c.6 0 .6-.8 0-1.4-.4-.3-.7-.7-.8-1 0-.4-1-1-3.4-2.5-.9-.6-2.7-1.4-3-1.4C3 2 2.4.9 2.7.4c.2-.6.8-.5 2 .5 1.5 1 2.4 1.5 2.5 1.4.1-.1 0-.5-.2-1-.5-1-.6-1 0-1 .1 0 .5.3.7.7a22 22 0 0 0 2.1 2.3c1.6 1.6 2 2.5 2.4 4.4.2 1 1.3 2.2 2.1 2.4.5 0 .6.3.6 1 0 1-.3 1.1-1.1.8zm15.8 0c-.5-.4-.5-.6-.3-.7.5-.3 1.9.2 1.9.7 0 .5-.8.4-1.6 0zm170.5 0c-.3-.7.5-6 .9-6.2.3-.1.3.4.2 2.7a36 36 0 0 1-.4 3.4c-.1.5-.5.6-.7 0zM40 10.7c0-1.4.7-3.3 1-2.9.4.3-.2 3.9-.6 4-.3 0-.4-.2-.4-1.1zm-16.2.2c-.8-.7-1.2-.7-2.1-.3-.8.4-1.3 0-1-.6.1-.5 3-1.9 3.7-1.8.7.2.7 1 0 1.3l-.6.2.9.6c.4.3.8.7.8 1 0 .5-.8.4-1.7-.4zm54.6.5c0-.3 2.5-1.1 3.3-1.1.6 0 .5.5-.2.8-1.1.4-3 .6-3 .3zm50.2-.4-2.2-.7c-1.2-.5-8-2-9.8-2.2-3.3-.4-9.8-2-11.3-2.8-2.6-1.5-6-2.4-8.5-2.4-2.1 0-3-.3-2.2-.7l3.6-.2c2.8 0 3.4.1 4 .5a49 49 0 0 0 6 2.9l2.5.6a229.9 229.9 0 0 1 6 1.1l3.4.7 4.5 1c4.3 1.1 6.2 1.7 6.2 2.2 0 .4-.1.4-2.2 0zm51.5 0c-.4-.4-.6-3.8-.2-4 .1 0 .4.8.6 1.8.4 2.3.4 2.5 0 2.5l-.4-.3zm-154.5-.6c-.2-.5 0-1.2.5-1.1.2 0 .3.4.3.7 0 .8-.6 1-.8.4zm112.9-.8c-.3-.5-.3-1 0-2.7.1-1.1.4-2.1.5-2.2.4-.5.5.3.3 2l-.2 1.6 1.5-1.7c.7-1 1.4-1.8 1.6-1.7.4.2.3.5-.7 1.5-.5.6-1 1-1 1.2l-.5 1c-.3.4-.5.9-.4 1.2.2.8-.7.6-1.1-.2zm4.2-.3c0-.4-.2-1-.4-1.3-.7-1-.3-1 1 0 .8.6 1.2 1.1 1 1.3 0 .2-.1.2-.2 0-.2-.5-.9-.4-.9.2 0 .3 0 .5-.2.5s-.3-.3-.3-.7zm39.2.1c-.4-.4-.6-3.7-.3-4.1l.2-.4.2.4.2 1.6.4 2c.1.9-.2 1.1-.7.5zm-48.7-.8c-1.2-3-1.6-4.3-1.4-4.5.3-.3.5 0 1.5 3 .6 1.5.8 2.4.6 2.4-.2 0-.5-.4-.7-.9zm14.3.4c0-1 .5-2.5.8-2.2.4.4 0 2.7-.5 2.7-.2 0-.3-.2-.3-.5zM26.4 8.6c0-1 3-1.6 3.8-.7.7.8.5 1.1-.4 1a4 4 0 0 0-2.4 0c-.8 0-1 0-1-.3zm44-.5c0-.1.4-.8 1-1.5.5-.7 1.2-1.6 1.4-2.2.3-.5.7-1 1-1.1 1.3-.5.9.5-1.4 3.2-1.7 1.9-2 2.2-2 1.6zM192.2 8c0-.6 1.1-3 1.5-3.3.7-.4.6.6-.2 2.1-.9 1.8-1.3 2.2-1.3 1.2zM35.8 8c-.4-.4 0-.6 1-.6 1.7.1 2 .8.4.8L35.8 8zm9-.9-1.2-1 .1-.8c.1-.4.4-.9.6-1 .2 0 .3-.3.3-.5 0-.5.6-.5 1.5 0 .9.3.8.6-.3 1-1 .3-1.1.6-.2 1.9 1 1.4.5 1.6-.9.4zm16.8.5c-.3 0-.6-.3-.6-.5s.5-.3 1.6-.1c1.6.2 1.9.3 1.9.7 0 .3-2 .3-2.9 0zm150.1 0c-.4-.4-.4-.5-.1-.6 1.7-.5 2.8-.3 2.1.5-.4.5-1.3.5-2 0zM136 6.4c-.4-1.6-.4-1.8 0-1.6.2 0 .5.6.6 1.2.2 1.3.2 1.4 0 1.5-.2 0-.5-.5-.6-1.1zM38.6 7c.2-.5 2-.9 2.4-.5.4.4.2.4-1.2.7-1 .1-1.3 0-1.2-.2zm54.5 0c-.3-.1-.6-.4-.6-.6 0-.4-.3-.4-1.4-.4-1.7 0-3-.3-3-.6s2.8-.3 4.2 0c.7 0 1 .2 1 .5s.2.5.7.6c1 .2 1.2.8.3.8L93.1 7zm35-.6c-.4-.6-.5-1.5-.2-1.5.2 0 1.4 1.7 1.4 2 0 .4-.8 0-1.2-.5zm-92.7-.3c0-.4 2-1 3.6-1 .7 0 1.1.2 1.1.4s-.7.5-2 .7c-2.6.4-2.7.4-2.7 0zM60 6.1c0-.2 0-.4.2-.4 2-.6 2.3-.6 2.5-.4.2.3-.4.7-1 .8a5 5 0 0 0-1 .1c-.2.1-.6 0-.7-.1zm-1.4-.8c0-.3.2-.5 1.2-.7.7-.1.9 0 .9.2 0 .4-.8.7-1.7.7-.2 0-.4 0-.4-.2zM39 4.4c.2-.4.8-.5.8 0l-.4.3c-.3 0-.4 0-.4-.3zm2.9-.3c0-.3.2-.4.6-.4.3 0 .6.2.6.4 0 .1-.3.3-.6.3-.4 0-.6 0-.6-.3zm16.6-.6c-.4-.4-.2-.6.6-.6.6 0 .8.1.7.3-.1.4-1 .6-1.3.3zM37.8 3c0-.3 1.1-.8 1.5-.5l.4-.1c.1-.1-.3-.3-.8-.4-2.3-.5-2.5-1.4-.3-1.1 2.3.3 4.7 1.7 4 2.3 0 .1-1.2.2-2.5.2-1.8 0-2.3 0-2.3-.4zm42 .1c0-.6.9-2 1.3-2 .5 0 .4.7-.2 1.5-.6.8-1 1-1 .5zm4.5-.7c0-.5-.1-.6-.8-.5-.6 0-.9 0-.9-.3 0-.9 3-1 3.6-.1.3.3.3.5-.3.9-.8.7-1.6.6-1.6 0zm3 .1c0-.4.7-.8 1-.5.4.2-.2.9-.7.9a.4.4 0 0 1-.4-.4zM43 2.3c-.7-.3-.8-.7-.1-.7.2 0 .5-.2.7-.5.3-.3.5-.4 1.2-.2 1.2.4 1.4 1 .3 1-.4 0-.8 0-1 .3 0 .5-.3.5-1 .1zm19.8 0c0-.6.7-.8.9-.4.1.5 0 .7-.5.7a.4.4 0 0 1-.4-.4zm6.6-1c0-.2.3-.3.5-.3.3 0 .6.1.6.3 0 .1-.3.3-.6.3-.2 0-.5-.2-.5-.3z"/>
</svg>
