<?xml version="1.0" encoding="utf-8"?>
<svg xmlns="http://www.w3.org/2000/svg" xmlns:svg="http://www.w3.org/2000/svg" version="1.1" viewBox="0 0 163 137">
  <title>Peter Rabbit and Benjamin Bunny talk together, next to a snare stuck in the ground.</title>
  <path d="M116 136.4a246.3 246.3 0 0 0-24.9-.9 1164.6 1164.6 0 0 1-26.4-.5l-34.4-1c-11.3-.3-10.9-.3-15.9 0-2 .2-5.8.3-8.3.4l-4.6.1-.4-1c-.4-.7-.5-2-.7-6l-.4-5.3a412.9 412.9 0 0 0 1-29.4l.4-17.2c.2-1.4.3-7.7.3-14S1.8 50 2 49.9L2 26.7c0-12.6.3-23.4.4-24L3 1.4c.2-.1.3-.5.3-.7 0-.3.3-.6.6-.7.6-.1 27.7.2 59.7.8 21.1.3 25.3.4 63.4.5l34.4.2.6.6c.5.6.6.8.4 1-.3.5-.4 4-.4 19.2v10.4c-.4 6.7-.4 20-.1 25.7.2 4.7.2 7 0 9.8-.2 2-.2 6.4-.2 10.6a50.7 50.7 0 0 1-.1 10c.2.4.2 2.5.2 6.6-.2 9.3-.1 21.1.1 29.4.2 6.6.2 7.7-.2 8.4l-.6 1.6c0 .5-.3 1-.5 1-.6.6-30.8 1-44.6.6zm40.6-3.6c.7-.5 1-1 1.5-2.1.5-1.4.5-2 .5-7.3-.2-12.3-.1-51 .1-65.7.3-17.5.4-16.1-1.9-14.7-.8.5-2.7 1.1-6 2-4.5 1-4.6 1-5.5.6-.8-.4-1-.4-3.7.3l-3 1c-.2.1 2.3.2 5.5.1 1.6 0 2.5.3 1.8.7l-3.7.1c-2 0-4.4.2-5.4.3a97.9 97.9 0 0 1-11.7 1c-2 0-2.8 0-3.1-.2-.3-.3-.8-.3-1.7-.2-1.1.1-1.4.1-1.4-.2l.1-.4a30 30 0 0 1 4.4-.6c.2 0 .2.2 0 .5-.3.4-.2.4 1.2.2l5.3-.4c2.9-.2 4.2-.4 5.7-1 2.5-.8 8.8-2.4 9.7-2.4.3 0 .9.1 1.1.3.4.2 1 .1 3.1-.5 1.5-.4 3-1 3.3-1.2.9-.5 2-1 3.8-1.3 2.5-.5 2.4-.2 2.4-6.6 0-3-.1-5.6-.2-5.7-.1-.1-.7 0-1.3.3-.6.4-1.5.7-2 .8l-2.4.6-3.7 1.1c-1.1.3-3.4 1.2-5 2a22.1 22.1 0 0 1-6.3 2.1 41.7 41.7 0 0 0-8.2 2.5l-2.3.7c-1.2.4-3 .7-4.7.9-2.9.3-4.5.6-7.3 1.6-1.2.4-1.8.5-2 .3-.4-.4 0-.8.6-.8l2.2-.7c1.7-.6 3-1 7.4-1.5 1.3-.1 2.7-.4 3-.6.2-.2 1-.4 1.7-.6.6 0 2-.5 3.1-.9s3-1 4.4-1.3a21 21 0 0 0 3.1-1c.4-.2 1-.3 1.3-.3.6 0 3-1.2 3.3-1.6 0-.2.5-.3.9-.3s1-.1 1.2-.4c.5-.3.5-.3-.1-.9-.6-.4-.8-.4-1.1-.1-.6.5-1 .5-1-.2 0-.6-.4-.6-.9 0s-2.3 1.4-2.8 1.2c-.4-.1-.3-.2.3-.8 1.5-1.2 3-2 4-2 .5 0 1.8-.4 2.8-.9 1-.5 2.2-1 2.6-1 .9 0 .7.8-.4 1.2-.5.1-1 .5-1 .7l-.7.8c-.2.1-.3.4-.2.5.1 0 .5-.2 1-.7.6-.8 1.2-1 1.4-.6 0 .2.4.2.9 0h1.3c1 .4 1.7 0 2.1-1l.4-.8 1.5.1 2.2.3.7.2.2-2.9v-3c-.1-.1-1.3-.3-2.5-.3-2 0-2.4 0-3.6.6a15.7 15.7 0 0 1-5.7 2.2A51.1 51.1 0 0 0 139 27l-2.6.8-3.7 1c-3.1.6-6.2 2-7.3 3.1-1 1.1-3.1 2.6-4.7 3.4-.8.3-1.9 1-2.5 1.3-.6.3-1.8.8-2.8 1-.9 0-2.4.6-3.3 1-2.1 1.1-6 2.4-6.9 2.3-.5 0-.7 0-.9.6-.2.6 0 1 .8 2.3l1.6 2.7 1.5 2.7c.8 1.2 1 2 1.2 3.7a16 16 0 0 0 1 3.6 35 35 0 0 1 2.7 8.6c1.1 3.8 1.3 4.3 1.4 5.6.2 1.2.1 1.5-.5 2.2-.5.6-.6 1-.5 1.4.5 2.2.7 2.7 1.3 3.4.6.6.7.9.7 3 0 2.7-.3 3.2-2.7 5.5l-1.8 1.7v1.5c0 1-.2 2-.5 2.5l-.7 1.6c-.1.6 0 .6 1 .6.9 0 1.3-.1 1.6-.5.3-.5.6-.6 3.1-.6 1.5 0 3.5.1 4.4.3.8.1 2.8.3 4.3.3 2.2 0 2.7-.1 2.7-.4 0-.4-.4-.5-1.7-.7-.3 0-.4-.2-.4-.4 0-.1 1-.3 2-.3l4.7-.3c3-.3 4.1 0 2.7.5-.6.2-.7.4-.5.5.2.2.8.1 2.2-.2 1-.4 2-.5 2.3-.4l4.3.2c2.2 0 4 .1 4 .2.2 0 0 .5-.4.8-.5.6-.9.7-3 .8-1.8.2-2.7.3-2.8.6-.2.3-.7.4-1.9.4-3 0-7.3.3-7.3.6 0 0 1.3.2 2.9.2 2.7 0 3.6.2 3 .7-.1.2-5.8.4-11.6.4a56.4 56.4 0 0 0-14.3 1.2c-1.6.2-3.5.5-4 .7-.7.3-1.9.4-2.7.4-1.4 0-1.6 0-2-.6-.2-.4-.7-.8-1.1-1-1.4-.4-5.8-.7-7.7-.4-2.4.3-5.2-.2-5.8-1-.3-.6-.2-1.5.2-1.5 0 0 .7-.3 1.3-.8 1.3-.8 3.2-3.3 3.2-4.1 0-.3-.7-1.2-1.9-2.3-1.5-1.4-1.8-1.8-1.8-2.5 0-.5-.2-1.3-.5-2-.3-.8-.4-1.6-.2-3.9.1-2.8 0-2.8-.5-3-.3 0-1-.5-1.4-1-1.1-1-1.2-2.4 0-4.3l1.4-3.6.8-2.4c0-.1-.1-.4-.4-.7-2.8-2.3-3-4-1-8.3l.8-1.8-.6-.4c-.7-.5-.7-1.4 0-1.6.2 0 .5-.3.6-.5.1-.2.3-.4.5-.4.4 0 1.5-1.6 1.2-1.7-1-.4-1.3-1-2.6-5.3l-.8-2.4c-.3-.3-4.5.7-4.5 1.1l.3 1c.2.3.5 1.8.7 3.4.4 3.6.4 3.6-2.4 5a8.2 8.2 0 0 0-2.7 2c-.7.9-.7 1.5 0 .7l.7-.4c.1 0 .3 0 .3-.2 0-.5 3-1.7 3.9-1.6 1 .1 1 .1 1 1.5.1 1.2 0 1.5-.7 2.4-.4.6-.8 1.3-.8 1.6 0 .4-.8 1.7-1.8 3l-2.2 3.2c-.6 1.3-2.3 2.6-3.5 2.8-1 .1-1.1.2-1.4 1.5l-.8 2.5-.7 3.7a8.4 8.4 0 0 1-.9 3.6c-.6 1-.7 1.3-.4 2.2.6 2-.4 5.8-2.3 8.5-1.8 2.6-2.4 3.3-4 4-1.4.8-1.6 1-1.3 1.5.1.3.6.3 1.9.2 2.9-.3 3.4-.2 3.8.3.5.8 1.3.9 1.8.3.6-.7 3.1-.7 3 0 0 .3.1.4 1.1.3.7 0 1.7.2 2.4.4.7.3 1.3.4 1.8.2.8-.3 2.7 0 2.8.3 0 .2-.6.4-1.4.4-1.2.2-1 .2 1.2.2a9 9 0 0 1 2.9.3c0 .2.4.2.8.2.6-.2 1.2.3.5.5-1.3.4-1.3.5-.4.7 1.3.3 5.9-.2 6.3-.8.3-.3.4-.3.5 0l.8.2c.3 0 .6.1.7.3.2.3-.4.5-1.4.5-.4 0-.9.2-1 .3-.4.2.1.3 1.6.2l2.2.1c.1.2 0 .3-2.3.7l-1.2.3h1.2l3 .2c1.6.1 1.8.1 1.8-.3s.2-.5 2.2-.3c1.5.1 2.2.3 2.5.6.2.3 1 .4 5.4.3 4.7 0 5.7 0 5 .4a67.9 67.9 0 0 1-11.9-.2c-.6-.5-2.6-.7-3-.3-.3.4-3.7.6-6.2.2-1.2-.1-1.4-.2-1.6-.8 0-.4-.2-.6-.3-.4 0 .2-.7.4-1.9.4-2 0-3.1.2-2.6.5l1.2.2c.4 0 1 .2 1.1.4.2.3 1.1.4 2.7.5 5.4.4 9.9.9 9.8 1.1-.2.3-5.9.2-7 0-1.3-.3-5-.6-7.8-.6-2.5 0-3 0-2.9-.4.1-.3-.3-.4-1.9-.5-3.7-.3-12.3-.6-12.6-.4-.5.3-4.2.2-4.9-.2l-4.4-2a19.8 19.8 0 0 1-10.2-8c-.5-.9-1.1-1.6-1.8-2a4 4 0 0 1-1.7-2c-.6-1.3-.7-1.6-.4-2.5.2-.6.7-1.8 1.2-2.5a5 5 0 0 0 1-2.3c0-.5.2-1.4.5-2 .4-.8.5-1.5.6-3 0-1.8 0-2.2.6-2.7l2.1-3c2.5-4 3.9-6 4.7-6.7a15 15 0 0 0 4.4-5.7l2-4.2c.6-1.4 2-3.6 2.5-4 .5-.2.5-2.4.1-3-.5-.7-.5-1.4 0-1.4.1 0 .1-.1-.1-.4a9 9 0 0 0-2.8-.6 31 31 0 0 1-5-1.3c-1.5-.5-3-1-3.4-1-.8-.2-.8-.2-.6.6.1.7 0 .8-.2.8-.3 0-.5 0-.5-.2s-.2-.3-.6-.2c-.8.2-.9 0 0-.6l.5-.5-.7-.1-3.4-.7c-5.1-1-6.6-1.4-6.6-1.7 0-.2.5-.2 2.6.2 1.4.3.9-.4-.8-1-1-.3-1.5-.3-1.9-.1-.3.1-1.3 0-3.3-.5-1.5-.4-2.8-.6-2.9-.5-.2.1 1.1.7 1.7.7.4 0 .8.4.5.7 0 0-.7 0-1.4-.3-.9-.3-1.4-.3-1.8-.1-.3.2-1 .1-2 0-2-.4-6.3-.7-5-.3l3.4.5c3 .3 4 1 1.2.7-7.2-.7-12.5-1-12.5-.7 0 .2 3 .7 7.8 1.2l5.5.5c1.2.2 1.5.1 1.5-.2 0-.4.3-.5 1.4-.4 2 0 9.9 1.4 9.7 1.7-.2.3-.7.2-3.7-.3-4.2-.7-6.4-.9-6.8-.4-.4.4-1.7.3-7.2-.3a64 64 0 0 0-12.4-.5c-.8 0-1.1.1-1.1.4 0 .2-.1.4-.3.4-.1 0-.3-.2-.3-.4s-.2-.4-.6-.4c-.3 0-.8 0-1.1-.2-.4 0-.6 0-.6.2 0 .1.3.3.7.3.7.1 1 .6.7 1.2-.3.4-2.6.6-3 .3-.3-.1-.3-.3 0-1 .6-1 .6-1-.1-1-.4 0-.8-.2-.8-.3V38c.2 0 .3 0 .3-.2 0-.3-.7-.6-1.9-.8-.4-.1-.7-.3-.7-.4 0-.2.9-.3 2.3-.2 1.6 0 2.3 0 2.5-.3.1-.2.8-.3 2.3-.2 1.4 0 2 0 1.7-.3-.1-.1-1-.2-2.2-.2H6.9l-2.6.1.2 2.2c.7 8.6.6 47-.2 57.9a233 233 0 0 0-.3 17.7l.2 3.2 1 .3c.7.2 1 .2 1.2-.1.3-.4 1-.4 2 0 .4.2.5.2.4 0-.3-.5.3-1.7.7-1.7.5 0 1 .7.8 1.1-.6 1 .2 2.6 1.1 2.6.7 0 .7 0 .3-.5-.3-.2-.4-.5-.4-.6 0-.3.9-.2 1.2.1.5.5.4-.2-.3-2.5a31 31 0 0 1-1-3.7c0-.9-.4-1.8-.6-2-.3-.4-.3-.5 0-.8l.6-3c.2-1.9.5-3.2 1-4.2.3-.8.6-1.8.6-2.2 0-.4.3-1 .5-1.5.5-.6.7-.7 2.6-.7 2 0 2 0 2.5.8.8 1.4.5 3-.5 3-.7 0-1 .5-.6 1 .5.6 1 2.4 1 4.6l.2 2.3h1.1c.7 0 1.2 0 1.3-.3.2-.5 1.7-.8 3.8-1 1.6 0 1.8 0 1.7.4 0 .7 1 .6 1.2 0 0-.3.5-.7 1-.8a26 26 0 0 1 5-1c.4.3-.2.7-1.8 1-3 .5-3.6.7-3.4 1.2 0 .3.6.4 3.2.3h3l2.6-1.3c2.5-1.2 3.7-1.6 3.7-1l-.6.4c-.3 0-1.2.5-2 .9l-1.5.7H38c.7.2 1.3.3 1.3.5 0 .5-1.8.7-6.8.7s-5.2 0-7.5.7c-2.3.8-4 1-4 .6 0-.2-.4-.3-.9-.3s-1-.1-1-.3c-.5-.6-.7 0-.7 1.6l-.4 4.1c-.5 3-.5 3 .2 2.9.3-.1.7 0 .9.3.3.5.4.5 1.4-.2 1.2-.8 1.6-.9 1.6-.4 0 .2 0 .2.3 0 .5-.5 1-.4 1.6.2.7.6.5 1.2-.5 1.6-1 .4-1.4.3-1.4-.1 0-.5-.1-.5-.8-.2-.3.2-.5.4-.4.6.7 1-1.8.6-2.7-.5l-.6-.7-.2.7-.4 1c-.1.3-.4.5-.7.5-.5 0-2.4-1.6-2.4-2 0-.2-.3-.4-.6-.4-.5 0-.5 0-.1.5.6.7.5.9-.2.9-.3 0-.8-.3-1-.6-.4-.3-.8-.5-1.1-.5-.3 0-1-.2-1.6-.5a5 5 0 0 0-1.9-.6h-.8l1 .6c.4.3.7.6.6.8L6 120H4v3c-.2 2.7-.2 3.2.3 4.5.8 2.1 1.7 2.8 3.9 2.8a100.4 100.4 0 0 0 10.4.6 1152.3 1152.3 0 0 1 28.7 1.2c1.3 0 1.3 0 .4-.3l-2.8-.4c-2.4-.2-2.4-.6 0-.7 1.2 0 1.8 0 1.5-.1-1.3-.3-.4-2.5 1-2.5.6 0 1.2-.6.8-.9l-1 .1c-.9.3-1.4.1-1.4-.4s3.2-.8 4.2-.4c1 .5 1.2 1 .5 1.8-.4.5-.8.6-1.8.6-1.1 0-2.5.5-1.6.6l2 .1c.9.1 2.7.2 4 .1 2 0 2.5 0 2.7.4.1.3.2.7.1 1 0 .4 0 .5 1.5.5.8 0 1.7-.2 2-.3.5-.1.4-.2-.3-.5-.4-.1-1-.5-1.1-.8-.2-.3-.5-.5-.7-.5-.3 0-.7-.2-1-.4-.2-.3-1.1-.6-2-.8-1-.2-1.8-.5-1.8-.7-.1-.3.3-.3 2.2-.1 1.2 0 2.6.3 3 .4.4.2 2.2.3 4 .3 2.9 0 3.3.1 3.4.5 0 .4-.3.7-1.2 1l-1.2.6.8.5c.6.4 1.3.5 2.8.5 1.7 0 2 .1 2.6.6.7.6 1 .7 6.6.9 3.2.1 7.2.2 8.8.1 7.4-.2 38.9 0 39.2.3l16 .1h16zm-86.9-1.5-2-.4c-.8 0-1.6-.6-1.2-.9.2-.2 4.6-.2 6 0 1 .2 1.3.8.3 1.1-1.2.5-2 .5-3 .2zm16-.7c-.1-.3 3-2.1 3.6-2 .7 0 .4.5-.8 1.1-1.7.9-2.6 1.2-2.8 1zm6.2-.3c-.8-.7-1-1.3-.4-1.3.5 0 2 1.2 2 1.6 0 .5-.8.3-1.6-.3zm-10 .1c0-.3 1.8-1.1 2-1 .2.4.1.6-.6 1-.7.3-1.4.3-1.4 0zm14.7-.6v-.3c.4-.2 1.4 0 1.4.4 0 .3-1.2.3-1.4 0zm-19.1-.2c-.4 0-.6-.3-.6-.6 0-.5 0-.6 1.5-.4 1.5.1 2 .4 1.8 1-.2.2-1.5.3-2.7 0zm-36.8-2c-1.2-.3-2-.6-2-.9 0-.2.3-.3.7-.3.8 0 3.7 1.1 3.7 1.4 0 .4-.4.4-2.4-.2zm-13.8-1c0-.3.2-.5.5-.5s.5.2.5.4-.2.4-.5.4-.5-.2-.5-.4zm18-.7c0-.4 1.6-1 2.5-1.2 1.3 0 .9.7-.6 1-1.6.5-2 .5-2 .2zm-23.7-.2c-.2-.4 1.2-1 1.5-.7.4.4.2.5-.6.7h-.9zm11-.4c0-.1 0-.2.2-.2s.3 0 .3.2-.1.3-.3.3a.3.3 0 0 1-.2-.3zm8.6-.3-2.6-.2c-1.3 0-1.5 0-1.5-.4s.3-.5 2.8-.3c2.5.1 3.5.4 3.5 1 0 .3-.8.2-2.2 0zm-23.2-1c-.3-.2-.3-.3 0-.6.2-.2.3-.2.6 0 .4.4 0 1-.6.6zm4.4-.5c-.2-.4.9-1 2.4-1.5 1.4-.4 2-.8 1.8-1.2l-.7-.2c-.3 0-.5-.2-.5-.4 0-.3.3-.4.6-.4.8 0 3.7-1 4-1.4.5-.5 1-.3.9.4-.1.4 0 .7.1.8.5.1 0 .7-.7.7-1 0-2.3.8-2.1 1.3.2.5-.3.8-1.5.8a9 9 0 0 0-2.5.7c-1.8.7-1.6.7-1.8.4zm8.4 0c-.6 0-.9-.2-.9-.4 0-.3.3-.4.9-.4 1.2 0 2 .3 2 .7 0 .3-.3.4-2 .1zm29.5-.2-3.2-.3c-1.7-.2-3.3-.4-3.5-.6-.3-.2-.8-.3-1.6-.1-1 .1-1.2 0-1.2-.2 0-.5.7-.6 4.6-1a35.5 35.5 0 0 0 5.1-.7c.4.3-.4.7-2 1l-1.6.5c0 .1.5.3 1.2.4 1 .1 1.3 0 1.5-.2.4-.5 3.8-1.2 4.1-1 .3.4-.4.7-1.7 1-1 0-1.9.6-1.2.6.5 0 .4.4 0 .6h-.5zm6.5-1.7c-.2-.3.6-.5 2.4-.5 1.8 0 2.8.2 2.8.6 0 .3-5 .3-5.2 0zm-34.8-.6c.2-.3.6-.4 1-.5.6 0 3-1 2.4-1-.2 0-.5-.1-.6-.3-.3-.4.7-.6 1.3-.2.5.2 1 .2 2 0s1.4-.1 1.7.1c.3.3 1.1.4 3 .4 2.1 0 2.7 0 3 .4.3.4.7.4 2 .3 1.7-.1 3.5 0 3.5.3 0 .4-2.6.7-4.7.6-1.8-.1-2.3-.2-2.3-.5 0-.4-.4-.4-2.2-.3-1.3 0-2.5.2-2.9.3-1 .3-1.6.3-1.6-.2s-.4-.5-2.7.3c-2.3.8-3.4.9-2.9.3zm-7.5-3.2c-.3-.4.1-.7.8-.7.4 0 .6.1.6.4-.1.3-1 .5-1.4.3zm45.1-1.2c0-.3.4-.4 3.8-1 1.6-.2 3.1-.5 3.3-.7.6-.5 3.4-2 3.7-2 .2 0 .3.2.3.4s-.4.5-1 .7c-1 .3-1.3.5-1 .8 0 0 1 0 1.9-.2 1-.3 1.9-.3 2-.2.2.2.7.3 1.1.4 1.5.4.5.8-2.4.9-2.5 0-3 0-3.2-.4-.2-.4-.3-.4-.9.1-.9.8-7.6 1.9-7.6 1.2zm21.9 0c-.1-.1-.1-.3 0-.4.4-.2 7.1-.7 7.6-.5 1 .4.2.6-2.6.7l-4 .4c-.5 0-1 0-1-.2zm-69.9-.4c-.4-.4.2-.7 1.6-.7 1.5 0 2.2.2 2.2.6 0 .3-3.5.3-3.8 0zm72.2-.9c-.2-.3.2-.7 1.1-1.2.9-.4 2-.6 2-.2 0 .3-3 1.6-3 1.4zm-5.4-.5c-.2-.2-.3-.4-.2-.5.2-.2 4-.6 4.4-.4.7.2.1.5-1.6.8-2.1.4-2.1.4-2.6 0zm-27.5-.8c0-.2 0-.3.2-.4.4-.3 4.6-1 4.9-.8.4.3-.3.6-1.8.9l-2.5.4c-.5.1-.8 0-.8-.1zm-7.6-2.1c-.2-.5.7-.8 2.2-.8 1.5 0 2 .3.7.6-2.1.4-2.7.4-2.9.2zm-10.1-2c-1-.2-1.3-.4-.9-.7.5-.3 2.5.2 2.4.6-.2.4-.5.4-1.5.2zm-37-1.6c-.4-.3-.6-.6-.5-.7 0 0 1.2-.2 2.5-.2 1.9 0 2.4 0 2.4.3 0 .2-.4.4-1.1.5l-2 .3c-.5.1-1 0-1.3-.2zm17.4-2c0-.3.6-.4 2.7-.7 1.9-.2 1.5.3-.4.6-2 .4-2.3.4-2.3.1zM49 102c-.1-.1 0-.3.3-.4l1.4-.5c1.3-.5 2-.5 1.8 0 0 .1-.7.5-1.4.7-1.6.6-2 .6-2.1.2zm-8.6-.4c0-.3.1-.4.6-.3.3 0 .5.2.5.3 0 .2-.2.3-.5.4-.5 0-.6 0-.6-.4zm5.3-.6c.1-.4 2.5-1.1 3.3-1 .4 0 .2.2-.6.6-1.4.6-2.9.8-2.7.4zm-1.8-.9c0-.4.7-.4.7 0 0 .1-.2.3-.4.3-.3 0-.4 0-.3-.3zm42.4-2c-.3-.2.1-.6.8-.6.7 0 .8.4.2.7-.5.2-.8.2-1 0zm60-2.9c-1.7 0-3-.2-3-.3 0-.3 1.4-.5 4.5-.4 2.3 0 2.8 0 2.8.4 0 .5-.2.5-4.3.3zm-107.5-2-1.7-.3c-.8-.1-1.2-.3-1.3-.6-.1-.4-.4-.5-1.8-.5-1.8 0-2.1-.2-2.1-.8 0-.3.2-.4.8-.2l2.3.1c1.2 0 1.5.1 1.6.6.1.6.9.6 3.4.2 2-.4 2.8 0 1.3.6l-1 .7c-.2.3-.7.3-1.5.2zm82-.4c-2.4-.4-3-.7-2.4-1 .6-.2 6 .8 6 1.2.2.4-.4.4-3.5-.2zm-96-.1c0-.3.2-.4.8-.4l2.2-.2c.8-.1 1.2 0 1.2.1 0 .4-.5.5-2.6.7-1.4.2-1.7.1-1.7-.2zm18.1.2a.9.9 0 0 1-.2-.6c0-.4 1.3-.4 1.5 0 .3.5-.9 1-1.3.6zm104.8 0c-.4-.5-.1-.6 1.6-.7l3-.4c1-.1 1.3 0 1.3.3 0 .2-.4.4-1 .5-1.6.3-4.7.5-4.9.3zm-7.3-1.6c-1-.2-1.1-.6 0-.6l1.5-.2c.7-.1 1.7.2 1.4.5-.3.2-2 .4-2.9.3zM24.3 90c-.7-.3-.3-.9 1-1.3l2.6-1 1.2-.4c.3.3-.3.9-1.4 1.2-.6.2-1.1.5-1.1.6 0 .1.5.3 1.2.4.6 0 1.2.3 1.2.4 0 .2-4.1.3-4.7 0zm-6.5-1.5c0-.1-.5-.4-1-.4-1.6-.3-1.3-.7.5-.8 1.1 0 1.5 0 1.8.3.3.4.7.5 2.3.4 2.1-.2 2.8 0 1.6.5-1 .4-5 .4-5.2 0zm13.8-4L31 84c0-.4 1-.6 3.1-.6 1.5 0 2 .1 2 .4 0 .3-.3.4-.8.4l-2 .1h-1.8zm-5.8-.6c0-.2.5-.5 1.5-.7.9-.1 1.7-.4 1.8-.5.3-.3-.1-.3-2.8.2-.7.1-1 0-1-.1 0-.2.4-.4 1-.6l2.5-.7c1.8-.4 1.8-.4 1.8 0 0 .6-1.6 2-2.9 2.4-1.5.5-1.9.5-1.9 0zm-7.6-.8c0-.2-.4-.3-1-.2-1 .2-2 0-1.5-.5.4-.4 2-.5 2.5 0 .3.2.8.3 1.8.1 1 0 1.3 0 1.3.3 0 .7-2.8 1-3 .3zM128 72.7c-.3 0-.5-.2-.5-.3.1-.1 1.3-.3 2.7-.3 2 0 2.5.1 2.4.4 0 .3-3 .4-4.6.2zM20.8 70.1c-.4-.2-.4-.6 0-.6.3 0 .7-.2 1.1-.5.4-.3.8-.5 1-.4 1 .6-.9 2-2 1.5zm56.5-.8c-.3-.5.1-.5 3-.6 3.4 0 3.4 0 3 .2-.3.4-5.8.7-6 .4zm-45-1.3c-.4-.4.3-.6 2.5-.6 2.4 0 3.3.1 3 .5-.1.3-5.2.4-5.5.1zm88.1-.6c-.1-.2 0-.4.2-.4.6-.3 4.3 0 4.3.2 0 .4-4.3.5-4.5.2zm6.6 0c-.2-.4.1-.5 2.2-.7 1.4-.1 2-.1 2 .1 0 .4-.4.5-2.4.7l-1.8-.1zm5.5-.5c-.5-.3.1-.8 1.2-.9 1.2-.1 1.4.4.3.8-1 .4-1 .4-1.5 0zm-53.6-.5c-.2-.4.3-.5 2-.6.7 0 1.7 0 2.1-.2.5 0 .7 0 .7.3 0 .2-.3.4-1 .5-1.4.3-3.7.2-3.8 0zM22.7 66c0-.1 0-.3.2-.3a123.5 123.5 0 0 1 19.3-.2c0 .1-.2.3-.5.4-.9.3-18.8.4-19 .1zM44 65c0-.1 0-.3.2-.4 1.9-.6 2.6-.7 4.7-.7 1.4 0 2.4 0 2.5.2a52.3 52.3 0 0 0-6.6 1c-.3.1-.7 0-.8 0zm37.6 0c.2-.2.8-.4 1.4-.5 1 0 1.1 0 1.1.3 0 .4-.3.5-1.4.5-1 0-1.3-.1-1-.3zM21 63c0-.2 8.4-2 9.4-2 .2 0 .4.2.4.4s.2.3.8.2c2-.3 8 0 8.6.4.2.2 1.3.4 2.4.4 1.2 0 2.1.2 2.1.4 0 .3-5.1.4-5.8 0-.4-.1-1.3-.2-2.4-.1-1.3 0-1.8 0-2-.2-.4-.4-.8-.4-3.1 0-2 .3-2.8.3-3.3 0-.5-.1-1.2-.1-2.8.2-2.3.5-4.3.6-4.3.2zm-7.1-.6c-.2-.2-1-.3-2-.3-1.4 0-2-.3-.9-.7h4.8l6.8-.2c3.7-.3 2.8.2-1.5.9-3.8.6-6.6.7-7.2.3zm-7.3-.8c-.2-.4.2-.5 1.8-.6 1-.1 1.3 0 1.3.2s-.2.4-.5.5c-.6.2-2.4.2-2.6-.1zm109.6-.5c-.3-.4.2-.6 2.4-1.1 2-.5 2.7-.5 2.7 0 0 .2 4-.6 5.8-1.2.7-.2 1.4-.4 1.6-.3l3.5-1.1c2.4-1 3.2-1.1 3.5-.9.4.4 0 .6-1.7 1.2l-3.8 1.5c-1.8.7-3.1 1-4 1-.7 0-2.4.3-3.7.6-2 .4-2.4.4-2.7.1-.4-.3-1.3-.2-3 .3l-.6-.1zM6.4 60c-.4-.5.3-.7 2-.7 2 0 2.6.3 1.6.7-.5.2-3.4.2-3.6 0zm45.9-4.6A106.2 106.2 0 0 1 35 52.9l-3.2-.4c-4.8-.3-8.2-.7-9.3-1-1-.4-1-.5-1-1.1 0-.4 0-.7-.2-.7-.1 0-.3.2-.3.5 0 .7-.6.8-3 .5-1.7-.1-2.2-.1-2.4.2-.3.4-1.6.5-1.8.1 0-.1-1.5-.3-3.2-.4-3.3-.2-4-.3-3.8-.8.1-.2 1.8-.2 6-.2 5.7.1 5.8.1 6-.4 0-.5.3-.6 1.3-.6 1.7 0 2.4.4 2.8 1.4.4 1 .4 1 2 1h5.4c3.6 0 4 0 4.4.5A40.3 40.3 0 0 0 49.6 54l2.8.6c2.7.3 3 .4 2.7.9-.2.3-1.5.3-2.8 0zm-27.6-6.9c0-.1-.2-.3-.5-.3-.3-.1-.5-.4-.5-.9 0-.6 0-.7 1.8-.7 1.4 0 1.9.1 2.2.5.7.7.6 1.3-.1 1.5-1 .2-2.9.2-2.9 0zm1.5-.7c.5-.4.5-.4 0-.3l-.7.2c-.1 0-.2.1-.2.3 0 .4.3.3 1-.2zm18.3 0c-.3-.5 0-.9.8-.9s1.6.4 1.2.6c-.5.3-1.9.5-2 .2zm-8.8-1.6c-1.8-.1-2.2-.3-1.7-.7.4-.2 1-.3 2.4-.1l2.6.2c.3 0 .6.2.6.4 0 .4-.6.4-3.9.2zm-17-1.4h-4l-2.6-.1c-.4-.2-.4-.2 0-.6.4-.3.4-.3 0-.5-.1 0-.3-.2-.3-.4 0-.4 4.4 0 5.3.4.7.4 3.4.6 6.4.7 1.4 0 1.8 0 1.8.4 0 .3-.4.3-2.3.3l-4.2-.2zm12 0c-1 0-1.3-.6-1-1.4.5-.8.8-1 1.7-1 .6 0 .8.1.8.6 0 .3.1.8.4 1 .8.9.2 1.2-1.8.9zm-13.6-3.4c-.4-.6-.6-.6-.9-.4-.1.2-.5.4-.8.4-.2 0-.4-.2-.4-.4 0-.3 1.4-1.2 2-1.2.3 0 2.3 1.8 2.1 2 0 0-.4 0-.7.2-.6.1-.9 0-1.3-.6zm114.5-7.3v-.8c-.1-.7 0-.8 1-1.3.6-.2 1.2-.6 1.3-.7 0-.2.5-.2.9-.2s1-.1 1.2-.3c.3-.3.5-.3.9 0 .6.7 1.2.6 2.4-.2 1-.6 1.6-.8 1.6-.4 0 .2-2.5 2.2-3.5 2.7-.4.2-.7.2-1.1 0-.5-.3-.9-.2-2.3.5-1.5.7-2.3 1-2.4.7zm-2.8-.9c0-.3.4-.5 1-.5 1.2-.1 1.4.3.4.7-1 .4-1.5.3-1.4-.2zm-1.4-.5c0-.4 1-1.2 1.3-1 .2.1.2.3-.1.7-.5.5-1.2.7-1.2.3zm3.3-.9c-.3-.4.1-.8.8-.8.8 0 .9.4.2.8s-.8.4-1 0zm26.3-5.3.4-.2c.3 0 .4 0 .4.2s-.1.3-.4.3c-.2 0-.4-.1-.4-.3zM63.6 132.1c-.2-.3-1-.3-1.4.1-.2.2 0 .3.6.3s.8-.1.8-.4zm-47.2-14.8c.3-1 .5-2.9.6-4.6l.1-3-1.3.2c-1.4.1-1.4.1-1.3-.4.2-.5.1-.6-.4-.6-1.3 0-1.5.3-1.5 1.6 0 1.4.7 3.9 1.7 6l.7 1.8.1.5c.5.5.8 0 1.3-1.5zm8.8-8.3c1.4-.7.7-.9-1.7-.5s-2.9.7-2.6 1.3c0 .4.3.4 1.8 0 .9-.2 2-.5 2.5-.8zm-8-.3c.2-.3-.3-3.3-1-5.5-.5-1.9-.6-2-1.3-2-.5 0-1 .2-1.2.3-.7.4-1.5 5.8-.9 5.8l1.4-.4c1.6-.6 2.2 0 .7.8l-.9.4h.9c.6 0 .8.2.8.4 0 .4 1.2.6 1.5.2zm47.4-8.8h1.2c.6.2 1.2.3 1.5.2.6 0-2-2-2.8-2-1.6 0-3.3-2.1-3.3-4.2 0-1 .1-1.2 2.3-2.3 1-.5 3-2.8 3-3.3 0-.2.1-.3.3-.3.6 0 1.7-3.3 1.4-4.4L68 83l-.3.9c-.2.5-.3 1.3-.3 1.8 0 1.1-.5 2-1 2.3-.4.1-.4 0-.3-.5l.3-1.5c0-.6.2-1.2.4-1.5.3-.7.4-1.4 0-1.4 0 0-.3.4-.4 1-.2.7-.5 1-1 1.3-.4.2-.7.6-.7.9 0 .3-.2 1-.5 1.6-.6 1-1 1-1.8.4H62c0 .2-.2.3-.4.2-.2-.1 0-2.5.3-2.9.4-.4.3-2-.1-2-.4-.2-.7.3-.7 1.1 0 .3-.2.5-.4.5-.3 0-.4-.2-.4-.8.1-.5 0-1-.2-1s-.3.2-.3.9c0 1 0 1-.8.8-1-.3-1-.4-.5-.7.7-.4.6-1-.2-1-.4 0-.6.1-.7.5-.2.8-1 .7-1-.1 0-.5-.1-.7-.4-.5-.3 0-.6 0-.8-.2-.1-.3-1-.7-1.8-1-.8-.4-2.2-1.3-3.2-2.3-1.1-1-1.9-1.5-2.1-1.4-.5.2-1.1 1.6-.8 1.7a8 8 0 0 1 3.1 2.4c1.2 1.4 1.2 1.5 1.2 3.2 0 1.3-.1 2-.5 2.6-.7 1.2-.7 2.4 0 3 .8.6 1.4.6 2.6.2 1.2-.4 1.6 0 1 1-.7 1-.3 1.7 3.2 4.5l1.4 1 1 .9 1.4.7 1 .4c.1.4 1.5.4 1.8 0zM59 91.6c0-.2 1.5-1.4 1.7-1.5.4 0 .2.7-.3 1.2-.4.4-1.4.6-1.4.3zm-.5-1c0-.6 1-1.7 1.2-1.4.3.2-.4 1.5-.9 1.7-.1 0-.3-.1-.3-.3zm3.2-.3c0-.5.9-1 1.1-.8.2.2-.5 1.2-.9 1.2l-.2-.4zm1.8-.5a11 11 0 0 1 2-3.4c.3 0 .2.6-.6 2.2-.6 1.4-1.4 2-1.4 1.2zm-6.2-.5.2-.8c0-.3.7-.2.7 0 0 .5-.5 1.4-.8 1.4-.2 0-.2-.3-.1-.6zm-1.4-1c0-.3.1-.5.4-.5.2 0 .4.1.3.4-.1.7-.7.8-.7.1zm3.8-1.1c-.2-.6 0-1.3.3-1.4.3 0 .5 1.2.1 1.5-.2.2-.3.2-.4-.1zM17.2 98.4c-.3-.3-.4.1-.2.6s.2.5.3 0v-.6zm62.6.7c0-.1-.1-.2-.3-.2-.4 0-.3-.5 0-.6h-1.8c-.6 0-.6.1.4.6 1.1.5 1.7.6 1.7.2zm2.4-.7h-.8l.4.2c.4 0 .6-.1.4-.2zm24.3-1.6c.4-.3 1-1.2 1.3-2 .6-1.6 1.4-4.4 1.3-4.5l-1.6-.3c-1.1-.1-1.5 0-1.8.3-.2.2-.3.4-.2.5 0 .1 0 .8-.2 1.5a39 39 0 0 0-.4 1.5l.6.3c.4.1.7.5.8 1 .2 1-.2 1.3-1 .7-.7-.4-.8-.4-1.2.1-.3.4-.5.9-.5 1.2 0 .5.1.5 1 .3a5 5 0 0 0 1.9-.6zm-52-1.3c-.5-.6-1-1.2-1-1.5l-.7-.7-1-.5c-1.6-.8-1.5 0 .1 1.5 2.5 2.4 4 3.1 2.6 1.2zm19.5 1h-.8c-.2.1 0 .2.4.2s.6 0 .4-.1zm49.4-.8c0-.2 0-.3-.2-.3s-.3.1-.3.3c0 .1.1.3.3.3l.2-.3zM94.6 95l1.3-1c.8-.4 2.2-3 2.3-4.6.2-1.3.7-1.5 2.5-1.3.8.1 1 0 1.1-.4.2-.6.2-.6 1 0 .9 1 3.4 2 3.8 1.7.2-.2.8-.3 1.4-.4 1.4-.3 2.5-1.5 3-3.3l.5-1.1c.3 0 .8-1.3.8-2.1 0-.5 0-.8-.2-.8-.5 0-.9.8-.7 1.3.2 1-1.7 4.5-2.6 4.5-.4 0-.2-1.3.3-1.5.8-.2 1.9-2.3 1.4-2.6l-.4-2c-.1-1.6-.1-2 .4-2.4.3-.3.5-.8.5-1.4v-.8l-.3.7c-.4 1-1.3.9-1.7-.3-.2-.8-.4-1-1-1a5.9 5.9 0 0 1-3.4-2.3c-.7-1-1-1.2-1-.4 0 .8-.6 1.8-1 1.8-.3 0-.3-.1-.2-.4.1-.3.3-.9.3-1.4.1-.6 0-.8-.3-.8-.5 0-.5-1.3 0-1.7.4-.3.3-.5-.1-1.7-.3-.8-.6-1.6-.6-2 0-.3-.3-.6-.9-.8-1.2-.5-3.5-3-4.4-4.5l-.6-1.3v1c-.1.8-.4 1.4-1 2-1.1 1.3-1.4 3-1 5.6l.3 1.9c0 .3-.8.2-.9-.2 0-.2-.3 0-.5.4-.1.4-.2 1-.1 1.2.1.4.2.4.5 0 .4-.5.4-.5 1 .3.5 1 .5 1.4 0 1.6-.2 0-.4-.3-.6-.7l-.3-.7-.1.7c-.1.6 0 .9.3 1 .3.3.4.5.3 1.2-.2.7 0 1 .2 1.3.4.2.4.5.2 1.7-.2.8-.3 1.9-.3 2.5 0 1.4-.6 1.1-.8-.4-.1-.8-.2-1-.4-.7 0 .3-.4.5-.6.5-.3 0-.4-.3-.2-1.5.2-1.5 0-1.7-.5-1s-.8.2-.5-.6c.1-.5.5-.8 1-1 1-.3 1.2-.5.5-.8-.3-.1-.4-.4-.2-1l-.1-1c-.4 0-1.4 1.4-1.4 2 0 .6-.7 2-1 2-.6 0-.1 4.6.5 6.3.7 1.8 1.4 2.6 2.6 2.8 1.1.2 3.5 1.7 3.3 2l-.8.2c-.7 0-1.8 1.5-2 2.9-.2.7-.2.9.4 1.1 1.1.5.7 1-.7.9-1-.1-1.5 0-2.4.6-.7.3-1.2.7-1.2.8 0 .4 4.6-.2 5.3-.6zm12.5-9c0-.2.2-.4.3-.4.4 0 .3.6 0 .8-.3 0-.4 0-.3-.3zm1.3-1.3c0-.6-.7-1.2-1.3-1-.5.1-.5 0-.2-.8.2-.8 1-1.4 1-.7 0 .1.2.3.5.3.3.1.5.3.4.5-.2.2 0 .4.2.6.3.3.4.5.3 1-.2.6-1 .7-1 0zm-12.2 0c-.3-.2-.4-1.2 0-1.2.3 0 .6.7.5 1 0 .2-.3.2-.5.2zm7.3-2s0-.8.3-1.6c.8-2.2 1-3.1.4-3.1-.2 0-.3-.3-.3-.7 0-.8.5-1.1.8-.5.2.3.3.3.6 0 .6-.4.8.4.3 1.4-.2.4-.4 1-.4 1.4 0 1 .7 0 1-1.1 0-.6.3-1 .4-1 .5 0 .5 1.2 0 2.3-.6 1-1 1.5-1.7 1.5-.2 0-.4.4-.6.8-.2.9-.5 1.1-.8.7zm-9.1-.3a1 1 0 0 1 0-1.5c.2-.2.3-.5.3-.8 0-.3 0-.6.2-.7.3-.2.5-.1.7 1 .2.5.2.8-.1 1.1l-.4.8c0 .5-.3.5-.7.1zm.2-11.5c-.3-1.2-.6-4.8-.4-4.8l.8.2c.7.3 1 1.4.4 1.8-.3.1-.3 1 .1 3 .2.6.1.8-.2.8-.3 0-.5-.4-.7-1zm33.5 24.3h-.9c-.2.1 0 .2.5.2s.7 0 .4-.2zm-4.7-.7-2-.1c-1 0-2 0-2 .2 0 .3 3.7.1 4-.1zm9.2 0c.5-.1.9-.3.9-.4 0-.2-.5-.3-1.5-.1-1.2.1-1.4 0-1.4-.3 0-.5-.7-.5-1 0 0 .2-.4.4-.9.4-.4 0-.8 0-.8.2s2.7.3 4.7.1zm-31.8-.7a9 9 0 0 0 2.5-.9c.6-.5.7-2.3.2-2.8-.6-.6-2.2-.6-3-.1-.6.4-2 2.7-2.3 3.8-.2.7 0 .7 2.6 0zm35.9-.5c0-.3-1.1-.3-1.6 0-.3.2-.2.3.6.3.5 0 1-.1 1-.3zm7.8-.3a40.3 40.3 0 0 1-3-.4c-1 0-2.2.2-2.2.5s4.5.2 5.2 0zm-95.3-5.2c1.3-1.6 1.3-2.9 0-4.4l-1-1.5c-.4-1-2-.2-3 1.5a4 4 0 0 0 .2 3.7c.4.8 2 2 2.5 2 .2 0 .8-.6 1.3-1.3zm13.6-.8.4-1.2c.3-.4.4-1 .3-1.5-.2-1-.7-1-.7 0 0 .4 0 .9-.2 1-.2 0-.3.6-.3 1.3 0 .7.1 1.1.3 1l.2-.6zm2-2.8c-.1-.4-.3-.7-.4-.7-.3 0-.3 1 0 1.2.3.3.5.1.4-.5zm49.1-.3c.4-1 .8-2.5.6-2.5l-.7 1.4a52.6 52.6 0 0 1-.5 1.8c.2 0 .4-.3.6-.7zm-53.4-2.2c-.6-.4-1-.4-1 0 0 .1.2.2.6.2.6 0 .7 0 .4-.2zm51-1.4c.2-.5.4-1 .6-1l.2-1c0-.7-.1-1.1-.2-1.1-.2 0-.3.2-.3.5 0 .6-.5 1.9-.8 1.9-.3 0-.3 1.4 0 1.6.2.3.2.3.5-.9zm-58-.4c-.2-.4-.7-.9-1-1-.3-.3-.5-.6-.5-.8 0-.2-.6-.6-1.3-1l-1.4-.7c-.1 0-.2 0-.2.2s.2.3.4.3.5.3.7.6c.3.4 1 1 1.7 1.5l1.5 1.2c.1.2.3.4.5.4.1 0 0-.3-.3-.7zm2.5-.3c0-.2-.3-.4-.6-.6-.4-.2-.5-.2-.5.1 0 .4.4.6.9.7l.2-.2zm37.4-1.2c.1-.8 0-1-.2-1-.2.2-.4.7-.4 1.4-.1 1.4.3 1.1.6-.4zm21 1.2c0-.2 0-.3-.2-.3s-.3.1-.3.3c0 .1.1.2.3.2l.2-.2zM66.6 78l1-.5c-.1-.1-1 0-2 .2l-3 .4c-.6 0-1 .2-1 .3 0 .5 3.8.2 5-.4zm-8.2 0c.4-.3-1.9-1.2-2.8-1.2-1 0-3.2-.7-4.6-1.4-.5-.3-.9-.3-1-.2-.2.4.8 1 2.8 1.6l2.8 1.1c.7.5 2 .5 2.8 0zm11.2-1.2c0-.1 0-.3-.4-.3-.3 0-.5.2-.5.3 0 .2.1.3.3.3.3 0 .5-.1.6-.3zm-2.7-.5c.4-.2.4-.3.2-.3s-.6.1-.8.3c-.5.3 0 .3.6 0zm44.2 0V76c-.2 0-.4.1-.4.3 0 .1 0 .2.2.2l.2-.2zm-52.8-.2c-.4-.3-2.9-1.1-2.9-.9 0 .3 1.8 1 2.5 1 .3 0 .5 0 .4-.1zm4-.5h-1.1 1.2zm-8.2-.7c0-.3-.6-.7-1.2-.9-.6-.1-1.3-.4-1.6-.6-.3-.2-.7-.2-.7 0-.3.4 2 2 3.2 2 .5 0 .5 0 .3-.5zm5.8.3c0-.1-.2-.4-.6-.5-2.2-.9-2.8-1.2-2.8-1.4l-1-.3a9.9 9.9 0 0 1-4.5-2c-1-1.1-1.4-.6-.5.6.8 1.1 3 2 4.8 2 .9 0 1.2.1 1.2.4 0 .2.6.6 1.5.9 1.9.6 2 .6 2 .3zm6 0c.5-.2.4-.2-.2-.2-.4 0-.8 0-.9.2-.2.3.4.3 1 0zm-16.2-2c.2-1.3-.2-2.2-.5-1.3l-.6.8c-.1 0-.3.6-.3 1.1 0 .8 0 1 .6.8.5 0 .6-.3.8-1.4zm39.9 1c.7-.9.6-1.1-.7-1.5-.5-.2-1.1-.6-1.3-.9-.3-.4-.4-.4-.4 0 0 .2.3.6.6.8.8.4 1 1.2.3 1-.2-.2-.7-.3-1-.4-1.1-.3-.8.6.3 1 1.3.6 1.5.6 2.2 0zm-25.4 0c0-.1-.6-.3-1.3-.4a31.6 31.6 0 0 1-8.7-3c-1-.1-1.6-.8-1.7-1.7-.1-.8.4-.9.9 0 .3.5.7.8 1.6 1 2.6.7 3.6.2 1.1-.5-2-.6-2.9-1.4-2.7-2.3v-1.3c-.2-.6-.3-.6-1 .5-1.6 2.7-1.6 2.8-1.1 3.5.5.8 2.2 1.6 4 2l2.3.9c1.8.9 6.6 1.9 6.6 1.3zm43.5-.3c0-.1-.3-.2-.5-.1-.6.2-.5.4.1.4.3 0 .5-.2.4-.3zm-40.8-.5c-.2 0-.5 0-.7.2-.2.2 0 .2.4.1.3 0 .4-.2.3-.3zm42.3-1.8c-.4-.2-1.9.7-1.9 1 0 .1.5 0 1-.3l.9-.7zm-46.7.7-1.3-.4c-.6 0-1.4-.3-1.8-.5-1-.5-1.7-.5-1.5 0l1.4.7c1.4.5 3.4.6 3.2.2zm8-.7c.4-1 .4-1.4-.2-1.4-.4 0-.5.2-.5 1 0 1.3.2 1.4.7.4zm20.5-.2c.6-1.3.5-1.5-1-2.4-1.4-1-1.7-.7-.4.5.8.8 1 1.5.4 1.5-.2 0-.6-.3-1-.7-.7-.8-1.3-.8-1.3-.1 0 .6 1.8 2.1 2.5 2.1.3 0 .6-.3.8-1zm-22.3 0c.3-.4.3-.5-.3-.4-.3 0-.7.3-.7.4-.2.5.6.5 1 0zm37-.7c-.2-.6-.2-.6-.2.3 0 .7 0 .8.3.6.2-.3.2-.5 0-1zm-43.1.1c-.4-.3-3.1-1-3.4-.8-.3.3.3.7 1.8 1 1.6.5 2 .4 1.6-.2zm46-.2c1.5-1 1.3-1-.3-.2-1.7.8-1.8.9-1.1.9.3 0 1-.4 1.5-.7zm-44.2-1c0-.3-1-.5-2.2-.4h-1l.9.4c1.1.4 2.3.4 2.3 0zm43.2 0s-.2-.1-.4 0c-.3 0-.4.2-.4.2l.4.1c.2 0 .4 0 .4-.2zm-49-.6-4.1-1.7-.1.4c0 .4 2.4 1.4 3.5 1.4h.7zm11.7-.6c.4-.2.7-.5.7-.6 0-.4-.2-.3-1.4.3l-1.4.5c-.2 0-.4.1-.5.3-.2.4 1.6 0 2.6-.5zm-5.8.3c.3 0 .5-.4.5-.7 0-.4.1-.8.3-1 .2-.2.1-.3-.4-.5-.3-.1-.7-.2-.8 0a4 4 0 0 1-1.4-.1c-1.7-.3-1.4-.9.4-.8l1.5.1-.8-.6-.8-.7h.9c.7 0 .8-.1.6-.3-.6-.6-.4-.8 1-.8h1.3v-1c0-.6.1-.8.4-.8.2 0 .9-.5 1.4-1 1.4-1.3 2.1-1.8 2.6-1.6.6.2.5.5-.6 1-1.3.8-2.3 2.2-2 3 .1.8.1.8.8-.4.8-1.5 1.9-2.6 2.5-2.6.6 0 .6.8 0 1-.6 0-2 2.3-2 3 0 .3.3.5.5.5s.5-.6.8-1.4c.4-1.5 1-2.2 1.4-2 .4.3.4-.6 0-1.6-.3-.9-1-1.4-1.6-1.4-.5 0-2.7 1.8-3 2.4-.3.7-1 .7-1 0 0-.6 2.4-2.8 3.6-3.3l.8-.4h-.7c-.8 0-2.3.7-2.3 1 0 .4-.7.4-1 0-.2-.3.2-1 1.1-1.5 1-.7 1.8-.7 3.3-.2 1 .4 1.1.4 1.1 0 0-.5-.3-.6-1.8-.7-1.8-.2-2.7-.7-2.3-1.3.2-.3 1.3-.2 2.4.2.5.2.5.2 0-.3l-.4-.8c0-.3-.6-.6-2-1-.5-.2-1.7.2-1.3.5.2 0 .3.4.1 1-.2.6-.1.9.2 1.2.4.4.4.4 0 .7-.3.2-.5.5-.5.7 0 .3-1.1.2-2.5-.2-.3 0-.1 0 .4.3 1.2.6 1 1-.2.8a28 28 0 0 1-2-.4c-.8-.2-1-.2-.7.1.2.2 1 .5 2 .7 1.8.3 2.2.6 1.8 1.1-.1.2-.2.6-.1.8 0 .3-.1.5-.3.5-.3 0-.5.1-.6.3-.1.1 0 .2.6.1.5 0 .7 0 .7.4 0 .3-.3.4-1.2.4-1 .1-1.3.2-1.3.5 0 .7-.7.7-2.2.3-.9-.3-1.6-.4-1.8-.3l-1-.5c-.5-.5-.6-.7-.4-1 .3-.2.5-.3.7 0 .2.2.4.1.8-.3.6-.6.6-.7 0-1.6l-.3-.8-.3.7-1 1.5c-.5.5-.8 1-.8 1.1 0 .4 2.5 1.8 3.9 2.2 1.4.5 1.7.8 1 1-.8.3-4-1-4.8-1.9-.7-.8-1.2-.7-1.2.2 0 1 .7 1.5 2.2 1.8.6 0 1 .3.9.5-.2.4-2.1.3-3-.2-.9-.5-.9-.4-.9 0s.6.9 2.2 1.7c1.7 1 2 1.3 1.7 1.4-.3.2-1.1 0-2.3-.7-2.2-1-2.7-1.5-2.7-2.2 0-.8-.1-.8-.6-.3-1 1 1.1 2.7 4.5 3.9 1.2.4 1.4.4 1.6 0 .1-.4.6-.3 2.3.3 1.2.5 1.5.5 2.1.3zm-3.7-1.5c-.6-.3-.8-1-.3-1 .6 0 3.7 1 3.7 1.1 0 .3-2.7.3-3.4 0zm31.3.2c.3-1.2.3-1.2-.4-1.5l-1.2-.7c-.4-.4-.4-.4-.2.1 0 .3.4.9.8 1.3.3.4.5.8.4 1-.2.3-1-.2-1.4-.9-.3-.6-.8-.6-.8 0 0 .5 1.8 2.2 2.2 2.1l.6-1.4zm16.3.7c1-.6 0-.6-1 0l-1.2.6c0 .2 1.5-.3 2.2-.6zm-39.8-.7c.5-.2.8-.5.7-.7-.2-.4-1.4-.2-1.5.2-.1.2-.4.4-.6.4l-.5.2c-.3.5.9.4 1.9-.1zm39.9-2c.3-.3.4-.5.3-.7-.1 0-.5 0-.8.4-.6.7-.3.8.5.2zm-16-1.2c0-.5-.1-.6-.8-.6-.8 0-1 .4-.5 1 .6.6 1.3.4 1.3-.4zm13-.3c.8-.9.9-1.9.3-2.1-.2 0-.4.1-.4.5 0 .7-.6 1.5-1 1.2a4 4 0 0 1-.1-1.6c0-.8-.2-1.4-.4-1.4-.2-.1-.3.3-.3 1.4 0 1.8-.3 2.3-1 2.2-.6-.2-.8-1-.2-1.5.2-.2.4-.5.3-.7 0-.2-.3 0-.6.6-.9 1.4-1.2 1.7-1.5 1.4-.2-.2-.2-.5.1-1 .6-1 1-3.4.5-3.2l-.3.6c0 .3-.3 1-.7 1.8-.6 1-.7 1.5-.5 1.8.6.8 1.4 1 3.2 1 1.7-.2 2-.3 2.6-1zm-33 .3c-.1-.2-.3-.3-.4-.2-.4.2-.3.6.1.6.3 0 .4-.1.3-.4zM74 63l-.1-.7c0-.4-.5-.2-.7.2-.2.5 0 1 .6 1 .2 0 .3-.2.2-.5zm1.7-.3c0-.4-.2-1-.4-1.3-.3-.5-.4-.5-.4.3 0 1 .2 1.7.6 1.7.1 0 .2-.3.2-.7zm35 0c0-.2-.1-.3-.2-.3 0 0-.2 0-.3.2 0 .2 0 .3.2.3.1 0 .2-.1.2-.3zM91 62v-1c.4-.6 0-.8-.5-.3-.6.5-.6 1 0 1.6.6.4.6.4.5-.3zm8.4-.4c.6-1 .9-1.9.4-1.9l-.7 1.3-.6 1.4c-.2.5.2.1.9-.8zm9.9-.2c0-.1-.2 0-.4.3l-.4.8c0 .1.2 0 .4-.3l.4-.8zm-32.3.3-.4-.3c-.2.2.2.7.5.7.2 0 .1-.2 0-.4zm11.3-.8-.3-1.5c-.2-.8-.1-1 .2-1 .3 0 .5.1.5.3 0 .5.7.5 1.4 0 .6-.6 1.5-2 1.5-2.3 0-.4-.9 0-1.6.6-.7.5-.9.6-1.2.3-.2-.2-.4-.6-.4-1 0-1-.4-.7-1 .7-.7 1.6-.7 3.4-.2 4.2.5.8 1.3.5 1-.3zm-25.3.3-1-.3-.7-.1.8.3c.7.4 1.2.4.9 0zm44.8-1.3c.6-1.8.6-2 0-2-.4 0-.6-.2-.6-.5 0-.9-2.3-2.7-3.4-2.7-.4 0-.4 0 0 .4 1.9 1.4 2.4 2 3 3.1.7 1.2.7 1.7.2 3-.1.3 0 .4.1.3.2-.1.5-.8.7-1.6zm-29.2.4c0-.2-.1-.3-.4-.3-.2 0-.5-.4-.8-.9l-.3-.8.1.7c.3 1.5.4 1.8.8 1.7.3 0 .5-.2.6-.4zm26.6-.2c0-.3-.2-.4-.3-.3v.5l.4.4V60zm-41.8-.3c-1-.4-2.2-.5-1.8-.1.3.3 2 .8 2.3.6.2-.1 0-.3-.5-.5zm11.8-.8c0-.5.3-.7.6-.7s.4 0 .4-.6c0-.4.2-.6.4-.6.3 0 .4.2.4.6v.5l.4-.6c.5-.7 1-.5 1 .4 0 .8.4 1.1.7.5.2-.5-.6-2.2-1.1-2.4-.7-.2-1.9.3-2 .9 0 .2-.5.8-1 1.3-1 .9-1.2 1.8-.4 1.6.3 0 .5-.4.6-.9zm-10 0a6 6 0 0 0-1.8-.7c-.9-.1-1.7-.4-2-.5-.3-.3-.3-1.3 0-1.3s.3 0 0-.3c-.5-.5-.3-.8.6-.6h.5c-.1-.1-.3-.4-.3-.7 0-.6-1-1.2-1.2-.7-.7 1-1.4 3-1 3.1l.6.4c1 .8 5.4 2 4.6 1.2zm27.4 0-.2-.2c-.2-.1-.3 0-.3.1 0 .2.1.3.3.3l.2-.1zm13.1-.9c-.6-.9-2.6-2.5-2.7-2.1 0 .2 2.6 2.9 3 3 0 0 0-.4-.3-.9zm-4.3.2c-.4-.5-1-.6-1-.2 0 .3.2.6.8.6.4 0 .4-.1.2-.4zm-5.5-.4c.7 0 .5-.7-.3-1-2.1-1-3.7-.4-2.5.8.3.4.7.4 1.4.3L96 58zm-22.6-.7c-.2-.2-.6-.3-1-.2-.6.1-.6.2.3.4 1 .4 1.2.3.7-.2zm7.8-.8c.5-.2 1.2-1.5 1.2-2.2 0-.7-1-.8-2-.2-1.3.6-1.5 1.1-1 1.9.4.6 1 .8 1.8.5zM75 54.9c-.2-.2-.2-.2-.2.2 0 .7.3 1 .4.5 0-.2 0-.6-.2-.7zm15.2.7c.6-.4.4-1.3-.3-1.1-.3 0-.5.3-.5.8-.1.8 0 .9.8.3zm-23.4-.1c-.2-.2-.6-.3-.8-.3-.2 0-.2.1.2.3.7.3 1.1.3.6 0zm32.4-.4c.3-.8.2-1-.4-.6-.3.3-.4.6-.3.7.2.4.5.3.7-.1zm-34 0a1 1 0 0 0-.6 0h.7zm36-.3c0-.4 0-.4-.6-.2s-.6.6 0 .6c.4 0 .6-.2.6-.4zM99 53.6c.6 0 .6-.4 0-1-2-1.7-2.6-1.8-2.3-.6.1.4.4.6.8.6.5 0 .6.1.6.5 0 .3 0 .6-.2.7-.2 0-.3.2-.3.4s.2.1.5-.1c.3-.3.7-.5 1-.5zm6.8.1c-.6-.7-1.3-1-1.7-.6-.4.3-.3.4.4.7 1.4.5 1.7.4 1.3 0zM62.6 53c0-.2-.1-.3-.3-.2l-.2.4c0 .1 0 .3.2.3s.3-.2.3-.5zm30.1.2c0-.2 0-.3-.2-.3s-.2.1-.2.3l.3.3.1-.3zm14.3 0-1-.8c-1-.5-1.1-.7-1-1.2.2-.7 0-.8-.6-.3-.4.4-.4 1 0 1 .2 0 .9.3 1.4.8 1.3.9 1.2.8 1.2.5zM77 52.3c.8-.4.6-1-.4-1.5-.7-.3-1-.4-1.8-.1-.7.2-1 .2-1.8-.2-1.1-.5-1.4-.8-.5-.8.3 0 .5-.2.5-.3 0-.1-.5-.2-1.1-.2-1 0-1.1 0-1-.4 0-.3-.1-.5-.3-.5a.3.3 0 0 1-.2-.2c0-.5 1.4-.3 1.9.2.3.5.6.5 1.8.4.8-.1 1.6-.3 1.8-.5.6-.5 1.4-.5 1.9 0 .7 1 1 1.8.9 2.3-.1.4 0 .5.3.5.7 0 1.4-.7 1.4-1.2l.2-.4c.5 0 .6-.8.2-1.5-.4-.5-.4-1-.3-2.7.2-1.8.1-2.2-.3-3.2-.3-.6-.8-1.1-1.2-1.2l-1.5-.8c-1.3-1-2.7-.7-3.3.4-.5 1-1.3 1.4-2 1-.6-.3-.6-.2-.1-1.3.9-2.2 1.4-4.9 1.4-7.4 0-2.3 0-2.6-.4-2.4-.3 0-.7-.2-1.1-.7-.7-.7-.8-.8-1.3-.3a5 5 0 0 0-1.4 2.4l-.4.7c-.5.6-1.2 4.4-1 5.7 0 .5 0 1.5-.3 2.2-.6 1.6-.7 1.7-1.2 1.4-.3-.2-.3-.4 0-1.7.3-.9.5-2.7.6-4 0-1.8.3-2.8.7-3.6.7-1.4.7-1.5 0-2.8-.3-.8-.5-1-1.2-.9-.4 0-1 .4-1.2.7-.6.7-1.3.9-1.3.4 0-.2-.1-.2-.2-.1-.5.3-.9 3-.8 5.4 0 2 .3 3 1 4.8 1 2.5 1.3 4.5.7 4.5-.6 0-.5.4.2 1 .9.8 1.3 2.2 1 3-.3.4-.2.5.8 1l2.3.8c.7.2 1.7.6 2.2 1 .5.3 1.1.5 1.3.4h.5c.4.8 3.1 1.2 4 .7zM70.2 47c-.3-.2-.3-.3 0-.6.2-.2.3-.2.5.2.2.6 0 .7-.5.4zm4.4-1c-.5-.7-.6-1-.4-1.4.2-.3.2-.7-.3-1.4-.5-1-.3-1.5.4-1l1.3.2c1.4 0 2.2.7 2.7 2 .4 1.4.3 1.7-.7 2-1.4.6-2.2.4-3-.5zm-2.5-14.2c0-1 .5-1.5.8-1 .3.5 0 1.7-.5 1.9-.2 0-.3-.3-.3-.9zM90.5 52l-.4-.2c-.2 0-.3 0-.3.2s.2.3.4.3c.3 0 .4-.1.3-.3zm2.8-.7c0-.2-.1-.4-.3-.5-.1 0-.3 0-.3.3 0 .2.2.4.3.4.2 0 .3-.1.3-.2zm5.6-.5c-.1-.6-.7-1.1-1-.8-.3.3.4 1.5.8 1.5.2 0 .3-.3.2-.7zm8.5.2c.1-.1 0-.4-.3-.7-.4-.4-.5-.4-.8 0-.2.2-.3.5-.2.7.2.3 1.1.3 1.3 0zm-40.3-.1c0-.4-1.7-1-2.3-.9-.9.2-.8.7.1.8 1.1.2 2.2.2 2.2 0zm24.6-.3c.3-.4.3-.5-.1-.4-.3 0-.6.3-.6.4-.2.5.3.5.7 0zm9.2-.6h-1l.5.1c.5 0 .7 0 .5-.1zm-26-.3c-.1-.2-.4-.3-.6-.3-.2 0-.3.1-.3.3 0 .1.2.2.5.2s.5-.1.4-.2zm26.8-1.2c.5-.6-.8-.8-1.4-.2-.5.6-.5.6.3.6.4 0 1-.2 1.1-.4zm-7.2-.5c1-.6 1.7-.5 1.7.2 0 .5.3.4 2.1-.3 1.2-.5.6-.9-1-.6-.6.1-1.3.1-1.6 0l-1.3-.6c-.6-.2-.9-.4-.9-1 0-.7 1-1.2 1.5-.7.2.3.5.4.8.4.6 0 4.7-1.7 4.6-1.9-.2-1-.4-1.3-.7-1.3-.6 0-.4-.6.5-1.4 1-1 1-2-.1-1-.5.4-.5.4-.9 0-.1-.3-.4-.4-.5-.3H98c-.6-.2-.7-.2-.6-2 0-1.7 0-2-.8-3-.5-.8-.8-1.5-.7-1.7l-.5-2.1c-.7-2-1-4.6-.5-4.8.3 0 .7.8 1 2.1 0 .4.4 1.4.7 2.2.5 1.4.6 1.5 1.3 1.3 1.1-.2 1.4.7 1 3.5 0 1.1-.2 2.1-.1 2.2.2.2.7-.3.7-.8l.4-1c.4-.3.5-.9.5-3 0-3-.4-4.6-1.2-4.8-.3-.1-.6-.7-.8-1.3-.4-1.5-1-2.2-2-2.9-1-.6-1.6-.6-2.3.2-.6.6-.7 1.1-.9 2.6-.2 2.2.1 3.8 1 6.4.5 1 .7 2 .7 2.3 0 .6 0 .6-.6 0-.3-.4-.7-.5-1-.4-.4 0-.7 0-.8-.2-.3-.4-.5-.3-1.5.5-.5.5-1 .8-1.1.8-.4 0-1.3 1.2-1.8 2.1a9.2 9.2 0 0 0 0 5.3c.4.9.6.5.6-1.4 0-1.2.1-1.6.4-1.6.3 0 .5.3.5.9 0 .5.3.8.5.8.3 0 .6.6.6 1.4 0 .6-.4.6-.7 0-.2-.3-.3-.3-.5 0-.3.5.1 1 1 .9.9-.1 1.4.4 1.2 1.1-.2.7-1.2 1-1.4.4 0-.2-.4-.3-.7-.3-.4 0-.5 0-.4.4l.2 1c0 .6.1.7.7.7.9 0 1.3.2 1.5.8.2.7 1.9.6 3 0zm-2-5.3c-.3-.3-.6-.8-.7-1.2-.3-1.2 1.5-3 3-3 .3 0 .6 0 .7-.2.1-.2.5-.3.9-.3.5 0 .6.1.4.5l-.2 2V42l-1.3.7c-1.6.8-2.1.8-2.8 0zM90 38c-.5-1-.5-1 .1-1.7.4-.4.9-.8 1.1-.8.7 0 .9 1 .4 2-.3.4-.4.9-.4 1 0 .7-.7.4-1.2-.5zm10 7.9c.8-.5.8-.8.3-1-.5-.2-3.6 1.1-3.6 1.5 0 .4 2.7 0 3.4-.5zm-37.2-3.7c.3-.2.1-1-.5-3.2-.8-2.7-.8-2.9-.6-5.8.1-2.9.2-3.1 1-4.3l1.7-2.4c.5-.8.9-1 1.4-1 1 0 2.3 1.3 2.5 2.5.4 2 .4 2 3.6-1.8 1-1.3 1.7-1 2.3.8.3 1.1.4 6.7.2 9l-.2 1.5 1.8.7c1 .4 2.1 1 2.5 1.4.5.3 1 .6 1.3.6.3 0 .7.4.9.8.5 1 .5 1 1.1.6.8-.4 3.8-1.2 4.2-1 .4.2.7-.4.7-1.5 0-1 .5-2.3 1.5-3.4l.8-1-.6-1.3c-.4-.8-.8-1.4-1-1.4l-.9-1.1c-.5-1-.6-1.5-.6-3v-2h-1.6c-4 0-12.7-1.3-18.5-2.8-4.7-1.2-7-1.4-8-.9-2.7 1.4-3.4 1.5-7.7 1.4a26 26 0 0 0-4.3.2c-.2 0-.5 1-.7 2.2l-.9 2.8c-.9 1.6-1 2.2-1.7 6.4-.2 1.7.3.6.7-1.5.4-1.7.6-2 1-2 .7 0 1.5-2.4 1.5-4.9 0-1.6.2-2 .5-1.8.3 0 .4.5.3 2.1a9 9 0 0 1-.3 2.7c-.2.4-.3 1.3-.4 2.2 0 1.2 0 1.6.3 1.7.3.2.4.5.3 1.4l-.4 1.8c-.1.6-.6.4 6.3 3 3.9 1.4 8 2.6 9.8 2.7.2 0 .6-.2.7-.4zm44-2.7a17 17 0 0 1 2.5-.8c.8-.2 2-.7 2.7-1.1 1-.6 1.7-.9 3-1 1.3-.1 2.1-.3 2.8-.8l2.2-1.3c1.7-.8 3.6-2.1 4-2.7.2-.3 1-1 2-1.5 2-1.3 1.8-1.4-3.6-1.9-5.4-.4-7.7-.8-10-1.5-1.7-.6-2.2-.6-6.8-.5-2.8 0-5.1.2-5.2.3-.1 0 .2 1 .7 2a7 7 0 0 1 .9 3.7c0 1.2 0 1.9.5 2.4l1 1.7c.4.5.6 1 .5 1.4-.2.8.4 2 1 2l1.7-.4zm-4.2-.5c.1-.2 0-.4 0-.4-.2 0-.3.2-.3.4v.4c.1 0 .2-.1.3-.4zm-89.1-1.4c0-.2 0-.3-.4-.3-.3 0-.6.1-.7.3 0 .1.1.2.4.2.3 0 .6 0 .7-.2zm31.6-.9.4-1.5c.2-1 .2-1-.7 1l-.4 1 .2.1c.1 0 .4-.2.5-.6zm56.6 0c0-.8-.4-1.1-.7-.5-.3.6-.1 1.1.4 1.1.2 0 .3-.2.3-.6zm-89 0-.6-.2c-.2 0-.3.1-.2.3l.6.3c.2 0 .3-.2.2-.3zm31.9-2.8c0-1-.5-.3-.7 1-.1 1-.1 1 .3.3l.4-1.3zm-16.2 1.1c-.5-.2-.9-.3-1-.1l-1 .4 1.1.1c1.6 0 1.6 0 .9-.4zm-4-.2v-.9c-.2-.4-.3-.4-.6.2-.3.3-.6.6-.9.6-.2 0-.1.1.3.2 1 .3 1 .3 1.2 0zm-9.8-.1c-.1-.2-.4-.3-.6-.3-.2 0-.4-.1-.4-.3 0-.1-1-.2-2.6-.2H8.2c-.3-.3-1.2.2-1 .5 0 .1.8.2 1.8 0 .9 0 1.7 0 1.8.2l2 .3c1.3 0 1.9 0 1.8-.2zM40.8 33c.2-1 .5-1.9.7-2.1.3-.2.4-.6.4-.9l.4-1c.2-.2.4-.7.4-1 0-.8.5-1 .8-.5.2.4.2.4.4 0 .5-1.8.7-4.1.6-5.7l.1-2c.5-.3.8.4.8 1.6v1h4.5c4.8 0 4.7 0 7.2-1.3 1-.5 2.4-.5 5 0a95.7 95.7 0 0 0 5 1 268.7 268.7 0 0 1 8.1 1.6c2 .4 6.4.9 9.5 1 1.2.1 1.3 0 1.4-.5.1-.9 1-1.9 1.7-1.9a8 8 0 0 1 2.4 1.3c2 1.5 2.3 1.5 2.3 0 0-.3.4-1 .9-1.4.8-.8 1-.9 1.8-.7 1.4.3 2.7 1.5 3.6 3 .3.7.4.7 6.6.6 5 0 6.4.1 7.2.4a42 42 0 0 0 9.5 1.7l5.6.7c1.3.3 1.9.2 4.4-.3A71.3 71.3 0 0 0 142 25l4.7-1.2c1.2-.2 2.8-.7 4.5-1.6 2.4-1.2 2.6-1.2 4.6-1.2l2.7.1c.5.1.5 0 .4-4 0-5.6-.4-11.9-.6-12-.2-.3-2.6-.3-21.4-.6-16.5-.2-25.2-.1-30 0-2 .2-5.1 0-7.5-.1-2.7-.2-8-.3-14.9-.3-5.9 0-11 0-11.6-.2-.5-.1-8.4-.3-17.5-.3H39l-.2 1.1c-.2 1-.2 1.4.2 2 .2.3.4 1.1.4 1.8 0 1 .1 1.3.5 1.4.4 0 .4.3.4 1.6 0 .8-.2 2-.4 2.6l-.4 3.4c-.1 2.1-.6 5.2-1.4 9.2-.5 2.3-.3 7.6.2 7.6.3 0 .3-.4.9-5.2a46.8 46.8 0 0 1 1.2-7c.1-1.6.5-2.2.9-1.5.3.6.6-1.6.2-2.3a2 2 0 0 1-.2-1.3v-1.3c-.4-.9 0-5.8.3-5.7.2.1.4 1.3.6 2.7.1 1.4.3 2.6.4 2.7.3.3.3 2 0 4-.4 2.4-.5 2.7-1 2.7-.2 0-.4.6-.6 1.6a26 26 0 0 1-.6 2.2c-.4 1.4-.3 2 .3 1.9h.5a191.5 191.5 0 0 1-.8 7c.1 0 .4-.7.5-1.7zm1.1-8 .4-2c.3-.6.6-2.3.8-3.7.3-3 .9-3.4.8-.6-.1 2.2-1 6-1.6 6.5-.3.3-.4.3-.4-.3zm-23.7 9c.2 0 .2-.1 0-.3-.3-.3-1.1-.1-1.1.3 0 .1.2.2.4.1l.7-.2zm-12.6-.8c0-.4-.2-.7-.4-.8-.2 0-.3.2-.3.8 0 .5.1.8.3.7.2 0 .4-.4.4-.7zm31.3-.6-.2-1.5c-.2-.4-.1-1 .1-2 .4-1.2.4-1.3 0-1.6-.2 0-.4-.5-.4-.8 0-.5 0-.5-.3 0-.2.5 0 6 .2 6.6.2.8.6.3.6-.7zm-1.6-2.6.2-4c.2-1-.3-1-1 0-.4.8-.5 1.4-.5 3.5 0 2.7.3 3.7 1 3.7.3 0 .3-.6.3-3.2zm56 2.6c.3-.3.7-.5 1-.5.5 0 .5 0 0-1.8-.2-.8-.4-2-.3-2.6.1-1 0-1.2-.5-1.7l-1-.5c-.2 0-.4-.1-.3-.2 0-.4-1.5-1.7-2-1.7-.7 0-1 1-1.2 3.4l-.1 2.3 1 1.5c1.2 1.5 2.1 2.3 2.6 2.3.2 0 .5-.2.8-.5zm-77.4 0c0-.1-.1-.2-.3-.2-.1 0-.2 0-.2.2s0 .3.2.3.3-.1.3-.3zm19.5-.8c0-.2-.2-.2-.2.1 0 .3 0 .5.2.4v-.5zm-11.8 0c0-.1-.1-.2-.3-.2-.1 0-.3 0-.3.2s.2.3.3.3c.2 0 .3-.1.3-.3zm6.2-2v-1.3l-.7 2c-.4 1-.4 1.3-.2 1.4.6.2.9-.3 1-2.1zm1.3 1.9.1-1.7a64 64 0 0 0 1-6l.7-3.4-.5-.4c-.5-.2-.6-.6-.6-1.2s-.2-1-.4-1c-.6 0-.7.7-.7 4.3a124.1 124.1 0 0 1-.3 9.6c.2.3.5.2.7-.2zm2-.8v-1l-.4.7c-.5 1-.5 1.6 0 1.4.1 0 .3-.5.3-1.1zm-19.8.8a1 1 0 0 0-.6 0h.6zM6 27.4V23l-.3-.7-.2.9c-.3 1.3-.6 7.5-.4 8 .1.5.3.5.5.2.2-.2.4-1.6.4-4zm8.2 4.1c1-.2 1.1-.6 0-.6-.9 0-1.6.2-1.4.5.2.3.3.3 1.4.1zm-6.4-.8c.2-1 .6-14.4.5-20.1 0-2.8 0-4.9.2-4.9l.2.3.2.3c.3 0 1-3.2.7-3.4 0-.1-.5 0-.8.2-1 .5-1 1.1-1.3 8.1-.1 3.6-.3 4.9-.5 4.9-.6 0-.7 1-.5 5.8.1 5.3.3 6.3.7 6.3.5-.1.3 1.4-.2 1.8-.6.4-.5 1.4 0 1.4.4 0 .6-.3.8-.7zm9.4.4L17 31c-.1 0-.2 0-.3.2v.3c.2 0 .4-.1.4-.3zm15.5-.7.3-1.8c0-.7 0-.7-.5-.2-.4.3-.5.8-.5 1.7 0 1.6.3 1.7.7.3zM26 27c0-3.2 0-3.8-.3-3.1-.1.5-.3 1.2-.5 1.4-.5 1.2-1 3.3-1 4.2 0 1 .4 1.3.6.7.1-.3.3-.2.6.2l.6.6v-4zm14 2.4v-.9l-.2.8-.2 1.3c0 .5 0 .5.2.2.2-.2.3-.8.3-1.4zm-30.6 1c0-.2-.1-.4-.3-.4l-.2.4c0 .2 0 .4.2.4s.3-.2.3-.4zm12.4-.1c.2-.3.3-1.5.3-2.6v-2l-.5.8c-.5 1-1 3.8-.6 4.1.3.3.5.2.8-.3zm-11.1-1.2c0-1 0-1-.2-.3-.1.4-.2 1-.1 1.1.2.6.3.3.3-.8zm3 .9a52 52 0 0 0-.3-7.6V25c0 1.3-.2 3-.4 3.7l-.3 1.4c.2.3.9.3 1 0zm5.9-.6c.2-1.7.3-5.2.1-5.4a15 15 0 0 0-.8 4.5c0 .8-.7 1.5-1 1-.2-.4-.3-.3-.3.1 0 .5.1.6 1 .6.7 0 .8 0 1-.8zm-4.2-4.6c0-3.6 0-4.6-.3-4.5-.4.1-.8 4-.5 7 0 1.7.2 2.4.4 2.3.3 0 .4-1.5.4-4.8zM10 23.5a21 21 0 0 1-.5-2.6c-.5-3.5-.8-2.2-.7 3.4 0 4.2 0 5 .4 5 .4.1.5-.4.7-2.7.2-1.5.2-3 .1-3.1zm20.3 5-.1.4c0 .4 0 .6.1.5v-.8zm125.5.8c0-.2-.1-.3-.3-.3-.1 0-.2.1-.2.3l.2.2c.2 0 .3 0 .3-.2zM18 27.5c0-1.8-.2-1.7-.4.1V29c.2 0 .4-.6.4-1.5zm-5.5-.2.4-2.6c0-1.1 0-1.3-.3-1-.5.4-.6 1-.9 3.4v1.7c.2 0 .5-.7.8-1.5zm11.6-.2.4-1.2c-.2-.1-1.2 1.7-1.2 2 0 .7.4.3.8-.8zm49.1 0c-.2-.4-.3-.5-.6-.2-.2.3-.2.4 0 .5.3 0 .4.3.4.5 0 .4 0 .4.2 0 .2-.2.2-.5 0-.8zm-45.7-1.2c.3-1.3.2-2 0-3.5l-.4-2-.2 1.3c-.2 2-.2 6.4 0 6.1l.6-1.9zm5.4.5c.4-.7.7-1.7.9-3.3l.2-2.5c-.1 0-.4 0-.8.3-.5.4-.7.8-1 3.2-.7 4-.6 4.3.7 2.3zm33.8.5c-.4-.3-.8-.4-1-.3-.1 0 0 .2.2.3.2 0 .5.3.7.5.2.2.5.2.5.2.1-.1 0-.4-.4-.7zm-49.8 0 .3-4.8c.2-4.4 0-5.5-.6-5.5-.4 0-.6 1.9-.3 2.7.2.5.2 2 .1 3.9-.2 3.1-.1 3.7.3 3.7h.2zm21-1.8s0-1.3.3-2.6l.4-3.3v-.9l-.5 1c-.4.7-.5 1.7-.6 3.5a8 8 0 0 0 .1 2.5c.1 0 .2 0 .2-.2zm-13-1.4c.6-1.1.3-1.6-.6-.8-.3.3-.5 1-.5 1.4 0 1 .1.8 1-.6zm-3.4-2c.2-1.4.1-2 0-1.8a9 9 0 0 0-.5 2.6c-.2 3 .3 2.3.5-.8zm15.8-3.1a11 11 0 0 0 1.3-4.5c0-.4-.2-.8-.5-1-.4-.2-.4-.2.1-.8.4-.4.5-.9.5-2.3 0-1.2-.2-1.8-.5-2-.3-.1-.4-.7-.4-2.4 0-2.6.2-2.4-2.9-2.6h-2v.8c-.2 1 .1 1.1.8.3.6-.6 1-.6 1 0 0 .3.1.6.4.7.2 0 .3.3.3.6a410 410 0 0 1-2.5 8.3c-.3 1.4-.6.7-.6-1.3 0-1.2 0-2.8-.2-3.7l-.2-1.5-.4 1.4c-.4 1.2-.6 1.5-1 1.6-.5 0-.6-.1-.8-1.4V3.6c-.2 0-.4.7-.4 1.8 0 2 0 2.1-.3 3-.4 1-.4 1.9 0 2.3.3.2.5.6.5.8 0 .3.2.5.6.5.5.1.6 0 .7-.7l.4-.8c.3 0 .3 1.2 0 3.5-.2 1-.3 1.9-.2 2l1-.7c.9-.8 1.8-1 1.8-.6 0 .2-.2.4-.4.5-.8.5-1.6 5-.9 5 .4 0 1.4-1 1.2-1.2-.3-.5 2-11.3 2.6-11.6.5-.3.5.3-.4 4-1 3.8-1.1 4.8-.8 6 .1.5.2.5 1-.5.3-.6.8-1.1 1-1.1.4 0 .4.5-.2 1.3-.6.8-.7 1.1-.7 4.1 0 1.8.1 3.3.2 3.4.1.1.3-1.1.4-2.7 0-2.4.2-3 .5-3.3zm-1-3.8c0-.3.6-1.4 1-1.4.1 0 .2.2.2.5 0 .6-.9 1.3-1.1.9zm.2-2.6c.6-1.2 1.3-1.6 1.3-.8 0 .6-1 2-1.5 2-.3 0-.2-.3.2-1.2zm-1 11.4c.2-.6.2-.7 0-.7s-.3.3-.4.6c-.2.6.2.7.4 0zm-16.6-1c0-.2-.1-.1-.1.2 0 .3 0 .4.1.3v-.5zm-6.4-.4c.3-.5.4-1.4.4-2.2 0-.7.2-1.3.3-1.3.1 0 .3.4.3 1s0 .9.2.7c.4-.4.7-6.2.4-6.2-.2 0-.4.9-.5 2.1-.3 3-.8 2.8-.6-.1.1-2.4 0-2.5-.5-.3a38 38 0 0 0-.5 7l.5-.7zm-1-5.6c.3-4 .3-5.2 0-6.1-.6-1.4-.8-2.6-.4-2.6.2 0 .6 0 .7.3.3.2.3.2.3-.1 0-.3.2-.5.4-.6.5-.2.5-.7.2-2.1-.2-.6-.5-1-.7-1-.5 0-.5-.7 0-.9.2 0 .4-.3.4-.4 0-.3-1-.4-1.5 0-.5.2-.7 2-.3 2.5.2.3.2.8 0 2-1 6-1.3 10-.6 10.6.2.3.3 0 .3-1.4 0-1 .1-1.8.3-2 .1 0 .2 1.3.3 4 0 2.2 0 3.4.1 2.7l.4-5zm12.4 3.7s-.3 0-.6.3c-.4.4-.4.5.1.9.5.3.5.3.6-.3v-.9zm11.6-1.1c-.2-.2-.4 0-.6.8-.3 1-.3 1.2 0 1.4.3.1.4 0 .6-.9.2-.7.1-1.2 0-1.3zm-30-3.3c0-1.4 0-2.5-.2-2.6-.4-.2-.4 1.5-.3 6v1.1l.3-1 .2-3.5zm13.9 3.6c-.2-.7-.4-.7-.4.1 0 .4.1.7.3.6v-.7zm6.8-1c0-.5-.1-.6-.3-.3-.1.2-.3.7-.3 1.2 0 .6.1.7.3.4l.3-1.2zM19.8 17c-.4-1.1-.5-1.2-.6-.6l-.2 1.5c0 .7 0 .8.5.7.4-.1.5 0 .5.5s0 .5.2-.1a5 5 0 0 0-.4-2zm-4.3.8c0-1.3-.7-1-.8.5 0 1 0 1 .4.8.2-.2.4-.8.4-1.3zm8.8-.3c0-.8.2-1.8.4-2.2.3-.7.8-5 .7-5l-1 1.6c-.7 1.5-.7 1.8-.7 4.6 0 2 0 2.8.3 2.7.1-.2.3-1 .3-1.7zm-2.8-.2-.1.4v.5c.2-.3.2-.7 0-1zm10.4-.2c0-.5-.4-.5-.7-.2-.2.4.1.9.4.7.2 0 .3-.3.3-.5zm-13.3-2.5c0-.6-.2-1.1-1-2l-1.2-1.3-.2 1.2c-.1.8 0 1.2.3 1.5.3.3.4.4.5.1 0-.2.3-.3.6-.3.6 0 .6 0 .6 2.4v1.4l.2-1 .2-2zm11 2.7.3-2.2.1-2-.5 1.3c-.5 1.5-.7 3-.3 3l.4-.1zm-2.9-3.4a93.8 93.8 0 0 1 1-8c-.1-1.2 0-1.3.5-1.5.7-.1.4-.7-.3-.7-.5 0-1 1-1 2.1a16.2 16.2 0 0 0-.6 4.4 81.1 81.1 0 0 1-.6 6.6c.3.5.9-1.1 1-3zm1.2 1.6v-1l-.3.5-.3 1c-.1.2-.1.4 0 .4.2 0 .4-.4.6-1zm-6.3-9.6c.3-1 .3-1.8.2-2.2C21 1.8 20 6.3 20 11.2c0 2.1 0 4 .2 4.1 0 .2.4-1.5.6-3.7l.8-5.8zM6.7 10.2 7 5.3c.2-1.2-.2-1-.6.6-.8 2.8-.7 8 0 8 .4 0 .5-.6.4-3.7zM16 9l.5-5c.2-1.2.2-1.2-.6-1.2-.7 0-.8.1-.9.8-.1.8.3 9.6.5 9.5l.5-4zm7.3-1c.2-2.4.1-3-.2-3-.6 0-1 1.7-1 4.6 0 2 .1 2.8.4 3 .3.4.4.4.5-.5.1-.5.3-2.3.3-4zm5.2 4.3c0-.4 0-.7-.2-.7s-.3.3-.3.7c0 .5.1.8.3.8.1 0 .2-.3.2-.8zM13.1 12l.3-1.5c0-.4.1-1 .4-1.2.5-.5.5-1.8 0-1.6l-.7.2c-.3 0-.5 1-.6 3.3-.2 1.8.1 2.2.6.8zm1.2-1.4c-.2-.3-.5.1-.2.5.1.2.2.2.3 0v-.5zm10.4-1.1c.7-1.7 1.4-5.3 1.3-5.8-.2-.5-1.2-.4-1.5.1-.4.8-1 7.2-.6 7.2.2 0 .5-.7.8-1.5zm-5.8-1A34 34 0 0 0 20 3.7c0-.3-.1-.4-.7-.4-.7 0-.8.1-1 1.2L18.2 7c0 2.3-.8 1.7-.9-.7V5.1L17 6c-.6 3-.6 3.3 0 3.2.3-.1.5 0 .6.6.1.5.3.9.4.9 0 0 .5-1 .8-2.2zm14.8-.9c.8-2.5.8-2.7-.2-2.3-.8.3-.8.3-.8 2 0 1.5.1 2.1.4 2.1l.6-1.8zm-2-3.6c0-.6-.8-1.4-1-1-.2 0-.2 3.9-.1 4.3 0 .3 1-2.8 1-3.3zm-17.8.7c0-1-.2-1.9-.3-1.9-.3 0-.3.3-.2 1.6 0 .8.4 2.1.6 2.1V4.7zm9.4-1.3c-.3-.3-.4.1-.2.6s.2.5.3 0v-.6z"/>
</svg>
