<?xml version="1.0" encoding="utf-8"?>
<svg xmlns="http://www.w3.org/2000/svg" xmlns:svg="http://www.w3.org/2000/svg" version="1.1" viewBox="0 0 448 294">
  <title>Pig-wig and Pigling Bland peek around the edge of a bush at two horses pulling a plough.</title>
  <path d="M168.4 292.6c-.1-.4 0-.7.3-.9.7-.4 1.5-.6 2.5-.6l2.6-.4c3.9-1 13.5-2 17.8-2.1.7 0 1.4.1 1.7.3l.4.4-2.5.5-5.2.8-6.6 1.1c-3.5.6-5.3.9-9.5 1.4l-1.3.1zm219-1.8-.4-2-.4-2.8-.6-3.4c-.8-7.1-.8-7-.4-10.3.3-1.8.6-3.3.9-3.5.2-.3.5-1 .6-1.7l.2-1.3-.7-.7-.7-.7.2-1.6c0-.8.3-2 .7-2.8.3-.6.5-1.5.5-1.8 0-.4.2-.9.4-1.2.2-.3.6-1.1.8-2l1.3-2.7c1-1.6.8-2.2-.5-3.2-.6-.5-.9-1-.9-1.4 0-.7-1.5-2.2-4-4-2.2-1.4-2.7-2-4.1-4.8-2-4-2.2-4.6-2.4-6 0-.7-.4-1.7-.7-2.2l-.4-1.8c0-.6-.2-.8-.4-.7-.5.2-1 2-1 3.5v1.3l.8.3c1.4.5 1.2 1.3-1.4 4.6a8.3 8.3 0 0 0-1.7 2.7c0 1-1.2 3-2.7 4.6-1 1.1-1.3 1.7-1.2 2 .2 1-.4 2.2-1.6 3-1.3 1-1.6 1.8-1 3 .2.4.4 1 .4 1.4 0 .7.4 1.4 2.3 3.6 3 3.5 6.2 6.4 7.6 7 1.5.7 2 1.3 1.4 2-.5.5-2.6.3-4.3-.5-.7-.3-2-1.4-3-2.3-1-.9-2.4-1.9-3-2.2-1-.6-2.5-2.3-4.4-5.4l-1-1.5-1.2.2a6 6 0 0 0-1.3.2c0 .1 0 1 .3 2s.4 2 .3 2.3c-.2.8 1.7 4.3 3.6 6.8 1.6 2.1 5 5.7 5.4 5.7l1.2.6a28 28 0 0 0 4.5 2.4 9 9 0 0 1 2 1.2l1.9 1.5c.3.2.6.6.6.8 0 1-2.8 1-3.6-.2-1-1.3-5.1-3-5.1-2 0 .8 2.6 4 4.6 5.8 1.9 1.6 2.7 2.1 5 3 2.7 1 3.3 1.7 2.5 2.5-.2.2-1.1.4-2 .5-1.3.1-1.8 0-2.4-.4l-1.8-1c-1.8-1-3.2-2.3-5.4-5a25.4 25.4 0 0 1-3.3-4.8c-.7-1.6-1.5-2.8-2.1-3.4-4.7-4.2-5.2-5-6.6-9l-1.4-3.7c-.5-1.2-.7-2.4-1-5 0-2-.3-3.6-.5-3.8-.1-.2-.6-.4-1-.4-.6 0-1 .4-2.3 2-1 1.2-1.8 2.4-2 2.8a14 14 0 0 1-4.3 3.9l-3.1.8-2.2.4-2.1-.5c-1.1-.2-2.5-.7-3-1-.6-.4-1.6-.7-2.7-.8-2.4-.2-3.7-.9-5-2.6l-2.6-3.2c-2.6-3-2.8-3.5-2.9-7.2v-4c.3-.7 2.2-2.9 3.5-3.8 1-.8 3.3-2.8 7-6.3.9-.9 1.8-1.6 2-1.6.4 0 .6-.3 2.3-2.4.6-.9 2.8-2.1 3.6-2.1a2 2 0 0 0 1-.4c.4-.2.4-.4.2-1l-.6-2c-.4-1.8-1.5-4.5-2.1-5.2-.7-.8-1.7-3-2.1-4.5l-.7-2.6a4 4 0 0 1-.3-1.6c.2-.5-.3-.7-1.4-.7-1.1 0-3.1-.7-4.4-1.6a5 5 0 0 0-1.5-.8 1 1 0 0 1-.6-.2l-1.4-.6c-.8-.3-1.3-.6-1.6-1.1-.2-.5-.8-1.1-1.2-1.5a96.8 96.8 0 0 1-9.3-9.8c-.3-.5-3.5-2.7-3.9-2.7-.2 0-.8-.4-1.5-.9a7 7 0 0 0-1.3-1c-.3 0-1.3-2-1.3-2.6l.3-1.5c.3-.7.2-1-.3-2-.3-.8-.5-1.8-.6-3 0-1-.1-2-.3-2.4-.3-.9.4-3 1.4-4l.8-.9 1.6.2c1 0 1.8.3 2 .5.3.3 1 .4 1.7.4l2.8.3 1.7.3 2.8-1c3.5-1.5 4.7-2 6.1-3.2 1.6-1.3 3.8-2.2 6.3-2.7 1.3-.2 2.2-.5 2.2-.7 0-.2-.1-.7-.4-1.3-.5-1.2-.5-2.3.1-4.1.5-1.6 1-2.3 2.2-3.2.7-.5 1-.5 1.8-.2 1 .2 1.2.4 1.5 1.3.5 1 1.2 1.4 1.2.6 0-.6 1.2-3.8 1.7-4.3a4 4 0 0 1 1.2-.7l1.8-1c1-.9 1.5-.9 2.3 0 .4.4.6 1 .7 2.5a13 13 0 0 0 4 9 9 9 0 0 1 1.7 2.9c.9 2.4 1 2.4 2.4 3.2a463.6 463.6 0 0 1 7 4 71.7 71.7 0 0 0 7.5 6 14.1 14.1 0 0 1 7.1 3.7 9 9 0 0 0 2.5 1.3c3.2 1.1 4.8 2 7 4.2.3.3 1.1.7 1.8.9.6.1 1.7.6 2.3 1l1.2.5 1.2-1c1.1-1 1.5-1.2 2.4-1 1 0 .8 1.4-.2 2a6 6 0 0 0-1.3 1c-.9.8-.7 1.8.7 4l1 2c0 .5 2.5 3.1 3 3.1l.7-.9 1.4-2c.6-.7 1.2-1.7 1.5-2.2.5-1.2 1.5-1.7 2.6-1.4.5.1.7.5 1 1.7a9 9 0 0 0 1.8 4.1l1.2 1.9c.4.7 1 1.7 1.4 2.1 1.3 1.4 1.9 2.4 2.7 4.6 1 2.8 1 3 2.8 4.5a6.2 6.2 0 0 1 2.3 3.2l.8 3 .6 2.4c.3.6.6 1.8.7 2.6l.3 1.6 1 .7c1.1.8 2.6 3.1 2.6 4.1 0 .4.4 1.1 1 1.7.4.6 1 1.3 1 1.7.2.4.5.7.8.7a9 9 0 0 1 3.5 2c.5.3 1.1.7 1.5.7 1.4 0 2.7 2 2.4 3.7-.2.9-.4.6 3.3 4.4 1.2 1.3 2.2 2.4 2.3 3l.7 2c.7 2 .3 4.3-.8 4.3-.6 0-1.2-.8-1.2-1.7 0-1.6-1.6-4.3-4.2-6.9-2.7-2.6-3.5-3.6-3.9-4.6-.2-.9-2.3-2.4-4.1-3.3-.8-.3-1.9-1-2.4-1.4-.8-.8-1-.8-1-.4 0 .3.2.7.4 1 .6.7.5 1.7 0 1.7-.8 0-1.4-.5-2.9-2.8a13 13 0 0 0-1.9-2.4c-.5-.2-2.6.5-3 .9-.2.3 0 .7 1 1.8a20 20 0 0 1 4.3 8 9 9 0 0 1 .4 2.5c0 .3.5 1.8 1.4 3.4 2.3 4.5 3 6.5 2.9 7.3-.3 1.2-2.3.6-2.3-.8 0-.7-1.9-4.7-2.8-5.8l-1.1-2c-.3-.7-1-1.5-1.4-1.8-.7-.5-.8-.8-.8-1.7 0-.6 0-2-.2-2.9l-.2-1.7-1.6-1.6c-1-1-1.9-2-2.1-2.4-.5-.7-1.8-.8-2.7-.2l-.7.5.2 1.8c.2 2.5-.3 5-1.5 7a64.2 64.2 0 0 0-4.5 24.3c-.2.5-.5 2-.7 3.6-.3 3-.7 3.6-1.7 3.1-.4-.2-.5-.4-.3-1.4.4-2.6.7-5.6 1-10.2a73.5 73.5 0 0 1 1-8.8 38 38 0 0 1 1.3-5.7c0-.3.1-.9.3-1.2l.8-2.3c.3-1 .8-2.5 1.2-3.3l.8-1.3V240h-.5c-.6-.2-3.9 1.4-5.2 2.5l-1.7 1c-.5.2-.8.6-1 1.3-.1.5-.6 1.7-1.1 2.5-.5.8-1 1.8-1 2.1l-.3.7.9.2 1.8.2c1.2.1 1.6.5 2.3 2 .5 1.3.4 2.7-.2 3.1-.3.2-1.3-.6-1.3-1 0-.2-.6-.7-1.3-1.3-1.7-1.2-3.6-1.5-4.1-.6l-2.3 3.8c-.6.8-1.1 2-1.3 2.5l-.8 2c-.3.4-.7 1.4-.8 2.1-.1.8-.7 2.3-1.2 3.4a11 11 0 0 0-1 2.6c0 1-.5 2.1-1.2 2.6l-.8.4v3.4c-.1 2.2 0 3.7.2 4.3.2.8.7 8 .6 10.2 0 1.1-1.6 1.7-2.1.7zm6.5-35c1.5-3 1.9-4 1.8-4.7 0-.5-.2-1-.3-1-.2-.3-1.7 1.6-1.9 2.4 0 .5-.3 1-.5 1.4-.2.2-.4.8-.4 1.2 0 1.2-.8 3.2-1.5 3.5-1 .4-.7 1.3.3 1.2.4 0 1-1 2.5-4zm-53.3 1.6c-.4-1.5-.4-2 .1-2.3.6-.3.7-.3 1.3.9.2.4.7.6 2 .7l1.7.3 1.6-.6c.8-.4 1.6-1 1.9-1.3l1-1.7c.6-.8.7-1.2.6-2.4a6 6 0 0 0-.6-2.1 2 2 0 0 1-.4-1.4c.2-.6 0-1-.8-1.7a9.8 9.8 0 0 1-1.7-2.3 4 4 0 0 0-1.6-1.8c-1-.6-1.2-.8-1.2-1.9 0-.6-.2-.9-1-1.2-.7-.4-.9-.6-.9-1.3 0-.8-.1-.9-1.7-.5a4 4 0 0 1-1.8 0c-2.6-.8-3-.8-4.1-.4l-2 .4c-.7 0-1.3.4-3.7 2.7-3.5 3.3-3.7 4-3.4 7.7l.3 2.4 1.5 2.2c.8 1.2 1.6 2.2 1.7 2.2 0 0 .4-.2.6-.5.4-.4.5-1.2.6-3.9.2-4.1.5-5.4 1.2-5.4.6 0 .8.8.7 2.6v1.5h.7c1-.2 1.2.4 1.3 4.2 0 1.8.1 3.4.2 3.4.2 0 .5-2.1.5-3.4 0-1 .5-1.5 1.2-1 .4.2.5.7.5 2.4v2.2l.8 1c.8.7 1 .9 2 .9h1.1l-.2-.6zm-8-1.5.1-3.6c.3-3.2-.2-3.3-.7-.1-.1 1.2-.4 2.5-.7 3l-.4.7.5.5c.7.8 1.2.6 1.2-.5zm64.2-10c.4-.4.7-1 1-2.4.2-1.6.5-2.2 1.4-3.2.5-.7 1.6-1.6 2.3-2l4-3.4 2.5-2.6h1.3c2 0 5.6-1.4 8.4-3.3 2.2-1.4 3.6-4 2.7-4.8-.2-.2-.5-1.4-.8-2.8-.4-2-.6-2.6-1.2-3-.4-.4-.9-.6-1.2-.6-.3 0-.6-.4-.9-.8a8.7 8.7 0 0 0-4-2.4l-1.7-1c-1.5-1-2.7-1.7-3-1.7v.5c.2.9.7 5.7.7 7.2 0 .8-.3 1.8-.5 2.3-.2.6-.3 1.3-.2 2l.2.9-1.7 2.5c-1 1.4-2 2.6-2.5 3-.5.3-1 .7-1 1.2-.3 1-1.1 1.8-1.7 1.4-.6-.4-.5-1.7.3-2.3l1-1.3 1.1-1.9c.6-1 .7-1.3.5-1.9-.2-.5 0-1.2.3-2.3.4-1.1.5-2.4.5-4.3 0-1.6.2-2.8.4-3.2.6-1.1-.5-2.9-2.4-3.8-1.1-.5-1.7-1.5-2.2-3.5l-.4-1.8-1-.6c-1-.6-1-.8-1-1.6 0-.6-.3-1-.7-1.3-.8-.6-1-.5-2.2.7a6 6 0 0 0-1.6 4.7l.4 2.2c0 1 .4 1.7 1 2.5 1 1.3 1.1 2 .5 3.1a6 6 0 0 0-.5 2.1c0 1.1.1 1.6.7 2.2a8 8 0 0 0 3.2 2.3c1.2.4 1.3 1.5.3 2.2-1 .8-1.7.7-3.5-.5-2.1-1.4-3.5-3-3.5-4l-.3-1c-.3-.2-.5.1-.7 1.4-.7 3.3-1 4-2 5.9l-1.3 2c-.1 0-.2 1.2 0 2.7.1 3-.1 3.8-1.2 3.3-.8-.3-1.4-2.2-1.1-4 .4-2.8 1.5-5.4 2.2-5.5.3 0 .2-1.2-.1-1.4-.1-.1-.3-.5-.3-.8 0-.4-.2-.7-.6-.8-.7-.2-2-2-2-2.7l.2-.9c.2-.2.2-.6 0-1-.3-.7.2-1.4 1.1-1.4.4 0 .9.2 1 .3.2.4 2.2-.8 2.4-1.5.1-.7 1.5-1.5 2-1.3.3.3.2-.6-.2-1.4a3 3 0 0 1-.3-1.7c.2-1.4-.1-1.7-1.5-1.3l-1.6.6-1 .2c-.7 0-1.5.5-2.3 1.2-.5.4-1 .5-3 .5-1.3 0-2.5 0-2.7-.2a6 6 0 0 0-1.4-.7c-.6-.1-1.2-.4-1.3-.5-.8-.8-1.8.4-2 2.6l-.6 1.8c-.6 1-.5 1.8.1 2.5a8 8 0 0 1 1 1.7c.3.6 1 1.4 1.4 1.9.8.7 1.1 1.2 2 3 0 .4.3.7.4.8.5.4 1.3 2.1 1.3 3 0 .6.2 1.3.5 1.7.3.4.6 1.5.8 2.5.3 2.2 1 3.7 2.3 5 .6.5 1.2 1.3 1.5 1.7.4.5.9.8 2 1a7 7 0 0 1 2 .6c.4.2 1.2.3 2.4.3h2l.7.6c.4.4 1 .9 1.5 1 1 .4.8 1.4-.5 2-.7.5-1 .7-1 1.3v.7h1.2c.7 0 1.4-.2 1.7-.4zm-20-27.9c-.4-.7-.2-1.3.4-1.3 1.2 0 1.5 1.6.4 1.8-.3 0-.7-.1-.8-.5zm-17 26.3a186 186 0 0 0 5.6-2c.7 0 2.2-1.3 3-2.7 1-1.8 1-1.8-1.4-1.6-2.3.2-3.6 0-3.9-.9-.2-.7.4-1.1 1.4-1 .5.1 1.1 0 1.7-.2l1.3-.4c.3 0 1-.5 1.6-1 .9-.9 1.3-1.1 2-1.1 1.1 0 1.3-.3.8-1.5-.3-.5-.4-1.2-.4-1.4 0-.7 1-1.6 1.8-1.8.6-.1.9-.4 1-1.1l.7-2.2.4-1.3-.5-.6c-.3-.4-.9-.9-1.3-1a2 2 0 0 1-1-1.2c-.1-.7-.5-1-1.6-1.6-1.5-.7-1.9-1.2-1.4-2 .1-.3.2-.8.1-1.1 0-.4 0-1.1.4-1.8l.7-2c0-.5.4-1.3.7-1.9l.5-1.4c0-.2.4-.9 1-1.5l1-1.1-.2-1.8c-.2-2.8-.7-3.7-2-4.5-1.1-.6-1.6-.7-3.5-.7s-2.4 0-2.8.5a2 2 0 0 1-1.2.4c-.5 0-1 .4-1.7 1.3l-1 1.2v3.4a42.1 42.1 0 0 1-3.7 17.8c-.7 1.4-.5 3 .7 6 1.8 4.4 1.9 4.7 1.6 5.2-.4.6-1.4.7-2 .2-.3-.3-.7-1.3-1-2.3-.8-2.4-1-2.6-1.6-2-.4.4-.5.7-.4 1.3.3 1.2.9 2.3 1.7 3.2.9.8 1 1.2.5 1.7-.8.8-2.6 0-3.2-1.5l-.7-2.5c-.4-2.3-.6-2.5-2.4-2.7-2.1-.2-2.5 0-3 2 0 .8-.3 2-.5 2.7-.2 1.4 0 2.3.7 2.3.3 0 .6.4.8 1 .2.4 1 1.2 1.7 1.8.8.5 1.6 1.3 1.8 1.8 1 1.6 1 1.7 1.6 1.3 1-.5 1.9-.4 2 .3.2.6.6 1 1 1l2.7-1zm47.7-6.2c.7-.4 1-.7 1.1-1.5.1-.8 0-1.4-.2-1.1l-1.2 1.5c-1.5 1.8-1.4 2.1.3 1.1zm18.4-1.5c-.3-.3-.5.1-.3.6l.2.5.1-.5v-.6zm-80.6-3c.3-.3.8-2.7.5-3-.1 0-.8-.3-1.4-.3-.7-.1-1.4-.3-1.5-.5l-.5-.4c-.3 0-4 3.6-4 3.8h1.4c1.1 0 1.6.2 2 .5.3.4.7.4 1.9.3.8 0 1.5-.2 1.6-.3zm8.4-5.2-.3-1.2c-.6-1.2-.5-4.1.1-8.8a21.3 21.3 0 0 1 2.5-9c.4-.8 1-2 1.3-2.3.3-.5 1-1.5 1.3-2.3 1.8-3.3 4.3-6.4 5.3-6.4.2 0 .8-.2 1.2-.5.4-.2 1.5-.6 2.6-.7l1.8-.3 1.5.4c2.5.9 3.5 2 4.7 5 .2.6.3 1.4.2 2.3-.3 2 0 2.5 1.6 3.3 2.8 1.3 5.4.7 5.7-1.2 0-.9.8-1 1.5-.5.3.3 1.1.5 3.6.5h3.1l.2-1.6c.2-1.7.6-2.4 1.1-2.4.2 0 .6-.4.9-.7l1.3-1.7 1-1.1a12 12 0 0 0-4-4.2l-1.7-1.3c-1.5-1.4-5.4-4-5.9-4-.4 0-5.1-2.3-6-3a5 5 0 0 0-1.8-.8c-.9-.2-3.2-1.5-4.4-2.6a11 11 0 0 0-2.6-1.1c-3-1-4.5-1.9-5-2.8 0-.4-.2-1 0-1.2 0-.3-.2-.8-.7-1.4a4 4 0 0 1-.8-1.1c0-.1-.7-.5-1.6-.8-.9-.3-1.6-.7-1.6-.8a47.8 47.8 0 0 1-5.1-2c-.9-.2-1.2-1-1-2 .2-.6.1-1.3-.1-2.1-.4-1-.7-1.6-1.9-2.4-1.8-1.3-2.9-3.3-3.4-6.3l-.5-2.4c-.2-.2-1.5 1.1-2 2.1a10 10 0 0 0-.6 3l-.1 2 2 1.4 2.5 1.7c.3.1 1 1.1 1.7 2.2l1.2 2 .1 2c.2 2.2 0 3-1 3.3-.8.2-1.2-.5-1.4-2.3a7.3 7.3 0 0 0-2.8-5.1c-1-.7-3.4-2.6-4.2-3.4-.3-.2-1-1.3-1.7-2.4-1.1-1.7-1.4-2-1.8-1.7-1 .5-1.1 1.6-.7 3.9.3 1.1.4 2.6.4 3.3 0 .7.4 2.1.7 3.2.6 1.7.7 2.2.4 2.9-.2.6-.2 1 0 1.6l.3 1.5c0 .6.3 1.1 1 1.8.8.9 1.3 1 2.4 1.2 1.5.2 1.9.6 1.7 1.8l.1.8c.2.1.3.6.3 1.2v1l-1.6-.2c-1-.1-2-.4-2.4-.5-1-.5-3.4-3-3.7-4a26 26 0 0 1-.8-6.5c0-1.9-.8-5-1.5-5.3-.6-.2-4.4 1-6.8 2.2a22 22 0 0 1-2.5 1.2c-.4 0-3.7 1.6-4.5 2.2-.4.3-1.7.6-3.2.9-3.1.4-3.6.4-4.8 0-.6-.3-1.2-.4-1.3-.3a5 5 0 0 1-1.6.1h-1.3l-.4 1c-.5 1-.5 2.4 0 3.1.3.3.6 1.3.8 2.3.8 3.3 1.2 4 2.4 4.6.6.2 1.6.5 2.3.5 1.6 0 6 2.1 6 2.9 0 .5-.3.6-1.7.7-.8 0-1.4.2-1.2.2a96.7 96.7 0 0 0 3 3.1c.7.8 1.7 2.1 2.2 3 .9 1.5 3.6 4.5 4.1 4.5l2 .9 1.6.8h2.6c1.5 0 3.4.2 4.4.4 2.1.3 3.4.2 5.3-.8l1.8-.8c.5 0 2.1-1.1 2.4-1.7.1-.4.6-.8 1-1l.7-.3.4.6c.4.5.5.8.2 2-.2 1-.5 1.6-1.8 2.9l-1.5 1.7c0 .2 1.8-.2 2.6-.5.4-.2 1.2-.3 1.9-.3 1.4 0 2-.6 4.2-3.8a11 11 0 0 1 1.7-2.3c.3-.1.4-.7.4-2a28.7 28.7 0 0 1 4-14.4l1-1.2c.9-.1 1.1.4 1.1 2.6 0 2.6-.9 5.6-2 6.5-.8.7-1.2 2.3-1 4 0 .6 0 1.6-.3 2.4-1 2.9-3.6 7.2-4.9 7.9-.4.2-1 .7-1.3 1.1l-1.4 1.3c-1.1.7-1.4 1.3-1 2.4.5 1.1 0 3-1 4.1-.4.4-.8 1.2-.9 1.7 0 .6-.4 1.7-.8 2.6l-.6 1.6.2 3.1c.1 2.1 0 3.3-.1 3.7-.4.8.3 1.3 1.8 1.3.7 0 1.4 0 1.6.2.5.4 1.6.4 1.6 0zM337.2 199c-1.3-.3-2.1-1.8-2.4-4.4l-.2-2 .6-.2c.8-.4 1.3 0 1.3 1 0 .8 1.8 3 2.5 3 .4 0 1.5.7 1.5 1 0 .3-2.1 1.8-2.5 1.8-.1 0-.5 0-.8-.2zm14.5-2.6c-.5-1.6-.4-2 .4-3.4l.7-1.2-.3-1.3c-.4-1.5-.2-2.2.7-3.4 1.2-1.6 1.7-2.5 2.8-4.5l1-2-.3-1.6c-.4-1.7-.2-2.6.6-2.9.5-.2.9.2 1.2 1.3.7 2.5-.2 7.8-1.4 9.1-.9.9-1.2 2.2-1.2 4.6 0 1.6-.2 2-2.6 6-.6 1-1.3.7-1.6-.7zm10.9-1.2c-.3-.8 2.4-5 3.2-5 .6 0 .4.8-.8 3-.8 1.6-1.3 2.2-1.7 2.3-.3 0-.6-.1-.7-.3zm-30.3-10.3c-.3-.2-.5-.7-.5-.9l-.8-1.5c-1-1.4-.7-2.3 1-2.3 1 0 1.4-.4 1.4-1.6 0-1.1.3-1.6 1.2-1.6.5 0 .7.2.9 1.1.5 1.9-.1 6.4-1 7-.6.5-1.6.4-2.2-.2zm-21-3.8c-.4-.4-.2-3.3.3-3.7l.4-.4.6.4c.4.3.5.6.4 1.9 0 .8-.2 1.6-.4 1.7-.3.3-1 .3-1.3 0zm47.7-5.5c0-.7.7-1.1 1-.7.2.4-.2 1.3-.6 1.3-.2 0-.4-.2-.4-.6zm-17.6-7c-.4-.5-.2-1.1.4-1.1.6 0 .8.4.6 1-.1.4-.6.4-1 0zm5.6 49.8c.5-1.4.5-4.3 0-5.8-.3-1-.4-1.3-.1-1.6.5-.7 1.2-.4 1.7.5 1 2 1.6 1 .7-1.2l-.4-1h-1.1l-1-.1-.1-1.4c0-1-.1-1.3-.4-1.2l-1.6.4-1.2.4.1.8c.1 1.1-.2 1.4-1.8 1.2l-1.3-.2v.6c0 .8.5 1.6 1.3 2.3.4.3.9 1 1 1.3l.8 1.2 1.3 2.7c1 2.6 1.5 2.8 2.1 1.1zm45.8-2.6-.3-.5-.1.5c-.3.7 0 1.2.4.8.2-.2.2-.4 0-.8zm-36.2-2.6c-.1-.2-.2-.1-.2.2 0 .2 0 .4.1.3v-.5zm.9-1.5.2-.8c0-.6 0-.6-.2 0 0 .2-.2.5-.3.5-.2 0-.3.3-.3.7 0 .7.1.7.2.2 0-.4.2-.6.4-.6zm56-.6c0-.8-1-2.5-2.9-4.6-.4-.4-.8-1.1-1-1.6-.4-1.4-2.2-3.9-2.6-3.8-.3 0-.7.6-1 1.2-.6.8-.7 1.4-.7 3.3 0 2.6.3 3 1.9 3.3 1 .2 2.5 1 4.5 2.2 1.5 1 1.8 1 1.8 0zm-55.3-1.6c-.1-.2-.2-.1-.2.2 0 .2 0 .4.1.3v-.5zm-236 80.3c-1-.5-3-1-4.9-1.2a46.4 46.4 0 0 1-6.8-1.4c-1.5-.2-2.6-.7-2.6-1.3 0-.9 2.1-1.2 3.7-.7.6.3 3.7.9 7.8 1.6a41 41 0 0 1 5.8 1.5c.9.4 1.1 1.1.6 1.7-.6.7-1.5.6-3.6-.2zm97.3-2.8c-.2-.5.7-.9 1.6-.8.3 0 1.6 0 2.9-.3a40.2 40.2 0 0 1 10-.2c-.4 0-.6.2-.6.3 0 .1-1.4.3-3.2.4a25 25 0 0 0-3.6.4l-3.8.4c-2.6.1-3.2 0-3.3-.2zm-96.5-1.1s-1.4-.3-3-.4a16 16 0 0 1-4.4-1 10 10 0 0 0-3.4-.8c-4-.2-4.7-.5-4.4-2 .3-1-.2-1.1-4-.7l-5.2.4h-2.2l-.3-.7-.4-.8-1.7.2c-1.4.1-1.8 0-2.2-.3-.3-.3-.5-.7-.5-.9 0-.3-.3-.3-1.2-.2l-3.8.4-5.2.6c-3.5.4-4 .4-4.7-.2-.8-.7-3.3-1.2-7.5-1.4l-3.6-.4c-.7-.3-.8-1-.4-1.4.4-.4.9-.4 3.8-.1 5.4.5 13.4.8 17.9.7 3.2 0 4.3 0 4.5.3.5.5.6.4 1.2-.1.3-.4 1-.6 2-.7a63 63 0 0 0 3.8-.6c2.5-.5 3.4-.4 3.6.6.1.4.5.8 1 1 .3 0 .8.4 1 .8l.2.6h2.9c3.7 0 4.3.3 5 1.5l.6 1 1.8.5c1 .2 2.2.6 2.7.9 1 .5 4.5 1 6.4 1 1 0 1.5 0 1.9.4 1 .9.3 2-1.3 2l-1-.2zm115.8-.5c-.1-.4.1-.4 1-.4.8 0 1.2 0 1.3.4.1.3 0 .4-1 .4-.8 0-1.2-.2-1.3-.4zm10.9 0c-.5-1.4 2.4-2.1 5.5-1.4l.7.2-.1-.6v-1c.3-.5 5.2-1 9.2-1.1 3 0 4.1-.2 4.9-.5.5-.3 1.5-.6 2.3-.7 3.1-.3 4.5-.6 7.7-1.3 2.3-.5 3.7-.7 4.5-.5.8 0 2.2 0 3.9-.4 1.4-.3 3.8-.6 5.4-.7 1.5 0 3.6-.1 4.7-.3l3.7.1c1 .2 4.8.5 8.5.6l9 .5h2.3l1-.7c1.4-1 5.1-2.5 5.6-2.3.3 0 1.6 0 3-.2 1.4-.3 3.6-.6 5-.7 1.2-.2 2.7-.6 3.2-.9 1.6-.8 2.7-.5 2.7.6 0 1.3-.8 1.6-6.8 2.3-6 .7-9.4 1.5-10.6 2.6-1.7 1.4-2.4 1.5-5.8 1.4l-6-.4a155.2 155.2 0 0 0-21.3 0c-1.2-.4-5.3 0-7 .6-.6.2-2.3.5-3.8.5-2.2.1-2.8.3-3.6.8l-1 .7-3.6.2-5.3.6c-1.7.3-2.7.4-4.7 0h-1.3l-.7.6c-.9.8-1.5 1-5.2 1.2l-4.4.4c-1.2.2-1.5.1-1.6-.2zm-196.4-9.2c-1.7-.1-4-.3-4.9-.5-1.3-.3-2.4-.3-4.5 0-2.3.2-2.8.2-3.3-.1-.8-.6-.9-1.6 0-2.3l.5-.5h-6.4c-6.8 0-7.2 0-7.2-1.4 0-.4-.2-.5-1.3-.5a9 9 0 0 0-2.5.5c-1 .4-1.3.4-1.8 0-.5-.2-2-.2-7.6.1-9.3.5-9.4.5-10-.1-.4-.3-.6-.8-.6-1.1v-.6l2.2-.2 7.7-.4c4-.2 5.7-.4 6-.6.2-.3 0-.4-1.8-.5-2-.2-2.5-.4-2.5-1.2 0-.5 1.6-.8 4.8-1a40 40 0 0 0 5.4-.7l4.1-.8a34 34 0 0 0 12.6-4.2l2.4-1.1c.2-.1.4-.8.4-1.4 0-.6.2-1.3.3-1.6l.3-.4h-2c-1.2 0-1.8-.1-1.8-.3-.2-2 1.5-2.7 6.7-2.9H50l1.4-1.2c1.9-1.6 8.7-4.6 10.6-4.6.6 0 3.9-2.6 4.8-3.9 1-1.1 3.7-3.3 4.3-3.3.3 0 1.4-.4 2.6-1 1.1-.6 2.4-1 2.7-1 .3 0 1-.5 1.6-1.1a10 10 0 0 1 2-1.6c1.6-.8 2.8-2.6 2-3-.5-.4-.3-1.2.4-1.6.4-.3.6-.6.5-.7-.2-.5-1.5-.3-3.1.4l-1.9.7c-.1 0-.6.2-1 .6l-.8.7h1.3c1.7 0 2.1.3 1.8 1-.3.7-1.9 1.3-3.1 1.4a4 4 0 0 0-1.8.6l-1 .7-1-.3c-1-.3-1.3-.2-2.7.2-2.2.8-2.7.8-2.6 0 0-.7 3.4-2.5 5-2.7l1.8-.3.6-.1-.5-.4c-.4-.3-.4-.5-.2-1 .3-1 2-2 5-3 1.4-.4 2.6-1 3.1-1.4 1.5-1.3 2.8-1.6 5.4-1.4 2.2.1 3.3-.1 3.3-.8 0-.2-.3-.3-.9-.3l-.9.1-1.2-1.4c-1.4-1.6-2-1.8-3.4-1.3-.4.2-1.1.1-2-.1l-2-.4c-.4 0-.9-.2-1.1-.4l-.5-.4.5-.6.6-.5 2.8.4c1.6.2 4.3.3 6 .3 2.3 0 3.2.1 3.8.5.5.3 1 .5 1.3.5.5 0 .8 1 .4 1.4-.2.3-.8.4-1.7.4h-1.5v.6c0 .3.2.4.4.3l3-.2c2.1 0 3.2-.2 4-.5.8-.3 2-.5 3.3-.6 2 0 2.3-.1 3.6-1.5.5-.5 1.7-1.3 3-2a516.1 516.1 0 0 0 3.8-2.2c.7-.4 1.4-.5 3.5-.5 1.4 0 2.7 0 2.8.2.3.3 2.1.8 2.8.9.4 0 1.3.2 2 .5.8.3 2 .5 2.6.5h1.2v.9c0 .7-.1 1-.7 1.2-1 .5-3.4.4-4.6-.2-1.4-.6-4.1-1.5-6.1-1.9l-1.5-.3-1.1.7c-.7.3-1.5.9-1.8 1.1l-.6.5.6.9.6.8 1-.1 1.6-.3c.9-.2 2 .3 2.2 1 .2.5-.3 1.5-1 2-.4.4-2 .4-2.2.1-.2-.4-5-.6-6-.3-.5.2-2.4.4-4.2.4a12 12 0 0 0-6 1.2l-2 .7c-.9.2-1.8.8-1.8 1.2 0 .3 3.9 0 5.2-.2.8-.2 1.5.5 1.3 1.1-.2.7-.5.8-4.4 1.2-1.6.1-3.1.4-3.3.5-.2.2-.3.5 0 1l.2 2c0 1.4-.3 1.8-1.4 1.6-1.3-.3-1.6-1.7-.9-3.4l.4-1h-.9c-1.4 0-1.4.2-1.2 3 .2 1.3.2 2.6.1 2.8 0 .2-.4.3-.8.3-.8 0-1.7-1.3-1.7-2.7 0-.5 0-1-.2-1-.4 0-4 4.5-4 5 0 .4.4.4 3-.3l1.5-.5.8.5c1.1.6 1.4 1.2 1.2 2l-.2.8-2-.2c-1.4-.1-2 0-2.7.2-.9.5-3.1.6-6 .3l-2-.2-1.4.7c-1.6.8-5 3.3-5.8 4.3l-.4.6 1.4.1c1.7.2 2.4.7 2.1 1.5-.2.8-1.3 1-4 1.2h-2.3l-1.5 1c-1.8 1-3.1 2.3-2.6 2.6.2.2.6.3.8.3l.8.4c.3.3.2.5-.1 1.2l-.5.9 1.2.1c1.5 0 2 .5 2.3 1.9l.1 1.2 1.3-.1c.8 0 2-.2 3-.4 5-.8 5.4-1 5.7-2.3.4-1.4 1.2-1.7 3-1.4a46.8 46.8 0 0 0 9.7-1c.7-.3 3.7-.7 6.6-1 1.5 0 2.2 0 2.5.2.3.3.5.3 1 0 .3 0 .9-.3 1.3-.5 1-.4 2.6-1.6 2.6-2 0-.6-5.5.2-10.8 1.6-.8.3-2.2.5-3 .6h-1.6l-.2-.5c-.5-.8.4-1.6 1.7-1.6 2 0 2.7-.5 1.8-1.2-.4-.2-.4-.4-.2-1 .8-1.6 5.5-3 10.9-3.2 3.6-.2 4.5 0 4.5 1 0 .8-.5 1-3.7 1.1-5.8.3-6 .4-10.1 2l-.7.6c0 .3.1.3 1.8-.2a34 34 0 0 1 10.5-1.5c1 .4 1 1.5.4 3.1l-.5 1.6a18.8 18.8 0 0 0 6.3-5.3c.8-.8.8-1 .5-1.3a9 9 0 0 0-4.4-1.5c-2.1 0-3.8-.8-3.8-1.8 0-.3 1-.7 1.5-.6l2.3.3c1.2.1 3 .6 4.2 1l2.1.6.4-.4c.6-.5.5-1.4-.2-3-.4-.7-.8-1.3-1.2-1.3-.9-.2-1.2-.8-.7-1.7l.8-1c.8-.4 2.1.6 2.8 2 .3.7.6 1.1 1 1.1.9 0 1.2.7.8 2.2l-.4 2.4c0 .8-.5 1.4-1.7 2.7l-2 2.1-1.8 1.8c-.9.6-1.5 1.2-1.5 1.3 0 .2.5.2 1 .2 1.4 0 2.2.4 2 1-.1.3-.3.6-.5.7-.5.3 1.2.5 2.5.2.8-.1 1.6-.2 2.1 0 1.4.4 2.8 0 3.2-1.1.5-1 2.6-2 4.5-2 1.4 0 2.1.4 2.1 1.3v.5h6.2c3.3 0 7.9 0 10 .2 4.6.4 11 .3 11 0 0-.2-.5-.4-1.3-.4-1.3 0-1.8-.3-1.8-1 0-.3 1.1-1 2.3-1.3.4-.1.7-.5.9-1.2.1-.6.5-1.2.8-1.5l1-1.3 1-1.6 2-2.8c2-2.9 2.6-3.4 3.7-3.4 1.3 0 1.3.6 0 2.3-1.5 2-3.5 5-3.5 5.3 0 .2.5.3 1.3.3.7 0 1.4.2 1.5.3.5.5.4 1.5-.2 1.8-.7.4-2.5.4-3 0-.4-.2-.5-.2-.8.2-.7 1-.5 1.2 1.1 1.2.9 0 2.4-.2 3.4-.4l3.1-.6 1.3-.1v-.9l-.2-.8h-1.6c-2.1-.2-2.4-.6-1-1.9 1-1 2.3-1.4 4.2-1.4h1.3l-.2-.6c0-.3.2-.9.8-1.6l1.3-1.6c.5-.7 1.8-.1 2.8 1.2.9 1.2 1 1.7.3 2.4l-.4.4.5 1.6.5 1.5.2-2.3c0-1.2.3-2.6.4-3l.6-1.9a345.8 345.8 0 0 0 2.6-6.8c.2-.1.3-.5.3-.7l.6-1.3 1.5-3a50 50 0 0 1 2.6-5.5c.7-1.4 1.3-1.8 1.5-1.2l.3.8c0 .2.4.4.7.4 2 0 2 1.2.1 3-.7.7-1.6 1.2-1.9 1.2-.6 0-1.2.5-1.2 1 0 .2.3.4.8.4 1 0 1.5.6 1.1 1.5l-.2 2.5v1.8h.9c.7 0 1-.2 1.9-1 .7-1 1-1.1 1.9-1.1 1 0 1.3.3 1.3 1 0 .4-1.1 1.4-2 2-1 .4-1.2 1.2-.6 1.2.8 0 1.2.9 1.2 2.8v1.8l-.9.1c-.8.1-1.1-.1-2.1-1.7l-.3-.5-.6.6c-.7.9-.7 1 .3 1.5.9.5 1 1.4.4 2.1-.5.5-4.4.6-5.2.2-.6-.3-.7-1.5-.2-2.3a109 109 0 0 1 1.8-4 50.3 50.3 0 0 1 1-4.3c.1-.2-.3-.6-.9-1l-1-.5-.6.9-.6 1.1c0 .2-.2.3-.3.3-.2 0-.2.4-.1 1.2l.2 1.2-.7.7c-.7.8-1.5 2.8-2.2 6-.4 2.2-.4 2 .5 5.6.5 2 .6 2.2 1.8 2.3 1.5 0 2 .7 1.1 1.6-.3.3-.6.8-.6 1 0 .3 1 .3 2.4 0l2.1-.6c1-.2 1.1-.3.7-.5-.3-.2-1-.2-1.6-.1-1.8.2-2.4-.6-1.6-2.4l.7-2c.5-2 1-2.4 2-2.3.7.1 1.2 0 1.6-.2 1.1-.8 2 0 2 1.8 0 .3.1.8.4 1.1.8.7 1.2.2 1.8-2 .2-.9.9-2.6 1.4-3.8l1.2-2.8 1.4-2.9 1.1-2.4c0-.1-.3-.4-.8-.6-.4-.3-.9-.7-1-1-.2-.4-.6-.9-1-1-1.4-.7-1.1-1.3 2.2-4.5 3-3 3.8-3.4 4-2.3 0 .3-.7 1.3-2.4 2.9a17.8 17.8 0 0 0-2.6 2.7c0 .2.4.4.8.5.4.1 1 .4 1.1.6.4.4 1.6.5 1.6 0a102.8 102.8 0 0 0 2.2-3.4l2.2-2.6a14.3 14.3 0 0 0 2-2.5l.5-.4h-.4l-.4.2c0 .2-.4.3-.8.3-1.3 0-1-.9.4-2a34.6 34.6 0 0 0 4.7-3.7l.8-.6h-.6c-1-.1-1.7 0-2 .3-.4.3-1.6.2-2-.2-.8-1 .8-2.3 3.3-2.5h1.6l.8.6.7.7 1.2-.7c2-1.2 6-3.1 7-3.4 2-.7 4.2-1 7-.9l3 .1.1-.6c.3-1.2 3.4-1.5 5.9-.4l2.5 1 1 .4v-.9l.2-.8 2.3-1.2 2.3-1.1v-.8c0-1.4 1.5-4 2.8-4.8 1.6-.9 2.4.7 1 2-1 .8-1.4 1.5-1.6 2.8-.1.8 0 1.1.4 1.6.7.8.7 1.1 0 1.9l-.4.6-1.1-.3c-1.4-.4-2.3-.2-3 .6-.5.6-.8.7-1.7.6h-1v.6c-.1.7-.6 1-1.5 1l-1.7.3c-1.4.4-2.3.2-2.3-.6 0-1.1-.4-1.4-2.2-1.4h-1.8l-.2.6-.3.6h-3.2a25 25 0 0 0-4.5.3c-2.8.7-3.3 1-5.1 1.8-2.3 1.1-4 2.2-4.2 2.6 0 .2 1 .3 3.6.3 4.4 0 6 .3 6.2 1.2.2.8-.3 1.8-.9 1.8a3 3 0 0 1-1.2-.6c-.6-.4-1.2-.5-3.7-.6h-3l-3.2.9-3.3.9.2.8c.1.7 0 1-1.1 2.3l-2 2a32.4 32.4 0 0 0-3.4 4.3 38 38 0 0 0-4 7.7 29.1 29.1 0 0 0-1.8 4.4c-.5.5-1.4 4.3-1.3 5.1.1 1.3.6 1.3 1.7-.2 1-1.3 1-2 .5-2.8-.6-.8-.5-1.8.4-2.7.4-.4 1.4-2.1 2.2-3.8l2.4-4.8c.6-1.2 1-1.7 1.4-1.8.4 0 .6.1.7 1l.2.9.5-.4c.2-.3.8-.6 1.3-.8 1.1-.5 2-.1 2.3.8.3 1-.5 1.6-2 1.7h-1.2l-1 1.6c-1.7 2.6-1.6 3.5.4 2.3a214.2 214.2 0 0 1 6-3.8l.8-.4.6.5c.5.4.6.6.3 1.2-.2.8-.6 1-3.9 2.5-1 .4-2.1 1-2.6 1.5l-1.2.6c-.2 0-1 .3-1.6.7-1.4.7-1.9 1.3-1.9 2.2 0 .5-2.9 6-3.5 6.6-.3.3-.9.4-1.6.4-.9 0-1.3 0-1.6.5-.6.6-1.2.6-2 .1-.5-.4-1.5-.5-1.7-.1l-.6 1.6-.3 1.3 1-.1 11.4-1.3c.5 0 1 1 1 1.8v1l.9-.2 2.6-.4 1.7-.2v-2.9c.1-.5.3-.6.8-.6.4 0 .9.2 1.2.6l.5.5v-.5c0-.7.5-1.2 1.2-1.2.5 0 .6.2.6.6 0 .9.7.5 1.3-.7.4-.8.5-1.4.4-2-.2-1.2.5-1.8 5.7-4.5.5-.2.9-.6 1-1 0-.7.5-1 2.4-1.9 2.3-1 3-1.2 3.4-.8l1.8.4c1.7.1 2.3-.3 2.3-1.5 0-.4.4-1.1 1-1.7 2.3-2.8 7-4.5 7.6-2.8.2.6-.3 1-1.6 1.4-3 .7-4.5 2-4.7 4-.1 1.2 0 1.5.4 2l.6.6-.3 1c-.2.6-.2 1 0 1.4.7 1.4-.6 2.5-2 1.7-1-.5-1-.5-2.6.4-1.5 1-2.6 1-2.6 0 0-.5-.1-.5-.6.3-.4.5-1 1-1.4 1l-1.7.6c-1.5.8-2.6 0-1.7-1.1.3-.4 1-.8 1.7-1 1.1-.5 1.6-1.2 1-1.7 0-.2-.5-.1-1.2.2l-1.6.4c-.4 0-1 .2-1.3.5l-1.7 1c-1.7 1-2.4 1.6-2.4 2.5l-.5 2c-.7 1.6-.7 2 0 1.5a82.3 82.3 0 0 0 14.6-4.4c2.8-.9 3.6-1 3.6-.2l.2.6c.4.2 4.7-.6 5-1 .3 0 .4-.4.4-.7 0-.7 2-4.5 2.6-5 .2-.3 1.1-.5 2-.6l1.5-.2.2.5c.2.3.3.8.3 1.1-.1.6 0 .7.8.7 2 0 1.4 1.6-.8 2.2-1.6.4-2.6.1-2.6-.8 0-.3-.1-.5-.3-.4-.3.2-1.6 2.1-1.6 2.4l1.5.1h1.4v.7c0 .5-.1.7-.7.8-.4 0-1 .3-1.5.4l-2.3.4c-1 .1-2.2.3-2.7.6l-2.3.6c-1.7.3-3 .6-6.3 1.5-2.7.7-3.2.8-4 .5-.9-.2-1.2-.2-2.3.3-2 .9-5.4 1.7-6.8 1.7-1 0-1.3.1-1.4.5-.2.6-1.3.7-1.5.2 0-.2-.3.2-.5 1-.4 1.4-1 2-1.6 1.4-.3-.2-.5-.6-.5-1 0-.8-1-1.2-2.2-.8-1 .3-5.4 1.1-8.2 1.6-.9 0-2.6.5-3.8.9-2.6.8-3.6.8-3.6-.2 0-1.2-.6-1.2-4 0-2.2.7-2.9.7-4 0-.5-.3-1-.5-1.4-.4-.7.2-.7.5-.1 1.3l.4.7-.4.3c-.4.4-1.7.8-6.1 1.7l-4.7 1.1c-.3 0-.5.4-.5 1-.1.6-.3.9-.8 1.1-.6.3-3.9 1.3-6.8 2.1-1.7.5-3 .3-3-.4 0-.5.2-.6 2-1.3l1-.3-.6-.8c-.4-.5-.8-.8-1.3-.8-.8 0-1.2-.5-.9-1 .2-.3 3.2-1.5 4.3-1.7l2.3-.5c4-1 5.2-1.3 6-1.1.7.1 1.5-.2 4.4-1.6a44.5 44.5 0 0 1 6-2.5c.6-.3-3.8-.2-4.7.2-.3.1-1.4.2-2.3 0h-1.7l-.7.7c-1.2 1-3.7 1.5-8.7 1.4-4.3-.1-4.7-.2-4.4-1.5 0-.3 0-.6-.3-.7l-4 .2a176.8 176.8 0 0 1-19.7-.4l-.6-.4-5.8.3c-3.2.2-6.2.5-6.7.7a106.4 106.4 0 0 1-16.5 1.9l-2.7.3-.6-.5c-.9-.5-1.2-.5-4.1.4a109.4 109.4 0 0 1-9.6 2.6c-.5 0-1.3-1-1.3-1.8 0-.6 0-.8-.5-.8s-.8.5-.8 1.5c0 .4-.3 1.2-.6 1.7-1.4 2-9.4 4.3-12 3.4-.8-.2-1.1-.4-1.1-.8 0-.9.7-1.1 3.8-1.3 2.3-.2 3.3-.4 4.2-.8 2.1-1.1 3-1.8 3-2.4v-.5H80l-4.5.4a690 690 0 0 1-7.2 1.2c-2 .4-3.5.3-4-.5 0-.3-.3-.6-.3-.7l-2.1.4-4.6 1.2H56l-.7-.2.2-.8c.2-.6.1-.7-.3-.7-.3 0-.9 0-1.3.2l-2.6.7c-1.8.4-5.4 1.4-7.4 2.2a6 6 0 0 0-1.7 1c-.4.3-1.2.8-1.8 1a45.3 45.3 0 0 1-8.4 2 51.6 51.6 0 0 1-9 2c-2 .3-1.4.7.4.6 5.6-.6 15.8 0 15.8.8l.4.7.4.5 4.6.2c3.8.1 4.8.2 5.3.6.6.4.7.6.6 1.2-.1.5 0 .8.1.8.2 0 .3-.2.3-.5 0-.8 1-1.2 2-.8a6443.7 6443.7 0 0 0 17.4 1.7l5.3.5c1.9.2 2.5.6 2 1.2-.6.4-3.8.4-8.2 0-2.1-.3-4.7-.5-5.9-.5-1.7 0-2 0-2.4.5-.7 1-1.8 1.2-7.7.8zm-.8-18.9a77 77 0 0 1 6.8-1.5l.8-.3-.8-.5c-1-.6-3.3-.9-3.7-.4-.5.6-1.7 1-2.3.7-.3-.1-1 0-1.8.5l-1.7.6c-.6 0-2.5 1-2.7 1.5-.1.6 1.6.4 5.4-.6zm44.8-2c.5-.4.4-1.4 0-1.2l-1.5.4c-1.2.3-1.2.3-1 1 .2.2.5.3 1.2.2l1.3-.4zm63.5-.3c.1-.6-.3-.6-1 0l-.7.6h.8c.5-.1.8-.3 1-.6zm10.8-2c.2-.4-.2-1.1-.7-1.1-.5 0-1.4.9-1.1 1.1.2.3 1.6.2 1.8 0zm-10.7-.6c.3-.2-.2-.3-2-.2-1.3 0-2.8.3-3.3.4-.8.2-.4.3 2 .2 2 0 3.1-.2 3.3-.4zm48-.8c0-.2-.1-.2-.1.1 0 .3 0 .5.1.4v-.5zm-37.7-2.5-.4-1c-.3-.4-.6-1.8-.8-3.2l-.3-2.4-.5 1c-.2.5-.4 1.3-.4 1.8 0 .8.7 3 1.1 3.6.3.3 1.3.5 1.3.2zm-4.4-3.5-.4-.7v.8l.3 1.6.4.7v-.8c.1-.5 0-1.2-.3-1.6zm264.6 28-.9-2.7c-.2-1.2-.6-3-1-3.8-.7-1.9-.8-3.4-.3-3.7.7-.2 1 .3 1.4 1.9.2.8.7 2.2 1.1 3 .7 1.4 1.4 4 1.4 5.2 0 .8-1 .8-1.7.1zm-302.1-1.5c-.1-.2 0-.5.2-.8a17 17 0 0 1 5.2-1.7l1.6-.3-.1-.8c-.1-1 .1-1.1 2.4-1.5l3-.8c2-.8 4.1-1.2 4.5-.9.4.5 0 1.2-.9 1.4a215.2 215.2 0 0 1-5 1.5c0 .1.8.3 1.8.3h1.7l4.9-2c2.6-1 5.1-2 5.5-2 .8 0 1.3.9.9 1.5l-2.1 1c-1 .2-2.2.7-2.7 1a361.2 361.2 0 0 0-8 2.7c-3.2 1.1-4 1.2-5 .7-.7-.3-1-.3-5.4.7-2 .5-2.3.5-2.5 0zm-58.2-3-.2-.6c0-.5 2-1.4 2.7-1.1.7.3.6 1.4-.2 1.7-.8.3-2 .3-2.3 0zm56.2-2c0-1 .5-1.4 2.6-2.1 2-.7 7-1.3 8-1l.2.7c0 .8-.9 1.2-4.2 1.5-1.6.1-3.6.5-4.4.8-1.9.6-2.2.6-2.2 0zm310.2-7.3a24 24 0 0 1-3-5.5c-.2-.9-1.7-3.2-2.3-3.8l-1.2-1.4-1.1-1.7c-.6-.9-.6-1.5 0-1.7.5-.2 4.6 4 5.4 5.5.2.6 1 2 1.6 3 1.1 1.6 2 3.9 2 5 0 .5-.8.9-1.4.6zM27 258.3c-.5-.2-.3-1.5.4-2.2l.5-.8c-.3-.4-2.2 0-3.8.7-1.2.6-1.6.7-2.6.5-1.8-.2-2.2-.2-3.5.2-1 .4-1.7.6-4.2 1.2-1 .2-1.9-.1-2-.8-.3-.9.4-2 1.7-3 .6-.4 1-.9 1-1 0-.4-1.8-.6-3.9-.5l-1.6.1-.4.8c-.2.4-.8 1-1.3 1.2l-1.7 1.2c-1.1 1-2.2 1-3 0-.6-.8-.6-1.6 0-2.4.2-.4.3-.7 0-.8-.2-.2-.8-1.4-.8-1.9l.6-.8c.4-.4.9-.5 2.6-.5 1.1 0 2.5.2 3 .4.7.2 2.8.4 4.8.5 5.4.3 5.7.4 6.6 1.7.9 1.3 1.5 1.5 2.6 1 1-.6 9.8-.7 11.5-.1 1 .2 1.6.2 4.1-.1 3.1-.5 3.4-.4 3.4.6 0 .7-2.4 1.8-4 2-.8 0-1.7.4-2 .6l-2 1c-1 .6-1.5.6-2.2.4-.7-.2-1-.2-1.6.2-1 .6-1.7.8-2.2.6zm279.6-1.5-1.8-.4c-2-.4-5.6-1.7-6.1-2.4-.6-.6-.4-1.2.2-1.4.3 0 1.6.3 3 .8 1.3.5 3 1 3.8 1l2.9.7c1.1.3 1.3.5 1.3 1v.7h-3.3zm-55.9-1.3a4 4 0 0 0-1.3-.5l.6-.2c1.4-.3 2.8-.1 3 .4v.5c-.3.3-1.5.2-2.3-.2zm27-1.3c-.2-.6.3-1.2 1.4-1.5l2.2-1 1.3-.6-1.3-.1c-.7-.1-1.8-.2-2.4-.1-1.1 0-1.6-.3-1.6-1 0-.6 1-1 3-1.1 2.3-.2 4.2.2 4.5.8.2.6 1.1.5 2.8-.4 1.7-.9 2.5-1 2.6 0 .1.9-.6 1.3-5.4 3l-3.4 1.5c-2 .8-3.5 1-3.7.5zm15.3-1.4c-2.7-.3-3.3-.4-3.3-1s1.3-1 3.7-1c1.7 0 2.2.1 2.3.5.5.8-.1 1.7-1.1 1.6l-1.6-.1zm-150-1c-.4-.4-.7-.9-.7-1.1 0-.3.7-1.1 1.5-2 .9-.9 1.5-1.7 1.4-1.8-.3-.2-2 .7-3.2 1.9-2 1.7-2.4 1.9-3 .7l-.5-.8-1.4 1.3c-1 1-1.6 1.4-2.1 1.4-2.6 0-3.5-1-2.4-2.5 2.1-3 6.6-7 7.9-7 .2 0 .6.1.8.3.1.2.6.5 1.1.6.7.1 1 0 1.3-.5l.5-.6-.8-.3c-.4-.2-.9-.6-1-.9-.3-.4-.2-.6.3-1 .5-.5.8-.6 1.9-.5l1.3.2 3.2-3.3c1.9-2 3.6-3.5 4.2-3.7l1.2-.7 1.3-.8c.7-.3 1.7-1 2.3-1.4l2-1 2-1a195.6 195.6 0 0 0 5.8-3c1.7-.9 3.3-.5 3.3.7 0 .9-.5 1.2-2.2 1.5-2 .3-3.6.8-4.4 1.5l-.7.6h1.3c2.2 0 2.6.8 1 2.2-.4.5-.7 1-.5 1 .1 0 .2.4 0 .7 0 .4-.6.7-1.8 1.1l-2.4.6a7 7 0 0 0-2.7.8c-.8.4-2-.2-2.5-1.1-.1-.5-.4-.8-.6-.8-.7 0-3 1.8-4.4 3.5l-2.4 2.8a10 10 0 0 0-2 3l-.4.2c-.1 0-.2.1-.1.2 0 0 .6-.2 1-.7.7-.5 1.3-.8 1.8-.8.4 0 1.3-.2 2-.5l1.8-.6c1.4 0 1.7 1.8.3 2.2a21 21 0 0 0-5.8 2.9l-.9.7.6.2c1 .5.9 1.5-.6 3.2-.8.8-1.4 1.6-1.4 1.8 0 .5-.7 1.2-1.2 1.2-.2 0-.7-.3-1-.6zm-.3-6.2c.4-.2.7-.5.7-.6 0-.5-1-.2-1.6.4-.5.6-.5.7-.2.7s.8-.2 1.1-.5zm19.7-13c0-.2.3-.3.6-.3s.5-.2.5-.4-.1-.4-.3-.4a4 4 0 0 0-1.6.8c0 .1-.3.3-.6.3-.3.1-.1.2.5.2.5 0 1 0 1-.2zm79.2 19.2c-.5-.5-.2-1.3.5-1.4.5-.2.7-.9.3-.9-.4 0-.5-1-.2-1.4a17 17 0 0 1 5-2l3.3-.9 4.1-.6c1.7-.2 2.2-.3 2.8-.8.5-.4 1.5-1 2.3-1.3.9-.3 2-.9 2.6-1.3a4 4 0 0 1 1.8-.7l2.5-.3 1.8-.3 1 .5c.8.3 1.2.7 1.2 1.1l.1.7 1.4-.2c1.5-.1 4.4-1.5 5.2-2.4.4-.5.2-1-1.8-5.1-1.1-2.4-1.6-3.7-1.5-4.1.1-.4 0-.8-.6-1.4-1.4-1.4-1.3-2.3.3-2.3.9 0 2.8 1.8 2.8 2.7 0 .5.6.7.9.3.5-.9 3 .3 3.2 1.5.4 1.8 2 2.9 3 2.2.3-.2.2-.5-.7-1.2-.5-.5-1-1-1.2-1-.1 0-.4-.3-.6-.7-.2-.5-.6-.9-.9-1-.3 0-.8-.7-1.3-1.4-.7-1.1-1.1-1.5-2.7-2.2a21 21 0 0 0-5.7-2c-2.7-.5-3.4-1.1-2.8-2.2.5-.7 8.9 1.4 10.6 2.7.9.7 1.3.6 1.4-.2 0-.6.3-.8.7-.8.5-.1 1 .2 2.3 1.6 1.4 1.5 1.8 1.7 2.6 1.7.7 0 1.1.3 2 1.2 1.1 1.3 1.3 2 .7 2.5-.5.5-1.4.1-2.4-1l-.8-.9-.9.2c-1.4.3-1.4.3 3 3.6 2.2 1.6 2.5 2 2.5 3.5 0 .9.4 1 .8.2.3-.6 1.1-.7 1.9-.3.2.2 1.2.4 2.1.4 1 .1 2.2.4 2.8.7l1.2.6 3.1-.2c6.1-.3 8.2-.6 9.8-1.4 3-1.5 6.4-2.1 6.8-1.2.1.5 1 .4 4-.2 2.8-.6 3.2-.6 3.5 0 .3.6-.2 1.3-1.1 1.5-2.8.5-5.5 1-6 .9-.4 0-1.1.2-1.7.5-.6.4-2 .7-3 .8l-3 .6c-.5.3-1.5.4-4.5.3-3-.1-4.2 0-5.5.3-2.6.7-7.7.8-9.7.3-2.9-.8-2.8-.8-2.8 0s-.9 1-4.6 1.3l-3 .2c0 .1.1.4.5.7l.6.5-.5.4c-.3.3-2 1.1-3.6 1.9l-3 1.3-.3-.5c-.3-.4-.3-.6 0-1.1l.5-.7-1.2.2c-1.2.1-2.3.5-7.6 2.2l-3.3.9a79.4 79.4 0 0 1-6 2 48 48 0 0 0-4.5 1.6l-2.1.9-1-.4-.9-.5-2.4.8c-2.7 1-3.7 1-4.1.5zm4.6-2.8c1.3-.4 3-1.4 2.5-1.6-.2 0-.4 0-.6.2-.2.2-.5.3-.7.3-.6 0-3.2 1.2-3.2 1.4 0 .1.2.2.5.1l1.5-.4zm8-1.7c.3-.4.3-.4-.4-.4-.6 0-.9 0-.9.4 0 .2.3.3.5.3.3 0 .7-.1.9-.3zm7.3-2.8v-.3c-.2 0-.4.1-.4.3l.1.2c.1 0 .2 0 .3-.2zm17.8-2.3c.5-.2.9-.5.9-.7 0-.4-1.4-.2-2 .2-1.3.9-.5 1.2 1 .5zm2.3-4c0-.2-1.1-2-2.4-3.8a22 22 0 0 1-2.5-4.2c-.4 0-.2 1 .3 1.9.7 1 2 3.5 2.2 4.4.3 1.3 1.2 2.5 1.8 2.4.5 0 .6-.3.6-.6zm-18.7 13.6c-.3-.3-.4-.6-.3-.7.2-.4 3.5-1.3 4.4-1.3.5 0 1.3-.3 1.8-.5l6.1-3c1.5-.4 2.2 1 1 1.8-.6.3-.7.6-.7 1.3 0 1.2-.3 1.3-5.4 2-6 .8-6.4.9-7 .4zm-65-1c-.6-.7-.6-.8 1.7-2.9 2.4-2.3 3.5-4.5 2.3-4.9-.4 0-.6-.4-.6-.8 0-.7 1.1-2 1.8-2a5 5 0 0 0 1.4-.5c1.7-.9 3.3-.6 3.1.5 0 .6-.5 1-2.6 1.9-1.3.6-1.6 1.2-.8 1.4.5.1.6.4.6 1.2 0 .9 0 1.1.5 1.1s1-.5 1.6-1.6c.3-.8 2.1-1.8 2.6-1.5.4.3.4 1.3 0 1.7l-1.4 2.2-1 2h-1c-.9.1-1 0-1.5-.6l-.4-.8-.8 1c-.4.6-1.2 1.3-1.9 1.6l-1.5.9-1 .5c-.6.2-.9 0-1.2-.4zm-85.2-.1c-.5-.7 0-1.5 1.5-2.8l1.5-1.2-.2-1c0-.6 0-1.2.5-2 1-1.8 3.7-4.8 6.3-7.3 2-1.8 2.6-2.5 2.6-3 0-.7 1.3-2.4 1.8-2.4.2 0 .3-.2.3-.5 0-1.4-1.9-1.5-3.1-.2-.5.4-.9 1-.9 1.2 0 1.3-2.4 2.7-5.2 3-1.7.2-2 0-1.8-.8.2-.6 2.4-2.1 3.4-2.4.5-.1 1-.4 1-.7l1.2-1.5c1-1.1 1-1.4-.2-2.3l-.8-.5-1.6.5c-.8.3-2.5 1.1-3.7 1.8-2.4 1.4-2.8 1.5-3 .9-.4-.9 3.3-3.4 7.2-4.9 1.2-.4 2.5-.2 2.9.5.2.4 1.2 1 2.7 1.8 1.3.6 2.9 1.6 3.5 2.2 1.4 1.2 1.7 1.3 2.6.6l.9-.6 1.8-1c1.4-1 1.6-1.2 1.2-1.4-.4-.2-1-.2-2 0-1.4.4-2.1.3-2.1-.3 0-.7.9-1.5 2.4-2 2-.7 2.8-.4 2.8 1v1l1.1-.4 1.3-.6a6 6 0 0 0 1.4-.8l1.4-.8 2.8-1.3a34.2 34.2 0 0 1 5.3-2.3c6-2.9 11-4.8 13.5-5.2 1.3-.3 1.3-.9.1-1.1-1.2-.2-1.7-1-1-1.8.4-.4.7-.5 2.3-.4 1.9.2 3 .7 3 1.5 0 .3.4 1 .9 1.5.9 1.2.9 1.2.3 2l-.5.6-.7-.6c-.9-.7-1.1-.7-4 .1a38.3 38.3 0 0 0-9 3c-.3 0-1.4.5-2.6 1a115.8 115.8 0 0 1-7.5 3.5l-1.2.6c-2.5 1.3-4.2 2.4-4.2 2.8 0 .1.3.4.6.5.4.2.6.5.5 1 0 .6-.6 1-2 1.5-1 .4-1.6.3-2.6-.6-.6-.6-1.3-.7-1.3 0l.6.7c.6.5.6 1 .1 1.6-.3.4-.8.5-3 .5l-2.6.1-.7.6c-7.7 6.5-11.4 10.8-11.3 13 .1 1.4-.2 2-1.7 3.3-1.5 1.2-2.2 1.5-2.8.8zm9.3-1.6c-.7-.5-.7-1.3 0-3 .4-.6.7-1.3.6-1.4l-.9-.3c-1-.2-1.6-1.3-1-1.9.4-.6 1.3-.5 2.1.1.9.7 2.4.7 3 0 .2-.2.4-.9.4-1.8 0-2.2 1.5-3 2.4-1.2.2.5.5.9.8.8.5 0 1-1.2 1-2.3 0-1.2.9-2 2-1.7.3.1.7 0 1.1-.4.7-.7 1.3-.7 1.9 0l.4.5 1-.4c.4-.1 1-.5 1.2-.7.5-.7 2.4-1.5 3.7-1.5 1.6 0 2.2.4 2.2 1.3 0 1-.6 1.5-2.3 1.5H140v.5c.5 2.3.4 2.4-.3 3-1 .8-1.6.7-2-.2-.6-1-1.7-2-2-1.8-.3.2-1 2.7-1.3 4.8-.3 1.8-.6 2.2-2.6 2.4-1.8.1-3.2.7-3 1.2.2.1.5.3.9.3 1 0 1.7.4 1.7 1.1 0 .9-.9 1.3-2.4 1.3-1.2 0-1.6-.3-1.6-1.3 0-.8 0-.8-1.8 0a73.8 73.8 0 0 1-3 1.4l-.7-.3zm-48.3-3.3c-2.5-.3-3.1-.8-2.5-1.9.3-.5 2.8-1.2 3.7-1 1 .3 1.7 1.5 1.3 2.2-.3.8-.8.9-2.5.7zm22.5-2.3c-1-.9-.3-2 1-2 1.6 0 2 1.5.5 2.1-.8.4-1 .4-1.5 0zm160.7-2c-.4-.3-1-.5-1.4-.5-.4 0-1-.2-1.2-.5-.2-.3-.8-.5-1.2-.5-.4 0-1.5-.6-2.8-1.5l-2.2-1.4-.9 1.4c-.4.7-.8 1.4-1 1.5-.5.4-1.4.2-1.8-.3-.5-.8-.2-1.7 1-2.9.8-.7 1-.8 1.8-.7l1-.1.6-.4c.7-.2 3.4 1 5 2l.8.6.7-.8c.5-.4.8-.8.8-1 0-.2.5-.8 1-1.4 1-1 1.2-1.1 2.2-1.1h1v-1.2l-2.2-.2-2-.2-.8.6c-1 .7-2.2.6-2.3-.3 0-.4 0-1.1.2-1.6.2-.8.5-1 1.4-1.5 1.3-.4 1.5-.7.8-1.2-.5-.4-.5-1.4 0-1.8.8-.7 4-.2 4.7.7 1.2 1.3.2 2.8-1.4 2a2 2 0 0 0-1-.3l-.7.1 1 .6c.5.3 1.2.6 1.6.6.6 0 .9.2 1.2.8.4.6.7.8 2.1 1 1.5.3 1.8.5 2.6 1.4 1.1 1.4 1.6 2.6 1.2 3.4-.6 1.2-2.2.4-3.8-2-.3-.4-.7-.6-1.2-.6h-.8l.4.9c.3.6.6 1 1 1 .3 0 .8.1 1 .4.5.6.5 1.5-.1 3l-.3.8-.8-.2c-.6-.1-.9 0-1.3.4-.5.4-2.6 1.3-3 1.3l-.9-.4zm15.8-1.5c-.4-.3-.8-.6-1-.6-.1 0-.7-.3-1.2-.8-1-1-1.1-1.5-.4-3.5.3-1 .5-1.3 1-1.3.6.1 2.6 1.8 3.3 2.8.7.8.7 2.7 0 3.4-.5.6-.9.6-1.7 0zm-116.7-.6c-.7-.4-.5-1.2.8-2.3 1.5-1.3 2.7-2 3.2-1.6.6.6.3 1.4-1 2.6-1.3 1.3-2.3 1.7-3 1.3zm9.2 0c-.2-.6.5-1.4 1.8-2.2 1.4-.7 2.7-1 3-.7.3.5.7.3 1-.6.3-.5.5-1 .7-1 0 0 .3-.2.5-.6.4-1 0-.8-1.4.4-1.3 1.2-2.8 1.5-2.8.6-.1-1.4.2-1.8 2.8-3.1 2-1.1 2.3-1.3 2-2.3-.1-.9.5-1.4 1.5-1.3l.7.1v1.2c-.1 1.2-.6 2.4-1.3 3l-.4.3.5.6c.6.7.7 1.5.3 1.8-.1 0-.5.8-.7 1.6-.4 1.1-.7 1.6-1.1 1.7-.9.4-1 .4-1.7-.3l-.5-.5-.5.4c-.5.4-2.9 1.2-3.8 1.2-.3 0-.5-.2-.6-.4zm68.4-.4c-.7 0-1.1-.3-1.3-.6-.2-.4 0-.7 1.1-1.5 1.6-1 3-1.2 3.4-.4.4.8.3 1.6-.3 2.1-.6.6-.9.6-3 .4zm-118.7-1.7c-.5-.5-.4-1.2 0-1.4.6-.2 1.3.5 1.2 1-.1.7-.8.8-1.2.4zm-14-.3c-.8-.6-.2-1.5 1.5-2.3 1.4-.7 1.8-.8 2.9-.7 1.9.3 3.2.2 5-.2l3-.6 1.5-.2.2.6c.2.9-.4 1.3-2.5 1.5-1 0-2.4.4-3.2.7-1 .3-2.2.5-3.5.5a8 8 0 0 0-2.6.3c-1.1.6-1.8.7-2.3.4zm113-1.2c-.4-.4 0-1.1.9-1.7 1.4-1 4-2 5.4-2.2 1.5-.3 2-.5 2.4-1.4.6-1.2.5-1.5-.4-1.8-1.8-.5-1.3-2.5.7-2.5.5 0 1.3-.2 1.8-.4l1.9-.5c1.7 0 1.5.6-.7 2.8a12.6 12.6 0 0 0-2.7 3.5c-1.2 2.6-.9 2.6 2.2-.2 1-1 2-1.7 2.2-1.7.2 0 .6.3 1 .6.9 1 1.2.9 2-.5s2.1-2.2 3-1.8c.3.2.5.5.5.6 0 .2.4.3 1 .2 1.3-.3 2.1.8 1.5 1.8-.3.5-2.4 1.2-3.2 1-.6-.1-1 0-1.9.8-1.3 1.2-2.2 1.4-3.1 1-.6-.3-.8-.3-1 .1-.9 1.6-2 2-2.4.9l-.2-.6-.6.6c-.5.6-1.6.7-1.8.3a7 7 0 0 0-2.3-.1c-1.8 0-2.5.1-3.6.7-1.4.7-2.2.9-2.6.5zm22.6-1c-.1-.5-.2-1.3-.1-1.8a64.2 64.2 0 0 1 8.3-15.2c2-2.9 6.3-7.1 8.6-8.4 2.4-1.3 4-2 5-2 .6 0 .7.1.7.7 0 .4-.2.7-1 1a56 56 0 0 0-5.5 3 43.4 43.4 0 0 0-6.5 7.2c-.4.4-1 1.4-1.4 2.2l-1.3 2.2c-1.1 1.5-4.2 7.6-4 8 0 .2.4.3.6.3 1 0 2 .6 2 1.3 0 .7-.9 1.2-2.1 1.5-.5.1-1 .4-1.2.6-.1.2-.6.3-1 .3-.6 0-.8-.1-1-.9zm67.3.2c-.5-.3-.3-1.2.3-1.3.8-.1 1.6.5 1.4 1-.2.5-1.1.7-1.7.3zm1.3-2.2c-.6-.3-.1-1 1-1.3 1.2-.3 9.5-1 9.7-.7v.7c-.3.3-.9.5-2.2.6-1 0-2.3.3-3 .4-1.6.4-5.1.6-5.5.3zm-40.2-.8c-.3-.1-.6-.5-.7-.8a5 5 0 0 0-.9-1.4c-.7-.9-.8-1.6 0-2 .2-.3.5-.7.6-1.2.3-1 1.5-1.6 3.2-1.9 1.5-.1 2.5.3 2.9 1.2.4 1-.8 2-2 1.6-1.2-.3-2.4-.3-2.4.2 0 .2.1.4.3.5.4.3 1 2.8.8 3.3-.3.6-1 .8-1.8.5zm2.9-.4c-.6-1.2-.2-3 .6-3.3.6-.3 1.6.7 2 1.8l.3 1-.7.6c-1 .8-1.8.8-2.2 0zm29.7-.7c-1-1-1.2-1.4-1.2-2.2 0-1.5-1-2.5-5.8-5.7-2.2-1.4-2.5-1.8-2-2.4l.3-.4 1.3.5c2 1 3.8 2.1 5.7 3.8l1.6 1.5 1-.4c1.5-.9 2.4 0 1.3 1.4l-.5.9.3 1.3c.4 1.8.3 2.2-.3 2.6-.4.2-.7 0-1.7-1zm-112.1-.1c0-.5 0-1-.3-1.1-.6-.5-.5-1.3.2-1.7 1.3-1 2.6-.3 2.5 1.4 0 .7-.3 1-1 1.5-1.2.8-1.5.8-1.4-.1zm20 0-1.6-.2c-1.2-.2-1.6-1-1-2 .4-.5.6-.6 1.4-.4l1.6.2h.7v-1.3c-.2-1 0-1.4.4-1.8.4-.4.7-.4 1.3-.2.5.2.7.5 1 1.7.7 3.2-.5 4.5-3.9 4zm44.5-.3c-.7-.9-.2-1.9 1.3-2.7 1.2-.6 1.9-.6 2.2.1.3.8-.2 1.7-1.3 2.4-1.2.8-1.6.8-2.2.2zm-99.6-.5c-.7-.8-2-1.2-3.8-1.2h-2v-1c-.1-1.1 1-1.8 3.2-1.8 2.1 0 3.9.8 4.6 2.3.5.7.4 1-.2 1.6-.6.7-1.4.7-1.8.1zm175.6-1.7c-.6-.3-.6-1.4 0-2 .5-.4 1-.5 1.4 0 .7 1-.4 2.6-1.4 2zM214.2 227c-.1-.3 0-.8.4-1.4.3-.4.5-1 .5-1.3 0-.2.2-.7.5-1l.5-.6.7.3c.6.2.7.5.7 1.4 0 1-.2 1.3-1 2.1-1.3 1.1-2 1.3-2.3.5zm96-.7c-.6-.5-1-1.3-1.1-2.3-.2-.8-.7-2-1-2.5-.8-1-.8-1.7-.3-2.2 1-.8 2.3.7 3.3 4.1.2.6.5 1.3.8 1.5.2.3.3.8.3 1.2-.2 1-1.1 1.2-2 .2zm-157-.1c-1-.7-1-1.1-.3-1.8 1.2-1.2 2.8-.3 2.6 1.3v1h-.9c-.4 0-1-.2-1.5-.5zm185.3-.4-.4-.5.4-.3c.7-.5 1.1-.5 1.3 0 .2.5-.2 1.2-.6 1.2l-.7-.4zm-21-1.8c-.2-.4-.6-1.3-.8-2.2-.6-3-.9-3.6-1.8-4.8-1.4-2-.8-3.5.9-2 1 .8 2.4 3.5 2.7 5.4l.6 2.4c.2.6.2 1.2.2 1.4-.3.6-1.2.5-1.7-.2zm-312.9-.2v-.7c.3-.5 3.5-2 6.4-3a240 240 0 0 0 9.7-3.7c2-.8 3-1 3.5-1 1 .3.4 1.1-1.4 1.8A123.8 123.8 0 0 0 16 220a110 110 0 0 0-9 3.9c-1 .6-2.2.6-2.4 0zm156.4-.4-.1-.8c0-.7-.8-1-1.9-.7-.4 0-1 0-1.3-.2-1.4-.7 0-2.4 2.5-3l1.5-.2.7.6c1 1 1.3 1 2.6.2 1.5-1 2.8-1 3.4-.1.5.8.3 1.4-.6 1.6l-1.7.4c-.5.2-1.3.3-1.6.2-.5-.1-.8 0-.9.3-.4 1.4-2 2.3-2.6 1.7zm139.4-.3c-.4-.2-.6-.4-.6-.6 0-1.6 3.3-2.4 4.3-1l.4.6-.5.5c-.5.5-2.8.8-3.6.5zm-81-.6c-.6-.1-.7-.3-.7-1v-.7l1.6-.4a36 36 0 0 0 6.7-2.3l.7-.4-2.3.2c-2.8.2-3.4 0-3.4-.8 0-.5.2-.7.7-.9.8-.2 5.3-.2 8.2.1 1.4.1 2.3 0 3.3-.2 1.6-.5 5.1-.6 5.4-.2v.8c-.2.4-.6.5-2.9.6l-2.7.2-.8.9c-1.1 1.3-4.2 2.4-5 1.7-.7-.6-4.6.9-4.6 1.7l-.3.6c-.4.2-3.1.3-4 .1zm53.5-1.3c-.4-.7-.2-1.5.5-1.9.9-.5 3.7-1 4.6-.7 1.1.2 1.4.6 1.3 1.7v.8l-1.7-.1c-1 0-2.2 0-3 .3l-1.3.4zm-132-.2c-.6-.2-.5-1.2 0-1.9.4-.3 1.2-.9 1.9-1.2l1-.7c-.3 0-.6-.3-.7-.8-.2-.5-.5-.8-1-.8l-.7.3c-.4.6-1.4.3-2-.6-.6-1-1.1-1.2-2.9-1.2h-1.2l-.9 1-1 1-3.4.4c-2 .1-3.7.2-3.8 0-.4-.2-.3-1 .2-1.5.3-.3 1.5-.8 2.8-1.3l3-1.1 3.5-.8 2.5-.4 1.4-1.3a7 7 0 0 1 2.1-1.5 60.8 60.8 0 0 0 7.4-2.6c1-.7 1.9-1 3.2-1l2.9-.5 1-.3.8-1.6 1.3-2.7c.6-1.4 1.3-2.1 1.9-1.9.5.2.5.8 0 2.2l-.3 1.4c.2.4 1.5.1 3-.5l2-.8 1.8-.9.8-.5.5.5c.8.6.7 1-.5 1.9-.5.4-1 .8-1 1l-.6.1c-.3 0-.6.2-.6.4-.2.4 0 .4 1 .3.7-.2 1.3-.1 1.5 0 .2.2 1 .7 1.8 1 1.1.7 1.4 1 1.4 1.5 0 1-.7 1.2-1.8.7-.5-.3-2-.6-3.1-.7-2.7-.3-4.3-.6-4.8-1s-2.3-.2-2.3.3c0 .2.4.5.8.8l1.9 1.4c.8.8 1 1.1.9 1.6-.3.8-1 .7-2.4-.2-1.3-1-1.5-1-2-.4-.3.3-.7.4-1.7.3-1-.2-1.5-.1-1.7.2-.4.5-1.9.6-1.9.2l-.2-1-.3-.6-1.3.6a6 6 0 0 0-1.5 1l-.7.5c-.5.1-.4.2.5.3.6.1 1.4.6 1.9 1l1.4 1c.4 0 .5.3.4 1 0 .6.1 1 .3 1.1.2 0 .3.5.3 1 0 .7-.1 1-.5 1-.3.2-.7.2-.8 0-.5-.2-2 .4-3 1.3l-.8.8-2.1-.2c-2.3-.2-2.8 0-2.2.6.5.5.5 1.6 0 1.8-.3.3-2.8 1.2-3 1.2l-.5-.2zm8.5-7.2c.5-.3.9-.8.9-1 0-.5-1-1.1-2-1.3-.6-.1-1.2-.4-1.4-.8-.7-.8-1.2-.8-2.1 0a3 3 0 0 1-1.6.4c-1.2 0-1.7.3-1.4.7l.7.4c.2 0 .5.3.7.8.2.6.5.8 1.4 1 .6.2 1.5.3 1.9.3.4 0 .9.1 1.1.3.4.2.6.2 1.8-.8zM1.7 220.5c-.5-.4-.7-1.3-.4-2 .3-.8 2.7-2 3.8-2 .4 0 1-.2 1.5-.4l3.7-1.3c4.5-1.2 7.4-2.1 7.4-2.3 0-.8-1.2-1.6-6.7-4.4-2-1-2.6-1.2-3.9-1.2-1.3 0-4.6-.6-5.6-1-.7-.2-1-1.2-1-3.5s.2-2.6 1.4-2.1c.5.2.8.5 1 1.3.1.6.4 1.1.6 1.3.6.4 2.7.8 4.2.8.9 0 2 .3 3 .7.9.4 2.2.9 3 1l2.2.8 1.8.4 3 .5 3.4.5c.6 0 1.5.4 2.2.7 1 .4 1.6.5 3.3.3a28 28 0 0 0 3.5-.5l1.8-.3c.2.1 1 0 2-.4 1.8-.6 2.7-1.5 2.2-2-.4-.4-1.2-.4-3.2 0-3 .7-7.3 1.3-8 1.1-.6-.1-.6-.2-.4-.6.3-.7 1.8-1.1 6.8-2 2-.4 4.3-1 5-1a4 4 0 0 1 1.9-.2c.8.3 2.1-.7 3.4-2.7 1-1.3 1-1.7.8-1.8-.3 0-1.7.3-3.3.9a59 59 0 0 1-8.6 2.2c-3.2.7-4.9 1.1-10 2.8-2.6.8-3.5 1-3.7.8a.7.7 0 0 1-.2-.7c.2-.4 3.2-1.6 5.7-2.2a40 40 0 0 1 7.9-2.2c6.6-1.4 9-2 10.9-3 .6-.2 1.7-.5 2.4-.5h1.2l1.6-1.5c1.2-1.2 1.5-1.7 1.5-2.3 0-1.5 1-1.9 2.3-.8.6.5 1.1.6 3.2.7 3.3.3 4.5.6 4.9 1.4.4 1 0 2-.7 2.1a2 2 0 0 0-1 .8c-.7.9-2.1 1.3-4.1 1.1-1 0-2-.3-2.2-.4-.3-.2-1-.3-1.4-.3-.8 0-1.2.2-2.3 1.5l-2 2.5c-.4.5-1 1.2-1.5 1.5-.4.4-.8.9-.8 1.2 0 .6 0 .6 4.5-1a647.8 647.8 0 0 0 13.2-5c.7-.6 2-1.2 4.2-1.8a27220.8 27220.8 0 0 1 8.2-2.6c1.3-.3 1.8-1.2 1.5-3a6 6 0 0 1 .5-3c.5-1.3.8-2.6.9-5l.2-3.3.5-.4 1.8-.6c1.4-.4 1.7-.8 1.2-1.5l-.4-.5-1 .3c-1.3.4-2 .2-2.5-.7-.4-.8.4-4.4 1.3-5.7.4-.6 1-2 1.4-3.1.7-2.5 1.6-3.6 4.2-5.4 1.6-1 2.2-1.3 3.6-1.5.8 0 2.2-.4 3-.7a27 27 0 0 1 3-.8l2-.6c.2-.2 1.5-.4 2.8-.5l2.4-.1.7-1.2c.7-1.3 1.2-1.6 3.6-2.3l3.3-1.2c1.8-.7 1.8-.7 1.4-2.5-.4-2 1.4-2.3 3-.7l1 1 3-1.5a32 32 0 0 1 3.6-1.6l.7-.2-.1-.8-.4-1.4c-.1-.6 0-.7.6-1 1-.4 1.7 0 2.2 1l.4.9.3-.8c.3-.6.6-.8 1-.8.8 0 1 .3 1.7 2 .3.8.7 1.3 1 1.4l1.9 1.2 1.3 1 1.1-.1 2.1.1 1 .3.8-1c1-1.2 2-1.4 2.8-.6.4.4.9.7 1.1.7.3 0 .6.4.8.8.2.4.9 1 1.5 1.5 1.4 1.1 1.6 2.3 1 4.2l-.5 1.2.5.7c.6 1 .6 3.8 0 5.6-.5 2-1.2 2.7-2.7 3.1-2.7.8-2.6.8-3.7-.6a7 7 0 0 1-1-2.1c-.3-1.3-2.2-3.5-3-3.5-.8 0-2.6 1.8-3 3.1l-2.3 4.8c-2.1 4.1-2.3 4.8-1.5 7a5 5 0 0 1 .1 2.8c-.2 1-.2 1.8 0 2 .1.1.9 0 2-.1 1.5-.3 4.6-.6 8-.8.2 0 .5-.3.6-.7.4-.8 1-1 4.6-1.9a234.7 234.7 0 0 0 7.8-1.7 65.5 65.5 0 0 0 9.2-1.8 56.7 56.7 0 0 1 59.5-7.6c1.1-.2 1.4-.5.9-1-.2-.3-.2-.5.2-.9.6-.6 1.7-.7 7.5-1l5.4-.2 10-.3a292 292 0 0 0 15.7-.7c.8 0 .8-.6 0-1.2l-.7-.5h-6.4a231.2 231.2 0 0 0-36 2.6l-3.1.3v.9c0 .6-.1.9-.6 1a53 53 0 0 1-6.7 1l-4.4.7c-2.7.6-8.9 1.2-9.2.9-.6-.6.3-1 2.7-1.3 2.5-.3 4.7-1 4.7-1.2 0-.2-1.2-.2-5 .3l-5.1.5c-2 .1-3 .3-3.6.7-.7.5-3.8 1-8.1 1.4-4 .4-8.6 1-11.8 1.8-3.2.7-4.3.6-3.6-.3.2-.3 1.4-.7 4.5-1.2a152.2 152.2 0 0 1 10.3-1.7 151.4 151.4 0 0 1 27-4A872 872 0 0 1 242 158l13.3-.2c5 0 9.6 0 10.4-.2l1.5-.2H266c-1 0-1.2-.2-1.2-.6 0-.3.3-.6.6-.7 2.8-.6 5-.7 13.4-.7 11.6 0 12.9.2 12.7 1.5 0 .6 0 .6-4.2.3-3-.2-15.9-.1-17 .1l-1.1.2 1 .3c.6.2 1.5.3 2 .3l1.9.4c.8.3 1.4.3 2.6.1 2.2-.3 6.2-.3 6.6.1.6.6.4 1.3-.4 1.4h-4.1c-1.9 0-3.9 0-4.4.2l-.9.2.4.5c.4.4 1.4.5 6.4.7l5.9.2 1-.6c.8-.4 2-.6 3.7-.7l2.6-.2 1-.9a5 5 0 0 1 1.4-.9s.4-.3.6-.8c.2-.5.7-1.3 1.3-1.8.7-.6 1-.7 1.5-.6.7.3 1.7 0 2-.7.4-.7 0-1-2.7-1.1a27.8 27.8 0 0 0-9.3-.4c-2.3.1-8 .3-12.6.3-4.5 0-10.8.3-13.8.5a537.3 537.3 0 0 1-16.3 1.2 327 327 0 0 0-27 2c-2.8.2-8.2.5-12 .5a111.2 111.2 0 0 0-14 1l-5.1.5a254.9 254.9 0 0 1-15.9 1.8c-2.9.5-8.4 1-9 .9l-2.2.4-4 .9c-1 .1-2.4.4-2.9.6-1 .4-2 .5-2.5.2-.2-.1-.4-.5-.7-1-.6-1 0-1.3 3-1.3l3-.2a23 23 0 0 1 3.5-.6 137.9 137.9 0 0 1 20.9-2.8c2.1-.1 4.5-.4 5.2-.5l4.2-.4c1.7 0 4.3-.3 6-.5a119.3 119.3 0 0 1 10.7-1c1-.1 6.2-.3 11.6-.3a149.9 149.9 0 0 0 16-.9 1239.8 1239.8 0 0 0 30.9-2l2.8-.4c.2 0 2.5-.2 5.2-.2s6-.2 7.1-.4c2-.3 12.5-.3 19.9 0l2.6.2.9-1c.4-.6 1-1 1.3-1 .3 0 .5-.2.5-.4 0-.3-.3-.4-1.4-.4-.8 0-1.7 0-2-.2-.4-.1-.5 0-.7.5-.2 1-1 1.4-1.9 1l-3.5-.4c-1.6 0-3-.2-3.1-.3l-1.8-.3a235.7 235.7 0 0 0-34.7 1c-2.1.2-2.6.1-3.3-.5l-.5-.4-6.1.3-9 .6c-9.1.8-11.9 1-14.5 1.6l-1.4.3-.4-.5c-.5-.7.2-1.3 1.6-1.5a167.6 167.6 0 0 1 19.3-1.9 357.4 357.4 0 0 1 28-.7H286c5-.1 6 0 9.2.5.8.2 2.1.2 3 .1l1.7-.2-1-.2a155.2 155.2 0 0 0-15.4-1.4c-6.2-.1-7-.2-7.4-1-.3-.4-.8-.7-1.8-.8-3.5-.5-20-.6-24.2-.2-4.3.4-10.1.6-13.2.3-1.7-.2-2.2-.1-2.6.2-.3.4-1 .4-3 .4-1.3 0-3-.2-3.8-.3-.7-.2-1.5-.2-1.6-.1-.4.2-3.5.6-7.9.9l-3.8.4c-.7.2-1.6-.4-1.4-1 .1-.2.6-.5 1-.7.7-.2-.3-.3-4.5-.2a110.2 110.2 0 0 0-18.5 1.7 129 129 0 0 0-13.5 2c-1.8.2-2.2.1-2.2-.2 0-.2.4-.6.8-.8 1.4-.7 7-1.8 12-2.3 2.3-.2 7.8-1 12-1.6 2.7-.4 11.1-.7 15.4-.5 3 0 4 0 5.2-.3.7-.3 2.1-.6 3-.8l1.8-.3-1.8-.3c-2-.3-2.5-.7-2.2-1.3.2-.5 2.6-.6 3-.2 0 .2.4.3.8.3l1 .2c.1.3 1.4.6 1.4.3l-2.5-1-3-1.1c-.4-.4-.4-1.2.2-1.4.7-.2 5.5 1.5 7.5 2.6l2 1c.2 0 .7.1 1 .4 1 .7 2.3 1 2.2.5 0-.2-1.4-1-3-1.8a19.7 19.7 0 0 1-6-4.3l-2-2c-.8-.8-1.7-2-1.9-2.5-.5-1.2-3.3-4.7-4.4-5.4-.5-.3-1-1-1.2-1.7-.3-.8-.7-1.2-1.2-1.5l-1.5-.7c-.6-.3-.9-.3-1.5 0-.4.2-.9.3-1 .2a293.8 293.8 0 0 1-5.7 1.2 7 7 0 0 0-2.5 1l-.4.4.8 1.2c.7 1 .8 1.4.7 1.7-.6.8-1.2.6-2.6-.9-1-1-1.7-1.5-2.5-1.8-1.4-.4-2-1.4-1.2-2 .3-.2.7-.3 1-.2 1.6.5 1.8.5 2.6-.4.6-.5 1.2-.8 1.9-.9 1.8-.2 3.8-1.6 3.3-2.2-.5-.4-3.5-.8-5-.6-2.5.3-6.2.3-11.4 0-3.3-.2-6.8-.2-12.5 0-8.9.3-13.8.9-14.7 1.7-.8.8-2.2.7-3.1-.2-.4-.3-1.3-.9-2-1.2l-1.2-.6-4 .1c-2.1 0-4.8.3-6 .6a1269.5 1269.5 0 0 0-28.6 5.9c-1.4.2-3.8 1.1-4.8 1.8-1 .5-1.7.8-4.3 1-2.8.4-3.6.5-4.2.8-.8.5-1.3.2-2-.8-.6-.9-1-.8-1.7.4-.5 1.1-1.5 1.7-2.2 1.3-.4-.2-.5-.4-.3-1.4 0-.9 0-1.2-.4-1.6-.6-.5-.2-.5-9.4.1-6.4.4-11.8 1.4-15.4 2.8-1.8.8-4.1 1.4-6.2 1.6-.9.1-2 .5-2.8 1l-1.4.7-2.6.1c-2.4.1-3.5.4-6.8 1.5l-2 .5c-3.5.9-5.2 1.5-6.2 2.1-1.6 1.1-2.5 1.5-4.1 1.9l-2.8.8c-1.6.6-4.3 1.2-6 1.5-1.4.2-2.3.7-2.3 1.4 0 .9-.6 1-3.5 1-1.6 0-3.2.2-3.6.3-.7.3-3.2.7-9.5 1.6a80 80 0 0 0-5.1 1c-3.7.8-5.3 1-5.7.6-.5-.3-.6-1.5-.2-1.7.7-.4 7.4-1.6 13.5-2.3 1.2-.1 3.1-.5 4.2-.8l2.8-.5a67.7 67.7 0 0 1 11-3.2c3.5-.8 6.5-2.2 6.6-3 0-.4-.2-1-.5-1.7-.6-1.2-1.5-1.6-3.7-1.6-1.2 0-1.7.1-2.1.5-.7.8-1.5.7-2-.1 0-.4-.3-.7-.4-.7-.2 0-1.2 1-2.3 2.1-2 2.2-4 3.4-4.6 2.8-.5-.5 0-1.6.8-2 1-.6 3.2-2.6 3.2-3 0-.6-1.3-1.5-2.1-1.5-.9 0-1.1-.4-.8-1.2.4-1 1.6-1.4 3-1.1 1.5.2 3.3 1 4.5 1.8l.7.5 3-.2c3.3-.1 3.8 0 5.3 1.7.7.9 1 1.5 1 2.1v1l.8-.2c2-.4 7-2.2 7.2-2.6.2-.3.1-.9-.3-2l-.6-2.3c0-.8-1.6-2.6-2.6-3-.6-.2-1-.8-1.6-1.8-.4-.8-1-1.6-1.2-1.6-.2 0-1-.7-1.8-1.5a6 6 0 0 0-2.8-1.9c-2-.6-3.5-.5-4.7.2l-1 .5-1.3-.4c-.8-.3-1.8-.4-2.5-.3A10 10 0 0 1 26 116a36 36 0 0 1-2.2-1.8l-1.4-1.3h-2c-1-.1-2.3-.4-2.8-.6-2.8-1.4-4.6-2.5-5-3.2l-.4-.7.5-.5.4-.4 1.4.7 1.4.7-.1-.7c-.2-.3-.3-1-.3-1.4 0-1 1-2.8 1.6-3 .6-.2.7-.9.1-1-.3-.2-1-.1-4.1.5-.7 0-.8.2-.8 1v.9l-2 .7c-1.3.4-2.3.8-2.4 1-.3.4-.9.1-1.2-.6l-.7-1c-.1 0-.3-.4-.3-.8 0-1.2 2.8-2.7 6.7-3.5 3.1-.7 4.5-.7 6.7-.1a235.4 235.4 0 0 0 4.5 1.2l1.5.7c1 .4 1.2 1 .5 1.7l-.6.6 1.7 1.5c1.8 1.6 3.7 2.8 4.3 2.8.3 0 .3-.1 0-.7-.3-1 .5-3.2 1.3-3.6.8-.3 1.2 0 1.2 1.4 0 2.2 2 4.1 5.2 5a19.9 19.9 0 0 1 7.8 3.8c1.5.9 2 1.7 2.1 3l.1 1 1.2.6c1.1.6 1.3.8 1.7 2 .5 1.4 2 3.2 3 3.7.4.2.8.7.9 1 .3 1.4 1.5 2.9 2.3 3 1.8.4 2.4-.4 1.8-2-.6-1.3-.5-2.2.1-3.2l.5-1-.3-2.1-.4-4.1-.1-2-.7-.1c-.3 0-.8-.6-1.2-1-.6-1.1-1.5-1.7-3-2-1.5-.1-2.4-.8-3-2.3-1-2.2-.3-2.7 2.7-2.2 2.6.4 3.2.6 4.4 1.5.5.5 1.4 1 1.9 1 .5.2 1 .6 1.2.9.5 1 1.2 1.6 1.8 1.6.3 0 .9-.3 1.4-.7 1.2-.9 1.1-1.7-.2-2-1.2-.5-2.9-2.3-2.9-3.2 0-1.5 2.6-1.4 3 0 .1 1 1.8 1.6 2.6 1.1.6-.3 1.3-1.7 1.3-2.7 0-.8.6-1.3 1.4-1.1 1 .2 1.4 2.5.6 3.6-1 1.3-.3 1.7 1 .7l.8-.7-.3-.9c-.4-1.1-.4-1.1 0-1.6.6-.6 3-.6 3.4 0 .3.4.2 1.5-.4 3-.2.5 0 .5.5.5 1 0 1.6-.4 2-1.5.4-1.3 1.2-2.2 2-2.2.7 0 1 1 .6 1.9-.2.4-.1.7.8 1.6l1 1 1.2-.2c1.5-.3 2.3.2 2.3 1.2 0 1.2-.7 1.4-3.9 1a193 193 0 0 0-4.8-.6 6.6 6.6 0 0 1-2.5-.6c-.3-.2-.6-.3-.6-.1l-.6 1c-.5 1-2 1.5-4.3 1.9-.5 0-1.4.4-2 .7l-2 1.2-1.1.5-.2 1.3c-.2.9-.2 1.8 0 2.8.2.8.4 2.2.4 3.2.1 2.1 1.2 4.6 2.2 5 .5.3.8.3 1.3 0l1.4-.3c.5 0 1.4-.2 2.1-.5a78.4 78.4 0 0 1 16.5-3.4 48.5 48.5 0 0 1 13.9-.7l2.2 1.2 1.7 1 1.3-.6c.9-.4 2.3-.7 3.8-1 1.4 0 2.8-.3 3.1-.5l3.1-.6 4.2-1 4.4-1a78 78 0 0 0 7.5-1.3l1.9-.3 3-.7a171.7 171.7 0 0 0 9-1.7l3.6-.6c3.3-.8 8.3-.5 10.5.7l1 .6 1-.4a393.5 393.5 0 0 1 37-1c1.3-.5 2.7-.3 6.7.9l4.1 1c1.2.3 2.7.9 3.7 1.5l2.4 1.2c.8.1 1.8 1.1 2 2 .2 1 2.6 2.8 3.3 2.8 1 0 2.4 1.2 5.5 4.4a35.8 35.8 0 0 0 5.7 5.2c.7.7 1.9 1.6 2.5 2l2.3 1.4c1.6 1.1 4.3 2.4 5 2.4.8 0 2 .4 2.7 1 .9.8 3.3 1 8.7.9 5-.2 13 .1 22 .8 2.5.1 7.2.4 10.7.4 3.7.1 6.4.3 6.7.5 1.2.6 6 .8 10.6.4h4.4c1.6.1 2.3 0 3.8-.4 2-.7 2-.8 2.4-2.4 0-.6.4-1.1.9-1.5.4-.3.9-1 1-1.3.3-.5 1-1.2 2-1.9a5.3 5.3 0 0 0 2.3-2.4c.7-1.5 2-2.6 3.2-2.6l1.6-.4c.8-.3 1.4-.3 3.6 0 2.8.3 3.5.1 3.5-.9l.4-1.7c.5-1.3 1.2-1.8 3.4-2.5a136.6 136.6 0 0 0 9.2-3.7c1.6-.9 2.3-1 3.5-.5.7.2 1.2.2 2.8-.3a17 17 0 0 1 4.1-.7c1.2 0 2.7-.3 3.4-.5a12 12 0 0 1 3.6-.5c2 0 2.4 0 3.1-.6.5-.4 1.3-.8 1.8-1a6 6 0 0 0 1.5-.8c1-.8 1.5-.9 8.3-1.2l5.8-.5.9-1.2c.5-.8.6-1.2.4-1.5-.6-.9-.4-1.3.9-2.2l1.1-.8v-.8c-.2-.5 0-1.3.4-2.2.7-1.5 1.5-2.2 2.4-2.2 1 0 1.9-1 2.5-2.7.4-1 1-2 1.7-2.7 1-1 1.2-1.4.5-1.6l-2.1-.8a6.9 6.9 0 0 0-4.7-.4c-1 .4-2.1.4-2.8-.1-.5-.3-1-.4-2-.3a6 6 0 0 1-2.7-.2L379 96l-.7.4c-1 .5-1.8.5-3.4.1-1-.2-1.3-.2-1.7 0-1 .7-2 .8-2.6.4-.8-.4-2-.4-2.3 0l-1.2.5c-.8.2-1.2.2-2-.2-.6-.2-1.4-.3-2.3-.2a6 6 0 0 1-2.8-.3l-1.4-.4-1.2.4c-1.5.6-2 .6-2.8-.1l-.6-.6-2.1.7c-2.4.8-3 .8-4.3.2l-2.5-.6A6 6 0 0 1 342 95c-1.3-.9-1.8-1-2.7-1a4 4 0 0 0-1.5.2c-.3.1-.8 0-1.6-.3-1.3-.6-1.6-.7-6.1-1-2.4 0-3 0-4.1.4l-1.4.6-1.4-.5a7.2 7.2 0 0 0-3.6-.4c-1.6.1-2.4 0-3.2-.2a5.3 5.3 0 0 0-3.6-.2c-1.5.5-6.2.9-17.2 1.2a145.8 145.8 0 0 1-22.8 1l-16.7.2-1.4-.4a70 70 0 0 0-6.8-1.7c-1-.3-3-.7-4.6-.8-1.5-.2-3.3-.4-3.9-.6l-2.6-.2c-.9 0-2.4-.2-3.5-.4-3.2-.7-8.1-1.2-13.4-1.5a1226 1226 0 0 1-19.7-1l-7-.1a55 55 0 0 1-5.7-.3c-.7-.2-.7-.9 0-1 1.8-.5 12.4-.3 24 .3l9 .5c4 .2 8 .6 13.8 1.4a267.1 267.1 0 0 0 11 1.3 118.7 118.7 0 0 0 9.3 1.8l2.5.6 16.1-.1a328.8 328.8 0 0 0 38-2c1.4-.6 4.4-.6 6.2 0h2.9c1.4 0 2.3 0 3.1.3l1.2.4 1-.4c.6-.3 1.7-.4 4-.3h6.5c.4 0 .9.2 1 .5l.5.6 1.4-.2 1.5-.1 2.2 1.1a12 12 0 0 0 6 1.5c1.3 0 3.6-.4 4.7-.9 1.3-.6 2.2-.5 2.9 0 .5.4.8.5 1.5.4.6-.2 1.2 0 2.5.5l1.8.8 1.1-.5 1.1-.5 1 .5 1 .5.9-.5c.6-.3 1.5-.4 3.5-.5 1.5 0 4 0 5.8-.2 2.2 0 3.3 0 3.7.2.3.2 1.6.3 3 .3 1.2 0 2.5.2 2.8.3.3.1 1.5 0 2.8-.1l2.4-.4 1.5.9 1.5.9h5.5l1.6-1.6c1.2-1.2 2-1.8 3-2.1.7-.3 1.4-.7 1.6-1.1 1.8-2.8 2.3-3.5 3-3.7l1.8-1.1c1-.8 4.1-2.2 4.8-2.2l2-.7c.9-.4 2-1 2.6-1 .8-.3 1-.6 1.3-1.3.4-1.2 1-1.6 2.1-1.2.6.3 1 .2 2-.1.7-.2 1.5-.7 1.8-1 .2-.2.7-.5 1.1-.6l3.6-1.1c1.5-.5 3-1 3.5-1 1 0 2.6.6 3.2 1.2a8 8 0 0 0 4 1c2 0 4 1.2 4 2.3 0 1.2-.7 1.4-2.7.7l-2-.6c-3.3-.8-3.9-1-4.5-1.4-1.2-.7-6.3-.2-6.3.7 0 .2.2.4.6.5l2.1.7c.9.3 2.2.6 3.1.6.9 0 2.1 0 2.8.2 2.7.6 2.6.6 2.6 1.7 0 .5.2 1 .3 1.3 1 1.1.4 2.1-1.3 2.5-1.3.4-1.9.3-2.6-.4-.4-.3-.4-.5-.2-1s.5-.6 1.2-.6c1.1 0 1.4-.5.3-.7l-3.1-.5a21 21 0 0 1-3.6-.9c-3-1.2-3.6-1.4-5.3-1.4-1.8 0-4.2.8-4.8 1.5a3 3 0 0 1-1.2.7c-.6.1-1 .4-1 .6 0 .2.1.4.3.4.8 0 1.4 2 .7 2.6-.5.5-2.8.4-4.2-.3l-1.3-.5-1.7.5c-3.1 1-4.4 2.5-3 3.7l.4.5h3.9c4.3 0 5.4.3 5.4 1.3 0 1.5-1.5 1.8-5 1l-3-.3c-1 0-1.1.2-1.2.8 0 .4-.3.9-.6 1.2l-.5.4-2.6-.3-2.5-.3-.8 1-1.9 1.3-1 .6 1 .1 1.9.4 2.7.2c1.3 0 2 .1 2.3.4.6.6.3 1.5-.6 1.7-.8.2-5.9-.3-7.3-.8-.8-.2-1.6-.3-2.8-.2-1.3.2-1.8.4-2.5 1.1-.5.5-1 1.3-1.2 1.7l-.3.8.8.7c2.7 2.6 3.6 3 5.2 2.5.6-.2 1-.2 1.8 0l1.6.4c.3 0 .8.2 1.1.4 1.3 1 .2 2.5-1.3 2a5.8 5.8 0 0 0-3.7-.3c-1.2.3-1.6.3-3-.1-.9-.2-2.7-.6-4-.7l-2.6-.2-.7.8c-.4.5-.7 1-.7 1.2 0 .3-1.5 1.7-2.8 2.6l-.7.4.4.6c.5.7.2 1.3-1.1 3.4-1.3 2-1.9 2.2-3.4 1.7-2-.7-5.2-.4-5.4.4 0 .6.7.8 3 .8h1.8l.2.7c.6 1.4-.9 2.7-2.2 2-.2-.2-1.6-.5-3-.7-1.3-.2-2.8-.6-3.2-.8-1-.5-3.5 0-3.5.9 0 .3 2.5.8 3.8.8 1.3 0 2.8.8 2.8 1.6l-.4 1c-.5.4-2.3.4-5.1-.2l-3.3-.6c-2-.3-2.8-.6-4.2-1.5l-.9-.6-2.5.4c-3.1.5-3.4.6-4.3 1.6l-.7.7h-4.3l-4.3-.2-.5 1c-.8 1.6-2 2-3 1.2-.3-.2-1-.2-2.1 0l-2.8.5c-1.4.2-2 1.1-2.3 3-.1.9-.3 1.8-.5 2-.5.6-2 1-3.8 1-1.8 0-2 .3-1.4 1.5.6 1.2.5 1.8-.8 3.7l-1.2 1.8-1.2.2-4.8-.1c-4.2-.4-4.5-.3-5.2 1.9-.6 1.8-.5 2.2.5 2.2l4.9.4c4.3.3 5 .6 4.5 1.6-.3.6-1.1.7-2.7.4l-2.7-.2a74 74 0 0 1-8.3-.4c-.6-.1-1 0-1.6.6l-1.3 1.4c-.2.4-.7 1.2-1.3 1.7l-1 1.3-1 1-1.2.6 1 .3h2.4c1.7 0 2.5.2 2.7 1 .3 1-2.6 2.5-3.1 1.5l-1.3-.2c-.6 0-1 0-.7.2.6.1.6 1 .1 1.3-.2.2-1.2.4-2.2.5-1.5.1-1.9 0-2.3-.3l-.4-.5-.8.4c-.4.3-1 .5-1.4.5-.8 0-2 1.3-2 2.2 0 .4.2.8.5 1 .6.3 1.2.2 4-.4l1.9-.5 1 .7c1.6 1.1 1.3 1.6-1 1.8-1.2 0-2.9.3-3.9.5-1.4.3-2 .3-2.6 0-1.2-.5-3.4-.8-6-1l-2.4-.1-1 .7c-1.6 1.3-1 1.7 3 1.7 1.8 0 2.3 0 2.9.6.5.4.7.7.6 1.3 0 .8-.2.9-1 1-.4 0-1-.1-1.4-.3-.4-.3-1.3-.4-4-.4l-3.5.1-1.1.6-1.8 1c-.3.2-1.2.4-2 .5l-1.3.2-1 1.4-.8 1.4 1.2.4c1 .3 1.7.4 5.2 0 7.3-.5 8.5-.3 8.3 1v.6h-1.8c-1 0-2.3.3-3 .5-.8.3-1.7.4-2.1.3-.4 0-1.2 0-1.8.3-.8.2-2.5.4-5.4.5l-4.2.2-1 .7c-1 1-1.5 1-4.3.3-4.6-1.1-4.7-1.1-6.1-.8-.7.1-2 .6-2.8.9-3.8 1.6-4.2 1.8-4.6 1.4-.6-.4-.4-1.3.2-1.8 1.2-.9 2.7-1.6 4.2-2.1.8-.3 2-.7 2.4-1l.9-.4 1.6.3 1.7.3.8-.8c.4-.4.8-.8 1-.8.4 0 1.1 1 1.1 1.6 0 .3 0 .5.2.5 0 0 .9-.7 1.7-1.6l1.6-1.7-.6-.1c-.7-.2-1-.7-.6-1.3.2-.2 1.2-.6 2.3-.8 1.2-.3 2.7-1 3.5-1.4a5 5 0 0 1 3.3-.8h1.8l1-1.1a9 9 0 0 0 .9-1.3 114.2 114.2 0 0 0-31.7-.6c-.6.5-3.5 1-7.2 1-1.6 0-3.7 0-4.7.2l-5.2.5a207 207 0 0 0-26.3 3 75.4 75.4 0 0 0-10.7 1.1c-.2-.1-8 1-9.6 1.4l-8.9 1.4a288 288 0 0 0-26.3 5.2 257.7 257.7 0 0 0-19.4 3.8l-3.6.6c-.6.2-2.5.7-4.2 1a84.2 84.2 0 0 0-9.3 2 48.2 48.2 0 0 0-8.6 2.2c-.8.2-2 .6-2.8 1l-3 .9c-1 0-3.5.8-5.7 1.5l-7.8 2.4-14.5 4.2c-2.8.8-4.5 1.5-4.6 2h-1.4c-.9 0-2 .1-3.5.6a92.3 92.3 0 0 0-8.7 3l-2.1.8c-1 .5-2.4 1-3 1.1a8 8 0 0 0-2.3 1c-.5.3-1.6.7-2.4.8-.7.2-1.8.5-2.2.8l-2.4 1-4.1 1.4c-2.1.8-3.1 1-5.1 1.2-1.9.1-3.2.4-5.2 1-1.5.6-3.3 1-4.2 1.2-.8.2-2 .5-2.5.8-.6.3-1.7.7-2.6.8l-1.7.4-2.8.8-3.9 1.2c-.7.3-1.5.6-2 .6a12 12 0 0 0-5 2c-.4.5-.9.8-1 .7zm21.3-10c.1-1-.5-1.4-2.8-1.6-2.5-.1-2.6 0-.5 1 2.4 1.3 3.1 1.4 3.3.6zm34.3-15c-.8-.3-1-.3-1 0 0 .2.4.3.8.3h.7zm25-4.2c2.1-.6 2.9-1.1 2.9-2 0-.3.4-1.1.8-1.8.7-1 .8-1.4.7-2.1a39 39 0 0 1-.4-1.8c0-.8-.2-1-.7-1-1 0-1.7.7-2.6 2.6-.5 1-1.1 2-1.4 2.1-.5.5-2.2 3.6-2.2 4.1 0 .5.5.5 2.9-.1zm11-2.7c2.2-.6 2.6-1 2.3-1.9l-.1-2v-1h-.9c-1.1 0-2.1 1-2.8 3-.5 1.4-.5 2.2 0 2.2l1.5-.3zm12.4-3c3.5-1.2 3.7-1.3 3.3-2.4-.3-.7-.3-1 .2-2.3.7-1.7.6-2.2-.4-1.9l-3 .7c-1.2.2-2.7.7-3.2.9-.8.4-1 .4-1.4.1-1.2-1 .2-1.7 6-3 2.8-.5 2.3-.7-1.4-.6l-3.6.2-.6.8-1.7 2c-1.1 1.2-1.1 1.6-.5 4l.5 1.8h.8l1 .4c.4.4.9.3 4-.7zm9-2.6c1-.7 1-6.8.1-6.8-.1 0-.2.2-.2.5s-.4 1.2-.8 2c-.8 1.5-1.3 3.5-1 4.3.2.5 1.2.5 2 0zm6.5-1.5c2-.6 2.3-1 2.5-3 .1-.7 0-1-.9-2.3a6.9 6.9 0 0 0-1.3-1.5c-.3-.1-.9 1.3-.9 2.3 0 .4-.4 1.3-.9 2.1-.9 1.4-1.1 2.4-.7 2.8.2.2.1.2 2.2-.4zm-8-8c1-.3 1.9-.6 2-.8.2-.1.4-.7.5-1.4 0-.7.4-1.7 1-2.4 1-1.7 2.6-4.8 2.8-5.8l.1-.8-.9 1a25 25 0 0 0-2.4 4 19.9 19.9 0 0 1-3.8 6c-.2 0-.6 0-.9-.2-.7-.4-1.3-.4-2 0-.8.6-.8 1 0 1 .7.2 1.5 0 3.6-.6zm161.4.2.8-.4c0-.3-1.4-.3-2.2 0-.9.3-1 1-.1.7l1.5-.3zM92.4 171c.2-.2.2-.5.1-.6-.2-.3-1 .4-1 .9s.6.3 1-.3zm9.7-2.4c0-.2.4-.8.9-1.4l1.4-2.2c.2-.7.8-1.6 1.2-2 .9-1 1-1.4.3-1.4s-1 .4-2.5 2.9l-2.1 3.7c-1.3 2.2-1.4 3.2-.1 1.7a5 5 0 0 0 1-1.3zm16.7 1.4c0-.1-.1-.2-.3-.2-.1 0-.2.1-.2.4 0 .2 0 .3.2.2.2 0 .3-.3.3-.4zm-13-.6c-.1-.2-.2-.1-.2.2l.1.4v-.6zm17-.3c0-1 .5-2.4 1.4-3.4.4-.5.7-1.2.7-1.6v-.8l-.6.6-.7 1.3c0 .4-.4 1-.7 1.4-1.2 1.3-1.5 2.5-.9 3.1.5.5.8.4.8-.6zM97.3 167c-.1-.2-.2-.1-.2.2 0 .2 0 .4.2.3v-.5zm15.7-3.6c.4-.3.5-.8.4-1.4v-.9H110l-.7.8c-.4.4-.6 1-.6 1.7v1l.6-1c.3-.5.7-.8 1.1-.8 1 0 1.1.8.5 2.2-1 2-.7 2.3.5.6l1.6-2.2zm-20.3 2.3c.7-.8.9-1.6.5-1.6-.3 0-1.7 1.8-1.7 2.1 0 .6.5.3 1.2-.5zm15.7-.8c-.1-.2-.2-.2-.2.1 0 .3 0 .5.2.4v-.5zm116.7-.4a7 7 0 0 0-1.6 0h1.6zm-127.4-.5c.4-.3 1-.4 1.2-.3.4.1.7 0 1-.3.8-.7.8-1 .1-1.2-.7-.3-3.2 1.3-3.2 2 0 .3.2.3 1-.2zm25.6-1.6c0-.6-1.2-2.5-1.7-2.5-.6 0-.6.6.1 1l.6.4-.2 1.3-.2 1.4.7-.6c.4-.4.7-.8.7-1zm140.5-1c.2-.3-.2-.4-1.4-.6-.9-.1-1.4 0-1.7.2l-.4.4.9.1c.8.2 2.3 0 2.6-.2zm6-.1 1.4-.5-2.3-.2c-4-.2-5.7.3-3 .8 1.8.4 2.4.4 4-.1zm-151.3-1 1.1-1.2c.3-.2.5-.6.5-1 0-1-1.2-.8-1.7.2-.2.4-.6.9-1 1-.5.1-.6.4-.3 1.3.2.9.7.8 1.4-.3zm154.6.5h-.8c-.2 0-.1.1.3.1.5 0 .7 0 .5-.1zm-145.1-1c-.2-.5-1-.5-1 0 0 .2.2.4.5.4.4 0 .5-.2.5-.4zm10.5 0c.3-1 .4-1.7.2-1.7-.3 0-1.1 1.7-1 2 .3.2.7 0 .8-.3zm-1.4-2.5c.4-.3.7-1 .7-1.3 0-1-.5-.7-1.5.6-1.1 1.4-.5 2 .8.7zm132 .5c0-.2-.4-.3-.8-.3-.5 0-.6 0-.3.3.5.3 1 .3 1 0zm37-1.4c0-.3-.1-.5-.3-.6l-.2-.8c0-.4-.1-.6-.2-.6-.3 0-2.2 1.9-2.2 2.1 0 .1.7.2 1.5.2 1 0 1.4 0 1.4-.3zm-180.2-1c.9-1.2.2-1.8-1.2-.9-.7.5-.8.9-.3 1.4.5.5.9.4 1.5-.5zm-13.5.3c0-.2-.1-.3-.4-.3-.2 0-.4.1-.4.3l.4.2c.3 0 .4 0 .4-.2zm20.6-2c.7-.3.9-.3 1.3 0 .3.2.4.5.3.9-.2.8 0 .7 1.4-.6l1.3-1.2-1.2-.6c-.9-.4-1.3-.4-1.7-.2l-1.9.2h-1.3l-1 1c-1 1.2-1 1.3-.2 2l.6.7.8-.9c.4-.5 1.1-1 1.6-1.3zm8.6-.5c-.1-.5-1-1-1.3-.9l.3.7c.5.6 1.3.8 1 .2zm-18.4-.8c1-.7 1.1-1.2.1-1.2-.8 0-1.7.8-1.5 1.4.2.6.4.5 1.4-.2zm3.9-2.6c0-.3-.8-1-1-.7v.6c.2.4.9.5 1 0zm180-2.8h-.5c-.2.1-.2.2.2.2.2 0 .4 0 .3-.2zm1 0h-.5c-.2.1-.1.2.2.2.3 0 .4 0 .4-.2zm-83.1-3.7h-.8c-.3 0-.1.1.3.2.4 0 .6-.1.5-.2zm4.8-.5h-.9l.5.1c.5 0 .7 0 .4-.1zm.6-1.6h-.5c-.2 0-.2.2.1.2.3 0 .5 0 .4-.2zm96-2c1.5-.4 1.7-.9.7-1.8l-.6-.6-.9.3-1.2.3c-.6 0-1.4.8-1.4 1.4 0 .7 1.3.9 3.4.4zM46 117.9c0-.4-1.3-1.2-2-1.2-.1 0 1.7 1.5 2 1.6v-.4zm15.4-2.6c0-.5-.6-1-1-1-.5 0-.4.7.1 1 .6.4.9.4.9 0zm-28.6-1c.5-.9.3-1.2-1.7-2.2a34.6 34.6 0 0 1-8.2-5.9c-1.5-1.7-2.2-2-2.7-1.4-.5.7-1.2 2.8-1 3.2.2.6.3.6 1-.2l.7-.7.5.5c.3.2.6.8.7 1.2.2 1 2 2.9 2.8 2.9.8 0 1.2.2 1.5 1 .2.4.6.8 1.7 1.1 3 1.1 4.3 1.2 4.7.5zm236.6 105.8c-.4-.3-1.2-.5-1.7-.5-1.3 0-2-.4-2-1 0-1 .5-1.1 2.8-1 2 0 2.3.2 2.7.7.8.9.6 1.5-.4 2-.5.3-.7.2-1.4-.2zm-135 .1-1.9-.2c-1.9 0-2.6-.5-2-1.4l.3-.6h2.4l2.7.2c.2.2.4.6.3 1.2v.9h-1.9zm166.7 0c-.9-.2-3.2-1.1-3.6-1.4-.3-.2-.3-.4 0-.8.2-.6.7-.6 3.3 0 2.3.6 2.7.6 2.7.3 0-.5-1.5-1-4.2-1.2-1.7-.2-4.9-1-5.3-1.4-.2-.2-.3-.6-.3-.8.1-.6 1.7-.6 4.5 0 1.8.4 4.9.6 4 .3l-1-.6a9.4 9.4 0 0 0-4.6-1.3c-1.7 0-2.1-.2-2.1-1 0-1 1.4-1.2 4.6-.5 1.5.3 2.6.7 3.8 1.5l1.8 1c.2 0 .5.3.8.5.3.5.4.7.1 1.2-.5 1-.6 2.2-.2 2.5 1.1 1 0 2-2.2 1.9l-2.1-.2zm-43.5-.4c-.7-.5-.5-1.6.4-1.7.8-.1 1.6.5 1.4 1.2-.4.9-1 1-1.8.5zm-78.7-3.4c-.2-.3-.3-.7-.2-.8 0-.2-.3-.5-.7-.7l-1-.7c-.4-1.2 2.6-3 4.8-3 1.2 0 2.2-.6 1.6-1-.5-.3-.4-1.5.1-1.9.8-.5 1.3-.4 2 .5 1 1 1 2 0 2.5-.4.3-.6.7-.6 1.3 0 1-.5 1.6-1.4 1.4-.6-.1-.8 0-1 .5-.3.9-1.7 2.1-2.7 2.3-.5.2-.7 0-1-.4zm8.7.4c-.7-.3-.3-1.5 1-2.6l1.1-1 1.1.2c1.8.3 2.1.6 2 1.5v.9l-1.3.1-2.4.6-1 .4-.5-.1zm55-.3a7 7 0 0 1-.8-.6l-1.1-.8c-1.2-.8-1.8-2-1.3-2.5 1-1 3.7 0 4.8 2 .7 1.2.7 1.7 0 2-.7.5-.8.4-1.6 0zm80.3-.3c-1.2-.3-1.4-.5-1.4-1.2 0-1 .5-1.3 1.9-1 1.3.5 1.8 1 1.5 1.6-.3.6-1 .8-2 .6zm109.5-.6c-.9-1-1.4-1.9-2-3.6-.3-1.2-.2-2 .5-2 .8 0 1.5.8 2.7 2.7 1.2 2 1.4 3 .6 3.5-.8.4-1 .3-1.8-.6zm-162.6-.1c-.2-.3-1-1-2-1.6-1.2-1-1.7-1.2-2.4-1.1-1 0-3-.2-4.2-.6-.7-.3-.9-.4-.8-.9 0-.4.3-.6 1.1-.8 1.7-.3 2.5-.7 3.3-1.4 1.3-1.1 1.8-1.5 2.4-1.3.3.1.5.4.5.5 0 .5 1 1.2 1.5 1.3 1.1 0 2 1.2 2 2.7 0 .5.2 1.2.4 1.6.2.5.3 1 .1 1.3-.2.7-1.4.9-1.9.3zm-43.3-.8c-.4-.4-.2-1.3.3-1.1.4.1.6 1 .3 1.3-.2.1-.4 0-.6-.2zm-56.5-1.6c-.7-.4-.9-1.2-.3-1.7.5-.4 3-.6 4-.3.5.2.6.5.6 1 0 .4 0 1-.3 1.1-.4.4-3 .4-4-.1zm24.3-.5c-1.2-.8-.5-1.8 1.5-2.1 1.5-.2 2.3 0 2.6.7.3.4.2.7 0 1.1-.5.6-.7.7-2 .7-1 0-1.8-.2-2.1-.4zm230.7-.7c-.6-.5-.4-1.4.4-2.5a8.9 8.9 0 0 1 4-3.3l1.3-.5.1.4c.1.3-.1.7-.6 1.1a15.9 15.9 0 0 0-3.2 3.5c-.8 1.5-1.4 2-2 1.3zm-150.9-.5c-.2-.1-.3-.6-.3-1 0-1.4 1.8-2.7 3.6-2.7s2.5.3 2.8 1.2c.5 1.4-.2 2.1-1.6 1.7-1.3-.4-2-.3-2.9.4-.8.7-1 .8-1.6.4zm7.8-2c-.3-.4-.1-1 .3-1.5.7-.5 2.8-1.2 4.5-1.4 1.2-.2 1.4-.1 1.6.3.5.8-.1 1.4-1.6 1.7-.8.1-1.8.4-2.3.6-1 .5-2.2.6-2.5.3zm16-.2c-.1-1 .4-1.6 2.1-2.8l1.3-1 1.4-1.1 1-.8c.4-.5 3.3-1.7 5.3-2.2 1.7-.4 2.4-.5 2.9-.2.8.3.8 1.3 0 1.3a19.3 19.3 0 0 0-10.6 5l-1.3 1.2c-1.1 1-2 1.2-2.1.6zm-87.8-1.4c-.7-.8.3-2.1 1.1-1.4.5.4.6 1 .1 1.5-.4.4-.8.4-1.2 0zm-13-.5a4 4 0 0 1 1.8-.8c1.5-.2 1.8-.7 1-1.4s-.8-1.1.2-1.6c.6-.3 1-.2 2.3.1 2 .5 2.6.3 2.8-.7.3-1.5 1.7-1.5 2 0 .4 1.4.6 1.5 2 1.1 2-.5 2.9-.5 2.9.1 0 .3-.3.6-.6.6-1.3.2-2.8 1-2.8 1.4 0 .2-.3.7-.6 1l-.7.7-1.1-.6c-1.5-.8-3.7-.8-6.4.1a15 15 0 0 1-2.8.7h-.7l.7-.7zm227.2-.2c-.6-.3-.6-1 0-2a17.4 17.4 0 0 1 8.1-4.3c.9-.4 2-.1 2.2.6.2.8-.3 1.2-2 1.5l-2 .6-2 1c-.8.4-1.6 1-1.9 1.4-.7 1-1.8 1.6-2.4 1.2zm-113.7-.4c-.4-.2-1-.3-1.5-.3-1 0-1.6-.6-1.1-1.2.4-.5 2.5-.5 4-.1.8.2 1 .4 1 .8 0 1.2-1 1.6-2.4.8zm-15.7-.5c-.7-.7.7-2 3-2.6l2.5-1c2-.8 2.8-1 3.2-.9.8.3.2 1.8-.8 1.8-.2 0-.4 0-.5.2-.1.2-.4.3-.7.3-.5 0-1 .2-4.4 1.7-1.5.7-2 .8-2.3.5zm20-1.8c-1.5-.8-2-1.3-2.1-1.7 0-.4 0-.6.4-.6.7 0 3.9 1.2 4.4 1.6.8.7.7-.2-.3-1.3-.5-.6-.8-1.3-.8-1.4 0-.2.5-.3 1-.4 1.3-.1 2.4 1 2.3 2.4 0 .7-.2.9-.7 1-.5 0-.8.3-1 .8-.2.4-.5.8-.7.8-.1 0-1.3-.5-2.4-1.2zm-34.6.7c-.5-.9.5-1.7 2.4-2 .8-.2 1-.4 1.3-1.1.5-1.1 2.2-2.2 3.6-2.4 1.5-.2 1.8-.4 1.6-1.4 0-.6 0-.8.6-1 .4-.2 1-.4 1.4-.4.7 0 1.3 1 1 1.6-.3.3-.1.5.5.8.6.3.8.6.8 1v.8h-2.3c-2.9 0-4.9.7-4.4 1.3.3.3.7.4 1.6.2 1.3-.1 1.7 0 1.5 1-.1.2-.7.5-1.6.7l-2.6.5c-2 .5-5.2.7-5.4.4zm-32.8-.6-.4-.5.4-.7c.6-1.3 1.3-1.7 2.9-1.8 1.6 0 2.3.4 2.3 1.3 0 .8-.5 1.2-1.6 1.2a3 3 0 0 0-1.6.5c-.8.7-1.4.7-2 0zm20 .1c-.4 0-1-.3-1.1-.6-.2-.3-.6-.5-1-.5-1 0-1-.8 0-2.1a18.1 18.1 0 0 1 9-6.4c2.9-1.2 7.7-2.1 8-1.6.4.6-.5 1.5-1.7 1.8l-2.4.6c-4.8 1.2-7 2.3-9.4 4.3-1.7 1.6-1.8 2-.4 2 1.1 0 1.9.6 1.9 1.4l-.4.9c-.4.4-.7.4-2.5.2zm-76.1-1.3c-.5-1.2 1.7-2.7 3.8-2.7 1.2 0 1.7.4 1.6 1.5v.7l-1.5.2c-.8 0-1.8.2-2.2.4-1 .4-1.5.4-1.7 0zm25-.1c-.4-.4-.5-.6-.2-1 .5-1 3.1-.6 3.1.4 0 1.2-2 1.6-2.9.6zm-37.5-.8c-.6-1.1-.4-1.8 1-2.6 1-.7 1.4-.8 3-.8 1.4 0 1.7 0 1.9.4.2.7-.5 1.2-2 1.6-.7.2-1.6.7-2.1 1.1-1 1-1.5 1-1.8.3zm240.6-.6c-.2-.1-.4-.4-.4-.6 0-.5 3.5-4.4 4.2-4.6.7-.3 1.6.2 1.6.8 0 .7-1.6 2.4-3.4 3.7-1.4 1-1.5 1-2 .7zm-249.8-.5c-.6-1-.4-1.6 1-2l2.3-1 1-.4v-1c0-.7.3-1 1.3-1.7a18 18 0 0 0 2-1.5l.6-.7h-.5a2 2 0 0 0-1 .1l-1.6.7c-.7.3-1 .6-1.3 1.5-.3 1-.5 1.2-1.1 1.2-.6.1-.8 0-.9-.4 0-.3-.2-.6-.3-.6-.4 0-3.1 1.2-5.5 2.5l-2.8 1.2c-.2 0-.6-.3-1-.6-.9-1-.6-1.7 1-2.7a43 43 0 0 0 7-6.7c0-.7-1-1.2-2-1.2h-1v-.7c0-.5.2-.8.9-1.1 1.2-.7 2.1-.5 3 .7.8 1.4 1.3 1.1 2.2-1.3.3-.6.8-1 2.1-1.6 2-1 3.3-1.1 4.8-.4.9.5 1.4.6 2.5.5 1.9-.2 4.4-.7 4.6-.9 0 0 .3 0 .5.2.5.4 6.2.4 7 0 .6-.4 1.8-.4 3.7 0 1.9.4 2.3.9 1.5 1.7-.4.5-.5.6-.2.7.9 0 1.4-.1 2.6-.9.6-.4 1.4-.7 1.5-.7a5 5 0 0 0 1.4-.6c.6-.3 1.4-.5 1.7-.5.8 0 1-.6.4-1a25 25 0 0 0-2.5-1c-1.5-.5-2.5-.6-3.8-.6-1 0-2-.1-2.4-.3-.7-.4-4.1-.2-6 .4l-2.4.6-1.4.7c-.4.4-.6.4-.8.2-.2-.2-.1-.4.4-.6l1-.3s.3-.2.3-.4c.2-.5.5-.8 2.1-1.7 1-.5 1.6-.7 4.6-1.2l2.2-.4 2 .6 3.1.8c.6.1 1.6.5 2.4 1 1.7.8 2.2.6 2.4-1 .2-1.1.7-1.6 1.5-1.4.7.2 1 1.2.5 2.4-.3.7-.4 1.1-.1 1.5.3.6.8 1.2 1 1.2.1 0 1 .4 1.8 1l1.7 1.1v-1.1c.2-1.2 0-1.5-1.3-1.7-.5-.2-.7-.3-.6-.8 0-.4.3-.5 1.4-.6 1.1 0 1.5 0 2.2.6l.8 1c0 .3.2.5.4.5.4 0 .7-2.2.7-5.2 0-1.5 0-2 .6-2.8.6-1 1.7-1.3 2-.6 0 .4-.9 3.8-1.4 4.6-.2.4-.2.8 0 1.4.2.5.4 1.3.4 1.8 0 .8 0 1 .4.9.2-.1.4-.5.4-1.2 0-1.1.7-2.7 1.3-2.9.7 0 .8.8.2 1.9-.7 1.4-.6 2.4.2 3.3.7.8.9.7 1.7-.7.5-1 1.5-1.4 1.7-.7.1.2 0 .8-.2 1.4-.5 1.2-.6 1.6 0 2l.3.5v-1c.2-.8.3-1 .7-1.1l1-.3c1.5-.7 5.8-1.6 7.5-1.6h2l1.6-.9 2.9-1.2 2.5-.7c.7-.2 2-.4 2.8-.4l4-.1c1.8-.1 2.8 0 3.4.2 1 .4 1.2 1 .5 1.6-.5.3-1.1.4-2.9.4-1.3 0-2.6 0-3-.2h-1.4l-1.4.5a37.2 37.2 0 0 0-5.4 1.4c-.4.1-1.2.6-1.8 1.1-.8.8-1.2 1-2.3 1-.8 0-1.4-.2-1.5-.3-.1-.2-.9-.3-1.7-.3-1.3 0-2.1.2-4.3 1-.3 0-.5.2-.5.3 0 .2-.2.3-.5.4h.6c3.5-.4 4.3-.4 5.2 0 .6.4 1 .8 1 1v.6H232l-2.6-.2-1 1.2a9 9 0 0 0-1 1.6l-.2.5-1.4-.2-3.2-.3c-1.9-.2-2.7-.7-2-1.1.2-.2 1.3-.3 2.8-.2 3 .2 3.2 0 .7-1.7-2.2-1.5-2.5-1.6-5-1.7h-2v1c.1 1.7 0 1.8-.8 1.8-.6 0-.9-.2-1.2-.8-.4-1-1.6-2.1-2.1-2.1a4 4 0 0 1-1.2-.8c-1.2-1-1.9-1.1-3-.6a37.2 37.2 0 0 0-9 4.1c-.5.7-1.2.5-1.6-.5a5 5 0 0 0-4-3c-1.2-.3-1.3.3 0 1.3 2.7 2.3 3.4 3.5 2 3.6-.5 0-1-.3-2.1-1.2-2.4-2.3-3.6-3-5.2-3-.8 0-2.4.4-3.5.7-1.1.4-2.9.8-4 1l-1.9.3-.5-.4c-.6-.6-1-.6-3 .3-2.4 1-3.2 1.5-3.5 2-.3.5.6 2.8 1.2 2.8l4.1-1.2c5.4-1.8 6.2-2 9.3-2 2.1 0 2.8.1 3 .4.7.8 0 1.3-2 1.4-1.2 0-1.7.2-1.7.5s.4.4 1.3.4c1.7 0 2.2.5 1.4 1.4-.3.3-.6.8-.6 1 0 .7-2 3.4-2.6 3.4-1.2 0-1.4-1.1-.4-2.8.8-1.5.5-1.8-2-1.7-1.4.1-2.2.3-3.7 1.1-2.8 1.4-4 2.5-4 3.8 0 .3-.3.8-.8 1.1-.4.3-.8.8-.8 1 0 .8-.7 1.4-1.8 1.5l-1.6.4c-.6.1-.8 0-1.2-.5zm0-7c1.1-.3 1.7-1 1.7-1.7 0-1.7-.9-1.5-3 .6-1.3 1.4-1.4 1.9 0 1.5l1.3-.4zm88.7 6.9c-.4-.5-.2-1.5.5-1.7.3-.1 1.4-1 2.3-2 1.7-1.7 3.2-2.4 4.8-2.2.7 0 .8.2.9 1v.8l-1 .3a7.8 7.8 0 0 0-3.5 2.4c-.3.4-1 1-1.4 1.2-.8.4-2.3.5-2.6.2zm-51.7-.7c-.5-.5-.4-1 .5-1.6.8-.5 1.2-.6 3.1-.6 2 0 2.4 0 3.1.6 1 .7 1.1 1.1.5 1.7-.4.2-.7.3-2 0a7 7 0 0 0-2.9 0c-1.8.3-2 .3-2.3-.1zm40.8 0c-.6-.5-.7-2.2-.1-3.2.4-.9 2.1-2 3-2 1.5 0 1.7 1.6.3 2.4-.6.3-1 .8-1.1 1.2-.3 1.4-1.3 2-2 1.5zm50-.1c-1-.4.1-1.9 1.2-1.6.9.3.6 1.6-.3 1.7l-1-.1zm-44.7-1.1c-.6-.7-.4-1.5.3-1.6 1.3-.2 2.2 1 1.4 1.7-.5.5-1.2.4-1.7-.1zm-25.5-.1c-.5-.5-.4-1 .4-1.4.9-.6.8-1.1-.3-2.2-.6-.6-1.2-1.2-1.4-1.6-.2-.3-.8-.7-1.7-.9-1-.2-1.3-.4-1.3-.8 0-.6.3-.7 1.7-1 1 0 1.4 0 2.4.7l2 1.7 1 1H235.5l-.9-.9c-1.2-1.2-1.2-2 .2-2.2.7 0 1 0 1.4.5.3.3.6.5.8.5.2 0 .7.4 1.3.8l1 .9h1.9c1.4 0 2 .1 2.1.5.3.3.3.6 0 1-.4.6-1.2.6-2.5 0-1-.4-1.3-.4-1.5-.1l-.8.4c-.2 0-.7.3-1 .8-.6.6-.8.7-2 .7-.6 0-1.3 0-1.4-.2l-1.3-.4-1.1-.2-1.2 1.2c-1.2 1.3-2.5 1.8-3 1.2zm-214.5-.8c-.2-.8 0-.9 2.3-1.5a338 338 0 0 0 13.9-3.7 69.6 69.6 0 0 0 5-1.1c.5 0 1.3-.2 1.8-.4l3.5-1.1c2.4-.8 4.1-1.1 12.3-2.5a32.9 32.9 0 0 0 11.2-2.7c.6.2.5 1.2-.2 1.9a15 15 0 0 1-6 1.9L41.1 192c-1.1.2-2.8.7-3.7 1.1-.8.5-2.2 1-3 1a6917.3 6917.3 0 0 0-6 1.4l-2.8.7c-2 .4-7.5 1.8-8.4 2.2l-2.4.4-1.8.2zm290.5-.4c-.9-.6-.8-1 .1-.8.8.2 1.4.6 1.4 1s-.9.3-1.5-.2zm-109.5-3-1.7-.8c-.6-.3-.7-1.2 0-1.6 1-.5 2.8-.6 3.5-.1 1.5 1 1.8 2.7.6 3.1-.7.3-1 .2-2.4-.5zM66 195c-.8-.5-1-.8-.6-1.4.4-.8 1.2-1 2-.7.9.3 1.4 1.4 1 1.8-.5.4-1.9.6-2.4.2zm153.6-.7c-1-.4-1.4-.4-2.7-.1-2.1.4-2.9.4-2.9-.2 0-.6.8-1.4 1.5-1.4.3 0 .7 0 .8-.2l2.2-.4c1.7-.2 2.2-.1 3 .3.7.4.9.7.9 1.4v.9h-.8c-.5 0-1.3 0-2-.3zm69.1-.4c-.5-.6-.3-1 .6-1.4 1.3-.5 2-.5 2.2 0 0 .3-.1.7-.6 1-.8.8-1.7.9-2.2.4zm-81.4-.2c-.1-.2 0-.5.1-.7l.4-.4.2.4c.4.7-.3 1.3-.7.7zm59.7-.3a37 37 0 0 0-2.5-1.2c-1.6-.7-2-1.4-1-2 .6-.3 2.2 0 2.8.6l1 .2c1.8 0 3.2 2.7 1.4 2.9-.5 0-1.2-.2-1.7-.5zm167.5-1.4c-1.3-1.3-1.4-2.4-.5-3 1.1-.7 3.7 2 3.1 3.2-.5 1.1-1.3 1-2.6-.2zm-365.7-.2v-.8l-.6.1c-2 .5-2.3.5-2.5.1-.6-.6.2-1.2 1.7-1.4 1.2-.1 1.5 0 1.8.3l.4.5.4-.5c.3-.4.5-.4 1-.2.5.1.9.4 1 .7 0 .7-1.5 2-2.5 2h-.7zm341.8 0c-1.3-1.4-1.4-3-.2-3.1.5 0 .9.2 1.6 1 1 1.2 1.2 1.9.6 2.5-.6.6-1.1.5-2-.4zm-203.6-.1c-.3-.5-.7-.7-1.2-.7-1.8 0-2.8-1-1.8-1.9.8-.6 4.3-.6 5.2 0 .8.5.8 1.7 0 2.6-1 .8-1.6.8-2.2 0zm-187.6.2c-.8-.2-.8-1.2 0-1.6 1.1-.5 8-2 12-2.6A50.4 50.4 0 0 0 41 186l2.6-.6a149.9 149.9 0 0 1 18-3.7l2.8-.5.4.4.4.4-.4.4a5 5 0 0 1-2 .7 2460.2 2460.2 0 0 0-37.8 7.8c-.3.2-4.2 1.2-4.6 1.2l-1-.2zm230-.5c-.4-.4-.1-1.2.7-1.8 2-1.5 4-1.9 4.5-.9.4.6-.4 1.5-1.2 1.5-.3 0-.9.3-1.3.6-.8.6-2.4 1-2.7.6zm-8.4-.9c-1.2-.5-1.5-.9-1-1.4.8-1 2.9-.7 3.4.6.6 1.4-.2 1.7-2.4.8zm24-1.8c-.3-.2-2.3-.3-4.3-.4-3.3 0-3.8-.1-4.3-.6-.3-.2-.5-.7-.5-1v-.6l3.4.1 3.3.1-.5-.6c-.9-1.2-.9-2 0-2.2.6-.3 2.6.6 3.5 1.4 2.3 2.3 1.8 4.8-.6 3.8zm21-.4c-.5-.7 0-1.2 1.5-1.4.7 0 1.7-.2 2.3-.4 1.2-.3 2-.1 2 .6 0 .6-.4.8-2 1l-2.5.4c-.7.2-1 0-1.3-.2zm-262-.4a.6.6 0 0 1 .2-1c.5-.1 1.2.1 1.2.6s-1 .8-1.4.4zm244.9-.2c-.2-.5 1.2-1.9 2.2-2.1 1.8-.5 3.3.6 2.8 1.9l-.3.6h-2.3c-1.9 0-2.3 0-2.4-.4zm133.9-.1c-.8-.8-.1-2.4 1-2.4 1 0 2.3 1.8 1.6 2.2-.6.4-2.3.5-2.6.2zm35.5-.1c-.5-.2-1.3-1-2-1.6-1.1-1.4-2.6-2.3-3.7-2.3l-1.7-.3c-.8-.2-1-.4-1-.9v-.6l1.5-.3c2.8-.6 4.2 0 7 2.8 1.8 2 2.2 2.6 1.5 3.2-.4.4-.6.4-1.6 0zm-41.9-.4c-.9-.3.4-2.9 1.8-3.6 1.6-.8 2 0 1 2-.7 1.4-1.8 2-2.8 1.6zm23.8-.6c-.4-.4-.4-2.8 0-3.7.2-.4.6-.6 1-.6 1.2 0 1.6 1.7.7 3.9-.3.7-1.1 1-1.7.4zM393 186c-.6-.6-.5-1 .6-2.3 2-2.3 3.6-3.2 4-2.2.3.8-2.8 5-3.7 5l-.9-.5zm-327.8-.9c-.2-.3.5-.7 2.8-1.2l2.9-.7c1.6-.4 2.2-.4 2.5 0 .4.8 0 1.3-1.1 1.5-.6 0-1.6.3-2.3.4-1.6.3-4.6.3-4.8 0zm-37-.8v-.7c.4-.6 2.6-1.4 4.8-2a270 270 0 0 0 16.3-3.6c1.5-.3 3.2-.7 3.8-1 1.4-.4 5.1-1 5.7-.7.6.2.6 1 0 1.2l-3.6.8a188.5 188.5 0 0 0-19.2 4.7l-2.8.7c-2.8.8-4.8 1-5 .6zm387.6-.5c-.4-.6-.2-2 .4-3.3.6-1.5 1.1-2 2-2h.7l-.1 1-.8 2.7c-.5 1.5-.7 1.7-1.3 1.8-.4 0-.8 0-1-.2zm-31.8-.4a1 1 0 0 1 .6-1.4c.3 0 .6-.3.7-.4 0-.1.8-.3 1.5-.3 1.1 0 1.5 0 1.5.4.1.6-.3 1-1.8 1.6-1.7.6-2.3.6-2.5 0zm-111.8-.4-2.5-.1v-1.4l2.8-.1c3.6-.2 3.8-.3 3.6-1.7-.2-1.3.3-1.9 1.2-1.6 1 .3 1.3.9 1.3 2.5 0 1.2-.1 1.7-.5 2.1-.6.6-.8.6-5.9.3zm-222.4-.3c-.2-.4.2-.7 2.3-1.4 2.2-.8 3.6-.9 3.8-.3.2.6-.7 1.2-2.2 1.4-3 .5-3.7.6-3.9.3zm341.7 0c-.6 0-.9-1-.5-1.8.4-.7 2.3-1.6 3-1.4 1 .4.7 1.2-.6 2.4-1 .9-1.3 1-1.9.9zm14.5-.3c-1.2-.6-1.7-1.4-1.3-2 .4-.8 3.5 0 4 1 .3.4.2.6-.2 1-.6.7-.8.7-2.5 0zm-122 .1c-.8-.1-1.2-.7-1-1.3.1-.5.4-.6 1.6-.6h2.5c.5 0 1.7-.1 2.6-.4l2-.4c.4 0 1.2.8 1.2 1.2 0 .9-.6 1-4 1.4-3.7.3-4 .3-5 .1zm97.4-.8c-.4-.6.1-1.4 1-1.4.8 0 1.2.6.7 1.2-.4.5-1.5.6-1.7.2zM65.9 181c-.5-.3.2-1.1 1-1.3a21 21 0 0 0 2.5-.8c3.6-1.4 6.3-1.4 6.3-.1 0 .6-1.2 1.1-2.3.9-.9-.2-4.2.4-5.7 1-1.1.5-1.2.5-1.8.3zm373.4-1-2.6-.3c-1.7 0-2-.3-2-1 0-1.3 3.9-2 6-1.1 1.2.5 1.7 2 .8 2.5-.4.3-.4.3-2.2 0zm-26-.8c0-.4.2-.8 1.4-2 1.5-1.5 2.1-1.7 2.4-.8.2.6-.9 2.4-1.8 3-.8.6-1.7.5-2-.2zm10 0c-.4-1 .8-2.3 2.2-2.3a6 6 0 0 0 1.8-.4l1-.4-.5-.6-.5-.5.3-.6c.3-.4 1.2-.7 3-1.2l2.5-.6.7.6.6.7-.3.6-.3.7-1.9.1-2.3.4-.5.2.8.8c.7.6.8.8.6 1.2-.3.6-.6.7-2.5 1-.7 0-1.8.3-2.4.5-1.4.6-2 .5-2.3-.2zm-128.1-.3c-1.3-.4-2.1-1-2-1.8v-.6h1.3c1.5 0 2.7.8 2.7 1.7 0 .8-.7 1-2 .7zm106.3 0-.8-.5-.8-.6c-.8-.5-.3-1.1 2.3-2.5l2.2-1.1.8.4c.6.3.8.5.9 1.3 0 .7.2 1.1.6 1.3.6.3.6.8 0 1.4-.2.3-.7.3-1.7.2-.8 0-1.8 0-2.2.2h-1.3zm-25-.3c-.8-.3-1-.9-.4-1.6.3-.4.7-.5 2.6-.5 1.2 0 2.4 0 2.6.2.6.3.6 1 .2 1.5-.6.4-4.4.8-5 .4zm12.8-.8c-.3-.7 0-1.3 1.7-2.4 2.2-1.5 5.2-2.6 6.2-2.2.6.2.7.4.7.9-.1.6-.8 1-2.9 1.6-.8.2-2 .9-2.8 1.5-1.5 1-2.6 1.3-3 .6zm23-1.3c-.6-.7.2-1.7 3-3.4a263.9 263.9 0 0 0 4.3-2.6 5 5 0 0 0 1.4-.6c.4-.4 1.8-.6 2.3-.3.5.3.3 1.2-.4 1.7l-3.3 1.8c-1.4.7-3 1.5-3.4 2a13 13 0 0 1-3.2 1.8l-.6-.4zm-283.6-.4c-.2-.4 1-1 3-1.5a52.8 52.8 0 0 0 5.4-1.4c.6 0 5.3-1.6 5.6-1.9.5-.4 1.3-.2 1.8.4 1 1.2.3 1.8-2.1 2a54 54 0 0 0-9 1.7c-4.1 1-4.4 1.1-4.7.7zM62 176c-.6-.2-.2-.8.7-1a763.7 763.7 0 0 1 8.8-2.3c4.4-1.3 4.6-1.4 5.2-.8.7.7 0 1.3-2 1.8a194.3 194.3 0 0 1-12.7 2.3zm337.8-2c-.4-.4-.2-1.4.3-2 .8-1 2.9-2.2 3.5-2 .7.2 1 1.2.7 1.7l-1.1.7-1.7 1c-1 .7-1.4.8-1.7.5zm10.7-.6c-.8-.7-.3-1.5 1.4-2.3 3-1.4 5.2-1.1 4.4.5-.2.4-.6.7-1.4.9l-2.3.8c-1.3.6-1.4.6-2 0zm-35.7-.2c-.6-.3-.8-1.3-.3-1.6.4-.3 2.7-.2 4 0 1 .3 1.3 1 .7 1.6-.3.4-3.5.5-4.4 0zm10.3-.7c-.2-.2-.3-.7-.3-1 0-.4-.3-1.2-.7-1.8a24 24 0 0 1-1-1.8c-.2-.5-.8-1.3-1.4-1.8a25.7 25.7 0 0 0-10.8-4.4c-1.4 0-2-.5-2-1.4l.1-.6h2.2c1.7 0 2.7.3 5.8 1.3 3 1 3.9 1.4 4.9 2.3a17.2 17.2 0 0 1 3.8 4.1l.7.8v2.2c-.1 1.8-.2 2.3-.6 2.3a1 1 0 0 1-.7-.2zm-98.5-1a23 23 0 0 1-3.7-.4c-.6-.3-.6-1.4 0-1.6.5-.2 6.9-.2 7.8 0 .4 0 .8.4.9.8.3 1.2-.3 1.4-5 1.2zm111.4 0c-.3-.2-.2-.5.3-1.7.8-1.9 1.8-3.3 4.2-6 4.4-5 6.9-6.6 7.3-4.9.2.6 0 .8-.7 1.4a49.2 49.2 0 0 0-9.2 10.7c-1 .8-1.3.8-1.9.5zm-267.8-.4c-.3-.7.7-1.2 2.8-1.6 2.4-.5 4.1-.5 4.5.2.2.2.2.5 0 .6 0 .2-5.7 1.1-6.7 1.1-.3 0-.5-.1-.6-.3zm128.5-1c-.9-.8 1-1.2 5.4-1.3 2.7 0 3.2.1 3.2.8 0 .7-.4.7-4.7.9-2.9 0-3.6 0-4-.3zm170.6 0c-.8-.9 1.6-2.6 3.7-2.6 1.7 0 2.6 1.3 1.6 2.3-.4.4-1 .5-2.7.5-1.4 0-2.4 0-2.6-.2zm-290.3-.5c-1.3-.5.4-1.6 2.6-1.6.7 0 1.7-.1 2.2-.3a63.8 63.8 0 0 1 8.4-1.6c4.7-.9 9.5-1.6 9.8-1.4.2 0 .3.3.3.5 0 .6-1.7 1-7.7 1.9-1.7.2-3.7.6-4.5.8a109.5 109.5 0 0 1-11 1.7zm253.6-.2c-.6-.1-2.5-2.8-2.5-3.5 0-.7.8-1.4 1.5-1.3.8.1 1.8 1.4 2.2 2.9.4 1.5 0 2.1-1.2 1.9zm-23-1c-.5-.2-.5-1.3 0-1.7l1.6-.7c1.7-.5 7 0 7.4.6.3.4.3.5 0 .9-.3.3-1.3.4-4 .5a50.5 50.5 0 0 0-5 .4zm52.1-2c-.7-.6-.4-1.3.4-1.1.8.2 1.3.6 1.3 1 0 .5-1 .5-1.7 0zm-11.2-.8c-1-.5-1-1.1-.1-2 1.7-1.6 4-2.2 4.7-1.2.6.7.5 1-.5 1.5l-1.5 1c-.9.9-1.8 1-2.6.7zm-86.2-1c-.5-.2-1.6-.3-2.2-.3-1.6 0-2-.3-1.5-.9.5-.6 4-1 5.4-.7 1 .3 1.1.4 1.1 1 0 .4-.2.7-.7.9a3 3 0 0 1-.8.2l-1.3-.2zm47.3 0c-.5-.3-.3-1.2.4-1.3.6 0 1 .5.7 1.1-.2.5-.6.5-1.1.2zm48.2-.2c-.4-.2-1-.3-1.5-.3-2.4 0-3-2-1-3.1 1.2-.6 1.9-.5 3.3.5 1.7 1.3 1.9 1.8 1.2 2.6-.6.8-.8.8-2 .3zm-105.8 0c-2-.2-3.1-.3-3.4-.6l-.5-.4.5-.3c.3-.2 1.2-.4 2.4-.4h2l.5-1c.7-1.2 1.7-1.2 2.3 0l.7 1.5c.5.9.1 1.4-.9 1.3-.4 0-2 0-3.6-.2zm69.8-1.2c-.2-.6-.5-1-1-1.3-1.1-.5-1.4-1-1.4-1.9 0-.4-.3-1-.6-1.6-.6-1-.3-1.8.8-1.8.6 0 1-.2 1.4-.7.7-1 2-5.1 2-6.3 0-.4.2-1 .4-1.3l.7-2.2a36 36 0 0 0 0-9.1c-.4-1.1-.3-2.8.1-3 .6-.2 1.4.3 1.9 1.1.6 1.2.7 6.4.3 9.4a31 31 0 0 1-1.7 7.3 3 3 0 0 0-.3 1.2c0 .4-.2 1-.4 1.4l-.8 2.3c-.5 1.6-.5 2 .5 4.8l.5 1.2-.5.7c-.6 1-1.6.9-2-.2zm45 0c-.3-1 0-2 .6-2.5.5-.3.7-.4 1.5 0 .8.2 1.2.2 1.9 0l1.4-.4c.5 0 .6-.1.6-1 0-1.3.5-1.5 2.5-1 1.6.3 1.8.6 1.6 1.7-.1.6 0 1 .3 1.2.8.5.9 1.1.4 1.8l-.4.6-1.2-.2c-1.7-.3-5.7-.3-7.5 0-1.2.1-1.5.1-1.6-.3zm-121-.4c-.1-.6.6-1.2 1.3-1 .4.1.6.3.5.7-.1.8-1.5 1-1.7.3zm54.6-.2c-.5-.2-1.2-.6-1.5-1l-2-.9c-1.7-.6-2.4-1.2-2.4-2 0-1.6 1.1-1.5 4 0 2.5 1.4 4 2.7 3.9 3.5-.1.8-.6.9-2 .4zm60.8-1.2c0-.4 0-.5.4-.4.2.1.4.4.4.6 0 .2-.2.3-.4.3-.3 0-.4-.2-.4-.5zm-28-.5a5 5 0 0 1-.4-1.8c0-1.8-.4-4-1.4-7.4a31.2 31.2 0 0 1-1.7-8.6c0-1.5 0-1.9.4-2 .3-.1.6 0 .8.3l.3.4.8-1c1-1 1-1.1.3-1.8-.3-.2-.5-.6-.5-.7l-.9-1.6c-1.5-2.3-1.5-2.4-1-2.9 1-1.2 3-.1 3.6 2 .2.9.6 1.6.7 1.7.3.2.7-.7.9-2.5l.2-1.6h-.7c-1.1 0-1.2-1-.4-5.1l.4-3-1.7.2c-1.5.4-3.8.5-6.8.4-1.7-.1-2.2-.3-2.2-.9 0-.7 1-1 4-1 2.9-.1 5.6-.6 6.4-1.3.2-.1.4-1.5.5-3.3.3-4.5.8-5.6 2.2-5l.6.1v2.2c0 3.2-.4 7.4-1.2 12l-.1.8.4-.6.4-1.2c0-.3.2-.4.7-.4h.7l-.2 1.2a41 41 0 0 1-1.2 5.8c0 .8.5.3 1.3-1.1 1-2 4.2-5.7 5.3-6.1.6-.3.8-.3 1.2.2l.5.5-.5.7a9 9 0 0 1-1.2 1.4c-.9.8-.3 1 1 .4.9-.4 1.2-.4 1.5-.1.2.1.3.4.2.6 0 .4-2.3 1.2-4.1 1.6-.7.2-1.8 1.6-3.1 4.2-.4.6-1.2 1.7-1.9 2.3-1.4 1.4-1.5 1.8-1.7 6.2a60 60 0 0 1-.3 4c0 .5 0 1.2.2 1.6.3.5.3 1 0 2.2a22 22 0 0 0-.3 4.6c0 2.1 0 3.3-.2 3.5-.5.6-1.6.5-1.9-.1zm.4-15 .3-4.3v-1.2l-.9 1.1c-.4.6-1 1-1.1 1.1-.6 0-.7.6-.4 2.3.3 1.9 1.2 4 1.6 4l.5-3zm17.7 14.2c-1-.6-.1-2.2 1.7-3.1 4.7-2.3 5.5-2.5 6.5-1.8 1.2.8.5 2.5-1 2.5-.4 0-.9.2-1 .4-.2.2-.7.4-1.1.4l-1 .2c0 .2-.4.3-.8.4-.5.1-1 .4-1.3.7-.5.6-1.3.7-2 .3zm-13.8-1c-.5-.5-.5-.8.1-1.7.6-.8 1.9-1.3 3.6-1.4 1 0 1.3 0 1.7.6.7.8.7 1.8 0 2.1l-2.1.4c-1 0-2 .2-2.3.3a1 1 0 0 1-1-.3zm-74.5-2.3c-2.3-.4-3-.6-3-1 0-.6.7-.8 2-.8.9 0 1.3 0 1.3-.3 0-.2.2-.6.5-.9.8-.7 5.8-.7 6.5 0 .4.4.4.6.2 1-.3.4-1.5.5-3 .1-.6-.1-.8 0-.8.3 0 .2.2.4.4.4.5 0 1 .6.8 1.1-.2.5-1.9.6-4.9 0zm39-.2c-.8-1-.5-2 .6-2 1.3 0 1.6 2.1.3 2.2-.4 0-.8 0-1-.2zm13.4-2c-.2-.2-.6-1.2-.9-2.2l-.9-3.4-.4-1.7.6-.5c.4-.5.6-.5 1.2-.3 1 .3 1.5 1.4 1.8 3.5 0 1 .2 2.2.3 2.8.3 1.9-.8 3-1.7 1.8zm37.3-.4c-.5-.7 1-3 3.8-5.8 1.4-1.5 2.7-2.6 2.8-2.6l1.2-.6 1.6-1c.4 0 2-.7 3.5-1.3 1.5-.6 3.2-1 3.7-1 .6 0 1.5-.4 2.1-.7 2-1.2 4-.7 4 .9 0 1.3-.6 1.6-3.3 1.5h-2.5l-1 .5c-.5.4-1.2.6-1.4.6-.3 0-.5.1-.5.3 0 .1.2.3.5.3s.6.1.8.3l1.3.6c.6.1 1 .5 1.1.8.4 1-.2 1.5-2.4 1.8l-2 .3-.6-.5-.8-.4a12 12 0 0 0-3.3 1.6c-.3.4-1.2.3-1.4-.2-.4-1-2 0-3.7 2.4-1.7 2.4-2.8 3-3.5 2.2zm8-5.9c.1-.2.1-.4 0-.4-.2 0-.4.2-.6.4-.2.2-.2.4 0 .4l.5-.4zm1.3-1s-.2-.1-.4 0c-.3 0-.4.2-.4.2l.4.1c.2 0 .4 0 .4-.2zm4-1.6c.6-.5.6-.8-.1-.7-.4 0-.7.3-.7.6-.1.5.1.6.8 0zm-250 6.7v-.8c.1-.4.5-.5 2.2-.6a89.8 89.8 0 0 1 9.8-1.1l8-.7.7-.7c.8-.9 2.3-1 3.5-.1.7.4 1.2.5 2 .4l2.7-.2 5-.4c7.6-.7 7.7-.7 8.1-.2 1 1 .4 1.1-5.3 1.5-3 .1-6.7.4-8.2.7-3.5.4-5.1.4-5.5 0-.2-.1-.4-.7-.4-1.2 0-1.3-.7-1.1-1 .2 0 .6-.2 1.2-.4 1.4a480.6 480.6 0 0 0-12.7 1.4c-6.2.7-8.2.8-8.5.4zm257.8-2.3c-2.4-1.1-1.1-3.1 1.6-2.6 1.4.3 2 1.8 1.2 2.6-.5.6-1.5.5-2.8 0zm-26.8-2.6-.4-.8c0-.4 1.4-1.6 2.7-2.2 1-.6 1-.7 1.4-2.3l.2-.9-1.1 1c-.9.9-1.3 1.1-2 1.1a4 4 0 0 0-1.7.4c-.9.5-2.1.5-2.3 0-.5-1.2 1.6-3.3 3.3-3.3.6 0 1.2-.2 1.4-.4.1-.2.6-.4 1-.4.5 0 .8-.1.8-.4 0-.2.4-.8.8-1.3s.8-1 .8-1.3a77 77 0 0 1 1.6-7.8c.2-.6.5-.8.7-.8.6.1.5 1.2-.2 4.7l-.7 3.5-.1 1 1.4 1.4c1.6 1.6 1.8 2.1 1.5 3-.4 1-1 1-2.2.2l-1.3-.9s-.3.6-.4 1.4l-.4 1.3.6.6c.8.8.3 1.7-1.5 2.4-.8.3-1.5.7-1.7.9-.5.4-1.7.4-2.2-.1zm-69.8-.3c-.5-.6-.6-1.3-.2-1.6l1.4-.1c.7 0 1.6-.3 2.4-.7 1-.5 1.4-.6 2-.4 1 .5.8 1.5-.4 2.4l-1 .8h-1.9c-1.5 0-2 0-2.3-.4zm95-1.4c-.6-1.5-.4-1.9.7-1.7.3 0 1.3-.1 2.2-.4 1.7-.6 3.5-.7 4-.2.8.8-.1 2.3-1.4 2.3l-2.6.6-2 .7c-.1 0-.5-.6-.8-1.3zm-105-.3-2.8-.4c-5.8-.3-7.5-.7-7.5-1.6 0-.5 1.3-1.2 1.8-1l4.7.5c4.5.4 5.4.7 5.4 1.8 0 .9-.8 1.2-1.6.7zm116.2-3c0-.4 0-.4.2-.2v.5c-.1 0-.2 0-.2-.3zm-96-.5c-3.2-.3-3.4-.4-3.6-1-.2-.9.7-1.2 3.8-1.2h2.7l.3-.9c.5-1.4 3-2.4 3.9-1.4.3.3.3.6 0 1.2-.2.6-.2 1.2 0 1.9.4 1.5 0 1.8-2.5 1.7-1.2 0-3.2-.1-4.5-.3zm-14.3-.2c-3-.3-3.8-.6-3.8-1.3 0-.9.6-1 2.8-.8h3.1c2-.4 2.6-.3 2.9.3v1c0 .2-2 1.1-2.3 1-.1 0-1.4 0-2.7-.2zm8-1.6c-1.1-1-.7-2.6.7-2.6.6 0 .9.2 1.2.8.5 1 .5 1.8-.1 2-.8.5-1 .4-1.7-.2zm81.3.3c-.7-.4-.6-1.5.2-2l1.6-1.2c1.1-.9 1.5-1 2.8-.3.6.3 1 .7 1 1.1 0 .9-.2 1-2.4 2-2 .7-2.5.8-3.2.4zm-51.5-.8a11 11 0 0 0-2-.2c-.9 0-1.7-.2-2-.3-.8-.4-.6-1.3.3-1.7 1-.5 3.5-.6 4.3-.1.3.2 1.6.3 3 .3h2.6v.6c.2 1-.7 1.4-3.2 1.5l-3-.1zm31.2-.3.3-.7c.4-.4 1.8-.4 1.8 0l.4.2.4-.2c0-.3.8-.5 1.3-.4.2 0 .3.3.3.6 0 .6-.5.8-1.3.4-.4-.2-.7-.1-1 0-.8.5-2.2.5-2.2 0zm-397.6-.6c-.2-.2-.3-.7-.3-1 0-.4.6-.8 2.8-1.6l3.4-1.7L15 133c2.6-1.3 7-5.2 7-6.1 0-1.4-1.2-2.1-2.7-1.7-1 .3-2 1.3-2.8 3a6 6 0 0 1-2 2.2l-1.7 1.5c-.5.5-1.9.5-1.9 0 0-.3 1-1.4 2-2.5 2.1-2.2 3-3.6 2.7-4.7l-.2-.6h-2.2c-1.7 0-2.4 0-2.7-.3-.3-.3-1.2-.5-2.2-.6l-1.8-.1-.7.9a5 5 0 0 1-3.4 1.4c-.6 0-.6-1.4 0-1.9.8-.7 2.5-1.3 3.1-1.1.5.1.8 0 1.3-.5 1-1.3 5.4-1.3 10.4 0 1 .4 2.5.6 3.4.7 2 .2 3.4 1.1 4.1 2.7.5 1 .5 1.3.3 2.2-.3 1.1-.4 1.2-4 3.8L17 134c-.7.6-2.5 1.6-3.9 2.3l-3.8 1.9c-1.8 1-2.6 1-3 .6zm353-.6c-.3-.1-.5-.5-.5-1 0-1 1.5-1.6 3.7-1.3l3.2.2h1.5l.3.8c.5 1.2 0 1.4-4 1.5-2.2 0-3.8 0-4.2-.2zm-342-.5c-.6-.6-.1-1.4 1.5-2.6 1-.7 2-1.8 2.4-2.3.7-1 1-1.2 1.7-.8.2.2.3.5.2 1.1-.4 1.8-5 5.4-5.8 4.6zM208 137c-.6-.4-2.2-2-3.7-3.4-2.5-2.5-4.2-3.6-4.5-3.3-.2.2 1.5 2.4 2.4 3.2l1.2 1c.5.3.4.9-.3 1.2-.8.3-1.8-.1-3.1-1.3a21.4 21.4 0 0 1-4-3.4c-2-2-2.7-2.6-3.8-3l-2-.5c-1.3 0-2-.4-2-1.1 0-.8.8-1.2 2.4-1h1.2v-.4c0-.6.6-1.2 2.3-2.4 1-.6 1.3-.7 1.6-.5.7.5.7 1 0 1.8-1 .9-.8 1.6 1 3.3l1.4 1.5.8-.4c1.8-.7 3.2.2 8.4 5.1l2.6 2.3c.8.5 1 .8 1 1.3-.2.6-.3.7-1.1.8-.7 0-1.1-.1-1.8-.8zm168.8-.1c-1.1-.4-1.4-2.1-.7-3.5.4-1 .8-1.1 1.6-.8l.6.2v1.5c0 2-.5 2.9-1.5 2.6zm55.9-.1c-.7-.3-1-1-.6-1.5.5-.6 3.1-1.9 4.2-2 1.6-.4 2.6 0 3.3 1 .9 1.3.8 1.6-.2 2.2-1 .6-1.9.5-2.7-.2l-.5-.4-1.5.5c-1 .4-1.7.5-2 .4zm12-1.5c-.4-1 .2-3 .9-2.6.4.3.2 2.2-.2 2.6-.5.5-.6.5-.8 0zm-89.1-2c-1-.8-5.3-1.4-7.3-1.1-1.3.2-2-.2-2-1 0-.3.3-.7.6-.9.9-.6 5.5-.5 8.5.2 3 .6 2.8.6 2.8-.1 0-1.8 3.8-3 4.4-1.4.4 1-1.4 2.2-3.4 2.2h-.8l.2.7c.1.5 0 .9-.4 1.4-.7.7-1.4.7-2.6 0zm9.1.4c-1.2-.8-.2-2.2 2-2.7l2.7-.7c1.5-.5 2.6-.2 2.6.8 0 .5-.2.7-1 1-.5.3-1.3.5-1.8.5l-2.4.6c-1.7.8-1.7.7-2.1.5zm-184.5-2.4c0-.3 0-.3.2-.2l.4.5c.1 0 0 .2-.2.2a.4.4 0 0 1-.4-.5zm24.4-6c-1-.7-.7-2 .4-2 .7 0 2 1 1.8 1.7 0 .7-1.4.9-2.2.3zm209.6-1.5c-4.4-.1-5.4-.4-5.4-1.3 0-.7 1-1.1 2.6-1 .7.2 3.9.1 7.2 0a81 81 0 0 1 6.7-.1c.8.1 1 .6.8 1.5-.1.5-.3.7-1.3.8-2 .2-6.4.3-10.6.1zm-24.3-3.5c-.4-1 0-1.1 1.8-1.4 1.8-.2 2.5 0 2.9.5.5.7-.3 1.2-2.4 1.4l-2 .2zm19.3-1c-2-.2-2.9-.7-2.4-1.5.2-.3 1-.6 2.7-.8 3.4-.5 4.9 0 4.4 1.3-.3 1-1.8 1.3-4.7 1zM245.5 118c-.6-.1-.8-.6-.5-1.1.2-.4.6-.5 2-.5 1.3 0 2.1-.2 3.6-.8l2.6-1.3a24 24 0 0 1 2.6-1.3l2.8-1.5 1.8-.9c.5-.1 1.5-.6 2.1-1.2a6.5 6.5 0 0 1 4.6-1.7c.8 0 1.8-.2 2.2-.4a13 13 0 0 1 2.4-.7l3.2-.7 7.5-1.8 6.6-1.7c.9-.3 2.6-.6 3.8-.7 2-.1 2.4-.1 2.8.3 1 1-.3 1.7-2.7 1.7-2 0-3.6.4-4.5 1-.4.3-1.3.6-2.2.7-1.6.1-5.8 1-7.5 1.6-.7.3-2.2.5-3.3.6-1.4 0-2.7.3-4.5.8l-4 1.2c-1 .2-2 .6-2.5 1.1-.6.5-1.7 1.1-2.4 1.4-.8.4-2 1-2.5 1.5-1.3 1-2.8 1.6-5.8 2.6l-3.2 1.1a15 15 0 0 1-5 .7zm-243-1.5c-.9-.2-1.2-.6-1.2-1.6v-.8l1.1-.3c1.8-.5 2.4-1 2-1.6-.4-1-.2-2.3.5-3l.7-.6h2.2c2.3 0 2.8.2 2.8 1.1 0 .3-1 .8-2.3 1-1 .2-1.2.8-.4 1 .7.3 2.6 0 3.6-.5 1.4-.7 2.7.6 1.5 1.6-1.8 1.5-8.9 4-10.5 3.7zm427.3-1.4c-1.6-.5-2-.7-2-1.2 0-.6 1-1.4 3-2.2 2.4-1 2.9-.8 3.5 1 .5 1.7.5 1.8-.4 2.2-1.2.7-2.6.7-4.1.2zm-11.6 0c-.9 0-1.3-.8-.9-1.5l.4-.5h3.6c4-.1 5.6.1 5.9 1 .3 1.1-.2 1.3-4.4 1.2l-4.6-.2zm-342-2.1c-.4-.7.3-1.2 1.7-1.2 1.3 0 2.2.6 1.9 1.3-.2.6-3.2.6-3.6-.1zm323.1 0c-.3-.2-.6-.5-.6-.8 0-.7.3-.7 4.6-1l4-.5c1.2-.4 2 1.4.9 2-.7.4-8 .6-8.9.3zm40.3-2a26 26 0 0 0-9.8-2c-4 0-4.9-.3-4.9-1.2 0-.2.2-.5.5-.7.3-.3 1.2-.4 4.1-.3 7.5 0 13.1 1.5 13.4 3.3 0 .6-.1.8-.7 1-1 .4-2 .4-2.6 0zm-392.8-4c-3.5-1.7-6.3-4.6-6.7-7.1-.3-1.7.2-3 2.2-5.7l1.9-2.7c0-.6-3.4-.3-5.6.6a41.2 41.2 0 0 1-12.8 2.2c-1.5 0-1.9 0-2.2-.4-.6-.6-2.8-.7-4.2 0l-2.2.7-2.4 1c-.9.4-1.3.4-1.8.2-1-.5-1.6-.3-3 .6-1.7 1.3-2.3 1.5-2.9 1.4-.3-.2-.5-.4-.5-1 0-.5-.2-.8-.5-.9-.3 0-.6-.4-.7-.7-.3-1-1.5-.3-1.8 1.2l-.2.7H4c2.5 0 1.3 3-2 4.6-1.4.8-1.8.6-1.8-1v-5.8l1.4-1.2a289.3 289.3 0 0 0 5.8-5.1l.7-.5-.7-.5c-.4-.3-.6-.6-.5-.9.2-.4 1.1-.6 4.5-.9 2.2-.1 5.8-1 5.8-1.4 0-.2-.5-.4-1-.5-1.1-.3-3.8 0-8.6 1.2l-1.8.4L5 85c-.7-.3-1.2-.3-2.8-.2l-2 .2v-.8c0-.4.2-.9.3-1 .4-.7 2-.8 4-.4l2 .4 2.7-.5 3.7-.7c3.4-.8 6.7.4 5.3 1.8-.3.3 0 .3 1 .3h1.4l.9 1c1.3 1.4 1.3 1.6.7 2.2-.5.5-.5.6-.2.8.4.3 1.2.2 2.5-.4.8-.3.9-.5.9-1.3 0-1.7 1.6-1.8 2.6 0l.5.8h3c3.6.1 3.9.2 4.1 1 .3 1.1-.2 1.4-1.8 1-1.6-.4-4.2-.4-5.6 0l-2 .4c-1.5.3-.8.6 1.2.6h2l.5.8.5.8 1-.3a11 11 0 0 1 2-.2c.7 0 1-.2 1.4-.7.7-.9 2.5-1.4 6.7-1.8 2.2-.2 3.7-.3 4.7 0 1.2.1 1.5 0 1.9-.3l.4-.4-.7-.1c-.9-.3-1.2-.9-1.2-2.2 0-.8-.2-1.2-.6-1.4-.4-.2-.6-.1-1.3.5l-.8.9-.6-.4a14 14 0 0 1-2-1.6 6.6 6.6 0 0 0-1.6-1.2c-.2 0-.6-.3-1-.6-.9-.6-1.6-.7-1.8 0-.2.8-1 .9-2.6.4a63.2 63.2 0 0 0-16-1.7c-4.3 0-4.8-.1-4.8-1 0-.4.2-.6 1-.8l1.4-.3c.8 0 .7-.4-.2-1.1a5 5 0 0 0-1.3-.8l-1.2 1c-.7.6-1.3.9-1.7.8-.8 0-.9-1.1-.1-2 .9-.9.4-1.2-1.4-1-1.8.2-2.5-.1-2-.9.1-.3.6-.5 1.4-.6l2-.3.6-.2-.2-1c-.1-1.6.1-2.4.8-2.7.8-.3 1.3.3 1.5 1.6.2 1.1.8 1.9 1.4 1.9.4 0 .5-.2.7-1.4.3-1.1.8-1.3 4.4-1 4 .4 4.3.2 2.7-1.4-2-2-2.6-4.4-1.3-5 .7-.2 1.3.2 1.3.9 0 1.1 1.4 2.9 2.3 2.9.2 0 .5-.5.8-1 .7-1.4 4.2-4.4 5-4.3.8.1.8 1.1 0 2.3l-1.2 1.3c-.8.7-2.4 2.9-2.4 3.3 0 .5 1.1 1 2.6 1 .4.1 1 .5 1.4 1.3a12 12 0 0 0 6 3.9c2.8.8 3.2 1.7 1 2.1-1 .2-.9.4.2 1.1 1.5 1 2.1 1 3 .4.8-.7 1.2-.6 2.6.8 1.4 1.3 1.8 1.1.6-.3-1.3-1.4-3-5.4-3-7 0-2 1.2-5 2-5 .6 0 .8 1.1.4 2.7-.5 2-.2 4 .8 5.3l.6 1.2c0 .6 1.9 2.8 2.7 3.2.5.2 1.2.7 1.5 1l.6.5.7-.8 2.2-1.7a28 28 0 0 0 5.6-5.4c.6-1 .6-3 0-4s-1.4-1.2-1.4-.4c0 .8-1.5 3-3.5 5s-3.2 3-4 2.6c-.8-.3-.3-1 2.3-3.7 2-2 2.9-3 3.2-3.9 1-2.4 0-4-2.6-5l-2.7-1c-1.2-.4-1.6-1-1-1.5.3-.5 1-.4 3.4.2 2.4.7 3.3 1.3 6 3.8l2.4 2.4.4 1.4.4 2.1c0 1-1.1 3.2-2.5 4.8-2 2.5-2 3.9.6 5.1 1.6.9 3.1 2.5 4.3 4.7.6 1.3 1 1.8 1.4 1.8l1.5.2 1 .2v-.7c0-1.3 1.6-2 2.1-1 .2.3.3.8.3 1.2 0 1 .5 1.2 3.4 1.5l2.7.3 1-.9c.9-1 2-2.5 3.3-4.8.9-1.5 1.8-2 2.4-1.5.5.4.4 1.4-.2 2.1-.7.8-2 3.7-1.7 3.7l1.8-.9c3.1-1.9 3.5-2 3.8-1 .3 1 0 1.5-1.5 2.6a18 18 0 0 1-6.3 2.6c-1.5.4-5 2.1-5 2.5 0 .7-1.5 1.2-4.5 1.4-1.7 0-3.9.4-4.8.6-1.4.3-2 .3-3.4 0-1-.2-2-.6-2.3-1-1.2-1-1.7-1.2-4.2-1.3H53l-.1 1.4c-.1 1.7-1 3-2.3 4-1.4 1.2-4.5 2.6-5.4 2.6h-.9l.7.7 2 1.5c2 1.3 2.2 1.5 2 2-.3.6-1.4.7-2.2.3zm-3.5-7c-.1 0-.3 0-.5.2s-.2.4 0 .8l.4.4.1-.6v-.7zm3.4-1.6a5 5 0 0 1 2-1.8c1.3-.5 2-1.4 1.7-2-.2-.5-1-.5-2.7 0-2 .6-3 1.5-3.2 3.3-.3 1.7-.2 1.8.6 1.8.4 0 .9-.3 1.6-1.3zm18-4.5c.2-.5.8-1.2 1.3-1.5 1.1-.8 1.2-1.2.2-1.8l-.7-.4-.6.7-.6.8-.9-.5-1-.5-1.5.9c-1.3.6-1.6.9-1.3 1.2.1.2.4.3.5.3.2 0 .7.4 1.2.8.7.6 1.1.8 2 .8h1zm6.5-1c.5-.2 1-.4 1-.6l-1.1-.3c-.9-.1-1.2 0-1.6.3-.5.5-.4 1.1.2 1.1l1.5-.4zm-59.6-.7C13 92 17.2 90 17 89.6c-.3-.4-3-1.5-3.7-1.5-.4 0-1.5.4-2.5.9l-1.7.8v1c0 .4-.3 1-.6 1.3l-.4.6 1.1-.2 2.4-.3zm43.2-.6 3-1 1.8-.7-.9-.5c-1.1-.7-1-1.5.2-1.7 1-.2 1.7-.5 1.7-1 0 0-1.2-.2-2.6-.2-2.5 0-3.1-.1-6.4-1.6-1.4-.6-2-.7-1.7 0 .7 1.7.7 1.8.4 2.3l-.7.4c-.6 0-.5.3.1.7.3.2.6.6.6 1 0 .2.2.7.5 1l1.2 1.3c.5.6.8.7 1.1.6l1.7-.6zM51 88.4c-.4-.5-.5-.7-.2-1 .5-.6 3.6-.4 4.1.3.6.9.2 1.2-1.6 1.2-1.4 0-1.8-.1-2.3-.5zm-31.4 3.2c.2-.2.3-.4.2-.5-.3-.2-1.3.2-1.3.5s.6.3 1 0zm5-1.1c.3 0 .5-.1.5-.3 0-.4-1.3-.6-2-.2l-.8.3.6.2c.3.1.7.2.9.1l.8-.1zm-3.9-2c1-.3.9-.6-.3-1-.6 0-1.2-.4-1.4-.6a1 1 0 0 0-1.5 0c-.2.2-.1.4.5 1.1 1 1 1.6 1.1 2.7.6zM59 84.8c.3-.1-.2-.7-1.5-2.1l-1.9-2-1 .9-1.6.8c-.7 0-.6.7 0 1 .7.4 4.6 1.6 5.3 1.6.2 0 .5 0 .7-.2zm-23.5-4.5c-.5-.4-1-.4-1 0 0 .1.3.2.7.2.6 0 .7 0 .3-.2zm-1.3-.2c0-.1-.3-.4-.8-.6-.9-.4-1.7-1.6-1.1-1.8l.8-.5.5-.4-2-2c-1.2-1-2.2-2-2.4-2l-.6.7c-.2.4-.4.7-.6.7-.6 0-.7.5-.4 1.3.3.6.3.9 0 1.2-.7.8-1.2.4-2.2-1.4-.5-1-1.1-2-1.4-2.2-.3-.2-1-.3-3-.2-3 .2-3.4.3-2.7 1 .7.7.7 1.2 0 1.7l-.6.4.7.7c.4.5.8 1 .8 1.4.2.6.9.8 2.2.8h.7l-.5-.5c-.5-.6-.7-1.2-.6-2 0-.6 1.4-.4 2 .1a7 7 0 0 0 3.4 1.4c.3 0 .9.3 1.3.8.8 1 1.2 1 1.2.1 0-1 .8-1 2.3 0l1.6 1.2c.2.3 1.4.3 1.4 0zm32 25.9c-.2-.2-.2-.3.1-.6.3-.2.5-.2.7.1.2.3.2.4 0 .5h-.7zm343.5 0c-.3-.2-1.4-.3-2.4-.3-2 0-3-.3-3-1 0-1 .9-1.1 4.3-1.2 3.6 0 4.8.3 4.8 1 0 1.3-2.1 2-3.7 1.4zm6.5 0c-.3-.3-.2-1.3.2-1.8.6-.5 2-.5 2.8.1l.6.5-.3.7-.3.7h-1.4c-.8 0-1.5 0-1.6-.2zm-116.5-2.8c-.6-.3-.9-.6-.9-1 0-.6.3-.8 1.7-.9a9 9 0 0 0 2.1-.5 10 10 0 0 1 3-.4h1.9l.2.5c.3.9-1 1.5-3 1.6a6 6 0 0 0-2.2.5c-1.2.6-1.7.7-2.8.2zM34 102.9c-.4-.2-.8-.5-.9-.8-.1-.3-.5-.5-2-.6-2.5-.3-4.9-1.1-5.7-2-.7-1-.8-1.3-.4-1.9.2-.3.4-.3 1.5.2l1.3.6.4-.7c.3-.6 1.5-.8 2-.4.6.6 2.4 1 5.5 1l3.5.3v.5c0 .4-.4.7-1.5 1.2a7 7 0 0 1-2 .8 2 2 0 0 0-.9.2c-.3.2-.3.3 0 .8 1 1 .6 1.3-.8.8zm274.7-2c.1-1 1-1.5 3.7-2.5l2.2-.7.8.5 1.5.8c.4.1.8.4.8.5 0 .1.1.2.3.2.3 0 .4 0 .4-.2 0-.1.4-.3 1-.4 2.5-.5 3.4-.8 4-1.4l.8-.6 2.8-.1c1.5 0 3-.3 3.4-.4a5 5 0 0 1 1.5-.3c.5 0 .9-.1 1-.3.4-.7 2.1-1 5-1 3.3 0 3.8.2 3.8 1.2 0 .7-1 1.2-1.7.9-.3-.1-.8 0-1.2.2-.9.4-1.7.4-2.4 0-.4-.2-.7-.1-1.2.2-.3.2-1.2.5-1.9.6-.7 0-1.6.4-2.1.7a4 4 0 0 1-2 .5 5 5 0 0 0-2 .3c-.9.5-2 .7-5.5 1.3-2.4.4-3.2.3-3.4-.4-.1-.4-.3-.5-.6-.3-1 .4-2.9.4-3.6 0-.6-.4-.8-.5-1.4-.2-.3.1-.6.4-.6.5 0 .4-1.7 1.1-2.7 1.1h-.8zm111.4-.3c-2.4-.2-3-.3-3.3-.6-.5-.8.2-1.2 2.3-1.6a17 17 0 0 1 7 .3c.4.4.4 1.4 0 1.8-.3.3-.6.3-6 0zm14.6-3c-1-.3-.8-1.4.1-1.8 1.3-.5 3.5-.8 5.2-.8 1.4 0 1.8 0 2.1.5.4.6.3 1.3-.2 1.7a25 25 0 0 1-7.2.4zm-6.7-5c-2.4-.4-3.5-1.7-1.8-2.1.8-.3 6.4 0 7.1.4.6.2.7 1.6 0 1.8-.5.2-3.5.2-5.3-.1zM.4 88.7c-.4-.4-.5-1.3-.2-1.9.3-.4 1.6-.7 3.7-1l1.8-.1.5.5c.7.9.4 1.2-1.6 1.6a8 8 0 0 0-2.5.8c-1 .7-1.2.7-1.7.1zm432.9-.7c-.6-.2-1.5-.4-2.1-.4-1.4 0-3.4-.7-3.4-1.2 0-.6 2-1 4.2-.8l3.4.2c1.8 0 2.4.6 2 1.6-.2.6-.5.7-1.2.7l-1.4.1c-.3.1-1 0-1.5-.2zm-358.7-.4c-.1-.3-.1-.6 0-.8.1-.2.3-.8.3-1.3 0-1.3.3-1.7 1.1-1.7 1 0 1.5.5 1.5 1.3 0 2-2.1 4-2.9 2.5zm108 .2c-2.3-.3-3.6-.4-8.5-.6a41 41 0 0 1-5.2-.5 20 20 0 0 0-3.5-.3c-1.4 0-3-.2-3.6-.4-.6-.1-3.5-.4-6.4-.5-6.5-.4-8.2-.6-10.2-1.6a29 29 0 0 0-10.8-3.2l-4.1-.6c-5.3-1.1-6.5-1.3-8.5-1.4l-3.4-.6c-.7-.3-2-.6-3-.7-.8 0-2.6-.5-3.9-.8-1.3-.4-3.9-.9-5.7-1.2-2-.3-4.6-1-6.7-1.8a127.6 127.6 0 0 0-7.7-2.5c-1-.6-4.2-.6-6.2 0-2 .4-4.4.7-7.8.7l-7.6.4c-2.6.2-4.9.3-5.1.2-.2 0-.4-.4-.4-.7 0-1 .5-1.2 8.7-1.6 7.2-.4 11-1 12.2-1.6.9-.4 2.5-.5 4.8-.3 2 .3 2.7.5 5.3 1.8a20.8 20.8 0 0 0 5.2 1.8l6.1 1.4a85.9 85.9 0 0 1 10.3 2.3 114.5 114.5 0 0 1 6.6 1.2 65.8 65.8 0 0 0 9.2 1.5c1 0 2.1.3 2.5.5a39.5 39.5 0 0 1 9.7 2.5c3.2 1.4 3.9 1.6 9.5 1.9 2 .1 5.3.4 7.2.7 2.1.4 5.1.6 8.3.7 5 .1 7.6.4 9.2 1.2.5.2 1.5.4 2.3.4 1.5 0 3 .3 4.1.7.6.2.7.4.5.6-.4.5-1.2.6-3.3.4zM1.4 79.6c-.8-.3-1-.7-1-1.5 0-.7.5-.9 2.2-.6.8.2 1.6.3 1.7.2 0-.1-.2-.9-.7-1.7-.7-1.3-1-1.5-1.6-1.6-1.5-.2-1.6-1.2-.3-1.7.3-.1.8-.6 1-1.1.4-.7.8-1 1.2-1 .7 0 1 .6 1.4 3 .4 1.9 1.3 3 3 3.7 1 .3 1.2.5 1.3 1 0 .7 0 .9-.9 1.2-1 .5-6.2.5-7.3.1zm439-2.8c-1.7-.2-2.2-.5-2.2-1 0-.8.9-1.2 2.3-1.2.7 0 1.9-.2 2.5-.4.6-.2 1.7-.5 2.5-.5 1.1-.2 1.4-.1 1.8.4.5.4.5.6.2 1.2-.1.3-.6.7-1 .8-.4 0-1.2.3-1.7.5-1 .4-2 .4-4.4.2zm-82.4-3-1.4-1c-.7-1.2-2.4-2-6.6-3.1a40.7 40.7 0 0 0-12.4-.6c-.6.2-2.3.3-3.9.3-2.1 0-3 0-3.5-.4a14.7 14.7 0 0 0-7.4-2.2l-5-.4c-1.9 0-4.1.7-5.7 1.7-1.5 1-1.8 1.1-3 .7l-1.6-.4c-.8-.2-1.2-.8-.7-1.4.3-.4 1.3-.4 2.2 0l.7.3 1-.8c1.7-1.4 3.5-1.8 8.3-1.8 5 .1 8.3.7 11.3 2l2 .8 4-.2a42 42 0 0 1 15.4.8c2.1.6 5 2 6 3.2.6.5 1.2 1 1.4 1 .2 0 1.2-.6 2.2-1.3 3.4-2.3 4.5-2.7 8.5-3.4a43.3 43.3 0 0 1 16.3 0l8.6.8c2.6.3 5.2.4 6.7.3 2-.2 2.4-.1 2.7.2 1.2 1.4-2.6 2-8.2 1.4a208 208 0 0 0-16.8-1.4c-5.1-.2-9.7.2-11.7 1.1-2 .8-4.7 2.3-6 3.2-2 1.5-2 1.5-3.4.6zm-230.6-1.7a8 8 0 0 1 1.7-3.4c.7-.8 2.3-1.3 3.3-1.2 1 .2.8.7-.5 1.2a5.7 5.7 0 0 0-3.3 3c-.3.8-1.2 1-1.2.4zm7.3-4c-.3-.4-.2-.6.3-1.5.3-.6.5-1.1.4-1.3a6 6 0 0 0-1.3-.8c-.7-.3-1.6-1-2-1.5l-.8-1 .2-1.3c.4-3.6.5-4 1-4 .3 0 .4.3.5 2.4 0 1.7.2 2.6.4 2.9 1 .8 3 2 3.6 2 1 0 1.5.3 1.5 1l-.2.6c-.4 0-1.8 1.5-2.1 2.2-.4.8-1 1-1.5.3zm162-1a9.4 9.4 0 0 0-3.9-2.3c-2.8-1-4.2-1-9.6 0-3.5.7-6 1-7.6.9l-1.7-.2-1.8-2c-4-4.4-5.4-5.3-9.3-5.7-1-.1-2.3-.4-3-.8l-2.7-1a8 8 0 0 1-2.7-2 12 12 0 0 0-3.4-2.8c-2-1-3.2-1.2-6.8-1.3-2.7-.1-3.9-.3-4.5-.6-1-.6-3.5-1-5.7-1a9 9 0 0 0-4.6 1.5 3 3 0 0 1-1.1.2c-.4 0-1 .2-1.4.5a9.4 9.4 0 0 1-7.4 1.3c-1.5-.3-3.4-2-4.1-3.8-.4-1-.8-1.2-1.5-1.5a9 9 0 0 1-2.8-2c-2.7-2.5-4.9-3.3-10.2-3.6-4-.3-5 0-6.6 1.7-.7.7-1.4 1.3-1.7 1.3-.3 0-.9-.4-1.3-.9-.6-.6-1.4-1-2.6-1.4l-1.7-.5-2 .3a14.4 14.4 0 0 0-6.6 3c-.6.3-.8.6-.6 1l.3 2.2c.2 2.8-.4 3-4.2 2.3-1-.3-2.2-.7-2.6-1l-1.1-.5c-.2 0-1.4-.8-2.6-1.7-2.7-2.1-4.8-2.8-8.5-3-2-.1-2.5-.3-2.5-.6 0-.7 1.7-1 4-.9 1 .1 2.3.3 2.7.5 2 .7 2.5 1 3.4 1.8 1 1 3.7 2.6 4.1 2.6.2 0 .8.3 1.3.7a7 7 0 0 0 2.3 1c1.6.2 1.9-.1 1.9-2.3v-1.6l1.5-1.5c1.2-1.1 2-1.6 3.4-2 1-.4 2.3-1 2.8-1.4l1-.6 2 .1c1.4.2 2.5.4 3 .8 1.5.8 3.6.5 5.4-.7.5-.3 1.7-.5 4.2-.8l3.4-.3.6.6c.4.3 1.3.6 2.5.8l2.7.6c1.3.4 3.7 2.1 4.5 3 .3.6 1 1 1.7 1.2l1.2.3.8 1.6c1 2 1.3 2.4 2.4 3 2.1 1 5.3.7 6.8-.8.7-.7 1-1 1.8-1 .5 0 1.4 0 2-.3 2.2-.8 6.9-1 10.7-.3 1 .2 2.5.3 3.2.3.8-.2 1.4 0 2 .2a6 6 0 0 0 2.2.5c2.3 0 4.2.7 6.2 2.3 1 .7 2 1.4 2.2 1.4.7 0 2.8 1.2 3.8 2.2.8.7 1.4 1 6 2.6l2.5.8 3 3c2.3 2.4 3 3 3.9 3.2 1.5.2 5.6-.1 7.5-.7a16 16 0 0 1 5.3-.6h3.6l1.1.5 2 .7c.3 0 1.4.8 2.3 1.6 1.7 1.6 2 1.7 3.3 1.2 1-.4 1.7 0 1.7.8 0 .7-.6 1-2.5 1.2l-1.6.2zm-259-1.7-2-1.6c-1.4-1.4-1.6-2.4-.7-3l.6-.2 1 1.2 2 1.7c1.7 1 .9 2.8-.8 2zm5-.2c-.7-.5-.6-1.4.1-1.7.7-.3 2.3.3 2.6.8.7 1.1-1.4 1.8-2.7.9zM130 52.8c-.3-.7 1.4-2.3 3.4-3.4 2.3-1.3 3.1-1.5 4.8-1.6a5 5 0 0 0 2.8-1c.8-.6 1.9-1 2.4-1.2.7 0 1.1-.4 1.6-1.1.6-.8 1-1 2.6-1.6l3.3-1.3c1.7-.8 2.6-.8 3.6.3.5.4.7.9.6 1l-2.5.5c-2.2.3-4 .8-4.4 1.1l-.7.2c-.2 0-1 .5-1.5 1-.8 1-1.1 1.1-2 1.1-1.3 0-3 1.3-3 2.3 0 .7-.6 1.1-1.1.7l-1.8-.6-1.5-.3-1.4 1c-.8.4-2 1.4-2.7 2-1.3 1.3-2.2 1.6-2.5.9zm313.2-1.3a40.5 40.5 0 0 0-11.6-1.7c-.7-.2-2-.2-3.4 0-1.6.2-3 .2-5 0l-8-.7a82.2 82.2 0 0 1-16.3-2.5 25 25 0 0 0-6.4 1.3c-.9.3-2.4.6-3.3.7-1.7.1-2.3 0-7.7-1l-4.9-.8c-1.1-.1-5-.8-8.6-1.6a564.6 564.6 0 0 0-15.9-3.1c-.8 0-4.8-1.3-5.4-1.8-.3-.2-.5-.7-.5-1.6-.1-1.3-.5-2-1.3-2l-.8-.1c-.2-.2-1.2-.4-2.2-.6a7 7 0 0 1-2-.6l-1-.2c-1.4 0-3.7-.7-4.4-1.4-.8-.7-.8-1.3.1-1.8a8 8 0 0 0 1.4-1c.9-.8.5-1.4-1-1.7-3.6-.8-4.5-.8-8.5-.6-1.7.1-3.1 0-5.5-.4a12 12 0 0 0-4.6-.3c-1.8.4-4 .4-6.4 0l-6.7-1c-2-.5-6.9-.9-12.8-1a64.2 64.2 0 0 1-17.5-1.5 55.1 55.1 0 0 1-6.2-1c-.5 0-1.1 0-1.4-.2-.6-.3-4.3-1-6.8-1.3l-3-.5a82.7 82.7 0 0 0-11.8-2c-9.3-1-11-1.2-13.9-1.8-2.5-.5-6.6-.8-10.4-.8-2 0-5.2 0-7-.2-2.8-.2-6-.1-10.2.4-.7 0-2.8 0-4.7-.2-2-.2-6.7-.3-11.7-.3-4.7 0-9.4 0-10.5-.2l-2-.2-.9-1c-1.2-1.4-2-1.6-7.3-2-2.2-.1-5-.4-6-.7L155 12c-1.2 0-3.6-.4-5.3-.6a370.7 370.7 0 0 0-17-2.2l-4.4-.5c-3-.2-4.6-.7-6.1-2-2.9-2.4-4.3-2.7-13.9-3.3l-7-.5c-.3-.1-.5-.4-.5-.6 0-.2.2-.4.5-.4 1.5-.5 14.7 0 17 .6 1.6.4 3.3 1.2 4 1.8l.8.6 1.2.7a12 12 0 0 0 6.4 1.7c1.1 0 2.6 0 3.3.2l2.5.4c.7 0 2 .3 3 .5l5.6.8a211.5 211.5 0 0 1 10 1.2c.7 0 1.8.1 2.4.3 2.8.6 6 1 7.9 1 4.2 0 8.1 1.1 9.7 2.6l.7.7h11l11.4.1h9.5a91.3 91.3 0 0 1 18.8.8c1.6 0 3.2.2 3.4.3l7.3 1c2 .2 4.7.5 6 .8 1.2.2 3.8.5 5.8.6l4.7.7c1.5.5 3.5.8 7.3 1.3l5.5 1c1.4.4 3.4.7 4.5.7 3.1.1 8.2.6 8.5.9.4.2 3.1.3 3.6 0l2.4-.3c1.5 0 2.2 0 2.5.3.3.2 1.2.3 2.9.2a155.9 155.9 0 0 0 16 .6 119.2 119.2 0 0 1 13.6 1 366.2 366.2 0 0 1 17.5 3c1.6.2 2.5.9 2.5 1.7 0 .3-.6 1-1.3 1.8-1.4 1.3-1.4 1.7.1 2a46.9 46.9 0 0 1 4.2.9c.6 0 2 .4 3 .7 2.2.7 2.7 1.2 2.3 2.7-.2.6-.2 1 0 1.1.8.7 2.3 1.3 3.6 1.5 2.1.2 9.8 1.7 11 2 3.9 1 10.2 2.2 15.2 2.7 1.5.1 4 .5 5.5.8 3.7.7 6.6.7 7.4 0 .8-.9 3.7-1.4 7.6-1.4 2.6 0 3.5.2 4.2.5.5.2 1.4.5 2.2.6l5.1.7a111.9 111.9 0 0 0 21 1.2l5.7.5c5.8.5 7.7.9 8.4 1.5.3.4.6.8.6 1 0 .9-2 1.6-3.1 1.1zM311.9 25.7c-1 0-2-.2-2.2-.3-.1-.2-1.2-.2-2.3-.2-1 0-1.5 0-1 .1.5 0 1 .2 1.2.4 0 .1 1.6.2 3.3.2 2.3 0 2.6-.1 1-.2zM113.1 34c-2-.1-4-.3-4.3-.5-1-.6-7.3-.7-10.3-.2-1.9.3-4.8.4-10.5.4l-15.4.1a287.2 287.2 0 0 1-20-.5c-2.2 0-3-.2-3.5-.5-1-.7-1.2-1-1-1.4.1-.5 1.2-.4 3.1 0 1.8.5 6.3.9 12.6 1.1l5.3.3 1.5-.1a62.6 62.6 0 0 0 11.5-.2l10-.4c4.2 0 7-.2 8.6-.9 1-.3 4.1-.3 5.7.1 2 .6 5 1 7 1.2 2.8.2 2.6.2 7.8 0 8.5-.4 9-.4 8 .8l-.3.5h-4l-6 .2h-5.8zm18-1.3c-.3-.5.1-.9 1-.9.5 0 1 0 1-.2l2-.4c1 0 3.3-.3 5.2-.6 2.7-.3 3.5-.4 4-.1.2.2.6.3 1 .3.7 0 1.3.3 1.3.6s-1 .4-3.2.5c-1.7.1-3.5.3-3.9.5-1.4.4-8.2.6-8.4.3zm17.2-1.3c-.3-.3.1-.6.8-.6.4 0 .6.1.6.3-.1.4-1 .6-1.4.3zM404.6 24c-.2-.5.6-1.3 1.1-1 .5.1.5 1 0 1.3-.7.2-.9.2-1-.3zm-6.8-.3-2.2-.4c-.5-.3-.4-1 .3-1l2.2-.5c1.9-.3 3-.1 3.7.6.4.4.4.6.2 1-.3.4-1.4.5-4.2.3zM390 23c-7.4-.9-24.8-2.1-29.5-2.1-1.3 0-8-.9-10.3-1.4-2.8-.5-3.7-1-4-1.7-.2-.8-1.4-1.2-4.8-1.4a58.3 58.3 0 0 0-11.5-.8c-6.6 0-7.3 0-8-.3-.9-.5-10-.7-31.1-.9-14.3 0-22-.4-22.5-.8-.3-.3.4-1 1.2-1.2h3.3a37 37 0 0 0 10.1 0c.2.1 5.4.3 12.9.4 23.2.3 26.2.4 26.2 1.3 0 .2.9.2 2.4 0 6.2-.3 8.2-.4 10.6-.1l7.4.7c5.1.5 6.2.8 6.9 1.9.8 1.4 3.6 1.9 11.6 2 3 0 4.3.2 4.9.5.5.3 1.5.4 2.9.4l3.3.2 10.6.8c1.7 0 3.1.3 4.3.7l1.8.6 1.7-.3c1.4-.3 1.7-.3 2.5 0 .8.5 1 1 .5 1.5-.4.3-.8.3-3.4 0zM92.3.5c0-.3.2-.5.4-.5.5 0 .7.3.5.7-.2.6-.9.4-.9-.2zm3.2.2c-.3-.4-.2-.4.4-.4.4 0 .7.1.7.4 0 .2-.2.4-.4.4l-.7-.4z"/>
</svg>
