<?xml version="1.0" encoding="utf-8"?>
<svg xmlns="http://www.w3.org/2000/svg" xmlns:svg="http://www.w3.org/2000/svg" version="1.1" viewBox="0 0 358 347">
  <title>Pickles stands in the shop doorway while Ginger closes the window shutters.</title>
  <path d="M111.5 346c-.2-.3-3.3-.5-8.2-.7-5.8-.3-6.1-.3-6.5-1.2-.4-1 0-2 .9-2.3a86.4 86.4 0 0 1 11.4-.2c4 .2 4.3.3 6.1 2 1 1 1 1.3.7 2-.3.5-.6.6-2.2.6l-2.2-.2zm24.3-2a37 37 0 0 0-7.6-.8c-5.1-.3-6-.4-6.5-.8-.7-.7-.7-1.5 0-2.3 1-.8 2-.9 6-.4 8 1 7.9 1 9.2.3l1.2-.6-1.5-.4c-.9-.1-2.8-.3-4.3-.3-3.2.1-8.2-.6-10-1.3a6.2 6.2 0 0 1-3.1-2.5c-.8-1.7-2-1.5-3.4.6-.6 1-1.1 2-1.2 2.6-.2 1.6-.8 2.1-3 2.5-2.6.4-5 0-7.5-1.2-2.3-1.1-6-1.7-7.5-1.2-1 .4-1.5.4-3.8-.2-1.4-.4-2.3-1.4-2.3-2.6 0-.5-.1-.6-.5-.5a46.1 46.1 0 0 1-17.5 1.3l-1.4-.9c-.5-.4-.7-.5-1.5-.2-.7.2-1 .2-1.5-.1-1.3-.9-.5-2 1.4-2 .9 0 4-1.6 5.1-2.5 1.4-1.2 2.1-.7 1.2.8-.6 1-.4 1.3.9 1.2 2.2 0 9-4.3 9-5.7 0-.8-1.4-3-2-3.3-.8-.2-1.4-.9-1.4-1.4 0-.7 1-1 2.4-.5a5 5 0 0 0 2 0c1.2-.1 4-1.5 4-1.9 0-.1-.3-.4-.8-.7-1.6-1-1.1-2.7.7-2.7.8 0 1 .2 2.1 1.5a6 6 0 0 1 1.2 2c0 1-2.2 2.7-5.1 3.9-.7.2-.7.3-.6 1.4.3 2-.5 4-2 5.2-.6.6-1.6 1.3-2.2 1.6l-2.1 1.2-1 .6h1.4a6 6 0 0 0 3.2-.8 46 46 0 0 1 8-2.6c1.6-.4 2.9-1.3 2.3-1.5-.6-.3-1.4-1.1-1.4-1.6 0-.7 1.2-1.4 3-1.7l1.5-.3v-1.5c0-1.6.3-2.1 1.3-2.1.6 0 1.6 1.3 1.6 2.1 0 .2.3.7.6 1l.6.7.5-.6c.8-1 2-1.4 3.7-1.1 1.9.4 2.5.8 2.8 2.2.5 2 0 3-2.2 3.9-1 .5-1.7 1-1.8 1.3-.1.3-.6.8-1 1.1-1 .8-5.6 2.9-6.2 2.9-.2 0-.4.1-.4.3 0 .3.5.4 1.5.6 2.2.2 5.7 1 6.5 1.6.9.6 5.2.5 5.5-.1l.8-1.6c.5-1.2 3.5-4.8 4.5-5.5.7-.5 2-.5 2.5 0 .2.1.6.7.9 1.3.6 1.5 1.9 2.8 2.8 3 .5 0 1.5.4 2.4.6 1 .3 3 .6 5.3.7l4 .3c0 .1 2.4.2 5.1.1 5 0 5 0 6 .7s2 .7 4.9 0c1.8-.4 3.6.1 3.8 1.2.3 1.5 0 1.4 10.7 1.5 9.3 0 13.5-.1 19.6-.8l10-.9c2 0 5.3-.6 5.7-.9.8-.5 2.6-.9 3.7-.7l2.7.4c3.2.4 4.8 2.2 3.3 3.6-.5.5-1 .5-4.9.5-5 0-7 .3-15.9 2-4.3.9-7.6 1-20 .9H160c-6.8.2-8.5 0-9.7-1.4l-.8-1-2.3.1c-3.2.1-4.8.5-5.6 1.4-.7.7-2.9 1.6-3.7 1.6l-2-.6zm-42-10.1 2-.3c1-.1 3-.7 4.3-1.3l1.4-.5c.4-.1.5-.3.4-1-.2-1 .3-1.5 1.6-1.8a5 5 0 0 0 1.5-.7l1-.5c1-.3.5-.8-1-1-1 0-1.6 0-1.9.3-.3.2-1 .4-1.6.3-1 0-1.2 0-1.3.7-.2 1-1.6 2.6-2.8 3.2a139.1 139.1 0 0 0-3.5 1.7c-.6 0-2.3.7-2.5 1-.2.3 0 .3.5.2a22 22 0 0 1 1.9-.3zm-32.7 9c0-.4 0-.4.2-.2v.5c-.1 0-.2 0-.2-.3zm228.7-.5a56.5 56.5 0 0 0-5.1-1c-1.5-.3-7-.7-13.9-1a266.3 266.3 0 0 0-30 1.2l-9.5.3-11.3.2h-7.7v-1c-.1-.7 0-1 .7-1.8l.8-.8 2.8.2a80 80 0 0 0 17.3-.6c1.2 0 2.9-.2 3.7-.4a493.8 493.8 0 0 1 46.9.6l4.8.5c.6 0 1.3.2 1.6.4a4 4 0 0 0 1.9.4c1.3 0 1.4 0 1.6-.7.1-.6 0-.9-.7-1.5s-1-.7-2.2-.7c-2.7 0-4.2-.9-4.2-2.3 0-1.3.7-1.6 6.6-3l4.8-1.1c2.2-.7 7-1.4 16.4-2.4a130.7 130.7 0 0 1 9.8-1.7 44.7 44.7 0 0 0 10.1-3l3.7-.7a23 23 0 0 0 3.2-.7c1-.4 4-.7 4.5-.4.7.3.5 1.4-.2 1.7l-1.2.3c-.3 0-.6.1-.6.3l-1.7.5a84 84 0 0 0-15.4 4.5 3846.7 3846.7 0 0 1-7.8 1.9l-2 .8c-1.6.5-2.2.6-7.3.6-7.1 0-9.4.3-11.1 1.1-.8.4-2 .9-2.8 1.1l-1.4.5 1 .7c1 .8 1.7 2.2 1.7 3.2 0 2-1.5 3.5-4 3.9-2 .3-2.4.3-3.8 0zM76.3 328.6l-.1-.9c0-.5-1.4-2-2.7-3-.8-.4-1-.8-1-1.3 0-1 1-1.5 1.8-1 1 .5 1 .2 0-2.4-1-2.5-1-3.9-.1-4.3.8-.4 1.6.2 1.8 1.3.2 1 1 2 1.6 1.9.5 0 .4-.2-.2-1-.8-1-1-2.3-.2-2.7.8-.4 1.8-.3 2.5.3l.7.5.6-.6 1-.7c.7 0 3.6 2.3 3.8 3 .3.7-.5 1.5-1.6 1.5-.5 0-1 .2-1.3.5-.4.5-.7.6-1.6.5l-1.6-.3c-.5-.2-.6-.1-.6.2 0 .4-1.3 1.2-2 1.2-.6 0-.4 1.3.4 2.4.5.6.5 1 .4 1.8a39.6 39.6 0 0 0-.5 3.2c-.3.4-.9.3-1-.1zm177-3.9c-.9-.5-1.4-.5-4.9-.4-2 0-4 0-4.1-.2-.2 0-.4-.4-.4-.8s.2-.7.8-.8c1.1-.3 4.4-.7 7.7-.8 2.8-.2 3-.1 3.8.4 1 .8 1 1.9 0 2.6-.9.7-1.6.7-2.9 0zm-198-2.6c-.6-.7 0-1.8 1.3-2.5l2.3-1.9 2.7-2.4c.9-.7 1-.9.6-1.5-.3-.7-.4-.7-2.6-.6-2.9 0-5-.2-7-1l-2.2-.4c-1.2 0-1.8-.6-1.5-1.4.5-.7 1.4-1 4-1a15.5 15.5 0 0 0 5.5-.8c2.6-.6 2.2-1.2-1.3-2-3.8-.9-5.8-2.2-4.8-3.1.5-.5.8-.5 2.1 0l1.9.5c.7 0 .8 0 .8-.5 0-1.7-1.9-5-3.9-6.7-1.5-1.2-4-2.4-5.7-2.6l-1.6-.2-1.7 1.7a7.6 7.6 0 0 1-3.8 2.4c-1.9.7-2.2.7-4.9.5l-3.6-.4c-.5-.2-1 0-1.6.5-2.4 1.8-7.2 1.1-8.9-1.2-1-1.5-3-3.1-3.8-3.3-1.1-.3-3 0-3.5.7-1 1-1.2 1.3-1.2 3.4 0 1.8 0 2.1-.5 2.2-.3.1-1 0-1.4-.1-1.3-.5-1.8-.2-1.8 1 0 1.3-.5 1.9-1.4 1.4-.7-.3-1.2-1.2-1.4-2.7-.1-.8 0-1 .8-1.6.5-.4 1.1-.7 1.3-.7.6 0 1.2-.8 1.7-2.1 1.1-2.9 2.2-3.8 4.9-4.5 2.3-.6 5.6.5 6.5 2 .2.5.5.9.6.9.1 0 1 .6 1.8 1.4 2 1.8 2.9 2 3.5 1.2 1.4-2 1.4-2 3-1.6 2.8.6 4.2.8 6.4 1 1.8.1 2.3 0 3.4-.4 2-.9 2.8-1.6 3.4-2.8.6-1.5 1.3-2.1 2.5-2.1 1 0 5.3 1.4 6.4 2.2 2.8 1.7 4.5 4 6 7.7l1.2 3c0 .4.6.9 1 1.2 3.8 2.9 4 4.5.5 5.1l-1.8.5s.8.4 1.8.6c3 .8 4 1.7 3.7 3.1-.2.7-2 2.6-4.1 4.4-.8.7-1.5 1.4-1.5 1.7-.2.5-2.7 2-3.3 2-.3 0-.6 0-.8-.2zm291.2-6.4c-.2-.1-.4-.5-.4-.9 0-.5.2-.8 1-1.1.5-.3 1.9-1.4 3-2.5l2.1-2 .2-2.4a170 170 0 0 0 .8-8.8c.2-1 .3-4.6.3-8 0-7.3.2-18.4.5-23.5.1-2 .2-8.7 0-14.8a528 528 0 0 1 0-27.5 166.5 166.5 0 0 0-.4-27c-.3-1.7.7-2.4 2-1.3.5.4.6.7.5 1.9-.1 2.1 0 2.3.3 4.5.2 1.2.3 4.2.2 7.6a295.5 295.5 0 0 0 0 12.3 1029.2 1029.2 0 0 0 .6 53.7v10.2c0 8-.2 9-.6 10-.3.6-.5 1.4-.5 1.7l-.4 2c-.2.7-.4 2.2-.4 3.3l-.2 3.5a72 72 0 0 0-.5 3.5c-.2 2.4-.7 3.1-2 2.9-.9-.2-1 0-2 1-.5.5-1.5 1.3-2.1 1.5-1.3.6-1.4.6-2 .2zm-189.7-1.1-2.8-1c-3.7-1.8-3.8-2-5-3.8a23 23 0 0 1-1.4-2.5c-.2-.4-.7-1-1.2-1.4a6.2 6.2 0 0 1-1.5-1.7 4 4 0 0 0-1.5-1.5l-6.4-2.9a6.8 6.8 0 0 1-3.3-3.1c-.4-.7-1-1.8-1.6-2.3-.5-.6-.9-1.1-.9-1.3a204.6 204.6 0 0 0-6.3-12.3l-1-1.4c-.4-.3-.6-.6-.6-.8 0-.3-1.8-2-3-3a25 25 0 0 1-5.3-4.7 92.2 92.2 0 0 0-11.1-11 8.6 8.6 0 0 0-4.3-2.4c-1-.2-1.6-.7-3.3-2.4a26.9 26.9 0 0 1-2.8-3c-.3-.6-1.1-1.5-1.7-2.1l-1.2-1.2-6-.1a184.6 184.6 0 0 0-27 .6l-4.4.4c-.5.2-5.4.4-12.6.6-2.8 0-5.6.2-6.2.3-1.7.4-4.9.6-5.2.4-.2-.1-.4-.4-.6-.8-.3-.5-.4-.5-7.5-.5-7.4 0-7.9 0-7.9-1 0-.9.8-1.2 3.5-1.3 2-.1 14.5.1 18 .4l5.2-.3c2.6-.2 7.3-.4 10.5-.4s7-.2 8.4-.4l16-1c3.5-.2 4-.2 4.9.2.7.4 1.5.5 3 .5a7 7 0 0 0 2.2-.1c0-.5-1.2-2-2.3-2.8a43.1 43.1 0 0 0-10.7-5c-2.8-.4-12.4-.4-21.1 0l-16.1.4c-10.7 0-11.3 0-11.7-.4-.3-.3-.5-.7-.5-.9 0-.8.7-1 5-1 3.5-.1 4.3-.2 4.7-.6.6-.5 1.4-.5 2 0 .5.3 1.7.4 6.2.4 3.2 0 5.9-.1 6.3-.3.5-.1 1-.6 1.1-1 .3-.6.4-.6 2-.5 1.3.1 2 .3 2.6.8.8.6 1.3.7 3.8.8 1.9.2 4.3.1 6.6-.1 3.2-.3 3.5-.4 3-.7a26 26 0 0 1-4.4-2c-2.1-1-3.5-1.5-4.5-1.6-1.4-.2-2.7-.7-4.7-1.8l-2.6-1.5a23.1 23.1 0 0 1-5-3.6c-1-1-1.3-1.3-1.2-2 .2-1.7 2.8-2.5 9.4-2.8 6-.2 7-.2 8.9.6 3.2 1.3 4.7 1.7 5.2 1.5 2-.6 6.5.2 9.9 1.8 5 2.4 8.4 3.9 9.5 4.2 1.6.3 6.5 2.5 7.2 3.1 1.2 1 3.6 2.4 4.2 2.4.6 0 .6 0 .8-2.3.1-1.8 0-2.6-.2-3.4-.6-1.4-1.4-4.9-1.8-7.4a247.1 247.1 0 0 0-3.3-17.5l-.5-3.3a16.1 16.1 0 0 0-2.2-6.8l-.3-.3c-.4 0-.3.6.2 1.7.8 1.5.6 1.7-1.4 2.2-.9.1-.9 0-1.2-1l-.4-1.5c0-.2.1-1 .4-1.8.4-1 .5-2 .5-4 0-2.7-.2-3.6-1-3.9-1.8-.6-7.8-5.4-9.2-7.4a39.8 39.8 0 0 1-4.6-10.4c0-.3-.3-1-.8-1.5-.8-1-.8-1-.6-2.6.1-1 0-2.3-.2-3.9l-.8-4.2c-.4-2.8-1.3-5.3-2.3-6.5-.5-.5-1-1.5-1.2-2.2l-1-3.6c-.8-2.6-.9-3.5-.1-4 .6-.4 1.3.1 1.6 1.3.8 3.7 2 7.4 2.6 7.5.3 0 .4-.3.6-1.5 0-.8.2-2 .4-2.8l.3-2.2c0-.5.2-1.8.5-2.8.3-1 .5-2.3.5-2.7 0-.5.4-1.7 1-2.7a15.4 15.4 0 0 0 1.7-5.4l.7-2.4c.2-.4.3-1.2.3-1.7l.2-1c.4-.2 1-3.1 1-4.6 0-1.3 0-1.6-.8-2.5-.5-.6-1-1.2-1-1.4 0-.2-.1-.6-.4-.8a3.8 3.8 0 0 1-.9-3.7c.3-1.1.3-1.2-.5-2.5l-.8-1.6-.7-2-1-2.2c0-.4-.3-1-.5-1.3l-.5-1.4c0-.7 0-.9.6-1 .6 0 1.9.9 1.9 1.3 0 .2.3.9.8 1.6 2.8 4.7 4.3 8.7 4 10.4 0 1 0 1.2.6 1.9.4.5.7.7.9.5.6-.6 2.1-6.1 2.1-7.7l.4-1.2.3-.7.4 1c.8 1.4.6 3.4-1 8.3-.6 1.9-1.1 4.7-1.1 6 0 .7-.2 1.5-.4 1.8-.2.2-.5 1-.6 1.8 0 .7-.5 2-.9 2.9-1 2.4-1.3 3-1.4 5 0 1.3-.2 1.9-.6 2.3a4 4 0 0 0-.8 1.3 8 8 0 0 1-.6 1.4c-.3.5-.5 1.2-.5 1.6l-.3 1.4c-.2.4-.4 1.6-.6 2.6 0 1-.3 3-.5 4.4-.6 5-.3 6.4 1.4 7.7.4.3 1 1.2 1.4 2 .7 1.4 2.1 3.2 2.6 3.2l1.7 1.1c2.2 1.5 3.7 3.1 3.9 4.4.1.6.5 1.5.8 2.1.4.7.7 1.5.7 2.3 0 1.5.7 3.5 1.4 4 .3.2 1 .4 1.4.4 1.2 0 1.7.3 1.7.8s-.2.5-1.2.5-1.2.1-1.4.7l.1 1.2c.4 1 2.8 3.8 3.3 3.8.2 0 .5-.6.8-1.7.3-1 .8-2.6 1.3-3.5.4-1 .9-2.5 1-3.5.6-4.1.1-13.4-.8-15.9-.4-1-.8-5-.9-10l-.2-2.4h-1.3c-1.5.5-2.3.3-4-1a13.2 13.2 0 0 0-4.2-2.6c-.5 0-4-3.3-4.7-4.6-.6-.9-.7-1.9-.3-2.1.2-.1.3-.5.3-.8l.4-1.2c.4-.4.5-.5 1-.2a4 4 0 0 0 1.8.1c1.2 0 2.4-.7 5.3-2.6a27.4 27.4 0 0 1 3.7-2.1c.3-.3 1.2-.6 1.9-.9 1.2-.4 3.4-1.5 5.1-2.6l2.7-1.8c1.8-1.1 2-1.2 2.5-2.8a8 8 0 0 1 2.3-3.5c1-1 2-1.9 2.2-1.9.8 0 2.8-1.1 2.8-1.6 0-.2-.3-.6-.7-.7-.5-.2-.8-.6-.8-.9 0-.2-.2-.5-.3-.5-.5 0-1.3-1-1.3-1.7 0-.6.6-1.3 2.4-3.1 3.1-3.1 5.5-4.4 7.8-4.4.9 0 2 .2 2.5.4.9.5 1.8 1.7 1.8 2.6 0 1 1 1.4 4.3 1.6 1.7.2 3.1.6 3.1.9l1 .8a5 5 0 0 1 1.6 1.6c.5 1 4.4 4.1 5.3 4.3.4 0 .5-.1.4-3 0-1.6-.2-3-.4-3.1l-.2-2c0-2.9-.3-1.9-.3 1.3-.1 3-.4 3.7-1.2 3.1-.6-.4-.9-1.4-1.2-4.8-.4-5.6-.9-9-1.3-10a20 20 0 0 1-.3-3.5c-.2-4.2-.5-6.4-.7-6.4-.2 0-.3-.2-.4-.6 0-.5 0-.5-.1.2 0 .4 0 .7.2.7.3 0 .4 1.4 0 1.7-.1.2 0 1.3.2 3a69 69 0 0 1 .6 12c-.3.6-.9.6-1.3.2-.3-.5-1-5.3-1-7.3 0-1-.2-1.9-.3-2.1-.1-.3-.4-2-.5-3.8-.4-3.7-.7-4.6-1.3-3-.3.8-.3 1.6 0 3.6.1 2 0 2.8-.1 3-.4.5-1 .5-1.2 0-.3-.4-1-4.6-1.3-8.8-.2-2.6-.6-4.1-1.5-7-.7-2-.8-2.7-.6-3 .3-.6 1.9-.8 2.4-.4.2 0 .6 1.2.8 2.5.3 2.4.5 3 1.4 5.4.7 2 .8 1 .4-3-.4-4.3-1.2-6.2-3.4-8.2l-1.2-1.1h-4.6l-5.7.4c-1.7.4-3 .3-5.6-.5-2.4-.7-3.2-1-4.9-2.2-.8-.6-2.5-.7-2.7-.3 0 .2 0 .4.2.4a45.7 45.7 0 0 1 9.2 5c1.7 1 2.8 1.7 3.3 2.2.8.8 1.2.6 1.2-.4 0-1.6 1.7-2.7 3.7-2.5.7 0 1 .2 1.5 1 .4.8.5 1.4.6 5a103.5 103.5 0 0 0 .5 10.6l.3 5.8c.3 5.5.2 7.2-.5 7.4-.6 0-1-1-1.1-2.8 0-.8-.2-1.5-.3-1.7-.7-1.1-1.6-8.5-1.4-11 .2-1.5-.3-7-.6-7.6-.2-.2-.4-.2-1 0-.8.4-2.4.5-2.6 0l-.8-.2c-1 0-1.6-.4-2.7-1.6-.5-.6-1.1-1-1.4-1l-1.6-.8-1.4-.8-1.5-.8c-.6-.5-1.9-1.2-2.8-1.6a14.8 14.8 0 0 1-5.6-4c-1-1.4-1-1.4-4-1.7l-4.9-.4a19 19 0 0 0-4.6 0c-1.3.3-2 .3-2.8 0-2-.5-3.9-3.2-3.3-4.6l.2-1.4c0-.8 0-.8-1.5-1.1-2.5-.5-3.2-2-2-4.4.3-.8 1.5-1.2 2.6-.8 1.6.4 4 .7 10.7.8 7.4.2 7.2.3 6-1.4-.4-.8-.4-1.2-.3-2.5 0-1 .3-2.2.5-3 .4-1 .5-1.7.3-3.1l-.2-2 .8-.4c1-.5 1.7-1.5 1.7-2.3 0-.3-.4-1.1-1-1.9-.5-.8-.9-1.6-.9-2 0-.2-.2-.9-.6-1.4-1-1.5-1.8-3.4-1.8-4.3 0-.4.3-1 .7-1.4l.6-.7h3.4l3.4.1 1.1 1.1c.7.6 1.5 1.7 1.8 2.5a8 8 0 0 0 1.3 2c.9.7.9 1.6 0 2.3-1.7 1.3-2.7 1-2.7-1 0-3.1-1.5-4.6-4.4-4.5-1.4 0-1.6.2-1.7.7 0 .4.2.9.4 1.2.3.3 1 1.7 1.7 3a7.9 7.9 0 0 1 1.1 5c0 2-.1 2.8-.5 3.5-.9 1.7-1.1 3.4-1.2 7.6 0 2.1.4 3 1.5 3 .8 0 1.2-.5 1.4-2 .1-.7.3-1.2.4-1.2h.5c.5 0 1.3 1.5 1.3 2.4v.8h2.3c1.3 0 2.5-.1 2.6-.3.2-.1.4-.6.4-1.1 0-1.1 1-2.6 2-2.9 1.5-.4 7-.7 16.6-1a307 307 0 0 0 22.7-1.1c1-.2 3.5.1 8.2.9 1 .1 1.4 0 2.1-.3.5-.3 1.1-.5 1.3-.5.3 0 .9-.3 1.3-.7.8-.7.8-.7.8-2.9 0-3.7-.7-6-2.3-7.7a22.8 22.8 0 0 1-3.9-6c-.7-1.6-.7-1.8-.3-2.6.5-1.2 2.2-2.2 4-2.5l4-.1c2 0 2.9.2 4.2.7 1.5.6 1.9.7 2.8.4a8 8 0 0 1 2.8 0c1 .1 4.5.2 7.8 0 8.2-.1 9.5-.1 10.7 0a43 43 0 0 0 7.5-.9c2-.6 6.9-3.2 9-4.8a15 15 0 0 1 7.3-3.7 13.2 13.2 0 0 1 8 .2l2 .4c1.1 0 3.5 1.2 4.2 2.2.4.5 1 1.4 1.2 2l1 1.8.7.9h5.9c4.1 0 6.3 0 7.6.3 1.6.3 1.7.3 2.7-.3l1.3-1.3c1-2.1 3.3-4.2 5.6-5.5 4-2.1 4.5-2.3 6.8-2.1 1.2 0 3.1.4 4.2.7 1 .3 2.7.6 3.6.7a24 24 0 0 1 7.4 2l.9.2c1 0 3.9 1.3 6 2.8a17.7 17.7 0 0 0 4.2 2.3c1 .4 1.6.5 2.4.4 1-.1 1.2 0 2 .9.5.7 1 1 1.7 1.1.6 0 1.4.3 2 .4l2.5.8c1 .2 2 .8 2.5 1.2.6.5 1.2.7 1.9.7a6 6 0 0 1 1.7.3c.5.2 1.2.2 2.5 0 3.4-.6 4.8-1 9.5-2.8 2.7-1 9-1.4 11.9-.7.8.1 1.4.5 2 1.1.7.8.7.9.5 3.1 0 1.3-.2 3-.4 3.8a96.7 96.7 0 0 0-1.5 11.7c-.1 1.2-.1 1.2 1.1 2 .7.6 1.8 1.1 2.4 1.3 3.4 1 3.8 5.3.6 7-1.3.6-1.9.2-1.8-1.5 0-1.3-.2-1.6-2.2-2.5-.4-.2-1.3-1-2-1.7l-1.2-1.3.2-1.7.5-3.1.5-4.8c.1-1.7.4-3.9.6-4.7.6-2.1.5-3.2-.1-4.6-.5-.8-1-1.3-1.7-1.7-1.1-.6-1.3-.6-3.6-.3-2.5.3-3.5.8-4 1.7-.4.7-.2.8 1.4.5 4.1-1 5.6 0 6 4 .1 2 0 2-1 4s-1.8 2.5-2.4 1.5c-.4-.7-.1-2.7.4-3.8l.4-1c0-.3-1.6-1.8-2.2-2a19 19 0 0 0-5.6 1.3 207.5 207.5 0 0 1-27.5-.3c-1.9.3-9.3.1-15.6-.4-5-.5-8.6-.5-9.6-.2-.4.2-2.3.4-4.2.5-3.7.3-4.4.5-4.2 1.4.1.4 0 .6-.5.8-.7.3-.8.3-1.1-.1-.2-.3-.3-.7-.2-.9 0-.2-.5-.3-2.6-.4-2.6 0-2.8 0-3.3.5-.7.8-1.2.8-2.4 0-1-.4-1.5-.4-7.1-.4-3.4 0-6.6-.2-7.2-.3-1-.2-3-.3-20.5-.3A270 270 0 0 1 190 31c-4.3 0-4.5 0-4.9-.5-.4-.6-.3-.7.4-1.1.6-.4 1.3-.5 6.3-.5 4.7 0 5.7 0 6.8-.5 1.3-.5 1.8-.5 10.5-.2a1093.2 1093.2 0 0 1 20.9.7l9.8-.2h8.8c.3-.2.4-.3.2-.9-.2-.3-.3-1-.3-1.3 0-2.1-1.3-2.7-4.4-2-1.1.2-2.4.3-3 .2-2.8-.5-4.8-.6-6.5-.3l-1.8.4h1.3c1.4 0 2 .3 2.3 1.1.3 1-.6 1.4-3.2 1.7l-1.5.4c-.4.4-5.5.3-7-.1l-4.8-1.3c-.8-.2-1-.3-1-.8 0-.6.1-.7 2-.8h6c2.3 0 4.2 0 4.2-.2l-.6-.2-.6-.3c-.1-.1-1.5-.3-3-.3-3.4 0-3.8-.1-4.3-1.6-.3-1-.3-1 .3-1.8.4-.4.8-.8.8-1 0-.2-.5-.7-1.1-1.1-1-.8-1.2-.9-2-.7l-2.8.2a12 12 0 0 0-5.1 1 4 4 0 0 1-1 .4l-1.3.8c-.3.3-1.7 1-3 1.5-2 .8-2.5 1-3.7 2.4-.7.8-1.5 1.5-1.8 1.5-.3 0-.5.3-.6.8-.3 1.1-.7 1.4-1.9 1.1-2.3-.5-13-.5-16.2 0a42.3 42.3 0 0 1-11.3-.3c-2-.5-2.2-.5-2.9-.1-.4.2-1.3.4-1.9.4-1.8 0-2 0-2 2.2l.3 4.4c.2 2.8 0 5.3-.6 8-.5 2.2-1.4 4.7-1.8 4.7l-.3.5c-.2.6-.7 1-2.6 2.8-1.3 1.2-1.8 1.5-3.1 1.7a5 5 0 0 0-1.8.6 29.7 29.7 0 0 0-.2 12.9l.4 4.1.4 8.5c0 3.5.2 8.2.4 10.5a88.6 88.6 0 0 1-.3 15.8c0 2.8.2 8.3.4 8.6.1.3.4.3 1 0 .5-.2 1-.2 1.6 0 .5.2 1 .2 1.3.1a270 270 0 0 0-1.9-51.7c-.6-1-.7-2.4-.1-3.1.6-.9 2.8-1.2 8.2-1.3 9.6 0 11 .1 10.6 1.2-.2.6-4 1-6.5.6-1-.2-1.9-.1-2.8 0-1.2.4-2 .4-3.3.2-2.1-.4-3.7-.1-3.7.6 0 .2.2.7.5 1.1.3.4.6 1.3.7 2 .2 1.7 1.3 2.5 3.8 2.9 1.8.2 2 .2 3-.4 1-.5 1.5-.6 4.2-.6 1.8 0 3.3-.2 3.7-.4.5-.2 1-.3 2 0h3.8c2.3-.3 2.6-.2 3.7.3 1.6.9 7.8 1.3 11.5.9.7-.1 2 0 2.8.1 3.5.7 6.3.8 10.8.4 2.4-.3 6.8-.5 9.7-.6a23 23 0 0 0 5.7-.5 107.5 107.5 0 0 0 19.4.5 127.9 127.9 0 0 1 14.9.3 3168.6 3168.6 0 0 1 36.3 1l3-.4c3-.5 6.1-.4 8.3.3 1 .3 2 .3 4 .2l6-.3c3.2-.1 3.3-.1 4 .5.7.6.7.7.4 1.5-.4 1.1-.2 1.2.9.9 1-.5 4.2-.4 5.4 0 1.7.6 2 2.3.7 3.7l-.7.7 1 .4c.7.3.9.5.9 1.2 0 .8-1 1.8-1.8 1.8-.3 0-1 .4-1.8.8-1.7 1-2.7 1-4.6 0-1.5-.7-1.8-.8-4.4-.8-2.2 0-2.7.1-2.9.5l-.2 3.3-.3 7.7-.3 4.8.6 1.7c.6 1.5.7 2 .6 3.9-.2 4 0 8.5.3 14.1.3 3.2.5 7.9.5 10.6 0 4.5 0 4.9.6 5.8l.6 1-.6.8-.6.8.1 15.5a5852.3 5852.3 0 0 0 .7 42.5l.4 6.5c.1 5.3.5 9.9.9 12.3.2.8.4 3.2.5 5.3l.3 4.1.4 4c.2 4.5.3 6 .8 7.6.3.8.4 1.6.3 2l-.4 3a8 8 0 0 0 .4 4c1.2 4 1.1 5.7-.3 6.5-1.3.9-2 .7-3.3-.7-1-1-1.1-1.3-1-2l.6-3.1c1-5.4 1.1-8.4.7-15.5-.4-5.4-.7-6.2-2.2-7.4-.9-.6-1.3-.8-3-.8-1 0-2.2-.2-2.5-.3-.3-.2-.9-.3-1.3-.3-.5 0-1.3-.2-1.8-.5l-3-.6c-3.6-.4-5.4-.7-6.9-1.1a16 16 0 0 0-3.3-.5l-2-.1c-.2-.1-4.3-.5-13-1l-6.7-.4h-2.8l.1 5.2c.3 5 0 9.8-.6 10.4-.4.4-.3 2.2.1 6 .6 4.6.6 4.4 1.8 5.2 1.2.8 1.5 1.3 1 2-.6 1-.5 1 3.6 1.6l5.5.3c2.4 0 3.5.2 4.3.6 1.4.6 3.6 1.2 4.8 1.2.5 0 1.4 0 1.9.2a57.3 57.3 0 0 0 8.9 1.6c3.5.6 7.8 1 10.8 1.2 3.9.2 5 .5 5.4 1.4.3.6.3.8-.2 1.4-.6.8-2.3 1-4.3.4-.8-.2-3.3-.6-5.6-.8a68.8 68.8 0 0 1-11.5-2l-3-.5-7-1.3a95 95 0 0 0-11-1.9c-1.4-.3-1.4-.2-1.7.8-.2 1.2-.7 1.4-2.7 1.2-2.8-.2-7-.6-8.6-1a84 84 0 0 0-9.2-1l-5.8-.5-10.2-1.1a446.7 446.7 0 0 1-30.7-3.6c-1-.4-1.2-.5-1.1-1.1 0-.6.2-.7 1.4-.8.7 0 2 .1 2.7.4 1.7.5 3.6.8 7.3 1.1l3.1.4 3 .2 3 .2c.4.3 3.5.8 5.1.8l3 .3 4 .4c2.8 0 5.9.4 12 1 4.8.6 9 .8 9 .5 0-.4-1.3-.8-3.7-1-3.2-.2-9.8-.8-10.6-1a98 98 0 0 0-8-1c-1.5 0-4-.4-5.6-.6-3.5-.5-5.2-.6-5.3-.2-.2.5-1 .4-1.3-.2-.4-.7-1-.8-12-2.3a71.9 71.9 0 0 1-7.5-1.2c-2-.2-2.5-.2-2.7 0-.3.4-.5 2.2-.4 5.2v1l3.2.6a188.6 188.6 0 0 0 6.9 1.2 713.6 713.6 0 0 0 19.4 2.6c1 0 2.5.3 3.3.4l3.4.5 4.3.6a115.5 115.5 0 0 0 11.6 1.4c.5.2 2 .3 3.3.3 1.3 0 2.8.2 3.2.3a157.4 157.4 0 0 0 15 2.2 106.6 106.6 0 0 0 9.2 1.3A393.6 393.6 0 0 0 295 253l5.5.7c5.9.4 6.8.8 7 2.6 0 .8.2 1 1 1.1l4 .4c3.3.1 4 .3 4.8 1.2.4.4.5.7.3 1.2-.6 1.6-3.3 2.5-5.1 1.6-.4-.2-2.1-.6-3.9-.8l-10.2-1.7-3.7-.3a24.7 24.7 0 0 1-6.3-1.2c-1.7-.5-2.7-1.3-2.7-2.3 0-1-.7-1.2-4-1.5-1.5-.2-3-.4-3.5-.6a10 10 0 0 0-2.6-.2c-1 0-2.5-.2-3.4-.4-.8-.3-3.1-.6-5-.8l-4-.6c-.3-.2-3.3-.5-8-.9a90 90 0 0 1-14.3-1.9c-.4-.2-2-.3-3.4-.4a52 52 0 0 1-8.4-.9l-7.8-1c-3-.4-7.5-1-10.8-1.6-5.3-1-12.7-1.7-13-1.3v1.6l1.1 13.5c.2 2.3.2 2.3.8 2.3.8 0 1.3.3 1.5.8l.1-6c0-6 .1-6.4.5-6.7.4-.1.7 0 1.3.3 1.7 1 2.1 4.2 2.5 17.7.1 5.6.4 11.2.5 12.5.3 2.5.2 3.1-.8 3.6-.4.3-.6.2-1.1-.3-.7-.6-.7-.7-.8-5.7 0-2.8-.3-5.2-.4-5.5-.2-.3-.3-.3-.3-.1 0 .2-.3.3-.7.2-.7 0-.8 0-1 1.4a20 20 0 0 0-.1 4.2c.1 2.3.3 2.9 1 4 .4.8.9 2 1 2.7l.4 1.2 1.9.4c2 .5 4.8 1 8 1.3 1.8.2 4.1.6 10.5 1.8l4.5.7c6 .8 11.1 2 12 2.8.8.7-.3 2.3-1.5 2l-3.9-.5a94.9 94.9 0 0 1-10.2-1.3 92 92 0 0 1-3.1-.4c-1.1-.2-1.2-.1-.8.2.4.5 2.3.8 5.8 1.1 2 .2 8 1 11.2 1.6l9.7 1.4a323.2 323.2 0 0 1 32.3 5.4 350 350 0 0 1 7.3 1c2 .2 3 .5 3.6 1.3 1.9 2-.8 4.3-3.6 2.9-.8-.4-1.7-.6-4.9-.7-3.8-.2-4.5-.3-7-1.2a76 76 0 0 0-14.7-3.4c-.3-.2-8-1.2-10.4-1.4-2-.1-3.5-.3-8-1a201.8 201.8 0 0 0-8-1c-.3-.3-6.8-1.2-10.1-1.6-3.5-.3-5.9-.7-7.5-1.1a35.3 35.3 0 0 1-9.5-2c-.3-.2-1-.6-1.3-1-.8-.6-1.9-.8-7.1-1.2l-4.7-.4c-1-.1-1.2 0-2 .7-1.1 1-2 1.2-2.7.7-.4-.3-.4-.4-.2-1 .2-.4.5-.7.6-.7l.2-.3c0-.8-.8-1-4.9-1.3-5.2-.3-6.9-.8-7.6-2.2-.7-1.5-1-3.3-.7-7a52.2 52.2 0 0 0 .3-12l.2-.8c0-1-.4-.8-.6.4a10 10 0 0 1-.8 2.2c-1 2-1.7 3.5-2.4 5.9-.4 1.2-.8 2.4-1 2.6-1.6 3-2.3 4.3-2.3 4.6 0 .6-2.6 4.3-3.6 5.1a51.6 51.6 0 0 1-6 4.4c-1.3.7-1.5.9-1.7 1.7-.2 1.3.6 2 2 1.8l5.2-.3 6.7-.2c3-.2 4.2 0 5.6 1l1 .7 3.4-.2c2.8-.3 3.5-.2 4 0a8 8 0 0 0 3.8 1.2c1.4.2 2.4.5 2.9.8.7.5 1.2.6 4.4.7 3.7 0 4 .2 4 1.4 0 .8-.7 1.6-1.5 1.8-.4 0-2 0-3.6-.3-2.3-.4-3-.4-4-.2-.7.2-2.1.4-3.2.4-1.2 0-2.9 0-3.8.2-1 .2-3 .3-4.4.3a42 42 0 0 0-12.6 2c-.2.1-.2 1 0 3l.1 3-1 .8a9.6 9.6 0 0 1-3.3 2.3c-3.7 1.2-5 1.3-7.2.7zm6.8-4.4c1-.4 1.3-1.1 1-2.6-.2-1.7-1-2.5-2.4-2.3-.8.1-1.2 0-2.8-1.1-1-.7-2-1.6-2.2-2l-1-1.3c-.6-.6-1.4-3.1-2.3-7.1-.5-1.8-.2-2.9 1-4.4.7-.8 1.4-1.3 2.3-1.6a20 20 0 0 0 5.3-3.5c.8-.7 1.7-2.5 2.4-4.7.3-.8.6-1.6.8-1.7l3.6-4.9c.6-.7 1.2-2 1.4-2.8l1.1-2.4c.4-.5.7-1.2.7-1.5 0-.3 0-.6.2-.7.4-.2.6-3.1.3-5.8l-.3-2.6 1-1.9c.7-1.5.9-2.2.9-3.5 0-1 .3-3 .7-4.5.7-2.6.7-2.8.3-3.7l-.5-1.2c0-.2-.3-.6-.6-1-.4-.3-.8-.9-.9-1.3 0-.4-.3-.9-.4-1a25 25 0 0 0-7.5.8c-1.2.6-2.7.6-4 0-2.1-.9-4.3-1-8.7-.7-1.2 0-2.9 0-4-.2-1.9-.3-2.6-.5-5-1.6a93 93 0 0 0-2-.8c-.5-.3-1.2-.7-1.4-1.1-.5-.7-1.6-1.2-3.8-1.8a6.6 6.6 0 0 1-4.7-3.2l-1.8-2.5-.9-1-.5 1-1.4 2.8c-.6 1-1 2.2-1.2 2.7-.4 2.3-.7 2.9-1.7 3.5-1.2.8-1.7 2.1-2.1 5.4a25 25 0 0 1-.7 3.4c-.3 1-.3 1.6-.1 2 .1.2.3.8.3 1.3 0 1-1 4.2-1.6 4.8-.7.7-3.4 1.3-4 1-.4-.2-1-.2-1.3-.2h-1.7c-1.2-.4-3.2-2.4-3.8-4-.2-.6-.9-1.7-1.4-2.3l-2.4-2.8c-1.5-2-8.6-7.6-9.9-7.8-.5-.1-1.4-.8-2.4-1.9-.8-.9-2.2-2-2.9-2.3l-2.5-1.3c-.7-.4-1.6-.7-2.2-.7-.6 0-1.3-.2-2-.7a83.4 83.4 0 0 0-12.8-6c-.8-.2-1-.2-1.5.2a2 2 0 0 1-1.1.4c-.6 0-4.5-1.1-5.3-1.6-2-1-3.4-1.2-7.3-1.1-4 0-4 0-4.7.8-.4.4-.7.8-.6.9 0 .3 2.1 1.8 4.3 3.3 1.7 1.2 2 1.3 3.2 1.2 1.2 0 1.7.2 4.2 1.4 1.5.8 3.7 1.9 4.8 2.3a44 44 0 0 1 22 10.8c1.8 1.4 5.8 5.3 6.9 6.7.8 1 1 1.3 1.8 1.3 1.3 0 2 .3 3.5 2l2.7 2.4 3.6 3.2c1.4 1.3 2.8 2.5 3.2 2.7 1 .5 1.6 1 3.1 3.1.8 1 2.2 2.5 3.1 3.2l4.4 3.6c1.8 1.7 3 2.5 4 2.8a444.4 444.4 0 0 1 6 2.1l2 .5c1.3.4 4.3.9 5.2.9a5 5 0 0 0 1.8-.8c1.4-1 2-.9 2.7.3 1 1.4.7 2.2-1 3.8-.8.9-1.8 1.7-2.2 2-1.1.7-.9 2 .4 2 .6 0 2 2 2 2.9 0 .3 0 .8-.2 1-.2.5 0 1 .6 2.3a24 24 0 0 0 1.5 2.6c1 1.3 2.7 4.3 3.8 6.7.8 1.7 1.2 2.3 1.8 2.6.6.2 1.1.8 1.7 2 .5 1 1.2 2 1.6 2.5 1.7 1.7 8.2 3.2 10.5 2.3zm-40-38.4c-1.6-.6-1.8-1.3-1-2.4.3-.3.7-.4 1.5-.2a4 4 0 0 1 1.4.5c.6.5.5 1.5-.2 2-.6.5-.8.5-1.8.1zm10.6-15.2c-.8-.5-.8-1.6 0-2.1.6-.4 1-.4 2-.3 2 .3 2.4.6 2.4 1.5 0 .6-.1.9-.7 1-1 .5-3 .4-3.7 0zm7.6-1.3c-1.5-.4-2-.7-4-2.2-1-.7-2.4-1.7-3.3-2.1-2.2-1.2-3-1.7-3.7-2.7-.8-1-.8-2-.1-2.4.8-.4 1-.3 2.3 1 1.3 1.1 3 2.1 6.2 3.8 1.7.9 2.3 1 3.6 1 2 0 2.7.6 2.7 2.1 0 1.8-1.1 2.2-3.7 1.5zm3.8-5.6c-.1-.2-.8-.4-1.4-.6-2-.6-4.6-2-5.8-3.1-.8-.8-1.1-1.3-1.1-2 0-.6.1-.8.7-1 .8-.3 1.7 0 3.2 1a12 12 0 0 0 4.5 2.2c1.4.3 2.2 1 2.2 2 0 1.1-1.6 2-2.3 1.5zm-5.1 47.2c0-1-1.2-3.5-2.1-4.4-1-1-1.5-2.1-2.1-4.4l-.7-2.6c-.3-1-.4-2-.3-2.6.2-1-.3-1.5-1.5-1.5l-1.4-.4c-.7-.4-3.8-1-4-.8a57.8 57.8 0 0 1 3.7 6.5l1.7 3.5c1.6 3.6 3 5.8 4.1 6.5 1 .6 2.6.7 2.6.2zm48.6-14.4c.2-1 .3-2.6.2-6.4a2443 2443 0 0 1-.7-26.8l-.2-5.2c0-1.6 0-1.7-.9-2.2-.8-.4-.9-.4-1.1 0a368.2 368.2 0 0 1-.3 25c-.1 6.4-.1 7.7.2 8.7.3.8.5 1 .5.5s.1-.6.6-.5c.6 0 .6.1.6 4.3 0 3 .2 4.1.4 4 .2 0 .5-.6.7-1.4zm-4.7-3.9c-.1-.4-.3-1.7-.3-2.9 0-1.7 0-2-.3-1.6-.2.3-.3 2-.4 4-.1 3.5 0 3.6.5 4.2l.6.7.1-1.8c0-1 0-2.1-.2-2.6zm11.1 3.9c0-.2-.2-.4-.4-.6-.2-.2-.4-.6-.4-1l-.2-1.2c-.2-.4-.3-8-.3-19.2 0-20.5.1-18.8-1.9-18.8-1.4 0-2 .6-1.7 1.8l.1 3.2c0 1.4.1 2 .3 2 .2-.1.5-.1.8 0 .4.1.6.8 1.3 5.3.5 2.6.2 14.3-.3 17.4-.5 2.8-.6 4.6-.2 4.8.1 0 .3 1.1.3 2.3 0 2.2 0 2.2 1 3.2.9 1 1.6 1.3 1.6.8zm2.4-3.7c-.2-.7-.2-.7-.3.3 0 .7.1 1 .3.8v-1zm-18-5.3-.1-4c-.1 0-.2 1.8-.2 4 0 2.4.1 4.2.2 4.1l.1-4zm17-2c0-.9-.2-1.5-.3-1.5-.2 0-.3-.3-.4-.6l-.1 1.4c0 1.7 0 2.1.3 2.1s.4-.3.4-1.5zm-12.7-4V264a56 56 0 0 0 0-7.3c0-.4-.4-.8-.8-1-.8-.3-.8-1 0-1.5.4-.2.8-.7.9-1.1.4-2.1-.1-18.6-.7-19.2-.3-.3-1.2.7-1.6 1.9-.3.9-.3 3-.1 11.6.3 20.2.3 18.9.9 19.3.4.3.5.7.5 2 0 1.2.1 1.6.4 1.6.4 0 .4-.5.5-2.8zm16.8 1.8c0-.3-.1-.1-.2.3 0 .4.1.6.2.5v-.8zm1.8-2.7c-.3-2-.3-2-.5-1-.2.9-.3 1-.9.9-.5-.1-.6 0-.6.5s0 .6.4.4c.4-.4.7-.2.7.4 0 .3 0 1 .3 1.5l.2 1 .3-.8c.3-.7.3-1.5 0-3zm-11.5-1c-.1-3.1-.5-3-.5.3 0 2.3 0 2.8.3 2.2l.2-2.5zm7.6.9c-.1-.2-.2-.2-.2.2 0 .2 0 .4.1.3v-.5zm0-2.8c0-.4-.1-.1-.1.6v.7-1.3zm-19-7.3c0-5.7-.1-7.6-.4-7.8-.2-.3-.4-.2-.5.3l-.5 2c-.3.8-.6 2.7-.7 4.1-.3 2.4-.3 2.8.3 4.4l1 2.7.5 1.4a117.3 117.3 0 0 0 .2-7.2zm11 .2c0-2.6 0-4.5-.1-4.3a57.2 57.2 0 0 0 0 9c.1 0 .2-2.2.2-4.7zm-73.4-7.9c.3-.2.6-1 .8-1.6l.6-2.6a9 9 0 0 0 .4-2.2c0-1 .3-2.9.7-3.9.2-.6.3-2.4.2-6.6-.2-10.5-.2-11-.7-12-.5-.9-.5-1.3-.3-4.2.3-3.2.3-12.2 0-20.6-.1-3.2-.3-5.2-.7-7-.7-3-.6-3.6.6-3.4h1.7c.9-.1.9-.2.7-1 0-.4-.3-1-.6-1.5-.8-1-1.9-3.7-1.9-4.5l-.3-1.7-.6-2.4c0-.7-.4-1.6-.6-2l-.7-2.3c-.4-2-.9-2-2 0-.5 1-1.3 2.2-1.9 2.9-1.8 2.2-2 2.8-1.9 4.6.1 1 0 2.4-.2 3.5-.5 2-.7 3.1-1 6.3a41 41 0 0 1-.6 3.4c-.7 3.4-.4 6.8.7 7 .8.2 4.9-4.3 5.5-6 .4-1.4 1.9-1.8 2.3-.8.3 1 0 1.5-1.5 3-.8.7-2 2.1-2.6 3.1-1.9 3-1.8 2.7-.9 4.4.9 1.5.9 1.8.2 3.9l-.4 2.6c-.1 3.2-.3 4.6-.6 6.1-.2 1.2-.3 2.4 0 4.8.2 2.8.3 3.4 1.1 5.2.5 1 1 2.5 1.2 3.3.4 1.7.9 7.4 1 11.9 0 3.1 0 3.8-.4 5-.6 1.6-1.3 2.1-2.2 1.7-.4-.3-.5-.5-.3-1.7.6-4.3-.1-18.1-1-18.1 0 0-.3.1-.5.4-1 1.1-1.7-.1-1.4-2.5a104.1 104.1 0 0 0 .6-19.1c0-.5 0-1.4.2-2 .1-.8.1-1-.2-.9-.5.2-1.5 2.2-1.8 3.5l-.8 2.1c-.8 1.7-1.5 4.6-1.7 7a19.7 19.7 0 0 1-1.3 5.8c-.4 1.2-.8 3.1-1 4.3a75.3 75.3 0 0 1-1 6.3c0 1.2-.2 1.5-.8 2-.7.5-.8.7-.8 2 0 1.1.1 1.4 1 2.2.4.5 1.8 1.6 3 2.4 1.5 1 3.5 2.9 6.4 5.9 3.7 3.8 4.4 4.4 5 4.4.5 0 1-.2 1.3-.4zm149.8-6.5c.1-.2-.3-.3-1.2-.3-.8 0-2-.1-2.9-.4-1.6-.4-4-.5-4-.1 0 .3 1.6.6 4.3.8 3.6.3 3.7.3 3.8 0zm.2-2.8c-1.7-.9-1.9-1.3-1.2-2.7.3-.6.4-1.2.2-2.1l-.2-12.6c-.1-9.9-.2-11.4-.5-11.8-.4-.3-1.8-.5-6.2-.8a409.8 409.8 0 0 1-28.4-2.9c-2.4-.3-5.3-.3-5.8 0-.2.1-.3 2.5-.3 12.4 0 6.7-.2 12.2-.3 12.3-.3.4-.2 2.5.1 2.7.2.2 1.7.4 3.4.6 3.9.4 7.2 1 9 1.4.8.3 2.8.6 4.5.7a115.3 115.3 0 0 1 9.4 1.2 87.1 87.1 0 0 1 10.2 1.4c1.8.2 3.5.5 3.8.7l2.1.2h1.6l-1.4-.7zm-72.7-1 .3-3.4c.2-3-.1-4.2-1-4.2l-.8-.4c-.6-.5-.7-.2-.9 2.1-.1 2-.3 2.3-1.5 3.3-.5.4-.5 1.4-.1 2.2.1.3.5.5 1 .5s1.2.1 1.6.3c1 .3 1.3.3 1.4-.4zm3.5-5.4c0-.3-.3-.6-.4-.6-.4 0-.3 5.2 0 5.8.3.5.4.2.5-2l-.1-3.2zm-9.3 5c.2-.5.4-1.9.5-4.7 0-2.1.3-4.3.5-4.7.4-1.1.7-3.6 1-8.2a18741 18741 0 0 0 1.7-23.5c0-.8.2-2.1.4-3 .2-1.7.1-2-.4-1.8-.6.4-.9 2.9-.9 7.2 0 2.5-.1 4.8-.3 5l-.5 1.1-.3 1.2c0 .4 0 .9-.2 1.1-.5 1.1-1.3 5.2-1.6 8.3a22 22 0 0 1-1.1 6.5c-.1.1-.2 1-.2 2.1 0 1.4-.2 2.3-.5 3-1.6 3.3-1.7 3.6-1.5 5.7l.2 2.9c0 .5 0 1.3.2 1.6.2.6.4.7 1.4.7 1 0 1.3-.1 1.6-.6zm-32.8-4.3 8-.3c3.4-.1 3.6-.2 4.3-.8.8-.8 1.5-.9 2.5-.2 1.2.8 5.4.3 7.8-.9a7.4 7.4 0 0 0 2.9-3.3l.8-2.7.9-4.3a17.5 17.5 0 0 1 1.5-5.9l1-2.8c.4-.7.6-2.3.8-4.8 0-1.8 0-1.8-.3-1.1l-.4 1.1-.2.8c-.5.9-1.2 3-1.8 5.7l-.8 2.7c-.3.3-1.7.2-1.9-.2-.1-.4.1-2 .7-3.9a277.5 277.5 0 0 0 2.4-8.6 22 22 0 0 0 1-2.9c.8-2.1.9-1.9-1.1-5.8l-2-3.7-3.3-.2c-5.2-.2-6.9-1-8.2-3.6-.5-1-.6-3.1 0-3.6.5-.6 1.9-.8 2.5-.3l1.3.5c.4.1 1.2.6 1.9 1.1.6.5 1.3 1 1.6 1 .2 0 .5 0 .7.3.4.4 4.7.4 5.1 0 .2-.2.5-.4.8-.4.2 0 1.6-1.1 3-2.5 2-2 3.2-2.9 4.8-3.7 1.8-.9 2.6-1.5 5.8-4.7 3.2-3.3 4-4.2 6-7.6a28.8 28.8 0 0 0 5.1-15.5c0-5-.1-5.4-3.5-7-2-.9-2.5-1-2.9-.8-.2.2-.3.6-.2.8.2.7-.3 1.8-1.6 3.5-.6.8-1.3 1.9-1.4 2.4-.1.5-.8 1.6-1.4 2.5-.7.8-1.4 1.9-1.6 2.4-.5.8-.5 1-.1 1.7.5 1 .5 1.6 0 2.2-.6.4-2.1.3-2.4-.2-.3-.4-2-.2-3 .4-.6.3-1 .7-1 .8l-.9.5-.8.5-.8.5-1.4.6a26 26 0 0 1-4.4 2.1c-.5.2-1.3.6-1.8 1l-1.9 1.4-1.7 1c-.6.7-2.4 1.6-3 1.6-.6 0-1.2.5-2.2 2-.8 1.1-.8 1.4-.8 3.1 0 2.1 0 2.3-1.6 2.3-.8 0-1-.1-1.5-.7-.8-1.3-1.3-1.5-2.1-.6-.3.4-.6.9-.6 1.2 0 1.2-.4 1.7-1.7 1.8-1.6.3-2.3-.1-2.3-1.3 0-.7.3-1.2 1.4-2.3a16 16 0 0 0 1.6-1.9c.3-.5 0-.6-3.4-.8-3-.1-5.2-.7-6.4-1.7-1.4-1-1.6-1.4-1.6-2.3.1-1 .8-1.4 2-1 1.1.4 2.7.4 6-.2 1.3-.2 1.8-.1 2.6.2 1 .6 3 .6 4.5 0 .8-.2 1.1-.2 1.3 0 .7.7 1.8.4 3.9-1.1 3.1-2.3 3.6-2.8 3.2-3.2-.5-.5-1.8-.6-2.8-.2-.4.2-1.7.4-2.9.6-2.7.4-4.7 1-5.1 1.5-.6.6-3 .5-4-.2-1.1-.8-1.4-1.3-1.2-2.2.2-.9 1.2-1.1 2.2-.6 1.1.6 1.8.6 2.7 0 .4-.3 1.3-.7 2-.9a11 11 0 0 0 4.2-2l1-.6 1-.4c1.3-.6 2.4-.7 4.2-.4 3.1.6 6.1-.8 6.5-3.1l.8-2.1a5 5 0 0 0 .7-1.7l.3-1.5c.3-.7.3-1 0-1.4-.5-.7-.4-1.9.2-3 .3-.7.5-2 .6-3.2.2-2.4.3-3.5.6-4.3.1-.4 0-.8-.6-1.4-1-1-1-1.7 0-2.4.9-.7 1-1 .3-1.6-.7-.6-1.8-.8-2.8-.6-.9.1-.9.2-.9 1.5 0 1.6 0 1.7-2.8 4-2.6 2-3.8 1.3-4-2.5-.1-1.6 0-2.1.4-3.1.7-1.4 1.6-2.2 2.6-2.2.5 0 .8-.1.8-.2 0-.6-5-5-6-5.2h-1.5c-1 0-1 .1-1.3.9-.2.5-.6 1-.9 1.3-.5.3-.6.3-1.2-.2-.4-.3-.7-.7-.7-1l-1.7-2.1c-1-1-2-2.4-2.5-3a16 16 0 0 0-4.4-4c-.3 0-.4.2-.4.5s-.3.7-.6 1c-.8.5-1.2 2.3-1.6 6-.1 2-.4 3.7-.5 4-.1.2-.3 1-.3 1.8 0 1.5-.3 2-1 2-.6 0-1.7-1.2-2.1-2.4l-.7-1.2c-.4-.1-2.4.4-2.9.8l-1.1.2c-.7 0-1.1-.2-1.9-1-2.2-2.1-4.1-3.5-4.5-3-.1 0-.4 1.7-.5 3.6a41 41 0 0 1-.8 5.3l-.4 1.8 1 2.2 2.2 3.3c1.8 2 2.6 3.8 2.5 5.8 0 2.4-.2 4.3-.6 5-.4.7-.3 3.5 0 4.7.4 1.1 3.2 3.8 4 3.8.2 0 .6.2.9.5.4.5.4.8.3 2-.1.8-.3 1.8-.6 2a19 19 0 0 0-1 2.9c-.7 2-.8 2.2-.3 3 .3.8.3 1.2.1 2.2-.8 3.9-.8 4.9 0 7.2.5 1.7.4 2.1-1 3.6-2 2-2 2.4-2.6 6.8-.1 1.6-.7 3.6-1.2 4.1-.1.2-.6.4-1 .4-1.3 0-2.4.7-3.7 2.6l-1.6 2a32.6 32.6 0 0 0-4.6 6 18.3 18.3 0 0 0-3.3 7c0 .2.4.4 1 .4 1.9 0 2.1 1 .6 2.6-.6.7-1.4 2-1.9 3l-.8 1.8 1 1.4c.6.7 2 2.6 3 4.2 2.1 3 2.7 3.6 5.4 4.7l2.7 1c.6.3 2.4.8 4 1.1l3.6.8a5 5 0 0 0 1.9.1l5.8-.4zm15.8-9.2a97 97 0 0 0-4.1-.4c-3.3-.2-5.1-.7-8.1-2.2-3.9-1.8-5.1-3-4.5-4 .1-.3.5-.6.8-.6.6 0 1.8.6 1.8.9l.7.2h.8l-.9-.7c-1-.9-1-1.8-.2-2.4.6-.3 1-.3 4.1 0 4.3.3 6.5.2 8.8-.6 1.5-.5 1.8-.7 1.8-1.2s-.2-.6-1.3-.9l-1.9-.3c-.6 0-1.5-.9-1.5-1.5 0-.3.3-.8.6-1.2.7-.7 5-3.8 6.1-4.4.9-.4 2 0 2 .8 0 .9-.5 1.3-2.1 2.4-2 1.2-2.3 1.7-1.9 2.2l.7.4 1.2.8c1.3 1.2 1.6 2.5.7 3.5-1 1.1-4.7 2.2-9.5 2.7-1.2.2-1.3.2-1.2.8.2.9-.1 1-2.2.6l-2-.1c-.3.2 2.7 1.5 5.1 2.1 2.6.7 3 .6 2.8-.5-.1-.8.7-1 2.2-.5 3.1 1 5 2.6 4.3 3.8-.3.6-.4.6-3.1.3zm-11.8-5.7h-.5l.2.1c.3 0 .4 0 .3-.1zm-9.2-70.9c-1.6-2-2.4-5-2.3-8.6.1-2.8.4-3.3 1.7-2.7a2 2 0 0 1 .9 2.5c-.4 1 0 3.6 1.1 6 .8 1.8 1 2.9.5 3.4-.6.5-1.3.3-2-.6zm30.6-2.1c-.5-.8-.4-1.7.4-3.5l.8-2.2c.2-1 .4-1.1.9-1 .3 0 .7.4 1 .9l.8 1.5c.7 1 .6 1.8-.8 3.4-1.4 1.7-2.4 2-3.1.9zM163 132l-.6-.8-1-1.2c-1-1-1-1.3-1-2.5s.5-2.7 1.4-3.6c.3-.3.3-.7.2-1-.2-1 .5-2 1.3-2 .6 0 1.5 1 1.5 1.6 0 .3.4 1 1.8 3.9.5.9.9 1.8.9 2.1 0 .6-1.2 2.5-2.1 3.5-.8.7-1.7.7-2.4 0zm60.2 101.1c0-.3 0-1.2-.2-2l-.2-6.9a137.1 137.1 0 0 0-1-17.6c-.1-.8-.3-1-.9-1.2-.3 0-1.5-.5-2.5-.9-2-.9-2.2-.9-3.2-.5-.6.3-.6.4-.6 2.5s.2 4 .8 9.7c.4 3.7.1 5.1-1 5.4-.4.1-.7.1-.8 0-.3-.2-.4-2.1-.9-9.7-.4-6.7-.5-7.2-1.4-7.6-1-.4-1.3-.1-1.3 1l.2 6c.2 5.2 0 9.3-.7 10.5-.3.5-1.5.6-1.6.1a97 97 0 0 0-.9-18.4c-.3-1-.6-1.4-1.2-1.8-1-.5-1.1-.3-.8 3.4.2 1.7.4 6 .4 9.5a60 60 0 0 0 .6 8.6c0 .7-.2.8-.9.9-1.4.1-1.7-.4-1.7-3.6 0-7-.2-19.4-.3-19.6-.3-.5.7-1.4 2.2-1.8l1.5-.4.2-3c.2-3.2.3-3.5 1-3.9 1-.5 1.2.2 1.4 3.7.1 1.8.3 3.3.5 3.5.2 0 1.2.3 2.4.3l5.2.5c4.3.4 4.2.4 4.2-2.1 0-2.3.3-2.8 1.4-2.6.7 0 1.2 1.3 1.2 3.2 0 .8.2 1.5.4 1.7l2 .4a1580.2 1580.2 0 0 1 37.8 4.1h1.4v-1.8c.1-2.5 0-4-1-9.1-.4-2.7-1.2-12.7-1.3-16.4a8 8 0 0 0-.3-2.7c-1.3-1.5-1.7-20.2-.7-32a25.4 25.4 0 0 0-.2-9.7c0-1 0-1.9-.2-2-.2 0-.3-.4-.3-.8 0-.5-.1-.6-1.1-.6a577.6 577.6 0 0 1-16.9-.7l-9.8-.4a36.3 36.3 0 0 0-8.3.3c-.3 0-1 .3-1.3.6-.7.5-.8.9-1 3.1a97.6 97.6 0 0 0-.2 14.8c-.1.7-.4 3-.5 5.2a18 18 0 0 1-.7 5c-.5 1-.5 1 .1 1.6.6.6.6.7.4 3-.3 3-.2 9.3.3 17.9l.3 5.3c.3 6.8.2 8-1 7.4-.3-.3-.4-1-.6-3.6-.2-2.6-.4-3.5-.8-3.9-.6-.7-.7-1.3-.8-10.3v-7.7l-.8-.8-.7-.9v-7c0-7.1 0-7.4 1.1-7.8a54.8 54.8 0 0 0 .5-10.5c-.3-.5-1 0-2 1.4-.7 1-.9 1.4-.9 2.4a9 9 0 0 1-1.4 4.3c-.9 1-1.8 3.1-2.2 4.9l-1 3.4a15 15 0 0 0-.8 2.8c-.3 1.6-1.5 4.8-2.7 6.7l-.9 1.8-.5 1c-.6.6-1.4 2-3.8 6.5-1.7 3-3.1 5-5.3 7.3-2 2.1-2 2.2-2.1 3.8-.1 1 0 2.5.1 3.7.2 1 .3 3 .2 4.2a148.3 148.3 0 0 0 1 19.8c0-.3.3-.9.6-1.2.6-.7.7-2.4.3-6.3a120 120 0 0 1-.4-6.9l-.4-7.3c-.3-3.3-.2-3.7.9-3.2.9.4 1.4 1.8 1.9 4.9a144 144 0 0 1 .6 18c0 4.3 0 4.5-.8 5.9-.5 1-.6 1.5-.5 2l.3 4.4a47 47 0 0 0 .4 5.5c0 .4.3.7.6.7s.6 0 .7.2l1.2.4c.7 0 1.8.3 2.5.4 1.5.3 5 .7 8.9 1 2.8.3 4.9.7 5.2 1l1.7.1c1.2 0 1.5 0 1.7-.5zm-20.6-39c-.2-.5-.2-.8 0-1 .6-.7 1.4-.1 1.3.8 0 1-.9 1-1.3.2zM125.1 226l1.1-1.7.6-.7-.7-2.2c-.6-2-.7-2.4-.5-3.5l.6-2.6c.3-1.6 1.4-5 2-6.9.6-1.2 3.3-5.7 3.7-5.8a50 50 0 0 0 4.8-5.3c.7-1.3 3-3.5 4.2-4.1 1.5-.7 2-1.4 2-3a48 48 0 0 0 1.6-10.8c0-1.5-.4-2-1.6-2-.5 0-1.2-.1-1.7-.3-.7-.4-1-.4-1.5-.1-.4.2-2.2.4-4.7.4-3.9.1-4 .1-4.7-.5l-1.6-1.1c-.6-.4-.7-.6-.6-1.2.2-.8-.6-1.9-1.3-1.9-.6 0-1.3-.5-1.5-1-.3-.9 2-5 3.4-6.4.7-.7 1.5-1.5 1.8-2 .8-1.2 2.6-2 4.4-2 .9 0 1.9.2 2.2.3.3.2.7.2.9.2.5-.2 4.6.5 5.7 1l1.4.8c.7.7.5-.2-.4-1.5-.8-1.1-1.8-4-1.8-5 0-.3-.2-.7-.4-1-.2-.4-.1-1.1.3-3.4.7-3.3.6-5.2-.4-7.1l-.6-1.5c0-.3-1.5-2.2-3-3.8l-1.2-1-.1-4.2c-.1-2.6 0-4.4.1-5.1.2-.6.3-2.5.3-4.2 0-2.3 0-3.3.3-4.1l.7-1.1.4-.6c.1-.3 0-.7-.4-1-.3-.3-.5-.8-.5-1.1 0-.6-2.2-4.1-2.8-4.5-1-.6-1.3 1.6-.5 2.8.6 1 .3 2-.5 2-.9 0-1.2-.3-2.2-1.8l-.8-1.4-.3.7-.4 1-1 1.4a74.6 74.6 0 0 0-2.6 2.5c-.2 0-.7-.5-1-1.2-1.2-1.6-2.7-2.2-5.5-2.2-1.6 0-2.5-.2-3.2-.5a24 24 0 0 0-2.1-.9c-2.2-.7-2.9-2.5-1.6-4 .3-.6.5-1 .4-1.1-.6-.4-3.4.8-4.5 2l-1.4 1-1.8 1.3c-.8.7-1 1.1-1.3 2.3-.7 3.4-1.7 4.5-5.9 6.6l-3.2 1.7-3 1.3a53 53 0 0 0-9 4.7c0 .2 0 .6.3.9.4.4.4.8.3 1.7-.1 1-.1 1.2.2 1.2l1.5.8 2.3 1c.6 0 1.5.4 2 .7.9.7 2.7 1 3 .4l1.4-.2a7 7 0 0 0 2.3-.6l2.2-.7c.5 0 1.8-.5 2.8-1 3.1-1.5 4.2-1.2 4.7 1.3.4 1.9.5 2 3.8 2 2.8 0 5 .5 6.2 1.4.3.2.7 0 1.6-.5a37.5 37.5 0 0 1 3.7-2.2l1.6-1.3 1.6-1.3c.4-.2.7-.5.7-.7 0-.4 1.2-1.5 1.7-1.5.2 0 .6.3.9.7.3.6.4.8.1 1.3-.4.7-1.8 2.3-2.7 3l-.8.5h1.7c1.8.2 2.1.6 1.2 1.5-1.7 1.6-2.8 2-3 1-.2-.6-.5-.7-1-.2-.3.3-.3.4-.1.7.4.4 5.6.4 6.7 0 1.1-.5 2.1-.1 2.9.9.5.7.5.8.1 1.4-.3.5-.7.8-1.2.8a4 4 0 0 0-1.7 1l-1 .9-3.3-.2a23 23 0 0 1-4-.3c-1-.4-1.2-.1-1.2 1.6 0 1.6-.3 2.6-.9 3.2l-1 1.5a9.7 9.7 0 0 1-1.8 2.6c-.7 1-.8 1.3-.7 2 .2.7 1.2 1.9 2.7 3.2.7.5.9.9.9 1.5 0 .7-.2.9-1 1.2-1 .5-1 .7-.4 3.3.6 2.8.9 3.5 1.6 4.4.5.7.7 1.4.8 2.7.2 1.8.5 2.5 1.7 3.5.2.2 1 1.5 1.6 2.8a15 15 0 0 0 2.6 4l1.9 1.9c.4.5 2.2 1.1 4.7 1.6.8.2 1.7.5 2 .8.4.3.9.5 1.2.5 1.4 0 1.7 1.4.5 2-.6.4-.8.8-.9 1.5 0 .8-.1.9-.9 1-.6 0-.8 0-1.1-.7-.3-.8-.3-.8-1.5-.5-1 .2-1.6.2-3-.2-1.7-.4-2-.5-2.3 0-.3.1-.7.4-1 .4-.5.1-.5.3-.5 2.2.1 1.3.3 2.5.6 3.2.3.6.5 1.5.5 2l.3 1.8c.3.7.2 1-.1 1.5-.2.4-.7.6-1 .6-.3 0-.5.4-.7 1.7l-.3 2.3c0 .8-.7 1.9-1.2 1.9-.2 0-.5-.3-.6-.6-.3-.6-.3-6.1-.3-13.7 0-3.2-.2-4.8-1-7.5-.3-.8-.5-1-1-1-.5.1-.5.3-.5 1.7 0 1 .1 2 .5 2.8.4 1 .4 1.2.1 2.5a395.4 395.4 0 0 0 .2 33.6c0 1.8.1 3 .4 3.2.3.4.4.2 1-1.2l1.3-2.8zm-4.7-89.6c-.2-.2-.3-.5-.3-.8 0-.6 1.6-3.4 2-3.4l.1-.3c0-.5 1.2-1.5 2-1.7.7-.2 1.7.5 1.7 1.2 0 .2-.5.9-1.2 1.6-.6.7-1.2 1.5-1.2 1.7 0 .6-.5 1.6-.9 1.8-.4.3-1.8.3-2.2 0zM110 124.8c-2.2-.6-2.4-1-1-2.5l1.3-1.9c.3-.7.3-.8 0-1.5-.6-1-.6-1.5-.1-2.2.4-.6 1.3-.4 2.3.5.4.3.8.7 1 .7l.8.5c.4.4 1 .8 1.5 1 .5.3.9.9 1.1 1.6.5 1.3.2 2-.8 2-.8 0-1.7.5-2.8 1.5-1 .9-1.2.9-3.3.3zM194.2 229c1 0 1-.5 1-10.6a149.8 149.8 0 0 0-.5-13.5c0-.6-.1-1-.3-1l-.3-2V200l-.2 2.4c-.3 2.8-.4 5-.8 12.8l-.5 10c-.3 3.3-.2 4.2 0 4.3.2.2.6 0 .8-.1.2-.3.6-.4.8-.4zm-93.2-4c0-1 .3-2 1.4-6.9a95 95 0 0 0 1-4.6 48.4 48.4 0 0 1 3.4-11.9c.6-1.3.7-1.6.4-2.4-1-2.4-.8-9.6.2-15.2.4-2.2.6-4.4.6-6.4v-3l1-1.2c.8-1.2.8-1.2.7-3-.2-1.7 0-5 .6-7.5 0-.5.4-1.1.7-1.3.5-.3.6-.3 1 0 .5.5.6 1.9.2 2.2-.5.2-.4 4.6 0 4.6.5 0 2.5-3.1 3-4.5.4-2 .3-4.5-.3-5.6-.3-.5-.8-1.6-1-2.4-.6-2-.4-4.6.4-5.6.3-.3.6-1.2.7-2 .2-1.6-.5-2.7-2-2.7-1.2 0-2.4-.5-3.7-1.7-1-.8-1.2-1-2.6-1a10 10 0 0 1-4.9-1.2c-.5-.3-1.7-.7-2.6-.8-1.5-.3-2-.3-2.8 0-1 .3-1.1.6-1.5 1.8-.3.9-.4 1.8-.3 2.4l.3 4.4c.2 3 .4 3.6 1.1 5.3.7 1.5.8 2 .7 2.9-.1.6-.3 4-.3 7.6 0 4-.1 7-.3 7.3-.5 1.2-1 4-1.3 6 0 1-.4 2.9-.7 4.2-1.4 6.2-1.6 9.4-.8 11.3.3.6.7 2.3 1 3.8 1 6 1.3 7.1 2 10 .8 3.1 1.8 7.6 2.2 10.6.8 4.6 1.6 7.6 2.2 7.6.2 0 .3-.4.3-1zm215.8-14.5-.1-1.1c-.3-1-1-7.2-1.2-10.2 0-1.2-.3-2.8-.5-3.6-.5-1.5-.5-.7-.3-30.8a75 75 0 0 0-1-18.6 349.5 349.5 0 0 1-1-20.7 449 449 0 0 1-1.1-32.8 54 54 0 0 0-.6-14.4l-.7-1.6c-.2-.2-2.9-.3-9.3-.4a150 150 0 0 1-15.4-.5l-9.3-.6a59 59 0 0 0-11.5-.3c-.5.5-.5 8.6 0 13.4.1 2.6.2 5.6.1 7.5-.2 4.5-.2 6.5.2 9.2.2 1.6.3 4.7.2 9.4-.2 8.2 0 9.2.8 9.7 1 .5 9.9 1.2 16 1.3 3 0 5.5.1 5.7.2l8.8.3 9.2.3c1.9.4 2.1 1.8.5 3.2l-1.1 1-5-.2-10-.2c-7 .1-8 .1-16.1 0l-7.3-.1-.2.7c-.2.5-.2 1.3 0 2.6s.3 2.2 0 3.5c-.1.9-.3 3.4-.2 5.6 0 3.1-.1 4.1-.4 4.6-.4.6-.4 2 0 11.3l.3 8c.3 15.4.4 17.3 1 18.6.6 1.1.7 1.7.8 6l.4 6.8c.2 1 .3 3 .3 4.6 0 1.5.1 2.7.2 2.8l4.3.3c2.3 0 5.6.3 7.5.5 7.1.8 8.6 1 10.1 1 .9 0 2.5.1 3.6.4 4 .8 6.2 1.2 9.6 1.5 5.2.6 8.8 1.1 10.6 1.6 2 .5 2 .5 2 .2zm-32.3-101.6c-1.5-.7-3-3-3.6-5.7l-.4-2-.3-1v1c0 1-.7 1.9-1.3 1.7-.6-.3-1.1-1.6-1.1-3 0-2.8.9-4.5 1.9-3.6.3.4.5.3 1.6-.7 1.6-1.5 2-1.5 2.9-.5.7.8 1.6 1 2 .5.2-.5 1.8-1 3.3-1.2 1.3-.2 1.5-.1 2.4.7l1 1.1c0 1 .6 2.2 1 2.5.7.3 1.4 1.9 1 2.2-.2 0-.8 1-1.3 2-.6 1-1.5 2.1-2.3 2.8l-2.7 2.3c-1.5 1.4-2.6 1.6-4 .9zm3.8-4.4-.1-1c-.2-.2-.4-1.4-.4-2.6 0-2.2 0-2.2-.2-.5 0 1-.2 1.8-.3 2-.3.2-.3 2 0 2.3.2.3.8.2 1-.2zm-2.7-3.8c0-.8 0-1-.6-1-.7-.2-.7 0-.3 1.5.4 1.3.8 1 .9-.5zm-13 108.2c.1-.3.1-.7 0-.8-.2-.4-2.2-.4-2.2 0l.4.2c.2 0 .5.3.6.6.4.6 1 .6 1.2 0zm-3-1c0-.2-.2-.4-.4-.4-.3 0-.4.2-.3.3.1.2.3.3.4.3.2 0 .3-.1.3-.3zm-19.7-2-4.8-.3-2.9-.1 2 .3c1 .2 3.2.3 4.8.3h2.7l-1.8-.2zm-9.2-.6c-.2-.3-.7-.4-1.8-.4-.8 0-1.2.1-1 .2.4 0 .7.2.9.4l1.2.2c1 0 1 0 .7-.4zm-4.5-.3h-.5c-.2 0-.2.1.1.1.3 0 .5 0 .4-.1zm-5.6-.8c-1-.2-2.6-.3-3.7-.3-1.7 0-2 0-1.2.2l1.2.4 2.7.1h2.6zm-6.5-.3H223c-.4 0-.1.1.6.1h.5zM89.6 183.7c.5-.3.8-.4 1-.2l.6.2c.5 0 .4-.7 0-1-.3 0-1-.9-1.8-1.9-1-1.3-1.6-1.9-2.3-2.2-1.3-.5-1.4-.8-1.4-3 0-1.9-.3-2.3-1.8-2.8a21 21 0 0 0-5.8-.9c-.2.3.9 2.4 2.4 4.4a24 24 0 0 0 5.5 5.3c.9.6 1.8 1.5 2.1 1.9.7 1 .6 1 1.5.2zm47.2-10.5c3-1.1 5.8-1.6 6.9-1.2.7.3.8.3.9-.4l.6-2.6c.8-2.7.8-2.6-1.4-3.3l-2.7-.8c-1.9-.6-6.2-.3-7.7.6l-2 1c-.9.4-2 1.7-2 2.3 0 .4 1.3 1 2.2 1 .6 0 3.5-1.5 3.7-2 .3-.4 1.2-.2 1.4.2.1.5 0 1-1.5 3.9-.7 1.3-1 2-.7 2l2.3-.7zm-56.5-2.9c1 .1 2.3.3 2.7.5 1.4.5 1.6.2 1.6-1.8 0-1.2-.1-2-.5-2.7-.3-.6-.8-1.7-1-2.5-.4-.9-.9-1.7-1.2-2-.6-.3-.7-.3-1.6.2-1 .4-1 .4-1.5-.2a2 2 0 0 1-.5-1.6c.1-.8 0-1-.7-1.2-1-.3-1.6-.8-2.4-2.3-1.3-2.4-2.2-1.7-1 .8.7 1.4.8 1.6.7 4.3 0 2.2 0 3.1.4 3.9l1 3c1 2.5 1.2 2.8 1.7 2 .5-.5.6-.5 2.3-.4zm108-12.8c.2 0 .5 0 .8-.2a19 19 0 0 1 2-.8c1.6-.6 2.5-1.6 4.8-5l2.8-4.1c2.4-3.7 3.2-5.3 3-6.5 0-.5 0-2 .4-3.5.9-4 .6-7-.6-6.5-.2 0-.5.5-.6.9a29 29 0 0 1-3.4 6.6 41.7 41.7 0 0 0-5.2 8.4c-.3.4-1 1.1-1.5 1.4-1 .7-1.3 1.3-1.8 3.8-.2 1.1-.8 2.4-1.2 2.4-.3 0-1.8 3-1.8 3.7 0 .5 0 .5 1 0l1.2-.6zm23.9-11.8c0-.5.2-1.6.5-2.5.3-1 .5-2.4.5-3.4 0-1.5.2-2 .8-3l.9-1.8.6-1.8c.5-1.4.4-3-.4-4.5-.5-1-.7-1-1.3-1-1 .3-1.5-.2-2-2-.7-2.2-1.7-2.6-4-1.4-.6.4-1.4.7-1.7.7-.3 0-.5.2-.6.6-.2.7.1 3.8.6 5.2.8 2.8.8 3 0 5.8-.5 2.2-.5 2.9-.3 3.4.2.3.3 1 .3 1.4 0 1 1.2 2.3 2.9 3.2.5.2 1.3.8 1.7 1.1 1 1 1.5.9 1.5 0zm-19-5.7a11 11 0 0 0 2.7-5c.3-2 1-4 2-6 1.2-2.4 1.3-3.2.5-3.9-.3-.2-.5-.6-.5-.8 0-.2-.3-.4-.5-.4-.4-.1-.6-.4-.6-1 0-1-.3-1.2-1.5-.6-1.2.8-1.6.7-1.6-.2 0-.6.2-1 .7-1.3 1.3-.8 1.4-1 .8-1.5-.9-.6-1.4-.5-2.9.6-1.6 1.1-2 2-2 4 0 1.4-.2 1.9-.9 2.8-.4.6-.8 1.3-.8 1.6 0 .2 0 .4-.2.5-.6.3-.3 1.4.5 2.1.9.9 1.3 2.1 1.3 3.7 0 .6.2 1.3.4 1.7.3.6.3 1.2.2 2.3-.2 1.1-.1 1.6.1 2 .6.8 1.1.7 2.3-.6zm-8-11.2c0-1 .6-2.2 1.5-3.3.6-.6 1.1-1.7 1.5-3.1.7-2 1-2.4 2.2-3.7 1.6-1.5 3.2-2.4 4.4-2.4.4 0 1.3.2 2.1.6 1.5.6 2 1.4 4.5 5.7 1 1.8 1.2 1.9 3 .7.7-.6 1.9-1.1 2.5-1.3l2.5-.5c1.6-.3 2.8-.1 3.5.7.5.5 1 .6 2 .6.9 0 2-.1 2.6-.3l2-.4h.9l-.1-2.5a76.3 76.3 0 0 1-.6-10.6l-.2-8c0-1.3-.7-8.4-1.1-11.5-.6-4.6-.6-6.2 0-7 .9-.8 1.1-4.8.5-6.5l-.8-2.8c-.4-1.6-.5-1.7-1.4-2-.6 0-6.6-.2-15.1-.2a105.7 105.7 0 0 1-20.4-1c-1.8-.1-4.4.3-5 .9-.1.2-.3 1-.3 2.2 0 1-.1 2.5-.3 3.3-.2 1.1-.2 2 0 3.3A49.2 49.2 0 0 1 176 91l-.3 2.3c-.2.9-.2 1.8 0 2.7.1.7.2 2.3 0 3.4 0 2-.1 2.1-1 2.8l-.8.7.1 7.1c.2 8 .3 10.7.8 11.3l1.2 1a23 23 0 0 1 2.5 2 14 14 0 0 0 4.1 2.7c.4.1.9.6 1 1 1 1.6 1.7 2 1.7.8zm9.3-25-1-1-1-.8c-.9-.5-2.3-2.6-3-4.6a5 5 0 0 1-.5-2.9l.4-3.2c.2-2.3.8-3.4 2.3-4.1 1.5-.7 2.7-.7 4.2 0 1 .5 1.4.5 2 .3 1.3-.5 2.5.3 3.5 2.2.7 1.3.7 6 .1 7.1l-.4 1.2a13.5 13.5 0 0 1-2 3.6c0 .2-.5.9-1 1.5-1.3 1.5-2.3 1.6-3.6.7zm4.9-9.8c-.1-2.4-.3-2.9-1.2-2.9-.4 0-.6.1-.4.2.1.1.4 1.3.5 2.7.2 3 .3 3.5.8 2.6.3-.5.4-1.3.3-2.6zm-2.6-1.3c0-.7 0-1-.2-.6 0 .3-.2.6-.3.6-.2 0-.3.4-.3 1 0 .8 0 .9.4.5.3-.2.4-.8.4-1.5zm-43.8 32c1.1-.6 1.6-2.2 1.3-4.5l-.2-6.8V94.6c0-2.9-.1-7-.3-9.3l-.5-9.5c0-3-.2-5.8-.4-6.4-.3-1-.9-7.4-1-10.2 0-4.3 0-4.6-.4-4.6-.7 0-1.3-1-1.2-2.2 0-.8 0-1.3-.4-1.6-.6-.6-4-1-5.3-.7-.5.2-1.3.2-1.7.1l-5.2-.2-4.5-.1-1.5.8c-1.7.9-2.8 1-6.4.4-3.3-.5-4-1.2-3.5-3 .2-.6.1-.6-2.1-.8h-3.8a158 158 0 0 1-4.8.7l.4 1c.7 1.1.2 2-1.6 2.9-1.3.6-1.9.7-3.7.8l-5.3.2c-3 .2-3 .3-1.6.4h25.1c.9 0 1.7.7 1.9 1.9.2 1 1 1 1.6.3.3-.4.7-.6 1.3-.6.7 0 1.2.3 3 2a16.7 16.7 0 0 0 5.1 4l.5.5a43 43 0 0 1 5 3.6c.6.5 1.6.6 2 .2.3-.2 1.2-.4 2.1-.5 1.5 0 1.8 0 2.3.5.8.8 1 1.7.4 2.5-.5.8-2 1.7-2.7 1.7-.7 0-1.5 1-1.9 2.4-.2 1-.2 1.6.3 3.6.9 4.3 1 4.7 1.1 7.7.2 1.7.4 3.5.7 4.5.5 1.2.6 2.7.8 7.6l.4 8.8c.2 2.4.1 2.9-.4 4-.6 1.5-.5 2.3.4 5 .5 1.3 1 5 1 9 .1 1.7.3 3.2.5 3.4.4.4 2 0 3.2-.7zm-12-65.3c-2.9-1-3.7-1.6-2.9-2.6.3-.3.7-.4 2.4-.2l2.2.1c2.5-.1 2.4-.1 2.5.7.1 1-.4 1.8-1.2 2.2-.8.4-1.3.4-3-.2zm121.5 64.4V98.7l-.3-2.3a39 39 0 0 1-.3-5.4 58.8 58.8 0 0 0-.6-10.5c-.1-2.8-.4-5-.7-6-.3-.6-1.9-1-3-.7-.4.1-1.4 0-2.3-.3a64 64 0 0 0-3.7-.8c-3.2-.6-5.9-1.2-6.3-1.4-.3-.1-1.5-.4-2.7-.5-2.8-.5-12.8-.2-16.6.3-2.3.3-2.6.4-3.3 1.2-.7.8-.7 1-.7 3.6 0 1.7 0 2.9-.3 3.3l-.6 3.7c-.2 2.7-.2 3.2.2 4 .9 1.7 1.3 6 1 12.6v7.8l-.3 3.4c-.3 1.2-.2 2 0 3.5.3 1 .5 2.3.5 2.7l.2 1.6.6 2c.2.8.6 1.6 1 2l.9.8h5c8.5 0 26 .4 27.9.6 3.2.4 4.3.3 4.4 0zm-24.3-16.1c-1-.5-1.5-.9-1.8-1.5a5.6 5.6 0 0 0-2.9-2.8c-1-.3-1.2-.8-1.9-3.2-.5-1.8-.4-3.4.3-5.8.7-2.1 1.7-2.5 5-2 .7 0 1.8 0 2.8-.3 1-.2 2-.4 2.4-.3 1 .3 2.5 1.4 3.3 2.5.7.9.8 1 .8 3.6v2.6l-1.1 1.8-1.5 2.4c-.6 1.1-2.7 3.3-3.4 3.5-.4 0-1.2-.1-2-.5zm2.8-10.2c-.2-.6-1-.7-1.7-.2-.8.5-.8.8-.3 1.3.4.4.5.4 1.2-.1.5-.3.8-.8.8-1zm-70.4 24.3c.3-.1.6-.6.8-1.1.1-.5.2-4.4 0-8.8a47.9 47.9 0 0 1 .2-9.2c-.2-.5-.2-.8 0-1 .3-.3.3-.4 0-.7-.2-.3-.2-.5 0-.9.3-.4.3-.5 0-.5-.4 0-.4 1-.5 6.7v8.4c.1 2.6-1 3.8-2 2.2-.3-.6-.4-1.2-.2-4.8.3-7.3.3-33 0-35.1-.3-1-.5-3-.6-4.5-.4-4.2-.6-4.6-1.8-4.7a4 4 0 0 1-1.4-.4c-1-.4-2.4-.3-2.4.3 0 .5-.8.5-1.3 0-.4-.3-.3 2.1.3 8.7a118.6 118.6 0 0 1 1 16.4v5.9c-.5 6.8-.4 7.7.4 9.9.6 1.7.7 2.3.6 4.4 0 2.4 0 2.5.8 3.3a24 24 0 0 1 1.8 2.5c1.9 2.7 3.2 3.6 4.3 3zm-24.6-6.3a112 112 0 0 1-.4-4c-.1-1.6-.2-1.8-.5-1.6-.3.3-.4 1-.4 2.4 0 1.5-.1 2.3-.5 3-.9 1.8-.7 2.8.9 4.3l.8.8.2-1.3-.1-3.6zm-3.8-.9c.5-1.7.5-1.4-.4-12-.2-1.7-.2-5.2-.2-7.8.2-3.4.1-5.2-.2-6.9l-.3-3-.3-3.6-.4-5c0-2.4-.6-3.8-1.5-4.1l-1.2-.5c-1-.5-1.3-.3-1.7 1-.3 1 0 2.2 1 3.3.5.6.7 1.5.6 3.2l.3 1.9c.3.8.5 3.2.6 7.6.2 8.8.3 10.8.6 14.5a68.8 68.8 0 0 0 1.9 12.5c0 1.2.7.5 1.2-1zm-18.7-1.4 2.3-.9c1-.8 2.8-.4 4.2 1 .4.3.7.5.8.4.2-.3-.6-2.5-1.2-3.3-.3-.4-.5-1.1-.5-1.8 0-1.1-.6-1.5-.9-.5-.2.9-1.2.6-2.7-.8-1.6-1.6-2.4-1.7-3.5-.6-.4.4-1.1.9-1.7 1-.7.3-1 .6-1.1 1.1-.1.5-.7 1.5-1.2 2.3-.6.8-1 1.7-1 1.9.3.6 1.8 1.1 3.2 1 .8 0 2.2-.4 3.3-.8zm21.6-8.5c-.2-1.3-.3-1.4-.6-1-.3.3-.3.5 0 1.2l.2 2v1l.3-.9v-2.3zm-28.3 2c.1-.4.8-1.1 1.5-1.7 1.4-1.2 1.7-2.2.6-2.2-.4 0-.9-.4-1.5-1-1.2-1.7-2.2-1.5-4.3.5a65 65 0 0 1-2 1.9l-1 .7 1.6.5c.8.3 1.9.8 2.4 1.2 1.1.9 2.5 1 2.7 0zm27.7-8.8-.3-2.7v3c0 1.9 0 2.7.2 2.6.2-.2.2-1.2 0-3zm-8.3-7c0-7-.1-10.9-.6-10.9-.2 0-.6.3-1 .6-.5.6-.5.9-.4 2.9 0 1.2.3 3.1.4 4.2a729.8 729.8 0 0 1 1.3 9.1l.3-6zm8.2.4c-.1-.2-.2-.1-.2.2 0 .3 0 .4.1.3v-.5zm-.6-9.8v1.1-1zm-12.7-2.9c0-.2-.1-.1-.1.2 0 .3 0 .4.1.3v-.5zm194.6-4.5c2.4-.3 2.7-.7.8-1.2L324 72c-1.3-.5-1.7-.5-4.6-.3-4.5.2-5 .2-8.1 0-1.9-.2-3.4-.1-5.1.1-1.8.3-2.7.3-3.8 0a81 81 0 0 0-8-.4c-6.2 0-12.6-.6-16-1.2l-3.8-.2c-2 0-2.4 0-3.2.6-.8.5-1 .5-5.5.5-4.3 0-6 .1-5.4.6.1.2 5.1.5 13.4.9l9.5.6c4 .2 8.3.4 20.7.6l12 .4c4.4.2 7 .1 9.7-.1zm-192.4-.7c0-.7-.5-1.9-1-1.9 0 0-.6.4-1.1 1l-1 .8h1c.5.1 1 .2 1.2.4.4.4 1 .3 1-.3zm-5-13.6c-.5-.4-1.9-.9-4-1.2l-2-.6-.6-.2c-.3 0-.7-.3-1-.6-.6-.7-.6-.7-7.4-.7-13.2 0-30.4-.3-31.5-.4-1.2 0-2 .3-2 1 0 .8 2.6 1 17.4 1.4l9.5.2c5.3.2 6.3.1 7.2-.2 1.4-.6 4.1-.6 5 0 .6.6 1.9.9 6 1.4 3 .3 3.8.3 3.4 0zM124 47.3h-.5c-.2 0-.2.1.1.2.3 0 .5-.1.4-.2zm22.2 0c.2-.4 1.2-.4 1.2 0l.3-.1c.3-.3.2-.4-1-.6-1.6-.2-4.6 0-4.6.4l-.9.3 2 .1c1.6 0 2.9 0 3-.2zm13.2-.8c.4-.3.4-.4 0-.4l-.7.4c-.2.3-.2.4 0 .4s.5-.1.7-.4zm4.3-9.8c.1-2.2 0-2.8-.3-3.4-.3-.3-.6-.6-.8-.6-.5 0-.7-.6-.5-1.4 0-.5-.1-1-.8-1.7-1-1.1-1.8-2.8-1.8-3.5l.6-1.3.5-.9h-1.3c-1.6 0-3 .7-3 1.5 0 .6 2.3 3 2.8 3 .7 0 1 .9.5 1.8-.3.9-.3 1 .6 2.2l1 1.8c0 .3.1 1 .4 1.8.4.7.6 1.8.6 2.7 0 .8.1 1.7.3 1.8.6.6 1-.9 1.2-3.8zm125.1-8c.4 0 .6-.1.6-.2 0-.5-2.6-2-3.4-2-.8 0-2.7-.8-3.7-1.7l-1.5-.5c-.5 0-1.4-.4-2-.8-.5-.3-1.4-.6-2-.7-.7 0-1.7-.3-2.3-.5a27 27 0 0 0-2.3-.5c-1.7-.3-2.9-.9-3.8-1.9-.7-.7-.7-.7-.3-1.3.7-.7.9-.6 2.7.3 1.2.6 1.6.7 2.2.5a4 4 0 0 1 2 0 35.7 35.7 0 0 1 6.1 1.5c.1 0 0-.2-.2-.2-.3 0-.5 0-.5-.2s-.1-.3-.3-.3a31 31 0 0 0-10.5-3.7l-1.7-.4c-.3-.1-.6.2-1 1l-.8 1H264c-1.8 0-2.3.1-3 .6l-1 .7-1 .4c-1.4.3-1.8.9-1.7 2.9.2 2.2-.4 3.1-2.1 3.6-1 .2-1.4.2-2.4-.2-.7-.3-1.3-.8-1.4-1-.2-.5.9-1.7 1.5-1.7.3 0 .6-.2.8-.4.3-.3.3-.5-.3-1l-.7-.7c-.5 0-2.7 2.5-2.8 3.2-.2.9.3 2.3 1 2.9.7.5 3.8 1.3 4.8 1.1l5.8-.3a59.5 59.5 0 0 1 14.6.6c.4.2 12 .1 12.7 0zm27-.6 1.4-.5c0-.4-2-.3-2.7.2-.4.2-1.2.4-1.7.4s-.9 0-.9.3 1.5.1 4-.4zM201 23.9c.2-1 .2-1-.4-1-.8.1-1.3 1-.8 1.3.7.4 1 .3 1.2-.3zm26.4-3-.3-.3-.3.1c0 .2.1.3.3.3l.3-.1zm29-2.4c.2-.2.3-.4.1-.4l-.6.4c-.2.2-.2.4 0 .4l.6-.4zm49.4 292.1-2.2-.9a6 6 0 0 0-2.2-.6c-.7 0-1.2-.2-2-.8-1.5-1.4-1.3-2.6.6-3.4 1.2-.6 1.3-.6 3.4-.1 2.5.5 3 .7 4 1.5s3.4.8 5.3 0a30 30 0 0 1 3.7-1.1 35 35 0 0 0 4.2-1.4 48 48 0 0 1 6.4-2.3c1.1-.5 1.2-.6 1.2-1.8 0-.8.2-1.6.7-2.5.7-1.2.7-1.3.3-2.5a3357.7 3357.7 0 0 1-1.6-6.6c0-.4-.1-1.6-.4-2.6-.5-2.5-.5-3.7.1-4.2 1.3-1.2 3 0 3 2.1 0 .6.3 2 .6 3.3.4 1.2.7 2.8.7 3.6l.2 1.9c.6 1 .8 4 .4 4.8-.6 1.3-.4 1.7.6 2a2 2 0 0 1 1.4 1c.4.7.4.7 0 1.1a4 4 0 0 1-1.3.6c-.3 0-1.6.6-2.8 1.1a14 14 0 0 1-2.6 1c-.2 0-.4.2-.5.3a161.6 161.6 0 0 1-14 5.2c-5.8 2-5.4 1.9-7.2 1.3zm-28.3-17.4c-.5-.6-.6-1-.8-3.3a218 218 0 0 1 .6-23.7l.7-.2c1.2 0 1.3.7 1.3 12.3v10.9l.7.5c.5.4.6.6.5 1.6-.2 1.3-1 2.5-1.9 2.5-.2 0-.7-.3-1-.6zm-8.4-3.4c-.9-1-1-1.8-1.1-7.5l-.3-10.5c0-3-.2-5.2-.4-5.7-.3-.6-.2-1 .1-2.3.5-1.6 1-2 1.9-1.5.4.2.7.5.8 1.3 0 .5.2 5.2.2 10.5.1 7.2.2 10 .6 11.6.6 3.5.5 4.7-.7 4.7-.3 0-.8-.3-1-.6zm20.4-.2c-.7-.5-1-1.8-.9-4.7l.2-11c0-7.7.1-8.3.6-8.8s.5-.5 1 0c.3.5.4 1.6.5 6.8l.6 15.7c.2 1 .1 1.2-.4 1.7-.6.6-1 .6-1.6.3zm6.4-3.7c-.2-.3-.2-2.3 0-5.7.2-3 .2-7 .2-8.9-.2-4 0-5.4 1-5.1.8.2 1 .4 1.3 2.7.5 3.7.3 16.3-.4 17-.5.6-1.8.6-2 0zm-86-1.9c-.8-.6-.7 1.4-1.3-16.8-.2-4.5-.4-9.5-.6-11.2-.2-2.1-.2-3 0-3.5.7-1.2 1.7-.2 2 2l.4 3.3c.2 1.1.3 4.6.4 7.7.1 5.4.4 9 1 13.5.4 3.7.3 5-.9 5.4-.2 0-.7-.1-1-.4zm24.6-2.8c-.9-.2-1-1-1-5.3 0-2.3-.2-5.9-.4-7.9-.3-4.4-.3-11.3 0-11.6.4-.3 1.9 0 2.2.6.1.3.3 4 .4 8.3.2 9 .3 11.6.5 13.8.2 1.3.1 1.6-.3 2-.4.3-.7.3-1.4 0zm116.8-.2c-.2-.1-.4-1-.6-1.8-.4-2 0-2.9.8-2.9.9 0 1 .4 1 3 0 1.9 0 2-.5 2-.3 0-.6 0-.7-.3zm-137.6-.5c-.4-.4-.5-1-.5-4.3l.4-10c.3-6.5.3-6.8-.5-12.2l-.4-3.2c0-1.5 0-1.6.7-1.7.3 0 .8.1.9.3.3.4 1 2.8 1.5 4.8.3 1.8.3 10.1 0 18.6a24 24 0 0 0 .2 6c.5 1.3 0 2.3-1 2.3-.5 0-1-.2-1.3-.6zm9-6.6c-.4-.4-.4-.6-.2-3.9.3-3.2.3-3.6-.2-5.4a50.1 50.1 0 0 1 0-12.8c.3-.7 1-.8 1.5-.3.6.7 1 3.2.7 4.5-.2.7-.2 1.7 0 2.8.4 3 .6 9.6.4 12-.3 3-1 4-2.2 3zM85.4 260.5c-1.3-.2-2.4-.6-2.6-1-.5-1 .1-1.3 2.4-1.5 2.6-.2 3.3 0 3.7.7.3.6 0 1-1.1 1.6-.7.4-1.1.5-2.4.2zM77 259c-1.4-.4-1.8-1-1.2-1.6.4-.4.6-.4 2-.1 2.7.5 3.6 1 3.6 1.5 0 .4-.2.5-1.7.5-1 0-2.2 0-2.7-.3zm259.4-4.5c-.3-.4-.6-1-.6-1.4l-.1-2.2c-.5-5.9-.7-12-.8-20.7 0-5.5-.3-11.3-.4-12.8-.3-2.7-.6-9.7-.5-14a118 118 0 0 0-1.3-15.9l-.5-4.8a2052.6 2052.6 0 0 1-1-24.9 497.7 497.7 0 0 0-1.7-32.7l-.5-6.9-.2-8c-.2-3.4-.1-4 .3-4.3.2-.3.6-.4.8-.3.7.3.9 1.3.7 3.6 0 1.2 0 4.4.2 7l.4 8 .8 13c.5 6.2 1 18 .8 18.2-.1.2.2 6.4.8 15.4l.5 9.1c.2 2.7.3 3.6 1 7.4a1589.3 1589.3 0 0 1 1.5 9.4c.2.8.3 2.3.3 3.4 0 1 .1 2.2.3 2.6.1.3.3 1.7.3 3a802.8 802.8 0 0 1-.3 32.8l.5 6c.1 2 .4 4.3.7 5l.5 3c.2 1.3.1 1.7-.3 2.1-.6.8-1.6.7-2.2-.1zM50.7 254c-.3-.4-.2-1.2.3-1.4.3-.2 1.9-.3 3.6-.4 2.8 0 3.2 0 3.5.4.3.5.3.6-.1.9-.6.3-7 .8-7.3.5zm8.4-.8c-.3-.7.2-1 1.7-1l1.6-.3c.1-.1 5-.3 10.8-.4 5.8-.2 11.6-.4 13-.6 2.7-.3 3.5 0 3.9 1.1.4 1.3.5 1.3-15.7 1.5-13.6 0-15.2 0-15.3-.3zm-53-7.3-1.2-.2c-.5 0-1.5-.4-2.3-.7-2.4-1.2-3.3-2.6-2-3.4.6-.5 2.8-.6 2.8-.2 0 .3 1 .6 2.2.5.5 0 1.4.1 2 .3.9.2 1.3.2 1.9-.1 1.8-1 3.1-.2 2.8 1.6-.3 1.4-1.5 2.1-3.8 2.3l-2.4-.1zm-3-2.7-.3-.3-.4.1c0 .1.1.3.4.3l.4-.1zM330 245c-.8-.3-1-1-1-4.5 0-2.4-.2-3.2-.5-4-.4-.7-.5-1.2-.4-2.9.1-1.4 0-2.2-.2-2.6l-.4-1.3a2 2 0 0 0-.4-1.1 3 3 0 0 1-.5-3c.4-1.1.5-3 .5-8a58.7 58.7 0 0 1 .3-8.3 104.9 104.9 0 0 1 0-15c.5-1.6.3-24.6-.3-25.5 0-.1-.2-5.5-.2-12a248.1 248.1 0 0 0-.4-18.6c0-3.4-.2-7.2-.4-8.4-.2-1.2-.3-3.3-.3-4.8 0-2 0-2.8-.4-3.5-.4-.9-.5-2.1-.5-13 0-12.7.1-13.2 1.3-13.2 1 0 1 .4 1 6.7 0 3.3 0 7.3-.2 8.7a14 14 0 0 0 .3 5.2c.4 1.8.5 3.5.5 7 0 3 .1 4.6.3 5 .2.4.4 3 .5 8.4.1 5 .3 8 .5 8.4a210.8 210.8 0 0 0 0 15.2 845 845 0 0 1 .1 21.4c.1 4.7.3 9.8.5 11.3.2 1.7.3 8.2.3 16 0 16 .3 21 1 23.5.4 1.2.6 2.6.7 5.3 0 2.5.2 4 .5 4.6.5 1.3.5 1.8-.2 2.4-.8.7-1.3.9-2 .6zM37 231.3c-1.2-.4-2-.4-4.5-.3-2.5.1-3 .1-3.4-.2-.2-.4-.2-.5.2-1 .9-1 7.9-1.8 10.1-1 1.6.6 2 2.3.6 2.8-.8.4-1.2.3-3-.3zm-23-10.7c-.5-.2-.3-1.4.3-1.5.8-.3 1.6 0 1.6.7 0 .8-.9 1.2-1.8.8zm72-2.8-1.6-.2c-1.8 0-2 0-1.8-.7.1-1.2 1.4-1.7 4.4-1.7 3 0 3.6.3 3.5 1.8 0 .9-3 1.4-4.5.8zm-43.4-11.2c0-.5.1-.7.7-.8.3-.1.8 0 1 .1.4.5-.2 1.2-1 1.3-.6.1-.7 0-.7-.6zm16.2-3.8c-5.3-.2-5.4-.2-6-1.4-.3-.5-.6-.6-2.7-.8-6.5-.5-8.6-1.1-8.6-2.5 0-1 .9-1.2 2.7-.5 1 .3 2.6.6 4.9.7l5 .5c.9.1 6.8.2 14 .2 11.4 0 12.5 0 13.1.4 1.7 1.1 1 2.2-1.5 2.8-2.2.4-13.7.8-20.9.6zm-11.6-6c-2.5-.1-3-.2-3.4-.6-1-1.3.5-2.1 3.5-1.8l3.7.2h1.6l.2-1c.1-.7.5-1.2 1.7-2.2 1.9-1.5 4-2.3 5.6-2 1.3.2 1.8.6 1.8 1.3 0 .8-.4 1-1.8.8-.8-.1-1.4 0-2.5.5-2 1-2.5 1.4-2.2 2 .8 1.1 1.6 1.4 4.4 1.5 3.2.1 3.7.3 3.7 1 0 .5-.2.5-6.7.4l-9.6-.1zm27.2-3.2c-.5-.4-.2-1.1.4-1.1.3 0 .6-.1.7-.3.4-.3 3.7-.5 4.2-.2.6.3.6 1 0 1.3-.8.3-4.9.6-5.3.3zm-5.5-2c-.4-1.1 1.5-1.8 5-1.8 2.6 0 3 .2 2.6 1.2-.3.6-.4.7-2.1.7l-3.5.1c-1.5.2-1.8.1-2-.3zm12.5-.9c-1.2-.5-1.5-1.2-.8-2 .6-.6 1.5-.6 2.5 0 .9.7 1 1.8.2 2.2-.6.3-.7.3-1.9-.2zM67 189.5c-.3-.8.2-1.5 1.5-2a26 26 0 0 1 8.7-.6c2 .3 2.6.6 2.5 1.4-.1.5-.3.6-1.2.5-2.6-.2-6 0-7.8.3-3.3.8-3.6.8-3.7.4zm273.2-1.4c-.5-.3-.5-.6-.4-2a143 143 0 0 0-1-24.5c-.8-8.5-1.6-20.9-1.7-25.1v-3l-.3 3.8-.2 6c0 2.4-.2 3.1-1 3.1-.4 0-.5-.6-.7-4.7 0-2.1-.2-4-.3-4.3 0-.3 0-.8.3-1.3.4-.8.8-3.1.8-4.8 0-5.7-.5-23.3-.7-26.5 0-2.5-.5-5.9-.9-8.1-.6-3.7-.6-4-.3-8 .1-2.2.4-4.2.5-4.4.8-1 2.4.6 1.9 2a2 2 0 0 0 0 1.4l.3 2.9c0 1.2.2 3 .4 4 .7 4.7 1.3 9.9 1.6 15.2l.5 7.4c.2 1.6.4 5.8.5 9.2.8 20.1 1.7 33.6 3 43.3a105.8 105.8 0 0 1-.2 18c-.5.9-1.3 1-2.1.4zm-3-56.7c0-.9-.1-1-.4-.4-.1.3-.2.8 0 1 .2.7.4.4.3-.6zM65.6 162.6c-.4-.6-.5-.7 0-1.3.2-.6.5-.7 1.2-.7 1.1 0 1.6.6 1.2 1.6-.3 1-1.6 1.2-2.4.4zm33.4-54.1c-.6-.6-.7-.8-.4-1.2.1-.4.5-.6 1-.6 1.1 0 1.2-.2 1.8-3.4l.4-2.1.2-4.3c0-2.2 0-2.9.4-3.2.4-.3.5-.2 1 .3.5.7.5 1 .4 4.5-.2 4.9-1 8.7-2.1 9.7-1 1-2 1-2.7.3zm-17.2-8c-.2-.3-.3-1.2-.3-2.8l.2-11.7c.2-12 .3-13 1.6-12 .4.3.5 1.4.5 8.8a104.1 104.1 0 0 1-.7 15.3c-.1 3 0 2.7-.5 3-.3 0-.6-.2-.8-.5zm5.1-4.8.3-2c1-3.6 1.6-10.2 1.6-16.2l.1-5c.2-.3.4-.4.9-.4l.7.1v5.6c0 3.1.1 5.7.2 5.8 0 0 .6-.8 1.2-2 2.6-5.4 3.4-7.4 4-9l1.3-2.4c.6-.8 1.3-1 1.4-.4.1 1.3-.2 2.6-.8 4-.5.8-.8 1.7-.8 2 0 .3-.7 1.8-1.5 3.3l-1.4 3.2c0 .3-.6 1.6-1.3 3.3a25 25 0 0 0-.7 2c-.3.8-.7 1.8-1 2.2l-1.1 2.5c-.9 2-2.1 4-2.7 4.2-.3.1-.4 0-.4-.8zm206.5-36.2c-.5-.3-.6-.5-.4-.8.4-.4 2.7-.7 4.5-.4 1.4.1 1.5.2 1.5.8 0 .7 0 .7-2.5.7-2 .1-2.7 0-3.1-.3zm8 0c-.6-.6-.2-1.1 1-1.3 1.8-.4 3 .4 2 1.4-.5.5-2.5.4-3-.1zm-98-.5-3-.2a45 45 0 0 1-6.7-.8h-7.4a91 91 0 0 1-8-1.2c-.5-.2-.8-.4-.8-.7 0-.7-.4-.6 8.4 0a260 260 0 0 0 17.2.5l6.5.1a763.3 763.3 0 0 1 30.5.4c.6.2.8.8.2 1.1l-10.2.3a625 625 0 0 0-26.8.5zm-28.9-3.5c0-.2.1-.4.3-.4l.2.4c0 .3 0 .4-.2.4s-.3-.1-.3-.4zm72.6-2.8c-.2-.5-.3-.5-2-.4-2.9.3-5-.7-5-2.4 0-.8.2-1.2 1.2-2.2.7-.6 1.2-1.3 1.2-1.5 0-.2-.5-.8-1-1.4-1.3-1.2-1.4-2.2-.4-2.3.4 0 .7-.4 1-1 .5-1.2 1.9-1.8 3.3-1.4 1.9.5 2.3 1.6 1.9 4.5l-.3 1.9 1 1.6c1 2 1.3 3.6.7 4.5-.5.8-1.4 1-1.6.1zm-.9-2.6c0-.6-1.1-1.8-1.6-1.8-.6 0-1.6.9-1.6 1.4 0 .4.6.6 2.2.6.6 0 1 0 1-.2zm-.8-6.9c-.2-.9-1-1.2-1.5-.7s-.5.5 0 .9c.8.6 1.6.5 1.5-.2zM230 51l-.9-1.3c0-.2-.5-.8-1.2-1.4-1.8-1.6-4.3-1.7-4.3-.2 0 1-.5 1.8-1 1.8-.6 0-1-.8-1.2-3l-.5-3c-.3-.5-.4-.6-1-.3h-2.2c-2.5-.5-2.9.3-.7 1.5.9.5 1.1.8 1.1 1.3s-.2.7-.9 1c-.5.1-1 .5-1 .7 0 .4.1.4 1.5.3 1.2-.2 1.6-.1 1.7.2 0 .2 0 .6-.2.8-.3.4-3.6 1.5-4.5 1.5-.6 0-1.3-1.2-1.3-2.2 0-1.2-.4-1.6-1.7-1.3l-1.2.4-.6 1.4c-.2.7-.6 1.5-.8 1.8-.7.7-2 .5-3.4-.4-1.7-1.1-2.1-2.2-1.9-4.9.3-3 1.3-4.5 3.4-4.8 1.2-.1 1.8.3 1.8 1.1s-.4 1.1-1.5 1.4c-1 .2-1.4 1-1.4 3 0 1.6.3 2.1 1.1 2.1.6 0 .6-.8 0-1.7-.2-.3-.3-.9-.3-1.2.1-.6.2-.6 1.6-.6l3.1.2 1.7.2-.2-1-.3-1.9c-.3-1.5.2-1.7 2.7-1.5 1.1 0 2.6.3 3.2.5 1.5.6 1.9.5 2-.2.1-1 1-1.2 4.5-1 2.6.2 3.3.4 4 .9l1 .8c.4.6.2 2.2-.3 2.8-.7 1-.7 1.5.2 2.1.4.3 1.1 1.2 1.5 2 .7 1.2.8 1.6.5 2.2-.3 1-1 1-2-.1zm-3.2-6.6c1.1-.6 1-1.4-.4-1.6-2-.3-3 0-3 .7-.1.3 0 .7.1 1 .4.4 2.3.4 3.3 0zm-39 6.7.6-2 .6-1.4-.6-1.6c-.5-1.5-.5-1.8-.3-2.9.5-2 1.4-2.5 2.5-1.7.5.3.5.7.6 2.6 0 1.7.1 2.6.6 4 .9 2.4.7 2.8-1 2.8-.6 0-1.2.2-1.4.4-.2.2-.6.4-1 .4s-.6-.1-.6-.6zm12.2.4c-.6-.2-1-.9-1-1.6 0-1-2.2-3.4-2.8-3.1-.5.2-.5 1.2-.1 2.6.3 1.2 0 1.8-1 1.7-1-.1-1.4-1.5-1.6-5.3-.2-5.3.1-5.6 2.8-2.7 1.3 1.4 1.6 1.6 2 1.3.3-.2.6-.7.7-1.2.2-1.3.7-2 1.3-2 .8 0 .9.4.8 2.8 0 1.6 0 2.6.3 3.5 1 2.7.3 4.6-1.4 4zm94.5-1.5a9 9 0 0 0-2.3-1.5c-.3 0-.8.4-1.2.9-.8 1-1.4.9-1.8-.1a34 34 0 0 1-.9-7.8c.8-1.6 2.2-.7 2.2 1.3 0 .6.2 1.4.4 1.6.4.5.4.5 1-.2.4-.5 1-1.3 1.3-2 .6-1.3 1-1.7 1.8-1.6 1 .2 1 1 0 3-.4.9-.8 1.9-.8 2.2 0 .3.7 1.2 1.6 2 1.8 1.8 2.2 2.5 1.8 3.2-.4.7-1 .5-3-1zm21 1c-.5-.1-1.1-.4-1.4-.7-.4-.3-.9-.3-3.3-.1-2.4.2-3 .1-3.5-.2-.8-.5-1-1.4-.6-3 .2-.9.1-1.7-.2-3.4l-.3-2.8c.5-1.8 2.8-2.5 5.4-1.6 1.7.6 2.2 1.1 1.6 1.8-.3.4-.6.4-2.2.3-2-.2-2.5 0-2 .9.2.4.6.5 1.4.5 1.2 0 2.3.6 2.3 1.2s-.8 1.2-1.8 1.2-1.6.5-1.6 1.5c0 .8.5 1.1 2.2 1.3a7 7 0 0 1 2.1.5c.8.5 3.1.7 4 .4 1.5-.5 1.4-1-.8-3-1.7-1.6-2-2-2-2.7a3 3 0 0 1 1.8-3c1.2-.5 3.5-.6 4.2 0 .6.4.5 1.4-.2 2-.6.6-.8.6-2 .5-1.3-.2-1.4-.2-1.4.3 0 .4.4.8 1 1.2a15 15 0 0 1 2.1 1.9c1 1 1.2 1.3 1.2 2.4 0 1.3-.4 2-1.7 2.7-.8.4-3.2.4-4.4 0zm-35-.2c-1.2-.7-2-1.5-2.6-3-1.2-2.7-1-5.1.4-5.9 1-.5 2.8-1 3.8-1 2 0 3 1.9 1.8 3.1-.7.7-1.1.7-1.8-.1-.7-.8-1-.8-1.9-.3-.4.3-.6.7-.6 1.4 0 1.2 1.2 3.5 2.2 4 .9.5 1.2 1.2.7 1.8-.4.5-1 .5-2 0zm-101.7-.5c-1.6-.8-4-3.3-4.3-4.4-.4-2-.6-4.2-.4-5.3.8-4.7 1.7-6.3 4.2-7.7.9-.5 1.7-1.2 1.8-1.5.4-.8 1.3-1.2 1.7-.7 1 .8.8 6.2-.1 6.8-.5.3-1.2-.3-1.4-1.2-.2-1-.8-1.2-1.3-.5a3 3 0 0 1-1.2.8c-.4.2-.9.6-1 .9-.5 1-.9 3-.9 4.5 0 3.4 2.3 6.5 4.7 6.5 1 0 1.4-.5 1.5-2 0-1.3-.3-1.7-1.3-1.7-1.5 0-2-1-.7-1.7 1.1-.5 3.9-.7 4.5-.2.7.4.8 1.6.2 2.3-.2.3-.4 1.1-.4 2 0 1.2-.1 1.5-.9 2.2-1 .8-2.3 1.5-3 1.5l-1.7-.6zm91.6 0c-.2-.2-.2-.9-.1-1.7 0-.7 0-2.3-.3-3.6-.4-2.4-.3-3.2.5-3.9.3-.2.6-.3 1.1 0 .6.3.7.4.6 1.7 0 .7 0 2.7.2 4.3l.2 3-.7.3c-1 .3-1.1.3-1.5-.1zm29.4 0c-.7-.2-.8-.6-1-3.5l-.3-4c-.1-1.9 0-2.1.4-2.6.5-.4.6-.4 1.2.2.7.7 1.2 3.4 1.2 6 0 .7.2 1.4.3 1.5l2 .4c2 .2 2.4.5 2.1 1.4-.1.7-.2.7-2.2.7l-2.6.1-1-.1zm-41-.6c-.2-.2-.3-.8-.3-1.3V36l-2 .1c-2 .1-2.1 0-2.2-.4-.2-1.2 1-1.5 6-2 3.2-.3 6.6-.1 7.7.4 1.5.8 2.1 2 2.6 4.5 0 .7 0 1-1.2 1.8-.7.6-1.7 1.1-2.3 1.3a75 75 0 0 0-4 1c-.3 0-.9.2-1.2.5-.6.5-.7.8-.9 3-.2 3.2-.4 4-1.3 4-.3 0-.8-.3-1-.5zm6.6-10c1-.2 2.2-.4 2.5-.6.4-.3.4-.5.1-1.4-.5-1.7-1-2-4.5-1.8-3.3 0-3.6 0-3.2.5l.5 1.5c.6 2 .8 2 4.6 1.7zm-68-.7c-.3-.3-.7-.5-1-.5-.6 0-1-.5-.8-.8.1 0 .4 0 .7.2.3.2.7.3 1 .3.8 0 1.2.7.7 1-.3.3-.4.3-.7-.2zm20.7-1.2c-.3-.3-.3-.5 0-1 .4-.9 2-.4 2 .6 0 .8-1.3 1-2 .4zM111 36c-.4-.2-.5-.5-.4-1.6l.1-1.3h-1l-5.7.1c-.4 0-.5-.1-.4-.4.3-.8 1.6-1.2 5-1.5 1.9-.2 3.9-.5 4.4-.7.6-.2 2-1 3.1-2a36.2 36.2 0 0 1 5.6-3.7 64.7 64.7 0 0 1 26.1-8.2c.4 0 .5 1 0 1.3l-2.4.5a51.4 51.4 0 0 0-14.6 4c-.6 0-1.4.3-1.8.6l-2.8 1c-1.7.6-2.3 1-3.9 2.5a54.7 54.7 0 0 1-7.1 5.6c-.4.4-.4.5.2.5.3 0 1-.3 1.4-.5.4-.3 1.5-.8 2.4-1.1 2-.7 2.8-.5 2.8.7 0 .5-.3.7-1 1a105.9 105.9 0 0 0-4.7 2l-4.3 1.4c-.3 0-.8 0-1-.2zm12.5-5.3c-.2-.5 0-.7 3.1-2.3 5-2.6 7.3-3.2 11-3.1 2.3 0 2.9.2 3.6.7 1 .7 1.2 1.7.5 2.6-.6.8-1.5.7-2.5-.3-.5-.6-.7-.7-3-.7-2.5 0-5.3.6-6 1.2l-1.9.9c-4 1.5-4.6 1.6-4.8 1zm44.8-8.9c-.3-.4-.2-.6.7-1.2 2-1.2 1.3-2-2.6-3-1.8-.3-3.1-.5-3.7-.4-1.8.3-12.6.4-12.8.2-.4-.8.7-1 5-1.4a50.8 50.8 0 0 1 15 .8c1 0 2.6.6 3 1.2l.5 1.2c.3 1-1 2.3-2.4 2.6-2.2.6-2.4.6-2.7 0zm-41.2-5-.1-.7c0-.7.9-1.4 1.1-.8.3.8-.5 2-1 1.5zm1-2.9c-.3-.3 0-1.6.8-3l1.3-2.7c1-1.8 3-4.4 3.6-4.6.3 0 .8-.4 1-.8.9-1.3 5.8-2.8 9.5-2.8 1.5 0 2 .1 2.8.6 1.7 1 4.5 4.6 6.4 8 .5.8.5.8 1.9.6 1.6-.3 5-.3 7.2 0 1.6.2 1.8.2 3-.6.8-.5 1.7-1 2.1-1 1.3-.2 1.8 1.2.7 1.9-.3.1-1 .5-1.4.9-2 1.4-3.8 1.7-5.9 1-1.4-.5-4-.4-6.2.4l-1.5.6-.7-.6a3 3 0 0 1-1-1.4c-.6-2.7-.7-3-2-4.3-1.6-1.5-2.8-2.3-3.5-2.3-.2 0-.7-.3-1-.8-.7-1-1.8-1-2.4-.1-.3.3-1 .8-1.6 1-1 .3-1.3.3-2 0-1-.5-2-.3-2.6.6a35 35 0 0 1-2.8 3 16.5 16.5 0 0 0-3.5 4.5l-.7 1c-.3.8-1 1.3-1.4 1z"/>
</svg>
