<?xml version="1.0" encoding="utf-8"?>
<svg xmlns="http://www.w3.org/2000/svg" xmlns:svg="http://www.w3.org/2000/svg" version="1.1" viewBox="0 0 589 362">
  <title>Mrs. Ribby grips Moppet by the scruff of her neck and pulls her out of the barrel.</title>
  <path d="m231.3 361.3 1-.5c.3 0 .3 0 0-.3-.6-.3-4.3-.8-6.9-.9l-4.3-.2c-1.6-.1-2-.1-2 .2.1.1.6.3 1 .3.8 0 1 0 1 .5 0 .7 0 .7-11.4.8-7.3.1-9.6 0-12-.3-5.3-.7-6.5-.9-7.5-1.4-.5-.3-1.9-.7-3-1a31.4 31.4 0 0 1-12.4-4.8c-.5-.3-1.2-1-1.5-1.3a20 20 0 0 0-5.3-4.8c-1.8-.9-3.2-2.1-3.2-3 0-.6-.2-.8-.7-1-2.4-1-3.1-1.5-3.2-2.4-.2-.8-.3-.9-2.2-1.5l-3-.9c-.7-.1-1.2-.4-1.2-.6 0-.3.5-.4 2-.5 3 0 3.5 0 5.1.4 1.5.3 2 .2 1.3-.5-.4-.4-1.4-.5-5-.7-4.1-.3-4.6-.4-5-1-1-1.1 0-2.3 2.5-2.6 2.6-.4 3.3-.6 3.3-1 0-.3-.8-.3-4.2-.4-8.7 0-9.1 0-9.6-.4-.3-.3-.4-.5-.1-1 .3-.6 1.5-1 3.5-1.4 1.6-.2 1.7-.2 2 .4.2.6.2.6 4.2.4 3.4-.1 4 0 4.5.3.4.2 1 .4 1.5.4 2.1 0 3 1.2 1.4 2.1-.6.4-.7.6-.5.8.2.2.4.6.4.9 0 .6.2.8 1.6 1.3.6.2 1 .5 1 1v1c-.2.4.5.8 1.6 1 .8.2 1 .1 1.1-.2.3-.7-1.2-5.6-2-7-.6-1-2.1-7.2-2.5-10.4l-.8-3.9a23 23 0 0 1-1-4.4l-.7-3-1.4-4.4c-.6-1.6-.8-2.2-.6-3.1.2-1.6.2-2.6 0-4.1-.2-1.3-.2-1.4.3-1.4.8 0 1-.7.6-2.5l-.4-2.6c-.1-1-.7-1.5-1-1-.1.1 0 1.1.2 2.2.5 2.2.5 2.6.2 2.6a22 22 0 0 1-1.8-7.8c0-1-.3-1.9-.4-2-.3-.5-3.7-.7-5.4-.3a23 23 0 0 1-5.5.2l-2.2.1-4 .4c-1.6 0-4.1.3-5.7.5-3.5.4-6.8.5-6.8.1 0-.1.3-.3.7-.3 1.6 0 1.9-.1 3.7-.3 5-.5 8.6-1 9.7-1.4.8-.2 2-.4 2.8-.4a1236.4 1236.4 0 0 0 8 0c4.4-.1 4.5-.1 4.5-2 0-1.5-.9-2-3.4-1.7-1.2 0-1.9 0-2-.2-.2-.2.4-.3 1.9-.3 2 0 3-.3 3-1 0-.5.7-.4.8 0 .1.3.3.4.5.3.3 0 .4-.7.3-2.1 0-1.6 0-2.1-.4-2.3-.4-.2-.5-.2-.7 0-.2.4-.4.4-1.3 0-1-.5-1.3-.5-2-.3-.7.3-2.6.3-7.6.1-1.2 0-1.3-.3-.4-.7l.6-.3-.6-.2c-.8-.2-.8-.7-.1-1.3.3-.3.5-.7.5-1 0-.4-.2-.5-2.3-.5-3 0-3.8.6-3 2.5.4.7 1 1 2.3 1 1.2 0 .5.5-1.2.8-.8.2-2.3.3-3.3.4l-5.3.2c-9.9.5-26.2.7-28.1.5l-1.5-.2 1.7-.2a113.2 113.2 0 0 1 6.7-.7c1-.2 3.7-.2 6.7-.2 5.4.2 12.5-.2 13.5-.7.5-.2.8-.2 1.5 0 .6.3 1.1.3 1.8 0l1.8-.2c2 0 2.7-.7 2-2.2-.2-.6-.4-.7-2.1-.8h-2.6c-.3.1-2.4.2-4.5.1-2.1 0-4.3 0-4.9.3-1.6.4-6.4.5-6.4 0 0-.4.6-.5 3.3-.7a67.1 67.1 0 0 0 11-1.2c.2.2 1.5.3 3.2.3 3 0 3.1 0 3.1-1.6v-.8l-3 .1a570.2 570.2 0 0 1-13.4.6 54.7 54.7 0 0 1-5.8.6c-1.9.3-3.8.4-9.2.7l-5.7.2c-3.2.2-3.4.2-2.8-.2.4-.2 2.4-.6 4.6-.8a395.8 395.8 0 0 0 11.2-1.2c3-.4 14-1 20-1.1 2.8 0 3.7-.2 3.8-.5.2-.2.4-1 .5-1.9.2-1.8.6-2 .6-.3 0 .6.1 1.4.3 1.8.2.7.3.7 2.3.7 1.8 0 2.3-.1 2.7-.6.3-.3.5-.6.4-.8-.2-.3 0-1.3.4-1.3l.7 1.1c.4 1 .5 1 1.3 1 .6 0 1-.2 1.6-1 1.2-1.5 1.2-2.3 0-2.5-1-.2-2.3 0-3.3.4-.5.3-.7.3-.8 0-.1-.2-.9-.4-1.6-.5-.7 0-1.4-.2-1.5-.4-.3-.4.4-.7 1.4-.7.5 0 1-.2 1.4-.5.6-.7 1-.7 1.1-.2.1.2.7.5 1.4.6 1.4.2 2.7-.2 3-1 0-.5.8-.7.8-.2 0 0 .4.6.9 1l.8.8-.8.4c-.9.5-1.1 1.5-.5 1.9.5.3 2.6.1 3.2-.3.5-.3.7-.3 1.2.2l.5.6.1-2.5-.1-4.7-2.3-.3c-2-.2-2.3-.2-2.7.3-.3.2-.5.7-.5 1 0 .3-.1.5-.3.5-.1 0-.2-.3-.2-.8 0-.6-.2-.8-1-1-1-.4-3.5 0-3.8.5-.2.3-.4.3-1 0l-1.4-.3c-.9 0-3 .5-3.8.9-.3.1-.6 0-.9-.2-.3-.4-.8-.4-2.8-.3l-3.2.4c-.4.1-2.6.4-4.8.5a56.2 56.2 0 0 0-7.6 1l-2 .2a67.1 67.1 0 0 1-9.6 1.3c-.7.4-2 .1-2-.4 0-.3.2-.5 1.2-.6h-2.4c-2 0-4.3.3-5.1.4a145 145 0 0 0-18.6 1 12 12 0 0 1-3.3.1c-.6-.2-1-.1-1.8.2-1.1.6-4.8 1-5.1.6-.1-.2-.4-.1-.9.2-.9.6-5 1-5.4.4-.3-.4 0-.5 2.8-1a64 64 0 0 1 9-1.6 528.5 528.5 0 0 0 15.5-2l7-1 8.4-1a148.9 148.9 0 0 1 20.2-2.1c1.7 0 2.4 0 3-.3.5-.3 1-.3 1.4-.2 1.4.4 5-.2 5.8-1 .6-.6.4-1.8-.3-2h-3c-1.8.2-2.5.3-3 .7-.5.5-.5.5-.7.1-.1-.4-.4-.4-2.3-.2-1.8.1-2 0-2-.3s.2-.4 1.5-.4c1.6 0 2-.3 1.3-1-.2-.2-.2-.3.2-.4.3-.1.7-.6 1-1 .5-.9.5-.9.7-.3.1.3.3.6.5.6 1.9.2 5.2-.2 5.7-.7.4-.4.4-.8.3-2v-2.3l.1-.8.5.6c.4.4.5 1 .5 2 0 2.1.3 2.4 2.2 2.4 1.5 0 2.7-.4 3.2-1.2.1-.2.3-.2.7 0l1.8.6 1.3.1-1.4.4c-1.6.5-2 1-1.7 2 .2.5.2 1.1.1 1.4-.2.8.2 1 2 .8 2.3-.3 2.8-.8 2.8-2.6 0-1-.1-1.6-.4-1.8-.3-.1-.3-.3 0-.6.2-.2.4-.9.5-1.5l.2-1.2.5 1.2c.5 1 .5 1 1.7 1 1.4 0 1.4.7 0 .9-1.3.2-1.5.5-1.5 2.1 0 1.7.4 2 2.3 1.5 1.4-.3 2.7-.1 2.7.4s-1 1-2.7 1.1c-1.8.3-2.5.8-2.2 1.9.2 1 1.9 1 3.7-.2l1.4-.8.2-2.4c.1-2 0-2.4-.3-2.8-.5-.6-.5-1.2.1-1.8.5-.4.6-.8.6-4 0-3.7-.1-4-1.2-3.1-.3.3-.4.7-.4 2.4 0 3.2-.3 4.6-.8 4.6-.4 0-.5-.3-.3-3.2.1-3.5.2-3.4-1.8-2.8-1 .2-1.6 1-1.6 2 0 .1-.1.3-.3.3-.1 0-.2-.2-.2-.5 0-.2-.2-.7-.5-1-.3-.5-.6-.6-2-.5-1.7 0-2.5.4-3 1.2 0 .3-.1.3-.3 0-.4-1-.9-1-3.3-1-2.6.2-2.9.3-2.9.9 0 .2-.1.4-.3.4-.3 0-.4-.1-.4-.2 0-.2-.3-.5-.6-.9-.6-.7-.6-1.1-.1-1.6a41 41 0 0 0 0-8c-.3-1-3.9-.8-5.7.3-.6.3-1 .4-1.4.1H128l-2.9.5-3.4.5a74.1 74.1 0 0 1-8.8 1 66.8 66.8 0 0 1-8.7.8c-.8 0-1.4 0-1.5-.2-.3-.4 0-.4 3-.8a71.8 71.8 0 0 0 6.3-.8 360.4 360.4 0 0 0 9.4-1.2c6.3-.6 7.3-.8 7.9-1.4.5-.5.6-.5 1.4-.1 1.2.5 4.5 0 5-.6s.4-3-.2-3.3c-.4-.3-4.5-.2-5 .2-.4.2-1 .1-1.7-.1-1.3-.5-2.1-.4-8.8.8a82.3 82.3 0 0 1-15.7 1.6l-4.5.2c-3 .2-4.3.3-9 1-2.6.4-10.8.6-11.1.3-.6-.6.8-.9 3.5-.8 1.4.1 3.7 0 5.1-.2 5.8-.8 6.8-.9 10.9-1a38.1 38.1 0 0 0 6.8-.7 374 374 0 0 0 8.4-.8c.4 0 2.1-.1 8.6-1 4.5-.7 5.7-.9 6-1.2.2-.3.2-1 .2-2.2v-2.2c.3-.5.8 1 .8 2.6 0 2 .3 2.1 3.1 2 2.8 0 2.8 0 2.4-4.2a86.7 86.7 0 0 1-.2-9.1c0 1.3 0 2 .3 2.1.3.2.3 1.1.3 3.6 0 1.8.1 3.3.2 3.3s.3.7.4 1.6c.1 1 .3 1.8.5 2 .3.4 3.8.5 5.2 0 1-.3 1.1-.3 1.2-1.5 0-1 .6-1 .6 0 0 .6.2.8.9.9 1.1.2 3.4.2 3.8 0 .2-.2.5-1 .6-1.8.2-1.4.2-1.5.3-.5 0 1.4.8 2.2 2.3 2.2.5 0 1.2-.2 1.5-.4.5-.4.6-.6.7-4.2 0-3 .3-2.1.8 2.5.2 2.6.2 3.2 0 3.9-.4.6-.4 1.7-.2 6.4.1 3.3.3 5.8.5 6 .4.5 1.3.4 1.5-.3.5-1.2 1.4-9.2 1.5-13.2a40 40 0 0 0 .6-17c0-4 .1-5.4.3-5.4.2 0 .3.2.3.5l.2.6c.2 0 .3.2.3.6 0 .5 0 .5.2 0l.3-1c.5-1.2.8-2.3 1.2-4A39.5 39.5 0 0 1 166 186c1-1.4.9-2.7 0-3.9-.5-.4-1-1.3-1-1.9-.2-.7-.6-1.3-1.6-2.2-1.3-1.3-1.3-1.4-1.3-2.7v-1.4l-1.6-1c-1.8-1-3.3-2.9-3.3-3.9 0-.5-.7-1.4-2.2-3a13.4 13.4 0 0 1-2.2-3l-.3-1.2c0-.3-.8-.8-1.5-1.2-2.6-1.3-3.3-2.2-3.4-3.8 0-.9-.1-1.2-1.2-2-2.7-2.2-3-2.9-2.2-5.6.7-2.8 1.5-3 4.9-1l1.5 1 .4-.5c.5-.8 1.4-.8 2.4 0 1 .9 1.8 1.2 2.6 1.2.6 0 1.1.4 2 1.4a9 9 0 0 0 1.6 1.3l.3-.8c.1-.7.3-.8.9-.8.6 0 1.1.4 2.6 2l2.3 3c.6 1.1 1.4 1.6 2.9 1.6 1.4 0 1.3-.1 4 4 1.1 2 1.3 2 2.2 2h1l-.1-1.2v-1.9c0-.6 0-.6.3.1l.2 2a15.7 15.7 0 0 0 1.6 7.2l.4.7c.3.3.4.3.4-.3 0-.3.2-.8.4-1 .7-.6 1.2 0 1.7 2a9 9 0 0 0 1.6 4c.5.7.8 1.5.8 2 0 .9.3 1 1.9.5 1.6-.4 1.8-.8 1.8-3.4 0-2.6.5-3.4.6-1l.1 3.6c.1.4 3.6.4 4 0 .2-.3.4-1.5.5-2.7 0-1.3.3-2.3.4-2.3l.3 2c.3 2.6.4 2.8 1.2 2.8 1 0 1.2-.5 1.2-3.4l.1-2.5c0-.3.2-.5.3-.5.2 0 .3 1.1.3 2.8 0 1.5 0 3 .2 3.1.2.6 1.2.6 1.6 0 .4-.4 1-7.1 1.4-13.7a125 125 0 0 0 .8-18.4c-.2-14.2-.2-14.2 0-14.4l.3-.1a539.2 539.2 0 0 1 .4 28.1c-.1 5.1-.2 6.3-.6 7-.5 1-.8 4.8-.8 9.7 0 1.7.5 2 2.4 1.8 1.9-.2 2-.5 2-3s.1-3 .7-2.6c.3.3.4.7.2 2-.2 2 .1 2.8 1.2 3.8.8.7.9.7 1.5.4.7-.3 1.4-1 3-2.8 1.1-1.2 1.3-2.2 1.3-7.5l.2-7 .2-2 .2 1.4.3 4.2c0 1.5.2 2.8.3 3 .3.5 1-.5 1-1.4 0-1 .5-2.6 1.7-5.1l1.4-3.2c.1-.6.6-1.7 1.1-2.4.8-1.2.9-1.4.8-3.4v-6.7c.1 0 .2.2.2.5 0 .4.3 1 .6 1.2.4.4.5.7.4 1.5 0 1.3.4 1.6.8.5.4-1 2.9-3.5 5-4.8 1.1-.8 1.8-1 2.6-1 2 0 3.5-1.4 5.7-5.3.4-.7 1-1.4 1.5-1.6 1.3-.7 2.6-2.7 2.9-4.5.2-1.3-.3-1.6-1.6-1-1.1.4-8.8 8-10.2 10.1-1.1 1.8-2 2.2-2.3 1.2-.1-.4.3-1.2 1.7-3a33.8 33.8 0 0 1 5.3-5.8c1-1 2-2 2.2-2 .7-.5.4-1-.8-1.3-1.2-.4-1.6-.3-3 1l-2.5 1.8-3.4 2.7c-1.9 1.6-2.6 1.8-2.7.9-.1-.6.9-1.5 3.7-3.7l2-1.5.7-.5h-2c-1 0-2.8.1-3.7.3-1.4.2-2 .1-2.4-.1-.4-.3-.5-.3-.8 0-.8.8-1 .4-1-2.3 0-1.7 0-2.4.3-2.1l.2 1.6c0 1.5.4 1.9 1.3 1.4 1-.5 3.6-.9 7.8-1 4.2-.2 4.7-.5 3-1.4a12 12 0 0 1-4.4-3.8 7.1 7.1 0 0 0-1.4-1.7c-.6-.2-2.2-2.8-2.5-4.2a5 5 0 0 0-.8-1.8 9 9 0 0 1-1.1-1.8 33 33 0 0 0-.9-1.6 9.3 9.3 0 0 1-1.4-3.4c-.2-2-1-3-2.4-3.7-1.8-.9-2.4-1.9-2.6-4.4-.2-1.8-.3-2.2-1-3.1a5.5 5.5 0 0 1-1.2-4.5c.2-.8.1-1.2-.3-1.8-.6-.8-.6-.8-.2-3.1a437.3 437.3 0 0 0 1.2-5.4c.3-.7.3-1-1-3.6a24 24 0 0 1-2.5-7.6c-.7-3.6-.7-6.6-.1-7.2.7-.7 4.6-.6 7.6.1l3.4 1.1c.5.3 1.2.5 1.5.5.4 0 1.5.5 2.4 1 2.7 1.4 3.8 1.2 7.1-1.8 1-.9 2.5-1.9 3.3-2.3 1.4-.6 1.5-.6 2.3-.2l1.6.4c.7 0 .8-.1 1.3-1.5 1-3 4.6-4.6 6.6-2.7l.8.5c.2 0 .3-1.4.3-3.3 0-2.4.2-3.5.5-4l.7-2.2c.4-2 2-4.2 3.8-5.3 1.3-.8 1.7-.9 3.2-.9.8 0 2 .3 2.7.5l1.9.4c1.5 0 3 .8 4.8 2.5a44 44 0 0 0 5.5 4.9c1 .5 3.5 2.5 3.5 2.7 0 .1.5.5 1.3.8 1 .4 1.3.7 1.7 1.6.4 1 1.7 2.8 4.2 5.6.4.5 1 1 1.3 1 .6 0 4.5 3.8 5 5a16 16 0 0 0 2 2.5c1.6 1.7 2.4 2.9 3 4.6.2.7.5 1.1 1.1 1.4 1.8.8 3.2 3.7 3.1 6.2 0 1.3 0 1.4 1.3 2.6.7.8 1.6 2 2 3 1 1.5 1 1.6 2.1 1.8a13 13 0 0 1 5.3 3.2c.5.4 1.1 1 1.4 1 .6.4 3.2 1.3 5.2 1.9.9.2 2 .7 2.6 1 .6.4 1.4.8 1.8.8.8.1 1.7 1 2.7 2.4l3.5 3.3a36.4 36.4 0 0 1 12.7 16.6c.3 1.1 1 1.4 3.3 1.4 1 0 2.5.2 3.5.4l3.9.8c2 .3 2.4.5 4.9 2.1a778.7 778.7 0 0 0 6.8 4.5c1.7 1.3 1.7 1.4 1.8-7.5a50.9 50.9 0 0 1 .5-9.2c.3-.3.3.9.3 8.3l.2 9.6a4 4 0 0 0 1 1.7 98.6 98.6 0 0 1 7.8 9c0 .3 1.4 2.4 5.5 8.7a77 77 0 0 1 2.7 4.3l1.4 3c2 4 4.2 10.5 5.7 16.3l2.5 9.9a112 112 0 0 1 1.7 15.2c.1 4.2.5 6.2 1.3 6.7.6.4.9.4 3.6-.3l3.7-.7c.3 0 1.2-.3 2-.7l1.3-.7v-3c0-1.7.2-3 .4-3 .1 0 .2-.7.2-1.5s0-1.4-.2-1.4-.3-.6-.3-1.3c0-1 .1-1.4.4-1.4.2 0 .4.3.4.5a716.3 716.3 0 0 1 .4 10c.3 2-1.2 3.3-3.6 3.3l-1 .2c-.3.4-3.4 1.2-5.2 1.4-2.9.3-2.7 0-2.7 6.4a61.3 61.3 0 0 1-.5 10.2c0 3.4 0 4.6.4 6.7l.7 4.2c0 1 .3 1.8.5 2 1 1 8 1 11.2 0 1.7-.5 5.3-.9 8.8-1 1.4-.1 3-.3 3.7-.6l2-.4c1 0 2-.4 2.3-.9.3-.5 0-2.4-1.3-6.6-.8-3-.9-3.3-.3-3.3.4 0 1 1.2 1 2.1 0 .4.1.8.3.8.4 0 .3-1.8-.2-2.8-.5-1.1-.3-2.1.6-2.6.7-.4.8-.5.8-2.2a29.2 29.2 0 0 1 .9-6.8c0-.8-6.1-1.1-10-.5l-7.4 1c-1.4.2-1.7.1-1.7-.2 0-.5.6-.7 2.8-1l9.3-1.3c.8-.2 3.4-.2 5.8-.2h4.1l.8.8.8.8v-1c0-2.5 1-2 1.3.7l.6 3 .5 2c0 .3.4 1 .9 1.4l1 1.1c0 .2.4.8 1 1.3 1.1.9 1.4 1.4 2.2 3.7a1986.3 1986.3 0 0 0 2.7 7c.6.6.7.6 2.1.3l3.3-.6c5.5-.8 5.4-.8 5.4-1.7 0-.4 0-1 .3-1.5.2-.4.4-1 .3-1.2a37 37 0 0 1-.2-7.8c.5-.4 1 .6 1.1 2l.3 3.6.3 2.2h4.3c2.3.1 6.1 0 8.4-.1 3.2-.2 4.7-.2 6.1 0 3.2.6 4.2.6 8.2.2a31 31 0 0 1 5.7-.3c2 .2 2.2.3 2 .8-.5.7-1.5.9-4 .7-2.2 0-3 0-3.8.3-.6.3-2.4.6-4 .7a17.7 17.7 0 0 0-5.1 1 49.6 49.6 0 0 1-17.6 2.8 29.6 29.6 0 0 0-6.1.7 17 17 0 0 0-5.2 1.4c-.3.2-.4.7-.2 2 .2 2.3.3 2.7.8 2.7 1-.1 1 0 1 1.9 0 1.5.1 1.9.6 2.3.8.8.7 1.5-.5 3.7l-1 2.3.4 1.2c.6.9.6.8-1.3 2.1-.5.4-.5.5-.2 1 .2.2.4.6.3.8 0 .3.2.6.4.8.6.6.5 1.1-.6 2.2-2 2-2.7 3-2.7 4 0 .7-.2 1-1.3 1.8-1 .7-1.1.9-.7 1.2.8.6.5 1.5-1.2 2.7a8 8 0 0 0-1.7 1.5c-.2.5-2 1.7-3.4 2.2-1.4.5-2.3 1.3-2.3 2.2 0 .6-.3.8-3 2-1.6.7-3.5 1.6-4 2-1 .6-1.2.9-1.2 1.7 0 1-.3 1.2-2.9 1.7-1 .1-2.9.8-5 1.8-2.9 1.4-3.4 1.7-3.4 2.3-.1.7-.4.8-3.1 1a12 12 0 0 0-4.4 1c-1.7.8-3.2 1.2-5 1.4l-2.6.4-.6 1a17 17 0 0 1-7.1 5.5l-3.2 1.6c-5.4 3-8.1 3.8-18.1 5.3l-4.5.7c-.9.1-2 .4-2.4.6a27 27 0 0 1-5 2.2c-3.4 1.1-4.7 1.7-6 2.7-.6.6-1.4 1-1.7 1-.6 0-2.4.8-6.2 2.6-1.6.8-2.1 1-3 .8l-2.8.1-3.4.5-3.1.8a42 42 0 0 1-13.5 3c-4.2.2-5.8.5-8.1 1.9-.7.3-1.9.7-2.8.8-3 .3-6.6 1.2-8.4 2-2 1-2.1 1.2-2.6 5a22.6 22.6 0 0 1-1 5.3 45.7 45.7 0 0 1-5.3 13c-2 3-3.9 4.5-6.4 5.3-.6.2-1.4.5-1.8.8-4.3 2.8-5.5 3.4-6.7 3.4-.3 0-1.5.5-2.7 1l-2.5 1.1-1 .4c-.6.5-2.4 1-3.8 1.3l-2.7.9c-1.5.6-2.5.8-7.3 1.3-1 0-2.2.3-2.8.5-.8.3-2 .4-4.4.3h-3.3l-.3.7c-.2.4-.6.7-.8.7l-1.8.2h-1.3l.7-.5zm11.3-3c1-.2 2.8-.5 4-.5 2.6-.2 4.2-.4 4.9-.7l1.2-.5 2.6-.7c2.2-.5 2.4-.6 6.5-2.4a215 215 0 0 0 6.3-2.7c.3 0 1.5-1 3-2.4.7-.6 1.6-1.3 2.2-1.5.8-.4 1-.6 1.3-1.6.2-.6.3-2 .3-3 0-1.9.4-3.5 1.3-4.7a8 8 0 0 0 .8-1.8l1-2.1c1-1.4 2-4.8 2.5-7.6l.5-3.2.4-2.5c.1-1 .3-1.7.4-1.7l.2-3.6c0-2 .2-3.8.3-4 .3-.7.4-4.5 0-4.7-.1 0-.7.3-1.4.9-1.1 1-3.2 2-6 3l-1.7.8a127 127 0 0 1-4.5 25.9c-.9 4.3-1.3 5.8-1.8 6.7-.8 1.2-1 .4-.3-1.6l.9-3.1c.2-.9.4-1.8.6-2 .1-.1.2-.4 0-.5-.1-.3.4-2.9 1-4.9.7-2.1 1.3-5.6 1.8-10.5l.6-4.5c.2-1 .2-2.4.2-3.2 0-1.2-.2-1.4-.7-1.5-.4 0-1 .1-1.3.4a6 6 0 0 1-1.5.6l-2.8 1c-1.9.6-3 .6-3 0l.4-.7c.4-.3 2.5-1 4.4-1.6l2.5-1.1c1.4-.9 3.4-1.7 5.3-2.3 1.4-.4 2.6-.9 5.5-2.3 1.9-1 2.6-1.1 3-.6.3.2.4.2.4-.2 0-.9 1.2-2.1 2.3-2.6 1-.3 1-.6 1.7-2.2.6-1.8.6-2 .6-11.2a451.6 451.6 0 0 0-1.1-34.1c-.4-2.8-.3-5.2.2-5.2.3 0 .4.7.6 4.2.1 2.4.3 4.8.5 5.4l.2 4.5c0 2.3.1 3.2.3 3 .5-.9.7-6.5.6-14.4-.1-8-.1-8.4-.4-10.5-.4-2.8-.4-5.8 0-6 .4-.5 1.1.5 1.1 1.6 0 .4 0 .7.2.6.3-.3.6-2.9.3-3.5l-.3-2.7c-.2-3.7-1-4-1-.3 0 1.6 0 2-.4 2.2l-.5-.1c-.5-.9-.8-7.3-.6-17 0-2.5-.5-6.4-.8-6.2a9 9 0 0 0-.1 2.7c0 2 0 2.6-.3 3.3a27.3 27.3 0 0 0-.2 9c.2.6.3 1.7.3 2.5l.1 3.5c.2 2.1.2 2.2-.3 2.2-.7 0-.9-.5-.9-1.7 0-.8 0-1-.5-1-1.5 0-2.2 2.4-1 3.6 1.3 1.2.6 2-3.8 4.2a34.1 34.1 0 0 0-4.6 2.6c-.2 0-.4.1-2.8 1.8l-1.6.8-2 .8a41.6 41.6 0 0 1-13.1 3.2c-1.8.3-3 .2-2.4-.3l4.3-.9c2.7-.5 4.5-.9 5.3-1.3.7-.4 2-.8 2.9-1 1-.1 2.1-.6 2.8-1l1.6-.8c.5 0 .4-.7 0-.9-.4-.1-.4-.3-.3-.9.2-.9.2-6 0-10.9-.3-3-.4-3.8-1-5.2-.5-1-.8-2.3-1-4l-.5-4.2c-.2-1-.2-2.2-.1-2.7.1-1 .1-1 .4-.3.2.4.4 1.4.5 2.4.4 3.5 1 6.2 1.9 7.8.6 1.2.8 1.7.7 2.6a180.6 180.6 0 0 0 .3 15.2c-.2.3-.2.6-.1.6.3 0 1.4-.7 1.4-.9l1.1-.7c.7-.4 1.7-1 2.4-1.6.6-.6 2-1.4 3.1-1.9 3.2-1.3 3-.7 3-7.6a176.3 176.3 0 0 1 0-11.7c-.2 0-.4-.4-.5-1 0-.6-.3-1-.4-1-.1 0-.2.8 0 2.1a14 14 0 0 1 0 3c-.4 1.1-1 .3-1.2-1.6 0-.9-.2-1.7-.2-1.7l-.2-3c-.1-1.5-.5-4-.8-5.8-.3-1.6-.6-4.4-.6-6.1 0-3.3-.2-3.7-1.5-4.3l-.7-.4v1.4c0 .8 0 2 .2 2.8.4 2.3.5 5 .2 6.4-.2 1.3-.3 1.3-.5.7-.2-.3-.3-1.4-.4-2.3-.3-5.7-.4-6.3-1.3-7.1-.5-.4-.9-1-.9-1.3 0-.3-.2-.7-.4-1a32 32 0 0 1-1.2-2.2l-1.1-1.7c-.2 0-.6 0-1 .3-.3.3-1 .7-1.6.8-1 .3-1 .4-1.4 1.5-.3 1.3-.6 1.5-.8.6-.4-1-2.5-1-2.5.2a34.7 34.7 0 0 1 1.5 8.6c.6 5.6 1 10 1.5 13.3.5 4.1.5 6.2 0 6.2-.2 0-.4-.1-.5-.4l-.8-7.1-.4-3c-.6-3.2-1.4-8.6-1.7-12.3-.4-3.4-.8-5-1.4-5.2-1-.1-1.1.4-.9 4.6l.5 5.7c.2 1 .4 4 .5 6.6l.5 6.2-.1 2.1a3 3 0 0 0 .1 1.8c.3.8.3 1.3 0 2.6l-.3 1.7-.3-2.2-.3-3.7-.6-9-.5-7.8c.2-.7-.4-3.7-1.1-5.3l-.8-2.3c0-.3-.2-.7-.4-1-.4-.3-.4-.2-.3 1.2a63.2 63.2 0 0 1 1.4 12.3c0 1.5.2 3.4.4 4.2.3 2 0 8-.4 8s-.5-1.4-1-9.8c-.1-2.9-.3-6-.5-7.2-.2-1-.3-3.4-.4-5.1-.2-3.6-.3-4-2-3.6a128.5 128.5 0 0 1-11 1.7c-7.4 1.2-15.1 1.6-28.1 1.6-10.3 0-15-.2-16.4-.8-1.7-.7 0-1.2 2.2-.6a373.6 373.6 0 0 0 30.6-.3c2.7 0 3.7-.1 4.2-.5.5-.3 1.5-.4 3.7-.5a59.8 59.8 0 0 0 15-2.7c1.8-.1 2.4.1 2.8 1.2.1.3.2.4.2.1 0-.2.4-.7 1-1 .7-.6 1.2-.7 3.1-.7 2.1 0 2.3 0 2.9-.7a3 3 0 0 1 1.4-1c1-.1 1-.3.6-2s-2-3-3.6-3c-.6 0-1.5.1-2 .4l-2.3.6c-.7 0-2.2.5-3.4.8-1.6.4-2.6.5-3.4.4-.6-.1-1.8 0-2.7.1-2.3.4-9.6 1.1-12.8 1.2-2.2.1-2.8 0-3.1-.3-.2-.2-.3-.5-.2-.7.3-.9-.4-1-4.2-.7a176.3 176.3 0 0 1-9 .5c-4 .4-13.5.2-18-.4-2.6-.3-3.6-.3-6 0-2 .2-3.2.2-5-.1-1.4-.2-3.7-.3-5.2-.3-1.6 0-4-.2-5.5-.4l-5.6-.6c-2.5-.2-3.1-.4-4.9-1.2-1.1-.6-2.2-1-2.4-.9l-.8 1.1-.5 1 .8.7 1 .6 1.5.5c.6.3 2 .7 3.1.8 1.2.1 2.3.4 2.6.5l2 .5 2.6.6 4.7 1a171.2 171.2 0 0 1 11.1 2l7.5 1c4.4.7 12.2 1.2 17.7 1.3 2.9 0 3.4 0 4-.5 1-.7 3.7-.8 4.2-.2.8 1 .2 1.1-5.2 1.4a120.4 120.4 0 0 1-29.9-2.1 150.7 150.7 0 0 1-17.6-3.3c-.6-.2-2.3-.5-3.8-.6-3.5-.3-4-.4-4.7-.9-.8-.4-3.9-1.3-4.1-1.1-.3.3.4 1 2.3 2.2 1.6 1 2 1 2.4.8.4-.2.6-.1 1 .3.5.5 3.7 1.7 6.4 2.3a194.6 194.6 0 0 1 7.2 1.7 139.2 139.2 0 0 0 17 3c1 .1 2.2.4 2.7.6.4.2 2 .4 3.6.4 2.8.2 4 .5 3.7 1 0 .3-1.1.3-3.2.2-4.2-.3-4.2-.3-4.4 3.5-.2 2.3-.3 3-.7 3.5l-.5.8c0 .1-.1.2-.3.2-.3 0 0-6 .3-7 .6-1.5-.3-2.2-2.5-2.2a316.1 316.1 0 0 0-11.4-1.7 155 155 0 0 0-9.2-2c-.9-.3-1-.3-1.5.2s-.5 1-.5 3.6l-.2 3.4c-.3.7-.8.5-1-.4-.2-1.3-.2-5.2.1-6 .4-1 .1-1.6-1-1.8-1.6-.2-2 .2-2 2.2 0 .8 0 1.9.2 2.3l.3.7.3-1.1c.3-1.5.8-1.6 1-.3a51.2 51.2 0 0 1-1 16c-.3.7-.4 2.2-.4 3.9 0 1.5-.1 4-.3 5.7-1 11.2-1 13.3-.4 15.2.4 1.3 1.4 2.2 1.9 1.8.4-.4.6-3 .9-10.7l.4-8.8c.2-.7.9-.7 1 0 .2.8 0 12.5-.2 15.2-.2 2 .2 4.5.8 4.7.5.2.9-1.3 1-4.5.2-2.6.6-3.5 1.2-3.1.2 0 .5 3 .7 7.3 0 1.7.4 2 2.5 2.4.8.1 1.8.4 2.2.6l2.7.7c2.3.4 3 .6 3 1 0 .3-.3.3-1.1.2a197.8 197.8 0 0 1-17.4-4.4c-1-.1-3-.7-4.6-1.3l-3.7-1.2c-1.3-.4-4.1-4-4.1-5.5l-.3-1c-.2-.3-.3-.3-.5 0-.3.5-.6 4-.4 5.3.2 1.1 1.1 2.1 2 2.1.5 0 1.8 1.2 3 2.7.3.5 1.2 1.2 2 1.6.6.3 1.5.8 1.8 1.2.4.4 1 .6 1.4.6.5 0 1.1.2 1.4.4.3.2.9.4 1.3.4l3.6.6a151.5 151.5 0 0 0 13 2.6c1 0 2 .3 2.3.5.8.4 4.5.8 5.3.6.4-.1.6-.3.6-.8 0-.3-.1-.7-.3-.7a.3.3 0 0 1 0-.5 31 31 0 0 1 6.7 0 7017 7017 0 0 0 23.8.4c1.1-.4 1.5-.4 3.7 0 2 .5 3.5.5 8.2.5 5.7 0 6.8 0 5.5.8-.8.4-16.8.4-21.7 0a74.6 74.6 0 0 0-12.6 0c0 .2 1 .3 2.2.3 1.6 0 2 .1 2.3.5.5.8-.2 1.2-2 1-1 0-1.5 0-1.5.2s1.4.4 6.5.7l4.3.4c2 .3 3 .3 3.5 0 .6-.2 1-.2 1.6.2.4.2.7.5.7.6l.7.5c1 .5 1.3 1.3 1 3-.4 2-.6 7.3-.5 13 .2 13.5-.2 22.5-1 22.4-.3 0-.3-7.3 0-11.5l.2-6.4c0-4.4 0-4.6-.6-5.2-.7-.7-.7-1.2 0-2.3.3-.6.4-1.3.3-3.9 0-5.5-.8-8.4-2-8.6-2.7-.5-4.7-.7-9.3-.8l-9.7-.6c-5.4-.5-6.4-.4-6.9 1.1-.3 1.2-.2 3.7.4 5.4.7 2 .8 3.2.4 3.2-.2 0-.6-.4-.7-.9l-.9-2c-.2-.5-.6-1.8-.7-2.8-.5-3.2-.6-3.7-1.5-4.9-.7-1-1-1.2-2-1.4-.6 0-1.6-.3-2.2-.4-.6-.2-1.6-.3-2.3-.3a9 9 0 0 1-2.4-.4c-1.6-.5-2.1-.3-1.8.5.5 1.3 0 4.6-.5 4.6-.4 0-.7 1.8-.7 3.3l.1 3.5c.2 4.5 0 14.6-.2 13.7-.2-.4-.3-1.3-.3-2 0-.6 0-2.8-.2-4.9-.2-2-.3-7-.4-11.2 0-4.2-.2-7.7-.3-7.9 0-.1-.5-.3-1-.3-.6 0-.7.1-.8 1.3l-.4 4.5c-.2 4.9-.7 3.8-.5-1.4v-4.6a10 10 0 0 0-4.4-1.3c-.8.2-1 .7-1.3 3.5a311 311 0 0 1-.4 3.5c0 1 0 1.5.2 1.8.2.2.2.5 0 1-.6 1.3-.8 1-1.2-2l-.5-2c-.2-.4-.4-1.8-.5-3.1-.2-2.8-.5-3.6-1.3-3.5-.6 0-.6.1-.5 4.7.2 7.7.2 8.9-.2 8.9-.3 0-.5-.4-.6-1.1-.3-1.5-.9-8.5-1-10.7 0-2.4 0-2.4-.4-2.4-.7 0-1 1-.7 2.2.5 2.3.8 17.4.3 19.2-.3 1.3-.8 1.4-.7.1v-2.9c-.1-1.5-.2-2-.5-2s-.4.4-.4 1.2c0 .7 0 1.3.2 1.4l.2 1.8c.1.9.2 1.7.4 1.8.6.4.7 1.5.7 8.6a70.9 70.9 0 0 0 .6 11c0 1.5 0 1.7-.7 2-.6.5-.6.5-.1 1.1l.5.6.3-.5c.3-.6 1.7-.9 2-.3l.6.2c.4 0 .4-.6-.2-3.6-.5-2.4-.6-3.7-.4-4.8l.2-1 .3 1c.2.4.6 2 .8 3.4 1.1 7 1.2 7.2 4.7 7.7 1 .1 2 .5 2.6 1 1.9 1.2 2.7 1.6 3 1.3.8-.6 1-3.3 1-9.1s0-7.4.5-7.1c.4.2.6 3.3.7 8.4l.2 6.6c.2 1.4.3 1.6 1.1 2 1 .3 3 .4 3.5 0 .3-.1.4-1 .2-4.4-.1-3 0-4.3.1-4.4.6-.4.9.5 1 4.1.2 2.1.4 4.1.6 4.5.4.9 1.3 1.3 2.6 1.3 1 0 8 1 15.4 2.1 4 .6 9.8 1.3 12.2 1.5 6.5.3 7.5.4 7.8.7.3.3.3.4-.1.8s-.8.4-2.6.2a68 68 0 0 0-5.4-.4 53.9 53.9 0 0 1-11.1-1.3 42 42 0 0 0-4.3-.7l-7.1-1a183 183 0 0 0-11.4-1.8c-5.3-.6-8-1.2-9.1-1.8-1.4-.8-4.4-1.7-5.6-1.7-1.3 0-4.2-1-5.6-2l-1.5-.7c-.1 0-.6-.4-1-1-.5-.5-1.6-1.4-2.5-1.8l-1.6-.9-.3.7c-.5 1.2-.3 2.4.5 3.7l1.5 1.5c.4 0 1.3.7 2 1.4 1 .9 1.6 1.2 2.7 1.3 1.3.2 2.5.8 3.4 1.8.3.4.7.5 1.5.4h1.2l-.9-1a4.8 4.8 0 0 0-2.4-1.5c-2-.6-2.9-1.2-2.5-1.7.3-.3.7-.2 2 .2l3.2 1.2c1.1.4 1.7.7 2 1.2.2.6.6.8 1.8 1.1.9.2 2 .3 2.7.2.8-.2 2 0 4.4.6l3.9 1c1 .2 1.5.5 1.1.9-.2.2-.6.2-1.3 0a133.4 133.4 0 0 1-12.4-1.4c-.2.3 1.8.8 3 .8l1 .3a165.4 165.4 0 0 0 20.4 3.7c1.3 0 1.4 0 1.3-.5-.2-.7.5-1.3 1.4-1.3a208 208 0 0 0 10.4.8 58 58 0 0 1 11.2 1c.4.2.3.2-.7.4h-3.1l-3.2.1c-.7.1-1 .3-.6.3.7 0 1 .7.6 1.1-.4.4-8.4.4-12 0a110.2 110.2 0 0 1-15.6-2.4l-2.9-.5a7 7 0 0 0-2.1-.1c-.7 0-1.1 0-1.5-.3-.2-.3-.7-.4-1-.4-.7 0-.8.2-.7.7 0 .6 0 .6-1 .5-1.5-.2-1.6 0-1.3 1.8a108.9 108.9 0 0 1 1.4 11.8c.2.7.6 3.8 1 9 0 1.8.4 5.2.6 7.6.5 5.6.5 5.5-.2 6.1-1 1 0 1.9 2 1.9 1.2 0 1.3.6.2.9-1.2.2-1 .8.6 1.3 2.3.7 2.8.2 2.1-2.1a11 11 0 0 1-.3-3.6c0-1.6 0-2.1-.4-2.5-.3-.4-.5-1.3-.7-3l-.7-5.7a69 69 0 0 1-1.1-9.7c-.2-3-.4-4-.8-5-.8-1.7-1-5.1-.5-7.3.4-1.5.4-1.6 1.4-1.6.8-.1 1.2.1 2.6 1 3 2.1 4.6 2.7 9.8 3.4l4.7.8c1.7.5 8.6.8 16.5.8 7 0 9.6 0 14.7-.4l9.7-.6c1.5 0 1.7 0 1.7.5 0 .7 1 .8 3.8.5 2.6-.3 6-.3 6.6-.1.5.2.5.8 0 1-.3.1-2.2.3-4.4.3a83 83 0 0 0-5.2.2c-2 .3-9.3.4-9.8.3a.5.5 0 0 1 0-1c.6-.2-2-.2-5 .1l-5 .4c-3.8.3-16 .1-19.1-.2-2.5-.2-3-.2-3.3 0a11 11 0 0 0 0 3.4c.2 3.2.2 6.2.1 9 0 1 0 4 .2 6.8.4 6.3.4 5.8.2 8v5.5c.4 4.4.7 5 2.6 5.3 2 .3 2 .2 1.9-3.9l-.1-3.5.3 1.9.4 3.1c0 .7.3 1.8.5 2.4l.8 2.1c.2 1 .3 1.2 1.1 1.4.5.2 2 .3 3.5.4 3.2 0 13.6.7 15.8 1 3.5.6 11.7.5 14.3-.1zm-36.8-18.1c0-1 0-1.6-.2-1.6s-.3-.2-.3-.4.2-.4.4-.4c.3 0 .4.4.4 2l-.1 2-.2-1.6zm19.4.3c-.3-.2-.3-.6 0-2.2.2-1 .4-2 .6-2.1v-1.3c-.2-.7-.2-1.4 0-1.6.2-.7.2-5-.1-5.6-.3-.4-.4-3-.3-6.8 0-1.3.1-1.6.4-1.6.3 0 .4.2.4.6l.4 1.6c.4.8.4 1.5.2 4.7l-.3 6c0 3.1-.4 7.5-.7 8-.1.3-.4.4-.6.3zm16.1-.2c0-.2.1-.4.3-.5l.2-1.8c0-1 .1-1.5.3-1.5.2 0 .2.2.2.4l-.2 2.1c0 1.3 0 1.7-.4 1.7a.4.4 0 0 1-.4-.4zm9.9-2 .1-1.2.6-2.2a444 444 0 0 1 1.8-9.6c.2-.7.3-1.9.3-2.6 0-.7 0-1.3.2-1.3.1 0 .2-1.4.2-3 0-3.7.5-4.6 1.8-3.6.5.4.5.5 0 2.6l-1 2.7c-.2.2-.5 2-.7 4.8a50.6 50.6 0 0 1-2.8 13.4c-.3.3-.3.3-.5 0zm-45.9-3.8c0-1 .1-2 .3-2.1.1-.1.2-.4.1-.7l.1-1c.2-.3.3.3.3 2.3 0 2 0 2.8-.4 3.1-.3.4-.4.2-.4-1.6zm37-.8v-14.9c.3-.6.4-.4.5 2.2l.2 5.6a27.8 27.8 0 0 1-.6 7zm7.6-20.2c-.2 0-.4-.2-.4-.3 0-.4.6-.7 2.1-.8 1.4-.1 1.5-.2 1.6-.8 0-.4.2-1 .5-1.1.5-.5 2.1-.9 2.2-.6l.1 1c.2 1.4.2 1.8-.1 2.1-.3.3-5 .7-6 .5zm7.3-3.3-.6-.4.7-.3a57.4 57.4 0 0 0 13.2-3.1c3.2-.9 4-1.3 4.6-2.5.5-1 2-2.6 2.5-2.6s2.9-2.3 3.2-3c.2-.5.8-1.2 1.3-1.5.6-.3 1.2-1 1.6-1.8.8-1.7 2.5-3.4 3-3 .6.5.2 2-.7 3.2a25.6 25.6 0 0 1-5.5 5.3c-2.3 1.4-3.8 2.8-3.6 3.5.1.4 0 .8-.6 1.3-.8.7-1.5 1-4.3 1.7l-2.3.6c-.2.2-1 .4-1.7.5l-2.6.8a19 19 0 0 1-6 1.5 5 5 0 0 1-2.2-.2zm-30.2-.5-.6-.3.6-.2c1-.4 11.7-.7 11.7-.3 0 .2-.1.3-.3.4-.6.4-10.5.8-11.4.4zm12.7-.6c-.3-.3.5-1 1.1-1 .2 0 .7-.2 1.1-.5 1-.7 2.5-.7 2.8 0 .2.5.1.8-.2 1-.5.3-4.6.7-4.8.5zm16-4.7c0-.4.3-5 .5-5.2 0 0 .3.4.4 1 .4 1.3.1 4.5-.4 4.5l-.4-.3zm10.8-1.2c-.5-.2.1-.7 1.4-1.1a7.2 7.2 0 0 0 3.3-2.9c.5-.7.6-1.1.4-2.4-.1-.8-.2-8.5-.1-17v-16.5a99 99 0 0 0-.7-9.2c-.2-.4-.4-.5-1.2-.4l-3.3.5c-1.3.1-2.9.4-3.4.6-.6.2-1.9.6-2.8.7l-2.1.5c-.3.2-.4 1-.5 3.4-.2 4 0 20 0 22.3a57 57 0 0 1-1 16.9c-.4 0-.4-.3-.3-2.4.2-1.3.2-3.2.2-4v-10c0-3.1 0-8.6-.2-12.1-.3-6.8-.3-7.6.4-10.3.8-3.4 0-3.8-5-2.6a68 68 0 0 1-15.4 1c-.2-.2-.1-.5 0-.6.1 0 2.7-.4 5.8-.6 6.4-.5 8-.7 14.6-1.8 1.8-.2 5.3-1.2 5.3-1.4l-.7-.5c-.6-.3-1.3-.4-3.6-.2l-3 .4c-.5.3-4.6-.2-4.6-.5 0-.8 10-1.3 12.8-.7 1.3.3 1.7.3 3.4-.2a36.8 36.8 0 0 0 7.4-3c.5 0 3.8-2.2 4.4-2.9.5-.6.9-.8 1.7-.8.7 0 1.1-.1 1.7-.7.8-1 2.2-1.5 3-1.2.5.1 1.6-.8 1.6-1.4 0-.6 1-1.4 1.3-1.2.5.3.5 5.2 0 5.2-.2 0-.4-.3-.5-.8-.2-.8-.6-1-1.3-.2-.6.5-1.5.5-1.9 0-.2-.4-.5-.2-1.8 1-.8.7-2.7 2.1-4.1 3-1.5 1-2.9 2-3.2 2.4-.2.3-.9.7-1.4.8-1.2.4-1.5 1.3-1.1 3 .4 2.2.6 8.6.5 18.9-.1 12.6 0 24.8.3 25 .3.4 3-1 4.5-2.4 1.3-1.1 1.3-1.2 1.2-2.3-.2-1-.1-1.1.3-1.3 1.2-.3 1.9.6 1.4 1.8a10 10 0 0 1-3.5 3.6 25.6 25.6 0 0 1-7.7 3.7l-.8.4c-.4.4-1.2.6-1.7.5zm-65.6-5.8c-.4-.6-.5-2.8-.2-3 .3-.2.7 2 .6 2.9 0 .6-.1.6-.4.1zm-24.9-2.1a16 16 0 0 1 0-3.7 32 32 0 0 0 0-4c0-.6 0-.9.2-.9s.3 1 .3 3c0 2.2 0 3.1.4 3.5.4.6.5 1.8 0 2.2-.4.4-.6.4-.9-.1zm2.2-.2V294c.3-.4.4-.3.6.4.4.7.3 1.3-.2 1.3-.2 0-.3-.3-.4-.6zm-4.6-4.7c-.3-.7 0-4.3.3-4.6.1-.1.4 0 .6.3.3.4.4 1 .2 2.5 0 1-.2 2-.3 2.2-.2.3-.6.2-.8-.4zm113.8-1c0-.3-.2-.6-.3-.6-.3 0-.5-1.2-.3-1.6.2-.3.3-.3.3 0v.8c0 .2 0 .5.2.6.2 0 .3.4.2.8 0 .6 0 .6-.1 0zm-87.4-4.1c0-1.2.3-1.6.7-.8.3.8.1 2-.3 2-.3 0-.4-.4-.4-1.2zm-26.4-2.7c0-1.2.3-1.6.6-.8.3.9.2 2-.2 2-.3 0-.4-.3-.4-1.2zm26.4.8c0-.2.1-.3.3-.3.1.1.3.3.3.5l-.3.2c-.2 0-.3-.2-.3-.4zm-29.5-7.7c0-5.8 0-7 .3-7 .2 0 .4.2.4.4.2 2-.2 13.1-.5 13.4-.1.2-.2-2.5-.2-6.8zm7.8 5.6c0-.2.2-.4.4-.4s.4.2.4.4-.2.4-.4.4a.4.4 0 0 1-.4-.4zm-4.5-.5c0-.2.2-.4.3-.4.1 0 .3.2.3.4s-.2.4-.3.4c-.1 0-.3-.2-.3-.4zm26.1-2.4c-.2-.8 0-1.3.4-1 .3.1.3 1.3 0 1.5-.1 0-.3-.2-.4-.5zm-21.6-2.2c0-1 0-1.7.1-1.6.3.2.4 3.4.2 3.4s-.3-.8-.3-1.8zM174 272v-.7c.3-.4.3-.4.5 0 .2.6-.2 1.2-.5.7zm4.3-1.5c0-.3.1-.6.3-.6.1 0 .3.3.3.6 0 .4-.2.7-.3.7-.2 0-.3-.3-.3-.7zm21.8-.8c.2-1.7.6-2.3 1-1.7.6 1 0 3.2-.7 3.2-.4 0-.4-.2-.3-1.5zm-24.5-.3c-.1-.2-.4-.3-.7-.3-.6 0-.7-.4-.8-2.7 0-1.7 0-1.9.8-2.6l1-.8c.4 0 .6.9.6 3.4 0 2-.1 2.7-.4 3-.3.2-.4.2-.5 0zm0-8.1c-.2-.5 0-1 .4-.8.3.2.3 1.2 0 1.2-.2 0-.3-.2-.4-.4zm26.7-11.8c-.9-.2-2.5-.3-3.6-.3-5.1-.2-4.8-.1-4.7-1 0-.5 0-1.2.2-1.6.2-.6.2-.6.3.2.2.9 0 .8 6 1.3a298.8 298.8 0 0 0 26.8-.3c.4.2.3 1.1 0 1.4l-4.4.2-11.5.2-9.1-.1zm-28.7-1.8c-1.8-.8-2.6-1.4-2.3-1.9.3-.5 1.4-.3 2 .4.3.4 1 .9 1.7 1.1.7.2 1.2.6 1.1.7-.1.6-.8.5-2.5-.3zm55.2 0c-.6-.5.4-2.7 1-2.3.5.2.5 1.8 0 2.2-.3.4-.8.4-1 .2zm18.8-4-.3-3.3-.3-3.7-.3-7a174 174 0 0 0-1.2-23.2l-.5-1.2c-.1-.5-.5-1.2-.8-1.4-.3-.3-.5-.8-.5-1.1 0-1.3 2.1-1.5 2.6-.3.7 1.7 1.3 10 1.5 21.7a244.8 244.8 0 0 1 .4 19c0 .4-.5.7-.6.4zm-58.6-1.2a219 219 0 0 1 1.4-19.4c.1-1.3.3-1.9.5-1.9.5 0 .5-.1 0 3.2-.3 1.5-.5 4.1-.5 5.8-.4 11.7-.5 12.7-1 12.7l-.4-.4zm40.5-5c-.2-.5-.4-2.6-.4-5 0-3-.2-4.5-.4-5-.6-1.2-.8-3.9-1-14.5-.2-6.7-.3-8.1-.7-8.7-.2-.2-2-.2-7-.2l-6.6.2 1-.6c.8-.6 1.1-.6 7-.7 5.3 0 7.6-.1 14-.7 1.1-.2 1.7-.1 1.8.1.4.6-.3.8-4.2 1.1-3 .3-3.9.4-4 .8-.2.7-.2 10.2 0 13.5.2 2.6.3 3.4.7 3.8.4.4.5.9.5 2l.1 7.2c.1 4.4.1 5.9-.2 6.6l-.3.8-.3-.7zM183 233c-.2-.6 0-3 .4-3 .3 0 .3 2.7 0 3.1-.2.3-.3.3-.4 0zm11.6-1-.3-3.8c-.1-2.6-.1-3 .3-3a37.4 37.4 0 0 1 .3 7.7l-.3-.8zm64.7-.3c0-.5.1-1 .3-1 .3 0 .3-.6 0-.7-.3-.1-.4-2-.3-5.4 0-1 0-1.5.4-1.5.5 0 .5.7.4 5.5 0 3.3-.1 4-.4 4-.3 0-.4-.2-.4-.9zm-76-6.3c0-1.2.2-2.3.3-2.5.2-.3.3.4.3 2.1 0 1.6-.1 2.6-.3 2.6-.1 0-.2-.9-.2-2.2zm17.5-.5a23.7 23.7 0 0 1 .8-8.9c0-.8.1-.6.4.8.3 1.2.4 2.5.3 4.2-.2 2.6-1 6-1.3 6 0 0-.2-.9-.2-2zm20.4-2c0-.9.4-1.1.6-.4.3.7.2 1.2-.2 1.2-.3 0-.4-.3-.4-.8zm-26.6-6.6c0-2.4.1-3.6.3-3.8.5-.5 1 0 .7.9-.2.3-.4 1.9-.5 3.4a10 10 0 0 1-.4 2.9 14 14 0 0 1-.1-3.4zm82.7 0c0-.7-.1-1.4-.3-1.6-.3-.2-.4-4.2-.1-4.5l.1.7c0 .4.1.8.3.9.2 0 .2 1.1.2 2.9 0 1.5-.1 2.2-.2 1.5zm-98.1-7.5c.1-8.2.2-9.2 1.1-9.2.4 0 .4.5.3 5-.3 8-.7 12.2-1.3 12.2-.2 0-.2-2.5-.1-8zm33.5 3.1c0-3.6 0-4.1.5-4.1.3 0 .4.4.2 3.4-.3 5.2-.6 5.6-.7.7zm-29 2.6c0-.6 0-1 .2-.8v1c-.2.9-.2.9-.3-.2zm18-1c0-.8 0-1.5.2-1.5.3 0 .3 1.4 0 2.4-.2.5-.2.3-.3-.9zm19.5-1 .1-2.6c.2 0 .7 3.8.6 4.4-.4 1.4-.7.5-.7-1.9zm47-.7-.2-1.3c0-1.4.6-1.5.8-.1 0 .9-.3 1.7-.6 1.4zm-77.3-1.8-.3-.8c0-.3.5-4.7.8-6.1.1-.3.3-.6.5-.6.3 0 .4.7.3 3.7l-.2 4c-.3.4-1 .3-1.1-.2zm77.3-4c-.3-.6-.2-1.4 0-1.4s.4.4.4 1c0 1-.2 1-.4.4zm-.4-2.9-.3-1.2a6 6 0 0 1-.2-2.1v-1.7l.5 1.5c.5 1.5.6 4.2.2 4.2-.1 0-.2-.3-.2-.7zm-61.3-8.3c-4.7-.2-8.7-.5-9-.7-.4 0-.4-.2-.1-.5.2-.3.7-.4 1.8-.3l7.3.5c5 .3 5.7.4 5.6.7 0 .5-.8.6-5.6.3zm3.6-1.9-11.7-.7c-5.6-.3-10.5-.6-10.8-.8-.5-.2-.5-.2-.2-.5s1.6-.3 6.2 0l9.3.5a73 73 0 0 1 11 1c.4.4-.4.8-1.4.8l-2.4-.3zm-3.5 163.6c0-.1-.2-.6-.6-1.1-.5-.8-.7-1-1.7-1s-1.2.2-1.3.6c-.1.6.6 1.4 1.4 1.6 1 .2 2.2.1 2.2 0zM201 355c0-.5-.3-.7-1.8-1.2-1-.4-2.5-.8-3.5-1-1-.2-2-.6-2.1-.7a11 11 0 0 0-4.7-.2c-.5.3 1.2 2 2.2 2.1a233.8 233.8 0 0 0 8.4 1.5c1 .4 1.5.2 1.5-.5zm-14.2-2.8c0-.7-.8-1.2-2.7-1.6-1.6-.3-1.2.4.7 1.4 2 1 2 1 2 .2zm14.2.1c.2-.4-.2-2.5-.7-3.1-.3-.4-.9-.6-2.4-.8-3.9-.5-7.3-1.1-8.7-1.5-1.7-.5-2.1-.4-2.1.7 0 1.8.8 2.5 3.7 3.2.8.1 1.5.4 1.7.5l2 .3c1 0 2.2.3 2.7.6 1.3.4 3.5.5 3.8.1zm-.5-7.2c0-1.1.2-2 .3-2 .2 0 .2-.9.1-2.2-.2-2.7-.2-3.5 0-4.6.2-.5.1-.9 0-.9-.4 0-.6-2.7-.9-8.9 0-3.4-.3-6-.6-7.2-.3-1.1-.4-2.4-.3-2.9.1-1-.4-1.6-1.7-1.6l-2.7-.2-1.8-.2.5 1.3c.3 1 .5 1.2.9 1 .7-.2 1 .3.8 2-.1.8 0 4.7.3 8.6.7 13.3.8 14.4.3 14.5-.3.1-.4-.2-.5-1.3-1-8.5-1.5-16-1.5-18.8 0-1.9-.1-2.4-.8-3.7-.4-.9-1-1.8-1.5-2-.4-.3-.6-.7-.6-1 0-.4-.2-.8-.4-1-.3-.3-2-.4-2.1 0-.2.3.5 12.4 1 16.6.6 4.6.5 5.3-.1 5.3-.4 0-.6-.3-.8-1.9l-.7-4a78.7 78.7 0 0 1-1.3-14.6c0-2 0-2.5-.3-2.9-.5-.4-1-.5-1.3-.1 0 .1-.3 1.3-.4 2.7l-.5 4.8c-.3 2.5 0 5 1 12a296.2 296.2 0 0 1 1.1 7.9c.1.4.4 1.6.5 2.7.2 1.3.4 2.1.7 2.4.6.6 5.2 1.6 8.6 2 1.2 0 2.4.2 2.5.3h2.2zm-21.6-.4c.3-1.2.3-1.9-1-10-.7-4.9-.8-7-1.1-18.3-.2-5.3-.4-8-.6-8.6-.2-.5-.6-.7-1.4-.8-1.7-.3-1.9 0-1.7 3.1l.6 5 .7 7c.1 2.4.4 5 .6 5.7.2.8.4 2.2.4 3.2l.4 4.3.7 4.6c.2 2 1 5.1 1.2 5.6.3.5.9.1 1.2-.8zm-6.1-1.2c0-.5-.2-.7-.6-.7-.6 0-.6.2 0 .9.5.6.6.6.6-.2zm105.2-.2.8-.9a52.5 52.5 0 0 0 7.2-22l.9-6.4a78 78 0 0 0 1.2-10.5c-.2-.1-2.2.8-2.6 1.1-.3.3-.6 4-.7 8.3a71.6 71.6 0 0 1-2.5 17.7c0 .7-1.2 2.1-1.8 2.2-.6 0-1 .6-2 2.6-.8 1.4-1.5 2.8-1.5 3.2 0 .3 0 1.6-.2 2.7a9.6 9.6 0 0 0-.2 2.3c.3.4 1 .3 1.4-.3zm-102.9-1.7c0-1 0-2.7-.2-3.7l-.6-5.4-1.8-14c-.4-2.4-.7-6-.7-8 0-2.3-.2-3.6-.4-3.7-1.2-.8-1.6.5-1.4 4.5a88.2 88.2 0 0 0 .7 10 109.1 109.1 0 0 0 1.7 13.6l.8 4.3c.4 1.7 1.5 4.1 1.8 4.1l.1-1.7zm-3.8-4.4c0-1-.3-1.9-.4-2.1l-.2-1.5A56.7 56.7 0 0 1 169 309c.2-3.4 0-3.6-1.2-3.6-1 0-1.4 1-1.2 3.6.2 3.5.3 4.6 1 5.8.4 1 .4 1.3.2 4.3-.3 3.5-.1 5.5.8 8.6.3 1 .6 2.6.6 3.5 0 .9.3 2.4.6 3.4l.9 3c.4 1.8.8 1.4.6-.5zm7.7-5.7c-.3-4.7-.6-8-.9-8.7-.2-.7-.3-.7-.3.4l.3 3 .3 4.3c0 2.8 0 3 .5 3 .2 0 .2-.7.1-2zm103-3.5c.5-1 1.3-7.8 1.8-16.9l.2-2.7-.6.3c-.5.3-.6.6-.5 1.5.1 1.2-.2 5.4-.6 8.8l-.4 3.6-.3 2.8c-.6 2-.3 3.6.3 2.6zm-115.3-7.7c0-1 0-2.2-.2-2.9-.2-.6-.4-2.2-.5-3.5-.1-2.2-.2-2.4-1-3.3l-1-1 .1 2a28.8 28.8 0 0 0 .7 4.9c.8 4.5 1.3 6.1 1.6 5.8.2-.2.3-1 .3-2zm70.8-5.6c.8 0 .7-.1-.5-.2-1.3 0-1.5 0-1.2.4.2.2.4.2.5.1l1.2-.3zm77.5-3.2c2.4-.3 9.1-1.2 9.4-1.4.3-.1 5.5-.9 6.5-.9a5 5 0 0 0 2-.8c.7-.4 2-1 3-1.3 2.1-.6 3.6-1.3 6.7-3.2 2.9-1.6 3-1.9 2.7-2.6-.2-.3-.2-.8-.2-1 .3-.7 2.7-1.9 4.5-2.2 5-.9 8.1-1.2 12.5-1.2 5 0 7.9-.4 8.9-1l3-1.4a7.8 7.8 0 0 0 3.4-2c.7-.8 2-1.7 3.4-2.4 3-1.6 3.2-1.7 3-2.8-.1-.4 0-.8 0-.8.2 0 1.4-1 2.7-2.4a13.2 13.2 0 0 0 4-6.4c0-.6.4-1.5 1-2.2 1-1 1.4-3 1.4-6.4 0-3 0-3.4-.6-4.6-.4-.7-.6-1.4-.4-1.5.5-.3 0-4.8-1.1-8.5a74 74 0 0 1-.6-7.5c-.2-6-1-12.4-1.5-13.4-.2-.3-.3 0-.4 1.1-.1.9-.4 1.7-.6 2-.3.3-.4-.4-.4-4.5 0-2.7 0-5.6-.2-6.5-.2-1.3-.2-2 .2-3.6l.5-4.7.3-5.2a55 55 0 0 0-1.2-17.6l-.4-3.2c0-1.7-.3-3.6-.5-4.3a23 23 0 0 1-.6-3.8c0-1.9-.4-3.3-1.1-5.6l-1.2-4c-.4-1.7-1-3.3-1.7-4.7-.4-.7-.7-1.5-.7-1.8 0-.3-.2-1-.5-1.6a13 13 0 0 1-.8-2.3 7 7 0 0 0-.6-1.8l-1.3-2.8a122.2 122.2 0 0 0-7.6-15 22.2 22.2 0 0 0-5.2-6.3 50.4 50.4 0 0 0-11.9-9.6c-4.7-2.4-4.7-2.4-5.7-1.6-.4.2-.7.2-1.8 0-.7-.2-2.7-.4-4.4-.4-2.6 0-3 0-3 .3 0 .2.5.5.9.6l1.4.8c.4.3 1 .5 1.5.5 3.6 0 6.8 1.5 9.6 4.7l3.4 3.7c5 5.5 6.4 7.5 5.7 8-.5.3-1.4-.7-3.4-3.3-.6-.8-1.7-1.8-2.4-2.2l-2.6-2a31.1 31.1 0 0 0-6.9-5.5c-.8 0-.8.2.2 1.2 3.7 3.9 8.6 14.2 7.1 15 0 .2 0 .5.4.8.8.8 1.4 3 1.7 6 .2 2.4.6 4.2 1.9 9 .6 2 .7 4 .3 4-.4 0-.6-.4-1-2.3a62 62 0 0 0-1.7-6.3l-1-4-1.1-3.6c-.6-1.5-.7-2.7-.3-3 .2 0 0-.4-.3-.6a14 14 0 0 1-2-3.1c-1.3-2.8-3-5-4.5-6.3a59 59 0 0 1-2.4-2.2 20 20 0 0 0-2.5-2c-.6-.3-1.3-.7-1.5-1-.5-.5-1.2-.8-1.4-.6-.3.3-.2 1.3.2 2l.4 1.4c0 .6.4 1.5 3 7.3a104 104 0 0 1 5.2 12.6 37.8 37.8 0 0 1 2.9 7.4c.9 2.3 1.4 4.3 1.4 5.6 0 .6.1 1.3.4 1.5l.5 1.1c0 .4.2 1 .4 1.5l.2 1.9c0 .6 0 .8-.2.5a15.2 15.2 0 0 1-1.6-4.9c0-.7-.3-1.4-.4-1.7l-1-2.1c-.2-.9-.7-1.8-1-2.2-.4-.3-1-2.2-1.8-4.5-1.1-3.7-1.6-4.8-2.3-4.8a66.6 66.6 0 0 0-8.6-8.7c-.6 0-1.6 1-1.6 1.6l-.7 3.8-.6 3.3 1.9 3.8c1.3 2.8 1.9 4.3 2 5.5l.7 2.9c.3.6.6 1.6.7 2.2.2.6.5 1.3.8 1.7 1 1.5 1.8 3.7 1.8 4.8l.6 4c.5 2.4.9 3.3 1.8 4.8.6 1 1 2.1 1 2.4l.2.8c.5.4 1 2.3.9 3.7 0 1-.1 1.2-.2.7 0-.4-.2-.8-.3-.8-.2 0-.3-.3-.3-.7a3 3 0 0 0-.2-1.2l-.4-1.2c0-.8-1.3-2-2-2-.3 0-.5.2-.5.8-.2 1.1-1.1 1.5-1.6.6-.2-.3-.3-2.4-.4-4.8a43.9 43.9 0 0 0-1.4-9.7c-.7-3.4-1.9-6.5-2.8-7.5l-1.4-1.8c-.4-.8-.8-1.3-1-1-.2 0-.5 1.4-.8 3-1.6 7.4-3.8 12-6.9 15-.5.4-1 1.2-1.3 1.7-.5 1-3.2 2.8-4.5 3.1a5 5 0 0 0-1.4.5c-.3.2-1.3.6-2.3.8-6.3 1.3-7.7 1.5-10.2 1-1 0-1.4 0-2.3.6l-1.6 1c-.9.3-.8.5.4 1.2.5.3 1.1.8 1.3 1.2.4.6.4.8 0 1.1-.4.4-.5.4-1.2-.3l-1.6-1c-.7-.2-1-.1-1.6.3-.4.3-1.1.6-1.5.6a4 4 0 0 0-1.5.4l-.8.4.2 1.8c.3 2.9.3 3 .6 3.7.4 1.1.1 4.5-.5 6.2-.6 1.5-2 3.2-3.8 4.6-.6.5-.7.8-.6 1.5a202.7 202.7 0 0 1 2 27.5l-.4 5.3a808.1 808.1 0 0 1-.8 20.4v8.2c-.1 7.2-.1 7.3.3 7.3.8 0 1 .7.6 3a37 37 0 0 0-.3 9.4c.1 0 .3-.5.3-1 0-.7.2-1.3.3-1.5l.3-1.5c0-1.4.3-1.8 1.2-1.8.7 0 1.5.7 1.3 1.1l-1.1.7c-.8.4-1 .6-1 1.4a8 8 0 0 0 0 1.8c.2.9.2 1 .5.5.2-.3.9-.5 1.7-.6a7.8 7.8 0 0 0 4.5-2.5l.4-.6-1.3.1c-.7 0-1.5.2-1.7.3-.2 0-.4-.1-.4-.5 0-.3-.4-1-.8-1.4-.6-.8-.7-1-.2-1.2.3-.1.6 0 1.1.2 1 .6 1.3.6 1.8 0 .7-.7.3-1.3-.9-1.3-1.4-.1-1.6-.7-.5-1.3l1.4-.4c.2 0 .8-.3 1.2-.7.7-.5.9-.6 1-.2.4.7 3 0 4-1.2 1.2-1.2 1.9 0 .9 1.4-.7 1-1 1.1-1.7 1-1.4-.2-4.3 1.1-4.3 2 0 .2 0 .4-.2.4-.4 0-.4.8 0 1.2.8.8 2.2.3 3.7-1.3.8-.8 1-.6.5.4-.2.2-.2.6-.1.7.2.4 1 0 1-.4s.9-.9 2.2-1c.7-.2.8-.1 1 .3.4 1.9 3.1-1.1 4-4.5.3-1 .3-1.5 0-2.5-.5-1.2-1.7-2.2-2.3-1.8l-1 .2a7 7 0 0 0-2.3.6c-.9.4-2 .7-2.6.8-.6.1-1.5.3-2 .6l-1.8.5c-.5 0-1.7.5-2.5.9-.9.4-1.8.8-2.2.8-.5 0-.7.2-1 .6v1s0 .3-.2.3c-.1.1-.3 0-.5-.3-.3-.6-.4-1.4-1.2-11.2l-.5-5.5.7-1c.7-1 .8-1.3.8-3.7 0-3.4.2-7.5.5-7.5a188.6 188.6 0 0 1 .5 21.4c0 2.6 0 4.3.2 4.4.4.3 2-.3 2.3-.8l-.1-.5c-.2 0 .3-1.2 1-2.5l1.4-3.3c.1-.5.4-1 .6-1.3.2-.2.4-.9.5-1.6.1-.7.3-1.3.5-1.4l.2-.8c0-.6.4-1 .7-.8.2.2-.5 3.1-.8 3.5-.2.1-.5.7-.6 1.2-.2 1-.5 1.8-1.9 4.8a8 8 0 0 0-.8 2.2c.3.3 4.6-.5 5.1-1 .7-.6 3.4-1.8 3.6-1.6.2 0 3-2 4.4-3.4.3-.2.7-1 .8-1.5.2-.6.6-1.3.9-1.5.3-.2.5-.6.5-1 0-.5.8-3.6 2.1-7.7.3-1 .6-2.3.6-3 0-.9.1-1.8.4-2.2.2-.4.3-1 .3-1.4 0-1 .3-1.6.6-1.2.4.6.3 1.6-.3 3.8l-.8 3.4-.6 3c-.3.8-.5 2-.6 2.5-.1.6-.3 1.1-.5 1.3-.2.2-.4.6-.4 1 0 .3-.1.6-.3.6-.3 0-.3.7 0 .9l.8-.1c1-.6.6.4-1 2-2.2 2.4-2.6 3.7-1.5 4.9 1.3 1.2 1.6 2 1.2 3.7l-.5 1.5-.2 1c0 .5-.2 1-.3 1.2-.9.9.5 1.8 2.6 1.8.5 0 .8.1.8.4 0 .5.2.5 1.3 0 1.4-.7 3.4-2.5 3.9-3.4l.4-.8-.8.2-1.3.3c-.8.2-1.5-.5-1.1-1.2.1-.3.5-.7.9-.8.3-.1.7-.4.7-.6.1-.2.5-.5 1-.6 1.1-.3 1.8-.8 2-1.7.1-.6.5-1 1-1.3 1.5-.8 2.5-1.9 4.2-4.5 2.2-3.2 2.8-4.5 2.3-5.3-.3-.6-.2-.7.3-1l2.8-2.7c1.6-1.7 2.4-2.7 3-4l.6-1.6-.5-1c-.4-.5-.9-1.5-1.1-2-.3-.7-.8-1.3-1-1.4-1.4-.4-1.6-.6-1.5-1.1.1-.5.2-.6.4-.2.4.6.9.5 1.4-.2.4-.6.5-.7.8-.4.3.2.6.8.9 1.4.4 1 1 1.2 1.4.3l.8-1.2c.6-.9 1.8-4.7 1.9-5.6 0-.3-.2-1-.5-1.6-.4-.8-.4-1 .1-2.4.7-2.1.7-4.4 0-5-.8-.6-.2-2.6.8-2.6.7 0 1.4-1.8 1-3 0-.5-.4-1-.6-1-.5 0-.7-1-.4-2.7.6-3.4.8-9.9.3-15-.3-3.1-.3-3.5 0-3.9.7-.7.6-1.3-.1-2.3-.4-.4-1-1.6-1.5-2.5-.5-1-1.2-2.2-1.7-2.7-1.7-2-2.8-3.5-2.8-4 0-.4.8-.3 1.2.3l1.7 1.9c2.6 3 6.1 10.4 6.1 13 0 .5-.7.7-.9.1l-.1.4c0 1 .4 2 1 2.6.3.3.5.8.5 1.2 0 .5.2.7.6.7.5 0 .5 0 .3 1a35 35 0 0 0-.2 4v3.2l-.9.8c-.7.7-.8 1-.8 2a72 72 0 0 1-.3 6.7v2.9l-.1 1.9.1 2c.3 1.3.3 2.4 0 4-.3 2.5-.6 3-1.9 4.3a11.6 11.6 0 0 0-2.6 7c0 1.5-1.3 4.3-3.2 6.7-.8.9-1.4 2-1.6 2.5-.4 1.8-1.5 4-3.4 6.8a18.9 18.9 0 0 1-2.6 3.4 22 22 0 0 1-2.7 3.7l-1.3 1.7c-.5.8-1.4 1.8-2 2.5-.7.6-1.2 1.2-1.2 1.4 0 .3-3.7 3-4.8 3.5-.5.3-2 .7-3.4 1-1.9.4-2.9.8-4 1.6-1 .6-2 1.1-3.4 1.4-1 .2-2.3.7-2.9 1-.7.5-1.3.6-2.6.6h-1.8v1.1c-.1.8 0 1.3.4 1.7.5.6.5.6 1.8.2.8-.3 1.5-.7 1.6-1 .2-.2.6-.3 1.2-.3.5 0 1.4-.1 2-.3 1-.3 1.3-.6 1.7-1.4l.5-1 .6.6c.4.3.7.4 1 .3.8-.3 1.8-.3 1.8 0 0 .2-.6.7-1.3 1.1-1.2.7-1.3 1-1.3 1.7 0 1.4 1.2 5.3 2 6.1l.6.8 2.2-1.2c2.6-1.4 3-1.8 3-2.5 0-.9-1-1-2.4-.3-2.1 1-2.4.2-.3-1 1.4-.6 1.5-1 1.2-2a3 3 0 0 1-.2-1.3c0-.4.1-.4.5 0l.9 1.1c.3.5.4.5 1 .2a42 42 0 0 1 3.7-2.2c.3-.3.9-.5 1.1-.5.6 0 .1.5-2.7 2.6-2 1.5-2.3 2-1 2.5.5.2.8.2 1.5-.4 1.3-1 1.5-1 1.6-.6.2.4-2.5 2.5-4.7 3.7a90.1 90.1 0 0 1-13.2 7c-.7 0-1.5.2-1.8.4-.4.3-.3.4 1 .6 1.5.4 3.2.1 4.1-.6l1.7-.8c2-.8 2.5-1.1 3.7-1.8 1.2-.7 2.1-.9 2.4-.4.1.1 0 .4-.1.6-1 1 .5 2 1.8 1.2 1-.6 1.2-1.1.6-2-1.1-1.4-.5-2 .8-.6.6.6 1 .8 1.6.8 1.3-.1 1.5 0 1.5.3 0 .2.3.6.7.9.4.3.6.6.4.8-.1.3-.5.3-1.6 0-1.7-.3-2.6 0-3 1.1-.2.7-.3.8-1.3.8l-1.7.2c-1 .3-.6 1.3.4 1l2.3-.2zm12-9.3c0-.2.2-.4.4-.4s.8-.4 1.3-1c.9-.7 1.5-1 1.5-.5 0 .3-1.8 1.8-2 1.8-.2 0-.4 0-.4.2s-.2.3-.4.3a.4.4 0 0 1-.4-.4zm6.8-.1c-.2-.3 1.1-1.6 1.5-1.6l.6-.4c.2-.3.4-.3.4-.1 0 .2-2 2.3-2.3 2.3l-.2-.2zm-8.7-8.4v-.5c.2-.3 2.3-1.7 3.3-2.2.4-.2.8-.6.9-.9.2-.7 1.4-1.8 1.7-1.6.4.2.4.2-.7 1.4l-1.5 1.7c-1 1.5-3.3 2.7-3.7 2zm6.2-5.8c0-.2 0-.4.2-.4l.4-.4c.2-.7 3.9-4.5 3.9-4.1 0 .5-.5 1.3-1.5 2.3a867.5 867.5 0 0 0-2.6 3 .4.4 0 0 1-.4-.4zm-16.3-3 .4-.4c.2-.2.2 0 .2.2s-.1.4-.4.4c-.2 0-.3 0-.2-.2zm25.3 0 2-4.5a106.4 106.4 0 0 0 4-8.9c.2-.3.3-1 .4-1.7.2-1.3.8-2.4 1.3-2.4.3 0 2.3-3.6 2.3-4.2 0-.4 1.2-2.7 1.4-2.7.1 0 .2-.2.2-.5 0-.8.6-2.6.9-2.6l.2-.6c0-.4.2-1.3.5-2.1l1-2.4.3-.9v1c0 1.2-.9 4-1.3 4.1-.2 0-.3.4-.3.7 0 .8-.5 2-.8 2-.1 0-.2.3-.2.7l-.3 1.3a11 11 0 0 1-1.6 3.3l-.2.8-.2 1.4-1.2 2.8c-.5 1.3-1.4 3.3-2.1 4.5a17 17 0 0 0-1.3 2.5 57.7 57.7 0 0 1-4.1 8.1c-.2.5-1 .8-1 .3zm-26-2.7c0-.3.5-1.2.9-1.7l.7-1.1c.3-.5.7-.9 1-.9.3 0 .3.2-.2 1.1-.6 1.1-2.4 3.1-2.4 2.6zm21.7 0 .3-.6c1.5-2 1.5-1.9 1.7-1.4.1.3 0 .7-.6 1.3-.7 1-1.4 1.3-1.4.7zm15.4-.8c0-.5 1-2.6 1.3-2.9.3-.2.6-2 .6-4 0-1 .2-1.7.4-1.7.2-.1.3-.7.3-1.5s.2-2 .4-2.6l.7-2.4c.3-1.1.6-2.5 2-7l.9-5 .5-5.4c.4-3.2.2-11-.4-14.2-.6-3.7-.7-4.5-.4-5.2.2-.4.2-.7 0-1-.5-.4 0-1.3 1-2.5l1-1-.3 1.3c-.2 1.4-.4 2-1 2.6-.3.3-.4.5-.2.7l.4 1.3.5 3.2.6 5c.2 3.4.2 2.9 0 5.5-.2 2.1-.2 2.2.4 2.2.8 0 .7 1.1-.5 6.1a75.1 75.1 0 0 0-2.5 12.3c-1.4 6-1.4 6.2-2.4 6.2-.4 0-.5.1-.3 1.1.3 2.4 0 4.6-.7 4.8-.3.1-.5.4-.5.6 0 .8-1.1 3.8-1.5 4-.2 0-.3-.2-.3-.5zm-33.7-5c.2 0 .3-.3.3-.5 0-.3.1-.6.3-.6.1 0 .3-.2.3-.5s0-.5.2-.5c.1 0 .3-.8.4-1.8 0-1 .2-1.8.3-2 .2-.3 1 0 1 .5 0 .6-.7 2.5-1 2.5l-.1.5c0 .3-.2.6-.3.6-.2 0-.3.2-.3.5s-.1.5-.2.5c-.2 0-.3.2-.3.5 0 .4-.2.6-.5.5-.2 0-.3 0-.1-.1zm23-.5c0-.2.3-.5.5-.7.2-.3.4-.3.4-.1l-.4.7c-.3.2-.4.3-.4 0zm31.4-1v-.3c.2.3.2.6 0 .8v-.5zm-69-.1c-.1-.5.6-1.9.9-1.7l-.2 1c-.5 1-.5 1-.7.7zm38.7-1c0-.4.7-1.1 1-1.1.3 0 .3.2 0 .7-.2.6-1 .9-1 .3zm-37.5-1c0-.6.8-2.2 1.2-2.4.2 0 .4-.4.4-.7 0-.6.4-1.5.8-1.5.3 0 .3.4-.1.8l-.7 1.4c-.3 1-1.6 3-1.6 2.4zm39.2-1.4c0-.3.1-.8.3-1 .4-.3.4-.3.4 0s0 .4-.2.4-.3.3-.4.6l-.1.6v-.6zm28.4-2v-2.3l.3-2v2.1c.2 2 0 3-.3 2.3zm-27-.6c0-.2.2-.7.7-1.2.8-.8 1-.6.4.4-.5 1-1 1.3-1 .8zm-30.6-.3c0-.3.3-.7 1.4-2 .4-.4.7-.8.7-1l.6-.5c.3-.2.5-.5.5-.7 0-.2.4-.8 1-1.3 1-1 1.2-.6.3.6a510.9 510.9 0 0 0-3.3 4.2l-1 .8c0 .2-.2.1-.2 0zm9.7-.4c-.4-.5-.6-2.1-.3-3 .3-.5 1 0 1 .8 0 .2.1.5.4.6.4.2 1.3-.6 2.5-2.3.3-.6.7-1 .8-1l.2-.6.2-.5c.1 0 .4-.6.5-1.4a30.2 30.2 0 0 1 2.2-6.2c.4-.1.3.3-.5 3.1l-.7 2.4c0 .4-.3 1-.5 1.2-.2.2-.4.5-.4.8l-.2.4c-.2 0-.3.2-.4.6-.3 1.4-1.2 3-2 4-1.1 1.3-2.1 1.7-2.8 1zm-17.3-.4c.1-.4.5-.4.5-.1l-.3.3c-.2 0-.3 0-.2-.2zm-6.1-1.4.3-1 .5-2.8c.4-3.8.7-4.5 1.3-4 .5.6-1.1 7.8-1.8 7.8h-.3zm7.7-2.9.7-1.9.6-1.4c0-.2.1-.4.3-.4.1 0 .2-.2.1-.6 0-.3 0-1.2.3-2s.7-2.2.8-3c.5-2.4 1-3.9 1.6-3.9.3 0 .4.3.2 2.3-.2 2.3-.7 4.3-1 4.3l-.2.6-.2.5c-.4 0-1.2 1.6-2 4.2-.3 1-.8 2-1 2-.3.2-.3 0-.2-.7zm40.4-1.4c0-.3.1-.4.2-.2v.5c-.1.1-.2 0-.2-.3zm22.8-3c0-1.7-.1-3.3-.3-3.3-.2-.2-.6-3.8-1-8.8 0-2 .2-3.5.6-2.3.3 1.3.4 2.4.2 2.4s-.3.3-.3.7c0 .4 0 .7.2.7.5 0 .9 3.5.9 7.5 0 2.6 0 4.1.2 4.1s.3.5.3 1.2c0 .9-.1 1.2-.4 1.2-.4 0-.4-.6-.4-3.3zm-74 1.7c-.1-.5 0-1 .2-1 .3 0 .3.4 0 1.4-.2.5-.3.5-.3-.4zm22.4.5c0-.4 1.2-4 2-6.2.4-.8.8-2.1 1-3l1-3.5c.3-1.2.6-3.3.7-4.8 0-2.5.3-3.3.9-3.3.3 0 .2 2.4-.3 7.4a26.8 26.8 0 0 1-4 12.3c-.8 1.4-1.3 2-1.3 1.1zm29.4-.8c0-.3 0-.4.1-.2v.5l-.1-.3zm37.8-1c-.4-1.5-.4-2 0-2.3.4-.2.5 0 .6 1.1.2 1.8-.2 2.5-.6 1.1zm-36.8-5.4c0-.3.1-.3.2-.1v.5c-.1 0-.2-.1-.2-.4zm36.6-.7c0-.8 0-1 .1-.6v1.3l-.1-.7zm-41.7-.5c.2-2 .3-2.3.7-2.3.8 0 .4 2.1-.5 3.1-.3.3-.4.2-.2-.8zm5.6-2a15 15 0 0 1 1.2-5v.8c-.1 2.5-.4 4-.8 4.3-.3.4-.4.3-.4-.2zm-19-1.2c0-.6.1-1 .3-1l.2.8-.2 1c-.2 0-.3-.3-.3-.8zm-15.2-1.7.2-2.5.1-.9c0-.2 0-.5.3-.6.6-.2.2 5.5-.5 6 0 0-.2-.9-.1-2zm39 .9c0-.6.1-.8.2-.5v1l-.1-.5zm18.5.5c0-.3.1-.4.2-.2v.5c-.1.1-.2 0-.2-.3zm2.7-2.5c0-1.7-.1-3-.3-3-.1 0-.2-.4-.2-1 0-.5 0-.7.1-.4l.4.7c.1 0 .2 1.6.2 3.4l-.1 3.3zm-30.8 1.9v-.7c.2-.5.3-.5.4 0 .1.6-.2 1.1-.4.7zm-33.4-.6a135.6 135.6 0 0 0 .3-8.6c.1-6.2.4-9.1.7-9.1.7 0 .4 10-.3 14.9-.2 1-.2 1.7 0 1.9.1.2.1.4-.1.8-.3.3-.4.4-.6.1zm19.5-.3c-.2-.2-.3-.6-.3-.9 0-.7-.3-1-.9-1.3-.6-.2-.6-1.9 0-2.3.9-.4 1.3.6 1.5 2.9v1.9l-.3-.3zm24-.9c0-.4.1-.6.2-.3v.8l-.1-.5zm-10-.4c0-.5 0-.7.2-.5v1c-.1.2-.2 0-.2-.5zm14.7-1.5c-.2-.5.2-2.3.7-2.8.2-.2.5-.6.5-.9.1-.3.2-.3.2.3a8 8 0 0 1-1 3.5c-.2.3-.3.3-.4 0zm26.3-1.6c-.2-.3-.3-.5 0-1l.2-2.5.2-2c.1-.2.3 2.6.1 4.3-.1 1.4-.2 1.5-.5 1.2zm-70-.5c-.2-.3-.2-2.4.3-5.7.2-1.8.4-6.6.5-10.7.2-10 .5-10.3.5-.5l.2 3.2a85 85 0 0 1-.8 13.5c0 .4-.4.5-.7.2zm-18-1.4v-.4.7-.3zm35.4-.7c0-.3 0-.4.1-.2v.5c0 .1-.2 0-.1-.3zm39-.4.1-1.6.2-.6v.6c.1.4.1 1.1 0 1.6l-.1 1zm-45 .3v-.4l.5.1-.1.4h-.4zm24-2c0-1 0-2 .2-2 .1 0 .3-.3.3-.6.1-.3.2 0 .2.7s0 1.2-.2 1.2-.3.7-.4 1.4c0 1.1 0 1-.1-.6zm23.8.3c0-1 0-1.4.1-.9v1.9-1zm-77 1c0-.2 0-.4.2-.3.2 0 .3.2.3.3 0 .2-.1.3-.3.4-.1 0-.3-.1-.3-.4zm29.2-.3c-.2-.2-.2-2.2 0-2.2.4 0 .7 1.2.4 1.9 0 .3-.3.4-.4.3zm-29-1.3.4-.7c.4-.3.5-.2.4.2-.1.5-.8 1-.8.5zm28.7-1.7V233c0-2.8 0-3.3-.5-4.1-1-1.8-.5-9 .8-10.3.4-.5 1.2-.2 1.2.5 0 .3 0 .6.2.6.2.1.3.6.3 1s-.1.8-.3.8l-.2.6c0 .4.1.7.4.7l.5.2c.2.3-.5 3.8-1 5.3-.3.8-.5 2.6-.6 5.1-.2 3.7-.4 4.6-.8 3.4zm-28.1-1.7c0-.6 0-.8.1-.5v1l-.1-.5zm75.5-.6a8.3 8.3 0 0 1 0-3.4l-.1-1.2c-.2-.2-.4-2.3-.5-4.6-.3-8.2-.4-9.7-.7-9.7-.2 0-.5.3-.6.7 0 .4-.4.8-.7 1l-.8.6c-.2.3-.3-1-.2-2.3 0-.4 0-.7-.2-.7s-.3-.7-.3-1.6c0-1-.2-1.8-.3-2.1-.4-.5-.2-1.4.3-1.4.1 0 .2.8.2 1.9 0 1 .2 1.8.3 1.8.1 0 .3.4.3.8 0 1.1.4 1 1.2-.2.3-.6.7-1.1.9-1.1.1 0 .3-.3.3-.6.1-.4.2-.4.2.3 0 .4.1.8.3.9l.3 4.2c0 2.2.1 4.3.3 4.5l.2 4.7c0 2.4.2 4.4.3 4.4l.2 2.4c0 1.7 0 2.2-.4 2.2-.2 0-.4-.5-.5-1.5zm-41.5-1.6c-.1-1.6-.5-3.8-.8-5-.7-2.6-.7-3.4-.2-3.4.2 0 .4.3.5.7l.7 3.4c.6 2.4.7 3.1.5 5a6.4 6.4 0 0 1-.4 2.2l-.3-3zm-39.5 1.7c-.2-1 0-2.4.6-2.8.3-.3.3-.2.3.7 0 .5-.1 1.5-.3 2l-.4 1zm58.2-.7c-.2-1 0-3.4.3-3.5.1 0 .4.5.5 1.3.2 1 .1 1.5-.2 2.1l-.4.8zm-52.3-1c-.2-.3 0-2 .3-2 .2 0 .3-.2.4-.6v.8c0 1.5-.4 2.3-.7 1.8zm-5.3-2c-.3-.4-.2-2.4.1-2.8.6-.6.8-.3.6 1.1-.2 1.4-.4 2-.7 1.6zm57.8-1.5c0-.4 0-.5.1-.3v.6l-.1-.3zm19.6-.4c0-.4 0-.6.1-.3v.8l-.1-.5zm0-2.1c0-.4 0-.6.1-.3v.8l-.1-.5zm-71-.9c-.2-.6-.2-1.2 0-1.4l.2-.9c0-1.4.5-3.3.8-3.6.4-.3.4-.1.3 1.8a20 20 0 0 1-.7 3.7l-.5 1.6-.2-1.2zm-3.6-.2c0-.4 0-.5.1-.3v.8l-.1-.5zm62-1.4.5-2.1c.1-.8.4-1.5.6-1.6.7-.2.1 2.7-.8 3.7l-.5.6zm-62-2.3a1185.2 1185.2 0 0 1 2.3-14.4c.1 0 .3-.7.3-1.5 0-1.6.5-3.1.8-2.4.2.6 0 2.6-.3 2.6-.2 0-.3.5-.3 1 0 .6 0 1.1-.2 1.1s-.3.7-.3 1.5 0 1.5-.2 1.6l-.4 3c-.4 5.9-.8 8.7-1.4 8.7-.4 0-.4-.2-.3-1.2zm78.8.4c0-.2.2-.8.5-1.3.6-.9.6-.9.8-.4.4.8-.1 2-.8 2-.3 0-.5-.2-.5-.3zm-46-1.7c0-.6 0-.8.1-.5v1.1l-.1-.6zm-25.4-2.8c0-1.3 0-1.8.3-2 .7-.2 1 .7.3 1.3-.2.2-.4.9-.5 1.4 0 .7-.1.5-.1-.7zm-11.2 0c0-.4.1-.8.3-.8.1 0 .3-.5.3-1 0-1.7 0-2.1.3-2 0 .1.2-.6.2-1.6s0-1.7.2-1.7.3-.7.4-1.5v-1.6l.1 1.7c0 1 0 1.7-.2 1.7-.1 0-.3.8-.3 2s0 2.2-.2 2.3c-.2.1-.3.5-.3.9s-.2 1-.4 1.5l-.3.8v-.7zm2.7-1.7c0-.4 0-.6.1-.3.1.2.1.6 0 .8v-.5zm6.3.1v-1.2c.1-.6.2-.6.4-.3.2.2.2.6 0 1.3-.3.8-.3.8-.4.2zm41-.5c.1-.5.3-1 .5-1 .3 0 .3.1.3.8 0 .4-.3.9-.5 1-.2 0-.3-.2-.2-.8zm-13-4.2c0-.3.2-.8.5-1 .3-.3.4-.3.4.2 0 .3-.2.7-.4 1-.4.3-.4.3-.4-.2zm-27-.4c.1-.3.2-.4.3-.2v.5c-.2.1-.2 0-.2-.3zm59-2v-1.9c.2-.5.3-1.5.3-2.3 0-.7.2-1.4.3-1.4.3 0 .3 1.7.1 4.6-.2 2.2-.5 2.6-.7 1zm7.7-.6v-.8c.2-.5.2-.5.4 0 .1.6-.2 1.4-.4.8zm-66-.6v-.2c.2.2.1.4 0 .5v-.3zm26.9-1.4-.2-3.9a195.8 195.8 0 0 0-2-23.7c-.4-1.5-.2-2.2.6-1.8.3.2.5.8.8 2.6l.6 3.9a148.4 148.4 0 0 1 .5 22.7l-.2 2.1-.1-2zm-35.4-.2c0-.6 0-.8.1-.4v1l-.1-.6zm16.7-1.1c-.5-.4-.7-1.3-.6-4.3 0-3.3 0-4 .6-4s.7.7.7 4.5c0 3.6-.1 4.2-.7 3.8zm-16.7-.7c0-.5 0-.6.1-.4v.8l-.1-.4zm78.3-.4c0-.7 0-1 .1-.6v1.2-.6zm5.7-1.7c-.4-2.7-.2-4.1.5-3.6.4.4.4 1.2 0 3.3l-.3 1.6-.2-1.3zm-35.3 0c0-.4 0-.6.1-.4v1l-.1-.5zm-48.2-.3c0-.6 0-.8.1-.5v1-.5zm77.8-2.1c0-.6 0-.8.1-.5v1-.5zm-30.1-.8v-.6 1.3-.7zm-44.3-3c-1.2-1-1.4-1.2-1-1.6.5-.5 1.1-.4 2.2.6.7.6 1 1 .8 1.3-.2.6-1 .5-2-.3zM344 195c0-1 0-1.1.4-.8.3.3.3.7.2 1.2-.2 1.2-.6 1-.6-.4zm36.5-1c0-.6-.1-1-.2-1-.4 0-.9-3.3-.9-6 0-1.5-.1-2.7-.3-2.8l-.2-.8a51.5 51.5 0 0 1-1.2-5.2 96.8 96.8 0 0 0-7.3-21c0-.5 1.1 1 1.8 2.4l.9 1.7a56 56 0 0 1 6 19c.4 1.3.6 2.8.6 4.4 0 1.3 0 2.3.2 2.3s.3.3.3.8c0 .4.1 1.3.3 1.9a13.6 13.6 0 0 1 0 4.2zm-7-3.7c0-1 0-1.7.2-1.7 0 0 .2.7.2 1.7s0 1.7-.2 1.7l-.2-1.7zm-.4-3.9c0-.6 0-.9.1-.6v1.2-.6zm-10.2-6v-.5c.2-.2.4.1.3.5 0 .3-.1.3-.3 0zm8.2-2a16 16 0 0 1-.7-2.9c0-.4 0-1-.2-1.2l-.4-1.4c-.2-.8-.1-1 .2-1 .5 0 1 1.7 1.6 4.8l.6 3.2c0 .4 0 .7-.2.7l-1-2.2zm-12.8-2.2c0-.3-.1-.6-.3-.6 0 0-.2-.2-.2-.5l-.2-1.9c-.2-1-.1-1.4.1-1.3.5.2.9 1.7.7 3.4 0 .8 0 1.2-.1.9zm-1.1-5c0-.2.1-.4.3-.3.5.2.6.7.1.7a.4.4 0 0 1-.4-.4zm11.5-1.9c-.7-1.9-.9-3.9-.3-3.7.6.2 1.8 5.5 1.2 5.5l-.9-1.8zm-2-6.7c-1.2-4-3-7.8-5.2-11.7-1.9-3.4-2.2-4.2-2.2-5 0-.4.1-.7.3-.7.5 0 3.6 5.3 4.7 8a100 100 0 0 0 2.4 5.7l.5 1.9c.8 2.2 1 3.4.5 3.4-.2 0-.6-.7-1-1.6zm-56.2 147.8c1.2-.6 1.3-1.2.3-1.5-.6-.2-1-.1-2.1.3-.8.3-1.6.8-1.8 1l-1.2.6c-.6.1-.2.2 1.5.2 1.9 0 2.4 0 3.3-.6zm-98.6-1c.3-.1 0-.2-1.2-.1-1.3 0-1.4 0-.6.2 1.3.3 1.4.3 1.8 0zm-46.2-1.7c.6-.5.6-2.4 0-2.7-.2-.1-.6-.2-1 0-.4 0-.4.2-.3 1.1.2 1 .6 2 .8 2 0 0 .3-.1.5-.4zm118.1-.1c0-.2-.1-.2-.1.1v.4c.2-.1.2-.3.1-.5zm18.7.3c.8-.3 1-.7.3-1-.4-.1-1.4.6-1.4 1 0 .3.3.3 1.1 0zm-7.9-1.2c-.1-.7-.7-1-1.2-.7-.2.2-.2.4 0 .9.7 1.2 1.6 1.1 1.2-.2zm3.3.2c.4-.3.1-1.8-.4-2-.5-.2-1.8.4-1.9.9 0 .2.3.6.7.8.8.5 1.1.6 1.6.3zm4.7-.8c.8-.2-.2-3-1-3-.7 0-2.4.8-2.7 1.2-.3.5-.2 1.3.3 1.8.3.4.6.4 1.7.3.8 0 1.5-.2 1.7-.3zm3.3 0 1-.7c.5-.3.8-.6.8-.8 0-.6-1.4-3.6-1.7-3.6-.7 0-2.6 1.1-2.8 1.7-.3.5-.2.9.2 1.8.4.7.6 1.4.6 1.6 0 .6 1.4.6 1.9 0zm-14.6-2.2-.6-2.9c-.4-2.8-.7-3-.7-.7 0 2.8.4 4.7.8 5 .6.3.7-.1.5-1.4zm2.1-.1c0-.3-.1-.4-.3-.3-.5.1-.6.7-.1.7.2 0 .4-.2.4-.4zm3.7-.8c.1-1-.6-1.3-1.5-.8-.9.4-1.1 1.3-.5 1.5.7.3 1.9-.2 2-.7zm3.4-1c1.1-.4 1.2-.8.7-2.2-.6-1.3-1-1.5-2.6-.8-1 .4-1.2.8-.7 1.1.2.1.3.6.2 1.3-.3 1.5 0 1.6 2.4.7zm-7.6-.7-.3-1.5c-.2-1.5-.5-1.8-.5-.6 0 1.4.3 2.6.6 2.5.2 0 .3-.3.2-.4zm3.2-.7c.4-.5 0-1-.8-1s-1.3.5-1.3 1 1.7.5 2 0zm8.4-.5c1-.5 1.2-.7 1.3-1.5.1-1.2-.5-2-1.4-1.7-1.7.6-2.2.9-2.3 1.7-.2 1 .2 2.2.8 2.1.3 0 1-.2 1.6-.6zm-9-2c.3-.4.4-1.6.1-2.6-.1-.5-.3-.6-1.4-.5H293v1.3c0 .7.3 1.5.4 1.7.4.4 1.6.5 2 0zM166 292.6c-.2-.3-.4-.3-.4-.2 0 .4.7 1.1.8.8 0-.1-.1-.4-.4-.6zm137-2.6c1.2-.6 2.3-1 2.6-1 .6 0 1.7-1 1.4-1.2-.2 0-1.2 0-2.3.3l-2.6.4c-.5 0-1.1.3-1.8 1-2.2 1.9-.9 2.1 2.8.5zm-139.7-2.4c-.1-1.8-.4-2.6-1-2.4-.8.3-.4 3.5.5 4.1.5.3.5 0 .5-1.7zm2.5-1c0-1.3-.6-2.2-1.1-1.7-.3.2-.2 2.1.2 3.4l.3 1 .3-.6c.3-.5.4-1.3.3-2.1zm-.2-2.6c.3-.2.4-.7 0-3.6v-3.8c.4-.8.3-2.5-.1-3.8a82 82 0 0 1-.4-16.3c.4-.6 0-2.8-.7-5.5-1-3-1.4-2-1.4 2.4l-.2 7.6c-.2 2.2-.3 6.8-.3 10.2 0 5.6 0 6.3.4 6.7.3.4.6 1.4.8 3 .4 3.1.8 3.8 2 3zm-8.7-2.3c0-.4-.2-.6-.4-.6s-.4.2-.4.6c0 .4.2.7.4.7s.4-.3.4-.7zm4.2-2.8c-.1-.6-.1 0-.1 1.2v1.2-2.4zm241 1.5c.3-.1.6-.4.6-.6 0-.4-1.5-.5-2.1 0-.4.2-.4.2 0 .5s.7.3 1.5 0zm3.6-.7c.1-.1 0-.2-.2-.2l-.4.2c0 .2 0 .3.2.3s.3-.1.4-.3zm1.8-4.4c.6-.3 2-.6 3.2-.7 1.3-.1 2.7-.4 3.8-1a28.3 28.3 0 0 1 4-1.4l-1-.8c-.8-.6-1.4-.7-3.2-.8-1.2 0-2.4-.2-2.6-.3-.9-.2-.6-1 .7-2.1 2.2-1.7 3.8-3.4 3.5-3.5-.1 0-.6.2-1 .6-.7.5-1.2.7-2.1.7-1 0-1.4.1-1.7.5-.6.6-1.3.8-1.8.5-.2 0 0-.4.6-1.1.4-.6.7-1 .6-1.2 0 0-.6 0-1.1.3-.6.2-1.4.5-1.8.5-.6 0-.8.2-.9.7 0 .4-.4.7-1.1.9l-1.4.6c-.2.3 0 .4 1.1.4s1.4 0 1.4.5c0 .2.1.7.4 1 .2.3.3.7.3 1l.4 1c.5.7 0 1.3-1.2 1.6-1.1.2-3.8 2.2-3.3 2.4.8.3 3.1.1 4.2-.3zM154 273.8c1.2-1.1 0-1.7-3.3-1.7-2.5 0-4.7.7-4.7 1.5 0 .6.4.6 4.1.6 2.8 0 3.6 0 4-.4zm2.3-.2c0-.2-.2-.4-.4-.4-.4 0-.4 0-.1.4.4.5.5.5.5 0zm4.5-3.7c.3-.6.1-2.9-.3-3.1h-.5c-.3.2-.3.6-.2 1.6l.4 3 .2 1.7v-1.3c0-.8.2-1.6.4-2zm-12 1.7c1-.2 1.6-.4 1.6-.6 0-.3-.5-.3-2-.3l-2.3.1c-.3 0-.2.8.2 1 .5.1.7.1 2.5-.2zm7.5-1c-.2-.3-.5-.3-.9-.1l-.5.3.6.6.6.6.3-.6v-.9zm136.4-1.5c0-.3-.1-.1-.1.3s0 .6.1.5v-.8zm-148.6.2c.6-.6.7-1.6.2-2.1-.2-.2-1.1-.3-2.4-.3-2.3 0-2.8.2-2.8 1.5 0 .7.1.9.6 1l1 .2c1.5.3 2.9.2 3.4-.3zm8.9 0c1.2-.1 1.7-1.4 1-2.2-.5-.5-.7-.5-3.1-.4-3 .2-5 .6-5 1 0 .7.1 1.4.3 1.7.3.3 4.8.3 6.8 0zm270.1-.7c2-.6 2.3-1 2.4-2.3V265a10 10 0 0 0-3 1.7c-.1.2-1 .8-1.8 1.2-1 .5-1.7 1-1.7 1.1 0 .4 2.3.2 4.1-.4zm-266.8-.8c0-.7-.6-1-1.2-.6-.4.3-.4.4 0 1 .5.6 1.2.4 1.2-.4zm-3-2c.3-.4.2-.5-.3-.5-1-.2-1.8 0-1.8.4 0 .5 1.7.5 2.1 0zm7.3-.7c.4-1.5.1-14-.4-16.1-.5-1.9-.9-2-1.3-.3-.4 2.2 0 13 .7 16.3.1.7.8.8 1 0zm260.9-.6c2.6-.7 3.3-1 3.3-1.4 0-.2.4-.8.8-1.3.7-.8.8-1.1.5-1.4-.6-.7.2-1.8 1.8-2.6.7-.4 1.4-.9 1.5-1.1.2-.5-.2-.5-1 0-.8.3-2.5.6-2.7.4-.3-.5-.3-3.3 0-3.6.2-.3 0-.4-.8-.2-1 .1-1 .1-1.4-.7-.2-.7-.4-.8-1-.8-1.3 0-1.4 0-1.4-1.1a4 4 0 0 0-.2-1.5c-.4-.6-.8-.1-.8.7 0 1.4-.5 2.1-1.8 2.8-1.2.6-2.4 1.9-2.1 2.2l1.5-.7a7 7 0 0 1 1.9-.8c.7 0 .8.7.2 1.5-.7 1-.7 1.1 0 1.1.3 0 .6.3.8.5.2.4 0 .8-.8 2-.6.7-1 1.4-1 1.5 0 0 .2.5.6.8.8.8.8.8 0 1.8-.3.4-.7 1-.9 1.6-.3.8-.2.8.4.8l2.6-.5zm-254.6-4c-.2-1.3-.4 0-.3 2l.1 2.1.1-1.7v-2.3zm238.6 3c1.2-.7 2-.7 2.4-.2.4.5.6.5 1.4-.2.5-.5.6-.8.5-1.2-.2-.7-.3-.7-2.2 0-1.3.5-1.6.5-2 .2-.3-.3-.5-.2-1.1.3l-1.4 1.1-.6.5h1c.5 0 1.4-.3 2-.6zm3-3.7c1-.5 1.1-1 .2-1-.3-.1-.9.2-1.4.6-.8.8-.8.8-.3.9.3 0 1-.2 1.5-.5zM112 259a1 1 0 0 0-.7 0c-.2.1 0 .2.4.2.3 0 .5-.1.3-.2zm-3.1-1.4a45 45 0 0 1 7.6-.6l6.1-.3c4-.2 7.5-.6 8-1 .2-.1.8-.2 1.4-.1 1 .1 5.5-.5 5.8-.8.3-.3-.4-1-1-1a298.5 298.5 0 0 0-4.3.4l-.8.5c-.5.5-.6.6-1 .3-.7-.4-4.3-.4-6.7 0l-3.9.4c-1.2 0-3.7.3-5.4.5l-5.8.7c-3 .2-7.4.9-9 1.3a38 38 0 0 0 9-.3zm287.5-.4c1-.5 1.7-.5 2 .2 0 .2.3.5.5.5.3 0 1.7-1 3.1-2.3 2.9-2.6 3.9-3.3 4.2-3.1.1 0-.1.6-.5 1.1-2.4 3-1.5 3.4 1.4.7 1.8-1.8 6.2-5.5 6.8-5.9.3-.1.8-.2 1.1-.1.4 0 .7-.1 1-.5.6-.6.8-1.2 1.4-3.3 0-.4.4-.8.7-1 .4-.1.5-.5.5-1.7 0-.8.2-2 .4-2.6.4-1.2.3-2.3-.2-3-.4-.4-2.6-.4-4 0-.6.2-3.1.4-5.6.5-3 .2-5.2.4-6.5.8l-4.5.8c-3.6.4-5.2.7-6 1.1l-.7.4v4l.1 5.6c.2 1.8 1.4 7.8 1.7 8.3.2.3 2 0 3-.5zm18.3-1.2c.1-.1 0-.2 0-.2-.2 0-.4 0-.4.2s0 .3.2.3l.2-.3zm-204-.5c0-.4-6-.7-6.3-.3-.2.3 1.2.4 4.3.5 1 0 2 0 2-.2zm-61.6-.7c.6-.4.7-1.6.3-2-.3-.3-.6-.4-1.3-.2l-1.7.3c-.4 0-1 0-1.1.2-.3.2-.1.3.7.5.6.2 1.3.6 1.4.9.4.5 1.2.6 1.7.3zm52.7 0h-.5c-.2 0-.2.1.2.2.2 0 .4-.1.3-.2zm-58.7-.8c.3 0 .6-.3.6-.5 0-.5-1.9-.5-3.6 0-1.2.3-1.6.8-.7 1 .4 0 2.2-.1 3.7-.5zm-.4-1.8c1.3-.2 1.8-1.2 1.1-2-.5-.6-1.2-.6-3.5-.4-1 .2-1.4.3-1.6.9-.4.8-.4 1 .1 1.5.5.4.7.4 3.9 0zm-6.4-3.2s-.7-.1-1.6 0c-1 0-1.3 0-.8.1.6.2 2.4.1 2.4-.1zm7.4-.8c0-.4-1.2-.5-1.5-.1 0 .2-.7.3-1.5.2l-1.4.1c-.1.1.8.2 2 .2 2 0 2.4 0 2.4-.4zm288.4-3.6c0-.8-.7-.4-.8.5 0 .6 0 .7.3.4.3-.2.5-.6.5-.9zm-261.7-10c.5-2.6.6-2.8.1-3.7l-.4-1.8c0-5 .5-13.6 1-16.1.1-1 0-1.2-.3-1.2-.4 0-.5.5-1 5.6a165 165 0 0 1-2.1 18c-.3 2 0 4.4.4 5 .5.5 1.7-2.5 2.3-5.8zm-27.2 4.1c.2 0 .5-.4.7-.7.2-.6.2-.6.7.1.4.7.6.7 2 .7 2.2 0 2.7-.3 2.4-1.6-.3-.9-.2-4.2.2-6.2.2-1 .2-.8.5 1.6.7 5.8 1 6.4 2.7 5.4.6-.3 1.1-.8 1.2-1 .3-1 .3-12.3 0-12.7-.1-.2-.8-.3-1.7-.3h-1.6l-.4 1.1-.5 1.2-.1-.8c-.2-1.3-.6-1.4-2.8-1.1l-2.3.5c-.2.1-.6.1-1-.1-.5-.3-1-.3-3.2.2-3.2.6-3.6 1-3.3 2.3.2.6.5 3.3.6 6 .4 6 .4 6 3.4 5.7 1.2 0 2.3-.2 2.5-.3zm.6-4.5c-.2-2.9-.2-4.1.1-4.1a25 25 0 0 1 .2 6l-.3-2zm5.5-5.3c0-.6 0-.8.1-.4v1l-.1-.6zm14.4 5.4c0-.2-.2-.2-.2.1 0 .3 0 .5.2.4v-.5zm.8-7a78 78 0 0 1 1.3-10.2c0-1 .2-1.3.6-1.3.4 0 .5-.2.6-1.4 0-.7 0-2.2-.3-3.2-.2-1-.2-1.9-.1-2 .8-.2 1-.6 1-1.5-.1-.5 0-1.3.1-1.8.6-1.8 1-3.6 1.4-6.5.4-2.9.4-3 0-3.5-.3-.2-.9-.5-1.2-.5-.9 0-1.1 1-1.6 5.5a86.3 86.3 0 0 1-1 8.6l-.7 5.1a72.5 72.5 0 0 0-.7 16.6c.2 0 .4-1 .6-4zm-4 2c0-1.1 0-1.1-.1-.3-.1.6-.2 1.1-.1 1.3.2.7.3.3.3-1zm125.1-3.1a158.5 158.5 0 0 1-.5-8.8c-.1-.2-.3-.8-.3-1.3-.1-2-.6-5.1-.9-5.4a.5.5 0 0 0-.5 0 34.3 34.3 0 0 0 .9 12.5c.7 3.7 1 5.2 1 6 0 .3 0 .6.2.6s.3-1 .1-3.6zm172.4 1.9c4.3 0 6.5-.2 6.8-.4 1.5-1.3-3-1.7-7.3-.6a21 21 0 0 1-5 .4c-3 0-3.8.2-3.8.8a118.4 118.4 0 0 1 9.2-.2zM166.4 218c-.1-.5-.2-.2-.2.9 0 1 0 1.4.1 1V218zm-4.7-1.5v-1.7c0-.5 0-1 .2-1 .2-.2.7-2.6 1.6-7.4l.9-4.5.5-4c0-1.9 0-2.3-.3-2.4-.3 0-.6.5-1.2 2-.6 1.7-.8 2.9-1 7-.5 4.9-1.1 11-1.4 12.3-.2.4 0 .6.2.6.3 0 .5-.3.5-.9zm11.9-2.5c.3-.8.3-8.3 0-8.7-.6-.5-1.4.6-1.4 1.7l-.3 3.8c-.1 1.5-.2 3-.1 3.2.2.7 1.4.6 1.8 0zm249.2-2.4c0-.6-.1-.8-.5-.8-.6 0-1 .6-.7 1.2 0 .2.4.4.7.4.4 0 .5-.2.5-.8zm-141-3.8-.2-2.2c0-1.3-.3-1.9-.8-2.5-.7-.8-.7-.8-1-.3 0 .4 0 1 .2 1.7.3.6.5 1.6.5 2.2.2 1.6.5 2.3.9 2 .1-.2.3-.6.3-1zm-110-3.2c0-2.1 0-2.4-.5-2-.4.1-.5 1.2-.4 3.4 0 1.2 0 1.3.4 1 .3-.3.4-1 .4-2.4zm119.2 1a8.8 8.8 0 0 0 2.2-4.5c0-1.5-.9-4-1.4-4.2-.4 0-.5-.4-.5-1v-1h-2l-3-.2c-1-.2-1.1-.2-1.7.7l-1.9 2.2c-1.2 1.2-1.5 2-.9 3.2.6 1 1 1.3 2.3 1.4 1.6.2 2.3-.2 3.1-1.6.4-.8.7-1 1.2-.9 1 .1 1 1.3 0 3l-1 2.4c0 1 0 1.2.5 1.6 1 .6 2 .2 3.1-1zm-119.2-6.3v-2.2c-.3-.4-.8.7-1 2-.1 1.7 0 2.4.5 2.4.2 0 .4-.6.5-2.2zm117-7.1c.2-.1.4-.7.4-1.2 0-.7.1-.9.7-1h1.9c1 .3 1.2.3 1.7-.1.6-.7.6-1 0-1.7-.5-.4-.6-.8-.5-1.5.3-1.7.8-2.1 2.5-2.1 1.5 0 1.6 0 1.9-.7l.4-2.2c.4-4.2.4-4.5 1.5-6.1.6-1 1.2-1.6 1.5-1.6.3 0 .6-.1.7-.3.2-.4 1.9-.3 2.9.2s1 .7 1.3 3.4c.2 1.3.3 1.7.6 1.7s.4-.2.3-1c0-.6 0-1.7.2-2.6.2-1 .3-1.6.1-2-.4-.7-.3-2.4.2-3.1a67.6 67.6 0 0 0 5.2-11.4c.5-2.4.3-3.5-.5-3.9-.5-.2-.9 0-2.8 1.2-1.2.7-2.8 1.6-3.5 1.8-3.2 1-3.5 2.3-.6 2.3 1 0 1.8-.2 2-.3 0-.2.7-.3 1.4-.2 1 0 1.1.1 1.2 1 .1 1.3-.1 2-1 3-.5.4-.9 1-1 1.2 0 .9-.7 2.1-1.2 2.1-.4 0-1.2-1.2-1.2-1.9a37.2 37.2 0 0 1-6.3-6.6c0-.7-1.1-1.5-2-1.5-.4 0-.8 0-.9.2 0 .2 0 1.4.2 2.7.4 2.7.1 3.7-1 3.7-.8 0-1-.6-.7-1.4.4-1 .1-1.5-.6-1.5-.4 0-1-.3-1.3-.7-1.3-1.6-2.3-2.4-3.3-2.5-1.1-.2-1.3-.8-.6-2.2.4-.9.7-2.5 1-6 .2-2.4 0-3.2-1.3-4.2-.7-.6-1-.7-3-.7s-3.5.4-4.6 1.3a3 3 0 0 1-.9.5c-1.1.3-3 1-3 1.2a75 75 0 0 1-2.5 2.3c-2.4 2.2-3.6 3.6-4.1 5.1-.2.5-.7 1.3-1.2 1.8-1 .8-1.2 1.5-.7 1.8l.5.7c.2.4.2.6-.2.8-.9.4-1.6-.1-2-1.5-.3-1.6-1-1.8-2-.5-.8.9-1 1-2 .8-1.6-.2-2-.7-1.8-2 .5-3 1.6-4 2.3-2.2.4.8.6.9 1.3.9.7 0 1.1-.2 1.6-.8.4-.5.7-1 .7-1.3 0-.6 1.6-2.3 2.3-2.5 1.3-.4.9-2.8-.6-3.8a10 10 0 0 0-4.7-.5 6 6 0 0 0-1.6 1c-1 .7-1.2.8-3.3.7a11 11 0 0 0-3 .2l-3.4 3.1c-2.3 2.2-3 3-3 3.8-.3 1.2.2 1.8 1.3 1.6.4 0 1.1 0 1.5.2 1.5.9 2.2.5 2.8-1.6.3-1 1-1.4 1.5-1 .2.3.4.6.4.9 0 .6-1 3.8-1.3 4-.2.2-.8.3-1.3.3-1.2-.1-1.7.4-1.1 1 .2.4.2.6-.1.9-.6.5-.7.5-1.8-.1a7 7 0 0 0-2-.7l-1.1-.2v1.1c0 .8-.2 1.2-.4 1.3-.5.1-1.5-.6-1.5-1.2 0-.2-.2-.3-.4-.3-.4 0-.4.2-.3 1.6l.3 2.5c.2.7.1.9-.5 1-.4.1-1 .4-1.2.7-.8.8-1 .7-3-1.6-1-1-1.5-.7-.8.5.8 1.6.3 2.2-1.4 1.6-.7-.2-1-.2-1.8 0-1 .5-1.7 1-1.7 1.6 0 .3-.3.7-.6.8-.9.5-1 .8-.8 2 .2 1.5-.1 1.7-2 1.5h-1.4c0 .2 3.4 1.8 3.9 1.8l1.7.6c.8.4 1.2.8 1.3 1.2 0 .4.1.8.3 1 .3.4 0 .7-1.5 1.3-1.5.6-2 1.4-1.2 2.2.3.4.8.6 1.3.6 1.2 0 1.3.5.3 1.4l-1 .8 1.4-.2c1.5-.1 2-.6 2-2 0-1 1.1-3 2.7-4.5 2.8-2.9 4.2-4 5.8-4.7 2.3-1 5.7-2 6.7-2 .4 0 1.2-.2 1.7-.5.7-.4.8-.6.5-1-.5-.9.2-1.4 2-1.4 1.6 0 2.3.5 1.8 1.5-.2.4-.5.7-.8.7-.3 0-.2.1.4.5 1.1.7 1.3 1.6.6 3-.5 1-.5 1 0 1.5.3.4.6.5 1.4.4.7-.2 1.3 0 2.4.6 2.6 1.2 3.7 3 2 3-1.4 0-.8 1.2 1.7 3.7.9.9 1 1.1.7 1.5-.3.3-.6.3-1.5.2-1.4-.2-1.5.2-.3 1.3s2 1.5 2.4 1.2c.6-.4 1.4-.3 2.4.2 1.2.7 3.5 1.3 5.2 1.5.8.1 2 .5 2.8.9 1.6.7 2.2.6 2.6-.3.5-1 1-.8 1.7.3.3.6.6 1.2.6 1.5v.4l1.1.4c1 .3 2.5.2 3-.2zm-9.8-5c-.2-.4.7-1.5 1.3-1.6.4 0 .4 0 .1-.1l-1.5.1h-1.4c-.5-.3-.6-1-.2-1 .5 0 .3-.7-.3-.9-1.2-.3-.1-1.5 1.3-1.5.7 0 3.1 1.7 3.5 2.3.1.4.4.6.6.6l.7.4c.5.6-.3 1.3-1.9 1.7-1.6.4-2 .4-2.2 0zm10.4-6.3c-.3-.2-1.3-.4-2.3-.4-1.5 0-2.1-.2-3.8-1.1-2.7-1.5-3.5-2.6-3.6-5.2v-2l-4.8.2c-3.3 0-5 .2-6 .5-1.2.4-1.2.4-1.8-.3-.6-.7-1.6-4.2-1.3-4.7.2-.4 1.1-.3 1.6.2.2.2.7.4 1.1.4.5 0 1 .3 1.6.7.7.7.9.8 1.6.5.6-.2 1.1-.2 2.2 0 .8.3 1.9.3 2.4.2.6 0 1.2 0 1.8.3 1.2.5 3.6.1 5.7-.8 2-1 2.2-.9 4.7.1l1.5.6a3 3 0 0 1 2 3.4l-.2 2.5c0 .7-.1 1.5-.4 1.9-.2.3-.4 1.1-.5 1.7 0 .6-.2 1.2-.4 1.3-.5.3-.5.3-1.1 0zm-1.3-3.3c.4-.1.8-.6.9-1l.6-2.2.4-1.6-1-.8c-.8-.8-1-.9-2-.7-.6 0-1.5.3-1.9.5l-1.1.4c-.3 0-.9 0-1.5.3-1 .3-1 .3-1 1.4 0 1.8 1 1.8 1.7 0 .4-.8.6-1 1.1-1 .4 0 1 .3 1.4.6.8.9.8 2-.2 3.2l-.8.9.6.3c.6.3 1.7.2 2.8-.3zm-48.3-2c-1.4 0-2.6-.3-2.8-.5-.7-.5-.6-1.3.2-1.5.3 0 .7-.4.7-.7l.5-.6 1.8-.5 1.3-.4 1 1c1.4 1.5 1.5 3.6.2 3.4l-2.9-.2zm6.6-4.8c-.9-1-.8-1.6.2-1.6.6 0 .9.2 1.1.8.7 1.4-.2 2-1.3.8zm57-1.6c0-.5.2-.7.5-.7.5 0 .7.4.5 1-.3.9-1 .7-1-.3zm-4.8-1.4c-.8-.6-1-1-1-1.7 0-1 1-2.1 1.7-2.1 1 0 1.6 2.4 1.1 4.1-.2.8-.6.8-1.8-.3zm3 0c.2-1 1-1.2 1.2-.5 0 .3.2.6.3.8.1.2-.1.4-.7.4-.7 0-.8-.1-.7-.8zm-42.4-1.7c-1.5-.7-1.7-1.4-.8-2.8.6-1 .8-1.2 1.4-1.2 1 0 1 .3.7 1.6-.1.5 0 .7.5 1 1.1.7 1 2-.2 1.9l-1.6-.5zm17.1-.6c-.2-.4 0-.6.6-.4.2.1.3.3.3.4-.3.4-.6.4-.9 0zm2.6-1.2c-.6-.5-.6-.5-.2-.9.4-.2.5-.2.8 0 .5.4.6 1 .2 1.2-.1 0-.5 0-.8-.3zm4.8-.8.1-.7c.5-.4 1.2 0 1.2.6 0 .7-1 .8-1.3.1zm-2-.3c-.3-.3-.2-.6.2-.6.2 0 .4.2.4.4 0 .4-.3.6-.6.2zm8.9-.3c-.8-.8-.2-2.1.8-2.1.8 0 1.4 1.2 1 1.8-.3.5-1.4.7-1.8.3zM277 159c-.8-.2-1.7-2-1.6-3.4 0-.8.2-1 1-1.5 1.1-.5 1.2-.8.8-1.9-.4-1 0-2 1-2 .4 0 .8-.2 1-.5.5-.8 1.5-.7 2 .1l.2 1.3c0 .4.3 1 .8 1.3 1 .9 1 1.8 0 2.3-.7.4-.8.7-.8 1.6 0 .8-.2 1.2-.9 2-.9 1-1.6 1-3.5.7zm6-1.5c0-1 .2-1.4.8-2 1.2-1.2 2-3 2.1-5.5.3-2.8.8-3.5 1.7-2.6.8.8.1 5-1.2 7.7-1.5 2.8-2 3.6-2.7 3.6-.6 0-.7-.1-.7-1.2zm-25.1-.6c-1-2.3-.4-4.8.8-3.4.4.6 1 4 .7 4.4-.6.5-1 .2-1.5-1zm-8.5 31.7a70.8 70.8 0 0 0 13.2-2.8c0-.5-.8-.5-1.5-.1-.4.2-.6.2-1.1-.1-.7-.5-1.1-.4-2.1.4-.7.5-1.8.6-2 .2-.1-.2-.5-.1-1 0a4 4 0 0 1-1.7 0c-1.1-.2-2.8 0-3.4.4-.4.2-1.2.3-2.4.3-1.7 0-1.8 0-2.6 1-1 .9-1 .9-.4 1h1.4l3.6-.3zm-25.1-.7c-.2-.2-.7-.4-1-.4-.5 0-.6 0-.3.4.2.2.6.4 1 .4.5 0 .5 0 .3-.4zm-24.1-1 1.1-1.6c1.4-1.4 1.9-2.4 1.7-3.5-.3-1.3.3-2.1 1.7-2.5 1-.3 2-1.3 1.4-1.4A81.3 81.3 0 0 0 191 179c-1.6 0-2.6.1-3.1.4a4 4 0 0 1-2.2.2c-1.4-.1-1.5-.1-1.3.5l.2 1c0 .2.3.3.6.3 1.3 0 1.4.7 1.1 4-.2 1.6-.2 1.8.2 1.8.3 0 .5-.2.5-.6 0-1 .7-2.6 1.2-2.5.4 0 .5.4.6 1.6 0 1.2.1 1.5.6 1.7.9.4 1.2.2 1.4-.8.2-1 .7-1.3.7-.5 0 .7.5 1.4.9 1.2.5-.2.6-1.3.3-2.7-.2-.9-.1-1.4 0-2 .4-.7.4-.7.7-.3.1.3.2 1 0 2a4 4 0 0 0 .3 2.4c.4 1 .6 1 1.4 1 1 0 1-.1 1.2-3.4 0-3.1.6-3 .8.2 0 1.4.3 2.7.5 2.9.6.8 2.2.5 2.6-.5zm-9.3-3.2c0-.4.1-.7.3-.6l.3.6c0 .2-.2.4-.3.5-.2 0-.3-.1-.3-.5zm18.8 4c.7-.2.4-.2-2.6-.3-2.1 0-2.6 0-2.1.4.4.3 3.8.3 4.7 0zm91.8-1c1.2-.6 3-2.7 3-3.5 0-.5-.6-.6-1.4-.2-.3.2-1 .3-1.5.4-1.5.1-2 .4-2 1 0 1.4.2 2.8.6 2.8.2 0 .8-.2 1.3-.5zm8.8-.6 4-1c2.2-.3 6.8-2.4 6.8-3.1 0-.3.4-.8.8-1.3 1.1-1 3.8-4.6 4.5-5.8 1.5-3 2.7-7.8 2.7-11.3.1-2.6.6-6.5 1.5-11.8 1.1-6.3 1.5-21.6.7-26.1-.2-.7-.1-.9.2-.9 1 0 1.5 1.8 2 7.5a48.4 48.4 0 0 1 .3 5.7c.1 0 .3-.3.3-.8 0-.4 0-1 .2-1.2 1.4-2.8 1-10.7-1-17a34.8 34.8 0 0 0-10-12.6 159 159 0 0 1-4.2-3.8c-3-2.7-3.7-3.2-4.8-3.4-.5 0-1.5-.3-2.1-.6-1.8-.8-2-.6-.8.6.7.5 1.2 1.3 1.3 1.6 0 .4.8 1 2.7 2 3.3 1.6 5.2 3.4 6.1 5.5.9 2 1.6 5.5 1.2 6.2-.5.8-.8.3-1.4-2.3l-1-2.9a8 8 0 0 0-3.8-3c-2.2-.8-5.5-1.2-6.3-.8-1.2.6-1.8 1.4-1.8 2.3 0 .9 0 .9 1 .7 2.6-.6 4.4 0 5.5 1.9.5.9.9 1.1 2 1.4 1.6.5 2 1 3.8 4.3 1.7 3 2 4.5 2 8.7 0 3.8-.2 4.5-.8 3.9-.2-.3-.2-.8 0-1.7v-2.2c-.2-.5-.3-1.3-.3-1.8 0-1.3-1.1-4.5-2.3-6.5-1.7-2.9-1.6-2.8-3.5-3-.9 0-2-.3-2.3-.5-.7-.5-2.6-.6-3-.2-.2.2 0 .6.7 1.5 1.3 1.7 1.5 3 1.5 7.2 0 3-.1 4.3-.7 7a47622.1 47622.1 0 0 0-2.1 9.8c-.4.6-1.3 4.8-1.6 7.2-.3 2.8-.5 3.4-.9 3-.6-.6 0-5.3 1-8.6.3-.8.6-2.2.7-3a47.8 47.8 0 0 0 2.2-17c-.4-1.6-3.4-3.7-4.2-3.2-.4.3-.3 2.8.1 3.6.7 1.2.6 2.3-.3 4.2-.5 1-1 2.3-1 2.9-.1.8-.7 1.7-1.7 3.2l-1.7 2.5-.5 1.6c-.3.6-.5 1.5-.5 2a4 4 0 0 1-.6 1.8c-.4.5-1 1.8-1.3 2.8-.3 1-.9 2.4-1.3 3.1-.5.8-1 2-1.2 2.6l-.6 1.5-.5 1.3c-.2.8-.5 1.2-1 1.4-1.5.6-1.6 2.4-.2 2.4.7 0 2.6.6 4 1.2 2 1 7.7 0 9.4-1.4 1.1-1.1 1.7-1.4 2.9-1.4 1.5 0 2.3.7 3 2.4.6 1.2.6 1.5.4 3.5a19.3 19.3 0 0 1-1.2 4.9c-.2.9-2.6 5.6-3.3 6.7-.7.8-1.3 2.7-1.2 3 .4.5 5-3 7.4-5.4 3.5-3.8 3.8-4 4.5-5.2.7-1 .7-1.2.4-1.8-.3-.7-.2-.8.8-1.7 2.5-2.4 4.3-1.3 2.2 1.3l-1.1 1.7c-.4.9-7.8 9-9.4 10.2-.7.6-2.1 1.5-3 2-1.9.9-2.1 1.3-2.3 3.9 0 1.3-.3 2.2-1.2 4-.6 1.1-1 2.3-1 2.6 0 .2-.3.7-.6 1-.7.9-.7 1.3 0 1.6.9.4 2.1.2 4.8-.6zm-126.8 0c-.2-.3-.6-.9-1-1.2l-.6-.7v2.5h1c.8 0 .9 0 .6-.6zM257 184c.8-.7 1-1 1.2-2.1 0-1 .2-1.3.5-1.3.8 0 1.1.6 1.1 2 0 1 0 1.2.5 1.1.8-.1.7-1.4-.3-4l-1-2.7c0-.5-1.3-2.4-2-2.8-1.7-1.2-8.1.2-10.1 2a60 60 0 0 1-4.1 3.7c-1.7 1.4-1.2 2.4 1.5 3.2.7.2 1.5.6 1.8.9.5.4.6.4 1.3 0 .5-.3 1.3-.5 1.9-.5.9 0 1 0 1.1-.7l.3-1c.2-.7 1-.3 1.6.8.3.7.9 1.2 1.7 1.7 1.6.7 1.8.7 3-.3zm-23.8-.9v-.5a3 3 0 0 1-.4-1.2c0-.8-.2-1-.8-1-.4 0-1 .1-1.4.4l-.6.5 1 1c1 1 1.8 1.2 2.2.8zm-51.5-1c0-.3-.1-.2-.1.2v.5c.2-.2.2-.5 0-.8zm-2.5-1.3c-.1-.3-.4-1-.8-1.5-.5-.7-.6-.8-.7-.3-.2.6.1 1.5.8 2.3.5.7 1 .4.7-.5zm-5-.5v.5c.1 0 .2-.3 0-.5zm131.9-.6c0-.4 0-.4-.2-.1l-.4.7c-.2.3-.1.3.2.2.2-.1.4-.5.4-.8zm-5.3.3c0-.5 1-1.5 1.7-1.5.3 0 .8.2 1 .4.5.5.5.4.5-.1 0-.7-1-1.9-1.5-1.9s-2.5 2.5-2.5 3.2c0 .1.2.3.4.3.3 0 .4-.2.4-.4zm-76.8-.9h-.5c-.2.1-.1.2.2.2.3 0 .4 0 .3-.2zm6.5-.7c.1-.8 1-.9 1.7-.1.7.7 2 .8 3.1.2.8-.4.7-1-.2-1l-1.6-.4-2.7-.6-1.7-.2v.9c0 1.5 1.2 2.6 1.4 1.2zm-52.3-3.1c.2 0 .4 0 .5-.2.3-.5 0-1.3-.6-1.5-.3 0-.7-.3-1-.6-.3-.3-.4-.2-.4 1.1 0 1.5.4 2 1 1.4.1-.2.4-.3.5-.2zm-7.6-2.4c.1-.7.7-1.3 1.3-1.3.2 0 .6.4 1 .8 1 1 1.4 1 1.6.1.1-.6.3-.6 1-.6 1.1.2 1.1 0 .5-1.6-.5-1.6-.7-1.8-1.6-2-.8 0-.8-.1-3-4.6l-1.2-1.7c-.5-.4-.7-.4-1-.1-.4.2-.4.6-.3 2.2.2 1.5.1 2-.2 2h-.7c-.4-.3-1-2.8-.9-3.8.2-1.1-.3-2-1-2-.6 0-.6 1 0 3.6l.4 2-.7.7c-.7.7-.9 1.3-.4 2.1.3.7 1 .7 1 0a1 1 0 0 1 1.3-1c.3.2.6.3.6.5l.8 1.4c.7 1.1.9 1.6.8 2.7 0 1.6.4 2 .7.6zm60 .3c-.1-.1-.3-.2-.6 0-.3 0-.3.1 0 .3.4.2.8 0 .6-.3zm-7.2-1.5c-.3-.3-.8-.6-1-.5-.4.1.8 1.2 1.3 1.2.3 0 .2-.2-.3-.7zm-56.4-.6c0-.7-.7-.6-.8 0 0 .3 0 .5.3.5s.5-.2.5-.5zm53.6-3c.2-.5.7-1 1-1.2.6-.3 1.7-2.2 1.7-3 0-.3.1-.4.2-.4.3.2.1 1.5-.2 1.5-.3 0-.3 1.9 0 2.3.2.4 1.7.9 2.6.9.5 0 .5-.1.5-1.1 0-1.3.3-1.5 1.1-.8.9.8 1.3.7 1.6-.3.2-.6.4-.7.8-.6 3 1.3 4 1.3 4-.1 0-1.1.6-1.5 1.3-.8 1 1 1.5.4 1.5-1.7l.1-1.7-1.8-1.7c-2.3-2-3-3.3-3-5.7 0-2 .5-4.1 1-4.6.6-.6.7 0 .4 2a8.3 8.3 0 0 0 0 3.6c.3 1.5 1.1 2.9 1.7 2.9.5 0 .5 0 0-2.3-.5-2.1-.4-5.3.2-6.1.5-.8.8-.3.6.8a37 37 0 0 0 2.1 10c.4.8 1 1 2.7.8.4 0 .8 0 1 .3.6.4 1 .1 1.3-.9.2-.6.5-.9 1-1 .3 0 1-.3 1.4-.6l.7-.6-.6-1.3c-.9-2-1.6-4.2-1.6-4.8l-.3-1.2c-.2-.4-.6-2-.8-3.3-1.1-6.7-1.8-8-2.1-3.8-.2 2.3.1 4.9.7 5.5.3.3.5 1.8.8 4.7l.6 4.8c.1.6 0 .6-.5.5-.8 0-1.3-1-1.6-3.4a35.4 35.4 0 0 1-1-9.6c0-7.5-.2-10.7-.6-11.2-.4-.5-1.6.8-2.5 2.5l-1.2 2-.5 1.1c0 .3-.4.9-.8 1.3-1.7 1.5-2.8 6.3-3.5 14.5 0 .6-.2 1-.4 1-.6 0-.9-5.1-.4-6 .2-.4.5-1.7.7-3 .4-2.1.4-2.2-.2-2.7l-.8-1.1c-.1-.6-.2-.6-.8-.3l-1.4.5c-1 .3-3.6 2.8-4 4a33 33 0 0 0-1.6 5.3c-.5 2.8-1.1 4.7-1.5 4.9-.6.2-.7-.1-.3-1.2.2-.6.2-1.3.1-1.6-.3-.8-.9.1-3 4.2-1.7 3.7-1.9 4.1-1.9 5.7 0 2.8 0 2.8 2.8 2.8h2.4zm3.9-6.9c0-.6.2-1.2.4-1.3.4-.5.3.7-.2 1.6l-.4.7zm-2.3-.8c0-1 1-3.9 1.7-4.3.3-.2.3.5 0 .9a5 5 0 0 0-.6 1.2c-.4 1.3-1 2.5-1 2.2zm3.8-2.7c0-.4 0-.6.2-.5.1 0 .2.4.1.7-.2.7-.3.6-.3-.2zm.5-1.3c0-.3 0-.4.2-.2v.5c-.1.1-.2 0-.2-.3zm-.5-4.6c0-.5.7-1.5.9-1.3 0 .1 0 .3-.2.5l-.6.8c0 .3-.1.3-.1 0zm-63.3 11.7c0-.3-.4-1.1-1-2-.8-1.3-1.1-2.4-.7-2.8 0 0 .6 0 1 .3 1.3.6 1.6.6 2-.2.5-1 .4-1.4-.5-2.4s-1.6-1.2-1.6-.4c0 .2 0 .6-.2.8-.4.5-1.3 0-2.8-1.3a4.5 4.5 0 0 0-2.2-1.3c-.5 0-1.5-.5-2-.9-1.2-.7-1.8-1-1.8-.5 0 .3 2.3 2.2 2.7 2.2.4 0 2.5 2 2.7 2.6 0 .4 0 .8-.3 1-.5.6-.5.6.5 1 .8.4 1.1.7 1.3 1.4.3 1 2 3 2.6 3 .2 0 .3-.3.3-.5zm-7.3-5.9c-.8-.7-1.2-1-1.6-.9-.9.2-.7.6.4 1l1.4.7c1 .6.8.2-.2-.8zm92.7-5 1-1.5c.1-.7-.5-3.9-1-5.2-.3-.5-.6-1.8-.7-2.8-.2-1.5-.4-1.9-1-2.4-.8-.7-.9-.9-1.2-3.3-.2-2.9-.7-4.4-1.4-4.4s-1 1.8-.7 5.4a68.8 68.8 0 0 0 2.2 13.2 7 7 0 0 0 1.8 2c.1 0 .6-.4 1-1zm45-1.6.6-1.7.3-.7 1-3.2c1.2-2.8 1.6-3.3 2.3-2.6.4.4 1.4-1 1.4-2 0-.4.3-1.3.6-1.9.5-1 .5-1 0-1.1-.5-.1-2 1.4-2 2 0 .2-.4.6-1 1-.9.6-1.2 1.2-2.8 4.3-1.8 3.8-2.3 5.8-1.7 6.9.4.8 1 .5 1.3-1zm-40.2-2.7c.3-.3 1.3-.9 2.2-1.2 2-.6 2.2-1.1 1.1-2.7-.7-1-.7-1.2-.5-3.4.5-6.3.5-6.3 1-6.3 1 0 1.3 3.4.5 5.3-.6 1.2-.6 1.2 0 3.2.5 2.1 1 2.7 2.1 2.8 1.2 0 1.4-.6.7-1.6-.4-.5-.8-1.3-.9-1.8 0-.5-.2-1-.4-1l-.2-1.4c0-.9.2-1.4.7-2.1.8-1 1.2-2.6.9-3.2-.4-.7-3.2-1-6.5-.9l-2.9.2-.2.8-.8 1.3c-.2.3-.5.7-.5 1l-.5 1.5c-.6 1-.6 1.2-.3 3l.7 2.8c.5 1.2 2.5 4.3 2.9 4.3l.9-.6zm19.8-3.5c-.8-2.2-1-5-.4-5 .3 0 .5.7.7 2 .6 3 1.1 4 2 3.7.7-.2.7-1 .2-2.4-.3-.8-.6-2-.6-2.6 0-1 .1-1.2.5-1.1.3 0 .5.4.5.9.2 1.2 1.2 3.5 1.7 3.7 1 .3 2.2-1.2 1.2-1.6-.7-.2-.5-1 .3-1 .5-.2.8-.1 1.2.3.5.5.7.6 1.9.4l3.7-.2c2.5 0 3.8.4 4.6 1.5.4.4 2 .7 2.3.4l.8-1.6c1-2.2 1.1-3.1.4-4.1-.5-.6-.5-1-.3-1.3.2-.5.5-.5 1.9-.4 1.9.1 2.5-.2 2-1.2-.3-.8 0-1.3.8-1.7 2.8-1.1 3.3-1.6 3.3-3 0-.7-.2-1.2-.3-1.2-.5 0-.2-1.4.3-1.7.4-.2.6-.2 1 .3.6.7.8.5 1.4-1 .6-1.5.8-3.2.4-3.2-1 0-1.8.7-4.4 3.3a16.8 16.8 0 0 1-3 2.7c-.5-.3-.1-1 1.6-2.6a73 73 0 0 0 3.1-2.8c.2 0 .4-.2.4-.4 0-.1.6-.7 1.3-1.2.8-.5 1.6-1.2 1.8-1.5.4-.6.9-5 .7-6.4-.1-.7 0-1.3.4-2.2.6-1.1.6-1.1.1-5.2 0-1.1 0-1.7.4-2.5.3-.8.4-1.8.4-3.7 0-2.4 0-2.5-.9-4a19 19 0 0 0-2-2.7c-1.2-1.3-3.7-2.9-4.2-2.7-.2.1-.4 1-.5 2.2-.2 2-.3 2.1-2.2 5-1.2 1.7-2 3.3-2.2 4a5 5 0 0 1-2.6 3.3c-.4.1-.9.6-1 1l-.8.8c-.8.2-1 .6-1.4 2-.3 1.4-.6 1.7-1.5 1.7-.3 0-.8.3-1 .7-.4.6-.4.7 0 .7.7 0 1 .3.8 1-.2.6-1.4 1-1.8.6-.5-.5-1.4-.4-2 .3l-.7.7h1c.5 0 1 .1 1 .3.2.2.3 1.2.5 3.2l1.1.5 2.7 1c.9.5 1.7.8 1.9.8.4 0 1-1 1.2-2 0-.7.3-1 .6-1.1.4 0 .5 0 .3.5l-.4 1.9c-.2 1.2-2 4.7-3 6.2-.5.6-.7 1.3-.8 2.6-.1 1.7-1 5-1.8 6.3l-.5 1.5c-.2 1.4-1 1.3-.8-.1 0-1.3 1-4.4 1.6-6 .4-.7.5-1.4.4-2-.1-.6.1-1 1-2.5.7-1 1.2-2 1.2-2.2l.3-.6c.2 0 .3-.5.3-.9 0-.7-.1-.8-1.1-1l-2.2-.6c-2.5-.8-5.2-.2-6.2 1.3-.5 1-2.1 1.7-3.2 1.6-.9-.2-1.1.3-.4.8.9.8.3 1.4-1.5 1.8-1 .1-1.1.3-1 1.4 0 1-.6 3.2-1.3 4.4a5.8 5.8 0 0 0-.7 4.6c.3.9.3 1 0 1.3-.5.4-1.1 0-1.3-1-.2-1 .2-4 .9-6.3.8-3 .6-3.7-1-3-.6.2-.8.6-1.2 2a28.5 28.5 0 0 0-2 9.5c-.1.3.2 1.1.5 1.8s.5 1.3.4 1.4c-.4.4-1.3-.3-1.8-1.4-.4-1-.5-1.5-.3-3.3.1-2 .6-5.1 1-6.5l.2-.6-1 .5-1.2.8c-.2.5-1.8 1.3-2.9 1.5-2 .3-2 .3-2.3 1.7l-.3 2c0 .5-.2 1.2-.5 1.7-.4.7-.5 1.1-.3 1.4l.2 1c0 .4.4 1 .8 1.6l.8.9 1.5-.3c3-.6 4.7-.3 5.7.9.2.2.8.7 1.4 1 .5.4 1.1 1 1.2 1.4l.3.7.7-.7.7-.7-.7-2zm-7.3-3.3c-.4-.7-.4-1.4.1-1.4.4 0 1 .8 1 1.5 0 .6-.8.5-1.1-.1zm14.4-2.3v-.6c.3-.5.7-4.1.7-6 0-1.8.2-2.5.6-1.7.8 1.2 0 8.3-.8 8.6-.2 0-.4 0-.5-.3zm12.4-7.4c-.4-1 2.6-5.7 3.5-5.7.6 0 .4.7-.3 1.4-.3.4-.7 1-.9 1.6-.3 1-1.5 3.1-1.9 3.1l-.4-.4zm8.4-12c-.2-.1-.2-.6 0-1.8.3-1.5.2-1.8-.2-2.2-.2-.3-.4-.7-.3-1 .3-.5 1.2-.4 1.7.3.3.6.4 1 .2 2.8-.2 2-.5 2.5-1.4 2zm1.1-8c-.4-1.2-.4-2 0-3.2.5-1.4 1-1.7 1.6-1 .5.7.6 1.6.2 2.8l-.4 1.5c-.2 1-.9 1-1.4-.2zm1.3-10.2c-.2 0-.3-.6-.3-1.1 0-.6-.2-1.4-.4-1.8-.5-1-.5-1.3 0-1.6.7-.4 1.3 0 2 1.3.6 1.2.5 2.7-.3 3.1l-.6.3-.4-.2zm37.8 44.6-.9-1.2c-.4-.5-1.4-1.7-2-2.7-1.3-2-2.2-2.7-2.6-2-.8 1.5-.7 2 .8 3.4.9 1 1.7 1.6 2.3 1.7.6.2 1.1.5 1.3.7.4.4 1 .5 1 .1zm-99.3-7.2c-.1-.2-.2-.1-.2.2 0 .3 0 .4.2.3v-.5zm13.2-8.8c.5-.3.4-.4-.8-1.6a6.5 6.5 0 0 0-2.4-1.4l-1.7-.6c-1-.4-3.4-1-4-1-.8 0-1.9-1.2-1.9-2 0-.7.9-1.3 1.6-1l3 .1c2 0 2.6-.1 3.3-.6.5-.3 1-.9 1.1-1.2.2-.3.7-.8 1.2-1 1.7-.9 2.3.5 1.2 3-.5 1-.5 1.4-.2 2 .1.6.2 1 .1 1.2 0 .2.1.3.4.4.9.2 5.4.3 7 .2l1.3-.2.3 1c.3 1.5.8 1.3 4-1.2l1.7-1.2-.7-.4c-.9-.6-.8-1.5.2-2 .6-.3.9-.3 2.1 0 1.4.3 1.6.3 2.5-.3 1.1-.7 1.2-1.4.1-1.8-.9-.3-1-1-.3-1.2l4.8-.4c2.4 0 4.4-.2 4.5-.3.3-.4 0-2.1-.4-2.1a2 2 0 0 0-.8.4c-.7.5-1.7.5-2.3 0-.4-.4-1-.5-1.9-.5-1.6 0-1.8-.5-.8-1.7.6-.7.7-.7 2.5-.6h1.8l.6-.9a7 7 0 0 1 1.8-1.7l1.9-1.4c.4-.4 1-.9 1.3-1 .9-.7 1.8-2.1 1.2-2.1-.2 0-.5.1-.6.3-.7.8-3 1.8-4.2 1.8-1 0-1.2 0-1.2-.5 0-.8-.7-.7-1 0-.3.7-3.3 2.6-4.1 2.6-.5 0-.8-.3-1.3-1.2-.4-.7-.7-1.4-.7-1.7 0-.5.9-1.4 3-3l1.7-1.5c.8-.6 1-.7 1.7-.1l.5.2c0-.2.4-.5.9-.8 1.2-.6 1.7-.3 1.2 1-.2.4-.4.8-.6.8-.2 0-.8 2-.6 2.2 0 .1.6-.3 1.3-1 1.1-.9 1.4-1 2.6-1 1.2 0 1.5-.1 2.2-.8 1-1 1.2-1.6.3-1.6-1 0-1-.7.2-3.2 1.2-2.7 1.6-4.5 1.2-5.2-.4-.7-.3-1.2.3-3.3.6-1.9 1.3-2.6 2-2 .5.4.5 3.7 0 4.5-.2.4-.2.6.2 1 .3.3.4 1 .4 1.6l.2 2.6.2 1.3.6-.7c.3-.4.7-1 .7-1.4.1-.4.6-1 1-1.4.4-.3.8-1 1-1.4l.3-1.4c.3-1 .1-2-.6-4-.6-1.6-1.1-2.3-1.8-2.3-.3 0-.9-.3-1.3-.7-.7-.6-.9-.7-1-.3-.2.2-.3.5-.3.8 0 .2-.4.7-.8 1l-2.1 1.4c-1.6 1.2-4 2.5-4.4 2.3-.5-.1-3 .6-4.2 1.2l-1.3.7-1-.5c-.8-.4-1.4-.5-1.7-.3-.8.3-2.5.2-3 0-.4-.3-.6-.2-1.5.6-.5.5-1 1-1.2 1l-.8.5-1.8 1.2c-.7.4-1.3.8-1.4 1l-.3 3.7c-.2 3-.3 3.6-.9 4.4a4 4 0 0 0-.6 1.2l-.4.7-.9 1.3c-.6 1-2.2 2-3.3 2-.3 0-1 .2-1.4.5l-2 .5c-1.2.2-1.3.2-1.6 1.3-.7 2.5-1.6 3.4-2.8 2.7-.6-.4-.6-.6-.4-1.4a8 8 0 0 0 .1-1.5c0-.8-.8-2.3-1.4-2.6-.6-.3-2-2.9-2.2-4.3-.2-1.2.2-2.5 1.4-4.4 1.8-2.7 4.2-3.9 8.8-4.2 2.8-.2 3.8-.4 6.4-1.4a7.4 7.4 0 0 0 3.7-2.9c.5-1.1 3.2-3.6 4.1-3.8.8-.2 1.4 0 1.7.8.3 1 .6 1 2 .5 1.3-.4 1.5-.4 1.9 0 1 .9 1.8.5 4.4-2 .8-.8 1.7-1.4 2.3-1.6.6-.1 1.4-.6 1.9-1 .5-.6 1-.8 1.7-.8h1l-.2-1.2c-.3-1.8-.6-2.2-1.6-2-.6 0-.9 0-1.3-.5-.3-.4-.5-1-.5-1.5 0-.9-.8-2.3-1.5-2.7-.4-.2-.7-.8-.9-1.7-.5-2.2-.7-2.7-2.4-4.3a7 7 0 0 1-1.5-1.8l-1-1.8c-1.3-2-1.7-2.7-1.7-3.5l-.4-1.6c-1-1.7-6.7-7.8-9.8-10.1l-4.7-3.9c-2.5-2-3.3-2.6-3.7-2.4-.4 0-1.2 0-2-.3-3.5-1-6.9.1-7.3 2.5l-.7 2.1c-.6 1.3-.6 1.3.7 2 .5.3.5.8.5 3.6 0 3 .1 3.4.7 4.3.4.8.7 1 1.3 1 .4 0 1 .2 1.2.4.4.4 1 2.3 1.7 5 .2.8.6 1.4 1.2 1.9a4 4 0 0 1 1.2 1.6c.2.6.6 1.3.9 1.7l.8 1.2c.3.5.4.4 2-.6 2-1.3 2.7-1.4 3.6-.6.5.5.7.5 1.5.3 1.1-.3 2 0 2.2.8.1.7.2.7 1.4.6 1.5-.2 1.8 0 1.5 1.3 0 .5-.4.7-1.4 1-1.1.2-1.2.2-1.9-.4-.9-.9-1.6-.9-3 0l-1.2.7-.7-.8-.8-.8-.9.7c-1.5 1.2-2.4 1.2-2.4-.1 0-.7-.1-1-.4-1-.2 0-.9.5-1.4 1-1 .9-2.2 1.2-2.2.6 0-.8-1.5.4-2.5 2-.4.5-.9 1-1.1 1-1 0-1.1.3-.7 1.4.2.6.3 1.5.3 2 0 .6.4 1.8.8 2.7.5 1 .8 2 .8 2.4 0 1-.8 1.2-2 .4-.6-.3-1.1-.5-1.5-.4-1.4.4-2.4-.9-2.6-3.4 0-.7-.3-2-.6-3l-.5-3.3c-.4-3-1-3.3-1.5-1a78.3 78.3 0 0 0-2.3 7c-1.4 4.9-1.8 5.9-2.3 6-.2 0-.6 0-.8-.3-.4-.3-.5-1.6-.2-2 .3-.3 0-2.7-.2-2.7l-.5 1.9c-1.3 7.9-1.5 8.4-2.4 8.4-1.1 0-1.5-1-2-5.3a20 20 0 0 1 .7-9.4c1-3.2 1-3.9-.2-2.7a2 2 0 0 0-.6 1.5 6 6 0 0 1-.6 2.1l-1 2.8c-.4 1.3-.6 1.6-1.1 1.8-1 .4-1.6-.1-1.6-1.6 0-1.1 0-1.3-.6-1.6-.4-.2-.7-.5-.7-.7l-.4-.7c-.5-.4-.5 0 0 1.7.2 1 .1 1.3-.3 2.2a9 9 0 0 0-.7 2.2l-.6 2.4-.5 3c-.1 2-.3 2.6-1 2.6-.9 0-1-1.2-.7-4.9.3-3.2.4-3.4 1.2-4.5 1.8-2.1 1.4-3.1-1.9-4.7-1.2-.5-2.3-1.1-2.4-1.3l-.7-.2c-.5 0-.5 0 .3.7.9.8.9 1.5 0 1.7-.6.2-2-.7-2.6-1.6-.2-.5-.9-1-1.4-1.3-.8-.4-1-.5-1-1.1.1-.6.2-.7 1.7-.8 1 0 1.5-.2 1.5-.4 0-.6-.7-.7-2-.4-2 .4-2.8-.4-1.8-1.8.2-.3.3-.9.2-1.2-.2-1 .2-1.3 1.3-1 .6.1 1.1.2 1.2.1.2-.2-.9-1.2-2.3-2-1.5-.9-2.2-1.6-2.2-2.5 0-1.4 2.3-1 5 1 .8.5 2 1.1 2.7 1.3 1 .3 2.6 1.6 2.6 2.1 0 .2.6 1.2 1.3 2.2.7 1 1.5 2.5 1.8 3.2.5 1.2 1 1.6 1 .8 0-.7.5-1.7 1.2-2 .4-.1.9-.6 1-1 .3-.5.4-.5.9-.3.9.5 1.4.4 1.2-.4 0-.6 0-.7.7-.8.8-.2.8-.2.7-1.4-.1-.6-.3-1.3-.5-1.4-.1-.2-1-.3-2-.4-2.3 0-4.4-.8-8.8-3-4.9-2.4-7.4-3.3-9.8-3.1h-1.5L210 66l-.4 1.4c-.4.7.8 6.5 1.8 9.2.8 2 3.2 6.5 4.1 7.7.8 1.1 1 1.7.5 2.5-.5.7-.1 2.2.9 3.5a11 11 0 0 1 1.7 3.3c.2.5.5 1 .8 1.2.4.4 1.4 2.2 1.4 2.7 0 .2-.3.7-.7 1-.6.6-.6.7-.4 1.4.4 1 .3 1.2-.1 1.2-.2 0-.5-.4-.7-.9l-1.6-2.2a8.4 8.4 0 0 1-1.6-2.3c-.2-.6-.6-1.4-1-1.8-.7-1-.7-1.3 0-2.2.5-.6.5-.8.3-1.5-.2-.5-.3-1.2-.3-1.7 0-.6-.2-1-1-1.7-1.3-1.1-1.5-1-1.8.4-.2.8 0 1 .8 1.5 1.1.8 1.2 1 .7 2-1.2 2.2-1.2 2.1-.8 3.1.2.6.6 1.1 1 1.3 1 .5 1.3 1.3 1.3 3 0 .5.2 1.6.5 2.2.3 1.1.5 1.3 1.4 1.5.8.2 1.2.4 1.6 1 .4.8.4.8.9.3.7-.7 1.2-.4 1.9 1.3l1 2 .2 1.2c0 .3.3 1.4.8 2.3.5 1 .9 2 .9 2.7 0 1.2 1 2.1 2 1.9.8-.2 1-.6.5-1.4-1-2-1.1-2.5-1-3 0-.4.2-.4 2.3-.3 1.1 0 3-.3 3.5-.7.6-.5 2.6-1.1 3.8-1.1 1.5 0 4 1 4.8 1.9l3 2.9c2.5 2.6 3.4 4.2 3.4 6.4 0 .8-.1 1.5-.3 1.6-.4.3-1.2-.6-1.6-1.8-.1-.5-.5-1.2-.8-1.5-.7-.8-2-.6-3.7.5-1.2.7-1.5.8-3.6.8-2.7 0-3.8-.4-5.3-1.7-1-1-2-1.5-3-1.5h-.6l.6.6c.7.7.8 1.5.3 2s0 1.1 1 1.6c1.2.4 1.5 1.1.7 1.9-.4.3-.3.4.7.8.6.2 1.4.7 1.8 1.1.7.6 1.2.8 3 1.2.6.1 1-.2 2.4-2.5.6-1.1 1-1.2 2.2-.7.9.4 1 .7 1.1 1.3.1 1.3-.4 1.7-3.5 2.5-1.1.3-1.5 1-.8 1.2.3 0 2.8-1 3.1-1.5l.8-.2c.5.1.7.3.7 1 .1 1 1 1.6 2.3 1.6.4 0 .8.3 1.2.8.5.7.8.9 3 1.6 2.4.8 5.9 1 6.7.4zm9.3-4.3c-.5-.4-.1-1.1 1.1-2.1 1.5-1.2 1.8-1.3 2.7-.8 1 .5.6 1-2.2 2.6-1.1.6-1.4.6-1.6.3zm-.3-5c-.4-.4-.1-1.4.7-2.1l1.1-.9c.1 0 .8-.5 1.4-1.1 1-1 1.2-1 1.5-.7.4.4.4.5.1 1-.4 1-1.6 2.1-2 2.1-.2 0-.6.5-.9 1-.5.8-1.4 1.2-1.9.7zm.6-6.1c0-.6.3-1 1-1.5.8-.7 1.2-1.4 1.5-2.8.2-1 3-2.3 4-2 .6.3 1 .3 1.6 0 .9-.5 1.4-.1 1.4 1 0 1.2-.5 1.7-2.3 2-.9.3-1.6.7-2 1.2-.5.4-1 .7-1.5.7-.4 0-1 .4-1.7 1-1.3 1.4-2 1.5-2 .4zm-3 0c-.5-.6-.5-.6 0-1.5.9-1.8 3.5-1.8 2.8-.1-.3.8-1.6 2-2 2-.2 0-.6-.2-.8-.5zM234.4 103c-.3-.3-.9-.5-1.1-.5-.3 0-1-.6-1.7-1.3-1-1.1-1.1-1.3-1.3-3.2-.2-2.4.3-4.6 1-4.7.7-.2 1 .3 1 1.4 0 .5.1 1 .3 1l.2 1.4c0 1 .1 1.1.5 1.1.6 0 1 .5 1.2 1.5.1.4.8 1.3 1.4 2 1 .9 1.1 1.2.9 1.5-.5.5-1.6.4-2.4-.2zm6.2-1.2c-1-1.5-1-1.5-1-4.5-.2-2.4-.1-3 .2-3 .6 0 1 .6 1 1.6 0 1.6 1 3.7 2 4.9 1.3 1 1.4 1.8.6 2.2-1.1.6-1.8.3-2.8-1.2zm3.2-1.7c-1-1-2.8-6.3-2.8-8 0-1.2.9-.9 1.2.5l.4 1.5c.2.3.3 1 .4 1.4.2 1 1 2.6 1.7 3.7l.6 1c0 .6-1 .5-1.5 0zm5.3-3.8c-1-1-1.2-1.7-1.2-3.2 0-1.3.1-1.5.8-2 .4-.4.8-1 .8-1.2.1-.3.4-.6.7-.6.7-.1 1.1.8 1.3 2.7.1.7.4 1.8.7 2.5.5.9.5 1.2.3 1.7-.3.6-.5.7-1.6.7-1 0-1.4-.1-1.8-.6zm-28-1.6c-.2-.6.3-.8.6-.2.2.4.2.6 0 .6-.3 0-.5-.2-.6-.4zm23-7.6a11 11 0 0 1-.9-4.3c.3-.7 1-.5 1.2.3l.5 2.4c.3 1.5.4 1.8 0 2.1-.3.3-.4.3-.8-.5zm-22.8-.1c-.5-.6-.5-.8.1-1.3.7-.6 1.5-.5 1.9.2.5 1.2-1 2-2 1zm40.3-.4c-.7-.4-.6-1.5.2-2 1-.6 1.7-.3 1.7.7s-1.1 1.7-1.9 1.3zm3.5-.4c-.5-.6-.2-1.6.5-1.7.6 0 1.2.8 1 1.6-.2.6-1 .7-1.5.1zm-7.7-1c-.4-.7.2-1.6 1-1.5 1 .2.7 2.1-.3 2.1-.2 0-.5-.2-.7-.5zm21.2-5.7c-.7-.2-1.3-1-1.3-1.5 0-.4-.2-.7-.6-.8-1-.2-1.1-.8-.5-1.5.3-.3.5-.6.4-.8-.3-.4-.8-.2-1.3.5-.4.7-1.3.8-1.5.3-.2-.5.2-1.5.7-1.7.5-.2.5-.5-.1-1.4-.3-.3-.6-.9-.6-1.2 0-.8-.3-1-1.5-1-.4-.1-1-.3-1.4-.6-.6-.6-.6-.5.2-4.5.3-1.8.3-2.6.1-3.1-.2-.7-.3-.7-1.5-.6-1 .2-1.5.4-2.4 1.4-1.3 1.2-4.1 2.7-5.2 2.7-1 0-1.6-.6-1.4-1.4.1-.5.5-.8 1.5-1.1.7-.3 1.3-.7 1.3-.9 0-.2 0-.3-.2-.3s-.4-.2-.6-.4c-.6-.6-.3-1.6.7-2.1.5-.3 1.3-1.1 1.9-2 1.4-2 2.4-2 4.5-.2a11 11 0 0 0 1.8 1.3c1.1.6 2 1.8 2.7 3.6.3.7.9 1.8 1.3 2.2 1 1.3 1.4 2.4 1.4 4.3 0 1.1.2 2.1.4 2.6.3.6.4 1.3.4 2.5v1.8c.2.1.3.5.3.7 0 .3.3.9.8 1.3 1.1 1.2 1 2.3-.3 2zm-10-19.7a1 1 0 0 0-.6-1c-.6-.3-.9-.2-1.1.7-.2.4-.1.6.3.7 1 .3 1.4.2 1.4-.4zm-7.1 9.3c-1.2-1-.6-1.8 2-2.8 1.3-.6 1.7-.6 2-.3.7.5.5 1.3-.8 2.5-1.4 1.3-2.3 1.5-3.2.6zm1-11.3c-.4-.5-.4-1 .3-2.7.7-1.7 1.1-2.2 1.8-1.8.8.4.8 1.2.1 3-.7 1.8-1.4 2.3-2.1 1.5zm-2.3-2.6c-.2 0-.4-.4-.4-.7 0-.5-.2-.7-.7-.8-1.4-.3-1.3-1.7.1-2.4 1-.5 1.4-.3 1.4.7 0 .6 0 .7.8.6.4-.1.8 0 1 .2.3.3.2.6-.4 1.2-.7 1-1.4 1.4-1.8 1.2zM257 51c-.6-.4-.3-1.5.4-1.6.8 0 1.1.4.8 1.2-.3.7-.7.8-1.2.4zm-22.3 65-.5-1c-.6-.7-1.2-2.3-1.5-3.5l-.2-.8-.7.9c-1.5 1.5-1 3.1 1.2 4.2 1.2.6 1.7.7 1.7.2zm6.1-1.1c.3-.2.5-.5.5-.6 0-.4-1.3-1.3-2.5-1.7l-3-1.3c-2.2-1.2-2.5-1-1.8 1 .5 1.2 1 1.4 1.5.7.2-.2.6-.4.9-.4.6 0 1.7 1 1.7 1.5 0 .4 1 1.1 1.7 1.1.3 0 .8-.1 1-.3zm-20.2-6.4c-.4-.4-.8 0-.5.6 0 .3.2.3.4 0 .3-.2.3-.3 0-.6zm37.7 0c.5-.2.4-.3-.4-1-1-.8-2-2.5-2.1-3.9 0-.9 0-.9.7-.8h1.8c.8.1 1.2.3 2 1.3l1.1 1.4.8.5c1 .4 1.2.2 1.5-1l.5-2.1c.5-1.4.5-1.4 0-2.1-1-1.3-2-1.7-3.8-1.5-1.3.1-1.8.3-2.6 1a4 4 0 0 1-1.3 1c-.2 0-.5.2-.8.5-.2.3-.6.5-.7.5-.6 0-2 2-2 3 0 .8.6 2.4 1.2 2.8.2.2 1 .5 1.8.6l1.6.2c.1 0 .5-.1.7-.3zm-39-3.3c-.1-.2-.2-.2-.2.1 0 .3 0 .5.1.4v-.5zm90.5-6.6c.2-.2.1-.5-.3-.9-.6-.6-.9-.4-.6.5.2.7.4.8.9.4zm-17-14.7c0-.2 0-.4-.2-.4l-.2.4c0 .2 0 .4.2.4s.3-.2.3-.4zM239 81l-.3-3.6c-.5-1.5-.4-1.6-1.1 2.1-.4 2-.4 2.1.2 3 1 1.4 1.2 1.1 1.2-1.5zm54.3.3c0-1.5-1.6-3.8-2.7-3.8-.8 0-1.6.8-1.6 1.5 0 .6.2.7 1 .7.7 0 1 .1 1.4.8.3.5.5 1.1.5 1.4l.2 1c.1.4.3.4.7-.3.2-.4.5-1 .5-1.3zm-6-5.9h1c1 .3 1 .3 1 0 0-.9-2.4-2.8-3-2.5-.2.2-.3 2.3 0 2.6.2.3.8.2 1 0zm-31.6-2.5c0-.4-.1-.7-.3-.7-.1 0-.2.4-.2.9 0 .4 0 .7.2.6.2 0 .3-.5.3-.8zM239.4 71c0-.2-.2-.6-.6-1-.6-.5-.7-.5-.7-.1 0 .7.5 1.5 1 1.5.2 0 .3-.2.3-.4zm-5.1-3 2-.9c.4 0 1-.3 1.5-.6.8-.6 1-1 .6-1-.1 0-.6-.4-1-.9a6 6 0 0 0-2-1.3c-.9-.4-1-.4-2 0-.6.2-1.5 1-2.1 1.6-.7.6-1.5 1.4-2 1.6-1.2.6-1 .8 1.7 1.9 1 .4 1.6.4 3.3-.5zm6.7-3c.6 0 1.3-.4 1.7-.7.5-.3 1.2-.4 2-.4 1 0 1.2 0 1.5-.6.7-1 .1-2-1.5-2.5-.6-.1-1.5-.7-2-1-1-1-1.1-1-2.2-.2-1.2 1-2 2.8-1.7 3.9.1.5.2 1.1.1 1.5 0 .5 0 .6.6.4l1.5-.4zm8.5-3.3c-.4-.8-.7-1.5-.9-1.5 0 0-.2.5-.2 1.1 0 .8.2 1.3.8 1.8 1 1 1 .4.3-1.4zm48.7 289.7c-1.4-.6-2.7-1.2-3-1.2l-2-.8c-3.5-1.8-1.6-2 2-.4a19.5 19.5 0 0 0 4 1.6c2.3 1 2.8 1.4 2.7 1.6 0 .6-1.3.3-3.7-.8zm10.6-3.3c-.5-.3-1.2-.5-1.4-.5a.7.7 0 0 1-.6-.4c0-.2-1-.8-2-1.3-2.8-1.3-4.2-2.8-2.9-3 .4 0 2.2 1.1 4.1 2.7l1.1.7c.5 0 3.1 1.2 3.8 1.8l.6.5h-.9c-.5 0-1.3-.2-1.8-.5zm17-6.2c-.3-.3-.3-.4 0-.5.5-.2 1 0 1 .5s-.6.5-1 0zM356 334a118 118 0 0 1-13.7-6.5c-.7 0-4.1-1.5-5.5-2.4l-1.6-.7-1-.4-.6-.2c-.5 0-1.4-.5-2-1-.3-.3-.3-.4.2-.3.9 0 2.6.6 3.1 1.1.3.2.7.4 1 .4.2 0 .4.1.4.3 0 .1.3.3.6.3s1.4.3 2.3.8l2 .7c.2 0 .6.3 1 .6.2.3.6.5.7.5.1 0 .3.1.3.3 0 .2.2.2.5.2.3-.1.6 0 .8.2l.6.4a70.7 70.7 0 0 1 9.4 4 16 16 0 0 1 4.3 2c0 .5-1.4.3-2.8-.3zm-28.4-3c0-.2-.3-.4-.6-.4-.6-.1-.5-.2 0-.2s.8 0 .8.2.3.3.6.4c.5 0 .5.1-.1.1-.4 0-.7 0-.7-.2zm105-1-3-.9a87.2 87.2 0 0 1-16.3-5.8c-1-.3-2.1-.7-2.3-.9l-2.9-1a264.9 264.9 0 0 1-13.3-4.6 48.5 48.5 0 0 1-11.3-4c-.2 0-.5 0-.8-.3-.2-.2-.6-.4-1-.4-.2 0-.7-.2-.9-.4-.3-.3-.3-.4 0-.4s.5.1.5.3a806.7 806.7 0 0 0 3 .8c.7 0 1.7.4 2.2.6l1.3.4 1.3.3a6977.9 6977.9 0 0 1 13.6 4.2l4.6 1.6c1.5.7 4.6 1.9 4.9 1.9.2 0 1.3.4 4 1.6.5.3 1.1.5 1.3.5l1.4.5a54.7 54.7 0 0 0 9.4 3.3c1.3.5 2.7 1 3.2 1 1.4.4 3.3 1 3.7 1.3.4.4.4 1 0 1a31 31 0 0 1-2.6-.6zm-280-1.3c-.2-.3 0-.5 1-.8l1-.5-1.8-.3c-2.2-.4-3-1-2-1.8.4-.3.8-.5 1.2-.3 1.6.5 2.6.6 4.4.6 2.2 0 3.2.4 3.4 1.3 0 .7-.4.9-2.8 1.4-3 .7-4 .8-4.3.4zM138 327c-.7 0-1.5-.2-1.6-.4-.5-.6 2.5-1.4 4-1.1l2.8.2c1.1 0 1.6 0 1.7.3.2.5-.2.6-2.7.8l-2.2.2h-2zm273-.3c-2.8-1.1-4.3-2-4-2.2.2-.2.6-.2 1.4 0l2.3.6c1.2.4 2.3 1.4 2 1.8-.2.4-.3.4-1.7-.2zM151.3 324c0-.4.8-.6 4-1.2.4 0 .8-.3.8-.5s-1-.4-3.4-.6c-3.8-.4-4-.5-3.8-1 .1-.4 2-.5 6-.1 3 .3 4 .6 4.3 1.5.2 1-.3 1.3-3.2 1.6l-3.7.5c-.7 0-1 0-1-.2zm240.3-.2c-1-.3-1.6-.7-1-1 .5-.2 2.4.5 2.5.9.1.4-.2.4-1.5 0zm3.8-1.1c0-.1.1-.3.5-.3s.7.2.7.3c0 .2-.2.3-.5.3s-.6-.1-.7-.3zm-8.4-.5c-.6-.1-1.2-.4-1.3-.6l-.7-.6c-.8-.2 1-.2 1.8.2 1 .3 1.8.9 1.4 1H387zm-257.6-1.7c-1.1-.5-1-1.3.2-1.4 1-.1 3 .8 2.9 1.3-.2.5-2 .5-3 0zm20.8-3.6c-.1-.1.5-.4 1.3-.6 2.2-.5 2.1-1-.3-1.1-2-.2-4.1-.6-3.2-.7.2 0 .4-.1.4-.3 0-.4 8 0 8.8.3.5.3.7 1.4.2 1.7-1 .7-6.9 1.2-7.2.7zm226.2-1c-.6-.4-1.2-.6-1.4-.6-.2 0-.4-.1-.4-.3 0-.1-.3-.2-.7-.2-.5 0-.8-.2-.8-.3 0-.1-.3-.3-.6-.3s-.5 0-.5-.2-.4-.3-.9-.3c-.9 0-3-.7-4.7-1.6-.5-.3-1.1-.5-1.4-.5-.2 0-.4-.2-.4-.4 0-.5.4-.5 1.1-.1l2.4.8c1.8.5 4 1.5 4.1 1.9l.8.2c.6 0 1.6.4 2 .9l.5.1c1-.1 2 0 2.5.5.3.3.8.6 1.2.7l-.6.1c-.7 0-1.6-.1-2.2-.5zm-235-1c-.5-.2-.5-.8 0-1 .6-.2 4.4.1 4.4.4l.6.3-.7.1c-.7 0-1.2 0-1.2-.2 0-.1-.2-.3-.4-.3-.3 0-.4.1-.4.3 0 .2-1.5.5-2.2.3zm-18.2-1c-.5-.6.5-1 1.9-.6.6.2.6.2.1.6-.5.4-1.8.5-2 0zm7.7 0c-.1-.2 0-.6.2-.7.5-.4 1.5 0 1.5.5 0 .4-.2.5-.8.5-.4 0-.8-.1-1-.3zm10.7-1.2c-.5-.3 0-.9 1-1a6 6 0 0 1 2 0l1.2.2-1 .5c-.9.5-2.6.7-3.2.3zm5-1c0-.5 1.1-.9 3.6-1a12 12 0 0 0 3.1-.6c.4-.2 1-.3 1.5-.3.6.2.8 0 1-.3.4-.6.8-.5.8.1 0 .2-.2.4-.5.4s-.5.1-.5.3l-.8.4c-.4.1-1 .3-1.2.5-.6.4-4.3 1-6 1-.7 0-1-.2-1-.4zm4-2-1.8-.6-1.8-.6c-1-.6-3.8-1-5.7-1.1-1 0-1.7-.2-1.8-.4-.5-.5.7-.8 1.3-.3.4.4 1 .5 1 .2.2-.4 6 .1 7 .6.4.2 1.3.4 2 .4 1 0 1 0 1 .8 0 1.4-.2 1.6-1.2 1zm-34.1-2c-1.1-.5-.5-1 1.2-1 1.1-.1 1.6 0 1.9.2.2.3 0 .5-1 .7l-1.5.3-.6-.3zm4.7-.3-.7-.2.8-.2h1.9c.7.2.8.3.4.3l-1.2.2a3 3 0 0 1-1.2-.1zm6.6 0c-.6-.2-.2-.8.6-1 1.1-.2 5-.1 5.4.1.2.1.2.4.1.5-.2.3-5.4.6-6.1.4zm2.7-1.6c-.2 0-.3-.2-.3-.4 0-.3.4-.4 1.5-.4 1.4 0 1.5 0 .8.3-.8.5-1.6.7-2 .5zm10.3-1.6-1-.1.7-.5a3 3 0 0 1 1.4-.5c1 0 3.5-.6 4.4-1l.7-.3h-.9c-1.4 0-2.4-.3-2.4-.7 0-.7 8-.1 9.5.7.6.3.7 1.3.2 1.5l-2.3.2-8.6.8h-1.7zm-26.3-2.5c0-.2.3-.4.6-.4s.5.2.5.4-.2.4-.6.4c-.5 0-.6-.1-.5-.4zm6.3.2c-1.4-.2-1.7-.4-1.7-.8 0-.8 3.5-1.2 5.2-.5.8.3.9.3.4.7-.4.4-2.9.7-4 .6zm9.7-.3c-.5-.2-.4-.8.1-1 .5-.2 2.2.3 2.2.7 0 .4-1.6.6-2.3.3zm-26.8-.6c-.4-.3.6-.5 3.5-.6 2.2-.1 3.5.2 2.9.6-.5.3-5.9.3-6.4 0zm37.3 0c0-.1.6-.3 1.2-.3.7 0 1.2.2 1.2.3 0 .2-.5.3-1.2.3-.6 0-1.2-.1-1.2-.3zm-5.1-1.6-.1-.3c1.1-.3 3.9-.5 3.9-.3 0 .7-3.4 1.3-3.8.6zm10.7-1.3c.5-.3 1-.3 1 0 0 .1-.3.3-.7.3-.6 0-.6-.1-.3-.3zm3 0c-.9 0-.7-.6.3-.8.8-.2.8-.2-.3-.4l-7-.4c-5.4-.2-10.2-.6-10.5-.9-.3-.3 3.2-.5 5.7-.3l9.6.4c6.7.2 8.2.4 8.2 1.2 0 .5-.4.7-2.3 1a371.2 371.2 0 0 0-3.8.3zm-45.7-1.8c-.5-.2-.5-.2 0-.4.7-.3 1.5-.2 1.3.1-.1.5-.7.5-1.3.3zm44.4-3c-.6-.6-.5-1.2.2-1.6l.5-.4-.6-.2c-.9-.3 0-.7 1.4-.7 1 0 1.3.1 1.5.5l.5 1c.4.3.4.5-.3 1.2-1 1-2.4 1-3.2.3zm-29.6-1.2c-1 0-1.8-.2-1.8-.4 0-.1-.1-.2-.4-.2-.2 0-.3.1-.3.2 0 .2-.2.3-.4.3-.3 0-.4-.2-.4-.4 0-.4 1.2-.5 11.6-.6 4.4 0 8.8-.2 9.8-.3 2.3-.3 10-.3 10.5 0 .6.3-1.7.5-5.8.5l-3.9.1-5.7.3-6.2.3c-1.6.2-5.3.3-7 .2zm-30.4-.6c-.2-.2 0-.3.4-.3h3c.4.2.4.3-.2.3l-1.9.1c-.7.2-1.2.1-1.3 0zm5.8-.5c-.1-.2.3-.3 1-.3s1.2.1 1.2.3l-1 .2-1.2-.2zm18-1.1c.8-.5 1.2-.5 2.6-.4h2.4c1-.4 10.1-.7 10.3-.4.1.2-.3.3-.8.3s-1.5 0-2.2.2c-.7.2-3 .3-5 .4-2.2 0-5 .2-6.2.3l-2.2.2zm18.6-1c-.5-.4.6-.6 3.4-.6 1.4 0 2.4.1 2.4.3 0 .1-.6.2-1.4.2l-2.7.2-1.7-.1zm-10.7-1.3c.3 0 .6-.2.6-.3.2-.3 4.5-.5 4.7-.3 0 .1-.3.3-.9.3-1.4.3-5 .5-4.4.3zm-3.1-3.9c-.1-.2 0-.4.1-.4 2.7-.1 4-.3 5.2-.5a63 63 0 0 1 14.7-.8 191.9 191.9 0 0 1-20 1.7zm-16-2.4 2.7-.7c2-.4 2.7-.4 3-.2.4.2.5.4.4.5-.3.3-6.4.7-6.1.4zm40.9 0h.5l-.4.1c-.3 0-.3 0-.1-.2zm-30.6-.9-.7-.2.8-.3c.4-.2 2.1-.4 4-.5 2.8 0 3.4 0 3.8.3.3.3.4.6.3.7-.1.3-7.3.3-8.2 0zm13.4-.5c0-.3 4.2-.7 4.4-.5l.7-.1c.5-.3 3.2-.5 8.3-.7h2.4l-1.8.3c-3.5.7-14 1.5-14 1zm18-1.5c0-.2.6-.4 2-.5 2.8-.2 3.8-.2 3.8 0 0 .4-1 .5-3.7.7-1.6.1-2 .1-2-.2zM96.8 276h1.7c.5.1 0 .2-.9.2-1 0-1.3 0-.8-.2zM0 266.1c0-.2.2-.3.4-.3s.4.1.4.3l-.4.2c-.2 0-.4 0-.4-.2Zm3-.7v-.6c.1 0 2.1-.2 4.5-.2 2.3 0 4.5 0 4.7-.2a51 51 0 0 1 12-1.2c1.9-.1 3.6-.2 3.7 0 .4.1-2.9.7-6 1a721 721 0 0 0-15.3 1.5c-2.9 0-3.5 0-3.6-.3zm23-.2c1-.4 10.2-.8 10.4-.4 0 .1-1.5.2-4 .2-2.4 0-4.1.1-4.2.3l-1.7.2H25l1-.3zm11-.6c-.2-.3 0-.4 2-.4 1.6 0 2 .1 1.8.3-.5.5-3.4.6-3.8.1zm80 0c0-.4 1.1-.6 4.8-.6l3.4-.2c.2-.1 2-.4 6.7-.8 1.8-.2 3.7.2 3.7.7 0 .3-.5.5-1.9.6l-2.4.2h-2.2c-2-.1-10 .2-11.3.4-.6 0-.9 0-.9-.3zm339.5.1c-.8-.2-.9-.3-.6-.6.4-.5 3.6-.5 4.6 0 1.7.7-1.7 1.3-4 .6zm-407.9-1 .5.1c.1.1 0 .2-.3.1-.3 0-.4 0-.2-.1zm2.8-.2c.5-.5 4-.8 4.9-.5.6.3-2.2 1-4 1-1.3 0-1.3 0-.9-.5zm-18.4-.8h.7c.2.1 0 .2-.4.2-.3 0-.5 0-.3-.2zm3.8.1c0-.2 1-.4 1.2-.1 0 .1-.2.2-.5.2h-.7zm7-.6h.6c0 .1 0 .2-.4.2-.3 0-.3-.1-.1-.2zm394.7-.7c-.3-.3-.3-.4.1-.6a193 193 0 0 1 22.4-1c.3.2.3.4.2.6-.2.3-1.2.4-3.9.4l-7.2.4-7.5.5c-3.2 0-3.9 0-4.1-.3zM43.3 260c0-.2.2-.2.4-.1.3.2.3.4-.2.4-.2 0-.3-.2-.2-.3zm427.5-2c-.4 0-5.4-.2-11-.2-14.3-.2-13.2-.1-13.2-.6 0-.3.3-.4 1.3-.4.7 0 2.8 0 4.7-.2a101 101 0 0 1 18.9.5c.5.3.7 1 .3 1.1l-1-.1zM28 257c.2-.2.5-.2.6 0H28zm52.5-.4c-.2-.1 0-.3.7-.5l1.5-.3c.3 0 .8-.2 1.1-.4a11 11 0 0 1 5.2-1c-.4 0-.8.4-1 .9l-.5.7-5.6.7h-1.4zm15.7-2.3c-.6-.2-1.7-.3-3.2-.2-1.5.1-2.2 0-2.2-.1 0-.3 1.9-.6 3.5-.6 1.2 0 5-.5 6.8-.8 1.2-.2 1.8-.2 2.7 0a101.8 101.8 0 0 0 17.4-1.4c2.2-.4 4.7-.6 4.7-.3s-3.5 1-6 1.3c-.8 0-2 .3-2.7.4a87.8 87.8 0 0 1-12.6 1.2c-2.4.4-6.4 1-6.9.9l-1.5-.4zm9.5-2c-.2-.3.7-.5 1.3-.2.5.1.5.1 0 .3-.6.3-1.1.2-1.3 0zM448 252c-.2-.3 0-.4.9-.6 3-.9 7-1 7.2-.4.1.4.2.4-5 1-2.2.2-2.9.3-3 0zm-325.8-1.7.1-.4.4.1c.1.2 0 .3 0 .4h-.5zm2-.5c0-.3 2.7-.6 3.4-.4 1.1.3.5.6-1.4.6-1.1 0-2 0-2-.2zm421-1a15.7 15.7 0 0 0-5.1-2.3 146.4 146.4 0 0 1-16.2-5.2c-1 0-1.4-.2-1.4-.5s.4-.4 1.9-.4 2.1.2 3.5.8a65 65 0 0 0 6.4 2.2 182.6 182.6 0 0 1 10 3c.9.2 1.6.5 2 .9.8.7.9 1 .2 1.4-.6.3-.8.3-1.4.1zm-482.7-.8h.5c0 .1 0 .2-.3.2-.4 0-.4-.1-.2-.2zm3.4-.3c-.3-.4.4-.5 4.7-.8a251.2 251.2 0 0 0 25.6-3.5c2.5-.5 4.3-.5 3.7 0-.4.4-3.7 1-5.5 1-.9 0-1.7.2-1.9.4-.1.1-1.3.4-2.6.5a78.1 78.1 0 0 0-8.6 1.2c-.5.2-2.3.4-4 .5-4.7.3-5.2.3-7.3.6-2.5.4-4 .4-4.1 0zm426.6-3.6-2-.7c-1.8-.4-3.3-1-4.4-1.4a107.4 107.4 0 0 0-8.3-3.1l-1.6-.5c-.3 0-2.5-.8-4.2-1.6l-4.2-1.6c-2.4-.7-4.8-2-3.8-2.1l3.2.7c1.3.3 3.2 1 4.1 1.3a256.4 256.4 0 0 1 13.1 4.9c7.2 2.5 8.8 3.2 9.6 4 .4.5.4.5-.2.5-.4 0-1-.2-1.3-.4zm-390.3-.3-.8-.3c-.6-.2.7-.6 3.5-1l4-.7c3.5-.5 5.3-.8 9.5-1.1 9.8-1 10.9-1 11.4-1.6.3-.3.9-.4 2.5-.3 2.4.2 2.9.4 2.7 1-.2.3-.6.5-1.6.5-.8 0-1.7.1-2.2.4a33.4 33.4 0 0 0-9.8.8l-6.2.6c-5.4.4-6.2.5-8.3 1-2.2.6-4.1.9-4.7.7zm449.3-4.9a80.5 80.5 0 0 1-6.5-1.7l-4-1.2-4.9-1.3a16 16 0 0 1-3-1 3 3 0 0 0-1.4-.3c-.5 0-1.8-.3-2.9-.7-1-.3-2.3-.6-2.8-.6a7339.3 7339.3 0 0 0-22.1-5.8c-.3-.2-.8-.3-1.1-.3l-1.4-.4-4.7-1.6c-.6-.2-1.8-.6-2.5-1l-2.5-1c-2.9-1.3-4-2-3.6-2.2.5-.2 1.9.2 3.3 1l1.1.4 1.4.5a97.8 97.8 0 0 0 14 4.4l4.6 1.2a147.6 147.6 0 0 1 14.5 4l1.3.2c.6 0 1.8.3 2.6.6l3 .8c.9 0 2.3.4 3.3.6.9.3 1.7.4 1.8.3 0 0 0-.2-.2-.2-.3 0-.4-.8-.1-1.1.3-.3 1.2.4 1.5 1.1.1.5.4.9.7 1 .8.3 3.2.9 3.7.9.3 0 1.5.3 2.8.8 1.3.4 3 .8 4 .8 1.7.2 2.5.8 2 1.5-.3.6-.7.6-2 .3zM71.2 238l2.6-.3c1.4 0 3.9-.3 5.5-.5 2.4-.2 5.7-.2 5.3.2a63 63 0 0 1-13.4.6zm16.8-1.3v-.5c.4-.3 2.2-.7 3.8-1 1.4 0 2.2-.2 6.7-1.2 1-.3 2-.4 2-.3.6.3.2.6-.8.6-.6 0-1.4.2-1.8.5l-2.3.5c-.9.1-2.4.4-3.4.8-2.4.7-4 1-4.2.6zm42.1-1.4c-.3-.8-.2-3 0-2.6.2.1.3.9.3 1.7 0 1-.2 1.2-.3.9zm269.6-1.7c-4.3 0-5-.2-5-.7 0-.4.8-.4 5.3-.4 6 0 11.7-.2 11.7-.6 0-.2-.8-.2-2 0-2 .1-2.6 0-2.3-.6 0-.3.7-.4 2.6-.4 2.5 0 2.5 0 2.5.7 0 .6 0 .6 1.3.6s1.7.2 1.4.7c-.3.5-9.5.9-15.5.7zm-359.2-1.2c0-.3.5-.4 2.7-.5 1.5 0 3.7-.3 4.8-.6 2.6-.5 4.8-.6 13.1-1 3.6 0 7.8-.4 9.4-.6 4-.5 5.9-.5 6 0 .3.5.1.6-2 .8l-4.4.6c-1.6.3-4.7.4-8.8.5-8.6 0-16.3.5-19.8 1-.8.2-1 .1-1-.2zm493.8-1c-1-.4-1.9-.8-2.2-.8l-1.3-.6c-.5-.4-1.3-.7-1.7-.8l-1.1-.4-1.3-.5-2.6-1a32 32 0 0 0-3-1c-2.5-.8-4.4-1.5-4.4-1.8 0-.4 1.8 0 3.5.6a199.7 199.7 0 0 0 9.6 3.6l4 1.6c1.8.7 2.7 1.1 2.7 1.5.1.6-.3.5-2.2-.4zm-91.5-4.8.1-2.5c.2-1.1.3-3.9.3-6 0-2.2 0-4.3.2-4.7.2-.5.2-2 0-4.7v-7c0-2.3 0-3.2-.2-3.3-.4-.3-.8-4.3-1-10.2a1352.6 1352.6 0 0 0-.6-21.4c-.4-4-.6-25.8-.3-26 .3-.2.4.2.5 6.6l.2 6.2a618.8 618.8 0 0 1 .7 22.5l.2 6c0 2.3.2 5 .3 6 .2 2 .5 7.3.5 11.9 0 1.6.2 2.8.3 2.8.1 0 .2.2.2.5l.5 1.3c.4.8.5 1.6.5 3.9 0 1.7 0 3 .2 3.4.3.4.3.8.1 1.4l-.2 3.3c0 1.4-.3 3.6-.6 4.9l-.5 3.3c0 .6-.2 1.2-.5 1.5-.6.7-.7.7-.9.3zm-7.8-.9c0-.4 0-.5.2-.3v.8c-.1.2-.2 0-.2-.5zm50.3.5c-.7-.1-1-.8-.6-1.1.5-.4 4.4-.4 4.6 0 .4.6-2.2 1.3-4 1zm-88.7-.8c-.7-.1-.8-.8-.3-1l4.1-.4 6-.4c2-.1 2.3-.1 2.5.2.2.6-.3.7-3.1.9-1.4 0-3.3.2-4.3.4-2.5.3-4.4.4-5 .3zm116.3-1.9-1.4-.6-.7-.2c-.6 0-4.7-1.4-6.1-2.1l-2.8-1c-1.2-.5-2.5-1-2.8-1.3l-1-.4c-.2 0-.5-.1-.7-.4-.4-.5 0-.5 1.1 0a48.8 48.8 0 0 0 5.7 2 103 103 0 0 0 9.3 3.2c.6 0 1.6.7 1.6 1 0 .4-1 .3-2.2-.2zm-78.4-4.4c0-.3 0-.4.1-.2v.5l-.1-.3zm-39.3-.5c0-.2 0-.5.3-.6.6-.3 3-.7 4.4-.6l5.4-.4c5.5-.5 7-.5 7.4 0 .6.6-.2 1-2.6 1-1.3 0-3 0-3.7.2l-4.8.4c-1.8 0-4 .2-4.8.3-1.2.1-1.5 0-1.6-.3zm-266-1c0-.4 0-.5.1-.2v.5c-.1 0-.2-.1-.2-.4zm-38.1-1 .8.1-.5.1c-.4 0-.6 0-.3-.1zm343.4-2.5c0-1.6 0-2.2.1-1.4v3-1.6zm12.4 2c-.4-.9-.4-6.2-.1-10.3v-4a87 87 0 0 1 .2-8.8c.2-2.6.3-3.4.6-3.4s.3.7.3 3.2.1 3.2.4 3.3c.4.2 10.5-.2 18.7-.6 4.2-.2 6.3 0 8.3.6 2.1.8 1.5 1.7-1.5 2.3-1.1.2-2 .4-1.9.5 0 .1 1.4.2 2.9.2 4.5 0 6.8.7 7 2 .2.4 0 .8-.8 1.5l-1 1 .8.3 3.2.7c.5 0 1.5.3 2.3.5l2.5.6 1 .1-.7-.7-1.8-1.5c-1.9-1.4-3-2.9-2-2.9.4 0 1.6 1 3 2.2.4.4.8.7 1 .7l1.5 1.2c.8.7 1.4 1.2 1.5 1.1.2 0 .1-.7 0-1.4-.3-1.4-.1-2.2.5-2.2.7 0 1.2.8 1.2 1.9 0 .7.1 1.2.5 1.5.3.2.6.8.7 1.3.2 1 1 1.3 3.6 1l6.7-.3c2.6 0 5.6-.2 6.7-.3 1.2-.2 3.5-.4 5.7-.3 3.6 0 3.8 0 5.3-.7l1.8-1c.3-.5.2-1.4-.2-1.6-.7-.3-1.2-1.9-1.2-4.3a559.2 559.2 0 0 1-.1-18.3 44 44 0 0 1-1.2-6.4c0-2 0-1.9-5.6-2-2 0-4 0-4.1-.2l-4.5.2a72.8 72.8 0 0 1-8.3.7c-2.2.3-3.3.2-3.1-.5 0-.4.5-.5 3-.5a104.2 104.2 0 0 1 15.2-1c3.5 0 6.5-.2 6.7-.4.5-.5.8-4.3.8-13.2 0-9.8.2-11.4.8-11.4.3 0 .4.8.3 4.8v9.7c.2 4.9 0 8.6-.4 9.7-.2.6.2 3.3.8 5.8.8 3 1 9.3.6 18.5-.1 4.7-.1 4.7 1.5 4.7 1.1 0 5.4 1 6.2 1.4 1.3.7 8 .3 16.8-1l4.4-.6 1.6-.2-1.6-.3-2.5-.4c-.5 0-.8-.1-.8-.4 0-.4 2.2-.8 7.1-1.1 4.8-.4 6.8-.4 10.7-.1l10.3.6c8.6.3 8.7.3 9.7 1.2 1.5 1.3.6 2.4-1.1 1.4-.8-.5-1.7-.6-5.2-.8l-9.3-.5a24.9 24.9 0 0 0-10.2.8c-1.3.4-2.7.6-5 .6-2.1.1-3.6.3-4 .5-.8.4-4.2.8-8.1 1.1l-3.8.5c-1 .2-3.5.4-5.6.4-3.7 0-7 .3-8.3.9-.4.1-.9.6-1 1a5.4 5.4 0 0 1-2.8 2.9c-1.1.5-4.7 1-6.8.9-.6 0-2.4.1-4 .5-2.7.5-4.8.7-13.8.8-3.8 0-3.8 0-4.6-.7a6 6 0 0 0-3.6-1.5c-.4 0-1.5-.2-2.4-.5a40 40 0 0 0-6.6-1.6c-1.3 0-3.6-.8-4-1.4-.5-.7-.3-1 1.1-1.9.8-.4 1.1-.8 1-1-.6-.5-3.6-.7-13.8-.8-9.1 0-11 0-11.8.4-1.3.6-4.5 1-5.8.8l-1-.2.1 1.2a121.2 121.2 0 0 1 0 14c-.2.2-.4 0-.6-.5zm4-15.9c.7-.2 1-.8.3-.8-1 0-3.1.7-3.2 1-.1.3 1.2.2 2.8-.2zm-1.5-2.2c.2-.3.2-.3-.6-.6-.5-.1-1 .5-.7 1 .1.2 1.1 0 1.3-.4zm18.1 0 2.5-.2c1 0 1 0-.5-.3-.9-.1-2.3-.2-3.2 0-2.8.2-5.4.7-5.4.9 0 .3 4.3 0 6.6-.3zm-363.9 17.4a.9.9 0 0 1-.1-.6c0-.4 1.2-.4 1.4 0 .3.5-.8 1-1.3.6zm50.5-1v-.6 1.3-.7zm335.1-1c0-.3.6-.3 1 0 .4.2.3.3-.3.3-.4 0-.7-.1-.7-.3zm-346.2-2v-.8 1.8-1zm291.4-1.6c-.1-.6 0-17.2 0-20.5 0-1.3.7-1.4 1-.1a126 126 0 0 1-.5 15.6c.2.6.2 1 0 1 0 0-.2.4-.2.9s.1 1 .3 1c.4 0 .3 1.3-.1 2.1l-.4.7-.1-.7zm-280.6-1.2c-.2-1.4 0-2.7.3-2.7.2 0 .3.9.4 2 0 2-.4 2.6-.7.7zm307.4-.6c.3-.3 1.4-.6 3.6-.8 7.4-.9 13-1 11.6-.2-.7.4-11.4 1.4-14.5 1.4-1 0-1 0-.7-.4zm-318.5-1a103.5 103.5 0 0 1-.2-15.7c.1-.2.2 3.1.1 8 0 2.3 0 3.4.3 3.5.2.2.2 1 .2 2.4 0 1.7-.2 2-.4 1.7zm282.7-.2a89.5 89.5 0 0 1 .6-10.7c.1-.4.2.2.2 1.5 0 1.4 0 2.3-.2 2.3s-.3.2-.3.4c0 .3.1.4.3.4.1 0 .2.7.2 1.5s0 1.4-.2 1.4-.3.3-.3.6c0 .2.1.5.3.6.4.3.3 1.7-.2 2.2-.3.3-.4.3-.4-.2zm29 0c-1-.5 1.5-1 9.8-1.4 2.1-.1 3.6.2 2.2.4-4.5 1-11.4 1.5-12 1zm15-1c-.5 0-.5-.1-.2-.5.5-.4 1.5-.4 1.5 0 0 .5-.5.6-1.3.5zm-335-1c0-.3.1-.4.2-.1v.5c-.1 0-.2-.1-.2-.4zm321-1c-.3-.2-.3-.3 0-.6.3-.4 6.3-.5 6.3 0l.4.2c.2 0 .4-.1.4-.3 0-.4 2.8-.3 3 .1 0 .3-.6.4-3.5.5-4 .2-6.1.2-6.6 0zm11.5-.3h.5l-.3.1c-.3 0-.4 0-.2-.1zm2-.3c0-.3 0-.3.1-.1v.5l-.1-.4zm-334-1.7c-.3-.6 0-1 .4-.9.5.2.5.8 0 1.2-.2.2-.4.2-.5-.3zm19 .1-.2-.8a33.8 33.8 0 0 1 .2-12.5c.4-.4.4-.8.5 4.9.2 7.6.1 9-.5 8.4zm5.1-1.3.5-.3c.2.2-.2.7-.5.7-.2 0-.2-.1 0-.4zm-.3-1c0-.4.2-.7.3-.7.1 0 .3-.5.4-1.1 0-1 0-1 .1.4 0 1 0 1.5-.4 1.8-.3.3-.3.2-.3-.4zm235.6 0c0-.5 0-.6.1-.3v.7l-.1-.4zm143.6-.7-4-.5c-1-.1-2.9-.3-4.4-.3-3 0-4.3-.2-4.3-.6 0-.4 1.7-.7 3.7-.7l4.4.5c2 .4 5.3.6 9.1.8 5 .1 6 .2 6 .6 0 .3-.7.4-4.2.4-2.2 0-5 0-6.3-.2zM148.7 195c0-2.4 0-3.1.4-3.4.3-.4.4-.3.4.8 0 .6-.1 1.2-.3 1.2-.1 0-.3 1-.3 2.2 0 2-.1 1.8-.2-.8zm268.8 1.1c0-.6.1-1.2.3-1.2.1 0 .2-.4.2-1 0-.4 0-.8-.2-.8-.4 0-.2-4.6.2-4.7.2-.1.3 1 .3 4 0 3.3 0 4.2-.4 4.5-.3.4-.4.3-.4-.8zm75.6 0c-.2-1 .2-6.6.5-7l-.2-3.3-.3-5.8c0-1.5-.3-3.9-.4-5.4-.2-2.1-.2-2.9 0-3.6.3-.5.4-1.9.3-3.7 0-4.2.2-4.3.9-.6 0 .5.3 1 .6 1.3.3.4.3.5 0 .8-.1.1-.3 1-.3 2 0 1.5 0 1.6.8 1.9 1 .4 1 .7.4 1.3-.3.4-.5 1.4-.7 4.1-.2 3.1-.2 3.8.2 5.6.5 1.9.5 2 0 3-.3.7-.5 1.9-.6 5.3a63 63 0 0 1-.2 4.7c-.2.7-.9.3-1-.7zm-94.6-.3c0-.3 0-.4.1-.1v.5l-.1-.4zm-7-.4v-2.3l.2-2 .2 2c0 2 0 3.2-.3 2.3zm2.8-2.5c0-1 0-1.4.1-.8v1.8-1zm81 1.5c-1.6-.3-3.4-1-3.3-1.5 0-.3.9-.3 3.3.1 2.5.4 3.6.8 3.4 1.3-.1.4-1 .4-3.3 0zm-71.5-2.1c0-.8 0-1.2.1-.8v1.5-.7zm22.3.1v-.6 1.3-.7zm-291.7-1.2c0-1.4.1-2.1.4-2.3 1-1 1.1 2.5.1 3.7-.5.6-.5.6-.5-1.4zm262 .4c0-.3 0-.4.1-.2v.5l-.1-.3zm-237.1-.7c-.1-1.8.1-2.8 1-3.6.2-.3.3-.3.3 0 0 .7-.6 2.9-1 3.6l-.3.7zm321 .3-1.5-.3c-1.3 0-4.8-.6-7.4-1.3l-3-.6c-.7 0-2.7-.6-4.5-1.2-1.8-.6-3.5-1-3.7-1-.2 0-.4-.2-.4-.4l-.4-.2c-.6 0-2.7-.5-3.3-1-.5-.3-.5-.3 0-.5.3 0 1 0 1.6.3a16 16 0 0 0 5.5 1.6 115.8 115.8 0 0 0 15 3.3 340.4 340.4 0 0 0 3.9 1.3c0 .3-1.4.3-1.9 0zm-54.4-1.6c-.1-1.5 0-2 .4-1.7v1.7l-.2 1.5-.2-1.5zm-29.4.7c0-.3 0-2.2.5-7.2l.1-2.7c0-1.5.2-1.9.7-2.5.3-.4.7-.7.8-.7v.7l-.2 4.1c0 2.4 0 3.8-.3 4.6a8 8 0 0 0-.4 2.1c0 1.5-.8 2.6-1.2 1.6zm4.7-.8c0-.7 0-1 .1-.6v1.3l-.1-.7zm2.5-.5c-.2-1-.2-2.1-.2-2.7a87.6 87.6 0 0 0 0-6.7 50.1 50.1 0 0 1 .6 10l-.3 1zm-261.6-.7c-.2-.8-.2-1.2 0-1.3.1-.1.2-1.1.2-2.3 0-2.3.3-3.4 1-3.1.6.2.5 1-.5 3.2-.1.3-.2 1.3-.1 2.3.1 2-.2 2.8-.6 1.2zm269.4-.4c-.4-.4-.5-1.7-.1-1.7.2 0 .6 1.8.5 2l-.4-.3zm23-1c0-.5 0-.7.3-.7s.4.2.4.6c0 .4-.1.7-.4.8-.3.1-.4 0-.4-.6zm-8.5 0c0-.5.1-.6.2-.4v.8c-.1.2-.2 0-.2-.5zm-8-.3v-.7c.2 0 .3.3.3.7l-.1.6-.2-.6zm-16.8-.6v-.3c.2.3.2.6 0 .8v-.5zm80.3.5c-.3-.3-.2-.6.1-.6.2 0 .6.2.7.4.3.3.3.4-.2.4-.2 0-.5 0-.6-.2zm-70.3-1.3c0-.3 0-.3.1-.1v.5l-.1-.4zm23.4-.5c-.2-.7 0-2.4.2-2.7.3-.3.5.3.5 1.7 0 1.6-.4 2.3-.7 1zm41.5.5-1.4-.5a17.4 17.4 0 0 1-5-1.6c-.2 0-.3-.2-.3-.5l3 .7 3.6 1c1.1.2 1.9.6 1.5.9-.4.2-1.1.2-1.4 0zm-83.4-1.7c0-.3 0-.5.1-.3v.7l-.1-.4zm42.2-2.5c-.3-.3-.2-5.4 0-5.4s.3 1.1.3 2.8c0 2.7 0 3-.3 2.6zm27.1-.5c-.4-.5.2-.5 1.2 0l.7.4h-.7c-.5 0-1-.2-1.2-.4zm-60.9-2.7.1-2.2c.2.2.3 4.2 0 4.4v-2.2zm78.7 1.4-2-.8-.9-.4h1.6c1.7.2 3.4.9 3.2 1.3-.2.3-.6.3-1.9-.1zm-21.8-.3c0-.2.2-.4.7-.4.4 0 .6.2.6.4 0 .3-.2.4-.6.4-.5 0-.7-.1-.7-.4zm-47.4-.6c-.2-1.1-.1-3 0-3.1.2-.1.3.6.3 1.6l-.1 1.7c-.1 0-.2 0-.2-.2zm15.4-.2.2-.4c.2 0 .3.2.3.4s-.1.4-.3.4l-.2-.4zm-22.8-1.2c-.2-4.1-.4-14.5-.3-14.7.4-1.1.5.3.7 5.5a88.5 88.5 0 0 1-.4 9.2zm15-1.2v-1.2 2.3-1zm53.2-.1v-.3c.2 0 .4.2.4.3l-.2.3-.2-.3zm-36.7-1.7c0-.5.1-1 .3-1l.2 1c0 .5 0 .9-.2.9s-.3-.4-.3-1zm-251-.3c0-.4 0-.6.1-.3v.8l-.1-.5zm215.3-1.3c0-.3 0-.4.2-.2v.5c-.1.1-.2 0-.2-.3zm11.1-.9c0-.9 0-1.1.3-.8.3.5.3 1.7 0 2-.2 0-.3-.4-.3-1.2zm62.9-.6c-.3-1.2-.2-2.6 0-2.6.3 0 .5 1.3.6 2.6 0 .9-.4 1-.6 0zm-286.1-.4c-.3-1 .3-7 .8-8l.4-.7.2 1.3c.3 2-.5 8.1-1 8.1-.1 0-.3-.3-.4-.7zm211.9-.8c-.5-1.5-.4-4.6 0-4.6.6 0 .8 2 .5 4l-.2 1.7zm98.2.8c-.2-.5.7-.8 3.3-1.1 3.5-.4 11.4-.4 11.4 0 0 .5-1.1.7-5.7.8l-6.8.4-2.2-.1zm-304.9-1c0-.7 0-.8.3-.3.2.3.2.5 0 .8-.2.2-.3 0-.3-.5zm233.9-.5c0-.8 0-1.2.2-1.1.4.2.4 1.5 0 2-.1.3-.2 0-.2-.9zm61.4-1.4c0-2.5.4-2.4.5.1.1 1.2 0 1.8-.2 1.8-.3.1-.3-.4-.3-1.9zm27.8 1.8c-1.2 0-1.6-.2-1.6-.5 0-.2.3-.4 1-.5 2-.3 3-.6 3-1.2.1-.4.2-2 .1-3.5 0-4.6.1-9.2.4-10 .2-.3.3-1.7.2-3 0-3 .2-4.6.7-4.6.5 0 .5 2.1.1 5-.3 2.6-.6 8.2-.5 11.4.1 6 .1 6.2-.3 6.7-.1.2-.6.4-.9.4l-2.2-.2zm-331-3.1c0-4 .3-12 .6-12.2.4-.4.5.4.6 4.3 0 3.2 0 4.2-.4 5.2-.2.6-.5 2.1-.6 3.4l-.2 2.2zm216.3 2.4c-.4-1 0-6.2.4-6.2.1 0 .2 1.5.1 3.3 0 3.1-.2 3.8-.5 2.9zm-196.7-2.7c0-2.6.2-4.6.5-4.6.4 0 .1 4.8-.3 6-.2.6-.2.4-.2-1.4zm-12.4.7a149 149 0 0 1-.4-13c.2-.4.4 2 .7 7.3.1 2.3.3 3.7.6 4 .2.4.3 1 .3 1.3-.1.6-1 .9-1.2.4zm4.3-1.2a203.4 203.4 0 0 0 .4-20.1 752.2 752.2 0 0 1 .7-49.6c0-1.8.2-3.4.3-3.4.4-.1.3-1.3 0-1.9-.3-.4-.3-.6 0-1 .5-.3.5-.4.6 0l-.2 12.1-.2 29.5a737 737 0 0 1-.6 30.2c0 2.7 0 3.6-.4 4-.4.5-.5.6-.6.2zm276.8 0c0-.2.2-.3.3-.3.2.1.3.3.3.5 0 .1-.1.2-.3.2-.1 0-.3-.2-.3-.4zm-46.5-2.6c0-.6.1-.8.2-.5v1c-.1.3-.2 0-.2-.5zm41.2-.3c-.3-.3-.2-2.5 0-2.6.2-.1.3.3.3 1.3 0 1.4 0 1.6-.3 1.3zm25.5-.8c0-1 .3-1.2.6-.5s.2 1.4-.2 1.4c-.3 0-.4-.2-.4-.9zM204 160.4c0-.4.1-.7.3-.7.1 0 .2.3.2.7l-.2.6c-.2 0-.3-.3-.3-.6zm180.7.2c0-.3.1-.3.2-.1v.5c-.1 0-.2-.1-.2-.4zm108-2.4a1649 1649 0 0 1-.4-15.7c-.4-5.8-.3-25 0-27.8.3-1.3.5-2.6.7-2.7.4-.5.7.4.5 1.7 0 .6 0 3 .2 5.1.4 5 .4 5-.1 5.5-.4.4-.4.4.1.6.5.1.6.3.5 1.1 0 .7-.2 1-.5 1l-.7.1c-.3 0-.3 1-.2 4.1.3 5.8.5 23.7.4 26.7 0 1.5-.2 2.6-.3 2.6-.1 0-.3-1-.3-2.3zm-75.1.3c0-1.4 0-1.5.2-.7.2.6.2 1.2 0 1.6-.2.6-.2.5-.2-.9zm8.1 0c0-.7.1-1.2.3-1.3.1 0 .2.3.2 1s0 1.3-.2 1.3-.3-.5-.3-1zm9.4-.2v-.6 1.3-.7zm-31.8-.6c0-.4 0-.5.1-.3v.8l-.1-.5zm6.3 0c0-.6 0-.7.2-.4.4.6.4 1.1 0 1.1-.1 0-.2-.3-.2-.7zm-206-1.7c0-2.7.1-7.7.3-7.9.2-.3.4.2.5 2.1.2 2.4 0 7.7-.4 7.7-.2 0-.3-.9-.3-2zm-33.8-1.6c-.2-1.6-.1-2.8 0-3 .3-.5.3-.5.3.1v5.5l-.3-2.6zm230.8 1.8c0-.5.1-.7.4-.7.4 0 .5.2.2.9-.2.6-.6.5-.6-.2zm9-.3c0-.6.1-.8.2-.5v1c-.1.3-.2 0-.2-.5zm-198.2-.3c-.2-.5-.2-1.5-.1-3l.2-9a157.5 157.5 0 0 1 .6-12.2c-.1-.2 0-3.2.2-6.5a411 411 0 0 0 .6-7c.4 0 .4 3.6 0 9.8a364.5 364.5 0 0 0-1 28.1c-.1.5-.2.4-.5-.2zm206 0v-1c.3-.2.4 0 .4.7 0 1.1-.2 1.3-.4.3zm17.4.3.1-.7c.3-.3.3-.2.3.4 0 .8-.2.9-.4.3zm-259.9-1.4-.3-2.5a60.5 60.5 0 0 1-.6-8.7c0-1.8-.3-4.9-.5-6.9a153.9 153.9 0 0 1-1-9.5c-.2 0-.8 1.6-.8 2.4 0 .2-.1 0-.3-.4-.2-.8.2-7.9.5-8.7.2-.6 1.3-.5 1.5 0 .2.6.5 3.7.6 5.6a772.2 772.2 0 0 0 1.4 22.7l.4 5.5c.1.6 0 1-.2 1.2-.4.3-.5.2-.7-.7zm223.4 0 .1-1.2c.3-.5.3-.4.3.7 0 1.4-.1 1.6-.4.5zm88.6-1.3c0-.3 0-.4.1-.1v.5s-.2-.1-.1-.4zM184.8 149l.4-11.7a194.7 194.7 0 0 0-.8-29.5l-.2-3.6a282 282 0 0 1-.8-37.2c.3-1.5.8-2.1 1-1.3.2.2.1 2.9 0 6-.3 5.1-.1 19.4.2 24.6l.6 7.1a397 397 0 0 1 1.9 19.1c.2 0 .8-1.7.8-2.5 0-.2.1-.6.4-.9.4-.4.4-.2.2 2 0 1.3-.2 4.5-.1 7.1l-.1 16c-.4.3-.5-.6-.6-6 0-4.5-.2-5.8-.5-6.1-.3-.3-.4 0-.5 2.6-.8 13.8-1.2 18.5-1.7 18.5-.3 0-.3-.8-.2-4.2zm199.6 3c0-.6.2-1.2.3-1.2.1 0 .3.6.3 1.2 0 .7-.2 1.2-.3 1.2-.1 0-.3-.5-.3-1.2zm120.6.7c-.2-.3-.3-17.4-.1-17.6l.3 4.3c0 2.5.3 5 .4 5.8.4 1.7.3 7.5-.2 7.7-.1 0-.3 0-.4-.2zm9.4-5.8a258 258 0 0 0-.8-20.7l-.4-6.2a83.5 83.5 0 0 1 0-12.3c.2.3.4 1.4.5 4.6 0 2.4.2 4.5.2 4.7.1.2.4 4.3.6 9.2l.6 11c.2 1.6.2 13 0 15.1 0 .2-.1.4-.3.4-.3 0-.4-1-.4-5.8zm-326 3.6c-.4-1.8-.3-5 0-5s.5 3.4.3 5l-.2 1.3zm214.3.4c0-.3.1-.6.3-.5l.2.7c0 .3 0 .5-.2.5s-.3-.3-.3-.7zm-4.7-1v-1.3l.3 1v1.3c-.3.2-.4 0-.3-1zm11.4.8.1-.7c.3-.3.3-.2.3.4 0 .8-.2 1-.4.3zm68.5-3.2c0-1.4 0-2 .1-1.2v2.6-1.4zm-93.5 1.3c0-.3.2-.6.3-.6.1 0 .3.3.3.6 0 .4-.2.7-.3.7-.1 0-.3-.3-.3-.7zm16.8 0v-.3c.2.3.2.6 0 .8v-.5zm-197.5-3-.1-6.2.1-4.9c.3-.6.7 1.7.5 3.5v4.2c.3 3 .2 5-.2 5-.2 0-.3-.8-.3-1.7zm-34 1c-.6-.7-1-22.1-.5-23.4.2-.4.4-.5.6-.4.3.2.3 2.8.3 12.2 0 9-.2 12-.4 11.6zm214.7-1.5c0-.9.2-1.7.3-1.8.2 0 .3.5.3 1.6 0 1-.1 1.8-.3 1.8-.1 0-.3-.7-.3-1.6zM462 143c0-3.4 0-4 .4-4 .3 0 .4.3.2 1l-.3 3.8-.2 3zm-64.4 2c-.2-1.4 0-2.2.4-2.2 0 0 .2.8.2 1.7 0 2-.4 2.3-.6.4zm5.5.7.3-.3v.3c0 .1 0 .3-.2.3-.1 0-.2-.2-.1-.3zm115.4-1-.2-4c0-2.7-.3-7.7-1.3-18.9-.5-5.5-.3-10.8.4-10.8.3 0 .4.6.4 2.2 0 2.2.5 10 1 15 .4 3.2.6 7.1.6 12.8.1 3.3 0 4-.3 4.3-.4.4-.5.4-.6-.6zm-117.5 0c-.2-1-.2-6.4.1-6.5.2-.1.3 1 .3 3.4 0 3.4-.1 4.2-.4 3.1zm16 .2a3603.4 3603.4 0 0 1 .1-28 592.4 592.4 0 0 1-.1 28zm17.5-2.2c0-1.2 0-1.7.1-1v2-1zm-216-.2c-.7-4.6-.8-9.1-.3-8.6.2.2.8 6.7.7 8 0 1.8-.3 2-.5.6zm259.4-3.2c0-2.7 0-2.9.4-2.6.3.3.4.7.2 2.3-.3 3.3-.6 3.4-.6.3zM409 139c0-1.5 0-2 .1-1.3v2.6-1.3zm15.7 1.1c-.2-1.7-.2-4 .1-5.1.3-1.1.5 3.8.3 5.4l-.2 1.2zm-219.2-.3c-.3-.7-.5-24-.3-25.9.3-1.6.3 1.4.4 12.9 0 6.5.1 9.4.4 10.6.5 2 .5 2.8 0 3-.1 0-.4-.2-.5-.6zm235-2.4c-.2-5.6-.3-9.3-.5-24.5 0-8.4-.2-16-.4-16.8-.2-1.5 0-14.3.2-17.3a127.5 127.5 0 0 0-.3-25.2c-.1-1.6 0-2 .2-2.5.4-.5.5-.5 1 0a337.8 337.8 0 0 1 .1 27.3c-.2 2-.3 5.5-.2 7.6l.2 18.8.4 20.8a92 92 0 0 1-.2 14.6c-.1.1-.3-.9-.4-2.8zm-43.3-.2c-.1-2 0-2.6.2-2.3.2.2.3 4.4.2 4.4-.1 0-.3-1-.4-2.1zm107-5.9c0-2.1 0-2.8.4-3 .5-.4.5-.4.4 2.6 0 3.1 0 3.2-.4 3.2-.3 0-.4-.5-.4-2.8zm-300.6 1.2a70.8 70.8 0 0 0-.3-5.2c-.2-3.1 0-4.5.5-4a43.2 43.2 0 0 1-.2 9.2zm263.6-1.2c0-1 0-1.8.1-1.7.3.3.3 3.1 0 3.3l-.1-1.6zm10.9 1.3.1-1.3c.3-.8.3-.8.3.4 0 1.3-.1 1.6-.4.9zm-260.7-1c0-.3.1-.5.3-.5l.2.4c0 .3-.1.4-.2.4-.2 0-.3-.1-.3-.4zm191-4a1454 1454 0 0 0 0-13c.2-.3.3.3.3 2 0 1.4 0 4.7.2 7.4.2 6.7.2 6.8-.2 7.2-.2.2-.3-.5-.3-3.5zm-11.8 2.6.1-1c.3-.2.3 0 .3.7 0 1.1-.1 1.3-.4.3zm27.7-1.8c0-2 .1-2.5.4-2.5.3 0 .4.5.4 2.5s0 2.5-.4 2.5c-.3 0-.3-.6-.4-2.5zm38-.7c-.2-3-.2-6.3 0-6.5.4-.2.6 4.7.4 6.9l-.2 1.9zm-92-.9-.1-4.2c-.1-1.3 0-2.3.1-2.4.4-.3.5.1.7 4.4.1 3.7.1 4.2-.3 4.2-.3 0-.4-.4-.4-2zm96.7-.1a43.6 43.6 0 0 1-.5-6.7c-.4-4.8-.4-5.4-.2-4.8.2.3.4 1.7.6 3l.5 4c.3 2.1.3 6.2 0 6.4 0 0-.3-.8-.4-1.9zm5.2.2.2-1.4c.2-.1.3.4.3 1.3 0 .8-.1 1.4-.3 1.4-.1 0-.2-.6-.2-1.3zm-272.6 0a104.2 104.2 0 0 1 .2-15c.3-.6.4-.1.4 5.8.1 7.4 0 10-.3 10l-.3-.8zm200.3 0-.2-3.7a677.5 677.5 0 0 1-1.2-15.4c0-3.3 0-4.2.2-4.2.3 0 .4 1 .5 3.6.1 2 .3 4.3.5 5.2.6 4 1 15.3.5 15.3-.1 0-.3-.3-.3-.7zm72.4-2-.2-3v-3.1c0-5.8.3-8.3 1-8.7v3l-.4 7.6c0 3-.2 4.4-.4 4.1zm-255-2.6a12 12 0 0 1 0-4.4l.2-.6.1.6v6.2l-.3-1.8zm130.6-1.1c-.4-.3-.5-2.4-.4-6.5.1-2.5.2-2.8.4-2l.4 8.7-.4-.2zm114.4-1.6c-.3-.3-.2-1.9 0-2 .3-.2.4.2.4 1 0 1.2 0 1.3-.4 1zm-38-.8c0-.2.1-.3.3-.2.1 0 .2.3 0 .4-.1.4-.3.3-.3-.2zm-54.2-2c0-.3 0-.5.2-.5s.3.2.3.4-.1.4-.3.4l-.2-.4zm47.2-.5.1-.4c.2 0 .3 0 .3.3 0 .4-.2.5-.4.1zm-214.1-.6v-.4c.2.3.1.7 0 .8v-.4zm9.8-1.8c.1-2.6.1-2.7.4-1.8.2.9 0 4-.3 4 0 0-.2-1-.1-2.2zm248.6-3c-.4-6.7-.4-6.4.1-6 .4.4.5 1.4.5 5.7v5.3c-.2 0-.4-2.2-.6-5zm-36.8 3.6v-2.8c.3-.2.4.7.3 1.9-.1.5-.2 1-.3.9zM466 113c0-1 0-1.6.2-1.8.2-.2.3.2.3 1.5 0 1 0 1.8-.2 1.8l-.3-1.5zm-57.6.2c-.1-.3 0-.8.1-1 .2-.1.3 0 .3.8 0 1.1-.2 1.2-.4.2zm-60.7-4.7c0-2 0-2.5.4-2.5.3 0 .4.5.4 2.5s-.1 2.5-.4 2.5c-.4 0-.4-.4-.4-2.5zm66 2c-.2-.2-.2-2.3 0-2.5.3-.2.6.7.6 1.8 0 .7-.3 1.1-.6.8zm103.3-.4c-.1-3 .3-7.3.7-7.4.6-.3.7 0 .2 2.5l-.4 3.9c0 1.4-.5 2.3-.5 1zm-317.4-3.5c0-2.1.2-4.5.4-5.2.2-1.3.2-1.2.4 1.5.3 3.7 0 7.6-.6 7.6-.3 0-.3-.6-.2-3.9zm170.3 1.7c0-1 0-1.5.3-1.4.3.2.3 1.7 0 2.4-.2.4-.3.1-.3-1zm95.7-1c-.2-2.3 0-4.1.4-3.5l.3 3c.2 2.4.1 3-.2 3-.3 0-.4-.7-.5-2.5zm-252.3 1.6c0-.2.1-.6.4-.9.2-.4.3-.4.3-.1 0 .2-.1.6-.4.9-.2.3-.3.4-.3.1zm147.1-1.2c0-.7 0-1 .2-.6v1.4c-.1.3-.2 0-.2-.8zm48 .8-.3-2.9c-.2-2.4-.1-2.6.3-2.2.3.3.4.9.3 2.9 0 1.4-.1 2.4-.2 2.2zm4.7-2.8a42 42 0 0 0-.6-7.5c-.3-2.5-.3-2.9 0-3.2.4-.4.5-.3.6.8a89.7 89.7 0 0 1 .9 9.4c.1 1.1 0 1.3-.3 1.3-.2 0-.5-.3-.6-.8zm99.5-1.2c-.1-.9 0-1.8.1-2.4l.3-1.7c0-.8.3-1 .8-.7.3.1.3.3 0 .9a13 13 0 0 0-.4 3 8.4 8.4 0 0 1-.4 2.3c-.1 0-.3-.6-.4-1.4zm-164.3-3.1V100v2.4-1.1zm50-1.2-.3-4c0-1.3 0-1.6.3-1.6.6 0 .7 1.1.5 4.7l-.2 3.1zm-38 .3c0-.5.1-.8.2-.8.2 0 .3 1.3 0 1.4l-.1-.6zm-19.8-3.2c-.1-.6-.2-1.3 0-1.5a239.8 239.8 0 0 1 0-17.7V60.6c-.2-6.8-.2-8.3.1-8.3.3 0 .4.9.6 3.6a375.4 375.4 0 0 1 0 38.7c0 3.5-.2 4.5-.7 2.7zm19.9-1.2c0-1.1 0-1.5.4-1.5.3 0 .4.3.3 1.4-.1 2-.7 2-.7.1zm15.2-2.9c0-4.1 0-6.8.3-7 .4-.4.5 1 .5 4.2l-.1 5c0 1-.2 1.6-.3 1.6a12 12 0 0 1-.4-3.8zm-45 2.6.1-3 .3-3.2c0-2.3.3-8.4.5-10.4.2-1.4.3-6.9.3-15.5 0-15.8 0-16.7.2-16.7a232.6 232.6 0 0 1 0 39.6 106.8 106.8 0 0 0-.4 9.4c-.1 1-.8 1-1-.2zM398 93c0-.6 0-.8.1-.4v1l-.1-.6zm10.3.3c-.2-.4-.3-1.1-.2-1.6v-.8l.4.8c.2.4.3 1.1.2 1.6v.8zm-47.5-1.7c-.2-1 .2-2.1.5-1.4l-.1 1.4-.2.9zm51.4-.3-.2-3.7a127 127 0 0 1 0-11c0-1.2 0-3-.2-3.9-.2-1.6-.1-1.8.3-1.8.3 0 .4.3.4 1.4a173.5 173.5 0 0 1 .2 19.2c-.5.4-.5.4-.5-.2zm-4-1.2c-.3-1-.3-1.6.2-2 .3-.3.4-.1.4 1.2 0 1.6-.2 1.8-.6.8zM398 84.2c0-1.6 0-2.2.2-1.9l.2 1.9c0 .7 0 1.5-.2 1.8-.2.4-.2-.3-.2-1.8zm-50 1.6c-.2-.5 0-2.5.3-2.8.4-.3.7.7.6 1.8 0 1.2-.6 1.8-.9 1zm0-3.5c-.2-.6.3-1 .7-.5.3.4.2 1-.3 1l-.4-.5zm.1-2.4c-.1-.4.1-4.8.3-4.8.3 0 .5 3.5.4 4.4-.1.6-.5.8-.7.4zm20.7-6.3c0-1.9.1-3.3.2-3.2.2.2.3 6.2 0 6.4 0 0-.2-1.3-.2-3.2zm42.9-4.6-.4-4.7c-.6-4.4-1-9-.7-11 .1-1.4.2-1.5.3-.9l.2 2.4.3 3.2c.5 3 1 12 .6 12.4-.2.2-.3-.1-.3-1.4zm-112.3-1.7-.2-2.8.3-30.3c0-.6.5.5.7 1.6l-.1 1.3c-.4.2-.4 4.5 0 4.7l.2 1.1c0 .5-.1 1-.3 1-.1 0-.2.2-.2.6a92.6 92.6 0 0 1 .5 12.4c0 9-.2 11.8-.4 11.8s-.4-.6-.5-1.4zM78.7 61.5c-1.3-.4-1.5-1.5-.1-1.5 1.9 0 3.2 1 2 1.6-.8.3-.8.3-1.9 0zm205.4-4.8a90.8 90.8 0 0 1 .3-10c0 1.6.1 2.7.3 2.7.1 0 .3.4.3 1 0 .4-.2.8-.3.8-.4 0-.4 2.6 0 2.8.4.3.2 3-.2 3-.1 0-.3 0-.4-.3zm7.9-6.6c-.3-4-.6-16.7-.5-17.8l.2-1 .2 1c.4 1.8.5 4.7.2 4.7-.1 0-.3.1-.3.4 0 .2.1.3.3.3.4 0 .5 2 .7 8.4.1 5.5.1 6.2-.2 6.2-.4 0-.5-.5-.6-2.2zm148-1.3c-.4-1.2-.3-5.2 0-5.2.4 0 .5.7.6 2.7.2 2.8 0 3.8-.6 2.5zm-193.4-6.4c0-.8.1-1.5.2-1.5.2 0 .3-.2.4-.6l.1 1.5c0 1.6 0 2-.3 2s-.4-.3-.4-1.4zm37.5-3.5v-7.1c.1-2.6.2-3 .5-2.7.3.3.4 1.6.4 6.5 0 3.6-.1 6.1-.3 6.1-.1 0-.3.3-.3.6L284 39zm155.5 1a75.7 75.7 0 0 1-.4-8.8V17.8c0-11.5 0-12.7.4-13 .4-.5.4-.5.8-.1.3.3.4 1 .2 3.7-.1 1.8-.2 8-.1 13.6.2 18.8.2 18.3-.3 18.8-.4.4-.4.3-.6-1zm-188.8-.2a46.9 46.9 0 0 1 .4-7.8c.2 0 .4.2.6.5.2.7.5 6.2.2 7-.2.8-1 1-1.2.3zm-3.9-5.8c-.5-.2-.4-2.5 0-2.5s.5.3.5 1.3V34l-.5-.1zm52.6-1.4c0-.6-.1-1.4-.3-1.6v-.7c.6-.3.8.3.6 1.9-.2 1.4-.2 1.5-.3.4zm-48.7-3v-9.1l.1-2.1.2 2.4v3.6c0 .9 0 1.3.2 1.3s.3.9.3 2.8c0 2.2 0 2.7-.4 2.7-.3 0-.4-.3-.4-1.6zm-4.2-.9-.2-3.7a69 69 0 0 1 .1-11c.4-.4.7 6.5.5 10.8-.1 2.5-.1 3.5.1 3.5s.3.3.3.7c0 .3-.1.6-.3.6-.1 0-.3.3-.3.6 0 .4-.2-.3-.2-1.5zm44.8.6c-.5-.6-.4-2.3 0-2.7.4-.4.4-.2.4 1.3v1.7l-.4-.3zm7.8-1.4h.5l-.3.1c-.4 0-.4 0-.2-.1zm-15-3.7c0-1 0-1.2.4-.8l.4.8c0 .3-.2.6-.4.9-.4.3-.4.2-.4-.9zm.2-4.8h.5c0 .1 0 .2-.4.2-.3 0-.3-.1-.1-.2zm-.2-8.1c0-.5.1-.7.4-.7.4 0 .4.2.2.9-.3.6-.6.5-.6-.2zm-37.6-4.6c0-.3 0-.3.2-.1V7c-.1 0-.2 0-.2-.4zm.5-4c-.2-.1.3-2.2.6-2.5.4-.4.3 1.2-.1 2-.2.4-.5.7-.5.6zm4.2-1.6V.4c.3-.3.3-.2.3.2 0 .7-.1.8-.3.4z"/>
</svg>
