<?xml version="1.0" encoding="utf-8"?>
<svg xmlns="http://www.w3.org/2000/svg" xmlns:svg="http://www.w3.org/2000/svg" version="1.1" viewBox="0 0 221 180">
  <title>Yock-yock floats on her back in a large wooden washtub.</title>
  <path d="M184 179c-3.1-.2-13.5-.4-22.9-.3-5.6 0-7.3-.1-8-.7-.6-.5-.5-1.3.2-1.8.3-.2.5-.5.3-.6-.3-.3-4.7-1.4-5.5-1.4-.5 0-.8-.2-1.2-1-.5-.7-.7-.8-1.3-.7a81 81 0 0 1-11.4-.8c-4-.5-3.8-.5-13.1-.2-12.6.4-20 .3-24.2-.4-1.3-.2-3-.3-4.4-.2-1.5.1-2.7 0-3.3-.1a15 15 0 0 1-3.8-1.7c0-.2-1.2-.3-2.5-.4-2.4-.2-3.8-.7-7-2.6-1-.7-1.3-.7-5.9-.8a1192.3 1192.3 0 0 1-9.4 0l-4.2.5c-2.6.2-4.8.7-9.2 1.9-1.4.3-1.8 1-1.4 2 .6 1.5.3 1.7-3.1 1.6-2 0-4 .1-5.2.4-2.7.5-12.7 1.6-13.2 1.4-.2 0 .3-.2 1-.3l2.2-.6c.5-.2 2-.4 3.3-.5 2.8-.1 5.7-.7 6.1-1.3.3-.4.7-.4 3.7-.2 4 .4 4.5.3 3.6-1.2-.9-1.4-.6-1.6 3-2.5l3.5-.8c1.4-.4 3-.7 3.6-.7 2 0 11.4-1.9 11.5-2.3.1-.4-2.3-.8-5-1l-9.5.6c-1.5.2-5.4.4-8.7.4a149.4 149.4 0 0 0-11 .6c-3.8.2-4.2.3-3 .8.8.3 1 1 .5 1.2h-3a55 55 0 0 0-4.8.1c-1.7.2-2 .3-2.2.7 0 .3-.3.5-.6.5-.4 0-.5-.2-.4-.6.1-.4 0-.5-.6-.4-.7.2-4 .6-7.7 1-1.3 0-1.7.2-1.8.5 0 .6 1 1 3 1.2 3 .4 4 2.4 2.1 4-.5.5-.9 1-.8 1.2.2.2 5.1 0 8-.3 2.4-.3 3-.3 3 0l-3.4.5a1751 1751 0 0 0-18.8 2c0 .4-.8.1-1-.4v-.6a23.6 23.6 0 0 1 5.4-1c1-.2 1.4-.4 1.5-.8.2-.6 1.5-.9 2.3-.5.4.2.5.2.7 0 0-.3.3-.4.7-.3.3 0 .9 0 1.3-.2.6-.2.7-.4.7-1-.1-.7-.3-.8-2.1-1.3-1-.3-2.6-.8-3.3-1.2-.7-.3-2.2-.7-3.3-.8l-2-.4c-.8-.7 4.4-2.2 5.4-1.6H8c.2-.2.7-.3 1.1-.2.5.1 1 0 1.4-.2a7 7 0 0 1 2.6-.3c2.3 0 3 0 3-.6s.9-.9 2.8-.9a140.3 140.3 0 0 1 13-1.2c.8 0 2.2-.3 3-.5l3.5-.8c3.8-.7 6.2-1.7 7-3 .2-.4.9-1 1.5-1.4.7-.4 1.4-1 1.6-1.3.4-.6 2.5-1.6 3.3-1.6.2 0 .6-.2.7-.4.3-.2.2-.5-.3-1-1.4-1.8-1.5-2.7-.6-3.8l.7-.7h4c3.2 0 4.2 0 4.2-.2 0-.7-.4-1-1.6-1.2-.7 0-1.4-.3-1.5-.4l-.6-.2c-.6 0-.9-.4-.7-1 .1-.4.5-.6 1.4-.7.7-.1 1.2-.4 1.2-.6l-2.2-3.8a123.5 123.5 0 0 1-4.9-8.6c-.2-.5-.8-2-1.1-3.4-.6-2.7-.8-2.9-1.9-2.3-.4.3-.6.3-1 0-.5-.7-1.2-.6-2.7 0-1.3.6-1.6 1-1.6 1.8 0 .4-.3.6-1.1 1-2.7.9-3 1-4.6.6-1.6-.3-8-.4-11.2-.1a386.7 386.7 0 0 1-15.5.8c-.7.1-1-.1-1.3-.8-.2-.6-.3-.6-4.6-.6a36 36 0 0 1-4.8-.2c-.8-.5 0-.6 2.4-.6 1.5 0 4.3 0 6.1-.2l3.4-.2.1.7c.1.4.4.7.5.7l3.7-.2 9-.5c5.2-.1 8.9-.4 9.5-.8.1 0 .5 0 .9.3.5.3 1.2.4 3 .4l2.3-.1-.1-.8c0-1 .3-1.5 1.7-2.2.8-.4 1.1-.8 1-1 0-.2 0-.4.2-.5l.2-1.1c0-1 0-1 .8-.8.6.1.8 0 1-.4.4-.7.4-1.1 0-1-.2.1-.6 0-1-.2a4 4 0 0 0-1.7-.3c-2.4 0-2.3-1 .2-1.6 1.3-.3 1.5-.3 2.3 0l1.2.5c.4 0 .5-.6.1-1.3-.1-.3-.5-1.6-.7-3-.6-2.7-.6-2.7 0-4.4.3-1 .4-2.1.4-2.7l-1.6-10.7c-.1-1-.3-7.4-.3-16V65.4l.6-.1c.3 0 .6-.3.7-.8.2-.8.5-1.1 1.3-1.6.7-.4.8-2.5.2-3.8-.6-1-.7-2-.6-7.5a85 85 0 0 1-.6-15c0-5.8-.2-10.7-.3-11-.3-1 .3-3.8 1.2-4.8.4-.4.8-.8 1-.8.7 0 2.1-1 4.5-3.3 2.3-2.2 2.7-2.7 3.2-4.1.5-1.4.6-2 .4-4a10 10 0 0 0-.6-3c-.5-.8-.4-1 .4-1 1.2 0 1.5.6 1.7 3.7.1 2.4 0 3.1-.4 4.6-.5 1.5-.8 2-2.3 3.6a45.3 45.3 0 0 1-5.4 5c-1 .7-1 .8-1.4 3-.4 2-.4 2.7-.1 4.4.3 2.2.9 13 .8 16 0 4 .4 15 .6 15.8.3.8.4.9 1 .7.4 0 1.2-.3 1.7-.5 1-.4 1.1-.8.7-2.7l-.4-9.6c0-4.8-.3-10-.4-11.7a50 50 0 0 1-.4-11l.3-1.3h1.5c.8-.1 1.5-.3 1.5-.4l2.2-1.3c2.2-1 3.9-2.2 3.9-2.7 0-.1-.2-.2-.4-.1-.5.2-1.2-.5-1-1 0-.3.4-.4.7-.4 1.6 0 2.6-3.3 2.6-8.7 0-2.2 0-3.8.2-3.9h.8c.4.1.5.4.4 2.6a36.6 36.6 0 0 1-1.6 9.8c-.2 1-.2 1 .4.7l.7-.7.6-1.4.5-1.8c0-.6.2-1.3.4-1.7.1-.4.3-2.1.3-3.7 0-2.8 0-3 .6-3 .5 0 .5.2.5 2.6 0 1.4 0 3.1-.2 3.7-.3 1.6.2 1.7 1 .5 1-1.7 1.5-3.4 1-4.8-.3-1-.3-1.1 0-1.3 1.5-.5 1.8 2.6.6 5.6l-.7 2.1c0 .5 1.3-1.1 1.5-1.9 0-.4.3-.9.5-1 .6-.8 1.2-2.8 1-3.3 0-.4 0-.4.3-.3.3.1.4.5.4 1.7 0 .9-.2 1.6-.3 1.7-.3.2-.3.6 0 .6s.4-.2 1.1-2c.3-.9 1-1.2 1-.5s.4.5 1.5-.5 2-1.2 2.2-.2c.1.6 0 .8-1.8 2A159.5 159.5 0 0 0 65 19.7c-.6.4-1.4 1-1.8 1.5l-.8.7 1 .5c1.6.6 7 .9 15.9 1 8.3 0 13.6-.3 13-.6-.2-.1-.2-.3-.1-.4.3-.3 9.4-.2 13.3.2l13.3.2c24.4-.1 24.3-.2 34 .4a33.4 33.4 0 0 0 11.1.7h4.7c.3.2.7.2 1.1 0l1.2-.3c.9 0 2.8-1.1 4.3-2.5a469.2 469.2 0 0 1 5.7-5.5c4-4 4.4-4.3 4.2-4.5-.1-.1 0-.2.1-.2l1-.5c.5-.5.6-.5 1-.2.5.4.5.5-.4 1.2l-4.2 4-5.6 5.4a9.4 9.4 0 0 0-2.4 2.6c0 .3-.1.5-.4.6-.2.1-.4.3-.4.5s-.3.7-.8 1.2c-.7.6-1.1.8-2 .8l-1.7-.2c-1.2-.5-4.5-.6-19.7-.9a4691.3 4691.3 0 0 0-26.6 0l-7.4-.3-9.9-.4h-7.1c-2.4 0-5.6-.1-7.2-.3-2-.2-5.6-.2-11.3 0-9 .3-15.2 0-17-.6-.7-.4-.9-.6-.9-1.1 0-.6-.1-.7-.4-.6-.7.3-2 1.3-2 1.7 0 .1-.3.3-.7.4-1.3.1-1.7 1-1.9 4.6l-.1 3.2.8.4c.5.2 2.6.3 6.1.4 3 0 6.7.2 8.1.3l12.3.6 11 .4 17.5.5c3.6 0 4 0 4.5-.5s1-.5 3.7-.6c5.9 0 34.3.6 36 .8 2.4.3 12.5.4 13.2.1a14 14 0 0 1 2.7-.4c1 0 2-.3 2.2-.5l.4-1.5c.3-3.8 1-6.3 1.7-6.3.1 0 .6-.3 1-.8a140.4 140.4 0 0 0 7.4-7.7c4.9-5.2 6.6-6.8 7.3-6.5.8.3.4 1-1 1.7-.9.6-2.3 1.9-3.9 3.7l-4.6 5c-5 5.1-5.2 5.3-5.2 6 0 .3-.1 1.6-.4 2.8-.4 1.8-.4 2.4-.1 3.1.2.5.3 1.5.3 2.2 0 1.4.5 1.6 1.7 1 1.3-.7 1.7-2 1.8-5.1a14 14 0 0 1 .7-4.9c.3-1.6 1.6-3 3.9-4.3 2.5-1.5 3.3-2.1 4.4-3.7.6-.9 1-1.7 1-2l.6-.6c.4-.3.7-.7.7-1l.2-1c.2 0 .5-.8.7-1.5.4-1.3.4-1.4 0-2l-.9-1.4c-.3-.7-.3-.8.2-1.1.8-.6 0-1-2.6-1.1-3.8-.2-5.2-1.2-5.6-3.9-.4-1.7 1-3.4 1.9-2.4.3.3.3.5 0 1-.3.9-.3 1.5 0 2 .3.4.2.4 7 0l5.4-.3c1 0 1.9.7 1.9 1.3 0 .2.3.5.7.6.8.3.9 1.3.1 1.3-.4 0-.4.2-.3.6.1.5 0 .5-1.3.4-1.1-.2-1.3-.2-1.3.2 0 .3.2.4.8.4.7 0 .8.1.8.8 0 .7-.1.8-.7.8-.3 0-.7-.1-.7-.3-.2-.5-.7.3-.7 1.2 0 .9-.3.9-1 0-.6-.9-1.3-.8-1.3.1 0 .4-.2 1.1-.5 1.7l-.7 2c-.2.7-.7 2-1.2 2.8-1.5 3-2 3.7-2.1 4.5-.2.7-.4.8-1 .8-.7 0-2.3.9-2.3 1.3 0 .2-.4.3-1 .4-.5 0-1.1.2-1.4.5-.5.5-.7 1.8-.2 2 .5.4.2.8-.5.7l-.8-.2.1 2.1c0 1.2.2 2.4.4 2.7.2.4.2 1 0 2.6-.4 2-.2 3.6.3 3.3.1-.1.2 1.3.2 4.7-.1 5.2.2 17.9.4 19.7 0 .8 0 1.3-.2 1.6-.2.3-.3 1.8-.3 5.4a560.3 560.3 0 0 0 1.1 32.6c.6 1.3.4 2.5-.5 3.5a19 19 0 0 0-2.4 3.3 46.2 46.2 0 0 0-7.3 7.5c-1.2 1.5-1.3 1.6-1.4 6.4a70.3 70.3 0 0 0 1 10c0 .9-.7 2.3-1 2.1-.3-.2-1-1.6-1.2-2.5-.2-1-.4-1.1-1.5-.7-1 .4-2.3 2-2.3 2.5 0 .1-.4.7-1 1.3a8 8 0 0 0-1.2 2.2c-.5 1.4-.9 4-.8 5.2 0 .7 1.9 4.6 2.8 5.9.4.6 2.3 1.6 2.8 1.5.3-.1.8.2 1.2.6.4.5 1 .8 1.3.8.4 0 .7.2.8.4 0 .2 1 .3 3.6.4h3.6l.6-.7c.4-.6.6-.6.6-.3s.1.5.4.5c.2 0 .4-.2.4-.5s.2-.6.7-.8c1.3-.4 2.3-1.6 3.5-3.8 1-2 1-2.3 1.1-4.4 0-1.7.2-2.4.5-2.8.3-.4.3-.7-1.2-3.5a25 25 0 0 0-2-3.4c-.6-.5-2.4-1.2-2.7-1l-.2 1.9c0 6.9-1.3 10.7-3 8.8-.4-.5-.4-.6 0-1.5.4-1.1.5-2.1 0-2.4a219.9 219.9 0 0 0-.4-10.8c0-4.8 0-5.5.4-6.3.6-1.1 2.6-3.6 5-5.9 2.6-2.6 3.6-3.7 3.6-4.5 0-1.2-.6-1-2.2.6-.9 1-1.7 1.7-1.9 1.7a6 6 0 0 0-1.6 1.2c-.6.7-1.3 1.2-1.4 1-.5-.4 3-4.8 5.3-6.8 1.3-1.2 1.4-1.4 1.9-3.4.5-2.2.5-4 0-11.2a257.5 257.5 0 0 1 .2-26l-.1-3a7327 7327 0 0 0 0-28.7c.2-.1.3-.5.3-.8 0-.5-.5-1-1.5-2-.8-.8-1.4-1.6-1.4-1.9 0-.2-.1-.5-.3-.5-.3 0-.3.2 0 1.4l.3.9-.5-.7c-.6-.6-.9-1.8-.7-2.1 0-.1.5-.2 1 0 .5 0 .7 0 .7-.4 0-.5-.7-.8-1.3-.4-.5.3-1.3.1-1.3-.3l-.2-.6c-.1-.2 0-.4.5-.3l1.2-.2c.4-.2.8 0 1.7 1 1.3 1.4 1.4 1.4 2.5.8l1.2-.4c.4 0 1.8-1.4 1.8-1.8 0-.2.2-.3.5-.4.4-.2.5-.4.4-.7 0-.3 0-.5.4-.6.3 0 .8-.6 1.2-1.3l1-1.4c.6-.4 2.3-3.6 2.3-4 0-.3-.1-.7-.3-.8-.3-.3-.2-.4.2-.4.7 0 1-.6.6-1.4-.2-.5-.3-.8 0-.9l.4-1 .5-.8c.2-.1.6-.8 1-1.5.3-.7.7-1.2.8-1.2.3 0 .3 1.3-.3 9.9a297 297 0 0 0-.4 6.6c-.3 7.5-.4 9-.7 11.3-.2 1.8-.2 2.5 0 2.9.4.6.4 2.3 0 2.4-.2 0-.2.2-.1.3.3.4 2.8-2.4 2.8-3 0-.6-.3-.7-.7-.2-.3.2-.4.1-.4-.4 0-.4.2-.8.5-1 .4-.2.5-.5.5-1.2l.4-4 .3-3 1.3-1.4c.8-.7 1.6-1.2 1.8-1.2.2 0 .3-.3.2-.8l.1-2.2.5-4.6.7-5.4c.4-2 .6-2.3 1-2.3.5 0 .6.2.6 1.8.1 1.5 0 2-.5 2.6-.5.7-.5.9-.2 1a54.2 54.2 0 0 0-1 8.3c0 .4-.1 1-.3 1.2-.4.3-.3.4 0 .7.3.1.7.6.9 1 .3.8.3 1.2 0 2.8l-.6 3.6-.1 1.8.6-.3 1.2-.8c.9-.8 3.5-1.6 3.5-1a11 11 0 0 1-3 1.5l-2 1.6-3 2.5-2 2c-.3.5-1 1.2-1.3 1.5-.4.2-1 1-1.5 1.5a92.3 92.3 0 0 0-5.4 9c0 .3-.3 1-.6 1.5a17 17 0 0 0-1.2 5c-.1 1.1-.8 4.2-1.1 4.8-.3.4-.5 2-.6 4a14457.2 14457.2 0 0 1-.8 11.2c-.3 2-.1 11 .3 12.8.1.7.3 3 .3 5a64.3 64.3 0 0 0 3.3 20.4c-.1.2 0 .7.2 1.2s.5 1.6.6 2.6l.7 2.6 1 2.8c1 2.5 2 4.7 3.5 6.8.7 1 1.2 2 1.2 2.3 0 .3.3.8.7 1.1.4.4.7.8.7 1 0 .5.9 1.6 3 4 .9.9 2 2.3 2.7 3.2.7.9 1.5 1.6 1.7 1.6.3 0 .6.2.7.6 0 .3 1.2 1.5 2.5 2.7 1.2 1.1 2.3 2.2 2.3 2.4 0 .2-.4.6-.9 1-1 .7-2.5 1.2-2.5.7l-1.3-1.6c-1.3-1.4-6.1-7.5-6.6-8.4-.3-.6-.5-.6-1.7-.5a51 51 0 0 0-8.1 1.7 12 12 0 0 0-4.4 1.9c0 .1-.6.3-1 .3-.7 0-1.5.4-2.9 1.3-1 .7-2.5 1.4-3.1 1.5a936 936 0 0 0-5.4 1.1c-.3.5-5.7.3-7.4-.1-2-.6-3.4-.6-5.3 0l-2.3.5c-1 .2-1 .5 0 1 .7.2 2.1.3 5.4.3 3.8 0 4.7.1 5.4.5.6.3 1.6.5 3.4.5 2.5.1 2.6.1 2.7.7 0 .6 0 .7-1.3.5l-3.7-.3c-1.6-.1-2.4-.3-3-.7-.6-.4-.8-.5-1.5-.2-.9.3-6.4.3-7.8 0-.4 0-1.6 0-2.7.2-2.7.4-4.2 1.5-5.3 3.8-.4 1-1.3 2.2-1.8 2.8-.9 1-1.3 1.2-2.7 1.5l-3.2 1a59.5 59.5 0 0 1-11 2.8c-.9 0-1.5.3-1.5.4-.2 1 4.5 1.6 11 1.3h5c1.5.4.4 1.5-1.4 1.5-.4 0-.8.1-.8.3 0 .3.9.8 1.5.8l2.3.5c2 .6 2.3 1.3 1 2-.9.4-1 .9-.5 1l13.6.3c7.2 0 14.3.2 15.7.4 5 .5 12.7.4 12.7-.3 0-.4 1.7-.7 3.2-.6 4.2.4 12.4.6 14 .3 2-.3 2.4-.5 1.9-1.1-.5-.5 0-1 .7-.9.3 0 .5.4.5.9 0 .4.3 1 .5 1 .3.3.2.4-.4.4l-2 .3c-1.3.3-8.5.2-14.5-.2-2.8-.1-2.8-.1-2.8.4 0 .3-.3.7-.6.9-.7.4-8.8.2-13-.2zm-56.7-9.4a78.5 78.5 0 0 0 7.1-1.2l2.5-.5c1.2-.3 2.9-.5 3.7-.6 2.2-.3 5.4-1.4 8.2-2.9l1.5-.5c.6 0 1.5-1.6 1.4-2.7 0-.4.1-1.4.5-2.3.3-.9.5-1.7.4-1.8l.1-.5c.8-.9-.7-1.6-1.6-.8-.5.4-6.8 3.6-8.2 4.2-1.2.4-1.6.7-1.6 1.3 0 .3-.3.7-.6.9-.6.4-1.4.5-7.9 1.6-3.5.6-3.7.6-3.1.9.7.4 8.2-.8 13.5-2 2.2-.6 2.9-.6 2.9.2 0 .3-.3.5-1.3.6-1.3.1-5.5.9-10 1.8-3.5.6-5.2.6-5.9 0-.3-.4-1-.7-1.8-.8-.8 0-1.3-.2-1.3-.3.2-.4 2.6-1 4.7-1.3 7.6-1.2 8.2-1.3 8.2-1.8 0-.8-1-.7-9.2.6-2.4.3-5.1.6-7 .6l-10 .2a52.5 52.5 0 0 1-22.4-2l-3-.7c-3-.3-5.8-1-7-1.6-.8-.3-2.5-.8-3.8-1a45 45 0 0 1-5.5-1.2c-.3 0-1-.4-1.8-1-1.3-1-2-2-2-3l-.6-1.4-.5-1.4c0-.4-.4-.5-.6-.1 0 .1-.3.2-.6.1-.5-.1-.9-.8-1.7-3l-1.6-4.1c-1.7-4.1-4.6-13-5-15 0-.8 0-1 .3-1 .6 0 1 .8 1 1.9 0 .5.4 1.8.8 3 .5 1.6.8 2.2 1.4 2.4.8.4 1.4 1.3 1.6 2.5.4 1.9 5.2 12.7 5.8 13 .3 0 .8 1.3 1 2.6.1 1.1.2 1.2 1.3 1.6.7.2 1.5.6 2 .9.7.5 3.8 1.4 5 1.5.3 0 .7-.2.8-.3.3-.4 1-.3 1.7.3 1 .9 2.6 1.4 7.3 2.3l6.5 1.4c6.5 1.4 7.6 1.6 11.6 1.6 11.2 0 13.2 0 13.8-.3.3-.2 2.8-.3 5.6-.4 2.8 0 6.5-.3 8.3-.5 1.7-.3 4.3-.5 5.7-.5 2 0 3-.1 4.4-.6a42.3 42.3 0 0 0 10-4.9c.5-.2 1-.5 1.2-.8.1-.3.4-.5.5-.5a5 5 0 0 0 1.3-.7c1.3-.9 2.3-2.3 2-3-.1-.8.3-1.6 1-1.6.3 0 .6-.4 1-1.1a55 55 0 0 0 3.3-9.2c.4-1.3 1-3.3 1.2-4.5a80.1 80.1 0 0 1 4.3-14.3c.3-.6.5-1.3.4-1.6-.1-.8-3.1 1.7-3.1 2.7l-.4 1.2-.7 1.8-.5 2.2-1.5 6.7c-.6 2.9-1 4.3-2.2 7.8-1.1 3.4-2 4.8-2.3 4.3-.2-.3-.1-.9.5-2.2a72.6 72.6 0 0 0 4.8-18c.2-1.6.2-1.7-.3-1.7-.3 0-.6 0-.7.2-.1.2-.8.5-1.5.7-1.3.3-2 .7-4.6 1.9l-1.9.7c-.4 0-.5.3-.5 1.4 0 1.3-.7 5-1.3 7.5l-.8 3.8a83.2 83.2 0 0 1-2.4 10.2c-.5 1.8-1.9 4.8-2.2 4.8-.5 0-.5-.5 0-1.3 1.4-2.4 2.6-6.7 4.7-17.5 1.7-8.6 1.7-8.8-.1-8.2l-2.4 1c-.7.3-1.7.6-2.1.6-1.1 0-1.4.3-1.6 2.3 0 .9-.6 3.6-1 6l-1.8 8.2c-1.3 7-2.4 10.7-3.2 10.7-.3 0-.3-.8 0-1.2a143.5 143.5 0 0 0 5-22.6c.5-2.1.4-2.8-.3-2.8-.4 0-.6.3-.7 1.2a58 58 0 0 1-1.1 6.4c-.7 4-1 5.3-1.3 5.3l-.2-.2a231.3 231.3 0 0 1 2-12.7c-.1-.1-7.4.6-8 .8-.4.2-.8 2.3-1 5.4-.2 2-.3 2.4-.6 2.4s-.4-.2-.3-1.3c.3-2.5.5-6 .4-6.2 0-.3-1.6-.4-2.4-.2-.3 0-.4.4-.4.8s-.2.9-.4 1c-.3.4-.6 2.5-1.4 8l-.5 3.2a32 32 0 0 0-1 7.3c0 2.2-.3 4.5-.3 5-.2 1.3-1 2.2-1.6 2-.5-.3-.5-1.3 0-1.5.6-.2.7-.6 1.3-6.4a83.8 83.8 0 0 1 2.1-14c.4-.4 1-4.8.8-5-.1-.2-5.5-.3-17-.4-5.4-.1-15.9-.6-16.1-.8v-.6c.3-.4.5-.4 2.8-.3l3.3.3c1.4.2 11 .5 13.7.4 3 0 6 0 11 .2 2.1 0 4.3 0 5.1-.2l4.4-.4c5-.2 6-.4 7-1.1.6-.5 1.5-.8 3-1 3-.5 8-2.3 11-3.8a62 62 0 0 1 5.7-2.8c.2 0 .5-.4.6-.7 0-.3.2-.5.4-.5.4 0 2.3-1.3 3-2 .3-.4.8-.7 1.2-.9.5-.2.8-.6 1.5-3l2.6-9c.3-1.4-.6.5-1.3 2.7-.7 2.1-1 2.4-2.8 4.3-1.9 2-2.2 2.1-4.1 2.8-1.2.3-2.8 1-3.6 1.4-.8.5-1.9.9-2.5 1l-2 .4c-.4.3-1.4.6-2.2.7l-2.2.5-1.7.4-2 .7c-.6.3-2 .6-3.6.8l-4.5.5c-2.5.4-4.9.4-9 0-2.6-.2-3.7-.2-5.2 0a88 88 0 0 1-12 .3c-12.2 0-12.1 0-12.1-.4 0-.2 4.8-.3 18.2-.4a433 433 0 0 0 20.7-.3c1.4-.1 3.8-.6 5.3-1 1.6-.5 3.8-1 5-1.2a30 30 0 0 0 7.7-2.4c4.5-1.9 6.8-3 7.3-3.7a6 6 0 0 1 1.2-1c.4-.3.7-.7.7-1 0-.2.2-.7.5-1l.9-2.1c.4-1.4.4-1.5.3-.4v1.1c.3 0 1.2-2 1.6-3.6.2-.8.6-1.7.9-1.9.5-.4.8-2 .8-5 0-2.8-.2-3-.7-.3a74 74 0 0 1-1.7 6.3c-.5 1.8-.4.5.5-5 1.2-7.8 1.2-7.5 1.9-7.5s.7-.2 1-2.6l.5-4.9c.5-3.9.5-7 .2-7-.2 0-.4.3-.6.5-.5.7-4.1 3.8-4.4 3.8-.5 0-2.8 1.2-3 1.7-.6.6-4 1.6-7.4 2-1.5.1-3.1.4-3.6.5l-3.5.4c-3.5.2-4.5.4-5.3.9-.6.4-1.7.4-4.7.2-1.8-.1-8.2.2-10.7.6-1.5.2-12 .7-14.4.6l-3.4-.3c-3-.4-3.2-.3-2.8 1.1v3.1c-.4 3.5-1 17.5-1 21 0 3.4 0 4-.8 3.7-.3-.1-.4-.4-.2-1.2l.3-7.7c.1-7.6.3-10.2.6-14.3a14 14 0 0 0-.2-6c-.2-.2-1.7-.3-6.4-.4-4.9 0-7.1-.1-10.3-.6a120.6 120.6 0 0 0-15.7-1.2c-.8-.3-1.1-.3-1.3-.1-.3.5-.5 3.3-.4 4.1.2.5 0 .9-.2 1.1-.5.4-.4.4-.9-1.6a9 9 0 0 1-.1-2.6c.2-1.6.3-1.5-3-1.8-3-.4-4-.6-4.8-1-.3-.2-.7-.3-1-.2l-.7-.1c-.2-.2-1-.4-1.7-.6l-3.4-1.1c-2.9-1.2-3-1-3.2 4.3l-.3 4.3a216.1 216.1 0 0 0 .3 19.2c.5 1.2.4 2.2-.2 2.3-.7.2-1-.8-1.2-4a278.5 278.5 0 0 1 .3-27.7l-.6-1.5c-.2-.4-.5-.8-.7-.8a29.7 29.7 0 0 1-7.2-2.5c-.2.1-.2 7-.1 10.3v2.9a63.5 63.5 0 0 0 .4 13.9c.2 2.2.7 6.7 1 7.5.3 1 .2 2.8-.2 3.9a13 13 0 0 0 1 6.6c.2.3.3.3.7 0 .8-.4 1-.4 1.4.4.4.9 3.7 2.4 6.9 3.2 1.2.4 2.4.8 2.6 1.1.5.5 2.2 1.1 4.7 1.6 1.3.3 1.7.5 1.6.8 0 .2-.3.4-.6.4a54 54 0 0 1-13-3.7c-1.4-.8-2-1-2.7-.8-.9.2-.9.2-.7 1.1a189 189 0 0 0 4.6 13.2l.6 1.2c0 .6 1.4 2.4 1.8 2.4.3 0 .6.2.7.7a3071.7 3071.7 0 0 1 5.3 10c.3 1 .8 2 1.1 2.2a18.8 18.8 0 0 1 3 6.4l1.2 2.8c.3 1.4 5 3.6 11.2 5.5 2 .6 3.7 1.4 3.5 1.5h.5c.5 0 4.3.5 7.1 1 .7.2 3.1.4 5.4.6 2.4.1 4.4.3 4.6.4l5.5.5 5.2.4.5-.6c.4-.6 1-.5 1 .2 0 .2.4.4.8.5l1 .3c.4 0 11.5-.1 12.8-.3zm5.8-2.8c-.7-.4.2-.7 2-.8 1 0 3.2-.3 5.2-.7 4.6-.9 5.5-1 5.5-.6s-.7.7-2 1c-.6 0-2 .3-3.2.6-2.5.6-7 .9-7.5.5zm-25.8-.7c-.7-.4 0-.8 1.7-1 1.4-.2 1.6-.1 1.6.3 0 .2-.1.4-.3.5-.8.3-2.8.4-3 .2zm-20.6-1.9c-1.6-.3-3-1.8-2.2-2.6.4-.3.5-.3 1.2 0l1 1c0 .3.4.5 1.3.6 1.3.2 1.7.6 1.2 1-.5.3-1 .3-2.5 0zm45.5-8.3c-.1-.2.2-1.4.7-2.7a46.6 46.6 0 0 0 2.8-13.4c.3-3.5.5-4.3 1-4.1.3.1.3.5-.4 5.9a44 44 0 0 1-2.5 12.6l-.5 1.7c-.3.5-1 .4-1.1 0zm-25.2-3.4.6-7.4c.3-3 .5-7.5.5-10 0-3.5.1-4.9.4-5.2.2-.2.4-.3.5-.2a138.4 138.4 0 0 1-.8 21.8c-.3 2.3-.4 2.8-.8 2.9-.4 0-.5-.2-.4-1.9zm45.2-2.3c0-.1.2-.8.6-1.4.3-.6 1-2.2 1.3-3.4a188.5 188.5 0 0 0 5.7-22.2c.5 0 .5 1 .2 2.2l-1.1 4.8c-1.4 6.5-4.2 16.4-5.5 18.9-.5 1-1.2 1.7-1.2 1.1zm-9-4c0-.1.3-1.1.8-2 .4-1 1-2.7 1.2-3.8.4-2.4 1.3-5.2 1.7-5.5a160 160 0 0 0-.6 4.8c-.3 1.9-1.7 6.1-2.1 6.7-.4.5-1 .4-1-.1zm-42.6-20c-.4-.1-.9-.3-1-.5 0-.3.2-.4 1.2-.4s1.3.1 1.3.4c0 .4-.4.6-1.5.4zm40-6.2c0-.2.4-.3 1.1-.3.7 0 1.2.1 1 .3 0 .2-.5.3-1 .3s-1-.1-1-.3zm-71.3-4.4a97.4 97.4 0 0 0-7.8-2.1l-1.2-.4c-1.5 0-4.5-1.5-4.5-2.3 0-.5.3-.4 1.8.3.7.4 3 1 5 1.6a140.5 140.5 0 0 1 9.5 3c0 .6-.4.6-2.8-.1zm5.6-2c-.3-.1-.4-.8-.5-2 0-1-.2-2.8-.4-3.8a8 8 0 0 1-.3-2l-.1-1.6-.3-1.5.1-2.1c.1-1 0-2-.1-2.2-.2-.2-.2-.4 0-.5.2 0 .3-.6.2-1.1l.3-3.7.4-3.6c.2-1.2.7-2.2 1-1.9.1.2 0 2.3-.2 5.4a68.7 68.7 0 0 0 1 18.7c.4 1.6-.1 2.6-1 2zm-19.5-.6-2.8-1.3c-1.3-.6-3.6-2.7-3.6-3.4 0-.5.7-.1 1.6.8 1 1 2 1.6 2.3 1.3l-.2-3.2a145 145 0 0 1-.7-7.8 8.9 8.9 0 0 0-.5-3c-.2-.1-.2-.3 0-.5.3-.3.3-.5 0-.7-.2-.2-.2-.4 0-.7a8 8 0 0 0 .3-3c0-3.3.3-8.5.6-9.3.2-.3.4-.5.7-.4.3.1.4.5.2 2.2A40 40 0 0 0 53 92c.2.3.1.8 0 1.5-.3.5-.3 1.1-.2 1.3.1.2.3 2 .3 4a47.3 47.3 0 0 0 1.5 12.1c-.1.4.3.7 1.6 1.3l1.8 1.1c0 .4-1.2.3-2.6-.4zm103.5-5.3c-.1-.2 0-1.1.1-2l.6-3.9a38 38 0 0 1 1.5-7.5h.5c.3.2.3.7-.2 2.4-.7 2.6-1 5.7-1.1 8.9 0 2.2-.1 2.4-.7 2.5-.3 0-.6-.1-.7-.4zm3.9 0c-.3-.2-.2-.6.1-1.5.5-1.4 1-4 1.5-8.8l.7-5.7c.5-4 .4-4.6-.2-4.4-.3.2-.4 0-.2-2 0-1 .2-2.3.4-2.6.4-.7 1.2-.7 1.6 0 .3.5 0 4.2-.6 8.6l-.6 4.4c-.2 2.5-1.1 8.9-1.5 10.6-.3 1.5-.7 2-1.2 1.4zm3.9-2.3c-.3-.1-.3-.6.2-2.6l.8-4.5c2-14 2.8-18.3 3.2-18.4.5-.2.6.8.2 2.8a70.5 70.5 0 0 0-1.4 8 227 227 0 0 0-2 14.7c0 .2-.7.2-1 0zm3.2-3.4c0-.4 0-.5.2-.3v.6c-.1.2-.2 0-.2-.3zm-34.2-4c-2-.2-3-1-3.5-2.2-.4-1-.4-1.4-.2-2.4.2-.6.3-1.3.2-1.4-.3-.5.1-1.6.7-1.6.7 0 .8.4.9 2.6v2.2l1.1.6c1 .4 1.3.4 4 .1a43.6 43.6 0 0 1 10.2-1c5.5.1 5.8 0 6.1-1.4 0-.4.3-.7.5-.7.6 0 1-.9 1-2.2V89c.2-.2 0-.3-.3-.3s-.6-.1-.7-.3c-.2-.3.3-1.3.7-1.3.6 0 1.8 1.5 1.8 2.2 0 .4.2.8.3.9.2 0 .3.8.2 2-.1 1.5-.3 2-1 2.8a8 8 0 0 1-2 1.7c-1.2.6-1.5.7-6.5.8l-7.1.3c-4 .3-5.2.3-6.4.2zm10-7c-.5-.3-1-.6-1-.8 0-.3 1.9-.8 4.5-1.1 3-.4 3.5-.4 3.7 0 .5 1.6-4.8 3-7.2 1.9zm-11.5-.7c-.6-.3-.8-.9-.2-1 .6-.3 1.7.3 1.7.8 0 .6-.5.7-1.5.2zm-82.6 68.4c0-.3-.2-.4-1-.3-1.8.3-2 .8-.4.8 1.1 0 1.4-.1 1.4-.5zm13.8-.6c0-.5-.4-1.6-.9-2.5-.5-1-.7-1.8-.6-2.2 0-.4 0-.7-.4-1-.3-.1-.8-.7-1-1.3a4 4 0 0 0-.8-1.3c-.4-.3-6.1-.4-7.4-.2-.4 0-.8.2-.8.3l1.6 1c1.6 1 2.7 2.2 2.4 2.9 0 .2-.6.7-1.3 1-1 .6-1.7 1.5-1.4 1.9l1.6.3c.8.2 1.8.6 2.3.9 1 .6 4 1.2 5.7 1.2 1 0 1.1 0 1-1zm149.7-3.4c0-.2 0-.3-.2-.4-.2-.1-.3 0-.3.2s.1.4.3.4c.1 0 .2 0 .2-.2zm-18.9-14v-11c0-1.7-1.1-6.3-1.5-6.3-.5 0-.5 1.7-.4 9 0 7.4.1 7.8.6 8.1l.8.6c.5.5.7.3.5-.4zm3.1.2c.2-.6-.5-5.5-.9-6.1-.3-.6-.3-.5-.4 1-.1 1.6.3 4.6.6 5.2.2.3.6.2.7-.1zm-6.4-9.3c.3-2.4.2-4.5-.4-8.3l-.6-4.9c0-1.5-.2-3.1-.4-3.5-.3-.7-.2-.9.3-1.2.8-.5.7-1.1 0-1.1-1 0-1.2 1.2-1.3 7.7v8c-.1 2.3 0 2.5.8 4.2.5 1 1 1.7 1 1.6.2-.1.4-1.2.6-2.5zm-4.6-1c0-.3-.1-.2-.1.1 0 .3 0 .4.1.3v-.5zm1-2v-1l.3-6.9c0-6.6 0-7-1-5.7-.5.5-.6 1-.6 6.3 0 4.8 0 5.7-.4 5.7-.5 0-.7-1.3-.6-4.2 0-2.4 0-2.7-.5-3.2l-.5-.6.6-.7c.3-.4.5-.8.3-1-.4-.4-1.7 1.3-1.8 2.3l-.3 1.7c-.1.8.2 2 .8 2.6.3.2.4.9.4 1.7 0 1 .2 1.5.7 2.2.8 1 1.2 1.2 1.2.6 0-.2.2-.6.5-.8.5-.5.5-.5.4.4-.1.7-.1 1 .1 1s.3-.1.3-.3zm-141-5.5c.4-.1.7-.4.7-.6 0-.7-.8-2-1.3-2-.7 0-1.2 1.7-.9 2.4.4.6.6.7 1.5.2zm145.1-2.8c0-2-.2-3-.6-3-.1 0-.2.7 0 2 .2 3.2.6 3.8.6 1zm-16.1-8.5c0-.3-.2-.5-.4-.5s-.4.2-.4.5.2.5.4.5.4-.2.4-.5zm3.7-4.8c.2-.4.5-2.3 1.2-10.7.3-3.3.5-4.8.9-5.7l.8-1.4c.1-.1.2-.5.1-.9-.3-1.9-.5-6.5-.3-6.9.2-.2.2-.4-.2-.6-.4-.3-.4-.6-.2-2.7.4-2.9.5-32.6.3-33.4-.3-.5-2.3-2-3.5-2.4-1.2-.5-7.4-.9-15.6-1-4 0-7.4-.2-7.6-.3l-11-.3c-13.4-.2-13-.2-20.7 0l-8.1-.1c-1-.2-3-.2-5.3 0-6.4.5-8.1.6-8.6.3-.2-.1-3.6-.3-7.6-.4a208.9 208.9 0 0 1-16.9-.8c-5.6 0-15.5-.6-16.5-1-.8-.2-1.1-.2-2 .3-1.1.6-1.2.6-1 1.6.2 1.9.2 3.5 0 3.6-.3.1-.6-1-1.1-5-.1-.8-.3-1.2-.6-1.2s-.4.2-.2.8a81.8 81.8 0 0 1 1 11.4c.3.4-.3 1.5-.9 1.5-.3 0-.5 0-.5-.2l-.1-4.7c-.1-5.1-.6-9.6-1.1-9.6-.5 0-.6.5-.4 2.6.2 1.6.9 10.4 1.1 14.9.1.7 0 .9-.5 1-.6 0-.7-.1-.6-1.2 0-.4 0-.6-.2-.6-.4 0-.6 3.3-.3 4l.3 1.4c0 .6 0 .7 1 .5.5 0 1.5-.3 2.3-.5l2.4-.4 2-.4.9-.3V56c0-1.3 0-3.1.2-4.2.3-2.2-.2-4.9-1-5.7-.3-.3-.4-.6-.2-.8.1-.2.3-.6.3-1s.3-.7.7-.7c.6-.1 2.7 1 2.9 1.7 0 .2.3.4.6.5.2 0 .7.6 1 1.2l1.3 1.3c.3.2.9 1 1.4 1.9.8 1.4 1 1.5 1.7 1.5.5 0 1.1-.1 1.5-.3l2.3-1.2c.9-.4 1.8-1 2-1.3 1-.9 3.7-1.8 6.3-2 1.2-.2 1.7-.1 2.2.2.5.3 1 .4 1.4.3.7-.2 2.6.3 4 1 1 .6 1 .6 3.5-.6l3.6-1.5c.8-.2 1.6-.6 1.8-.9a14 14 0 0 1 4.2-3c.2 0 .7.6 1.1 1.3a9 9 0 0 0 1.1 1.5c.2.1.4.7.4 1.3 0 .6.2 1.5.5 2 .6.9.6 1 .3 2.8l-.2 2h4c2.2 0 5 .2 6.3.3 1.8.3 2.4.3 2.8 0 .8-.4 16.2-.6 18.8-.2 1 .2 1 .1 2-1.3l1.2-1.6c0-.2.2-.5.5-.8.5-.5.7-.6 1-.3l.3.6c0 .6.5.7 1 .4 1-.6 1.8.5 2.2 2.5.6 2.7.7 2.8 1.5 2.5.9-.3 3.4 0 5.5.8l3.3 1.2c9 3 12.3 4.6 16.7 8.6l1.4 1.3v1.6c0 .9 0 1.7.2 1.8.4.2.3 1.8-.1 3-.6 1.8-1 5-.8 5.5.3.5 0 3-1.2 9.7a186.5 186.5 0 0 0-1.8 12.5c-.2 4 .2 4.1.7.2.5-3.3 1.7-9.5 2-9.8 0-.1.3 0 .5.3.3.3.3.6.1 1.1a50 50 0 0 0-.4 6.4l-.1 5.8.6.6.7.7.3-1.5c.2-1 .2-2.1 0-3.8-.2-2.2 0-5.1.7-9.8.2-1.4.5-1.6.8-.5.3 1 .4 1.2.8.8.2-.1.4-.6.4-1s0-.8.2-1c.5-.2.6.5.1 2a40 40 0 0 0-.6 2.8 75.7 75.7 0 0 0 0 11.7c0 1 .3 1.1.8.6zm3-4.1c.4-1.4.5-2.9.4-6.2a39 39 0 0 0-.1-4.5c-.5-.7-.7.7-1.2 5.6-.6 6.9-.6 6.9 0 6.9.4 0 .6-.4 1-1.8zm-55.1-20c3.1-.3 7.7-.5 10.3-.6a24.8 24.8 0 0 0 7.1-1c.4.1 1 0 1.6 0 1.3-.2 3.5-.3 4.8 0 .9 0 1.5 0 2.4-.4.7-.3 1.3-.7 1.3-.8 0-.3 2-1 5-1.5 2.4-.5 5.6-1.4 7-2.1a15.6 15.6 0 0 0 5.9-6.5c.3-.3.4-.7.3-1.8-.1-1.3-.2-1.5-1.5-2.7a33 33 0 0 0-8.9-5l-3-1.2a77 77 0 0 0-8.1-2.7 23 23 0 0 0-2.3-.3c-1.4 0-1.6 0-1.6.4 0 .3-.1.7-.4 1-.3.5-.3.8-.1 1.2.2.2.3 1.1.3 2 0 .8 0 1.4.2 1.4.5 0 2.2-1.7 2.7-2.7.6-1.2 1-1.2 1.4 0 .2.7.4.9.9.9.7 0 .7 0 .6 3.9 0 1.4-.1 2.4-.4 3-.5 1-.5 1 .4 1.1l.9.2-.2 1.6.1 1.7c.2 0 1.5.3 3.1.4 2.8.3 4.3.1 5.7-.6.4-.2.5-.3 0-.6-.3-.2-.3-.7 0-2.9 0-1.4.2-2.6.3-2.7.4-.4.5.3.5 2.8 0 3 .2 3.3 1.4 1.8 1-1.2 1.3-2 1-2.4-.2-.1-.4-.6-.4-.9 0-.4-.2-.6-.9-.9-.5-.1-1-.4-1-.6 0-.2-.4-.6-1-.8-.7-.4-1.1-.7-1.2-1.2-.2-.9-.9-1.6-1.4-1.6a2 2 0 0 1-1-.4 9.6 9.6 0 0 0-4-1.2c-1.1 0-2-.6-1.4-1 .4-.5 4.7.3 5.8 1.1l1.3.7c.4 0 3.5 3 3.5 3.3 0 .2.3.4.7.5 1 .3 2.1 1.1 2.6 2 .7 1.6 0 2.8-3.2 5.4-2.4 2-8 3.8-14 4.6a56 56 0 0 0-7 1l-3.6.5-4.4.4-4 .5c-.3.2-7 .4-9.2.3-4.8-.2-8.1 0-8.7.2-.6.3-1.2.4-3.5.1-5.1-.5-10.6-.6-12-.3-1.2.3-1.9.3-4.6 0a114 114 0 0 0-9-1c-1.4 0-2.7-.3-3-.5l-3-.6A141.8 141.8 0 0 1 57.6 73c-.3-.2-.8-.6-1-1a3 3 0 0 0-1.4-1c-.8-.2-1.2-.6-2-1.8-.6-1-1-2-1-2.5 0-.7.2-1 1.8-2a272 272 0 0 0 3.5-2c.1 0 1 0 2.1-.4 1-.3 2.3-.5 2.8-.5 1 0 2-.6 2-1.4 0-.5 0-.5-1.2-.3l-2.5.3c-.6 0-2.2.4-3.5.8l-2.6.6c-.6 0-3.2 1.1-3.2 1.4h-.5c-.4 0-.7 0-1 .3l-1.1.8c-.7.3-1 1.1-1.1 3 0 1 0 1.3.5 1.5.4.2.7.6.8 1 .2.8.7 1.2 2.8 2 1 .4 2 1 2.5 1.3l1.2.6c1 0 2.9 1.1 3.5 2 .4.8 1 1.2 1.9 1.6l2 .8c.5.2 2.5.5 4.6.8l4.5.6 4.7.7 5.8.6c1 .2 4.4.5 7.4.7 3.1.2 6.3.6 7.2.8 1.1.3 3.2.4 6.4.4 4.7 0 4.8 0 5.6-.7 1-.9 1.8-.8 2.2.2.1.4.5.8.8.8 1.4.3 11.6.2 16.9-.2zm31.7-15c0-3.9.2-5.2.6-4.6.3.4.3 7.8 0 8.4-.4 1.2-.6.1-.6-3.8zm-46.3 10.8a75 75 0 0 1 7.5-.3 211.4 211.4 0 0 0 19-1 10 10 0 0 1 2.8-.4 64.2 64.2 0 0 0 9-1.2c1.4 0 1.5-.3.9-2.2-.6-1.6-.6-1.7-.2-2.2.6-.7.6-1.1-.2-1.4-.8-.3-.9-2 0-2.9.7-.8 1.1-4.8.4-4.8l-1.3 1c-1.2 1.2-1.8 1.1-.7 0 1-1.1 1.3-1.8 1-2.1-.3-.3-.8.1-2.2 1.6-1 1-2 2-2.2 2-.3 0-.4.5-.5 1.6-.2 1.3-.1 1.9.3 2.8.5 1.1.4 2.7 0 2.6-.2 0-.4-.5-.5-.9L147 69a6 6 0 0 1-.3-2.8c.2-1.6.2-3 .2-4V61c.2-.4.1-.6-.2-.6-.4 0-.9-.8-.9-1.5 0-.3.3-.7.7-1 .7-.5.8-.6.8-2.8 0-2.3-.4-3-1-1.7 0 .3-.4.6-.6.6-.2 0-.5.4-.7.9-.2.4-.5.9-.7 1-.6 0-.4-.8.3-1.8.7-.8.7-1 .4-1.8l-.5-1c-.7 0-2.2 3.1-2.3 4.7 0 .6-.3 1.6-.6 2.3-.5 1-.6 1.2-.3 2.7.2.9.6 2.3 1 3.2.7 1.9.7 2 0 2.8-.4.6-.5.6-.7.3-.2-.3-.3-.8-.2-1.3 0-.5-.2-1.7-.5-2.8-.7-2-.7-3.8 0-5l.2-1.6c0-.5 0-1.2.2-1.5.6-1-.4-1.2-13.6-1.1-11.5 0-16.4.1-17.7.4-.5.1-.6.3-.6 1.7 0 1.3-.2 1.7-1 3-.8 1.4-1 1.8-1 3.1.1.8.3 1.7.5 2 .4.6.4 1 0 3.3-.3 1-.2 1 3.2.1 1.6-.4 3-1 3.5-1.4 1.4-1.1 2.7-1.6 3.7-1.4.7.1.8.2.7.7l-.3 1.3c-.2.8 0 .8 1.3.7 1 0 1 .8.3 2.2-.4.7-.7 1.5-.7 1.8 0 .6-1.8 2.9-2.3 2.9-.2 0-.3.1-.3.3 0 .1-.3.2-.7.2-.4 0-1 .2-1.5.4l-2 .5c-.8 0-1 .1-1 .5.1.4 0 .5-.5.5-.4 0-.7.1-.7.3 0 .2-.4.6-1 .8-.5.3-.8.6-.7.7.3.3 2.8.5 3.6.4l1.8-.4zm19.5-2c-.5-.1-.8-.3-.8-.5.1-.2.7-.3 6-.5 1.5 0 3.4-.2 4.3-.3 2-.2 2 .4-.2.8-1.7.4-8.2.7-9.3.5zm-8.4-1.7c0-.3.6-.4 3.6-.8l4.2-.5a74.1 74.1 0 0 1 11.3-.5c0 .3-1 .5-5.8.9l-7.8.8c-4.1.4-5.5.5-5.5.1zm-3.3-2.5V72l5.2-.6c5.7-.6 9.4-.5 9.4.2 0 .3-.6.4-3.3.4-3.1 0-8 .4-10.1.8-.8.1-1 0-1.2-.3zm3.7-10.9.3-2.2c.3-2.2-.1-2.5-3.4-2.8-1.5-.2-4-.2-5.7-.2-2.7 0-3 0-3-.5 0-.4.4-.5 5.1-.5l6.7-.1c2.7-.2 11.3-.2 13 0 3.2.4 1.2.7-5.2.8h-6.4v1.4l-.1 2.3-.5 1.8c0 .4-.3.7-.5.7-.4 0-.4-.1-.3-.7zm-17.3 16.6c.2-.3.2-.8.2-1.1-.1-.3 0-.6.2-.7.5-.2.5-.7 0-1.1-.6-.5-.5-.8.2-.8.4 0 .8-.2 1-.4.2-.3.4-.3.8 0 .5.2.6.2.7 0 0-.2.4-.4.7-.4.3 0 .7-.1.9-.3.2-.2.4-.2.8 0 .9.5 2.1.4 2.7-.3l.5-.8.4-.2c.4 0 2-2.2 2-2.7s-1.1-.6-2.2-.2c-.9.3-3.2.4-3.3.1l1.2-.5c1.1-.2 1.3-.4 1.9-1.4.9-1.8.3-2.1-1.4-.8-2.9 2-3.7 2.4-7.6 2.7-1 .1-1.9.3-2 .5l-.6.2c-.6 0-3.2 3-3.7 4.2l-.6.8c-.2 0-.6-.3-1-.7-.8-.8-1-2-.5-2 .4 0 1-.7 1-1.2 0-.2-.2-.3-.7-.2-1 .2-1.3-.4-.6-1 .7-.6 2.4-1.2 2.8-1 .6.2 1.7-1 1.7-1.8 0-.5.2-1 .5-1.1.4-.3.6-.9.8-2.4.2-2 1-3.8 1.7-4.4.4-.4.6-1.4.3-1.7l-1.3.2a5 5 0 0 0-2.3 1.5c-1.5 1.6-2 1.7-1.7.2.4-2.4 2.7-5.5 5.4-7.1.5-.3.7-3.3.5-4.4-.1-.4-.6-1-1-1.5s-.9-1.1-1-1.5c-.3-1.4-1-1.7-1.8-.9l-1.1.8-1 1c-.3.7-.8 1-2.7 1.6a21 21 0 0 0-3.2 1.3c-.6.3-1.5.7-2.2.7l-1.9.4c-.5.1-.7 0-.7-.2 0-.7-5-2.1-5.4-1.6-.1.2-1 .3-2.1.2-1.5 0-2.1.1-2.5.4l-2.7 1.5c-1.2.6-2.8 1.6-3.5 2.2-.7.6-1.4 1-1.5 1-.2 0-.2.7-.2 1.5 0 1.3 0 1.6-.4 1.6-.3.1-.5 0-.5-.5 0-.4-.3-.6-.7-.6-.4 0-.6-.1-.7-.9-.1-.5-.7-1.3-1.2-2-.6-.6-1.1-1.4-1.2-1.8-.4-1.8-3-4.3-3.7-3.6-.2.1-.2 1 0 2.7.4 2.2.3 2.6 0 3.5-.6 1.4-.4 4 .6 5.4.5.8.9 1 1.7 1.2l1 .2v1.6c0 1.5-.3 2-.6 1-.2-.6-1-.7-1-.2 0 .3.3.6.6.8l.6.4-1.4 1.3c-.8.7-1.4 1.4-1.4 1.5l.6.7c.5.4.5.7.5 2.3 0 2.4.6 4.8 1.4 5l7.7 1.2L85.4 77c1.6.3 5.3.7 8 .8a15403 15403 0 0 0 12.4.8c2.2 0 2.4 0 2.7-.5zm-24.7-7c-1-.2-.8-.8.2-.9.5 0 1-.2 1.1-.4.5-.3.5-1.6 0-2.6-.4-.7-.4-1.3-.3-3.5.1-1.5.3-2.8.5-3 .4-.6 0-2.1-1.4-5-.9-1.8-1.5-2.7-2-3-.3-.2-.7-.3-.8-.2L81 54c-.2 1.3-.2 1.4.3 1.6.8.2.7 1 0 1.7-.6.5-1 .6-1.5.4-.7 0-1 0-1.6.4-.5.4-.8.8-.8 1 0 .2-.1.3-.3.3-.3 0-.8 2.4-.6 3 0 .4-.1 1-.4 1.6-.5.9-.6 1-1 .6-.2-.3-.4-1-.4-1.8 0-1.8 1-3.6 3.4-6 1.8-2 2.2-2.7 2.5-4.7 0-.3.3-.5.8-.6 1 0 2.3 1.3 3.8 4.3 1.5 3.1 2.3 6 2.1 7.2l-.5 4.2c-.2 2.2-.5 3.2-.8 3.6-.5.5-.7.5-2 .3zm9.6-10.3v-2c0-1.4 0-2-.5-2.9-1-2-.5-2.2 1-.2l1 1.4 1.3-.2c1.9-.4 4.2-.4 4.3 0 0 .1-.3.2-1.2.2-.7 0-1.6.2-2.1.4-.5.3-.9.4-1 .2-.2-.4-1-.3-1 .1 0 .2-.2.7-.6 1-.4.5-.7 1-.7 1.3 0 .5-.3.9-.5.7zM100 53l-.8-1.6c-.5-.7-.4-1 .2-.8.5.2 1.4 2 1.4 2.7 0 .8-.4.7-.8-.3zm-9 .2c-.7-.2-1-.4-.8-.6.3-.4 1.8-.2 2 .2.4.5-.2.7-1.2.4zm13.5-1.1c0-.4.6-.9 1-.9.3 0 .3.1 0 .5-.2.6-1 .8-1 .4zm-11-.4c-1-.3-1.6-1-1.2-1.3.4-.4 2.8.7 2.6 1.1-.1.5-.4.5-1.4.2zm8.3-.5a4 4 0 0 1-1-1c-.5-1 .7-.7 1.4.2.7 1 .5 1.4-.4.8zm1-3.5c-.4-.2-.6-1-.2-1 .4 0 1 .7.8 1 0 .2-.2.2-.5 0zm90.5-.3c0-13.8 0-15.5-.5-15.5a381.1 381.1 0 0 0-.2 28.7c.4 1.6.6-1.2.7-13.2zm-1.5 10.2c0-.4 0-.9-.2-1-.2-.4-.3-.1-.3.8 0 .8.1 1.2.3 1l.2-.8zM108.2 55l-.6-.6c-.6-.3-.8-.3-1.4 0-1 .5-2.8 2.4-2.6 2.6.2.3 4.4-1.6 4.6-2zm86.7-3c0-5.3-.5-17.2-.7-17.3-.1-.1-.3.2-.4.7-.2.9.1 19.5.4 19.9l.4-.1c.2-.2.3-1.4.3-3.1zM55.2 52l-.3-5.8c-.2-6.6-.4-8.5-.8-8.5-.5 0-.5 0 0 8.4l.5 7c.4.5.6 0 .6-1.2zM198 51l1-1.7v-4.8c0-2.6.1-5.8.3-7 .3-2.5 0-3.1-1-1.9l-.6.8-.5 2.1c-.3 1.6-.4 3.8-.4 8.2l.1 6 1.1-1.7zm3-5.4a295.7 295.7 0 0 1-.7-1.8c-.3.2-.4 2.9 0 3.2.3.4.9-.6.7-1.4zm-5-8.2c.2-5.3 0-8.8-.2-8.8-.7 0-1 3.3-.7 6.2.2.7.1 1.2 0 1.3-.4.3-.4 2.5 0 2.7l.2 1c0 .7.2 1.1.5.8.1-.1.3-1.6.3-3.2zm13 1.4c0-.2 0-.4-.2-.4-.3 0-.3-.8-.2-3.4l-.1-3.6c-.3-.2-1.4 1-2 2-.4.9-.8 6.6-.5 7.1.2.4 2.9-1.1 3-1.7zm-8 .1c.4-1.7 0-2.3-.4-.9-.2.9-.2 1.7 0 2.5 0 .4.3-.4.5-1.6zm-20 .8.4-1.4c.2-1.1 0-1.2-1.2-.4-.7.5-1 .5-1.8.3-.6-.2-1.8-.4-2.8-.4a49.2 49.2 0 0 0-10.2-.7l-7.6-.1-.7.6c-.6.6-.8.6-2.9.4a239.8 239.8 0 0 0-31.3-1.5c-5.6 0-11-.3-8.3-.4.8 0 1.7-.2 2-.3l.5-.2-.5-.2c-.6-.1-6-.4-14.5-.6l-7.2-.2c-1.6-.2-3 0-2.6.4.2.2 3.8.4 9.9.5a3130.7 3130.7 0 0 1 10.3.5 1430.2 1430.2 0 0 0-14.4 0c-8.6-.2-16.9-.7-20.2-1.3-2.4-.4-4-.5-10.9-.5a37.9 37.9 0 0 1-10.3-.5c-.6-.4-1.1-3-1.1-5.5 0-2.6-.2-3-1.3-2.4-1.4.7-1.7 2.4-1 5.2.2 1 .4 1.5.9 1.7.3.1.6.5.6.7 0 .3.5.8 1.5 1.3.8.5 1.5 1.1 1.7 1.5.2.6.3.7 1 .5 1.2-.3 5.3 0 7.8.5a51.9 51.9 0 0 0 14.6.2c1 .1 6.2.4 11.6.5 9 .2 9.7.2 10 .7.4.4.5.4.5 0 0-.5-.2-.5 3-.5 1.4 0 2.7.1 3 .3.4.2 2.3.3 6 .3a239 239 0 0 1 16.8 0l11.4.3a731.2 731.2 0 0 0 31.6.6c2.1.4 5.3.5 5.6 0zm4.2-1c0-.2 0-.3-.2-.3s-.3.3-.3.6c0 .5 0 .5.3.2l.2-.6zm-21.2-3a92.2 92.2 0 0 1-4.4-.3c-11-.8-37-1-38.5-.5-.4.2-.7.4-.6.5.1.1 2.9.3 6 .4 6.7.1 37.3 0 37.5-.2zm3.2.2h-1 1zm34.4-1.3.4-4.7.6-10.2c.1-1.9 0-2.7-.1-2.7-.7 0-1.2 4.4-1.6 13.8l.1 5.2c.2 0 .4-.6.6-1.4zm-4-1.1c0-.3.2-.4.6-.2.6.1 1.6-.1 1.6-.4 0-.2-.3-.4-.7-.6l-.8-.4.1-3-.1-3c-.2 0-.5.3-.8.6a26 26 0 0 0-.7 7.7c.2.4.9-.3.9-.7zm2.5-3.5c.2-1.4.1-2 0-2.3-.6-.7-.9-.1-.9 2.2 0 1.6.1 2.2.4 2.1.2 0 .4-.9.5-2zm0-3.2.3-2.7c.2-2.3.2-2.5-.2-2-.5.4-1.1 3.8-.9 4.5.2.5.6.6.8.2zm-48.6-2.2c.1-.1.1-.3 0-.4-.4-.4-8.6-1-13.8-1l-9.9.1a1443.6 1443.6 0 0 1-32.8-.3c0 .7.7.8 6 1a417.4 417.4 0 0 0 22.8.8c.2.2 27.6 0 27.7-.2zM67 16.3c0-.3-.2-.5-.3-.5-.2 0-.3.2-.3.5s.1.5.3.5c.1 0 .3-.2.3-.5zm129.3-8.5c0-.1 0-.2-.2-.2s-.3 0-.3.2.1.3.3.3c.1 0 .2-.1.2-.3zm1.4 0-.4-.2c-.3 0-.4 0-.4.2s.1.3.4.3c.2 0 .4-.1.4-.3zm2.8-2.2c0-.5-.2-.5-1.4-.5-2.3.2-2.3 1 0 1.1 1.4 0 1.5 0 1.4-.6zm18.6 145.5-.9-.6c-1.4-.4-4.5-3.8-7.1-7.7-1-1.7-2-2.8-2.7-3.5l-1-1.6a673.1 673.1 0 0 0-1.8-3.7l-.8-2-.8-1.8c0-.2-.2-.5-.5-.8-.3-.3-.5-.6-.5-.8l-1.1-2.8a41.2 41.2 0 0 1-4-14.7l-1-10.1c-.5-3-.5-17.8-.1-19.8a287 287 0 0 0 2-11.6l-.1-2.3c-.3-.7-.2-.9.2-1.2 1-.8 1.6-2.5 1.8-4.8 0-1.3.4-3.4.8-4.8.7-2.5 2-5.8 2.4-5.8.2 0 .5-.5 1-1 .3-.7.6-1.1.8-1.1l.6-.8c.2-.5.5-.8.7-.8.2 0 .5-.3.5-.5.3-1 2.2-.5 2.5.6.1.5.3.7.5.6.2-.1.4 0 .5.5.3.8 0 1.5-.5 1.3-.6-.3-.7 1.4-.8 8.5v6.3h1c.6 0 1.2 0 1.3-.2.1-.2.2-4.7.2-10 0-10.8 0-10.7-1.6-9.4l-1 .7c-.6 0-.2-1 .6-1.9l1-1c0-.5 1-1.3 1.5-1.3.3 0 .6-.2.6-.4.1-.2.3-.2.7.2.7.6.7 1 .2 1.6-.4.3-.5 1-.5 2.6a221 221 0 0 1-.8 13.5c.2.2.2.9.3 3 0 1.2.6 1.8 1.3 1.5a1 1 0 0 1 1 0c.6.3.5 1 0 1.2-.3 0-.8.4-1.3.8s-.8.5-1 .3c-.4-.3-1.1-.2-3 .6a9 9 0 0 1-2.3.2c-1 0-2 .2-2.4.4a5 5 0 0 1-2 .4c-1.1 0-1.6.4-1.2 1.1.4.6.8 3.7.7 4.4-.2.8-.1 6.4.1 8.2.2 1.2.4 1.3 2 1.1 1 0 5.3-1.6 5.8-2 .6-.5 1.3-.5 1.5 0 0 .2 0 .8-.2 1.3-.5 1.7-.4 7.3.3 11.9.3 2.2.5 4.3.4 4.6-.2.5-.2.5-.6 0a3 3 0 0 1-.4-1.5c0-.6-.1-1.6-.3-2.2-.2-.6-.5-2.4-.6-3.9 0-1.5-.2-2.9-.4-3-.1-.2-.2-.4 0-.5.3-.2.2-4.2-.1-4.3-.2-.1-.5 0-.8.2-.5.4-.5.8-.6 5a55.6 55.6 0 0 0 .7 9.5c1 7 1.1 9 1 9.2-.3.3-.7-.4-.9-1.4 0-.6-.3-1.3-.5-1.5-.2-.3-.3-.6-.2-.7a12 12 0 0 0-.8-4.6v-.7c0-.4 0-1.9-.3-3.3-.2-1.5-.3-2.7-.2-2.9 0 0 0-.2-.2-.3l-.2-1.8c0-2.8-.3-5.5-.4-5.7-.1-.2-1-.1-2 .1-3.4.8-3.1 1.3-3.1-5.5 0-5.7-.2-7.6-.6-7.6-.5 0-.6 2.7-.4 8l.2 5.9c0 .1-.6.3-1.4.3h-1.5L198 86a18 18 0 0 0-.4 3.6v4.6a80.3 80.3 0 0 0 1.8 16.1 56.5 56.5 0 0 0 1.3 7.3c.5 3 .9 4.2 1.6 5 .4.5.7 1 .7 1.6 0 .5.1 1.4.3 2 .2.8.4 1 .8 1 .5 0 .6-.4.7-1.6.2-1.8.6-2.2 2.7-2.6.9-.1 2-.4 2.5-.7 1.1-.5 2-.4 2.1 0 .3.9-.2 1-4.4 1.9-1.6.3-1.7.3-1.8 1a53.3 53.3 0 0 0 4 12.9c.2 0 0-.6-1.6-5.6-.6-1.8-1.3-4-1.4-5-.3-1.8-.3-2 .2-2.3.7-.5 2-.8 4.2-1 2-.2 2.6 0 2.4.9-.1.4-.5.5-1.8.7l-1.7.3-.1 1.4-.5 2.3c-.5 1.1-.1 4.9.5 5.8.3.3.9 1.5 1.3 2.5l1 2 .7-.2c.6-.2.8-.2 1.4.2.6.4.6.4 1-.4.5-.8 1.2-1 2.1-.6.5.2.6.8 0 1-.2.1-.4.6-.4 1.4 0 .7.2 1.7.4 2.2.5 1.2.5 1.5 0 1.5-.3 0-1.4-2.2-1.4-3 0-.2-.3-.6-.7-.8-.6-.4-.7-.4-1.8 0-.7.3-1.3.6-1.3.9-.3.6 2.2 3.7 3.6 4.4.3.1.8.7 1.2 1.2.3.5.9 1 1.2 1.3.4.1.7.5.7.8l.4.8c.4.4.5.8.2.8-.2 0-.4-.2-.6-.4zm-10.7-24.4c-.3-.7-.7 0-.5 1 .3 1.8.5 2 .6.7l-.1-1.7zm-4.5-62.5.1-3.2c.1-2.7 0-5-.2-5-.4 0-1 1.5-1 2.8 0 .6-.2 1.3-.4 1.6-.3.3-.5 1.3-.6 3l-.2 2.4h1.1l1.2-.2zm4.4-1.2.2-7 .1-5.5c.2-.4 0-.6-.4-.7-.7-.3-1 .2-1 1.2 0 .7-.1.8-.5.6-.9-.3-1.6 1.2-1.6 3.3v2.5c-.1 2.6 0 7.4.1 7.6 0 .1.8.2 1.5.1h1.4zm-2.2-9.8c0-.2.2-.4.4-.4.5 0 .4.6 0 .7-.2 0-.4 0-.4-.3zm13.3 91.9c-.5-.6-1.2-4-1-4.4.5-.7.8-.5 1 .9 0 .7.3 1.8.6 2.3.5 1.3.1 2-.6 1.2zm-43.7-.2c-.7-.1-1.5-.4-1.8-.6a9 9 0 0 1-2.3-3.5c-.3-1.2 1.5-4 2.4-3.8.5.2.5.8 0 1.3-.3.2-.3.4-.1.8v1.1c-.4.6-.3.8.3 1.5.4.4.7.9.7 1.1 0 .4.3.5 1.3.5.7 0 2-.1 2.6-.3 1-.3 1.5-.3 1.8 0 .6.5.2 1-1.2 1.6-1.3.6-1.7.6-3.7.3zm31.2-29.5c0-2.2-.3-4.6-.8-7.9a94.9 94.9 0 0 1-1.1-13.3 652.5 652.5 0 0 0-.2-8.6c.7 0 .8 1 1 6a123.2 123.2 0 0 0 2 22.1c.2 2.3.2 2.3-.3 2.3-.4 0-.6-.1-.6-.6zm-3-1.1-.6-5.1a103 103 0 0 0-.5-5l-.2-2.5c0-.6-.3-1.2-.6-1.4-.3-.3-.4-.4-.1-.4.3 0 .3-.4.2-2.5-.6-6.7-.5-11.5 0-11.5.1 0 .3 2 .4 4.5.3 5.8.4 7.7 1.5 16.8.4 3.7.6 7 .3 7.1h-.4zm14.7-.9c-.5-.3-.9-1.7-.7-2.7.1-.7 0-1-.1-1-.2 0-.3-.3-.2-.9.1-.5 0-1.4-.2-2.2-.2-.7-.5-2.2-.5-3.2-.2-2.4-.7-3.3-.7-1 0 1.3-.2 1.7-1 1.7V103l-.1-2.7a52 52 0 0 1-.9-9 130.8 130.8 0 0 1-.5-7.8c-.2-2 .2-3.4.9-3.3.3 0 .4.3.3.8-.2 1.2 0 5.9.2 6.8.2.9.2.8.3-.7 0-2.8.3-4.8.7-4.8.5 0 .7 1 .3 2-.3 1-.1 5.8.3 9.7a204.4 204.4 0 0 0 2.7 17.4c.5 1.8.2 2.7-.8 2.1zm-2.2-13.1c0-.2 0-.4-.2-.3-.2.1-.2.3-.1.4.2.4.3.3.3-.1zm0-2c-.2-.5-.3-1.6-.4-2.5-.1-1.6-.6-2.7-.6-1.4 0 1.4.6 5 .9 5v-1zm-.7-5.7c0-.3-.2-.6-.3-.6-.3 0-.4.8-.1 1.1.3.3.4.2.4-.5zm-.4-3.2c0-.3-.1-.1-.1.3s0 .7.1.5v-.8zm-11.8-21 .2-.4.3.1c0 .2-.1.4-.3.4-.1.1-.2 0-.2 0zm1-45.3c0-4 0-8.2.2-9.5.1-2.4 0-2.9-1.1-2.9-.5 0-.6 0-.5-.4.1-.2 0-.4-.3-.4-.8 0 1.5-1 2.3-1 1 0 1.2.6 1.1 3.2 0 2 0 2.1.5 2 .4 0 .6-.2.6-.5s.2-.6.4-.8c.2-.3.3-.3.5 0s.2.7.2 1l-.7 3.2c-.4 2.3-.4 2.8 0 3 .3.4.4 1 0 1-.1 0-.2 1.5-.2 3.9 0 2.8-.1 3.8-.4 4-.7.6-1-.2-.7-1.5 0-.7.2-2.7.1-4.7 0-1.9 0-4.1.2-5 .2-1.6 0-2.2-.4-2.2-.5 0-.7 1.4-.9 6.1 0 2.8 0 4 .2 4.5.2.4.2.6 0 .7-.1.1-.3 1-.3 1.8 0 1.1-.2 1.6-.5 1.6-.3.1-.4-.8-.3-7zM192.4 27c0-.7 0-.7.4-.2.3.5.3 1-.2 1l-.2-.8zm6-13 .9-.7c.5-.5.7-.6.7-.3 0 .2-.3.6-.6.8-.7.5-1 .6-1 .3zm-34.7-1c-.3-.2-.7-.2-.8-.1l-2.2-.2-7.8-.4a27052.5 27052.5 0 0 1-16.5-.7c-.6-.2-1-.2-1.4 0-.3.2-.7.3-.8.2l-5.2-.3a519.1 519.1 0 0 0-29.5-.8c-5 0-9-.1-9.2-.2 0-.1.1-.5.5-.8.5-.4.9-.5 2.6-.3a629 629 0 0 0 26.7.8 346.6 346.6 0 0 0 23.2.8l8.2.3c11.8.2 12.8.3 13.3 1 .5.5-.2.9-1 .6z"/>
</svg>
