<?xml version="1.0" encoding="utf-8"?>
<svg xmlns="http://www.w3.org/2000/svg" xmlns:svg="http://www.w3.org/2000/svg" version="1.1" viewBox="0 0 274 179">
	<title>Duchess balances a lump on sugar on the tip of her nose, which Ribby has placed there from her sugar bowl with a small pair of tongs.</title>
	<path d="M21.4 178c-1.5-.2-1.6-1-.2-1.7.9-.4 3.3-3.5 3-3.8 0 0-.5.2-.9.6-.8.7-3.3 1.7-4.4 1.7-.8 0-2 .7-2 1.3 0 .5-.8.4-1 0l-.2-.9c0-.3-.2-.3-.6 0-.7.3-.7.6 0 .8h.6l-.8.4c-1.2.5-2.3.3-2.6-.6l-.3-.7 1-1c1-1 2-3.1 2-4 0-.8.6-2.1 1-2.1.5 0 .5 1 0 2.5s-.4 1.7.3.7a8 8 0 0 0 1.7-4.5c0-1.2 0-1.4.5-1.4.3 0 .6.3.7.7.2 1-.4 3.4-1.2 4.6l-1 1.6c0 .2.5-.1 1.2-.8.8-.7 1.8-1.8 2-2.5.7-1.3 1.2-1.6 1.2-.6 0 .9-1 2.2-2.9 3.9-1.5 1.4-1.6 1.6-1 1.6 1 0 4.7-4.1 6-6.7.7-1.4 1.3-2 1.3-1.1 0 .5-.8 2.3-1.4 3l-3 3.9c0 .3 3.2-1.6 3.7-2.2.6-.6 2-4 2.1-5.4 0-.4.3-.6.5-.6.7 0 .3 2.2-.8 4.4a9 9 0 0 0-1 2.3c.3.2 1.3-.8 2-2 .6-1 1.1-1.2 1.1-.4 0 .5-1 2-2.4 3.7-.7.8-2 3.2-1.7 3.4.2.2 2.4-2.3 3.2-3.7l1.8-2.8a6 6 0 0 0 1-2.9l.5-2.2a4 4 0 0 0 .2-1.6v-.9l-.4 1c-.3 1-1 1.2-1.1.1l-.2-.8-.3.5-.7.4c-.5 0-.5-.6 0-1 .6-.5 1.3-2 1.7-3.5.4-1.3 1.5-2.6 1.9-2.1v1.4l.1 1.7.2.7.3-.9c.2-.5.4-1.4.4-2 0-1 .1-1.2.5-1.1.2 0 .5.3.5.7.2 1-1 5-1.9 7-.6 1.3-.8 2-.6 2.3l-.1 1.4c-.3 1-2.3 4.5-3.6 6.2-1.2 1.6-.4 1.2 2-.9 2.2-2 3-3 3-4 0-.7.6-.8.8-.2.3.7-.5 2-2 3.7-1.2 1.2-1.5 1.6-1.2 1.7.5.4.7.3 1.6-.1.4-.2.7-.6.7-.9 0-.3.3-.7.6-1 .2-.2.7-1.2 1-2.2.7-2 1.2-2.8 1.8-2.6.3.2.4.4.2 1l-.3 2-.1 1.1.6.2c.8.2 1 0 .9-.8-.8-2.6-.5-5.1.6-5.1.5 0 .6.1.6 1 0 1 .8 4 1.4 5.2.5 1 2 2.6 2.2 2.4l-.2-.6c-.5-.5-.1-1.7.6-1.7.4 0 .4 0 .2-.5-.2-.3-.2-.8-.2-1 .1-.2-.1-.5-.7-.7-1.2-.5-2-2.2-2-3.7.2-1.6.9-1.6 1.6 0 .7 1.2 1.2 1.5 1.4.6.1-.5.2-.6.6-.3l.4.8c0 .7 2.1 2.6 3.2 3h1.8c.4 0 1 0 1.3.2.7.4 1.2.1.8-.4-.7-.8.1-1 2-.3 1 .3 1.7.6 1.7.7 0 .2-.4.3-.8.4l-.9.2.9.4c1.2.5 1.6.4 1.6-.1 0-1-1.6-6-2.1-6.8-.7-.9-.4-1.5.5-1.4.5 0 .8.3 1.2 1 .6 1.2 1 1.3.8.3-.2-.7-.8-1.7-2.2-3.4l-1.6-2c-.3-.4-1.3-1.2-2.2-1.8-1.2-.8-1.5-1.1-1.2-1.2h1c1 .2 3.5 2.3 4.8 4l1.2 1.4.5-1.3c.2-.7.3-1.4.2-1.6a107.2 107.2 0 0 1-6.2-4.2c-1.2-1-3.5-2.1-4-2.1 0 0 .3 1 1 2.2l1.2 2.2v1.6c-.2 2.7 0 4.6.3 4.5.7 0 1 0 1.1.8a9 9 0 0 0 1.2 2.3c1.1 1.6 1.3 2 .7 2-.6 0-1.7-1.3-2.4-2.8-.4-.6-.8-1.1-1-1l-.2 1.4c0 1 0 1.3-.4 1.3-.3-.1-.5-.6-.5-2l-.3-2.2s-.3.2-.5.6l-.8 1.4c-.7 1-1 .3-.5-1.5l.5-3.5.2-2-1.1-2.3a10 10 0 0 0-1.4-2.2l-.8-1c-.5-.8-1.5-1.6-1.7-1.4l1.2 1.8c.7 1 1.7 2.6 2.1 3.6 1.4 3 .6 3.8-1.2 1.1-1.2-1.7-4-5-4.5-5.3-.3-.1-.3 0-.2.2l1.5 2.2c.7 1 1.3 2.1 1.3 2.4 0 .9-.8.7-1.2-.3l-3-4.4c-1.5-2-2.7-3.7-2.7-4 0-.6 1-.2 1.6.8l1.4 1.7.7.8-.3-1-.4-1 .8-.6a3 3 0 0 1 1.1-.7c.4 0 1.2-.7 1.2-1l-.7-.9c-1.3-1.2-.7-1.8 1-1 1.2.5 1.5 1 .6 1-.4 0-.4.2-.1.6.2.4.3.5.6.3.1-.2.5-.3.8-.3.4 0 .7-.1.8-.3.3-.5 1.6-.2 4.5 1.2 1.6.8 3.6 1.6 4.4 1.9a5 5 0 0 1 2 1l2 1.6 2 1.3c.5.5 2 .3 1.8-.2-.3-1-5.5-3.7-10.7-5.8l-3-1.4c-.5-.5-.1-1.1 1-1.6l.8-.3 1.7.5c2 .6 4.7 2 6.1 3.2 1.2 1 1.4.6.2-.4-1-1-1-1.3.4-1.1.9 0 1.3.3 2.2 1.3 1 1.1 1.3 1.3 1.9 1.1.4 0 1 0 1.5.3.8.4 1.2.4 1.2.1 0-.1-.5-.5-1.1-.8-1.3-.5-3.2-2.1-3.2-2.6s.7-.4 1.6.3l1 .7c.2 0 .6.3 1 .7l1.4 1c.5.3.9.6.9.9l.5 1.9.6 1.4-.4.3-.5.4.7.8c1.3 1.3 1.9 2.2 2.4 3.6l.5 1.3v-.9c.1-.5 0-1-.1-1.2-.2-.1-.3-.5-.3-.9l-.4-1.6-.5-.9.5-.3c1-.8 2.3.5 2.3 2.4 0 .9.4 1.2 1 .6.2-.3 0-1.5-.3-1.7l-.2-.7c0-.7.6-.5 1 .4.4.8.8.7.8-.1 0-1-1.2-2.5-2.5-3-.7-.3-2-1-2.7-1.7a9.4 9.4 0 0 0-1.6-1.1l-2-1.7c-1.7-1.6-2.2-2.5-1.3-2.2l1-.1c.3-.2.8 0 1.9.7.8.5 1.4 1 1.4 1.2 0 .3-1.2.3-1.4 0-.1-.2-.3-.3-.5-.3s0 .2.2.5c.3.3.6.6.8.6l1.6.9 1.6 1-.4-1c-1.4-2.3 0-2.3 1.7 0 .7 1 1.4 1.7 1.5 1.7.4 0 .2-.6-.5-1.4-.7-.9-.5-1.4.4-1.1.8.2 1.6 1.7 2 3.8l.6 2.1c.3.3-.1-2.6-.6-4l-.4-1.3.4-1c.3-.5.6-.8.8-.7.6.2.5-.3-.2-1.6-.9-1.5-.9-1.8 0-1.6.7.1.9 0 1-.3.2-.8.6-.7 1.7.5l1.1 1.1.6-.5.7-.5-.5-.7-.6-.7h1.7l.7.2-.1-.7c-.1-.4-.4-1-.7-1.1-.8-.6-.4-1.1.7-1 1 .3 1.6-.3.7-.5-.7-.2-.7-.5-.1-.9l.5-.2-.8-.3c-.5-.2-1.5-.5-2.3-.6-2.2-.4-2.2-.4-1.8-.9.2-.2.7-.4 1.2-.4 1 0 1.7-.7 1.2-1l-1.7-.4-2.8-.7c-1.9-.6-4.5-.8-4.7-.5-.2.4.3.7 2 1 1.8.4 2 .5 1.7 1-.1 0-.2.5-.1.8 0 .5-.2.7-.9 1-.5.2-1.4.4-2 .4-.6 0-1 .1-1 .3 0 .2.3.3 1 .1 1.1-.1 1.6.2 1 .8-.2.3-.9.4-2.6.4-1.8 0-2.2 0-1.8.3.2.2.5.6.5.8.2.3.5.5.9.5 1.4 0 .6.4-1 .6-1.4.1-2.2 0-3.4-.4L62 140l.5.7c.3.3.7.6 1 .6.2 0 .2.1 0 .5-1 1.2-6.7-2-8.8-5.1-.5-.8-.7-1.5-.8-2.6v-1.6h.4c.4 0 .6.2.7.8v.9h1.3l1.2-.1.4 1.1c.3 1 .6 1.2 1.6 1.7 1.4.6 1.3.6 1.3 0 0-.2-.3-.6-.7-1-.7-.5-1.5-2-1.3-2.5.3-.4.7-.3 1.5.5 1 1 2 1.1 2.2.3 0-.8 2-1 3.4-.2a4 4 0 0 0 1.9.4h.8l-.9-.5-2.8-.8c-2.4-.4-3.7-1-4.3-1.7-.5-.7-.5-1.4 0-1.4.2 0 .6.2.9.5.7.7 2.4 1.6 3 1.6h.4l-.5-.4a2 2 0 0 0-1-.4c-1.1 0-3.1-5-2-5 .3 0 .5.3.6.8.2 1 .6 1 .7-.2.1-1.2.8-1.6.8-.5 0 1.4.8 2.1 1.5 1.4.2-.2 1.1-.6 2.1-.9l1.8-.5v-1.1c-.2-1.2.2-1.5.6-.6.5.7 1.1 1.3 1.4 1.2.1-.1 0-.5-.2-1-.9-1.7 0-1.8 1.6 0 1.3 1.2 1.8 1.4 1.8.6 0-.3.1-.6.4-.6.2 0 .6.3.9.6.3.3.9.5 1.4.5.7 0 1.1.2 1.5.7.5.5.8.6 2 .6.8 0 1.4.1 1.4.3 0 .1 0 .3-.2.3s-.3 0-.3.2c0 .5 1.9.3 3.4-.2 2-.8 2-1 .2-.7-1.1.1-1.5.1-1.4-.1.1-.2.4-.3.6-.3.2 0 .4-.2.5-.5.1-.3.3-.6.5-.6.3 0 .7-.5.7-1l-2.5.1-2.4.2-1.5-.7c-1.7-.8-2.2-1.3-2-1.8.2-.4 1.3-.2 4.8.9l2.6.4c1 0 1.8.3 1.8.4h1c.8 0 1.1 0 1.1.2 0 .1-.2.3-.4.3s-.7.3-1.2.7l-.8.7 1.6.4 1.7.3 1.3-.6 1.2-.7 1-.8c.6-.3 1.2-.7 1.3-1 .2-.6-.2-.4-1 .4-.9.8-3 1.7-3.4 1.5-.3-.2 1.4-2 3-3a5 5 0 0 0 1.3-1.1c0-.3 2.2-1.3 3-1.3a28 28 0 0 1 6.3 0 .6.6 0 0 1-.3-.4c0-.6 1.2-.5 4 .5 1.6.5 2.7.8 2.8.7.1-.5 1.2-.3 2.6.4 1.7.7 3.3 1 3.3.7 0-.5.7-.4 1.4.1.5.3 1.4.5 3 .5 1.3 0 2.9.3 3.6.5.9.3 1.4.4 1.6.2.2-.2 1-.3 1.9-.3.8 0 2 0 2.7-.2 1 0 1.7 0 3.7.9a102.3 102.3 0 0 0 3.5 1.4c0 .3-1 .3-1.6 0a26 26 0 0 0-2.7-.9c-1.7-.5-2.5-.6-3-.4-.9.3-2.2.4-3.3.1l-.9-.2.2.5c.2.4 0 .4-.7.3a23 23 0 0 0-2.7-.3c-1 0-2.2-.2-2.6-.4-1-.4-1.8-.4-1.8.1 0 .7-.4.7-1.6 0a24 24 0 0 0-2.8-1.2c-1.4-.5-1.8-.5-2.3-.3-.4.3-.8.2-2.3-.4l-5.2-2-.1.5-.1.5h-3.6c-2 0-3.7 0-4 .2-.6.4-.6 1.1 0 1.4.9.3-.2 2.3-1.8 3.2-.3.1-.5.8-.6 1.6-.2 1.2-.1 1.4.3 1.4.2 0 .7.3 1 .6 1 .9 4.3 1.6 8 1.6 2.5 0 3.1.1 3.1.4 0 .3-.4.4-1.6.4-1.8-.1-2.8.3-1.4.5 2.2.3 6 .2 6.8-.2.7-.3 4.3-1 5.7-1 1 0 0 .6-1.4.8-1 .1-1.4.3-1.7.8-.6.8-.5.8 3.3-.2l3.5-.7c.4.2-1.3.9-3.3 1.4-1 .2-1.8.5-1.8.7 0 .3.2.3 2.5-.2 1-.3 2-.4 2.1-.3.4.3-.2.6-1.3.8-.7.1-1.2.3-1.2.5s.8.2 2.4.1l2.4-.1-.1.4c0 .4.1.4 1 .4l1.7.1c.3.2 1.4.4 2.3.4 1.4.1 1.6.1 1.7-.3.1-.3.5-.5 1.5-.7.9 0 1.4-.3 1.4-.5a12 12 0 0 1 4.6-1.6c.4.3-.2.6-1.6 1-2.3.3-2.7.7-1 .7 2 0 2 .5-.2.7-3 .3-3.4.7-.6.6h2.5l-.7.3c-.8.3-.8.7 0 1a3 3 0 0 0 2.3-.6l1.4-.7c.6-.1 1.6-.6 2.2-1 .7-.3 1.5-.5 2-.5.7 0 1.2-.2 1.2-.6 0-.2-.4-.2-1.3-.2a4 4 0 0 1-1.6 0c-.4-.3-.1-.3 3.4-.4 1.6 0 2-.4 1.8-1.3-.2-.9-1.1-1.5-2.5-1.7-.6 0-1.2-.3-1.3-.4-.1-.3 1.2-.2 2 .2 1 .3 1.1-.2 1-2-.3-1.4-.5-1.8-1-2.3-1-.7-1.6-.8-2-.2-.5.5-1.4.5-2.2 0-.6-.5-1.8-1.1-3.7-2l-.6-.2.4-.2c.3 0 1.1 0 2 .4 1.2.5 1.6.6 2.2.4.5-.2 1-.2 1.9 0 .6.2 1.4.3 1.8.2l.6-.1-.2-1.2c-.2-2 .3-12 .8-15.2a179.2 179.2 0 0 0 2.5-11.5c.6-2.7 1.5-6 2-7.4 1.4-3.8 1.4-3.7 0-5-1.6-1.5-2-2.3-2.2-5.3 0-2.2 0-2.8.3-3.5.2-.5.4-1 .4-1.4a57.1 57.1 0 0 1 4.1-11.3c.3-1 3.6-5.6 4.5-6.4 1.9-1.7 4-3 5.5-3.7 1.4-.6 1.7-.8 2-1.5l.5-1.2c.5-.6 3.3-2 3.5-1.7.3.3-.4 1-1.4 1.6-.9.5-1 .7-1.2 1.6V54.3l-.4-.1c-.3-.1-.6-.4-.6-.9-.1-.8 0-.8-2-.3-1.6.4-4.5 2.4-6.2 4.1a41.9 41.9 0 0 0-6.1 12.3l-1.2 3.8c-.4 1.3-.4 1.6.3 1.6.4 0 .4.5-.3 2.4-1 2.4-.2 4.8 1.6 5.9.8.4 1.5.6 1 .3a7.7 7.7 0 0 1-1.7-2.8c0-.8.6-.5 1.2.4.2.5 1 1.4 1.5 2 1 .8 1.4 1 3 1.3l1.7.4 1.5-.9c.9-.4 2-1.2 2.4-1.6.5-.5.9-.7.9-.5 0 .1-.4.6-.9 1-.7.7-.8.9-.5 1.2.3.2.5.2 1.2 0 .4-.3 1.4-.5 2.2-.5 2.1 0 4-1.2 3.7-2.1-.2-.5-.7-.4-2.5.5-1.3.6-1.9.4-1.4-.5.1-.3.2-.8.1-1.1l.1-1.2.7-1.7c1.3-3 3.8-6.4 5-6.8.7-.2.8.2.2.8-.3.2-.5.6-.5.8 0 .1-.4 1.1-1 2.1-1 2-1 2.2-.6 2.2.1 0 .7-.6 1.2-1.4.5-.8 1-1.5 1.2-1.5.3 0 .3.3-.2 1-.2.3-.3.6 0 .9l.2 2.2c0 1.4 0 1.7.4 1.7.3 0 .3-.1.2-.6-.2-.8 0-.9.7-.3.3.3 1.1.5 2 .6.7 0 1.4.3 1.6.4.3.2.7 0 1.6-.7 1-.8 1.2-1.1 1-1.7-.3-1.1 2.6-5.9 3.2-5.2l-.1.6c-1 1.3-1.7 3.3-1.5 4.2.2 1.2.7 1.7 2.1 1.7.6 0 1.3.2 1.7.4.4.3 2.7 1.1 3.1 1.2l.4-.7c.2-.5.4-.6 1.3-.7h1.2l.7-1.5c.9-1.8 1-2.4.1-2.5h-.5v-2.2l-1-.6c-1.1-.6-1.2-.9-.6-1.4l.4-.3-.9-.4c-.7-.3-1-.3-2.6 0l-2.8 1.1-1.1.7-.3-.5c-.1-.2-.2-.6-.1-.7.3-.8-1.9-.6-5.3.5-1.4.4-1.9.5-2 .2 0-.2-.4-.3-.8-.3-.8 0-1-.3-.5-.7.2-.1.3-1.1.1-3.6l-.1-3.4-1-1.2c-.8-1-1-1.4-1-2.2.1-.6 0-1.3-.2-1.6l-.3-.6-.4.5a2 2 0 0 0-.3.9c0 .2-.3.7-.6 1-.6.7-.6 1.4.4 4.9.8 2.8 1 3.5.5 3.5-.4 0-1.5-3-2-5.4-.2-1.6-.2-2 .2-2.3l.5-1.3.3-1.5c.2-.6 0-1-.9-2-1-1-1.2-1.7-.4-1.7.2 0 .5.2.6.4 0 .2 1 .8 2 1.3l1.8 1v1.8l-.1 1.8 1 1.3c1.4 2 1.4 2 2.3 2 1.6-.2 1.8 0 2.3 1.1l.5 1.2 1.2.3c1.4.3 2.6 1.2 2 1.4l-1 .2a1 1 0 0 0-.8.7l-.3.6.8-.3c.4 0 .9-.2 1-.3.2-.1.7 0 1.1.2l.9.5 2.4-.4 2.4-.3 6.2-3a118 118 0 0 0 7.5-4c2-1.3 3.2-1.6 4.2-1 .4.3 1 .4 1.5.2l.8-.1.6.9c.4.6.5 1.3.5 2.5v1.7l-1 1c-.4.6-1.4 1.3-2.2 1.6l-1.4.8-2 1c-2.5 1-5.8 3-6.3 3.7-.2.4-.6.6-1 .6a5 5 0 0 0-2.8 1.4c-.3.5-.3 2.5 0 2.7.6.3.3.7-.8.8-.6.1-1.4.5-1.8.9-1.1.9-2.5 1-4.4.3-1.8-.6-2.9-.7-2.6-.3.4.7-2 4-2.9 4-.3 0-.7.1-.9.3-.3.4-1.6 0-1.6-.3l.6-1.2c.4-.5.7-1.2.6-1.5v-.6l-1 1.2c-.4.7-1.1 1.5-1.5 1.7-.5.2-.8.8-1.3 2.3-.4 1.2-.8 2-.9 2-.3 0-.3-.8 0-1.7.6-1.3.7-2.4.5-2.8-.2-.3-.3-.3-.5 0-.3.5-1.2 3.4-1.6 5.3-.2.9-.4 1.4-.7 1.4-.5 0-.4-1.4 0-2 .3-.3.4-.9.4-1.3 0-.7 0-.7-.2-.4l-.5.5c-.4 0-.4-.7.2-2.1.2-.7.3-1.4.2-1.5-.4-.5-3.3 1.4-5.5 3.6-2.1 2.1-3.2 3-3.4 2.7-.2-.1.5-1 1.9-2.3l2-2.2c-.2-.2-2.4 1.3-3.5 2.4-.5.4-1 .7-1.2.7-.2-.1 0-.4.5-.9.4-.4.8-.8.8-1H160c-1 .1-1.5 0-1.5-.2 0-.5-.8-.2-1 .5-.3.5-.3.7 0 .9.2 0 .2.5 0 1.6l-.2 2.7v1.3H156l-1.2-.1c-.2-.3.8-4.3 1.2-5.2.2-.4.2-.7 0-1-.3-.2-1.3 2.5-1.3 3.6 0 1-.5 1-.6 0l-.1-.7-.4 1c-.4.7-1.6 5.3-2.3 8.2-1 5-1.5 11-.9 12.5.5 1.3-.5 4.1-1 3.2-.4-.4 0-7 .4-10.4a90 90 0 0 1 2-10c.3-1.1.1-1.9-.3-1l-.3.7v-1c0-.6.3-1.9.6-3l.6-1.8.1 1.2.2 1.2.6-1.3c.3-.7.6-1.5.6-1.9 0-.3.1-.7.3-.9.1-.1.2-.4 0-.5-.2-.2-1.1.9-1.1 1.4 0 .2-.2.4-.3.5-.2.2-.3 0-.2-.7 0-.8 0-.9-.9-.8-.1 0-.2.3-.1.5 0 .2 0 .9-.3 1.5l-1 3.3c-.3 1.2-.8 2.4-1 2.7-.4.4-1 2.8-1.5 6.5a62.5 62.5 0 0 1-.8 5l-.3 1.8a54 54 0 0 0-.5 3.8c-.3 2.2-.3 2.8 0 4 .5 1.5.3 3.7-.3 3.7-.5 0-.6-3-.2-8a317.3 317.3 0 0 0 .7-6.5l.5-2c.2-1.4 1.7-9 2.2-10.8.1-.6.5-1.6.8-2.3.4-.8.5-1.4.3-1.6-.1-.1-.3 0-.5.1a105.8 105.8 0 0 0-4.6 20.3 73 73 0 0 0-.7 12 29 29 0 0 0 2.3 12.4c0 .3.3 1 .5 1.4.3.5.6 1 .6 1.3 0 .2.3.8.8 1.3.4.5.8 1.2.8 1.6 0 .4.2.7.6 1 .3 0 1 .8 1.4 1.6.6 1.2 1 1.5 2.4 2.2.9.5 2.2 1 2.9 1 1.4.1 4.3 1.3 5.4 2.2.3.3 1.2.7 1.8.9 2.7.8 5 1.7 5.2 2 .3.5 2.5 2 3 2 .1 0 1 .4 1.8 1l2 .9a39.8 39.8 0 0 0 17 2c3.8-.5 4.3-.6 4.3-1.1 0-.3.4-.4 1-.4s1-.2 1.3-.7c.2-.3.6-.6 1-.6l1.5-.6c1.2-.6 3.4-1.2 3.6-1 .5.5-2.1 1.8-3.4 1.8-.8 0-1.9.8-1.6 1.1.2.2 1.2 0 2.6-.3 3.2-.8 3.6-1 3.6-1.6 0-.2.2-.6.4-.7.4-.3.3-.3-.4-.3-1.3 0-.7-.4 1.4-1 1.4-.2 1.9-.3 2.3 0 .7.4 2-.3 3.6-2a10 10 0 0 0 2.7-4.3c.3-.9.7-1.4 1.2-1.7.7-.3 4.6-4.2 4.6-4.6l-.8.2c-.4.3-.8.4-1 .3l1.4-1.6c.8-.8 1.5-1.6 1.5-2 0-.4 1.5-3 1.8-3v.6c-.2.8 0 .7 1.2-.6 1.8-2 2.3-2.9 1.2-2.6-.7.2-.4-.5 1-2.3.6-.8 1.3-2 1.5-2.7l1-2.7c.4-1.2.5-1.6.2-2-.3-.5-.2-.6.2-1.2.7-.7 1.1-2.9 1.3-6.5.2-2 .1-2.9 0-3-.3-.2-.4 0-.4.5 0 .4-.1 1-.3 1.2-.4.7-.6 0-.3-1.4.5-2.2.4-4.8-.2-5.6-.3-.4-.5-.8-.4-1l.6-2.3.4-2.1-.7-2.2c-.4-1.3-.8-2.4-1-2.6-.5-1.2-1.5.1-1 1.6 0 .5.3.8.5.8.3 0 1 1.2.7 1.4h-.5c-.4-.5-.7-.5-.7.1 0 .7-.5 1-.7.3-.3-1.2-.8-.3-.8 1.6 0 3.2-.9 8.3-1.3 7.9l.2-3.8c.5-5.6.4-7.7 0-7.7s-.4.5-.4 3.6l.1 3.6-.7 1.5c-.5.8-1 1.8-1 2.3l-.4.8c-.3 0 0-1.4.7-3.1.4-1 .6-2 .6-3.2 0-1.7-.4-3.8-.8-3.8l-.7 1.8-.8 3.2c-.2.8-.3 1.8-.2 2.2.1.6-.1 1.3-.9 3l-1.3 2.4c-.2 0-.5.6-.6 1.2l-.5 1c-.4 0-.4-.3 0-.6l.7-2.2 1.3-3.4.6-1.9.7-2.6c.6-1.8 1.2-5 .7-4.1 0 .1-.3.3-.5.3-.3 0-.4-.2-.2-.7l.4-2.2.4-2.3.3-.8 1.4.1 3.4.2h1.9l.7-.7.7-.7-.6-1.2c-.6-1.4-1-1.5-1.9-.7-1 .7-1.4.7-2-.4-.4-.5-.8-1-1.1-1-.5 0-1.4.9-1.4 1.3 0 .6-.5.7-1 .2-.8-.7-.7-1.4.2-1.4.5 0 .8-.2 1.1-.8.3-.5.7-.8.9-.8.2 0 .9.5 1.5 1 1.3 1.2 1.4 1.3 2.7.7 1.2-.6 1.7-.4 2 .7.1 1 .7 1.2 1.4.8a5 5 0 0 1 1.3-.4c.7-.2 1.4-.7 2.5-1.8 2.3-2.4 2.7-3 3.3-5.5L243 76c.3-1-.4-1.4-2.8-1.7a54 54 0 0 1-7-1 360.1 360.1 0 0 1-18.4-2.6l-1-.2-.1.7c-.2.7.2 7.3.6 9l1.3 3 1.1 1.7 1.5.7c1.8.8 2.1.8 2.8 0 .5-.6.7-.8 1.3-.6.8.2 1.4 1.1 1 1.6-.2.1-.7.3-1.3.3h-1v.7c-.2.8.8 2 2 2.5 1 .4 1 .6.4 2.8l-.7 3.4c-.5 2.6-1.1 4.2-1.5 4-.3-.2-.3-.8 0-3.1.3-4.2.5-6.7.3-6.9-.4-.3-.9.6-.9 1.6 0 2.3-.4 2.4-.6.1-.1-2-.5-4.5-.7-4.2l-.1 2.6c-.2 3-.4 4.3-.7 4.1-.1 0-.2-1 0-2.2.1-2.5-.3-3.8-1-3.6l-.6.2v-1.4c0-1.2 0-1.6-.6-2-.7-.7-1.4-.8-1.6 0l-.1 7.4c0 7 0 8.7-.7 8.7-.3 0-.4-.3-.2-1.2.3-1.6.2-13.9-.2-14.3a4 4 0 0 1-.4-1.3c-.2-1.3-1-3-1.2-3-.3 0-.3.7 0 7 .3 4.6.3 6.5-.1 6.1-.2-.2-1-12.4-.9-13.4.1-1-.2-2.2-.5-2.2l-1.6 1.2c-1 1-1.6 1.2-2.1 1.2-.6-.1-.8 0-.8.5-.1.6-1 1.4-1.7 1.4-.5 0-3.1-2.8-3.1-3.3l-.3-.6c-.4-.2-.3-.8.2-1 .3-.1.6-.5.7-.8.2-1 .7-.9.7 0 0 .5.2 1 .4 1.2.2.2.4.7.4 1.1 0 1.1 1 2 1.8 1.9.3-.1.6-.4.6-.6 0-.3.3-.6.8-.8.4-.2 1.4-1 2.2-1.8 1.2-1.1 1.7-1.4 2.3-1.4.5 0 1.1-.2 1.4-.4l.5-.4v-6.5h1.6c.9 0 2.3 0 3.2.2l1.6.2.7-.6c.4-.4 1-1 1.1-1.6.3-.7.7-1.1 1.4-1.4.5-.2.9-.5.9-.7l1-1.2 1-.9.2-1.8c.1-1.4.1-2-.1-2.3-.3-.3-.3-.5.2-.8l.8-1.2c.4-.8.8-1 .8-.2 0 .3.1.6.3.6.3.2.8-2.9 1-5.5 0-1.4.1-2.6.3-2.8a114.1 114.1 0 0 1 2.1-15.5c.2-.6.4-.7 1.4-.8l1.6-.1c2-.3 3.3 1.4 2.3 3.2-.3.7-.2.8 1 1 1.6.2 2.5-.1 2.8-1l.3-.7.2 1c0 .5.2 1 .3 1.3 0 .3-.2.4-1.2.4-1.5 0-2.9.6-2.3.9h2a26 26 0 0 1 7.3.5c.8.2 2.2.3 3.1.3h1.8l-.8-.4c-1.6-.7-3.7-1.2-4.4-1-.9.1-1.5-.3-1.1-.8.4-.5.6-2.3.8-7 .3-6.1 1-12.4 1.4-12.9.3-.4 1.2-.5 1.4-.1a81.5 81.5 0 0 0-2.2 12.6c-.4 2.2-.4 7 0 7.4.2.2.8.4 1.3.4l3 .4c2.4.5 2.5.4 2.5-1.6 0-1.5.4-2.3 1-2.3.8 0 3 1 3.2 1.5 0 .2 0 1.7-.2 3.2-.6 6-.8 9.9-.4 11 .4.7.4 1.4.1 4.5-.1 2-.2 3.7-.1 3.9 0 0 .2 7.2.2 15.6 0 8.5 0 15.7.2 16 .3.7.7 0 .9-1.3 0-.9 0-.8.1.4 0 1.3 0 1.6-.5 1.9l-.5.3.3 1.9c.3 2 .8 3 1.5 3 .3 0 1 .3 1.5.6 1.1.6 1.8.6 2.4 0l.4-.3v.5l-.4 2c-.2.9-.4 2-.4 2.7 0 .7 0 1.3-.4 1.6a220.7 220.7 0 0 1-3 14.2l-.2.8v-1c0-1.5 1.2-8.4 2.1-12 .9-3.4 1.6-6.7 1.4-6.9 0 0-.4 0-.7.4-.7.6-2.6.7-3.2.2-.3-.3-.7-.4-1-.2-.6.2-2 .3-3.8.3-.5 0-.9 0-1-.2 0-.1-1-.3-2-.3-1.8-.2-2.7-.6-1.9-1 .7-.4.6-.7-.3-1-.6-.4-.6-.5-.3-.7.3-.2.6-1.4 1-3.2.5-3 1-4.2.7-1.6 0 .9-.3 2.2-.4 3-.2 1-.2 1.4 0 1.7.3.3.5.4.6.2.2-.1.7-2.3 1.2-4.8.8-4.2 1.1-5.5 1.1-4.5l-.5 3c-.6 2.7-.7 5.5-.4 6.5.2.4.1.6-.4.8-.7.2-.7.3 1.2.8.6.1 1.2.2 1.6 0 .8-.3.9-.8 0-.8-.3 0-.7-.1-1-.3l-.3-.2.4-.3c.5-.3.7-1.3.2-1.3-.1 0-.2.1-.2.3 0 .3-.1.3-.3 0-.3-.2-.2-.4.2-.8l.6-.5v-6.5c0-3.5-.1-7.3-.3-8.4 0-1-.3-4.2-.3-7s-.2-5.2-.3-5.3c0-.2-.5-.4-1-.5a66 66 0 0 0-10-.4c-.3.2-.5.8-.6 1.8 0 .8-.3 2-.6 2.7l-.4 1.2.2-1.6.2-2.8.2-1.2-1.2-.2c-1.7-.2-2.3.1-2.5 1.4-.2 1.5-.5 1.4-.6-.2l-.1-1.2h-1.6v1c-.2 1 1 3.4 2 4.2.3.2 1.3.5 2 .6.9.1 1.8.4 2.2.6l1 .3c.5 0 1.7.7 1.8 1.1.1.4-1.5 6.2-2.2 7.9-.2.5-.4 1.8-.5 3a76.5 76.5 0 0 1-.6 9.7c.3.6 3.2 1.1 3.7.6l.1-1.3c0-.6.3-1.5.5-2s.6-2.1.7-3.5l.4-3.3 1.5-13c0-.5.3-1 .5-1s.3 0 .2.7l-.5 3.9a334.5 334.5 0 0 1-2.4 16.3c-.3.5-.3 2.6 0 2.6l.6-.4.5-.5v1.2c0 1 .1 1.3.6 1.5l.6.3h-1.2c-1.5 0-2.1.4-1.5.7.4.2.2.3-.8.5-1.4.1-3 .9-2.8 1.2 0 .2.3.3.6.3s.5 0 .5.2c0 .3-1.8 0-2-.3l-1-.2h-.8l.7-.3.8-.3-.7-.6c-.5-.5-1-.6-1.4-.5-.4.1-.8 0-1.2-.3l-.5-.5-.4.5c-.8 1.1-.7 3 .2 3 .2 0 .7.4 1.2.9.5.4 1.1.8 1.3.8.4 0 1.2.2 2.8 1 .3.2.4.2.1.1h-1.6l-1.1.2v1.7c.1 2 0 3.2-.4 2.7v-1c0-.3 0-.5-.2-.5-.1 0-.4.7-.6 1.6l-.3 1.6-.2-.8c-.3-1-.6-1-1-.3-.3.6-.3 4.4 0 4.7.2 0 .2-.1.2-.5 0-1 .7-1.4 1.1-.9.4.5.8.3.8-.6 0-.4.2 0 .2.7l.2 1.5 1.2.2c1.3.2 4.7 1.1 6.7 1.7.8.2 1.8.7 2.3 1 .6.4 1.5.8 2.2 1 .7.1 1.3.4 1.4.5 0 .1.8.2 1.7.2 1.3 0 1.6 0 1.6.5 0 .7.6 1.2 1.1 1 .5-.2.9.9.6 1.6l-.2.4-.6-.5a7 7 0 0 0-3.7-1.6c-.5 0-1.4-.2-2-.5l-2-.9a11 11 0 0 0-2.1-.7c-.6 0-1.3-.3-1.5-.6-.6-.6-3.3-1.2-3.8-.8-.2.2-.4.2-.7-.1-.6-.9-3.4-.3-3.8.8l-.4 3.3c-.1 1.5-.4 3.2-.6 3.7l-.9 3.1c-.2 1.3-.6 2.8-.8 3.3l-.9 4.3-.5 3.1.4.4c.3.2.8.3 1 .3.5 0 .6-.4.8-1.8 0-1 .3-2.3.4-3l.3-1.1-.1 1.6-.3 4.4-.2 2.8.7.3c1.3.6 1.5.3 1.5-2.6 0-1.7 0-2.4.3-2.2.2.5.3.4.7-.6l.3-.8v1.2l-.3 3-.2 1.9.5.4c.4.3 1 .5 1.5.5 1.1 0 3.6.5 4 .8.3.4-1.5.3-3-.1-1.5-.5-2.5-.5-3-.1-.3.4 0 1 .5 1 .3 0 .6.1.7.3.2.3-1 .3-1.4 0l-.4-.8c0-.8-1.2-1.4-1.8-1-.6.2-.7 2-.2 2.5.4.2 3.2.7 6.4 1 2 .2 3.6.8 3.2 1.2h-2.8l-4.4-.5c-1.4-.1-2-.3-2.2-.6-.1-.2-.6-.5-1-.6l-.8-.2.5-.5c.3-.3.4-.7.4-1.4a6.1 6.1 0 0 1 0-2.7c.2-.8-.4-1.7-1.3-1.7-.8 0-1.3.5-1 1 .4.6.4 1 0 1s-.5.4-.5 1.1c0 .8.1 1 .7 1.3.4.2.6.5.5.6 0 .1-.3.2-.4.1-.4-.2-1 .7-1 1.4 0 .4.1.6.7.8a30.2 30.2 0 0 0 8.2 1.5c1.2 0 2 .2 2.3.5.3.2 1.2.5 2 .6 1.6.2 2.4.6 1 .6-.3 0-.9.3-1.2.6-.2.3-.3.5-.1.5.1 0 .3.2.3.4 0 .5-.4.5-1.1.1l-.6-.3.5-.3.4-.3-1-.3-2.3-.5c-.8 0-2.9-.4-4.7-.7-3.7-.6-4.9-.6-4.9 0 0 .3.4.5 1.3.5l2.5.3c.7.2 2.3.4 3.5.4 4.4.4 5.4 1 2.6 1.7-1.2.2-2.1.2-5 0l-3.4-.2c0 .3.6.5 2.7.8l2 .4c.3.2-1.6.1-4.3-.3-3-.4-3.6-.5-3.6-.2 0 .2.8.4 1.8.6l4 .7c1.3.2 2.5.6 2.8.8l.5.5-2.5.2a46.7 46.7 0 0 0-7 .8c-.7 0-1 .2-1 .5 0 .5-1.6.8-3.4.5-1-.2-2-.2-2.7 0-.8.2-1.4.2-2.3 0-1.1-.3-10.4-.8-15.3-.8-1.4 0-4.1.1-6 .4a76.8 76.8 0 0 1-18.2-.4c-1.9-.2-5.3-1.3-6.4-2l-2-.9-2.6-1.3c-.7-.5-1.4-.8-1.7-.8-.3 0-1.2-.3-1.8-.7-.7-.4-1.6-.7-2-.7-.4 0-1-.2-1.4-.6a16.9 16.9 0 0 0-8.8-3.3c-.9-.3-1.3-.6-3.3-2.8-.4-.4-.9-.7-1.1-.7-.3 0-1-.2-1.6-.5-.6-.3-1.6-.5-2.4-.5a4 4 0 0 1-2-.4c-.2-.2-.7-.4-1-.4-.4 0-.7-.1-.8-.3l-.8-.2c-.4 0-.9-.3-1.1-.5-.4-.5-1-.6-4-.6l-3.7.1c-.3.2-.4 0-.5-.4l-.2-.6-1.2.2c-1 .1-1.3 0-1.6-.2-.4-.5-1-.5-2.6 0-.4.1-.6 0-.8-.4l-.2-.6h-2l-2.4.1c-.2.1-.8 0-1.4-.3-.8-.5-1.4-.6-2.6-.5l-1.5.2-.4-.7-.4-.6h-3.6c-2.9 0-3.6 0-4.2-.4-.4-.2-.7-.6-.7-.8 0-.3-.3-.4-1-.4a40 40 0 0 1-6.9-1s0-.2.3-.4l.5-.4-.9-.3c-1.6-.5-4.4-.6-5.5-.2-1 .4-1.2 1-.3 1 .3 0 .4.2.2.7 0 .4-.3.9-.5 1-.5.4-.5.7 0 .7s.5.8 0 1.1l-.5.3.7.4.7.3-.1 1.7c0 1 0 2 .4 2.9.5 1.3.7 3 .2 3.2-.1 0-.2.6 0 1.2l.1 1-.6.2c-.4.1-.5.4-.5 1.6 0 1-.2 1.5-.5 2l-.6.7-.4.6-.9 1.4a12 12 0 0 1-1.9 2.5c-1.6 1.7-1.4 2.1.5 1.5a5 5 0 0 1 2.3-.3c1.4.2 3.1 1.1 3.3 1.7 0 .5 1 1.1 2.3 1.5.4.1.6.4.7.9v.7l3.2.4c6.9 1 9.4 1.3 13 1.6 3.4.3 5.1.7 3.6.8-1.3.1-4.7.3-7.9.3-2.2 0-3.3.2-3.6.4-.4.3-.7.4-2.2 0-2.6-.4-11.4-.6-12.3-.2-.9.4-1 .8-.2.8.9 0 .3.5-.7.7-.5 0-1.3.3-1.7.5l-1 .4c-.2 0-.8.2-1.4.6l-1.2.6h-3.7c-4.2 0-5 .2-5.8 1.1l-.6.7h-3.9c-2.9.2-4.3 0-5.3-.2-1.2-.3-1.5-.3-2.1 0-.6.3-1 .4-1.8.1-1.3-.3-1.6-.2-1.2.5.4.8 2.3 1.7 3.8 1.9 1.1 0 1.3.2 1.3.6v.6l-2.2.2c-1.3.2-3 .5-3.7.8l-1.4.5-4.8-.4a26.6 26.6 0 0 1-10.1-2.2c-.3.2.6 1.4 1.4 1.9.9.6 1.6 1.5 1.5 1.7-.1.2-1 .2-2.2 0h-2l-1.5-1.1-1.7-1c-.1 0 0 .4.4 1 .6 1 .6 1.1-1 1.6l-1.2.4-.5-.7c-.4-.5-.5-.5-.5-.2s-.2.5-.5.6c-.8.3-3.2-.6-3.2-1s-.1-.4-.6-.3l-2.3.4c-1 .2-2.4.6-3.3 1l-2 .9c-.1 0-.2 0-.2.2 0 .3-.7.3-1.9 0zm35.2-4.5-.4-.2c-.2 0-.4 0-.3.2.1.2.3.3.4.3.2 0 .3-.1.3-.3zm-1.9-.5a2 2 0 0 0-.9-.2h-.5l.5.2 1 .2h.3zm-8-.4c-.5-.6-3.2-2-3.6-1.9-.6.3.6 1.3 2 1.7 1.2.3 1.9.4 1.6.2zm2-.8c0-.2-.3-.4-.5-.4-.3 0-.3 0 0 .4l.5.4c.1 0 .1-.2 0-.4zm8.7-1.2c-1.1-1-1.6-1-1.6-.5 0 .3 1.9 1.5 2.3 1.6.2 0-.1-.5-.7-1zm9.6-2.4c-.2-.2-.4-.2-.4 0 0 .3.4.6.5.4l-.1-.4zm-9.4-.8c-.6-2-1-2.5-1.4-1.7-.1.5.2 1.3.9 2 .6.8.8.6.5-.3zm7.5.3c0-.3-.1-.5-.3-.5-.3 0-.8.7-.6.9.3.3.9.1.9-.4zm7.1-.1c0-.2-.2-.4-.4-.4-.4 0-.4 0-.1.4l.4.4.1-.4zm-3.4-.6c0-.2-.2-.3-.3-.2-.2 0-.2.3-.1.4.2.4.4.3.4-.2zm-9-.8c.5-.6.8-1.4.8-1.9 0-1-.8-3-2-5.6l-.9-2.8-.1-1.1-1.4-1c-1.8-1.4-3-2.2-4.6-2.8-4.7-1.8-4.5-1.7-4.5-1.3 0 .2.9.9 2 1.7 1 .7 1.9 1.5 1.8 1.7 0 .2.9 1 2.3 1.9 2 1.3 5 3.8 5 4.1l.5 1.3c.6 1.2.5 1.7-.1 1.7-.4 0-.5-.1-.8-1.2-.1-.2-.3-.3-.4-.2l.2 1.3c.3.6.7 2 .8 3.1.2 1.2.5 2 .6 2 0 0 .5-.4.9-1zm3-3.2c.3-2 .6-1.9 1 .5l.3.9.4-.5c.2-.4.3-1 .2-2.6l-.1-2h.7c.5.2.8.1.8 0 0-.6-.8-2.2-1.4-2.6-.3-.3-.7-1-.8-1.4a6 6 0 0 0-1.1-2c-1-1.3-1.7-1.6-1.2-.6.4.7 0 1.2-.6.8a.9.9 0 0 0-.8-.2c-.4.1-.2.4.8 1.2 1.3 1.2 2.3 2.9 2.2 3.8-.2.8-.9.6-1.2-.3-.2-.9-2.4-3-3-3-.3 0 0 .8 1 3.1.5 1 1 2.5 1.2 3.5.2 1 .5 2 .7 2.3.1.4.2 1 .1 1.2l-.2.6.5-.6a5 5 0 0 0 .6-2zm6.3 1.3c1-1 2-3 1.5-2.9-.2 0-.5.4-.7.8-.2.4-.5.7-.7.7-.2 0-.6.5-1 1-1 1.7-.6 2 .9.4zm3.9-1.8c1-2 1.2-3 .4-1.8-1.4 1.9-2.2 3.2-2 3.5.2.7.5.3 1.6-1.7zm-5.5.6c.5-1.1.5-2.2 0-2-.3.1-.6.8-.9 1.7-.3 1.2-.4 1.5 0 1.5.1 0 .6-.6.9-1.2zm27.2.7c.3-.2.1-.3-.6-.5-1.2-.2-1.8 0-2 .4-.1.4 2 .4 2.6 0zm8-.6c-.6-.3-1-.3-.7 0 0 .2.3.3.6.3.4 0 .4 0 0-.3zm-2-.3c-1.2-.3-7-.6-6.7-.4.1.2 4.4.6 6.6.6h1.1l-1-.2zm-19-.4c0-.2 0-.4-.2-.4-.4 0-.6.5-.4.7.3.3.6.2.6-.3zm8.8-.2c.4-.3.8-.5.8-.7 0-.2-2.7-.8-4.2-.8-1.7 0-3.8.6-3.8 1 0 .3.2.4.9.2l3-.3c1.5-.1 2 0 1.9.2 0 .2-.9.3-2.3.3-1.3 0-2.3.2-2.5.4-.4.5 5.2.2 6.2-.3zm-15-1c.4-.6.7-1.2.6-1.6l-.1-.6-.2.5-1.2 2.6c-.3.6.3 0 .9-.8zm15.5-1.5c.8-.2.7-.2-.7-.3-1.6 0-2 .2-1.5.6h.7l1.5-.3zm-20.4-.6c0-.6-.5-2-.7-1.7-.2.2.2 2.5.5 2.4l.2-.7zm2.4 0c0-.1-.1-.2-.3-.2l-.2.4c0 .2 0 .3.2.2.2 0 .3-.2.3-.4zm-26.1-1.4c-.1-.3-.3-.4-.4-.2-.3.3 0 1 .3.7.1 0 .2-.3 0-.5zm34.1-1.6a4 4 0 0 0 .3-2l-.1-.6-.5.6c-.6.8-1.2.5-1-.6V152c-.1-.8-.2-1-.4-.5l-.3.5-.7-.8c-1-.8-1-.8-.3 1 .4 1 .5 1.7.4 2.5-.1 1.1.2 1.8 1 2 .3.2.5.4.5.7 0 .8.6.2 1.1-1.1zm-7.6-.1.2-1-.5.6c-.2.2-.4.8-.4 1.1 0 1 .5.4.7-.7zm1.4.2c0-.3 0-.5-.2-.5s-.3.4-.3.9c0 .6 0 .7.3.4l.2-.8zm2.7-.3c0-.5-1.3-2-1.6-2-.3.3-.3 1.9 0 2.2.2.3 1.6.1 1.6-.2zm150.1-.2c.2-.2-1.4-.5-2.6-.5-.7 0-.6 0 .5.4 1.7.4 2 .4 2.1.1zm-14.3-.6c-.2-.2-.5-.2-1 0l-.8.3h1c.8 0 1 0 .8-.3zm2.4 0c.1 0-.1-.2-.5-.2s-.6.1-.5.3l.5.2c.2 0 .4 0 .5-.2zm6-.7c.1 0 .2-.1.1-.3-.2-.3-2-.3-2 0 0 .4.4.6 1 .4l.8-.1zm-138.2-1c.2-1.6.4-2 .7-1.9.1 0 .3.6.3 1.3 0 1.6.6 1.7.8 0 .2-1.5.5-1.7 1-.6.3.8.2.9 1.1-1.3.4-1 1-1.9 1.3-2.2.5-.5.6-1.2 0-1.9-.9-1.2 0-2 1.4-1l.6.4v-.5a10 10 0 0 0-2.2-3.3c-.1 0-.2-.3-.1-.6 0-.4.3-.5.8-.5 1.3.1.7-1.5-.7-1.8-.7-.1-.8-.7-.2-1 .9-.1.7-.5-.8-1-.9-.3-1.4-.7-1.4-1 0-.4-3.5-1.4-3.9-1-.1.2.4.7 1.4 1.3 1 .6 1.6 1.2 1.6 1.5 0 .3.3.9.6 1.3.9 1 .6 1.5-.5.9l-3.3-1.5c-.3 0 .8 1 2.1 1.9 1.2.8 1.5 1.2 1.8 2.1.3.8.3 1.2 0 1.4-.2.2-.3.2-.5 0-1.1-2.1-1.6-1.7-.5.4.5 1.1.8 2 .8 2.8 0 1.2-.3 1.6-.7 1-.1-.3-.2-.2-.4 0-.4.7-.7.6-.9-.4-.1-.8-2.7-4-2.8-3.5l.8 1.8c.9 1.6 1.3 4 .9 4.3-.2 0-.6-.4-1-1.3-.3-.8-.7-1.5-.9-1.5-.1 0-.2.7-.1 1.4 0 1 .3 1.5.8 2 .4.3.6.8.6 1.3 0 .8.6 1.7 1 1.7.2 0 .4-.5.5-1zm145.6.7c0-.1-.2-.3-.5-.3s-.6.2-.6.3c0 .2.3.3.6.3s.5-.1.5-.3zm-17.5-.9c1-.1 2-.5 2.4-.7l1-.5 1.3-.4 1-.5-1-.2-1-.1 1.8-.6c2.3-.7 2.9-.7 1.7 0-.4.2-.8.6-.8.8 0 .2-.6.6-1.3 1l-1.2.4.7.5.7.5 1.7-.5c1.6-.4 4.4-1.8 4.7-2.3v-.5c-.2 0 .3-.6 1-1.1 1.5-1.2 2.2-2.5 1.5-3-.3-.2-.4-.5-.2-1.1 0-.7 0-.8-.3-.8l-.8-.2c-.6-.2-2 1.4-2.1 2.7-.2 1.1-.7 1.4-.7.4 0-.7-.5-1-.9-.6-.1.2-.4.3-.5.3-.4 0 1.4-2.3 4-5.2 1.4-1.6 2.7-3.5 2.7-4 0-.1-.2-.3-.4-.3l-.4-.1 1-2.3c.9-1.6 1-2.3.8-2.5-.2-.2-.5 0-1.2.8-.8 1-1.1 1.1-1.6 1-.4-.1-.6 0-.6.2l-.5 1c-.3.3-.5.7-.4.8 0 0 .3 0 .5-.4.2-.2.5-.4.6-.3.2.2-1.4 2.1-4.3 5-2.1 2-2.9 2.9-3.7 4.5-.5 1.1-.9 2.2-.8 2.3.3.5-.4 1-2 1.9l-3.4 1.7c-2.3 1.1-2.3 1.7 0 1 2.2-.5 2.7-.5 1.7.2-.4.3-1.2.5-1.6.5-1.1 0-2.3.5-2.1.8.2.3.8.3 3 0zm14.1.1c.2 0 .2-.1 0-.2-.5-.4-2-.4-2.3 0-.1.2 1 .5 1.7.3h.6zm-149.5-1.2-.7-1.5c-.6-.8-.8-1-.9-.7 0 .6.5 2.4.9 2.7.3.2.7 0 .7-.5zm-31.5-1.8c0-.2-1.7-1.1-2.4-1.3l-.6-.2.3.4c.1.3.8.7 1.4.8a27.5 27.5 0 0 1 1.3.3zm33.9-2c0-.6-1.5-2.4-1.8-2-.2.1 1.2 2.5 1.6 2.5 0 0 .2-.2.2-.5zm148.9 0 2-1.7 1.2-1V143l-.4.4c-.2.2-.5.2-.6.1-.2-.2.4-.8 1-1 .3-.1.6-2.8.3-2.8-.1 0-.4.3-.6.8l-.5.7c-.4 0-.3-.2.3-2 .3-.8.4-1.6.4-1.9a44.3 44.3 0 0 0 3.3-9.8c0-.6-.6 0-1.2 1.4-.4.8-.8 1.5-1 1.6h-.5c0-.2.9-1.5 1.3-2 .4-.3.4-1 0-1s-.3-.8.4-2.1c1.2-2.3.7-3.4-.5-1.3-.8 1.4-1 2.7-.7 3.2.2.2 0 .6-.2 1.1-1 1.6-1.3 2.3-1.2 2.6 0 0 .3.1.4 0 .4-.2.3 0-1.2 2.3-1.2 1.7-1.4 2.3-1.3 2.9.1.6 0 1.2-.8 2.6l-1 2c0 .3.8.2 1-.1 0-.2 0-.2 0 0 .1.3 0 .5-.1.5-.4 0-.7 1.7-.3 1.9.2.1.2.3 0 .7-.2.3-.3 1.2-.3 2 0 .7-.2 1.6-.4 2-.3.7-.3 1.1.1 1.1 0 0 .6-.2 1-.6zm.3-2c0-.3.9-1.7 1.1-1.7.3 0-.5 1.5-.9 1.7-.1.1-.2 0-.2 0zm1.3-2.2c0-.2.1-.3.3-.3.1 0 .2.1.1.3l-.3.2-.1-.2zm-.3-8.6.5-.5.5-.3-.4.4c-.3.5-.6.6-.6.4zm-153 12c-.3-.4-.6-.8-.8-.8 0 0 0 .4.4.8l.7.8-.4-.8zm-12.2-2.1c0-.2-.3-.3-.4-.3-.2 0-.2.1-.1.3l.4.2c.1 0 .2 0 .1-.2zm162-2.7c.1-.3-.6-.6-1.2-.4-.4.2-.4.2 0 .4.5.4 1 .4 1.1 0zm-161.4-3.6h-.5c-.2.1-.2.2.1.2.3 0 .5 0 .4-.2zm81.3-1c0-.3-.4-.2-.5.1 0 .2 0 .3.2.3l.3-.3zm-55-.6c0-.3-3.2-1.6-3.8-1.6-.5 0 0 .3 1.7 1 1.9.9 2 .9 2 .6zm51.2 0h-.5c-.2.1-.1.2.2.2.2 0 .4 0 .3-.2zm4.8-.7c0-.1 0-.5-.2-.8l-.3-1.5c0-1-.3-1-2.2-.3-1.6.5-1.6 1 0 .7l1.5.1c.1.1 0 .7-.4 1.2l-.5 1 1-.1 1.1-.3zm-78.9 0c-.2-.2-2.9-1-3-.8-.2.2 1.5.9 2.3.9.5 0 .8 0 .7-.1zm73-.5c.5-.9.1-.9-1.5 0l-1.1.6 1.1-.1c.7-.1 1.3-.3 1.4-.5zm-55.6-2c.3-.4-.5-.8-2.2-1-2-.2-2 0 0 .7 1.7.6 2 .6 2.2.3zm2.8 0c0-.2-.1-.3-.3-.3-.1 0-.2.1 0 .3l.2.2.1-.2zm-8.3-1.5c-1-.3-1.2-.5-1.2-.9.1-.2.4-.4.8-.4.3 0 1.8 0 3.3-.2h4.3c1.6.2 3.2 0 3.2-.5l.8-.5.7-.4-1.5.5c-.8.4-1.6.7-1.9.7-.8 0-.5-.8.5-1.2.6-.3.9-.6.8-.9 0-.3.2-.4.5-.5.3 0 .7-.3.7-.6.1-.4 0-.5-.5-.5-.4 0-.9-.1-1-.3-.3-.2-.5-.2-1.1.1a11.8 11.8 0 0 1-6 1.7H78l-1.4.1.9.5c.7.4 1.5.5 3.5.5 2.5 0 3.4.3 1.8.7a43.6 43.6 0 0 1-10.3-.4c-2.3-.6-2.4-.6-1.7 0 .4.3 1 .5 1.6.5 1.5 0 3.5.8 4 1.5.4.7.9.8 3 .9h1.4zm6.5-3c0-.2.1-.3.4-.3.2 0 .4.1.4.3l-.4.2c-.3 0-.4 0-.4-.2zm.5 2.4c-.2-.2-.6-.3-.8-.3-.3 0-.2.1.1.3.8.3 1.2.3.7 0zm-18.3-.8c.3-.2-.7-1-1.9-1.2-1-.3-1 .4.1 1 1 .5 1.3.5 1.8.2zm162.4-3c.2-.7-.1-1-.6-.4-.5.7-.5 1 0 1 .2 0 .5-.3.6-.6zm-155.2-.7c.4-.3.3-.4-.6-.7-.5 0-.7 0-.8.2-.3.6.7.9 1.4.5zm154-.4c.1-.3.1-.4 0-.4-.2 0-.3.1-.3.4l.1.4.3-.4zm5-2.8c0-.3-.1-.5-.3-.4l-.2.5c0 .2 0 .4.2.4s.3-.2.3-.5zm-.5-4c.3-.6.6-1.7.7-2.5v-1.3l-.3.5c-.5.6-1.8 4.3-1.6 4.5.3.2.6-.1 1.2-1.2zm3.7-16c.2-.3.2-.4-.1-.4-.3 0-.5.2-.5.4l.1.4.5-.4zm-1-2.1c0-.4-.8-.9-1-.6v.6c.1.5 1 .5 1 0zm-2-1c.3-.6-.2-5.8-.6-5.7-.1 0-.3.4-.3.8l.1 3c0 2.1.3 2.7.8 1.8zM259 99c0-.4-.4-1-.5-1l-.4.5c0 .4 0 .6.4.6l.5-.1zm-3-2c0-.3.4-.6.6-.7.6-.1.7-1.4.2-2l-.4-.6-.4.7c-.5.7-.8 3-.4 3 .1 0 .3-.1.4-.4zM225.3 94c.1-.8 0-1.2-.1-1.2-.4 0-.6.7-.6 1.8 0 1.3.4.8.7-.6zm14.1 1c.2-.3.3-1.2.3-2 0-1 .2-2.6.4-3.7.4-2.5.5-4.1.1-4.1-.6 0-1 1.4-1.9 5.3-.6 3.3-.7 4.3-.5 4.6.5.5 1.3.5 1.6-.1zM223 93.4c.4-1.7.3-2.2-.3-2.2-.5 0-1 3.4-.5 3.8.3.3.4.1.8-1.6zm13.9 1.4c.1-.2.5-1.4.7-2.7.6-3.8.7-4 .4-4-.7 0-2.2.9-2.2 1.3 0 1.4 0 5.4.2 5.6.2.3.5.3.9-.2zm-8-2c0-.3 0-.5-.2-.5s-.3.2-.3.5.1.6.3.6l.2-.6zm27.4-1c-.2-.3-.3.1-.2.9l.2.8.1-.8v-.9zm-104 0c0-.3 0-.2 0 0v.4c.2 0 .2-.3 0-.5zM256 87.4c0-2.1 0-4-.2-4s-.4.8-.3 1.7v3.1c0 2.5.2 3.2.5 3.2v-4zm-84.6-4c0-.3-.1-.4-.2-.3-.2 0-.2.3-.2.4.3.4.4.3.4-.2zm84.6-3.8c0-1.4-.2-2-.4-2.2-.2 0-.3.4-.3 1.7 0 1.7.2 2.5.5 2.5.1 0 .2-.9.2-2zm-90.7.7c0-.2 0-.3-.4-.2-.2 0-.5.2-.6.4 0 .2 0 .3.4.3.2 0 .5-.3.6-.5zm7.2-.2c.2-.2-.2-.3-1.1-.1-.6 0-1 .2-1 .3 0 .3 1.8 0 2-.2zm-5-1.1c0-1.3-.5-1.6-.9-.7-.2.5-.2.8 0 1.3.4 1 .9.6.9-.6zm1 .2v-.8c0-.3-.1-.5-.3-.5l-.2.8c0 .4.2.8.3.7l.2-.2zm87.6-6.8c-.1-4.8-.6-11.5-1-11.6-.4-.1-.6.8-.6 2.8v1.7l-.4-.4c-.2-.3-.5-.5-.6-.4-.1 0-.8 0-1.4-.2l-1.2-.4 1.5.1c1.6.2 2 0 1-.5l-.6-.3-.2-9.5c0-5.2-.2-9.8-.3-10.1-.5-1.4-2.8-1.9-10-2.1l-4.7-.2-.7.5c-.8.5-1.3 1.6-1.9 4l-.7 3.1c-.7 2.4-.8.7-.3-3.3.3-2.7.4-3.9.2-4.5-.2-.4-.2-1.2-.1-1.7 0-.8 0-1-.2-.9-.6.2-.8 1.4-1 7.5a349.2 349.2 0 0 1-.4 12.6c.3.4.5-1 .7-4.1 0-1.3.2-2.8.3-3.3.3-1.5.7 3 .6 7 0 4 0 4.4 1.2 4.4.4 0 1.2 0 1.7.2 1.2.4 1.5 0 1.8-1.9.3-2.8.6-3.2.5-.6v2.4h.8c.6 0 .8-.1 1-.7.3-1 1-6 1.2-9.1l.7-4.6.4-1.7-.2 1.5c0 1-.3 3.8-.7 6.5l-.6 6.5v1.6l2.1.2c3.6.3 6.7.8 5.9 1-.4 0-1 .2-1.4.5l-.6.5 1.5.3 2.2.3c.5 0 1 .2 1.4.7l.7.7.5-.5.5-.4.3 1.8c.2 1 .3 3 .2 4.7 0 1.6 0 3.3.2 3.7l.2.8.3-.8.2-3.8zm-19.6-12c0-.8.8-5 1-5.2.3-.4.3.4 0 2.9-.2 1.7-.5 2.7-.7 2.8-.2 0-.3-.1-.3-.5zm7.6-1 1-5.2c.2.1-.3 4.3-.6 5.4-.2.8-.5.7-.4-.1zm4.2-.2c.3-1.4.4-1.4.4-.1 0 .6-.1 1-.3 1-.2 0-.2-.3-.1-1zm.1-1.6.3-.7.2-.6v.8c0 .4 0 .7-.2.7s-.3 0-.3-.2zm.7-3.4c0-.7.3-1.4.4-1.6.2-.1.2.2 0 1-.2 1.7-.6 2.3-.4.6zm-12.7-.7c.8-6 .8-5.9.9-4.6 0 1.6-.6 5.7-.9 5.7v-1.1zm3.2.6c-.2-.3.3-4.5.5-4.8.2-.1-.2 4.9-.3 5l-.2-.2zm5.8-2.5.4-2.5.3-1.3c0-.6 0-.6.1-.2.2.5-.3 3.6-.7 5-.1.6-.2.2 0-1zm-7 .5c0-.3 0-.4.1-.2v.5l-.1-.3zm11.4-1.3c0-.3 0-.4.1-.2v.5c0 .1-.2 0-.1-.3zm.5-3.2c0-.3 0-.4.1-.2v.5l-.1-.3zm-13 0c-.1-.1 0-1 .2-1.8.1-1 .3-1.3.3-1 0 1.1-.4 3.1-.5 2.8zm5.8-2.2c0-.3.1-.6.3-.6.1 0 .3.2.3.4l-.3.6c-.2 0-.3-.1-.3-.4zm-48.8 26.2c4-1.6 5-2.1 5.6-2.8l.8-.4c.6 0 2.5-1.6 2.5-2.1 0-.3-.5-.9-1-1.3l-1.2-1.3c-.3-.8-1-1-1.4-.5-.2.2-1.2.8-2.3 1.3-1 .6-2 1.1-2.1 1.3-.1.3-.4.4-.7.3-.3 0-1.3.3-2.3 1l-2.4 1.1-.6.2.1 1.1.4 1.6.2 1c0 .8.3 1.1.7 1l3.7-1.5zm5.3-5.6.1-.4c.5-.3.7 0 .4.4-.2.2-.4.2-.5 0zm35.9 6.4a7 7 0 0 0-.6-1.3l-.6-1.1h-1c-1.4 0-2.3-1-2.3-2.2a20 20 0 0 0-3-6.9c-.3-.2-.7-.4-.8-.3-.4.3-.2 1.6.3 2 .3.3.4.7.4 1-.1.4 0 .6.2.7.3.1.5.3.5.5 0 .3-.4.3-1.4.2-1 0-1.5 0-1.7.2-.3.6.3.8 1.4.5 1-.3 1.2-.2 1.8.1 1 .7.8 1-1 .8-1.4 0-1.8 0-2.7.5-1.3.8-1.4 1.3-.7 2.2l.6 1.2c0 1 1.8 1.4 2 .5 0-.3.6-.8 1.2-1l1-.7c0-.4-1.2-1.2-1.8-1.2-.5 0-.6 0-.3-.4.5-.5.8-.5 2.4.6 1 .6 1.6 1.1 1.7 1.5 0 .4.3.7.5.7s.8.5 1.2 1c.7 1 1 1.1 1.8 1.1.5 0 .8 0 .9-.2zM232 72c0-.3-2.5-1.7-3-1.7-.6 0-1.5.8-1.5 1.2 0 .3.6.4 1.8.6l2 .2c.4.1.7 0 .7-.3zm-7.7-1-.6-1c-1-1-1.8-.9-2 .1 0 .6 0 .8.7 1l1 .2c.6.2 1 0 1-.2zM175.8 69l-.1-1.2c0-1.1-.5-1-.7.1-.2 1 0 1.5.6 1.5.2 0 .3-.2.2-.4zm57.6-1.6c-.1-1.7-.5-2.4-1.3-2.2-.5.3-.4 1.3.4 3 .6 1.3 1 1 .9-.8zm-59-2.4c0-.6-1.2-.9-1.6-.3-.5.6-.1 1 .8 1 .7-.1.9-.3.9-.7zm31.7-.4c.4-.7.3-2.3-.2-2.6-.4-.4-1.8-.1-3.2.8-1 .6-.9 1 .6 2.1.8.6 1 .7 1.7.5.5-.2 1-.5 1-.8zm33.3.1 5.2.2 3.2.2-1.1-.3c-1.2-.5-7-1-10.5-1H234v.7l-.2.7 1.8-.2c1-.2 2.7-.3 3.8-.3zm-9.7-8c.1-3.7.3-5.2 1.5-14.8.7-5.5.8-6.5.3-6.5-.3 0-.5.4-.6 1.4a169.2 169.2 0 0 1-1.5 12.5 265.6 265.6 0 0 1-1 10c-.1.3 1 1.7 1.1 1.5.1 0 .2-1.9.2-4zm26.6 2.3c.4-.5.1-1.7-.4-2-.3-.2-.4-1.6-.4-8.4 0-7.5-.2-11.6-.6-12 0 0-.3 0-.4.2a99 99 0 0 1 .3 13l.1 9c.2.6 1 .7 1.4.2zM234 35.4c.2-.3-.3-.6-.7-.4-.3.2 0 .7.3.7l.4-.3zM11 170.8l-1.7-1.7c.4.5.2 1-.5 1-.4 0-.8-.3-1.2-.8a7.8 7.8 0 0 0-2.1-1.6c-2-1-2.3-1.8-2.5-5.2-.2-2.8.3-5.7 1.4-7.8.5-1 .6-1.4.3-1.7-.2-.2-.2-.5-.1-.6.1 0 .3 0 .3.2.2.4.6.1.6-.4s2.2-2.8 2.8-2.8c.5 0 .5.5 0 .8-1 .6-3.8 5.7-3.8 7 0 .7.3.5.7-.3 1.2-2.9 1.6-3.7 2.1-4.1.8-.7 1.2-.4.8.5-.1.4-.4.6-.5.6-.1 0-.9 1.3-1.6 2.8a13.5 13.5 0 0 1-1.8 3.2c0 .6.4.5.7-.3l.6-.6c.4 0 .4.3 0 1.1-.3.7 0 3.7.3 3.5 0 0 .3-.8.3-1.6.1-1 .4-1.7.7-2 .8-.8 1-.4.6.8-.7 2.2 0 6.9 1 7.3.3.1.3 0 .2-.7-.4-2.3-.5-3-.3-4 .2-1.5.7-2.2 1.3-2l.4.2-.3.9c-.3.7-.3 1.2 0 2.6.4 2.4.6 2.9 1.6 4.2 1 1.3 1.5 1.7 1.8 1.3 0-.2-.2-.7-.7-1.1-1-1-1.6-2.2-1.6-3.1 0-1 .8-.5 1.4 1 1 2 1.2 1.9 1.7-.4l.1-.9-1-1.2c-1-1.1-1.3-1.7-1-2 .1-.1 1 .6 2 1.7 1.7 1.7 2 2.3 1.2 2.3-.3 0-.8 1.2-1 3-.4 1.8-.8 2.8-1.1 2.8-.2 0-1.2-.8-2.2-1.9zm229.3-1.5c-1.1-.4-5.8-1-7.1-1-.7 0-1.3-.2-1.5-.5l-.4-.4 1.9.1 4 .6 4 .4c1.5 0 1.7 0 1.6.5 0 .5-1.3.7-2.5.3zM92.6 166l-.7-.2 1-.2c1.2-.2 3 0 3 .3s-2.4.4-3.3.1zm117.7-.3a9 9 0 0 0-2.3-.3c-1.4 0-1.7 0-1.6-.4 0-.4.4-.4 2.2-.4 2.8.1 3.4.3 3.3.8-.2.6-.7.7-1.6.3zm28-.2c-1.8-.3-1.9-.5-.3-.5 1.5 0 2.5.2 2.5.5s-.4.3-2.2 0zm-17.6-.2c-.5 0-.9-.2-.9-.3 0-.3 3 0 3.3.3.3.2-.7.2-2.4 0zm9.7-.8a121 121 0 0 1-11.2-1.5 132.8 132.8 0 0 1 15.7 1.7l.7.2h-1l-4.2-.4zm8.9-.9a147 147 0 0 0-5.9-1.2c.3 0 1.7 0 3.2.3l4.8.6c1.2.1 2.1.3 2.1.5 0 .4-1.7.4-4.2-.2zm-218.8-.2c-.1-.2-.1-.5 0-.8.1-.5 0-.6-.4-.7-.6-.2-.7-1-.1-1.4l1.2-1.8a6 6 0 0 1 1.4-1.7c.3-.1 1-.9 1.4-1.6.5-.7 1-1.3 1.2-1.3.6 0 .5.4 0 .8-.2.2-.3.6-.2 1l-.1.7c-.5.3-1.7 2.7-2.4 4.8-.6 1.7-.8 2.1-1.3 2.2-.3 0-.6 0-.7-.2zm101.2 0a223.1 223.1 0 0 1-10.5-1.4 124.2 124.2 0 0 1-10.6-1.6c-.3-.4.7-.5 2.5-.2 5.4.9 8.8 1.3 16.9 2 5.3.5 5.4.5 5.4 1s-.7.5-3.7.2zm7.3-1.5-2.4-.5-3.2-.4a166 166 0 0 0-15-1.6l-4.8-.5c-.4-.4.3-1 1-1l.8.1c0 .2 1 .4 2.2.5a170 170 0 0 1 11 1.2 523 523 0 0 1 12.9 1.3l.4.2-.4.4c-.6.6-1.7.7-2.5.3zM25 162l.7-1.5c.3-.8.7-2.2.8-3.3.2-2 .3-2.2.9-1.5.7.8-1 6.2-2 6.4h-.4zm213.8-.8-3.8-.5c-1.1-.1-2-.3-2-.5 0-.1.6-.2 1.9 0 2.7.2 6.3 1 6.1 1.2-.2.3 0 .3-2.2-.2zM19 159.6c0-.8 2-4.4 2.6-4.8.8-.4 1 0 .4.7-.3.3-1 1.3-1.4 2.2-.4 1-1 1.8-1.2 2l-.4.4zm229.1-1.2-4.3-.5a59 59 0 0 1-9.4-1.7c-.2-.2 1.6 0 3.8.4 2.3.4 8.4 1.1 10 1 1.4 0 2.1.4 1.6.8h-1.7zm-232-.3c0-.3 1.4-2.2 3.3-4.5 1.5-1.9 4.4-3.6 4-2.4l-.5.4c-.2 0-.6.2-.8.5l-.5.5.8-.1c1-.2 1.2.3.2.6-.8.3-2.3 2.1-3.3 3.9-.5.8-1 1.4-1.2 1.4-.6 0-.5-.2.5-1.9.5-.8.8-1.5.7-1.5-.2 0-2 2.5-2.3 3-.2.5-.9.6-.9 0zm115-.3a480.1 480.1 0 0 0-20.7-2.8c-.5-.8 2-.6 14.2 1.2l5.3.7c3 .3 3.7.5 3.5.8-.1.2-2 .3-2.2 0zM2.6 155c-.6-.6.3-3 1.9-5 1.6-2 1.6-2.1.6-1.6-.5.3-1.3 1-1.9 1.7-.8 1-1.1 1.1-1.3.9-.6-.6 2.7-3.4 6-5.2l3.6-1.7.7-.1v.7c0 .8-.6 1.5-1.4 1.5-.4 0-.7 0-.8.2l-1.5 1c-1 .4-2 1.2-2.9 2.4-1.8 2.2-2.2 2.9-2.2 4.2 0 1-.4 1.4-.8 1zm136.8-.1c-1.7-.3-8.1-1.3-12.3-1.8l-3.8-.7c.1-.4 2.6-.3 9 .6 9 1.2 9 1.2 9 1.6 0 .5-.5.6-2 .3zm9.5-1.2c-.2-.5 0-.6 1.1-.6 1 0 2 .4 1.8.8-.3.4-2.7.3-2.9-.2zm-119-.2-.8-2.4c-1-3-1.1-3.6-.6-3.8l.7.1c.4.4 1.6 5 1.6 5.8 0 .7-.8 1-1 .3zm2.6-.2-.6-2.9c-.1-.6 0-.8.2-.7.5.1 1 1.2 1.2 2.7.2 1 .1 1.2-.3 1.2-.2 0-.4-.2-.5-.3zm207.4-.2-.8-.2h.7c.3 0 .9 0 1.2.2.6.2 0 .2-1 0zm-98.3-.5-4.8-.8c-4.3-.6-7.5-1.2-7.8-1.5-.4-.4.3-.5 1.6-.2l3.9.8 5.3.9c2 .2 2.9.4 2.9.6 0 .4-.8.5-1.1.2zM18 151c-.3-.4 3.6-4.3 5-5.1 1.3-.8 2-.7 1.3.1-.2.3-.6.5-.7.5-.2 0-1 .6-1.8 1.4l-1.4 1.3 1-.4 2-1 .8-.5.2.4c.2.5.3.5-1.7 1.5-1.1.5-2 .8-2.3.7-.5-.1-.8 0-1.1.4-.7.8-1.1 1-1.3.7zm-5.2-.2c0-.2.8-1 1.7-2 1.2-1.1 1.5-1.5 1-1.3a8 8 0 0 0-3 1.5c-.3.5-1 .6-1 .2 0-.4 1-1.3 2.1-1.9l1-.6h-1c-1.4 0-1.7-.6-.3-.8l1.7-.4.6-.1-.8-.1c-.4 0-.9-.2-1-.4-.3-.3 1-.7 2-.7 1.1 0 1.3.5.4.7l-.6.1.7.2h1.7c1-.3 2-.1 2 .4 0 .3.2.4.8.2 1.2-.2 1 .3-.8 1.3-.8.5-2.2 1.6-3 2.4A7 7 0 0 1 15 151c-.7 0-.6-.3.6-1.3.6-.4 1.2-1 1.3-1.4.4-.7-2.2 1.5-2.7 2.3-.4.5-1.3.6-1.3.2zm176.2-.3s.4-.3 1-.3c2-.4 3.8-.8 5.2-1.3l1.7-.5c.3.4-.4 1-1.3 1.3l-2.3.7c-1.2.4-4.3.5-4.3.1zm-18.6-2.8a29.2 29.2 0 0 1-4.9-1.7c-.5 0-2.6-1.4-2.9-2-.2-.4-.6-.7-1.7-.9-2.8-.6-6.5-2.8-5.8-3.5.2-.2.6 0 1.2.4l2 1.4c1.1.5 2 .8 6.2 1.8 1.3.2 1.3.8 0 .5-1.2-.2-1.1.3.4 1.3 1.2.8 7.2 2.9 8.2 2.9.3 0 .6-.2.7-.3.3-.4 1.4-.3 1.7.1.2.2.3.5.2.7-.3.5-2 .2-5.3-.7zm78.9.6-.2-2c0-1.2-.1-1.9-.4-2.2l-.4-.4.4-.5c.6-.6.5-.6-.5-1l-.8-.4h.7c.4 0 .8-.2.8-.4.6-1.5-.3-3-1.7-2.7-.5.1-1 0-1.2-.1-.2-.3-.5-.3-1 0-.5.2-.7.1-1-.2l-.5-.5-.4.6c-.4.6-.5 2 0 2.4.2.3.1.3-.4.3-.8 0-.8 0-.4-1.2.2-.7.2-1 0-1.5-.3-.5-.3-.8-.1-1l.5-2.2.2-1.9.1 2 .2 2h1l1.2.3c.2 0 .5 0 .7-.2.3-.2.4-.2.8.1.7.8 1.5.9 2 .2l.5-.6v2.2c0 3 .2 6.7.4 7 0 .3.4.5.8.7l.8.3-.9.2c-.4.2-.9.5-1 .7v.5l-.2-.5zm-50.9-.6c.6-.3 1.3-.6 1.6-.6.4 0 .2.2-.6.6-1.6.9-2.3.9-1 0zM.1 148c-.5-.8.8-2 3.4-3.5 2.5-1.3 3.9-2.1 3.9-2.4 0-.2-.2-.2-.4-.2-1 .4-3 .8-3.2.7-.5-.5.5-1.2 2.7-1.7 2.6-.7 4.5-.7 6.1.1 1 .5 1.1 1 0 1l-2-.3-1.4-.1-.9.7c-.4.5-1 1-1.5 1.3l-.6.4.8-.2 1.2-.3c1.7-.9 4.9-.9 4.9 0 0 .3-.4.4-1.4.4-1.8 0-2.6.3-4.7 1-2.4 1-4 1.7-5.4 2.6-1.2.8-1.3.8-1.5.5zm260.2 0a309.9 309.9 0 0 1 .1-24.6c.4-3.3.6-4 .8-3.7l-.2 4.3c-.3 5.6-.2 10 .2 15.1.3 4.2.3 7.4 0 8.5 0 .6-.7.9-1 .4zm-73.5-.5v-.6h2c2.2 0 2.8.4 1 .6l-2.2.4c-.7.1-.8 0-.8-.4zm14.2-.8h.5c.1.1 0 .2-.3.2s-.4 0-.2-.2zm.8-.2c0-.2 1-.6 2-.8h.6c0 .2-.5.4-.9.5l-1.2.3h-.5zM30 145.8c-.6-.4-.1-1.2.6-1 .4 0 .6.2.6.5 0 .6-.6.8-1.2.5zm213.2-.8c-.3-.2-.2-.3.5-.3.4 0 .9.1 1 .3.2.3-1 .3-1.5 0zm-201.5-.3c-.2-.3.5-.6 1.1-.5.3 0 .5.2.6.4.1.4-1.4.5-1.7 0zm-9.3-.3c-.5-.3-.2-1.1.4-1 .3 0 .5.3.5.6 0 .6-.4.8-1 .4zm33.6-.2c-.9-.4-1.1-1.1-.4-1.1.6 0 2 .8 1.9 1.1-.2.5-.5.5-1.5 0zm-11.2-.4c-.8-.5-1.4-.6-4.4-.7-2.7 0-3.6 0-4 .3-1.5 1-2.9.7-1.7-.2l.5-.4-2 .2-2.5.2c-1 0-.7-.5.6-1a45.8 45.8 0 0 1 11-.4c1.3.3 1 0-.5-.8-.6-.3-1.7-1.1-2.4-1.9-.7-.7-1.3-1.2-1.5-1.1-.6.4-3.3-1.6-4.5-3.3-1-1.6-1.3-2.6-.8-3.1.3-.3.5-.3.9-.1.5.2.9.8 3 4.1.4.6.8 1.1 1 1.1 0 0 .2-.5.2-1.2.1-1.5.7-1.7 1.2-.3a11 11 0 0 0 4.6 5.5l1.2.6-.5.4-.5.3 1.3.6c1.1.5 1.9 1.3 1.5 1.7-.3.2-.7.1-1.7-.5zm200.2.3a90.7 90.7 0 0 0 .8-8.6c.6-9.4.9-11 .8-4.6a106.8 106.8 0 0 1-.6 11c.2 1.3-.1 2.5-.6 2.5-.2 0-.3-.1-.4-.3zm-60-.7c-.7-.1-1.5-.5-2-.9-1-.8-2.8-1-4-.3-.4.2-1.3.4-2 .4-1 0-1.2-.1-1.2-.5s.3-.6 1.5-.7c.9-.1 1.8-.3 2-.5.4-.2 1.4-.3 2.3-.3 1.3 0 1.6 0 1.8.4.2.8 1.8 1.6 3.1 1.6 1.2 0 1.8.4 1.2.8-.4.2-.8.2-2.7 0zm50.8 0h1c.3.1 0 .2-.5.2-.6 0-.8-.1-.5-.2zM17 143c-.7-.2-1.2-.4-1.2-.7 0-.2.2-.4.4-.3l2 .4c1.5.2 1.8.5 1 .8-.5.2-.7.2-2.2-.2zm181.8-.4c.1-.6 1.6-.8 1.6-.2 0 .2-.3.4-.6.5-1 .3-1 .2-1-.3zm5.5.2c-.5-.3-.7-.9-.2-1.2.1 0 .7 0 1.2.3l1 .5.6-.4c1-.6 2.6-.7 2.7-.2.1.7-4.4 1.6-5.3 1zm-134.8-.1c-.4-.2-.5-1-.1-1 .5 0 1 .4 1 .8 0 .3-.3.4-1 .2zM182 142c-.6-.6-.3-1.3.6-1.2 1 0 1.6.7 1.2 1.3-.5.5-1.2.5-1.8 0zm18.8 0c-.2-.4.2-1.4.5-1.4.5 0 1 .7.9 1.2-.2.4-1.1.6-1.4.2zm-180.5-.4c-.4-.1-.9-.4-1-.6-.2-.7.7-.8 1.7-.2 1.5.8 1 1.4-.7.8zm36-1c-3.1-1.6-5.8-4.3-6.6-6.5-.8-1.9-.6-2.7.6-2.7h.7l-.2.8-.1.9 1.5 1.8a24.6 24.6 0 0 0 7.7 6.8c0 .6-1.7.1-3.7-1zm189.5 1c-.1 0 0-.4.2-.6l.3-.4.3.4.4.7c0 .3-1 .3-1.2 0zm-1.9-.2.1-.5c.2 0 .3-.5.3-1 0-1.3.2-1 .4.5.1 1 0 1.3-.2 1.3a.7.7 0 0 1-.6-.3zm-204.7-.8-.9-.2c-1.9 0 1-1.3 3-1.4.7 0 .7 0 .3-.3-.6-.3-2.3 0-3.9.6-1 .5-1.6.5-1.6 0l.7-.5c.3-.2.7-.6.7-.8.2-.8 2.8-1.1 5-.7.9.2 2 .5 2.2.7l1.6.6c1.5.5 1.4 1.1 0 1-.7 0-1.2 0-1.3.2-.1.2-.7.3-1.3.3-.6 0-1.6.1-2.2.3l-1.6.4c-.3 0-.6 0-.7-.2zm139.3-.4c-.5-.3-1-.5-1.4-.4-.6.1-.7-.5 0-1.1.7-.7 1.4-.6 2.3.3.7.7.8 1.6.3 1.8-.2 0-.7-.2-1.2-.6zm32 .4c0-.1.2-.4.5-.6a4 4 0 0 0 1-1.2c.5-1 1.5-1.6 2.2-1.1.6.3 1.6.4 2 0 .4-.2.4-.3.1-.6-.3-.4-.3-.5 0-.8.4-.4 1.2 0 1.3.8v.6l1-1c1-1 1.9-1.2 1.4-.4a6 6 0 0 1-1.9 1.8c-.3.2-1.6.5-2.8.6l-2.3.1-1 1c-.9 1-1.5 1.4-1.5.8zm-35.7-.7c0-.5.6-.7 1.2-.5l.5.2-.5.4c-.7.5-1.2.5-1.2 0zm41.7 0c1.2-.5 1.6-.4 1 0-.3.3-.8.4-1.2.4h-.7l1-.4zM6.2 140c-.7-1 4.4-2.4 6-1.6.9.5.2.8-1.6.8-1.2 0-2.1.2-3 .6-1.3.6-1.2.6-1.4.2zm165.8 0c-.4-.6.3-1.1 1-1 .6.3.7.9.1 1.1-.6.3-.8.2-1.1-.2zm11.7 0a.5.5 0 0 1 .1-.6h.5l-.1.7h-.5zm-166.4-.2c-.3-.2-1-.3-1.5-.3-1.4 0-2-.3-2-.8s3.2-1.6 4.8-1.6c1.2 0 1.2-.4 0-1-.7-.2-1.7-.3-4.3-.2-4.3.2-6.8.7-6.8 1.3.1.8-2.7 2-3.1 1.3-.3-.4.3-1 1.3-1.1.8-.1 1-.3 1-.6-.2-.7 1-1.2 3.4-1.5 1.3-.2 2.6-.4 2.9-.6.6-.3 3-.3 4.4.1 1.9.5 3.4 1.5 3.7 2.4.2.4.4.7.6.7.4 0 2 1.5 2 1.9 0 .4-.5.3-2.6-.6-2.1-.8-4-1.2-4.3-.8 0 .1.3.4 1 .5.5.2 1 .5.9.7-.1.4-.7.5-1.4.2zm140.8-1.7c-1.7-1.7-2.2-2.6-1.4-2.6.3 0 4.1 4 4.1 4.4 0 .5-1.2-.2-2.7-1.8zm27.6 1.6c-.4-.5.2-2.4.8-2.3.6.2.7 2 0 2.3-.3.2-.5.2-.8 0zm-16.6-.5c-.7-.7-.2-1.5.7-1 .7.3.7 1 .1 1.1-.5.2-.4.2-.8-.1zm50.2-.2c.4-.4.7-.5.8-.3 0 .4 0 .4-.8.6l-.7.2zm-36.6-.5c-.2-.4.1-1.2.5-1 .4 0 .3 1 0 1.1l-.5-.1zm15.3-.5v-.7c.5-.4 1.3 0 1.2.5-.2.6-1 .8-1.2.2zm4.4-.2c0-.3.2-.4.4-.4.6.1.6.6 0 .7-.3 0-.4 0-.4-.3zm-171.2-1c-.2-.6-.7-1.3-1-1.5a10 10 0 0 1-2-3c0-.6 1.1-.1 2.1 1 1.8 2.1 2.5 3.8 1.8 4.4-.3.2-.5 0-.9-.9zm143.2.5c-.6-.5-.4-1 .4-1l1-.2c.2-.4 1.2-.4 1.2 0s-1.4 1.5-2 1.5l-.6-.3zm33.1 0c-.2-.3.9-.8 1.4-.6.3.1.4.2 0 .5-.3.5-1.1.6-1.4.2zm-35.1-.1c-.3-.3-.2-.6.2-.6.2 0 .4.2.4.4 0 .4-.3.5-.6.2zM28 136.8a25 25 0 0 0-3.3-1.4c-4.2-1.5-6-2.8-4.5-3.3 1.2-.4 8.6 3.3 8.7 4.3.1.6-.4.8-.9.4zm139 0c-.3-.4.1-1.1.5-1 .3.1.3 1 0 1.1-.2.1-.4 0-.5-.1zM37.3 136a6 6 0 0 0-1.6-.4c-.9 0-2.4-1-2.6-1.5l-.3-1c-.4-.6-.3-1 0-1s.7-.5 1.1-1.3l.7-1.3-.4-1.2c-.5-1.2-3-4-3.6-4-.1 0-.3.2-.4.5 0 .3-.3.4-.6.3-.5-.1-10.6-.4-10.6-.2l1.5.5c1.1.3 1.8.4 2.5.2 1-.3 4.6 0 6.8.5 1.7.3 2.7 1.3 2.5 2.1 0 .3-.4.6-.6.7-.3 0-.5.3-.5.5 0 .6-.4.5-1.7-.4-.6-.5-1.3-.8-1.6-.8a1394 1394 0 0 1-8.4.2l3 1c3.4.7 4.2 1 4.4 1.6.2.7-.2.7-1.6.2a13 13 0 0 0-3-.7l-2.4-.4-1-.1.2.5.2.5h-4c-4.2 0-6.5-.4-7.7-1.2-1-.6-1.5-1.2-1.1-1.6.2-.3.5-.2 1 .2.5.3 1.6.8 2.4 1 2 .5 5.9.8 6.7.4.6-.2.6-.3.2-.3-1 0-2.8-1.3-3.1-2.3-.2-.5-.6-1-1-1-.7-.2-1.7-1.3-1.5-1.8.2-.5 1.1-.6 1.4 0l.7.5c.6.3 2.8.8 2.8.6a11 11 0 0 0-2.4-1.6c-.6-.2-.7-1.3-.1-1.3.2 0 1 .4 1.6 1 1.3 1 1.8 1 2 .5.2-.3.6-.4 1.3-.4 1.6 0 1.3-.4-.5-.7-1.8-.4-4-1.5-4-2.1 0-.5 1-.5 1.2-.1.2.3 2.1 1.2 3.4 1.6l.8.2-.5-.4-1.4-.6c-1.7-.5-3.1-2.4-2-2.8.6-.2.5-.2 1.1.8.5.9 1.2 1.2 1 .6 0-1 0-1 1.4-1l3.8.9 3.1.7c.3 0 1.4.4 2.5 1 1.4.8 2 1 2.2.7.7-.8 2-4 2-5.3a24.1 24.1 0 0 1 1-5.2c.2-.5 1.5-2.7 3.7-6 1.3-1.9 1.8-3.9 1.7-6.5 0-1.3 0-3.3.2-4.3.2-1.4.1-2 0-2.3-.5-.6-.2-6.2.5-8.4.6-2.1.5-4.4-.3-6.4-.3-.8-.5-2-.5-2.7 0-1-.1-1.3-.8-1.6-.8-.6-1-1-1-1.4 0-.6.7-.7 1.3-.1a9 9 0 0 0 2 1.1 58.5 58.5 0 0 1 1.4.5c-.2-.3-.7-.6-1.2-.8-.7-.2-1-.4-1-.9 0-.4-.3-.8-1.5-1.5-1.7-1-3.3-2.9-3.1-3.5l-.5-1.6c-.8-1.5-.9-2.2-.1-2.2.3 0 .6.2.8.7.4 1 1.3 2 4.2 4 1.7 1.3 2.4 2 2.2 2.2-.2.2-.8 0-1.9-.6l-1.5-.8.8.7c.7.6 3.6 2.2 4 2.2l-.2-.4c-.2-.2-.2-.5-.1-.6.1-.1.4 0 2.1.6.5.2.4.1-.2-.7-.6-.9-.7-1-.3-1.2.3 0 .8.2 1.4.8 1.1 1 1.8 1.4 3.3 1.9.6.2 1.2.5 1.3.8l.6.7c.2.2.2.3 0 .5s-1 0-2.9-.6c-2.9-.9-3.7-.7-2.2.4 1.2 1 4 2.3 4.7 2.3.3 0 .8.3 1 .6.4.3 1 .8 1.7 1.1 1.6.8 1.7 1.4.2 1.1-.7 0-1.3-.3-1.4-.4l-.8-.2c-.4 0-.4 0 .2.3.5.2 1 .6 1.2.8.5.6-.1.8-1.2.3-1.8-.9-4.7-2-5.2-2-.6 0-.8-.4-.3-.8.3-.2.7-.2 1.7.1l1.5.3c.3-.2-2.1-1.2-3-1.2-.6 0-2-.3-3-.7a42 42 0 0 0-2.5-.8l-.6-.1.1.9c0 .5.3 1 .5 1.1l.6 1.8c.2 1 .6 1.7 1.1 2.2.9.9 1 1.4.4 1.6-.6.2-.5.5.5 1.2 1.2.8 1.3 1.4.2 1.2-1.2-.2-.8.3.9 1.5 1.4 1 1.9 1.8 1 1.8-.6 0-3.7-2.5-3.7-3.1-.1-.5 0-.6.4-.6h.4L42 84c-.7-.6-.9-.5-1.2.7l-.4 1 .5.4.5.4-.5 1.1c-.3.6-.7 1.7-.8 2.5l-.1 1.3.5-.7c.8-.9 1-.2.5 1.3-.5 1.3-.6 2.6-.2 3.2.1.2.3 0 .4-.5 0-.5.4-1.2.7-1.6.3-.4.7-1.4 1-2.2.5-1.3.5-1.5.2-2-.5-.6-.5-1.4 0-1.4.2 0 .5.2.7.5l1.3 1.2c1 .7 1.3 1.5.7 1.5a2 2 0 0 1-.9-.4c-.9-.7-1.1-.4-1.5 1.5-.7 3-.4 5.3.6 5.7.4 0 .5.4.5 1 0 .5.1 1 .3 1 .1.2.2 0 .2-.3 0-.8.7-.7 1 .2l1.2 1.3c.4.4.8.8.8 1l.5 1c.5.4.5 1 0 1-.2 0-1-.6-1.7-1.4-.8-.7-1.5-1.2-1.5-1 0 .3 1.2 2.3 1.6 2.5.4.3.3.7-.2.7-.3 0-.7-.2-.9-.4-.1-.2-.6-.4-1-.4-.9 0-1.7-1-2.3-2.6l-.3-1 .1 2.5c.2 2 .1 2.4-.3 2.6-.2 0-.6.7-.8 1.5-.4 1.5-1.6 3.6-2 3.6l-1 1a448 448 0 0 1-2.4 4c0 .2.2.1.4-.3.4-.7 1-1.1 1.5-.9 0 .1.3 0 .5-.4.4-.8.9-.6.7.3-.2 1.1-.4 1.2-.8.8-.5-.4-1.4.7-1.7 2 0 .6-.2 1.4-.4 1.8-.5 1.7-.2 1.9.6.4 1-1.6 1-1.7 1.3-1.5 0 .1 0 .8-.4 1.4-.4.7-.7 2-.9 2.9l-.2 1.6h-.6c-.6 0-1 .5-1 1.2 0 .5 1 .5 1.2 0 .4-.6.7-.1.8 1 0 1.4.7 3.4 1.2 4l.5.4-.2-.6c-.6-2.2-.5-4.9.1-3.1.2.4.3 1 .3 1.3 0 .3.2 1 .5 1.5.7 1.2.7 1.3.1 1.3-.3 0-.2.2.4 1l1 1.3c.5.5.5 1 0 1.4-.4.4-1 .2-1-.4 0-.4-2-3.1-2.3-3 0 .2.1.7.4 1.2.4.7.4 1 .2 1-.6.3-.4 1.4.4 2.1 1.4 1.4 1 1.8-1 1zm-19-8.5.5-.4c-.4-.1-4.3-.2-4.3 0s1.8.8 2.4.8c.4 0 1-.2 1.3-.4zm3.6-.6h-1c-.2.1 0 .2.5.2s.7 0 .5-.2zm7-3.2-1.4-.4-2.8-.4a4.5 4.5 0 0 0-2.6 0l-1.1.5 1.5.2h4.2c1.3.4 2.4.4 2.3.1zm4.8-2.6.7-1.4c.7-1 .9-1.9.5-2.1l-.5-.3c-.3 0-.8 1.4-1 2.6 0 .6-.2 1.3-.3 1.5 0 .2 0 .4.2.4.1 0 .3-.3.4-.7zm1.4-6.8c.1-.6-.4-.5-.5.1-.1.4 0 .5.1.5.2 0 .4-.3.4-.6zm1.3-2.9c.2-.4.3-1 .3-1.3l-.1-.6-.6 1a4 4 0 0 0-.6 1.2c0 .6.5.4 1-.3zm2.5-2.8c.6-.8 1-3 .6-3-.3 0-2 3.3-2 3.7 0 .4 1-.1 1.4-.7zm2.5-6.1c0-1.6-.4-2.8-.7-2.4-.4.3 0 3.8.4 3.7.1-.1.3-.7.3-1.3zm2.7-.8c-.5-.7-.6-.5-.2.3l.4.4c.1 0 0-.4-.2-.7zM41.9 99v.7-.7zm129.4 36.6c-.2-.4 0-.8.5-.8.2 0 .4.2.4.5 0 .6-.6.8-1 .3zm39.3-.3.2-.2c.2 0 .3 0 .3.2s-.1.3-.3.3a.3.3 0 0 1-.2-.3zm2.8 0c-.2-.2.6-1 .8-.7.2.2-.1 1-.4 1a.5.5 0 0 1-.4-.2zM164 135l.1-.6c.4-.4 1.3-.1 1.3.3 0 .5-1.1.7-1.4.3zm57.2-2.5c0-2.7.3-3.4 1.1-2.9.6.4 2.3-1.2 3-2.7.8-1.7 1.4-4.5 1.2-5.4-.2-.8.3-1.6 1-1.6s2-.7 2.1-1.2c.1-.2 0-.6 0-.8-.3-.3-.2-.6.5-1.3.5-.5 1-.8 1-.7.2.1 0 1-.2 1.8-.4.9-.5 1.6-.3 1.7v.7c-1.1 1.9-1.7 2.7-2 2.7l.8-1.7c.5-1.1.5-1.2-.2-1.2-1.2 0-1.7.8-1.9 3-.1 1.2-.4 2.5-.6 3-.2.4-.3 1-.2 1.5 0 .6 0 1-.7 1.6-.4.4-1 .7-1.2.6-.2 0-.5.1-.8.5a2 2 0 0 1-.9.7c-.5.2-.8 1.2-.8 2.7 0 .8-.4 1.5-.8 1.5v-2.5zm-48.4 2c-.3-.5.2-1.1.7-1 .8 0 .8 1 0 1.2-.3 0-.6 0-.7-.2zm65.5-.2.2-.8.3-.5v.7c0 .4-.1.8-.3.8l-.2-.2zm-20.7-.5c0-.2.2-.4.4-.4l.7-.4c.5-.6.8-.1.3.5-.5.8-1.4 1-1.4.3zm-209-.6c-1.5-1-2.6-2.1-2.6-2.6 0-.6 1-.4 1.3.2.2.4.5.5 1.4.5 1.7 0 2.4.3 2.4 1 0 .3.1.6.3.6.5 0 .5.5 0 .6-1.3.4-1.7.4-2.8-.3zm152-.5c-.7-.7-.9-1.7-.4-2.5.2-.3.3-.2.7.6l.8 1.4c.3.5.3.7 0 .9-.2.2-.5.1-1-.4zm-113.6-.4c-.3-.4-.2-.5.1-.7.5-.1 1.3.6 1 1-.2.5-.8.3-1.1-.3zm199.6.3c-.1-.2-.5-.2-1-.2-.4.1-.8 0-1-.2-.2-.2-.6-.4-1-.3l-1-.4a2 2 0 0 0-1.2-.5c-.4 0-.8 0-.9-.2-.2-.5-1.2-.3-1.4.1 0 .3-.2.3-.5-.4-.2-.6-.5-.8-1-.8l-.9-.2c-.4-.3 0-1.2.4-1 1.2.4 1.7.5 1.7 0 0-.2-.1-.4-.3-.5-.4-.3-.3-1.2.3-1.5.4-.2.5-.1 1 .5.2.5.5.6 1 .5.4 0 .8 0 1 .4.4.4.7.5 1.2.4.4-.2.7 0 1 .3.7 1 1.2 0 1.8-3 .7-3.3.9-3.7 1-2.6l-.5 2.5c-.2.8-.4 2-.3 2.7v1.1l.9.1c1 .1 1.5.5 1.1 1-.4.5-1 .5-1.1 0-.2-.6-1.3-.4-1.4.2 0 .3 0 .8.2 1 .3.5.5.5 1 .3.4-.3.5-.2.7 0 .2.8-.4 1.3-.8.7zm-1.7-1.7c.1-.2.2-.6.1-1s-.4-.5-1-.4c-.3 0-.8-.1-1-.3-.3-.2-.8-.3-1.2-.2-.4 0-.8 0-1-.4-1-1-2.1-.4-1.4.7.3.4.6.6 1 .5.5-.1.8 0 1 .4.3.4.5.5 1.2.4.6 0 1 0 1 .3.2.5.9.5 1.3 0zm-79.1 1.3c-.4-.4-.2-1.2.2-1.2s1.1 1 1 1.3c-.3.4-.9.4-1.2 0zm-24.6-.1-1-.2h1a5 5 0 0 1 1.7.2l.5.2h-.7l-1.5-.2zm108.5 0c0-.3-.2-.8-.4-1-.3-.6-.2-.7.2-1 .7-.5.8-.2.4 1.3l-.2.6zm-122.3-.5c0-.2 4.2-.6 4.5-.4.3.2-.3.3-2.3.5h-2.2zm88.4-.4c0-.2.5-.8 1.1-1.5a30 30 0 0 0 5.1-6.6 69.6 69.6 0 0 1 2.5-4.1l1.3-2.7.5-1.1c.6 0-.7 3.1-2.6 6l-1.6 2.7a10 10 0 0 1-1.3 1.8c-.4.5-.8 1-.8 1.2a66.3 66.3 0 0 0-2 2.6c-1.5 1.8-2.2 2.3-2.2 1.7zm-43.3-.8c-1.8-1.9-3.3-5.8-3.3-8.3 0-1.2.5-1 .7.1.5 2.9 1.4 5.3 2.8 7 .4.5.7 1.1.7 1.3 0 .5-.4.5-1 0zm-62.5 0c0-.1.5-.4.9-.5 1.3-.2 4-.2 4.2 0 .1.2.1.4 0 .4l-2.6.3c-2 .1-2.6.1-2.5-.2zm54.3.1c-.2-.4 0-.8.6-.8.2 0 .3.2.3.4-.1.6-.6.8-.9.4zm93.2 0c-.2-.2.5-5.8.7-6v2.9c-.1 2.7-.4 3.7-.7 3.2zm-212.7-1.2-1.1-1.7c-.5-.9-.4-1.9.2-1.9.2 0 .6.6 1 1.2.2.7.7 1.6 1 2 .7 1 .7 1.3 0 1.3-.3 0-.7-.4-1-1zm181.6.8c0-.3.7-1.3.9-1.2l-.4.8c-.3.4-.5.5-.5.4zm-98-.3c-2.5-.3-1.6-1 1.4-1h1.4v.5c0 .6-.5.7-2.7.5zm-28.5-.4c.2-.4 4.5-.7 4.5-.2l-1 .2-2.3.2c-1 .2-1.3.1-1.2-.2zm-2.7-.7c-1-.1-1.9-.3-1.9-.5 0-.4 4.4-.4 4.6 0 .2.3-.2.7-.7.7l-2-.2zm14.4 0c-2.7 0-3.5-.2-3.4-.4 0-.2.8-.3 2-.4 1.8 0 2.3-.3 1.4-.7-.3-.1-.3-.2-.1-.4.2-.3.8-.1 2.4.6 3.2 1.3 3 1.4-2.3 1.3zm109-.2.7-1.3c.6-1 .7-1 .8-.5.1.7.6 1 1.1.4.7-.6.7.1 0 1-.4.5-.8.7-1.6.7-.6 0-1-.1-1-.3zm-179.2-1.3c-.6-1-1-1.4-1.3-1.3-.4.1-.5 0-.7-.8 0-.5-.3-1-.6-1-.5-.1-1-2-1-3.4 0-.7.6-2.1 1-2.1.3 0 .3.4 0 1.1-.4.6-.2 2.9.2 2.9.1 0 .3-.9.4-1.9.2-2.2.6-3.4 1-3 .2.2.2 1 0 2.8l-.3 3v.5l.4-.5c.5-.7 1-.2 1.3 1.1 0 .6.4 1.6.7 2.2.6 1.4.6 1.8.1 1.8-.2 0-.8-.6-1.2-1.4zm100.3 1c0-.3.2-.4.8-.3.5 0 1 .2 1 .3 0 .2-.5.4-1 .4-.6 0-.8 0-.8-.4zm18.7.3c-.3-.4-.2-1 .2-1 .2 0 .4.3.4.5 0 .4-.4.7-.6.5zm-38.3-.9-.7-.5h.8c1 0 2 .4 1.9.8-.3.4-1.4.3-2-.3zm4 0c-.3 0-.6-.2-.6-.3 0-.3 1.3-.3 2.6.1l1 .4H128l-1.8-.1zm-23.8-.2c-2-.1-2.7-.3-2.7-.6s3-.4 4.9-.1c.7.1 1.2.3 1.1.5 0 .3-1 .4-3.3.2zm56-.6c-1-1.7-.2-2.2.8-.7.3.6.5 1 .4 1.2-.3.5-.9.3-1.3-.5zm-43.5 0c-1.8-.9-2.4-1.3-2.2-1.5.3-.2 3.7 1.1 4.4 1.7l.5.3h-.7l-2-.6zm17.4 0-2-.7-.5-.2.9-.3c.6-.3 1-.3 2-.1 1.3.4 2.2 1 2.2 1.4 0 .5-.8.5-2.6 0zm91.6-.5.3-.3.1.3c0 .1 0 .2-.2.2s-.2 0-.2-.2zm-144.3-.3c-.9-.1-1.8-.4-2-.6l-.5-.4.5-.2c.2 0 1.3 0 2.4.3l2.8.4c1.2 0 .8.6-.4.7-.6 0-1.8 0-2.8-.2zm148.2 0c0-.2.3-.4.5-.5.2 0 .3 0 .2.3l-.4.4c-.2 0-.3 0-.3-.2zm22.9-.5c.2-1 .6-1.4.6-.6 0 .7-.2 1.4-.5 1.4-.2 0-.2-.4-.1-.8zm-150.4.2c-1.4-.5-1-.8.7-.6 1.7.2 2 .3 1.7.7-.1.3-1.3.2-2.4-.1zm74-.4a66.3 66.3 0 0 1-3.4-11.4c-.2-.6-.3-2.5-.4-4.1l-.2-3.1h.4c.4 0 .5.2.5 1.1a47 47 0 0 0 4 17.9c0 .6-.6.3-1-.4zm65.1.3c0-.3.1-.4.2-.2v.5c-.1.1-.2 0-.2-.3zm-186.2-1a9.5 9.5 0 0 1-1.8-2.2c-.2-.5-.6-1-1-1-.3-.1-.8-.6-1-1l-.4-.9v.6c0 .4.1 1 .3 1.4.5.9.4 1.6-.1 1.6-.2 0-.5-.5-.8-1-.8-1.7-.6-3.8.3-3.4.3 0 .5 0 .6-.3.2-.5.5-.2.8 1l.3 1 .2-.9c.5-2 .7-1.8 1.2.5.2.8.5 1.6.7 1.8.2.2.4.4.4.6 0 .2.4.8 1 1.3 1.3 1.2 1.4 1.4 1 1.8-.3.2-.6 0-1.7-1zm124.4.8c-.4-.6-.9-3.2-.6-3.6.1-.2.2-.3.4 0s.9 3 .9 3.6c0 .4-.4.5-.7 0zm-75.7-.7c-2.2-.7-3-1.2-2.5-1.4.2-.2 4.4 1 5 1.5.3.2.2.7-.1.6l-2.4-.7zm142.3.5.2-1c.2-.6.3-.6.3-.2 0 .3-.1.8-.3 1 0 .4-.2.5-.2.2zm12.2-.1c0-.2 0-.5.2-.6.2 0 .3.1.3.4 0 .3-.1.6-.3.6l-.2-.4zm-99.5-.7c-.5-.3-.3-2 .2-2 .3 0 .5.3.5 1 .1 1-.2 1.4-.7 1zm66.6-.2c0-.2.2-.4.3-.4.2-.1.3-.5.3-.9 0-.7.4-.8.7-.2.2.5-.4 1.7-.9 1.7l-.4-.2zm-62-.6c-.2-.4.3-.9.6-.7.2.1.3.4.3.6 0 .4-.7.5-1 .1zm95.2-.4c0-.4 0-.6.1-.3v.8l-.1-.5zm1.8-.8.2-2c.2-.4.2.1.1 1.4-.2 2.4-.3 2.7-.3.6zm-117.6.8c-.4-.4-.2-.9.4-.9.3 0 .5.1.4.4 0 .5-.5.8-.8.5zm-59.9-.7c-.3-.2-.7-.5-.8-.8 0-.3-.4-.9-.8-1.2-1-1-.3-1.4 1.3-.7.3 0 .5 0 .6-.4 0-.3.4-.6.7-.7l.6-.2-.9-.7c-1.3-1.2-1-1.6.8-1.4 1.2.1 1.6 0 2-.3l.4-.4-.4-.7c-.6-.8-.1-1.1 1.8-1.2.9 0 1.6-.2 1.7-.4 0-.2-.6-.2-2.1-.2-1.6.1-2.3 0-2.5-.2-.3-.5.5-.7 2.3-.8 1.7 0 1.7-.1-.1-.7-.5 0-.9-.4-1-.7v-.4l1.2.1c1.4.2 1.7 0 1.1-1.3-.5-1-1.2-1.6-2.5-1.8-1-.2-2.3-1.1-2-1.5.4-.6 1.7-.6 2.8.1.6.4 1.1.7 1.2.6.2-.2-1.3-2.6-2-3.1a6 6 0 0 0-1.3-.7A3.6 3.6 0 0 1 81 100c-.4-1.4-.4-2 0-2 .3 0 .6.4.7 1 .3 1.1 1.4 2.4 1.8 2 .2 0 .3-.2.2-.4-.2-.6.4-.8.8-.5l1.3.7c1.3.4 1.2.8 0 1h-1l.7.4c.4.2.7.5.7.8 0 .4.3.7.9 1 .5.1 1.3 1 2.2 2.2 1.3 2 1.8 2.3 2.4 1.9.6-.3-.1-1.8-.9-2-1.3-.3-3-2.8-2-2.8.5 0 3 2.1 3 2.5 0 .7 1.3.9 1.7.3.2-.3.4-.6.3-.7 0-.2-.9-.6-1.9-1-2.6-1.1-3.1-1.9-1.6-2.5.7-.3 1-.3 2.4 0 1.3.4 1.5.4 1.7 0 .4-.5 0-.7-1.1-.7-1.5 0-2-.4-1.6-1 .2-.3.6-.5 1.2-.5h.9l-.1-.7c-.1-1 .6-2 1.7-2.5 1-.4 1.7-1.5 1.7-2.8 0-.5 0-1 .2-1.1.5-.3.3-.6-.2-.8-.8-.2-.7-.8.2-1.5.5-.3.8-.8.8-1.2 0-.3.1-.6.3-.7.2-.1.1-.4 0-.7-.3-.4-.3-.6.2-1.1l.6-.7-.4-.1c-.3-.2-.4-.4-.3-1 .2-.7.1-1-.3-1.2-.3-.3-.6-.7-.6-1 0-.7 1.5-3.4 2.7-4.6a5 5 0 0 0 1.2-1.9c0-.4.7-1.4 1.4-2.2.7-.8 1.3-1.5 1.2-1.7-.2-.6 2-2 3-2 .3 0 .8-.3 1.3-.8.4-.4 1-.7 1.3-.7.6 0 1.7-1 1.7-1.4 0-.4-1-.2-1.5.3-.3.3-.7.5-.7.3-.2-.3 1-1.5 1.6-1.8.7-.2.7-.8.1-1-1.3-.5-4.6.8-6.9 2.8-.5.4-2 1-3.5 1.6-2.4.8-3 1-4.2 2.2-.8.8-1.6 1.9-2 2.6-.3.8-.8 1.5-1 1.7-.3.2-1.1 1.4-2 2.7L89.6 81 88 82.4c-.8.6-1.8 1.2-2 1.2h-.5v-1.4l.2-1.3-.5-.2a4 4 0 0 0-2 .2c-2.3.7-2.8.7-2.7.1.1-.3.6-.6 2-1 2.2-.5 2.4-.7 1.7-1.3l-.5-.5-.8.7c-1.3 1-3.8 2.3-4.2 2-.6-.3-.2-.7 1.4-1.5.8-.3 1.5-.7 1.5-.9 0-.3 0-.3-1.6.2-.8.2-2 .8-2.8 1.3-1.7 1.1-2 1.2-2 .3.2-.6.1-.7-.4-.5-.3 0-.8.3-1.2.5-.9.4-1.4.3-1.2-.3.1-.3 0-.4-.7-.4-.4 0-1-.2-1.3-.4-.3-.3-.9-.5-1.5-.4-.8 0-1.1 0-1.1-.3 0-.9.6-1 3.2-.8l2.5.1.2-.5.1-.6 2.4.2 2.4.1-.1-.7c-.2-.7-.2-.7 2-1 .5-.1 1.3-.5 1.9-.9.7-.5 1-.6 1.6-.4.5.2 1 0 2-.4.7-.4 1.7-.7 2.3-.7.9 0 1.1-.2 1.6-1 1-1.5 1-1.5 3-1.8 1-.2 1.8-.5 1.7-.6-.2-.4-2.4 0-3.1.4l-1.5.6c-1 .2-5.2 1.9-5.7 2.3-.3.2-1.2 0-1.2-.4l2-1.2c1-.5 2-1 2.3-1.3l1.6-.7 1.3-.5-.3-.5c-.3-.4-.3-.6.1-.9 1-.6 0-.7-1.7-.1l-2 .8c-.2.2-1.3.3-2.4.4-1.3 0-2.5.2-3 .5-1.7.8-2.7.4-2-.8l.5-.7h-.5c-1 0-1-.7 0-1.7 1.1-1.3 1.4-1.4 4.3-1.6 1.4 0 3-.3 3.4-.5 1.1-.5 3.2-.5 3.8 0 .4.2.7.1 1.3-.1.6-.3.6-.4.3-.5-.6-.1-.6-.4 0-.9.6-.6.3-.8-1.4-.8-1.4 0-1.7 0-1.7-.4 0-.5 1-.9 2.5-.9.6 0 1.2 0 1.2-.2 0-.4-2.2-.8-3-.7-.6.2-.7.1-.7-.4 0-.3 0-.5.2-.5l.7-.4.5-.5-1.3.2-2 .3c-.4.1-.5 0-.5-.4v-.6l-1 .2h-1.3l-.5-.2.5-.4.6-.4-1 .1c-.5.1-1.9.5-3 1-2.7 1-2.8 1-2.8.3 0-.4.3-.6 1.2-.9.8-.1 1.6-.6 2-1.1.6-.5 1.3-1 1.7-1 1.2-.4.7-.7-.9-.5-1.3 0-1.6 0-1.8-.3 0-.3 0-.6.4-.9l.5-.3h-.5l-1.8.5c-.7.3-1.5.4-1.6.4-.5-.3-.2-.7.8-1.1l1-.7c-.3-.4-1 0-5.3 2.2-3.9 2-4.8 2.4-5 1.8 0-.2-1 0-2.2.7-2.3 1-4.5 1.4-4.5.7 0-.3.4-.5 1-.6l3.2-1.2 2.1-1 .4.5c.3.2.6.3.9.2.7-.2 3.1-1.8 3.1-2 0-.3-1.3-.2-2.1.2-.5.3-1 .4-1.1.2-.9-.7-3-.5-5.3.5-.8.3-1.8.5-2.8.5-1.8 0-4-.4-4.2-.9-.3-.5.6-.6 1.7-.3 2 .6 3.6.5 4.3-.2.9-1 .7-1.2-.7-.8-1 .3-2 .3-4 .2-3-.2-5-.7-6-1.6l-.8-.6.5-.4.5-.4 1.1.7 1.2.6 2.6-.3c2.1-.2 3-.2 3.8 0 .6.2 1.1.3 1.2.2 0 0-.5-.7-1.3-1.4-1.4-1.3-2.6-3-2.6-3.7 0-.7.8-.3 1.5.8l2 2.4c.7.7 1.3 1.5 1.3 1.8l.1.5.5-.4.6-.4-.6-.2c-.7-.3-2-1.7-2-2.2 0-1 .7-.9 1.6.2 1.2 1.3 4.8 2.7 6.5 2.5 1-.1 2.8-1.2 2.8-1.7s-1-.2-2 .6c-.8.7-1 .8-1.2.5-.3-.5.2-1 2.2-2.2 1.1-.8 1.7-1 2.2-.9.5.2 1.1 0 2.2-.6 1.6-.9 1.9-1 1.9-.4 0 .4-1.4 1.3-2.4 1.6-.5.1-2.1 2-1.7 2l1.8-.7 1.8-.7c.4 0 .2.6-.4 1.2-.8.5-.9 1-.3 1 .4 0 3-1.1 3.4-1.4l2-1.5c3-2.4 3.1-2.4 2.6-2.4-.3 0-1 .4-1.6 1l-2.1 1.6-1 .5-.7-.4c-.8-.6-.8-.7.4-1.6l1-.8-.4-.3-.4-.3.6-.5 1.3-1c.8-.8 2.9-2 3.5-2 .8 0 .6.6-.3 1.6-1 1-.8 1.4.4.8 1.2-.6 1.6 0 .6.6-.6.5-.6.6-.4 1 .3.5.3.7-.4 1.2-.6.5-.7.7-.4.7.7 0 2.4-.8 2.8-1.4.2-.2.7-.5 1-.5.5 0 1-.3 1.5-.8l1.3-1.5c1-1 2.4-2.9 2.4-3.1l-.8-1c-.5-.4-.8-1-.8-1.3 0-.4-.2-.8-.5-1a16 16 0 0 0-6.3.2c-.5.5-1.1.4-2.1-.3-.6-.5-.8-.8-.7-1.1 0-.3-.3-.8-1-1.4-.7-.7-1-1.2-1.1-1.8V31l-.3.8c-.2.4-.4.7-.6.7a9 9 0 0 1-2.6-2c-.7-.6-1.1-.8-3-1.3-3.2-.8-3.9-1-4.6-.5a9 9 0 0 1-1.8.6l-1 .2h1.2c1.5 0 3 .3 3 .6l-.8.2c-2.2.1-4.4.5-4.5.8 0 .3.4.4 2.2.3 2.8 0 5 .3 5 .8.2.2-.2.2-1.5.1-1.2 0-2 0-3 .3a9 9 0 0 1-2.4.4c-.8 0-1.1.2-1.3.5-.2.6 0 .7.7.2 1.2-.8 6.6-.4 6.6.4 0 .2-.2.4-.5.4-.7.2-.5.6.4 1 1 .3.7.7-.5.5l-1.2-.1-.2 1.3c0 .7-.4 1.5-.7 1.9l-.6.5h2l-.2.6c0 .4 0 .5.3.5s.4.2.4.7c0 .4.2.7.5.8l1.2.5.8.4.4-.4c.5-.5 1.4-.5 1.3 0l-1.4 1-1.2.8-.7-.5c-.3-.2-1-.4-1.3-.4-.4 0-.9-.2-1.1-.5-.3-.3-1.2-1-2-1.4-.9-.4-1.6-1-1.8-1.3-.1-.5-.2-.5-.3-.1-.3.6-.6.5-2.3-.9l-2-1.6c-.4-.1-.7-.4-.7-.6l-.6-1.1c-.4-.4-.7-1-.7-1.1 0-1 1.6-.5 2.1.7.5 1.1 1 1.8 1.5 1.8.3 0 .3-.2 0-.8l-.5-.8.6-1c.7-1.3.6-1.6-.4-1-.7.6-1.2.4-1.2-.3 0-.4-.1-.5-.5-.4-.7.2-1-.3-.4-1.1.5-.8.5-1.2 0-1.2-.7 0-.7-.4 0-1.3 1.2-1.9 1.5-7.4.5-9.7-.2-.5-1.1-1.8-2.1-3l-1.8-2.1-.7 1.2-.8 1.4c-.4.3-.8 1.3-.8 2v.8l.6-1c.2-.5.7-1 .9-1 .4 0 .4 0 0 1.4-.2.8-.2 1 0 1.4.4.3.3.6 0 1.5-.7 1.4-.3 1.6.6.5.7-.8.8-.9 1-.5 0 .3-.1.8-.6 1.4a4 4 0 0 0-.6 1.5c0 .2.3-.1.6-.8.7-1.1 1.1-1.4 1.4-.7.1.3-1.5 3-2.5 4-.6.6-1 .1-.6-.7.2-.4.2-.5-.3-.5s-.7-.4-.2-.7c.3-.2.3-.9-.1-1.3-.3-.2-.3-.8-.3-1.7l.2-1.3-.6-.1-.6-.2v-4.2l.8-.8c.5-.5.9-1.2 1-1.9l.2-1 1-.3c1.2-.4 1.3-.3 2.1 1.3.5 1 .8 1.2 1.2 1.1.7 0 1 .3 1.6 2.5.4 1.5.6 1.9 1.1 2 .3 0 .6.1.6.3v.7c.1.3.7.4 3.1.4a21.6 21.6 0 0 1 5.8.7c1.7 0 3.7 1.2 3 1.8 0 .2-1.1.1-2.3 0a12 12 0 0 0-2.3-.1l.3.1c.3 0 .6.2.6.4 0 .3-.3.4-1.3.4h-1.2l.6.7c.3.3.6.8.5 1-.2.5 2 1.6 3.6 1.9.6.1 1.4.3 1.8.6l1.1.3c.8 0-.2-1-1.7-1.7-.9-.4-1.6-.8-1.6-1l-.8-.3c-2.2-.6-2.3-.6-1.2-.6.5 0 1 0 1.1.2 0 .1.4.3.7.3.4 0 1 .1 1.4.4 1 .5 1.5.4.7-.2-.6-.5-.7-1-.3-1 .1 0 .3-.3.3-.6.2-1 1-.9 2.6.2a397.6 397.6 0 0 0 3.2 2.4c0 .2.6 1 1.3 2l1.6 2.4c.1.5.8 1.3 1.4 1.8l1.2 1 2 .2 1.8.2-.1-1.7c-.3-3 .2-3.8 3.2-4.1 2.2-.3 4.2.4 4.7 1.6l.5 1-.4 1.6-.7 2.4-1.5 2.8c-.6 1.3-1.5 2.6-2.4 3.5-1.7 1.5-1.9 2.2-.8 2.4 1.6.4 2 .6 2.2 1v.6l-1.3-.2a6 6 0 0 1-1.8-.5c-1.2-.7-2.2.8-1.1 1.6l.6.5-.5.3c-.3.3-.5.3-1.2-.2-1-.7-1.3-.7-3.3.1-1.4.6-3.6 2.3-3.6 2.8 0 .2.5.3 1 .3.8 0 1.4.3 1 .7l-1 .3c-.6.2-.3.2 1 .1l2-.2c.5-.3 2.6.4 3 1 .6.5.4.9-.5 1.3-1 .4-.5.8 1 .6.6 0 1.4-.2 1.7-.3.3 0 .7 0 .9.2l.4.2-.5.4-.4.4.4.1 1.6.2c1.6 0 3 1 2.5 1.7-.2.3-.5.3-.8.1-1-.4-2.8-.7-3.6-.5l-.8.2.5.2c2.9 1 5.8 2.5 5.7 2.9-.2.3-1.4.4-2.3 0h-.6c0 .4 2.9 1.7 4 2 1.8.3 1.3 1-1.2 1.5-1.8.4-2.2.8-1 1 1.3.3 1.4.4 1.4.8 0 .3-.7.7-2.3 1.3l-.5.2.5.2 2 .6c2.2.6 3.3.4 5.5-1.2 2.6-2 3-2.1 4.8-2.6 3-.8 5-.8 6.6 0l1.4.8c0 .2-.4.5-.8.7-.8.4-2.2 2.2-2.8 3.6a17.7 17.7 0 0 1-5.4 5.3l-1.2.8-1.3.5.2.8c.1.5.6 1.5 1 2.3 1.3 2 1.6 3 1.6 5s.6 5.3 1.2 6.5c.7 1.4.1 7.9-.8 8.5-.6.4-1.3.1-3.1-1.1l-2.6-1.5c-.9-.3-2-1.3-2.4-2.3-.4-.8-.8-.8-.8.1 0 .4-.2.9-.4 1.2l-.3.6c.1 0 0 .4-.3.8l-.4.8.3.7.4.7-1.2 1.2-1.3 1.1.3 1.5.2 2.4c0 .6.2 1 .6 1.2.7.4.6.8-.3 2.5l-.8 1.3.6.2.5.1-.2 1.3c-.2 1.5-.8 2.8-2.2 4.7a8.2 8.2 0 0 1-3.3 3c-1.3.7-1.6 1.2-.9 1.3.6.1 3.5-2.4 4.8-4.2l1-1.5h2c1 0 2.8 0 4 .2l6.1.5c3.9.3 12.7 1.3 16 2 2.5.3 7 1.4 8.3 1.8 1.8.7.4.8-2 .2a98.2 98.2 0 0 0-17.8-2.6 308.2 308.2 0 0 1-14.9-1.5c-.6-.2-1.1.3-1.5 1.5-.2.7-1 1.6-2.4 3-1.8 1.8-2.1 2-2.6 1.8-.4-.3-1.4-.2-5.8.5-2.2.3-4 .3-4.7 0zm9.6-3.1c1.1-.6 2.2-1.6 2.2-2.2l.9-1.8 1-2.3.2-.6-.6.2c-1 .2-.8-.3.4-2.3l1-1.7-.5-.5-.6-.4.3-1 .1-.9c-.2 0-1.4 1.8-1.4 2.1 0 .1-.3.4-.8.7-1 .5-1 1 .2.8 1.2-.3 1.1.1-.3 1.3l-2 1.8-.9.7h.6c1.4 0 .6.8-1.3 1.2-.8.1-1.3 1.2-.5 1.2l1.8-.7c1.6-.7 2-.8 2-.3 0 .2-.9.8-1.8 1.3-1 .4-1.7 1-1.7 1 0 .2.4.2 1 .1 1.2-.2 1.4.1.6.7-1 1-2.1 1.1-5 1l-2.8-.2 1.5.4a31.1 31.1 0 0 0 5.1.9l1.3-.5zm5.4-8.6c-.1-.1-.4 0-.5.4l-.3.6.4-.4.4-.6zm-6.6-.4c0-.2-.2-.3-.5-.3s-.6.1-.6.3c0 .1.3.3.6.3s.5-.2.5-.3zm0-1.4c0-.3-.8-1.5-1-1.5-.4 0-.4 1.4 0 1.8.3.3 1 .1 1-.3zm17-12.8v-1.6c0-.8 0-1.1.2-1.1.1 0 .3-.4.3-.8 0-.8-.7-2-1.2-1.9l-.8-.1c-.5-.2-.6-.4-.6-2 0-1.5-.2-2-.7-2.5-.5-.4-.7-1-.7-1.5 0-1 .4-1 1 0l.4 1 .5-1.2c.3-.6.4-1.3.3-1.7-.3-.7-1.7-2.6-1.7-2.1 0 .1-.3.5-.8.7l-.8.4v-.5c0-.3 0-.6-.2-.7-.2 0-.3 0-.3.3 0 .8-.8 2.8-1.3 3.5-.7.9-.7 1 .2 1.2.5 0 .7.2.6.4a9 9 0 0 0-.2 3.4c.2.8.3.9.7.6.6-.3.8 0 .6 1.7-.1.9 0 1.4.3 1.7l.5 1c.3 1 .9.8.9-.3 0-1.2.5-1.5.7-.5.2 1 1.2 3 1.5 3 .2 0 .4-.2.5-.4zM85.6 79c0-.3 0-.3-.4 0l-.4.4.4.1c.2 0 .4-.2.4-.4zm3-4.1c1-.8.7-.9-.5-.2-1 .6-1.6 1.6-.7 1.1l1.2-1zm17.4-1.5c0-.2-.2-.2-.5-.1l-.5.1v.3c.2.3 1 0 1-.3zm.4-1.8c.8-.3 1.2-.8.7-.8-.2 0-1.2.6-1.6 1-.5.4-.3.4.9-.2zm-20.3-4.6 1-.6H86c-1.6.2-2.1.5-1.5 1 .5.3.6.3 1.8-.4zm-2.4-1c2.8-1.2 3.5-1.7 1.1-1-.7.3-1.6.5-2 .5-.9 0-3 1-3.2 1.5-.2.5.9.2 4-1zm6-.3a8 8 0 0 0 1.7-.5l1-.3c.7 0 2.7-1 2.7-1.3 0-.2-.1-.2-.3-.2-.7 0-3.4 1-4.2 1.5-.4.3-1.1.6-1.6.6-.6 0-1.1.2-1.3.4l-.4.5.7-.2 1.8-.5zM88 53h-.5c-.2 0-.2.1.2.1.2 0 .4 0 .3-.1zm-16-1.8c.5-.2 1-.7 1.3-1 .6-1 .4-1-.4-.2l-1.4 1c-.9.6-.7.7.5.2zm11.7-7.5c-.3-.4-.4-.4-.8 0l-.4.3.6.2c.8.2 1.1 0 .6-.5zm-17.6-5.3c0-.3-1.3-2.7-1.6-2.7-.5 0-.5.6.1 1.4.4.5.7 1 .7 1.2 0 .2.2.3.4.3s.4 0 .4-.2zm2.5-.7c0-.3 0-.4-.2-.4-.3 0-.4.1-.4.4 0 .2 0 .4.2.4l.4-.4zm-1-1.8c.4-.1.4-.2-.4-.2l-.8.2c0 .4.4.4 1.2 0zm28.8-.8c.1-.1.3-1 .3-1.8l.2-1.5-1-.6c-1.4-.9-2.3-.7-2.6.7-.2.7.3 3 .7 3.3.5.3 2.2.2 2.4 0zM92.2 33c-.2-.8-.3-1.1-.4-.9-.4.5-.3 1.7 0 2 .5.5.6.3.4-1.1zm-27.5-1.7-.1-.3c-.2 0-.4.1-.5.3l.1.2c.2 0 .4 0 .5-.2zm-.8-1.3c.2-.4 0-.4-.7 0-.3.1-.5.4-.5.5 0 .3 1-.1 1.2-.5zm16 0c-.2-.4-.6-.7-.9-.9l-.5-.2.3.5c.3.6 1.4 1.4 1.6 1.2 0 0-.1-.4-.4-.7zM69 28c0-.1 0-.3-.3-.3-.2 0-.4.2-.4.3 0 .2.1.3.3.3l.4-.3zm8-.7h-.5c-.2 0-.2.1.1.2.3 0 .5-.1.4-.2zm-8.7-.4c.5-.3-1.4-.3-2.3 0-.6.2-.4.3.6.3.7 0 1.5-.1 1.7-.3zM65 26l.6-.4h-.7c-.3.1-.7.3-.7.5-.2.4.2.4.8 0zm-1.2-1.7c0-.4 0-.5-.3-.5-.2 0-.4.4-.4.7 0 .5 0 .6.2.5.2 0 .4-.4.5-.7zm4.7.3h-1c-.4.1-.1.2.4.2.6 0 .9 0 .6-.2zm-.9-1.3h-.8c-.2 0 0 .2.3.2.5 0 .7 0 .5-.2zm-2.1-.5a1 1 0 0 0-.7 0l.4.1c.3 0 .5 0 .3-.1zm-7 99.4c-2.6-.2-3.6-.8-5-2.4-1.2-1.7-1.6-3.1-.9-3.7.4-.3.5-.3.8.1.2.3.4.7.4 1 0 .3.6 1.1 1.3 1.9l1.3 1.4 2.7.6 2.8.7v.4c-.2.3-.5.3-3.5 0zm101.5-.5c-.2-.4.1-.8.5-.7.2.1.3.4.3.6-.2.4-.6.4-.8 0zm85 0v-.6c.3-.3.3-.2.3.2 0 .6-.1.8-.3.4zm-88.6-1c-.4-.3-.2-1.8.2-2.4.5-.7.9-.1.7 1.2-.2 1.1-.5 1.6-1 1.2zm64.7-1v-.7c-.5.6-.4 0 0-.8.5-.8 1-1 1.1-.2 0 .2 0 .2 0 0-.3-.6-.7-.3-.6.3.1.4 0 1-.2 1.6l-.4.8zm-162.8.4-.6-.5c0-.2-.1-.3-.3-.3-.2 0-.8-.5-1.5-1.2-1-1-1.1-1.4-1.5-3l-.4-1.8.5-.3a.7.7 0 0 1 1.1.6c0 .8 3.8 3.8 4.9 3.8.2 0 .7.3 1 .7.3.3 1 .7 1.6.7 1.3.2 1.5.4 1 .8-.5.5-3.9-.3-4.9-1.1-.9-.8-2.8-1.7-2.8-1.3 0 .3 1.7 1.6 2.6 2 1 .4 1.1.7.4 1l-.4.1-.7-.2zm102.2-.2c-.2 0-.4-.2-.4-.3 0-.3.8-.6 1-.4.1.4-.3.8-.6.7zm-85.4-.3c-.2-.4.3-.8 1.4-1 1.5-.4 1.6-.4 1.6-.1l-1.3.8c-1.5.6-1.5.6-1.7.3zm143.5 0c0-.5 3.3-6.8 3.4-6.5 0 .3-.2 1-1.3 3.1l-.8 1.6c-.4 1-1.3 2.2-1.3 1.8zm-61.4-2.4c0-.2.2-.3.3-.4.1-.1.3-.6.3-1.1 0-.7 0-1 .5-1 .3 0 .6.2.7.4.2.4-.1 1.4-.6 2-.5.4-1.2.5-1.2 0zm100-.3.3-1.2.2-.5v.5c0 .3 0 .8-.2 1.2l-.2.7v-.7zm-195-.2a7.2 7.2 0 0 1-3.5-1.9c-1-1-1.6-2-1.2-2.5.4-.5 1-.1 1 .5 0 .7 3 2.8 4.5 3.2.8.2 1.3.6 1.3.7-.2.5-.5.5-2 0zm4.5-.3c-1.9-.3-5-1.4-5.4-2-.4-.3-.4-.5-.2-.7.3-.3.5-.3 1 0l.5.3-.6-.7-.5-1c0-.5 1.6-1 2-.7.1.2.6.2 1 .1.3 0 .7 0 .8.2.5.8 4.5 1.8 7.1 1.8 1.1 0 1.2.3.3 1-.6.3-1.1.4-2.6.3-1.6-.1-2.7-.4-5.6-1.4l-.5-.2.4.4c.4.5 4.3 2 5 2 .3 0 .5.2.5.4-.2.4-1.5.5-3.2.2zm9.9-.7c0-.3.3-.5.6-.6 1.3-.2 1.7-.3 1.6-.6l-.8-.2c-.6 0-.9-.4-.5-.7l2-.2c1.1 0 1.7 0 1.7.3 0 .1 0 .3-.3.3-.2 0-.4.2-.4.5s-.4.7-1.4 1c-1.7.8-2.6.8-2.5.2zm145.5 0c0-.3 1-2 1.1-2v.7c0 .4 0 .7.2.7l.2-.6.2-.5c.2-.1.5-.7.8-1.4l.8-1.2-.5 1.6-.7 1.7-.6.8c-.3.4-.5.5-.4.3.2-.6-.3-.6-.5 0-.2.4-.6.4-.6 0zm6.5-.2c-.2-.5.2-1 .8-1 .7.2.6 1.2-.1 1.3-.3 0-.6 0-.7-.3zm-94-.7a87 87 0 0 0-15.7-1.8c-1.4 0-2.2-.4-1.7-.9.2-.2.8-.2 2.2.1 1 .3 2.6.5 3.4.5a175 175 0 0 0 8.4 1c4.6.4 4.9.5 4.9 1 0 .4-.7.5-1.4 0zm123-.3.4-2.4c.4-2 .6-2.7.7-2.5 0 0 0 1-.3 2l-.4 2.7c0 .4 0 .8-.3.8-.1 0-.2-.3-.1-.6zm-101 0c-.5-.4-1-3.6-.8-4.7.7-3.1 1.3-3.2 1-.2 0 1.7 0 2.4.4 3.5.6 1.7.4 2-.6 1.3zm93.4-.2.4-2c.3-1 .5-2.3.5-3 0-.7 0-.9.3-.7.2.2.2.9-.1 2.4-.3 1-.5 2.3-.5 2.6 0 .6-.4 1-.6.7zm-1.2-.4.3-1.8c.2-1 .3-1.3.5-1 .3.5-.2 3.2-.6 3.2l-.2-.4zm-16.8 0-.2-.8c0-.7.7-.4.8.3 0 .6-.2.8-.6.4zm-72.1-1.4c-.3-.3-.3-.4 0-.5.6-.2 1 0 1 .6 0 .5-.6.4-1 0zm-116.3 0c-.2-.3.7-2 1-2 .3 0 .2 1 0 1.7-.4.5-.8.6-1 .2zm179-1.3c.7-1.7 1.9-3.8 1.8-3 0 .6-1.4 3.3-1.9 3.8l.2-.8zm-183.1.4.4-.5c.2-.2.4-.5.3-.7 0-.2.2-.8.6-1.3.5-.6.8-1.2.8-1.5 0-.7 1-1.7 1.3-1.4.3.3-1 3.5-2.1 5-.5.6-1.3 1-1.3.4zm191.9 0c.1-.5.7-.6.7-.1 0 .2-.2.4-.4.4s-.4-.2-.3-.3zm-189-.2.7-1.6.6-1.7c0-.3.2-.5.5-.5s.4.2.2.9c-.3 1.4-2 4-2 2.9zm35.5 0c-.3-.1-.4-.7 0-1 .2-.1 2.2.6 2.3 1 0 .2-1.6.3-2.3 0zm150.4-1.4.4-2.2c.3-.8.1 1.8-.3 3-.2.8-.2.7 0-.8zM47 111c-.4-1-.1-2.5.4-2.2.4.2.4 1.8 0 2.3-.1.3-.2.2-.4-.2zm1.2 0 .4-.7c.3-.3.4-.3.6 0v.8c-.3.4-1 .3-1-.1zm111 .2c-.1-.2.1-.6.4-.6.2 0 .3.1.3.4 0 .4-.3.5-.6.2zM81 110c-1.6-.8-2.3-1.5-2-1.9.3-.3 4.7 2.2 4.7 2.6 0 .5-1 .2-2.7-.7zm164 0c0-.6.3-1.2.5-1.5l.5-1.3c0-.4.3-.7.4-.7.6 0 0 2.6-.6 3.3-.3.2-.5.6-.5.8 0 .2 0 .4-.2.4s-.2-.4-.1-1zm-110.8.4-8.8-1.2c-3.5-.4-4.5-.6-4-1l2 .1a9395.9 9395.9 0 0 0 8.8 1.2l3.8.5c.2.2-.2.7-.5.7l-1.3-.3zm-81-.4c-1-.1-1.5-.5-1.5-1 0-.3.2-.4 1-.2.7 0 1.5.3 1.9.4l.6.2-.5.4-.6.4-1-.2zm187.7-.5c0-.3.2-.5.3-.5l.6-.2c.3-.2.4 0 .4.3 0 .4-.2.6-.4.5-.2-.1-.5 0-.7.1-.2.3-.3.2-.2-.2zm-158-.1c-1-.4-2.1-1.6-2.1-2.2 0-.7.2-.6 1.3.5.5.5 1.1 1 1.4 1 .2.1.4.4.4.6 0 .4-.1.4-1 0zm77.2-.2c0-.4.2-.6.5-.6.2 0 .3.2.3.4-.1.7-.8.8-.8.2zm-95-.2c-2.8-.8-4.3-2.2-3.5-3.2l.4-.5.6.4c2.2 1.4 2.8 1.6 3.2 1.3.3-.2 1-.2 3 .4l3.2.7c.4 0 .6.1.5.4 0 .4-.4.5-2.3.5l-3 .2c-.5 0-1.4 0-2.1-.2zm164.8.2c-.2-.3.5-2.3.7-2 .2.3 0 2.2-.4 2.2 0 0-.2 0-.3-.2zm28.6-.4c0-.2-.5-.5-.9-.6-.4 0-1.5-.5-2.5-.8-1.9-.8-4.6-1.6-6.2-1.8-.6-.1-1.2-.3-1.4-.5-.6-.3.6-.2 2.6.4l3.8.8 3.8.9c1.2.3 1.4.5 1.4 1 0 .7-.4 1.1-.6.6zm-14.1-.8.1-1 .3-.2c.4 0 .2 1.6-.2 1.8-.3 0-.4 0-.2-.6zm3 0c0-.2.2-.5.3-.5.2 0 .3.3.3.6s-.1.5-.3.5c-.1 0-.2-.2-.2-.5zm-6.3-.2c0-.4.1-.5.2-.3v.6c0 .2-.2 0-.2-.3zm1-1.1c0-.9.8-1.5 1-1 .3.7 0 1.4-.5 1.5-.3.1-.4 0-.4-.5zm-13.4-.4.2-1.3.2-.8v1.1c0 .7 0 1.2-.2 1.3-.1.1-.2 0-.2-.3zm1.8-.6c.2-1.1.6-1.7.6-1 0 .8-.4 2-.6 2v-1zm-38-.4c0-.6 0-1.2.2-1.3.2-.1.3.3.3 1.1s-.2 1.4-.3 1.4c-.2 0-.3-.5-.3-1.2zm47.5.7c-.3-.2-.2-1.6 0-1.6s.3.4.3.9c0 1 0 1-.3.7zm1.4-.3c0-.2 0-.2.2-.1.2 0 .3.2.3.2 0 .1-.1.2-.3.2l-.2-.3zM23 105.4 21 105l-3-.6-3.3-1c-.9-.2-1.1-.4-1-.7 0-.6 1.5-.6 3.2-.1 1 .3 3.8.8 7 1.3 1.8.3 2.2.5 2 1.3 0 .6-1 .7-2.7.2zm134.5-.2c-.8-1-1.8-3.2-1.7-3.6v-1.4c-.4-1 0-2.3.9-3.6.3-.4.6-1.1.5-1.4 0-.9.7-1 1.2-.1l.3.7-1 .9c-1 1-1 1.3-1 3.8a6 6 0 0 0 1.4 3.6l.8 1.4c0 .5-1 .3-1.4-.3zm86.4-.6c-.7-.3-1.1-.5-1-.6.1-.2 3.1.5 3.4.8.4.3-1.2.2-2.4-.2zm-23.5-1.3c.4-1.6.9-2.7 1-2.1 0 .5-.9 3.1-1.1 3.4-.2.1 0-.5.1-1.3zm-139 .7c-.7-.3-1.7-.8-2-1.1-.4-.3-1-.5-1.4-.5a3 3 0 0 1-1.2-.4c-.7-.3-3.2-1-3.4-.8l.5.8.7.6-.5.2c-.4.1-.7 0-1.2-.6l-1.1-1.1-.5-.4v.6c0 2.2-.5 3-1 1.8l-.6-.7-1-1.6c-.3-.8-.7-1.3-.8-1.1-.1.3 1 2.6 1.5 3.3.4.4.4.5 0 .7-.4.2-1.6-.5-2.8-1.7-.7-.8-.9-1-.6-1.3.2-.2.4-.2.8.2.5.5 1 .5.6 0s-.7-2-.3-2.4c.2-.2 0-.6-.7-1.5-1-1.3-1-2-.3-2 .5 0 1.2.9 2.2 2.8.7 1.4 1.4 2.4 1.4 2l-.5-2a6 6 0 0 1-.4-2c.3-.6.7-.3 1.1.7.5 1 1.8 2.7 2 2.7l.5-.6c.2-.4.1-.7-1-1.6-.8-.8-1-1.2-.9-1.5.3-.5 1.4.1 2.8 1.8l1.1 1.2.5-.4.4-.4.5.7c.3.3.5.8.5 1 0 .2.2.3.4.2.2 0 .6 0 1 .3.2.2.6.3.7.2.3-.1-.1-1.5-.6-2.2-.3-.5.2-1 .8-.7.2 0 .4.3.4.6l.6 1.5.8 1.8c.2 1 1 1.7 2.5 2.4 2.2 1 1 1.3-1.5.5zm147.2-1.5c-.2-1.8 0-2.5.6-2 .3.3.4.7.3 1.7-.2 2-.7 2.1-.9.3zm-177.7.6c-.8-.7-1.3-1.5-1.3-2.3 0-.9.5-.7 1 .4.2.5.6 1 1 1.2.7.3 1 1.3.3 1.3-.2 0-.6-.3-1-.6zm13.6-.5c-.6-1-.6-1.6 0-1.6.2 0 1.5 1.9 1.5 2.3 0 .8-1 .3-1.5-.7zm189.8.5-.6-.2h.7l1 .2c.4.3.4.3 0 .3s-.8-.1-1.1-.3zm-65.1-.5.4-2.6c.4-2.5.7-3.5.8-2.2a57.6 57.6 0 0 0-.7 4.4c0 .5-.3 1-.4 1-.1 0-.2-.3-.1-.6zm-29.4-.5c-.3-.3-.3-.5-.1-.7.3-.2 1.3.6 1.3 1s-.7.2-1.2-.3zm91.1.4-2-.4c-2-.2-6-1.3-5.8-1.5l2.9.4a256.9 256.9 0 0 0 5.9 1.3l.8.3H251zm-58.3-1.4.1-2.4c0-1.4.6-1.5.6-.1 0 1.6-.3 3.8-.6 3.8-.1 0-.2-.6-.1-1.3zm65.7.8c-.7 0-1.4-.3-1.6-.5l-.3-.4 1.4.2c2.8.3 3.1.8.5.7zm-39.6-.5a43 43 0 0 1 1.2-5.8l-.4 2.7c-.3 1.6-.7 3.6-.8 3.1zm35.8-.2c.6-.5 1-.5 1 0 0 .1-.4.3-.8.3h-.7l.5-.3zM53.8 101c-.7-.1-1.4-.8-1.1-1 .3-.3 2.3.2 2.3.5 0 .4-.5.6-1.2.5zm198.6-.1-2.8-.4c-2-.2-2-.6-.1-.5 1 0 1.7.2 1.8.4 0 .1.6.3 1.2.3.7 0 1.2 0 1.3.2l.1.3-1.5-.3zm-196-.5c-.2-.4.9-.8 2.4-.8 1.6 0 2 .4.8.8-.9.3-3 .3-3.1 0zm140.9-.2v-1c.4-1 .8-6 .8-8.2 0-1.4.1-1.7.5-1.7.3 0 .3.2.2 1.4l-.3 3a40 40 0 0 1-.9 6.5h-.3zM85.6 100c-.6-.1-.7-.3-.6-.6.1-.2 0-.8-.3-1.3-.3-.6-.4-1-.2-1l.5-.8c.1-.3.3-.4.8-.3.8.2.9-.1.3-.6-.6-.5-.5-1 .1-1 .3 0 .6 0 .6.2l1.2.8c1 .4 1.3.5 2.2.2 1.3-.3 1.4-.2 1.1.7-.2.7-.8 1.2-2 1.6l-.5.1.5.6.5.5-.4.4c-.5.4-2.5.7-3.8.5zm160-.4c0-.2.4-.3 1.3-.3 1 0 1.3.1 1 .3-.5.3-2 .3-2.3 0zm-86-.4c0-.2 0-.4.2-.4l.2.4c0 .2 0 .4-.2.4s-.3-.2-.3-.4zm84 .2c-.2-.2-.2-.4-.1-.5 0-.1.4 0 .6.3.5.4.2.6-.4.2zm-182.5-.6c-1-.1-1.4-.6-.7-.8h1.8c1.1 0 1.5.2 1.5.4s-.2.4-.5.4a4 4 0 0 0-.8.1 4 4 0 0 1-1.3 0zm169.7-.1c-.2-.5 0-1.3.4-1 .2 0 .3.3.3.6 0 .6-.5 1-.7.4zm15 .1c-.3-.2-.1-.2.7-.2.7 0 1 0 1 .2-.2.3-1.2.3-1.7 0zM76.2 97.7c-.8-.6-2.2-2.5-2-2.8 0-.1-.4-.8-1-1.4-1.2-1.1-1.5-1.8-1-2.1a9 9 0 0 1 3.3 1l.8.2c.7 0 1.2.5 1 1-.2.2-.5.2-1.2-.1-1.3-.6-2-.4-.8.2.8.4 1.2 1.2.6 1.2-.5 0-.2.8.7 1.6 1.3 1.4 1 2.2-.4 1.2zm-28.8-1c-.2-.1-.3-.6-.3-1 0-.3-.3-1.2-.7-2-.6-1-.7-1.5-.4-1.7.2-.3.4-.2.7.2.3.5 1.7 4 1.7 4.6 0 .4-.6.3-1 0zm8.3-.6c-.5-.5-1-1.2-1.1-1.7-.1-.4-.3-.9-.5-1-.3-.3-.4 0-.5 1.3-.2 1.4-.3 1.7-.9 1.5a6 6 0 0 1-.1-2c0-1.6 0-2.4-.5-3.5-.3-.8-.5-1.5-.4-1.6.3-.3 1 .5 1.5 1.6l.4 1 .3-.5c.6-1 1.6-.3 1.6 1.2 0 .9.9 2.6 1.8 3.4.3.4.6.8.6 1 0 .6-1.2.2-2.2-.7zm3.4.4c-1-.3-1.2-.5-2.2-2.4-1.3-2.3-1-2.7.8-2 .6.3 1 .7 1.2 1.3.2.5.7 1.2 1.1 1.5l.8.6 1.9-.4 1.9-.4-.1.5c0 .2-.5.5-1 .6-.5 0-1 .3-1.3.6-.5.4-1.8.5-3.1.1zm-14.3-.3c-.2-.7 0-2.7.3-2.8.3 0 .6 2.2.4 2.9-.1.4-.5.3-.7-.1zm216.6.3c0-.4.8-5.4 1-5.5.2-.3-.3 4.1-.6 4.9l-.4.6zm1.2-1.2c.3-1.2.7-1.4.6-.4 0 .5-.3 1-.4 1-.3.1-.3 0-.2-.6zm-131.6-1a134.1 134.1 0 0 0 .9-8c0-.1.2 0 .4 0 .4.5-.6 9-1 9.1-.3.1-.4-.1-.3-1.2zm59.6.2c0-.5.2-1 .3-1 .3-.4.4.1.3 1-.3 1.3-.8 1.3-.6 0zm51.2-.2a54.6 54.6 0 0 1 1-6.4c.3.3.3 1.3 0 3.1-.3 3.5-.4 4-.7 4-.2 0-.3-.3-.3-.7zm-153.3-.2c-.9-.4-2-1.6-2-2 0-.5.5-.7.9-.4.4.5.9.4 1.5-.3.5-.6.8-.7 1.9-.7l1.4-.2c0-.2.6-.3 1.1-.3l1.7-.1c.6-.2.7-.2.7.2 0 .3-.4.7-1.3 1-1.3.6-1.8 1.2-.6.7 1.3-.5 1.2.2-.3 1.3L92 94.4h-1.5a6 6 0 0 1-2-.3zm2.4-1.7h-.5c-.2 0-.1.1.2.1.2 0 .4 0 .3-.1zM209.5 94l.1-11.4c.3-.3.4 0 .6 3 .3 3.3 0 8.2-.4 8.6-.2.2-.3.2-.3-.2zm50.5-1.5.5-2v.6a48.4 48.4 0 0 0-.7 3.3l.2-1.9zM60 93.7c-1-.6-1.3-1.1-.4-1.1.4 0 .7 0 .8.2.3.4 2.2.3 3.1-.1 1.5-.8 2.1 0 .7 1-1 .6-3 .6-4.2 0zm187.8-.5a1414 1414 0 0 0 2.5-13.7c.3-.8 0 2.2-.4 4.7l-1 5.7c-.6 3.2-.8 3.8-1.1 3.3zm16.8-.4c0-.3 0-.5.1-.3v.7l-.1-.4zm.5-2.1c.2-1.5 1-3.6 1.4-4 .3-.4.2.3-.6 3-.7 2.4-1 2.8-.8 1zm-1.5 0v-.6 1.2-.6zm-75 .3c-.4-.5 0-2.4.5-2.4.3 0 .3.2.2.9-.3 1.4-.6 1.9-.8 1.5zm73.7-2c-.3-1.2-.2-2.3.1-2.3.4 0 .6 1.8.4 2.6l-.2.7zm-170.4-.2v-.5l4.8-1.7c.9-.2.8.3 0 .9-2.1 1.4-4.4 2-4.8 1.3zm-24.7-1.6c-1.8-1-2.6-1.8-2.3-2.4.3-.7 1.1-.5 2 .6 1 1 1.9 1.4 1.9.7 0-.2.3-.6.6-1 .5-.4.6-.8.5-1.2-.2-.8.7-.8 1.4 0 .5.5 2.5 1.5 3 1.5.7 0 0 .7-.7.8-.6 0-.9.2-1 .6l-.1.5h-1.3l-1.4-.2.2.5c.2.8-.9.6-2.8-.4zm-9 0c-1.1-.6-1.4-1.5-.6-1.5.6 0 1.9 1 1.9 1.4 0 .7-.4.7-1.4 0zm79.4 0 2-14.3.3-1.4v1c0 1.6-1.3 13.2-1.7 14.6-.2.5-.6.6-.6.1zm-83-1c-.5-.7-.8-1.3-.7-1.4.6-.6 2.8.8 2.6 1.8-.1 1-.8.7-1.8-.5zm198 .1c0-.5.2-1 .3-1 .4-.2.4 1 0 1.4-.2.3-.2.2-.2-.4zm-158.3 0c0-.2 0-.4.2-.7.5-.6 2.6-1.9 2.7-1.7.4.3-.2 1.2-1.1 1.9-1 .7-1.5.8-1.8.5zM243 84.8c.3-2.6.7-4.7 1-4.8a152.5 152.5 0 0 0-.3 4c-.2 1.2-.5 2.2-.6 2.2-.2 0-.2-.5-.1-1.4zM49.3 82.7c-1.8-1.9-3-2.8-3.5-3-.4 0-1.4-.7-2.1-1.4-2.2-2.1-2-2.1 2.2-.1a1280.2 1280.2 0 0 0 6.6 3.3l.7.7-.6.8-.6.9.7.6c.9.7 1 1 0 1-.5 0-1.3-.7-3.4-2.8zm145.7 2c-.5-.2-.3-.7.6-1.1.5-.3.9-.7 1-1 0-.4.2-.7.5-.9.4-.2.5-.6.5-1.3 0-.5.2-1.2.4-1.4.2-.3.4-1 .4-1.6 0-1.2 1-4.7 1.4-4.7.3 0 .3.6-.2 2.3a6 6 0 0 0-.2 2.1c0 .4 0 1-.4 1.7a5 5 0 0 0-.6 1.8c0 .4-.3 1-.6 1.5-.4.4-.7 1.1-.8 1.5-.1.5-1.2 1.4-1.6 1.3l-.4-.2zm64.3-.5.2-1.4c0-.3.1-.6.2-.5.2.3-.2 2.6-.4 2.6s-.2-.3 0-.7zm3.5.4a50.6 50.6 0 0 0 1.2-5.7 20 20 0 0 1-1.1 5.9c-.2.1-.2 0-.1-.2zm-69.8-.7-.1-1c0-.7-.3-1-1-1.6-1-.8-1.2-1.4-.5-1.4 1.1 0 2.3 1.4 2.6 3.2.2.9.1 1-.3 1-.3 0-.6 0-.7-.2zm77.2-1.6c-157.5-102-78.8-51 0 0zm-35 1.4h.6-.7zm-6-.7c-.5-.1-.6-.3-.5-.5.3-.3 2.3.2 2.3.6 0 .3-1 .2-1.9 0zm-184.6-.8c-1.3-1-2-2.2-1.4-2.5.5-.2 3.7 2.9 3.4 3.2-.3.3-.7.1-2-.7zm222-.2c.1-1.5.5-4.3 1-7.2l.4-2.2-.2 2.2c-.2 3.5-.6 6.7-1 7.6l-.4.8zm-111.4-.3c-.5-.4-.5-.5-.3-.8.3-.3.5-.2.9.1.4.4.6.4 1.2.2.7-.3 1.2-.2 1.2.2 0 .3-1.4.8-2 .8l-1-.5zm-59.1-1c0-.5.9-1 1.1-.7.3.2-.2 1-.8 1.1-.3.1-.4 0-.3-.3zm61.5-2.2c-1.6-.4-3-2-2.8-3.4.2-1.1.7-.9 1 .4.4 1.5 1 2 2.9 2.3 1.7.3 2 .6 1 .9-.7.1-1.2 0-2-.2zm38.2-1.3c0-.4 0-.8.2-1 .2-.4.3-.4.4 0 .3.6 0 1.3-.3 1.5-.2 0-.3-.1-.3-.5zm9-.2c0-.3.7-1 1-.8.2.3-.2 1-.6 1-.3 0-.4 0-.4-.2zm-4.7-.5V76c.2-.2.7.2.7.6 0 .5-.5.5-.7 0zm-125.5-.7c-.2-.3-.1-.4.5-.7 1.1-.5 1.5-1 1-1.3-.3-.2-.2-.4.3-.8.8-.6 1.5-.6 1.4 0 0 .2.1.3.5.1 1.8-.5 2.6-.4 1.8.4-.2.2-.2.3.1.4 1.2.5.2 1.2-1.5 1.2a5 5 0 0 0-1.9.5c-1.2.7-1.8.7-2.2.2zm-5-.3c-.2-.3.5-.7 1.5-.6 1.3 0 2.2.3 2.4.6 0 .4-3.6.4-3.9 0zm137 0c0-.5.9-1.1 1.6-1.3.4-.1 1-.4 1.2-.7.5-.5 1.2-.7 1.2-.3 0 .3-.9 1.1-1.2 1.1l-1.1.7c-1 .6-1.7.8-1.7.4zm-11.3-.5c-.3-.3-.3-.4 0-.6.3-.2.7.1.7.6s-.3.5-.7 0zm6.6-1.1c.1-.6.6-.6.7 0 0 .2 0 .4-.4.4-.2 0-.4-.2-.3-.4zM70.5 72.7c-2-.5-2.6-1-2.3-1.5.2-.3.8-.2 2.8.5l3 1c.2 0 .3.1.2.3-.2.4-1.6.3-3.7-.3zm135.7 0 .4-.2c.2 0 .3 0 .3.2s-.2.3-.4.3c-.3 0-.4-.1-.3-.3zm-2.5-.6c0-.3.2-.4.4-.4.5 0 .4.5 0 .7-.3 0-.4 0-.4-.3zm-129.4-.6a23 23 0 0 0-7-1.7c-1.6 0-1.7 0-1.7-.4 0-1.5 10 .5 10.7 2.1.2.6-.5.6-2 0zm168.7.3c-.3-.6.3-3.6.7-4 .1-.1.2.4 0 1.8-.1 2.2-.4 3-.7 2.2zm-43-.7c0-.4.2-.5.7-.5.4 0 .6.1.6.5s-.2.6-.6.6c-.5 0-.7-.2-.7-.6zm-60-.2c0-.2 0-1 .2-1.5l.2-1v1.3c0 .8 0 1.5-.2 1.6-.1 0-.3 0-.2-.4zm20.1-.2c-.2-.7.1-2.5 1.5-7.4 1.4-4.8 1.8-6 2.2-6 .5 0 .4.6-.2 2.3-.8 2.2-2.4 8.3-2.6 10-.2 1.3-.6 1.8-.9 1.1zm47.9-.1c.2-.5.7-.6.7-.2 0 .3-.2.5-.4.5s-.4-.2-.3-.3zM104.8 70c-.3-.1-.2-.3.1-.6.8-.7 1.7-1 2-.8.4.3 0 1-.7 1.3-.8.4-1 .4-1.4.1zM39 67l-3.2-2.7a8.5 8.5 0 0 1-1.4-3.1c0-.3-.4-1-.8-1.4-.5-.5-.8-1.1-.8-1.4 0-.7 1.2-.5 2 .4.6.5 1.7 1 3 1.4l2.2.7.5-.4.7-.4c.4 0 .4-.4 0-1.2-.2-.6.2-1.4.7-1.4.5 0 2 1.3 1.8 1.6 0 .2-.4.2-.6.1-.4 0-.5 0-.5.5 0 .6 1.9 2.5 2.5 2.5.8 0 .4.5-.5.6l-.8.1 1.5.7c.9.4 2.3.9 3.2 1 2 .4 2.4.6 2.2 1-.3.5-1.6.4-4-.2a11 11 0 0 1-5.3-2.5c-.8-.8-1.2-1-3.2-1.3-1.3-.3-2.4-.4-2.4-.3-.3.2.7 2 1.9 3.1.7.7 2 1.9 3 2.6 1.5 1.4 1.9 2 1.4 2.2-.2.1-1.6-.9-3.1-2.2zm226 1.2.2-1.4c.3-.3.1 1.7-.1 2.2-.2.3-.2 0-.1-.8zm-55.3.7c-.2-.2 0-.6.5-.6.2 0 .4.2.4.4 0 .4-.6.6-.9.2zm-63.1-1.2c0-.5 0-.6.1-.4.1.3.1.6 0 .8l-.1-.4zm8.4.2a26.1 26.1 0 0 1 6.8-11.5c.1.2 0 .5-.2.8a33 33 0 0 0-5 8.9c-.5 1.4-.9 2.1-1.1 2.2-.3 0-.5-.1-.5-.4zm-93-.4c-.2-.4.1-.8.8-.8.3 0 1-.1 1.4-.3.4-.3 1-.5 1.5-.6 1.2-.3.7.4-1 1.3-1.4.7-2.4.9-2.7.4zm206.7-.6c.2-1.1.4-1.2.4-.2 0 .4-.2.9-.3 1-.2 0-.2-.2-.1-.8zm-195 0L73 66l-1.4.6-1.9.6c-.8 0-.4-.7.7-1.2 1.5-.6 1.1-.9-.5-.3l-1.4.4c-.5 0-.3-.8.3-1 .4-.3.7-1.1.3-1.1l-1.7.7-1.6.7-.6-.4-.7-.3-2 1c-2.2 1-3.8 1.2-3.8.6 0-.4.6-.7 1.3-.7.7 0 4.6-1.8 5.3-2.5.4-.4 1-.7 1.3-.8.4 0 1.6-.5 2.8-1 1.7-.7 2.1-.8 2.5-.5.8.4 1.2.4 2.4-.3 1.3-.9 2.7-1.3 3-1 .2.1-.5.7-1.8 1.5a31 31 0 0 0-4.5 3.2c.2.1 2.5-1 3.3-1.5 2.7-2 6-3.5 7-3.1.6.2.3.7-.3.7-.3 0-.7.2-1 .5l-.5.6.8-.1 1.7-.4c1.2-.2.8.3-.6 1l-1.1.5 1.3-.2 1.3-.1-.5.8c-.5.8-.8 1-2.3 1.3-1.9.5-3.7 1.5-4.7 2.5-.8.9-.8.9-1.7 0zm3.9-4.1 1.5-1.2c.3 0 .3-.1-.1-.1-.5 0-3.2 1.6-3.5 2 0 .2 0 .3.4.3.3 0 1-.4 1.7-1zm138.6 4.2c0-.2.3-.4.6-.5.3 0 .4 0 .3.3 0 .2-.3.4-.6.4s-.4 0-.3-.2zm-75.4-1c0-.4 0-.6.1-.4v.7l-.1-.4zm78 0c-.3-.2.8-2 1.5-2.4.3-.2.6-.5.6-.7 0-.6.6-.8 1-.3.1.3.4.4.6.3.4-.3.3-1.2-.3-1.5l-.5-.2.5-1.1c.7-1.3.6-1.9-.2-1l-.6.6v-.7c0-.4-.2-.8-.4-1-.6-.3-.2-.8.6-.8.7 0 2.5-1.6 2.5-2.4 0-.6-.3-1.3-.6-1.3l-.4 1c-.2 1.3-.9 1.6-.9.5 0-.8-.3-.9-1-.4-.5.2-.6.4-.4 1 0 .5 0 .8-.2 1-.4.2-.8-.5-.6-1.2l.3-2c0-.9.2-1.7.3-2 .2-.3.3-.8.3-1.1l.2-1c.2 0 .4-1 .5-1.9.2-1.3.2-1.8 0-2.2-.7-.9-.5-2.5.3-2.5.5 0 .5 5.8-.1 6.9-.5.9-.2 1.2.8 1.3.7 0 2 .8 2.8 1.6.4.5.7.7 1 .6l.6-.2V54c0 1.4-.3 2-1.1 2a1 1 0 0 0-.9.5c-.1.3-.4.6-.6.6-.2 0-.3.3-.2 1.1.2.9 0 1.3-.2 1.5-.6.5-.6 1.7 0 2.2.7.6.4 1-1.3 1.5-1.2.3-1.7.7-2.2 1.3-.7 1-1.5 1.5-1.8 1.2zm6.6-11.7-.3-.4c-.1 0-.2 0-.2.3 0 .2 0 .4.2.4s.3-.1.3-.3zm-14.6 10.9.4-.6c.3-.2.4-.6.4-1 0-1 .4-1.3 1-.8s.4 1.5-.4 2c-.8.6-1.4.8-1.4.4zm-82.9-.3c0-.2.1-1.5.5-3l.8-3.8c.4-2.1 2.3-10 2.5-10.3.5-.5.6.1.3 2-.5 3.5-2.2 11-3.3 14.9-.2.5-.6.6-.8.2zm-73.6-.3c-.3-.2-.7-.5-.8-.8 0-.3-.6-.6-1.5-.8-2.4-.5-4.4-2-4.4-3.4 0-.9 1-.7 2 .5 1 1 1.4 1.1 5.7 2.4 1 .3 3.5 0 4.6-.3.6-.3.8-.2 1 .2l.4.4 1.6-.6c1.9-.9 2.2-1 2.3-.6 0 .1-.6.6-1.5 1.1-3 1.5-8.1 2.5-9.4 1.9zm129.2 0c-1-.4-1-1 .2-1 .8 0 1.7.6 1.7 1.1 0 .3-1 .2-1.9-.1zM216 64c0-.2 3.5-3.4 3.9-3.5l.4-.1-.4.5c-.3.3-.6.8-.7 1.2-.2.4-.5.7-.8.7-.3 0-.8.3-1.1.7-.5.6-1.3.9-1.3.5zm53.3-2.4c.2-4 .4-5.4.7-5.4.1 0 .2.4.1 1l-.4 3.9c-.3 3.6-.7 4-.4.5zM82.9 63.2c-.2-.3.5-.6 2-.9.9-.2 1.3.2.6.6-.8.4-2.4.6-2.6.3zm131-.7.7-1c1.5-1.6 1.8-2 2.6-3.3.9-1.5 1.4-3.8.7-3.6-.3.1-.6.7-.8 1.4-.2.7-.5 1.3-.8 1.3-.7.2-.3-1.4.7-2.9.5-.8 1.1-2.1 1.4-3 .3-.9.6-1.8.8-2 .3-.3.3-.5 0-.7-.1-.2-.3-.3-.4-.3-.3 0-.8 1.3-.8 2.3 0 1-.6 2.4-1 2.4s-.6-.8-.4-1.8c.2-1.3-.3-1.5-.6-.3-.2 1.1-1.4 2.4-2 2.4-.5 0-1 .4-1.8 1.7-1 1.7-1.7 2.3-2 2-.2-.2.1-.7.6-1.2l1.4-2.2c.4-.8.6-1 .8-.9.2.3.5.2.8-.1 1-.8.4-2.7-.7-2.7-.4 0-.7.2-.8.6-.3.8-1.5 2.3-2 2.3s-.3-.8.5-1.7c.5-.5.8-1.1.8-1.4 0-.2.3-.5.6-.6.3 0 .5-.3.5-.5 0-.5-1.3-1.6-2-1.6l-1.1-.8c-1-.9-2.6-1.3-4.2-1-.6.1-2.1.7-3.4 1.4-5.4 2.6-6.2 2.8-8.4 2.3-3.1-.7-3-.7-3.2-.1l-.1.5H189c-.7-.1-1.4-.3-1.5-.5-.5-.4-2-.3-2.2.1-.2.6-1 .5-1 0 0-.6-1.3-1-1.8-.7-.2 0-.2 0-.1-.1.4-.8-1.3-1.5-3.6-1.4-.6 0-.8-.1-.8-.7 0-.4-.3-1-.7-1.6-.5-.7-.8-.9-1.5-.9-.5 0-1 .1-1 .3l-1.5.6c-.7.3-1.7.9-2.3 1.5-1 1.1-1.8 1.4-2.2 1-.5-.7 3.5-3.6 4.9-3.6.2 0 .5-.3.7-.7l.3-.7-.9-1c-.4-.6-1-1.4-1-1.8-.6-1.3-1.2-6.5-1-8l.2-1.3-.8-1c-.5-.6-.8-1.3-.8-1.6l-.8-2.3c-.8-1.7-1.2-3-1.5-4.7-.1-.4-.4-1-.7-1.2-.3-.3-.4-.5-.2-1 .2-.2.4-1.4.5-2.6l.5-3.1c.9-2.3.7-2.1 2.3-2.1 1.4 0 2.5.3 3.3 1 .4.2 2 .7 5.2 1.5 1.7.5 4.3 1 5.2 1 1 0 5.7-1.4 7.2-2 1.6-.8 2.2-1.8 3.5-5.5 1.5-4.4 2.5-5.8 4-5.8.3 0 .6-.1.7-.3.5-.8 2 .5 5 4l.7.9.6-.4c.3-.1.6-.2.7 0 .1 0 .7 1.4 1.2 3l1.3 3.7c.2.6.4 1.6.4 2.3 0 1 .1 1.3.5 1.5.8.2 1.4.9 1.4 1.5 0 .4.2.8.4 1l.7 1.4c.1.5.5 1.1.7 1.2.6.4.8.9 1.1 2.8.3 2 .6 3.7 1 5 .8 2.3.9 2.6.6 3.5-.2.7-.2 1 .1 1.2.5.4.5 1.1-.1 2.3l-.5 1 .3.4c.6.5.5.7-.6 1.8-.7.6-1 1.2-1 1.6 0 .7 1.4 2.2 2.3 2.5.5.2 2.1 3 2.1 3.7l.6 1c.9 1.2 1.6 2.7 1.3 2.8-.3.3-1 2.7-1 4A8 8 0 0 1 218 58l-1.2 2c-.6.8-2.6 2.7-2.8 2.5zm1.5-13c.3-.6 0-2.4-.3-2.4-.6 0-1 1.7-.7 2.7.3.6.6.5 1-.2zm-16.6-3.3c1.5-.7 2.8-1.5 3-1.8a5 5 0 0 1 1.6-1l1.1-.4.4.5c.2.4.4.4.9.1a3 3 0 0 1 1.1-.2c.7 0 3.5-1.1 3.7-1.5.3-.4.1-.4-.8-.1-1 .3-3.2-.2-3.2-.8 0-.6.8-1.4 1.4-1.4.7 0 2-1 2-1.4 0-.2.4-.6.9-.8 1.2-.6 1.8-1.4 1.8-2.1 0-.9-.5-.8-1 .1a4 4 0 0 1-2.5 1.6c-.5 0-1.8-.6-1.8-.9 0-.2 2.9-3 3.1-3 .3 0 1.2-1.7 1-1.8h-1.2c-.8.3-1 .3-1 0 0-1-3.2-1.1-3.9-.2a5 5 0 0 0-.5 1.1c-.3 1-1.8 2.9-2.7 3.3-.4.2-1.3.5-2 .6-1 0-1.2.3-1.6.9-.3.4-.5 1-.5 1.3 0 .5-1 1.4-1.3 1.2v-2.3c0-1.6.2-2.4.7-3.4.4-.6.6-1.4.6-1.7 0-1.8 1.3-2.7 4.2-3.2l2.5-.5c.4-.1.5 0 .5.5 0 1.3.5 1.2 3-1 .7-.5.8-.7.5-1-.2-.2-.3-.7-.3-1.1 0-.5-.2-1-.4-1.2-.2-.2 0-.5.6-1.2.9-1 1-1.2.5-1.2-.4 0-3.1 2.5-3.1 2.9 0 .1.1.3.3.3.3.1-.7 1.3-1.1 1.3-.5 0-.6-.8-.2-1.3.3-.3.5-.7.5-1 0-.6 1.2-1.7 2.6-2.5.2-.1.4-.6.4-1 0-.8 0-1 .7-1 .8-.1 1-.9.3-.9-.3 0-.7-.2-1-.5l-.4-.5.5-.3c.7-.4.7-1 .2-2.1-.5-1-.8-1-1-.3-.1.3-.4.5-.5.5-.6-.2-.6-1.6.1-2.7l.6-1-.6-1.6a15 15 0 0 0-5.5-7.1c-.4 0 0 1.1.5 1.8.4.4.7 1 .7 1.2 0 .2.2.5.6.6.8.2 1 .6 1 1.7 0 .8 0 1 .5 1.2.4.1.5.4.5 1.5 0 .9-.2 1.7-.5 2.3l-.6 1 .1-1.4c.2-1.7-.1-1.6-.7.1-.5 1.4-2 3.2-2.6 3.2-.6 0-1.7-1.2-2-2.2-.2-.5-.5-1-.7-1-.5 0-1-1.4-1.2-3.3-.2-2.2-.7-2.6-.8-.6 0 .9-.2 1.4-.4 1.3-.1 0-.2-.8-.2-1.7.1-.9 0-1.5-.1-1.4-.5.3-1 3.8-.8 5.9.2 2.8-.4 2.5-.8-.4l-.3-2.4-.4.5c-.2.4-.3 1-.3 1.6a3 3 0 0 1-.2 1.7 2 2 0 0 0-.2 1.5c.3 1 .8 1.9 1 1.9.2 0 .8.7 1.4 1.5 1.3 1.7 1.6 2 1.6 1.1l.4-.8c.7-.6 1 0 1 1.8 0 2.9-1.3 4-2 1.7-.3-1.4-1.3-2.6-2.3-2.8-.5-.1-1-.4-1.1-.6a16 16 0 0 1-1.5-3.7c-.2-.8-1-.8-1.4 0-.3.8-.4 2.5 0 2.7l.4.9c.1.4.4.9.6 1 .2.1.5.8.7 1.5.3 1.1.4 1.3 1 1.3.7 0 1.5 1.3 1.7 3l.2 1-.6-.5a4 4 0 0 1-.8-1.2c-.4-.9-.8-1-.8-.4l.4 1.4c.4 1 .5 2 .1 1.8l-.8-1.2c-.7-1.4-1-1.4-1 0 0 .7-.1 1-.4 1-.3 0-.4-.2-.4-.4 0-.3-.1-.6-.3-.8l-.8-2-.9-2.3c-.2-.4-.6-1.6-.8-2.7l-.5-2-.2 1-.9 1.6c-.7.8-1.5 3.7-1 3.9.2 0 .3.3.3.6 0 .4.2.8.3 1 .3.5.6 0 .8-1.7 0-.7.3-1.3.4-1.3.1 0 .3.7.4 1.6l.8 2.7c.5.9.6 1.2.3 1.4-.3.3-.4.2-.9-.4-.6-.8-1.3-1-1.3-.2 0 1-.7 1-1.6.2-.5-.5-.7-1-.7-1.6 0-.6-.1-.7-.6-.6h-.6v1c.1 1 0 1-.3 1-.9-.2-2-2.8-2-4.6 0-1.8.6-4.1 1.3-4.7l.5-.5.3.5c.2.3.2 1 .1 1.8v1.9l.2.7.4-.5.4-.5v.7c0 .4.1.7.3.7.2 0 .2-.4 0-1.5l-.2-2.4c0-1.1-.3-1.6-.8-1.6-.3 0-.3-.2-.2-.7.2-.7-.3-1.1-.8-.7-.4.5-.9.4-1-.3a26.1 26.1 0 0 0-6.4-3.4c-.7 0-.4.5.7 1.1 1.9 1 2.8 1.8 3.4 3 .6 1.2.6 1.7 0 2.1l-.3.3.4 1.1c.4 1.2.2 2-.5 2-.3 0-.7-.5-1.1-1.1-1-1.6-1.7-1.8-6.4-2.5-1.6-.3-2 0-1.5 1.7.4 1.5 1.6 3.9 2.2 4.6.4.3.5.8.5 1.4 0 .6.2 1.2.5 1.4.2.3.4 1 .4 2 0 .8.2 1.5.3 1.6 0 .1.2 0 .2-.2 0-.6.7-1.1 1.1-.8.3.3.2.5-.1 1.2-.7 1.2-.7 1.6.3 1.4 1-.2 1.6 0 1.6.5 0 .4-1.5.7-2.7.6h-.6v1c.2 1.4.5 1.7 1.7 1.7.7 0 1.1.2 1.2.4.1.3.6.4 1.7.4l1.8.1c.4.3.4.9 0 1.3-.7.5-3.8-.3-3.7-1 0-.3-.1-.4-.9-.4-.5 0-.9.2-.9.3 0 .2.5 1 1.2 1.8a6 6 0 0 1 1.2 2c0 .8 3.3 2.3 5 2.3h1.3l-.2.5c-.2 1 .4 1.3 2 1.3l1.7-.1c.3-.3-1.5-2-2-2-.6 0-2-1.1-2-1.6 0-.2.3-.2.7-.2a330.5 330.5 0 0 1 3 .6c.3.1.5.3.5.6 0 .2.4.6.8.8.5.3.8.7.9 1 0 .4.5.6 1.8 1 1 .2 2 .4 2.4.3.3 0 1 0 1.4.3 1.5.6 2.5.5 5.3-1zm-4.6.2-.2-.7c0-.3-.4-.7-1.1-1-1.3-.7-1.9-1.8-1.5-3 .2-1 .6-1 .8 0 .2 1 .9 1.1 1.4.5.2-.2 1-.5 1.8-.7 2-.4 2.3-.1 1.4 1.6-.9 1.5-1 1.9-.4 2.4.8.6.4 1.2-.9 1.2-.6 0-1.2-.1-1.3-.3zm5.6-4.4.2-1c0-.6.7-.3.9.4 0 .7-.3 1.2-.9 1.2-.2 0-.3-.2-.2-.6zM186 42c0-.2 1.5-1 2-1 .7 0 .8.9.2 1.1-.6.3-2.2.2-2.2 0zm16.4 0 .6-.5c.3 0 .5 0 .4.3 0 .2-.4.4-.6.5-.3 0-.4 0-.4-.3zm-.6-1.8c0-.3.2-.6.3-.7.3-.2.9.6.7 1-.3.4-1 .2-1-.3zm-11.1-.5c-.2-.8-1.8-1-3.3-.5-3.1 1-5.5.7-5.8-.8-.3-1.3-.5-1.5-1.4-1.5-.7.1-.8 0-1-.6-.1-.6 0-.8.3-1l.9-.7c.2-.2 1-.5 1.8-.7 2.7-.6 5.9.1 6.8 1.6.3.4.7.7 1.1.7.7 0 1 .6 1.3 2.6.2 1.1.1 1.4-.2 1.4-.2 0-.5-.3-.5-.5zm-2.8-2c.6-.6.6-.8-.2-1.6-1-1-1.5-1-1.5.5l.2 1.3c.3.3 1.1.2 1.5-.3zm15.2-.7-.5-.5c0-.2 2-1.2 2.9-1.5.7-.2.7.1 0 1.2-.7 1-1.6 1.3-2.4.8zm-27.7-.8.6-.5c.3 0 .5 0 .4.3 0 .2-.3.4-.6.4s-.4 0-.4-.2zm15.5-2.6c-.1-.4-.5-1-.7-1.2-.7-.6-.7-1 0-1 .5 0 1.6 1.8 1.6 2.6 0 .6-.5.4-.9-.4zm-6.4-2.2c-.2-.4 0-.5 1.2-.6.8-.1 1 0 1 .2 0 .6-1.9 1-2.2.4zm10.7-1.1c0-.6.5-1.5.8-1.5.4 0 .3.6-.2 1.3-.5.6-.6.6-.6.2zM177 29.2c-.8-1-1-1.9-.3-2 .5-.3 1.7 1.2 1.7 2 0 1-.7 1-1.4 0zm23.8-1.4c-.1-.2-.2-.4 0-.5.2-.3.4 0 .3.5 0 .2-.2.2-.3 0zm-1.5-1.8c.1-.5 1-1.1 1.2-.9l-.1.8c-.4.6-1.2.7-1 0zm4.4-.6v-.5c.2-.2.4.1.3.5 0 .3-.1.3-.3 0zm-1.2-2.7c0-.1.2-.3.4-.3l.4.2-.4.2h-.4zm2.1-1.6c.5-.7 1-.7 1 0 0 .2-.3.5-.7.5l-.7.1.4-.6zm-4.6-.7c-.3-.3-.2-1.3.2-1.6.2-.2.7-.3 1.3-.2 1.2.2 2-.2 2-1 0-.5.3-1 .5-1.4l.5-.6.3 1.2c.4 1.2.3 1.7-.4 1.7-.2 0-1 .4-1.5 1-1.2.8-2.5 1.3-2.9 1zm6-1.7 1-.5c.5 0 .5.1-.2.5-1.1.7-1.4.7-.8 0zm7.8 27.4c0-1 0-1.2-.2-.8-.4.5-.8.3-.8-.4 0-.3.2-.5.4-.5.3 0 .4-.2.3-.5 0-.3-.3-.4-1.1-.5-1.3 0-2 .3-1.5.8.2.2.3.7.3 1.1 0 .6.2 1 .9 1.4 1.4 1 1.8.8 1.7-.6zm3.2-.3a2 2 0 0 0-.4-.7c-.2-.4-.4-.5-.6-.2-.5.4-.2 1.1.5 1.1.3 0 .5-.1.5-.2zm-7.1-.8c0-.2-.1-.4-.3-.5-.4-.2-1.1.1-1 .4.3.4 1.3.4 1.3 0zm.8-4.6-.4-.2-.5.2c-.1.2 0 .3.3.3s.6-.1.6-.3zm1-2c0-.3 0-.3-.5 0-.3.2-.4.4-.4.5.2.3 1 0 1-.5zm-.1-4c1.3-1 1.6-1.6.5-1.6-.4 0-1 .3-1.6 1-1.6 1.8-1 2.2 1 .7zm-10.3 0c-.1-.2-.4-.3-.7-.3-.3 0-.8-.2-1-.4l-.6-.5v.5l.2.7c.3.3 2.3.2 2 0zm2.4-2.8c.2-1 0-1.6-.6-1.7-1.3-.2-1.8 1-1 1.9.6.6 1.4.6 1.6-.2zm8.8-2.9c-.2-.4-.8-.5-.8 0 0 .2.2.4.5.4.2 0 .3-.2.3-.4zm-1.7-1c.1-.1 0-.2-.1-.2-.2 0-.3.1-.3.2l.1.3.3-.3zm2.5-1.4c0-.3 0-.4-.3-.4-.2.1-.4.4-.4.6 0 .3 0 .5.2.4.2 0 .4-.3.5-.6zm-22.7-3c-.2-.3-.4-.6-.6-.6-.3 0-.3 1 .1 1.6l.3.5.3-.4v-1zm20.5-.8c-.2-.2-1 .5-1 1 0 .3.2.3.6-.2.3-.4.5-.7.4-.8zm-29.1-1.4.2-.6-.4.4c-.3.3-.5.8-.5 1.5v1l.3-.8.4-1.5zm28.9-.2c0-.2 0-.3-.5-.3-.3 0-.7.3-.7.5-.1.2 0 .3.5.2.3 0 .6-.2.7-.4zm-35-1.5c-.1-.1-.7-.6-1.5-1-.7-.4-1.3-.9-1.3-1 0-.3.4-.3.7 0 .4.4 2.2 1.3 2.6 1.3 1 0 .2-1.2-1.4-2.4-.8-.6-1.4-1.2-1.4-1.4l-.5-.8c-.3-.3-.5-.8-.5-1.2 0-.6-.2-.9-1-1.2-1.1-.6-1.7-.3-2 1.1-.2.6-.5 1.4-.8 1.8-.4.5-.5 1-.3 2 0 .7.3 1.5.5 1.6a9 9 0 0 0 2.5.5c1.2.2 2.5.5 2.8.7.6.4 1.7.4 1.6 0zm10.7-3.1c0-1.2-.4-1.8-.8-1.3-.3.2-.3.4 0 .6.1.2.3.6.3 1 0 .3 0 .6.2.6s.3-.4.3-.9zm15.2-3.8c0-.6.3-1.6.4-2.2.2-.8.2-1.3 0-1.4-.2-.3-.4.3-.6 1.8 0 .6-.2.8-.7.8-.8 0-1 .3-.9 1.2.2 1 .4 1 1 1 .4 0 .6-.4.8-1.2zm2.3-2.1c0-.8-.4-1.4-.7-1.1-.2.2-.8 4.2-.7 4.3.3.3 1.4-2.3 1.4-3.2zM200 7.5l.3.5.5-.7c.5-.8.6-3.6 0-4.8-.5-1-1.3-1.6-1.6-1.1-.6.7-2 5-2 6h.6c.4 0 .5 0 .5.4 0 1 .4 1 .9 0l.5-.7zm-.3-1.9c0-.5 0-.7.1-.4v1l-.1-.6zm-9.3 56.5c0-.1.2-.3.4-.3l.3.3c0 .2 0 .3-.3.3s-.4-.1-.4-.3zm-2.4-.6c-.2-.2-.3-.6-.2-.8.2-.4.3-.4 1 0 .5.1 1 .5 1 .7 0 .5-1.4.6-1.8 0zm-7.4-.5c0-.3.3-.6.5-.6.6 0 .5 1 0 1.2-.5 0-.5 0-.5-.6zm29.6 0c0-.7 3-2.6 4-2.6s1.3.7.7 1.3l-.5.5-.2-.5-.5-.5a8 8 0 0 0-2.7 1.9l-.4.2a.4.4 0 0 1-.4-.3zm-37.6-.4c-.4-.3-.2-.8.2-.8.2 0 .4.2.4.5 0 .5-.3.7-.6.3zm1.6-.3c0-.2.2-.3.4-.3.3 0 .4.1.3.3l-.4.2c-.2 0-.3 0-.3-.2zm-105-.3c0-.3 2-1.6 2.5-1.6.7 0 .4.5-.7 1.2-1.3.7-1.8.9-1.8.4zm72.2-.9c0-.6.1-1.2.3-1.2.2 0 .2.4 0 1.1-.2 1.6-.3 1.6-.3.1zm37.4.9c-.2-.4.4-1 .8-.6.3.3 0 .9-.3.9-.2 0-.4-.1-.5-.3zm-140.3-.2c-.2 0-1-.5-1.6-1a17 17 0 0 0-4.4-2.2c-.5 0-1.7-.6-1.7-.9 0 0 .5-.7 1.1-1.2l1.1-1-.7-1c-.9-1-.8-1.8.2-2 .4 0 .7-.1.7-.2 0-.3-1.4-1.6-2.7-2.6a7 7 0 0 1-1.4-1.3l-.5-.7.4-.4.5-.4 1.4.6c1.8 1 3 1.3 4 1.3h.8l-1.3-.8c-.9-.6-1.2-1-1-1.3 0-.3-.2-.8-.9-1.5-1-1.1-1.3-1.9-1-3 0-.6 0-1-.5-1.8-.8-1-.7-1.7.3-1.7.5 0 .6 0 .5-.6-.5-1.5-.5-1.6.3-2.2a3 3 0 0 1 1.1-.5c.2 0 .4-.2.3-.4-.2-.8-.3-2.4-.2-2.7.3-.9.9-.1 1 1.2 0 .8.5 2 .8 2.9.9 1.7 1 2 .4 2-.3 0-.7-.5-1-1.1-.3-.7-.7-1.2-.8-1.2-.2 0-.2.2 0 .3.2.2.2.5.2.5-.1.1 0 .5.2 1l.4 1 1.4 1.6c1.2 1.4 1.7 2.5 1 2.5-.2 0-1.2-1-2.3-2l-2.2-2c-.2 0-.3.2-.3.5 0 .7 2.3 3 3.8 4 1 .5 1.1 1 .4 1-.2 0-1-.4-1.8-1-2.1-1.6-3-.8-1 1 1.1 1.3 1.8 1.6 2.9 1.6 1.3 0 2 .5 1.7 1.3l-.1.8 1.5.3c1.5.4 2 1 1.2 1.2-.6.2-7.6-.3-8.5-.5-.3-.1 0 .4 1.1 1.5 2 2 2.8 3.3 2.2 3.5-.2.1-.8 0-1.2-.2-1-.5-1-.5-1 0 0 .4 1.3.9 2.8.9 1.4 0 1.8.3 1.3 1-.2.2-.6.3-1.7.1-1.2-.1-1.5 0-2.2.4l-.8.8c0 .2.6.5 1.4.8 3.4 1.5 7.4 5 4.4 3.8zm138.5 0c0-.1 0-.4.3-.6.4-.3.8 0 .5.6-.2.3-.6.3-.8 0zm18.7-.6c-.4-.7-.4-1.6.1-1.6.2 0 .5.4.7.7.4 1.3-.3 2-.8 1zm3.8 0c-.4-.3 0-.8.6-.7h.7v-.9c-.3-1.7-.2-2.2 0-2.3.5-.1 1.1 2.4 1 3.8 0 .3-2 .4-2.3.2zm-131.9-.8c0-.3 2.4-1.3 2.8-1.2.6.3.4.6-.7 1-1.3.6-2.1.6-2.1.2zm116.8-.4c-.3-.6.3-1 1-.6.6.3.5.9-.3 1-.3 0-.6-.1-.7-.4zM175 58c0-.1.2-.3.4-.3s.4.2.4.3c0 .1-.2.3-.4.3s-.4-.2-.4-.3zm30.7-.5c0-.5 1-1.3 1.6-1.3.5 0 .2.5-.7 1.2l-.9.7zm-7.7-1.1c0-.7.7-.6.8.1 0 .3 0 .4-.3.4s-.5-.2-.5-.5zm14.9 0c0-.4.3-.7.6-.7.4-.1.4 0 .4.5 0 .3-.3.6-.6.7-.4 0-.5 0-.4-.5zM57.2 56c-1.2-.6-.5-.9 2.3-1H63c.8-.2.8.3 0 .7-1 .5-5 .7-5.7.3zm116.8.1c-.2-.2 0-.6.3-.6.2 0 .3.2.3.4 0 .4-.3.5-.6.2zm20.7-.6c0-.1.1-.2.3-.1l.2.3h-.2c-.2 0-.3 0-.3-.2zm75.2-.1a134.3 134.3 0 0 1 2.3-18.8c.2-1.6.5-2 1.3-1.5.4.2.3.5 0 2a90.3 90.3 0 0 0-2.3 11c-.2.5-.4 2.1-.6 3.4-.3 2.7-.7 4.7-.7 3.9zm-97-.5c-.5-.4-.4-1 .3-2 .7-.9 1.2-.4 1 1-.3 1.3-.6 1.5-1.3 1zm8.4-.5c-.7-.3-1-1-.6-1.3.1-.2.5 0 1 .5l.8 1c0 .2-.6.1-1.2-.2zm-39-1c0-.6.1-1 .2-.6V54l-.1-.6zm50.2.3c-.2-.3.2-.6.4-.4.3.3.3.6 0 .6-.2 0-.4 0-.4-.2zm6.5-.6c0-.3.2-.6.4-.7.3 0 .3 0 .3.5 0 .3-.3.6-.5.7-.2 0-.3 0-.2-.5zm-27.6-.8v-.9c.3-.3 1 .4 1 1 0 .7-.7.6-1-.1zm8.4 0a.5.5 0 0 1 0-.5c.2-.2.4-.2.5 0v.6c-.3.2-.4.2-.5 0zm25.2-.2c0-.7.5-1.3.8-.9.3.2.3.4 0 .9-.3.6-.8.7-.8 0zm22 0c-.2-.3 0-1.9.1-3.5a51 51 0 0 0 .7-5l.2.2-.9 8.7-.2-.4zm-77.7-1v-.5.9-.5zm59.4-.2c-.3-.4-.1-1 .4-1s.6 1 .2 1.2c-.1.1-.4 0-.6-.2zm-10.7-.1c-.3-.5.1-.9.6-.6l.3.6c0 .3-.7.3-.9 0zm68.7 0a145.2 145.2 0 0 1 2-14l.2-2 .6-.1c.8-.1.8.4.1 2.5a26 26 0 0 0-.8 3.6c-.6 4.4-2 11.2-2.1 10zm-87.7-.9-.1-.3c1.4-1 3.1-1.7 3.1-1.2a8 8 0 0 1-2.6 1.8c-.2 0-.4-.1-.4-.3zm-8.6-.7c-.7-1-.7-1.3.1-1.7.8-.4 1.1-.1 1.3 1.3l.2 1.2h-.5c-.3 0-.8-.4-1-.8zm54-.2c.2-.7.7-4.7 1.2-8.8 0-.7.2-1.3.4-1.3.1 0 .2.4.1 1l-.4 3.7a19 19 0 0 1-1.2 6c-.1.1-.2 0 0-.6zm-20.6.2c0-.1 0-.3.2-.4.1-.1.2 0 .2.2 0 .5-.1.6-.4.2zm-154-1a53 53 0 0 0-2.3-.8c-1.3-.4-2.1-1.3-1.4-1.6.2 0 1 .1 1.6.4l2.3.9c1.5.4 2 .7 1.5 1.2-.3.4-.3.4-1.7 0zm125.9 0c0-.3.7-.7 1-.5.1.2-.5 1-.8 1l-.2-.4zm-110-.4c0-.2.6-.4 1.4-.5.7 0 1.6-.4 2-.6l.8-.5-.5-.4c-.2-.2-1-.4-1.7-.5-2.2-.3-2.6-.4-2.6-.8s.2-.4 1.7-.2c1 0 2 .3 2.3.5l.4.4.8-.4c1-.5 1.4-.5 1.4 0s1.8.3 3-.3c1.4-.7 1.5-.7 1.5-.3 0 .4-2.2 1.8-4.2 2.8-1.4.7-2.3.9-4.7 1-1.4.1-1.7 0-1.7-.2zM134 44a114.7 114.7 0 0 1 1.2-12.7c.1-1.7.5-4.2.7-5.7.8-4.3 1.1-6.3 1.2-7.7 0-1.5.5-1.8 1.1-.6.4.8.4 1.1.2 2.1-1.7 6.7-3.2 16.7-3.6 24.6-.2 3-.3 3.7-.7 3.7-.2 0-.3-1-.1-3.7zm-67 2.9c-.2-.4.1-.8.6-.8.4 0 .4 0 .2.6-.2.5-.5.6-.8.2zm107.2-.5c-.3-.3-.2-.6.3-.6.2 0 .4.2.4.4 0 .4-.4.6-.7.2zM47 44.4c-1-.5-1.8-1.2-1.8-1.4 0-.4 1.2-.6 1.4-.2l1 .7c1.7.8.8-.2-1-1.3-2.1-1.2-2.3-1.4-1.9-2 .3-.4.1-.7-1-1.7-.7-.7-1.3-1.4-1.2-1.6.2-.5 1.1-.5 1.7.2a451.1 451.1 0 0 1 4.7 5.2c1 1 1.2 1.6.3 1.6h-.5l.5.6c1.3 1.3.3 1.3-2.2 0zm13.3.4c-1.8-1-2.3-1.4-2.3-2.2 0-.7-1-1.5-2.7-2.4-1-.5-1.9-1.5-1.7-2 .3-.7.8-.5 2.3.8l1.7 1.2c.2 0 1 .4 1.6 1a17 17 0 0 0 2.2 1.5c1 .4 1.5 1.3 1.1 1.6l-.2.6c.1.7-.6.6-2-.1zm5.6-1.7c-.8-.6-1-1.2-.3-1.4.5-.2 2.5 1 2.5 1.6 0 .5-1.5.4-2.2-.2zm92.8-.5.5-6c.4-4.1 1.2-10 2.7-18.4l.5-4.2c.2-2.7.3-3.2.8-3.2.4 0 .8 1 .7 1.5l-.6 3.1-1 5.6a155.6 155.6 0 0 0-3 19.9c0 1.2 0 2-.4 2.3l-.4.5zM75 41c0-.1 0-.7.3-1.3L76 38c.2-.5.3-1.8.3-3 0-2.1.3-3.2.9-3.2.1 0 .2.4.1 1 0 .8 0 1 .5 1 .3.1.9.5 1.3.9.5.5.7.8.5 1.3-.1.6 0 .6.3.3.4-.4 1.8-.3 2 .2 0 .3-3 3.5-4 4.1-.8.5-2.8.8-3 .5zm3.5-5.5c-.3-.3-.6-.5-.7-.4-.1.4.5 1.1 1 1.1.3 0 .2-.2-.3-.7zm4.7 5.5c-.1-.2 0-.4.4-.6.8-.5.6-.7-.6-1-.5 0-1-.2-1.2-.3-.2-.4.4-.8 1.3-.8s1.2-.4.6-.7c-.4-.2-.4-.4-.3-.6.3-.2 4 .3 4.4.7.2.2-.8.9-1.6 1h-.6l.6.2c.4.1.6.4.5.7-.1.7-3.2 2-3.5 1.4zm-21.5-.8c-.3-.4-.4-.6-.1-.9.2-.2.4-.1 1 .3l.6.9c0 .4-1 .2-1.5-.3zm-2.1-.6a8.5 8.5 0 0 1-1.7-3.5s.2-.2.5-.2c.4 0 .6.3.8 1 .2.6.7 1.5 1.1 2 .8.8 1 1.5.4 1.5-.1 0-.7-.3-1.1-.8zm168.2 0c0-.5 0-.7.2-.4v.8c-.1.2-.2 0-.2-.5zm-171.2-1c-1.1-1-1.4-1.4-1.3-2 .1-1.1.7-1 1.4 0l1.3 1.9.7 1c0 .7-.8.4-2.1-.9zm94.5.2c0-.5 0-1 .2-1.1.3-.2.3.8 0 1.5-.2.5-.2.4-.2-.4zm-14-1c0-.9.5-3.2.7-3.2.3 0-.1 2.5-.5 3.1l-.3.5v-.5zM49.2 36c-1-1.2-2-3.6-1.7-4 .2-.3.2-.5 0-.9-.5-.8 0-3 .7-3.2.5-.2.7-.1 1 .5.2.8.6.5.8-1.1.2-1.3.8-2.7 1.2-3 .1 0 .3-.6.3-1.2 0-.7-.2-1-.5-1.3-.8-.4-1-.3-1.2.3-.2.8-.9.6-1.5-.4-.3-.5-.7-1-.9-1-.5 0-.7.8-.4 1.4.3.4.2.8-.1 1.8-.6 1.8-.6 1.8.1 2.4.6.5.5 1-.3 1-.7 0-1.3-.8-1.3-1.7 0-.5 0-.6-.3-.4-.4.4-1.3.4-1.3 0h-.5c-1 .6-1.1-.2-.3-2.8 1.3-4 1-5.9-1.1-8.7-1-1.4-1.8-1.8-1.8-1s-.7.3-2-1.3c-.9-1-1.7-1.8-1.9-1.8-.2 0-.3.2-.2.3.4.7.8 2.9.6 3.2-.2.4-.7.1-1-.6-.2-.4-.3 0-.3 1.6-.2 5.7-.4 8-.8 8.2-.5.3 0 3 .6 3.6.3.3.5.7.5 1a31.3 31.3 0 0 0 2.2 8.7c.2.4.1.5-.3.5-.8 0-1.7-2-2.3-5-.2-1.2-.6-2.5-.8-2.9-1.2-2.2-2.3-9.2-1.5-9.7.2 0 .3-1 .2-2 0-1.5 0-1.9.6-2.4.3-.4.6-1 .6-1.5 0-.6.1-1 .4-1.2l.5-.4-.5-.7c-.4-.8-.5-1.5-.5-3 0-1.1.8-1.1 2.4 0l1.7 1.2c2.7 1.6 3.6 2.3 4.3 3.5.7 1.1.9 1.3 1.4 1.2.7-.2 1 .4 1 2.1l.2 1.3 1.2 1.3c1.4 1.4 1.7 1.6 1.5.6-.1-.3 0-.7.1-.8.4-.2.8.2 2.4 2.4 1 1.5 1.7 1.5 1.7 0 0-1.6.7-1.4 1.3.4.5 1.6.4 2.1-.2 2.1-.4 0-.4.2-.3 1l.3 1.7c.1.6 0 .8-.3.8-.4 0-.5.2-.4 1 0 .9-.5 3.6-.9 3.8h-1c-.5-.1-.7 0-.8.5-.3 1-.2 2.2.2 3.2.5 1 .5 2.3.2 2.3-.2 0-.6-.4-1-.9zm2.2-8.8c.2-.5-.4-.4-.6 0 0 .3 0 .4.2.4s.3-.3.4-.4zm-5.3-6.1c.9-.8.9-1.1 0-1.1-.2 0-.6.4-.8.9-.5 1.1-.3 1.2.8.2zm105.4 13.6.1-1.9c.3-.6 1-.1 1 .7 0 .7-.7 2.6-1 2.6l-.1-1.4zm71.7.6c0-.5 0-.7.2-.4v.9c-.1.2-.2 0-.2-.5zm-78-1.6c0-.9 0-1.7.3-2 .6-.8.8-.2.4 1.3-.5 2.1-.8 2.4-.8.7zm83.3-.5c0-.5 0-.7.2-.5v1c-.1.2-.2 0-.2-.5zm2.5-.3c-.2-.6 0-2.3.4-2.3s.4.6.1 1.7c-.2.8-.4 1-.5.6zm9.6-2.1c0-.7.2-1.3.3-1.4.3-.3.3 1.7 0 2.2-.2.3-.3 0-.3-.8zM229.1 29a159.5 159.5 0 0 0 .8-7.2c.4-3.4.7-4.6 1.3-4.6.3 0 .6 0 .6.2.1 0-.1 1.3-.5 2.7-.8 2.9-1.3 5.7-1.7 8.3-.3 2.3-.5 2.5-.5.6zM57 28.3c-.2-.4.9-1.6 1.4-1.6.5 0 .4.7-.2 1.3-.6.6-1 .7-1.2.3zM226 26c.2-2.7.5-4.3 1-4.1.4.1.2 2-.3 3.4l-.4 1.6c0 .4 0 .8-.2 1-.1.2-.2-.5-.1-1.9zm10.6-.4c-.2-.1 0-7 .2-8 .1-.4.3-.6.7-.5h.6v1.4a59.8 59.8 0 0 1-1.5 7.1zM40.1 23c-.3-.4 1.4-2.2 1.7-2 .2.3 0 .7-.5 1.3-.7 1-1 1.1-1.2.7zm-2-.6a1504.8 1504.8 0 0 0 2.8-3.6c.4-.5 1-.9 1-.7.3 0-.2.9-1.4 2.3-1.7 2.1-2.4 2.7-2.4 2zm.2-2.3.6-.9c.6-.8.6-1.2.2-1.3-.6-.2 0-1 .6-1 .4 0 .8-.2 1-.4.4-.5.8-.5.8 0 0 .4-1 2-2 3.2-.6.6-1.2.8-1.2.4z"/>
</svg>
