<?xml version="1.0" encoding="utf-8"?>
<svg xmlns="http://www.w3.org/2000/svg" xmlns:svg="http://www.w3.org/2000/svg" version="1.1" viewBox="0 0 600 309">
  <title>The rats stare up at the floorboards above them, leaving the rolling-pin leaning on Tom Kitten.</title>
  <path d="M456 307.8c-.6-.3-1.8-.8-2.6-.9-.8-.1-2.3-.6-3.4-1.2-1.1-.5-2.3-1-2.7-1-1.4 0-5.2-2.5-5.2-3.4 0-.3.3-.6.7-.7.4-.1 1-.5 1.3-.8.3-.3 1-.8 1.7-1.1l1.6-1c.6-.6 1.3-.7 2.7-.6l3.1-.3c2.1-.3 2.5-.4 3.4-1.3.8-.7 1-1 .7-1.1a123.8 123.8 0 0 0-19.6 1.1c-1.8.4-2.8.2-2.8-.5 0-1.1 3.4-1.6 12.4-1.6 3.2 0 7.9-.2 10.5-.5 4.2-.4 5-.5 5.3-1l1.1-.8c1-.5.8.3-.2 1.2-.4.3-.8.8-.8 1 0 .6-1.1 1.2-2.4 1.2-.9 0-1.3 0-1.3.3 0 .2-.3.6-.8.9-.8.5-1 1-.5 1.3.3.2-1.1 1.3-2.1 1.5l-2-.1c-1-.3-1.3-.3-1.7.1-.5.6-.3.7 1.5 1.2 2.2.5 4.6 1.3 5.7 2 .7.5 1.3.7 2.3.7 1.2 0 1.3 0 1.5-.8.2-1 0-1.3-.6-.8-.5.5-3-.3-3.2-1-.3-1.2 1.1-1.9 2.9-1.2.9.3 1.3.3 2 0 .8-.2 1.3-.2 2 0 1.2.5 2.3.4 2.3 0 0-.6-1.4-2-2-2-.5 0-2-1.3-2-1.7l.5-1 .4-.5 1.8 1.1c1 .7 2.4 1.4 3 1.5l1.6.6c.3.2.5.2.8 0 .5-.5.5-.9-.3-1.6-.3-.3-.7-1-.8-1.4 0-.4-.3-.7-.4-.7a11 11 0 0 1-3.9-1.8c-1.4-1.3-1.5-1.6-.3-2.9 1.4-1.5 1.5-2 .7-3.8-.6-1.3-.6-1.4-.3-2.4.3-.9.3-1.4 0-3l-.3-2-1-.4c-.8-.2-5.3-.3-14.9-.3h-13.7l-.6-.5c-.6-.6-.6-.7-.2-1.4.7-1.3 2.6-2.2 8.3-3.6l2.7-.8c1-.3 4.1-.6 8.3-.8 2.4-.2 3-.3 3.5-.7.5-.5.9-.5 3-.5 2.7.1 3 0 2.7-1.3-.3-.9-.6-8.1-.7-13.7V250l-1-.4a10 10 0 0 0-3.7-.2 81 81 0 0 1-21.5-.6l-6-1.8-3.7-1.2-1.5 1.4c-1.6 1.4-3.5 4-3.5 4.8 0 .3.3 1.5.8 2.7l1 3.4c0 .6.3 1.4.4 1.8l.7 2.5.7 2.9a31 31 0 0 1-.4 17l-.7 1.4-.4.6c0 .5-1.6 2.9-2 2.9-.2 0-.4 0-.4.2s1.6.3 5.1.2c14.2-.5 20-.5 20.5-.2.4.3.3.4 0 .6-1 .5-17.4 1-22.1.7-1.3 0-4 .4-4 .8l.4.5c.7.6 2.3.8 6.2.7l23.5-.8c2.8-.2 3.2-.1 3.2.2 0 .8-2.1 1-10.7 1.1a47 47 0 0 0-8 .6c-1.3.2-3.2.4-6.8.4-5.7 0-6.8-.2-7.6-1.5-.8-1.4-1-1.5-2.7-1.4-2.4 0-6.6-.3-7-.6-.6-.6.3-.7 3.4-.7 2.7 0 3-.1 2.9-.5-.1-.4-.4-.5-2.2-.4-1.8 0-2.1 0-2.7-.5-.5-.5-.7-.5-4.4-.3a57 57 0 0 1-5.8.1 27.9 27.9 0 0 0-10 .9l-3-.2c-2-.1-3.3-.3-3.8-.6-.5-.2-1.2-.3-1.8-.2-.6 0-2 0-3.1-.3a9.6 9.6 0 0 0-3-.3c-.7.1-1.3 0-3-1a17.8 17.8 0 0 1-5-3.4c-1.4-1.4-2-1.5-6.2-1.7-2.8-.1-3.8-.5-3-1a29 29 0 0 1 7.3 0c.4 0 .8-.1 1.4-.8.6-.5 1-1 1-1.3 0-.5-1.2-.6-16-.4a53 53 0 0 0-4.6.3c-1.3.2-1.6.1-2-.3-.5-.4-.5-.4 0-.8.5-.3 1-.4 6.8-.3 2.5 0 3.8.1 3.9.3a196.6 196.6 0 0 1 20.2-.4c5.5 0 5.2 0 5.2.8v.8l2.5.2c1.4 0 2.7.3 3 .4.1.2.4.2.8 0 .6-.3 1.6-.4 1.6 0 0 .7-2.2 1.3-5 1.4-2.6 0-3.2-.3-3.2-1.5 0-.5-.1-.7-.6-.7-.3 0-.6.2-.6.5-.2.8-2.3 1.4-5 1.5-3.8.2-4.6.3-4.6 1s.7 1 1.7.6c.8-.2 1.1-.2 2.6.7l1.8.9.5-.7c.3-.3.5-.7.5-1 0-.6 1-.7 1.8-.1a5 5 0 0 0 1.6.7c.5.1 1.4.7 2 1.3 1.1 1 1.3 1 1.9.7l1.1-.3c1.2 0 .7 2-.5 2.3-.4.1-.8.3-.8.6s.2.3.6.2l1.1-.2c.3 0 1-.2 1.5-.5 1.2-.7 1.6-.7 2.7 0 .8.5 1.1.5 2.2.3 1.8-.4 3.6-1.1 3.6-1.4l-.4-.7c-.4-.3-.5-.3-1 0-.4.5-.4.5-.8 0-.3-.4-.5-1-.5-1.2a2 2 0 0 0-.4-1c-.2-.3-.3-.7-.2-1 .2-.5 1.1-.3 2.2.5 1.5 1.2 2.3 1.3 3.5.7.6-.2 1-.6 1-.7 0-.2.7-.2 1.7-.2l5.7.4c5 .4 6.5.6 6.9 1l.5 1.6c.2 1.5.6 1.7 2.3 1 .7-.2 1.5-.8 2.2-1.6 1-1.3 1-1.3.6-2-.5-.6-.6-.6-6-.8a99.4 99.4 0 0 1-11.6-.8c-1.1.3-1.3.2-1.6-.2-.2-.3-.6-.5-1.2-.5-1 0-2.5-.8-3.5-2a5.4 5.4 0 0 0-3.2-1.4c-.5 0-.6.6-.2.9.2 0 .2.3.1.4-.2.4-.8.3-1-.3l.1-.5c.2 0 .3-.2.3-.5s.6-1 1.3-1.6a8 8 0 0 0 2-2.3c.4-1.1.4-1.2-.1-3-1-3.9-2.4-8.4-3.9-12.3-.4-1-.8-2.6-1-3.6a36 36 0 0 0-1-3.3c-.2-.9-.5-2.2-.5-2.9 0-1.2.2-1.5 1.7-2.7.3-.3.4-.9.4-2.7 0-3 .8-13.7 1.1-15.8.4-2 .2-2.7-1-3.1-.4-.2-1.4-1-2-1.8a18.8 18.8 0 0 0-4.7-3.5c-.4-.1-3.7-2.4-4.9-3.5-.7-.5-.8-.7-.8-2.2l.1-10.1a104 104 0 0 1 2-21.4l1-4c.3-1.3.6-2.7.8-3l.2-1.7c0-.7 0-.9-.3-.6-.2.2-.5.7-.6 1.1-.3 1.6-3.2 5.1-4.6 5.6-2.4.7-6.5 3.3-8.2 5.1-.9 1-1.2 1.2-2 1.1-1 0-1.9-1.2-2.1-2.8-.4-2-1.3-1.2-2.2 1.6-.4 1.6-1 2.3-1.5 2.3-.7 0-1.5-.8-2-2.3-.3-.8-.7-1.7-1-2-.2-.3-.3-.8-.3-1.1 0-.6-.8-1.4-1.3-1.4-.2 0-.6-.3-.9-.6-.9-.9-.7-2.4.7-5.1 2-4 2.5-4.5 5-5.7 2.4-1.2 5-3 5.5-3.8.2-.3.1-.6-.2-1.1-.4-.6-.4-.8-.2-1.4.2-.3.3-1 .3-1.4 0-1 .6-2.2 1.6-3.3a9 9 0 0 0 1.1-1.9c.2-.5 1.2-1.7 2.1-2.6 1-1 2-2.2 2.4-3.2a44.1 44.1 0 0 1 3.6-6.3 62 62 0 0 1 7.3-10.3 42 42 0 0 1 10.6-10c.2 0 .8-.4 1.4-1a44.7 44.7 0 0 1 7.2-5.4c1.5-1.4 6-3.6 7.6-3.8 1.2-.2 1.5-.3 4.4-3 4-3.7 3.9-3.6 3.2-4.3a5 5 0 0 1-.8-1.5c-.2-.6-1.2-2.2-2.2-3.7a50.3 50.3 0 0 1-4.3-7.1c-.5-.7-1.2-2-1.6-3.1l-1.7-4.4c-1.3-3-1.3-3.5-1.5-9.8-.1-4.2-.2-5-.6-6a17 17 0 0 1-2-4.8c0-1.3-1.6-3.9-4.8-7.3-1.2-1.3-1.3-1.5-1-2.2.3-1 2.5-2.1 4.2-2.1 1.4 0 1.4 0 1-.6-.3-.8-2-3-3.2-4.2-.8-.8-.8-.9-1.7-.6-1.2.4-1.7.2-2.8-1.5a43.6 43.6 0 0 1-6.6-11.3c-.3-.7-.5-2-.7-4.2 0-1.8-.2-3.7-.3-4.3-.2-1.3.2-2.3 1.3-2.8.4-.1.7-.4.7-.6 0-.2.2-.5.5-.8.8-.8 5.3-.1 6.7 1l2.4 1.7 3.3 2.1 1.6 1.1 1.3-.4c1.4-.5 2.5-.3 5 .7l3.6 1.3c1.2.3 2.7.9 3.3 1.2 1 .5 1.2.5 2 .2 1-.3 1.3-.2 3 .4L431 30a18 18 0 0 0 4.2 1.6c.5 0 1.1.4 1.5.6l2.8 1.9c1.2.7 3.3 2.2 4.6 3.2 1.3 1 3 2 3.8 2.4 2 .7 4.3 2.1 6.2 3.7l2.5 2c1.2 1 3.7 4 4.8 5.9a37 37 0 0 1 6 8c1.3 1.7 2.1 2 4.9 1.5 1-.1 3.1-.6 4.5-1l3.6-.6c1.5 0 3.6.7 5 1.6l2 1.3c3.7 2.2 4.7 3.4 5.4 6.7.4 2 .3 3.2-.9 6a7 7 0 0 1-2.1 3.2c-1 .9-1.5 1.6-1.8 2.5a9 9 0 0 1-3.3 4c-.8.6-.9.7-.5 1.2a292.4 292.4 0 0 1 8.6 15.7c.5 1.3.8 1.7 1.5 2 .5.3 1.4 1 1.9 1.7a80.3 80.3 0 0 1 7.2 11c.9 1.8 3 5.7 3.4 6.1.5.6 1.8 2.9 2.5 4.4l1.3 2.2a46.6 46.6 0 0 1 7 17.5l1.1 3.7a71.4 71.4 0 0 1 4 14.7c0 .8.3 1.7.5 2.1.3.4.6 1.2.7 1.8l.7 2.8.3 2.5c-.3 1.1.4 2.4 1.6 3.3 1.3 1 5.3 5 9.3 9.4a61 61 0 0 1 10.7 16l1.2 2v2.5c0 1.4.2 3.8.4 5.3.3 1.6.4 3.4.3 4.2-.1 1.3 0 1.5.6 2.1l3.5 2.5a54.4 54.4 0 0 1 6.7 4.7c3.4 2.2 5.2 4 5.2 5.2 0 .2 1 1.6 2.3 3a31.5 31.5 0 0 1 4.2 5.9c.4.6 1.3 2 1.8 3.2 1 1.9 1.5 2.5 1.5 1.7l.4.7c1.1 3.3 1.3 9 .4 10.7-.6.9-.6 1-.1 1.9.3.8.4 1.1.1 2-.2.7-.3 1.7-.3 2.3 0 .6-.2 1.5-.4 1.9-.2.4-.4 1-.4 1.4 0 .7-.6 2-1.5 3.2l-.6 1c0 .4-4.5 4.7-5.8 5.5-3 2-8.3 3.2-16.7 4-7.7.6-27.4-.2-32.8-1.5-2.7-.6-6.3-1-12.8-1.2l-4.9-.1-.2.6c-.2.9-.2 3 0 4.7.2 1 .1 2-.2 3-.2.7-.5 2.8-.6 4.5-.4 3.6-.7 4.5-2.8 6.8-1.5 1.6-1.5 1.7-3.3 1.9-1 0-2.3.3-3 .5-1.6.4-3.2 0-3.8-1-.5-.7-1-.8-1.4-.2-.2.4-4.5 3.3-5.9 4-.5.2-1.5 1-2.2 1.7a8.7 8.7 0 0 1-5 2.7l-4.3 1.4c-1.1.4-2.5.8-3.4.8l-3.5.2c-1.6.2-2 .1-3-.5zm.6-3.4c0-.6-1.8-1.4-4.7-2.1-3.5-.8-4.3-1.2-4.3-1.7 0-.3-.2-.6-.5-.8-.5-.3-.6-.2-1 .5l-.6 1c0 .5 1.5 1.2 3 1.6l4.1 1c3.2 1 4 1 4 .5zm9.3-2.1c0-.3-.2-.4-.3-.4-.1 0-.3.1-.3.4 0 .2.2.4.3.4.1 0 .3-.2.3-.4zm26.7-8.9c.3-.3.5-.8.5-1 0-.4.2-.6.7-.6.3 0 .9-.2 1.2-.5.6-.5.6-.5.7-7 .1-6.2 0-6.6-.4-7.4-.7-1-.7-2-.2-3 .3-.6.3-1.1 0-4-.7-5.6-1-7.5-1.6-10-.2-.7-.2-.7-.5-.2a1 1 0 0 1-.8.6c-.9 0-1-1-1-5.5.2-6.2.1-7.6-.5-7.6-.4 0-.7 1-.7 3l-.3 2.2c-.2.6-.3 2-.4 3.3 0 2.2-.5 6.9-.8 8.2-.2.8-1.1 1-1.5.4-.2-.5.2-8 .8-12.6 1-7.4 1-9.2.7-10.5l-.8-4.1c-.4-2.7-.4-3.7 0-8.7.2-2-.2-4-1.6-8l-.7-2.3a319.9 319.9 0 0 1-2-4.6c-.2-.8-.9-1.7-1.2-2a224.1 224.1 0 0 1-8.7-6.5c-1-.4-3.6-3.1-4.1-4l-1-2.3c-.2-.8-.6-1.6-.8-1.9a18 18 0 0 1-2.7-5.8l-.2-6.9c0-5.4-.2-7.1-.7-7.1a3 3 0 0 0-1 .5 4 4 0 0 1-1.7.6c-1.3.1-1.6.5-2.4 3.3-.5 1.4-1 2.5-1.6 3.3-1.3 1.4-1.6 2-1.4 2.6 0 .3 0 .8-.3 1-.6 1-.7 4.5-.2 7.4.4 2.1.4 2.5.1 2.7-.8.6-1.6.3-3.1-1.3l-1.8-1.6c-.1 0-.7.9-1.2 2a16 16 0 0 1-1.7 2.6c-1.3 1.4-2.5.4-2.5-2 0-1.2 0-1.4-.9-2.2a6.4 6.4 0 0 1-1.3-2l-.7-1c-.7 0-2 1.4-2.7 2.7-.9 1.8-1 2-2 2-1.4 0-1.7-.6-1.6-3.3 0-1.3 0-3.1-.2-4l-.2-1.8h-1a7 7 0 0 0-2 .6c-2.9 1.4-3.6 1.4-4.2 0-.1-.6 0-1.2.6-3 1-2.9 1.9-4 4.3-5.7l2-1.4.6-2.1a30 30 0 0 1 3.1-7.3c.5-.8 1-2 1.2-2.8.2-.7 1-2.7 1.9-4.3 1.4-2.7 1.5-3 1.5-4.7 0-1.5.1-1.8.8-2.6l1.4-2 1.1-1.9c.4-.3 1.1-1.5 1.8-2.6 1.9-3.3 4.2-6.6 5.7-8.2l1.4-1.5-.1-4c0-2.1-.3-5.2-.4-6.7-.7-7.4 0-12.6 2.3-17.8.4-1 1.2-2.2 1.7-2.7 1-1 3.5-5.8 3.3-6.2 0-.2-.7 0-3.5 1.6-1.2.6-1.7.7-5.3.9-4 .2-4 .2-4.7 1-.6.6-1.3.9-2 .8l-3-.5c-2.5-.3-3.3-.4-5.2-.1-3.2.4-3.8.7-6 2.2-2.4 1.6-3.8 3.3-3.8 4.4l-.4 1.8c-.5 1.6.1 4.5 1.2 5.2.6.3 2.5-1 5.2-3.4 2.5-2.4 6.4-5.2 7-5.2.4 0 1.4-.2 2.3-.5 2-.7 3-.6 3.2.2.1 1-.4 1.3-2.2 1.4-1.3.1-2 .4-3.2 1.1a38.3 38.3 0 0 0-8.7 7.5c-7.4 7.5-8 8.2-8.8 9.8-.4.9-1 1.9-1.4 2.3-.9 1-2 2.5-3 4.7l-1.3 2a82 82 0 0 0-5.7 13c-1.5 4.2-1.5 4-1 4.6 1 1.6.3 4-1 3.4-.3-.2-.5-.6-.5-1 0-.3-.2-1-.5-1.3-.6-.8-.7-1.9-.1-2.6l3.2-8.3a52.3 52.3 0 0 1 3.5-8.2l1.7-3.5a25 25 0 0 0 1.9-4.4c0-.6.7-2 1.4-3 .7-1.1 1.6-3 2-4.3l1-3.5c.7-1.8 1.1-4.3.9-4.6-.2-.2-3.6 3.4-5.3 5.6-1 1.2-2.6 3-5.9 5.8a37 37 0 0 0-4.3 4.8c-.6 1-1.7 2.2-2.3 2.8-.7.7-1.5 1.7-1.9 2.4-.3.7-1 1.6-1.3 2a55 55 0 0 0-4 5.5l-2.7 4c-1.7 2.1-3.6 6.6-3.3 7.8.1.5 0 .8-.5 1.3-.5.6-.7 1-.7 2s-.2 1.8-.6 2.6c-.5 1-.6 1.4-.6 6.6 0 5 0 5.5-.5 6-.6.7-.4 2.1.6 4.4.6 1.2 1 1.7 1.5 1.8.4.1.9.5 1.1 1 .2.4.9 1.3 1.5 1.8.5.6 1 1.3 1 1.6 0 .7 2 3 3.3 4 2.3 1.4 5.9 3.1 7.6 3.6 2.8.7 4 1.9 2.5 2.5-.9.4-3.6-.3-6.3-1.5-2.3-1.2-2.1-1-4.2-2.5a15.7 15.7 0 0 1-4.9-4.8c-.6-.9-1.7-2.3-2.5-3.1-1.3-1.4-2-2.5-3-5.1-.3-.6-.5-1-.7-.9-.5.3-1.4 2.5-1.6 4-.7 4-.7 3.8.8 12.2a61.6 61.6 0 0 0 7.5 21.2c.2 0 .8.8 1.5 1.5l1.1 1.2v-1.1c-.2-1-.1-1.2.4-1.2.6-.1 2.1 1.7 4.6 5.3 1.8 2.7 3.1 4.4 4.9 6.2l2.9 3c.8 1 2.1 2.2 2.9 2.7l3 2.3c2.9 2.6 3.9 3.4 4.8 3.8.5.3 1.5 1 2.2 1.8 1.7 1.5 2.1 1.7 4 2 1.7 0 3.3.6 3.8 1 .2.2.7.5 1 .5l1.6.5c.8.3 1.6.4 5 1 1.7.2 2.2.4 2.9 1 .8.8.9.9 2.3.7l6-.3a39.7 39.7 0 0 0 8-.9c4.5-.8 5.5-2 6-6.9.3-3.5 1.4-8.3 2.3-10.3 1.5-3 2.6-4 4.9-4 .7 0 1.4-.1 1.5-.3.2-.2.5-1 .7-2l.8-2.5c.2-.5.5-2 .6-3.2.2-2.7.4-3.2 1.2-3.4.8-.2 1.5.5 1.7 1.9.2 1.3-.6 4-1.7 6.5l-.7 1.9c-.3 1.4-1.6 4-2.2 4.3-.8.4-1 .4-1.4-.4-.4-.8-1.2-.8-2.1 0-1.1.9-2.5 4.7-3.3 9.3-.5 3.1-.5 4.1 0 17.4l.2 6.5c0 3 .4 6 1.4 10.2l.7 4.1c.3 3.6.4 3.7 1.7 3.2.5-.3.7-.2 1.8.9a7 7 0 0 0 1.8 1.4c.7.2 1.5 1.1 1.5 1.7 0 .3-.2.5-.5.6-.4.2-1-.3-2.8-1.7-1.3-1.1-2.4-2-2.4-2.2-.2-.4-.5-.2-.8.5-.4 1-.4 1.2.2 1.2.6 0 1 .4 1.2 1.4 0 .4.5.9 1.4 1.4l1.9 1a9 9 0 0 0 3.1.6c2.3 0 6.7.7 7.4 1.1.7.4 2.5 2 2.5 2.2l.5 1c.3.4.5 1 .5 1.4 0 .6 0 .6-.7.5-.9-.1-2.5-.9-2.5-1.2 0 0-.2-.2-.6-.2-1 0-1.4-.6-1-1.5.3-.6.4-.6 1-.2.7.5 1.2.3.7-.2-.2-.2-1.2-.5-2.2-.6l-2.5-.5c-1-.3-.8.3.3.8 1.6.8 2 2.2.6 2.2-.6 0-.9.5-.3.7l2.1.4c.9.1 2 .4 2.4.6l1.7.6c.7.1 1.2.5 1.8 1.2.7.8 1 1 1.7 1 .6 0 1.2-.2 1.5-.5zm-72.8-64.8c-2-2.2-4.2-5.5-6.2-9.6-2-4-2.2-5-1.3-5.2.5 0 .8.2 1.3 1 .4.5.7 1 .7 1.2l1 2 2 3.6c1 1.8 2.8 4.2 4.6 6.3.5.5.8 1.2.8 1.6 0 .6 0 .7-.7.7-.6 0-1.1-.4-2.2-1.6zm35.9-22.5c-2.5-.5-3-.7-5.5-1.8-1.5-.7-2.1-1.4-1.7-2.2.3-.4 1.7-.3 3.4.4a31 31 0 0 0 11.4 2c2.6 0 2.8 0 3.1.6.3.5.2.6-.3 1-.5.5-1 .5-4.3.5-2.5 0-4.5-.2-6.1-.5zm-43.8-21.4c-1.1-1.3-1.4-2.6-1.8-7.6-.4-5.4-.3-6.5.7-6.5.3 0 .6.2.7.4.1.1.4 2.2.6 4.5.3 5 .6 6.3 1.4 7.6l.5 1-.5.5c-.7.7-1.1.7-1.6.1zm21.2-18c-1.3-.3-3.4-1.2-3.6-1.6-.1-.2-.1-.5 0-.8.2-.7 1.2-.7 2.8-.1.6.2 2 .4 2.9.4 1 0 1.7.2 1.6.3v.6c0 .2-.5.6-1.2 1-1.2.5-1.2.5-2.5.2zm-2-13.7c-2.9-.7-4.6-2-4.3-3.2.1-.7 1.2-.7 2.3 0 2 1.3 3 1.5 7.8 1.7 5.2.2 6.4.6 4.4 1.6-.8.5-8.5.4-10.3 0zm48 138c0-.1-.1-.2-.3-.2-.2 0-.7-.4-1.2-.7-.8-.7-.9-.8-.5-1.3.2-.3.7-.7 1.2-.8l1-.3-1-.5c-.5-.3-1.6-.6-2.5-.7l-2.7-.4-1-.2.6.7c.7.8.7 1.2 0 1.4-.4.1-.7 0-1-.5-.6-.8-1-.7-1 0s2.1 2 4.2 2.6l2.5.8c1 .4 1.7.5 1.7.1zm-53-13.4c.8-.6 1.1-2.5.6-3.1-.3-.4-2.1-.6-2.1-.2 0 .4-1.7.8-3 .8a7 7 0 0 0-1.8.4c-.7.2-1.6.3-3 .2-3.1-.3-4.5-1.2-3.7-2.3.3-.4.4-.4 1.6 0 2.6.8 8 .4 8.8-.8.2-.2.8-.4 1.5-.4 1 0 1.2 0 1.2-.4.1-1.3-.2-3-1-6.7a792 792 0 0 1-1.6-6.4c-.7-2.7-1.3-4.4-1.8-5a13 13 0 0 1-.9-3c-.3-1.5-.7-3-.9-3.3-.2-.3-1-1-2-1.5a43.8 43.8 0 0 1-5-3l-1.3-.9-1.9-1.3c-1-.5-1.1-1.7-.3-2 .6-.1 2.1.6 3.3 1.6l2.5 1.8 3.4 2.4c1 .7 2 1.3 2.2 1.3.4 0 3.2-2.8 3.2-3.2 0-.1-.6-.6-1.3-1a36.7 36.7 0 0 1-5.6-4.3l-3.3-3c-2.6-2.1-7.5-6.8-8.5-8.2a9.3 9.3 0 0 0-3.9-2.8l-1.3-.7c-.4-.5-1.1-.5-1.5 0-.5.6-.8 3-1.1 7.7l-.4 7.2c-.2 2-.1 2.5.3 3.2.6 1.3.3 2.4-1 3.5-.8.8-1 1.2-1 1.8 0 .9 1 4.8 1.7 6.8.3.8.4 1 .5.5.1-.3.5-.7.8-.9.6-.2.7-.2 1.4.6.3.4.9 1.2 1.1 1.8.9 1.6 3.6 5.5 5.6 8 1.3 1.7 2.6 4.2 2.6 5 0 .6 0 .7-.6.7a1 1 0 0 1-1-.5l-1-1.7a193.5 193.5 0 0 1-8.8-12.3c-.4 0 .3 2.8 1.5 6.7.8 2.4 1.8 6.2 2.7 9.7.4 2 .6 3.2.5 4.1l-.2 1.4h1.4l3.2.4c1 .3 2.7.6 4 .7l2.5.3c.1.1 2.5.3 5.4.3l5.2.3c.3.3 1.6.1 2.2-.3zm-20.9-.4c-.1-.5-.7-.6-.7 0 0 .1.2.3.4.3s.4-.1.3-.3zm146.8-.8c3.9.1 8.4-.6 11-1.8a28.3 28.3 0 0 0 9-9c.5-.8 1-2.2 1-3.3l.3-1.6c.3-.5.3-.8-.1-1.6-.6-1.2-.6-2.5 0-3.3 1.2-1.4 1.1-7.2 0-8.3a7.6 7.6 0 0 1-1.5-2.6c0-.4-2-4.5-3-5.9a48 48 0 0 0-13.5-13c-.1-.4-.3-.6-.5-.6l-.8-.6c-.3-.3-1.1-.8-1.8-1.1l-2-1.1c-1.6-1-2-.8-2.4 1.2-.1 1-.4 2-.6 2.4-.5 1.4 0 2.4 2.8 5 1.8 1.7 3.3 2.8 5 3.8a12 12 0 0 1 3.3 2.3c.6.9 1.7 2 3.6 3.7 1 1 2.3 3.2 3.2 5.4.9 2 1.6 9.3 1.1 11.4a18 18 0 0 1-3.2 7.8c-3 4.4-6.4 6-13.9 6.2l-8.4.4c-8.2.5-10.7.5-13.3.3l-14.9-.4-13.3-.2c-.9 0-1.1 0-1.2.5 0 .5.1.5 4.3.6 3 0 5 .2 6.8.5 5.3 1.1 5.7 1.2 14.8 2a399.3 399.3 0 0 0 28.2 1zm-177.4-.2c0-.1-.2-.3-.4-.3s-.4.2-.4.3c0 .2.2.3.4.3s.4-.1.4-.3zm3 0c.1-.1 0-.3-.3-.4-.6-.2-1.4 0-1.4.4 0 .3 1.5.3 1.7 0zm73.1-2.2 1.3-.2c.7 0 1.4 0 1.7-.2.3-.2 3.1-.3 6.4-.4 3.3 0 6-.2 6.3-.3.3-.2.4-1.3 0-2-.2-.3-.7-.6-1.3-.8-1.2-.3-3.6-.3-3.9 0 0 .2-.5.3-1 .3s-1-.1-1-.3c-.4-.4-1.5-.3-1.9.2-.1.3-.8.6-1.4.7l-3 .4a12 12 0 0 0-3 .7c-.5.3-1.9.5-3.3.6-1.5.2-2.6.4-3 .7l-1.2.5c-.3 0 0 0 .4.2 1 .2 7.7 0 8-.1zm8.2-.1c0-.2-.1-.3-.4-.3-.6 0-.7.2-.4.6.3.2.7 0 .8-.3zm5 0c.2-.4-.8-.5-1-.1-.2.3.3.6.7.4l.4-.3zm77-3.8 7.8-.5c3.2-.2 6.5-.8 8-1.4a27.2 27.2 0 0 0 5.8-6.3c1-1.3 1-1.4.8-2.5-.2-.6-.3-2-.3-3 0-2.2-.2-3-1.5-5.7-.5-1-1-2.2-1-2.5a36 36 0 0 0-4.2-6.3 22.6 22.6 0 0 0-7-4l-6.5-1.8c-.7-.2-1.1.2-2.2 2.2l-1.6 2.5-1.4 1.9c-.7 1-1 1.3-2 1.5l-2.7.8-6 2a77 77 0 0 1-22.8 4.5c-2.3.2-4.2.5-4.5.7a34 34 0 0 0-3.5 8.3c-.2 1 1 8.6 1.3 9a7 7 0 0 0 2.4.2l22.6.5c.3.2 14.8.1 18.5-.1zm-46.2-13.9c2-2.6 2.3-4.2 1.1-5.1l-1.3-1.1c-.4-.3-.8-.5-1-.4-.4 0-.7 5.6-.5 7.8.2 1.5.2 1.6.4 1 .1-.4.7-1.4 1.3-2.2zm15.6-8a42.5 42.5 0 0 0 10.3-2 14 14 0 0 1 4.2-1.2 24 24 0 0 0 5.8-1.7c4.1-1.8 5-2.4 5.8-4.6.3-1 .9-2.1 1.2-2.6.9-1.4 1-1.5 2.3-4.3l1.6-3 1-1.6c.3-.8.8-1.5.9-1.5.5 0 1.3-1.1 1.3-1.8 0-.4.3-1.2.6-1.8 1.2-2 1.2-6.9 0-14l-.3-2c0-.4-.2-1-.5-1.5l-.7-1.4a6 6 0 0 0-.8-1.5c-.4-.4-.8-1.2-1-1.7-.3-.5-1-1.8-1.8-2.8l-2-3.1c-.4-.8-1.1-1.8-1.6-2.4l-4-5a10 10 0 0 0-3.2-2.8c-1.1-.6-3.2-2.8-3.2-3.3 0-.2-.2-.6-.5-.8-.3-.3-.6-.6-.6-.8l-.5-.8c-.4-.4-.6-1.1-.7-2.1 0-.8-.3-1.5-.4-1.5-.1 0-.2-.6-.2-1.4 0-.8-.1-1.5-.3-1.6l-.4-2c0-1-.4-2.3-.6-3a100.6 100.6 0 0 1-3-10.5c0-1.2-.3-1.7-.7-2.1-.4-.4-.6-.9-.6-1.8 0-.6-.3-2-.7-3l-4.3-12.1c-.5-1.6-2.2-4.7-5.4-10a201.6 201.6 0 0 1-5-8.5c-.4-.4-1-1.5-1.5-2.5s-1.3-2.2-1.8-2.9c-1-1.2-1.1-1.4-2.5-3.6-.7-1.4-1.4-2-1.7-1.6-.2.2.4 4.3.8 5.8l.7 3.5c.3 1.9.3 2.4 0 2.6-.5.2-1-.2-1-.9l-1-3.2c-.5-1.5-1-3.6-1.2-4.8-.3-2.3-1.2-5.9-2.2-8.6l-.7-2.3c0-.7-1.7-4-3.3-6.2-1-1.4-1.6-2-2.2-2.2-.7-.3-1-.6-1.6-1.7-.4-.8-1-1.6-1.4-1.9-.8-.4-.8-.4-2.6.6-1 .5-2.3 1-3 1.1-.7.2-1.4.5-2.1 1.2a21.7 21.7 0 0 0-3.8 5c-.3.5-.9 1.3-1.3 1.6-.4.4-1 1.1-1.2 1.7-.3.5-.8 1.1-1.2 1.4-.9.6-1.8 2.7-1.2 2.7.5 0 2.1-1.8 2.8-3.1.6-1.2 3.8-3.7 4.7-3.7 1.2 0 1 .6-.5 2a23 23 0 0 0-5 5 54.8 54.8 0 0 0-7 11.8c-.2.3-.6 1-.8 1.7-.3 1.2-.5 8.7-.2 9 .3.3 1.2-.8 2.3-2.8 1.2-2.1 3.7-5.1 5-5.9 2-1.2 3.2-2.5 3.5-4a4 4 0 0 1 .7-1.5l.4-.6 1-2a217.2 217.2 0 0 0 3.6-6.4l1-2.3c.8-1.6 1.6-1.9 1.7-.6.1.7-2.2 5.7-3.7 8.2-3.2 5.2-3.7 6.3-2.5 6 2.7-.9 3.7-1 5.3-1 3.2 0 6.3 1.8 6.8 4.2.4 1.7.3 3.2-.2 3.5-.7.3-1.1 0-1.4-1.4-.4-2.3-2.4-4-4.9-4.3-3.1-.3-8.5 2-12 5.4a6 6 0 0 0-1.8 2.1c0 .5-.3 1-.6 1.4-.2.4-.7 1.4-1 2.4l-1.1 2.5a15 15 0 0 0-1.4 4c0 .4 1 .5 1.2 0 .4-.5 3-2 4.4-2.5 1.6-.5 2.8-.3 3 .3.3.8-.3 1.2-1.3 1-.6 0-1.3 0-2 .4-1.2.5-3.8 2.2-4.1 2.8-.1.2-.6.5-1 .7-.5.2-.9.6-1 1 0 .4.1.4 1.5.2l4.9-.3c1.8 0 4-.3 5-.5 1.8-.3 3-.1 3.3.7.1.3.1.7 0 .8-.6.6-4.3 1-8.6 1a27.5 27.5 0 0 0-6.9.6c-.8 0-1 0-1.6 1.2-.4.7-1 1.4-1.4 1.6-.4.2-.7.7-1 1.4 0 .6-.3 1-.4 1-.3 0-1.6 2.1-1.7 2.8 0 .5.1.6 2.3.7 2.1.1 2.4.2 3 .9.3.4.5.8.4 1-.1.4-1.2.8-3.2 1.1a14 14 0 0 0-7.3 4.6c-.3.5-.8 1.6-1 2.4l-1 2.1c-.8 1-2.4 4.5-2.4 5.2 0 1.3 1.5 1.3 5.2 0 3.3-1.1 7.1-1.5 7.4-.7.3.5-.2 1.2-1 1.3-.2 0-.5.3-.4.4.2.5 3.1 2 4.4 2.3 1.8.4 2 .5 3 1.7.6.7 1.2 1.2 1.4 1.2.1 0 1.3-1 2.5-2.2a15 15 0 0 1 2.4-2.3 56.7 56.7 0 0 1 5.1-3.7c2-1.3 4.4-3.7 4.4-4.4 0-.3.7-1 2-2.2a56.6 56.6 0 0 0 8.9-9.6c2-2.5 4.3-10 3.7-12.3-.1-.6-.3-1-.6-.9-1.8.5-2.1.1-1.3-2.2.9-2.3 1.3-2.8 2.2-2.8 1 0 1.2.7 1.4 4.7.2 3.1.1 3.6-.6 6.3-.6 2.7-2.8 7.6-5.2 12l-1 2.3c-.4 1.6-2.2 3.6-4.6 5.3a9.3 9.3 0 0 0-2.8 2.6c-.5.7-1 1.3-1.9 1.7-.7.3-1.7 1.1-2.3 2l-2.5 2.8c-4 4.4-4.1 4.6-4.1 6.3 0 1.7.8 5.3 1.6 7.2.7 1.7 1.3 4.9 1.3 6.8 0 1.6.3 2.7 1.7 5.7.4 1 .9 1.6 1.9 2.2a258.1 258.1 0 0 1 5 3.3 48 48 0 0 1 7.8 8 23.4 23.4 0 0 0 3.6 5.3 17 17 0 0 1 2.4 3.6l1.1 1.8c.6.5.8 1 .8 1.7l.4 2.1c.3.7.7 2.3 1 3.6.4 1.4 1 2.8 1.2 3.2.8 1 1 3.8.6 10.3-.3 5.3-.3 5.7.1 6.2.3.3.8.5 1.2.5.5 0 .8.2 1 .7.4.9 2 1.7 3.5 1.7l5.3-.4zm-3.7-10.6.4-1.5c.7-1.5.6-7.3 0-9.9-.5-2.1-2-7-2.6-8.3-.8-1.8-1.5-4.1-1.3-4.5.2-.7 1.3-.5 2 .4.2.4 1 2 1.5 3.5a34.2 34.2 0 0 1 2.1 19.4c-.5 1.3-.6 1.4-1.3 1.4-.6 0-.8-.1-.8-.5zm11-2.6c-.4-.3-.4-.7-.3-1.9.3-2.3-.3-11-.8-13.1a23.9 23.9 0 0 0-3-8.5c-1-1.4-1-2.1-.2-2.4 1.9-.6 4.1 4.2 5.4 11.4.5 3 .6 4.7.6 8.4 0 4.6-.2 6.1-1 6.4-.1 0-.5 0-.7-.3zm7.5-2.6c-.2-.3-.3-1.1-.1-3.2.3-5.8-.9-11.6-3.3-16.6-.8-1.6-1-2-.6-2.5 1-1.6 4 3.9 5.2 9.5.7 3.3.8 4.8.7 10.7 0 2.2-1 3.2-1.9 2.1zm7.4-7.8c-.6-.4-.6-1.3 0-2.2.5-.7.5-1 .4-2.2-.1-.7-.4-1.6-.7-2l-.5-1.7c0-.5-.1-1.2-.3-1.6a8 8 0 0 1-.6-1.7c0-.5-.4-1.4-.7-2-.7-1.5-.6-2.3.3-2.3 1.2 0 2.4 2.8 4 9.5.5 2.6.5 3 .3 4.3-.5 2-1.1 2.5-2.2 1.9zm8.1-8.6-.4-2.2c-.3-2.3-1.4-5.6-2.3-7a89.9 89.9 0 0 0-3.7-5.9c-1-1.5-1.3-2-1-2.3.6-.4 4.1 4.1 6.2 8.1 1.5 2.9 2.5 7 2.3 8.6-.2 1.1-.8 1.5-1 .7zm-45.5-8c-.4-1 1-2 8.2-6.3a37.7 37.7 0 0 0 15.3-15.2c.6-1 1-1.4 1.4-1.4.4 0 .5.1.5.8-.1 1.7-5 9-7.5 11.2-.7.6-1.5 1.6-1.7 2l-1.6 2.9c-.7 1-1.2 2-1.2 2.3 0 .6-1.2 1.8-1.7 1.8-1 0-.6-1.6.8-3.4l.6-1.2c-.1-.3-1 .1-3.2 1.5a161.7 161.7 0 0 1-8 4.8c-.6.6-1.7.8-1.9.3zm-10-5.8c-.3-.3-.2-.7.5-1.5.4-.4 1-.7 1.2-.7.3 0 1-.4 1.5-.8a14 14 0 0 1 2.4-1.5l3-2a44.2 44.2 0 0 0 7.8-8.3c1.4-1.6 2.3-2.8 2-3 0 0-.3 0-.5.2l-1.8 1-2.7 1.7a46.5 46.5 0 0 1-7 4.3 12.3 12.3 0 0 1-4.8 2.4c-.7 0-.9 0-.9-.6s.4-.8 1.8-1.6c2.3-1.2 2.7-1.5 2.5-2.3-.2-.6.3-2 .6-2a89.7 89.7 0 0 1 6.4-7 99 99 0 0 0 8.6-9.7c0-.8-1-.4-2.4.9-.8.7-1.6 1.3-1.8 1.3-.2 0-.6.4-1 .8A66 66 0 0 1 487 180c-.7.2-2 .9-3 1.4-2.1 1.3-2.7 1.4-2.8.4-.1-.7 0-1 1-1.6a52 52 0 0 0 11.3-8 61.4 61.4 0 0 0 7.8-8c.3-.9 1-1.3 1-.6 0 .3-.3.7-.6 1l-1 1.5c-1.4 2-2.4 3-5.8 6.4-2.7 2.7-3.5 3.6-3 3.6a58.9 58.9 0 0 0 11.1-6 40 40 0 0 0 3.1-3c3.3-3.4 4.6-4.2 5-3 .3 1-1.7 4.1-5 7.6l-1.6 2.1a66.7 66.7 0 0 1-5 6l-2.5 2.8c-1.6 2.1-2.3 3-3.5 4-1.2 1.1-1.6 2-1 2a11 11 0 0 0 3.4-2 83.3 83.3 0 0 0 8.4-5.4c.8-.4 5.2-4.2 6.3-5.3 1-1.2 1.7-1.4 1.7-.7s-.7 1.7-3.3 4.9c-2.6 3-4 4.8-4.8 6a70.8 70.8 0 0 1-10.3 11.2l-1.3 1.1 1.5-.2c2.3-.2 10-3 12-4.3a43.5 43.5 0 0 0 10.7-9c.3 0 .3 0 .1.1l-.4 1c-.3 1.3-1.5 2.8-3.8 5l-2.4 2.2c-.3.4-3.6 2.4-5.4 3.3a85.3 85.3 0 0 1-19.9 5.6zm38.5-18.5-.5-1c0-.5-.3-1-.4-1.1-.3-.4 0-1.3.4-1.5.8-.3 1 .2 1 2-.1 1.3-.2 1.7-.5 1.6zm-42-10.4c-.5-.2-.7-.5-.6-.7 0-.5.7-.9 2.7-1.6l2.1-1a9 9 0 0 1 1.8-1c.5 0 2.1-1 3.6-1.8l2.8-1.6a31 31 0 0 0 5.5-4.4c2.4-2.3 3.2-2.7 4-2.1.7.4.8 2 .2 3-.4.8-.9.8-1.4 0l-.4-.6-1.6 1.6c-.8.9-2.2 2-3 2.6l-3.1 2a21 21 0 0 1-3 1.6l-2 1c-1.5 1.1-6.3 3.3-6.9 3.2l-.8-.2zm-26.2-29.8.5-.4 1.6-1c.8-.4 1.7-.8 2-.8.3 0 .7-.3 1-.7.3-.5.6-.7 1.5-.7 1.4 0 2.1.5 2 1.3-.2.3-.9.6-3 1.2a90 90 0 0 1-4.5 1.3l-.9.2c-.5 0-.6 0-.2-.4zm3.6-3.2c-.2-.3-.2-.4.1-.4.2 0 .4.2.4.4 0 .5 0 .5-.5 0zM447.8 196c.3-.4 1-2.7 1.4-4.8.3-1.7.6-2.3 1.3-2.3 1 0 1.1.4.8 1.6-.3 1.1-.3 1.3.4 2.3.9 1.5 1.3 1.2 1.4-1 0-1 0-1.6-.5-2.2-.6-.9-.5-1.3.8-3 2.5-3.2 3.7-5.7 3.7-7.5 0-1.2-1.3-3.4-3.4-5.5a10.7 10.7 0 0 1-2.3-2.7c0-.4-.5-1-1-1.3-.4-.3-.9-1-1.1-1.5-.3-.8-.5-.9-1.1-.7a35.3 35.3 0 0 0-6.6 2.4c-.7 0-3.2 4.3-3.2 5.5 0 .4-.2 1-.4 1.4-.2.4-.5 1.8-.6 3-.2 2.6-.4 3-1.9 2.7-1.3-.2-2.6.7-3.6 2.6-1 2-.8 2.3 1.6 1.6 1.5-.4 2-.7 3-1.7l2.1-1.7c1.6-.8 2.5.2 1.6 1.8-.3.6-.5 1.3-.5 1.8s-.3 1-1 1.7a6 6 0 0 0-1 1.4c-.2.7.5 2.5 1 2.6.2 0 1-.4 1.6-1 .7-.5 1.4-1 1.6-1 .2 0 .9-.4 1.5-1 .8-.7 1.2-.8 1.6-.6.7.4.7.8.3 1.8-.5 1.4-.4 2.6.3 3 .4.3.9 1 1.1 1.5.5 1.2.7 1.3 1.1.8zm-81.2-18.8c1.3-1.8 2.1-2.3 3.5-2.3.6 0 1.8-.2 2.6-.5 1.8-.5 3-.3 3 .4 0 .6-.5 1-1.5 1.5-.3.2-.6.5-.6.8-.2.7.8.5 2.2-.6 1.3-1 4.5-2.7 5-2.7s3-2.6 3-3c0-.2-.4-.6-.9-1s-1-1-1.1-1.5l-1.1-2.1a6.4 6.4 0 0 0-2.8-2.5c-1.5-.7-2.1-1-2.6-.9h-1.5c-.7-.3-.8-.2-1.8.7-.5.6-1 1-1.2 1l-2 1.2-2 1.2c-.3 0-.9.3-1.4.7-.8.5-1.3 1.2-2.3 3-1.5 3-1.5 3.5-.3 4 .6.3 1 .8 1.3 1.9 1 2.6 1 2.6 2.5.7zm14-15.2-.2-1c-.2-1.2.5-1.6 1.2-.6 1 1.4 3 2 4 1 .3-.4.3-.6.1-1-.2-.4-.4-.6-.5-.6a23 23 0 0 1-4.8-5.2c0-.4 0-.4.4 0l.7.4 1.3 1.2c1.7 1.8 3.7 3 5 3.2 1.4 0 2.4-.1 2.4-.4 0-.3-2.8-1.6-3.5-1.6-.3 0-.6-.3-.9-.9l-1-1.7c-.7-1-.9-2.2-.3-2.2.2 0 .6.4 1 .7.8 1 2.4 2 3 2 .3 0 1-.6 1.6-1.2l1.2-1.3-.6-.5-.8-.4c-.4 0-2.3-3-2.3-3.6 0-1.3.2-1.5 1.8-1.5s1.6 0 1.8.8c0 .5.4 1 .7 1l.8.6c.3.5 2.1.3 2.6-.2.7-1 1.6-2.9 1.4-3.3-.3-.9-1.3-.4-1.9.8-.6 1.3-1.3 2-1.9 1.7-.5-.2-.4-.5.2-1.3.3-.4.6-1.1.7-1.6.1-.8 0-.9-.8-1.3-.6-.3-1-.6-1-1s.2-.5 1-.3c.5 0 1.3.3 1.7.5.5.3 1.5.4 2.4.4 1.4 0 1.6 0 1.6-.5 0-.3-.3-.6-1-.8-1-.3-2.4-1.7-2.5-2.5-.2-.7.6-.8 1.5 0 1.2 1 1.8 1.1 3 1 1.3-.2 1.1 0 5.2-5.4 1-1.3 2.2-2.7 2.6-3a14 14 0 0 0 1.6-2.1c.5-.8 1.5-2 2.2-2.6.8-.6 1.7-1.7 2.2-2.5l1.3-1.8c.6-.6 2-4.5 2.2-6.2.2-.8.1-1.3-.2-1.7-.2-.4-.4-1-.3-1.5 0-.8 0-.9-1-1.2-.9-.3-1.2-.3-2.3 0l-3 1.5c-1.4 1-1.5 1-1.5 2s0 1.1-1.4 1.9l-2 1c-1.2.3-4 2-4.6 2.7-.3.5-1 1-1.6 1-1.3.4-6.2 4.7-8 7.1-.9 1.2-1 1.3-.6 2.2.2.8.2 1-.5 1.9-1.2 1.6-2.5 2.7-3.3 2.7-.8 0-1.3.6-3.2 3.8a57 57 0 0 0-4 7.6c-.8 1.9-1.1 2.3-1.7 2.6-.6.2-1 .7-1.7 2-.5 1-1.1 2-1.5 2.1-1.4.7-1.7 2.5-.6 3.2l1.8 1.6a13 13 0 0 0 2.6 1.8l1.6 1c.4.5.7.1.6-.5zm21.7-27.4c-.1-.4.3-1.5.6-1.5.4 0 2.7-2.3 3.2-3.2.2-.5.7-1.2 1-1.5.8-.7 1.3-1.7 2-3.8.5-2 .6-3.6.1-3.8l-.2-1c0-.6.1-.8.7-1 1-.2 1.5.3 1.6 1.6.2 2-1.2 6.7-2 7.2l-1.2 1.8c-1.2 2.1-4.4 5.5-5.2 5.5-.2 0-.5-.1-.6-.3zm-10 21.3c0-.2-.1-.6-.3-.8-.5-.4-.5-.4-1.2.2-.6.7-.6.7-.2 1.1.5.5 1.4.2 1.6-.5zm58.2-4.8c.7-.7.7-.9-.2-.7-.8.2-1.4.6-1.4 1s1 .2 1.6-.3zm2.7-1.5c-.1-.1-.5-.1-.8 0h.8zm-33.1-34.7c.7-2.5.7-3.4-.2-3-.8.3-1.4 1.8-1.4 4v2.2l.5-.6c.3-.4.8-1.5 1-2.6zm4.1-1.7c1-.7 1.8-1.6 2-2 0-.5.5-1.1 1-1.5a493.7 493.7 0 0 1 3.5-3.3l-1-.7c-.6-.2-1.6-.9-2.3-1.5-.6-.6-1.3-1-1.4-1-.2 0-.7.6-1.2 1.4-.6.7-1.4 1.7-2 2l-1.3 1.5c-.4.6-.4.7.3 1.4.5.7.7 1.1.7 2.1a7 7 0 0 1-.3 2c-.2.6-.1 1 .3 1l1.7-1.4zm7.1-12.9c-.1-.9 0-1 .5-1.3.5-.2.8-.2 1.7.4 2.5 1.6 3.1 1.7 7.2 1.6 2.1 0 4.2 0 4.6.2.6.1 1 0 1.6-.4.8-.7 1.2-.7 3.4-.4 1.7.2 3-.3 3.3-1.2 0-.3.5-.6 1.1-.7.5 0 1.4-.4 2-.7.5-.3 1.6-.5 2.4-.6 1.7 0 1.9-.2 2.1-1.1.1-.4 1.1-1.6 2.4-2.9 2.7-2.5 3-3 2.5-4-.2-.7-.2-1 0-1.2.5-.6 1-.5 1.5 0 .3.4.4.3 1-1l.7-1.7c0-.2.3-.7.7-1.2.5-.7.6-1.1.5-1.9 0-.6 0-1 .2-1.2.4-.3.7 0 2 1.2 2 2 3.9 2.7 5.5 2.2.6-.1 1.3-.2 1.6-.1.6.1 3.6-1.3 4.7-2.3.5-.5.7-.9.7-1.7 0-.9.2-1.4 1.2-2.6.6-.9 1.6-1.8 2.1-2.2 2.2-1.2 3-4.7 2-7.6a5 5 0 0 0-1.3-2 34 34 0 0 1-2-1.6 12 12 0 0 0-6-2.7c-1.5-.2-2-.2-4 .5a29 29 0 0 0-3.5 1.3l-1.8.6c-.4 0-1 .2-1.5.4-1.3.8-2 .4-3-1.6-.8-1.8-2.7-4.5-3.3-4.7-.2 0-.6-.7-1-1.4a7 7 0 0 0-1-1.7l-1.6-1.8c-.6-.8-2-2.4-3.3-3.6-6-5.8-7.1-6.7-9.3-7.5-1.5-.5-5-2.7-5.4-3.4a32 32 0 0 0-12.3-6.6l-1.6-.6c-.4-.3-1-.3-1.8-.2-.9.1-1.6 0-3.3-.6-6-2.1-9.2-2.9-11.9-2.9-1 0-2-.1-2.5-.3-.8-.3-3-1.9-4.4-3-.6-.7-4.4-2.7-6.4-3.5-1.2-.5-2.8-.3-3.4.3-.5.6-.4 2.6.2 3.6.5.7.7.9 1.7 1 .6 0 1.3-.1 1.5-.3.5-.4 1.2 0 1.2.7 0 .9-2.1 2.2-3 1.7l-1-.2c-1 0-1 1.3.5 4.8 2 4.5 3 6.2 4.5 7.2.6.4 1 .8 1 1l.5.6c.3.4.4.3.4-.3 0-.3-.2-.6-.3-.6-.1 0-.3-.3-.3-.5 0-.3 0-.6-.2-.7l-.8-1.8c-.4-1.1-.5-1.6-.3-2.5.1-.8.3-1 .8-1 .6 0 .7.2 1 1.4.3 2 2.2 5.7 3.5 7.2a35 35 0 0 1 2 2.8c.7.9 1.7 2.2 2.5 2.9 2.7 2.8 6.4 7.3 7.3 9 .5 1 .3 2-.3 2-.3 0-1.2-1-2.2-2-3-3.3-7-5.4-8.2-4.3-.4.4-.4.5 0 1.3.3.5 1 1.4 1.7 2 1.8 2 2.9 3.8 3.6 6.4.3 1 .4 1.2 1 1.1 2-.2 2-.2 2.3.9l.7 3c.2 1.8.2 2-.2 2.3-.4.3-.5 1-.7 5-.2 5.1 0 6.7 1 8 .5.4.9 1.3 1 2 .4 2.6 3.3 8.7 5 10.7l1.2 1c0-.2 0-.5-.3-.6a8.6 8.6 0 0 1-1.3-2.7c0-.5.9-1 1.2-.9l2 2.6c1.7 2.6 5.1 6.2 5.9 6.2.4 0 .5-.1.3-1zm1.2-23.1-1.1-2A14 14 0 0 0 430 73l-1-1.3c-.4-1-2.6-3.7-4.2-5.5-.9-.9-1.3-1.5-1.2-1.8.2-.4.8-.5 1.5-.1a35.5 35.5 0 0 1 7.6 10c.8 1 1.2 3.5.6 3.5-.2 0-.5-.3-.8-.6zm40.8-.2c-1-.3-1.3-.7-1.3-1.5s-.8-1.7-1.5-1.7c-1 0-1.4-1.1-.8-1.9l1.4-1a53.4 53.4 0 0 1 5.4-3.2c2.3-1.1 3.4-1.6 4.5-1.7 1.5-.2 1.6-.2 2.3.5 1.3 1.3 1 2-.8 2-.8 0-1 .4-.4 1.2.7.9.4 1.1-3.2 2.4-.3 0-.2.4.4 1 .6.6.9 1.2 1 1.7 0 1-.5 1.4-1.6 1.4-.4 0-1 .2-1.4.5-.7.6-2.3.7-4 .3zM431 64.5 429 63c-.5-.4-1-.8-1.2-.8-.4 0-1-.8-1-1.2 0-.7.7-1.2 1.4-1 .7.2 4.2 3.1 4.5 4 .3.4.2.5-.3.7-.5.3-.8.2-1.5-.2zm-11.2-.8c-.9-.7.2-2 1.6-2 1.2 0 2.2 1 1.8 1.9-.2.5-2.7.6-3.4 0zm20.4-6.3c-1.4-1.1-2.3-3.7-1.7-5 .4-1 1-1.2 2-.7 1.2.7 1.4 1.4.8 2.3-.5.7-.5 1.5 0 1.5.2 0 .5-.3.7-.8.3-.5.6-.7 1.1-.7.4 0 .7-.2.8-.5.4-1.4 1-2.1 1.5-2.3 1-.2 1.8.2 1.8 1s-1.2 3.4-1.8 4c-.4.3-3.9 1.7-4.4 1.7l-.8-.5zM464 99.7c.2-.3.3-.6.2-.7-.2-.2-1 .5-1 .9 0 .5.4.4.8-.2zm3.2-4.4c.5-.8.6-1.2.3-1.4-.2-.3-.4-.1-.9.6a4 4 0 0 1-1 1.3c-.4.2-.5.5-.5 1.4v1l.7-.8c.5-.5 1-1.5 1.4-2zM415 70c.3-.3-1-4.4-1.5-4.4a14 14 0 0 0-.3 4.6c0 .2 1.6 0 1.8-.2zm-1.2 234.4c0-.3 0-.4.1-.2v.5l-.1-.3zM597 304l-2.5-.4c-2.6-.3-3-.4-3-.9s.6-.7 3-.7c3.1 0 5.3.9 4.6 1.8-.3.3-1.9.5-2.1.2zm-32.5-1-7.6-.3a405.4 405.4 0 0 1-48.7-2.5 188.6 188.6 0 0 1-9.5-.9c-.7 0-1.1-.2-1.4-.6-.7-1.1.3-1.3 6-1 7.4.5 10.8.8 11 1l4.6.4a2645.7 2645.7 0 0 1 25 1.6c1.3.2 6.6.3 11.7.4l14.8.3c5.8 0 7.1.2 7.2 1 .1.4-.2.4-1.8.5h-11.3zm-317.3-14a8 8 0 0 0-1.6-1.1 29 29 0 0 1-2.5-1.5l-1.5-.8-4-2a44 44 0 0 0-11-5.4c-1.3-.3-3.3-1-3.6-1.3-.2-.2-.6-.2-1-.2-.5 0-1.1 0-4.4-.9-.5 0-1.6-.4-2.4-.6a58 58 0 0 0-13.9-1 520 520 0 0 1-30.1-.2 63.3 63.3 0 0 1-11.2-1.6c-.6 0-1.6-.2-2.3-.4-.7-.3-1.6-.4-2.1-.3l-2.8-.1-4.9-.5c-1.8-.2-3.4-.5-4.5-1a79 79 0 0 0-8-2.4l-2.7-.9-2.7-.9a85 85 0 0 0-6.9-3.4 18.1 18.1 0 0 1-5.2-3.3l-1-1.2h-2.3c-2.5 0-3.6-.3-3.6-.8s1.3-1 3.3-1.2l1.8-.1.4-1.7c.1-1 .6-2.3 1-2.9.3-.6.6-1.3.5-1.4-.2-.3-2-.2-8.4.4-2.7.3-4.8.3-7.5.2-2-.1-4.4-.2-5.2-.1-1.9.1-2.8 0-3-.6-.3-.9 1-1 8.7-1.2 11.1-.3 15.9-.6 15.5-.8-.2-.2-1.4-.3-2.7-.3-2.6 0-3-.3-2-1.4.6-.6 3-1.2 4.9-1.2.6 0 .7 0 .3-.3-.3-.2-.7-.2-1-.1-.3 0-1 0-1.6-.2-.8-.3-3-.5-6.4-.6-3.6-.1-5.4-.3-6-.6-.8-.3-2.2-.3-9-.2-8.8.2-12.6.3-17.1.6-1.6 0-4.2 0-5.8-.2-2.4-.2-3.3-.2-5 .2-2.6.5-3.5.3-4-.7-.3-.6-.3-.8 0-1.4.5-.8.5-1.3 0-1.3-.2 0-.4.3-.4.5 0 1.1-1.6 1.4-2.5.6-.5-.5-.7-.5-.9-.2-.4.5-1.1 3.7-1.1 4.9 0 .6-.2 1.1-.4 1.2-.2 0-.8 1-1.4 2.1-1.6 2.8-2.4 3-3.1.4l-.5-1.4-.5.6c-.2.4-.5.9-.5 1.2l-.4 1.3c-.3.5-.4 1.1-.2 1.7.1.8 0 .9-1 1.1-1.8.5-1.8.5-2 1.3 0 .4-.4 1.7-.8 2.8-.5 1.6-.8 2.1-1.3 2.4-.7.3-1.4-.1-1.4-1a2 2 0 0 0-.3-1c-.2-.3-.4-.2-1 .4l-.6 1c0 .3-.6 1.8-1.5 3.5-1.6 3.5-2.2 4-3.3 3.3-.4-.3-.8-.7-.9-1-.2-.9-.7-.5-1.5 1.2-1 2.2-1.3 2.4-2.8 2.9a5 5 0 0 0-1.7.9l-1.3.8c-.6.3-.8.3-1.2 0-.3-.4-.3-.7 0-2.3.4-2.3.1-3.1-1-3.3-1.4-.3-1.6-.6-2.5-4.3-.2-.9-.6-1.7-1.2-2.3-.5-.5-1-1-1-1.3 0-.2-.2-1-.6-1.6-1.1-1.7-1.9-3.6-2.2-5.4-.3-1.6-.6-2.1-1.3-2.4-1.6-.5-1.3-4.4.7-9.5l.7-2c-.1-.2-.4-.3-.7-.3-.3 0-1-.3-1.6-.8-1-.8-1.1-.8-4.2-1-8.6-.6-11-1-11.6-2-.5-1 .2-1.3 2-.8 1.6.5 9.6 1 12 .9 1.4 0 1.5-.1 1.8-1.1.3-.9.3-1.1 0-1.4-.6-.5-2.9-1.1-5.4-1.3-2-.2-3.9-.3-7.5-.8-1.1-.1-1.2-.2-.6-.9.5-.4 1-.5 2.4-.5 1 0 2-.2 2.2-.3.2-.1.6-.1 1 .1s1.8.4 3.2.5l4.2.5c1.7.2 1.8.2 2.3-.5.4-.4.6-.8.6-1l.7-1.1c.8-1.2.8-1.7.2-1.7l-2-.6c-1-.5-2.2-.7-3.1-.7-.9 0-1.6-.1-1.7-.2-.3-.6.7-1.1 2-1.1 1 0 1.3-.1 1.3-.5 0-1.2-1.9-1.6-6.4-1.6-3.5 0-4.2-.2-4.2-1 0-.2.2-.4.5-.5a74.5 74.5 0 0 1 12.2.2c.2 0 1.5-1 2.8-2.4 2.3-2.4 2.3-2.4 1.7-2.7-.5-.3-2.5-.4-7.1-.4a29 29 0 0 1-7.2-.4c-1.8-.8-.3-1.7 2.5-1.5l5.9-.1 4.2-.2 1.2-1.2c1.4-1.4 3.8-3.1 5-3.7 1-.6 1.2-1 .7-1.8-.2-.3-.4-1-.4-1.6 0-1.2.5-1.7 2.5-2.7 1.1-.6 2.1-.9 5.1-1.7.6-.2.7-.4.7-1.2 0-.7.3-1.2.8-1.7.7-.8.9-2.3.4-4-.2-.5-.3-2.3-.3-3.9 0-2.7.2-3.9 1.3-6.8l.6-2.4a43 43 0 0 1 8.2-15.7c1.7-2.7 5-6.3 6.5-7.2.4-.3 1.5-1.4 2.3-2.5 1.8-2.2 2.3-2.5 5.3-3.3l4-1A86 86 0 0 1 77 145a68.4 68.4 0 0 1 7.4-1.7 472.9 472.9 0 0 1 17.9-3.6 132.2 132.2 0 0 1 26.7-3.5c.3-.2 1.7.5 1.7.9 0 .2-.2.4-.6.5-2 .4-3.5.7-4.1.6l-9.5.7a574.6 574.6 0 0 0-34.2 7.2c-.6 0-2.2.4-3.4.8l-3.5.8c-2.8.4-9.6 2.3-10.3 2.9-.3.3-1.5 1-2.5 1.4-1 .4-2.4 1.2-3 1.7l-2.3 1.4a27 27 0 0 0-5.7 5.7c-.1.3-1.1 1.7-2.2 3a22 22 0 0 0-4.4 8.5l-1.2 4c-.4 1.3-.6 2.9-.6 3.8 0 2.4.5 6.7.8 7 .2.2 1.2.4 2.3.4 1.5 0 2 0 2.4-.4.6-.6 1.4-.5 3.7.2 1.1.4 2.1.7 2.3.6.5-.2.5-1.9 0-2.2-.1-.2-.9-.3-1.6-.4-1.3-.2-1.8-.5-1.5-1.3.2-1 .7-1.1 2.3-.8 1 .2 1.7.2 2.1 0 1-.3 2.2-.3 4.1.3a34.3 34.3 0 0 1 7.5 2.9c1.9.7 4.7 3.5 4.7 4.8 0 .4-.2.8-.3.9-.1 0-.3.3-.3.5 0 .3.5.4 2 .4 2.2 0 3 .4 3.4 1.4.3 1-.1 2-1.2 2.4-.5.2-1 .5-1 .7-.2.1.3.8 1 1.5.6.6 1.1 1.3 1.1 1.5l1.2 2.8c2.1 4.6 3 8 2.3 9-.4.7-1.5.8-2.7.3-1.3-.6-1.8-.7-1.8-.2l.5 2.5.5 3c0 1.2-.7 3.5-1.5 4.5-.6 1-.8 1-1.4 1-.9-.3-1.4.3-1.2 1.2.2.3.2 1.2.2 2 0 .9.1 2 .3 2.4.5 1.2.2 1.9-1 1.9h-.8l.8.4c2.3 1 7.8 3.3 8.4 3.4l3.4.4c2.6.2 3 .3 5.8 1.7l3.5 1.5c.2 0 .5-.3.6-.6 0-.3.4-.5.7-.6l2.1-.4c1.4-.2 5-1.8 6.6-2.8.6-.4.8-.4 1.2-.1.3.2.3.4 0 .7-.3.5-2.5 1.6-5.2 2.9-1.4.6-2.2 1-2 1.2.8.4 3.9.5 6.5 0l3.4-.4 2.5-.3 4.3-.8a51 51 0 0 0 11.3-3 34.6 34.6 0 0 1 7.3-2.3 18 18 0 0 0 3.8-1.2c.7-.6 1.4-6.4.8-6.4-.1 0-.9.6-1.6 1.4L134 227c-.2 0 .2-.5.8-1 .5-.6 1-1.2 1-1.4l1-2.3c.9-1.8 1-2.3 1-4.7.2-1.8.3-2.8.6-3 .6-.7 1.4-4.6 1.4-6.6a103.5 103.5 0 0 1 6.1-27.7c.9-2.2 1.4-3 2.4-4 .7-.8 1.7-2 2.2-2.8a174.9 174.9 0 0 1 5-7.3c.8-1 2.4-3.4 3.5-5.4a104 104 0 0 1 10.2-15.1c1.8-1.8 2.1-2.4 1.5-2.7-.1-.1-.5-.7-.7-1.4-.3-.6-.8-1.3-1.3-1.5-.4-.2-2.4-2.2-4.6-4.4a266.5 266.5 0 0 0-5.9-6.1c-1.7-1.9-6.3-6-7.5-6.7-2-1.2-6.1-5.3-6.1-6 0 0-.5-.5-1.2-.8-1.3-.8-5.5-5-6-6-.8-1.5-2-3-3-3.5a9.5 9.5 0 0 1-2-2l-1.6-2c-.8-.8-1.3-2.5-1.3-4.3 0-2 .3-3 1.8-5.2.6-.8 1-1.6 1-1.7 0-.2.6-1 1.2-2 1-1.7 1-1.9.8-2.8-.3-1-.1-1.8.6-3.2a33 33 0 0 1 7.3-7.4c.5 0 .5 0 0 .5a8 8 0 0 1-1.2 1c-1.4.8-4.7 6.2-4.2 6.7h1.2c1-.1 1-.1 1 .6 0 .9-1.2 2.7-3.3 4.9-1.6 1.6-3 4.2-3 5.4 0 .2.4 1.2 1 2l1.1 2.4c.7 3 1.8 5.3 3.7 7.5l1 1.7c.8 1.4 2.7 3.5 3.3 3.5.6 0 2 1.7 3 3.6.5 1 1.2 1.9 2 2.5.8.6 1.5 1.3 1.7 1.6.2.5 1 1 3.3 2.5l1.5 1.6c.5.6 1.1 1.1 1.4 1.1.4 0 4.7 3.5 5 4.2.2.2.2.6.1.8 0 .4.1.6 1 .8.7.2 1.3.4 1.4.6h1c.9 0 1 0 1.1.8.1.5.5 1 .9 1l.6.6c0 .1.2.3.5.4.3 0 1 .5 1.4 1 .5.6 1 1 1.4 1 .3 0 1 .4 1.5.9s1.1.9 1.4.9c.5 0 .5-.1.1-.8-.4-.7 0-1.6.6-1.6.8 0 3.1 1.7 3.3 2.3.3 1 0 1.4-1 1.4-.8 0-1 .3-.3.8.3.3.6.3 1.3-.1.8-.4 1-.8 1.3-1.6.2-.9.4-1 1-1.2.4 0 1 .1 1.2.3.5.2.8.1 1.8-.6a37.1 37.1 0 0 1 11.2-6 26 26 0 0 1 7.7-2.3c3-.5 3.7-.8 3.7-1.3 0-1.1.8-2.2 2.1-2.8 1.7-.8 4.8-4 6.5-6.4.5-.8.5-.8-.3-1.6-.4-.4-.9-.7-1.1-.7-.8 0-1.9-.9-3.1-2.5-.7-1-1.9-2-2.5-2.5-.6-.4-1.7-1.1-2.3-1.7l-1.4-1-2-1.7c-.9-.9-2-1.9-2.5-2.2-1.3-.8-8.4-7-8.6-7.4-.6-1.5.3-2.5 1.6-1.7 1.1.7 6.6 6.2 7 7 .6 1.1 4.5 4.5 7 6l2.2 2 2.8 2.1c5.1 3.2 5.4 3.2 7.7.4.8-1.1 2.8-3.3 4.4-5 2.8-2.8 2.9-3 2.9-4.1 0-1.2 0-1.2-1.4-2.1-2.3-1.5-4.4-3.7-4.6-4.6-.3-1.6 3.2-6 6-7.4 2.8-1.4 6.4-3.7 7-4.3.3-.4.8-1.6 1-2.5a26 26 0 0 1 3.1-6.8c1-1.7 1.9-2.6 3.5-3.7.3-.3.9-1 1.2-1.8 1.2-2.5 2.7-3.7 3.1-2.5.4.8-2.9 6.3-4.5 7.6-1 .7-3 3.6-3 4.1 0 .2.2.3.6.3.3 0 .7.2.9.4.4.5 0 1.6-.6 2-.6.2-1 .6-3 3.4-.7 1-1.6 1.9-2 2.1l-2.5 1.6-3.5 2a9.2 9.2 0 0 0-3.5 2.6c-2.2 2.6-2.1 3.3.9 4.7 1 .4 2.2 1 2.5 1.3.2.3 1 .6 1.6.7 1 .1 1.1 0 2.6-1.2a31 31 0 0 1 12.3-6.4c.4 0 1 .3 1.2.6.4.5.5.6.1 1.2-.6 1-1.2 1.3-2.2 1-.8-.4-1-.3-3.8 1-2.5 1.3-3.1 1.7-4 2.9-1.2 1.4-1.3 2-.8 3.8.5 2.2 3.7 3.7 7.5 3.6 1.9 0 2.8.3 2.8 1.1l.4.8c.9.9 3.2 0 4-1.5.5-.7 3-2.8 4.5-3.5 2.3-1.1 2.1 1-.2 3.7-1.2 1.3-1.1 1.4.4.7 2.7-1.3 4.2-1.4 4.5-.3.2.5.2.5 1 0l1.7-1.6c.7-.8.9-.9 1.5-.6.4.2.8.6 1 1 .2.4.4.6.6.6l1.6-3.1 1.5-3.4c.2-.2.6-.3 1-.3 1 0 1.4-.6 1.4-2 0-1.3.1-1.5 1.2-2 .8-.5.8-.6 1-2.4 0-1 .2-2.5.4-3.1a72.2 72.2 0 0 0 1.1-5.7l.5-2.3c.4-2.7.7-3.2 1.9-2 .3.3.5.7.3 1l-.3 6c-.1 5.7-.3 6.7-2 9.2-.8 1.3-1.4 2.6-2.9 6.3-1.4 3.7-3.3 6-6.1 7.6-3.5 1.9-3.3 1.7-3.4 5.8v3.6l.7-.1c.4 0 2-.6 3.5-1.1a34.6 34.6 0 0 1 8.3-2.1c.6-.2 2.6-.4 4.4-.6 3.2-.3 7.5 0 13.3.8 3.8.6 4.7.6 6.7.6 1.3 0 2.3-.2 2.7-.5.6-.4 1.6-.4 6.3 0 3.5.3 3.7.3 5.4-.3a23 23 0 0 1 7.6-1.6c1.8 0 2.1 0 2.7.6 1 1 1.2 2.3.6 5-.8 3.8-2 7-4.4 11.1-.4.7-.7 1.9-.8 2.6-.1 1.3.4 4 1.3 6 .5 1.5 1.3 5 1.3 6 0 .5.2 1.7.5 2.6l1 3c.3 1 .4 2.7.5 7.6 0 3.5.2 6.8.3 7.2 0 .5 0 1.9-.3 3.1-.4 2-.4 2.4 0 3.6a15 15 0 0 0 3.2 5.6 84 84 0 0 1 4.2 5.4c1.2 1.5 1.2 2.2.2 3.5-1 1.4-2.7 2-5.1 2-1.3 0-2.2 0-2.7.3l-.6.4.6.1a18692 18692 0 0 1 7.1 1.6c.7.5-.2.7-2.2.4l-5.6-.5c-3.3-.3-4-.3-5.3.1l-3 .6c-1.6.1-4 1-4 1.4 0 .7 1 .9 3.5.8 3-.1 3.4.1 2.8 1.3-.2.6-.4.6-1.2.5-1.6-.4-2-.3-2 .1-.1.3.4.9 1.7 1.7l1.9 1.2 18-.1c16.5-.2 18-.1 18.4.3 1 1 0 1-11.5 1.3-12 .2-15 .2-18.6 0-2.5-.2-3.7-.1-3.7.4 0 .2.5.8 1 1.3 1 1 6.8 5.7 9 7.3l4.4 3.9c2.6 2.4 3.6 3.2 4.8 3.6a16 16 0 0 1 3.4 2.1l2.5 1.8c.2.2.8.8 1 1.5.8 1.5.7 2.2-.4 4.5l-.8 1.9-.9 2-1.3 3c-.3.8-.8 1.3-1.3 1.6-1 .5-1 .7-.6 2 .3 1 .3 1.3 0 3-.6 2.6-1.5 4.4-3.6 6.6-1 1.1-1.8 2.1-1.8 2.3 0 .4-2 2.1-3.5 3-.8.3-2.1 1.1-3 1.6-1.6 1-2.6 1.2-2.9.7 0-.2-.5-.3-1-.4-.5-.2-1 0-2 .7l-3.5 2.1c-4.5 2.4-6.3 3.5-6.2 3.7.1.1 4.2.2 9.3.1a300 300 0 0 1 24.5.6l19.1 1c2.6.1 3.5.5 3 1.1-.3.5-3 .7-5.8.4a103.1 103.1 0 0 0-12.4-.7c-.1 0-4.7-.3-10.2-.4l-13.6-.5c-6.3-.2-9.9-.2-11.8.1-2.6.5-10.7.5-10.7 0 0-.8.5-1 2.5-1.2 1.1 0 2.1-.3 2.2-.4 0-.4-1.4-1-2.4-1-.3 0-1.4-.2-2.4-.6-1-.4-2.1-.7-2.5-.7a75 75 0 0 0-7.9-2.3c-3-.8-3.9-1-6-2.2-.5-.3-1.2-.5-1.6-.6-1.4-.3-.7-2.3 1-2.8 1-.3 1.2-.6.7-1-.5-.2-8-1.3-11.4-1.6-1.4-.1-2.8-.4-3.3-.5-.4-.2-1.2-.3-1.8-.3-1.5 0-6.5-2.6-6.5-3.3 0-.5 0-.5 1.5-.3 1.2 0 1.6 0 1.9-.3.2-.3.8-.4 2.1-.4 1.7 0 1.9 0 3-1 2-1.6 1.9-1.7-2.8-1.5a46 46 0 0 1-13.5-.4c-1.5-.4-3.3-.7-5.7-.8-3.9-.2-4.8-.5-5.3-1.5s.1-1.3 3.5-1.5a197.5 197.5 0 0 0 19.6-1.6c.6 0 1 0 1.9-.8l1.1-.9-.6-.3c-1.8-.8-5.8-1.4-11.8-1.8-2.5-.2-4.5-.2-7.8.1l-7.8.6c-1.8.1-3.6.4-3.9.5a8 8 0 0 1-2.5.4h-1.8l-1 1.7a8 8 0 0 0-.8 2l-1 3c-.5 1.4-1.1 3.5-1.3 4.6l-.4 2 .7 1.5c.6 1.2.7 1.7.5 2.7 0 .7-.4 1.6-.8 2-.6.7-1 .8-2.4 1-1 0-3 .5-4.5 1l-4.4 1.3c-1 .2-2.5.8-3.3 1.2-2 1-4 1.2-5.9.7-.8-.3-2.6-.6-4-.7l-8.6-.8c-6.7-.6-8.5-.6-11.6.4-5 1.5-9 1.9-11 .8-1.4-.7-8.3-1.3-17.7-1.6-12.8-.3-20-.6-21.4-1-2.7-.8-3.7-.5-3.7.8 0 .7.1 1 .8 1.4 1 .6 4.3 1.6 8.2 2.5l4.6 1.2c5.9 1.6 6.9 1.8 9.7 2.1a345.1 345.1 0 0 0 15.8 1.5c1.4.2 3.8.3 8.2.2l13.8-.2c4.1 0 9.6 0 12.1.2a54 54 0 0 1 13 1.7l3 .7a119.9 119.9 0 0 0 9.3 2.7c.3.2 1.1.4 1.9.6 1.7.4 5.3 2.2 6.3 3.1.5.4 2 1.4 3.6 2.2 5.8 3 8.2 4.8 8.2 6.3 0 .5.1.9.3.9.3 0 1.3 1.5 1.3 2 0 .2-.3.4-.6.4-.5 0-.5 0-.4 1v1.3c-.5.8-3.2 1.1-3.8.5zm1.9-4.5c0-.7-.3-1.1-1.3-2a6.3 6.3 0 0 0-1.4-1.1c-.3 0-1-.7-1-1 0-.4-1-1.1-1.7-1.1-.4 0-1-.1-1.2-.3a156.3 156.3 0 0 0-6.1-3.2 31 31 0 0 0-14-4.4c-3.2-.1-3.4-.2-4-1.2-.5-.8-.7-.9-3.1-1.3a90.2 90.2 0 0 0-25.7-1c-1.5.2-2.3.2-2.8 0s-3.9-.3-9.5-.2c-9 0-13.4-.3-16.2-1l-5.3-.7a41.3 41.3 0 0 1-8.4-1.3l-2.1-.4c-.7-.2-2.1-.3-3-.3-2 0-4.2-.6-5.7-1.7-.5-.3-1-.5-1.3-.4-.4 0-.9-.1-1.5-.7a4 4 0 0 0-2-.9 3 3 0 0 1-1.5-.7c-1-1-2.7-3.5-2.7-3.8 0-.6 1.2-1.6 2.5-2 1.4-.6 4.7-1.3 7.5-1.8 4.7-.8 6.4-1.4 6.4-2.2 0-.3-1.4-1-3.5-1.8-.8-.2-2.4-.3-5-.3h-4l-5 1.6a35 35 0 0 0-5.7 2.2c-1 1-1.2 2-.8 3.3.4 1.6 1.2 2.6 3 3.7l2.6 1.8 1.8 1.1c.4.1 1.3.7 2.2 1.4a9 9 0 0 0 2.2 1.3c.4 0 2 .5 3.4 1 3.3 1.1 4.4 1.3 5.1 1 .5-.3.6-.3.6 0s.2.5.6.5c.3 0 1.4.2 2.3.5l3.8.8 2.3.4c.5.3 5.8 1.2 9 1.4 1.6.2 8.4.4 14.9.5a769 769 0 0 1 33.7 1.1c8.2.8 12.2 1.5 13.8 2.3l2.8.7c1.2.1 2.4.4 2.9.6.4.2 2 .7 3.4 1 3.2.9 6.6 2.4 8.6 3.8.8.7 2 1.4 2.7 1.6 1.4.5 3.5 1.8 5.4 3.1 1.6 1.2 2 1.2 2 0zm-212.3-24c.6-.7.8-1.1.7-1.5a21 21 0 0 1 1.5-7.4c1-3.1 1.2-3.5 2.3-4.5 1.2-1.1 1.3-1.3 1.4-3 .2-1.8.7-2.4 1.7-2.2 1.4.4 1.7 2.8.6 5.7-.2.6-.1.8.3 1.5.4.5.7.8.8.7.2 0 .6-.8 1-1.6.8-1.4.9-1.4.6-3.2a23 23 0 0 1-.2-4.1l.2-2.3-1 .1c-.7.1-.8 0-1-.5a5 5 0 0 0-1.1-1.4l-.8-.7-.7.7c-.5.6-.8.6-1.2.4-.8-.4-.9-.9-.4-7.7.2-3.4 0-4.3-.7-4.1-.7 0-1.3.9-.8 1.2.6.4.4 1.4-.8 4.3-1.4 3.5-1.6 3.6-4.1 2.8-2.1-.6-2.7-1.2-2.7-2.6V230l-.6.9a8 8 0 0 0-1.3 2.6c0 .2.4.5 1 .8 1.2.8 1.2 1.7 0 2.3-1 .5-2 2.9-3.1 6.8a91.5 91.5 0 0 1-2.4 8.6c-.6 1.7-.8 3.5-.3 3.7.3 0 .4-.1 1.5-3a54.5 54.5 0 0 1 2-5.2l1.6-4.3c1.9-4.3 2.3-4.9 3.6-4.4.8.3.8.7-.1 2.7A67.3 67.3 0 0 0 30 253c0 .6 1.3-1.7 3.2-5.5a33 33 0 0 1 2.7-5c1.3-1.2 2.6.3 1.6 2a97 97 0 0 0-3.6 6.8l-1 2.1c-.2.8-1 2.5-1.7 4-1.2 2.4-1.5 3.8-.9 3.6a54.9 54.9 0 0 0 7.1-14.2c.2-.5.7-1 1-1.3.7-.3.9-.3 1.3 0 .5.6.3 1.8-.6 3.7a253.5 253.5 0 0 0-4 8.7c-.5.6-1.1 2.2-1 2.5l1.7.9c.1 0 .6-.4 1-.9zm3-.4c0-.5-.6-.4-.7 0-.1.3 0 .4.3.4.2 0 .4-.2.4-.4zm276.1-3.9a90.8 90.8 0 0 0 3.2-2l.9-.6-.2-2.2c-.2-2.8.1-3.9 1.9-5.7l3-3.5c2.2-2.7 5-5.4 6.2-6 1.1-.7 2.3-.7 3.6-.3 1 .5 1.6.2 2.4-1.3.3-.7.8-1.5 1.2-1.9l1-1.5c.3-1-.1-2-1.4-2.8-.7-.4-1-.5-1.4-.2-.3.2-1.3.4-2.2.4-2.5.1-4 .8-5.4 2.2a24 24 0 0 1-2.5 2.3c-.7.5-1.5 1.3-1.9 1.8-.3.5-1.7 1.9-3 3.1a66.5 66.5 0 0 0-11.9 15.4c0 .6.6 0 3.1-3.3s3-3.9 4.6-4.4c.7-.3.8-.3.4-.9-.6-1 .2-1.4 1-.6.4.4.4.6-.2 1.7l-.7 1.5.8.2c.8.2.8.2.5.7-.3.2-.6.8-.8 1.2-.3.5-1 1.5-1.8 2.3l-1.5 2c-.2.8-1.3 1-2.1.6-.9-.3-1.4 0-1.4 1 0 1.8 2.3 2.3 4.6.8zm-273.7-.8c.9-1.3 1-1.4 2-1.4h.9l-.8-1.8c-.7-1.6-1.7-2.6-2-2.2-.2.2-1.4 3.4-1.7 4.5-.2.8.1 2.3.5 2.3 0 0 .6-.6 1-1.4zm138.6 1.1c.5-.1 1.2-.5 1.6-1 .6-.5 1.2-.7 3.1-1l4.8-.4 6-.1c2.8-.2 3.3-.3 3.3-.6s-.6-1.7-1.4-3.2a26.5 26.5 0 0 1-2.8-7.3c0-1-.5-2.5-1-3-.3-.4-.4-.4-.4.1 0 .8-.7 1.7-1.2 1.5-.2 0-.3-.4-.3-.9 0-1.1.7-4.2 1.4-6l1.3-3.9c.4-1.1 1-3.1 1.6-4.3l1.9-4.8c1.1-3.3 1.3-3.7 4-9.8a54.6 54.6 0 0 0 4.2-10.8 86 86 0 0 0 3.3-15.8c.3-2.3.6-4.6.8-5.2.3-1.2 1-6.5 1.3-11 .3-3.9.7-5.3 1.2-5.3.6 0 1 1.9.8 4.1a203.3 203.3 0 0 1-4 26.3c-.2 1.3-.1 1.8.3 2.5.5.9.5.9-.3 2.8-1 2.6-3.2 7.7-4.9 11.2a103 103 0 0 0-3.7 8.6 149.4 149.4 0 0 1-3.6 9l-.7 1.7-.7 1.6-.8 1.9c-.7 1-.7 2.1 0 3.4.3.6.5 1.3.5 1.6 0 2.4 2.2 9.3 3.8 11.8 2.4 4 2.4 4 6.7 4.3 2.6.2 5.8.7 7.1 1.2 1 .4 2 .4 2.7 0 .6-.5 4.4-2 7.8-3.1 3-1 3.4-1.3 2.9-2.5l-.6-2.4c-.2-1-.5-2-.8-2.3-.8-1-.6-1.8.7-3a12 12 0 0 0 2-2.6l1.7-3a85.6 85.6 0 0 0 6.8-11.4l1.5-2.7a582.6 582.6 0 0 1 3.4-8.2c.8-2 1.4-5.8 1.4-8.6.1-9.8.2-9.5-.5-10.8l-.8-2.8c-.1-.9-.5-2-1-2.6-.7-1.2-.7-1 0-2.5.4-1.1.4-1.5.2-5.7-.3-4-1-9.1-2-14.4-1.2-5.8-2-7.8-3.6-9a6.3 6.3 0 0 1-1.7-1.9l-1.3-2a148 148 0 0 1-1.7-2.4c-2-3.1-3-3.1-4.8 0l-1.6 2.5c-.7.6-1.3 1.7-1.3 2.4l-1.3 3a222 222 0 0 0-2.3 5c-.7 1.8-1.1 2.4-1.5 2.4-.6 0-.6-.5 0-2.5a52 52 0 0 1 4.3-9.3c.6-.4 1-2 1.3-5.4.4-4 .3-4.3-1.4-4-.9 0-1.4 0-2.5-.6-1.7-.9-2-.9-3.2.1-1 .8-1.2.8-2.5.7-1.3-.2-1.6-.1-3.1.6-1 .5-2.1 1-2.6 1.4-2.7 1.7-7.9 6.3-13.4 11.9-2.7 2.8-3.7 3.2-2.7 1.2.5-1.1 5-5.9 7.4-8a88.7 88.7 0 0 1 8.4-6.8c1.5-1.5 3.7-2.8 6.8-4 1.3-.5 1.6-.7 1.6-1.3.1-.5 0-.8-.5-1-.8-.5-2 0-5.8 2.1l-3.7 1.9c-.7 0-.6-.9.1-1.5.8-.7 3.9-2.7 6-3.9 2.2-1.2 2.6-1.6 2.1-2.2-.2-.3-.6-.4-1.1-.2l-3 .2c-2.2 0-2.5.1-5 1.3-1.4.7-3 1.7-3.6 2.2-.6.5-1.7 1-2.8 1.4l-3.3 1.4c-1.4.8-1.7.8-2.6.2-.7-.5-2.4.5-5 2.8a33 33 0 0 0-7.3 9.8l-1 1.5c-.6.4-1 .2-1-.5a43 43 0 0 1 4.9-8.6 40.6 40.6 0 0 1 15.7-12l3.8-2.1c2.6-1.3 2.6-1.6 0-1.4-3.5.3-7 1.6-8.4 3.1-.9 1.1-3.2 1.7-4.6 1.3-1-.4-2.2 0-5.4 1.5-1.5.7-2.8 1.6-3.5 2.2-.5.6-2.1 2-3.4 3a81.8 81.8 0 0 0-16.3 16.7 40.2 40.2 0 0 0-5.4 7.6c-.3.6-1.4 2-2.4 3a15 15 0 0 0-3 4.2c-.6 1.3-1.5 2.8-2 3.4-.8.8-1 1.4-1.2 2.3a7 7 0 0 1-.9 2.3c-.3.6-.8 1.7-1 2.6 0 .8-.4 1.8-.6 2.2l-.7 2.5c-.1 1-.5 2.6-.8 3.7a35 35 0 0 0-1.7 11.1c.2 1 .1 1.7-.2 3.1-.6 2.3-.2 6.4.7 8.4 2.2 4.7 2.4 5.2 2 5.4-.2.2-.5.3-.7.3-.4 0-2-3-2.4-4.4l-.7-1.6-.3-.6-.3.6c-.5 1.1-1.5 11.6-1.6 16.3 0 1.8-.7 3.3-2.4 5-1.6 1.7-1.8 2.3-1.3 3 .3.2.5.5.5.7 0 .4.9 1 2.3 1.5 4 1.2 4.5 1.5 4.8 2.3.3.7 1 1.2 3 2.2 1.3.7 2.8 1.6 3.2 2 .6.4 1.1.5 2.2.5.7 0 1.4-.1 1.5-.3.1-.1 0-.8-.1-1.6-.3-1.1-.5-1.4-1.5-2-1.3-.8-1.6-1.5-1.1-2 .5-.6 1.3-.5 2.3.3l2.2 1.3a955 955 0 0 0 8.2 3.8 90.6 90.6 0 0 1 8.9 5c.6.5 1.4.9 3.1 1.3 4.4 1.1 5 1.2 6.2.8zm-1.7-2.8-2.9-1.2c-.6-.1-1.6-.7-2.5-1.5l-2.7-2-2-1.6-2-1.6c-1.2-.9-3.9-3.9-5.4-6.2-.8-1-1-1.5-.7-1.8.7-1.2 1.2-.8 4.6 3.4a37.3 37.3 0 0 0 9.1 7.6c3.1 2.1 4.5 2.7 6.4 2.7 2.4 0 8-.5 9-.8 1.2-.4 2.2.2 2.2 1.3s-.6 1.5-2.3 1.3c-2.3-.3-6 .2-7 .8-1.3.8-1.6.7-3.8-.4zm-3.4-11.7c-1.7-1.6-2.4-4-3.1-10a219.5 219.5 0 0 0-1.7-13l-.8-7a41 41 0 0 1 0-10.6c.3-.8 1.2-1 1.7-.3.2.3.5 1.6.6 3.4.2 3.3.5 4.4 2 8.2 1.3 3 1.6 4.3 1.1 4.8-.6.7-1 .4-1.7-1.4l-1.1-2.3c-.4-.5-.4-.3-.2 2.4 0 1.6.2 3.4.4 4 .4 1.8 1.2 8 1.6 12 .4 4.9 1 7 2.4 8.3 1 .9 1.1 1.2 1 2 0 .6-1.5.3-2.2-.5zm-21-.8c-.3-.2-.3-.5 0-1.6a105.9 105.9 0 0 0 2.7-15.6l.5-4.4a124 124 0 0 1 1.7-11.6l.7-3.9c.2-1.1.3-2.5.2-3.2-.2-1.5.4-2.8 1.4-2.8.8 0 1 .5.7 2.9a247.2 247.2 0 0 1-2.7 17.5 47.4 47.4 0 0 1-1.2 8 124.7 124.7 0 0 1-1.3 7.3c-1.2 6.6-1.8 8-2.8 7.4zM178 235c-.6-.7-1.7-3.7-1.7-5 0-.4.3-1 .7-1.3l.6-.6v-7.5c0-9.8.4-14 1.6-19.8 1-4.7 2.5-8.4 3.4-8.6 1.6-.4 1.8.6.5 3.1a55.8 55.8 0 0 0-3.6 22.6c0 5.6 0 5.6.2 5.6a8 8 0 0 0 .7-2.5 64.2 64.2 0 0 1 3.2-12l.6-2 1-2.3a173.6 173.6 0 0 1 2.9-8.2c.4-1.5 1.2-3.4 2.1-5.5 1-2.4 1.4-3 1.6-3.8a72.8 72.8 0 0 1 5.4-10.5c0-.2 2.2-3 3.3-4.1 1.3-1.4 2-1.3 2.5.4.3.8.4 1.6.3 2a26.2 26.2 0 0 1-4.3 7.4c-.6.9-1 1.1-1.5 1.1-.4 0-.9-.1-1-.3-.3-.5-.6-.2-1.5 1.8l-1 2.1c0 .3-2.3 5.8-3.1 7.6-.8 1.7-2.3 5.5-2.7 7 0 .4-.7 2-1.4 3.8a43.6 43.6 0 0 0-2.2 6.6c-1.2 3.7-2 7.3-2.6 11-.9 5.5-1 6.2-1.7 6.7-.6.4-.6.6-.4 2.6.2 3-.4 4-1.9 2.6zm1.8-10.8c0-.3-.2-.5-.3-.5-.2 0-.3.3-.3.7 0 .4.1.6.3.5.1 0 .3-.4.3-.7zm19.7-46.2.6-1c.2 0 .3-.3.3-.4 0-.5-.6-.1-1 .6a95.7 95.7 0 0 1-2.2 3.5c0 .4 1.8-1.7 2.3-2.7zm-48.6 47c-.2-.3-.1-1.4.1-3.5a181.7 181.7 0 0 0 1.1-10.5c.2-.6 1-9.3 1-12.9.2-3.3.5-4.7 1.2-5 1-.3 1 2.6.3 8.8a280.7 280.7 0 0 0-1.6 16.7c-.2 3-.3 3.5-.8 5.6-.3 1.2-.9 1.6-1.3.8zm8.2-29.6c-.4-1-.2-2.9.4-4.2l1.3-3.4a30.2 30.2 0 0 1 5.1-8.6c1.3-1.9 5.5-7 6.1-7.5.7-.6 1.1-.4 1.1.3 0 1-.3 1.6-1.8 3.3a44.2 44.2 0 0 0-3.9 5.3l-1.7 2.4a33.7 33.7 0 0 0-4.6 10.6c-.2 2.4-.3 2.6-1 2.6-.5 0-.8-.2-1-.8zm140.9 60.4c.8-.3.3-1.1-.7-1.1-.3 0-.3.9 0 1.1.2.2.2.2.7 0zm2.2-.7.4-1.4.8-2.3 1-2c0-.5.5-.9.8-1 .4 0 1-.6 1.4-1.3l2-2.7 3-4a63.7 63.7 0 0 1 15.9-16c1.3-1 4.2-2.6 5.8-3.2.6-.2 1.1-.5 1.1-.6 0-.2-1-1.1-2.1-2.2l-3.1-2.8c-.6-.5-1-1.2-1.2-1.5-.1-.6-2-2.3-3.8-3.6a108 108 0 0 0-16-13.1l-2-1.7a82 82 0 0 1-3.7-3.2 86.6 86.6 0 0 0-3.6-3.1 217.7 217.7 0 0 1-15.7-13.7l-1.3-1c-.4-.4-1-.9-1.6-1.2-.6-.3-1-.8-1.2-1.5-.5-1.4-1.3-2.2-2.5-2.5-.6-.2-1.1-.4-1.2-.6-.3-.4-.7-.2-.7.3 0 .9-.6 1.4-1.5 1.2-.6-.1-1.1-.6-2.1-2a56.3 56.3 0 0 0-3.2-4.3c-.5-.8-.4-.8-5-2a15 15 0 0 0-10.8 1l-1.7.8c-1 0-3.7-.9-5-1.7-.9-.5-2.2-1.1-3-1.3-2.5-.7-2.5-.7-2.4.6 0 .7.2 1.5.4 1.9l.6 2.6.6 3a84.9 84.9 0 0 1 1.7 12.6c.3 6.3.5 7.2 1.8 8.8l1.4 1.8 2.6 2.5a57.3 57.3 0 0 1 4 3.4l1.8 1.4c.3.4 2.1 2 4 3.5 1.7 1.6 3.4 3.3 3.6 3.7.5.7 2 2.2 3.8 3.5 1 .8 1.4 1.6.9 2-.7.6-1.5.1-4.1-2.3a53 53 0 0 0-3.5-3c-1-.8-1.4-1.4-1.7-3 0-.5-.5-1.1-1.2-1.7a95.2 95.2 0 0 1-3.9-3c-1-1-2.5-1.9-2.8-1.6-.1.1.1.5.5 1l.8 1.2c0 .3 1.4 1.6 2.9 2.9a180.3 180.3 0 0 1 10.3 9.7l4.1 3.8a58.8 58.8 0 0 0 8.8 7.5c.6.6 1.3 1 1.4 1l1.4 1.2a208 208 0 0 0 8.4 7.6l3 2.8c.7.6.8 1.3 0 1.6-.5.1-.8-.2-2.7-2.5l-1.2-1.2-3.8-3.6a59.4 59.4 0 0 0-8.2-7.1c-.7-.5-1.2-1-1.2-1.1 0-.1-.2-.3-.5-.4-.3 0-1-.7-1.8-1.3a179.2 179.2 0 0 1-14.3-13.2 14 14 0 0 0-3.3-2.7 61 61 0 0 0-4.2-3.5 4.4 4.4 0 0 1-1.2-1.5c-.2-1-2.6-3.2-3.1-3-1 .4-.5 1.4 3 4.8a356 356 0 0 0 17 16c3 2.8 3 2.7 2.5 3-.8.5-6-3.5-8.4-6.5l-2.1-1.9a111.7 111.7 0 0 1-8.4-7.4 35 35 0 0 1-2.3-2.2c-1.5-1.5-1.8-1.5-1.8.3 0 1.6 1 2.8 4.2 5.6a154.6 154.6 0 0 1 9.4 8.5 25 25 0 0 0 4.2 3.9c1.4 1 4 3.4 5.8 5.2 2.8 2.6 3.5 3.2 4.2 3.2.7 0 .8.1 1 .7 0 .4.4 1 .6 1.4.3.3.5.8.5 1 0 .5 1 1.5 2.4 2.4.3.2.6.6.6.9.1.2.4.5.7.5.3 0 .8.1 1 .3.4.4.4.4 0 .4-.2 0-.4-.1-.5-.3 0-.2-.2-.2-.3-.1-.3.2.6 1.5 1 1.5.3 0 .4-.1.3-.4-.2-.6.2-.7.9-.2.6.4.8 1.1.3 1.1-.6 0-.2.7 1.1 2a1068.8 1068.8 0 0 0 8.7 9.2c0 .4 1.6 2 2 2 .7 0 .4-1.1-.6-2.3a6831 6831 0 0 0-3.8-4.8 14 14 0 0 0 3 2.1c.3 0 1.2 1 3.6 4 .5.6 1 1 1.2 1 .2 0 .7.4 1.1.9l1 .8c.2 0 .6.2.9.6.3.4.6.7.8.7.2 0 .3.2.3.4 0 .5.6.5 1 0zm-5.2-5.9c-.4-.5.1-.5.7 0 .3.4.3.4 0 .4-.2 0-.5-.1-.7-.4zm-1-3-.8-1.3c0-.3-.2-.5-.4-.5-.4 0-1.3-1-1.3-1.5 0-.6 1.6 0 2 .9.3.4.7 1 1 1.2.5.7.7 1.3.5 1.7-.2.2-.4.1-1-.5zm-10.5-4.2-1.2-1c-1-.9-1.6-1.7-1-1.7.4 0 .8.4 2.5 2.3.6.6.3 1-.3.4zm6.6-.3-1.6-1.6c-1.8-1.7-2.8-2.9-2.5-2.9.2 0 .6.3 1 .8l1.9 1.5c1.7 1 2.6 2 2.4 2.4-.1.5-.6.4-1.2-.2zm-7.1-14.2-3-2.6a67.6 67.6 0 0 1-5.6-4.9 69 69 0 0 1-5.6-5.2c0-.6.5-.4 2.5 1a141 141 0 0 1 6.9 5.9c3.1 2.4 7.2 6 7.2 6.5 0 1-.8.8-2.4-.7zm8-1.3-2.3-2c-1-.6-2.2-1.6-2.8-2.3a27 27 0 0 0-12.3-10.5 19 19 0 0 1-2.1-1.5 12 12 0 0 0-1.8-1.4l-2.4-1.6a36 36 0 0 0-2.3-1.6l-2.4-2a9 9 0 0 0-1.8-1.5 56.6 56.6 0 0 0-4.5-3.7c-2-1.7-4.7-4.5-4.7-5 0-.2.2-.3.5-.3.5 0 3.8 2.7 6.2 5.2 1 .9 1.8 1.6 2 1.6l1.4 1 2 1.6a135.6 135.6 0 0 1 10 7.6l1.9 1.4 3.2 2.7a97.4 97.4 0 0 1 13.5 12.5c0 .7-.5.6-1.3-.2zm14.1 28.8.3-1.5c.2-.7.5-1.2 1.1-1.6.5-.4.9-.9.8-1 0-.4 1.4-2.5 2.2-3.2.3-.3.5-.6.5-.8 0-.2.4-.7.8-1.2.5-.5.8-1 .8-1.3l1-1.5a4423.2 4423.2 0 0 0 10-11.2c0-.3.7-.7 1.3-1 1.4-.5 2.2-1.3 2.4-2.5.3-1.1 3.3-3.4 4.5-3.4l.7-.4c.5-.7-.8-.5-2.4.3a24.2 24.2 0 0 0-9.1 6.8 65.4 65.4 0 0 0-11.6 13.8 53 53 0 0 0-3.6 7.7c-.7 1.2-.7 2.5-.2 2.5.2 0 .4-.2.5-.5zm21.2-2.3 2.3-2.4a10 10 0 0 0 1.6-2.3c.4-.8.7-1.1 1.5-1.4 2.1-1 2.5-2.1 1.1-3.6-.6-.8-.8-1.1-.6-1.9.1-.7 0-1-.5-1.3-.3-.3-.8-.5-1.1-.5-.4 0-.5.2-.3.8.5 2 .5 2-.7 3.1-4.3 3.9-6.9 7.5-6.9 9.6 0 .7.1.8.7.8.4 0 .7.1.7.3 0 .6 1.2 0 2.2-1.2zm-165-.7a31 31 0 0 0-8.6-4.2c-.2 0-.3.2-.4.5l-.1 1c-.1.4.1.6 1.4 1.2.8.4 2.2.8 3 1l2.2.5c1.3.4 2.5.3 2.5 0zm152.3-2.5c-.2-.3-2 1.7-2 2.1 0 .2.5-.2 1.1-.8.7-.6 1-1.2 1-1.3zm-291-1.9c.5-.9.5-2.4 0-2-.2.3-1 2-1 2.5s.8.2 1-.5zm104.8-2.3c.2-.2 0-.2-2.2-.3l-4-.3c-2.3-.1-2.5 0-2.2.3.2.2.9.4 1.7.5 2.3.1 6.5 0 6.7-.2zM22 243.1c1 0 1.5-.5 3.1-3.7l1-2c.9-1.5 3.5-6.8 3.5-7L29 229l-.5-1-.5.6a13 13 0 0 0-2.8 4.1c0 .3-.4 1-.9 1.7l-1.2 2.1c-.1.5-.7 1.6-1.2 2.4-.5.8-.9 1.6-.9 1.9l-.4.9c-.5.7-.5 1.8 0 1.6l1.3-.2zm29.8-2.5c0-.7-.6-1.7-1.1-1.7-.4 0 0 2.9.4 3.4.2.3.3.3.5-.3l.2-1.4zm24.2.2c.7-.2.6-.3-1-.5l-3.5-.9c-2.6-.8-3.8-.9-4.4-.4-.4.5-.7 1.5-.4 1.8.2.2 8.5.2 9.3 0zm-20.3-1.4c-.1-.2-.2-.2-.2.1 0 .3 0 .5.2.4v-.5zm70.4-1H124c-.7 0-.2.1 1 .1h1zm-76.4-.5.5-1.5c.3-1.4.9-2.7 1.9-4.8.5-1.1.7-1.3 1.3-1.2 1.3.2 1.3 1 .2 3.8a7.5 7.5 0 0 0-.7 2.4c.3.6 1.1.7 2.7 0 3-1 3.5-1.2 4.5-1.3.8-.1 1-.3 1.1-1v-1.4c-.2-.4-.2-.4-.7.2-.8 1.1-1.7 1-2.2-.2-.2-.6-.8-1.6-1.3-2.3-1.4-1.8-1.6-2.3-1.3-3 .5-1 1.5-.8 2.4.3.8 1 1 1.1 1.7.4.4-.4.8-.5 1.9-.5.9 0 1.5.1 1.7.3.6.8 1.1 3.1 1.2 5.7l.4 3.2c.4.8.9-.5 1-3.1.3-2.3.4-2.8.9-3.4l.6-.6-.7-1.3c-.6-1-1.5-3.9-1.5-4.6l.4-.6c.4-.3.5-.3 1.2 0 1.2.6 1.5.5 1.7-.6.1-1-.4-3.2-1-4-.1-.1-.7-.3-1.1-.3-.7 0-1.2-.2-2-.8-1.2-1.2-1.3-1.2-1.6-2.6l-.5-1.2c-.2 0-.7.1-1.2.4-1.7 1-2.8 0-2.8-2.4 0-1.4-.5-1.4-2 .1-.7.7-1.6 1.4-2.1 1.7-.9.4-1 .4-1.7 0-1.2-.6-1-2 .7-5.8.5-1.2.9-2.2.8-2.3l-2.6 1c-1.8.9-2.5 1-3.1 1-.7-.2-.8-.3-.8-1.1 0-.9 0-1 1.7-1.6l2.8-1.3.9-.6h-1c-1.3-.1-4.4.5-7.5 1.4-2.6.8-3 .8-3.9.1-.6-.5-.6-.5-.1-1.3l.4-.8h-.7c-1.2 0-2-1-1.4-1.8.8-1.3 8-2.4 11.5-1.8 1 .2 2.3.5 2.7.8.5.2 1.4.4 2.1.4 1.6 0 2.5.6 3.1 1.9.6 1.1.5 2.2-.3 3.4-.9 1.2-2.2 3.7-2 3.7.2 0 1.1-.5 2.1-1.2 1.8-1.2 3.1-1.5 3.8-.9.4.4.4 1.7 0 2.4-.5.9.1 1.2 1 .5.9-.6 2.1-.5 2.6.1l.2 2.4c0 1.2 0 2.3.2 2.5.3.5 2.8 1.4 4.1 1.5 1.4 0 2.5.7 3.4 2 1.4 1.9 1.3.8-.5-5-.4-1.2-1.1-2.8-1.8-3.9-1.3-1.8-1.4-2.4-.9-3 .8-.8 2.3.2 3 1.9.2.6.7.6 1.5 0 .6-.5.6-.6.3-1.8-.2-.7-.4-1.8-.4-2.6 0-1.2 0-1.6-1-2.7-.9-1.2-1.3-1.5-3-1.8-1.5-.4-2-2.1-1-3 .4-.2.6-.4.4-.6l-3.4-1c-3.1-.6-4.4-1.1-4.4-1.7a64.6 64.6 0 0 1-.3-4.1c-.1-.1-.6 0-1.1.3a3 3 0 0 1-1.7.2c-.7-.1-.8 0-1 .7-.4 1-1.3 1.2-3.3.8a16 16 0 0 0-2.3-.3h-1l.8.6c.6.5.8 1.4.4 2 0 .2-.8.4-1.6.4h-1.5v1.2c-.1 1.5-.8 1.9-2.9 1.9-1 0-2.5.3-4.4 1l-3.4.9c-.2 0-.7.2-1.1.5l-1 .5c-.2 0-.1.3.2.6 1 1 .8 1.5-1.6 3.1l-2.8 1.8a15 15 0 0 0-4 2.8c0 .1.3.2.7.2.7 0 1.7.8 1.7 1.4 0 .6-1 2-2.1 2.9-1.2 1-1.3 1.3-.6 1.3 1 0 1 1.2 0 1.8-.8.4-2.7 2.9-2.5 3 0 .2.7 0 1.5-.2 1-.4 1.4-.5 2.2-.2.8.3 1 .3 2.9-.7 2-1 5-2 5.5-1.8.4.3.3 1.2-.3 1.7-.3.3-1.3.8-2.1 1a10 10 0 0 0-4.5 3c-.5.7-.5.8-.1 1 .2 0 1-.2 1.6-.6 5-3 5.2-3.2 6.9-3.5 1-.2 1.2-.2 1.4.3.5.8 0 1.7-1.3 2-3 1-4.8 2.4-6 5l-1.3 1.9c-.7.9-.6 1.1.3 2.4.2.2.6-.7.6-1.3 0-.5.4-1 1.3-1.9L36 225c.2-.3.8-.6 1.2-.7.4 0 1.4-.5 2.2-.9 2.4-1.3 4-1.7 5-1.3.9.3 1 1 .4 2.2-.4.8-.6 4.1-.2 4.1l.6-.4c.6-.6 1.5-.3 2 .7l.6.8.1-.8.2-1.9c0-1.2.5-1.8 1.5-1.3.3.1.7.6.9 1 .4 1 0 3.7-.6 5.6l-.6 2.4a11 11 0 0 1-.8 2.2c-.9 1.6-.9 1.9.2 1.6a3 3 0 0 0 1-.3zM32 215.7c-.6-1 1.6-3.8 3.7-4.9 1.5-.7 3.2-1 3.7-.4 1 1 .5 1.5-1.2 2-1.4.4-4.1 2-4.1 2.6 0 .4-1 1.1-1.5 1.1-.2 0-.5-.2-.6-.4zM21.2 234c.5-.2 2.3-2.6 2.3-3 0-.4-1-.2-2.4.4-1.8 1-1.7 3.3.1 2.6zm23.4-3.2V229l-.3 1.3c-.5 1.7-.6 3-.1 2.6.2-.2.3-1.2.4-2.1zm196.1 1.1a296 296 0 0 0 13.8-2l4.2-.3c3-.2 3.8-.4 4.8-1 1.4-.8 1.6-1.2.6-1.7-.5-.2-.9-.2-1.6 0-1.6.6-6.1 1-11.5 1a57 57 0 0 0-10 1c-2.2.3-3.6 1-4.4 2-1 1.2-.9 1.7.2 1.6l4-.6zm-204.4-1.2c.5-.6.9-2.4.4-2.4-.3 0-1.3 2-1.3 2.6 0 .5.4.4.9-.2zm-14-1.9c.4-.4.7-.8.7-1.3 0-.6.3-1.2 1.5-2.5 1.6-1.6 2-2.2 1.2-2.2-.6 0-1.3.8-3 3.5-2 3-2.1 3.8-.4 2.5zm319-2.9c0-.5-.9-1.8-1.1-1.7-.4.2-.3.7.1 1.4.5.6 1 .8 1 .3zm-312.5-2-.7.4-.6 1c0 .4.2.2.6-.3l.7-1zm230.5.4c.9-.4 1-.6.7-1-.4-.4-1.4-.3-4.2.3-1.1.3-4 .5-7.7.6l-6.1.3c-.8.5 1 .6 8.2.5 7.4-.2 8.2-.2 9.1-.7zM249 220h-.8c-.3.1-.1.2.3.2s.7 0 .5-.2zm8.8-.4c-.1-.5-.7-.5-.7 0 0 .2.2.3.4.3.3 0 .4 0 .3-.3zM251 216c.9-.2.5-.7-.8-1.1-1.5-.5-2-.3-2 .5 0 1 .2 1.1 2.8.6zm58.6-24.7a41.7 41.7 0 0 0 9.1-14.6 6 6 0 0 0 .5-3.4c-.2-1.5-.1-1.8.3-2.2.5-.4.5-.8.6-3.8.3-10.4 0-13.9-1-15.7a16 16 0 0 1-1-6.2 7 7 0 0 0-.8-3.6c-.5-1-1.3-2.2-1.8-2.8-1-1-1-1.1-2.2-1-1.1.2-1.2.1-1.2-.6 0-.4.2-1 .3-1 .6-.6.2-1.6-1-2.4-1-.8-2.4-2.9-3-4.6a21.8 21.8 0 0 0-6-7 57.7 57.7 0 0 0-12.7-2.9 48.2 48.2 0 0 0-25.7 2l-2.7.7c-.7.3-1.8 1.5-1.8 2l-.8 2.5-.8 2 .7 1.4c.4.7.8 1.5 1 1.6.5.4 1.4.2 2.5-.7a52.5 52.5 0 0 1 12.1-4l2.5-.4c2.2-.6 9.3-.2 11.3.6 1 .4 2 .6 3.5.6 1.7 0 2.2 0 2.7.5.7.5.7.6.4 1.5-.5 1-.3 1.3 2 2.5 3.1 1.5 5.1 2.7 5.5 3 .2.2.3.6.2 1-.2.6-.4.7-1.1.7-.5 0-1.4-.1-2-.3-2.4-1-7.8-1.4-9.5-.9-1 .4-.6 1.4 1.3 3 4 3.4 6.6 5.8 6.7 6.2v2.3c-.1 1.5-.3 2-.7 2-1 .4-2.1-.3-5-3.4-.9-1-1-1-1.5-.7-.4.2-.4.4 0 1.1.6 1 .7 4 .2 4.7-.8 1-2.2.2-6.7-3.7-1.2-1-1.3-1-2.8-.9l-3.6.3c-2 .1-2.3 0-3-.5-.5-.3-1-.8-1.2-1.2-.4-.8-.9-.7-1.7.3l-2.4 2.4a13.3 13.3 0 0 0-2.8 3.6c-.8 1.2-.6 1.4 2 2.4a45 45 0 0 1 8 4c.5.5.8 1 1 1.7 0 .8.3 1.1.8 1.4 1 .5 2.7 2.8 3.8 5.1.5 1.1 1 2.1 1.2 2.2l.9 1.5c.5 1 .7 1.7.7 2.9 0 1.4 0 1.7.6 2.1l9.2 8.1a74 74 0 0 0 12.5 10.7l2.4-2zm-4-6.6c-.5-.2-.4-1 .2-1.5a17.2 17.2 0 0 0 3.7-9.7c.4-3.8.4-4 1.2-4 1 0 1.3 1.2 1 3.2l-.8 3.7c-.3 2.2-1.8 5.5-3 7-.8.8-1.9 1.5-2.3 1.3zm-5.2-2c0-.2.2-.8.5-1.3 1.3-1.7 2-2.8 3.2-5 1-2 1.2-2.4 1.3-4.3.2-2.5.3-3 .8-3 .6 0 .7.9.5 3a23.8 23.8 0 0 1-4.6 9.5c-.9 1.2-1.5 1.7-1.7 1zm-3.8-3.2c-.2-.2-.1-.6.4-1.2a10 10 0 0 0 1.9-4c.2-1.3 1.2-2.2 1.5-1.4.3.8-.4 3.3-1.4 5-1 1.6-2 2.2-2.4 1.6zM66 189.7c0-.5-.6-1.3-1.1-1.6-.5-.3-.5-.3-.4.6l.3 1c.2.4 1.2.3 1.2 0zm257.3-1.2c.4 0 1.4-.3 2-.6 1.2-.5 1.3-.7 1-1a5.8 5.8 0 0 0-3.4-1.5c-3.8 0-4 0-4.9.6-1 .7-1.1 1.2-.5 2 .6.8 2.4 1 5.8.5zm2-4.9c.3-.3-3.8-6.3-4.3-6.3-.3 0-2.1 3.4-2 3.7.5.6 2.8 2 4.3 2.4 2 .5 2 .5 2 .2zm-44-14.4-1.6-3.1a9.2 9.2 0 0 0-1.7-2.7l-1.6-1.2c-1-.7-1.1-1-1.1-1.7 0-.8-.3-1.1-1.3-2a11 11 0 0 0-3-1.8c-2.3-.9-2.7-.9-2.9 0 0 .3-.5 1.1-.9 1.7-.4.6-.7 1.3-.6 1.5.3.7 1 .8 1.6.2 1-.8 1.2-.9 1.6-.4.3.3.4.7.3 1.2-.1.5 0 1 .3 1.3.2.3.4 1 .4 1.4 0 .7.2 1 1 1.6 1.4.9 2 .8 1.6-.3-.3-.9-.3-1 .1-1.5.7-.6 1.3-.2 2.2 1.4.5.9 1.1 1.7 1.6 2l2.5 1.9a11 11 0 0 0 1.8 1.3l-.4-.8zm-29.8-10.6 2.3-.3 3.3-3.4c2.4-2.4 4-3.8 6-5 2.7-1.8 4.3-3.4 4.6-4.6.2-.8 1-1.9 2.3-3.4l1.8-2.3c.4-.7 1-1.4 1.4-1.5.3-.1.9-.5 1.2-1 .8-.8 1.7-.8 2.4.1s.7 1.1 0 2c-.4.3-.8 1-.9 1.8l-.1 1.2 2.4.4 4 .4c1.5.2 1.6.2 2 1 .4 1.3 3.2 3.8 4 3.9.2 0 .5-.5.7-1l.7-1.2c.5-.3-.3-1.1-1.9-2-1.1-.5-1.7-1-2.1-1.7-.5-.8-.5-1-.1-1.3.6-.5 2.4.5 5.1 3 1.1 1 3.2 1.6 3.6 1 .4-.7-2.3-2.8-4.2-3.3-.3-.1-.9-.7-1.3-1.3-.4-.7-1-1.3-1.3-1.5-1-.5-1.3-1.2-1.1-3 .2-2.1.4-2.3 3.5-2.3 1.6 0 2.7 0 2.8-.3.2-.3-.6-1.2-1.6-1.7l-1.6-.8c-1-.6-3.8-.8-8.5-.9-3.4 0-4.1.1-5.2.5l-1.1.6v2c.2 1.9.1 2.2-.2 2.2-.2 0-.6-.5-.9-1.1a8 8 0 0 0-1.1-2l-.7-.8-2.8.3c-2.2.2-3 .4-3.5 1l-1.8.7c-1 .1-1.3.5-.7 1 .4.5-.3 2.5-1 2.7-1.2.3-1.2.6-.8 3.6.3 1.5.4 3 .3 3.4-.3 1.3-1.5 2-1.5.8l-.4-1.2c-.2-.4-.5-1.3-.5-1.9-.3-1.4-.6-1.8-1.1-1.4-.2.1-.4.4-.4.6a127 127 0 0 0-3 7.2c-.4 1.3-.5 1.4-1.2 1.4s-.8-.1-.8-.6c0-.4.3-1 .6-1.4 1-1.1 1.2-1.8 1.9-5 1.2-5.3 1.4-8.7.7-11.5-1-3.6-1.3-4.3-4-7.5-1-1.1-1.8-1.8-2.3-1.9-.5 0-.9-.4-1.1-1-.4-1-2-1.8-3.5-1.8-1 0-1.4.2-2.2.8-1.1 1-2 2.6-2 3.7 0 .4-.1.9-.3 1-1.6 1.3-1.8 1.6-2.5 3.9l-1 4a19 19 0 0 1-.6 3.1c-.6 1.8-1 6.7-.6 7.4.4.8.6 4 .2 4.3-.4.3-.3 1.2.4 3.4.4 1.1.7 2.3.7 2.6 0 .7 2.2 2.7 3.9 3.5 1.2.6 4.4 1.8 6.3 2.5 1 .3 1.8.3 4.4 0zm13.3-.2c.9-.9 2-2.8 1.9-3.1-.4-.6-1.7-.3-2.8.8-1.2 1-1.2 1-.7 1.5.2.3.4.7.4 1 0 .6.4.5 1.2-.2zM227.4 143c.2-.4.3-1.5.4-2.6.4-3.6 1.4-8.5 2-9.9.6-1 1.2-1.5 1.7-1.5.8 0 .8.5 0 2.4-.9 2.3-1.3 4.1-1.6 6.7l-.5 2.7c-.2.8.6 1.1 1.3.5.5-.5 1.6-3.5 2-5.8.7-3.4.9-4.2.9-5 0-.6.1-1.4.4-2l.4-1.3c0-.3 2-5.2 3.2-7.7.5-1 2.5-2.3 4.6-3 1.6-.5 1.9-.5 3.6-.2 1.6.3 2 .5 3.2 1.6a42.6 42.6 0 0 1 7.5 8.2c.2 0 .5-.5.6-1.1l.6-2c.4-1 .4-7.3 0-8.7-.3-1-.5-1.2-1.5-1.6-1-.5-1.6-.5-9.5-.7a53 53 0 0 1-9.3-1c-.4 0-1.7-.5-2.8-1-1.8-1-2.4-1.1-3.7-1.1-1.7 0-2.5.3-5 2.2a79 79 0 0 1-2.4 1.6c-.6.3-1.2 1.1-1.6 2-1 2.1-2.3 4.8-2.5 5.5-.2.7-1.7 3.2-2.6 4.4-1.1 1.5-1.2 2-.7 3.7l1 2.7 1 2.6c.4 1.3.9 2 3 4.2 1.3 1.4 2.4 2.7 2.4 2.9l1.2.7c.7.3 1.3.8 1.6 1.3.5 1 .8 1 1.1.3zm-2.7-16.4c-.2-1.4.6-2.9 2.8-4.8a45 45 0 0 1 14.6-9c.5.1.6 1.2.1 1.6a25.1 25.1 0 0 0-7.4 4l-3 2c-2.3 1.4-5.4 5-5.4 6 0 .4-.7 1-1.3 1l-.4-.8zm91.8 5.2c.8-1.1 2.2-4 2.6-5.8l.8-2.3c.2-.6.6-2 .7-3 .5-2.5.3-2.8-1.7-2.8-1.5 0-5 .8-6.7 1.6-2 .9-3.2 1-4.8.6-1.9-.5-4.6-.5-4.5 0 .1.1.7.6 1.4.9.8.4 1.4 1 1.9 1.7.7 1.3.8 1.4 2.6 1.7 1 .1 1.4 0 2.1-.4 1.1-.7 1.5-.7 1.5 0 0 .9.7.9 2.2 0 1.5-.9 2.5-1 3.1-.1.4.4 0 1.4-.5 1.4-.6 0-3.2 1.2-3.8 1.8l-.9 1.7-.4 1.3 1.4 1.3a6 6 0 0 0 1.9 1.3c.2 0 .7-.4 1-1zM136.6 85c0-.2-.1-.1-.1.2 0 .3 0 .4.1.3v-.5zm257.8 191c0-.2.2-.4.4-.4s.4.2.4.4-.2.4-.4.4a.4.4 0 0 1-.4-.4zm-54-2.4c-.2-.3-.1-.5.3-1 .5-.4.9-.5 4.8-.5 2.4 0 6.7 0 9.5-.2a430 430 0 0 1 27.3 0v.6s-1.6.2-3.6.1a1655 1655 0 0 1-22.8.5c-12 .2-13.5.3-14 .6-.8.4-1 .4-1.4 0zm43.8-1.2c-.3 0-.6-.2-.6-.4 0-.3.3-.4 1.1-.4l3.2-.3c1.8-.3 2.1-.3 2.5.1.4.4.3.5-.7.7-1.1.3-4.4.5-5.5.3zm-55.3-2.4c-1.3-.4-1.3-1-.2-1.5.8-.3 2.3-.4 7.7-.5l6.7-.1v.6c0 .4-.2.7-.5.8l-4.8.5-6.2.3-2.7-.1zm30.3-.4-7.4-.2c-7.1-.2-8-.3-8-1.1a142.6 142.6 0 0 1 23.3-.1c1.8-.5 23.7-.4 24.5 0 .5.3.5.3 0 .7-.3.3-.9.3-1.8.2l-4.9.1c-2.9.2-25.5.6-25.7.4zM106 237.6c-.3-.2-.3-.3 0-.5.3-.3.4-.2.6 0 .1.5-.2.8-.6.5zm7.6-6.2a38.8 38.8 0 0 0 6.8-7.5c.4-.6 1.8-3 2.6-4.7 1.4-3 1.7-4 1.7-5.1 0-2.4.8-4.3 1.4-3.4.5.7-.2 4.5-1.3 7l-.6 1.5a26 26 0 0 1-4.5 7.5l-1.7 2.1c-1.4 2.1-4.4 3.8-4.4 2.6zm-5.4-1.1c0-.3.2-.6 1-1 1.6-.7 4.8-4 5-5l.7-2a31 31 0 0 0 2.5-10.1c0-1 .2-1.5.5-1.7.7-.5 1 .2.8 2a32.3 32.3 0 0 1-2.6 10c-1 3.3-3.4 6.2-5.9 7.5-1.6.8-1.8.8-2 .3zm16-1c0-.4 2.5-2.8 3.1-3 .3 0 .6-.3.6-.6s.3-1 .8-1.6l.8-1.5.4-1.2 1-2.6.8-3.2c.2-.8.4-2 .4-2.8 0-1 .1-1.4.4-1.4.2 0 .5.3.6.7.2.8-.3 4.6-.9 5.9l-.3 1.4a25 25 0 0 1-4.6 8c-.1.3-.7.8-1.3 1.2l-1 .8c0 .4-.8.3-.8 0zm-34.5-.8c-.5-.6-.3-1.2.6-1.4 3-.6 5.4-2.2 6.6-4.5.8-1.6 1.5-2 1.8-1.2.2.8-1 2.9-2.6 4.5-2 2-5.5 3.5-6.4 2.6zM.2 228c-.4-.3-.2-1 .4-1.3.6-.2 1.2.5.9 1-.3.6-.7.6-1.3.3zm77.7-.2c-2.3-.8-2.8-1.4-2.8-3 0-1 .3-1 1.5.2.9 1 1 1.1 2.4 1.1.9 0 1.7.2 2 .3.7.6.3 1.4-.7 1.7-1 .2-1.2.1-2.4-.3zm-73.2-4.8c-.3-.1-.6-.3-.5-.4v-.5a39.7 39.7 0 0 0 4.8-.5c2-.2 2.8 0 2.3.8-.2.3-.8.4-2.3.4l-2.8.2H4.7zm101.4-1c-.3-.4-.1-1.4.4-3 .8-2 2-1.7 1.4.6-.6 2.3-1.3 3.2-1.8 2.5zm244.3-8.9c-2 0-4-.3-4.5-.4-.7-.4-.8-.4-.5-1a34.2 34.2 0 0 1 13 .4c.3.4.3.5 0 .9-.6.4-1 .4-8 .1zm-33.6-15.4c-.5-1.2.7-1.5 6-1.8l9.8-.5a485.8 485.8 0 0 1 30-1c2.3-.3 3.8 0 3.8.7 0 .3-.3.6-.7.8-.8.3-6.6.5-18.5.7-4.2 0-7.7.2-7.8.3l-6.8.2c-6.1.2-10.5.4-14.2.9-1.2 0-1.5 0-1.6-.3zm279.7-4.8c-.2-.2-15.8-.7-28.1-.8a234 234 0 0 1-20.6-.6c-1.5-.2-2-.8-1.5-1.5.4-.5.7-.5 7.1 0 1.7.2 5.6.4 8.8.4 3.1 0 7.7 0 10.2.2 2.4.2 7.3.3 10.8.3 7.7 0 13 .2 14.2.5 1.4.3 1.3 1.6-.2 1.6h-.7zm-.3-3.2c-.5-.1-5.8-.2-30.7-.5a129 129 0 0 1-20-1c-.3-.1-.5-.4-.5-.7 0-.7 1.2-.8 3.8-.5a281 281 0 0 0 32.6 1l7.6.1c7 .2 8.6.4 8.6 1.3 0 .4-.3.5-1.4.3zM66.4 179.3c-.6-.7-.7-1.8-.2-3 .5-1.3 1.8-2.6 2.4-2.4.6.2.5.8-.3 2-.4.6-.6 1.5-.7 2.3 0 1.3-.6 1.8-1.2 1.1zM51.6 178c-.4-.4.3-2.9 1-3.8a25.8 25.8 0 0 1 8-9.4c1.3 0 .8 1-1.4 3a30.2 30.2 0 0 0-4.6 5c-.6.6-1.4 2.3-1.7 3.8-.4 1.4-.8 1.9-1.3 1.4zm6.7-1c0-.4.2-1 1.2-3.4.5-.9 1.8-2.4 2.2-2.4.6 0 .5.6-.2 1.6l-1 1.5a5 5 0 0 1-.6 1.1l-.5 1.1c-.2.8-.9 1-1 .4zm269.3-.6-.7-1.5c-.3-1 .9-.6 1.5.6.5.8.5 1 .1 1.3-.3.4-.4.3-.9-.4zm-279.2-.7c-.6-.2-.3-1.7.5-3.4.9-1.7 2.3-3.5 2.5-3.2.2.2-.4 1.8-.7 1.8-.3 0-1 1.9-1.3 3.3-.2 1.3-.5 1.7-1 1.5zm298.5-13c-.7-.2-.3-1.4 1-3l2-3a126.8 126.8 0 0 1 8.4-11.7c.3-.5 1-1.7 1.7-2.5l1.8-2.4a51.5 51.5 0 0 1 4.2-6c0-.3.3-.5.4-.5l.5-.8c.1-.4.6-1.3 1.1-2l1.8-2.6a156.4 156.4 0 0 1 9.1-12.9 32 32 0 0 1 3-4.1l1.4-2 1.6-2.2a33 33 0 0 0 2-2.9l1.4-2c.7-.7.8-.7 1-.4.2.7.2.8-1 2.3a71.2 71.2 0 0 0-5.3 7.6 55.8 55.8 0 0 1-3.7 5.1 183 183 0 0 0-8.8 12.9l-1.7 2.2c-.5.8-1.1 1.5-1.4 1.7-.3.2-.5.5-.5.7l-.7 1.3c-.5.6-1.1 1.8-1.5 2.6-.4.8-1.3 2.1-2 2.9a56.3 56.3 0 0 0-6.8 8.7c-.2.6-3 5.1-4.2 6.8l-2.4 3.7c-1.6 2.5-1.8 2.8-2.4 2.6zm15-10c0-.4.5-1.1 1.8-2.4l2.1-1.9c.2 0 .4-.2.4-.5.1-.3 1-1.3 1.8-2.2a39.5 39.5 0 0 0 5-6 20.4 20.4 0 0 0 2.5-3c0-.2.4-.6.6-1a31.2 31.2 0 0 1 4-5.3c.1-.6 2.2-2.8 2.2-2.3l-1.2 2-1.9 3a41.8 41.8 0 0 1-5.1 6.8c0 .2-.6.8-1.2 1.4l-1.4 1.6c-.4.7-3.6 4.3-4.9 5.4l-1.9 2.5-1.9 2.4c-.5.4-1 .2-1-.4zm-23.4-1c.2-.6.8-1 1-.7.2.3-.3 1.4-.7 1.4-.3 0-.3-.2-.3-.7zm1.2-1.2.6-1c.4-.3.7-.5.7-.3s-.3.6-.7 1c-.3.3-.6.5-.6.3zm1.5-2.2c0-.2.5-1 1-1.6l1.4-2.5c.3-.6.8-1.2 1-1.3.2 0 .4-.3.4-.5s0-.3.2-.3.3-.3.3-.5c0-.3.5-1.3 1-2.2.9-1.2 1.2-1.6 1.4-1.3.1.2 0 .6-.2 1l-1 1.5c-.2.6-.7 1.2-1 1.5l-.6 1c0 .5-.3 1-.5 1.1l-1 1.6c-1 1.5-2.4 3-2.4 2.5zm224.9-9.5c-.2-.5 1.2-3.2 2.1-4.3l1.4-1.8 2-2.9 2.7-3.4c.7-.9 1.6-1.8 2-2l.7-.4-.4.8-2.3 3a20.1 20.1 0 0 0-2.8 4c-.3.1-2.3 3.1-2.5 3.7a16 16 0 0 1-2.6 3.7c-.1 0-.3-.2-.3-.4zm-432.6-1.3c-2.9-.3-2.8-.8 0-1a56 56 0 0 0 7.9-1.5 59.6 59.6 0 0 1 7-1.3c.6-.4 4.7-1 5-.9.5.3 1.6.3 1.6 0s2.5-1 3.1-.9c.3.1.6 0 .6-.1 0-.2.2-.3.4-.3.4 0 .4 0 0 .3-.6.7-1.4 1-3.1 1.3-1 .1-2 .4-2.3.6l-3.5 1a36.5 36.5 0 0 0-6 1.5l-2.2.4-6.6 1.2-2-.3zm214.6-.2a27 27 0 0 1 2.5-4.7l1.6-2.6a57.8 57.8 0 0 1 5.6-7.8l1.9-2.4a145 145 0 0 0 5.1-6.3l.7-.8 1-1.4 1-1.1c1-1.6 3-3.9 3.2-3.9.3 0 .2 1-.2 1.2-.2 0-.4.3-.4.6 0 .2-.1.4-.3.4l-.4.4c0 .3-.6 1-1.3 1.7l-1.7 2.2c-.3.5-1.1 1.7-2 2.5a35 35 0 0 0-4.9 6.5 91.1 91.1 0 0 0-6.9 9.6c-.6.7-1 1.4-1 1.5l-1.1 1.8c-1.2 1.8-2.4 3-2.4 2.6zm-274.9-4c0-.4 2.1-2.7 6.3-6.8l7.6-7.9c3.2-4 12.3-13.3 12.8-13.3.2 0 .3.1.3.3 0 .4-2.5 3.4-4.8 5.8a33.4 33.4 0 0 1-4.5 5 59155.3 59155.3 0 0 0-8.7 8.7c-8.5 9.1-9 9.5-9 8.2zm266-2.1c0-.8.8-2.2 3-5 1-1.1 1.8-2.3 2-2.6a36 36 0 0 1 4.5-5.6 33.2 33.2 0 0 0 4-4.7l1-1.4c1-1.7 1.6-2.6 1.9-2.6l.6-1c.5-1.2 3-5 5.2-7.4l2.7-3.6c.5-.8 1.2-1.7 1.6-2 .4-.4.7-.8.7-1 0-.4 2-2.4 2.3-2.2.2.3-1 2.2-4.3 6.5a64.9 64.9 0 0 0-3.8 5.2c-.4.3-.8 1-1 1.4-.5 1-1.9 2.8-2.7 3.7-.7.7-4.1 5.4-4.9 6.5-.3.5-.9 1.2-1.4 1.6-.5.4-.9 1-.9 1 0 .3-.3.8-.7 1.2l-1 1.2-2.3 3-3.8 5.4c-1.9 2.8-2.8 3.6-2.8 2.4zm-277.2.1c-.4-.5 0-1.2.9-1.8a5 5 0 0 1 1.3-.7c.6 0 .3 1-.6 1.8-.9.9-1.2 1-1.6.7zm28.4-.3c0-.2.2-.4.5-.6l1.4-1.2a208.6 208.6 0 0 1 4.6-5c.4-.5 6.3-6.7 6.6-6.7a41 41 0 0 1-6 7.4l-3.6 3.5c-2.6 2.6-3.5 3.2-3.5 2.6zm21.3-.8c-.3-.6.3-1.4 2.6-3.5a72 72 0 0 0 4-3.7c.5 0 0 .8-2.2 3a21.7 21.7 0 0 0-2.7 3.4c-.5 1-1.3 1.4-1.7.8zm59-.6c-.5-.8-.5-1.3 0-1.3.6 0 1.5 1 1.3 1.5-.2.5-.8.4-1.3-.2zm-3.8-3.8-3-3-5.2-5a77.1 77.1 0 0 0-5.7-5.6 50.7 50.7 0 0 1-7.3-7.2c-.4-.7.2-1 .9-.3l1 .7c.3 0 .5.3.5.5s.8 1 1.6 1.6c1 .8 2 1.8 2.2 2.3a402.2 402.2 0 0 1 16 15c1.5 1.4 1.8 2 1.7 2.4 0 .3-.3.6-.4.6-.2 0-1.2-1-2.3-2zm-46.1-5.3c1-1.2 1.6-1.7 1.6-1.1 0 .5-1.8 2.3-2.2 2.3-.3 0-.1-.4.6-1.2zm413 .7c0-.3.9-1.5 1.9-2.6a322.4 322.4 0 0 0 10.6-12.9c.9-1.3 4.6-5.2 4.8-5 .2.1-1.2 2.2-2 2.9l-3.7 4.4a169.3 169.3 0 0 1-5 6.3c-.2.5-.8 1.3-1.2 1.7-.5.4-1.3 1.4-1.8 2.2-1.1 1.8-2.7 3.5-3.2 3.5-.2 0-.3-.2-.3-.5zm46.1-1c0-.5 1.6-2.2 1.8-1.7 0 .2-.3.8-.8 1.3-.6.5-1 .7-1 .5zm-64.8-.4c-.5-.5-.4-.8 1-2.6l1.6-2.2a77.1 77.1 0 0 1 4.5-5.7 25.4 25.4 0 0 0 3.5-4.7 52.4 52.4 0 0 1 3-4l1.4-1.7.9-1.2c0-.2.6-1 1.3-1.7a44.9 44.9 0 0 0 4.9-5.8l1.2-1.6c.6-1 5.5-6.3 5.8-6.3.4 0 .3.7-.2 1a205.2 205.2 0 0 0-9 11 115.8 115.8 0 0 0-7.7 9.8 47.1 47.1 0 0 0-3.8 5.5c-1.1 1.2-1.7 2-2.7 3.4l-2.2 2.9c-.6.8-1.5 2-1.8 2.7-.8 1.3-1.2 1.6-1.7 1.2zm67.4-3 .2-.7c.2 0 .7-.8 1.3-1.6l2.6-2.9 2.2-2.6c.8-1.4 4.4-4.7 4.6-4.2 0 .1 0 .4-.2.4a27 27 0 0 0-2.6 3.3c-.1.3-.9 1.1-1.6 1.9a95.6 95.6 0 0 0-5.9 6.6c-.5.5-.6.5-.6-.1zm-478.3.1c0-.2.5-1 1.2-1.6.7-.7 1.2-1 1.2-.7 0 .2-.6.9-1.2 1.5-.7.7-1.2 1-1.2.8zm178-4.5c0-.2.7-1 1.4-2 1.9-2 3.3-4 5-6.7l2.5-3.3 1.9-2.3a29 29 0 0 1 2.6-3.3c1-1 2-2.1 2.1-2.5.6-1 2.2-2.4 2.7-2.2.5.2 0 1-1.6 2.6a28.7 28.7 0 0 0-3.6 4.3l-1.6 1.9a13 13 0 0 0-1.8 2.4c-.4.7-1 1.7-1.6 2.4-.6.6-1.3 1.7-1.7 2.4-1.3 2.6-4.8 6.6-5.8 6.6-.2 0-.5-.1-.5-.3zm44.6-.2c-.4-.2.8-2.1 2.4-3.8.7-.6 1.2-1.3 1.2-1.4 0-.2.2-.5.5-.8l.6-.7c0-.2.3-.7.7-1.1 1.7-1.7 2.7-2.9 2.7-3.1 0-.1.1-.2.3-.2.5 0 .2.7-1.4 2.6l-1.5 2.1-1 1.3c-.6.5-1.4 1.6-1.9 2.5-1 1.7-2.2 2.9-2.6 2.6zm-217-1.8c0-.4 1-1.3 1.2-1 .2.2-.5 1.2-.9 1.2l-.4-.2zm180-1c-.1-.3.2-.9.8-1.5l2.2-2.7a68 68 0 0 1 2.7-3.2 78.5 78.5 0 0 0 5.7-7c4-4.4 4.3-5 3.4-5-.5 0-.5-.5 0-1 .9-.9 3.4-1.6 3.7-1 .2.5-.6 1.7-2.5 3.7a84 84 0 0 0-6.2 7.1 10 10 0 0 0-1.5 2c0 .1-1 1.3-2.3 2.6a32.5 32.5 0 0 0-3.7 4.6c-1.1 1.5-2 2-2.4 1.4zm-1-.9v-.5c.2-.4.9-.4.9 0s-.7.8-1 .5zM114 106c0-.3 1.4-2.2 1.7-2.4.7-.3.7.1-.3 1.3-.9 1.1-1.4 1.6-1.4 1.1zm227.4-1c-.2-.3.7-1.3 2.7-3.4a114.5 114.5 0 0 0 8.7-9.8l5.5-6.8c2.5-2.6 3-3 3-2.4 0 .3-2.5 3.6-3.5 4.7l-2.9 3.4a82 82 0 0 1-6.6 7.6c-3.2 3.6-6.4 7-6.6 7-.1 0-.3 0-.3-.3zm31-.4c0-.3.6-1.4.8-1.6l1-1.1c.4-.6 1-1.2 1.3-1.3.4-.2.7-.5.7-.8 0-.2 0-.5.2-.5l1.8-2.5c.8-1.3 2-2.8 2.7-3.4 1.2-1 1.2-1 1.3-.5 0 .4-.1.8-.6 1.1a11 11 0 0 0-1.6 2c-1 1.7-2.9 3.6-3.3 3.6-.1 0-.3.2-.3.5s0 .5-.2.5c-.1 0-.3.2-.4.5 0 .2-.4.7-.8 1.1l-1 1.4c-.5.8-1.5 1.5-1.5 1zm-271.7-.2c0-.2.6-1 1.4-1.7l1.9-2.2c.7-1 2-2.5 2.4-2.5 0 0 .2.2.2.5 0 .6-.6 1.3-4 4.8-1.3 1.2-1.9 1.6-1.9 1zm235.6-.4c-.1-.3 1.9-2.3 2.4-2.3s0 .7-.8 1.6c-1.1 1.1-1.3 1.2-1.6.7zm-98-2.7c-.6-1.3 2.4-2.8 5.8-3 1.3 0 3.2 0 4.2-.2l2-.2v-1c0-.7 0-1.1.5-1.4 1.4-1 2-.2 2 2.1 0 1.6 0 1.8-.7 2.5s-.9.8-2.1.6c-1-.1-1.6 0-2.7.4-1.2.6-1.7.6-3.8.5-3.3-.2-3.3-.2-4.3 0-.6 0-.8 0-1-.3zm101.1-.1c0-.2.1-.4.3-.4.1-.1.2 0 .2.2s0 .4-.2.4-.3-.1-.3-.2zm-3.2-1.2c0-.4 1-1.4 1.2-1.2.2.2-.7 1.5-1 1.5 0 0-.2-.1-.2-.3zm215.6-.4c0-.3.2-.5.3-.4.3.1 0 .9-.2.9s-.2-.2-.1-.5zm-210.2-.8.3-.3.1.3c0 .1 0 .2-.2.2s-.2 0-.2-.2zm154.6-1.9c0-.2.3-.7.6-1l1-1.2c.3-.5 1.4-1.7 2.4-2.7a62.4 62.4 0 0 0 6.2-7c.7-.8 1.5-1.8 1.8-2.4.3-.5.8-1.2 1.3-1.5a56.7 56.7 0 0 1 7.7-9c.3.3-.3 1.5-1 2l-.3.6c0 .4-2.7 3.9-4.3 5.5a66.1 66.1 0 0 0-5.9 6.8 42.8 42.8 0 0 0-3.6 4.1l-1.4 1.8c-.4.6-1.1 1.4-1.6 1.8-.5.4-1.1 1.2-1.5 1.8-.7 1-1.6 1.3-1.4.4zm-157-.6c0-.3 0-.4.2-.4.1 0 .3 0 .3.2l-.3.4c-.1.1-.3 0-.3-.2zm5.2-.3a13 13 0 0 1 2.7-3.3c.1 0 .2 0 .2.2 0 .3-2.9 3.4-2.9 3zM188 93.5h.5l-.3.1c-.3 0-.4 0-.2-.1zm-2.8-1.7c-.6-.6-1.2-1-1.3-1l-1.3-1.1c-1-1-1.1-1-.6-1.2.5-.2.8 0 1.7.7a1157 1157 0 0 1 2.7 2.3c.7.5.8 1 .2 1.2-.2 0-.8-.3-1.4-1zm163.5-.8c0-.4 3.2-4.4 3.3-4 0 .1-.4 1-1 1.8-1.4 1.8-2.3 2.7-2.3 2.2zm11.6-.8.7-1.1a26 26 0 0 0 2.7-4c0-.5 1.4-2 2.2-2.6.7-.5.8-.5 1.2-.2.6.6.3 1.2-2 3.6a77.2 77.2 0 0 0-3.1 3.4c-.9 1-1.7 1.5-1.7 1zm-181.8-3.5c-1-.6-2.8-2-5.4-4.6l-2.2-2c-.9-.6-1.1-1.3-.5-1.3.2 0 .8.4 1.3 1 .5.4 1 .9 1.2.9l1.3.9a1223.1 1223.1 0 0 1 5.5 5c.5.9.2 1-1.2.1zm129.2-.8c-.6-.2-.8-.5-.7-.5.2 0 .5-.3.7-.7.6-1.2 1.8-2.7 2.3-2.8.3-.1.6-.4.6-.7 0-.2.1-.5.4-.6.2-.1.4 0 .4 0 0 .2-.1.3-.2.3-.3 0-1 2-1 2.7 0 .3 0 .5-.2.5l-.2.4c0 .6-.6 1.7-1 1.8 0 0-.6 0-1.1-.4zm-34-6c-.6-.4.4-5 1.9-7.8.3-.7 1.2-2.5 2-3.8 1-2.3 1.5-3.5 1-3.5l-1 .7a3 3 0 0 1-1.8.6c-.5 0-1.3.3-1.9.6-.7.4-1.1.5-2.1.3-2.3-.3-2.5-1.3-1.2-5 1-2.4 1.3-2.7 2.5-2.2.4.1.8.2 1 .1.2-.2 1.3-3.1 1.4-4.2l.3-3.2c0-1.3.2-2.5.4-2.6a6 6 0 0 0 .2-2.2c0-1.5.1-2 .6-2.5l.8-1.1c1-1.3 1.9.6 1.2 2-.3.6-.5 1.6-.5 3.5 0 1.5-.2 3.6-.4 4.8-.4 2-.4 2.2 0 2.7.2.2.5.7.6 1.1l1.1 1.6 1 1.5c0 .3.4.6.7.7 1 .3 1 1.4-.1 3.3-.5 1-1 2.2-1.1 2.9-.1.6-.4 1.3-.7 1.5-.3.3-.8 1.1-1 2l-1.2 2.1c-.4.5-.7 1.3-.8 2.3-.1 1-.3 1.7-.5 1.8l-.2.6c0 .9-1.5 1.8-2.1 1.4zm3.2-16.5c.8-.9 1.1-1.4 1-1.8 0-.8-1-1-1-.3 0 .4-.3.7-1.4 1.1-2.2 1-2.7 2.1-.9 2.1 1 0 1.3-.1 2.3-1.1zM252 78c-1.2-1.2-2.4-3-2.4-3.6 0-.7 2-2.7 2.8-2.7.9 0 1.6.7 1.8 1.7.4 1.9 2.3 2.3 2.9.6.2-.6.4-.7 1-.7.5 0 .6.2.7 1.2 0 .8 0 1.5-.5 2.2-.5.8-.8 1-2.3 1.6-2.4.7-3 .7-4-.3zm48.2.5c-.5-.5-.4-.8.4-1.3.6-.3 1.8-.5 5.6-.6 4.8-.1 6.1 0 6.1.8 0 .6-1.5.9-6 1-2.6 0-5 .2-5.2.3-.3 0-.7 0-.9-.2zm-134.8-3.2c-4.5-4.1-5.6-5-7.3-5.5-1-.3-1.6-.7-1.6-1 0-.5 1-.9 2.1-.7.9.2 1.2.4 2.1 1.6l1.3 1.5c.2 0 1.2.9 2.4 2l3.3 3c1.1 1 1.5 1.8 1 1.8-.2 0-1.7-1.2-3.3-2.7zm-62.8-3.7-1-.2c-.3 0-.7 0-.7-.2 0-.1.6-.2 1.4-.2.8 0 2.2-.3 3.2-.6 1.3-.5 2-.6 2.8-.5 1 .2 7.2.3 10.7.2 1.3 0 1.9 0 2.2.3.4.4.3.5-.7.8l-3 .2-4.8.1c-5.8.3-10 .4-10.1.1zm19.5-.7c-.5-.3.9-.8 2.3-.8 1.7 0 2.4.6 1 .9-1.5.2-2.9.2-3.3 0zm6.8-.2h.5c.1.1 0 .2-.3.2s-.4-.1-.2-.2zm93-3.2c-.3-.2-1-.3-1.5-.3-.7 0-1-.1-1-.4 0-.4.5-.4 4.7-.3 3.2.2 5 .1 5.8 0 .7-.3 3-.6 5-.9 4-.5 8.3-1.4 9.1-1.9.7-.3 1.2-1.2 1-1.7-.2-.4 1.2-2 4-5 1.8-1.7 2.4-2.5 2.3-2.8-.5-1-.1-1.6 2-3.8 1.3-1.2 2.5-2.6 2.7-3 1-2.3 10-8.6 10-7 0 .3-1.4 1.6-1.7 1.6-.4 0-1.3 1-1.9 2.3-.3.6-.9 1.2-1.5 1.5a14.3 14.3 0 0 0-4.7 4.6c-.8 1-1 1.3-.5 1.6.1 0 .3.5.3.8 0 .6-.4 1.1-1.7 2.2l-2.5 2-1 1c-.2.6.3 1.4 1 1.8l.7.4-.6.8c-.3.5-.9 1-1.2 1.2a20 20 0 0 0-5 3.3c-1.2 1.3-1.5 1.4-2.3.6-.6-.5-.6-.5-5.8.4l-3.7.7c-2 .4-11.6.6-12 .3zm30.9-2.7c0-.6.4-.9 4.5-3.1 2.7-1.5 7.6-6.1 7.6-7.1 0-.7.4-.8 1-.4.4.2.3.3-.1.8-.3.3-.4.6-.3.7.6.7-2.2 3.5-6.2 6.3a20.5 20.5 0 0 1-4.8 2.5c-1.4.6-1.7.7-1.7.3zm126.3-4.3c-2.4-.3-6.3-.3-33.2-.2-16.7.1-19 0-19-.3 0-.6 1.8-.7 13.5-.9 28.5-.4 34-.4 37.3-.1 3.3.3 5.3.8 4.8 1.3-.4.4-1.3.5-3.4.2zM216.1 59l-10.2-.2c-6.5-.1-10.4-.3-11.1-.5l-1-.3 1-.2 7.4-.2 6.8-.1c1.2 0 7.4.3 8 .5 1.7.3 1.8.4 1.5.8-.3.3-2.1.5-2.4.2zm-26.7-.6c-1.3-.1-.9-.8.6-.8 1 0 1.6.2 1.2.7l-.6.3-1.2-.2zm-3.5-.3c0-.2.6-.3 1.2-.3.7 0 1.2.1 1.2.3 0 .1-.5.3-1.2.3-.6 0-1.2-.2-1.2-.3zm6.5 0c0-.2.2-.3.5-.3.4 0 .7.1.6.3-.1.1-.3.3-.6.3-.2 0-.4-.2-.5-.3zm333.7-3a184 184 0 0 1-28.7-1.1c0-.5.3-.7 1.2-.7a2840.7 2840.7 0 0 1 30.5.3 9120.1 9120.1 0 0 0 18 0c.6.2.8.4.7.8 0 .8-.8 1-3 1l-18.7-.2zm-218-.6c-.4-.4-.2-.9.4-1.2.3-.2 5-.3 15-.4l14.3-.1 1 .7c1.1.9.8 1.4-.6.9-.5-.2-1.2-.3-1.5-.2-.8.3-28.4.5-28.6.3zm35.8-.6c.2-.2.5-.3.7-.3.2 0 .7-.2 1-.5.8-.5 1.2-.6 6.8-.6 6.9 0 19.7.3 20.5.4.4.1.6.3.6.5 0 .6-3.4.7-17.6.8a54 54 0 0 1-12-.3zm-119.3-1.3-6-.3c-2.5-.2-9.8-.3-16.2-.3-11.7 0-17.5-.2-17.5-.5 0-.5 1.6-.6 12.8-.8a365 365 0 0 1 30 .5c7.3.3 8.3.5 8.5 1.2 0 .4-.4.4-5 .3h-6.6zm-52.7-1-5.7-.4c-5-.2-5.7-.3-5.7-1 0-.4 1.4-.6 2.8-.3l4.9.4c7.6.2 14 .6 14.4.8 1.2.5 0 .6-4.7.6l-6-.1zm69-3-3.6-1.2a30 30 0 0 1-6.5-4.4 5.7 5.7 0 0 0-1.7-1.3c-1.2 0-6.3-6.4-6-7.5.2-.6.6-.6.9 0a30.6 30.6 0 0 0 19.5 13.3l3.4.8c.3.4-.6.8-1.9 1-.8 0-2.1-.2-4-.7zm5.5-5.3c0-.2 0-.3.4-.3.3 0 .5.1.5.3 0 .1-.1.2-.4.2-.2 0-.4 0-.5-.2zm-70.5-.5c-.6-.4-.1-.8 1.3-1 1.5-.1 4.9.1 4.6.4-.2.2-3.4.8-4.6.8l-1.3-.2zm7.5-.6c0-.1.2-.3.8-.3.6 0 1 .2.8.3 0 .2-.4.3-.8.3-.3 0-.7-.1-.8-.3zm15.6 0c-1-.4-.7-.7.6-1 1.5-.1 3.9.6 3.2 1-.4.3-3 .3-3.8 0zm-6-.3.5-.2.4.2c0 .2-.3.3-.6.3s-.4-.1-.4-.3zm49.8-.6c-.2-.3-.2-.4 0-.4.3 0 .6.2.8.4.3.3.3.4 0 .4s-.6-.2-.8-.4zm34.6-1c-.4-.8-.4-1.2-.2-2 .3-.7.2-1-.2-1.6-1.2-1.7-.3-3.7 1-2.5 1.1 1 1.6 2.4 1.4 3.9 0 .7-.2 1.5-.3 1.6l-.4 1c-.2 1-.8.9-1.3-.4zm-2.2-1.2c0-.3.2-.5.4-.5s.5.2.5.5 0 .5-.5.5c-.4 0-.5-.2-.4-.5zm-7.5-.2c0-.6 1.5-2.2 1.7-2 .3.3-.2 1.1-1 1.9-.7.6-.7.6-.7 0zm191-2.4c-.5-.3-.2-.9.6-1a56 56 0 0 0 9.2-2.5c4.5-1.5 6.3-2 6-1.4-.2.3-3 1.7-4.5 2.1l-1.4.6a7 7 0 0 1-1.5.5 36.3 36.3 0 0 1-7.5 1.8l-.8-.1zm-222-1c-.7-1.3-1-2.5-.4-2.5.3 0 .4.2.4.6 0 .3.3 1 .7 1.6.8 1.1.8 1.2.3 1.2-.2 0-.6-.4-1-.9zm239.5-5.3 1.7-1 1.7-.9 1.6-.9 3.8-1.7c1.8-1 3.5-1.7 3.6-1.7.6 0 .2.5-.7.9l-1.4.8c-1.1 1-9.6 5.1-10.8 5.3-1 .1-1 .1.5-.8zM435.9 26c-1.5 0-2-.2-2-.5 0-.6 1.4-.9 4.5-.9a23.4 23.4 0 0 0 7.8-1 53.3 53.3 0 0 0 11.4-3c.7 0 2.1-.5 6.2-2.5l2.8-1.2c.9 0 7.9-4.4 8.8-5.6.3-.3 2.3-1.5 2.6-1.5.8 0 0 1.2-1.7 2.7a23.4 23.4 0 0 1-5 3.6A67.9 67.9 0 0 1 436 26zm-8.1-5.5c0-.2.1-.5.3-.5l3.4-1.2c1.8-1.2 3-1.9 4.6-2.7a12 12 0 0 0 3-2.2c.6-.7 1.6-1.4 2.1-1.7 2-1 5-4.7 6.3-7.7.8-1.8 1-2.3.8-3.4-.2-1-.2-1.2.3-1 1.7.3 1.4 4.9-.5 6.8-.2.2-1 1-1.6 2l-2.3 2.3-2.5 2.3A14.6 14.6 0 0 1 438 16a23 23 0 0 1-7.4 3.8l-1.7.7c-.2.4-1.1.3-1.1-.1zM443 19c0-.2 1.5-1.6 3.3-3.3 2.1-2 3.6-3.7 4.5-5 1.3-2.1 2-2.6 2-1.5 0 1-.5 1.6-3 4-2 2.3-6.3 6-6.6 6l-.2-.2z"/>
</svg>
