<?xml version="1.0" encoding="utf-8"?>
<svg xmlns="http://www.w3.org/2000/svg" xmlns:svg="http://www.w3.org/2000/svg" version="1.1" viewBox="0 0 280 183">
  <title>Ribby picks up a furry rug near the open front door of her house.</title>
  <path d="M151.7 182.6c-.3-.2-.3-.3 0-.6.4-.2.6-.2 1.2 0 .5.3.6.4.3.6-.5.3-1 .3-1.5 0zm-8.4-1.9c-1.4-.2-1.7-.4-1.1-.9l.4-.4 1.4.6c2.4 1 2.3 1.1-.7.7zm24.5-1.4c-1.6-.9-1.8-1.4-.4-1.1 1.3.2 2.5.8 2.5 1.3 0 .6-.7.6-2-.2zm-2 .4c0-.1-.8-.4-1.7-.6-2.7-.5-4.3-1.1-4.6-1.6-.1-.3-.4-.5-.6-.5a.7.7 0 0 1-.6-.3c-.1-.2.2-.3 1.3-.1 2.2.2 3.3.6 3.5 1.2 0 .3.5.6 1.8.9 1.1.2 1.7.5 1.7.8.1.4-.6.6-.8.2zm-30.6-2a9 9 0 0 0-1.8-.7c-.3 0-1-.8-.6-.8s2 .8 2.3 1c0 .2.3.3.6.3.6 0 1.5.7 1.2.9-.1 0-.9-.2-1.7-.6zm4.4.5c-.3-.2-.5-.5-.4-.6.2-.2 1.3.4 1.3.7 0 .4-.3.3-1-.1zm41.9-.3c-.5-.2-1.3-1-1.3-1.2 0-.4 1.4-.3 2 .2l.5.3-.4.4c-.2.2-.6.3-.8.3zm-53.3-1.9c-.6-.1-1.7-1-2-1.7-.5-.8.4-.5 1.6.6 1.2 1 1.3 1.3.4 1.1zm27-.2c-.8-.4-1.3-1-.7-1 .5 0 2.7 1 2.7 1.2 0 .3-.8.2-2-.2zm-5.3-.7c-1-.3-1.4-.6-1.1-.7a8 8 0 0 1 3.2 1c.4.4-.4.3-2.1-.3zm22.9.3c-.3-.1-.6-.3-.5-.4.2-.2 2.3.2 2.5.4.2.4-1.2.3-2 0zm18.2-.3-2-.4c-1.2-.3-1.5-.9-.3-.9 1.4 0 4.4.9 4.4 1.3s-.7.4-2 0zm-17.4-.7c-1.7-.6-1.9-.7-1.2-.8 1 0 3.6.8 3.7 1.2.2.5-.2.4-2.5-.4zm-16.1.2c-.5-.2-.9-.3-.8-.4.1-.1 2 .4 2 .6 0 .1-.2.1-1.2-.2zm39 .1-1.5-.4c-.7-.2-1.4-.5-1.3-.6 0-.1.6-.3 1.4-.3 1.5-.1 2.3.2 2.3.8 0 .4-.7.7-.9.5zm-85-.5-.8-.4-2.7.3c-3 .4-4.8.2-5.8-.5-.4-.3-1-.6-1.3-.6-.5 0-.6 0-.6-.4.1-.3-.1-.6-.7-.8-.6-.2-.8-.4-.7-1 0-.7-.1-.8-.7-.4h-.9c-.3-.2-1-.2-1.9.1l-1.4.4-.8-.4c-.4-.2-1.2-.4-1.7-.4-.8 0-1 0-1-.5 0-.6.2-.6 1.7-.2l1 .2.8-.5 1-.6 1.8-.6a8 8 0 0 1 1.8-.7c.6 0 .4.8-.3 1-.4 0-.8.3-1 .5-.2.3-.1.4.6.4.4 0 1.2-.2 1.6-.5.6-.3 1-.3 1.1 0 .3.2.2.3-.1.6-1.1.8 0 1.7 2 1.7 1.2 0 1.7.3 1.7.8 0 .3.4.6.8.8.7.2 1 .1 1.4-.2.7-.6 3-1.4 3.7-1.4.9 0 .5.5-.6.8l-1.2.3 1.2.4c1.3.5 3 .4 4.2-.3.4-.2 1.5-1.2 2.5-2.2 1.8-1.8 2.6-2.3 2.6-1.5 0 .3-2.2 2.5-2.6 2.5-.3 0-1.1.9-1.1 1.2l.4.1c.5 0 1.4-.6 3.1-2.1 1.1-1 1.6-1.2 2.3-.8.2.2.7.1 1.3-.1l2-.5a8 8 0 0 0 1.5-.3c.3-.1.6 0 .9.7l.4.8.8-.2c.6-.1 1 0 1.4.3l.5.5-.1-1c0-.8 0-1 .3-.9.3 0 .4.3.3 1-.1 1.4.6 1.7 1.5.7.3-.4.8-.7 1-.6.2 0 .9-.6 1.7-1.5.8-.8 1.5-1.5 1.6-1.3v1.3c-.2.7-.3 1.6-.2 2.1v1l1-.2c.7-.1.8-.1.5.2-.4.5-.2.5.6.1.3-.2.4-.4.3-.7-.2-.7.8-2.2 1.2-1.9.2.2.3 0 .4-.8.3-1.5.8-1.4.6.2-.2 1.3-.8 2.5-1.2 2.5-.2 0-.3.1-.3.4 0 .5.2.4 1.7 0 1-.4 1.3-.4 1.6-.2.5.4 1 .1 1-.7v-.7l-.9.2c-1 .2-1 .1-.1-.7.8-1 1.1-.9 1.4.3.3 1.2 1 1.4 1.4.4.3-.7.8-.9.8-.2 0 .2.2.4.4.3.6 0 1.7-2.2 1.7-3.2v-.7l-.8.5c-.7.5-1.6.7-1.6.4 0-.3 3.6-4 3.9-4 .2 0 .2.2 0 1a31.8 31.8 0 0 0-1 4.3c-.2.3-.1.5.4.6 1 .2 1.2 0 1-1.6-.2-.7-.2-1.4 0-1.6.3-.4.7.1.7 1s.3 1.5.6 1.5c.2 0 .2-.3.1-.8-.1-.7 0-.8.4-.8.3 0 .6-.1.6-.3.4-1.4.6-1.9 1-2 .1 0 .3.1.3.4 0 .8.4.8.6 0v-.6l.3.5c.1.4.5.6 1 .6h.7v-.8c0-.6-.2-1.1-.5-1.4-.7-.6-.7-1.1 0-1.6.3-.2.3-.4 0-.8-.3-.6-.8-.7-.8-.2 0 .2-.1.4-.3.4l-.2-1c0-.6-.1-1.1-.2-1.1 0 0-.7.4-1.3 1-1 .8-2 1.1-2 .6l1.1-1a15 15 0 0 0 2.5-2c1.2-1.1 2-1.6 2-1 0 0 0 .3.2.5.2.3.4.2 1-.5 1.3-1.6 1.8-3 .7-2l-.7.4c-.3 0-.2-1 .2-1.5.2-.2.4-.7.4-1 0-.2.1-.4.3-.5.2-.2.2.1.1.7-.1.7 0 1 .1 1 .2 0 .3-.1.3-.3l.7-1 .6-.7v.6c0 .8-1.2 3.8-1.8 4.5-.6.5-.7 2.3-.3 2.6.6.3 1-.5 1.1-1.8l.1-1.4.4 1.5c.2.9.5 1.5.6 1.4l.6-1.6c.4-1.3.7-1.7 1-1.2.1.1 0 1-.4 2-.4 1.3-.5 1.8-.3 2.3l.3.6.3-.7c.2-.5.3-2 .4-3.3V154h-.6c-.7-.2-.7-.2 0-1.3.9-1 2-3.7 2-4.4 0-.3.3-.6.6-.8.3-.2.5-.6.5-1 0-.5.2-.8.3-.8.5 0 .3 1.9-.3 3l-.6 1 .5.4.5.5.4-.6.7-1.3c.4-1 .8-1.1 1-.6.2.7 1-1.3 1-2.6 0-1 0-1.2.5-1.3.4-.1.5-.3.3-1 0-.7 0-1 .3-1 .5 0 1 1.3 1 2.5 0 .8.2 1 .7.4.2-.2.4-.2.5-.1.1 0-.5.8-1.3 1.6a11 11 0 0 0-1.5 1.7c0 .4-1 1-1.4 1-.3-.2-.4 0-.5.4l-.3 1c-.3.7.4.7 1.2 0 .4-.3.8-.4.9-.3.2.4-.9 1.3-2 1.7-.9.3-1 .7-.4.9.8.3 6.7-3.1 6.7-4l.3-.1c1.1 0-1.5 2.7-3.7 3.7-1.1.6-1.1.8-.1 1.1.3.1 1 0 1.7-.6a47.1 47.1 0 0 0 7.1-7c0 1-6 7.8-6.9 7.8l-.2.4c0 .5.3.5 3-.1a20 20 0 0 0 6.3-3.2c2-1.5 2-1.5 2.2-1.3v.6a16 16 0 0 1-4.4 3.4c-1.5.7-1.7 1-.3.9l4.6-.6c4.1-.4 9.4-1.6 12-2.7 1.4-.6 2-1 2.5-1.8.5-.6.8-1.2.8-1.4l.8-1c.5-.4 1-1 1.2-1.4l.9-1.7c2.5-4.4 3.6-7.3 5.7-14.6l.7-1.8c.7-.8.4 1-.7 4.5l-.7 2.3a52.7 52.7 0 0 1-5 11.4c-.9 1.3-1.6 2.9-1.8 3.4a3 3 0 0 1-1 1.4c-.4.2-.6.5-.5.6a18.9 18.9 0 0 0 8.5.3l4.2-.6a44.3 44.3 0 0 0 2.8-14.6c.2-.3 2.2-8.1 2.6-10.5.7-3.8 1-9.8 1-18.3v-8.8l-1-1.8c-.6-1-1.2-1.7-1.3-1.7-.2 0-.5.6-.8 1.3-.3 1-.4 1.6-.2 3.4.4 4.8.5 8.5.3 8.5s-.3-1.6-.4-3.5c-.3-4.6-1-10.1-2-12.7-.6-2.2-2.5-6.3-3.5-7.7-.8-1 0-1 .9.2l.7 1 .7 1.4c1 1.6 1.8 4 2.2 6 .3 1.8.6 2 1.1 1 .4-.5.4-.8 0-1.7-.3-1-1-2.4-1.5-3l-1.6-2.8c-.6-1.3-1.5-2.8-1.9-3.3-1-1.3-4.2-4.6-4.6-4.6-.3 0-.3.3.1.8a45.2 45.2 0 0 1 5.8 14 89.7 89.7 0 0 1 2.3 18c.4 4 .4 7.9 0 12.1-.5 5.9-.7 4.7-.7-3.2v-7.4l-.6-1-.6-1-.2-6.4c-.2-6.4-.4-7.5-1.5-12.2a41 41 0 0 0-4.7-11.6c-1.4-2.4-2.9-4.2-3.2-3.8a38.7 38.7 0 0 1 2 8.7c.3 1.7.3 2.5 0 3-.4 1-.7.7-.6-.6.2-2-1.1-9.4-1.9-10.3 0-.2-.3-.4-.4-.4-.3 0 0 9 .2 9.4a27 27 0 0 1-1.6 8c-.3.3-.2-.3.4-2.9.8-3.1 1-4.6.7-4.8 0-.1-.2-1.7-.2-3.7 0-4-.4-6.1-1.2-6.1-.6 0-.6-.3-.2 3.8v3l-.3.6-.3-.5c-.2-.3-.4-1-.4-1.4l-.4-2.4c-.5-1.7-.5-2.2-.2-2.2l.5.9.2.8v-.9c.3-1.5 0-2-1-2.2-1.2 0-1.5.4-.9 1.1l.6 1.2.3 1.1c.1.4 0 .5-.1.1-.4-.4-.4-.4-.4.6 0 .5 0 .9.3 1 .3.2.4.8.4 2.5 0 1.8.1 2.3.5 2.6l.4.3-.2 1.7c-.2 1.2-.2 2 0 2.5.1.5.2 1 0 1.1l-.2 1.2c0 2-.3 5.4-.6 5.7-.2.2-.3-1-.2-3.8l.2-4.1-.6-.8c-.9-1-1-2.8-.5-3.7l.4-.6-.3-2.6a17.4 17.4 0 0 0-2.8-8.4 9.2 9.2 0 0 0-3.3-3.9c-3.1-1.6-8-2-9.8-1-1.5.9-3.4 2.9-3.8 3.8-.1.5-.4 1-.5 1-.2 0-.2-.2-.2-.4a175.8 175.8 0 0 1 .8-2.3c-.5 0-2.2 1.8-2.2 2.3 0 .8-1.2 5.5-1.7 6.7-.2.6-.4 1.3-.4 1.8 0 .4-.2 1-.4 1.5-.4 1-.4 2.9 0 2.9.2 0 1.1-1.7 2.1-3.7 4-8 4-8 5.9-9.3.9-.6 1.8-1.2 2-1.2.3 0 .9-.3 1.4-.6.5-.4 1.2-.7 1.6-.7 1.2 0 3 .7 3.8 1.4a6 6 0 0 1 1.6 3c0 1-.7.7-1.2-.4-.7-1.5-1.3-2.2-2.6-2.6-1.9-.5-2.8 0-4.2 2.4-.8 1.3-1.8 2.1-2.1 1.8-.1-.1.1-.9.6-1.6 1.1-1.7.8-2.3-.6-1-1 .8-2 2.6-5.2 8.8a171 171 0 0 1-1.8 3.4c-1 1.7-2.5 6-2.5 7.2a3 3 0 0 1-.5 1.5c-.8 1-.6 1.3.4.8 1.6-.8 1 0-.9 1.2a11 11 0 0 0-2 1.5c-.6.9-.8.2 0-.7l.9-1.9.5-1 .6-2.4.5-2.3-.6-1.6c-.4-.8-.7-1.3-.7-1 0 .2-.1.4-.3.4-.5 0-.3-2 .2-2.4.6-.6.9-.4.9.7 0 1.2.5 2.8 1 2.8.3 0 .3-.4.2-2-.2-1.6 0-2.7.2-4.1.7-3.2.8-3.7 1.6-5.6l.7-2.2v-.5l-.5.5c-.3.3-.7.4-1 .3-.4-.1-.2-.4.7-1.3a135.1 135.1 0 0 0 5.6-5.7c1.3-.9 4.7-1.1 7.6-.6 3.3.6 4.1.7 5.1 1.2a3 3 0 0 0 1.6.3c1-.3 1.5.1.7.4-.5.2-.5.3-.2.6.4.6 1.5.5 1.8-.1.3-.6 1.3-.7 1.3-.1 0 .5.3.5 1.3 0 1.6-.8 3.6-1.5 4.5-1.5 1 0 1.4-.6.8-1.2-.4-.4-.6-.4-1.4-.2l-1 .3V67.7h-1.7l-1.8.2v.6c-.2.7-.4.7-1.6 0-.6-.4-1.1-.5-1.6-.4-.8.2-1.2-.4-.6-1 .4-.5.3-.5-3-.5-1.7 0-2.5-.2-2.5-.4-.1-.2 0-.3.4-.3l1-.2c.4-.2.3-.2-.4-.3-1.5-.3-.9-.7 1-.7 1.1 0 2-.1 2.2-.3.2-.3 1.2-.4 3.4-.3h3l-3.6.5-3.6.7.2.4c.2.2 1.6.3 4.8.2 3.5 0 4.5 0 4.4.3 0 .2-.3.4-.6.4-1 .2-.9.5.2.4 1.7-.1 1.9-.2 1.5-.9-.4-.7 0-.6 1.2.5 1.2 1 1.5.8.6-.7a9.6 9.6 0 0 0-5.9-4.8c-.8-.3-1.8-.8-2.2-1.2-.6-.6-1.8-1-4.3-1.4l-3-.6c-3-.5-4.3-.5-5.2-.1l-1 .4-1.8.4c-1.2.4-1.5.6-1.8 1.3-.6 1.4-1.7 2.8-2.3 2.8-.3 0-.7.4-1.1 1l-1.3 1.6c-.5.5-.7.8-.5 1.4.1 1-1 2-1.8 1.5-.4-.3-.6-.2-1.2.4a9 9 0 0 0-1.7 2.8l1.3-1.2 1.5-1.3c.2.2-3.4 4.1-4 4.4-.4.1-1 1-2.5 4.2-.5 1-1 2-1.2 2.1a10.9 10.9 0 0 0-1.4 6c0 1.1 0 2.6-.2 3.2-.1.8 0 1.4.3 2.1.4 1 2.5 3 4 3.8.4.2.7.6.7.8-.1.4 0 .4.7 0 .9-.5 1.2 0 .7 1-.5.7-1 .8-1 .2v-.4l-.6.4c-.8.6-1.2.5-.5-.1.9-.7.4-.7-1.4.1-.8.4-1.8.7-2.2.7h-.7l.8-.7.8-.6h-.7c-.4 0-.8-.2-.8-.3 0-.2.4-.3.8-.3s1-.1 1.2-.3l.5-.4-.5-.3c-.7-.3-2.7-.4-3.2-.1l-.4.7c-.1.2-.5.4-.8.4-.3 0-.9 0-1.3.2l-.6.1.5-.3 1-.9a4 4 0 0 1 1.7-.7l1.3-.3c.2-.3-.8-1.5-1.1-1.5-.3 0-.4-.2-.3-.4.2-.5-1.2-1.7-2-1.7-1 0-1.5-.8-2-3-.3-1-.7-2-1-2.3a3 3 0 0 1-.5-1c-.6-3-.7-3.5-.6-3.9 0-.2.7-.6 1.3-1 1.6-.7 2.8-1.7 2.5-2-.1 0-1-.3-2.1-.4-2-.1-2.5-.3-4.3-1.4-1.2-.8-1.4-.8-1.4-.2 0 .6-1 2.5-1.6 3.2-.3.4-.6.5-.6.3s.3-.7.7-1c.8-1 1.1-2.6.7-3-.3-.3-.5-.1-1.1.6-.5.5-.7.6-.6.3.6-1 .4-1.3-1.7-2.2-2.5-1.1-3.4-2-3.1-3.4a9 9 0 0 0 .2-1.6c0-.5-1.8-4.7-2.7-6.4-.2-.2-.6-.3-1.6-.3-1.1 0-1.4 0-1.3-.4 0-.3.5-.5 1.2-.6l1-.1v-.9c.2-.7 0-.9-.6-1.2-1-.5-1.2-1.4-.4-1 1.1.4 1.2.2 1.6-2l.5-2.7c.1-.5 0-1-.7-1.7-1.5-2-3.7-5.7-3.7-6.2.2-.7.9-.7 2.3.2 1.5 1 1.5 1 5.4.3 2.3-.4 4.7-1.7 5.2-2.8l.4-1-.8-2.3c-.7-2-.8-2.5-.6-3.2l.7-.9c.4-.1 1.8.4 2.5 1a61 61 0 0 1 5.4 2.4c1.1.6 2.2.9 3.7 1A32.3 32.3 0 0 1 181.1 52c.3.6 1.3 1.8 2.3 2.8 1.4 1.4 2 1.8 2.8 2a24 24 0 0 1 10.6 3.5 8 8 0 0 1 2 .8c.9.4 1.7.7 1.8.6.2 0 .2-.9 0-1.8 0-1 0-1.7.2-1.7.1 0 .3 1.1.3 2.5l.1 2.5 1.2 1.5 1.6 2.4.3 1 .9-.6a24 24 0 0 1 2.5-1.4c1.3-.6 1.8-.7 2.7-.6l1 .2v2.2l1.7.5c2 .4 4 1.4 4.6 2 .4.5.2 1.2-.4 1.4-.5.2-.4.6.2.8.5.2 7.2 6.7 9 8.8 1.1 1.3 1.7 1.5 1.5.4a141.2 141.2 0 0 1-.4-16.2c0-2.3 0-2.9.3-2.9s.4 1.3.3 7.5l.2 10.8.3 3.3 1 2.4c.6 1.4 1.2 3.2 1.4 4.6.2 1.2.7 3.6 1.2 5.3 1.5 5.8 1.6 7.5 1.6 14.1a24.7 24.7 0 0 0 .7 8.8c.3 1 .2 6-.2 7.4-.5 1.6 0 2 .9.7.4-.7.7-1.5.8-2.7 0-.9.4-2 .6-2.3l.2-.3-.3 2c-.2 2 .2 2.3 1.3 1.2a17 17 0 0 1 3.4-3c.7 0 .6.9-.3 1.7-.5.5-.8 1-.7 1.1.2.2 1-.5 3-2.4l.8-.8v-2c0-1 .2-2.3.4-2.7.1-.5.2-2.2.1-4.5 0-3 0-3.4.2-1.8.5 5.2.5 5.6.1 6.8-.5 1.6-.3 3.6.3 3.5.3 0 .5-.5.7-1.3.5-3.3.6-5.1.7-7.8 0-1.6.1-4.4.3-6.3v5c0 5.9 0 8.5-.3 8.7-.8 1 .7 1.3 1.8.5 1-.8 1.6-5.6.7-5.6-.3 0-.4-.3-.4-.8 0-1 .3-1 1-.3.5.5.6.8.4 2.3l-.2 2.5c0 .5.2.7 1 1 .9.2 1.2.2 1.6 0 1-.7 2.2-.8 2.7-.2.2.2.6.4.7.3.1 0 .2-2 .2-4.4 0-2.5.1-4 .3-3.7l.2 3.8c0 1.8.1 3.4.3 3.5.1.1.9 0 1.8-.2 1-.2 2-.3 2.3-.2.9.2 6-2.3 7.6-3.7a24 24 0 0 1 7.4-4.8c.4 0 1.2 0 1.8.2 1.5.4 1.7 1.1.5 2.3l-.8.8.5.4.4.3-.4.6c-.6.8-.6 1 0 1s1.2.7 1 1l-.4 1.1c0 .7-.3 1-.9 1.3-.7.4-.7.9 0 .9.6 0 .4.6-.6 1.5l-1 .9.6.1c.3.1.6.4.6.6 0 .3.1.6.3.8.2.2.1.4-.4.6l-1 .3c-.4 0-.3.7.3 1.5l.6.8-.4.5c-.3.3-.5.6-.5.8 0 .4-.9 1-2.5 2-.9.4-1.7 1-2 1.3-.1.2-.5.5-.8.5-.4 0-.5 0-.4.3.3.7-.6 1.5-1.6 1.5-.6 0-1.2.2-1.4.3-.2.3-.3.2-.3-.2 0-1-.9-.8-1.3.3-.3 1-1.6 1.6-1.8 1-.2-.7-1.8-.3-2.2.6-.1.5-.4.6-1.5.6-.7 0-1.3.2-1.4.3l-.5 2.5a38 38 0 0 1-2.9 10c-.4 0-.4 0 1-5 1.2-4 1.7-6.8 1.5-7.4-.2-.5-.6-.4-.6.1 0 .3-.2.5-.7.6-.9 0-2.1 1.3-2.4 2.2a1468.8 1468.8 0 0 0-2.2 10.2l.2.5c0 .2-.3.3-1 .3-.6 0-1.1 0-1.1-.2s.2-.3.4-.3c.6 0 1-1.2 1.7-4.5 1-4.3 1-4.7.8-4.9h-1.3c-1.2.2-1.6.8-1.6 2.2l-.8 3c-.7 2.4-1.3 3.3-1.7 2.6-.1-.2-1-.2-2.3-.2-1.7.1-2.3.3-2.5.7-.7.8-.3 1 3 1 3.5.1 4.7.6 1.4.6l-2.5.2c-.3.4-1.9.7-2.8.7a23 23 0 0 0-6.4.2c-.2.2-1.5.3-3.2.3h-2.8l-.7 1c-.8 1.2-.7 1.3 2.7 1.5 1.7.1 2.5.3 2.6.6.1.2 1.2.3 4.9.3 2.6 0 4.8.1 4.9.2a63.5 63.5 0 0 1-12.8 0c-.1.2-1.3.3-3 .4-1.8 0-3 .2-3.2.4a139.4 139.4 0 0 0 21 0 29.8 29.8 0 0 0 11 .9c1.9-.5 3-.2 3.2.8.1 1.2-.3 1.5-2.5 1.5-2 0-3.1-.3-4-1.2-.3-.2-1.5-.4-3-.5-1.4 0-3.3-.3-4.3-.5l-2-.2c-.2.1-4.9.2-10.5.1h-10.2l-.5.4c-.3.2-.5.5-.5.7 0 .3 1.7.3 2 0 .1-.2 1.9-.2 4 0h7.2a16 16 0 0 1 4.3 0c.5 0 2.4.3 4.2.3 8.4.5 9.1.5 9.1 1 0 .3-.3.3-1.8.2-1 0-2.5-.1-3.2 0a1293.8 1293.8 0 0 1-14.1.3c.3.2 2.6.3 5.1.4 2.6.1 4.6.3 4.6.4a434 434 0 0 0-16.1.3H222a28 28 0 0 1 3.8-.3c2 0 2.5-.1 1.9-.3-1-.3-8.8-.2-9.7 0-.4.2-.8.5-.9.8 0 .5-.3.5-3.6 1l-1.4.1 1 .3c1.6.4 14.2 0 14.5-.4a62.9 62.9 0 0 1 10.6-.5c.7.4-.7.6-4.4.6-3.6 0-4.4 0-4.5.4-.1.2-.5.3-1.5.3-.9 0-1.4.2-1.5.4-.2.4-.4.4-1.1.2-.6-.2-4.9-.3-10-.3-7.4 0-9.1 0-9.9.3l-1 .4 1.8.2c1 .2 4.8.3 8.6.3 7.6 0 7.5 0 7.5.4 0 0-2.8.2-6.4.2h-6.7c-.3.1-.3.2 0 .5.3.4-.6.7-1.4.5h-.5c0 .2.3.4.7.5.3.1.6.2.5.3l-1.8-.2c-1-.3-3.9-.5-7.2-.6-3 0-6.7-.3-8-.6l-2.5-.4-2.2.6a91.4 91.4 0 0 1-14.8 1.7l-1.4-.1 1 .8c.4.4 1.1.9 1.6 1 .4 0 .8.2.9.3.2.5-6.5 0-7.8-.4-1-.3-1.4-.4-2.5-.1-.9.2-1.6.2-2.6 0a19 19 0 0 0-6.4.3c-.7.3-.3 1 .8 1.1.5.1 1 .3 1 .5.2.2-.7.2-2.2 0-1-.3-1.4-.2-2.2.2l-1.3.5-2.4.8c-1.7.6-2.5.8-3.7.8-1 0-2.2 0-2.9.2-1.3.4-4.1.2-4.7-.4-.2-.2-.5-.3-.6-.2a9 9 0 0 1-2.4-.3l-2-.4-.7.4c-.8.5-1.3.5-1.7 0-.3-.2-.5-.3-.8 0-.4.2-.7.1-1.2-.3-.4-.3-1.3-.6-2-.7l-1.2-.4c-.3-.5-1.4-.3-2.1.5-1 1-3 1.7-5.2 1.8-1 0-2.4.2-3.3.6-1.8.6-1.4.6-2.4.1zm29.7-2.2c0-.2 0-.3-.3-.3-.2 0-.4.1-.3.3l.3.2s.2 0 .3-.2zm-21.1-.5c.3 0 .5-.3.5-.5-.1-.6-1.3-.5-2 .2l-.5.5h.7c.4 0 1 0 1.3-.2zm15-1.8c.6-1.4.2-1.6-1-.5a5 5 0 0 0-1 1.2c0 .2.3.3.8.3.7 0 .9-.2 1.2-1zm13.9.3c.2-.3.2-.4-.1-.6-.6-.2-1.3.1-1.3.6s1 .5 1.4 0zm5.5-2c0-.4-1.1-1.6-1.5-1.6-.6 0-.4 1 .4 1.5.9.4 1.1.5 1.1.1zm3-2.6c0-.2-.2-.3-.4-.3-.1 0-.2.1 0 .3l.2.2.1-.2zm50.6 0c-.1-.2-.7-.3-1.3-.3h-1l.7.3c1.2.3 1.8.3 1.6 0zm-31.1-.7 1.4-.4c.9 0 4.3-1.2 5.4-1.9 2.2-1.3 2.7-1.5 2.8-1.3.1.1 0 .4-.2.6a26.4 26.4 0 0 1-6.9 3.4c-.2.4 1.3.3 2.1-.1.4-.3.9-.4 1-.4a23.3 23.3 0 0 1 8.4-3c2.1-.2 3.2 0 3.2.8 0 .7-.5 1-1 .6-.2-.3-1-.3-2.2-.2-2 .2-2.3.3-1.9.8.5.4 3.6.6 6.5.4h3.1c1.2.5 4.2-.3 5-1.3.4-.4 1.3-1 2.1-1.3l1.5-.5.6.4c.3.2 1 .4 1.5.4 2 0 6.6-1.4 9.5-2.7 2.1-1 3.7-3.2 3.1-4.4-.2-.5-.1-1 .6-2.4 1.2-2.4 2.7-6.4 3.5-9.5a46.5 46.5 0 0 0 .5-12c-.2-1.1-.1-1.4.2-1.3.4.2 1 3.4 1 6.2a47 47 0 0 1-3.7 16l-.6 1.3.5 1c.5 1.3.9 1.3.8 0 0-.6.3-1.3.8-2.2.5-.7.9-1.5 1-2a436.6 436.6 0 0 1 .5-4.7l.6-3.2.2-1 .3.8c.3.5.4 1 .3 1.5-.1.4-.3 1.6-.3 2.7 0 1-.3 2.7-.5 3.5l-.2 1.6c.4.3 1.5-.5 1.7-1.3 1-3.2 1.5-5.8 1.3-6.5 0-.6 0-1 .4-1.5.4-.6 1.1-2.2 1.1-2.6 0 0-.2-.1-.4 0h-.7l.2-1.7c.3-1 .4-1.9.3-2.2a55.8 55.8 0 0 0 .5-20.3c-.2-1.5-.1-1.8.2-1.8.6 0 1-3.6.5-4.2a7 7 0 0 1-.4-2.3c-.1-2.5-.7-5-2.3-9.1-1.2-3.3-1.8-4.7-2-4.5 0 .1 0 .7.3 1.3l.7 2.1c0 .5.4 1.6.7 2.4.3.8.7 2.2.8 3l.6 2.5c.2.6.2 1 0 1.2-.3.3-.3.4-1-2.9-1.1-4.5-1.4-5.3-2.3-7.5l-1.5-3.6-1-2-.6-.6v.6c0 .6-.3.7-.7.2l-1-2.3c-.5-1-1.5-2.8-2.3-3.8a41 41 0 0 0-5.7-6h-.7a21.5 21.5 0 0 0-8.9-4.4h-.5l.3.6c.2.4.5.6.7.6.3 0 1.5.9 2.7 1.9a23 23 0 0 0 3.4 2.4c1.6.8 2.4 1.5 2.4 2.3 0 .4.7 1.6 1.4 2.8 2 3 3.9 6.6 3.9 7.3 0 1-.9.5-1.3-.8-.2-.6-.9-2-1.5-2.9l-1.3-2.1c-2-3.2-2.4-3.7-5.3-5.6-.9-.5-2.4-1.7-3.5-2.7-1.9-1.6-4.2-2.8-5.1-2.4-.3 0-.6 0-.8-.3-.2-.3-.2-.4.3-.5.2-.1.6-.4.6-.7.1-.3.7-.7 1.4-1 1.4-.4 2.5-1.3 2.5-1.8 0-.7 2.3-1.7 4.1-2 .2 0 .4-.3.4-.7 0-1-.5-1-2.5-.2a8.6 8.6 0 0 0-3.3 2.4c-.4.4-1 .7-1.4.7-.5 0-.8.2-1 .5-.2.3-.6.6-.9.7-1.6.5-4 1.8-4.2 2.4 0 .3-.4.6-.6.7-.2 0-.4.3-.4.4 0 .2.8.2 2 .1 1.5-.1 2 0 2.2.2.2.3.4.3.8.1.5-.2.9-.2 1.5.2 1.4.7 2.2 1.5 2 2-.1.4.3.5.6.1.1-.1.4-.2.6-.1.3.1.3.2 0 .4-.4.3 0 .7.8.7 1.1 0 3.3 2.8 4.4 5.7a105.9 105.9 0 0 0 4.5 9.4c.6.8 1.6 3.3 1.9 5 .2 1.3.2 9 0 15.5a64.1 64.1 0 0 1-2.8 19c-.3 1.4-.5 2.7-.4 3 .3.8-.4 6.4-1.1 9.4-.5 1.7-1 3.6-1 4.4-.3 1.7-.5 2-1.8 2a225 225 0 0 1-9.8 1.2l-3 .3-1.1 1c-1.1 1-2.2 1.2-2.2.5 0-.2.2-.4.4-.4a3 3 0 0 0 1-.7l.9-.6h-.7c-.5 0-1.1.3-1.7.8-1 1-1.3 1-1.1 0l.1-.6h-1c-.5 0-2 .2-3.3.5a77 77 0 0 1-4.7.9l-2.4.3-1.4 1.2a30.6 30.6 0 0 1-5.8 3.9l-1.7 1-.4.5 1.4-.2c1.4-.2 2.4-.5 2.7-1l1.6-1c2-1 2.6-1.4 5-3 1-.7 1.9-1.1 1.9-1 0 .6-1.5 1.8-4.7 4-2.5 1.8-3.7 3.1-3.2 3.6.2.2 4.8-2.1 6.7-3.5 2.3-1.5 3.3-2.5 3.3-3 0-.3.2-.5.4-.5s.4.2.4.6c0 1.6-7.5 6.8-10 7-1.3 0-2.5.5-2.7 1 0 .4.4.4 2-.3zm22.2-8a6 6 0 0 1 2.2-2c.5 0 .2.6-.8 1.4-1.1.8-1.4 1-1.4.6zm-2.9-.5c0-.2.5-.7 1-1.3l1.1-1v.5c0 .4-.3.9-.8 1.3-1 .7-1.3.8-1.3.5zm8.4-1.7c.5-.5 1.1-.7 1.1-.3 0 .3-.8.8-1.3.8-.2 0-.1-.2.2-.5zm12.4-1.2c.5-2.4 1.3-5 1.4-4.7.1.5-1 5-1.3 5.3-.2.1-.3 0-.1-.6zm-3-2.3c0-.5 1.7-6.6 2-6.8.2-.3 0 1-.4 2.5l-1 3.1c-.4 1.5-.7 1.9-.7 1.2zm2.9-3 .7-2.5a92 92 0 0 0 2.1-7.1c0 .4-.2 1.8-.6 3.2a5017.5 5017.5 0 0 0-2 6.6c-.1 0-.2 0-.2-.2zm4.2-3a42 42 0 0 1 1.3-5.3c.3-.5.2.3-.6 3.2-.4 1.7-.7 2.5-.7 2zm-5-1.5.3-1.8 1.1-3.9c1.3-4.7 2.3-6.6 1.2-2.3-1.4 5.4-2.6 9.2-2.6 8zm12.5-2.8.1-1.4.3-1.1c0-.3 0-.4-.4 0l-.4.3V137c.1-.8.3-1.4.4-1.3.2 0 .3.3.2.7 0 .7.3 1 .6.3.2-.5.2 1.1 0 3-.2 1.6-.5 2-.8 1zm-5.7-2.2.3-1.2.3-.4v.4l-.4 1.2-.4.8.2-.8zm-3-2c.5-1.7 1.8-9 1.9-10.6 0-2.3.4-3.5 1-3.2.2 0 .5-.3.8-1.2l.7-1.8c.4-1 .3.2-.2 1.8a124.7 124.7 0 0 0-2.9 11.6c-.2 1.7-1 4-1.2 4-.2 0-.2-.3-.1-.5zm10-4.6c0-.2 0-.4.2-.5.1-.1.3 0 .3.3s-.2.6-.3.6c-.2 0-.3-.2-.3-.4zm-.8-.4c0-.4 0-.5.1-.3v.6l-.1-.3zm1-2.6c0-.9.1-1.7.3-1.8.3-.2.3.6 0 2.3l-.2 1.2v-1.7zm-1 0c.3-2.1.8-2.7.6-.7a5 5 0 0 1-.4 1.8c-.2.2-.2-.2-.1-1.1zm-10.6 0c0-.6.7-4.9.9-5l.1.7c0 1-1 5-1 4.3zm11.9-2.8c0-.2-.2-.4-.4-.4-.4 0-.4-.6-.4-3.3 0-5.3-.7-10.5-1.4-10.5 0 0-.3.3-.3.7l-.8 7.5c0 .9-.2 1.2-.5 1.2-.5 0-.4-1 .1-6.6a85 85 0 0 0 .2-14.7c-.8-3-1.8-5.3-2.4-5.3l-.4.4c-.2.6-.6.5-.6-.2 0-.6.7-1.5 1.2-1.5.4 0 1.5 1.5 2 2.6 1 2.5 1.2 3.4 1.5 7.6l.4 4.2c.2.7.1 1.1-.2 1.6-.6.9-.6 1.6 0 1.4l.6-.1.3 2 .6 4.8a52.2 52.2 0 0 1 .5 8.6zm-10.7-4.9.4-2.8c.2-1 .3-4.2.2-9.7l-.1-8.1-.5-.6c-.5-.5-.5-1.3 0-1.3.9 0 1.4 3.4 1.3 8.8 0 3.2.2 4.1.5 2.6.2-.8.5-1.3.8-1 .1 0-.6 4.6-.8 5l-.7 3.3c-.5 3.1-1 5.1-1.2 5.1v-1.3zm3-1c0-.9.6-4.6.8-4.6.3 0 .3.1-.2 2.4-.4 2.2-.6 2.7-.6 2.1zm-.8-12c-.2-.4-.2-.5.1-.7.6-.2.8 0 .5.8l-.3.6zM216.2 90a43.5 43.5 0 0 0-4.8-8.5c.2-.2 1.2.8 2.1 2.2 1 1.4 3.5 6.3 3.5 6.7 0 .4-.6.1-.8-.4zm-55 74.2c0-.3-.1-.3-.5 0-.2.1-.4.4-.4.7 0 .3.1.3.4 0 .3-.1.4-.5.4-.7zm-3.7-1c-.1-.7-.8-1.4-1-1-.1 0 0 .6.3 1.2.5 1.1 1 1 .7-.1zm13.2.4 1-.6c0-.2-2.2.1-2.8.4-.4.1-.6.3-.6.5 0 .4 1.2.3 2.4-.3zm-11.5-.5-.5-.8c-.7-.7-.9-.4-.5.6.3.7.8.9 1 .2zm15 0c.1-.2 0-.3-.2-.3s-.5.1-.6.3c0 .1 0 .2.3.2.2 0 .4 0 .5-.2zm-14-2.1c-.4-.8-1-1-1.3-.6-.3.5 0 1.2.8 1.6 1 .6 1.1.2.5-1zm10.2 1.3c.7 0 1.3-.6 1-1-.2-.2-2.9.8-2.7 1 0 .2.3.2.5.1l1.2-.1zm-1.8-.9c.7-1-.1-.9-1.7 0l-1.4 1 1.3-.2c.9-.2 1.4-.4 1.8-.8zm-12.2-2.4c-.3-.5-.6-1-.6-1.3 0-.6-.7-.6-1 0-.3.6 0 1.4.5 1.4.3 0 .7.3 1 .7.6 1 .8.3 0-.8zm8.3 1c.5-.6.5-.9 0-.9-.2 0-.4.1-.4.3 0 0 0 .4-.2.6-.2.6.2.6.6 0zm7.1.2c.1-.2 0-.2-.2-.1-.5.1-.5.3-.2.3.2 0 .4 0 .4-.2zm-4-.3c.3-.3-.2-.8-.6-.8l-.5.3c-.4.2-.1.8.5.8.3 0 .6-.2.7-.3zm61-.4c0-.3-.4-.4-1.6-.4-1.8 0-2.6.2-2.6.6 0 .2 3 .4 3.8.2.3 0 .5-.2.5-.4zm-57-.6 2.1-1.5c1-.7 1.3-1.5.6-1.5-.4 0-3.2 2.1-4 3l-.6.7h.5c.2 0 .9-.3 1.5-.7zm68.9.3a17 17 0 0 0-5.2 0c-.3 0 .5.2 2.5.2 1.6 0 2.8 0 2.7-.2zm-83.3-.9c0-.5-.1-.8-.4-.8-.4 0-.5.4 0 1.1.3.7.4.6.4-.3zm17.6.2c.6-.1 1.5-.6 2-.9.5-.3 1-.6 1.3-.6l.9-.4c.6-.6.6-1.3 0-1l-1.6.4a8 8 0 0 0-2.7 1.4 15 15 0 0 0-1.6 1.4c0 .1.6 0 1.7-.3zm-4.2-1a6 6 0 0 0 1.4-1.3c0-.3.1-.3-1.3.1-1.4.4-3.2 1.7-3 2 .3.6 1.6.2 3-.8zm58.7-2.4h-1.8c-.2.2.5.3 1.6.3h1.8zm-2.3-2.3c.1-.5 0-.6-.5-.4-.8.2-.9.3-.5.8.5.5 1 .3 1-.4zm-63.8-.4c.2-.6-.1-.9-.4-.4-.4.5-.3.8 0 .8l.4-.4zm73.3-2c.7-.8.2-1-1.1-.7-.7.3-1.6.4-2 .4-.3 0-1 .2-1.3.4l-.7.4h2.4c1.6-.1 2.4-.3 2.7-.6zm5.5-.3.2-1.1v-.5l-2.2.1c-2.3.1-3 .5-2.7 1.5l.2.5H242l.2-.5zm-2-2.8c0-.7 0-.7-1.2-.3-1.2.4-1.2 1 .1 1 .8-.1 1-.2 1-.7zm2.4-.1c.6-1-.7-1.5-1.4-.5-.6.9-.5 1 .4 1 .5 0 .8-.1 1-.5zm5.6 0c.3-.1.5-.5.5-.8v-.6l-2.6.1-2.6.1v1l-.1.8 2.1-.1a11 11 0 0 0 2.7-.5zm-.5-2.1c1.4 0 1.5-.1 2-2l.1-1h-.7c-1 0-1.5.4-1.7 1-.2.5-.6.7-1.6 1-.8 0-1.6.4-1.8.5-.3.3-.3.4.5.5a5 5 0 0 0 1.4.1l1.8-.1zm-15-1c0-.2 0-.3-.3-.2-.4.2-.5.4-.1.4l.4-.3zm.7-2s-.2-.1-.4 0c-.3 0-.4.2-.3.4.2.3.7 0 .7-.3zm4.4-.3c-.2-.5-1.3-.6-1.3-.1 0 .2 1.1.8 1.3.6v-.5zm3.8-.6c.1-.3.6-.6 1.3-.8 1.4-.5 1.2-.7-.3-.4l-2.1.6c-1.1.3-1.4.7-.6.9 1 .2 1.6.1 1.7-.3zm7.8-.2h-.5l.2.1c.3 0 .4 0 .3-.1zm-14.2-1.3c.5-.2 2-.2 3.4-.2h2.4l2.7-1c3.4-1.3 5-2 4.9-2.4-.1-.2-.3-.1-.6 0-.2.3-.9.5-1.6.6-.6.1-1.7.4-2.3.7-.6.3-1.7.6-2.5.7-1.1.1-1.4 0-1.4-.2 0-.5.6-.7 1.5-.7.6 0 5-1.5 5.3-1.7.4-.4-.1-.4-1.2 0l-2.3.6-1 .3-1-.7c-.6-.4-1-.8-1-1 0-.4 2.1-1.3 3.5-1.4l1.3-.3-.7-.8c-.6-.5-.8-.6-1.2-.4-.8.5-1.2.4-.7-.2.3-.2.6-.8.7-1.2.1-.5.5-1 1-1.2l1.2-.8c.5-.4-.9-.3-2 .2-1.2.4-1 .5-1.8-.2-.9-.8-2.2-.6-3.3.5-.8.8-1.4.7-1.4 0 0-.4 0-.8.2-.9.2 0 .3-.3.3-.4 0-.5-.5 0-1.7 1.6-1.5 2-2 2.8-2.4 4.8-.4 1.6-.5 4-.3 4l1.1-.6c.8-.4 1.1-.4 1.4-.2.2.2.6.1 1.7-.4 1.5-.8 1.5-.8 1.5-.4 0 .2-1.3 1.1-3 2.1l-3 2.1c0 .2.2.1.6-.2.4-.3 1.2-.6 1.7-.7zm-.5-4.2c.5-.6 2.2-1.6 2.7-1.4.3 0-2.4 2-2.8 2l.1-.6zm-.8-.5c0-.5 2.4-2.6 2.7-2.4.1 0-.4.7-1.1 1.4-1.6 1.4-1.6 1.5-1.6 1zm19.6 4.3c0-.3-.8-.3-1.5 0-.4.2-.3.2.5.2.5 0 1 0 1-.2zm-21.2-3.5c0-.5 0-.5-.3-.2l-.2 1c0 .5 0 .6.2.3.2-.2.3-.7.3-1zm17.8-.4c.6-.2.6-.6 0-.4-.4 0-.6.2-.6.3 0 .3 0 .3.6.1zm-5.7-.6c.3-.5-.2-.7-.7-.2l-.4.4h.4c.3 0 .6 0 .7-.2zm8-.8c0-.2-.2-.3-.6-.3-.5 0-.7-.1-.7-.5 0-.7.5-.8 3.5-.9 1.3 0 2.4-.1 2.5-.2v-.9c-.2-.5-.4-.6-.7-.5-.8.3-1.9.4-1.9.2 0-.4.7-.6 1.4-.6.5 0 1.5-1 1.5-1.4 0-.4-.7-.2-1.4.3-.9.7-1.3.7-1 0 .2-1 .7-1.2 2.6-1.4 1.9-.2 2.4 0 1.9.6l-.3.4 2-.2c2-.1 4.5-.9 4.6-1.5.1-.2 0-.3-.3-.2-1.7.5-2.2.5-2.2 0v-.4l-1.7.2c-.9 0-2 .2-2.4.3-1.3.3-.8-.7.8-1.5.8-.3 1.4-.7 1.4-.8 0-.1-.7-.3-1.5-.3-1.7 0-2.1-.6-1-1 1.4-.6 5.4-1.3 5.6-1 .2.1.7 0 1.3-.2l1.7-.4c.5 0 1.2-.6 3.2-2.7 1.4-1.5 2.6-2.8 2.6-3 0-.2.3-.6.6-.8.8-.5 2.2-2.4 2-2.7-.3-.2-5.1 4.9-5.8 6-.5 1-1.2 1.5-1.4 1l.1-.7c.4-.7.4-.8-.2-.7-.7 0-.6-.5.2-1.4 1.3-1.4.7-1.3-.6.1-1.3 1.4-1.4 1.6-.8 1.8.6.3.4.6-.6 1.8-1 1.2-1.6 1.2-1.5.2.1-.9-.3-1-1.2-.2-.4.3-1 .5-1.3.5-.8 0-3.3.7-4.6 1.3-1.2.4-1.7.2-.9-.4l.5-.4-.5.1c-.2.1-.7 0-1-.2-.6-.3-.8-.3-1.2-.1-.5.2-.7.2-.6-.4 0-.3-.6-.2-1.4.2-.4.3-1 .4-1.5.4s-1 .3-1.3.7c-.5.7-1.4.8-1.3.2.1-.6-.1-.6-.8 0-.5.5-1 .7-1.2.6-.2 0-.5 0-.7.3l-.7.4c-.6 0-2.2 1-2.2 1.5s0 .4 2.5-.7c2-1 3.6-1.4 4.8-1 .8.4-.1 1-1.6 1-1 0-1.5 0-1.6.3-.2.3-2 1.6-3 2.2-1.1.5-.5.6 1.2 0 2.8-.8 3.8-.8 4-.3 0 .2 0 .6-.3.9-.3.3-.4.7-.3 1 .3.5-.3 1.1-2 1.8-.7.4-1.3.9-1.3 1 0 .7 1 1 2.2.9 1.3-.2 1.7.4.7 1.2l-.6.5 1.5-.2 1.5-.1v.4c0 .5 1 .5 1.2 0zm0-3.2c-.3-.3.1-.7 1-1 .6-.2 1-.2 1 0v.3c-.6.4-2 .9-2 .7zm0-3.2c.2-.4 1.8-1.3 2.3-1.3.7 0 .3.4-.7 1-1.3.7-1.7.7-1.5.3zm-.8-1.4c0-.4 2.9-1.8 3.2-1.6.5.3.2.6-.9 1.1-1.7.8-2.3 1-2.3.5zm6.8 7.8c0-.2-.1-.3-.5-.3-.5 0-.5 0-.2.3.5.3.5.3.7 0zm7.7-2.6h-.5c-.2.1-.2.2.2.2.2 0 .4 0 .3-.2zm-32.7-1.8a70.6 70.6 0 0 0 .2-8.3 23.6 23.6 0 0 0-.6 4.9 63.8 63.8 0 0 1-.2 5c.2-.2.5-1 .6-1.6zm12.5.5-.4.1c-.3.3-.3.3.1.2.3-.1.4-.3.3-.3zm15.7.3h-.5c-.2 0-.2.1.2.1.2 0 .4 0 .3-.1zm2-.3h-.5c-.2 0-.4 0-.4.2 0 .1.2.2.4 0l.4-.2zm1.2-4.5c0-.2-.1-.4-.5-.4-.3 0-.5.2-.5.5 0 .5.8.4 1-.1zm6.2-.5c1-1-.5-1.1-2.8-.2-1 .4-1 .5-.6.7.8.3 2.8 0 3.4-.5zm-5-1.2c.1-.1 0-.2 0-.2-.2 0-.4 0-.4.2s0 .3.2.3l.2-.3zm6-1.8c.5-.4.8-.9.8-1.1 0-.2.3-1 .8-1.6.8-1.3 1-1.8.4-1.8-.4 0-2.5 1.8-2.5 2.1 0 .2 0 .2.2.2h.6c.3.2.3.4 0 1l-1 1c-.8.3-1 1-.4 1 .2 0 .8-.4 1.2-.8zm-12.2-1.3c.3-.2-1 0-1.3.2-.3.2-.2.2.4.1.4 0 .8-.2.9-.3zm1.6-.3c.3-.2.3-.3-.2-.3-.3 0-.6.1-.7.3-.2.3.4.3 1 0zm-3-.8-.1-.3c-.2 0-.4.1-.5.3l.1.3c.2 0 .4-.2.5-.3zm7.1-1.3c.5-.6.2-.7-.5-.2-.3.3-.8.4-1.1.4l-1 .2c-.4.1-.3.2.4.5 1 .3 1.5.1 2.2-1zm-32.7-2.3c0-.3 0-.6-.2-.6s-.3.3-.3.6c0 .4.1.7.3.7.1 0 .2-.3.2-.7zm37.9-1.6-.4.2-.4.5c0 .2.2.1.4-.1l.4-.6zM231.9 99a37 37 0 0 0-3.8-10.2c-.4-.3-.3-1 .1-1 .3 0 .4-.1.3-.6-.5-1.4-1.6-3.5-2.5-4.6a58.6 58.6 0 0 0-6-6.2l-.8-.6.5.7 1.4 1.5c1 1.2 1.3 1.6.8 1.6-.2 0-.8-.4-1.4-1-1.6-1.8-3.4-3-7.2-4.9-3.2-1.6-4.3-2-4.3-1.2l.9.7c2.1 1.1 6.2 4 8 5.8 1.3 1.2 2.4 2 2.8 2.1.3 0 .8.4 1 .7 1.4 1.7 1.7 2 2 2 .1-.2.5 0 .7.3a28 28 0 0 1 2.7 4.7 228.3 228.3 0 0 0 3 7.5l.5 1 1 2.6c.7 2.2 1 1.6.3-.9zm-4.6-8c-.1-.4-.3-.5-.3-.3 0 .4.3 1.2.4 1l-.1-.7zm-68.8-1.6c.7-.6 1-2 1-4 0-2.5-.3-3-1.1-2-.5.7-.7.8-.7.4 0-.2.5-.9 1-1.4.6-.6 1.1-1.3 1.1-1.6l.4-1.2c.2-.3.4-1 .4-1.3v-.6l-.4.5-.4.5.1-.8.2-1.2c.2-.8-.6-.4-2.7 1.5-2.7 2.3-3 3-2 4.7.2.6.7 1.2 1 1.4.4.1.6.4.5.6-.5 2-.5 3-.1 3.9.4 1 1 1.1 1.7.6zm-.3-9.2.5-.7c.6-.5.7-.2.2.5-.4.5-.7.6-.7.2zm67.3 7c-.5-1.3-1.5-2.8-1.8-2.8a1066.2 1066.2 0 0 1 1.5 2.8c.7 1.2.9 1.1.3 0zm-26-10.9c0-.4-.5-.8-.7-.5-.2.2.1 1 .4 1 .2 0 .3-.2.3-.5zm-37.8-.2c0-.3-.4-.2-.5.1 0 .2 0 .3.2.2.2 0 .3-.2.3-.3zm-2.5-1.2c0-.2 0-.2-.3-.1-.2 0-.4.2-.4.4 0 .3.6.1.7-.3zm-.7-1.9a16 16 0 0 1 2.6-2c.6 0 .3.6-1 1.7-1.5 1.5-1.2 2 .8 1 1.7-1 3.1-2.7 3.1-4 0-.8 1-2.9 1.7-3.6.2-.2.6-1 .7-1.5.4-1.3 1-1.8.7-.6-.2 1 .2 1 .9 0l.5-.9-.1.8c-.2.7 0 .9.4 1 1 .3 1.3-.3 1.3-2.8l.1-2.3-.6-.6c-.7-.8-1-.5-1 1.5 0 2.1 0 2-.3 1.9-.2-.1-.5 0-.7.1-.3.3-.4.2-.4-.5l-.2-1c-.2 0-.3-.3-.3-.6s-.2-.5-.4-.5-.3-.7-.3-2.4v-2.3l-.8-1.7c-.4-1-1.2-2.2-1.7-2.7-.6-.7-.8-1.1-.6-1.3.2-.2.5-.1 1.1.4.5.4 1.1.7 1.4.7h.6l-.6-.7c-.8-.7-3-2-4.8-2.5-.7-.2-1.5-.6-1.8-.9l-.6-.5h-3c-2.1 0-3.1-.1-3.4-.4-.6-.5-.4-.7 1-.7l4.2-.3c1.6-.2 3.4-.3 4.1-.2 1.4.2 1.3 0-.7-1-1.2-.7-1.5-1-1.7-1.7-.3-1.2-1.3-1.8-3.2-1.8-1.1 0-1.7-.2-2.3-.6-1-.8-3-1.8-3.1-1.6-.1.1 0 .6.4 1 .4.5.5.7.2.6-.5-.2-.5.4 0 .8 1 1.1 1.8 1.5 3 1.5.7 0 1.1-.1 1.2-.4.1-.2.4-.4.7-.4.4 0 .5.2.5.7l-.1.8-1.6.1c-.9.1-2.5.5-3.6.9-1 .4-2.2.7-2.4.7-.8 0-.6.4.6.9.5.2 1 .6 1 .8 0 .4-.2.4-1.2.3-1.1-.2-1.4-.1-2 .3l-1.2.6c-1 0-1 .4 0 1 1.3.8 1.3 1.2-.1 1-1-.2-1.1-.1-.8.1.5.6.4 1.3-.2 1.3-.3 0-.6 0-.7-.2-.3-.5-.7-.3-.5.2.2.7-.6 1-1.2.5-.6-.6-.9-.6-.7.1.3 1 1 1.6 1.8 1.6 1.6 0 2 0 2.5.5.2.3.8.5 1.3.6.5 0 .8.2.8.5 0 .8-.8 1.2-1.4.8-.9-.6-3-1.7-3.5-1.7-.2 0-.7-.1-1-.4-.7-.4-1.1-.3-1.1.4 0 .3-.2.7-.4 1a10 10 0 0 0-.5 3c-.2 1.9-.1 2.5.2 3.2.2.4.4 1 .4 1.4 0 .4.3 1 .7 1.6 1 1.2 2 4.2 1.8 5.8-.2 1-.1 1.2.2 1.2.3 0 .5 0 .5-.2 0-.7.8-.2 1 .6.4 1 1.4 1.8 2.5 1.8.5 0 .7-.2.7-.6 0-.8.5-.8 1.3-.1l1 .7c.2 0 .8.4 1.4 1 1 .9 1.2 1 1.8.8.5-.1 1 0 1.5.2l1 .3c.2 0 1.4-1 2.6-2zm-4-2.6c0-.1-.4-.5-1-.7-1-.5-1.9-1.8-1.5-2.2.4-.3 4.4.2 4.8.7.5.4 1.7.5 1.7 0l.7-.5c.3-.1.8-.6 1-1 .2-.9.8-1 1.1-.4.3.8-.2 1.6-1.7 2.9l-1.6 1.2-1.8.2c-1.2 0-1.7 0-1.7-.2zm8.2-3.7a3 3 0 0 1-.2-1.2c0-.5-.2-.7-.7-.7-.9 0-1-.3-.7-1.5l.2-1-1-1-1-.7-1 .5-1.2.5-.3-.5c-.3-.6-1-.7-1.8-.2-.3.2-.6.2-.8 0-.3-.3.2-.7 1.2-1a2 2 0 0 0 1.1-.9c.3-.5.4-.5.5-.1 0 .2.3.3.4.2.6-.3 1.2-4.2.8-4.9-.2-.3-.2-.2-.2.4 0 .8-.4 2-.9 3.2-.1.3-.1 0 0-.8.3-2.4.2-3.7-.4-4.8l-.6-1.5c0-.7.5-.5 1 .4l1 1.6c.9 1 1 2.6.6 4-.1.5-.2 1.1-.1 1.4l.2.5.4-.4c.2-.3.5-1 .5-1.7.1-1 .2-1.2.4-.8.2.2.2.8.1 1.2l.1.9c.2.1.3.5.3.8 0 .8.4 1 1 .5.7-.7 1-.3 1 1.7 0 1.4.1 2 .4 2.4.3.2.5.6.5.8 0 .6.5.3 1.2-.8.7-.9 1.5-1.4 1.5-.8 0 .3-.8 1.3-1.8 2.5-.5.5-.9 1.2-.9 1.5 0 .7-.4 1-.8.3zm-17.7-.4c-.3-.4-.6-1.2-.7-1.7 0-.5-.3-1.3-.5-1.7l-.4-.7.4-.2c.5-.2 4 2 4.5 2.6.2.4.2.6-.3 1l-.8.2c-.5-.2-1.2 0-1.2.5 0 .7-.4.6-1 0zm1-2.2c-.3-.5-1-.4-1 0 0 .5.6.7.9.4.1 0 .1-.3 0-.4zm6.5 2c-.2-.2-.6-.5-.7-.4-.6 0-1.5-.4-1.5-.8s.8-.5 1.3 0c.1.2.7.3 1.3.3 1.3 0 1.9.5 1.4 1-.5.6-1.2.6-1.8 0zm16.6-2.7c0-.2 0-.5.2-.7.2-.2.3-.3.3-.1l-.3.6c-.1.3-.2.3-.2.2zm-15-5.6c-.4-.3-.7-.8-1-1.4-.1-.6-.4-1.1-.5-1.1l-1.1-.1h-.8l-.1-1c0-.6-.2-.8-.5-.6-1 .4-1.3.2-1.4-.4 0-1-.4-1.2-1-.8-.3.2-.9.3-1.5.1-1.8-.3-1.4-1.2.6-1.2.6 0 1.1 0 1.2-.2.3-.4.6-.4 1.1.2.3.3.9.6 1.3.6.7 0 .8.2 1 1 .2 1 .4 1 1 1.1l1 .1.3 1.2c.2.7.6 1.3 1.1 1.6.7.4 1 1 .4 1.2-.2 0-.6 0-1-.3zm-8.3-.2c-.3-.2-.6-.6-.7-1 0-.3-.4-.8-.6-1-.4-.2-.4-.3 0-.6.2-.3.3-.3.5 0 .7 1.1 1.7 2.1 2.2 2.1.5 0 .6.5 0 .7-.6.2-1 .2-1.4-.2zm6-17.2c-.3-.2-.4-.4-.3-.5.2-.1.5 0 .8.2.2.2.3.4.2.5-.2 0-.5 0-.8-.2zm41.9 34c0-.4-.8-.7-1-.5v.6c.2.4 1 .3 1-.2zm23.5-.3c-1-.8-1.3-1-1.3-.6 0 .2 1.6 1.3 2 1.4.1 0-.2-.4-.7-.8zM197 72.7c1.8-.9 2.4-1.5 1.2-1.2a14 14 0 0 0-3.9 1.7l-.4.4h.7c.3 0 1.4-.4 2.4-.9zm-32.2-.6c.3-1 0-1-.6.2l-.7 1 .6-.3c.3-.1.6-.6.7-1zm50-1.4c1.3-.2 1-.5-1-1-2.4-.6-7.3-.4-7.3.4 0 0 1 .2 2.5.2 1.3 0 2.7.2 3 .3.5.3 1.3.4 2.8 0zm-11.3-2.1c0-.3 0-.4-.3-.3-.3 0-.6.3-.6.5-.1.2 0 .3.3.2.3 0 .5-.2.6-.4zm-7.4-2v-.2c-.2-.2-.6-.2-2.3.2l-.7.2.7.1h1.4l.9-.2zm-28.7-.2c0-.2-.1-.4-.3-.5-.2 0-.3.2-.3.5 0 .4.1.5.3.5.2 0 .3-.3.3-.5zm6.5-5c.4-.5.4-1.7 0-2.4s0-1.3.9-1.3c.8 0 1-.3.2-1l-.9-1.3a8.7 8.7 0 0 0-2.5-2l-2.6-1.9-.6-.5-.3.6-.3.7c0 .5 1.4 1.6 2.8 2.3 1.7.8 2.8 1.8 2.8 2.6 0 .7-.3.6-1.3-.5-.5-.5-1-.8-1.2-.8-.4.1-.4 1.6 0 2.3l.4 1.1c0 .3.1.8.3 1 .2.5.2.7-.2 1l-.4 1v.6l1.3-.5c.7-.3 1.4-.7 1.6-1zm-5.8-4.9c-.1-1-.4-2-.9-2.7l-.7-1.4c0-.2-.2-.3-.4-.3s-.4.2-.3.4l1.1 3.5c1 3.3 1.5 3.5 1.2.5zm9.9 1.2c0-.1-.3-.7-1-1.2-.8-.9-1-1.2-.8-1.8.2-.9-.5-2.3-1.2-2.3-.3 0-.8-.6-1.5-1.6-.5-.9-1.1-1.6-1.4-1.7-.3-.1-1-.7-1.5-1.4-.5-.6-1.2-1.1-1.5-1.1-.7 0-1.8-.8-1.7-1.3.2-.4-2.3-1.8-2.7-1.5-.5.3-.3.6.2.7.3.1.6.3.6.5 0 .3-1.2.2-2.5-.2-.4-.1-.2.1.4.7.6.5 1 1.1 1 1.5.1.6.3.8.7.8.3 0 1 .4 1.5.9.9 1 3.2 2.6 7 4.9 1.7 1 2 1.3 1.6 1.6l-.5.3 1 1.2c.9 1.2 2 1.6 2.3 1zm3.9-2.1c0-.3-.5-1-1-1.8l-1.5-2.3c-.3-.6-1.6-2-2.8-3.3a14.3 14.3 0 0 0-4.3-3.2c-1.2-.5-2.6-1.3-3-1.7-1-1-3-1.7-3.4-1.3-.3.4 0 .8 1.2 1.4 3.4 1.8 7.4 5 7.4 6.2 0 .2.2.4.6.5.5.1 1 .6 3 3.4.7 1 2.9 2.6 3.4 2.6.2 0 .4-.2.4-.5zm-38.8-7c-1-.8-1.6-1-1.1-.2.3.5 1.1 1 1.7 1 .2 0 0-.3-.6-.7zm19.5-2.3c0-.4-1.3-.8-2-.7-1 0-.8.5.2.7 1.3.3 1.8.3 1.8 0zm1-2.7c0-.5-.7-1.1-2.2-1.8-2.6-1-2.6-.3 0 1.2 1.7 1 2.2 1.1 2.2.6zm.6 129.4c-1.9-.6-3.2-1.2-3-1.2l2 .4c1.7.6 4.1 1 3.2.6l-.5-.2.6-.3.7-.3h-.6c-.7 0-2.6-.8-2.4-1 .1 0 1 0 2 .3 1.5.4 1.8.6 1.6.9-.2.2-.1.4.4.6l1.2.2c.3 0 .6.2.6.5 0 .2-.2.3-.5.2l-.7.1c-.3.5-1.2.3-4.6-.8zm-42.3.3c-.2-.3.2-.3.7 0 .3.2.3.3 0 .3s-.6-.2-.7-.3zm61.8-.7c-1-.5-1-.7.2-.5.6.1.9 0 .8-.2 0-.4 2.3-.3 3.7 0 .6.2.7.3.3.5-.3 0-1.1 0-2-.3-1-.3-1.5-.4-1.6-.2l-.4.7-.3.4zm26.1-.4a96.7 96.7 0 0 0-11-3 72 72 0 0 0-4.5-1c-4.5-1-5.5-1.3-5-1.4a214.4 214.4 0 0 1 19.4 4.5l4.1 1c.4.3.1.7-.3.7-.2 0-1.4-.3-2.7-.8zm-98-.4c0-.4 2-1.8 2.2-1.6.1 0-.2.4-.7.8-1.2.9-1.5 1-1.5.8zm70.2-.2c-.2-.6-.2-.7.2-.7.3 0 .4.2.4.5 0 .7-.3.7-.6.2zm-4.5-.3c-2-.6-2-.6-1.9-.8l1.4.1 2 .5c.8.1 1 .6.3.6l-1.8-.4zm-69.8-.6c-.1-.2 0-.4.1-.4 2.6-.8 3.3-.9 3-.4-.3.6-2.9 1.2-3.1.8zm-21.3-.3c-.3-.2-.4-.3-.1-.6.3-.3 1.4 0 1.3.4-.1.4-.8.5-1.2.2zm72.2 0c-.5-.3-1-.5-.9-.7.1-.3.2-.3 1.9.2l1.4.5c0 .4-1.3.3-2.4 0zm19.7-.1a51.6 51.6 0 0 0-3.2-1.1c.2-.2 4.7.7 5 1 .3.2-1.2.3-1.8 0zm50.4-.1c-.2-.2-2.4-.7-4.8-1.3a36 36 0 0 1-4.4-1c.2-.2 7.4 1 9.3 1.4 1.2.3 1.3.4 1.1.8-.2.3-.7.4-1.2 0zm24.2-.2c-2-.8-2.6-1-5.7-1.3-3.1-.4-3.7-.5-7.3-1.4l-3.7-.9c-2-.4-4.1-1-4-1.2.1 0 2.3.2 5 .7 2.7.5 5.8 1 6.8 1a58 58 0 0 1 11 2.2c.3.2 0 .7-.6 1-.3.2-.8.1-1.5-.1zm-42.2-2.1c-.5-.3-.5-.4-.2-.4.6 0 1.3.3 1.3.5 0 .4-.3.3-1-.1zm-123.5-.3c0-.4.4-.5 1.4-.6 2.6-.2 2.6.6 0 .9l-1.5.2zm130.3-.1c-.1-.2.1-.2.7-.1 1.1.2 1.2.3.2.3-.4 0-.9 0-1-.2zm-8.4-.2h.5c0 .1 0 .2-.4.2-.3 0-.3-.1-.1-.2zM84 166.9l-.4-.2.5-.4c.5-.4 5.1-1.1 5.4-.8.3.3 0 .4-2.5 1-2.9.8-2.5.8-3 .4zm128.4-.4c-2.5-.4-2.5-.4-2-.6.5-.4 2.7-.2 3.7.3l.8.5h-1l-1.5-.2zM81.6 166c-.2-.3 0-.4 1.7-.8l1.7-.4c.3-.1.5 0 .5.1 0 .2-.7.5-1.6.7l-1.8.6c-.2 0-.4 0-.5-.2zm147.4-1.2-1-.4 1.1.2c1.3.1 2.4.6 1.5.6l-1.6-.4zm-86.7-.3c0-.2.4-.5.8-.6l2.5-1.2c2-1 2.3-1.1 2.3-.6 0 .7-3 2.4-4.6 2.7-.8.1-1 0-1-.3zm-63.3-1v-.8h1.5c.7 0 1.4.2 1.5.4l.5.2c.3 0 .3.1.1.3-.1.2-1 .4-2 .5l-1.7.1zm74-.4c-.4-.5-.1-1 .5-1s1 .7.5 1c-.5.3-.6.3-1 0zm-19.4-.2c0-.4 1.2-2.2 1.5-2.2.5 0 .5.2-.3 1.4-.7.9-1.2 1.3-1.2.8zm-65.7-.5c-1-.4-1.6-.8-1.3-1.2.2-.3 2.6.7 2.7 1.2 0 .5 0 .5-1.4 0zm72-.7c0-.3 1.1-1.2 1.6-1.3.2 0 .1.3-.3.8-.5.8-1.2 1-1.2.5zm-58.8-.1c-1.5-.2-2-.4-2-.8l.2-.5c.3-.1 3 1 3 1.2 0 .2-.1.2-.2.2l-1-.1zm51.1-1c.5-1 .9-1.2.9-.6 0 .4-.8 1.5-1 1.5-.2 0-.1-.4.1-1zm13.3 0c.4-1 .8-1.2.8-.6 0 .4-.7 1.5-1 1.5-.2 0 0-.4.2-1zm-15-1.4 1.2-2.3h.3c.4.2-1.8 4.3-2.3 4.3-.2 0 0-.6.8-2zm-10.6 1.4c0-.3 3.8-3 4.3-2.9.3 0 .9-.2 1.3-.6l1-.6c.3 0 .7-.3 1-.7.4-.4.7-.7.9-.7.5 0 .1.7-1.2 2-1 1-1.5 1.5-2 1.5-.4 0-1.1.3-1.6.6-.5.4-1.3.7-1.6.7-.4 0-1 .2-1 .4-.4.4-1.1.6-1.1.3zm-5.6-.4c-.4-.1-1.2-.3-1.9-.3-.6 0-1-.1-.6-.2l1.3-.6c.5-.3 1.2-.5 2.1-.5 1.2 0 1.2 0 .5.2-1.2.2-1 .6.3.6a8 8 0 0 0 2.9-.6c1.1-.5 1.7-.6 1.7-.4-.2.4-3.4 1.7-4.7 1.9l-1.6-.1zm-33.2-.4c-.4-.3-.5-.4-.2-.8.5-.5 1.6-.5 2.4 0l.7.4h-.7c-.5 0-.8.1-.8.4 0 .5-.7.5-1.4 0zm68.8-.1c0-.2.4-1.3 1-2.5.8-1.1 1.4-2 1.4-1.8 0 .1-.1.6-.4 1.1-1 1.6-.6 1.7 1 .4 1-1 1.9-1.6 1.9-1.4 0 .5-4.7 4.5-4.9 4.2zm-91.3-1.7a7 7 0 0 1-1.7-.9l-.4-.4h.5c1 0 3.6 1.4 3.1 1.7 0 0-.8-.1-1.5-.4zm38.8.3c-.2-.1-.3-.3-.3-.4.2-.2 1 .2 1 .4 0 .4-.2.3-.7 0zm-14-.8a11 11 0 0 0-1.6-1c-.4-.2-.6-.4-.5-.7v-.5c-1-.5.8-1.6 2-1.3 1.4.3 1.3.7 0 .5H82c0 .2.1.4.3.5.1 0 .2.3 0 .6-.1.5.5.5 1.2 0l.6-.5v1c0 .9.2 1.2.5 1.3.3 0 .7.3.9.5.6.8-.9.4-2-.4zm16.2-.1.3-.6.6.3c.4.3 1.3.4 3.2.4 1.5 0 2.7.1 2.6.2 0 0-1.7.2-3.6.2l-3.4.1zm49.6.2c0-.4 1-1.2 1.3-1 0 0 0 .4-.3.7-.5.5-1 .7-1 .3zm-41.8-.3c0-.2.3-.4.7-.5 2.6-.5 3.6-1 3.7-1.4.1-.3 1-.9 2.3-1.5 1.2-.6 3-1.6 3.9-2.3.9-.7 1.7-1.2 1.8-1.1.2.2-.2.7-1.8 1.7-1 .7-1.6 1.3-1.7 1.7-.2 1-1.4 1.5-5.3 2.7-3.6 1-3.6 1-3.6.7zm7.2-2.7c.2-.1.3-.3.2-.3l-.6.2c-.6.4-.3.5.4.1zM86.8 157c0-.1 0-.3.2-.3s.4.2.4.3c.1.1 0 .3-.2.3s-.4-.2-.4-.3zm3.2 0c0-.1 0-.3.2-.3s.3.2.3.3c0 .1-.1.3-.3.3a.3.3 0 0 1-.2-.3zm-21.2-1.4c-1-.5-1.5-.9-1.3-1 .5 0 3.4 1.3 3.4 1.6 0 .4-.2.3-2.1-.6zm3.8.2-.5-.4h.5c.3 0 .8.2 1.1.4l.5.4h-.5a2 2 0 0 1-1-.4zm71 .2c-.3-.2 1.6-2.2 2.1-2.2.6 0 .4.4-.7 1.4-1 1-1.1 1.1-1.4.8zm-87.5-.3c-.3-.2-.3-.3.2-.3.3 0 .6.1.7.3.2.3-.4.3-1 0zm192.6 0-2.6-.7a7.5 7.5 0 0 1-2-.6c.1-.2 4.7.5 5.2.8.3.1.4.4.3.5-.2.3-.4.3-.9 0zm-118.3-.3 2-4.8c.1-.1.3-.2.4 0 .3 0-.7 2.7-1.7 4.2-.5.9-.7 1-.7.6zM49 154c-1-.5-1.6-1-1.5-1 .2-.2 3.8 1.2 3.8 1.5 0 .4-.6.3-2.3-.5zm193 .4c-.1-.2-5.4-.8-10-1.2-4-.3-1.2-.6 5.8-.5a67.4 67.4 0 0 0 8.6-.3c.2.2.1.3-.4.3-.4 0-.7 0-.8.2 0 .2-1 .3-2 .4-2.3.1-2.7.3-1.1.6.6 0 1 .3.9.4-.2.3-.7.3-1 0zm-199.9-1.6c-1.4-.8-2-1.5-1.5-1.5.4 0 3.6 2 3.6 2.2 0 .4-.3.3-2-.7zm49.9 0-.6-1.2c.2-.4.6-.1 1.2 1 .7 1.2.2 1.4-.6.2zm1.8.7c-.2-.2-.2-1.4.1-1.4.3 0 .6.7.6 1.2 0 .4-.4.5-.7.2zm2.5-.3c-.5-.4-.6-.6-.3-.8.2-.3.4-.2 1 .3l.6.8c0 .4-.7.2-1.3-.3zm-63.5-.2-1.3-.7c-.6-.2-.7-.6-.3-.8.3-.2 2 .4 2.4 1 .6.7 0 1-.8.5zm51.7 0c-1.6-.4-2.2-.9-1.2-.9.6 0 3 .7 3.6 1l.5.3h-.6a17 17 0 0 1-2.3-.4zm2.9-.2c-1.4-.7-2-1.2-1.3-1.2s2 .7 2.6 1.3c.7.7.2.7-1.3 0zm2.8-.3c-.5-.5-.8-1-.7-1 .2-.2 2 1.1 2.1 1.6.3.7-.5.3-1.4-.6zm8.2.1-.8-.7c0-.4 1 0 1.5.5.6.7.1.8-.7.2zm2 0c-.4-.4-1-.7-1.3-.9l-.5-.2h.4c.5-.2 2.6 1 2.6 1.5 0 .4-.5.2-1.2-.4zm-62.4-.2c-.9-.5-1.3-1.3-.6-1.3.2 0 .8.3 1.2.7 1.4 1 1 1.5-.6.6zm9.8-.7c-1.3-.7-2.3-1.3-2-1.4a220 220 0 0 0 4.3 2c1.8 1.2 0 .5-2.3-.6zm106 1c0-.7.9-2 2-3.1.6-.7 1.2-1.5 1.3-2 0-.4.2-.8.4-1 .3-.1.2.5-.3 1.5s-.5 1.7.1 1.5c.5-.2.5.1 0 .7-.3.3-.7.4-1.2.3l-.7-.1-.8 1.2c-.7 1.2-.9 1.5-.9 1zm-51.4-.7c-.9-.5-1-.8-.4-1 .4-.2 2.6.9 2.7 1.3.2.5-1.5.3-2.3-.3zm-39 0c-1.2-.4-2-1-2-1 .2-.3 1.8.4 2.5 1 .6.5.5.5-.5 0zm184.7 0c-.2-.4 2.6-.7 3.1-.5.2.1.3.3.3.4-.2.3-3.2.3-3.4 0zm-72.8-.4c-.1-.2-.2-.3-.1-.4l1.4-.8c.7-.4 1.8-1.3 2.5-2 .7-.6 1-1 1-.7 0 .2-.7 1.1-1.7 2-2 1.8-2.9 2.3-3.1 1.9zm-27.4-.3.4-.2c.2 0 .4.1.3.2-.1.2-.3.3-.5.3 0 0-.2-.1-.2-.3zm2.4.2c0-.3 1.3-3.7 1.6-4 .6-.7.5-.2-.3 1.7-.7 1.7-1.3 2.8-1.3 2.3zm10.9-.4c-.3-.4-.2-.7 0-1.4l.4-.8.1.6v1.4l-.2.7zm-55.9 0c0-.3 1-.8 1.6-.8.1 0 .3.2.3.4s-.2.4-.4.4a5 5 0 0 0-.9.1c-.4.1-.6 0-.6-.1zm5.5-.3c-.4-.5-.4-.5-1.4-.5-.7 0-.8-.2-.4-.8.3-.5 1.6-.1 1.8.5 0 .3.4.6.7.7.4 0 .7.2.7.4 0 .4-1 .3-1.4-.3zm4.6.3c0-.4 5.2-4.5 5.8-4.5.5 0-.3.7-2.1 2-1 .6-2.1 1.5-2.5 2-.8.7-1.2 1-1.2.5zm-38.5-.3-1-.4c-.4 0-.8-.3-.8-.4 0-.3.5-.2 1.8.3.7.3 1 .8.5.8-.2 0-.4-.1-.5-.3zm-18.8-.3-.6-.2h.6l.8.2c.2.4-.1.4-.8 0zm54.2-.3c-1.3-.7-1.3-.7-1-1 .2-.2 2 .5 2.7 1.2l.4.4h-.5a5 5 0 0 1-1.6-.6zm-33.1-.1c-.7-.1-.9-.6-.2-.6.5 0 1.2.3 1.2.5s-.1.3-.2.2l-.8-.1zm74.8 0 .4-1.6.4-2c0-.5.1-1 .3-1.2.4-.7 0 2.9-.6 4-.3.6-.5 1-.5.8zm-1.6-.7c0-.4.1-.7.3-.8.3-.2.3.3 0 1l-.3.6v-.8zm7 .2.3-1.4c0-.5.3-1.2.5-1.5.2-.3.4-.8.4-1.1 0-.3.1-.6.3-.6.4 0 0 1.8-.9 3.6l-.6 1zm-66.3-.2-1.8-.7c-1.3-.4-1.5-1.2-.2-1 1 .3 2.7 1.1 3 1.5.2.4-.3.5-1 .2zm-92.8-.5c-.2-.2-.3-1.3-.3-3 0-3 .7-20 1-23.5V78.8c0-6.5 0-12.6.3-14.5.3-4.3.5-7.6.8-22.4.4-15.4.5-17.4 1.1-17.5l.5-.1v7.2l.7.1c2.3.6 3.7 1 7 2.6l4 1.8a44.7 44.7 0 0 1 11.7 8l.6.5 4.2-.3 6.7-.4h2.5l-1.8.1a203.4 203.4 0 0 1-8.1 1l-2.5.2h-2.1v1c-.2 1.8-.7 1.8-.7 0s-.4-2.8-1.4-3.4l-1.4-1-2-1.6a53 53 0 0 0-17.3-7.8c-.2.2-.3 2.4-.6 11.3-.2 6-.5 15-.8 19.6-.4 7.3-.5 11-.4 23.3.2 15.8.2 29.9 0 37.3v4.7l1-.1 2.4-.3a265.1 265.1 0 0 1 14.2-1.7l2.2-.3.1-1v-1l-1-.3-1-.5h.7c1.4 0 1.4 0 1.5-6.4 0-3.2.3-6.7.4-7.7.6-3.9.1-9-1-11.5-.7-1.8-.4-2.4 1.4-2.4 1.1 0 1.1-.2 1.2-6.1l.1-4.7-.7-.2c-.5-.2-1-.2-1.4 0-.5.4-.8.4-1.4.1-.5-.2-1.5-.5-2.4-.6-1.2-.3-1.6-.5-1.9-1L16 82l.5-.4c.4-.3.9-.4 1.4-.3 1 .2 1.4-.2 1.2-1.4-.2-.7-.4-1-1-1.1-1.4-.4-1.3-1 .2-2.4a10 10 0 0 1 1.9-1.4c.3 0 .6-.5.7-.8.4-1 1.2-.8 1.7.5.2.6.4 1.1.3 1.2l-1-.2c-1-.5-1.5-.2-2.4 1-.8 1.2-.7 1.9.4 1.9.4 0 .5 0 .3.6l-.1 1.2c0 1.6-.2 1.9-1.5 1.9-1.7 0-1.5.6.4 1 3 .7 3.2.7 4 0 1-.6 1.7-.7 1.5 0-.4 1 2 .7 3.2-.5.4-.4 1-1.2 1.1-1.8.3-1.2 1-1.7 1.6-1.4.3.2.3.5.1 1.5-.3 1.4-.2 1.7 1.1 2 1.6.4 2 .3 2-.3s.7-1.2 1-.9c.2.1.3.5.4.9 0 .4.3.7.7.8.4.1-.5.2-2 .1-1.9 0-2.8-.2-3.6-.6l-1.1-.5-.7.7a4 4 0 0 0-1 1.2c-.1.5.6 5.5 1.1 7.3.7 2.3 1.1 2.8 3 3.8 1 .5 2.4 1 3.3 1l1.4.1h-1.4c-1 .1-1.8 0-2.5-.4l-2.4-.8c-.9-.3-1.2-.5-1.2-.8l-.6-1.9c-.3-.8-.7-3-1-4.8l-.4-3.5H25V90l-.1 5.3.6.1c.3 0 0 .2-.8.2-2.7 0-2.6 0-1.3 6.2.3 1.3.4 2.7.3 4.4-.4 10.2-.7 18.8-.6 19.1 0 .3.7.5 1.5.6 1.5.1 3.8.9 5.7 1.7a491.8 491.8 0 0 1 17.3 5.3c0 .2-.5.2-1 0a317.3 317.3 0 0 1-19.6-5.7l-1.8-.7-2.5.2c-1.4 0-3.5.3-4.8.5l-6.7.8c-9.3 1-9.3 1-9.4 3.8l-.1 5.2-.2 3.3h1l5.5-.6a172.2 172.2 0 0 1 11.2-1.2 127.7 127.7 0 0 1-11.8 1.9L3 141c-.7 0-1 .2-1.2.6l-.2 3.7c-.1 3.8-.3 4.5-1.2 3.6zm113.2-.2 1.5-.7c1-.3 1.6-.6 2.2-1.4.5-.7 1.5-1.4 2.6-1.9 2-1 2.6-1 1 0-1.7 1.2-3 2.2-3.2 2.7 0 .2-.4.6-.7.8-.7.5-3.4.9-3.4.5zm26.2.1c0-.3 1.7-2.5 1.8-2.3.1.5-1.2 2.5-1.7 2.5l-.1-.2zm30.6 0c0-.1.8-1.1 2-2.2 2.6-2.4 2.8-2.3.6.2-1.2 1.3-2.4 2.3-2.6 2zM21.4 148c0-.4.8-.6 3.7-.9a33.4 33.4 0 0 0 6-.9l1-.4c.2-.2 1.1-.5 2.2-.5l1.8-.2-.5.6c-.4.4-1.1.6-2.8.8-1.9.2-4.4.6-10.6 1.8-.6 0-.8 0-.8-.3zm48.7 0c-.8-.3-1.4-1-.8-1 .4 0 2 .8 2.3 1 .2.4-.3.4-1.5 0zm30.7-.2c-1.7-.8-7.4-2.8-10.3-3.7-2.5-.7-6.4-2-10-3.3l-2-.7-4.8.1c-5.8.2-7.3.4-13.6 1.5-2.7.5-5.5.8-6.1.8-1.5-.2-1.2-.2 4.3-1.2a121.4 121.4 0 0 0 8.4-1.4c2.1-.3 4.2-1.1 4.4-1.8.1-.4-2.4-1.6-3.8-1.8-.6-.1-2.1-.7-3.5-1.4l-2.7-1.1c-.1 0-.6-.4-1-1-1-1-2-1.1-3.7-.6-1 .3-4.1 1-5.7 1.2l-1 .1.6-.4c.6-.3 1.6-.5 5.5-1.2l2.7-.6 1.2-.3v-6.2c0-15.2.2-18.8.5-18.9.2 0 .3 3 .3 12 0 6.6.2 12.6.3 13.4.2 1 .3 1.3 1 1.7l2 1A422 422 0 0 0 104 147c.3-.3.6-8.3.7-19.2a5162.3 5162.3 0 0 1 .6-46 2775 2775 0 0 1 .2-35.1 14792.6 14792.6 0 0 1 0-30.8c0-2.6.1-3.6.4-3.7.2 0 .3.4.3 1.7a426.8 426.8 0 0 1 .4 29.3c-.3 5.8-.4 11.6-.5 30.9a4361.5 4361.5 0 0 1-1 71c.4.5 2.8.1 2.9-.4 0-.4-.1-.5-.8-.5-1.2-.2-1.2-.9 0-1 1.3-.1.9-.9-.5-.9-1 0-.4-.6.7-.7 1 0 1.4-.6.8-1.3l-.4-.5.4-.4c.6-.6.3-1.3-.5-1.2-.3 0-.6 0-.7-.2 0-.2.2-.3.6-.4.9 0 1-.3 1-2.2.1-1 .2-1.4.5-1.4s.4.3.4 1.1c0 1.3.3 1.7.7 1.2.2-.2.4-.2.7.2.5.7.4.9-.5.8l-.9-.1v3.1l.8.1c.4 0 1.2 0 1.7-.2l.9-.3-.5-.4c-.3-.2-.8-.3-1.1-.3-.7 0-1.7-.8-1-.9l2 .2c1.8.2 2-.2.5-.8l-1-.3h1c.4 0 .9-.3 1-.5l.3-.5.2.6.1.6h2l3 .1c1.2.1 1.5-.1 1.5-1.3v-.8h.7c.4.1.7 0 .7-.1 0-.3 1.3.5 1.4.8l-.6.3c-.4.1-.5.3-.4.9 0 .6 0 .8-.7.8-.9.1-1.1.8-.4 1.3l.6.4h-4.6c-2.4 0-3.5 0-3.3.2.3.3 3.5.8 5.2.8.6 0 1 .1.8.3a9 9 0 0 1-2.7 0c-3.2-.4-3.7-.2-1.8.4 2.4.7 1.6.7-1.4 0-2.6-.7-3.8-.7-3.6 0a8 8 0 0 0 2.6.8c3 .7 3.9 1.1 3.4 1.4h-1l-1.7-.3-1.8-.4c-.5-.2-1-.2-1.2 0l1.7.6c1 .2 2 .6 2.3.8l.4.3-.4.4c-.4.4-.8.5-2.4.4l-2-.2s0-.2.3-.4c.2-.3.6-.4 1.2-.3.5 0 .8 0 .7-.1l-1.7-.3h-1.4v1.5c0 2.5-.1 2.5-4.2 2.5-3 0-3.7 0-4.7-.5zm6.6-1.3c.1-.4-1.3-.4-2 .1l-.5.4h1.2c.6 0 1.2-.3 1.3-.5zm-34.5-7.4c0-.2-.2-.3-.8-.3-.6 0-.9.1-.8.3l.8.2c.3 0 .7 0 .8-.2zm47.6-.4v-.6h-2.9c-1.5-.2-3-.1-3.1 0-1 .5 1.7 1.2 4.6 1.1 1.2 0 1.4 0 1.4-.5zm1.5-1.7c0-.3-.2-.6-.4-.6-.4 0-.6.6-.2 1 .3.2.6 0 .6-.4zM56.6 148h.5c0 .1 0 .2-.4.1-.3 0-.3 0-.1-.1zm16.4 0-1-.4c-.4-.2-.6-.3-.4-.5.2-.2 2.5.4 3 .9.1.2-1 .2-1.6 0zm11.7-.8-2.5-1c-1.2-.4-.5-.6.8-.2 1.8.5 3.8 1.4 3.8 1.7 0 .3-.2.3-2.1-.5zm76.7.3c0-.2.1-.4.3-.4l.2.4-.2.4c-.2 0-.3-.2-.3-.4zm-71.4-.7c-.7-.3-1.1-.6-1-.7.5-.1 2.9.6 3 1 .2.4-.7.3-2-.3zm84 0c0-.5 2.2-2.3 2.8-2.3.4 0 .8-.2 1-.4.2-.2 0 .2-.7.8-.5.6-1.1 1.1-1.3 1.1-.2 0-.6.3-1 .6-.5.4-.7.4-.7.2zm-108.5-.5c-1.6-.5-2.3-.9-2.3-1 0-.4.3-.4 2 .5 1.4.7 1.6 1 .3.5zm12.4-.5c-.6-.2-1-.5-.8-.6.4-.2 2.3.6 2.3.9 0 .3-.3.3-1.5-.3zm89 0c-.2-.5-.5-1-.8-1.2-.5-.5-.7-1.2-.2-1.2.6 0 1.7 2.1 1.3 2.7-.2.2-.3.1-.4-.4zm-83.3-.3-1.7-.7c-1.3-.6-1.4-.9-.3-.6 1.3.3 3.3 1.1 3.3 1.4 0 .3-.5.2-1.3-.1zm-17-.4c-.5-.3-.5-.4-.2-.4s.7.2 1 .4c.4.3.4.4 0 .4l-.9-.4zM39 145c-.6-.2 1.6-.7 4-1 1.2 0 1.7 0 1.6.1-.2.4-4.8 1.1-5.6.9zm86.7-.5c0-.2.2-.3.4-.3s.3.1.2.3l-.4.2c-.1 0-.2 0-.2-.2zm46.3-.3.5-.7c.2-.1.2 0 0 .4-.1.3-.4.6-.6.7-.2.1-.2 0 0-.4zm-99.3-.3-.6-.5.6.2c.3 0 .7.3.9.5.4.5-.2.4-.9-.2zm3-.2c-.9-.3-1.6-.7-1.5-.8a9 9 0 0 1 3.6 1.2c.5.5-.1.4-2-.4zm64.1-.6a282.6 282.6 0 0 0 1.8-1.6c0 .4-1.9 2.4-2.5 2.7-.3.2 0-.3.7-1zm-105.6.8.1-.2a180 180 0 0 0 9.7-1.3c.5.2-1.4.7-3.8 1-5.2.6-5.8.7-6 .5zm85-.3 1.7-1.5c1-.9 4.2-2.8 4.4-2.6l-.2.8c-.3.5-1.2 1.2-3.3 2.3-3.2 1.7-3.8 2-2.7 1zm-37.6-.3c-1.8-.6-2.3-1.1-.7-.8 1 .2 2.7 1 2.7 1.2 0 .3 0 .3-2-.4zm80.2-.5c-.7-1.2-.3-1.6.4-.4.6 1 .6 1.3.3 1.3-.1 0-.5-.4-.7-1zm17 .4c0-.3.6-.7.7-.5.1 0 0 .3-.2.4-.3.2-.4.3-.4 0zm28-.5c-.2-.3-.1-.5.3-1l1.4-2.5c.7-1.5.9-1.7 1-1.1 0 .4 0 1.1-.2 1.7-.8 2.5-1.7 3.7-2.4 3zm-35.9-.3a8 8 0 0 0-.6-2c-.8-1.7-.7-2.1.3-2 1 .2.8-1-.4-2.2-.6-.6-1.1-1-1.3-1-.5 0-2-1-1.8-1.3 0-.1.5 0 1 .3.6.3 1.2.4 1.5.3.8-.1 1.5.4 2.2 1.8.7 1.2 1.2 1.3 1.2.3.1-5.5 1-16.3 1.4-15.8.2.3.1 1.7-.6 8l-.2 5.1a15 15 0 0 1-.7 5.3c-.1.3-.2.3-.5-.1-.6-.8-1.1-.2-.7.6.5.9.3 3-.3 3.1-.3 0-.5 0-.5-.4zm2.3 0 .4-.7c.4-.3.3.2-.2.8l-.3.5zm-30.6 0c0-1 1-4.8 1.1-4.8.3 0 .1 2-.3 3.9-.3 1-.8 1.6-.8.8zm22.6-1.2-.5-.6.6.5c.6.5.7.7.5.7l-.6-.6zm15.2.4 1-1.1 1-1-.6.9c-.6 1-1.4 1.6-1.4 1.2zM49 141.3c0-.2.2-.3.3-.3.2 0 .3.1.3.3 0 .1-.1.3-.3.3a.3.3 0 0 1-.3-.3zm99.3-.4c-.2-.2-.2-.4 0-.5.3-.2 1.3.1 1.3.5 0 .5-1 .5-1.3 0zm26-.1.4-.8c.2-.1.4-.5.5-.8.2-.4.3-.5.3-.3s-.3.9-.7 1.5c-.4.7-.6.8-.5.4zm2.6.4.5-1c.3-.3.5-.5.5-.3 0 .1-.2.6-.5.9l-.5.4zm-49.8-1.4c0-.2.8-.8 1.9-1.4 1-.6 2-1.5 2.4-1.9.7-1 1.5-1.3.7-.3-1 1.4-.5 1.5 1 .3 1.7-1.6 1.2-.7-.7 1-1.7 1.7-2.1 2-2.7 1.8-.5 0-1.1 0-1.5.3-1 .4-1.1.5-1.1.2zm36.8-.8c-.6-1.1-.8-2.1-.3-1.8.4.2 1.1 2 1 2.5 0 .2-.3-.1-.7-.7zm3.2.2c-.8-.6-1-.8-.6-.8.3 0 1.8 1.3 1.6 1.3l-1-.5zm15.5-.2c.4-.8 1.1-1.6 1.1-1.3 0 .3-.9 1.7-1.1 1.7-.1 0-.1-.2 0-.4zm-47.6 0c0-.2.2-.4.3-.4l.3.3c0 .2-.2.3-.3.3a.3.3 0 0 1-.3-.3zm-9-.4c.5-.4 2.5-1 2.6-.9.2.1-1.4.8-2.4 1l-.8.2zm-104.3-.7c2.6-.5 3.2-.6 2.6-.3l-2.3.4h-1.7zm132.9-.4c-.3-.5-.3-.8 0-1 .2-.2.3-.1.4.4.3 1 0 1.5-.4.6zm-29.9-2.1a103.8 103.8 0 0 1 1-12.9l-.4 8c0 3.9-.2 7-.4 7 0 0-.2-.9-.2-2.1zm51.4 2 .3-.8.4-.2-.3.8c-.3.3-.4.4-.4.2zm-8.9-.6c-.2-.2-.4-.8-.4-1.2 0-.8-.5-1.5-1.4-1.8-.5-.2-.7-.7-.2-.7.5 0 2.1 2 2.4 3 .3 1.2.2 1.4-.4.7zm7.4-.7c.4-1 1-1.6 1-.8 0 .3-1 2-1.3 2l.3-1.2zm9.4.5.5-1 .6-1.4c.1-.6.4-1.1.5-1.1.3 0 .1.8-.8 2.7-.7 1.5-1.3 2.1-.8.8zm-156.4.2 1.2-.2c.4 0 .5 0 .1.2l-1.2.2H27zm101.3-1.2c1.2-1.2 2.3-1.7 3.6-1.7.8 0 .7 0-.5 1-.5.4-.8.5-1 .3-.3-.2-.6-.1-1 .3l-.7.5h.6c.4-.2.6-.1.6 0 0 .3-.5.4-1.8.7l-1 .1zm9.8.8c.5-.4 1.6-.8 1.6-.5 0 .3-1.1.9-1.6.9-.2 0-.2-.1 0-.4zM31 136.3c.2-.2.7-.3 1.1-.3 1 0 .8.1-.5.4-.7 0-1 0-.6-.1zm126-.1c-.4-.4-.5-1-.1-1 .2 0 .7 1 .5 1.2 0 0-.3 0-.5-.2zm-40.8-.2c0-.2-.5-.3-1.2-.2l-1.4-.1c-.1-.2-.4-.2-.6-.2a2 2 0 0 1-1-.4l-.5-.4 1.3.1 1.6.4c.2.2.6.3 1 .3.6 0 .8-.1.8-.7 0-.4-.3-.7-.8-1-.5 0-1-.2-1 0-.2 0-.6 0-1-.3a5 5 0 0 0-1.8-.3h-1.2l-.2-2.2a63 63 0 0 1 .4-11v-3c-.4-3.8-.3-6 .2-6.4.3-.2.4-.8.6-2.8l.1-2.6.3 2.4c.3 3.9.3 4-.3 4h-.5v4.4c.1 2.4 0 4.6-.1 4.8a87 87 0 0 0-.4 10.6v1.2h.8c.3 0 .9 0 1.2.2.3.2.6.2 1 0 .3-.2.6-.1.8.2.3.3 1.8.5 1.9.3a214.5 214.5 0 0 0 .4-6.8 53.9 53.9 0 0 1-.5 9.5zm2.6-7.1.2-10.4c.2-2 .3.1.3 7.2 0 5.8 0 10-.2 10.3-.2.2-.3-2.3-.3-7.1zm40.4 7.1c-.3-.4.1-.5 1.1-.3.5.1.8.2.6.3-.3 0-.7 0-1 .2-.3 0-.6 0-.7-.2zm-125-.3c3.1-.6 4.4-.8 5.9-.9l1.6-.1-2 .5-4.4.6h-1zm76.2-.9c0-.4 0-.6.1-.3v.8l-.1-.5zm10.3-2.8c0-2.1 0-3.1.3-3.4.2-.2.3-2 .3-7 0-6.6.2-8.4.7-8.4a121.1 121.1 0 0 0-.3 9.2 38.8 38.8 0 0 1-.9 10.4v2.3zm1.6 2.5c0-.3 0-1 .2-1.7.2-.6.5-2.6.7-4.3l.3-3.2v3.5c0 2.7 0 3.5-.3 3.9-.3.2-.5.8-.7 1.4-.1.5-.2.7-.2.4zm5.4.3c-.3-.3-.2-7.5 0-7.7a45.3 45.3 0 0 1 .2 7.8l-.2-.1zm-85.2-.4 1.4-.2h.7l-.8.2-1.5.2h-.6zm64.3 0c-.1-.1.1-.3.6-.3s.8.2.7.3c-.1.2-.4.3-.7.3-.3 0-.6-.1-.6-.3zm64.2-.6-1.5-1.1c-1-.6-1.3-1.2-.7-1.2l1.4.8 1.5.8c.1 0 .3.3.3.6 0 .9-.3.9-1 .1zm-124.8 0c1.5-.5 3.6-.6 2.6-.2l-2.3.4-1.7.2zm85-.7c0-.3 1.4-1 2-1 .4 0-.6.9-1.4 1.1h-.6zm-22.7-.6c-.4-.5-.5-.7-.3-.9.1 0 .3-.5.3-1 0-.8-.1-1-.6-1h-.6l.6-.4.6-.4v-2.4l.1-12.8.3-50.6c0-34.2.2-46 .3-47.2l.4-.2c.5 0 .8 3 .5 4.6a4 4 0 0 0 0 1.8v4.6a573.8 573.8 0 0 0-.2 25.8c-.4 2 0 12.3.4 13.3.8 1.5 1.4.7 1.3-1.8 0-.7 0-2.6.2-4.1.1-2.7.2-14 0-17.3a403 403 0 0 1-.2-24.2c.7 0 1 .3.9.7-.5 1-.6 2.2-.2 2.8l.4.6-.2 23.1c-.4 26.9-.5 31.4-1 32a317.2 317.2 0 0 0 0 25c-.5.2-.7-7-.8-18.9 0-8 0-10.4-.3-10.5-.3-.1-.3 1.3-.3 6.5l-.2 12.5-.2 22.6c-.2 18.4-.2 18.4-.4 18.4l-.8-.6zm2-64.3c0-.6-.2-1.1-.3-1.1-.3 0-.5 1.3-.3 2.2.3 1 .7.3.6-1zm24.4 64.1c.6-.8 1.3-1.3 1.5-1l-1 1-1.1 1zm40.6-.1c0-.7 0-2.5.3-4.7 1-7.8 1-7.8-.7-8-.6-.2-1.2-.1-1.3 0-.5.5-1.4.4-2.1-.2l-.6-.5.4-.1h1c.8.5 1.2.4 1.6-.5.3-.5.6-.9 1-.9.2 0 .6.4.8.9.3.6.6.9 1 .9h.6l-.1 2.1c-.2 3.2-.4 4.5-.6 4.5-.2 0-.3.4-.4.9-.1 1 0 1.2.4.3a208 208 0 0 0-.3 3.3c-.4 2.7-.7 3.4-1 2zm2.6.6.6-2.5c.8-2.3.8-3 .3-3.7-.5-.6-.3-1 .3-.6.3.2.5.2.8 0l.4-.5-.1.8c-.3 1.7-2.3 7.1-2.3 6.5zm-80.5-.8v-2.7c.2-1.3.2-4.4 0-7v-8.1c.2-3.2.2-3.8-.2-4.4-.3-.5-.3-1.2-.2-4.5a1029.7 1029.7 0 0 0 .9-18.8c.3-1.5.6-.4.4 1.7-.2 3.5-.3 24.3-.1 31.8.2 7.8 0 12-.4 12.2-.2 0-.4 0-.4-.2zm74.2-3 .2-5.8c0-2.1 0-2.8.3-2.5.3.4 0 8.9-.3 10.3-.2.6-.2 0-.2-2zm-39.5 2.1c0-.2.1-.4.3-.5l.2-.5c0-.2.4-1 1-1.6.6-.7 1.1-1.2 1.1-1l-1 1.2-.9 1 .9.3.8.2 1.3-1 2.6-2.2c.8-.6 1.5-1 1.7-1 .3 0-1.5 1.6-4.5 3.7-.8.6-1.6 1-1.8 1-.2-.2-.7 0-1 .3-.6.4-.7.5-.7.1zm32.5-.4c0-.1.2-.3.4-.3l.6.3c0 .1-.1.3-.4.3-.3 0-.6-.2-.6-.3zm-50.7-3.2c0-1.8 0-2.5.1-1.6a35.3 35.3 0 0 1 0 1.6zm-25.8 2.8c-.4-.4-.2-1 .3-1 .4 0 .6.3.6.6 0 .5-.6.7-1 .4zm80.9-.8c-1-.7-1.4-.8-1.8-.6-.5.3-1 0-1-.4 0-.2-.6-.8-1.4-1.3l-1.4-1h1.4c1.5 0 1.7-.2 1-1.2-.4-.6-.5-1-.1-1l1.3 1.6c1.2 1.8 2.3 2.7 2.7 2.2l.2-3.3c0-1.6 0-2.8.2-2.7l.2 4c0 2 0 3.9.2 4 .5.7-.3.5-1.5-.3zm-1.6-1.8c.2-.6-.7-1.5-1.4-1.3-.8.2-.7.6.2 1.2.9.5 1 .5 1.2 0zm18.4 1.2c.8-1.1 1.2-1.4.6-.4-.2.5-.6 1-.8 1-.2 0-.1-.2.2-.6zm-53.6-.7a39.8 39.8 0 0 0 1.2-4c.3-.7.2-1.3-.1-2.6-.4-1.7-.4-2.3 0-2.3s1 2.7 1 4c0 1.4-1.2 4.5-1.9 5-.3.4-.4.3-.2 0zm32.9.2h.7l-.4.1h-.3zm-1-.3h.5c0 .2-.1.2-.4.2-.3 0-.4 0-.1-.2zM87 122.3l-.1-12.8a185.3 185.3 0 0 1 .5-18.9l.2-4.5 2.4-.3c3.5-.4 4.8-.4 5 0v.7l-2.8.1c-1.5 0-3 .1-3.4.3l-.8.3-.1 6.6c0 3.6-.2 8.5-.4 10.7-.1 3 0 4.4.2 5 .2.7.3 3.2.3 7.9 0 7.2-.1 9.3-.6 9.3-.2 0-.3-1.3-.4-4.4zm74.8 4c0-.4.8-.4 1.3 0 .3.1.2.2-.4.2-.5 0-.9-.1-.9-.3zm-152.3-.6c-1.6-.1-3-.2-3.1-.4-.3-.2 2-.2 5.1 0 3.1.3 1.6.5-2 .4zm159.2-.4v-.9c.3-.3.1-1.8-.3-2-.1-.1-.2.3-.2.9 0 1.2-.4 1.4-.8.5-.2-.4-.7-.9-1.2-1.2l-1-.6.2-1.7.1-1.9.4.1.4.4-.2-.7c-.6-1.5-.3-1.7.6-.6 1 1.1 1.6 1.1 1.6 0 0-1 .4-1 1.7-.3 1 .5 1.1.7.7.9h-.8c-.2-.1-.4 0-.4.2s.3.4.7.5c1 .2.8 1-.2 1h-.9l.1 3c0 3 0 3.6-.5 2.4zm19.8.2c0-.3.5-1 .9-1.7l.9-1.9 2-4.5.4-1.6c.2-1.6.7-2.2.5-.7a38 38 0 0 1-3.6 9c-1.1 1.8-1.5 2.3-1.1 1.4zm-76.7-1.1c0-.8 0-.9.3-.5.2.3.2.6 0 1-.2.3-.3.2-.3-.5zm11.5-3.5.3-4.4c.2-.3.1 8-.1 8.4-.2.2-.2-1.3-.2-4zm55.2 3.5c0-.4.1-.9.3-1.1.1-.3.2-.2.2.6l-.2 1.1c-.2.1-.3-.1-.3-.6zm-37.8-.2c0-.6 3.2-2.7 3.5-2.3 0 .2-.5.7-1.4 1.3l-1.6 1.2c-.1.4-.5.2-.5-.2zM71 124c-.9-.3-1-.9-.1-.6l1.4.3c.5.1.9.3.9.4 0 .3-1.3.3-2.2 0zm89.2 0h1c1.4.2 1.4.4.1.4-.6 0-1-.2-1-.3zm-146 0c-2.1-.4-2.4-.5-2.2-.7.4-.4 3.5 0 3.5.4s0 .4-1.3.2zm-9-.5c.3-.2.8-.2 1.4 0l.8.3H6.1c-1.2 0-1.4 0-.9-.3zM181 123l.2-1.2c.2-.4.3-.4.3.3 0 .4-.1 1-.3 1.2-.2.3-.2.3-.2-.3zm-128.5-.6c.2-1 .3-1.1.6-.9.2.3-.2 1.8-.5 1.8-.2 0-.2-.3 0-.9zm131.4.5c0-.3 0-.4.2-.2v.5c-.1.1-.2 0-.2-.3zm-72-.7c0-.5.1-.7.2-.4v.9l-.1-.5zm127.3-.5c0-.9 0-1.6.2-1.7.1 0 .2.5.1 1.3-.1 2-.3 2.1-.3.4zm-77.1.7c-.7-.4-.7-.4-.2-.3l1 .4c.3.4 0 .3-.8-.1zm-45.7-1c0-.5.1-1 .3-1 .2 0 .2.3 0 1-.2 1.4-.3 1.4-.3 0zm-106-.4a280 280 0 0 0-4.8-.6c0-.6 6.3-.1 6.5.4 0 .2 0 .4-.4.3h-1.4zm39-.6.3-6.7c0-3.3.2-5.8.3-5.8.3 0 .3 7.6 0 10.7a6.2 6.2 0 0 1-.5 2.4c-.3.3-.3.2-.2-.6zm132.1.3c0-.8 1-4.4 1.6-5.8.7-1.5.7-2.5 0-2.5l-.7.3a2 2 0 0 1-.9.3c-.5 0-.7.2-.6.9l-.2 1.8c-.2.8-.4 1-.6.8l-.6-.3c-.3 0-1 1.2-1 2v.6l-.4-.3c-.7-.4-.7-.8-.2-.8.7 0 .3-1.8-.5-2.4-.7-.6-.9-1.6-.3-2 .3-.3.4-.6.3-.8v-1.4c.2-.9.3-1 .7-.9.6.2 1.3-.3 1.3-.8 0-.2-.2-.4-.5-.4s-.3-.1.3-.6l.8-.6-.1-1.2-.4-1.6c-.3-.7.4-.6 1 .1.2.3.5 1 .5 1.3v.8l.6-.2c1-.3 1.7-1 2-2l1.3-2.7a44.5 44.5 0 0 0 3.9-11.8c.4-.3 0 1.9-.7 4.3l-.8 3.2-1.3 3.2c-1.3 2.8-1.6 3.8-1 4.3.2.2-.3.5-1.5 1.1-1.9 1-2.8 1.7-2.8 2.3 0 .2-.3.7-.6 1-.5.4-.6.8-.5 1.2l.1.5 1.2-.1c.7 0 1.6-.3 2-.4.9-.3 1.2 0 1.2.9 0 .3.3.4.9.4.4 0 .7.2.6.3 0 .2-.4.3-.6.3-.3 0-.7.3-1 .6-.5.9-1.6 4.2-1.9 5.7-.2 1.5-.6 2.3-.6 1.4zm-1.6-6.4c0-.5-.1-.8-.4-.8-.5 0-.5.4 0 1 .4.8.4.7.4-.2zm-1.7-.3c0-.1 0-.2-.3-.2-.2 0-.3 0-.2.2 0 .2.2.3.2.3l.3-.3zm.8-2.2c-.1-.2-.4-.4-.6-.4-.2 0-.3.2-.2.4.1.2.3.4.5.4.3 0 .3-.2.3-.4zm63.5.2a277.9 277.9 0 0 0-.2-15.6c.6.6 1 24.5.4 24.7-.2 0-.2-2.8-.2-9.1zM113 119l.2-5.1.2-3v4.4c0 2.4 0 4.7-.2 5-.1.5-.2 0-.2-1.4zm1.3 1.3c0-.5.1-.6.2-.4v.8c-.1.2-.2 0-.2-.4zm3.2-.4c0-.7.1-1 .2-.6v1.2c-.1.3-.2 0-.2-.6zm119.7-4c0-3.2-.2-6-.4-8.2a105 105 0 0 1-1-13.5l-.3-8a149.8 149.8 0 0 0-.3-8.7c.3 0 .4 1.4.8 10a267.2 267.2 0 0 0 1 15.2 294.3 294.3 0 0 0 1 11.5l-.7 6.6-.1-4.9zm-219.7 4.6c.3-.1.6-.1.8 0l-.4.1c-.5 0-.6 0-.4-.1zm166.7 0c0-.2 0-.5.2-.8l.2-.5v.6c0 .3 0 .6-.2.7-.1.1-.2 0-.2 0zm-72.3-.5c0-.3.1-.4.2-.2v.5c-.1.1-.2 0-.2-.3zm123.2.2.1-.7.2-.6v.8c0 .7 0 .9-.3.5zm-92.4-.3c.1-.2.8-.6 1.4-1 2-1.2 3.4-2.4 3.7-3.3l.3-.9v.9c0 1.2-.3 1.7-1.5 2.3-.6.2-1 .5-1 .7l-1.5.9c-1.5.7-1.6.7-1.4.4zm-9.3-2.8c-1.4-2.7-1.6-3.3-1-3.3 0 0 .4-.2.6-.5.3-.4.3-.4.4 0a66.3 66.3 0 0 0 .7 2.8c0 .3.3 1 .6 1.6.5 1 .7 2.2.3 2.2l-1.6-2.8zm51.3 1.5c0-.3 0-.3.2-.1v.5c-.2 0-.2 0-.2-.4zm-20.8-.7a5 5 0 0 1-.4-1.3l-.4-.7c-.3-.3-.6-.2-1.4.2-1.2.6-2.4 1-4 1.3-1.1.1-1.3 0-1.9-.5-.3-.3-1.3-1-2.2-1.3-2-1-2.8-1.7-2.8-2.7 0-.6-.2-1-.5-1.4-.5-.4-.6-.7-.5-2 0-1 .2-1.4.5-1.4s.4.4.5 1.2l.6 2 .6 1.6c.2 1 1.4 1.8 2.6 1.6 1-.2 1.4 0 1.8 1l.2.7 1.3-.1c1-.2 1.5-.5 2.2-1.2 1.3-1.2 1.4-2.3.3-2.8-.7-.4-.9-.7-1.1-1.9-.2-.8-.5-1.6-.7-1.7-.4-.4-.5-1-.2-1 .4 0 2 2 2 2.5 0 .6.2 1 .8 1.2.2 0 .5.5.5.9v.7h1.1c1 0 1.1.1 1.3.7.4 1.3 1 4.9.8 5-.2.5-.6.3-1-.6zm12.4 0-.4-1c0-.3-.3-.6-.8-.8l-.8-.3-.5.6c-.6.9-.9.6-.4-.4a5 5 0 0 0 .4-1.9c0-1.8.9-1.4 1 .4v1h.7c1.2.2 1.8.8 1.6 1.8-.2 1.2-.5 1.4-.8.6zm58.8.2a45.3 45.3 0 0 1-.3-9c.2.9.7 9.3.6 9.4l-.3-.4zm-117.4-4c0-2.3.2-4.3.4-4.4v4a27 27 0 0 1-.4 4.4 17 17 0 0 1 0-4zm121.7-.3c-.2-2.6-.1-4.7 0-5a71.9 71.9 0 0 1 .2 9.6c0-.1-.2-2.1-.2-4.6zm-54.4 4a45 45 0 0 0 1.3-4.2c.2-.4.2-.4.2.3 0 .4-.2 1.3-.5 2l-.5 1.5-.3.5c-.2.1-.3 0-.2-.2zm-40.3-.8c0-.4 2.1-2.6 2.1-2.3 0 .4-1.6 2.5-1.9 2.5 0 0-.2 0-.2-.2zm-29.3-1.2c0-.6 0-.8.1-.5v1-.5zm56.6-.2-.2-1.5c0-.3 0-.6.2-.6.1 0 .2.7.2 1.5 0 1.5-.2 2-.2.6zm-4.3-.4.1-1-.6.5-.6.5.8-1.4c1-1.7 1.3-1.7 1.2-.2 0 .6 0 1 .2 1 .4 0 .3.6-.2 1.1-.8.7-1.1.6-1-.5zm2.2.2c0-.4 0-.6.1-.4v.7l-.1-.3zM253 113c0-1.6 0-2.2.1-1.4v2.8-1.4zm-186.5-8.7.2-11 .6-2.8c.6-3 .5-3.7-.3-3.7-1 0-1.1.5-1.1 5.1 0 2.5 0 4.4-.2 4.3l-.2-4.6c0-4 0-4.6.4-5 .3-.2 1.3-.4 3.2-.5a36 36 0 0 0 3.8-.4c1.1-.2 1.7 0 1.7.9 0 .4-.2.4-1.1.4l-2.4.2c-1 .2-1.3 0-1.7-.4-.8-.9-1.2-.4-1.3 1.6a55.8 55.8 0 0 0-1.2 16.9c0 6.5 0 9.8-.3 10-.2 0-.2-3.3 0-11zm68.8 9.7c-.2-.8-.7-1.9-1-2.5-.4-.6-.6-1.2-.4-1.4.2-.4 2 3.2 2.3 4.5.2 1.3-.4.8-.9-.6zm12-.5c.2-.3.4-.5.5-.4.2.2-.1 1-.4 1-.2 0-.2-.2 0-.6zm-1.8-1c0-.5 3-4.8 3.2-4.8.4 0 .3.4-.3 1-.3.2-.5.5-.5.6l-.9 1.4-1.1 1.6c-.2.4-.4.4-.4.2zm20.1-1 .2-1.2c.2 0 .2.5.2 1-.2 1.6-.3 1.7-.4.3zm9.7 1c-.2-.2-.2-1.9 0-1.9.3 0 .6 1.2.6 1.9 0 .3-.3.3-.6 0zm-59.6-1.7c0-1.2 0-1.8.2-1.7.3.2.3 1.5 0 2.7-.2.6-.2.4-.2-1zm68.5 0c-.2-.6-.4-.7-1.2-.7-.4 0-1.2.1-1.6.4-.9.4-1 .4-1 0l.6-.4 1.5-1c.6-.4.9-.6.8-.3-.1.5 0 .5 1.3.3s1.4-.2 2.4-1.7l1.6-2.1c.9-1 1.3-1.8 1-2-.1-.1-1.2.8-2.4 2a23.7 23.7 0 0 1-2.3 2.1c-.5 0 1-2 2-3a71.5 71.5 0 0 0 3.4-2.7c.2-.1.6-.8 1-1.5.3-.7.6-1.3.8-1.4.1 0 .3-.5.3-1s0-1.2.2-1.5c.2-.7 0-12.3-.4-14.7-.1-1.2 0-1.4.2-1.4.5 0 .7 1 1 6a73 73 0 0 1-.6 14.5c-.1 1-.4 1.6-.7 1.1-.3-.4-.5-.2-1.4 1.3a9.6 9.6 0 0 0-1.4 3.2l-.1.8.8-.5c.8-.4 1.5-1.9 1.6-3 0-.2.1-.5.4-.7.3-.2.4-.2.4.2v.9c0 .2 0 .6-.3 1-.4.7-.2 1 .5.6l.6-.3-.3.5c-.2.3-.4.6-.6.6h-.5c-.2 0-.4.4-.5.7 0 .5-.4.7-1.3.7-.5 0-1.4.9-1.2 1.2 0 .2.3.3.6.3s.3 0 0 .5a5 5 0 0 1-1.3 1l-.8.3.2-.5c.2-.6-.4-1-.6-.4-.3.7-1.2 1.4-1.8 1.4-.4 0-.7-.2-.9-.7zm-51.7-4c0-2.6.2-4.4.4-4.5a109 109 0 0 0-.2 8.9c-.2 0-.3-2-.2-4.4zm38.6 3.6a2 2 0 0 1-.4-.7c0-.3 2.4.1 3 .5l.5.4-1-.1h-1c-.3.5-.6.4-1.1-.1zm23.4.2c0-.1 0-.3.2-.3s.3.2.2.3l-.3.3-.1-.3zm-81.2-1.5.3-1.6c.3-.3.2 1.8-.1 2.4-.2.4-.2.2-.2-.8zm7.1-.6.2-2.5c.2-.7.3-.6.3.5l-.2 2.5-.3 1.2v-1.7zm53.7 1c-.6-.4-.2-.4.7 0 .6.2.6.3.2.3a2 2 0 0 1-.9-.3zm21.7-.4 1.4-2c.9-1.4 1-1.5 1-.8 0 .3-.7 1.2-1.5 2-.8 1-1.2 1.3-1 .8zm-60.3-.5c-.8-1-1-1.6-.2-1 .6.6 1.6 2 1.3 2a4 4 0 0 1-1-1zm109.3-3.6c0-2.2 0-3.5.2-3v3.9l-.2 3zm8.2 3.2c0-.3 0-.5.1-.3v.6l-.1-.3zm-77.7 0c-.1-.1.1-.3.5-.3s.7.2.7.3c0 .2-.3.3-.5.3-.3 0-.6-.1-.7-.3zm8.3 0c0-.1.1-.3.3-.3.2 0 .2.2.1.3 0 .2-.2.3-.3.3v-.3zm-31.6-.4c-.2-.6.9-2.2 1.7-2.4.6-.2.8 0 1.2.8 0 .2.2.1.4 0 .3-.5 1-.3 1.2.3.3.6 0 .7-.7.4-.5-.2-.8 0-1.5.6-1 .8-2 1-2.3.3zm87.4-.1c-.2-1.5-.2-3 .2-6.2.2-2 .3-4.5.2-5.5-.2-2 0-2.9.5-2.4.2.2.2 2.1 0 6.4-.4 5.6-.7 8.8-.9 7.7zm9.6-1.5v-1.8l.3 1.6v1.8c-.2.2-.3-.4-.3-1.6zm-131.2-4.5c0-3.3 0-6.3.2-6.6.1-.3.2 2.4.2 6 0 4 0 6.6-.2 6.6s-.3-2.4-.2-6zm142 5.2c0-.4.1-.5.2-.3v.6l-.1-.3zM116 96.3c0-6 0-10.7.1-10.3v11l-.1 10.3zm-61.2 9.3c-1.7-.4-3.1-1-1.6-.8 2.7.6 4.6 1 4.7 1.2.3.2-1.2 0-3-.4zm80.6 0c-.7-.6-1-1.4-.5-1.4.4 0 1.6 1.2 1.6 1.6 0 .4-.3.4-1.1-.3zm63 0a320 320 0 0 0 2-4.8c.7-1.4.4.3-.3 2-.7 1.8-1.7 3.4-1.7 2.8zm61.7-3L260 96l-.2-3.3.4 1.6c.4 1.8.5 7.2.2 10l-.2 1.7zm-146.5 1.8v-.6c.2.4.2 1 0 1.3v-.7zm-63.9-.2-1.7-.5 1.3.2c.8 0 1.7.3 2.2.5 1 .5.3.4-1.8-.2zm61.7 0c0-.3 0-.5.2-.3v.7c-.1.2-.2 0-.2-.4zm9.3-3.2c0-2.4 0-3.9.2-3.9.3 0 .3 4.2 0 6.4-.1 1-.2.5-.2-2.5zm131.9 1c-.1-1.5-.2-2.9-.1-3 .2-.2.5 2.2.4 4v2zm-193 2.1c0-.2 0-.3.2-.2.1 0 .2.2.1.4-.2.3-.4.3-.4-.2zm77.1.1c-.8-.3-1.1-1-.6-1.2.4-.1 2 1 1.9 1.3-.2.3-.3.2-1.3 0zm42.6-1c-.8-.8-.9-1-.3-1 .5 0 1.7 1 1.7 1.4 0 .6-.6.4-1.4-.4zm14.4.4c0-.2.2-.4.4-.4s.4.1.3.3c-.2.5-.7.6-.7.1zm-149-.6c-5-1.5-7.4-2.3-7.3-2.4l1.7.3 3 .9c2 .5 5.8 1.7 5.8 1.8 0 .2-.7 0-3.2-.6zm12 .5h.8c.2.1 0 .2-.5.2-.4 0-.6-.1-.3-.2zm192.3-1.1c0-.7 0-1 .2-.6v1.2c-.1.3-.2 0-.2-.6zm-110.9 0c-.6-.4-.7-1.1-.2-1.6.3-.2.4-.1.6.4.2.8 1.1 1.4 1.5 1 .3-.3 1 0 1 .5 0 .3-2.3.2-2.9-.2zm96.2.3c-.1-.2 0-.5.1-.8.2-.4.3-.3.3.3 0 .8-.1.9-.4.5zm-174.7-1.8a117.4 117.4 0 0 0 .3-16 249.4 249.4 0 0 0-4.1-.4l-1.8-.2-.3.6c-.2.3-1 1.1-1.8 1.7a5.6 5.6 0 0 1-3.1 1.4l-1.5.2.2 1.2c.7 5 .8 5.5 2 7.2 1.4 2.3 1.7 2.6 2.6 2.6.4 0 .9.1 1 .3.7.4-.1.3-2-.1-1.7-.5-2.4-1-1.8-1.3.2-.2.2-.3 0-.4-.2 0-.4-.3-.4-.6s-.3-.8-.7-1.1l-.8-.6-.2-3c-.5-4.6-.8-5-2.9-4.2-.7.3-1 .6-1.2 1.5-.3 1-1.7 5.3-2.2 6.4-.2.4 0 .5.4.5s.1.1-.5.3c-1.4.2-1.6.1-1-.5 1-1 3.3-6.9 3-7.5-.2-.1-.7-.3-1.3-.3-1.3 0-2.7-.5-4.1-1.7-1.2-1-1.4-1.5-.7-2.5l.4-.6-.3-1.4c-.5-1.8-.4-2 1.6-3.3 1-.7 2-1.2 3-1.4 2.3-.4 3.4-.1 4.6 1.1.8.8 1 1 1.3.8.5-.5.4-1.3-.2-1.1-.7.2-.7-.2 0-.6.3-.2.6-.3.7-.1 0 .2.3.2.6 0 .8-.5 2.9-.3 4 .3 1.1.5 2.1 1.8 2.1 2.8 0 .7 1.3 1.3 2.9 1.4.6 0 1 .2 1 .4H57c-1.8-.1-3.3 0-3.3.5 0 .6.4.7 2.3 1 2.8.3 3.2.1 3.7-1.6l.4-2.1c0-.8-.7-1.4-1.4-1.4-.6 0-1.7-.8-2.6-1.7l-.6-.6-1.9.1c-2.3.2-3.4-.4-4.1-2.1-.4-.9-1-1.3-2.3-2.2-2.5-1.5-3.4-1.6-4.3-.7-1.1 1.3-1.7 1.5-3.3 1.1-1.7-.3-2.2-.6-3.6-2-.8-.9-1-1.3-1-2 0-1.6 1.7-3.1 3.6-3.1.8 0 1.3-.4 1.8-1.6.2-.4.3-.5.2-.2 0 .3.2.4.9.6 1.8.3 2.9.1 3.4-.4 1.5-1.6 5.4-1.3 6.4.6l.4.7-.4.7c-.2.4-.8 1-1.2 1.3-.5.3-1 1-1.3 1.5a6 6 0 0 1-1 1.6c-1 .8-.9 1.2.1 1.7.7.3 1 .4 1 0 .4-1.2 3.3-3.4 4.6-3.3.4 0 .3.2-.7.6-2 1-3 2.3-3 3.5 0 2.7 2.5 4 5 2.7 1-.4 1.2-.5 2-.2.7.2 1 .2 1.9-.3 1.6-.8 2.2-1.7 2.2-3.3 0-.8 0-1.2.2-1 .2.1.1 1.8-.1 4.8a202 202 0 0 0-.6 10.9l-.3 10.6-.2 4.5ZM44.2 87.7c.5-.2.8-.5.8-.7 0-.4.7-.3 1.4.2 1.1.7 2.8.4 4.8-1l1.7-1.1v-1.3c0-.7.2-1.3.4-1.5.2-.2.4-.8.4-1.5 0-1.3-.6-2-2.4-2.6-1.6-.5-2.5-.2-3 .8-.7 1.8-1.7 2.2-2.4 1a3 3 0 0 0-2.7-1.9c-1.3 0-3.2.5-3.2 1l-1 .8c-1.7.8-1.9 1.2-1.3 2.6l.4 1.2-.5 1-.6.8.8.8c1.8 2 4.3 2.5 6.4 1.4zm16.2-9.5.2-1.4v-1l-.7.3c-.4 0-1.3.3-2 .3-1.6.3-1.6.8-.2 1.6 1.4.7 2.5.7 2.7.2zm-18.8-6c.2-.2.5-.7.5-1l.1-.6H46.5l.8-.6c.4-.4.9-1 1-1.5.1-.5.5-1 1.3-1.4.8-.4 1-.7 1.1-1.4.1-.6 0-1-.6-1.4-.7-.5-1-.6-2.3-.5-1.4.2-1.7.3-2.3 1l-.7.8-1.8-.2-1.9-.1-.8.7c-.5.4-1.1.7-1.7.7-1.4 0-2 .2-2.4 1-.7 1.1-.6 1.7.4 2.8 1.4 1.7 4 2.5 5 1.7zm205.2 29.1v-.5c.2 0 .3.2.3.5v.6l-.3-.6zm-114 .1a16 16 0 0 1 0-4c.4-.5.9.2.7.8l-.3 1.8c0 1.2-.3 2.1-.4 1.4zm-67.4-1.2c0-.7 0-1.3.2-1.4.2-.1.3.2.1 1.1-.2 1.7-.3 1.8-.3.3zm112.8 1-.1-.8v-.7H174.5a4 4 0 0 1-1.6-.2l-1-.4c-.4-.1-.5-.2-.2-.5.5-.7-.4-.6-1.2 0-.8.7-1.4.8-1.4.4 0-.3 3-2 4.1-2.3.5-.1.6 0 .5.3-.2.3 0 .4.6.4.5 0 .9 0 .9.2 0 .3 1.4 1 2.5 1.2.5.1 1 .6 1.6 1.4l.9 1.1h-1l-1-.1zm17-.5c0-.4.2-.7.3-.7.2 0 .3.2.3.5s-.1.6-.3.7c-.1.1-.2-.1-.2-.5zm-12.5 0a93 93 0 0 0 1.8-4.9l.2-.5c0-.3 0-.3.2-.1 0 .3.2.3.5 0 .2-.2.4-.2.3 0a189.4 189.4 0 0 0-3 5.9v-.5zm5.9-.6c.8-1.6 1.3-2.8 1.5-3.7.2-.5.3-.6.3-.3.1.4-.3 1.6-1.4 4.1-.2.5-.5.9-.6.9-.2 0 0-.5.2-1zm45.7.4c-.3-.7-.4-3-.5-6.8-.1-4.5-.5-10.4-1-14.3-.6-6-.2-17.8.6-17.8.1 0 .2.4.1 1-.8 5-.8 8.4.2 19.8a313.6 313.6 0 0 1 .6 18zm-199.4-.2c-3-1-6.6-2-8.4-2.2a7.7 7.7 0 0 1-2.6-.8l-.5-.5h.6l2.2.6 4 1.2c3.5.9 6.5 1.9 6 1.9l-1.3-.2zm21-.1c-1.4-.2-1.8-.3-1.3-.4 1.2-.1 4.2.2 4 .5l-.5.2-2.3-.3zm82.2-.2.3-.4.7-1 .8-1.6c.5-.9 1.7-1.8 3.2-2.4.9-.4 1.2-.4 2-.1.7.2 1 .2 1.3 0 .1-.1.4-.2.6-.1.2 0 .4-.2.5-.5.2-.7.6-.7.8 0 .1.3.4.5.6.5.5 0 .5.2.2 1.3-.4 1.3 1 .4 2.6-1.5.4-.6 1.2-.7 1.2-.3 0 .2-.1.3-.2.3-.2 0-.5.3-.7.8-.3.8-2.6 2.3-3 2-.2-.1-.5.2-.7.6-.5 1-1 1-.8.2.2-.7 0-1.8-.4-1.8-.1 0-.3.4-.3.8l-.6 1.2-.4.6V97l.1-1.6-1.2-.3-1.2-.2-1 .7c-1 .6-3.4 3.4-3.8 4.3-.1.4-.6.5-.6.1zm111-.6v-.5 1-.5zm-202.2.1-.3-.7c0-.1.2 0 .6.4.8.7.8.8.3.8-.2 0-.5-.2-.6-.5zm115.6.2c0-.4.8-1 1.4-1h.5l-.5.4c-1 .7-1.4 1-1.4.6zm-117.8-.2c-.3-.2-.2-.3.3-.3.4 0 .8.1.8.3 0 .3-.6.3-1 0zm149.1-.7c.3-1.8.4-2.5.7-2.5h.2a89.3 89.3 0 0 1-.9 2.5zm-155 .4-1.4-.1 1.4-.2c.7 0 1.8-.3 2.3-.4 1.2-.2 2.3-.2 2.3.2 0 .5-2.4.8-4.5.5zm104-.5c0-.3.2-.5.3-.4.2 0 .3.3.3.5s-.1.4-.3.4c-.1 0-.2-.2-.2-.5zm1 .2c-.2-.3.1-1.8.4-1.8.2 0 .3.5.3 1 0 1-.3 1.4-.7.8zm54.7-.5c0-.5.1-1.5.3-2.2l.4-1.3-.1 1.6c0 .8-.2 1.9-.4 2.2l-.2.7v-1zm-164.2.1c-1.5-.4-.3-.4 1.7 0l1.4.4h-1l-2.1-.3zm79.2 0c0-.4.1-.6.2-.4v.7c0 .1-.2 0-.2-.4zm131.1-1.7-.2-6.2c.3.2.3.8.5 4.7.2 4 0 5-.3 1.5zM162 98.2c.2-.2.5-.3.6-.2.1.1 0 .3-.2.4-.6.4-.9.3-.4-.2zm-118.3-.5c0-.6 0-.9.4-.9.3 0 .4.2.3.7-.1 1-.7 1.2-.7.2zm-12.2 0c-.3-.3-.2-.3.4-.2 1 .2 1.2.4.5.4a2 2 0 0 1-1-.3zm82-.8c-.2-.4-.1-.8 0-1 .2-.1.3.1.3.8 0 1.1-.2 1.2-.4.2zm-84.6 0c-1-.6-1.4-1-.9-1.2.1-.1.4 0 .7.3.3.3.8.6 1.2.7l1 .4c.2.4-.8.3-2-.3zm219.9-.7c0-.8 0-1 .1-.6v1.3l-.1-.7zM37.6 97c0-.2 1.3-.3 1.4-.1.1.1-.2.2-.6.2l-.8-.1zm142.6-.3c0-.3 0-.4.2-.2v.5c-.1.1-.2 0-.2-.3zm-57.3 0c-.2-.4.1-24.5.3-24.4.2.2.1 24.3 0 24.5 0 0-.2 0-.3-.2zm29.5-.9 1-1c.2 0 .8-.6 1.3-1 1-1 2.5-1.7 3.2-1.5 1 .2.7.8-.7 1.6l-1.8 1.3c-.5.6-2.5 1.4-3.2 1.4-.3 0-.3-.2.2-.8zm-39.1-9c0-5 0-8.7.2-8.5.3.5.4 17.2 0 17.2 0 0-.2-3.9-.2-8.8zM137 95c0-.2 0-.4.2-.4s.3.2.3.4-.1.4-.3.4l-.2-.4zM46 94.6c-.3-.7-.3-2.2 0-1.8.2.1.3.7.3 1.3-.1.7-.2.9-.3.5zm10 .1c-.1-.1 0-.2.2-.2s.4 0 .4.2 0 .3-.2.3-.4-.1-.4-.3zm64.8-1c0-1.1 0-6.4.3-6.6V95l-.3-1.2zm11.9 1 .1-.4c.2 0 .3 0 .3.3 0 .4-.2.5-.4.1zm48 0 .2-.7.7-1.7c.3-.7.5-1.3.6-1.2.1.1-1 3.9-1.3 3.9-.1 0-.2-.1-.2-.3zm61.1-1c0-.9.2-2 .3-2.6.2-.8.2-.6.2 1.3 0 1.3 0 2.4-.2 2.5-.2 0-.3-.4-.3-1.3zm21.1.6c-.3-.3-.2-1.2 0-1.2s.4.3.4.7c0 .7-.1.8-.4.5zM252 93c0-.7.1-1 .2-.6v1.3c-.1.4-.1 0-.1-.7zm-114.8.7c0-.2 0-.3.2-.3s.3.1.3.3c0 .1-.1.2-.3.2a.3.3 0 0 1-.2-.2zm34.2-1c0-.6.3-1.4.5-2a402 402 0 0 1 4.6-10.5c.3 0 .5.3.4.5 0 .5-1.1 3.2-2.2 5.4a50 50 0 0 0-2.7 7.2c-.5.7-.8.4-.6-.6zM55.9 93h1-1zm-10-1c-.1-.3 0-.6.1-.8.2-.2.3-.1.3.4 0 .8-.2 1-.4.3zm9.8-.5c-.4-.1-.3-.2.5-.2l1 .2c0 .4-.8.4-1.5 0zm129.8-.1c0-.3 0-.4.2-.2v.5c-.2.1-.2 0-.2-.3zm77.1-1c-.2-1.3 0-2 .4-1.5.3.5.3 2.6 0 2.6-.1 0-.3-.5-.4-1.1zm-23.2.1-.2-2.1v-1.2l.3 1.4.2 2.2-.1.6zm-102-.2c0-.3 0-.3.1-.1v.5c-.1 0-.2 0-.2-.4zm44.9.2.4-1 .4-.5-.1.7c-.3.8-.7 1.3-.7.8zm3.6-2.1c.2-2.4.5-3.2.8-2 0 .3 0 1.4-.4 2.4l-.5 1.8zm-67.8-1c0-1.8 0-2.4.1-1.6a29.4 29.4 0 0 1-.1 1.5zm1.7 1 .3-8.1.2-6v7.6a38 38 0 0 1-.4 8c-.2.3-.2 0-.1-1.6zm-63.6 1.4h.8l-.5.1c-.4 0-.6 0-.3-.1zm188-.6c0-.5 0-.6.3-.3v.7c-.2.6-.3.4-.3-.4zm15.1 0c0-.4 0-.5.2-.4v.7c-.1.2-.2 0-.2-.3zm-76.2-.7c0-.5.5-1.8.7-1.7 0 .1 0 .6-.3 1-.2.6-.4.8-.4.7zm61-.4v-.6c.3-.2.4-.1.4.3 0 .6-.2.7-.4.3zm18.2-1.3a22.4 22.4 0 0 0-.5-2.8l-.4-3.8c-.2-1.9-.3-7.7-.3-13v-9.8h.9l.3 3.2c.3 2.6.3 3.3 0 4.8-.4 2.2-.5 10-.1 14.5.5 5.3.6 8 .4 8l-.3-1zm-22-.7c0-.7 0-1 .1-.6V87 86zm18.6.6V86c.2-.2.4.2.3.7v.5zm-3.6-.3c0-.3.1-.4.3-.3l.3.4c0 .2-.2.3-.3.3-.2 0-.3-.2-.3-.4zm-16.5-1.1c-.2-1.6-.2-3.7 0-3.5.2.2.4 4.7.3 4.7l-.3-1.2zm5.1.8c0-.2.2-.4.3-.4.2 0 .3.2.3.4s-.1.4-.3.4c-.1 0-.3-.2-.3-.4zm-106.8-.5c0-.2 0-.4.2-.4s.3.2.3.4-.1.4-.3.4l-.2-.4zm118.1-.5v-.6c.2-.3.4 0 .3.6l-.1.5zm3.5-.6c-.3-1.5-.3-2.1 0-1.8.2.2.3.9.3 1.6l-.1 1.3zm-14.8 0c0-.4.2-.6.3-.5.2.1.3.3.3.5s-.1.5-.3.6c-.1 0-.3-.2-.3-.6zM116.2 83c0-.8 0-1.2.1-.7a7 7 0 0 1 0 1.6V83zm20.9 1c0-.2 0-.2.2-.2l.3.3-.3.1c-.1 0-.2 0-.2-.2zm117.8-.3v-.7c.2-.2.7.2.7.6 0 .6-.5.7-.7 0zm-11-.7c0-.2.2-.3.3-.2.2 0 .2.3.1.4-.2.4-.4.3-.4-.2zm11-1.1v-.4.7-.3zm-154.2-1.2a26 26 0 0 1-1.6-3l-.7-1.5.1-1.8c.1-1 .4-2.4.7-3 .6-1.3 1.8-2.8 2.3-2.8.5 0 .8.8.4 1.2-.2.1-.3.5-.3.8 0 .3-.2.7-.4 1-.2.2-.5 1.4-.7 2.8l-.3 2.4.6 1.2 1.3 2.2c.7 1 .7 1.5.1 1.8l-.5.1-1-1.4zm143.1 1 .1-.5c.2 0 .3 0 .3.2 0 .5-.2.6-.4.2zm14.4-.4.3-.2c.1 0 .3 0 .3.2s-.2.3-.3.3a.3.3 0 0 1-.3-.3zm-19.8-1c0-.4 0-.5.2-.4v.7c-.1.2-.2 0-.2-.3zm16.3.2c-.1-.3-.2-.6 0-.7.2-.3.4.1.3.6l-.1.5zm-4-.5c-.1-.1 0-.3.1-.3.2 0 .3.2.3.3l-.1.3-.3-.3zm7.5-.4c0-.8.2-.9.4-.1l-.1.7c-.2 0-.3-.2-.3-.6zm-14.5.1c0-.1.1-.2.2 0 .2 0 .3.1.3.2l-.3.1c-.1 0-.2-.1-.2-.3zm-127.3-.4c0-1.2 0-3.5.3-4.9.1-1 .2-.4 0 1.9 0 3-.2 4.4-.3 3zm20.4 0c0-.2.1-.4.3-.4l.2.3c0 .2-.1.3-.2.3a.3.3 0 0 1-.3-.3zm27.8 0c0-.7 5.2-6.6 5.4-6.3.1 0-.6 1-1.6 2l-2.6 3c-.7 1.2-1.2 1.7-1.2 1.2zm73.7-.4c-.1-.3-.2-.6 0-.7.2-.2.4.1.3.7l-.1.4zm16.1-.1c-.2-.7-.2-2.2.1-2.2.2 0 .3.6.3 1.3 0 1.4-.1 1.6-.4.9zm-136.9-1.3c0-1 .1-1.4.3-1.1.3.4.3 2.2 0 2.4-.2.1-.3-.3-.3-1.3zm126.2.8.2-.4c.2 0 .3.2.3.4s-.1.4-.3.4l-.2-.4zm-99.8-.1c0-.3.5-.7.7-.5 0 0 0 .3-.3.4-.2.3-.4.3-.4.1zm94.2-1c0-.4.1-.6.3-.6.1 0 .3.1.3.3 0 .3-.2.5-.3.6-.2 0-.3 0-.3-.4zm1.6-.6c-.2-1.2-.1-1.6.2-1.3v2.5zm10.6.2c0-.3.1-.5.3-.5.1 0 .2.2.2.5l-.2.6c-.2 0-.3-.3-.3-.6zm-6.6-.1c0-.2.1-.4.2-.3.2.1.2.3.2.4-.3.4-.4.3-.4-.1zm14.1.1s0-.3.2-.4c.1 0 .2 0 .2.3 0 .4-.1.5-.4.1zm-210.6-.6c-.3-.7 0-1.8.6-2.2l.5-.3v1c0 .6-.2 1.2-.5 1.5l-.4.5-.2-.5zm187.6.1.1-.4c.2 0 .3 0 .3.3 0 .4-.1.5-.4.1zm12.8-.1c0-.2.2-.4.3-.4.2 0 .3 0 .3.2s-.1.3-.3.4c-.1.1-.3 0-.3-.2zm-9.5-.6.1-.9c.3 0 .4 1 .2 1.4-.2.2-.3 0-.3-.5zm16 .1.1-.5c.2-.3.3-.2.3.3 0 .6-.1.7-.4.2zm-3.8-.3c0-.3.1-.4.3-.3l.2.4c0 .2-.1.3-.2.3-.2 0-.3-.2-.3-.4zm-132.8-1.7c0-1.8-.4-2.7-.6-1.7-.1.3-.1-.3-.1-1.2 0-1 .2-1.8.4-1.8.1-.1.2-.4.1-.9l.1-.9c.2-.1.3.8.3 2.8l.2 4-.1 1.4c-.2 0-.3-.4-.3-1.7zm126.2 1.3c0-.6.1-.7.3-.2v.6c-.2 0-.3-.1-.3-.4zm14 .1c0-.2.1-.4.3-.4l.2.4c0 .2 0 .4-.2.4s-.3-.2-.3-.4zm-10.1-.2c-.2-.5 0-2 .3-1.9.3.2.3 1.9 0 2 0 .2-.3 0-.3 0zm-134-.8v-.5c.2.3.2.8 0 1V74zm121 .5c0-.3.2-.4.3-.3.2.1.3.3.3.4 0 .2-.1.3-.3.3l-.2-.4zm3.5-.6c0-.3.1-.3.2-.1v.5c-.1 0-.2 0-.2-.4zm1.3-.1c0-.3.2-.5.3-.4.2.1.3.4.3.6 0 .2-.1.3-.3.3-.1 0-.3-.2-.3-.5zm14.6 0c0-.3.1-.5.3-.4l.2.6c0 .2 0 .3-.2.3s-.3-.2-.3-.5zm-236.6.1-.2-1c0-.6-.2-1-.7-1.4-.7-.7-.8-1-.2-1.5.6-.4 2.4-.5 3-.2.5.4 0 .8-.8.8-.9 0-1.1.3-.7.8l.5 1.1c0 .4.2.9.3 1.1.2.4.1.5-.4.5l-.8-.2zm233-.3v-.4.7-.3zm-6.7-.3c0-.5 0-.6.3-.3.2.2.2.4 0 .6-.2.3-.3.2-.3-.3zm-75.6-.5.6-.8c.3 0 0 .5-.4 1-.7.8-1 .7-.2-.2zm-90 0c0-.4 0-.8.2-1 .1-.3.3-3.2.3-6.3 0-6.1.1-7.6.6-7.6.3 0 0 13.7-.3 14.7-.4.8-.8 1-.8.1zm156.6 0c0-.4.1-.5.2-.4.2 0 .3.3.3.5s-.1.4-.3.4l-.2-.6zm-114.8-1.2-.6-10.7a707.1 707.1 0 0 1-1-23.8c-.1-.3.1-.5.6-.6l.8-.1.2-3.9a7337.6 7337.6 0 0 0 .4-10.5c-.3-1-.7-.6-.7 1l-.2 2.5-.2 1-.2-.6-.3-3c-.2-2-.3-2.3-.8-2.6-.9-.4-1.3.4-1.1 2.3v4.1l-.3 2.5v-3l-.2-4.6v-1.5l-.8-.6c-.5-.4-.7-.7-.6-.8.2-.3 3.6.8 5 1.5.8.3 1.1.4 1.6.2.4-.3.9-.3 1.8 0 1 .2 1.7.2 2.7 0a93.2 93.2 0 0 1 11.3-1.8c.6-.2 1.1-1 1-1.5-.2-.4-1.3-1-1.9-1-.4 0-2.3-.5-2.2-.6l2.6.4c3.6.7 6.5.8 7 .2l.5-.4-.9-.5-.8-.3-.8-.1-3-.8a140.6 140.6 0 0 1-7-1.6c-1.1-.3-1.6-.6-1.8-1-.3-.7-1-1-2.9-1.3l-3-.8-3.8-.8c-2.1-.4-3.3-.8-3.8-1.3-.2-.2-1.2-.5-2.2-.7-1-.1-2-.4-2-.6-.1-.1.4-.5 1-.7l1-.5.8.7c1 1 1.7 1.1 13.8 3.8 3.2.6 4.3 1 3 1.1-.6 0-.2.2 1.3.7l3.3.9 4 1c.2 0 .3.2 0 .5-.4.4-.2.5 1.1.7l1.1.4 1.5.6a169.6 169.6 0 0 1 3.2.8c.6 0 .7-.8 0-.8l-1.2-.4-.8-.4 1 .2c.6 0 2 .3 3 .6 1.8.5 2.1.5 7.2-.3 2.9-.4 3.8-.6 4-1 .1-.5-.4-.8-3.8-1.8a640.4 640.4 0 0 0-30.5-7.2c-1-.1-1.2-1-.3-1.4.5-.2.9-.1 2 .6.7.4 1.8 1 2.4 1 5.9 1.2 9.2 2 10.7 2.4l12.6 3.3a35.5 35.5 0 0 1 6.8 2l.7.2c.1.2.6.4 1.1.4a6 6 0 0 1 1.4.5 15.5 15.5 0 0 0 6.3.8 228.7 228.7 0 0 1 20.2-2.4c0-.3-2.4-1-6.6-1.9-2-.4-3.9-.8-4.2-1l-.7-.3 1 .2a266.5 266.5 0 0 0 8.2 1.7c1.5.3 3 .7 3.3 1l.5.5 3.2-.2 4.6-.3c1.2 0 1.6-.1 2.2-.6.5-.5 1.1-.7 2.3-.8 2.2-.3 3.4-.7 3.4-1.1 0-.2 0-.4-.2-.4a.3.3 0 0 1-.3-.3c0-.4 1.2-.3 2 .3.8.7 1 .7 2-.4.7-1 1.3-1 1.3-.2 0 .3.1.3.4-.2.7-1 .2-1.3-1.6-1.5a6 6 0 0 1-2.4-.6c-.5-.3-2-.7-3.3-1l-4-.7c-.8-.3-2.8-.7-4.6-1-6.3-1-9-1.5-9.2-1.8-.5-.5 2.2-.3 5.4.4a202.2 202.2 0 0 0 11.8 2.2 62.5 62.5 0 0 1 7.2 1.5l1 .1a60.5 60.5 0 0 1 8-.4c7-.2 7.5-.3 7-1.4l-.3-.5-2.9-.1H218c-7.3.2-8.3.1-8.1-.7 0-.3.3-.4.8-.4h7.8c4.5-.2 7.3-.3 9-.5h.7l.5 1.6.6 1.6h.7c.6 0 1.2.7.8.9L224 6c-6.5 0-9 .2-9.5.6-.2.1-.3.5-.4 1v.7H236V9c0 1-.6 1.2-2.8 1-2.8-.5-9.4-.7-15-.7-4 0-5 .1-5.3.5-.3.2-1 .4-1.8.5-.7 0-1.5.2-1.8.3l-1.5.5c-.5 0-1 .3-1.1.4a119.6 119.6 0 0 0 17-.2l.4.2-.4.3c-.8.4-5.4.8-11.9.9-8.9.1-12.1.3-14.9.8a8 8 0 0 1-3.8.2c-2.4-.6-10.9.2-21.5 1.8a59 59 0 0 1-5.3.5l-2 .1-1.2-.9-1.2-.9-1.3.5-1.6.7-3.3.5a44 44 0 0 0-8.6 1.2c-.6.2-2.5.4-4.2.5l-3 .2-.4.9a4 4 0 0 1-.5.9l-2.5.4c-.2 0-.4 1.2-.5 2.9 0 1.5-.3 2.8-.4 3-.2 0-.1-2.3.2-4.8 0-.7 0-1-.3-1.1-1.5-.6-2 .2-2 3.2 0 1.4-.1 3-.3 3.7v-2.5c.1-3.7 0-4.3-1-4.3-.3 0-.6.2-.6.4-.1.3-.4.4-.7.3h-1.4l-.7.1v2l-.3 3.2c-.1 1.1-.2.9-.3-1.7 0-1.6-.2-3-.3-3.1h-.9l-.7.4.2 2v2.8c-.3.7-.3.4-.5-1.7-.1-2.8-.3-3.2-1-3-.4.2-.5.7-.5 3.6 0 3.7-.4 3.5-.5-.3 0-1.3 0-2.5-.2-2.7-.2-.6-.8-.5-1 .2a64.9 64.9 0 0 0-.4 14c-.2.1-.3.5-.3.9 0 .5.2.6.7.6.8 0 1.1-.6.7-1.4-.1-.4 0-.9.1-1.5.2-.6.4-.8.4-.4 0 .3.1.7.3.9.2.2.2.4 0 .7-.2.2-.3.6-.3 1 .1.4.3.6.8.5.3 0 .8-.3 1-.5.2-.3.4-.3.8 0h1c.3-.4 1.3-.5 1.5-.1.1.1 0 .3-.2.4-.3 0-.4.4-.4 1.3l.1 1h-.7c-1.3-.1-1.5.3-1.4 3 0 1.8.2 2.4.5 2.7 1 .6 1.2.1 1.3-2v-2l.3 2 .5 2.2c.3.3.2.5-.2 1l-.4.5-.5-.6c-.4-.5-.6-.6-1-.3-.3.3-.4 1-.4 4.7a16 16 0 0 1-.2 4.4c-.2 0-.3-1.9-.4-4.6v-4.6h-.9c-.5-.1-.9 0-1 .2L124 50c-.2 5.4-.4 3.5-.4-2.9 0-5-.1-6.3-.4-6.3-.5 0-1 .6-1 1.4 0 .5 0 .5-.2-.3-.1-.5-.2-1.3-.1-1.7.1-.7 0-.9-.4-1-1-.3-1.2.1-1.4 3.8l-.1 3.5-.2-3.1v-4.5c0-1.3-.6-2.2-1-1.4-.2.8.3 14.3 1 25.6.5 6.5.5 9.8.3 9.8-.1 0-.2-.5-.2-1.2zm6.2-28.3c0-1.3-.2-2.6-.3-2.8-.3-.4-1.4-.3-1.6.2-.2.2-.2 1.5-.2 2.8l.1 2.3h2.1zm-2.4-3.5c.1-.4.2-.4.5-.1.8.6 2.3-.3 1.9-1-.3-.5-1.7-.4-2 0-.3.4-.4.4-.7.2-.5-.4-1.2 0-1.2.8s1.2.9 1.5 0zm4.2-.7c.3-.6 0-1.3-.6-1.3-.7 0-1 1.3-.5 1.6.4.3.7.2 1-.3zm-6.3-1.5c0-.6-.2-.7-.7-.7-.5 0-.7.2-.7.8l-.1.7h.7c.6-.2.8-.3.8-.8zm-.2-1.4c.2-.4 1-14 .7-14.2-.1-.1-.4 0-.6.1-.4.3-.5 1-.6 4.7-.1 2.3-.3 4.8-.5 5.3-.4 1.5-.4 4 0 4.2.6.3.7.2 1-.1zM138.8 13c-.1-.2-.6-.3-1-.3l-1.2-.2c-.2-.3-3-.9-3.8-.9h-.4l.4.3c.4.2 1.5.6 3.7 1 1.4.4 2.5.4 2.3 0zM238 72.6c-.2-.2 0-2.2.3-2.2.1 0 .2.4.2 1 0 1-.3 1.5-.5 1.2zm1.4-.3c0-.3 0-.3.1-.1v.5l-.1-.4zm10.8-.2v-.8l.3.5c.2.3.2.6 0 .8-.2.2-.3 0-.3-.5zm3.4.1.3-.2c.1 0 .3 0 .3.2s-.2.3-.3.3a.3.3 0 0 1-.3-.3zM114 69l.4-6a37.8 37.8 0 0 0 .3-6 45.7 45.7 0 0 1 0 13.1 3 3 0 0 0-.6 1.4V69zm129.8 3c0-.4 0-.5.2-.2v.5c-.1 0-.2-.1-.2-.4zm-9.1-.5c-.1-.1 0-.2 0-.2.2 0 .3 0 .3.2v.3c-.1 0-.3-.1-.3-.3zm13-.1c0-.2.2-.3.3-.3.2.1.3.3.3.5 0 0-.1.2-.3.2-.1 0-.3-.2-.3-.4zm-8.2 0v-2.5c.2 0 .3.6.3 1.3l-.1 1.3s-.2 0-.2-.2zm-171.6-.5-.6-.5v-2.5l.4-9.3c.2-3.7.4-9.3.4-12.5l.1-8 .2-2.2.8-.9c.6-.6 1-.8 1.4-.7.7.2 3.8-.8 4.9-1.6l.9-.7.3.5.4.5.4-.4c.5-.8 1-.6.9.4l-.1.8-1.2.3-3.1 1c-2.3.8-2.6.9-2.4.3.1-.2 0-.4-.3-.4s-.6.2-.6.4l-.4 1.2a9 9 0 0 0-.6 3.5c0 1.4-.2 2.5-.3 2.5-.1-.1-.2-1.4-.1-3 0-2.4 0-2.7-.3-2.4-.3.2-.4 1.3-.4 5.7l-.2 11.3a85.5 85.5 0 0 0 0 16.4c.4.6.2.7-.5.3zM75.4 34l-.4-.1c-.2 0-.4 0-.4.2s.2.2.4.1l.4-.2zM195 70.2v-.7l.5.5c.6.5.5 1-.1 1-.3 0-.4-.4-.4-.8zm55.2.4c-.3-.6 0-1.8.2-1.8.3 0 .4 1.5.1 2-.1.1-.2.1-.3-.2zm3.5-.1c0-.2.2-.3.3-.3.1.1.3.3.3.5l-.3.2c-.1 0-.3-.2-.3-.4zm-165-16A285.4 285.4 0 0 0 88 28l.1-1.4 1-.3 2.4-.8c1.9-.7 2.4-.7 1.6 0l-.6.5 1-.2c.6 0 1.6-.3 2.2-.6l1.3-.5c.2 0 .4 2.1.2 2.6 0 .3-.9.9-1.9 1.4a7 7 0 0 1-3.5.9h-1.7l.2 2.8c.2 3.4-.2 7-.7 8.1l-.5.9.1 6.5.2 7a217 217 0 0 1-.3 15.8c-.3 0-.3-3.4-.4-16zm.7-24.3V29l-.5.5c-.6.5-.7 1.2-.2 2 .4.8.7.2.7-1.3zm81 40.3c0-.2.4-.7 1-1.2.4-.5.8-.8.8-.6 0 .1-.4.7-.9 1.1-.5.5-1 .8-1 .7zm26-.4.7-.2c.3 0 .4 0 0 .2-.5.3-.9.3-.6 0zm38-.4c0-.6 0-.7.3-.4.3.5.3 1 0 1-.2 0-.3-.2-.3-.6zm9.2.5c-.2-.2.1-.9.4-.7l.2.5c0 .4-.3.5-.6.2zm4-.2c-.2-.4 0-.7.4-.7.3 0 .2.7 0 1-.2 0-.4 0-.4-.3zM60.9 69c0-.6-.2-.8-.7-1-.7-.3-2.5.1-2.5.5s-2.4 1.1-3 1l-.6-.3.8-.1c.5-.1.8-.4.9-.6 0-.3 0-.5-.3-.4-.2.1-.6-.2-.9-.7-.6-1.1-2.6-3.5-4-4.7-.5-.6-1-1-.8-1.2l2.4 2.2 2.2 2.3-.1-1.7c0-1.3 0-2 .3-2.6.5-1 .5-1 2.3-3 1.3-1.5 2.9-2.2 2.9-1.3 0 .1-.3.3-.7.4-1.5.3-2.9 2.3-1.9 2.6.2 0-.1.3-.7.4-1.8.7-2.3 3-1 5.6.9 1.7 1.5 2 2.6 1.5l1.5-.5c.8-.2.9-.5 1.1-4.2l.2-2.6-1.7-.2-1.7-.2 1.3-.2c.7 0 1.4-.3 1.6-.4.6-.5.8-5.2.3-6.3-.3-.9-.3-1.9 0-7.4V39c-.2-.1-1.5-.4-3-.5l-3.3-.4c-.4 0-1 0-1.5.2-.6.2-.9.2-1.2 0-.3-.3-.5-.3-.8 0-.2.2-.5.2-.9 0a3 3 0 0 0-1.2-.3c-.3 0-.6-.1-.6-.3 0-.1.1-.2.3-.2 1 0 .6-.8-2.2-3.5-1.7-1.7-2.7-2.8-2.2-2.5.4.3 1 .7 1.2 1l1.9 1.7a14 14 0 0 1 1.9 2.2c.5.8 1.6 1.5 2 1.2.5-.3.2-1-1.6-3l-1.9-2.2c0-.2.5.1 1 .6 1.1.8 2.7 2.9 2.7 3.3 0 .5 1.3 1.4 2 1.4 1 0 1-.4.2-1.7-.5-.7-.8-1.3-.7-1.4.2-.2.8.5 1.5 1.8l.6 1.2 1.7.3c2.8.5 4 .5 4.3-.2.4-.8.2-11.5-.3-12.3-.1-.4-.7-.7-1.3-.9l-10-1.6-8.4-1c-1.9-.5 3.5 0 8.8.6 4 .5 7.9 1 10.5 1.5l2 .3.9-.4 1.5-.5c.8 0 6.3-2.2 6.3-2.5 0-.3-1.2-.6-2.4-.6l-1.2-.4-.5-.5 2.1.2 3.7.3c1.2.1 2 0 2.8-.3a69.4 69.4 0 0 1 6.8-2.2A60.1 60.1 0 0 1 93 14.4c.2.2-2.6 1.2-8.3 3a248.5 248.5 0 0 0-17.5 6.1c-.8.3-2.1.7-3 .8-.8.2-1.7.6-2 .8l-.5.5V53.4c0 4.2-.4 16.2-.6 16.3-.1.1-.2-.2-.2-.6zm-41.6 0c-1.1-.8-1.4-1.4-1.2-2.4.2-.8 1-1 1.5-.3.3.3.3.5 0 1-.4.6-.2 1 .7 1.5.3.1.6.4.5.5-.3.4-.4.3-1.5-.4zm103.6-1.5v-1.2 2.3-1.1zm115.2 1c0-.5.1-1 .3-1 .1 0 .3.4.3.9s-.2 1-.3 1c-.2.2-.3-.2-.3-.9zm15.6.7c0-.3.2-.4.3-.3.2.1.2.3.1.4-.2.4-.4.3-.4-.1zm-10-.6c0-.3 0-.3.2-.1v.5c-.1 0-.2 0-.2-.4zm4-.2c0-.4 0-.6.2-.5.2 0 .3.3.3.5s-.1.4-.3.5c-.1.1-.3-.1-.3-.5zm-13.2.4-.3-2.3c0-1.5 0-2 .2-1.8.2.2.3 1 .2 2.3l-.1 1.8zm-98.1-.8v-.6c.3-.2.4-.1.4.3 0 .6-.1.7-.4.3zM239 68c-.1-.5.1-2.1.3-2.1.1 0 .2.5.2 1.2 0 1-.2 1.6-.5.9zm-141.6-.2c-.2-.2-.2-1.4.1-1.4.4 0 .7 1 .4 1.4h-.5zm160.2-.5c0-.3.1-.4.2-.1v.5c-.1 0-.2-.1-.2-.4zm-14-1.2c0-.6.2-1.1.4-1 .1 0 .2.1.2.3v1c0 .4-.2.8-.3.8-.2 0-.3-.5-.2-1.1zm4 .6c0-.2 0-.3.2-.3s.3.1.3.3c0 .1-.1.2-.3.2a.3.3 0 0 1-.3-.2zm9.9-.6a.5.5 0 0 1 0-.5c.2-.2.4-.2.5 0v.6c-.2.2-.4.2-.5 0zm-234.8-.6c-.5-.2-1.2-.3-1.9-.2-.9.1-1.2 0-1.7-.5-.4-.3-.7-.7-.7-.8 0 0 .7-.3 1.5-.4 1.1-.1 1.6 0 2.1.3l1.1.4c1 0 1.5 1.1.8 1.4-.2 0-.7 0-1.2-.2zm3-.3-.6-.8v-6.9a69.9 69.9 0 0 1 .9-9.3c.5-.1.6 2 .4 9.1l-.1 7 .4.6c.5.8.6 1 .1 1-.2 0-.7-.3-1-.7zm91.5.2V65c.2.2.2.5 0 .7v-.3zm-89 0c-.4-.3-.3-.6.1-.6.3 0 .4.2.4.4 0 .4-.3.5-.6.2zm219.3-.3.3-.4c.2-.1.3 0 .3.2 0 .3-.1.5-.3.5l-.3-.3zM100 64.8c-1-.4-1.3-.8-1.1-1.2 0-.3.5-.4 1.7-.3 1.7.2 2.5.7 2.2 1.4-.1.4-1.7.5-2.8.1zm139.2-.4c0-.3 0-.4.2-.2v.6c-.1 0-.2-.1-.2-.4zm18.5 0c0-.4.1-.6.3-.6.1 0 .2.1.2.3 0 .3 0 .5-.2.6-.2 0-.3 0-.3-.4zm-7.1-.4c0-.1 0-.2.2-.2s.3 0 .3.2-.1.3-.3.3a.3.3 0 0 1-.2-.3zm-64.1-.2h1c.3.1 0 .2-.6.2s-.8 0-.4-.2zm47.6-.7V62c.2-.2.3.1.4.7V64c-.2 0-.3-.3-.4-.8zm9.9.5c0-.3 0-.4.1-.1v.5l-.1-.4zm-126.7-.9c0-.6 0-1 .1-.6v1.2l-.1-.6zm5.2.3a3344.8 3344.8 0 0 1 0-3.8c.2.1.2 1.2.2 2.5 0 1.2-.1 1.8-.2 1.3zm125.4.3c0-.3.1-.3.2-.1v.5c-.1 0-.2 0-.2-.4zm-219.4 0c-.3-.3-.2-.6.2-.6.2 0 .4.1.4.3 0 .3-.4.5-.6.3zm73.8-1.3c-.6-1.1-.7-1.6-.5-1.9.4-.7 1-.7 1.4 0 .3 1 .3 3 0 3.2-.1.1-.5-.5-1-1.3zm-65.8.7c-.3-.3-.7-.4-.9-.3-.5.3-2.8.2-2.8-.1 0-.2.2-.4.3-.4l1.9-.1c1-.1 1.6 0 1.8.3.4.5.9.4 1.4-.2l.5-.5-1.4-1c-.7-.5-1.3-1-1.3-1.2l.4.2 1.5 1 1 .5 1-.4.9-.4-.2-.8c-.2-1 .3-1.4.8-.7.8 1 1.7.1 1.7-1.6 0-.7 0-1 .4-1.2.2-.2.4-.4.3-.5-.2-.4-1.1-.3-1.3 0-.1.5-1 0-1-.5 0-.7.5-.7 2.5-.2 2 .5 2.4.5 3 0 .6-.8.5-1.6-.4-2l-.8-.4.3-.7c.3-.3.4-.7.3-.9-.3-.5-3-1.4-3.8-1.3-.8 0-1.7 1.5-1.9 3 0 .7-.2 1.3-.4 1.3-.3.1-.3 0-.2-.5.2-1 0-2-.8-2.4l-.6-.5-1 .5c-.5.2-1.1.3-1.3.2a5 5 0 0 0-1.3-.4c-.6 0-1.1-.3-1.2-.5 0-.2.1-.3 1-.1l1.9.1c2.3 0 2.7 0 3.1.4l.5.4.2-.6c.3-.8 1.2-1.8 1.7-1.8.6 0 3.5 1 4.2 1.5.4.2.6.6.6 1s.2 1 .5 1.4c1.3 1.6.1 3.3-2.4 3.3-.7 0-1 0-.9.2.1.2 0 .5-.2.8-.4.4-.4.5-.2.7.2.1.5 0 .8-.4l.5-.6 1.4.2c1 .1 1.6.4 2.4 1.1 1.6 1.5 1.2 2.3-.7 1.6-1.4-.6-1.4-.6-.5.3.4.5.6.8.4.8a.6.6 0 0 1-.4-.2c-.3-.5-.7-.3-.6.2.1.3 0 .6-.3.7-.6.2-1.6-.8-2.2-2.2l-.6-1.1-.7 1c-.3.4-.7.8-1 .8l-1 .7c-.4.3-.8.7-1 .7-.2.1-.2.3 0 .7.7 1.1.3 1.9-.4.8-.3-.4-.4-.4-1-.2-.4.1-.9.4-1 .6-.6.6-.8.5-1.5 0zm9.8-3.5c0-.2-.2-.6-.5-.9-.6-.5-.7-.4-.3.6.3.7.8.9.8.3zm1.5-1.7c-.8-.7-1.4-.8-1.6-.3-.3.5.4 1 1.4 1h1zm191.4 5.3c0-.2.1-.3.3-.2.1 0 .2.3 0 .4-.2.4-.3.3-.3-.2zm-207.8-.2c-.5-.4-.6-1-.2-1 .2 0 1 1 1 1.2 0 .3-.3.2-.8-.2zm156 .2c0-.4 1.8-.6 4.2-.6 1.6 0 2.5-.3 1.7-.6-.1-.1 0-.2.3-.2s.6.1.5.3c0 .2.3.4.8.5 1.4.2.3.4-3 .5a36.7 36.7 0 0 0-4.6 0zm63.4-.2c0-.4.1-.4.2-.2v.5c-.1 0-.2 0-.2-.3zm6.8-1-.2-2.9c0-.8-.2-1.7-.4-2-.7-1.4-.3-2.7.7-2.2.8.4 1 1.7.8 3.2-.2.8-.3 2.3-.3 3.3 0 2.3-.3 2.6-.6.6zm-160.1 0V51.3a2253.5 2253.5 0 0 0 .5-25 244.8 244.8 0 0 1-.5 35.3zm150.6.3c-.1-.1 0-.3 0-.4.2 0 .3 0 .3.3 0 .4-.1.5-.3.1zm-218.2-.5c-.3-.2-.3-.3 0-.3s.5.1.5.3c0 .3 0 .3-.5 0zm93.9-.1c-.4-.8-.3-3 0-2.7.2.2.3 1 .2 1.8 0 .9-.1 1.2-.2.9zm115.3.1.1-.6c.2-.3.2-.2.2.3 0 .6 0 .7-.3.3zm-48.4-.2h.7l-.4.1h-.3zm60.1-.3c0-.3.1-.6.3-.6.1 0 .3.3.3.6 0 .2-.2.5-.3.5-.2 0-.3-.3-.3-.5zM117 60.7c0-.2.2-.3.3-.2.2 0 .3.2.3.4 0 .1-.1.2-.3.2-.1 0-.3-.2-.3-.4zm117.1 0V60c.4-.3.7.4.4.9-.2.3-.3.2-.4-.1zm14.2-.5.2-.4c.2 0 .3.1.3.2 0 .2-.1.4-.3.5-.1 0-.2 0-.2-.3zm-63-.2c0-.3 3.3-.6 4.7-.4 2.3.3 1.6.6-1.5.6-1.8 0-3.2 0-3.2-.2zm54 .2c-.3-.5-.2-2.5.1-2.5.2 0 .3.5.3 1 0 1.1-.2 1.9-.5 1.5zM117 59.6c0-.3 0-.3.1-.1v.5l-.1-.4zm117-.6.1-.6c.2-.2.3-.1.3.3 0 .6-.1.7-.4.3zm-199-.5c-.5-.8-.3-1.3.5-1.4.4 0 .6-.2.5-.5 0-.3.2-.5.8-.6.7 0 .8 0 .8.5s-.2.6-1.1.8l-1 .2v.7c.3 1-.1 1-.6.3zm82-.2-.2-3.4c0-1.6-.3-4.4-.4-6.2-.3-3.9-.3-12.8 0-10.6l.3 5.6a179 179 0 0 0 .4 14.1c0 .6 0 .8-.1.5zm137-.1c0-.9.3-2.1.6-2.1s0 1.9-.4 2.2c-.1.2-.2.1-.2-.1zM122.2 56v-2.4c.2-.2.3.8.3 2.2l-.1 2.4s-.2-1-.2-2.2zm85.3 1.6c0-.4 0-21 .2-22.1l.3.2c.1.3.2 2.1 0 5-.2 8.5-.2 9.4 0 13.1.1 3.5 0 4.9-.5 3.8zM120.7 55c0-2.8-.3-5.3-.5-6.1l.1-.5a24.3 24.3 0 0 1 .6 9.3s-.2-1.2-.2-2.7zm113.4 2.6a119.5 119.5 0 0 1 .2-8c.3 0 .4 7.8 0 8h-.2zm-110.5-2c0-1.8 0-1.9.2-1v2c-.1.8-.2.5-.2-1zm76.9 1c-.5-2-.8-22-.4-22 .2 0 .2-.8.3 7.6 0 4 .2 9 .3 11.2.2 3.8.1 5-.2 3.2zM81.6 57l-1.6-.5-1.2-.5v-1c0-.5.4-2 .7-3.1l.7-2.2-.4-.5c-.9-.9-1.3-3.1-1.1-5.5.2-3 .8-4.5 1.6-4.5.4 0 .7.2.9.8.1.4.4.8.7 1 .6.2 2-1 2.8-2.5a5 5 0 0 1 1-1.5c.3 0 .8 1.7 1 3.3 0 .8.4 1.8.6 2.4.7 1.4.7 2.2-.2 3.3a5 5 0 0 0-1 4.9c.5 2 .5 4 .1 4.7-.5 1-3 1.7-4.6 1.4zm3.5-1c.3 0 .4-.1 0-.2l-.7.3c-.5.3 0 .3.7 0zm-1.4-.4 1.2-.4c.3-.4.2-2.7-.2-3.8-.7-2-1.1-1.2-.8 1.2.3 2 0 2.6-1.4 2.8-1.2.1-1.8-.1-1.8-1 0-.6-1.2-.5-1.3.2-.2 1.1 1.8 1.6 4.3 1zm-.6-1.2.2-1.3c0-.7-.2-.9-.9-1-.4 0-.8.1-1 .3-.3.6-.2 2 .2 2.2.6.2 1.1.2 1.5-.2zm2.7-2.7a5 5 0 0 0-.4-1.4c-.1-.3-.2 0 0 .8l.2 1.4c.3.4.3.1.2-.8zm-2.5-.6-.1-1c-.2-.3-.3-.3-.6 0-.6.5-.8-.3-.4-1.8.4-1.2 2.3-4.1 2.7-4.1.3 0 .7-4 .5-4.2-.1 0-.7.2-1.2.6-1.4 1.1-2.4 1.7-2.8 1.7-.2 0-.5-.4-.8-1-.2-.5-.5-.8-.6-.7l-.7 2.3-.4 2.2.5 1.5c.7 2.1 1.8 4.1 2.4 4.6.8.6 1.5.5 1.5-.1zm-3-4-.1-.6c0-.7.6-.4.7.3 0 .5-.2.7-.6.4zm4 1.2c.4-.4.8-2.8.5-2.8-.4 0-1.5 1.8-1.5 2.5s.6 1 1 .3zM239 56.6a.5.5 0 0 1 .1-.6h.5v.7h-.6zm-124.5-.4a280 280 0 0 1-.4-35.9c-.1-1.3-.2-1.5-.6-1.5-.3 0-.6-.3-.8-.5-.4-.9.4-.7 1.3.2l.7.7v2l-.4 5.7c-.4 4-.2 18.7.3 25.5.2 3.7.2 4.1-.1 3.8zm-81-1.1c0-.4-.3-1-.5-1.2-.3-.6-.3-2.6 0-2.4.2 0 .3.4.3.8s.2 1 .5 1.5c1 2 1 2 .5 2-.3 0-.6-.3-.7-.7zm205.6 0c-.2-.2 0-.6.4-.6l.2.4c0 .4-.3.5-.6.2zm-203.2-.6c-.3-.4 0-.8.5-.8.2 0 .4.2.3.5 0 .5-.6.7-.8.3zM69 49.1c0-2.9 0-5.2.2-5.4.3-.5.3 5.6 0 8.6-.1 1.3-.2.5-.2-3.2zm170 4.1c0-.3.2-.6.3-.7.2 0 .3.1.3.5s-.1.7-.3.7c-.1 0-.2-.2-.2-.5zm0-1.6c0-.5.4-.9.7-.6.2.2-.1 1.1-.4 1.1-.1 0-.2-.2-.2-.5zM122 48v-3c.3.2.3 5.8.1 6l-.1-3zm117.2 2c0-.1.2-.3.4-.3s.3.2.2.3c0 .2-.2.3-.4.3-.1 0-.2-.1-.2-.3zM41.9 43.2l1.3-.3c.7-.1 1.1-.3 1.2-.6 0-.3-1-1.8-3-3.7l-.2-.5c.2 0 1 .7 1.8 1.6 1.8 1.8 2.3 2 3 1.4.8-.7.7-2.1-.2-3.2-.9-1-.9-1.5 0-.8.2.3.6.5.9.5.3 0 .4.2.4 1.2.1 2 0 2.3-1 3.3l-1 1-1.7.2h-1.5zm89-3.6c0-1.2 0-1.9-.3-2.1l-.4-.4.4-.3c.2-.2.4-.9.4-1.6V34l.2 1.1c0 .8.2 1.2.6 1.4l.5.3-.6.5c-.4.5-.5.8-.3 2.1.1 1 0 1.6-.1 1.7-.2.2-.3-.3-.3-1.5zm-51.5-4.1V32c.3.2.3 6.6.1 6.8l-.1-3.3zm-37.6.5C40.7 35 39.9 34 40 34c.3 0 2.2 1.8 3.3 3 1.1 1.3.4.8-1.6-1.1zm-2.4.6-.6-.8c-.3-.6.5-.1 1 .6s.2.9-.4.2zm93.7.2V34.1c0-2.2.2-2.1.5.3l.1 1.7.7.1c.4.1.5.3.4.4-.5.2-1.7.4-1.7.2zm-7.2-3.5c0-1.8.1-3.1.2-3 .1 0 .2 1.5.2 3.2 0 1.7 0 3-.2 3 0 0-.2-1.4-.2-3.2zm-9.7.7c0-1.2 0-1.6.1-1v2.1V34zm12 .4v-.9 1.8-.9zm-85 .9c-.2-.2-.3-.5-.2-.6 0 0 .3 0 .6.3.2.2.4.5.3.6-.1 0-.4 0-.6-.3zm75.4-1.7c0-1.2 0-1.9.2-1.7v2l-.2 1.7zm-82 0-.8-.8c.7.3 2.5 2.1 2.2 2.1-.2 0-.8-.6-1.5-1.2zm126 .9c.2-.3 1.8-.6 6.7-1.2a533.7 533.7 0 0 0 7-1c3.2-.3-1-.7-5.8-.4a55.9 55.9 0 0 0-5.1.2c0-.5 1.6-.6 8.2-.6 4.2 0 6.6 0 6.6.3l.8.2c1.1 0-2.6.7-5.3 1a282.3 282.3 0 0 0-13.1 1.5zM40.8 32.8c-2.5-2.7-2.9-3-4-3.9-1.3-1-3-2.6-2.3-2.2 1.7.8 6 4.6 7.5 6.6 1.2 1.5.5 1.2-1.2-.5zm157 .3c-.7-.5-.5-.9.3-.8.4 0 .7.3.7.5 0 .5-.4.6-1 .3zm10.8-.3c-.2-.4 0-.4 6.4-.9 7.1-.5 8.2-.6 8.5-.3 0 0-.4.2-1.1.2a47.9 47.9 0 0 0-6.1.5l-5.1.5c-2.4.3-2.4.3-2.6 0zm-84.5-.4c0-.3 0-.4.2-.2v.5c-.1.1-.2 0-.2-.3zm61.1-.4h3.8c1.4.2.8.2-2 .2-2.9 0-3.3 0-1.8-.2zm58.6-.1a49 49 0 0 0-14.5-.6l-5.3.1 3.3-.3a80 80 0 0 0 3.4-.4l-.8-.3c-.5-.1 2.8-.2 7.3 0 5.6 0 8.3 0 8.5-.2.3-.7 1.7 0 1.7.9 0 1.1-1.6 1.5-3.6.8zm-211-1.1c-1.4-1.1-1.6-1.5-.3-.8 1 .6 2 1.4 1.9 1.6-.1 0-.8-.3-1.5-.8zm95.3-.5c0-.7 0-1 .1-.6V31v-.7zm5 .4c0-.5.1-.7.2-.5v1c-.1.2-.2 0-.2-.5zm76 .5c.2-.1 1.1-.4 2-.5 2.3-.3 9-.3 9 0 0 .1-1.9.3-4.3.4a88.8 88.8 0 0 0-6.6.1zm-78-1.7v-.7a7 7 0 0 1 0 1.6v-.9zm56.8 1-5.5-.3 5.7.1 5.9.1c.1 0 .2.1.2.3a603.7 603.7 0 0 0-6.3-.2zm-23.3 0c-.9-.2.1-.3 3.2-.4l4.8.1a65.5 65.5 0 0 0-5.3.3h-2.7zm-29.3-1.3c.3-1.7.4-1.8.4-.3 0 .7-.1 1.3-.3 1.4-.2.1-.2-.2 0-1.1zm39.5 1c1.9-.3 3.5-.3 3.5 0 0 .1-1 .2-2.4.2h-2.5zm5.7 0h1c.2.1 0 .2-.5.2s-.7 0-.5-.2zm46.1 0c-.4-.2-.4-.3.3-.3.5 0 .9.1.9.3 0 .3-.5.3-1.2 0zm-6.7-.3c0-.1.5-.3 1-.2 1 0 1.1 0 .7.2-.8.3-1.7.3-1.7 0zm-101-.8v-.5 1-.5zm7.4 0v-.5c.2.3.2.7 0 1V29zm-96 0c-.8-.5-2-1.5-2-1.7 0-.2 1.3.5 2.3 1.3.8.7.6.9-.3.3zm107.2-1.3c.2-2 .3-2 .3 0 0 1 0 1.6-.2 1.6s-.3-.5-.1-1.6zm72 1.3 3.9-.4 3.4-.1-3 .4c-3.7.4-4.8.4-4.2.1zm9-.8 3-.2h2l-1.6.2-3.2.2H217l1.3-.2zm5-.3a23.3 23.3 0 0 1 5-.2c-.5.2-5.1.4-5 .2zm5.7-.4c.1 0 1.8-.3 3.7-.4 2 0 5-.3 7-.4 2.8-.1 3.3-.1 3.2.2 0 .2-.5.4-1.2.4a829 829 0 0 0-12.7.2zM131 25.1c0-1.6 0-2.6.2-2.6.4 0 .4 4.2 0 4.8-.1.2-.2-.5-.2-2.2zM26.9 26.8c-.8-.4-1.7-1.1-1.4-1.1.4 0 1.7.7 2 1.1.4.5.4.5-.6 0zm112.8-1.1.4-2.4.4-2.6c0-.5.1-.8.3-.7a104 104 0 0 0-.3 3.4c-.4 2.2-.8 3.5-.8 2.3zM24 25l-.5-.5 1 .5c.5.3.7.6.6.6l-1-.6zm168.7-.2c0-.2 5.8-.8 7.4-.8 1.4 0 .3.2-2.6.6-3.5.5-4.8.5-4.8.2zM138 24c0-.5 0-.6.1-.4v.6l-.1-.3zm64.6-.1 1.9-.2h.8l-.8.2-1.9.2h-1l1-.2zm6.3-.4h1-1zm2.3-.2c.4-.2.7-.2.9 0 .2.3 0 .3-.6.3h-1zm7.8-.3c.4-.2 12.3-.1 12.5.1 0 .1-2.8.2-6.4.2-3.5 0-6.3-.1-6.1-.3zm-46.7 0h.6-.6zm7.8-.6h1l-.6.1h-.4zm2.6-.3h1c.2.1 0 .2-.5.2s-.7 0-.5-.2zm-150.5-.8a503.4 503.4 0 0 1-11.7-1.3l-4.6-.3c-1.5-.2-3.6-.3-4.7-.3-1.6 0-2.1 0-2-.3 0-.2.5-.3 1.2-.3 2.5 0 23.5 2.1 27.5 2.7l1.5.2H38l-5.9-.4zm167 0h.7c.2.1 0 .2-.4.2-.5 0-.6 0-.4-.2zm-38-.5h1.2l-.6.1h-.6zm-14.1-.3c.3-.3 4.3-1 4.5-.7.2.1-3.4 1-4.2 1-.3 0-.5-.2-.3-.3zm18.4 0c.3-.3 3.4-.4 3.1-.2l-1.8.3c-1.2 0-1.6 0-1.3-.1zm3.7-.5h.8c.2.1 0 .2-.4.2-.5 0-.6-.1-.4-.2zm3.3-.3c1-.3 3.5-.4 3.3-.2l-2.3.3c-1.5 0-1.8 0-1-.1zm-110.2-.3c-1-.1-2.2-.4-2.8-.6l-1.5-.4c-.5 0-.7-.6-.2-.6a66.5 66.5 0 0 1 7.7 1.6l.9.2H65c-.7 0-2 0-3-.2zm62.7 0-5.4-1.3c-1.7-.5-.8-.6 1-.2l3.7.8c1 .1 2 .4 2.2.6l.5.4h-.6l-1.4-.3zm29.6-.3a5 5 0 0 1 1.2-.2h.5l-.5.2c-.3.2-.8.3-1.2.3h-.6zm22.2.1h.6c.2.1 0 .2-.3.2-.4 0-.5 0-.3-.2zm3.8-.2c.3-.1.6-.1.8 0l-.5.1c-.4 0-.5 0-.3-.1zm2.4-.3h1l-.5.1c-.6 0-.8 0-.5-.1zm14.2-.9.7-.2-.2.2-.6.3c-.2 0-.1-.1.1-.3zm-64.8-.5c-1.7-.6-1.5-.7.5-.2.7.1 1.3.4 1.3.5 0 .3 0 .3-1.8-.3zm-80 .1s-1.7-.3-3.5-.4a220 220 0 0 1-7.3-.6C30.5 15.2 15.2 15 12 16c-.7.2-.8-.3-.2-.6 1.4-.7 13.7-1 21-.5 10.8.8 20.3 1.8 20.8 2.3.1.2 0 .3-.5.3l-.8-.2zm25-1c-3.8-.8-3.4-.7-16.8-2.4l-10-1.4a61 61 0 0 1 10.2.7 3515.2 3515.2 0 0 0 12 1.8l5 .8c4 .5 4.1.5 4 .9-.3.3-.2.3-4.3-.4zm93.4.4h.8c.2.1 0 .2-.4.2-.5 0-.6 0-.4-.2zm46.3 0h1.3c.4.1 0 .2-.7.2s-1-.1-.6-.2zm-87.8-.3-.5-.2h.7c.3 0 .8 0 1 .2.4.2.3.3 0 .2-.4 0-.9 0-1.2-.2zm96 0 .4.1c.1.1 0 .2-.3.1-.3 0-.4 0-.2-.1zm2.7-.3 1.8-.2h.9l-1 .3-1.8.2h-.7l.8-.3zm-101.5-.4h.5c.1.1 0 .2-.3.2s-.4-.1-.2-.2zm-3.1-.6c-.4-.2-2-.5-3.4-.8-3.6-.7-5-1.1-4.6-1.3a191 191 0 0 0 10 2.2c.3.2-1.3.1-2-.1zm6.6-.3a59.4 59.4 0 0 0-6.1-1.6c-1.2-.4-2-.8-1.3-.8l2.6.7c1.3.4 3.3.9 4.5 1l3.3.8 1.1.4h-1.3c-.7 0-2-.2-2.8-.5zm-20.5-.9c-.4-.4-.4-1 0-2.2.2-.7.6-.3.7.8.2 1.4 0 2-.7 1.4zm33.9.3-1-.3c-.4 0-.8-.3-.8-.5-.2-.3 0-.3 1.4 0 2.1.5 2.8.9 1.6.9l-1.2-.1zm-.7-1.4-2-.5a8.6 8.6 0 0 1-3.1-.9c-.4-.4 0-.4 1.8.1l3.3.7c1 .1 1.9.4 2 .6l.5.4h-.6l-1.9-.4zm-47-.2-.7-.4h1c1-.2 2 0 2 .5 0 .4-1.3.3-2.2-.1zm-4.7-.7a641.3 641.3 0 0 1-10.6-2A82 82 0 0 0 69.7 8c-.5-.5.4-.5 3.1 0l4.5.5a38.6 38.6 0 0 1 10.2 1.8 47.7 47.7 0 0 1 5.8 1.5l1.3.2h-1.3c-.8 0-1.8 0-2.4-.2zm27-.4-1.4-.5c-.2-.2 1.4.1 2.6.5 1.2.5.5.5-1.2 0zm17.8-.6h.5c0 .1 0 .2-.4.2-.3 0-.3 0-.1-.2zm-22-.3a61.4 61.4 0 0 1-14-2.9l-.9-.2h1a61.6 61.6 0 0 1 13.5 2.6l1.7.5v.2l-1.3-.2zm19.5 0c-.4-.2-.4-.2.3-.3.5 0 1 .1 1 .3 0 .3-.6.3-1.3 0zm61.2-1.1-2.5-.7-2.1-.4c-.4-.4.6-.3 3.2.1 3.6.7 3.7.7 3.5 1-.3.4-1.5.4-2.1 0zm-18.3-.9c-.7-.2-1.1-.3-.8-.4l1.8.4c1.7.4.8.5-1 0zm24.2-.6a103 103 0 0 0-16.6-3.5 76.3 76.3 0 0 1-11-1.9c-1.7-.3-2.5-.7-2.2-1.3.3-.4 1.2-.3 2.7.4.7.3 2.7.9 4.3 1.2a106 106 0 0 1 8.2 1.6 343.1 343.1 0 0 1 16.6 3.3c.2.1-.1.7-.4.6l-1.6-.4zM170 7.7c-3.2-.8-5-1.3-4-1.2 2.7.3 4.6.7 5.9 1l1.4.4h-1.2l-2-.2zm15.7 0-1.3-.4c-.3-.3 1.1-.1 2.4.2 1.5.4.7.5-1.1.2zm23.2 0a15 15 0 0 1-2.1-.6l-3-.7-2.7-.6a76.8 76.8 0 0 1-8.8-2.1l-3.7-.7a28.4 28.4 0 0 0-5.5-.9l-2.3-.5c-1.4-.3-2.1-.8-1.7-1.2.2-.2 4 .6 4.7 1l4.5 1a679.3 679.3 0 0 1 17.4 3.7c3.6.8 5.1 1.3 4.2 1.6a3 3 0 0 1-1 0zM97 7.2h1l-.5.1h-.5zm84.2-.4-2.9-.4a380.4 380.4 0 0 1-21.8-3.9c-5.2-.7-7-1.3-3.5-1 4 .2 7.5.7 9.7 1.3 2.3.7 6.7 1.6 13 2.6 4.7.8 6.5 1.2 7.6 1.5l.8.2h-.8c-.4 0-1.4-.1-2-.3zM162 6c-.7-.1-1.1-.3-1-.4.2-.2 3.5.3 3.8.6.2.2-1.6.1-2.8-.2zM148.2 1h.8l-.4.1c-.5 0-.6 0-.4-.1zm-4.8-.6c0-.2.2-.3.4-.3s.4.1.4.3l-.4.2c-.2 0-.4 0-.4-.2z"/>
</svg>
