<?xml version="1.0" encoding="utf-8"?>
<svg xmlns="http://www.w3.org/2000/svg" xmlns:svg="http://www.w3.org/2000/svg" version="1.1" viewBox="0 0 237 172">
  <title>Peter Rabbit, Jemima Puddle-duck, Mrs. Tiggy-winkle, Squirrel Nutkin and other animals all gather around a board leant up against a stone wall that has “Sale” written on it.</title>
  <path d="M49.2 170.9c-1.2-.3-1.9-1.4-2.5-3.7-.2-1-.6-2-.8-2.2-.1-.2-1-.3-2-.2l-4.7.1c-4.3 0-4.4 0-4.9-3.2-.4-2.7-1.2-5.8-1.7-6-.2-.2-.7-.4-1.2-.5-.9-.3-1.1-.6-2.6-3.3-.9-1.6-1.7-3.4-1.8-4-.4-2.8.1-7.2 1-7.8.4-.3.4-.5.3-1 0-.3 0-1 .4-2l.6-1.4-1.9-1.9c-1.9-1.7-2-1.8-1.8-2.9.2-1 0-1.3-1.6-2.5l-1.8-1.5c-.4-.4-1-.8-1.2-.8-.3-.1-.9-.8-1.4-1.6-.8-1.1-1-2-1.4-3.8l-.6-2.7-.3-1.1c0-.4-.1-1.4-.4-2.3a7 7 0 0 1 0-3.5c0-1 .4-2.2.6-2.6a6.5 6.5 0 0 1 4.1-2.8c.8-.1 1.5-.4 1.6-.7a2 2 0 0 1 1-.6c.3-.1.7-.4.8-.7.3-.5 2.6-2.1 4-2.9 1.3-.6 7.2-5.6 7-6-.1-.3-1.6-.2-2.6.3-.9.5-1 .5-2.2-.1-.8-.4-1.4-.8-1.4-1l.6-.8c.4-.4.7-.8.7-1 0-.4-3.1-3.7-4.6-4.8a9 9 0 0 1-1.4-1.2 4 4 0 0 0-1.4-.6c-2.2-.7-2.2-.9-2.3-6 0-4.4 0-4.6-.6-4.8-.7-.2-.7-1.1-.1-2 .3-.5.4-.9.2-1.7l-.2-2.5c0-2.1 1.2-3 2.8-2.2a4 4 0 0 1 2 4.6 8.3 8.3 0 0 0 1.8 6.7c.2.3.6.4 1.7.5 1 0 1.9.3 2.9.8l2.6 1.3c1.5.8 2.3.8 2.5.2l.8-1.1c.7-.7 1.6-.6 2 .2a44 44 0 0 1-.1 10.5c-.6.9-.2 1.5.6.9a72.9 72.9 0 0 1 9.4-4l1.3-.5V85c-.1-.8 0-2 .3-2.9.5-1.4.5-1.6.1-2.8-.6-1.7-.5-4 .2-6.2.6-1.6.6-2 .4-3.2-.3-1.4-.3-5.7-.1-8.4.2-2.1-.4-8.8-.9-10.5a4.3 4.3 0 0 1-.1-2.7c.8-3.3 1-4.4.5-5.2-.2-.4-.6-1-.8-1.1-.6-.5-1-2.6-1-5.8-.1-2.4 0-2.7.5-3.3.7-.8.7-1.6 0-2.9-.4-.9-.9-2.5-1.5-5.4l-1-3-.6-2.5-.5-1.5c-.9-1.6-.6-6.6.3-6.2.2 0 .3.2.2.4-.6 1.6.5 7.3 2.1 11.8l1.3 4.2c.7 2.5 1 3.6 1.3 3.6l.9-.5c.5-.5.5-.5.2-2.5-.3-1.6-.3-2.2 0-2.8.2-.5.4-.8.6-.8l.7-1.2a188.7 188.7 0 0 1 3.3-7c.8-.9.4-.9-.6 0-2.3 2-4.5 4.3-4.3 4.6.3.3-.5 2.3-1 2.6-.6.4-.6 0-.1-.8.4-.7.4-.9 0-1.3-.3-.4 0-.6 1.8-2.4 2.9-2.8 7.8-7 9-7.9 2.2-1.4 1.8-.5-.3 1l-2.3 1.8c-.1.1.7.2 1.8.1 2 0 4.1-.9 4.1-1.6 0-.2.3-.3.6-.3s.9 0 1.2-.2l.6.1c0 .2-.7.7-1.6 1-.9.4-1.5.9-1.5 1 .1.4 3.5.7 6.7.6H74l.7-1.3a4 4 0 0 1 1.2-1.5c.8-.4 2.3-.4 4 0 .7 0 1.7.3 2.2.4.7 0 1.6.6 2.7 1.6l1.7 1.4.7-.7 1-1.2c.7-1 10.6-.5 16.2.7 3.8.8 4.4 1 4.4 1.7 0 .3.2 1.1.5 1.8l.9 2c.3.8.4.5 1.4-2.5.6-1.7.7-2.7.7-4.5 0-2.2 0-2.4.6-2.7 1-.8 3.3-1.1 7.1-1.3 2.8-.1 3.8-.3 4.1-.6.6-.5 1.4-.5 2 0 .6.4.7.4 1.3-.5.7-1 1.2-1.2 1.9-.4.4.5.4 1.9-.1 2.5-.3.3-.2.5.4 1.2.8 1 .8 1 0 1-.7 0-2.3-1.2-2.6-2-.1-.3-1.5-.5-3.1-.2l-5 .3c-3.6 0-4.2.2-5.3 1-.4.4-.4 1-.4 4 0 3.9-.2 5.8-.8 6.5-.4.4-.4.6 0 1.8.1.8.2 1.5 0 1.8-.2.5.1.8 3.2 3.2 1.1.8 2 1.7 2.2 2l.8 2.7-.4.1c-.2 0-.7-.5-1-1.2l-1.1-1.5c-.5-.2-2.5-1.8-3.8-2.9l-1.1-1-2.9.2c-2.6.2-3.6.2-5.8 0-1 0-1.4.3-.8.7.7.6.6.8-.4.6l-1-.2-.4 1.5c-.5 2-.3 3.1.8 3.3.7 0 .7 0 1 2 .1.2.1.6 0 .8-.2.6-1 .5-1.2-.1-.1-.3-.8-1.2-1.6-2l-1.5-1.7 1-2.5c1-2.3 1-2.4 2.2-3 1-.4 1.7-.5 5.1-.5 2.2 0 4-.2 4.1-.3l.6-1.3c.3-1.2.2-2.1-.5-2.8-.3-.2-.8-1.3-1.2-2.4-.9-2.2-1.6-3-3-3.3-.6 0-2-.3-3.4-.6-2.7-.6-7-1-10.5-.9l-2.4.1-2 2c-1.3 1.1-2 2-1.9 2 .5.5.3.8-.4.6-.8-.2-.9.2-.1.6.6.4.7 1 0 .8-.4-.1-.4 0-.3 1.5 0 1.1.2 1.8.6 2.2.4.4.5 1 .5 3.8 0 3.4-.3 4.5-1.2 4.5-.3 0-.4-.6-.4-2.7 0-2.2-.1-2.6-.3-2a4 4 0 0 0-.3 1.4c0 .4 0 1-.2 1.1-.3.5-1 .2-1-.5 0-.6-.4-.6-1 0-.2.3-1.3.9-2.3 1.3-1 .3-2.3.9-2.7 1.2-.6.5-.7.5-.3 1.2l.8 2.5a21 21 0 0 0 1.2 3.9c0 .5-1 .3-1.2-.3 0-.3-.4-.5-.7-.5-.8 0-.9-.5-1.4-4.8l-.2-1.4 1.1-1c1-.8 1.1-1 1-1.8l-.4-.8c-.3 0-1 1-1.4 1.7-.3.7-.9.9-1.2.4-.2-.3.6-2.3 1.5-3.6l.8-1.2 1.1-2c.7-1 1.3-2 1.4-2.4 0-.3.3-.6.4-.6.6 0 .2 1-1 3.1l-1.4 2.2.4 1.4.6 1.7c0 .5.6.4 1.5-.1.7-.4 1-1 1.7-3 .8-2.5 1-3.4.7-3-.3.2-1.7 4-1.7 4.4 0 .2-.1.5-.3.6-.7.5-.6-.4.4-3 1-2.5 1.2-2.8 1.9-2.9.7 0 .8.2.2 1.3l-.2.8-.4 1.4c-.7 2-.4 2.9.6 1.9.4-.4 1-2.5 1-4.4 0-.7.2-1.2.5-1.3.3 0 .3.1.2.8-.2.5-.3 1.5-.4 2.2V27l.4-1.3c.4-1.1.4-1.6.1-3.5l-.3-3.2c0-1.3.6-2.2 1.3-2 .2 0 .6-.1.8-.4.4-.4.3-.5-.1-.7l-1.6-1.3c-.7-.5-1.5-1-2-1.1-4-.8-4.5-.8-5.4-.3-.6.3-1 .7-1 1.2-.2.4-.6 1-1 1.2-1 .8-2 1.9-4 4.9-1.8 2.5-2.1 2.8-3.5 3.5-1.3.7-1.5.8-1.4 1.3l.4 3.2.5 3.6c.3 1.1.2 1.6-.4 1.6h-.3l-.3-1.6a43 43 0 0 1-.5-4l-.4-3c-.2-.5 0-.7 1.6-1.6a8.5 8.5 0 0 0 3-2.5c1.2-1.6 3.2-4.6 3.2-4.9h-2a57 57 0 0 1-5.8-.4c-4.3-.4-5.1-.3-5.5.8-.1.5-.5.8-.8.8-.5.1-.7.4-3.3 6.3l-1 2.2c-.4.4-.4.9-.3 2.1.5 4 .4 4.5-.7 4.5-.3 0-1 .4-1.5.8l-1 .9.1 2.9c.1 3 .4 4.1 1.5 5.5.8.9.8.8.2 4.7l-.4 2.2.2 1.6c.8 2.7 1.2 9.6.7 13.1v3.7l.1 2 .7-1c1.3-1.6 2.3-2.6 2.9-2.6.6 0 1.4 1 1.9 2.3.4 1.1.6 1.1 1.1.2l1.6-2c1.1-1.2 1.3-1.3 2-1.1 1.2.2 1.3.4 2.4 2.4.8 1.6.9 1.8.7 3.8-.2 2.2-1 5-2.1 7-.4.6-.6 1.3-.6 1.5.1.3.8.8 1.6 1.2.8.4 1.6 1 1.8 1.3.5.9 1 3.6 1 5.4v1.6l.7-.5c1-.6 2.1-1 2.6-1 .7 0 .4.5-.6 1-.6.2-1.4.6-1.8 1-.8.5-.9.7-1 2.5-.2 2-.3 2-1.3 3-1 .8-3.9 2-5.1 2-1 0-2 .8-2.9 2.4l-1.2 1.9-1.2 1.8c-.4.8-1.2 2-1.7 2.6-2.3 2.7-4.2 7.4-3.9 9.4.2 1.1-.2 2.3-1 3.3-1 1 0 .9 2.8-.5l3-1.5v-4.3c0-3.5 0-4.2.4-4.2.3 0 .4.6.5 3 .2 2.5.2 2.7.5 2 .2-.7.2-2.2 0-4.6-.2-3.4-.1-4 .3-4 .3 0 .8 5.2.8 7.4 0 2-.2 2.6-1 2.3-.5-.2-.6-.1-.5.7 0 .8.1.9 1.1 1 1 0 3.2-.9 3.7-1.5l1.1-.8c.5-.2 1.5-1.5 2.4-2.7l2-2.8c.5-.6 1.5-5 1.5-6.7 0-.5.2-1.3.4-1.8.3-.5.4-1.2.4-1.5l.7-1.8c.6-1.1.7-1.5.4-1.9-.6-1-.2-2 1.6-3.5l1.5-1.2c.2-.2.2-.4 0-1l-.7-2.4c-.4-1.8-.4-1.8.5-3.5 2-4 5.2-6.1 7.8-5.3 1.3.5 1.8.2 2.5-1 .3-.6 1.2-1.4 2-2l2-1.5c.8-.7 1.9-4 2.5-7.5.7-3.7 1.1-5.6 1.8-8.2 1-3.6.6-3.4 8.8-3.4 3.6 0 7.5.2 8.5.4h3.4a109.6 109.6 0 0 1 10-1.1c4-.5 9.3-.8 12.2-.9h2.9l.6 1c.7 1.1.8 2.2.1 5.2-1 5.3-1.3 8-1 11.8l.3 3.2 1.8.2c1 .1 2 .4 2 .5.6.6 0 .7-2 .4l-2-.2-1 1.1c-1 1.1-1 1.2-1 3 .1 1.7.2 1.8.8 2 .4 0 1.1 0 1.7-.2 1.3-.5 3-.5 4.2 0 1 .4 1.1 1 .3 1-.3 0-.6.7-.7 1.3h.9c.9-.3 2-.1 8.5 1 4.8 1 5.2 1 7.5 1 2.2.1 2.6.2 2.2.8-.4.5-4 .5-5.8 0-.9-.3-2-.3-3.4-.2-2 .1-4.7-.3-7-1.2-1.5-.5-2-.5-2.9 0-.6.4-.8.5-1.1.2-.6-.5-.6-1.2 0-2 .7-1.1.2-1.3-2.7-1l-2.6.1.2 1.9c.1 1.8 0 2.8-1.2 5.9-.5 1.5-.5 2.1 0 4.6 0 .6 0 1.2-.2 1.5-.3.6 0 4.2.4 4.6 0 0 .5-.1.9-.4l1.5-.9c.7-.4.9-.4 1.7 0l1.5.9c.4.3 1.2.7 1.8.8 1.6.3 4.3 1.6 4.3 2.1 0 .4-.1.4-.7.3l-3.5-.7c-1.6-.2-3-.6-3.4-.8-.7-.3-2-.2-3 .5-.4.3-.7.3-1.6 0-.8-.2-1-.2-1.8.2-.7.4-1 .7-1 1.6l-.6 1.8c-.2.4-.5 1.6-.6 2.6-.1 1.8-.1 1.8.7 2.2.6.3 1.4.4 2.8.4s2.1 0 2.6.4c1 .6 1.3.4 1.2-1 0-1 0-1.3.6-1.8.9-.6 2.4-.7 3.2-.1.2.2.8.3 1.2.3a8 8 0 0 1 1.8.4c.7.2 1.5.5 2 .5.5.2.9.6 1.6 1.9 1 1.8 2.3 2.9 3.5 2.8.6-.1.7-.3.9-1 .2-1.2.9-1 .9.4 0 .8.1 1.3.5 1.5.4.4.5.4.9-.1.5-.8 1.2-.7 1 0-.1.5 0 .9.8 1.6l1 1 .7-.5 1-.5c.4 0 .4 1-.1 1.3-.4.3-.3.4.5 1 1.1 1 1.6 1 2.3 0 .6-1.2 1.4-1.2 1.5-.2 0 .5-.1.8-.6 1.2-.6.5-.7.7-.4.9.3.2.7 0 1.4-.7 1-.8 1.1-.8 1.5-.5.3.4.3.5-.5 1.3-.7.8-.8 1-.6 1.5.6 1 1.5.9 1.6-.1.1-.5.4-.9.6-.9.8-.1 2.5 1.2 3.2 2.5.6 1 .9 1.4 2 1.7l3 1.1c2.1.8 2.8.7 2.5-.2-.2-.7-.2-2 0-2.3.3-.3 1.2 0 1.2.3 0 .2.4.3.9.3.8 0 1 0 1.2 1 .3 1 .4 1 2 1.6l1.8.6.7-1.2c1-2 3.2-3.8 6.7-5.4a34.7 34.7 0 0 1 14.5-4c1.3 0 1.7.2 1.8.6 0 .4-.2.4-1.8.4l-4 .4a34.9 34.9 0 0 0-11.8 4.7c-.5.1-1.4.8-2 1.4-.5.7-1.1 1.2-1.4 1.2-.4 0-1.2 1.2-1.2 1.8 0 .1.6.2 1.3.1 2-.1 4.3 1.1 6.5 3.6l2.1 2c.4 0 2.3-2.5 2.2-2.7-.1 0-.4 0-.7.2-1.1.6-1.5-.5-.5-1.3l.6-.4-.8-.5c-.6-.4-1.4-.6-3.5-.7a13 13 0 0 1-2.9-.3l.2-1c.3-.4 1-1 2.6-1.7 3.2-1.4 3-1.3 3.2-1.9.2-1.4.3-1.7.8-1.7l.8.4 1 .5c.6 0 .8.2 1 1.3.4 1 .6 1.3 1.6 1.8.8.4 1.4.5 1.9.4l1.4-.3c.4 0 1.3-.4 2-.7 1.9-1 4.1-1.4 5.3-1 1 .4 2.2 1.7 2.2 2.7 0 1-.6.9-1.1-.3-.6-1.4-1.4-1.7-3.4-1.3l-2.2.7-.7.3 1.2 1 1.9 1.1 1.6 1 1.4.6c.1 0 .9-.6 1.6-1.4 1.4-1.4 2.4-1.9 2.3-1.2 0 .2-.6 1-1.4 2-1.4 1.4-1.7 2-1.2 2.7.2.4 2.3.3 2.5-.1 0-.2.8-.5 1.6-.7.9-.2 1.3-.4 1.2-.5-.3-.2-.3-.4 0-.9.3-.7 2.3-1.3 3.5-1 .9.1 1 .7.1 1-.8.3-1.4.9-1 1.1.6.4 0 1.1-1 1.1-.6 0-.8.1-.8.6 0 .3-.3.6-.6.8l-1.3.6c-.4.3-1.1.4-2.2.3-1.4 0-1.6 0-1.5.4 0 .2.4.8.9 1.2l.7 1c0 .8-1 .4-2.2-1-1.5-1.4-1.8-1.2-1.1.5.5 1 .4 1.4-.4 1.4-.3 0-.7-.3-1-1-.5-1-.5-1-1.8-.9-1.7.1-4.1-.9-6-2.5-1.4-1.3-1.9-1.5-3.5-1.7-1.1-.2-1.1-.2-2.5 1.4-1.5 1.7-1.7 2.7-.6 2.8.3 0 .6.2.6.4 0 .4.7.2.9-.3 0-.3.4-.6 1-.7.7-.1.7-.2.3-.5-.5-.4-.5-.4 0-.8.9-.6 3.4-.4 3.4.3 0 .2-.3.4-.6.4-.7 0-.9.4-.2.5.5.1.6.3.6 1 0 .6-.1.7-.6.8-.3 0-.7.3-.7.5-.1.2-.3.3-.5.3-.5 0-2 1.4-2 1.8 0 .4-1.1.5-1.9 0a5 5 0 0 1-1.2-1.3c-.9-1.4-1.1-.9-.4.7.7 1.4.7 1.6 0 1.4-.4 0-.8-.4-1-1-.6-1.1-.8-1.2-3.5-1.4-1.3 0-2.1-.3-3-.8l-1.2-.7-.7.8-.9 1c-.5.6-1.6.3-2-.6l-.7-.9-1 .7c-.8.5-1.2.6-2.6.6-3.2 0-4.4-.8-5.7-3.5-.6-1.2-1.4-1.6-2.8-1.3-1.1.1-1.4.6-.5.6.8 0 1.4.4 1.2.7-.1.2-.4.3-.7.3-.6 0-1 .8-1 1.9 0 .7 0 .8 1 .8.6 0 1 .1 1.2.4.2.5 0 .6-1.2.6-1 0-1 0-1 .9.2.7.1 1.1-.4 1.9-.4.5-.7 1-.6 1.1.2.3 2 .2 3.3-.1 2.1-.5 4-.6 4.5-.3 1 .5.7 1.5-.8 2.8-.7.7-1.3 1.4-1.3 1.6 0 .2-.4.6-1 1-.5.3-1 .9-1.3 1.2-.4.5-3 2.4-3.4 2.4l-.6.3c-.8.7-5.5 3-6.4 3.2-.8.2-1.1.4-1.4 1-.2.4-.7.8-1.2 1-1.8.7-5.3 1.8-6.2 2-1.9.3-5.6-.7-6.5-1.8-.3-.4-.3-.6 0-1.3 0-.4.2-.9.1-1l-1.2-.2-1-.1v1c0 .7-.2 1.7-.4 2.3-.1.7-.2 1.3-.1 1.4 0 .1.8 0 1.6-.3 2.5-.8 2.9-.1.8 1.5l-1.5 1.2c-.5.4-1.6.7-2 .4l-.5-1.3c-.3-.9-.6-1.3-1.5-1.8l-1.2-1c0-.2-.6-.8-1.3-1.5a8.7 8.7 0 0 1-1.7-3c-.7-1.7-1-2.1-1.4-1.3 0 .3-.8.9-1.6 1.4-1.6 1-3.3 2.3-5 4-1.5 1.4-5.5 4-7.2 4.5l-4.5 2-3 1.5-4.4-.2c-4.5-.1-6.6-.5-8.2-1.5-.8-.5-3.3-3.6-4-4.8a13 13 0 0 0-1.4-2c-.6-.7-1-1.3-1-1.5 0-.2-.3-.6-.6-1l-.5-1c0-.1-.2-.7-.6-1.1-.5-.7-.6-1.1-.5-2.6 0-1.6.1-2 1.6-5 1.7-3.4 2-4.3 1.2-4.3-.6 0-3.8 1.9-4.2 2.4-.3.3-1 .5-2.7.6-3.4.3-4.3.5-5.8 1.7-.7.6-2.3 1.6-3.5 2.3l-2.2 1.5h1.2c1.8-.4 3.5-.3 3.9.1.5.6 0 1.7-1.2 2.5l-2.4 1.7c-.7.5-1.7 1-2.2 1.1-1.4.3-3.7 1.3-3.7 1.6 0 .2-.4.7-1 1.2-1 1-4 3.2-4.3 3.2l-.7.5c-.3.3-1 .7-1.4.8a6 6 0 0 0-1.6.8c-.6.4-.6.5-.4.9.5.5.2 1.1-.9 1.8-1 .6-1.3 1.5-.9 2.5.4.9.4 1.8 0 2.2-.3.2-1.6.2-4 .2-3.5 0-3.6 0-4.6.7-1.2.7-1.6.8-3 .4zm1.9-2.3c.6-.6.8-.6 2.6-.5l3.5.3h1.6v-1.3c0-1.1.1-1.6.7-2.5.9-1.2.7-1.6-.5-1.6-1 0-3-.8-3.1-1.3-.3-.5.7-2 1.8-2.7 1.5-1 3-2.3 4-3.6.4-.6 1.1-1.4 1.5-1.7.4-.3.7-.7.7-.9 0-.2.2-.5.4-.6.5-.4 1.7-4 1.7-5 0-1.2.5-2.2 1-2.2.4 0 .5-.3.2-.6-.1-.1-.4 0-.7.2-.6.6-1.4.3-1.1-.5l.3-2.4c.2-1.6.3-1.9.7-1.9.4 0 .6-.3 1-1.4.5-1.9.3-3-.2-1.3-.4 1.2-.8 1.7-1 1.5l.2-2.4c.2-1.3.4-2.5.3-2.6-.2-.5.3-1.1.6-1 .2.2.3.6.3 1s.3 1 .5 1.2c.5.4.6.8.6 2.1 0 1.6 0 1.6.4.8.4-1 .5-3.5.1-3.7-.3-.2-.3-1.4 0-1.4s1 1 1.2 1.9c.3 1 .8.8.9-.4a15 15 0 0 0 .6-7.3c-.5-2.5-1.9-6-3-7.8l-2.5-3c-1.4-1.3-1.6-1.5-2.3-1.3a6 6 0 0 0-1.8.8c-2 1.3-3.5 2-4.6 2-.8 0-1.8.4-4.2 1.7a146.4 146.4 0 0 1-6.8 3.6c-1 .5-3.4 3.5-5 6.3-.5 1-1.4 2.2-1.9 2.8-1.7 1.9-1.7 2-.8 3.9 1 2 2.2 3.3 3.3 3.5.4.1 1 .5 1.2.8.3.6.3.8 0 1.7-.4 1.4-.2 2.3.6 2.3s.9.5.4 1.9c-.2.6-.3 1.4-.2 1.8 0 .5.2.6.8.6.6-.1.7 0 .9 1.2.5 3.7.5 3.8 0 4-.5.2-.9-.3-.9-1.2 0-.4-.3-1.1-.6-1.6a7.2 7.2 0 0 1-1.6-4c0-.7-.3-1.6-.5-2-.3-.3-.4-1-.5-1.6v-1l-.4.6-.5.7-.5-.6c-.2-.4-.3-.9-.2-1.3.2-.7-.7-2.3-2-3.4-.6-.5-1.1-1.2-1.2-1.6-.4-1.5-1.4-3.1-2.7-4.5-.9-1-1.5-1.4-1.7-1.3a11 11 0 0 0-.8 3c0 .2.2.3.4.3.5 0 .2.8-.4 1-.3 0-.6.5-.7.9a6 6 0 0 1-.7 1.7c-.7 1-1.7 3.7-1.9 5.3-.3 2.1.3 4.8 1.6 7.6 1.1 2.3 1.4 2.7 2.5 3.3a46.5 46.5 0 0 1 9.3 8.3l1.7.7 1.5.3 2.4.5c1 .2 2 .3 2.2.2.3-.1.3-.2-.1-.8-.6-.9-1-4-.4-4 .5 0 .8.5.8 1.6 0 .6.2 1.3.5 1.7.3.4.6 1.1.7 1.6.2.7.1.8-.6 1l-1.6.4c-.6 0-.8 0-.8.5 0 1 1.3 3.4 1.9 3.4l.9-.7zm3.2-2.8a7 7 0 0 0-1.4-1.2c-.8-.4-1.8-3.7-1.2-3.7.1 0 .5.6.8 1.4l.8 1.5a12 12 0 0 1 2.7 2.6c0 .6-1 .2-1.7-.6zm-.1-2.3c-1-.6-1-.9-.5-4.8.4-3 .4-3.5-.7-5.7-.6-1.3-.7-1.8-.5-2 .5-.5 1.2.1 1.5 1.3l.8 2 .5.9v-2c.1-1 0-2.5-.1-3.2-.6-2.7-.2-4 .8-3a17 17 0 0 1 1.6 6.5v1.3l.7-.5c.4-.3 1-1 1.4-1.7l.6-1.2-.6-.7c-.3-.4-.5-1-.5-1.4 0-.8-.3-1.8-1.1-4a36.8 36.8 0 0 0-4.5-9.2 6.2 6.2 0 0 0-2.1-2c-.5 0-.8-.3-.8-.5 0-1 1.9-.2 3.4 1.4l2.2 3.4c1 1.7 1.4 2.3 2 2.5.8.2 1.1 0 1.1-.7 0-.6 0-.6-.4 0-.3.4-.4.4-.6 0a11 11 0 0 1 0-4.6c.3-.2.7.4.9 1.7 0 .6.4 1.4.8 1.8.5.4.6.8.5 1.2-.6 2-.3 3.5.3 1.8.2-.5.5-.8.6-.8.5 0 .4 1.3-.2 2.8-.4 1.1-.5 1.6-.2 2.5.3 1.2.7 1.4.7.2 0-.4.2-1 .5-1.5.6-.7 1-3.4 1-5.7 0-1.9-.9-6.2-1.5-7l-1.2-1.3c-.3-.4-.7-.8-.7-1 0-.8.7-.6 1.8.4 1.6 1.6 2.7 4.4 2.8 7.3.2 2 0 3-1 8.5a26 26 0 0 0-.6 3.4c0 .4-.5 2-1.2 3.4-1.2 2.4-2 3.4-2.4 2.8-.4-.6-.9-.2-1 .8-.2.7-.5 1.2-1.4 2-1.5 1.4-1.7 2.2-1 3.7l.6 1.3c0 .3-1.5 0-2.3-.4zm-6.5-1.5c-.2-.3-.3-1-.3-2.4 0-1.7 0-1.9-.4-1.8-.3.1-.6 0-.8-.2-.3-.4-.3-.8 0-2.1l.6-2.4c.1-.4.4-.7.6-.7.4 0 .4.3.3 2-.1 1.9 0 2 .4 1.6.7-.7.8-.2.4 2.6-.2 2-.2 2.7 0 2.9.4.4.4 1 0 1-.2 0-.6-.2-.8-.5zm2.9-4.5c-.3-.7-.2-3.2 0-3.2.5 0 .9 1.2.9 2.5 0 .8-.1 1.2-.4 1.2-.2 0-.4-.2-.5-.5zm2.5-8.1c0-.3.2-.4.4-.4s.4.1.3.3c-.2.5-.7.5-.7 0zm-5-4.9c-.9-.4-1.6-1-1.6-1.2-.1-.6.5-.6 1.8 0 2.2 1.2 2 2.3-.3 1.2zm21.5-14.9-.5-1.8c-.5-2.5-2.2-4.5-5.4-6.8-2.5-1.6-2.8-2-2.5-2.3.5-.4 1.5 0 3 1.3l1.6 1.2c.1 0 .6.3 1 .8l1 .6-.1-.4c-.6-.5-.4-1 .2-1 1.5.2 3.8 8.7 2.4 9.2-.2 0-.5-.3-.7-.8zm-29.9 33.8c.5-.4.5-.4-.2-1l-1.5-2.1c-.7-1.3-3-3.6-3.4-3.3l.5 2 .5 3c0 .5.2 1.1.4 1.4.6.5 3 .5 3.7 0zm71-.6c.5 0 1.3-.6 1.8-1 .7-.8.9-1 .8-2 0-.5-.2-1.1-.3-1.3 0-.1 0-.4.2-.4.8-.3 1.8-2.4 1.8-3.8 0-1-.1-1.4-.9-2a5 5 0 0 0-4.3-1.6c-1.7.2-3.5 1-3.9 1.9-.1.3-.4.6-.5.6-.5 0-1 1.7-1 2.6.2.7.1 1-.3 1-.7.2-.6.3.4 1.3a9 9 0 0 1 1.3 1.6l.8 1.2c.2.4.2.6 0 .7-.3.2-.2.4.4.8.7.6 2.1.7 3.7.4zm-2.3-2.5c.2-.5.8-.6.8-.1 0 .2-.2.4-.5.4-.2 0-.3-.1-.3-.3zm-1.2-.1c-.3-.3-.2-.7.2-.7.3 0 .4.2.4.3 0 .3-.4.6-.6.4zm-3 2.1c.4-.3.5-.4.2-.7-.1-.2-.3-.5-.3-.8 0-.3-.1-.5-.3-.4-.8 0-1.3 0-1.3-.5 0-.2.1-.4.3-.4.4 0 .6-.8.2-1-1.2-.7-.1-4 1.9-6.5 1.3-1.6 1.4-1.7 3.3-2.1 1.7-.4 2.2-.4 3-.2.4.2 1.1.3 1.5.3 2 0 3.6 2 3.6 4.5 0 .5.1.8.4.8.6 0 .5.5-.1.8-.8.4-.7.8.1.6.7-.1.8 0 .4 1.1-.1.4-.4.7-.7.7-.2 0-.4.1-.4.3 0 .3 1 0 1.6-.4.1-.1.5-.2.7 0 .4 0 .4.2.1.5l-.5.4a4 4 0 0 0-1 .5l-1 .5h1.2c.6 0 1-.2 1-.4 0-.5.9-.7 1.3-.3.2.2.5.2.6 0l.7-.5c.7-.4 1.4-2 1.7-3.7.1-.9.5-2.3 1-3.2.4-1.2.5-1.8.3-2-.3-.4-.4-2.8 0-2.8l.5.4c.3.5.3.5.5 0 .3-1-.6-4.6-1.4-5.5-.4-.3-.6-.8-.6-1l-1.4-1.4c-1-1-1.4-1.8-2-3.4-.5-1.1-.9-2.3-.9-2.6 0-.3-.3-.8-.6-1.2-.5-.4-.7-1-1-3-.2-2.2-.1-2.9.4-2.5.3.2 1.3 2.1 1.6 3.1.2.5.2.5.4 0 .2-.2.3-.8.2-1.3l-.3-2.6c-.2-2-1-3.9-2-5.2-.8-.9-2.6-1.9-3.5-1.9-.6 0-.6.1-.5.8 0 .7 0 .8-.4.8-.3 0-.7 0-.9-.2-.2-.2-.5 0-1 .4-.6.7-1.6.8-1.6.2 0-.2.3-.6.8-.8l.8-.3-.7-.1c-.5-.1-1.3 0-1.8.2-1.2.5-1.9.2-1.3-.6.3-.3.3-.5 0-.7l-.8-.2c-.5 0-2.9 2-2.9 2.5 0 .3-.3.8-.6 1.3-.7 1-.9 1.5-.4 1.5.4 0 .3.9-.4 2.4-.4 1-.6 1.6-.4 1.8.5.5-.4 2.6-4.4 9.9-.3.7-.6 1.7-.6 2.2 0 1.4-.6 2.8-1.8 4.9-1.4 2.2-1.5 3-.9 5 .6 1.7 2.3 5 2.6 5 .4 0-.3-2-1-3-1.7-2.5-.4-2.8 1.6-.4 1 1.3 1.3 2 1.8 4l1 3.2c.4 1.3 2.9 3.6 3.7 3.6l.7-.4zm15.6-6.4c0-.5.3-1 1-1.7 1.4-1.5 2-1.2.7.4-.4.5-.7 1.1-.7 1.5 0 .3-.2.5-.5.5-.4 0-.5-.2-.5-.7zm-1.5-.3v-.6c0-.1-.1-.2-.4-.2-.7 0-.7-.6.2-1.4.3-.3.9-1.1 1.2-1.7.5-1.3.7-1.4 1.5-.7l.6.5-1.2 2.2c-1.3 2.1-1.6 2.4-2 1.9zm3.7-4c-.2-.9.2-3.2.5-3.2.4 0 .4 3.5 0 3.7-.2 0-.4-.2-.5-.5zm-8.7-4.8c-.5-1.4-.5-1.5 0-1.5s1.5 1.3 1.4 2c-.2 1-1 .7-1.4-.5zm1.7-1.8c-.6-1.5-.7-1.9-.2-1.9.5 0 1.5 1.4 1.7 2.4.1.7 0 .8-.4.8-.3 0-.7-.4-1-1.3zm-12.6.4c-.5-.6-.5-.7 0-2.3.7-1.7 1.3-1.7 1.4 0 .2 2.1-.5 3.2-1.4 2.3zm-2-3c0-1 .5-2.2 1.5-3.4.5-.6.7-.7 1-.4.2.2.1.6-.5 1.8l-1 2.2c0 .4-.3.7-.5.8-.4 0-.5-.2-.5-1zm15.8-.5c-.4-1-.7-3.9-.4-4.4.3-.4.3-.5.7 0l.8.3c.3 0 .5.5 1.1 2.5.5 1.6-.3 2.2-1 .7l-.3-.9v1.1c0 1.2-.6 1.6-1 .7zm-16.6-2.6c-.1-.1 0-.6.3-1 .4-.5.5-.8.3-1-.2-.2 0-.7.5-1.7.9-1.5 1-2.3.1-1-.5.6-.9.8-.9.3l.6-1.5c.5-1 .7-1.1 1.2-1 1.2.3 1.5.8 1.1 1.6-.2.6-.2.8.1 1 .5.3.3.8-.6 2-1.5 2.1-2.3 2.7-2.7 2.3zm10-13.8-.2-1c0-.7.2-1 .6-1 .7-.3.9-.1.4.6-.1.4-.3.8-.2 1 0 .3-.4.6-.6.4zm.5-3c-.3-.4.3-.9.8-.7.2 0 .4.3.4.6 0 .4-1 .5-1.2 0zm6.3 38.7c0-.1-.3 0-.4.2-.3.2-.3.3.1.1.3 0 .4-.2.3-.3zm25.7-3.8c.1-.2 0-.5-.4-.7-.3-.2-.5-.7-.5-1a61 61 0 0 0-1.6-9c-.4-.4-.3-.6.2-.7.5 0 .3-.5-1.3-3.8a24 24 0 0 0-1.8-3.4l.6 2.5c.9 3 1.3 5.6 1.2 6.7-.2.8.7 3.9 1.6 5.8.7 1.4.7 2.1 0 2-.5-.1-1-1.3-2.2-4.9a25.7 25.7 0 0 1-1.6-7.1c0-1.4-.4-3-1.1-4.7-.5-1.1-1-1.3-.9-.4 0 .3 0 1.5-.2 2.7 0 1.3 0 2.5.2 3.5l.6 2.7c.7 3.5 5 10 6.4 10 .4 0 .7 0 .8-.2zm9.2-1.3c-.6-1.7-.5-1.9.6-1.7.6.1 1.3.5 1.7 1 .7.7.8.8 1.6.5 1-.2 1.2-.7.8-1.3-.4-.7-5.9-1.2-6.2-.6-.2.2.7 2 1.2 2.8.6.7.7.3.3-.7zm-1.7.7-.4-1.2c-.4-1.1-1-1.3-1.8-.7-.7.5-.4 1.7.5 1.8.9.2 1.7.2 1.7 0zm-.5-4c.8-.2 2-.5 2.6-.8 1-.3 1.1-.3 1.4.1.2.4.7.5 2.8.6l3.9-.1c1.2-.3 1.3-.4 2.2-2 .8-1.4.9-1.8.8-2.6-.2-1-.5-1-1.6-.6-.5.1-.7.4-.7.8 0 .3-.3.6-.7.8-.3.1-.6.3-.6.5 0 .4-.8.3-1-.2-.1-.3-.2-.3-.7 0l-.5.9c0 .2 0 .3-.2.3s-.6.3-1 .6c-1.6 1.2-1.9.2-.3-1.3 1.2-1.2 1.4-2 .3-1.1l-.7.6-.4-.6c-.4-.5-.4-.5-.8 0-.5.8-2.1.6-2.2-.2 0-.4 0-.4-.3 0-.5.6-1.2.6-1.2 0 0-.3.3-.9.6-1.3.5-.6.7-.7 1-.4.3.2.5.2.6 0l1-.2c.4 0 .8-.1.9-.3.2-.4 1.2-.3 1.2.1 0 .3.1.3.8 0h1c0 .3.4.2 1 0l.9-.6-1-1.2c-1.4-1.6-1.8-2.2-1.5-2.6.2-.1.8.4 1.8 1.5l1.6 1.8-.5.8c-.3.4-.4.8-.3 1 0 0 .2-.1.3-.4 0-.2.6-.6 1.2-.8.8-.4 1-.6 1-1.2 0-.8.6-1 .9-.4.2.7 1 .5 1.8-.4.8-.8 1-1.4.5-1.7l-2-.3c-1.1-.2-1.6-.3-1.6-.6s.4-.4 2-.4c1.5 0 1.8 0 1.8-.3 0-.5.3-.5 1 .4.7.6.8.7.9.2l.3-.9c.2-.2.2-.6.1-.9-.1-.4-.4-.5-1.5-.5-1 0-1.3-.1-1.3-.4 0-.4.6-.7 1.9-.7 1.2 0 1.2 0 1.3-1.4.1-1 0-1-.7-1-1 0-1.2-.9-.2-1l.8-.2-.2-1.8-.3-2-1.7-.3c-1.4-.2-2.2-.6-1.6-1h1c.8.4 1.8.1 1.8-.4 0-.3-.2-.4-.9-.4-1.1 0-1.4-.4-.6-.8l.7-.4s-.7-1-1.7-2c-1.3-1.6-1.9-2-2.2-2-.4.2-.5 0-.6-.5 0-.7-.2-.8-1-.7-.7 0-.8 0-.8-.5 0-.3 0-.7-.4-.8l-1.2-.8c-.4-.2-1-.4-1.3-.3-.4.1-.5 0-.5-.2 0-.4-1.7-1.8-2-1.8-.2 0-.5.3-.8.8-.2.4-.6.8-.7.8-.5 0-.5-.6 0-1.2.3-.6.3-.8 0-1-.9-.5-2.8.1-3 1-.2.6-1 1.6-3.8 4.6-.7.7-.9 1-.8 1.6.1.6 0 .8-.2.8a.5.5 0 0 1-.5-.3c0-.3-.3-.2-1 .2a6 6 0 0 0-1.1.6c0 .1.3.4.8.7l.9.4.7-.8c.3-.4.8-.8 1-.8.6 0 .7.8 0 1.4a100 100 0 0 0-4.8 5.2c-.4.4-1 1.1-1.2 1.6l-.5.8 1.4-.1c.8-.1 2.2-.6 3.3-1.2 1-.5 2-.8 2.1-.7.7.6-2.2 2.3-5.1 3.1-2.5.7-3.1 1-2.8 1.3l1 .3a7 7 0 0 1 1.7.3l2 .7c1.9.6 2.2 1.3.5 1.3-1.6 0-2.5.3-2.5.8 0 .7 1.3 2.1 1.8 2.1.3 0 .6.4.8.8.2.7.4.8 1.4.8.9 0 1 0 1 .5 0 .2-.4.5-.8.6-.4.2-.3.2.4 0 1.1 0 1.5.3.7.8-.5.4-.5.4.3.5 1.2.2 2-.2 2.3-1.2.3-1 1-1.2 1.2-.2l-.1 1.1c-.1.3 0 .6.2 1 .3.4.3.5-.4 1.2-.4.4-1 .7-1.3.7l-1.2.4c-.4.2-.5.2-.7-.1-.4-.6-.7.3-.5 1.4.2.6.1.8-.3.9-.7.2-.7.6 0 1.3.7 1 1.3 1 3.4.5zm5.1-8.7c-.7-.3-.8-.8-.2-1 .4-.2 1.6.7 1.3 1-.2.4-.3.4-1.1 0zm-3.4-2a3 3 0 0 0-1.3-.8c-1-.2-1.2-.8-.3-.8 1 0 3 1.1 3 1.6 0 .7-.8.6-1.4 0zm-7-.2c-.6-.6-.7-1.1-.2-1.1.4 0 1.5 1 1.5 1.4 0 .3-.7.1-1.2-.3zm12.9-1.6a7 7 0 0 1-.2-1.5c-.1-1.7.3-1.8 1.2-.2.7 1.1.7 1.2.2 1.6-.5.3-1 .4-1.2.1zm-6-1c-.4-.4-.3-.7.3-.6.4 0 .7.3.7.5.1.6-.5.7-1 .2zm-2-.3c-.2-.8.1-1.4.7-1.4.4 0 .5.1.5.8-.1 1-1 1.4-1.2.6zm11.7-1.4c-.5-.5-.4-1 .2-1 .4 0 1.2.8 1.2 1.2 0 .5-1 .4-1.4-.2zm-8.5-.5c-1.7-.1-2.3-.3-2.3-.7 0-.3.4-.4 1.4-.4l2 .2c.9.3 1.2 1.1.4 1H152zm-5-1c-.9-.5-1.3-1.4-.6-1.4.6 0 2 1 2 1.5 0 .4-.2.4-1.3-.1zm15.2-.8c-1.4-1-1.4-1-2.1-.5-.9.5-2.6.6-2.8.1-.3-.5.2-.7 1.6-.8l1.7-.3c.8-.5 3.7 1 3.7 2 0 .7-.5.6-2-.5zm-11.3-1.8c0-.3 2.4-.9 2.7-.6.4.4-.8 1-1.8 1-.7 0-1-.1-1-.4zm7.4-1.5c.1-.5 3.6-2.4 4.1-2.3.9.2.4.9-1.3 1.7-1.7.9-3 1.2-2.8.6zm-10-.3c-.2-.3-.3-.3 1.6-1.2 1.9-1 2.5-1 2.5-.4s-3.8 2.2-4.1 1.6zm-2.6-1.2c-.3-.4 1.8-3.5 2.2-3.5.7 0 .6.5-.4 2.2-1 1.4-1.5 1.8-1.8 1.3zm7.1-2.6c-.3-.4-.1-.6.8-1.3 1-.7 2.2-.9 2.2-.3 0 .6-2.6 2-3 1.6zm5-.3c-.8-.3-.3-.6 1.8-1.3 2.4-.7 3.7-.9 4.2-.4.5.4 0 .8-1 .8-.6 0-1.8.3-2.7.6-1.8.5-1.8.5-2.4.3zm-6.5-2 1-1.7c1.1-1.4 2-1.8 2-1 0 .7-1.9 2.8-2.5 2.8-.2 0-.5 0-.5-.2zm5.5-1.4c-.4-.4-.2-.6 1.2-1.3 1.2-.7 2-.7 2-.2 0 .7-2.7 2-3.2 1.5zm-9-1c0-.8 1-3.2 1.4-3.3.5-.2.6.6 0 2.2-.6 1.7-1.3 2.4-1.3 1.1zm-78.1 26.1 2.3-.7c.6-.1 1.3-.4 1.5-.6l1.3-.7c1-.3 4.3-3.2 5.2-4.4l.5-.6-1 .2c-1.6.2-2-.4-2-2.7 0-1 .1-2.5.3-3.2.3-1.7.1-2-1.3-2.5-2.2-.5-2.3-.5-3.6 2.2l-1.8 4.5c-1 2.7-2.2 5.2-3.4 6.7-1.4 1.7-1.4 2.3.1 2.2.5 0 1.3-.2 1.9-.4zm58.7-1.3 1.1-.5c0-.2-.6-.8-1.4-1.4-2.2-1.8-2.4-2.8-1-5 1.2-1.8 1.6-3.2 1.2-4.4-.3-.8-.3-1.1.4-2.7.6-1.3 1-2 1.6-2.3 1.2-.8 1.3-1.3.7-2.3-.4-.8-.4-.8.2-1.9l.5-1-1.2-1.3a28 28 0 0 1-2.2-2.5l-1-1.2c-.2 0-.2.6-.2 1.3 0 1-.2 2.2-.7 3.8l-.7 2.3.3 3.8c.6 7.6.6 7.7-.2 8.6-.7.8-.7 1 .1 3 .2.4.3 1.5.3 2.4 0 1.7 0 1.7.6 1.6l1.6-.3zm18.2-1-.6.1-.5.4.5-.1.6-.4zm-13.4-.3c0-.7-4.5-5.5-4.9-5.3-.5.4-.2 1.1.6 1.6a9 9 0 0 1 3.2 3.6c.3 1 1.1 1 1.1 0zm15.7 0c0-.3 0-.3-.3-.2-.3 0-.4.3-.4.4 0 .3.6.1.7-.3zm-18.6-1c-.5-.8-1.3-1.5-1.8-1.5-.4 0-.2.2.6 1 1.3 1 1.4 1 1.2.5zm3-1.8c0-.7-.4-1.6-.9-1.6-.2 0-.9-.6-1.5-1.3-1-1-1.3-1.3-1.7-1.2-.4.2-.3.3.6 1.3 3.5 3.8 3.5 3.8 3.5 2.8zM82 142.5c.1-.3 0-.4-.1-.3l-.3.4c0 .4.2.3.4-.1zm3-1.5 2.2.3c1.2.3 1.7.3 1.9 0 .2-.2.2-.3 0-.6-.4-.4-.4-2 0-2.7 1.2-1.7 2.2-9.2 1.7-13 0-.3.2-.5.4-.6.3 0 .5 0 .5.3s.1.4.3.4c.4 0 .3-.7-.3-2-.5-1.3-.8-1.5-2.3-2.2-1.1-.5-2-.7-2.4-.6-.7.2-2.2 1.8-2.8 3.1a17.6 17.6 0 0 0-3.4 6c-.6 1.6-.4 2.2.5 2 .8 0 1.3-1 3.2-5.6 1.3-3.5 1.4-3.7 2-3.5.3.2.3.4-.3 1.8l-1.2 3.2-1.1 3-.7 2.3c0 .4-.1.9-.3 1.1-.4.5-.4.5-.8-.2-.4-1-1.7-1.2-2.3-.6-.7 1-1.6 7.7-1 8.3 0 0 .7 0 1.4-.3s1.7-.5 2.2-.6c.7-.1.8 0 .8.4 0 .3-.1.6-.3.8-.2.3 0 .2.5 0 .5-.3 1.2-.5 1.6-.5zm-.2-2c0-1 1.8-9.8 2.3-11.6.5-1.5 1.2-2.3 1.2-1.2 0 .6-2.4 12.5-2.6 12.8-.2.2-.9.2-.9 0zm48.2 2c0-.3-.4-.8-.8-1.2-.5-.4-1-1.1-1.4-1.6-.5-.9-1-1-1-.2 0 .3.6 1.1 1.3 2 1.3 1.4 1.9 1.7 1.9 1zm0-2.8c0-.4 0-1.1.2-1.6.4-1.2-.6-2-2-1.7l.8.8c1 .9.8 1.4-.2.8-1-.5-1-.1-.2 1.2 1 1.4 1.4 1.5 1.4.5zm-41.8-.4v-.3c-.2 0-.3.3-.3.5 0 .5.2.5.3-.2zm105-.5c-.1-.2-.3-.2-.3 0 0 .3.4.6.5.4l-.1-.4zm-99.5-.7c2.2-3.6 3.3-6.4 3-7.4 0-.3.1-1 .3-1.4.3-.6.4-1 .2-1.2-.4-.4 0-2 .9-3.4a5 5 0 0 0 .6-1.7c0-.6 1.7-2.4 2.1-2.4.2 0 .2-.4.2-.9 0-.6-.2-1-.6-1-.5-.3-.6-.5-.5-1 0-.4 0-.6-.5-.9-.8-.4-.8-.5-.2-1 .3-.3.2-.4-.6-1-.7-.5-1.2-.6-2-.5-1.4.2-3.1.6-3.3.8-.1.1-.3 1.2-.3 2.5-.1 3.2-.4 4-1.9 5l-1.1.7.1 1.8c.1 1 .3 2 .5 2.3l.2 1.8c0 1 0 1.2.3 1 .5-.5.8-.4.8.2 0 1 .4.2.6-1a17 17 0 0 1 1-4.9l.3 1.8v1.8l.5-3.3.6-3.4c.1 0 .3 0 .5.2s.2 1-.2 3.4c-.5 3.2-.7 3.8-1.4 3.6h-.3l-.6 4.4c-.5 3.8-.5 6 0 6 .1 0 .5-.4.8-1zm83.4-.3c1.1-.7 1.2-1 .5-2.8-.4-.8-1.3-1-1.9-.3-.1.2-.6.4-1 .4-.8 0-.8-1.2 0-1.4.9-.3.5-.5-2.6-1.1-1.5-.3-2.9-.7-2.9-.8 0-.2.3-.6.8-1 1.3-1 1.3-1.5 0-1.5-.8 0-1.1-.1-1.1-.4 0-.5-2.5-1-3-.7l-.8.7c-.5.3-.5.4-.1 1.2l.5 1.5c.2.4.5.6 1.2.7l1.6.6 1.4.6c.6.2.7.4.6.8-.2.6 1.4 3.2 2.3 3.6 1.6.9 3.3.8 4.5 0zm13 0c1.3-.6 1.4-1.2.4-2.5a15 15 0 0 0-4.6-4c-.6-.3-1.6-.4-2.2-.4h-2c-.5 0-1.5-.2-2.3-.5-.8-.4-2-.6-2.5-.6-.6 0-1.2-.1-1.3-.3h-.6c-.3.2-.9.3-1.3.3s-.6.1-.4.2c.5.2.4 1.1-.2 1.1-.3 0-.5-.1-.6-.3-.1-.2-.3-.2-.6.1-.4.4-.4.5.6.8l1.7.2c1 0 3 1 3.9 1.7.5.5.6.5 1 .1l.9-.4c.1 0 1.2.9 2.3 2 1.1 1.1 2.5 2.2 3.1 2.5 1.3.6 3.6.6 4.6 0zm-63.6-.6c0-.1 0-.2-.2-.2s-.3 0-.3.2.1.3.3.3c.1 0 .2-.1.2-.3zm8 .1h-.8l.4.1h.4zm47.3-.8c0-.1-.5-.5-1.1-.8-1.3-.6-1.8-.7-1.8-.3l.4.2c.2 0 .6.3.8.7.5.7 1.5.8 1.7.2zm25.1-.8c1.1-.6 2-1.6 1.8-1.8l.1-.5c.4-.5-.7-1.6-2-2.2-.6-.2-1.5-.7-2.2-1.2-1.8-1.3-2.9-1.5-3.9-1s-3.3 2.2-3.7 2.7c-.3.4-.3.5.4.6l1.1.3c.3.1.7-.1 1.1-.5.6-.7.7-.7 1.1-.3.4.4.4.7.3 1.4-.1.8 0 1 .7 1.6 1.6 1.3 3.6 1.7 5.2.9zm-179.4-.7c.5-1.4.7-2.6.7-3.4 0-.7.2-.9.8-1 1.2-.4 1.3-.5 1.8-.8.7-.5 1 0 .2.6l-.6.5.6.5 1.3.7 1.5.7c.7.4.9.4 1.2.1.2-.3.1-.5-.3-1l-.5-.7.8-.8c.7-.8.7-1 .4-1.4-.2-.5-.2-.6.3-1 .8-.7.8-.8-.2-.6-1.2.2-1-.5.2-.9 1.1-.3 1.1-.6 0-.6l-1.3-.2c-.2 0-.8.5-1.3 1.4-.7.9-1.2 1.4-1.6 1.4-.7 0-.6-.5.3-1.4a7 7 0 0 0 1.2-1.9c.5-1.2.2-1.4-1.3-1a13 13 0 0 1-6.8-.8c-.6-.4-1.8-1-2.6-1.2-1.1-.4-2-1-3.3-2.4-1-1-1.7-2-1.7-2.1 0-.6-1.1-.3-1.4.4-.3.5-.2.8.1 1.6.3.5.4 1 .3 1.1 0 .2 0 .6.2 1s.4 1 .3 1.2c0 .2.1.6.4.7.3.2.6.8.8 1.5.2.8.5 1.3 1 1.6 1.8 1.1 4 2.7 4.6 3.4.5.5.6.8.4 1.6-.1.9 0 1 1.4 2.5.8.9 1.6 1.6 1.7 1.6 0 0 .3-.4.4-.9zm-2.2-3c-.2-.5.1-.8 1.1-1 .9-.2 1.5.2 1 .7-.4.3-2 .5-2 .2zm102.8 3.4c.6-.6.7-1.3.3-1.3-.3 0-1 1.1-1 1.5 0 .4.1.4.7-.2zm-52.7-.6 1-2.9c.5-2 3.2-7.1 4.7-9.6.3-.3.5-1.7.7-3.4.2-2.6.8-4.4 1.3-4.4.6 0 .3-.8-.4-1.1-1-.5-1.1-.7-1.1-1.6a4 4 0 0 0-.7-1.7c-.6-.8-.7-1.2-.5-2 .4-2.1 1.3-2.8 2.3-1.7l.6.6.7-.8.7-.9 1 .5c.6.4 1 .5 1.2.2.3-.2.3-.4-.1-1.3-.4-.8-.5-1.2-.3-1.4.2-.2.4-.2.5.2.4 1.3.7 1.7 1 1.9.7.2.7 0 .4-1.4-.4-1.5 0-3 .8-3 .2 0 .3.1.2.4-.5 1-.5 2.6 0 3.1.3.6.3.5 1.4-.2 1.3-.8 1.5-.8 1.9-.1.2.4.2.8-.1 1.5-.5 1.3-.3 1.9.7 1.4 1-.4 1.5-.4 1.3 0-.1.5-1.2 1-2.2 1-.4.1-.7.4-1 1.2-.9 2.5-1.3 4.3-1.1 5 .2.5.2.5.2 0s1.6-2.2 2.1-2.2c.1 0 .7-.4 1.3-1 1.2-1 1.4-1 1.4-.3 0 .5-1 1.6-1.4 1.6-.2 0 0 .4.6 1.2.2.3.5.3 1.7 0 1.4-.3 1.5-.4 1.5-1l.2-.9c.2 0 .2-.6.1-1 0-.9 0-1 .4-1.2.5 0 .5-.3.4-1.5 0-.7-.4-2.5-.8-3.8-.7-2.7-1-6.4-.5-8.6.3-1.4 2.5-4 3.8-4.4 2-.6 3 .4 3.1 3.3.1 1.5 1 3.8 1.3 3.8.1 0 .3-.6.4-1.3l.8-2.4.7-2.1c.4-2.5 2.4-3.2 4-1.4.5.5 1 1 1 1.3 0 .2.1.6.4 1 .3.3.6 1 .7 1.5.2 1 .4 6.3.5 10.2l.2 3.2c.4 1 1.3 1 2.8.1 1.5-.9 3.1-1.4 3.7-1.2.5.2.4.7-.2.7-.7 0-3.8 1.4-4.2 2-.4.4-.6 5.1-.2 5.2l1 .3c.8.2 1.7.8 1.5 1.1-.1.1-.5 0-.7-.1-.6-.4-1.6-.4-2.3-.2l-1.4 1.7c-.9 1.4-.9 1.5-.5 2.3l1.4 1.8c1.2 1.3 1.7 2.8 1.9 6.1 0 1.5.2 2.8.2 2.7.2-.2 1.5-8.7 1.4-9-.3-.7.7-4.7 1.6-7.2.2-.4 0-.9-.2-1.5-1-1.8-.5-3.6 1-3.3.7.1.8 0 1-.7l.8-3.2c1-5.4 2-10.6 3.3-15.4.7-2.7 1.5-6.1 1.7-7.5.8-5.6 3-17.3 4.3-22.4.7-3.1.9-4.2.7-4.5-.3-.4-.9-.5-5-.5-5.5 0-5.5 0-6.8 3-1.4 3.3-2.5 5.2-3 5.3-.7.1-.5-.8.7-3l1-2.5.4-1.2.4-1c-.2-.2-8.3.6-8.5.8l-1 3c-1.3 4.2-1.9 5.5-2.3 5.5-.5 0-.5-.4.6-3.9.5-1.7 1-3.4 1-3.8.2-.8.2-.8-.5-.6-1 .2-1.3.2-6.9-.1a42.6 42.6 0 0 0-12.4.3c-.3 0-.4 0-.4.4l-.5 2c-.3.8-.7 2.3-.8 3.2l-.7 3-.7 3.3A20 20 0 0 1 90 71l-.6 1.8c0 .1.9.5 2 .7 2.4.6 3.2 1.4 3.8 3.7.4 1.3.4 2.3.3 4.5-.1 2.6 0 4 .3 3.5l1.3-5.1 1.8-7.2c1-3.3 1-3.6.3-4-.7-.3-.7-1 .1-1 1.1 0 1.5.3 1.5 1v.9l1.5-.2 3.6-.4 6.3-.2h4.2v-.7c0-.5.1-.7.6-.7.3 0 .6.2.6.5.2.5.4.5 3.3.4l3.2-.2v1l-.4 2.2c-.6 1.8-1.2 4.4-1.6 6.7a596.4 596.4 0 0 1-3.6 16.4c-.3 0-.3-.3.1-2.2l.6-3a252.7 252.7 0 0 1 3.8-19.5c-.2-.2-3-.7-4-.7-.8 0-.8 0-.3 1.6.1.4 0 .4-1.4.4-1.7 0-2.3-.4-.7-.4 1 0 1.1 0 1-.6-.3-.7-.7-1-1.3-.9l-4.4.3a56.3 56.3 0 0 0-9 1c-1.1 0-1.3 0-1.1.5.1.6-.4.7-1 0-.4-.3-.5-.3-.6 0-.4 1-1.6 5.8-1.8 6.9a52 52 0 0 1-2.6 8.9c-.2 0-.3-.1-.3-.5 0-1-.4-.3-.4.9v1l1-.1c.5 0 1.6-.4 2.4-.8 1.3-.6 1.5-.6 2.1-.3.8.4.8.6.4 1.6-.3 1-1.4 2.1-2.4 2.5-1.6.7-5.2 2.9-5.7 3.6-1.2 1.5-4 3.2-6.6 3.8-2.2.6-2.4.7-2.4 1.2l-.5 1c-.3.3-.7 1.3-1 2.3l-.8 2.8c-.6 1.9-.7 2.5-.4 2.5.2 0 .6.3 1 .6.5.5.6 1 .6 1.9 0 1.4-.4 1.7-1.5 1-1-.4-1-.4-1.3 1.6 0 .6-.3 1.8-.5 2.6-.3.8-.4 2.6-.4 4.2 0 3.1-.4 4.7-1.7 6.5-1 1.6-2.6 5.4-2.3 5.8.3.2 2.3 1 3 1.1l.4-.5zm16.8-25.5c.3-.3 2.5-.9 3.2-.9.7 0 .5.4-.2.7-.8.4-3.3.5-3 .2zm3.6-8.3c0-.4.2-.5.4-.5s.3.3.3.5-.1.4-.3.4c-.2.1-.4 0-.4-.4zm-.8-1c0-.6.9-2.2 1.1-2.2.3 0 .2.4-.3 1.8-.2.6-.8.8-.8.4zm-1.2-2.1c.3-2.2.5-2.7.7-2.6.4.2.3.9 0 2.5-.4 1.7-.9 1.8-.7 0zm12.8-7.9c-.2-.5 0-.7.8-.7s1 .5.4.8c-.7.4-1 .4-1.2 0zm-5.4-4.7c.2-.8.9-1.7 1.1-1.5.2.2-.7 2.4-1 2.4-.1 0-.2-.4 0-.9zm2.8-.1c0-1.1.8-3.3 1.1-3.3.3 0 0 2.7-.3 3.7-.3.9-.8.7-.8-.4zm3.4.5c-.2-.4.2-1.4.6-1.4.5 0 .5.5 0 1-.3.5-.5.6-.6.4zm-8.4-.7c0-1 .3-1.5.8-1.5.3 0 .5-.1.5-.2 0-.2.2-.3.3-.3.5 0 0 1.7-.6 2.2-.8.6-1 .6-1-.2zm10.4.2c0-.2.2-.5.4-.6.2 0 .3 0 .3.4 0 .2-.3.5-.5.6-.2 0-.3 0-.2-.4zm2.2 0c-.2-.3-.2-.9 0-.9.4 0 .7.8.4 1l-.4-.1zm1.3-.3c-.1-.3.3-1.6.5-1.6.1 0 .2.4.2.9 0 .9-.4 1.2-.7.7zm1.6-1.2c.4-.7.5-.7.6-.4.1.7-.1 1.3-.6 1.3-.4 0-.4-.1 0-.9zm-6.8-2c0-.6.7-1.2 1-.8.2.3-.3 1.3-.7 1.3-.1 0-.3-.2-.3-.5zm-7.3-2c-.7-.6-.8-1.2-.2-2.1.6-1 1-.9.6 0-.5 1.5.3 1.8 1.8.8 1.3-.9 1.2-1.8-.3-2.8-.6-.5-1.2-1.1-1.2-1.3 0-.6 1.8-1.6 2.7-1.6.7 0 1.4.5 1.1.9l-.8.1a2 2 0 0 0-1.1.4c-.5.4-.4.5.5 1.4 1.4 1.3 1.4 2 0 3.4-1.3 1.3-2 1.4-3.1.7zm4.3.1c-.2-.3 1.5-4 2.1-4.8.3-.2.7-.4 1-.3.7.1.7.3.7 1.3 0 .6.2 1.2.3 1.2.5.2 0 2.4-.4 2.4-.3 0-.4-.3-.4-.8 0-.6-.1-.8-.7-1-.8-.2-1 0-1.3.9-.3 1.2-1 1.7-1.3 1.1zm3.2-3.2-.1-.6c-.3-.2-.4-.2-.6.1l-.2.6c0 .3.7.2.9 0zm2.6 2.4.1-1.1.6-2.4c.3-1.3.6-2 1-1.7l-.4 2.2a15 15 0 0 0-.3 2.1h1.5l1.5-.3.4-1.7c.6-1.9.7-2 1.1-1.6.2.1.6.3 1 .3.8 0 .6.6-.3.7-.4 0-.8.4-1 .8-.5 1-.4 1.4.5 1.3.5 0 1 .1 1 .3 0 .2-.1.3-.5.3l-1 .3a87.8 87.8 0 0 0-3.7.7c-.8 0-1.3 0-1.5-.2zm5.7-5.5c-.4-.3-.2-.4.8-.6.7-.2 1.6.1 1.3.4-.3.3-1.7.4-2 .2zm-17-8c0-1.8 2-7.8 2.5-7.8.4 0 .4.1-.6 4.3l-.8 3.6c0 .3-.2.5-.5.5-.4 0-.5-.2-.5-.6zm36 68.6c1.3-1 5-5 5-5.4l-1-.6c-.5-.2-1-.6-1.2-.9-.3-.6-.5-.7-1.4-.2a8 8 0 0 1-2 .6c-1.4.2-1.7.4-1.7 1.3 0 .3-.2.7-.5 1-.3.3-.6 1.1-.7 1.8-.2 1.3 0 1.4.9 1.3.3 0 .3.3-.2 1.5-.2.7 2 .4 2.9-.4zm-.4-4.4c-.1-.7 0-1.2.6-1.2.4 0 .8 1.1.5 1.6-.3.5-.9.3-1-.4zm-18 4.2c0-.5-.4-1.4-.6-1.4 0 0-.1.3 0 .8 0 .4.2.8.3.8l.2-.2zm49.7-.4-.4-.2c-.3 0-.4 0-.3.2.1.2.3.3.4.3.2 0 .3-.1.3-.3zm-36.8-2.4c-.2-.2-.3-.2-.3 0l.2.7.3-.1c0-.2 0-.5-.2-.6zm-10.5-1.5c.8-2.6 2-8 2.3-10.3.3-1.7.2-2.2 0-2.7l-.4-.7-.2.8a113.8 113.8 0 0 0-1.9 10.6c-.8 4.6-.7 4.3-.5 4 .2-.2.5-1 .7-1.7zm77.6 1 1.2-1c.5-.4.6-.6.3-.9-.3-.3-1.6-1-2.8-1.4-.3 0-.4-.4-.4-.8 0-.6-.1-.6-.6-.4a2 2 0 0 1-1 .3 3 3 0 0 0-1.2.2c-.6.3-.7.4-.4.8.3.7-.2 1-.7.4-.3-.4-.5-.4-1.4-.1-.6.1-1.2.5-1.4.7-.2.3-.1.4 1 .4 1.8 0 6 1.4 6.1 2.1.2.5.3.5 1.3-.3zm-65.8-3.3c-.3-.3-1 .2-.8.6 0 .3.2.3.5 0 .2-.3.4-.5.3-.6zm33.7.5c.1-.2 0-.3-.4-.3-.2 0-.5 0-.5.2 0 .3.7.4 1 0zm-91.8-.8c.5-.6 1-1.7 1.4-3.7.4-2 .2-4-1.2-9.9-.4-2-1-4.8-1-6.4-.4-3-.4-3 1.5-6.3.5-.8.6-1 .2-2.3-.4-1.6-.7-1.8-2.5-1.9-1.1 0-3.4 1.8-4 3l-1.1 5.4c-.9 4.6-1 5-3.2 8l-1 1.8c0 .1.6.7 1.3 1.2.7.6 1.3 1 1.3 1.2l1.2 1.5c1.7 1.7 3.5 4.6 3.9 6.1.4 2.2 2.2 3.4 3.2 2.3zm91-1.6c0-1-.4-1.1-1-.3-.3.5-.3.7 0 1.4.5.7.5.8.7.3l.2-1.4zm-31.3 1.3c.4-.3.3-.4-.1-.7-1.4-1-1.5-1.1-1.4-1.4.2-.2.4-.2 1 0h.9c.1-.2 0-.4-.2-.5-1-.4-.2-2.4.8-2 .4.1.4 0 .1-.2l-.3-.7c0-.2-.2-1-.5-1.6-.6-1.1-.6-1.3-.2-2 .5-1.2.4-2-.2-3-.8-.9-1.7-1.2-3.7-1.2-.9 0-1.9-.2-2.3-.4-.3-.2-1-.4-1.5-.4s-1.5-.3-2.2-.7c-.7-.3-1.4-.6-1.6-.5-.2 0-.2.1.1.1.5 0 .5.2.4 1.2-.2 1 0 1.8.8 4.3.6 1.7 1.3 3.4 1.6 3.7l1.5 2c.5.7 1.4 1.6 1.9 2 .8.8 1 .9 2 .8.8-.2 1-.1 1.7.6.9.9.9.9 1.4.6zm-6.4-5-.6-1.2c0-.4-.3-.7-.4-.7-.1 0-.3-.2-.3-.4 0-.3.2-.4.6-.3.3.1.5 0 .5-.2 0-.6.6-.6 1.2 0 .3.4.6.6.8.6.7 0 2 .8 1.9 1.1 0 .2-.3.3-.5.3l-1.4-.2c-1 0-1.2 0-1 .4.6 1-.1 1.4-.8.6zm2.2-3.2c-.2-.3-.3-.8-.3-1.1 0-.3-.2-.8-.6-1-.7-.7-.4-1 1.1-1.3l1.1-.1-.1 1c-.2.7-.1.9.2.9.6 0 1 .9.7 1.5-.4.8-1.7.8-2.1 0zm-2-.6c-.5-.8-.5-1.3 0-1.3.3 0 1.2 1.2 1.2 1.7 0 .4-.8 0-1.2-.4zm9.2 7.6c.3-.6.3-1 .1-1.2-.2-.2-.2-.4 0-.7.2-.2.3-.5.2-.8-.1-.3 0-.6.4-1 .5-.2.6-.5.4-1 0-.2-.3-.5-.4-.5l-.6-.4c-.3-.2-.4-.3-.5-.2v.7c-.2.3-.2 1.2-.3 2 0 .8-.2 1.5-.5 1.8-.6.6-.6 1.2 0 1.8.5.6.7.5 1.2-.5zm5-.4c.3-.3.3-.4-.4-2.2-.3-.6.3-.6 1 0 .4.4.5.4 1-.2 1-.8 1.8-2.5 1.8-3.3 0-.3 0-1.2.3-2 .3-1.4.2-1.6-.4-3-.3-.7-.9-1.6-1.1-1.8a6 6 0 0 0-3.6-.9c-.6.2-.7.7 0 .7s.2.9-.6 1c-.9 0-.9.5 0 .9 1 .4.8 1-.5 1-1.3.1-1.5.4-.7 1.3.7.7 1.2 2.3.8 2.7a9 9 0 0 0-.4 2.5c0 1.1-.3 2.1-.4 2.2-.2 0-.3.3-.3.6 0 .4.1.5 1 .3l1.3.1c.6.4.7.4 1.1 0zm-105.4-.1-.3-.3-.4.1c0 .1.1.3.4.3l.3-.1zm5-1.3L45 121c2-1.2 3.7-2.5 3.4-2.8-.1 0-.4 0-.6.2l-1.3.8a22 22 0 0 0-4.4 3.2c0 .3.8.2 1 0zm-.3-1.5 1.7-1.4c0-.5-.7-.2-2 .7-2.3 1.6-2.5 1.8-2.3 2 .2.4.6.2 2.6-1.3zm-8.2.3.7-.6-1.1-1.3c-.6-.7-1-1.4-1-1.5 0-.4-1-1.3-3.3-2.7-1.1-.8-2.3-1.8-2.6-2.2-.5-1-.7-2.6-.3-2.6l1-1c.6-1 2.3-2.8 5-5.2 1.2-1 1.5-1 3.6-.3l1.3.4c.2 0 .6-.6.9-1.4.3-.8 1-1.7 1.3-2 .4-.4 1-1 1.2-1.5.5-1 2-2.6 3.2-3.2 1.3-.7 4.2-.8 5.2-.3.7.4.9.6.9 1.2 0 .9.4 1.1.7.4 0-.2.3-.4.5-.4.4 0 .4.4.3 2 0 1.1-.2 2.2-.4 2.3-.5.5-.6.2-.3-1 .2-.7.2-1 0-1.2-.6-.6-.8.2-.8 2.6 0 1.3-.2 2.7-.4 3.2-.7 1.6-.5 1.8.6.7 1.4-1.3 2-2.6 2.1-5.3.2-2.4.3-2.9 1-2.7.3.2.3.4.1 1l-.4 3c-.1 2.5 0 2.5 1.4-.5 1.4-2.8 1.2-3.2-3-6.9-.8-.6-1-1-1.3-2.6-.2-1-.6-2-.9-2.3-.4-.4-.5-.4-1.7 0-2.5.6-6.1 2-6.8 2.6a54.3 54.3 0 0 1-2.6 2c0 .5-4 4.5-5.6 5.6L28 103a22 22 0 0 0-5.6 5.4c-1.3 2-2.5 5.2-2.3 6.1.4 1.6 3.9 4.2 6.4 5 .7 0 1.4.5 1.8 1 .8 1 1.7 1.2 4.3 1.3 1 0 1.5-.1 2-.7zm4.3-.6c.8-.5.9-.7.6-1-.3 0-.8-.7-1.3-1.2-.7-.8-.9-1-.6-1.3.2-.2.5 0 1.2.7l1.2 1.5c.1.4.4.3 1.7-.7 1.3-1.1 1.4-1.3 1-1.6-.4-.5-.4-1 0-1 .2 0 .4.2.6.5l.3.6c.1.2 2-1.3 2-1.5 0 0-.6-.7-1.4-1.2-.7-.6-1.3-1.2-1.3-1.4 0-.2-.5-.7-1.2-1.2-1-.8-2-2-2-3 0-.2-.2-.3-.7-.2-.6.1-1-.2-2.7-1.9l-2-2c-.2 0-1.8 1.4-3.6 3.1a12.6 12.6 0 0 0-2.9 3.9c0 .3 2.4 2.4 3.5 3 1.8 1 5.3 4.4 5.3 5.4 0 .4.6 1 1.2 1a4 4 0 0 0 1.1-.5zm.3-4.1c0-.4 1.5-2 1.9-2 .5 0 .2.8-.7 1.6-1 .9-1.2 1-1.2.4zm-5.6-.8c-.8-.7-1-1-.4-1.3.1-.1.6.1 1 .6.5.4.8.9.7 1-.3.5-.5.4-1.3-.3zm3.2-2c0-.5 1.3-1.6 1.9-1.6.5 0 .2.8-.6 1.5-1 .8-1.3.8-1.3.1zm-3.5-2c-.5-.5-1-1.1-1-1.4.1-.3.4-.2 1.4.5 1 1 1.4 1.6.9 1.8-.2 0-.7-.4-1.3-.9zm2.4-1.5c-.7-.8-.7-1.3 0-1.3.3 0 1.7 1.5 1.7 2s-1.1.1-1.7-.7zm54.1 9 .6-.5-.6-.6c-.3-.3-.6-.7-.6-1 0-.5.7-.2 1.9 1 1.5 1.5 2 1.8 2.6 1.4.8-.4 1.1-1.6 1-4v-2.5l-.7 1.3c-.5 1.1-.6 1.4-.3 2 .2.3.3.7.2.8-.5.8-2.8-.3-2.5-1.1.1-.3.4-.4.6-.4.4.2 1-.2 1-.7 0-.2-.6-1-1.1-1.6-1.3-1.5-1.3-1.8-.5-2.1.4-.2.8-.8 1.1-1.6l.9-1.8c.3-.3 1.1-3.1 1.1-3.7 0-.4-.5-.2-2.5.8-1.7.8-2 1.1-2.2 1.7-.2 1-1 .9-1-.2-.2-1-.8-1.3-1.3-.9-.3.2-.3.6-.2 1 .1.7 0 .9-.3.9a2 2 0 0 1-1.8-1.3c-.2-.6-.3-.6-.6-.3l-.6 1c0 .6 0 1 .8 1.8.7.8 1 1.3 1 1.9 0 .6.1.9.6 1l.8.6c.1.2.7.3 1.4.3s1.3.1 1.5.4a38.6 38.6 0 0 0 1 1.3c0 .3-2 .1-2.6-.3-.6-.4-.7-.4-1.3.2-1 .9-1.4 2-1.4 3.8v1.4l1 .1 1 .1-.4-1c-.3-1-.3-1.1 0-1.4.6-.6 1 .1 1.2 1.6.2 1.3.4 1.4 1.2.7zm1.6-12 .5-.2c.2 0 .4.1.4.3 0 .2-.1.3-.4.3-.4 0-.6-.1-.5-.3zm-44.6 11 1.5-1.3c.5-.5.5-.5 0-.5s-2 1-3.1 2c-.6.6.7.3 1.6-.3zm64-.4c.3-.2.8-.4 1-.3.8.2 2.6-.5 2.8-1 .2-.4.6-.7 1-.8.9-.2 1.2-1 .4-1-.6 0-.3-.8.5-1.2.6-.3.8-.5.8-1.1 0-.5-.2-.8-.3-.8-.4 0-.3-.7.1-1 .3-.3.4-.5.2-.7a.8.8 0 0 1-.2-.7c.1-.2-.3-.7-.9-1.2-1.2-.9-1.3-1.2-.6-3.4.5-1.4.5-1.7.2-3.6-.3-1.2-.4-2.7-.2-4 0-1.3 0-1.8-.2-1.7-.4.3-1.3-.4-1.1-1 0-.2-.3-.6-1.1-1-1.3-.8-1.6-1.4-.7-1.7.4-.1.8 0 1.3.4 1 .7 1.2.4.5-1-1-1.6-2.4-1.5-2.7.4-.2 1.2-.6 2.1-1.3 3.8a38 38 0 0 0-.3 9c.1.4 0 .5-.4.5-.7 0-1-.4-.8-1.9 0-1.5-.3-2.8-1.5-5.8-.5-1.3-.9-2.6-.9-3 0-1.4-2.3-1.3-3 .2-.3.8-1 1-1 .2 0-1.3 1.2-2.7 2.5-3 1-.3 1-.8-.1-.6-1.2.2-1.7.8-2.7 2.7-1.3 2.6-1.3 7.1.1 8.6.8 1 1.8 2.6 1.8 3 0 .2-.2.4-.5.4-.6 0-.7.3-.2.7.2.3.2.4 0 .7-.2.3-.3.7-.2 1 .1.7 0 1.3-.6 1.3-.2 0-.3.2-.3.5v1c-.5.6.2 2.2 1 2.5.9.2 1 .5.5 1-.2.2 0 .4.6.7.5.3.8.6.7.9 0 .3.2.5.7.7.6.2.8.5.8.9s0 .5.8.5l1.1.1c.4.4 1.7.2 2.4-.2zm-2.4-11.4c-.3-.3-.1-.6.4-.6.3 0 .5.1.5.4 0 .4-.5.5-.9.2zm31 11c.6-.6.6-.7.2-1-.5-.5-.8-.2-1 .7-.1 1 0 1 .8.2zM79 113.5l.5-2.4c0-.4-2.2-1.5-2.3-1.1l.5 2.9.5 2.8c0 .6.3-.4.8-2.2zm60 .6c0-.4.2-1.1.5-1.8.4-1.3.4-1.3 0-1.3-.2 0-.5.3-.6.5 0 .3-.3.6-.5.7-.5.2-.5 1.5 0 2.3.3.6.7.4.7-.4zm-120-.7c.2-1.6 1.4-4.7 2.2-5.8.4-.4.6-.9.6-1-.2-.2-2.1.9-2.8 1.6-.3.3-.7 1.1-.8 1.8-.3 1.3-.4 4.3-.1 4.6.4.4.7-.1.9-1.2zm29.6-.3.2-.8c-.1-.3-2.6-.6-2.6-.3 0 .4.5 1 1 1.3 1 .5 1 .4 1.4-.2zm47.6-1.1c0-.3-.2-.4-.4-.4s-.5.1-.7.4c-.2.3-.2.3.4.3.4 0 .7-.1.7-.3zm-50.6-1c1.4-.8 1.5-1.1.5-2.6s-1.7-2-2-1.2l-.7.4c-.5 0-1.4 1-1.4 1.6 0 .6 1 1.7 1.7 1.9.9.2 1.2.2 2-.2zm93.3-1.2.6-.7.4.6c.2.3.5.5.7.5.5 0-.4-1-1-1.2-.7-.2-1.6.4-1.6 1 0 .7.2.6 1-.2zm-11.7-2.3c.4-1 1-3.2 1.1-4.8a201.2 201.2 0 0 1 2.5-13c.3-.6.6-1.9.7-3l.1-2-.4 1.3-1 3.5-1 4.7a163.5 163.5 0 0 0-3.1 14.9c0 .8.4.2 1.1-1.6zm-47 .3c.3-.5.6-2.3.4-2.5-.1 0-.4 0-.5.3-.4.4-1.4.5-1.7.2l.2-1c.5-1 .3-1.8-.5-2.4-.9-.5-1-.1-.7 1.5l.3 2.1c0 1 .4 1.6 1.3 2 .7.2 1 .1 1.2-.2zm-38.9-1.3c.9-.3 2.3-.6 3.2-.6 1.5 0 1.6-.1 2-1l.6-.9-.7.5a3 3 0 0 1-1 .4c-.4 0-.3-.7.1-.8.2-.1.7-.8 1-1.7.9-1.5 1.1-1.7 1.5-1 .2.4.3.3.4-.6.1-.5.4-1.2.7-1.4.3-.2.6-.9.6-1.5.3-1.4-.1-1.7-1.9-1.7-2 0-3.3.6-4.3 2.2-.4.7-1.4 2-2.1 2.8-1.6 1.8-2.2 3-2.1 4.3 0 1 .2 1.6.4 1.6l1.6-.6zm40.3-4.3c0-.7-.1-1-.5-1.1-.3 0-.7-.5-1-1-.3-.8-.8-1-.8-.4 0 .2.2.8.6 1.3l.9 1.6c.4 1 .8.7.8-.4zm7.4-6c.3-.1.6-.5.7-.7 0-.2.4-.3.8-.3.5 0 .7-.2.7-.5s.3-.9.8-1.4c.4-.5.8-1.2.8-1.5 0-.3 0-.7.2-.7.2-.1.3-.8.2-1.5 0-.7.2-1.5.3-1.8.3-.6.9-5 .7-5.4l.1-.7c.4-.6-.1-3.7-.8-5.4-.6-1.3-1-1.5-3.2-2-1.2-.4-1.3-.3-2.5.3-1.3.8-3.2 2.5-3.2 2.9 0 0 .1.2.3.2.6 0 .5.4 0 .8-.4.2-.6.2-.7 0-.2-.7-1 .4-.8 1 .2.7.8.7 1.7 0 .7-.5 1.4-.6 1.7-.3 0 .2-.3.6-.8 1-.7.6-1 1-1 1.8-.2.7 0 1 .2 1l.4-.2c0-.2.5-.5 1-.8 1-.6 1.1-.6 1.3-.2.2.6-.4 1.7-1.2 2-.6.3-1 1.1-.7 1.6.1.1.5.2 1 0 1.3-.2 1.3 1.2-.1 2-.7.3-1.8 1.7-1.8 2.2l1.7.5c1.4.3 1.8.5 2.2 1.1.2.4.6.8.9.8.5 0 1 .6.8.9-.4.4-1.5.1-2-.5-.5-.5-1-.7-2.2-.8h-1.7l.7 1c.7 1 1.4 1.2 1.9.7.2-.3.5-.3 1 0 .7.3.9.7.3 1-.2 0-.3.3-.3.5.3.6-.7.7-1.5.3-1-.6-1.3-.6-1.3 0 0 .2.3.3.9.3.8 0 .8 0 .3.5l-1 .8c-.5.2-.3.3 1 .1.9 0 1.8-.3 2.2-.5zm-.6-6.3.1-.4c.4-.3 2.4 0 2.3.4-.2.3-2.2.3-2.4 0zM90 88c-.3-.4 0-.7.8-.6.6.1 1 .6.4.6-.1 0-.4 0-.6.2-.3 0-.5 0-.6-.2zm-1.2-2.4c0-.1.3-.4.8-.6.8-.5 1-1.1.8-3 0-.4 0-.6.3-.5.2 0 .4.6.4 1.3 0 1.1.2 1.2.7 1.2.4 0 .7.1.7.2 0 .4-.6.9-1.2.9-.3 0-.8.2-1 .4-.7.4-1.5.5-1.5.1zM89 81c0-.2.4-.4.8-.5.4 0 .9-.4 1-.7.5-.9 1-1 1-.4 0 .9-1.1 2-2 2-.6 0-.9-.2-.8-.4zm-2-3.3c.4-.7 1.8-2.2 2-2.2.5 0 .1.8-.8 1.7-1 1-1.5 1.2-1.1.5zm-2.3 19c0-.2-.1-.3-.2-.3-.2 0-.3.1-.3.3 0 .1.1.2.3.2.1 0 .2 0 .2-.2zM60.1 96a4 4 0 0 1 1.8-.4l.6-.1c.1-.2.2-.2.3 0 .2.2.5.2 1 .1.7-.2.8-.5.2-.7-.7-.3-.2-.8.6-.8 1.6.2 2.6-1 1.6-1.8-.7-.5-.6-1.8.1-2 .5-.1.5-.3.4-.8l-.2-2.2c.1-2.7-.9-5-2.1-5-.9 0-2.7-1-4-1.9-.8-.7-1-.8-1.4-.5-.2.2-.5.3-.5.2l.1-2.5c.3-2.2.2-2.6-.4-4.9l-.6-3.2c0-.9-.8-2.3-1.3-2.3-.4 0-2 2-2.7 3.4-.8 1.6-1.6 4.9-1.6 6.4 0 .7.3 1.9.8 3 1.3 3 1.4 5 .2 3.3-.3-.3-.5-.5-.6-.4l-.3 2.5c-.2 5-.2 5.4.5 7 .6 1.3 1.5 2.2 1.5 1.5 0-.6 1.9-1 4.1-1a7 7 0 0 1 2.4.2c0 .1 0 .6-.3 1-.3.7-.6.9-1.2.9-.4 0-1.3.1-1.8.3l-1 .3.7.5c1 .6 1.6.6 3.1 0zm-1.8-6.2c-.5-.1-.7-.4-1.2-2.1a7 7 0 0 1-.5-2.2s.8-.2 1.7-.2c1.1-.1 1.6 0 1.9.3.4.5 1.6 3.6 1.4 3.8l-.7.2c-.3 0-.9 0-1.2.2h-1.4zm1.6-1.6h-.5c-.2 0-.2.1.1.1h.4zm-.5-1.7-.2-.2c-.2 0-.3 0-.3.2s.1.3.3.3c.1 0 .2-.1.2-.3zm-4.2-6c-.8-1.1-.7-1.8.4-3.4.9-1.3 1-1.6 1-3.2.1-2.2 0-2 .6-1.7.5.5.5 2.2 0 4.4l-.7 3.2c-.2 1.5-.5 1.7-1.3.7zM57 94.6l1.8-.4c.5 0 .7-.1.6-.3-.2-.2-.7-.3-1.8-.1-1.6.1-2.6.6-2.6 1.1 0 .4.2.4 2-.3zm-23.1-.8.9-.4-1.1-.2c-1.2-.4-2-.2-2 .3 0 .8.8.9 2.2.3zm42.2-.2c-.1-.4-2.8-1-3.4-.8-.8.2-.5.6.5.6.6 0 1.3.1 1.7.3 1 .3 1.3.3 1.2 0zm-37.7-.3c.5-.7 0-.8-.6-.2-.5.4-.5.6-.2.6l.8-.4zm42.9-2c0-1 .5-.7.7.3.2.8.2.8.4.2.6-2.3 1-5.3 1.3-8.6 0-1-.5-2.5-1-2.5l-.9-.8c-1-1-1.9-1.2-3.1-.7l-1 .5.9.4c1.2.6 2.2 2.3 2 3.4-.3 1-.4 3-.4 5 0 1-.2 2-.3 2.1-.3.3-.2.4.2.4.5 0 .6.2.6.7 0 .9.4.5.6-.4zm-45 .4c1.1-.6 2.5-2.4 2.7-3.4.2-1.2 0-1.7-.6-1.2s-.9-.1-.5-1.6c.3-1.3.8-1.7.8-.6 0 .3.2.5.3.5.2 0 .2-.3.2-.5v-2c0-.8-.2-1.9-.3-2.3l-.3-.8-.8 1.1c-.4.6-1 1.1-1.2 1.1l-2.4-1-2.1-1 1 1c1.5 1 1.8 1.3 1.8 1.6 0 .4-.9.2-1.4-.3a16 16 0 0 0-3.5-2.1c-.7-.3-1.2-.7-1.3-.8-.1-.2-.6-.3-1-.3-.9 0-1-.1-1.3-1l-.7-1.6a9 9 0 0 1-1-4.5l.2-1.2-1.1 2-1.2 2.2v4.4c0 3.8 0 4.4.5 4.8.2.3.6.5.8.5 1.3 0 4 2 6.4 4.7.8 1 1.9 2 2.3 2.2 1 .5 3 .6 3.8.1zM97 91c1.6-.7 3.2-2.2 3-2.5-.3-.2-2.6.3-4 1-.8.2-1.4 1.2-1.1 2 .2.5.3.4 2-.5zM78 89.7l1.2-1.6-.4-1.7c-.5-2.3-1.7-4.5-2.4-4.6-.8-.1-1.6.7-2.4 2.2-.5 1-.6 1.4-.4 3 .2 1.7.2 1.8 1.5 3l1.6 1.3s.7-.7 1.3-1.6zM63 78.7c2-4 2.6-7.9 1.4-10.5-.3-.8-.8-1.5-1-1.6-.2 0-1 .6-2 1.5-1.9 2-2.4 3.4-2 5.3.2.7.4 2 .4 3.2v2l1 .4c.4.2 1 .5 1 .7.3.4.6.2 1.2-1zm70.6-4c0-1.4-.4.2-.6 2.2l-.1 1.8.3-1.7.4-2.4zm-111-1.2c.2-.3.4-.9.4-1.3 0-.6 1.1-2 1.6-2 .1 0 .3-.4.3-.8 0-.6-.2-.9-.6-1-.2 0-.5-.4-.5-.7-.1-.5-.3-.7-1-.7-1.4-.2-1.8 1.3-.9 3.1.5 1 .5 1.1.2 1.8-.7 1.3-.8 2.2-.3 2.2.2 0 .6-.3.8-.6zm1.1-3.8c-.3-.3-.2-1 .2-1 .3 0 .4.3.4.6 0 .5-.3.7-.6.4zm111-.4c0-1.1-.5.2-.7 1.9l-.1 1.4.3-1.3.4-2zm.1-1.6c0-.2-.1-.2-.1.1 0 .3 0 .5.1.4v-.5zm.6-3c-.1-.1-.2 0-.2.2 0 .3 0 .5.1.4v-.5zm.2-1.5-.1.3c0 .4 0 .5.1.3v-.6zm-23-44.4.1-1.2-.4.8c-.5 1-.5 2.2-.1 1.8l.4-1.4zm113.2 115.6c-2.3-.2-3-.5-2.6-1 .1-.3 1-.3 3-.2 4 .2 5 .4 5 .8 0 .7-1.1.8-5.4.4zm-.8-2.1c-.3-.4.4-.8 1.4-.8 1 0 1.4.5.8.8-.5.3-2 .3-2.2 0zm-3.1-4.2c-.3-.4.8-.9 1.6-.7.3 0 .6.3.5.5-.1.4-2 .5-2.1.2zm10.9-1.5v-5.1c0-1-.1-1.1-.6-1l-3.6.3c-2.4 0-3.5.2-4.8.6-1 .4-2 .6-2 .5-.3-.3.7-1.2 2-1.8 1-.5 1.7-.6 4.8-.6 4.8 0 4.7-.1 4.7 4.3 0 3.4-.3 5.2-.5 2.8zm-15.5-.7c-.6-.6-.4-1.2.6-2.2 1.3-1.3 2.4-1.9 2.9-1.4l.4.5c0 .2-3 3.2-3.4 3.3-.1 0-.4 0-.5-.2zm-54.3-10.3c0-.1 0-.2.2-.2s.3 0 .3.2-.1.3-.3.3a.3.3 0 0 1-.2-.3zM58.8 114a48.9 48.9 0 0 1 .1-8.8c.6-.1.8 1.1.9 5.6 0 3 0 3.5-.4 3.5-.3 0-.5 0-.6-.3zm114.9-2.7c-1.4-.8-1.7-.9-3.2-.8-1 0-2.3.3-3 .5-1.4.4-4.2 0-8-.9-2.2-.5-6-.7-10-.4-.8 0-1.2-.3-.6-.6l1.8-.4 1.5-.2-.1-1.2c-.2-1.1.5-5.6 1-6.9.3-.8 1-.6.9.4l-.5 4c-.3 2-.4 3.4-.3 3.5.2.2 1.5.3 3 .4 1.4 0 2.8.2 3.1.3a27 27 0 0 0 7.6.9l3.2-.4 2.4-.2 1.4 1 1.6 1 1-.6c.8-.7.4-.7 8.8-.5 5.4.1 6.2.2 5.8.7-.3.3-7.5.5-9.3.3-2.7-.4-3.9-.3-5 .4l-1.4.7c-.1 0-1-.4-1.7-1zM9 109.5c-2.3-.8-2.4-1.2-1.1-2.3l.8-.8-.7-1-.7-1-.7-1.2-.9-2.7c-.2-1.7-1-4.1-1.7-5-.5-.7-.5-2.2-.1-3.5 1-3.3 1.3-3.7 2.4-2.8l.7.5.6-.9c.4-.4.8-1.2.9-1.8.2-1.2 1.3-4 3.3-8.3.8-1.7.8-1.9.5-2.9l-.8-2c-.3-.6-.5-1.3-.5-1.6 0-1 1.2-3.2 2.2-4.2.8-.7 1.1-.8 1.7-.7 1.5.3 2.1 1.5 2.4 4.2 0 1.6 0 2.1-.3 2.8-.4.8-.5 1.8-.6 5l-.2 5.2c-.2 1 0 1.4.6 2.5.5.6.8 1.3.8 1.5l.5.8c.3.3 1 1.3 1.4 2.2.7 1.5.8 1.8.6 3.2 0 .8-.3 2-.5 2.7-.2.6-.5 2-.5 3.1-.1 1.3-.3 2.2-.6 2.5-.3.3-.4.7-.2 1.3.1.8 0 1.1-.7 2-1 1-1 1-3.6.4-.6-.1-.7 0-.4.2.4.5.4 1.3-.1 1.5-.2 0-.6.5-.8.9-.5 1-1.3 1-3.7.2zm3-1.4c.7-.7.7-1 .1-1-.7 0-1.6-.7-1.6-1.2 0-.6-.8-1.4-1.4-1.4-.5 0-.4 0 .2 1 .7 1 .9 2.2.3 2.2-1.2-.2-1.3.4-.1.7 1.4.5 2 .4 2.6-.3zm4.5-2.5c.3-.5.3-.6 0-.6-.5 0-1.3.7-1 1 .2.2.7.1 1-.4zm.5-2.5c.8-.8.9-.9.9-2.9a8 8 0 0 1 .6-3.6c1-2.4 1-3.2-.8-6l-1.4-2.7c0-.2-.2-.4-.5-.6-.7-.3-.7-2-.3-5.5l.2-2.4-.7.1-1.5.2-1-.1-1 2c-1.3 2.9-2 5.3-2 6.4 0 .7-.2 1-.6 1-.7.3-1.8 2.2-2.4 4.3-.4 1.4-.4 1.8 0 3 .5 2 .6 2.7.3 2.7-.4 0-.4 1.3 0 2.4.7 1.4 2.6 2.4 5.4 2.8.7 0 1.5.2 1.7.3.5.3 2.1-.4 3.1-1.4zm-11.6-9c0-.4.2-1.3.5-2 .6-1 .6-1.9 0-1.9-.3 0-.5.2-.6.4a13 13 0 0 0-.5 4c.3.7.7.4.6-.5zm9.2-15.6c.2-.2.4-1.1.6-2.1.3-1.5.3-2 0-2-.5-.4-1-.4-1.2 0-.2.3-.6.3-.6-.2 0-.2.3-.6.7-.9.7-.6 1.4-.4 1.4.5 0 .3.1.2.4-.2.4-.8.3-3.6-.1-4.5-.5-1-2.3-.5-3 .8-.2.4-.2.6.2.8.6.5.4 1.4-.4 1.3-.7 0-.7.2.2 1.9.5 1 .7 1.7.7 3.2 0 1.4 0 1.7.4 1.7.3 0 .6-.1.7-.3zm118.6 29c0-.2.2-.3.3-.2l.3.4-.3.3c-.1 0-.3-.2-.3-.5zm25.6-2.2c-.3-.5 0-.6 1.5-.7l2.8-.2c1.1-.2 1.4-.1 1.4.2 0 .2-.3.5-.6.7-.6.4-5 .4-5.1 0zm16-1.1c0-.6.2-.6 4.6-1.3 4.6-.6 13.7-.6 16.4.1 2 .5 4.5.6 5.4 0 1-.4 3.8-.8 10.8-1.5 1.5-.2 1.7-.2 1.7.3s-.3.6-3.1.8c-4.9.5-8 1-9.2 1.5-1.4.5-4.7.5-6.4 0-.7-.2-2.2-.5-3.2-.5-1.8-.2-2-.2-2.5.3-.6.7-1.3.8-1.5.1 0-.4-.4-.4-3-.3-1.7 0-3.8.1-4.9.3-4.3.6-5.1.6-5.1.2zm39.8-1.4c-.2-.5.1-1.2.5-1.2.2 0 .4.2.5.4.2.5 0 1.2-.5 1.2-.2 0-.4-.2-.5-.4zm6.2-.6c-2.5-.2-1.5-1.1 1.2-1.1 1.5 0 2 .2 1.4.7-.5.4-1.3.5-2.6.4zm-74-.4c-.1-.1-.2-.7 0-1.5l.2-2.3c0-1.1.4-1.7.8-1.3.1.2.2 1.4 0 2.7 0 2.4-.4 3-1 2.4zm22.3-5.4-4.8-.3c-5.5-.1-6.5-.3-7-1.3s-1.4-2.3-1.7-2.5a9 9 0 0 0-2.5-.2c-2.1 0-3-.2-2.5-.8 0-.2.5-.3.9-.3s.8 0 1-.2c.3-.4 2.2-.6 2.2-.3 0 .2.5.3 1.6.2 1.6-.2 1.7-.1 2.6.6l.9.7-.6.8c-1.4 1.7-.8 2 6.4 2.3 8.7.4 9.5.5 9 1.2-.1.3-5.2.4-5.5.1zm38.9-8.3c-.3-.4 0-.7 1.2-.9 1-.2 2.3.2 2 .6-.5.4-3 .6-3.2.3zm-11.8-1.8c-3.9-.3-4.8-.5-4.7-1 0-.3.3-.5.6-.4l4 .3c3.4.1 4.4.4 4 1-.1.2-.4.3-.5.3l-3.4-.2zm-26-6.3c-2-.4-5.7-.9-7.5-.9-1.3 0-1.4 0-1.4-.5 0-.6.1-.6 2.4-.6h3.3l3 .4c1.2.2 3 .5 4 .5 1.7.1 1.8.1 2-.5v-1.1c-.2-.7.2-1.8.9-2.2.8-.4 1.6.1 1.6 1.2 0 .8 0 1 .6 1.1h1.4c1.8-.5 2.7-.4 4.5.1 1.5.5 2.6.6 6.5.7 2.6 0 4.8.1 5 .2l.2.5c0 .3-1.1.4-5.3.3-4.7 0-5.4-.1-7-.7-1.5-.5-1.8-.5-2.5-.2a6 6 0 0 1-3.7 0c-.4-.2-.6-.1-.9.3l-.4 1c0 .6-4.4 1-6.8.4zm7.2-3.5-.1-.3-.3.3.1.2c.2 0 .3 0 .3-.2zm-28.2.7.3-.5c.3-.2 1.1-.3 3.2-.1 2.5.1 2.9 0 4.5-.6 2-.7 3-.7 3.9.1 1 1 .3 1.7-1.2 1a50.7 50.7 0 0 1-10.7 0zm-71.9-2.5c0-1.5 0-2.8-.2-3.7l-.4-1.3-1.9-.1c-1.9-.1-2.4-.4-2-.8.3-.3 4.6-.4 4.9-.1.3.4.8 3 .8 4.8 0 2-.4 3.5-1 3.5-.2 0-.3-.6-.2-2.3zm66.7 2 .2-.2.1.2c0 .2 0 .3-.2.3s-.2-.1-.1-.3zm-111.6-1c0-.2.2-.4.4-.5.4-.2 11-.6 11.3-.4v.6c-.2.3-1.2.4-6 .4a37 37 0 0 1-5.7-.1zm110.4-.3c0-.1.1-.3.4-.3.2 0 .3.2.2.3 0 .2-.3.3-.4.3-.1 0-.2-.1-.2-.3zM.3 70c-.3-.6.7-1 5.4-1.9 1.7-.3 2.7-.3 2.7 0 0 .4-.4.5-3.1 1l-3.4.8c-.9.4-1.4.4-1.6 0zm182 0-2-.2a381 381 0 0 1-16.6-1.3c-.5-.1-.9-.3-1-.6-.2-.7-2.3-1.1-4.7-1-1 0-2.1-.2-2.5-.3-.3-.2-1.6-.4-3-.4-2 0-2.4 0-2.3-.4 0-.4.6-.5 5-.4l6.2.2c1.7.2 1.9 0 1.5-1.7-.3-1-.3-1.4 0-2.3.5-1 .4-1.5-.6-1.8-.3-.1-.5-.4-.5-.7 0-.4-.3-.5-1.9-.6l-5.5-.2c-3 0-3.8 0-4-.3-.2-.3-1-.4-3.9-.4-4.5 0-5-.4-.8-.6a80 80 0 0 1 15 .4c3.1.2 3.3.3 3.1 1.2 0 .5 0 1 .2 1.2.2.3.2.7 0 1.8a5.5 5.5 0 0 0 0 3.2c.4 1.5.4 1.8 0 1.9-.2 0-.3.3-.3.5 0 .6 1.6.8 8 1.2 9 .4 12.3.8 12.5 1.5.1.3-1.5.5-1.8.2zm-29.6-.6c-.3-.5.2-.8 1.6-.8 1 0 1.4.1 1.4.4 0 .2-.1.4-.3.5-1.6.1-2.6.1-2.7-.1zM40 65c-.1-1.8-.4-3.9-.6-4.7l-.5-4-.2-3.1c-.1-.7.2-1.6.4-1.3a97.4 97.4 0 0 1 1.4 16.4c-.3 0-.4-.8-.5-3.3zM0 67c-.3-.6 2.4-1.6 4.9-1.7 1.3-.1 1.3.5 0 .7l-2.7.7c-2 .6-2 .6-2.2.3zm28.7-1-.2-3a62 62 0 0 0-.3-5.3c-.3-2.6-.2-3.6.3-3.4.2 0 .4 1.1.5 2.7l.4 5.6c.2 2.5.1 3-.2 3.2-.2.2-.5.3-.5.2zm5.3-.5-.2-6.4c0-5 0-5.9.3-6.2.3-.2.4-.3.5-.2a1825 1825 0 0 1 .3 12.3c.2 1 .2 1.1-.2 1.1-.2 0-.5-.2-.7-.6zM44 63l-.5-6.1-.5-12.2c-.2-5.1-.4-9.5-.6-9.9-.3-1-1-.7-1 .5-.1 1.5-.8 1.7-.8.3 0-.6 0-1.1-.2-1.2-.2-.1-.3.4-.3 1.3 0 1.4 0 1.5-.5 1.4-.3-.1-.6 0-.7.2-.3.8-.6 0-.7-1.4 0-1.5-.4-1.8-.6-.7-.3 1.2-.4 1.4-.7 1.4-.1 0-.2-.2-.2-.5 0-.5-.5-1-.9-1-.1 0-.2.2-.2.5s-.1.5-.3.4c-.2 0-.4-.4-.4-.7 0-1-.7-.9-.8 0-.1 1-.5 1-.8.2-.1-.5-.2-.5-.4-.1-.3.5-.7.6-.7 0 0-.2-.2-.4-.3-.4-.1 0-.3.3-.3.7 0 .4 0 .6-.2.6-.1 0-.3-.2-.4-.6-.2-.9-.7-.9-.7 0 0 .5-.1.6-1 .7-1 0-1.2 0-1.6-.6-.8-1-1.4-1-1.4 0 0 .8 0 .8-1 .8-.8-.1-1-.2-1-.7 0-.5-.3-.6-.7-.6-.5.1-.6.3-.6 1.6l.1 3 .2 1.6 1.3.2c1.2 0 2 .5 1.6.8-.2.1-7.8.3-9.3.2-.2 0-.3-.2-.3-.4 0-.3.2-.4.8-.4h.9l-.3-3-.3-3h-1.9c-1.6 0-1.9-.2-1.9-.6 0-.4.3-.4 2.6-.4a221.2 221.2 0 0 1 23.7-1.3c1.4 0 2.6-.2 2.8-.3.3-.3 1-5.3 1.5-12.4.2-1.8.4-2.6.8-2.2.2.2-.4 8.5-.8 11.4-.6 3.4-.6 3.3.2 3.3.4 0 .7.2.7.3 0 .1-.3.3-.7.3-.4 0-.7.2-.9.6-.3.8-.2 6.3.3 15.4a455.2 455.2 0 0 1 .4 16.2c-.3 0-.4-.6-.5-3.2zM20.5 41.6c.4 0 .6-.3.5-.6-.2-.6.2-1.2.6-1l.2.9c0 .3.2.6.3.6.3 0 .3-.4.2-1.3l-.2-3c0-1.7 0-1.7-.8-1.7-1.4 0-1.5 0-1.4 2.6.1 1.6 0 2.4-.1 2.4-.5 0-.6-.5-.7-2.5l-.2-2.2c-.4-.2 0 4.4.3 5.4.3.7.3.7 1.3.4zm0-3c-.3-1-.3-1.9 0-2.4.4-.6 1 .5 1 1.8 0 1.2-.8 1.6-1 .6zm18.8-3.1c0-.8-.1-1.1-.4-1.1-.3 0-.3.2 0 1 0 .6.3 1.1.3 1.1l.1-1zm-13.8.1s0-.2-.2-.3l-.3.1c0 .2.1.3.3.3l.2-.1zm112.8 29.8c-.7-.5 0-.8 2-.8l2.2-.2c.2 0 .3 0 .4.3.1.3 0 .5-.2.7-.4.3-4 .3-4.4 0zm-114.5-.6c-.2-1 0-3 .3-3 .3.1.5 3 .2 3.4-.2.1-.4 0-.5-.4zm143.5-.2c-1.3 0-1.8-.2-1.8-.4 0-.9 3.2-1.1 4.2-.4.5.4.4 1-.2 1l-2.2-.2zm3.3-1.5c-.2-.6.4-1 1.8-1 7.8 0 12.5 0 12.6.2l-.1.5c-.3.2-1.5.3-4.6.2-7-.2-8.5-.2-8.6.2-.2.4-.9.4-1-.1zm-160-2.7c-.2-.3-.4-2-.5-4a41.3 41.3 0 0 0-.4-5.9c.4-.2 9-.2 9.4 0 .2.2.2.7-.1 1.9-.4 1.3-.4 1.9 0 4.4.2 2.3.2 2.8-.1 3-.6.4-1-.5-1-2.2 0-1-.1-1.5-.3-1.4-.1.1-.3.4-.3.8 0 .3 0 .7-.2 1-.5.7-.8-.4-.8-2.8 0-2.9.1-3 1-3.4.9-.3.5-.6-.9-.7h-1.2v1.6c0 .8 0 1.5-.2 1.5-.4 0-.6-.7-.6-1.8 0-1 0-1-.9-1h-.9l.2 1.3c.2 1.8.3 2 .3.5 0-.8.1-1 .4-1 .3 0 .4.3.4 1.4 0 .8-.1 1.5-.3 1.6-.1 0-.2 0-.2-.3s-.1-.4-.2-.2c-.3.7-.8.3-1.3-.9a8 8 0 0 1-.4-1.7c0-.3-.2-.5-.4-.5-.4 0-.4.3-.3 2 .5 6 .5 7.3.2 7.3l-.5-.5zm7.3-6.9c0-.8-.1-.9-.3-.5-.3.8-.3 1.5 0 1.5.2 0 .3-.4.3-1zm41 6.9c-.7 0-1-.2-1-.5 0-.6 2.4-.4 2.5.2 0 .3 0 .5-.2.4l-1.4-.1zm114-1c-.2-.1-.2-.5-.2-.8 0-.7 0-.7 3-.7l5.8-.1c2.5-.2 2.6-.2 2.5.3-.1.7-2 1-6.5.8-2.5 0-3.6 0-3.8.3-.4.4-.6.4-.9.2zm-125.7-1V57A81.7 81.7 0 0 0 46 44.6l-.4-3.3c-.2-1.8-.1-2.4.2-2.1a77.2 77.2 0 0 1 1.7 19.5c-.1 0-.3-.1-.3-.3zm27-2.3-3.4-.2c-1.8 0-2.3 0-2.3-.4 0-.5 3.2-.6 7.2-.2 2.2.2 3.5.2 4.3 0a4 4 0 0 1 1.5 0c.6.1.5.7-.2.9-.8.2-5.6.1-7-.1zm95.4-1c-.3-.7 1.9-1.1 5.2-1.2 2 0 3 .3 2.7 1-.1.3-7.7.5-7.9.1zm-80.8-1.2c-.6-1.7-.1-7.6.6-7.3.1 0 .3 1.9.3 4 0 3.1 0 3.9-.3 3.9-.2 0-.5-.3-.6-.6zm-40.3-1-.3-2.9-.8-11.5c0-.6.1-1 .2-1.1.2 0 .3.7.4 1.7l.4 5.2c.6 5.5.8 8.2.5 8.8-.3.4-.3.4-.4-.2zm27.6.3-2.8-.5-2.8-.5c-2-.2-2.8-.4-3.5-1.1-.5-.4-1.2-.6-3.3-.7-3.3-.2-4.2-.4-4.2-1s-.1-.7 3.8 0c3 .5 4 .5 4.4 0 .2 0 .4-1.2.6-2.3.3-2 .7-3 1-2.6.2.2-.3 4-.7 5.2-.1.4-.3.8-.5.8-.1 0-.2.1-.2.3a33 33 0 0 0 8.9 1.5c2 .2 2.8.5 2.2.9-.4.3-.5.3-3 0zm40.5-.3c0-.1.2-.2.5-.2s.5 0 .5.2-.2.3-.5.3-.5-.1-.5-.3zm-71.3-.8c-.1 0 0-.3 0-.4.2 0 .4 0 .4.3 0 .4-.2.5-.4.1zm-32-2.9c0-.4 1.9-.8 3.8-.8 1.4 0 1.8.1 1.8.4 0 .5-.4.6-3.2.7-1.4 0-2.3-.1-2.3-.3zm31.4-1.8a39.8 39.8 0 0 1-.4-9.6c.2 0 .3.7.3 2 0 1.1.1 3.1.3 4.5l.2 3.5-.1 1zm75.9 1.1c-.2 0-.3-.3-.3-.5 0-.3.2-.4 1-.3.6 0 1 .2 1 .5 0 .4-1 .6-1.7.3zm-7.5-.5c-.1 0-2-.3-4.2-.4-4-.2-5-.5-4.4-1 .2-.2 1.5-.2 3.7.1 5 .6 7.7.5 9.6-.2 1.6-.5 1.6-.5 1.7-1.6 0-.6.3-1.1.4-1.2.3 0 .4.4.4 1.5 0 1.5 0 1.6-.7 1.6-.3 0-.7.2-.9.4-.2.2-1.1.4-2.5.5l-2.6.3h-.5zm15-.5c-.4-.4-.1-.6 1-.8 1-.2 2.3-1.2 2.6-2 .2-.6.7 0 .7.9 0 .7 0 .9-1.1 1.3-1.4.6-2.9.8-3.2.6zm5.9-.6c-.5-.5-.2-.8.9-.7.8 0 1.1.1 1.1.4 0 .4-1.7.7-2 .3zm28.4-1.1c.1-.4 0-.6-.3-.7l-5.4-.2-5.3-.3c-.7-.5.5-.7 3.9-.7 5.4 0 5.1 0 5.3-.5.3-.7 1.2-.7 1.5.1.3.7.3.7 4 .6h3.6l-.1-4.6c0-2.6-.2-5.4-.3-6.3 0-1.7.1-2.3.7-1.6.4.4.8 4.9.9 9.1v3.4h3.9c2.6 0 3.8 0 3.9.3 0 .1 0 .3-.2.4 0 0-2.5.2-5.4.2a33 33 0 0 0-5.4.3c0 .1-.7.2-1.5 0-1.3 0-1.4 0-1.5.4-.2.5-.4.6-1.3.6-1 0-1.1 0-1-.5zm-73-.5a1 1 0 0 0-.7-.7c-.5-.2-.5-1 0-1.1.3 0 .8.2 1.2.6.6.5.7.7.5 1.1-.4.7-.8.7-1 0zm53.8-.7c-.5-.5-.9-4-.5-4.5.4-.3 1 .2 1.2 1 .1 1 .8.7 1-.4.1-.6.5-1.4.8-1.9.6-.7.6-.8.1-1.1-.6-.5-.4-1.3.4-1.4.4 0 .8-.3.9-.5 0-.2.6-.4 1-.5.6 0 1-.3 1.1-.5 0-.2.4-.4.7-.4.3 0 .5-.2.5-.4s.3-.8.7-1.3c1.2-1.6.8-4-1-6-1-1.3-1.3-2.5-.6-2.8.2 0 .6 0 .9.3.3.2.7.3 1 .2.4 0 .6 0 .6.3 0 .2.3.5.5.7.6.4.7.8.5 4.5-.2 2.9-.4 3.8-.9 4.2-.2.2-.3.6-.3.9 0 .4 0 .5.6.4.7-.2 3.6-2 3.6-2.3 0-.1.4-.2 1-.2s1-.2 1.4-.7c.7-.9.9-1.5.4-1.8-.2-.2-.4-.5-.4-.8 0-.6 0-.6.5 0s.6.6 1 .2c.3-.3.4-1 .4-3 0-1.8.2-2.6.4-2.7.2 0 .3-.4.3-.8 0-.8-.9-2.7-1.1-2.5-.3.3-1.8-.2-2.2-.8-.3-.5-.3-.7 0-1.4l.7-1c.2-.1.1-.4-.1-.6l-.6-1c-.1-.5-.4-.7-.8-.7-.8 0-1.1-.6-.7-1.1 1-1-.6-1.2-3-.3-1 .5-1.2.5-1.5.1-.4-.8-2-.6-3.4.4-.7.5-1.7 1-2.1 1a8 8 0 0 0-2 .6c-.7.4-1 .4-1.3.2-.2-.3-.2-.4 0-.5.6-.2.4-.6-.1-.6-.3 0-.8.2-1 .5a7 7 0 0 1-1.6 1c-1.6.8-2.2 2-1.5 2.9.2.2.4.7.4 1 0 .4 0 .4 1 0 .8-.3 1-.3 1.3 0 .3.2.8.3 1.3.2.8-.1 1 0 .8.3-.1.3 0 .5.8.7 1 .3 2 1.2 1.8 1.6-.3.4-1.4.3-1.8-.1-.1-.3-.6-.4-1-.4-.7 0-.8-.1-.7-.6.2-.6-.3-.7-1-.1-.6.4-.7.4-.9 0-.3-.5-1.4-.3-1.4.1 0 .3-1.3 0-1.8-.3-.2-.2-.3-.1-.3.2 0 .2.1.4.3.4.1 0 .2.1.2.3 0 .4 1.5 1.4 2 1.4.4 0 1.7 1.8 3 3.7.7 1.3 1.3 4.2 1.1 5.5a4 4 0 0 1-1 2c-1.1 1-1 1.4.3.7 1.1-.6 1.5-.4.9.4-.4.4-.4.7-.3 1.5.2.9.2 1-.4.8-.8-.3-1.4.3-1.2 1.3 0 .4 0 1.4-.2 2.1-.3 1-.5 1.3-1 1.4-.3 0-.6 0-.7-.4-.2-.5.4-3.5.9-4.2.4-.8.4-.9 0-.9-.6 0-1.6.6-2.8 1.6-1 1-1.5 1-3.7.3-1.3-.4-1.6-.5-1.7-.2-.1.3-.6.4-1.2.4-1.2 0-1.5-.5-.6-.7 1.2-.3.2-.9-1.5-.9-1 0-1.1-.3-.4-.7.4-.3.4-.4-.5-1.3-1-1-1.2-1.6-2-6.6 0-.6-.5-1.3-1.3-2.1-1.8-1.8-2.8-3.8-2.8-5.3 0-1.2.4-1.8 1-1.6l.6 1.2c.3.7.7 1.3.9 1.4l1.2.5c1.3.7 4.3.3 4.3-.6l-1.5-1.7c-1.1-1-1.4-1.5-1.2-1.7.3-.4 2.4 0 3.4.7l1 .3c.2-.1.8 0 1.4.2l1 .3.8-1.3c.6-1.1.7-1.4.4-2-.2-.5-.3-1-.2-1.4a1 1 0 0 0-.2-1c-.4-.4-.6-.5-1.4-.2-1.5.4-3 0-4.1-1.2-1.4-1.3-1.2-1.7.8-1.4a6 6 0 0 1 1.8.4c.3.3 2.4.6 2.8.4.3-.1.4-.4.3-.7-.1-.5 0-.5 1-.5l1.3-.1c0-.2-.7-.7-1.5-1.2-1.5-.8-2.2-1.7-1.8-2 0-.2.4-.1.7 0 .6.4.7 0 0-.4l-.3-.7c0-.3.2-.4.8-.2.8.2.8.1.6-.7 0-.6 0-.8.3-.8.2 0 .5.3.7.5.4.7.8.7.8 0s.5-1 .7-.2c0 .3.3.5.5.5.3 0 .4.3.3 1.5 0 1.3 0 1.7.5 2.5.4.6.8 1 1 1l1 .1a4 4 0 0 1 2 1.3c.5.5.5.6 1.1.1l1.3-.4c1 0 2.1-.7 3.9-2.3 1.8-1.7 3-2.3 3.5-1.9.3.2.6.2 1.2-.2.6-.2 1.2-.4 1.5-.3.6.1.6.1.2-.1a16 16 0 0 0-.9-.6c-.6-.4-.3-1 .4-1 .3 0 .5-.1.5-.4 0-.2.3-.4.6-.4.4 0 .5-.1.5-1.2 0-1.2 0-1.2-.4-.7-.6.8-1.7.8-2.5 0-.7-.8-1-.9-1.2-.3-.1.4-.2.4-.9 0-.4-.2-.9-.5-1-.8-.3-.2-.6-.4-1-.4-.3 0-.4.1-.2.5.5.8-.5 1.5-1.7 1.3-.9-.2-1-.2-.5.3.6.6.5 1-.1 1-.3 0-.7.3-.9.6-.4.7-1.2.7-1.5-.1-.3-.5-.2-.8.3-1.5.5-.8.5-.9.1-1-.3-.3-.4-.5-.3-1.1.2-.8.2-.8-.5-.5-.5.2-1 .7-1.4 1.1-.7.8-1.2.7-1 0 0-.5 0-.5-.4-.3-.8.6-.9 0-.2-1.4.7-1.5 1.2-2 1.6-1.6.2.2.2.4 0 .7a5 5 0 0 0-.6 1c-.2.8-.2.8.2.5l.8-1.3c.4-1 1.3-1.2 2-.4l.5.4c.2 0 .4.2.6.4.4.5 1.6.6 4.3.1 1-.2 2.1-.2 2.5-.1l1.7.2c.9 0 1 .1 1.3 1 .2.5.4.7.4.5 0-.4 1-.4 1.2 0 .1.2.6.5 1 .7.6.2 1 .5 1 .6 0 .1.1.3.3.3.5 0 1 1 1 2 0 .6 0 .6.3.4l.6-.3c.4 0 1 1.7.8 2.3-.1.3 0 .3.4-.2.5-.6.7-.6 2.7-.7 1.9 0 2.2 0 2.3-.4.2-.8 1.5-1.3 3.7-1.3a12.9 12.9 0 0 1 5 .8c1.1.3 1.5.8 1.8 2.4.1.9.3 1 1.4 1.6 5 2.3 6 3 7.4 5 .4.5 1 .9 1.6 1l1 .3 2-1.9c1.5-1.4 2.1-2.2 2.3-3 .4-1.4.5-1.5 1.8-2.2 2.1-1 3-1.2 4.3-.6 1.8.8 3.2 1 5.2 1l3 .3c.7.2 2 .3 2.8.3 1.4 0 3 .6 3 1 0 .2-.2.5-.5.8-.5.4-.6.4-2 0-3.8-1-5.7-1.3-6.8-1-1 .2-1.2.2-1.9-.2a7.8 7.8 0 0 0-4.1-1h-1.2c-.6-.6-2 .7-2.5 2.1-.3.8-1 1.8-1.7 2.6-.7.6-1.2 1.3-1.2 1.4 0 0 .6.5 1.3.8 1.4.7 1.9 1.3 1.4 1.8-.2.2-.6.1-1.3-.4-.8-.5-1.4-.6-3.1-.7h-2v2.6l.4 4c.1 1.3 0 1.6-.3 1.8-.7.2-1-.4-1-2.1a24 24 0 0 0-1-7.1 9 9 0 0 0-1.6-2c-1.4-1.3-6.1-3.7-6.7-3.5-.6.2-.5.6.2.8.6.2.5.8-.3 1-.4 0-.6.4-1 1.5-.8 3.4-.8 4.7.3 4.3.4-.1.6-.5.8-1.2 0-.6.3-1.3.5-1.5.3-.5.4-.5.7-.1.2.2.6 1.3.9 2.5l.7 2.6c.5 1.2.8 3.1.8 5.3 0 2.3 0 2.4.6 2.6 1 .2 1 .9-.1 2.4-.6.8-1.3 1.4-1.4 1.4-.9 0-1-.6-1-5.7 0-4.7-.3-7.6-.8-8.1-.3-.4-3.1 5.8-4 8.8-.2.7-.5 1.2-.8 1.3-.6.1-.6-1 0-3.3.7-2.3.7-2.8.5-4.7-.2-1.4 0-2.2 1-6.3 1.1-4.6 1.2-6 .5-7.2-.4-.7-5.5-1.6-6.3-1-.2 0-.4.4-.5.6 0 .3-.4.5-.6.5-.5 0-.5 0 0 .3s.6 1.5 0 1.5c-.2 0-.4 0-.5-.2 0-.2-.4-.2-.8-.1-1 .2-1.6 0-1.2-.6.4-.4-.1-.6-1.5-.6-.7 0-1.2.1-1.5.5a3 3 0 0 1-1.3.7c-1.5.4-1.6 1.1-1.6 11.6 0 10.7.1 13.3.7 15 .6 1.6.6 2.3 0 2.3-.4 0-.6-.3-.9-1.1l-.3-1.4c0-.1-.8-.3-1.6-.3h-1.6l-.8 1.7c-1 2-1.5 2.1-2 .3-.2-.7-.5-1.3-.7-1.3-.4 0-1 .7-1.6 1.6-.4.9-.6 1-1 .5-.3-.2-.3-.5 0-1.2l.2-1-1.4-.2c-1.5 0-3.3 1-4.5 2.4-.8.9-.9 1.3-.8 2.2 0 1.5-.3 2-1 1.6-.8-.5-.8-.5-.9.6 0 1.1-.5 1.4-1 .8zm-6.4-6c.3-.3.7-.5 1-.5.8 0 4.3-3.9 4.7-5.2l-.1-2.4c-.2-1.4-.5-2-1.2-2.7l-.8-1.1c0-.6-.7-1.6-1-1.6-.3 0-.8-.4-1.2-.9-.6-.9-2-1.7-2.9-1.7-.4 0-.5 0-.2.5l.2.6-.7.4c-.6.3-.7.3-1.6-.3-1-.8-1.3-.7-.7.2.5.7.5 2 0 2.2-.2 0-.4-.2-.5-.6-.2-.7-1-.9-1-.2 0 .2-.2.5-.6.8-.5.3-.8.3-1.8 0-.7-.1-1.3-.3-1.4-.5l-.4-.2c-.3 0-.3 0 0 .3.4.5.4.8-.3.8-.5 0-.5 0 0 .5.3.4.6.5 1.1.4.9-.2 2 .5 1.3.8-.5.2-.6 2-.2 2.8.1.2.4 1.3.5 2.4.4 3 2 4.7 4.6 4.7.5 0 1.2.2 1.5.5.8.7 1.1.7 1.7 0zm1-3c-.2-.8.9-2.5 2-3.2 1-.7 1-.2 0 .8-.7.8-.8 1-.5 1.5.3.4.2.6-.1 1-.7.7-1.2.7-1.4-.1zm-2.6-2.6c-1-1-1.1-1.5-.2-3.1.4-.7.7-1.5.7-1.9 0-1 .8-.8 1 .4.2.5.6 1 1 1.3.8.4.8 2.4 0 3-.3 0-.5.4-.5.7 0 .7-1 .5-2-.4zm0-7-.1-.8c0-.5.1-.5 1.2-.5 1.1 0 1.7.4 1.7 1.1 0 .3-2.5.4-2.7.2zm23.2 9.2-.3-.5c-.3-.6-.8 0-.8 1v1l.6-.7.5-.8zm-2.2 0c0-.2-.1-.3-.6-.2-.4 0-.8.2-.9.4 0 .3.1.3.6.3.4 0 .8-.3.9-.5zm5.1-.3c-.5-.6-2-1.3-2.3-1-.3.3.2 1.5.6 1.4.3 0 .8 0 1.2.2 1 .3 1 .3.5-.6zm-10.4-9.5c-.1-.3-.2-.2-.2.1 0 .3 0 .4.2.4v-.5zm27.8-4c0-.6 0-.6-.2-.1l-.3 1c0 .5 0 .5.3.2l.2-1zm-19.1-1.8-.7-.4c-.5 0-.5 0-.2.3.3.4 1.1.5.9.1zm1.2-.3-.3-.3c-.2 0-.3.2-.3.3 0 .2.1.3.3.3.1 0 .3-.1.3-.3zM138 15.7c0-.3-.8 0-.9.3-.1.3 0 .4.4.1.3-.1.5-.3.5-.4zm2-1.1s-.3 0-.5.2-.2.3.2.1c.2 0 .4-.2.3-.3zm-1.2-.5c.7-.2.7-.2-.1-.3-1-.2-2.3 0-2.1.3.1.2 1.3.3 2.2 0zm16-2.3a5.1 5.1 0 0 1 3.8-1l1.3.1.1-.9.4-1.3-.1-.5c-.2 0-.3.2-.4.5 0 .6-.6 1.4-1 1.4-.2 0-.3-.3-.2-.7.1-.4.2-.7 0-.7-.3 0-.9.4-.9.7 0 .2-.2.4-.5.4-.2 0-.5.2-.6.4-.1.2-.5.4-.9.4-.8 0-2.9 1.1-3 1.7-.3.6 1 .2 2-.5zM139.1 9c0-.3-.2-.5-.4-.5a.6.6 0 0 1-.5-.4c0-.1-.2-.2-.3-.1-.2.1 0 .5.4.9.7.8.8.8.8.1zM56 42.8c0-.2.3-.7.7-1.2.6-.7 1-.9 1.2-.8.4.2.4.3-.4 1.3-.9 1-1.5 1.3-1.5.7zm37.6.2c-.7-.4 0-.7 1.5-.7 2 0 3.2-.3 4-1.2.3-.5.6-.6 1-.5.6.2.3.7-1 1.6-.9.6-1.4.7-3.1.8h-2.4zM68 42.6c-.3-.5.4-1 1.4-1a6 6 0 0 0 1.9-.1c1.1-.3 1.7 0 .8.7-.8.5-3.8.8-4 .4zm12-.1c0-.5 1.4-.9 4.4-1A43 43 0 0 0 88 41c1.3-.2 1.8-.1 1.8.4 0 .2-.4.4-1 .5l-8.6 1-.1-.4zm30.7-.8c0-.3.5-.4 2.3-.5 1.4-.2 2.6-.4 3.2-.8 2-1 2.2-1 2.7 0 .3.7.4 1 0 1.2-.1.2-.3.2-.4 0-.4-.9-.5-.9-2.1-.4-.9.3-2.5.7-3.6.8-1.7.1-2 0-2-.3zm62.4-.9c-.9 0-1.2-.2-1.2-.5s.6-.3 3.4-.3c3.7 0 3.8-.1 3.2-1.4-.3-.4-.2-.7.1-1 .6-.7 1.2-.7 2 0 .6.6 1.3.6 3 0 1.3-.4 2.6-.3 2.6.4 0 .4-1 .7-3.8 1.2-1.2.2-1.8.4-1.8.6 0 .2-.3.6-.6.8-.6.4-3.4.5-6.9.2zm7-2.2-.3-.2c-.2 0-.2 0-.1.2 0 .2.2.3.2.3.1 0 .2-.1.2-.3zM67.4 40.4c-.3-.3-.1-.7.7-1.6C71 35 74 32.7 74 34c0 .2-.2.4-.5.5-.7.3-2.2 1.8-3.9 4L68 40.8c-.1 0-.4-.1-.5-.3zm-1.8-.9c-.5-.2-.5-1.1 0-1.1.6 0 1.2.3 1.2.5 0 .3-.8.7-1.2.6zm54.7-.2c0-1 3.3-2.5 4.3-2 .7.4.3.7-1.3 1a6 6 0 0 0-2 .8c-.9.7-1 .7-1 .2zm-29-1.7c-.3 0-.4-.5-.4-1.1 0-1 0-1-.5-.8-.3.2-.6.2-.7 0-.2-.3-.4-5.8-.1-5.8.3 0 .5.7.7 3 0 1.3.3 2.3.4 2.3.1 0 .2-1 .2-2.4s.1-2.4.3-2.4l.2 1c0 1.9.4 4.6.6 4.6.1 0 .2-.8.1-1.9 0-1.7.2-2.8.5-1.5l.8 3.6c.2.5.1.6-.3.6-.3 0-.6-.2-.8-.3-.3-.3-.3-.2-.3.3 0 .8-.3 1-.8.8zm-46-1.2c0-.7.2-1.2.4-1.2l.2 1-.2 1.2c-.2.1-.3-.3-.3-1zm69.7-.9c-1.2-1.3-1.8-2.4-1.1-2.1.5.2 3.5 3 3.5 3.3 0 .8-1.1.2-2.4-1.2zm52.5 1.1-.3-3.2c-.2-3.5-.3-4.5-.6-5.5-.2-.8-.4-4.6-.3-8.4 0-1.7 0-1.8.7-2 .5 0 .6-.2.5-.6-.1-.4.2-.9 1.5-2.1 1.7-1.6 2.9-2 2.9-1 0 .2.1.5.3.7.2.2.2.5-.3 1-.7.6-.7.9-.2.9.7 0 .5.4-.7 1.7l-1.5 1.6c-.2.3-.4.4-.6.2-.3-.3.3-1.3 1.4-2.5.4-.5.5-.7.2-.6-.2 0-.8.7-1.3 1.3-1 1.3-1.5 1.6-1.2.7.1-.6-.2-.7-.5-.2-.4.5-.1 6.8.3 7.6.3.7 1 10.2.7 10.6-.2.4-.8.3-1-.2zm-50.7-2.1c-1-1.2-1.7-2.2-1.4-2.4 0-.1.4.2.8.7.4.4 1 1 1.4 1.2.5.2.8.6.8 1 0 .7-.6.6-1.6-.5zm55.2-1.2a49.4 49.4 0 0 1-.2-6.4c.4.3 1.3 6 1 6.6-.2.6-.6.5-.8-.2zm-111.8-.4c0-.2.3-.5.6-.6.7-.3 1-.8 1-1.9 0-.4.1-.8.3-.8.1 0 .2.4.2.9 0 .7 0 .8.6.6 1-.3 1.3-.3 1.5 0 0 .3-3.3 2.2-3.9 2.2-.2 0-.3-.1-.3-.4zm34.4 0c0-.3-.2-.7-.4-1-.8-.5-1-1.5-.6-2.6.2-.8.2-1.2-.7-4-.6-2-1-3.3-.9-3.8.4-2 1.2-4.4 1.5-4.5.4-.1.4.1-.1 2.8-.4 2-.4 2.3 0 3.1.4 1 .7 2.4 1.2 6 .1 1 .4 2 .6 2.6l.3 1.3c-.2.7-.9.7-.9 0zm79.7-.4c-.2-.2-.3-.6-.3-1l-.5-2.7c-.7-2.3-.7-2.3-.2-2.3.4 0 1.6 3.4 1.9 5.2.2 1.2-.2 1.5-.9.8zm-26.8-.6c0-.2.2-.4.4-.4l-.2-.3c-.6-.4 0-1.6.7-1.5.7 0 1.1 1.7.6 2.2-.5.5-1.5.5-1.5 0zM119.8 30c-.2-.4 1.5-1.8 2-1.7.6 0 .7.7.1.9l-1.1.6c-.6.4-.8.5-1 .2zm34-4.4c-.5-1.2-.5-1.9.2-1.9l.7-.4c.1-.2.6-.4 1-.4.5 0 .6 0 .4-.4-.4-1-.4-2.2-.1-2.2.3 0 .7.2 2.3 1.7 1 1 1.1 1.1.6 1.3-.3.1-.7 0-1-.1-.5-.2-.6-.2-.8.2-.2.3-.2.6 0 .9.3.5.3 1.3-.2 1.3-.2 0-.4-.2-.4-.3 0-.1-.2-.2-.4 0-.2 0-.4.3-.3.7 0 .6 0 .7-.7.8-.6 0-.8 0-1.3-1.2zm-80.5-.2c0-.4.7-1.4 1.4-2 2-2.1 2.5-3 3.1-5.5.2-.5.7 0 .7.5 0 1-1.1 2.9-2.6 4.5-1 1-1.4 1.7-1.2 1.8.4.3.1.7-.6 1-.9.5-1 .5-.8-.3zm-11.9.2c0-.2.2-.3.3-.3l.1.3c0 .1-.1.2-.3.2-.1 0-.2 0-.1-.2zm174.8-.8c0-.2 0-.3.2-.2l.3.3-.3.1c-.1 0-.2 0-.2-.2zm-121.3-1.2c-.4-.5-.1-1.3 1.3-4 1.3-2.5 1.4-3 1.3-4l.1-1.3c.2-.1.2-.6.2-1s.1-.8.3-.9c.2 0 .3.4.4 1.6 0 2.6 0 2.8-1.1 5a11 11 0 0 0-1.1 2.7c0 .7-1.1 2.1-1.4 1.9zm2.2-.5-.3-.7a15 15 0 0 1 2.6-4.5c.6 0 .4 1-.6 2.8-.5 1-1 2-1 2.3 0 .5-.2.6-.7.1zM19 20.5a.6.6 0 0 1-.3-.5c0-.5 2-.6 8.8-.8A189.4 189.4 0 0 0 41.7 18c.5-.5.6-4.3.2-4.7-.4-.6.1-1.2.7-.7.2.2.3.8.2 2.2 0 1.6-.2 3-.3 3.7-.1.7-3 1-13.8 1.4a127.2 127.2 0 0 0-9.7.5zm31.2-2.1c0-.6 7-5 7.3-4.5v.4c-.7.5-6.9 4.5-7.1 4.5l-.2-.4zm113.1-.5c-.1-.8.2-2.7.5-3 .4-.5.6.4.5 1.9-.3 1.6-.7 2.2-1 1zm-136.8-.4c.6-.6 8-3.6 8.2-3.4a36 36 0 0 1-8.3 3.9c-.4 0-.4 0 0-.5zm5.8.2c-.3-.4 0-.7 1.8-1.7l3.7-2.2c1-.6 1.5-.7 1.5-.3a17 17 0 0 1-4 2.7l-1.3.9c-.7.6-1.5 1-1.7.6zm87-1.8c0-2.1.3-2.5.5-.6.3 1.9.2 2.4-.2 2.4-.3 0-.4-.4-.4-1.8zm-69.6.6c.3-1 0-1.2-.9-.8-.9.5-1 .5-1 .1 0-.2.3-.5.8-.7 1-.4 1.3-1.2 1-2.6-.2-1 0-1.7.3-1.7.1 0 .3.7.3 1.5l.1 1.5c.1.1.8-.1 1.6-.6 1.5-.8 1.7-.9 1.7-.5 0 .2-.8.8-1.7 1.4-1 .6-1.7 1.2-1.7 1.4 0 .7.6.4 2.2-1.1 1.5-1.5 4.2-3.6 4.5-3.6l.1.4c0 .2-1 1.1-2.3 2.1a42 42 0 0 0-3.4 2.9c-1.2 1.2-1.8 1.3-1.6.3zM121 15v-1.2c.3-.9 1-.2 1 1 0 1-.7 1.2-1 .2zm-93.5.1c0-.4.2-.5 2.7-1.4 2-.7 2.7-.8 2.2-.2-.3.2-4.3 1.8-4.7 1.8-.1 0-.2 0-.2-.2zm41-1.6c-.3-.3 1.7-1.9 2.3-1.9.4 0 .4.1-.1.6-.8.9-2.1 1.6-2.3 1.3zm62.9-1.1c.3-.8 3.3-1.1 3.3-.4 0 .3-.3.4-.8.4l-1.7.2c-.8.1-1 .1-.8-.2zm37.5-.4c-.8-.2-.8-.6 0-1 .8-.3 1.5 0 1.5.5 0 .4-.7.6-1.5.5zm-40.6-6c-.4-.6-.2-1.2.4-1.2.5 0 1 1 .8 1.4-.2.6-.9.5-1.2-.1zm1.2-1.5c-.8-.8-.9-1.5-.2-1.7.3-.1.6-.3.7-.6 0-.2.3-.3.5-.3s.5-.3.6-.7c.1-.6.2-.7.9-.5 1.6.4 1.6.4 1.5 1.2 0 1-.8 1.3-1 .4-.2-.3-.3-.5-.3-.3l-.4 1.3c-.2.6-.6 1.3-1 1.5-.5.4-.6.4-1.3-.3zm7.8-2.5c0-.8.8-2 1.3-2 .7 0 .7.4-.1 1.5-.8 1-1.2 1.1-1.2.5zm-3.4-1 .1-.9h1.7c1.4-.1 1.6 0 1.6.3-.1.3-.5.6-1.2.8-.6.1-1.2.3-1.3.5-.5.5-1 .1-.9-.7zm6.7.5c-1.3-.3-1.3-.3-1-1 .1-.4.3-.5 1.6-.5.9 0 1.6 0 1.7.2.3.2-.5 1.7-1 1.6l-1.3-.3z"/>
</svg>
