<?xml version="1.0" encoding="utf-8"?>
<svg xmlns="http://www.w3.org/2000/svg" xmlns:svg="http://www.w3.org/2000/svg" version="1.1" viewBox="0 0 220 147">
	<title>Pigling Bland shakes the foot of a chicken standing on an upturned pan.</title>
	<path d="M202 146.6c0-.2.3-.3.5-.3s.3.1.2.3l-.4.2c-.1 0-.2 0-.2-.2zm7.9-.3c-1-.2-1.6-.5-1.6-.8 0-.4.2-.4 2.2-.1 1 .1 1.4.3 1.4.7 0 .7-.2.7-2 .2zm-30 .1-2-.2c-1-.1-1.5-.3-1.5-.5 0-.3.5-.4 2.3-.3l2.7.1c.4 0 .4.8 0 .8l-.8.1h-.7zm-10.7-.2a1 1 0 0 1-.2-.6c0-.3.4-.4 1.8-.3 1 0 2.2-.1 2.7-.3 1.2-.4 1.6 0 .8.8-.5.4-.8.5-1.3.4-.9-.2-1.2-.2-2.5 0h-1.3zm26-.6a10 10 0 0 0-4.9 0c-1 .2-1.3.2-2.2-.2-1.2-.6-1.3-1.1-.1-1h4c1.8 0 3.7.2 4.3.4 1.4.4 1.3.3 1.1.8-.2.5-.5.5-2.2 0zm6.6-.8c0-.5.2-.6 1.4-.7 1.6-.1 4.7-1 4.7-1.2 0-.3-3.1-.6-6.7-.6-2.4 0-3.1 0-3-.3.1-.5 9-.4 10.2 0 .8.4.9.4.5.7-.3.2-.4.4-.3.5.3.4-3.4 1.8-5 2-1.7.1-1.8.1-1.8-.4zm-18.5-.1c-.8-.5-.7-1 .3-.8 1 0 1.4.4 1.2.8-.3.4-.7.4-1.5 0zm-5-1c-.3-.2-1.4-.4-2.4-.5-1.2 0-1.9-.3-1.9-.5 0-.5.7-.6 2.7-.3 2.1.3 3 .6 2.8 1-.1.5-.5.5-1.2.3zm32.4 0-.4-.7c0-.3.2-.4 1-.3 1.9.4 2.2.5 2 .8 0 .4-2 .5-2.6.2zm-107.4-2.1c-1-.1-1.4-.3-1.4-.6 0-.4.5-.4 3.1-.1 1.1.1 1.6.3 1.6.5 0 .4-.8.5-3.3.2zm7.6 0c-.6 0-1.3-.8-1-1h1.3c1 .2 1.2.3 1.2.7 0 .5-.3.6-1.5.3zm98.2-.5c-.2-.4 0-.5 2-.7 1.1-.2 1.8-.1 2 0 .1.4-.3.5-2.3.7-1 .2-1.6.1-1.7 0zm-70.4-.8c-.1-.2-.6-.3-1-.4-1.1-.1-1.2-.7-.1-.8 1 0 2.9.6 2.7 1 0 .4-1.3.5-1.6.2zm6.5-.5c0-.4 2.1-.7 3-.4 1.1.4.7.7-1.3.7-1.2 0-1.7 0-1.7-.3zm-35.3-.6c-.2-.4 0-.4 3.2-1 2.6-.3 4.6-.3 4.6.2v.4l-3.4.3-3.8.2-.6-.1zm12.3-.6c-.4-.1-1.3-.2-2-.1l-1.5-.1c0-.4 1-.8 1.7-.8.4 0 1-.1 1.3-.3l2.7-.4c2.4-.2 2.4-.2-1.7-1.2a36.2 36.2 0 0 0-7.6-1.7c-2.4-.4-2.7-.5-3.6-1.3-.6-.5-1.2-1-1.4-1-.6 0-.3-.6.3-.7.6 0 1.4-1.3 2-2.8.3-1.3.3-1.3 0-1-.1 0-.3 0-.4-.2-.1-.1 0-.3.4-.3.6 0 1.6-1.3 3-4.1.4-1 1-1.8 1.3-2 1.1-.7 3.3-1.3 6.2-1.5l3.3-.5c.1 0 .3.1.4.4.1.5.1.5 1.7 0 2-.7 2.2-1.2 2-6.1-.2-4.3-.4-5.3-1.1-5.3-.4 0-.6-.3-.7-1.2 0-.7-.4-1.7-.8-2.3a6 6 0 0 1-.8-1.4l-.7-.9c-1-.7-3-3.5-3.6-4.6-.2-.5-.5-.9-.6-.9-.1 0-.5-.4-.9-1-.3-.5-1-1-1.4-1.3-.8-.3-2.5-1.5-4-2.6a5 5 0 0 1-1-1.5c-.7-1.2-2.2-2.7-2.7-2.5-.3.1-1 0-1.7-.2a12 12 0 0 0-2.7-.5c-1.4 0-1.5-.2-3.1-1.7-1.5-1.4-1.7-1.8-2-3.2-.3-.8-.4-1.8-.4-2.2l-.4-1.6c-.3-.5-.5-1.7-.5-3.5l-.3-3.2c-.3-.8-1.3-1.3-2-1-1 .6-1.7.4-3-.8-3-2.6-3.6-3-4.2-3-.4 0-.7-.2-.7-.4l-.4-.2c-.3 0-.4.2-.4.4l-.2.4a5 5 0 0 0-1.1 1.4c-1.2 2-1.8 2.6-2.4 2.5-.7-.2-.7-1 .3-2.4 1.4-2.3 3.1-3.9 3.1-2.8 0 .1.1.2.3.2.1 0 .2-.1 0-.3l.5-1.1c.5-.7.7-1.2.7-2.4 0-1-.2-1.6-.4-1.7-.2 0-.6-.3-.8-.6-.2-.3-1-.8-1.6-1-1-.5-1.6-.6-4.6-.4-3.3.2-3.4.2-3.6.8a3 3 0 0 0-.1 1.4c.2 1-.3 1.1-.6.3-.2-.7-.6-.7-.8.1 0 .4-.3.8-.5 1-.5.4-.7-.1-.9-2-.1-2.4-1.1-4-3.3-5.7L72 52.6c-2-1-7.5-1.6-8.4-.8-.4.4-.5.4-.7 0-.5-.7-.1-1.1 1.3-1.7 1.3-.5 1.8-.6 3.3-.5 2.5.2 3.8.6 4.4 1.4l1.7 1.5 2 1.4c.8.6.8.6.6.1L75 52.7c-.5-.4-.8-1-.8-1.2 0-.2-.8-1-1.9-1.9l-1.8-1.4h-2c-3.6 0-8-1.7-8-3.1 0-1 .5-1 2-.1 2 1.1 3 1.4 3 .9 0-.7-.6-1.5-1.5-2.4l-1.7-1.9a6.3 6.3 0 0 0-1.8-1.4c-1-.3-1-.7-.5-1 .4 0 .3-.2-.1-.8l-.5-1c0-.3 1 0 1.8.7l1.1.8c.1 0 .2-.7.2-1.6 0-1.2.2-1.9.7-2.8.7-1.2 1.5-1.6 1.5-.7 0 .3-.2.7-.4 1-.6.7-.6 4.3 0 5.7.5 1.3.9 1.1.9-.3 0-1.4.5-2.4 2.1-4.1.8-.8 1.3-1.5 1.3-1.7 0-.2.3-.3.7-.2.8.2 1 0 1.8-2.3.5-1.4.7-1.7.8-1.4.2.3 0 1-.3 1.8l-.7 2c-.1.4-1 1.5-2 2.5-1.4 1.4-1.9 2-2 3-.3 1-.3 1.3 0 1.7l.2 1.1c0 1 .9 2.5 2.6 4 1 .9 1.6 1.3 2.1 1.3.4 0 1 .3 1.5.7a4 4 0 0 0 3.1 1.1c.6 0 1.3.2 1.4.4.7.6 3-2.2 3-3.6 0-.3.2-.9.4-1.1.3-.5.4-.5 1 0 .3.3.8.8 1 1.3.6.7.6.7.2 1-.6.3-.6 1.2-.1 1.2l.7.4c.2.3.7.4 1.3.4 1 0 3.3-.8 3.6-1.3l.6-.2c.4 0 .3.3 0 1.3-.3.4-.1.5.7.5.5 0 1.3-.2 1.8-.4 1.1-.6 1.2-.6.8-.9-.5-.3.4-1.7 1.6-2.6.5-.3 1-.8 1-1l-1.2-.6c-.8-.2-1.3-.5-1.6-1l-1-1.3c-.6-.5-.8-1-1.1-3.7l-.4-4c0-.4-.3-1.4-.6-2l-.9-3c-.5-1.8-1.4-2.9-3-3.6-1.2-.5-1.4-.9-.6-1.2.4 0 .5-.3.4-.6-.1-.3 0-.6.1-.6.5 0 1.7.9 2.1 1.4.2.3.5.5.7.5.5 0 1.6-1.3 2.3-2.6l1.1-2c.6-.8 1-4 .7-4.3-.1 0-.8.3-1.4 1-1.3 1-2.7 2-4.8 2.6-1.1.4-1.3.6-1.4 1.4a7 7 0 0 1-3 4.2c-1.8 1.4-3.2 2-4.6 2.4-.9.1-1.9.4-2.3.7-.4.2-.8.3-1 .2-.3-.4 1.1-1.2 2.6-1.6 2.8-.8 4-1.4 4.6-2.6l1.4-2.4c1.5-2.4 3-7.8 2.3-7.8-.2 0-.8.2-1.4.6-.6.3-2.2 1-3.5 1.3-4.6 1.4-5.5 2.2-5.8 5-.2 1-.2 2.5-.2 3.3 0 1.5-.2 1.7-.8.9l-.7-.6c-.5-.2-.9-2-.6-2.8.5-1.2.2-1.4-1.2-1-.7 0-1.6.4-2 .7-.3.3-.7.5-1 .5l-.8.8c-.3.5-1.3 1.6-2.3 2.4a8.4 8.4 0 0 0-2.7 3.1c-.5 1.2-.8 2-.7 2.4.1.7 0 .8-1.5 1.4-.8.4-1.6 1-1.7 1.2-.4 1.1-2.9 6-3.3 6.4-1 1-2.1 4-2.5 6.5 0 .6-.2 1.3-.3 1.5-.1.4 0 .5.4.5.5 0 .6 0 .5.6l-.2 1.3c0 .3-.2.9-.4 1.1-.3.5-.4.5-.6-.2-.4-.8-.8-1-1-.2l-1 1.3-.7 1.1-.4 1.2a10 10 0 0 0-.6 1.8c-.2 1-.8 1.6-2.2 2.2l-1 .9-2 1.4c-1.6 1-4.2 3.4-4.8 4.5-.5 1-.5 1 0 1.3.5.3.5 1.1.1 2.2-.2.6-.4.7-1 .6-1.6-.4-4.8 4.5-6.9 10.7-1.5 4.4-1.6 5.3-.5 6.9.5.8 1.2 1.4 2 1.8l1.2.8c0 .4 1.2 1 2.4 1.1 1.1.2 1.2.2 1.9-.8.8-1.4 2.3-2.3 5.3-3.7l3-1.4c.6-.4 1-.5 1.9-.3 1.1.1 1.4-.2.7-.8-.5-.3-.6-1-.2-1.1.1-.1.8 0 1.5.4 1.5.6 4 1.2 6 1.4.8.1 1.6.4 1.8.6 1.2 1 5.8-1.9 6.5-4.1 0-.3.5-.9 1-1.3.6-.4 1-1 1.2-1.7l.8-2 .9-1.8c1.2-2.4 2.2-8.3 1.4-9.2a8 8 0 0 0-1.4-1 23 23 0 0 1-2.8-2.4c-1.4-1.4-1.8-2-2.2-3.2-.4-1.4-.4-1.6 0-2.4l.4-1.3c0-.6 1.2-1.6 1.7-1.5.6.2.5.7-.1 1.5-.7 1-.7 1.5.1 2.3.6.4.7.8.6 1.3-.2.4 0 .7.2.8.6.4 2 2.5 2 3 0 .3.5.8 1 1.1l2 1.5c.7.5 1.4.9 1.8.9.4 0 1.1.2 1.5.4.6.4 1.3.5 3.5.5H80v.8c.2 1 .7 1.6 2 2.3 1.1.6 1.2 1 .6 2.5-.2.5-.2.5.3 0 .6-.5 1-.6 1-.2 0 .1.4.7 1 1.3 1.3 1.4 1.6 1 .8-.9-.4-.8-.7-1.2-1-1.2-.8 0-.8-.4-.1-.6 1.3-.4 2.3 1 2.8 4.3.2 1.4.6 2.5 1 3 1.1 1.5 1.3 2.1 1.4 4.6 0 2.5-.5 4.4-1.5 5.5l-1.3 2c-.5 1-1 1.7-1.3 1.9-.8.4-1.4 1-1.2 1.3.2.3.2 10.2 0 15.3l-.2 10.4c0 6.9 0 7.4-1 7.4-.8 0-1-.7-1-3.5l.3-11.5a72.6 72.6 0 0 1 .4-9.8c-.1 0-.2-1.6-.2-4 0-2.2-.1-4-.2-4.1 0 0-.8 0-1.5.2-1.8.6-6.6.4-7.8-.2-.5-.3-1.1-.5-1.4-.5-.7 0-1.8 1.4-2.2 2.8-.8 2.1-2.5 4.6-5.9 8.2a80.2 80.2 0 0 0-5.5 6.4 9.4 9.4 0 0 0-1 5.7c.3 2.8 1.2 5.8 1.7 5.8l.2.4c0 .5 2.6 3 3 3l1 .5.8.6c.4 0 1 1.3 1 1.8-.3.6-1.4 1-2.6.9-.8-.1-1 0-.8.8.1.7-.4 1.3-1 1.2-.6 0-1 .1-1.7.8-.9.8-1 .8-2 .7-1.4-.3-3.2-1.3-3.3-2-.2-.9-1.1-1.4-1.9-1-1 .3-5 .3-6.1-.1-.6-.2-1.7-.3-2.6-.3-1.2.1-1.5 0-1.5-.3 0-.2.6-.4 2.6-.5 5-.4 5.4-.4 5.5 0 0 .2.5.4 1 .4.8 0 .8 0 .2-.5-.3-.2-.6-.5-.6-.8l-.4-1c-.2-.3-.4-1.1-.5-1.9-.1-.7-.4-2-.7-2.7l-.6-3c-.2-1.4-1.4-4.2-2-4.6-.8-.4-1.9-4-1.9-6 0-1.3-.2-1.8-1-1.7a4 4 0 0 1-1.5-.7c-.6-.4-1.5-.8-1.9-.9-1-.2-3.4-2.7-3.9-4l-1.4-2.8-1.4-2.8c-.2-.5-1.3-2-2.4-3.2a25.6 25.6 0 0 1-2.5-3.2c-.4-.8-.8-3.4-.7-4.5 0-.5 0-.8-.5-1l-1.1-.9c-.4-.4-.6-.5-1.3-.2-2.3.8-4 .6-3.9-.4.1-.4.4-.5 1.6-.5 2.5 0 4.4-1.6 5-4.2.4-1.1.3-1.3-.1-1.6-.9-.6-1.3-.2-1.1 1 .1 1.1 0 1.3-.7 1.9-.9.7-1.8.9-1.8.3 0-.2.3-.6.7-1l.7-.5-.5-1c-.4-.9-.4-1.1 0-1.8.7-1.7 2.8-1.5 3.8.4.5 1 .6 1.2.3 2.3-.1.7-.4 1.6-.7 2-.3.4-.3.5.2 1 .6.6.5.8 1.6-2 .5-1.3 1.2-3 1.7-3.8 2-3.6 3.3-6.3 3.3-6.6 0-.5 4-5.6 4.9-6.3a58 58 0 0 1 3.5-2.5l1.9-1.7c1.6-1.3 2.4-2.4 2.4-3.2 0-.3.2-.8.5-1.1l.6-1c0-.3.2-1 .5-1.6.3-.7.4-1.3.3-1.5a52 52 0 0 1-.4-9.5c0-3.9-.1-5.3-.4-5.4a279 279 0 0 0-.3 15c.1 1.3-.3 3-.7 3-.4 0-.4-.3-.2-1.9l.2-16c0-19.5.2-27.4.4-25.6.2.8.3 3.3.3 5.5 0 2.7.1 3.6.3 2.9.2-1.5.6-12.1.3-12.7-.3-.8-.6-.4-.6.9 0 .7-.1 1.3-.2 1.3-.3 0-.7-5.4-.5-5.8.3-.4 1-.4 1 0 0 .2 0 .2.3 0l.7-.2c.5 0 .5.7.2 19-.2 13.2-.2 22 0 24 .3 3.5.4 4.6.7 4.5.2 0 .3-.4.2-.8a21 21 0 0 1 3.1-8l1-1.6c1.5-4.2 2.9-6.5 4.2-7.1.5-.3 1-.6 1-.8 0-1 2.7-4.4 4.5-5.9l2.2-1.9c.4-.4 3.4-1.9 4-1.9.5 0 2.8-1.2 4.3-2.2 1.5-1 3.4-1.9 5.3-2.3 1.6-.3 3.1-1 4.3-2 1.3-.9 1.5-.5 1.5 2.5v2.6l.9-.2c1.8-.5 3-1.3 4-2.5.8-.9 1.2-1.2 1.7-1.2 1.2 0 1.5.6 1.5 2.9 0 1.9-.1 2.2-1.2 4.5-.9 1.8-1.5 2.8-2.5 3.6-1.1 1-1.2 1.3-1 1.7.4.5.8 1.3 1.6 3.6.5 1.4.7 2.5.8 4.5.1 3.4.7 5.7 1.7 6.9.7.8 1.1 1 2.6 1.2 2 .4 2.2.7 1.3 2.4-1.1 2.2-2.6 3.4-6 4.7-.6.2-1.6.4-2.4.3-1 0-1.5 0-1.8.4-.9.8-2 1.2-4.5 1.3l-2.4.2L80 54c-.2 1.3.1 2.3.7 2.7.2.1 2.1.2 4.3.1 4.6 0 5 0 7.5 2a12 12 0 0 0 3 1.6c1 .3 1.6.7 2.3 1.6 1 1.1 1 1.1 2.6 1.1s1.6 0 2.2 1c.3.5.7 1.8 1 3.6l.5 3.9a41 41 0 0 0 1.5 5.8l1-.6c.5-.4 1.4-.9 2-1.1.8-.4.9-.5.8-1.3l-.3-3.7-.4-3.2a13 13 0 0 1-.8-3.8c0-1 .2-1.6 2.7-6.6 1.7-3.5 1.8-3.8 1.6-5a5 5 0 0 0-.4-1.6c-.3-.4-.3-1.7 0-3.7l.4-1.8-1-1.3a14 14 0 0 0-1.6-1.9c-.6-.5-.6-.6-.4-1.6l.2-1h2.3c2-.2 2.3-.2 2.3-.7 0-.3.1-.6.4-.7.2 0 .4-.4.5-.7.1-.6.6-.8 3.3-1.8 1.8-.6 2.6-.6 3 0 .1.4.5.6 1 .6 1 0 2.4 1.2 2.4 2 0 .9-.5 2-1.2 2.8-.8 1-.9 1.2-.2 1.4.2.1 1.2 1 2 2 1.7 1.6 1.8 1.9 2.8 5a48 48 0 0 1 1.3 5 39.7 39.7 0 0 0 5 10.9c.5 1.1.9 1.5 3.9 3.4a40 40 0 0 1 3.1 2.3c.6.5 1 .6 1.6.6.7 0 .9-.2 1-1 .3-1.5 1.6-5 2.8-7.4l1.8-4a22 22 0 0 1 4.4-6.6c.8-.8 1.4-1 3.6-1.7l4.2-.8c1.9-.1 2.5-.4 2-.7-.6-.3-.3-.4 1.8-.6 1.6-.2 1.9-.1 1.6.2-.2.3 0 .4 1.5.5 2 .1 3 .7 2.8 1.6 0 .4 0 .7.6 1 1 .4 1.1.3 1-.4 0-.4.1-1.2.4-1.9.3-.7.5-1.5.4-1.8 0-.4 0-.8.4-1.2l.7-1.3c.2-.6.2-.6-1-.5-2 .4-10.4.5-11.2.2-.7-.3-.7-.3-.2-.7a3 3 0 0 1 1.4-.4c.7 0 .8 0 .6-.2-.8-.5 0-.6 3-.6 2 0 3.4.1 4.3.4 2.3.7 3.1.6 3.9-.4 1.1-1.6 2.5-4.6 2.5-5.5 0-.5.2-1.3.5-1.8a24 24 0 0 0 2-5l-1.5 2.7c-.7 1.6-1.5 3-1.6 3-.4.3-1 0-.7-.4l1.7-3c1-2 1.6-3 2.1-3.2.5-.2.7-.4.5-.6-.2-.2 0-.9.7-2.3 1.4-2.8 2.1-4.6 2.1-5.7 0-.7.2-1 .8-1.5a18 18 0 0 0 3.3-6.1 365.9 365.9 0 0 1 2.8-7.8c.3-.7 1.3-.8 1.5-.2.1.2 0 .7-.1 1l-.6 1.6a196.7 196.7 0 0 1-8.9 20l-1.6 3.7c-1 2.2-2 4.7-2 5.4 0 .3-.4 1.6-1 2.8-.6 1.2-1.3 3-1.5 3.9-.2 1.5-.2 1.8.2 2.7.8 1.5.9 7.3.2 8.3l-.5.8-1-1a13.4 13.4 0 0 0-5.7-2.8c-.8-.2-1.6-.5-1.8-.7-.4-.5-2.4-.4-5.8 0-3.5.6-5 1-5.9 1.4l-1.2.4c-1 0-3.5 3.9-4.4 6.8a30 30 0 0 0-1.5 6.8c0 .4-.2 1-.7 1.9-.4.7-.9 1.7-1 2.3-.2.5-.6 1-.8 1.2-.7.4-3.6.4-4.2 0-.4-.1-.6-.1-.8 0-.2.2-.5 0-.8-.5-.8-1-4.2-3.3-4.6-3-.2.1-.3.7-.2 1.9.2 1.7 0 2.4-.4 2.4-.2 0-.3-.8-.4-2.6 0-2-.2-2.6-.5-2.8-.2-.2-.5-.8-.6-1.3-.2-.5-.6-1.3-1-1.7-.7-.9-2.2-4-2.2-4.8l-.7-1.9c-.4-.8-.7-2-.8-3 0-.9-.3-1.8-.5-2-.2-.2-.6-1.3-.9-2.5-.8-2.9-1.3-4.1-2-4.9l-1.1-1.2c-.2-.4-.5-.6-.7-.6l-1.1-.8c-1-1-1.5-1-2.1-.3-.4.4-.8.5-1.4.5-1.2-.1-1.5-.9-.6-1.5.7-.4.5-.9-.4-.9-.4 0-.6-.1-.6-.3 0-.3.6-.3 2.6-.3 2.7 0 2.7 0 3.3-.7.4-.6.4-.8.2-1-.2-.3-.4-.3-.8 0s-.4.3-.2-.5c0-.6 0-.9-.3-1.1-.4-.2-.6-.1-.8.3-.3.6-.3.7-.7-.7-.2-.6-.8-.4-.8.3 0 .6-1 .8-1.3.2-.3-.6-.7-.5-.8.3 0 .5-.2.7-.5.7-.2 0-1 .5-1.6 1.3-1.3 1.3-1.3 1.3-2.5 1.1-1.5-.2-1.3.1.5.9 1.3.5 1.4.6 1.5 1.5 0 .5 0 1-.2 1s-.3.3-.3.6c0 .4.2.7.4.7s.4.2.4.5-.1.5-.3.5l-1.1.8c-1.2 1-1.5 2.4-.7 3.2.3.3.5.9.5 1.5 0 2.2 1.4 2 2.6-.5 1-1.7 1-2.3.5-3.1-.2-.4-.2-.7.1-1.3.5-.7 1-.8 2.4-.4.7.2.8 0 1.2-1 .6-1.2 1.2-1.3 1.7-.2.2.8.2.9-.6 1.6-.4.4-1.2.9-1.6 1-.7.2-1 .5-2 2.7-.8 2-1.2 2.6-2.2 3.4-1.9 1.5-3.1 3-3.4 4-.2.7-1 2.2-1.7 3.5-1.5 2.7-1.5 2.8-.4 7 .2 1 .6 2.6.6 3.3.2 1 .3 1.2.8 1.3.4 0 .6.3.7 1.3.2 1.2 1.1 3.9 1.6 4.3.1.2.2-.3.2-1.3 0-2 .3-3.5.6-3.5.2 0 .4.3.6.7.3.8.3.8.7.3.4-.7 1-.2 1 .8 0 .4.2.8.3 1 .2 0 .6.7 1 1.4.7 1.4 1.1 1.5 1.1.2 0-.5.2-.7.4-.7.4.2 1.3 2 1.3 3l.3 1.3c.6 1.4-2-.5-3-2.1-.3-.7-.8-1.2-1-1.2-.2 0-.6-.5-1-1.2-.5-1.3-1.1-1.9-.8-.9l.3 1.7c0 .5.3 1 .5 1 .3 0 .8.8 1.8 3 .1.3 0 .4-.3.4-.4 0-.7-.4-1-1.3-.6-1.5-1-2-.8-.9.3 1.5-.3 1-.7-.7L115 78v2.5c0 3.3-.4 3.3-1.5-.2-.5-1.6-2.1-4.7-2.6-5-.4-.2 0 2.3.5 3.9l.5 1.6c.1.3.2.3.5 0 .4-.3.4-.1.4 1 0 1 .2 1.5.5 1.8.2.3.4.7.4 1-.2.9 1.3 3.6 2.7 5.2 1 1 1.5 1.4 2.7 1.6 1.2.3 1.5.3 2-.1.7-.4.7-.4 1 0 .1.4.4.6.6.6.3 0 1.3 3.1 1.6 5.3.2.8.5 1.5 1.3 2.4l2 2.3c.5.6 1.5 1.5 2.3 2 .7.5 1.6 1.2 1.8 1.5.4.6 1 .5 1 0s2.1-2.6 2.6-2.6 1.8-2.7 2-4.3c.1-.9.3-1.4.7-1.6.6-.3.8 0 .7 1.6 0 1.5.6 2.5 1.5 2.4.4-.1.5-.3.5-.9v-.7c.3 0 1.3.7 1.7 1l.6.3c.5 0 .2-.7-.5-1.3-.3-.3-.6-.6-.5-.7.2-.2.8 0 2.2 1 .8.5 1 .2.6-.5-.2-.6-.2-.6.3-.5.4 0 .7.4 1 1 .5 1.3.3 1.4-1.4 1.7-.6.1-1.3.4-1.6.6-.3.2-1.7.4-3 .5-2.7.2-3.5.4-3.5 1 0 .2-.4.7-1 1a4 4 0 0 0-1.3 1.5c-.2.5-.5.8-.6.8-.4 0-1 1.7-1 2.7 0 1.2.7 4.4 1.1 5 .2.2.6.3 1.3.2 2-.3 1.9.8 0 1.7-1.5.6-2 1.5-1.5 2.3.3.5 2.9 1 4.9 1 1.4.1 4.3.5 7 1.1 2 .5 3.6 1.5 4 2.7 0 .4.7 1.5 1.3 2.4 1 1.7 2 3.2 2.6 4.5.2.3.9.8 1.5 1.2.7.3 1.3.7 1.4.9.1.1.5.3 1 .3.9 0 1.8.6 1.4 1-.2.2-.5.2-1.1-.1-.8-.4-1-.4-1.3 0-.4.3-.4.5-.2.9.5.7.2.8-1.3.8-1.3 0-5 1-6.3 1.9-.4.2-1.4.4-2.6.4-9.8.2-12 .3-13.6.8-1.4.6-3.2.6-3.5 0-.2-.2-5 0-5.3.4-.3.3-.6.2-1.4-.1zm7-1.5c-.1-.2-.3-.3-.4-.3-.2 0-.2.1-.1.3l.4.2c.1 0 .2-.1 0-.2zm14.6-1.4c.8-.8 2-1 3.4-.5 1 .4 4.8-.6 5.3-1.3.2-.3.6-.5.8-.5l.6-.4c.5-.6-.4-.9-1-.4-.6.6-2.5 1-4.4 1-1.7 0-2.2-.3-1.7-.9.2-.3.4-.3 1 0 1 .3 2.6-.3 1.9-.7-.3-.2-.3-.3 0-.6.2-.3.2-.4-.3-.2-.7.1-.6-.2.2-1 .8-.7 1-1.7.1-1-.2.2-.7.4-1 .4-.4 0-.4 0 .1-.5.3-.2.7-.9.8-1.4l.2-1-.8.5c-.7.6-1.3.4-.7-.3.2-.1.3-.5.3-.9 0-.7-.8-.8-1.3-.2-.6.8-2.9 1-9.7.9a90.4 90.4 0 0 1-20.3-2.8c-.4-.2-.8-.3-1-.2-.8.5-2.5 5.8-2 6.3 0 .2 1.6.7 3.3 1.1 2.5.6 3 .8 3 1.2 0 .7-.4.8-1.7.4-1.3-.4-5-1.5-5.7-1.5-.3 0-.4.1-.4.4 0 .6 0 .6 3.7 1.4l4.5 1a39.3 39.3 0 0 0 7 1.4c1.8.5 6.7 1 11.8 1l3.3.1zm-8.9-.1a.6.6 0 0 1-.3-.6c0-.2.4-.3 1.2-.3 1 0 1.2 0 1.1.4 0 .5-1.3.8-2 .5zM58.7 130c0-.2-.4-.6-.9-1a10 10 0 0 1-2.8-4.3l-1-4-.9-4.2c0-.5-.2-1-.4-1.3-.3-.3-.5-1-.5-1.6 0-.9 0-1-.6-1-.8 0-1.7-.4-1.7-1 0-.2.4-.3 1.3-.4h1.3l.1-1.1c0-.7.3-1.4.5-1.6 1.1-1.4 3-3.6 3.2-3.6.1 0 1-.4 1.8-1 .9-.6 1.7-1 1.9-1 .3 0 2.5-2.7 2.9-3.5.3-.9 2.2-3.5 2.4-3.5.7 0-.6 3.4-1.7 4.3l-.4.5c0 .6-1.5 2.4-2.5 3.1l-5 4c-.7.7-.8 1-1 3.4-.4 4.8-.2 7 1.1 10.8.6 1.9 2.1 4.1 2.8 4.1.7 0 .7-.8-.1-1.7-1.7-1.7-2.2-3.6-2.6-9.4l-.3-2.4c0-.2 0-.9.3-1.6.3-.9 1-1.7 2.7-3.5 5-4.9 6.6-6.7 7.3-8.1a82 82 0 0 0 1.8-5c0-.4.1-.7 1-1C69.6 93 72 90 73 88l1-2.1c1-2 1.8-4 1.8-4.8 0-.4.1-1 .3-1.2l.5-2c.2-.9.4-1.8.6-2 .3-.3.4-1.3.5-3.2 0-2.6 0-3-.5-3.3-.2-.2-.8-.3-1.2-.3-.6 0-.7 0-.6.9l.2 1.6c.2 1-.4 5.3-1.2 7.6-.9 3-1.7 4.7-2.3 4.7-.7 0-.7-.4 0-1.3 1.2-1.8 2.5-7 2.5-10.5 0-1.5 0-2.8.2-3 .1-.2 0-.3-.5-.4l-1.8-.6c-1-.3-1-.3-1.3.4l-1 2.4c-.8 2.5-1.2 3.3-3.3 8-1.8 3.7-1.8 3.7-3.7 5.3-2 1.7-5 3-6.8 3.2-1 0-1.4-.1-2-.6-.6-.6-.8-.7-2.7-.6-3 0-4.3.5-7.6 2.2-3.6 1.9-5.7 3.4-6.4 4.6a6 6 0 0 1-1.4 1.5c-.7.5-1 1.5-.5 1.5a39.5 39.5 0 0 0 6 7.6c.7.6 1.7 1.3 2.3 1.5 1 .3 1.2.6 2 2.2.9 1.7.9 1.8.6 3.2-.3 1.4-.3 1.5.2 1.9.4.2.8.8 1 1.2l1 1.7c.4.5.7 1.2.7 1.5 0 .3.2 1 .5 1.4.3.5.5 1.1.5 1.5l.7 2.3c.7 1.7.9 3.3.4 3.5-.6.4-.2.7.5.6 1.3-.3 1.7 0 2.5 1.6l.9 1.7.5-.3c.3-.3.5-.2 1.2.5 1 1 1.3 1 1.3.5zM49 107c-.4-.4-.2-1 .4-.9.7.2 1 1 .2 1l-.6-.1zm16.3-20.2c-.9-.2-2-1.3-2-1.9 0-.8.8-.9 2.4-.4.8.3 2.1.6 3 .6 1.2 0 1.5 0 1.5.4 0 .3-.3.5-1.1.6a5 5 0 0 0-1.6.6c-.6.4-1.3.4-2.2.1zm-13.1 40.4c-.2-.5-1-.6-1 0 0 .2.2.3.5.3s.5-.1.5-.3zm94-2c.8-.2 1-.5 1.2-1.2.2-1.1 0-1.3-1-1.9-2-1-10.6-2.2-10.6-1.4 0 .1.2.2.5.2.5 0 1.7 1 1.7 1.5 0 .6-1 .4-3-.6l-2-.9-1.4.8c-1.2.7-1.5.8-2 .6-.5-.3-.8-.2-1.8.5-1.3.8-3.8 1.2-4 .6-.3-.6.1-.9 1.9-1.3 1.6-.4 2.3-.8 2-1.2 0-.2-.7-.2-1.8-.1l-4.7.4c-3.2.1-4 .5-3.6 1.3.2.5 2.3 1.3 3.2 1.3l2 .4c2 .6 6.7 1.3 10.7 1.5 5 .3 11.6 0 12.8-.4zm-14.7-5.6c.1-.1 0-.5 0-.8-.3-.4-.4-.3-1 .8l-.8 1.4.9-.5 1-.9zm-48.2-.5c.1-.2 0-.3-.1-.3-.2 0-.3.1-.3.3l.1.2c.1 0 .2 0 .3-.2zm48.8-1.7c.3-.4.4-2.5 0-3.8 0-.7 0-.6-.3.6l-.3 2.4c-.2 1.2 0 1.5.6.8zm-48.5-2.3c0-1.2 0-2.1-.2-2.1-.1 0-.2 1-.2 2.3 0 2.8.2 2.7.4-.2zm.1-22.6c0-.3-.1-.4-.3-.3-.1.1-.2.3 0 .4.2.4.3.3.3-.1zm-3.4-.4c.5 0 1-.2 1.2-.4.2-.1.5-1.3.6-2.5l.5-2.5h-.5a8 8 0 0 1-4.1.3c-2-.3-2.4-.4-2-.8h1.8c1.8.4 3.6.2 4.3-.4.5-.4.5-.9.6-4.4l.1-3.8-.8-.2c-1.2-.1-3.2.7-3.8 1.6l-.6 1.2c0 .7 1.6 1.1 2.8.8.7-.2 1-.2 1 0 0 .6-1.2 1-2.4.8-1.4-.1-2 .4-2.9 2.8-.3 1-.7 1.9-.9 2l-.2.8-.2 1-.9 1.5c-.7 1.4-.5 2 .7 2 .5 0 1 0 1 .2 0 .3 1.7.4 2.8.2l2-.2zm-5.6-1c-.8-.7-.5-1 .6-.6.5.2 1.8.3 3.3.3 1.8 0 2.5 0 2.4.3 0 .2-1 .3-2.9.4-2.4 0-2.9 0-3.4-.5zm2-2c-.9-.2-1.6-.9-1.4-1.2.1 0 .4 0 .6.2.4.3 1.2.4 3.1.4 1.7 0 2.6 0 2.5.3-.2.5-3.3.8-4.8.3zm1.4-5.8c-.8-.4-.3-.7 1-.6.7.1 1.4 0 2-.2.4-.2.8-.4.9-.3.9.9-2.6 1.9-4 1.1zm7.6 6.2c1.1-1 2.4-3 2.2-3.2-.1 0-.6.2-1 .6-1.7 1.4-2.2.6-.5-1 .6-.7 1.2-1.6 1.4-2.4l.7-1.2c.1 0 .2-.3.2-.7 0-1.1-.8-2.7-1.8-3.5-.9-.8-1-.9-1.4-.3-.4.4-.5.6-.3 1.2.2.4.3 1.5.2 2.4v1.5l.6-.7c.5-.6.6-1 .6-2 0-1.2 0-1.4.4-1 .3.1.4.7.4 1.4 0 1.1-.1 1.4-1.1 2.3-1.2 1.1-1.2 1.1-1.5 3.6l-.5 3.3c-.1 1 .1.9 1.4-.3zm-1.6-6.8c.2-2.8.1-4.4 0-4.5-.4-.2-.6 3.2-.6 7.7 0 4.3.4 2.4.6-3.2zm26.9 1.7a15.8 15.8 0 0 1-1-5c-.2-1.6-.3-2-.7-2.1-.3 0-.7 0-1 .3l-1.5.7-1.1.3v1.3l.3 1.5c.1.1 0 .4-.2.6-.4.4-.4.5 0 .8l.4.8c0 .7.2.8 2.1.9 1 0 1.7.2 1.8.3.3.3.9.1.9-.4zm-83.1-2c0-.2-.3-.5-.7-.8-.7-.4-.8-.3-.3.4.3.6 1 .7 1 .3zm76.2-3c-.3-.5-.4-.3-.1.4 0 .2.2.3.3.3 0-.1 0-.4-.2-.6zm0-2.8c-.7-2.4-1.1-1.4-.5 1.1.3 1.1.3 1.2.6.7.1-.4.1-1-.1-1.8zm-19.3-1.2c0-.5-1.3-1.7-1.7-1.5-.8.3-.5 1.1.4 1.4 1.2.4 1.3.4 1.3.1zm-4-.8c.3-.4.6-1.2.6-1.8 0-1.2 0-1.2-.9-1.3-.9 0-.9 0-1.2 1.2l-.5 1.7c-.1.3 0 .5.5.7.8.3 1 .3 1.5-.5zm-1-.6c-.1-.8.3-1.8 1-1.8.2 0 .3.2.2.9l-.2 1.1c0 .7-.8.4-1-.2zm22.2-5.2c0-.3-.2-.5-.3-.5-.3 0-.3.8 0 1.1.2.3.5 0 .3-.6zm-6-1.8c0-.4 0-.6.3-.7.4-.1.3-.3-.4-1-.9-1-1-2-.4-2.1.2-.1.6.1 1 .5 1 1 1.7.7.8-.6-.6-1-2-1.7-3-1.7-.6 0-1.1-.1-1.2-.3-.4-.6-.6-.1-.7 1.5 0 1-.2 2-.3 2.2-.3.6 2.4 2.4 3.9 2.6 0 0 .1-.2 0-.4zm6-.1c.5-.7-.6-2.9-1.3-2.9-.4 0-.5 3.2-.2 3.3.5.2 1.3 0 1.6-.4zm-23-10.4c-.4-.5-2.2-1.5-2.2-1.3 0 .6 1.3 1.6 2.1 1.7.3 0 .3 0 0-.4zm96.8-2.8-.3-3.3c-.3-2.3-.4-2.5-.7-2.1l-.5 1.4c0 .5-.5 1.4-1 2-.8 1-.8 1.2-.3 1.2.2 0 .8.4 1.3.8 1 .9 1.3.9 1.5 0zm-98.3-1.5c-.4-.5-1-.9-1.2-.9-.3 0-.6 0-.7-.2 0-.2-.3-.3-.6-.3s-.1.2.4.5 1.2 1 1.7 1.6c1.1 1.3 1.5.7.4-.7zm17.7-4.4c.2-.6-.2-1-.6-.6-.3.4-.2 1 .2 1l.4-.4zM48.6 26.4c0-1.1 0-2-.2-2a19 19 0 0 0-.3 6l.1 2 .2-2 .2-4zm0-24c-.1-.3-.2-.2-.2 0 0 .4 0 .5.1.4v-.5zM213 137.8c-.8-.1-1-.8-.2-.8s1.6.3 1.5.6c0 .3-.3.4-1.3.2zm-11-.2c-1.5-.3-.8-.6 1.2-.6 1.5 0 2 0 1.9.3-.1.3-1.8.5-3.2.3zm-84.3-1.2c-.2-.3 1-.6 1.5-.4l.2.4c0 .4-1.5.4-1.7 0zm94.2-3.7c-.3-.4.4-.8 1.5-.8 1 0 1.5.4 1 .6-.5.4-2.3.5-2.5.2zm-138.2-3c-.5-.3-.8-.6-.6-.7.3-.4 1.6.3 1.6.9 0 .5 0 .6-1-.1zm-4.9-.6c-1.1-.2-.7-.8.5-.7l1.2.3c.1 0-.6.6-.8.5l-.9-.1zm-26-1c-1.2-.5.6-1.7 2.2-1.5 1 .2 1.3.6.3.8-.3 0-.7.2-.7.3-.2.3-1.4.5-1.8.4zm-3.5-1.4c-.8 0-1.3-.3-1.6-.6-.2-.4-.6-.5-1.4-.5-.6 0-1.3-.2-1.6-.3-.4-.2-.6-.2-.8.1-.3.4-3 1-3.4.8-.5-.3-.2-.9.4-1h1l.9-.1c.5 0 .6-.2.5-.6-.2-.7.3-.8 1.4-.3a5 5 0 0 0 1.8.6c.4 0 1 .2 1.2.4.4.3 1.3.6 2.6.8 1.1.1 2 .4 2 .6.2.3-.4.3-3 .1zm8-.6c-.4-.3-1-.5-1.2-.5-.3 0-.5-.2-.5-.3 0-.4 2.1 0 2.7.5.4.3.4.8 0 .8a4 4 0 0 1-1-.5zm-4.4-2.8c-.3-.3 0-.6.7-.6.8 0 1 .4.3.6-.6.2-.8.2-1 0zm-13-2.1c-.4-.1-.7-.3-.7-.4 0-.4 2-.2 2 .2.2.3-.2.4-1.4.2zm-3.2-8.5c-.1-.3 5.1-.7 5.5-.4v.3c-.1.3-5.3.4-5.5 0zm149.5-2.2c0-.2 0-1 .4-1.6a7 7 0 0 0 .5-2.5c0-.8.2-2 .4-2.7.3-1.1.3-1.5 0-2.5-.3-1.1-.3-1.2-1.2-1.1-.8 0-1.1 0-1.7-.7-1.2-1.5-.7-2 .8-1 1.2.7 3 .6 4.9-.3.9-.5 1.6-1.1 1.8-1.5.4-.9.4-.8-.2-1-.5-.1-.6-.3-.4-1.2.4-1.8.2-3.8-.5-6-.4-1-.7-2.2-.7-2.6 0-.9-.5-1-.7 0-.3 1.2-.8.5-.6-1v-6.4c0-2.7-.2-3.5-.7-4.6-.4-.8-.7-2-.8-2.8-.1-.8-.4-1.4-.7-1.5l-.5-.5a14 14 0 0 0-3.1-3.2c-1.3-1-2.2-2-2.2-2.5 0-.2-.3-.6-.7-.7-1-.4-3.3-.8-3.5-.6l1 1.2a92.2 92.2 0 0 1 2.6 2c.2 0 .5.3.7.6.1.4.7 1.1 1.2 1.7 1.6 1.8 2.5 3.9 2.6 6.2.2 1.8.2 2 .9 2.4 1 .7 2.1 2.4 2.3 4 .2 1.8-.4 1.7-.9-.1-.3-1.2-1.5-2.8-2-2.8V81c.1 3 0 4-.3 5s-.4 2-.4 3.6V92c-.5.4-.8-.3-1-2-.3-3.3-.4-3.7-.9-3.7s-.8-.7-.8-2.3l-.2-1.7c-.3-.7-.2-.8-1 1.6a18.1 18.1 0 0 1-2 4.6c0 .2-.2.9-.6 1.6-.8 1.7-1 3.2-.6 4.3.4 1.1 0 1.4-.7.6-1.4-1.3-1-3.5 1.4-8.2a14 14 0 0 0 1.9-5.2c.1-1.1.4-2.3.5-2.6.2-.5 0-1.2-.8-3.3a22.7 22.7 0 0 0-2.4-4.7l-.5-1 .1 2.5c.1 2 0 2.9-.3 4a12 12 0 0 0-.4 3.5c0 1.7 0 2-.3 2.2-.7.2-1-.2-1.2-2-.5-2.4-1.2-4.5-1.3-3.8 0 .3 0 .8.2 1 .2.2.2.4 0 .5V80c0 2 0 2-.5 2s-.5-.1-.5-1.1c0-.7-.2-1.7-.5-2.2l-.5-1v1.5c-.1 1.7-.7 2.5-1.3 1.7-.3-.4-.4 0-.5 2.2-.2 3.2-.7 4.5-1.4 4.3-.4-.1-.6 0-.7 1l-.5 2.8-.2 1.6h-2l.1 1.5c.1 1.4 0 1.5-.6 1.5s-.7.1-.7.7c0 1.3-.5 1.5-2.8 1.3-1.8-.2-2-.1-2 .4 0 .6-.7.7-1.2.2-.4-.4-.4-.3 0 .9.2.3.1.4-.2.4-.6 0-1.5-1-1.7-2.1-.1-.7-.4-1-1.8-1.4-2.3-1-3-1.4-2.7-2 .5-.4-.1-.8-1-.6-.9.1-1 0-2.3-2.2-1.5-2.5-1.2-3 .5-.8.6.8 1.5 1.7 2 2 1.2.7 1.5.7 1 0-.5-.5-1.3-2-1.3-2.4 0-.4 1.3.7 1.8 1.7l1.1 1c.4.1 1.2.5 1.7.9l3 1.2c1 .3 2 .7 2.4 1 .6.3 2.2.7 2.2.4l-.7-1.2c-.7-1-.8-1.4-.8-2.9 0-1.4-.2-2.1-1-4-1.1-2.5-1.4-3.5-1-3.2.4.2 2.2 3.7 2.2 4.2 0 .2.3.8.7 1.2.4.5 1 1.2 1.1 1.6.5.9 1 1 .7.2-.1-.3 0-.7 0-.8.3-.3.2-.8-.1-1.8-.3-.8-.6-1.8-.6-2.2 0-.3-.3-1.4-.8-2.4-1-2.1-1-2.7-.2-2.4l1 .5c.5.4 1.4 2.4 1.4 3.2 0 .8 1 4 1.3 4.2.7.5 1-3.6.4-5.5-.5-1.4-.5-2.3 0-2.3 1.4 0-1.4-3.6-3.5-4.5-1.2-.5-1.6-1.3-.7-1.3 1.7 0 4.8 2.1 5.5 3.8l.5 1 .1-1.3a6 6 0 0 0-.3-2.3l-.4-1.1c0-.2 1 0 1.2.2.2.4 1.2.8 1.2.5 0-.5-2.2-3-3-3.3-.6-.4-.7-.5-.5-.8l.8-.4c.4 0 .5-.2.5-.8 0-.5-.2-.9-1.2-1.6-.7-.5-1.5-1-1.8-1-.7-.2-.8-.8-.3-1 .7-.3 2.2.1 3 .8.4.4 1 1 1.5 1.2.5.3 1.1.9 1.4 1.3.7.9 1.1 1 1.1.4 0-.2.2-.5.5-.6.4-.3.4-.3 0-.7-.6-.4-.6-.7 0-.7.3 0 .6 0 .7-.2.4-.6-1.6-3-3.7-4.5-1.7-1.3-2-1.5-1.6-1.8 1.2-1.2 4.8 1.7 6 5 .7 1.8 1.5 3.4 2.4 4.5.4.5.5.6.6.2a22.3 22.3 0 0 0-3-8.8c0-.5.5-.6 1-.2.3.2 1.3 2 1.8 3.2l.4 1 .7-.6c.6-.6.7-1.2.3-2a.8.8 0 0 0-.9-.5c-.4 0-.8-.2-1.4-.8a6.4 6.4 0 0 0-2-1.5c-3.3-1.4-4-1.7-3.8-2.2.1-.9 1.7-.7 4.7.6.3.2.5 0 .6-.3 0-.4.3-.6 1-.6 1.2 0 1-.4-.7-1-1-.5-1.4-.8-1.4-1.1 0-.9.9-.8 2.8 0 1.4.7 2.1.9 3.4.8 1.4 0 1.7.1 1.8.5.2.5 1.4 1 1.7.7.2-.2-1.8-2-2.6-2.1l-1.3-.8c-.4-.3-1.3-.8-2-1a9 9 0 0 1-2.2-1.3c-1.2-.9-2.2-1-3.6-.4-.8.4-1.2.3-1.2 0 0-.2.4-.5 1-.8 1.2-.6 6.2-.7 6.6-.1.2.2.2.5.2.6l1 .8c1.5.7 6.5 5.8 7.3 7.4 1.2 2.3 1.4 2.6 2 2.9.4.1.8.2.9.1l-1-1.8c-1.3-2.1-1.6-3-1.6-4 0-.6 0-.7.4-.6.7.3.4-.3-1.3-1.9-.9-.9-1.8-1.6-2.1-1.6-.2 0-.5-.2-.5-.4 0-.3.3-.4 1-.4.6 0 1 .2 1.9 1.2l1.2 1.1.3-5.8c.1-4.9-.2-7.8-1-8.4-.4-.2-.5-.4-.3-.6.5-.5 1.3.6 1.8 2.2.7 2.6 1 6 .8 9.1-.4 6.2-.3 7 .6 8.6l1 1.8.2 7.3c0 .5.2 1.5.5 2 .3.7.5 1.5.5 2.3 0 .7.1 1.8.4 2.4.3 1 .4 1.7.3 3v2c.2 0 .6.6.9 1.3.8 1.6 1 3.8.5 6.2-.3 1-.4 2.8-.3 3.8V97l-1 1c-.7.7-1.4 1.2-1.6 1.2-.8 0-2 2.4-2.5 4.8-.3 1.1.2 2.5 1 2.6.4.2.6.4.5.8 0 .3.1.5.4.5.5 0 1 1 .6 1.5-.2.2-.5.2-1-.2-.7-.4-.8-.4-.8 0 0 .2-.2.3-.4.3-.5 0-.5-.3-.1-.7.1-.2.2-.6 0-1-.1-.9-.4-.6-.8.9-.4 1.4-1.3 2.5-1.5 1.9zm-32-16.3-1-.6c-.2 0 0 .3.4.6l1 .7c.2 0 0-.3-.4-.7zm38.5-8c-.2-.5-.6-1.4-1-1.9-.5-.8-.6-1-.4-2 .2-.6.2-1.1 0-1.3l-.2-1.2c0-.6-.2-1.1-.4-1.3-.3-.2-.4.2-.5 2.3a111 111 0 0 1-.2 3.1c0 .3 0 .5.2.5.6 0 1.7 2 1.4 2.4-.3.4 0 1.6.8 3.5.4.7.4.7.5-1.1 0-1 0-2.3-.2-3zm-24.6-1c-.3-.4-.3-.4-.3.3 0 .5 0 .7.3.5.2-.2.2-.5 0-.8zm-.6-1.5c0-.1 0-.2-.2-.3h-.3c0 .2.1.4.3.4l.2-.1zm16.5-2.8a41 41 0 0 0-1.3-7.9c-.3-2.5-.4-2.6-1-2.5-.5 0-.7 0-.8-.7-.2-.8-.8-1.9-1.2-1.9 0 0-.2.5-.2 1.2 0 1 0 1.3.6 1.8 1.3 1.2 2.4 4 2.6 6.4l.5 3c.3 1.1.7 1.5.8.6zm-14.2-2.5c0-.2-.1-.1-.1.2 0 .3 0 .4.1.3v-.5zm8.8-9.3c0-.9 0-1-.4-.7-.4.4-.5.9 0 1.3.4.5.4.4.4-.6zm4.4-5.9-.1-.5h-.4c-.4 0-.4 0-.1.4.3.7.9.8.6.1zm20.4 46.6v-1.8c-.1-.3-.3-1.5-.3-2.7 0-1.3-.3-2.7-.7-3.8-.6-1.6-.7-1.7-1.5-1.9-1.6-.2-2.5-1.1-3.9-3.8-1-2-1.2-2.7-1.2-3.9 0-2.1 1-5 1.5-4.2 0 .1 0 .6-.2 1a9 9 0 0 0 .6 5.8l1.4 2.2c.4.6.9 1.1 1 1.1.3 0 .9.3 1.4.6.9.6 1 .7 1.7.3.8-.4 3.4-.5 3.6 0 .5.6 4.7-.7 5.2-1.7a10 10 0 0 0 1.2-4.8c.2-2.6 0-4-.4-4-.2 0-.3.4-.3.7 0 .4-.1.7-.4.7-.3 0-.4-.3-.4-.8 0-1.1-.6-2.4-2-4-.6-.6-1.2-1.5-1.4-1.8l-.4-.7-.2.6-.5.6c-.3 0-.8-3.6-.6-4.4.1-.6-.1-1.2-2-4.7l-1.4-2.3c-.7-.8-1-1.6-.5-1.6.4 0 2 2 2.7 3.3a2075 2075 0 0 1 1.9 3.3c.3 0 1.2-2 1.2-2.6 0-.9 1-1.6 2.1-1.6 1.4 0 1.7.4 2.7 3.6.8 2.4.8 2.8.7 4.8l-.6 3.3c-.2.7-.4 1.4-.3 1.7.4.8.9.3 1.4-1.2.3-1.2.7-1.8 1.4-2.5.6-.5 1.4-1.7 2.1-3 1.1-2.3 1.1-2.3.9-4.3-.2-1.3-.4-2-.7-2.2a1 1 0 0 1-.4-.7c0-.5.2-.6 1-.5.8 0 1 .2 1.1.8v1.5a3 3 0 0 0 0 1.6v2a12 12 0 0 1-3 5.2c-1 .5-1.8 2.3-2 4.2-.1 2 .4 4.8 1 5 .3 0 .7.4 1 .9.3.7.5.8 1.2.6.6 0 1 0 1.5.4.8.6 1.3.7 2 0 .4-.3.6-.3 1.5 0 1 .2 1.2.2 2-.3 1.2-.7 1.9-1.5 1.5-1.9-.2-.2-.1-.6.3-1.5.4-.6.7-1.8.8-2.5.2-1 .1-1.2-.2-1.2-.3 0-.4-.3-.4-1.3s-.1-1.5-.9-2.7c-.5-.8-1.1-1.6-1.4-1.8-.3-.3-.4-.6-.2-1.4.2-1.2-.7-3.9-1.9-5.6l-1.2-2.1c-.2-.4-.5-.7-.7-.6h-1.2c-.7-.2-.7-.3-.6-1 .1-1 .3-1.2 1-1.2.9 0 .9.3.1.8-.7.5-.4 1.1.3.7.8-.4 1.1 0 2.5 2 1.4 2.2 2.3 4.7 2.3 6.6 0 .7.1 1.2.2 1.2.2 0 .4.3.6.7 1.1 2.6 2-3.2.8-6.2a8 8 0 0 0-1-2c-.7-.7 0-1 .8-.3 1.3 1.3 2.2 5.6 1.5 7.5-.2.6-.2.7.1 1 .6.2.6 1.2 0 1.7-.6.4-.6.5-.3 1.3.1.5.6 1.6 1 2.3.7 1.7.8 3.4 0 4.7-.6 1.3-3.2 4-4.2 4.5s-1 1.1-.5 3.7c.3 1.6.2 2-.4 1.5-.2-.1-.4-1.3-.4-2.7-.2-2.3-.2-2.5-.8-2.5h-1.2c-.6.2-.6.3-.7 2.6l.1 2.7c.2 0 .2.2.2.3-.3.2-4.3.3-4.4.1 0-.1.5-.6 1.2-1 1.6-1 1.9-1.5 1.9-2.9s-.3-1.9-.9-1.9c-.5 0-2-.9-2.3-1.3-.3-.5-1.2-.4-1.3.1-.3 1.5-2.7 4-4.7 4.8-.4.2-1.5 1-2.3 2-1.1 1.2-1.6 1.9-1.8 2.8a9 9 0 0 1-.5 1.7c-.2.4-.2.8 0 1.4.7 1.3 1 2.6.9 2.8-.2.4-1-.2-1.4-1-.5-1.1-.8-1-1 .2-.1 1-.5 1.3-1 .9zm1.7-4.3c.2-.5.4-2 .5-3.2.1-2 .2-2.1.6-2 .8.2.6-.2-.4-.8l-1-.5-.8 1c-.4.4-.7 1-.6 1.2l.6 2.9c.2 1.3.5 2.4.6 2.4l.5-1zm7.7-21c.6-2.2.7-5.2.1-6.8a11 11 0 0 0-1.8-3.7c-.6-.5-1.4 0-1.8 1-.3 1-1.5 3.1-2 3.8-.6.6 0 2 1.7 3.6.8.8 1.7 2 2.1 2.6l.9 1.2c.1 0 .5-.8.8-1.8zm-2.7-2.2c-.1-.5-.2-1-.1-1.1.3-.3 1 .7 1 1.4 0 1-.5.8-.9-.3zM173 109.2c0-.7.5-1.9 1-2.5.5-.5.6-.7.3-2.2-.2-1.9-.7-3.2-1-3.2l-1.5-1.1a9.5 9.5 0 0 0-1.8-1.4 5 5 0 0 1-1.3-1.4c-.5-.8-.6-1-.3-.7.4.3.8.4 1.1.3.4 0 .9.2 1.4.7l1.6 1c.4.2.7.5.7.8 0 .5.5 1 1.2 1 .6.2.7.9.8 4.8 0 1 .2 1.8.4 2 .3.2.1.5-.7 1.3-1.2 1-2 1.2-2 .6zm24.3-1.5c-.6-.4 0-.7 1-.6.8 0 1.1 0 1-.2 0-.5 1-.7 1.3-.3.2.2.2.3-.2.3-.2 0-.4.2-.5.5-.1.4-.4.5-1.2.5-.5 0-1.2 0-1.4-.2zm-173-.5L22 107l2.4-.2h2.5c.4.2.4.6 0 .6l-2.6-.2zm-4.6-.3c-.1-.2.1-.3.6-.3.4 0 .8.1.8.3 0 .1-.3.3-.6.3-.4 0-.8-.2-.8-.3zm160.2-.8c0-.3 1-.6 1.2-.4v.4c-.3.3-1.2.4-1.2 0zm.8-1c0-.2.2-.3.4-.3.3 0 .7-.3 1-.6.4-.6 1-.3.8.5-.1.5-.4.6-1.2.6-.6 0-1-.1-1-.3zm20.3 0c-1 0-1.3-.2-1.3-.5s.2-.4.8-.3l1.8.2c.6 0 .9.1.8.3-.1.4-.4.5-2.1.3zM6.6 105c-.3-.1-.6-.3-.6-.6s.3-.3 1.3-.2c1.2.2 5 .2 6.3 0 .3 0 .6.1.7.3.1.4-5.9.8-7.7.5zm13-.3c.1-.2.7-.4 1.3-.4.6 0 1.5 0 2-.2.6-.2 1-.2 1.2 0 .4.3-.1.5-2.5.7-1.6.1-2.1 0-2-.1zm184.2-1.4c0-.2 0-.3.2-.4.6-.3 2.2 0 2.2.3s-2.2.4-2.4.1zm-20-.3c1-.3 1.9-.3 1.9 0 0 .2-.6.3-1.3.3-1 0-1.1-.1-.6-.3zM13.2 98.4c-.5-.3-.5-.3 1.4-.4 1.9 0 2.8.1 1.7.4-1 .3-2.7.3-3.1 0zm5.2-2.3c-.6-.1-1-.3-1-.5.1-.1.3-.2.4-.1l1.6.1 2 .1c.4 0 .8.2.8.3 0 .3-2.1.3-3.8 0zm-10.7-.3c0-.2.4-.3 1-.3.8 0 1.3.1 1.3.3L9 96c-.6 0-1.2 0-1.3-.2zm127.1-3.5a11 11 0 0 1-.8-1.8c-.5-1.5-1.3-1.8-1-.4 0 .6 0 1-.2 1l-.4-1.2c-.4-3.2-.4-4-.2-4 .1 0 .9 1.4 1.6 3l2 3.4c.4.6.4 1.1-.1 1.1l-.9-1.1zm1.6-1.6c-.5-1-.6-1.8-.2-1.4.3.3.8 2 .7 2.2l-.5-.8zm22.6-1.4c0-.6.6-1.7 1-1.7.2 0 .3-.2.1-.6 0-.4 0-.5.6-.5.4 0 .6-.1.5-.3-.2-.4.7-.8 2.4-1.2l1-.2-1.4-.2c-2.7-.4-2-.7 1.4-.6 3 0 4 .2 3 .6-.3 0-.4.3-.4.5s-.3.4-.6.4c-.6 0-.6 0-.2.2.7.4.3.8-.7.8-.6 0-.9.1-.9.3 0 .3-.4.4-1.8.5-2 0-2 0-1.4.5.7.5.5 1.1-.3 1.1-.3 0-.6.2-.7.4-.1.5-1.6.5-1.6 0zm6.9-4.5a1 1 0 0 0-.7 0h.7zM31.1 88.2c-.5-.5 0-2.5 2.3-9 1-2.8 1.3-3.3 1.8-2.8.2.2.2.5 0 1.2a105 105 0 0 1-2.2 6.1c-.4 1-.8 2.6-.8 3.7 0 .8 0 1-.5 1l-.6-.2zm99.5-.7a29 29 0 0 1-2.2-5.5c-.3-1.4.3-.9.8.7.4 1.6 1 2.2.9 1v-1.8c0-1.3.5-1 .6.5 0 1.1.6 4.7.9 5.5.3.8-.4.5-1-.4zm17.4.3c-.2-.1-.4-.4-.4-.6 0-.2-.2-.4-.4-.4-.3 0-3.3-4.2-3.3-4.8l-.4-.3c-.2 0-.1-.1.2-.3.4-.4.4-.4-.3-1.6-1-1.3-1-1.7-.5-1.7s1.8 1.5 1.8 2c0 .8.7 1.6 1.3 1.5.4-.1.5 0 .8.9l.7 1.5 1 2.3c.6 1.8.6 2.1-.5 1.5zm-.7-2-.4-.2c-.2.2.1.7.5.7.1 0 .1-.2 0-.4zm-133 1.7c0-.2.5-.4 1-.5 2.4-.4 3.5-.7 3.6-.9.4-.3-.6-.6-2.1-.6-1.4 0-4-.4-5.2-.7-.4-.1-.4-.2 0-.4.5-.3 2.6-.3 2.8 0 0 .2 1.3.3 3.2.2 2.4 0 3 0 3.3.4.1.2 0 .4-.3.6l-1 .9c-.6.6-1.8 1-3.9 1.2-1.2.2-1.5.1-1.4-.2zm19.1-.4c-.2-.5.3-2.9 1-5 .5-1 .9-2.2 1-2.6.5-1.3 1.4-2.3 1.8-2 .4.2.3.5-.3 1.8-1 2-1.6 3.9-2 6.1-.3 1.5-.5 2-.9 2l-.6-.3zm153.9-1c0-.4.7-1 1-.8.1.2-.5 1-.8 1a.2.2 0 0 1-.2-.3zM8 85c-.3-.4.3-.7 1.4-.5 1.6.2 1.5.9 0 .9-.7 0-1.3-.2-1.4-.3zm181.8-2.9.2-3.4c-.1-4.8 0-4.6-1.3-4.5-1 .1-1-.6-.2-1.8.7-1 .8-1.2.5-1.9-.2-.6-.2-.8.2-1.2.4-.4.4-.4.4.6 0 1.1.6 2 1.4 2 .6 0 .9.5.4.7-.3 0-.4.4-.3 1.2.2.8.1 1.1-.3 1.4-.4.3-.4.4 0 2 .4 1.5.4 1.9 0 3.7-.4 2.2-.5 2.6-1 2.6v-1.4zm-40.2-1.4-.2-2c-.2-1.2.5-.7 1 .7.4 1.2.4 1.5.1 2.1-.4 1-.7.8-.9-.8zm-1.8-.3c-.3-.8-.6-1.3-.7-1.3-.3.3-1-.4-1.2-1 0-.6-2.8-3-4.5-3.8l-1.1-.6 1 .2c.6 0 1.6.5 2.3.9 1 .7 1.2.7 1.5.3.3-.4.4-.4 1.2.2 1.7 1.2 2.7 2.8 2.3 3.9a2 2 0 0 0 0 1.3c.2.5.2.8 0 1-.1.2-.4-.2-.8-1.1zm-.6-2.6c-.5-.6-.7-.4-.4.4.2.5.3.6.6.3.2-.2.2-.4-.2-.7zM17.4 80.7c-.3-.2-.2-.4.3-1 .3-.5.7-.9.8-.9.2 0 .2-2.2.1-7.2l.1-7.3c.3 0 .5 2.7.7 9.9.2 4.4.2 4.7.8 5 .3.3 1 .5 1.4.6.5 0 .8.3.8.5 0 .5-1 .7-2 .4-.6-.1-1.2-.1-1.6 0-.8.3-.9.3-1.4 0zm42-1.2c-.6-.3-1-1.3-.5-1.8.2-.2.5-.1 1 .3.7.7 1.2.7 1.2.1 0-.3.1-.7.3-1 .3-.4.4-.4.8 0 .6.6.6.6 0 1.6s-1.8 1.3-2.8.8zM205.8 78c.3-2.6 0-3.7-1.4-6-.7-1.1-1.2-2.1-1.1-2.4.1-.5-.3-1.3-.6-1l.1 1.2.3 1.5c0 .7-.5.5-.8-.4-.3-1-.4-1-1-.3-.5.4-.6.4-1.1-.2-.5-.5-.7-.6-1.6-.4-.9.1-1 .1-1-.4 0-.3.2-.6.6-.7.3 0 .8-.4 1-.6.5-.4.6-.3 1.3.4.4.4.8.7.9.6l.2-1.2.2-1.2h-1c-.6 0-1.1.2-1.1.3 0 .4-.7.3-.9-.1-.1-.3.6-1.1 1.4-1.6.2-.1.6 0 1 .4l1 .5c.3 0 .4.1.4.3l.7 1c.3.4.7 1.1.8 1.6.1.5.3.8.5.7.4-.1 1.4-3.3 1.4-4.5 0-1.2-.2-1.6-1.1-1.8-1-.2-.8-1.3.3-1.6.7-.2 1.2.6 1.7 2.6.2 1.1.2 1.6-.3 3.6-.4 1.2-.8 2.4-1 2.6-.4.5-.5 1-.1 1l.7 1c.8 1.6.6 6.7-.2 6.7-.3 0-.3-.3-.2-1.6zM15 79.2l-6.5-.1c-5.2 0-6.5 0-6.7-.4-.5-.6.8-1 1.6-.6.5.2 2 .3 6.3.3h5.7l.2-2.4.2-11.8.1-9.6c.1-.1.3 0 .4 0a269.7 269.7 0 0 1 0 24l.2.5c-.2.3-1.3.4-1.5.1zm107-.6c-.8-.4-1.1-1-1.1-2s.6-.8 1 .1l1 1.4c.3.3.5.7.4.8-.1.3-.3.3-1.3-.3zm-71.7-.3c-1.1-.4-5-5-4.7-5.7.2-.6.5-.4 1 .4 1 1.4 2.9 3.4 4 4.1.5.4 1 .8 1 1 0 .3-.7.4-1.3.2zm98.2-1.6c-.3-.4-.7-1-.7-1.2 0-.7.8-.4 1.3.5 1 1.6.6 2.1-.6.7zm-21.1-.9c-.5-1-.6-1.5-.2-1.5.4 0 1 1.2 1 1.8 0 .9-.3.8-.8-.3zM55 75.4l-.3-.7c0-.2-2.3-1.4-2.8-1.4l-.8-.5-2.2-1.5c-1.4-1-1.9-1.6-1.9-2.8 0-.5.9-.2 1.2.5.2.5.8 1 1.2 1.3a30 30 0 0 0 5.8 3.1c.5.2.6.3.4 1l-.2 1c0 .3 0 .3-.4 0zm76.9-1.2-.3-1.3a11 11 0 0 0-.3-1.3c-.1-.3 0-.4 0-.4.5 0 1.3 2.6 1 3h-.4zm-2.8-2.4c0-.2 0-.4.2-.4s.3.2.3.4c0 .3-.1.4-.3.4-.1 0-.2-.1-.2-.4zm-64.8-1c-.5-.4-.6-.7-.5-1.3 0-1 .8-1.2 1.2-.3.6 1.2 1.9.5 1.9-1 0-1 .3-1.2 1-.8.3.2.3.6.2 1.5-.2 1-.4 1.4-1 1.8-1 .6-2 .6-2.8 0zm150.2 0 .3-.6c.5-.5 1.6-4 1.6-5.2 0-1-.1-1.4-.8-2-.5-.5-.7-.9-.6-1 .5-.2 1.8 1.4 2 2.4.3 1.2-.2 3-1.2 5.1-.7 1.6-1.3 2.1-1.3 1.3zm-23-2c0-1.4.4-1.7.8-.7.2.4.2.8 0 1.3-.4 1.1-.7.9-.7-.6zM53.2 69l-1.7-1c-1.3-1.1-4.1-3.2-4.3-3.2-.3 0-1.1-1.4-1.1-2 0-.6.7-.4 1.3.4.3.5 1.2 1.3 2 1.8l2.8 2a14 14 0 0 0 2.2 1.3c1.4.6 1.5.8 1.2 1.2-.5.5-.7.4-2.4-.5zm137 .2c-.3-.9-.2-1.2.4-1.2.8.2 1 1.6.3 1.6-.3 0-.6-.2-.7-.4zm5.3 0c-.3-1.8-.3-12.2 0-13.3.5-1.4.5-6 0-11.8-.3-3.8-.4-7.5-.4-14.9a123 123 0 0 0-.2-13.3c.2-3.6 0-4.4-1-5-.9-.4-1-.8 0-.8.8 0 .9-.5.6-3.6a20 20 0 0 1-.1-2.8c0-.1.4-.1.8 0 .6 0 .6 0 .7 3.3l-.2 14.5c-.1 7 0 10.5.2 12.5s.2 3 0 3.5c-.3.5-.2 2 .2 6.6a37.4 37.4 0 0 1-.2 13.4 82 82 0 0 1 0 11.8c-.2 0-.4 0-.4-.2zM33.7 63.6l.2-14.8c.2-11.5.4-22.3.6-23.2 0-.3.2-.6.4-.6s.3 1.2.1 4.2c-.4 11.2-.5 11.7-.1 12.1a56.1 56.1 0 0 0-.3 11.9c-.1 10.8-.3 15-.7 15.2-.3 0-.3-1-.2-4.8zM0 67.4c-.2-.7 0-10.2.2-14.6.5-9.5.7-12.3.6-13-.1-.7 0-1 .3-1s.4.6.2 5.2A253.8 253.8 0 0 0 1 59.8c0 5.6-.2 8-.4 8.1-.1 0-.3-.2-.4-.5zm210 0c-.5-.5-.7-1-.8-2l.1-1.4c.3 0 .7 1 .8 2 0 .2.3.7.6 1 .8.9.2 1.2-.7.4zM75 66c-.7-.5-.4-1.4.4-1.2.3 0 1 0 1.6-.2.6-.2 1.2-.3 1.3-.2.5.5-.1 1-1.3 1.5-1.5.5-1.4.5-2 0zm-49-.6c-.2-.6 0-1.8.4-1.6.3.2.3 1.2 0 1.7-.2.3-.3.3-.4 0zm157.7-5.9a516.5 516.5 0 0 0-.6-16.9s1.2-.2 2.5-.2l4.4-.3h2c-.2.2-1.2.4-2.3.5-2.8.3-3.8.4-3.8.7 0 .3 1.7.3 4.1-.1 1.3-.2 2.3-.3 2.4-.1.4.3 0 .5-1.7.6l-3.2.3c-1.2.3-1.6.2-2.4-.2l-1.2-.5v3.4c.4 6.2.5 18.3.3 18.3s-.4-2.3-.5-5.5zM6 57.7C6 47.4 6 47 6.5 47c.3-.1.3 1.3.3 7 0 7.8-.1 10.1-.6 10.1-.3 0-.3-1.6-.2-6.3zm175.5.2c.1-5 .2-5.8.6-5.4.3.2-.2 10.7-.5 10.7a20 20 0 0 1 0-5.3zm26.6 4.4c-.6-1.3-.6-1.5 0-1.4.6.1 1 1.7.7 2.1-.2.2-.4 0-.7-.7zm-10.8-1.6c-.1-1.2 0-2.7 0-3.2.2-.6.3-2 .3-3.3 0-3.6-.5-16-.8-18.3-.3-2.7-.6-25.9-.3-27.3.3-1.5.5 5 .5 16.1 0 4.8.1 8.8.2 8.9.1.2 1.2 18.6 1.2 21.8 0 1 .6.3 2-2.5.9-2 1.3-3 1.1-3.2-.2 0-.2-.3-.1-.5l2-3.5a313.5 313.5 0 0 0 11.9-21.9l.5-.5c.4 0 .3.7-.1 2-.1.5 0 .6.2.6 1.2 0 1 .5-4.8 10l-5.3 9.1c-.9 1.7-1.3 2.2-1.3 1.5 0-.1.3-.9.8-1.6a6 6 0 0 0 .8-1.6c0-.2 0-.5.2-.6a64.3 64.3 0 0 1 3.6-6.2l2.8-4.7c3-5.1 3-5.2 2.6-5.5-.1 0-.4.2-.5.6a23 23 0 0 1-1.5 2.6l-1.2 2-.7 1.4L209 37a120.7 120.7 0 0 1-6 10.5c-.7 1-.4 1.4.3.6.4-.5.7-.7.8-.7.2.2-.6 1.6-1.1 2-.5.5-1.4 2.4-2.6 5.5-.4 1-1 2.2-1.4 2.6-.4.5-.6 1-.6 2 0 1.7-.4 3.3-.7 3.4-.2 0-.4-.7-.4-2.2zm15.5 1 .3-3.2c.1-1 .3-1.5.4-1.3.5.8 0 5-.6 5.6-.2.2-.2-.1-.1-1.2zm-6.6-.3c-.3-.5.4-.8.8-.5.2.2.3.4.2.5-.2.3-.8.3-1 0zm5-4c0-1.6-.2-3.2-.5-4.2-.5-2-.7-2.2-1-2-.4.3-2.6 4-3 5.3-.3.6-.5.7-.6.4-.3-.4.1-1.2 1.3-3a51.1 51.1 0 0 0 2.6-4.6l2-3a452.6 452.6 0 0 1 6.5-11.6c.4-.7.8-1.4.8-1.7 0-.2.1-.5.3-.5 1 0-1 4-6 12.2l-2.4 4-.6 1 .6 2.3c.7 2.4 1 6 .6 7.2-.4 1.2-.6.6-.6-1.9zM18.3 59c-.2-.3.1-4.9.3-4.7.3.3.4 4.7.1 4.8l-.4-.1zm7.9-1.4c0-1.8.3-3.8.5-3.5.3.4 0 4.9-.3 4.9-.2 0-.3-.6-.2-1.4zM160 58c0-.4 3.3-2.3 3.6-2 .3.3-.4 1-1 1.1a3 3 0 0 0-1.3.7c-.5.5-1.3.7-1.3.2zM42.7 51a2707.3 2707.3 0 0 0 .2-36.3l.2-8.5c0-4.9 0-5.4.6-5.4a420.2 420.2 0 0 0 0 18.3 1966.8 1966.8 0 0 1-.4 36.3c0 1.3 0 1.8-.3 1.8s-.3-1.2-.3-6.2zm159.6 1.7c.1-1.7.2-2 .6-1.4.4.7.2 2.8-.3 2.9-.4 0-.4-.2-.3-1.5zm-186.5.8c-.1-.7-.2-2.7-.4-12.6 0-7.4-.2-11.2-.4-11.4-.2-.2-.3-.2-.4 0-.2.6-1 .4-1.2-.1-.2-.5-.1-.6.6-.4.6.1.8 0 .6-.1 0-.2 0-.4.3-.5.2 0 .4-.4.4-.6 0-.3.2-.5.4-.5s.4.1.4.3c0 .3.2.4.6.4.3 0 .7.2 1 .4.1.2.3.1.5-.4.3-.7 1.2-1.8 1.4-1.8l1 .6c.9.6 1 1.2.3 1.6-.2.2-.3.4-.1.5.3.2.6 0 1-.7s1.3-.9 1.5-.3c.1.2 0 1-.1 1.7l-.3 1.4h-1.3c-1.2 0-1.2 0-1.5-1a4 4 0 0 1-.2-1.8c.2-.7.2-.7-.3-.4-.3.1-.8.6-1.2 1-.5.8-.6.9-1.5.7l-.9-.2.2 12.2-.1 12.2c-.2 0-.3 0-.3-.2zm6.8-24.7c0-.1 0-.2-.2-.2-.1 0-.2 0-.2.2v.3l.4-.3zm181 24c0-.6.2-1.3.3-1.5.2-.3.3 0 .3.9 0 .7-.1 1.3-.3 1.4-.1 0-.2-.3-.2-.9zm-185.3-.5.1-1.6c.2-.7.3-.7.4.7 0 1.7-.2 2.3-.5 1zm194.4.5-.2-1.5c-.1-.6 0-1 .1-1 .4 0 .7 2.4.4 2.7-.3.2-.3.1-.3-.2zm-68.8 0a.6.6 0 0 1-.3-.6c0-.3.3-.3 1.1-.2 1.6.2 1.9.3 1.7.7-.2.2-1.9.3-2.5 0zM26.4 51.2c0-.5.1-.7.3-.6l.2.6c0 .3 0 .6-.2.7-.2 0-.3-.2-.3-.7zm180.7-.7a133.8 133.8 0 0 0 7.4-12.2 109.4 109.4 0 0 0 4.8-8c.7 0 .5 1-.6 2.6l-2 3.2c-.6 1.4-1.6 3-2 3.2l-.7 1.3c-1 1.8-1.2 2.1-1.7 2.6a94 94 0 0 1-4.8 7.2c-.3.3-.4.3-.4.1zm5.2-.8c-.2-.2-.2-.9 0-.9.4 0 .7.8.4 1h-.4zm-70-.8c-1-.2-1.1-.7-.2-.8 1-.2 2.8.2 2.8.6 0 .4-1 .5-2.6.2zm14.2 0v-2.6c.2-1.3.3-2.6.2-3-.3-1.3-.5-4.6-.4-8.3 0-3-.1-3.8-.4-4.2-.3-.3-.4-.7-.3-1.5a55 55 0 0 0 0-9.2c-.1-.5 0-.6.4-.6 1 0 1.2-.6 1.1-3.8 0-4.5 0-5 .3-7 .1-1.2.2-2.4 0-3.4-.3-1.7-.2-2.1.4-2.3.6-.3 1 .1.5.4-.5.3-.5 1.4-.1 2.5v3c-.2 1.2-.4 4.2-.4 6.5 0 3.6-.1 4.4-.5 4.7-.3.2-.4 1-.5 4.4-.1 2.8-.3 4.4-.5 4.8-.3.5-.3.6 0 .9.5.3.6 1 .7 5 .1 5.3.2 6 .5 7.9.4 2.4-.4 6.8-1 5.8zm-138-.6.2-1.4c.2-.7.2-.6.3.6 0 .7-.1 1.3-.3 1.3-.1 0-.2-.2-.2-.5zm187.9-1c-.7-.4-.8-.7-.2-1 .6-.2 1.2.3 1.2 1 0 .6-.2.6-1 0zM26 46.2c0-.8.1-1 .3-.7.3.5.3 1.9 0 1.9-.1 0-.3-.5-.3-1.2zm135.5.7c0-.2.2-.3.5-.4.7-.2 6.1.1 6.1.4 0 0-1.5.2-3.3.2a12 12 0 0 1-3.3-.2zm-77-1.3-.2-1.6c-.5-.4-.9-3.2-.6-4l.3-.7.4.6c.3.4.4.9.3 1.4-.2.8 0 1.6.3 1.6l.9-.6c.8-.7.9-.2.1 1.3l-.8 2.2c-.3 1.4-.7 1.3-.7-.2zm7.3 1c.2-.6 1.8-1.6 1.7-1l-1 .8c-.6.4-.8.4-.7.1zM6.2 46l-.1-5.5c0-3-.1-5.6-.2-5.8-.2-.5.4-.8.7-.4.3.5.3 11.6 0 11.8h-.4zm12.6-.9c0-.5 0-.7.1-.4v1l-.1-.6zm68.7-.6c0-.2.1-.4.3-.4.1 0 .2.2 0 .4l-.2.4v-.4zm-68.7-6.2.3-5.4c.5-1.1.6-.2.5 2.5-.2 6-.4 7.9-.7 7.9-.2 0-.2-1.5 0-5zm7 3.8c0-.2.2-.4.3-.4.2 0 .3.1.3.3l-.3.4c-.1 0-.2 0-.2-.3zm139.6-.7c-2.1-.3-2.6-.8-.8-.8 1.7 0 5.5.6 5.5.9 0 .3-2.2.2-4.7-.1zm3.2-1-4.2-.2c-.7 0-1-.2-1-.5s.2-.4.5-.3l4.6.2c3.9 0 4.2 0 4.2.4-.1.6-.1.6-4 .4zm5.8 0c-.2-.2-.3-1-.2-2 .1-1 0-1.6-.1-1.7-.5-.3.5-3.2 1-3.1.3 0 .4.3.4.8l-.4 6c0 .3-.4.3-.7 0zm10.5-5.1a109.2 109.2 0 0 0 0-8.7c.5 0 .9 13.8.3 14-.2 0-.3-1.1-.3-5.3zM25.7 39.8c-.2-.4.1-1 .5-.8.3.2.3 1.2 0 1.2-.2 0-.4-.2-.5-.4zm62.5-.1v-.6c0-.1.2-1 .1-1.8 0-1.7.1-1.8.7-1.2.3.3.3.8.2 2-.2 1.6-.6 2.2-1 1.6zm-12.8-1c0-.4 0-1 .2-1.1.2-.3.3-.3.3.2 0 .4-.1.9-.3 1-.2.4-.2.4-.2-.2zm-50-.3c0-.2.1-.3.3-.3.3 0 .4.1.3.3l-.3.2-.2-.2zm56.5-.5c-.6-.1-.5-.7.1-.8.2 0 1-.6 1.7-1.2 1.4-1.4 2-1.6 2.7-1 .4.3.4.3 0 .6-.2.2-.6.7-.7 1.1-.2.6-.2.7.1.7.2 0 .4.2.4.3 0 .5-2 .6-2.7.2-.3-.2-.6-.2-.8 0-.2.1-.6.2-.8.1zm81.7 0c-.2-.3.2-3 .5-3.2.4-.3.5.3.3 1.8s-.4 2-.8 1.4zm5.7-.7c-.3-1-.2-1.7.2-1.7.2 0 .6 1.4.6 2.3 0 .7-.5.3-.8-.6zm-108.2-1c-.4-.5-.7-1.8-.4-1.8.3 0 1.2 1.4 1.2 1.8 0 .4-.4.4-.8 0zm96.9 0a459.7 459.7 0 0 1 6.6-15 211 211 0 0 1 5-11.8c.4-.8.7-1.6.6-1.7-.3-.3-.6.4-1.6 2.9a44 44 0 0 1-3.6 7.7c-.4 0-.3-.4.7-2.7 1-2.4 2.5-6.7 3.3-9.6.6-2.2.8-2.5 1.7-2 .6.3.7.3 1 0 .7-.5 1.3 0 .8.7l-.6 1a1154.1 1154.1 0 0 0-11.4 27.1c-.2.6-.1.8.4.9.6.2.4.5-.4.5-.4 0-.8.4-1.2 1.1-.3.6-.8 1.1-1 1.2-.3 0-.4 0-.3-.3zm2.6 0c-.1-.5.4-1.3.7-1.1.3.1 0 1.1-.3 1.3 0 0-.3 0-.4-.3zm37.5.1v-2.6c0-.3.2 0 .3.8.2 1.2 0 2.4-.3 1.8zm-171.8-1c.1-.6.2-8 .2-16.4l.1-15.7c0-.1.3-.3.5-.3.4 0 .4.4.2 5-.2 5-.3 9.4-.1 20.8 0 6-.1 7.5-.8 7.5-.2 0-.3-.3-.1-1zm55.1.6c0-.2 2-2.1 2.7-2.6.9-.7 1.8-.6 2 0 .2.7 0 1-.5.6-.5-.5-1-.3-2.3.9-1 1-1.9 1.5-1.9 1zm86.4-1.3-2.2-.4c-.4 0-.8-.2-.8-.4s.6-.2 1.9-.1c3.4.3 4.2.5 4.2.9s-1 .4-3 0zm-88.6-.8-.2-2.2c0-1.4 0-1.8.3-1.8.2 0 .3.6.4 2.1 0 2-.2 2.8-.5 1.9zm122.6-9.5c0-9.7-.1-14.2-.4-16.7-.1-1.3.2-1.7.5-.5.3 1.3.5 27 .2 27a63 63 0 0 1-.3-9.8zM167.4 33l-3.2-.2c-1.4 0-1.8 0-1.8-.4 0-.6 1.3-1 2-.7.2.2.8.2 1.4.2a6 6 0 0 1 2.4.2c1.9.6 5 .3 5.5-.5.5-.7.7-8.8.4-15.6-.2-5.7-.1-8.1.2-8 .4.1.6 18.8.3 22.4l-.2 2.8h-2.7c-1.6 0-3.5 0-4.3-.2zm20.4 0c.6-.6 1.8-.8 1.8-.4 0 .5-.5.7-1.5.7-.6 0-.6 0-.3-.3zm10.3-1v-3.3l.4-10c.2-8.8.4-14.3.6-14 .4.3-.2 21.9-.7 26.8l-.2 1.7zm6-12c0-7.8.2-11.7.4-12 .2-.1.3 1.5.1 6l-.1 12c0 4.2-.1 5.8-.3 5.8-.3 0-.3-3-.2-11.8zm-31.8-.6c0-8.2 0-9.9.4-9.9.3 0 .3 1.6.2 9.7 0 5.3-.2 9.8-.3 9.9-.2.1-.3-3.8-.3-9.7zm-97.2 7.2.3-1c.4-.6.1-1-.4-.5-.6.5-.5.2.4-1.6 1-1.9 2.7-3.8 4.3-4.7 1.4-.7 1.8-.7 1.7.2 0 .5-.3.8-1 1-.6.1-1.1.6-1.6 1.4-.5.7-.8 1.3-.8 1.5 0 .4 1.4 1 2 .8.1-.1.4 0 .6.2.3.4.2.5-1 1.2-.6.5-1.5 1-1.9 1l-1.2.5c-.6.5-1.4.5-1.4 0zm58.5-.4a58 58 0 0 0-8.4-.2c-6 0-8.1 0-8.4-.3-.1-.2-.2-.3 0-.3h8.6c7.3-.1 8.5 0 8.7.3.5.7.2 1-.5.5zM20.7 26c-.2-.4.6-2.3 1-2.4.4 0 .5.1.5.7 0 .5-.2 1.1-.3 1.4-.3.5-1 .7-1.2.3zm-5.2-3.6v-5.3c.2-1.2.3-5.4.3-9.3l.1-7.5c.1-.2.4-.3.7-.3.5 0 .5.2.5 1.3 0 .7 0 1.9-.2 2.7a287 287 0 0 0-.7 18.7c0 1.8 0 2.8-.3 2.9-.2 0-.3-1-.4-3.2zm1.4.4.2-5.7c.2-1.6.3-4.8.4-7 0-3.6.1-4.2.5-4.2.7-.2.8 1.8.2 2.3-.6.5-.6.3-.2 9.3.2 4.3.2 5.9 0 6.1-.2.2-.3.7-.3 1.2 0 .6-.2.9-.4.9-.4 0-.4-.5-.4-2.9zm93.8 2.6c.2-.3 1.4-.3 2 0 .2.2 0 .3-1 .3-.7 0-1.1-.1-1-.3zm77.7-.2c-.3 0-.6-.3-.6-.5 0-.4.5-.4 2.1-.4 1.3.1 1.5.4.5.8-.8.3-1 .3-2 .1zm-17.6-.5v-4a69 69 0 0 0-.2-8.6c.3-.3.4.3.8 4.5a23 23 0 0 1-.3 7.8c-.1.3-.2.5-.3.3zm5.5-9.6-.3-8.6c0-1.7 0-2 .3-2 .3.1.4 1 .6 5.2a986.8 986.8 0 0 0 .1 9c0 5.3-.5 3.2-.7-3.6zM125.8 20c-.2 0-2.4-.2-5-.2-3.4 0-4.6-.2-4.6-.4 0-.5 13.1-.6 14 0 .4.2.3.2-1.8.3l-2 .2a1 1 0 0 1-.6 0zm17.5-.2.3-.2c.2 0 .3.1.3.2 0 .2-.1.3-.3.3a.3.3 0 0 1-.3-.3zm1.2-.3c0-.3 5.7-.7 6.7-.5.4 0 .6.2.6.4l-3.8.3c-2.4 0-3.6 0-3.5-.2zm16.8-5.5c0-5 0-5.2-.2-2.4a574.8 574.8 0 0 1-.5 4c-.1 0-.2-2.6-.2-5.8 0-4.5 0-5.8.2-5.6l.6.3c.2 0 .4.9.5 2a88 88 0 0 1-.1 12.7c-.2.1-.3-1.6-.3-5.2zm17 4.6a80 80 0 0 0 .1-9.6c-.2-3.7-.1-5 .1-5 .3 0 .4.7.3 7.4 0 4.9-.3 7.7-.6 7.2zM59 16.3c0-.2.6-.3 1.4-.3.8 0 1.3.1 1.4.3 0 .3-.3.4-1.4.4-1 0-1.5-.1-1.4-.4zm124.8-1.5-.1-5.6c-.2-4.1-.1-5.2.5-5.2.4 0 .4.7.4 4.8 0 5.3-.2 7.6-.5 7.6-.2 0-.3-.7-.3-1.6zM163.2 16a610.5 610.5 0 0 1-.4-11c-.2-.6-.1-.6.3-.6.5.1.5.5.5 5.8a44 44 0 0 1-.4 5.8zm-12-3.1c-.1-.2-.2-.4 0-.5.2-.2.4.1.3.5-.1.3-.2.3-.3 0zm-133-2.1c0-1.7 0-2.2.3-2 .2.2.2.9 0 2.3l-.2 1.9zm111.6.8c-1.4 0-2.3-.2-2.3-.4 0-.3 10.2-.1 10.6.2.2.3-2.9.4-8.3.2zM59 11c0-.1.5-.3 1-.3s1 .2 1 .3c0 .3-.2.4-1 .4s-1-.1-1-.4zm4.7.1c0-.2 2.2-.5 4.4-.5 1.3 0 1.7 0 1.7.4 0 .3-.5.4-3 .4-1.7 0-3-.1-3-.3zm17.5-2.9c0-.1 0-.3.2-.4.4-.2 12.7-.4 12.8-.2.1.2 0 .4-.1.5-.5.3-13 .4-13 .1Zm57.4-.8c0-.6 4.2-.6 4.8 0 .2.2-.4.3-2.2.3-1.5 0-2.6-.2-2.6-.3zm-21.4-1.9-.6-.7c0-.1-1.7-.2-3.8-.1-2.2 0-3.9 0-4-.2-.3-.4 1.3-.6 4.9-.7 3.4 0 3.6 0 3.9.6l.6 1c.2.3.1.7-.2.7l-.8-.6zm10.2-.4h-2.7c-2.6 0-4.4-.2-4.4-.6 0 0 2.7-.2 6-.2 4.9 0 6 .1 6.1.4.1.3-.1.4-1.2.3h-2.5c-.7.1-1.3.2-1.3 0zM104 4.8c-.8-.1-.6-.7.2-.6l2 .1c1.4 0 1.6.5.1.5a8 8 0 0 0-1.4 0h-1zm-1.4-.3c0-.1.1-.3.3-.3.1 0 .2.2.1.3l-.3.3-.1-.3z"/>
</svg>
