<?xml version="1.0" encoding="utf-8"?>
<svg xmlns="http://www.w3.org/2000/svg" xmlns:svg="http://www.w3.org/2000/svg" version="1.1" viewBox="0 0 238 241">
  <title>Duchess stands up in her chair with her tongue hanging out. In front of her on the table is the empty pie dish.</title>
  <path d="M86 240.1c-.8-.3-1.2-.3-2 0h-3.4l-5.8-.6-5.3-.7a65 65 0 0 0-8-1.2c-2.6-.2-4.7-.6-6.6-1-.6-.1-2-.2-3.2-.1l-4-.1a275 275 0 0 0-3.4-.5c-.7 0-1.7-.5-2.4-.9a9.6 9.6 0 0 0-6-1.3l-2 .1-.8-.5c-.4-.4-1.7-.8-2.7-1a74.7 74.7 0 0 1-6.6-1.3c-.5 0-1 0-1-.2s-1-.5-2-.9a12.8 12.8 0 0 1-6.6-3.9c-2.2-2.3-2.5-2.5-6.2-3.7-1.5-.5-3-1-3.5-1.3-.4-.3-1.1-.6-1.6-.7-1.4-.3-2.2-.7-2.4-1.3a2 2 0 0 1-.1-.8s0-1.2-.3-2.4c-.3-2.6 0-4 1.2-5.3 1.4-1.4 5.8-2.6 9.8-2.6h2.8v-.6c0-.4-.4-1.6-1-2.7-1.5-3-1.6-3.5-.6-4.6.5-.4.8-1 .8-1.2 0-.2-.8-.7-1.8-1.2-2.3-1.2-3.6-2.3-4-3.5-.4-1.3-.2-2 1-3.3 1.4-1.3 2.8-2 5.6-2.8 2.7-.7 3.5-.8 5-.5.8.1 1.5 0 3.5-.7l2.5-.8h3.7a130.6 130.6 0 0 1 22.2 1.3h1.5l.4-.6 1-2.2c.6-2 1.4-3 2.7-3.9 1.2-.8 1.3-.8 2.4-.1 1.7 1 1.8 2.6.3 5.4-.7 1.4-.8 1.7-.5 2 .5.6 2 1 3.5 1 1.4 0 3 .8 3.1 1.5l.1.5-1.3-.2c-3.6-.5-3.6-.5-5.2.3-.8.5-1.8.9-2 .9-.3 0-.5 0-.5.2s-.2.3-.4.3c-1 0-.7-2.8.3-3.8.8-.9 2-2.9 2-3.6 0-.3 0-.6.2-.7.4-.3.3-1.3-.3-1.8-.4-.4-.7-.5-1-.3-.7.5-1.9 2.3-1.9 3 0 .3-.1.6-.3.7l-.2.8c0 .3-.1.7-.3.8a9 9 0 0 0-.5 2.3c-.4 2.2-.2 3.4.7 3.4.2 0 .6.2.9.5.3.4.6.5 1 .4 1-.5 2.7-.8 2.8-.6l.8.2c1 0 3 .6 3 .9 0 .3-2.4 2.5-2.7 2.5-.2 0-.5.3-.7.6-.4.5-1.6.7-1.6.3l.5-.8.6-.8c0-.2-1.5-.7-3.1-1-1-.1-1.2.2-1.8 2.9-.6 2.4-.5 2.6.2 2.6.4 0 .7-.2.7-.3 0-.2.2-.3.4-.3.3 0 .2.2-.2.7-.4.4-1 .6-1.4.6-.4 0-1 .3-1.4.6l-.6.6-.7-.4-.7-.3-.6.7c-.7 1-.8 1.5-.2 2.5l.5.7-2.1-.2a20 20 0 0 1-3.5-.6l-5.1-1c-4-.5-4.6-.8-3.7-1.5.4-.3.5-.7.5-1.5 0-1.5.9-2.8 3.3-4.6 2.7-2.1 3.3-2.5 4.9-3.3 1.4-.7 2.4-2 2.4-3.4 0-.7-.8-1.5-1.5-1.5l-1.7-.4c-.7-.2-2-.4-3.4-.4h-7.7c-5.8-.2-6.8-.1-8.2 1l-.9.6-1.6-.2c-1.4 0-1.8 0-2.8.5l-1.8 1c-.9.8-1.8.7-2.3-.1-.6-.9-1.3-.8-2.8.1-1.4 1-1.8 1.5-1.8 2.8 0 .7.2 1.1 1 2 1.3 1.2 5.6 3.3 8.4 4.2l5.4 2c.6.3 1.6 1 2.1 1.5.8.7 1.3 1 2.7 1.3a119.8 119.8 0 0 1 7 1.4c4.7 1 6.7 1.6 6.7 1.8l1 .2c1 0 4 .6 5 1 .2 0 .4.3.4.4 0 .2.7.2 2 .1s2.1 0 2.5.2c.4.1 1.5.3 2.5.3 2.5 0 6.5.4 8.8.7 1.6.2 2 .2 2.3-.1.7-.8.5-1.2-.9-1.4-2.4-.3-5-1.2-5-1.7 0-.1-.4-.3-.8-.3-.3 0-.6 0-.5-.1l2.6-.2c2.2 0 4.1.4 5.6 1.2.5.2 7.9 0 11.8-.3a153.2 153.2 0 0 1 7.6-.7c.9-.2 1.3-1.2 1-2a10 10 0 0 0-4.3-2.6l-2-.7c-1-.5-3.2-1.2-4.2-1.2-1.4 0-3.3-.5-4-1.1l-.7-.6h-2.8c-3.7.2-7.2.6-7.6 1-.3.3-.1.5.9.9.6.3 1.6.6 2.2.7l1 .2-.8.7-2.1 1c-1.3.5-4.2 1.9-4.7 2.3-.3.2-.3.4-.1.6.1.2.2.5.1.8-.3.9-3.8.3-3.8-.7l.4-.2c.3 0 .3-.2-.2-.6-.4-.5-.8-.6-1.5-.5-.6 0-.8 0-.8-.3 0-.4 1.4-1.8 1.8-1.8.3 0 2-1.6 3.3-3.2a6 6 0 0 1 1.6-1.6c.2 0 .7-.3 1.2-.8l1-.7 1.6-1.5 1.5-1.5-1 .1a145.5 145.5 0 0 0-2.3.4c0-.3 1.5-1.8 1.8-1.8.2 0 .3-.2.3-.5s.3-.5.6-.6l1.2-.3c.5-.2.6-.1.6.5 0 .3-.1.7-.3.7-.1 0-.2.1-.2.4 0 .2 0 .4.2.4.4 0 .3.6-.2 1.6l-.5.9.7.3 2 .6 3.3 1 3.6.8 4 1c1.3.5 3 1 3.7 1 6.1.8 11.3 4.6 9 6.7a6 6 0 0 1-3.1 1.1c-.4 0-1 .2-1.4.4l-.7.4.7.1c2.4.5 10.5-1.1 13.7-2.8.9-.4 1.7-1.7 1.7-2.5 0-.7-1.6-2-3.2-2.8l-3.8-1.8c-2-.9-4.1-1.6-5.7-2-.5 0-1.7-.4-2.7-.7a59 59 0 0 0-7.7-1.5 157.5 157.5 0 0 1-10.3-1.9l-2-.3v-.6c0-.3.1-.7.3-.7.3-.1.3-.2 0-.2-.4 0-.4-.8 0-1.7l.3-.7-1.3-1.2c-1.8-1.5-2.1-2.6-1.7-5 .4-2.4 0-3.3-1.4-4.2l-1.1-.8h-1.9c-3.5.2-5.9-.8-7.4-2.8-3-4-3.5-5-3.5-7.2 0-3 2.3-7.5 4.3-8.3a296.4 296.4 0 0 0 5.3-2l7-2.6 3.5-1c1.7-.2 3.1-.7 5.3-1.8 1.6-.8 3.1-1.4 3.3-1.4.7 0 .8-.7.6-2.7a14 14 0 0 0-1-4c-.4-1-.8-2.2-.8-2.6 0-1.1-1-2.8-2.4-4.4-1.8-2-3-5-4-10l-.8-2.4-.6-1 .4-1.5c.4-1.8 2.8-6.7 4-8.1 2-2.2 2.2-3.5 1.1-5-.8-1.2-.8-1.6-.1-3 .6-1.3.7-2 .2-2.5-.2-.2-.5-1-.7-1.6l-.3-1.3 1-1.8c1-2 1-2.4.5-3-.7-.5-.5-2 .6-4.1l1.3-2.3c.5-.3.3-1-.5-1.8-.4-.4-.8-1-.8-1.2a8 8 0 0 1 1.8-3.6c.8-.6.8-1 0-1.3-.4-.2-.6-.6-.7-1.3v-1l2.7-2.7c2-2 3.3-3 4.9-4 2.2-1.2 2.3-1.3 2.6-3.2 0-.6.4-1.6.8-2.2L90 65l-.8-.5c-1-.4-1.3-1-1-2 .3-1.1.3-1.2-.6-1.2-.4 0-1-.2-1.3-.5-.7-.7-.4-1.2 1.4-3.1.7-.8 1.3-1.6 1.3-2 0-.7 1.3-2.1 2.6-2.7.7-.3 1.2-.8 1.4-1.3.3-.8 1.6-1.8 2.4-1.8.3 0 1-.4 1.4-1 .8-.7 1.2-1 2.4-1.1 1.1-.2 1.7-.4 2.5-1.1.6-.6 1.3-1 1.6-1 .3 0 1-.3 1.3-.6l1.8-1.2 2.3-1.5 1.2-.7v-1c0-.7-.3-1.2-1.2-2.2-2.2-2.4-3.2-5.2-2.5-6.8l.2-1c-.3-.2-1.3.2-2.4 1.1-1.5 1.3-2.2 1.2-4.2-.4-1.7-1.3-2.6-2.6-2.6-3.6 0-.3-.1-.7-.3-.7-.5-.4.8-3.1 2-4.3 1-.8 3.5-2.2 6.3-3.4l1-.4-.1-2.2c-.2-1.4-.1-2.2.1-2.6.2-.4.5-2.1.8-4 .3-2 .8-4.3 1.4-6a31 31 0 0 0 1-3c0-.3.2-.6.4-.8l.5-.5 3 .3 2.8.2 1.6 1.8c3 3.2 5 5.2 6.2 6 .7.4 1.6 1.2 2 1.8.4.6 1.3 1.4 2 1.7l2.3 1.4c1.9 1 8.7 2 9.8 1.4.2-.1.3-.9.3-2.3 0-1.3.1-2.5.4-3.3l.6-1.8a12 12 0 0 1 4.4-5.8c.6-.3 1.5-.4 3.5-.4h2.6l1.7.9c1 .4 2.2 1.2 2.7 1.6a7 7 0 0 0 4.4 1.7c1 0 2.4.4 3 .7 1.2.6 2.9.6 5 0l1.1-.4 1.1.6c.9.4 1.6.5 2.7.5a43.5 43.5 0 0 1 8.9.8 84.6 84.6 0 0 1 10.2.7c1.4 0 3.4.2 4.4.4 2.7.4 8.1.6 9 .2.3-.1.8-.6 1-1 .3-.9 2-2.3 3.5-3.1 1.7-1 4.9-.7 7.6.6l1.5.7.8 1.6.7 1.5-.3 4.9c-.2 3.4-.2 6 0 9.2v6.3a128.4 128.4 0 0 0-1 11.1 27.3 27.3 0 0 0 .5 10.7c.3.7.4 2 .3 3.9 0 3 .4 6 1.2 7.6.4 1 .9 4.6 1.6 13a459.3 459.3 0 0 0 1.7 16 41 41 0 0 1 .3 14l-.4 2 .4 2c.2 1.2.4 3.4.4 4.9v2.8l-.6 1.4c-.7 1.3-1.4 1.9-1.7 1.5-.1 0 0-1 .3-2.2.3-1.6.4-2.5.2-3.7-.3-2.5-.3-7.2.1-8.7.2-.7.3-2.3.3-3.4 0-1.7.1-2.3.5-2.5.3-.3.4-.7.2-2.1-.3-3.6-1.1-7.6-1.7-8.7-.2-.4-.4-2-.7-6.6a11 11 0 0 0-.4-2.5c-.1-.3-.3-1-.3-1.7v-1.3L222 78c-.1.6-.3 1.1-.4 1.1l-.2 1c0 1.2-.3 1.7-.8 1.7-.9 0-1.2-1.1-.8-2.7l.5-2c.4-1 .3-4 0-4.6-.8-1.3-1.4-1.8-1.7-1.5-.4.5-1 2.6-1 4 0 .6 0 1.2-.2 1.4-.1.1-.3 1.4-.4 2.9-.4 8.9-.8 13.7-1 14.1-.5.7-.7.1-.7-1.6 0-1.1-.1-2-.3-2.2a164.4 164.4 0 0 0 .3-15.3c0-.5-.8.7-.8 1.2 0 .3-.1.7-.3 1a17 17 0 0 0-1.4 6.8c0 1.4 0 1.8.4 2 .4.2.5.4.4 1a128.3 128.3 0 0 0-1 22.5c-.1.2-.3 1.4-.3 2.8 0 2-.1 2.3-.5 2.4-1.3.3-1.4-1.2-1.3-10.2 0-.5.1-1.1.3-1.4l.2-1.3c0-.4.2-.8.3-1 .2 0 .3-.6.3-1.2-.1-3.3 0-6.4.3-6.8.2-.4.2-.6 0-.9-.2-.2-.4-1.3-.5-2.5l-.2-2.4c-.3-.2-.2-1.3.1-1.5.2 0 .3-1.1.3-2.3 0-1.3 0-2.3.2-2.4.2-.1.3-.4.3-.6 0-1 .2-3.5.5-5.1.9-5 1-8.9.6-15.6-.4-4.9-.4-3.7-.2-9.3l-.1-5c-.4-.7-.8-4.3-.6-5.6 0-.6.2-1.5.5-2l.5-1.2c0-.3.2-.4.4-.3.2 0 .2 1.2.2 3l-.1 3 .8 2.5.9 2.5-.5.5c-.4.4-.4.7-.2 1.6l.3 1.1.2-1.2c.5-2.7.7-5 .6-8.5a5604.6 5604.6 0 0 1-.3-10c0 .9-.2 1.6-.3 1.6-.2 0-.3.3-.3.5 0 .7-.7.8-.9.1-.3-1.2-.4-2.5-.2-2.9.3-.5.8-5.3.8-7.2l-.3-3.4-.3-2.2.9-1.7 1.2-3.3c.3-1 .8-1.7 1.4-2.2.8-.9.8-1.3 0-2.2-1.1-1-3.8-1.6-5.8-1.1-1.6.3-2.4 1-3 2.5-.3.5-.7 1-1 1.2l-.7.5c0 .5-2.3.8-6 .6a64.8 64.8 0 0 1-9.7-.7c-1.7 0-3.2-.2-3.4-.3-.2-.1-2.2-.3-4.4-.3-2.4 0-4.8-.3-6-.5-1-.3-2.2-.4-2.7-.4-1.3.2-3.9 0-4.8-.1-.5-.1-2 0-3.2.1l-2.4.3-1.3-.6c-.8-.5-2-.8-3.8-1-3.1-.4-3-.4-6.2-.1l-2.6.1-.7-.5-.6-.5.4-1 .8-1.3c.5-.7-.4-1.3-1.7-1-2.4.3-4.1 1.6-5.3 3.9-.8 1.6-1.5 7.8-1 8.2.3.2 1.4.5 2.6.8 3.3.6 7 1.9 8.4 2.9 2.2 1.5 5.5 5 6.5 6.7 1.2 2.1 1.8 3 3.4 4.8 1.8 2 2.4 2.8 2.4 3.5 0 .4.5 1.7 1.2 2.8 1.2 2.2 2.5 5 2.5 5.6l.4 2.5c.6 3.3.8 7.7.3 10-.3 1-.6 2.8-.7 3.8 0 1-.2 2-.3 2.2-.4.5-.3 2.8.2 4.2.3 1 1 2.1 2.1 3.5 2.3 2.7 4.3 5.6 4.6 6.8a14 14 0 0 1 0 5.4c-.8 4.4-.6 7 .7 10.7l.4 1.6c0 .7-1.3.4-2.7-.6-1.3-.9-1.8-1-1.8-.7 0 .4.7 2.1 1 2.7a19.4 19.4 0 0 1 1 11.6c-.5 4.3-1.2 11.1-1.2 12.3 0 1.5-.7 2.2-1 1.2a12 12 0 0 1-.5-1.9c0-.7-.3-1.2-.5-1.2-.6 0-1.2 2.7-1.2 5.1 0 2.4-.1 2.6-1 2-.4-.2-.7-.3-.8-.1-.3.3-1 2.6-2 6.6-.2 1.1-.8 2.7-1.1 3.3-.4.7-.7 2-.8 2.7l-.2 1.4.9 1.8 1.2 2.1c.3.4.5 1 .5 2.3a30 30 0 0 0 1.6 8.7c.4.2.4.5.1 1.2-.4 1.1-.2 1.5.7 1.5 1 0 2-2.3 1.2-2.8-.4-.2-.4-1.3 0-1.6l.9-1.2c.4-.7.8-1 1.3-1 .3 0 1-.3 1.5-.7.5-.4 1.3-.8 1.9-1 .7-.4 1-.7 1.3-1.5.5-1.1 1.1-1.4 1.4-.5.2.6 1.6 1.6 2.3 1.6.2 0 .8.3 1.3.7 1.8 1.5 2.6 2 3.5 2 .6 0 1.7.4 3.1 1.1 2 1.1 3.4 1.5 4 1 .5-.3 1.3-2 1.3-2.6 0-.3.1-.7.3-.8.6-.5 2.9-1 3.1-.7.6.5.6 2.2.2 3.5-.3 1-.4 1.5-.2 1.7l2.4 1c1.7.6 2.5 1 3.8 2.3 2 1.7 2.7 3 3 5.1.3 3.1-.4 3.6-2.5 1.8-1.8-1.5-4.5-2.8-3.5-1.7.2.2.2.6.2.8-.2.3-.3.3-1 0a7 7 0 0 0-2-.6l-1.3-.1.5.3c2.7 1.7 5.3 3.9 5.9 4.9.2.3.3 1 .3 1.5 0 1 1.3 3 2.3 3.8l1.5 1.6c1 1.6 1.7 2.2 2.5 2.4 1 .3 1.5-.2 1.5-1.4 0-.8-.6-4.3-.9-5.6h-.6c-.4 0-.7-.2-.8-.4l-.3-5.3c-.1-2.9-.4-5.2-.6-5.9a7 7 0 0 1 0-4l.4-3.2c.2-2 .7-3.3 1-2.5.2.5 1 .4 1 0 0-.3.3-.8.7-1.3.5-.4.7-.7.6-.7-.2 0-.3-.3-.3-.7 0-.4 0-.7.2-.7s.3-.2.3-.5c0-.5.7-.9 1-.6.4.2.4 3.5 0 5.5l-.3 1.7-.8.1-.8.1h.8c.9 0 1.4.8 1 1.4v2l-.1 3.4c0 2.3.5 4.1 1.4 4.6.4.3.8.7.8 1l.3 1.3c.2.9.8.9 1.2 0l.3-.8-.7-1a7 7 0 0 1-1-5c0-2 .3-2.6.7-2.6v1.5c-.1 1.1 0 1.6.3 2.1.6.9 2 1.7 2.8 1.7.8 0 1.2.7 1 1.8-.4 1.6-.5 4-.3 5.2.2 1 .2 1.4 0 1.8-.5.5-2.5.8-4.8.9-1 0-1.6.1-1.7.3l-.6 2.7c-.2 1.9-.2 2.6 0 3.5l.5 1 .6.3c.4.4 3.7 1.6 4.3 1.6.3 0 .7-.3 1-.6l.5-.5.7.7c.8 1 .8 1.3 0 2-.4.5-.6 1-.5 1.4 0 .3 0 .7-.2.8-.1 0-.3 0-.3-.2 0-.7-.5-1.7-1-1.9-.2 0-.7 0-1.1.3-.6.4-.8.4-1 .1-.5-.4-4.6-.4-5 0-.9.9 0 2.7 1.7 3.5 1.8 1 3 1.1 3.2.6.2-.6.7-.5 1 .2.3.6.2 2.8 0 2.8s-.5-.3-1-.7c-.4-.4-1.3-.8-2.4-1.1l-1.7-.5-.6.4-.5.4v8c0 4.6-.1 9.3-.3 10.5-.2 1.7-.2 2.8 0 4 .2 1 .4 3.3.5 5.2l.4 4c0 .2.6.7 1 1 .8.5 1.2.6 2.3.4.9-.1 1.5 0 2 .2.8.4 2 .6 8.2 1 3 .2 3.7.6 3.9 1.8.2 1.3-.2 1.6-2.2 2-1.9.3-3.1.2-6.7-.3a127.5 127.5 0 0 0-13.8-1.6 578.4 578.4 0 0 0-11.2-1.6l-20.4-3a18 18 0 0 1-5.1-1.2c-.7-.3-1.9-.5-5.8-.8a91.3 91.3 0 0 1-13.7-2.3c-.8-.6-1-1-.4-1.3.2 0 .2-.1 0-.1-.4 0-.5-.8-.2-1.5.1-.3.5-.4 1.3-.4 1 0 1.1 0 .9-.3-.6-.5-1.5-1-2-1a.4.4 0 0 1-.4-.4c0-.2.1-.4.3-.4.1 0 .3-.2.3-.5s0-.6.2-.6c.4-.1.6-1.6.3-2-.2-.4-.4-.4-.8-.1-.7.4-1 .4-1.3-.4-.1-.3-.8-.9-1.3-1.2-.7-.3-1.2-.7-1.3-1.2-.2-.7-.7-1-2-.7-1 .2-1.2.4-1.7 1.3-1.1 2-1.9 7.5-1 7.5.3 0 .4-.3.4-1a4 4 0 0 1 1.7-3.1c1-.6 1.5-.3 1.5.8 0 .7-.2 1-.7 1.2-1 .5-1 1.2-.5 2 .8 1 1.9 1.6 3.9 2 2 .4 2.3 1 1.1 1.7-.5.3-1 .4-3 .1a9.8 9.8 0 0 1-3.3-.8c-.7-.4-1-.4-1.5-.1-.5.2-1.4.3-3.4.1h-3.6c-.6 0-1.2-.1-1.9-.4-.6-.3-2-.7-3-.9-1.5-.2-2.1-.4-2.4-.9-1.1-1.4-1.2-1.4-4-1.7a19.8 19.8 0 0 0-6 .1c-.6.1-2-.1-4-.6l-4.7-.8-1.6-.1-1.9 1c-1 .5-2.4 1-3 1l-1.4.5c-.3.4-1 2-1 2.7 0 .3-.3 1-.7 1.7-.7 1-.8 1.2-.4 1.5.4.5 3.1 1 6 1.4 2.2.2 5 1 5.7 1.7.5.3 1.7 2.7 1.7 3.1a23 23 0 0 1-3 5c-1 1-.5 1.6 1.4 1.8 1.6.1 4 .8 4 1l-.4.8-.4.5-.7-.4c-2-.9-5.7-1.3-6.3-.7-.3.3-.3.4 0 .7l.8.3a94.7 94.7 0 0 0 11.3 1c1.8 0 2.2.2 1.5 1.2l-1.1.8c-.3.1-.5.4-.5.6 0 .8-.8 1.6-1.9 2.2-.8.4-1.6.5-3.2.6-1.2 0-2.4.1-2.7.3-.3.1-2 .3-3.6.3-2 0-3.4.2-3.8.4-.4.3-1.6.4-3.6.4-1.7 0-3.4.1-3.8.3-.5.2-1.3.1-2.5-.1-2.3-.5-3-.4-3.2.4-.2.6-.4.7-1.2.8a5 5 0 0 1-2-.4zm-6.2-2.3c-.4-.5-3.2-.6-3.2-.2 0 .3.8.5 2.4.5 1 0 1 0 .8-.3zM98 237c.3-.4-.5-.7-2-.9l-5-.4-3.3-.3-1 .4c-1 .4-1 .5-.6.7.7.4 3.3.6 3.7.3.7-.6 3-.5 7.9.4 0 0 .2 0 .3-.2zm11-.8c.6-.3.2-.6-1.2-.8a3331.4 3331.4 0 0 0-5-1c-.1-.2-.7-.3-1.2-.3-.6 0-1.4-.2-2-.5-.6-.4-.9-.4-1.3-.2-.7.6-.5.8 1.4 1.7l1.9 1 3.2.1 3.5.2c.2 0 .5 0 .7-.2zm7-1.9c.4-.3-1.2-.8-3.7-1-3.1-.3-6-.8-6.3-1-.7-.8-2.6-.1-2 .6.3.5 1.6 1 2.6 1 .5 0 1.4 0 2 .2 2.5.7 6.7.8 7.4.2zm-37.5-.6 4.7-.4c.6 0 1.8-.1 2.8-.4.9-.2 2.7-.5 4-.5a37 37 0 0 0 12.1-3.7c.7-.4 1.5-.7 2-.8 1.6-.4 3.6-3 3.6-4.7 0-1.3-1.3-3.2-2.6-3.8-.5-.3-2-.6-3.1-.7-1.2 0-2.6-.4-3.1-.6-.8-.4-1-.4-1.4-.2-.7.6-.5 1 1 2 1.7 1.1 2.5 2.4 2.2 3.4-.2 1-1.3 1.5-3.9 1.7-1.4 0-2.8.4-3.8.8-2 .9-6 1.7-7.3 1.5l-1-.2-.2.7c-.3 1.2-2 1.7-3 .9-.5-.6-1.2-.5-2.1 0-.6.5-1 .6-2.7.5-1.1-.1-2.5 0-3 .1-1.7.4-4.6 0-6.7-1.2-1-.5-2.1-1-2.6-1-1-.2-1.1-.5-.2-1 1-.4 2-.3 3.1.3l1 .6 4.4-.2c5.4-.1 7.7-.4 7.7-.7l1-.2c.7 0 1.2-.1 1.2-.3 0-.1.5-.3 1-.3.9 0 .7-.1-.6-.2-1 0-1.8.1-1.8.3 0 .1-.5.2-1.4.2l-1.3-.1-.1-.7c0-.4-.2-.8-.4-.8-.4 0-.2-.7.4-1l3-.4 2.5-.2.5.7c.5.5.7.6 1.4.4.5-.2 1.3-.3 2-.3h1l2.4-2.4c1.8-1.7 2.6-2.7 2.7-3.4l1.4-3c1.7-3.2 1.4-3.8-1.7-3.4a9 9 0 0 1-2 .2c-.2 0-1.2 0-2.3.3-1 .2-4 .5-6.5.6-2.6.2-5.3.4-6 .6-1.5.3-4.6.2-11.4-.3a28.6 28.6 0 0 1-10.4-1.9c-1 0-2.9-.5-2.9-.8 0-.1-.7-.2-1.5-.2-1.3 0-2.8-.3-5.8-1-.3 0-.6-.3-.6-.4 0-.1-.3-.2-.6-.1-.3 0-1.4 0-2.5-.3a348.2 348.2 0 0 0-15.8-3.1 115.6 115.6 0 0 0-7.8-2c-2-.7-2.3-.4-1.5 1.5a89.7 89.7 0 0 1 2.8 6.6c.1 0 .3.3.3.6 0 .7 1 1.7 3.1 3.2 2.8 2 4.8 3 7.8 4.3 2.7 1 3.1 1.3 2.9 2-.2.4-.7.4-1.8 0l-2.8-.7-2.7-1.1a11 11 0 0 0-2.2-1 15 15 0 0 1-7.9-7c-.6-1.5-1-1.6-3.8-1.4-1.4 0-3.7.4-5 .7-2.8.7-3.7 1.4-4 3-.4 3 1.8 5 7.6 7.4a112 112 0 0 1 8.5 3.7l2 .9a70.2 70.2 0 0 0 16.4 4.6l5 1a121.7 121.7 0 0 0 18.2 2.1 490 490 0 0 0 9.4 1c.3.2 5 .1 8.7-.3zm-18.1-6.4c-.7-.1-.8-.5-.2-.7 1.1-.4 3.7 0 2.8.4-.3.2-2 .4-2.6.3zm-4-1c-1-1.2-1-1.1-2.7-1.2-1 0-1.5-.2-2.5-1l-1.1-1h-2l-2 .4c-1 1-3.8 1.4-5.5.7-.5-.3-1.2-.4-1.5-.4-.7 0-2.8-1.2-2.8-1.6 0-.4.3-.4 4 .6 1.7.5 3 .7 3.6.6 2.3-.4 3-.5 3-.7 0-.3 1.3-.8 2.5-.8 1.1 0 2.4.5 3.3 1.3.2.2 1.2.4 2.1.5l1.7.1 1.2 1.2 1.3 1.3-.4.4c-.7.7-1 .6-2.1-.5zm14.3 0c-1.4-.2-1.1-1 .4-1 1 0 1.2.1 1 .5 0 .5-.2.6-1.4.4zm-.2-2.6-1.5-.4c-1-.1-1.6-.3-2.1-1l-.8-1c0-.2-.2-.4-.5-.5-.3 0-.5-.3-.5-.5 0-.6 1.1-.8 2-.4.5.1 2 .3 3.9.2 3.1 0 3.8.2 3 .9-.6.4-2.6.5-3 .2-.3-.3-2 .1-2 .5 0 .6.9 1 2.1 1 .8 0 1.4.1 1.5.3.1.1 1.1.2 2.3.2 1.7 0 2.1.1 2.1.4 0 .4-.5.4-3.2.4a16 16 0 0 1-3.3-.3zm12.6-3.7c.1-.2.4-.3.6-.3.3 0 .6.1.6.3.1.2-.1.3-.6.3-.4 0-.6 0-.6-.3zm-11-2c-.3-.3-.1-.6.4-.5.3 0 .6.2.6.3 0 .3-.7.5-1 .2zm8.3-.6s.2-.3.5-.3c.7-.3 1.4-.2 1.4.2 0 .3-.3.4-1 .4-.4 0-.9-.1-.9-.3zm18.4 5.7c.5-.5.5-.5 0-1.2-.7-.7-3-1.3-3.6-1-1.1.6-1.2 2.3-.2 2.3l1.2-.3c.5-.2.7-.2 1.1.2.6.5 1 .5 1.5 0zm101.5-4c0-.2-.8-.4-1.8-.4-1.2 0-1.7.1-1.4.3.5.3 3.2.3 3.2 0zm-5.3-.6c0-.3-.6-.5-2.8-.7-1.7-.2-3.3-.5-4.3-1-.3-.1-1.2-.3-2-.3-1 0-2.7-.2-4-.5-4.8-1-5.2-1-5.8-.6l-.7.3.6.6c.8.8 2 1 5 1.2 1.4 0 2.7.2 2.9.3.8.3 2.8.5 4.6.4 1 0 2 .1 2.2.3.6.3 4.3.3 4.3 0zm6.6-1.5c.4-.8.2-8.4-.2-8.5-.2 0-.3-.3-.3-.4 0-.3-1-1.4-2-2.3-.3-.2-.7-.7-.7-1-.1-.3-.2-.1-.2.5l.4 2c.2.5.4 1.3.4 1.8 0 .6-.1.7-.4.4l-.7-1c-.4-1-3.3-3-4.4-3-.8 0-.9.5-.4 1.6a16 16 0 0 1 1.3 6v1.3h-.7c-.4.1-.9 0-1-.2a9 9 0 0 1-1.3-3.8l-.2-2.9c-.2-1.6-.4-2-1.2-3-.6-.7-1.3-1.9-1.7-2.6-.6-1.3-1.5-2.1-1.8-1.8 0 0-1.1.3-2.4.4-2.7.4-3 .5-3.2 1.7a5 5 0 0 1-.8 1.8l-.5.7.5 1.2c.4.6.6 1.3.5 1.5-.2.4-.6 3-.9 5.5-.1 1.6.4 2.1 1.5 1.6l.8-.3.2-2.3c.2-3.7.5-5.4.8-5.5.2 0 .3.4.4 1.3.1.8.4 1.8.6 2l.8 2.2c1 3.4 1.7 4 2.7 3l.4-.4-.7-2.2c-1-2.9-2.1-5-3.5-6.5-.4-.4-.5-1.6-.1-1.6l1 .8c.5.5 1 .8 1 .7l-.2-1.4c-.6-1.6-.6-1.7.2-1.7.4 0 .8.3 1 .7a39.5 39.5 0 0 1 3 7.3l.9 2.7c.7 2.6 1 3 2.4 3a40.7 40.7 0 0 1 7.3 1.1c.8 0 1.2-.1 1.4-.4zm-4.6-1.7c-.4-.3-.7-.8-.7-1 0-.4 0-.8-.2-1-.7-1.4-1-4.7-.5-5 .5-.3 1 .4 1.9 3.3 1 3.1 1.1 3.5.6 4-.3.2-.5.1-1-.3zm7.4-1.4c0-1.8 0-3.4-.2-3.4l-.6.6c-.4.4-.4.9-.4 3 .1 1.5.2 2.8.4 3 .5.9.7 0 .8-3.2zm-31.5-.4a2 2 0 0 1-1.1-.6c-.4-.6-1.7-.7-1.7-.1 0 .5 1 .9 2.4.9.9 0 1-.1.4-.2zm4-.2c-.1-.2-.3-.2-.4-.1-.1.1-.6.3-1.2.3-.9.1-.8.1.5.2 1.3 0 1.4 0 1.2-.4zm-20.5-.8c.4-.4 1-.5 2.6-.5h2l.6-1c1-2 0-2.5-1.5-1-.6.6-1.2 1-1.5 1-.5 0-.5-.8.2-1.6l.5-1.2v-.6l-1.3.7c-.7.3-1.4.8-1.6 1-.6.7-1.6 1.1-3.3 1.5-.8.2-1.6.5-1.7.7 0 .2-.3.4-.5.4-.3 0-.3 0 0 .3.5.5 1 .7 3.2.7 1.4 0 2 0 2.3-.4zm50.5-.2c0-.4-.1-.7-.3-.7-.1 0-.2.3-.2.7l.2.6c.2 0 .3-.3.3-.6zm-42.6-1.2c.2 0 .3-.3.3-.7v-.7l-.7.7c-.7.7-.8.8-.3 1.3.3.3.3.3.4-.1 0-.3.2-.5.3-.5zm42.3-.7c0-.2 0-.4-.2-.4s-.3.2-.3.4.1.4.3.4l.2-.4zm-132.6-1c.1 0-.3-.2-.8-.1-.6 0-.8 0-.5.1.3 0 .6.3.6.4 0 .2 0 .2.2 0l.5-.4zm5.6 0c4.1-.3 5.4-.5 5.8-.9.3-.3 0-.3-1.6-.3-1.2 0-2 0-2 .2s-.5.3-1.1.3c-.6 0-1 .1-1 .3 0 .1-.9.2-2 .2-1.5 0-1.7 0-1.4.4.1.2.4.3.6.2l2.7-.4zm125.2-4.4c0-3.8 0-5.2-.3-5.5-.3-.3-.3-.4 0-.5.1 0 .3-.5.3-.8 0-.6-.1-.6-.2-.2-.2.7-.7 1.2-1.5 1.2-.4 0-.7.1-.8.5 0 .3-.3.5-.5.5-.5 0-.9-3.4-.5-4.2.6-1-.7-3.7-1.8-3.7-.4 0-.5 3.2 0 4.7.2 1 .3 2 .2 3l-.2 1.4 1 1.8c1 2.1 1.2 2.3 2.1 2.3h.7l-.2 1.2c-.1.8 0 1.3.4 2 .5.7 1 1.3 1.2 1.3v-5zm-66 4c.1-.6 0-.9-.5-1.2-1-.6-1-1.6-.4-4.5.8-3 1.4-4 2-3.6.3.3.3.7.2 2v1c.1-.2.6-.9 1.2-1.4a6 6 0 0 0 2.1-4.5c0-1.6-.4-2-1.7-1.2a13 13 0 0 0-3.6 3.3c0 .5-4.5 3.7-5.3 3.7h-.6l2.8-2.7c1.6-1.6 3-3.2 3.4-4 .9-1.7 2.3-3.3 3.1-3.5l1.6-.2c.7 0 1-.2 1.3-.8 1.3-2.3 2-3 2.9-2.3.3.3.3.7.2 2.3-.2 2 0 2.6 1 3.7.6.7 1 .6 2-.3 1-.8 1.5-.5 2.6 1.4l.8 1.6.3-1 .4-1.2-.5-.6c-.3-.4-.6-1.2-.7-1.8-.1-.5-.4-1.2-.7-1.6-1-1-1.4-3-1.1-5.7l.4-3.2c.2-.5 0-.8-.2-.9-.6-.2-1.2.4-1.2 1 0 .4-.2.8-.4 1-.4.3-2.7.8-3.7.8-.4 0-1 0-1.5.3-.5.2-.9.2-1.3 0a3 3 0 0 0-1.2-.3c-.8 0-2.7 1-2.3 1.2.5.3.3 1.4-.2 1.6-.7.2-3.2 3.5-3.2 4.1v.6l.7-.7c.9-.7 2.9-1.8 3.6-1.8.2 0 .5.2.5.4a22.3 22.3 0 0 0-3.6 3.3c-1.6 1.6-3.1 3-3.4 3-.6 0-.6-1 0-1.4.2-.1.3-.4.3-.6 0-.2-.1-.5-.4-.7-.6-.5-.4-1.3.7-2.6 1.3-1.6 3-4 3-4.2 0-.2-.4-.4-.9-.5-.4 0-.8-.3-.8-.5 0-.4 1-1.3 2-1.8l2-1.4c1.3-1.1 2.2-1.7 2.6-1.7.2 0 .4.3.6.7l.2.7 1-.2c1.2-.2 3-1 3.8-1.8 1-1 1.5-1 2-.4 1 1 2.1.4 3.4-1.9.3-.6.6-.8 1-.7.4 0 .6.2.5.6-.2 1.3-.1 1.5.3 1.6.5.1 2-1.4 2.8-3 .5-1 .6-1.2.3-1.5-.2-.3-.5-.4-.7-.4-.5 0-.4-1 .2-2l.8-1.3.8-1.4c.5-.8.7-1.8.3-2-.3-.3-.7.2-1 1.1-.1.4-.8 1.3-1.5 2-.7.8-1.2 1.6-1.1 1.7.3.5-.8.3-1.1-.2-.5-.6-.5-1.4 0-2 .5-.7.5-1.8 0-1.7-.2 0-1.5 1.1-2.9 2.4a21.1 21.1 0 0 1-3.4 2.7c-.4.2-1.4.9-2 1.6-.7.6-1.3 1.2-1.5 1.2l-1.3 1c-.6.7-1.3 1.3-1.7 1.4-.3.1-.7.5-.7.7-.2.6-1.6 1.5-1.8 1.1-.2-.2 3.6-4 4.6-4.7 2.3-1.5 6.9-7.2 6.9-8.6 0-.5-.8 0-2 1.2l-1.4 1.3-.8-.3c-.8-.4-1.2-1.4-.6-1.7l.4-1 .5-1c.5-.4 1.2-1.8 1.2-2.2 0-.2-.4.1-.9.6s-1 1-1 1.2c0 .4-2.8 2.8-3.3 2.8s-1-1.3-.7-2.3c0-.6.4-1 .8-1.2.5-.2 1-1 1.5-2 1.6-3.2 2-5.4 1.5-6.8l-.1-.5-.4.5c-.7.8-1 1.7-1 2.2 0 .3-.2.6-.3.7l-.4.8c-.3 1.8-2 5.8-2.4 5.9-.2 0-.4-.1-.4-.4a30.8 30.8 0 0 1 3.4-9.1l.8-1.5c1.1-1.6 1.1-1.8.7-3.3-.6-2-1.4-2-1.8-.2-.2.9-1.8 2.9-2.2 2.9-.5 0-.5-1 .1-2 .7-1.5.9-2.6.6-3.8-.7-2.5-1.5-1.8-2.5 2a58.2 58.2 0 0 1-1.4 5c0 .7-.3 1-1 1.4-.7.3-1.2 1-1.7 1.8-.8 1.4-1.4 1.7-2.2 1-.2-.2-.6-.4-.8-.3-.7.2-1.3-.3-1.3-1.3 0-1.4-.9-3-2-3.8-2.4-1.5-4-3.6-5.7-7.2-.8-1.7-1.1-2.1-1.9-2.4-.5-.2-1.2-.9-1.6-1.5l-1.3-1.7-.4-.5v.5c0 .9-.3 1.4-.8 1.4-.7 0-1.2-.7-1.9-2.8a7.1 7.1 0 0 0-2.3-3.5c-2-2-3-3.8-3.8-7.1l-.6-2.4.4-1.9c.3-2 .3-2.3-1.8-5.1l-1.1-2.2-.4-.8-.4-.4v1.2a3 3 0 0 1-.6 2l-.5.6v8.2l-.6-.1c-.6-.1-1.6 1.2-2 3-.2.7-.6 1.1-1 1.3-.5.2-.8.8-1.2 2.3l-.6 2h-.7l-.7.2-.3 1.6-.7 2.9a41.2 41.2 0 0 0-1.7 6c-.3 1.1-.5 2.4-.5 2.8 0 1.2-.7 2-1.3 1.6-.4-.2-.5-.8-.6-2.1 0-1-.4-2.2-.6-2.7-.3-.5-.5-1-.5-1.4l-.3-1.2c-.2-.4-.5-1.3-.6-2 0-.7-.4-1.5-.7-1.7l-.5-.7c0-.1-.4-.8-1-1.5-1.4-1.8-2.4-4-2.1-4.8 0-.3.3-.6.5-.6.5 0 1.3.6 1.6 1.2l1 1.9 3.7 6.6c1 1.9 1.2 2 1.8.1l.6-2.7.5-3.2.2-1.2-.8-1.2c-.4-.7-.8-1.2-1-1.2l-.5-.8a8 8 0 0 0-1-1.6c-1.7-2.2-3.6-7.5-2.7-8 .6-.4 1.3.2 2 1.7.4.9.8 1.6 1 1.6l.3.4c0 .4.1.4.1 0 .1-1.6 1.6-.9 2.4 1 .4.8.8 1.5 1 1.5.6 0 .8-1.4.3-2.2-.6-1-.6-2.9-.1-2.8.7 0 1.4 1 1.5 2 .1.5.2-.4.2-2.1 0-1.7.1-3.2.3-3.2v-1.6c-.3-1.2-.3-1.6 0-2.3.5-1 1.6-2 2-1.9l.8-.3.6-.4-.3-.7c-.5-1-1.5-.9-3.1.4-1 .7-1.5 1-1.8.8-.4-.2-1.4 0-2.6.6l-.8.4-.9-.5c-.7-.5-1-.5-1.7-.3-1.2.4-2.6.7-3.2.6a9.4 9.4 0 0 1-4.5-2c-.7-.7-1-.9-2-.9-1.5 0-2.3-.6-2.3-1.6 0-.7-.6-1-1.5-.7-.5.1-.7.5-1.1 1.9a9 9 0 0 1-1.4 2.7c-.4.5-.8 1-.8 1.3 0 .2-.4 1.2-1 2.3-1 2.2-1 3 0 3.5l.7.4-.1 2.6-.2 2.6 1 .6c.6.4 1 .8 1 1.3.3 1.2 1.3 3.8 1.7 4.4.2.4.6.6.9.6 1 0 1.5.5 2 1.8.2.7.9 2.2 1.5 3.3.7 1 1.2 2 1.2 2.2l-.5 1-.5 1 .8.7.8 1c0 .3 0 .4.2.4.4 0 .4 1.5 0 1.7l-.4-.1c0-.1-.5-.3-1-.3h-1v.8c0 .5.3 1.2.5 1.7.3.5.6 1.5.8 2.3.2.8.7 2.4 1.2 3.5l.8 2h.8l.8-.2 1.4 1.4c.7.8 1.4 1.5 1.7 1.5.2 0 .3 0 0-.2-.4-.3-1.1-2-1-2.3.3-.7 1-.4 2.3.7 1.6 1.6 2.8 2.4 4.4 3.2l1.7 1c.8 1.1-1 1.4-2.7.5-1.4-.7-1.6-.7-1.4.3l.2.8h-.8c-.4 0-.9-.1-1.1-.3h-1c-.9.5-2 0-3.5-1.7-.7-.7-1.4-1.2-1.6-1.2-.1 0 .5 1.6 1.4 3.3 1.3 2.7 1.5 3.3 1.3 3.8-.2.3-.6.6-.9.7l-.5.2.1 1.2c.3 1.6.5 2 1.3 2.4.5.3.8.8 1 1.5.6 2 1 3.4 1.7 4.5l.6 1h1l.9-.1.6 1 2.3 2.4 1.6 1.4v1a8 8 0 0 0 1.5 4.6c1 1.5 1.1 1.8.3 1.8-.6 0-1.5-.8-2.6-2.4l-.6-.8.2-1.7v-2.1a9.8 9.8 0 0 0-4-2.5c-.8 0-.8.4.2 1.7.5.7 1 1.8 1.2 2.8l.6 2.3c.5.8.4 1.6-.2 1.6-.7 0-1.5-1.5-1.9-3.4-.3-1.9-.6-2.6-1.4-3.2-.7-.7-1.1-.4-1 .6 0 .6 0 .7-.4.7-.3 0-.7-.3-.9-.7l-.5-.9c-.4-.3-1-1.6-1.8-3.7-1.8-4.5-2-4.7-2.7-3.8-.3.4-.3.6 0 1.2.3.5.5 1.4.5 2 0 1.5.4 2.3 1.4 2.8.9.4 1 .5 1.5 3.2.1.5.6 1.7 1.1 2.6.8 1.5.8 1.9.5 2.2l-.3.4-.5-.4c-.5-.5-2.1-3.5-2.5-4.6-.2-.7-1.6-2.4-2-2.4-.5 0-1.6 1.2-1.6 1.7 0 .3.3.8.6 1.2.3.4.5 1 .5 1.9 0 1 .2 1.3.8 1.7.4.4 1.2.7 1.7.9a3 3 0 0 1 1.5.9c1.4 2.1 2.8 3.1 4.4 3.1.4 0 1 .2 1.3.4l2.3 1a49.6 49.6 0 0 1 7.5 2.7c1.3.5 2.6 1.6 3 2.7.2.4.3 1.3.3 2.2v1.6l.6.2c.7.3 10.5.6 10.9.4.2-.1.3-.5.4-.8.1-.7 1.2-.8 1.6 0 .8 1.4 1.4 1.6 1.7.4.2-.7.4-.9 1-.9 1 0 1.5-.3 1.5-.9 0-.2.2-.5.5-.7.3-.2.5-.8.6-1.6.2-1.5 1.6-3.5 2.3-3.5.7 0 .7.3 0 1.6s-.7 3.2 0 3c.4 0 .7-.4 1.5-2.4.3-.8.6-1.2 1-1.2.6 0 .6.6 0 2.7-.8 2-.6 4.3.2 5 .6.6 1 .5 1-.3 0-.7.8-1 1.3-.4.2.3.3 1 .3 1.5 0 .8.1 1 .7 1.3 1.2.4 1.7.5 3.2.5h1.3v-.8zm-24-7.4c-1-1.1-1.3-2-.8-3 .4-.6 1.3-.7 1.5-.1.3.6.8.5 1.4-.4.4-.4.8-.8 1.1-.8.7 0 .7 0 0 1.9l-.7 2c-.2.6-.9 1.4-1.2 1.4l-1.3-1zm8.2-.2c-.4-1-1-1-1.8-.2-.5.4-1 .6-1 .5-.1 0 0-1 .3-2l.6-2.8c0-.5.5-1.5 1-2.2l.7-1.5c0-.5-1.1-1-2.1-1-1.1 0-1.2-.3-.3-1.1 1-1 1-2 .1-2-.3 0-.7 0-.7-.2-.3-.3 1.8-2.2 3.9-3.5 2.6-1.7 2.7-1.8 4.4-2 .8 0 1.7-.3 2.1-.5.7-.4 2.8-.8 5.5-1.1.8-.1 1.5 0 2 .2l.7.4-.4.4c-.3.2-.8.3-1.1.3-.5 0-1 .1-1.5.7-.7.6-1.2.8-2.3.9a7 7 0 0 0-2.3.7c-.5.3-1.4.5-1.9.5a4 4 0 0 0-1.6.4l-1.3.7a2 2 0 0 0-.7.5c-.3.5.9.3 2.4-.5 1.3-.7 1.9-.8 3-.7 2.4.1 1 1.6-2 2.1-2 .3-4.6 2-4.6 2.8 0 .4.6.4 1 0s2.2-.8 3-.6c1 .2 1 .8-.3 1.6l-1.1.6.2.8c0 .5 0 .9-.3 1.1-.2.3-.4 1-.4 1.5 0 .7-.3 1.8-.8 2.8l-1 2.3c-.4 1-1 1-1.4.1zm-13.9-6.1c-.2-.6.3-4.7.8-6 .7-2.1 1.6-1.6 1.2.6l-.6 3.4c-.2 1.8-.4 2.3-.8 2.4a.6.6 0 0 1-.6-.4zm40.7-4.4c-.2-.3-.4-1.7-.3-3.6 0-.7.1-.8.5-.8.5 0 .6.1.6 1 0 .5 0 1.4.2 1.9.3 1.6-.2 2.4-1 1.5zm-34.3-1.1c-.2-.3 0-.8.8-1.5 1-1 1.7-1.3 1.7-.7 0 .2-.5.9-1.2 1.5-1 1-1.2 1-1.3.7zm4.8-4.6c-.2-.3.6-1 1.3-1.2.8-.3.9.3.2.5l-1 .6c-.2.2-.4.2-.5 0zm-17.7-1.6-.7-1c-.2-.4-.9-.9-1.6-1.2-.7-.3-1.7-1-2.3-1.6l-1-1 .4-.8c.1-.4.7-1 1.2-1.3l.9-.5-.5-1-.7-2.2c-.2-.9-.1-1.1.3-1.3.6-.2 1 .5 1.4 2a9 9 0 0 0 1 2.4c.6 1 1.4 3 2 4.4.8 2.4.6 4.2-.4 3.1zm4.5-1.8c-.3-.8.2-2 .8-2.2.4-.2.6-.1.7.4.3 1.3-1.2 3-1.5 1.8zm18 0-.6-.4.5-.4a22.8 22.8 0 0 0 8-4c1.2-.8 2.3-.7 2.4.2.2.9-.8 1.7-2.8 2.5-1 .4-2.5 1-3.3 1.5-2.1 1-3.6 1.2-4.3.7zm19-1.5c-.2-.3-.1-.6 0-.8.3-.2.4-.1.5.2v.7c-.3.3-.4.2-.6-.1zm-6.9-1.5s.3-.6.8-1c.5-.6 1-1 1-1.3 0-.4 1.5-2 1.7-1.8.6.3-.3 1.7-1.8 3-.8.8-1.6 1.3-1.7 1.1zm-32.9-.4c-.4-1.2.8-5.2 1.7-5.2l.4.2c0 .5-1 4.5-1.1 5-.3.5-.8.5-1 0zm11-.3-.2-.8v-.6h1c1.5 0 3.1-.8 4.3-2 .5-.5 1-1 1.2-1 .3 0 1.8-1.5 3.3-3.5.5-.7 1.3-1.5 1.8-1.9l1.3-1.1c.3-.6 1.1-.8 1.1-.4a51.3 51.3 0 0 1-3.4 6.9c0 .5.5.4 1.2-.2.3-.3.6-.5.7-.3.1.1-.6 1-1.5 2-1.4 1.4-1.9 1.7-3 2-1.7.3-2.1.2-1.5-.6.6-.7 1.2-1.7 1.2-2 0-.4-1.4.4-2 1-.3.3-.6.5-.8.5-.2 0-.5.3-.8.6-.3.3-.6.5-.8.5l-1 .5c-.6.5-1.8.7-2.1.4zm14.5-1.5c-.2-.3.5-1.2 2.2-3a31 31 0 0 0 3-3.7c.7-1.2 1.6-1.4 1.7-.5.1.6-2.4 3.8-4 5l-1.8 1.7c-.8.8-1 .9-1.1.5zm-14.7-1c0-.6.7-1.2.9-.8 0 .1 0 .4-.4.7-.4.4-.5.4-.5 0zm-21.4-2c-.9-1.8-1-2.5-1-3.7v-1.4h.4c.4 0 .6.2.7 1 .2 1.2.8 3 1.3 4s.5 2.1 0 2.1c-.2 0-.8-.9-1.4-2zm22.5.4c0-.5 1.2-1.7 1.4-1.4 0 .2-.2.6-.7 1-.5.6-.7.7-.7.4zm-7.5-1.8c-.6-.7-.6-2 .1-2 .5-.2 1.3 1 1.3 1.8 0 .6-.8.7-1.4.2zm19.5.3c-.2-.3 1.7-2.2 2-2 .2 0-.1.6-.7 1.2-1.1 1.1-1 1-1.3.8zm-10.6-.5c0-.2 0-.4.3-.6l.4-.7.4-.7c.2-.1.6-.8 1-1.4.4-1.2.8-1.6 1-1.3.2.4-.7 2.3-1.4 2.9-.3.2-.5.6-.5.8 0 .4-1 1.3-1.2 1zM116 171c0-.2 0-.3.2-.4.1-.1.2 0 .2.2 0 .5-.1.5-.4.2zm.6-2c-.2-.3-.2-2 0-3.5.2-.7.4-1 .7-1.1.5-.1.6.4.2 2.7-.3 1.6-.6 2.2-.9 1.8zm-5-4c-.6-.7-.6-2.8-.1-3.5.5-.7.8-.3 1.1 1.5.4 2.3-.1 3.4-1 2zm-5.5-8c-1-1-1.3-1.7-1.9-3.9-.8-3.2-.5-6.6.6-6.6.3 0 .4.5.4 2.5v2.6l1.3 2.4c1.3 2.6 1.5 3.7.7 3.7-.3 0-.8-.3-1.1-.7zm3.8-4.1c-.8-.9-1.7-5.3-1.5-6.6.1-.7.9-1.2 1.4-.9.1.1.3 1 .3 1.8 0 1 .2 2.3.4 3.1.7 2.6.8 3 .2 3-.3 0-.7-.2-.8-.4zm-22.4-12.3-1.3-2c-.2-.1-.8-1.2-1-2-.2-.7-.1-.9.3-1.2l.6-.4.4.4c.7.7 3.2 5.6 3.2 6.1 0 .3-.2.6-.5.7-.4 0-.8-.3-1.7-1.6zm89.3 67.4.5-.6-.6-.3c-.6-.4-1.7-.2-3 .4l-1 .3c-.5.1-.4.1.1.2.4 0 .8.1.9.3l1.3.2c.9 0 1.4-.1 1.8-.5zm-21.1-2c.9-1.1 1.2-3.4.6-3.6-.4-.2-.7.2-1.3 1.4-1.3 2.6-.8 4.2.7 2.2zm7.3.4c0-.6-.6-1.3-1-1.3s-.4 1.1 0 1.5c.5.5 1 .4 1-.2zm11.8-1.7c.4-.3 1-.6 1-.8.2-.5-.5-1.2-1-1l-2.9.2c-2.8.2-3.4.3-3.4.8 0 1 4.6 1.5 6.3.8zm4.3-2.7c-.3-.7-1-.9-1-.3-.2 1.3.4 2 1 1.4.2-.3.2-.6 0-1zM22 201.8c-.7-.6-4.7-1.5-4.7-1 0 .3 3 1.3 4.2 1.3.8 0 .9 0 .5-.3zm129.7-1.4c0-1.4 0-1.6-.4-1.3-.2.1-.3.3-.1.4l.2 1.4.1 1.3c.1 0 .2-.8.2-1.8zm21.7 1.3c.8-.2 1-.3.4-.3-.8 0-1.2-.7-.7-1.1l1-.4c1.7-.3 3.4-1 3.8-1.3.8-.7.7-2.3-.2-3-1.5-1-2-1.2-3-.8-.6.2-1 .2-1.1 0-.3-.2-.2-.3 0-.3.3 0 .7-.2.8-.4.4-.4 2-1.2 3.1-1.6.8-.2 2 .5 2 1.2 0 .3 0 .6.2.7.2.1.2.3 0 .5v.5l.4 1.2c0 .7 0 .5.1-.6 0-1.5.5-2.3.8-1.3 0 .5.3.6 1 .6s1 .1 1.2.6c.4 1.1 1.8 1.6 1.8.6 0-.2-.2-.7-.5-1-.3-.4-.7-1-.8-1.5-.2-.9-3.3-3.2-4.2-3.2-.4 0-1-.3-1.4-1l-1.1-.9c-.2 0-.8-.3-1.5-.8-.9-.5-2.3-1-4.2-1.4l-2.8-.7-1.9.3c-2 .4-3.3 1-5.3 2.4-1 .8-1.4 1.3-1.6 1.9-.2 1.2.5 7.1 1 8.9.3.6 1.7 1.3 3.6 1.6l3.4.7c1.8.3 3.5.3 5.7-.1zm-24.4-2.3v-1.8l-.4.4c-.5.5-.5 2.2 0 2.7l.4.4v-1.7zm-96.8-.8c.9-2 .6-2.9-.5-1.7-.7.6-.8 2.9-.1 2.9l.6-1.2zm130.3-1c.3-.7-.6-1.6-1.1-1.2-.4.4-.5.8 0 1.2.4.5 1 .4 1.1 0zm14.5-1.4.4-.4-1.4-3c-1.3-2.4-2.8-4.9-5.3-8.6-.5-.7-4.3-3.7-4.7-3.7-.5 0-1.6-1-2-2-.6-1-1-1.1-5-1.2-2.5 0-3.5.1-4 .4l-2.2.6c-.7 0-1.4.2-1.4.4l-.9.2h-.7l.6-.6c.4-.4 1-.8 1.5-1l2.4-1 1.6-.9 3.5.1c3 0 3.5 0 4-.4.5-.5 1.5-.6 1.7-.2.1.2.4.3.7.3.3 0 1 .2 1.4.5.5.3 1.7.9 2.6 1.2l2.6 1.3a21.2 21.2 0 0 1 6.8 5.8l1.2 2.2c.7 1.4 1.3 2 2 2.4.4.3.9.8.9 1 0 .8.8.7 1.7-.2 1.3-1.3 1.2-2-.5-3.4a28.3 28.3 0 0 1-5.7-7c-.6-1.1-.8-2-.8-3 0-1.7-.2-2-2-4.2a20 20 0 0 0-5-4.4c-1-.7-2.3-1.7-2.9-2.4a5.8 5.8 0 0 0-1.5-1.3c-.6-.2-.7-.9-.1-1.1.5-.2 1.8.3 3 1.4 1.4 1 2 1.3 2.6.8.6-.6.8-.6 2.3.2 1.5.8 2.5.6 2.5-.5 0-.6-.3-.8-2.4-1.9a25 25 0 0 0-3.8-1.5c-1.6-.4-2-.6-2-1.4 0-.5-.2-.7-.7-.8-.9-.2-3.5 0-3.9.4-.2.1-1 .4-1.8.5l-2 .6c-.9.4-3.8 1.3-4.3 1.3-.3 0-.6.1-.7.3l-.8.6-.7.3 2.5.1a15.8 15.8 0 0 1 4.5.8c.8 0 2 .5 1.7.8l-3 .5c-4 .5-4.5.6-6 1.4l-1.7.8c-.4 0 .4-1.3.9-1.5.9-.2.1-.7-.9-.5-1 .2-1.4.4-3.1 1.4l-.9.5v-.8c0-.6-.2-1.1-.5-1.4l-.5-.4-.4.6c-.6.8-1 2.5-1 4.2-.4 4.2-.6 5.7-1.2 6.9-.7 1.4-1 3.9-.7 4.6.4.7 1.3 1 1.7.5.3-.4.4-1.9.1-2.7-.3-1 1.4-2.5 4.4-3.8.8-.3 2-1 2.6-1.4a49 49 0 0 1 7.5-4.1c2.2-1 3.4-1 7.5-.5l2.3.3v1.2c0 1.3.5 1.7 2 2.2.6.2 1.3.6 1.6.9l.6.6-.4.2c-.3 0-.7 0-1-.3-.2-.2-.9-.4-1.4-.4-.5 0-1.3-.2-1.7-.4-1.4-.7-3-.8-3.5-.3-.4.4-.4.6-.3.8.4.5 0 .7-1 .7-1.4 0-2-.2-2.3-.9l-.2-.6-1.9.1a28 28 0 0 0-7.4 1.9c-2.2.8-4.5 2.8-4.8 4l-.1.8h1.5l-.7.2c-.4 0-1 .4-1.4.8l-1.3 1c-.4 0-.4.2-.2.6.2.4.5.6 1.2.6h.9l-.3.6c-.2.6-.1.8.3 1.2.6.6 1.5.6 8.7.7 3 0 3 0 2.6.6-.4.7.2 1.4 2 2.3 1.7 1 3 1.7 4 2.6.8.6 1.2.7 2.3.6.8 0 1.5-.2 1.5-.4.1-.3-1.2-1.8-1.8-2-.4-.1-.5-.4-.5-1 0-1-.5-1.6-2.8-3l-2.3-1.4c-1.1-.7-7-2.7-8.2-2.7h-.9l.8-.4c1-.5 2.7-.5 4.7.1 2.8.9 3.6 1 4.2.4l.5-.4 1 .3a9 9 0 0 1 4 3.6c.4.8 1 1.5 1.1 1.6l1 1.2c2 3 3 4.4 3.8 5.9.8 1.3 2.6 3.3 3 3.3l.5-.4zm-15.3-9.4c-.3 0-.4-.2-.2-.3h.7c.3.2.4.3.3.4h-.8zM168 170.6c0-.3.2-.4.4-.4.4 0 .4 0 .1.4l-.4.4v-.4zm37.8 24c.7-1.3.8-3.7.2-3.9-.3-.1-.7 0-1 .5-.6.5-.7.7-.5 1.7.1.6.2 1.7 0 2.3 0 1.1 0 1.2.3.9l1-1.5zm-59.7-2.2c0-.6-.6-.7-1-.2-.5.4-.5 1.3 0 1.7.2.2.3.2.6-.4l.4-1.1zm-67.4-.9c.2-.3.1-1-.2-2.8-.4-1.9-.4-3.1-.3-6.5l.2-4.1h-.6c-.6 0-1.3.6-1.3 1 0 .3-.3.8-.7 1.3-.8 1-1.5 1.1-2.8.5-.5-.3-1-.4-1.6-.3-.6.2-.8.3-.8 1 0 .9.6 1.7 1 1.4.3-.4 1.2.2 1.5 1l.2.7h1.6c1.7 0 2.1.3 2.1 1.5 0 .7-.3 1.2-1.9 2.7-2.2 2.2-2.2 2.4.4 2.9 2 .4 2.8.3 3.2-.3zm121.9-2.1c0-.8-1-2-1.5-1.9-.5.2-.1 1 .8 1.9.7.7.7.7.7 0zm-46.7-4.2v-.8l-.5.4c-.4.3-.5.5-.3 1.4l.2 1.2.3-.8c.2-.3.4-1 .3-1.4zm52.8-1.6c-.2-.8-2-3.3-2.7-4l-.8-1.1c-.5-1.2-1-1.6-1.5-1.1-.5.4 3 6.7 4 7.5.4.3.6.3.9 0 .3-.3.3-.6 0-1.3zm-13-1.2c.2-.8 0-1.2-1.1-1.8-1-.4-1-.2-.2 1.3.7 1.4 1.2 1.6 1.4.5zm-109.2 0-.4-.5c-.1-.1-.2 0-.2.2 0 .3.2.5.4.5.3 0 .3 0 .2-.2zm-3.5-4.8c0-1 0-1.9.2-1.9s.3-.2.3-.4v-.4l-.4.4c-.2.2-.4.8-.4 1.3s-.1 1-.3 1c-.1 0-.2.4-.2.9 0 .6 0 1 .4 1 .3 0 .4-.5.4-2zm8.6-.2-.4-1.8c0-.8-1.2-1.5-1.6-1-.4.7.6 3.1 1.7 4.2.7.7.8.2.3-1.4zm-12.6-1c1.8-.8 2.4-1.4 3-2.8.3-.5.8-1.2 1.3-1.6 1.6-1.3 2.8-2.7 2.8-3.1l-.5-2c-.6-1.6-.7-3.5-.1-4.4.4-.8.2-1.4-1-3.9a13.2 13.2 0 0 1-1.3-3.1c-.3-.6-.5-.7-1.3-.7-1.2 0-3.1.6-4 1.1-.3.3-1.1.5-1.7.6-2.8.5-12.1 2.6-14.7 3.4-2.8.8-4 1.9-5.2 4.6-1.3 2.9-.6 5.9 1.9 8.3a6 6 0 0 1 1.2 1.4c0 .5 1.8 1.3 3.2 1.3H62l.3-.8.6-2.3c.2-.9.4-1.8.6-2.1.4-.7.2-5.5-.2-5.9a6 6 0 0 0-2.2-.4c-2.1-.2-2.5-.3-2.3-.8.2-.7 1.4-1 3.6-1 2.8 0 3.1.3 3.2 3 0 3.1 0 3.7-.6 5.8-.7 2.4-.7 3.8-.1 4l2.1.2h1.7v-1.7c0-1.8.4-4.2 1.3-7 .3-.8.5-2 .5-2.6 0-1.2.6-1.6 1.3-1 .5.6.4 2.2-.3 4-.5 1.3-1.3 5.4-1.3 6.8v.8h1l1.7-.2c.9 0 1.1.8.3 1-.4.1-.5.4-.5 1.1v.9H74c1 0 1.8-.2 3-.8zm-3-6.5c0-1.2.7-3.3 1.2-4 .4-.5.5-.6.7-.2.3.4.2 2.3-.2 2.7l-.4 1.3c-.1.7-.3 1-.7 1-.4 0-.5-.2-.5-.8zm-6.7-.3c-.3-.3-.3-.8 0-2 .2-1.6.5-2.2 1.1-2.2 1 0 .6 2.7-.3 4-.5.5-.6.5-.8.2zM79 168c-.8-.3.1-3 1-3.2.4 0 .5.1.5 1 0 .6-.2 1.4-.4 1.8-.5.6-.6.7-1.1.4zm127.8 8.3c.6-.3 0-1.3-1.3-2.3l-1-.8-.1.5c0 .3.1 1 .4 1.6.6 1 1 1.3 2 1zm-5.2-1.3c.3-.7-.1-1.6-1.8-4.2l-1.7-2.5-1.8-1a9 9 0 0 0-2.6-1h-.6l1.9 2c2 2 3.3 3.8 4.3 5.5.8 1.4 2 2 2.3 1.2zm2-3c-.1-.2-.3-.3-.3-.1 0 .4.6 1 .7.8 0-.1 0-.4-.3-.7zm-53.8-5.7.6-.6c0-.2.1-.5.3-.6.4-.4.7-1.9.4-2-.1-.1-.4.2-.6.7-.2.5-.5 1-.7 1-.1 0-.2.2-.2.5l-.4.8c-.3.2-.4.6-.4 1v.7l.2-.6.8-.9zm51 1c0-.2 0-.5-.2-.6-.5-.4-1-.4-1 0 0 .2.1.5.3.7.4.4 1 .4 1 0zm-45.2-3.8c0-.7-.6-1.6-1.1-1.6-.2 0-.3-.8-.2-2.2.2-5 .2-5-.5-6-.4-.6-1-1.4-1.2-2l-.6-1c-.2 0-.3-.5-.3-1.3 0-2-.8-3.2-1.6-2.3-.2.3-.2.8 0 1.8.5 2.5 1.3 5.4 1.8 5.9.3.3.3.8.2 2.6l-.2 3.3v1l.6.1c.9.1 1.3.8 1.3 1.9 0 .5.2 1.2.4 1.6l.4.6.5-.9c.3-.4.5-1 .5-1.5zm2.4-.4c0-.7 0-.7-.4-.5-.4.4-.8 2-.5 2.4.3.5 1-.9 1-1.9zm5 .9c0-.1 0-.3-.2-.4-.2-.1-.3 0-.3.2 0 .5.2.6.4.2zm6.2-2 1.3-1.6c.2-.4 1.7-1.5 2.2-1.5.2 0 1-.5 1.8-1.3.7-.7 1.7-1.4 2.2-1.7l1.2-.8 1.4-1c1.5-.6 1.7-.9.8-1-1.4-.4-6.6.8-9.8 2.3l-1.4.6-.4 1.5c-.3.9-.6 1.8-.9 2-.3.4-.6 3.3-.4 3.5.4.4.9 0 2-1zm42.6.5c.4-.7.4-.9 0-1.5-.7-1.4-1.6-1-1.7.7-.1 1.5 1 2 1.7.8zM93 162c0-.2-.1-.4-.4-.4-.3 0-.3 0 0 .4.4.5.4.5.4 0zm57.7-.7c.3 0 .3-.4.2-1.4l.1-1.7c.4-.4.4-3.1 0-3.5-.3-.4-1.2 0-1.7 1-.7 1.3-.8 2.4-.3 3.3.2.4.4 1 .4 1.4 0 .3.1.9.3 1.3l.4.7.1-.6.5-.5zm8.9-1.3c.4-.5.5-1 .5-2.6s.1-2.2.5-2.6c.8-1 .4-2.7-.9-3.3-.9-.5-1-.4-1.5 1-.3.9-.2 5 0 7.2.2 1 .7 1 1.4.3zm40.7-.5-2.6-1.5a9.2 9.2 0 0 0-3.5-1.2h-1l1.2.7 2.3 1 1.8.7c.8.5 2 .7 1.8.3zm10-1c-.2-.1-.3-.7-.4-1.3v-1l-.1 1.2c0 .7 0 1.3.2 1.3.1 0 .3.3.3.6v.6l.1-.7c.1-.3 0-.7-.1-.8zM156 158c0-.6 0-.7-.4-.4-.3.3-.3.4 0 .7.3.5.4.5.4-.3zm47.3-.8c-.5-.5-1-.9-1.3-.9-.3 0-.5-.1-.5-.3l-.4-.2c-.5 0 1 1.5 1.8 1.7.2 0 .5.3.5.4 0 .1.1.3.4.3.2 0 0-.4-.5-1zm-23.4-1c1.2-.1 5.1-.9 6.6-1.4 1.4-.4 3.3-.5 3.5 0l1.1.2c.6 0 .8-.1.6-.2-.2 0-.8-.6-1.4-1-1-1-2.1-1.2-3.5-.7-.4.2-1.7.4-3 .6-2.4.3-3.6.7-4.9 1.8-.5.4-.6 1.2-.1 1 .2-.2.7-.3 1.1-.3zm30.6-3.2c0-.4-.2-.9-.4-1.1l-.4-.4v3l.4-.4c.2-.2.4-.7.4-1.1zm-74 .1c1-1.2 1-1.9-.1-5.4-1-2.9-1.1-5-.4-5.1.7-.2 1.2.4 2.3 2.8 1.2 2.4 1.6 2.6 2.4 1.2.6-1 .6-1.7 0-2.5-.3-.5-.4-1.1-.4-2.6 0-2 0-2.4 1.5-5 .4-.6.7-1.3.8-1.7.1-1 .7-.9.7.1 0 .6.2 1.3.5 1.6.3.4.7 1.2.8 1.8.3 1.3 1 2.5 1.4 2.3.3-.2.3-2.4 0-3.7l-.5-3c-.1-2 0-2.5.7-1.3.2.4.8 1 1.3 1.2.7.3 1 .7 1.2 1.3.5 1.6 2.5 1.3 3.3-.6 1-2.2 1.3-3 1.5-4 .1-.6.3-.9.4-.7.2.1.2.7 0 1.4-.2 1-.2 1.5 0 2 .7 1.3 1.6.9 2.1-1 .4-1.7.5-1.8 1.2-2.3 1-.6 1.2-.8 1.2-1.8 0-.8.5-2.3.9-3 .3-.4 1 .1 1 .8 0 .2.2.7.5 1 .4.6.6.6 1 .4.7-.4 1-2 .9-3.5-.3-2-.2-2.4.9-2.6 1-.2 1.2-.3 1.9-2.3l1-3.2c.5-1.2.6-1.6.3-1.9-.4-.5-1.5-.5-1.7.1a26.5 26.5 0 0 1-6.6 6c-.4.3-.7.4-.8.3-.1-.1.2-.5.7-.9a50.9 50.9 0 0 0 3.7-3c.1 0 .5-.7.8-1.5a10.5 10.5 0 0 1 2-3.4c.3-.5.7-1.4.8-2 .1-.8.2-1 .8-1 .5 0 .7.2.8.6l.2.5.3-.7c.3-.6.4-1.2.3-2.1-.2-1.5 0-2 .8-2 .3.1.5.4.6 1.1v1l.4-.4c.3-.2.4-.9.4-1.9 0-1.9-.2-2.5-1-3.3-.8-1-1.1-1.7-1.1-2.6 0-.8-.9-2.7-1.5-3.4-.3-.3-.4 0-.4 1.6 0 1.2-.2 2.5-.4 3.3-.5 1.2-1.2 2-1.6 1.6L164 99c-.1-2-.3-2.7-.7-3.1a2 2 0 0 1-.4-1.1c0-.8-1.3-3.5-1.9-3.8-.7-.3-1.1.4-1 1.5.2.7.1 1-.4 1.6-.5.4-.7 1-.7 1.6v1h-.6c-.4 0-.7-.2-.7-.4l-.6-.2c-.6 0-2 1.4-3.5 3.4-.7 1-1.8 1.9-2.5 1.9l-1.2.6c-1.9 1.3-2.5.5-.7-.8l2.5-2.1c1.4-1.3 1.6-1.7 3.3-5.5.6-1.3 1-1.5 1.7-.8.4.4.6.4 1 .2.6-.4.6-1.4 0-2.4-1.3-1.9-1.6-2.4-1.6-2.9s-1-2.3-1.5-2.7l-1.2-2c-.9-1.8-1.1-2-1.6-1.2-.7 1-.5 1.6.4 3 2 2.6 3 5.5 1.8 5.5-.3 0-.5-.2-.5-.5l-.4-.8-.4-.4v.7c0 .4 0 .7.2.7s.4.6.7 3c.2.8.1 1-.2 1-.3-.2-1-1.4-2.1-4-.9-2-3.7-4.9-5.3-5.3-.8-.2-1.3-.2-2 0l-1.6.3c-1.5 0-1.5.4.3 2.5l1.9 2v.7c0 .3-.2.5-.8.5-1 0-1.8.6-2.4 1.8-.7 1.2-2.5 3.3-3.1 3.5-1.7.4-2 .7-2.3 1.7-.3 1.1-1.2 2.3-1.7 2.3-.9 0-.2-2.6 1-3.7.4-.4.7-1 .7-1.2 0-.8 3.3-4 4-4 .4 0 1-.3 1.5-.6l.9-.5-.3-.6c-.5-.9-1.3-1.5-5.6-4.2-1.4-1-1.8-1.4-3.5-4.2l-1.5-1.9c-.4-.4-1-1-1.3-1.5l-.6-.8.2-1.9c.1-1 .3-2 .5-2.1.5-.4 1 0 1.4 1l.6.8c.1 0 .3.3.3.6s.1.5.4.5c.3 0 .4 0 .2-.2-.2 0-.4-.3-.4-.6l-.4-1.9c-.5-1.4-.3-2 .5-1.7.4.1 1.6 3.4 2 5.3.1.5.5 1.2.8 1.4l1.8 1.5c1.6 1.2 2.4 1.7 4.4 2.3 2 .7 2 .7 2.3-.1.4-.9 1-.9 1.9 0 1 1 2 1.5 2.3 1 .8-.7-.2-3.6-1.3-3.6-.3 0-.6-.2-.8-.4a2.9 2.9 0 0 0-2.4-1.1c-1.5 0-4.3-2.1-5.5-4-.3-.6-.6-.8-1.2-.8-1 0-1.5-.4-2.4-2.1-.8-1.6-1.2-4.6-.7-4.9.5-.3 1.1.3 1.1 1 0 .4.3 1.3.6 1.9l.7 1.2.2-1.1c.3-1.4 1-1.7 1.4-.6.8 1.9 1.8 4 2.2 4.4.2.3.7.5 1.2.5.8 0 2.3.7 2.8 1.4.2.3.2-1.2 0-1.8 0-.3-.6-.7-1.2-1-1.4-.7-2-1.3-2-1.9 0-.7.5-.8 1.7-.4 1.5.5 2 .2 2-1.2 0-1.5.2-2.3.6-2.3.5 0 1 .9 1 2.1 0 .7.1 1.4.4 1.8.5.6.6 1 .6 3.3s0 2.6.3 2.3a6 6 0 0 0 .6-2.4l.2-2h.6c.9 0 1 .6.8 5-.2 4 0 4.8.8 4.3.3-.1.7-.8.9-1.4.4-1.3 1.2-2 2.3-1.8 1 0 1.4 1 1.4 3v1.4l.9.6c.4.2 1.3.5 1.9.5.8 0 1.3.2 2.5 1.1 2.8 2.2 4.1 3.1 5.6 3.9.8.4 1.7 1 2 1.3 1.1 1 2.2 1.4 2.8.8.4-.5 1-2.1 1-2.8 0-.4.1-.9.4-1.2l.5-1.5a17.5 17.5 0 0 0 1.4-5.5l.3-3-.7-1.4c-.8-1.7-1.8-2.8-2.6-2.8-1.3 0-2-.6-3.5-2.9A9.4 9.4 0 0 1 166 65c-.4-2.6-.3-4 .3-5.6 1.4-3.3 1.7-8.2.8-11.8l-.5-2.8-.2-1.2c-.8-1.4-1.7-4.5-1.7-5.5l-.5-.4-.4-.2v1a3 3 0 0 1-.3 1.4c-.2.2-.3.7-.4 1.2l-.9 2.3-.6 1.8c0 .7 1 .1 1.8-1 1-1.6 1.6-2 1.4-.8 0 .3 0 .7.2.8.4.2.3 1.2-.2 3.6l-.4 2.1.4 1c.7 1.3.6 1.7-.7 3.2-1.5 1.7-1.7 2.3-1 3l.6.6-.6 1.4c-.2.8-.7 1.8-1 2.2-.7.9-.8 1.6-.4 2.4l.4 1.2c0 .8-1 .8-1.8 0a8.8 8.8 0 0 0-3-1.6c-.3-.1-.7 0-1 .5-.3.3-.6.5-.7.4-.2-.2-.2-1.1 0-1.1.3 0 1-1.3 1-1.9 0-.3-.2-.5-.4-.5-.4 0-1.4.8-2.2 1.5-.4.4-3.4 1-4.9 1H148v-1.6h1.1c.8 0 1.2-.3 1.6-.9.3-.4.7-.8 1-.8.5 0 1.5-.4 2-1 .3-.2.2-.3-.2-.3a37 37 0 0 1-8.6 1.6c-1.5 0-2-.3-2-1.2 0-.8 1.2-1.4 1.7-.9.3.2 1.3.3 2.6.4 1.8 0 2.3-.1 3-.6.4-.3 1.3-.6 2-.7 2.1-.3 3.2-.7 3.9-1.2l.6-.5-1.3-.2-1.7-.4c-.6-.3-.6-1.1-.1-1.6.2-.2.4-.7.4-1 0-.5.1-1 .3-1.4.3-.4.3-.6 0-.8-.5-.5-.4-1.1.2-1.5.6-.5.7-1.6.2-1.6-.2 0-.7-.3-1-.7l-1.1-.7c-.3-.1-.5-.3-.5-.5s.2-.2.6 0c.6.3 1 .2 1-.4 0-.2.2-.4.4-.4s.6-.2.9-.5l.8-.5c.2 0 .3-.2.2-.3-.1-.1 0-.3.1-.4.5-.3.3-.7-.3-.7-.4 0-.5-.1-.5-.8 0-.5-.1-.7-.5-.7l-.8-.4c-.4-.4.1-1 .8-1 .3 0 .5 0 .5-.2s.2-.3.4-.3c.5 0 2.4-1.8 2.4-2.2l.4-1.1c.3-.8.4-1.3 1-4.4l.1-1.2-.7-.3c-.8-.4-2.2-3-2.4-4.6-.2-.9-.5-1.4-1.6-2.5a16 16 0 0 0-7.6-3.9 22 22 0 0 0-7.4-1.2h-2.4l-1.5 1.4c-1 1-1.6 1.8-1.6 2.2-.1 1-1.7 1.8-2.8 1.5-.4 0-1.4-.8-2.1-1.5-1.6-1.6-1.7-2.2-.4-2.5.4 0 .9-.3 1.1-.5.4-.3.8-.4 1.7-.3.8.1 1.2 0 1.4-.2.4-.4-2.7-2-4-2a5 5 0 0 1-2.3-.9c-2.3-1.4-2.6-1.7-3-2.5-.5-1-2.3-2.6-3.3-3.2a15 15 0 0 1-2-1.4c-.6-.5-1.3-1-1.5-1l-2 1c-.8.7-1.8 1.2-2.2 1.3-.6.2-2 0-2.7-.3-.6-.2-1.6 2-2 4.4l-.4 1.7.5 1.5.5 1.4h1.4c1.7.2 1.8 0 1.4-2.4-.3-1.4-.3-2 0-2.5.4-1.1 1-1 1.3.3a5 5 0 0 0 .9 1.8l1 1.7.5 1.9c.5 1.3.6 2.2.3 2.4-.5.3-.4.9.2.9.8 0 1.6.9 1.7 2 .2 1 1.2 3.8 2 5.4a75 75 0 0 0 10.3 10.2c1.3.4 1.5.8.8 2.2-.3.7-.6 2-.7 3 0 1.6-.5 2.3-1.3 2.3-.4 0-1.3-1-1.3-1.5 0-.3-.3-.8-.6-1.2-.3-.4-.6-1.1-.7-1.7-.3-1.5-2.1-4.9-3-5.5a23 23 0 0 0-2.5-1.4 22 22 0 0 1-2.8-1.8c-.6-.4-1.6-1-2-1-.6-.1-1.4-.4-1.7-.7-1-.7-2-.6-2.6.2l-.6.7-.7-.3c-1.3-.6-1.5-.4-1.4 1 0 1.6.3 2.3 2.4 4.8a5 5 0 0 1 1.1 2.4c.3 1.7 1.2 3.2 3.7 6.1l1 1.2.1 1.8.2 1.9-1.1 1c-.6.7-1.2 1.1-1.4 1-.1 0-.8.1-1.4.5l-1.2.6-.8-.7c-.4-.5-1-1.2-1.2-1.8-.4-.8-.6-1-1.5-1.2-1-.2-1.1-.4-1.3-1.1-.3-1-.3-1-1.3-.4-.8.6-2.4 1.1-3.5 1.1l-1.8.4-2.8.8c-1.3.4-1.8.8-3.5 2.5-1 1-1.9 2.2-1.9 2.4 0 .2.2.5.5.7.8.5.7 1.4-.1 2.6-.8 1.2-.8 1.2 0 2 .6.6.7.8.5 1.7 0 .6-.3 1.2-.5 1.4-.8 1-1 1.7-.6 2.5.1.4.2 1 0 1.4 0 .7-1.8 2.6-3.2 3.7a35 35 0 0 0-6.6 8.4c0 .1.1.6.4 1 .5 1 .1 2.6-1.8 6.3l-1.6 3.1.2 2.4.2 2.4-.9 1.6a7.9 7.9 0 0 0-1 3.5c-.2 2.7.4 3 3.8 2.2 1.6-.4 3.1-1 5.2-2l2-1c.2 0 1.6-.6 3.1-1.4l2.7-1.3.6-1.2 1.3-2.2c1.4-1.7 1.5-2 1-3.2l-.7-1c-.1 0-.5.3-.8.8-1 1.5-2.4 1.2-2.4-.6 0-.5-.1-.7-.4-.7-.2 0-.4 0-.4.2 0 .4-2.3.4-2.4 0-.1-.4.4-2.5.8-3.3.4-.8.4-1.9 0-2.1-.4-.3 0-2 1-4.3a169.2 169.2 0 0 0 2.3-4.5c.6-1 .8-1 1.3-.8.6.3.6.5 0 1.6l-.4 1 .6.5.7.5-.5 1c-.7 1.3-.8 2.7-.4 3.4.4.9.6.8 1.5-.2l.8-.8v2.1l.8.2c1.2.2 1.5 1 1 2.6-.8 2.3-.6 2.6 1 1 3-2.7 4.1-3.4 5.3-3.4.5 0 1.1-.5 2.5-1.9 1-1 2-1.8 2.1-1.8.3 0 .9-.4 1.6-1.2l.7-.4c.2 0 .5-.3.8-.6l.7-.5 1-.5c.7-.6 2.2-.7 2.6-.1.3.3.3.5 0 1.1-.1.5-.4.8-.5.8-.5 0-1.3 1.1-1.3 1.7 0 1 .4 1 2 .4a45 45 0 0 1 6.1-2c.4 0 .4.9 0 1.5-.4.7 0 1.1 1.6 1.6 1.8.5 4.3 1.8 4.3 2.3 0 .5-1.4 1.4-2.4 1.4s-2.2.6-2.6 1.3c-.2.3-.3 1-.3 1.8v1.2l-1.2.5c-.6.4-1.2.9-1.3 1.2-.3.6-.3.5 0 1.5.1.5 0 .8-.9 1.6-.5.6-1.4 1.3-2 1.6-1.2.6-3.6 3-3.6 3.5s1.2 1.7 3 2.8a12 12 0 0 1 2.3 2.2c.6.7 1.5 1.4 2.3 1.8l1.4.7.4-.4c.2-.2.4-.7.4-1.1 0-.7.4-1.4.9-1.4l.5.8c.2.6.4.8 1 .8.4 0 1-.1 1.4-.3.4-.2.9-.2 1-.2.4.2.3.5-.3 1.7l-1 1.6c-.2 0-.3.3-.3.6s0 .3.5-.2c1-1.1 2.1-.5 2.1 1.2 0 .4.4 1.6.8 2.6s.7 2 .5 2.1c-.5.6-5.5-2.7-7.8-5.2-.4-.5-1.4-1.2-2.2-1.6-2.6-1.4-3.6-2.2-4.5-3.4l-1-1.3c-.2 0-2.7-1.8-3.4-2.4l-1-.5-.7-.5c0-.2-5-1-6-1-5 .4-6.7.6-7.6.9a4 4 0 0 1-2.4 0l-1.3-.3-2.8 1a75 75 0 0 0-9.7 3.9l-1.5.5c-.3 0-.4.2-.4.4s.2.4.4.4l1.2.4c.6.3.8.5.6 1 0 .5 0 .7.6 1 .6.2 1.2.2 2.9-.2 1.1-.2 2.3-.6 2.7-.8.7-.5 1.5-.4 1.8.1.4.7-.3 1.8-2.3 3.7-1.4 1.5-1 1.7 2.2 1.5 3.3-.1 4-.3 5.3-1l2-.4c.8 0 1.5-.2 2.1-.6.6-.4 1.1-.6 1.3-.5.1 0 .4 0 .5-.2 0-.2.4-.3.8-.3.3 0 .7-.1.8-.3.4-.7 2.5 0 3 1 .2.6.8 1 1.7 1.4 1 .6 1.5 1 2 2 .5.7.8 1.6.8 2 0 .4.3 1.2.8 1.9.4.6 1 2 1.3 3l.9 2.6c.1.4.2 1.3 0 2.3 0 1.2 0 1.6.3 1.9 1.5 1.2 2 1.8 2 2.5 0 1.1.6 1.6 1.4 1.1 1-.5 1.2-.1 1.2 1.5 0 1.1.1 1.4.8 2 .6.6.9 1.3 1.2 2.7.5 2 1.3 3.7 1.7 4 .4.2.4-.5-.1-3.4l-.4-2.5.6-.8c.5-.7.5-1 .2-1.5-.4-1-.3-2.6.1-3 .3-.3.5-.1 1 .9l.6 2.1.4 1c.2.2.3 1.1.3 2.2 0 1.4 0 2 .4 2.2.3.3.4.3.4-.3 0-.4-.1-.8-.3-.9-.1 0-.3-.7-.3-1.4 0-1.1.2-1.6.8-2.5l.8-1.1.2-2.9.2-2.9h.8l.7-.2v1.3c0 .7.1 1 .2.6.1-.8.4-1.1 1-1 .2.2.3.3.2.6-.5.6-.8 3.5-.5 4l.3.7.4-.5c.3-.3.6-1 .7-1.6.2-.6.6-1.5 1-2l1.5-2.2c.9-1.3 1.8-1.6 1.8-.6 0 .3-.5 1.5-1 2.7-1.3 2.6-2 4.6-2 5.6 0 1.7.3 5.1.5 6.3.2 1 .1 1.3-.2 1.3-.3 0-.6-.3-.7-.7-.2-.3-.6-.8-1-1-.4-.2-1-.7-1.1-1-.2-.5-.5-.8-.6-.8-.4 0-1.6 1-1.6 1.4l-.4 1.1c-.7 1.3-1.2 4.4-.9 4.8.3.3.4.2.9-.5.4-.6.8-.9 1.4-1 1 0 1.5.6 1.8 2.3.4 2 1 3.9 1.5 4.4l.5.5.6-.5c.5-.5.6-.8.5-1.4l-.1-.9.4.4c.3.2.4.8.4 2.3 0 3 .5 3.4 1.7 2zm-.5-13.5c-.7-.7-.3-5 .5-5.4.1-.1.4 0 .6.2l.8.7c.9.4.8 1-.3 1.6-.9.5-1 .7-1.3 2.9 0 .3 0 .3-.3 0zm-18-14.4v-1.6c0-1.3.4-2 1.2-1.9.3 0 .4.3.4 1.4 0 1.9-.3 2.5-.9 2.5-.2 0-.5-.2-.6-.4zm-2-1.5a7 7 0 0 1 0-2.2l.4-2h.7l.7.2-.1 1.5c0 .9-.2 1.7-.3 1.8l-.4.6c-.2.5-.8.6-1 .1zm-.6-4.6c-.3-.4-.1-1.6.4-2 .8-.8 1.2-.3 1 1-.2.9-.4 1.2-.7 1.2l-.7-.2zm21.4-5.5c-1.4-2 0-3.2 1.4-1.3 1.1 1.4 1.1 2.2.1 2.2-.5 0-1-.2-1.5-1zm16.8-5.2c0-.6.7-1.6 1.1-1.6.6 0 .6.5.1 1.3-.4.6-1.2.8-1.2.3zm-4.7-1c0-.4.2-.7 1.2-1.2 1.2-.6 1.8-1.2 4.3-4.1.8-1 1.9-1.5 1.9-.8 0 .2.7-.4 1.5-1.2 1.3-1.3 1.6-1.8 1.8-2.7 0-.7.3-1.2.4-1.2l1 1.2c1 1.5 1 2.6.1 4.5-.9 1.8-1.3 2.2-2.8 3-1.5.8-2.3.8-2.3 0 0-.2-.2-.5-.4-.5s-.4.2-.4.3c0 .2-.2.3-.4.3-.3 0-.7.1-.9.3a20 20 0 0 1-4.5 2.8c-.4 0-.5-.1-.5-.6zm-18.1-7.9c-.4-.4-.2-1.4.5-2.4.5-.7.6-1.2.5-1.7-.1-.4 0-.9.4-1.4 1.6-2 2.3-2.4 3.4-1.6.8.6.7 1.1-.2 2-.7.7-1.4 1.7-1.4 2l-.5 1c-.4.4-1 1-1.3 1.5-.6.8-1 1-1.4.6zm25.8-1.2.4-.4c.2 0 .3 0 .3.2s-.3.4-.5.5c-.2 0-.3 0-.2-.3zm-8.8-3.5v-1.7l-1-1.4c-.5-.8-1.2-1.6-1.5-1.9-.7-.7-.4-1.6.7-1.8 1.7-.4 1.9-.4 2.3.4.5 1 .9 4.8.6 5.9l-.4 1.5c-.3 1.3-.7.7-.7-1zm20-9.5c-.6-1-.8-2.4-.4-4 .2-.8.3-1.5.2-1.6-.1-.1-.6 0-1.2.1-1.2.3-2.5 0-3.8-1a3 3 0 0 0-1.5-.8 4 4 0 0 1-2.5-1.2c-.8-1-2.3-4.3-2.3-5.1 0-1 1.1-2 2.3-2 1 0 2.6 1.4 2.8 2.3l.5 1.3.3.7.3-.6c.4-.8 1.3-.7 1.5 0 0 .5.4 1.4.6 2.3.8 2.6 1.7 3 2.9 1.2.9-1.5 2-.7 2.7 2 .5 1.7.5 2.6 0 3-.2.2-.5 1-.6 1.6-.2 1.7-.5 2.4-1 2.4-.2 0-.6-.2-.8-.6zm-41.4-11.7c-.3-.2-.6-.6-.6-1s-.1-.4-1.2-.4c-1 0-1.4-.2-2.5-1.1-1.1-1-1.3-1.2-1.3-2 0-1.5 1-5.3 1.4-6 .5-.8.8-.9 1.3-.3.2.3.2.7-.3 2a4.9 4.9 0 0 0-.4 2.5l.2 1 .8-1.7c.6-1 1-1.6 1.3-1.5.4 0 .4.2-.2 2.6-.4 1.5-.4 1.9-.1 2.2.4.5.7.3 1-.5.5-1.2 1-.8 1.2.8.1.8.4 2 .7 2.4l.5 1.2c0 .4-1.1.3-1.8-.2zM109.5 69l-.7-1.1-.4-.9.8-.8c.4-.5.8-1.1.8-1.4 0-.6 1.1-1.8 1.7-1.8l1.5-.5c.6-.3 1.5-.6 2.1-.6.5 0 1 0 1.2-.2 0-.2.4-.3.7-.3.3 0 .7-.1.9-.3.3-.3 1.7.2 1.7.7l-.4.7a14.8 14.8 0 0 1-5 2.6l-1 .4c-.4.1-1 .4-1.2.7l-.4.4.4.2c.6.2.5.7-.3 1.4-1.2 1.1-2 1.4-2.4.8zm45.1-.4-.2-.7c0-.5.2-.7.8-.7.8 0 1.5.6 1.2 1.2-.1.4-1.5.6-1.8.2zm-3.6-2c-.4-.4-.4-1.5 0-1.6h2.2l1.9.3v.8l.1.9h-1.9c-1.2 0-2-.2-2.3-.3zm-35-7.3c-1-.3-1.8-1-1.8-1.5l.5-.8c.5-.3.7-.4 1.2-.2 1 .5 2 1 2.3 1l.8-1c.5-1 1.7-1.5 2-1 .2 0 .3.9.4 1.7l.2 1.5-.6.1c-1.2.4-4 .4-5 .2zm28.4-2.9c0-.4.2-.5 1.2-.7a9 9 0 0 0 2.3-.7c1.1-.6 1.8-.3 1 .4-.5.4-3.4 1.5-4 1.5-.4 0-.5-.2-.5-.5zm-19.7-1.7c-.3-.3-.4-.9-.4-1.2 0-.8-.5-1.3-1-1.3-.7 0-1.2-.8-1.2-1.6v-.8l.9.3c.6.3.9.6 1 1.1v.8l1.3-.2c1.7-.2 2.1.2 1.6 1.6-.6 1.9-1.5 2.4-2.2 1.3zm-4.6-5-.3-.5c0-.2-.7-.9-1.5-1.7-1.5-1.5-2-2.6-1.4-3.7.5-1 1-.9 2.5 1.1 1.1 1.3 2 2.8 2 3.3 0 .3 0 .6.2.6.2.1.3.4.3.7 0 .4-.2.5-.8.5-.4 0-.8-.1-1-.3zm-4.7-8.2c-1.5-1.5-2.8-3.4-2.6-3.8.2-.5 1-.7 1.6-.4.7.4 2 2 2.6 3.3.4.8.4 1 .1 1.4-.5.6-.8.5-1.7-.5zm32-3a251.3 251.3 0 0 0-6-1.5c-2.6-.2-3.3-1-4-4.3-.7-2.5-.6-6.9.1-7.7l.3-.4 1 .6c.7.4 1.2.5 2 .4 1.3-.2 4.8 1 5.6 1.9.4.4 1.1 1.7 1.7 2.8l1 2V34l-.1 1.5.7.5 1 .4c.6 0 1.6 1 1.4 1.5-.2.5-1.5 1.1-2.4 1.1l-2.3-.4zm-7.3-8c0-.6.8-1.6 1.3-1.6.2 0 .7.4 1.2 1l.9.9 1-.1c1.4-.1 1.6-1 .5-2-.7-.5-1-.6-2.6-.6-1.5 0-2 0-2.4.6-.8.6-1 2.3-.3 2.3.3 0 .4-.2.4-.5zm-10-4.8c-.3-.6.1-1 1-1 .7 0 1 .6.4 1.1-.5.6-1 .5-1.4 0zm2.3-1.1c-.3-.9.5-1.4 1-.7.3.3.3.5 0 .7-.3.4-.9.4-1 0zm24.8 124.7c.2-.9-.4-1.9-1-1.9-.5 0-1.3-1.4-1.3-2.1 0-.3-.1-.6-.4-.8l-.4-.4.1 1.3c0 .7.3 1.4.5 1.7.3.2.6 1.6.8 3 .2 1.3.4 2.8.6 3.2l.3.7.3-1.9.5-2.8zm16.2 3h-.5c-.2 0-.2.1.2.1.2 0 .4 0 .3-.1zm22.3-2.5v-.9l-.7.6c-.7.7-.8 1-.3 1.6.5.4 1-.2 1-1.3zm-14.3.2c.5-.2.5-.3.3-.6-.3-.3-.7-.4-1.6-.3l-1.2.2-.6-.7c-.5-.5-.8-.6-1-.4-.6.5-.5 2 0 2.2.7.2 3.3 0 4-.4zm-32.5-4.8c.6-.6.8-.9.8-1.9 0-.8-.1-1.2-.3-1-.6.3-1.4 2.3-1.5 3.6v.7l1-1.4zm-17.3-9.4c0-.4-.1-.1-.1.6v.8c.1-.4.2-1 0-1.4zm-31.7-.8c0-.2-.2-.3-.4-.3s-.4.3-.4.7v.7l.4-.4.4-.7zm70-23.5c.5-1.6.5-2.4 0-2.8-.5-.7-1.2.5-1.2 2.2 0 1.6.2 2.5.5 2.2l.7-1.6zm2.3-9c-.2 0-.3-.6-.3-1.4 0-.7-.1-1.3-.3-1.3l-.2-.8c0-1-.6-2.4-1-2-.2.2-.2.5 0 1.1l.5 1 .2 1.1c0 .5.1.9.3.9l.2.8c0 .6.1.8.5.8.3 0 .3-.1.1-.2zM105 98c5.3 0 6 0 8.7-1.4.8-.5 2-.8 3.1-1 2-.1 2.6-.5 3.1-2a3 3 0 0 0 0-1.9c-.3-1.2 0-2 1-2.6.7-.4 1-.9 1.2-1.4 0-.4.5-1 1-1.4 1.6-1.4 1.7-1.5 1.4-2l-.7-.3c-.7 0-1.7-.6-1.7-1 0-.3-.1-.7-.4-.9-.4-.3-.7-.2-3.7 1.1l-1.5.5c-.2 0-1 .7-1.6 1.5-.7.8-1.4 1.4-1.5 1.3-.1 0-.3-1-.3-1.8 0-1.2 0-1.8-.3-1.8-1.2-.1-2.3.5-3.7 2l-1 1.2s-.3.6-.8 1a5 5 0 0 0-.8 1c0 .1-.3.6-.8 1.1l-.9 1.5-.2 1.3c-.2.9-3.5 4.6-4.3 4.9L99 97c-.6 0-.8.1-.9.6v.7l1-.2 6-.2zm61.3-5c.2-.4.7-.9 1-1l.8-.4-.2-.6c-.5-.9-1.4-1.2-2.6-.9l-1 .3-.4 1c-.3 1.2-.2 1.4.9 2 1 .5 1.2.5 1.5-.4zm54.9-24.5c.8-.3.5-2-.6-3.3-.3-.4-.4-1-.5-2.4 0-1-.1-2-.3-2.2-.2-.1-.3-.9-.3-1.6 0-1-.1-1.5-.3-1.5-.4 0-1 1.7-1.1 3.9-.2 1.3-.1 1.7.3 2.2.3.3.6.5.7.4.2-.2.2.2.2 2.3 0 1.5 0 2 .7 2.2.6.2.7.2 1.2 0zm-5.5-10v1.8-1.9zM157 51.1c1.2-1.1 1.5-1.7 1-1.7-.4 0-1.1.7-1.1 1 0 .2-.4.7-.8 1.2-.5.4-.7.7-.5.7.1 0 .8-.5 1.4-1.2zm5.6.3c.2-.2.4-.5.3-.6 0-.2-.3 0-.7.4-.3.3-.4.6-.3.6l.7-.4zm52.2-2c-.1-.2-.2 0-.2.5s.1.8.2.5v-1zM111 49c.5-.6.6-1.8.3-2.6-.4-1-1-1-1.5 0-.4.5-.6.6-1.3.5-.8-.2-1 0-1.2.5-.4 1-.3 1 1.3 1.5 2 .5 2 .5 2.4.1zm45.8-9.4c0-.5 0-.8-.3-.8-.5 0-1 .7-1 1.3 0 .4.1.5.6.5.4-.1.6-.3.7-1zM163 35c-.4-1.4-1.4-3-2-3-.4 0-.7.5-.9 1.8l-.1 1.1.8-.1c.7-.1 1 0 1 .4v1.1c-.4 1 .1 1.4.9.6l.6-.6zm-58.4-5.7c.5-.4 1.3-.9 1.7-1l1.3-1c.3-.2 1-.6 1.5-.7a8 8 0 0 0 1.6-.5 6 6 0 0 1 2.2-.4c.8 0 1.5-.1 1.6-.3a9 9 0 0 0 0-2.3l-.2-2-1.4-.8c-2-1-2.7-.4-1.2 1 .6.6.7.9.5 1.1-.4.5-.6.5-1.5-.2-.4-.3-1.7-.7-2.8-1l-2-.3-.7.5c-.4.3-1.3.8-2 1-1.5.8-3.6 2.7-3.8 3.6-.2 1 .3 2.5 1.2 3.3 1.1.9 2.7.9 4 0zm112-2.3s.2-.4.2-1-.2-.8-.4-.8c-.3 0-.4.3-.4 1.5 0 .8 0 1.2.2 1 0-.4.2-.7.3-.7zm1.3-8.2c.5-.4.6-1.5.1-2.5-.5-1.2-1.5-.6-1.5.9 0 1.2.6 3 .8 2.5l.6-.9zM112.6 5c0-.4-.3-.6-.7-.7-.7 0-.8.4-.3 1 .5.5 1 .3 1-.3zm112 208.3-.6-.5v-4.2l-.1-5.2c-.2-1.9-1-18.4-1-21 0-1.5-.2-2.5-.5-2.9-.3-.5-.3-.6 0-1 .2-.2.4-1 .5-1.8 0-.8.2-1.5.3-1.5.3 0 .5 4.3.3 5.3a87 87 0 0 1 1 16c.3.3.6 3 1 8.2 0 2 .5 4.3 1 5.5.3 1.2 0 2.7-.8 3.3l-.6.4-.5-.6zm-80-3.9c-.4-.8-.3-1.4.2-1.4.3.1.5.4.5.9 0 .9-.5 1.2-.8.5zm3.2-1.7c0-.7.5-1.8.8-1.8.1 0 .3.5.3 1.2 0 1-.1 1.2-.6 1.2-.3 0-.5-.2-.5-.6zm-95.2-1.5c0-.2-.3-.3-.6-.4-.6-.1-.5-.1 0-.1s.8 0 .8.2c0 .3 1.8.3 2 0l.3.1c.3.4.2.4-1 .4-.9 0-1.5-.1-1.5-.2zm164.6-3.2c0-.4-.2-.8-.3-.8-.5 0-.3-8.2.1-9.9l.4-1.4-.1 1.2a46.7 46.7 0 0 1-.2 2.5c.2-.4.3-.1.3 1a1113.6 1113.6 0 0 0 0 7c-.2 1-.2 1-.2.4zm11-4a373.7 373.7 0 0 0-.8-14.5c-.4-4-.4-6.3-.3-6.5.4-.4.8.5 1 2.5 0 1 .3 2.5.4 3.6.2 1 .4 3.6.5 5.8.6 7.7.5 9.6-.4 9.6-.2 0-.4-.2-.5-.6zm-170.9-.4c0-.2.2-.4.3-.3.5.1.6.7.1.7a.4.4 0 0 1-.4-.4zm-32.1-.4a27 27 0 0 0-3-1l-1.8-.6-.5-1c-.4-.9-.7-1.3-1.1-1.3-1.3-.2-.6-1.2 1-1.5l2.5-1c1.1-.6 1.8-.8 2.3-.6 1 .2.8.8-.6 1.4-1.3.6-1.9 1.4-1.9 2.4 0 .6.4 1 1.9 1.4 2 .5 3.2 1.2 3 1.7-.2.6-.7.6-1.8 0zm194.2-.4c-.5-.6-.4-2.6 0-5l-.1-1c-.5-.3-.4-2.5 0-2.8.4-.3.5 0 .6 2v2.6l.1.7.4 2c.2 1.2.1 1.6-.2 1.9-.3.3-.5.2-.8-.4zm-.3-11.1c-.2-.6-.2-2.7 0-3.5.3-1 .6-.4.6 1.4l.1 2c.1.5-.5.6-.7 0zm7.9-9.3c-.4-.2-.5-1.6-.1-2.2.4-.6.6-.2.5 1.1 0 .8-.2 1.1-.4 1zm4.7-3.6c-.3-.6-.3-.8 0-1 .3-.4.3-2.9 0-2.9-.1 0-.3-1-.3-2.3a7 7 0 0 0-.2-2.5c-.4-.2-.6-3.3-.4-5.4l.3-1.2c0 .3.2.5.3.5.3 0 .4 2.8.3 6 0 1.7 0 2.5.2 2.5s.3 1 .3 2.5c0 1.4.1 2.8.3 3.2.2.5.2.7 0 1l-.5.4zm5.3 0c-.1-.3-.3-1-.3-1.8s-.1-2.2-.3-3.2c-.2-1.7 0-2.3.7-2.3.5 0 .7 2 .5 5-.2 2-.3 2.5-.6 2.2zm-14.3-3.2c0-1.6 0-2.8.2-2.8.4 0 .5.7.5 2.8 0 2 0 2.7-.5 2.7-.1 0-.2-1.2-.2-2.7zm4 .4c0-.9-.2-2-.3-2.3l-.3-.8.4.5c.3.4.4 1.1.4 2.3l-.1 1.8-.1-1.5zm-.5-5.9c0-.3 0-.5.1-.3v.7l-.1-.4zm-.1-3.8v-.7c.2 0 .3.3.3.7l-.1.7s-.2-.3-.2-.7zm-.5-1.7c0-.4 0-.5.2-.4v.7c-.1.2-.2 0-.2-.3zm-6-2.3c.4-3.9.6-5.1.8-5.3 0-.1.5.2.8.6.6.6.7 1 .7 2.5s0 1.8-.4 1.8c-.6 0-1 .6-1.3 1.4 0 .4-.3.7-.5.7s-.2-.5 0-1.7zm10.8-1.9c0-1.7 0-2.2.2-2 .3.4.3.4.2 0 0-.3-.3-1-.5-1.4-.2-.6-.2-1 0-1.5l.3-.6.3.8c.2.5.2 1.5.2 2.2l.1 2.6c.3 1.2 0 2.2-.4 2.2-.3 0-.4-.6-.4-2.3zm-14.6-5c-.2-.4-.3-1.1-.3-1.7v-.9h.7l.7-.2-.2 1.6c-.2 1.8-.5 2.3-.9 1.2zm14.6-1.8-.2-.8-.3-1.5c0-1 0-1.2.4-1 .4.4.6 1.8.3 2.9-.1.6-.2.7-.2.4zm-27.6-.7c0-.9.7-1 1-.2.2.6 0 1-.6 1-.2 0-.4-.2-.4-.8zm18.8-1.8-.2-1.5c-.2 0-.2-.4-.2-.8.1-.3 0-1.1-.2-1.8-.7-2-.6-2.5.4-2.7.4 0 .8-.3 1-.4.2-.4.5-.2.5.3 0 .3.2.5.3.5.5 0 .3 2-.2 2.6-.5.4-.6 1-.6 2.7 0 1.5-.2 2.3-.4 2.3-.3.1-.4-.2-.4-1.2zm-35.8 0c-.2-.5.1-1.4.7-2.2.2-.3.2-.5-.1-1-.6-.6-.6-1.3 0-1.3.3 0 .6-.2.8-.4.2-.2.5-.4.8-.4.3 0 .3.2.2 1.1l-.3 2.2c-.2 1-1.3 2.5-1.8 2.5l-.3-.5zm23.4-1.6c0-1 .2-1.6.7-1.6.2 0 .3.4.3 1.2 0 1 0 1.2-.5 1.2-.4 0-.5-.2-.5-.8zm-13.9-2.3c0-1.4.3-3.3.5-4l.7-3.8c.5-4 .5-4 1.2-4 .3 0 .7.3.9.5.4.8 0 7.6-.4 8.6-.3.6-.4 1.2-.3 2 .2 1.2 0 1.6-.9 1.7-.4 0-.8.4-1 .8l-.5.8c-.1 0-.2-1.2-.2-2.6zM170 144a20 20 0 0 1 0-3.7c.2-2.5.3-3.3.6-3.3h.3l.2 2.5c0 1.7 0 2.5-.3 3.1l-.5 1.3c0 .2-.1.2-.3 0zm60-1c0-.4 0-.5.1-.2v.5c-.1 0-.2-.1-.2-.4zm-27.2-1c-.2-1 0-1.8.5-1.8.8 0 1 2.4.1 2.6-.3 0-.5-.2-.6-.8zm-26.8-1c0-.8 0-.9.3-.6.3.2.4.5.4.7 0 .2-.1.5-.4.6-.3.3-.3.2-.3-.6zm33.6-2.2.4-6.8a152.6 152.6 0 0 0 .7-12.5c.5-4.8.5-4.7 1-4.7.6 0 .5-.2.6 3.7 0 1.6 0 3.2-.2 3.3-.2.3-.8 4.7-.7 6v4.4c0 3 0 3.7.4 3.7.2 0 .4-.4.5-1.4.2-2.7 1.1-6 1.6-6s.6 1.6.4 4.5c-.4 4.5-.8 6.6-1.2 6.6a.4.4 0 0 1-.4-.3c0-.4-.5-.7-1.3-.7-.6 0-1.3 1.2-1.3 2.2 0 .4-.1.7-.2.7l-.3-2.7zm6.6 1.3c0-.9 0-1.5.2-1.5.4 0 .4 1.7 0 2.5-.1.4-.2 0-.2-1zm-37.7.7c-.2-.3-.2-1.8 0-2.2.4-.6.9 0 .9.9 0 .8-.5 1.6-.9 1.3zm8-2.1v-1.5c0-1 .2-1.3.5-1.2.4 0 .4.3.4 1.1-.1 1-.7 2-1 1.6zm43.3-.6c-.2-.2-.2-1.6 0-1.6.4 0 .7 1.4.4 1.6 0 .1-.3.1-.4 0zm-7.5-1a3 3 0 0 1 0-2.7c.7-1.2.8-3.4.3-4.8-.5-1.5-.4-2.5.2-2.6 1-.2 1.6 4.2 1 7-.3.9-.4 1.8-.3 2 .1.5-.4 1.8-.7 1.8l-.5-.7zm-49.1-1.7c-.4-.6-.4-6.3 0-6.6.5-.4.6.6.6 3.4 0 2.7-.2 3.8-.6 3.2zm5.8-1-.7-.7v-6.9c.1-9 .3-14.6.6-15 .2-.3.3-.3.5 0l.3 1c0 .7.5 1.4 1 1.4.4 0 .4 5.3 0 7-.1.6-.5 1.4-.8 1.8-.8 1-.7 4.2 0 5.3l.6.8-.2 2.8c0 1.6-.2 3-.4 3 0 .2-.5 0-.9-.5zm7.6-5c0-1.4 0-3.5.2-4.6.1-1.6.2-2 .6-2l.5-.2-.1 3.6c-.2 4.5-.4 5.8-.9 5.8-.3 0-.4-.6-.3-2.6zm16.9 1.1c0-.2 0-.4.2-.4s.3.2.3.4-.1.4-.3.4l-.2-.4zm-7.8-6.5c-.3-2.5-.3-6-.1-6.2.1-.1.4 0 .6.1a26.5 26.5 0 0 1 .3 7.3c-.4.8-.7.4-.8-1.2zm2.4-3.5-.7-1.4v-3.4a46.9 46.9 0 0 1 .6-8c.2-1.4.6-2.2.9-1.8l.3 5c0 2.5.1 4.9.3 5.2.3.6 0 5.8-.4 5.8-.1 0-.6-.6-1-1.4zm20.2.7-.9-1.3c-.5-.6-.5-2.2 0-2.4.4-.1 1.7 2.6 1.7 3.6s-.3 1-.8 0zm-33.5-5.2c-.2-1.7 0-2.4.5-2.4s.6.2.7 1.1c0 1.5-.2 2.4-.6 2.4-.3 0-.5-.4-.6-1.1zm-5.8-7c-.3-2 0-5.9.4-5.9.3 0 .5 1.6.6 4.4 0 1.7 0 2.1-.4 2.2-.3 0-.5-.2-.6-.8zm8.9-1.8c0-.9.3-1.2.6-.6.3.3 0 1.5-.4 1.5-.1 0-.2-.4-.2-.9zM201 106c0-1 .3-2.3.5-2.3s.3.7.3 1.5c0 1.1-.1 1.5-.4 1.5-.3 0-.4-.3-.4-.7zm18.3-2c-.4-1.2-.4-1.8 0-1.8.3 0 1 1.8.9 2.4-.3.8-.6.6-1-.5zm-33.5-2.4c-.3-1.8-.1-3.1.5-3.1.3 0 .4.4.4 1.5 0 1.6-.2 2.4-.5 2.4-.1 0-.3-.3-.4-.8zm29-.5c0-.5.2-1 .4-1 .3 0 .4.1.3.8 0 .4-.3.9-.4 1-.3 0-.4-.2-.3-.8zm-35.6-.1c-.5-1.4.4-23 1-23.6.4-.5.7.6.6 2.5l-.4 8.6c-.5 12-.7 13.9-1.2 12.5zm19.5-2.8v-3.4l.6-10c0-2 .2-2.6.7-2 .1.3.2 2.1 0 5.2a163 163 0 0 0-.1 6.5c0 1.8-.4 4.8-.8 4.8 0 0-.3-.5-.4-1.1zm16.3-.7v-.8c0-.1 0-.3.2-.3.4-.1.7.8.4 1.4-.2.6-.6.5-.6-.3zm-26.6-1.7c-.3-.2-.3-1-.2-2.4.2-2.2-.2-3.7-1-3.7-.5 0-.7-.4-.9-2.5-.1-1.8.1-3.6.5-3.6.5 0 .7.7.7 2.2 0 .8.1 1.5.4 1.7l.4.4v-.7c0-.6.5-1.4 1-1.4.2 0-.1 9.3-.4 9.9-.2.3-.3.3-.5 0zm30.2-.7c-.3-.8-.2-3 .2-3 .2.1.3.8.3 1.8 0 1.6-.2 2-.5 1.2zm-17.2-5.8c-.2-.2-.4-.6-.4-1.3 0-.5-.1-1-.3-1-.1 0-.2-.1-.2-.3 0-.2 0-.4.2-.4.1 0 .3-.8.3-1.8l.1-1.8h1.1v6.8c-.2.1-.5 0-.8-.2zm20-1.8c0-.5 0-.7.5-.7.4 0 .5.2.5.6-.2.9-1 1-1 .1zm-19.6-6.4c0-.3 0-.4.2-.2v.6c-.1 0-.2-.1-.2-.4zm-2.5-7c.2-8.9.2-8.8.6-9 .2 0 .6.1.8.3.3.1.3.6 0 3a70 70 0 0 0-.4 6.1c0 4.2 0 4.1-.5 4.1-.2 0-.4.1-.4.3v-4.7zm-12-3.6.5-3.8.2-.6.6.5c.4.4.5.8.5 2.2a11 11 0 0 1-.9 4.5l-.6.3h-.4zm.3-7.2c-.4-.5-.4-.7-.2-1.1.3-.4.3-1 0-2.8v-2.6c.2-.1.4-.8.4-1.4 0-.6 0-1.2.2-1.2.1-.1.2-1 .1-1.8-.3-5-.3-8.1-.2-11 .2-2.5.3-3.1.7-3.4.4-.2.6-.2.9.1l.4.4-.3 6.6-.6 15c-.2 3.4-.5 4.1-1.4 3.2zm13-8.4c-.3-1 .4-5.6.8-6.4.3-.5.5-.6.8-.3.4.4.5 1.3 0 1.7l-.2 2.3c0 2.1-.3 3.4-1 3.4-.1 0-.3-.3-.4-.7z"/>
</svg>
