<?xml version="1.0" encoding="utf-8"?>
<svg xmlns="http://www.w3.org/2000/svg" xmlns:svg="http://www.w3.org/2000/svg" version="1.1" viewBox="0 0 154 131">
  <title>Benjamin Bunny and Peter Rabbit stand on a past between two rocks.</title>
  <path d="M21 130a403 403 0 0 1-12.3-.3c-7.4-.1-8.1-.2-8.4-.6-.3-.4-.4-1-.2-2.9.1-2.2.2-26.1.1-34.6L.3 78c.2-11.2.2-27.2 0-39.3a117.8 117.8 0 0 1 .4-20.5l.4-8.2c.3-2.8.5-6 .5-7.3V.5L3 .2c1-.3 1.4-.3 1.8 0 1.3.8 1.7.8 19.8 1.2a4874.5 4874.5 0 0 1 65 .7c11.4.2 29.4.2 32 0 1.2 0 6.2 0 10.9.2l12.6.2c5 0 7 .2 7.2.8a56.7 56.7 0 0 1 .6 18.1l-.6 21c-.3 13-.3 11.8 0 37.4.4 25.5.5 29.4.8 29.7.2.2 0 1.4-.7 2.5-.4.8-.6 2.4-.3 3.4.2.4.3 2.7.4 5l.2 5c.2.4.1 1.2 0 1.9-.4 1-.5 1.1-1.5 1.2l-3 .2-4 .2c-1 .2-3 .2-4.4 0-2.4-.1-2.7 0-3.3.4-.5.4-1 .5-1.4.4-.4-.1-3-.2-5.8-.1-6.5 0-9 0-13.3-.2-2.4-.1-4-.1-5 .1-1.8.4-18.3.7-19 .4-.2-.1-6.3-.2-13.5-.2-11.5 0-13.2 0-13.2-.3 0-.4 0-.4-.4 0-.7.6-1.8.4-2-.3 0-.9-1-.8-1.8.1-.7.8-.8.8-3.9.8-11 0-27.6-.1-27.8-.3a37.9 37.9 0 0 0-8.4.3zm-3.7-1.8c-.2-.7-.9-1-1.3-.5-.4.2-.4.4-.1.5.5.4 1.6.3 1.4 0zm32-1.2h-.9.8zm10.2-1 3.2-.5c1 0 1.8 0 2-.2.4-.2-.7-.3-3.5-.2-4 .2-4.4.3-4.4 1.2 0 .5 1 .4 2.7-.2zm25.6 0c-.5-.6-3.4-.9-3.7-.4-.4.7-.2.7 2 .7 1.9 0 2 0 1.7-.3zm51.4-.2c0-.4-.5-.3-.6.1-.1.3 0 .4.2.3l.4-.4zm-121.7 0c0-.1-.4-.2-1-.2-.4 0-1 0-1 .2-.1.2.2.3.9.3.6 0 1-.1 1-.3zm63.5-.2 1-.1-.7-.4c-.6-.3-1.1-.3-2.8 0l-3.2.2h-1l.7.4c.8.4 3.4.3 6 0zm23.6.2c.6-.2.3-.2-1.1-.1a11 11 0 0 1-3.2-.3c-.6-.2-2-.4-3.2-.4-2 0-2 .1-.1.8 1 .3 6.5.3 7.6 0zm13.4.2c-.3-.3-2.6-.4-2.6-.2s.6.3 1.3.3l1.3-.1zm-91.7-.4c.1-.2-.1-.3-.6-.3-.4 0-.9.1-1 .3 0 .1.2.2.7.2l1-.2zm107.6-.2c2.5 0 5-.2 5.4-.4.5-.2 1.2-.2 2.2 0 2.7.4 5.6.6 5.7.3.1-.2.4-.3.7-.3.8 0 .6-.4-.3-.6a70 70 0 0 0-6.1-.2c-4.8 0-5.5-.1-6.4-.6l-1.5-.8c-.7-.6-4-1.5-5.8-1.7-1.3-.1-1.7 0-1.9.3-.4.6-6 .4-8.4-.4-1-.3-2-.7-2.2-1-.2-.1-.6-.3-1-.2-.3 0 0 .3 1.2.9.9.4 2 1 2.5 1.4.6.3 1.4.5 2.1.5a4 4 0 0 1 1.4.2l3 .3c3 0 3.5.2 3 .8-.2.2-.8.3-1.8.3-1.7 0-3.3.5-3 .9l.6.2c.3 0 .5.1.5.3a149.7 149.7 0 0 1 10-.2zm-83.6-.3c.5-.5.6-.6.3-1-.2-.2-.7-.4-1-.4-.5 0-.6.2-.6 1 0 1 .3 1.1 1.3.4zm22.7 0c0-.2 0-.4-.3-.4l-1.2-.4c-.8-.3-1-.2-1.4.3-.3.3-.5.6-.5.8 0 .3 3.2 0 3.4-.3zM55 124c0-.4-1-1.4-2-1.7-1.6-.7-2.7-.8-7.4-1-4-.3-4.9-.4-5.4-.8a7 7 0 0 0-1.9-.8l-3-1c-1.3-.4-1.8-.4-2-.2-.3.2-.2.4.4.6l1.3.3 2 .6c2.5 1 4.6 1.5 10.3 2.3 1.2.1 2.5.4 2.8.6.4.3 1.2.4 2 .4 1 0 1.3.2 1.8.7.6.7 1 .7 1 0zm-39.7-.1c1.2-.2 2.8-.3 3.6-.2 1.1.1 1.4 0 1.2-.1-.1-.2-1.4-.4-2.9-.4-2 0-2.9 0-4.2.4-2.6 1-2.4 1 2.3.3zm30.5-.3c-.1-.1-.9.2-.9.5 0 .2.2.2.5 0s.5-.4.4-.5zm-15.8 0-2-.4c-.2-.3.7-.7 1.2-.5l1.4.1c.5 0 1 .2 1.3.5.5.5.6.5.9.1.5-.6-.3-1-2.3-1.3-2.2-.2-3 .1-3 1.2v.8H31.8l-1.8-.4zm63 .2c6.7.1 7.5 0 3.7-.8-2.4-.5-8-.4-9.5.1-1 .4-2.4 0-3.4-.7-1-.8-2.5-1.4-2.3-.8.3.6-.3.8-.9.3-.3-.3-.6-.4-.7-.3-.3.3.7 1 2.9 1.8 1.7.5 2.4.7 3.1.6l7.2-.2zm14.2-.2a155.1 155.1 0 0 1 7.6 0l-1.4-.9a5.8 5.8 0 0 0-3.4-.7c-1 0-2.5-.2-3.3-.4-1.5-.4-4.7-.8-8.9-1.2-1.5 0-3.7-.4-4.8-.7l-2-.6-1.4.6c-1.2.4-1.7.5-4 .3a9 9 0 0 0-2.6 0c0 .3 1.2 1.2 2.1 1.6 1 .5 5.1.6 6.5.2 1.4-.5 3.3-.6 3.5-.3l1.1.2c1.4 0 4 1 4 1.5-.2.3.2.4 1.4.5h2.3c.4-.1 1.9-.2 3.3-.1zm-32.6-.3c0-.1-.6-.2-1.3-.2-.8 0-1.5-.2-2-.6-1-.6-1.8-.6-1.8-.1 0 .2.5.5 1.2.6 2.1.6 3.9.7 3.9.3zM26 122.2c0-.2-1-.5-2-.7-2.2-.5-5-1.6-6-2.3-.7-.5-1.4-.7-1.4-.3l.9.5c1.7.8 3 1.5 3.3 2 .2.2 1 .5 2.3.7l2.5.4c.5 0 .6 0 .4-.3zm50.3 0c-.3-.2-1-.3-2.1-.3h-1.6l1.4.3c.8 0 1.5.2 1.6.3l.7.1c.5 0 .5 0 0-.4zm71.2.2c0-.2 0-.3-.3-.3-.2 0-.4.1-.3.3l.3.2s.2 0 .3-.2zM37 122c.4 0-1.2-.7-2.2-.9-.8-.1-1.2.1-1 .7.1.3 1.3.4 3.2.2zm20.9 0c.4-.1.3-.2-.6-.5-1-.3-1.9-.2-1.9.3 0 .4 1.6.6 2.5.2zm87.5-.3c.3-.4.8-.8 1.3-1 .6 0 1-.4 1-.7 0-.3 0-.4-.4-.2l-1.6.2c-.7 0-1.4 0-1.7.2-.6.3-7 .4-7.1 0l.8-.5c.5-.1 1-.4 1.2-.7.2-.2.6-.4 1-.4.3 0 1.1 0 1.8-.2.6-.2 1.6-.3 2.1-.3 1 0 1.7-.6.7-.6l-2.8-.1a17 17 0 0 0-4 .2c-1.3.3-2.4.3-4.4.2-2-.2-2.7-.2-2.9.1-.4.5-2 .6-4.7.3-1.4-.2-1.8-.3-1.7-.7 0-.3.4-.4 1.4-.4 1.6 0 3-.3 5-.9 1.7-.5 7.8-1.3 10.1-1.3.7 0 2.3-.3 3.4-.6l2.6-.5c.3 0 .5-.2.5-.6 0-.4.2-.8.5-1 .3-.1.5-.4.5-.7 0-.3-.3-.4-2.3-.3a181.9 181.9 0 0 1-21.5 3.4c-3.7.3-5.7.6-7.5 1.2-1.4.4-1.6.4-3.3-.1-1.9-.5-3.2-.4-1.7.2 2.6 1 5.5 1.9 6.3 1.9.5 0 1.5.2 2.3.5 1 .5 1.6.6 3.1.4 1.4 0 2.3 0 3.5.3 1.2.3 1.7.4 2.4.1.4-.1 2.2-.3 3.8-.3 3.4 0 3.6.2 2 1.6-1.6 1.5-1.3 1.6 3.2 1.3a15 15 0 0 1 4.6.2c1.8.5 2 .5 2.5-.2zm-8.6-2.5c-.3-.3 0-.6.7-.6.3 0 .5.1.4.3-.1.4-.8.6-1 .3zm-69 2.1c0-.5.3-.6 3-.8 1.8-.2 3.1-.2 5 0 1.3.3 2.5.4 2.6.3l-1.2-.7a9 9 0 0 0-4-.5c-1.6 0-3.3 0-3.8.2-.8.1-1.2 0-2-.4-1.2-.8-2.4-1-5.1-1.3-2.3-.2-11.2-.2-17.2.1l-4.1.2 1.8.5c4 1 5.6 1.1 7 .7 2-.6 3.6-.6 6.3 0l5.1.7c1.5 0 2.8.3 3.1.5 1.2.8 3.5 1.2 3.5.5zm-48.9-.2-.3-.3-.2.1c0 .2 0 .3.2.3l.3-.1zm-6.5-1c1-1 .7-1.1-.7-.5-1.9.9-2 1-1 1 .6 0 1.2-.2 1.7-.6zm108-.2c-.7-.4-1.5-.6-2.9-.6-1.3 0-2.1-.2-2.6-.5-.3-.3-.8-.5-1-.5-.4 0-1.2-.3-2-.7a5 5 0 0 0-1.3-.6c-.3.3 1.3 1.6 1.8 1.6a43.8 43.8 0 0 0 8.2 1.8c.4 0 .4-.1-.3-.5zM6.1 119c.7-1 .8-1.2.5-1.3-.7-.3-.4-1.2.8-3l1.2-2.2c0-.6 1.7-1.7 2.6-1.7.4 0 .8.3 1 .5.7 1 .9 1.2 1.8 1 .5 0 1.1 0 1.4.2.3.1.6.2.6 0s-4.5-2.2-5.6-2.5c-.6-.1-.8 0-.8.3 0 .2-.3.6-.6 1-.4.2-.7.6-.7.7 0 .1-.3.8-.8 1.4l-.8 1.3-.8 2c-.8 1.7-1.3 3.5-.8 3.5l1-1.2zm22.6.8c0-.5-1-1-1.9-1-.7 0-1 0-1.1-.4-.2-.5-2.1-1.7-2.7-1.7-.4 0 .5.8 1.2 1.2.6.3.8.6.7 1 0 .6 0 .6 1.4.7.8 0 1.5 0 1.5.2h.9zm81.5-.3c.2-.3-.7-.7-1.5-.6l-2-.3a68.7 68.7 0 0 0-11.3-2c-5.2-.8-7.2-1-7.6-.6-.3.2-.5.2-.6 0-.2-.3-.5-.3-1.8 0a35.7 35.7 0 0 1-14.8-1c-.7.2-1.3 0-1.7-.2-.4-.2-1.5-.5-2.5-.6-3.1-.2-6.1-.8-6.5-1.1-.4-.3-5.8-.8-5.6-.5l4.2 1c8.5 1.7 11.8 2.6 16.8 4.4 3.5 1.3 3.8 1.4 3.7.8-.1-.7.9-1 2.4-.9a8 8 0 0 0 3.1 0l5.2-.4 4-.3 1.3.6c1.2.7 1.6.7 4.8.7a23 23 0 0 1 6.8 1c.4.3 1 .4 2 .2l1.6-.2zM9 119.2c2.2-1.7 3.9-3.7 3-3.7-.3 0-2.3 2-3.7 3.5-.7.9-.4 1 .7.2zm61.7-.8c.3-.1 0-.3-1-.6-.8-.3-1.6-.4-1.8-.4-.7 0-.2.6.8 1 1 .3 1.5.3 2 0zm77.3-.9c-.3-.3-.6 0-.4.4.1.1.3.2.5 0 .1 0 .1-.2 0-.4zm-109 0c0-.2-.2-.5-.5-.5-.3-.1-1.2-.7-2-1.4l-2.6-1.7-1.8-1c-.6-.6-.7-.6-1.6-.2l-1 .4.3 1.3a5 5 0 0 1 0 1.7c0 .3 0 .5.5.5s.7-.4.2-.7c-.4-.3-.3-2 .2-2.2.5-.2 1.6.6 2.1 1.6.5.8 1.3 1.2 3.8 2 1.8.7 2.4.7 2.4.2zm-24.3-.3c.8-.4.8-.5.4-.8-.4-.4-.5-.4-1 .2-1.2 1-.9 1.4.6.6zM9 116c.7-.8 1.6-2.1 1.4-2.3-.2-.2-.7.3-1.4 1.6-.6 1-.6 1.3 0 .7zm97.9-.1c0-.3-2.1-1-5.4-1.7l-2.7-.8-1.8-.5-2.2-.6-3.3-.7c-2-.3-2.7-.3-3.3 0l-.8.3.7.2 5 .9 5.3 1c1 .3 1.2.4 1.1 1 0 .8.3 1 .5.4.1-.2.7-.2 2.8 0l3.1.6c.6.3 1 .2 1-.1zm-58.4-.6c1-.1 1-.1.4-.5-.7-.5-3.2-.5-4.3 0-.4 0-1.2.2-1.8.1-1.1 0-1.3.3-.2.6.6.2 4 .1 5.9-.2zm-19.7-1.2c-.2-.4-.1-.7 0-1 .3-.2.2-.3-.2-.4-.4-.1-.6-.4-.6-.9 0-.6-2-4.1-2.3-3.9l1.2 2.9a13 13 0 0 1 1.3 3.4c0 .3 0 .8.2 1 .3.6.7-.3.4-1.1zm12.2 1.3c0-.2-1.6-1-2-1-.6 0-.5.4.2.8.6.3 1.8.4 1.8.2zm53.3-.7c-2-.4-6.3-.8-6.7-.6-.5.2 4.2.8 6.4.8h1.3zm16.2-.5c.8-.7 1.2-.7 1.6-.1.3.3.7.4 2 .2a5 5 0 0 1 2.3.2c.6.2.8.2 1.4-.1.4-.3 1-.4 1.8-.3.8 0 1.4 0 2-.3a4 4 0 0 1 1.5-.4 9 9 0 0 0 2-.5c.9-.3 2.7-.6 4.5-.7 1.7 0 4.2-.4 5.5-.7a46 46 0 0 1 4.5-.6c2.3-.2 3.7-.6 3.7-1s-4 0-5.8.5c-.8.2-2.6.4-4.3.5l-5.7.3a61 61 0 0 1-5.8.3c-2.7 0-3.2 0-4.2.5-.6.3-1.5.6-2 .6l-3.4.3-2.6.3v.7c0 1 .2 1 1 .3zm-91.5 0c-.2-.2-.6-.3-.8-.3-.4 0-.4 0 0 .3l.8.2c.3 0 .3 0 0-.2zm2.8-.5c-.1-.2-.3-.3-.5-.3-.1 0-.1.1 0 .4.4.4.8.3.5-.1zm-17-.9c0-.5-.6-.2-.9.5-.3.7-.3.7.3.2.3-.2.5-.6.5-.7zm43-.3c-.6-.4-2.6-.8-3.6-.7-.5 0-3-.4-4.1-.7-.9-.2-.5.5.4.8.5.2 1 .5 1.1.7.1.1 1.5.3 3.4.2 2.8 0 3.2 0 2.8-.3zm57.4-.3c.5-.2 1.3-.4 1.8-.4l3.4-.4a214.2 214.2 0 0 1 15-1.6c2 .1 4 0 6-.3a107.6 107.6 0 0 1 16-1.7c.4-.1.5-.5.6-2.5.2-3.3.1-12.8 0-12.9l-1.1.5c-.6.3-.9.7-.9 1 0 .5-.3.8-1 1.1l-1.1.7c0 1.7-2.3 2.8-7.3 3.6-1 .1-1.2 0-1.3-.4-.1-.4-.4-.6-1.1-.6-1.1-.1-1.8-.8-1.2-1.4.2-.2.7-.2 2 0 3.2.7 6.2.3 5.4-.6-.3-.4-.2-.5.3-1l1.3-.6c1.2-.3 1.3-.3 1.2-.7 0-.2 0-.5.3-.7.8-.7.4-.8-1-.3a90.2 90.2 0 0 1-5.2 1.8h1.1l1.4.1c.6.6-1.6 1.4-3 1.2-.7-.2-.8-.3-.8-1.2 0-1 0-1 1.5-1.6l2.1-.7c1.5-.4 2.7-1 2.4-1.2-.5-.3-2.8-.3-3.5 0-.3.2-2 .4-3.6.5-3.8 0-6 .7-9.5 2.7l-1.3.7c-.4.2-1 .7-1.1 1l-.3.7 1.4-.2c.8 0 1.9-.3 2.5-.5 1.3-.5 2.6-.4 2.6.1 0 .3.3.4 1.4.3 1.5 0 1.7.2.8 1.1-.7.8-5.2 1-5.7.4-.2-.2-.7-.4-1-.4-.8 0-4.7 1.2-6.2 2-1.6.6-2.3.5-2-.5 0-.4 0-.5-.4-.3a68 68 0 0 1-4.4 1.8c-.9.5-1 .5-1.3 0-.3-.3-.4-.3-1.7.4-.8.4-1.7.8-2 .8-.3 0-2 1.4-2 1.7 0 0 .5 0 1-.3l1.6-.3c1 0 .7.7-.4 1-.5.2-1.5.6-2 1l-1.7.6c-.2 0-1.7 1-3.1 2.3l-3.3 2.4c-.3 0-.5.3-.5.4.1.4 4.4 1.6 4.8 1.4l.6.1c.7.4 2.4.3 3.5-.1zm-4-1.5c0-.7.6-1 2-1 1.4-.2 1.6.5.2.8l-1.5.4c-.4.1-.6 0-.6-.2zm16.3-2c-.2-.6.4-1.3 1.3-1.5l.9-.3h-.9c-.5-.1-1.5 0-2.2.3l-2 .3c-.3-.1-1 0-1.8.6l-1.6.8c-1.1 0-.4-1.2 1.1-2 2.3-1 .9-.7-2.6.5-3.9 1.3-4.5 1.4-4.5.8 0-.8.8-1 6.8-2.5a61 61 0 0 0 1.8-.4c.3-.1.4 0 .4.2 0 .3.3.5.7.5.3 0 .7.1.7.3.1.3.5.2 1.4-.2 2.8-1.2 4.2-1.5 4.5-.8.1.3.8.4 3.5.4 2 0 3.5-.1 3.7-.3h2.8c2.2.1 2.6.2 2.5.5 0 .4-.5.5-1.9.6-1.1 0-2 .2-2.3.4-.3.3-.6.3-1.3.1-1.4-.4-5-.3-5.6.2-.4.2-1.3.5-2.2.6-.8.2-1.6.4-1.8.6-.5.6-1.2.8-1.4.4zm6.6-4.2c0-.4.4-.6 1.5-.7 1.8-.2 2.3.2 1 .7-1.4.6-2.6.6-2.5 0zm3.2-1.4c-.2 0-.3-.7-.3-1.3 0-1 .1-1.1.6-1.2a49 49 0 0 1 4.6-.7c.4 0 .6.2.6.7 0 .7-.2.8-1.8 1.2l-2.6 1c-.4.3-1 .4-1.1.3zm-108.4 7.7c-1.4-1.5-2.1-2.5-1-1.4.9.7 1 .5.3-.4-.4-.3-.9-.6-1.2-.6-.3 0-.7-.2-1-.5-.3-.4-3-2.2-3.3-2.2l-.6.4c-.5.5-.6.3-.5-.6 0-.4-.3-.5-2.3-1.1-1.4-.4-2-.7-3-1.9-1-1.1-1.3-1.3-1.9-1-.7.2-1 1.6-.5 1.6.2 0 .6.1.8.3.2.2 1 .5 1.6.7a7 7 0 0 1 2.3 1.4c.6.6 1.3 1 1.5 1 .6-.3 1 .4.9 1.2-.2.8.4 1.2 1 .7.4-.5.7-.4 2.5.8a42.2 42.2 0 0 0 4.2 2.5c1.7 1.2 1.8.7.2-.9zm15.4.6c-.9-.5-1.6-.5-.9 0l1 .4c.5 0 .5 0 0-.4zm1.6.2h-.6c-.2.1-.1.2.2.2.3 0 .4 0 .4-.2zm39.8 0c.4-.2.3-.3-.7-.3-.7 0-1.4-.2-1.6-.4-.5-.5-.8-.5-1.2 0-.3.2-.2.4.2.6a6 6 0 0 0 3.3 0zm7 0c.1-.4-.2-.4-.7 0-.4.2-.4.2 0 .2.3 0 .5-.1.6-.3zm-77-1.3c0-.4-1.4-1.2-1.8-1-.4.3-.3.6.5 1 1 .5 1.4.5 1.4 0zm26.6-.6c.4 0 .1-.4-1.7-2-1.4-1.4-1.6-1.5-.8-.5l1.3 1.5c.3.3.6.8.6 1.2 0 .5.1.5.2.2 0-.2.2-.4.4-.4zm63.8-.2 1.7-.9c.3 0 1.2-1 1-1.2-.2-.4.1-.7 1.4-1.4 1.5-.8 2.1-1.3 2.1-1.8 0-.2-.2-.2-1 0-.5.3-1.2.4-1.6.4-.6-.2-.9 0-1.9 1.1-.6.8-1.4 1.5-1.7 1.6l-.6.4c.1.1.4 0 .7-.1.7-.4 1.4-.4 1.4 0 0 .3-1.7 1.2-4.2 2.3-.2 0-.3 0-.3-.3s-.2-.5-.4-.6c-.8-.3-.4-.9 1.2-1.7 1-.5 1.9-1 2-1.2.4-.3.4-.4 0-.4l-1.7.4c-.7.3-2.1.6-3.2.8-2.5.5-5.7 1.7-5.4 2 .3.3 2.1.4 3.4.2 1-.2 1.2-.2 1.2.1 0 .3.5.6 1.6.8 2.5.6 2.8.6 4.3-.5zm-72.7-2.4-2-3.8c-.8-1.5-1.9-2.9-2.2-2.9-.9 0 1.1 4.1 3.4 7.1a89 89 0 0 1 1.5 2c.3.5.6.7.7.5l-1.4-3zm6.4 3c0-.3-2.4-3.3-2.5-3.2-.2.1 2 3.3 2.3 3.3l.2-.1zm41-.7c0-.1-.2-.3-.6-.3-.4 0-.7.2-.7.3 0 .2.3.3.5.3.3 0 .6-.1.7-.3zm-17-.4h-.5c-.2 0-.1.1.2.1.3 0 .4 0 .3-.1zm-33.5-2.3-2.5-4.6-2-3.7c-.1 0-.3.2-.4.6-.1.5 0 1 .6 1.9l2 3.9a9.5 9.5 0 0 0 2.2 3.2c1 .9 1.2.2.1-1.3zm65.7.7a12 12 0 0 1 3.2-1.2c.5 0 1.3-.2 1.9-.5l2-.5c.5 0 1.8-.2 2.9-.5a236.5 236.5 0 0 1 4.8-1.3 9.7 9.7 0 0 0 3.9-2.3c.3-.4.7-.7 1-.7.3 0 .7-.2.9-.4.3-.4.4-.4.7 0 .2.4.5.3 2.9-.9a30.6 30.6 0 0 1 6.7-2.6l2.3-.5c1.2-.1 1.8-.4 2.8-1.1.8-.6 1.2-1.1 1-1.4-.2-.7.2-3.4.7-3.6.2 0 .5.2.6.6.2.6.3.7.7.4.3-.2.6-.3 1.2 0 .9.3 2 0 3.3-.6.4-.2 1.3-.2 2.5-.1h2.6c.8-.2.8-.2.4-.8-.2-.3-.7-.7-1-.8-.3 0-.8-.3-1-.5-.4-.3-.7-.3-2.3 0-2 .2-2.6 0-2.2-.6.2-.3 2-.6 5.7-1 1.6-.2 1.6-.1 2.2.7.5.7.8.8 1.4.7.5-.2 1 0 1.4.2.7.4 2.8.8 3.7.5.6-.1.7-.2.4-.6-.1-.4-.5-.5-1.2-.5s-.9-.1-.9-.6 1.1-1.2 2.8-1.7c.5-.2.5-.2 0-.5-.3-.3-.8-.4-1.2-.4-.5 0-.9-.2-1-.6-.3-.5-.5-.5-1.6-.4-1 .1-1.4 0-2.2-.5-.6-.4-1.6-.8-2.2-.9-.6-.1-1.3-.3-1.5-.5-.6-.5-2.8.1-4.4 1.2a20 20 0 0 1-4.4 2.5 144.2 144.2 0 0 1-4.8 3c-.8.4-.8.7-.8 2.2.1 1.3 0 1.6-.6 2.4-1.3 1.5-.6 1.4.8-.2l1.5-1.3c.4 0 1 1.2.7 1.7 0 .2-.4.4-.9.5a7 7 0 0 0-2 1c-1.2.7-1.2.7-2.8.4-1.4-.2-2-.2-3.8.2-1.2.3-2.9.5-3.8.6-2 0-3 .4-4.9 1.3a20.2 20.2 0 0 1-9.3 1.2 6.9 6.9 0 0 0-2.4 0c-.1.1-.5.4-.9.5l-.7.3 1.2.5c.8.4 1 .6.9.8-.2.2-.5.2-.9 0-.3-.2-1.6-.4-2.8-.5-1.7-.1-2.3 0-2.8.3-.6.4-1.8.6-1.8.2 0-.1.3-.3.7-.4l1.2-.5c.7-.7 3.4-1.6 4.7-1.6l2.2-.4a64.4 64.4 0 0 1 10-1.4c1-.3 1-.4.9-1-.2-.5-.1-.6 1.1-.4 1.1.2 1.2.1 1-.3 0-.4 0-.4.4-.3.2.1.8.3 1.4.3.7.1.8 0 .5-.2-.5-.5-.3-.8.7-.7.8 0 1 0 1-.3s.3-.4 1.4-.3c1 0 1.4 0 1.6-.3.2-.3.7-.4 1-.4.4 0 1-.4 1.5-1a4 4 0 0 1 1.4-1c.6-.2 2.6-2.5 2.4-2.7-.2-.3-2.7.8-3.2 1.4-.5.6-.8.6-2 .6-1.2-.1-1.4-.2-1.4-.7 0-.2-.2-.5-.4-.5l-1 .1c-.8 0-.8.5 0 .7.7.3.5 1.3-.3 1.4-.4 0-1 0-1.2-.2-1.3-.5-2-.6-2.2 0 0 .3-.4.7-.8.8-1.3.5-4.3.2-4.3-.4 0-.2-.4-.4-1-.5-1 0-1.2.3-.4.6.3 0 .6.3.6.6 0 .6-.5.6-3.2 0-2.6-.5-6-.4-7.5.2-1.9.9-2.9 1-3.8 1-.5-.2-1.3-.2-1.8 0H85l.2 1.8c0 1.3 0 1.9-.4 2.6-.5 1-.9 3.2-1 6 0 1-.3 2.5-.6 3.4-.3 1.3-.3 1.7 0 2l.4.4 2.5-1.2zm8.3-4c-.5 0-1.4-.3-2.2-.5-1.1-.3-1.4-.5-1.4-1s0-.5 2.8.1c.7.2 2 .3 3 .3 2 0 2 .4.1 1-.7.1-1.3.3-1.4.2h-1zm4-1.2c0-.4 1.7-1 2.5-1 .9 0 .5.5-.8 1-1.5.4-1.6.4-1.6 0zm-3-2.3c-1.3-.3-1.7-.5-1.7-.8 0-.6 3.2 0 3.4.7.1.3-.4.3-1.7 0zm5.1-.4c-.3-.4.1-.7.9-.7.9 0 1.6.3 1.6.6s-2.2.3-2.5 0zm-12-4.2c-.4-.4-.4-.5 0-.7.1-.1.5-.2.7-.1l1.9.1c1.2 0 1.5 0 1.5.4 0 .3-.2.4-.8.4l-1.8.1c-.6.1-1.1 0-1.5-.2zm3.9-1.2c0-.6 1.3-1.4 2.6-1.5.7-.1 1.5-.4 1.6-.6.4-.4 3-.4 3.7 0 .6.3.7 1 .2 1H99c-.7 0-1.3.1-1.4.3l-1.5.2c-1 0-1.4.2-1.5.4-.2.5-2.2.6-2.2.2zM78 107.5c.1-.1.4-.2.6-.1.5.2 2.7-1.6 2.9-2.4.3-1.2-.1-4-.8-4.9-.3-.4-.7-.7-.8-.6-.4 0-.2 1.8.3 2.2.4.3.4.4 0 1.3-.8 1.5-.8 1.6 0 .9 1-1 1.3-.4.5.7-.8 1.2-1.4 1.6-1.7 1.1-.2-.2-.2-.6-.2-.8.1-.2-.1-.7-.5-1.1-.4-.4-.6-.8-.5-1 0-.1 0-.5-.2-.8-.3-.4-.3-.6 0-1l.9-1.5.5-1-.7-1.1c-.5-.8-.7-1.3-.6-2.5 0-.9-.2-2.3-.6-3.3l-.5-2.4-.4-2c-.2-.7-.4-2-.4-3l-.2-2.1c-.2-.2-.4-1-.6-1.9-.2-.8-.5-1.6-.7-1.7-.2 0-.9 0-1.5.3s-1.4.5-1.7.5c-.8 0-1.5 1.3-1.3 2.3.1.4 0 1.9-.4 3.3a30 30 0 0 0-.5 3.6l-.4 2c-.6 1.7-1.2 4.6-1.2 6.6 0 2.7.4 7.8.8 8.2.2.2.2 0 .1-.5-.1-.9.3-1.7.6-1.4l.4 1.9c0 1.2.2 1.6.6 1.7.4 0 .4 0 .2-.6-.4-1-.4-2.7 0-3 .1 0 .4.2.5.6.3.7.9.9 1.2.4 0-.2.4-.2.6-.1l1 .2c.6 0 .8 1 .2 1.4-.3.2-.6.2-1 0s-.5-.2-.3.2l.3 1.1c.2.6.3.6 2.8.6 1.5 0 2.6 0 2.7-.3zm-6.7-4.8c-.2-.3-.5-.4-.7-.4-.4 0-.4-.2-.3-1.1.2-1.1.2-1.1-.3-.7-.8.7-.9.2-.4-1.6.4-1.6.6-2 .8-1.5 0 .2.3.6.5.8.2.2.4.7.4 1.1 0 .7.1.8.8 1 1 .2 1.5 1.3 1 1.9-.2.3-.4.3-.7 0-.2-.2-.3-.2-.3.2 0 .6-.4.7-.8.3zm-2.9-3.1c-.4-.5.2-2.7.7-2.8.3-.1.4.1.2 1.1-.2 1.7-.5 2.1-.9 1.7zm8.5-1c0-1 .7-1.5.7-.5 0 .9-.2 1.5-.5 1.5-.2 0-.3-.4-.2-1zm-6-1.3a2 2 0 0 1-.5-1.2c.1-3.7.1-4.1.5-4.1.3 0 .7 2.2.7 3.8 0 .5 0 1 .2 1 .4.3.3 1 0 1s-.6-.3-.9-.5zm5.3-2c-.3-.3 0-1.5.4-1.5.1 0 .2.4.2 1 0 .8-.3 1.1-.6.6zm-5.4-4.7c-.2-.5-.2-.8 0-1 .4-.1 1 .7 1 1.3 0 .8-.7.6-1-.3zm.5-1.6c-.3-.4-.4-1-.1-1.4.3-.3.3-1.8 0-2.4v-.7c.2-.2.5 0 1 .6.5.8.6 1.1.5 1.8 0 .4-.3.8-.5.8-.4 0-.5.4-.1.7.4.2.3 1-.1 1l-.7-.4zm0-5.4c-.6-.8-.7-1.2-.2-1.2.4 0 1.2.9 1.2 1.3 0 .6-.5.6-1-.1zm-24.5 23.7c-.4-.3-2-.5-2.1-.3 0 .2.3.3.8.4l1.3.1c.2 0 .2 0 0-.2zm18.7-.6-.3-1.5c-.2-.7-.2-1.9-.1-2.8.1-1.4.1-1.5-.3-1.3-.9.4-2.8.5-2.8.1 0-.1.3-.3.7-.4l.8-.2v-2.5c0-1.4-.1-2.8-.3-3-.2-.3-.4-2.3-.5-6 0-1.1.2-2.2 1-4.4l1-2.8-1-.7c-1.2-.7-3.3-.9-3.8-.2-.4.4-.2 1.8.8 5.1 1.7 5.7 2 7 1.6 7.6-.3.4-.3 1.2-.2 2.6v2.1c-.2.1-.3.4-.2.6.2.5-.4.5-.8-.1-.6-.8-1 0-.7 1.2.6 2.5.8 4.2.5 5.2-.4 1.4 0 1.7 2.3 1.8 2.3.1 2.4 0 2.3-.4zm-2.5-1.8c-.5-.3-1-.6-1-.8 0-.4 1.6 0 2.1.4.7.7 0 .9-1 .4zM62 103c0-.4.4-.5 1.6-.3 1.5.1 1.2.5-.3.5-.7 0-1.3 0-1.3-.2zm9.4 3.6c0-.2-.1-.1-.2.2 0 .3 0 .4.2.3v-.5zm-15.8-.9c0-.2-.1-.4-.3-.4l-.4-.4a2 2 0 0 0-.6-.8c-.3-.2-.3-.4 0-1.2.3-.8.3-1 0-1.4-.2-.3-.2-.6.2-1.4.7-1.4 1.2-1.4 1-.1-.1.8 0 1.2.4 1.7l.5 1 .4.4c.2.1.4.4.4.6 0 .3 0 .4.3.1.3-.3.4-.2.8.3s.5.5.5.1c0-.7-.5-1.5-1-1.5-.8 0-1.4-1.5-1.4-3.3 0-1.6-.4-3.6-.5-2.3 0 .3-.2.6-.3.7-.5.3-1.6.4-1.6.2a6 6 0 0 1 1.2-2.8c.7-.7.8-.7 1-.4.1.3.4.5.5.5.4 0 0-1.8-.7-3-.3-.6-.7-1.8-.8-2.6 0-.8-.3-1.7-.5-2-.3-.5-.4-1.1-.3-2.7.2-1.6.1-2.6-.3-4.1-.2-1.1-.5-2-.6-2-.2 0-.2.9-.2 2 0 3.1-.5 5.5-2.4 9.9a27.3 27.3 0 0 1-2.7 5.4l-.5 1c-.7.8-1.4 3.2-1 3.3.3.2.2 1.2-.2 1.9l-.4.5-.6-.5-1-1.4c-.5-.9-1.2-1.4-1.5-1.1a6 6 0 0 0-.2 2c.1 2.2.5 2.7 2.6 3.2 1.8.4 2 .3 2.1-.4l.5-1.4c.2-.7.3-.7.6-.2.2.2.5.4.6.3.4-.2.5.4.3 1.2-.2.9 0 1 2 1 1 0 1.9.2 2.3.3 1 .3 1.8.3 1.8-.2zm-9.2-1.9c0-.6.8-2.2 1.2-2.4.5-.1.4.5-.2 1.8-.5 1.1-1 1.5-1 .6zm2.2-3.4c-.2-.3-.2-1.9.1-2 .1-.1.4.1.5.5.2.6.2.4.1-.9-.1-1.4 0-1.7.3-1.7s.5-.2.5-.7c0-.5 0-.8.2-.8.3 0 .4.2.7 1.6.1.8 0 1-.3 1a.6.6 0 0 1-.5-.3v1.2c.1 1.2 0 1.5-.2 1.5s-.5.2-.6.4c-.1.4-.5.5-.8.2zm2.5-6.3c-.4-.5 0-1.9.6-1.9.2 0 .3.4.3 1 0 1.2-.3 1.6-.9 1zm1.4-1.6c-.4-.4-.3-1.8.1-1.9.3-.1.7 1.8.4 2.1-.1.1-.4 0-.5-.2zm5 12.8c0-.4-.2-.7-.3-.6-.2 0-.3.4-.3.8 0 .3.1.6.3.6.1 0 .3-.3.3-.8zm-29.3-.7c-.8-1.3-1.4-2-1.4-1.6 0 .3 1.4 2.3 1.7 2.3 0 0 0-.3-.3-.7zm13-1.8c0-1.3-.2-2.6-.3-2.9-.3-.5-.3-.5-1.3 0s-1 1-.1 1c.6 0 1 .4.6.7-.1.2-.7.2-1.4.1-1-.1-1.1-.2-1.4-1-.2-.7-.4-.9-.9-.8l-1.5.2c-.5 0-1 .2-1.2.3-.1.1-.6 0-1-.3-.8-.7-1.2-.7-1.1 0 0 .4 0 .6-.3.5h-.6c-.2-.1-.3 0-.4.2-.2.4 2.7 1.2 3.4 1 1.8-.6 5.2.2 5.2 1.2 0 .7-1.5 1-2.1.4-.6-.6-2.5-.8-2.9-.3-.3.3-.4.3-1.3-.1-.5-.3-1.5-.6-2.2-.7-1.2-.2-1.3-.2-1 .3.3.5 2.2 1.3 4.6 1.8.8.2 4.2.6 6.1.6h1V103zm-26.4-1.1-1-2-2.2.2-2.2.2L8 99.1a5.4 5.4 0 0 1-1.5-1.7c0-.4-.5-.7-1.2-.9-1.4-.4-1.6-.4-1.6.2 0 .3.2.5.3.5.2 0 .5.6.8 1.2.4 1 .7 1.2 1.1 1.2.8 0 5 2 5.2 2.5 0 .3.4.3 1 .3.9-.1 1.3 0 2.4.7.7.6 1.3.9 1.4.7l-1-2zm14.6-.8c0-.3-2.2-1.4-2.3-1.1-.2.4 1 1.3 1.7 1.3.3 0 .6 0 .6-.2zm29.4-1.4c0-.4-.1-.8-.3-.9-.1-.1-.2.2-.2.8 0 .5 0 1 .2 1s.3-.4.3-.9zM21 98.8l-.3-.4c-.1 0-.2 0-.2.3l.2.4c.2 0 .3-.1.3-.3zm19-.9 2.5-.4c.2 0 .6-.7.8-1.7.2-.7.2-.7-.8-.6-1.6.3-1.9-.3-1.2-2.7.1-.5.1-.6-1.1-.5-.7 0-1.6-.1-2-.3-.6-.4-3.3-.4-3.6 0 0 .2-.5.2-1 .1-.8-.1-3 .8-3.8 1.7-.4.5-.5.5-2 .2a5.5 5.5 0 0 0-2.7-.2c-1.4.4-1.4.4-1.4 0 0-.6.8-.8 2.7-.7 1.4.2 1.8 0 3-.6.6-.5 1.8-1 2.5-1.1.7-.2 1.2-.5 1.2-.6-.2-.5-3.4-.9-6.5-.8-2.7 0-3 0-3.3.6-.3.3-.7.6-1 .6-.6.1-.7.3-.8 1.8l-.2 1.8 1.5 1.4 2.1 1.8c1.3.9 10.5 1 15 .2zm-8.5-3c-.8-.6-1-1-.6-1.1.5 0 2.3 1 2.3 1.3 0 .4-.9.3-1.7-.3zm-19.4 2.4c.5 0 .6-.2.5-.5-.4-1-2.2-3.4-4.4-5.6a98.3 98.3 0 0 1-5-5.3c-.5 0 0 1 1 2.2 1.4 1.7 1.6 2.5.5 2.5-.4 0-1-.1-1.1-.3-.2-.2-.3-.1-.3.5s.2.9 1.3 1.5l1.7 1.2c.3.3.7.6.9.6.6 0 2 1.5 2.6 2.6.4 1 .6 1 1 1 .3-.2.9-.3 1.3-.4zm2.4-1-.7-1c-.2 0 0 .4.1.7a41.3 41.3 0 0 1 1 1.2l-.4-1zm5 .7c0-.4-.8-1.4-3.2-4.5L12.9 88c-.8-1.1-2-2.3-2.5-2.6-1-.7-1.2-.4-.2.5.4.3 1.3 1.5 2.1 2.6s1.8 2.4 2.3 2.8c1.2 1.2 2.3 2.7 3.4 4.4.8 1.4 1.5 2 1.5 1.3zm38.3-.4-.4-.7c-.3-.3-.4-.2-.4.2 0 .3 0 .6.2.7.3.3.6.2.6-.2zm2.9-.1c0-.2-.1-.4-.3-.4-.1-.1-.2 0-.2.2s0 .4.2.4.3-.1.3-.2zm5.4-.3c.1-.1 0-.3-.1-.4-.2-.1-.3 0-.3.2 0 .5.2.6.4.2zm-19.8-.8c0-.2 0-.3-.3-.3-.2 0-.4.1-.5.3-.1.1 0 .3.2.3l.6-.3zm37.4-.4c.1-.6-.3-1-.9-.8-.5.2-.5.7 0 1.1.3.5.8.3.9-.3zm-36.4-1.3c.5-.3.5-.3-.3-.4-.9 0-1.6.3-1.6.8 0 .3 1.2 0 2-.4zm18 .2c.4-.4.6-1.2.2-1.2-.3 0-1.1 1-1.1 1.3 0 .5.3.4.8-.1zm-20.8-1.6.3-.6c0-.4-.7-.8-1.1-.7-.5.2-1 1.4-.9 1.9.1.3.3.3.8 0 .3 0 .7-.4.9-.6zm80.6.7c.1-.1 0-.3-.4-.3-.3 0-.5.2-.5.3 0 .2.2.3.4.3s.4-.1.5-.3zm-68-2v.8-.7zm61.4.6c.8-.6.4-.7-.8-.2-1 .5-1 .5-.4.5.4 0 1-.1 1.2-.3zm-52.5-.4c.3-.2.3-.3-.3-.3-.3 0-.8.1-1 .3-.3.2-.3.2.2.2l1-.2zm16-.3s-.3 0-.5.2c-.2.3-.2.3.2.2.2-.1.4-.3.3-.4zm-33.9-.3 1.2-.6c-.3-.3-2.6.5-2.6.8 0 .5 0 .5 1.4-.2zm-6.6 0c.3 0 .4-.2.4-1.4 0-.9.2-1.8.7-2.8l.6-1.6c0-.3-4.7-.1-5 .2-.3.2-.8.3-1.1.2-.4-.1-1.2 0-2 .5-2.4 1-4.3 1.5-4.3 1s1.1-1.3 1.8-1.4c.7 0 2.6-.9 2.9-1.3.4-.8-2.5-2-5.1-2.1-2.2-.1-3.5.2-4.6 1.3l-1 .9.8.2 1.2.4c1 .3-.3.6-3 .7-2.7 0-2.8 0-2.6.6l.1 2c0 1.7.4 2.3 1.2 1.5 1-.8 2.7-1 6.6-.7 3.1.2 3.9.4 5 1 1 .5 1.6.6 2.4.5.6 0 1.4 0 1.9.2.4.2 1.2.3 1.7.3l1.4-.2zm-13.6-5c-.3-.2-.3-.3-.1-.5.2-.2.5-.2 1 .2.5.5.5.5 0 .6a2 2 0 0 1-1-.3zm62 4.7c.8-.4 2.8-2.5 2.8-3 0-.2-.8-.3-1.8-.3s-2.5 0-3.4-.2h-2.5l-1 .1.1 2 .1 2c0 .2 5-.3 5.7-.6zm-9 .1c.6-.4 1.5-1.7 1.3-2 0 0-.6.2-1.1.8-.6.5-1 1-1 1.2.2.3.5.3.8 0zm-14-.6c.1-.1 0-.2-.1-.2-.2 0-.3 0-.3.2l.1.3.3-.3zm40.3-.1c.4-.1.4-.2 0-.6-.4-.3-.7-.4-1.7-.2-.7.2-1.3.4-1.3.6-.2.5 1.8.6 3 .2zm-10.6-.5 3.7-.6c.8 0 1.7-.3 2-.5.2-.2.8-.5 1.3-.6 1.4-.5 3.3-1.5 4.7-2.7 1.8-1.3 4.1-2.9 4.5-2.9.8 0 2.4-1 2.4-1.6 0-.4.1-.5.5-.4.4.1 1-.2 2-1.2 2-1.9 2.9-2.4 5.2-3.6l1.8-1-.3-.6c-.3-.5-.4-.4-2.3.9a24.5 24.5 0 0 1-7.3 3.5 36.6 36.6 0 0 0-7.7 3.3c-1.7 1-2 1.1-2 .6a57.8 57.8 0 0 0 9.5-10.1 30.7 30.7 0 0 0-8 4.4l-2.5 1.6c-.3.3-.8.5-1 .5-.3 0-.6.3-.8.6-.2.6-1.2 1.7-5.4 6.4l-2.7 3c-.8 1-1 1.8-.2 1.5l2.6-.5zm-51.5-.3c1-.6 1-.7-.3-.5-1.3.2-1.4.2-1.2.6.3.4.6.4 1.5-.1zm-29-1.5c0-1.7-.6-4.9-1.4-6.6-.6-1.5-.6-1 0 1 .3 1 .5 2 .4 2.1v1.3a29.6 29.6 0 0 1 1 3.8v-1.6zm64.5 1c.7-.7 1-1.7.5-1.7-.3 0-1.5 1.3-1.7 1.9-.2.7.3.5 1.2-.3zM57.9 88c0-.2-.1-.3-.3-.3-.1 0-.2.1-.1.3l.3.2V88zm7.2-.7c-.1-.4 1.2-1.2 2.3-1.2.8 0 1.5-.6 1.2-1-.2-.4-2.5.4-3.2 1-.3.4-.7 1-.8 1.5-.2.7-.1.7.2.4.3-.2.4-.5.3-.7zm50 .4c-.3-.3-1 0-.7.3 0 .1.3.2.5 0 .3 0 .3-.2.2-.3zm33.2.3c.2-.4-.3-.9-1-.9-.4 0-1.2.3-1.8.6l-1.2.5h1.9c1 0 2 0 2-.2zm-103.7-.6c-.1-.4-.6-.3-.7.2 0 .3 0 .3.4.2.2 0 .3-.3.3-.4zm-37.1 0-.8-1.2c-.4-.4-.8-1.2-1-1.7-.5-1.1-2.3-3-2.3-2.2 0 .7.5 1.4 2.3 3.5 1.6 1.8 2.2 2.3 1.8 1.6zm42.3 0c.3-.3.4-.5.3-.5l-.8.4c-.3.2-.4.4-.3.4l.8-.4zm30.4-1.1c.6-.7.8-1.2.7-1.2-.5 0-2.1 1.6-2.1 2 0 .6.4.4 1.4-.8zm-33.8.7H46c-.2 0-.1.2.2.2.3 0 .4 0 .3-.2zm65.7-.2a4 4 0 0 0 1-1.3c.2-.4.7-1 1.1-1.3 1-.7 2.2-2 2-2.2 0-.2-3 1.5-4.4 2.6L110 86c-1.7 1.2-1.7 1.2 0 1.2 1 0 1.8-.2 2.2-.4zm5.6-.3c.2-.2.6-.4.9-.4.3 0 .7-.2 1-.4.5-.5.5-.5.9 0 .4.6.4.6.8 0l1.2-1.4 1.8-2c.5-.7 1.4-1.5 2-1.9 1.7-.8 2.6-1.6 3-2.7.3-1 .1-1.1-1.3-1.6-.8-.2-1.4-.2-3.3.2-2.3.6-2.4.6-3.7 2-2 2.2-3.6 4.8-3.8 6.2 0 .8-.3 1.2-.6 1.3-.5.1-.7.6-.3 1 .3.3 1 .1 1.4-.3zm2.8-2.7c-.3-.4.9-1 1.2-.6.3.2.2.4 0 .6-.6.3-1 .3-1.2 0zM78 86c0-.3-.1-.5-.3-.4l-.2.6c0 .2 0 .4.2.4s.3-.3.3-.6zm-64-.8c-.2-1-.8-1.4-.8-.5 0 .7.2 1.3.5 1.3.2 0 .3-.3.2-.8zm36 .3c0-.2-.2-.2-.3-.1-.2 0-.2.3-.1.4 0 .1.2.2.4 0 .1 0 .2-.2 0-.3zm43 .1c1-.2 3-1.5 3-2 0-.6-1-1.3-1.8-1.1-.3 0-.8 0-1.3-.3-.6-.5-1.2-.5-4.1-.5-3 0-3.6.2-4.4.6-.5.3-1.2.6-1.5.6-.9 0-.9.5 0 1.8.6.8 1 1 1.3 1 1.3-.5 3.3-.5 4.6 0a7 7 0 0 0 2.3.2l1.8-.3zm52.7.2c0-.2-.1-.3-.2-.3-.2 0-.3.1-.2.3l.3.2.1-.2zm-98-.5h-.4c-.3.1-.2.2.1.2.3 0 .5 0 .4-.2zm-1-.9 1-.5-.8.2a3 3 0 0 0-1.2.5c-.5.5 0 .4 1-.2zM23.5 84c.7-.3.8-.5.6-1-.1-.6-.3-.7-1.2-.6-2.2 0-2.5.3-2 1.7.3.7.7.7 2.6-.1zm101.7-.4a8 8 0 0 1 1.7-1.2c1.6-.7 3.1-2.4 2.3-2.4-1 0-5 3.2-5.6 4.4-.3.4-.2.4.3.1.4-.2 1-.6 1.3-1zm-67.3.6c.4.1.4 0 0-.2-.4-.3-1.7-.3-1.9 0-.2.4.2.5.8.3a2 2 0 0 1 1.1-.1zm20.6-.3c1.1-1.2 1.2-1.5 1-1.5-.5 0-2 1.4-2 1.8 0 .5.4.4 1-.3zm1.6.4c.3-.5 0-.6-.4-.2-.2.3-.2.4 0 .4 0 0 .3 0 .4-.2zm66.3-.3c0-.1-.2-.3-.5-.3-.2 0-.3.2-.2.3 0 .2.3.3.4.3.1 0 .3-.1.3-.3zM18 83.2c-.2-1.1-.6-2-.8-1.7-.1.5.5 2.5.7 2.5.2 0 .2-.4.1-.8zm24 .3h2.4l1-1.7c.6-.9 1.1-1.7 1.1-2 0-.5-2.7-1-3.6-.5-.5.3-.7.2-1.7-.4-.7-.5-1.4-.7-2.2-.8-1.2 0-4 .6-5.5 1.3-1 .4-1.1.4-1.6 0-1.3-1.2-1.1-1.6.6-1.3 1.5.2 2-.2.8-.7-.5-.1-.8-.4-.8-.8 0-.8-1.5-1.8-2.8-1.8-.7 0-1.4-.3-2-.7-1.3-.8-2.7-1.2-5.8-1.3-3-.2-3.6 0-3.8 1.8a6 6 0 0 0 .4 3.1l.6 1.8 1-.1 2.4-.6c.7-.2 1.6-.3 1.9-.2.4 0 .9-.1 1.5-.5.7-.6 1.2-.7 2.7-.7 1.8 0 2.3.3 1.8.9-.2.2-.7.3-1.4.2-1.7-.1-2 .3-1 1.3.8.8 1.8 1 3 .5.7-.2.9-.2 1.3.3.2.3.8.6 1.2.7.4 0 1 .2 1.2.4 1.7.8 2.4 1.2 2.6 1.6.2.4.5.5 1.2.4l3.4-.2zm7.4-.8c.3-.5.2-.5-.3-.5-.3 0-.8.1-1 .3-.6.3-.6.3-.1.5.8.3 1.1.3 1.4-.3zm-39.3-.2a19 19 0 0 1-.2-3c-.1-2.2-.9-6.3-1.1-6 0 0 0 1.3.3 2.7a37.6 37.6 0 0 1 .5 6.6c.4.3.7.1.5-.3zm47.9-.2c-.6-.5-2-.4-2.2 0 0 .3.4.4 1.2.4 1.6.1 1.7.1 1-.4zm8.9.3c.2-.3.6-.4 1-.4.3 0 .6-.2.6-.3 0-.1-.2-.3-.4-.3-.3 0-2 1-2 1.2 0 .3.5.1.8-.2zm32-1.8c1-1 1.6-1.9 1.6-2a23 23 0 0 0-7-.3c-3.7.4-4.8.6-5.3 1-.7.3-6.6.4-7.4.1-.2 0-.4 0-.4.2a7 7 0 0 0 1.3 2.5c.2 0 1-.2 2-.7 1.5-.7 1.9-.8 4.3-.8a23 23 0 0 1 6.8.8c.9.2 1.7.5 1.8.7.3.6.4.5 2.3-1.5zm-21 1.4c0-.2 0-.3-.3-.3-.2 0-.4.1-.4.3 0 .1.1.2.3.2 0 0 .3 0 .4-.2zM8 80.4c0-1.5 0-2-.5-2.3-.3-.3-.5-.8-.5-1.2 0-.8-1-6-1.3-6.2v1.6l.4 5.4c.2 3.7.4 4.5 1.5 4.5.4 0 .4-.3.4-1.8zM144 82c.6-.2.5-.6-.2-.6-.5 0-.7 0-.5.4.1.4.1.4.7.2zm2.8-.3c0-.4-.6-.3-.7.1-.1.2 0 .4.3.4.2 0 .4-.2.4-.5zM24 81.2c2.3 0 3.5-.2 3.5-.6 0-.5-3.6-1.2-3.9-.8 0 .1-.7.2-1.4 0-1 0-1.4 0-2 .5-1 .8-.7 1.4.6 1.2l3.2-.3zm26.7-.3h-.5c-.2.1-.2.2.1.2.3 0 .5 0 .4-.2zm90.8 0c0-.2-.2-.3-.4-.3s-.4 0-.4.2.2.3.4.3.4-.1.4-.3zm-125.1-2c-.3-.6-.6-1-.6-.7 0 .6.9 2.6 1 2.2 0-.1-.1-.8-.4-1.4zm61.5 1.4c.5-.5.4-1 0-1-.3 0-.4 0-.4.2l-.2.7c-.2.5.2.5.6 0zm60-.6c-.2-.4-.6-.6-1.2-.6-1.4 0-1.6 0-1.6-.4 0-.7 1.2-1.7 2.5-2 1.3-.5 1.7-1 .9-1.1-.2 0-1.2.3-2 .7-1 .5-2 .8-2.2.8-.6 0-4 1.8-4.3 2.1-.1.2.2.3.7.3 2.8 0 5 .3 5.9.5 1.7.4 1.8.4 1.4-.3zm-71.6-.2 1.3-1.3.7-.6-1.2-1.2a5.2 5.2 0 0 1-1.3-2c0-.4-.3-.6-.9-.7-.4 0-1-.2-1.1-.4-.2-.3-.7-.4-1.6-.3-1 0-1.3.1-1.3.6-.1.3 0 .6.5.8l.6.3-.6.2c-.8.2-.8.5 0 .9 1.1.5.9.9-.4.7-1.2-.2-1.8.2-1.8 1.4 0 1.4.4 1.6 2.6 1.6 1.1 0 2.3.2 2.6.3.8.3 1.2.3 1.9-.3zm-15.6 0v-.2c-.1 0-.3 0-.4.2 0 .2 0 .3.2.3.1 0 .2-.1.2-.3zm-36.5-.1-.3-.9-1-2c-.6-1.4-1.3-2-1.3-1.1 0 .6 1.5 3.8 1.9 4h.7zm35.8-.8-.4-.1c-.3 0-.4 0-.4.2s.1.2.4.1l.4-.2zm38.1 0c.3-.1.5-.3.5-.4 0-.4-2.4-1-4.7-1.3l-3.3-.5c-1.4-.4-1.6-.4-2-.1-.3.2-.3.4 0 1.1.9 1.6.7 1.6 5 1.5 2.2 0 4.3-.2 4.5-.3zm-39.5-2.8c-.3-.6-.6-.8-1.2-1-1.1-.2-1.4-.5-.5-.8.6-.3 1-.8 1-1.7 0-.5-.2-.5-2.4-.4l-4 .4c-1 0-1.8 0-2.1-.2-1-.5-8.1-1.1-11-1-1.9.1-3.4 0-5.1-.3-2.1-.3-2.5-.3-2.7 0-.1.2-.2.4-.1.5.1.2 1.6.5 4 .6 1 .1 2 .4 2.8.7.6.3 2 .8 3 1 1.8.5 3.6 1.6 4 2.5 0 .2.5.6 1 .8.7.4 1 .4 1.5.2.6-.3 3.9-.1 5 .3l2.9.4c1.1.1 2.2.3 2.3.5 0 .1.5-.2 1-.7.8-.9.8-1 .6-1.8zm98.3 2.5c.5-.2.6-.6 0-.6-.2 0-.4.1-.5.4-.1.4-.1.4.5.2zm-34-.7 2.5-1a22.1 22.1 0 0 0 7-4.4c1.4-1.2 1.7-1.7 1-1.7l-.8-.4c-.3-.3-.8-.5-1.1-.4-.6 0-.9-.3-.4-.6.2-.1.3-.6.2-1.2 0-1 0-1 1.2-1.1l1.6-.4c.6-.4 2.8-.4 3 0 .2.6.6.5.6-.2 0-1.1-.3-1.7-1.2-2.1-1.9-1-5 .4-6.2 2.5-.3.7-1.6 2.2-2.7 3.3a45.1 45.1 0 0 0-6.1 7.8c-.2 0-.5 0-.6.2-.2.4 0 .4 2-.3zm-58.5-.2-.6-.7c-.4-.3-.7-.6-.6-1 0-.4.3-.5 2-.5 1.6 0 2-.1 2.3-.6.4-.4.3-.5-.2-.7-.6-.2-.5-.8.3-1 .3 0 .7.2 1 .6.6 1 .9.7.9-.9 0-1.2 0-1.3-.7-1.3s-1-.4-.7-1.6c0-.7 0-1-.3-1.3-.8-.6-.5-1.2.6-1 .4 0 .4-.7-.2-1.4l-.5-.6-.3.7-.4.7-.5-1c-.5-1-.8-1-1.5-.1l-.6.7.8.1c.8 0 .8.2.8 1 0 .6-.1 1-.5 1.2-.3.1-.5.6-.6 1 0 .4-.2.7-.3.6-.4 0-1-2-1-3 0-1.4-.5-1.9-1.6-1.5-1.2.4-1.3 0-.7-1.9.5-1.4.5-2.1.4-4-.2-2.4.1-3.3.7-1.9.3.9.8 4.3.7 5.7 0 .7.1 1 .4 1 .2 0 .5-.1.5-.3.9-2.8.9-2.7.3-4a35.8 35.8 0 0 1-2.5-7.2c-.4-.3-1.3.6-2 2.1-.6 1.3-.7 1.7-.6 3.8l.5 4c.2 1.5.2 2.3-.2 4.7-.8 5.3-.7 4.8-.1 4.7.3-.1.7 0 1 .1.1.2.5.3.6.1l1.3-.2c.7 0 1 .1 1 .5 0 .2 0 .5-.4.6-.8.3-1.6 1.4-1.6 2.2 0 .6.2.8 1.1 1.3 1.2.6 2 .7 2 .3zm-3.9-6.9c-.7-1-.7-1 .1-2.4.7-1.1 1.1-1.3 1.4-.6.4 1.4.8 2 1.2 2 .2 0 .5 0 .5.2s-.3.3-.5.3c-.3 0-.7.3-.8.7-.4.8-1.2.8-1.9-.2zm6-1.8c0-.2.2-.3.3-.3.2 0 .3.1.2.3l-.3.2-.1-.2zm-.3 8.6c.9-.4 1.9-1.5 1.5-1.5-.2 0-.9.4-1.5 1-1.3.9-1.2 1.2 0 .5zm45.8-.6c.9-1.1.8-1.7-.3-1.7-5.9 0-13.2-.3-13.8-.5-.6-.2-.2-.2 2.1-.3a68.6 68.6 0 0 0 4.7-.3l-5-.2c-5.6-.2-7.8-.4-7.3-.8.4-.2 13.5 0 13.9.2v.5c-.4.4-.6.4 3.6.5h3l1-1.9a77 77 0 0 1 2.1-4.5c0-.3-1.2-.3-5-.3-2.7 0-5 .2-4.8.3 0 0 .7.2 1.5.2.9 0 1.5 0 1.5.3s-8.7 0-10.9-.3c-1.2-.2-1.2-.2.5-.3.9 0 1.6-.1 1.6-.3 0-.2-2.2-.3-3.7 0-.6 0-1 .2-.9.3.1.2-.3.3-1 .3-.5 0-1-.1-1-.3 0-.2-1.1-.3-2.9-.3-2.9 0-2.9 0-2.9.7s.7 3.4 1 3.6c.1.2.6 0 1-.2.8-.3 1-.4 1.8 0 .6.2 2.3.3 6 .3s5.1.1 5.2.3c0 .3-1.4.3-6.3.2-5.8-.1-6.6 0-7 .3-.5.5-.5 1 0 1h.8c.7 0 .8.7 0 .7-.7 0-1.6.6-1.3 1a62.1 62.1 0 0 1 10.7 2c.3.2 3 .3 6 .3h5.4zm-6-6.2c-3.2-.2-8.5-.7-9.7-1-.4 0-.6-.2-.5-.3.2-.4 5-.2 7.7.3.8.2 3.1.4 5 .5 2.4 0 3.4.2 3.5.5.1.3-.2.3-6 0zm49.5 7c0-.2-.3-.4-.7-.6-.5-.3-.7-.3-1 0-.2.2-.2.3 0 .5.6.3 1.7.3 1.7 0zM14.6 74.2c-1.2-3.4-1.8-4.7-1.9-4l.7 2.3c.5 1 .8 2 .8 2.3 0 .5 1.1 2.6 1.3 2.4 0 0-.3-1.4-.9-3zm59.6 2.5c1.2-.3 1.7-.6 2.5-1.5 1-1 1-1.2 1-2.4-.2-1.7-.4-2-1.5-1.5-.8.2-1 .2-1.3-.2-.3-.5-.3-2 .1-2.7l.2-.9c0-.5.2-.7.6-.7 1-.2.6-1-.4-1.2-.8-.1-.9-.1-.7.6.2.7-.5 2.6-1 2.6-.2 0-.3-.3-.2-.8l-.4-.2c-.2 0-.4.2-.4.4l-.2.9c-.4.6-1.1-.2-1.1-1.1 0-.7-1-2-1.5-2-.4 0-.8 1.8-.7 3.1.1 1.5 0 1.5-.5 1.6-.7.1-1.6 1.8-1.5 2.7.1.7 1 1 1 .3 0-.2.2-.4.5-.4s.7-.2.8-.5c.4-.6 1.4-.7 1.4-.2 0 .2-.2.5-.4.6-.3 0-.4.3-.4.6l-.5 1c-.6.5-.3 1 1 1.7 1 .6 1.7.7 3.6.2zm-2.9-.6c-.8-.5-.9-1-.2-1.5.4-.4.7-.5 1.6-.3.6 0 1.1.3 1.2.4.3.4.9.2 1-.4 0-.8 1.1-1 1.3-.1.2 1 0 1.2-.7 1.2-.4 0-1.1.3-1.7.6-1.1.6-1.5.6-2.5 0zm70.7.7c.3-.2.3-.3-.2-.3-.3 0-.6.1-.6.3 0 .3.3.3.8 0zm-137.2-1c.1-.3-.2-3.1-.5-5 0-.5-.3-1-.4-1-.2 0-.2.8-.2 2l.2 3.3c0 1 .1 1.4.4 1.2.2 0 .4-.3.5-.4zm131.7-.5c.5-.2.8-.5.7-.6 0 0-.4 0-.7.2-.3.2-1 .3-1.5.3l-1 .2c-.3.5 1.6.4 2.5-.1zm-30.2-.9a36 36 0 0 1 3.8-2c.8-.4 1.7-1 2-1.4.3-.4 1-.9 1.5-1 1.2-.5 3.8-2.2 3.8-2.5 0-.1.3-.3.7-.3.6 0 1.7-1 1.7-1.7 0-.5 2.3-2.7 3-3h2.1c1.3.1 1.5 0 1.8-.5.4-.9 1-.7 1.5.5.7 1.5 1.7 1.7 1.7.3 0-.8.8-.7 1 .1 0 .4.3.6.7.7.8.2 1-.1.5-.6-.2-.2-.4-.5-.4-.8 0-.4-.2-.5-1.3-.5-2.3 0-2-1 .3-1.4.7 0 1.5-.3 1.6-.4.3-.3 0-.4-3-1.1-1.5-.4-1.7-1-.5-1.7l.8-.7c0-.2-2-1.3-2.4-1.3a6 6 0 0 0-1.5.5l-2.1.7c-2.2.3-8 2.9-10.5 4.6-1.7 1.2-3.5 2.9-3.3 3 .1.2.6 0 1-.5 2.1-1.9 2.1-1.9 2.5-1.3.4.4.4.4 1 0 .3-.2 1.1-.4 1.9-.4 1 0 1.2 0 1.2.5s.2.5 1.3.5c1 0 1.2 0 1.3.5 0 .4-.2.6-.9 1l-1.4.4-1.9.4a81.1 81.1 0 0 1-3.9 1c-.3.2-1 .9-1.5 1.7-.8 1.3-3.7 5-5.4 7-.3.5-.3.5.1.3.3 0 .8-.4 1.2-.6zm34.7.6a1 1 0 0 0-.6 0l.3.1h.3zm3.2-.2c0-.2-.1-.3-.3-.4-.2 0-.3.1-.3.4 0 .2.1.4.3.3.2 0 .3-.2.3-.3zm-93.7-.6c0-.2-.3-.5-.7-.7l-.7-.5.5.7c.4.7.9 1 .9.5zm72.8-1.3c.3-.3 1.1-.4 2.1-.5 1.5 0 1.7 0 1.8-.6 0-.6-.4-1-1.6-1.2-.5-.1-1 .2-2.8 1.8-1.7 1.7-1.9 2-1 1.4l1.5-1zM11.7 74s0-.4-.2-.7l-.9-2.3-.6-1.7V71c.2 2.2 1 3.8 1.7 3.2zm135.6-.3c.1-.2.2-.5.1-.6-.3-.3-1.5.2-1.6.7-.1.6 1.2.6 1.5 0zm-19.8-.1-.3-.3-.3.1c0 .2.2.3.3.3l.3-.1zm9.6-1c0-.6.1-.6 1-.6h1c-.2-.2-.1-.4 0-.7.6-1 4.5-.7 5.1.4.5.8.7.9 1.9.5l1-.5-.9-.2c-.8-.2-1.6-.5-2.6-1-.6-.3-.6-.7.1-1.4.5-.5.7-.9.6-1.6 0-1.3.4-1.5 1.1-.3.5.8.7 1 1.8 1 1 .2 1.3.2 1.5 0 .2-.5.3-3.8 0-3.8a6 6 0 0 0-1.6 2c0 .3-.9.2-1-.2 0-.3-.3-.4-.5-.4-.8 0-.7-1.2.1-1.5.5-.1 1.2-1.6 2-3.9l.4-1-1-.4c-1.1-.5-2.2-1.4-2.2-1.9 0-.4.8-1.1 1.1-1.1.2 0 .8.5 1.4 1.2l1.1 1.2v-1c-.1-.6-.4-1.2-.6-1.5-.2-.2-.3-.6-.2-.7.1-.2 0-.5-.1-.8-.2-.4-.1-.7.4-1.3.7-.9.8-2 .2-2.4-.5-.4-1.1-2-1.1-2.7 0-.3-.2-.4-.4-.3-1.3.4-3.6-8-4.3-15.3-.2-2-.7-3.6-1.2-3.3v1c.4 1.4.8 4.3.8 5.3 0 .5.1 1.2.3 1.6l.4 2c.2 1.4.1 1.5-.5 1.8-.5.3-.7.3-.9 0-.1-.2-.5-.4-1-.5-1-.3-.9.3.2 1 1 .6 3 2.6 3.6 3.9.6 1 1.2 2.6 1.5 4 .1.6.2.7.4.4.4-.7 1.1.4 1.3 1.9v1.3l-.7-.2c-.7-.1-.8 0-1.3 1.2-.4 1-.7 1.4-1.1 1.4-.3 0-.6-.1-.7-.3-.1-.1-.5-.3-1-.3s-.8.2-.9.6c-.2.7-.8.5-.7-.3 0-.3 0-.5-.3-.5s-.4-.3-.4-.7c0-.6.6-.9.9-.4 0 .2.7.3 1.4.3 1.4 0 1.6-.2 1.6-2.1 0-.5.2-1.1.3-1.3.4-.7-1.1-3.8-2.9-5.6l-.9-1.1c0-.4-1.7.5-1.7 1s.7 1 1.7 1 1.5.8.5.8c-.6 0-1.2 1-1 1.5.3.3.5.3 1.2 0 1.3-.5 1.5-.4 1.5.5 0 .8 0 .8-.8.7l-.8-.2.2 1.2c.1 1 0 1.2-.3 1.2-.2 0-.5-.3-.7-.7l-.6-.6c-.8 0-1.7.5-1.7 1 0 .1 0 .3.2.2.4-.3 1 .3 1 1 0 .6-.5.6-1.3-.1-.6-.6-1.8-.6-2-.1 0 .1.4.6 1 1s1 .9 1 1c0 .6-.3.6-1.4 0l-1-.5 1 1.4c1 1.1 1.2 1.2 1.4.8.4-1.2 1.8-1.3 2.2-.3.2.7.3.7 1.4.5 1.8-.3 2.1-.3 2.2.2 0 .3-.2.6-.9.9-1.2.5-1.8.5-2 0-.1-.2-.4-.4-.7-.4-.3 0-.6.2-.7.4-.2.6-.7.5-3.9-.7-1.6-.6-3-1-3.1-.9-.1 0-.4 0-.5-.3-.2-.3-.7-.8-1.2-1-.5-.2-1.2-.9-1.6-1.4-.3-.6-1-1.2-1.3-1.4-.7-.3-.8-.3-1.1.1-.2.3-.4.7-.3.8.1.5 3.3 2.5 5 3.2 3.9 1.5 7 2.6 8.5 2.7 1.2.2 1.6.3 1.6.6 0 .4-1.8 1-2.4.7l-.3.1c0 .5.6.6 1.7.3 1-.3 1.2-.3 1.7 0l1 .5c.2 0 .5.2.7.5.3.4.4.4.6-.3.2-.4.5-.7.8-.7.6 0 .3 1.2-.9 3.5-1 2-1.6 2.7-2.1 2.4-.2 0-.6 0-.8.2a9 9 0 0 1-1.2.5c-.5.2-.8.4-.7.7 0 .4-.1.5-1 .4-2 0-2.1-1.3-.3-2.6 1-.6 1.2-.6 1.7-.4.5.3.7.2 1.7-.5l1.4-.8c.5 0 .6-.5.3-1.2-.2-.5-.4-.6-1.1-.5-.5.1-1 0-1.3-.1-.2-.2-.6-.1-1.4.3-1.1.5-1.2.5-2 0-.8-.4-1-.3-1.6.7-.3.5-.6.8-1 .8-.3 0-.4.1-.3.3l1.2.2c1.3-.1 1.6.4.5 1-.9.3-.8.6 0 .6.3 0 .5.1.4.3-.1.1-.5.3-1 .3-1 0-1.2.4-.4 1.3.7.7 1 1.6.4 1.6-.2 0-.8-.5-1.4-1l-1-1.1-.7.5-.6.6.7.6c.7.6.9 1 .3.8l-.6.1c0 .1.4.2 1 .2.7 0 1.5.1 1.7.3.3.3.5.2 1.3-.7 1-1.1 1.5-1.2 2.1-.4.6.6 1.7.6 3-.1 1.4-.7 2.1-.6 1.8.2-.3.8-2 1.5-4.4 1.7a3 3 0 0 0-2 .9c-.4.4-1.2.8-1.7 1-2 .4-2 1.1.1 1 1.4 0 1.5 0 1.6-.7zm2.3-9.7c0-.3.4-.5 1.2-.5l1.2.1c0 .5-.7.9-1.6.9-.7 0-.8-.1-.8-.5zm-73.2 9c0-.2-.2-.5-.6-.7-1.2-.6-1-1 .3-.9h1l.3-1c.4-1.8 0-2-3.7-2h-3v.8l.4 2.3.3 1.6 1.2.1c2.4.3 3.7.2 3.8-.2zm82.4-2.6-.9.1c-.6.2-.7.3-.3.6.3.2.4.6.4 1s.2.9.4 1c.2.3.3.1.4-1.1v-1.6zm-140.7-1-.5-3.6c0-.5-.2-1.6-.5-2.5-.4-.8-.6-1.6-.6-1.7 0-.3 1-.5 1.3-.3.6.4 2 4.4 2 6.3.2 1.7.2 1.9.9 2 1 .2 1.2-.2.6-1.5A356.4 356.4 0 0 1 6 55.4c-.1 0-.4-.5-.5-1l-.3-1.2-.4 1c-.6 1.2-.8 3.6-.4 3.6.2 0 .5.5.7 1 .5 1 1.2 5.8 1.2 7.7 0 .6.2 1.7.5 2.5l.6 1.8c0 .3.2.7.4 1 .5.4.5.4.6-.2l-.5-3.3zm99.4 2c1.6-2.2 2.8-4.6 2.4-5-.4-.3-.6 0-3 4-1.8 3.2-1.5 3.8.6 1zm-64.8.8c1-.2 1-.7-.2-.9-.5 0-1.4-.3-1.9-.5-.5-.3-1.9-.5-3-.6-1.2-.1-2.7-.4-3.4-.6a6 6 0 0 0-2.7-.2c-1.3.1-2 0-5-.8-.8-.2-2.3-.4-3.3-.4H21v1.2c0 .6.2 1.2.3 1.3l2.2.3a242 242 0 0 1 15.6 1c.6.4 2 .5 3.3.2zm89.5-.5c0-.8-2-1.7-3.3-1.5-.8.1-1 .1-1-.3 0-.3.2-.7.4-.9.2-.3.1-.3-.6-.2-1.2.3-1.3.4-.9.7.2.3.2.5 0 .8-.3.7.1.9 1.8.6 1.3-.1 1.5 0 1.5.4 0 .7.2.8 1.2.8.7 0 .9 0 .9-.4zM48.2 69c.2-1 .2-1.6 0-1.8a69 69 0 0 0-10.3-.4c-5.5 0-9.9 0-9.8.1 0 .1 1.4.3 2.9.4a38 38 0 0 1 11.8 2c.6 0 1.3.3 1.9.7a3 3 0 0 0 2 .6H48zm77-1.7-.8.2c-.6.2-.6.4-.4.7.3.3.4.3.9-.2.3-.3.4-.6.4-.7zm-106-2.6a18.7 18.7 0 0 0-1.3-4l-.5-1A130.7 130.7 0 0 1 13 47c-.7-2.1-1.3-3.5-1.6-3.5L11 42c-.1-.8-.5-2.2-.8-3.1a9 9 0 0 1-.7-2.2c0-.6 0-.6-.7-.4-.5.2-.5 1.5 0 3.4.2 1 .5 1.3.9 1.4.7.1.8.4 1 3.9 0 2.3 1.2 8 1.6 8.3v-.9c-.1-1.6.5-1.4 1.1.4.4 1 .6 1.8.5 2.5-.2.6 0 1.3.7 2.7l1 2.1 1 2.4 1.2 3c0 .7.4 1.2.8 1.5.3.2.7.6.8 1 .2.5.2.4.3-.3 0-.5-.1-1.8-.4-3zM4.7 67c-.3-1.7-.7-1.9-.7-.3 0 1 .1 1.3.4 1.3.4 0 .4-.1.3-1zm127.2 0a2 2 0 0 0-.6-.7c-.4-.3-.4-.4 0-.8l.5-.7c0-.2-2 0-2.3.1-.1.2 2.2 2.6 2.5 2.6l-.1-.5zm-25.9-.5c.4 0 .6-.4.9-1.2.7-2.2 1-2.8 2.6-4 2-1.5 1.7-1.3 4.8-2.8 2-.9 3.4-1.8 5-3.2l3.2-2.3c.5-.2.8-.6.8-.7 0-.9-2.2-.8-3.7.1-1 .6-2.8 1-7 1.5-2.4.2-3.4.5-4.3 1-.6.3-1 .7-1 .8h1.6c1.2-.1 1.7 0 2.7.5a6 6 0 0 0 2 .6c.8 0 1 .6 0 .8-.4.1-1 0-1.7-.4-.8-.4-1.3-.6-2.6-.5-1 0-2 0-2.3-.3-.5-.2-.8-.2-1.7 0l-1 .5c0 .3 1.2.8 1.8.8.7 0 1.5.7 1.3 1.2-.2.3-.3.3-1 0l-1-.4c-.2 0-.9-.3-1.4-.7-1.2-.8-3.2-1.1-6-1l-3.8.2a7 7 0 0 0-2.8.5c-1.3.6-3.5.7-4.4.2l-1.2-.6a68.7 68.7 0 0 0-7.4-1.4c-.6-.2-.6-.1-.5.8L78 62v4.5l3.1.1H106zm-10-7-1.3-.2c-.5 0-1.3-.1-1.5-.3-.3-.1-1-.3-1.6-.3-.6 0-1-.2-1-.3 0-.2.7-.1 4.3.3 1.4.1 2 .5 1.8.9-.2.3-.5.3-.7 0zm-27.7 5.6c0-.6-.2-2.2-.5-3.4-.3-1.2-.6-2.6-.6-3.2 0-1.1 1.3-4.4 2.1-5.3.2-.3.3-.6.2-.7-.2-.3-1.7-.6-3.8-.7-1.1-.1-2-.3-2.8-.8a5 5 0 0 0-1.8-.7c-.4 0-.7-.2-.8-.4-.1-.3-.6-.4-1.4-.4-1.7 0-6.5-.5-6.9-.7-1.2-.8-2.5-1.8-3.7-3-1-.8-1.7-1.3-2.6-1.6l-1.6-.5c-.1-.2-.5-.3-.8-.3-.4 0-1-.3-1.4-.6-.4-.4-1-.7-1.3-.7a3 3 0 0 1-1.1-.4c-.4-.2-1.4-.4-2.5-.4-1.5 0-2.1-.1-3-.6a9 9 0 0 0-6.3-1.9c-2.2 0-3.1-.1-3.7-.4-1-.5-3.5-1.1-3.9-1 0 .2-.6 0-1.1-.2-1-.5-1-.5-2.3 0-1.3.4-1.3.4-2.8 0-1.8-.7-2-.7-2.4-.4-.3.2-.2.8.5 3l2.2 7c.7 2.3 1.5 4.7 1.9 5.4a61 61 0 0 1 3.6 9.4l1.5 3.8.4.6 13.4.1c12.4.1 13.4 0 13.8-.3.3-.3.4-.7.3-1l-.6-3.2c-.8-4.2-.4-6 1.7-8.8.7-1 1-1.1 1.8-1.2 1.1 0 1.4.5 1.8 2.5.2 1.7 1.3 4.7 1.7 4.6 0 0 .4-.4.6-.9 1-1.7 3-4.5 3.4-4.7.2 0 .7 0 1 .2.7.5 1 2.4 1 6.7 0 2.3 0 2.8-.7 4.1-1 2.3-1 2.4 3.6 2.3h4v-1.3zm-45 .3c0-.2.4-.3.8-.3.5 0 .8.1.8.3 0 .1-.3.3-.8.3-.4 0-.8-.2-.8-.3zm23 0c0-.2.2-.2.3-.1.4.2.3.4-.1.4-.3 0-.4-.2-.3-.3zm14-2.7.4-2.6c0-2.2-.5-4.8-.8-5-.6-.2-1.2 1.9-1.4 4.7l-.4 3.6c0 .5 0 .7.5 1 .8.2 1.1-.1 1.7-1.7zm16.2.8c0-.6 0-.6-.3 0s-.3.9 0 .7c.2 0 .3-.4.3-.7zM71.8 62c0-1.5-.2-2.3-.7-3.5-.4-.9-.8-2-.9-2.6-.2-2-.6-1.7-1.5 1-.5 1.6-.5 1.9-.1 3l.5 2.2c.1.6.3 1 .5 1 .1 0 .2-.2 0-.4-.1-.6.1-3 .5-3.6.4-.7.6.1.5 2 0 2.4.1 3.1.7 3 .4 0 .5-.4.5-2zm2.6.9c.7-1 .7-1.2.5-2.5 0-1 0-1.5.2-1.6.4-.3 1 1.5 1 3 0 .8.1 1 .3.9.4-.4.2-5-.2-7.2l-.2-1.2-.4.7c-1.1 1.6-1.8 3.9-1.7 5.2.1.9 0 1.5-.3 2.1-.3.7-.4 1.6 0 1.6l.8-1zm38.4.5c0-.2 0-.2-.3-.1-.4.2-.5.3-.1.3.1 0 .3 0 .4-.2zm3.4 0c.3-.5 0-.6-.4-.2-.2.3-.2.4 0 .4.1 0 .3 0 .4-.2zm-59.3-1c.2-1 0-2.7-.3-2.7-.4 0-.6.7-.6 1.8 0 2 .6 2.5 1 1zm76.8 0c-.1-.2-.3-.3-.4-.3-.2 0-.2 0-.1.2 0 .2.2.3.4.3.1 0 .2-.1 0-.3zm1.9-1.9c.3-.2.6-.7.7-1 .2-.5 0-.7-.5-1-.6-.2-.7-.2-1 .1v.9c0 .3-.1.5-.3.6-.6.2-.5.9 0 .9a2 2 0 0 0 1-.5zm-1.7-2c.1-.3 0-.5-.5-.7a12 12 0 0 0-3.2-1c-.3 0-.2.1.2.3.4.1.8.4.8.7.1.3.6.6 1.2.8 1.4.3 1.3.3 1.5-.1zm-60.3-2.3c.8-2 .7-2.3-.4-2.3l-1.4-.4c-.5-.3-1-.4-1-.3 0 1.1 1.6 4.9 2 4.9l.8-1.9zm-63-2.6-1.4-5.7c-.5-2.6-1.2-4.5-1-3l.4 2c.7 4.5 2.2 10.5 2.6 10l-.6-3.3zm80.2 3c.5-.2 2.2-.4 4.3-.5 1.9 0 4.1-.2 5-.4 1-.2 1.8-.2 2.4 0 1 .4 2.2.2 3-.5.4-.3 1-.6 1.4-.6l1.6-.8c.7-.5 1.5-.7 3.1-.8 5.1-.4 8-1 8-1.6a1320.2 1320.2 0 0 1-12 .4c-.3.1-.4.5-.3 1 .1.9 0 1-1.7 1.2-1.3.2-1.5.1-1.4-.3 0-.3.5-.7 1-1l1-.5-.9.2c-.5 0-1.3.4-1.7.8-.5.3-1.4.7-2.3.8-1.3.2-1.4.1-1.3-.3 0-.3.4-.5.7-.6.3 0 .6-.2.6-.3 0-.3-1.1-.5-1.6-.3-.3.2-.8.3-1.2.3-.4 0-.7.2-.8.5 0 .3-.4.6-.7.6-.3 0-.6.2-.7.6-.2.4-.5.7-.8.7-.7 0-1-.5-.5-.7.4-.2.4-.2 0-.8-.6-.9-.2-1.3 1-1 .8 0 1 0 1-.2 0-.6-.3-1-1.1-1.1a64 64 0 0 0-19.1 1.2l.4 1.2c.5 1 .6 1 1.8 1.2 2.4.2 3.5.4 5.3 1l2.7.7c1.4.4 2.7.4 3.8 0zm33-1.6c1.7-.2 2.3-.7 1.8-1.3-.3-.4-1.8-.6-1.8-.2 0 .1-.5.6-1.2 1.1-.6.5-.9.8-.6.8l1.8-.4zM8 54.4l-.4-1.8c-.3-2.4-2.1-9.2-2.5-9.6-.3-.3-.4-.2-.8.4-.4.6-.4.7.1 2.4a7 7 0 0 0 .9 1.8l.2.8c0 .4.2.7.4.8.3 0 .4.5.4 1.2 0 1 1.2 4.2 1.6 4.2.2 0 .2 0 .1-.2zm126.1-.5c-.4-.8-.9-1-1.7-1-.8.2-.7.6.5 1.1 1.2.5 1.5.5 1.2-.1zm-59.3-.7c.2-.3.2-.3-.4-.3-.6 0-.8.2-.5.5.3.3.6.2.9-.2zm2.4-1.5 6.6-1c2-.3 3.6-.3 8.5-.2 5.4.1 6 .1 6.3-.3.3-.5 1-.2 1.3.6.3.7 1.1 1 2.4.7.5 0 .8-.2.8-.5s.2-.3.6-.2l1.9.3c1.2.2 1.2.1 1.7-.6.4-.7.8-1 2-1.2 1.2-.4 1.3-.4.4-.4-.8 0-6.4.8-8 1.1-.6.2-.7.1-.6-.3 0-.4.5-.6 3-1 2-.3 3.2-.6 3.4-.8.2-.3.4-.3.5-.1.2.3 3.5.3 4.3 0 .6-.2-2.6-1-4-1-.6 0-2 .2-3.3.5-1.5.4-2.5.6-2.7.4-.6-.3-3.8-.2-4.3.2-.6.4-1.6.5-1.9.2 0-.2-.6-.2-1.2 0-1.7.3-2 .2-2-.2 0-.8 2-1.4 4.7-1.3 2.6 0 3.4-.3 1.2-.5-.8 0-2-.4-2.9-.8-2-1-3-1.1-3.6-.7-.6.6-2 1.1-2.5 1-.3-.1-.7 0-1 .2l-1 .4c-.8 0-.7-1 0-1.3l.9-.7c.2-.5 1.5-.5 2.3-.1.7.3 1 .1.5-.4-.4-.5 0-.8.6-.5.3 0 .4 0 .3-.3-.1-.2-1-.9-2-1.4-3-1.4-4.8-3.3-3.8-3.7.3 0 .6 0 .8.4.5.6 2.7 2.3 3 2l-.5-1.4c-.4-1-.4-1.4-.2-1.7.2-.2.4-1 .4-2s.1-1.7.2-1.8c.1-.1.4.1.8.5.5.7.6.7 2.6.5a18 18 0 0 1 3.1 0c1 0 1 0 1-.8 0-1.2-.2-1.6-1.1-1.6l-1.5-.3c-.5-.1-.3-.2.8-.2h1.5l.1-1c.1-1.1.6-1.2.8-.1l.3 1c.2.2 2.3.2 2.4 0l-.1-1c-.2-.8-.5-1-1.2-1.4-.6-.2-1.5-.8-2-1.4L96 26.3c-.7-.2-.8-.7-.3-.9.5-.2 2.2.8 3 1.7 1 1.2 1.5 1.1 1.1-.1-.2-.7-.2-1 0-1.3.4-.4.7.1 1 1.4 0 .5.5 1.3.8 1.7.5.4.7.9.6 1.2-.1.3 0 .8.3 1.2l.5.5.1-1 .3-3.6c.1-1.4.3-2.9.5-3.4.3-1 0-1.5-.4-.7-.3.6-1 .5-1.1-.2-.2-.9-.8-.9-1.6 0-.7.8-.8.8-1 .1-.1-.3-.3-.5-.6-.5-.6 0-1.2.8-1 1.3.3.9.4 1.8.1 1.8-.3 0-1.4-1.2-1.4-1.7s-.3-.5-1.3 0c-.7.4-.8.6-.7 1.6 0 1-.1 1.8-.7 3.1-.3.8-1.6 1.3-2.3.9-.3-.2-.3.8 0 1.5.2.3.6.5 1 .5 1 0 .7.9-.4 1-.7 0-.9 0-1-.6-.1-.6-.3-.7-1-.7-.8 0-1-.1-1-.5 0-.3.3-.6.6-.6.6-.1 1-.8.4-.8-.7 0-1.4-.7-1.3-1.4.2-1 .8-1 1.7 0 .7.8.9.9 1.8.7l1-.2c.4-.3-.8-1-1.8-1.2-1.3-.1-1.7-.9-.8-1.1.4-.1.5-.3.4-.5 0-.1-.4-.2-.7-.1l-2.3.5a130.8 130.8 0 0 0-13.3 4.4c-.4.1-.7.4-.6.5.2.4 1.7.5 5.5.6l5.5.2 1.7.2-2.7.1-3.4.1c-1.5 0-1.3.3.5.6 4.5.8 6.3 1 6.8.7.3-.2.5-.2.9 0 1 .8.2 1.6-1 1-1-.5-1.4-.1-.6.9.9 1.1.8 1.3 0 1.6-.6.3-1 .3-2.1 0-1.2-.3-1.3-.4-1.4-1.2 0-.6 0-.8.3-.8s.4.1.4.2c0 .3 1.6 1.2 1.8 1 0 0 0-.5-.3-1l-.6-1-3-.4c-1.7-.2-3.5-.6-4-.8l-2-.4c-.4 0-1.4-.2-2.2-.5l-2.7-.7c-.6 0-2.4-.5-3.9-.8-2.5-.7-3.2-.7-6.9-.7-5.8.1-8 .3-8 .8 0 .2.3.3.5.3.5 0 2.2 1 2.2 1.4 0 .4-2 .3-2.7-.1-.5-.4-.9-.4-2.4 0-1 0-2.1.4-2.5.6-.8.4-1 .2-1.2-1-.2-1.5-.7-1.8-2-1.5-.7.2-2 .3-2.8.3-3.5 0-5.9.7-3.2 1 1 0 1.1 0 1.2.7 0 .3.4 1 .9 1.3.5.4.7.8.6 1-.2.4-1.2.4-2 0-.6-.1-.9 0-1.3.2-.6.4-.6.4-1.3-.3-.5-.5-.8-.7-1.8-.7-1.4 0-1.7-.3-.8-1.2 1.3-1.1.7-1.3-3-1.2-2.3 0-4.2 0-6.3-.3-3-.5-3-.5-3.6 0-.3.4-1.5 1-2.6 1.5-1.2.6-2 1.1-2 1.4 0 .2.4.4 1.4.6 1.1.3 1.5.5 1.5.8v.9c0 .2.6.4 1.4.5.7 0 1.8.3 2.3.6.8.3 1.6.4 3.2.3 2.6-.1 5.2.6 7 1.9 1 .7 1.3.8 2.5.7 1-.1 1.8 0 2.5.3.7.2 1.5.4 1.9.3.5 0 .9.1 1.7 1a5 5 0 0 0 1.8 1c2.2.5 4.1 1.4 4.5 2.1.3.8 1.4 1.8 2.1 2 .4 0 .9.3 1 .5.3.4.7.5 5.5.9 2.4.2 3.5.3 3.8.6.3.3.7.5.9.5.2 0 .5.1.5.3.3.6 2 1.2 3.5 1.3.7 0 2.2.2 3.2.6 2.2.7 2.6.7 7.8 0zm22.4-2.4c-.4-.2-.6-1-.2-1l.7.4c.7.5.2 1-.5.6zm-10.6-2c-.3-.5.3-1.1 1-1.1.2 0 .5-.1.6-.3.2-.3 2.2.6 2.2 1s.1.4-2 .5c-1 0-1.7 0-1.8-.2zm-37-4.6c-.4-.4 0-.8.7-.6l2-.1a58 58 0 0 1 10.2-1.4c.5-.4 6.3-.2 6.8.2.3.3-.4.4-3.5.4a50.8 50.8 0 0 0-11 1l-4.4.7c-.4 0-.8 0-.9-.2zm34.5 0c-1.1-.2-1.6-.6-1.2-1 .2-.3.7-.3 1.7 0 1.4.3 1.9.7 1.3 1-.4.3-.6.3-1.8 0zM73.1 41c0-.2.5-.3.8-.3.4 0 .6.1.5.3 0 .1-.4.3-.8.3s-.6-.2-.5-.3zm11.2-.8c-.6-.6-1-1.2-.9-1.3.1-.2 0-.5-.2-.8-.2-.4-.2-.6 0-.8.5-.5 1.7 0 2 .8.3.4.6.8.9.9.3 0 .4.3.3.7v.6c.6.4.3 1-.4 1-.4 0-1-.4-1.7-1.1zm9.4-6.8c0-.2 0-.5.2-.6.5-.3 1.3 0 1.2.5 0 .6-1.2.7-1.4.1zm7.4-9.2c0-.3 0-.6.3-.9.4-.4.4-.4.6 0 .2.6 0 1.3-.5 1.3l-.4-.4zm31 27.8c.2-.1-1-3.3-1.1-3.3l-1.3.7-1.2.6.7.6.8 1.2c.1.5.3.6 1.1.4.6 0 1-.2 1-.2zm-5.7-1.5c.2-.4 0-.7-1.1-1.6-1.5-1.3-3.4-2.4-4.1-2.4-.3 0-.8-.2-1.2-.5-.7-.5-2.3-1-2.3-.6 0 .7 3.2 3 4.1 3 .4 0 .8.3 1.2.7.8 1 2.3 2.2 2.8 2 .2 0 .5-.3.6-.6zm-11.1-.2c1-.1 2-.3 2.3-.5.5-.3.4-.3-.3-.6l-4.2-1.3-.4.8c-.2.5-.7.9-1.6 1.2l-1.4.7c0 .2.6.2 5.6-.3zm21 0c.4-.4.6-.7.6-.9-.1-.1.1-.5.5-.9.6-.5.7-.7.5-1.6-.3-1.3-.8-1.6-2-1-1.7.8-2.4 1.2-2.5 1.6a9 9 0 0 0 2 3.3l.8-.6zm-3.2-.8c-.4-1-.9-1.7-.9-1.2a7 7 0 0 0 1.2 2.2s0-.4-.3-1zm-12.5-.3c-1-.5-2.6-2-3.8-3.1a10 10 0 0 0-2.4-2.1h-1.7c-.7-.2-1.5-.2-1.7 0-.3 0-.5 0-.7-.2-.3-.4-1.6-.6-1.6-.3l.7 1.3c.7 1.1.8 1.2 2.9 1.7 3.1.8 6.5 2 7.8 3 .6.4 1.4.7 1.7.7.3 0-.2-.4-1.2-1zm8.7-.6c.6-.3 1-.7 1-.8l-1-.3c-3-.4-4-.5-4-.3 0 .4 2.2 2 2.6 2l1.4-.6zm2.4-1.6L131 45c-.7-1.6-.8-1.7-.8-.8 0 .5-.2 1.1-.4 1.4-.4.4-.4.5.4.6l.8.4c0 .2.2.3.4.3l.4-.1zm-27.2-.4c0-.2-.4-.4-1-.6-.4-.1-1.4-.7-2-1.1-1.2-.9-1.3-.9-3-.6-1 .1-1.6.3-1.6.4 0 .1 1 .4 2 .5 2.4.4 3 .8 2.2 1.3-.4.3-.2.3 1.5.3 1 0 1.9-.1 1.9-.2zm44.5-2.1c.1-1.2 0-1.4-.4-1.4-1 0-1.2-2.2-.2-2.3h.6s-.1-.7-.5-1.4c-.7-1.3-.7-1.3-1.3-.9-1.5 1.2-2.3 2-2.3 2.2 0 .4 1.2 3 2 4.4.8 1.3.8 1.4 1.4 1 .5-.2.7-.5.7-1.6zm-14.8 1 1.3-.6-.7-.6c-2.4-2-3.6-2.8-3.7-2.8l.1 1a12 12 0 0 0 1.5 3.7l1.5-.7zm-26.1-.4c0-.2-.1-.8-.4-1.2-.4-.7-.9-1-2.6-1.6l-2.6-1c-.4 0-.4 0-.4.4 0 .3-.1.5-.6.6l-.6.2.6.3c.3.2.7.3 1 .3.2 0 .4.2.6.4 0 .2 1 .7 2.1 1l2.1.9c.3.2.6 0 .8-.3zm19 0 1.7-.2v-1.3c0-1 .1-1.3.6-1.7.5-.4.5-.4 0-.9-.2-.3-.3-.7-.2-1 0-.4-.3-1.4-1-2.9l-1.6-3.3c-.4-1-1-1.4-2.4-1.6-1-.2-1.3 0-.7.5.2 0 .2.3.1.6-.1.5.8 1.5 1.6 1.6.3.1.6.4.6.6 0 .3.3.7.6 1 2.6 2.8 3 3.4 2.4 3.4-.2 0-.2.1-.1.3.3.5-.8.6-2.4.1-1-.2-1.8-.4-1.9-.3l1.7 1.4c1.7 1.2 2.6 2.2 2.2 2.6-.2.2-1.6-.7-2-1.2-.3-.8-1.6-1.3-5.2-2.2a42.2 42.2 0 0 1-7-2.5l-.1 1.6c0 1.5 0 1.7 1 2.5l1.7 1.3c1.2.7 3.3 1.2 3.9 1 .3 0 .8 0 1.1.3.6.5 2.7.5 5.5.3zm-5.7-1c-.5-.6-.2-1.9.3-2 .7-.1 1 .1 1.1 1.3.2 1 .2 1-.4 1-.4 0-.8-.1-1-.4zm-4.7-2c-1-.6-1-1.2-.2-1.3.5-.1 1.7.9 1.7 1.4 0 .5-.5.5-1.5-.2zm2.4-.7v-.6c.3-.3 1 .2 1 .6 0 .5-.8.5-1 0zm18 2.3c.2-.2 0-.7-.4-1.2-.4-.6-.5-.9-.3-1.2.2-.4.1-.7-.4-1.4a51 51 0 0 1-2.4-3.8l-1.8-3-1.2.2-1.2.1c-.2.2.6 4.3.9 4.5.2.1.4.6.5 1 .2 1.1 1.7 2.7 4 4.2 1.7 1.1 2.1 1.3 2.4.6zm-38.3-.3c.3-.2.2-.4-.2-.9-1.2-1.2-2.6-1.7-2.6-.8 0 .6-.6.3-.8-.4-.2-.8-.7-.7-.7.2 0 1.1 0 1.2-.5.8-.3-.3-.4-.6-.3-1.4.1-.9 0-1-.7-1.5a17 17 0 0 1-1.6-1.3c-.4-.3-.8-.6-.9-.5-.2.3 1 2.8 1.8 3.5l.8 1s.2.5.6.8c.5.7.7.7 2.7.7 1.2 0 2.3 0 2.4-.2zm40.6-.6c0-.2-.9-.8-1.2-.8-.2 0-.2 1 0 1.2.2.2 1.2-.1 1.2-.4zM109 41.3c-1.6-1.1-2-1.8-1.5-2.1.1 0 .7.2 1.3.6.5.5 1 .8 1.2.8l1.2.7c1.1.8 2 .9 1.7.2 0-.3-.6-1-1-1.7a4.2 4.2 0 0 0-2.2-1.7c-.7-.2-1.4-.5-1.5-.7a33 33 0 0 0-2.9-1.5c-.3 0 .5 2.7 1 3.8 1 1.8 1.3 2.2 2.3 2.5 2.2.6 2.3.3.4-1zm-3.4-1c-.4-.6-.8-1.8-1-2.5-.2-1.1-.4-1.4-.8-1.4s-.5-.2-.5-.7c0-.7-1.2-3-1.7-3.3l-1.7-.2h-1.4l.2 1.6c.2 2.6 1.6 5.5 2.5 5.5l1 .5c.8.5 3.2 1.6 3.7 1.6.2 0 .1-.4-.3-1.1zm-6-5.3.4-.2c.1 0 .3 0 .3.2s0 .3-.3.3-.4-.1-.4-.3zm.3 5.1c0-.3-3.5-3.3-3.6-3.1-.1 0 0 .7.4 1.3.4 1 .9 1.4 1.6 1.6 1 .5 1.6.6 1.6.2zm37.6-.6-1.5-2.2c-.6-.9-1.3-2-1.7-2.3-.5-.7-.6-.7-.6-.2 0 .3.1.6.3.7l.8 1.1c.5 1.1 2.9 3.9 3.1 3.6 0 0 0-.4-.4-.7zm-15.4.2-.8-1.1a10 10 0 0 1-1.6-5.3c0-1.4-.6-1.8-3-2l-1.8-.1v.8c0 .5 0 1-.3 1.1l-.4 2-.1 1.8 1.3.6a72.3 72.3 0 0 0 6.7 2.2zm-6.6-5.2c-.6-.7-.6-.7-.3-1.3.2-.3.4-.2 1 .5.9.8 1 1.4.2 1.4-.2 0-.6-.3-1-.6zm11.2 4-1.8-1.8c-.6-.8-.8-.8-2.3-.8-1.5 0-1.6 0-1.3.6.4.7 1.3 1.3 3.8 2.3 2.5 1 2.7 1 1.6-.3zm14-1.2c-.7-3.7-1.5-6.4-2-6.7l-6.1-2.1c-.4 0-.1.7.9 2.1 1 1.6 1.2 2 .8 2.1-.4.1 2.6 4.3 3.7 5.4.6.5 1 .7 1.5.6.3 0 .7 0 .9.2.5.7.5.2.2-1.6zm-45 .7c-.4-.6-.4-1.6 0-1.6.3 0 0-.9-.6-1.3-.2-.1-1-.3-1.7-.3h-1.3l.8.6c1.6 1 1 1.5-.8.6-1.3-.6-1.4-.6-1 .5.3.6.6.7 1.4.7.5 0 1 .1 1.1.3.3.4 2.2 1.5 2.2 1.3 0-.2 0-.5-.2-.8zm49.1.5 1-.8c1.1-.4 1.1-.9 0-1.8-.6-.4-1.4-1-1.8-1.5l-.7-.7.1 1.5c.2 1.9.6 3.8 1 3.8 0 0 .3-.2.4-.5zM112.5 37c-1-.8-1.3 0-.3 1l.6.6V38c.1-.4 0-.8-.3-1zm-2.5-1c-.7-1.2-2.5-3.5-3-3.7l-1.6-.3c-1.2-.2-1.2-.1-1.2.5 0 .4.3 1 1 1.6l1 1 .1-.7.1-.7 1 .6c.9.6 1 1.2 0 1-.8 0-.7.1 1 1 2 1.2 2.3 1.1 1.6-.2zm-11.8.2c-.2-1-.5-1.2-1-1-.4.1-.4.2.3 1l.8.7v-.7zm51 .3-.8-1.4c-.5-.6-.8-1.3-.8-1.4l-.4-.2a7 7 0 0 1-2-1.2c-1-.7-1.7-1.2-1.8-1-.3.2.7 1.5 1.8 2.2l2.3 2c1.2 1.1 1.7 1.4 1.7 1zm-20.7-2c-.3-1.6-.4-1.8-1-1.8-.5 0-.5 0-.3.7.3.9 1.4 3 1.5 2.9l-.2-1.8zm-15.2.8.1-1.4c0-.6 0-.7-.5-.6l-1.6.2c-1.4 0-1.3.5 0 1.6 1.4 1 1.8 1 2 .2zm-98.3.2-.2-.8c-.2-.4-.2-1-.2-1.2.2-.4 1.8-1.3 3.5-1.7.4-.1.7-.4.9-.7.1-.3.6-.6 1-.6.7-.2 4.1-2.4 4.4-2.8.3-.5-.2-.3-2.3 1a30.7 30.7 0 0 1-9 4c-.5.4-.9.4-2.7.2l-4-.2c-1.6 0-2 0-2.6.6-.7.7-.9 1.2-.4 1.2.1 0 .5-.3.8-.7.5-.7.5-.7.9-.3.2.3.5.5.8.5l1 .3c.3.3.7.2 1.9-.2s1.5-.4 1.8-.1c.3.2.7.3 1 .2.9-.2 2.5.4 2.7 1 .2.3.7.6.7.3zm108-.9c0-.6-1.1-2-1.6-2-.4 0-.5.3-.5 1 0 .5.1 1 .3 1 .5.2 1.8.2 1.8 0zm-9-3c0-.5-.2-.7-1-1.1-.7-.4-1-.5-1.2-.2l-.5.3c-.4 0-1.3-2.1-1.3-3.1s-1.2-3.1-1.7-3c-1.3.6-1.3.7-1-.5 0-1 0-1.1-.5-1.4-1.3-.7-1.7.2-2.4 5-.2 1.8-.2 2.5 0 2.8.4.4 2.6 1 3.2.8.3 0 .6 0 .7.2.4.6 1.8 1 3.7 1 1.8-.1 1.9-.1 2-.8zm-6.6-2c-.3-.7-.4-2.2 0-2.2l.6 1c.3.8.4 1 0 1.3-.3.3-.4.3-.6-.1zm24.9 1.1a13 13 0 0 1-.7-1.9c-.1-.4-.4-1-.7-1-.3-.3-.5-.4-.5-.3l1.8 4.4c.6 1 .7.1 0-1.2zm-1.2.8c0-.2-.1-.6-.4-.8-.5-.5-1.9-3.3-1.9-3.8 0-.2-.5-.8-1-1.5-1.2-1.2-1.3-2-.2-1.3.8.6 1 .5.8-.9-.2-1.6-.7-2.3-2-3-1.5-1-2.7-1.1-4.3-.8a21 21 0 0 0-5.2 1.9l.7.5c.5.2.7.2 1 0 .5-.6 2.6-.6 2.5-.2-.1.2-.6.5-1.1.6-.8.2-1.6 1-1 1 .1 0 .3.2.4.5.1.3.4.5.7.5.6 0 1 .6.4.9-.5.2-.6 1.3-.2 2 .4.8.7.7 1.3-.6.3-.7.7-1.2.9-1.2.3 0 .2.5-.6 2.7-.7 2.1-.7 2.3.5 2.4l1.9.5c.4.1.9.2 1 .1l-.8-3.1c-.9-2.8-1.2-3.8-1.6-5.9-.1-.4-.4-.7-.6-.7-.6 0-.7-.4-.1-1 .9-1 1-.8 1.4.8.1.4.4.7.7.8.5.2.5.2.2 1-.4.7-.2 2.1 1 6.2.7 2 1 2.5 1.8 2.5.4 0 .5 0 .3-1-.5-3-.5-3 0-2.8.4.2 1 1.4 1 2.3 0 .2 0 .7.2 1.1.2.6.4.7 1.2.6.6 0 1-.2 1.1-.3zM14.4 31c1.2-.2 4-1.4 3.8-1.6l-2.6-.3c-2.4 0-2.6 0-3 .5l-.4.5-.2-.5c-.3-.9-1.2-.7-2 .2-1.3 1.7.3 2.1 4.4 1.2zm131.5.1c-.3-.7.6-1 1-.4.4.5 1.5.5 1.5 0 0-.2-.3-.7-.7-1.1-.5-.6-.8-.7-1.5-.7-1.1.1-1.4-.2-1-1 .3-.4.3-.6.1-.7-.2 0-.9-.5-1.6-1-1.2-.9-2.1-1-1.8-.2l.3 1.4c0 .7.4 1.2 1.8 2.5l1.9 1.7v-.5zm-137.5.1c0-.2-.5-.4-.6-.1-.1.1 0 .3.2.3s.4 0 .4-.2zm41.3-1 .6-.8-1.1.2c-1.3.2-1.5.3-1.3.8.3.6 1 .5 1.8-.3zm70.3.3c.2-.2.3-.6.3-.9 0-.8-.5-1.1-2-1.1-1 0-1.4-.1-1.4-.4 0-.7.9-1.5 1.5-1.5.5 0 .6-.1.6-.7 0-1-1-1.3-2.8-.8-1.7.5-2.5.6-2.5 0 0-.2-.3-.3-1.1-.4-.8 0-1.1-.2-1.1-.5s.3-.4 1.3-.5c1.7-.2 1.3-.4-1.1-.7-1.6-.1-2 0-2.1.3-.5 1.1 3.3 4.2 8.5 7 1.2.6 1.5.7 2 .2zm-87.2-.7c.2-.2.2-.3-.2-.5-.3 0-1-.5-1.6-.9-.5-.4-1.6-.9-2.3-1.1l-1.2-.5-1.9 1.4c-1 .8-1.8 1.4-1.7 1.5.2.3 4.5.5 6.8.5 1 0 2-.2 2-.4zm19.7 0c.1-.3-1-.6-1.5-.2-.3.1-.3.2 0 .4.5.4 1.4.3 1.5-.1zm22.7-.6c5.3-2 12.1-4.2 13.3-4.2 1.3 0 2.5-.5 2.3-1-.6-1.4.4-1.9 1-.5.5 1 .5 1 .6-1.7 0-1.5.1-2 .4-2 .4 0 .5.2.4 1.4 0 1.6.5 3.3 1 3.3.2 0 .2-.6.1-1.7-.3-3 .5-4.6 1.3-2.7.5 1.2.5 1.5 0 1.5-.3 0-.4.2-.4.6 0 .8.7 1 1 .2.3-.8 2-3.4 2.2-3.5.6 0 0 1.6-1.2 2.9-.4.5-.5.6 0 .6l.4-.2c0-.4 1-1.4 1.3-1.4.1 0 .3.2.3.5 0 .4 0 .5.6.3.3-.2.5-.4.5-.7l-.1-1.1c0-.3 0-.6-.2-.6-1 .2-1-.4-.3-1.7.6-1 1.1-1.2 1.5-.7 0 .2.2.2.5 0 .2-.1.5-.2.7-.1.3.1.5 0 .5-.4 0-.8.6-1.2 1.1-.7.6.6.6 1.1 0 1.4-.2.1-.5.8-.6 1.6-.3 2.3.2 3.3.8 1.5.2-.5.8-1.4 1.3-2 1.2-1 1.4-1.6.6-1.4-.8.2-1-.3-.5-1.4.5-1.2 1.1-1 1 .2 0 .7 0 .8.2.4.3-.4 1.4-.6 1.4-.1l-1.2 2.7c-1.4 2.7-1.5 3.3-.7 3.3.6 0 1-.7 1-1.8 0-.8.8-3.1 1.2-3.7.4-.5.8-.3.7.4-.2.8-.2.8.7.2.5-.4.6-.3.8 0 .5.8-.3 1.9-1.3 2-1.5.3-1 .7 1 1.2l2.4.5c.5 0 .4-.6-.1-.7-.7-.2-.8-1-.1-1 .2 0 .8.4 1.3.8 1 1 1.6 1 3.3.2l1.5-.6c.3 0 .6-.4.6-.6 0-.3.2-.7.5-1 .6-.5.7-.9.1-.9-.2 0-.6.4-.8 1-.4 1-1 1-.8-.2.2-.8-.1-1-.5-.5-.1.2-.4 0-.8-.4-.7-.8-1.4-.9-1.4-.3 0 .6-.7.5-1-.2a5 5 0 0 1 0-1c0-.3 1-.3 2.3 0 1.5.5 3.5.8 3.4.5-.1-.2-3-2-5-2.9-.5-.3-.8-.2-1.6.3a1 1 0 0 1-.9.2c-.3-.2-.4-.3-.1-.7.2-.6-.1-.8-.4-.3-.1.2-.4.3-.7.3-.3 0-.5.1-.5.4 0 .6-1.3.8-4.4.5-6.8-.6-7.5-.8-7.5-1.6 0-.5 1-.5 3.1 0 1.6.3 1.8.3 2.2-.1.4-.6 2.5-1 3-.6.1.1.7.2 1.3 0 2-.2 1.5-.7-2.4-2.6-2-1-3.5-1.9-3.5-2 0-.3.2-.4.6-.3l1.3.3c.7.2.8.2.7-.3-.1-.6-1-.8-3.5-.8-1.7 0-1.8 0-1.6.5.2.7-.5 1-1.4.4l-.8-.4c-.3.3 1 1.5 2.4 2.2.8.4 1.5.8 1.5 1 0 .6-.3.6-2.1-.2-1.6-.6-2.3-.6-1.8.2.6.8 1.4 1 3.4.7 2.7-.3 3.4-.3 3.4.1 0 .6-.8.7-4.1.9l-3.2.2c-.6.2-.8-.4-.2-.8.4-.3.4-.4 0-.4-.2 0-.5.1-.6.3 0 .1-.6.3-1 .3-1.3 0-1.1-.7.1-.8.7 0 1-.2 1.1-.6.2-.5 0-.5-1-.3-1.2.1-2.1-.2-1.9-.9.2-.5-.7-.7-1-.2-.4.6-1.8.5-1.7 0 0-.3.4-.5.7-.5.2 0 .5-.2.5-.4 0-.4-1-.7-5.3-1.4L77 5.2c-7.6 0-8.8 0-9.6-.4-.7-.4-1-.4-1.7-.1-.5.2-2.8.4-6.1.5-3 0-5.5.2-5.6.3 0 .1 0 .4.2.6.5.6 0 1-1.5 1-1.3 0-2.9.5-5.1 1.6-.4.2-1.5.4-2.4.5-1 .1-2.4.4-3.3.8-1.4.5-2 .6-4.8.5-3.2 0-3.3 0-3.7.7l-1.1 1.4-.6 1.2c0 .3.2.4.9.2.4 0 1-.4 1.4-.7.5-.4.7-.5 1-.2.2.2.7.3 1 .2.5 0 .8 0 1 .3.2.4.3.4.8-.2.7-.6 1-.5 1 .2 0 .6-.7 1.3-1.7 1.5-1.3.3-2.5 1-2.8 1.5-.2.4-.4.5-1.2.4-1-.2-1.4.2-1.9 1.6-.4 1.1-.4 1.7 0 2.2.2.3.3.3.5 0s.6-.6.9-.6c.4 0 .7-.2 1-.9.5-1 1.3-1.5 1.5-.9.2.6 1.8 2.1 2.3 2.1.2 0 .6-.2.9-.5.3-.3 1-.5 2-.6l1.6-.2.5 1.2c.5 1.3.7 1.4 1.3.6l.9-.5c.2 0 .6-.2.8-.5l1-.8c.8-.4.8-1.2 0-1.6-.7-.3-1.2-1.4-.9-1.8h.7c1 .5 2.6.5 3.7 0 1.1-.4 1.6-.3 1.6.4 0 .4.8.9 1.5.9.2 0 .6-.4.8-1 .3-.7.5-.9 1-.9.4 0 .7.1.7.3 0 .3 1.1.3 1.5 0 .2-.2 1-.3 1.7-.2h1.4l.1 1c0 .7.3 1.1.6 1.3.3.2.5.5.5.7 0 .4-.2.4-1.5.3A5 5 0 0 1 58 18c-.3-.3-.9-.3-1.3.2-.3.2-.8.4-1.2.4-.4 0-.8 0-1 .3 0 .1-.4.2-.9 0a3 3 0 0 0-1.7.4c-.9.4-.9.4-1.6-.2-1-1-1.5-.5-1.5 1.5 0 1.8-.1 1.9-2 2.3-.8.2-1.3.9-.9 1.3.4.3 2.2-.4 3.3-1.2 1.2-.9 1.8-1 2-.2.1.5.7.7 1.5.4.3-.2.3-.3.1-.8-.4-1 0-1.5.7-1.4h.8c.3-.4 1.5-.4 1.5 0v1c.1.5.2.6 2 .7 1.7 0 2 0 2.5-.6.3-.3.8-.6 1-.6.6 0 2.7 1 2.7 1.3 0 .5-1.1 1-2.4 1.3l-2 .4c-.4.2-.4.2.1.8.5.5.5.6.2 1-.6.4-1.6 0-3.4-1.2-1.8-1.1-1.9-1.1-4.6-.2-1.2.5-1.9.6-2.8.4-1-.1-1.4 0-1.9.3-.3.2-1.1.4-1.8.4-1.6 0-3.1.6-3.1 1.2 0 .2 0 .4.2.3l.9-.5c.6-.3.8-.3 1.2.1.6.6 1.2.6 2 0 1-.9 2.1-1 3.5-.4 1.2.6 1.3.6 1.6 0 .4-.5 1.9-1 2.1-.7.1.1 0 .5-.3.8-.7.7-.1.6.8-.2.4-.3.8-.6 1-.6l.7.9c.5.9 1.7 1.6 2.2 1.3l2 .1 5.2.6c2 .2 3.8.5 4.3.7 1.4.6 3.2.4 5.5-.5zm-25.8-7.6c-.3-.3-.3-.3 0-.6.7-.4 1.4-.3 1.3.2-.1.6-.7.7-1.3.4zm46.9-2.2c0-1 0-1.6.3-1.8.2-.1.5-.2.5 0 .3.4-.2 3.2-.6 3.2l-.2-1.4zm18.3-.6a6.7 6.7 0 0 0-1.9-1.4c-1.2-.5-1.9-1-1.9-1.6 0-.4.7-.4 1 0 .6.7 1.1.6 1.1-.3 0-1.2.7-1 1 .2 0 .6.4 1.2.8 1.5.6.5.8.6 1 .2.3-.4.4-.3.6.2.5.8.3 2-.3 2-.3.1-.8-.2-1.4-.8zm-21.5-.4c-.3-.7-.3-1 0-1.5.4-.8 1-1 1.3-.7v1.6c0 1.6-.7 1.9-1.3.6zM95 18c-.4-.7-.2-1.5.4-1.5.3 0 .4.3.4 1 0 1.1-.4 1.4-.8.5zm-58.6-.3a.6.6 0 0 1-.4-.5c0-.3.4-.4 1.1-.4.9 0 1 0 1 .5 0 .4-1 .7-1.7.4zM104 9.1a.4.4 0 0 1 .1-.5c.3-.3 1 .1.8.5-.3.4-.6.4-.9 0zm10.2 20.4c0-.1 0-.3-.2-.3s-.2.2-.2.3l.3.3.1-.3zm35.2-1.3v-1.5h-.9c-.6 0-1.4-.3-2.3-1l-1.7-1c-.4 0 .5 1 2 2a6 6 0 0 1 2.2 2.1l.6 1 .1-1.6zM41.1 29.3c.6 0 1.2-.2 1.2-.3 0-.3-5 0-5.6.3-.5.2 2.6.3 4.4 0zm98.4-.4-.4-1.4a6 6 0 0 0-1.1-2c-1-1.2-1.1-1.3-2.2-1.1-1 .1-3.2-.2-4.2-.6-.4-.1-.4 0-.4 1.3v1.4l1.3.6c1.4.6 6.6 2.4 7 2.4V29zm-3-2.5c0-.7.1-.8.3-.2v.5c-.2.1-.3 0-.3-.3zM21 28c1-.5 3.3-2.4 3.3-2.7 0-.3-1.4 0-3 .6-1.8.7-3.3.7-4.2 0-1-1-.6-1.5 1.2-1.8 1-.1 1-.2 1-1 0-.6 0-.8.4-1 1.4-.3 2-.3 2.4 0 .5.3.9.2 1.7-.4.4-.3.6-.2 1.4.1l1 .5.8-.7c.4-.4.7-1 .7-1.2 0-.6 0-.6-.8-.2-.4.3-.6.3-.8 0-.4-.4 0-.8 1.3-1.4 1.2-.5 1.3-.7.8-1.6-.6-1.2-3-.1-3.2 1.6-.3 1.4-.7 1.7-1.8 1.3L21 20c-1.2 0-1.2 0-2.1 1.4a7.8 7.8 0 0 1-3.9 3.4c-1.2.6-1.7 1-1.8 1.5-.1.4-.5.8-1.2 1l-1 .6h.9c1.3 0 6.6.5 7 .7.5.2 1 0 2.1-.5zm34.1.3c.1-.1.1-.3 0-.4 0-.1-1.2.2-1.2.5s1 .3 1.2 0zm56.3-.8c-.3-.2-.3-.2-.3 0 0 .6.3 1 .5.6 0-.2 0-.5-.2-.6zm-17-1.5c-.3-1-.4-1-1.4-1h-1.1l1.1 1 1.4 1v-1zm-68.4.5c.8-.4.9-.8.2-.8-.5 0-1.1.5-1.1.9 0 .2.1.2.9-.1zm10-.5.7-.6.7.6c.5.5 1 .6 1.7.2.3-.2.3-.3 0-1-.6-.9-.4-1.6.3-1.6 1 0 .7-.5-.6-1.2l-2-.8c-.4 0-1-.3-1.3-.4-.8-.4-1.3-.2-1.7.7-.5 1-1.7 1.6-2.6 1.2-1.2-.5-2-.2-2.4 1-.3.8-.3 1 .1 1.3.3.1 1.1.3 1.9.3 1 0 1.5-.1 2.4-.8 1.2-1 2.2-1 2.2-.3 0 .3-.3.8-.7 1-.3.2-.6.5-.5.7.3.4 1.3.2 1.8-.3zm94.4-1.6c-.2-1.3-.7-2.1-1.1-1.6-.2.4.2 2.4.6 2.8.5.6.7.2.5-1.2zm10 1.3c0-.1 0-.3-.2-.3s-.2.2-.2.3l.3.3.1-.3zm-128.6-1c.5-.3.2-1.2-.4-1-.6 0-.8 1.2-.3 1.2l.7-.2zm106-1c1.1.3 1-.4 0-.8-.7-.3-1.2-.7-1.3-.9-.2-.6-2.6-.9-3.7-.4l-.8.3 1.4.2c1.2.2 1.4.3 1.3.7-.1.4 0 .5.8.5s.9 0 .7.6c-.2.6-.2.6.5.2.4-.3.9-.4 1.2-.3zM42.2 23c-.9-.7-1.1-.3-.6.8.3.5.3.5.7 0 .3-.4.3-.5-.1-.8zm96.2-.1c-.3-.7-.9-1.2-1.6-1.6-.6-.3-1.2-.5-1.3-.4-.2.2 3 3.3 3.2 3.2.1-.1 0-.6-.3-1.2zm4.5 0c-.8-.7-1-.8-1.1-.4-.1.3.1.6.8 1 1.3.9 1.4.6.3-.5zm-127.5.4c.3-.1 1-.9 1.7-1.8 1.1-1.4 1.2-1.6.8-1.8-1-.4-1.3-.2-2 .6-.5.7-.5.8 0 1.1.6.5.2.9-1.2 1-1.3.2-1.9.5-1.6 1 .2.3 1 .2 2.3-.1zm120.6.2c0-.2-.8-1.1-1.7-2.2-1.4-1.4-2-1.8-2.6-1.8-.7 0-.7 0-.7 1.2s.1 1.4.7 1.8c.4.3 1.5.6 2.4.8 2 .4 2 .4 2 .2zm10-1.9c-.6-.8-1-1-1.4-1h-.6c0 .4 1.3 2.1 2 2.6.5.4.5.4.6 0 0-.3-.3-1-.7-1.6zm3.3.8c0-.5-.2-1-.6-1-.6-.4-.7 0-.2 1 .3 1 .8 1 .8 0zm-138.9-.7c.2-.4.6-.7 1-.8.3-.1.5-.3.4-.7-.1-.3 0-.5.3-.6.4-.2.4-.3-.2-.6a3 3 0 0 0-1-.3c-1 0-2 .8-2.5 2-.4 1-.4 1 0 1.3.8.6 1.7.4 2-.3zm35.2-.3c0-.4-.6-.4-.8.1 0 .2.1.3.3.3.3 0 .5-.2.5-.4zm59.7-1.1c0-.3 0-.3-.3.1a2 2 0 0 0-.4 1c0 .2 0 .2.4-.2.2-.3.3-.7.3-1zm4.5 1c.3-.1.2-.2-.1-.3-.6-.2-1.2 0-1.2.3s.8.3 1.3 0zm20.6-1c0-.9-.8-1-1-.1 0 .7.5 1.5.9 1.2.1-.2.2-.6.1-1zm10.6.8c-.7-1-.9-1-2-1.2-1-.2-1-.1.6 1 1.3.8 2 1 1.4.2zM6.4 20.4l.7-1.7c.6-1.2.6-1.3 0-2-.4-.4-.3-1 .4-2.7.1-.3-.1-.4-.8-.4-.7 0-1-.1-1-.5-.3-.8-1.1-.7-.9 0l.2 1.1c0 .2.3.5.7.6.6.2.7.2.5 1.6 0 .9-.4 2-.8 2.7l-.7 1.3.6.4c.8.7 1 .6 1.1-.4zm34.2.6c0-.1 0-.2-.2-.2l-.2.2v.3l.4-.3zm61.9-.3c.1-.3.2-1.3.1-2.2-.1-1.2-.2-1.4-.4-1 0 .4-.3.6-.5.6-.5 0-.7 1.4-.4 2.4.3 1 .8 1 1.2.2zm-88.4-1c.4-.4.4-.5 0-.6-.6-.2-1 0-1 .6 0 .7.4.7 1 0zm130.8-.4c0-.3-.2-1-.6-1.7l-1.1-2.7c-.4-1.3-.6-1.6-1.3-1.8-1-.3-1.5 0-1 .8.3.4.3.7 0 1-.6.7 1.4 4.7 2.5 4.9 1 .2 1.4 0 1.5-.5zm3-2.4c0-2-.3-3.3-.5-3.7-.3-.4-.3-.3-.3 1.4 0 1.6 0 2.4.6 4.8.3 1.4.5.4.3-2.5zm-9 1.6c-.2-.4-.3-.4-.3 0s.3.8.5.6c0 0 0-.4-.2-.6zM30 18c0-.7 0-.8-.4-.5l-.4.8c0 .3.2.5.4.5.3 0 .4-.2.4-.8zm107.5-.4c.3-1.9.1-2-1.7-1.8-1.8.2-2.9.5-2.9.9 0 .3 3.6 2.1 4.1 2.1.2 0 .4-.5.5-1.2zM4 18c0-.4-.1-.7-.3-.7-.2 0-.3 1 0 1.2.3.3.3.2.3-.5zm19.7-.3c.3-.6.8-1.2 1.1-1.5.7-.5 3-1.5 3.6-1.5.4 0 1-.2 1.3-.4l.6-.4h-.6c-.4 0-1.3-.3-2.1-.6-2.5-.8-2.4-.8-2.4-.2 0 .4.1.5.8.5.4 0 .8.2.8.3 0 .2-.6.3-1.6.2-1.8 0-2.1.1-3.4 2.1-1.3 2-1.2 2.2 1 2.4.1 0 .5-.4.9-1zm97.3.6c0-.6 1-.8 3-.5 2 .4 2.3.4 2.3.1 0-.3-2.2-.8-3.7-.8-1 0-1.3.1-1.9.8-.5.6-.5.8-.2.8s.5-.2.5-.4zm-101.5-.8c0-.3.6-1.2 1.2-2l1-1.5-.5-.1c-.5 0-3.2 3.2-3.2 3.9 0 .6 1.3.4 1.5-.3zm111.2.1-.3-.5c-.4-.3-.4-.3-.4.2 0 .3.1.6.4.6.2 0 .3-.1.3-.3zm9.6.2c0-.4-1.1-2.3-1.3-2.3-.3 0 0 1 .5 1.8.3.5.8.8.8.5zm-122.9-2c.7-.9 1.1-1.7 1-1.8 0-.2-.6-.2-1.2-.1-.8 0-1.1.2-1.3.7-.1.4-.4.6-.8.6-.6 0-1.8 1.2-1.8 1.8 0 .3 1 .6 2.2.5.6 0 1-.3 2-1.7zm33.4 1.6c0-.4-.7-.6-.9-.4v.4c.3.3 1 .2 1 0zm4.8 0c0-.2-.1-.3-.3-.3-.1 0-.2 0-.2.2s.1.3.2.3c.2 0 .3-.1.3-.3zm72.7-1.1c0-1-.1-1.1-2-2.2-1.8-.9-2.2-1-5-1.3-3.6-.3-3.9-.3-3.6 0 .3.6 9.4 4.5 10.4 4.5.2 0 .3-.3.2-1zm17.8-1.5c0-1.5.1-3.4.3-4.3.5-3 .5-2.7-1.2-3.4-2.2-.8-2.4-.8-2.2 0l.5 2.8c.4 3.4 1.7 7.4 2.3 7.4.2 0 .3-1 .3-2.5zm-135.1 2c.6-.3 1.2-1.5.9-1.7 0-.1-.5.3-1 1-.9 1-.9 1.1 0 .7zm121.7-1.2c.3-.2 1-.4 1.7-.5 2.5-.3 2.5-.3 2.3-1.3 0-.4-.2-.9-.4-1-.2 0-5.3.3-6 .5-.2 0-.3.4-.3.9 0 .6.1.9.8 1.3 1 .6 1.2.6 1.9.1zM10 14.4c0-.4-.4-.3-1 .3-.2.3-.3.6-.2.8.2.2.4.2.7-.3l.5-.8zm140-2c0-.8-.2-1.9-.3-2.3-.1-.7-.2-.8-.3-.3-.2.6-.3 4-.2 5.3v.8l.4-1c.2-.5.3-1.6.3-2.5zm-11.1 1.9c0-.4-.8-1.9-1.2-2.2-.5-.4-.6-.1-.2.8l.4 1c.1.5 1 .8 1 .4zM8.8 13c.3-.2.4-.5.4-.5 0-.1-.4 0-.8.4-.4.2-.5.5-.4.5l.8-.4zm8-1 2.7-.3c.7 0 1.3-.8 1-1.1 0-.1-.4 0-.6.2-.3.2-1.3.5-2.2.6-2.3.2-3.7.6-3.7 1 0 .1.2.2.4 0L17 12zm90.8 0c0-.4 0-.4-.8-.1-.4.1-.8.4-.8.5l.8.2c.6 0 .8-.1.8-.5zm3.5 0c0-.8-.5-.8-1.2 0l-.7.6h1c.7 0 .9-.1.9-.5zm-79.7-.4c.1-.2.2-.5.1-.6-.4-.4-3.6-.5-4.4-.2l-.8.4 1 .5c1.3.7 3.5.7 4-.1zm95.5.4a5 5 0 0 0-.7-1.3c-.6-1-.8-1-1.7-1-.8 0-1-.1-1.3-.7-.1-.4-.4-.7-.8-.7-.7 0-3-.8-3.4-1.2-.2-.2-.2-.4 0-.6.4-.2.9-.1 2.2.4 1.8.6 2.4 1 2.1 1.5-.2.4 1.7.2 2-.2.4-.4.5-.4-1.1-.8-.8-.3-1.5-1-1.1-1.3 0-.1.5 0 .8 0 .8.4 1.2.3.8-.1-.4-.4-5.2-.9-7.1-.8l-1.6.1-.1 1.3c0 .6-.2 1.2-.3 1.2-.4 0-.8-1-.8-1.7 0-.3-.2-.7-.4-.7-.4-.2-2.5 0-2.5.3l.9 1c.5.5 1 1 1 1.2 0 .2.4.6 1 .8.8.4 1 .4 1-.1 0-.3.3-.5.6-.5s.4-.1.4-.3v-.7c.2-.3.5-.2 1.6.7l1.5 1.5c.3.6 5.3 3 6.2 3 .5 0 .8-.1.8-.3zm2.3 0c.1-.1 0-.5-.3-.8-.6-.6-.3-.8 1.4-1.2 2-.5 2.3-.4 2.1.2 0 .4 0 .5.5.5.8 0 1 .3.6.7-.2.3-.1.4.6.4a4 4 0 0 1 1.4.1c.5.2.5.1.4-.8-.3-1.3-1.3-2.3-2.8-2.4-.9 0-1.3 0-1.5.3-.3.4-.5.4-2.3-.1l-2.4-.7c-.4-.2-.4 0 0 1.2l1 2.2c.4.7 1 1 1.3.4zm2.6 0c.4-.1.3-.2-.6-.2-.6 0-1 .1-1 .2 0 .4.9.4 1.6 0zM6.3 11.7c0-.7-.9-2.3-1.2-2.2-.4.1-.5 1.4-.1 2 .3.6 1.3.7 1.3.2zm5 0c.8-.5 1-.8.5-.6l-1 .3c-.5 0-.8.2-.8.4 0 .4.4.3 1.3-.2zm131-.6c-.1-1.4-.4-1.9-1.2-2l-1.5-.8c-3.8-2.6-4.5-2.8-7.6-2.9-2.9 0-3.2 0-2.7 1 .2.3.8.6 1.9.9 1.5.3 1.7.3 1.9-.1.3-.6.7-.6 2 .5.7.6 1.1.8 1.1.5l.2-.5c.4-.2 2.2.7 2.3 1.2.2.6 3.2 3 3.8 3.1l-.1-1zm-22.5.5c0-.1-.8-.5-1.9-.8-1.5-.5-1.9-.5-2-.2v.6c.4.4 3.9.7 3.9.4zM148 9.7l.3-1.3c-.3-.2-.7 1-.8 2.2a49.6 49.6 0 0 1 .6-1zm-32.8.7c.1-.3-.3-.5-1.1-.9-2.6-1-6.4-3-6.8-3.7-.4-.6-1.5-1-1.1-.3l.2 1.1c0 .9 0 1 2.1 2 1.2.5 2.3 1.2 2.5 1.4.2.3.7.5 1 .5l1.3.2c.8.4 1.9.2 2-.3zM10.8 9.7c1-.4 1-.5.5-1.1L10 7a12 12 0 0 1-1.2-1.6c-.4-.7-2-1.8-2.5-1.8-.2 0-.3.2-.2.6 0 .4.3.6 1 .8a4 4 0 0 1 1.4.6c.4.4.4.5 0 .8-.3.3-.3.4.4 1.1.5.5.8 1 .7 1.1-.1.2 0 1.6.2 1.6l1-.5zm14.5-.6c0-.1-.3-.2-.7-.2-.8 0-1.1.4-.5.6.4.1 1.2-.1 1.2-.4zm-12.2-.8c0-.4.2-.8.4-.9l.2-.4c0-.5-.5 0-1 .9-.4 1-.4 1.2 0 1.2.1 0 .3-.3.4-.8zm6.8-.6c2.2-.2 2.6-.4 2.8-.8l.9-1.2c1-.9 1-1.4-.1-1.2l-3.2.1c-2.3 0-2.4 0-3 .8a157.5 157.5 0 0 1-2 2.4l-.3.6 1.1-.2 3.8-.5zm122-.6c.3-.8.3-1 0-1-.3-.2-.6 0-.6 0-.2.5-.8.5-1 0 0-.3-.5-.4-1.2-.4-1 0-1 0-.8.3.3.4 3 2 3.2 2 .1 0 .3-.3.5-.9zm-44.4.5c.6-.2.6-.2.2-.6-.5-.4-.5-1 0-1s-.5-.6-1.1-.6c-.5 0-.6.2-.6.7 0 .4.1.7.3.7.5 0 .2.5-.5.7-.7.3-.7.3.2.3l1.5-.2zm-71.7-.4c.1-.5-.4-1-.7-.9-.5.3-.3 1.3.2 1.2.2 0 .4-.2.5-.3zm6.4-.1c.3-.3.6-.8.7-1.3.1-.7 0-.8-.5-1-1.2-.3-2.1-.2-3.3.7-.6.5-1 1-1 1.2.1.9 3.2 1.1 4 .4zm7 0C42 6.8 44.7 6 47 5c.3 0-.9-.2-2.5-.2-3-.1-3.8.1-5.3 1.3l-1.6.7c-1.2.4-1.8.9-1 .8l2.6-.3zm7 .2c.1-.3-1-.3-1.7 0-.4.2-.3.2.5.2.5 0 1 0 1.1-.2zM49.3 6c.5-.3.6-.5.2-.5-.5-.1-1.9.6-2.2 1-.2.4 1 .1 2-.5zM95 5.8c-.2-.5-.4-.6-.8-.5-.8.3-.8.3-.4.8.2.2.6.4 1 .4.5 0 .5 0 .2-.7zm15.5.2c.2-.6-.2-.8-1.1-.8-.7 0-.7.2-.1.8.6.6 1 .6 1.2 0zm36.6.2c.1-.2-1.7-.7-2-.4 0 .2 1 .6 1.5.7.2 0 .4-.1.5-.3zm1.7 0-.1-.2s-.2 0-.3.2l.1.3c.2 0 .3-.1.3-.3zM13.4 5c-.2-.5-1-.7-1-.3l.4.8c.3.5.5.5.7.3v-.8zm112.6.5-.4-.2c-.1 0-.2 0-.2.2s.1.3.4.3c.2 0 .3-.1.2-.3zm-88.2-.2c0-.2-.3-.3-.7-.3-.3 0-.6.1-.6.3l.6.2c.4 0 .7 0 .7-.2zm14-.5c.6-.5.6-.6.2-.7-.5-.2-1.3.2-1.3.8 0 .5.4.5 1.1-.1zM28.2 4h-.5.1c.3.1.5 0 .4 0z"/>
</svg>
