<?xml version="1.0" encoding="utf-8"?>
<svg xmlns="http://www.w3.org/2000/svg" xmlns:svg="http://www.w3.org/2000/svg" version="1.1" viewBox="0 0 154 129">
  <title>Mr. Tod and Tommy Brock tussle with each other outside the house.</title>
  <path d="M.7 128 0 128V92.7a3911 3911 0 0 1 1-92C1.2.3 2.4.3 15.8.3c8 0 14.5 0 14.5.2l-.7 1c-.7.7-.8.8-3.3.8l-3.5.1c-8.2-.2-18.1 0-18.8.2l-.7.3.2 2.9c.2 3.2.2 3 0 4.3-.2.7 0 1.1.2 1.4.3.3.3.6.1 1.3a24 24 0 0 0 0 4.7l-.1 4c-.2 0-.4-.4-.4-.8-.3-2.2-.6 12.2-.5 29.7 0 18 0 20 .4 20.3.5.3.5.7 0 .7-.2 0-.4 1.8-.5 9.9-.2 8-.2 31.2 0 41.7v2.3l2 .2h18c39.6-.3 40-.3 40.6-.7.6-.4 4.7-1.8 5.3-1.8 1 0-.3.8-2.3 1.4l-2 .6 1.3.2a2313.1 2313.1 0 0 0 63.6 0 178.2 178.2 0 0 0 17-.6c4 0 3.8.5 4-7.7a3918 3918 0 0 0 0-74.8c-.3-1.1-1.3-1-3.1.2-.8.6-2 1.2-2.4 1.4l-1.4 1.4c-.3.5-1 1.2-1.4 1.5-1.1.6-2.3 2-2.3 2.5 0 .3.2.7.4 1 .4.4.4.6-.2 2.5-.4 1.2-1.3 3-2 4-1.5 2.4-1.3 2.3-1.5 2l1.2-3c1.3-2.6 1.4-3 1.6-5.3l.1-2.4 1.8-1.7c1-1 1.8-1.8 1.8-2 0-.1.6-.6 1.3-1l1.3-.9h-1.9c-1.7 0-2 0-2.4.7a6 6 0 0 1-1 1.1c-.7.5-1.6 2-1.6 2.9 0 .7-.2 1.4-1.5 4l-.8 2a2 2 0 0 1-.9.6c-1 .5-2 2.6-2 4.3-.1.8-.3 1.7-.5 1.8-.2.2-.2.6-.1.8.1.4.2.4.2-.1.1-.4.3-.7.6-.8.4 0 1-1.4 1.7-3.3 0-.3.3-.5.4-.5.4 0 .4.7 0 1l-.2.7c0 .3-.5 1.5-1 2.7a29 29 0 0 0-3.4 10.4c.3.3 1.2-.9 1.5-1.7.1-.5.4-1 .6-1 .1 0 .9-.6 1.6-1.4 2.2-2.5 2.5-2.7 3.2-2.7.8 0 .7.3-.4.8-.4.1-.8.4-.8.5l-1.8 2c-2.1 2.3-4.2 5.4-3.6 5.4.4 0 .5.4 0 1.5-.3 1.1 0 1.8.4.8.1-.5.5-1 .7-1.1.3-.2.7-1.1 1-2 .6-2.2.8-2.6 2.3-4.3.9-1 1.9-1.8 3.1-2.5 1-.5 1.9-1 1.9-1.2 0 0 .1-.1.4 0 1 .4 0 1.4-1.9 2-1.9.7-2.1.8-3 2.4l-1 1.5c-.4.2-.9 1.3-.9 1.8l-.5 1.7c-.4 1-.5 1.4-.3 1.7.2.4.1.8-.4 1.5l-.5 1.2 1.5-.1 3-.5c1-.2 1.4-.3 1.4-.6 0-.6 1-.7 1.4-.1.5.6 2.5.8 3 .2.3-.2.7 0 1.6.5 1.7 1 1.6.8 1.3 1.2a26.3 26.3 0 0 0-12.6.4c-1.5.4-2.6 1.3-2.6 1.8 0 .6-.5.7-1 .4-.3-.3-.5-.2-1 .3a7 7 0 0 0-1.2 1.6l-.7 1-1.1 1.6c-.6 1-.9 1.6-.9 2.3 0 .6-.2 1.3-.5 1.9-.7 1.1-.5 1.2.6.4 1.5-1 1.5-.7 0 .7-.7.7-1.3 1.4-1.2 1.6.1.1-.2.8-.7 1.4-1.5 1.8-2 2.8-1.9 4.2.1 1.3.6 1.8.6.6 0-.4.1-1 .3-1.2.3-.6.3-.6.7.1l.3 1.2c0 .9.4.8.9-.1.4-.8.4-1 .2-1.4-.5-.6-.2-2.5.8-3.8l1.5-2.8c.4-1 .8-1.4.8-1 .1.4-1.2 3.3-2.2 5-.6.9-.6 1.2-.5 2.5l.2 1.5.3-.8c.2-.5.6-1 .8-1.2.2-.2.4-.6.4-.9 0-.3.7-1.5 1.5-2.7.7-1.2 1.6-2.8 1.8-3.4.3-.7.7-1.2.9-1.2.6 0-.1 1.8-2 4.4l-1.3 2.2c0 .4-.5 1.2-1 1.8-.7 1.2-.7 2 0 1.4.8-.7 3.5-5.1 4-6.7.3-.6.4-.7.7-.5.3.3-.4 2-2.1 4.6l-1 1.8c.1 0 1.5-1.2 3-2.7 1.6-1.6 2.8-2.6 2.8-2.4.2.4 1.1.4 1.7 0 .3-.1.3-.2-.2-.7-.7-.7-.9-3.2-.2-3.2l1-.3c.2-.2.5-.3.6-.2.3.3-.4 1-1 1-.7 0-.6 1.5.2 2.3.4.4.8.6 1 .6l.2.4c0 .2-.7.8-1.7 1.2a19.2 19.2 0 0 0-6.3 4.2c-1.5 1.4-1.8 2-1.8 2.6 0 .8 0 .8-1.5 1h-2a3 3 0 0 0-1.4 0c-.8 0-3-.2-3.6-.5-.2-.2.7-2 1.2-2.5.3-.2.4-.6.4-1a5 5 0 0 1 1.1-2.1c1.4-1.9 1.3-2.3-.4-2.3-.8 0-1.3-.2-1.5-.4-.1-.3-.4-.3-1.2-.1-1 .3-1.4 0-.9-1 .3-.6.8-.7.8-.1 0 .5.6.5 1.2 0 .7-.6 1-.5.7.1-.6 1 0 1 .8 0l.8-1-.1.8c-.2 1 .3 1 1 .1.8-.8 1.2-1.6 1-2.2 0-.2 0-.8.3-1.3.6-1.1.5-1.5-.2-1.3-1 .3-2 1.2-2.3 1.9-.3.6-1.9 1.9-1.9 1.4l.6-.7c.3-.2.5-.6.5-.8l.4-.9c.4-.4.4-.4-.6-.3-.8.1-1.2 0-1.6-.3-.4-.4-.4-.5.1-1.4.9-1.5 1.7-3.8 1.4-3.8l-.7 1.2a10 10 0 0 1-1.4 2c-.7.7-.8.8-1.4.5-.7-.3-1-.9-.4-1.2l.2-.7c0-.3.2-.4.4-.4l.2.7c-.2 1.2 1 .3 2.2-1.9.7-1.2 1.3-1.6 1.5-1 0 .3 0 1.1-.2 2-.7 2.8.2 3 1 .2.6-1.7.7-2.8.2-3.4-.3-.3-.2-.5.3-1 .3-.4.5-.7.4-.8 0-.1-1 .3-2.3 1-1.7.8-2.3 1-3 .8-.7-.1-1.1 0-1.7.4-.5.3-1 .6-1.3.5-.5 0 2-1.9 3.6-2.5 1-.3 1-.4-1-.2-2.4.1-2.9.3-3.2 1-.2.5-.5.7-1.3.8-1.3.3-1.5.5-.8 1.1 1.2 1 2.4 4.4 1.6 4.4-.2 0-.3.2-.3.5 0 .4.1.5.5.3.2-.1.4-.5.4-.7 0-.8.5-.5.9.5l.4 1.5c0 .3.2.4.4.3.3-.1.4 0 .2.8l.1 2.1.5 1.8c.2 1.1-1.2 3.6-3.4 6-.8.7-1 1.2-1 1.8 0 1-.3 1.3-2.2 1.8-.9.3-1.5.6-1.5.7 0 .1-.7.5-1.5.8-1.5.7-1.8 1-1 1.2.7.3.3.7-.5.5-.7 0-1 0-1.3.3-.2.3-.8.4-2 .4-1.4 0-1.5 0-.7.3 1 .3 1 .6 0 .6l-2.1.1c-.9 0-1.5.2-1.4.3.3.5-.6.7-4.1.7-2.7 0-3.8.2-4.4.5-.6.3-1.2.3-2.3.2-1 0-1.7 0-2.4.3-1.3.6-1.9.5-2-.4 0-.6-.1-.7-.5-.6-.2.1-.8.3-1.3.3-.6.1-.9 0-1.1-.4-.3-.5-.2-.7.1-1.1.5-.5.5-.6.1-.8a2 2 0 0 0-.8-.3c-.3 0-.9-.1-1.3-.4-.4-.2-1.1-.4-1.5-.3-.6 0-.7.2-.7.9l-.1 1c0 .5-2.2.5-3.1.1l-1.4-.8c-.3-.3-1.1-.6-1.8-.8-.7 0-1.4-.4-1.6-.6-.1-.2-.9-.5-1.7-.7-.7-.2-1.5-.6-1.6-.8-.2-.3-.6-.5-1.4-.5-.6 0-1.3-.1-1.6-.4-.3-.2-.8-.4-1.2-.4L58 101c-.6-.2-2.1-.5-3.5-.6-1.3-.2-2.7-.5-3.1-.7A44 44 0 0 0 44 98c-1.3-.2-2.9-.6-3.4-.8-1.6-.5-.4-.7 2-.3l2.3.2c.1-.2 0-.3-.4-.3-1 0-1 0-2.1-.4l-2-.5c-1-.1-1.1 0-1 .2.2.8-.3 1-1.7.9-1.7-.3-2.1-.5-1.7-1 .3-.4.7-.4 1.6-.3 1 .1 1.2 0 .9-.2-.2-.2-.8-.5-1.4-.6l-1-.5c0-.2-.2-.4-.5-.6-.4-.4-.2-.4 2-.3 3.1.2 4.3.5 4.5.9 0 .2-.3.3-.9.4-1.8.1-.6.7 2 .9 2.1.1 2.5.2 2.8.8.5.8 1 1 1.8.6s.9-.8.2-.8c-.3 0-.6-.1-.6-.3 0-.4 1.6-.3 1.8.2.1.4.5.4 2.3.3l3.8-.5c1.5-.3 1.8-.2 2 .1.1.3.6.5 1.3.5l1 .2c0 .4-4.4.3-5 0h-2.3a128.4 128.4 0 0 1-3.8.9s2 .2 4.3.1c3 0 4.3 0 4.4.3.1.4.8.4 1 0 .1-.4.6-.4 2.8-.3 1.5 0 2.8.2 3 .3v2c.2 0 .4 0 .4.3 0 .6.5.5.8-.3.1-.3.3-.6.5-.6.1 0 .3-.1.3-.3 0-.1-.2-.2-.4 0a1 1 0 0 1-.8-.2c-.4-.2-.4-.3 0-.8.5-.5.6-1 .6-2.4 0-1 .2-2.2.5-2.8l.4-1.8c0-.7 0-.8-.8-1-.5-.2-1-.5-1.3-.9-.5-.7-.4-2.5.2-2.8.6-.4 2.2-.3 2.6.1.2.2.6.5 1 .6.3 0 .6.4.7.6.3.7.6.7 1 0 .3-.7 1.3-1.5 1.7-1.5l2-1.9c1.8-1.7 2-1.9 3-1.8.6 0 1.4.1 1.7.3a26.4 26.4 0 0 1 8.2 2.7c.3.2.3 0 .2-.4-.3-.9.2-.6 1 .5.5.5 1 1.2 1.4 1.4.3.3.8 1 1 1.7.3.7.7 1.1 1 1 .2 0 .3.3.4 1 .1 1.3.8 1.9 2.4 2 1.4.1 1.8 0 3.8-1.6.7-.6.9-.9.8-1.5a3 3 0 0 0-.1-1l-2-.7c-3.1-1.2-5.1-3.8-3.5-4.6 1.2-.7 2.1-.3 3.1 1.3.7 1.2 1.5 1.4 4.5 1.7 2 .1 2.4.3 3 .8l.7.7 1.9-1 2-1c0-.2-.5-.5-1-.8-4-2.3-5-3-5.2-3.5-.1-.3-.7-.8-1.2-1.1-.5-.3-1-.7-1-.9l-.7-1.4c-.8-1.2-1-2.2-1.2-4.3 0-.9-.2-1.5-.4-1.7-.3-.2-.3-.3.3-.7.4-.3.7-.9.8-1.3.1-.3.4-.6.6-.6.4 0 1 .8 1 1.5 0 .3-.2.3-.5 0-.3-.2-.4-.2-.4.2 0 .2.1.4.3.5.1.1.2.3 0 .5-.3.6-.1 1.7.5 2.3.4.5.5.8.4 1.5-.1.7 0 1 .6 1.4.5.4 1 .5 1.4.4.5 0 .9 0 1.2.3.5.6.1.8-.6.4-.4-.2-.6-.2-.8 0-.4.4.3 1.3 1 1.3.3 0 .7.2 1 .5.7.5.7.5.2 1-.6.4-.3.9.3.4.7-.3 2 0 2.1.5.3 1 .7 1.6 1.2 1.6.6 0 1.5.8 1 1-.5.2-.3.6.3.6.4 0 1.2.3 1.8.8 1.3.8 1.8 1 1.5.3l-.1-.5-.4-.1c-.2 0-.4-.3-.5-.6-.3-.8-.2-1 .2-1.3.5-.5.2-2.3-.3-2.3-.3 0-.4.3-.4 1 0 1.3-.3 1.2-.6-.1 0-.5 0-1 .2-1.2.2-.2.1-.6-.4-1.5-.3-.6-.8-1.2-1-1.2l-1.2-.7a5 5 0 0 0-1-.8c-.3 0-.2.8.2 1.9.2.7.2 1 0 .9l-.4-.7c0-.4-.1-.8-.3-1l-.5-1.2c-.4-1.2-1-1.7-.7-.6v.7c-.3 0-1.2-1.2-1.4-1.8-.3-1.2-.8-1-.7 0v.3c-.2-.4-.4-.8-.6-.8-.2 0-.5-.3-.7-.7-.1-.3-.4-.6-.6-.6-.2 0-.4-.6-.6-1.4a11 11 0 0 0-.6-2c-.1-.3-.1-.6 0-.8.3-.3 1.2 1 1.4 2 .1.4.3.6.8.7.3 0 .7.3.8.6.1.4.6 1 1.1 1.3 3.8 3.2 4.5 3.7 4.7 3.6.1-.1.5.1.7.5.5.8.9.8 1.7 0 1-.8 2.7-1.5 4.1-1.5 1.3 0 4.6-.4 5.5-.7.6-.1.3-.6-.3-.5-.3 0-.5 0-.5-.2 0-.3.3-.4 3-.8.8-.2 1.2-.4 1.6-1l.6-1-1.2.2c-.8 0-1.2 0-1.2-.2 0-.1-.2-.3-.5-.3s-.5.2-.5.4l.2.4c.2 0 .3.1.3.3l-1 .3c-1 0-1.2 0-1.3-.3 0-.3-.3-.4-.6-.3-.6 0-.7-.4-.3-.6.2-.1.2-.3.2-.5-.3-.4-1.1-.2-1.6.3-.6.7-2.8.8-2.8.2 0-.5 2.2-1.3 3.5-1.3.3 0 .6-.2.7-.4l1.2-.8c1.4-.6 1.1-1-.6-.9l-3.3.2a35 35 0 0 0-7.3 1.3c-1.6.4-3.2.5-3.2.2 0-.1.5-.3 1.1-.4.6 0 1.6-.5 2.3-1 1.3-.9 1.7-1 1.4-.3-.1.3 0 .4 1 .3.6-.1 1.3-.4 1.6-.6a8 8 0 0 1 1.3-1c1-.5 1.6-1.6 1-1.6-.2 0-.8.4-1.4 1-1.7 1.4-1.9 1.5-2 1.2-.1-.1.5-.8 1.3-1.4l1.4-1.3h-2c-1.3 0-1.8 0-1.6-.2.2-.2 1.2-.3 2.4-.4 1.3 0 2.1-.2 2.2-.4.2-.2.4-.3.6-.2.4.3 1-1.4 1-2.9v-1.2l-1.3.5c-1.6.7-2.9 1-2.9.6 0-.1.3-.4.7-.4 1.5-.4 4.3-2 4-2.4-.3-.3-4.1.4-6.4 1.3-.7.3-1.2.3-1.5.1-.5-.2-1.9-.1-3.7.3-.6.2-1 .4-1 .7.1.4-.4.6-1.7 1-1.9.4-2.9.2-1.8-.3.3-.2.6-.5.6-.7 0-.2.5-.5 1-.6 2-.5 5.5-1.1 6.3-1.1.9 0 1.2-.3 1.5-.9 0-.3.6-.5 1.7-.6.9-.2 1.2-.3.8-.3a2 2 0 0 1-1-.7c-.4-.5-.6-.5-1-.2-.2.2-.6.3-1 .1l-3-.2c-1.3 0-2.7-.1-3.2-.3-.8-.1-.8-.1-.8.3 0 .3.4.6.7.6 1.1.2.5.7-.8.7-1 0-1.3.2-1.8.7-.9 1-2 1.6-2.3 1.4-.2 0-.5 0-.8.2-.6.3-1.1.1-.7-.3a6 6 0 0 1 1.5-.5c1-.3 1.3-.5 1.3-.9 0-.6-.4-.6-.6 0-.2.4-.8.5-1.2 0-.4-.5 0-1 1-1 .9 0 2.4-.7 2.4-1 0-.2-.4-.3-.8-.3s-1-.2-1.2-.4c-.5-.4-.5-.4 0-.6.4 0 .6-.2.6-.3 0-.3-1.1-.6-1.2-.3 0 .2-1.3.3-2.7.3-3 0-4.4.3-5.8 1.2-1.2.8-1.4 1.2-.4 1 .5-.2.6 0 .6.5 0 .6.1.7.8.7.4 0 1 0 1.4-.2 1.4-.5 2-.6 2-.2 0 .2-.3.4-.8.5-1.6.4-1.7.4-1.6 1 0 .4-.1.4-2.4.3l-2.8-.2c-.7-.3 0-.7 1.2-.7 1.3 0 1.4-.2.5-.8-.6-.5-.7-.5-1.4-.1-2.8 1.5-11 4-13 4a13 13 0 0 0-4.1 1l-3 .5-4.8.5-10 .6a298.9 298.9 0 0 0-15.4 1.2H37l1.2-.2c1.1-.2 1.1-.2 1.2-1.3 0-1.6.3-1.7.5-.4.2 1 .7 1.5 1 .9.2-.2.4-.2.8 0 .3.1.9.2 1.3.1a249.6 249.6 0 0 1 17.4-1.5l4-.2c2 0 2.3 0 3-.5.8-.6 1.3-.7 2.8-.8 2 0 3.8-.4 4.2-1l.4-2V57l.1 1.8v1.8l.8-.1c.9-.3.8-.2 1-1.1.2-1 .4-1.2.4-.3 0 .9.8 1 1.6.2.6-.7.6-1.3 0-1.6-.7-.4-.7-.8-.2-.8.5 0 .5 0 0-2-.5-1.8-.7-2-1.9-2h-.9v1.6c0 1 0 1.6-.4 1.9-.5.4-.8 0-.4-.4.2-.1.3-.7.3-1.3 0-1 0-1-.9-1l-1.8.8-1 .6v2.6c.2 2 .2 2.2 0 1.3-.2-.7-.3-2-.4-3.2-.2-2.6-.2-2.7-1-2.3l-1.2.9c-.6.5-1 .6-2.3.6-.9 0-1.7-.2-2-.4-.5-.3-2.7-.1-3 .3-.2.2-.3 1.1-.2 2.1 0 1 0 1.7-.2 1.7-.4 0-.5-1-.5-2.3V53c0-2 0-2-.7-2h-.7v4.2c0 2.6 0 4.2-.2 4.2s-.3-2.1-.3-6c0-4.3.1-5.7.3-5 .2.8.4 1.2.9 1.4l.7.3v-1.9l-.2-1c-.2 1.1-.6 1-.8 0-.1-.9 0-1.1.5-1.7.4-.3.7-.8.7-1 0-.2.1-.4.3-.4.1 0 .3.1.3.3l.3.9c.4.4.5.5.7.1.2-.2.3-.8.3-1.2 0-1 .4-1.2 1.4-.5 1 .6.9 1.2-.1 1-.8-.1-1.1.2-.5.6.2.1.2.3 0 .5-.4.4-.1.7.8.7.5 0 .7-.2 1-1.2.3-1.3.2-1.5-1.4-2.5-1.2-.7-1-1.2.2-.8 2 .6 1.3-.4-1-1.8-1.3-.6-1.5-1.1-.6-1.1.5 0 .8.1 1 .6.2.6 2 1.7 2.2 1.4.1 0-.3-.7-.9-1.3-1-1-1.3-1.9-.8-2.2.2-.1 4.7.5 5 .7.4.5-.4.7-1.3.5-1.3-.4-1.9-.3-1.7.1.1.3 0 .4-.3.4s-.4-.1-.2-.5c0-.4 0-.5-.4-.5-.9 0-.7.7.4 1.4 1.2.8 1.4.8 1.4.3 0-.6.8-.5 1 0 0 .4.8.9 1.7 1.3 1.6.7 3.7 1.2 3.7.8l-1-2-1.1-2.7c-.2-.4-.5-.7-.7-.7-.2 0-.5-.3-.6-.6-.1-.4-.3-.5-1.1-.4-2.6.4-4 .5-4.3.2a7 7 0 0 0-2.2-.4c-1.8-.1-5.7-1.2-7-1.8-.7-.4-1.3-1.1-1-1.4l.5.1c.3.3.5.3 1 0 .6-.4 1-.1.6.4-.6.5-.4.8.4.6.5 0 1 0 1.3.3.4.2.8.3 1.2.2.3-.1.7 0 1 .3.4.3 1 .4 2.4.4 1.2 0 2.2.2 2.5.4.3.2 1.2.4 2.3.4 1.5 0 1.9-.1 2.3-.6.6-.8 2.5-1.6 3.7-1.6 1.3 0 1.4-.3.2-.8-1.1-.5-1.3-1.4-.4-1.8.4-.3.6-.2 1 .2.5.8 2.8.6 4.9-.5 1.2-.6 2-.7 3-.7s1.4.1 1.4.4c0 .2-.2.3-.4.3-.4 0-.4.2-.3.8.2.7.1.8-.4.8s-.5 0-.4-.9l.2-.9-1.2.4c-1.9.6-4.1 1.7-4.3 2-.3.7 0 .8 1 .4.6-.3 1.3-.5 1.7-.5.3 0 .8-.1 1-.4 1-.5 1 0 .3.7-.6.5-.7.5-.3.7.4.1.7 0 1-.4.4-.6.4-.6.7-.2.2.4.3.4.4.2.3-.4 1.1-.4 1.5.1.2.2.4.4.6.4.4 0 .2-1.3-.2-1.4l-.4-.4c0-.2.2-.3.4-.3.3 0 .4-.3.4-1.2 0-1-.1-1.3-.9-2-.7-.6-1-.8-2-.8l-1.9-.2c-1-.6-8.6.6-8.9 1.4 0 .2.2.7.6 1.1.8 1 .8 1.4 0 1.4-.3 0-.7.1-.8.3-.3.4-.5.3-1.6-1.2-.9-1.2-1.1-1.5-1.9-1.5-.4 0-.9-.1-1-.3 0-.2-.6-.4-1.6-.5-.8 0-1.6-.3-1.7-.4-.3-.3 0-.3 1.2-.2 1.5.1 2-.2.8-.5-.4-.1-.7-.4-.7-.6 0-.2.3-.3 1-.2.7.1 1 0 .8-.1-.5-.8-1.6-1-3.9-.4-2.4.5-4.7.3-5-.4 0-.2-.3-.3-1.1-.2-.7.2-1.2 0-1.7-.2-.3-.3-1.3-.5-2.2-.6-3.1-.3-5-1-5-2 0-.2-.2-.5-.4-.6-.2 0-.2-.2-.1-.4.4-.6 1-.3 1.3.6.5 1.2.7 1.3 1.9.9 1-.3 1.2-.7.5-.9-1.1-.3-2.7-1.2-2.7-1.4 0-.4 0-.4 1.6.4 1.3.6 3.7.9 3.7.4 0-.2-1.6-1.2-2.3-1.4-.9-.2-.1-2 .8-2 .5 0 .5.2 0 .7-.4.5-.4.5.2 1 .4.5.8.6 1.4.5.6 0 1 0 1.5.7.8.9 1.9 1.2 2.4.6.6-.5.6-.7-.2-.6-.3 0-.8-.1-1-.4a6 6 0 0 0-1.3-.9c-.8-.4-1-.9-.4-.9.1 0 .6-.2.9-.6.9-.8 2.8-.7 3.8.3.4.4.7.8.6 1 0 0-.4 0-.7-.4-.7-.6-1.2-.7-1.2-.3 0 .1 0 .3.2.4.2.1.2.3.1.5 0 .1-.5-.2-.9-.6-.7-1-1.4-1-1.7-.1-.3.5 0 .8.5.4.3-.3.6-.2 1.3.3.6.5 1.1.7 1.5.6h.9c.6.2.6 1.4 0 1.4-.4 0-.4 0 0 .6.5.8 1.6 1 3.2.9 1.2-.2 1.3-.2.8-.6-.3-.2-.9-.3-1.3-.3-.6 0-1-.2-1.3-.7-.7-1-.5-1.3.5-.7 1 .6 1.1.4.6-.5-.3-.7 0-1.3.7-1.3s1.2.7 1.2 1.5c0 .7 1.1 2.2 2.1 2.8.9.5 2.5.6 2.8.2.2-.3-1.2-1-1.9-1-.2 0-.3-.2-.2-.3 0-.2 1-.3 2.2-.3 1.7 0 2.1 0 2.1-.4 0-.3-.1-.3-.8-.2-1.4.3-4 .2-4.1-.1-.1-.3.3-.4 1.4-.4 1.8 0 1.8-.2-.2-1.7-1.5-1.2-2-1.4-2.2-.8-.3.6-.6.5-.7 0l-.3-1c-.2-.3 0-.3 1.4-.3l1.8.2c0 .1 0 .2-.3.2-.8 0-.5.7.4 1l1.7 1.3c.8 1 1.5 1 1.2 0-.1-.5.3-1 1-1l.7.8c.3.6.6.8 1.2.8.9 0 1 .4.2.7-.6.2-.7.6-.1.6.5 0 2.2-.7 2.4-1 .2-.4 1.2-.4 1.2 0 0 .1-.3.3-.7.4-.5.1-.7.3-.7 1v.8l-2.4-.2c-2.7-.2-3.5 0-2.8.7.2.3.7.5 1.2.5 1 .2 1.4.4 1.7 1.2.2.5.4.6 1.4.6.7 0 1.2-.1 1.2-.3 0-.4 1.6-.3 2 .2.2.2.7.4 1 .4.4 0 1 0 1.2.2.5.3 4 0 4.8-.5.6-.3.5-1 0-.9-.6 0-.7-.2-.1-.7.7-.6.4-1-.6-1-1.2 0-1.1-.5.1-.8l1-.3V20c0-1.6 0-1.7-.8-2-.7-.5-.7-1 .1-.8.3.1.5 0 .6-.3.3-1 0-1.3-1.1-1.2-.8 0-1 0-1-.4 0-.2-.3-.4-.6-.4s-.5-.2-.5-.4c0-.3.2-.4.9-.2.4 0 1 .3 1 .5.2.2.6.3.9.3.4 0 .5-.4.6-1.4 0-.8 0-1.3-.3-1.5-.4-.2-.4-1.2 0-1.7 0-.3 0-.5-.3-.7-.3-.2-.4-.5-.4-.6.3-.4-.4-1.3-1.9-2.7-1.2-1-1.6-1.3-2.7-1.4-.7 0-1.4-.3-1.4-.4-.2-.5 1.7-.5 2.9 0s1.6.5 1.4 0l.1-.5c.4-.3 1.7.6 2.6 1.9.6.8 1 1.1 1.1 1a7 7 0 0 0 .3-2.4v-2l-.8-.3c-.6-.1-1.2 0-2 .2-1 .4-2.1.5-4.2.5-1.8 0-3.1 0-3.7.3l-1.3.5c-.4.1-.5.2-.2.6.2.2.5.3.9.1 1-.4 2-.5 2-.3 0 .3-2.4 1.4-4.8 2.1l-2 .8c-.3.7 1.2 1 5 1 3.1 0 4 0 4.4.4.4.3.9.5 1.2.5.2 0 .4.1.4.3l-.8.2c-1.3 0-1.4 0-1 .3l.2.6c0 .2-1.4.2-2.6 0-1-.2-1-.7 0-.5 1.2.1 1.9-.2 1.4-.7-.3-.2-1.3-.3-4.2-.2-3.5 0-3.8 0-3.9-.5-.3-1-3.8-.8-5.1.4-.7.6-.7.6-.1.8l1.7.1c1 0 1.2.1 1.3.6.2.4.4.5 1.6.3 1-.1 1.5 0 1.6.1 0 .2.5.3.8.3.7 0 1 .4.7.7-.2 0-.2.3-.2.4.3.4-.6.3-3.8-.6-4.2-1-4.6-1.1-5.7-.8-.5.2-2 .3-3.3.3-1.9 0-2.7-.1-4-.7-1-.4-2-1-2.3-1.3-.7-.8-1-.7-4.4.5-2.2.7-3.6 1-4 .5-.2-.2-.6-.2-1.2 0-1.2.3-5.3.3-5.3 0 0-.2.8-.3 1.7-.3 1 0 1.8-.1 1.9-.3l.7-.2c1.5 0 1.2-.5-.7-1.3-2.2-.8-2.8-1.4-2.3-2.4.3-.5.6-.6 1.6-.6 1.1 0 1.2 0 .7.4-.6.5-.3.9.5.9.9 0 1.2.3.7.6-.4.2 1.9 2.3 2.8 2.5.7.2 3.3-.5 4-1.1.7-.5.2-.7-2-.7-1.8 0-2.2-.1-2.2-.5 0-.5-1-1-1.5-1-.3 0-.5 0-.5-.3-.2-.7 1-.6 2.4.2 1.5.8 1.7.8 1.6 0-.2-.5-.2-.5.6 0 1.3.6 1.9.5 1.7-.3 0-.4 0-.7.5-1 .5-.2.6-.2.6.7 0 .4.3.6 1 .6 1 .1 1 .7 0 .8-.8.2-.7.5.3.7 1.3.3 2.3.2 2.4-.2.1-.2.2-.2.7 0 .2.2 1 .4 1.7.5.7.1 1.2.3 1.2.4 0 .2-.1.3-.3.3-.6 0 .1.3 1.1.5.9.1 1.2.1 1.3-.2.2-.5.5-.4.7.2.2.8 1.8.7 2.2-.2.4-.9.4-.9-.6-.9-.5 0-1 0-1-.2s.5-.3 1-.3c.4 0 1.2 0 1.8-.2.8 0 1-.2.7-.5-.2-.2-.7-.4-1.3-.5-.8-.1-1.1-.3-1.4-1-.4-.8 0-1 .5-.4.3.3.4.3.7 0 .3-.3.2-.4-.3-.8-1-.7-.4-.9.8-.3a15 15 0 0 0 5 1.6c.8 0 1-.2.5-.8-.5-.4.6-.4 1.8 0 .7.3 1 .3 1.3 0 .3-.3.3-.4 0-.6-.4-.2 0-.6 1.2-1 1.3-.4 1.3-.9 0-.7l-4.9.3-4.1.2c-.2.2-.5 0-.8-.2-.4-.3-.9-.4-2.5-.3-3.8.3-3.8.3-3.7 1 0 .6 0 .6-1.2 0-1-.7-3.5-1-3.5-.6s2.2 1.7 2.5 1.5c.4-.1 1.1.8.9 1.1-.1 0-1-.2-1.9-.7l-2-.8c-.2 0-.3-.2-.3-.4s-.2-.4-.4-.4c-.5 0-.5.5.2 1.2.3.4.5.7.4.9-.1 0-.8-.4-1.4-1.2l-1.2-1.3-.6.8c-.4.4-.7.8-.7 1h-.6c-.4 0-.5-.3-.4-.9.1-.9-.2-1-3.4-1L39 2.2 34.3 2l.5-1 .4-.8h12.3L69.4 0C86-.1 152 0 152.4.1c0 .1.2 1 .2 2.1v10.4c.3 13.9.6 60.4.5 82.6 0 22-.3 31.7-.8 32a175.6 175.6 0 0 0-11.8.2c-14.2.5-138.5 1-139.8.7zM88 107c.5-.1 1.4-.7 2-1.2.7-.8 1-1 1-.6 0 .9 1.3.5 1.8-.5.3-.7.5-.9 1.3-.9.6 0 .9-.1 1-.5.1-.6.4-.7 1.3-.2 1 .5 2.2.8 2.2.5 0-.1-.7-.5-1.5-.8-.8-.4-1.5-.7-1.6-.9-.2-.4 1.2 0 2.3.7.6.4.8.4.8.2-.2-.5-.5-.7-2-1.2-.5-.3-.9-.6-.8-.7.3-.5 3.6 1.3 3.6 2v.4l1.1.4 1 .4 1-1.1c1.1-1 1.2-1 .7-1.6l-1.2-1c-.6-.3-.7-.5-.6-1l-.1-.7c-.2-.1-.3-.4-.3-.6 0-.3.3 0 .8.6.4.5.8 1 .8 1.2 0 .3 1 .8 1.3.7.2 0-.1-1-.7-2-.5-1-.9-2-.8-2.2 0-.2.5.6 1 1.7 1.4 2.9 1.4 3 2 3 .4.1.4 0 .3-.9l-.2-1 .6 1c.6 1 .6 1 1.7.9l1.4-.4.6-.4c.4-.2.4-.2-.3-2.7l-.7-3.5c-.3-2-.5-2.4-.7-1.3-.2.8.4 4.4.8 5.6.4 1 .2 1.2-.3.2s-1-3.5-1.1-5.5l-.1-1.6-1 .2c-.4.2-1.5 1-2.3 1.8-1.5 1.6-2.4 2-3 1.3-.2-.2-.7-.2-1.3 0-1 .2-1 .3-1.2 1.2-.2.9-.1 1.1.4 1.5 1.3 1 .3 1.2-1.6.3-1-.5-1.5-.1-1 .8.8 1.6.3 2-1 .7-1-.9-1-1-.2-1 .4 0 .5-.2.4-.6-.1-.3 0-.5.2-.7a.6.6 0 0 0-.4-1c-.3 0-.5 0-.6-.2-.2-.5-.7.1-.7.9 0 .9-.6 1-1.4.3-.4-.4-.5-.4-.6 0-.3.7 0 1.3.8 1.3 1 0 .9.7-.2.8-1.2.1-1.3.9-.2 1.2.8.3 1.3 1 1 1.3-.1.1-.5 0-.7-.1-.7-.4-1.5-.4-1.8 0-.2.3-1.4 0-1.8-.5-.2-.3-.3-.2-.6.6-1.1 3.2-1.1 3.3-2 3.3-.5 0-.9-.3-1.5-1.1a6 6 0 0 1-.8-1.3l-.7-1.3c-.6-.9-1.2-1.3-2.7-2-2.4-1.2-3.2-1.2-1.9.1 1.7 1.7 2.5 2.9 2.5 4 0 1 0 1.2.7 1.2.4 0 .8 0 1 .2l.6.2c.3 0 .5.2.6.5.1.3.4.5.5.5.2 0 .7.3 1 .7.7.7.8.8 2.1.4zm1.9-3.4c-.3-.5-.1-1.6.2-1.6.4 0 .9 1.2.7 1.7-.2.5-.6.5-1-.1zm1.7 0c-.2-.4 0-.8.4-.8.3 0 .3.7 0 .9l-.4-.1zm-9.4-2c0-.2.2-.4.4-.4s.4.1.3.3c-.1.5-.7.6-.7 0zm18.4-1c-.8-.8-.2-1 .6-.1.5.5.6.7.3.7s-.7-.3-1-.6zm-6.3-.4c-.3-.2 0-.6.5-.6.2 0 .4.2.4.4 0 .4-.6.5-1 .2zm13-.3a61 61 0 0 1-1.3-4.7l.3-.1c.1 0 .2.3.2.8 0 .4.3 1.5.7 2.5l.4 1.7c-.1 0-.3 0-.4-.2zm-2.4-2-.3-1.2V96c.2 0 .4.5.5 1 .2 1 0 1.5-.2.7zm-8.1 8.1c.2-.3.6-.3 1.3-.2 1.1.2 2 0 1.5-.4-.6-.4-4.7 0-4.7.5 0 .2.3.3.6.4l.7.1c.1 0 .4-.1.6-.4zm-13.9-.5h-.5c-.2 0-.1.1.2.1h.3zm-9.6-.8c-.2-1-.7-1.5-1.3-1.3-.5.2-.5.2 0 .4.9.3.8.8 0 .9h-.8l.7.4 1.1.3c.4 0 .5-.1.3-.7zm6.5-2.3-.5-1.1c-.3-.2-2.1.4-2.1.6 0 .4.6.9 1 .9.3 0 .7.2 1 .5.6.8 1 .3.6-1zm-4.6-.7c-.1-.1-.6-.3-1-.2-.8 0-.8 0-.2.2 1 .3 1.4.3 1.2 0zm-2.4-.7a2 2 0 0 1 1-.4c.2 0 .5-.2.5-.5.1-.3.4-.5.9-.5l.6.2c0 .2.3.2.7 0h1c.8.2.5-.7-.4-1.4-.5-.4-1-.6-1.2-.5l-2.2.3c-1.5.1-1.7.1-1.4-.3.3-.3.3-.5-.3-1.4a4 4 0 0 1-.7-1.8c0-1.3.8-2.8 1.5-3 .3-.2.7-.4.7-.6.1-.2.2-.3.3-.2.1 0 0 .7-.3 1.3-.5.9-.6 1.4-.4 2.3.2 1.3.8 2.9 1 2.6.2 0 0-.5-.1-.8-.2-.4-.3-.8-.2-.9.2-.2 1 .5 1 .9 0 .5 1 1 1.3.7.4-.3-.7-1.7-1.2-1.5-.3.1-.4-.2-.4-1.8 0-2.1.2-2.4 2.3-5l.8-.8 1 .5c1.2.6 2.5 2 2.5 2.6 0 .2.3.4.8.4.4 0 1 .2 1.4.4.8.4 2.9.5 2.5.2l-.7-.2c-.8 0-.6-.5.1-.6.8-.1 1-.6.2-.6-.7 0-.7-.4 0-.6.3-.1.5-.3.4-.5-.3-.4 1.3-.3 1.7.2.3.3.3.4 0 .6-.3.2-.3.3 0 .6.2.3.4.2 1-.1 1.6-1 .1-2.9-2.4-2.9a7 7 0 0 1-1.6-.1c-.3-.1-.4 0-.3.3.1.5 0 .5-1.8.3-2.5-.4-3-.8-.8-.7 1.5.2 1.7.1 2-.5.4-.5.4-.6.1-.7l-4-.7-1-.8c-.5-.5-1-.8-1.7-.8-1.5 0-2.5.7-4.5 2.7L70 89.5c-1 1-1.7 2.3-1.7 3.1 0 .4-.2.5-.4.4-.6-.2-1.1.8-1.3 2.7-.2 1.6.1 3 .8 3.8.2.3.3.6.2.7-.2.4 1.2 1 1.7.7.6-.2 1-.9.6-1.3-.5-.4-.3-.5.9-.4 1.2 0 1.4.4.8 1.2l-.4.7c0 .4 1.2.2 1.7-.2zm-.1-1.7.6-.2c.4 0 .7 0 .8.2.1.2-.2.3-.6.3-.5 0-.8-.1-.8-.3zM69 97.6v-.7c.2 0 .3-.3.2-.6l.1-.5c.3 0 .6 1.2.6 2 0 .6-.7.4-1-.2zm1.1-1.2a5 5 0 0 1-.2-1.7c0-1.2.2-1.9 1-3.4.8-1.6 1.5-2.4 1.9-2l-.7 1.2a7.8 7.8 0 0 0-1.6 5c.1 1 0 1.3-.4.9zm-2-1c-.1-.6 0-1.3 0-1.6 0-.7 1-2.3 1.3-2.1.2 0 0 .6-.3 1.1-.4.7-.6 1.3-.6 2.2 0 1.5-.4 1.8-.5.3zm22.2 5.3.5-1.4.6-1.3c0-.2-.3-.5-.6-.6-.4-.3-.5-.2-.5.2l-.4 1.2c-.4.8-.3 2.3.2 2.3l.2-.4zM85 98.3c0-1-.2-2.1-.4-2.4-.2-.4-.3-.3-.4.7-.3 1.3-.2 2.4.1 3.3.5 1.2.8.4.7-1.6zm-21.8.8c.3-.7.2-.7-.2-.3-.4.4-.5.7-.2.7.2 0 .4-.2.4-.4zm25.3.1.4-.3c.2 0 .5-.4.7-.9.4-.7.4-.9.1-1.4-.2-.3-.3-.8-.2-1 .1-.5 0-.6-.4-.6-.5 0-.6.1-.6 1.6 0 .8 0 1.6-.2 1.7-.2 0-.3.4-.3.7 0 .3.1.5.3.5.1 0 .2-.1.2-.3zM57 98.6c-.3-.3-1.6-.4-1.4-.2 0 .2.5.3.9.3.3 0 .6 0 .5-.1zm23-1.3c0-.2-.1-.5-.4-.8-.3-.3-.5-.4-.9-.2-.6.3-.4.7.4 1 .8.4 1 .4 1 0zm1.4-.2c0-.1-.1-.3-.3-.3l-.2.3c0 .1 0 .3.2.3s.3-.2.3-.3zm-8.2-.7a9 9 0 0 0-.5-1.3c-.5-1-.5-1-.5-.3 0 .8.4 1.8.7 1.8.2 0 .3-.1.3-.2zm4.8-.2c0-.2.3-.4.6-.5.7-.2.9-1 .5-2.2-.2-.9-1.5-.9-2 0-.7.9-.6 1.3.3 1.1 1.1-.3 1.1-.3 1.3 0 0 .3-.1.4-.6.4-.6 0-1.1.8-.8 1.3.2.4.7.3.7-.1zm20-.3c0-.7-.6-1.2-1-.7-.2.2-.2.4.2.8.6.7.9.7.9-.1zm-6.4.1c0-.1 0-.2-.3-.2-.5 0-.5-.5.2-.8.3-.2.5-.6.5-1 0-.5-.1-.6-.6-.6-.8.2-1.2 1.3-.8 2.2.3.7.7.9 1 .4zm19.8-.5c.1-.1.4-.3.7-.3.6 0 2-1.7 2.4-2.8.3-1-.1-2.7-.7-2.7-.2 0-.5-.2-.6-.4-.1-.4-.2-.4-.4 0-.3.4-.4.4-.8-.3-.3-.5-.6-.6-1-.5-.4.1-.7 0-1.2-.5-.7-.8-1.1-.9-2.5-.2a5 5 0 0 1-1.4.6c-.2 0-.5.2-.8.5-.4.4-.9.6-2.9 1-1.7.2-2 .3-2.5.9-1 1-.7 1.3.5.7.9-.5 1.2-.5 1.6-.3.3.2.5.2.6 0h1c.4 0 1 0 1.7-.3.8-.4 1.2-.4 2.4-.3 1.4.3 1.6.4 1.8 1 1 3.9 1.6 4.8 2.1 4zM93.6 95c0-.3-.3-.4-.6-.4-.5 0-.6.2-.3.6.3.3.9.2.9-.2zm7.3-1.3c1.2 0 1.5-.3.5-.8-.5-.2-.8-.1-1.7.3-1.2.6-1.5 1-.5.7l1.7-.2zm-12-.1c.2-.4-.2-.9-.6-.6-.2 0-.3.3-.2.5.2.3.6.4.8 0zm-12.4-2c1-1.7.9-2-.2-.8-.7.8-1.3 2-1 2.3.2.2.1.2 1.2-1.6zm13.9.6c0-.2-.1-.3-.3-.3l-.2.4c0 .2 0 .4.2.3.2-.1.3-.3.3-.4zM86.8 90c0-.2-.3-.3-.4-.3-.1 0-.2.1-.2.3 0 .1.1.2.4.2.2 0 .3-.1.2-.2zm15.8-1.2c0-.8-.7-1.2-2.5-1.5l-2-.2 1 .6c.6.3 1.3.7 1.5 1 .5.5 2 .6 2 .1zm11.3-1 .2-.6c.1-.3 0-.4-.4-.4-.5 0-.8.7-.4 1.1.3.3.6.2.6 0zm-18.6-2.3c-.4-.4-.5-.4-.2.2.2.3.4.5.5.4.1 0 0-.3-.3-.6zm25 .3-.3-.6c-.3-.5-.4-.5-.7 0-.5.7-.4 1.1.3 1l.6-.4zm2 0c.3-.3.5-3.4.2-3.6-.4-.2-1 2-.8 2.7.2.4.1.7-.1.9-.3.1-.3.2 0 .2l.7-.2zm2-.9c.2-.1.4-.6.4-1 0-3.7.2-5 .3-4.5.3 2.3.4 2.4.7 2.1.4-.4.6-.3.8.3l.1-.7c0-1.3-.4-4.3-.6-4.5l-1.8.9c-1.1.7-1.7 1.2-1.7 1.6-.1.5 0 .6.3.5.3-.2.4 0 .4 1.7 0 1.6 0 2 .4 2.1.3.1.4.4.3.6l-.3.8c-.2.4 0 .5.7.1zm-1.7-4.5c0-.4-.1-.2-.1.4v.6c.2-.2.2-.7.1-1zm5.1-1.8c0-1-.2-1.6-.6-1.6-.2 0-.3 2 0 2.2.4.4.6.1.6-.6zm1.2-2.5c-.2-1.3-.4-1.5-.7-1-.3.5-.3 1.7 0 2.3 0 .3.2.3.5.1.2-.2.3-.6.2-1.4zm-7 .5c1.9-1 2.4-1.5 1.9-1.5a20 20 0 0 0-3.9 2c-1 .8.2.4 2-.5zm3.7-1s-.1-.2-.3-.2c-.1 0-.2.1-.2.3 0 .1 0 .2.2.2s.3 0 .3-.2zm4.6-1.2c.5-1.7.5-1.7-.3-1.2-.5.3-.6.6-.6 1.4 0 1.4.3 1.3.9-.2zm-3.6-1.4c0-.3-.3-.3-.7 0-.5.6-.4.9.2.6.3-.2.5-.4.5-.6zm1.1-1.7c0-.2-.2-.4-.4-.4s-.4.2-.4.4.2.4.4.4.4-.2.4-.4zm-7.1-.4c0-.1-.2-.2-.4 0-.3 0-.4.1-.4.2h.4c.2 0 .4 0 .4-.2zm3-.3c.1-.1.4-.2.6-.1.6.2 1.4 0 1.4-.5s.6-1.6 1.4-2.5a6 6 0 0 0 .9-2.2c.4-1.8 1-3 .7-1.2-.1.6 0 1 .1 1 .4 0 .6-.5.6-1.6 0-.9.6-2.6.9-2.6V62l-.1 1.3.4-1.2c.2-.6.6-1 .8-1 .3 0 .4 0 .2.4-.7 1.7-1.6 5.6-1.3 5.6.2 0 1-1.7 1.2-3l.6-1.4c.1-.2.2-.5 0-.8l-.2-2.9c0-1.8 0-2.5.4-3a21.2 21.2 0 0 0 4-5c.2-.5.2-1.2.1-2.3l.1-1.8c.2-.1.3 0 .3.1 0 .6.4 0 .4-.6 0-.3 0-.6.2-.6l1-1c3-3.3 2.6-3.1 5.2-3.3 1.2-.2 2.5-.2 2.8-.1 2 .5-2.8-2.3-5-3-.9-.3-3 .7-3.3 1.6-.2.6-.4.6-1.9.6-1 0-1.8.2-2 .3a52.4 52.4 0 0 0-5.7 5.5c-.6-.3-3.7 2.3-5.4 4.4-1.3 1.7-1.4 1.9-.9 2 .7 0 .7.7 0 1-1.2.3-3.3 4.6-3.6 7.4 0 1.1-.4 2-1 3-.4.8-.7 1.6-.7 1.9 0 .2-.2.6-.5.9-.6.6-.7 1 0 .6.7-.3 1.5-.3 1.7.1 0 .2.4 0 1-.4.4-.5.9-.7 1.1-.6l.5-.1c0-.2.2-.5.5-.7.3-.4.5-1 .6-2.4.2-2 .9-3.8 1.4-3.8.4 0 .5.3 0 .7v1.7l.5 3.2.4 2c.4.4.1 2.5-.4 2.8-.7.4-.8 0-.3-.9.3-.5.4-.8.1-1-.2 0-.4 0-.6.4l-.9 1-.5.8 1.6.4c.2 0 .5-.1.6-.3zm1-6.2c-.2-.3-.4-1.7-.5-3.2-.1-2.5-.2-2.7-.7-2.6-.5.2-.7-.5-.2-.8.2-.1.2-.3 0-.5-.1-.2 0-.5.4-1 1.1-1.3 1.3-1 1 1.8a25 25 0 0 0 .2 4.6c.3 2 .2 2.5-.2 1.7zm-2.6-5.1.1-.4c.2-.1.3 0 .4 0v.5l-.5-.1zm5.4-3.1c-.4-.3.4-1.7 1.3-2.4.5-.4 1-1 1.1-1.3.2-.4.5-.6.7-.7.7 0 1.7-.9 1.7-1.5 0-.3.2-.6.4-.6s.4.2.4.5c0 .4 0 .4.4 0 .3-.2.3-.7.2-1.9-.2-.8-.2-1.5 0-1.6.3-.2.5.3.6 2.2.2 1.7.1 1.8-.6 2.6-.4.5-1.2 1-1.8 1.1-.8.2-1.5.7-2.5 1.8-.7.7-1.3 1.5-1.3 1.7 0 .3-.4.4-.6.1zm7.8-6.3c0-.7 0-1.9-.2-2.5-.3-1.8.2-1.3.8.8.4 1.7.4 1.8 0 2.5a3 3 0 0 1-.5.6V50zM128 70c0-.2 0-.3-.2-.3l-.2.2v.3c.2 0 .4-.1.4-.3zm-5.1-5.4-.4-2a19.4 19.4 0 0 0 .4 4.2h.2l-.2-2.2zm-42-7.6c0-.3-.2-.6-.4-.8-.3-.2-.3 0-.3 1s0 1.1.4.7c.3-.2.4-.6.3-1zm3-.4a9 9 0 0 0-2.1-2.8l-.7.4c-.5.6.2 2 1.2 2.8.7.5.9.7.6 1-.1.3 0 .1.5-.3.4-.4.6-1 .5-1.1zm4.3.5c.3-.3 1.2-.8 1.9-1 1.6-.6 2-1 1.6-1.3-.1-.2-.4-.2-.7.1-.5.5-2.8 1.6-3.2 1.6-.2 0-1 .8-1.5 1.5-.3.5 1.2-.2 2-.9zm27.2-1.1c-.2 0-.4-.2-.4-.3 0-.3 3.2-.6 4.2-.4.5.1.8 0 .8-.1 0-.2-.1-.3-.3-.3-.1 0-.2-.4-.1-.8V53l-1 .2-3.5.3a36 36 0 0 0-8.7 1.4l-.8.2.8.3c.4.2 2.2.3 4.2.3 3.3 0 3.5 0 4 .6s.5.6.8 0c.4-.4.4-.5 0-.5zm-30.6-.3c0-.3-.1-.6-.3-.6l-.8-.4c-.5-.4-.4-.4 0 .5.7 1 1.1 1.3 1.1.5zm-4.7-.8c0-.4-.5-.9-.8-.7-.2.1-.2.3 0 .6.3.4.8.5.8.1zm25.8-.7c1.5-.3 1.7-.8.3-.9-1.4 0-1.2-.5.3-.7a74.8 74.8 0 0 0 6-.8c.7 0 1 0 1-.4 0-.3.6-.4 2.6-.6a57 57 0 0 0 4.7-.5c1.9-.4 2.3-.6 2.8-1.2.4-.4.5-.8.4-.9 0 0-1-.3-2.1-.4-2.3-.4-5.9 0-8.2 1-1.3.5-1.4.5-2.3 0-.8-.4-1.6-.5-3.8-.5-1.5 0-3.5 0-4.3.2-1.6.3-4.2 1.4-4.7 2-.4.5.6 1 1.8.8 1.5-.2 4.6.2 4.7.6.1.2-.2.3-1 .3-1.6 0-2 .9-1.1 2.4.4.5.4.5 1 .2a6 6 0 0 1 1.9-.6zm-2.8-.5c0-.5.6-.8 1-.6.4.3 0 1-.5 1-.3 0-.5-.2-.5-.4zm-1-4c0-.2.2-.4.6-.4.8 0 .8.6 0 .8-.5 0-.7-.1-.7-.4zm17.8-.4c-.2-.2.3-.4 2-.6 1.2-.2 1.6.2.5.5l-1.6.3c-.4 0-.8 0-.9-.2zm-23.9 5c.3 0 .5 0 .5-.2s-.4-.3-1.1-.2c-1.6.3-2.3.8-.9.6l1.5-.2zm-11-2.8-.1-1.7-.9.9c-.3.5-.7 1-1 1-.5.4-.3 1 .7 1.9l1 .8.2-.6.2-2.3zm-20.3 1.9c.6-.5 1-.5 1.3 0 .2.5.7.5 1.5 0 .4-.2.8-.4 1-.3.3.3.6-.5.3-1-.2-.1-.2-.7-.1-1.4.2-1.1 0-1.7-.7-1.7-.4 0-.5.4 0 .7.3.5-.6 2-1.5 2.4-.5.2-1.3.3-1.8.2-.6 0-1 0-1 .2l-.8.6c-.5.3-.8.6-.8.7 0 .5 2.1.1 2.6-.4zm22.9.3-.1-.4c-.2 0-.3.2-.3.4l.1.4.3-.4zm23.7-.4c1.2-.2 3-.3 4-.3 2 0 3.7-.2 3.7-.5 0-.4-8.5 0-9.9.6-1.2.4-1.6.8-.7.6l2.9-.4zm-36.5-.4c0-.2-.4-.5-.8-.7-.7-.3-.9-.2-1.3.2-.7.5-.7.8-.1 1 .9.1 2.2-.2 2.2-.5zm15.5-1c-.2-1.7-.6-2.7-1.2-2.5-.2.1-.3-.1-.3-.8 0-.9.5-1 .6-.1 0 .9.7-1.5.7-2.6 0-.9.1-1.1.3-.8l.3 1c0 .5 0 .9.2 1 .2 0 .3 1 .3 2.2 0 1 .1 1.8.2 1.5 0-.3.3-.7.6-1 .3-.3.4-.6.2-1.2-.1-.6-.2-.6-.2-.1 0 .3-.2.5-.3.5-.2 0-.3-.8 0-3 .2-3.7 0-7.6-.3-8a39.6 39.6 0 0 1-.4 3.7c-.2 2.9-.6 2-.8-1.6l-.1-2.7h.7c.7.1.8 0 1-1.2a43.6 43.6 0 0 0 0-11c.5-.8.5-1.5.2-1.7h-1.4c-.9.1-1.3.4-1.5.8-.2.4-.3.2-.3-1.4 0-1.1.1-1.9.3-2 .2 0 .4-.5.5-1l.2-.9V20c0 .7.2 1.2.4 1.2.3.1.3.4.3.9-.2.7 0 .8 1.1.5.4-.1.6-.3.5-.4-.3-.4.5-5.7.8-6 .5-.6.5-.9 0-.9-.7 0-.7-.4 0-2 .4-1 .7-2 .7-2.5s.2-1 .6-1.3c.9-.7 2-2.7 1.5-2.8-.3-.2-.4-1 0-1.3L96 5c0-.2-.3-.1-.6.1a7 7 0 0 0-1.6 3c0 .5-.5 1.8-.7 1.6 0 0 0-1 .3-2 .6-2.3.3-5.6-.5-5.6-.3 0-.4.4-.4 1.6 0 .9.1 1.6.3 1.7.2.2.1.4-.1.6-.2.3-.5 1.4-.6 2.7-.3 4.4-.8 7.5-1.2 7.7-.5.3-.5.3-.7-1.2 0-1.2.4-1.7.5-.5.2 1 .4-.7.8-5.3l.4-5.5L92 2l-.8.2-1.8.2c-1.2 0-1.5.5-2 3.3-.1 1-.4 2-.5 2-.1.2-.8-.3-1.7-1.2A9.2 9.2 0 0 0 83.4 5c-.3 0 .2.7 1.2 1.7.4.3.8.9.8 1.1l.6 2c.4 1.2.7 1.5.9 1.3.3-.5.8-2.6 1-4.6.1-.8.3-1.6.5-1.8.2-.2.5-.7.6-1.1.3-.8.3-.7.2.5-.5 5.2-.5 5.2 0 5.5.5.4.5.4 0 .8s-.5.4-.7-1.5c0-1.3-.1-1.7-.3-1.2-.8 3-1.2 5-1.2 6.2 0 .7-.2 1.5-.3 1.7-.2.3-.3.2-.3-.3 0-.4 0-.7-.2-.7s-.3.7-.3 1.7c0 1.3 0 1.7.3 1.6.2 0 .4-.5.5-1 .2-.9.2-.8.2.3 0 .7.2 1.4.3 1.6.4.6.6-.9.5-3.3-.2-1.6-.1-2 0-1.5.3.6.4 3.1.3 7.7 0 1.6 0 1.9-.3 1.5a2 2 0 0 0-1-.6c-.5-.1-.5 0-.5 4.5 0 2.6-.2 5-.3 5.3-.4 1-.3 3.8 0 3.8.1 0 .3-.5.3-1 0-1.9.4 1.8.5 4.6 0 1.7 0 2.3.3 2.2.2 0 .4-.7.5-1.5a60.4 60.4 0 0 1 .3 7.3c0-2.6-.3-3.6-.8-3.6-.3 0-.4.4-.2 3.2.2 3 .5 4.4.9 3.5.2-.7.6-.4.7.6.2 1 .7 1.5.7.5 0-.3 0-.7.2-.8.4-.2.6 1 .3 1.7-.2.5-.2.5.3.5s.6 0 .4-1.6zm-1.8-11.7v-4c.2-.2.3-2.7.3-5.4 0-3.2.1-4.7.3-4.6.2 0 .2 2 .1 5.6a623.8 623.8 0 0 0-.4 11.7c-.1 0-.3-1.5-.3-3.3zM87 36.8a.5.5 0 0 1 0-.6c.2-.2.4-.2.5 0v.6c-.2.2-.4.2-.5 0zm3.8-1.4c0-2.4.4-6.3.6-6.3.3 0 0 7-.3 7.3-.2.1-.3-.3-.3-1zm-3.7-2.1c-.2-.2.2-5.3.5-7.1.2-1.2.2-.8.1 1.8-.1 3.5-.3 5.5-.6 5.3zm2.7-6.9c0-.7.4-1.3 1-1.3.2 0 .3.3.2.9 0 .7-.2.9-.6 1-.5 0-.6-.1-.6-.6zm-.7-11.2c-.1-2.3 0-3 .2-2.7.2.2.4 5.2.2 5.2-.1 0-.3-1.1-.4-2.5zm1-5.7c0-.3 0-.5.2-.5.3 0 .5.7.3.9-.3.3-.6.1-.6-.4zM70.2 52.7c.1 0 .3-.2.3-.5 0-.6-1.2-.3-1.3.3-.1.4 0 .5.3.3l.7-.1zm10.3 0c0-.2-.2-.3-.5-.3s-.6.1-.6.3l.6.2c.3 0 .5-.1.5-.2zm14.6-.1c.7-.3 1.5-1 2.3-1.8 1.3-1.5 3.4-2.7 5.5-3.1 2-.5 6.2-.4 8.1 0 2.7.8 3 .4 3.1-4.3.2-3.6.1-4.3-.4-8.2-.3-2.1-.5-4.8-.4-5.9 0-1.7 0-2-.4-2s-2-1-2-1.4l.5-.3c.3 0 0-.4-1-1.1-1.3-1-1.7-1-3.3-1.2-1.4 0-1.8 0-2 .4-.4.4-1 .5-3.5.5-3.7 0-5.6.5-7.4 1.5-1.3.9-1.4 1-1.5 2.2 0 1.1 0 1.3.4 1l1-.2c.3 0 .6-.2.6-.4.2-.4.6 0 .6.6 0 1-.4 1.4-.9 1-.5-.4-1-.1-1.5.9s-.3 2.8.3 2.8c.3 0 .3 0 0 .2-.7.2-.6.5 0 .6.5.1.7.3.7 1 .1.5.2.8.4.8l.5.5c.3.7-.7 2.2-1.6 2.2-.6 0-.6 0-.4 2.2l.2 2.2 1.2.2c1 .2 1.2.2 1-.3l.4-1.2c.3-.6.3-.9 0-1.3-.2-.4-.2-.5.1-.7.3 0 .4-.2.1-.5-.7-.9 1-1 2-.2.4.5 1 .5 1.4 0 .6-.5.4-1-.4-1-.4 0-1-.1-1.1-.3-.2-.3-.8-.4-1.4-.4-1 0-1.2-.2-.6-1 .3-.3.4-.7.3-1.2-.2-.6-.1-.7.3-.7.3 0 .7 0 .7.2.1.2.5.3.8.3.4 0 .8.2 1 .4.4.5 1.5 0 1.5-.7 0-.6-.2-.6-3-.5-1.8 0-1.9 0-2.9-.9s-1-1-.4-1.2c.7-.4 1-.4 1.6.3l.5.6v-.6L96 32c-.5-.3-.4-.7 0-.7.3 0 .6.3.8.7l.5.6c.2 0 .8-.5 1.3-1 .5-.7 0-.7-.8 0-.4.4-.6.5-.7.2 0-.3 0-.7.2-1 .3-.6 0-1-.8-1-.4 0-.4-.5.2-.8.6-.4 1-.1 1.3.7.2.5.5.7 1 .7.4 0 .8.1.9.3 0 .2-.1.4-.4.4-.2 0-.4.2-.4.5s0 .6-.2.6c-.5.3-.3.7.3.7.7 0 1.2-.9 1.2-1.9 0-.2.2-.5.3-.5.3 0 .4.3.3 1.3 0 .7.4.8.6 0 .1-.5.7-.7.7-.2 0 .1.2.2.5.2s.6.2.6.4c0 .3-.2.4-.3.4-.2 0-.3.3-.3.6 0 .5.4.7.7.2l.5-.2c.3 0 .3.4.3 1.4 0 1.6-.2 2-1 2-.4 0-.5-.1-.3-.5v-.5a23.2 23.2 0 0 1-4.9 2h.7c.5-.1 1 0 1.1.2.3.3 1.2.4 4.3.4a38.9 38.9 0 0 1 7.7.8c.8.2 1.6.5 1.8.7.3.4.2.4-.8.3l-2.4-.5c-1.5-.3-5.5-.2-7.7.3l-2.2.3c-1 .1-3.7 1-4 1.4-.2.4-.2 1.6.2 2.4.2.5.5.6 1.4.6.6 0 1.2 0 1.2-.2.2-.3 1.3-.6 1.3-.3 0 .2.3.3.6.3s.5-.2.4-.3c0-.2-.3-.3-.5-.3-.8.1-.8-.5-.1-.8.5-.2.8-.2 1.2.2l.7.4c.6 0 .4.7-.3 1.2-.8.5-.9 1-.1.8.3-.1.5 0 .5.2 0 .7-1 1.2-2.2 1-1-.1-1.3-.4-.6-.7.8-.3.2-.6-1.6-.7-1-.1-1.9-.3-2-.5-.2-.1-.6-.3-1-.3h-.6l.7.9c.8.8.8.8.3 1.2-.3.2-1 .3-1.4.3-.7 0-.9 0-.9-.5 0-.3 0-.5-.2-.5-.4 0-.6 3-.3 4.7.5 2.7.3 2.6 2 2zm1.8-6.3c-.3-.2-.3-.3 0-.4.6-.2 1.3 0 1.3.4 0 .3-.8.3-1.3 0zm.6-3.5c-.2-.4.3-.7 1.6-.9 1.4-.2 1.7.1.5.7-.9.5-1.9.5-2 .2zm-4.3-1.5c0-.3 1-1.5 1.1-1.3l.3.8c.2.7.1.7-.6.7-.4 0-.8 0-.8-.2zm0-14c0-.3 2.2-.8 3.5-.8 1.3 0 1.1.4-.4.6a50.8 50.8 0 0 0-3.1.2zm5.1 0c.2-.3 3.2-1 3.8-.7.8.3 0 .6-2 .8h-1.8zM121.7 52c.4-.6.6-1.1.5-1.2a109.3 109.3 0 0 1-4 .6l-1.5.2h2c1.6 0 2.4.4 1.5.7-.3.1 0 .7.5.7l1-1zm-59.4.4c.2-.3.6-.4 1-.4.5 0 .5 0 0-.4-.3-.2-.6-.7-.6-1l-.1-.9.1-.4c.2 0 .4.3.6.8.2.6.6 1 1 1.2 1.1.5 1.3.5 2.1-.3.8-.7 1-1.2.3-1-.3.1-.4 0-.4-.4 0-.3.1-.6.3-.6.1 0 .2-.2.2-.5 0-.6-1.5-1.4-2.6-1.3-.7.1-1 .3-1 .8-.3.6-.3.6-.4-.4 0-.7-1-1.2-1.2-.7-.4.5-.4 3.7 0 3.9v1c-.1 1 .2 1.2.7.6zm2.2-1.7.3-.6c.3-.2.2-.3 0-.5-.3-.1-.3-.4-.2-.7.1-.4.2-.4.7 0 .6.6.6 1.2.2 1.7-.4.3-1 .4-1 0zm36.6 1.6c0-.1-.3 0-.5.2s-.2.2.2.1c.3-.1.4-.2.3-.3zM78.2 52c0-.2-.2-.4-.5-.5-.3 0-.5-.4-.6-.8 0-.4-.3-.9-.5-1-.3-.3-.6-.2-1.1.5l-.7.7.7.1c.8.1.8.9 0 .9-.5 0-.5 0-.2.2.6.4 3 .4 3 0zm-7.5-.8c.5-.3.5-.7-.2-1.4-.8-.9-1.3-.8-1.3.3 0 1.2.4 1.5 1.5 1zM82 50c.1-1.2 0-1.4-.6-.8-.3.2-.4.2-.5-.2-.3-.7 0-1.2.6-1 .4 0 .6 0 .8-.5.2-.3.5-.5.7-.5.2 0 .8-.3 1.2-.7.7-.6.9-1 1-2.3.1-1.3 0-1.5-.3-1.5-.2 0-.4.1-.4.3l-.6.2c-.8 0-1.1.3-1.5 1-.5 1-.4 1.7.2 1.7.9 0 .6.5-.4.6-.6.2-1 .5-1.4 1.1-.6 1-.6 1.6 0 3.1.5 1.1 1.1.8 1.2-.5zm-7.7.3c1-.8.8-1.6-.3-1.3l-1.8.3c-1.1.2-1.2.5-.3 1 .4 0 .7.3.7.4 0 .5.9.2 1.7-.4zm9.9-1.2c.4-.7.8-1.6.8-1.9 0-.5 0-.5-1.1.1s-1.1.7-1.2 2c-.1 1.7.3 1.7 1.5-.2zm6.3-.6c0-1 0-1-.2-.4-.3 1-.3 1.5 0 1.5l.2-1zm-11.5.1c-.2-.4-.1-.4.3 0 .4.3.4.2.4-.3 0-.4.2-.9.4-1 .6-.5.5-.8-.3-.8-.4 0-1 0-1.2-.2-.5-.2-.5-.1-.1.7.3.9.3 1 0 1.2-.5.3-.3 1 .3 1 .2 0 .3-.2.2-.6zm-7-.2c0-.4-4.2-2.3-4.4-2-.2.1 1 1.2 2 1.8.8.4 2.4.5 2.4.2zm3.2-.2L75 48l-.2.1c0 .2.1.3.2.3l.3-.1zm2.5-1c.2-1.3-.6-1.7-1.2-.5-.4.7-.4.8.1 1 .9.4 1 .4 1-.4zm-9.6.5-.4-.4c-.4-.3-.4-.3-.4 0s.2.5.4.5l.4-.1zm6.4-.6 1-.2-.6-.6-.6-.6h.7l1-.3c.3-.2.3-.4-.3-1l-1.1-.6c-.2 0-.5-.2-.5-.4-.1-.2-.7-.4-1.9-.4s-1.6-.2-1.6-.5c0-.2-.3-.4-.6-.5-.6 0-.8.3-.3.6l.2.6c0 .4-.8.5-1.5.1-.3-.1-1-.3-1.6-.3-1.4-.2-1.5.2-.1 1.3.6.6 1.2.8 1.5.7.3 0 1.4.4 2.6 1 2.4 1.4 2.2 1.3 3.7 1zm-2.4-1.8c-.5-.6 0-.7.8-.2.6.5.6.6 0 .6-.3 0-.7-.2-.8-.4zm0-1.7c0-.2.1-.3.3-.3.3 0 .4.1.4.3 0 .1-.1.2-.4.2l-.4-.2zm44.3 3.3c1-.6 1.6-1.8 1-2.7a14 14 0 0 1-.1-6.4c.2-.2.4-2 .5-4.6a27.8 27.8 0 0 1 1.2-8.6c.2-.5.5-1.6.6-2.5.1-1.3 0-1.6-.2-1.5-.3 0-.4-.1-.3-.4 0-.5-.6-.6-1-.1-.3.5-.9 3.8-1 6 0 3.2 0 3-.3 2.6-.2-.2-.3-.8-.3-1.4 0-.6-.1-1-.2-.8-.1 0-.4-.3-.5-.8-.3-1-.3-.9-.3 1.4l-.1 2.6c-.1 0-.3-1.1-.4-2.7l.1-3c.3-.4.1-2.4-.3-2.9a1 1 0 0 0-.6-.3c-.2 0-.3.4-.2 1.5l.4 2c.2.3.1.5 0 .6-.5.3-.2 3 .2 3.3.3.1.3.5.2 1.1l.1 1.4c.2.5.2.5.2 0 0-.2.2-.3.3-.2.3.1.1 1.3-.3 1.9l-.2 4a210 210 0 0 1 .3 5.4c.4-.3 1.3.2 1.3.7 0 .6-.5.7-.5.2 0-.2-.1-.2-.3 0-.2.4-.4 3.4-.3 4.4 0 .2 0 .2 1-.2zm-.5-6.8a25 25 0 0 1 0-6.5c.2.2.3 1.6.4 3.2l.2 3.3c0 .2 0 .4-.2.5-.1 0-.3-.2-.4-.5zm.9-6.5c-.3-2.4-.3-3.2.2-2.9.3.2.6 4.6.3 5-.1.4-.3-.3-.5-2zm8.8 12.7.7-.4c.2 0 .8-.3 1.3-.8.5-.4 1-.8 1.3-.8.4 0 1-.6 1-1l.6-.8c.5-.6.7-1.1.5-1.7V36c0-2.5 0-5.9-.2-7.6l-.2-3.1-1.3-1.2L128 23l-2.3.1a13 13 0 0 1-2.7 0c-.4-.1-.4-.9 0-2.4.2-1.2.5-1.2 3.2-.5 1.4.4 2.6.6 2.7.4.1-.4.9-.3.8.1-.1.3 1 1.3 1.4 1.3a180.6 180.6 0 0 0-.4-19.6s-.2.2-.2.5c0 .7-.4.7-.7 0-.1-.5-.3-.5-2.3-.5-1.2 0-2.9 0-3.8-.2-1.6-.1-1.6-.1-2 .7-.3.4-.4 1.4-.4 2.1 0 1.2 0 1.3.5 1.4.6 0 .6 0 .1.3-1.3 1-1.3 1-.4 1.4.5.2 1.3.3 1.7.3.6 0 .7 0 .6-.5-.1-.4 0-.5 1.2-.5s1.3 0 1.1-.6c-.1-.5 0-.5.7-.4.7.2 1 0 1.6-.6l.9-.8c.4 0 0 .7-.7 1.6l-.9.8h1.3c.8 0 1.4 0 1.4.2.2.4-.8.6-2.6.6-.8 0-1.8.2-2.2.3-.7.3-.5.4 1.8.4 2.9 0 3.4 0 3.4.4s-7.1.2-8.5-.2c-1.2-.4-1.8-.2-1.5.5.1.3.5.5 1 .5.7 0 1.8.6 1.8 1s-1.7.3-2 0c-.4-.4-.9 0-.9.5 0 .3.3.6.7.7 1 .2 4.1-.1 4.6-.5.2-.2.5-.1 1 0 1 .6 2.1.4 2.9-.3.4-.4.7-.6.8-.5.3.3-.6 1.8-1.2 2l-.7.3.6.2c.6.3.8.8.2.8a20 20 0 0 1-2.3-.6c-1.3-.4-2.7-.5-4.3-.5h-2.4v2.6c-.2 2.6-.1 2.7.4 2.8.4 0 .7.3.7.5.1.4 0 .5-.6.3l-.6.1c0 .2.4.3 1 .3 1.1 0 1.5.3 1 .8-.3.2-.6.2-1.1 0-.4-.1-.8-.2-1-.1a51 51 0 0 0-.8 11.2c0 2.1.3 8.4.5 8.5.2.2 3 .8 6.8 1.5 1.7.3 2.6.7 2.2 1-.2.3-4.9-.5-6.5-1a8 8 0 0 0-1.8-.4c-.5 0-.5 0-.4 1.1l.4 2.7c.3 1.3.4 1.6 1 1.8 1 .2 3.5 0 3.8-.5zm2.2-21.2c-.3-.3-.2-.6.2-.6.2 0 .4.2.4.4 0 .4-.3.5-.6.2zm.4-6.4c0-.5-.2-.7-1.1-1-1.4-.6-1.5-1-.3-1 .6-.1 1 0 1.4.4.2.3.7.5.9.5.5 0 .4.6-.1 1.2-.7.6-.9.5-.8-.1zm-4.1 0c-.4-.3-.2-.5.3-.5.4 0 .6 0 .5.3-.1.4-.6.5-.8.3zm1.2-3.4c-.3 0-.6-.3-.6-.4 0-.3.4-.4 1.5-.3l1.6.1-.2.4c-.3.4-1 .5-2.3.2zm2.6-3.9c0-.2 0-.4.2-.3.2 0 .3.2.3.3 0 .1 0 .3-.3.4-.1 0-.2-.1-.2-.4zm-4.5-6.2c-.3-.2-.4-.4-.1-.7.2-.4.6-.5 1.4-.5a4 4 0 0 0 1.9-.4c.6-.4.7-.4 1.2 0 .7.5.5.8-.3.8-.3 0-1 .2-1.6.5-1.2.6-2 .7-2.5.3zm6.5-.4c-.1-.2 0-.4.2-.4.5 0 .5.4.2.6-.2.1-.3 0-.4-.2zM119 44.8c-.2-2.2-.4-3-.6-2.9-.7.4 0 4.7.6 4.7v-1.8zm-37.5 0c.5-1.2.3-1.3-.8-.5-.5.3-1 .7-1.4.8-.5.2-.4.2.4.5 1.3.5 1.4.4 1.8-.7zm-3.2 0c0-.7 0-.9-.5-.9-.7 0-.9.7-.3 1.4.5.6.7.5.8-.6zm15.7-.2-.1-.4s-.3 0-.5-.2c-.3 0-.5 0-.5.3s.4.6.9.7l.2-.4zm-8-1.7c0-.4-.1-.1-.1.6v.8-1.4zm-5.8.9-.5-.1c-.3 0-.5.1-.5.4 0 .3 0 .3.5 0 .3 0 .5-.3.5-.3zm39.4-.9-.1.4v.4c.1-.2.1-.5 0-.8zm-38.8 0c.3 0 .5-.2.5-.4 0-.4-1.6-.5-1.9-.1-.3.4 0 .8.5.6l.9-.1zm-5.9-1c0-.3-.5-.9-.8-.9-.3 0-.3.7.1 1 .4.4.7.4.7 0zm2.4 0c0-.4-.7-.9-1.2-.7-.2 0-.4.3-.4.6 0 .4.2.5.8.5.6 0 .8-.1.8-.4zm-8.8-.4-.5-.2c-.1 0-.2 0 0 .2 0 .2.2.3.4.3.1 0 .2-.1 0-.3zm16.6 0c.2-.2-.3-.4-1.5-.5-1-.2-.5-.6.5-.6.7.1 1 0 1-.5v-4c0-1-.2-1.2-.6-1.2l-1.3-.6c-.7-.4-1-.5-1.1-.2-.2.2-.2.5-.1.7.2.6-.7.7-1.2.1-.9-1.1-3.4-1.4-4.4-.4-.3.3-1 .5-1.7.5-2 .1-3.3.6-3 1.1l.3 1c.2 1 1 1.9 2.1 2.4.6.3 1.2.4 1.3.3 0-.1 0-.6-.3-1-.4-.7-.4-1.1-.2-1.7.3-1 .7-1.1 1-.4 0 .5.2.6 1.2.4 3.5-.5 3.6-.5 4 .2.4 1.3 2 1.7 2.3.6.2-.4.4-.6.5-.5.4.2-.2 1.7-1 2.8l-.8 1 .7.5c.6.3 2.1.4 2.3 0zm-3.5-5.3.6-.2c.4 0 .6.1.6.2-.1.2-.4.3-.7.3-.3 0-.5-.1-.5-.3zm36.1 4v1-1zm1.7.5c-.2-.6-.2-.6-.2 0l.1.7c.3.3.4 0 .1-.7zm13.5-1.4c0-1.1 0-1.5.4-1.5.5 0 1-1 .8-1.8a54.3 54.3 0 0 1 0-8.8c.2-.5.3-1.5.2-4.1-.1-2 0-3.6.1-4 .2-.2.3 1 .5 4.2 0 2.5.2 5.1.4 5.8l.2 1.2V29l.3-7.1c0-2 0-2 .7-2.2.9-.2 1.2.1.4.6-.4.3-.6.7-.6 1.5 0 2 .2 2.3 1.7 2.3 1.3 0 1.3 0 .8.4-.2.2-.8.4-1.3.3-.7 0-.8 0-1 .7-.2 1.2-.2 3.5 0 3.7.6.7 1.2 4.6 1 6.9 0 1.2 0 2.3.2 2.4.1 0 .7-.1 1.3-.4 1-.5 1.3-.5 2.2-.3.5.2 1 .3 1.2.2l.2-1.3c0-.6 0-4.7.2-9v-8l-1.4-2.6-1.8-3.7c-.6-1.1-.6-1.4-.3-2l.3-.7.1 1c.1 1 .1 1 .7.8.2 0 .3-.3.2-.6 0-.4.1-.5.9-.8.5-.2 1-.2 1.2-.1.1 0 .2-.2.2-.7 0-.8 0-1-.8-1-.5 0-.9 0-1-.3 0-.3.1-.3 1-.2.7.1.9.1.5-.1-.2-.1-1.1-.3-2-.3h-1.5l-.4 1.2a13 13 0 0 1-.9 2c-.4.8-.4.8.3 1.2.8.6.7 1-.5 1.2-.8.1-.9.2-.9 1.1 0 1.6-.4 3.4-.7 3.6-.2 0-.2-.4-.1-1.5.3-3.7.5-4.9 1-5.7 1-1.1 2.4-4.3 2.5-5.4.1-.5.5-1.6 1-2.3.8-1.6.7-2.2-.2-1.6-1 .7-2.8 5.4-2.8 7.4 0 .6-1.1.6-1.7 0-.3-.4-.4-1.2-.5-4V2.3h-3.5v3.6c.2 12 .2 17.5 0 17.7 0 .1-.3 0-.5-.3l-.5-.4-1-.6c-.6-.5-3.1-1.2-3.4-1 0 .2.3.4.8.6l2.5 1.6c1.6 1.3 1.7 1.4 1.8 2.7a152.3 152.3 0 0 0 .6 13.5c.1 1.4.2 1.7.5 1.4.3-.2.4-.8.4-1.7zm-.3-1.7c-.1-.4-.2-14-.1-14.8 0-.5.3-.8.4-.8a56.5 56.5 0 0 0 0 10c.2 2 0 6.1-.3 5.6zm7-14.6c-.7-.4-.8-.8-.2-.8l.8-.4c.2-.2.7-.4 1-.4.5 0 .5 0 0 .5-.2.3-.3.7-.2 1 .2.5-.5.5-1.4 0zm-2.6-1.3c-.1-.2 0-.3.3-.4l1-.4c.6-.2 1-.1 1 .3 0 .2-1.5.8-2 .8l-.3-.3zm-4.1-2.3c-.2-2.5-.2-13.8 0-14.2a52 52 0 0 1 .3 12.3c0 1.3-.1 2.3-.2 2.3l-.1-.4zm4.6-2.7v-.4c.4-.2 2.3.1 2.3.4 0 .3-2 .3-2.3 0zm1.1-1c-.2 0-.4-.2-.4-.4 0-.4.8-.6 1.1-.3.4.4 0 .8-.7.7zm-4.4-4c-.2-1.3-.1-1.6.2-1.3V12.8zM81.7 40.3c.3-.4.5-.9.4-1-.2-.6-4.1-1.5-4.7-1.1-.6.4-.6 1.2 0 1.6.2.2.8.3 1.4.3.7 0 1 .1 1 .4 0 .6 1.2.5 1.9-.2zm68.6-12.6c-.1-11.3-.2-12.6-.5-12.8-.3-.2-.4-.5-.3-.7.1-.2 0-.3-.2-.3-.7 0-.5-.7.2-.9l.6-.2-.6-.3c-.8-.3-.8-.6-.1-.8.8-.3 1-1.4.4-2.5-.5-.9-.7-1-1.6-1.2-1.2-.2-1.4 0-1.4.7 0 .4-.3 1-.6 1.3-.7 1-.7 1 .3 1 .7 0 .8 0 .6-.6-.1-.6 0-.7.3-.7s.4.1.3.5c0 .4 0 .5.5.5.8 0 .8.2 0 1.2-.6.7-.6.8-1 .3-.7-.6-1.1-.4-1.2.6 0 .8 0 .9.4.7.7-.2 2 .3 2 .7 0 .3-.6.2-2-.2-.4 0-.4.8-.3 10.8a85 85 0 0 0 .5 15c.1.2.5.3 1.2.2.5-.1 1.2 0 1.6 0 .4.2.7.3.8.2V27.8zM86.2 39c0-.7-.1-.8-.3-.4-.2.3-.2.7-.2.9.3.6.5.4.5-.5zm49.1-.2c.2-.9-.2-2-.5-1.7-.1 0-.2.6 0 1.2 0 .8 0 1-.3 1-.1-.1-.4-.4-.5-.8-.1-.6-.2-.6-.2.2l.1 1c.4.3 1.3-.3 1.4-.9zm-16.2-2c.2-.1.4-.4.4-.7 0-1-.5-2.6-.8-2.5-.3.2-.6 4.4-.3 5.3.1.7.2.7.3-.6 0-1 .2-1.4.4-1.5zm17.6 2.3a2 2 0 0 0-.4-1c-.4-.5-.4-.4-.4.5 0 .7.1 1 .4 1 .2 0 .4-.2.4-.5zm-60-1.2c0-.3-.2-.4-.3-.4-.2 0-.3.1-.3.4 0 .2.1.4.3.4l.2-.4zm17.4-.5c0-.6-1-1.9-1.4-1.6v1.2c.1.9.2 1 .7 1 .3-.1.6-.4.7-.6zm51-.2c.2 0 .3-.3.3-1.4 0-1.1 0-1.2-.2-.4 0 1.2-.6 1.4-.6.2 0-.5 0-.7-.2-.6-.2 0-.3.8-.3 1.6 0 1.2 0 1.4.3 1 .1-.2.4-.4.6-.4zm-65.6.3c0-.1-.3-.3-.7-.4-.9 0-1.2.2-.4.5.8.2 1.1.1 1.1-.1zm19-1c.3-.2.3-.3.2-.4-.4-.2-1.7-.5-1.7-.4l-.2.6c0 .3 0 .4.6.4.5 0 1-.1 1.2-.3zm36.5-.7c0-.2-.1-.1-.1.2 0 .3 0 .4.1.3V36zm9.2-2c.3-.2.3-1.1.3-3.3 0-3.5 0-3.4-.4-3.2-.2 0-.3-.4-.3-1.2v-1.3a61.8 61.8 0 0 0-.2 10c.2-.5.4-1 .6-1zm-7.1.3c-.6-3.8-.6-3.8-.6-1.4 0 2.3 0 2.7.5 2.7.2 0 .2-.5.1-1.3zm-1.5.5c.2.2.3 0 .3-.7l-.2-2.4-.3-1.3v1.1c0 .6-.2 1.3-.4 1.5-.2.2-.4.8-.4 1.3 0 .6 0 .8.3.5.2-.2.4-.2.7 0zm-62.1-.3c.3-.2.3-.3 0-.3s-.6.2-.8.3c-.4.2-.4.3 0 .3l.8-.3zm27.5-.5c0-.2-.2-.3-.4-.3s-.4.1-.4.3l.4.2c.2 0 .4 0 .4-.2zm1-.6c0-.1-.1-.2-.4-.2-.2 0-.4 0-.4.2s.2.3.4.3c.3 0 .4-.1.4-.3zm17-1.7c0-1-.1-1.2-.3-1-.3.6-.3 2.2 0 2.2.2 0 .3-.6.3-1.2zm15.8-1c0-.8 0-1.5-.2-1.5-.3 0-.4 2.5-.1 2.7.3.4.3.2.3-1.2zm10.9-3.3c0-.8-.1-1.6-.3-1.9l-.4-3.7c-.1-2.5-.1-3.3.2-3.4.2-.2.3-1 .2-3.4V2h-.7c-.7 0-1.2.8-1.2 2 0 .4-.2.7-.4.8-.4.1-.4-1.3 0-2 .2-.5.1-.6-.2-.7-.7-.3-1.4.3-1.7 1.6l-.5 1.2c-.2 0-.3.1-.4.4 0 .2.1.5.6.8.9.4 1.1 1 .4.8l-.9-.2c-.2 0-.4 0-.5.3 0 .3.3.5 1.1.7.6.1 1.3.2 1.5.1.5-.1.3-1-.4-1.8a4 4 0 0 1-.6-1c0-.3.8-.1 1 .3 0 .2.2.3.4.2.3 0 .4.1.4.5a2018.5 2018.5 0 0 1 1 14c0 4.2.3 6.5.4 6.6.2.1.3 1.1.4 2.4v2.5c.2.3.5-2.5.6-4.1zm-75.2 1.6c-.7-.6-.9-.2-.3.7.4.6.5.6.6.2 0-.3-.1-.7-.3-1zm14-2-1-.5c-.2 0 .1.4.6.9 1.1.9 1.3.7.3-.3zm-13.8.3c-.3-.4-1.7-.3-1.7.1 0 .3.3.3.9.3.5 0 .8-.2.8-.4zm-3.2 0L67 27c-.2 0-.5.1-.6.3 0 .1.2.2.6.2.4 0 .6-.1.5-.2zm6.5-.7c0-.4-1.3-.9-1.6-.7-.2.1-.2 0-.2-.1 0-.2-.3-.6-.8-1-.8-.7-.8-.7-1.1-.1-.6 1 .7 2 2.7 2 .5.1 1 0 1-.1zm4.2 0c.3-.2 0-.3-1.2-.3-1 0-1.7.1-1.7.3 0 .3 2.4.3 3 0zm35.2-.6c-.3-.4-.6-.1-.4.3.1.1.3.2.5.1.1-.1.1-.3 0-.4zm-43.7.1h-.5c-.2.1-.2.2.1.2.3 0 .5 0 .4-.2zm-1-.2H68c-.2 0-.1.1.2.1.3 0 .4 0 .3-.1zm-6.3-.9c.1-.1-.8-.2-2-.2-2.4 0-2.8.1-1 .4 1 .2 2.7.1 3-.2zm33.9-.7c1-.4 1.2-.5.9-.7-.6-.3-1.5 0-2.3.6-.8.6-.4.6 1.4 0zm-40 0c.7-.2.3-.7-.4-.7s-.9.3-.5.7c.2.2.4.2 1 0zm37.3 0 .1-.5c.1-.3 0-.4-.4-.4-.3 0-.5.2-.5.5s.2.5.4.5h.4zm-33.3-.7c-.6-.2-1-.2-1.2 0-.2.2 0 .3.9.3h1.2zm52.8-.4c-.1-.4 0-.7.2-.8.7-.2.3-1.3-.5-1.3-.8-.1-.8 0-.4 1.6.3 1.3.9 1.7.7.5zm-54.7 0c0-.2-.1-.3-.3-.3-.1 0-.2.1-.2.4 0 .2 0 .3.2.3s.3-.1.3-.3zm45 0c.1-.4.5-.6.8-.6 1 0 0-.4-2.1-.8-1.9-.3-2-.3-3.2.2-.6.3-1.1.7-1 .8.1.1 3.7.8 4.6.8.3 0 .7-.2.9-.5zM54.9 23l.3-.6c0-.3-2.3-.2-2.5 0-.1.2 0 .4.4.4.2 0 .6 0 .6.2.3.4.8.4 1.2 0zm61.8-1.4c0-.7-.1-1.2-.2-1.2-.2 0-.3.4-.3.8l-.2 1.2c-.3.4 0 1 .3.7.2-.1.3-.8.4-1.5zm27-.5v1.6a7 7 0 0 0 0-1.6zm-31.9 1.5c0-.7-.5-1.7-.8-1.7a4 4 0 0 0-1.3.6l-1 .5 1.3.5c1.4.6 1.8.6 1.8.1zm-54.5-.1c-.2-.2-.6-.3-.8-.3-.3 0-.3 0 0 .3l.8.2c.4 0 .4 0 0-.2zm32.7-.1c-.1-.3-.3-.4-.4-.3-.4.2-.3.7.1.7.3 0 .4-.2.3-.4zm5.7-.2c.2 0 .3-.4.2-.6-.2-.4-.4-.4-1-.3-.6.1-.8 0-.8-.2 0-.5 1.3-.9 1.7-.5.1.2.5.3.7.3l.8.4c.2.3.4.3.8 0 .5-.2.6-.2.1-.5-.7-.6-.5-.7.7-.5.9.1 1 0 1.6-.6.6-.7 1-.7.8 0-.1.5 0 .5.4 0 .5-.4.6-.7.5-1.2-.2-.6 0-.8.4-1 .7-.4 1-.2.6.5-.2.3-.4.7-.4 1 0 .3-.1.7-.4 1-.6.9-.4 1.1 1.2 1.3.9.1 1.7.3 1.7.4.2.3 2.9-.3 4.5-1 1-.5 1.3-.7 1.2-1.2 0-.5-.2-.6-2-.6-2 0-2.9.4-1.6.7.3 0 .6.3.7.4 0 .3-.3.4-1.3.4-1.2 0-1.4-.1-1.5-.6 0-.2-.3-.5-.5-.5-.4 0-.6-.6-.5-1.8 0-.8 0-1 .5-1s.5.2.5.9c-.1 1 0 1 1.8.7 1-.2 1-.2.5-.6-.3-.2-.5-.4-.5-.6 0-.4 1-.3 1.3.2.3.4 1.6 1.2 2 1.2.2 0 .1-1.3-.2-2-.3-1-1.8-2.7-2.3-2.9-.3 0-.5-.4-.6-1-.2-.8 0-1 .6-.4.2.3.6.4 1.5.3a6 6 0 0 0 1.3-.2c.1-.2-.7-2.3-1-2.8-.6-.6-.8-.3-.8 1.2 0 1.1 0 1.4-.2 1-.4-.9-1.6-1-2.3-.2-.5.5-.9.6-2.3.6-1 0-2 .2-2.3.4-.8.4-4 .5-4.5.1-.3-.1 0-.2.9-.2 1.6 0 1.3-.4-.4-.6-1-.2-1.3-.1-1.7.3-.3.3-.8.5-1.4.5h-.9v1.8l-.1 2.8c-.2.9-.1 1 .5 1.2 1 .4.9.8-.3 1-1 .1-1 .2-1.2 1.1-.4 2.1-.3 2.2 1.2 2.2a5 5 0 0 0 1.8-.3zm0-2.3c-.2-.2-.3-.4-.2-.5.3-.4 1-.1 1 .3 0 .5-.3.5-.8.2zm13.1 0v-.4c.2-.3 1-.3 1 0s-.8.6-1 .4zm-13-1.4c-1-.3-1.4-.7-1.4-1.4 0-1.3 1.4-1.6 2.4-.6.6.6.6.6 1 .2.9-.7.6.3-.3 1.2a7 7 0 0 1-.8.9l-.8-.3zm1.2-1.1c0-.5-1.3-1.3-1.7-1.2-.6.3-.5.9.3 1.2 1 .4 1.4.4 1.4 0zm2.1.3.6-.4c.3 0 .5-.4.5-.8 0-.3.2-.6.5-.7.7-.2 2.4.5 2.4.9 0 .3-.4.3-.8 0-.2-.4-.3-.3-.4.2-.2.7-2.8 1.6-2.8.8zm-.2-1.3c0-.2.3-.4.5-.5.2 0 .3 0 .2.3 0 .1-.3.4-.5.4s-.3 0-.2-.2zm6.8-3.7c0-.1.2-.3.4-.3.3 0 .4.2.4.3 0 .1-.1.3-.4.3-.2 0-.4-.2-.4-.3zm-18 9c0-.2 0-.3-.2-.3s-.3.1-.3.3c0 .1.1.3.3.3l.2-.3zm36.7-.3-.4-.2c-.2 0-.2 0-.1.2 0 .2.2.3.4.3.1 0 .2-.1 0-.3zm-37.8-1.3-.5-1c-.2-.1-.3 1.9 0 2.2.3.3.6-.4.5-1.2zm-23.3-.3c0-.2-.1-.2-.1.2 0 .2 0 .4.1.3v-.5zm8.5 0-.5-.2c-.2 0-.2.1 0 .4.4.4.7.3.5-.1zm72-1.7c0-1.3 0-1.7-.3-1.7s-.4-.3-.4-.7v-4.1l-1 .9c-.8.8-.8.9-.4 1 .6.3.7.8.2.8-.7 0-1.2-.3-1-.7 0-.1-.1-.4-.3-.5-.3 0-.4 0-.2.7.4 1.4 2 3.2 2.7 3 .2 0 .4.4.4 1.5.1 2 .3 2 .3-.2zm-31.3 1.3c.6-.2.5-.5-.3-.7-.6-.2-.6-.3-.3-.7.3-.4.2-.7-.2-1.3-.2-.5-.3-.8-.1-.8.1 0 .4.3.5.6.7 1.4.9.7.7-2.4-.1-3.2-.6-4.8-1.4-4.8-.4 0-.5.3 0 1.4.3 1.1-.1 2.2-1 2.3-1 .1-1 .5-.2 1.5.4.6.7 1.3.8 2 .1 2.1.2 2.4.4 2.7.2.4.5.5 1 .2zm4.9-1.9.1-1.5c0-.7 0-1-.5-1-.6 0-.9-1.2-.4-2.1l.4-3.2c0-1.5.2-3.3.3-4 0-.8 0-1.3-.2-1.6-.3-.4-.3-.5.1-.8.8-.6.4-1.2-.8-1.2-.9 0-.9 0-.8.7.2 1 .5 6.3.3 5.5-.2-.8-1-1.3-1.3-.8V10l-.1 2c-.2 0-.3-1-.3-2.5 0-1.4-.1-2.5-.3-2.7-.2-.2-.2-.5 0-.8.4-.7.2-3.5-.3-3.8-.4-.3-.7-.3-.7 0v3.2c0 2.5 0 3 .4 3.3.2.2.3.5.2.7-.1.2-.2 4.1-.1 5.7 0 .7.5.3.6-.5 0-.5.2-.9.4-1 .3 0 .4 0 .2.6 0 .5 0 1 .4 1.5l.7 1.3c.2 1 .6 1.4 1.2 1.4.3 0 .5-.2.5-.8zm-1.3-7.6c0-.3 0-.4.1-.2v.5l-.1-.3zm3.4 8.2c0-.3-.5-1-.5-.9l-.2.6c-.1.3 0 .5.3.5l.4-.2zm-5.6-.8c0-.4-.1-.6-.3-.6-.5 0-.7.5-.5 1 .2.6.8.3.8-.4zm.8.1c-.1-.2-.2-.1-.2.2 0 .3 0 .4.1.3v-.5zm5.5-3c0-2.7-.2-3.3-.6-2.2-.2.8.2 5.3.5 5.1 0 0 .2-1.4.1-2.9zm-1.8 1.8c0-.4.2-.9.5-1.1.3-.4.3-.6.1-1-.2-.3-.3-.3-.3-.1 0 .1-.1.3-.3.2-.2 0-.4.4-.4 1.3s0 1.4.2 1.4c.1 0 .2-.3.2-.7zm.1-6.2.4-2.4c.2-.2.4-1.4.5-2.8.2-2.2.1-2.4-.3-2.4s-.4.2-.3 1.8c.2 2-.1 2.7-.7 1.3-.3-.8-.4-.6-.5 3.2-.2 3-.1 4.2.1 4.6.3.6.3.6.5-.3.1-.5.3-1.9.3-3zm.7 1.8c0-.5 0-1-.2-1s-.3.7-.3 1.4c0 1 0 1.3.3 1l.2-1.4zm-24-.4c0-.4 2.3-1.4 2.7-1.1l1 .4c.4 0 .5 0 .4-.4-.1-.5.5-1.6 1-1.6v.6c-.1.8.3 2 .7 1.6.2-.2.7-.3 1-.3 1 0 1.6-1 1.1-1.7-.5-.6 0-.5 1.5.2 1.8 1 2.3.9 1-.2-1.7-1.5-2.3-2-2.4-1.6-.1.2-.4.4-.8.4-.8 0-.8-.7 0-.9.3 0 .2-.1-.4-.1a4 4 0 0 0-2 .5c-1 .6-1.2.3-.4-.6.2-.3.8-.5 1.2-.5 1.4 0 2.1-.8 1-1.2-.5-.1-.5-.3-.3-.4.2-.1.3-.4.2-.6-.1-.4 0-.5 1-.5 1.3 0 1.3 0 .9-.8-.3-.5-.5-.5-1.7-.4A6.6 6.6 0 0 0 97.4 5a5 5 0 0 0-.7 1.2l-1.1 2.1c-1.1 1.9-1.6 3.1-1.3 3.4.2.2.9 0 .9-.3zm7-1.6c-.1-.2 0-.3.2-.3s.4.1.4.3c0 .1 0 .3-.2.3s-.3-.2-.4-.3zm-5.5-.3c0-.3 1.6-1 1.8-.8.1.3-.9 1-1.4 1-.2 0-.4 0-.4-.2zm1-2.5c-.3-.4-.2-1 .2-1 .3 0 .4.3.4.6 0 .5-.2.7-.6.4zm8.2 3.6c.1-.2-.1-.3-.6-.3-1 0-1.7.3-1.7.6 0 .4 2.2.1 2.3-.3zm-43.3-.3c.3-.2.2-.3-.5-.2a5 5 0 0 1-2-.4l-1.3-.4-1-.5c-.5-.4-.9-.5-1.9-.4-.7 0-1.2.3-1.2.4.1.2 1 .7 2.2 1 2.2.8 5 1 5.7.5zm45.9-3c.3-4.7.3-4.8.7-4.8.3 0 .4.5.6 1.9.2 2.2.7 3.8 1.2 4 .3.1.3 0 .2-.7-.2-1 0-1 .5-.4.4.5.4.4.3-.7 0-.7-.3-1.3-.6-1.5-.5-.4-.5-.4 0-.7.7-.5.5-1-.5-1.3l-1-.7c0-.4-2.9 0-3.4.4-.4.4-.5.4-.7 0 0-.2-.3-.4-.6-.4-.4 0-.5.2-.5.7 0 .5 0 .6.4.5.4-.2 1.9.3 1.6.6l-.8.2c-1.3 0-3 .4-3 .6 0 .1.1.4.3.5.3.3.9.3 2.3-.1.3-.1.5 0 .5.2 0 .3-.4.5-1 .6-.6 0-1.1.3-1.1.4a15 15 0 0 0 4.1 3.2c.2 0 .4-.9.5-2.5zm37.7 1.2-.2-.3c-.2 0-.3.3-.3.7 0 .6 0 .7.3.4l.2-.8zm-9.2-.1.9-2.9c.4-1.3.8-2.4 1-2.5l.2-.4c0-.2-.5-.4-1.5-.4s-1.4.2-1.4.4.1.3.5.2c.8-.3 1 .3.1.6-.8.4-.6.8.3.6.5 0 .7 0 .6.3 0 .2-.5.4-.9.5-.7 0-.8.2-.8 1.5-.2 2.4.4 3.5 1 2.1zm-27.7-1.3c-.3-.7-.3-.8-.5-.4-.3.7 0 2 .4 1.6.2-.3.2-.6 0-1.2zM43 7.5c0-.3-.8-1.2-1.2-1.2-.6 0-.4.7.2 1 .8.4 1 .4 1 .2zM146.7 7l.4-1.3c.2-.9.1-1-.3-1.3-.8-.4-.9-.3-1 1-.2 1.6.2 2.4.9 1.6zm3.4-.4c0-.4-.2-.5-1.3-.6-.8 0-1.3 0-1.3.2v.5c-.1.2 1.3.6 2 .5.4 0 .6-.2.6-.6zm-79.5-.4c.6-.1 1-.3 1-.4-.1 0-.8 0-1.5.3-1.5.4-1 .6.5.1zM68 6.1c1-.4.7-.7-.8-1-1.8-.2-2.2.6-.5 1l.6.2s.4 0 .7-.2zm53-1.8c.1-1.5 0-2.2-.3-1.9-.2.2-.4 3.7-.2 3.7s.3-.8.4-1.8zm-6-.2c0-1-.1-1.8-.3-1.9-.1 0-.2.6-.2 1.8 0 1 0 1.8.2 1.8s.3-.7.3-1.7zm-20.3.7c.4-.6.4-.8 0-1.6-.2-.5-.4-.8-.6-.7-.2.3 0 3 .1 3l.5-.7zm54.5.3c.2-.2.3-.7.2-1 0-.4 0-.7.2-.7s.3-.2.3-.5c0-.5-.6-.9-1-.6-.4.2-.4 1 0 1.3.5.3.2 1.1-.4 1.3-.4 0-.6.3-.6.4.3.4.9.3 1.3-.2zm-51.8-1c.7-1.4.3-1.5-.7-.2-.5.5-.5 1.1 0 1.1l.7-.9zm-1.1-.8c1-1 .9-1.3-.2-1-1 .2-1.2.4-1 1 .2.8.3.8 1.2 0zm51.7 0c.3-1 .2-1.4-.5-1.4-.3 0-.4 0-.3.3 0 .2-.2.6-.6 1l-.7.5h.6l1 .2.5-.7zM146.5 2c0-.1-.1-.2-.3-.2-.1 0-.2.1-.2.4 0 .2 0 .3.2.2.2 0 .3-.3.3-.4zm-20.2 121.2L121 122a19 19 0 0 0-3-.5c-.9 0-2.1-.3-2.8-.5-.7-.3-1.8-.5-2.3-.5-1 0-1 0-.8.6.7 1.3 0 1.4-3.5.1-3.2-1-4.6-1.3-5.4-1-.7.5-3 .2-3-.2 0-.1.5-.2 1.1-.2.6 0 1.3-.2 1.4-.3.4-.4 3.1 0 5.8 1 1.2.5 2.3.8 2.5.8.6 0 .2-.6-.8-1a10 10 0 0 1-1.7-1.4c-.7-.6-1.2-.8-4.6-1.4-2.1-.4-5.5-.8-7.5-.8-2-.1-3.6-.3-3.6-.4 0-.3 2.5-.4 4.4-.2 1 .1 2.9.3 4.4.3 2 .1 3.3.4 5 1a39 39 0 0 0 14.8 3.5c1.7 0 3.7.1 5.5.4l5.8 1c3.2.5 4.3.9 2.5 1-.7 0-.9 0-.5.1.9.4 0 .6-1.1.3-1.3-.3-2.5-.3-2.5 0 0 .4-.8.3-4.8-.5zm2.2-.6a19 19 0 0 0-3.6-.9c-1 0-2-.2-2.2-.3-.3-.1-.4 0-.1.2a52.6 52.6 0 0 1 5 1.2c2.4.5 2.8.4.9-.2zm-103.7-1c.2-.4 4.1-1.1 4.7-1 .6.3.3.5-1.5.9-2 .5-3.3.5-3.2 0zm44.7-.2c0-.5.9-.8 3.1-1.2 1.6-.2 2.2-.4 2.3-.7 0-.5 1-.7 5-1 3.3-.2 2.3.4-1.3.7l-3 .4.5.3c.9.3.4.6-.9.7-1 0-1.7.1-5.1.9l-.6-.1zm60.2-.5-1.3-.4a55 55 0 0 1 11.7.6c0 .3-9 .1-10.4-.2zM82 121c.2-.4 2.4-.7 3-.5.3.2.3.2-.3.4-1 .3-3 .3-2.7 0zm-16.3-.4c0-.1.3-.2.8-.2l.8.2c0 .2-.4.3-.8.3-.5 0-.8-.1-.8-.3zm79 .2c-.3-.3.1-1 .6-1 .6 0 .8.3.6.7-.1.4-.9.6-1.2.3zm-51.6-.7c-.5-.2-2.6-.3-4.9-.3-2.2 0-4-.1-4-.2 0-.3 4-.4 6.9-.4 1.4 0 2.9.4 3 .7.3.3-.2.4-1 .2zm3 0 .4-.2c.2 0 .5 0 .5.2.1.2 0 .3-.3.3s-.6-.1-.6-.3zm-62.7-.2c0-.3 2.9-1.1 3-.8.2.2.1.4 0 .6-.4.3-3 .6-3 .2zm3.4-2c.5-.4 5.4-1.1 6.6-.8 1 .2.4.6-1 .6-.7 0-1.4.2-1.5.3 0 .1-1 .3-2.3.3-1.5 0-2-.1-1.8-.3zm57.4 0c-.2 0 .2-.2.8-.2.6 0 1.1.2 1.1.3 0 .3-1.5.2-2 0zm-47.2-.8-1.5-.3c-.7 0-1.2-.3-1.2-.4 0-.2.3-.3 1-.1h1c0-.1-.3-.5-.7-.8-.4-.5-.5-.7-.2-.6 1.1.4 5 .5 5.6.2.4-.2 1-.2 3 .1 1.4.3 4 .5 6 .5 2.4 0 3.4.2 3.6.4.3.3 0 .3-2.5.2-2.5-.2-2.8-.2-2.8.2s-.2.4-1 .3l-1.3-.4-1.5-.4c-1-.1-1.2 0-1.2.2s-.4.2-1.2.1l-1.4.1h-1c-1.4-.3-1.8-.3-1 0l.5.5c-.2.3-1.6.4-2.2.2zm33-.4c0-.3.8-.5 3.2-1 1.7-.2 1.7-.2 1.6-1l-.1-.9 3.7-.1a67 67 0 0 0 9-.9c1-.2.6-.6-.7-.8-1.8-.2-2.3-.4-2-.6.1-.2 1.3 0 2.6.1l2.3.4 1.8-.7 3-1.3c.6-.2 1.5-.9 2-1.3.6-.5 1.1-1 1.3-1l1-.5c.3-.3 1-.6 1.5-.8 1.3-.5 2-1 2-1.8 0-.7 2.6-3.7 3.7-4.2.7-.4 2-.2 2 .2 0 .2-.4.3-.9.3s-1.1.3-1.7.9c-.8.7-1 1-.8 1.6.1.5.3.7 1 .7 1.4.2 1.1.9-.4 1-.8.2-1.7.5-2 .8l-1.8 1c-.6.3-1.2.8-1.4 1l-1.4.7c-.6.1-1 .5-1.1.8-.1.3-.4.5-.6.5-.4 0-2.6.9-4.8 1.9l-1.9.7-1.2.5-1 .5 1.7.1c3 .2 2.1.6-1.4.6-1.8 0-4 0-5 .2-3 .5-3.4.6-7.2.8-.3 0-.4.1-.3.4 0 .2 0 .4-.5.5l-2.3.5c-2 .5-3 .6-3 .2zm5.9 0c0-.2.2-.4.6-.6.7-.2 1.1-.1 1.1.3 0 .3-1.5.5-1.7.2zm-17-.3c-1.7-.5-1.6-.9.1-.7 2.2.3 2.7.4 2.2.7-.4.3-1.1.3-2.3 0zm37-.3-5.1-.3c-2.3 0-4.3-.2-4.4-.3-.5-.3 0-.7.7-.5l4.2.2c1.9 0 4 .2 4.8.3 1.2.2 1.4.1 1.4-.2 0-.3.2-.5.8-.5.5 0 1.4-.2 2-.5 1-.5 1.3-.6 1.7-.3.3.2.7.2.9.1.6-.2.7.4.2.7-.3.2-1.6.4-2.9.5-2 .2-2.3.3-2.2.7 0 .5-.2.5-2 .1zm-30.8-.5c-.1-.1.3-.2 1-.2 1.6 0 2.1-.5.8-.7-2.2-.4-1.8-.7.7-.6l2.8-.1c.1-.1-.2-.2-.6-.2-.5 0-1-.2-1-.3-.3-.4 1.5-.2 3.4.3 1.2.3 1.6.8.8.8-.2 0-.3.1-.2.4.1.4 0 .4-.7.2-1.4-.3-3.7-.2-4.1.3-.5.4-2.7.5-3 .1zm-2.8-.8c0-.1.2-.2.5-.2s.6 0 .6.2-.3.3-.6.3-.5-.1-.5-.3zm41.2-1.8c.3-.3 3.5-1.1 3.7-1 .3.3-.3.7-1.2 1-1.2.3-2.9.3-2.5 0zm-37.6-.3c-.1-.2-.1-.4 0-.4.2-.3 1.4.1 1.4.4 0 .4-1.2.3-1.4 0zm-3.5-.1-5.5-1.1a48 48 0 0 1-4.2-1c-1-.2-2-.4-2.3-.3-.3 0-1.5 0-2.7-.4l-3.2-.7c-.8 0-1-.2-.7-.4h1.4c.6.2 1 .3 1.2.2.3-.3-.6-1-2.2-1.3l-7.2-2.3c-.4-.1-.6-.4-.6-.6 0-.5-1.8-1.7-3-2.1-1-.3-1.4-.6-1-.8.3-.3 4 1.7 5.1 2.6.6.6 2.2 1.2 5.2 2.2l5.7 1.9a69.6 69.6 0 0 0 9.9 2.6l1.6.4c1.7.3 3.5.8 3.5 1 0 .2-.5.2-1 0zm11.2-1-2.5-.3c-1.7-.2-2.5-.5-2.1-.8.1-.2 6.9 1 7.3 1.2.5.3-1.7.3-2.7 0zm7-.5c-.3-.5 0-.8.4-.2 0 .1.4.2.8 0 .4 0 .6 0 .6.2s-.2.3-.4.3l-.7.1c-.3.1-.6 0-.7-.4zm26.5.3c.2-.7 5.5-2 5.5-1.4 0 .4-.6.6-2.8 1l-2.4.6c-.3 0-.4 0-.3-.2zM91 110c-.1-.1 0-.4.2-.6.3-.2.4-.2.4.1 0 .5-.4.8-.6.5zm-20.1-.8c-.2-.3 1.1-1 1.7-1 .6 0 .2.7-.6 1-1 .3-1 .3-1.1 0zm17 0c0-.2.3-.3.5-.3.3 0 .6.1.6.3l-.6.2c-.2 0-.5 0-.5-.2zm6.8-.4c-1.8-.3-2.3-.8-.8-.9.8 0 3 .7 3 1 0 .2 0 .3-.2.2l-2-.3zm-32.8-.1c-.5-.4 0-.6 2-.6 1.9 0 2.3 0 2.3.4 0 .3-.4.4-2.1.4-1.2 0-2.2-.1-2.2-.2zm-13.7-.2-2.2-.4a6.6 6.6 0 0 1-2.4-.5c-.2-.3 0-.3 1.3-.2 3.2.4 4.1.6 4.1.8 0 .3-.6.5-.8.3zm49.1-.6.1-.5c.4-.2 1.6.1 1.6.5 0 .3-1.5.3-1.7 0zm-57.2-.2a.6.6 0 0 1-.3-.5c0-.2.1-.3.3-.3l1 .3c.4 0 .8.2.8.4 0 .3-1.2.3-1.8 0zm85.6-.4.3-.2c.2 0 .2 0 .1.2 0 .2-.2.3-.2.3-.1 0-.2-.1-.2-.3zm-20.3-1.5c0-.4.6-.6 1.8-.6.7 0 .8 0 .6.3-.4.4-2.4.6-2.4.3zm24.4 0c-.2-.5.4-.9 1.4-.9.6 0 .9.2.9.4 0 .3-.2.4-.6.4l-1 .2c-.3 0-.6 0-.7-.2zm3.5-2.4c-.2-.4.6-1 1.8-1l1.4-.4c.2-.3 1.2-.3 1.2 0 0 .2-.2.3-.4.4l-2 .6-2 .4zm-97.5-4c-.8-.9-4.3-2.1-10.4-3.6-4-1-6.3-1.7-6.3-2 0-.3.3-.3 1.7.1l3.6 1c6.9 1.5 12.3 3.5 12.3 4.5 0 .5-.5.6-1 0zM62.4 97c-.8-.1-1.3-.9-.9-1.6.3-.4 3.1-.7 3.4-.3.1.3-1.2 1.1-1.5.9h-1c-.7.2-.7.2-.2.4l1.4.3c.5 0 .9 0 .9.2 0 .3-.4.3-2 .1zm-29.3-1.5-2-.3c-3-.3-2.1-.7 1-.5 3.3.2 4 .3 4 .7 0 .2-2.4.3-3 0zm-6-.7a73 73 0 0 0-12-2.7l-2.1-.5-.1-.4c0-.3.1-.4.4-.2l4.3 1a43.5 43.5 0 0 1 10.6 2.7c0 .4-.1.4-1 0zm31.3-.2c0-.3.9-.6 1.8-.6.7 0 .8.4.1.7-.6.2-2 .2-2-.1zM29 93c-2.2-.4-5.5-1.5-5.5-2 0-.4 0-.4 1 0 .6.4 3.4 1 6.2 1.4 1.5.3 2 1 .6.9L29 93zm88.5-.5c.1-.1.3-.3.6-.3.2 0 .3.2.3.3 0 .1-.2.3-.5.3s-.5-.2-.4-.3zm-53.9-.1a276 276 0 0 0-17.7-.8c-6-.2-9.1-.5-8.8-1a85.5 85.5 0 0 1 16.4.6c2 0 2.5 0 2.5-.4 0-.6 2-.6 2.4 0 .2.5.7.6 2.6.7 2.3.2 5 1 3.4 1l-.8-.1zm67.8-.1.4-.6c.4-.3.4-.3.4.1-.1.5-.8 1-.8.5zm-38.9-.7c-.2-.2-.2-.4 0-.5.1-.1.4 0 .5.2.2.2.2.4 0 .5 0 .1-.3 0-.5-.2zm49.9.1.3-.3v.3c0 .2 0 .3-.2.3s-.2-.1-.1-.3zm-80-1c0-.2-.4-.3-.9-.3-.9 0-1-.4-.2-.7 1-.3 2.9.4 2.9 1 0 .3-1.5.3-1.7 0zm-10.8-.9c0-.1 0-.4.2-.5.3-.2.3-.3 0-.4-.6-.3-.3-.6.5-.6.5 0 .8.1.9.5.1.6.4.6 5.1.2.8 0 .9.4 0 .6-1.2.3-6.5.5-6.7.2zm-13.5-.3s.3-.2.8-.2c1 0 1.3-.3.6-.6-.5-.2.4-.7 1-.6.4 0 .5.2.5.5-.1.5 0 .5 4.3.4h4.5c0 .2 0 .4-.2.5-.6.2-11.4.2-11.5 0zm83.5-1c.5-.4 1-.7 1.2-.6.3.2-1 1.4-1.7 1.4-.3 0-.1-.2.5-.8zm18.8-.6c-1.8-.5-1.7-1 .2-.9 1.3 0 1.7.2 1.7.5 0 .6-.5.7-1.9.4zm3 0c-.1-.2.6-1.2 1-1.2.3 0 .3.9 0 1.3-.5.3-.7.4-1 0zm2.5-.7c-.2-.8 0-1.3.4-.5.1.3.1.7 0 .8-.2.2-.3 0-.4-.3zm-100.5 0c-1.8-.2-1.4-.4.9-.7 1.8-.2 2.6.2 1.4.7l-.8.2-1.5-.2zm91-.3.4-.2.4.2c0 .2-.2.3-.4.3s-.4-.1-.4-.3zM42 86.3l.1-.5c.4-.5 1.8-.5 1.8 0s-1.5 1-2 .5zm9.5-.6a33.4 33.4 0 0 1 11.4-.6c2.4.1 3 .2 3 .5 0 .4-.5.4-3.3.3-3.9-.2-3.4-.2-7.8 0-2.6 0-3.5 0-3.3-.2zm38.8-1.6c-.4-1.2-.4-1.6 0-1.6.3 0 .5.4.5 1 .2 1.4-.1 1.7-.5.6zm-39.1.2c-.5-.3-.5-.4-.1-.6.5-.1 1.8.3 1.8.7 0 .4-1.1.3-1.7-.1zm58.5-.3v-.6s.2 0 .3.3v.6s-.2 0-.3-.3zm4.6-.9c0-.3 1-1.2 1.3-1l-.1.7c-.3.5-1.2.7-1.2.3zm-6.3-.3c0-.1 0-.3.2-.3s.3.2.3.3c0 .2-.1.3-.3.3a.3.3 0 0 1-.2-.3zm-102.2-1 3.5-.8a1163.2 1163.2 0 0 0 8-1.4c.4.2-.5.5-5.6 1.5-4.7 1-6.7 1.1-5.9.7zm74.7-1c-.4-.7-.2-1.2.2-.7.2.1.3.5.2.8 0 .4-.1.4-.4-.2zm25.3-.3a.7.7 0 0 1-.2-.4c0-.2.1-.2.3 0 .2.2.2.4.2.5h-.3zm2.8 0c-.2-.5 0-.6.4-.4.2.2.2.3 0 .4 0 .1-.3 0-.4 0zm-27.2-.6c-.3-.4 0-.7.4-.3.2.2.2.3 0 .4-.1.1-.3 0-.4-.1zm15.6 0c-.2-.3.4-.6 1-.5.3 0 .6.3.6.4.2.4-1.4.5-1.6.1zm-5.2-.7c0-.4 1.5-1.7 2-1.7.4 0 .6.4.1.7-.1 0-.2.4 0 .7 0 .4 0 .5-1 .5-.6 0-1-.1-1-.2zm-75.1-.8 3-1a52 52 0 0 1 20.2-4.1c0 .3-.4.4-3.7.8a71 71 0 0 0-10.7 2.1c-.8.5-8.5 2.7-9.3 2.6-.3 0 0-.2.5-.4zm71.8-.3v-.9c.3-.2.4 0 .5.3v.9c-.2.1-.4 0-.5-.3zm2.3 0v-.3c.1 0 .4 0 .6-.2.6-.2.5.4-.1.7-.4.2-.5.2-.5-.1zm56.8-.3c0-.2.2-.2.3-.1.2 0 .3.2.3.2 0 .1-.1.2-.3.2l-.3-.3zm-61.3-.5c0-.6.4-1 .6-.6.2.3 0 1-.4 1-.1 0-.2-.1-.2-.4zM102 77c-.3-.6 0-.7.5-.2.2.3.3.5 0 .6 0 0-.3-.1-.5-.4zm34-.8c-.2-.4.1-.7.5-.3.1.1.2.3 0 .4-.2.1-.4 0-.5-.1zm5.1-.2c-.3-.2 0-.6.6-.6.3 0 .6.2.6.4 0 .4-.9.6-1.2.2zm-98.9-3c0-.2 2-.4 6-.4 1.4 0 1.8 0 2-.5.4-.4.9-.5 3.9-.7l5-.2c2.5 0 1.7.5-.8.5-1.3 0-2 .2-1.6.3.9.5 0 .8-2.9.7-2 0-3 0-3 .3-.2.4-8.6.4-8.6 0zm63.8-.4c0-.4.6-.8 3-1.6 1.8-.6 3.4-.8 3.4-.4l-1.8.7-3.1 1.1c-1.5.7-1.5.7-1.5.2zm4.7 0c-.4-.4-.2-.6.5-.6s.9.4.2.6c-.5.2-.5.2-.7 0zM86 72.2c-.6-.6-5-.9-12.1-.9a188.6 188.6 0 0 0-10.8.1l.2-.2.8-.2a226.6 226.6 0 0 1 14.3-.6c.2.2 1.5.4 3 .5 4 .4 6.8.7 7 .9.2 0 2 0 4-.3l3.7-.2c.4.4-.4.6-3 .8l-4.8.3c-1.4.1-2.1 0-2.3-.2zm27.3-.4c.6-.4 1.3-.5 1.1 0 0 .1-.4.3-.9.4-.7 0-.7 0-.2-.4zm-107.8-1 .2-1.3.2-.8.2 1c.2 1 .3 1 1 .9 1-.2 1 .1 0 .5-1 .5-1.6.4-1.6-.3zm138.4.3v-.7c.3-.4 1 0 1 .5 0 .6-.7.7-1 .2zM8.8 70.4l2-.4h1.4c-.2.2-1 .5-2 .5-1.1.2-1.6.1-1.4 0zm70.5-.4c-.8-.1-1.5-.4-1.5-.6-.2-.4 0-.4 5.5-.5 3 0 3.5 0 3.7-.4.3-.5 2-1 4.6-1.6 1.2-.2 1.7-.4 1.8-.8 0-.3.3-.5.5-.6 7.1-2.3 8.7-2.7 8.7-2.3 0 .3-.4.4-3.6 1.3-1.7.5-1.9.7-1.9 1.2 0 .6-.8.9-7.6 2.3-1.2.3-1.6.5-1.5.8 0 .6-.7.8-3.8.8-1.5 0-2.4.1-2 .2.4 0 .8.2 1 .3.3.4-2.1.3-3.9 0zm17.4-4.5h-.5c-1 .2-2.1.6-2.1.8 0 .1 2.4-.6 2.6-.8zm-83.4 4.2c.2-.2 1-.4 1.7-.4 1 0 3.4-.6 4.9-1.3l3.4-.8a198.2 198.2 0 0 0 6-1c1.5 0 1.8-.3 1.8-1.1 0-1 .5-1 .6 0 0 .5.2.7.9.7h1.3l.5.1-.5.2-3.7.6c-4.2.4-8 1.1-10 2-1.4.5-5.9 1.4-7 1.4-.4 0-.4 0 0-.4zm124-.3c0-.3 1.6-1.7 2-1.7.5 0 .3.5-.4 1.2-.8.7-1.3.9-1.5.5zm5.7-.4c-.1-.3-.7-.6-1.4-.8-.7-.1-1.2-.4-1.2-.5 0-.3.3-.3 1.9-.3 1 0 1.1-.1 1-.5 0-.4.2-.5 1.6-.5 1.6 0 2.8.4 2.5.8 0 .1-.7.2-1.5 0-.8 0-1.3 0-1.3.2s.3.3.7.3c1.6 0 .6 1.2-1.2 1.5-.8.1-1 0-1.1-.2zM7.5 67.6l.1-1.3c.1-.1.2.3.2 1 0 1.4-.1 1.6-.3.3zm-3.8-.4c0-.7 0-1 .1-.6v1.2l-.1-.6zm6.3 0-.2-1.6c0-.5 0-.3.3.5.3 1 .3 1.5.1 1.7-.2.2-.2 0-.2-.5zM108 67c0-.2 1.2-.9 1.5-.9.3 0 0 .8-.3 1-.6.2-1.2.1-1.2-.1zm39.7-1-2.8-1-2.3-1c-.4-.4 1.7 0 3.5.8 1 .3 2 .7 2.5.7.4.1.7.3.6.5-.1.4-.7.4-1.5 0zM7.6 64c0-.6.1-.8.2-.5v1c-.1.3-.2 0-.2-.5zm11.1-.5c0-.7.1-1.2.3-1.2.3 0 .3.9 0 1.8-.2.6-.3.5-.3-.6zm13.5 0c0-.8-.2-1.4-.4-1.7a57.5 57.5 0 0 1 .1-11.2c.3-1.1.4-13.7.2-15.4-.4-2.6-1.1-4.8-1.8-5.8-.5-.7 0-.9.6-.3l.6.5-.2-.8c-.3-1.6-.3-4 0-4 .5-.2.5 0 .9 4.3.5 6 .5 6.5 1 6.5.2 0 .3.2.3.7 0 1 .7 1.1 1 .2 0-.4.2-.7.3-.7.5 0 .3.5-.5 2.1-.6 1.3-.7 1.7-.5 2.1.3.6.3 2.7 0 3.3-.2.8-.5.2-.4-1.1.2-1 .1-1.4-.2-1.4-.3 0-.4.5-.5 2.1-.2 2.4-.1 2.8.6 2.7.6-.1 1.5-1.7 2.5-4.4l.6-1.5 1.2-.2 2.2-.4c.6-.1.9 0 .9.1 0 .3-2 1-3.3 1.2-.4 0-.8.6-1.2 1.4l-1 2c-.3.5-.6 2.4-.8 4.3a117.6 117.6 0 0 1-1.6 9.8c-.3.1-.3.9-.2 3.5.1 2.3.1 3.3-.1 3.3s-.3-.5-.3-1.3zM33.5 52a444.3 444.3 0 0 1 .6-6s-.4.2-.7.6c-.5.5-.6 1-.7 2.7-.1 3.3 0 6.2.3 5.6l.5-3zm-6.7 6.7c.1-5.5.3-8.1 1-14.6.2-2.4.4-3 .6-2.8a10 10 0 0 1 1.6 3.5c-.1.2.1 1.3.5 2.4.5 1.5.6 2.6.6 4v2.1l-.2-2.1c-.2-2.3-2-8.2-2.5-8l-.2 1.2c0 .6-.1 1.7-.3 2.5v2c.2.5.1.8-.2 1-.3.3-.4 1-.3 5.8 0 3.4-.1 5.5-.3 5.6-.1 0-.2.7 0 1.6 0 1 0 1.4-.2 1.4s-.2-1.5-.1-5.6zM38.5 64c-.2-.4 0-19.8.2-20.3 0-.2.3-.3.5-.3.3 0 .4.4.4 2.3 0 1.4-.1 2.5-.3 2.6-.2.2-.2.8-.1 1.5l.1 1.4c0 .1 0 1.3-.2 2.5-.2 1.9-.2 2.3.1 2.7.5.5.6 6.2.1 6-.1-.2-.2.2-.2.8 0 1-.4 1.5-.6.8zm73.9 0c0-.1 2.6-1 3.2-1 1 0 .4.4-1 .8-1.5.5-2.2.6-2.2.3zM14 63.2c0-.6 0-.8.1-.5v1.1l-.1-.6zm6.6.5c0-.3 0-.4.1-.2v.6l-.1-.4zm-14.3-.5c0-.3 0-.4.1-.2v.5l-.1-.3zm35 0-.3-1.8c-.2-1.6.3-1.5.6.1 0 .7.2 1.4.3 1.6.1.6-.3.7-.5.1zM44 63c-.4-1-.2-1.8.2-1.3.2.1.3.6.2 1.1l-.1 1zm4.8.3c-.2-.4-.3-7.3 0-7.7 0-.1.2.5.2 1.4.1 1 .4 2.2.6 2.8.7 1.9 0 4.8-.8 3.5zm-25.8-1c0-.8.1-1.4.3-1.5.3-.2.3 1.8 0 2.3-.2.2-.3 0-.3-.9zm85.2.1c0-.2.2-.4.4-.4.5 0 .4.6 0 .7-.2.1-.4 0-.4-.3zM95 62c0-.1.3-.3.7-.4l1.3-.3c.4 0 .6 0 .6.3 0 .2-.4.4-1 .5-1.3.2-1.6.2-1.6 0zm41.6-.7.2-.5.4-.1c.3 0 .4.1.3.4l-.2.5-.4.1c-.3 0-.4-.1-.3-.4zm9 0c-.2-.1-.5-.7-.7-1.3l-.4-1v1c0 .5-.1 1-.3 1l-.3-.2-.1-2.7v-2.4c.4 0 .7.6.7 1.4 0 .3.1.7.3 1 .4.4 1.4 3.3 1.2 3.5 0 .1-.3 0-.4-.2zm-116 0c-.2-.2-.1-.3 0-.3.2 0 .3 0 .3.2l-.1.3-.3-.3zm7.5-7c0-4.2.1-7.4.3-7.4.1 0 .2 3 .1 7.3 0 4-.2 7.3-.3 7.3 0 0-.2-3.3-.1-7.3zm100.9 6.7.3-1.2c0-.4.3-.7.4-.7.3 0 .3 1.2 0 1.9-.4.6-1 .7-.7 0zM15.6 59.8c0-.8 0-1.1.1-.7v1.4c0 .4-.1.1-.1-.7zm3.4.8.2-.9.2-.2c.4 0 .1 1.3-.3 1.5-.1.1-.2 0 0-.4zm16.6 0c-.2-.7-.1-1 .2-.7V61.2zm21.2-.4c0-.8 1-2.6 1.3-2.4.2.2-.8 3-1.1 3l-.2-.6zm26.3.4c-.2-.3.1-.4 1.8-.7.7 0 1.3-.2 1.4-.4l.5-.2c.7 0 0 1-1 1.3-1 .3-2.5.3-2.7 0zm57.3-.5a6 6 0 0 1-.3-2.8c0-1.4.6-1.2.6.3 0 1 0 1.4.4 1.5.5.2.5 1.8 0 1.8-.2 0-.5-.4-.7-.8zm2-.2c-.3-.8-.3-1 0-1.2l.2-1c0-.5.2-1 .4-1 .2-.1.3.4.3 2 0 1.2 0 2.1-.2 2.1-.1 0-.4-.4-.6-1zm-89.2.3c-.2-.6-.1-3.9.2-4.5.1-.4.2-.2.2.8 0 1.6.4 2 .9 1 .2-.4.4-.6.5-.4a10 10 0 0 1-1.5 3.5l-.3-.4zm14.3.1c-.2-.4 0-1.6.4-1.6.3 0 .3 1 0 1.6-.1.3-.2.3-.4 0zm-25.3-1c-.3-1-.2-1.7.3-1.2.3.4.5 2 .3 2-.2.2-.4-.2-.6-.8zm4.5.4-.3-1.6c-.4-.8-.4-.9 0-.9s.5-.3.5-3.1c0-1.8 0-3.3.2-3.5 0 0 .2 2 .2 4.8 0 3.1-.1 5-.3 5-.1 0-.3-.4-.3-.7zm26.8-1.2v-2l.3 1.7c.2 1.2.2 1.7 0 2-.3.2-.3-.3-.3-1.7zM4 57.7c0-1.3.1-2.3.2-2.4.2-.2 0 3-.2 3.8v-1.4zm59 1.7c-.2-.5 0-1.2.3-1.2s.3 1.3 0 1.4c-.1.1-.3 0-.4-.2zm-19-.3c-.8-1-1.9-2.4-1.9-2.6l.3-.1c.2 0 2.4 2.7 2.4 3 0 .3-.4.1-.8-.3zM9.5 57.9c0-.5 0-.7.1-.4v1l-.1-.6zm9.6 0c.2-1.5 1.3-4.4 1.4-4l-.5 2.4c-.7 2.3-1.2 3.2-1 1.5zm31.6.1c-.4-.8-.4-1-.1-2.2.2-.8.4-2.2.4-3.1 0-1.9.1-2 .4-.5 0 .6.2 1.2.4 1.3.2.1.2.4 0 1-.2.5-.5 1.7-.5 2.6L51 59zM11 58c-.2 0-.2-.9-.2-1.8 0-1.6 0-1.6.3-.5.2 1.2.2 2.7-.1 2.4zm131 0c-.4-.3-.3-4.2 0-4.4.5-.3.5-.1.3 2.3-.1 1.3-.3 2.3-.4 2.2zm-48.6-.7c1-.6 3-1.2 3.2-1 .4.4 0 .5-1.6 1-2 .5-2.6.5-1.6 0zm-16.6-.1v-.5c.2-.2.4.1.3.5 0 .3-.1.3-.3 0zm-61.1-2c.2-2.4.5-2.8.4-.5 0 1-.2 1.9-.3 2-.2.2-.2-.4-.1-1.5zm76.9 1c.1-.4 1.4-.8 1.8-.4.5.4 0 .8-1 .8-.6 0-.9 0-.8-.3zM6 55a321.8 321.8 0 0 0-.7-18.8c.3 0 .4 1 .6 3.8.2 5.4.6 5.9.6.9 0-3.4.1-4 .3-3 .2.6.2 2.5.1 4.3a99.3 99.3 0 0 0-.3 8.7 12 12 0 0 0-.1 2.7c0 1.7 0 2.5-.2 2.5S6 55.6 6 55zm29.3.4c-.3-.6 0-5.8.3-5.5V53c0 2-.2 2.8-.3 2.4zm13.3-1v-2.2c0-.8 0-1.6-.2-1.7-.4-.5-1.7-4-1.6-4.3 0-.2.4.3.7 1l.8 1.9c.2.3.2-.7.1-3-.1-2.5 0-3.5.2-3.5s.3.8.3 2.4c0 1.4 0 3 .2 3.7.2 1.3.3 1.2.8-1.3.2-.7.4-1.4.6-1.4.3 0 .3.1-.4 2.8a92.1 92.1 0 0 0-1.5 5.6zm9.2.2a73.8 73.8 0 0 0-.4-8.1c-.2-2 0-2.7.3-2 .2.2.5 10.3.4 10.3l-.3-.2zM4 53.7c-.4-1.1-.7-5.8-.4-6 .2 0 .3.8.3 2 0 1 .1 2.2.3 2.4l.2 1.6-.1 1zm21.6-2.9c0-1.9 0-3.4.2-3.4.1 0 .2 1.5.2 3.4s-.1 3.4-.2 3.4-.2-1.5-.2-3.4zm17.3 2.4c-.6-.7-.9-1-.6-1 .4 0 2 1.5 2 1.9 0 .3-.4 0-1.4-1zm-28.6-2.5.3-4.9.2-1.4L13 43c-1.3-1.3-1.6-1.6-1.4-2.1.2-.8.6-.7.6 0s1.8 2.9 2.3 2.9c.2 0 .4-1 .5-3.2a109.5 109.5 0 0 1 .5-7.4l-1-.4c-1.3-.2-3-1-2.6-1.1.2-.1 1 0 1.8.3l1.7.3v-2.6c0-1.8 0-2.4.3-2 .1.2.3 2.4.3 4.8 0 2.6 0 4.4.2 4.4s.3-.4.3-1c0-.4 0-1 .2-1 .2-.1.3.2.3.9 0 1.7-.3 3.5-.6 3.5-.5 0-1 2-1 3.9 0 1.3.2 1.6.8 2.4.7.8.9.9 1.1.5a25 25 0 0 1 3.2-3.6c.5-.2.1.7-.8 1.6-2.4 2.6-2.7 3.1-2.7 5 0 1.3-.1 1.5-.2.7-.2-.9-.2-.9-.5.6-.2 1.3-.2 1.3-.3-1.7-.1-5.5-1.4-3.6-1.5 2.4 0 1.5-.1 2.8-.3 3v-3.3zm2-13.2c-.2-.2-.2-.1-.2.2 0 .3 0 .4.1.3v-.5zM19 52.7l.8-2.2c.5-1.3 1-2 .8-1-.3 1.3-1.4 4-1.7 4.2-.2 0-.2-.3.1-1zm5.3.7v-1c.2-.4.2-.4.3 0v1c-.1.4-.1.4-.3 0zM54 50.8l.2-2.8c0-.8 0-1 .2-.6.5.7.2 5-.3 5-.2 0-.2-.6-.1-1.6zM40 51c-.3 0-.4-.3-.2-1.2L40 45c0-2.3 0-3.7.3-3.6.1 0 .2 1.8.2 4.4 0 2.4.2 4.6.3 5 .2.5.1.6-.7.3zM24.5 51c-.3-.3-.2-2.2.1-2.2.2 0 .3.5.3 1.2 0 1.2 0 1.3-.4 1zm19.6-.2c-.3-.6-.5-2-.2-2.1.1-.1.3.2.4.7.2 1 .1 1.8-.2 1.4zm-33.9-.8a901.2 901.2 0 0 1-.2-2c.1 0 .3.5.4 1.2.2 1.4 0 2-.2.8zm-2-2.6c0-1 .1-1.8.3-1.8.2 0 .2.6 0 1.7-.2 2.2-.3 2.2-.3 0zm47.4-.6a24 24 0 0 0-.7-3.4c-.3-1-.3-1.5 0-1.2a15 15 0 0 1 1.3 5c.3 2.6-.2 2.3-.6-.4zM20 47.9c0-.3 1.6-3 2.5-4.1.4-.5.4-.5.4.3 0 .5-.1 1-.3 1l-1 1.2c-.6 1.1-1.6 2-1.6 1.6zm22.2-1.6c0-.5 0-1.6-.2-2.5-.4-1.7-.3-2.4.2-1.6.4.8.7 5.2.3 5.2-.1 0-.3-.5-.3-1zm-34-1.6v-.3c.2.2.2.5 0 .6v-.3zm44.4-3.1c0-1.2-.2-2.2-.3-2.3-.2-.1-.3.2-.3.6 0 .9-.3 1.1-.6.5l.1-2c.1-1 .2-1.3.4-1 .3 1 .6 1 2.7.5 3-.6 7.5-1 8-.7 1 .6.6 1-.7.7-1.3-.1-4.1.2-7.4.8l-1.5.4v1c0 .5.3 1.2.5 1.5.5.8.5 1.1-.3 1.6l-.6.5zm-27-3.3c0-2.7.1-5 .2-4.8a24.8 24.8 0 0 1 .1 9.9c-.1 0-.2-2.3-.2-5zm18.8 4c0-.6-.2-1-.4-1.1-.3-.1-.4-.7-.4-2.4 0-2.3-.3-3-1-2.1-.3.4-.3.4-.4-.2a2 2 0 0 0-.3-1 17 17 0 0 1-1.5-4.2c0-.6.6 0 1 1 .3.7.6 1.5.6 2 0 .6 0 .7.3.4.4-.4 1-.4 1 0l.4.8c.3.3.5 1 .5 2.3 0 1.9.3 2.6.5 1.9l.4-2.6a8 8 0 0 1 .8-3l.7-1.4c.2-.5.5-.9.8-1l.7-.2c0-.2.4-.2.7-.1.4.1.6.3.6 1 0 .3-.1.7-.3.7l-.2-.4c0-.5 0-.5-1-.2-.4.2-.7.6-.8 1.2 0 .6-.4 1.3-.8 1.6-.6.6-.6.9-.6 3.2 0 2-.1 2.6-.4 2.7-.2 0-.4.5-.4.9s-.1.8-.3.9c-.1 0-.2-.2-.2-.8zm-25.2-.5c0-.2.4-.7 1-1.2 1.1-1.2 1.5-.6.3.6-.9.9-1.3 1-1.3.6zm51.4-.6c-.2-.3-.3-.5 0-.6.4-.3 1.6.1 1.5.5-.2.5-1.2.5-1.5 0zM8.8 39.9l-.4-4.4a228 228 0 0 0-.6-6.1c-.2-2.4-.3-3.9-.1-3.7a76.3 76.3 0 0 1 1 14.2zM70 40s.1-.2.3-.2c.1 0 .3.1.3.3l-.3.2a.3.3 0 0 1-.3-.2zm-40.4-.4-.3-1c.1-.5.2-.4.5 0 .2.4.3.9.2 1.1 0 .4-.1.4-.4-.1zm-11.2 0c0-.2 1.9-3.6 2.2-3.9.5-.6.2.7-.6 2-.8 1.4-1.6 2.4-1.6 2zm4.5-.3c-.3-1-.3-2.3 0-2 .2.2.3.8.2 1.5 0 1 0 1-.2.5zm-11-.8c0-.6.2-.7.7-.2.4.4.3.7-.3.7-.3 0-.5-.2-.5-.5zm-6-2-.2-.6c0-.3.1-.4.3-.2.2.2.3.5.2.6 0 .2-.2.3-.3.2zM50.3 35c-.2-.5-.3-1-.1-1 .3-.2.6.5.5 1.2-.1.6-.2.6-.4-.2zM11 30.7l.2-6.5c0-1.2 0-1.7.3-1.6.2.2.2 1.5 0 4.8v6.1c0 1-.1 1.7-.3 1.8-.3.2-.3-.8-.2-4.6zm13 3.7v-2.8l.2-3.4c0-1.2.3-1.2.7 0 .3.7.3 1 0 1.5-.2.3-.4 1.6-.5 2.8 0 1.3-.2 2.1-.3 1.9zm-5.9-1.6c0-.7.2-1.4.3-1.5.4-.4.5.2.3 1.5-.2 1.8-.7 1.8-.6 0zm43.8.8c-.5-.8-.6-1 0-1 .5 0 1 1 .7 1.3-.2.2-.4 0-.7-.3zm2.3.3c-.2-.5.1-.7.5-.4.1.2.2.4 0 .5l-.5-.1zm1.8 0c-.8-.1-.4-.6.6-.6 1.3 0 1.3-.2-.1-1-1.1-.5-1.5-.6-1.9-.3-.5.3-1.8.1-3-.4-.8-.5-1-.7-.8-1.3.3-.7 2.5-.5 4.2.4 1.2.6 1.8.8 2.4.7.6 0 1 0 1.2.2.2.2.6.4 1 .4.7 0 .7.2 0 1.2-.5.6-1 .7-1.8.8H66zM64 31c-.5-.3-1.9-.3-1.7 0 .1.2.6.3 1.2.3.7 0 .8 0 .5-.2zm-27.7 1.9c-.2-.5-.3-1.3-.3-1.8a26.2 26.2 0 0 0-2.4-9.9c-.4-2.2-1.2-2.4-2.3-.6-1.2 2-2.5 1.9-2.9 0-.2-1.3.1-1.5.6-.3l.6 1c.1 0 .6-.6 1-1.4.6-.7 1.1-1.4 1.4-1.5.6-.2 1.7 1.3 2.2 3 .3.9.7 1.5 1 1.6.6.2 1.1 2.6 1.2 6 0 1.2.2 2.6.3 3 .1.9.1 1 .6.5l.8-.4c.1 0 .3-.2.3-.4 0-.8.9-2 1.4-2 .6.2 1 1 .3 1-.6 0-1.2 1.1-1.2 2.1 0 .5-.1.9-.3.9-.1 0-.2-.3-.2-.7V32l-.4.8c-.6 1-1.4 1-1.7-.1zm23 .4c-2-.9-2.7-2.3-1.5-2.8.8-.4 1.5-.1 1.5.6 0 .4-.1.5-.6.4-.9-.2-.5.2.7.8 1.1.6 1.4 1 1 1.2-.1.1-.6 0-1.1-.2zM17 33a10 10 0 0 1 .4-4.1c.4-.5.4-.4.2 1.1-.2 2-.5 3.5-.6 3zm11-.2c-.2-.3-.2-1.7.1-1.7.2 0 .3.4.3 1 0 .9 0 1-.4.7zM5.3 31.5V31v1-.5zm14.5-.2c0-.3 1.4-1.1 1.8-1.1.5 0 .3.5-.5.9-.9.4-1.3.5-1.3.2zM14.6 30c-.2-1-.3-1.2-1.2-1.6-1-.4-1.5-1-.5-.8l1 .3c.5.2.6 0 .6-.8 0-.5 0-.9.2-.8.3.2.5 2.2.3 3.6l-.2 1.2zM5 28.5c0-1 .1-1.8.3-1.8.1 0 .3.7.3 1.6 0 .9-.2 1.6-.3 1.7-.2.1-.3-.5-.3-1.5zm73 .6c.2-.2 2.5-.8 3.4-.8.6 0 .4.5-.2.6-1.5.4-3.5.5-3.3.2zm-49-1c-.2-1-.2-2 0-2 .5 0 .6.7.4 1.7-.2.9-.2.9-.4.2zM9.4 26.2c-.3-.4-.1-9.8.1-10 .1-.2.2-.2.3-.1a67.5 67.5 0 0 1-.4 10zm11.3 0c-.3-.3-.2-3.3.1-3.3.2 0 .3.8.3 1.7 0 1.8 0 1.9-.4 1.6zm60.6-1c-.9-.2-1-1 0-1l1.2.3c.4.3.5.4.2.6l-.5.2-.9-.2zm-64-2.5c-.2-1.3-.4-2.3-.6-2.5-.3-.2-.3-.3 0-.6.1-.3.2-1.3 0-3.2 0-3 0-3 .7 1.4.2 1 .2 1.8.1 2v1.4c.1 1 .2 1.2.8 1.2h.7l-.2-2.4c-.1-1.8-.1-2.4.1-2.3.2.2.3 1.2.3 3.3 0 1.7-.1 2.8-.2 2.5-.1-.7-.2-.7-.8-.2-.3.4-.3.6 0 1 .2.4.2.5-.3.5-.4 0-.5-.3-.7-2.1zm57.1 1.4-.1-.7c0-.6.6-.7.8-.1.2.4-.4 1-.7.8zm2-.4s.2-.3.6-.3l1.2-.4c.4-.1.6 0 .6.4 0 .5-.2.6-1.2.6-.7 0-1.2-.1-1.2-.3zM14 23.4c-.2-.4 0-.7.4-.5.3.2.3 1 0 1l-.4-.5zm8-.1c-.3-.3 0-1.6.3-1.6.2 0 .3.4.3 1 0 .8-.4 1.1-.7.6zm57.4 0c0-.3.7-.6 1-.4v.4c-.2.3-1 .3-1 0zm-72-.8c-.2-.2-.3-1.6-.4-3.2-.2-2.4-.2-2.8.2-3 .4-.3.4-.2.6.7a16 16 0 0 1 0 5.7c-.1 0-.4 0-.5-.2zm70.3 0c-.3-.5.2-.8 1.1-.8 1 0 1.2.4.2.8-.8.3-1 .3-1.3 0zm3.3-.5c.1-.6-1-1-2.5-.7-1.2.3-1.2-.3.2-1 .7-.4.9-.4 1.3 0 .2.2.7.3 1 .3.8 0 1.3.5 1.2 1v.6c0 .2-.4.3-.7.3-.5 0-.7-.1-.5-.5zm-57.5-.1c-.2-.6 0-1.3.4-1.3.5 0 .6.9.2 1.3-.4.4-.5.4-.6 0zm59.2-1.4c-.5-.2-.4-.7.2-.7.3 0 .5.2.5.4 0 .4-.1.5-.7.3zm-2-.6c-.2-.2-.2-.4 0-.5.1-.3.4.1.3.5-.1.2-.2.2-.3 0zm-6.3-.4c-.2-.3-.2-.5 0-.6.5-.3 1 .3.6.7-.1.2-.3.1-.6-.1zm-60.4-.7c-.3-1.4-.2-5 0-5s.4.6.4 1.5l.1 2.9c.2 1.5-.2 2-.5.6zm11 .2.2-1.1c0-.3.3-1 .6-1.4.7-.7.7-.8 1.2-.3.3.3.6.7.6 1l.3.8c.4.6.2 1-.4.7-.3-.1-.4-.5-.4-1s-.2-.8-.4-.8c-.5 0-1 1-1 2 0 .5-.1.7-.4.7-.3 0-.4-.2-.3-.6zm-19.7-.5L5 16.9l-.3-2.3v-1.1c.2 0 .4 1.2.6 2.6.3 2.4.2 3.3 0 2.4zm55.1.1.5-1c.4-.7 1.3-1.1 2-.8.6.2.5.7-.2.7-.3 0-.9.3-1.2.6-.6.6-1.1.9-1.1.5zm-49.7-.2c-.3-1.1.3-5.3.8-5.6.3-.2.3.9 0 2.1a23.7 23.7 0 0 0-.8 3.5zm9.4-2v-.9c.2 0 .3.1.4.5.2.8-.2 1.1-.4.3zm61.6-.6c-.3-.2-.4-.5-.3-.6.2-.3 1.6.4 1.4.7-.3.3-.5.3-1.1-.1zM19 14.6a28 28 0 0 0-.3-2.1c-.1-.5 0-.6.1-.5.3.2.7 2.7.5 3.5 0 .3-.2-.1-.3-1zM5.8 12.7c-.1-.7-.2-1.3-.1-1.4.2-.4.6 1 .5 1.8 0 .7-.1.7-.4-.4zm74.1.8h-2c-1.3 0-2.2-.1-2.6-.3-.6-.4-.7-1-.1-1 .2 0 .4.2.4.4 0 .3.1.4.4.3l1-.2c.5 0 .5 0-.1-.4a3 3 0 0 0-1-.4c-.4 0-2.1-1.1-2.2-1.4h.5l1 .2c.4 0 .8.2 1 .5.5 1 4 1.9 6.3 1.6 1.4-.1 1.6 0 1.5.3 0 .4-.4.5-2 .5l-2-.1zm-67.6-.3.3-1.3.5-2.5c.2-1 .5-1.7 1-2.2l.6-.7v.7c0 .4.3 1 .6 1.2.5.5.7 1.1.3 1.1-.2 0-.6-.3-1-.6l-.6-.6-.3 1.3-.3 1.7c0 .8-.5 2.2-.8 2.2-.2 0-.3-.2-.3-.3zm4.2.1c-.3-.5-.3-3.5 0-3.8.5-.5 1.3.4 1.6 1.7.4 1.5.4 1.8 0 1.8 0 0-.2-.2-.2-.5 0-.7-.6-2.4-.8-2.4-.1 0-.3.8-.3 1.7 0 1-.2 1.7-.3 1.5zm63-2c.2-.3.5-.4.6-.2.2.1 1 .2 1.9 0 1.3 0 1.6 0 1.5.3-.1.3-.8.4-2.4.5H79zm-75.2.2-.2-.9c0-.5.1-.6.3-.4.2.2.3.6.2 1 0 .2-.2.4-.3.3zm77.9-1.2.4-.4c.3-.1.3-.3.1-.5-.1-.2-.2-.4 0-.5.2-.2.8 1 .6 1.4-.1.3-1.1.4-1.1 0zm-48.6-.8c-1-.5-.7-.7.6-.7 1.2 0 1.3 0 1.4-.5 0-.7 1.4-1.4 2.4-1.4.3 0 .5-.2.5-.4 0-.5.3-.5 1 .1.9.7.5 1.2-.7 1-1.2-.1-2.1.2-2.1.8 0 .3.2.4 1 .2.7 0 .8 0 .8.4 0 .5 0 .6-.9.4l-1 .1c-.3.4-2.3.3-3 0zm25.9-2c-.6-.5-.8-1.2-.4-1.2A5 5 0 0 1 60.8 8c0 .4-.8.2-1.3-.4zm2.2-1.4A9.1 9.1 0 0 1 60 4.6c-.6-.9-.6-.9 0-.9l.5.2c0 .4 1.3 2 1.6 2v-.6c-.4-.5-.1-2 .2-1.8l.2 1.5c0 .6.2 1.3.4 1.3.3.1.3.6 0 .6a6 6 0 0 1-1.2-.8zM85 4c.4-.4 1.8-.5 1.9-.1 0 .2-.2.3-1 .3-.7 0-1 0-1-.2z"/>
</svg>
