<?xml version="1.0" encoding="utf-8"?>
<svg xmlns="http://www.w3.org/2000/svg" xmlns:svg="http://www.w3.org/2000/svg" version="1.1" viewBox="0 0 520 361">
	<title>Mrs. Tabitha has turned around on her chair and noticed the open cupboard door. Behind her, a kitten’s ears are poking out of the wooden barrel.</title>
	<path d="M336 360.6c-.1-.3.5-.6 1.1-.5.2 0 .4.2.4.4 0 .4-1.2.5-1.4.1zm-240-14c-2-.8-8-1.1-13.1-.8-3.9.3-5.9.3-11.1-.2-2.3-.2-3.2-.8-2.7-1.6.3-.4.7-.4 3-.4 1.4 0 3.9.3 5.5.5 2 .3 4.2.3 7.2.2 4.3-.2 7 0 11.1.9 3.3.7 3.4.7 5 .5a6 6 0 0 0 2.5-1l1.3-.7c1 0-1.7 2.8-2.7 3-2.6 0-4.7 0-6-.5zm10.7-2.9c-1-.4 1.6-1.3 4.8-1.7 3.8-.5 7.4-1.2 7.8-1.4l2.6-.4c1.3 0 2.5-.3 2.7-.4.2-.3.2-.6 0-1.4-.4-1-.4-1.1 0-1.5.4-.4 1.1-.5 6.6-.4 6.5 0 7.8 0 9-1 .6-.5 1.3-.7 3.3-.8 4.4-.4 8-.6 8.6-.4.8.2 1.5 1.3 1.5 2.5 0 2 .3 2.1 8 2.2l8.7.3c2.5.2 3.8.1 5.5-.2l4-.6c2-.2 3-.5 3.3-1 0-.2-.4-1-1-1.9a7.9 7.9 0 0 1-1.2-1.9c0-.6 1.1-1.3 3.6-2.2 1.4-.4 3.3-1.2 4.3-1.6 3.2-1.6 6.6-1 8.3 1.2.9 1.1.9 1.9 0 3l-.6 1c0 .3 9.6 0 10.8-.3 1.9-.5 6.8-1 9.1-1l3.9.5c2.4.5 4 0 6.3-2a10 10 0 0 1 2-1.6l1.4-1c1-1 1.3-1.2 2.3-1.2.9 0 1.4.1 1.8.5 1 1 2.3 1.2 6.8 1.4a137.2 137.2 0 0 1 10.4.4c1.2-.1 1.4-.2 1.7-1 .6-1.4 1.4-1.8 5.2-2.1a62.3 62.3 0 0 0 13-2.5c1.4-.4 2.3-.6 6.1-1.1 2.1-.3 2.1-.3 3.8.5a36.4 36.4 0 0 0 12.9 1.7c.5-.2 1.5 0 4 .6 1.7.5 2.5.2 2.5-1 0-1.9.3-2 4-2.9 2.6-.5 3.3-1 1.8-1.4-.7-.1-1.3-1-1-1.4.4-.4 7.7-.9 20-1.4l6.1-.2 1.3.6c1.2.6 1.8.7 6.2 1 4.7.1 6 0 7.7-.5 1.7-.6 2.3-1 3.5-2.7 1.6-2.2 2-2.4 4.9-2.3h2.7c.6-.2.6-.8 0-1-.7-.3-4-.2-4.3.2-.2.2-.4.2-.9 0-.4-.3-.6-.4-.7-.1-.1.4-1.3.3-1.3-.1 0-.5 1-.6 3.5-.5.7 0 1.2 0 1.2-.2l1.2-.4c1.2-.2 1.7-.7.7-.7-.7 0-3-.9-4-1.5-1.3-1-2.1-2.2-2.1-3.4l-.2-1.3-2-1.2a9.4 9.4 0 0 1-2.8-2l-1-1.2h-9.3l-.8-.8a9 9 0 0 0-3-1.4 19 19 0 0 1-3.1-1.1c-.6-.4-4-.4-9.1.1-2.1.2-2.9 0-1.6-.4a26 26 0 0 1 8.6-1c4.1.3 5.6-.4 3.2-1.5-.7-.3-2.5-1-4-1.4-2.4-.8-3.9-1.4-5.8-2.3-2-1-2-2.2.2-3.2 2-.9 2.2-1.2 2-2.4-.3-1.8-1-2.5-2.7-3-1-.4-1.7-.7-1.8-.9l-1.1-.2c-.6 0-1.5-.2-2-.4-2.8-1-7.8-2.2-10.3-2.4-1.3-.2-1.6-.1-1.6.2l.3.6c.5.3.3 1-.3 1-.3 0-1-.4-1.8-.7-1.6-.9-1.9-.9-1.9 0 0 .3-.2.7-.5.9-.7.4-4 .3-6.1-.2-2.5-.5-3.7-.5-4 0-.8 1-2.5 1-7.8-.5-2.2-.6-2.5-.7-3.2-.3-.8.4-4 .5-9.2.1h-1l-.2 1.4v2.9c.2.8.3 2.2.1 3.3 0 1.3 0 2 .2 2.1.6.5.3 1.7-.9 2.7-1 .9-1.4 1.1-3 1.4-2.2.5-4.6.3-5.3-.3-.3-.2-1-.4-1.9-.4l-1.7-.2-2.3-.2a6 6 0 0 1-3.2-.7c-1-.6-1.4-.6-3.8-.4l-2.7.1-.9 1.1a80.4 80.4 0 0 1-5.2 5.7c-.4 0-1.8.7-3 1.5l-2.2 1.4h-2.4c-2.5 0-5-.5-6.8-1.4-1-.6-2.4-1-5.5-1.4a29 29 0 0 1-3.2-.6 17 17 0 0 0-2.6-.5c-.8-.1-1.9-.4-2.5-.7-.5-.3-1.4-.6-1.8-.6-1 0-4.9-.6-6.6-1l-3-.5c-2-.3-4.6-.8-7.6-1.8a14 14 0 0 0-3.1-.6c-.7 0-1.7-.3-2.4-.7a19 19 0 0 0-6.2-1.6 50 50 0 0 1-4.2-1 9.9 9.9 0 0 0-4.3-.3l-6 .2a83 83 0 0 0-10.3.8c-1.6.2-2 .2-3.8-.3a53.9 53.9 0 0 1-7.8-2.7c-.3 0-1.4-.4-2.5-.9a19.3 19.3 0 0 0-9.7-2c-4 0-5 0-6.4.4-1.6.4-1.8.4-3 0-.7-.2-1.7-.5-2.2-.5-1.5-.3-4-1.6-5.4-2.9-.7-.7-1.4-1.3-1.6-1.3l.7-.4c1-.3.8-.4 4.1 1.9l2.8 1.1c1.8.6 2.5.7 4.5.6a95.5 95.5 0 0 1 10.4 0c.4-.4-.4-1.1-1.4-1.4-.7-.2-1.4-.7-2-1.3-.9-.9-1-1-2.4-1-1.7 0-3.4-.8-3.8-1.7-.2-.5-.6-.8-1.6-1.1-1.2-.5-1.3-.5-1.4-1.6 0-1.2-.1-1.2-2-1.5-1-.2-1.3-.4-1.5-.8-.4-.8 0-1.5.9-1.5.2 0 .5 0 .5-.2 0-.3-1.7-.5-6.6-.8-3.8-.2-4.4-.4-4.2-1.2.1-.5 1.3-1 2.4-1 1.8 0 2.5-.2 2.5-.6 0-.2-.2-.4-.4-.4l-5-.4c-3.7-.2-4.7-.4-5-.8-.5-.4-.5-.5 0-1.2l.4-.8h-.9a80 80 0 0 0-4.8-.4c-4-.1-4.7-.2-6.6-1a9 9 0 0 0-3.8-.4c-2 0-2.8 0-3-.3-.7-1.2.6-1.3 10.4-1.5a75.5 75.5 0 0 0 11.2-.8 398.1 398.1 0 0 1 20.7-.7c.2-.1.3-.4.3-.8 0-.8-1-5-2.1-8.4l-1-2.7h-1.1a94 94 0 0 0-9.5 1.2c-.7.2-2.1.3-3.2.4-2 0-2.1 0-2.8.7-.8 1-1.2.9-6.1-.8-2.5-.8-4-1.1-5-1.1a63.9 63.9 0 0 0-21.5-.1c-1.8.2-3 .2-3.4 0-.4-.1-.8-.2-.9 0l-.5-.3c-.5-.6-.2-.6 6-1.2a449.1 449.1 0 0 0 20.6-2.3c7.4-1 22.4-1.7 23.3-.9.2.2.3.5 0 1-.2.6-.1.6 1.3.6.8 0 1.5-.1 1.5-.2.1-.2-.3-1.4-.9-2.9a38 38 0 0 1-2.3-8.8 29 29 0 0 0-1-4.4c-.5-1.2-1-3-1.1-3.9-.2-1-.6-2-.8-2.1a178.4 178.4 0 0 0-26.1.5 899.3 899.3 0 0 1-31 .3c-18 .4-21.7.4-22 0-.3-.4-.2-.5 1-.6a400.6 400.6 0 0 1 24.6-1 321.6 321.6 0 0 1 11.5-.6l16.5-.3a314.3 314.3 0 0 0 24-.7c.8-.2 1-.3 1-1.1a45.3 45.3 0 0 1-.8-11.2c.1-1.1 0-1.6-.2-1.8-.4-.3-21.4-.2-37.6.3-6.8.2-31.2.2-32.6 0-3.3-.5 1.3-1 11.2-1.3a32391 32391 0 0 0 31.3-1c1.8-.3 8.1-.3 9.9 0 1 .2 2.1.2 3.2 0 2.6-.3 11.8-.5 13-.2 1.5.4 1.9 0 2.1-1.6.1-.6.5-1.9.9-2.7.6-1.5.7-1.6.2-2-.3-.4-.5-.4-1-.2a463.6 463.6 0 0 1-31 .2l.3-.4c.3-.2 4-.3 14.8-.4a715.2 715.2 0 0 0 17-.2c.6-.6 1.6-3.1 1.6-4.2a42.7 42.7 0 0 1 5.4-13.5c1-2 2.9-4.3 5.1-6.1 2-1.6 5.1-3.6 5.6-3.6.2 0 1-.5 1.7-1.1.8-.7 2-1.5 2.9-2 2-1.2 2.3-2 1-3.2-.5-.4-1.3-1.5-1.8-2.4-.6-1-1.4-1.9-2-2.3-2.7-1.8-3.6-4.2-3-8 .1-1.1.4-2.3.6-2.7l1-3c1-3 2.1-6.2 2.8-7.5.5-1 .8-3.7 1-8.4 0-2.2 0-2.8-.5-3.5-.3-.5-.4-1-.4-1.6a157.7 157.7 0 0 0 .4-17.7c0-5 .1-6.1.5-6.6.8-1 .9 0 .8 6.8a31 31 0 0 1-.4 7c-.3.6-.3.9 0 2 .3.8.4 2.5.5 5.8a194.6 194.6 0 0 1 0 9.7c0 3 .2 3.9.5 4 .3.2.1.7-.9 2.7-.6 1.4-1.4 3.2-1.6 4.1l-1.5 4.7c-.9 2.6-1 3.4-1 5.3 0 2.7.3 3.3 2.4 5.4 1 .8 2 2 2.5 2.7l1.6 1.9 1.4 2c1 1.9 2.9 3.6 4.7 4.2 2 .6 5.4.3 7-.7 1.4-1 2.6-1 3.8-.1.7.5 1.1.6 2.4.6.8 0 1.7-.1 2-.3l1.8-.7c1.2-.4 1.5-.6 1.7-1.3 0-.4.3-.8.4-.8.2 0 .4-.4.6-.8.3-.9 1.5-1.5 2.5-1.2.5.1.6.3.6.9 0 .4-.1.9-.3 1-.2.3-.2.3.2.3 1 0 6.3-4.7 7.2-6.4.5-1 .8-9.7.2-9.7-.5 0-2.4 1-2.8 1.5-.7.8-1.2 2.7-.8 3 .2.4.2.7-.4 1.4l-1.2 2c-.5 1.1-1.5 2-1.9 1.7v-1.3c0-1 0-1.2-.3-1.3-.6-.2-1.1.3-1.3 1.1 0 .5-.7 1.2-1.6 2-1.8 1.3-3.1 2-5.6 2.5l-3 .6c-.6.2-1.6.3-2.2.3l-2.4.4c-1.2.4-1.6.4-3 .1-3.6-.6-6-1.7-7-3-.8-1-3.4-3-4.7-3.7a5.7 5.7 0 0 1-2.4-3.9A31.3 31.3 0 0 1 139 139c0-1 1.7-2 2.5-1.3.7.6.4 1.8-1 3.4-1.2 1.4-2 3.4-2.5 6-.4 2.2-.4 2.5 0 3.2l.4 1.3c0 .5 1 1.6 2.5 2.7l2 1.5 3.1 1.9c1.6.9 1.9 1 2.7.7.6-.2 1.8-.3 2.9-.2 1.2.1 2.2 0 2.6-.1.4-.2 1.4-.4 2.2-.4 2.5-.2 8-3.1 8-4.4 0-.2 2-1.5 3.7-2.3a8 8 0 0 0 2-1.4 225.5 225.5 0 0 0 9.1-10.5c2-2.1 2.1-2.2 1.7-2.8-.5-.8 0-1.3 1.3-1.3 1.4 0 2.3-.6 2.3-1.4 0-.7.3-1 2.5-3 1.5-1.2 1.5-1.8 0-2.6-.6-.3-1.1-.7-1.2-1 0-.2.5-.8 1.3-1.3 1.3-1 2.1-2.3 2.1-3.4 0-.4-1.9-2.3-2.3-2.3a7 7 0 0 0-1.4.4c-.8.3-1.1.3-1.4.1-.5-.5.4-1.7 1.4-2 .8-.2 1-.7.6-1-.2-.1-.4-.6-.5-1-.2-.8-.4-1-1.1-1-1.3-.2-1.3-.9-.2-1.4 2-1 1.4-2.1-.9-2.2-1.7 0-4.6 1.4-5 2.6-.2.5-.6.8-1.1.9-.4 0-1 .3-1.2.6-.6.7-1.1 3.3-1.1 5.6 0 1.8-.2 2-1.4 2-.2 0-1.4 1-2.6 2.2a13.1 13.1 0 0 1-3.2 2.4c-.5.1-1.4.6-2 1a9.2 9.2 0 0 1-4 1.9l-2.7.9-2 .8c-.5 0-1.5.4-2.4.8l-1.8.5c-.7-.3-2.5.8-4.3 2.6-1.3 1.3-2 1.8-2.3 1.7-.6-.2-.6-.9 0-1.7.7-.8.8-1.4.3-1.4-.2 0-.7-.2-1-.5-.5-.4-.6-.6-.4-.8.2-.3.5-.2 1.1 0l1 .8c0 .2.6-.1 1.5-.7a18 18 0 0 1 7.7-3l3-1 2.5-.6.8-.4c.3-.4.2-.6-.6-1.2-.5-.4-1-.8-1.3-.8-.2 0-.6-.2-.9-.5-.5-.4-.7-.5-2.7-.2l-2.2.2-.7-.7c-.6-.7-.7-.7-1.2-.3l-1.2.8a9 9 0 0 1-2 .9c-1.5.4-1.6.4-2 0-.2-.5-.4-.4-1.5.6l-3 3c-.3.4-.8.7-1 .7h-.5c-.1 0-.2-2-.2-4.4.1-3.6 0-4.4-.3-5-.6-.7-.5-2.4 0-3 .9-.8 1.2.2 1.2 4.4l.2 4.6c.2.8 1 1 1.6.4.5-.6 2.7-2 3-2l.7-.5c.3-.3 1-.7 1.8-1l3-1.3c1.4-.7 1.6-1 1.7-1.7.2-1.3.9-2.9 1.5-3.8l.5-.9.8-1.3.8-1.3 1.3-2 1.3-2.2 1.8-2.5 2-3c.6-1.3 4.1-6.6 4.4-6.6 1 0 .8.7-.5 2.7l-2.2 4a22 22 0 0 1-2.5 4 46.7 46.7 0 0 0-6 8.8c-.6.5-.7 1-.6 1.5.2 1 0 1.7-1.2 3-.6.5-1 1.1-1 1.3 0 .6 2.2 1.4 3.6 1.4 1.2 0 2.8.6 2.8 1.1 0 .2.2.2.5.1.3 0 1 .1 1.7.5a5 5 0 0 0 1.6.7c.7 0 3.5-2 5.7-4.1 1.8-1.8 2-2.1 2.2-3.2.1-.7.4-2 .7-2.7l.8-2.5a9.4 9.4 0 0 1 3.9-4.3c.7-.3 1-.4 1.7-.1.5.2 1.2.2 2 0 1.6-.4 3.6 0 4.7.8.6.6 1.2 2 1.7 4.6.2 1.1.6 1.8 1.3 2.7l1.1 1.2.2 3.3c.2 2.7.2 3.3-.2 4l-1 2.8c-.6 1.7-1 2.5-3.3 5l-1.3 1.7c-.3.5-1.1 1.3-1.9 1.8-1.8 1.1-3.3 2.9-3.6 4.2a19 19 0 0 1-.6 1.8c-.2.5-.2 1.4-.1 2.3.1 1 0 1.9-.2 2.6-.3.8-.3 1.3 0 2.5.3 1.8.5 2.1 2.1 3 1.3.7 2.7.7 2.4 0-.3-.6.2-.9 1.6-1 .8 0 1.4 0 1.4-.2 0-.3 2.4-1 2.8-.8.3.2.2.3-.6.6-1.1.5-3.3 1.2-4.3 1.5-.3 0-.6.2-.6.4 0 .5 5.3 0 6-.5.5-.6 1.7-2.9 1.7-3.5l.6-1.2c.5-.8 1.6-3.5 3.1-8.3a88.4 88.4 0 0 1 5.2-13.2c.2-.6 1-.9 1-.4s-1.3 3.9-1.6 4.3c-.3.4-1.3 3-1.6 4.5l-2.7 8.6c-.6 1.6-.7 1.9-.1 3 1 2.5 0 8-2.1 11.4a33.7 33.7 0 0 1-7.7 8c-4 3-5.8 4.4-7.3 5.8-.9.8-2 1.6-2.8 1.9-2.5 1-.8 1.1 2.7.2l2-.6c2.4-1 3.6-1.3 3.7-.9.4.9-3.4 2.3-9.3 3.4-1.5.3-2.4.6-3 1.1a5 5 0 0 1-2.4.9c-2.5.3-5.7-.4-5.7-1.2 0-.4.2-.4 1.2-.3.9.2 1.4 0 2.4-.3.8-.4 1.8-.6 2.8-.6 1.2 0 1.6 0 1.7-.4.3-1 .5-1.2 1.6-1.9a51 51 0 0 0 8.4-5.8l2.5-1.8 2-1.7c5-4.1 8.3-9.5 8.3-13.5 0-1.2-.4-2.2-.7-2-.2 0-.6 1-.9 2-.9 2.8-2 3.8-4 4-1 .2-2 .5-2.5.8-1 .6-2.3.6-5.6-.3-2.5-.6-2.5-.6-2.8 1.3-.2 1.1-1.2 2.4-1.8 2.4-.2 0-.8.5-1.4 1l-1 1.2 2.1-.2c2-.2 2.2-.2 2.3.3.3.9 0 1.4-1.4 1.8l-2.7 1.2c-.8.4-1.7.8-2 .8l-.3.2c0 .3.4.5 1.8.7 1.9.3 2.4 1.4 1 2-.4.1-2.6.3-4.9.3h-4.3l-.5-.7c-.7-.9-1-.8-2 .2-.7.7-1.1.8-2.6 1-1.5 0-1.8 0-3.3-.8-1.8-.9-2.5-1-3-.4-.2.3-.2.7 0 1.7l.5 2.4c.1 1 .4 1.4 1.5 2.6l1.5 1.4c.1 0 .3-.4.3-.8.3-1.1 1-1 2.4.3 1.4 1.2 1.5 1.7.6 2.1l-.7.5c0 .4 3 2.6 3.7 2.8.4 0 1 .5 1.5.9l1 .8 1.1.4 1.3.4 1.4.8 1 .9h4.7c3.5 0 4.7 0 4.8.3.2.5-.5 1.1-1.6 1.3-.6 0-1.4.3-2 .4l-2.4.2c-1.8 0-2.9.4-2.8 1 .3 1.3 7.4 3.8 10.6 3.8l3.3.4c2.1.3 2.7.3 4.4 0l3.6-.6 3.2-.7 2.4-.7c.6 0 1.6-.5 2.3-1l2.2-1.2c1-.5 1.3-1 1.8-3.3a30.2 30.2 0 0 1 1.9-6.6 42.4 42.4 0 0 1 2.6-8.8c.2-.7 1-1.3 1.3-1 .1.2 0 .9-1 3-.7 1.8-1.5 4.7-1.9 6.7-.3 2.2-.5 3-1.3 6-1 3.4-1 3.5.4 5l1.3 1.2h2.5c2 0 2.6 0 4.2-.8 1.7-.7 2.3-.8 4.7-.8 2.4 0 2.8 0 3.5.4 1.1 1 1.3 1.3 1 2.4-.3.5-.4 1-.3 1.1.2.2 2.9-.2 6.5-.8l4.4-.7c3.2-.4 3.2-.7.5-2.2-1.2-.7-2.4-1.5-2.6-1.8-.4-.6-.3-1.3.3-1.3.4 0 2.2 1 4.7 2.7 1.8 1.2 1.9 1.2 5.2 0l3.4-1.3c2.2-.8 3-1.9 2-2.8-1.1-.9-4.6-2.8-5.8-3-1.5-.4-3.2-1.4-5-2.9-1.5-1.1-5-3-5.3-2.8-.3.3-.2 1.7.3 3 .4 1.3.4 1.4 0 1.7-1 .8-2.7-1-3.4-3.7-.3-1.5-1-3.4-2.4-6.6-1.1-2.5-1.6-5.3-2.5-14a47 47 0 0 1 .2-13.6c.6-2.7 1.2-4.1 1.9-4.2.5-.2.8.7.4 1.3-.8 1.2-1 4.4-1 10.1l.5 7.8c.4 3.2 2 11.2 2.5 12.1.6 1.2 1.4 1.7 4.6 3.2 8 3.8 10.8 5.2 12 6.4a8.4 8.4 0 0 0 6 2.7c.7 0 1.6.4 2.1.7.6.5 1.2.6 2.7.6h2l1-1.2c1-1.1 3.4-2.5 4-2.5.7 0 2-.8 2-1.2l.4-1.2c.3-.7.3-.8 0-.9-.5-.2-.5-.6 0-1.2 5.1-6 5-5.8 4.1-7-.4-.4-.5-1-.5-2 0-.6-.3-2.2-.6-3.3l-.7-3.5c-.1-1.3 0-1.4.4-1.4l1 .4c.4.4.4.4.4 0 0-.7-.6-2.4-1-2.8a27 27 0 0 1-1.3-2.4l-1.3-2.4a59 59 0 0 1-3.5-7c0-.4-1.4-1.2-2-1.2-.7 0-4-1-4.7-1.6a88.6 88.6 0 0 1-16.8-10.6c-.3 0-1.2-1-3.6-3.7a9.2 9.2 0 0 1-2.1-4.2c-.9-2.6-1-4-.7-5.4.3-1.4 0-2-1.4-3.4l-2.4-2.7-4.5-4.2-3.1-2.8-1.8.2a16 16 0 0 0-6.7 2 19.8 19.8 0 0 0-7 7.9l-2 4.4c-1.4 2.9-1.8 4-1.8 4.8 0 1.7-1 2.4-2 1.3-.5-.5-.5-.6-.1-1.4l3.8-8.1c1.4-3.6 4.6-7.4 8.3-9.9 2.4-1.6 2.5-1.7 2.2-3-.2-.5-.3-1.3-.3-1.7 0-.5-.3-1.2-.7-1.7-.3-.4-.8-1.3-.9-2-.3-1.4-1.4-4.5-2.3-6.4a8 8 0 0 1-.6-2.1c0-.3-.4-1.2-1-2-1.6-2.8-1.9-3.7-2-7.2-.2-1.8-.3-3.7-.2-4.2 0-.8 0-.8-.5-.5l-2.3 2c-1.6 1.6-2 2-2.5 3.5-.6 2-.7 3.7-.2 6.7.3 2.3.2 3.4-.6 3.4-.5 0-.8-.5-.8-1.6 0-.7-1-4.7-1.2-5-.2-.3-3 .6-3.5 1-.4.5-.4 1.1-.4 3.6s0 3 .6 4.2c.6 1.2.8 2.4 1.2 6.1.3 1.9 1.9 6.8 3 8.9 1 2 1.2 3 .9 4.4-.2.7-.2 1.3.1 2.5.6 2.2.4 3-.5 3-.6.2-.8 0-1.2-1-.6-1.2-.8-3.7-.4-5.3.2-1 .1-1-1.1-2.4-.8-.7-1.7-1.8-2-2.4a28.8 28.8 0 0 1-3.5-10c-.3-1.1-.2-1.3.4-2.3.8-1 .8-1 .4-2.5-.2-.8-.7-2-1.2-2.6l-1-1.9c-.2-.4-.5-.7-.7-.7-1 0-3.5.8-4.6 1.5-.6.3-1.8.8-2.7.9-1 .2-2 .6-2.8 1.1l-2.9 1.8a23 23 0 0 0-3.8 3c-2.3 2.4-3 2.7-2.2 1 .5-1 4.3-4.6 6.7-6.4 2-1.5 5.4-3.1 7.2-3.4.9-.2 2-.5 2.5-.8 1.1-.5 1.1-.7 1-5.2l.1-1.4c.1-.6 0-.7-1.2-1-2.4-.7-3.2-2-3-4.3l.5-2c.4-.9 1.6-1.3 3-1.1l3.5.4a26.1 26.1 0 0 0 13.4-1.5c.4-.2.7-.5.7-.8l.3-1.2c.3-.6.3-1 0-1.6l-.4-2.6c-.1-1.5 0-1.8.4-2.4.4-.5.5-1 .4-1.6-.2-.7-.1-.9.5-1.2.6-.3.7-.4.7-1.8 0-1.3.1-1.8.6-2.6.4-.5.7-1.3.6-1.8 0-.5.1-1.1.3-1.4.2-.3.3-1 .3-1.6 0-.6.4-1.7 1.2-3.1a49 49 0 0 0 1.7-3.7c.4-.9 1-1.8 1.4-2 .4-.4 1-1.2 1.4-2 .7-1.3 3.2-4 5.3-5.6a9.7 9.7 0 0 1 4.9-2.2c1 0 1.2-.2 2.9-1.9a26 26 0 0 1 11.8-7c4.1-1.4 6.5-1.8 8.3-1.4 2.6.7 3.7 1.8 4.2 4.5l.6 2 .4 2.9c0 1.4.2 3 .4 3.5v2.5c-.4 1.8 0 2.8 1.1 3.1.5.1 1.2.6 1.8 1 .7.6 2.4 1.3 5.3 2.3 4.7 1.5 6.1 1.7 8 1l4.3-.7 4.3-.8c2.6-.9 5.7-.3 7.4 1.3.7.6.7.8.7 3.4 0 2.4-.2 3-1.1 5.9-.6 1.7-1.4 3.6-1.8 4.1a8 8 0 0 0-1 2.4c-.2 1.5-1.4 3.4-3 5.2l-1.8 2.5c-.8 1.3-.8 1.5-.8 4v2.7l3 .3c1.7.1 3.7.5 4.6.8 2.1.8 5.7 1.1 11.9 1.1 4 0 5.8 0 7-.4 2.6-.6 3.8-.7 5.7-.3 2.5.6 3.7 1.7 4 4.1.1 1.1 0 1.4-.8 2.5a6 6 0 0 1-4.3 2.5l-1.3.1v1.4c0 .7-.2 2-.5 3-.8 2.8-.8 2.9.2 3.1 1.1.3 2.3 1.3 2.9 2.7.3.7 1 1.6 1.5 2 1.1 1 1.2 2 .1 2-.9 0-3-2-4-3.6-1-1.7-1.2-1.5-2.2 1.2l-1 2.1c-.6.8-.7 1.2-.6 2.1.1.8 0 1.3-.2 1.6-.5.6 0 1.2.8 1 1.6-.3 3.2 1.5 3.2 3.6 0 1 .1 1.4.7 1.8.7.5 1.2.5 4.5.4l5.6-.2c1.8-.2 2-.3 2.2-.9.2-.4.5-1 .9-1.3 2.3-2.5 6.3-2 8.2 1l.5.8h2.5c3.5-.3 3.5-.3 3.5-2.2.2-6.2-.2-9-1.5-11.7-.6-1.2-1.4-1.2-2.3 0-1 1.2-3.4 3.8-4.3 4.4-.7.6-1.2.6-6.6.7l-6.5.1c-1.1 0-1.7-.3-1.3-.7.4-.4 2.9-.6 8.7-.8 3-.1 4.9-.3 5.3-.5 1-.5 2-1.6 3.5-3.5 1.4-1.8 2-2.2 3-2.2 1.9 0 3.5 4.1 4 10.1.1 2 .2 2 .8 2 .4 0 .7-.2 1-.6l.2-.7h3.8c2.8.1 3.8.2 4 .5 0 .2-.3.4-1 .5-1.7.3-1.7.3.2.3s3.2.4 3.4 1c.2.6-.6 1.6-1.4 2-1 .3-4.8 1-7.9 1.3a1013.6 1013.6 0 0 0-10.5 1l-5 .5c-2.5.6-3.3.6-4 .2a57 57 0 0 0-14-.1c-.6.6-1 2.7-1.4 8.2a75.4 75.4 0 0 1-1.4 11.3c0 .7-.2 1.5-.4 1.9-.2.4-.4 1-.4 1.5 0 .4-.2 1-.4 1.3-.3.4-.5 1.4-.5 3 0 2.7-.2 3.3-.9 3-.5-.2-.4-.7 0-3.2.3-1.1.5-2.4.5-2.8l.3-2c.4-1 .8-3.2 1.2-5.6a179.3 179.3 0 0 0 1.2-16.1c0-.6-.1-.7-2.3-1.1-2.8-.6-3.1-.5-3.6 1.8-.2.9-.8 2.4-1.4 3.5-.7 1.4-1 2.7-1.3 4.2-.2 1.6-.4 2.3-1 3-.8.9-1 1.4-1.2 4.5-.2 1.4-.1 1.8.2 1.9.2 0 .5 0 .5-.2.2-.5.9-.5 1.1 0 .2.5.1.8-.4 4.1-.5 2.7-1.3 3.2-1.3.8 0-.6-.1-1-.2-.6 0 .3-.2.6-.3.6-.3 0-1.3 2.4-1.7 4.2-.2 1-.7 2.4-1 3-.4 1-.6 2-.7 4l-.1 3.6c0 .8 0 1 .4.9.2 0 .6 0 .8.2.2.2 1.2.5 2.2.6l3.2.6 1.3.4-.4.7c-.4.7-.4 1-.1 2.3.2 1.1.2 3 0 6.3a108.4 108.4 0 0 0 0 11.3c.1 6.2-.2 8.4-1 7 0-.3-.2-4.9-.2-10.2 0-6.6-.2-9.8-.4-10.2-.2-.4-.2-1.6-.1-3.4.1-3.1 0-3.3-1.7-3.3h-.8v14.2c-.2 7-.3 7.6-.7 7.6-.7 0-.9-1.3-.7-6.5.3-13.8.3-14.8-.2-14.8-.2 0-.6.4-.9 1-.3.7-.6 1.1-.7 1.1-.4 0-1 .7-1 1 0 .2.2.3.5.3.6 0 .6 0 .6 3.2 0 2.5-.3 3.8-1 5l-.5 1.8c-.2 1-.1 1.1.3 1.3.6.2 1 1.6.9 3.9 0 .8 0 2 .2 2.8.3 1.3.3 1.7 0 2.5a9 9 0 0 0-.5 3c0 1.7.1 2.2.5 2.7l.6.7-1.3.7c-.8.4-1.5.5-2.3.4h-1.4l-.4 2c-.3 2.8-.5 3.8-.8 4.4-.2.5-.2 1 .2 2.4.9 3.3 1 3.9 1.2 6 .3 2.3.2 2.8-.6 3.9-.5.8-.6 1.5 0 2.1.2.4.3 1.2.2 3.9-.2 3.7 0 5.1 1 5.4.7.3 1.1-.2 1.5-1.6.3-1 .3-3.3.2-10.4-.2-8.3-.2-9.3.2-9.3.2 0 .5.3.5.6.2.6.4 7.2.5 17.5.1 4.4.1 4.5.7 4.8.4.2.7.1 1-.2a46.1 46.1 0 0 0 .2-10c-.1-.2-.2-7-.1-10.9 0-1.4.1-1.8.4-2 .7-.2.9.5.7 2.9-.1 3 .4 15 .8 16 .3 1 .8 1.3 1.3.7.2-.3.3-1.3 0-4.5-.2-4.5-.1-5.8.2-9.4.1-1.8.3-2.4.5-2.4.3 0 .4 1.2.4 6.5 0 4.4.2 6.8.5 7.7.2 1 .2 1.6 0 2.5-.4 1.8 0 3.8.8 4.2.9.5 2 .4 2.3 0 .2-.4 0-1-.2-2-.7-1.7-1.5-6.7-1.3-7.3.1-.2.3-.4.5-.4.3 0 .4.6 1.9 6.4 1 4.2 1.2 4.5 3 4.5.8 0 1-.1 1-.8.3-1.3.4-1.4.9-1.3.3 0 .5.4.6 1.2.2 1.7.7 2 3 1.9 1.5-.1 2.1-.3 2.5-.6.6-.5.6-.5 1.4 0 .7.3 1.4.4 6.4.2a44.1 44.1 0 0 0 14.5-2.2c.9 0 1 .6.2 1-.3.3-.5.6-.5.8 0 .4 0 .4 6.4-.3a26.6 26.6 0 0 0 6-1.3l1.7-.5c.6-.3 1.4-.6 1.8-.6.5-.1.8-.4.9-1 .2-1 .5-1.1 2.4-1.8 2.6-1 4.4-3.2 4.4-5.6l.4-2.3.9-2.8c.1-.8.7-2.6 1.2-4.1a35.3 35.3 0 0 0 1.7-11.8c0-.2-1.7.7-3.7 2-.5.2-1.4.5-1.9.5s-1 .1-1.2.3a156.5 156.5 0 0 0-7.6 1.2c-3 .4-5.4.7-11.8 1.1-3.9.3-5 .5-5.5.9l-.4 2a62.1 62.1 0 0 0-1.5 13.5c-.3 5.2-.6 6.5-1.3 6.5-.4 0-.4-.4-.4-2 0-2.4.5-8.7.9-12.2.3-2.6.1-5.5-.3-6.4-.3-.4-.5-.5-3.2-.3l-3.7.4c-1.4.4-3 .3-4.1-.2-.8-.4-1.9-.5-5.2-.7a55 55 0 0 1-5.5-.4c-1.9-.4-3.6-.3-4 .2-.3.3-.3 1.6-.3 5.9.1 5.4 0 6.6-.7 5.9-.4-.4-.9-8.2-.6-8.6.3-.5-.8-2.3-1.6-2.8-1.5-.9-3-1.2-6.4-1.3-3.6 0-4.5-.4-4.3-1.5 0-.5.2-.6 1.3-.5a186.8 186.8 0 0 0 6 .6c4.2.6 7 .8 8.1.6.7-.2 2-.2 4.1 0 2.9.4 7.2.5 13.1.5 2.5 0 5.1-.3 8.3-.9l3.9-.5a46 46 0 0 0 9.1-1.6 44 44 0 0 0 3.3-.7c1.7-.4 1.8-.4 2.5 0 .5.3 1 .4 1.3.3.3 0 1 0 1.5.3l1 .3.6-1c.6-1 1.8-1.5 5.3-2.2 3.6-.7 4-.9 5.2-1.6.6-.3 1.4-.7 1.7-.7 1.2 0 1.4-.8.6-3-.4-1-.5-1-1.7-1-1.1 0-1.3-.1-1.3-.6 0-.6 1.5-1.5 3.3-2 1.4-.4 2.1-2.3 1.2-3.2-.4-.4-.6-.4-2.4.2-1.3.5-2 .9-2.4 1.3-.4.6-.4.7-1 .3-.7-.6-1-.5-1.7 0-.5.5-.5.6-.2.7.3.1.4.4.4.7-.1.8-5.1 3.1-7.3 3.4l-2.6.7-2 .4-3 .4c-5.3 1-5.3 1-5.6.7-.2-.2-.1-.4.2-.7.5-.4 1.4-.5 5.1-.9a34.5 34.5 0 0 0 9.3-2l2.7-1.3c1-.6 1-.9 1-1.6 0-.9.2-1 1.5-1.6l3-1c2.4-.6 3-1 3-2.5l.5-3.5a67 67 0 0 0-1-21.1v-1.7l-.6.6c-.3.3-.7.5-.9.5-.2 0-.5.2-.7.5-.3.3-1 .6-1.6.8a6 6 0 0 0-1.4.6l-2.3.7-3.4 1-3.3.6-2.6.5c-.4.2-1.3.3-2 .3l-3 .5c-2.5.7-5.7 1-5.7.6 0-.1.2-.3.5-.3a11 11 0 0 0 5.2-1.8c.4-.6.6-.6 1.3-.4.6.2 1 .2 1.8-.2 1.2-.5 2-.6 2.4-.2 1 1 6.7-.6 12.3-3.4 3.9-2 4.4-2.7 3.6-5-.3-1.2-.9-1.5-1.5-.7-.2.2-.7.6-1.2.8l-.9.6c0 .1-.6.3-1.3.4-1 .2-1 .2-1-.5 0-.8-.4-1-1.8-.5l-2.4.7-2.5.4c-.7 0-1.6.1-2.1.3-1.7.4-4 .6-4 .3 0-.2.4-.3.8-.3 1.1 0 4-.7 5-1.2.5-.2 1.3-.4 1.8-.4 1 0 4.7-.6 6.2-1.1.5-.2 1.1-.5 1.4-.8a4 4 0 0 1 1.6-.6c1.6-.2 1.8-.5 2-1.9.1-1 0-1.4-.4-1.9-.6-.7-1.2-.7-1.7-.2-.8 1-3.4 1.7-3.1.9 0-.3 2.2-1.9 2.9-2.1.2-.1.2-.4-.2-1.2-.4-.8-.5-1.5-.5-4.3 0-4.3-.6-7-2.3-12.6-.4-1.3-.9-3.4-1-4.6-.4-2.5-.6-3-1.4-3-.3 0-1-.3-1.4-.8-1-1-2.4-1.5-4-1.2-.8.1-1.5-.1-1-.5.3-.4 4.3-.2 5.8.3 2.3.7 2.7 1.2 3.1 3.9l1 4.3c2.1 6.4 2.6 9.2 2.6 13.6v3.8l1 1.2c.7.6 1.4 1.1 1.6 1.1.7 0 1 1.2.5 2.6-.6 1.7-.5 2.4.4 4.4.9 2 1 2.4.2 3.4-.4.6-.5 1-.4 1.5l.4 2.9.6 4.5c.5 4.5.6 10.6 0 14.9l-.3 4 .8.8c.7.8 1.6 2.9 1.6 4 0 .2-.5.9-1 1.6-1 1-1.5 2.5-1 2.5s1 1.3 1 2.4c0 .8-.2 1.1-.8 1.5l-1.2.7c-.7.3-1.2 1.5-1.5 4.4-.3 2.6-.8 4.8-1.6 7a21 21 0 0 0-.7 8c0 3.8 0 4.7-.3 5-.3.2-.5.2-.9 0-.4-.3-.6-.3-.9 0l-.4.8-.1 1.1c-.2.7-.1.8.6 1.1.6.3.9.3 1.3 0l.6-.5c0-.2.2-.2.4-.2s.4 0 .4.2.2.3.5.3c.7 0 .9-1.8 1-8 0-3.5 0-5.1.2-5.2.5-.1.7 1.6.7 5.7 0 4.3 0 6.2.5 7.3.2.6.4.7 1.2.8a134.4 134.4 0 0 1 17.8-.7c14.6-.1 17.9-.2 18.5-.7.1-.2.4-1 .5-1.8.1-1.1.2-1.4.6-1.3.3 0 .5.4.5.9 0 .6.4 1 1.5 1.9 1.6 1.3 2.8 1.4 3.2.5.3-.6.4-.5 1.2.9l1.3 1.7c.6.3.3.9-.6.9-.8 0-1.8-.6-3-1.7-.8-1-1.8-1-3.5-.7-1 .3-3.9.4-9.4.4-4.4 0-8.5.2-9.1.3-.8.1-1.4 0-1.8-.2-.5-.2-1-.2-2.4 0-1.4.3-2 .3-2.6 0l-1.6-.2c-1 0-4.1 1-5 1.8l-.6.5.7.4c.5.2.9.3 1 .2 0-.2.6-.3 1.3-.3.8 0 1.1.1 1.1.4 0 .3-.4.4-1.6.5-1.3 0-1.7.1-1.7.4 0 .3.3.5 1 .5 2.4.2 2.7.7 1 1.8l-1.2 1c-.2.4-2 1.2-3.1 1.4-1.8.3-2 .4-2.4 1.3-.3.7-1 1.1-4.8 3-3.7 2-4.6 2.5-5.1 3.3a9 9 0 0 1-4.4 2.8l-2.3 1.2a7 7 0 0 1-2.2.9c-1.2.2-1.3.3-1.5 1-.1.5-.4 1-.7 1.1a33 33 0 0 1-5 1.6c-.4 0-1.3.5-2 1.1-.8.6-2.2.9-5.5 1-2.2 0-3.2.1-4.9.7l-2.3.7a37.8 37.8 0 0 1-9 .8 104 104 0 0 0-17.8.8c-.3 0-1 .2-1.5.5-.8.3-1 .5-.7.7.4.4 7.9.9 12.8.9 3.8 0 4.7.2 4 .8-.4.3-7 .7-9.6.6-1.4-.1-1.6 0-2.2.6-.4.4-1 .6-1.5.7-.4 0-1 0-1.3.2-.6.2 1.7.4 4.9.3 1.8 0 2.7.3 2.2.8l-3.8.4c-3.6.2-3.6.2-3.2.7 1 1 .2 1.5-2.3 1.5l-3.8.3c-2.6.3-2.9.6-2.2 1.9.2.4.4 1.2.4 1.8 0 .5.1 1 .3 1.1h2.1l1.8.1c0 .3-1.2.6-2.3.6-.4 0-1 .2-1.1.4-.3.3-.2.5.4 1.1 1 .9 1.4 1.8 1.4 2.5 0 .9.6 1 5.3 1 3.5-.1 5-.3 5.7-.6 2-.7 4.2-1 10.5-1 5.8 0 6.3.1 8.7.8 2.4.6 3.9.9 7.8 1.3 1.3.1 2 .3 2.8 1a22 22 0 0 0 2.7 1.5c3.5 1.6 4.7 2.6 4.7 3.8 0 .4-.6 1.3-1.4 2.2-1.3 1.6-1.4 1.6-2.6 1.6-1 0-1.4.2-2.2 1-.9.8-1 .9-4.2 1.3-.8.1-1.7.4-2 .7-.7.5-1 .5-3.5.4l-3.8.1c-.6.2-2 .4-3.2.5-4.4.5-4.6.5-4.6 1.2 0 .8-.7 1.2-2 1.2-1.5 0-4.9.9-4.5 1.2.3.3 4.7 1.8 6.6 2.3.7.2 1.8.6 2.3 1 .6.3 1.3.5 1.7.5.3 0 1.4.3 2.3.7 1.3.5 1.9 1 2.4 1.8 1.3 2 .8 3.6-1.7 5-.9.4-1.6.9-1.6 1 0 .4 2.2 1.5 3.6 1.8l2.7.9 4 1.5c3.1 1 3.5 1.4 3.5 3.4v1l1.8.7c1.6.5 2.3.6 6.1.6h4.4l1.3 1.6c1 1 1.9 1.6 3 2.1l2 1c.2 0 .4.8.6 1.9.4 2.6 1.9 3.8 5.4 4.4 1 .1 1.8.4 1.9.6.4.7.2 2.7-.3 3.4-1 1.2-3.8 2.4-6.1 2.6-1.9.2-2.2.2-3.1 1.1-.6.6-1.4 1-1.8 1.2-.5 0-1.5.5-2.3 1l-1.6.7-2.6-.3a93 93 0 0 0-15.1.3l-9.1.2H310l-1 .8c-.6.5-1.2.8-1.5.8l-2.4.6c-2 .6-2 .7-2.6 2-1 2.2-1.6 2.4-6.3 2.4a53.2 53.2 0 0 0-9.2.6c-3 .2-3.5.2-4.7-.3-3.6-1.3-4.7-1.4-10.4-1a62.2 62.2 0 0 0-14.8 2l-1.9.2v.9c-.2 1.4-.5 1.4-7.7 1.2-5.3-.1-7 0-8.9.3-1.5.2-3 .3-4.1.2-2.5-.2-3.5 0-5.2 1.4-2 1.5-4.3 2.2-7.2 2.2a11 11 0 0 1-3.3-.4c-1-.4-1.8-.4-5.2-.2-2.3 0-4.6.3-5.4.5-1 .3-3.4.5-7.7.7-7 .3-7 .3-9-1.3-.6-.6-1.3-.9-1.8-.9-.9 0-3.8-.4-5.1-.8-.6-.1-1 0-1.3.1-.4.3-.4.4.2 1.2.8 1 1.3 2.3 1 3-.1.8-1.6 1.5-3.3 1.7-1 0-2.2.2-3 .4-5.6 1-6.2 1.1-9.2.9l-6.2-.3c-1.8 0-4.8 0-6.6-.2-3.7-.2-4.5-.6-4.5-2 0-1.3-.1-1.3-5-1.7-1.7-.2-3.2 0-7.7 1-.7 0-2.1.3-3.3.3-1.5.2-2 .3-2.1.6-.3 1-1.1 1.2-3 .8-2.6-.4-3.3-.3-4.1 1-.9 1.3-.7 1.3-5.5 1.8l-5 .7c-.6.2-2.6.4-4.3.5a73.1 73.1 0 0 0-5.1.3zm89-10.4c.8-1.1-1.1-2.9-3.2-3-1.3 0-2 .4-1.7 1l.6.2a6 6 0 0 1 2 1c1.5 1.2 1.8 1.3 2.3.8zm35.4-34.7c.4-.3 1.5-1 2.6-1.5 1.3-.7 2-1.2 2.2-1.7l.7-1.6c.5-1 .3-1-.6-.6-.9.5-5 1.5-6 1.5-.5 0-4 1.4-4.9 2-.7.5-.3 1.1 1.2 1.8 2 1 3.8 1 4.8.1zm-10.2-4a10 10 0 0 1 3.4-.7c3.3-.2 7.3-1 9.2-2 .8-.5 2.3-1 3.2-1.3a21.4 21.4 0 0 0 7.7-3.5c.3-.3 1-.8 1.8-1 3.4-1.3 7.6-4.7 9.1-7.5.7-1.3.8-1.6.6-3.4 0-1.1-.4-2.8-.7-3.8-.5-1.5-.5-2-.3-3 .2-.8.4-2.1.4-3.2a30.9 30.9 0 0 1 1.1-6.3c2-9.7 2-10 2.2-16.3.2-5.9 0-10-.8-13.4-.1-.7-.2-1.8-.1-2.4l.4-2.7c.2-1.2.2-2.8 0-4.8-.5-5.2-.5-5.3-1.4-6.3-1-1.1-1.4-1.8-1.5-3.5 0-1.3-.2-2-.8-3-.3-.2-.3-.6 0-1.1.1-.7.3-.8 1.5-.8 1.6-.1 2.7-.9 4-3a7 7 0 0 0 1.2-3.8c.3-2.5.3-2.5-1.2-6.3-.4-1.1-1-2-1.1-2-.2 0-.5-.2-.7-.5-.2-.3-.6-.4-1.1-.2l-2.4.1a6 6 0 0 0-4 1.3c-.7.7-4 1.9-5 1.9a6 6 0 0 0-2.2.6c-.8.4-2.1.8-3.5 1l-2.4.4-1.5.1-4.3.6-6.1.8c-2.9.4-3.1.4-4.5-.1a11 11 0 0 0-3.6-.5c-1.3 0-2.9-.2-4-.5-1.2-.3-3-.6-4.3-.7-1.3 0-2.4-.2-2.7-.3-.2 0-1.2.1-2.3.4a10 10 0 0 1-3 .4c-.9-.1-1.8 0-3.5.7-2 .7-2.7.8-5.2.8-3 0-6.6-.4-13-1.3-5.2-.8-7.6-1.7-10-4-1.3-1.1-1.6-1.5-1.6-2.3l-.2-1-2-.3c-1.4-.2-1.8-.3-3.4-1.7l-4.8-3.3a22 22 0 0 1-3.7-2.9c-.8-1-1.8-3-1.8-3.6 0-.6-2.5-5.4-3-5.8-.5-.4-2.1-.5-5.7-.6-2.5 0-5.5.5-7.2 1.1l-2 .6c-.2 0-.8.4-1.3.9a15.3 15.3 0 0 1-4.5 3c-1.8.6-3.6 2.8-5.5 6.9l-1.5 3c-1 2-2 5.1-2.2 7l-.5 2.6-.7 2.8-.7 3.4c-.2.8-.3 2.3-.3 3.4l-.2 6c0 2.7 0 4.7.3 6.3a87.4 87.4 0 0 0 3.7 13.9c.2 1 1.2 4.5 1.7 5.4l1.9 4.8c.3 1 .7 2 1 2.3l.5.6v-2.4l-.1-2.3.7-.1c.8-.1.8 0 2.2 4.8l1.6 4a27 27 0 0 1 1.2 2.8l1 1.7c.6.8 1.1 1.6 1.1 1.8l.5 1c1.8 2.5 4.7 7.2 5.6 9 1.2 2.2 1.2 2.9.1 2.9-.7 0-1.6-1-3.3-4.1a25.7 25.7 0 0 0-4.8-6.8c-.8 0-1.3-.3-1.8-1.3-2-3.7-3-5-3.3-5-.3 0 .1 2.5.7 4.1.3.7.7 2.4.9 3.6 1 5.4 1.4 7.1 2.8 12.1.4 1.7.9 4 1 5.2.3 2.8 1.4 5.4 2.7 6l2 1.6c1.8 1.6 3.2 2.4 6.4 3.5 2.3.7 3.6 1 7 1.3 3.5.3 4.1.3 5 0 .7-.3 1.8-.6 2.7-.7a123 123 0 0 1 20.5.2l-1.2-1c-1.9-1-3.3-3.1-2.7-3.8.5-.7 1.2-.4 3.8 1.4 1.4 1 2.8 1.8 3.2 2 .3 0 1.1.6 1.8 1 .7.6 1.8 1.2 2.5 1.4 2 .6 3.8 1.5 4.8 2.4a5 5 0 0 0 2.5 1.2l4.6 1.2a29.2 29.2 0 0 0 8.3 2.1c6.2 1.4 13.2 1.8 15 .8zM168.2 277c-2.7-2.2-6.1-9.6-6.1-13 0-1.1.4-1.9 1-1.9.7 0 1 .5 1.2 1.9.5 2.8 2 6.3 4.5 10.4 1.1 1.8 1.4 2.4 1.2 2.8-.4.7-.9.6-1.8-.2zm95.4 14c.2-.3.3-1 .4-1.5l.3-2.3c.3-1 .5-4 .6-12.1a310.8 310.8 0 0 1 .1-14.4c-.2-.6-.2-1.3 0-2.6a72.4 72.4 0 0 0 .9-6.6l.3-3.2a116.6 116.6 0 0 0 .4-11.2 95.3 95.3 0 0 1 .2-9.6c-.1-.4-.3-7.6-.3-16.2 0-10.2-.2-15.7-.4-16.1l-.3-.7v.7c0 .4-.3 1-.8 1.4-.7.7-.8.9-.6 1.8.1.8 0 1-.6 1.3l-.8.4.9.5c1 .6 1 1.2.2 1.7-.9.5-.9.6.1 1.3.7.5.8.7.6 1.7 0 .6-.3 1.3-.4 1.4-.2.3-.2.6 0 1 .3.5.4.8.2 1.3-.2.4-.2.7 0 1 .2.4.1.6-.5 1.3-.6.6-.8 1-.9 2.2a58 58 0 0 0-1 12.3c.2.8.5 2.3.9 3.3.5 1.6.5 2 .3 3-.3 1-.3 1.2.2 1.8.9 1.3 1 2.8.2 4.2l-.6 1.2 1 .1c1.2.1 1.3.6.4 2.1a9.2 9.2 0 0 0-1.9 5.2c0 1.8-.2 2.1-.9 2.8-.6.7-.7 1-.4 1.3.2.4.1.7-.1 1.3-.3.7-.4 1.2-.2 2 .4 2.1.3 4.9-.4 5.7-.4.7-.5.8-.1 1.2.6.7.8 2.8.3 3.6-.4.5-.4.6 0 1 .4.3.5 1.2.2 1.8-.2.2-.1.6.1 1.1.5 1 .3 3.4-.3 5-.3.5-.3 1.2-.2 1.8 0 .5 0 1.1-.2 1.5-.3.6-.3.8.2 1.7.4.6.6 1.4.6 2v2.2c0 1.8-.3 3.6-.8 4-.4.2-.3.3 0 .5 1 .6 1.4 1.1 1 1.5a2 2 0 0 1-.8.5c-.7.3-.6.9.3 1.8 1 1 2.2 1 2.6 0zm11.8-16c.5-.4.9-.5 2.5-.4 1.6 0 2-.1 2.3-.4.4-.6.5-.6 3 .3l2.1.7 1-1 1-1-.9-.8-.9-.8.8-.6c.5-.5.7-.8.5-1.3-.2-.7.4-1.8 1-1.8l-.8-.2c-1.4-.2-1.5-.2-1.5-.8 0-1-.3-1.4-1-1.4-.4 0-.9-.2-1.2-.5a3 3 0 0 0-1.2-.6 66 66 0 0 0-9-4.3c-.9-.3-1-.3-1.2.2-.4.6-1.5.6-2.4 0-.8-.7-1.4-.7-1.8-.2-.2.2-.3 1.8-.3 4l-.1 7c-.2 3.6 0 4.1.9 3.3.5-.5 1.4-.5 1.8 0 .2.2.8.4 1.5.4a6 6 0 0 1 2 .4c1.2.5 1.2.5 1.9-.1zM129 272.4c0-.3-.4-.5-1.3-.7-1.2-.2-1.5-.1-2 .3-.8.7-.6 1 1.4.8 1.5 0 2-.1 2-.4zm163.9-.9c.4-.7.4-.8 0-1.2-.6-.6-3.8-.6-4.2 0-.3.4.2 1 .8 1 .2 0 .8.2 1.3.5 1.2.7 1.5.6 2.1-.3zm-172-.5c-1.5-.3-2-.3-2 0 0 .2.6.3 1.5.3 1.5 0 1.5 0 .4-.3zm7.3-1.5c.2-.3-.4-3.6-.8-4.6-.4-.8-1-1.4-1.5-1.2-.3.1-1.7 0-3.2-.1-2.3-.2-3-.2-4.2.1-.8.3-2 .5-2.9.5-1.3 0-2.3.3-2 .6.3.3 3 .4 4.4.1 1-.2 2.4-.2 4.1 0 2.3.2 2.8.3 3.2.8.6.8.3 1.2-1.2 1.6l-1.7.7c-.3.2-.7.4-1 .4-.5 0-.6.4 0 .6l2.3.2 2.3.2c.5.4 2 .4 2.2 0zm166.8-2c.3-.5.3-.6-.2-.8l-1.7.1-3 .5-1.8.2h2.1c1.5 0 2.3.2 2.7.5.7.6 1.5.4 1.9-.4zm-5.8-2.7.5-.6-.6-.3c-.8-.3-1.4 0-1.2 1 .1.7.6.8 1.3 0zm4-1c0-.2-.4-.2-.7-.1-.3 0-.1.1.3.1h.5zm-166.4-2c0-.6-.6-1.9-1-2a122 122 0 0 1-10.9.4 31.6 31.6 0 0 0-8 .8c-1.7 0 0 .6 2.3.7 2.8.3 17.6.3 17.6 0zm-21.6-.6c.1-.1-.1-.2-.5-.2s-.7.1-.7.2c0 .2.3.3.6.3.2 0 .5-.1.6-.3zm177.4-.3c.4-.2.6-.2.9 0 .4.4 1.7.4 2.3 0 .4-.2.1-1.4-.9-3.4-.5-1-.7-1.1-1.4-1-3.7.2-8 .8-8.8 1l-.9.4 1 .9c1.4 1.1 2 1.3 4 .8 4.1-1 5.8-.8 5 .3-.2.4-.5.5-1.8.5s-1.5.1-1.2.4c.4.5 1.1.6 1.8.1zm9-1.2a49.9 49.9 0 0 1-4.3-14.3l-.8-4.1a206 206 0 0 1-2-15.6 52.4 52.4 0 0 0-1.7-11.6c-.2-.8-.8-1-1.1-.4-.3.4-.2 1.8.1 2.2.4.3 0 2.6-.5 2.9-.4.3-.3 1.4.3 2 .3.3.5.9.5 1.3 0 1.8 0 3.4-.2 4-.2.4-.2.9 0 1.5a6 6 0 0 1 .4 3.4c-.2.5-.1.8.2 1.1.6.7 1 2.5.7 3.3-.2.6-.2 1 .2 1.7.3.5.6 1.2.6 1.5 0 .2.1.7.3 1 .3.6.6 2.4.9 4.4 0 .7.2 1.3.4 1.5.1.2.4 1.5.5 2.8a24.6 24.6 0 0 0 2.3 8.1c.5.2 1.1 1.6 1.1 2.5 0 .4.2.8.3.8.6.3 1.4.2 1.8 0zm-14.8-3.9c3.5-.4 5.7-.8 6.3-1.2.5-.4.4-1.5-.2-2-.7-.8-2-.6-3.9.3-.9.5-1.7.7-2.8.7-1 0-2.2.2-3 .5-1.1.4-1.8.5-2.6.4-2.1-.3-1.6.8.7 1.5.7.3 2.1.2 5.5-.2zm-.5-3.6c4-.4 4.2-.5 5.2-1 .7-.5.9-.9.9-1.5 0-.4-.1-.9-.3-1l-.6-2-.8-2.4-.3-.7h-5.6c-5.6-.1-6 0-6 .9 0 .6 2 .9 6.3.9s5 .1 4.4.8c-.2.3-2 .4-5 .4-4.4.1-4.7.2-5.2.7l-.3.6s2.7.2 5.9.2c4.9 0 5.7.1 5.7.4 0 .3-.3.5-1.3.5-5.2.2-10 .7-10.4 1.1-.5.4-.7 1.3-.6 2.4 0 .3 3 .3 8-.3zm-149.8-3.6c0-.2 0-.4-.2-.5-.2 0-.3 0-.3.3 0 .2.1.4.3.4l.2-.2zM105 247c.4-.7 1.2-.9 3-.5 1.3.3 1.5.3 2.5-.2.6-.4 1.5-.6 1.9-.6.4 0 0-.2-.9-.3-1.5-.2-8.5 0-10.7.5-.8.1-.8.1 1 .7l1.8.8c.4.3 1.2.1 1.4-.4zm186.6-1c0-1-2-1.7-2.1-.8-.2 1 .2 1.3 1.1 1.3.8 0 1-.1 1-.5zm-188.8-1.9c4.6-.3 7.7-.5 11.2-.5 2.2 0 2.7 0 2.5-.4-.4-.4-4.8-.3-11.9 0-6.9.5-8.8.7-8.8 1 0 .3.6.4 2 .3l5-.4zm190.2-.4c3 .1 6.6 0 6.3-.4l-.7-.2c-1 0-4-.6-4.2-.9v-1c.3-.5.3-.5-1.2-.5-.8 0-2.1 0-2.8.2-1.1.1-1.4.3-1.6.9a2 2 0 0 0 .1 1.5c.3.7.4.8.9.5.3-.2 1.5-.2 3.2-.1zM280 242c.4-.3.3-1.2-.2-2.5-.5-1.5-1-2-2.2-1.7l-4.8.2c-3.2 0-3.8 0-3.9.4 0 .4 1.5.8 5 1.3 2.3.4 2.5.4 2.1 1-.3.3-.8.4-3.4.2-2.4-.2-3-.1-3.2.2-.5.7-.3 1 1.3 1 2.4.2 9 0 9.3-.1zm10.8-3.2.8-.4c.3 0 .2-.1-.2-.3-1-.5-1-1-.2-1.2 1.2-.3 2.5.1 2.8.8.3.7.3.7 1.3.3 1-.5 1.3-.5 4.7 0 1.8.2 5 0 4.8-.5v-.9c.3-.5.2-.6-.7-.6h-1.8a62 62 0 0 0-14.3.4c-.4.3-.4.4 0 1.2.3.5.5 1 .5 1.3 0 .8.5 1 1.3.6a4 4 0 0 0 1-.7zm4.5.5h-1 1zm-24.4-2.8c.2 0 .5-.2.6-.6.2-.5.5-.6 2.7-1 3.2-.4 4-.6 4-1.4 0-.7-.6-.9-1-.4-.2.2-1.2.3-2.4.2-1.6 0-2-.2-2-.5s.3-.4 1.4-.4c1.9-.1 2.2-.3 1.8-.7-.1-.3-1-.5-2.3-.6-3.3-.2-4-.4-4-1 0-.4.2-.4 1.3-.4.7 0 1.4-.2 1.4-.3.2-.3-1.1-1.3-1.8-1.3-.6 0-1.2.9-1.2 1.8 0 .3-.1.6-.3.7-.1 0-.2 1.3-.2 2.9 0 2.8.2 3.4 1.2 3.2l.8-.2zm3.5 0c0-.2.6-.2 1.9-.1 2 .2 2.9 0 2.9-.5s-1.7-.6-2-.2c0 .2-.9.3-1.8.3-1 0-2 .2-2.3.4l-.7.4h1c.6 0 1-.1 1-.3zm34.6-.4h-1.8 1.8zm10.3-.3h3.4c2.2 0 2.5-.1 2.5-.5s-.2-.4-2.4-.2l-4.2.3c-3.4 0-3.3 0-2.9.5.3.3.6.4 1.6.2l2-.3zm10-.8h-.8c-.3.1-.1.2.3.2s.7 0 .5-.2zm6.5-.6a52 52 0 0 1 4.4-1c0-.2.4-.3.7-.3.5 0 .5 0-.2-.4-.6-.4-1-.4-1.7-.2l-3 .6c-4.2.6-6.8 1.3-6 1.7.5.2 4.6 0 5.8-.4zm-17-.5a65.1 65.1 0 0 0 20.5-4c.5-.3 1.2-.5 1.5-.5.3 0 1-.3 1.6-.6.9-.4 1.7-.5 2.8-.5 1 0 2-.2 3-.7 1.5-.7 2.1-1 5.7-3.4l3-1.8c1.5-.8 3.7-2.7 3.7-3.3.1-.6-1-2.1-1.6-2.1l-1.8 1c-1.1.8-2.2 1.3-3.3 1.5-1 .2-2.1.5-2.7.8l-4 1.5c-1.7.5-3.4 1.2-3.8 1.5l-2.4.8-1.6.3.8.9.7.9 1.6-.6a62.4 62.4 0 0 0 14.7-6.8c.5 0 .8.8.5 1.4-.2.6-3.5 2.3-5 2.7l-3 1.3c-2.5 1.2-6 2.5-8.8 3.2-1.3.3-1.8.4-2 .1-.5-.4-.6-1.9-.1-2.3.6-.6-1.2-.7-4-.2l-3.5.4c-.6 0-.8.1-.8.7 0 1-.7 1.3-4.8 1.8l-5.9.7c-1 .1-2.4.4-3 .7-1 .3-1.7.4-3.2.3-2.4-.2-7.7-.3-14.6-.1-3.7 0-5.5 0-6.5-.3-2.6-.7-5.1-1.2-5.5-1-.3 0-.4.4-.3.9 0 .5.3.8 1.2 1.3 1.7.8 5 1.3 5.6.9.4-.3.9-.2 2.2.2 1.4.4 7.6 1.1 10.2 1 .4 0-.6-.5-1.6-.8-.6-.2-.6-1 0-1.2.2 0 1.8 0 3.5.3a61.6 61.6 0 0 0 13-.4c2-.4 5.6-1 6.6-1 .6 0 2.5-.4 4.2-.8l4.4-.9c1.1 0 1.3 0 1.3.5 0 .4-.3.6-1.5.8l-2.4.6c-.5.2-1.6.3-2.6.3s-2.7.3-4 .6c-2.6.6-4.2.9-7.5 1.4-2.6.4-6.3 1.6-5.7 1.8.7.3 1.4.3 2.7.3l2.6-.1zm-42.4-6.8c0-.4-.3-.6-.7-.6-.7 0-.6.9.1 1.4.7.5.9.2.6-.8zm44.5-.2c2.1-.3 3-.5 3.8-1 1-.8 5-1.8 7-1.8l2.7-.4a61.2 61.2 0 0 0 13.4-3.4 127 127 0 0 0 5.5-2c.5-.2 1.1-1 1.5-1.7l1.3-2.3.6-1-.5-.7c-.7-.9-1.1-.9-2 0-.6.6-1.9 1.2-5 2.2a93 93 0 0 1-5.2 1.5c-1.3.3-1.7.6-1.2 1.2a1 1 0 0 1-.3 1.7c-1.7.7-6.2 1.2-6.2.7l1.6-.7c1.7-.5 2.1-.8 2.1-1.5v-.5l-3.3.4c-4.2.5-6 .5-6.9 0-.5-.4-.9-.4-2.4-.1-2.7.4-10 .7-18.6.7h-7.8l-1.7-.9-4.4-1.4-4.6-1.2c-3.6-1.2-4.5-1.1-4.5.5 0 1 .2 1.2 1.6 1.8l2.3 1c1 .4 2 .5 5.4.7 4.8.2 6.7.6 6.8 1.3.1.7-1 1.7-2 1.7s-2.5.6-2.2 1c.5.8 2.5.6 2.8-.2 0-.5.2-.6 1.2-.4 2.6.4 8.1.5 10.8.2l8.1-.6c5.8-.3 10.3-.8 12.7-1.4 1.8-.5 2.8-.5 2.8-.2 0 .4-.7.8-1.7 1a59.4 59.4 0 0 1-13.1 1.8 111.8 111.8 0 0 0-12.7 1c-2.4.6-3 1.3-1.8 1.8 1 .4.9 1-.3 1h-1.2c-.7-.1-4.2 0-5 .2-.8.2-.6.3 1.3.4 3.5.3 16.4 0 19.3-.4zm-49 0c1.2-.3 1.2-.6.2-.8-.5 0-.8-.3-.8-.5 0-.4 1.2-1 2.1-1 .5 0 .5 0 .2-.4-.2-.2-.8-.4-1.8-.4-1.4 0-1.6 0-1.6-.5 0-.6-.7-.7-.9-.2 0 .2 0 .7.2 1.1.3.6.3 1 0 1.7s-.3.8.1 1.1c.3.1.7.2 1 .1l1.4-.3zm29.3-1.1c3-.1 4-.3 4-.5 0-.5-5.7-.6-11-.4-3.9.2-4.5.3-3.7 1 .4.3 1 .3 3.6.2l7.1-.3zm-12-1.4c0-.7-.7-1.1-2.1-1.5-.7-.2-.8-.1-.8.7 0 1 .6 1.5 2.1 1.5.8 0 .9 0 .8-.7zm1.6-1h-.5c-.3 0-.2.1.1.1h.4zm-15.4-2c0-.8-.2-1.2-.5-1.2a8.3 8.3 0 0 0-3.6 1.6c0 .2-.4.4-.6.5-.2.1.8.2 2.2.2h2.6v-1.1zm-4.3-5c3.1-.9 7-4 7-5.5l.8-1.5c.5-.7 1-1.6 1.1-2l1-1.7c1.2-1.3 2.3-3.8 2.8-6.3.4-2.2.4-2.6-.1-3.7a21 21 0 0 1-.6-1.8c-.3-1.3-.3-1.3-.7-.6-.2.4-.2.9-.2 1.2.3.7-.6 7.4-1 7.8l-.4.4v-13.8l-.8-.8c-.5-.4-1-.8-1.3-.8l-.7-.2c0-.2-.4-.3-.7-.3-.9 0-.7 1.3 1.1 7.3.3.9.3 4.5.1 6.3-.1 1-.3 1.2-.8 1.2s-.6-.1-.7-2.6c-.2-3.3-.5-4.2-2-6.2-.8-.9-1.6-2-1.8-2.5-.2-.5-.6-1-.8-1-.3 0-1.4.2-2.5.6-1.8.6-2 .8-2 1.3 0 .3 0 .6.2.7.3 0 .4 1.1.4 3.8l.5 20.4c.2.7.3.7 2.1.2zm23-3.4c0-1.6-.6-1.8-1-.4-.4 1-.1 1.7.5 1.7.3 0 .4-.3.4-1.3zm68.4.3c0-.5-1-1.1-1.9-1.1-1 0-1.4.5-.5 1 .5.3 2.4.4 2.4.1zm7.2-.2c.3-.4-.2-.6-1.4-.4h-.8l.6.4c.9.5 1.2.5 1.6 0zm-87.4-4.4c-.1-.2-.2-.1-.2.2 0 .2 0 .4.2.3v-.5zm-17-20.2c.7-.4.8-1.4.4-2.8-.4-1-1.3-2-1.8-2-.8 0-2.5.6-2.6 1 0 .3.2 1 .6 1.8.3.7.6 1.6.6 2 0 .6 0 .7 1.1.5.7 0 1.4-.3 1.8-.5zm4.2-.6 2-1.6c1.6-1.5 2-1.6 2.2-.8 0 .5.2.5 2.2-.8 2.5-1.8 2.7-1.9 2.8-2.7.2-1 .8-1.2 1.7-.6.4.3 1 .4 1.2.4.4 0 2.5-1.5 3-2 1.2-1.2 3.3-4 3.7-4.9.5-1 .5-1.3.2-2.7-.2-1-.5-1.8-.6-1.9-.2 0-1 .6-2 1.5-1 1-2.2 1.9-3.4 2.4-2.1 1-4.6 2-5.1 2l-2.5 1c-2.9 1.4-3.6 1.7-4.2 1.7-1 0-2.8 1-3.2 1.8-.3 1-.3 1.6.7 6.8.2.7.3.7 1.3.4zm18.7-8.3c0-1.2-.5-1.4-1.2-.4-.5.8-.3 1.5.6 1.5.5 0 .6-.1.6-1zm-17.5-2.5c.4-.2 1-.6 1.3-1 .6-.8 4-2.6 5.6-3a9 9 0 0 0 2.3-1.1c.6-.5 1.3-.8 1.5-.8.3 0 .4-.1.4-.3 0-.2.6-.9 1.3-1.7a7.1 7.1 0 0 0 2.2-3.8c.2-.7.6-1.6 1-2 .8-.8.9-1 .9-3.8 0-2.9-.2-4-1.6-8.5l-.6-2.3c0-.3-.2-1-.5-1.6-.8-1.4-1.6-3.7-1.6-4.6 0-1.2-2.8-5.5-4-6.1-.5-.3-.8-.8-1-1.6l-1-2.5c-.4-.7-1-2.5-1.4-4a14 14 0 0 0-1.1-3.2c-.9-1-1-1.6-.9-3.2.2-1.3.1-1.8-.2-2.3-.3-.3-.5-1-.5-1.3 0-.3-.3-1.4-.7-2.3l-.8-2c0-.3-.5-1-1-1.5-.5-.6-.9-1.3-.9-1.7 0-.3-.3-.8-.6-1.1l-1.6-1.3c-.8-.7-1.1-.8-1.7-.7-.7.2-2.4-.6-3.7-1.8-.4-.4-1-.7-1.4-.7-.8 0-1.9-.4-2.9-1-.9-.7-1.9-.9-1.9-.5 0 .2.4.7.8 1.1a23.1 23.1 0 0 1 3.4 5.2c1 1.2 1 1.8.2 2.6-.6.7-.7.8-.4 2 .3 1.1.2 8.4-.1 16.2-.2 2.7-.1 3.1.3 3.7.3.4.8 1.8 1.2 3 .4 1.3 1 2.6 1.3 3 .3.3.5 1 .5 1.4 0 .6.3 1.2 1.2 2.2.6.8 1.2 1.5 1.2 1.7l1 1.6a34.4 34.4 0 0 1 3.3 5.1c1.2 2.2 2.3 4.5 3 6.7.6 2 .7 2.7.7 6.2 0 4.5-.3 5.4-1.8 6.8-.6.5-.8 1-.7 1.3.1.5-.7 2.6-1 2.6-.3 0-.6.8-.4 1 .2.4.5.4 1.4 0zm7.5-23.4c-.3-.2-.6-.5-.6-.8 0-.4.2-.5.9-.5.5 0 1 .2 1.4.4.4.3.4.4.1.8-.4.4-1 .5-1.8 0zm2.5-1.6a4 4 0 0 0-3.4-1.6c-1.4 0-3-.7-3-1.5-.2-.5 0-.6.6-.6.5 0 .9.1.9.3 0 0 .5.3 1.2.4 2.8.4 5.1 1.8 5.1 3.1 0 1-.6 1-1.4 0zm-8.5-4c-.2-.2 0-.5.4-.8.5-.4 1-.5 2.2-.4 1.4 0 1.6.1 1.7.7 0 .5 0 .6-1.5.6l-2 .1c-.4.1-.7 0-.8-.2zm-4.9-1.6c-.2-.3-.2-.5.2-.8 1.2-1 3.2-1.3 4.2-.6.7.5.3.9-1.4 1.2l-2 .4c-.4.1-.8 0-1-.2zm7.8-2-.7-1.9c-.8-2.2-3.1-6-6-9.5-1.5-1.8-2.3-3.7-2-4 .4-.4 1.2.4 3.5 3.5l2.3 2.8c1.4 1.6 4.3 8.4 4 9.1-.2.3-.9.3-1 0zm-3.4 23c0-.3-.1-.2-.2 0 0 .4 0 .5.2.4v-.5zm16.5-23.8c0-.5 0-.6-.3-.4-.2.2-.2.5-.2.7.3.7.5.5.5-.3zm1.9-6c.4-1.7-1-3.2-2-2.2-.2.1 0 .6.3 1.3l.6 1.4c0 .8.9.4 1.1-.6zm-36.8.3c1.1-.5 1.7-1.5 1.6-2.8 0-.3-.1-.3-.3-.1 0 .2-.5.5-1 .7l-1.5 1.1c-.7.5-.7.7-.4 1 .4.6.5.6 1.6.1zm30.2-3.4c.8-.7.8-.7.5-1.9-.6-2 0-4 1.7-4.8.5-.3.5-.4-.1-1.4-.7-1.3-.6-2 .3-3 .4-.4.7-.8.7-1l.8-1c.7-.6.8-.8.8-2.6 0-1.6 0-2 .8-3.1.6-1 .8-1.5.6-2.2-.1-.8 0-1.1.8-2.3 1.9-2.9 1.6-3.4-2.2-3.4-2.5 0-3.4-.2-3.4-.9 0-1.2 3.8-2.7 6.2-2.4 1.7.2 2.5-.3 2.5-1.5 0-.5.2-1.3.5-1.9.4-.7.5-1.6.5-2.8 0-1.8.3-2.5 1.6-3.7.3-.2.6-1.2.7-2.6a7 7 0 0 1 1-3.3c.7-1 .8-1.2.5-2.2-.2-.6-.2-1.3-.2-1.6.3-1-.5-1.2-2.6-1l-4.7.3c-1.6 0-3 0-3 .2-.2.1-.2.6-.2 1 0 .6-.2 1.6-.6 2.6-.4.8-.7 2-.7 2.6 0 1.2-.5 3.6-1 4.5-.2.5-.2.8 0 1.5.4 1.4.2 3.1-.7 4.3a4 4 0 0 0-.6 1.5c0 .6.9 1 2.3 1 1.6 0 1.8.7.2.7-1 0-1.3.2-1.7.6l-1 1.3c-.7.7-.8 1.7-.4 3.2.4 1.3.2 2-1 3.4-.7.7-1.1 1.4-1.2 2.2l-.4 1.4c-.1.1-.4.8-.5 1.6-.2.7-.6 1.7-1 2-.8 1-.8 1.1-.2 2 .4.7.4 1 .1 2.9l-.3 2.8c0 .4-.2.8-.5 1-.3.2-.5.6-.5.9 0 .8 1 3 1.4 3 .4 0 .7-1.2.7-3 0-1.7.6-3.3 1.2-3.3.4 0 .4.2.3 1.4l-.4 3.2c0 1.2-.3 1.9-.6 2.2-.4.4-.4.5.4 2l.8 1.8.5-.7c.3-.4 1-1 1.3-1.5zm-2.1-9.9c-.2-.5.6-6.6 1-7.3.5-.8.8-.1.7 1.3-.5 5.1-1.2 7.4-1.7 6zm-30.9 11.4a2 2 0 0 1 1-.4c.4 0 3.4-2.6 3.4-3 0-.2-.4-.4-.8-.5-.4 0-.8-.3-1-.7-.5-1-.3-5.9.4-9.4.4-2.1.6-4 .6-6.7l.1-4.2c.3-.5.9-.4 1 .3.5 1.3.2 7-.5 10.3-.6 3.1-1 8.2-.5 8.6.2.2 1-.3 1.4-1.2l1.1-2c.6-1 .8-1.6 1-4.8l.4-6.6c0-1.5.1-3.3.3-3.8.2-1 .2-1.2-.9-2.8a24 24 0 0 0-1.3-1.8l-1.4-2c-.8-1.1-1.3-2-1.3-2.5a9 9 0 0 0-.1-1.7c-.2-1.1-.2-1.1-1.4-1.3a12 12 0 0 0-5.2 0c-1.7.5-5.2.6-6.7.2-.8-.1-1 0-2.1 1a33.6 33.6 0 0 1-4.3 3.4l-1.6 1.4a14 14 0 0 1-2.2 1.8c-.5.2-.6.4-.4.5.2 0 .4 0 .4-.2s.3-.3.5-.3.7-.3 1-.7a6 6 0 0 1 1.6-1l1.7-1.2c1-.8 1.9-1 2-.4.2.2-.3.8-1 1.4l-1.5 1.4a8 8 0 0 1-1.5 1c-2.2 1-2.3 2-.7 3.6.8.8 1 1 1.8.8 1.1-.2 1.3 0 .6.8l-.6.6.8 1.5c1 2.1 2 5 2.5 8l1 2.6.6 1.8c0 .4 3.2 3.3 4 3.6l.8.2c.6 0 2.7-2.4 3.6-4.2 1-2 1.6-2.6 2.1-2.6.3 0 .4.2.2 1 0 .5-.2 1-.4 1.2a44.6 44.6 0 0 0-3.2 5.6c-.7.7.3 2 2.4 3.1 1.5.8 1.6.8 2.3.3zm-5-10.9c-.5-.5.4-4.5 1.6-7 .4-.7 1-2.6 1.4-4 .6-2.3.8-2.7 1.2-2.7.4 0 .5.2.4 1 0 1-1.2 4.8-1.6 5.4-.3.4-1.3 3.6-1.5 5 0 .7-.3 1.6-.4 2-.2.5-.7.7-1.1.3zm-7.6-9.6.4-.2c.3 0 .4 0 .3.2-.1.2-.3.3-.4.3-.2 0-.3-.1-.3-.3zm1.6-.8.5-.5c.6-.3.7 0 .2.5-.3.4-.7.4-.7 0zm-4.2-2.4.4-.2c.2 0 .3.1.2.2 0 .2-.2.3-.4.3-.1 0-.2-.1-.2-.3zm4-2.5 1.5-2c1-.9 2-2.4 2.4-3.2.9-1.6 1.3-2 1.3-.8 0 .8-2 3.6-3.8 5-1.2 1.2-1.5 1.3-1.5 1zm51.8 23.1c.7-.7 1.3-2 1.3-3 0-.7 0-.9-.6-.9-.8 0-1.6 1-2.2 2.6-.8 2 0 2.7 1.5 1.3zm-13.1-6.3c.2-.2.1-.2-.2-.2-.5 0-.7.4-.5 1 .1.3.2.3.3-.1 0-.3.2-.6.4-.7zm14-2.6c.4-.2.2-.6-.4-.9a7 7 0 0 1-1-.6c-.5-.4-.6-.4-.6.2 0 1 1.3 1.8 2 1.3zm1.8-6c1-.7 1.2-1.4.4-2.1-.7-.6-1.5-.6-1.5 0l-.5 1.2c-.4.7-.4.8 0 1 .5.4.7.4 1.6-.1zm-14.6-2.9-.3-1.7c-.2-1.1-.4-1.3-.9-1.3-.4 0-.7.2-.8.5-.4 1.3.9 3.8 1.6 3.1.2-.1.4-.4.4-.6zm17.1-2.5a1 1 0 0 0-.3-1.7c-.6-.3-.6-.3-.8.3-.3 1.3.4 2.1 1.1 1.4zm-15-2.4c0-.5 0-.7-.2-.5 0 .2-.4.6-.8.9-.7.6-.5 1 .3.7.4-.1.6-.4.6-1.1zm-9.5-1.4c0-1 .5-3 1.4-4.8.4-.8.7-1.8.7-2.3a6 6 0 0 1 1.4-3.7 3 3 0 0 0 .7-2.1c0-.7.3-1.6.5-2.2.3-.6.6-1.2.6-1.5l.4-1.6.7-2.5c0-.7.3-1.8.4-2.4.3-1.4.2-1.5-2.9-1.8l-2.3-.2-.6 1c-.4.4-1 1.3-1.2 2-2.1 4-2 4-7.3 6.6l-1.8.8-.3.4c-.2.4.8 1.4 1.4 1.4.5 0 2.4 2 2.4 2.5 0 .2-.4.3-1 .2a5 5 0 0 1-1.5-.7c-.7-.5-1.3-.7-2.3-.7-1.2 0-3 .5-3 1 0 .3 1.4 1.4 1.8 1.4 1 0 4.2 2 4 2.6-.2.6.1 1.1 1 1.8 1.5 1 3.2 2.4 4 3.3 1.5 1.7 2.6 2.7 2.7 2.5.1 0 .2-.5.1-1zm8.5 0c.4-.2.4-.3.2-.8-.4-.8-.1-2 .4-2 .6 0 1.5-1.6 1.1-2-.2-.4-.3-.3-.6.3-.6 1.1-1.4 1.7-2.4 1.7-1.2 0-1.7.2-1.7.9 0 1.1 2 2.3 3 1.9zm20.8-1.8c.3 0 .7-.5.8-.9.4-.8 1.3-.8 2.2 0 .3.4.7.7.8.7.4 0 .2-.8-.4-1.5-.6-.7-1.2-.8-3.5-.6-1.1 0-1.4.8-1 2.2 0 .5.3.9.3.7 0-.2.4-.4.8-.6zm24.9.1c.1-.4-1.2-1.2-1.8-1-.5.2-.5.2.2.8.7.7 1.4.8 1.6.2zm-97.5-.7c.4-.3 1.3-.8 1.8-1.3l5.2-4c1.3-.9 2-2 1.6-2.4-1-.8-3-1.7-4.1-2-.7-.2-1.5-.5-1.7-.7-.4-.3-2.3-.6-4.8-.7a10 10 0 0 1-2-.3c-.4-.1-.6.1-1.4 1.8-1 2-1.7 2.7-2.1 2-.2-.2-.1-.5 0-.9.2-.3.4-1.3.4-2.3 0-2 .1-2-2.4-1.5a5 5 0 0 0-2 .8c-.5.6-1.6.7-1.4.2 0-.2.5-.5 1-.7.6-.2 1.2-.6 1.5-.8.2-.3 1-.6 1.7-.7.7 0 1.6-.3 2-.5a54 54 0 0 1 2.9-1.5s-.4-.5-1-.8l-.9-.6-1.7.6-2.4.5h-.6l.6-.6c.3-.4.7-.7 1-.7 1.9 0-1.3-2.3-3.6-2.6-1.6-.2-2.3-.6-2.3-1.4 0-1-.7-1.7-1.6-2-1.2-.2-1.4.2-.9 1.8.3.7.5 1.8.5 2.3 0 .5.2 1.4.5 2 .2.6.5 1.5.5 2 0 .4.1 1.1.3 1.5l.8 2.8 1.2 3.7c.4.9.7 2.3.8 3l.2 1.3h2.5c4 .1 5.3.5 7.4 2.1 1.4 1.1 1.4 1.1 2.5.6zm68.8-.8c-.3-.4-1 0-1 .5 0 .3.2.3.7 0 .5-.1.6-.3.3-.5zm44.4-2.4c-.2-.1-.5-.1-.8 0l.3.1c.5 0 .7 0 .5-.1zm-41.2-1.3c.4-.5.7-1 .7-1.3 0-.6-.9-1-1.4-.7-.6.4-1.3 1.6-1.3 2.4 0 .9 1.2.7 2-.4zm-42.7-.1c-.5-.2-.8-.5-.8-.6 0-.1-.3-.2-.7-.2-.4 0-.6 0-.5.2.3.5 2 1.3 2.5 1.1.2 0 .1-.2-.5-.5zm3-1-.6-.4c-.5 0 .3.8.7.8.3 0 .2 0 0-.4zm21.1-.2c1-.5 1.3-1.2.4-1.2-.6 0-1.8 1-1.8 1.5 0 .2.1.3.2.3l1.2-.6zm-36.7-2.4a6 6 0 0 0 2.3-.7c.5-.3 1.1-.5 2-.5 1 0 1.9-.2 3-.8.8-.4 2.1-.9 3-1 .8-.3 1.6-.6 1.8-.8.7-1 5.3-3.8 6.3-3.8.6 0 3-1.2 4-2 .4-.5.8-1.2.9-1.8.1-.6.4-1.4.7-1.7.3-.4.5-1.2.5-1.8 0-.7.2-1.5 1-2.6 1-1.6 1.9-3.3 1.9-3.8 0-.3.8-3 1.2-3.9.5-1.1.5-1.5-.2-2-.3-.3-.5-.8-.5-1 0-.3.2-1.1.5-1.8l.6-1.6c0-.5-.5-.3-.6.2-.2.7-1 .7-1.3 0l-.4-1.8c-.2-2-1.1-4.2-2.3-5.6a6.7 6.7 0 0 1-1.6-3.5c-.2-.9-1-1-1.6-.2-.3.3-.8.6-1 .6-.8 0-1.3.4-1.3 1.2 0 .9-.3 1.4-.8 1.4-.7 0-1-.4-1.4-2.6-.5-2-1-3-2.3-4.4-.5-.5-1.3-1.7-1.8-2.8l-1-2-.2 2a17.6 17.6 0 0 1-1.2 6.4c0 .4.1.4.7.3 1.2-.2 1.8.6 1.6 2.2-.1 1.2-.1 1.2.6 1.5 1.4.4 1.4 2.3 0 3.7l-1.5 2.3c-.4.8-.9 1.4-1 1.3-.4-.1-.3-1.7.2-2.5a7 7 0 0 0 .5-2.2c0-1.4 0-1.5-.7-1.9-.9-.5-1-1-.6-3 .2-.9.2-1-.1-.7-.2.1-.6.3-1 .3-.6 0-.7-.5-.6-2.3l-.5-1.7-.5-1.2-3-.2-3.6.1a7 7 0 0 1-3.8-.3c-.6-.3-.7-.4-.5-.8.2-.3.6-.7 1-.8a72.7 72.7 0 0 0 3.6-1.5c.4-.2.9-.6 1-1 .3-.6.3-.7-.3-1.2-.6-.4-.6-.4-.2-2.1.7-2.6 1-5.3 1-5.5-.4-.3-2.6 2.3-3.4 3.9-.4.8-1.2 1.9-1.7 2.3l-2.2 1.8c-1.1 1-1.2 1-2.6.9-1.3-.2-1.5-.1-2.2.6-.4.5-1 .9-1.7 1-.7 0-1.2.4-2.2 1.5-1.3 1.6-1.8 1.8-2.4.9-1-1.5-.8-1.9 1.3-3.2a28.7 28.7 0 0 1 7.6-3.4c1 0 3.2-1.5 4.4-3 1-1.4 2.8-5.3 4-8.7.4-1.5.6-2.4.6-4.5V26h.7c.5 0 1.1.3 1.5.6l.7.5V26c0-3.3-3.4-4.4-7.9-2.6-1 .4-2.3.8-2.8.8-2.4 0-9.7 4.7-10.3 6.8-.2.6-.8 1-2.6 1.5-.8.2-2.1.8-3 1.3l-2.2 1.1c-1 .3-2.8 2.3-3.2 3.5-.2.5-.6 1.3-1 1.7l-.6 1-.8 1.2c-.5.6-.8 1.3-.8 1.9 0 1.2-.2 1.7-1 1.7-.7 0-1.2.6-1.9 2.1-.5 1-.5 1.4-.3 2.6.3 1.5 0 4.4-.5 4.9l-.3.7-.5 2c-.3.9-.5 2-.5 2.5 0 .7-.2 1.2-.9 1.8l-.8.9.2 2.4c0 1.3.2 3 .3 3.7 0 .9.3 1.5.9 2.2.9 1.1 1 1.7.4 2.2-.6.6-.5.9 1 1.9.7.5 2.7 2.4 4.4 4.2 1.6 1.8 3.2 3.4 3.6 3.6a668.1 668.1 0 0 1 4.6 1c.4.1 1.1.7 1.7 1.3.9.8 1 1 .7 1.3a2 2 0 0 1-.9.2c-.2 0-.4.1-.3.2 0 .2 1.2.2 2.5.2 2-.1 2.5 0 3.2.4.5.3 1.1.5 1.4.5.2 0 .6.3 1 .7.5.5.5.7.3 1.2-.2.3-.4.5-.6.5 0 0-.3.2-.3.4-.1.3.4 1 1.5 2.2 1 1 1.7 1.9 1.7 2 0 .3 1.7 1.2 3 1.6l2.2 1c.6.4 1 .5 1.9.4.5-.1 1.7-.3 2.6-.3zm3.1-3c-.4-.2-.8-.3-1.9 0-1.2.2-1.5.1-2.5-.3a4.3 4.3 0 0 1-2.5-2.8c-.6-1.7-1-2.2-2.3-2.4-1.4-.2-2-.7-1.3-1.2 1-.7 5.9.6 8.7 2.4.6.4 1.5.3 2.2-.2.6-.4.2-1-1.1-2.6-1.8-1.9-2-2.4-2-3.1.2-.5.5-.7 1.3-.8 2.2-.4 3.4.4 3 2 0 .6 0 .7.8 1.1 2 1 2 .9 3.9-5.1 1-3 1-3.4 2.4-4.8.8-.9 1.7-2.2 2.1-3 1-2 1.3-2.1 1.8-1.6.4.3 1 .4 2 .4 3.5-.2 4.3 0 5.4 1 1 .7 1.4.8 2.5.8 1 0 1.3.1 1.3.6 0 .4-.3.6-1.2.8-1.5.4-2.2 1-2.4 2.4-.3 1.4-.8 2.6-1.4 3.1a8.2 8.2 0 0 1-4.9 2.1 14 14 0 0 1-2.7-.7c-3.2-1.2-3.9-.6-3.3 2.7v2c-.4.7-1.5 1.2-2.8 1.5-1.2.2-1.7.7-1.7 1.6 0 .4-.3 1-.6 1.6a3 3 0 0 0-.4 1.8c0 1 0 1-.9 1.1-.5 0-1.1-.1-1.5-.3zm-1.1-2.3c-.2-.2-.7-.4-1.2-.4-.4 0-1-.2-1.3-.4-.3-.2-.6-.3-.7-.2-.4.2 0 .9.5.9.3 0 .6 0 .7.2 0 .2.6.3 1.2.3 1 0 1 0 .8-.4zm14-12.8a6 6 0 0 0 .6-3.6c-.1-.4-.2-.3-.9.1-.4.3-.8.6-1 .6-.4 0-1.6 1.3-1.9 2.2-.3.8-.3 1 0 1.2.7.4 2.7.1 3.2-.5zm4.2-3.6c.7-.2.8-.8.1-1-.5-.3-1.7 0-1.7.4 0 .7.5.9 1.6.6zm-32.8 9c0-.2.2-.4.4-.4s.4.2.4.4-.2.4-.4.4a.4.4 0 0 1-.4-.4zm2.1-.9c-.9-.1-1.2-.5-.8-1 .5-.5 1.4-.5 2 0 .5.3.5.4.2.8l-.5.4-.9-.2zm-11.6-1.5a16 16 0 0 0-2.4-2c-1.2-.7-1.4-1.6-.3-1.6 1.2 0 4.7 2.7 4.8 3.7.2 1.6-.5 1.5-2.1-.1zm13-.6c0-.4.2-.6.9-.7 1.3-.3 1.8 0 2 .6 0 .5 0 .6-1.5.6-1.2 0-1.4 0-1.4-.5zm6.4.2c-.2-.5.4-1 .7-.6.3.3.2.9-.3.9l-.4-.3zm4.2-1.1c-.2-.2-.3-.7-.3-1.1 0-1.3-.7-3.8-1-4.2-.2-.2-.6-.2-1.3.1-1 .4-1.3.4-2.9 0-1-.1-2-.4-2-.6a1 1 0 0 0-.7-.2c-1 0-2.5-1.6-4.2-4.2l-1-1.7c-.6-.7-1-1.5-1-1.8 0-.7-.5-1-1.7-1-2.2 0-3.3-.8-3.3-2.3 0-1 1-1.1 3-.4 2 .6 2.6.7 4.3.1a37 37 0 0 1 8.4-1.2c1.6 0 2.2.2 3.5.8.9.5 1.7.8 1.9.8l.9-.7c.5-.5.6-.6 1-.3.5.5.3 1.7-1 5.7l-1.1 3.1.4 3.5c.5 3.5.5 3.5 0 4.7-.6 1.2-1.2 1.6-1.9.9zm-.7-8.1.3-1.8c.2-1.7 0-1.8-1.3-.6-1 .9-2.7 1.8-3.4 1.8-.4 0-.5-.2-.5-2 0-1.9 0-2-.8-3-.5-.5-.8-1.1-.8-1.6 0-1.4-1.2-1.4-2.7 0-1 1-1 1-.8 2.4l.5 2c.4.7 2.2 2.4 3 2.8 1 .5 6.3.5 6.5 0zm-.7-6.1.6-.6-.7-.9c-.7-.8-.8-1-2.2-1-.8 0-1.4.2-1.4.4 0 .5 1 1.6 1.8 2 1.3.7 1.3.7 2 0zm-6.3 13.2c-.5-.5-.5-.6-.3-1 .5-.5 1-.4 1.5.3.7 1.2-.2 1.7-1.2.7zm-9.6-3.3c-.8-.5-2-1.2-2.4-1.6-1-.8-1.4-.8-1.7-.2-.4.6-1.8.4-1.9-.4 0-.4.1-.6.5-.7.5-.2.5-.3.4-1.1a2 2 0 0 1 .2-1.6c.5-.7 1.6-.8 2-.2.3.4.3.3.2-.4l-.2-1c0-1.4.6-1 2 .9 1.6 2 1.8 2.5 1.5 3-.2.3-.4.3-.8 0-.4-.2-.5-.2-.5 0 0 .3.7 1.1 1.6 1.9 1.2 1 1.6 1.6 1.5 1.9-.3.6-.7.5-2.4-.5zm-7-7.3c-.8-.6-.9-2.4-.2-2.2.2 0 .6.6 1 1.2.3.8.4 1 0 1.3-.2.2-.4.2-.9-.3zm40.7-2a52 52 0 0 1 .6-5.4l.5-.7c.8-.5 2.4-.3 2.7.3.3 1-1 4.1-2.2 5.5-.7.7-1.6 1-1.6.4zm4.7-.2c0-.8.8-1.5 1-1 .4.6.4 1 0 1.3-.5.5-1 .4-1-.3zm-51.6-2.5c-.7-.2-1-1-1-2 0-.6.1-1 .4-1.1.3-.1.1-.3-.5-.8-.5-.3-1-.9-1.3-1.3-.3-.6-.3-.7.1-1 .6-.5 1.3-.3 3.3.7 1.5.7 2 1.4 1.7 2-.2.2-.5.3-1.2.2-.7-.2-1-.1-1 .2 0 .2.2.4.3.5.2.1.4.7.6 1.3.3 1.3-.1 1.8-1.4 1.3zm3.8-5.7c-.5-.5.2-1.3 1-1.1.8.3.7 1.5-.1 1.5-.4 0-.8-.2-1-.4zm26-.5c-.1-.5.1-1 .5-1 .6 0 .7.8.2 1-.4.2-.6.2-.6 0zm-3.9-1.7c-1-.3-.7-2.2.4-2.2.9 0 1.3.4 1.2 1-.1.7-1 1.3-1.6 1.2zm-4.8-.9a10 10 0 0 0-1.8-.2c-1.4 0-1.3-.6.2-1.3 1.3-.7 2-.7 3.2-.3 1 .3 1 .7.6 1.6-.3.5-.9.6-2.2.2zm-16.6-1c-1.8-1-.8-3 1.4-2.7.5 0 1-.1 1.3-.4.4-.4.5-.4 1.1 0 1.3.8 1.1 2.3-.3 2.3-.5 0-1 .2-1.2.6-.5.8-1.3.9-2.3.2zm6.5-1.8c-.3-.3-.4-.7-.3-1.2 0-.7.2-.9.7-1 .9 0 1.4.7 1.3 1.8-.1.9-1 1-1.7.4zm12.6-5c-.5-.5-.2-1.2.5-1.2.5 0 1.1 1 .9 1.4-.2.3-1 .2-1.4-.2zm-21.1-1c-1.2-.4-1.5-1.9-.5-3 .7-.9 1.3-.7 1.6.5l.3 1.7c.1.7 0 .8-.4 1l-1-.1zm5.2-2.6c-1.1-1.2-1.3-1.6-.7-2 .6-.6 1.4-.1 2 1.1.6 1 .6 1.2.3 1.6-.4.4-.6.3-1.6-.7zm7.1-1.4a4 4 0 0 1-1.3-1.5c-.3-.6-.2-.9.1-1.4.6-1 2-1.7 2.6-1.6.4.2.5 0 .5-.8 0-.6.2-1 .6-1.4l1.9-1.7c1.6-1.4 2.6-2 3.2-2 .4 0 .4.1.3 1-.2 1-.1 1 .4 1 .4 0 .9.2 1.1.4.6.4.3.7-1 1-.6 0-1 .4-1.3 1-.3.8-.6 1-1.4 1-1 .2-1 .3-1 1 0 1 0 1-1 1.4-.8.3-.8.4-.6 1.4.2 1.8-1.3 2.4-3 1.2zm-7.9-3a4 4 0 0 1-.3-1c0-1.5 2.5-3.8 4-3.8 1.8 0 2 1.2.4 2-.7.2-1 .7-1.6 1.9-.6 1.2-1 1.5-1.5 1.6-.6 0-.8 0-1-.6zm18.7-5.4c-.2-.5 0-1 .5-1s.5 1 0 1.1c-.2.1-.4 0-.5-.1zm40.9 62a1 1 0 0 0-.8-.1c-.5.2-.4.3.4.3.5 0 .6 0 .4-.2zm19.8-1.5c.6-1 .8-2 .5-2.5-.2-.3-.4-.3-1 .4-.3.4-1 .8-1.3.9-.4 0-.8.4-1 .6-.2.4-.1.6.4 1 .9.8 1.8.6 2.4-.4zM226.4 94c.4.3 2 0 2.2-.5.2-.5-.7-1-1.4-.8-.7.3-1.6 1-1.6 1.5 0 .3 0 .3.2 0 .1-.2.4-.3.6-.2zm57.9-1.4c-.4 0-.8.5-.6.9.1.1.3 0 .5-.3.3-.3.3-.5.1-.6zm19-2.1c-.2-.2-.3-.2-.5-.1-.1 0-.2.2 0 .4 0 .1.2.2.3 0 .2 0 .2-.2.1-.3zm-17.7-4.6c0-1-.7-1.8-1.5-1.8-.5 0-.4 1.2.2 2 .3.3.6.8.6 1 0 .5 0 .5.3.1.3-.2.4-.8.4-1.3zm19 .8c0-.7-.7-2.4-1-2.4-.6 0-.6.8 0 1.8s1.1 1.2 1 .6zm-111-3.5-.4-.1c-.2 0-.4 0-.4.2s.2.2.4.1l.4-.2zm21.4-1.4c0-.2-.2-.3-.4-.3s-.4.1-.3.3l.5.2.2-.2zm88.8-.4 1.8-.3.5-1.7.6-2.2c.1-.4 0-.5-1-.5a66.8 66.8 0 0 1-14.2.3c-5.2-.3-7.3-.6-8.6-1.2-1.8-.8-3.9-1.2-5.1-1-2 .2-2.5.7-2.5 2s0 1.3 1.4 1.3c.4 0 .8.1 1 .4.4.4.7.5 2.5.5 1.9 0 2.2 0 2.6.5.3.4.5.5 1 .2.6-.2.9-.2 1.5.2.7.4.8.4 1.8 0 1-.5 1-.5 2 0 1 .6 4.5 1 7.5 1a7 7 0 0 1 2.8.5c.8.4 2 .4 4.4 0zm6.5-.7c.5-.7.6-1.5.2-2.5-.7-1.8-2.3-.5-2.4 2v1.4l.9-.2c.5-.1 1-.4 1.3-.7zm-107.7-5.9c3-1.3 3.5-1.9 2.2-2.6-.5-.2-.8-.2-1.5 0l-2.5.6c-4.3.7-5.6.8-9.6.4-3.9-.3-4-.3-4.4.2-.2.3-.4 1-.3 1.3v.8l2.6.2c1.4 0 2.7.2 2.8.3.1.2 2 .2 4 .1h3.9zm74.3-10.2c.3-.2 1-1 1.4-2 .6-1 1.1-1.8 1.3-1.9.4-.2 1.4-2.5 1.8-4l1-3c1.1-2.4 2.2-6.2 2.3-7.7 0-1-.1-1.4-.6-2-.8-.7-1.8-.9-1.5-.1.4 1 .4 1.4 0 1.9-.3.3-.8.5-1.4.5-.8 0-1.2.2-2.3 1.4-1.4 1.4-2.5 3.1-2.5 3.9 0 .2-.4.7-.8 1-.7.5-1.9 2.6-1.9 3.4 0 .2-.1.7-.4 1.2-.3.7-.3 1.3-.2 2.8.2 2 .3 2 1.2 2.3.8.2 1 .4 1.1 1.4.2 1.2.6 1.4 1.5.9zm-1-2.8c0-.4 0-.4.1-.2v.5l-.1-.3zm-.2-2c-1.4-.1-1.5-.7-.4-2.5.7-1 1-1.7.9-2-.2-1 .7-1.7 1.8-1.5 1.1 0 1.5.7 1 1.6-.2.5-.2.8 0 1 .3.4.2.6-.4 1.1-.4.4-.6.9-.5 1.1.1.5-.7 1.5-1.3 1.4l-1.1-.1zm1.1-7c-.3-.8-.2-1.2.7-1.6 1-.5 1.8-.3 1.8.5 0 .7-.4 1.1-1.5 1.3-.6.2-.9.1-1-.2zm-4.9.7c1-2.2 1.6-3.2 3.6-5.7 2.4-3 3-4.3 1.9-4l-2.2.4c-3.4.7-5.5 1.5-5.8 2.2l-.2 4c0 3.1.1 3.7.6 4.5.3.5.7.9.9.8.1 0 .7-1 1.2-2.2zM88.6 341.4c-2 0-2.5-.2-2.7-.6-.3-.5-.2-.5 4.2-.4 4.2.2 5.7 0 11.9-.7a10 10 0 0 1 2.6-.1c1 .4-.6.8-6.5 1.4-3 .4-6.7.5-9.5.4zm18.9-1.7c.2-.2 1.1-.5 3.6-1 .7 0 1.2.4.8.7-.3.4-4.7.6-4.4.3zm-34.7-5.2c-.4-.6-.6-2-.1-2.3l.2-.6c0-.4-.5-.5-5.7-.5-7.3 0-11.9-.4-12.5-1-.4-.4-.4-.5 0-.9.5-.3 1-.3 2.5-.2 4.2.4 10.2.7 13 .7 3.7 0 4.2.2 4.1 2 0 .6 0 1.4.2 1.6.4.4 3.4.5 4.8 0l4.6-.2c4.6 0 8.7.4 9.5 1 .5.5.5.6 0 .7-.2.2-1.3.1-2.5 0a47.6 47.6 0 0 0-15 0c-2.3.2-2.6.2-3-.3zm164-17.7a5 5 0 0 1-1.7-1c-1-.9-1.2-1-3.5-1.2l-3-.4c-.4-.2-.4-.2 0-.5.7-.4 6-.2 7.3.2 1.7.6 3 .5 6-.5 1.4-.5 3-1 3.4-1 1 0 2.3-.9 3.8-2.4 1.1-1.1 1.6-1.2 1.6-.3 0 .9-1.3 2.2-3.7 3.6-2.8 1.6-4.4 2.3-5.2 2.3-.4 0-1 .2-1.4.5-.7.5-2.6.8-3.6.7zm-37.3-1c-.1-.4.2-.8 1-1.2.4-.3 2-.4 5.4-.4a43 43 0 0 0 5.7-.4l2.7-.8c2-.5 3.3-.7 3.8-.3.4.2 0 .6-.8 1-.2 0-.4.2-.4.4 0 .6-1.1 1-4 1.4-3.5.5-13.2.7-13.4.3zm-34.7-1.4c-.3-.8.6-1.2 3.2-1.4 3 0 4 .1 3.6.7-.2.2-.6.4-1 .4-.3 0-1.2.1-2 .4-2.1.5-3.6.5-3.8 0zm176-.5c-1.7-.3-3.5-.9-4-1.2-.8-.5-1-.5-1.6-.2-2 .8-4.3 1.4-4.8 1-.6-.3 0-.7 2-1.2 1.8-.4 2.1-.6 2.5-1.3.4-1 1.8-2 2.6-2l.8.4c.2.2.8.5 1.3.6.6 0 1.6.5 2.2.9 2.2 1.4 4.9 2.4 6.4 2.4 1.1 0 1.5 0 1.5.4 0 .2-.3.4-.7.4-.4 0-.6-.2-.6-.3 0-.4-1.4-.3-2.9.3l-1.6.5-3.2-.7zm-118.6-.5c-.6-.3-.3-1 .5-1 1 0 1.6.3 1.6.8 0 .3-1.4.4-2 .2zm-45.5-.3c-.4-.2-.4-.8 0-1.2.3-.1 1.1-.4 2-.5 3-.4 8.4-1.3 9.2-1.6.5 0 1.3-.6 1.7-1 1.2-1.2 2-1.3 3.7-.4 1.3.6 2.3.8 8 1.7l2.1.4c.7.2.6.8-.1 1a39.8 39.8 0 0 1-10.7-1.5c-1-.2-1.3-.1-2 .5-.4.3-1.3.8-1.9 1-.6 0-1.2.3-1.4.3a105.8 105.8 0 0 1-10.6 1.3zm138-3.3c-.6-.3-2-.6-4.8-1-3.1-.5-8.8-2-10.1-2.7-1.4-.6-2.4-.6-3 0-.3.3-1 .7-1.6.8-.6.2-1 .4-1 .6l-.5.2-.8.4c-.2.2-.7.5-1.1.6-.4 0-.8.3-1 .4 0 .2-.1.2-.1 0 0-.6 1.6-1.9 2.6-2.2.5-.1 1.4-.5 2-1 .5-.3 1.2-.6 1.5-.6.3 0 .7-.1 1-.4.8-.8 2-.7 4.3.4 1.2.6 2.7 1.1 3.4 1.3l3.2.8c1 .3 3.7.7 5.9.9 4 .3 4.8.6 4.4 1.2-.3.5-3.4.7-4.3.3zm-29.5-.3a29.7 29.7 0 0 1-7.8-2c-.6 0-2-.5-3-1l-2.5-1c-.6 0-1.9-.4-1.9-.7 0-.3-13.1 0-14.5.2l-2 .5c-.5 0-.7.3-.8.8-.3 1.3-.6 2-1 2-1 0-.5-2 .7-3.4l.8-.8 4.1-.3a42.7 42.7 0 0 1 20.4 3c1.1.6 4.5 1.1 8.2 1.4 2 .1 2.7.3 3 .6.1.2 0 .5-.3.7-.5.4-.7.4-3.4 0zm-.9-2.9c0-.7 1.5-1.3 3.5-1.3 1.3 0 1.5 0 1.5.5 0 .7-.4.8-2.3.8-.9 0-1.7.2-1.8.3-.2.5-.9.3-.9-.3zm-6.5-7.3c-.5-.2-.4-.8.2-1.2.6-.4 1.4-.6 7-1.5a39 39 0 0 0 4.2-.9c1-.3 1.2-.3 2.2.2 1 .4 1.9.5 5.7.5 4.5 0 4.6.1 4.6.7 0 .3.3.7.6.8l5 .4c2.5 0 4.6.2 4.7.3.2.1-.7.2-1.7.1-.4 0-.7 0-.8.2-.1.2-1.2.3-2.4.3-3.5 0-3.5 0-4.6.2-1.1.2-2-.2-2.3-1.1-.3-.7-1-.8-3-.4-1.3.2-3.3.1-7.9-.4-1-.1-1.8 0-2.4.1-.5.2-1.6.5-2.6.6a51.8 51.8 0 0 0-6.5 1.1zm23.7-6.5c-1.8-1.3-2.4-1.6-3-1.3-.6.4-3.6.4-3.6 0 0-.1-.3-.2-.7 0-1 .2-2.5-.2-2.5-.7 0-.3.2-.3 1.2-.2 2 .4 4 .3 5.4-.2 1.2-.4 1.5-.4 2.2 0 .5.1 1 .5 1.2.7.6.6 1.6.6 2.9-.2 1.8-1.1 3.7-2 4.3-2l.7-.2c0-.2.6-.3 1-.3 1.2 0 1.3.7.2 1-1 .1-2.2.8-5 2.5-1.3.8-2.6 1.5-3 1.5l-1.3-.6zM80 288.5a3 3 0 0 1-.5-.9c-.2-.5-2.4-1.3-4.3-1.5-.9 0-2.4-.3-3.3-.5-2.6-.5-6.8-1-8.6-.9-1.3.1-1.6 0-1.6-.3 0-1 4.5-1.5 8.3-.8 5.1.9 9.6 2.1 10.9 3 .8.6 2.7.6 5.1 0l3.9-.3c2 0 2 0 3.4-1.1a26.9 26.9 0 0 1 5.6-3.8 3 3 0 0 1 1-.7c1.5-.6 5.7-1.3 7.4-1.3 1 0 1.5.1 1.1.2-.3 0-.6.2-.6.3 0 .1-.6.3-1.3.4-1.8.2-4.4 1-5.7 1.7-.6.3-1.2.6-1.5.6-.6 0-3.5 2.3-4.1 3.3-.4.6-1 1.1-2 1.6-1.4.6-1.9.7-5.1.7-2.2 0-4 .2-4.3.4-.9.5-3.3.4-3.8-.1zm280-16.6c-.4-.9.2-1.1 3-1.1l14.3-.5c4-.3 6.6.1 5 .8l-4 .2c-7.3.3-9.8.4-12.2.7-3.7.4-6 .3-6.2-.1zm24-1c-.4-.4-.4-.4.1-.7.4-.3 1-.3 2-.2l2 .2.5.1c0 .3-3 1-3.8.9l-.8-.4zm9.9-.6c-.4-.5.1-.7 1.4-.7 1.3 0 1.4.5.2.8-1.2.3-1.3.3-1.6-.1zm11-.3c.4 0 1-.3 1.3-.4l3.5-.4c1.7 0 5-.3 7.2-.5a92.5 92.5 0 0 1 8-.6c.7-.3.5-.8-.5-1.2-.6-.1-1.8-.7-2.9-1.1a36.9 36.9 0 0 0-5.6-2.2l-1-.3a21 21 0 0 0-7-2.6 11 11 0 0 1-2.6-1c-.4-.3-1.2-.8-1.8-1l-1.1-1c-.2-.5 1-.3 3 .6 1.2.5 3.2 1.3 4.6 1.7a26.9 26.9 0 0 1 5.6 2.2l2 .9 3 1.2c.8.2 2.6 1 4.2 1.7a12 12 0 0 0 5.8 1.7c1.7.2 3.1.2 3.3.1.4-.2 16.3-.3 17.1 0 1.3.3-3 .8-6.6.7-3.3 0-3.7 0-4.6.6-1 .5-1 .5-2.3.1a9.3 9.3 0 0 0-5-.1l-3 .2a61.4 61.4 0 0 1-11.6.5 221 221 0 0 0-13 .2zm82.9-1c-.4-.5-1.6-1.4-3.3-2.4a136.5 136.5 0 0 0-8-6.1c-1.2-.8-1.8-1.5-1.3-1.5.3 0 2.8 1.5 7.4 4.6a35 35 0 0 0 4.4 2.5c1.4.5 3 1.9 2.9 2.5-.2.8-1.6 1-2.1.3zm-23.1-1.4c-.8-.2-1-.7-.3-1 1.3-.5 3.2.3 2.2 1-.4.2-.6.2-1.9 0zM86.3 258c-.8-.2-.9-.8-.2-1.2a35 35 0 0 1 6-.3c3 0 6.6 0 8-.2a93 93 0 0 1 6.1-.4l6.7-.3c3-.2 3.9 0 3.6 1.1-.2.5-.4.6-6 .6a75.8 75.8 0 0 0-11 .5h-4.4c-4.7.4-8 .5-8.8.2zm310.7-2.6c-1-.7-1.2-1.2-.7-1.4.5-.2 2.7 1 2.7 1.5 0 .6-1 .6-2 0zm-311.2 0a5 5 0 0 1-1.3-1.1 3 3 0 0 0-1.6-1c-1-.2-1.4-.7-.9-1.4.5-.7 3.1-.3 4.4.5.8.6 1.3.7 3.7.7a41.6 41.6 0 0 0 10.1-.5c.7 0 1.6-.2 2-.3.7-.4 2-.1 2 .4 0 .6-2 1.2-4.8 1.5-1.6 0-3.6.4-4.5.7-1.4.5-1.8.5-2.8.3-1.2-.3-1.6-.3-5 .4-.3 0-.9 0-1.3-.2zm393.5-2.3c-.6-.2-2.5-1.8-2.3-2 .2-.2 1.9.6 2.4 1.2.6.6.5 1-.1.8zm-479-3v-.6l4-.3c3 0 3.8 0 3.3.3l-3 .4-3.3.4c-.7.2-1 .1-1-.2zm471-1.4c-1.3-.8-2.5-1.5-2.5-1.7-.2-.4.8-.3 2 .4l2 1c1 .3 2.3 1.2 2.3 1.5 0 .6-1.4.2-3.7-1.2zm-459.8.8c-1.3-.4.1-1.4 1.8-1.4 1.5 0 1.9.5.9 1-.8.5-1.7.6-2.7.4zm11-1.5c.1-.5 4.4-1 8.5-1l3.2.1-2.3.2-8.2 1c-1.1 0-1.4 0-1.3-.3zm38.2-1.1c-.6-.2-2-.4-3-.4-2.2 0-2.3-.5 0-.6a144.6 144.6 0 0 0 7 0c.9.2.7.8-.4 1.1-1.3.3-2 .3-3.6-.1zm-17.2-.4c.5-.3 3.8-.3 3.8 0 0 .1-.9.3-2.1.2-1.2 0-2 0-1.7-.2zm301.9-.2a.9.9 0 0 1-.6-.5c-.2-.6 1-.9 3.8-.9 2.1 0 2.7 0 2.7.4 0 .2-.5.4-1.3.5a273.9 273.9 0 0 0-4.6.5zm121.2 0-2.4-1.2-2.3-1.2-1.7-1c-.4-.3-1.3-1-2-1.3-1.3-.7-1.8-1.3-1.5-1.8.2-.3 4.3 2 8 4.2.5.4 1 .6 1.3.6.5 0 2.1 1.5 1.8 1.7a3 3 0 0 1-1.2 0zm-114.5-1c0-.3.3-.4 1.9-.4 4.2 0 8.6-.3 10.8-.7 3-.5 7.5-.5 7.9 0 .2.3 0 .4-1.4.6h-2.7c-1.4 0-6.4.5-6.7.8l-4-.2c-3-.3-3.9-.3-4 0 0 .5-1.8.4-1.8-.1zm98.4-1.9-.8-.5-1.5-1a31.6 31.6 0 0 1-5.1-3c-1.4-.7-2.2-1.3-1.8-1.5a32.5 32.5 0 0 1 8.8 4.9c.6 0 2 1 1.8 1.3-.2.3-.6.3-1.4-.2zm3.2-4.7c-.3-.4-.5-.7-.3-.7.5 0 1.6.6 1.7 1 .2.6-.8.4-1.4-.3zm-1.2-1v-.3h.5l-.1.5-.4-.1zm-2-.9a32 32 0 0 1-2.1-1.3l-1.7-1c-.3 0-2.3-1.4-3.1-2.1-.8-.8-1-1.3-.8-1.3.4 0 1.6.6 1.6.9l.5.3a30 30 0 0 1 5 3.3c.4 0 1.4 1 1.3 1.3 0 .2-.3.1-.7 0zm-11.3-.5c-.5-.5 0-.5.6 0 .3.3.3.4 0 .4-.1 0-.5-.2-.6-.4zm-8.7-5c-.2-.2-.6-.4-1-.4-1 0-1.1 0-1.5-.7-.2-.6-.2-.6.5-.6.5 0 1 .2 1.5.6.4.4 1 .7 1.2.8.2.1.5.3.6.6.2.6-.8.4-1.3-.2zm9.3-1.8-1.4-.7c-.3-.3-2.9-2-5.8-3.7a367.2 367.2 0 0 1-9.3-5.5c-.2.2 1.1 2 1.6 2.2.2 0 .6.3.7.6.4.7-.3.7-1 0l-1.1-.7-2-1.4a32.6 32.6 0 0 0-6.4-4.5c-.7-.3-1.2-.7-1.3-1l-.7-.5c-1.2-.3-2.4-2-1.5-2 .5 0 2 .8 2.3 1.2.1.2.6.5 1 .6.8.3.9.3 1-.2.1-.4.2-.4 1.7.3l1.7 1c0 .2.1.3.3.3a592.7 592.7 0 0 0 13 8.4l2 1.2 2 1.3a20 20 0 0 0 2 1.3c2 1 2.8 2.3 1.2 1.8zm-10.4-2.1c-1.7-1.5-2.2-2.2-1.7-2.7.2-.2.7.2 2 1.4l1.8 2.2c.4.9-.4.5-2.1-1zm-5.4 0-.6-.2c-1.3 0-2.6-1-2.1-1.6.1-.3 1.1.1 1.7.8.2.3.6.5.7.5l.8.4c.3.4.3.4 0 .4s-.5-.1-.5-.3zm-368.2-1v-.5c.5-.4 7.7-.9 15-1a459.7 459.7 0 0 0 17.5-.5c.2.1 13.3-.5 20.4-1 3.2-.2 4.3-.2 4.6 0 .5.5.5 1 0 1.2l-7.8.5-8.6.3c-3 .3-19.4.7-24.7.6-5.5 0-11.6.2-14.7.5-1 .1-1.5 0-1.7-.1zm413.6-2.7-.1-3.8c0-1.1-.2-1.5-.7-2-1-.8-1.3-.5-1 1.2.2 1.7-.3 3.8-1 3.8a17.3 17.3 0 0 1-5.6 1.6c-.7 0-2.4-.9-4.4-2.4a150 150 0 0 0-7-4.8 90.1 90.1 0 0 0-8.7-5.8 477.7 477.7 0 0 0-9.2-6.3l-1.1-.9c-1.4-.8-2.9-2.1-2.9-2.5 0-.6 1.2-.2 2.4.7 2 1.6 3.2 2.3 10.7 7a57.4 57.4 0 0 1 5.3 3.7 47 47 0 0 1 4.8 3c.7.6 2.3 1.3 3.6 1.6.4 0 1.4.6 2.3 1.3a8 8 0 0 0 2 1.2c.5 0 1-1.5 1-2.9-.2-1.4-.1-36.4 0-39.8a76.2 76.2 0 0 0 .6-18.7c-.1-9.1-.2-12.5 0-29 0-6.8 0-8-.4-9-.2-.6-.4-1.8-.4-3.3 0-2 0-2.4.6-3.2l.7-.8-.8.1a240.1 240.1 0 0 0-22.2-2.6 66.7 66.7 0 0 1-13-1.4c-1.3 0-1.4.6-1.4 6.9v9.4a115 115 0 0 0 .5 13l.3 6.6a69 69 0 0 1 .2 7.4 1213.4 1213.4 0 0 1 .6 8.8c.2 2.9.1 3.5-.8 4.2-1 .7-1 2.7 0 2.7.3 0 .5 0 .5.2 0 7 0 9.7-.2 10.5a194 194 0 0 0-.2 16.6c-.2.8 0 1.3.4 2.2.4.6.9 1.3 1.2 1.5.7.6 0 .6-1.1 0l-2-1c-1.3-.4-1.5-1.2-.9-3.7.3-1.2.4-2.1.3-2.5l-.2-2.8c.1-2 0-2.1-.6-2.6-.6-.4-.7-.6-.7-2.2l.4-4.4a117.5 117.5 0 0 0 .9-18.7c-.2-4.8-.1-5.2.3-5.3.7-.2 1.2-3.2 1-6.5-.3-4-.8-8-1-7.9l-.2.8c0 .4-.2.7-.3.7-.4 0-.3 1.8.1 2.5.3.4.4 1.2.4 3l.1 4c.2 1.3.2 1.5-.2 1.7-.2 0-.5 0-.6-.4-.3-.4-.5-6.9-.7-23.7l-.4-10.2c-.4-1.8-.4-7.8 0-8.8.4-1.4 1.3-3 1.7-3.2a150.7 150.7 0 0 0 24.8.6c1.2-.2 2.2-.1 3.3 0 .8.2 2.9.4 4.6.5 10.6.4 19.8 1 21 1.6.6.2 1.7.5 2.6.6a6 6 0 0 1 2.1.7c.5.5.6 2.3.2 4.7a91.6 91.6 0 0 0 .2 17.2 423.8 423.8 0 0 0 .3 80.2c.4 3.7.4 8.5 0 9.3-.4.7-.8.9-1.8.9-1.1 0-1.6-.3-3.8-2.2l-2-1.5c-.1 0-.8-.4-1.4-1a5 5 0 0 0-1.5-.9c-.2 0-.3.8-.3 3 0 3.2-.1 4-.7 4-.2 0-.3-.8-.5-2.5zm-5.3-2.1.6-.4-.2-.9a1320.5 1320.5 0 0 0 .6-79.8c0-23.3.1-24.4.6-25.3.5-1 .5-1 0-1.5-.4-.4-.5-.4-1.6.2l-1.1.5-.2 2 .1 3.6c.2.9.3 2.6.2 3.8 0 2-.1 2.3-.6 2.7-.6.4-.6.5-.7 10.5a1555.4 1555.4 0 0 0 0 40.9c0 .3-.2.6-.6.8l-.6.3V192a121 121 0 0 0 1.1 25.2c0 2.1.2 4 .3 4.3.2.5 1.2.6 2 .2zm15.2-.3c0-.6-.9-1.5-1.6-1.5-.7 0-.6.7 0 1.5.7.7 1.4.7 1.6 0zm-4.3-3c0-1-1-1.2-1-.3 0 .7.2 1 .8 1 .2 0 .3-.3.2-.8zm5.1-1.6c0-1-.5-1.2-1-.5-.3.3-.3.5 0 1 .8.7 1 .6 1-.5zm-7.7.2c-.1-.5-1.3-.8-1.3-.3 0 .2.8.8 1.2.8v-.5zm2-3.3v.5-.5zm-6.3-6.8c0-3.8-.1-5.4-.3-5.5-.3 0-.4.9-.4 3.3-.2 5.2 0 7.5.4 7.5s.4-.8.3-5.3zm7.8-2.1c0-.7-.1-1.3-.3-1.3-.1 0-.2.6-.2 1.4 0 1 0 1.4.2 1.3.2 0 .3-.7.3-1.4zm-7.8-7.6-.1-2.6c-.2-.6-.3-2-.3-3.1 0-3.2-.3-4.3-1-4.7-.9-.4-.9-.4-.9.7 0 .7.2 1.2.5 1.5.6.5.9 2.9.9 6.7l.1 2.8c.3.5.6.1.8-1.3zm3.8-20.3c0-.8-.1-1.5-.3-1.5-.1 0-.2.7-.2 1.5s.1 1.4.2 1.4c.2 0 .3-.6.3-1.4zm0-4.2c-.1-.3-.2-.1-.2.5 0 .5 0 .8.1.6v-1zm0-3c-.1-.4-.2-.2-.2.6 0 .7 0 1 .1.7v-1.3zM1.1 223.5c0-.6.6-1 1.3-1 1.8 0 2.6.9 1 1.2-1.3.2-2.3.2-2.3-.2zm8.9-.5c-.1-.1.2-.2.8-.2.5 0 .9 0 .8.2-.1.2-.5.3-.8.3-.4 0-.7-.1-.8-.3zm4.2 0c0-.1.5-.2 1.5-.2.8 0 1.6 0 1.6.2s-.7.3-1.5.3-1.5-.1-1.6-.3zm5.4-.1h.5l-.4.1c-.3 0-.3 0-.1-.1zm2-.1c.4-.4 10.2-1 11.9-.7 1.9.3.6.5-3.4.6-2.2 0-5 0-6.4.2-1.9.2-2.3.1-2-.1zm481.3-5.3a116 116 0 0 1-.6-23.4c-.2-.5-.2-1.7 0-3.2l.4-5.7a816.7 816.7 0 0 1 .9-20.2c-.4-.2-.4-5.1 0-5.3l.2-1.2c0-.6 0-1-.2-1s-.3-1-.3-2c0-1.5 0-2 .4-2a55.9 55.9 0 0 1 .5 11c-.1.5 0 1.3.2 2a372.7 372.7 0 0 0-.7 33.4 86.9 86.9 0 0 0 .6 17.5c-.2.4-1.1.5-1.4.1zm-477-1.3c-.2 0-.4-.2-.4-.5s.6-.3 3.2-.3c3.5 0 3.9.3.8.7-2 .3-2.8.4-3.6.1zm6.8-.6a79.4 79.4 0 0 1 9.1-.1c-.2.2-9 .3-9 .1zm10.8-.2c.5-.3 8.6-1 8.9-.7.3.3-.2.4-2.6.7-3.3.3-6.9.3-6.3 0zm11.1-.5c-1.2-.1-1-.5.4-.7 2.6-.3 8.4 0 7.2.5-.4.1-6.3.3-7.6.2zm8.7-.1-.7-.3.8-.2c.9-.4 2-.1 2 .4s-1.1.5-2.1 0zm-42.2-.7-1.3-.2 1.7-.2c4.2-.5 4.4-.5 4.7 0 .3.3.3.3-.4.3l-2 .2-2.7-.1zm5.8-.6c-.2-.3 2-.5 6.8-.6l5-.4c4.6-1 6.5-1.1 6.8-.4.3.8-.4 1-4.5 1-2.2 0-4.7.2-5.5.4-1.8.3-8.4.4-8.6 0zm284.7-1.2c-.5-1.2.5-12.2 1-12.8.1 0 .3 0 .5.2s.2 2 0 6.3l-.4 6.4c-.2.5-1 .4-1.1-.1zm-7-.3c-.3-.2 0-13.5.1-14.6.2-.7 1-.8 1 0v7.2c0 5 0 7-.3 7.2-.4.4-.6.5-.9.2zm34.8-.2c-.1-.2 0-1.3.1-2.4.5-3.5.8-6.7 1-9.9.2-2.1.4-3.1.7-3.4.4-.4.4-.4.6 0v2.4l-.3 5c-.3 6-.6 8-1.2 8.4-.6.4-.8.4-1 0zm11.4-2.2c-.2-.4.5-2.8.9-3.4a46.3 46.3 0 0 1 1.3-5.6c.3-.8.7-3.5 1-5.4.1-1.4.7-2.3 1.1-2 .2.3.1 1.3-.3 3.4a210.4 210.4 0 0 0-1.3 7.5l-.7 3c-.4 2-.9 3-1.5 3-.2 0-.4-.2-.5-.5zm-8.6-.5a43.6 43.6 0 0 0 1.5-8.8c.8-6.6 1.1-8 1.9-7.6.3.3.2 2.5-.6 6.7a34.7 34.7 0 0 0-.3 7.1l.3-1c.2 0 1.2-3 1.7-4.8l.8-3 .6-3.3c.1-2 .5-2.8 1.1-2.8.4 0 .4.2.2 1.5 0 .8-.3 1.8-.5 2.2a10 10 0 0 0-.5 2.5 7 7 0 0 1-.5 2.2l-.6 2.3a49.7 49.7 0 0 1-1.1 5.5c-.2 1.3-.9 1.8-1.6 1.1-.4-.4-.5-.4-.9.1-.4.7-1.2.7-1.5.1zm-19-2.4c.2-1.4.3-4.7.3-7.2 0-4 0-4.6.4-4.6s.6 1.2 1 6.4c0 2.6-.3 6.6-.8 7.5-.1.3-.4.5-.6.5-.4 0-.4-.4-.2-2.6zm-323.2 1c-.5-.7 1.7-1.3 4.9-1.3 2 0 2.6 0 2.6.4s-1.2.7-2.2.5a7 7 0 0 0-2.2.1c-2.6.6-3 .6-3.1.4zm366 0c-1.6-.1-1.7-.6-1.5-7.6a3606.3 3606.3 0 0 0 .4-16.5c0-.4.7-.3.9 0l-.1 5.6c-.1 2.8-.2 7.7 0 10.8 0 5.4.1 5.6.7 6l1.2.5a134.4 134.4 0 0 0 29.2-1.6c.5.2.5 1.4 0 1.5h-1.5c-.7-.2-1.7-.1-2.5 0-.7.2-2 .3-2.8.3-.9 0-2.4.1-3.5.3-1 .2-3 .4-4.5.4l-5 .2c-3 .2-10.2.3-11 .2zm-356-1c-.1-.2.4-.3 1.4-.3 1 0 1.3 0 1 .2-.8.4-2.2.4-2.4 0zm4.8-.2h.5l-.3.1c-.3 0-.4 0-.2-.1zm392.6-.9-.1-6c-.2-13.4-.2-12.9-.6-13.6-.4-.6-.4-.7 0-1.2l.3-1 .4-.7c.5-.5.6.7.6 9 0 4.1.1 7.5.2 7.7.2.4-.2 6.6-.4 6.6l-.4-.8zm-384.1.3h1.8c.6 0 .2.1-.8.1h-1zm7.4-.5h1.8-1.8zm6.7-.2c0-.6 1.4-.9 2.8-.5l.7.2-.7.3c-.8.5-2.8.5-2.8 0zm363-1.8c-.2-.3-.4-1.2-1.1-6.8-.5-3.9-1.1-17.4-.9-18.8l.2-.9.4.7c.2.5.4 2.3.4 5.5l.4 6.2c.4 1.9.8 6.8.8 8.8 0 1 .2 2.2.3 2.8.4 1.4 0 3.2-.4 2.5zm-27.4-3a72 72 0 0 0 .3-12.5c-.1-2.7 0-3.5.2-3.7.7-.7.8.2.7 13.6 0 3.4-.2 4-1 4-.3 0-.4-.2-.2-1.3zm77.2 1c-.1-.1-.4-2.6-.6-5.5-.4-7.1-.4-8.5.1-8.7.2 0 .5 0 .6.3.3.4.3.4.7 0 .7-.7 1-.2 1.1 1.6.3 7.7.4 10 .2 10.4-.2.2-.3.2-.4 0l-.6-.3c-.4 0-.4.2-.3 1 .2 1.1-.2 1.6-.8 1.2zm.9-11.1c0-.4-.1-.1-.1.6v.7c.2-.3.2-.9.1-1.3zm-24.5 10.6c0-.3 0-.4.2-.2l.4.4c.1.2 0 .2-.2.2a.4.4 0 0 1-.4-.4zm-57.1-.1c-.2-.3-.3-3.6-.3-8.7v-10.8c.6-.5.8 1 1 8.8l.1 9.6c0 1.2-.3 1.7-.8 1zM1 199.4c0-.4 1.4-.8 1.7-.5.1.2-1.1.9-1.5.9l-.2-.4zm4.8 0c-.5-.3-.4-1 .1-1 .3-.2.8-.1 1.1 0 .6.2.6.2.2.6-.5.5-.8.6-1.4.3zm11-.1c-.7-.1-1.2-.3-1.2-.5-.2-.6 1.7-.9 6.3-1 4 0 4.8-.1 5.1-.5 1-.9 1.4-9.7.6-11.5-.4-1-.7-14-.5-18a561.9 561.9 0 0 0 0-18.3l.3-3.8c.3-3 .4-7.4.2-15-.1-4 0-5.1.8-4.6.3.1.4 1.2.3 6.7a239.7 239.7 0 0 0 0 10c0 3.3.1 7.7.3 9.7.2 3.4.2 3.6-.3 4.6-.5.8-.6 1.2-.5 6.1.1 8.5.2 10.5.5 16 .3 5 .5 10.8.3 12a18 18 0 0 0 .6 6c.4.5 7.4.6 11.2.2 3.4-.4 14.4-.7 14.4-.4 0 .1-.6.5-1.4.7-1.2.4-2.5.5-11.2.6a173 173 0 0 0-16.4.7 435.3 435.3 0 0 0-9.5.3zm-7.8-.6c0-.2.2-.3.6-.3.3 0 .6.1.5.3-.1.1-.3.3-.5.3l-.6-.3zm402.3-.4c-.1-1-.3-4.3-.4-10.4-.2-8.4-.5-15-1.3-25-.1-1.9 0-3.4.4-3.4.3 0 .5 1.5.8 5.9a724 724 0 0 0 1.5 17.4l-.1 1.3c-.1 0-.3 2.6-.3 5.8a36 36 0 0 1-.6 8.4zm7.5-1.2c0-.4-.2-.8-.3-1-.2-.2-.9-8.6-.9-10.9a1213 1213 0 0 0 0-21.6c0-.4.3-.6.5-.6.4 0 .4-.4.5 14.5a305.2 305.2 0 0 0 .4 19c-.1.7-.2 1-.2.6zm24 .2c-.6-.2-2-1.1-3-2a23 23 0 0 0-3-2c-1-.6-3.3-2.9-3.3-3.5 0-.4 0-.4.5 0l.6.4c.4 0 2.5 1.7 3.4 2.7.4.4 1.1 1 1.6 1.2 2.6 1.2 4.6 2.7 4.3 3.2-.1.2-.4.2-1.1 0zM55.5 197c0-.3 1.7-.6 2.4-.4.4.2.5.3.2.4-.5.3-2.6.3-2.6 0zm5.8.1c-.3 0-.6-.3-.6-.6l-.1-1c-.1-.5 0-.6.2-.6l2.5-.1a58.2 58.2 0 0 1 6.4-.5c1.7-.2 2.8 0 2.3.5l-2.6.3c-1.5 0-2.5.3-2.8.5-.3.3-.1.4 1 .4.6 0 1.4 0 1.6.2.7.4-1 .8-3.4.8a26 26 0 0 0-3 0c-.5.2-1.1.2-1.5.1zm11.4-.6c-.3-.2-.3-.3.3-.4.9-.2 2.2 0 2.2.3s-2 .4-2.5.1zm.5-1.5a.5.5 0 0 1-.3-.5c0-.2.6-.4 2-.5 3.3-.2 11.2-.2 11.6 0a66 66 0 0 1-13.3 1zm307.3-.3c0-.2-.2-3.5-.2-7.2v-12.3c-.1-5.3 0-7.4.6-6.5.1.2.2 4.3.2 9.1s.2 9.7.3 10.8c.4 3-.3 7.7-.9 6.1zM89.6 194c0-.3 0-.3.2-.1v.5c-.1 0-.2 0-.2-.4zm296 .1-.3-6.6a287 287 0 0 1-.4-28.9h.5c.2.2.3 1.8.3 5.7 0 6.8.1 14.8.3 17.3.3 3 .5 11.8.3 12.4-.2.5-.6.6-.8.1zm19.4.3a860.5 860.5 0 0 1-.2-70.4l-.3-2.6c-.3-2-.3-15.5 0-15.7.5-.5.8 2.7.9 7.6 0 4.3.2 5.9.5 6.9.3.8.4 1.5.3 2a710 710 0 0 1-.6 18.6v8.6l-.2 6a673.5 673.5 0 0 0-.1 39h-.3zm-314-.5c-.2-.3 1.6-.5 4.7-.5l7.6-.1c4-.2 4.5-.1 4.5.2 0 .5.9.5-8.8.5l-8-.1zm300.1-.6-.4-6.9-.4-7.4c-.4-2.8-.6-19.5-.4-24.4.1-3.4.6-6.5 1-6.6.3-.2.4.4.2 3.4-.5 6.8-.1 27 .6 36.7.4 5 .4 6.1 0 6.1-.3 0-.5-.4-.6-.9zm4.1-.2c-.3-.8-.8-9.1-.6-10.1.2-1 .5-.9.7.2.4 2.5.7 9.7.5 10.1-.3.5-.3.4-.6-.2zm41.7-3.6c-1-.3-2-1.2-2.4-2-.3-.4-.3-.7-.2-.7.6 0 3 1.7 3.1 2.2.2.6.1.7-.5.5zm71.8-2.2c0-2.5 0-7.2.3-11.4l.4-7.9a312.1 312.1 0 0 0 .3-21.4c.3-.6.3-.6.3 1a41.4 41.4 0 0 1 .7 8.1c.2 5.7.2 5.8 0 8.6l-.3 6.5a142 142 0 0 1-1.4 17c-.3.4-.3.4-.3-.5zm-95.7 0c0-.2-.2-3.1-.2-6.5a435 435 0 0 0-1.7-29c-.2-.6-.4-2.3-.6-3.7-.2-2-.2-2.7 0-3 .6-.5 1 .5 1.3 3.6l.7 5a228.1 228.1 0 0 1 1.2 27c0 6.6-.1 8-.7 6.7zm-212.1-.1a70 70 0 0 1 4.8-20.6c1.1-3.4 1.3-3.9 3-7.9a85 85 0 0 0 1.7-3.7 63 63 0 0 1 5.2-10.9c1.2-1.3 1-.1-.5 3l-1.4 3a164.5 164.5 0 0 1-4 8.9l-.4 1.1-.9 2a35 35 0 0 0-1 3.5l-.9 2.5-.7 2.6c-.6 2.2-1.7 6-2.2 7a28 28 0 0 0-.7 7c.2 1.5-.4 2.9-1.3 2.9-.3 0-.6-.2-.7-.4zm100.8-1.2-3.4-.2c-1.4 0-2.4-.2-2.5-.4-.3-.4.4-.7 1.9-.8h2.8c.8 0 2.1.2 3 .4 1.6.5 3 .6 6.4.3l5.2-.3c3-.2 5.6-.6 12.6-1.6a92.5 92.5 0 0 0 16.3-2c2.4-.6 8-1.8 10.3-2.1 1.2-.2 2.6-.6 3.1-.8 1.2-.5 1.7-.3 1.2.5-.2.3-.8.5-1.4.6l-2.2.3-2.4.5-4.8 1a66 66 0 0 1-13.5 2.5 180 180 0 0 0-17 1.9c-2.6.3-14.1.5-15.6.2zm-15.8-.4c-.5-.6.3-1 2.4-1 2-.2 2.6.1 1.6 1-.8.5-3.5.6-4 0zm-98.7-1c-.2-.5-.2-.9.2-1.9l.8-1.2c.3 0 2.2-2.7 2.2-3 0-.3 2.3-4.1 2.8-4.6l.5-1c.2-.9 1-2.1 1.8-2.8.2-.2.5-.7.5-1.1 0-.7 1-2 1.2-1.7.2.2-.5 1.8-.8 1.8 0 0-.2.2-.2.5s0 .5-.2.5l-.4.8c0 .4-.6 1.3-1 2.1-.6.8-1 1.6-1 1.8 0 .1-1 2.3-2.3 4.7a47.8 47.8 0 0 0-2.2 4.8c0 .4-.8 1-1.3 1-.2 0-.5-.4-.6-.7zm38-.8c-.2-.3-.6-2-.8-3.8a52.9 52.9 0 0 0-1.5-7.7 756.6 756.6 0 0 0-1.4-8c-.4-.6-1-9.3-1-16.2-.2-8 .2-17.6.8-19 .7-1.9 1.3-.6.8 1.7-.5 2.5-.7 8-.5 13.3.2 2.7.3 7 .3 9.5a75 75 0 0 0 2.5 19.7 86.5 86.5 0 0 0 2.2 10.8c-.4.5-1 .4-1.4-.3zm204.2.3-.1-5.2a262.3 262.3 0 0 0-.1-13.4l-.3-17c-.2-8.5-.1-9.8.2-10l.7.1c.4.3.8 4.6.8 7.8l.1 11.3c.3 14.7.4 25.5.2 26.1-.3.7-1.2.8-1.5.3zm-120.3-.4c-.6-.3-2.8-.7-7.8-1.1a313.4 313.4 0 0 1-9.5-1c-.4-.1-.4-.6 0-1.2.1-.3.3-.3.7 0 .3.2 1 .3 1.4.3h.8l-.2-1.4c-.4-4.2-.4-5.5-.1-5.9.7-.8 1-.4 1.1 1.4.2 2.9.6 4.6.8 3.9.2-1 1-.8 1.1.4.3 1.3.6 1.9 1 1.9.8 0 1-1 1-4.5 0-3.6.1-4.3.7-4.3.3 0 .3.8.3 3.9l.2 4.4c.2.8 1 1 4.4 1.5l3.3.6 5 .8.1.4c0 .5-3.3.5-4.3 0zm64.6-2.5c-.2-1.7 0-3.7.3-3.7s.3 2 0 3.9l-.1 1.3-.2-1.5zm20.6 0c-.3-1.3-.2-5.5 0-5.6.4-.3.6.4.8 3.6.1 2.4 0 2.8-.3 2.8-.2 0-.4-.3-.5-.8zm12.7 0c-.3-1.2-.2-3.9 0-4 .5-.3 1 3.3.6 4.1-.3 1-.4 1-.6-.1zm-322.6-.3c-.3-1.4-.4-3-.2-3.5.2-.6.9-.5 1 .2.3 1.4.4 3 .3 3.5-.3.6-1 .5-1-.2zm285-.7.1-1.3c.2-.3.3-.1.3.8 0 1.5-.1 1.6-.4.5zm-77.8-1.1v-2.2c0-1.1 0-1.4.5-1.4s.6.3.7 1.8c.3 2 .1 2.6-.5 2.6-.4 0-.6-.2-.7-.8zm77.8-2.3c-.2-.2-.2-1.6.1-1.8.2 0 .3.3.3 1 0 1 0 1.1-.4.8zm29.2-2c0-1.3.1-2 .3-1.9.1 0 .3 1 .3 1.9 0 .9-.2 1.7-.3 1.8-.2.1-.3-.6-.3-1.8zm-314.3 0c0-1.1 0-1.5.4-1.5.5 0 .7.7.5 1.9-.3 1.6-.9 1.3-.9-.4zm242.5-.2v-1.5a51.8 51.8 0 0 0 .3-3.6c0-.2.2-.4.3-.3.4.2.3 5.5-.1 5.6-.2 0-.4 0-.5-.2zm47.2-.2c0-.2.1-.6.3-.8.1-.3.2-.3.4.2.2.6 0 1-.4 1-.2 0-.3-.1-.3-.4zm-50.2-.4.2-1.4c0-.9.4-1.2.6-.5.3.7-.1 2.5-.5 2.5-.3 0-.4-.2-.3-.6zm83 .2c0-.2.1-.4.3-.4.1 0 .3.2.3.4s-.2.4-.3.4c-.2 0-.3-.2-.3-.4zm-101.2-6c0-3.3.2-6.5.3-7 .2-1.2.7-1.3.6-.1l.3 4.8a30.9 30.9 0 0 1 0 6c0 1.1-.4 2.2-.9 2.2-.2 0-.3-1.1-.3-6zm35.7 5.3v-.9c.3-.8.1-8.9-.2-11.4-.2-1-.1-1.1.2-1.1.2 0 .5 0 .5.2.2.3.6 6.5.6 9.6 0 2.6-.1 3.2-.5 3.6-.4.4-.4.4-.6 0zm45.7-1.8c0-1.2 0-2.1.2-2.1.6 0 .7 4 .1 4.2-.2 0-.3-.5-.3-2zm-17.4.7c0-.8 0-1 .1-.6v1.3l-.1-.7zm24.4.7a990.8 990.8 0 0 0-.6-10.8l-.2-17c-.1-10.7 0-12.5.3-12.8l.5-.2.1 8.5a5203.5 5203.5 0 0 0 .7 29.9c.1 2 0 2.9-.4 2.9-.1 0-.3-.2-.4-.5zm-49.5-.1a61 61 0 0 1 .2-10.7c.8-1.7 1-.1.9 4.8-.2 5.3-.5 7-1.1 5.9zm-260-.4a34.3 34.3 0 0 1 .2-8.8c.3-.6.4-.6.5-.2.2.3 0 8.6-.1 9.4 0 .2-.5 0-.6-.4zm289.7 0v-1.3c.1-.6.2-.7.6-.3.3.4.3.5 0 1.3-.4.8-.5.8-.6.3zm-71.5-.8.1-3.3a39.5 39.5 0 0 0-.4-8.9c-.1.5-.8.6-1 .2-.1-.2 0-2 .4-4 .3-2 .5-3.9.4-4.2-.2-.8-1.1-1.3-2.3-1.3-.4 0-.8-.1-1-.3 0-.2.7-.2 2.4-.1h3.7a362.3 362.3 0 0 1 14 .3c.4.4.8.4-8.2.5h-7l-.3.7a3.8 3.8 0 0 0-.1 3.6c.6 1.3.7 2.7.4 11.2-.1 4.7-.2 5.7-.5 5.7l-.6-.1zm47.4-.5c-.3-.3-.2-2.8.1-3.8.1-.5.3-4 .3-7.6 0-4.8.2-6.9.4-7.2.4-.6.7-.3.7.7-.1 7.5-.6 17.5-.8 17.8-.1.3-.5.3-.7 0zM324 169c-.2-1.4 0-2.2.4-2 .3.2.3 3.3 0 3.3-.1 0-.3-.6-.4-1.3zm50.5-1.2.2-3c0-1.2.4-3.5.8-3.5s.5 1.9.2 3.4l-.3 2.7c0 1.6-.2 2.4-.7 2.4-.3 0-.4-.3-.2-2zm-5 1.2.1-.4c.2-.1.3 0 .3.2 0 .5-.2.6-.4.2zm-69.3-2.4c-.2-1.6 0-2.3.4-2 .3.2.3 2.8 0 3.3-.2.2-.3-.2-.4-1.3zm80.3 1c-.3-.5-.3-.8-.2-11.5a406.7 406.7 0 0 0 .1-14.7c0-3.7.6-4.2.6-.6.2 14.2.2 26.7 0 27-.1.3-.2.2-.5-.1zm6.5-1.2a1044.5 1044.5 0 0 1 .4-40.2c-.2-1.8-.5-15.4-.5-18.3 0-3.5.2-4.1.8-3.5.2.2.3 5.5.2 23.9a4109.6 4109.6 0 0 0-.1 38.7c-.3 1-.6.8-.8-.6zm-189.4-.4c0-.6.7-1.4 1-1l-.4.8c-.4.4-.6.5-.6.2zm301-.8v-2.8c.2-1.6.3-2.2.6-2.2.5 0 .5 4.7 0 5.2-.4.3-.4.3-.5-.2zm-174.6.2c-.3-.3-.2-3.3.1-3.3.2 0 .3.7.3 1.7 0 1.7 0 1.9-.4 1.6zm-125.3-1c0-.4 0-.5.2-.2v.5c-.1 0-.2-.1-.2-.4zm158.4.2c-.3-.3-.2-2.1.1-4 .4-2.3.8-1.7.8 1.1 0 2.7-.3 3.5-1 2.9zm94.4-.7c-1.4-.6-1.8-1.2-1.7-3 0-4.9.2-6.2.5-6.6.2-.2.3-.6.3-.9-.1-.8 0-1.1.3-1.1.6 0 .8.7.3 1-.4.2-.4.4-.2.8.2.3.3 1 .2 1.5-.1.7 0 1 .3 1s.4-.3.4-1.1c0-1.2.5-1.9 1.5-1.9.6 0 2 1 2 1.6 0 .2.3.1.7-.1 1.7-.9 2.2-.1 2.6 3.6.2 2.1-.1 2.5-1.8 2h-1.3c-.2 0-.3.6-.3 1.1 0 1.2-.5 2-1.7 2.4-.8.3-.8.3-2.1-.3zm.4-5.8c0-.1-.1-.2-.3-.2-.1 0-.2 0-.2.2s0 .3.2.3.3-.1.3-.3zM199.7 162c0-.1.1-.5.4-.7.2-.2.3-.3.3 0l-.3.6c-.3.3-.4.3-.4.1zm218-4.4c-.1-4.6 0-11.7.1-14.1a27.2 27.2 0 0 1 1-7c0-1 0-.9.2.4a190.9 190.9 0 0 0-.2 12.3c0 7-.2 11.7-.3 12.9l-.4.2c-.4 0-.4-.7-.5-4.7zM84.8 160c0-1.2 0-1.6.2-1.3v1.7l-.2 1.3zm242.3.6-.3-2.3c-.4-1.5 0-3 .5-2.7.4.2.4 5.7 0 5.7-.1 0-.2-.3-.2-.7zm17.8-3.2c0-1.8.2-3.4.3-3.4h.5c.2.3.2.7 0 1.8-.2.7-.4 2.1-.4 3.1 0 1.2 0 1.9-.3 1.9-.2 0-.2-1-.1-3.4zm-21 2.1c-.3-.2-.3-3 0-3.8.2-.4.2.1.2 1.7 0 2.3 0 2.5-.3 2.1zm174.6-2.5-.1-11c0-6.8-.2-9-.5-10.2-.7-2.6-.4-4.7.7-5 1.2-.5 1.2-.6 1 14v2.5l-.3 11.8c0 .2-.2.3-.4.3-.3 0-.4-.4-.4-2.4zm-416 .5c0-3.7.1-6.6.3-7.6a8 8 0 0 0 0-2.5v-3.3a250.4 250.4 0 0 0 .3-16.8c0-.7 0-.8.5-.3.4.3.5 1 .6 3.2 0 2.3.1 2.8.5 2.8.3 0 .3 0 0-.3a117 117 0 0 0 .8-15.2 2212.2 2212.2 0 0 0-.8-58.2l.4-7.4.2-4.4c0-4 .2-4.7 1-4.2.6.3.6.5.4 3l-.1 5.2-.3 6.6c-.2 2.9-.2 6.5 0 12.1.3 9 .4 44.5.2 52a272 272 0 0 1-1 17.4v1.3c-.2.4-.3 2.6-.3 5 0 2.2 0 4.3-.2 4.5-.1.3 0 .5.2.8.5.5.3 1.6-.3 2-1.2.6-1.6 1.5-.8 1.5.2 0 .4-.1.4-.3 0-.1 0-.3.2-.3.5 0 .8 2 .5 3-.2 1-.7 1.2-.7.3 0-.6-.8-.4-.9.3 0 .3-.3.6-.5.6-.4.1-.5 0-.5-.8zm2-13c0-.3-.2-.7-.4-1-.3-.2-.4-.1-.6.4-.2.8 0 1.3.6 1.3.2 0 .4-.3.4-.7zm0-3c0-.1-.2-.3-.4-.3-.3 0-.4.2-.4.4s.1.4.4.4c.2 0 .4-.2.4-.4zm-.1-2.2c-.1-.2-.2-.2-.2.1 0 .3 0 .5.2.4v-.5zm0-4.7-.2.4c0 .4.1.6.2.4v-.8zm272.8 22.9c0-.4.2-.7.3-.7.2 0 .3.2.3.5s-.1.6-.3.7c-.1 0-.3-.1-.3-.5zm-107.6-.3-.3-1c0-1-1-3.3-1.8-4.3a39.5 39.5 0 0 1-4-5.7c-.4-.3-1.2-1.7-3.3-6-2.1-4-2.5-4.6-4.2-6.2-1.8-1.7-2.2-2.4-1.3-2.8.5-.3 1.7.1 2.5 1l.7.5c.4 0 3 4.3 5 8.5a44 44 0 0 0 6 9.8l1 1.6c.5.7 1.3 4.3 1 4.9-.2.6-1 .4-1.3-.3zm-46.7-1.1c.2-1 1.4-3 1.8-3.1.4-.1.4 0 .3.7-.4 1.6-1.4 3.1-2 3.1-.2 0-.3-.2-.1-.7zm154.3-2.8-.1-3.3c-.2-2-.1-2.2.2-2.2.4 0 .5.3.5 1.8l.1 2.7c.2 1.1 0 2.1-.4 2.1-.1 0-.3-.5-.3-1.1zm-38.1-.8c-.7-.4-.6-.7.5-1.2.6-.3 1-.6 1-.9 0-.3.7-.4 3.7-.5l5.8-.4c2.6-.2 3 0 2.4 1.2-.2.4-.5.9-.7 1l-3.7.3H324l-2.5.4c-1.8.5-1.6.5-2.2.1zm-133.5-1.3c-1.8-.2-3-.7-3-1.2 0-.3.2-.4 1-.2a95.7 95.7 0 0 0 5.2.8c.5.2.4.2-.1.5-.7.4-1 .4-3.1.1zm198-3a5393.8 5393.8 0 0 0-.5-9c-.4-7.8-.5-11.4-.6-29.5a273.7 273.7 0 0 0-.5-21l.3-2.2c0-2.1.4-3 1-2.2.2.3.2 4 .2 15.1-.2 18.1-.2 16 0 27.6.2 9.4.5 17 .8 20.9.2 1.4.1 1.8-.2 1.8-.2 0-.4-.6-.5-1.6zm-196.6-.6-1.7-.3c-.4 0-1.4-.3-2.1-.6l-1.6-.5v-.5c0-.7.6-.8 1.5-.3a17 17 0 0 0 5 1.6c.3 0 .6.2.6.4 0 .5-.6.6-1.7.2zm121.8-.1-3.3-.5 5.3.1c4 0 5.5 0 6-.2.4-.3 2.4-.4 6-.5l7-.3 1.6-.1-1.3.3c-.7.2-2.7.5-4.5.6-2.2.1-3.5.3-4.2.7-1 .4-1.6.5-5.2.4-2.2 0-5.6-.3-7.4-.5zm-13.5-.2c-1.1-.2-1.7-.6-1.5-1 .3-.5 3.6-.6 6-.3 3.3.4 3.5.4 3.5.9 0 .3-.5.3-2.2.3l-3.5.1h-2.3zM8 146.4c.2-.2.9-.4 2.3-.4 1.5 0 2 .1 2 .4 0 .4-.5.4-2.4.4-2 0-2.2 0-1.9-.4zm13.6.2c.1-.2.3-.2.4-.1.4.2.3.3-.1.3-.3 0-.4 0-.3-.2zm-20.6-.3c-.1-.1 0-.3.2-.3.3 0 .4.2.3.3 0 .2-.2.3-.3.3l-.2-.3zm18 0c-.1-.1.3-.3 1-.3.8 0 1.2.2 1 .3 0 .2-.5.3-1 .3s-1-.1-1-.3zm313.2-.3.7-.2c.3 0 .5.1.5.2 0 .2-.3.3-.6.3-.4 0-.6-.1-.6-.3zm118-.3a230 230 0 0 1-.6-14c0-3 .2-3.5 1.2-3.3.4 0 .5.3.4.7-.1 1 0 9.7.2 13v3.5c-.3.5-1 .6-1.2.1zm58.9-1.5c-.2-1.6 0-8.2.2-9.2 0-.4.3-.6.6-.6.4 0 .5.3.5 3.1 0 3.3-.4 6.7-.9 7.7-.3.5-.3.4-.4-1zm-168.8.8c.5-.3 1-.3 1 0 0 .1-.3.3-.7.2-.5 0-.6 0-.3-.2zm-149.3-.7-2.5-.7a7.8 7.8 0 0 1-3.3-1.4c-.8-.8-.7-1.3.3-1.1.5 0 .7 0 .8-.4 0-.4.3-.5 1-.4.6.1 1.3.4 1.8.8l2 1c1 .4 1.2.6 1.2 1.2 0 .5-.2.8-.6 1h-.7zm158.4-1.3c1.3-.8 1.7-.8 2-.2.2.6-.4.9-1.8.9h-1.2l1-.7zm-37.2-.3c-.4-.4-4-.7-7.7-.8-2.2 0-4.6-.1-5.4-.3a18 18 0 0 0-3.1-.3c-2.2 0-3-.6-3-2.2 0-1.5.5-3 1.1-3 .4-.1.5 0 .3 1-.1.8 0 1.2.4 1.8 1 1.5 1.8.8 1.9-1.6 0-1.7.6-5.8.9-6.3l.1-3.4v-3.8l.4-2.3c.4-1.4.6-1.6.7-1 .4 1.2.2 6.6-.2 8a40 40 0 0 0-.4 10.6c.4 1 1.2 1.3 3.6 1.5a264.6 264.6 0 0 0 26.9-.3c0 .4-.3.5-1.6.5-.9 0-1.6 0-1.6.2 0 .1-.7.3-1.7.4-1.6 0-1.6 0 .4.1 1.3 0 2 0 2-.2s1.4-.3 3.5-.3l3.5-.1c.1-.1 1.5-.3 3-.3a27 27 0 0 0 3.8-.4c1.2-.3 3-.3 3 0 0 .5-1.8 1-4.7 1.2a178.8 178.8 0 0 1-26.1 1.3zm43.5-1.5c0-.3.3-.6.8-.9l1-.6a9 9 0 0 1 2.7-1c.7-.1.8 0 .7.5 0 .3-.4.8-.7 1-3.3 1.5-4.5 1.8-4.5 1zm-22.5-1.7c0-.3 2.6-.7 2.8-.5.3.3-.5.6-1.7.7-.6 0-1.1-.1-1.1-.2zm-21.5-2-4.4-.3c-.7-.2-1-.8-.5-1.9l.3-.9.7.8c.8 1 1.4 1 8.8 1.1 3.4 0 6.3 0 7.9-.3 1.8-.3 2.8-.3 3.4-.1.5.2 1.2.2 1.6.2a568.6 568.6 0 0 1 14.3-1c2.2-.3 3.6-.4 3.8-.2l-2 .5-3.4.6c-4.2.8-21.7 1.6-30.5 1.4zm-245-1.6-.1-5.3c0-2.9 0-5.2-.2-5.4-.5-.7 0-.6.7.1s.7.9.5 2v6.3c0 2.1 0 2.5-.4 2.6-.2 0-.5 0-.5-.3zm73.7.2.8-1c.5-1 2-2.4 2.6-2.2.4.1-2.8 3.4-3.3 3.4-.2 0-.3-.1 0-.2zm-76.4-1c-.2-.6.1-3.2.4-2.9.4.5.7 2 .6 2.6-.2.7-.8.9-1 .3zm287.4-1.1h.5l-.4.1c-.3 0-.3 0-.1-.1zm-156.7-1.1c-.8-.4-1.4-1-1.5-1.2 0-.6-.1-.6 2.3.2 1.3.5 1.7.8 1.7 1.4 0 .5-1.1.3-2.5-.4zm129.5-.1a236.6 236.6 0 0 0-.4-7.7l-.4-6.3c-.1-.3 0-.4.4-.4.6 0 .9 1.3.6 3v1.4c.2 0 .7 7 .7 9.6 0 .6-1 1-1 .4zm-4-.7c-.3-.4 0-1.7.4-1.7.3 0 .7 1.3.5 1.7l-.5.2-.5-.2zm20.2-.4c-.5-.6-.6-3.4-.2-6.2.2-2 .3-2.3.3-1.3 0 .7.3 2 .5 3l.4 2.2c0 .5.1 1 .3 1.3.5.9-.7 1.8-1.3 1zm5.5-1.7c-.3-.6-1-8.5-.7-8.7 0-.1.3 0 .5.3.3.3.4.9.4 1.8 0 .7.3 2.2.6 3.3.6 2.3.6 3.2.2 3.7-.5.5-.8.4-1-.4zM12 130l-1.1-.2.7-.3c1-.4 3.2-.4 3 0-.1.5-1.4.7-2.7.5zm6.6 0c-.6 0-.7-.1-.4-.4.4-.5 1.8-.5 1.8 0 0 .4-.4.6-1.4.5zm-10.4-.3c.1-.4 1.4-.4 1.8 0 .2.2 0 .3-.8.3s-1.1 0-1-.3zm8.4 0c0-.1.1-.2.3-.2l.6.2c0 .2 0 .3-.4.3-.3 0-.5-.1-.5-.3zM377 129c-.2-.8-.3-1.9-.2-3.5 0-1 .1-1.4.4-1.4.3 0 .4.5.4 2.8 0 1.6 0 2.7-.2 2.7s-.4-.2-.4-.6zm-179.7 0c-.5-.6-2-3.5-2-3.8 0-.8 1.2-.1 1.7.9l1 1.8c.6.7.5 1.5-.1 1.5a.9.9 0 0 1-.6-.4zm123.2 0c-.2-.3-.3-1.6-.3-4.4 0-2.1 0-4.1-.2-4.3-.2-.6-1.4-.6-2 0-.7.4-1.5.5-2 0-.4-.4-.4-1.6 0-2.2.4-.4.4-.6 0-.9-.4-.5-.5-3.8 0-4.4.7-.8 3.1 0 3.7 1.2.1.4.5.8.8 1 .4.3.5.7.5 3.7 0 2-.1 3.3-.3 3.3-.3 0-.3.7 0 .8.2 0 .3 1.3.2 3.3 0 2.6-.1 3.1-.4 2.9zm-.3-10.6-.1-1.6-.2-1.2-.6.6-.8.5c-.2 0-.5.2-.8.5-.3.4-.4.5-.2.5s.7.3 1.2.7c.9.7 1.3.7 1.5 0zM2.7 127.8v-.6c.3-.3 18.9-.4 19 0 0 .4-5.3.7-9.1.4-3.4-.3-7.3-.1-9 .3-.5.1-.8 0-1-.1zm348.9-.3c-.3-.4-.5-2.2-.7-6.5-.2-2.4.2-3.6.5-1.5l.4 1.6c.2.2.8 4 .9 5.6 0 1-.6 1.4-1.1.8zm-292.4-1.1c-.2-.2-.2-.5-.1-.6.2-.2 2.7-.2 2.7 0 0 .9-2 1.3-2.6.6zm249-.3c0-.2 0-.4.2-.4.1 0 .3 0 .3.2s-.2.3-.3.4c-.1.1-.3 0-.3-.2zm-225-.9c-.2-1.2 0-2.2.5-2.2s.5 2.2 0 2.6c-.3.3-.4.2-.5-.4zm225.2-.6c0-.2.1-.7.3-1 .2-.6.2-.6.2.3 0 .5 0 1-.2 1s-.3-.2-.3-.3zM27.7 124a88 88 0 0 0-.4-7.4c-.1-2.9-.1-4 .1-4.7.4-.7.4-.7.8 1.1.6 2.4.6 11.3 0 11.4 0 .1-.4 0-.5-.4zm349.4-.7c-.4-1-.1-3 .3-3 .3 0 .6 1.8.4 2.7-.2.8-.5 1-.7.3zm-294-1.1c0-.7.1-1.4.4-1.2.3.1.3 1.3 0 1.5-.1 0-.3 0-.3-.3zm256.9-.7c0-.5.2-1 .3-1.2.3-.2.4 0 .4.7s-.2 1.1-.4 1.2c-.3.1-.4 0-.3-.7zm-283 .2a2 2 0 0 1-.5-1.2c0-.6.2-.8.7-1 .4 0 .8 0 1 .3.4.4.4.5 0 1.4-.4 1-.6 1.1-1.3.5zm26.2-1.8c0-.4.2-.6.3-.5.1 0 .3.3.3.5s-.2.4-.3.5c-.1.1-.3-.1-.3-.5zm262 .6a60.5 60.5 0 0 1-.3-6c.4 0 .5.3.7 3.2l-.1 2.8h-.3zm-271.5-1.7c-.2-.3-.2-.4.3-.9 1-1 2.8-.4 2 .7-.5.7-1.8.8-2.3.2zm-18.6-.4c-.4-.5.2-.8 1.7-1 .8 0 1.4 0 1.7.2.6.5.2.7-1.8 1-1 0-1.5 0-1.6-.2zm285.3-1c0-.8-.1-1.4-.3-1.4-.2-.1-.2-.2.1-.2.4 0 .5.2.5 1.4 0 .8 0 1.5-.2 1.5v-1.3zm-272.6.5c0-.2.2-.2.4-.1.3.2.3.4-.2.4-.2 0-.3-.2-.2-.3zm15.4-.3c-.4-.8-.4-4.1-.1-4.7.3-.5.3-.5.7-.2.2.3.2.7.1 1.2l-.4 2.4c0 1-.2 1.6-.3 1.3zm267.2-.6-.2-2.1c0-1-.1-1.8-.3-2-.4-.4 0-1.7.5-1.6.4.1.5.4.5 1.9l.2 2.2c.2.5 0 2-.4 2l-.3-.4zM54.7 116c0-.5.4-.5 3.2-.6 2.7 0 3.1 0 3.1.3 0 .4-.4.4-2 .4l-3.1.2c-1.2.2-1.3.1-1.2-.3zm7.6.2c-.3 0-.5-.3-.5-.5 0-.3.9-.3 5.2-.3s5.1 0 5.1.4c0 .2-.2.4-.4.4h-9.4zm79.7-1c0-.3 0-.4.2-.2v.5c-.2.1-.2 0-.2-.3zm368.1-1.7c-3.3-.1-6.7-.3-7.5-.5-1.6-.3-8.7-.4-11.4-.1-1.6.1-2 0-2.4-.3-1-1-.3-2.7 1-2.4.5 0 1 .4 1.4.7.5.5 1 .6 4.5.7 9.3.1 23.6.8 23.9 1 .5.6-.5 1.2-2 1.1l-7.5-.2zm-355.5-.4c-.3-.6.1-2 .5-2 .3 0 .4.4.4 1.2 0 .9-.1 1.2-.4 1.2-.2 0-.4-.2-.5-.4zm168.2-.7c-.4-.7-.2-1.3.3-1.3.4 0 .5 1 .2 1.6-.2.2-.3.1-.5-.3zm-239.7-1c-.2-1.3-.5-9-.5-10.9A77.1 77.1 0 0 0 82 87c-.2-.2-2.5-.3-6.5-.3-9.1 0-9 0-8.6-.5.4-.3 1.9-.4 7.4-.5 3.9-.1 7.2-.3 7.4-.5l.5-1c.2-1.3.8-1 1 .8l.4 3.2c.2 1.8.2 23.7 0 24-.2 0-.3-.3-.4-.8zM8.6 110h1.8c.6 0 .2.1-.8.1h-1zm8 0h.8c.2.1 0 .2-.4.2-.5 0-.6 0-.4-.2zm10.5-.6c-.1-.4-.3-3.7-.3-7.4-.1-4.3-.3-7.2-.6-8.2-.3-1.5-.3-2.6.2-3.6.3-.6 1-.8 1-.4l.3 3c.3 3 .6 14.8.3 16.2-.1 1-.7 1.3-1 .4zm120.4-.7c-.3-1.2-.3-2.4 0-2.6.2 0 .3-.5.3-1 0-.7 0-.7.3.4.2.6.3 1.8.4 2.7.1 1.2 0 1.5-.3 1.5-.2 0-.5-.4-.7-1zm7.2.6c0-.3 0-.4.2-.2v.5c-.2.1-.2 0-.2-.3zm5.6-2c-.4-.5.1-1.6.6-1.4.5.2.5 1.6 0 1.8-.2 0-.5 0-.6-.3zm-142-.5c-.7-.1-1.4-.2-1.5-.1H14l-2.6-.3 4.5-.1c5-.2 5.5-.2 5.2.4-.1.4-.8.4-2.8 0zm157.3 0c-.3-.4 0-1 .3-1l1.6-.7c3.5-1.6 5.3-1.8 5.6-.7.2.8-.5 1.3-1.8 1.3-.7 0-2.1.3-3.3.6-1.4.4-2.2.6-2.4.4zm-170.9-.3c-.3-.6.4-.8 2.6-.8 1.7 0 2.4.1 2.6.4.4.5.6.5-2.8.5l-2.4-.1zm399.7-1.7a20 20 0 0 1 0-6.7c.1 0 .3.6.3 1.5.2 2 0 5.9-.3 5.2zm-89.2-.3c-.6-.6.2-2.9 1.3-3.6.5-.4 2.2-.7 2.6-.6.5.2.6 1 .2 1.3-.2.1-.4.7-.6 1.2-.2 1-.4 1-1 1-.4 0-1 .3-1.1.5-.3.4-1.1.5-1.4.2zm-173-.6.5-.5c.2.3-.1 1-.5 1-.2 0-.2-.2 0-.5zm186.5.2c-.5-1.4 1-5.6 2.4-6.5.5-.4.6-.3.8.3.2.4.5.7.8.7 1 0 1.7 2.2.9 3.2-.5.5-.6.6-1.2.3-.4-.2-.7-.6-.8-1 0-.4-.2-.2-.7 1-.3 1-.7 1.8-.9 2-.3.4-1.1.4-1.3 0zm-181-.2.1-1.2.2-1v1c.2 1 0 1.8-.3 1.2zm13.4-1.3c0-.7-.2-1.4-.3-1.4-.4 0-.6-.7-.4-1.5.1-.7.2-.8.5-.4.3.2.4.9.3 2.5 0 1.4 0 1.7-.1.8zm149.4 1c0-.3-.3-.7-.8-1.1-1-.9-1-1.2-.3-2.1.5-.5.6-.6 1-.3l1.1.3c.9 0 1 .6.8 2-.3 1.2-.4 1.4-1 1.4-.5 0-.8 0-.8-.3zm11.3-1.7c-.2-.6 1-2 1.8-2 .7 0 1.5 1 1.3 1.5 0 .2-.5.4-.9.4s-.8 0-1 .2c-.2.4-1 .3-1.2-.1zm-150.2-1c0-.3.3-.5.7-.5 1 0 4.2-2.9 4.5-4.1 0-.3.4-.7.7-.8 1.7-.5 1.2 2.3-.8 4.3-.8.8-1.1 1-1.8.8-.6-.1-1 0-1.3.2-.5.6-2 .6-2 0zm10.5-.3c-.6-.6-.4-.8 1.2-1.7 2.5-1.2 3.7-1.2 3.7 0s-.2 1.3-3.6 2c-.6 0-1 0-1.3-.3zm-34.6-.4c-.3-.2-.3-.4 0-1 .4-1 1-.5.7.5-.2.5-.4.7-.7.5zm17.6-2.2v-.8c.2-.4.3-.4.6-.2l.4.7c0 .4-.8.7-1 .3zm-4.6-.7-.2-.9c-.2 0-.1-.2 0-.4.4-.3.5-.2.5.9l-.2 1.2-.1-.8zm-5.5.3c-.5-.2-.4-4.7 0-5.6.4-.6.4-.6.6-.1l.3 3c.1 2.6 0 3-.9 2.7zm-18-1v-3.5c.2-1.6.3-4 .3-5.4 0-2.4.2-3.2.6-2.8.2.2.4 11 .2 11.8-.2.8-.8.7-1-.1zm266.8-4.4-.3-5.5a293.9 293.9 0 0 1-.2-20.2c.5-.4.8 5.7 1 17.8a534.6 534.6 0 0 0 .2 12c-.3 1.2-.5 0-.7-4.1zm-201.2 3.9c-.2-.3-.4-1-.5-1.7-.1-1.2 0-1.4.7-2l.8-.8-.4-1.7c-.5-2.4-.7-5.4-.5-6.2 0-.5.3-.7.8-.7s.6.1.8 1.2c.2 1.8.6 4 1 5.6.6 2.1.6 2.6-.2 2.7-.5.1-.6.3-.6 1.5-.1 2-.3 2.5-1 2.5-.3 0-.8-.2-1-.4zm-54.8-2.7c0-.3 0-.4.2-.2v.6c-.1 0-.2-.1-.2-.4zm12.7-1.7-.6-3.6a15 15 0 0 1-.4-3c0-.7 0-1 .1-.6 0 .3.2.6.4.6.6 0 1 3.7.8 6.3l-.2 2zm-108.9 1c-.4-.1-.3-.2.5-.2l1 .1c0 .2-1 .3-1.5.1zm-4.9-.2c0-.3 2-.3 2.8 0 .4.2 0 .2-1.1.2-1 0-1.7 0-1.7-.2zm15.6-.1c0-.3.3-.4 1.5-.4 1.8 0 1.7.4-.2.6-1 .2-1.3.2-1.3-.2zm11.6.2s-1.2-.2-2.4-.1l-3.6-.2c-1.4-.2-1.4-.2 1.3-.4 5.4-.4 8.6-.3 8.7 0 0 .2-.2.5-.6.6-.8.3-3.1.4-3.4.1zm-38.6-1.8c0-.2.4-.4 1-.5 2.2-.4 3.2-.4 4.1-.2h4.4c2.2-.2 3.4-.2 3.6 0 .2.2.2.3.1.4L44 91c-2.4 0-5.4.2-6.5.3-1.8.1-2 0-2-.3zm15.5-.7c-.2-.3 2.4-.5 2.6-.3.2.2-.4.3-1.1.4l-1.5-.1zm5.7-.3c-.6-.3-.4-.3 1.4-.5 1.4-.2 2.2-.2 2.4 0 .5.5-2.8 1-3.8.5zm6.1-.6c.2-.3.9-.4 2.6-.4h2.3l-1.3.4-2.6.4c-1.2 0-1.3 0-1-.4zm7.7 0-1.7-.3 2-.3c2-.4 2.5-.2 2.2.6-.1.4-.1.4-2.5 0zm72.3-.5v-.4c.2.3.2.7 0 .8v-.4zm22.7 0c0-.4 0-.4.1-.2v.5l-.1-.4zm-143-.6c-.5-.5-.6-1.3-.1-1.6a21 21 0 0 1 7.5-.6 324.2 324.2 0 0 0 21.6 0c7.6 0 14 0 14.3.2.3.2-1.7.6-3.2.6H27.1l-3.2-.2.1 1c.1.8 0 1-.6 1-.4 0-.9-.1-1.1-.4zm133-.2v-.4c.2.3.2.7 0 .8V88zm-12.7-2.4v-.3c.2.2.2.6 0 .8v-.5zm12.4-.2c-.2-.7 0-1.4.5-1.4.2 0 .4.3.4.8 0 .8-.6 1.2-.9.6zm-17.5-2 .2-1c.2 0 .3.2.3.8 0 .5-.1 1-.3 1l-.2-.8zm5-2c-.2-2.9-.2-13 0-13.3.6-.5.7.7.6 7.2 0 6.9-.4 9.8-.6 6zm-60.3-.8c0-.6 0-1 .2-.8.2 0 .3.4.3.8 0 .3-.1.7-.3.8-.1 0-.2-.3-.2-.8zm55.4.2c-.1-.4 0-.8.1-1 .2-.2.3 0 .3.7 0 1.2-.2 1.3-.4.3zm22.4 0c0-.3 0-.4.1-.2v.6l-.1-.4zM82 75c0-4.8 0-9.2.2-9.4.4-.4.7 3 .7 8 0 4 0 5.4-.3 5.6-.3.2-.4-.6-.5-4.2zm78.5 3.7c0-.3-.1-.6-.3-.6-.1 0-.2-.6-.2-1.4 0-.8 0-1.5.2-1.6.2 0 .3-.3.3-.6 0-.2-.1-.3-.3-.2-.4.3-.3-.4.2-.8.4-.4.4-.4.3 0l.1 1.7v2.7c-.1.8-.3 1.2-.3.8zm-26 0a379.7 379.7 0 0 0 .4-22.6c0-8.2.1-10.9.6-10.5.3.3.4 2.5.3 12.7-.2 18-.5 21.8-1.4 20.4zm332.4-2c-.8-.3-.6-.8.4-.8.5 0 .8.2.8.4.2.6-.4.8-1.2.4zm-17.3-1.5-2.7-.2c-2 .1-2.6 0-2-.6.2-.2.6-.2 1.6 0 .8.2 2.2.3 3.2.3 1.7 0 2.4.3 1.4.6-.5.2-.5.2-1.5 0zm-14-1.3c-.2-.2-.2-.3-.1-.4.2-.2 5.5.2 5.5.4 0 .3-5.3.3-5.5 0zm-297.9-2.5v-3c.5-.8.6.2.4 3l-.2 2.6zM376.9 73c-.2-2 .1-6.7.5-7 .3-.1.7 6.3.4 6.8-.2.6-.9.6-1 .2zm-46-4c-.2-2.5-.2-4 0-5 .1-1 .2-1 .4 1.5.1 1.8 0 2.9-.1 3.2-.2.3-.3.4-.3.2zm-9-2.3v-2.3c.2-1.5.2-1.6.2-.3 0 .7.2 1.3.3 1.4.2 0 .3.6.3 1 0 1.2-.7 1.3-.9.2zM142.4 66c0-.4.1-.7.3-.7.1 0 .2.3.2.7 0 .4 0 .7-.2.7s-.3-.3-.3-.7zm13.2.3c-.3-.7-.3-1.8 0-2.3.4-.6.6.2.4 1.6-.2.9-.3 1-.4.7zm225.8-.7v-1.3c.2-1 .3-1 .6-.8.4.4.5.8.4 1.8 0 .6-.6.8-1 .3zm21.7-.3c-.2-.2-.3-1.4-.3-3.9 0-3.3 0-3.5.4-3.2.3.4.4 1.1.5 3 .1 3.2-.1 4.6-.6 4.1zM137.7 63c0-1 .1-1.3.4-1.3.3 0 .4.3.4 1 0 .4-.1 1-.4 1.2-.3.2-.4.1-.4-1zm11.7.7c0-.3 0-.4.2-.2v.6c-.1 0-.2-.1-.2-.4zm272.5 0c0-.3.1-.4.2-.2v.6c-.1 0-.2-.1-.2-.4zm43.4.1c-.4-.4-.4-1.5 0-1.5.5 0 1.2 1.2 1 1.5-.3.4-.6.4-1 0zm-32-1.2c0-.4 0-1.4.2-2.2l.2-1.4.2 1.3c.4 2.4.3 2.9-.2 3-.3 0-.4-.1-.4-.7zm-283.8-1.3v-.5V62v-.8zm320-.3c-.2-1.8.1-3.1.4-1.6.3 1.7.3 3 0 3-.2.1-.4-.4-.4-1.4zm-38.4.7c-.3-.3-.4-.6-.3-1.2.3-1.5 1.2-1 1.2.6 0 .8-.4 1-.9.6zm-118.2-.4c0-.3 0-.3.2-.1v.5c-.1 0-.2 0-.2-.4zM81.5 61c-.2-.5 0-1.2.4-1.2.5 0 .6.8.2 1.3-.4.3-.4.3-.6 0zm61.3.1c0-.1 0-.3.2-.4.2 0 .3 0 .3.3 0 .2-.1.4-.3.4-.1 0-.2-.1-.2-.3zm13-.2c-.2-1.2 0-5.5.1-5.6.4-.4.6 1 .6 3 0 2.4-.2 3-.5 3-.2 0-.3-.1-.3-.4zm152.2-.3v-4.8l.1-5.6c0-.7.2-1 .4-1a106 106 0 0 1 .5 11.2c-.1.5-.7.6-1 .2zM138.1 60a9885 9885 0 0 0 0-18.5c.1-8.1.4-18 .6-18.3l.5-.2c.8 0 .9 1 .5 4.5a88 88 0 0 0-.4 7.4c0 2.1-.1 5.4-.3 7.3a220 220 0 0 0-.3 10.7l-.3 7.3c0 .1-.2 0-.3-.2zm224 .2c-.3-.3-.3-2.3 0-2.3s.6 1.5.3 2c0 .3-.3.4-.4.3zm-49.7-1c0-.7 0-1 .4-1 .2 0 .4.3.4 1 0 .6-.2.9-.4.9-.3 0-.4-.3-.4-1zm121-1 .1-1.4c.2-.5.2-.5.4.3l-.1 1.3c-.1.4-.2.3-.3-.2zm-120.9-1 .5-.4c0-.2.2-.1.2.1 0 .3-.2.5-.5.5-.2 0-.3 0-.2-.2zm18-1.8V55v1-.6zm51.2-4.2c0-4.3 0-4.9.4-4.9s.4.5.3 4.7c-.3 6.4-.7 6.5-.7.2zM81 55.4c-.2-.6-.1-3.5.1-4.3.2-.7.3-.7.7 1 .6 2-.2 4.9-.8 3.3zm340.4-.3c0-.2.1-.3.2-.2.2 0 .2.3.2.4-.3.4-.4.3-.4-.2zm12.2-.7c0-.8 0-1 .1-.6V55v-.7zM156 52.9c-.2-.6 0-1 .4-1 .1 0 .2.3.2.7 0 1-.4 1.1-.6.3zm166-.1c0-.3 0-.4.2-.2v.5c-.1 0-.2 0-.2-.3zm-172.5-1c0-1.9.6-2.5.9-.9.2 1.2 0 2-.5 2-.3 0-.4-.3-.4-1zm180.7-.1c-.2-.2-.3-.5-.2-.6.3-.2.8.4.7.7 0 .2-.3 0-.5-.1zm135-.2c-.4-1-.4-2.2 0-2.5.3-.3.4-.1.5 1 .2 1.8 0 2.4-.5 1.5zm4.2-.6c-.4-1-.4-3.1 0-3.5.4-.3.5-.2.6.2.3.8.2 3 0 3.6-.2.4-.3.3-.6-.3zm-38.5-1v-1.5l.3-1.2v1.1c.2.7.1 1.4 0 1.6-.1.5-.2.5-.3 0zM156 49.6a27.4 27.4 0 0 1 .5-7.3c.2-.1.5-.2.6 0 .3.2-.3 7-.6 7.4-.2.1-.4.1-.5-.1zM403 47.2c0-2.2 0-2.5.3-2.2.6.4.6 4.7 0 4.7-.3 0-.3-.4-.3-2.5zm18.2.6c-.2-1.5-.2-2.2 0-2.8.2-.6.2-1.2 0-2a54.6 54.6 0 0 1-.6-12.8c0 1.7.2 2.9.3 2.9.2 0 .3.5.3 1.2l.3 3.5c.2 1.3.3 3.3.3 4.5 0 1.2 0 2.4.2 2.7.4.8.4 4 0 4.4-.4.3-.5 0-.8-1.6zm-340 .4c-.2-.5 0-2.5 0-4.3l.5-6c0-.6.7-.8 1-.3.3.5.3 3.5 0 4.2-.2.4-.5 2.1-.6 3.8a9.6 9.6 0 0 1-.5 3.3c-.2.3-.3 0-.5-.7zm248.8.5c0-.4 0-.5.1-.3v.6l-.1-.3zm-180.1-.2c-.5-.8.4-22.7 1-23.7 0-.3.4-.5.7-.4.5.1.5 1 0 3.5-.3 1.8-.4 3.1-.8 12.6-.3 6.6-.5 8.6-.9 8zM308.1 47c0-.2.2-.4.5-.4s.3 0 .2.2c-.2 0-.4.3-.5.4 0 .1-.2 0-.2-.2zm69.9-3.3c0-2.3 0-3 .4-3 .3-.2.3.2.2 2.4-.2 3.7-.6 4.1-.6.6zm52.8 2.6c-.4-1.1-.7-3.7-.6-7.4.2-5 .1-4.6.3-4.4l.3 2.3c0 1.2.2 2.8.4 3.6.3 1.4 0 6.7-.4 5.9zm34.5-.4v-4.5l.4.1c.3.3.3.5 0 .7-.1.3-.2 1 0 1.8 0 .8 0 1.6-.2 1.9l-.2.5V46zm-144-1c0-.3.3-.5.5-.4.3 0 .4 0 .2.2l-.4.4c-.1.1-.2 0-.2-.2zm-186-.9c-.3-.3-.3-1.4-.4-5.2 0-2.6 0-6.4-.2-8.4-.3-5.8-.3-10.1 0-10.6.2-.5.8-.6 1-.2.3.3.4 23.4.2 24.3-.1.6-.2.6-.5.1zm267.6-.7c0-1.2 0-1.3.4-1 .2.3.3.6.2 1-.3 1.3-.6 1.3-.6 0zm66.1-.8c0-1.3 0-1.8.4-1.8s.6.8.7 2c0 1-.3 1.5-.7 1.5-.3 0-.4-.4-.4-1.7zm-66.1-3.8c0-3.7.5-3.3.7.7.1 2.1 0 2.4-.3 2.4-.4 0-.4-.4-.4-3.1zm-246.4-2.8c0-5.2.5-8.6 1.2-9 .8-.6 1 0 .5 2.9a38 38 0 0 0-.3 4.5c0 2.2-.8 6-1.2 6-.2 0-.3-1.4-.2-4.4zm184 3.4c-.2-.7-.1-1 .3-1 .3 0 .4.3.4.7 0 .8-.4 1-.6.3zm124.6-.2c-.4-.4-.4-2 0-2.2v-.5c-.3-.3-.3-.4 0-.5.3-.3.3-1.4 0-1.6-.4-.3-.4-1.3 0-1.7.2-.2.2-.5 0-1-.4-.6-.4-.7 0-1 .3-.4.4 0 .5 4v4.6c-.1.1-.3 0-.5-.1zm3.9-.3c0-.5.2-.7.4-.7s.4.2.4.7c0 .4-.2.6-.4.6s-.4-.2-.4-.6zm-387-2c-.2-.3-.3-1-.3-2 0-1.3 0-1.5.4-1.4.4 0 .5.4.6 1.5 0 1.6-.2 2.3-.7 1.8zm386.8-1.3c-.2-1-.2-1.6 0-2.2l.3-1 .3.7c.5.9.5 3 0 3.5-.3.2-.4 0-.6-1zm-139.6-.8c-.3-.2-.2-2.2.1-2.2.1 0 .3.6.3 1.2 0 1.2 0 1.4-.4 1zm-20.7-1.5c-.2-.2-.4-1-.4-2 0-1.2.1-1.6.4-1.6.3 0 .4.4.4 2v2l-.4-.4zm25.6-1.6c0-.7.3-.9.6-.2.2.6.2.9-.2.9-.3 0-.4-.3-.4-.7zm44.3 0c-.2-.3-.2-3 .1-3.2.1 0 .3.3.4.8.2 1-.1 2.7-.5 2.4zm3.7-.2c-.1-.3-.1-1 0-1.6l.3-1.1.2 1c.2 1.2-.2 2.6-.5 1.7zm22.6-1.1c-.4-1-.3-1.5.1-2.1.4-.5.4-.5.7 0 .3.7.2 2.4-.3 2.6-.1.1-.3-.1-.5-.5zm63.8-.6v-1.3l.4.8c.5 1 .5 1.8 0 1.8-.3 0-.4-.4-.4-1.3zm-139.6 0c-.1-.4-.1-.7 0-.8.2-.2.7.4.7 1 0 .5-.5.3-.7-.3zm11.5-1.8c0-.9.1-1.2.4-1.2.3 0 .4.3.4 1.2 0 .9-.1 1.2-.4 1.2-.3 0-.4-.3-.4-1.2zm-31.8.7c0-.4-.1-5.8 0-6.4 0-.4.3-.8.5-.8.4 0 .8 1.6.5 2.3l-.3 2.5c0 1-.3 2-.4 2.2-.1.2-.3.2-.3.2zm20-2-.2-3c-.2-1-.1-1.5.1-1.8.4-.4.4-.4.6.3a21 21 0 0 1 0 5.8c-.2 0-.3-.5-.4-1.4zm136.7.8c0-.3 0-.4.2-.2v.5c-.1 0-.2 0-.2-.3zM322 26.6c0-.6.1-.9.3-.8.3.2.3 1 0 1.4-.2.3-.3.2-.3-.6zm56.4.4c-.4-.7-.4-1.5 0-1.7.6-.2 1 1 .6 1.7-.3.5-.3.5-.6 0zm90-.7c-.3-1-.5-9.3-.1-10.2.3-.6.4-.7.7-.4.4.2.4.7.3 2.3-.4 4-.4 5.7-.2 6.8.2 1 .2 1.3 0 1.6-.4.3-.5.3-.7-.1zm-86-1.3c0-.5 0-1 .2-1 .2-.2.2-.5.2-.7v-.7c.2 0 .3.6.3 1.6 0 1.4 0 1.7-.4 1.7-.3 0-.4-.3-.4-.9zm-19.1.2c0-.3 0-.3.1-.1v.5l-.1-.4zm41.6-.3c-.4-.9-1-16-.6-16.3.2-.2.4-.1.6.1a123.4 123.4 0 0 1 .4 16.3c0 .7-.1.7-.4 0zm15-.9c0-.9.1-1.3.2-.9 0 .5.2 1 .3 1 .4.5.3 1.6-.1 1.6-.3 0-.4-.4-.4-1.7zm-79.3-1.8c0-1.5.1-2 .4-2 .4 0 .4.4.4 1.6-.1.9-.3 1.8-.5 2-.3.3-.3 0-.3-1.6zm-6.4 1c0-.3 0-.7.2-.9.2-.1.3-1 .4-2 0-1.6 0-1.4.1.8 0 2.3 0 2.7-.3 2.7s-.4-.2-.4-.6zm98.1-.6-.4-2.6c-.2-2 0-2.6.8-1.9.4.4.4.8.3 2.8l-.3 2.4-.4-.7zm-109.7-1c0-.5 0-.6.1-.4v.8l-.1-.4zm-13.6-1.3v-5.2c0-7.3.3-9 1.3-7.8.2.4.3.8.2 1.6-.1.5-.3 2.2-.3 3.6s-.2 2.8-.4 3a10 10 0 0 0-.2 2.9c0 1.3-.2 2.2-.3 2.2-.2 0-.3-.1-.3-.3zm73.7-1.3a26 26 0 0 1 .4-7V10c-.4-2.3 0-4.7.5-4.7s.5-.2 0 8.2a60 60 0 0 1-.4 6l-.3.8zm-54.4-1.5v-2.1c.2-.3.3.4.4 1.4l-.1 2c-.1.2-.2-.4-.3-1.3zm91-1.3v-1.4c0-.5 0-2-.2-3.2-.2-1.2-.3-3.3-.3-4.7 0-1.4-.1-3.4-.3-4.4-.2-1-.4-2-.3-2.1.2-.4 1-.5 1.3-.2.2.3.3 16.2 0 16.3 0 .1-.2 0-.2-.3zm-84.8-1c-.3-1.2 0-5.5.3-5.4.3.1.5 4.7.2 5.7-.2.7-.2.7-.5-.3zm-6.3-1.8a54 54 0 0 1-.3-10.7c.5-.3 1 .7 1 1.7v4.9c0 3.8-.2 4.8-.7 4.1zm101.6-.6c-.2-1.4-.2-3.2 0-3.4.8-.4 1.3 1 .9 2.8-.3 1.6-.6 1.8-.9.6zM334.4 7c-.4-.4-.4-1.4 0-1.8.5-.4.7 0 .7 1s-.3 1.2-.7.8z"/>
</svg>
