<?xml version="1.0" encoding="utf-8"?>
<svg xmlns="http://www.w3.org/2000/svg" xmlns:svg="http://www.w3.org/2000/svg" version="1.1" viewBox="0 0 275 165">
  <title>Ribby bends down in front of the over and pulls out the pie. Meanwhile, Duchess’s tail and back legs are just visible underneath the table.</title>
  <path d="M140.6 163.8c-1.9 0-2.5-.2-3.1-.7l-.9-.6-3.7.1a405.8 405.8 0 0 1-22.6 0c-.9-1 0-1.6 2.3-1.8l1.8-.2v-.6l-.1-.5 2.6-.1c2.3 0 2.8 0 4 .5l1.3.6h7c8 0 14-.1 16.2-.4l1.4-.1-.9-.2-12.5-.3a65 65 0 0 1-12.3-.4c-.8-.5-8-.7-11-.4-1.7.1-2 .2-1.9.6.1.3 0 .3-1.3.2-.9 0-1.6-.3-1.7-.5-.2-.2-.4-.2-.8 0-.4.3-1.8.3-5 .2-6.2-.3-6.9-.3-8.5-.9l-1.4-.5.6-.4 2.1-.6c1.1-.2 1.5-.4 1.6-.8.1-.8.5-.9 2.5-1 2 0 5.7-.3 4.8-.4-.3 0-1-.3-1.4-.6-.8-.4-1.3-.5-3.7-.5-1.7 0-3 .2-3.4.4a34.6 34.6 0 0 1-10.2.3c-1 .3-.2.7 2.2 1.3 2.7.7 3 1.2.8 1.2-1 0-1.7.1-1.8.3-.2.3-1.2.2-7.4-.2-1 0-5-.8-6-1-.8-.3-.2-.8.7-.6.5 0 2.4 0 4.3-.2 2.5-.3 3.6-.6 4.1-1 .5-.3 1.1-.5 2.1-.5 2 0 3.3-.4 2.8-1-.2-.2-.2-.3.3-.3a2 2 0 0 0 1-.4l.4-.3-.4-.4a272.2 272.2 0 0 0-19.4.7c-1 .2-.7.6.4.6 1.4 0 1.7.5.4.7-.5.1-.9.2-.8.3l2.9.4c3.3.4 3.7 1 .5.6a7 7 0 0 0-2.6.1c-.3.2-1.6.2-3.4 0l-3-.1 1-.5 2-.4h1v-1.8l1.6-.3c2.8-.4 11-1 21.9-1.2 3.1-.1 5.8-.3 5.9-.4.1-.1.2-.4 0-.7 0-.4-.4-.4-1.9-.3l-3.9.3a73 73 0 0 0-9.1.7 60 60 0 0 1-14.9-.2c-2.3.2-2.2.2-6 .2-1.7 0-3.2.1-3.3.3-.4.3 1.3 1 4.3 1.8 2 .6.8.8-1.6.3-1.8-.4-2.3-.4-2.5-.2-.2.3-.8.3-2.9.1-3.1-.3-4.2-.5-5.1-1.2-.9-.7-.5-1 .5-.5.6.4 5 1.2 6.4 1.2h.5l-.6-.7-.6-.8h-1.7c-.9 0-1.6-.2-1.6-.3 0-.2 1.2-.3 3-.3 5.5 0 7.6-.2 8.1-.7l.5-.4 3.7.2c2.3 0 4.5 0 5.7-.2l2-.2 1.8.5c2.6.8 5.2.8 6.8 0l1.2-.7-1.5-.2c-.8-.1-1.5-.1-1.6 0 0 0-.7 0-1.3-.3a8 8 0 0 0-3-.2c-1 .1-1.7.1-1.6 0 .2-.2 7-1 9-1 .8 0 1 .1.8.3-.5.3-.5.3 1.4 1 1.3.6 2.2.8 4.5.8h4l1.3-.2-.6-.3c-.4-.2-.7-.5-.7-.6 0-.4 1.7-.5 3-.2 1.4.4 2.8 0 3.2-.7.3-.6 0-.8-1.2-.8-.3 0-.6-.1-.6-.3 0-.3-1.4-.8-2.5-.8-1.4-.1-7.3.2-10.4.5a68 68 0 0 1 6.5-1H93c.8 0 .9 0 .4-.3a25 25 0 0 0-7.2.2c-.3.1-1.4.2-2.5.1-1.4 0-1.7-.2-1-.3 2.4-.4-.4-1.4-3.5-1.2-2.6.2-5.4.6-6.7 1-.6.3-1.8.6-2.8.7-2.5.5-4.3 1.1-4 1.4.2.2 1.3.2 3.5 0 2.5-.3 3.4-.3 3.9 0l1.4.3c1.3 0-1 .4-4.8.7l-3.1.3-.5-.4c-.4-.5-.2-.5-8.4.1l-3.5.4 1 .7 1.2.5-4-.2h-4.1l.6.5c.9.3 1 .9.1.7l-3.6-.5c-3-.3-5.3-1-4.1-1.2l1.8.1 2.8.5c1.1 0 1.4 0 1.2-.3 0-.2 0-.4.2-.4l.6-.1.7-.1c.4 0 .4-.1.1-.7-.1-.4-.5-.7-.7-.7h-5.3c-3.2 0-5-.2-5-.4.1-.1 1.8-.2 4.8-.1h4.7l.2-.4.3-.5.9.3c.5.2 2.1.3 4.2.2 2.7 0 3.3-.2 3.4-.5 0-.3-.2-.4-1-.5-.6 0-1-.2-1-.4 0-.3.7-.5 2.7-.8 4.3-.5 10-1.3 10.1-1.5l-1.6-.4c-1.3-.2-2.1-.2-4.4.1l-4.5.7c-3.2.4-5 .8-6.1 1.2-.9.3-2.8.5-7.3.7-3.3 0-7 .3-8.3.5-2.3.3-3.2.2-2.7-.3.1-.2 4.9-.6 9.6-.8l-.2-.2c-.1-.2-1.2-.4-2.5-.6l-3.6-.5c-1.2-.3-1.6-.3-2.3 0-1.1.6-1.2.6-1.2.3l1-.7c1.1-.5 1.5-1.2.6-1.2-.8 0-2.5.7-3.7 1.5-1 .6-1.8.7-1.5 0 .3-.3 2.8-1.4 4.9-2 1.4-.5 2-.5 2.6-.3a9 9 0 0 0 2.6 0h1.9l-.1-.5c-.1-.4 0-.6.8-.8.8-.3.9-.4.5-.6-.7-.3-8.4 0-8.8.4-.7.6-4.5-.5-4.5-1.2 0-.6 0-.6 1.7 0 1.4.4 2 .3 2-.3 0-.4.1-.4.6-.3 1.4.4 2.6.5 3 .1.2-.2 2.2-.4 5.4-.6 6-.5 7.7-.6 7.7-1s-2-.7-4.3-.7h-6.7a124.5 124.5 0 0 0-15.5 1h8c5.8 0 7.9 0 7.7.3a121.3 121.3 0 0 0-10.2.3c-4.5.1-8.3.2-8.4.1-.2-.3.5-.7 1-.5h1l.7-.2-.5-.4-.5-.3 1.5-.2 6-.3c2.4 0 5-.3 5.6-.4l1.2-.1-1.6-.3c-2-.2-4.9-.3-11.2 0h-4.8c0-1 1.6-1.4 7.3-2 2.9-.2 3.5-.1 4 .6.3.3.6.5.9.4l1.6-.3 2.6-.4 1.5-.4h-1.9l-2.1-.4c-.2-.2-1.9-.1-4.5 0-5.7.5-7 .5-7.2.1 0-.2.3-.4.8-.5.5 0 1-.3 1-.4 0-.2-.9-.5-1.8-.7-1 0-1-.1 0-.3.6-.2 3.5-.3 6.4-.3 5.6 0 7.1-.1 6.8-.6 0-.1 0-.4.3-.6l.5-.4-.7-.1a203.2 203.2 0 0 0-18.2.2l.2-.4c4.6-.1 8-.3 10.7-.5l3.3-.2H17.9c-2.5 0-3.7 0-3.7-.3s1-.4 9-.4h6.4l.1-.5c0-.4 0-.4-1-.4-.7 0-1.3-.2-1.5-.3-.2-.3-.8-.3-2.2 0-2.6.4-4.5.4-4.7-.1-.2-.6-.1-.6 1.5-1 1.2-.2 1-.2-1.6 0-1.8 0-3.1 0-3.1-.2 0-.5 2.8-1 6.2-1.2a93.4 93.4 0 0 0 13.6-1.3 77.1 77.1 0 0 1 8.2-.5 68.8 68.8 0 0 0-15 2.6l-2 .4 4.2-.2a63.9 63.9 0 0 0 10.4-.9c.8 0 3-.2 4.7-.5l3.1-.4v-.5c0-1.7-.4-4-1.1-5.5l-.8-1.8v-3.1c0-3.4-.2-3.8-1.4-3.6-1.1.2-1-.3.4-.9l1-.5.5-2.2c.2-1.2.3-2.2.2-2.3l-1.4-.4c-1.6-.3-4.6-1.5-5.6-2.3-.8-.6-1.4-.8-1.4-.3 0 .3 1 1 1.6 1 .3 0 .5.2.5.4 0 .4-.6.7-1.5.7H41v1.1l-.2 3.3-.2 2.1h1.3c2-.1 2-.1 2-.5-.1-.2-.5-.4-1-.4-.4-.1-.8-.4-.8-.6 0-.4.1-.5 1-.6h1l-.1-1.4.1-1.4c.4 0 .6.7.6 2.6v1.9l.6.4c1.1.7.9 1.2-.5 1.2-.8 0-1.2 0-1.2.4 0 .2.3.4.6.4l.6.1v4.2c.1 3 .3 4.3.5 4.5a6 6 0 0 0 2 0c1.1-.1 1.9 0 2 .1 0 .2-.6.3-1.8.4-1 .2-2 .3-2.3.5-.2 0-2.7.3-5.6.3-5.6.2-10.4.5-15.7 1.2-5.2.6-9.1.7-9.1.2 0-.5.8-.7 2.7-.7 1.8 0 3.7-.7 3.1-1l-.3-.4c.1 0 3.2-.3 6.9-.4l6.7-.3.3.4.4.5h4c4.3-.1 5.3-.4 4.7-1a12 12 0 0 1-.5-4.2c-.1-3.7-.4-4.6-.9-2.7a10 10 0 0 1-.4 1.6c-.2.3-.3 1.5-.2 2.8v2.2h-.5a.6.6 0 0 1-.6-.5l-.2-1c0-.2-.2-5-.2-10.7-.1-5.7-.3-10.4-.4-10.5-.3-.4-4.5-.4-4.5 0l1 .5c.6.1 1.1.3 1.1.4 0 .3-.4.3-1.7 0-.9-.2-1.2-.2-2 .4l-1.4.6-1 .6-.5.6-.4-.5a6 6 0 0 1-.7-1.6c-.2-.6-.4-1.1-.6-1.2-.4-.3-2-.3-2.5 0-.3.1-2.8.3-5.7.4-6.8.2-6.7-.1.8-1.6l1.6-.3-1.5-.2c-.8-.1-1.2-.3-1-.3.7-.2.6-1.1-.2-1.5-.4-.1-.7-.4-.7-.5 0-.4-2.2-2.9-2.6-2.9-1.7 0-1.8-1-.1-2.6 1.3-1.3 1.4-1.9.6-2.5l-.5-.3.5-.3c.3-.2 1.9-.4 3.6-.5l3.1-.2-.5-.3-.5-.4h1.4c.7 0 1.7 0 2.2-.2.5 0 .8 0 .8.2 0 .1-.4.3-1 .3-.5 0-.8 0-.8.2H31c4 0 5 0 5-.3 0-.2-.6-.8-1.1-1.4-.6-.6-1-1.2-1-1.3 0-.4-1.4-1.6-2.2-2-.4-.1-.8-.4-.8-.7 0-.2-.3-.4-.9-.5-.9-.2-3 .3-3 .6 0 .2-.3.3-.6.4-.7.2-.6 0 .6-.8.9-.7 1.4-.9 2.4-.9 1.4 0 1.5-.2.8-1.2-.3-.4-.6-.6-1.3-.6-.5 0-.9-.1-.9-.3 0-.1.3-.2.7-.2h.6v-1.8c0-2 0-2.2-1-2.8a26 26 0 0 1-4.8-4.5c0-.2.5-.2 1.4 0 2 .2 2.7.2 5-.2 1.6-.3 2-.5 2.6-1.1a23 23 0 0 1 2.7-2.7l1-.8-.3-1c-.3-1 0-2 .6-2 .2 0 1.3.4 2.4 1 2.8 1.4 5.7 2.2 7.6 2 1-.2 1.8 0 2.7.2.6.2 1.7.4 2.4.4 1.4 0 3.9.8 5.8 1.8l1.4.7h5.2l6.8-.2c1.4 0 1.7 0 2.6.7a25.3 25.3 0 0 1 6.3 4.2c.2.3.7.5 1 .5.4 0 1 .2 1.4.5.5.3 1.2.6 1.6.6.5 0 1.3.1 1.8.4l1.5.4c.3 0 1 .3 1.4.6.4.4 1 .7 1.2.7.3 0 .6.3.8.7.7 1.4 1 .5 1-2.8.1-2.8 0-3.2-.2-3-.4.3-.4 0-.3-1.5v-3.8c-.2-1.7-.3-2-.8-2.1l-.5-.2.2-4.4a23.5 23.5 0 0 0-.5-7.3c-.1-.9-.3-1.3-.6-1.3-.6 0-.5-2.8 0-3 .7-.2.7-.2.7.5 0 1 .5 1 .5 0 .2-4.7 0-17.3 0-17.8-.2-.5-.2-.6.3-.6.3 0 .5.2.5.5 0 .7.5 1 .7.5.1-.3.3-.5.5-.5.3 0 .4.8.4 4.3 0 2.4.1 5.7.3 7.4l.2 10.3v10c-.1 3.6.5 14.2.9 16.5l.2 1.7 3.4 3.1 4.9 5.2c2 2.5 2.2 2.7 2.4 2.4a174.6 174.6 0 0 0-.2-21.2c-.3-1.8-.4-4.2-.5-8.7 0-9.2 0-10.2.6-4.8.9 9.8 1 16.8 1 33.2l-.1 4.5 1 1.9a9 9 0 0 1 1 2.5c0 1 1 3 1.6 3.1.7.2.8.6 1 5 0 3.3 0 4.7-.6 8.6-.6 4.4-.8 5.4-1.5 6.4-.5.6 0 1 3.3 2.7l3 1.4h4c4.3 0 5.2.2 5 .7 0 .2-1.2.3-3.1.3-4.6 0-4.4 0-3.4 1.2 1.6 1.9 2.4 2.6 3 2.6.3 0 .7.2.8.4 0 .4.3.4 1 .3l1.2.1c.7.4 0 .8-1.5.8l-2.2.2c-1.3.4 0 .7 3.4.6 1.9 0 3.2.1 3.2.3 0 .1-.3.2-.8.2-.4 0-1 .1-1.2.3-.7.3-7.8-.2-10.6-.8-2-.4-3-.5-5-.4l-2.4.2-.3-.6c-.3-.5-.4-.5-.7-.2-.5.5-1.2 2.3-1 2.4a17.8 17.8 0 0 0 4.8.2c0-.1 0-.3-.2-.3s-.3-.2-.3-.4c0-.3.2-.4.7-.3 2 .5 4.2.7 10.2 1 6.6.2 7.4.3 7.4.8 0 .3-1.6.3-6.6-.1l-6-.3-4.4-.2-.1.4c-.2.4-.7.4-2.7.4-3.3 0-3.7.3-2.2 1.2l1.7 1c.4.1.7.3.7.5 0 .5 2 1.3 3.6 1.3h1.6v1.2h2.3l2.3.2v1.2l2.3.2h3.3c1.4-.1 2.2.2 1.4.7-.6.4 0 .7 1.2.7.6 0 1.3.2 1.6.3 1.2.4 1.3.2 1.2-4.8 0-3.5-.2-4.8-.5-5.3-.7-1.2-1-4.4-.7-6.5a7 7 0 0 0 0-2.6l-.2-4.9a121.4 121.4 0 0 0-1-13.8c-.2-.2-2-.2-4.2-.1l-4-.1c-.1-.2.4-.3 1-.3l4.3-.2 2.9-.2v-3.3c0-5-.8-12.1-1.2-12.4-1-.6-1.3-.3-1.8 1.5a38 38 0 0 0-.8 3.1c-.5 2.3-.7 3-1.2 3-.5.1-.7-.6-.7-2.3 0-2.8-.3-4.7-.8-4.9-.3 0-.7-.8-1-1.6l-.6-1.4.3-1.5c.3-1.8.6-1.6 1 .8.3 1.8.5 2 1 1.4.1-.3.4-.5.6-.5.3 0 .3.7.3 2.9l-.1 2.8h.4c.5.2.5 0 1-5.4.4-3.8.2-10.4-.3-11.6-.3-.7-.3-.9.1-1.3.7-.8.5-9.2-.4-14a115.9 115.9 0 0 1-1.2-7.2c-.6-1.7-.8 6.5-.2 11.1.5 3.4.3 17.5-.2 17.4-.2-.1-.3-.5-.4-.8-.1-1.3-.7-.9-1 .6-.2 1.2-.3.4-.2-3.9 0-3.8.1-5.7.4-6.8.4-1.4.4-3.5.4-14 0-9.3-.1-12.4-.4-12.9-.5-.8-1-3-1-3.8l.3-1.5c.3-.6.4-1.2.3-1.7-.1-.6 0-1 .4-1.4.8-1 1.1-.8 2 .9a7 7 0 0 0 1.6 1.8l2 1.5c1.6 1.1 3.3 1.9 3.9 1.6.2-.2 2-.3 3.8-.4 2 0 3.5-.2 3.5-.2V31c0-2.5 1.1-3.4 3.3-3 .7.3 1 .5 1 1s-.1 1.2-.3 1.6l-.4.8.6.5c1.3 1 1.5 1.4 1.3 1.8a61.5 61.5 0 0 0 2.6 22.4c.5 2 1.2 6 1.3 7.1 0 1.1-.8-.8-1.2-3a215 215 0 0 0-2.5-12s-.3-.2-.7-.2c-.8 0-.9-.1-1-4.9l-.2-3.7.4-.2c.4-.1.4-.5.4-3-.1-2.8-.4-3.6-1.4-3.5l-.6.1V35c-.1 2.1.4 7.2 1 8.8l.3 3.2a204.3 204.3 0 0 0 1.1 13.1l.2 2.3-.4-.6c-.3-.3-.5-1-.5-1.8a120.4 120.4 0 0 0-1.4-14.7 29 29 0 0 0-.8-5.2c.1-.4-.8-5.5-1.2-6.2l-.3-.5h-2.8c-1.5-.1-3 0-3.2 0-.2.1-.3.2-.1.2.5 0 .4.8 0 .8a20 20 0 0 1-6.1-1.8c-.6-.4-1.2-.7-1.3-.6-.1.1 0 1.4.2 2.7.5 3.7.8 8.4.4 8.6-.2.1-.3-.2-.3-1 0-1.9-.4-3.4-.8-3.6-.3 0-.3.4-.2 3.2.2 3.9.3 4.3 1 3.9.4-.2.5-.5.4-1v-.6c.2 0 .4 1.9.6 4.2a133.6 133.6 0 0 0 4.3 25.7c.2.3.3 1.2.4 2 .2 1.7.3 1.8 1.3 1.6l1 .1c.4.5 2 .5 3.5.1 1-.2 1.8-.3 2-.2.2.3-.5.6-2.4 1-2 .6-2.3.8-1.7 1.3.3.2 1 .1 3.1-.5 1.5-.4 2.8-.8 2.9-1v-.7c-.3-.4-.2-.5 0-.3l.6-.1 2.3-9c.3-1.6.6-2 1.8-1.9h.9l.4-1.4.5-1.4.4 1.3.3 1.2 1-.1c2.7-.4 8.9-.5 9-.2.2.2.1.3 0 .3-4.6.1-6.4.2-6.8.5l-.5.2 1 .3c.4.2 1.7.4 2.9.5l2 .1.2-.4c.1-.4.5-.4 1.6-.4h2.6l-.8-.6c-1.4-1.2 0-2.4 2.1-1.8.8.2 1.3.2 1.7 0 .8-.4 3.3-.4 3.1 0 0 .3-.3.4-.6.4-1 0-1.2.1-1 .4 0 .1.5.3.9.3 1 0 3 .6 3 1h-2.8c-1.8 0-2.6 0-2.4.3.1.1 1.2.3 2.5.3 1.9 0 2.2.1 2.2.5s.2.5 1.2.6a15.5 15.5 0 0 0 3.8 0h.7l-.3-.6c-.6-1 0-1.5 2.2-1.6 1.4-.1 1.8-.2 1.3-.3l-1.7-.2c-1 0-1.3-.4-.7-.7l2.3-.2a11 11 0 0 0 2.9-.2c.9-.4 2.2-.2 2.2.3l-.4.2c-.3 0-.4.1-.2.3.2.2 1 .2 2.5 0l2.2-.1.5-1c.3-.6.5-1.7.6-2.5.2-3.3.4-4.6.8-4.3.2.1.4.5.5.9 0 .3.4.7.8.9.8.3.7.9 0 1-.8.1-.8.9-.1 1.5.3.2.5.6.5.8 0 .2.5.6 1.1 1 1 .4 1.6.5 4 .5 3.4 0 3.4 0 3.4.2s-.8.3-1.8.3c-1.2 0-1.6.1-1.3.3.7.2 9.2.3 10.6 0 1.2-.1 2.8-1.5 2.8-2.3 0-.8.2-1.4.5-1.4.4 0 .3 1.5-.1 1.8-.6.5-.5 1.8 0 2 .8.3 1.9.1 2.4-.4l.5-.6-.5-.3-.5-.4.5-.1c.4-.2.3-.4-.9-1.5l-1.3-1.2-.2-1.4c-.2-1.9 0-2.1 1.8-2.2l5-.1h4c.2.4-.2.5-2 .8-1 .1-1.3.3-1.4.7 0 .4-.3.5-1.8.5h-2l-1.3.1c-1.4.2-1.5.8-.1 2.1a6 6 0 0 0 4.2 2c2 .2 2.2.4 1.5 1-.5.4-.4.4 1.2.7 2.3.4 5.6-2 6-4.2 0-.7 0-1.4-.2-1.7-.4-.7-.3-1.3.1-1.3.6 0 1 .9 1 2.4l.1 1.4 1 .1c2 .4 1.7.7-.5 1-1.3.1-1.7.3-2.6 1.1l-2.2 1.5c-.9.4-1 .6-.8.8.4.5.8.5 1.2 0 .2-.5.8-.5 3.8-.6l3.5-.1-.4-.5c-.2-.2-.5-.8-.6-1.4-.1-.8 0-1 .4-1.5.7-.6 1.1-.5 1 .3v.6l1 .1c.8 0 1.5 0 2-.4.6-.4 1.5-.6 2.6-.7 2 0 2.6.4.7.6-1.2.2-2 .6-1.6 1l1.6.2a5 5 0 0 1 2.3.3 3 3 0 0 0 1.9.3c1.5-.3 5.1-.3 5.3 0 .5.3-.5.5-4.2.6l-4 .1-.3.6-.4.5H230c-2.6 0-3.3.1-3.3.4 0 .3 1.1.4 6.6.3 5.6 0 6.7-.1 7.4-.5.5-.2 1.3-.4 2-.4.6 0 1.1 0 1.2-.2.1-.1 1-.3 1.8-.3 1.4 0 1.6 0 1.7-.5.2-.7 1-.7 1.4 0 .2.4.2.5-.4.7-1.3.5-4.4 1.2-5.5 1.2-.6 0-1.2 0-1.4.2-.8.8-18.8 1.3-22 .6-1.9-.4-2.6-.3-4.8.5-.3.2-3.5.4-7 .4-3.4.1-6.2.3-6.2.4 0 .3-2.7.5-8.3.6l-5 .1-.1-.5-.2-.5h-2c-1.5 0-1.8.1-1 .2.5.1 1 .3 1 .5.1.3-7.4.5-7.8.1a391.7 391.7 0 0 1-30.8-.4c-.9-.1-1.2-.3-1.3-.7 0-.3-.4-.5-.7-.5a8 8 0 0 0-3.1.8c-.2.1-.5 1.3-.7 2.6l-1.1 4.8c-.9 2.8-1.9 6.7-1.9 7.4 0 .3.1.3.5-.1.3-.3.5-.6.4-.7 0 0 0-.3.2-.5.2-.3.2-.3.2.1 0 .3-.1.8-.3 1.1l-.6 1.2-2.5 6.6a54 54 0 0 0-3.2 8.7l-1 1.9a42 42 0 0 0-4.6 16.8l-.2 2.1c0 1.9.6 4.3 1.4 5.1.2.3.9 1.3 1.4 2.4 1 2 1.8 3.3 3.3 5 2.3 2.6 3.2 3.5 3.3 3.4l-1-2.2a9.2 9.2 0 0 0-2-3c-.6-.5-1.1-1-1.1-1.2 0-.7-1.8-3.8-2.3-4l-.6-.3v-1.6c0-.8-.1-1.8-.3-2.1a2 2 0 0 1-.1-1.3c.1-.5.2-.6.5-.3.5.4.5.3 1-2.5l.3-2.1.3 1c.2 1.2 0 3.7-.5 4.2-.9.8-.5 3 .5 4 .2.1.5 1 .8 1.8.4 1.7 1.5 3.4 2.1 3.3.3 0 .8.6 1.4 2 .8 1.6 1.1 1.9 1.7 2 .5 0 .7.2.9.7 0 .5.3.6.8.6.3 0 .6.2.6.3 0 .2.2.3.3.3.5 0 .3-.5-.4-.8-.6-.3-1.1-1.2-1-1.6 0-.1-.2-.3-.6-.4-.4 0-.7-.4-.9-1.4l-.9-2.3-.7-1.5c-.4-.8-.3-1.2.1-.6l.4.5.2-.5-.1-1.3c-.2-.4-.3-1.1-.3-1.5 0-.4-.3-1.5-.7-2.4-1.2-2.7-1.6-1.2-.6 2.3.6 2 .5 2.6-.3 1.8-.4-.4-.5-1-.6-2.2a43.6 43.6 0 0 0-.9-6.3s.5 0 1 .3l.8.4-.2-.6-.3-1.8c0-.6-.3-1.2-.4-1.3-.2-.2-.2-.4 0-1 .2-.4.2-1.5.2-2.6-.3-3.5-.3-4 0-4.4.6-.5 1.2 2.1.8 3.6-.2 1-.2 1.9 0 3.5l.4 3.9c0 1 0 1.8.2 1.9l.6 2c.3 2.1.8 3.2 1.4 3.2.2 0 .4.4.6 1 .2 1.4 1 3 1.6 3 .2 0 .5.4.7 1 .6 1.2 1.2 1.8 1.8 1.8.2 0 .5.3.6.5.2.6 1.1 1.7 1.5 1.7l.3-.6v-.6l.2.5c.4 1.2.9 2 1.3 2 .6 0 .8.5.8 1.7 0 .4.2 1 .3 1.1.3.3.3.4 0 .4-.1 0-.3-.1-.3-.3l-.6-.4c-.4 0-.7-.4-.8-.9-.2-1-1.2-2.1-1.8-2.1-.3 0-.8-.5-1.3-1.2s-1-1.2-1.3-1.2c-.3 0-.7-.5-1.2-1.5-.4-1-.9-1.5-1.3-1.7-.3-.1-.7-.6-.9-1-.2-.5-.4-.9-.6-.9-.3 0-.3.6.2 1.4.2.3.3.9.3 1.2 0 .4.2.6.4.5.3-.2.4 0 .4.3 0 1.2 1.3 3.6 1.8 3.4.2 0 .4.4.7 1.7.4 1.4.6 1.8 1.3 2.3.5.4 1 .6 1.1.6v-1.2l-.1-1.3.4.4a22 22 0 0 1 2 3.4c1.7 3.4 2.1 4 2.7 4 .4 0 1.3 1.6 1.3 2.2 0 .5 1.5 3.3 2.4 4.5.4.5.7 1 .7 1.3 0 .4.8.2 3.5-1 1.2-.5 2.6-.9 3-.9a6 6 0 0 0 2.2-.7 244 244 0 0 1 3.3-1.9l1.3-1.1c3.8-2.6 7.6-6.3 7.6-7.3 0-.2.4-.4.8-.5.4 0 1-.5 1.3-1 .6-1 .9-2.8.4-2.6-.5 0-.4-.2.4-1.4 1.3-1.9 1.4-2.2 1-2.8a3 3 0 0 0-1.2-1c-1.4-.5-.9-1 1-1l1.6.1v-1.1c0-1 0-1.3-.7-1.6l-.6-.5.1-1.4c.2-1.4.6-2 1-1.6 0 .2.6.3 1.2.3h1l.2-.7c.2-.7 0-1-.3-1.4-.6-.7-.7-1.7-.2-2 .3 0 .4-.4.4-.7 0-.8-.7-2.3-1-2.1l-.6 1.6-.5 1.6c-.1 0-.3.5-.3 1v.8l-.2-.6c-.2-1-1-1-1.3 0-.2.5-.7 1.1-1 1.5-.3.4-.8 1.4-1 2.2-.5 1.1-.7 1.4-1.1 1.4-.4 0-1 .3-1.6 1.2-2 2.3-9.3 10-10 10.4-1.2.6-.6-.3 1.5-2.3 2.1-2 3-3.1 3.4-4.6.1-.5.2-.5.2-.2 0 1 .8.4 4-3.4 2.4-2.6 3.5-4 3.9-5.2.5-1.5 1.6-3.4 1.8-3.2l.1-.6c0-.7.4-1 .6-.4.2.5 1.3-1.4 1.3-2.2v-.6l-.4.5c-.6.8-.5 0 0-1.2.4-.8.9-2.6 1-4.3 0-.3-.1-.6-.4-.6-.4-.1-.9.8-2 4.1-.2.8-.5 1.4-.6 1.4a35.4 35.4 0 0 1-7 11.7c-1.3 1.1-1.4 1.1-.8-.3.5-1.1 1.4-2.2 1.9-2.2.3 0 1.7-1.7 2.6-3.2a29.5 29.5 0 0 0 2.8-6l.2-.4c0-.8-.5-.4-1.3 1l-1.1 1.5c-.5 0-.4-.1 2.4-4.7 2-3.3 3.2-8.4 1.7-7.9-.3.1-.2 0 .2-.6.3-.5.7-.8.8-.8.3 0 .3 1.4 0 2.7-.2 1 0 1.7.6 1.4.3 0 .6.1.9.6.6 1.1 1 1 1.4-.2.1-.6.5-1.3.8-1.7l.5-.6v.6c0 .3-.1.9-.3 1.3-.2.5-.2.7 0 1 .7.8 1 .5 1-1 0-1 .1-1.5.6-2.2.8-1 .7-2-.2-2-.3 0-.7-.2-.8-.4-.4-.6 1-3.1 3-5.2.9-1 1.8-2.3 2-2.7.3-.7.6-1 1.4-1.2a5.7 5.7 0 0 0 3.5-2.7l.8-1.3.8.2 1.1.1c.4 0 .3.2-.1.7l-.6.6.5.1c.7.2.7.4 0 2-.4 1-.2 1.3.6.8s3-4.6 2.8-5c-.2-.5-.9-.4-1.5.2-.3.2-.5.3-.6.2-.1 0 .5-.6 1.3-1l2.5-1.9c.8-.7 1.2-.9 2.2-.9h1.1l1-1 1.2-1.8c.2-.4.4-.6.7-.6.4.1.5.4.5 1.3v1.2h.7c2.2-.2 4.8-.2 5 0 .2.2-.6.3-2.4.3-2.5 0-4.2.4-4.6 1-.2.4 1.3.8 1.7.6 0-.1.3 0 .5.2.3.3.1.5-.6 1.1-1 .8-1.3 1.4-.6 1.4.4 0 2.8-1.4 3.6-2.1 1.8-1.7 4.2-3 5.7-3 .3 0 .8-.2 1.2-.6.4-.4.9-.6 1.1-.5.6.2.6.7 0 1.3l-.6.8c0 .2-.5.6-1 1-1.5.7-1.7 1-.4 1 3.6-.6 3.8-.6 3.8-.2 0 .2-.1.5-.3.6-.5.3.5.6 2.2.6a9 9 0 0 0 4-1c1.2-.4 2.4-.8 2.5-.7.3.3-.6 1.5-1.4 1.9l-1.2.6a5 5 0 0 1-1.4.5l-1 .1.8.5c.4.3 1.7.8 2.8 1.2 1.1.3 2.4.8 2.7 1 1 .7.4 1-1 .6-.8-.3-2-.4-4.6-.4h-3.4l2.4.3c3.7.3 7.3 1.5 6.6 2.2l-.9-.1c-2.6-1-7.6-1.2-10.4-.3-1 .3-2 .7-2 .9a24.1 24.1 0 0 1 12.1 0c.6-.1 1.5 0 2 .3 1 .5 2.8 2.4 2.6 2.8-.3.4-1.6.3-2.1-.3-1.4-1.5-7.6-3.1-7.6-2 0 .2-.1.4-.3.4-.6 0-3.1.9-3.1 1 0 .2.4.4 1 .5.5.1 1.1.5 1.5.8.3.3 1.5 1 2.7 1.4a62 62 0 0 1 3.7 1.6c2 1 3.3 1.3 3.3.7 0-.4-1.2-1.5-2.3-2l-1.8-1.5c-1-.9-1.5-1-2.9-1.2-1.5-.2-.8-.6 1-.7h2l1.7 1.2c1.8 1.4 2.7 1.5 5 .7 1.5-.6 2.1-.6 2.2 0 .1.3-.2.6-1.3 1l-2.1.9c-.8.2-1 .9-.3 1.4a8 8 0 0 0 3.8 1c1.2 0 3.5-.7 4-1.2.1 0 .1-.8 0-1.6a96.1 96.1 0 0 1-1.6-14.2v-.5l.2.5A87 87 0 0 0 242 97c.6 3.7.8 4.1 1.7 4.1.7 0 .7 0 .3.3-.9.5-1 1.1-.6 3.3a406.5 406.5 0 0 1 2 12.7c-.3-.2-.3 0-.2.8.2 1.5 3.3 6 4.4 6.5.5.1 1 .7 1.4 1.3l2.8 3.3c2.6 3 2.5 3.7-.2 1-2.2-2.1-2.8-1.9-.9.5.4.4.6 1 .6 1.1 0 .2.2.5.5.7.6.6 1 1.3.5 1.3-.4 0-1.2-1-2.4-3.5-.7-1.4-1-1.7-1.6-1.7l-.7-.1.1-1 .2-1-1-1c-.7-.9-.9-1-1-.7-.4.4.1 1.6.8 2.1.5.5.5 1 0 .7l-.8-.3-.5-.2.2 1.3c.2.8.1 1.4 0 1.6-.5.4-.2 1 .6 1.4 1.2.6 1.4.4 1.4-.9 0-.7.2-1.2.3-1.2.2 0 .3.4.2 1.2 0 .8 0 1.3.3 1.6.3.3.3.4 0 .8-.4.5-.1.9 1.2 1.5l1.3.7c.3.5-.6.5-1.4 0-1.5-.9-1.6-.7-1.6 1.6 0 2.2-.1 2.5-1.2 1.9-.4-.2-.7-.3-.8-.2l.5 1.5c.8 1.7.9 2.1.3 2.1-.5 0-1.2-.8-1.9-2a16.8 16.8 0 0 0-3.5-4.7c-.5-.3-.8-.6-.8-.8l-.2-.4c-.1 0-.9-.5-1.6-1.2-1.6-1.4-2-1.5-1.8-.5.4 1.8 3.4 5.9 4 5.6.1 0 .6.6 1 1.5.5.9 1.5 2 2.2 2.7 1.3 1.1 1.4 1.7.2 1.7-.5 0-.7.2-.8.5-.2.8-2 .6-2-.1 0-.3-.6-.4-2.4-.5-2.7 0-4.3.4-4.3 1.3v.5h2.4c1.8.1 2.5.2 2.6.5.2.7-.6 1-3 1.2-2.4.3-2.8.2-2.5-.4 0-.2-.1-.5-.5-.7-.9-.4-1.9.1-1.6.8 0 .4-.1.6-1.2 1-1.4.4-2.5.3-2.3-.3.1-.2-.1-.7-.5-1l-.6-.8-.4.5c-.3.3-.4.7-.3 1 .3.7.2.8-.8.8-.6 0-1.2.1-1.3.3 0 .2-1 .9-2 1.6-1.4 1-2.2 1.3-3.1 1.4-.7 0-1.6.3-2 .6l-1.3.6c-.9.3-4 2.1-4 2.4 0 .5 2.9-.5 3.9-1.4.8-.7 3.3-2 3.7-1.8.2 0 .2.5.2 1-.1.8-.3 1-.7 1.1-2.8.6-4 1-6.1 2-1.4.6-3 1.2-3.6 1.3-.7.2-2 .6-2.8 1l-2 .7c-.1 0-.6.1-1 .4-.5.2-.8.3-.8 0l-.4-.2c-.3 0-.4.2-.3.4.2.6-.6.8-4 .6-.6 0-1 .1-1.3.4-.3.5-1.2.6-1.5.3l-.8-.2c-.4 0-.6-.2-.6-.7l-.1-.9c-.3-.2-2.6.9-2.7 1.3-.2.3-.6.4-1.6.3-.8 0-1.5 0-1.5-.2l-1.1-.3c-.8-.2-1 0-1.4.3-.5.6-1.6.8-1.9.3-.2-.4-1-.3-1 .1 0 .5-.2.5-1.9.4-.6 0-1.2.2-1.5.5-.5.4-1.3.5-5 .8-2.7.1-4.6.2-5 0h-1.3c-.2.2-2.9.4-5.9.5a125.6 125.6 0 0 1-23.9.7zm14.8-.4h-.5c-.2 0-.2.1.1.1.3 0 .5 0 .4-.1zm-9-1.2c0-.3-2-.3-5.2 0l-2.3.2h3.8c2.3 0 3.7 0 3.7-.2zm-22.3-.2c.3-.5-1.5-.8-2.4-.4l-.5.2.5.2c.7.3 2.2.3 2.4 0zm-5.7-.4c0-.3-5.2-.2-5.4.1-.1.2.8.3 2.6.2 1.5 0 2.8-.1 2.8-.3zm31.2-.3h-1 1zm-29.7-.7-.7-.2c-.3 0-.3 0 0 .2.5.4.9.4.7 0zm49.2-.2c.2-.4-6.7-.7-12-.6-3.6.1-3 .3 2 .6 5.6.3 9.8.3 10 0zm13.4-.8c.3-.4-1.6-.5-3.6-.3-.3 0 0 .2.8.3 2 .3 2.7.3 2.8 0zm-5.2-.3c0-.1-.3-.2-.9-.2-.8 0-.9 0-.5.2.8.3 1.2.3 1.4 0zm.6-1.3c-.5-.3-2-.3-2.2 0-.1.2.4.3 1.2.3 1 0 1.3-.1 1-.3zm-77.3-.2c-.4-.5-7-.8-8.8-.4l-.8.2 1 .2c1.7.2 8.7.2 8.6 0zm6.7-.3c-1.2-.1-2.3-.2-2.4-.1-.4.3.7.5 2.6.3h2zm21.7 0-.7-.6-5.5.1c-7.8.2-9 .7-1.6.7a45.1 45.1 0 0 1 7.2.3h1.2l-.6-.6zm67.3.3c.2-.1.4-.6.6-1.1.3-.7.3-1 0-1.1-.5-.3-.7 0-.5.5.2.4.1.6-.6 1-.5.2-.9.5-.8.6.2.3 1 .4 1.3.1zm12.9-.4c1.1-.3 2-.6 2-.8 0-.2-3.1-.2-4.6 0-1.3.3-1.8.7-1.6 1.1.3.5 2 .4 4.2-.3zm-92.8-.5c2.3-.2 4-.5 4-.6-.2-.6-2.1-.7-6.2-.5-3.5.2-4.1.3-4 .6a42 42 0 0 1 .2 1.2l1-.2a57 57 0 0 1 5-.5zm69 .5c0-.2-1.7-.4-1.8-.1 0 0 .3.2.8.2l1-.1zm-7.8-.6c-.3-.3-2.6-.4-2.7 0l1.3.1c.9 0 1.5 0 1.4-.1zm1.8-.3h-.5c-.2 0-.1.1.2.2.3 0 .4 0 .3-.2zm-8.4-.6c0-.1-.1-.4-.3-.4-.6-.3-.8 0-.5.5.1.5.6.4.8 0zm20.9-2c.1-1.5 0-1.7-.3-1.7-.7 0-.5-.8.2-1 .5-.2.7-.6.8-1.3v-1.1l-.2-.7c0-.8-.9-1.2-1.4-.6l-.5.5.5.4c.7.5.6 1.3-.5 3.2-1 1.6-1.1 2.2-.5 2.2.2 0 .4.3.5 1 .3 1.6.4 1.8.8 1.3.2-.2.5-1.1.6-2.1zm10.2 1.7c0-.4.3-1 .6-1.4.4-.4.6-.9.6-1 0-.4-1.4 0-2.2.5-.8.5-1 1.7-.1 1.7.3 0 .5.1.5.5 0 .3.1.5.3.4.2 0 .3-.4.3-.7zm-127 0c0-.1-.2-.2-.4-.1-.1 0-.2.3 0 .4 0 .1.2.2.3.1.2 0 .2-.3.1-.4zm3.9 0c0-.4-.7-.6-1.3-.4l-.4.2.5.2c.7.3 1.2.3 1.2 0zm66.7.1h-.8l.4.1h.4zm68 0c.2-.2 0-.3-.4-.3s-.7 0-.7.2.2.3.5.3.6-.1.7-.3zm-84.3-.5.9-.3h1l.7-.2-.5-.1c-.5-.2-4.4-.1-6.5.1l-1.2.2.5.3c.8.6 4.2.5 5 0zm30 0c-.4-.1-.6-.1-.8.1-.3.2-.1.3.6.3h.9zm25.5.2c0-.2-.5-.3-.9-.3s-.8-.1-1-.3c0-.2-.5-.2-1.3 0l-2.6.1c-3.7.1-4.6.2-4.6.5 0 .1 2 .2 5.3.2 3.5 0 5.3 0 5.1-.2zm-64.5-.8c1 0 1.8-.3 1.8-.4-.1-.5-3.9-.6-7.6-.4a310.7 310.7 0 0 1-9 .6c-1.4.2-1.5.3-.8.4.9.2 12.8 0 15.6-.2zm77.2-.6c.2-.3-1-.6-1.6-.4-.4.2-.4.2 0 .4.4.4 1.4.4 1.6 0zm-28-1-.2-.6-.2.4c-.4.6-.1 1 .4.8.3-.1.3-.3 0-.7zM97 153c7.8-.4 9.2-.5 9.7-1 .4-.5 1-.6 3.5-.8a15 15 0 0 0 2.8-.3c-.2-.1-5.1 0-7.7.1-1.4.1-2 0-1.7-.1.5-.3 3-.5 6.3-.6 1.4 0 2.4 0 2.4-.2 0-.4-2.2-.4-7.5 0-8 .7-8 .8-8.6 1.5-.7.9-2.8 1.2-4.7.7-1.5-.4-2.5-.5-3-.2-.4.1-.4.2 0 .8l.6.6 2.8-.1 5.1-.3zm41.5-.2c1-.4-3-.6-11.4-.7-4.7 0-7.2.1-7.5.3-.4.2 0 .3 1.8.3 1.4 0 3.1.2 4 .3 2 .3 12.2.1 13.1-.2zm64.9-.7c1-.6 1-1.8.2-1.8-.4 0-.8-.2-1.1-.4-.5-.4-.6-.4-.8 0a3 3 0 0 0-.2 1.1c0 .5-.1 1-.3 1l-.2.6c0 .5 1.4.3 2.4-.5zm-51.1-.2-.4-.5a56.7 56.7 0 0 0-10-11.5c-1-.8-1.5-1.5-1.5-1.9 0-.3-.2-.7-.4-.8-.4-.5-1.2-.4-1.2.1 0 1.2 4.2 6 7.2 8.2 2.7 2 4.4 4.2 2.8 3.8-1-.2-.5.5 1 1.8 1.3 1 2.5 1.4 2.5.8zm-64.6-.5c0-.2-.1-.3-.3-.3-.1 0-.2.1-.2.3l.2.3c.2 0 .3-.2.3-.3zm98.7 0c0-.5-.8-.6-5.4-.7-3.4 0-4.6 0-4.4.2.1.2.8.4 1.4.5 1.8.2 8.4.2 8.4 0zm-48.6-.5c.3-.4-.5-.5-4.3-.7-6.6-.4-15.6-.4-15.8-.1-.2.4.4 1 .6.6.2-.3 16.7 0 17 .3.2.2 2.4.1 2.5-.1zm-40.7-.7c0-.4-1.8-.5-2.2-.1-.4.2-.4.3-.1.4.4.3 2.3 0 2.3-.3zm8.1-.6.8-.1-1.2-.6-1.2-.7-1.7.3c-1.2.1-1.5.2-1 .4.4.1.5.3.4.6l-.1.5h1.6l2.4-.4zm91.6 0c.4 0 .9 0 1.2.2.7.3 1 0 .7-1-.1-.6-.4-.9-1.3-1.2-1.5-.6-1.6-.6-1 .4l.7.8-.5.4-.9.3-.3.3c0 .2.2.2.4.2l1-.4zm-53.4-.6a55.6 55.6 0 0 1-6-.8c-1-.1-2.2-.2-2.6-.1l-.7.2.7.2 2.5.2 3 .3c1.8.3 3 .3 3 0zm60.8-.1c.2-.5-.3-.9-.6-.4-.2.4-.1.8.2.8.2 0 .3-.2.4-.4zm-29.8-.5c.1-.4 0-.5-.3-.4-.3 0-.6.3-.6.6s0 .4.4.4c.2 0 .5-.4.5-.6zm4.1 0 .5-.3 1.5.4c.7 0 1.5.3 1.9.4.4.1.6 0 .6-.3 0-.2-.3-.4-.8-.5l-1.5-.6c-.7-.3-1-.4-1.2-.1-.2.1-.7.2-1 .1-.3 0-.7 0-1 .2-.1.1-.6.2-1 .1-.5 0-1 0-1.3.2l-.6.4.5.2h1c.5-.3.7-.2 1 0 .5.6 1 .5 1.4-.1zm-45.4 0c.4-.4-1.8-.5-7.8-.3-3.6 0-6.6.2-6.7.4-.2.1 2.3.2 7 .1 4 0 7.4 0 7.5-.2zm15-.5c0-.2-.8-.9-1.6-1.5-2.7-2-3.2-1.8-1.1.4.9 1 1.5 1.4 2 1.4.3 0 .6-.1.6-.3zm-32.9-.7c0-.2-.2-.4-.5-.4-1.1-.4-.4-.7 1.5-.7 2 0 3-.3 2.5-.6-.3-.2-6 .2-7.8.6-1.3.3-1.4.5-1 1 .5.4 5.3.4 5.3 0zm-57.3-1c2.4 0 3.7-.3 4-.5.4-.2.7-.3.7-.1 0 .1.2.2.5.2.6 0 .7-.2.2-.7-.3-.4.5-.8 3-1.6 1-.4 1.9-.8 2-1 .2-.3-3.5 0-7 .7l-2.6.5-.8 1-1 1h-3.7c-4.6 0-4.4 0-3.6.5.5.3 1.2.4 2.8.3l5.5-.3zm143.1 0c.1-.2 0-.4-.3-.4-.6 0-.9.4-.6.7.3.3.8.1 1-.3zm-94.2-.1c.5-.2.3-.2-.8-.2a7 7 0 0 0-2 .2c-.7.3 1.8.3 2.8 0zm92 0c.9-.3 1-.4.8-.7-.4-.4-2.3-.5-3.3 0l-.8.2.8.4c1 .4 1.3.4 2.6 0zm29.8-.4c.2-.3.4-.5.3-.6-.2-.1-1.5.5-1.5.8 0 .3.7.2 1.2-.2zm-99.5-.1c0-.2-.4-.3-.7-.3-.2 0-.5.1-.5.3 0 .1.3.2.7.2.4 0 .6 0 .5-.2zm-23.9-.6c1 0 1.8 0 1.8-.2s-2.8-1-3-.7l-2.4.3c-1.2 0-2.2.2-2.2.2-.3.3 1.8.7 2.8.6l3-.2zm5-.1c0-.1-.2-.3-.5-.3-.6-.1-.7.2-.4.5.3.3 1 .1 1-.2zm83.9.2c0-.3-1.9-.6-3.5-.7-1.6 0-1 .5.6.7 2.8.2 2.9.2 2.9 0zm40.7 0c0-.4-1.1-2-1.4-2-.7 0-.7.8 0 1.5.5.6 1.4 1 1.4.5zm-96.2-.6c1-.2.6-.3-2-.3-1.2 0-2.3.2-2.4.3-.3.3 3.3.3 4.4 0zm35.8-.2c.1-.2 0-.3-.2-.3s-.4.3-.5.5c0 .2 0 .3.3.2.2 0 .4-.3.4-.4zm-60.8 0h-.5c-.3.1-.2.2.1.2.3 0 .5 0 .4-.2zm115.1 0c.7-.5 0-.8-1.2-.7-1.2.2-1.5.5-.7.7.8.2 1.5.2 2 0zm-111.9-.3c0-.2-.2-.3-.5-.3s-.6.1-.7.3c0 .1.2.2.5.2.4 0 .7 0 .7-.2zm82.2-.4v-.5h-1.8c-1 0-2 .2-2.2.3-.4.2-.3.3.8.4l1.6.3h1c.4 0 .6-.1.6-.5zm37.5.1c0-.1-.3-.3-.5-.3s-.4.2-.4.3c0 .2.3.3.6.3s.4-.1.3-.3zm-139.2-.3c-.6-.2-1-.2-1.2 0-.2.2 0 .3.9.3h1.2zm7.4-.5c5.2-.4 4.7-.6-1.4-.6-4.3 0-4.7 0-4.7.5s.5.6 1.7.5l4.4-.4zm23.2.3c0-.2-.1-.3-.4-.3-.2 0-.4.1-.5.3 0 .1 0 .2.4.2.3 0 .5 0 .5-.2zm46 0c0-.3-.7-.7-.9-.5-.2.3.2.7.6.7.2 0 .4 0 .4-.2zm71.9 0c.2-.4-5.9-6.4-6.5-6.4-.4 0-.5.2-.3.9.2 1 1.6 2.6 3.4 3.7 2 1.3 1.9 1.6-.4.7-.6-.3-.9-.3-1.1 0-.4.4.4.8 2.2 1 2 .4 2.5.4 2.7.1zm-173.3-.7 3.4-.6c.4 0 .7-.2.7-.3 0-.2-.3-.3-.9-.2-.4.1-1.8.3-3 .3-3 .2-4.6.8-3.4 1.3.4.2.3.2 3.2-.5zm158.3.1c0-1.3-1-2-2.1-1.2-.7.5-.6 1 .1 1 .3 0 .8.2 1.1.4.7.5 1 .5 1-.2zm7.1.4c.9-.2.8-.5-.6-1.3-.8-.5-1.3-.6-1.5-.4-.4.4 0 1.4.7 1.6.7.3.7.3 1.4.1zm-190.1-.6c.8-.4 5.5-1.3 6.8-1.3.2 0 .3-.2.3-.4 0-.3-1.4-.4-9.2-.4-8 0-10.3.1-9.8.6l3.3.5 5 1c2.4.6 2.5.6 3.6 0zm45.7-.2v-.2c-.2-.2-3.4.2-3.3.4.1.2 3 0 3.3-.2zm101 .3-4.1-1 .3.6c.3.5.6.6 2.2.5 1 0 1.7 0 1.6-.1zm9.4-.2-.8-.6c-.4-.2-.5-.4-.4-.4.2 0 .4 0 .4-.2s-1-.3-2.4-.3h-2.4l-1.9-.8c-1.3-.6-2-.8-2.6-.6-.9.1-.9 0-.5 1 .2.7 1.2 1 1.7.4.4-.4 3.3.2 3.3.7 0 .4 0 .4 2.3.4 1 0 1.7 0 1.7.2s.3.3.8.3l.8-.1zm23.6-.8c-.2-.5-1.6-1-2.1-.9-.6.3-.3.5.8.9s1.5.4 1.3 0zm12.7.2c.7-.2.5-.8-.4-1.5-.9-.8-1.7-.9-2.5-.3l-.5.3.4.4c.5.5 1.9 1.3 2.3 1.3l.7-.2zm-33.6-.5a1 1 0 0 0-.7 0h.7zm7-.1c0-.2 0-.3-.2-.3s-.3-.2-.3-.4c0-.5-.3-.7-.8-.4-.3.2-.3.3.2.8s1.2.7 1.2.3zm19-1.1c-.2-.7-.1-1.3.1-1.7.3-.5.3-.8 0-1.4-.5-1.2-.8-1.4-2-1.1-1 .3-1.2.7-.4 1.2.5.3 1.3 2.4 1.3 3.3 0 .5.6 1 .9.9V140zm-140.1.8c.4-.1-.2-.2-1.7-.2-1.6 0-2.2 0-1.9.2.7.3 2.7.3 3.6 0zm25.7-.4-1-.3c-.3.3.5.7 1.2.7h.7l-1-.4zm-14.9-.2c-.5-.5-5.7-.6-7.4 0l-1.4.3H99c3.5 0 4.6 0 4.3-.3zm10.1 0c.6 0 1 0 1-.2 0-.3-1.5-1-2.7-1.2l-.8-.2.6.6.7.6-1.3-.1c-1.1-.2-1.2-.2-1 .2.4.4 1.3.6 2 .4h1.5zm67.4-.6-.8-.4-.8-.2.3.4c.3.3 1.3.5 1.3.2zm24.9-.3c-.1-.3-.4-.5-1.1-.6-.7 0-1-.1-.8-.4.2-.5 0-.5-1.9 0-2.5.9-1.8 1.4 1.8 1.4h2v-.4zm-3.6-.3c.1-.2.4-.3.6-.3.2 0 .4.1.4.3l-.6.2c-.3 0-.4-.1-.4-.2zm35.4.2c.6-.8.5-1.1-.5-1.3-.5-.1-.6-.2-.4-.4.2 0 .3-.4.3-.7 0-.4.2-.5.7-.5.8 0 .8-.4.2-1.1-.5-.5-1.3-.6-1.5-.2-.2.2-.3.2-.6 0-.3-.3-.5-.3-1.1 0l-.8.3.1 1.2c.2 1.4.5 1.9 1.4 2.2.3.1.6.4.6.6 0 .6 1 .5 1.6-.1zm-26-.4c0 .2 2.7-.7 3.3-1l.6-.3-1.2-.2-2.4-.4-1.2-.1.5.4.4.7c0 .4-.8.6-1 .3-.3-.2-1-.3-1.7-.3h-1.3l.6.6c.7.8 1.5 1 2.6.5l.8-.2zm-166.8.2c.4-.2.1-.3-1-.3a7 7 0 0 0-1.9.3c-.4.1-.1.2 1 .2a7 7 0 0 0 2-.2zm97.5-.2c-.2-.2-.4-.4-.6-.4-.1 0-.1.2 0 .4l.7.4c.1 0 .1-.2 0-.4zm-27.1-.7v-.9l-1.5.1c-1.2 0-1.5 0-2-.4-.3-.5-.7-.6-1.7-.6-.7 0-1.3.1-1.4.3-.2.2.2.4 1.8.6a9 9 0 0 1 2.4 1c1.8 1 2.4 1 2.4-.1zm10.8.6c0-.2-.3-.3-.5-.3s-.4.1-.5.3c-.1.1.1.3.5.3s.6-.2.5-.3zm121.6 0-.7-1c-.8-.8-1.2-.4-.5.6.4.6 1.2.9 1.2.4zm-54.5-.3c0-.2-.8-.6-1-.4 0 .1 0 .3.2.4.5.3.8.4.8 0zm4.5 0c-.3-.2-.3-.3.1-.6l.5-.3-.4-.4c-.4-.3-.6-.3-1.5 0-1.1.4-1.4.9-.6 1.3.6.4 2.5.4 2 0zm31.1 0-.4-.2c-.1 0-.3 0-.3.2s.2.3.5.3c.2 0 .3-.1.2-.3zm-177-.2a1 1 0 0 0-.7 0c-.2.1 0 .2.3.2.4 0 .5 0 .3-.2zm74.4-.2c1.3-.3.5-.6-1.6-.6-2.4 0-3.4.2-3.2.5.2.3 3.9.3 4.8 0zm10.5-.5c0-.3-1.6-.5-2.2-.3-.3.2-.3.3.2.4.9.3 1.9.2 2-.1zm-83.7-.4 4.6-.5v-.3c-.2-.4-1.5-.3-2.7.1-.5.2-2.3.4-3.9.5-1.6.1-3 .3-3.3.5-.6.3.3.3 5.3-.3zm68.2.1c.5-.2 1.5-.4 3.3-.4 1.4 0 2.6 0 2.6-.2 0-.4-.6-.5-3.9-.3-3 .2-4.5.5-4.2 1 .2.5 1.3.4 2.2 0zm128.1-.6.2-1.2c.5-.6-.2-2-1.4-2.9l-1.5-1c-.3 0 .2.9.8 1.5 1 .8.7 1.2-.3.8-.7-.2-1-.5-1.3-1-.8-2-3.4-3.9-3-2.1l.4 1.7c.1.5.5 1.3.8 1.7 1 1.4 3 2.6 2.6 1.6v-.7c.3-.3.3-.3.3.2 0 .9 1.2 2.4 1.9 2.4.4 0 .5-.2.5-1zm-205.5.6h-.8c-.3 0-.1.1.3.1.5 0 .7 0 .5-.1zm41.6-.1c0-.1 0-.3-.3-.3-.2 0-.4.2-.4.3 0 .1.1.3.3.3l.4-.3zm10 0c0-.3-1.1-.6-1.3-.4-.1 0 0 .2 0 .4.2.3 1.2.4 1.2 0zm124.5 0c0-.1 0-.3-.2-.3s-.3.2-.3.3c0 .1.1.3.3.3l.2-.3zM75 136.6l1-2 .6-1.7c-.2-.2-1.4 1.2-1.9 2.3l-.7.9c-.4.1 0 1 .4 1 .3 0 .5-.2.6-.5zm71.4.3-.1-.5c-.2 0-.3 0-.3.3 0 .5.2.5.4.2zm40.6-.4-.8-.2c-.3 0-.2.1.1.4.3.2.7.3.8.2.1 0 .1-.2-.1-.4zm-104.2-.8.7-2.7c.1-.9.6-2.2 1-3 1-2.2 2.5-6.3 2.5-7.2 0-.8-.3-.4-1.5 2.3-1.4 2.7-2 4.5-2 5.8 0 .3-.3.9-1.2 2.8-.6 1.1-.8 2.6-.4 3 .4.3.6 0 .9-1zm-3 .6c0-.1 0-.3-.2-.3l-.4.3c0 .2 0 .3.3.3.2 0 .4-.1.4-.3zm35.8 0c0-.3-.8-.3-1.3 0-.3.2-.2.3.4.3.5 0 .9-.1.9-.3zm-23.3-1c0-1 .1-1.2.6-1.4.5-.2.4-.2-.3 0-1.3.1-1.4.3-1.3 1 .1.4 0 .6-.4.8-.7.2-.3.6.6.6h.8zm5.8 0c.9-.7 1.2-1.3 1.8-3.4 0-.5.2-.6.7-.3.7.4 1 0 1.2-2 .1-.9.7-2.8 1.2-4.3a159.5 159.5 0 0 0 3.6-10.8l1.6-5c.6-2 1-6.8 1-10.3 0-2.1-.4-4.2-.8-4.2l-.2-.4V94l-.3.4-.2 4.3c0 4-.5 7.7-.9 7.5l-.2-1.2v-1l-.4 1.4-.6 1.8-.3.6v-1.2c0-.6-.1-1-.3-1a12 12 0 0 0-2.4 3l-.5.9-.6.6.2-.6c.1-.4.6-1.2 1-1.8.6-.6 1-1.2 1-1.3l1-2c.6-.9 1.2-2 1.4-2.6l.7-1.4c.3-.4.4-1 .2-4.2 0-2.4-.3-4-.5-4.3-.2-.3-.4-1.2-.5-2-.3-1.7-.6-2.4-2-4l-1.1-1.2.1.8c.1.5.5 1.3.9 1.8.5.8.7 1.5.8 3.2.3 3 .3 7.4 0 8-.2.7-.3.3-.2-2 0-1-.1-1.8-.3-2-.1 0-.3-.4-.3-.7 0-.4 0-.3-.2.3l-.2 4.3c0 1.9 0 3.3-.1 3.2-.1 0-.2.1-.2.3 0 .8-1 3.6-1.2 3.6v-.5c.5-2 1.2-5.8 1.2-7.5 0-2.1-.4-2.7-.7-1.1l-.6 1.9-.4 1 .2-1.4-.1-1.4c-.8 0 .3-4 1.2-4.6.5-.4.6-.7.6-2.1v-1.7l-1.4-2.7a18.2 18.2 0 0 0-3.7-5.3 25.1 25.1 0 0 0-5.9-5l-3.2-2.5c-1-.8-2-1.6-2.5-1.7l-2.4-1.1c-1.7-.8-2.8-1-3.3-.5-.2.3-.4.2-.8-.1-.7-.6-5.2-.8-5.2-.2 0 .3.4.5 1.6.6 2.6.3 8.3 2.8 8.3 3.6 0 .5-.7.3-2.3-.5l-3.7-1.5-2.2-.7-1.2.5C74 72 74 72.4 76 73c1.4.4 2.3 1 2.3 1.7 0 .4-.3.4-2-.1-2.5-.8-3.7-1.2-4.1-1.6-.5-.4-1.2-.3-1.4.3-.1.2 0 .4.5.5.3 0 1 .6 1.7 1 .6.6 1.4 1 1.8 1.2.4 0 1 .3 1.5.4 1 .4 4.9 3.3 5.4 4l1.2 1.5c1.1 1.2 2.2 4.5 2.7 7.8l.2 1.3.2-.6c.3-.7.2-3-.2-4.3-.1-.6 0-.8.2-.8.3 0 .5.2.6.3.3.4.2 6.4-.1 8.4-.2 1.7-.2 2 .1 2.4.5.6.5 1.3.2 1.5-.4.2-.4 1 0 1 .5 0 1.3-2.4 1.4-4.3 0-1 .2-2.2.3-2.5.5-.8.7-3.8.4-4a18.7 18.7 0 0 0-2.9-8.5c-1.6-2.5-2.3-4.2-2-4.4.2-.1.6.5 1 1.2l2.4 4.3c.4.6 1 2.3 1.5 3.8l1 2.8-.1 4c0 2.2-.2 4.6-.4 5.3-.3 1.6-1.3 4.3-1.6 4.5-.4.3-.3 1.2.2 1.2.3 0 .4.2.3 1.4-.1.9 0 1.6.2 2 .3.6.3 1 .1 1.3-.4.8-1.5 4.4-1.7 5.5 0 .6-.3 1.4-.5 1.8-.5 1-1 3.8-.7 4.5l.2.5.4-1c.3-.5.5-1.2.5-1.4 0-.4.4-.5.6 0l.1-.3c0-.4 0-.5-.3-.4-.2.1-.1-.1.1-.5.3-.4.5-1 .5-1.2 0-.4.2-.6.4-.6.4 0 .4-.2.4-.9-.1-.5 0-1 .1-1 .2-.1.5-.7.7-1.3.2-.6.6-1.4 1-1.7 1.2-1.2 2.1-5.4 1.2-6l-.4-.4.7-.4c.5-.4.7-.7.7-1.4v-.9c.2.1.5 2 .5 2.6 0 .2 1 .7 1.4.6 0 0 .1.4 0 .8-.1 1 .7 2.3 1.2 2 .4-.3.4-1.2 0-1.4-.1 0 0-.6.5-1.3.6-1 .6-1.3.4-2-.2-.3-.3-1-.3-1.6 0-.5 0-1.2-.3-1.5-.2-.5-.2-.6.1-.6.2 0 .5.1.6.3.4.7.6-.4.6-4.5v-4.6l-.6-1.6c-1.2-3.3-1.8-5-1.7-5.8 0-1.3.6-.7 1 1 .1.8.6 2.2 1 3.1.6 1 1 2.4 1.1 3.3.3 2.1.6 2.5 1.3 1.6l.5-.6.2.5c.1.3 0 1.8-.1 3.4-.2 1.5-.3 3.1-.2 3.5v.7c-.2 0-.3.2-.3.4 0 .4 0 .4.3.1.6-.5.6.2-.2 1.9-.4 1-.6 1.7-.5 2.3.1.7 0 .9-.3.8-.8-.1-1.2 1-1 2.4 0 .7.2 1.3.3 1.4.3.6.8-.8.8-2.1v-1.4l.6.1c.7.1.7.8 0 2.1-.4 1 0 2.3.8 2.5.4.1.5.3.4 1-.2.6-.1 1 .2 1.1.3.2.4.4.2 1-.2.3-.2.7-.1.7.3 0 1.6-1.5 1.6-1.8 0-.2.2-.4.4-.4l.4.2-1.6 2.2c-1.8 2.4-2 3.3-.7 3.4.6 0 .8-.1 1.6-1.3.5-.8 1-1.7 1-2 .2-.5.2-.2.1.6 0 1.2-.3 1.7-1.3 3.3-1.4 2.1-1.7 3-1.7 6.8 0 1.4 0 2.2.2 2 .4-.1.4.8 0 2.3l-.3 2.3c0 1.4-.2 1.4-.8.2l-.4-.9.2-3.9.2-4c-.1 0-.4 0-.7.3-.3.4-.4 1.2-.6 5.3l-.1 4.8-.6 1.3c-.8 1.6-1.2 2-1.4 1.1 0-.3-.3-.6-.6-.6-.5 0-.8.2-1.4 1.7-.2.5 1 1.4 1.8 1.4.5 0 1.1-.3 1.8-1zm3.6-11.4c.1-.7.4-1.5.7-2a11 11 0 0 0 1.4-3.7v.2c-.1 2-.7 4.3-1.3 5l-.8 1.3v-.8zm2.5-7.2c0-.4.1-1 .3-1.2l.6-2 .4-1.4v1c0 .5 0 1-.2 1l-.6 1.8c-.3 1-.4 1.3-.5.8zm1.8-7c.1-1.3.4-2.4.6-2.6.4-.3.3.5-.3 3.3-.5 2.4-.7 1.9-.3-.7zm-1.5-.3c.2-.4.4-.5.5-.4.1.5-.2 1.1-.5 1.1-.2 0-.2-.2 0-.7zm-3.5-1.8.4-1.1c.3-.4.4-.6.4-.4 0 .5-.7 1.9-.8 1.5zm3-6c0-.4 0-.8.2-.9.2 0 .3.2.3.7 0 .4-.1.8-.3.8-.1 0-.3-.3-.3-.7zm-9.8-1.1c0-.8 0-1 .1-.6v1.3-.7zm6.6.6c0-.1 0-.3.2-.4.2 0 .3 0 .3.3 0 .2-.1.4-.3.4-.1 0-.2-.1-.2-.3zm-7.5-6.7.1-5.2c0-.9.4-1.2.9-.8.5.4.6 4.1.1 3.9-.1-.1-.2 0-.2 0 0 .6 0 .7.4.7.3 0 .3.4.3 2 0 1.7 0 2-.2 1.5l-.2-1.7v-1l-.5.4c-.2.3-.5 1.4-.6 2.5-.2 1.8-.2 1.3-.1-2.3zm14 41.7c0-.3-1-.6-1.3-.4-.5.3-.2.6.6.6l.8-.2zm11 0c.2-.2-.1-.3-.6-.3-.4 0-.8 0-.8.2s.3.3.7.3c.3 0 .7-.1.8-.3zm59.5 0c0-.2-.2-.4-.3-.5-.1 0-.3 0-.3.3 0 .2.2.4.3.4l.3-.2zm40.4-.5c0-.6-.5-.9-1.7-.9-.7 0-.8.4-.2 1.1.6.7 1.8.6 1.9-.2zm-165 .2c.6-.2 0-.2-1.6-.2-2 0-2.3 0-1.2.2 1.7.2 2 .2 2.9 0zm17.3 0-.1-.4c-.3-.2-1.1 0-1.1.4 0 .3 1 .3 1.2 0zm64.2-.3c-.4-.3-1-.7-1-1-.2-.2-.5-.3-.8-.2l-.4.2.4.5c.3.6 1.1 1 2.1 1 .4 0 .4 0-.3-.5zm-87.6.1a1 1 0 0 0-.6 0l.3.1c.4 0 .5 0 .3-.1zm26.1-.6c.4-.7.4-1 0-1-.5 0-1.1.9-.9 1.3.3.4.6.3 1-.3zm42.2.2c.5-.1 1-.3 1-.5 0-.4-1-.5-2-.2-1.3.4-1.4.5-1 .8.6.3.8.3 2 0zm83.3.1c-1.3-.4-2.4-1-2.5-1.3-.2-.4-1.3-.5-1.7 0-.5.5 1.6 1.5 3.2 1.5.8 0 1.2 0 1-.2zm7 0c.4-.2.6-.5.6-.7-.2-.4-1.3-.3-3.3.3l-1.6.6h1.8c1 0 2.1-.1 2.5-.3zm-137.4-.6c1-1.3.2-1.7-1.5-1-1.1.5-1.2.8-.4 1.2 1 .5 1.5.4 2-.2zm19-.1c0-.4-.6-.6-.9-.2-.2.2.4.9.6.7.2 0 .3-.3.3-.5zm92.2-.5c-.6-1.8-1.8-2.5-1.7-1 0 .7.3 1 .8 1.3.9.4 1 .4.9-.3zm32 0c-.8-.5-1.7-.6-1.7 0 0 .4.4.6 1.4.6h.8l-.6-.5zm-103-.2c.7-.6.4-1-.7-1-1.7 0-2 .4-1.3 1.1.5.6 1.5.6 2 0zm94-.1 1-.7h-1c-1.4 0-3.6.5-3.6.8 0 .8 2.2.7 3.5-.1zm28.6.1.5-.2-.7-.2c-.9-.2-2.2 0-2 .4.3.3 1.4.3 2.2 0zm-17.5-.6c-1-.9-1.5-.9-.6 0l1.1.6c.2 0 0-.3-.5-.6zM65 132.9c0-.4-.3-.9-.5-1.1l-.4-.5.4-.1c.6-.2.6-1.2 0-1.2-.2 0-.3.1-.3.3 0 .6-.6.8-1 .5-.2-.3-2-.5-2-.3l.4 1.2c.5 1.2 1.5 2 2.7 1.9.7 0 .8-.2.7-.7zm162.2-.1c-.2-.2-.3-.2-.3.1 0 .2 0 .5.2.6l.3-.1c0-.2 0-.4-.2-.6zm-184.5-.4c0-.3.3-.6.8-.7a16 16 0 0 1 5-.2c.6.2.5.3-.7.3-1.6 0-1.7.3-.5 1l.8.4.9-.5c.7-.4 1-.4 2.2-.1l1.4.3.6-.6.7-.7-.3-1.1c-.1-.6-.4-1.2-.5-1.4l-2-.7c-1-.2-1.9-.6-2-.8-.1-.4.6-.4 2.1.2 2 .8 2 .8 1.7-1-.2-1.9-.7-3-1.3-3.3-.2 0-.4-.4-.4-.7 0-1.2-.4-1.4-2.5-1.4-1.5 0-2 0-2.5.4-.2.3-.7.5-1 .5-.2 0-.4.1-.4.3 0 .1.3.2.5.1.5-.1 1.4.2 1.1.5l-2.5.3a396.2 396.2 0 0 0-12.3 1.2 143.1 143.1 0 0 0 13.2-.1c0 .1-1.2.3-2.7.4-4.2.3-5.5.5-5.1.8l2.9.2c1.4 0 2.6 0 2.6.2 0 .1-1.7.4-3.7.5-4 .4-5 .6-5 .9 0 .3 8.7.5 10 .2 1-.2 1.6-.2 3.1.3 2 .6 2.8 1.1 1.3.9-.8-.2-1-.1-.8.3.1.3 0 .4-1.1.2-1-.1-1.3 0-1.5.3-.2.3-.7.4-2.9.4-2.6 0-3.3.3-2 .8.7.3.3.5-1.1.6-1.1 0-1.1.5-.1.8 1 .3 3.3.7 3.6.6.2 0 .3-.3.4-.6zm3.4-1.8h.5l-.3.1c-.3 0-.4 0-.2-.1zm33.6 2c.3-.2.7-1.2.8-2 .2-1 .6-2 1-2.4.5-.6.6-1 .6-2.5 0-1-.1-1.8-.2-1.8l-1 2.3c-.3 1.3-1 3.1-1.4 4.1-1 2.6-1 3.6.2 2.3zm10.3 0c.7-1 .2-1.5-.7-.6-.5.4-.4 1.1 0 1.1l.7-.4zm106.2 0c0-.1-.3-.3-.7-.3-.4 0-.6.2-.5.3 0 .1.4.3.7.3.3 0 .5-.2.5-.3zm12.4.1h-.6c-.2 0-.1.1.2.1h.4zm29.7-.5c0-.3-.1-.7-.3-.8-.1 0-.4-.7-.5-1.3-.3-1-.5-1.2-1-1.1-.3 0-.5.2-.4.4 0 .2 0 .7-.3 1l-.3.7 1 .9c1.1 1 1.8 1.1 1.8.2zm3.7-.2c-.8-1.3-1-2-.5-1.9l.6-.1c.2-.4-.2-1.1-.7-1.1-.3 0-1-.5-1.5-1l-1.3-1.1c-.2 0-1-.6-1.6-1.2-1.6-1.7-2.3-2.1-3-1.8-.4.2-.7.2-4.5.3-2.2 0-2.9.1-2.9.4 0 .4 1.2 1.5 2 2 .9.4 1.4 0 .7-.4-1-.8-.7-1 1.4-.8 1.6.2 2.1.1 2.5-.2.3-.3.6-.3 1-.1l.8.2-.8.6c-1.4 1-.5 1.7 1.1.8 1.2-.7 1.4-.2.3.7-.8.7-.8.8-.4.8l1.3-.4c1-.5 1.4-.4 1.7.9.4 1.1 3.1 4.3 3.9 4.3h.4zm-48.9.3a48.4 48.4 0 0 0-7-1c.3.3 5 1.3 6.6 1.2h1.2l-.8-.2zm-86.7-.5c.4-.6.4-.6-.7-.2-1 .3-1 .7-.2.7.3 0 .8-.2 1-.5zm94-.4c-.9-.8-1-1.1-.3-1.6l.4-.3-1-.2-1.8-.4c-1.2-.4-1.1-.2.3.5l1.2.7h-1l-1 .3c0 .5 3.7 2 4 1.8 0-.1-.3-.5-.7-.8zm20.7.7c0-.3-.6-.7-.7-.5-.2.2.1.7.4.7.1 0 .3 0 .3-.2zm-152.8-.2c.5-.3.8-1.3 1-3l.2-1.5-.6.8-1 .7c-.6 0-1.9 1.5-1.9 2.1 0 .4.2.5.5.5s.6.2.7.3c.2.3.7.3 1.1 0zm166.2 0h-.5c-.2 0-.2.1.1.2.3 0 .5-.1.4-.2zM60 131c-.1-.9-.3-1-1-.3-.4.5-.1 1.1.7 1.1.3 0 .4-.2.3-.8zm145.6.6h-.5c-.2.1-.1.2.2.2.3 0 .4 0 .3-.2zM57 131.1c0-.2-.2-.4-.6-.4-.7 0-.9.3-.5.7.3.2 1 0 1-.3zm147 0c1-.5.5-.9-1-.9-1.3 0-1.6.3-.8.8.6.3 1 .3 1.8 0zm7.2-.5c-.1-.3-1.3-.5-1.3-.2l.3.5c.4.4 1.1.2 1-.3zm-174.5.2a1 1 0 0 0-.7 0c-.1.1 0 .2.4.2.3 0 .5 0 .3-.2zm157.8 0h-1c-.3 0-.1.1.4.1h.6zm-10.2-.6-1-.2c-.6 0-.7 0-.3.2.2.2.7.3 1 .3.5 0 .6 0 .3-.3zm-108-.3c.4-.4.4-2.2-.1-2.6-.6-.5-1.2-.1-1.2.6 0 2 .5 2.7 1.3 2zm21.4 0c.2-.2 0-3.3-.4-3.6-.2-.2-.8.5-1 1.4l-.4 1 .5.7c.7.9.8 1 1.3.5zm119.5-.6c-1.8-1-2.5-1.1-2.5-.7 0 .6 2.2 1.6 3.6 1.6.7 0 .5-.2-1-1zm29.4-1.6c0-1.8-.2-2.4-.9-3.7l-1.3-3.6-1.5-4.7c-1-3.1-1.5-5.2-1.5-6.6 0-.8 0-.9-.4-.7-1.4.6-4 1-6 .8h-2c0 .4 1.2 1.2 2.5 1.7 1.4.6 1.4 1 .1 1.4-1.7.5-1.3.8 1.6 1.1 3.3.4 4.2.7 4.4 1.3.3 1.3 0 1.6-1.3 1.7-1.3 0-2 .7-1.6 1.1.2.2.8.2 1.8 0h1.6l.2 1.1.5 2.8c.2 1.5.2 2 0 2.3-.2.2-.3.7-.2 1 .2.6 0 1.6-.4 1.4l-.3-.8c-.2-.8-1.1-2.2-1.5-2.2-.9 0 .6 3 1.6 3.3.3.1.5.4.5.7 0 .5 1.2 2 1.6 2 .2 0 .2-.2.2-.7l-.3-1.6-.2-1 .3 1c.4 1.1 1.8 3.2 2.2 3 .2 0 .3-.8.3-2.1zM33 129.3l-.2-.7c0-.3-1.8-.3-2.3 0-.5.3-.4.4.8.8 1.4.4 1.9.4 1.7-.1zm7.2-.1.4-.3H40c-1.8 0-4.4.4-4.4.6 0 .3 4 0 4.7-.3zm17.2.2c.3-.1.3-.3-.3-1-.4-.5-.7-1-.7-1.2 0-.4-1.1-1.5-1.6-1.5-.6 0-.6.4-.2 2 .2 1 .4 1.2.9 1.2.3 0 .6.2.7.4.2.4.7.5 1.2.1zm5.3 0 .4-1.4c.2-.9.7-1.6.7-1 0 .2.2.3.4.3.3 0 1.1-1.5.8-1.7-.2-.3-2.2 1.1-2.7 1.9-.2.3-.7.8-1 .9-.8.3-.7.7.2 1 .8.3.9.3 1.2 0zm27.4-1.1 1-3.5c.7-4.7 1.3-8 1.6-8.8.3-1.1 0-1.6-.6-1-.6.5-1.2 2.1-1 2.5.2.1 0 .3-.4.3-.7.1-1.4 1.6-2.3 4.3l-1 3.5c-.7 1.8-.7 2-.3 2 .1 0 .2-.2.2-.5s.3-1 .6-1.6l.5-1.4c0-.2 0-.5.2-.6l.9-2.2c.3-1 .7-2 .9-2 .3.2.2 1-.3 2l-1 3c-1.5 5.2-1.6 5.4-.4 5.4h.8zm132.2 1.3-.3-.3c-.1-.1-.2 0-.2.1 0 .2 0 .3.2.3l.3-.1zm-28.9-.4c0-.2-.3-.3-.7-.3h-.7l.5.3c.7.3 1 .3 1 0zm36.4 0c.3-.5-3.2-1.5-3.8-1-.3 0-.1.2.4.3.4 0 1.3.3 1.8.5 1.3.5 1.4.5 1.6.2zm-40.5-.7c-1.2-.8-2.5-1-2-.3.4.5 1.7.9 2.6 1 .3 0 .2-.2-.6-.7zm18.6.5h-.5c-.2 0-.1.1.2.1.3 0 .4 0 .3-.1zm2.7-1.7c-.2-.2-.7-.2-1-.2-.5 0-.7.2-.7.7 0 .5.2.7 1 1l.9.2v-.7c.1-.5 0-.9-.2-1zm-144.8 1.2c.2-.1.4-.4.4-.7v-.6l-.6.5c-.7.7-.7 1 .2.8zm116.8-.4c0-.1-.2-.4-.5-.5-.5-.2-.6-.2-.6 0 0 .4.4.7.9.7.1 0 .2 0 .2-.2zm13-.2c0-.2-.2-.3-.5-.4-.3-.2-.4-.1 0 .2.3.5.5.5.5.2zm26.2-.2c0-.4-2.2-1.5-2.5-1.2-.3.3 0 1 .7 1.3.9.4 1.8.3 1.8 0zm-163-.3a6 6 0 0 1 1.9-.8c1.5-.4 2.3-1.1 2.3-2.2 0-.5.4-1 1.3-1.8 1.5-1.3 2.7-3.4 2.7-5v-1.1h.6c.9 0 1.8-.8 2.5-2.3.5-1 .6-1.5.5-2.8l-.2-1.6h.6c.3 0 .8-.2 1-.5.2-.5.4-.5.5-.2.2.2.3.2.6 0 .6-.5 1-5.3.6-6.3-.1-.4-.2-.3-.7.4-.6 1-.6 1.3 0 2.5.3.7.3 1 .1 1.4-.2.4-.3.4-.3 0l-.6-1.6-.5-1.2.5-1c.7-1 .8-2.5.1-3.5L72 99l.5-.9.4-.8-.5-2-.6-1.9-1.3-.8-1.3-1c0-.5-.9-1-1.2-.8-.2.2-.3 0-.4-1 0-.7-.1-1.7-.3-2.3l-.3-1-.6.7c-.5.6-.8.8-1.3.7-.4 0-.7 0-.7.2l-.1.7-.7 5.3.8 1.2c.5.5.8 1.1.8 1.4l.2 2c.2 1.5-.3 2-.5.6-.1-.6-.4-.8-.8-.9h-.6l-.2-2c0-1-.2-2-.4-2.1-.3-.2 0-3.5.5-6l.2-2.3v-1.2l-.7 1.8c-.3.9-.9 2.8-1.1 4.2-.8 3.8-1.3 5.5-1.6 5-.2-.2-.3-.8-.3-1.2a47 47 0 0 1 2.2-9.8c.9-2.2.9-2.9 0-2.2-.4.4-1.4 2.6-2 4.5l-.7 1.7c-.3.4-.8 2.6-.8 3.5a4 4 0 0 1-.4 1.5c-.7 1.3-1 3.3-1 6.7 0 2.6 0 3.2-.3 3.4-.5.2-.5 2.3 0 5.9.3 2.1.3 2.8.1 3.1-.2.3-.2.7 0 1.5l.3 1.8c0 .4.3.7.5.7.4 0 .4-.7.3-4.8 0-3.4 0-4.7.2-4.5a43.5 43.5 0 0 0 1 11.8c.1.6.5 1.6.8 2l.3 1.3v1.1l.4.7.3-.5c.2-.3.4-.4.4-.2s0 .5.2.7c0 .2-.2.5-.6.6-1 .5-1.4.4-1.6-.4l-.2-.8-.5.4c-.7.6-.8.4-.9-1.6 0-.9-.3-3-.6-4.5a66.3 66.3 0 0 1-.7-22.3c.8-3.2.8-3 .4-3a30.6 30.6 0 0 0-2 19.1c.5 2.8.7 4.4.6 5.1-.1.7 0 1.7.1 2.3.5 1.7.5 3.2 0 3.3-.5.2-.3 1.3.3 1.9l.7.4c.1 0 .3.2.3.6.2.8 1 2.2 1.3 2.2l.6-.4zm1.7-5.7c-.2-.7 0-1.1.5-.8.2.2.4.2.5.1l.2.1c0 .2-.2.5-.5.8l-.5.4zm3.6-1.8c0-.2.3-.4.6-.5.3 0 .4 0 .4.3-.1.2-.4.4-.6.4-.3 0-.5 0-.4-.2zm3.4-6.6c0-.2.1-.3.3-.3.1 0 .2.1.2.3 0 .1 0 .3-.2.3a.3.3 0 0 1-.3-.3zm-2.6-3c0-.4 0-.4.1-.2v.5l-.1-.4zm4.6-3.6c-.2-.4.1-1 .5-1 .2 0 .4 0 .4.3 0 .5-.7 1-.9.7zm-11-1.9c0-.6.1-.9.2-.6v1.2l-.1-.6zm8.6-2.8a855.7 855.7 0 0 0-1-3.8c.3 0 1.9 4.8 1.6 5 0 0-.4-.5-.6-1.2zm-8 0c0-.4 0-.5.1-.3v.8l-.1-.5zm6-1.2c0-.3.1-.4.3-.3l.2.5c0 .2 0 .4-.2.4s-.3-.3-.3-.6zm4.1-1.2c0-.2 0-.3.3-.4.3-.2.6 0 .6.4 0 .3-.7.3-.9 0zM65.8 96c0-.2 0-.5.2-.7.2-.3.3-.2.3.3 0 .4-.1.8-.3.8l-.2-.4zm8.4 30.5v-.9l-.4.4c-.5.4-.5 1.7 0 1.5l.4-1zm18.1.8c.2-.3-.1-1-.4-.9-.3.2-.3 1.2 0 1.2.2 0 .3-.1.4-.3zm100.8 0c0-.1-.3-.3-.6-.3-.4 0-.4 0 0 .3.5.3.9.3.6 0zm39 0c0-.1 0-.3-.2-.3l-.3.3c0 .2.2.3.3.3.2 0 .3-.1.3-.3zm-159.2-4c1.3-2.7 1.6-4 1-4-.4 0-.9.9-1.7 2.5-1.5 3.3-2 4.7-1.4 5 .2.1.5 0 .7-.6l1.4-3zm127.3 3.6-1.5-.8-1.7-1c-.4-.5-3.2-.6-3.2-.2 0 .3 1.5 1 3.6 1.6 1.6.5 2.8.7 2.8.4zm-121.7-2a52.8 52.8 0 0 0 2.5-9c.2-.4.5-1.5.5-2.5s.5-2.9 1-4.2c.9-2.8 1-3.3.2-2.7-.3.3-.6.5-.7.4-.2-.2 1.5-5.3 2-6a13 13 0 0 0 1.4-6c-.2-.3-.4-1.9-.4-3.6l-.4-3.8-.7-2-.4-1.2v1.5c.2 1.6-.2 2.1-.4.8l-1.5-5.1c-.3-.9-.8-1.3-3.7-3.2-2.4-1.7-3.2-1.8-3-.6.2.9-.5 1-1 0-.4-.8-1.8-2.2-2.3-2.2-.3 0-1.2.7-1 .9l1 .5c1.3.7 2.5 2 3.7 4.6.7 1.5 1.2 2.2 1.5 2.2 1.2 0 2.2 1.8 2.2 3.6v1l-.3-.8c-.5-2.1-1.3-3.2-1.9-2.6l.2 1.6c.2.8.4 1.6.3 1.9a23.8 23.8 0 0 0-4.6-9.8c-1.3-1.2-2.7-1.8-3-1.3-.2.3-.8.2-.8-.3 0-.1.3-.4.7-.6l.7-.3-.6-.6c-.8-.8-1-.7-1.6.5-.3.8-.4 1.3-.2 1.8l.2 3.6c0 3.5.7 8.4 1.2 9.3.2.3.9.9 1.5 1.2 1.6.9 2.2 2.3 2.4 5.9 0 2 .2 2.9.5 3l.4.2.1-3.2c0-1.8.2-3.4.3-3.7.2-.4.2-.4.2-.1l.6 1.2.6.7.2 4.7.1 4.6.3-2 .8-3.8c.4-2 .2-3.6-.6-6.8a9 9 0 0 1-.3-2l.8-.2.7-.1.1 1.5c.3 1.7.6 2.4 1.1 2.4.6 0 .5 1.5 0 1.7-.3.1-.4.5-.3 1.7 0 .9.2 1.5.4 1.6.2 0 .3-.1.3-.5 0-.8.3-1.1.7-.7.3.2.4.2.4-.2 0-.2-.2-.4-.4-.4-.5 0-.3-.6.3-1.3.2-.3.3-1.6.4-4 0-3.7.3-4.3 1.1-3l.4.6-.2 3.1c-.5 5.1-.9 7.8-1.8 11.2-.9 3-1 5.5-.5 6l.4.6-.7 2c-.5 1.6-.7 2.7-.8 4.5 0 2.4-.4 4.8-1 5.8-.3.8-.5 3.9-.2 3.9.1 0 .6-.8 1-1.8zm-2.4-32.1c0-.3 0-.4.1-.2v.5l-.1-.3zm-1.6-1c0-.3 0-.5.2-.3v.7c-.1.2-.2 0-.2-.3zm-1.3-4.5a23 23 0 0 0-1.4-3.6l-1-2.5c0-1.2 2.5 3.8 2.8 5.5.2 1.8 0 2.2-.4.6zm113 39.2c-.1-.3-1.1-.5-1.1-.2 0 .2.4.4 1 .5.2 0 .3-.1.2-.3zm19.5-.1c1.5-.3 1.6-.4.8-.4h-1.4a21 21 0 0 1-2.5-.4l-2-.2.7.7c.7.7 1.8.8 4.4.3zm12-.5c0-.2-.2-.4-.4-.4s-.3.8 0 1.1c.3.3.6-.2.4-.7zm6.5-1.3c-1-1.4-2.4-2.4-3-2.3-.5.2 3.1 3.7 3.9 3.7l-.9-1.4zm-35.4.9c0-.3-1.2-.8-1.7-.8-.4 0 .9 1 1.3 1 .2 0 .4 0 .4-.2zm25.3-.8c-.8-.6-1.3-.6-1.4 0-.2.3 1.5 1 1.9.8 0 0-.1-.4-.5-.8zm-119.3.3c.6-.5 1.5-3.3 1.3-4-.2-.3-.4-.2-.9.7-.3.6-.9 1.2-1.1 1.2-.4.2-.6.4-.6 1.2 0 1.5.3 1.6 1.3.9zm112.5 0c0-.8-3-1.4-4-.9-.2.2 0 .3.9.6 1.3.5 3.1.6 3.1.2zm32-.2c0-.4-.5-1-1-1-.4 0-.4.7 0 1 .4.5 1 .5 1 0zM55 124.5c0-.6-.8-1.7-1.1-1.5-.4.2.3 2 .9 2l.2-.5zm165.4.2c0-.2-.2-.4-.4-.6a29.4 29.4 0 0 0-3.1-4.1c-.4-.5-1-.4-1 0 0 .3 0 .4.2.4.1 0 .7.8 1.2 1.8a5.6 5.6 0 0 0 2 2.2c1.1.6 1 .6 1 .3zm-150.8-1.2c.4-.6.8-1.5.9-2.1.1-.7.4-1 .8-1.2.7-.3 1.4-1.3 1.4-2 0-.4 1.3-2.8 1.6-3a22 22 0 0 0 1-7.5l-.1-.6-.3.8c-.4.8-1 3.9-1.2 5.1 0 .4-.5 1.4-1 2.3a10 10 0 0 0-.8 2c0 .4-.8 1.9-1.2 2.2-.4.3-2.7 4.6-2.7 5 0 .6 1 0 1.6-1zm123.4 0 .8-.2-.7-.2c-.9-.3-2.6-.3-2.6 0 0 .7 1.2 1 2.5.5zm36.1-.1c0-.3-.6-.6-1-.6-.5 0-.3.5.1.6.8.2.9.2.9 0zm-169.9-.5c0-.3 0-1-.2-1.5l-.2-1.1-.2.6c-.2.7 0 2.4.4 2.4l.2-.4zm56.5.2c-.1-.2-1.8-.3-3.8-.4-2 0-3.5-.1-3.5-.3 0-.4 1.9-.5 5.5-.3 4 .3 4.5.2 3.4-1l-.7-.7-1.8.2c-2.1.2-2.8-.3-.8-.5 1.6-.2 1.8-.5 1-1.2-.5-.5-1-.6-3-.6-3 0-4-.3-4-.8l-.1-.5 2 .2h2c0-.3-4.3-2.4-4.7-2.2-.2 0-.4.4-.5.9 0 .4-.5 2-1 3.6l-.6 3 1.4.5c1.6.4 9.6.4 9.2 0zm79.5 0h-.5c-.3.1-.2.2.1.2l.4-.1zm19.2-.6c-.5-.8-2.5-2.2-2.7-2 0 .1.2.5.6.8l1.6 1.3c1 .8 1.1.8.5-.1zm-132.7-.7c.5-1 .8-2 1.8-6.5.7-3.1.7-3.9.4-3.9-.4 0-.8 1.2-1.1 3.1-.2 1-.7 3-1.2 4.4-1.2 3.8-1.3 4.2-.8 4 .2 0 .6-.6.9-1.1zm157 1c.1-.1 0-.3-.3-.3s-.6.2-.6.3c0 .2.2.3.4.3s.5-.1.6-.3zm-12.8-.2c0-.2-.2-.4-.5-.6-.4-.2-.5-.2-.5.1 0 .4.3.6.8.7l.2-.2zm-199.5-.3c0-.2-.3-.3-.6-.3-.4 0-.7.1-.8.3-.1.1.1.2.6.2s.8 0 .8-.2zm28.7-1-1.6-5c-1.6-4.6-1.7-5.5-.8-8.3.6-1.7 1-7.4.5-7.4-.6 0-1.1 2.7-1.1 5.3 0 1.5-.1 2.6-.2 2.6-.7 0-.8-.7-.7-3.6.1-2 0-3-.1-3-.6-.4-1 3.4-.8 7.6.2 3.4.3 4.2.7 4.8.5.7 2.4 5.3 2.4 5.8s1.1 2 1.5 2c.3 0 .3-.3.2-.8zm149.8.6h-.5l.2.1c.3 0 .4 0 .3-.1zm-7.6-.4c0-.4-1-.9-2.5-1.2-1.2-.3-1.5-.3-1.7 0-.5.6 0 1 2 1.2a106.3 106.3 0 0 1 2.2 0zm44.8-1c0-2-.4-2.5-1.3-2.3-1.2.3-3 1-3 1.2l1.4.3c1.1.2 1.4.3 1.8 1.1l.8 1c.2 0 .3-.7.3-1.4zm-166.5-.2c0-.4 0-.5-.2-.1-.4.5-.4 1.1 0 .9l.2-.8zm12 .4v-.7c-.2 0-.3.2-.3.5 0 .9.1 1 .3.2zm114.6.1-1-.8c-.2-.2-.8-.4-1.2-.4-.5 0-.9-.1-1-.5-.2-.3-.6-.5-1.1-.5-2 0-.8 1.5 1.7 2.1l2.5.5h.7l-.6-.4zm33.6-.1c1.1-.6 2-1.2 1.7-1.4l-3.6-.3-3.6-.1.8.3c.4.2 1 .4 1.5.4.3 0 .9.2 1.1.4l.6.4-.6.4-.5.4h.7c.4 0 1.3-.2 2-.5zm-29-.6c.2-.3.2-.7.1-.8l-2-.4c-1.7-.1-2 0-1.9.3.2.4 2.4 1.4 3.2 1.5.2 0 .5-.3.7-.6zm-17.2.2h-.5c-.2 0-.2.1.2.1.2 0 .4 0 .3-.1zm25 0c0-.4-.4-.7-.6-.5-.3.2 0 .6.3.6.1 0 .2 0 .2-.2zm-118.6-2.6c.8-1.6 1.1-4.1.6-4.1-.2 0-.7.5-1.2 1.1l-1 1.2-.1 2.2-.2 2.2.5-.5c.3-.3 1-1.3 1.4-2.1zm91 1.7c-.5-.5-1.3-.7-1.3-.4 0 .4.7.9 1.3.9h.7l-.6-.5zm38.7 0-1.5-1.9c-1.4-1.8-2-2.2-2-1.4 0 .6 3.4 4 3.7 3.7 0-.1 0-.3-.2-.4zm-30.3 0c-.1-.2-.5-.3-1-.3h-.6l.5.3c.7.3 1.3.3 1 0zm-3.7-1c-.1-.2-.3-.4-.5-.4-.1 0-.2.2 0 .3 0 .2.2.3.4.3v-.3zm-7.6-.7c0-.4-1-1.4-1.2-1.2-.2.3.7 1.8 1 1.7l.2-.5zm23.3 0s-.5-.2-1.2-.2-1.1.1-1 .3l1.2.2c.5 0 1 0 1-.2zm2.6.2h-.5c-.2 0-.2.1.1.1.3 0 .5 0 .4-.1zm27.5-.3c0-.4-.4-.5-1.5-.5-2.8 0-3.1 0-4-.9-.5-.6-4.8-2.6-5.4-2.6l-.1.6c0 .5 0 .7.6.7.4 0 1.1.3 1.6.7.9.8 3.1 1.8 4.6 2.2l2.6.2h1.7zm-16.6-.9c-.4-.8-.7-1-1.3-1h-.7l1 1c.6.6 1.2 1 1.3 1 .1 0 0-.4-.3-1zm-5 .3c0-.3-1.4-.6-1.6-.4-.2.2.5.6 1.1.7.3 0 .5-.2.5-.3zm-183.2-.2h-1.4c-.4 0-.1.1.7.1.8 0 1.1 0 .7-.1zm154.6-.1c0-.5-3-2.7-3.1-2.4-.2.4 2.1 2.7 2.6 2.7.3 0 .5-.2.5-.3zm8.5 0a49.5 49.5 0 0 1-2.3-.5c.3.5 1.2.8 2.4.8h1l-1.1-.4zm11.4-.1c1-.2 1.2-.3 1.3-.9.2-.9-.1-1-1.8-1-2.5 0-3.2.5-2.2 1.5.6.6.9.6 2.7.4zM90.3 114c.6-1.2 1.1-2.6 1.2-3.1l.2-1-.4.5c-.2.2-.8 1.4-1.3 2.8-1.3 3-1.4 3.4-1 3.1.2 0 .8-1.1 1.3-2.3zm112 2.2c0-.5-.6-.5-1.3-.2l-.7.4h1c.5 0 1 0 1-.2zm42-3.3a105 105 0 0 1-.7-4.5c-.3-2-.5-2.8-.9-2.8-.3 0-.3.9.2 2.9l.8 4.4c.2 1.4.5 2.8.7 3.1.6 1 .5 0 0-3.1zm-44.6 2.6.5-.5-.6-.5c-.5-.5-.6-.6-1.3-.3l-.8.3-2.8-1.5c-1.5-.7-2.9-1.3-3-1.2-.3.3 2 2 2.7 2 .4 0 1.4.5 2.2 1 1.7 1.2 2.3 1.4 3 .7zm-6.1-.8a21 21 0 0 1-2.2-1.4c-1-.9-2.2-1.1-2-.4.2.3 1.2 1 2.4 1.5 2.4 1.1 3.5 1.3 1.8.3zm42.7.4c0-.1-.2-.2-.7-.2-.4 0-.8 0-.8.2s.3.3.7.3c.3 0 .7-.1.8-.3zm-23.6-.3c2-.4 1.8-.8-.3-.6-2 .2-2 .2-1.8.7.2.3.7.3 2.1 0zM54 114.3c0-.2-.1-.2-.1.2 0 .2 0 .4.1.3v-.5zm41.8-1.1c1.1-2 1.5-3.3 1.2-4.5 0-.6-.3-1.1-.4-1.1-.6-.2-2.5 5-2.5 6.5 0 1.1.8.7 1.7-.9zm129.2.8c0-.2-.2-.8-.5-1.3-.3-.6-.5-1.3-.5-1.6 0-.5-.2-.7-1.2-1-1.3-.3-2.6 0-2.7.6 0 .2.1.7.5 1.1.4.6.7.7 1.3.6.6-.2.8 0 1.7 1 .9 1.1 1.4 1.3 1.4.6zm-21.8 0c.5-.4.5-.5.1-.7-.2-.1-.6-.2-1-.1-.2 0-.7 0-1-.2-.9-.4-1 .2-.2.8 1 .6 1.4.7 2.1.2zm27.6 0-.4-.2c-.4 0-.4 0 0 .3s.4.3.4 0zm-138-1.2c.4-.7.9-2 1.1-3 .3-.9.7-2 .9-2.2.5-.8.4-1.7-.2-1.7-.3 0-.5-.2-.5-.4 0-.3-.2-.4-.3-.3-.2.1-.2.5-.2.8.1.3 0 .8-.2 1-.3.6-.8 2.9-1.1 5 0 .6-.3 1-.4 1.2-.3.2-.3.9 0 .9.2 0 .6-.6 1-1.3zm129.2 1s0-.4-.3-.7c-.3-.4-.4-.4-.6 0-.2.2-.2.4 0 .6.3.4.7.5.9.2zm-35.4-.6c0-.2-.3-.3-.6-.4-.3 0-.3 0-.2.3.2.5 1 .6.8.1zm31.5-.4c0-.2-.2-.3-.5-.3-.5 0-.6 0-.2.3.5.3.7.3.7 0zm10.4 0c0-.2-1.6-1.1-2-1.1-.4 0 0 .6.6 1 .8.4 1.4.4 1.4 0zm-45-1.3c0-.9-.3-1.5-.8-2-.6-.7-.8-.7-.8-.4 0 .6 1.4 3.7 1.6 3.7.2 0 .2-.6 0-1.3zm15.8.7c-.1-.4-1-.6-1-.3 0 .1.1.4.3.5.4.4.8.2.7-.2zm3.3.1c.3 0 .4-.3.3-.5 0-.2 0-.4.2-.5.6-.4 4.6-2 4.9-2 .5 0 .7-.5.3-1-.4-.5-1.4-.4-3.1.5-1 .5-1.9.8-2.3.7h-.8l.8-.4c.4-.2.9-.7 1.1-1l.5-.7-1 .6c-2 1.2-1.3.1 1.6-2.4l.4-.4-.5-.2c-.7-.3-3 1-3.1 1.9-.1.3-.5.7-1 .8a3 3 0 0 0-1.4 1l-.5.7.5.9c1 1.8 2 2.5 3.1 2zm-13.8-.3c0-.3-.6-.8-.9-.8-.3 0-.2.7.2.9.5.2.7.1.7 0zm45 0c0-.3-4.8-3-5.7-3.1-1-.2-1.5-.6-1.3-1 .3-.5-2.3-2.3-4-2.7-1.5-.3-5.1 0-5.6.4-.1.2 0 .5.3.9l.6.5 2.9-.3c1.6-.1 3-.2 3.2-.1.8.3.1.5-2.1.7-3.2.3-3.7.7-2.6 1.8.4.4.6.4 1 .2.3-.1.6-.4.6-.7 0-.5.2-.4 2.5.2a28 28 0 0 1 6.9 2.5c1.4.8 3.3 1.2 3.2.7zm-40.3-2.1-1.2-1.4v.5c0 .4 2 2.6 2.2 2.4 0-.1-.3-.8-1-1.5zm-2 .8a11 11 0 0 0-2-3.2c-.5 0 0 2 1 3 .2.4 1 .5 1 .2zm16.3-.2c1-.3 2.6-.5 3.7-.6 3-.1 3.4-.4 1.5-.9-.7-.1-1.5 0-2.5.2-1.7.4-4.8 1.5-4.8 1.6 0 .2.3.1 2.1-.3zm-10.5-2c-.4-.4-.4 0-.1.7l.2.5v-.5c.1-.2 0-.6-.1-.8zM85 108c-.1-.8 0-1.2.5-2.1.5-.9.6-1.4.5-2-.2-1-.8-1.5-1-1-.5.6-1 2.9-1 4.2 0 1.6.1 1.9.7 1.9.3 0 .4-.2.3-1zm153.5.2c0-.5-2-.6-2.3-.2l-.4.4h1.3c.8 0 1.4 0 1.4-.2zm-38.5-1c.6-.4.7-.6.6-1.4-.3-1.6-.6-1.9-1.2-1.1-.4.4-.6 1-.6 1.9 0 1.5.2 1.6 1.2.7zm-8.2-.3c0-.2-.2-.3-.3-.3v.6c.2.3.3.4.4.3v-.6zm14 0c.5-.2 1.6-.3 2.4-.3 2 0 2.9-.4 2.7-1-.1-.4 0-.7.3-.9.4-.2.3-.2-.5-.2-1.2 0-2.5.4-3.4 1-.4.4-1.1.9-1.7 1.2-1.2.7-1.2.8.2.3zm10.5.2c0-.3-1.5-.8-2.8-.8-1.2 0-1.6.4-.6.7l1.1.2c1 .2 2.3.2 2.3 0zm-21.4-.4v-.7c-.2-.3-.3-.2-.3.4 0 .8.1 1 .3.3zm2.8-1.3.2-1.3.9-.4c.9-.4 1.2-1 1-1.9-.3-.8-2-.5-2.6.4-.3.5-.6 3-.4 4 .3 1.3.7.9 1-.8zm44 .6.6-2c.2-.7.3-1.4.2-1.5-.1 0-1.1 0-2.3.4-1.1.3-2.6.5-3.4.5l-2.1.2-.8.2 1 .2c.6.2 1.7.1 2.7 0 1.8-.4 3-.3 2.2.2l-2.3.5-2.1.4c-.4.4 1.3 1.2 2.7 1.4 2.6.4 3.4.3 3.6-.5zm-52.1-.2c0-1-.3-1.4-.7-1a1 1 0 0 0 0 1.4c.3.4.7.2.7-.4zm4.3-.7-.3-.8v1c0 .8 0 1 .2.8.2-.2.3-.5 0-1zm9.8-.6c1.2-.8 1.6-1.7 1-2-.2-.1-.8.2-1.4.6-1.4 1-1.9 1-1 0 .6-.5.7-.7.4-1-.4-.4-.8-.4-1.3.2-.8 1-.2 3.8.7 3.3l1.6-1zm-7.8-.1c.3-.8.2-1.5-.4-1.5-.4 0-1 1.7-.8 2 .3.5.8.3 1.2-.5zm24.2 0c.1 0-.1-.3-.7-.6-1-.4-1.2-.9-.7-1.4.4-.4-1.4-1-2.6-.7-2.3.3-3.7 1.4-2.5 1.8.3.1.7.5 1 .9l.4.7 2.4-.2c1.4-.1 2.6-.3 2.7-.4zm7.3-.3-.3-.3c-.1-.1-.2 0-.2.1 0 .2.1.3.2.3l.3-.1zm-14.9-1.7c1.8-.8 1.4-1-.8-.6-2 .4-3 .8-2.5 1 .6.5 1.7.4 3.3-.4zm10.8.3c-.9-.7-4.3-2.1-4.5-1.9-.3.3.6 1.5 1 1.6l1.8.3 1.7.4h.5zm-15.5-.6 2.5-1.3c2.5-1.2.7-2.3-2-1.2-1.2.5-2.9 2.6-2.3 3 .5.3.4.4 1.8-.5zm-17.6-.5c.2-.5.4-1.1.4-1.6l.4-1.8.3-1.1c-.2-.2-1 .9-1 1.4 0 .4-.2 1.2-.5 1.9-.8 1.9-.5 2.7.4 1.2zm5.7-.2c-.1-.4 0-.8.3-1 .3-.3.5-.8.6-1.2l.6-1.6c.4-.6.4-.9.2-1.1-.6-.6-1.4.5-2 2.8-.7 2.2-.7 2.8 0 2.8.3 0 .3-.2.3-.7zm6.4-.7c0-.3-1.3-.3-1.5 0v.7l.1.4.7-.4c.4-.2.7-.6.7-.7zm2.5.4v-.7c-.2-.6-1-.3-1 .3 0 .9.8 1.2 1 .4zm20.2 0c0-.2-.3-.6-.7-1l-1.2-1c-.4-.5-.9-.6-3.6-.7-2 0-3.2 0-3.2.2 0 .1 1 .3 2.2.3l2.2.1 2 1.3c2.2 1.3 2.3 1.4 2.3.8zm-145.8-.4c-.1-.2-.2-.1-.2.2 0 .2 0 .4.1.3v-.5zm6.7.3-.2-.2-.2.2v.3c.2 0 .4-.1.4-.3zm43.2-.4c-.2-.3-.4 0-.2.5.1.2.2.2.3 0v-.5zm69.8-.1c.6-.2 1-1 .6-1s-1.7.8-1.7 1c0 .3.3.3 1.1 0zM51.4 99.5c-.1-.2-.2 0-.2.3 0 .4.1.5.2.3v-.6zm80.7 0c0-.4 0-.5-.2-.4-.2 0-.4.3-.5.5 0 .3 0 .5.3.4.2 0 .4-.3.4-.6zm75 .3c0-.2-.2-.3-.5-.3-.2 0-.4.1-.4.3 0 .1.2.3.4.3.3 0 .4-.2.4-.3zm-5.2-.3c.3-.4-.2-.8-.6-.5l-.3.6c0 .3.7.3.9 0zm2.8-.8-.4-.2c-.3 0-.4 0-.4.2s.1.3.4.3c.2 0 .4-.1.4-.3zm6-.9c2-1 3.2-1.2 1.5-.1-1.6 1-.6 1 1.2 0a6 6 0 0 1 3.5-.8c2.7 0 3.2-.2 3.2-1.3 0-.5 0-.8-.2-.8-.9 0-3.3.6-3.9 1-.6.5-1.8.9-1.8.6l.5-.8c.7-1 .5-1.4-.5-1-1 .3-2.4 1-3 1.4l-1.2.6c-1 .3-2.7 1.6-2.5 1.9.2.5 1.4.2 3.1-.7zm-10.4.2-.1-.4c-.1-.1-.3 0-.4.2-.2.4.2.6.5.2zm5.3-1a40 40 0 0 1 2.5-3.9c0-.7-2.5.6-2.8 1.5l-.7 1.2c-.3.3-.5 1-.5 1.3 0 .5.1.6.6.5.3 0 .7-.3.9-.6zm-159.3.1-.5-.2c-.5 0-2.4-2.6-2.8-3.7l-.4-2c-.2-1.7-.4-2-1-2l-.6.1.1 1.5c.1 2.2.5 3.3 1.7 4.8l1.4 1.6c.4.3 2.3.3 2.1 0zm143.2-.6c.5-1.3.4-1.4-.5-.5-.9.8-1 1.4-.3 1.4.3 0 .6-.3.8-.9zm10.3 0 1-1.5.4-1h-.5c-.4 0-.7.4-1.2 1.3l-.7 1.6c0 .4.4.3 1-.3zm10-.4c1-.5 2.3-1.2 2.8-1.3l1-.3v-.9c0-.4 0-1 .2-1.3.3-.8-.5-.5-2 .6-.7.6-1.4 1-1.6 1l-.5.7c-.2.3-.7.8-1.2 1-.5.2-.8.6-.9 1v.5l2.2-1zm-111 .1-.2-.5c-.2-.1-.3.1-.3.5s.1.6.3.5l.2-.5zM49.1 96c.6-.2.9-.4 1-.7 0-.4 0-.5.4-.5 1.3.3 1.6.2 1.6-.3 0-.7-1.2-1-1.8-.4l-2.6.4a23 23 0 0 0-2.6.3c-.9.2 1.5 1.8 2.5 1.5l1.5-.3zm153.7-.3c.2-.3.2-.6 0-.6l-.7.6-.4.5h.4c.2 0 .5-.3.7-.5zm-72.3-5.9c-.1-3-.4-5.7-.5-6-.3-.9-1.2-.7-1.7.3l-.4 1 .6 2.7c.3 1.5.6 3 .5 3.5 0 .8.6 3.3 1.1 4.2.6 1.1.7-.4.4-5.7zm3.2 5.5a8 8 0 0 0 .2-1.8c0-1.8.5-4.6 1-5.5 2.1-4.8 2.2-5.4.7-5.5-1.3-.1-2.1.5-2.1 1.7v.9l-.5-.3-.7-.3c-.3 0-.4 2.3-.1 3.8l.3 1.6-.5.4-.5.3-.2-.4c-.1-.4-.2-.4-.2.1l.2.6c.2 0 .3.6.4 1.4.4 2.5.7 3.6 1.3 3.6.2 0 .5-.2.7-.6zm-.4-8.5c-.2-1 0-1.5.4-.6.2.5.2.9 0 1-.1.2-.2.1-.4-.4zM48 93.4l2.3-.8c.4-.2.8-.2 1.1 0 1 .5 2.3 0 3.4-1.4l1-1.2.3-2.7c.5-3.1.3-6-.4-8.3-.3-.9-.5-1.9-.5-2.3 0-.6-.1-.7-.5-.7-.5.1-.5.3-.2 2.2l.2 1-.4-.3c-.4-.3-.4-.2-.7.6-.9 3-.4 5 .8 2.9l.3-.7.3.5c.4.7 0 2.2-.6 2.2-.3 0-.5.3-.6.8-.2.9-.9 1.8-1.2 1.6-.1-.2.2-5.4.6-8.8.1-.7 0-1.4-.1-1.6-.2-.2 0-.6.7-1.4 1-1.4 1.4-1.2 2 .7.1.6.5 1.5.8 2 .6.7.7.9 1 2.3.1.4.3.7.5.7.5 0 1-3 .6-4 0-.3-.5-.5-.9-.5-.9 0-1-.1-1.4-1.8-.7-2.5-2.8-4.2-3.8-3l-.4.5.2-.9.1-.8h-.9c-1.2 0-1.8.6-1.6 1.6.1.9-.2 1-.7.2-.4-.8-1.1-.6-2 .4-.3.5-.8 1-1 1-.6 0-1.2.7-1.2 1.4l-.5 2.5-.6 1.8-1.3 1c-1 .8-1.3 1.2-1.7 2.5-.4 1.7-.5 3.3-.2 3.5.4.3.8-.2 1.4-2 .4-1.1.8-2 1.2-2.2.3-.2 1.2-1.2 1.8-2.2a28.9 28.9 0 0 1 4-4.8l.5-.6.1.4c0 .3-.1.8-.4 1.1-.6.7-1.4 2.7-1.4 3.6 0 .3 0 .5-.2.5s-.2.3-.1.6c0 .3.2.5.4.5.5 0 1.8-1.4 1.8-1.9 0-.4 1.5-2 1.9-2 .5 0 .1.7-.7 1.5-.5.5-1 1.4-1 1.9-.5 2-.8 3.2-1.2 3.2-.1 0-.4-.2-.5-.5-.5-1.3-2.3.8-2.8 3.2-1 4.6-1 4.7 1.2 4.7h1.7l.1-1.2.4-2.6.1-1.6-.5-.6c-.6-.6-.4-1.1.4-.8.3.1.3.8.3 3.3 0 1.7.1 3.2.2 3.3h1.7l1.5-.2.2-.8c.4-1.1.6-1.5 1-1.5.7 0 .6.5-.2 1.6s-1.6 1.4-5 1.9a12 12 0 0 0-2.8.5c-1.7 1.1-2-2.3-.6-6.2.2-.5.3-1.5.3-2.1 0-.7.3-1.8.6-2.4.6-1.5.6-1.5.1-1.5-.2 0-.5.3-.7.7-.6 1.3-1.1 2-1.8 3-1.3 1.7-1.6 3.5-1 4.7l.7 2.6c.2 1 .4 2 .6 2.3.3.6 1.7.6 3.9-.1zm6.8-7.1.2-.3.2.3-.3.3c-.2 0-.2-.2-.1-.3zm-4.5-11c.6-.6.6-.8.3-.9-.5 0-.6-.2-.1-.6.3-.3 2-1 2.4-1 .4 0-1.6 2.7-2.2 3-1.2.6-1.2.5-.4-.4zm168 17.3c.3-.1.6-.3.6-.5 0-.3 0-.3-2 0-1.7.4-3.1 1.2-2.5 1.6.3.1.8 0 1.7-.4l2.1-.7zm-187.6.6c.1-.2.5-.2 1-.1l.7.1v-.7c0-.4-.3-1-.7-1.5-.4-.4-.6-.8-.5-1l1.5-.8c1-.5 1.3-.8 1.2-1.2 0-.9-1.1-.8-2 .1-.4.5-1 .8-1.2.8-.5 0-2 1-2 1.2l.5 1.4.7 1.5c.1.5.5.6.8.2zm172.6-1.5c1.3-1.4 1.7-2 1-1.5-1.6 1-3.3 2.2-3.3 2.4 0 .3.3.6.6.6.2 0 1-.7 1.7-1.5zM36.9 90.4c.7 0 1.5.1 1.8.3l.6.2-.1-1.3c-.4-2.7-1.3-3-3.8-1.6-1.8 1.1-2.4 1.8-1.9 2.4.3.3.6.4 1.3.2l2.1-.2zm-11.1-.7c0-.3-.8-.3-1.3 0-.3.2-.2.3.4.3.5 0 .9-.1.9-.3zm195.2-.1c.7-.2.8-1 .2-1-.5 0-2 .8-2 1 0 .2 1 .2 1.8 0zM23 89c0-.2 0-.5-.4-.7-.7-.5-.4-.7 1.3-.7 2.5 0 6.7-.6 7-1 .2-.4 1.6-.5 4.7-.3.8 0 3.1-.4 3.3-.6l-.1-.7c-.2-.3-.2-.7-.2-1 .3-.5-.7-.7-2.4-.4-.8.2-2.6.3-4 .4-1.2.1-3.3.4-4.4.7l-4.8.8c-1.4.2-2.7.4-2.9.6-.3.3.3.7 1.3.7h.8l-.6.3c-.7.3-.7 1-.1 1.6.4.5 1.3.7 1.5.3zm4.2-.5h-.8c-.3 0-.1.1.3.1h.5zM67 84c-.2-.8-.3-2.5-.4-3.8 0-2.4-.4-3.1-1-2.5-.3.1-.5.6-.5.9a7 7 0 0 1-.4 1.7c-.4 1.3-.5 2.5-.1 1.9.4-.7.9 0 .9 1.2 0 .5.2 1.3.5 1.9.4.8.6.8.9.5.3-.3.3-.6 0-1.8zm-45.8.4c.4-.3 1.2-.4 3.8-.5l3.6-.2c.3-.3 7-1.1 8.5-1.1 1.7 0 2-.4 1.1-1.3a3 3 0 0 0-1.3-.7c-1-.2-2.1.3-2.3.8-.1.4-.3.5-.9.3-.4-.1-1.4-.2-2.2-.1-.9 0-1.6-.1-1.6-.2 0-.5-1.1-.6-2-.1-.7.3-1.6.4-2.6.4-2 0-5 .6-5.6 1.3-.2.2-.8.6-1.3.6-1.1.3-1.7.9-1.2 1.2.6.4 3.4.1 4-.4zm82-.9a22 22 0 0 0-4-5 3 3 0 0 1-1-1.2c-.3-.5-1-1.2-1.4-1.5L94 73.5 92 72c-.2 0-.3.3-.3.7 0 .4.3.9 1 1.5 1.3 1 6.8 6.1 8.8 8.2 1.2 1.2 1.8 1.5 1.8 1zm-78.5-2.6a1 1 0 0 0-.7 0c-.1.1 0 .2.4.2.3 0 .5-.1.3-.2zm38.8-.3c0-.2 0-.3-.2-.3s-.3.1-.3.3c0 .1.1.2.3.2.1 0 .2 0 .2-.2zm-2.4-2.7c0-.7-.3-1-.6-.5l-.3 1.4-.1 1.1.5-.6c.3-.4.5-1 .5-1.4zM39.6 79c.1-.1 0-.4-.2-.7l-.5-.5.5-.3c.5-.4.6-1 .3-1.7-.2-.8-.7-.8-1.3 0-.3.2-.8.4-1.2.4-.4 0-.8.2-1 .4-.1.5.9 1.8 1.5 1.8.3 0 .6.1.8.4.3.4.8.5 1.1.2zm84-1.2c-.3-1.2-.4-1.3-.4-.1 0 .5 0 1 .2 1s.2-.4.1-1zm-62.9-1.9c0-.5-2.5-3.4-3-3.4s0 1.2 1.1 2.5c1.3 1.6 2 1.9 2 1zm-23.3-1.7.4-1 .4-.6-.5-.1c-.4-.2-.5-.3-.4-.9.2-.5.1-.6-.4-.6l-1-.3-.6-.3.5-.4.4-.4h-.7c-.4 0-1 .2-1.2.4-.4.2-.6.2-.9 0-.5-.6-1-.4-1.2.6-.5 1.5-.4 2 .4 2.8.8.9 1 1 1.4 0 .1-.3.3-.6.5-.6l1.3 1c1.2 1 1.6 1.2 1.6.4zm30.2-.4c0-.3-.1-.5-.3-.5-.5 0-.8.7-.6 1 .3.2.8 0 .9-.5zm-4.1-.2-.4-.3c-.2 0-.2.2-.1.3l.4.3c.1 0 .2-.2.1-.3zM41.6 72l.1-.8c.2-.3.4-.2.9.4.7.9 1.3.7 1-.3-.2-1 .4-1 .8-.1l.4.8a9 9 0 0 0 2.4-2.6c0-.2-.2-.3-.9-.1l-1 .1v-.6c0-.6 0-.7-.5-.6-.7.2-.7-.4 0-1s.5-1.1-.2-.7c-.6.3-1.6.3-1.6 0l.6-.8.6-.6-1.4.2-1.4.1.2-.6c.1-.4 0-.5-.3-.4l-.8.2c-.5 0-1.5 1.5-1.5 2.4 0 .6.5 1.1 1.5 1.6.6.2.6.4.7 1.7V72l.2.4.2.1V72zm49.5.1c.1-.4-.3-1.2-1.8-2.8-1-1-1.5-1.3-3.5-1.9-2.6-.8-3.1-.8-3.1-.3 0 .3 4.2 3.3 4.7 3.3l1.5 1c1.4 1.2 2 1.4 2.2.7zm-25.6-.9 1.2-1-.9.1c-.5.1-1 0-1.3-.2-.6-.5-.4-1 .3-1 .4 0 .7-.1.7-.2 0-.4-1-.5-1.5-.2l-1.8.4-2.2.4-.9.2-.1-.8c-.2-1-.5-1.2-2-1.2-1 0-1.3 0-1.3-.3 0-.6 2.8-.6 3.9 0l1.3.4.7.2c.4.6 1.4.3 1.7-.4.3-.5.5-.6 1-.5 1.3.5 2.3.5 2.7 0a2 2 0 0 1 1.3-.3c1 0 1.6-.4 1.8-1.3.1-.5.3-.6.9-.6.9 0 1.6-.7 1.6-1.7 0-1.5-3.3-2.8-7-2.8-1.2 0-2.5-.2-2.9-.3-1.5-.7-8 1.7-8.6 3.1-.4.9.2 1.4 1.5 1.4a4 4 0 0 1 1.7.5l.8.4.8-.4c1-.6 3-.7 2.8-.2 0 .2-.6.4-1.2.4s-1.5.3-1.9.5c-1 .5-1.4.5-1.9 0-.3-.4-.7-.4-2-.3-2 .2-3.5.9-4.3 2-.4.5-.8.8-1.2.8-.7 0-.9.7-.2 1 .4.2 2.3-.6 2.8-1.2.1-.2.7-.3 1.3-.3.8 0 1.2.2 2 .9.9.8 1.3 1 2.3 1 1 0 1.2 0 1.2.5 0 .6 1.2 1 1.7.5l.9-.3c.5 0 .6.1.5.5-.2 1 .3 1.4 1.5 1.4 1 0 1.3-.2 2.3-1.1zm-1-6a.6.6 0 0 1-.3-.5c0-.2.2-.3.8-.2 1.2.2 3.3-.7 3.4-1.5.1-.8.8-1 .8-.3 0 1.1-3.5 3-4.7 2.5zm5.8 5.1c.3 0 .6-.4.7-.7.1-.6.5-.7.7-.1.2.6 1 .5 1.2-.2.3-.9 2.6-2 4.5-2.2 1.6-.2 3.5-.9 3.3-1.2h-1c-1.1 0-1.7-.3-1.3-.9.4-.4.3-.5-.2-1s-.6-.5-1-.2c-.4.1-1.2.3-1.8.2-1 0-1.3 0-1.5.4-.2.5-4.5 3.2-5.4 3.5-.6.2-.8 1.3-.3 1.6v.8c-.4.8-.2 1 .8.5l1.3-.5zm-30.5.1c0-.3-.1-.5-.2-.5-.2 0-.3.2-.3.5s.1.6.3.6l.2-.6zm-1.7 0c.3-.5 0-.6-.4-.1-.2.2-.2.4 0 .4l.4-.3zm1-.8-.4-.2c-.1 0-.2 0 0 .2 0 .2.1.3.2.3l.1-.3zm150.3-1.2a1 1 0 0 0-.7 0l.3.1c.4 0 .6 0 .4-.1zm5 0h-2.8 2.8zm-159.2-.6c.4-.2.6-.4.5-.7-.1-.3 0-.5.4-.6.5-.1 1-.7.7-1.1-.3-.4.2-.3.7.2l.5.4.9-.9 1.3-1.3.5-.4h-.4c-.3-.1-.9 0-1.4.1-.8.2-1 .2-1.5-.2-.7-.6-.6-.8.6-1 1.2-.4 3 0 3.6.6.6.8 2.2 1.5 2.9 1.3.5-.2.7 0 .8.3 0 .4.4.6 1 .7.4 0 1.4.4 2 .6l1.3.5.5-.6c1-1.2.7-1.8-1-3l-1.6-1.1v-.8l.1-.8h-2c-1 0-2.3-.2-2.7-.3a3 3 0 0 0-1.5.1c-.7.2-1 .2-1.7 0-.7-.3-1.3-.2-3.1.2l-2.9.5c-.4-.1-.8 0-1 .2-.2.3-.5.5-.7.5l-1 .6-.6.7.5.4c.3.2.5.4.4.5-.3.3-1.7-.1-2-.5-.3-.2-.7-.4-1.1-.4-1 0-1.5.7-1 1.2.3.3.4.3.5 0 .1-.2.3-.4.5-.4.4 0 1.6.9 1.6 1.1l-.6.2h-.6l.8.7 1 .6 1.4.6 1.4.5c.3 0 .5.2.6.5.2.6.4.7 1.4.3zm-.6-.8c0-.2-.3-.3-.5-.2-.4.2-.6 0-.8-1.2 0-.7 0-.8.2-.4.1.3.4.4.5.3.4-.2 1.3.7 1.3 1.3 0 .5-.4.6-.7.2zm.9-5c-.4-.7 1.5-1.6 2.4-1.1.4.2.3.3-.8.8-1.5.6-1.4.6-1.6.3zm13 5.5c0-.1-.1-.3-.3-.3l-.6.3c0 .2.1.3.4.3.3 0 .6-.1.6-.3zm138.3-.3 1.6-.4-1.8-.2h-2.7l-1.6-.1c-.8-.3-3.6-.1-3.6.3 0 0 .4.2 1 .2.5 0 .9.1 1 .4.1.3.5.4 2.3.3 1.2 0 3-.3 3.8-.5zm16.6-.4 1.2-.3c.3 0 .6-.2.6-.3 0-.4-4.5-.1-5.5.4l-1.6.4h-.7l.6.3c1 .3 4.5 0 5.4-.5zM52.8 65.4l.2-.4c0-.6-.3-.5-.9.2l-.5.6.5-.2.7-.2zm135-.2-1.5-1.1-.7-.7-.4.5c-.6.8-.5 1.2.3 1.4l1 .2 1 .1h.9l-.7-.4zm25.9.2c-1.7-.4-4-.4-4.2 0-.1.2.5.3 2.5.2 2 0 2.4 0 1.7-.2zm14.8-1.6c-.6-.3-1.6-.3-1.6 0 0 .2.4.3 1 .3.7 0 .9-.1.6-.3zm-152-.8c.1-.3-2-1.8-2.5-1.8-.2 0-.7-.4-1.1-.7a3 3 0 0 0-2-.9c-1.8-.1-2 .3-.4 1 1.2.4 1.6.6 3 2 .3.5.7.7 1.6.7.7 0 1.3-.1 1.3-.3zm47.6 0c.1-.2-.5-2.1-.7-2.1-.2 0-.2 1.9 0 2.1.1.4.5.3.7 0zm-69.6-1.8c.2-.4-.4-1.1-1-1.1-.7 0-.8-.4-.1-1l.5-.6H52a9 9 0 0 1-2.3-.2 9.8 9.8 0 0 0-5.2-1.4c-1 0-4.6-1-6-1.7-.4-.2-.8-.3-1-.1 0 .2.4 1.3 1.1 2l.5.5-.6.3-1.6.8-1 .6H37l2.7-.3 4.8-.2h3.3l1.5.6c.9.4 2 .8 2.7.9.6 0 1.2.3 1.3.6.3.6 1 .7 1.2.3zm37.7-20.4c.2-.7 0-3-.2-3.7-.2-.7-.5.7-.6 2.7 0 1.3.1 1.8.3 1.7.2 0 .4-.4.5-.7zm29.2-4.4c-.1-1-.2-1.1-.4-.8-.3.6 0 2.7.4 2.3v-1.5zm16-6.7c0-.4-1.3-.8-1.3-.3 0 .3.8.8 1.2.8 0 0 .2-.2.1-.5zm-45.8-6c0-.4 0-.6-.2-.6L91 23c-.4-.1-.6 1.8-.3 2.8L91 27l.2-1.2c0-.6.3-1.5.4-2zM54 154.8c-.4-.5 0-.6 2.8-.8 2.7-.1 2.9.2.3.5l-1.4.4c-.2.4-1.3.3-1.7 0zm27.8-2c0-.1.4-.3 1-.3 1 0 1 .2-.2.4l-.8-.1zm72.2-3.6 2.3-2c2.6-2.1 4.6-4 8.1-7.3 2-1.9 2.5-2.7 3.3-4.2l1-2c.2 0-.4 2-.9 2.7l-.8 1.5c-.6 1.5-2.3 3.8-3 4-1.5.8-3 2-5 3.9a32.6 32.6 0 0 1-4.7 3.6c-.2 0-.3-.1-.3-.2zm-83-1.4c.2-.2.6-.3 1-.3h.7l-.6.3c-.7.3-1.2.3-1 0zm81-1.3-2-2.4c-1.1-1.4-1.3-1.5-1.7-1-.3.2-.4.2-.4-.3 0-.3-.2-1.2-.5-1.9s-.5-1.6-.5-2c0-.4.2-.2 1 1a6 6 0 0 0 1.4 1.5c.1 0 .2.2.2.5 0 .6 2.2 3.3 3 4 .6.3.8.3 1.1 0 .3-.2.4-.2.3.2l-.1 1c0 .7-.7.5-1.8-.6zm-67-.3a57.2 57.2 0 0 1 7.6-.3c-2.4.3-9.1.6-7.6.3zm-8.4-.5h.8c.1.1 0 .2-.5.2-.4 0-.6 0-.3-.2zm1.5-.1 2-.3c1.2-.1 1.7 0 1.4.1-.3.2-3.7.4-3.4.2zm17.4-.1h.6l-.3.1c-.4 0-.5 0-.3-.1zm61-.6c.2-.4.6-.8.7-.8.5 0 .3.4-.4 1l-.7.7zm7.3.3c0-.2.4-.5.9-.8l1.5-1.2c.3-.4.7-.7.9-.7.1 0-.4.6-1.3 1.4-1.5 1.5-2 1.8-2 1.3zm-89-.8h.8l-.4.1h-.5zm3.4-.2h1.3-1.3zm76.2-2c0-.9.3-1.8.4-2 .4-.3.3.9-.1 2.4l-.4 1.3zm3.3 1.4c0-.2.3-.6.6-1 .6-.6.6-.2 0 .7-.3.3-.6.5-.6.3zm-.8-1.7c0-.3.1-.5.3-.6.1 0 .3 0 .3.2 0 .3-.2.5-.3.6-.2 0-.3 0-.3-.2zm13.3-2.3 2.2-1.8.5-.4-.3.4c-.3.5-3.6 3.4-3.9 3.4-.1 0 .5-.7 1.5-1.6zm-12.6.4.5-1.6.7-1.7c.5-1.4.9-1.7.6-.6 0 .5-.2 1-.3 1.2l-.8 2c-.7 1.8-1 2-.7.7zM22 140c-.1 0-.2-.2 0-.4.2-.4 6.2-.4 6.2 0 0 .1-.3.3-.6.3a138.3 138.3 0 0 0-5.6.2zm2.2-1.5c-1.3-.5-1.2-1.5 0-1.2 1.1.2 2.2.9 2 1.2-.2.4-1.1.3-2 0zm124.5-.7c-.2-.2-.2-1.4.1-1.4.2 0 .5.9.6 1.4 0 .2-.4.3-.7 0zm24.5-.5c0-.2.3-.6.6-.9l.7-.4c0 .2-.3.6-.7 1-.3.3-.6.4-.6.3zm-21-1.5a39 39 0 0 1-1.8-7.1c.2.4.5 1 .8 1.1.5.2.6.5.4 1.1 0 .6.1 1.6.7 3.3.8 2.6.9 2.7.5 2.7l-.6-1zm-4.1-.6c0-.6 0-.8.1-.4v1l-.1-.6zm26.7.1c0-.1 0-.2.2-.2s.2.1.2.2l-.3.3-.1-.3zm-28.8-1.5v-.4c.2.2.2.5 0 .7v-.3zm1.5-.8.1-.8c.2 0 .3 1 .1 1.3-.1.3-.2.1-.2-.5zm7.9-.7-1.2-3c-.5-1.3-1-2.2-1.2-2.2-.3-.1-.5-.6-.6-1.2l-.5-1.8-.6-2.1c0-.7-.2-1.5-.4-1.6a22 22 0 0 1-1.4-4.6c.2-.2 1.4 1.4 1.6 2 .2.6.3.4.4-.8.4-2.7.3-4.5-.3-5.2-.6-.9-.7-1.4-1-3.8l-.2-2.4c-.3-.3-.9-3.2-.9-3.7 0-.3.2-.1.4.5s.6 1.2.8 1.5l.4.8c0 .3.1.5.4.5.2 0 .4.6.5 2.2.1 1.5.3 2.3.6 2.4.2 0 .3.5.3 1.1 0 1.1 1.3 4.5 2.6 6.8l.9 1.7 2.5 5.2c2.4 4.8 2.8 5.7 2.3 5.3-.3 0-3-4.8-3.2-5.5a418 418 0 0 0-4-8.4c-1-2.1-1.3-1-1 4.3.2 3.8.4 4.4 2.4 9.3l1 3.2c-.1.4-.2.4-.6-.5zm14-.3c.3-.7.5-1 .6-.8 0 .3 0 .6-.2.8-.2.1-.3.5-.3.8 0 .2-.1.4-.3.4l.2-1.2zm-23.4 0v-.4c.2.2.2.5 0 .6v-.3zm-2.2-1.3c0-.3.1-.4.2-.2v.5c-.1.1-.2 0-.2-.3zm3.2-1.3c0-.4 0-.6.2-.3v.8c-.1.1-.2 0-.2-.5zm112.6 0a176.7 176.7 0 0 1-3.5-17.7c.2-.3.6 1.3 1 3.3l.5 2.6a80.4 80.4 0 0 1 2.2 9.4c.5 1.5.5 2.5.2 2.5-.2 0-.3 0-.4-.2zm-117.5-.6-.2-4a34.2 34.2 0 0 0-.6-7.2c-.2-2.2-.4-3.2-.7-3.2 0 0-.2-1.8-.2-4 0-3.2 0-4-.4-4.3l-.4-.5-.1 1.2-.6 4a73.7 73.7 0 0 0-1.2 12.5l-.1.8-.4-1.1a75 75 0 0 1 2.2-20.8c.3-1 .4-2.2.4-2.5 0-.4.3-1.4.6-2.2l.5-1.4-.2 1.1c-.1.7-.2 1.8-.1 2.4a273.2 273.2 0 0 1 .4 4.5c.1.2.3 2.4.3 4.9a117.5 117.5 0 0 0 .4 6.4c0 .2.2.4.4.4.3 0 .3-.3.2-1.2-.1-.8 0-1.2.3-1.5.6-.4.5-.7.5 7 0 3.9.2 7.2.3 7.9l.3 1.2h-.7c-.4 0-.8-.2-1-.4zm31 0c.2-.9.6-1.4.6-.8l-.4.9-.4.5zm-38.8-.5c0-.3 0-.4.2-.1v.5c-.2 0-.2-.1-.2-.4zm123 0a7 7 0 0 1-.4-1.3c-.4-2-1.6-2.6-1.8-1v1l-.3-1.2c-.2-1-.5-1.5-1.8-2.7a9 9 0 0 1-1.5-1.8c0-.4-1-.3-1.2.2v.5l-.1-.5c0-.3-.2-.7-.4-1-.3-.3-.6-1.5-.8-3.6 0-.2-.2-.3-.4-.3-.3 0-.3.5-.2 2.7l-.1 2.8c-.4 0-.7-.7-1-2 0-.7-.3-2.2-.6-3.3-.3-1-.5-2.7-.5-3.7s-.2-2.7-.4-3.9c-.5-3.1-.7-5-.4-5 .1 0 .3.4.3 1 0 .5.2 1.2.4 1.6.2.3.3 1.2.4 2 0 1.1.3 3 1 6.7l.2 1 .2-1.8a52 52 0 0 0-.1-9.3c-.4-2.2-.6-13.5-.3-13.3.2 0 .3 1.9.3 5l.1 5.3c.2.5.7.3.7-.4 0-.3 0-.5.2-.5v4.7l-.3 6.5c0 1.1.1 2.2.3 2.7.7 1.7 1 .9.9-3 0-3.7.1-4 .7-1.1.3 1.5.4 3.2.3 6.1 0 2 .3 3 1.3 3.3.3 0 .5.3.5.6 0 .6 1 1.4 1.5 1.2.3 0 .5.1.7.7.1.4.4.8.7.9.5.2.7-.6.4-1.3l-.7-1.6-.5-1-.4.4-.3.6v-1.7c0-.3-.1-.6-.3-.6-.1 0-.3-.3-.4-.8-.1-.5-.3-1-.5-1.2-.2-.3-.3-2.3-.4-6a374 374 0 0 1 .2-17c0-1.4.4-.3.6 2a32 32 0 0 1 0 8.3 18 18 0 0 0 .2 5.7 96.2 96.2 0 0 0 3 13.5c0 .3.2.9.6 1.3.4.5.6 1 .5 1.5 0 .4 0 1 .2 1.5.3.9.2 1.4-.2.6zm-108-1.5c0-.2 0-.4-.2-.5-.6-.2-1.1-6-.6-6.4.2-.1 1.4 5.5 1.4 6.7 0 .3-.1.5-.3.5-.1 0-.2-.1-.2-.3zm24.3 0 .2-.2c.1 0 .2.1.2.3l-.3.2c-.2 0-.2 0-.1-.2zm-11.3-.9.5-.6c.7-.6 1.6-2.8 1.6-3.9 0-.7.1-.9.6-.9.3 0 .5.3.6.7.3.9.7.6 2.3-1.6l1.6-2c.3 0 .1.4-.5 1-1.6 2-2.2 3-2.6 3.7-.2.4-.5.9-.8 1-.2 0-.5.5-.7 1-.1.4-.4.7-.6.7-.2 0-.6.3-.8.6-.5.5-1.2.7-1.2.3zm-15.9-1.6a4 4 0 0 1-.2-1.1l-.4-1.4c-.3-.8-.4-2.1-.4-5.7 0-4.4.2-6 .6-5l.3 3.4a78 78 0 0 0 1.1 9.5c.1.8 0 1-.3 1-.2 0-.5-.3-.7-.7zm103.8-1.1c0-.5 0-.7.1-.5v1-.5zm-130-3 .3-.2c.2 0 .2.1.2.3l-.3.2-.1-.2zm144.3-1c0-.6 0-1 .1-.6v1.2-.6zm-3.4.5-.2-1.1c-.1-.9-.7-3.4-1-4.2l-1.3-4c0-.8-.3-1.8-.4-2.3-.2-.6-.2-1.1-.1-1.3 0-.2.3.5.5 1.4.2 1.2.5 1.7.7 1.7.4 0 .5.4.4 1-.1.8.9 4.4 1.3 4.8.3.3.5 1 .6 2.4.2 1.7 0 2.3-.5 1.6zm-88.8-.8c0-.3.2-.4.3-.4 0 .1 0 .3-.2.5-.3.3-.3.2-.1-.1zm-15.8-.6c0-.3.1-.4.2-.2v.5c-.1 0-.2 0-.2-.3zm-8.7-3.5-.4-4.6c0-.6-.1-1.8-.3-2.5l-.4-2c0-.5-.2-.9-.5-1.1-.7-.5-1.2-4-.5-3.9.2.1.5.9.7 1.7.3.9.7 1.9 1 2.3.2.4.4 1.1.4 2.2 0 1 .3 3 .6 4.4.5 2.1.6 2.8.4 3-.2 0-.4 1-.5 2l-.1 2zm19.8 2.7c0-.2.4-.7.8-1.2l.8-1-.4.9c-.4.8-1.2 1.7-1.2 1.3zm2.1-.4c0-.2.4-1 .9-1.7.6-1 .9-1.2 1-.9 0 .3-.3 1-.7 1.5-1 1.4-1.2 1.5-1.2 1.1zm-150.6-.2h.7l-.4.1h-.3zm145.4-.2c0-.3 0-.4.1-.2v.5c0 .1-.2 0-.1-.3zm-47.7-.3a15 15 0 0 1-4.2-2.5c-1.2-1.3-1.5-2.2-1-3.8.1-.8.2-2 0-2.6-.3-2.6 1.8-9.2 3.6-10.8.7-.8 1-.4.3.4-1.3 1.4-.4 1.9 3.7 2.1 1.8.2 2.7.4 3.2.7.3.3.5.6.4.7 0 0-1.3.2-2.7.2l-2.5.1-1.2-.6c-1.4-.8-2-.8-2.5-.3l-1 3-.6 2.8.3 2 .3 2-.4.2c-.5.3-.6 1.3 0 2.3.5 1 1.6 2 3.4 2.9 1.6.8 2.3 1.4 1.7 1.3l-.8-.1zm148.2-.1.9-6.6a20.7 20.7 0 0 1-.9 6.6zm-246.4-1c-1.3 0-1.8-.6-.7-.6 1.2 0 2.6.3 2.5.6l-.4.2-1.4-.2zm2.7 0a46.6 46.6 0 0 1 12.7-.3c.3.1-1.1.2-4.4.2a107 107 0 0 0-8.3 0zm127.8-.3c0-.4 0-.5.2-.4v.7c-.1.2-.2 0-.2-.3zm7.4 0c0-.4.1-.5.2-.4v.7c-.1.2-.2 0-.2-.3zm-146.3-.6c0-.5.1-.7.2-.4v1c-.1.2-.2 0-.2-.6zm35.9.7c-.4-.4-.2-3.8.2-4 .5-.5.6-.2.6 2 0 1.8-.3 2.5-.8 2zm71.1-.1c-.2-.3.1-.5 1.8-.7 1.5-.2 1.4-.5 0-.8l-2.2-.3c-1.1-.1-1.5-.9-.4-.9.4 0 .3-.1-.5-.5-1.4-.6-2.2-1.2-2-1.5.2 0 .7 0 1.3.3.5.3 2.3 1 4 1.5 2.1.6 3.3 1.1 3.8 1.7.4.4.6.8.6.9l-2.6.2a18 18 0 0 0-3 .2l-.8-.1zm52.3-.3c0-.2.2-.5.6-.9.3-.3.8-1 1-1.6.4-.5.8-1 1-1 .1 0 .3 0 .3-.2 0-.3 1.7-2.8 2.3-3.4l.5-.9c.5-2 1.2-3 2.1-2.6.4 0 .1.7-1.3 2.4-.5.7-1 1.4-1 1.6 0 .5-2.1 4.5-2.4 4.5l-.4-.3c0-.1-.7.4-1.3 1.2-1.3 1.5-1.4 1.7-1.4 1.2zm-9.4-.4-.2-1.6c0-1.1.1-1.4.4-1.3.3.1.4.6.4 1.5 0 1.2-.2 1.7-.6 1.4zm-137.5-.5c0-.5 1.1-.6 7.3-.8 3.6-.2 4.4-.1 4.2.1-.2.3-1.8.4-5 .6-2.4 0-5 .2-5.5.4-.8.1-1 0-1-.3zm141.9 0c0-.3 0-.4.1-.2v.5c0 .1-.2 0-.1-.3zm-129.3 0c-.3-.4-.1-.6.6-.9.9-.3 1.1-1.1 1.1-3.7 0-.7.1-1.4.3-1.5.4-.3 0 5.8-.4 6-.4.3-1.3.3-1.6 0zm-29-.5a41.7 41.7 0 0 1 .2-6.1l.3 4.4c0 1.4 0 2-.2 2-.1 0-.3-.1-.3-.3zm9.4-3.6c0-2.9 0-3.6-.6-5.2-1-2.8-.8-7.3.3-7.3.1 0 .2.3 0 .6-.4 1.7-.4 4.1.1 6 .5 1.7.6 2.8.6 5.7 0 2 0 3.6-.2 3.6-.1 0-.2-1.5-.2-3.4zm116.4 1.6c.2-1.8.5-2.7 1-2.7.1 0 .2.4 0 1-.1 1.3-.8 3.5-1 3.5v-1.8zm24.5-2.6c0-5 .2-9.3.6-9.3v2l-.3 7-.2 4.9zm8.2 3.6c0-.3.1-.5.2-.3v.7c-.1.1-.2 0-.2-.4zM25.1 112c-1.7-.1-1.5-.7.2-1 2.2-.2 5.8-.1 5.8.2 0 .1-.6.2-1.3.2a7 7 0 0 0-2.2.4 4 4 0 0 1-1.2.4l-1.3-.2zm8.4-1.5c.7-.7 1-.9 1-.5.1.6-.7 1.4-1.4 1.4h-.5zm-20.1 0c0-.3 0-.4.1-.2v.5l-.1-.3zm5.3-.1c-.3-.4-.2-.6 0-.6.4 0 1 .6 1 .9 0 .4-.8.2-1-.3zm101.3-.2c-3-2-5.8-5.3-5-6 .2-.2.3-.2.4 0 .4 1 2.7 3.6 4.3 4.9 1.7 1.3 2.2 1.8 1.7 1.8l-1.4-.7zm-98.6.3c-.3-.2-.5-1-.3-1 .5 0 1.5.6 1.5.9 0 .2-.7.3-1.2 0zM256 110c0-.4 0-.5.2-.3v.6c-.1.2-.2 0-.2-.3zm-85 0 .7-2.4 1-3c.1-.8.4-1.2.6-1.2.7 0 .7.8 0 1.7-.3.4-.8 1.7-1.2 2.8-.6 2-1 2.8-1 2.1zm-25.5-2v-.4 1-.6zm110.1.5-.1-2.1v-1.8l.2 2.1c.2 2.2.2 2.6 0 1.8zm10.5-1.1c0-1 0-1.4.1-.9v1.7-.8zm-230.8.8c-.2-.4-.1-.6.1-.9l.5-.9c0-.3.2 0 .3.6.3 1.6-.3 2.3-.9 1.2zm129.7-.7.2-1.7c.2-.3.3 0 .1 1.2-.2 2-.3 2.2-.3.5zm-42.9.7c0-.2.2-.3.5-.3s.6.1.6.3l-.6.2c-.3 0-.5-.1-.5-.2zm38.2-.6v-.4c.2.2.2.6 0 .9v-.5zm99.8-.4-.1-1.7c0-.4-.2-.9-.4-1-.2-.2-.5-1-.7-1.9a206.1 206.1 0 0 0-4.2-17.2l-.7-2.8c-.4-1.7-.5-3.5-.2-3.5.2 0 .4.8.6 1.7a79.5 79.5 0 0 0 2.1 9 35.3 35.3 0 0 0 1.7 5.8c.3 1 0-3.7-.6-8-.6-5.4-.8-11-.3-11.1A78.6 78.6 0 0 0 259 94l.7 5.4c.2 1.7.5 4 .8 5l.5 1.9-.3 1-.4 1zm-232.3-.1c-.7-.9-.8-1-.5-2 .4-1.5 2 0 2 1.8.1 1.3-.5 1.3-1.5.2zm19.2.5c.2-.5.8-.6.8-.1 0 .2-.2.4-.5.4-.2 0-.3-.1-.3-.3zm215.7 0 .1-.7c.3-.4.3-.4.3.3s0 .9-.4.4zm-243.6-.4-.2-1.2c0-.7.1-1 .4-1 .3 0 .4.3.4 1.2 0 1-.2 1.4-.6 1zm11 0c0-.2 0-.4.3-.5l.6-.8c.3-.6.7-.6.8 0 .1.3-.1.7-.5 1-.7.5-1.3.6-1.3.2zm90.5-.2-1.4-.5c-.5 0-.9-.2-.8-.3.1-.3 6-.3 6.3 0l-.1.6c-.4.6-3.2.7-4 .2zm22.8-1.5v-1 2-1zm-130.3 1c0-.4 0-.5.2-.2v.5c-.1 0-.2-.1-.2-.4zm24-3.3.2-4c.2-.4.7-.4.5 0a96.8 96.8 0 0 0-.6 7.6l-.1-3.6zm212.9 3.2v-1.8l.4-1.3v1.7c0 1.8-.1 2.2-.4 1.4zm17.5.2c-.3-.4 0-.8.7-.8.6 0 .6.4 0 .8h-.7zm-107.2-1v-.6c.2.3.2.7 0 1v-.5zm-26.3-.5c0-1.3.3-2.5.6-2.3.2.1.3 1.8 0 2.6-.2 1-.6.8-.6-.3zm137.4.3c-.2-.8 0-3.8.4-5.4.1-.6.5-1.4.8-1.7.8-.9.8-2.6 0-3.2l-.6-.4v-2.4c0-1.4-.2-3.4-.4-4.4-.2-1.5-.2-2.3.3-4.9l.6-6.2c0-1.8.2-3.4.3-3.5 0-.2.5-.3.9-.3h.7l.3 1.2c.3 1.7.2 15.4-.1 19.8-.3 3.7-1 5.7-1.9 6.2l-.5.3.1 2c0 1.2.3 2.2.4 2.3.5.6.2 1.2-.4 1.2-.5 0-.7-.1-.9-.6zm2.2-25.9c0-.2-.1-.1-.1.2 0 .3 0 .4.1.3v-.5zm-15.9 26c-.3-1-.3-2.1-.1-2.1.1 0 .3.3.3.6v1.2c.1.6 0 .8-.2.2zm-92.2-2c0-.6.1-1.2.3-1.2.3 0 .3.6 0 1.8l-.2.8zm102.5 1c-.2-.4.6-1.1 1.3-1.1.7 0 .5.7-.2 1-.9.4-.9.4-1.1 0zm-115.1-2.3v-.5 1.1-.6zm91.6-2.2-.8-5.7c-.3-2.2-.6-8.5-.3-7 .4 1.8.7 4.4.8 6.2 0 1.1.4 3.8.7 5.8.6 4.3.6 3.8.3 3.8l-.7-3zM.7 102.4c0-.6.6-.7.8-.1.2.4 0 .7-.5.7-.2 0-.3-.3-.3-.6zm159.7-.7c-.3-1.5-.2-4.6 0-4.6.7 0 1 1.2.7 3.3-.2 2.3-.5 2.8-.7 1.3zm-9.1.2v-.3c.2.2.2.5 0 .6v-.3zm-132.8-.1c-.2-.6.6-1.7 1.1-1.7h.5l-.5.4c-.2.3-.4.8-.4 1.1 0 .7-.5.8-.7.2zm155 0a186.8 186.8 0 0 0 2.2-7c0-.6 0-.6.3.4.4 1.2.4 1.3-1.2 4.8-.8 2-1.4 2.7-1.4 1.8zm76.8.1.1-.7c.2-.4.3-.4.3.2 0 .8-.1 1-.4.5zm-73.7-.7.4-.9c.6-.6 2.1-6.5 1.8-7-.2-.3-.5-.1-.7.4-.2.7-.7.7-.7 0 0-.8.3-1.6.7-1.6.2 0 .6-.4 1-1l.5-1 .1.6c0 .4-.1 1.9-.4 3.4-.4 1.6-.5 3.2-.4 3.7.1.7 0 1-.5 1.5-.3.3-.6 1-.7 1.4-.2.9-1 1.3-1 .5zm-32.8-1.9c0-1.2.1-2.2.3-2.3.3-.2.3 1.2 0 3.2l-.2 1.3v-2.2zm22.3 1.4c0-.4.1-1.5.4-2.4.6-2.5.7-3 .3-3.7-.2-.4-.2-.7 0-1 .1-.3.3-.4.3-.2 0 .1.2.2.4.1.3 0 .4.1.4.8 0 .5-.1 1-.3 1.1-.1.1-.3.5-.3.9 0 1-1.2 5.4-1.2 4.4zm-132-.4c-.6-.5-1-1.6-.4-1.6l1 .8c1 1 .6 1.7-.5.8zm-16.6.1c-.3-.3-.2-.9.2-.9.2 0 .4.2.4.4 0 .5-.4.7-.6.5zm116.8-.5c0-.4 0-.6.2-.3v.8c-.1.2-.2 0-.2-.5zm114.9-1.2c0-1 0-1.3.1-.8v1.7l-.1-.9zm-221.8.5-4-.2c-3 0-3.8-.3-1.8-.6l3.8-.2c2.2 0 3 0 3.8.4l1 .7c.1.3-1.2.2-2.8 0zm126-1c0-.7 0-1 .1-.6v1.2l-.1-.6zm87.2.4a67.3 67.3 0 0 0-1-4.6 91 91 0 0 0-.7-3.3c-.4-2.1-.5-3-.1-2.7a94.3 94.3 0 0 1 1.8 10.6zm-205.2-.2-.2-.5-1.3.1-2.5.4-1.1-.1c0-.4 1.4-.6 4-.7H36v.7c.2.8-.4 1-.6.1zm-34.6-2c-.2-1.5-.2-4.3 0-4.3.4 0 .7 4.8.4 5.1-.1.1-.3-.2-.4-.8zm267.2.8c-.6-.2-.4-.6.6-.7 1-.2 2.4 0 2 .4-.3.3-2.2.5-2.6.3zm-120-.7c-.2-.3-.2-.6-.1-.6.2-.3.4.1.3.6v.5zm3.5-.5c0-.4-.1-.7-.2-.7-.2 0-.2-2.5 0-3.1.2-.3.3-.3.6 0 .3.2.4.6.2 1.8l-.1 2c0 .3-.1.6-.3.6l-.2-.6zm8.6-4.2c-.2-6 .1-15.3.6-15.5.3 0 .3.3.2 2.1a273.5 273.5 0 0 0-.5 17.9l-.3-4.5zm-141.4 4a42 42 0 0 1 9-.2l.2.2c-.7.2-9.5.2-9.2 0zm98.5 0c.1-.1 1.3-.2 2.7-.2 1.6 0 2.4 0 2.3.2 0 .2-1.2.3-2.6.3-1.6 0-2.5-.1-2.4-.3zm28.7.2-.1-1c-.1-.4 0-.8.1-.9.4-.3.6.6.3 1.4-.1.4-.3.6-.3.5zm7.9-.6c.6-2.7-.2-9.2-1.3-10-.3-.2-.4-.8-.6-2.6l-.1-2.3.5-.4c.3-.2.5-.7.5-1.1 0-.4.2-1 .4-1.4l.4-.7-.1.7-.4 1.8c-.4 1.8-.4 3.3.3 5.8l.8 3.3c.1.6.4 1 .6 1 .4 0 .4.2.2 1.2L155 93c0 .6-.1 1.1-.4 1.3l-.4.8c0 .2-.1.6-.3.8-.2.3-.2.2 0-.4zm28-.2 1-1c.4 0 .1.5-.8 1.2l-1 .8zm-5.2.2c0-.3.1-.4.2-.2v.6c-.1 0-.2-.1-.2-.4zm-2.6-.5.4-1.4c.5-1.2.8-.6.3.8-.3 1-.7 1.3-.7.6zm-29.6-.5c0-.5 0-.6.1-.4v.8l-.1-.4zm117.9.4c-.3-.4-.2-2.3.3-7l.5-5.8c0-1.4.2-1.6.9-1.2l.4.2v3a74 74 0 0 1-1.2 9.7c-.2 1-.6 1.6-1 1.1zm-75.9-.6c0-.1.1-.2.3-.2.1 0 .2 0 .1.2 0 .2-.2.3-.3.3l-.1-.3zm-45.2-1c0-.5 0-.9.2-1 .3-.1.3.4 0 1.1l-.2.5zm-26.8-.3c-.3-.1-.5-.4-.5-.5 0-.2 1.4-.2 4-.1 4.1.1 4.5.2 4.5.6 0 .3-7 .3-8 0zM13.7 87.6c0-3 0-5.3.2-5.3.3 0 .6 6.4.5 9.9 0 .4-.2.7-.3.7-.3 0-.4-1.1-.4-5.3zm126 4.8V92v.6-.3zm5-1.3.4-2.6c.2-.4.4-1.8.6-3 .1-1.2.4-2.4.5-2.5.5-.5.6.2.2 2.3l-1 4.7c-.5 3.1-.8 3.6-.6 1.1zm38.4 1c0-.4.3-.8.5-1 .3-.1.4-.4.4-.5 0-.2.1-.3.3-.3.3 0-.4 1.5-1 2l-.4.5zm-35.6-.2c0-.4.1-.6.2-.4v.7c0 .2-.2 0-.2-.3zm19 0 .3-.7.2-.5v.7c0 .4 0 .7-.2.7-.1 0-.2 0-.2-.2zm21.2-1.7v-1l1.8-1.6c1-.9 2.3-2 3-2.3 2.2-1.5 1-1.5-2.1 0-2.2 1-2.8 1.2-2.6.8.7-1 7.7-4 8.6-3.6.4.1.3.2-.3.5-.5.3-.7.6-.6.8.2.4 0 .5-2 2L190 89l-2.2 2.2v-1zm-46 .2c0-.3 0-.4.2-.2v.5c-.1.1-.2 0-.2-.3zm105.6-.2c0-.4 0-.8.2-.9.2 0 .3.2.3.7 0 .4-.1.8-.3.8l-.2-.6zm-241.9-1c0-.6.1-1 .3-1 .1 0 .3.4.3 1s-.2 1-.3 1c-.2 0-.3-.4-.3-1zm231 .9a62 62 0 0 1-.9-12.7c.3-3.5.6-2.5.5 1.3-.1 2.5 0 4.7.3 7.4.5 3.5.5 4.7 0 4zM9.8 89V77.6c.3-.5.9.8.7 1.6l-.3 5.7a74.5 74.5 0 0 1-.4 4.4zm174.7.7a11 11 0 0 1 3-3.2s-.6.9-1.5 1.8c-.8 1-1.5 1.6-1.5 1.4zm-11.8-.7a50 50 0 0 1-.2-8c.4-.7.5 0 .5 4.3 0 4.1 0 5-.3 3.7zm-15.9-.5c-.3-2.4-.8-10.6-.6-11.2.4-1 .7.2.6 2.2 0 1.2 0 3.7.3 5.8.1 2 .2 3.8 0 4l-.3-.8zm20.4.1c-.1-.2-.3-.2-.4-.1-.4.2-.3-1 0-2.4.7-1.7 1-7 .7-7.6-.3-.4-.3-.6.1-.8.3-.1.5-.5.5-.8 0-.2.1-.5.3-.6.1-.1.2.1.2.6 0 .4.1.9.3 1l4.2.4 4.2.3c.3.4-2 .5-5.2.3l-3.7-.2-.1.7c-.3 1-.2 2.4.3 2.9l.4.5-.6 1.6c-.3 1-.6 2-.6 2.6 0 1.2-.3 2-.6 1.6zm-29.2-.5c0-.4 0-.6.1-.4v.7l-.1-.3zm45 .2c0-.2.4-.6.6-.5l-.3.5c-.2.1-.4.2-.4 0zm-41.3-1.3c0-.4 0-.5.1-.3v.6l-.1-.3zm14.9-3c.2-5 .4-6.9.9-7 .3-.1.3 0 .2.6-.4 1.6-.7 4.6-.7 6.9 0 1.3-.1 2.5-.3 2.8-.2.2-.2-.7-.1-3.4zm102 2.7c0-.3 0-.5.2-.3v.7c-.1.1-.2 0-.2-.4zm-73.6-.2c0-.2 1.3-1.2 1.5-1l-.7.7c-.4.3-.8.5-.8.3zm-12.8-.4.3-.3-.1.5c-.3.2-.3.2-.2-.2zm49 0-.2-1.4v-1l.3.6c.2.4.2 1 .2 1.5 0 .6-.1.7-.3.3zm-231-1L0 81v-3l.5-.1c.4-.1.5 0 .3.6l-.2 4.3c.1 3.6 0 4.4-.3 2.3zm246.8 0c-.5-.6-.9-2.3-1-5.3l-.1-2 .4 2.9c.3 1.5.6 3 .8 3.1.3.4.7 1.9.5 1.9l-.6-.6zm21.7-1.5v-1.2 2.3-1.1zM183 85.3c0-.3 1.3-1.8 1.4-1.6 0 0 0 .4-.4.7l-.5.9c0 .1-.1.2-.3.2-.1 0-.2 0-.2-.2zM143.3 84c0-.3 0-.3.2-.1v.5c-.2 0-.2 0-.2-.4zm90-1v-1.6l.2 1c.3 1.5.3 2 0 2-.2 0-.3-.6-.2-1.5zm16.2.7.1-.3c.2 0 .3.1.3.3l-.1.2-.3-.2zm-9.2-.4c-.3-.7-.2-1.5 0-1.5.4 0 .6.7.4 1.4l-.2.5zm-55.8-.1c0-.3 1.5-2 1.8-2 .2 0-.3.8-1 1.6-.5.6-.8.7-.8.4zm-40.8-.7.1-1 .2-.6v1c0 1 0 1.2-.3.6zm84 0c-.2-.3-.3-1.8-.3-3.4 0-1.5-.1-3.1-.3-3.5-.3-1-.3-1.2.2-1.2.2 0 .4.4.5 1.4a27 27 0 0 1-.2 6.7zm-6.5-.5c-.2-.7-.4-7-.1-7.2.3-.2.5.6.5 4 .1 3 0 4.2-.4 3.2zm9.4-2a126.4 126.4 0 0 0 0-4.3c.2 0 .2 1.4.2 3v3.1c-.2 0-.2-.8-.2-1.8zm21.6.7.1-1.3c.2-.2.2 0 .2.9 0 1.4-.1 1.6-.3.4zm-111.7-1c.4-.8.7-1.9.7-2.3 0-1.2.6-2.5 1.3-2.5l.5.1c0 .4-.9 2.5-1.1 2.8-.2.2-.7 1.1-1 2-.3.8-.7 1.5-.8 1.5-.2 0 0-.7.4-1.5zm84.3.9c0-.3 0-.4.1-.2v.5l-.1-.3zm17.6.3a10 10 0 0 1-.2-2.6c0-1.7.1-2.3.3-2.2.2.2.2 1.3.2 2.6s-.2 2.3-.3 2.2zm-98.1-1.4c.1-1.7.5-2 .3-.4a4 4 0 0 1-.3 1.5v-1zm28.4.3c0-.2 0-.6.2-.8.2-.4.3-.4.3.4 0 .9-.2 1-.5.4zm60.5-.8c-.1-.7 0-1.4 0-1.6.2 0 .3.5.3 1.3 0 1.8-.2 2-.3.3zm30.3-.6c0-.8 0-1.9.2-2.3l.2-.8v1l-.2 2.2-.2 1.3v-1.4zm-242.3.8c-.1-.2.2-.3.7-.3.6 0 .8 0 .5.3-.6.3-1 .3-1.2 0zm-8.1-.3c0-.2.1-.3.3-.3.1 0 .2.1.2.3 0 .1 0 .3-.2.3a.3.3 0 0 1-.3-.3zm211.1 0-.1-1c-.4-1.7-.4-3.2-.2-3.2.3 0 .5.7.7 3l-.1 1.5c-.2 0-.3-.2-.3-.4zm44.9-.5V75l.5-6.4a252.9 252.9 0 0 1 1.4-19c-.2-.6.2-1.2.7-1l.4.1V59c.2 0 .3-.4.3-.9s.1-1.2.3-1.6l.5-1.8c0-.5.2-1 .4-.9.3 0 .3.4 0 2.3-.1 1 0 1.2.4 1.3.4.1.5.3.4.8l-.3 4c-.2 2.8-.1 3.3.3 3.7.3.4.4 1 .3 3.2V72h-.7c-.5.1-.6 0-.5-.6 0-.4-.2-1-.4-1.3-.4-.4-.5-1-.6-2.3 0-1-.2-2-.3-2.1-.2-.2-.2-1-.2-1.8.3-2.6.3-3 0-3.1-.2 0-.4.4-.5 1L271 65a54 54 0 0 0-.6 7.5c-.1 4.4-.2 5.4-.6 5.7-.3.3-.5.4-.6.2zm-51.3-1.6.1-1.6c.3-.5.3-.5.4 1.4.1 1.8-.3 2-.5.2zM17.7 77c-1-.3-1.5-1-1.3-1.8.3-.8.6-.7 1 .4.1.5.4 1 .5 1h3.3c1.8 0 3 0 3.1.2.1.1-.7.2-2.4.2l-3 .1a3 3 0 0 1-1.2 0zm220.2 0c-.3-1-.5-3.3-.2-3.5.3-.2.4.2.7 2 .1 1.2-.2 2.2-.5 1.5zm-23.3-.1c-.2-.3-.2-1 0-1 .4 0 .7.8.4 1h-.4zm-64.4-1c0-.3 0-.4.1-.3v.7l-.1-.3zm-20.8-.7V74c.3-.3.4.2.3 1.3v1.2zm73.1.5c1.1-.3 7.7-.6 7.7-.3 0 .1-.4.3-1 .4-1.4.2-7.5.2-6.7 0zm49.5-1c0-.2.1-.6.3-.8.2-.3.2-.3.2.3 0 .4 0 .8-.2.9-.2 0-.3-.1-.3-.4zm-65-.3c-4 0-7.1-.2-7.1-.2l-.1-.4a1395.1 1395.1 0 0 0 37.6 0h.6l-.4.3a472.8 472.8 0 0 0-14.2.3h-16.5zm-174-.7c-.2-.4-.1-4 .1-4.2.6-.3 1.8 1.7 1.8 2.9 0 1-1.5 2-1.9 1.3zm235.8-.3c-.3-.3-.3-1.1 0-1.1.2 0 .3.3.3.6 0 .7 0 .8-.3.5zM22.2 72l-.5-.6-1.8.2c-2.4.2-2.1-.2.3-.6 1.6-.3 2-.3 2.5 0 .8.6 1.7.6 2 0l.3-.4.4.5c.2.3.7.6 1.2.7 1.5.3.8.6-1.6.7h-2.3zm107 .4a7 7 0 0 1-.2-2v-2l.3 2c.2 2 .2 2.3-.1 2zm56.1-.3c-.2-.1.6-.4 1.8-.5l2-.4-7.9.1c-7.8.1-10.1 0-10.1-.4 0-.3 32-1.2 39-1 1.4 0 2.2-.1 2.6-.4a23 23 0 0 1 6.2-.5l10-.5c2.3-.3 7.5-.5 11.6-.6l14.6-.5c.5-.2 1.2.1 1 .4a230.1 230.1 0 0 0-10.5.6 544.8 544.8 0 0 1-19.2 1l-1.8.2h1.4l2.2.2c2.1.4-.4.6-8.1.6a245.9 245.9 0 0 0-29.5 1.5 165.8 165.8 0 0 0-5.3.2zM133 70a155.7 155.7 0 0 1-.7-7.3l.5 2.5.7 3.8c.4 1.5.4 1.9 0 1.9-.2 0-.5-.4-.5-1zm4.6.2c0-.3 0-.4.1-.2v.5l-.1-.3zm-119.8-.8c-.5-.1-.9-.3-.9-.5 0-.3 1-.2 2.4.2 1.4.6 2.4.4 3.3-.6.7-.9 1.4-1 1.4-.4 0 .2 0 .4-.2.4l-1 .6-.6.7h-1.8c-1 0-2.2-.2-2.6-.4zM262.9 68c0-.3.2-.4.7-.3 1 0 1 .7 0 .7-.5 0-.7-.1-.7-.4zm-134.7-2.2-.3-3c0-.7 0-1.3-.2-1.4-.3-.3-.5-2.5-.3-2.5l.5 2 .6 3.3c.4 2.2.6 3.4.3 3.4-.1 0-.4-.8-.6-1.8zM18.2 67c-.3-.1-.3-.3-.1-.4l.4.1c.3.4 0 .6-.3.3zm150.2-.8c-.1-.3-.5-.5-.9-.6-.3 0-.5-.2-.5-.5 0-.4.8-.4 2.1-.1 1 .2.7 1.7-.3 1.7l-.4-.5zm94.4 0c-.7-.3-.9-.6-.7-1.2 0-.3-4.5 0-5.4.5-.7.4-1.2.4-3.3.1-3-.4-3.3-1-.4-.8.4 0 2.6 0 5-.3 2.4-.2 4.5-.4 4.6-.3.1 0 .2.3.1.5 0 .2.3.5 1 .8 1 .3 1 .5.8.7-.5.3-.8.3-1.7 0zm-245.6-.8c-.3-.1.8-.2 3.3-.3 3.7-.1 4.2-.1 4 .2-.3.2-6.8.4-7.3.1zm153-1c-.3-.4.2-.6 1.7-.8 1 0 1.5 0 1.7.2.2.4.2.4-1.7.6-1 .2-1.7.1-1.8 0zm-86.3-4.2c.2-8.7.4-13.1.7-12.8v2a7 7 0 0 0 .5 3.3c.5 1.8 1.2 2.3.9.8v-1.3c.3-.5.4 0 .4 2.1 0 3-.2 4.5-.5 4.5-.2 0-.3-.4-.4-1-.2-.8-.6-1.3-.9-1-.2.2-.3 1.6-.3 4.8 0 1.4-.1 2.5-.2 2.5-.2 0-.2-1.8-.2-4zm74.6 2.9-.5-1-.2.6c-.6 1.2-.8.5-.7-2.7v-3.2l.3 2.2c.1 1.2.3 2.2.5 2.2s.2-.6 0-1.5c0-1 0-1.4.2-1.4l.4-.5c.2-.9 1.4-1.2 4.7-1.2 1.8 0 3.7 0 4.3-.2h1.2l.4.8c.4.4.4.8.1 2.7l-.5 3c-.3.8-1 1-.7 0 .1-.3.3-1.4.3-2.4l.2-1.9-.7-.7-.6-.7-4 .2-4.2.2V59l-.1 1.5 1.7.2h2.5c.9-.2 1.3 0 1.3.9 0 .3 0 .3-1.7-.2-.4 0-.6 0-.6.2 0 .1.2.3.5.3.8 0 .9.5 0 .7-.6 0-.7.2-.5.5.2.2 0 .3-1 .4-.7 0-1.5.2-1.7.3-.3.1-.5 0-.9-.8zm2-1.6h-.8l.4.1h.4zm16 2.4c-.4-.1-1.4-2.8-1.1-3.2l-.1-1.5v-1.5c.3-.4 5.8-.8 7-.6 2.1.3 1.2.6-2.1.7-1.8 0-3.4.2-3.5.3-.4.3-.4 2.4 0 2.9.3.4 2.6 1 2.6.6l-.4-1c-.5-.9-.3-1.6.4-1.5 1 0 1.2.3 1 1.3 0 1-1 1.7-2.6 1.9-1.2 0-1.1.5.1.9 1 .3 1 .4-.3.7a3 3 0 0 1-1 0zm-28-.4c-.2-.3-.2-.7 0-1l.1-.4.2.5v.9l-.2.4zm41-.2-.3-.3h.4c.2-.2 1.7-.3 3.2-.4 3 0 4.2-.4 1.8-.4-2 0-4.7-.4-5.2-.8-.2-.2-.3-.4 0-.8.1-.4 0-.5-.3-.6-.5-.2-1.3-1.4-1-1.6 0 0 1.2-.2 2.5-.2 2.8 0 4.2.3 2.3.6l-1 .2h1.4c.9 0 1.6.2 1.7.3.2.4-.4 1.2-1.2 1.5l-.7.3h1c1.7 0 3.2.8 2.3 1.2-.2 0 0 .2.4.2 1.3 0 .7.4-.8.6-3.6.4-6 .5-6.4.2zm46.8 0c-.4-.3-.1-.5.6-.5.4 0 .9-.2 1-.3.1-.2-.9-1.2-1.6-1.4-.5-.2-.6-.6-.2-.9.5-.3 2.7 1.2 2.7 1.9 0 .9-1.9 1.9-2.5 1.3zm7.8 0c-.9 0-1.6-.3-1.7-.4 0-.4 3.7-.5 4.3-.1.7.3.5.8-.3.7l-2.3-.2zm-73.7-1c-.3-.5-.4-1-.3-1h1.7l1.5.2-.6.4-.7.5.6.2c1 .2.4.7-.8.7h-1zm-35.8.2a33.4 33.4 0 0 1-.3-7.8l.2 3 .3 3.6c.3 1.6.2 2.2-.2 1.2zM15 62c-2.8 0-3.9-.6-1.3-.6 3.1 0 7.9.4 7.5.6l-1.9.2L15 62zm135.7-.7c0-.4.1-.6.2-.3v.8c-.1.1-.2 0-.2-.5zm1.5-1.7v-4.1l.2-1.9V56l.3 4.2c.1 1.2 0 1.8-.1 1.8-.2 0-.3-1-.4-2.4zm-20.7 0-.2-4-.2-2 .3 1.5c.3 1.8.6 6.6.4 6.6l-.3-2zm-2 1.2c0-.3.1-.4.3-.3.1.1.2.3.1.4-.2.4-.4.3-.4-.1zm19.1-1c0-1 .1-1.3.2-.8a7 7 0 0 1 0 1.6c-.1.4-.2 0-.2-.9zm23 .6c-.2-.1-.3-.4-.2-.8.3-.8 0-4.1-.5-4.7l-.3-.5-.9 1-.8.9.2-.7c0-.4.3-.7.4-.7.4-.2.3-.8-.2-1.6-.4-.5-.4-.7-.1-1.3l.3-.7-1-1c-1.3-1-1.4-1.7-.7-3 .9-1.4 2.6-1.6 4.4-.3.8.5 1.1.6 2.2.4 1.8-.3 4.8-.3 5 0 0 .1-1 .3-2.2.4-1.9.1-2.5.3-2.9.7-.2.3-.8.5-1.3.5-.4 0-1 .1-1 .3-.3.2-.5.2-.9-.1a2 2 0 0 0-1-.5c-.6 0-.6 0-.4-.4.2-.2.5-.3.7-.2l.4-.1c0-.3-2-1-2.3-.8l-.3 1c0 .8 0 1 2 2.6.7.5 1.5 3.3 2 6.5l.3 2.1.7.4c.4.2.7.4.6.6-.2.3-1.7.3-2.2 0zm-161-2v-2.2l.3-.5.3.8c.2.4.4.7.6.7.1 0 .4.5.5 1l.4 1.1a50.9 50.9 0 0 0 3.8 0c0-.1-.6-.3-1.4-.3h-1.5v-.5c-.2-.4-.3-1.5-.5-2.6s-.4-2-.6-2.2a101.7 101.7 0 0 1 .4-21.6c.2.1.3 3.6.3 11.4 0 11.9.1 12.8 1.2 12.5l.5.1c0 .2-.2.3-.5.3-.4 0-.5.2-.5.6 0 1.4.3 1.4 7.4 1.6a365.2 365.2 0 0 0 9.5.3l.4.2-.4.2c-.2.2-1.4.3-2.8.3-1.3 0-4 0-6.2.2-2 .2-5.4.3-7.4.3h-3.6zm71.6.8c0-.5 0-.6.1-.3v.7l-.1-.4zm144.7.4c0-.9 3.9-2.4 6.2-2.4h1.3l1 1c.8.6 1 1 .8 1.2-.2.2-.6 0-1.5-.6-.7-.4-1.6-.8-2-.8-1 0-4.1 1-4.5 1.4-.4.5-1.3.6-1.3.2zm-91-.6c-.2-.4.2-2 .5-2 .1 0 .3.5.3 1.1 0 1.2-.3 1.5-.7 1zm-56.2-.3-.2-1.2c0-.6 0-.6.3-.2l.2 1.2c0 .6-.1.6-.3.2zm83.2 0c0-.3.1-.5.4-.4.6.1.5.6 0 .7-.3 0-.4-.1-.4-.4zm98.9.1-.1-2c-.1-1.9 0-2.7.6-2.4.2.1.3 1 .3 2.4 0 1.8 0 2.2-.4 2.2-.2 0-.4 0-.4-.2zm-111-1.4.1-2c.2-.5.3-.2.3 1.2 0 1.1-.1 2-.3 2l-.2-1.2zm-68.6-.2c0-.5 0-.7.1-.5v1-.5zm13.9.6c-.3-.3-.2-2.5 0-3 .3-.3.3.2.3 1.4 0 1.8 0 2-.3 1.6zm90.6-.1-.8-1.8c-.3-.8-.8-1.7-1.1-2-.6-.9-.7-2.2-.1-2.4.5-.2.7 0 .8.7 0 .4.4 1.7.9 3 .8 2.5 1 3.2.3 2.5zM127 57l-.2-1.1-.1-.5.3.4.2 1.2-.2.8zm62.9.2c-.7-.2-.6-.9.1-1 1-.3 5.6.2 5.7.6 0 .2-.5.3-2.1.3l-2.7.1h-1zm52.4-.2-.1-.8c-.2-.9-.5-2-1-3-.2-.5-.2-.7 0-1 .3-.2.5-.1.8.3l.4.6h2.2c1.2 0 2.3.1 2.3.3.3.4-.6.6-2 .4-1.9-.2-2.4.2-2 1.4.3 1.3.3 1.9-.2 1.9h-.4zM75.3 53.8l.2-7.5.2-4.3.1 5.1c.2 6.1 0 9.8-.3 9.8 0 0-.2-1.4-.2-3zM129 56v-.5c.4-.2.7.4.4.7-.2.1-.3.1-.4-.2zm16.6-.7v-.6V56v-.6zm-63.3.4c0-.3 0-.4.1-.1v.5l-.1-.4zm75-2.2c0-2 .1-2.8.4-3 .2 0 .4-.7.5-1.4l.2-1.3v2.1l.2 3.3c0 1 0 1.2-.5 1.3-.3 0-.4.4-.4.7 0 .4-.1.7-.3.8-.1 0-.2-1-.2-2.5zm50.2 2c-.5-.8-.6-4-.3-7.2l.2-2h-.5c-.9 0-1.7 2.1-1.8 4.4 0 2-.4 2.5-.9 1.4-.2-.3-.6-1-1.1-1.3l-1.4-1.2-1-.7c-.5-.2-.6-.7 0-2l.4-1.3c0-.7-.8-1.3-1.9-1.5-1.2-.3-.9-.8.4-.7 1.3.1 2.2.9 2.5 2.1.2.8.2 1-.3 1.5-.3.2-.5.6-.4.9l.2.7c0 .3 1.1 1 2.2 1.3.1 0 .5-.7.9-1.7.7-2.1 1.6-3 3-3.3 1.4-.2 1.8.1 1.2 1.1a18 18 0 0 0-.6 9.4c.3 1-.2 1-.8 0zm-25.8.1c-.3-.2-.3-.3 0-.6.4-.3.6-.1.5.4 0 .3-.2.4-.5.2zm7.5 0c-.9 0-1.1-.1-1-.5v-.4h4.7c4.8-.1 5.3 0 4.4.9-.3.3-5.2.3-8.1 0zm64.8-1c0-1.5.6-1.4.7.2 0 .8 0 1-.3 1s-.4-.2-.4-1.1zM71 55.2c0-.3.2-.5.3-.4.2 0 .3.3.3.5s-.1.4-.3.4c-.1 0-.3-.2-.3-.5zm17-3c0-2.1.1-2.9.2-1.8A45.2 45.2 0 0 1 88 52zm66.4 3c0-.4 0-.5.2-.4v.7c-.1.2-.2 0-.2-.3zm28.7 0-.4-.8c0-.6-1.2-2.4-1.6-2.3-.2 0-.5.6-.8 1.2-.4 1-1 1.8-1 1.2 0-.4.6-2 1.2-3.2 1-1.9 1-2.2.1-2.5-1-.4-1-.7.2-.9.7-.1 1 0 1.3.3l.3.8c0 .5.4.4.8 0 .3-.3.4-1.5.4-3.7 0-1.8.2-3.8.3-4.5.2-1.7-.7-2-1.3-.3 0 .2-.2.2-.4 0-.5-.5-.6-7.1-.1-7.7.2-.3.3-1.3.3-2.7 0-1.2.1-2.2.3-2.3.2-.1 0-.4-.2-.8-.3-.5-.4-1-.3-2.4v-2c-.4-.7-.5-13.3 0-13.1l.2 5.5c0 5.4.1 6.4.6 6.2.3 0 .4-1.7.5-5.5.3-7.5.6-9.9 1-9.9s.4.9.5 5.3c0 6.4 0 5.9.3 5.6a8 8 0 0 0 .3-2.5c.1-1.3.3-2.2.5-2.5.3-.3.3 0 .2 1.4a66 66 0 0 0-.2 5.6c0 2.6 0 4-.2 4s-.3-.7-.3-1.5c0-1.6-.4-2.2-.6-1-.1.4-.3 6-.4 12.5L184 46 184 48h.5l1-.4.7-.4-.1-4.5c0-3.7 0-4.5.4-5 .4-.6.4-1 .2-3.5-.3-3.4-.4-4.7 0-4.7l.5 3.8.4 4.8.2 1 .3-.4.4-.5.1.6c.1.4 0 .8-.3 1-.4.4-.6.8-.6 2.3 0 1 0 2.2.2 2.6.1.5 0 .7-.2.7l-.8.4-.5.4 1.1 1.6c.6.9 1.2 1.6 1.3 1.6.5 0 .8-.9.6-1.5-.2-.3-.2-.7 0-1v-1c-.1-.5 0-1 .3-1.4l.5-.6-.1-2.5c-.3-3.8-.3-10.6 0-10.4.3.2.6 3.7.6 8.3v4.1h1.6l.6-.1v-3.8l.1-4.2c.2-.2.3.8.3 2.5 0 1.6 0 3 .2 3.2.2.3 1.6 1 2 1 .4.1 1 .5 1 .8 0 .4-1 .2-1.2-.2-.2-.6-.7-.2-.7.6v.6h-1l-1.8.4c-1 .4-1.2 1-.4 2.4l.6.9h2c2 0 3.8.6 3.8 1.3 0 .1.3.4.8.5.9.2 1 .6.2.6h-9.6l.2.5c.2.7-.1.7-1.2.1-.4-.2-1.3-.4-1.9-.3-.6 0-1.5-.1-2-.3-.6-.2-.9-.1-1.1.1-.4.6-.2 3.7.4 4.5.6.9.2 1.4-.5.7zm-1-4.4c0-.4-.5-.3-.7.1 0 .2 0 .3.4.3.2 0 .4-.2.4-.4zm9-2.4c-.3-.3-.5.1-.3.5.2.2.2.2.3 0v-.5zm5.3.5h-1l.5.1h.5zm-13.2-25.2c0-.7-.1-1.3-.2-1.3-.3 0-.4 2.2-.1 2.4.3.4.3.2.3-1.1zm22.5 31.6c0-.2.2-.4.4-.4s.4.2.4.4-.2.4-.4.4a.4.4 0 0 1-.4-.4zm-139-2.6c-.3-3.8-.5-25.5-.2-25.7.3-.2.3.2.3 8.7 0 5 .3 12.2.7 17.3.1 1.6 0 2-.2 2-.3 0-.5-.6-.6-2.3zm12.8 1.2c0-.6.1-1.1.3-1.1.3 0 .3 1 0 1.7-.2.4-.3.3-.3-.6zm80.9.5-.3-2.5c-.2-1.7-.1-2 .1-2 .5.2.8 1.7.8 3.6 0 1.4-.4 2-.6 1zm5.3-.3-.2-2.2c0-.7-.1-1.8-.3-2.4-.3-1-.1-2.3.3-2.3.3 0 .5 1.1.7 4.7l-.1 3c-.2 0-.3-.4-.4-.8zm-83.4.2c-.2-.5 0-7 .3-7.3.3-.3.4.5.4 3 0 3.2-.4 5.1-.7 4.3zm81 .1v-2.4a83.7 83.7 0 0 1-.8-17.5c-.4-21-.4-21.4.3-21.4h.4l-.2 2c-.3 2.3-.3 4.2 0 19.4.1 9 .3 12.2.5 12.6.3.4.4 1.5.3 4 0 3.2-.2 3.9-.5 3.3zm64.4-.5c0-.3.2-.6.4-.6s.4.3.4.6c0 .2-.2.5-.4.5s-.4-.3-.4-.5zm-91.7-.2a4 4 0 0 1-.1-1.5c0-1.5.3-1.4.6 0 .1 1-.1 1.8-.5 1.5zm51.5 0c-.7-.3-.3-.7.7-.6.8.1 1.2 0 1.7-.3.6-.6 2.4-.7 5.2-.4 1.4.2 1.6.4 1 1a39.1 39.1 0 0 1-8.5.2zm4.8-.5a1 1 0 0 0-.7 0h.7zm12.8.4v-.3c.2 0 .3.1.3.3v.3l-.3-.3zm55.8 0c-.2-.4 0-.8.5-.8.4 0 .7.6.5.9-.3.2-.8.2-1-.1zm-25.5-.3c-.3-.4 0-3.9.3-4.4.7-1 1 .7.5 3.5-.1 1.2-.3 1.4-.8.9zM152 52c0-.7 0-.8.3-.3.3.7.3 1.2 0 1.2-.2 0-.3-.4-.3-.9zm2 .2-.5-.7-.2-7-.3-9.2c-.5-9.5-.8-17.7-.6-18 0-.3.2-.4.4-.3.2.1.3 2.4.3 6 0 3.3 0 7.8.2 10 .2 2.3.3 6.6.3 9.6s.2 5.9.3 6.5l.3 1.2.3-.5c.3-.3.4-1.2.4-2 0-1.4 0-1.6.3-1.2l.3.6.4-1 .3-.9v2.3a79 79 0 0 0-.2 3c0 .8-.1 1-.5.9-.3 0-.5.1-.5.4-.2 1-.6 1-1 .3zm-143.3 0c0-.2.1-.4.3-.5.1-.1.2 0 .2.4 0 .3 0 .5-.2.5s-.3-.2-.3-.4zm234 .2c-1.3 0-2.2-.2-2-.3.1-.4 4.8-.4 4.8 0 0 .3-.5.4-2.8.3zm16.2-.2c-.4-.4-.1-.7.6-.7.9 0 1.1.4.4.7-.5.2-.8.2-1 0zM71 51.4a315.7 315.7 0 0 0 0-3.4c.2 0 .3.9.3 2l-.1 2.2-.2-.8zm55 .5.3-.4c.2 0 .3 0 .3.3 0 .2-.1.4-.3.4-.1 0-.2-.1-.2-.3zm23.1-8.2V15.8c.1-1 .2-1.9.4-2 .5 0 .6.6.3 3-.3 2.6-.3 22.5 0 23.6l.3.8.1-1.2.4-3.3c.2-1.7.3-.4.4 6.4a92.3 92.3 0 0 1-.3 7.8c0-1.9-1-1.7-1.3.3-.1.6-.2-2.8-.3-7.5zm1.2-.9c-.4-.9-.6-.1-.6 2.7 0 1.7 0 3 .3 3.3.2.5.3 0 .4-2.5v-3.5zm24.5 9.2c-1-.1-1.5-.3-1.9-.8l-.5-1c0-.4 0-.4 2.3-.5 1 0 1.5-.2 1.7-.5.3-.6 1-.6 1.5-.1.4.4-.1 1-1 1.3-.6.2-.7.6-.3.8.4.3.3.6 0 .7h-1.8zM96 50.7c0-.7.1-1.1.3-1l.2 1.2c0 .5 0 1-.2 1s-.3-.5-.3-1.2zm-39.8.8c-.1-.2 0-5.7.4-13v-5.2c-.1-1 .2-1.7.6-1.3.3.3-.2 19-.6 19.4-.1.2-.3.2-.4 0zm72.4-.3-.2-1.9V48c.5 0 .6.5.8 2.2.2 1.3.1 1.5-.2 1.5-.3 0-.4-.2-.4-.4zm96.8 0c-.2-.2-.2-.4 0-.5.3-.2 1 .1 1 .4 0 .4-.7.5-1 .1zm-119.1-.7c-.2-1-.1-1.5.2-1.2v2.2zm135.8.7c-.4-.2-.1-.6.5-.6.3 0 .5-.1.4-.4-.2-.3 0-.4.5-.4.4 0 .7.1.7.3l-.4.2c-.2 0-.2.1.1.3l1.3.2c1.4 0 1.7 0 1.5.3-.2.3-4 .3-4.6.1zm-108.8-.4c0-.1.1-.2.3-.2.2 0 .2.1.1.2 0 .2-.2.3-.3.3v-.3zm-82.7-.1a6 6 0 0 1-1.8-1.2l-1.2-1.1-1 .1c-1.5.3-3.4-.1-4.2-.8-1.1-1.1-.6-1.5.6-.6 1.2 1 3.8 1 3.8.1l-.6-1.5c-.8-1.3-2-4.6-1.7-4.8.1-.1.4.2.6.7 1.3 2.2 2 3.2 2.9 3.7 1.1.7 1.2 1.2.1 1-.4-.2-.8-.2-.8 0 0 .6 1.8 2.6 3 3.1 1 .6 1.4.6 3 .5 1.4-.1 1.7 0 1.7.2s-.2.5-.4.6c-.5.2-3 .1-4 0zm94.8-1.4c-.2-2-.4-16.3-.3-18.4.4-3.7.5-.7.5 9.2a549.5 549.5 0 0 1-.2 9.2zm-134.6-.2-.1-2.4c-.1-1.1-.2-9.2-.1-9.5l.2 3.3.4 6.8c.2 2.4.1 3.3 0 3.3-.3 0-.4-.6-.4-1.5zm75.5.2c0-.8 0-1.2.1-.8V50l-.1-.7zm60.8.9c0-.3 0-.4.2-.2v.5c-.2.1-.2 0-.2-.3zm-16.2-.1c0-.2.2-.3.3-.3.1 0 .3.1.3.3l-.3.2a.3.3 0 0 1-.3-.2zm-51.4-.3c-.2-.6 0-10.3.3-12.9v-7.3l.1-5.5c.2-.4 0-2.8-.4-3l-3.6-.3-4.1-.4-.5-.2h.6c.7 0 1-.5.4-.7l-3.4-.3a123 123 0 0 0-13.7-.8c-14.7-.3-15.4-.3-15-.8.4-.3 11.7-.2 16.8.1 4.8.3 16.3.7 18.5.6 1 0 1.5.1 1.8.4.5.5 1 .5 1 .1a343 343 0 0 0 8.4.1c2.8.2 3.7.3 4.2.7.7.5.9 1.2.2 1-.3-.2-1.5-.4-2.7-.5-2.4-.3-3.6 0-3 .7.4.5 0 .8-.8.5-.4 0-.5-.2-.3-.4.6-.6.4-.7-.7-.7-.6 0-1 0-1 .2s0 .3.2.3l-.8.2c-1 .1-1.2.3-1.2.7 0 .5.4.8 1.6 1.1l.8.2-1 .1-1.1.2-.1 8a235.4 235.4 0 0 1-.3 14.5V49l-.5.6c-.4.6-.6.6-.7.3zm-3.7-30-.6-.2c-.2 0-.4.1-.5.3 0 .1.1.3.5.3s.7-.2.6-.3zM62.5 48.6l-.3-3.3-.6-6.5c-.4-4.8-.5-12.6 0-10.7l.2 3.5c0 1.4.3 5.8.7 9.9.4 4.8.5 7.5.4 7.8-.2.3-.3.2-.4-.7zm70.6.2c-.2-.6 0-1.1.4-.9.3.2.3 1.5 0 1.5l-.4-.6zm129.3.2c-.3-.3-.3-.4 0-.5.7-.3 2.3-.2 2.3 0 0 .6-1.9 1-2.3.5zM147 48.3c0-.4 0-.6.2-.3v.8c-.1.2-.2 0-.2-.5zm80.1.5c0-.5.8-.6 4-.8l3.3.1c.2.4-.7.6-4.4.8l-2.9-.1zM96 45.5l-.2-5.6c-.3-2.7-.1-3.3.4-2 .3.6.3 2 .3 5.2l.1 5c.2.5.1.6-.2.6-.3 0-.4-.5-.4-3.2zm29.7 2.8c-.2-.5.1-1.2.5-1 .3.2.3 1.4 0 1.4-.2 0-.4-.2-.5-.4zm-14.5-.1c0-.2-.2-8-.2-17.6 0-12.8.1-17.5.3-17.7.3-.2.4-.2.6 0 .1.3.2.6.1.7a319 319 0 0 0-.4 28.9c.3 5 .4 5.3 2.3 5.1 1.3 0 1.7-.8 1.7-3.4 0-1.6 0-1.8.3-1.2v3l-.2 2.3-2.1.1c-1.4 0-2.3 0-2.4-.2zm19.4-.7c-.4-.3-.2-1.2.2-1.2.2 0 .4.3.4.6 0 .5-.3.9-.6.6zm5.1-.5c0-.4.1-.7.4-.7.2 0 .4.2.4.3 0 .1 0 .4.2.7 0 .3 0 .4-.4.4-.5 0-.6-.2-.6-.7zm88 .4c-.1-.1.1-.3.6-.3.4 0 .9.2 1 .3 0 .2-.2.3-.7.3-.4 0-.8-.1-1-.3zm4.2 0c-.2-.4.3-.9.6-.7.2.1.3.3.3.4 0 .4-.7.6-1 .3zm-127.5-.1-.1-1.5v-1.2l.2.7c.3.7.3 2.3 0 2zm143.1-.2c0-.1 0-.3.2-.4.7-.2 2.1 0 2.3.4.1.4-2.2.4-2.5 0zm16 0c-.3-.1-.3-.3 0-.5.3-.4 2.5 0 2.3.4-.1.4-1.8.5-2.3.2zM106 46.8c0-.3 0-.3.1-.1v.5l-.1-.4zm150 0c-.3-.3-.7-.4-1.6-.2-2 .3-2.2.3-2.3 0 0-.2.7-.5 1.6-.7l1.8-.5.4.5c.3.4.8.5 1.4.5.7 0 .8.1.5.4-.4.6-1.4.5-1.8 0zM158 44.2c-.2-5.7-.1-8.5 0-8.6.3-.2.4 4.7.2 8.4l-.1 3v-2.8zm74.2 2.5-.1-1c0-.8.8-1.2 1.7-.7.5.3 1 1 .6 1l-1 .5c-.6.2-1 .3-1.2.2zm-3-.4c0-.1.1-.2.4-.2l.4.2c0 .2-.2.3-.4.3-.3 0-.4-.1-.4-.3zM70.9 45v-.7 1.5-.8zm94.7.2v-.6 1.3-.7zm-79.2.5c0-.3 0-.4.2-.2v.5c-.1.1-.2 0-.2-.3zm80.9.2c-.2-.1.2-2.7.4-3 .1 0 .2.5.2 1.2 0 1.3-.3 2.1-.6 1.8zm9 0c-.3-.5-.2-2.2 0-2.3.2-.1.3.3.3 1.1 0 1.3 0 1.6-.3 1.2zm4-.3a97.7 97.7 0 0 1-1-16.3c.1-.2.2.2.3 1.3 0 3.7.1 4.6.4 5.6.1.7.2 1.9.1 2.8 0 1.1 0 1.8.3 2.4.4.7.4 1.2.2 2.7 0 1-.3 1.7-.4 1.5zm80.1-.5c-.9-.1-1.5-.9-.8-.9 1.6 0 3 .3 3 .8 0 .3-.8.3-2.2.1zm-174-1c0-.6.1-.8.2-.5v1.1c-.1.2-.1 0-.1-.6zm39 .4c-.4-.5 0-1.2.4-1 .3.3.4 1.5 0 1.5-.1 0-.4-.2-.5-.5zm4.9 0c-.3-.8-.2-2.1.2-2.1s.6 2.2.3 2.5c-.1.1-.3-.1-.5-.5zm90.1 0c-1.8-.5-2.8-1.1-2.4-1.5a9 9 0 0 1 2.6.6c1.8.6 2.3.8 2 1-.3.3-.8.2-2.2-.2zm4.8.1c0-.2 0-.5.4-.7.4-.1.7-.4.8-.6.3-.5.7-.5.7 0 0 1.3-1.5 2.3-1.9 1.3zm-92.6-.3c-.3-.6-.2-2.2.1-2.2.3 0 .8 1.2.8 2 0 .7-.7.9-1 .2zm39.4.1-.1-2.2c0-1.5 0-1.7.2-1.2.2.4.3 1.4.2 2.3 0 1-.1 1.4-.3 1.1zm69.8-.2c-2.4-.6-3.8-1.5-3.8-2.5 0-.6 1-.4 1.2.1.1.6 2.2 1.6 3 1.6.8 0 1.9.5 1.9.8 0 .3-.8.3-2.3 0zm-138-.6a178.3 178.3 0 0 1-.4-22.1l.4-.6.1.6c.2.8.3 22.7.1 22.7l-.3-.6zm73.9-.3v-1l-.7.1c-.8.2-.8 0-1-2.5-.2-1-.4-1.7-.5-1.6-.1.1-.2.4-.1.6 0 .3 0 .7-.2.9v-2l.3-8.7c.2-7.9.4-7.3.3 1.3 0 4.2 0 6.4.2 6.4s.4 0 .4-.2l.3-5.3a179 179 0 0 1 .4-7v-.6l.3.5c.2.3.3 2.9.4 6.8 0 3.4.1 7.8.3 9.7.1 2.6.1 3.5-.1 3.5s-.3-.4-.3-1zm36 .6c-.1-.3.5-.8.8-.6l.2.5c0 .5-.7.6-1 .1zM69.5 44l-.2-1.1V42l.3.6c.3.7.2 1.5-.1 1.2zm179.8-.2c-.2-.3.3-.8.9-.8l1.2-1c1-1 1.5-1.4 1.5-.9 0 .1-.1.4-.3.5-.3.3-.3.5 0 .9l.3.5-.7.4c-1.1.5-2.7.7-2.9.4zm-3.6-.8c-.6-.5-1.4-1-2-1-.9-.4-1.2-1.1-.3-1.1.8 0 1.9.5 2.8 1.3l1.2.9c.3.1.3.2 0 .4-.6.4-.7.4-1.7-.5zm-98.4-.9c.1-2 .3-2.1.3-.2 0 .9-.1 1.6-.2 1.6s-.2-.6-.1-1.4zm27.9.4c0-.7 0-1 .1-.6V43l-.1-.6zm-18.5-4v-5l-.5-.5c-.4-.5-.5-1-.5-2.8a10 10 0 0 0-.3-2.5c-.2-.3 1-1 1.5-.7.4.2.4 9.4 0 13.8l-.2 2.6v-5zm25.3 4.3c0-.7.1-.7.4-.2l-.1.5c-.2.1-.3 0-.3-.3zm-46.2-.1c-.3-1.1-.6-4.6-.4-4.8.3-.3.3-.3.8 1.7.4 1.6.4 3.4 0 3.4l-.4-.3zm37.6-.2-.3-2.7a58 58 0 0 0-.3-4.5c-.7-4.8-1-15.3-.6-15.3s.6 1 .4 1.8l.1 4.6 1.2 14.7c.2.5-.2 1.8-.5 1.4zm-5.6-11.9c0-8.1 0-11.6.2-11.1.2.3.3 1.8.2 3.3 0 1.4 0 5.7.2 9.4.2 6.3 0 10.3-.4 10.3 0 0-.2-5.4-.2-11.9zm52.5 11.6c-1-.3-1.5-.7-1.5-1.3 0-.7.1-.7 1 0 .4.2 1 .6 1.5.7 1.7.6.8 1.1-1 .6zM86 41.4l.1-2.9c.2-1.6.2-1.8.2-.8 0 .6.2 1.3.4 1.4l.2 1.6c0 1 0 1.4-.4 1.4-.2 0-.4-.3-.5-.7zm13.8-3.2a66.3 66.3 0 0 0-.2-5.3 8616.3 8616.3 0 0 1 .6 9.3c-.2 0-.3-1.8-.4-4zm-29.3 3.4c0-.2.1-.2.3-.1l.2.2-.2.1c-.2 0-.3 0-.3-.2zm37.6-1c0-.5.1-.7.2-.4v1c-.1.3-.2 0-.2-.5zm16.7.4c-.4-1-.5-2.4-.2-2.5.3-.1 1 1.6 1 2.5 0 .8-.5.7-.8 0zm40.7 0c0-.5.1-1 .3-1.3.2-.3.2-.2.2.4l-.2 1.2c-.2.3-.3.2-.3-.4zm44.8 0c-.4-.4-.5-1 0-1 .3 0 1.5.8 1.5 1 0 .4-1.2.4-1.5 0zm-40.5-3.6c0-2.4 0-3.8.2-3.8.1 0 .3.4.3.8.2 1.3 0 6.7-.3 6.7 0 0-.2-1.7-.2-3.7zM82.5 40c0-.4 0-.6.1-.3v.8l-.1-.5zm23-1.4c0-1 0-1.4.1-.9v1.7-.8zM240.2 40c-.7-.3-.3-.7.6-.6.6 0 1 .2 1 .4 0 .3-1.1.4-1.6.2zm-206.3-.3-1-.2 1.2-.2c1.2-.2 1.9 0 1.6.4-.2.2-.2.2-1.8 0zm137.9-.2c-.4-1.3-.5-2.6-.7-9.1a155 155 0 0 0-.5-8.1l-.2-1-.2.7-.2 5.6v5c-.4.3-.5-3-.5-9l-.1-6.1c-.2-.4.3-6 .6-6.7.5-1 .8 0 .5 1.4-.3 1-.3 1.3.1 1.7.4.4.5 1.2.5 5.2a201.7 201.7 0 0 0 1 20.6c-.1.2-.3 0-.3-.2zm61 .1c-1.1-.2-1.7-.6-1.2-1 .2-.3.4-.2.9 0 .4.2 1.4.3 3 .3s2.2 0 2.2.3c-.3.6-2.7.9-4.8.4zm12.6-.3c0-.4 2.3-1.6 2.5-1.3.4.3 0 .9-.6 1.2-1 .5-1.9.6-1.9.1zm-137.3-.3-.2-1c0-.7 0-.8.2-.4.2.2.2.7.2 1 0 .4-.2.5-.2.4zm145.9-.2c-1-.4-1.8-1-1.5-1.4.1-.1.7 0 1.3.4 1.4.7 1.8.7 3.5-.2l1.5-.7-1-.2c-.7 0-.9-.2-.8-.6l.1-.9c0-.4-.1-.5-1.2-.5-1 0-1.4 0-1.4-.4 0-.3.4-.4 1.6-.4 1.7-.1 2.3.2 2.2 1.2v.7h1.8v.7c0 .5-.3.8-1.7 1.5-2 1-3.3 1.2-4.4.8zm-56.4-.3c-.2-.5.1-1 .5-.8.3.2.3 1.1 0 1.1-.2 0-.4-.1-.5-.3zm-32-.4A377.7 377.7 0 0 1 167.1 7l.2-.8.2.8c.3 1.3.6 1 .6-.3 0-.7.2-1.2.3-1.2.5 0 .6 3 .3 6-.5 4-.8 4.5-.9 1.3 0-1.5 0-2.2-.1-1.5a118 118 0 0 0-1.5 20.9c0 5.8-.2 7-.6 5.9zm-140.9 0c0-.3 5.1-.6 5.8-.3a247.4 247.4 0 0 0-3.3.4c-1.7.1-2.5 0-2.5-.1zm8-.2c.1-.1.3-.1.4 0l-.3.1c-.3 0-.4 0-.2-.1zM196 34.6c0-2.2 0-3.3.2-3.3.3 0 .4 6.2 0 6.4 0 0-.2-1.3-.2-3.1zm54.2 3c0-.3.6-.8.8-.6.4.4.2.9-.3.9-.3 0-.5-.1-.5-.3zm-176-.4c0-.2.1-.4.3-.4l.2.4c0 .2 0 .4-.2.4s-.3-.2-.3-.4zm9.8-.8c0-.8 0-1 .3-.6.3.5.3 1.2 0 1.4-.2.1-.3-.2-.3-.8zm154.6.5c0-.3.3-.5.6-.5s.5.2.6.5c0 .3 0 .5-.6.5-.5 0-.7-.2-.6-.5zm-149.8-.5c0-.4 0-.6.2-.3v.8c-.1.2-.2 0-.2-.5zm19 .2c0-.4.1-.6.2-.4v.7l-.1-.3zm136.3-.1c0-.5-.3-.8-1.3-1.2l-1.6-.6a.3.3 0 0 1-.3-.3c0-.4 1.6-.2 2.7.4 1.4.7 1.5.8 1.3 1.6-.1.9-.8.9-.8 0zm-97.7-3V21.5c0-7.2 0-8.5.3-8.5s.4 1.2.3 8.1a5635.6 5635.6 0 0 0-.4 15.6s-.2-1.5-.2-3.4zm13.5 2v-1.4c.2-.2.3.4.3 1.2 0 1.8-.2 2-.3.3zm-137.2.7c.1-.2 3.6-.3 3.8 0h-3.9zM29 36a2 2 0 0 1 .9-.2h.5l-.5.2c-.3.2-.7.3-1 .3h-.3zm41.3-1.7c0-1.2 0-1.6.1-1v2.1-1zm-34.6 1.5h.8c.1.1 0 .2-.5.2s-.6 0-.3-.2zm38.5-1c0-.7 0-1.2.1-1.1.2.2.3 2 .1 2.2-.1.1-.2-.4-.2-1zm188.7 1c-.3-.4-.4-1.7 0-3 0-.7.2-.9.8-.9.3 0 .6.1.6.3L264 34c-.2 2-.5 2.4-1.2 1.7zm-180.7-.6c0-.3 0-.5.1-.3v.7l-.1-.4zm106-1.6a7 7 0 0 1 .1-2.2c.1-.1.2.9.2 2.1l-.1 2.3-.2-2.2zm-99.7.1v-1.5l.3 1c.3 1.5.3 2 0 2-.2 0-.3-.6-.3-1.5zm6.7.7c0-.3 0-.7.2-.8.2-.2.2 0 .2.5 0 1-.1 1.1-.4.3zm117.7-.9c0-.8.2-1.4.4-1.4.1 0 .3.6.3 1.4 0 1.2 0 1.5-.3 1.5-.4 0-.5-.3-.4-1.5zm18.5.9c-.4-.4-.5-.6-.3-.8.3-.4 1.6.2 1.6.7 0 .6-.7.6-1.3 0zm-73.4.1a12 12 0 0 1 0-3.7l.2 2c.1 1.8 0 2.2-.2 1.7zm35-.3c0-.4.1-.5.2-.4v.7l-.1-.3zm-174 0c0-.2.2-.3.6-.3a1353.4 1353.4 0 0 0 14 0c0 .1-2.3.2-5 .2l-7.2.2c-1.8.2-2.5.1-2.5 0zm96.4-2.5-.3-3c-.1-.1 0-.3.2-.4.3-.1.4.3.4 2.4l.2 3-.1.6c-.1 0-.3-1-.4-2.6zM34.8 34c-.3-.2 0-.2 1.2-.2a5 5 0 0 1 1.4 0c-.3.3-2.3.4-2.6.2zm4.4 0c-.4-.1.3-.2 2-.2 1.6 0 2.6 0 2.6.2 0 .3-3.9.3-4.6 0zm45-1c-.2-.3-.1-1 0-1.5l.3-.8v1.5c0 1.7-.1 2-.4.9zm23.8.3c0-.2.2-.3.2-.3l.1.3c0 .3 0 .4-.2.4s-.2-.1-.1-.4zm134.5-.2c0-.4.3-.8.5-.9.2 0 .3.1.2.6 0 .4-.2.8-.4.9-.2 0-.3-.1-.3-.6zm8.5.2-.2-1.8-.2-1.2h.5c.4.1.5.4.5 1.8 0 1.3 0 1.6-.3 1.6-.2 0-.3-.2-.3-.4zM42.2 33l-1.2-.2h1.7c1.6 0 2 0 1.2.3l-1.7-.1zm150.7-.3c-.1-.4 0-1 0-1.6l.3-.9V32c0 1.6 0 2-.3.9zm28 0c-.3-.7-.1-2.1.3-2 .4.1.5 1.7.2 2.2l-.3.5zm-186.2 0c-.2-.3 5-.3 5.8 0 .3.2-.6.3-2.6.3-1.8 0-3.1 0-3.2-.2zm39.4-1V30c.2-.2.4 1.6.3 2.5 0 .5-.1.3-.3-.8zm-42.3.9h1.7H31.8zm128 0v-4.5l.2 1.2c.2 1.4.2 3.6-.1 3.3zm-74-1.1c0-.7.1-.9.3-.6.4.5.4 1.6 0 1.6l-.2-1zM198 21.8V9.4c.2-2.2 0-3.6-.7-4.4-.3-.3-.4-.8-.2-2 .2-1.7.5-2.2 1.3-2.1h.6l.2 4.6v5.3c-.2.4-.4 3.7-.4 8.2 0 11-.1 12.9-.5 13-.2 0-.3-2.8-.3-10.2zm39.8 9.8c-.5-.3-.7-.3-.9 0-.2.4-1.1 0-1-.4.1-.2.4-.3.8-.3.3 0 .7-.3.9-.5.4-.6 1-.6 1 0 0 .5.2.7.7.9l.8.5c0 .4-1.7.3-2.3-.2zm-220.6-.4c-.5-.8 1.3-1.1 3-.6.8.2 2.2.4 3.1.4 1 0 1.7 0 1.7.2 0 .3-7.7.3-7.8 0zm82.2-.7c0-.7 0-1 .1-.6V31v-.6zm8.7-.6c0-1 .1-1.9.3-2 .1 0 .2.5 0 1.7-.2 2.3-.3 2.4-.3.3zM241 31c-.1-.3-.3-.5-.4-.5-.1 0-.2-.1-.2-.3 0-.4.8-.3 1.1.1.2.3.5.3 1.1.1 1.8-.5 2.2-1.5.8-2-.7-.3-.7-.8.1-.8.7 0 1.9 1 1.9 1.5 0 .7-1 1.6-2 1.8-.5 0-1 .3-1 .4-.3.4-1.3.2-1.4-.3zM70.3 29.3c0-1.2 0-1.6.1-1v2.1-1.1zm24.9.4c0-.8 0-1.2.1-.8v1.5l-.1-.7zm-53.1.7-7-.4-4.4-.3 6 .1a209.2 209.2 0 0 1 8.2.4c.1 0 .2.1 0 .3l-.3.2-2.5-.3zm46.2-1.1c0-.7 0-1 .1-.6V30v-.7zM196 30c0-.4.1-.4.2-.2v.5c-.1 0-.2 0-.2-.3zm10.9.2c0-.4 1-.6 3-.6l6.6-.4c5.4-.5 9.2-.5 9.2-.2 0 .1-1.7.3-3.7.4l-6 .4c-4.6.5-9.1.7-9.1.4zm-185.4-.4c-.3-.5 1-.8 2.3-.5.7.2 2.2.3 3.3.3h2c-.3.3-7.4.5-7.6.2zm136.4-.1c0-.3.1-.4.2-.2v.5c-.1.1-.2 0-.2-.3zm-28.8 0c0-4.6-.4-16-.6-16.3-.6-1.3-.8 0-.7 5.1V24c-.2.1-.8-7-.8-9.5 0-2.2.4-3 1.5-3 .4 0 .9 0 1 .2.2.2.3 2 .2 5.5l.1 7.8c.2 1.8.2 2.8 0 3.6-.3 1-.7 1.7-.7 1.2zm64-.9v-1.4c.3-.4.4.4.3 1.5l-.2 1zm-3.2 0-.4-7-.4-9.4c0-2.8 0-3.3.3-3.3s.4.5.4 2.9l.2 6c.5 8.7.5 11.2.2 11.4-.2.1-.3 0-.3-.5zm39.7.2.4-.2c.3 0 .4.1.3.2-.1.2-.3.3-.4.3-.2 0-.3-.1-.3-.3zM86 28.2c0-.5 0-.9.2-.9s.3.3.3.8c0 .4-.1.8-.3 1-.1 0-.2-.3-.2-.9zm-13.5 0c0-.4 0-.6.1-.3s.1.6 0 .8v-.5zm1.6-.8c0-1.8-.6-3.4-1.3-3.7l-9.5-.3c-10.5 0-10.3 0-10-.3 0 0 2.8-.2 6.1-.2h6l.3-.5.3-.5.3.4c.1.3.5.5 1 .6.5.2.7 0 1-.3.4-.7.9-.8 1 0 .2.5.3.5 3.7.6h1.4l.1 2.6c0 1.6 0 2.8-.2 3-.2.1-.2-.3-.2-1.4zM179 28.7v-.5c.2-.3.5 0 .4.5-.1.2-.2.2-.4 0zM84.3 28c0-.5 0-.6.2-.4v.8c-.1.2-.2 0-.2-.4zm15.1-.2c0-.5 0-.7.1-.4v.9-.5zm86.9.3c-.2-1.2-.4-5-.2-5 .1 0 .3 1.2.4 2.7.1 2.7 0 3.4-.2 2.3zm-161 0c0-.3.8-.3 1.3 0 .3.2.2.2-.5.3-.4 0-.8-.2-.8-.3zm215.7-.5c-.6-.2-.4-.6.3-.6.4 0 .7.1.7.3 0 .3-.6.5-1 .3zm-125.6-.2c-.2-.2 0-9.5.3-10.2V17l.3.3c.2.3.2 1.6.1 3l-.2 5c-.1 2.2-.2 2.5-.5 2.2zM88 26.9c0-.3 0-.4.2-.2v.5c-.2.1-.2 0-.2-.3zm71.6-5.5-.4-7c-.2-1.2 0-2.5.4-2.6a167.3 167.3 0 0 1 .2 15.5l-.2-5.9zm19.5 3.3c.2-3.5.4-5.3.7-5.3a50.5 50.5 0 0 0-.2 5c0 1.6-.2 2.9-.4 2.9-.1 0-.2-1.2 0-2.6zm29.8 1.8c0-.5-.2-.5 19-1.2a481.9 481.9 0 0 0 17.4-1c2.9 0 5.7-.2 6.3-.3 1-.2 2.4.4 2.2 1l-7.6.3a303 303 0 0 0-23.8 1c-3.7 0-8.3.3-10.1.4-2.4 0-3.4 0-3.4-.2zm-181.3-.3c-.5-.3.5-.5 2.9-.5 2 0 3.8.3 3.8.7 0 .2-6.3 0-6.7-.2zm7.3.1h.8c.1.1 0 .2-.5.2-.4 0-.6-.1-.3-.2zm60-3a75.8 75.8 0 0 0-.1-6.7c.3.3.6 9.5.2 9.8l-.1-3zm98 1c-.2-3.2 0-6 .3-6.2.3 0 .4.7.3 4 0 2.3-.1 4.2-.2 4.3-.1 0-.3-.9-.4-2zm2.7-.2-.7-7c-.7-5.4-.7-6-.2-5.9.2.1.4 1.4.6 4a9178 9178 0 0 0 .6 11c0 .2-.2-.6-.3-2.1zm-39.2-1.4c-.2-5-.2-8 0-8.2.5-.3.5.5.4 6.3l-.2 5.6zm1.7 2.2c-.2-1-.1-1.3.1-1 .1.1.2.6.1 1v1zm-52.3-.1v-.3c.2.2.1.6 0 .8v-.5zM49 25c-.1-.2 1-.3 2.8-.4 2.7-.2 3.4-.1 3 .2-.2.2-5.7.4-5.8.2zm6.2-.5c.2-.2 4.2-.2 4.4 0 0 0-.9.2-2.2.2-1.3 0-2.3-.1-2.2-.2zm7.7-.3h1.5l-.8.1c-.8 0-1.1 0-.7-.1zm-27-.7c0-.2.1-.4.3-.5l13.4.1-3 .2-7.1.4-3.6.2zm48-.3-.8-.3.8-.2c1-.2 2 .3 1.4.7-.4.2-.4.2-1.4-.2zm-32.2 0h.5l-.4.1c-.3 0-.3 0-.1-.2zm125.4-.3.4-.9c.3-.5.4-.5.4-.2 0 .6-.2 1.3-.5 1.3-.2 0-.3-.1-.3-.2zm-113.3-.6-.6-.3h.6c.4 0 .6.1.6.3v.2l-.6-.2zM50 22c-8-.3-9.5-.4-9.5-.7.1-.3 16-.1 17 .2 1.2.4 1 .8-.3.7L50 22zm10.3 0c0-.2.4-.3 1.2-.3.7 0 1.4.2 1.5.3 0 .2-.4.3-1.2.3-.7 0-1.4-.1-1.5-.3zm115.5-.5c-.1-1.3 0-3.6.4-5.6l.4-3.3c0-1.7.2-2.2.7-2.2.3 0 .4.1.3.6a67.6 67.6 0 0 0-1.5 10.5l-.2.6zM99.1 19c0-1.5 0-2.7.2-2.6.2.3.3 5.2 0 5.2-.1 0-.2-1.2-.2-2.6zm-38.3 2s0-.2.2-.3c.8-.5-1.1-.6-8.9-.7-5.4 0-7 0-5-.2a41.5 41.5 0 0 1 13.7.1 50.7 50.7 0 0 0 9 .3c0 .4-1.4.6-3.9.7-1.2 0-2.8 0-3.5.2h-1.6zm154.9.2v-.7c0-.3.8-.4 3.7-.3h3.6l.1-.9c0-.5 0-1.2-.3-1.6-.4-.9-.3-1.5.2-1.7.7-.3 1 .5 1 2.6.2 1.7.1 2-.3 2.2-.7.4-7.8.7-8 .4zM40.4 20.2c-.6-.4 0-.5 2-.3 1 0 1.4.2.8.2l-1.7.2-1.1-.1zm63.1-3.5c0-2.3-.3-4.4-.6-5-.3-1-.3-1.2 0-1.4.4-.3 2-.7 2.5-.7.6 0 1-.6 1-1.3 0-.3.2-.6.4-.6l.2.6.4 1.3c.3.5.4 1 .2 1 0 .2-1 .3-2 .3l-1.9.1v1.2l.2 4v3.6c-.2.5-.3-.4-.4-3.1zm133.9 3.5c-.5-.1-.6-.5-.1-.6.6-.3 6.1 0 6.2.2 0 .2-5.2.6-6.1.4zm-4-.5c-.3-.5.1-1 .6-.6.4.2.2 1-.2 1-.2 0-.4-.1-.5-.4zm-65.8-2.2c0-.3.1-.5.3-.5.1 0 .2.1.2.4 0 .2 0 .4-.2.5-.2 0-.3 0-.3-.4zm75.3.2-.2-1-.4-1.5c-.2-.5-.2-1 .1-1.7.4-1 .9-1.4 1.4-1 .5.3 0 5.5-.4 5.5a.5.5 0 0 1-.5-.3zm-169.8-.1c-.3-.3 0-.6.6-.6.3 0 .5.2.5.4 0 .4-.8.5-1.1.2zm153.2-1.5c-.3-.7.2-1 1.5-.9l2.9.4 1.5.1-.1-.7c-.2-.5-.3-1.4-.4-2.2l-.1-1.3.6-.4c.5-.2.7-.2 1.1.3.3.4.4.8.3 1.2l-.3 1.9c0 .7-.3 1.4-.5 1.6-.7.5-6.3.5-6.5 0zm11.2-1.9c0-.5.2-.7 1-1 1.3-.3 1.6-.3 1.9.3.4.8-.3 1.4-1.8 1.4h-1.1zm-165.8-.7c-.3-.4 0-.5 1.7-.3l1.7.3H74l-1.6.2c-.2 0-.5 0-.6-.2zm5-.3 2.4-.1h3c-.6.2-4.6.3-5.4.1zm6-.1h.8l-.4.1c-.5 0-.6 0-.3-.1zm2 0h.6c0 .1-.1.2-.4.2-.3 0-.4-.1-.2-.2zm14.6-.7S94.6 12 89 12a142 142 0 0 1-17.3-.9 702.7 702.7 0 0 0 15.6.3c11.7.3 14 .4 14 .8 0 .3-1.6.4-1.9.2zm-17.1-2.1c-3.9-.1-7.2-.4-7.3-.5-.5-.4 1.2-.8 3-.6l11.5.3c5.4 0 10 .2 10 .3l1.1.5c1 .4-7.5.3-18.3 0zm17.6-2.4-4-.3c-2.2-.1-4-.3-4.1-.4V.9c0-.6.8-.3 1 .3v3.2l-.1 2.7H96c2.9 0 3.6-.1 4.1-.5.5-.3.8-.4 1-.2.4.3.5 1.3.2 1.3l-.8.2h-.7zm-31.2-2-.2-2c0-1.8.3-2.2 1-1.4.5.6.3 3.5-.2 3.6l-.6-.1zm10.2-.5c-.4-.5-.3-2 .2-3 .5-.9.8-.1.8 1.8 0 1.7-.2 2-1 1.2zm-5.9 0c-.2-.2-.2-.7 0-2l.1-1.6.5 1c.5 1 .6 2.8.1 2.8l-.7-.2zm13.4 0h.5c.1.1 0 .2-.3.2s-.4-.1-.2-.2zm.2-1.3V3c.2-.3 0-.6-.3-.8-.7-.5-.8-1.8-.3-2.2.4-.2 1.8 0 2.3.3.2.1.3.6.3 1 0 .5.2 1 .4 1.3.6.6.3 1-.6 1-.3 0-.7.2-.8.4-.2.6-.8.5-1 0zm11 .1-.1-1.6C97.3 1 97.4.7 98 1c.5.2.7 1 .5 2.2 0 .8-.2 1-.6 1h-.5z"/>
</svg>
