<?xml version="1.0" encoding="utf-8"?>
<svg xmlns="http://www.w3.org/2000/svg" xmlns:svg="http://www.w3.org/2000/svg" version="1.1" viewBox="0 0 224 143">
	<title>Pigling Bland and Pig-wig stand hand in hand, watching the cart drive away up the hill.</title>
	<path d="M72.9 141.6c-1.8-.8-2.1-1.2-1.3-1.5.5-.2 3.8 1.1 3.8 1.6s-1.1.4-2.5-.1zm82.2.3c-.6-.3-.3-.9.3-.9.4 0 1-.1 1.4-.3a17 17 0 0 1 2.6-.5c2.9-.4 4.7-1 6.2-1.8 1.5-1 2.2-1 2.7-.5.4.6 0 1-.8 1a4 4 0 0 0-1.8.6c-1.2.8-3 1.4-5 1.7-.9 0-2 .3-2.6.5-1 .4-2.3.4-3 .2zM31.2 141c0-.4 1.8-1.3 2.5-1.3l2.7-.6c1.5-.4 3.2-.6 6-.6 2.7-.1 3.9-.3 4.3-.5.4-.3.8-.4 1-.4.3 0 1-.3 1.8-.7.7-.3 1.3-.6 1.4-.5.4.4.1.9-.6 1l-2.3 1-1.7.8h-4c-3.1.1-4.2.2-4.7.5-.4.3-1.3.5-2.1.6-.8 0-1.8.3-2.3.5-.9.5-2 .6-2 .2zm32.4-.4c0-.2-.3-.3-.4-.2-.4.2-4.7-.5-4.7-.8 0-.1.3-.2.8 0h2.3c1.6 0 3.1.8 2.5 1.2-.2.1-.4 0-.5-.2zm149.7-.2a3 3 0 0 0-2-.3c-.7 0-1 0-1.2-.4-.2-.3-.5-.6-.8-.6-.4 0-.5-.2-.5-1 0-1.3.5-1.4 2.1-.3.6.4 1.8 1 2.5 1.2l1.2.4.6-.5 1.3-1.1.8-.7-.7-.7c-.4-.4-1-.7-1.5-.7-1.4 0-5.2-.8-5.5-1.2l-.4-.4h.8l2.9.4 3 .4c.6 0 1 .2 1.5.9l1.6 1.7c1.3 1.2 1 1.7-.7 1.5l-1.3-.2-.8.8c-1.1 1.2-1.8 1.4-3 .8zm-148 0c-.3-.4-.2-.4 1.6-.5 1.4 0 1.8 0 1.8.3s-.4.4-1.7.5c-1 0-1.7 0-1.8-.2zm115.3.2a.9.9 0 0 1-.1-.6c0-.2.4-.3 1.4-.3 1.1 0 2-.3 3.7-1 2.4-1 3.9-1.2 3.9-.3 0 .3-.2.5-.7.5-.8 0-2.3.5-2.3.8 0 .6-5.3 1.4-5.9.9zm26-.1c-.8-.2-2.5-1-4-2-.3-.2-1.5-.7-2.7-1l-2-.8-.4.5c-.2.2-.4.8-.4 1.3 0 1.2-.4 1.3-1.3.6-.4-.4-1.1-.8-1.6-1-1.8-.7-2.7-1.2-3.1-2a8.9 8.9 0 0 0-2.2-1.9 7.8 7.8 0 0 0-3.6-1.4c-2.7-.4-3-.5-3-1 0-.3.2-.4 1.2-.2.8 0 1.4 0 1.8-.2a8 8 0 0 1 2.5-.6c1.8-.1 4.7-1.1 5.6-1.9.7-.5 1.2-.4 2.4.7a11 11 0 0 0 2.2 1.6c1.5.7 3.5 2.5 3.3 3-.3.8-1 .5-2.5-.8-1-1.1-1.6-1.4-2.8-1.7-1-.2-1.6-.4-1.8-.8-.4-.7-1-.6-2.8.2-.9.4-2.2.7-3 .8l-1.4.2 1.9 1c1 .6 2.2 1.5 2.8 2.2.5.7 1.1 1.2 1.3 1.2l1.5.5c1.3.6 1.7.5 2-.5.2-1.2.7-1.5 1.8-1l1.2.5c.3 0 2 .7 3.8 1.6a3 3 0 0 0 1.9.3c.6 0 1 0 1.8.7 1.5 1.3 1.3 2.3-.5 1.9zm-32.8-1.7c-1.8-.5-2.5-1-2.2-1.5 0-.2.5-.1 1.4.2l3 .7c1.2.2 1.7.4 1.8.8 0 .6-1.7.5-4-.2zM50 138.7c0-.3 6-1 6.8-.8.3 0 .5.2.5.4 0 .3-1 .4-3.6.5l-3.7-.1zm78-.6c0-.4 1-1 3.5-2l3.2-1.3.6-.4h-1.1c-1.8 0-1.2-.6.9-1 1-.1 2.2-.4 2.6-.6 1-.3 1-.3 1 0 0 .5-1.3 1.6-2.3 2.2-5.2 2.6-8.3 3.8-8.3 3.1zm34.7-1c0-.7 5.4-2.4 6.3-2 .6.1.4.9-.3.9l-3.2.6c-3 .8-2.8.8-2.8.4zm-121.2-.3c0-.5 1.9-1.2 2.6-1 .7.2.8.6.3.8-1 .3-2.9.4-2.9.2zm39.6 0a7 7 0 0 1-2.4-.7l-1.2-.4a6 6 0 0 1-1.8-.5c-1-.5-1.7-.6-4.6-.6a61 61 0 0 0-5.8.3l-2.5.3-1.2-.5c-1-.4-1.3-.7-1.3-1.1 0-.3-.2-.7-.7-.9-.4-.1-1.2-.7-1.7-1.2-.6-.4-1.1-.8-1.3-.8-.3 0-2.5-4.4-3-6.1l-.4-1.5-1.8.1c-1.1 0-2 0-2-.2-.4-.5 0-.7 1.8-.6H53l-.3-2a25 25 0 0 1 0-10.8c.1-.8 0-.9-.3-.7l-.5.2.2-2.8.4-4.5c.6-3.7.6-4.3.3-4a24.5 24.5 0 0 1-10.4 14.7c-.9.5-1.8 1.2-2 1.5l-.2 2.8c0 2 0 2.6.5 3.4l1 2.6.3 1.6 1 .3c.6.2 1 .3 1.2.2 0 0 1.3-.2 2.7-.2 1.4 0 3-.2 3.7-.4 1.1-.3 1.7-.2 1.2.3-.1.1-1.7.4-3.5.5-2.8.3-3.4.5-3.8 1l-.4.5-.3-.7c-.1-.3-.3-.5-.3-.3 0 .6 1.1 2.1 1.8 2.4.7.3 1.5 2 1.2 2.4-.4.4-4.3.9-5.3.7-.4-.1-1-.3-1.1-.6-.2-.2-.6-.3-1-.2l-.7-.1c-.1-.2-.7-.4-1.4-.5-1-.1-1.2-.2-1.2-.8l-.1-.7h-1.4l-1.4.1-.3-.9c-.3-.5-.5-1-.7-1-.4-.3-2.8-5.3-3.3-7-.3-.8-.6-1.4-.9-1.4l-.4-.2c0-.8-.2-1.3-.5-1.4-.2-.2-.2-.6.2-1.9 1-3.1 1-5.4 0-4.5-.5.5-.9.2-1.5-1.1l-.7-1.2-1.4.8c-1.3.8-1.5 1.3-1.4 2.8 0 .1 0 .4-.2.5-.4.2-.3 2.1 0 2.8l1.6 2.2c1.6 2 2.3 3.4 2.5 4.8.2 1.9.6 3.3 1 3.8l.6.5-1 .8c-.6.6-1 .8-1.8.7-1 0-1.4-.7-.4-.7.6 0 1.4-.6 1.1-1l-3.8-.3c-2 0-3.7-.1-3.7-.2-.4-.3.6-.5 3.5-.6 2 0 3.3-.2 3.3-.4 0-.1-1-.3-1.9-.3-2 0-3-.5-1.7-.8h2.2l1.4.1v-.5c0-.4-.1-.5-.4-.4-1.2.5-2 .5-2.5 0l-.5-.4-1.5.5c-1.2.5-1.8.6-3.3.4-1 0-2-.3-2.3-.5-.7-.5-1.1-.4-1.5 0-.2.3-1 .6-2 .8l-2.6.7H7c-.5-.3.3-.8 2.1-1 1.9-.4 3.5-.8 3-.9h-1c-.5 0-.8-.2-.8-.5s.4-.4 2.1-.3c1.2 0 2.4.3 2.8.5 1 .5 2.4.4 4.5-.1 1.5-.4 2-.4 3-.2.8.3 1 .2 1.1 0 .3-.7-.1-1.7-1.2-2.7a5.2 5.2 0 0 1-1.2-1.9c0-.4-.6-1.3-1-1.8-1-1.2-1.2-2-.6-2.5.5-.4 1-2.1.7-2.5-.2-.1-.4 0-.6.1-.7.5-2.2-.3-3-1.7-.4-.6-.8-1.2-1-1.2l-.2 1c0 2.2-1.5 4-3.3 3.8-1-.2-1.2-.8-.2-.8.8 0 2.7-1.3 2-1.3-.2 0-.3-.4-.3-1s-.3-1-1-1.8c-1.3-1.3-1.3-2.5 0-3.8l1-.9-.5-.9c-.6-1.2-.9-1.3-2.5-.8-.7.3-2 .5-2.7.6-1.2.1-1.5 0-2-.3l-.5-.6 1.5-.4 2.2-.8 1.7-.7 1-.4-.8-1.3c-.7-1.3-1-1.6-2.4-1.8-1-.2-2-.9-2-1.3 0-.3 1.8 0 2.5.3.6.3.6.2 0-1.5-.1-.7-.4-2.1-.4-3.1l-.3-4.7c-.2-2.4-.1-3 .4-4.9l1-3.8a39.4 39.4 0 0 1 6-13.5 33 33 0 0 1 4-5.8c.6-.6 1.3-1.5 1.5-2 .3-.5 1.4-1.9 2.6-3 1.9-1.8 2.2-2 2.5-1.7l.3.4.7-.4 1.5-1.5c1-1.3 2.8-2 5-1.7.8.1 1.5.3 1.6.6.2.6-.1.6-1.5.3-1.8-.4-3 0-4.7 1.8-.7.7-1.8 1.6-2.4 1.9-.6.3-1.2.6-1.3.8l-.6.3c-.6 0-2.5 2-4.6 4.9L18 60.5a18.5 18.5 0 0 0-2.7 4.3l-1 2c-.7 1-.9 1.5-2.5 6.2A31.4 31.4 0 0 0 10 89.5c.7 3.4 1.3 5.1 3.1 8.5.7 1.2 1.2 2.3 1.2 2.5 0 1 .4 1.1 1.9.7 1.7-.5 1.8-.5 1.8 0 0 0-.8.6-1.7 1l-1.7.8.6.7c.4.7.6.7.6.4 0-.2 0-.6-.2-.8-.3-.3-.2-.4.4-.4 1 0 2.3-.6 3-1.3.4-.4.6-.9.6-1.7l.2-1.4c.4-.2.8.8.7 1.6l-.2.8.6-.6.5-.7.2.5c.1.3 0 .6-.3 1-.8.9-3 2.4-3.8 2.6-.8.2-.8.5-.1 2.8.4 1.5 1 2 2 2.3.5.2.9 0 2.3-1.4a16 16 0 0 1 1.8-1.6l.5-.2c.3-.2.3-.4 0-1.3-.3-.5-.6-1.6-.7-2.3l-1-2.7-.6-1.4-.1-3.3c0-3.1.2-5 .6-5l.3 4v4l.6 1.3c.4.6.9 2 1.1 3a7 7 0 0 0 .7 2l.2.5c0 .3.4 1.1.7 1.9.8 1.5 1.9 2.3 3 2 .3-.1.7 0 1 .1.4.4 2.8-.5 5.4-1.9a26 26 0 0 1 4.8-2c.7 0-.6 1-3.4 2.4-1.6.9-3 1.8-3 2 0 .2-.2.5-.6.7-.4.3-.5.6-.4 1.3.1.4.4 1 .7 1.1l.4.4-.6 1c-.7 1.1-.7 1.7 0 2.3.3.3.5.7.5 1 0 .3.5 1.2 1 2a9.6 9.6 0 0 1 2.1 7.6v.8h.7c.4 0 .9.3 1 .5l.4.5.5-.4c.2-.3.5-.5.6-.5.3 0 1.1 1 1.1 1.3 0 .5.5.4.6 0 .1-.3.4-.5.6-.5.6 0 .5 0-.7-1.9l-1.3-2.7-.6-1.8c-1.2-2.6-1.3-2.8-1-3.3.3-.4.3-.9 0-2.3l-.7-2.4c0-.5 0-.6.6-.8.9-.2 3-1.6 3.2-2 0-.3.7-.6 1.3-.9 1.1-.4 1.3-.6 1.2-1.4 0-.1.5-.6 1.1-1 1.3-1 2.8-2.5 3.5-3.8 1.8-3.2 3-6.7 2.5-7.5-.3-.5 0-2.3.5-2.5.4-.2.4-1.3 0-1.6-.3 0-.5-.6-.5-1 0-.8-.2-1-.9-1.2-.5-.1-.9 0-1.3.2-.3.2-.7.3-1 .1-.4-.3-.2-2.4.5-4.3l.5-1.3-.7-1.4a100 100 0 0 1-1.5-2.8c-.1 0-.5.4-.8 1-.3.4-.7.9-.9.9-.3 0-.3-.3.3-1.2l.5-.9-.3-.7c-.3-.6-.4-.6-.7-.3-.6.7-.8.2-.4-.8l.3-1.1c-.1 0-.3.1-.4.5-.3.7-1.8 2.2-3 3-2.4 1.6-3.4 2-3.4 1.3 0-.2.2-.5.5-.6.2 0 1.3-.7 2.3-1.4l1.8-1.3V78c0-.5-.1-.9-.3-.8l-1.8.7c-2.4 1-3.8 1.2-3.8.8 0-.2.1-.4.3-.4.8 0 5.4-1.6 6.2-2.2a7.7 7.7 0 0 0 2.6-4v-1.2l-1 .5c-1.4 1-1.1-.2.4-1.6.2-.2.5-.7.6-1.2.5-2.1.5-2.2-.1-2.9l-.6-.6.3-1.7c.5-2.4.7-2.9 1.4-2.7.3 0 .7 0 .9-.2.3-.2.5-.2 1 .3s.4 1.2-.2 1c-.8-.4-1.3 1.4-1.4 4.5-.1 2.6 0 3 .3 3.2.2 0 .4.4.4.7 0 .4.1.7.3.8.1.1.2 0 .2 0 0-.4 1.5-1.2 2.4-1.2 1.2 0 1 .5-.4.7-1.2.1-2.4 1.2-2.1 1.8 0 .3.1.3 1.3 0 1-.2.9.2-.1.6-.6.2-.8.6-1 1.5l-.7 1.8-.4.6.6 2 1 2.6c.3.3.5.8.5 1.1 0 .3.2.6.4.7.2.1.4.4.5.7.1.2.4.5.7.5.9 0 1.4 1.1 1.5 3.7 0 1.6.2 2.4.4 2.4.6 0 1.7-1.4 1.6-1.9 0-.3 0-.8.3-1.2.4-.5.4-.8.1-1.4-.2-.6-.2-1 0-1.7.4-1.2.9-6.2.8-7.6 0-.9-.2-1.2-.5-1.1-.3 0-.4-.4-.4-2.7a15 15 0 0 0-1.7-7.8c-.4-.6-.7-1.1-.5-1.2.1-.1.5.2.8.8.3.5.7.9.8.9.4 0-.6-2.4-1-2.8-.2 0-.4-.5-.5-.9 0-.4-.4-1-.7-1.2-.3-.3-.5-.8-.5-1.2 0-1-2.3-3.9-3.5-4.5-1.5-.8-3.1-2.5-3.1-3.3C45 51 43.5 48 43 48c0 0-.3-.3-.3-.5-.1-.3-.7-.8-1.4-1.3a6.6 6.6 0 0 1-1.9-1.8c-.4-.7-1-1.4-1.8-1.8l-1.2-.8c0-.5 1-.4 2.2.3 2.4 1.3 2.9 1.7 3.3 2.6.2.5.8 1.4 1.4 2l1.9 2c.4.6 1 1.4 1.2 2 .7 1.6 2.3 4 2.9 4.1.3.2 1 .2 1.7.1l1.2-.1 1.5 1.7 1.5 1.6.5-.3c.4-.2.8-.3 1.1-.2a5 5 0 0 0 2-.3l1.4-.4.6-1.2a17 17 0 0 1 3-4.3l.1.6c0 1 .5 1.1 1.7.4 1-.5 1.4-1 1.9-2.4 0-.2.2-.4.4-.4.3 0 .4.3.3 1.1 0 .3 0 .5.4.4.8-.2 1.7-2.2 1.9-4l.1-1.6-1.7.1h-1.7l-.7-.6c-.5-.3-1.2-1-1.8-1.6-.5-.5-1.1-1-1.4-1-.4 0-.7-.5-.7-1.4 0-.8-1.3-3-1.9-3a.7.7 0 0 1-.6-.5c0-.2-.6-.6-1.1-.8l-1.8-1-.7-.5-.8.4a2 2 0 0 1-1.5.3l-.7-.2.8-.7c1-.8 1.4-1.6 1.4-2.4 0-.3.3-1 .6-1.4.3-.6.5-1.4.5-2.7.1-2-.1-2.7-.6-2 0 .3-1.3 1.2-2.6 2-2.8 1.9-3.5 2.9-3.5 5.3 0 2.3-1 6-1.7 5.4l.4-2 .4-1.7-.4-1c-.3-.4-.7-.9-1-1a10 10 0 0 0-4.8 1.4c-.1.2-.8.6-1.5 1-.7.3-2.3 1.6-3.6 3a10.6 10.6 0 0 1-2.5 2s.4-.7 1.2-1.4c2.5-2.4 2.6-2.8.2-.9-2.2 1.7-2.2 1.8-2.2 1.6l.6-.8c.4-.5.6-1 .6-1.5a427.5 427.5 0 0 0-.8-6.3c0-1.1-.3-2.9-.5-3.9a54.3 54.3 0 0 1-1-8.6c.1 0 .3.6.4 1.4.2 1 .3 1.2.5 1 .3-.2.4-.1.6.5l.3.7 1.5-3.1a24.9 24.9 0 0 0 1.7-4 10 10 0 0 0 1.6-3c0-.2.2-.4.4-.4s.4.2.4.4c0 .5-1 2.4-1.4 2.8l-.4.7a35.6 35.6 0 0 1-4.1 7.5c-.5.3-.7.5-.6 1a117.4 117.4 0 0 1 2.1 13c.2 0 .3-.4.2-.7 0-.7.5-2 .8-1.8.1.1.2.4.1.7-.1.3 0 .6.2.7.5.2 3.6-2.1 3.7-2.8v-2.3c-.3-2.3 0-3.2 1.6-4.3 1.8-1.3 4-3.6 4.5-4.5.3-.9.7-1.1.7-.4 0 .2.3.4.7.4.8 0 1.7 1.5 1.7 3 0 .7.1.8.2.5 0-.4.3-.7.5-.8.2 0 .4-.4.4-.7 0-.3.3-.8.6-1.1.5-.5.6-.8.5-1.7-.1-.8 0-1.3.4-2.1S54 18 54 17c0-1.4-.4-2-.6-.7 0 .4-.2.8-.4.8-.3.1-.4 0-.2-.6l.4-2.2.3-1.5.5.6c.3.3.4.8.3 1.2 0 .4 0 1.3.2 2l.3 1.3-.5 1.4c-.4 1-.5 1.8-.4 2.2 0 .4 0 1-.3 1.5l-.6 1.8c0 .5-.3 1-.6 1-.5.2-.8.8-.8 2 0 .7.2.6 2.9-1.2 1.2-.8 2.3-1.5 2.5-1.5 1.4 0 1.6 3.9.3 7.2l-.5 1.3.4.4c.8.8 2.2.9 3.3.3 1.8-1 7.5-1.4 6.6-.6l-1.5.3c-.7 0-1.6.2-2 .3l-1.8.5c-1.4.2-1.5.8-.2 2l1.1 1.3c0 .2.3.6.7 1 .3.2.7.9.8 1.3.3 1.3.4 1.4.9 1.6.3 0 .5.2.5.3 0 0 .4.6.9 1l.8 1 2-.2c2.5-.2 2.5-.2 2.2 3-.2 1.4-.5 3-.7 3.4-.6 1-2.3 2.4-3.3 2.4-.5 0-1 .2-1.4.8-.4.4-1 .8-1.6 1-1 .1-1.5.5-1.5 1.1 0 1-4 3.7-5.4 3.7-1 0-1.3.9-1.4 4 0 2.2-.2 3.3-.8 6 0 .4.1 1.5.4 2.4.3 1 .7 2.7.7 3.8.1 1.1.3 2 .4 2 .2 0 .8-.7 1.4-1.7.6-1 1.6-2.3 2.2-2.8a26.8 26.8 0 0 1 7.8-5.4c.6-.5 4-2.2 4.5-2.2s1.3-1.1 1.3-1.8c0-.3.5-1.3 1-2.1a5.7 5.7 0 0 0 1.3-3c.1-1.5 1-3.8 1.6-4.5.2-.2.4-1.2.5-2.1 0-1 .2-1.8.4-2l.3-1c.2-.8 2-2.6 4-4 2-1.3 3.8-3.1 4-4 .2-.9 1.4-1.1 2-.4.4.3.6.7.6 1l.3 1.5.2 4.1v3l1.1.1c2.2.1 3.5.5 4.7 1.5 1.4 1.1 1.8 1.2 3.6.5 2.8-1.2 3-1.3 3.5-3 .6-1.9 1-2.3 2.6-3.1 1.7-1 2.3-.6 2.7 1.6l.3 1.7-.6 1.6c-.4 1.2-.5 2.3-.5 4v2.4l-.8 1.6c-.4.9-1 1.8-1.3 2.2l-.5.5.4 1c.3.7.3 1.4.2 2.5a5.6 5.6 0 0 1-1.8 3.9 2 2 0 0 0-.7 1.4c0 .8-1.8 4.7-2.1 4.7-.2 0-.4.3-.6.7-.2.5-.8.8-1.7 1.2-1 .3-1.3.6-1.2 1 0 1.2.6 3.2 1.3 5.3 1.1 2.9 1.4 6.9.8 9.5-.4 1.4-.4 1.7-.1 2.1.6.7.7 1.5.4 2.2-.2.3-.2.6 0 .7.9.6 1 2.9.3 4.1l-.8 1.4c-.1.3-.8 1-1.4 1.6l-1.3 1 .5 1c.4 1.1.4 2.8-.2 7-.6 3.7-2.7 8.5-5.3 11.8-.6.8-.7 1.4 0 1.1a32 32 0 0 1 3.5-1c.5 0 .1.7-.5.9a9 9 0 0 0-1.2.5l-1.6.4c-.7.2-1.4.5-2.2 1.2-1 1-1.7 1.3-1.7.8l1.1-1.7 2-2.7c3-5.1 4-7.1 3.5-8.1-.2-.6.2-2.9.6-3.3.1 0 .2.3.2.8 0 .8.1 1 .3.8.4-.4.7-6 .3-5.8-.4.2-.5-.5-.3-1.8.2-1 .1-1.7-.5-5.1 0-.5 0-1.3.2-1.7l.3-.8-1-2c-.7-1.2-1.4-2.3-1.7-2.5A20.8 20.8 0 0 1 90 85l.2-1.9c0-.8.1-1.1.4-1 .2 0 .3.9.3 2.8a18.5 18.5 0 0 0 2.7 9.9c0 .2.5.7 1 1 1.2 1 2.3 2.5 2.1 3l.1 1c.2.5.2 1 0 1.4-.2.5-.2.8.2 1.7.3.6.6 1 .8 1 .4 0 1-.7 1.5-1.7.7-1.4.5-4-.2-3.6h-.8c-.4-.2-.3-.3.2-1 .6-.6.7-1 .5-1.3l-.6-.6c-.3 0-.3-.4 0-1.3.5-1.6.6-2.5.3-6.6-.3-2.8-.5-3.9-1-5.5-.5-1.1-.9-2.3-.9-2.6 0-1.2-2.9-4.8-3.8-4.8-.3 0-.3-.4-.3-1.2v-1.1h-.6c-.3-.1-.6-.3-.7-.5-.1-.3-.4-.2-1 .3-1.2.7-1.8.8-1.8.2V72l-.5.5c-.3.3-.5.4-.7.1 0-.2 0-.5.4-.8l.6-.4-.4-1-.9-1c-.2-.1-.3-.3-.2-.5.3-.5 1-.2 2 .7 1.4 1.4 1.4.6-.1-1.4-1.4-1.9-2.4-2.7-3.2-2.7-1 0-1 .4 0 1.3.9.8 1.2 1.6.7 1.6l-1-.8c-.5-.6-1-.8-1.3-.7-.3.1-.7 0-1-.3-.3-.3-.7-.3-1.4-.2-.9.1-1.3-.2-.6-.5.3 0 .2-.1 0-.1-.3 0-1 .2-1.5.5l-2.4.8c-2.7.5-3.3.7-5 2.2-1 .8-1.8 1.5-2 1.5 0 0-1.3 1.3-2.6 3-2.3 2.7-3.2 3.5-3.2 2.9 0-.2.5-1 1.2-1.9.7-1 1-1.7.9-1.8-.2-.2.3-.7 1.3-1.4l3.6-2.9c1-.9 2.3-1.7 2.7-1.8a13 13 0 0 0 1.8-.6c1.5-.7 3-1 4.4-1 .6 0 1-.2 1-.2-.3-.3-3.5-.2-4.8.1-1.6.4-5.5 2.1-6.1 2.7l-2.4 1.2a18 18 0 0 0-5.2 3.2c-3 2.2-6 6.9-5.7 8.6.1.6 0 1.4-.4 2.3-.3.7-.4 1.3-.2 1.3.1 0 .2-.2.2-.5l.4-.8c.2-.2.4-.2.4-.1s.3 0 .6-.3c.2-.2.5-.7.5-1 0-1.6 4.6-6.5 5.3-5.5.3.6 0 1.3-1.2 2L61 79.6c-.6.7-1.7 2.9-1.7 3.4a41.8 41.8 0 0 0-4 15.6c0 .5-.4 1-.7.8l.2-1.8.4-3.2c0-.8.4-2.7.8-4 .8-3.2.8-3.2.1-2.2-1.4 2.2-3.2 12-3.2 17.3 0 2 .3 2.8.7 1.7 0-.3.3-.7.5-.9.4-.2.4-.2.2.6 0 .5-.3 1-.4 1.3a23.8 23.8 0 0 0 2.5 18.4c.6 1 1 1.8.9 2.1-.2.8 2 2.8 4.2 4l1.9 1h3.8c2 0 3.8-.1 3.9-.2l-1-.3c-.7 0-1-.3-1-.5 0-.7.7-.8 2.5-.2 3.7 1.1 4.7 1.4 5.4 1.4.4 0 .8.1.9.3.3.9 3.4.1 5.7-1.4 2.6-1.7 3-1.9 3.2-1.7.5.3.3.8-.5 1.1l-1.4 1c-.7.5-.7.7-.5 1.2.1.4.5.8.8.9.6.2.7.7.2 1.2-.5.4-2.4.5-4.3.3zm1.5-1.4c.3 0 .5-.1.5-.4 0-.4-.8-.5-1.7 0-.8.4-.6.8.2.6l1-.2zm-37.9-6c.2-.2-1-1.1-1.6-1.1-.4 0-.5.2-.5.8v.8l1-.1 1.1-.4zm-9.5-4c0-1.2-.2-1.8-1.3-4-.8-1.5-1.3-2.9-1.3-3.1 0-.3-.3-.8-.7-1-.8-.8-1-1.8-.7-2.5.2-.3.2-1 0-2.1l-.3-1.6-.6.1c-.5.1-.7 0-.7-.4 0-.3-.1-.5-.3-.5-.7 0-.4 6.8.2 8.7a31 31 0 0 0 4 7c1.3 1.4 1.7 1.3 1.7-.5zm1-2c0-.3-.3-1.2-.7-2-1.2-2-1.3-1.8-.5 1 .5 1.6 1.3 2.3 1.3 1zm-20.7-17.1c0-.2-.1-.2-.1.1 0 .3 0 .5.1.4v-.5zm-.4-.8c0-.5-.5-1.2-.7-1l.1.8c.4.6.6.7.6.2zm36.4-17.8c.2-.8-.5-1.7-1.3-1.7-.6 0-.6 1 0 1.1.4 0 .6.4.6.7 0 .8.4.7.7-.1zm47.4-12.3c0-.1 0-.3-.3-.3-.4 0-1.5.8-1.5 1 0 .4 1.7-.3 1.8-.7zm2-2.2c.2-.3.4-.8.3-1l.4-2c.4-1.3.5-2 .4-2.7l-.2-1.1.2-1.5c.2-1.2.1-1.4-.2-1.4-.6 0-1 1.3-.7 2.2.3 1-.2 1.6-.5.6a8 8 0 0 1-.4-2v-1.2l.9-.7c.5-.4 1.7-1.2 2.7-1.7 1.2-.7 1.9-1.2 2-1.7.2-.3.4-2 .5-3.7.1-2.4.3-3.2.6-3.7.4-.5.5-1 .5-2.4 0-2.3-.2-2.6-1.2-2-1 .5-1.3.9-2.2 2.7l-.7 1.5-2 1.1-2.5 1.3c-.5.1-.6.4-.7 2l-.2 1.9.7 1c.5.7.6 1 .3 1-.4.4-1.3-.1-1.3-.7 0-.3-.2-.7-.5-.8-.6-.3-1-1.3-.5-1.7l.2-1.2c0-1-.8-1.8-3.2-3.4-1.6-1-1.7-1-3.6-.4-3 .8-3.5.9-3.8.6-.3-.2 0-.5.6-1.1 2.2-2 2.9-4.3 2-6.5-.2-.5-.4-1.3-.4-1.8V42l-1 1c-.5.7-1.6 1.6-2.4 2.2-4.8 3.2-5.4 4-4.8 6 .2.7.3 1 0 1.2l-.4.9a6 6 0 0 1-1.1 1.6c-.6.6-.9 1.3-1 1.7a8 8 0 0 1-.2 1.8c-.2.8-.2 1 .2 1.4.2.2.3.6.2.8l-.1 1.1v.8H77c-.6 0-.8.1-.8.5 0 .7.3.9.8.6.7-.4 2.6.1 2.6.6s.7.6 1 .2c0-.2 0-.3-.3-.3-.2 0-.4 0-.4-.2 0-.4.7-.9 1.4-.9s3.5 1.2 3.7 1.6l1.1.4c1.1.2 2.8 1.7 3.9 3.4.4.7 1 1.3 1.3 1.4.3 0 .8.5 1 1l1.9 2c.7.7 1.3 1.4 1.4 1.7 0 .2.4.4.8.5.9.1 3.8-1 4.4-1.7zm-5.5-8.7c-.2-.4.3-1.5 1.1-2.4 1-1.1 1.2-.6.3 1-.9 1.6-1.1 1.9-1.4 1.4zM90.2 62c0-.3 0-.6-.2-.6s-.3 0-.3.2-.1.2-.3.2c-.4-.3-.3-1.1.2-1.5.2-.2.4-.8.4-1.3 0-.8.1-1.1.5-1.3.3-.2.6-.5.7-.8.1-.6.9-.8.9-.2l-.5 1a7 7 0 0 0-.5 2.7c-.1 1.3-.3 2.1-.5 2.2-.2 0-.4-.1-.4-.6zm-7.6-3.2a10 10 0 0 1 3.2-3.3c.4 0 .3.2-.6 1.2a21 21 0 0 0-1.5 1.7c-.4.6-1.1.8-1.1.4zm21.5 8c1-1.8.9-3.3 0-3.3-.3 0-.6-.2-.8-.5-.1-.2-.4-.3-.6-.2-.2.1-.2.3 0 .5.1.2.2.9 0 1.6 0 1 .3 3.3.7 3.3l.7-1.4zm-28-4.5c0-.3 0-.4-.2-.3l-.2.4c0 .4.2.3.3-.1zm-21.6 0c0-.4-1.3-2.5-1.6-2.5-.4 0-.3.6.5 1.6.6 1 1.1 1.3 1.1.8zm.5-2.5-.5-.8c-2.4-3-2.9-3.4-2.9-2.5 0 .7 2.4 3.5 3 3.5.2 0 .4 0 .4-.2zM44.4 33.2a10 10 0 0 1 2.7-.5c1.8-.1 1.9-.2 2.5-2.2l.5-1.4-.4-.6a6 6 0 0 1-.5-2.3c0-1-.1-1.9-.3-2-.5-.6-1-.5-1.4.5L46.2 26c-.4.3-1.4 1-2 1.7L42.8 29v2c0 2 0 2.6.4 2.6l1-.4zm11 103L54 136c-1.5 0-.4-.2 2.2-.4 2.3-.2 2.7-.1 2.7.2 0 .3-.2.4-.7.4l-1.7.2c-.5 0-1 0-1.3-.2zm130.6 0a10 10 0 0 0-2.9-.2c-3.3 0-8-.3-8-.6s2.3-.5 6.7-.4c4.3.1 5.7.4 5.5 1-.2.5-.8.6-1.3.2zm33.3-.3c-1.2-.6-1.3-1.1-.2-.9l1.5.2c.5 0 .6.1.6.6 0 .8-.5.9-2 .1zm-172.5.1c0-.4 2.7-.7 4.5-.5 2 .3 2 .5-.1.5l-3.1.1h-1.3zm99.6-1.1c-.2-.5.2-.7 1.4-.8.7 0 1-.2 1.1-.6l.1-.4-.9.3c-1.6.4-5.9 1-6.5.7-1-.4-.4-.7 2-.9a28.5 28.5 0 0 0 9.7-2.5c.3 0 .4-.3.4-.6s.3-.6.7-.8c.9-.3 1-.3 1 .2 0 .4.1.4 1 .2 1.6-.2 1.2.5-.4.8-.8.2-2.1.7-3.1 1.2s-2 .8-2.3.8l-.8.3c-.7.5 1.2.3 3.8-.3 3.4-.8 7.9-.5 6.9.5-.2.2-.7.2-1.3 0-1.6-.3-3.2-.3-5.9.2-3.7.6-3.8.7-3.6 1 .1.5-.1.6-1.8.8-.8.1-1.3.1-1.5-.1zm-132.8-.8c0-.1-.1-.3 0-.4.2-.2 7.5-.5 7.7-.3.5.5-.4.7-3.9.8-2.6.2-3.6.1-3.8 0zm38.4 0c.4-.3 4.5-.8 5.4-.6.5 0 .8.3.7.5 0 .1-1.2.3-3.2.3-1.8 0-3 0-2.9-.2zm142.1-.5c-.6-.6-.5-.9.2-.8.4.1.6.3.7.7 0 .7-.3.8-.9.1zm10.1-.3c-.6-.7-.6-.8.2-1.5 1-1 1.3-.8 1.2.5-.1 1.6-.6 2-1.4 1zM97 133.1c-.6-.2-2.7-.5-4.6-.7-2.9-.2-3.6-.4-3.6-.7 0-.4 2.1-.7 2.6-.2l1.5.2c.9 0 4.4.5 6 .8v.6c0 .6-.4.6-2 0zm-38.8 0c0-.2.2-.3.4-.3s.4.1.4.3l-.4.2c-.2 0-.4 0-.4-.2zm143.2-.1c-1.4-.7-.7-1.6.8-1 .4.2.7.5.7.8 0 .6-.6.7-1.5.2zm-181-.7c-.2-.4.2-.5 1.8-.8 2-.3 2.4-.3 2.4.4 0 .2-.5.3-2 .4h-2.1zm32.1 0-.5-.2.7-.2c1-.2 2.3-.2 2.3.1 0 .1-.2.3-.6.3h-1.9zm119.1-.4c-.9-.5-2-.7-3.7-.8-1.9-.2-2.5-.3-2.5-.6 0-.4 3.5-.2 5.8.3 2.1.5 2.3.5 5.5-.6 1.7-.5 3.1-.8 3.4-.7.7.2.2.5-3.2 1.7-1.8.5-3.4 1-3.6 1.2l-1.7-.5zm35.6.4c0-.2.4-.5.8-.6.3 0 1.4-.7 2.4-1.4 1.5-1 2-1.2 3.4-1.4 1.7-.2 1.9-.5.3-.7-.6-.1-1.2-.3-1.2-.5-.5-.6-3 .3-4.1 1.5-.7.7-1.4 1-1.4.4 0-.4 2.2-2.4 3.3-3 1.3-.6 2.2-.6 3.2.2l1.1.7c.2 0 .8.4 1.3.8.8.6 1.3.8 2.3.8.6 0 1.3-.1 1.5-.3.4-.5 1.5-.2 1.5.4 0 .6-.7.8-3.2 1.2a5 5 0 0 1-2.7-.1c-1.8-.6-3.8-.2-5.8 1.4-1 .7-2.9 1.1-2.7.6zm-65-1 1.5-1a4 4 0 0 0 1.2-1.2c.3-.7 1.3-1.3 2-1.3.2 0 .1.2-.3.7l-.7.7.8-.2c1-.3 2-.9 2-1.3l.4-.7c.2-.2.4-.6.4-.9 0-.6.6-.6 1.2.1.3.5.4.7.1 1.2-.5 1.2-.3 1.2 1.3-.1 2.4-1.9 3.8-2.5 5-2.3.9.1 1.1.5.6.8l-.3.6c0 .3-.4.6-1.4 1-1.7.5-2.1.5-1.2 0 .5-.3.7-.6.6-.8 0-.2 0-.4.2-.4s.3 0 .2-.2c-.4-.4-2.6 1-5.2 3.5-.6.6-1 .7-1 .4-.2-.2-.5-.2-1-.1s-.7 0-.7-.3c0-.2-.1-.4-.3-.4-.3 0-3.3 1.5-4.2 2.1-.4.3-1 .5-1.2.5h-.5l.5-.4zm-65.7-.4c-1.6-.5-2-.8-1.8-1.2.1-.2.6-.1 1.4.2.6.3 1.3.5 1.4.4l2.5-.4 2.9-.4c.5-.2.7-.1.7.2 0 .5-.4.6-2.7.8-1.3.2-1.8.3-1.8.6 0 .5-.9.5-2.6-.2zm79.2.4c.8-.9 7.7-1.3 8.1-.6.3.5-.1.8-.8.6-.8-.3-3.7-.3-6 0-1 .2-1.5.1-1.3 0zm48-1.4-.5-2.2c-.2-2-1.1-4.4-1.8-5.1l-1.9-1.8c-1.4-1.4-2.5-3.3-2.1-3.9.2-.3.4 0 .7.8.5 1.2 2.4 3.2 3 3.2.2 0 .3-.3.1-1-.4-2.3-.5-6.2-.2-7.5.5-1.8.5-2.8-.2-3-.8-.3-.9-1.3-.3-2.7.6-1.3.7-2.3.3-3.4-.3-1 .2-1.3 1.1-.7 1 .5 1.1.3.9-.9-.2-1-1.6-3-2.2-3l-.8-.8-.6-.7.2-2.6c0-1.9.3-2.8.6-3.1l.7-1.1c.1-.3.5-.6.8-.7.4 0 .4 0 .3.5-.5 1.7-.7 3.6-.3 4.1.2.3.4 1.1.5 1.8.2 1 .3 1.2.8 1.2 1 0 1.3.5 1.5 2 .2 1.8-.3 9.3-1 14.3-1.2 8.5-1.1 7.7-.4 9.2a34 34 0 0 1 1.8 6.9c.2.9-.5 1-1 .2zm-1.5-15.4.2-1.6a52.5 52.5 0 0 0 1-9c0-.2-.3-.1-.6 0-.4 0-.7.4-.8 1 0 .6-.3 1.6-.6 2.2l-.4 1.1.6.5c.6.7.7 1.6.2 3.8-.4 1.5-.3 2.6 0 2.6.2 0 .4-.3.4-.6zm1.3-15c0-.8-.6-1.4-1-1-.1.1.7 1.8.9 1.8v-.9zm-2.4-3c0-.5-.1-1-.3-1.3-.4-.6-.8 0-.6 1.2.2 1.2.9 1.3.9 0zm-19.3 33.2c0-.5 4.6-2.7 5.7-2.7.7 0 1-.1 1.3-.4l.4-.5-.4-.4c-.4-.2-.6-.2-.8 0-.5.4-1.5 0-1.5-.6s.4-.6 1.1-.2c.5.2.6.2.8 0 .1-.2.4-.3.6-.2.6.2 1-.5 1.2-2.2 0-.9.3-1.5.5-1.6.6-.1.3 1.4-.6 4.4-.9 2.8-1.2 3.3-2 2.6l-.4-.4-1 .5c-2.8 1.4-5 2.1-5 1.7zm18.3-.3c0-.2.2-.4.5-.4.2 0 .4.2.4.4.1.3 0 .5-.4.5s-.6-.2-.5-.5zM27.6 129l-1-.4.5-.4c.2-.3.4-.8.4-1.2 0-.5.2-.8.7-1 1.3-.5 1.8.2 1.1 1.3-.2.4-.2.6.2 1 1 1-.2 1.5-2 .7zm170.4 0c-.8-.4-.8-.7 0-1.2.9-.6 1.2-2 .7-3-.2-.4-.8-1-1.2-1.3-.7-.4-.8-.7-.7-1.1.4-1.6-3.4-4.6-5.8-4.6-1.1 0-1.5-.3-.9-.8.5-.4 2.2 0 4.3 1 1.5.7 3.8 3.2 3.8 4 0 .3.4 1 1 1.6 1 1.3 1 2 .4 4.2-.4 1.4-.6 1.5-1.6 1.1zm-147.7-.7c.2-.5 1.3-.6 1.3 0 0 .2-.2.4-.7.4-.4 0-.6-.2-.6-.4zm109.7-.5c0-.3.6-.6 1-.8l1-.5-2 .2-2-.1c0-.4 1.3-.6 3.5-.7 2.2 0 3-.3 2.6-.8-.5-.6.4-1 2-1.1 1.4-.1 2.5.2 2.1.6l-1.1.3c-.6 0-1.3.4-1.6.6-.7.6-4.8 2.6-5.3 2.6-.2 0-.3-.1-.2-.3zm-95.3-.8c-2-1.7-3.7-3.8-4-5-.2-1.5.2-1.3 1.1.5.5 1 1.5 2.1 2.7 3.3 1 1 2 1.8 2 2 0 .3-.8 0-1.8-.8zm128 .6c-.5-.2-.6-.4-.4-.6.4-.4 1.8-.1 1.9.4 0 .5-.5.6-1.6.2zm-94.4-.4c-.2-.2-.5-.4-.8-.4l-.4-.2c0-.4 1.1-.6 2.2-.4.5 0 1.8 0 2.9-.3a24 24 0 0 1 6-.8c.6.3 0 .6-2.2.9-1.8.3-5.8 1.1-7 1.5-.1 0-.5 0-.7-.3zm97.1-.4-.4-1c0-.7-1.3-2.3-3.4-4.6a7.7 7.7 0 0 0-3.1-2.2c-1.4-.5-2-1-1.3-1.3 1.1-.5 4.8 1.7 6.4 3.7l1.6 2c.8 1 1.8 3.2 1.5 3.7-.2.4-.8.3-1.3-.3zm-24.3 0c-.2-.3.8-1 1.4-1 .3 0 .8-.3 1.1-.7.5-.4 1.2-.7 2-.8l1.3-.1.4.6c.3.3.5.7.5.9 0 .6-.8.7-1.3.2-.3-.2-.8-.5-1.2-.5-.8 0-3.2 1-3.4 1.4-.2.3-.6.4-.8 0zm-125-.5c.5-.4 2.5-.5 2.2 0l-1.3.2c-.6 0-1 0-.8-.2zm4-.3c-.4-.2-.4-.2 0-.4.5-.2 1.3 0 1.3.3s-.9.4-1.4.1zm15.7-1.2c-1.6-1.4-2-2-2.5-3.2-.3-.8-.3-1.3-.1-1.5.4-.4.7 0 1 1 .1 1 1.6 2.8 2.5 3.4.4.2.8.6.8.7 0 .5-.8.3-1.7-.4zm76.2-.4c-.3-.3.1-.4 2.5-.6 2.3-.1 3.1.2 1.1.5l-2.4.3c-.6 0-1.1 0-1.2-.2zm8 0c-.3-.4.4-.5 4.4-.5 2.7 0 3.7 0 3.8.2 0 .2-.4.3-1.5.3l-4 .2c-1.7.1-2.7 0-2.8-.1zm59.8 0c0-.3.5-.6 1.3-.9l2.3-.8c1.2-.5 1.8-.3 1.7.5-.1.4-.3.6-1.2.7l-1.8.5c-1 .4-2.3.4-2.3 0zm-101.5-.6c.1-.4.7-.5.7 0 0 .2-.2.4-.4.4s-.4-.2-.3-.4zm75-.2c0-.9-1.1-4.3-2-5.8-.6-1.3-.8-2.2-.3-2 .4 0 1.8 2.6 2.4 4.3.6 1.8.8 3.8.3 4-.2 0-.3-.1-.3-.5zm22.2-.3.2-.8-.6.2c-.9.3-1-.6-.3-4 .7-4.1.9-4.5 1.4-4.4.4 0 .4-.2.4-1.2 0-.9.3-1.7.7-2.5.4-.7.7-1.6.7-2a72.6 72.6 0 0 0-2.3-11.4c-.3-.6-.4-1.2-.3-2 .2-1 0-1.9-.5-3.4-.4-1.3-.5-2.3-.4-2.4.2-.2.3 0 .4.2.4.8 2.8-.2 2.8-1.2 0-.2-.1-.5-.3-.5-.4 0-.3-.7.2-.9.3 0 .4-.5.4-1.4 0-1.5.2-2.2.5-2.2.2 0 .3.7.3 1.6 0 .9 0 1.6.2 1.7l3.2-.6c3.1-.9 4-1 4-.6 0 .3-.5.4-4.1 1.2-3.2.7-4 1.2-3.4 2 .3.5.2.6-.3 1-1 .6-1.8 2.2-1.7 3.5v1.2l.3-.8c.2-.4.5-1 .8-1.1.2-.2.5-.7.6-1.2.2-1.2.6-.6.5.8-.1.7-.4 1.4-.7 1.6-.2.3-.5 1.2-.7 2.5-.4 2.7-.4 3.4 0 3.4.5 0 1-.9 1.7-2.6.8-2.2 1.5-2.7 2.3-1.6.5.7.8.5 1.6-1.2 1-2.2 1-2.5.3-3-.8-.5-.9-1.3-.1-1.6.3 0 .6-.4.8-.6.3-.7.6-.7 1.2-.1l.4.4-.6.5c-.5.3-.5.5-.3 1 .6 1 .4 2-1 3.8-1.6 2.2-1.5 2.2-2.6 2.2h-1l-.6 1.7c-.5 1.1-1 1.7-1.3 1.9-.8.3-.8.8.1 5.2.6 3 .7 3.6.4 4.4l-.7 2.5c-.4 2-.5 2.1-1.2 2.1-.6 0-.6.3-1 3.3-.4 2.5-.4 2.8 0 2.8 0 0 .3-.7.3-1.5.3-2.3.4-2.8.8-2.5.1.2.1 1.3-.2 3.6-.5 3.7-.5 3.9-1 3.9-.4 0-.4-.2-.3-.9zm1-32.3.5-.8-.5.2-.7.2-.2.6c0 1 .3.9.9-.2zm-58.9 32.6 1.5-.2h.8l-.7.2c-.3.2-1 .2-1.4.2h-.8zm32.2-.2c-.5-.6-.4-1 .3-1 .5 0 1 .9.5 1.2-.2.2-.4.2-.8-.2zm5.5-1.2a8 8 0 0 1-1.1-1.7c0-.4.6-.5 3.1-.7 1.8-.1 2-.1 1.6.2l-.5.4.6.4c.7.5.5 1.4-.3 1-.3-.2-.8-.3-1.1-.3-.5 0-.6-.1-.5-.5.2-.4 0-.5-.5-.5-.7 0-.8.3 0 1.5.5.8.5 1.6 0 1.6-.1 0-.7-.6-1.3-1.4zm-35 .8c0-.6.7-.7 4.2-.8h3v.8h-2.6c-1.5 0-3 0-3.6.2-.8.2-1 .1-1-.2zm17.7.2c-2-.2-4.5-.7-4.6-1-.1 0 .5-.1 1.6 0 2.4.3 6.3.3 7.5 0 .7-.2.8-.1.8.1-.3.8-2.6 1.2-5.3.9zm-60-.6c0-.2 0-.3.2-.3s.2.1.2.3l-.3.2-.1-.2zm37.3-.2c0-.3.3-.4 1.3-.4 1.5 0 1.8.4.5.7-1.3.2-1.8.2-1.8-.3zm2.9-.3s0-.3.2-.5a25.2 25.2 0 0 1 7.1-2.8c.7-.3 1.4-.1 1.4.4 0 .6-.4.8-3 1.7-1.6.6-2.5.8-2.8.6-.2-.1-.6 0-1 .1-1 .5-2 .8-2 .5zm26.3-.4a2 2 0 0 1-.3-.8c0-.3-.5-.8-1.4-1.3-1-.6-1.5-1-1.4-1.3 0-.6-.1-.6-.7 0-.8 1-1.2.4-.5-.8.4-.9.4-1.1.2-1.3-.5-.3-1.1-.1-3.3 1.1-2.3 1.2-3 1.3-3 .4 0-.4-.2-.7-.5-.7-.5 0-.8-.8-1-2.7l-.2-1.6.5.1c.4.1.5.5.7 1.5l.2 1.3.6-.1c.6-.1.7 0 1 .8.1.7.3.8.9.8.4 0 .9-.3 1.1-.6a6 6 0 0 1 1.7-1.2l1.4-.7.4.5c.2.2.3.7.2 1 0 .2 0 .4.5.4.4.1.5.3.6.9 0 .5.3.8.8 1 .9.3 1.9 1.2 1.9 1.7 0 .3.2.6.4.8.3.1.4.5.3.7-.2.5-.8.6-1.1.1zm20.6 0s0-.3.3-.3c.5-.2.8 0 .5.4-.2.3-.5.3-.8 0zm-93-.2c-.2-.1 0-.3.1-.4.6-.2 2.5 0 2.5.3s-2.5.5-2.7.1zm57.6-1.2a.9.9 0 0 1-.1-.5c0-.7-3-3-3.8-3-.2 0-1.8 1-2.9 1.8-1 .7-2.4 1.4-2.6 1.2 0-.1 0-.3.3-.5 2.4-1.4 2.9-1.8 3.2-2.5l.4-.8-.7-.3c-1.8-.7-5.4-1.2-9-1.3-1.5 0-1.2-.2.6-.4 1-.1 2.6 0 3.8.1l2.6.4a31.5 31.5 0 0 1 5.7 2c1 1 1.4.8 1.2-.6a4.8 4.8 0 0 0-2.3-3.3l-.8-.6c0-.3 2.3-.9 2.7-.7.1.1.2.4.1.6 0 .1 0 .4.2.6.2.2.2.4 0 .5-.3.2-.3.4.1 1 .9 1.3 1.1 2.2 1 3v.7c.7-.4 1.7 1.5 1.4 2.4-.2.4-.8.5-1 .2zm61.6-.1a15 15 0 0 0-2.5-.2c-1 0-1.9-.2-2-.3 0-.1.5-.5 1.2-.7a8 8 0 0 0 1.5-.7c.5-.4 1.4-.2 1.4.3 0 .3.3.5 1.1.6.8.2 1 .3 1 .7-.1.5-.6.6-1.7.3zm-111.4-.6c0-.2.8-.4 2.8-.5 1.6-.1 3-.2 3.2 0 .9.2-.3.6-3.2.7-2.5.2-3 .2-2.8-.2zm99.4-.1c0-.2.6-.8 1.3-1.5 1.7-1.7 2.1-2.7 1.5-3.3-.5-.6-.5-1.4 0-2l.4-.6.4.5c.5.8.5 2.9-.2 4.1-.8 1.5-3.4 3.6-3.4 2.8zm-62-.6c0-.2.5-.4 1-.4.6-.1 1.3-.3 1.6-.5.2-.1.5-.2.6-.1l-1.1.7c-1.3.6-2.4.7-2.2.3zm29.6-.7c-1-.4-1.3-1-.8-1.6l.4-.4.8.4c.8.4 1.1 1 .9 1.6-.2.5-.3.5-1.3 0zm-25.6-.8h.6l-.3.1c-.3 0-.5 0-.3-.1zm22.3-1.5.9-1.3c.5-.6 1-1.3 1-1.5 0-.7 1.1-1.6 2-1.6l1.7-.6 3.5-1.3 4-1.5 1.6-.7 3.8-.1c2.4 0 3.9 0 4 .2.7.6-.3.8-3.9.8h-3.7l-2.9 1.2a50.3 50.3 0 0 1-7.4 2.4c-.4 0-1.5.6-2 1.2-.3.3-.8 1.1-1 1.8-.5.9-.8 1.3-1.1 1.3-.3 0-.5-.1-.5-.3zM94 114.6c0-.8 0-1.4.2-1.4.3 0 .3 1.2 0 2.1-.2.6-.2.4-.2-.7zm81.9 1a11 11 0 0 1 2.2-3.4c.6 0 .5.8 0 1.5l-1.2 1.5c-.5.7-.8.8-1 .4zm9.3-.2c-.2-.2-.3-.5-.1-.7.1-.4.3-.5 1.4-.3 1 .1 1.4 0 1.8-.2.6-.5 1.6-.6 2.2-.2.5.3.1 1.2-.4 1-.2-.1-.5 0-.8.2-.4.4-3.4.6-4 .2zm9.8-.3c0-.2.1-.3.3-.3.1 0 .2.1.2.3 0 .1 0 .2-.2.2a.3.3 0 0 1-.3-.2zm-54.8-.3c0-.1.2-.3.5-.4.4-.1 2.6-.2 2.4 0-.2.2-2.9.6-2.9.4zm14.7 0c-1-.4-1.6-1-.8-1 .7 0 2.3.7 2.1 1 0 .2-.1.3-.2.2l-1-.3zm42.9-.3c-.7-1-.4-2.8.4-2.6.4.2.6 3.2.2 3.2l-.6-.6zm-37.5-1c0-.5-.8-2.8-1.5-4.3-.4-.7-.9-1-1.6-1.4-.6-.2-1-.5-1-.7.1-.1.4-.1.8 0 .4.2.7.2.8.1l-.5-2.1a8.9 8.9 0 0 1-.5-2.3c.3-.4.6.2 1.1 2 1 3.2.9 3 4 4 1.7.5 2.6 1 2.3 1.5-.1.2-.5 0-1.1-.3-1.2-.6-3.3-1.4-3.5-1.2l.7 2.3c1 2.4 1 3 .4 3-.2 0-.4-.3-.4-.6zM9 113.4c-.3-1 1.5-3.5 2.7-3.7.5-.1.8-.4 1-.7 0-.6.9-.8.9-.2 0 .5-1 1.8-1.4 1.8-.6 0-1.7 1.2-2.1 2.2-.4 1-.8 1.2-1 .6zm159.6-.6.9-3.7a100 100 0 0 0 1.3-5c2-5 2.3-6.8 1-9.6l-.8-1.8-.4.8-.3.8v-1.6c0-.9-.3-1.9-.5-2.2-.4-.9-.5-1.2 0-1 .4.1.4 0 .8-7 .2-2.3.3-2.6.7-2.6.2 0 .2.4.1 1.2-.1.8 0 1.3.2 1.6.2.3.2.4-.1.7-.4.3-.5 1-.6 3.9l-.2 3.6 1.2 2.4a13.4 13.4 0 0 1 1.5 3.6c.4.3 1-1.9 1.2-3.6.2-2 .3-2.4.7-2.2.2.2.2.8.1 2 0 1.7-1.3 5.2-3 8.6a49.4 49.4 0 0 0-2.6 9.7c-.2.3-.3 1-.3 1.4 0 .4-.2.7-.5.7-.2 0-.4-.3-.4-.7zm11.6.2c-.5-.4 0-.8 1.2-1 .8 0 2-.4 2.8-.6l1.4-.5.2.4c.2.5-.3.8-1.7 1-.6.1-1.4.3-1.7.6-.8.3-1.9.4-2.2.1zm-86-.4c-.2-.7-.2-2 0-2 .5 0 .5.3.4 1.4-.1.8-.2 1-.4.6zm1.4 0c-.2-.4 0-2.3.3-2.3.1 0 .2.5.2 1.2-.1 1.2-.3 1.7-.5 1.2zm11.4-.4c0-.2.2-.3.4-.3s.4.1.4.3l-.4.2-.4-.2zm63.4-.4c-.2-.5.3-.9.7-.5.3.3 0 .9-.3.9l-.4-.4zm-69.7-.1c0-.3 1.6-1 1.7-.7v.5c-.2.4-1.7.6-1.7.2zm7.9-1.6c0-.4 4.4-2.5 4.8-2.4.2.1-4.4 2.6-4.7 2.6l-.1-.2zm58.2-1 .4-3.4c.5-2.6.5-2.7 0-2.3-.3.3-.6 0-1.9-1.2-.8-1-1.8-1.8-2.3-2-1-.5-1.4-1-1.1-1.2.1-.2 2.2 1 3 1.8 1.8 1.6 2.5 2.1 2.6 2 .1-.1.2-3.2 0-5.8 0-1.3-.2-2.2-.4-2.4-.6-.5-3.2-1-5.8-1-1.3 0-2.2 0-2.2-.2s1-.3 2.4-.3h2.4l-.3-.5c-.6-1.1 0-1.1 1.1 0 .5.6 1.2 1 1.7 1.1l.7.2-.2-1.2c0-.7-.2-1.4-.3-1.5a13 13 0 0 0-5-2.2c-2.8-.6-2.9-.6-2.6-1l1.7.2a198 198 0 0 0 4.6 1.5c1.4.7 1.5.7 1.3-1l-.1-1.4L165 86c-.8-.8-1.8-2.4-2.5-3.8-.6-1.3-1.3-2.5-1.5-2.7-.3-.2-1.2-.5-2.1-.6-2-.4-3.4-1-4.1-2-.7-.8-.5-2.8.3-3h.4v1l-.2 1.2 1 .7c1.2.8 2.8 1.5 3 1.2.2 0 0-.3-.3-.5-.3-.3-.4-.5-.2-.7.2-.2.6 0 1.3.6 1.1 1 2 1.4 2.9 1.6.7 0 .5.6-.2.7h-.7l.4.8 1 2.2c.6 1.4 2.4 3.6 2.7 3.3.2-.2.2-2.8 0-3.5-.2-.6-.1-.7.2-.6.3.1.5 0 .6-.2.2-.4 1-.6 1-.2l-.5 1c-.2.6-.3 1.1-.2 1.4l.4 1.2c.2.6.1.7-.2.4-.3-.2-.4 0-.4 1.5a50 50 0 0 0 1.5 10.6c.5.5.5 4.9 0 4.9h-.4a134.5 134.5 0 0 1-.7 6.7c0 .8 0 1-.4 1.2-.4 0-.5-.2-.5-1.2zm5.9.9c0-.2.6-.6 1.2-1 1-.5 1.3-.6 1.7-.3.3.2.8.2 1.4.1.7-.1 1 0 1 .3.3.7-.2.9-2.3.7-1.3 0-2 0-2.1.2-.3.4-1 .4-1 0zm-120.7-.4c0-.3 0-.3.1-.1v.5l-.1-.4zm104.1-.5c-.8-.7-.9-1-.2-1 .6 0 1.5 1 1.2 1.4-.1.1-.5 0-1-.4zm23.7-.5c-2.8-.4-2.8-1 0-1 2.3 0 3.1.4 2.6 1l-.5.4-2.1-.4zm-72-1.4h.5c0 .1-.1.2-.4.2-.3 0-.4-.1-.2-.2zm67.5-.1c0-.4.5-1.4 2.5-4.3 1.1-1.7 1.4-2 2-2 .5 0 1.3-.1 1.8-.3 4-1 4.3-1.1 4.5-1.7.3-.8 1-1 1.2-.5.1.2 0 .5-.1.6-.2.2-.3.5-.2 1 .1.7-.4 1.4-1.2 1.4-.3 0-.5-.2-.5-.4l-.1-.4a80 80 0 0 0-6 4.9c-.3.4-1 .6-1 .2 0-.4 1.3-1.6 3.4-3.2 1-.8 1.8-1.5 1.7-1.6l-2.1.5-1.8.6-1 1.5c-1.3 2-1.4 2.3-1 2.9.2.4.2.6-.3.8-.7.4-1.8.4-1.8 0zm-66.2-.2 2.4-.4c2.4-.2 1.5.2-1 .5-1.1 0-1.6 0-1.4-.1zm45.5 0c-.2-.2-.3-.3-.2-.4.2-.3 1.3 0 1.3.4 0 .3-.6.3-1 0zm-36-1.1c.2-.2.6-.4 1.1-.5l2.7-.4c2.2-.5 2-.5 2 0 0 .4-1.4.8-4.1 1-1.4.2-1.7.2-1.6-.1zm-90.8-1c-.3-.3.4-.8 1-.8.8 0 4.1-1.5 5.8-2.7a38 38 0 0 0 9.2-8c.7-1 1.2-1.4 1.4-1.3.5.6-1.5 3-5.2 6.2-3 2.5-3 2.5-6.3 4.7-2.2 1.5-5.3 2.5-5.9 2zm81.1-.1c.1-.4 5.2-1.2 5.5-.9.2.3-.2.5-2 .7l-2.7.4c-.7.1-.9 0-.8-.2zm-70-.4c-.2-.3.7-1.2 2-1.8 2-1.2 4.5-3 5-3.9l.3-.6-.5.6c-1 1-.9.3 0-1.5l1.5-3.3c.7-1.7 1-2.2 1.2-2 .2.3-.9 3.6-1.5 4.7l-.6 1 .6-.5c.3-.3 1-1.3 1.4-2.2 1-2.2 1.7-1.9.7.3-1 2-3.2 4.7-5.4 6.7l-2.2 2c-.2.3-.6.4-1 .3-.3-.1-.6 0-.7.1-.2.3-.6.4-.8 0zm125.4 0c-.3-.3-.1-.6.4-.6.3 0 .5.2.5.4 0 .3-.6.5-.9.2zm30.3-1c0-.1.8-.6 1.7-1 1.1-.6 1.5-.7 1.8-.5.2.2-.2.5-1.5 1-2 1-2.1 1-2 .6zm-22 0c-.4-.7 1.5-3.7 3.8-6 .5-.4 1-1.2 1-1.7l.7-4c.5-2.9.7-6.7.6-9.3 0-.7-.4-.7-1.1-.1-.3.2-.6.3-.7.2l.6-.8.8-.6-.3-.9c-.2-.4-.3-1-.2-1 .3-.5.6-.3.8.4.2.8.8.8 1.7.1l.9-.5 1-.6c.3-.3.8-.5 1-.4.2 0-.6.7-1.8 1.4l-2.2 1.3.1 1 .2 2c0 .6.1 1.1.2 1.1s.8-.4 1.5-1c.7-.5 1.3-.8 1.4-.7.2.2 0 .4-2.1 2-1 .9-1.1 1-1.6 5.3a55 55 0 0 1-.6 3.8c-.3 1.2.4.7 2-1.3l2.2-2.8c1-1 1.3-2.4 1.6-6.9.2-2.2.6-3.7 1-3.7.2 0 .2.3.1.9-.2 1.2-.7 5.1-.7 6.3v.9l.5-.6c.8-.9 1.7-3.5 1.6-4.3v-1c.1-.4 1-.4 1.1 0 .1.7 0 2.5-.2 2.6-.3.2-1.5 2.6-1.3 2.8.2.2.9-.2 1.4-1 .5-1 1.5-2 1.8-2 .4 0 .1.5-.7 1.4l-.7 1c.1.1 1 0 1.8-.4l1.6-.6v-1.4c-.1-.7 0-1.5 0-1.6.2-.1 1.4-.2 2.6-.1.2 0 .3.2.3.4 0 .3-.2.4-.6.4-1 0-1.2 0-1.4 1.4l-.3 1.3.4-.2c1.2-.4 2.7-.7 3-.5.9.3.1 1.2-.9 1.2a15 15 0 0 0-4.8.6l-1.5.4c-.3 0-.7.3-1 .6-.5.4-.7.5-1 .3-.6-.6-1.1-.1-5.4 5-1.7 2.2-2 3.1-.9 2.2.6-.4 1-.5 1-.1 0 .1-.6.5-1.3.8-1.5.6-3.2 2-3.7 2.9l-1.2 1.6c-.4.5-1 1.3-1.2 1.8-.4.8-.7 1-1 .6zm-171.3-.6c-.3-.3-.1-.6.4-.6.3 0 .5.1.5.3-.2.4-.6.6-.9.3zm27.8 0c-.4-.4-.1-1 .4-1.2.4 0 .6-.2.6-.5s.1-.6.6-.8c1.1-.4 3.8-2.3 5.3-3.8 1.6-1.5 2-1.7 2-1a540.1 540.1 0 0 0-4.5 4.3l-1 .8 1.3-.7c.7-.4 1.3-.6 1.4-.5.3.2-1.9 2-3.4 2.9-1.3.7-2.3.9-2.7.5zm33.2-1.1a50.1 50.1 0 0 1 1.3-5.6c.3 0 .4 1.3 0 1.5a12 12 0 0 0-.7 3.5v.8c-.1.5-.6.3-.6-.2zm107.3 0s0-.5.3-.8l.3-.7v.9c0 .8-.3 1.1-.6.6zm-166-.8c.2-.2.6-.3 1-.3.5 0 .6 0 .3.3-.6.3-1.4.3-1.2 0zm-2.2-.5c0-.1.5-.3 1.2-.4l1.5-.3h.5c0 .2-.4.4-1 .5l-1.6.3c-.3.1-.6 0-.6-.1zm118-.8c0-.4 1-.8 3-1 2.6-.2 4.2-.8 3-1.2-.6-.3 1.3-.8 3.7-1a458.7 458.7 0 0 0 4.6-.4c0 .4-1.9 1-3.3 1s-3.2.6-4 1.5c-.5.4-1.2.6-3.2.8a51.9 51.9 0 0 0-3.8.3zm10.5 0c-1 0-2-.2-2.1-.3-.3-.3.5-.4 1.4-.3 1.3.1 5.4 0 6.2-.1 1.1-.2 1.3.2.3.6-.7.3-1.8.3-5.8.1zm61.4 0c-.1-.2 0-.4.4-.6a14 14 0 0 0 1.7-1.2c1.2-1 1.7-1.1 1.7-.5 0 .4-3 2.5-3.4 2.5-.2 0-.3 0-.4-.2zM5.7 99.2c0-.2.4-.3.7-.3a8 8 0 0 0 1.8-.5c.9-.3 1.3-.4 1.3-.2-.1.3-2.6 1.2-3.5 1.2-.3 0-.4 0-.3-.2zm-1.2-.3c0-.1.2-.2.5-.2h.6L5 99l-.5-.1zm153 0c-.2-.4.1-.6 1.8-1.2 2.3-.6 2.8-.4 1.2.6-1.3.9-2.6 1.1-3 .6zm-122-.2s.2-.3.6-.5l2.4-2c1.8-1.4 2.5-1.8 2.5-1.3 0 .4-4.8 4-5.2 4-.2 0-.3 0-.3-.2zM190 97.3c.1-.4 0-.8 0-.8-.1 0-.4-.5-.6-1.2-.2-.9-.2-1.2 0-1.5.2-.2.4-.2.6 0 .2.3.8 3.8.6 4.1-.3.5-.7.2-.6-.6zm-133-1a61 61 0 0 1 2.2-8.5c.5-1.3.9-1.1.5.2A322.9 322.9 0 0 0 57 98v-1.5zm101.9.2a7 7 0 0 1 2.5-.2c1.4 0 2.4 0 2.4.2s-1 .3-2.5.3c-1.7 0-2.5 0-2.4-.3zM3.6 96c0-.1.4-.3.7-.3H5l-.5-.1a2 2 0 0 1-.8-.4c-.3-.3 1.4-.7 2-.6l.5.2-.4.4c-.2.2-.3.6-.2.8 0 .2-.2.3-1 .3-.7 0-1-.1-1-.3zm13.8-1.2c-.6-3.1-.3-8 .5-8.8l.4-.4-.1 1.5-.2 1.6.4-.4.5-.4-.2 1.3-.2 3.8v2.5H18c-.3 0-.5-.2-.6-.7zm46.9-1.6.5-1.4a5 5 0 0 0 .6-1.4c0-.4.4-.9.6-.7.1 0 0 .6-.4 1.2-.3.5-.5 1.2-.5 1.4 0 .7-.3 1.3-.6 1.3 0 0-.2-.1-.2-.4zm67.7.1c0-.2.6-.5 1.3-.7l1.7-.5c.8-.2.5.5-.4.9-1.5.6-2.6.7-2.6.3zm-107.2-.6c-.3-.7-.2-3 0-4.2.3-.7.5-1 .9-1 .5 0 .7.7.3 1a7 7 0 0 0-.5 2.2c-.1 2.1-.4 2.8-.7 2zm41.4-1.8c0-.4.4-.8.6-.6.2.1-.1 1-.4 1l-.2-.4zm110-.6c-.2-.3.3-3.3.5-3.3.4 0 .5.7.3 1.8-.2 1.2-.6 1.9-.9 1.5zM20.5 87.6c0-1 .2-1.7.4-2 .7-.9.9-.1.6 1.8-.3 2.3-1 2.4-1 .2zm46.1 1.3c-.4-.1-.4-.8.1-1.7l.4-1A110.7 110.7 0 0 1 73 74.5c0-.4 3-4.1 3.4-4.1.5 0 .5 0-.6 1.2l-1.6 2-1 1.2v.4c0 .3-.9 2.4-1.6 3.6-.7 1.1-3 6.5-3.6 8.2-.6 2-.7 2.1-1.3 2zm149.4 0c-.1 0 .2-.8.7-1.5 1.2-1.6 1.6-2.8 1.4-4v-1.1l.8-.2c.4-.1.6 0 .7.4a6 6 0 0 1-1.1 3.8c-.4.3-.9 1-1.2 1.6-.6 1-1 1.5-1.3 1zm-47.2-.4c-.4-.4-.7-1.7-.5-1.7.2 0 1 1.8.9 2-.1 0-.3 0-.4-.3zm-6.3-1c-.6-.2-1.3-.4-1.7-.3-.6.2-.7-.2-.2-.7.8-.7 3.7.6 3.2 1.3 0 .2-.2.3-.2.3l-1.1-.6zM1 87.3c0-.2.4-.3 1-.3.5 0 .8.1.7.3-.1.1-.5.3-1 .3-.4 0-.7-.2-.7-.3zM171.8 86c.9-1.5 1.2-1.8 1.2-1v.4l.6-.4c.2-.3.6-.5.8-.4.4.1-2.4 2.8-3 2.8-.4 0-.3-.2.4-1.4zm-170.6.4c-.2-.4 0-.8.6-.8l3-.6 2.6-.6c.3.3-.5.7-2.2 1l-2.9.9c-.6.2-1 .2-1.1 0zM60 86c0-.3 0-.6.2-.6s.3.2.3.4-.1.5-.3.6c-.1 0-.2-.1-.2-.4zm145.2-2.4c-.3-.2-.5-.6-.5-1 0-.3-.1-.8-.3-1.1-.4-.7-.1-1 .6-.6l1.3.4c.9 0 1 1 .2 1-.9 0-1.2.5-.7.9.9.6.3 1-.6.4zM86.7 81.9l.2-3.8c.1-3.2.4-4 .8-2.4.4 1.7-.3 6.8-1 6.8-.1 0-.2-.2 0-.6zm121.5 0 .6-.2c.8 0 1.9-.7 1.7-1-.1-.2-.3-.2-.6 0-.4.4-.5 0 0-.8.3-.7 1-.7 1.2 0 0 .2.4.6.7.8l.5.5h-.6c-.3 0-1 .2-1.3.5-.7.6-2.2.8-2.2.3zM3.3 81.5c-.1-.1 0-.4.1-.6.3-.2.4-.2.6.1.2.4.1.8-.3.8l-.4-.3zm216.2 0c-.3-1.3-.5-2.5-.2-2.7.3-.2.7 1.9.5 2.7v.5zm-11.2-.6c0-.2-.3-.4-.5-.4-.5 0-.7-.7-.4-1.6.2-.6.2-.8-.4-1.3-.6-.6-.8-1.3-.3-1.3.4 0 1.5 1.4 1.5 1.9 0 .2.2.5.3.5.2 0 .4-1.1.3-2.2 0-1 .2-1 1-.3 1 .9 1 1.4.2 1.4h-.7v1.1l-.1 1.8c0 .7-.6 1-.9.4zm-130.8-.1c0-.6 1.3-3.6 1.6-3.7.4-.1.2 1.2-.4 1.8-.2.2-.3.6-.2.7.2.4-.4 1.4-.7 1.4-.2 0-.3 0-.3-.2zm86.8-2.5c-1-2.2-1.2-2.8-.8-2.8.2 0 .3.1.3.3l.9 2.2c1.1 2.2 1.2 2.5 1 2.5-.2 0-.8-1-1.4-2.2zM3.8 79.5c.1-.3 2-.6 2-.2 0 .1-.3.3-.8.4-1.2.2-1.3.2-1.2-.2zm164.2 0c0-.2.6-.5 1.3-.7.8-.1 1.4-.4 1.5-.5 0-.2-.3-.8-.8-1.5-1-1.2-1.2-2-.7-2 .2 0 .8.7 1.4 1.5l1.1 1.5.6-.7 1.5-2c.5-.7 1.1-1.4 1.4-1.5.3 0 1.7-.7 3.2-1.4 1.7-.9 2.7-1.2 2.8-1 .2.1 0 .3-.4.5l-1.7.9c-.5.3-1.6.8-2.4 1-1 .4-1.5.7-2 1.6-.7.8-.7 1-.5 1.2.3 0 0 .2-.4.5-2 .8-.3 1.2 2.7.6 1-.3 1.6-.3 1.8 0 .4.3-.3.4-3 .6l-2.8.4a27.2 27.2 0 0 1-4.6 1zm21.4-.6c-.4-.4-.1-.6 1.7-1.3l2.7-1c.9-.5 1-.4.8.3 0 .3-.8.7-2.2 1.2a56 56 0 0 0-3 .8zM5 78l1-.2c.5 0 .9 0 .9.2s-.4.3-1 .3c-.4 0-.9-.1-.9-.3zm32.1-.7c-.3-.1-.5-1.4-.2-1.4l.7.3c.5.4 2 0 3.8-.8.6-.3 1.1-.4 1.3-.3.2.2-3.4 2-4.5 2.3h-1zm124.6-.2c0-.2.1-.4.4-.4.2 0 .4.2.4.4s-.2.4-.4.4a.4.4 0 0 1-.4-.4zm3.8-1.4.2-2v-1.4l-.2-1.3h-1.7c-1.3.1-1.6 0-1.3-.1.2-.2.7-.3 1-.3.5 0 .9-.2 1.1-.6l.4-.6.7.4c.5.3 1.1.2 3.8-.2 2.9-.5 3.6-.6 3.2-.1-.2.1-1 .3-4.6.8l-1.8.4v1.1c.1.8.4 1.2.8 1.3.6.3.7 1 0 1-.6.1-1 .7-1 1.7 0 .4-.1 1-.3 1.3l-.4.5zm23.7 1.6c0-.3.5-.5 2.8-1.5.8-.4 1.4-.8 1.2-.9-.4-.1-4.2.7-5 1-.8.5-1.3.2-.8-.3.3-.2 1.2-.5 2.2-.6l2.1-.4c.2-.2 1-.3 1.6-.3.7 0 1.6-.2 2-.4 1-.5 1.5-.3 1 .3-.4.5-6 3.3-6.7 3.3l-.4-.2zm-36.7-.6c0-.1 0-.3.2-.3l.2.3v.3l-.4-.3zm14.2 0c0-.5.7-.8 1.8-.8.6 0 .8.4.4.6l-1.2.3c-.8.2-1 .1-1-.2zm8.7-.5c.6-.4 4.5-.7 4.5-.3 0 .1-.4.3-1 .3l-2.4.1h-1zm41.8-.2c0-.2.2-.4.4-.4s.4.2.4.4c0 .3-.2.4-.4.4a.4.4 0 0 1-.4-.4zM79 75.8c-.2-.3-.2-.4.1-.7.4-.3.5-.3.8.1.6.9-.3 1.4-1 .6zm73.6.2v-.5c0-.5 1-.5 1.5 0 .2.3.1.4-.5.5h-1zM8.2 75.6c0-.1.2-.2.5-.2l.6.2c0 .2-.3.3-.6.3s-.5-.1-.5-.3zm77.4 0c-.2-.3.5-3.6.9-4 .4-.4.4.5 0 2.5-.4 1.6-.6 2-.9 1.6zm121.5 0c-.6-.5-.6-.7.4-1.2l1-.5-1-1.4c-.7-.8-1.1-1.4-1-1.5.2-.3 1.2.5 1.8 1.4.7 1.1 1 1 .5-.4-.2-.6-.3-1.3-.2-1.5l.2-.5.8.8.8.8-.3 1a7 7 0 0 1-1.3 2l-.8 1.1c0 .3-.4.2-.9-.2zm-47-1c0-1 0-1 .5-1l1-.3c.4-.2.7-.2.9-.1.3.1-1.8 2.4-2.2 2.4-.1 0-.2-.4-.2-1zm-80.2-.2c-.2-.6.5-1.9 1.4-2.8.6-.6.8-.7.9-.3.2.5-.6 1.7-1.3 1.9-.3 0-.5.4-.5.9 0 .8-.4 1-.5.3zm90.4-.6c-.3-.3-.4-.7-.3-1l.1-.4.6.5c.3.2.5.6.5.8 0 .6-.4.6-1 .1zm2.7-.1c0-.8.3-.9.8-.4s.4 1-.2 1c-.4 0-.6-.2-.6-.6zm-130.7-.3c0-.2.3-.5.7-.5l1.3-.3 1 .1c.4.3-.4.7-1.9 1-.9.1-1 0-1-.3zm-2-1.3c-.3-.3-.6-.6-.6-.8 0-.5.6-.5 1-.2 0 .2.6.4 1.2.5.5.1 1 .3 1 .5.1.4-2 .4-2.6 0zm19-1.2c0-.2.2-.3.4-.3s.4.1.4.3l-.4.2c-.2 0-.4 0-.4-.2zm23.5-.5.4-.6c.5-.3.5-.2.3.4-.2.4-.7.6-.7.2zm99.9-2a9.9 9.9 0 0 0 2.1-2.3l-1-.2c-.6 0-1-.2-1-.3 0-.2.6-.3 1.4-.3h1.4l.9-1a9 9 0 0 0 1.4-2 5 5 0 0 1 .9-1.5l1-1.3c.2-.5 1-1.6 1.7-2.4.8-.8 1.4-1.6 1.4-1.7 0-.2.6-.8 1.2-1.4a54.2 54.2 0 0 0 6-5.6c.7 0-.1 1.1-2.2 3.3-5.9 5.9-8.5 9-8.8 10.1-.5 1.7-7.2 8.8-8.4 8.8-.2 0 .7-1 2-2.1zm-174.8 1-.5-.7c.3-.3 2.1.5 2.1.9s-1 .3-1.6-.3zm50-.6c0-.2.2-.3.4-.3.3 0 .4-.2.3-.4-.1-.2.3-.5 1.3-.8l1.6-.7c.3-.3.7-.3.7 0 0 .2-.6.5-1.3.8-1 .5-1.1.7-.8.8l.4.3-.4.3c-.6.3-2.1.3-2.1 0zm150-.3-.4-1.4c-.1-1 0-1.2.3-1.2.6 0 1 .9 1 1.9-.2.8-.6 1.2-1 .7zM.7 68.3c-.4-.4.3-.6 1.7-.6.8 0 1.9 0 2.4-.2l.8-.1-.1-1.4-.2-1.3.4.5c.2.3.4.9.3 1.4 0 .5.1 1 .4 1.1.2.1.3.3.2.4-.2.1-5.8.3-6 .2zm123.8 0c-.4-.2-.2-.3.7-.2l1.5.2c.2.3-1.6.2-2.2 0zm4.9 0c-.3-.2 2.6-.9 3.6-.8h.5l-.5.2c-.6.4-3.2.8-3.6.5zM128 68h.5l-.3.1c-.3 0-.4 0-.2-.1zM8 67.8c-.3-.3-.2-1.7 0-1.7.4 0 .9 1.3.7 1.6-.2.3-.5.3-.7.1zm71.2 0c0-.2.1-.4.3-.4.2 0 .2.2.1.3 0 .2-.2.3-.3.3v-.3zm-69-1.2c-.2-.7-.6-1.2-1-1.2-.8-.2-1-.6-.5-.7L10 64c.6-.3.8-.3 1-.1.3.2.2.4-.2.7l-.5.4.9.7.8.9-.6.6-.6.4zm124 .6c0-.2.2-.3.4-.2l1.1-.1a75 75 0 0 1 16.8-1.6c0 .2-.5.3-1.4.3l-2.3.1a405.7 405.7 0 0 1-10.8 1.2c-1.9.5-4.1.6-3.9.3zm14.1 0c.1-.3.6-.4 1.9-.3 1.2 0 1.5 0 1.3-.2-.4-.3-.3-.3.1-.3s.6.1.6.3c0 .4 4.8 0 9-.6 1.6-.2 3-.3 3.2-.2.6.3-.2.5-3.3.8l-3.3.3a74.1 74.1 0 0 1-9.5.1zm57.1-1 .4-.6c.4-.3.4-.2.4.4 0 .4-.1.6-.4.6-.2 0-.4-.1-.4-.3zm-147-.3c0-.2.2-.3.6-.3.3 0 .6.1.6.3l-.6.2c-.4 0-.7-.1-.7-.2zm108.7-.3c.2-.6 1.4-.8 5.7-1 2.8 0 3.9 0 4.2.2.5.4 4 0 5.6-.8.7-.3 1.7-.6 2.2-.6.5 0 1-.2 1.3-.3h.5c.3.3-.8 1-1.3.8a7 7 0 0 0-2.3.5c-1 .4-2 .7-2.4.7-.4 0-1.2.1-1.8.4-.9.3-1.3.3-2 0a38 38 0 0 0-8.5.3c-1 .1-1.3 0-1.2-.2zM.3 65.3c0-.1.2-.2.5-.2s.5 0 .5.2-.2.3-.5.3-.5-.1-.5-.3zm153.2 0c0-.3.3-.5.7-.3.2 0 .3.2.2.4-.2.3-1 .3-1 0zm-86.8-.5c0-.3 1-1 1.4-1 .7 0 .5.4-.3.9-1 .4-1.1.5-1.1.1zm40.2-.6c.1-.4.4-.6 1.2-.8.6-.1 1.2-.4 1.4-.7a2 2 0 0 1 1.2-.6c1-.2 1.1-.4 1.3-1.2.2-.8.7-1.1 2-1.1h.7l-.8.7-.7.6h.7c1.3-.1 1.4 0 .5.5-.6.3-1.3.5-2 .5-1 0-1.8.4-1.6 1 0 .2-.2.4-.8.5-.4.1-1.2.4-1.6.7-1.1.7-1.6.6-1.5 0zm49.6-.2c-.2-.3 0-.4 3.1-1.4l4.7-1.7c1.8-.8 2.6-1 2-.4-.4.4-4.1 2-4.6 2s-4 1.2-4.4 1.5c-.3.3-.6.3-.8 0zm19.8 0 1.2-.4c.6 0 1.2-.3 1.2-.4l1-.5a24 24 0 0 0 6.7-3c2.3-1.3 2.5-1.4 2.5-1 0 .6-4.4 3-7.1 3.9-1.7.5-2.3.9-1.3.9h.6l-.5.2c-.9.4-4.5.6-4.3.3zm-111.2-.2c0-.3.6-.6 1.1-.6.2 0 .1.2-.2.4-.5.5-.9.5-.9.2zM.5 63.3c-.4-.5.1-1.1.9-1.1.5 0 .6.3.2 1-.3.6-.6.7-1 .1zm7 .1c0-.1.2-.3.6-.4.6-.3 1.4-.2 1.4.2 0 .3-1.8.5-2 .2zm5.5-.9c-.5-.3-1.1-.6-1.4-.6l-.6-.2c0-.2.8-.3 1.9-.3 1.7 0 2 0 1.5.4l-.7.4c-.1 0-.2 0 0 .2 0 .2.3.3.6.3s.5.1.5.2c0 .5-1 .3-1.8-.4zm143.8 0c-.1-.2 0-.4.3-.5.3 0 1.4-.6 2.6-1.1 1.2-.5 2.3-.9 2.5-.8.4.1-1 1-3 1.7l-1.8.7h-.6zm-91.6-.9a3 3 0 0 1 1-.4l.9-.2-.4.4c-.2.3-.7.5-1 .5-.5 0-.6-.1-.5-.3zm6.1-.2V61c.4-.2 2 .1 2 .4 0 .3-1.8.3-2 0zM3 61c-.6-.5-.6-.7 0-.7.5 0 1.2.6.9.9-.2.2-.4.2-1-.2zm113-.2.6-.2c.5 0 .5 0 .2.2-.5.4-.8.4-.8 0zM5.7 59.6c0-.4.3-.9.4-1 .3-.3 2.5.5 2.6 1 0 .5-.8.6-1.6.1-.4-.2-.6-.2-.8.2-.4.7-.8.5-.6-.3zm161.8.3c.3-.3.6-.4.8-.3.4.3-.1.7-.8.7-.3 0-.3 0 0-.4zM72 59.8c0-.2.2-.3.5-.3s.5.1.5.3c0 .1-.2.2-.5.2s-.5 0-.5-.2zm91.1 0c-.1-.3 1.4-1.4 2-1.4.6 0 .2.6-.8 1.1-.6.3-1 .4-1.2.3zm-47-.6c1.1-.5 1.8-.6 2-.2.2.2-1.5.8-2.5.7h-.6l1-.5zm-101 .1c-.3 0-.5-.2-.5-.3 0-.4 1.7-.4 2 0 .1.2-.6.4-1.4.3zm104.1-.2c-.1-.4 0-.5 1.5-1 1.3-.2 2.1-.8 1-.7l-.5-.1c0-.4.9-.6 2.2-.7 1.4 0 5.5-1 6-1.5.2-.3.1-.4-.7-.4-1.6 0-1-.2 2-.6 3.5-.5 4.8-.9 6.5-1.6l1.3-.6H136c0-.3 1.8-.9 2.4-.9.6 0 6.2-1.8 6.5-2.1.1-.1 0-.2-.5-.2-1.6 0-.3-.5 2-.8 2-.3 2.7-.5 3.2-1 .3-.3 1.3-.7 2.5-1 1.1-.2 2.4-.7 3-1l.9-.5h-.7l-1.8.4-1.3.4v-.4c0-.2.2-.4.5-.4l2-.4 1.6-.3c.2.1.4 0 .4-.2.1-.2.4-.4.7-.4.6 0 2-.8 4.8-2.6 2-1.3 3.2-1.7 3.2-1.1 0 .3-1.6 1.4-3.2 2.2l-1.6 1a6 6 0 0 1-2.7 1.3c-.4 0-.7.2-1 .7-.1.3-.4.6-.7.6-.4 0-4 1.8-4.6 2.3-.2.2-1.8.8-3.4 1.4a59.4 59.4 0 0 0-7.3 2.8l-2.5.9L134 54a89.5 89.5 0 0 1-12.5 4.5c0 .2-.4.5-.9.6-1 .4-1.2.4-1.4 0zm-107 0c0-.2.2-.5.5-.8 1-.9.7-1.2-.7-.8-1.5.5-1.7.5-1.7.2 0-.2.2-.3.4-.3a5 5 0 0 0 1.5-.5c2-1 2.8-.4 1.4 1.2-.3.4-.6.8-.6 1l-.4.1c-.2 0-.4 0-.4-.2zm-3.3-.5c-.5-.4-.6-1-.1-1s1.3.6 1.3 1c0 .5-.5.5-1.2 0zm157-.1c0-.2.3-.5.7-.8.9-.6 6.9-3.5 7.2-3.5.7 0 .1.6-1.2 1.2l-2.1 1.3c-.4.4-1 .7-1.3.7-.4 0-1.1.3-1.7.6-1.1.7-1.6.9-1.6.5zM15.4 58c0-.3 1.5-1 2-1 .6 0 .4.4-.5.8-1 .3-1.5.4-1.5.2zm56.3 0A20 20 0 0 1 75 55c.4.5-2 3.3-3 3.3h-.3zm2.4-.1c0-.4.8-1 1-.8.2.2-.3 1-.6 1L74 58zM3.4 57l1.4-.3c.8 0 2 0 2.5-.2 1-.2 2 0 1.5.3s-5.4.5-5.4.2zm184.2-.9c0-.4 2.4-1.5 2.7-1.3.4.2 0 .7-1.3 1.2-1.4.6-1.4.6-1.4.1zm-74.4-.2a145.3 145.3 0 0 0 5.3-.4c1.7 0 2.7 0 2.8.2a37.9 37.9 0 0 1-8.1.2zm-41-.4c-.3-.3.5-1 .8-.8 0 .1 0 .4-.3.6-.2.3-.5.3-.6.2zm51.1-.3c0-.2 1.3-.5 2.8-.6 1.5 0 1.5.1 0 .5-1.9.4-2.8.4-2.8.1zm-111-.8c.7-.7 2.4-1.3 2.8-1 .2 0-.2.3-1 .6l-1.8.7-.5.3zM57 55l.5-1c.6-1 .8-4.5.2-5.4-1-1.7-2.6-5-2.5-5 .3-.3.7 0 1.1 1 .2.5.8 1.4 1.3 2 .6.8 1 1.8 1 2.5.4 2.2-.5 6-1.3 6l-.3-.1zm118.4-1.2c.1-.2-.2-.3-.6-.2-1 0-1-.4 0-.7.6-.1.9-.1 1 .1.2.3.5.2 1.3-.4l1.4-.7a4 4 0 0 0 1.2-.4c1.5-.7 2.4-1 2.4-.5 0 .2-.1.4-.3.4l-1.1.4c-2.2 1.2-5.6 2.4-5.3 2zM.5 53.2c-.4-.3.3-.6 2.8-1.3.9-.2 2-.5 2.3-.7l2.2-1a95 95 0 0 0 2.1-.6l.6-.2-.4.4c-.4.5-.2.6 1.4.2a707.6 707.6 0 0 1 6.6-1.5c.2 0 .4 0 .4.2 0 .3-.7.5-2.2.9a262.6 262.6 0 0 0-6.3 1.2c-.5 0-1 0-1.1.2a26.4 26.4 0 0 1-8.4 2.2zm200.1-2.4c0-.3.4-.4 1.3-.5 1.4-.1 2 .3 1 .7-.5.2-1.1.3-1.6.3-.6 0-.8-.1-.7-.5zM.8 50.5c0-.1.2-.3.4-.3l.4.1-.4.3-.4-.1zm126.5-.7c0-.3 1.5-1.2 1.7-1 .3.4.1.6-.7.9-1 .3-1 .3-1 0zM3.4 49.3c.4-.4.2-7.9-.2-9-.4-1-.2-1.5.2-.7.4.7.8.5.8-.4 0-.3.2-.6.3-.6.2 0 .3 1.7.3 4.6 0 5.3 0 5.4 1.7 4.3.5-.4 1-.7 1.2-.7.1 0 1.2-.5 2.3-1.2 2.2-1.2 3.6-2.7 3.4-3.4-.1-.2.2-1 .7-1.8l.8-1.3v-2c0-2.1-.3-3.1-1.2-3.7-.2-.2-.4-.5-.3-.6.2-.3-.4-2.4-.8-2.9-.6-.6-1.5 1.8-1.8 4.9-.3 3.4-.6 4.8-1.1 5.4l-.5.4.2-.7.3-2.5c0-1 .2-2 .4-2.4l.3-2.5.1-2.1.7-.6.7-1c0-.2.2-.8.5-1.3s.6-1.6.8-2.4c.5-2.2 1.1-3.7 1.6-3.7.2 0 .6-.4.9-.8l.4-.8-.9-.6c-1-.5-1.7-1.6-1.7-2.4 0-.5.7-2 1-2l.7 1.2a9 9 0 0 0 1.1 2c.4.4.6.9.6 1 0 .2.4.5 1 .7l1 .3.5 1.2.4 1.3h-.5c-.3 0-.5-.3-.6-.8-.2-1-.6-1.2-1.7-1.5-1-.2-1.1.2 0 1.1 1 .9 1 1 0 1.5l-.6.3.7 1 .5 1c-.2.4-1.2.3-2-.2l-.8-.4-.2.3c-.4.6-.4.8.1.8.3 0 .4.3.3 1 0 .9-.1 1-.8 1.1-1 .1-1.4.7-1 1.5.5.9 1 .7 1.1-.3.2-1 .6-.4.5.8 0 .7 0 1.1.5 1.6.8.8.6 1.2-.2.7-1-.5-1-.1 0 .8.7.9 3.1 2.4 3.7 2.4.2 0 .3-.7.3-1.5 0-1.3-.2-1.6-.8-2.4-.8-1-1.4-2.6-1.3-3.6 0-.6.6-.7.7-.2.2 1.6.4 2.3.7 2.8l.4.5.4-.5.4-.6v.9c0 .6.2 1 .9 1.5.8.6 1.1 1.1 2 4l.5 1.4c0 .2 0 .3-.3.3-.4 0-.7-.6-1.4-3-.5-1.8-.8-2.3-1.4-2.3-.3 0-.4.4-.3 2 .1 1.8.2 2.1.8 2.6.5.4.5.5.2.7l-.5.3c-.2 0-.2.2.1 2.2.2.8.3 1 .8 1 .7 0 1-.5 1-1.6 0-1 .4-.4.5.8l.1.9h1.2c1.2.1 2-.3 1.4-.6-.2-.2-.3-.8-.2-2l.1-3.2c0-2.8.6-1.3.6 1.8v3l.4-3c.2-1.6.4-5 .4-7.6 0-2.8 0-4.7.2-4.7.3 0 .4.6.4 3l-.3 7-.2 5.9c.4.3 1-1 1-2.2 0-.8 0-3.1.3-5.2l.2-8c0-4.3 0-5.5.4-5.5a88 88 0 0 1 0 12.4 27 27 0 0 0 .2 8.4l1.3.2 1 .2.1-.8a9 9 0 0 0 .3-1.5c0-2.3.1-2.5.4-2.4l.2 1.1c0 .8 0 1 .3.7.2-.2.4-1.8.5-4.4.3-4.6.2-4.1.5-4.1.2 0 .3.2.3.5s.2.6.4.7c.3.1.4.9.4 4.4 0 2.3-.1 4.2-.2 4.2-.4 0-.6-1.7-.4-2.5 0-.4 0-.9-.2-1.2-.2-.3-.2 0-.3 1.5 0 3-.2 3.6-1.2 3.4-.4-.1-.6 0-.6.1 0 .3-1.5 1.8-1.9 1.8l-.6-.6c-.5-.8-1.4-.9-2.5-.3-.4.2-1.6.4-3 .4l-4 .1c-1.3.1-2 0-2-.2-.2-.2-.4-.2-.5.1-.6.8-.6 0 0-1l.5-1.2-.3-1a5 5 0 0 1-.3-1.6c0-.6 0-.7-.6-.7-.5 0-.7.1-.8.9v2c.1 1 0 1.3-.4 1.9l-.5 1c0 .6.8 1.1 1.2.8l-.1.2c-.3.4-.3.5 0 .8.5.5-.2 1-.7.6-.6-.5-2.1-.2-3.9.8a260.1 260.1 0 0 1-6 3.3c-1.1.7-2.2.8-1.7.2zm16-7.5c.2-.2.2-1.3 0-2.6 0-1.8-.2-2.3-.8-3l-.9-.8c-.4 0-.3 2.1.2 3 .3.5.3.9 0 1.5-.2.7-.1.9.2 1.2l.4.7c0 .3.8.3 1 0zm-4.8-.6.1-.5-.4.5-.2.6.5-.6zm2-6h-.5c-.2.1-.1.2.2.2.2 0 .4 0 .3-.1zM34 32.9c0-.9-.1-1.1-.3-.8a4 4 0 0 0-.2 1.6c0 .8 0 1 .2.8.2-.2.3-1 .3-1.6zm-18.3-9.4c0-.4-.5-1-1-1-.3 0-.6 1-.4 1.4.2.3 1.4 0 1.4-.4zm-5.3 25.8c-.3-.6-.3-.6 2.1-1a118 118 0 0 0 9.7-2l2.4-.4c2.2-.4 3-.4 3 0 0 .3-.5.5-1.8.6-2.6.2-4.9.6-7.8 1.3l-4 .9c-.7 0-1.7.3-2.2.6-1 .6-1 .6-1.4 0zm16.4 0c0-.5.5-1.2 1.9-3 .7-1 1.3-2 1.3-2.3 0-.3.4-.7.9-1l1.5-1.2c.6-.7 1.3-1 1.3-.5 0 .1-.4.6-.9 1L31.5 44c-.2.4-.5.8-.8 1-.3 0-1 .7-1.5 1.5-1.4 1.9-2.5 3.1-2.5 2.8zm153.5 0c.2-.4 1.7-1 3.2-1.2.7 0 1 0 .9.1-.1.2-.4.3-.6.3-.3 0-.6 0-.7.2-.3.2-2.3.9-2.7.9v-.3zM.2 49c-.1-.2 0-.8.2-1.3.4-.7.4-1 .2-1.7-.3-.8 0-1.3.4-.7.2.2.4.8.5 1.3l.3 1-.7.8c-.5.5-.8.7-1 .6zM160 49c-.2-.4.3-.8 1.2-1 .7-.2 1.2.2.8.7-.4.3-1.8.6-2 .3zm40.7-1c-.1-.2 0-.6.1-1 .2-.3.3-.9.2-1.4-.1-.6 0-1 .2-1.1a51.3 51.3 0 0 0 6-14.5c.6-1.4.5-1.8-.2-1-.3.5-.7.6-1 .5l-.4-.1.7-2c.8-2.7 1.7-4.7 2.6-5.5.8-.7.9-.3 0 .7a13 13 0 0 0-1 1.6c-.6 1-1.4 4-1.1 4.3l1.3-1c.6-.8 1.2-1.3 1.4-1.3.5 0 .4.6-.1 1-.5.5-2 3.4-2 4l.3.7c.3.4.2.7-.5 1.7-.8 1-.8 1.3-.6 1.8.5.9.2 1.7-.7 2.2-.5.3-1 1-1.4 1.7-.8 2-.7 2 1.1.8 1-.7 1.8-1.2 2-1.2.3 0-2 2-2.3 2-.2 0-.2.3-.2.5 0 .6 1 .5 1.3-.1.2-.5 1.2-1 4.1-2.3.7-.3 1.2-.7 1.3-1 .2-.5 2.5-1.7 4-2 .7 0 .9 0 .9.3 0 .5-.8 1-2.6 1.8-.8.3-1.7.6-1.9.8l-3.3 1.7c-3.5 1.7-3.9 2-3.7 2.7.2.6-1.3 1.6-1.6 1.1-.2-.3.3-1 .8-1 .2 0 .4-.2.4-.3 0-.2 0-.2-.2-.2l-1.2.5c-.8.4-1 .6-1 1.6l-.4 1.7c-.1.5 0 .6.4.5.3-.1.5 0 .5.1 0 .2 0 .3-.2.3l-1.3.5c-.5.3-.6.3-.7 0zm-67.9-.1c0-.2 1.4-.8 2-.8.4 0 .1.4-.5.7-.8.4-1.5.4-1.5 0zm-17.4-.3c-.2-.1-.3-.3-.2-.4.2-.3 1.3.1 1 .4-.1.3-.3.3-.8 0zm67.7-.3c0-.3.7-.6 1-.4.3.2.3.3 0 .5-.5.3-1 .3-1 0zm-172.5 0 1.6-1c.9-.4 1.6-.7 1.6-.5l-.6.5a80.5 80.5 0 0 0-2.6 1zm154.4-.4v-.5c.3-.3 2.1-1.1 3.2-1.3l1.4-.3.7-.2-.4.4c-.2.3-1 .6-1.6.9l-2 .7c-.9.5-1.1.6-1.3.3zm-40.5-.3.1-.5c.4-.2.7.1.4.5-.2.2-.4.2-.5 0zm12.7 0c0-.2.4-.6 1.2-1 1-.5 1.3-.6 1.3-.3s-.5.7-1 1c-1.2.6-1.3.6-1.5.3zm-15-.3 1-.9c1.4-.8 1.4-.8 1.4-.5 0 .3-1.8 1.6-2.2 1.6 0 0-.2 0-.2-.2zm81.1 0c-.6-.3-.6-.3 1.3-.4.8 0 2.2-.3 3-.6 1.5-.4 3-.5 3.2-.2.4.3-.6.7-3 1-3.1.5-3.7.5-4.5.2zm-74.5-.7c-.6-.3-1-.5-1-.7 0-.4 1.8-.2 2.2.3.9 1 .4 1-1.2.4zm82.6 0c0-.2.2-.4.6-.4.4 0 .5 0 .2.4-.2.2-.4.4-.6.4l-.2-.4zM8.7 45.3c0-.2 1-1.1 1.6-1.5.7-.4.2.3-.6 1-.5.4-1 .6-1 .5zm12.2 0c0-.4.8-.7 2-1 .8-.2.9.2.2.6-.8.4-2.2.6-2.2.3zm93.7 0c-.5-.2-.6-.3-.4-.4.4-.3 1.7 0 1.7.3s-.4.3-1.3 0zm69.6-.2c.1-.3 1.8-.7 2-.5.3.2-.1.4-1.1.6-.7.2-1 .1-.9 0zm-61.8-.7.4-.2c.2 0 .2 0 .1.2 0 .2-.3.3-.4.3-.2 0-.2-.1-.1-.3zm20.2-.3.5-.9c.3-.2.6-.7.6-1.1 0-.4.3-.7.5-.7.6 0 .6 1 0 2-.7 1-1.6 1.3-1.6.7zM169 44c0-.3.5-.6 1-.8.5-.1 1-.3 1.2-.5.5-.2.7 0 .5.4-.1.2-2.4 1.3-2.7 1.3V44zm-110-.2c-.2-.4 1-3.4 1.4-3.5.4-.2.6.9.3 1.5-.4.7-.3 1 .1 1 .3 0 .4.2.4.6 0 .5-.3.6-1.1.7-.6 0-1 0-1.1-.3zm-26.6-.1c0-.3 2.1-2.2 2.4-2.2.4 0 .2.7-.4 1-1.4 1-2 1.4-2 1.2zm101.2-.3c-.1-.2.3-.3.9-.3.6 0 1 .1 1 .3 0 .1-.3.2-.8.2s-1 0-1.1-.2zM9.8 42.9l.6-1.8c.6-1.3.7-1.4.7-.8 0 .8-.6 2.4-1 2.7l-.3-.1zm177 0c-.6 0-1-.2-1-.3.3-.4 2.3-.4 2.3 0 0 .3-.3.4-1.4.3zm-75.5-.8-.8-.4.6-.1c.6-.1 1.6.3 1.6.7 0 .4-.5.3-1.4-.2zm60.4 0c0-.4.6-.8 1.5-1l.8-.2-.7.7c-.6.7-1.6 1-1.6.5zm-21.5-.3c-.2-.2.8-.8 1.4-.8l1.4-1.1a6 6 0 0 0 2.1-4.7c0-1.2.4-1.4 1-.7.3.4.3.7-.2 2.2a8 8 0 0 1-4 4.6l-1.4.7s-.2 0-.3-.2zm-98.4-.2s0-.5.3-1c.7-1 1-3.2.6-3.7a6.5 6.5 0 0 1-1.4-3.4c0-1 .5-1.6.7-.9l.2.5.3-.5c.5-.7.8-.3.9 1.2 0 .7 0 2 .2 3 .1 1.4 0 2-.4 3.2-.5 1.3-1 2-1.4 1.6zm65.7-.6c-.6-.2-.5-.2.5-.2.7 0 1.8 0 2.5.2l1.3.2H120l-2.5-.2zm12.4 0c-.5 0-.8-.2-.6-.3.4-.3 2-.1 2 .2 0 .3-.3.3-1.4.1zM7.2 40.6l.4-1.2c.4-1.4.5-6.8.1-7.6-.3-.7-.4-2.5 0-2.5.3 0 1 3.5 1 5.5 0 2.7-.7 6-1.3 6l-.2-.2zm143.6-.4.8-1c1-.8 1.4-.3.5.6-.6.6-1.3.9-1.3.4zm33 0c0-.2.3-.3.5-.3s.3.1.3.3c-.1.1-.3.3-.5.3l-.2-.3zm-65.3-.2h.5c0 .1 0 .2-.3.2-.4 0-.4-.1-.2-.2zm55.9-.6c.2-.3.1-.7-.5-2-.5-.9-1-2.2-1.3-3l-.6-1.7a30.8 30.8 0 0 1 .2-13.7c.1-.7-.5-.6-2.5 0-.8.4-2.2.8-3 1.1-1.6.6-7.3 3.5-8 4.2-.3.2-1.1.4-2.3.5-4.6.2-8 1-8 1.6 0 .1 1.4.2 3.2.1 2.1-.1 3.2 0 3.2.1 0 .2-.8.3-2.2.3-2.6 0-5.5.5-8.4 1.6l-3.2.2 1.7-.7 1.9-.8 1-.2c.4 0 1-.3 1.4-.6 1.4-1.2 3.8-2 6.5-2.3l2-.2h-2.3c-1.6-.1-2.1-.2-1.8-.4.5-.3 6-.9 7.7-.8 1.2 0 3-1 3.1-1.6 0-.7 3.2-2.1 5-2.2 1.3 0 3.7-.6 4.8-1 .3-.2.6-.5.7-.9.4-.8 1.5-1 2.2-.5.8.5 1 .5 1-.1 0-1 .3-1.3 1.5-1.3h1v-.9c.1-3.2.7-5.5 1.6-5.5l1-.6c.6-.4.7-.6.5-1l-1-.5c-.8-.3-.7-1.2.1-1.3.4 0 1-.5 1.5-1.1 1-1.2 1.8-1.4 3-.4l.7.6-.3 1.8-.3 1.7.7.9 1.3 1.4.7.7.7-.6c1.1-.8 1.6-1.7 2-3.5 0-1 .3-1.7.3-1.8.3-.2 1 .6 1 1.2V7h2l.1-.8c0-.4.2-.7.5-.7s.4.3.3 1.4c-.1 1.6.1 1.7 1.2.8.4-.3 1.8-.9 3-1.2l4.3-1.3c6.8-2 18-4.4 19-4.1.5.2.1 1-.6 1-.3-.1-1.4 0-2.4.2l-3 .4c-.8 0-2.8.4-4.5.8l-4.5 1.1a49.7 49.7 0 0 0-12.1 4l-.5-.1.2 1 .3 3.3c0 1.9 0 2.4-.2 2.4h-.7c-.3 0-.4.7-.6 8.7 0 .6-.2 1.2-.5 1.5l-.4.4.4.2c.6.3.4 6.6-.2 7-.2.2-.4.6-.4 1 0 1.1-.8 4.6-1 4.7l-.7.4c-.8.9-2.1 0-2.4-1.4-.1-.6-.3-1.3-.5-1.6-.2-.5-.3-1.3-.1-2.8.3-2.6 0-5.2-.5-5.2-.3 0-.3.6-.3 3 0 1.7-.1 2.8-.3 2.8-.1 0-.3-.2-.3-.6L186 31c-.6-2.1-.6-2.4 0-2.4.3 0 .5-.2.6-.7.1-1 .2-1-1-.4-.6.3-1.4.4-3.8.4l-3.6-.2c-.9-.2-1.1.2-1.2 1.7-.1 1.7.2 2 .9.9.6-1 1.5-1.9 1.5-1.4 0 .3-.6 1-1.3 1.7-1.1 1.1-1.4 1.5-1.4 2.3 0 .5 0 1.4-.2 2.1l-.5 2.2-.1 1h1.5c1.9-.2 2 .3 0 .7-.8.1-1.7.5-2.1.7-.9.6-1.3.6-.9 0zm1.3-6.9v-3.8c-.1-.1-.6 0-1 .1l-1 .2.1-3.2v-5.5l-.1-2.2-.4.8c-.2.6-.4 2.4-.4 6.3v5.6l.8 2.6 1 3 .2.5.3-.4.5-4zm-1.5-.3c.1-.3.3-1 .3-1.6.1-1.5 0-1.4.4-1 .5.4 0 3.2-.4 3.2-.3 0-.4-.2-.3-.6zm16.3-5.1c0-4.1 0-5.4-.3-5-.3.4-.5 13-.2 13.2.3.3.5-2.9.5-8.2zm1.3 3.6c.2-1.7.3-3.3.2-3.5v-2.6c.2-1.6.2-2.3 0-2.6-.2-.3-.4-.4-.5-.3a95 95 0 0 0-.2 12.4l.5-3.4zm-2.4-5c0-4.5 0-5.6-.3-5.2-.4.6-.6 7.4-.3 10.2.3 3.3.6 1.2.6-5zm-14.2 1.8c0-.2-.2-.3-.3-.3-.2 0-.2.1-.1.3l.2.3.2-.3zm7.6-.6c0-.3.7-.5 2.2-.8l2.2-.3V23l-.1-3c-.1-.2-.5-.2-.9-.1-.6.1-.7.3-.8 1.3-.3 1.5.1 2 .6 1l.5-.9c.3 0-.3 2.4-.7 3.2l-.3.5h-3.3l-3.7.2-.5.3.7.1c.5.2.9.3 1 .5.5.8 3.1 1.4 3.1.7zm-4.2-.3c-.6-.6-1.8-.8-1.8-.3s.2.7 1.2.7c.8 0 1 0 .6-.4zm4.3-2.2c.3-.4-.2-2.8-.5-2.7-.2.1-.4 2.3-.2 2.7.2.2.6.2.7 0zm2-4.3c-.1-.1-.5-.3-.8-.3h-.6v1.7c0 .9.2 1.6.4 1.7.1 0 .3.3.3.6 0 .2 0 .5.2.6.2.3.6-3.7.4-4.3zm-8.4 1.7c-.8-1-1.1.8-.3 2l.4.6.1-1.1c0-.6 0-1.3-.2-1.5zm16.6 1.8s-.2.1-.3.4c-.2.4-.1.4.1.1.2-.2.3-.4.2-.5zm-35 0c.3-.1.5-.4.4-.4-.2-.3-2.4.4-2.2.6.2.4 1.2.3 1.8-.1zm19.6-.4c0-.2-.1-.1-.1.2 0 .2 0 .4.1.3v-.5zm3.8-.5c0-.7-.8-1.7-.8-1 0 .6 0 1.7.2 1.9.2.4.6-.1.6-.9zm-1.6.6c0-.2-.2-.3-.5-.3s-.5.1-.5.3c0 .1.2.2.5.2s.5-.1.5-.2zm-1.8-1.4-.3-.4c-.1 0-.3 0-.3.3 0 .2.2.4.3.4.2 0 .3-.1.3-.3zm1.8 0c0-.1-.2-.2-.5-.2s-.5 0-.5.2.2.3.5.3.5-.1.5-.3zm1.3-1.8c0-.6-.3-.7-.6-.3-.3.4 0 1.1.4 1l.2-.7zm1.9.2c0-.6-.7-1-1.1-.5-.2.2-.2.4 0 .7.5.5 1 .4 1-.2zm-3.3-.2c0-.2-.2-.4-.5-.5-.3 0-.4 0-.4.5 0 .4.1.5.4.5.3 0 .5-.3.5-.5zm-3.4-.3c-.1-.5-.6-.6-.8-.1-.1.3 0 .4.4.4.3 0 .5-.2.4-.3zm1.7-.1c0-.5-.6-.4-.8 0 0 .2.1.4.4.4.2 0 .4-.2.4-.4zm14.5-1.4c0-1 0-1.2-.2-.9-.4.6-.4 2.2 0 2.2.1 0 .2-.6.2-1.3zm-5.2.4c0-.2.5-.5 1-.6.7-.1.8-.2.5-.5-.2-.3-.2-.6 0-1.2.2-.4.3-1 .2-1.4l-.1-.6-.2.8c-.2 1-1 1.8-1.1 1.2-.2-.5-1-.3-1.3.3-.2.9-1.6 1.5-3.3 1.5-2.1 0-1.5.5.7.6l2.8.2c.4 0 .7-.1.8-.3zm-7.3-.6.1-.5c.2 0 .3-.3.2-.7-.2-.6-.4-.7-1.5-.9-1.5-.2-2 0-1.7.5.2.5-.4 1.2-.9 1-.5-.2-1.3.5-.9.7l2.6.2c1.7 0 2.2 0 2-.3zm2.6-1c-.1-.4 0-.5.7-.5s.8 0 .7-.5v-1.3l.6-1.8c.3-1 .8-1.5.8-.7 0 .7 1.6 2.8 2.1 2.8.3 0 .5-.2.5-.4 0-.3-.2-.4-.4-.4a.4.4 0 0 1-.4-.5l-.7-1.9-1.1-2.2c-.2-.4-.6-.8-1-1-.3-.1-.6-.4-.7-.6-.1-.4-.3-.4-.7-.2-.3.2-.8.5-1 .8a8 8 0 0 1-1.4.9l-.9.5.7.4.7.3v2.3c0 1.2 0 2.2-.2 2.2v1c.4 1.3.4 1.3 1.2 1.3.6 0 .6 0 .5-.4zm8.7-.5c.2-.6.3-.7.6-.6.4.1.4-.3 0-2-.3-.9.3-.6.6.3l.3.8.7-.7.7-.7-.3-.6c-.2-.3-.4-1-.3-1.7 0-.8 0-1.1-.4-1.1-.5 0-.6-1-.1-1.2.1 0 .2-.3 0-.4 0-.2-.3-.1-.6.2-.3.3-.6.3-.8.2-.3-.3 0-.7.7-1.1.3-.2.4-.3.2-.3-1 0-3 2.8-3.4 4.8-.1.7 0 1 .3 1.4.3.4.4.7.3 1.7-.1 1.1 0 1.3.4 1.7.7.4 1 .3 1.1-.7zm-1-4.1c.3-2 .4-2.5.7-2.5.3 0 .3.2-.1 2-.3 1.6-1 2-.6.5zm1.5-1c-.4-.8-.4-1.2-.1-1.2.2 0 .8 1.2.8 1.6 0 .5-.4.2-.7-.4zm-6 3.9c.1-.5-.4-.4-.7.2-.2.4-.2.6 0 1l.4.4.2-.7.2-1zm-5.8-1.5c.2-.2.2-.4 0-.8l-.4-.5-.3.6-.3.8c0 .4.7.3 1 0zm8.6-1.8c0-.3-.2-.5-.3-.4-.2 0-.3.1-.3.3v.7c0 .5 0 .6.3.2l.3-.8zM184.4 5c0-.3-.7-.5-.9-.3-.3.3-.1.8.4.6.3 0 .5-.2.5-.3zm1.8 34.8h.7-.7zm-62.6-.7c0-.2.8-.3 2.7-.3 1.9 0 2.3 0 2.3.3 0 0-1.1.2-2.5.2s-2.5-.1-2.5-.2zm43.8 0c-.3-.4 0-.6.5-.5l.5.1-.4.4c-.3.2-.5.2-.6 0zm-56.8-.2c0-.4.5-.6.6-.3.1.1 0 .3-.2.4l-.4-.1zm-98.2-1v-1c0-.2.1-.3.3-.4.2 0 .3.4.3 1.2 0 .6-.1 1.2-.3 1.2-.1 0-.3-.4-.3-1zm180 .7c0-.3 1-.6 1.7-.5.8.2.5.6-.6.7-.7 0-1.1 0-1.1-.2zm16.1 0c0-.3 1-.8 1.2-.6.2.2-.4.9-.8.9-.2 0-.4-.1-.4-.3zm-101-.8c-.3-.5-.3-.6 0-.8.5-.4 1.3-.3 1.3.1 0 .5 1.2.6 1.8.1.3-.2 1.2-.3 3.3-.2 2.2.1 2.8.2 2.5.5-.2.1-1.8.3-4 .4-2.1 0-4 .2-4.2.3-.3.1-.6 0-.8-.4zm89.4.3c-2.7 0-2.5-.8.2-.8 1.6 0 3 .4 2.4.8l-.5.2-2-.2zM2.1 37.3c-.6-1-.6-2-.2-1.8.4.1.8 1.6.7 2.3 0 .3-.2.1-.5-.5zm118 0-.6-.2.5-.2c.5-.1 5 .2 5.3.4.2.2-4.4.2-5.2 0zm46.2 0c-.4-.3 0-.6 2-1.6a12 12 0 0 0 2.6-1.4c.3-.4 1-.6 1-.3l-.9 1.3c-1 1.2-2.5 2.2-2.5 1.7l.4-.2c.3 0 .4-.2.4-.3 0-.4-1.2-.1-2.1.5-.4.3-.8.4-.9.4zM102 37c0-.3.7-.5.9-.3 0 .2 0 .3-.3.4-.5.2-.6.2-.6 0zm-19.5-.4-.7-.4.5-.5c.3-.2.6-.6.7-.9.2-.6 1.6-1.2 3.2-1.3 2-.1 1.9.4-.2.9-1 .2-2.1.5-2.5.8l-.6.3.5.5c.6.7 0 1-.9.6zm23 0c.1-.3 1.4-.8 1.7-.6v.6c-.2.5-1.9.6-1.7 0zm79.6-.8c0-.5 0-1 .2-1 .2-.1.3.1.3.5 0 .5.1.7.4.6.3 0 .5 0 .5.3 0 .2-.3.4-.7.4l-.7.1zm-173.3.4c0-.2.1-.7.3-1l.4-.7v.6c0 .7-.2 1.4-.5 1.4l-.2-.3zm83-.1c0-.3.4-.4 1.8-.4h1.7l-.3.4c-.2.3-.8.4-1.7.4-1.1 0-1.5-.1-1.5-.4zm-31-.1c0-.2.2-.3.3-.4.2-.1.3 0 .3.2s-.1.4-.3.4c-.1 0-.2 0-.2-.2zm147.7 0c0-.2.2-.3.3-.3.2 0 .7 0 1-.2.5-.1.6 0 .5.2-.1.4-1.8.7-1.8.3zm-143.7-.8c-1.4-.1-1.3-.6.2-.6 1.2 0 2 .2 2 .6 0 .2-.3.2-2.2 0zm8.1-.2c.2-.3 2.7-1.4 3.3-1.4.7 0 .1.4-1.2 1.1-1.7.8-2.3 1-2 .3zm3.2.2-1-.2.7-.3c1-.4 2-.4 2.5 0 .7.7.1.9-2.2.5zm24 0c-.1-.3 1.3-1 1.9-1 .7 0 .4.6-.4 1-1 .3-1.2.3-1.4 0zm32 0-.2-.8c0-.3-.3-.9-.7-1.3l-.7-.7h-2.6c-2 0-2.8.1-3.1.4-.6.4-5 .4-5.2 0-.1-.2-.5-.3-.9-.2h-.7c0-.4 2.1-.7 2.5-.4.3.2 1 .2 2.2 0l4.5-.2c2.9 0 4.3.4 5 1.3l.3.6 2.1-.4 4.8-.6 2.7-.2 1.3.8c.7.4 1.3.8 1.3 1 0 .3-1 .1-1.8-.5-.7-.5-1.1-.5-2.9-.5-3.5 0-6.4.5-7.2 1.1l-.8.5zm-43.7-.7c0-.3-.3-.4-1.3-.3-1.5 0-1.9-.2-1.9-.9 0-.4.2-.5.9-.5 1.3 0 2.8.5 3.2 1l.3.9c-.3.4-1.2.2-1.2-.2zm-69-2 .4-5c.1-3.6.7-6.7 1.1-6.8.3-.1.3 0 .2.5-.4 1.4-1 8.3-1 12.2 0 1 0 1.2-.4 1.2h-.4zm16.4 1 .3-2.8c.2-1 .1-1.6 0-1.6-.6 0-.8.7-1 2.4-.2 1.7-.4 2.2-.8 1.6l.1-1.2.5-2.5c.1-1.2.3-1.5.7-1.5.5 0 .8-.4 1.5-2.4.3-1 .7-1.8.9-2 .5-.4.5-.1-.3 2.1-.7 2.3-1.1 5.2-.7 5.4.3.2.4 2.2.2 3-.1.2-.3.3-.4.2-.2 0-.5 0-.7.2l-.4.4zm32.6.7c-.3-.2-1.3-.5-2-.5-2.4-.3-2-.7.6-1l1.5-.2v.5c0 .3.3.6.7.8.4.2.6.5.5.6-.2.3-.7.3-1.3-.2zm3.1 0c0-.1-.6-.5-1.2-.7-1-.4-1.2-.8-.6-1 .1-.1.8 0 1.5.3 1 .4 1.2.6 1.2 1 0 .8-.5 1-.9.5zm-68.3-1L5.6 31c-.2-.4-.2-.9-.1-1 .2-.4.6 0 .6.7 0 .3.2 1.1.5 1.8.6 1.3.7 1.8.2 1.8-.2 0-.5-.5-.7-1.3zm109.5.7h1l-.6.1h-.4zm1.8-.2h.7l-.4.1c-.3 0-.5 0-.3-.1zM76 32.9c-.2-.3 0-.4.5-.5.7-.2.8-.7.2-.7H76l.2-2.2a396.2 396.2 0 0 0 .7-8c.2 0 .3.3.3.8 0 .7.1 1 .5 1.2.5.3.9-.2 2.7-4 .5-1 1-1.8 1.2-1.8.2 0 .3.1.3.2a8 8 0 0 1-1.1 2.5 4 4 0 0 0-.6 1.8l-.1 1.3c0 .3-.1.3-.4-.1l-.4-.5-.1 1.6a12 12 0 0 0 0 2.7c.1.9 0 1.1-.2 1-.2 0-.4-.4-.5-.7-.1-.5-.2-.2-.4 1v2.3l.3.8h1.1c1.7 0 1.6.5-.1 1-2.6.7-3.5.8-3.6.3zm1.6-7.2c-.1-.4-.2 0-.2.7 0 .8.1 1.2.2.8v-1.5zm1-.4c0-.3-.1-.1-.1.5s0 .8.1.6v-1zm40.5 7.2c0-.2-.5-.2-2-.1l-2.3.1 1.3-.4c2-.5 3.4-.5 4 .2l.5.5h-.9c-.5 0-.8-.1-.6-.3zm16.3-.5.2-.8-1.7.1-1.8-.1c0-.2.7-.3 1.5-.3l2.2-.1c.7-.2.9-.1 1 .4.2.7.6.7 1.5 0l1-.5 1.1-.3c.5-.2.8-.2 1.2 0l.5.2h-.7c-.7 0-2 .7-2.2 1.2 0 .2-.8.5-1.7.7-2.2.4-2.3.4-2-.5zm49-1.1c-.1-2 0-2.2.4-2 .3.2.4 3.9 0 3.9-.1 0-.3-.9-.3-2zm-99.9 1.4c0-.4 1-.5 3-.4 2.6.2 2.2.6-.6.6-1.3 0-2.4 0-2.4-.2zm10 0c-.2-.2 0-.4.4-.5.9-.4 6.6-.5 6.8-.2 0 .2-.7.3-2.1.3-2.3 0-3.8.2-4.6.5l-.6-.1zm-30.6-2c-.5-1.5-.8-2.1-1.2-2.3-.7-.2-1-.8-.8-1.5.2-.7-.6-4.3-1.1-4.9-.4-.4-.5-1.3-.2-1.3l1 .6c.6.5.7.8.5 1.3-.1.8.4 2.7 1.3 4.6.7 1.7.9 1.3.5-1.5l-.3-3.1c0-.8-.1-1.1-.5-1.3-.7-.4-1-1-1.6-3.9a9.3 9.3 0 0 1-.4-3.3c.3-1.9.7-1.8.7 0 0 2.7 1 6.6 1.5 6.3.2-.1.3-1.5.3-3.4 0-1.7.1-3.1.2-3.1.5 0 .6 1.1.6 5.6 0 2.5.2 5.6.4 7 .4 3 .4 6.2 0 6.2-.1 0-.6-1-.9-2zm18 1c0-.2.4-.6 1-.9.6-.3 1-.6 1-.8l1.1-.8c.6-.3 1.1-.7 1.1-.8l1.3-2.2c1.5-2.2 2-4.1 1.3-4.1-.6 0-1.3.7-2 2.3-1 2-2.2 4.1-2.6 4.3-.4.3-1.2.3-1.2 0a25.3 25.3 0 0 0 2.4-11.5c0-.9.5-.3.5.5 0 1.7.5 1.2 2-1.6a10 10 0 0 1 1.7-2.8c.5 0 .4.4-.8 2.5l-1.5 2.8c-.2.4-.5.8-.7.8-.2 0-.4.3-.5.6-.2.9-.2 2 0 2 .5 0 2.9-1 3-1.2 0-.2.3-.3.6-.3 1 0 3-1.4 3.9-2.6 1.3-2 1.4-3.6.1-2.2-.5.6-1.2.7-1.2.2 0-.2.3-.6.7-1 .3-.3.8-1.1 1-1.9.4-1.6.8-1.7.7 0-.1.7 0 1.2.2 1.5.6.5.3 1.9-.8 3.7-1 1.5-1.3 3.3-.7 3.3.2 0 .3-.4.3-.9s0-1 .2-1c.5 0 .4 3 0 3.2-.6.3-.8 3.4-.2 3.4.2 0 .3.2.3.6 0 .4 0 .6.4.6.7 0 1-.4 1.9-3 .9-2.7 1.3-5 1-5.7-.2-.3-.3-1.2-.3-2 0-1.5-.2-2-1.1-3.9l-1.2-2.1.2-3c.2-3.2.4-4 1-3.8.3.1.6 0 .8 0 .4-.4.8 0 .5.5L97 5.6c-.2 1.7-.7 1.5-.6-.3 0-.9 0-1.3-.2-1.2-.5.2-.4 3 0 3.7.3.3.4.6.3.7 0 .1 0 .4.2.6.3.4.2.4-.2.6-.7.2-.7.1-.1 1.5 1 2.4 1.3 3.2 1.3 4 0 .5.2 1.4.5 2 .3.8.4 1.5.2 3-.1 1.9-1 5-1.5 5.6-.1.2-.2.6-.1.8.2.6.9 0 1-.9.1-.9.7-1.1.7-.3 0 1.2.3 1.4 1.7 1 .9-.2 1.4-.5 1.5-.9.3-.7 1-1.3 1.4-1.1.1 0 0 .4-.5 1-.8.9-.8 1 .8.3l2.7-.9c1.1-.2 1.6-.5 1.6-.8 0-.7.2-.8 3-1.8 2.4-.8 2.8-1 2.9-1.6 0-.3.3-.8.6-1.1.2-.3.5-.9.5-1.3s0-.8.2-.9c.4-.2.4 1.4 0 2.4l-.2 1c.3.3 4-.9 4.6-1.4l.4-.4-.4-.4-.5-.3 1.2.2 1.3.2 5.3-1.7a151.4 151.4 0 0 1 14.3-5l2.1-.5 2.1-.4c.8-.2 1.4-1 1.2-1.6-.1-.6.8-2.8 1.3-3 .2 0 .4-.4.4-.7 0-.8.5-1.2 1.3-1 .7.1.7.8 0 1.4-1 .9-.5 1.4 1.2 1.6.8.1 1.7.3 2 .5.7.3 1.4.3 3.6-.2l2-.5-.2-.5c-.1-.4 0-.4.5-.4.4 0 1-.1 1.6-.4.8-.4 1-.5 1.3-.2.3.3.2.5-.5 1-1 .8-.7 1 1.1.7l1.5-.4-.2-.8c-.1-.6 0-1 .4-1.5l.6-1.2c0-.4.3-.5 3.7-1 2-.2 2.8-.4 4.1-1.2 1-.5 2-.8 2.3-.7.3 0 .7 0 1-.2.9-.6 1.3 0 1.3 1.7 0 2-.2 2.4-1.4 2.3-.7 0-.9 0-1 .4v.5l1.5-.2c.9 0 2-.2 2.5-.3.8-.1 1 0 1 .2 0 .5-1.8 1-2.6.8-.3 0-.7.1-1 .3a1 1 0 0 1-1 .3c-.3 0-2 .1-3.7.4L165 8c-1.4.1-3.2.5-4 .7-2.2.7-4.7.9-4.7.4 0-.3-.2-.3-1-.2-1.2.3-1.4.4-1.3.8.1.2-.6.5-2.4 1a11 11 0 0 1-2.7.4c-.1-.2.2-.3 2.3-.7 1.7-.4 2-1 .4-.7-.8.2-1 .1-.5-.1.8-.5.4-.8-1.2-.8h-1.6v.5c0 .3.2.6.3.7.2.1.2.3 0 .4-.3.2-.5.5-.5.7 0 .2-.3.4-.6.5-3 .6-3.5.6-3.6.4-.2-.4-.6-.3-1.3.2-.5.5-3.2 1.4-3.9 1.3l-1 .3-3.2 1-5.7 2.1c-3.6 1.4-5 1.9-6.6 2-.6.1-1.6.5-2.2.8l-3.5 1.6c-1.4.5-3 1.3-3.6 1.6-.7.4-1.5.7-1.8.7l-1.4.4-3 1.2c-3.4 1.2-3.2 1.4 1.3 1.4a123.5 123.5 0 0 1 13 .5s-.2 0-.2.2c0 .4 2.5.8 3.8.7 1.5-.2 2-.7.7-.7L124 27c-.4-.2.4-.2 2-.1 1.3 0 2.6.2 2.7.4.3.2-1 .7-2.4.8-.5 0-1.3.2-1.7.4-.6.2-1.2.2-2.8-.1l-2.5-.6c-.9-.5-9.1-.3-11 .2-1.6.5-5.4.8-5.4.4 0-.1 1.1-.4 2.5-.5 2.7-.3 3.7-.8 2.5-1a23 23 0 0 0-8.6 1l-2.4.2c-1.5.2-2 .2-2.1 0-.1-.4-1.2-.5-1.5-.2l-1.2.2c-.6 0-1.3 0-1.5.2-.2.2-.6.2-1 .2-.3-.1-.8 0-1.1.2-.3.2-.8.3-1.2.2-.8-.2-1 .2-.4.7.6.4.3.8-.6.8-.4 0-1.3.3-2 .7-1.5.7-2.5.8-2.5.2zm5.7-3.4c.2-.7-.1-.8-.4-.2-.2.4-.2.6 0 .6l.4-.4zm2.2-.5L90 25c.3-2.7.7-3 .7-.3-.1 2.8-.1 2.8.5 2.8.3 0 .6-.3.8-.7.4-.8.5-6.2.2-6.6-.1-.2-.6-.1-1.4.2l-1.1.6-.2 1.3c0 .8-.3 2-.6 2.6-.8 1.6-.8 2.9-.1 2.9l.8-.4zm-4.7-2 .3-1.2.2-.8-.5 1c-.6 1.3-.7 1.5-.3 1.5 0 0 .3-.2.3-.5zm61.2-14c0-.2 0-.3-.3-.3-.2 0-.3.1-.2.3l.2.2.3-.2zm21.4-4.7c-.2 0-.6-.1-.8 0-.3 0-.1.1.3.1s.6 0 .5-.1zM172 6c.4-.3-.5-.2-2.1.2l-1.3.4 1.6-.2c.8 0 1.7-.2 1.8-.4zM71 30.3l-.1-4.7c-.1-4-.3-5-2-12.1-.8-3-1.4-8-1.1-8.6.2-.4.6.2.6 1.1 0 1.5 1 6.8 1.8 10.2.4 1.7 1 4 1 5 .4 2.3.8 9.2.7 9.7-.3.7-.9.3-1-.6zm50.2.7h.5c.1.1 0 .2-.3.2s-.4-.1-.2-.2zm7.6-.3c-.3-.2-.1-.3.8-.4 1.7-.2 2.2-.2 1.9 0-.4.4-2 .6-2.7.4zm80.6 0a10 10 0 0 1 2.5-2.4s0 .3-.3.6c-.7.9-2.2 2.1-2.2 1.8zm-64.3-.6h3.2c.3.2-.8.2-2.5.2h-3.2zM2.8 29.5c-.6-.9-.5-1.5 0-1.5S4 29.1 4 30c0 .4-.8.1-1.2-.5zm122 .5c-.3-.4-.2-.7.4-.7.3 0 .5.2.4.4-.1.3-.5.5-.8.3zm9.8-.1c.4-.4 4.7-.7 4.5-.3 0 .2-1 .4-2.4.4s-2.3 0-2.1-.1zm-66.9-.3c-.2-5.3.4-13 1-12.4a119.7 119.7 0 0 1-.6 12.6c-.2 0-.4 0-.4-.2zm12.9 0c-.2-.2 0-1.3.5-6.3l.2-1.2.3.6c.3.9 0 6.2-.5 6.8-.2.3-.4.4-.5.1zm10.6 0c-.6 0-.5-.5.2-.7.7-.1 1.2 0 1.2.4 0 .3-.8.5-1.4.4zm37.3 0c-1-.2-.3-.5 1.2-.5.8 0 1.5.1 1.5.2 0 .2-.3.3-.7.3l-1.2.1h-.8zm-1.5-.3.4-.2.4.2c0 .2-.2.3-.4.3s-.4-.1-.4-.3zm-14-.7c-.5-.4 0-.6 1.4-.5l1.3.2c.1 0 .2.1 0 .2-.1.4-2.2.4-2.7 0zm26.1-.2-1-.4c-.7-.1-.8-.2-.4-.4.7-.3 3.4.1 3.3.5-.2.3-1.6.6-1.9.3zm73.3-.7c0-.3.2-.4.3-.3l-.2.4c-.3.3-.3.3-.1-.1zm-82.3-.1c-.4-.4-.1-.6 1-.6 1 0 2.1-.4 3.7-1.1 1-.5 4-1.3 4.6-1.3.6 0 2.7-.5 4.4-1.1a28 28 0 0 1 2.6-.6c1-.2 2.2-.6 2.9-1 2-.8 2.2-.9 9.5-2.2 1-.1 2-.5 2.3-.7a14 14 0 0 1 6-1.6c1.3-.1 3-.3 3.6-.5h1.4c.4.4.2.5-2.6 1a602.6 602.6 0 0 0-5.4.7 4 4 0 0 0-1.6.8c-.8.7-2.2 1-5 1.3-4.2.4-5.6.8-7 1.7-.5.3-1.3.6-1.6.6l-1.8.4c-.9.2-1.2.5-1.3.9 0 .4 0 .5.6.5 1 0 1 .5 0 .7-1.5.2-2.7.2-2.7-.1 0-.2.2-.3.5-.3.6 0 .7-.4.2-.6-.6-.2-5.1.6-7 1.4-4 1.4-6.9 2.1-7.3 1.7zm27.3-.1c0-.2.4-.3.8-.3.5 0 .8.1.8.3 0 .1-.3.3-.8.3-.4 0-.8-.2-.8-.3zm43.3 0c-.2-.3.3-.6.7-.4.3.2 0 .7-.3.7l-.4-.3zm-40.4-.5c-.5-.2-.2-.3 1-.3.9 0 1.4.1 1.3.3-.2.3-1.3.3-2.3 0zm-23-.3c.3-.4 6.4-.7 6.4-.3 0 .2-.6.3-1.3.3-.7 0-2.2 0-3.4.2-1.5 0-2 0-1.8-.2zm76.6-.6c.4-.6.9-1 1-1l1.4-1.8c1.4-2.1 2.8-3.7 2.8-3.3 0 .2-.3.6-.5.8l-.6.6c0 .5-2.2 3.7-2.5 3.7-.2 0-.5.2-.5.4l-1 1-.8.5zM11 26c-.2-.2.3-4.2.7-5.8.5-1.8.6-2 .9-1.6.1.1 0 .7-.2 1.5l-.7 3.6c-.3 2.2-.4 2.6-.8 2.2zM9 25c-.4-.8-.6-2.1-.4-3.2l.2-1.2.4 1.8c.1 1 .4 2 .5 2.4.2.8-.3 1-.7.3zm90.6.3c-.2-.3.9-1.5 1.1-1.3.2.2-.4 1.5-.7 1.5-.1 0-.3 0-.4-.2zm103.1 0c0-.2.3-.4.5-.5.2 0 .3 0 .2.2 0 .2-.2.4-.4.5-.2 0-.3 0-.3-.2zM98.7 24c.3-1 4.3-9.3 5-10 .5-.6 1-.8 1-.4l-.3.6c-.9.7 0 1.5 1.6 1.5.8 0 4-3 3.7-3.4-.1-.2-.4-.2-.6-.1-.7.2-.4-.3.5-1 1-.8 1.5-2 1-2.3-.2-.2 0-.6.5-1.5l1-1.2-.4-.9c-.4-1-.4-1.2 0-1.2.6 0 1 1.2.8 2 0 .5-.3 1-.6 1.4-.3.4-.4.9-.3 1.4 0 .6 0 1-.6 1.7-.4.5-.8 1.3-.8 1.8 0 .4-.2 1-.4 1-.2.2 0 .4.5.7.6.2.8.5.8.8 0 .6-.3.8-.6.3-.3-.4-2 0-3.2.8l-1 .6-1.5-.3-1.5-.3-.3.5c-.6.7-2.5 4.7-3.2 6.6-.7 1.7-1.3 2.3-1 .9zm-77-.3c-.2-.8 0-1.9.2-1.9.1 0 .2.6.2 1.4.1 1.4-.2 1.7-.5.5zm141.9.3c-.2 0-.3-.2-.2-.3.2-.4 2.8-.3 2.8 0 0 .1-.2.3-.4.3h-2.2zm40.4 0c0-.2.2-.3.4-.3h.4c0 .1-.2.3-.4.3-.2.1-.4 0-.4 0zm-99-.3.8-1.1c.7-.9 2-3.5 1.8-3.9 0 0 0-.2.2-.2.5-.2.4 1-.2 2.3-.9 2-2.6 3.9-2.6 2.9zM3.4 23.4c-.1-.2-.5-.4-.8-.4h-.5V21c0-1.7.3-2.4.6-1.3.1.3.4.5.7.5.6 0 1.2 1.8.8 2.3-.1.2-.2.5-.1.6.3.5-.3.6-.7.2zm99.5-.5c-.2-1 .2-5 .5-5.3.5-.4.7 0 .4 1-.2.4-.3 1.7-.3 2.8 0 2-.4 2.9-.6 1.5zm-60.3.1c0-.4.9-1.3 1.3-1.3s.4.3-.2.8c-.7.6-1 .8-1 .5zm158.2 0c0-.2 1.2-.6 2.9-1 .5 0 .8 0 .8.2 0 .1-.7.4-1.5.5l-1.8.5-.4-.1zm19-1.2c.2-.5.5-1 .7-1 0 0 .2 0 .2-.2 0-.4 2.2-3.5 2.3-3.2 0 .3-3 5-3.4 5.2l.2-.8zm-94.3.3c0-.1.5-.4 1-.5a186 186 0 0 0 15-4c-.2.3-1.7.8-6.6 2.2l-6.3 1.8c-3 1-3.3 1-3.1.5zm-68.9-.4c0-.5.7-1.6 1-1.3v1c-.3.8-1 1.1-1 .3zm101.4.4c0-.2 2-1.2 2.2-1.2l.1.3c0 .3-.3.5-.8.7-.9.3-1.5.4-1.5.2zm47-.2c0-.1.4-.2.9-.2.4 0 .7 0 .6.2 0 .2-.4.3-.8.3-.3 0-.6-.1-.6-.3zm-163.4-.3c0-.2.3-.4.6-.4s.4 0 .3.2c0 .2-.3.4-.5.5-.3 0-.5 0-.4-.3zm13.5-.6c.5-2.1.5-5.3.1-6.5-.7-2.3-.8-4.7-.2-6.6l.7-3.1c.1-.8.3-1.4.5-1.4.3 0 .3.6.3 2.3 0 2 0 2.4-.5 2.8-.7.5-.9 3-.4 4.7.2.7.4 1.7.4 2.3.1 1 .4 1.4 1.3 2.3.7.7 1.2 1.3 1.2 1.5 0 .5-.6.3-1.5-.7-1-1-1.1-1-1.2 1.3 0 1-.2 1.6-.5 1.7-.2.1-.3 0-.2-.6zm27.6 0c-.3-.8-.2-3 .2-3.2.3-.3.3 0 .3 1.6 0 2-.1 2.5-.5 1.6zm125 0c.1-.3.3-.5.5-.4l.9-.4c.2-.3.5-.4.6-.3.3.2-1.2 1.5-1.7 1.5-.2 0-.3-.2-.2-.5zM40.6 21c0-.5 2.1-2.3 2.4-2.2.6.2.5.8-.2 1-.4.2-1 .5-1.2.8-.5.6-1 .7-1 .3zm7.4-1.8c0-2 .4-3 .6-1.4.2 1 0 3.3-.4 3.3-.1 0-.2-.8-.2-2zm-22.6.8c-.2-.5-.6-1.8-.8-3-.2-1-.5-2.2-.7-2.4-.5-1.1-1-2.9-.8-3 .4-.4.8 0 .8.6l.4 1.5c.4.9 2 6.5 2 7s-.6 0-.9-.7zm14.1.2c0-.2.2-.4.5-.4.2 0 .3.2.3.3-.2.5-.8.6-.8.1zm89 .1a87 87 0 0 1 12.1-3.9 98.7 98.7 0 0 0-8.5 3l-3.4 1.1c-.2.1-.3 0-.2-.2zM7.7 19.8c-.4-.6-.5-2-.2-2.1.3 0 1.2 2.3 1 2.5-.2.3-.5.1-.8-.4zm38.8.3c-.3-.9-.3-1.4 0-1.5.4-.2.8 1.2.4 1.5-.2.3-.3.2-.4 0zm12.2-.3s.2-.3.4-.3c.3-.1.4 0 .4.2s-.1.4-.4.4c-.2 0-.4-.1-.4-.3zM.5 19.1c0-1 .3-1.7.6-1.7.4 0 .2 2.2-.2 2.4-.2 0-.4-.2-.4-.7zm34-1.6c0-3.3.3-5.8.6-5.6l.2.8V16c-.2 2.9-.3 3.8-.7 3.8 0 0-.2-1-.2-2.3zM77 19.3c-.4-.7-1.1-5-1-5.5.1-.3 0-1.4-.2-2.6a301 301 0 0 1-.4-2.6c0-.4 0-.6.3-.6s.5.7.8 2.9l.2 2.9c-.3 0 .5 4 .9 4.8.2.4.3.4.6.1.3-.2.4-.2.4 0 0 .4-.8 1-1.1 1.1l-.5-.5zM3.7 19l-.3-1c0-.3.1-.3.5 0 .3.3.4.3.6 0 .4-.6.2-1.7-.2-1.8-.2 0-.4.2-.6.6-.3.8-.6.7-1.3-.6-.5-1.2-1-1.4-1.2-.6l-.1.6-.6-.6c-.8-1-.7-1.6.3-1.6s2 .5 2.4 1.2l.2.7.6-.4c.6-.4 1.4 0 1.5.8.2.7-.8 3.3-1.2 3.3-.2 0-.4-.3-.6-.6zm215.7.4c0-.2.6-1.1 1.4-2l1.6-2.3c.3-1 .7-.6.7.5 0 .8-.1 1-.5 1-.2 0-1 .7-1.9 1.6-.7.8-1.3 1.4-1.3 1.2zm-10.1-.9c0-.5.6-2 1.2-2.9.3-.4.6-1 .5-1.2-.1-.3.2-.7.7-.8l.6-.3h.6c.2.2.2.2-1.4 2.4-.7.8-1.3 1.9-1.5 2.3-.2.7-.7 1-.7.5zm-162.6-1c-.2-.9 0-1.4.4-1.4.2 0 .3.5.3 1 0 1.3-.4 1.5-.7.3zm52.5.1a189 189 0 0 0 5-7.7c.2-.7.6-1.2.8-1.2.2 0 .3.1.3.3 0 .4-1.4 3-2.4 4.3-.6.7-1 1.4-1 1.6 0 .2-.4.8-1 1.4-.5.6-.9 1-.9 1.2l-.4.3c-.2 0-.4 0-.4-.2zm-55.5 0 .7-1.3c.5-.6.9-1.6.9-2 0-.7.2-1 .5-1 1-.2.4 1.6-1 3.5-.6.8-1.1 1.2-1.1.8zm34.1-.7.5-2.8A292.4 292.4 0 0 0 79.9 7l.7-2.3c.1-.8.9-1 .9-.4L81 6.1c-.8 2.1-1.6 5.3-2 8.5-.4 1.8-.7 2.8-.9 2.8-.2 0-.3-.2-.3-.5zm5.8-.2c-.4-1-.4-2-.1-2.2.1 0 .9 2 .9 2.7 0 .5-.6.2-.8-.5zm59.2.5c.8-.3 2.4-.6 2-.3a5 5 0 0 1-1.5.4h-.5zm-100.6-.8c0-.1 0-.4.3-.6.7-.8 1.4-2.2 1.4-3 0-.5.1-1 .3-1 .3 0 .3 1 0 2.3-.3 1.1-1.7 2.8-2 2.3zm71.8-.3c-.1-.3-.4-.5-.7-.5-.3 0-.6-.2-.6-.4s-.2-.4-.4-.5c-.2-.1-.3-.3-.2-.4.5-.9 2.5.5 2.5 1.6 0 .9-.4 1-.6.2zM6.4 15.7c-.2-.4-.3-1.1-.3-1.6 0-1.3 1.3-4.6 1.8-4.8.6-.2.1 2.5-.6 3.7l-.7 1 .4 1c.5 1.4.5 1.4 0 1.4-.1 0-.4-.3-.6-.7zm73.2.3c0-.4.7-.7 1-.5.1.2-.4.9-.7.9-.1 0-.3-.2-.3-.4zm62.5-.2a2 2 0 0 1 1-.2h.4l-.5.2c-.3.2-.7.3-1 .3h-.3zm-131.2-.3.4-.7c1.2-1 2.5-3 3-4.8.3-1 .7-2 1-2.1l.4-.4-.2.7c-.4 1.7-.5 2-.1 2s1-1.4 1.2-3.6c.1-1.2.3-1.9.8-2.4l.9-.8c.4 0 .3.7-.2 1-.5.5-.5 1.6 0 2.3.6.8.5 1.4-.2 1.8-.7.3-.8.4-.8 1.5 0 .4-.2.8-.6 1-.8.3-1.7 1.7-1.7 2.6 0 .4-.1.7-.4.7-.4 0-.4-.2-.2-1.3 0-.8 0-1.1-.1-1-.2.1-.3.3-.3.5 0 .4-2.4 3.3-2.7 3.3-.1 0-.2-.1-.2-.3zm6.8-7.8c0-.2 0-.4-.2-.4-.2-.1-.3 0-.3.2s.1.4.3.4l.2-.2zm34 7.6c0-.4 0-1.6.3-2.8l.4-3.7c0-1 .1-1.7.3-1.7.3 0 .3 2.7 0 5.1l-.5 2.8c-.1 1-.6 1.2-.6.3zm46.6-.7c.3-1.9.4-2.5.7-2.5.2 0 .2.6.1 1.3-.3 2-.4 2.4-.7 2.4-.2 0-.2-.4-.1-1.2zm101.9 1c-.2-.4 3.6-3.7 4.3-3.7l.7-.6c.6-.8 1.5-1.3 2.2-1.3.4 0 .3.1-.2.4l-.6.4c0 .2-.6.6-1.5 1.1-.8.5-2.2 1.6-3 2.4-1.6 1.6-1.7 1.7-2 1.3zm-172.5-.8c-.3-1.3-.2-7.4 0-7.5.5-.3.6.6.6 4.5 0 3.6-.2 4.8-.6 3zm97.3.4-1-.5c-.4-.3 1.7 0 2 .3.4.4-.1.5-1 .2zm19 .1 4.6-1.3A275.3 275.3 0 0 0 154 13a171.4 171.4 0 0 0-8.6 2.3c-1.5.4-2 .5-1.5.1zm-114-.1a59 59 0 0 1 1.9-6.8c.1-.7 1-1 1-.4l-1.4 4.5a22 22 0 0 0-.7 2c0 .5-.3.8-.5.8l-.4-.1zm-8.8-1.6c-.6-1-.7-1.7-.2-1.7.3 0 1.2 1.7 1.2 2.4 0 .5-.5.2-1-.7zm62.7 0c-.5-.8-.7-2.5-.3-2.5l.4.8c0 .5.4 1.2.7 1.6.6.9.6 1 .1 1-.2 0-.6-.4-1-.8zm-36.1.3c-.2-.5 0-3.9.3-4.6.4-1 .6-.1.4 2-.2 2.5-.4 3.4-.7 2.6zm152 .1 1-1.2 1.7-1.4c1-.8 2.9-2.2 3-2 .2 0-1.3 1.4-1.6 1.4-.2 0-1 .8-3.2 2.7-.8.8-1 .9-1 .5zm-76.2-.4-.7-.4h.8c.4.1.8.3.9.5.1.4-.2.4-1-.1zM81 13l.6-1.6a6 6 0 0 0 .7-2c0-.4.3-1 .7-1.3.5-.5.6-.6.6-.2 0 .3-.2 1-.6 1.6a24 24 0 0 0-1 2.4c-.4 1.3-1 2-1 1.1zm4-.2c-.1-.3.1-.8.5-.8.3 0 .3.8 0 1-.1 0-.3 0-.4-.2zm36.2-.2c-.2-.2-.3-.3-.2-.5.1 0 .3 0 .5.2.4.4.2.6-.3.3zM97.5 12c-.2-.8-.4-3.6-.2-4.3.3-1.3.6-.6.7 1.8 0 2.2-.2 3.4-.5 2.5zM69.3 9c-.1-3.1 0-3.6.3-3.6.2 0 .3 1.5.3 3.3 0 1.9-.1 3.3-.3 3.3-.1 0-.3-1.4-.3-3zm-24.8.8c0-1.4 0-1.8.4-1.8.3 0 .4.3.3 1.6 0 1-.2 1.7-.4 1.8-.3 0-.3-.4-.3-1.6zM92 11l.4-.7.4-.6-1-1c-.9-1-1.1-1.8-.6-2 .3-.2-.7-1.8-1.1-1.8l-.7 1.1c-.4.9-.6 1-.6.6 0-.3.1-.7.3-.8.3-.2 0-.6-.4-.6-.3 0-1.2 2.3-1.3 3.4 0 .4-.2.7-.4.7a3 3 0 0 0-1.3.6c-1.8 1.3-1.9.5 0-1.4.9-1 1.4-1.7 1.6-2.6l.4-1.4-.4-.2c-.2-.1-.3-.4-.3-.6 0-.2-.2-.5-.4-.6-.7-.2-.5-1.1.2-1.4.9-.3 1.2-.1 1.2.7 0 .4.2.6.4.6s.5.2.6.5c.2.2.7.4 1.3.5 1 0 1.4.4 1.4 1.4 0 .3.4 1.3.9 2.2.8 1.6 1 2.7.6 3.3-.2.4-1.2.5-1.2.1zM215.2 10l1.6-1.2c.2 0-.3.5-1 1.2l-1.6 1.2c-.2 0 .3-.6 1-1.2zM58.1 10c0-.2 0-1 .3-1.7a585.6 585.6 0 0 0 .8-2l-.2 1-.3 1.7c0 .9-.3 1.4-.6 1zm40.3-.4c-.2-.9 0-2.6.3-2.6.2 0 .3.7.3 1.6 0 1.6-.4 2.2-.6 1zm46.3-.1V9c.2-.3.3-.3.4 0v.5c-.2.2-.4.2-.4 0zm10.5-.1c.2-.2.4-.3.5-.2.1 0 0 .2-.3.3-.4.2-.4.1-.2-.1zm54.2-.3c1.2-.5 1.5-.6 1.5-.3s-1.6.9-2.2.8c-.2 0 .1-.2.7-.5zM51 9c-.2-.5.1-3.4.4-3.4.3 0 .3 3.4 0 3.6-.2 0-.3 0-.4-.2zM7.8 8.2c-.2-.4.3-1 .8-1 .6 0 .8.4.4.9-.4.4-1 .5-1.2 0zm209.7 0c0-.2.3-.5.6-.8.9-.6.7-.8-.4-.5a97.5 97.5 0 0 1-4 1.1c-1.6.5.4-.4 2.5-1 2.9-1 4.7-1.7 5.6-2.3.8-.6 1-.6 1-.1 0 .2-1.2 1.1-2.7 2-1.4 1-2.6 1.7-2.6 1.6zm-207-.4c-.3-.5 0-1.2.3-1.2.4 0 .7 1 .5 1.3-.3.4-.7.3-.9-.1zm30.8-.4c-.2-.1-.4-.7-.4-1.3L40.8 5h.7l.7.1v1.2c0 1.2-.2 1.5-.9 1.1zM14 7.2c-.3-.2-.3-1.5 0-2 .2-.8.8-.5.8.4 0 1-.5 2-.8 1.6zm28.9-1c-.4-1 0-1.5.6-1 .5.5.5 1.7 0 1.8-.2.1-.4-.2-.6-.7zm-33-.4c0-.1 0-.3.3-.5.4-.4.8 0 .5.5-.2.3-.6.3-.8 0zm1.9-.2c-.7-.6-.5-1.2.7-2.4 1.3-1.3 2-1.4 1.8-.2 0 1-.2 1.2-.8 1.2-.4 0-.6.2-.7.8-.2 1-.5 1.2-1 .6zm89 .1.4-2.2c.2-1.4.4-1.8.8-1.9.4 0 .4 0 .3.7l-.3 1.6-.5 1.6c-.3.6-.7.8-.7.2zm85.7-1.3c0-.6 1.6-1.2 3.3-1.4a69.4 69.4 0 0 1 5.1-.5 69 69 0 0 1 13.2-2c5.7-.6 6.6-.6 6.4-.2 0 .2-.7.4-1.7.5a289.5 289.5 0 0 0-22.3 3.3c-4 .7-4 .7-4 .3zm-92.1-.7V1l.8-.2c.5 0 .6 0 .5.4l-.5 1.4c-.3 1-.6 1.5-.8 1.1zm16.1-.7-.2-.7c0-.7 1-.5 1 .3.1.5-.4.8-.8.4z"/>
</svg>
