<?xml version="1.0" encoding="utf-8"?>
<svg xmlns="http://www.w3.org/2000/svg" xmlns:svg="http://www.w3.org/2000/svg" version="1.1" viewBox="0 0 144 61">
	<title>A ridged pie pan sits empty.</title>
	<path d="M74.9 60a3 3 0 0 0-1.2-.2 31 31 0 0 1-2.8-.3c-4.2-.6-4.2-.6-5.1-.1-1.6.7-3.5.6-12.2-.4l-2.4-.3-.7.1a4 4 0 0 1-1.6 0 120.8 120.8 0 0 0-4.3-.6c-.5-.3-4.9-1.8-8.2-2.7-1.8-.4-3.5-1-3.8-1.3-.4-.3-1-.5-1.3-.5-1 0-3.2-1.3-6.2-3.8a33.6 33.6 0 0 1-4.6-3.2L17 44.5l-1.4-1c-.3-.3-.7-.5-.9-.5-1 0-3.2-1.6-5-3.5A19.2 19.2 0 0 0 6.6 37a10.2 10.2 0 0 1-4.6-7.1 7 7 0 0 0-.7-2.7C.6 26 0 23.7 0 22c0-2.6 1.3-4.3 4.5-5.9l2-1.2c.2-.3.6-.5.7-.5 0 0 .6-.6 1-1.3.6-.7 1.4-1.4 1.8-1.6.7-.4 2.7-1.8 3-2.2a15.8 15.8 0 0 1 6.7-2.4c1-.3 2.4-.5 3-.5a3 3 0 0 0 2-.5c1.3-1 3.7-2 5.5-2 1 0 2.5-.3 3.5-.5 1.4-.4 2.5-.4 4.7-.3 2.5.2 3 .1 4.3-.4l3.2-1C51.7.5 51.2.6 55.3.9l6.3.6c.8.2 1.5.1 2.8-.3L67 .3a22.3 22.3 0 0 1 9.2.5c1.6.4 1.2.4 8.2-.3 3.3-.2 8.8 0 9.8.3l1.4.8c.4.3 1 .5 1.5.5a6 6 0 0 1 2 .4c.7.4 1.4.4 3.1.3h3l2.1.5c1.6 0 4.6 1.5 5.8 2.7.9 1 1 1 2 .6a12 12 0 0 1 6 0c.3.3 1 .6 1.4.7.5 0 1.8.6 3 1.2 2.6 1.2 3.5 2.1 3.5 3.7 0 1.1.5 1.4 2 1.1.5 0 1 0 1 .2l.7.2 1.4.8c.5.5 1 .8 1.1.8 1 .1 3 3 3.7 5 1.2 3.2.8 5.2-1.2 6.7-.8.6-1.5 1.4-1.8 2.1-.3.7-1.2 1.9-1.9 2.6l-3.5 3.5c-2.5 2.5-2.8 3.3-1.5 3.6.9.1.9.1.6.7 0 .3-.4.5-1 .5-.5 0-.6 0-.2.1 1.6.4.6.9-2 .9-.6 0-1.1.1-1.2.3-.1.2-.8.2-1.7.2-1.4-.1-1.5 0-1.5.6 0 .3-.1.8-.3 1-.7.7-.2 1 2 1 2 .2 2.2.3 1.6.5-.4.2-1.9.4-3.4.5-2.9.2-3.8.6-3 1.2.1.2.4.2.5.2.1-.1.5 0 .9.2.5.3.3.3-2 .4-1.8.1-2.7.3-3 .6-.4.4-.3.4.4.6.4 0 1 .3 1.4.4.7.2 4.8.1 7-.2 1-.1 1.2 0 1.2.3s-.3.4-2.2.4l-4.5.2c-1.3 0-3 0-3.8-.2-1.5-.3-2.5 0-2.5.7 0 .5 3.6.7 8.6.4a31 31 0 0 1 7.5-.2c-.2.3-2.9.7-7.6 1.1-5 .5-8.2.6-10 .3-.9-.2-1.1 0-2 .6-.8.6-.9.8-.6 1 .3.3.6.3 1 0 .9-.3 5.3-.6 7.2-.5l1.6.2-.9.4a9 9 0 0 1-2.6.4c-1.9 0-3.7.4-4.7 1-.3.3-1.4.5-2.4.6-1 0-2.2.3-2.8.6-.6.3-2.1.6-3.3.7a11 11 0 0 0-3.6.8c-1 .5-1.8.6-3.2.6-1.4 0-2 .2-2.7.6-1.7 1-3.3 1.3-9.4 1.3a56.8 56.8 0 0 0-7.6.2zm8.9-1.9c2.2.3 4 .2 5-.2l1.8-.9c.7-.3 1-.5 1-1 0-.8.7-2.2 1.8-3.8 1-1.3 1.4-1.5 2.1-1 .4.2.6 0 1.5-.6a5 5 0 0 1 1.1-.9c.1 0 1-.7 1.9-1.6.9-.8 1.8-1.5 2-1.5.2 0 .5-.3.6-.6.8-1.4 0-1.7-3.7-1.3l-4 .5c-.4.2-2.4.2-4.3 0H87c-.2 0-.5.5-.7 1l-.8 1.5-.9 1.8a29.6 29.6 0 0 1-2.5 5c-1.1 1.3-1.3 2-.7 3.2.2.5.4.6.6.5.2-.2 1-.2 1.9-.1zM86 54c-.1-.3 1.5-2.7 2-2.9.8-.3-.6 2.6-1.5 3L86 54zm2.8-.3c0-.6 2-2.6 2.4-2.6.5 0 .5 0 .2.6-.4.7-2 2.3-2.3 2.3a.3.3 0 0 1-.3-.3zm-27 3.7 1.9-.8c1.6-.6 2.6-1.7 2.6-2.7l-.4-2.6-.7-3.6c-.4-2-.9-2.6-2-2.3a51.7 51.7 0 0 1-12.4-.2c-2.6-.7-3.3-.6-4 .2l-.7.6-.5-.8c-.3-.5-.7-.8-1.4-1a57 57 0 0 0-8.4-.7c-4.5 0-6.7-.1-7.5-.4-1-.3-1.4-.3-2 0-1.2.4-1.7.2-3.6-1.6-1.2-1-2.8-2-6-3.6l-.7-.4.6-.5c.4-.3.8-.5 1.1-.4l1.5.4c1 .3 2.4 1.3 3.9 2.8.5.7 1.4 1.2 1.8 1.3l1.6.4c3 1 6.8 1.4 9.6 1l3.8-.4c2.6-.3 4.7-.3 5.4.1.3.2 2 .7 3.8 1 2.9.7 4 .8 7.6.8 3.9 0 4.3 0 6.2-.7 2.4-1 3.1-.8 5.7.4 1.8.9 2.2 1 5.3 1.1 4.3.3 7.2-.2 9.3-1.6 1.6-1 2.4-1 5.7-.1 1.7.4 3.2.8 3.3 1l1.5-.3c.7-.2 2-.4 2.9-.4 1.7 0 6-.9 7.6-1.6.6-.2 1.5-.8 2-1.4l1-1 2 .2c2.4.5 4.5.4 6 0l5.5-1.7c2-.5 3.3-1.8 3.3-3.2 0-.7.2-1 .8-1.4.8-.4 1.2-.5 2.7-.4 2.2.3 3.2-.2 5.1-2.2 1.4-1.4 1.6-1.8 1.8-3.8 0-.7.2-.9.8-1 1.6-.5 2.1-1 2.4-1.8.4-1.5-.7-4.1-2.7-6.3-1.4-1.6-2.3-2.1-3.8-2.4l-1-.1-.9 1.8c-1.2 2.6-5.3 7.8-6.1 7.8-.2 0-1.8 1.3-3.4 3a24 24 0 0 1-3.5 3c-1 0-.6-1 1-1.9 2.6-1.5 8.9-9 9.3-11 .3-1.3.9-2.4 1.3-2.4 1.1 0 0-2.4-2-4.3-1.3-1.2-1.7-1.4-5-2.7-2-.7-3.6-.7-4.3 0-.2.3-.6 1.3-.8 2.2-.3 1-.6 2-.9 2.3l-.3.9c0 .4-2.7 5.8-3.7 7.4-.8 1.2-1.7 1.7-2 1 0-.2.2-1 .6-1.8.8-1.5 1.6-3.8 2.3-7 .7-3.3 1-3.8 1.3-4 .3 0 .5.1.6.4l.5.8c.3.3.4.1.4-.8 0-1-.7-2-1.5-2a5 5 0 0 1-1.5-1c-.6-.5-1.3-1-1.6-1-.2 0-.5 0-.6-.2l-.6-.2a12 12 0 0 1-2.3-.5c-1.6-.5-2.3-.6-4.8-.5-1.6 0-3.1.2-3.5.3-.4.1-1-.2-2.6-1.2C93.2 2.1 92.3 2 87.2 2c-3.5 0-3.9 0-4.4.5-.5.6-.5.7-.3 1.6.4 1 .2 5.8-.2 7.5-.2.6-.5 2.5-.7 4.4-.7 5.4-.8 5.8-1 5.9-.7.2-1-1-.7-2.6a37.6 37.6 0 0 0 .7-5.5c.2-.7.1-.7-.2-.2-.3.3-.6.4-.9.3-.3-.1-.4-.6-.4-3.6 0-3.4.3-4.8 1-4.8.5 0 .7 1.2.5 3.4-.2 2-.2 2 .3 1.3.3-.6.4-1.5.4-3.7v-3h-1.5c-.9-.2-2.3-.5-3.2-1-1.3-.5-2.2-.6-4.8-.8-3.8-.2-5.9.1-8.2 1.2-1.8.9-2 .9-4.6 0-2-.7-5.5-1-8-.5a242.3 242.3 0 0 1-5.8 1c-.6.1-2 1-2.3 1.4-.3.3-1.4.7-2 .7a7 7 0 0 1-2.7-.8c-1-.4-5 0-9.6 1-.3 0-1 .5-1.6 1l-2 1.8-1 1 1.2.5c1 .5 1.3.8 1.7 1.8.2.7.6 1.5.9 1.8.3.3 1 1.4 1.5 2.4l1.1 2 1.8 2.5c1.4 2.2 2.2 3.8 2.2 4.6 0 .5-.8.3-1-.2-.3-1.1-1-2.3-2.6-4.6-.5-.6-1.4-2.1-2-3.3l-1.4-2.4c-.4-.4-.4-.3-.4.4 0 .5-.1.9-.3.9l-.2-.4c0-.2-.2-.4-.4-.5-.3-.1-.4-.4-.4-.6 0-.3-.3-.8-.6-1.2l-.5-1c0-.3 0-.6-.2-.7l-.5-1.2c-.2-1-.3-1.2-1.5-1.5a4 4 0 0 1-1.3-.6c-.3-.4-3.7.6-5.9 1.6-2 1-3.6 2.1-5.2 3.6l-.8.6 1 2c.8 1.3 1.7 2.5 3.6 4.4l2.6 2.8c0 .4-.4.4-1 0-.5-.2-.6-.1-.6.2 0 1-1 0-2.9-2.8a23.5 23.5 0 0 0-1.6-2.2l-.7-1.2c-.6-1-.7-1.1-1.5-1-2 .4-2.5.6-3.8 1.5a4.6 4.6 0 0 0-2 2.5 9 9 0 0 0-.7 2.8c0 1.3.9 3.4 2 4.6.8 1 1 2 .5 2.7-.4.7-.4.7 0 1.3 2.1 2.2 3.3 3.3 4 3.4 1.2.3 1.4.5 2 2.3.8 2.1 2 3.3 3.6 3.7.8.2 1.5.5 1.6.7l2.5 1.4c1.2.6 2.8 1.7 3.5 2.4.8.7 1.8 1.5 2.3 1.7l1.6 1 1.3.9a60 60 0 0 0 8.2 4.2c1 .8 2.9.6 2.9-.3 0-.2-.3-.4-1.1-.4-1.2 0-1.7-.3-2.2-1.6-.2-.5-.7-1.2-1.1-1.5-.7-.5-.7-.5-.1-.7.4-.1.8 0 1.3.5.3.3 1.3 1 2.1 1.4.8.3 1.8 1 2.1 1.4.9 1 4.2 3.2 4.7 3.2l1.2.4c1.6.9 5 1.2 6 .6a1 1 0 0 0 .2-1.5c-.2-.2-.5-.7-.6-1.2a7.1 7.1 0 0 0-1.9-3.4c-.8-.7-1.1-1.5-.8-2 .2-.2.5-.2 1.1.4l1.2 1.3a327.3 327.3 0 0 0 3.2 4.9c.4.6.8 1.3 1 1.4.7.7 3.8 1.2 5 .8.4 0 .9 0 1.3.2 1 .5 1 .5 1.6.2zm35-19.5c-.1-.2-.3-.5-.2-.6.2-.3.9 0 1 .4.2.6-.2.7-.7.2zM41 37.3c0-.4 1.3-1.3 2.1-1.5.4 0 1-.3 1-.5A339.2 339.2 0 0 0 51 33c3.3-1 6.4-1.5 12.4-2 5-.4 6.3-.4 11 0l6.3.6a23.8 23.8 0 0 1 6.3 1.3c.7.2 1.1.4 1.1.7 0 .3-.2.4-.9.2l-5.5-1.2c-1-.3-21.4-.4-23-.1l-2 .3a31 31 0 0 0-5.4 1.4c-.5.3-4.7 1.4-6.7 1.8-.5 0-1 .3-1.3.6-1.2 1-2.3 1.3-2.3.8zm6.6-.6c0-.5 1.5-1 2.7-1 .8 0 .8 0 .5.4-.6.5-3.2 1-3.2.6zm46.7-.3c-.5-.4-1-.7-1.3-.7-.5 0-1.5-.8-1.2-1 .3-.3 2.8.2 3.6.7 1 .5 1.1 1.6.3 1.6a4 4 0 0 1-1.4-.6zM16 32.8c-2-1.7-2.5-2.4-2-2.4.2 0 1.2 1 2.4 2 2.4 2.4 2.2 2.6-.4.4zm5.2-.4c-.3-.3-.3-.5.1-.8.5-.3.5-.3 0-1.1-.3-.5-1-1.2-1.6-1.7-.7-.5-1.2-1-1.2-1.2 0-.2.2-.3.4-.2.7.4 3.6 3.2 4 3.8.4.6.4.7-.1 1.1-.8.6-1.2.6-1.6 0zM7.6 30.6l-1-1.4c-.7-.9-1-2.2-.6-2.2s1 .9 1.3 1.6c0 .4.4 1 .8 1.3.3.3.6.8.6 1 0 .5-.7.4-1-.3zm4-2c-.3-.3-.5-.6-.4-.7.1-.1.4 0 .8.3.7.8.4 1-.4.4zm13.1-.2-.4-.5.9.3c.3 0 .5.3.5.5 0 .5 0 .5-1-.3zm-17.1-1A5.2 5.2 0 0 1 6.3 26c0-.2-.1-.5-.3-.7-.4-.4-1.8-2.8-1.8-3.1 0-.2.2-.2.4 0l.4.6c0 .2.4.7.8 1 .8.9 3.5 4.8 3.2 4.8l-1.4-1.2zm8.8.9c0-.2.1-.2.3-.1l.2.2c0 .1 0 .2-.2.2s-.3-.2-.3-.3zm-1.7-1.4c-.4-.4-.7-.8-.6-.9.1-.1.6.2 1 .7 1 1 .7 1-.4.2zm6.3-2a32.5 32.5 0 0 1-4.4-5.5c-.6-.6-1-1.2-1-1.3.3-.2 2.5 2.2 2.7 2.8.1.3 1.3 1.7 2.7 3 1.6 1.7 2.5 2.8 2.5 3 0 .3-.8-.2-2.5-2zM9.6 26.5c-.3-.3-.6-.8-.6-1 0-.4.1-.4.7.2.4.4.6.8.6 1-.1.3-.3.2-.7-.2zm20.8-1.2a29.5 29.5 0 0 1-2.2-3.3c-1-1.2 0-.5 1.2.9l1.9 2.3c.8 1 .9 1.2.3 1.2-.2 0-.7-.5-1.2-1.1zm61.6-.4c-.1-.2.2-1.4.6-2.7.9-2.3 2.6-9 3.2-12.3.5-2.8 1-4.3 1.6-4.5h.7c.3.3.1 2-.3 4a803.1 803.1 0 0 0-2 8.2l-1 3.6c-1.2 4-1.3 4.2-2 4.2-.4 0-.7-.2-.8-.5zm-80.1-.8L10 22A5.1 5.1 0 0 1 9 20.3a84.1 84.1 0 0 0 3 3c1 .9 1.2 1.5.7 1.5L12 24zm5.3.4c-.2-.3-.3-.5-.2-.6.2-.2 1 .2 1 .6 0 .5-.4.5-.8 0zm-9.9-1c-.7-.8-.9-1.5-.5-1.5a78.4 78.4 0 0 0 1.3 1.8c.6.8 0 .7-.8-.3zm16.3-1.7c-.3-.3-.7-.7-1-.7h-.5c-.3 0-1.6-1.4-2.5-2.7l-1.3-1.7c-.5-.5-.8-1-.8-1.3 0-.5 2.6 2.2 2.6 2.7 0 .3 1.7 2 2 2 .4 0 .3 0 0-.4l-.4-.7c0-.1-.3-.4-.7-.5-.4-.2-.6-.6-.6-.9 0-.3 0-1-.2-1.6l-.1-1 .6.9a96.6 96.6 0 0 0 4.2 6.4c0 .4-.8.1-1.3-.5zm24-.3c-.3-.5-1.3-4.6-1.3-5.4v-.9l-.3.9c-.4 1.4-1 .7-1.9-2.4a104.7 104.7 0 0 1-1.6-5.4c-1-1.9-.2-3.3 1-1.9.4.4.7.6.8.5.1-.2.3-.3.5-.3.4 0 1 1.4 1.6 4.6l.8 3.4c.5 2 1 5.1 1 6.1 0 .8-.4 1.3-.7.8zm-2-8.5c-.2-.3-.3 0-.1 1.1l.1 1.1.1-1V13zm-.4-1.6c-.1-.2-.2 0-.2.4s0 .6.2.4v-.8zM44 8c0-.2-.1-.2-.2.1 0 .3 0 .5.2.4v-.5zm-8.4 12.7c-.5-.4-2.4-3.8-2.4-4.2 0-.7.7 0 1.4 1.3.3.7.9 1.5 1.1 1.8.6.7.5 1.6-.1 1zm-10.2-2.3a5 5 0 0 1-.6-1.2l-.7-1c-.8-1.2-1-2-.6-2s1.5 1.7 1.5 2.4c0 .5 1.2 1.5 1.7 1.5s.6.5.1 1-.6.4-1.4-.7zm12 0a26 26 0 0 0-.9-1.9c-.5-1.1-.7-1.8-.6-2.6 0-.5 1 .4 1 1 0 .1.3.9.7 1.5.9 1.8 1 2.7.5 2.7-.2 0-.5-.3-.7-.7zm16.5.1a62 62 0 0 0-1.1-6.3c-.3-1.4-.1-2.3.4-2.3s.6.4 1 3.4c.1 1.4.4 3 .6 3.7l.4 1.6c0 .8-1 .7-1.3 0zm9.1-.5c-.3-.4-.4-1.2-.4-2.4 0-1.6 0-1.8-.3-1.2-.9 1.8-1.5 1-1.8-2.3l-.4-4.2c-.2-1.4 0-2 .7-2 .3 0 1 2.2 1 3.2 0 .5.2 0 .3-1.3.2-2 .5-3 1-2.6.1.2.7 6.5.9 10.7.1 2.5-.2 3.2-1 2.1zm-.7-5.5a8 8 0 0 0-.2-1.8c-.2-.5-.2-.2-.3 1.1 0 1 .1 1.8.3 1.8.1 0 .2-.5.2-1.1zm-47.8 4.5c-.2-.2-.3-.5-.3-.7 0-.4 0-.4.4 0 .3.2.4.5.3.7 0 .2-.1.2-.4 0zM50 15.3l-.7-2.6c-.4-1.3-.5-2.4 0-2.4.4 0 1.1 2.2 1.7 5.5 0 .7 0 .9-.3.9-.2 0-.5-.5-.7-1.4zm28.2 41.9c.7-.5 1-1 1.6-2.8.5-1.8.9-2.4 1.8-3.4.7-.6 1.2-1.2 1.2-1.4l.8-1.1c.6-.6.8-1.2.8-1.8 0-1.1-.4-1.3-2.4-1a25 25 0 0 1-10.2.7c-4.5-1.3-5.6-1.3-6.2 0-.3.6-.2.7.4 1.2.4.3.9 1 1.1 1.4.6 1 1.1 3.7 1.2 5.1 0 2 2 3 5.6 3 1 0 2.1.2 2.4.3.8.3 1 .3 2-.2zm16.1-.9v-.7c-.2-.7-1.1-.8-1.3-.2-.3.8.9 1.6 1.3 1zm6.1-1.5c1.4-.6 2.3-1 2.8-1.6.5-.6.9-.8 1.6-.8 1 0 1.6-.4 1.6-1.2 0-.5 0-.5 1-.5 1 .1 1.1 0 3-2 2.3-2.4 3.1-3.2 3.3-3.2.1 0 .6-.7 1-1.5.8-1.4 1.1-1.6 2-1.2.4.3.6.2 1.2-.4.5-.4 1-1 1.1-1.4l.4-.6-1.3.2-2.4.3c-1.3.1-2.2.5-2.2 1 0 .2-1 1.7-1.3 2l-.6 1c-.2.4-.7 1-1 1.2-.5.5-.5.5-.5 0 0-.4.3-1 .8-1.5l.8-1c0-.2.1-.5.4-.8.5-.5.2-1.5-.4-1.5-.6 0-1.8 1.2-2 2-.2.6-1.7 2.2-1.7 1.7l.4-1 .7-1.3c.3-1-.6-.8-1.8.3-.5.5-1 1-1.2 1a28.6 28.6 0 0 1-6.8 8c-.7.2-1.2.6-1.4 1-.1.4-.4.8-.6.9-1 .3-.7 1.7.4 1.7l2.7-.8zm3.3-4.4c0-.2.3-.7.7-1.1.5-.7.6-.7.8-.3.2.5-.2 1.1-1 1.6-.4.1-.5.1-.5-.2zm3.6-4.8.3-.4v.4c0 .2 0 .4-.2.4-.1 0-.2-.2 0-.4zm20.2-5.8c0-.4-.7-.6-1.2-.4-.3 0-.3.1 0 .4.3.5 1 .4 1.2 0zm.3-4c0-.7-.7-1-1.1-.5-.3.3-.4.7-.3 2.1 0 .5 1.4-1 1.4-1.6zM26.4 12.6c-.5-.6-.5-.6-.5 0 0 .3.2.6.4.7.5.2.5 0 0-.7zm54.2-1c0-.4-.1-.2-.1.4 0 .6 0 .9.1.6v-1zm37.9 41.1h.5c0 .1 0 .2-.4.2-.3 0-.3 0-.1-.2zm1.7 0h1.4c.4 0 .1.1-.7.1h-.7zm6.5-4c0-.3 1.3-.5 2-.3.5 0 .5.1 0 .3-.7.3-2 .3-2 0zm3.9-.3c0-.1.2-.3.4-.3l.2.3c0 .2-.2.3-.4.3s-.3-.1-.2-.3zm.9-.1c0-.3.3-.4 1.3-.4 1.8 0 1.7.6 0 .7-1 0-1.3 0-1.3-.3zm-9-1.7c0-.2.7-.3 1.5-.3.9 0 1.4 0 1.3.3l-1.5.2c-.7 0-1.3-.1-1.3-.2zm3.8-.3c.4-.2.8-.2 1.2 0 .3.2.2.2-.8.2s-1.1 0-.4-.2zm11.2-1.8c-4.2-.2-4.2-.7 0-1 1.6 0 3.5-.2 4.4-.3 1.3-.1 1.5 0 1.7.3.2.7-.6 1.2-1.8 1.2l-4.3-.2zm-8.2-.2h1-1zm-4.7-2.1c0-.5 1.6-.5 3.9-.2l1.3.2-1 .2-2.7.2c-1.1 0-1.5-.1-1.5-.4zm7.4.1c-.6 0-1.1-.2-1-.2a12 12 0 0 1 3.8 0c.8.2.8.2.1.2l-1.2.1H132zm6.4 0c-.6-.1-.6-.2.6-.5 1-.3 1.3-.3 1.6 0 .2.2.4.4.3.6-.2.2-1.6.2-2.5 0zm-8-1.4c-.7-.5-.6-.5 1.2-.5l3.7-.3c2-.2 2.3-.2 2.3.2s-.8.6-4.5.8c-1.7.1-2.4 0-2.8-.2z"/>
</svg>
