<?xml version="1.0" encoding="utf-8"?>
<svg xmlns="http://www.w3.org/2000/svg" xmlns:svg="http://www.w3.org/2000/svg" version="1.1" viewBox="0 0 187 137">
	<title>Tommy Brock sits up in bed and looks at clothes line heading out of the window.</title>
	<path d="M108.7 136.6c0-.1-3.7-.3-8-.3a331 331 0 0 1-13.4-.4 127.3 127.3 0 0 0-17.4 0h-4.4l-9.8-.3c-12.9-.4-18.1-.5-21.5-.2-6 .4-17 .3-25-.3-5-.4-5.2-.5-6-1.2a4.7 4.7 0 0 1-1.4-1.8c-.5-1.4-.8-3.3-.5-3.3.2 0 .2-1 .2-2.6-.2-2.9-.2-2.7 0-9L1 105C1 100.6 1 95.8 1 92.8c.3-8.8.2-15.9-.1-18.5-.3-2-.4-8.6-.5-32.8A1938 1938 0 0 0 0 3c.1-.2.9-.5 1.7-.8 1.4-.5 2.6-.6 12.3-.8a457.2 457.2 0 0 1 25 0c.3 0 1.5 0 2.6-.2C43 1 52.7.9 73.9.9c36-.2 33.4-.2 43.1 0H131l19.4-.3c7.4 0 16.3-.3 19.9-.4 7-.4 12.4-.2 13.8.4 1.8.7 1.8.7 1.7 10.2a4413.7 4413.7 0 0 0 .2 114.7l-.6 6.3a13 13 0 0 1-.6 3.4c-.2.2-2 .3-5.5.4-2.9 0-8.8 0-13.1.2a247.4 247.4 0 0 1-32.2-.3c0 .2-1.4.3-6 .4a271.2 271.2 0 0 0-19.2.7zm52.6-2.8c6.6-.2 17.4-.9 19.6-1.2a3 3 0 0 0 1.5-.8l.6-.7v-7.6c.1-4.4 0-8.4-.1-9.7a252.7 252.7 0 0 1 .1-33.4c.3-15 .4-23 .6-24.3 0-1 0-1.4-.3-1.7-.4-.4-.4-1.2-.4-4.7v-4.2l-1.8-.2-2.7-.4-3-.3h-2.2l-.2 1.2a49 49 0 0 0-.3 3.7c0 2.2-.2 2.4-.6 2.4-.5 0-.6.2-.7 1.7-.1 2 0 4 .2 5 .4 1.1.7.6.7-1.1 0-2.6.8-2.6 1.2 0 0 .7.3 1.4.5 1.5l2.8.2c3.6 0 5.6.6 4.8 1.3-.2.2-.6.2-1.3 0-.6-.1-2.7-.4-4.6-.5-3.3-.2-4.5 0-4.5.5 0 .3 3.5.8 5.2.8 1.5 0 4.8.5 5.7 1 .3 0 .5.4.5.7 0 .8-.5.9-2.3.6l-5.6-.2c-4.5 0-4.8 0-6.3-1.4-.4-.4-1.4-.6-3.7-.9a45.4 45.4 0 0 1-5.7-.9c-1 0-2.8-.9-3.1-1.5-.3-.6-.2-9.9.1-10.4.2-.3-.6-1.3-1.1-1.3-.4 0-.4 1.9 0 10 0 .5-.1.8-.4.8-.4.1-.5-.2-.5-3.2 0-2.6 0-3.1-.3-2.7-.3.5-.6 7.2-.3 7.6.1.2.3.1.4 0 .3-.6.7.1.7 1.4 0 .8 0 1-.5 1.1-1.3.4 0 .8 3.8 1.3 4.2.6 5.3 1 5 1.6 0 .2.3.4 1.7.5a273.8 273.8 0 0 1 10.3 1.2c1.4.1 1.6.2 1.7.8.1.9-.3 1.2-1.2.7-1-.5-2.6-.7-13.6-1.9L151.4 65c-3.2-.5-8.9-1-11-1-3.3 0-6-.8-5.6-1.5.2-.4 5.3.4 5.5.8.1.1.4.1.8 0 .5-.3 1.6-.2 4.3.2a340.3 340.3 0 0 0 15 1.2c-.6-.2-4.8-.7-12.3-1.5-3.9-.4-5.3-.8-4.9-1.2l4.5.2c2.3.3 4.4.4 4.5.2l.5-5.9.4-8.3.2-2.6-.8-1.2c-.5-.6-1-1-1.4-1-.3 0-.5-.3-.5-.5 0-.5-.2-.5-.7 0a51.8 51.8 0 0 0-13.9.3l-1 .6c-.3.2-.7 7-.6 9.5l.1 2.8.8.3c.5.2 2 .3 3.3.4 2.7 0 4.3.4 4.5 1 .1.3 0 .4-.6.2-.4-.1-2.3-.3-4-.3-4 0-4.8-.2-5-1.1-.2-.7 0-6.5.3-11.4l.2-2.4h-.7c-.5 0-.7-.2-.7-.4 0-.3.5-.4 3-.4 2.8 0 3.7-.2 1.6-.4-.8 0-2.5-.7-3-1l-.3-4.3c-.2-4.3-.6-6-1.1-5.9-.4.2-.5 1.1-.4 13.4v16.3l.8.2c.6.1.9 0 1-.2.3-.3.7-.3 2.5 0l3.5.4c1 0 1.4.1 1.5.4.3.8-.1 1-1.9.8-2.5-.3-4.8-.2-5.2.2a9 9 0 0 1-2.9.4 45 45 0 0 0-4 .3c-1 .2-2.2.2-2.7.2-.6-.1-3.7 0-7.1.2l-6 .3v3.4c0 2 0 6 .2 9 .3 3.8.3 5.8.1 6.8-.2 1.3-.3 6.4-.2 12.8.1 3 .5 3.7 2.4 4.7l4.7 2.3c1.8 1 5 2.3 7 3.1a128.6 128.6 0 0 1 20.1 9c1.5.9 4.2 2.3 6.1 3.1l5.5 2.7c1.2.7 3.4 1.7 5 2.4 3 1.4 3.8 1.9 3.5 2.6-.2.6-2.4.6-2.6 0 0-.4-.9-.9-1.8-1.3a212.9 212.9 0 0 1-13.9-6.8c-.2 0-.3.2-.4.4-.1.3-.7.4-2.9.4-3.6 0-14.5-1-14.8-1.3-.6-.6 1-.6 7.6-.2l8.5.5h1.5l-1-.7-5.2-2.7-5.5-2.7c-1.7-.9-5.7-2.5-9.8-4-1.6-.5-4.2-1.7-6-2.5-3-1.5-4-1.7-3.7-.7l.4 2.2c.2 1.2.6 2 1.4 3.2 1.5 2.2 1.3 3.2-.7 4l-2.1 1.3c-.7.5-1.7 1-2.2 1.1-1.2.3-1.4.5-1.3 1.7.3 2.3.3 6.8 0 7.2-.3.3-.3.5-.1.6.1.1.3 1.4.3 3s0 3.4.2 4l.1 1.2h9.7c10 0 25.9.5 26.1.8.3.2 4.6.2 13.2-.1zm-4.8-2.3c-.6 0-.9-.3-.9-.5 0-.3.9-.4 5.4-.4 5.2 0 6.3.2 5.9.8-.2.3-8.1.3-10.4 0zm4.6-1.8s-3.4-.2-7.4-.2c-7.3 0-8.2-.2-7.7-1 .1-.3 1.9-.3 8-.1 8.9.2 10.5.3 10.5.9 0 .3-.4.4-1.6.5l-1.8-.1zm-12.8-2.5c-4.2-.1-5-.2-5.3-.6-.5-.5-.2-.5 8.9-.3 9.7.1 11.1.2 11.1.6 0 .2-.4.3-.8.3h-14zm30.2-1.5c-.2-.3 0-12.6.1-13.3l.3.1c.3.3 1 6 1.2 9.5 0 2 0 2.3-.4 2.6l-.4.8c0 .7-.6 1-.8.3zm.7-6c-.3-.5-.3-.5-.2.3l.2 2.7v1.7l.2-2c0-1 0-2.3-.2-2.6zm-26.5 5-10-.3c-9.4-.1-10.9-.2-11.3-1-.1-.1-.7-.2-1.4-.1-1 0-1.2 0-1.2-.5 0-.4.1-.4 2.2-.4 5.5.2 6.6.2 7 .5.1.2 3.5.3 8.2.5 8.6.2 9.5.3 9.6 1 .1.3-.1.4-1.5.4l-1.6-.1zm-10-2.2c-.3-.1-.6-.3-.5-.5 0-.3 10.6-.3 11.4 0 .2 0 .4.3.3.4a71 71 0 0 1-11.2 0zm31.7-1.2v-2c.2-.7.2-3.5.1-6.6a19 19 0 0 1 0-5.4c.2 0 .4.5.5 1 .3 1.6.5 12.1.4 12.9-.3.9-.7.9-1 0zm-36.7-.8c-2.1 0-4-.1-4-.2v-.4c0-.4.7-.4 8.2-.3 4.6 0 8.5.2 8.8.3.2.1.4.3.3.5 0 .3-6.7.4-13.3.1zm33.7-1.5c-.4-.5-.3-15.6 0-15.6.2 0 .3.8.3 2 0 1 .2 2 .3 2.1.2.2.2.5 0 1a19 19 0 0 0-.2 5.6c.2 4.6 0 5.7-.4 5zm-37.2-4.3c.1-.2 1-.4 2.6-.4 2 0 2.4 0 2.4.3s-.4.4-2.5.4c-2 0-2.5 0-2.5-.3zm-4.1-2c-.4-.6.1-.8 2.1-.7 2.9 0 3 0 2.6.3-.4.4-4.5.7-4.7.4zm47.9-.9v-.7A126.5 126.5 0 0 0 178 95c-.2-.4-.2-.7 0-.9.6-.5 1 .4 1.2 2.6a141 141 0 0 1-.6 14.5c-.1 1-.4 1.3-.7.7zm-50-.7s-.1-.2 0-.4c.2-.3 3.8-.2 3.8 0s-.4.4-.9.4a36.7 36.7 0 0 0-3 0zm28-3a55.3 55.3 0 0 1 0-18.7c.3 0 .3.8.2 4.4 0 2.4 0 6.6.2 9.3.3 4.7.2 5.8-.5 5zm4 .1c-.3-.2-.2-2.9.2-8.5.5-5.8.7-7 1.2-7.1.3-.1.3.3.2 2.5-.2 1.4-.4 5-.5 7.9-.3 4.9-.5 5.8-1 5.2zm-8.4-10.4c-.2-9.9 0-13 .6-13a233 233 0 0 1 .4 21.4l-.5.3c-.3 0-.4-1.9-.5-8.7zm21.9 6.7c-.3-2.3-.4-5-.5-7.5 0-3.3 0-3.4.4-3.4s.6 3 .8 10.8c0 1.6-.5 1.7-.7.1zm-15.6-2-.2-5.3c0-2.4.5-7 .7-7.3.5-.4.5.8.2 3.4-.3 2.1-.3 4.4-.2 7.5.1 5-.2 6.3-.5 1.7zm10 2.7c-.2-.6 0-12.6.3-13.4.2-.9.8-.6.7.4l-.2 6.8c-.1 5.6-.4 7.3-.8 6.2zm-4.2-.5c-.2-.2.5-9.1.9-11.7.2-1.7.7-2.5 1-1.8a91.8 91.8 0 0 0-1.2 11c-.1 2.3-.3 3.1-.7 2.5zm-28.8-1.7c-.7-5.3-1-9-1-12.1.1-2.2.2-3.7.4-3.7s.4 1.3.5 3l.9 12.3c.1 1.4 0 1.7-.3 1.7s-.4-.4-.5-1.2zm13.2.3c-.3-1.6-.3-18.6 0-18.7.4-.2.6 2.6.7 11.2 0 6.2 0 8.2-.3 8.3-.1 0-.3-.3-.4-.8zm-15.9-1-.3-5.1-.3-8.8c-.2-4.2-.1-5.3.4-4.7.3.3 1 10.8 1 15.6 0 2.6-.1 3.7-.3 3.7-.2.1-.4-.2-.5-.7zm-10.4-1.1a41 41 0 0 1-.4-5.2c-.6-15.4-.7-19-.9-20-.1-.7 0-1 .3-1 .2 0 .5.4.6.8l.2 1.2c0 .3.3 4.4.4 9a479.7 479.7 0 0 0 .6 15c-.1.6-.5.7-.8.2zm6.9-3.1c-.3-.7-.9-10.7-.9-14.9 0-2.3.3-3.3.7-2.6.2.3.3 1.8.7 10.7.2 5 .2 6.9 0 7.1-.2.2-.4.1-.5-.3zm-3.4 0a318.3 318.3 0 0 1-1.2-20.5c.2-.1.4-.1.7.1.3.3.4 1 .4 2.8l.4 8c.5 8 .5 10.8-.3 9.6zm16.8-4c0-3.4.4-9.7.7-11.6 0-.4.3-.8.4-.8.2 0 .2.9.1 3a276 276 0 0 0-.4 7.8c0 3.6-.2 5-.5 5-.2 0-.3-.7-.3-3.4zM118 96.3a244.2 244.2 0 0 1 0-20.6c.4.1.6 2.5.6 10l.2 7.7c.3 2-.2 3.8-.8 2.9zm21.4-7.7c0-3.8.2-7 .3-7.2.4-.7.7.4.5 2.7l-.4 9.8c0 1 0 1.5-.3 1.5a25 25 0 0 1-.1-6.8zm5.7.6c0-4.2.1-5.4.4-5.3.2 0 .3 1.4.4 5.4 0 4.6 0 5.3-.4 5.3-.3 0-.4-.7-.4-5.4zm-8.6 2.4c-.2-3 .2-9.7.6-9.6l.2.7-.1 6c0 3-.2 5.4-.3 5.4-.1 0-.3-1.1-.4-2.5zM114 81.8l.3-9.9c.5-.5.7 1.7.6 9.2 0 9 0 10.1-.7 10.3-.3.1-.3-1.5-.2-9.6zm58.4 6.1c-1-.7-7.3-2.5-10.6-3l-3.2-.7c-.6-.2-2.7-.7-4.6-1-4.6-1-4.5-1-4.1-1.4.2-.3.2-.4 0-.5l-1.9-.5-13-4-7.9-2.2c-2.8-.6-3.7-1-3.4-1.2.4-.5 9 1.8 18.8 4.8a259.8 259.8 0 0 0 17.6 5.2l2.8.8c3.1.7 11.3 3.1 11.8 3.4.2.2.3.5.2.7-.3.5-1.6.3-2.5-.4zm-38.1-3.2c0-.9 0-1.8-.2-2-.1-.5.4-1.2.7-.9.3.3 0 4.6-.3 4.6-.1 0-.2-.7-.2-1.7zm39.5 1.5a54.7 54.7 0 0 1-59.5-17.6c-1.1-.6.4-.6 2.7 0a216.3 216.3 0 0 0 11 2.8l3.2.7a270.4 270.4 0 0 1 31.4 9l4.4 1.2c1.6.4 6.9 2.1 8 2.6.4.2.6.4.5.8 0 .6-.4.7-1.7.5zM147.5 61a14 14 0 0 0-2.2-.2c-.6 0-1.4-.2-1.8-.5-.5-.4-1.7-.7-4.3-1a44 44 0 0 1-3.6-.5c-.1 0 .9-.3 3.2-.5 1.1-.2 1.4-.1 1.5.2.2.3.7.4 3 .5 3.5 0 5.9.3 5.7.6l-1 .2h-.8c.1.2 1 .4 2 .4 1.4.2 1.8.3 1.9.6 0 .4-.1.5-1.2.5l-2.4-.3zm.9-2.8c-.9-.3-1.5-.6-1.5-.7 0-.2.8-.3 1.6-.3s1.6 0 1.7-.2c.4-.4.8-4.5.8-8.4 0-3 0-4 .3-4.2.3 0 .3.6.3 2.6 0 1.5.1 3 .3 3.2.4.7-.6 7.9-1.2 8.3-.3.2-.5.2-2.3-.3zm-3.9 0c-.8-.2-1-1-.2-1 1.7.1 1.8.1 1.8.7 0 .5-.4.6-1.6.3zm-4.1-3.2a58 58 0 0 1 .1-10.2c.4-.3.4-.3.4 2.6l.3 5.1c.2 2.4.1 2.7-.2 2.7-.3 0-.5 0-.6-.2zM94 131.7l.4-3.3c.3-1.3.4-4.6.6-11.1.3-12 .5-16.3 1-21.3 1-11.8 1.1-17.2.3-17.9-.4-.2-.4-.8-.4-3.8v-1.7c-.2 1-.3 4.7-.3 8.3 0 9.1-.5 15.6-1 16.2-.6.6-.8 5.7-.9 20.3a532.8 532.8 0 0 1 0 16c.1 0 .3-.8.3-1.7zm15.7 1.3c.3-.4.4-.7.3-1.7a804 804 0 0 0-.4-16.2l.2-7c.2-4.2.2-8.2 0-12.5l-.2-15.4-.2-12-.3-2.8V68l-.7 37.5c-.3 14.5-.5 27.3-.3 27.7.2.6 1 .6 1.6 0zm-9.2-.7c0-1-.7-1.2-.7-.3 0 .7.2 1 .6 1 .1 0 .2-.3.1-.7zm-9.2-1 .4-5c.2-2 .4-6.8.5-10.6.3-10.9.8-21.1 1.2-22.6 0-.4.3-.8.5-1 .4-.3.4-1.2.7-12.2l-.1-4c-.2 0-.3 0-.3.2 0 .4-.4.3-.6 0 0-.3 0-1.8.3-3.5.3-2.2.4-5.6.4-13 0-5.5.2-10.9.3-11.8.2-1.8.2-1.8-.4-2-.6-.3-.7-.2-.8.4-.2.4-.2 4.6-.2 9.3a945.7 945.7 0 0 1-.6 38.7L92 94c-.3-.2-.4-.6-.2-2.2.2-1 .3-11 .3-22 0-18 0-23.9.4-26 .1-.4.4-.8.7-.8.5-.2.6-.3.4-8.7-.1-6.9-.2-8.6-.5-8.8-.3-.2-.4-1.6-.6-6L92 5.8c-.1-.3-1.1-.4-1.9-.2a489.8 489.8 0 0 0 .4 39.8c.3.6.5 25.7.2 26.2a217 217 0 0 0 .3 26.6l-.2 5.8a213 213 0 0 0-.4 27.6c.6 1.4 1 1.2 1-.4zM91 36.5 91 17.8c-.2-8.7-.1-10 .2-10 .6 0 .7 4.1 1 22.2v15.4h-.5c-.5 0-.6 0-.6-8.8zm6.7 92.7c.2-2 .3-9 .3-17 0-8.9.2-14.9.4-16.7 1-10 1.4-18.5.8-19.2-.2-.2-.3-2.9-.4-10 0-5.3-.2-10.9-.3-12.2-.2-1.4-.3-6.1-.3-10.5 0-7.8 0-8-.5-8.1-.6-.2-.6 0-.6 4 0 4.8 0 5.4.4 5.6a195 195 0 0 0 .5 25.3c-.1 11.5-.4 24-.6 24.5a348.4 348.4 0 0 0-1.2 29.6c-.2 2.8-.2 3.1.2 3.1.6 0 .8 1 .6 2.3-.1.8 0 2.9.3 2.7l.4-3.4zm-12-10.4a436.1 436.1 0 0 1 0-16.6c-.2.2-.3 1.2-.4 3.4a121.8 121.8 0 0 0-.8 24.3c.2 2 .3 2.2.8 2.2.4 0 .5-.5.5-13.3zm21.6 10 .4-22.5.4-27.4c.7-32 .9-73.9.4-74.2-.1 0-.4.1-.6.5-.8 1.2-1.3 13.4-.9 21.5.2 3.5.2 8.5 0 15.9a1220.6 1220.6 0 0 0-.4 40V93c-.2 2.2-.1 4 0 5.2.4 1.8.4 2 .4 6.2v3.7c0 1.6-.3 8.7-.6 11.2-.1 1.3-.2 2.7 0 3.3v1c-.1.3-.2 8 0 8.4.3.9.7-.6.9-3zm-58.2-5-.1-8c-.2 0-.3 0-.4.2-.2.5-.4 15.1-.2 15.5.4 1 .5-.8.7-7.8zm24.4 7.7c.2-.2.4-13.1.3-13.8-.2-.6-.4-.7-1-.6h-.7V132l.7-.2.7-.2zm-34.3-3c0-1.5-.1-2.7-.2-2.7-.3 0-.6 5.2-.4 5.6h.3c.2 0 .3-1.4.3-2.9zm1.8 2.9c0-.2-.1-.6-.4-1-.3-.7-.3-.7-.3-.2l.1 1c.2.4.6.5.6.2zm3-1.2c.3-1.3.1-14.7-.1-15h-.5c-.3.2-.4 1.7-.3 7.3v8.1c0 1.4.7 1.2 1-.4zm23.2-4.7c.4-6.7.3-8.6-.5-8.8-1.2-.3-1.3 0-1.2 2.5a286.7 286.7 0 0 1 .5 12.1c.1.2.4.3.5.3.3 0 .5-1.6.7-6zm9.9 5.4-.1-4.6c0-2.3 0-5.2-.2-6.5-.2-2.2-.2-2.4-.8-2.5-.5 0-.6 0-.6 2.2v11c0 .1.3.3.6.3s.5.2.5.4.1.4.3.3c.2 0 .3-.3.3-.6zm-56.9-3-.3-6.2c-.2-1.4-.2-3.7-.1-5.1.1-1.8 0-2.5-.1-2.5-.3 0-.4.8-.4 2.3a1259.4 1259.4 0 0 1-.2 13.3c0 1.3.1 1.6.7 1.6.4 0 .5-.3.4-3.5zm3.5 2.3c.3-1.6 0-2.8-.6-2.8-.4 0-.5-.4-.7-2.6l-.1-6.8c0-3.8-.2-4.9-.7-3.7-.3.7-.1 15 .2 16 .2.9.3 1 1 1s.8 0 1-1.1zm2.6-.2c.1-.7 0-2-.1-3.3a85 85 0 0 1-.4-7.3l-.1-5.1h-1.5v2.5c0 3.7.4 9.5.7 10.6a8 8 0 0 1 .1 2.5c-.2 1.4-.1 1.5.5 1.4.5-.1.6-.3.8-1.3zm2.2.5c.5-2 0-16.1-.6-15.8-.2 0-.4 15.9-.1 16.4.2.5.5.2.7-.6zm3.2-1.8-.3-3.3-.3-5.8c-.1-3.5-.3-5-.5-4.9-.5.2-.6 3-.6 10v6.6h1.9l-.2-2.6zm2.5 2 .1-6c.2-6.3 0-9.7-.6-10-.2 0-.5 0-.6.2-.3.4-.1 15.8.2 16.2.2.5.9.2.9-.4zm25-.1c-.3-.3-.5.1-.3.5.2.3.3.3.3 0v-.5zm-41.5-5.8c-.1-10-.2-11.2-.6-11.2-.4 0-.4.3-.3 2 .5 6 .5 7.4 0 8.7a9 9 0 0 0-.2 4c.1 2.5.2 2.8.7 2.8.5 0 .5-.2.4-6.3zm35.2 5.7c0-.2 0-.3-.2-.2-.2 0-.4.3-.5.5 0 .2 0 .3.2.2.2 0 .4-.3.5-.5zm-37.7-5.8c.3-7 0-10.8-.6-10.8-.1 0-.2.9-.1 2 0 1.1 0 3.8-.2 6-.3 4-.3 8.3 0 8.7l.4.2c.3 0 .4-1.4.5-6zm21 5.5c0-.2-.2-.1-.2.2 0 .3 0 .4.2.3v-.5zm19.6-6V117c-.3-1.3-1-1.3-1.2 0-.2 1 .1 12.3.4 13.2.4 1.5.6-.2.8-6zm-43-2.3c0-4.5-.2-8.3-.2-8.4-.1 0-.3-.1-.4 0-.2 0-.3 2.7-.2 7.5 0 6.5 0 7.3-.4 7.4-.3 0-.4-.3-.6-2-.4-5.1-.7-8.6-.9-8.4-.2.2 0 9.9.2 11 .2.9.9 1.3 2 1.2.6 0 .6-.2.5-8.3zm50 1.6c0-5.6 0-6.8-.3-7-.3 0-.3 1-.2 6.7.2 5.8.3 7 .5 7v-6.7zm7.7 3.5c.2-2.2.1-2.9-.1-2.6-.4.3-.6 3.4-.4 4.7.1.5.2 1 .3.9l.2-3zm9.3 2.3c.2-.7 0-11-.3-11.2-.3-.3-.4.5-.5 6-.2 5.4-.2 5.9.2 5.9.3 0 .5-.3.6-.7zm-28.3-6c-.1-6.6-.6-8.6-.7-3 0 4.6 0 9 .2 9.3.4.6.5-1.4.5-6.2zM9 129c0-.3-.1-.4-.4-.3l-.5.2c-.1 0 0 0 0 .2.3.5 1 .3 1-.1zm50.5-5.2c.3-6 .2-7.2-.6-7.2-.4 0-.5.1-.5.9l.2 6c.2 5 .3 6.1.6 5.9l.3-5.6zM37 128.4c.3-.8.2-13 0-13.3l-.4.1c-.2 1.2-.6 12.7-.4 13.2.2.5.6.5.8 0zm-29.5-6.1c0-4.5 0-6.2-.3-6-.2 0-.2 1.9-.1 6 .1 6.6.1 6.2.3 6.2l.1-6.2zm92.6 2a505.2 505.2 0 0 0 .4-18.6c.1-9.6.3-16.2.5-19.3.3-3.2.5-9.6.5-20.7.2-17.4.1-20.1-.4-20-.2.1-.3 2.8-.2 10.5.2 14 .2 12.9 0 20.3a145.3 145.3 0 0 1-1 14.3l-.3 6.8a85 85 0 0 0-.1 12.7 468.3 468.3 0 0 1 .3 17.6c.2.4.3-.4.3-3.5zm-53.2-3.8c0-2.4 0-4.4-.2-4.4-.3 0-.6 9.5-.4 10.6.2.9.2.9.4-.4l.2-5.8zm55.3 1.1c.2-8.4.2-24 0-23.8-.3.3-.4 3.2-.5 19.5 0 5.4 0 8.9.1 8.5l.4-4.2zm-62.8.4c.2-4.7.2-6.7 0-6a57 57 0 0 0-.4 9.6c.1 0 .3-1.6.4-3.6zm30 .3c-.1-.2-.2 0-.2.5 0 .7 0 .8.3.3.2-.3.2-.5 0-.8zm18-3.6a109.4 109.4 0 0 1 1.3-13.9c0-.4 0-1 .3-1.5.6-1.3.9-42.5.3-61.7A2433.2 2433.2 0 0 1 88.3 6c-.2-.2-.5 1.2-.3 1.6a189.2 189.2 0 0 1-.1 21.3c-.5 2.4-.2 15.8.4 17.5.3 1 .4 2.1.1 8.8a637.7 637.7 0 0 0-.3 36.6c.1 7.6-.4 15.8-1 17a67 67 0 0 0-.2 7.6c0 4.5 0 6.6.2 5.8l.2-3.6zm16.7-3c0-6.6-.3-17.5-.5-17v12.5c0 11.5.4 14.2.5 4.5zM70.7 120c0-1.5-.1-1.7-.3-1-.2.7-.1 2.8.2 2.8v-1.8zm-18-2c0-1.3-.1-1.7-.3-1.1-.1.8 0 3 .2 3v-1.9zm16.6-.6c0-.3-.2-.1-.2.3s0 .6.2.5v-.8zm11.5-3c.3 0 .4-.1.3-.3-.1-.2-3.3-.7-4-.6a98 98 0 0 1-5.2-.3c-6.2-.5-6.3-.5-6.2 0 0 .4.3.5 1 .4a6 6 0 0 1 2 .4c.8.2 1.4.3 2 .1h1c.3.2 1.8.3 3.4.2 1.6 0 3 0 3.2.2h1.1l1.4-.1zm-39.6-1h-.5c-.2.1-.1.2.2.2.3 0 .4 0 .3-.2zm23.1 0 .2-.4c0-.3-.6-.4-3.4-.7-5-.4-14.7-.7-14.4-.3l2 .4 4 .1a87.8 87.8 0 0 1 11.6 1zm-27.3-.2h-.5c-.2 0-.2.1.2.1.2 0 .4 0 .3-.1zm46.1-.1c0-.2-.1-.3-.3-.3-.1 0-.2.1-.2.3l.2.2c.2 0 .3 0 .3-.2zm-3.4-.8c0-.4-4.7-1.1-11.4-1.7l-6.4-.7c-2-.3-6.7-.7-13-1a259.4 259.4 0 0 0-20.9-1.3l-.2-.6c0-.5.2-.6 3.1-.6 5 0 2.3-.4-5.3-.7l-9.7-.6c-7.5-.7-8.7-.6-8.7.1 0 .3 0 .5.2.6l4.8.4 8.8.5c3.2.2 4.4.4 5.2.8a48 48 0 0 0 11.3 1.6 151.7 151.7 0 0 1 10 1l8.5.6c3.4.3 8.2.5 10.5.5 3.3 0 4.2 0 4.5.4.3.3 1.4.5 3.8.6 4.9.4 4.9.4 4.9.1zm-35-.5-1.2-.2-5.1-.2c-2.4-.2-4-.2-3.9 0l1.9.4c2.4.2 8.5.2 8.2 0zm72.4-.7c.4-.3.4-.3 0-1-.7-1-1.4-3-1.6-4.8-.1-.8-.3-1.7-.5-2-.3-.3-.4 0-.8 2.2-.5 2.6-.6 3-1.6 3-.4 0-.5.1-.5 1.3v1.3h1.6c1 0 1.7 0 1.8.2.3.3 1 .2 1.6-.2zm-86.9-.4c.3-.2-.7-.3-3-.2-2 0-2.9 0-2.3.2 1.4.3 4.8.3 5.3 0zm52.5-.3c.4-.4-1.5-.8-4.7-1-4.5-.4-7.7-.8-9.2-1.2a221.9 221.9 0 0 0-31.8-1.7c-.4.1.5.2 3 .2 4.1 0 7 .3 8 1 .6.2 2.4.4 5 .6a650.5 650.5 0 0 1 26.3 2.2c.2.2 3.3 0 3.4-.1zm-64.4 0c0-.4-3-.7-6.1-.9-2.7-.1-3.2 0-2.8.2.3.2 1.9.4 3.5.5a923.4 923.4 0 0 1 5.4.1zm-9.7-.8c.1-.1 0-.2-.3-.2s-.6 0-.6.2.2.3.4.3.4-.1.5-.3zm19.5-.2c0-.3-1.6-.6-3-.6-1 0-1 0-.6.4.5.5 3.6.6 3.6.2zm77.1-1.2v.7-.7zm-81.9.5c0-.3-3.5-.7-9.1-1-6.1-.4-7.3-.3-6.6.3.3.3 15.7 1 15.7.7zm57.3-1.7a1278.2 1278.2 0 0 1-12.2-1c-1.8-.1-2.5 0-2.5.1 0 .5.8.6 7.2.8 8.3.4 8.1.4 7.5 0zm-16.8-1c0-.2-1.5-.4-3.4-.5l-5-.2-5.3-.2c-3 0-3.8 0-3.8-.3 0-.6-1.7-.8-8.8-1-5.8-.1-6.6-.2-6.7-.6 0-.3.2-.4 1.3-.5 2-.3 7.1-.3 12 0 2.7.2 4.5.2 4.7 0a3 3 0 0 1 1.2-.3l-6.6-.4-11.2-.6a1422 1422 0 0 0-23.7-.8 1068 1068 0 0 1 21.4 1.4c.6.3.7.9.2 1-.2.1-2.7 0-5.6-.2a94.6 94.6 0 0 0-17-.4c-1 .8 0 1 6 1 4.2.2 5.8.3 6.2.5.6.4 3.9.6 20.3 1.2l13 .7c7.7.4 10.8.5 10.8.1zm15.8-.5c-.2-.2-11.9-.9-14.3-.9H63l2.8.3c6.2.5 14 .8 13.7.6zm33.7-1.6c0-.7.1-1 .5-1 .7-.3.6-.7-.3-1.1-.4-.2-.8-.7-.9-1 0-.4-.2-.7-.4-.7-.4 0-.3 1.5.1 1.9.3.2.4.8.4 1.7 0 1 .1 1.4.3 1.3.2-.1.3-.6.3-1.1zm-53.3.4a50.7 50.7 0 0 0-5.5 0 48 48 0 0 0 5.5 0zm22.6 0c0-.1-.4-.2-.9-.2-.6 0-.7 0-.4.2.5.4 1.3.4 1.3 0zm-33.7-.1h-1 1zm3 0h-1.1 1zm24.5-.1c0-.2.1-.4 0-.4 0 0-2.4-.3-5.2-.4L65 103c-2.4-.3-5.7-.3-5.7 0 0 .4 1.5.6 8.7 1a181.1 181.1 0 0 1 8.4.2zM52 102.4h-.5c-.2 0-.2.1.1.2.3 0 .5 0 .4-.2zm16.7-.5c.4-.3.9-.4 3.5-.1l3.4.4h1.8l1.5-.3-1.7-.2c-5-.5-8.5-.7-14.8-.8l-8.2-.4c-2.1-.6-4.8-.8-8.6-.8l-7.1-.3c-2.7-.3-3.6-.3-4 0-.3.2-1.2.3-2.9.1l-6.5-.2-9.8-.3H8.9c-1.2.4 2.6.6 9.4.6 3.1 0 7.7.3 10.2.5 2.4.2 6.9.4 9.8.4 4.2 0 5.5 0 6 .3.4.3 2.4.5 7.7.7l10.3.5c5.4.4 6 .4 6.5 0zm18-8.5a777.3 777.3 0 0 0-.1-56c-.1-5.9 0-8.6.2-10.2A177.6 177.6 0 0 0 86.7 6c-.6-.6-.7 1.3-.6 10 .2 8.5.1 9.5-.2 9.9-.4.3-.4.6-.3 1.4a1954.9 1954.9 0 0 0 .5 12l.1 16.9v16.4c0 2.2 0 4-.2 4.1-.2.2-.2 3.8-.2 10.6l.2 10.4c.1.3.5-2 .8-4.4zm17.6 3.5c.3-1.5.3-6 0-6.9-.3-1-.3-1-.5-.4a48.8 48.8 0 0 0 0 8c.2 0 .4-.4.5-.7zm-91.4.3c-.3-.3-4.7-.6-5.4-.3-1.1.4.1.7 2.8.7 2.4 0 2.9-.1 2.6-.4zm56-1v-3c0-1.7 0-2.3.4-2.7.3-.3.8-1.5 1.1-2.8.6-2.1.7-2.4.3-3.4-.4-1-1.6-3-2.3-3.6-.3-.3-.7-.3-1.5-.1l-1.3.4.6 1c1.1 1.5 1.6 2.8 1.2 3.9-.4 1.6-1.1 8.4-1 9.5.3 1.2.9 1.7 2 1.6.6-.1.7-.2.6-.8zm-24.3.3a7 7 0 0 0-1.2-1.6 16 16 0 0 1-3-4.4c0-.6.6-.7 1-.2.2.3.3.3.3.2l-.4-.7c-.4-.4-.4-.7 0-2.1.2-1.6.2-1.8-.4-3-.7-1.4-.6-1.3-2.8-1.5l-1.6-.1-.1 3-.2 2.9.8.7c.4.4.8 1 .8 1.3 0 .8 1.7 3.3 2.4 3.5.3.1.5.4.6.8.1.4.6.7 1.4 1 1.5.5 2.4.6 2.4.2zM39 90c-.6-.7-.8-1.5-.6-2.3.2-1 1-1 1.3.1.4 2.2.1 3.1-.7 2.2zm37.8 6.3c0-.3.4-1.2.8-2.2a18 18 0 0 0 2.1-10.4v-1c.3-.3.4-.3.7 0 .3.4.5 1.1.6 2.6l.2 2.1c.3.3.4-2.6.2-4.4l-.2-2-1 .1c-.5 0-1 0-1.2-.3-.6-.8-.8-.2-.6 2.2 0 1.9 0 2.6-.3 3.2-.4.9-1 3.5-1.5 5.7a4 4 0 0 1-.6 1.6c-.8.9-.5 3.3.4 3.3.1 0 .3-.2.4-.5zm4-1.3c.2-.8.7-1.7 1-1.9.4-.3.5-.8.6-2.9v-2.8c-.1-.1-.4.2-.7.8-1.6 3-1.7 3.4-1.8 5.5 0 1.2-.1 2.4-.3 2.6-.1.4 0 .5.2.4.2 0 .6-.8 1-1.7zm-20.9.8c0-.3-.1-1-.4-1.8-.3-1-.3-1.3 0-2.2a7 7 0 0 1 .8-1.4c.2-.2.5-1.5.7-2.8.3-2.2.2-2.6-.1-3.8-.5-1.3-1.2-2-2-1.8-.2.2-.3.7-.2 2.5 0 2.8-.4 5.7-1 7-.4.8-.4 1 0 2.1l.4 1.8c0 .7.2.8 1 .8.6 0 .8-.1.8-.4zm3.4-.4c-.1-.4-.3-.7-.4-.6-.2.2.2 1.4.5 1.4.1 0 0-.3 0-.8zm7.4.3c0-.3-.2-.2-.2.1 0 .3 0 .4.2.4v-.5zm11.4-.8c0-.2 0-.2-.2.1a3 3 0 0 0-.2 1c0 .2 0 .2.2-.2l.2-.9zm-59 1c0-.2-.2-.5-.6-.7l-1-1.3c-.1-.5-.5-.8-.7-.8-.8 0-1.2-.9-1.7-3.3-.4-1.9-.7-2.6-1.3-3.3-.9-1-1.2-2-.7-2.5.2-.3.3-.2.6.1.4.6.7.6.7.1s.5-.8.9-.5c.1.2.6.4 1 .4s.7.4 1 1.3c.6 1.6 1.2 3.9 1.2 5 0 2.4.1 2.6 1 3.4.5.6.7 1 .6 1.4 0 .3 0 .5.5.6.7.2 4.1.2 4.1 0 0-.5-.6-1.2-1.2-1.2-1.6 0-2.1-2.4-2.3-10.4 0-2-.3-2 2.4-1.6 1 0 2.2 1 2.6 2 .1.6.5.7.7.3.1-.2.4-.2.6-.1.4.1.4.5.2 2.5-.2 2.7-.5 3.5-1.3 3-.3-.2-.5-.6-.6-1 0-.3-.3-.5-.7-.5-.6 0-.6 0-.5 1.8.1 1.2.4 2.4 1 3.4.6 1.6.7 1.7 1.5 1.7.7 0 .8 0 .6-.5-.4-1-1-3.5-.8-3.9.3-.7 1 0 1.4 1.5a6 6 0 0 0 1.2 2.2c.6.7.9.7 2.4.6h1.8l-1.4-2.1C35 91.3 35 91.3 35 89.2c0-2.7 0-2.8-.5-1.7a11 11 0 0 0 .4 5.9c.5 1 .2 1.8-.6 1.7-1-.1-1.5-1.8-1.5-4.7 0-3.2.2-4.2.8-4.2.3 0 .3-.1-.2-.3-.3-.1-.6-.4-.6-.7 0-.3-.3-1-.8-1.6l-.7-1.4s-1.1-.3-2.5-.3l-4.2-.4c-1.6-.1-1.7-.1-1.9.4-.1.5-.3.6-1.1.4-1.3-.2-1.4-.3-1-.9.2-.3.2-.7.1-1-.2-.6-.2-.6-.3-.1-.2.4-.4.5-1.1.5-.8 0-1 0-1.5-.7-1-1.7-3.8-4.3-4.2-3.9 0 .1.5.8 1.3 1.6 1 1 1.5 1.9 1.7 2.7.4 1.1.4 1.2 1.3 1.2l1.3.1c.5.2.6 1 0 1l-3.1.4-1.6.1.2-.7c.1-.5 0-.7-.3-.8-.3-.1-1.4-1.1-2.5-2.2-3.6-3.6-5.1-4.4-2.8-1.3l1.7 2.8c.4.8 1 1.5 1.3 1.7.8.4.7.8-.3 1-.7 0-1.4-.4-1.4-1l-.7-1.3c-.7-1-.7-1-.6-.2.6 2.5.6 2.5 0 2.5-.4 0-.6-.4-1-1.7-.6-1.6-.6-1.6-.6-.6 0 .5-.2 1-.3 1h-.5s-.4-.5-.6-1.2c-.2-.7-.5-1.3-.6-1.3-.4 0-.6 5.3-.4 7l.4 4c.1 2.7.1 2.7 1 3.4.9.6 1.2.7 6 1a322.5 322.5 0 0 0 10.6.4zM9.7 93.3c-1.2-1.2-1.4-2-.6-2 .7 0 .7.2-.1-1.6-1.1-2.5-1.2-5.2 0-3.6.2.4.4.5.4.3s.1-.3.3-.3c.2 0 .6.7.9 1.6.5 1.5.6 1.7 1.2 1.6.6 0 1 .2 1.7 1.4.5.8 1.3 1.6 1.7 1.8.9.4 1 1.1.3 1.3-.9.2-2-.4-2.8-1.5-.6-.9-1.8-2-2.3-2l-.3.7c0 .5 0 .8.7 1.3l1 .7.2.6c0 1-1 .9-2.3-.3zm7.1-1.3c-.5-.2-.8-.6-.8-1.4 0-.5 0-.6-.4-.3-.3.3-.6.3-1 0-.6-.2-.7-.4-.7-1.4 0-1.2-.3-1.8-1.6-3-.9-1-.9-1-2-.6-1 .2-1.3.2-1.5 0-.5-.5.2-.9 2.5-1.1l2.9-.4c.8-.1 1.1.2 1.4 1.3.1.5.4 1.2.7 1.6l1 2.8c.5 1.6.6 2 .3 2.3l-.8.2zm-10-2.2c-.6-.9-.6-1.6 0-1.6.2 0 .5.4.8 1l.4 1.2s0 .2-.3.2c-.2 0-.6-.4-1-.8zm-.1-4.4a.9.9 0 0 1-.2-.6c0-.5.7-.4 1 .2.3.5.2.5-.2.5l-.6-.1zM49 95.7c.1-.2.4-.2.7-.2h.5c0-.4-.6-.7-1.2-.6-.5 0-1.3-.6-2.6-2-.3-.4-.7-.6-1.3-.6h-.8l.9.8 1 .7c.2 0 .3.2.3.4 0 .4 1.5 1.8 2 1.8.2 0 .4-.2.5-.3zm5-.2c.3-.6-.6-2.1-1.6-2.7l-1-.6.2-1.7c.1-1 .4-2 .6-2.2.4-.4.4-.9.3-2.1-.2-2-.3-2.1-1.2-2.1-1.2 0-1.4.3-1 1.2.3.6.5 2 .6 4.5 0 3 .2 3.9.6 4.8.3.6.7 1.1.9 1.2.7.3 1.5.1 1.7-.3zm2.4-.1c-.3-.8-1-1.8-1.2-1.8-.4 0-.3.6.3 1.5.6 1 1.2 1.2.9.3zM73.2 94c.5-.7 1.9-4.5 2.2-6.5a14 14 0 0 0 0-4.3v-2.9c.7-.7 0-1-1.9-.7-1 0-2 .2-2 .3-.4.2.2.9.6.9.6 0 .6.2 1 3.1.3 2.8 0 5-.7 7-.6 1.4-.8 3.5-.4 4.2l.3.6.3-.6c.1-.4.4-.9.6-1zm29.5-4.4.6-15.4.4-15.1c.1-2.7 0-7.5 0-10.7a175.5 175.5 0 0 1 .4-22.8c0-2.8 0-3.1-.4-3.2-.4-.1-.5.3-.5 6 0 3.3 0 8.7-.2 12-.2 3.2-.4 14-.4 24l-.4 21c-.4 3.8-.4 10.1 0 9.8l.5-5.6zm-38.5 2.9.5-2.2c.6-2.3.8-5.6.4-6.6-.4-1.4-2.4-3.3-2.4-2.4l.5 1.2c.5 1.4.5 4-.2 6.1a7.1 7.1 0 0 0-.4 3.3c.2 1.4.2 1.5.8 1.4.5-.1.7-.4.8-.8zM48.6 92c0-.7-.2-1.3-.3-1.4-.2 0-.3-1-.2-2.6.1-2.2 0-2.7-.3-3.2-.5-.5-.6-.5-1.2-.2-.9.4-1.3 2.4-.8 3.5.2.4.4 1.1.4 1.5 0 .4.4 1.1.9 1.6l1 1.4c.2 1 .5.7.5-.6zm7.7-5.7c-.2-1.5-.7-2.6-1.2-2.6-.3 0-.3.2-.2.7.5 2 .5 3.6 0 5.3-.7 2.9-.1 3 .8.2a9 9 0 0 0 .6-3.6zm-36 1c-.3-1.2-.7-1.8-1-1.9-.8-.3-.8 0-.1.8l1 2.5c.4 2.2.6 2.5.7 1.3 0-.6-.2-1.8-.5-2.7zm6.9 1.8c-.1-1.3 0-1.7.2-1.6l.7.3c.3.1.5 0 .7-.5.6-1.2.4-2.3-.4-3.2l-.8-.8-.3 1.6a1414.7 1414.7 0 0 0-.7 4.7l.3.8c.3 1 .4.3.3-1.3zm77.6-2a3 3 0 0 0-.4-1c-.4-.7-.4-.6-.4.7 0 1.3 0 1.4.4 1.1l.4-.7zm-61-3.2c-.1-.4-.4-.7-.7-.8-1-.3-1.7.4-.9.7.3 0 .6.5.7 1 .3.7.3.7.7.3l.2-1.2zm33.6.3v-2.6c0-.7-.2-1.3-.4-1.3-.1 0-.2 1-.2 2.5 0 1.9 0 2.5.3 2.5.2 0 .3-.4.3-1.1zm-15-.4c-.2-1.3-.6-2-.9-1.6 0 0 0 .5.3 1l.4 1.3c0 .3 0 .5.2.5V84zm20.2-.4c0-1-.1-1.5-.3-1.4-.4.2-.3 3 .2 3v-1.6zm-48.8-.2c0-.8-.1-1.1-.5-1.2h-.6a7 7 0 0 0 1 2.2v-1zm12.8 0c0-.4-.9-.8-1.6-.8-.7 0-.5.6.3.8 1 .3 1.3.3 1.3 0zm58-.4c0-.4-.2-.7-.3-.7-.2 0-.3.3-.3.7 0 .3.1.6.3.6l.2-.6zM71.4 82c-.6-.7-.8-.4-.3.4.3.7.4.8.5.4 0-.2 0-.6-.2-.8zm-18.8-.4c.5-.3.7-.8.2-.8l-1-.6c-.8-.5-.9-.5-1.1-.1-.3.6-1 .5-2-.1-.3-.3-.6-.5-.6-.3l.3.4c.4.3.3 1.2-.2 1.4-.2 0-.6 0-.9-.3-.3-.3-.6-.4-.8-.3-.3.2-1.9-.6-1.9-1l-1.5-1.7a6.5 6.5 0 0 1-1.6-2c0-.2-.5-.4-1.4-.6-2.3-.6-2.3-.5-.5 1.3l2.2 2.2c.8 1.3 2.3 2.2 3.5 2.2.6 0 1.2.1 1.3.3.2 0 .6.3 1 .3 1 .2 4.4 0 5-.3zM22.9 81c0-.2.6-.4 1.1-.4.6 0 1-.2 1-.4.3-.7-5-5.4-6-5.4-.8 0-1.5.3-1.5.5l1.6 1.4c1.9 1.4 2.6 2.3 2.8 3.6v1c.1.3.9 0 1-.3zm33.7.1c.2 0 .3 0 .3-.2s-.3-.3-.8-.3-.8-.1-1-.4c-.1-.4-1-.8-2.4-1.2l-1-.2.7.5c1 .7 1.4 1.2 1.8 1.7.3.3.6.4 1.2.3l1.2-.2zm-18-1.3a15 15 0 0 1-1.6-2.5c-.4-.8-1-1.5-1.2-1.6-.6-.2-3.5-.1-3.5.1l1 1C34 77 35 78.1 36 79c1.4 1.5 2.4 2.1 3.2 1.8.2 0 0-.4-.5-1zm-4.2.5c-.1-.3-.3-.5-.4-.4-.1.1 0 .4.2.6.4.6.6.5.2-.2zm-2.5.1c.2-.4-.6-1.4-2.9-3.3-2.9-2.5-3.2-2.7-4.8-2.6-.5 0 1.4 2.3 3 3.5.6.5 1.3 1.3 1.5 1.8.3.8.3.8 1.7.8.7 0 1.4 0 1.5-.2zm-4.4-.4c0-.3 0-.4-.2-.4s-.3.1-.3.4c0 .2.1.4.3.4l.2-.4zm55.4-.6c.2-1.2.3-22.3.1-22.5-.1-.2-1.7.7-2.1 1.1a8 8 0 0 1-2.3.8l-2.6.7c-.6.3-.8 1.1-.3 1.4a41 41 0 0 1 3.9 15.5c0 3 0 3.2 1.7 3.6 1.4.5 1.5.4 1.6-.6zM33.6 79c-.2-.5-.8-1-.8-.6 0 .2.7 1.2 1 1.2l-.2-.6zm16.7-.2c-.1-.2-.4-.5-.8-.5-.6-.1-.6-.1-.1.4.6.7 1 .8.9.1zm-3.3 0c.7-.2-.5-1.5-1.8-1.9l-1.6-.4c-.8-.3-.5.4.6 1 .5.2 1.2.7 1.4 1 .6.6.7.6 1.4.4zm29.6-.4c-.1-.5 0-.7.2-.7.3 0 .5.1.6.3.4.5.7-.2.9-1.8 0-1 0-2.2-.4-3.5-.6-2.3 0-2.2-5.7-2-3.4.2-4 .3-3.8.6 0 .5 1.6.8 4.8.8 1.8 0 2.2.1 3 .7 1.1 1 1 1.3-.1 1-1.1-.1-1.3.4-.1.6.9.2 1.3.8.8 1.3-.2.2-.5.2-1-.2-1-.5-5-.6-4.8-.1 0 .2 1 .4 2.6.5 2.8.3 3.7.6 3.7 1.2 0 .3-.2.4-.6.2-1.5-.4-1.8-.4-1.8 0 0 .2.2.4.4.5.2 0 .4.3.4.5 0 .4.3.7.9.7v-.6zm-19.3-.5c-.1-.5-.6-.7-2.5-1.3-3.9-1.3-7.1-1.8-7.1-1.3 0 .2.4.3.9.3 1 0 4.7 1.1 7 2.2 1.8.8 1.8.8 1.7.1zm16 .4a1 1 0 0 0-.6 0c-.2.1 0 .2.4.2.3 0 .5-.1.3-.2zm-67-.3c.4-.2.4-.3 0-.7-.8-.5-1-.5-1 .1 0 .8.4 1 1 .6zm63.5-.8c-.1-.2-.5-.3-.9-.3-.3 0-.6.1-.5.3l.9.2c.3 0 .5 0 .5-.2zm2.2 0c0-.2-.1-.3-.2-.3-.2 0-.4.1-.5.3 0 .1 0 .2.3.2.2 0 .4 0 .4-.2zm-13.2-1c0-.4-2.7-1.3-5-1.8-2.1-.4-7.8-1.2-8-1-.3.3.8.6 2.2.6 2.3 0 5.4.8 8.3 2 .9.4 2.5.5 2.5.2zM12 74.4a67.4 67.4 0 0 0 6.8-1c1.4-.2 1.8-.5 1.2-.9-.2 0-.2-.7-.2-1.9.2-2 1.4-4.5 3.7-7.6.8-1.1 1.7-2.6 2-3.3.8-2.2 2-3.8 5.6-7.3a3990.5 3990.5 0 0 0 7-7c.1-.3.5-.7 1-1l1.5-1c.4-.5 1.4-1 2.3-1.1 1-.2 1.5-.5 1.5-.8 0-.4 2.8-3.2 3.2-3.2.2 0 .2-.2.1-.5 0-.3 0-.7.5-1 .4-.4.7-.7.7-.9 0-.1.2-.3.5-.3.4 0 .5-.1.5-.5 0-.6.9-1 1.6-.5.5.2.6.2.4-.3 0-.5 0-.8.4-1.2.3-.2.5-.8.5-1.2 0-.4.2-.8.5-1 .3-.1.6-.8.8-1.4.4-1.5 1.3-2 3-1.5a5 5 0 0 1 1.8 1.2l1.3 1.2c.4.3.6.8.6 1.4 0 .7.2 1 .9 1.6 1 .8 1.6.8 2.4 0l1.8-1.1 1.2-.7c0-.3 1-.2 1.2 0 0 .2.5.3.9.4.7.2.8.4 1.2 1.8.3.9.7 1.6.9 1.6.2 0 .3.1.3.2 0 .2.4.3.8.3s1 .2 1.2.4c.3.2 1 .4 1.8.4.7 0 1.3.1 1.4.3.1.1.3.2.5.1l1.3.4c.5.3 1.1.5 1.3.5l1.6.6c.7.3 1.3.5 1.4.4.2-.2.2-33.3 0-33.5a48 48 0 0 0-7.6-.1c-.3 0-.5.5-.6.9-.3 1-.6 1-.7 0l-.1-1h-1.8c-2.1-.1-2-.2-2.7 4-.4 3-.5 3.3-1 3.3-.2 0 0-2.4.5-4.9.5-2.7.6-2.6-1.2-2.4l-1.8.2c-.3.3-2.4 8.1-3 10.8-.3 1.5-.5 3.2-.5 4 0 .7-.1 1.4-.3 1.5-.4.2-.3-3 .1-5.2A125 125 0 0 1 65 6c0-.7 0-.7-2-.9L58 5h-3L54.7 6c-.2.7-.5 1.4-.8 1.7a9 9 0 0 0-1.6 3.8c-.1.6-.3 1.9-.6 2.7-.4 2-.9 7.2-.9 10.5 0 2.7-.2 3.4-.8 2.3-.3-.5-.3-1 .2-8l.1-2.1-.5 1c-1.1 1.8-1.7 4.2-2 8.5-.3 4.7-.8 5.7-.8 1.7V26c-.2 0-1.4 2.5-1.6 3.1l-.8 1.8c-.6 1-.7 1-1.2.8-.3-.2-.8-.2-1.9 0-.7.2-3.3.4-5.6.5l-6.7.2c-2.3.1-2.5.1-3.2-.5-1.5-1.2-1.7-.8-1.6 2.5.2 2.9 0 4-.6 3.2l-.2-3.5v-3l-1-.5c-.5-.2-1-.4-1.1-.3 0 .1-.2 4.8-.2 10.4 0 5.7-.2 10.5-.2 10.9-.1.3-.4.5-.6.5a444.2 444.2 0 0 1 0-20.9c.2-1.6.1-1.7-.8-2.6-.6-.6-1-1.4-1.3-2.4-.2-.8-.5-1.6-.7-1.7-.3-.3-.2 8 0 14.5.2 2.3.2 4.4.1 4.6-.2.6-.7.2-.7-.5-.2-5-.5-13.4-.5-17.8v-5.6l-1.2-2.5a82 82 0 0 1-3-7c-1-3-1.2-3.2-2.3-3.7-.9-.5-1.6-.7-3-.7-1 0-1.8.2-2 .4a183 183 0 0 0-.6 30c.2 1.5.3 4.8.1 9.6a194.8 194.8 0 0 0 .9 29c0 .4.8.4 6.6-.3zm-1.2-8.1a3941.2 3941.2 0 0 1-.4-11c0-1.5.4-1.9.7-.7a67.3 67.3 0 0 1 .1 11.7H11zM10.5 52c-.4-1.7-1-14.4-.8-16.4.1-1.5 0-1.8-.3-1.8S9 33.3 9 30c0-3.4 0-3.9.5-3.9.4 0 .4.4.2 3.6-.2 3.3-.1 3.6.3 3.6.5 0 .5.4.5 5.8 0 3.5.1 6.5.3 7.4.5 2.1.6 5.9.2 6-.2 0-.4-.2-.5-.5zm-4.3-1.5c-.2-1 .1-14.6.4-17 .2-1.6.7-2.2.7-.7L7 42.5c0 4.8-.3 8.8-.4 8.9-.1 0-.3-.3-.4-.9zm6.6-15.8c0-8 .2-10.8.4-11 .5-.5 1 .2.7 1-.2.7-.5 16.5-.4 19.3 0 1.1 0 1.4-.3 1.4-.4 0-.4-1.3-.4-10.7zm67.8-2.4c-.5-1.3-.4-18.9.1-18.9.1 0 .3 4 .4 8.7 0 4.7.2 9 .3 9.6.1.8.1 1-.2 1-.2 0-.5-.2-.6-.4zM73.2 31A100.7 100.7 0 0 1 76 7.7c.5-.5.5.2.1 1.5a100.7 100.7 0 0 0-2.4 22.5c-.2 0-.4-.3-.5-.7zm4-1.2c-.8-1.2-.3-9.1.9-16.7.7-4.4 1.1-6 1.6-6a106.6 106.6 0 0 0-2.1 20c0 2.6 0 3.4-.4 2.7zm-17.8-6.4c.3-4.4 1-9.8 1.2-10 .6-.6.6.1.2 3.1-.3 1.7-.5 4.6-.6 6.4-.2 2.5-.3 3.2-.6 3.2s-.3-.5-.2-2.7zm-5 .3 1-10c.2-.7.9-.6.8.1l-.5 3.6-.4 5c0 2.4-.2 3.5-.7 3.5-.3 0-.4-.4-.2-2.2zm2.5-.8c0-3 .2-4.8 1-9.4l1.6-7c0-.4.2-.5.4-.3s0 1.2-.4 3.3a60 60 0 0 0-2 13.6c0 1.7-.2 2.8-.3 2.8-.2 0-.3-1.2-.3-3zm14.8 2c-.2-.2 0-7.3.3-9.9.5-4.1.8-5.6 1.2-5.6.5 0 .5 1.3 0 4s-1 7-1 9.6c0 1.9 0 2.3-.5 2zm-7-1.9c-.2-.8 0-5.9.4-8.6.3-1.8.8-2.9 1.2-2.5l-.2 3.4c-.3 1.7-.5 4.2-.5 5.4 0 2.2 0 3-.5 3-.1 0-.3-.3-.4-.7zm3.6-.1a66.3 66.3 0 0 1 1.4-8c.1-.4.3-.7.5-.7.3 0 .3 1-.2 3l-.6 3.8c-.1 1.7-.3 2-.6 2.2-.3 0-.5-.1-.5-.3zM70 74.8c0-.1-.4-.3-.8-.3-.3 0-.6.2-.6.3 0 .1.3.3.8.3.4 0 .7-.1.6-.3zm-27.8-.5c-1.3-.3-2.4-.3-1.3 0l1.6.2c.7 0 .6 0-.3-.2zm15.8-.8c0-.3-.7-.4-3.9-1-3.9-.5-8.3-.8-8.3-.4a57.8 57.8 0 0 1 9.4 1.6c1.8.4 2.8.4 2.8-.2zm15.3-.3c0-.1-1-.2-2.2-.2-1.4 0-2 0-1.6.2.7.3 3.8.3 3.8 0zm-30.1-.6c0-.3-.4-.5-.7-.6-1.1-.3-9.2.1-9.5.4-.2.3.3.3 2 .2a37 37 0 0 1 7.7.3c.3 0 .5-.1.5-.3zm18-.1-.3-1c-.4-1.1-2.2-2-5.2-2.8-3.1-.7-6.7-1.1-7-.8-.3.2-.2.3.1.3 1.1 0 6.7 1.4 8 2l2.6 1.5c1.4 1 1.8 1.1 1.8.8zm5.4-.4c0-.2-.3-.4-.5-.4-.3 0-.4 0-.3.3.2.5 1 .6.8 0zm-9.4-.5c-.8-.7-2.6-1.2-7-2-5-.8-5-.8-5 .2 0 .7 0 .8 1 .8A95 95 0 0 1 57.7 72l-.5-.5zm-13-1c0-.5-1.5-.6-5.1-.5-5.7.2-5.6.6.1.6 2.8 0 5 0 5-.2zm22-.4c-.2-.2-.5-.4-.6-.3-.3.2 0 .7.5.7.3 0 .3-.1 0-.4zm8.5-.7c1.1 0 1.3 0 1.2-.5 0-.2-.3-.4-.6-.3a1 1 0 0 1-.8-.4c-.3-.3-1-.4-4-.5-3.4-.1-3.6-.1-3 .3.5.2.8.5.8.7 0 .8.9 1 3 .9a66 66 0 0 1 3.4-.2zm-38-.5c2.1-.2 4.8-.3 6-.2 1.9.1 2 0 2.3-.5.6-1.1.2-1.3-3.3-1.1-4 .2-8.9 1-9.4 1.5-.6.4-.4.9.2.7l4.3-.4zM61 69c0-.5-2.1-2-3.7-2.6-.9-.3-2-.4-4.7-.4-3.7 0-4.5.3-1.6.6 3.2.4 9 2 9.3 2.6.3.4.7.2.7-.2zm-31.8-1 1.4-.4c.3 0 .5-.2.5-.3 0-.2-.1-.3-.2-.3-.5 0-3 1.2-3 1.4 0 .3.2.3 1.3-.3zM61.5 67c0-.4.3-.8.7-1 .4-.2.7-.6.8-.9.2-.3.6-.6 1-.7a5 5 0 0 0 1.4-.7c.6-.4 1-.5 2.3-.4h1.5c-.2-.4-3.6-.9-4.6-.7-.7 0-1.1 0-1.2-.2-.3-.5.7-1 1.8-1h1.1l-.7-.5-.8-.5c-.3 0-2-1.2-2-1.4 0-.4 1.1-.2 2 .3 1 .6 2.2 1.1 2.2 1 0-.2-2-1.6-3.8-2.6l-1-.6v.6c0 .5 0 .6-.9.4l-3-.5c-2.9-.6-6.8-.6-7 0-.2.5 0 .6 4 .7 4 .2 5.5.6 5.5 1.8 0 .3 0 .8.2 1 .4.7-.2.8-2.8.6-2.5-.2-7.3 0-7.8.3-.8.5-.2.7 1.7.7 3.2 0 6 .5 7.8 1.4.8.4 1.5.9 1.5 1 0 .6-.7.5-2 0-1.7-1-2.7-1-7.4-1.2-3 0-4.1-.2-4.8-.5-1.9-1-14.8.2-15.3 1.4v.5L34 65a70 70 0 0 1 6.8-.2h8.6c2.1 0 4.6 0 5.6.2 2 .3 4.7 1.4 5.4 2.2.6.6.9.6 1-.3zm4-1c.3 0 1.2 0 1.9.3 1.3.4 5.7.6 5.7.2l-.5-.9c-.6-.6-2-1-4.6-1.2-1.5 0-1.7 0-2.3.6-.3.3-.8.6-1 .6-.4 0-.6.6-.4 1.4.1.6.1.6.3-.2 0-.6.3-.8.8-.8zm-29.5.7a23 23 0 0 0 3.4-.6c.2-.3-3.9 0-5.7.4-.8.1-1.4.3-1.4.5 0 .3-.3.3 3.7-.3zm60.3-8.5c0-8.3 0-9.5-.7-8.8-.3.2-.2 17.1 0 17.5.2.2.4.3.5.2.1-.1.2-4 .2-8.9zm-22.4 6-1.2-1.6a25 25 0 0 1-3.6-5.5c0-.2.1-.5.3-.5.6-.2 0-1-.8-1-1 0-2.5-.5-2.8-1-.4-.5-3.3-2.2-3.9-2.2a19 19 0 0 0-8.2-2.1h-.9l1.2.5c2 .8 3 1.5 3.4 2.2.2.5.6.7 1.4.8 1.7.3 3.4 1.3 3.6 2 .2 1 1.6 1.6 2 1 .1-.2.4-.4.6-.4.6 0 2.2 1.6 2.2 2.2 0 .5.4 1 1.4 1.6.7.5 1.4 1.2 1.5 1.5 0 .2.4.6.8.7a6 6 0 0 1 1.6 1.1c.8.8 1.4 1 1.4.7zm-38.3-1.7a54.3 54.3 0 0 0 8.6-2c-.6-.2-8 0-9.7.3-.7.1-.8.2-.7.8.1.5 0 .6-.7.6l-1.6.4c-.8.4-1 .8-.4.6l4.5-.7zm-6.2-.3c1.1-.6 1.3-.8 1-1-.3 0-.8.2-1.5.7-1 .8-1.3 1-1 1l1.5-.7zm88.8-.1a559.8 559.8 0 0 1 11.8-1.4c1-.3 1-1.1 1-16.5.1-8.8 0-13-.2-13.3-.2-.4-.3 1.7-.3 8 0 4.6-.1 8.4-.2 8.5-.4.4-.5-1.2-.6-8.2 0-10 0-10.2-1-10-.1.2-.7 0-1.1-.2-.7-.3-2-.4-8.2-.4h-7.5l.2 2c.3 2.1.3 2.4 0 18.7a269 269 0 0 1-.3 12.7c-.1.4 0 .5 1.4.5l5-.4zM123 56c-.2-.3-.5-9.4-.5-15.2 0-5.9.3-10 .6-9.9.2.1.2 3 0 7.1 0 4.2 0 9 .2 12.3.2 3.2.2 5.5 0 5.7h-.3zm1.7-1c0-.3 0-.4.1-.2v.5l-.1-.3zm-7.4-1.5a367.2 367.2 0 0 0 1.1-23l.4.1c.3.2.3.5-.2 13-.3 6.7-.7 11-1.2 11-.1 0-.2-.4 0-1.1zm7.3-3.4c-.3-6.9 0-18.8.6-18.8.3 0 0 20.7-.3 21.8 0 .5-.2-.6-.3-3zm5 2.6c0-.3.2-.5.3-.5.2 0 .3.2.3.5s-.1.6-.3.6l-.2-.6zm-13.5-13.5c.1-7.8.2-8.8.6-8.5.5.2 0 16-.5 16a75 75 0 0 1 0-7.5zm-41.6 22c-.1-.3-.5-1.3-1-2l-.7-1.4h.7c.6 0 .6-.1.6-.8-.1-.5-.3-.7-1.3-1-.9-.4-1.3-.7-1.6-1.4-.9-1.6.2-2.2 1-.7.4.6.7.8 1.2.8l1 .3c.6.4.2-.4-1-1.4a19.1 19.1 0 0 0-4.8-3.4c-.2.2.6 2 2 4.1.8 1.5 1 2 .8 2.3-.1.2-.4.3-.5.2-.5-.3-.1.3 1 1.5a22.7 22.7 0 0 1 2.7 3.7l-.1-.7zm-39.9-1.7c1-.2 3-.5 4.5-.5l3.4-.4c.4-.2 2.1-.3 3.8-.4 1.6 0 3-.2 3.1-.3.4-.3-.9-.4-4-.3-2.8.1-5.2.4-10.4 1.2a9 9 0 0 0-2.6.8c-.7.4-.8.5-.4.4l2.6-.5zm24 .3c-.7-.4-9.8-.4-10.5 0-.5.3.6.3 5.2.3 4.7 0 5.8 0 5.3-.3zm106.9-.2c-.2-.2-1.1-.5-2.1-.8-2.2-.5-2.6-1-.8-1 .7 0 1.2-.2 1.2-.3a379.9 379.9 0 0 1-3.8-4.8l-.6-.6v2.4c-.1 2 0 2.5.5 3.6.5 1.2.6 1.2 2 1.4l2 .2c1.4.2 1.9.2 1.6-.1zm4.6-4 .4-4.4c.2-1.4-.3-5.5-.8-6.3l-.4-.8-3.6-.2c-3 0-3.7 0-4.7.4-1 .5-1.1.6-1.3 1.7-.2 2-.2 2.4.7 3.3l.8 1c0 .2.2.4.4.5.3 0 1 .7 1.5 1.4.6.8 2.3 2.6 3.7 4a23.6 23.6 0 0 1 2.8 3.2c.1 0 .4-1.7.5-3.8zm-70.4-3V57v-4.2zm58.6 4.3.1-4 .2-1.9-1-1.1c-.5-.6-1-1-1.2-1-.1 0-.2 1.5-.2 3.1 0 4 .8 6.8 1.9 6.8 0 0 .2-.9.2-2zm-121.5.5 4.9-.7c1.5-.2 2.8-.5 3-.7 0-.1.4-.4.7-.4 1-.3-6.8 0-8.5.4-.8.1-1.8.4-2.2.7l-1.3.7c-.7.3-.7.3.2.3l3.2-.3zm-4.6-1c1.3-1 2.9-1.3 7.8-2 2.2-.2 3.4-.5 3.7-.8.5-.4 1.4-.5 4.2-.6 1.2 0 1.4 0 1-.3a48 48 0 0 0-12.4 1c-3.7.6-4.8 1.1-5.5 2.5-.3.6-.5 1-.3 1 .1 0 .8-.3 1.5-.8zm29.5 0c-1-1.2-4.9-2-9-2-2.2 0-2.7 0-2.8.3v.6s2 .3 4.4.4c2.4.1 5 .4 5.7.6 1.8.5 2 .5 1.7 0zm16.7-2c.3-.1.5-.4.5-.7 0-.9 1-1.6 2.6-1.7l1.5-.2v-1c.1-1 .1-1-.6-.7-.3.1-1 .3-1.6.3-.8 0-1.1.1-1.6.8-.8 1-1.7 1-2-.3 0-.4-.3-1-.5-1.3-1-1 .4-1.5 2.5-1 1.3.4 1.8.4 2.3.2.4-.2 1-.3 1.2-.2.4 0 .5-.2.4-1.8l-.1-2c-.1 0-.4.1-.6.4-.3.2-.7.4-1 .4-.2 0-.5.2-.7.5-.4.6-1.2.7-1.5.2-.1-.3-.7-.3-2.3-.1-3.8.3-4.3.3-5-.5L70 44.7c-1.2-.6-1.6-1-1.3-1.4L69 42c0-.8-.1-1-.6-1.2-.5-.1-.6-.4-.5-.6l-.1-.6c-.5-.2-.3-.9.1-.7l.4-.1c0-.2-.2-.4-.4-.4-.5-.3-.5-1 0-1.1.7-.2 1.3-2.2.9-2.7-.2-.2-.5-.4-.8-.4-.8 0-2.3 1-2.7 1.9-.4.6-.4.7.1 1.2.8.7 1.4 1.9 1.2 2.5-.2.6-.5.6-1.2.2-.8-.4-1 0-.8.8.2.6.6.9 1.3 1.1 1.6.5 2 1.3.8 1.3-1 0-.2.6 1.7 1.6 1 .5 1.7 1 1.7 1.1-.1.4-1.3.4-2.5.1-.7-.1-.9-.1-.9.2 0 .3.1.5.3.5.2 0 .2.1.1.4-.1.4.3.5 1.3 0l2 .1c.8.2 1.6.2 2.5 0 1.4-.3 2.4-.2 2.1.3l-.9.2c-.5 0-.9.2-1 .5-.3.5-.2.6.3.8.8.3 1 .8.3 1-.6.2-2.5-.4-2.5-.8s-1.2-.9-1.5-.6c-.2.2 2.6 2.3 3.9 3 .5.2 1.3.9 1.7 1.3.4.6 1 .9 1.4.9.4 0 .6.1.6.5 0 .6.4.7 1.1.2zm2-6.7c-.3-.2-.3-.3 0-.5.5-.3 1.4 0 1.4.5 0 .4-.8.3-1.3 0zm1.4-1.3c0-.2.1-.3.3-.3.1 0 .2.1.2.3l-.2.3a.3.3 0 0 1-.3-.3zm-14.3 6.7c0-.6-1.4-2.7-2.6-4-1.4-1.2-1.4-.8-.2.8.6.7 1.2 1.8 1.5 2.5.5 1.1 1.3 1.6 1.3.7zm-11.6 0c0-.8-4.3-2.1-7.4-2.4a6 6 0 0 1-2.7-.6c-1-.7-2.5-.7-3 0-.3.5-.6.6-2 .7-1.7 0-5 .8-5 1.2l1-.1 3-.2c.9 0 3.3 0 5.2-.2 4.3-.2 5.5 0 5.8.8.3.6.4.7 2.3.8a47.6 47.6 0 0 1 2.8 0zm11-4.8a9.5 9.5 0 0 0-2-2l-1.2-.8.6.8c1 1.5 2.7 3.3 3 3.3.3 0 .2-.5-.5-1.3zm-8.7.9-.8-.6c-.5-.2-1.2-.6-1.5-.9-1-.8-3.5-1.2-4.7-.8-.8.3-1 .3-1.4-.1-.4-.3-.9-.4-2-.4-1.4.1-1.6.2-1.9.7-.1.3-.4.7-.7.8-1.1.3.1.5 4.6.7a73.1 73.1 0 0 1 8.4.6zm2.8-1c-.2-.2-.6-.5-.9-.5-.3 0-.2.2.3.5.8.7 1.2.7.6 0zM42.4 48c1-.1 1.8-.3 1.8-.4 0-.3-.4-.2-3.2.2-.6.1-1.1.3-1.2.5-.1.1 0 .2.3 0l2.3-.3zm67.7-7c0-3.3 0-8.9.2-12.5 0-4.3 0-6.8-.2-7-.1-.3-.3-.4-.4-.3a352.7 352.7 0 0 0 0 25.7c.3 0 .4-1 .4-6zm48.3 4.3c-.1-1.2 0-1.3.7-1.7 1-.5 3.5-.6 9.9-.2 6 .4 13.1.7 13.5.6.2 0 .4-.3.4-.5 0-.3-.2-.3-.6-.2-.4.1-.5 0-.4-.3 0-.3.3-.5.6-.5.5.1.6 0 .8-3.3.2-4.1.1-21.5-.1-21.8a65 65 0 0 0-13.8.2c-8.4.8-7.7.7-7.7.5 0-.1 1.5-.4 3.2-.6l5.5-.7c2.6-.4 10.5-1 12-.8h.9v-5.4c0-4.4 0-5.6-.4-6.3-.2-.5-.5-.8-.7-.8-.2 0-.5-.3-.8-.6-.5-.5-.7-.6-5.8-.4-10.2.3-18.5.7-19.5.9l-.9.2v4.9c.2 3.9.1 4.8-.2 4.7-.2-.1-.4-1.3-.5-4.9V3.5h-1.2c-.7-.1-1.3 0-1.5.1-.1.2-.2 1.7-.2 3.8 0 2.3 0 3.6-.2 3.8-.4.2-.5-.7-.6-4.3a16 16 0 0 0-.3-3.4c-.4-.4-11.7 0-12.3.4-.3.1-.4 1.5-.4 4.8 0 3.6-.1 4.7-.4 4.7-.2 0-.3-1.1-.3-4.9V3.6h-2v4.8c0 3-.2 5-.4 5.1-.2.2-.3-1-.3-4.2l-.1-5c-.2-.6-.3-.6-2.3-.6-1.2 0-3.8 0-5.8-.2h-3.8c0 .2.2.8.7 1.3l.8 1.2c0 .2 0 .3.2.3s.3-.3.3-.6.1-.5.3-.4c.2 0 .4.7.5 1.6 0 1.2.3 1.6 1 2.4.5.5 1 .9 1.1.8.1 0 .2-1.1 0-2.4 0-1.5 0-2.2.2-2.2.4 0 .6.7.6 2.7 0 2.7.2 3.7 1 4.6l1 1.3c.3.4.5.6.7.6.1 0 .2-1.8.2-4 0-2.6.1-4.2.3-4.2.5 0 .6 1.5.3 5.2l-.2 3.7.7.8 1.8 2.2 1 1.4h1.8a46.4 46.4 0 0 1 9.6-1l7.8-.5c1.2 0 2 0 2 .2l-.1.2-3.3.4a161.7 161.7 0 0 1-16.6 1.6s.1.5.5.9l1.6 2c.5.7 1.5 1.9 2.2 2.5l1.2 1.2 7.6-.2c7.9-.2 9.9-.3 18-1.2a90628.3 90628.3 0 0 1 12.2-1.2c2.7 0 2.8 0 2.8.5s-.2.5-3.2.7c-8.4.5-15.5 1-15.3 1.2a110 110 0 0 0 14.5-.4c3.5-.1 3.9 0 3.9.3 0 .4-.5.4-4.9.4h-4.9l-.2 2.1a9.3 9.3 0 0 0 0 2.4c.3.4-.1 1.1-.6 1.1-.4 0-.5-.3-.6-1.9-.1-1 0-2.2.1-2.6.3-1 .1-1.3-.5-.9-.3.2-.4.5-.4 1 .2.9.3 4.4.4 8.4 0 2 .3 3.9.4 4.3.4.8.4.8 7.5.7 2.4 0 2.9 0 2.9.4 0 .2-.3.4-.8.4a1580.4 1580.4 0 0 1-9.8.1l-5.3-.3c-3.2-.3-3.1-.7 0-.7 2 0 2.4-.1 2.5-.5 0-.3.2-.4.4-.4.1.1.5-.2.8-.7.4-.7.5-1.4.5-3.1 0-3.1-.4-9-.7-9.2-.1-.2-1.6-.2-4.3-.1l-4 .2-.3.8c-.3.6-.3 2.2-.2 6.4V41l1.1.3c1.3.4 1.2.8-.4 1.2-1.3.3-2 .1-2-.7 0-.3-.2-.5-.4-.5-.3 0-.4-.3-.4-1.3 0-1.7.5-1.8.5 0V41l.3-1.2c.3-1 .2-11.8 0-12l-.7-.2c-.4-.1-.5 0-.5.7a19 19 0 0 1 0 4.5l-.3 1.8-.2-2.3c-.1-1.2-.2-2.4 0-2.6 0-.1 0-.5-.2-.8-.3-.6-.3-.6-.5.2v8.3l.1 7.6.8.8c.4.5.9.8 1 .7.2-.1.2-.7.1-1.4zM179 36l-2.1-.2c-3.4-.3-3.2-1.2.2-1 3.2.1 3.7.3 3.7.9 0 .5-.6.6-1.8.3zm-14-.3c-1.7-.2-2.2-.6-.9-.8 1.3-.2 4 .2 4 .6-.1.3-.8.4-3 .2zm1-20.9c-.4-.6-.8-8.9-.4-9.2.2-.3.4.8.6 5 .2 3.6.1 4.9-.2 4.2zm3.6-.5c-.2-1-.7-8.3-.5-8.8.3-1 .5-.2.6 1.8a44.8 44.8 0 0 0 .6 6.6c0 .9-.4 1.2-.7.4zm3.7-.6c-.2-1.3-.2-7.1.1-7.3.3-.2.7 7.6.4 7.9-.2.1-.4-.1-.5-.6zm-14.9 0c-.1-.4.2-8.5.4-8.7.2-.3.3.2.3 2 .1 4.6 0 7.2-.2 7.2s-.4-.2-.5-.4zm4.1-.2-.1-3.2c0-1.7-.2-3.1-.2-3.3v-.3c.5-.3.7.7.8 3.9.1 2.1.1 3-.1 3l-.4-.1zm14.3 0c-.1-.2.3-5.7.4-6.3l.3 1.5c.3 2.8-.1 5.7-.7 4.8zm-36.6-.7c-.2-.7 0-2.7.3-3.5.4-.9.5-.2.4 1.7 0 2.1-.4 3-.7 1.8zm4.6 0c-.3-.7-.2-4.5 0-4.3.4.2.7 4.1.4 4.4-.2.2-.3.1-.4-.1zm2.7-2.2c0-1.3.1-2.2.3-2.2.1 0 .2 1 .2 2.2 0 1.4 0 2.3-.2 2.3s-.3-1-.3-2.3zm33 1.6c-.5-.5.2-7.5.7-7.3a57.5 57.5 0 0 0 0 4c-.2 3.2-.3 3.7-.7 3.3zM177 5c0-.3 0-.4.1-.2v.5c0 .1-.2 0-.1-.3zm-5 39.7c0-.2-.3-.4-.5-.4-.4 0-.5 0-.2 1 .1.4.2.5.4.3l.2-.9zm-71.8-5.5c0-6.5-.2-9-.8-8.9a38.6 38.6 0 0 0 .4 14c0 .9 0 1 .1.5.2-.4.3-2.9.3-5.6zm-39 5.2c-.1-.1-.4-.3-.8-.3-.5-.1-.6 0-.5.3.2.5 1.3.5 1.2 0zm20-.9c0-.2-.1-.3-.3-.2-.2 0-.4.2-.5.4 0 .2 0 .3.2.3l.5-.5zm14.6-.4c.2-.7.2-5 0-9.8l-.2-4H94.4l.2 2 .2 7.2c0 4.9 0 5.3.4 5.2.3 0 .6-.3.7-.6zm59.8-5.1a24 24 0 0 0-.5-5.7c-.2-.1-.3 1.3-.3 5.1 0 5.2 0 6 .7 6 .1 0 .2-2.4 0-5.4zm-94.2 3.7c-.7-.9-3.7-2-5.7-2-1.7 0-2.8-.3-3.3-1-.2-.2-.3-.3-.3 0 0 .1.4.7 1 1.3 1 1 1.2 1 2.9 1.2 1.7.1 4.9 1 5.4 1.5s.5-.3 0-1zm40.6-9.5c.1-7.3.1-8-.3-7.9-.2.1-.5.4-.6.7v9.3c.3 10.4.6 9.7.9-2.1zM79 42l-.1-.6c-.2-.7-.8-.7-1.6-.2-1 .7-.5 1.2.6 1 .6 0 1-.1 1-.2zm62.1-.5c.2-.2.2-1.3 0-2.5v-4.8c.4-4 .2-4.3-3.7-4l-2.8.5c-.3.2 0 4.1.5 7.6.1 1.2.2 1.4.9 1.4.4 0 .9.3 1 .6.3.3.8.5 1.6.6.7 0 1.2.2 1.2.4 0 .6 0 .6.6.6.3 0 .6-.2.7-.4zm6.7 0 2.2-.2-.8-.7c-1-.9-1-1.3-.3-1.5.8-.2.2-.9-.6-.7-.7.1-.7.1-3.5-3.5-1.6-2-2-2-1.8 0 0 1 0 1.7-.4 2.9-.6 1.8-.5 3.7.2 4h1.6c.6-.1 2.2-.3 3.4-.3zm5.8-6.5c0-3.4-.3-6.5-.4-6.8-.2-.4-.8-.4-5.5-.4-3 0-5.4.2-5.5.2-.1.1 0 .4.1.6.3.3.8.4 2.7.3h2.5c.1.2 1.3.3 2.6.3l2.4.1v3.7l-.1 5.4c-.3 1.7-.3 1.8.4 2.4l.8.6V35zm-3.6 4.6c0-.2-.2-.4-.3-.4-.2 0-.2.2-.1.4 0 .3.2.4.4.4.1 0 .1-.1 0-.4zm1.3-9c-.3-.6-.6-.6-3.9-.6l-3.5.1c0 .3 3.9 5.2 5.6 7l2 2v-4c0-2.5 0-4.3-.2-4.6zm-95.9 7c.7-.2 1.2-.2 2.1 0 1.2.3 1.3.3 1.7-.2.3-.5.6-.6 1.1-.4.6 0 .8 0 1.1-.5.3-.4.3-.7.2-.7-.2 0-.3.1-.3.3 0 .4-1 .3-1.2-.2-.2-.5-.7-.5-1.9 0-.6.4-1 .4-1.2.2-.5-.4-1.5 0-2.4.7-.4.3-1 .6-1.4.6-.3 0-.7.1-.7.3-.3.3 1.8.3 3-.1zm86.9-2.4c0-.3-.1-.8-.3-1-.2-.3-.2 0-.2.8 0 .7 0 1 .2 1 .2-.2.3-.5.3-.8zm-84-2.5c0-.5-.5-.4-.6 0-.1.4 0 .5.2.4.2 0 .4-.3.4-.4zm-21-3.2c0-.1-.8-.2-1.7-.2-.9 0-1.8-.2-2-.4-.2-.2-1.4-.4-2.7-.5l-2.3-.1v-.8c0-.7 0-.7-1.3-.6-2.6.4-2.8.4-2.8 1.1 0 .6.2.7.9.7a7 7 0 0 1 1.8.3c2.2.7 10 1 10 .5zm2 .2c0-.1-.2-.2-.5-.2-.5 0-.6 0-.2.2.5.4.8.4.8 0zm97.2-.2c2.1 0 2.9-.2 2.9-.4 0-.8-.8-1-3.3-.9-3 .2-3.6.4-3.6 1s.3.8.8.6l3.2-.3zm18.7-1.2c.5-.4.4-.7-.4-.7-.6 0-.8.5-.4.9.2.2.4.2.8-.2zm-18.8-.9c1.5-.1 1.6-.2 1.5-.6-.1-.4 0-.5.4-.5.5 0 .6 0 .3-.4-.3-.3-.4-.4-.5-.2 0 .2-.3.3-.5.3-.3 0-3.4-3.3-4.2-4.6-.4-.7-.5-.7-2.3-.6a752.9 752.9 0 0 0-18.7 2.4 15.6 15.6 0 0 0-.3 4.2 222.2 222.2 0 0 0 24.3 0zM95 23.3c0-2.2-.1-5.8-.3-8l-.5-9c0-.5-.1-.8-.4-.8-.5 0-.5.6-.3 9 .2 6.9.2 7.6.7 8.2.5.6.5 1 .4 2.9-.1 1.5 0 2.1.1 2 .2-.1.3-1.6.3-4.3zm4 3.3c.3-2 .3-7.3-.1-11.7a62.6 62.6 0 0 1-.4-10c-.3 0-.5 4.3-.4 7l.1 8c0 5.8.1 7.5.4 7.5.2 0 .4-.3.4-.8zm-76.5-.4a3 3 0 0 0-.4-1.1c-.3-.6-.4-.6-.5-.2-.3.6 0 1.7.5 1.7.2 0 .4-.2.4-.4zm74.8-8.5a595.3 595.3 0 0 0-.4-12.3c0-.5-.5-.6-1-.2-.4.2-.4 1-.3 4.3l.4 9.2c.1 3.4.3 5.2.5 5.4.2.2.4.7.5 1.2 0 .4.2.8.3.8v-8.4zm-53.6 6.8c0-1 0-1-.7-.7l-.9.4c-.1 0 1.1 1.3 1.4 1.4l.2-1zm93.8-.2c-.1-.2-.3-.3-.5-.3-.1 0-.1.2 0 .4.5.4.8.3.5-.1zM28 24c0-.1-.2-.3-.5-.4-.3 0-.6-.3-.7-.5 0-.2-.3-.4-.4-.4-.4 0-.3.9 0 1.2.4.4 1.6.5 1.6.1zm17.2-.6c.7-1 1.1-2.6 1.2-3.9 0-1.1 0-1.2-.7-1.2-.8 0-.8-.2-1.2 4.7-.1 1.1.2 1.3.7.4zm-4.6-.1c0-.5-.8-.8-1.5-.5-.4.2-.4.2.1.6.7.5 1.5.4 1.4-.1zM23.2 23l-.1-.5c-.2 0-.3 0-.3.3 0 .5.1.5.4.2zm-2.3-1c0-.8-1.2-4.9-3.5-11.4-.7-2-1-2.6-1.5-2.7-.3 0-.5 0-.5.3 0 .5.8 2.9 1.2 3.5l.5 1.5c.1.5.5 1.6 1 2.5a9 9 0 0 1 .7 2.2c0 .4.9 3.1 1.5 4.6.2.6.6.3.6-.5zm114.9.2-.7-.8c-.6-.5-.5.1 0 .8.6.6 1 .6.7 0zm-21-.5 15.2-1.3c1.3 0 2-.3 2-.5 0-.5-3-4-3.7-4.1-.4-.1-.7-.4-.8-1.2-.2-.7-.5-1.3-1.2-1.8l-1-.7-.1 2.1c-.1 1.4-.3 2.3-.5 2.3-.2.1-.3-.6-.3-3 0-3 0-3-.8-4l-1-.8a21 21 0 0 0-.5 4 18 18 0 0 1-.4 4.3c-.2.1-.2-1.3-.1-4.7l.2-4.9-.8-1.2c-1.4-2-1.5-2.1-4.5-1.9-1.5.1-2.8.3-3 .5-.5.7-1.4 16.4-1 17 .2.2.5.3.8.2l1.6-.3zm4-5.3c-.2-.2-.3-2.1-.4-4.3-.1-3-.1-4 .1-4s.3.4.3.8l.3 4c.2 3 0 4.2-.4 3.5zm-3-4c-.2-1.8 0-2.5.2-2.1.3.3.5 4 .2 4l-.4-2zM101 20c-.1-1-.3-4.9-.3-8.6 0-3.8-.2-7-.3-7l-.4.1a31 31 0 0 0 0 10.1l.3 6.5c0 .5.1.7.4.7.4 0 .5-.2.3-1.8zm-57 0v-1.8c0-.2-.1-.3-.3-.3-.2-.1-.2.1-.1.5.2.8 0 .8-1.2.7-.5 0-.6.1-.6.8 0 .6.2 1 .8 1.2 1.2.7 1.4.6 1.4-1.2zm-21.2.5c0-.4-.5-.6-.8-.4-.2 0-.2.2-.1.4.2.3.9.3.9 0zm15-2c0-4 .4-9.8.7-11 .3-1.2.9-1.4.8-.3a129 129 0 0 0-.4 9.6c0 .4.3.5 1.2.4 1 0 1-.1 1.3-1 .2-1 .7-.8.7.4l.1 1 .6.1c.4.2.4.1.2-.2-.6-.6-.4-1 .4-1 .5 0 .8-.1.8-.3 0-.1-.3-.2-.8-.2s-.8-.2-1-.5c-.1-.5.4-.9 1.4-.9.8 0 1-.6.2-1-.3-.2-.6-.5-.6-.7 0-.6 1.2-.7 3-.4 1 .2 1.9.3 2 .2.4-.4-.8-1-2.5-1.2-2.1-.2-2.4-.3-2.1-1 .1-.4.5-.4 2-.3 1.1 0 2.2.2 2.5.3.4.2.5.2.4-.1-.1-.2-.8-.6-1.7-.8-.9-.2-1.5-.5-1.5-.7 0-.6 2.5-.5 4.1.2l1 .4 1.1-2.1L53 5h-3.6c-4 .2-4.7.2-11 .1-5.2 0-5.8 0-6.4.5-.6.6-.2.8 1.3.8 1.4 0 2 .4 1.8 1 0 .3-.6.4-1.8.4-1.3 0-1.7 0-1.7.4 0 .3.4.4 1.6.4 1.9 0 2.7.3 2.7 1 0 .5-.3.5-2 .6-2.4 0-2.3.6.1.6l2 .1c.5 0 .5 1 0 1.2l-2 .2c-1 0-1.3 0-1.3.3.1.2.9.3 2.3.4h2.2l-.1 1-.2 1.5c0 .4-.3.5-2 .5l-2.6.2c-.5.2-.1.2 1 .1 1.7-.1 2 0 2.1.3v1c0 .2.1.5.5.6.7.3.9.8.4 1.2-.3.3-.2.4.5.8l1 .5s.2-1 .2-2.2zm9-11.3-3.6-.4c-1.8-.2-2.3-.3-2.3-.6 0-.5 2.8-.7 5-.3l2.4.4c.7.1 1 .3.9.6-.1.6-.7.6-2.4.3zM41 19.6c0-.8 0-.9-.9-1-1-.2-1.1-.2-1.2.6 0 1.3 0 1.4 1 1.3 1 0 1-.1 1-1zm62.4-5.7c.1-6.4 0-9.2-.6-9.4-1-.3-1 .3-1 7.4 0 3.8.2 7.1.2 7.4.2.3.3.4.8.2s.6-.3.6-5.6zm29.5 4.7c-.2-.2-.4-.4-.5-.3 0 0 0 .3.2.5.2.3.4.4.5.3 0 0 0-.3-.2-.5zM47 17.3c0-.2-.3-.5-.8-.7-1-.3-1-.2-.2.6.7.6 1 .7 1 0zm-25.4-.9c-.1-.7-.9-1.4-1.2-1-.2.1.6 1.7 1 1.7.1 0 .2-.3.2-.7zm26.2-1.1c0-.4-.3-.6-1-.9-.6-.1-1.2-.2-1.3-.1-.2.2.2.7.7.7l1 .4c.6.5.6.5.6-.1zM28.1 15c0-.1-.2-.3-.4-.3s-.5.2-.5.3c-.1.1 0 .3.3.3s.6-.2.6-.3zm7.2-.5c-.2-.2-.7-.2-1.7 0l-1.4.2h1.7c1.1 0 1.6 0 1.4-.2zm94.1.1-.3-.3c-.1 0-.2 0-.2.2l.2.2h.3zm-108.6-1c0-.1-.2-.3-.5-.4-.4 0-.6.5-.2.8.2.3.7 0 .7-.3zm4.1-.3c0-.3-.1-.4-.3-.3l-.2.4c0 .2 0 .3.2.3s.3-.2.3-.4zm3.2-.3c0-.3-.2-.4-.6-.3-.8.1-1 .7-.1.7.4 0 .7-.1.7-.4zm21.5-.4c.1-.1 0-.2 0-.2-.2 0-.4 0-.4.2s.1.3.2.3c0 0 .2-.1.2-.3zm77.7-.6c0-.4-.5-1-.8-1-.4 0-.3.7 0 1 .5.5.8.4.8 0zm-77-1.2c0-.1-.2-.3-.4-.3-.4 0-.5.1-.2 1 .2.6.2.7.4.2l.2-.9zm-29.8.6c0-.4-.8-.7-1.3-.5-.4.1-.4.2-.1.5.4.5 1.5.5 1.4 0zm1.9-.1c-.1-.2-.3-.2-.4-.1-.2 0-.2.2-.1.4 0 .1.2.2.4 0 .1 0 .2-.2 0-.3zm2.3-.1c0-.2-.1-.3-.4-.4-.3 0-.5 0-.5.4s.8.4 1 0zm3.6-.5c0-.4 0-.5-.8-.3-1.1.2-1.3.3-1.1.7.3.4 1.8.1 1.9-.4zM20 9.2c0-.5-.8-.7-1.3-.3-.7.6-.5.9.4.8.6 0 1-.3 1-.5zM109.8 8c-.1-.4-.2-.1-.2.6 0 .6 0 .9.2.5V8.1zm-88 .6c-.2-.2-.4.2-.2.5s.2.3.3 0v-.5zm2.7 0c0-.2-.1-.4-.3-.5-.4-.1-1 .4-.8.7.3.4 1.1.2 1.1-.2zm3.8-.2c0-.3-.2-.4-1-.3-1.3 0-1.4.7 0 .7.8 0 1 0 1-.4zm-9.1-2.8c.4-.4-1-.7-2.8-.5-1.7 0-2.2.4-1.6.9.2.2 4-.1 4.4-.4zm2.5-.5c0-.1 0-.3-.2-.3s-.3.2-.3.3c0 .2.1.3.3.3.1 0 .2-.1.2-.3zm4.5-.2h-1.5c-1 0-1.6 0-1.6.2 0 .3 2.8.1 3.1-.2zm95.5-.3c-.2-.5-.8-1-.8-.7 0 .4.6 1.2.9 1.2v-.5z"/>
</svg>
