<?xml version="1.0" encoding="utf-8"?>
<svg xmlns="http://www.w3.org/2000/svg" xmlns:svg="http://www.w3.org/2000/svg" version="1.1" viewBox="0 0 223 144">
	<title>An old man holds a large hamper that is resting on the floor. Pigling Bland watches on while standing next to a kettle on a stove.</title>
	<path d="M52.5 143c-.3-.4 0-.6 1.1-.6.6 0 1 0 1-.2 0-.3-1.6-.6-2.2-.4l-.4-.1c0-.2.3-.3.6-.3s.6-.3.7-.7c.3-.6.5-.7 1.4-.7 1 0 1.1 0 .4-.2l-2-.3c-1.2 0-1.7-.4-.8-.6l3.3-.3c2.3 0 2.6 0 2.7-.5 0-.3 0-.4-.7-.4-.5 0-.8 0-.8.2 0 .5-1.3.5-3.7.1-2-.3-2.5-.3-3.2 0-.7.3-1.7.3-4.8.1h-6.6c-3 .1-4.6 0-4-.5.7-.4.1-.5-2.5-.8-2.6-.2-5.6.1-5.6.6 0 .2.4.3 1 .3a630.8 630.8 0 0 0 3.9.3c.2.2-2.8.2-4.7 0-1.3-.1-1.3-.2-.9-.5.5-.4.5-.4 0-.4-1.5.2-2.7-.4-2.4-1.1.3-.6 1.7-.8 7.4-.9 4 0 5.2 0 5 .2-.2.2-1.1.3-2.1.4-5 0-6.3.1-6.1.2.2.3 9.8.4 10.4.1.8-.2.8-.7 0-.7-.3 0-.4-.2-.4-.6 0-.3-.2-.5-.5-.4h-1.1c-.6 0-.6-.1-.1-.5.4-.3.3-.4-1.4-.4-1 0-2.3-.1-2.7-.3l-3.9-.4c-2 0-3.1-.1-3.1-.3 0-.2-.7-.3-2-.3-1.8 0-3-.3-2.7-.6.4-.4 5-.7 7.8-.6h3.6c.2-.1 0-.5-.4-1s-.7-1.3-.7-1.7c0-1.2 1.1-5.7 1.6-6.3.4-.6.5-3.3.2-7.7-.2-2.2-.2-2.5.6-4.7 1.2-3.4 1.2-3.6.7-4-.4-.2-.5-.5-.3-1 .4-1.6 1-8.9 1.1-14.7.3-9.7.3-10.5-.2-10.5s-.7 2-.9 12c0 4.8-.2 10-.4 11.5-.3 2.2-.3 3 0 3.4.2.3.2.5 0 .6-.2.1-.4.5-.5.8-.3.6-.4.6-3 .7a180.6 180.6 0 0 0-16-.5c-9.5 0-11.2-.2-11.2-.9a302.7 302.7 0 0 0 27 0 7 7 0 0 0-2-.4c-2-.2-2-.6 0-.6.8 0 1.5 0 1.4-.2-.3-.2-6.5-.3-6.5 0 0 .1.2.2.5.2 1 0 .4.3-.8.4l-6 .3c-4.2.2-4.8.1-5.4-.3L9 106c-1 .1-1.4 0-1.4-.3 0-.2 1.1-.2 3.6-.1s3.5 0 3.2-.1c-.2-.2-1.2-.3-2.2-.3-1 0-1.7 0-1.6-.3.2-.2 7-.3 7.7 0 .7.2 0 .6-1.3.6-2 0-1.4.2 1.5.4 2.6.1 2.6.1 2.4-.4-.2-.6.1-.7 2.5-.6 1.2 0 1.2 0 .5-.3-1.2-.5-.8-.7 1-.7 1 0 1.8-.1 2-.3.3-.5.4-3 .7-16 .2-6 .2-11.3 0-11.6-.2-.7-.3 1.5-.7 12a71.2 71.2 0 0 1-1 14.4c-.3 0-.4-3.4-.1-7.8.2-2 .4-7.7.6-12.5.3-7.9.3-8.8-.1-10-.5-1.6-.7-3-.9-7.4-.1-2.8 0-3.2.6-4.9l.9-3c.2-1.3.7-2.4 1-2.4.2 0 .5-.5.8-1l.8-1.2c.1-.1.5.3.8.9l.5 1-.5 1.3-.9 2c-.8 1.8-1.5 4.4-1.7 6l-.4 2.3v.6l.4-.2.5-1.5c.9-1.8 5.6-5.4 7-5.4l1.3.4 1 .4c.5 0 1-1.2.8-1.8 0-.5.1-.7.9-1 1.3-.5 1.4-.5 1.6.1.2.7 1.2 1 1.5.4.2-.3.7-.4 2.8-.4 1.5 0 2.7 0 2.8-.2 0-.2-.6-.9-1.5-1.7-1-.7-2-1.7-2.3-2-.7-.7-.8-.8-2-.6-3 .5-4.4.6-4.4.3 0-.2.2-.3.4-.4 1-.3 3.1-.7 4.4-.8 1.5-.2 1.5-.2 2.8 1 1.3 1.1 2 1.2.8 0-.4-.4-.6-.8-.5-1 .1-.1 1.7.8 2.5 1.6l.7.3c.3-.4-1.5-3-4.7-7.2-1.8-2.3-1.8-2.5-1.1-3 .6-.6.7-.8.3-1.7-.2-.6-.3-.7-1-.4-.6.2-1.1.7-1.4 1.3-.6 1.2-1 1.5-1.4 1-.1-.3-.4-.2-1 .6l-1.6 1.9c-.3.5-1.2 1.4-1.9 2-1 1-1.3 1-1.6.8-.6-.4-.5-1 0-1.4a43 43 0 0 0 4.8-6.3c.4-.7.5-1.6.4-5.8l-.3-10.3c-.3-3.6-.3-5.4-.1-5.6.2-.2.3.3.4 1.7.5 6.2.7 11 .7 13 0 2.4.3 4.7.5 4.7l.8-1c.8-1.1 1.3-1.2.6 0-2 3.3-2.8 4.8-2.1 4.6.2 0 1-1.2 1.7-2.5 1-1.8 1.4-2.6 1.4-3.4 0-.7 0-1.1-.2-1.1 0 0-.2 0-.2-.2 0-.5.2-1 .6-1 .2 0 .5-.3.6-.7l.6-1.2.2-3.5c0-5.8 0-8 .3-8 .1 0 .2.7.2 1.6 0 2.8.4 6.8.6 6.8a19.6 19.6 0 0 1 4.9-5.7l3.8-3.5c1.2-1.2 3-2.6 4.4-3.4 2.4-1.5 6-2.8 6.2-2.4 0 .1.5 0 1-.3l1-.5c.3 0 0 1.3-.3 2l-.6 2.1-.6 3c-.5 2.8.2 5 1.7 5.7l1 .6 1 .5c2 .4 2 1 .3 2.8l-1.4 1.4.1 3c0 2.6.2 3.2.7 4.1l1 2c.5 1.2 1 1.3 1.1.3 0-.4.2-.8.4-1 1.1-1.4 1.5-3.1 1-4.5-.2-.5-.4-.6-.9-.5-2 .5-2 .5-2 0 0-.3.5-.6 1-.7.7-.2.8-.3.8-1 0-.4.3-1.3.6-1.8a5 5 0 0 0 .5-1.9c0-.6.1-.8.5-.8s.6.2.7.7c.1.4.4.6.7.6.6 0 .9.5.4.7-.3.1-.8.7-1.2 1.3l-.8 1.2.5 1.3c.4 1 .5 1.6.4 2.7-.1 1.3 0 1.5 1 3 .7.8 1.3 1.5 1.6 1.5.5 0 .5.5 0 4.6l-.1 1 .4-.9c1-2 1.4-2.7 1.9-2.8.6-.2 1.4-.8 1.4-1.3s.4-.4 1 .2c.6.7.6 2.8-.2 5.6-.5 2.2-.5 2.8.4 2.2.3-.2.5-.9.6-2.4.1-1.4.3-2.1.6-2.2.3-.1.3.2.1 1.8-.1 1.8-.1 1.9.5 2l.5.3-.7.5c-.4.3-.7.7-.7 1 0 .6 0 .7.7.4.8-.4.8-.6 1-4 .2-1.8.1-3-.1-4-.3-1-.3-1.3 0-1.9.2-.4.3-1 .2-1.6-.2-.8-.3-.9-.8-.8-.6.2-.7 0-.9-1-.1-.7-.4-1.4-.5-1.4-.5-.2-1.1 1.3-1.3 2.9-.1 1-.3 1.2-.7 1.3-1 .3-1 0-.3-1.5.6-1.4.4-2-.3-1-.1.4-.4.6-.6.6-.5 0-.4-.1.2-1.3.2-.5.6-1.4.7-2 .3-.9.3-1-.2-.8-.7.2-.7-.3 0-2.4.3-.8.5-1.6.4-1.7-.2-.2-1.7 4.4-1.7 5.4s-1.2 4-1.7 4c-.4.1-.5 0-.4-.3 1.5-5.1 1.6-6.6.8-8-.4-.5-.6-1.2-.6-2.1 0-1.3 0-1.4-.6-1.4-.4 0-.7 0-.8-.2 0-.1-.4-.3-.8-.3-1 0-2-.8-2.3-1.9a7.5 7.5 0 0 0-1.9-3c-1-1.1-1.5-2-1.8-4-.4-2.9-.3-3.7.4-4.8.8-1.2.8-1.4.3-1.4-.3 0-.4-.1-.3-.4.1-.3 0-.4-.2-.3l-.8.3c-.3.1-.4 0-.5-.4 0-.3-.4-.8-.9-1-.7-.4-.7-.6-.7-1.8 0-1 0-1.3.5-1.4.4 0 .4 0 .3 1v1c.2 0 1.7-1.5 1.7-1.7 0-.4.6-.4 1 0 .4.5 2.4 1.4 2.6 1.2 0 0-.2-.7-.6-1.3l-.7-1h-1.3c-1 .2-1.3.2-1.3-.1 0-.4 1.5-1 2.6-1 .4 0 1-.4 1.7-1.2C72 3.7 73 3.1 74.6 3c.7-.1 1.3-.3 1.4-.5.2-.3 3 0 3.7.5.4.2 1 .3 1.4.2.6-.1 1 0 1.7.5 1.4 1 2.6 2 2.6 2.5 0 .4 1 2.2 2 3.8.5.7.9 1 1.3 1 1.4 0 1 2.1-.8 3.6-1 .7-1.2 1.1-1.3 2.1-.2 1.2-.8 1.8-1.5 1.5-.1 0-.5 0-.6.2-.2.2-1.2.4-2.2.5l-1.8.2 1.2.3a4 4 0 0 0 2.1 0c1.1-.2 1-.2 1 .2 0 .2-.1.4-.3.5-.2 0-.3.3-.4.5v1c0 .6-.4 1-1.5 1.9-1.2.8-1.4 1.1-1.2 1.4.2.2.3 1.6.3 3.4 0 2.5 0 3.3.5 4l.6 1.8c.2.7.4 1 1.5 1.8 1.4.9 1.8 1.3 1.3 1.3-.2 0-.3.4-.2 1.2v1.2c-.2 0-.3.2-.3.5s.1.5.2.4c.6-.3 1.5 2 1 2.6-.2.1-.6-.2-1.1-.6l-.9-.9.2 2.8c0 2 0 2.8-.2 3-.5.3-.3 1.6.3 2.5a21 21 0 0 0 2 2.3c.7.7 1.5 1.9 1.8 2.5.4 1.2.5 1.3 2.5 2a22.9 22.9 0 0 1 7.3 4.2c2 1.4 2.3 1.8 2.1 2.6-.1.7 0 .7.6.7.5-.1.7-.3.8-.8 0-.4.3-.7.5-.9.2 0 .3-.4.2-.9-.2-1.1.7-1.8 1.9-1.4.8.2 1 .2 1.6-.3.8-.7 1.5-.5 2 .5.7 1.6 1 1.7 3 1.7 1.8.1 2.1.2 2.2.6 0 .3-.2.5-.7.7-.8.3-1.4 1.3-1 1.5 2.1.8 2.1 1.6 0 2.4-.9.3-1.8 1-2 1.3-.3.3-.7.6-1 .6a2 2 0 0 0-1 .4c-.3.2-.8.4-1.2.4-.4 0-1 .4-1.6.9l-.9.8.8.5 1.6 1.5 1 .8 2-.9c2.1-1.1 2.6-1.1 3-.3.2.6.4.7 1.7.7 2.1 0 2.3.4.5 1.8L113 77l1 .7c1.2.4 1.2.4.7 1l-.9.5c-.6 0-.6.8 0 2.2l2.1 4.3 1.4 2.9.1 3.3c.1 2.6 0 3.7-.3 4.6-.4 1-.3 1.2.1 2.2.3.5.5 1.2.5 1.5l.4 2 .3 1.6h1.2c.7 0 1.3.1 1.3.3l-.4.2c-.2 0-.4.1-.4.3 0 .1.6.3 1.2.3h1.8a26 26 0 0 0 5.5-.6l-.8-.4c-.4 0-.8-.3-.8-.4 0-.4-.6-.3-.9.2-.2.2-.4.3-.7.1-.4-.3-.1-1.6.4-1.6.2 0 .3-.8.3-2.8 0-2.2.2-2.9.4-2.9s.6-.3.8-.7c.2-.4.7-.7 1-.7.5.1.6-.7.3-4.5-.1-2.6-.5-3-.5-.6 0 2.8-.3 4.3-.9 4.5-.3 0-.5.3-.5.6 0 .6-.4.9-.5.3v-2.7c.2-1.3.3-5 .4-8.4 0-3.3.2-6.2.3-6.4.3-.7.7.8.5 1.8-.1.6 0 .8.1.7.2-.1.3-1.6.3-4 0-4.2.2-6 .7-6.2.3 0 .4.8.2 4.4v5c.2.3.4 4 .5 8.4 0 4.4.2 8 .3 8h.3c.3-.2.2-25.3 0-27.4-.2-1.3-.1-1.6.2-1.6.3 0 .4.7.5 4 .2 3.3.3 16 .2 22.1 0 3.2.4 2.4.6-1 .1-3 1-7.6 1.5-8.7.2-.3.3-2.2.3-4.2v-4c.2 0 .2 1 .2 2.2 0 2.7.3 5 .6 5 .1 0 .2-4.2.2-9.3 0-6.1 0-9.4.3-9.6.3-.3.7 1 .4 1.5a39.9 39.9 0 0 0 .5 10.5l.2 4.2c.4 4.2.5 19.7.1 20 0 .1-.3 0-.5-.3-.3-.4-.4-.4-.5 0-.1.2-.4.4-.6.4-.3 0-.4.3-.2 1.5.1 1 0 1.5-.2 1.7-.4.2.2.6 1.4.9l.7.1-.2-1.7c0-1.4 0-1.7.3-1.8.4-.2.5-.6.4-3.3 0-2.1 0-3.3.3-3.5a47.6 47.6 0 0 0 0-15.5c-.4-.4-.4-.8-.2-4.3.3-3.5.4-11.8.3-25.4 0-4.7-.1-5.4-.5-5-.5.5-1.2 7.8-1.2 13.3 0 4.3-.2 6-.6 4.6a119.6 119.6 0 0 1 1-18c.1-1 .3-1.3.8-1.4.6-.2.7-.4.7-1s.1-1 .3-1c.1 0 .2 5.5.2 17.3 0 16.3 0 23 .6 24.1.2.6.2.3.3-6.2.1-4.9 0-5.5-.5-5.5-.3 0-.4-.2-.3-.5.5-1.3.7-3.7.8-10.4a145 145 0 0 1 .7-10.8l.5-3.2c.1-.2.3-1.4.3-2.7l.2-6.6c.5-8.3.7-16.5.4-16.3-.2.1-.3.4-.3.7l-.4 1c-.3.4-.4 3-.5 12l-.2 11.9c0 1.2-.3 2.1-.7 2.1-.4 0-.4-.2-.3-1.5.2-1.6.3-6.5.6-20.2.1-4.1.3-9.4.5-11.6.4-3.7.4-4.2 0-4.4-.3-.3-.3-.4 0-.5.2 0 .4-1 .6-2.8.2-3.2.2-3.1 0-4-.3-.7.2-.7 1.1 0 .6.5.7.7.7 2.7 0 6-.1 10.3-.4 10.3-.2 0-.2-2-.2-5.4 0-3.2-.2-5.5-.3-5.5-.3 0-.5 2.2-.7 8.3a64.3 64.3 0 0 1-.2 5.8c.2 0 .4-.5.5-1 .2-.6.4-1 .7-1 .3 0 .3.5.3 3.3 0 4-.3 15-.5 15.3 0 .2-.4 8.7-.4 13.2 0 2.5-.1 3.2-.4 3.2-.2 0-.4-.3-.4-.8v-.7a713 713 0 0 0-.3 43.9c.1 6.8.3 8.2.8 6.5.2-.6.2-1.5 0-2.8a6 6 0 0 1 .4-3.6l.9-2a90 90 0 0 0 5.1-10.4c1.1-1.7 1.6-3.4 1.1-3.5a9 9 0 0 1-1.2-.8l-1.8-1c-.7-.4-.8-.6-.6-1.2 0-.6 0-.8-.7-1.3l-1-.6c-.5 0-1-1.1-1.2-2.4-.3-1.6.2-2.7 1.2-3.1.8-.3 1.6-.1 1.6.3 0 .2.9.3 1.7 0 .3 0 .7-.5 1-1l.8-2c.3-.7.6-1.8.6-2.6 0-1 .2-1.9.8-3 1-2 1.4-2.4 2.3-2.3.5.1.6.3.6 2 0 2.4.6 3.7 1.8 4 .7.3 1 .3 1.3.1.1-.2.5-.3.7-.3.2 0 1-.8 1.5-1.8 1.3-2.1 2-2.5 2.8-1.6.3.3.5.7.5.9l.5 1.5c.7 1.3.6 3.8-.1 5.2-.3.6-.5 1.7-.5 4.6 0 3.6-.1 3.9-.8 4.9-.6 1-.6 1-.3 1.9l.6.8a30.5 30.5 0 0 1 4.5 14.7c0 1 .1 2.4.4 3.2l1 4.5a15 15 0 0 1-.1 8.4 9 9 0 0 0 0 4.3c.1.8.7 1 1.6.5l.7-.5v-4.6c0-3 .1-4.9.3-5.2.2-.3.3.5.3 3.6l.1 4.3c.3.4.6 0 .6-.8 0-1.2.2-2 .4-2s.3.4.3.8.2 1.1.4 1.5c.2.4.4 1.2.4 1.8 0 1 .5 1.7 1.5 2 .4 0 1 .2 1.4.4.4.3 1 .4 1.2.3.3-.2.4 0 .4.4 0 .3 0 .5.2.5s.5 0 .7.2c.3 0 .4 0 .4-.4 0-.2.1-.6.3-.8.5-.5 0-11-.4-10.8-.3 0-.4 1.7-.2 1.9.4.2-.1 7.8-.5 7.8-.2 0-.2-1-.1-2.9.1-2 0-3.1-.2-3.8-.5-1.4-.7-.7-.8 1.8 0 2.6-.3 4.5-.6 4.5-.4 0-.2-3 .3-6.3.6-3.9.6-4-.6-4-.8 0-2.2-1.2-2.2-1.9 0-.2-.4-.5-.8-.7-.7-.2-.8-.4-.7-1 .1-.6 0-.7-.7-1-.9-.3-1-1.1-.3-2.1.4-.6.6-.6 1.7-.5h1.2l.1-.6c.2-.3.4-.3 1 0l1.4.2c.5 0 1 .3 1.5.7l1 .7c.3 0 .4.3.4.6 0 1 1 1 6.8.7 5.6-.4 17-.4 17.4 0 .2.2.2.3 0 .3a193.8 193.8 0 0 0-17.6.7c-.3.2-.1.3.6.5 1.4.4 1 .7-1 1-2 .2-2.6 0-2.4-.6.2-.7-.2-.8-2-.5-1.8.3-3.5.3-4.6 0-.8-.1-1-1.1-.1-1.3 1-.3.5-1.7-.6-1.7-.2 0-.4.2-.4.5 0 .5-.8.5-2-.1-1-.5-1.2-.5-1.2.1 0 .8.7 1.2 1.4.9.6-.3.7-.3.8 0v.7c0 .2.1.4.5.6 1 .4.8.7-.4.8-1 0-1 0-.6.2l1 .9c.3.5.4.5 1.1 0 1.2-.6 2.5-.8 4.6-.7 1.9.1 2.6.6 1 .6a43.6 43.6 0 0 0-2.5.2c-.8 0-.5.6.3.6.3 0 1 .3 1.3.8.8.8 0 .8 8.3.4l9-.4c6.3-.3 7.9-.6 7.9-1.2s.4-.8 1-.4c1 .5 1.2 0 .3-.6-.7-.6-.7-.7-.3-1.3.4-.6 2.4-1.4 2.9-1.1.4.2.2.6-.3.6s-1.6.7-1.6 1c0 .4 2 1.4 2.7 1.4.7 0 1.2.6 1 1-.2 0-3.5.6-5.4.7a369.3 369.3 0 0 1-19.8 1.3c-.3 0-.5 0-.5.2l.4.2c.3 0 .7.2.9.5l.2.2c-.3-.5.8-.7 4-.8a263.7 263.7 0 0 0 17.4-.8l13.2-.5c1.6-.2 2-.1 2 .2 0 .3-1.4.4-8.4.8a391 391 0 0 0-15.5 1c-2.8 0-11.9.7-12.1 1-.1.1-.4 1.2-.5 2.4l-.4 2.5c-.4.5-.5-.5-.4-2.2.3-2 .2-2.7-.5-2.7-.6 0-1 1.3-1 3 0 1.6-.4 3.1-.7 3.1-.2 0-.2-1 0-2.7 0-2.9 0-3.4-1-3.4-.4 0-.5.2-.4.6.5 1.3.3 6.3-.2 6.3-.1 0-.3-1.3-.3-3l-.4-3.2c-.3-.3-.4 0-.9 4.5-.4 4-.4 4.6.6 4.2l10-.4c1.7 0 .5.2-4 .7-5.2.5-6.2.6-6.2 1h2.2c2-.2 2.1-.2 1.8.3-.4.5-.4.5 1.8.3a300.4 300.4 0 0 1 13.1-1c2.7-.2 4.7-.3 6.6-.2 1.2 0 1 0-.8.3l-6 .5a56.4 56.4 0 0 0-9.8 1.4l4.3-.2c2-.1 5.5-.3 7.8-.6 5.4-.5 9.5-.5 9.3 0a452.7 452.7 0 0 0-20.2 1.5c-1.2.1-1.5.2-1.4.6 0 .7-1.3 1-6 1.2-3.9.2-4.4.2-4.4.6 0 .4-.4.5-2.9.8-3.2.3-4 .5-3.8.7.3.2 4.3 0 8.1-.3l3.4-.3c.1 0 1 0 2-.3l2.5-.4c.9 0 .7.8-.2 1-.8.1-1.4.6-.8.6.1 0 .3.2.3.4s-.7.6-1.4 1c-.8.2-1.3.5-1.3.6.2.2 3.8.2 5.1 0 .9-.1 1.3-.1 1.3.1s-.2.3-.4.3c-.5 0-1 .9-.8 1.2h2c0 .4-3.6.8-4 .5-.5-.3-.3-.6.4-.8 1.4-.4.5-.6-1.7-.5-3.4.3-4.9-.5-2.8-1.4 1.3-.5.8-.8-1-.6-.8.2-2 .3-2.6.3-1 0-1.3-.1-1.4-.6 0-.4-.3-.5-.6-.4-.4.2-7 .7-8.3.7-.7 0 0-.6.8-.8.5 0 .9-.3.9-.4-.1-.5.5-.9 1.8-1.1l1.1-.3h-1.6c-1 0-1.7-.2-2-.4-.1-.3-.2-.5-.1-.6 0 0 1.5-.2 3.1-.2l11.9-.8-.3-.5c-.3-.3-1.3-.3-6.9.1l-8.1.6c-1.4.2-1.7.1-1.7-.2l.2-.4 2-.3 5.2-.4c4-.2 5-.5 2-.5a14 14 0 0 1-3.5-.5c-1-.4-1.8-.5-2.8-.3-1 0-1.6 0-1.9-.2-.4-.4-.4-.4 0-.6.6-.4.3-1.1-.6-1.3l-1.3-.4c-1-.4-1.4-.3-1.4.5l-.4 1.9a6 6 0 0 0-.2 2.8c.2 1.6.1 1.7-.4 1.7-.3 0-.8-.3-1-.7-.2-.4-.7-.8-1-1-.8-.2-.8-.7 0-3.2.5-1.2.5-1.3 0-1.6-.6-.4-1.5-.5-1.5-.2l.6.9c.5.6.6.7.3 1.2-.3.4-.8 0-1.3-1-.3-.5-.3-.4-.5.6a25 25 0 0 1-.6 2.5l-.5 2.7c-.2 2.6-.4 3.3-1.1 3.4-.5.1-.6.2-.4 1 .1.7 0 1-.3 1-.2.2-.4.5-.4 1 0 .3-.3.9-.8 1.3-.7.6-1 .8-1.7.6-.4 0-1-.3-1.1-.5-.2-.2-.4-.2-.5-.1-.6.5-2.4.8-5.2 1-3.5 0-10 1-10.7 1.5-.7.5-3.5.9-3.2.5a2 2 0 0 1 1-.4c.3 0 .6-.2.6-.4-.1-.4.5-.5 2.5-.7 3.5-.3 11.7-1.7 11.6-2-.1-.2-1-.1-6.4.4-1.5.1-2.2 0-2.4-.1-.2-.4-2-.1-3.3.5-1 .5-5.3 1.6-6.5 1.6-.4 0-.6-.2-.6-.4 0-.3-.4-.4-1.3-.5h-1.5l-9.4.1c-9.1 0-12.2-.3-6-.6 1.9 0 3.7-.3 4.4-.5 1.5-.6 4.6-.9 4.4-.5l-1 .2c-.7 0-1.2.4-.9.8.2.2 6.3-.5 6.8-.8.8-.4.3-.7-.8-.5-.5.2-1.6.3-2.4.2h-1.5l1.4-.2a424.3 424.3 0 0 0 16-1.7c0-.3.4-.4 1.5-.6 1 0 1.7-.3 1.8-.4.1-.2-.4-.2-1.5-.1-5.3.5-5.5.5-5.5.1a31.3 31.3 0 0 1 7.6-1c.2 0 .3.3.2.5-.1.4 0 .5.7.4.6-.1 1 0 1.2.3.2.3.3.4.3.2l.8-2 .8-2c0-.3.3-1 .7-1.9.6-1.4.7-1.5.4-3.2-.3-1.4-.5-1.8-1.3-2.6a15 15 0 0 1-2-2.9c-1-1.8-1.1-1.9-2.4-2.3l-1.6-.4c-.2 0-.5-.1-.7-.3-.5-.5-1.5-.7-5.2-1-2.2-.2-3-.4-3-.7 0-.2-.4-.3-1.4-.3-2 0-1.9-.5.2-.7 2.7-.3 3.6-.5 3.6-.7 0-.3-2.4-.3-4.4 0-1.6.3-5.1.5-7.3.6-1 0-1.3 0-1.3.4 0 .3.4.4 1.7.4 1.4 0 1.5 0 .9.2l-3.2.4c-2.2.2-3.1.6-2 .9.3 0 .5.2.5.3 0 .1 2.3.2 5.1.2 4.7 0 5.1 0 5.2.4 0 .4-.2.5-2 .5-1.9 0-8 .5-12 1-.8 0-1.3 0-1.3-.2 0-.1.8-.3 1.8-.4l2.6-.3c.8-.2.8-.2.5-.6-.4-.4-.8-.4-2.9-.1-2.4.3-2.4.3-3.6 1.6l-2.1 2c-.5.4-1.2 1.5-1.7 2.4-.5.9-1.4 2-2.5 3-.9.8-1.8 1.9-2 2.3-.1.6-.7 1.2-1.5 1.7-1.8 1.1-5.6 5-5.4 5.3.1.2.6.3 1.4.2.9-.2 1.1-.1 1.1.2 0 .2-.2.4-.6.4-.3 0-.8.2-1 .4-.4.2-1 .4-1.4.4-1.2 0-.7.3.8.4 1.4.1 2 .5 1.3.8-.8.3-3-.1-3.5-.6-.3-.5-.4-.4-1.1.4-.5.4-1 .9-1.2.9l1 .2c2.5.4 3 .6 3 1 0 .2-.3.3-1.5.3l-2 .2a1 1 0 0 1-1-.3c-.6-.6-.8-.5-.7.3.1.7.2.8 1.6.9 1.7.1 2.1.6.6.7-1.6 0-3.1.5-3.7 1.2a8 8 0 0 1-1.7 1.2l-2.2 1.3c-2.6 1.5-5.8 2-14.2 2-6 0-7.7 0-5 .3.6 0 1.2.2 1.2.4.1.3-4 .5-9.3.3-3.1 0-4.3.3-2 .6 1.6.2 1.9.4 1.3.7-.5.4-5 .2-5.3-.1zm24-2.9c.6 0 .8-.2.6-.4-.4-.2-2.5-.3-3.4 0-.6.1-.6.2-.1.4.7.2 1.6.2 2.8 0zm-17.7-.4c-.9-.1-1.4-.1-1.6 0-.2.3.2.3 1.3.3h1.6zm2.4.2h-.5c-.2 0-.1.1.2.1.2 0 .4 0 .3-.1zm9-.6c2-.5-1-1-3.4-.6l-1.7.6c-.2.2 4.2.3 5.1 0zm5.6-.7c.3-.3.3-.4-.1-.4l-1.3-.2c-.8 0-1.5.3-1.5.7 0 .5 2.6.3 3-.1zm6.7 0c2.5-.9 1.2-1.1-2.4-.5-1.4.2-1 .7.8.8l1.6-.3zm-4-.2c.3-.1.2-.2-.4-.2-.4 0-.6.1-.6.2.3.4.5.4 1 0zM72 138c0-.4-.2-.5-1.1-.5-.7 0-1.3.1-1.4.3 0 .1.2.2.6.2.4 0 1 .1 1.1.3.6.4.8.3.8-.3zm-9.3-.1c1.8-.3 1.4-.7-.6-.7-1.8 0-2.5.2-2.5.7 0 .4.2.4.8.3l2.3-.3zm-6.7-.4c-.3-.3-3.2-.8-3.4-.6-.2.2 2.1.7 3.1.8.4 0 .5 0 .3-.2zm18-1-.4-1c-.5-.6 0-.9.9-.8.7.1 1 0 1.3-.5.5-.7.5-.8 0-2-.3-.5-.6-1.3-.6-1.6l-.3-1.3-.4-.8-1 .6a8.2 8.2 0 0 1-3.3 1.8c-1.3.2-1.5 1.2-.4 2 .4.3.7.7.6.8-.3.3-1.5-.2-1.7-.7-.2-.5-1-.7-1-.3 0 .3-1.2.5-3.4.7-1 0-1.5 0-1.9-.4-.3-.3-1-.6-1.3-.7-.4 0-.8-.3-.9-.4l-.5-.2c-.4 0-.4 0 0 .5.3.3.6.5.8.5.4 0 1.2.9 1 1.2 0 .2.3.6.8.8l1.6 1c.3.3 1 .5 1.3.4.5 0 .5-.2-.6-.7-1.9-1-1.8-1.1 1.1-1.2.4 0 .7.2.8.6 0 .4.4.7.6.8.3 0 .8.3 1 .5.4.3.6.3.8.1.2-.2.5-.2 1 .1.5.3 1.4.5 2 .5.7 0 1.3.2 1.4.3l.5.1c.3 0 .3-.2.2-.7zm-5.2-1.6c-.3 0-.5-.2-.5-.4 0-.3 2-.1 2 .3.2.3-.6.4-1.5.1zm-28.8 2c0-.3-.5-.5-.6-.2-.1.1 0 .3.2.3s.4 0 .4-.2zm42.8-.3c2.2-.2 3.6-.7 5-1.7 1-.7.8-1.3-.2-.9-.5.2-.8.2-.9 0v-.2c.6 0 3.4-2.4 3.7-3.1.2-.4 1.6-2 3.2-3.6l2.8-3c0-.3-.5-.2-1.1.2-1 .5-3 .7-3.4.4 0-.1 0-.4.3-.6.3-.4.2-.4-.8-.3l-1.4.4c-.5.3-.2.6.5.6.5 0 .8.1.8.3 0 .2-1.2 1.9-2.7 3.6a58 58 0 0 0-2.8 3.4h.8c.8-.2 1.3.2.6.6-.8.4-3.8.9-5 .8-1-.1-1-.1-.4-.4a8 8 0 0 1 1.4-.5c.5-.1 1.2-.8 2.6-2.6l2.6-3.3c.5-.4.8-1 .7-1.1-.3-.4-1-.3-1.5.1-.3.4-.4.4-.6.1-.6-.8-2.3-1.3-2.3-.8 0 .2-.8 1.2-1.8 2.2-1 1.1-2.2 2.7-2.6 3.6-1 1.8-1.5 2.3-2.3 2.3-.2 0-.7.3-.9.6-.4.6-.3.6.4.6.5 0 .9-.1 1-.4.1-.4.2-.4.5 0 .6.8 2.2 1 3 .6.6-.5 3.3-.6 3.3-.2 0 .5-.8.7-2.4.7a6 6 0 0 0-2.7.5c-.5.2-1 .3-1.1.2-.2-.2-.9-.3-1.6-.3-1.1 0-1.2 0-1.2.6s0 .6.9.5c.4 0 1 0 1.3.2.3.1 1 .2 1.4.1l2.9-.2zm-35.3-.6a2 2 0 0 1 1-.4c.2 0 .7-.1 1-.4.6-.4.6-.4-1-2-1.3-1.1-1.9-1.5-2.4-1.5-.4 0-.8-.1-.9-.3-.2-.3-1.8 0-2.5.5-.5.3-.7.3-1 0-.3-.4.3-.9 1.7-1.3.9-.2 1.1-.4 1.1-.9 0-1-1-3-1.5-3.5-.6-.4-.7-.3-1.8.2-1.5.7-3.7 1-4 .5 0-.2.1-.6.5-1l.6-.7-1 .6c-2.7 1.6-3 1.6-3.4.9-.3-.6 0-.9.8-.9.3 0 1.4-.3 2.4-.7 1-.5 2.3-.8 3.3-.9 1.7 0 2.2.3.9.8l-.9.3h1c.8 0 1 0 1.1-.6.2-.8-.3-2.5-.8-2.7-.6-.2-.2-2.3 1.3-5.8 1-2.6 1.2-3.3 1-3.7-.3-.4-.2-.6.2-1 .8-.9 1.6-2.9 1.6-4 0-1.2.8-3 2.1-4.5a6 6 0 0 0 1.3-2.2 4 4 0 0 1 .4-1.3l.4-1.5c0-1 0-1.2-.3-1.3-.5-.2-.6-1.3-.1-1.3.3 0 .3-.8.4-3.2 0-3.2 0-3.6 1.2-7.1l1-4.5 1-5.3c.7-3.3.6-3.3 0-3.8a2 2 0 0 0-1-.5 23 23 0 0 0-5.4.8c-.6.2-1.2.3-1.3.1-.3-.3.8-.6 3.1-1 1.6-.4 2.8-1.2 2.8-1.9 0-.3-.4-.3-2.2-.2-2 .2-4.7.7-6.2 1.1h-.6c0-.6 2.5-1.2 5.6-1.6 3-.3 3-.3 3-1-.2-1-.5-1.1-3.6-.4-7.7 1.8-10 2.7-10.8 4.7-.5.9-.6 1.4-.4 2.2l.1 2.7c0 4.4 0 5.4.4 6.2.3.6.4 1.8.4 3.5 0 2.3 0 2.8.6 3.6a4 4 0 0 0 3.1 1.7c.4 0 .8 0 1 .2 0 .1.4.3.9.4 1 .2 1 1-.2 1.2-.6.2-.8.2-1.3-.4-.4-.6-.7-.6-1.5-.5-.5.1-1.2.4-1.4.6-.3.4-.3.5 0 1.3.4.8.4 1 .1 1.1-.2.2-.4.6-.4 1 0 .8 1.3 2.2 2.4 2.5.7.1.8.2.8 1s-.1 1-.6 1c-.4 0-1.1 0-1.7-.2-1.2-.3-1.8-.1-1.8.7a5 5 0 0 1-.6 1.7c-.7 1.2-1.7 4.2-1.5 4.4l1.3-1.8c.6-1 1.2-1.8 1.4-1.8.3 0 .2.3-.5 1.4l-1.6 3c-.5 1.1-1 2.3-1.3 2.5-.2.2-.4.8-.3 1.2 0 .7.3.4 3.2-4 0-.1.2-.2.3-.1 0 0 0 .6-.3 1-1.9 3.4-2.2 4-2.1 4.2 0 0 .6-.5 1.2-1.3a3390.6 3390.6 0 0 0 3.3-4.1c.3.2-.2 2-.7 2.1-.2.1-.5.5-.6.8l-.6 1c-1 1.1-2.7 4.6-2.7 5.5 0 .3-.3 1-.6 1.4-.5.6-.6 1.1-.6 2.8 0 2-.3 3-.7 3-.3 0-.7 1.8-.7 3.3 0 1.4 1 3.3 1.7 3.3.4 0 .4 0 0-.4-.5-.3-.7-2-.3-2.2.2 0 .6.5 1 1.1.4 1 .4 1.3.2 1.5-.5.3 0 .8.6.8.4 0 .8.2 1 .5.2.3.6.5 1 .4.3 0 .5.2.5.6 0 .5 1.7 2 2.2 2 .2 0 .8.1 1.4.4 1.9.9 5 1.1 5.8.4zm-4-1.8c0-.3.1-.4.4-.4.6.1.5.6 0 .7-.3 0-.4 0-.4-.3zm-4.1-2.2c-.4-.3-.1-.6 1.3-1.6 1.4-1 2-1.3 2-.9s-3.1 2.7-3.3 2.5zm-1.5-1c0-.6 0-.7-.4-.4-.2.2-.5.3-.6.2-.3-.3.4-1.4 1.5-2.1 1-.8 1.7-.8 1.4 0-.1.3 0 .4.4.2 1-.4 1.4-.5 1.4-.2 0 .2-.2.3-.4.3-.5 0-2.5 1.9-2.5 2.3 0 .2-.2.4-.4.4-.3 0-.4-.3-.4-.7zm-1.5-10c-.2-.5.1-1.9.7-3.4.4-.8 1-1 .7-.3l-.4 1.9-.5 1.8c-.3.4-.3.4-.5 0zm8.3-15.7c.7-1 3.2-5.6 3.5-6.5.4-.8.7-1 1-.4.3.9-3.8 7.6-4.6 7.6-.3 0-.3-.2 0-.7zm-5.2-8.4c.2-.4.9-.5 1.7-.3 1 .2.5.7-.7.7-.7 0-1-.1-1-.4zm.2-9.4c0-.5-.1-.8-.5-.9-.6-.1-.6-.7-.2-3.5l.3-2.8c.2-1.6.6-2.3 1.4-2.3.4 0 1-.2 1.4-.4l1.3-.4c1.1 0 .8.5-.9 1.3-1.2.6-1.8 1-2 1.7-.5 1-1.2 5.1-1 5.4.3.1.3 0 .9-2.5.4-1.8 1-3.2 1.4-3 0 .2-.1 1.2-.4 2.3l-.9 4c-.3 1.9-.8 2.6-.8 1.1zm1.9-2.5c0-.2.1-.5.3-.6.1 0 .2.1.2.4 0 .3 0 .6-.2.6s-.3-.2-.3-.4zm-4-9.1c-.4-.5 0-1.5 1-2.6l1.7-1.9c.6-.9 1.2-1.1 1.4-.5 0 .2.3.2 1.3 0 2.6-.7 3.2-.2.8.7-2.4.8-5 2.5-5.4 3.4-.6 1.1-.7 1.2-.9.9zm14-.3c-.5-.6-1.5-1-3.4-1.2-.9-.1-1.6-.3-1.6-.4 0-.4 1-.6 2.1-.4 2.3.4 3 .7 3.3 1.4.5 1 .1 1.4-.4.6zm-13-5.3.4-.4c2.5-1 3.1-1.2 3.1-1L39 70.4l-.1-.3zM27 136a1 1 0 0 0-.6 0l.3.1c.4 0 .5 0 .3-.1zm29.9-.9c1.6 0 2.1 0 1.7-.5-.4-.4-2-.4-3.3 0-1.4.4-1.4.4-1.2.8.1.1.3.2.7 0 .2-.2 1.2-.3 2-.3zm4.7.3a7 7 0 0 0-2.4-1.6c-.4 0-.2.5.3.6l1 .7c.4.5 1.1.7 1.1.3zm-9.7-.4c0-.3-.2-.4-.3-.3-.2.1-.2.3-.1.4.2.4.4.3.4-.1zm4.1-2.4c.1 0 0-.2 0-.4-.3-.3-1.1-.3-2.8 0-1.4.4-1.7.7-.9.8.5.1 3.6-.2 3.7-.4zm-22-.3c-.6-.4-3.7-.5-4-.1a440.5 440.5 0 0 1 3.8.5c.7 0 .7 0 .2-.4zm32.1.1c1-.2 1.5-.5 2.6-1.6 3.2-3.5 4-4.6 4.5-6.5.2-.8.6-1.6.8-1.8.4-.4.2-.9-.3-.9-.7 0-.4-.5.3-.6.8 0 4 1 4.4 1.4.5.5 0 .6-1.4.2l-1.4-.3-.2 2.3c0 1.7.2 2.9.8 5 .9 3 1.3 3.5 2.1 2.7a52 52 0 0 0 4.5-7.3c0-.4-1.5-.2-2 .3-.3.4-1 .8-1.6 1.1l-1.6 1.1c-.5.4-.7.5-1 .3-.4-.6 0-1.1 2-2 1.8-1 1.9-1 1.7-1.8-.2-.7-.1-.8.4-.8l1.4.4c.8.4 1 .4 2 .1.8-.2 1.6-.3 3-.1 2.6.2 2.5.2 4-.3.8-.3 1.2-.5 1-.6-.3 0-.8 0-1 .2-.8.4-2.8.4-3.4 0a4 4 0 0 0-2-.5c-1.7 0-6.1-1.1-6.3-1.6-.1-.4 1-.3 3.9.4l2.2.3a44 44 0 0 0 5.3-7.4c.4-.4.7-.8.6-1l-1.5-.2c-1 0-1.5.1-2.4.9-1.2 1-4.8 2.8-5.4 2.8-.2 0-.9.3-1.4.8-1 .8-1.6 1-1.6.5 0-.2.6-.7 2.4-2 .5-.4 1-.8 1.3-.8.3 0 1-.4 1.5-1 .7-.6 1-.7 1.1-.4.2.3.4.2 1-.3.5-.3.9-.6.8-.8-.2-.2-4.5-.6-6.8-.5-1.6 0-1.8 0-2-.5-.6-1-3-1.9-3-1.2 0 .6.8 1.2 1.5 1.2.9 0 1.1.3 1.1 1.5 0 .5 0 .6-.5.5-.5-.1-.5 0-.4 2.5.2 1.9.1 2.6 0 2.6l-.4-.1-.4-2.2-.4-3c0-.6-.1-.9-.5-1-.3 0-.5-.3-.5-.5s-.2-.3-.4-.3-.4.2-.4.5c0 .2-.2.7-.5 1-.3.4-.6 1.3-.7 2-.1.7-.3 1.2-.5 1.1-.5-.1-.5-1.4.2-3 .7-2 .7-3.5-.1-3.5-.6 0-3 3.5-3.5 4.8-.3 1-.2 1.1.4 1.8.4.4.7.8.7 1 0 .2.7.5 1.5.8 1.6.5 2 .8 1.3 1-.3.1-.4.4-.2.8 0 .5 0 .7-.4.7-.7 0-1.1-.6-1-1.3.2-.5 0-.6-.4-.6-1 0-2.4-1-2.4-1.5 0-.3-.2-.6-.5-.7-1-.3-.6.7 1.2 2.4 1 1 1.7 1.8 1.6 1.9 0 .6-1.7-.4-3-1.9-.3-.3-.6-.5-.8-.5-.3 0-1 1.2-1.6 2.7a8 8 0 0 1-.9 1.5l-1.6 3.1c-1 2.2-1.3 2.6-2.3 3-1.1.6-1.9.7-2.3.4-.1-.2-.5-.4-.8-.5-.6-.1-.6-.1-.4.4.4.7 0 1-.9.4-.7-.4-.8-.9-.4-1.4.5-.4 0-1.4-.5-1.2-.6.2-.8 0-2.2-1.8-1-1.3-1.3-2.6-.7-2.6.3 0 .3-.1 0-.3l-.8-1.3-.5-.9-.3.7c-.3.6-.3.8.2 1.4.4.5.6 1.1.6 1.7 0 1 1.8 4.2 3.2 5.5.5.4 1 1.2 1.3 1.6.3.5.9 1 1.5 1.3 1 .5 1.4.3.8-.4-.3-.2-.5-.7-.5-.9 0-.4.7-.8 1.1-.6l1 .4c.7.2.8.2.6-.4-.1-.9.7-.9 1.6 0 .6.7.6.7.1 1-.4.4-.4.4.1.7.7.4.8.4.6-.4-.1-.6 0-.7 1.3-.7.3 0 .7-.2.8-.5.5-.9 2.9-6.8 3.1-7.8.4-1.3 1.3-2 1.5-1.3v1.5c-.4 1.5 0 1.2 1-.5.6-1 .9-1.3 1-1.1.3.2.2.5-.1 1.2-.6 1.3-2.6 4-3.5 4.9a12 12 0 0 0-1.6 2.3c-.5.9-1.1 1.6-1.3 1.6-.2 0-.4.2-.4.3 0 .2-.3.4-.7.5-.7.3-.6.8.2.8l1.8-.3zm9.3-11.8c-.5-.2-1-.4-1.3-.7-.3-.3-.3-.4 0-.6.3 0 .7 0 .8.2.2.1.6.3 1 .3.7 0 1.6.4 1.6.8 0 .3-.8.3-2 0zm4-1c0-.1.3-.6.8-1 .9-1 1-.4.2.7-.6.8-1 1-1 .4zM26 132.3h-.5c-.2 0-.1.1.2.1.2 0 .4 0 .3-.1zm25.9-1.1c0-.2.5-.4 1-.5.7-.1 1-.4.5-.7-.2-.1-.9 0-1.6 0-2 .5-2.1.6-1.4 1 .8.4 1.3.5 1.5.2zm80.6-.4c5.2-.9 8.3-1.5 9-1.8 1.3-.5-6.9.2-10.9 1-1.7.4-2.7.8-2.5 1.1.2.4-.4.4 4.4-.3zm-37.7-2.9 2.2-2.5c.3-.2.5-.6.5-.8 0-1-4.3 3.4-4.9 5-.4 1 .5.3 2.2-1.7zm60.3 2-.1-.3c-.2 0-.3 0-.3.2v.3c.2 0 .3-.1.4-.3zm-6.2-.7c1.8-.3 3-.6 3.8-1.1 1.1-.7 1.1-.7 1.3-2.5 0-1 .3-2.2.4-2.8l.6-2.7c.3-1.5.2-1.7-.3-2.4-.4-.6-.8-.8-1.6-1h-1.2l-.5 2.8-.6 4.2c-.1 1-.3 1.5-.8 1.8-.3.2-.6.6-.6.8 0 .8-1.5 2.2-2.4 2.2-.5 0-.9.2-1 .5-.4.7-.4.7 3 .2zm-101.6-.5-.4-.2c-.3 0-.4.2-.3.4.2.4.7.3.7-.2zm25.6 0 1.5-1.1v-3.2l-.6 1.3c-.3.7-1 1.7-1.5 2.3-1.4 1.5-1.3 1.6.6.6zm-20.5-.3c0-.5-2.1-.5-3 0-1 .3-1 .3 1 .3 1.1 0 2-.2 2-.3zm90.1-.4c0-.1-.2-.2-.5-.1l-.6.2.6.1c.3 0 .5 0 .5-.2zm-82.6-1.3c.3-.7.6-1.8.7-2.5.1-.8.8-2.4 1.7-4.1 1.3-2.6 1.4-3 1.3-4-.2-1.4-.6-2-1.4-1.8-.4 0-.6.4-.8 1.3-.2.6-.7 1.7-1.2 2.2l-1.6 3c-.4 1.2-1 2.6-1.4 3.2-.4.6-.7 1.4-.7 1.9 0 1 1.1 2 2.1 2 .6 0 .8-.1 1.3-1.2zm87 .5c0-.5-.5-.4-.7.1 0 .3 0 .4.3.3.2 0 .4-.2.4-.4zm9.6 0s0-.3-.2-.5c-.2-.4-.2-.6.2-1 .4-.3.5-.7.4-1.2 0-.4.2-1.4.6-2.5a57 57 0 0 0 1.3-4c.1-.5 0-.6-.3-.6-.2 0-.4-.2-.4-.7 0-.4-.1-.6-.6-.7-.3 0-.6-.3-.7-.6 0-.4 0-.4.7-.3l1.3.3c.4.1.7 0 1.1-.6.5-.7.6-.8.2-2.2l-.4-2.5c0-.6-.3-1.6-.5-2.4-.4-1-.6-1.3-1-1.2-.8 0-1.2-.7-1.3-2.5 0-1.7-.9-3.8-1.5-3.8-.7 0-1-.7-1-2.3a47.6 47.6 0 0 1-.2-12.7c.3-.7 1-.8.8-.2a39.4 39.4 0 0 0 .2 7c0-.3.1-.5.2-.5.3 0 .6.7.5 1a33 33 0 0 0-.1 7c.6.5 1-.5 1-3.5.2-2.6.2-3.3-.2-4.5l-.9-1.7c-.6-.8-.2-4.2.8-5.7 1-1.6 1.5-1.7 1.4-.2a31.1 31.1 0 0 0 .2 10.2c0 3.5-.3 6.7-.5 8-.3 1.6-.1 1.9 1 1.7.7 0 .7-.1.7-1.4 0-.7.3-1.8.6-2.5 1.2-2.7 1.5-4.2 1.5-8 0-3.7-.3-5.3-1.5-7.2l-.5-1c0-.3.7-.2 1.1.3.7.6.8.3.3-.7-.3-.6-.7-1-1-1-.6-.1-2-2.8-2-3.8 0-.7-.3-.9-.9-.4-.3.2-.8.4-1.1.4-.8 0-1.2 1-.7 1.6.4.5.4.6-.2 1.8-.7 1.5-1 2-1.3 1.7l.1-.8c.4-.8.3-3.1-.1-3.4l-1.8-.4c-.8 0-1.7-.3-2-.4-.4-.2-.5-.1-.3.7.2 1 .8 1.8 1.3 1.8.1 0 .2-.3 0-.6 0-.4 0-.7.2-.8.3-.2 1.3.6 1.3 1l.4.8c.5.4.4.5-.3 1.3-.5.5-1 1.1-1.1 1.4-.4.8-2 .9-2 .2 0-.3.3-.7.5-1 .5-.7.5-.8-.6-1.2-.7-.2-1-.3-1.2 0-.3.2-.2.3 0 .5.5.2.5.5.3 1.7-.4 2.3-.5 2.5-1.2 3.3-.5.7-1.1 2.4-2.2 6.7-.6 2.2 0 3 2.5 3.3.7 0 1.6.3 2 .6.5.3.5.4.2.6-.3.1-.6.2-.8 0l-2.4-.6c-2.5-.6-2.4-.6-2.7 1.6-.2 1.5 0 1.8.5 1.3.7-.5.7-.1.2.9-.4.7-.4 1.5-.4 4.7 0 4 .2 5 1.3 5.8l.4.7c0 .7 3 3.3 3.8 3.3.7 0 .5-.6-.7-1.6-1.9-1.6-3.1-3-3-3.4 0-.7.5-.5 1.6.8a5 5 0 0 0 2 1.7c.6.2 1.5.6 2 1 .7.5 1.4.7 2.3.7.9 0 1.4.2 1.9.6.6.5.7.9.8 2.8a7 7 0 0 1-.4 3.9c-.6 1.6-1 3.5-.7 4.2.1.3 1.2.3 1.2 0zm-3.9-26.8c-1.5-.7-2.2-2.3-2.4-5.1 0-2 .3-4.8.8-5 0-.1.2.9.2 2.2 0 1.8 0 2.5.4 2.8.5.5.6 1 .2 1.3-.5.3-.3 1.2.2 1.2.2 0 .7.5 1 1.2l1 1.3c.5.2.5.7 0 .7l-1.4-.6zm-5.7-3.5c-.7-.6-.6-1 .2-.6.4.1.7.4.7.6 0 .5-.3.5-.9 0zM47.7 127c0-.1.4-.2.8-.1.4 0 .7-.1 1.1-.7.6-.7.6-.8.2-2.5-.3-1-.4-2.4-.3-3.3l.1-1.5-1.7.2c-2.2.2-2.3-.4-.2-.6l2-.4a71.2 71.2 0 0 1 3-6.4c1.2-2.7 1.2-3 .8-3.3-.2-.2-.4-.6-.4-.9 0-.3-.1-.5-.3-.5-.1 0-.3.3-.3.6 0 .9-.8.8-1 0 0-.3-.2-.7-.4-1-.5-.3-.5-.6.1-.8.5-.1.6-.3.5-2.7v-2.6l-.8 1c-.9.8-1 1-1.2 4.4l-.4 4.8c0 1-.1 1.1-.5 1-.3 0-.6.2-.7.4 0 .2-.3.4-.5.4-.4 0-.4-.3-.3-1.6.2-1.5.2-1.6-.2-1.2l-.4.8-.3.7a20.1 20.1 0 0 0-2.4 11.2c.1 1.6.2 1.8.8 2 .5.1 1 .7 1.4 1.6.6 1.3 1 1.7 1.5 1zM45 116c-.2-.4.2-.5 2.2-.6 1.8 0 2.6.1 2 .5-.5.3-4 .4-4.2 0zm2.5-1.3c-1 0-1.8-.2-1.8-.3 0-.3 1.6-.6 3.5-.6 1.1 0 1.5.1 1.5.4 0 .3-.2.4-.4.4a16 16 0 0 1-2.9 0zm100.9 10.5c0-.4.3-.8.8-1 .6-.3.7-.4.7-2 0-1 .1-2.3.3-2.8.3-1.3.3-1.5-.2-1.8-1.4-.7-1.4-.6-1.5 2 0 1.8-.2 2.8-.5 3.4a3 3 0 0 0-.3 2c.2 1.3.5 1.4.7.2zm-93.2 0c0-.3.3-.9.8-1.5.4-.5 1-1.8 1.5-2.8l1.1-2.6a256.7 256.7 0 0 1 1.8-4l.7-1.3-.9-.9c-.5-.5-1-.8-1.1-.7-.1 0-.8 1.2-1.4 2.6l-1.6 2.8c-.2.1-.4.5-.4.7 0 .2-.5 1.6-1.2 3-1 2.4-1.2 2.7-1 3.5.6 1.4 1.7 2.2 1.7 1.1zm-.8-2c.1-.3.3-.5.5-.5s.5.2.5.5 0 .4-.5.4c-.4 0-.5-.1-.5-.4zm8.8-.2 1.2-2.4.8-1.6c1-1.5 1-2 .2-2-.4 0-.7.3-1.2 1.5-.3.9-.8 1.7-.9 1.9-.6.8-2.3 4.4-2.1 4.6.3.5.7 0 2-2zm34.6-.3c3-.9 6-3 5.7-4-.3-.7-1.3-.4-2.6 1-.7.7-1.4 1.3-1.6 1.3-.2 0-.5.2-.8.5-.2.3-.6.5-1 .6l-1.8.5-1.5.5h1l2.6-.4zm-7.6-.9 1.1-2a23 23 0 0 1 2.5-3.6c1.6-1.8 3-3.7 2.8-3.9l-.8.1c-.4.1-.7.4-.7.7 0 .3-.1.5-.6.5-1 0-2.7 1-3 1.5 0 .3-.5 1-1 1.4l-3.3 3.8c-.6 1-.5 1.5.3 1.5.2 0 .5.1.6.3.2.2 1.7 0 2-.3zm3-1.3c.4-.7.5-1 .3-1.2-.7-.4-1-.1-1.4 1-.5 1.5 0 1.7 1 .2zm3.3.4a15 15 0 0 0 5.3-3.2c.1-.2.5-.4.8-.4.8 0 6.2-5.5 5.7-6l-1.5.4c-1 .3-1.5.6-1.9 1.3-.3.6-1 1.3-1.5 1.6a28 28 0 0 0-2.7 2.5c-1.9 1.8-2.6 2.2-2.6 1.2 0-.3 0-.5.2-.5.4 0 5.6-5 5.4-5.3-.2-.2-2 0-4.2.4-.4.1-1 .8-1.7 1.9-.6.9-1.6 2.1-2.3 2.7l-1.1 1.2c0 .1.2.2.5.2 1 0 .3 1.7-.8 2.2-.8.3 1 .1 2.4-.2zm8.3-6.7c-.2-.2 1.2-1.7 1.6-1.7.6 0 .5.4-.4 1.2-.7.7-.9.8-1.2.5zm-50.7 5 .6-2.2c.3-1.1.9-2.5 1.5-3.7l1.2-2.2c.6-1 .6-1.4.4-2l-.5-1.2c-.1-.1-.8.9-1.4 2.4l-2.4 5c-1.2 2.2-1.5 3.1-1 3.4.2.1.3.5.4 1 .3 1 .7.8 1.2-.6zm132 .3h-1l.5.1c.5 0 .7 0 .5-.1zm-80.6-1.2c.7-.7 2.7-3 3-3.6.4-.7-.5-.3-1.4.7-.9.9-2.4 3-2.4 3.3 0 .3.2.2.8-.4zm-1.1-.8c0-.4-.6-.1-.7.3 0 .2 0 .2.3.1.2 0 .4-.3.4-.4zm-9.8-.5-.1-.2s-.2 0-.3.2l.1.3c.2 0 .3-.1.3-.3zm82.7-1v1-1zm-143-.8c0-.7-.1-1.1-.3-1-.2 0-.3.1-.3.2v1.5c0 .9.1 1.1.3.9.2-.3.3-1 .3-1.6zm130-.5c-.3-.3-.4.2-.2 1.3l.2 1.2.1-1.2v-1.3zm-111.8 0c.8-2 .5-2.1-.3-.2-.8 1.7-.8 1.7-.5 1.7.2 0 .5-.6.8-1.5zm44.3-.2c1.2-1.6 1.5-2.2 1.1-2.6-.4-.4-.9.2-.7.9 0 .6 0 1-1 2-.6.6-1 1.2-1 1.3 0 .4.5 0 1.6-1.6zm-29.7.3c-.3-.7-.2-1 .5-2.5l1.4-2.4.9-1.7.4-1-1.7-1.6c-.8-.8-1.7-1.5-1.9-1.5l-.7 1-1.6 2.4a10 10 0 0 0-1.3 2c0 .7 1 .4 1.4-.4l1-1.6c.5-.6 1-1.3 1-1.7.2-.4.4-.7.6-.7.4 0 .3.8 0 1.6-1 1.5-2 3.3-2.1 3.6-.2.1-.2.5-.1.8 0 .4 0 .6-.4.7-.8.2-1.3 0-1.5-.8 0-.3-.4-.7-.8-.9-1.1-.4-1 0 .1 1 .6.6 1 1.3 1 1.6 0 .6.8 1.4 2.5 2.4 1.3.9 1.7.8 1.3-.3zm-2.2-1.1c-1-.8-1.2-1-.7-1.3.2-.1.7.2 1.2.7 1.2 1.2.8 1.5-.5.6zm98 .1c0-.6.3-1.6.6-2.3.8-1.6 1.6-6.5 1.4-8.2-.4-2.2-1.2-5.1-1.7-5.6-.3-.4-.4-.9-.2-2.5.2-1.7 0-4.8-.3-4.6l-.5 3.5c-.3 2.4-.7 3.9-1.1 4.7-.5 1-.6 1.7-.6 2.8l-.1 4.1c-.2 2.2-.1 2.6.2 2.7.2.1.5.8.7 1.7.4 2.4.9 4.4 1 4.6.3.5.6 0 .6-.9zm-1-8.3c0-.2 0-.4.2-.5.1-.1.2 0 .2.4 0 .3 0 .5-.2.5s-.3-.2-.3-.4zm-99.2 7c-.2-.2-.4-.3-.6-.1 0 0 0 .3.2.4.5.3.8 0 .4-.3zm48-1.7c1.2-1.8 1.4-2.5.2-1.4-.7.7-2.3 2.8-2.3 3.2 0 .5.8-.2 2-1.8zm-21.7 1c.5-.3.8-.5.7-.8-.1-.3.1-.3 1.2-.3 1 0 1.3 0 1.3.3-.2.6 4 0 8.9-1.4 1.6-.4 1.9-.5 2-1.2 0-.5.3-.8 1-1.2 1.2-.6 2.1-1.2 4.3-2.8.8-.6 1.8-1.3 2.3-1.5 1.4-.7 3.5-2.8 4.2-4.2.9-1.8 1.3-3.7 1.5-6.4l.2-2.4-.4 1.3-.6 1.7c0 .2-.2.3-.4.3s-.2-.3 0-.9c.3-1.3.1-4.6-.3-6.1a23 23 0 0 0-3.9-7l-.7-1c-.3-.4-.6-1-.5-1.3 0-.4.2-.2.8.6.5.8 1 1.2 1.4 1.2.8 0 .8-.5 0-.7-1.2-.3-1.2-.9 0-2l1.2-1-1.3.2-1.6.3c-.7.2-.6-.5 0-.8.4-.1.7-.4.7-.7 0-.5-1.6.2-1.9.9 0 .3-.4.6-.6.8-.4.2-.3.4.5 2l1.2 2c1.4 2.3 2.2 4.6 1.3 4.1l-1.7-3.1a22.3 22.3 0 0 0-2.2-4c0-.2-2-2.5-2.2-2.5l-.1.4c0 .7-.5.7-1-.1-.4-.9-2.1-2.2-3.8-3-1-.5-1.4-.5-2.8-.4l-2.6.3c-2.7.1-7.8 2-8.2 3-.1.3-.5.6-1 .7-.4 0-.8.3-.7.5 0 .1-.6.6-1.4 1-1.3.7-1.5.8-2.4.5-1.2-.4-1.5-.1-.8.6.3.4.5.8.4.9 0 .1.1.6.4 1 .3.3.5.7.5.9 0 .5-.5.3-.9-.3-.3-.4-.5-.5-.7-.3-.3.3-.7 0-2-1.4-2-2-2.8-2.5-5-2.7-1.5-.1-1.8 0-2.4.5L69 77.6c-1 .7-2.5 3.1-2.5 4.1 0 .3-.3.9-.6 1.4-.6 1-1.5 1.1-1.7.4-.2-.5-1.1 2-1.2 3.2 0 .4 0 1-.2 1.2-.3.6.4 4.9 1.1 6.3.3.5.2.7-.2 1-.5.4-.5.7.3.8.6 0 1.6 1.5 2 2.9.3.9 1 2.2 2 3.5.4.6-.2.7-.7 0-.5-.6-.5-.6-.6 0 0 .5 5 5.4 5.5 5.4.7 0 .3-1-.6-1.7-1.3-.9-1.8-1.7-1.5-2.1.2-.2.5-.1 1 .4.3.3 1.1.9 1.9 1.2l2.3 1.4c1.9 1.2 3.2 1.8 4 1.6.3 0 .9 0 1.2.3.8.5 4.2 1.2 5.7 1.2.6 0 1.3.2 1.6.4.5.4.5.4 0 .6-.5.2-.6.9 0 .9l1.1-.3zm-3.4-5.6c-.7-.5 0-.6 2.9-.8l3.2-.4c.6-.3 1 .3.3.6l-2.5.4-2.8.3-1-.1zm14.4-.9c-.5-.5-.4-1 .1-1 .6 0 1.2.7 1 1-.2.4-.7.4-1.1 0zm-3.8-4.9c-1.9-1.7-2.2-2-1.8-2.2a18 18 0 0 1 3.7 3.3c.6 1 0 .7-2-1zm-14 1c0-.4 1.3-.9 1.6-.6.2.2.2.4.1.6-.2.3-1.7.4-1.7 0zm20.2-3.4c-.3-.5 5.1-2.6 5.5-2.2.3.3.3.3-3.2 1.6-1.2.4-2.2.7-2.3.6zM77 96.7c0-.3 1.7-.8 2.7-.8.7 0 1 .4.4.6-1 .3-3.1.4-3.1.2zm4.6-.8c-.2-.4 1.2-1 1.5-.6.2.1.2.4.1.5-.2.4-1.4.4-1.6 0zm18.1-1.5c0-.5 5.4-2.5 5.8-2.2.3.3 0 .5-2.6 1.4-2.3.9-3.2 1-3.2.8zm-10-3.7-2.8-3.3c-2.7-3-4.4-5.8-3.6-5.8.3 0 1.1.9 1.1 1.2 0 .3 1.3 2 1.7 2 .3 0 .7.4 3.4 4 1.7 2.2 2.1 3 1.5 3-.1 0-.7-.5-1.2-1.1zm-11.9.6c.1-.2.6-.4 1.3-.4.8 0 1 0 1 .2s-.6.4-1.2.5c-.9 0-1.1 0-1-.3zm20.2-.2c.4-.6 7.3-3.5 8.2-3.5 1 0 .2.6-2.4 1.6l-4 1.6c-1.2.6-2 .7-1.8.3zm-23.5-2.6V88c.2-.3 3.7-1 4-.8.3.3-.3.7-1.5.9-.6 0-1.5.2-1.8.4h-.7zm21.1-1.4c.3-.4 5.4-2.6 6.2-2.6 1 0 0 .5-2.8 1.6-3.2 1.3-3.6 1.5-3.4 1zm-1.4-3.5c.4-.5 6-3 7.1-3.2 1-.2 1 .2.1.5-.4 0-1.4.5-2.3 1l-2.3.8-1 .6c-.2.2-.8.4-1.2.5-.7.2-.8.2-.4-.2zm-.8-1.8c1-.7 5-2.2 5.2-2 0 0-.5.4-1.3.7l-2.4 1c-1 .6-2.3.8-1.5.3zm-.5-1.4c0-.2 1.8-1 2.8-1.3h.6c0 .2-.5.4-1.1.6a6 6 0 0 0-1.4.6c-.3.2-1 .3-1 0zm9.1 31.2c1-.3 2.8-.5 4-.7 1 0 2.1-.3 2.3-.5.5-.5-4.5 0-5.3.4-.4.3-.9.4-1.1.3-.7-.2-3 .3-2.8.7.2.3.9.2 3-.2zm-17-.8c0-.4-3.1-.8-3.8-.4-.3.2-.3.2 0 .4l2.9.4c.5 0 .8-.1.8-.4zm-13.5-2.3c-.2-.4-.6 0-1.1 1.1-.8 1.5-.7 1.6.3.2.5-.6.9-1.2.8-1.3zm-22.6-1.3v-.9l-.2.8-.2 2.1v1.3l.2-1.2.2-2zm11 3c.2-.3-.9-2.4-1.2-2.4-.2 0 0 1.3.3 1.4.2.1.3.4.3.7 0 .5.3.7.6.3zm54.7-.6c.2 0 .2-.1 0-.4a1 1 0 0 1-.1-.8c0-.3-.1-.2-.5.3-.7.8-.7 1.3 0 1h.6zm-4.5-.6c.8-.4 1.2-1 2-2.4l.8-2c-.3-.2-1.5.9-1.4 1.2.1.3-1 1.7-1.4 1.7-.5 0-1.4 1-1.4 1.6 0 .6.1.6 1.4 0zm-3-.3c.4-.2 1-.6 1.1-.8.4-.4.3-.5-.3-.3s-2.1 1.5-1.7 1.5l1-.4zm-43.8-.8c.4-.5 1.2-1.8 1.7-3 .9-1.8 1-2 .5-2.6-.2-.3-.7-.8-1.1-1-.6-.2-.8-.2-1.3.4-.4.4-1.1 1.6-1.6 2.6-1 2.2-1.4 2.8-1.4 2 0-.3.6-1.8 1.4-3.4.8-1.6 1.5-3.1 1.5-3.5 0-.9.3-.8 1 .2.5.7 1.3 1 1.3.5l-.9-1.2c-.9-1-.9-1-1.4-.5a61 61 0 0 0-3.7 6l-.6 1.1.6 1.3c.6 1.4.7 1.5 2 1.8 1.2.3 1.3.3 2-.7zm-8.2-10c0-8.1 0-9-.4-9.4-.2-.2-.5-.4-.6-.3-.3.3-.3 19.1 0 19.6.1.2.4 0 .6-.3.3-.4.4-2.2.4-9.5zm81.7 9.9c.3-.2.3-.3 0-.5-.8-.2-4.5 0-4.8.4-.3.3.1.3 2 .3l2.8-.2zm5.5-.7c0-.8-.6-1-1-.3-.2.5-.2.7 0 .8.8.3 1 .1 1-.5zm-24.9 0c.9 0 1.1 0 1-.3-.1-.4.3-.5 1.8-.7l-1.3-.1c-2 0-2.1 0-3 .7-.9.7-.9.8-.3.6a8 8 0 0 1 1.8-.1zm-86.8 0H30l.2.1c.2 0 .4 0 .3-.1zm26.9-1.5c.2-.4.4-1.1.4-1.5 0-.8.6-1.5 1-1.3.3.2 2-2.2 2-2.6l1-1.8c.6-.9 1-1.8 1-2-1-3-1.6-3.3-2.4-1l-1 2.8c-1 2.3-1.7 4.2-2.1 6-.2.8-.4 1.5-.6 1.6l-.2.4c0 .5.4.2.9-.6zm3.7-8.8c-.2-.8.3-1.5.7-1 .4.3.2 1.4-.2 1.6-.2 0-.4-.2-.5-.6zm67.1 9-.8-.1c-2-.2-4 0-3.8.2.1.2 1.7.2 4.6 0zm12.4-.7c0-.6.2-.9.6-1 .3 0 .5-.3.5-.5s-.3-.3-1.2-.2h-1.3v1.2c.2 1.4.3 1.6.9 1.5.3 0 .5-.4.5-1zM53 101.7c0-2.1 0-4.6-.2-5.5l-.1-1.5-.2 1.2c-.2 1.7-.3 9.4 0 9.7.4.8.6-.3.5-3.9zm79.5 4c.6-.3.6-.3-.2-.3-1.3-.1-2.3 0-2.6.3-.3.3 1.8.2 2.8 0zm50.2-.3c0-.2-.1-.3-.3-.3-.1 0-.2.1 0 .3l.2.2.1-.2zm-133.5-.7-.1-.4c-.1 0-.3.2-.3.4l.1.4.3-.4zm66.3-1.8c0-.7.5-.8.8-.1.2.5.2.4.3-.6 0-1.4-.4-2.1-.7-1.5-.3.4-1.4 3.9-1.4 4.2 0 .5 1-1.4 1-2zm22.7-1c-.1-2 0-3.2.1-3.3.3-.2.3-1.3-.1-12.3-.1-3-.5-3-.5 0a68.8 68.8 0 0 1-.2 6.5 31.3 31.3 0 0 0-.2 12c1 .7 1 .4.9-2.9zm-109.7 2.7c0-.2-.3-.3-.6-.3-.5 0-.5 0-.2.3.5.3.8.3.8 0zm2.8 0c.5-1 1-5.7 1.2-14.3 0-5.2.3-9.8.4-10.4l.1-1-1.4.1c-.8 0-1.7 0-2.1-.2-.7-.1-.8 0-.9.7l-.3 9.5-.2 11.2c-.2 2.6 0 3.8.6 3.2.2-.3.4-3 .8-16.1l.3-7.5h.4c.4 0 .4.2.3 1.8-.4 4.5-.7 20.5-.5 22.7.1.6 1 .8 1.3.2zm4.2-3.5.7-2.4-.4-2.6c-.3-1.4-.5-3.2-.5-3.9 0-.7 0-1.4-.2-1.6-.2-.4-.5 3.5-.6 7.4a39.6 39.6 0 0 1-.3 5.8c.2.9.5.3 1.3-2.7zm95.9.7c0-1-.1-1.5-.3-1.4-.5.2-.8 1.8-.5 2.4.5.9.8.5.8-1zm-16.8.6.1-.9c0-.4-.8.7-.8 1.1 0 .6.5.4.7-.2zm13.4-.2c-.1-.7.7-.7 1 0 .1.6.5.4.5-.3 0-.3-.3-.7-.6-1-.6-.3-.7-.5-.6-1.2.4-1.9.4-4.1 0-4 0 0-.3.7-.3 1.6 0 1.2-.2 1.5-.6 1.7-.3 0-.5.3-.5.5 0 .3 0 .3.3 0 .5-.3.8 0 .8 1 0 .8-.1 1-.6.8-.7-.3-1 .8-.3 1.3.6.5 1 .3.9-.4zm4.9-5a187 187 0 0 1 .1-12.4c-.4.3-1 4.8-1 8.1 0 3.6-.3 6.6-.5 7 0 0 .1.2.4.2.5 0 .6 0 .4.9-.2.9 0 2 .4 2 0 0 .2-2.7.2-5.9zm-76 3.2.3-4.2c.1-2.4.1-3.1-.2-3.3-.7-.4-1-.2-1.1.7-.3 1.2-.2 7.3 0 8.3.1.6.2.6.5.2.2-.3.4-1 .5-1.7zm84.8 1.2c0-.2-.2-.5-.4-.6-.4-.1-.5.4-.2.8.3.3.6.2.6-.2zm.3-1.5c.3-.6.3-1.4 0-1.2l-.6 1c-.4.6-.4.7 0 .7.1 0 .4-.2.6-.5zm-12.3-1.5c0-.7 0-1.5-.2-1.7-.1-.3-.2.2-.2 1.3 0 1.9.4 2.2.4.4zm1.4-1.2c0-1.3-.3-1.7-.6-.9-.2.6-.2 1.8 0 2.4.3.7.6-.1.6-1.5zm3 1c0-.4 0-.7.2-.7.1 0 .3.1.3.3 0 .1 0 .2.2.2.5 0 .3-1-.3-1.6-.5-.5-.6-1-.6-2.1 0-.9-.1-1.6-.3-1.6-.2 0-.5 5.2-.2 5.8.2.6.6.4.6-.3zm8.5-1.5c-.1-.9 0-1.2.4-1.7.3-.4.7-1.6 1.2-4 .9-4.2 1.3-5.2 2-5.5.5-.3 1.5-2.4 1.2-2.8l-.7.5c-.3.4-.7 1-1 1.2-.3.3-.9 1.4-1.2 2.4l-1 2.2c-.6.6-1.3 3.3-1.3 4.8l-.2 2c-.2.6-.2.2-.2-1.2 0-1.2 0-2-.2-2-.3 0-.6 1.7-.7 3.4 0 1 0 1.3.4 1 .3-.2.4-.2.5.2 0 .3.3.6.6.6s.4-.2.2-1.1zm-7.5-4c0-4.7 0-10-.3-11-.1-.8-.2.4-.1 3.2 0 2.5 0 5-.2 5.4-.2 1.1 0 4.6.4 4.6 0 0 .2-1 .2-2.2zm-82.4.5-.1.3c0 .4 0 .5.1.4v-.7zm-16-1.5c.1-.3 0-.6-.2-.7-.3 0-.4.1-.4.7 0 .9.4.9.6 0zm16.3-.3-.1.3v.3c.2-.2.2-.5 0-.6zM35 86.2c-.2-.4-.2 0-.2 1.7v2.3l.2-1.7c.2-1.2.2-1.9 0-2.3zm25 1.3.8-2.5c0-.7.4-1.8.6-2.6.8-2.3 1.4-4.6 1.3-4.7-.1-.1-1.8 3.4-1.8 3.8l-1 3.6c-1 2.8-1.2 3.9-.7 3.9l.8-1.5zm-3 .4-.3-.4c-.2 0-.3 0-.3.3 0 .2.1.4.3.4.1 0 .2-.1.2-.3zm2.1-3.2c1.1-3.2 2.4-8.7 2-8.7-.3 0-1 1.5-1.2 2.6l-1 3.6c-.7 2.7-1 5.2-.7 4.8.2-.2.6-1.2 1-2.3zm74.8.8c-.1-.4-.2-.2-.2.4 0 .6 0 .9.2.6v-1zm-78.2.5c.3-1 .2-1.4-.2-.7a3 3 0 0 0-.4 1c0 .5.5.3.6-.3zm1.5-1-.2-.3c-.3 0-.6.7-.6 1.3 0 .4 0 .4.4 0 .2-.3.4-.7.4-1zm6.3-3c0-.6 0-.7-.2-.6-.5.3-1.3 2.3-1.3 3.2 0 .7 0 .7.6-.6l.9-2zm-7.2 2.2-.1-.3c-.2 0-.3.2-.3.3l.1.3.3-.3zM134 84c0-.4 0-.5-.3-.3-.1.2-.2.4 0 .6.2.4.3.3.3-.3zm-79.2-2.3a8 8 0 0 0 .4-1.9c0-.4 0-1 .2-1.5.1-.7.2-.9.7-.7.4.1.5 0 .3-.6l-.3-1.5c-.2-.7-.2-.8-.4-.3a5 5 0 0 0-.2 1.4c0 .4-.2.9-.3 1l-.4 1.6c-.1.9-.3 2-.6 2.5-.4 1.2-.4 1.6 0 1.4l.6-1.4zm2 .8c.3-.7.3-2.2 0-2-.1 0-.4.6-.6 1.3-.4 1-.4 1.2 0 1.2.1 0 .4-.2.6-.5zm94.9-.8c-.3-.2-1 .3-1 .7 0 .3 0 .3.5 0l.5-.7zm-92.4-4.3c.1-1 0-1.3-.1-1-.3.5-1.4 4.8-1.4 5.6 0 1 1.3-3.1 1.5-4.6zm68 4.2c0-.2-.1-.1-.1.2 0 .3 0 .4.1.3v-.5zm-60.5-3c.6-.4.8-1.2.3-1.2-.4 0-1.8 2.5-1.8 3.2 0 .5 0 .5.5-.5.3-.7.8-1.3 1-1.5zM58 76.4c0-1 0-1.2-.1-.9-.4.6-.7 2.8-.4 2.5.2-.2.4-.9.5-1.6zm6.4-.1c.7-2.2.7-2.5.2-3-.5-.3-1.1 1.1-.7 1.9.2.3.2.8 0 1.4-.3.9-.3 1.5-.1 1.5l.6-1.8zm85.5.6-.6-.2c-.5.1-2-.6-2-1s.3-.4 1 0c1 .4 1.5.4 1.2 0-.3-.4.4-.2 1.1.3.4.3 1.1.6 1.7.7.5 0 1.3.3 1.8.4 1.3.4 3.3-.1 4.2-1.2.6-.8.7-.9.5-3l-.2-3c0-.5-.2-.8-.4-.8-.7 0-.4-1 .5-2 .8-.6 1-1 1-2.5.2-1.5.2-1.8-.5-3.2l-.9-1.5c-.4 0-1.2 2-1.3 3 0 .9 0 1 .4 1 .6-.1 1 1 .9 2-.2.7-1 .8-1.6.1-.1-.3-.5-.6-.8-.7-.2 0-.4-.4-.4-.8 0-.5-.2-.7-.8-.7l-3-.1-2.1-.1-1.2 1.2a5 5 0 0 0-1.1 1.5l-.2.6-.2.7c0 .5-.2.6-1 .7-.7 0-1.2.2-1.4.3l.1 1.4c.2.6.3 1.4.2 1.7 0 .4 0 .4-.6 0-.2-.4-.6-.6-.8-.6-.7 0-1-1.1-.4-1.4.3-.2.4-.4 0-1-.4-1.1-1.2-.8-1.4.6-.3 2 1.1 3.5 3.4 3.7 1.6.1 2.4.7 1.7 1.2-.7.6-.4 1.5.7 2.3 1 .8 2.8 1 2.5.4zm7.6-2.7a.5.5 0 0 1 0-.6c.2-.2.4-.2.5 0v.6c-.3.2-.4.2-.5 0zm-4.7-1.6.8-1.1 1-1.6c.1-.8.8-1.7 1-1.5.5.5-1.7 4.4-2.4 4.4-.2 0-.4 0-.4-.2zm-.2-4.2c-.9-.3-1.1-.6-.8-1.2.4-.7 1.2-.6 1.8.3.7 1 .2 1.4-1 1zm-5-1.1c0-.2.3-.4.7-.7.5-.2.9-.3 1-.1 0 .1-.3.4-.7.6-.5.3-.8.3-1 .2zM78.8 76c0-.4.2-.5.6-.5.3 0 .6-.2.7-.6.1-.5.7-.7 1-.2.3.4.7 0 .7-.7s.3-1 .8-.7l1 .2c.6 0 .8 0 .8-.4 0-.3-.1-.5-.2-.5-.2 0-.3-.3-.4-.6 0-.3-.3-.5-.5-.6-1.4-.4-2.6-.9-3.5-1.4-.5-.3-1.1-.6-1.4-.6a5 5 0 0 1-1.6-1.2c-1.4-1.3-1.5-1.3-2-.8l-.5.4c-.1 0-.7.4-1.2 1l-1 .8.9.4c1 .6 2.6 2.4 2.8 3.3a10 10 0 0 0 2.8 3.2c.2 0 .2-.2.2-.5zM66 76c.4-.4.4-1.6 0-1.6l-.3.5-.3 1c-.2.4.1.5.6 0zm3-.4c1-.4 1.4-1.2.7-1.2-.3 0-2 1.6-1.8 1.6l1.2-.4zm-36.3-.3c0-.3 0-1.1-.2-1.8-.1-1.1-.2-1.2-.3-.7-.4 1.3-.3 3 .1 3 .2 0 .4-.3.4-.5zm30.5-1.9c.4-1.7.3-2.3-.4-2-.7.2-1 2-.7 3.3.4 1.2.6 1 1.1-1.3zm-2-.9c.6-2.2.4-2.6-.4-1.1-.5.7-.5 1.2-.4 2.1 0 .7.2 1.2.2 1.1l.6-2.1zm-3.8.5c.2-.9.2-1-.3-1-.6 0-.7.3-.4 1.6.2 1 .5.8.7-.6zm14.2 1c0-.2-.2-.4-.4-.4-.4 0-.5.3-.2.6s.6.2.6-.2zm14.8-1.9c-.5-.5 0-1 .8-.6.7.4 2 .4 1.8 0-.1-.4-2.7-1-4.2-1H84l.7.7.8 1c0 .4.5.6 1 .4.2 0 .2-.2 0-.5zM55.7 72c0-.2-.1-.3-.2-.3-.2.1-.2.3-.2.5.3.3.4.3.4-.2zm3.2-.4c0-.3.1-.6.3-.7.2-.1.3.2.2 1 0 .6.5.2.9-.7.6-1.2.6-1.4-.2-1.4-.4 0-.7-.3-.9-.7-.2-.4-.5-.7-.7-.7-.4 0-.4.2-.3 1l.2 2c0 .6 0 1 .2.9.2-.1.3-.4.3-.7zm35-1c2.8-.3 3.5-.5 3.1-1-.4-.4 0-.6.8-.6.9 0 2.1-.5 2.1-.8l-.2-.5c-.2-.4-.4-.4-.7 0-.4.3-1.1.2-2-.2-.3-.1-.5 0-.6.3-.2.5-1.5 1.1-3 1.3-.7.1-1 0-1.4-.3-.5-.4-.6-.4-1.3.4-.5.4-.8 1-.8 1.4 0 .5 0 .5.7.4.4-.2 1.8-.3 3.2-.4zm1.5-1c0-.4.7-.7 1-.3 0 .1 0 .4-.2.5-.6.3-.8.3-.8-.1zm-66.1.8c0-.8-1.1-2.8-1.5-2.8-.5 0-.4 1 .4 2.3.6 1 1 1.2 1 .5zm27.5 0c0-.4-.5-.8-.7-.6-.2.2.2 1 .4 1s.3-.2.3-.4zm44.5.2c.1-.1.7-.4 1.4-.5 1.3-.4 1.4-.6.7-1.6-.4-.6-.4-.7 0-1.5.5-1 1-1.2 1.2-.4 0 .3.4.7.8 1 .6.3.7.3 1.2-.2a2 2 0 0 1 1.2-.6c.5 0 .6 0 .4-1.1-.1-1 0-1.2.3-1.4 1.1-.3 1.7-.7 1.7-1 0-.4-1-.4-1.8 0a6 6 0 0 1-1 .2c-.3 0-.5.2-.4.6 0 .9-.4 1.4-1.3 1.4-1 0-1.3-.7-.7-1.2.3-.1.5-.5.5-.8 0-.2.3-.6.6-1 .7-.5 1-1.5.3-1.5-.2 0-.4.3-.5.6-.2.6-.5.6-1.2.2-.7-.5-1-.1-.5.7.3.6.3.7-.1 1-.3 0-.5.3-.5.5s-.4.7-1 1c-.6.6-.8 1-.8 1.3v.7c-.2 0-.3.3-.2.5.2.4-.8 1.5-1.4 1.5-.4 0-1.6.7-1.6 1 0 .2 1.4.7 2.2.8.2 0 .5 0 .5-.2zm-64.1-2c0-.5-1 0-1.5.6-.6 1.3-.1 1.6.8.5l.7-1zm16.9 1.2c-.1-.5-1.3-.8-1.3-.2 0 .5.3.7.9.7.3 0 .4-.2.4-.5zm1.2-.2-.4-.8c-.2-.1-.3 0-.1.3l.1.8c0 .2.1.4.3.4v-.7zm15 0c1.5-.6 2.2-1.2 2.6-2.2.3-.7.3-1-.1-1.3-.3-.3-.4-.7-.3-1 .1-.4 0-.7-.2-.8-.2-.1-.8-1-1.3-2-.6-1-1.8-2.9-2.7-4l-1.7-2.5c0-.3-2.4-2.4-2.7-2.4-.2 0-.2-.5-.2-1 0-1.4-.1-1.7-.8-1-.7.8-3 1.3-5 1l-2-.6c-.5-.5.2-.9 1.4-.9s1.4-.3.4-.7c-1.2-.5-.6-1 1-.9 2.1.1 2.7.3 2.5.8-.1.2 0 .3.3.3s.6-.1.7-.4c0-.3.3-.3.9-.2 1 .2 1 0 .8-2-.1-1.3-.2-1.5-.8-1.5-.5 0-1-.5-1.6-1.2-1.6-2-2-2.4-2.6-2.2-.6.2-.7.5-.3.8.2 0 .3.3.3.4 0 .5-.8.3-2-.5-.6-.4-1.4-.9-1.8-1-1-.2-2-1-2.4-2l-1-1.7c-.5-.7-.7-2.2-.3-2.2.1 0 .5.4.7.9.7 1.3 3 3.6 3.9 3.7l1.2.4a9 9 0 0 0 2.2 0H61l-.1-1c-.3-1.3-3-5.1-4.9-7-1.5-1.5-1.9-2.3-1.2-2.5a17.7 17.7 0 0 1 6.7 9c0 .5.9.6 1.2.3 0-.1 0-.5-.4-.8-.3-.4-.5-1-.5-1.4l-.6-2.5c-.5-1.4-.8-2-1.2-2-.8-.2-5.7-5-6.4-6.3-.6-1-.6-2 .1-2 .2 0 .5.3.6.6.1.5.6.7.6.3 0-.8 1.2 0 3.6 2.4 2 2.2 2.8 3 3.6 4.8 1 2 1.8 5.6 1.8 7.7 0 1.3.5.2.9-2.2a22.7 22.7 0 0 0-.8-11.1c-.3-.5-.3-.7 0-1.3.6-.7.4-1.4-.3-1.4-.4 0-.4-.3-.4-3.2 0-3.2.4-5.2.9-4.5.1.3.2.2.3-.1l.2-1c0-.4 0-.4-1.4.2-1.6.8-1.8 1.2-1.8 5.2 0 3 .5 5.7 1.1 6.7 1 1.5 1 5.2.2 5.2-.3 0-.4-.4-.4-1.2 0-1-1-3.6-1.7-4-.4-.3-1.3-2.2-1.3-3 0-.3.2-.8.4-1 .4-.5.8-4.6.5-4.6a31 31 0 0 0-2.2 6.3c0 .7-.5 1-.7.5-.2-.5.9-4.3 1.7-6.2.3-.8.6-1.5.5-1.6a35 35 0 0 0-5.3 4.6 19 19 0 0 0-3.2 5.5 30.4 30.4 0 0 0-2.2 9c0 1.5-.3 2.2-.8 2-.4-.3-.4-3.7 0-4.7l2.3-6.9c0-.3 0-.3-.4 0-.5.4-.8 1.2-2 4.7-1.6 4-1.8 6.3-.8 7.4.3.2.6 1 .7 1.7A14 14 0 0 0 50 47c.6 1 .6 1.7-.1 1.1-1-.9-.5.7.8 2 .7.9 1 .8 1 0 0-1.3.3-2 .7-2 .3.1.4.4.4.7-.4 1.8-.2 4 .4 5.3.4.8.8 1.4 1 1.4.2 0 .4.2.6.4.2.2 1.4.8 2.7 1.3 2.8 1 2.7 1.3-.2.4-1-.3-2-.5-2.1-.4-.1.1.1.6.6 1 .8.7 1.1.8 2.3.8.8 0 2.2-.3 3-.6.9-.3 1.6-.4 1.7-.2.4.3-.7.8-2.4 1-2 .2-2.7.5-1 .6 1.3 0 1.6.2 1.3.7-.2.3-.5.3-1.5 0-1.8-.4-2 0-.7 1.3 1.2 1.2 2.4 1.6 4.5 1.3 2.4-.3 2.5-1 .2-1.1-1.3 0-2-.4-1.6-.9.1-.1 1-.3 2.1-.4l3-.3c.9-.1 1.1 0 1 .2 0 .2.1.3.3.3 1.3.1-.2 1.2-2.6 2-1.4.5-2.1.6-4.3.5-1.7 0-2.5 0-2.5.2.1.3 2.3 1.5 2.8 1.5.7 0 .9.3.5.7-.3.4-.4.4 1.3 1.2l1.4.7 2-.4c2-.5 3.3-.4 3.3.3 0 .2-.3.4-.8.4-1 0-2.2 1-1.8 1.5.5.4 1.2.4 2.8-.2zm-4-3.7c-.5-.1-.8-.3-.8-.4 0-.2.5-.2 1.4-.1 1 .1 1.7 0 2-.1.7-.4 1.1-.2.7.2-.3.3-2.4.5-3.4.4zM68 63c.1-.5 1.4-1.2 1.6-1 .3.3-.7 1.3-1.2 1.3-.3 0-.5-.1-.4-.3zm-6.3-15.3c-.7-.4-1.8-.9-2.4-1-2-.6-2.3-.8-2.3-1.4 0-.3.1-.5.2-.5a24.4 24.4 0 0 1 5.5 2.4c.4 0 .8.8.5 1-.1.1-.8-.1-1.5-.5zm26.7 21.2-.1-1.4c0-.3-.3-.4-.9-.4-1.6.1-3.5 1.5-2 1.5.4 0 .9.2 1 .5.4.5 1 .8 1.7.8.4 0 .5-.1.3-1zm-56.8-1.8c.6-2 .7-2.7.4-2.7-.5 0-1.4 2.3-1.6 3.8-.1 1.4-.1 1.5.3 1.2.2-.2.6-1.3 1-2.3zm25.7 1.6c-.5-.5-.6-.3-.2.5.2.4.3.5.4.2 0-.1 0-.5-.2-.7zM60 68c-.2-.2-.3-.2-.3 0 0 .1 0 .3.2.4h.3L60 68zm-19-.2 2.8-1a29 29 0 0 1 3.6-.6 16 16 0 0 0 2.9-.6c.5-.2.5-.3-.1-.5h-3.8c-3.1 0-3.2 0-5.5 1.3-1.3.6-2.4 1.4-2.4 1.6 0 .5.4.4 2.4-.2zm39.2 0c.2-.2.4-.7.3-1 0-.6 0-.7.8-.7l1.3-.3c.3-.2.8-.3 1.1-.2.4.1.6 0 .6-.3s-.2-.4-.7-.4c-.5 0-1.5-.6-3.1-1.9a18 18 0 0 0-3.8-2.5c-.6-.5-.9-.6-1-.3a50.4 50.4 0 0 1-1 3.4c0 .6 1.4 2 2.4 2.6.6.3 1.3.9 1.6 1.3.7 1 .9 1 1.5.3zm10.2.1c0-.2.2-.4.4-.5.2-.1.5-.5.6-1 .2-.5.7-1.2 1.2-1.6.8-.6 1-.7 1.6-.4.3 0 .7.3.8.5l1.8 1c1.6.8 1.8.8 2.5.4.8-.4.8-.4.5-1-.4-.5-.4-.8-.2-1.2.5-.8-.6-2-2-2-.8 0-1.2-.4-2.3-1.4-.8-.8-1.5-1.2-1.7-1.2-1.7.6-2.8 1.2-2.5 1.5.2.2.4.1.8-.1 1-.7.9 0-.4 1.8l-1.6 2.1c-.2.2-.3 1-.3 2 0 1.2 0 1.5.4 1.5.2 0 .4-.1.4-.4zm3.7 0c.2-.2.5-.4.8-.4.8 0 .6-.4-.3-.9-1.1-.6-1.3-.5-1.3.7 0 1 .2 1.3.8.6zm-40.6 0c.1-.3-1.5-1.7-1.9-1.7-.3 0 .1 1.4.5 1.7.4.2 1.2.2 1.4 0zm30.5-.5c0-.5-.4-.7-.9-.5-.5.2-.5.8 0 1 .4.1 1-.1 1-.5zm-25.5-.1c.1-.2-.3-.7-.8-1.3-.8-.8-1-.9-1.1-.5 0 .2.1.8.4 1.2.6.9 1.2 1 1.5.6zM38 65c-.2-.1-1.6 1.2-1.6 1.6 0 .1.4-.1.9-.6l.7-1zM88 66.2l-.4-.2c-.1 0-.2 0-.2.2s.2.3.4.3.3-.1.2-.3zm-47-1.7c2.3-.8 4-1 3.5-.3-.3.4-.2.4 0 .4.7 0 2.1-.5 2.1-.8 0-.2-1.7-.8-2.6-.8-.3 0-.6-.1-.7-.4-.1-.2-.3-.4-.5-.4s-.7-.3-1.2-.7c-.8-.8-1.3-1-1.3-.6l.5.7c.5.3.6.5.4 1.4-.3.9-.4 1-1.1.9-.8 0-1.8.6-1.5 1 .2.4.2.3 2.4-.4zm-3.2-.9c1.2-1.3 1.3-1.6.3-1-1 .4-1.8 1.3-1.8 1.8 0 .7.2.6 1.5-.8zm50.4-.8c.5-.4.5-.6.2-.6s-.7.4-1 .8c-.3.6-.4.8-.2 1.3.3.6.3.6.4-.1 0-.4.3-1 .6-1.4zm-54.7 1.3c.1-.1 0-.3-.1-.4-.1 0-.3 0-.3.3 0 .4.2.5.4.1zM85 63c.3-.8.4-2.3.2-2.3s-.8 1.5-.8 2.2c0 .5.5.6.6 0zm66 0 .6-.5c0-.3-2.1-2.4-2.4-2.4-.5 0-.2 1.9.3 2.5.7.8.6.8 1.4.4zm-98-.6c-1-.9-3-1.4-3.3-1-.1.3-.6.2-1.8-.3-.8-.4-1.8-.7-2.2-.7L44 60c-1.2-.4-2.2-.5-2.2-.2s1 .7 2.2 1c.5.1 1.2.4 1.6.7.4.3 1.2.6 1.8.7.6 0 1 .2 1.2.3.2.4 1.5.3 1.8 0 .2-.2.7-.2 1.5.1 1.7.6 2 .5 1-.2zm21-1c.1-1-.3-1.4-.6-.6-.1.2-.5.4-.8.4-1 0-.9 1 0 1.1 1.2.2 1.3.1 1.4-1zm17 .6c0-.2-.1-.3-.3-.3-.1 0-.2.1-.2.3l.2.2c.2 0 .3 0 .3-.2zm-24-.4c.6-.4.6-.4 0-.3-.9.3-1.4.7-.8.7l.9-.4zm-14.5-1c-.4-.4-.8-.7-1-.7-.4 0 1 1.3 1.5 1.3.1 0 0-.3-.5-.7zm30-.5-.1-.6-.3.6c-.3.8-.2 1.3.2.9.2-.2.2-.6.2-.9zm2.7-4.3c.3-.9.1-1.2-.4-1.2-.2 0-.6-.3-.7-.7-.2-.3-.5-.6-.7-.6-.5 0-.4.7.1.9.5.1.5.5-.2 4.2a7 7 0 0 0 0 2.2c0 .4.7-1 1.9-4.8zm.1 4.3v-1c-.1-.5-.2-.6-.4-.3-.3.5-.3 1.6 0 1.6l.4-.3zm1.6-.6c.2-.5.9-1.2 1.5-1.5l1-.8s-.3-.3-.7-.4c-.5-.3-.8-.3-1.1 0-.4.2-.6.2-.9 0-.6-.7-.7-.4-.7 1.6 0 1.1 0 2 .2 2l.7-1zm-37 0c-.4-.5-.4-.7-.1-.8.2 0 .2-.2.1-.3-.2-.3-7-.4-7-.1l2 .8c1.5.4 2 .5 2.3.2.3-.2.5-.2 1 .1.6.4 1.2.6 1.9.7l-.2-.6zm24.6-.2c0-.2-.1-.2-.1.1 0 .3 0 .5.1.4v-.5zm17.9-.1c.4-.2.7-.5.7-.7 0-.2-1.2-.6-1.4-.4l-.7 1-.6.8.6-.2c.4 0 1-.3 1.4-.5zm-20.7-.8c0-.3-.1-.7-.3-.8-.1 0-.2.2-.2.7 0 .4 0 .8.2.8s.3-.3.3-.7zm10.6.4c.2 0 .8-2.2.8-3 0-1-.5-.3-.7.8-.2 1-.4 1.3-.8 1.4-.4 0-.4 0-.3-1l.6-2c.8-2.5.7-3-.4-2.3-.5.3-1.1 3.2-.8 3.6.1.1.3.7.3 1.3 0 1.2.1 1.6.7 1.4l.6-.2zM74 57.3a9 9 0 0 0 .4-2.4c0-1 0-1.1-.4-.9-.2.2-.4.9-.5 1.6a83 83 0 0 1-.3 2c-.3 1.4.3 1.1.8-.3zm-2.9-2.6c.5-1.7.5-1.7 0-1.7-.4 0-.8 1.1-1 3-.2 1.6.1 2.2.4 1l.6-2.3zm-19.9 1.7c-.2-.8-.6-1.3-1-1.3-.5 0-.5.2.1 1 .7 1 1.2 1.1 1 .3zm26.8-3.7a37 37 0 0 0 1.3-7.8c-.3-.4-.4 0-1.2 3.2l-.8 3.3c-.5 2.2-.7 5-.3 4.6.2-.1.6-1.6 1-3.3zm-4.7.6.8-2.8c0-.3 0-.5-.2-.4-.7.3-2.1 5-1.7 5.6.3.4.5-.2 1.1-2.4zm-5.3 1a17.2 17.2 0 0 0-1.5-2.4l-.6.9 1 1.2c1 1.1 1.7 1.3 1.1.2zm8.4-1.9c.2-1.6.1-1.9-.1-1.6-.5.4-.8 2.4-.6 3.5.2 1.3.5.4.7-1.9zm2.9 2-.1-.4c-.2 0-.3.2-.3.4l.1.4s.2-.1.3-.4zm5.8-2c-.4-.4-.5-.4-.6 0 0 .1 0 .6.3.9l.3.6.2-.6c.3-.5.2-.7-.2-1zm-34.5.9c0-.2-.2-.4-.5-.6-.6-.3-.7 0-.2.5.3.4.7.4.7 0zm18.3-1c.4-1.9.6-2.6 1.2-2.9.7-.3 1.8-2.3 2.3-4.4.2-.9.6-1.8.9-2 .4-.3.4-.3-.3-1l-.7-.7-1 1.1c-1 1-1.2 1.3-1 2a12 12 0 0 1-2.4 6c-.4.3-.5 1.2 0 2.2.4 1 .9.8 1-.2zm2-1c.3-.7.7-1.5.9-1.6l.2-1c0-.3-.4 0-1.2 1.4-.6 1-1.2 2.2-1.2 2.5 0 .7.4.3 1.2-1.3zm8.9 1.1c.1-.2.2-.5 0-.6-.1-.2-1.2.6-1.2 1s.9.1 1.2-.4zM66.3 48a5.8 5.8 0 0 1 0-3.2c.2-.9.5-.2.5 1.2s.7 2 1.3 1.3c.5-.8.4-2.7-.2-3.1-.3-.2-.5-.7-.5-1.2 0-1-.7-4.7-.9-4.4l-.6 2.9c-.4 2.6-.4 5.5 0 8l.2 1 .3-.8c.2-.5.1-1 0-1.7zm10.6.8c0-.7 0-.7-.4-.2-.5.7-.5 1.2 0 1 .2 0 .4-.4.4-.8zm-3.5-1.9c0-.4 0-.5-.3-.5-.2.1-.4.4-.4.8s0 .5.3.4c.2 0 .4-.3.4-.7zm-25.4.3c0-.1-.2-.8-.6-1.4-.4-.6-.7-1.4-.7-1.6 0-.3 0-.5-.2-.5s-.4-.3-.5-.7c0-.4-.4-1.4-.6-2.2-.6-1.6-.6-3 0-3 .1 0 .3-.3.4-.9.4-2.6 1.5-5.9 2.4-7A28.5 28.5 0 0 1 57 20l2.4-2c0-.5-.9 0-2.4 1a42.1 42.1 0 0 0-11.7 14l-3 6c-1.1 1.6-1 2.2 0 1l1-1c.1 0 .4.6.6 1.4.6 2 2.7 6.4 3.3 6.7.6.4.8.4.8.1zm15.4-3.1c-.2-.5-.3-.5-.3 0 0 .7.4 1.1.5.7 0-.1 0-.5-.2-.7zm-1.6-.8c-.4-.5-.7-.8-.8-.7-.2.2 0 .6.5 1 1 1 1 1 .3-.3zM85 39l-.4-.8c-.3-.4-.5-.5-.7-.3-.2.2-.2.4.2.8.5.5.9.7.9.3zm-7.3-8.3c.5-1.5.6-2 .3-2.7l-.3-.9-1 .6-1 .6s.1.3.4.5c.4.3.4.3 0 1.1-.5.8-.5.9 0 1.8.2.5.6 1 .7.9.2-.1.6-1 1-2zM67.4 30c0-.3-.2-.7-.4-1-.3-.1-.5-.6-.7-1-.3-.7-.6-.9-1-.4 0 .2.3 1.3 1 2.3.4.7 1 .8 1 0zm6.7-2.4c1-.3 2.2-1 2.3-1.4 0-.1-.2-.2-.3 0-.2 0-.9 0-1.6-.2-1.3-.3-1.3-.3-.9-.8s.4-.5 0-.5l-.7-.4c-.2-.3-.1-.5.5-.8.4-.2.6-.4.4-.4-.5 0-.4-.8.1-.8.3 0 1-.2 1.6-.5 1.3-.7 1.7-.6 1.5.5-.2.7.4 1.9 1 1.8.1 0 2.2-5.5 2-5.6l-1-.2c-1.3-.2-1.6.1-.6.7.6.3.7.4.3.5-.8.3-1.8 0-2.8-1-1-1-1-1.7 0-1.4.2 0 .4 0 .3-.1 0-.2-.4-.3-.8-.3-.7 0-.9-.6-.2-.9.8-.3 1.5-.1 2 .6.4.4 1.1.8 1.7 1 1.3.5 1.4.5 1.4 0 0-.2 0-.4-.2-.4-.4 0-2.5-2-2.2-2.2h1.4c1 .1 1.3.2 1.3.6 0 .6.6.9 1 .5.6-.3 2.2-.3 2.2 0 0 .2-.4.5-.8.6-1 .3-1 .8-.2.8l1 .1c.7.3 1.4-1.3 1.1-2.7-.1-1.1-.2-1.1-1.1-1-.6 0-1.3-.3-1.8-.6l-.7-.5h1.2a5 5 0 0 0 2.9-1c.4-.4.4-.6 0-2l-.6-2c0-1-.5-2-1-2-.3 0-1-.3-1.6-.8a8.4 8.4 0 0 0-5-1.4c-1.1.1-3 1-3.3 1.4-.1.2 0 .3 0 .4.2 0 .4.6.4 1 .2.6.7 1.4 1.4 2.2 1.4 1.3 1.4 2 0 .8-1.3-1.1-2-2.3-2-3.2 0-1.3-.6-1.1-1.3.3-.5 1-.8 1.2-1.4 1.4-1 .2-1 .5 0 1 1 .4 2.6.5 2.3 0 0 0-.4-.2-.7-.1-.4 0-.6 0-.6-.3 0-.8 1.3-.6 2 .3.8 1 1 1.4.4 1.2-.6-.3-1.7 0-1.7.5 0 .4-.9.6-2.2.6-.6 0-1 .2-1.1.4-.1.2-.3.4-.6.4-.2 0-.4.1-.5.3-.1.1 0 .2.4.2.5 0 .6 0 .7 1.2 0 .7 0 1.3-.2 1.4l-.7 1c-.3.8-.4 1.1-.1 2.1l.3 2.1c0 .7.3 1.4 1 2.3.4.8.8 1.6.8 2 0 .6 2 3.6 2.4 3.6l1.2-.3zm-3.6-4.7c0-.5 1.6-1.7 2-1.6.7.1.8.7.2.7-.3 0-.7.3-1 .6-.5.5-1.2.7-1.2.3zm1.5-4.5c-.8-1.7-1.1-3.4-.7-4 .1-.2.3-.4.4-.3l.9 1.2c.5.7.7 1.2.6 1.3h-.5c-.4-.2-.4.5 0 1.6 1 2.1.3 2.4-.7.2zm1-4.6c-.2-.4.4-.5 1-.2.3.1.5.3.5.4 0 .2-1.3 0-1.4-.2zm-.3-1.7a.6.6 0 0 1-.3-.5c0-.6 1-.5 1.3.1.2.5.2.5-.2.5a3 3 0 0 1-.8-.1zm4.8-.4c-1-.5-.7-.8.6-.6l1.2.2v-1c0-1.2.6-1.2.8 0 0 .6.2.8.9.8.6 0 .9-.2 1.2-.8.2-.4.3-.8.2-.9-.2-.1-.4 0-.5.3-.3.5-.8.3-.6-.3.2-.6.6-.9 1.2-.9.3 0 .5.3.5.9 0 .5.3.9.5.9.6 0 .6.5 0 1s-5.1.8-6 .4zM80 26c.1-1.2 0-1.7-.4-1.5-.3 0-.4.3-.3.8.1.4 0 .7-.4.9-.5.3-.5.3 0 .6.7.4 1 .2 1-.8zm-19.5-1c-.2-.4-.4 0-.2.6.2.4.2.4.3 0V25zm17.5.4-.1-.3c-.2 0-.4.1-.5.3 0 .1 0 .2.2.2.1 0 .3 0 .4-.2zm4.7-3.6c.7-.3.5-.6-.6-.7-1.2-.2-1.8.1-2 1-.3 1 0 1.2 1.1.5.6-.4 1.2-.8 1.5-.8zM68.2 10.5c0-.4-.5-.8-.8-.5-.2.2.2 1 .5 1 .1 0 .3-.3.3-.5zm49.3 128c-.2-.4 1.4-.8 3.8-1 2.5 0 2 .3-.7.7a25 25 0 0 0-2.6.4l-.5-.1zm10.5-.2c0-.3 2.4-.7 2.6-.5.2.2-.3.5-1.4.6l-1.2-.1zm-95.8-.4.4-.2c.2 0 .4 0 .4.2s-.2.3-.4.3-.4-.1-.4-.3zm-12.5-.6.4-.3.4.1c0 .2-.1.3-.4.3l-.4-.1zm109.6 0c0-.8.9-1.4 2.5-1.6 1.5-.2 4-.8 4.2-1 .2-.2.1-.3 0-.5-.8-.4 1.5-.8 9-1.7a91 91 0 0 0 4.1-.3c0 .2-.1.3-.5.4l-3 .5-4.7 1c-1.4.3-3 .7-3.4 1a9 9 0 0 1-2 .6c-.6 0-2 .5-3.3 1-2.2.7-3 .8-3 .5zm8-.8c1-.4 2.6-.8 3.5-1l3-.6c.7-.3 1.3-.3 1.5-.2.3.4.6.3-5.7 2l-3 .4c-1 0-1 0 .7-.6zm-122.8.1c-.3-.1-.4-.3-.3-.3l4.5-.3c4.5-.2 5.3.1 1.2.5l-3.7.2a4 4 0 0 1-1.7 0zm105.4-.5c.5-.5 10-1.7 10.3-1.3.2.3-.2.5-1.3.5l-5 .5c-4.7.6-4.3.6-4 .3zm75.2-.2v-.6c0-.3-.4-.5-1-.5-.7 0-1-.2-1-.5s.4-.4 2.2-.3c1.5 0 2.4.2 2.4.4.1.2-.2.3-.9.4-.7 0-1 .2-1.3.7-.2.4-.4.6-.4.4zm-61.3-1.4c.5-.4 1.6-.4 1.4 0l-1 .2c-.6 0-.7 0-.4-.2zm-116.4-.6c-4.2-.2-5-.3-4.7-.7h2.4l6.4.4c2.3 0 4.4.3 4.6.4.4.2-1.8.2-8.7-.1zm110.3-.3c1-.6 6.9-1.4 6.9-1 0 .2-5.9 1.4-7 1.3h-.6l.7-.3zm-6.7-.4a32 32 0 0 1 6.6-1c.3.2-1.8.7-3.8.8l-2.7.3c-.3.2-.3.1-.1-.1zm66.6-.6v-.8c.2-.6.2-.6-1.7-.4-1.7.2-1.9.1-2.1-.4-.3-.5-.2-.5 1.2-.5 1.2 0 1.4 0 1.4-.5 0-.7.5-.8 3.4-.9 1.3 0 2.2 0 2.2.2s-.5.3-1.3.4c-3.8.1-4.6.6-2 1 .9.1 1.3.3 1.3.6 0 .7.4.7 2.6.5 2.3-.2 4 .1 2.3.4l-6.7.7c-.3 0-.5-.1-.6-.3zM138 131h.5l-.4.1c-.3 0-.4 0-.1-.1zm-31.2-1s.3-.2.7-.2c.7 0 .7 0 .2.3-.7.3-1 .3-1 0zm-87.3-.1c-.7 0-1-.2-1-.4 0-.3 1-.3 3-.2l4.9.1c3 .1 3.1.1 3.1.4 0 .2-7.2.3-10 0zm89.1 0c.4-.3 3.2-.5 3-.2l-1.8.2c-1 .2-1.4.1-1.2 0zm4.7-.6c1.4-.3 3.3-.3 2.6 0l-2.1.2c-1.5 0-1.5 0-.5-.2zm5-.5h.7c.2.1 0 .2-.3.2-.4 0-.5 0-.3-.2zm2 0c0-.2.5-.3 1.1-.3.9 0 1 0 .6.3-.7.3-1.7.3-1.7 0zm-102-.5c-3 0-5-.2-5-.3 0-.4 12.4-.3 12.8.2a463.4 463.4 0 0 0-7.8.1zm105.7.1c.2-.2 8.4-1 8.9-.9.2.1.3.3.2.5-.1.1-1 .2-2.3.2a48.3 48.3 0 0 0-6.8.2zm68-.6c1-.4 2.4-.5 2.4-.1 0 .3-1 .5-2.3.5h-1zm-91.8-.6c0-.4 9.7-.7 10.1-.3.2.2 0 .3-.7.3l-5.3.1h-4.1zm-83.2-.3c-3.3-.1-4-.2-4-.5 0-.4.7-.4 4.8-.5 4.8 0 9.2.4 9 .9 0 .3-3.6.3-9.8.1zm96.4 0 .5.1c0 .1-.1.2-.4.2-.3 0-.4-.1-.1-.2zm-103-3.8c0-.7.5-.9 2.8-.9 1.3 0 2.3.1 2.3.2 0 .2.2.3.5.3s.6-.1.6-.3c0-.1.3-.2.7-.2.4 0 .5 0 .3.1-.8.2-.6.7.2.6.4 0 .7-.2.7-.4 0-.3.6-.4 2.8-.4h3.3c.7.1 1.5.8 1.3 1.1 0 .2-3.6.3-7.8.3-6 0-7.6-.1-7.6-.4zm10.1-.4c0-.2 0-.3-.2-.3s-.3.1-.3.3c0 .1.1.2.3.2.1 0 .2 0 .2-.2zm-15.7-2.7c-.3-.5 1-.7 5.7-.9a38.7 38.7 0 0 0 7-.8l1.3-.2-1.7-.2c-3-.4-8.6-.6-11-.3-2 .2-2.6.1-2.7-.1v-.5a138.8 138.8 0 0 1 24 1l-4 .4c-4 .1-5.3.5-2.1.6a206.8 206.8 0 0 1 5.5.2c1.6 0 2 .1 2 .5 0 .3-.4.4-3.2.2a145 145 0 0 0-20.8.1zm161.5-.7c0-.4.6-.5 3.6-.4 1.6 0 2.7.2 2.6.4-.2.3-6.2.3-6.2 0zm44.5-2.4c-.2-.2.3-.3 1.5-.4 2.7-.3 5-.2 5 0v.4c-1.4.1-6.2.2-6.5 0zm-15.9-.4c-.1-.2-.2-.4 0-.5.2-.2 5.3-.4 12-.6 2.6 0 6-.3 7.6-.4 2-.2 3-.2 3.6 0 1 .4.6.6-1 .6-.6 0-2 0-3.2.2a553.2 553.2 0 0 0-15.7 1c-2.5.1-3 0-3.3-.3zm-176.2-1.3c-.2 0 .6-.2 1.9-.2 1.4 0 2.3.1 2.3.3 0 .3-3.4.2-4.2 0zm115.5.1c.3-.3 6-.6 6-.3s-1.4.5-4 .5c-1.4 0-2.2 0-2-.2zM8.5 115c-.5-.1.5-.2 2.7-.2 2 0 3.5 0 3.6.2.2.3-5 .3-6.3 0zm7.3 0H17c.7.2.7.2-.4.2-.9 0-1.1 0-.8-.2zm111.2-.3c-.4 0-.6-.2-.4-.2l2.7-.3c4.5-.5 8.9-.8 9.3-.6 1 .3.1.6-1.7.6l-5.1.4c-3.5.4-3.6.4-4.8.1zm-16-1.1c0-.3.3-.5 1-.5.5 0 .9.2.9.3 0 .2-.2.3-.4.3a5 5 0 0 0-.9.1c-.4.2-.6 0-.6-.2zm-102.5-.3c-.4-.5.3-.7 2.5-.7 2.4 0 3.5.3 3.5.7 0 .2-5.9.3-6 0zm106.5-.1c0-.2.1-.3.3-.3l2.2-.3a57.1 57.1 0 0 1 12.2-.2l4.5-.2c3-.1 4.1 0 4 .1-.7.6-23.2 1.5-23.2.9zm9-.5a1 1 0 0 0-.6 0l.3.1h.3zm47 .6v-3c.1-3.2.3-5 .6-5s0 7.7-.3 8c-.1.1-.2.1-.2 0zm-160.5-1.4c-.2-.2-1.5-.2-3-.2-2.2.1-2.6.1-2.6-.2 0-.7 1.3-.8 5-.5 3.6.4 5.6.5 7.3.2.8-.2 1.2-.1 1.4.2.3.2.7.3 1.7.2.8 0 1.3 0 1.3.2 0 .4-10.5.4-11 0zm161.8-2.5c-.2-2.3-.2-3.7 0-3.7.4 0 .6 1.4.6 3.4 0 2.2-.4 2.4-.6.3zm-2.3 0c0-1.4 0-1.5-.5-1.5-.7 0-.7-.5 0-.7.5 0 .5-.2.4-1.4-.2-1.6 0-3 .4-2.4.3.5.3 7.4 0 7.4-.2 0-.3-.7-.3-1.5zm18.8.9c-.3-.7-.3-1.6 0-1.6s.4.2.7 1.2c.2 1-.2 1.2-.7.4zm-178-.6c0-.3.2-.3 7-.4l8.7-.2c2 0 3.1 0 3.2.2a108.1 108.1 0 0 1-19 .4zm-10-.3c-.4-.6.6-.7 3.4-.7 2.5.1 3.4.3 3 .6-.2.2-6.3.3-6.4 0zm124-1.5c0-.2.4-.3.8-.3.7 0 .8 0 .5.3-.5.3-1.3.3-1.3 0zM.3 106.3c-.2-.3-.2-2 0-2l2.2.5c2.6.6 2.8 1.1.5 1.1-1 0-1.8.1-2 .3-.1.3-.4.3-.7 0zm4.5-1.7A101.1 101.1 0 0 0 4.5 88a77 77 0 0 1-.1-9.4c.2 0 .5 3.5.5 6.1 0 1 .1 1.8.2 1.8.3 0 .6-3.7.6-6 0-.6.1-1.2.3-1.3.4-.2-.1 9.6-.6 10-.2.4-.1 3.5.3 8 .4 3.3.4 6 0 6.9-.2.7-.6.8-1 .4zm-3-1.2c-.2-.5.3-1 .7-.8.4.2.4.8-.1 1-.2.1-.5 0-.6-.2zm11.3.1c-2.6 0-4.8-.2-4.9-.3a77.2 77.2 0 0 1 12.2-.2c.2.4-.8.8-1.8.7-.5 0-3 0-5.5-.2zm175-.2c-4.5 0-5.8-.3-4.1-.7a56.6 56.6 0 0 1 9.7 0c.2.4-.3 1-.7.9l-5-.2zm-66.4-.3c-.2-.2-.7-.3-1.1-.3-.5 0-.8-.1-.8-.4 0-.4.5-.6 1.4-.6l.9-.3c.2-.3.3-.2.5.4.2.3.5.7.7.7.3 0 .4.1.4.3-.2.4-1.6.6-2 .2zm95.6-.4c-.6-.5-.6-.8.1-1.2.6-.3 1-.8 1-1.1 0-.4-1.2-.9-2.6-1-1.9-.2-1.7-.7.3-.6 2 0 3.1.6 3.1 1.6 0 .4-.1 1-.4 1.1-.7.7-.4.9 1.2.7 1.3 0 1.6 0 1.6.3 0 .2-.3.3-1 .3l-1.9.2c-.6 0-1.1 0-1.4-.3zM.1 101.8c-.2-1.4 0-5.2.4-5 .1.1.2.7.1 1.3v1.7c.3.8.8-7.7.6-9.4V68.1c.4-7 1-11.3 1.4-11.8.3-.3.3.8 0 2.1a130 130 0 0 0-.9 18.4c0 18.6 0 22.4.9 23 .2 0 .2-.7.1-2.4 0-2.4.5-6.8.9-6.8l.2 5.5c0 4.4-.1 5.6-.4 5.6-.2 0-.4-.3-.6-.6-.2-.4-.4-.5-.7-.2-.3.2-.5.3-.7 0-.5-.5-.7-.3-.7.8 0 1.3-.4 1.4-.6 0zm124 .2-.6-.7c-.4-.2-.4-2.3 0-2.3l.2.8c0 1.6.5 1.3.6-.4.2-1.7.6-2.7.9-2 .2.7-.3 4.9-.6 5-.2 0-.4-.1-.5-.4zm-101.5-.8v-8.8c.2-4.7.3-12 .3-16.3 0-7.7.4-12.7.9-13.2a1052.9 1052.9 0 0 0-.2 22l-.3 15c-.2 1.4-.4 1.9-.7 1.3zm-8-9.3a182.6 182.6 0 0 1 .5-23.2l.2-3h-2.6c-2.5-.1-3.3-.3-3-.7.3-.2 5.4-.5 6.2-.3.8.2.9 1 .3 2.4-.5 1.2-1 11.5-1 19.6a51 51 0 0 1-.1 12.8c-.2 0-.4-2-.5-7.6zM6.7 99l.1-2.8.2-11c0-8.3.4-14.4.8-16.3a387.7 387.7 0 0 0-.4 19.4c.3.3-.2 11-.4 11l-.3-.3zm171-1c0-.2 1.1-.3 3-.3 2.5 0 2.7.1 1.5.3-2.2.3-4.5.3-4.5 0zm6.9-.3c0-.2.7-.3 1.6-.2 2 0 1.8.1-.2.3l-1.4-.1zm-172.8-1c0-.6.1-1.1.3-1.1.1 0 .2.4.2.9s0 1-.2 1c-.2.2-.3-.2-.3-.8zm176.7.7.3-.2c.1 0 .3 0 .4.2 0 .2 0 .3-.2.3-.3 0-.5-.1-.5-.3zM9.8 95.3a584 584 0 0 0 1-27.1l.2-.7c0-.1.1-.2.3-.2a107.8 107.8 0 0 0-.2 7.8c-.1 6.7-.7 21.3-.9 22.3H10c-.2 0-.2-.7-.1-2.1zM195 96.8c-.2-.4-.4-.4-1.6-.3-1 .1-1.4 0-1.4-.1 0-.2 0-.3.2-.3l3.5-.4c1.9-.2 3.6-.3 3.8-.2.8.3.4.6-.8.6-1.1 0-2.9.5-2 .5.2 0 .3.2.3.3 0 .5-1.8.3-2-.1zm2.7 0 3-.2c1.8 0 3.2 0 3.3-.2.1-.2-.1-.3-.6-.3-1 0-1.2-.2-.8-.7.2-.2 1-.3 2.3-.3 2 0 2 0 1.8.6-.2.6-.1.7.8.7.8 0 1.3.5.6.6-1.1.1-10.1 0-10.4-.2zM.2 94.8c0-.6 0-1 .2-1 .3 0 .3 1.8 0 2-.1 0-.2-.4-.2-1zm20.4.7v-3l.6-13.4c.2-6 .5-11.2.6-11.6.3-1 .1 14-.2 21.7-.3 5.8-.5 7.4-1 6.3zm165.5-4 .2-4.6c0-.4-.1-1-.5-1.7-.8-1.2-2.2-1.9-4.4-2.2-1.4-.2-1.9-.6-1.3-1.3.4-.6 2-.5 3.7.1l1.5.6a45 45 0 0 0 1.1-7c0-.3-.2-.3-.7-.2-.5 0-1.2-.1-1.7-.4-.6-.3-1.5-.5-2.6-.5-1 0-1.7-.2-1.8-.4 0-.2.6-.3 2.6-.3 2.3 0 2.8.1 3.4.6.5.4.7.4.9.2.4-.8-.2-4.4-.8-5.2-.7-.8-3.5-1.6-3.5-.9 0 .4-2.2 1.4-2.5 1.1-.1-.1.3-.4 1-.8l1.2-.7c-.3-.2-4.4-1-4.6-1v.8c.1.4 0 .7-.5 1-.4.3-.7.6-.6.8.1.3-.5 8.8-.8 11.2 0 .8-.3 1.3-.4 1.2-.1 0-.2-.7-.1-1.4l.7-9.1c.2-3.8.2-4.6-.2-4.9-.5-.5-.5-.3-.9 3.4l-.5 4.5c-.2.8-.4 4.2-.6 7.6-.3 7.7-.3 8.4 0 10 0 1 0 1.5-.2 1.6-.2.1-.3-.1-.4-.6-.1-.5-.4-1-.7-1-.6-.2-.9-1.5-.8-3.8 0-3.9.4-10.5.6-10.9.2-.3.4 8.2.3 9.5 0 .1 0 .4.2.4.2.2.3-1 .3-3.6a981.4 981.4 0 0 1 .3-21V59h-2c-1 0-2-.2-2.4-.3a8 8 0 0 0-2.5-.4c-1 0-1.9 0-1.9-.2 0-.4 1.1-.6 3.7-.7 4.8 0 7.6-.7 8-1.8.3-.6-.3-2.4-.7-2.5-.4-.2-1.8.2-2.7.7-.4.3-1.8.4-5.2.3-4.2 0-5.3-.1-5-.6l4.4-.3a54 54 0 0 0 5.7-.6l1.4-.3-1.8-.6a18 18 0 0 0-3.2-.5l-4.2-.3-3-.2-.2 2.2a112.4 112.4 0 0 0-.4 5.5c-.6 0-.7-.8-.5-2.8l.4-6.4c.2-4.7.3-5.4.7-5.1.2 0 .2 1 .2 2.9V50l3.2.2c2.8.2 2.9.2 3-.4.4-1 .6-4.3.8-11.1.1-4.1.1-4.2-.4-1l-.5 2.8c-.3.8-.9.5-.6-.3l.2-4.4c0-3.2 0-3.8.4-3.8.3 0 .4.3.5.8.1 1.2.6 1.1.6 0 0-.8-.2-1.2-.9-1.8-.4-.4-.7-.8-.6-1l2.3-.2c1.6 0 2.2-.1 2.8-.5 1-.8 1.8-2.3 2.2-4.2l.8-2.7.7-2.2c.4-1.6.6-8 .4-9.4-.2-1-.3-.7-.4 1.7-.1 1.5-.2 3.7-.1 4.9 0 2 0 2.2-.7 3-.9 1-1.4 1-1.7.4 0-.2.2-.6.7-1 .7-.8.7-.9 1-4.4l.1-7.3c0-5 0-5 1.1-5.2.7 0 .8-.2.8-.6-.1-.9.4-1 .9-.3.4.7.3 1.8-.5 5.3-.3 1.7-.3 1.5-.1 7.7.2 4.9.6 10.1.9 10.5l.7.2c.5 0 .6-.1.7-1.2.1-1 0-1.4-.3-1.7-.4-.3-.4-.7-.2-3.4l.5-8c.4-7.9.6-9.3 1-9.4.3-.1.3.1.2 1l-.3 3.8c-.2 2.4-.1 2.5.4 2.5.4 0 .5.2.5.8 0 .4 0 .9-.2 1l-.4 1.2-.4 2.9c-.6 3.7-.8 6.2-.4 6.5.2.2.4.8.4 1.9 0 1.3 0 1.6.4 1.6.2 0 .4.2.4.4s0 .4.2.4.3-.3.3-.7c0-.5.2-1 .4-1.3.3-.4.4-.5.5 0 .1.1 0 .6-.1 1-.4 1.1-.3 1.5.2 1.5.4 0 .6-.2.6-.8 0-.6.3-.9.5-.9.6 0 .4 1.4-.2 2.3-.4.5-.7.6-1.9.6-1.3 0-1.6-.2-2-1l-1.1.1c-1.5.4-1.6.2-2-1.8-.2-.8-.4-1.5-.6-1.5-.1 0-.6 1.1-1 2.5-1.1 3-1.5 3.5-3.6 4.7l-1.7 1-.2 1.9c-.2 1-.3 4.7-.3 8.2l-.3 7c-.3.6.2 1.5.8 1.5.3 0 1 .3 1.5.6.6.3 1.5.5 2.2.5 1.5 0 1.7.1 2.3 1.5 1.2 2.4.7 4.4-1.3 5.5-1 .5-1 .7-1.1 1.8l-.1 1.1 1.1.3a68.9 68.9 0 0 0 11.6 1.6c0 .2.4.5.8.7 1 .7 0 .8-2.7.2a44 44 0 0 0-8.7-1.2h-2v2.4c-.1 2.3 0 2.8.4 1.1.2-.8.3-.8 1.6-1 1 0 2 .2 3.6.8 1.3.4 2.6.8 3 .8l2.4.3c2.9.5 2.7-.3 2.6 11.8-.2 13.6-.4 16.5-1.2 16.5l-.1-4zm-8.2-87.1c0-.8 0-.9-.3-.5-.3.2-.3.7-.2 1.5.1 1 .2 1 .3.5l.2-1.5zM12 94.8l.1-2 .5-9.8a63 63 0 0 1 1.1-14.1 154.2 154.2 0 0 0-.5 13.4 92 92 0 0 1-1 12.6l-.2-.1zm159.9-.1c0-.2.2-.4.4-.4s.4.1.3.3c-.2.5-.7.6-.7 0zm15.7 0c-.3-.7.3-7.3.7-8.2.2-.4.2.7.1 3.8 0 4-.4 5.6-.8 4.4zM124 91.3c0-1-.3-2.4-.5-3.4a12 12 0 0 1-.1-2.9l.1-1.2.2 1.3.6 3.2c.4 2 .5 4.6.1 4.6 0 0-.3-.7-.4-1.6zm-1.8 1c-.3-.8-.5-4.7-.3-4.7.3 0 1 3 1 4.2 0 1-.4 1.2-.7.5zm90.5-3.5c.1-3.3.5-5.1 1.2-5.4.3 0 .7-.1.8 0 .3.1.5 2.7.3 5-.2 2.2-.2 2.2-.8 2-.4 0-.7.1-.8.3 0 .2-.3.4-.4.4-.3 0-.3-.7-.3-2.3zm1-3v1.1-1.2zm-73 3.3c-.1-.6 0-3.3.1-6l.3-6.6c-.1-1.8 0-2.1.5-1.3.3.5.3 1.5.1 3.8l-.2 7.3c0 2.9-.1 4-.3 4-.2 0-.4-.5-.5-1.2zm75.7-1.8c-.3-2.4-.2-3.2.4-3.3.5 0 .5.1.4 2.5 0 3.2-.6 3.7-.8.8zm-97.1 1c-.2-.4 0-18.2.2-18.7.1-.3.3-.5.5-.5s.3 2 .3 7.2c0 9.3-.4 13-1 12zm69.6-.5v-1a59.2 59.2 0 0 1 .3-8.9c.6-1 .6-5.5-.1-8.2-.4-1.5-.4-2-.2-2.2.3-.3.5-.2.8.2.4.5.5.6 1 .3.3-.3.3-.4 0-.7-.3-.3-.2-.4 3.2-.3 3 0 6.8-.3 6.5-.5 0-.2-2-.3-4.2-.4-4.6-.1-4 0-4-.4 0-.3 1.1-.3 4.3-.1l4.4-.1c0-.2 1.2-.3 3.5-.3 2 0 4.1 0 5-.2 3-.2 6-.3 6.1-.1.4.5-.5.7-3.5.7-3.7 0-10 .6-10 .9 0 .2 1.8 0 5-.3 2.4-.3 7-.2 7 .2l-2.9.3c-1.6 0-3.4.1-3.9.3-1 .3-5.5.8-7.2.8-1.6 0-1.7.3-.4 1 1.3.6 3.9 1.2 4 .9.1-.2-.3-.3-.9-.4-1-.2-1.5-.6-1.1-1 .1-.1 1 0 2 .4 1.8.5 2.3 1 1.2 1-.3 0-.4 0-.4.2.1.2.4.3.7.3.2 0 .7.2 1 .5.5.6 1.1.7 1.1.1l.2-.4a191.6 191.6 0 0 1 12.6-1c.3.8-.7 1-5.4 1.3l-5.4.5c-.7.1-.6.2.8.3 1.4.2 8.8-.5 11-1 1.6-.3-.9-2.5-3.4-2.8-1.3-.2-1.6-1-.4-1 2 0 5 1.8 5.3 3 .2 1.1-.2 1.4-2.6 1.7-7.1 1.2-13.7 1.2-14.6 0-.2-.2-1.6-.6-3.2-1-3.3-.6-4.3-.9-6-1.6a3.4 3.4 0 0 0-3.3.2 4 4 0 0 1-1.5.4l-.9.1.1 1.6c0 .9.1 1.6.2 1.7l1.6.4c1.2.3 2.8.3 6.3.2a31.5 31.5 0 0 1 8.6.6c0 .6-.6.7-3.5.4a60 60 0 0 0-6.9 0c-3 0-4.2 0-4.5-.2-.2-.2-.7-.3-1-.3-.5.1-.6.3-.8 1.7 0 .9-.3 2-.6 2.6-.5 1.3-.9 5.6-.4 5.8.1.2.3-.1.5-.6l.2-1 2.8.2c4.2.2 7.4.2 14.5 0 5.1-.2 6.4-.2 6.3 0-.2.6-4.4 1-12.3 1.2-7.2.2-9.2.4-10.5 1.3-1.2.8-1.5 1.3-1.5 2.2 0 .8-.5 1.3-.6.5zM.2 83.5c0-.7 0-1 .1-.5v1.3-.8zm217.2-1.4c0-.3 0-1.4.2-2.3l.4-3.3c.3-2.2.7-1.9.7.5 0 2.6-.6 5.4-1 5.6-.2 0-.3-.2-.3-.5zm-25.9-.2c-.9-.4 0-.6 3.3-.7 2 0 4.4-.3 5.4-.4 1.7-.3 2.3-.2 2 .3-.5.4-10 1.2-10.7.8zm-12-1.8c-1.3-.3-1.7-.5-1.5-.8.2-.2 5 .8 5 1 0 .3-2.1.2-3.5-.2zm13.5.2-.2-.4c.2-.2 7.4-.3 7.6 0v.3c-.4.3-7 .4-7.4 0zm-13-2 .8-.2c.3 0 .6.1.5.3-.1.1-.4.3-.7.3-.3 0-.5-.2-.5-.3zm12.3-.1-.7-.5.6-.4c.5-.2.8-.2 1.3 0 .5.3 1.7.3 6.4 0 7-.3 13-.3 13 0 0 .4-.7.5-8.9.8l-9.4.5c-1.4 0-1.8 0-2.3-.4zM6 76.4a1242.6 1242.6 0 0 1 .2-13 159.6 159.6 0 0 1-.2 13Zm175 .4c0-.2.1-.3.2-.3h1.5c.7 0 1.3.2 1.3.3 0 .1-.7.3-1.6.3-1 0-1.5-.1-1.5-.3zM4.4 74.3c0-1.2 0-2.5.2-3 .1-.6.2-.6.2.5l-.2 2.9-.2 1.7v-2.1zm178.2-1.1c-2.3-.1-3.1-.4-2.4-1 .4-.1.4-.2 0-.4-.3-.2-.5-.5-.5-.7 0-.2.2-.4.5-.4.9 0 5 1.6 5 2 .1.5 0 .5-2.6.5zm10.6-.7c0-.5 1.3-1.6 2.2-2 1-.4 1.6 0 .7.5l-1.6 1c-1 1-1.3 1-1.3.5zm7-.5c0-.1-.1-.3 0-.4.1-.1 2.5.3 2.5.5 0 .3-2.3.3-2.5 0zm10.9-4c-.3-.3 0-.6.5-.4.2.1.3.3.3.5-.3.3-.6.3-.8 0zM172 66c-.2-.9-.4-3.8-.2-3.8.4 0 1 3.5.6 3.8-.2.2-.3.2-.4 0zm44.5 0c-.4-.4 0-.6 1-.5 1.7 0 2 .7.3.7-.6 0-1.2 0-1.3-.2zm-26.5-.6.1-.2c.2 0 .3 0 .3.2l-.1.3-.3-.3zm-44.5-3.3c-.1-3 0-15.8.3-16.2l-.1-2.6c-.5-4.6-.8-13.4-.6-13.7.1 0 .2-4.8.1-10.4-.1-9.4 0-10.2.3-10.5.4-.2.5-.6.4-3 0-4-.5-3.9-.9.4-.3 3-.7 2.3-.6-1.1 0-1.7.2-3.2.3-3.2.1-.1.6-.3 1-.3l1-.1.1 4.1v4.6c-.2.3-.3 1.2-.3 2 0 1.2 0 1.6-.2 1.5a254 254 0 0 0-.1 25.3c-.2.2-.2 1.7 0 4.4.4 4.4.4 4.1 0 7.3a93 93 0 0 0-.1 8.5c.1 6.7-.2 8.7-.6 3zm-3-2.8a466.8 466.8 0 0 1 .1-10.8c.4-9.2.4-18.9 0-22.1a113.7 113.7 0 0 1 .2-24.6c.3-.2.3-.5.4 5.4 0 3.5 0 5.3-.3 5.5a39.4 39.4 0 0 0 .1 11.8c.2-.2.3-1.1.3-2 0-2 .3-3.4.6-3.2v2.3l-.2 9.4a442.3 442.3 0 0 0-.5 23.4c0 7.7-.2 10.6-.4 10.7-.2 0-.3-1.5-.3-5.8zm41.3 5.3c0-.3.3-.3.8 0 .3.2.3.3-.2.3-.4 0-.6-.1-.6-.3zm10.7-1c-.3-.2-.9-.3-1.3-.3-.8 0-.8 0-.3-.4s.4-.4-1.2-.2c-2.3.3-3.7.1-4.5-.4-.4-.2-1.3-.4-2.2-.5-2 0-2.8-.3-2.8-.6 0-.2.4-.3 1.4-.2l1.4.2-1.2-.8c-2.3-1.7-3.2-4.3-3.2-9.7V49l-1.5-1.7c-1.4-1.6-1.5-1.7-1-2.2 1-1 2.8-.4 3.7 1.4l.7 1.6c0 .1.4.8 1 1.4.8 1 .8 1.3.6 1.8-.3.6-.2.7 1 .8.7.1 1.2 0 1.3-.1.1-.2.6-.2 1-.2h1c0-.2-.5-.3-1.3-.4-2.5-.3-1.7-.7 1.4-.6 2.8 0 3.8.4 2.4.7-.8.2-.3.5 1.2.6 1.4.1 1.3.6-.3.8-1 .2-1.4.4-1.4.6 0 .2-.2.4-.3.4-.8 0-6-1.2-6.2-1.4-.2-.1-.5 0-.8.4-.5.8-.5 1 .3.9.3-.1 2 0 3.7.2l4.3.4c1 0 1.1 0 1 .5 0 .4-.4.4-3.5.4-2 0-3.5.1-3.5.2 0 1 6.1 1.1 9 .3 1.1-.3 2-.5 2.1-.4.5.3.2.5-.8.7-.5 0-1.3.4-1.7.7-.7.6-1 .6-4.2.6-3.5 0-3.5 0-4.5-.7l-1-1-.4-.8c-.4-.5-.5-.5-1.2 0-.6.5-.7.8-.7 1.6 0 .6.3 1.2.7 1.6.3.4.6.7.6.9 0 0 .2.2.5.2s.9.2 1.3.5l1.7.8c.8.3 1 .3 1.3 0 .2-.4 1.2-.5 3.8-.6h3.5c0 .5-.8.6-3.4.6-2.2 0-2.5 0-2 .4.7.6 2.5.7 4.2.4 1.1-.2 1.7-.6 2.4-1.2.8-.8 1-.9 1.1-.5 0 .2 0 .6-.3 1-.6.6-.1.6 1.1-.1 1.4-.7 2.2-1.5 2.2-2 0-.2.2-.5.4-.6.3-.1.4-.4.3-.7 0-.5-.1-.5-.3 0-.3 1-.7.4-.5-.9.1-1 0-1.4-.7-2.5s-.9-2-.2-1.6c.5.3.2-.2-.8-1l-1-1 .6-.4c.4-.3.6-.6.5-.7-.1-.2-.3-.2-.5 0-.5.5-1 .3-1.1-.6-.2-.6 0-.9.4-1.2 1.1-.9 1-5.1 0-6.2-.4-.3-.9-1-1.1-1.3-.6-1-2-1.7-2.4-1.3-.3.2-.8.2-1.6 0a6 6 0 0 0-4 .8c-.4.2-1 1.2-1.3 2.2-.7 1.6-.7 2-.5 2.5.2.4.3.7.2.8-.2.3-1-.2-1.1-.6-.3-.7.4-3.5 1-4.6a5.3 5.3 0 0 1 3.9-2.2c.7 0 1.6-.2 2-.3 1-.2 3.4.8 4.4 1.9 1.1 1.1 1.8 3.3 1.9 5.6 0 1 .1 1.8.2 1.7.2 0 .3-.3.3-.5s0-.4.2-.4c.3 0 .1 1.3-.3 2.4-.2.5 0 1 .5 2.2.7 1.6 1.5 2.1 3.5 2 1.6 0 1.8 0 1.2.3-.2.2-1 .3-1.9.3-.8 0-1.4.1-1.4.2l.4 1.3c.9 2.6.1 6-1.7 7.4-1.8 1.6-4.6 2.6-5.7 2.2zm3.4-1.6c1-.6 1.6-1 1.4-1.3a9.3 9.3 0 0 0-2.7 1.6c-.2.4.2.3 1.3-.3zM182.7 52l.4-.7c.6-.4.5-1 0-1.1l-1-.4c-.4-.1-.5 0-.3.9 0 .5.2 1.1.3 1.3.1.5.6.5.6 0zm-1.4-4.6c-.4-1-.6-1.5-1.3-1.8-1.2-.6-1.2-.3 0 1.1.6.7 1.1 1.5 1.2 1.8.4 1 .4.2 0-1.1zm23.2 16c-.5-.3-1.6-.5-2.3-.5-1.3 0-1.6-.3-.6-.6 1-.2 2.7-.2 3 .1.2.2.7.4 1.2.5 1 .2 1.3.8.4.8l-1.7-.4zM13 58.1c0-1.7 0-2-.4-2h-.9c-.6 0-.3-.5.5-.7.9-.3.9-.3 1-2.4l.3-11c0-13.3.2-17.1.8-16.7a458 458 0 0 0-.4 25.3l.1 4.6 1.1.1c.6 0 1.2 0 1.4-.2.3-.2.4-2.7.5-12A186.3 186.3 0 0 1 18 26c.1.2.2.2.3-.2.4-1 .8-10.2.7-14.7 0-3 0-4.8.2-4.9.4 0 .2 22-.3 22.7-.2.3-.2 25.7 0 27 .2 1 .2 1.1-.3 1-.3 0-.5-.3-.6-1 0-.6-.1-1-.2-1v2c0 1.5 0 2.1-.3 2.4-.3.4-.4.4-.7 0-.2-.4-.4-1-.4-1.4 0-.7-.1-1-.7-1l-1.2-.4c-.4 0-.5.1-.5 1.8s0 1.8-.5 1.8c-.6 0-.6 0-.5-1.9zm4.9-11.8-.1.4v.4c.2-.1.2-.5.1-.8zm.3-14.6c0-2.2 0-3.2-.2-2.7-.3 1.2-.4 6.8-.3 11l.1 3.5.2-4.1.2-7.7zm.3-4.3c0-.4-.1-.7-.2-.7-.3 0-.4.9-.1 1.1.3.3.3.2.3-.4zM9.3 59c-.2-.6.2-3 .6-3 .2-.1.3.3.3 1.6 0 1.4 0 1.7-.4 1.7-.2 0-.5-.1-.5-.3zm177.9-.2c-.7-.2-1.3-.5-1.3-.7 0-.3.4-.4 2-.2 7 .5 9 1.3 3.5 1.3-2.1 0-3.3 0-4.2-.4zM.3 52.8c.2-6.6.4-9.4.9-9.5.4-.2.5-1.2-.8 12.6-.1 1.9-.2 1.1 0-3Zm119.3 5.3c-.4-.2-.5-3-.4-12.5 0-2.9 0-5.3-.2-5.7-.2-.5-.2-.9 0-1.4a136 136 0 0 0 0-23.7c.2-.2.3-1.5.3-3 0-1.6 0-2.4.1-2.2.2.2.4 2.6.4 5.3a48.8 48.8 0 0 0 .5 4.6l.2-5.3c.2-2.7.2-5.4 0-6.2-.2-1-.1-1.5.1-1.7.2-.2.3-.7.3-1.6-.1-1 0-1.2.2-1.1.5.1.6 1 .9 3.7.1 2 0 2.3-.3 2.3s-.4.2-.3.9l-.3 10c-.2 5.2-.3 12.7-.3 16.9a57 57 0 0 1-.7 17.9c0 2.8 0 3-.5 2.8zm.7-9c0-.6 0-.7-.3-.3-.3.5-.3 1 0 1 .2 0 .3-.3.3-.7zm-.2-5v-.5c-.2 0-.3 0-.3.2 0 .5.1.6.3.2zM112 57.6c-.2-.4 0-.6.6-.4.2.1.3.3.2.4-.2.4-.5.4-.8 0zm-106-1A7 7 0 0 1 6 54 796.6 796.6 0 0 0 7 18.3c0-5 .3-8.9.8-9.4a537.1 537.1 0 0 0-.3 15L7 41.7c-.2 5.7-.3 12.3-.2 14.5.1 1-.4 1.4-.8.6zm31.2-.5c-.5-.5-.5-.6.2-.8a7 7 0 0 1 2-.3c.6 0 2-.1 2.9-.3 1.2-.2 1.8-.2 2 0 .4.5 0 .6-2.6 1.1l-3.2.7c-.6.1-1 0-1.3-.4zm166.8.1c.2-.2.4-.4.6-.4.6 0 2.6-1.1 3.6-2 .6-.7 1.1-1 1.2-.9.4.7-3 3.1-5 3.6-.7.2-.8.1-.4-.3zm-112.2-.5a79.2 79.2 0 0 0 0-14.6 601.7 601.7 0 0 1-.6-23.4c.5 0 .6 1.8.7 7 .3 10.4.5 16.5.7 19a100.3 100.3 0 0 1-.1 12.4c-.4.2-.5.2-.7-.4zm36.1.3a461 461 0 0 0-.1-20 249 249 0 0 1 .4-19.5c0-3.2.2-6.2.3-6.7 0-.5 0-1-.3-1.1-.3-.3-.3-.5 0-.8.2-.3.4-1.3.4-3.1 0-1.6.2-2.7.4-2.6.3 0 .2 14-.2 21.2l-.2 13.6c.2 16.4.1 19.1-.2 19.3-.2 0-.4 0-.5-.3zM99 53.5l.4-6.6a154.2 154.2 0 0 0 .2-17 242.2 242.2 0 0 1 .6-18.3c-.2-1.6 0-3 .5-3 .2 0 .4.4.3 1l-.2 3.3a1435.4 1435.4 0 0 0-.5 24c0 10.1-.2 18.6-.2 18.7-.1.2-.4.3-.7.3-.5 0-.5-.2-.4-2.4zm8.6 2c-.2-.1-.1-8.7.1-11.8.1-1.8 0-2.3-.2-2.6-.4-.3-.4-.4 0-1 .3-.4.3-1.8.3-7.5 0-3.8 0-9.9.2-13.4.1-5 .1-6.5-.2-6.8-.2-.3-.2-.5 0-.8.2-.2.2-.7 0-1.6V8.5c.2-.5.5.5.6 2.2l.2 2.2c.2.5.2 0 .2-1.8 0-2 0-2.6.3-2.6s.4.3.2 1c-.3 2-.7 17.2-.8 31.1 0 12-.1 14.4-.4 14.7l-.5.2zm40.3-6.6a653.2 653.2 0 0 1 .6-33.4c.1-2 .3-2.3.9-2.5.2-.1.3-.6.3-2.2 0-2.8-.6-8.9-.8-8.7v4.4c0 3 0 4.4-.3 4.5-.2.2-.3-.1-.3-.8 0-1.9-.4.1-.5 2.8a96.3 96.3 0 0 1-.5 6.7 12 12 0 0 1 0-2.9c.3-4.5.3-13.5 0-14.1-.3-.5-.3-.7.4-1.2.4-.4.9-.6 1-.5.3 0 .5 0 .6-.4.1-.5.6-.7.6-.3 0 .2.3.4.6.6.5.1.7.4.7.8l.1 2.7.2 6.9c0 3.3 0 4.6.3 4.6.2 0 .3-1.8.2-7l-.2-7.2.7-.8.7-.9.5.7c.4.6.4.9.2 1.7-.4 1.3-.4 3 0 2.4l.2-1.4c0-.7.2-1 .4-.9.4.2.3 2.8-.2 10-.4 4.3-.5 9-.5 22.4l-.1 18c-.1.7-.4 1.3-.6 1.4-.3 0-.3-.5-.2-3.1l-.1-3.2c-.2 0-.2.3-.2.7 0 .5-.2.9-.3 1-.2 0-.3.4-.3.8 0 .6-.4 1-.6.7 0-.1 0-1.5.3-3.1.2-1.8.3-6.2.3-11.3a136.8 136.8 0 0 1 .4-15.8c-.2.2-.8 7.5-1 12.4-.2 3.3-.5 5-1 5V34c0-3.2 0-4.6-.2-4.9-.2-.2-.3-.7-.2-1 .2-.8.3-6.2.2-9.2 0-2.5-.6-1.5-.6 1.1 0 1.4 0 2.4-.2 2.4s-.3-.2-.3-.5c0-.2-.1 0-.3.4-.2.8-.4 18.7-.2 27.6 0 3.8 0 5.7-.2 5.8a30 30 0 0 1-.5-6.7zm3.6-26.4c0-1-.2-.9-.4.5-.1.7 0 .9.1.6.2-.2.3-.7.3-1.1zm.2-5.3c-.1-.2-.2 0-.2.3 0 .4.1.5.2.4v-.7zm1.7-3a35 35 0 0 0-.1-6.5 8 8 0 0 0-.2 2.5c0 1.4 0 3-.2 3.7-.1.9 0 1.3.2 1.3.1 0 .3-.5.3-1zm-2.8-.1-.1-.3c-.2 0-.3.1-.3.3v.3c.2 0 .3-.2.4-.3zm.2-1.6v-.3c-.2 0-.4.2-.4.3 0 .2 0 .3.2.3l.2-.3zm0-6c0-.9-.2-1.1-.4-.9-.2.4-.1 1.8.3 4.8l.1 1.4.1-2V6.3zm-2.5-1c-.1-.4-.2 0-.2.8 0 .9 0 1.3.1.9a7 7 0 0 0 0-1.6zm5.5.3c0-.2-.1-.1-.2.2 0 .3 0 .4.2.4v-.6zM9.6 54.4A468.8 468.8 0 0 1 9.8 24c.6-3.9.7-4.4.8-4.3A181.1 181.1 0 0 0 10 46c.2 7.3 0 9.3-.4 8.4zm16.6-2.5c.5-2.7.7-5.3 1-15.8 0-6.4.3-11.8.3-12a50.4 50.4 0 0 0 .4-13.7c-.1-.6-.2-1.2 0-1.4.4-.4.8.3 1 2.1 0 1 .3 2 .4 2V16c-.1 2.6 0 4.2.8 11.3.3 3.5.9 11.3.9 13.7 0 1.7 0 2-.4 2-.3 0-.4-.6-.4-3.9 0-4-.7-12.3-1.3-16.5l-.3-2.3-.4 1.7c-.2 1.3-.4 5.2-.6 13.5-.3 18-.2 17-1 17.2-.5 0-.6 0-.4-.8zm17.9-.9c-.4-.4-.6-.8-.4-1 .4-.3 1.4.5 1.4 1.2 0 .6-.3.6-1-.2zm141.5-1.4c-.4-.4-.5-.6-.4-1 .3-.9 1.2-.8 1.2 0 0 .6.2.7.7.7.4 0 .7.1.6.3-.2.5-1.4.5-2 0zm23 .3c0-.2.3-.5.7-.9 1-.9 1.9-2.7 2.4-4.9.5-2.3.8-2.8 1-2 .1.5 0 1.7-.1 2l-.6 1.7c-.2.7-.7 1.7-1 2a3 3 0 0 0-.8 1c0 .3-1 1.3-1.4 1.3l-.1-.2zm-48.8-3.7c.3-5.1.4-15.4.2-14.1a48 48 0 0 0-.4 3.8c-.2 1.7-.3 2.5-.5 2.3a17 17 0 0 1 .2-4.8c.9-10.1 1.3-24 1-29.8-.2-1.5-.1-1.8.2-1.8.3 0 .4.7.5 4.3 0 2.6.1 4.3.3 4.3.1 0 .3-.5.3-1.1l.1-1c.3.3.2 7.4-.1 11.7-.5 6.2-.5 6.2-.7 14.7a173.5 173.5 0 0 1-1 14.6c-.2 0-.2-1-.1-3.1zm1.1-28v.9-1zm.4-1.9c0-.4-.1-.6-.3-.5l-.2.7c0 .3 0 .5.2.5s.3-.3.3-.7zm0-5c-.2-.2-.2 0-.2.5 0 .6 0 .9.1.6v-1zm-12 37.5c0-.2.2-.3.3-.3.2 0 .3.1.3.3 0 .1-.1.2-.3.2a.3.3 0 0 1-.2-.2zm41.3 0c-2.3-.3-3.4-.8-3.4-1.4 0-.3-.3-.5-.7-.6-.9-.2-1.3-.9-.7-1.1.2-.1.7.1 1.2.5.8.5 1 .6 4.6.5 2.1 0 3.8 0 3.8.2 0 .3-.7.5-2.1.5-2.2 0-2.4.4-.3.6 1.7 0 2 .2 2.1.6 0 .4-.1.4-1.3.4-.8 0-2.2-.1-3.2-.3zM91 48c0-.2 0-.3.2-.3.1 0 .2.1.2.3v.2c-.1 0-.3 0-.4-.2zm114.6-.6.7-1c.2 0 .7-1 1.2-2s.9-1.6.9-1.3c0 .6-1.6 4-2.3 4.6-.7.8-.9.6-.5-.3zm-117.3.3c0-.1 0-.3.2-.3s.3.2.4.3c.1.1 0 .3-.2.3s-.4-.2-.4-.3zm45.1-1 .1-.5c.4-.2.7.1.4.5-.2.2-.4.2-.5 0zm56.9-1.1c-.3-.4.1-.5 1-.4.4.1.6.3.5.4-.2.3-1.3.3-1.5 0zM32 45.2V44c.6-2.5.7-3.8.8-10 .3-15.4.6-21.7 1.2-22.2.3-.3.3-.1.2.7-.5 2.7-.7 8.2-.7 17 0 9.8-.2 14.7-.6 15.5-.3.6-.7.6-.9 0zm100.6-.6a9 9 0 0 1 .8-3.3c.1-.2.3-2.4.4-5 .1-2.5.4-5.9.6-7.4l.6-6c0-2.5.2-3.5.5-3.8.4-.4.4-1.5.3-8l-.3-8.4c0-.4.1-.6.4-.6.5 0 .5.1.4 10.1v11c.1 2.6 0 3.9-.1 3.9-.2 0-.3-.7-.3-1.5 0-2-.4-1.5-.6.7a434.5 434.5 0 0 1-1 11.3c.3 1-.2 5.6-.6 6.5-.2.7-.8 1-1 .5zm3.2-22.9-.1.3c0 .4 0 .5.1.4v-.7zm55.8 22.6c-.5-.1-.4-.5.2-1h1c1 .7.2 1.4-1.2 1zm14.5-.4c2-4.4 2.2-5.3 1.8-6.9-.6-2-.6-2.3-.4-2.3.5 0 1.2 2.7 1 3.9-.2 1.6-1.1 4-1.9 4.8l-.5.5zm-44.9-.5.1-3.2a1641 1641 0 0 1 1.8-24.3s.3-.3.6-.3c.7-.3.7-1.7 0-1.7-.5 0-.5-.9-.2-8.1 0-2.2.2-4.1.2-4.2 0-.3 1-.3 1.5 0 .2.1.5 1 .6 2 .2 1.3.2 1.8-.1 2.6a64.3 64.3 0 0 0-.5 17.6c0 1 0 1.1-.3 1.1-.5 0-.6-.6-.9-4.3-.1-2.6-.2-2.6-.4-1.3-.3 2-.7 7.7-1.4 17.8-.3 5-.5 6.6-.7 6.6l-.3-.3zm3.5-35.7c.3-4.3.3-5.3-.1-5-.3.3-1 9-.8 9.8.3 1.3.6 0 1-4.8zM202 42.6c.4-1 .8-1.8 1-1.8.3 0 .2.4-.2 1.3-.4.8-1.2 1.2-.8.5zm-17.7-1.8v-.4l.5.1-.1.4c-.1.1-.3 0-.4 0zm19.2-.8.5-1.7c.3-.7.8-2.4 1-3.8.6-2.3.6-2.5.2-3.6-.4-1.3-.4-1.8.1-1.3.4.4.8 3.5.6 4.7-.4 2.4-2.4 7.2-2.4 5.7zm5.9-.3c.6-2 .7-3 .6-5.2-.1-2.7-.5-3.9-1.9-5.5-.8-1-.8-1.1-.3-1.1.3 0 1.4 1.2 2.3 2.7.4.5.6 1.5.7 3.4.1 2.4 0 2.9-.4 4l-.6 1.6c0 .2-.1.5-.3.6-.2.1-.2 0-.1-.5zm-139.8-1c.2-.5 1-.5 1.1-.1 0 .1-.2.3-.6.3-.4 0-.5 0-.5-.2zm4.1-.5.1-.4c.4-.3.7 0 .4.4-.2.2-.4.2-.5 0zm16.6-.3c0-.2.2-.3.3-.3.2 0 .3.1.4.3 0 .1-.1.3-.4.3-.2 0-.4-.2-.3-.3zM68.8 37c-.2-.4.7-1 1.5-1 1 0 1 .3.1.9-.7.4-1.3.5-1.6.1zm4.5-1.3v-.6c.5-.4 1.3-.1 1.4.4 0 .3 0 .5-.6.5-.3 0-.7-.2-.8-.3zm-.1-1.3c0-.4 1.5-1 2.1-.9.7.2.7.9 0 .9l-1.3.1c-.5.1-.8 0-.8-.1zm126.4-2.8c-.1-.1.1-.6.4-1 1-1.4 1.3-3.8 1.1-6.8l.1-2.7c.8 0 .9 5.7 0 8-.5 1.7-1.3 2.8-1.6 2.5zm-43-3.2a19815.3 19815.3 0 0 0 .5-20.2c.3 0 0 22-.3 22.3-.2.1-.2-.8-.2-2.1zm40.3 2.1s0-.6.4-1.1c1-2 1.3-5 .7-6.6a3 3 0 0 1-.1-1.3c0-.4.2-.2.5.5.8 1.7.5 5.6-.6 8-.3.7-.6.8-.9.5zm-63.4-1.5c0-.3.1-.5.3-.5l.2.3c0 .1 0 .3-.2.4-.2.1-.3 0-.3-.2zm82.2-.7a1 1 0 0 1-.4-.8c0-.6-.4-1.5-1-2l-1.5-2a22 22 0 0 0-6.5-5.8c-.7-.4-1.5-.8-1.8-.8a4 4 0 0 1-1.5-.7c-.8-.5-1.3-.7-2.5-.7-.8 0-2-.1-2.6-.3-.6-.2-1.9-.3-3-.3-1.2 0-2.1 0-2.6-.3-.9-.5-3.3.1-6.1 1.5-.3.1-.5.5-.5.9 0 .5 0 .7.4.7.9 0 1 .5.9 2.1-.1 1-.3 1.5-.6 1.5s-.3-.3-.3-1.3 0-1.2-.5-1.3c-.6 0-.6-.1-.6-3 0-2.4 0-2.8-.2-2.2-.2.3-.4 2-.5 3.6 0 1.7-.2 3-.4 3-.1 0-.2-.7-.2-1.6 0-.9 0-1.6-.2-1.6l-.5 1.7c-.3 1.8-.2 2.9.3 2.4.3-.4 1.8-.1 1.8.3s-1.2 1.2-2 1.2c-1.5 0-1.8-2.3-1-7.3.2-1.3.4-3.9.4-5.6.1-2.6.2-3.4.6-3.8.3-.3.4-1 .4-2.3 0-1.6.3-2.5.7-2.2.1.2-.2 2.7-.8 7l-.4 5.2c.1 2.2.1 2.2.6 1.5.2-.3.6-1.4.8-2.5.2-1 .5-1.8.7-1.9.1 0 .3-.8.3-1.6s.2-2.2.4-3l.3-2.8c-.2-1.4.3-1.4.7 0 .2.9.1 2-.3 4.8a58 58 0 0 0-.5 4.2c-.2 3-.2 3 2.4 1.8 1.5-.8 2-.8 4.4-.8 2.2 0 3.1 0 4.3.5 1.2.4 2 .5 2.6.4.9-.1 1.4 0 3.5 1l2.8 1.3a68.4 68.4 0 0 0 4.3 2.8c0 .1.4.7 1 1.2.6.6 1 1.2 1 1.4 0 .2.6.8 1.3 1.5 1.5 1.4 3.6 5.3 2.8 5.2-.1 0-.4 0-.7-.2zM185.4 12c0-.2-.2-.3-.3-.3-.1.1-.2.3-.1.5.2.3.4.3.4-.2zm-52.5 15.3-.2-4.5c0-5.9-.1-7.1-.5-7.6-.3-.4-.3-.5 0-.7.2-.1.3-1.5.3-6.2 0-3.3.1-6 .2-6 .3 0 .3.4.4 10.1l.2 11.2c.1 3.2 0 4.4-.4 3.7zm63.2-2c.3-1.8.2-4.7-.3-6.2-.2-.7-.3-1.3-.2-1.5.4-.7 1.1 1.7 1.4 4.7.1 2 0 2.6-.3 3.4l-.7 1 .1-1.4zM147.4 23v-1.3 2.7V23zm44 .2-.2-1.8c0-.8-.2-1.9-.4-2.4-.5-1.1-.5-1.5-.2-1.5.8 0 1.9 5.3 1.2 5.7h-.4zm-23.6-1.8c-.8-.8-.8-1-.4-7.8.6-9.3.5-9.2.8-8.5.2.4.2 2.2 0 4.8-.3 9-.3 9 .4 9.7l1 .5 1-.2c.9 0 1.1-.7.6-1.6-.5-.7-.5-.8 0-1.2.6-.7 1.3-.2 1.5 1 .2 1.2.3-3.7.2-14.2 0-.5 0-.6-.5-.5-.4.1-.5 0-.7-.5 0-.4-.4-.8-.7-1l-.4-.5c0-.5 1-.3 2 .5l1 .8.1 8.4c0 7.5 0 8.3-.4 8.3l-1.2.6c-.4.4-1 .7-1.3.7-.3 0-.5.3-.6.7-.2.9-1.4.9-2.4 0zM47 18.9c0-2 .6-7 .8-7 .2 0 0 7.6-.2 8.2 0 .2-.2.3-.3.3-.2 0-.3-.6-.3-1.5zM38 14.4c.2-5.5.3-6.6.7-6.8.2-.1.3.4.2 1.6l-.4 5.7c0 2.1-.2 4-.4 4-.2.3-.2-1.3 0-4.5zM168.8 16c.1-1.4.3-5 .3-8 .1-3.9.2-5.2.5-5.2s.4 2.3 0 10c-.1 4.6-.1 5.1.3 5.3.6.2.2.7-.6.7h-.7zM63.6 12.6h.5c.1.1 0 .2-.3.2s-.4-.1-.2-.2zM34 9.8c0-.9.1-1.4.4-1.5.3 0 .3 0 .2.8l-.2 1.5-.2.6c-.2 0-.3-.6-.2-1.4z"/>
</svg>
