<?xml version="1.0" encoding="utf-8"?>
<svg xmlns="http://www.w3.org/2000/svg" xmlns:svg="http://www.w3.org/2000/svg" version="1.1" viewBox="0 0 224 137">
  <title>A horse stands hitched to a covered cart with large wheels and “T. Baker” written on the side. Around it stand the Puddle-ducks, Mrs. Tabitha Twitchit and the three kittens, and Duchess the dog.</title>
  <path d="M119 136.5c-1.3 0-2.3-.3-2.7-.6l-1.3-.4c-.5 0-2-1-2.4-1.5-.1-.2-.5-.2-1-.2-.6.2-1.3-.5-1.3-1.3 0-.3.2-.5.7-.5.5 0 1-.2 1.4-.5.4-.4.8-.5 1.5-.5 1.1.1 1.3.6.3.7-1.1.2-1.2.6 0 .9.6.1 1.1.4 1.2.5 0 .1.3.3.5.3.1 0 .2-.5 0-1.5 0-.8 0-1.5.2-1.6.4-.3.2-1.3-.6-3-.6-1.3-1.1-2-1.8-2.3-.4-.2-.8-.5-.8-.7l-1-1.2-1-1.1-.4 1c-.3.9-.3 1 .4 1.5.4.3.7.8.7 1 0 .7-1 1.5-2 1.5l-2 .3c-1 .3-1.5.2-3-.3-2.2-.6-3-.7-4.2-.1-1.4.6-2.5.5-2.7-.2-.1-.2-.4-.5-.7-.5-.2 0-.5 0-.6-.2l-1.2-.5c-1-.2-1.5-1.1-.7-1.1.2 0 .5-.3.6-.6 0-.4.3-.5 1-.5.4 0 1 .1 1 .3l1.2.2c.8 0 1-.2 1.3-1.2.2-.5.4-2 .5-3.1.1-1.8.3-2.4 1.2-4 1.3-2.4 2.6-3.6 5.5-5 5.3-2.4 5.6-2.6 6.2-4 .2-.7.6-2.4.7-4 .3-2.3.4-2.7 1-3.2s.7-.8.7-2.3c0-1-.2-1.9-.3-2a6 6 0 0 0-2.4-.2c-1.6 0-2.1 0-2.4-.3-.2-.3-.3-.3-.4.2-.2.4-.6.6-1.6.8-1.6.3-1.9.2-.9-.5.4-.3.7-.7.7-1 0-.3.3-.3 1.7-.2.9 0 2 .2 2.4.3 1 .3 2.5-.1 2.5-.6 0-.3-.8-2-1.7-4l-2.3-4.4c-.6-1.1-4-4.4-4.5-4.4-1 0-.6 5 .5 7.7.4 1.2.4 1.3-.1 3-.4 1.4-.6 3.2-.8 6.6l-.3 4.8-.7.6c-.7.5-.7.6-.4 1.6.6 1.7.3 2.3-1.5 3-.8.4-2.1.8-2.8 1-1.3.2-13.3.2-13.6 0-.4-.5.4-.8 1.6-.8 1.5 0 3.2-.5 2.7-.7l-3.6.5c-4.5.8-4.8.8-5.3.5-.7-.5.1-.7 3.7-1.2l5.7-.7c1.4-.2 2.1-.2 2.4 0 .1.2 1 .3 1.9.2H97l.5-1.2c.2-.6.6-1.3 1-1.4.7-.3 1-.7 1.7-3.4 1-3.3.9-3.7-.1-3.7l-1-.2c-.2-.4-.6-.4-.6 0 0 .6-.7.8-2.6.9-.9 0-1.7.1-2 .3a29.3 29.3 0 0 1-6.3.3c-.8 0-1.8 0-2.3.2-.5.2-1.9.4-3.1.4-1.5 0-2.5.1-3 .4-.8.3-.8.5-.8 1.9 0 .8-.1 2.3-.3 3.2a16 16 0 0 0 0 4.8c.4 3 .4 3-.2 3.5-.6.4-.6.5-.2 1.5.2.6.4 1.4.4 1.9 0 1-1 2.5-1.7 2.8-.3 0-.8.4-1.2.6-.4.3-1.1.5-1.7.5-1 0-2.8-.7-3.3-1.4-.1-.2-.5-.4-.7-.4-.2 0-.7-.4-1.2-.8-.7-.6-.8-.8-.5-1.2.3-.3.3-.4-.2-.6l-1-.3c-.3-.2-1.2-.2-2-.2-1 .1-1.3 0-1.5-.3-.2-.4-.5-.5-1.6-.4-1.1.1-1.3 0-1.4-.4-.2-.6-1.6-1-4.3-1-2.5 0-2.5 0-2.5-.5 0-.2.9-.4 3.2-.6l4.6-.5c1.2-.1 1.4-.1 1.3.2-.1.3-.5.5-.9.6l3.6-.3c1.4-.1 2 0 2 .2 0 .1.3.3 1 .3.8 0 1.1-.2 1.8-1 .5-.5.8-1 .8-1.1l-.3-3.4c-.2-2.5-.4-3.4-.9-4.2l-.6-1.1-1.8.5a7 7 0 0 1-2.9.3c-1.6-.2-2.1-.2-3.3.4-.8.5-1.3.5-2.5.4-1.4-.1-1.6 0-2.3.5-.6.6-.9.6-2.9.7-3.4 0-7.1.5-7.7 1-.3.3-1 .6-1.4.7l-5.3 1c0 .1 0 .5.2.8.3.5.2.6-.3 1-.4.3-.8.5-1 .4-.2 0-.4 0-.5.2l-.6.2-1 .5c-.2.4-.6.5-.9.4l-1.7-.4a57.6 57.6 0 0 1-7.7-2c-.2-.5 3.3-.8 3.7-.4l1.5.2c1 .1 1.2 0 .7-.3-1-.7-1.4-1.2-1.6-2.2L29 104c-.5-1-.4-1.9.1-3 .4-1 1.2-1.3 1.5-.7.1.1.3.2.5 0a17.8 17.8 0 0 0 3.3-4.2c1.2-1.6.8-5.4-.6-7.3-.8-1-.8-1.4 0-2.5.6-1.1.9-1.3 1.6-1.4.6 0 2 1.3 1.6 1.5-.1.2 1 2.5 1.8 3.6l.5.8-.6.6c-.7.7-.7.7.7 4.2a10 10 0 0 1 .2 7.7 68 68 0 0 1-.8 2.7c-.2.4 0 .4.7.2.5 0 1.2-.4 1.5-.6 1-.7 3.1-1.3 5.2-1.3l3.1-.3c.8-.2 1.9-.3 2.5-.3.6 0 1.4-.2 1.7-.4a2 2 0 0 1 1.5-.3c1 .2 1.3-.1 1.2-.9 0-.3.3-.5 1.5-.7l1.6-.2c.3.3-.8 1-1.5 1-.4 0-.2 0 .5.2h1.4c.2-.2.5-.3.7-.3.3 0 .6-.2.8-.4.2-.4.4-.4 2-.1 1.2.2 2 .2 3.1 0 1.8-.4 2.2-.7 1.8-1.6a55 55 0 0 1-1.6-6.5l-.7-1.6c-.3-1-.7-1.6-1.5-2.2a7.4 7.4 0 0 1-1.6-2l-1-1.7c-.3-.2-.5-.6-.5-1s-.2-.6-1.1-.9c-1.1-.3-2-1.4-3.4-3.9l-.5-.8-2 .7c-1.7.6-2 .7-3.3.4-2.2-.5-2.3-.4-2.5.5-.3 1.1-1.7 3.4-2.2 3.5-1.6.5-2.5.5-3.2 0l-1.6-.9c-1-.4-1-.3-1.4-4.5-.4-4.3-.6-5-1.6-5.9-1.2-1.1-1.6-2.4-1.3-4.7.2-2 .4-2.3 1-2.3l.7-.4c.4-.3.5-.5.2-1.4-.2-.6-.6-1.3-1-1.5-.8-.6-2-2.8-1.8-3.4.2-.6.4-.6 2.1.3 1.2.6 1.6.7 2 .5.4-.2.5-.4.4-.7-.4-.8-.5-2.4-.2-2.5.2-.1 1 0 1.7.4 1.7.9 4.1 1 5.5.3a34.4 34.4 0 0 1 14.7-1c1.3.2 2.7.6 3 .8 1 .5 2.2.5 3.3 0 .8-.5 1.1-.5 1.8-.2l1.5.3c.3 0 .7.2.8.4.5.6.7.5 1-.6.4-.8.5-.9 1.4-.8.8 0 1 .2 1.1 1 .3.9.3 1 1.5.5.7-.2 1.3-.2 2.7.1 1.4.4 2 .4 2.2.2.2-.2 1.5-.4 2.9-.6 1.3 0 2.8-.3 3.2-.4 1.1-.2 5.2-1.6 7.2-2.4 2.1-.9 5-1 7.3-.5 2.7.7 7.6 2.8 9 3.8.7.5 1.6 1.3 2 1.8l.9 1 2.7-1.3 3.6-1.6c1-.5 1-.6.4-3l-.6-3.3c-.4-2-1.3-3.8-2.4-4.5-2.6-1.6-2.5-1.6-4.2-1.5-1.6.2-1.8.2-2 .8v.7l-.4-.6c-.3-.6-.5-.6-1.8-.5l-4.1.3c-1.4.1-2.6.3-2.6.4 0 .2.4.3.9.3s1 0 1 .2c.4.5-5.1.4-5.8 0-.4-.4-.3-.5 1.2-.5h1.6l-.1-.8c-.3-1 .2-1.6 1.5-1.6.6 0 1 0 1-.2s1.6-1.4 3.5-2.7A31 31 0 0 0 112 39a15 15 0 0 0-4-1.6c-.2 0-.6 0-.9-.3l-1.8-.8c-.7-.2-1.6-.7-2-1-1.6-1.4-3.5-2-3.5-1.1l.4 1.3c.3.8.5 1 1.2 1s.8 0 .8.7h-.7c-.7 0-.8.2-.2 1 .3.3.4.4.5.1.2-.4.8-.4 1.2 0 .2.3 1.1.5 2.7.6 2.3.2 3 .6 1.5.8-.5 0-1.3 0-1.8-.2l-3.2-.3-2.6-.2-1.6-.2c-2.3 0-3 0-3.4-.2-1-.5-3.2-.7-3.8-.3-.4.3-1.7.5-3 .6-2 .2-2.3.1-2.6-.4-.3-.5-1-.7-1-.2 0 .2-.3.2-.8.1-.6-.1-.9 0-1.5.7-.3.4-.8.8-1 .8-.5 0-.5-.1.5-1.2.5-.6.9-1.2.8-1.4-.1-.3 0-.4.8-.3l1.1-.1c.1-.1.7.2 1.2.8 1 .9 1 1 1.8.6.4-.2 1.7-.4 3-.5 1.2 0 2.5-.2 2.8-.4.5-.2.7-.2.8 0 0 .2.3.3.6.3.6 0 1-1.2.5-1.9-.2-.4-.2-.6 0-.9.2-.2.3-.7.1-1.6l-.1-2.6v-1.4h-1.2c-1.3-.2-1.2-.4.2-.7.7-.1.7-.1.5-1.6 0-.9-.4-2.6-.7-4-.6-2.3-.6-2.3-1.5-2.4-.7 0-.8 0-.5.3.2.3.2.5-.4 1-.3.5-.8.8-1 .8-.3 0-1.4.4-2.4 1-1.9.8-2 .9-2.7.5l-.8-.3 1-.1c.6 0 .8-.2.5-.3-.3-.2-.3-.3.1-.4 1.5-.5 1.6-.7.4-.6a4 4 0 0 1-2-.2c-.6-.3-.8-.3-1.2 0-.3 0-.7.4-1 .5l-3 .2h-4.6c-1.6 0-2-.1-2-.5 0-.3.2-.4.8-.2.5 0 1 0 1.3-.3.7-.5 1-.5 2.3.1 1.5.7 3.5.5 3.7-.3 0-.5.2-.6 1.8-.5 1.2 0 2 0 2.2-.2.3-.3.5-.3.7 0l.8.2c.2 0 .5.2.6.4.1.5 1.4-.2 1.6-.9.2-.5.7-.7.7-.2a3 3 0 0 1-1 1.6c-.5.3 0 .5 1 .2.7-.2 1-.4 1-.7-.1-.2 0-.5.2-.6.2-.2.3-.6.2-1-.2-.7 0-.7 1.1-.3.9.3 3 0 3.7-.4.2-.2.3-.4.1-.7-.1-.3-.3-.2-1 .3-.8.5-.9.5-1.3.1-.3-.4-.4-.5-.1-.6.2 0 1-.6 1.6-1.2 1.3-1 1.5-1 1.4-.1 0 .6.4.8 1.4.4 1.5-.4 2.7-1.7 2.6-2.4-.1-.5 0-.7.6-.8.7-.2 1 0 1.8 1.4.4.9 1 1.3 1.5 1.1.4 0 .5 0 .5.3 0 .6-.6.5-1.5-.2-.8-.7-.8-.7-1.2-.2-.6.6-.4 2.2.2 2 .2 0 .4.1.5.5.1.5.5.9 1.1 1.1 1 .4 1.2.7.4.7-.3 0-1-.4-1.4-.8-.5-.5-1.1-.8-1.3-.8-.3 0-.4-.2-.3-.7.2-.7 0-.8-.6-.2-.6.5-1.7.8-2 .4-.3-.2-.1-.3.5-.3.7 0 1-.2 1.5-1 .4-.5.7-1.1.7-1.3 0-.5-.8-.4-1 0 0 .3-.8.8-1.6 1.3-.7.4-1.5 1-1.6 1.3-.2.2-.8.7-1.5 1-.7.2-1.2.5-1.2.7l.5 1c.6 1 .9 4.4 1 11.6 0 2.5.1 4.6.2 4.6l2 .2c1.1 0 2.2.2 2.5.3.4.2.4.1.1-.5-.3-.6-.4-.7-1.1-.6-.8.2-.8.2-.2-.2.4-.4.6-.7.6-1.6 0-.8-.2-1.3-.4-1.3-.4-.2-.8-3-.7-6 0-1.2 0-2.1-.3-2.2-.1-.1-.2-1.2-.2-2.5a7 7 0 0 0-.3-2.6c-.4-.2-.3-.5.2-.7l.7-.3c.2-.1.3 1.4.3 4.1v4.3l1.5.4 2.3.3c1 0 1 0 .3.4-.4.2-.8.2-1.4 0-1-.5-2.6-.2-2.6.4 0 .3.2.5.3.6.1 0 .3.7.4 1.5.2 1 .3 1.4.7 1.5.7.2 1 0 1-1 0-.7-.2-1.2-.7-1.7-1-.8-.4-.8.6 0 .7.6.8.8.7 1.6 0 .6 0 1 .2 1.3 1 .9 3 2 4.8 2.6 1.8.7 3 1.2 5 2.2.7.3.8.3 1.4-.1.3-.3 1.9-1.1 3.4-1.9 1.5-.8 3-1.6 3.3-1.9.3-.3 1.5-.7 2.8-1l2.3-.4v-1c0-1 .2-1.3.7-1 .3.3 1 .3 3 0l5-.8c2.4-.3 2.4-.5-.2-.9-.7 0-1.5-.3-1.7-.5-.2-.2-1.7-.5-3.9-.6l-4-.5c-.6-.1-.6 0-.5 1.5.1 2.1-.4 2-.6-.3l-.2-1.5-1-.2-2.5-.2H118l-.3 1.4-.5 1.8c-.1.1.1.5.6.9.8.6.8.8.8 1.8 0 .6-.3 1.2-.4 1.2-.3.1-.3-.1-.2-.8.1-.7 0-1-.6-1.4-.4-.3-1-.5-1.3-.5-.4 0-.5.2-.3 2 0 1.5 0 1.9-.3 1.9s-.5-.8-.4-2.1c0-.9-.6-1.6-1.4-1.6-.8 0-.8 0-.3 1.1.5 1 .3 1.8-.2 1.8-.3 0-.4-.3-.4-.7 0-.3-.2-.7-.4-.7-.2-.1-.4-.5-.5-1-.1-.3-.5-1-1-1.4-.6-.6-.8-.7-1.2-.5-.2.2-.4.8-.4 1.4 0 1.2-.4 2.3-.9 2.3-.8 0-1.5-2-2.5-7-.2-1.2-.1-1.3 1-2 .7-.2 1.6-1.8 1.1-1.8-.4 0-.3-.7.1-1 .6-.5 1.6-.1 1.5.4-.2 1 .3 1.6 1.3 1.8 2.4.4 2.4.4 2.4 1 0 .8 1 1.9 1.4 1.7.2 0 .5-.4.6-.7.2-.4.5-.6 1-.6.3 0 1.1-.2 1.8-.5 1-.5 2.1-.7 5.7-.9 1 0 1.3 0 1.4.5 0 .4 0 .5-1.2.3-.7 0-1.5 0-1.7.2-.3.2-.7.2-1.4 0-1-.3-2.4 0-2.6.5-.1.3.3.4 2 .6l2.4.4c.3.2 4.8.7 8 1 .6 0 1.4.2 1.6.4.7.7 1.1.5 1.1-.3 0-.5.1-.8.3-.8.1 0 .3.2.3.4 0 .3.1.8.3 1 .4.5.5.5.7.2.1-.2.2-.6 0-.8 0-.2 0-.3.3-.3.2.1.4.5.5.8.1.4.4.7.8.7.5.1.5 0 .4-.8-.1-.6 0-1 .1-1 .3 0 .4.7.4 2 0 .5.7.5 1.1 0 .3-.5.4-.5.8 0l.9.4c.1 0 .3.2.3.4 0 .3.5.3 2.5.2a31 31 0 0 1 8.3.4c0 .1-2.4.2-5.4.2-3 0-5.5 0-5.6.2 0 0 0 .6.3 1l.3 1 2.5.1 5.8.4 3.4.2.1-.7c.3-1 .2-1.8-.3-2-.4-.3-.3-.3.3-.5h1.1c.4.1.4.2 0 .9-.5.9-.5 2.3 0 2.5.3.1 6-.3 9.8-.7 2-.2.7.3-1.7.7l-2 .3 1.5.2 2.8.2h1.4v-.8l-.1-.8-2.7-.6c-2.9-.6-3.9-1-2-.8 3.7.4 4.4.4 4.7.1.3-.2.5-.2.7.1.3.5 2.8 1 7.5 1.4 1.8.2 1.8.2-1.5.4-2 .1-3.6.3-3.8.5-.2.2-.5.2-.7.1-.4-.2 0-.6.6-.6 1 0 .5-.5-.6-.6-1.4-.2-1.6 0-1.5 1 0 .9.4 1 5.7 1.3l3.2.2.5-1 .5-1.2h1.6c1 0 1.4 0 1.3-.2-.1-.2-.4-.3-.7-.3-.3 0-.5-.1-.5-.3 0-.5.9-.2 1.7.4.7.6.8.7.3 1l-.6 1.2c-.2.8-.1.9.5.9.4 0 1 .2 1.3.6l.5.6-.1-.8c0-.5-.2-1-.3-1.4-.2-.6-.1-.6 1.7-.5l2.5.2c.4 0 .5 0 .5-.4 0-.2 0-.4.2-.3.3.2.8-.3.8-.8 0-.3-2 0-3 .5l-.7.2c0-.6 2.7-1.4 3.7-1.2.4.1.5.3.3.8 0 .5 0 .6.4.6s.6-.2.6-.4c0-1 .8-1.9 2-2.4 1.4-.5 2.8-.4 4.6.4 1.5.6 6 .6 6.7 0 .4-.3.5-.2 1 .2.3.2.5.7.5 1 0 .3.5 1 1.2 1.7.6.6 1.4 1.7 1.7 2.3.4.8.7 1.1 1 1 .2 0 .3 0 .3.2l.6.2c.7 0 .8.5.5 1.5-.2.6-.2 1.3.1 2.8.4 1.8.4 2 0 2.3l-.7.3c-.6 0-2-1-2-1.5 0-.7-1-1.5-1.3-1-.2.1-.3 0-.3-.8s-.2-1.2-1-2c-.6-.6-1.2-1-1.6-1-.6 0-.7 0-.5 1.4.3 2.5.6 3.6 1.4 4.7.5.5.9 1.1.9 1.3 0 .3-1.4 1-2.1 1-.7 0-.7-.1 0-.8.4-.4.5-.6.3-.7-.2 0-.3-.3-.3-.5 0-.3-.2-.6-.3-.8l-.9-1.7c-.3-.8-.8-1.4-1-1.5-.7-.1-.7 2.9 0 3.9l.7 1.4c.2.6 0 .8-.6 1-.6.3-.8.2-1-.2-.4-.5-.6-.5-1.6-.3-.8.2-1.4.1-1.5 0-.3-.3.1-.5 1.5-.6 1 0 1-.1 1.2-1 0-.8 0-1.1-.5-1.3-.5-.3-.6-.4-.1-.8.3-.5.4-.7 0-2-.3-1.5-.4-1.6-1.8-1.7l-1.3-.3-.8-.3c-.3 0-.8 2-.7 2.6l-.1.7c-.1.2 0 .8.2 1.4.5 1.2.4 1.1.4 2 0 .8 0 .8-1 .6-.6 0-1.1-.3-1.3-.4l-1.2-.2c-.6 0-1-.2-1-.3 0-.4.3-.5 1.6-.3 1.2.2 1.7 0 1.4-.3l-.3-1.2c-.1-1.6-.5-2.5-1-2.4-.8.2-1.4-.7-1.7-2.4-.4-2-.8-2.7-1.3-2.6-.3 0-.5.4-.6 1.4a6.3 6.3 0 0 1-1.2 3.3c-.3.3-.3.5-.1.6.4.3 0 .7-.7.7-1.3 0-2.7.6-3 1.2 0 .3-.3.8-.6 1.2-.4.6-.5 1.2-.5 5.4a175.2 175.2 0 0 0 1 22.4c0 2.8 0 2.9.5 2.9s1.4.7 1.4 1.2l.7 1c.4.4.7 1 .7 1.5 0 .6 1.1 2.6 1.8 3 .5.3 1 1.8 1.2 3.2.2 1.5.8 2.7 2 4 .4.5.8 1.1.8 1.3 0 .2.1.7.3 1 .2.3.6 1.2.7 2 .2.7.6 1.5.8 1.8.5.4.6.4 1.7-.1 1.3-.6 2.5-1 3-.9.2 0 .4 0 .5-.2.2-.4 2.2-.4 2.2 0 0 .1.3.4.7.5.4.1.8.6 1 1 .1.5.4.9.7 1 .6 0 1.4 2.5 1.2 3.7-.1.5 0 1.2.1 1.7.4.9.1 1.7-1.3 3.7l-1.2 2c0 .4-.5 1-1 1.4-.5.4-1 1-1 1.4-.4 1-1.5 2.7-2 3.3-.4.2-.6.7-.6 1 0 .6-1.4 3.5-2 4.3-.7.7-1.7 1.2-2.8 1.2-.5 0-1.1.2-1.6.6l-.8.7-4.2-.2a39 39 0 0 1-9-.6c-.2-.2 0-.4.3-.5.6-.2.6-.3-.3-.3-2.3 0-4.2-.3-4.2-.7 0-.3-.4-.4-1.5-.4-1 0-1.4 0-1.4-.3 0-.5 1.6-.8 5-.8 2.5 0 3.2.2 2 .8-.4.3 0 .3 1.8.3 2.4 0 3.2.1 3 .6-.1.1.2.2.8.2.5 0 1.2.2 1.4.5.7.5 1.6.3 2.2-.7.3-.6.7-.8 1.7-1 2.1-.6 2.5-1.4.8-1.8-1.6-.4-3.6-2-5.3-4.7-.8-1.2-1-1.7-1.1-3.4-.3-3.2-.3-3.1-1.4-3a9 9 0 0 1-2.7-.3 14 14 0 0 0-2.6-.4c-.6 0-1.6-.3-2.3-.7-1.2-.7-1.3-.8-1.7-2.3-.2-.9-.5-1.8-.7-2-.2-.2-1.6-.3-4.6-.4a23.4 23.4 0 0 1-6-.7 8 8 0 0 1-2.6-.6l-1.9-.7a.6.6 0 0 1-.5-.4c-.1-.2-.4-.4-.6-.4l-.8-.4c-.3-.5-.4-.5-.2 0l.4 2.3c.1 1.1.4 2.1.9 3 1.2 2 1.3 2.6.4 3.7-.9 1-1 1 .3 4 .4 1.1 1 2.5 1 3 .5 1.4.8 1.6 1.5.7.6-.8 1.3-3 1.6-5 0-1 0-1.2-.5-1.7-.5-.4-.6-.9-.8-2.6a11 11 0 0 1 0-2.6c.2-.5 1-.6 1.3-.1l1.1.7c1 .3 1 .3 2-.7.8-.8 1-1 1.5-.7.3.3.4.8.4 3 0 2.3.2 3 .6 4 .4.7.6 1.5.6 1.9l.3 1c.2.4.4 1 .4 1.5.1.7 0 .8-.3.7-.2 0-.4 0-.4.3 0 .2.2.3.5.2.4 0 .6.1.8.8.2.4.5 1 .7 1.1.3.3.5 1 .4 1.7l-.7 1-.6 1.1c0 .3-.3 1-.7 1.8-.5 1.2-.6 1.5-.2 2 .9 1.2 3 1.2 4.7-.1 1.5-1.2 1.9-.8 1.3 1.1-.6 2-1.5 2.8-3.7 3.2-1.3.2-1 .3-4.7-1.6-3.3-1.8-5.2-2.3-5.2-1.5l-.1 2c-.1 2-.8 3.3-2.6 4.7-2.2 1.6-3 2-7.4 2.6-.5.1-1.2.4-1.4.7-1 1-2.6 2.1-3.3 2.1l-2 .4c-1.2.4-1.7.4-3.6.2-4.2-.6-5-.8-6-1.6a6 6 0 0 0-2-1c-1-.2-1.1-.4-1-1 0-.6-.2-.6-1.1-.6-.9 0-1.2-.2-1.8-1l-.8-1.1c0-.7-.7-.4-1.5.7-1 1.3-1 2 0 2.6 1.3 1 .9 2.5-.9 2.9h-3zm22.3-1.8c.5 0 .6-.1.5-.5-.1-.6 1-1.2 2-.8 1 .4 1.4.3 1.4-.4 0-1-.5-1.2-2.4-1.2-2 0-2.7.1-2.5.6 0 .3-.2.4-.7.5-.5 0-1.1.2-1.4.3-.4.2-.5.1-.6-.3 0-.3-.5-.7-.9-.9-1.4-.5-2.1-1-2.7-1.8-.3-.5-.7-.8-.8-.8-.2 0-.8-.5-1.3-1.2-.5-.6-1-1.2-1.3-1.2-.2 0-.9-.5-1.4-1-.5-.6-1-1.1-1.2-1.1l.2 1.4.6 2.3c.2.8.8 1.6 1.3 1.6.1 0 .4.4.6 1 .3.6.7 1.1 1.3 1.5l1 .7 1.3.5c1.2.3 1.4.3 1.9-.1.7-.7 2-.4 2 .5 0 .7.1.7 1.3.6l1.8-.2zm-7.8-2.1c0-.7.4-1 1.2-.7.8.2.9.8 0 1-1 .3-1.2.2-1.2-.3zm8.6-.3c0-.1.1-.3.4-.3.3 0 .5.2.4.3 0 .1-.2.3-.4.3l-.4-.3zm-11.9-4c0-.1-.1-.3 0-.4.2-.2.7.1.7.5 0 .3-.5.3-.7 0zM121 134c-.5-.7-1-1-1-.7 0 .4 1 1.5 1.3 1.5.2 0 .1-.3-.3-.8zm-.7-2.5c.3-1 .2-1.5-.3-1l-.4 1c-.2 1.2.3 1.2.7 0zm31.5-.2c2.1-1 3.8-2.2 4.4-3.4.3-.9.4-1.8.4-4.4 0-5.4-.2-7.3-1.4-9.9a36 36 0 0 1-1.5-3.5c-.2-.8-.6-1.7-.9-2l-.5-1c0-.3-.2-.4-.5-.3h-.7c0-.2-.3-.3-.5-.3-.5 0-.4 1 .4 3.7a9 9 0 0 1 .5 2.7c-.2 1-.2 1-1.6-3.8-.5-1.8-.6-1.9-.8-1.3-.4 1-.4 2.7 0 6 .4 3 .2 6-.2 5.8-.2-.1-.3-1.1-.3-2.2a43 43 0 0 0-1.3-10.3c-.2-.1-.3 0-.2.1.3.4-.3 2.5-.6 2.5-.2 0-.3-.5-.3-1 0-1-.2-1.2-.7-.4-.2.3-.6.6-.9.6-.3 0-.7.2-.9.4-.6.8-.7.2-.3-1 .6-1.4.6-1.6-.2-1.6-.5 0-.7.3-1.1 1.4-.6 1.6-1.6 2.2-1.4.8.1-.5 0-.7-.2-.7-.5.2-.9 1.3-1.3 3.5a14 14 0 0 1-1.2 3.5c-.8 1.4-1 1.6-1.5 1.5-.7-.1-.7-.1-1.4 2.9-.7 2.9-.7 3.8 0 4.7 1 1.1 1.9.9 2.4-.6.3-.7.6-1.2.8-1.3.4-.1.4 0-.6 3l-.8 2.8.6.5c.3.3.9.6 1.3.7.4 0 .9.2 1.2.4a15 15 0 0 0 4.2 1.3c.5 0 1.1.2 1.5.4 1.1.6 4.4.5 6-.2zm-26.9-2.3c.1-.2.6-.5 1.1-.7.6-.2 1-.5 1-.9 0-.6-.8-1.2-1.3-1-.4.2-1.4 2-1.4 2.6 0 .3.4.3.6 0zm9.2-1.4c1.8 0 2-.6.5-1.8-1-.9-1-1-1-2.5 0-2.7 1.4-8.2 3-11.7 1.1-2.5 1-2.8-.8-4.2-.5-.3-.5-.4 0-2 .2-1 .7-2.2 1-2.8a8 8 0 0 0 .8-1.8c.1-.5.5-1.4 1-2 1-1.6 1-1.8-.5-1.8-.6 0-1.3-.2-1.5-.4-.3-.3-.7-.3-1.5-.2-.7.1-1.4.1-1.6 0l-1.5-.2c-.7 0-1.1-.2-1.2-.4-.1-.3-.4-.4-.8-.4s-.5-.1-.3-.3c.4-.4 5.3-.7 5.5-.3.1.2.6.3 1.1.3l1 .2c.1.2.7.2 1.3.1.8 0 1 0 .9.2-.1.2-.4.3-.6.3-.2 0-.3 0-.3.2s1.4.2 1.7 0l.2-.7c.2-.6 0-.7-1-1l-2.7-1.2-1.8-.7-1.3-.9c-1.1-.7-1.3-.8-2.8-.6l-1.8.4c-.2.4-2.1 1.3-2.7 1.3-.8 0-.7-.5.1-.7a2 2 0 0 0 1-.7c.5-.7 2.7-1.3 3.6-1 .8.2.7-.2-.6-1.6-.8-1-1.3-2-1.9-3.6l-.8-2.3h-2.3a11 11 0 0 1-2.4-.2l.2-.6c.4-.3 1-.4 2.3-.4 1.6 0 1.8 0 1.8-.5 0-1-.5-1-3.6-1-2.5 0-3.2-.2-3.5-.5-.5-.4-1.2-.6-3.3-1-1-.1-1.1 3-.1 4.7l1 1.8c.4.7.5 1.3.5 2.6 0 1 0 2.6.2 3.6.2 1.7.3 2 .6 1.8.5-.2 3.4-.6 4.2-.6.3 0 .6 0 .6.2 0 .3-.2.4-3.2.8-1.7.3-2 .5-2 .8l.3 1.3c.4 2 1 4 1.4 4 .8 0 .6 5.9-.3 6.8l-.2.9-.4 2.2c-.4 1.6-.8 7.4-.5 8.6 0 .3.3.5.6.5.6 0 2.6-1.4 3.8-2.9l1.1-1.3.1-2.5c0-1.4.2-2.8.4-3 .2-.6 1.3-.8 1.3-.4 0 .2.2.5.5.8.9 1 2.2.8 3.2-.2.7-.8.8-.9 1.2-.5.4.5.4.7 0 3.2-.2 1.7-.5 2.8-.9 3.2-.4.5-.4 1-.4 4.4.1 3.6.4 5.8.9 6.1l1 1.4c.6.9 1 1.2 1.2 1 .1-.1.6-.3 1-.3zm.4-22.2c-.1-.1 0-.2.2-.2s.4 0 .4.2-.1.3-.2.3c-.2 0-.4-.1-.4-.3zm35 19.4c1-1 .7-1.4-.5-.7-1.4.7-4.2.2-4.6-.8-.4-1-.2-2 .5-3 .8-1.2.8-1.8 0-4.2a29.7 29.7 0 0 1-1.3-4.4c-.2-.6-.2-.7.3-.7l.6-.2c0-.6-1.4-3.7-1.8-4-.8-.6-1.6-.4-2.4.8-.6 1-.7 1.4-.7 2.8 0 1.6-.1 1.9-.7 2.7-1.6 1.8-1.9 3.3-1 6 .6 2.5 1.2 3.3 2.1 3.3 1.3 0 2.5.6 2.9 1.4.4 1.1 2.8 2.2 4.5 2 1.1 0 1.4-.2 2.1-1zm-9-4.7c-.2-.2-.2-.5-.1-.6.2-.3.4.1.3.6 0 .5 0 .5-.3 0zm-1-1.7c0-.3-.2-.6-.4-.6-.2-.1-.2-.3 0-.8.5-1 .7-.9.8.6 0 .7 0 1.3-.2 1.3-.1 0-.2-.2-.2-.5zm3-.1c.1-.3.3-.4.4-.4.4 0 .2.6-.2.7-.2 0-.3 0-.2-.3zm-4.1-2c0-.6.7-1 1-.8.2.2-.4 1.3-.7 1.3-.2 0-.3-.2-.3-.5zm-50.8 9.4-.6-1.5c-.4-1-.6-1.8-.5-2.3 0-.4 0-1-.2-1.3-.2-.4-.3-.4-.4.3l-.6 1.2c-.4.5-.4.5 0 .7.3 0 .4.4.4.9 0 .8 1 2 1.5 2h.4zm2.1-.7c-.7-1-.7-2.3.1-3.2.4-.5.6-1 .5-1-.1-.3-.6-5.5-.6-7.7 0-.7-.2-.8-.6-.8-.5.1-.6.3-.5 2.3 0 1.4 0 2.2-.2 2.2-.1 0-.3-.5-.3-1s-.2-1.3-.5-1.8l-.5-.8.7-.7c.8-.9 2.2-1 2.7-.3.3.5.3.5.5 0l.8-.4c.7 0 .7 0 .1 1-.3.8-.3.9.3 2 .4.6.7 1.5.7 2l.2.8c.7 0 3.5-2.7 3.5-3.4 0-.2-.2-.3-.4-.3s-.4-.1-.4-.3c0-.2 1.2-.2 1.5.1 0 0 0 .8-.3 1.5-.4 1.3-.4 1.5 0 3.2.5 1.8.8 2.2 1.4 1.4.3-.2.3-.7 0-1.9-.4-2-.3-5.8.2-8.2.4-1.8.4-2 0-2.5-.5-.4-.5-.5.5-1.3 1-.9 1-1 1.1-2.7.2-2.1-.2-2.3-1-.4-.7 1.4-1.2 1.6-1.1.4 0-.4 0-.7-.2-.7s-.4.4-.3.9v.7c-.3.7-.7.4-.7-.3 0-.5-.1-.5-.4-.2-.6.5-.8.1-.4-1 .4-1 .4-1-.5-1.3-.6-.1-.6-.1-.5.4.2.4 0 .5-.2.5-.3 0-.4.3-.4 1s0 1.2.2 1.3c.2 0 .1.6-.2 1.2-.8 1.4-.7 1.7.2 1 1-.6 1.3-.3.5.5-.5.5-.5.6 0 1.2.7 1 .2 1.4-.7.5-.7-.7-1.4-.7-1.9-.2-.2.2-.4.4-.6.4a2 2 0 0 0-.8.4c-.5.4-.5.4.3 1 .4.4.6.8.5.9 0 .1-.4 0-.7-.3-.7-.6-2.3-.5-4 .3l-1.7 1-1 .8c-.4.2-.7.6-.7.7 0 .1-.4.6-1 1-.8.9-1.2 1.9-.6 1.9.2 0 .3.2.2.6-.1.4 0 .7.4 1 .8.4 1 .1 1-1.5 0-1 0-1.4.4-1.4.2 0 .4 0 .4.2s.2.3.4.3c.3 0 .6.5.7 1.3l.9 1.9c.7 1 .9 1.7.9 2.5 0 1.9 1.2 4 2.2 4 .5 0 .5 0 0-.7zm-2.7-9-.3-1.2c-.2-.8-.2-1 .1-.9.5.2 1 1.8.6 2.2-.2.1-.3.1-.4 0zm7.2-.3c0-.1.1-.2.3-.2.1 0 .2 0 .2.2s0 .3-.2.3a.3.3 0 0 1-.3-.3zm.2-1.4c-.2-.2-.2-.5 0-.6.2-.3.4.1.3.6-.1.5-.2.5-.3 0zm-.5-3c0-.7 0-.9-.4-.7-.5.1-1.1-.3-1.1-.9 0-.5.7-.4 1 .1 0 .3.1.4.3 0 .3-.4.4-.2.6.6l.2 1c0 .5 0 .9-.3.9-.1 0-.3-.4-.3-1zm1.9.7-.1-1.3c-.1-1-.1-1.1.2-.7.5.6.6 1.7.2 1.9h-.3zm1-2.2c-.3-.6-.5-1.7-.2-1.7l.4.6c.2.7 0 1.5-.2 1zm3 14.3c.2-.3.1-.4 0-.3-.2.1-.3.3-.3.4 0 .4.2.3.4-.1zm-15.9-.7.4-1.6c.4-.8.3-1.8-.2-1.8-.2 0-.7 1.4-1.2 3.5-.1.7 0 .7.5.7.5-.1.6-.3.5-.8zm20.4.5c0-.1 0-.2-.2-.2l-.2.2v.3c.2 0 .4-.1.4-.3zm-22.2-1.3c0-.4-.2-.4-.7-.2-.8.3-.9 1-.2 1 .6.2 1-.2 1-.8zm23.4.1s-.2.1-.3.4c-.1.3-.1.4.2.1.1-.2.2-.4.1-.5zm-8.8-.1c-.2-.2-.5-.2-.6-.1-.2.2.5.6.8.5.2-.1 0-.3-.2-.4zm6.3-.3c-.2-.2-.3-.2-.3 0 0 .6.3 1 .5.6 0-.2 0-.5-.2-.6zm6-.9c-.1 0-.3.1-.5.5-.3.6-.3.6.2.1.2-.2.4-.5.3-.6zm-26-.5v-1.3c-.2-.8-.3-.9-.9-.6-.6.3-.7.8-.3 1.9.2.7.9.7 1.1 0zm10.8.2c-.2-.5-1.3-1.9-1.5-2l-.2.3c0 .2.1.3.3.3.1 0 .2.1.1.2 0 .2 0 .4.3.6l.4.7c0 .2.1.4.4.4.3 0 .3-.2.2-.5zm3.3.3c0-.3-.9-1.8-1.4-2.5l-.5-.7.2 1.3c0 .8.3 1.5.4 1.7.3.3 1.3.5 1.3.2zm12-3.4c0-.9-.1-1.6-.4-2l-.5-.7.2 1.2c.2 1.5.2 2.8 0 3.7-.2.6-.1.6.3-.1a5 5 0 0 0 .4-2.1zm60.2 2c.8-.5.6-.8-.5-.6-1.5.2-2.2 1.1-.8 1.1.4 0 1-.2 1.3-.4zm-75-.4c-.2-.1-.4-.2-.4 0l.2.5h.3l-.1-.5zm11.9-.5c-.2-.2-.3-.2-.3 0 0 .3.3.6.4.5.1-.1 0-.3-.1-.5zm-3.8-.6c0-.3 0-.4-.3-.3-.2 0-.4.3-.4.6-.1.3 0 .4.2.3.2 0 .4-.3.5-.6zm69.7-1.7c-.4-.4-1.7.3-1.5.8 0 .3 0 .5-.2.6-.1.1-.3.4-.3.7 0 .3.4 0 1.2-.7.7-.8 1-1.2.8-1.4zM75 118.1c1.4-.6 2-1.1 2-2 0-1-.3-1.4-.7-1l-2.2.6c-1.8.4-1.8.4-2 1.3-.1.5 0 1 .1 1.2.4.5 1.5.4 2.8 0zm119.7-1.1c.9-1.8 1-2.4.2-2.4-.4 0-.5.1-.4.5 0 .3 0 .6-.2.8-.3.2-.5.5-.5.6l-.5 1c-.7.9-.6 1.1 0 1 .5 0 .9-.5 1.4-1.5zm-82.3.2c0-.8-.4-1.2-.7-.8-.2.4.1 1.6.4 1.6.2 0 .3-.3.3-.8zm11.5.4c0-.2-.1-.4-.3-.4-.4 0-.7.4-.5.6.3.4.8.2.8-.2zm43-1.1c0-.4-.8-1-1-.8-.2.2.4 1 .7 1 .2 0 .3-.1.3-.2zm-29.7-2c.7-1.2 1-3.3.6-3-.2.1-.3.4-.3.6 0 .1-.3 1-.7 1.7-1 2.3-.8 2.8.4.7zm-65.4.1c.5-.6.4-1.1-.2-1.3-.3 0-.5-.3-.5-.6 0-.4.2-.5 1-.4 1 0 1 0 1.1-1.2v-2.3c-.1-.7-.2-1-.2-.5 0 .7-.6 1.4-1 1l-.1.6c0 .7-.7 1.9-1.5 2.8-.5.4-1 2-.8 2.4.3.4 1.8 0 2.2-.5zm54.3.5c0-.1 0-.3-.2-.3s-.4.2-.4.3c-.1.2 0 .3.2.3s.4-.1.4-.3zm-50.4-.5c.2 0 .3-.6.4-1 0-.6.3-1.2.7-1.6.6-.5.6-.7.4-1.7 0-.6-.2-1.8-.1-2.6 0-2.5.6-11.2.7-11.8.2-.4 0-.6-.2-.7-.4-.2-.5-.5-.3-2.1v-3.4c-.2-1.3-.3-1.5-1-1.5-1-.1-1-.4.2-1 .7-.5 1-.5 1.2-.3.2.2.5.1 1-.5.3-.4.6-1 .6-1.3 0-.2.3-.5.6-.7 1-.4 1.2-2.4.3-6.6-.2-.7-.4-.7-5.3.9-2.7.8-3.5 1-3.8.7-.5-.2-.7-.1-1.7 1a13 13 0 0 0-1.3 1.6 7 7 0 0 1-1.2 1.3l-.8.8c.2 0 .9-.6 1.7-1.3 1.4-1.3 2.2-1.6 1.5-.5-.4.7-.4 1 0 .6.5-.5 1.2-.4 1.5.2.2.3.4.5.6.5.2 0 .5.4.7.8.3.8.3.9 0 1.1-.5.3-.5.3 0 .6.5.4.2 1.9-.4 2.1-.2.1-.4.3-.4.5s.3 0 .7-.3c.8-.7 1.6-.6 1.2.2-.5 1-.3 1.4.5 1.3.6-.2.7 0 1 .6.3.7.3.9-.2 1.8-.7 1.5-.6 1.6.3.6 1-1.2 1-.7.1.8l-.6 1.5c0 .5.6 1 1 1 .3-.2.3 0 .1.8l-.1 1.8c0 .5 0 .7-.3.6-.2 0-.3-.4-.3-.8s0-.7-.3-.8c-.2 0-.4-.4-.4-.7 0-.2-.1-.6-.3-.7-.4-.2-.1 2 .3 2.4.3.4.5 2.6.5 5.7v2.8l.4-1.7c.1-1 .4-1.7.6-1.8.3-.1.4 0 .3.6l-.4 3.4a20 20 0 0 1-.3 3s-.3-.1-.6-.5l-.5-.6v1.4c0 .9-.2 1.6-.5 2.2-.8 1.3-.7 1.5.7 1.5.7 0 1.4 0 1.5-.2zm-1-19.9.4-.4c.1 0 .2 0 .2.3l-.2.4c-.2 0-.3-.1-.3-.3zm.4-8.2c0-.1.1-.2.3-.2.2 0 1-.5 1.7-1 1.5-1.2 1.7-1.3 1.7-.9s-.5.8-1.8 1.7c-1 .7-2 1-2 .4zm-.6-1.3c0-.1.2-.3.4-.3s.9-.4 1.5-.9c1.2-1 2-1.2 1.8-.6 0 .2-.7.7-1.4 1.2-1.3.9-2.3 1.1-2.3.6zm1-1.8c0-.1.4-.6 1-1.1.7-.5 1.2-1 1.2-1.2 0-.2.2-.4.5-.4 1 0 .6.9-.6 1.8-1.3 1-2 1.2-2.1 1zm114.1 30.9-.4-1c-.4-.8-.3-1.4.2-1.4l.2.4c0 .5 1.2 2 1.5 1.7 0-.1 0-.5-.3-.9l-.4-.8c0-.3.8 0 1 .3.6.6.9.5.7-.3-.2-.7 0-.8.7-.3.6.4 1 0 .6-.4-.5-.5-.4-.6.4-.8 1-.2 2-1.2 2.3-2 .1-.6 0-.8-.7-1-.7-.3-.8-.3-.6.2.1.5 0 .5-.4.4-.4 0-.5 0-.5.2 0 .7-.6.4-1-.4-.3-.9-.4-.9-.5-.3-.3 1-.7.6-.6-.6 0-.8 0-1.2-.2-1.2s-.4.5-.5 1.2c-.1.7-.3 1.2-.5 1.2-.3 0-.2-1.5.1-2.2.3-.6 0-1-.3-.5-.4.8-.6 0-.2-.7.5-1 .1-1.2-.4-.3-.5.8-.8.6-.6-.3.2-.6.1-.7-.4-.8-.4 0-.7-.3-.8-.8 0-.4-.2-.5-.3-.3-.3.5-1 .4-1-.1 0-.3.4-.7.8-1 .7-.4.8-.4 1 0 .2.7.6.1.6-1 0-1.2 0-1.2-2 .8-1.2 1.1-1.7 1.2-1.7.3 0-.3-.2-.5-.4-.5-.7 0-.4-.8.7-1.7.7-.5 1.4-1 1.6-1 .5 0 .6.3.2.7-.2.2-.1.4.2.5.4 0 .6-.1 1-1.2.5-1.7.5-1.9-.2-1.5-.5.2-.5.2-.4-.3 0-.4 0-.5-.2-.4-.5.2-.5-.4 0-1 .4-.6.8-.6.6 0-.1.4 0 .6.4.6s.6.3.7.7c0 .8.5.8.5 0 0-.5.4-.6.7-.2.1.2.3.3.4.3.5 0 .3-.6-.4-1.2-.4-.5-.6-.9-.5-1.2 0-.3 0-.7-.3-.9-.2-.2-.4-.6-.4-1 0-.3-.2-.6-.8-.8-.6-.2-.8-.4-.7-.9 0-.6-1.5-2.2-1.8-1.7 0 .2-.4.3-.7.3-.2 0-.5.1-.5.3 0 .1-.2.2-.4.1-1.8-.5-1.8-.5-1.6.1.2.6.2.6-.5.4-.5 0-.7 0-.7.2 0 .3-.2.5-.5.6-.3 0-.4.3-.3.5 0 .2 0 .4-.2.5-.2.1-.3.4-.3.7 0 .2-.4.8-.9 1.3-.8.8-.9 1-.6 1.5.1.3.5.6.7.8.2.1.3.4.2.5 0 .2 0 .3.2.4.1 0 .3-.3.3-.9.1-1.2.3-1.4.7-1l.6.3v-.3c-.6-.5-.4-.8.3-.6.6.2 1.7-.2 1.7-.6 0-.2-.2-.2-.5-.1-.4 0-.6 0-.6-.3s.3-.5.6-.5.5 0 .5-.2.1-.3.2-.3c.2 0 .2.3.1.5 0 .3 0 .7.3 1 .4.3.4.3.5-.2.1-.3.3-.5.5-.5s.3.3.1 1c0 .9 0 1.2.3 1.3.2 0 .4.3.4.5l.2.4c.6 0 .2.7-1.1 2-1.4 1.4-3 4-2.7 4.3l.6-.5.5-.6.4.6c.1.3.2 1 .1 1.3-.1.7 0 .7.7.6 1-.1 1 .1-.2 1.4-.5.5-.9 1.2-.9 1.4 0 .2-.1.3-.2.3-.4 0-1 1.8-.7 2.4.1.3.2.3.5-.3.6-1.1 1-.9.7.6 0 1.1 0 1.3.3 1.1.3 0 .5 0 .7.5l.2.6.2-.6c.3-.8.8-.7.6.1v.7c.2 0 .3-.1.3-.3l.5-.7c.3-.5.4-.4.2 1-.2 1.8.3 2.2.6.5.2-1.3.5-1.4.7-.1.1 1 .6 1.7 1 1.7.1 0 .2-.1.2-.3zm.3-4.9.2-.5c.2-.1.3 0 .3.4 0 .3-.1.5-.3.5l-.2-.4zm1-.1c-.2-.4-.2-.5.2-.5h.4l.1.6c.3.6-.3.5-.7-.1zm-2.6-.1c0-.2.1-.5.3-.6.1 0 .2 0 .2.3 0 .2.2.4.4.5l-.3.1c-.4 0-.6-.1-.6-.3zm-.9-.8c0-.3.3-.4.4-.4.1 0 .2.1.2.4 0 .2-.1.4-.4.4-.2 0-.3-.2-.2-.4zm-1-1.4.7-.4c.4-.1.8-.5.9-.8.1-.6.6-.6.6 0 0 .7-.7 1.4-1.5 1.4-.4 0-.7 0-.7-.2zm-.5-1.1c0-.3 1-.6 1.2-.4v.4c-.2.3-1.2.3-1.2 0zm1-11.1c-.1-.2 0-.4 0-.4h.5l-.1.5-.4-.1zm.2-1.8c-.2-.6-.2-.6.3-.6.2 0 .4.2.4.5 0 .6-.4.7-.7 0zm-3-1.6c0-.2.3-.5.4-.6.3 0 .4 0 .3.4 0 .2-.2.5-.4.6-.3 0-.4 0-.3-.4zm-57.5 22.3c-.1-.2-.2-.1-.2.2 0 .3 0 .4.1.3v-.5zm-92-4.5c-.2-.4-1.4-.6-1.4-.2 0 .3.4.6 1 .6.2 0 .4-.2.3-.4zm3-.4c.1-.2 0-.3-.1-.3-.2 0-.3.1-.3.3l.1.2.3-.2zm160.3-.9c0-.2.5-.4 1.1-.6 1-.3 1.6-.9.7-.8-.6 0-.8-.4-.2-.8 2-1 2.8-1.7 1.9-1.7l-.4-.2c0-.2.2-.4.4-.6.2-.2.4-.5.4-.8l.4-.9.4-1c0-.5 0-.5-.8.1-.7.8-1 .7-1 0 0-.4-.2-.6-.3-.6-.1 0-.2-.6-.1-1.3.1-1 0-1.3-.3-1.4-.3-.1-.6-.1-.8 0-.1 0-.4-.1-.7-.5-.6-.7-.7-.3-.1 1 .4 1 .5 2.2.1 2.2-.1 0-.3-.2-.3-.4 0-.7-1.2-3.3-1.5-3.3-.4 0-.4 1 0 1.2.3.2 1.3 2.4 1.3 3 0 .1-.1.3-.3.3-.1 0-.2-.1-.2-.3 0-.7-2-3.4-2.4-3.4-.8 0-.7.3.4 1.3 1.2 1.2 1.1 1.4-.1.8-1.8-.8-2.9-.6-2.6.7.2.6.1.7-.3.6-.7 0-2.2.3-2.2.6 0 .2.1.2.3.1.4-.2 2 .1 2 .4 0 .2-.2.3-.6.3l-.6.2c0 .2.2.3.5.3.5 0 .6.1.4.6-.2.8.3 1.5 1 1.5 1.1 0 2.2.7 2.6 1.6.3 1 1 1 .8 0 0-.4.1-.5.7-.5.5 0 .6 0 .5.4l-.2.7-.4.2c-.4 0-.5.2-.2 1 .2.4.5.5.7 0zm.2-2.8c0-.2.2-.3.4-.3s.3.1.2.3l-.4.2-.2-.2zm-2.4-.7c-.3-.4-.9-.7-1.2-.8-1-.3-.7-1 .4-1 1 0 1.7.7 2 1.7.2 1-.3 1-1.2 0zm1-1.3c-.1-.3-.7-.9-1.3-1.2-1-.6-1.2-1.1-.4-1.3 1-.2 3 1.9 2.6 2.8-.2.5-.4.4-.8-.3zm-160 4.4c1-.7 1.6-1.4 1.6-2.2 0-.6.3-1.9.9-4 .8-2.5.7-3-.4-5.7-1.5-3.8-2.2-5.3-2.6-5.5-.5-.2-.6-.1-.3 1.2.2 1.3 0 4-.5 5l-1 1.6-1 1.5c-.7 1.1-1.8 2-2.7 2-1.5 0-1.4 1 .3 4.6.4.7.7 1 1.6 1.2l1.6.5c.9.4 1.8.3 2.6-.2zm102.7-.2c1-.9 1.5-1.6 1.5-2.4 0-.7-.4-.8-.6-.2-.2.5-.7.4-.7-.2 0-.7-.4-.7-.6 0-.2 1-.8.4-.6-.5v-.8c-.4 0-2 2-2 2.6 0 .2.2.2.8 0 1.2-.4 1.3 0 .3.5l-.9.6 1 .5 1 .6.8-.7zm-37-.1c.8-.4 1-1.3.5-1.6-.4-.2-.4-.4.2-2.6l.5-2.6c-.1-.6 0-1.2.4-1.2s.7-1.7.8-4.7c0-1 .4-2.5.6-3.4l.6-1.6-.6-1.6c-.6-1.7-1.2-4.7-1.5-6.8l-.1-1.4-2.3 1.5c-1.8 1.2-2.4 1.6-2.4 2.1s0 .6.6.3l1.7-1.3c1.1-1.1 1.7-1.3 1.7-.7 0 .4-1.6 1.7-2.8 2.4-.9.4-.9.4-.5 1.3.1.5.6 1.3 1 1.9.5.6.7 1.2.6 1.6-.1.4.1 1.3.8 2.6.9 2 1 2.1.7 3.6l-1 3.8-1 4c-.3 1.5-.3 1.6.1 1.7.6 0 .7.8 0 1-.2.1-.5 0-.8-.5l-.5-.6-.4.8c-.3.7-.5 1.7-.5 2.3 0 .3 2.7 0 3.5-.3zm.6-19.4c-.5-.6-.4-1.1.3-1.5.5-.3.6-.2.6 0 0 .3-.1.5-.3.6-.2.1-.1.3.2.5.2.2.4.5.2.7-.2.4-.5.4-1-.3zm-2.5-2.5c0-.2.4-.6 1-1 1.5-.9 2-.5.7.5-.8.7-1.7.9-1.7.5zm-28 19.8c.2-1.6.2-2-.2-2.4-.4-.5-.4-.6 0-2.2.3-1.1.3-1.7.1-1.9-.4-.4-.5-.2-.6 1.5 0 1-.2 1.6-.4 1.7-.2 0-.3-.1-.3-.6s-.2-.6-.5-.6a1 1 0 0 1-.8-.5c-.3-.4-.3-.3-.2.3.1.5.4 1 .7 1.3a5.3 5.3 0 0 1 1.6 4.1c0 2.3.5 1.8.7-.7zm89.4.7c.8-.2 1.1-.7 1.1-2.2V102l-1.4.5c-1 .4-1.2.4-2 0-.6-.3-1-.4-1.2-.3l-.1 1.4c0 1 .2 1.3.8 1.8.7.6 1 .7 2.8.3zm-14.4-.3c1.2-1 2.2-2.2 2-2.6l-.3-1c-.1-.6 0-.8.6-.9 1-.2 1.2 0 .5.5-.6.5-.3.8.5.5 1-.2 1.2-.8 1.3-2.9 0-1.7 0-1.8-.5-2-1-.2-2.2-1.5-2.5-2.8-.2-.9-.5-1.3-1.1-1.6-1-.5-2.9-.3-3.5.3l-.6.4c-.8 0-5 5.7-5 6.8 0 1 .5 2 1 2l1 .5c.2.3.8.7 1.3 1 .5.1 1 .4 1.1.6.2.2 3 1.5 3.5 1.5l.7-.3zm-3.3-2c-1-.6-1.3-.9-1.2-1.5 0-1 0-1 1-.7.8.2.9.7 0 .7-.6 0-.2.6.5.8 1 .3 1.9 0 1.8-.5 0-.3 0-.4.4-.4.7 0 .7.4.1 1-.5.7-.2 1 .5.5.3-.4.7-.5 1-.3.7.2.6.4-.7.8-1.3.5-1.8.4-3.4-.4zm-3.6-2.2c-.4-.2-.4-.3-.2-.6.4-.5 1 0 1 .5s-.2.5-.8.1zm7-.7c0-.2.2-.3.5-.3s.5.1.4.3l-.6.2-.4-.2zm-7-.9c-.6-.4-.6-.5 0-.5s1.3.7 1 1l-1-.5zm10.4-.2c0-.4 0-.5.2-.3v.6c-.1.2-.2 0-.2-.3zm-7.2 0c.2-.3.4-.3.6 0 .3.2.2.3-.3.3s-.6-.1-.3-.4zm2 0c-.2-.3.9-.9 1.2-.7.2.1.2.3.2.4-.2.3-1.2.5-1.4.3zm3-1c0-.2.3-.3.5-.3s.4 0 .4.2l-.4.4c-.3 0-.4 0-.4-.2zm-6.7-.3c-.3-.5.2-.7.6-.2.4.4.4.4 0 .4-.2 0-.5 0-.6-.2zm3.9-.5c0-.4.8-1.1 1-1 .2.1.1.4-.1.7-.5.5-1 .7-1 .3zm-2.7-1.2c-.5-.7.3-.8.9-.2l.6.6h-.6c-.3 0-.7-.2-.9-.4zm1.3-1.3c0-.1.2-.2.3 0l.3.2-.3.1c-.1 0-.3-.1-.3-.3zM180 105c.3-.5 1.2-3.5 1.2-4.3 0-.8-.2-.9-2.4-1.1-1-.1-2-.3-2.3-.5-.5-.3-.5-.4 0-1.2.4-.8.4-1.3-.1-1.3-.2 0-.6.5-1 1-.7 1.3-.6 1.2-4 .7-.8-.2-.8-.1-.8.5 0 .3.1.8.3 1 .2.1.5.7.6 1.2.4 2.4 1 3.1 1.6 2.4.2-.2.4-.1.5.3.3.8 2.4 1.2 3 .5.3-.3.4-.2.5.2 0 .4.3.7.6.7.9.3 2 .2 2.3-.1zm-2.8-1.3c-.2-.1-.3-.3-.2-.4.2-.2 1.5.1 1.5.4 0 .4-.8.4-1.3 0zm-2.6-1.2c-.5 0-.8-.3-.8-.4.2-.5 1.8-.4 2.3.2.4.4.4.4-1.5.2zm2.2-1.3c-.5-.3-.5-.4.3-.4 1 0 1.7.2 1.7.6 0 .4-1.5.2-2-.2zm-4.8-.4c-.2-.8.2-1.1 1.3-1 1.2.3 1.5.8.5.8-.5 0-1 .1-1 .4-.2.5-.6.4-.8-.2zm-17.8 3.7c.3-.7.2-1.2-.7-2.2-.6-.6-.8-.7-1-.4-.3.5-.3.7.3 2 .5 1.3 1 1.4 1.4.6zm-35.4-3.8c.5-.6.6-.3-.3-3.7-.8-2.8-1.5-8-1.2-8.8.3-.7-.2-2.3-1-3-.6-.6-.9-1.2-1.2-2.7l-.3-2.8c.2-1-.2-1.4-1.1-1.4-.5 0-.6.1-.3.3.2.1.3.3.2.5-.3.4-1 .4-1 0 .2-.3-.3-.4-1.5-.4h-3.7c-.5 0-1.1-.2-1.4-.5-.5-.5-.7-.3-.4.5.1.3.5.4 1.1.4 1 0 1.1.2.6.8-.3.2-.2.3 0 .3.3 0 .6.2.8.4.2.2.7.4 1.2.4.7.1.8.2.8.8 0 .6 0 .8.4.8.3 0 .5.1.5.4 0 .2.3.4.5.4.4 0 .5 0 .4.5 0 .3 0 .7.2.9.1.2.2.5.1.8 0 .2 0 .5.4.7.4.2.5.4.4.8 0 .3 0 .5.4.6.3.1.5.4.5.6 0 .2.2.3.3.3.2 0 .3.2.3.4s.3.6.7.9c.6.4.6.6.3 1.2-.1.5-.2.9 0 1.1.5.6.9 2.9 1 5.6l.2 3c.3.4 1.6.3 2.1-.1zm-9.2-21c.5-.4 1.2-.4 1.2 0 0 .2-.7.5-1.3.5-.4 0-.4 0 0-.4zm60.2 18.6c.3-.8.2-.7 3-1.3 1.2-.3 2.3-.7 2.6-.9.2-.1.6-.3 1-.3.5 0 .5 0 1.2-2.8.4-1.5.4-1.8 0-2-.5-.4-.6-.3-1.3 1.2-.8 1.7-1.5 2.4-1.5 1.5 0-.7.8-2.1 1.3-2.1 1 0 .4-3.7-.7-4.5-1.9-1.2-3.5-3.5-3.5-5 0-.7.8-1.4 1.3-1.2.2.2 1 .3 1.5.4 1 .2 1.2.2 1.6-.6.2-.4.7-1 1-1.1.7-.3.8-.6.7-1.8-.1-1.4 1.4-1.6 2.3-.4.5.5.8.5 1 0 0-.3 0-.6-.3-.7-.3-.2-.4-.6-.2-2.7l-.1-4c-1.8-10.7-1.9-10.8-5.3-14.5a34.3 34.3 0 0 0-3-3c-1.3-.7-4.5-1.3-7.3-1.3-2 0-3 0-3-.2.1-.2.6-.4 1-.5.5 0 1-.3 1.3-.5.3-.3.5-.3.5 0 .1.2.7.3 1.5.3 2.8 0 9.2 2.7 9.2 3.9 0 .2.3.6.7 1 .8.6 2.4 3 2.6 4l.4.6c.2 0 .3-1.6.3-3.9 0-3.6.3-11.1.7-15.6 0-1.2 0-2-.2-2-.5-.3-6-.8-9.4-.7a99 99 0 0 1-7.5-.4l-18.8-1.3c-1.2 0-1.5-.1-1.6-.5 0-.5 0-.5 1-.4l7.6.6 8.8.6a50.8 50.8 0 0 0 9-.2 435.7 435.7 0 0 1-18.5-1.5c-5-.2-11.3-.6-14-1-4-.3-4-.3-7.1 0-4.5.6-8.3 1.5-10.5 2.7a102 102 0 0 0-11.4 7.4l-1 .9 1.6-.2a316 316 0 0 0 9.8-1c2.4 0 2.8-.1 3.6-1.2.4-.6 1.2-1.3 2.2-1.8 8.8-4.5 9-4.5 13.7-5.4 2.5-.4 3-.4 3.3 0 .5.4.6.4-3.7 1.2-3.6.7-7 1.9-8.9 3-1.7 1-1.6 1.2.4.4 2.8-1 3.5-1.2 5.3-1 1.5.1 2 .3 3.1 1.2a14 14 0 0 1 2.3 2.3l1 1.3.1 5a430.1 430.1 0 0 1 .6 18.7c.2 2.3 0 2.2 2.6 2.5 1 .2 1.3.3 1.3.8 0 .4-.1.5-1.4.4-1.2 0-1.6 0-2.2.5-.8.6-.8.6-2 .2l-1.7-.5c-.3 0-.5-.2-.5-.4 0-.6 1-1 2.1-.8l1 .1-1-.3c-1.7-.6-2.3-.5-2.3 0 0 .8-.5 1-1.1.5-.6-.5-.6-.5-.4.5.5 3.3.5 4.1 0 4.1-.3 0-.4-.5-.5-2.2v-2.9c0-.5-.1-.8-1.1-1.6-.7-.5-1.3-.9-1.4-.7l.5 2 1 4.1c.6 3.7.8 4.2 1.5 4.2.3 0 .8.2 1 .4.4.6-.3.8-1.4.5l-1-.2-.5-2.9c-1-4.6-2.6-9.8-3.4-10.5-.2-.2-2-.3-4.8-.4-3.9-.1-4.5-.1-4.8.3l-.6.4c-.6 0-2 1.2-2 1.6l.4 2.3c.2 1.5 1.6 6.2 2 6.6.2.2 5.7.7 5.9.5l-.1-.5c-.5-.6-2.3-7-2-7.2.4-.3.6 0 1 1.7l1 3.7c.5 1.7.6 1.9 1.3 1.9h.7l-.4-1.1c-.6-1.8-1.4-5-1.4-5.7 0-.9.5-.8.7.1a220.2 220.2 0 0 0 1.5 6.3c.1.6 1.4 1.4 2.1 1.4.5 0 .8-.1.9-.5.2-.7.6-.5 1.2.6.4.7.4 1.1.3 1.3-.4.4-4-.4-4.5-1-.4-.6-.5-.5-.7.7-.3 1.7-.4 1.6 9 3.3 3 .5 3.4.5 4-.3l.5-.7 1 .8c.4.5 1 .9 1.1.9.6 0 1.1-.9 1.1-2l.4-2.5c.3-.8.4-1.9.4-2.3 0-.6.2-.9.4-.9.3 0 .4.3.4.8 0 .6.1.7.4.6.3 0 .4 0 .4.4 0 .3.1.6.3.6l.3-4.7c.1-2.6.3-5.2.5-5.8 1.4-5.1 3-8.8 3.7-8.6.3 0 .6-.3 1-.8 1.1-2.4 6.6-5.8 8.2-5.1.4.1.4.2 0 .5a18.4 18.4 0 0 0-9 6.2c-.5 0-1.2 1.3-1.4 2.5l-1.4 5.7c-.7 2.3-.7 3.3-.3 3.1.2 0 .7-1.4 1-3 1-3.8 3.1-7.8 5.6-10.3 1.3-1.5 2-2 2.4-2 1.6 0 1.2.7-1.8 2.9a7.8 7.8 0 0 0-3 3.5c-1 2-1 2.1-.5 2.4.7.4.6 1-.1 1-1.1 0-2 2.3-2.7 6.9a9.7 9.7 0 0 0-.1 2.4c0 .2 2.3.5 6.4 1 2.1.1 2.6.3 2.6.7 0 .5-1 .5-4.8 0-3-.4-3-.4-3.8.2-.7.5-.7.6-.6 1.8.4 3.6.5 4.5.2 4.5-.6 0-.8-2.1-.8-6.6 0-3.4-.1-4.5-.3-4.3a39 39 0 0 0 0 10.2l.5 1.6c.1.1.6-.1 1-.5 1.5-1.2 2.1-.7 1.5 1.4a12 12 0 0 0 .3 6.3c1.3 2 2.7 3.6 4 4.6L158 96c.6.5 3.9 2.1 5 2.4.8.2 3.8.5 5.7.6.7 0 .9 0 1-.6zm-4-.8-.5-.4h3l-.6.4a3 3 0 0 1-1 .4 3 3 0 0 1-.9-.4zm6-1c0-.2 1.7-1 1.8-.9.2.2-1.2 1.3-1.5 1.3l-.2-.3zm-1.2-.3.3-.6c.2-.4.1-.7-.3-1.6-.7-1.3-2.2-6.1-2.7-8.3-.2-1.2-.4-1.5-.9-1.7-.5-.1-.5-.1 0-.4.2-.1.4-.6.4-.9 0-2 1-2 1.1 0a43.3 43.3 0 0 0 3.5 12.2c.1.8 0 1-.5 1.2-.8.3-1 .3-1 0zm-10.4-.4c-1.8-.5-3.8-2-5-4l-1.7-2.2c-.5-.5-1-1.2-1-1.5 0-.5.4-.1 1.6 1.3.8 1 1.5 1.9 1.7 1.9.7 0 5.8-6.5 5.8-7.4 0-.2-.8-.3-2.5-.1-2.2.1-2.6 0-2.6-.3 0-.5.8-.7 2.4-.8.8 0 1.2-.2 1.5-.6.2-.3.5-.6.7-.6.4 0 1.3-1 1.6-1.8 0-.3.3-.6.5-.6.5 0 .2.8-.6 1.6s-.8 1.3 0 1.3c.1 0 .4-.2.6-.5.4-.6.8-.7.8-.1 0 .4-2.2 3.9-5 7.8-1 1.6-2 3-2 3.2 0 .3 2.5 2.3 4.2 3.3.6.4.1.4-1 0zm2.8 0c-.1-.3.2-4.1.7-7.2.6-3.3 1.8-6.5 2.6-6.8.4-.1.4.6 0 1.6-.6 1-1.8 7-2 9.8-.3 2-.9 3.3-1.3 2.6zm10.7-7.7.3-.2c.2 0 .3 0 .3.2s-.1.3-.3.3a.3.3 0 0 1-.3-.3zM151.5 86c0-.8.7-1.5 2.2-2.3l3-1.7c3.5-2.2 5.7-3.6 6-3.6.9 0 0 .9-1.9 2-2.6 1.4-6.6 4-7.5 5-.6.6-1.8 1-1.8.6zm.8-3.6c0-.1.1-.3.3-.3l.2.3c0 .1 0 .3-.2.3a.3.3 0 0 1-.3-.3zm1.6-.3.2-.2c.2 0 .4 0 .5.2 0 .2 0 .3-.3.3-.2 0-.4-.1-.4-.3zm-1.5-1.6c0-.2.9-.5 1.9-.7 1-.1 2.3-.5 2.8-.7 1-.4 2.7-.3 2.5.2 0 .2-.9.4-1.9.6l-3.4.6c-2 .4-2 .4-2 0zm17.5-.7c-.3-.3-.4-.7-.3-.8.3-.2 1 .6 1 1-.1.2-.4.1-.7-.2zm-30.4-.3c-.3-.4.3-.6.6-.1.3.3.3.4 0 .4s-.5-.2-.6-.3zM167 79l-1-.2c-.9 0-1-.1-1.4-2.6-.1-.7-.3-1-.7-1-.7 0-.6-.3.5-1.2 1-1 1.6-1 1.1 0-.1.2-.1.6 0 .8 0 .4.2.4.6 0 .6-.5 1-.2.6.5-.3.4-.3.5.2.8.4.2.6.2 1.1-.3.9-.8 1-.7 1 .5 0 1.1.3 1.4.6.5 0-.2.3-.5.6-.5.6 0 .3 1.3-.4 2-.3.1-.6.5-.6.6 0 .4-1.9.4-2.2.1zm-29.6-1.6c-.2-.4-.5-1-.5-1.5-.2-.7-.1-1 .5-1.4.8-.6 2-.7 4.5-.3 1.4.3 2.7 1 2.7 1.4 0 .2-.5.2-4-.3-1-.1-1.8-.2-2-.1-.4.2-.4 1.2 0 1.8.4.4.4.5 0 .8-.6.5-.8.4-1.2-.4zm35.8.5c0-.1.2-.3.4-.3s.4.2.4.3c0 .1-.2.3-.4.3s-.4-.2-.4-.3zm-1.7-.7c-.3-.3-.1-.6.4-.6.3 0 .5.2.5.4 0 .4-.5.5-.9.2zm-9.9-1.2c.2-.5 1-.6 1-.1 0 .2-.2.4-.5.4s-.5-.1-.5-.3zm11-.2c-.4-.6.4-.8 2.6-.8 2 0 2.9.3 2.4.7-.4.4-4.8.4-5 0zm6-.3.1-.6c.2-.2.3-1 .2-1.8l-.1-1.6-.5-.2c-.8 0-1-.6-.4-.7.8-.2.8-1.6 0-1.8-.6-.2-.6-.8 0-1.2.5-.5.4-1-.2-3.7-.7-3-1.5-4.6-2.3-4.7-.5 0-.7.3-1.4 2.5a55 55 0 0 1-3.4 8.1h.4c.5-.2.5.1 0 1-.5.7-.5 1.5-.2 1.5l1.4-.7c1-.6 1-.7.5-.8l-.6-.4c0-.4 1-.7 1.5-.4h1.2c1-.2.5.7-1 1.7a19.6 19.6 0 0 1-3.6 2.2s-.2-.4-.1-.9c0-1.1-.2-1.5-.4-.5l-.4.6c-.5 0-.6-.5-.2-1.5.3-.5 1-2.7 1.7-4.8.7-2.1 1.8-5 2.6-6.6 1.2-2.6 1.2-2.8.9-3.4-.6-1-3.2-3-4.4-3.4-.8-.3-1-.2-.8 0l.1.8c0 .2.2.1.3-.1.5-.8.6 0 .2 1.5l-.3 1.5-.1-1.3c-.1-1.2-.2-1-.7 2.3a136.9 136.9 0 0 0-1.5 8.8 17 17 0 0 0-.4 2.3c-.2 2.2-.6 2.2-.6 0 0-3 .8-8.8 1.7-12.1.2-.8.4-2 .4-2.7 0-1.3-.1-1.5-1-1.4-.5 0-1.2-.5-1-.8l1.6-.2c3 0 7.3 3 8.8 6a30 30 0 0 1 3.1 15.6c-.1 1.5-.7 2.5-1 2zm-55-.8c-.3-.3-2-5.4-2-5.9l.4-.2c.2 0 .4.2.4.4l.8 3c.8 2.5 1 3.4.4 2.7zm6.2-1a36 36 0 0 1-1.7-6.2c.3-.4.7-.1.9.8a653.8 653.8 0 0 1 1.3 4.8c.3.6.3 1 .1 1.1-.2.3-.4.2-.6-.4zm-9.2-1.2c-.6-1.6-.7-2.8-.3-2.8l.7 2c.7 2.2.7 2.2.4 2.2-.1 0-.5-.6-.8-1.4zm39.7-.5c-1.1-1.2-1.4-1.8-.8-1.8.5 0 2.6 2.2 2.6 2.6 0 .6-.6.3-1.8-.8zm-8.2-1c-1-.4-.5-.6 2.2-.7 2.2-.1 2.5 0 2.5.3s-.2.4-.7.4c-.4 0-1.3 0-2 .2-.8 0-1.7 0-2-.2zm11.6-.5a159.9 159.9 0 0 0-2.6-7.2c-1-2.8-1.9-6.2-1.5-6.5.3-.3.6.5 1 2 .3 2.1 1.2 4.2 1.9 5 .6.9 2.6 6.6 2.4 7-.3.4-1 .3-1.2-.3zm-1.8 0c0-.2.3-.4.6-.5.3 0 .4 0 .3.3 0 .2-.3.4-.6.4s-.4 0-.3-.2zm6 0c-.2-.1-.1-.3 0-.4.4-.3.6 0 .3.4-.1.2-.3.2-.4 0zm-11.2-2c-2.1-1.6-3-2.3-3.3-3.3-.4-1.2 0-1.2 1.1 0l2.4 2c1.2.9 2 1.8 2 2.3 0 .4-.5.2-2.2-1zm-2-4.7c-1-.9-1.3-1.5-.9-1.5.3 0 2.2 2 2.2 2.2 0 .4-.4.1-1.4-.7zm0-2.5c0-.3.2-.4.6-.2l1 .1.2.3c0 .1-.4.3-.9.3-.7 0-1-.2-1-.5zm-10.2-.6c-.3-.4-.1-.5 1-.5 1.6-.1 1.7 0 1.1.4-.6.4-1.9.5-2.1 0zm18.4 0c0-.1.2-.3.4-.3s.4.2.4.3c0 .1-.2.3-.4.3s-.4-.2-.4-.3zm-15.2-2.8c-.1-1.6 0-1.9.4-1.6.3.2.3 2.7 0 3-.1 0-.3-.6-.4-1.4zm13.4-1.6c-.4-.8-.4-2.6 0-3 1.1-.8 4.4-1.4 4.4-.8 0 .3-.7.6-2.4 1l-1.2.4-.2 1.5c-.2 1.3-.3 1.4-.6.9zm9.7 0c0-.2.2-.4.5-.3.6.1.5.6 0 .7-.3 0-.5-.1-.5-.4zM164 55c-.5-.3-.5-.2 1-.4 1.3 0 2.1 0 2.1.5 0 .3-2.6.3-3.1 0zm-17.4-1.5c-2.1-.3-3.4-.6-3.5-.8-.1-.4 1.6-.4 5.2 0 1.7.2 2.7.5 2.7.7 0 .2-.7.7-.9.6l-3.5-.5zm27.7-2.7c0-.3 0-.5.2-.4.2.1.3.4.3.6 0 .2-.1.3-.3.3-.1 0-.2-.2-.2-.5zm-20.7-.4c-.3-.2.2-1.8.5-1.9.4-.1.5.7.2 1.5-.2.5-.4.7-.7.4zm18 0c0-.6.3-1.2.6-1.2.1 0 .2.3.2.7 0 .4-.1.6-.4.6-.2 0-.4 0-.4-.2zm-24.3-.2 1-.8c.8-.5 1.1-.9 1.1-1.4 0-.9.6-.7.7.2.1.5 0 .9-.8 1.4-.7.6-2 1-2 .6zm9.4-.5c-.2-.5.3-1.8.6-1.8s.4 1 .1 1.7c-.2.5-.6.5-.7 0zm3.4 0c-.2-.5.3-1.3.7-1.3.3 0 0 1-.3 1.5-.1.1-.3 0-.4-.2zm4.3-2.2a16 16 0 0 1 1.7-5.3v.7c-.1.6 0 .6 1.1.4h1.3c0 .4-1.8 1.2-2.3 1.1-.4 0-.8.6-1.4 2.7-.1.4-.3.5-.4.4zm-11.3-.5c-.4-.2-.7-.6-.7-.9-.1-.7 0-.7.9 0 .8.6 1.4.4 3-1l1.4-1.3.5.6c.5.7.7 3 .2 3-.4 0-.8-1-.8-1.7 0-.9-.2-.9-1.2 0-1.2 1.2-2.5 1.7-3.3 1.3zm7.3 0c-.4-.3-.5-.7-.4-1.7 0-.7.2-1.4.4-1.7.5-.5 2.2-1.4 2.4-1.2l-.2 1c-.2.6-.4.8-1 .8-1 0-1 .2-.9 1.5.1.8.2 1 .5 1 .3-.1.3-.4.2-1-.1-.8-.1-.8.3-.5.5.5.4 1.3-.3 1.8-.4.3-.6.3-1 0zm13 0c-.5-.2-.6-2.1-.2-2.8.2-.3.3-.1.3.7 0 1.4.4 1.7.8.6.3-.8.7-1 1.3-.4.2.2.4.1.8-.4.3-.4.7-.8 1-.8.4 0 .4.5 0 .7-.3 0-.6.6-.8 1.2-.3 1-.7 1.3-1.2.7-.2-.2-.4-.1-.6.3-.4.6-.7.7-1.4.3zm-6-1a4 4 0 0 1-.5-.9c0-.3.8 0 1 .4.3.3.7.5 1 .6.8.1.7.7-.2.7-.5 0-1-.3-1.3-.8zm-23 0c-.5-.2-1-.9-.7-1.3.1-.2.5 0 .8.3.4.3.8.5 1 .4.6-.2 2.3-2.9 2.9-4.4l.7-1.9c.2-.4.3-.8.2-.9 0-.1-.9 0-1.8.3-1 .2-1.7.3-1.9.2-.9-.9 4.8-1.5 7.2-.8.8.3 1.7.4 2 .3.8-.2.9.3.2.7a1 1 0 0 1-1 0l-1.7-.2-1.7-.1c-.4 0-.5.1-.7.7-.2 1-1.2 3-3.3 6.2-.5.8-1 1-2.1.6zm26.2-.4c-.4-.9-.4-1.9 0-2 .4-.3 1.6.6 1.4 1-.2.2-.2.2-.3 0-.2-.8-.8-.4-.7.4l.4.8c.1 0 .2.1.2.3 0 .5-.8.2-1-.5zm-15.4-2c0-.6.6-.5.8.2 0 .2-.1.4-.4.4-.2 0-.4-.2-.4-.6zm1.6.2c-.2-.1 0-.8.4-2.5.1-.3.2-.3.4 0 .2.1.2.5 0 1.2-.4 1.1-.6 1.5-.8 1.3zm2-1.8a4 4 0 0 0-.5-2c-.5-.9-.2-1.3.4-.6.5.6.8 2.2.6 3.2-.2 1.2-.5 1-.5-.6zm7.5-.7c0-.5.7-1.5 1-1.3.2.2-.4 1.8-.7 1.8-.2 0-.3-.2-.3-.5zm-6.6-3h.3l.2.2-.2.1c-.2 0-.3 0-.3-.2zM70.2 95.8l-.2-3.5c0-1.2-.5.3-.5 1.5 0 .9-.1 1.4-.4 1.5-.2 0-.3.3-.1.8.3 1.2 1 2.7 1.2 2.7v-3zm12 2.6c1.6-.1 2.8-.3 3.4-.6.7-.3 1-.4 1.4-.1.3.2.7.2 1 0 .3-.1.6 0 1 .2.5.3.7.3 1.1.1a5 5 0 0 1 2-.2c.8 0 1.6-.1 2.1-.4.5-.2 1.2-.4 1.7-.4s1-.1 1.3-.3c.3 0 .9-.4 1.4-.6 1.1-.6 1.4-.6 1.2 0-.2.6 0 .6.7.5.8 0 .9-.1 1-1.2.2-.7.2-1.7 0-2.3-.3-1.3-1.3-4.3-1.7-5-.5-1.1-2.6-4.1-2.8-4.1l-2.6 1L92 86l-4.1.1-4.7.3c-.3.1-1 .7-1.6 1.3-.5.6-1.4 1.4-1.9 1.7l-.9.7-.1 4v4.4c0 .1.3.2.5 0a18 18 0 0 1 3-.2zm2.3-3c-.2-.3.2-.4 3-.8l3.6-.6c1.2-.2 1.8-.2 2 0 .4.4-.2.5-3.4.8-1.4.2-3 .4-3.5.6-1.2.3-1.5.3-1.7 0zm-2.6-2.4c0-.3.9-.5 4-1 2.9-.4 3.4-.4 3.4 0 0 .3-.6.4-3.4.7a96.6 96.6 0 0 0-4 .3zm8.8-1.9c-.4-.7 0-.8 1 0l.9.6h-.8c-.6 0-1-.2-1.1-.6zm5 0c0-.2 1.6-.5 2-.3v.3c-.2.4-2 .4-2 0zm-15.4-.3c0-.4 2.1-.7 4.4-.7 1.5 0 1.5.4 0 .6-3.2.4-4.4.4-4.4 0zm4.9-2.5h.9l-.5.1c-.5 0-.7 0-.4-.1zm2 0c0-.2.3-.3.7-.3.3 0 .6 0 .6.2s-.3.3-.6.3c-.4 0-.7-.1-.7-.3zm7.6-1.7 1-.2c.4 0 .6 0 .6.2-.1.2-.6.3-1 .3-.5 0-.7-.1-.6-.3zm90.4 10.6c.2-.7.2-.7-.9.3-.5.4-.7.9-.6 1 .2.4 1.3-.6 1.5-1.3zm-6.4.6c0-.2-.1-.4-.3-.5-.1 0-.3 0-.3.3 0 .2.2.4.3.4.2 0 .3-.1.3-.2zM72 95.9c-.3-.3-.5.1-.2.6.2.5.2.5.3 0v-.6zm83.2.4c0-.3-.8-.3-1.3 0-.3.2-.2.3.5.3.4 0 .8-.1.8-.3zm-17.1-.2a1 1 0 0 0-.7 0c-.2.1 0 .2.4.2.3 0 .5 0 .3-.2zm46.3-.6c.1-.4 0-.5-.2-.2l-.4.7c0 .5.4.2.6-.5zm-30.1 0s0-.5-.2-.8a25 25 0 0 0-3.2-3.9c-.2 0-1.2 1-1.2 1.4 0 .8.6 2.3 1.2 3 .7.8.8.9 2 .7.6 0 1.2-.2 1.4-.4zm-80.7 0-.1-.4c-.2 0-.3 0-.3.3 0 .4.2.5.4.1zM134 95c-.4-.2-.8-.2-1.3 0-.7.2-.6.2.6.2 1.1 0 1.2 0 .7-.2zm7.5-1.8c.2-.6-.7-2.5-.9-2 0 .4-.8.5-.8.1l.4-.5c.4-.2.4-.4.2-.5-1-.7-1.2-2.7-.5-4.7.2-.6.4-1.6.3-2.2 0-1-.1-1-1.3-1-1-.1-1.3 0-1.7.6a4 4 0 0 1-1.2 1c-1.2.7-3 2.3-3.1 3-.2.4-.2.4-.8-.2a14 14 0 0 1-1.6-2.6c-1-2-1.7-2.6-1.4-1.2a15.1 15.1 0 0 0 8 9.2c.6.5 3 1.5 3.7 1.5.3 0 .6-.2.7-.5zm-5.4-3.7c0-.7.8-2.4 1-2.4l.6-.8c.3-.8.8-1.1.8-.6l-1 2.3c-.9 2-1.4 2.5-1.4 1.5zm-68.4 2.4c-.1-.7-.3-1.4-.5-1.5-.2-.3-.1 1 .2 2.3.3 1 .5.4.3-.8zm5.7-.2c.5-1 .4-1-.4-.8-.4.2-.6 1.7-.2 1.7.1 0 .4-.4.6-1zm-4.5-1c0-.5-.2-.7-.4-.7-.5 0-.5 0-.3 1 .2.7.7.5.7-.4zm80 .4c.7-.3 1.6-3 1.2-3.9-.3-.7-.2-2.5.2-3.3.2-.3.3-.7.3-1 0-.3 0-.3-1 .2-.7.4-1.3.5-2.9.5l-2.6.1c-.4.1-.8 0-1.5-.7l-1-1-.1.7c-.1.4 0 1 .3 1.8.5 1 .3 1.9-.5 2-1.7 0-1.1 3 .8 4.2.6.3 1.4.5 3.5.5l3.2-.1zm-4.6-1.4c0-.2-.1-.2-.3-.1-.3.2-.9-.9-.7-1.4.1-.2.3-.3.5-.2.2 0 .5-.3.8-1 .3-.5.6-1 .7-.9.3.2.2 1.8-.1 3.3-.1.6-1 .8-1 .3zm1.7-.4.4-1.4c.2-.3.3-1 .3-1.4 0-.5 0-.7.2-.6.6.4 0 3.8-.7 4-.3 0-.3 0-.2-.6zm1.7-.4.2-.4c.2 0 .2-.4.1-.8 0-.3 0-.6.2-.6.5 0 .6.5.3 1.3-.4.7-.8 1-.8.5zm-110.2.4-.9-.7c-.4-.2-.5-.3-.3-.5v-1.3c-.4-1.5-1.3-1.8-1.8-.7-.4 1-.4 1.6.2 2 .4.4.4.5-.1-1-.1-.2 0-.3.2-.3.5 0 .8.7.6 1.3 0 .3.2.6.9 1 1.2.7 1.4.7 1.2.2zM182 87.7c1-.5 1.3-.8 1.3-1.4 0-.7.4-1.6.6-1.3l.3.8c.3.8.3.8.7.4l.7-.8c.4-.5-.3-2-1-2.2-.6-.2-.7-.5-.3-.7.2 0 .2-.4 0-1-.3-.6-.4-1.2-.3-1.4 0-.2-.1-.8-.4-1.3-.4-.9-.4-.9-.7-.2-.2.4-.2.7 0 1 .6 1 .4 1.4-.4 1.4s-1-.5-1-1.8c0-.6-.7-1-1.4-.7-.5.1-.5.2.1 1.2.5.7.7 1.3.6 1.9 0 1.2-.6 1.1-1 0-.6-1.3-1-1.4-2-.5-.4.6-.5.9-.4 1.6 0 .6 0 .9-.4 1-.5.2-1.4-.5-1.4-1 0-.3-.3-.4-1-.4-.6 0-1 .2-1.1.6-.3.5-.3.7.7 1.4.5.5 1 .8 1.2.8.3-.2 1.8.4 1.8.8 0 .2.2.4.6.5.5.2.5.2 0 .5-.3.3-.3.4.3.5.6.2 1 .7.4.7l-.3.2c0 .5 2.5 0 3.8-.6zm-1.9 0c-.4-.4.4-1.1 1.7-1.4 1.3-.2 1.2.3-.3 1.2-.9.5-1.1.6-1.4.3zm-.5-2.2c0-.9 0-.9 2.1-1 .7 0 1.3.1 1.3.2 0 .3-2.3 1.6-2.8 1.6-.4 0-.6-.2-.6-.8zm0-1.7c0-.4 0-.7.2-.7s.3.2.3.4v.6l-.3.3c-.1 0-.2-.2-.2-.6zM80 87.6c.2-.5 0-.6-.4-.1-.3.2-.3.4-.1.4.2 0 .4-.2.5-.3zm56.7-5.2-.6-.4c-.6-.2-1-.1-1.5.2-.7.3-.7.3-.7-.1 0-.8-2.6-1-3.5-.2 0 0 0 .4.3.8.2.5.4.6.7.5l1.3-.4.9-.2-.6.6c-.4.4-.8.7-1 .7-.4 0-.4.9 0 1.6.2.5.4.4 2.4-1.3l2.3-1.8zM82.3 84l-.1-.5c-.2 0-.3.3-.3.5l.1.6.3-.6zm6.4-2.7c1.1-2.3 1.7-3 1.7-1.8l-.7 1.9c-1.4 3-.5 2.9 1-.2.7-1.2 1.3-2.1 1.5-2.2.5 0 .4.7-.6 2.7-.5 1-.8 1.8-.7 1.8.5 0 1.9-1.7 2.7-3.3a7 7 0 0 1 1-1.7c.8 0 .3 1.5-.8 3.3-.3.4-.5.8-.4.9.3.2 2-1.7 2.5-3 .2-.5.6-1 .8-1 .5 0 .3 1-.5 2.2-.4.6-.7 1.2-.6 1.3.3.2 1.2-1 2.1-2.8.6-1.1 1-2 1.2-2.1 0 0 .3 0 .5.3.3.4.3 1.3-.1 2.3-.2.5-.1.5.4 0 .9-1 1.1-2.3.5-2.8-.3-.4-1.4-.4-6.4-.4-5.9 0-7.5.1-8.8 1-.5.3-.5.3 0 .6.4.2.4.5.2 1.7v1.4l.6-1.9c.2-1 .5-1.8.7-1.7.4.1.3 1.6-.5 3.7-.6 2-.6 2.4 0 1.7.5-.5 1.8-3.7 1.7-4.2 0-.2.1-.4.5-.4.7 0 .6 1.1-.5 3.3-.7 1.4-.8 1.9-.6 1.9.2 0 1-1.1 1.6-2.5zm-3.9 1c0-.6-.2-.4-.5.5-.2.8-.2.8.1.3.3-.2.4-.6.4-.8zm63 0-.2-3c-.1-1.7-.2-2.3-.4-1.9a9 9 0 0 0 0 2.2c0 1.6-.2 2-.7 1-.2-.4-.3-1.2-.1-2.6.2-2.1-.2-2.5-.7-.6-.2.9-.3 1.6-.5 4.2 0 .2-.3.4-.6.5-.8.2-.3.6 1.1.7 2 .2 2.3.1 2.2-.5zM47 82c.2-.3.2-.7 0-1.2-.2-.4-.3-1.5-.2-2.4 0-1.6 0-1.7-.6-2-.4-.3-1-.4-1.3-.4-.3 0-.5-.2-.4-.3 0-.2.6-.3 1-.3 1 0 1.3-.4.4-.6-.7-.2-.6-1 .2-1 1.4 0 1-1.2-.4-1.4-1-.1-2-1-2.6-2.2-.7-1.2-.2-4 .8-4.4.7-.2 0-.5-1-.3-1.5.2-2.8 1-2.8 1.7s.5.7.6 0c.1-.3.3-.5.5-.5s.3 1.2.3 3.7c0 2 0 3.7.2 3.8h.9c.8-.4 1.4 0 1 .4l-1.6.8-1 .7s.5 0 1-.3c.9-.4 1.6-.5 1.6-.1l-.8.6c-.8.5-1 1-.6 1.4l.6 1.8c.3 1.5.4 1.7 1 1.2a3 3 0 0 1 1-.4c1-.2 1.5.3 1.3 1.6-.1.8-.1.9.2.8.3-.1.6-.4.7-.7zm-5-8.8c-.4-1 0-1.5.4-.8.4.5.5 1.4.2 1.4-.2 0-.4-.3-.6-.6zm2.6 9.2c0-.3-.5-.9-.8-.9-.1 0-.2.2-.2.5 0 .4.1.6.5.6.3 0 .5-.1.5-.2zm-1.8-.3c0-.4-.3-.6-.7-.4-.6.2-.5.6.1.6l.6-.2zm22.9-.5c1.6-.8 2.5-1.6 2.3-2 0-.3 0-.7.2-1 .2-.4-.2-.2-1 .6-1.6 1.7-2 1.7-1.2.1l.4-.8-1 .6c-1.5 1-2.6 1.4-3.8 1.3-.7 0-1.4-.2-1.7-.3-.4-.2-.5-.1-.5.4 0 .8.4 1.1 1.6 1.5a6 6 0 0 0 4.7-.4zm18.9-2c0-.3-.2-.5-.4-.5-.3 0-.4.3-.4 1.3v1.2l.4-.8.4-1.2zm44.2 1.3c-.3-.3-.7 0-.4.3 0 .2.3.2.4.1.2 0 .2-.2 0-.4zM83 79.3c0-1 .2-2 .3-2.5.2-.8.1-.9-.4-.9s-.6.1-.4.9c0 .4 0 1.3-.2 2-.3 1.1 0 2.7.3 2.3l.4-1.8zm-32.8-.5c-.1-.3.2-.4 1.2-.5.8-.1 1.8-.4 2.6-1 1.1-.6 1.2-.8 1.2-1.6 0-1-.9-2.2-1.7-2.4-.6 0-1.6 1-3.4 3.4-1 1.4-1 1.8-.3 2.1.6.4.6.4.4 0zm76.6-.7c-.3-.6-.7-.8-2.8-1a158 158 0 0 1-6.6-.6c-4.3-.6-5.1-.6-5.1-.2 0 .2.3.4 1 .5l5.2.8c5 .8 5.7.9 7.3 1 1.2 0 1.3 0 1-.5zm-71.4-.2.8-.6c0-.5-.7-.3-1.3.4-.7.7-.6.8.5.2zm19.6-.4c.8-.2 1.2-.5.8-.5a6 6 0 0 0-1.6.4c-1.4.5-1.6.5-1.6.1 0-.3 1.2-.9 3.3-1.4 1-.3 1.6-.6 1.4-.6l-.6-.5c-.3-.5-.7-.5-1.3 0-.3.4-.9.5-1.7.5h-1.3l-.5 1.2c-.3.7-.5 1.4-.4 1.5.2.2 1.7-.1 3.5-.7zm-6.4-1.3c.8-.9 1.1-1 1.4-.8.5.5 1.1.3 1.4-.4.3-.5.3-.8 0-1.2-.2-.3-.1-.7.2-1.4.2-.5.4-1.5.4-2.3 0-.8.2-1.6.4-1.8a6 6 0 0 0 .6-2.4l.2-2-.8.7c-.5.3-1 .5-1.2.4-.5-.2-.9.9-.5 1.3s.3 1.2-.4 3.2a62.3 62.3 0 0 0-1.7 4.7c-.5 1-1.3 3-1.1 3 0 0 .6-.4 1.1-1zm1.1-1.5c-.4-.2-.4-.8.1-1 .6-.2 1.8.3 1.6.7 0 .4-1.1.6-1.7.3zM63.2 76c1-1.4 1.1-1.7.3-1-1 .9-1.7 1.6-1.7 1.9 0 .4.8-.1 1.4-1zm3 .1c.5-.5 1-1.3 1.2-1.8.5-.9 1.4-4.3 1.2-4.5l-.7 1-2 3.1c-.8 1.1-1.3 2-1.2 2.1.2 0 .3.3.3.6 0 .8.4.6 1.3-.5zm44.6.2c0-.5.4-.5-12.5-1-8.4-.4-12.8-.3-13.2.2-.3.2.7.3 5 .1 3.4-.1 6.6 0 8.7.1a262.7 262.7 0 0 0 12 .6zM81 75.6c.1-.8-.2-1.8-.6-1.8-.2 0-.4.2-.4.5s-.2.6-.3.8c-.3.2-.3.3 0 .3.1 0 .3.1.2.2 0 .8 1 .8 1 0zm38-.3c.2-.5-.5-2.8-.8-2.8-.1 0-.3.5-.4 1.1 0 .6-.2 1.3-.3 1.5-.2.3 0 .3 1.2.5.1 0 .3 0 .3-.3zm-69-.7c1.2-.8 1.4-1.3.7-1.3H50c-.3-.1-.4-.8-.5-2.9-.1-2.9-.3-3.5-.7-2.8-.2.3-.1.9 0 1.7.3 1 .3 1.5 0 1.8-.3.7-.3 4.3 0 4.3.1 0 .7-.3 1.3-.8zm65.3-2.4c-.3-3.8-.4-4.2-1.5-4.1-.7 0-.9 0-1-.4 0-.4 0-.5.4-.5 1.3.2 1.6-.4.6-1.3l-.5-.5v.8c0 .4 0 .8-.2.8-.3 0-.6-.7-.6-1.5 0-.4-.4-1.7-.9-3a9.6 9.6 0 0 1-.7-2.9c.1-.4-.4-1.1-1-1.1-.3 0-.8-.2-1.1-.5a18.1 18.1 0 0 0-11.1-2.4c-1.2.3-1.2.3-.5.6 1.2.3.6.7-.7.5-.9 0-1.3 0-1.9.3l-.6.5 1.5 1c1.9 1.3 4.7 4 6.1 5.8.7 1 1.4 3 1.1 3.5-.2.3-.3.3-.4 0-.2-.2-.5-.3-.7-.2-.5.2-1-.6-1-1.6 0-1.5-2-4.2-4.5-5.8-2.2-1.5-4-1.8-5.4-1-.4.3-1.6.8-2.5 1l-2.7.7-1 .3 1.5 1 2.7 2c1.8 1.5 3.3 2.3 4.4 2.3.6 0 1.6.3 2.2.6.7.3 2 .8 3 .9 2.2.4 10 .4 10.1 0 .1-.1-.1-1-.5-2s-.6-2-.6-2.4c.2-.6 0-1-1.7-2.8-1-1-2.4-2.2-3-2.5-1.3-.7-1.5-.9-1.2-1.4.5-.7 3.6 1.5 5.4 4a20 20 0 0 0 1.3 1.6c.3.2 2.3 4.4 2.3 4.8 0 .8-.5.5-1-.5-.2-.6-.4-.9-.5-.7 0 .2 0 .5.2.8.1.3.2.7.1.9 0 .1.2.2.6.2 1 0 .6.6-.6.9l-3.2.2c-1.2 0-2.2 0-2.2.2l.3.7c.4.5.5.4 2-.1 2.1-.7 2.8-.7 2.7-.1 0 .2-.6.5-1.4.8-2.7.7-2.8.7-3.6 0l-.8-.5.2.6c.2.3.5.7.8.7.9.2 1 .5.2 1.3-.3.3-.8.6-1 .5-.1 0-.4-.6-.6-1.4-.7-2.8-.5-2.6-3.8-2.8l-4.6-.7c-1.8-.6-6-2.9-7.3-4-1.1-1-3.6-2.6-4-2.6-.1 0-.4.4-.5.9-.3 1 0 1.9 1.3 4.6.4.9.7 1.7.6 1.9l-1 .6c-1 .4-1 .4-.6 1l1.4 2 1 1.4h2c5 .2 6.1.1 6.4-.3a1 1 0 0 0 0-.8l-.2-1.4c-.1-.9 0-1 .6-1 0 0 .3-.1.5-.4.5-.6.8-.2 1 1 .1.7 0 1.1-.2 1.3-.4.3-.7.1-.7-.6 0-.3-.1-.2-.2.3v1.1h4.4c4 0 4 0 4 .5 0 .4.2.6.7.7.7.2 1.2 0 1.2-.6s1.5-.5 2.3.2c.4.4.9.5 2.6.5 2.3 0 2.4-.1.4-.6-2-.4-2.2-1.1-.4-.9 2.2.3 3.3.7 3.5 1.3.1.4.6.6 1.9.7h.6zm-1.5 2.3V74l-.2-1.4c0-1.2 0-1.2-1-1.4-2-.4-2.1-1.4-.2-1.4.9 0 1.2-.1 1.2-.5 0-.7.6-.2.9.8.2 1 0 4.4-.4 4.4l-.3-.1zM91 73c-.4-.3-.2-1.6.2-1.6.2 0 .4.2.4.7 0 .8-.3 1.2-.7 1zm1.5 0-.1-1.2c0-.7 0-1 .3-1s.4.3.4 1c0 1-.2 1.6-.6 1.2zm13 0c-.3-.5 0-.7.5-.5.2.1.3.3.2.4-.2.4-.5.4-.8 0zm1.4 0c0-.6 2.4-2.7 2.9-2.7.8 0 .7.5-.3 1-.5.2-1 .6-1.2 1-.2.5-1.4 1-1.4.6zm-18.4-.5c-.5-.5-.5-.8.2-1.2.8-.4 1.2.3.8 1.2-.2.5-.4.5-1 0zm8-.3-.2-1c0-1 .7-.7.8.4 0 .8-.2 1-.6.6zm1.5-.5c-.2-.4 0-1.1.4-1.1.3 0 .6.7.4 1.1 0 .3-.3.4-.4.4-.1 0-.3-.1-.4-.4zm-34.5.5c.7-.9 1-1.3.8-1.5-.2-.3-.1-.9.3-1.9a62.6 62.6 0 0 0 1-2.5c.2 0 .5-.7.7-1.6.3-1 .6-1.6.8-1.6.5 0 .5.2-.4 2.9a9.9 9.9 0 0 0-.6 2.4c.2.3.9-.8.9-1.5a3 3 0 0 1 .9-2c.2-.2.5-1.2.8-2.2.4-1.8.4-2 0-2.7-.2-.5-.5-.7-1.1-.6-.5 0-1.4-.2-2.2-.6-1-.5-2-.7-4.2-1-6.2-.6-6.6-.6-7.3-.1a4 4 0 0 1-1.9.4c-.8 0-1.3.2-1.6.5-.3.3-1 .6-1.8.6l-1.4.4c-.3.2.3 1 .9 1.1.2 0 1 .8 1.8 1.7.7.8 1.3 1.4 1.4 1.3l-.5-1.5c-.6-1.4-.7-2-.2-2 .3 0 1.5 2.6 1.7 3.8 0 .6.3 1 .4 1v-1.3l-.4-2.3c-.2-1-.2-1.2.2-1.2s.4.1 1.1 3.8c.4 1.9.4 2.7.2 2.9-.4.4-.9 0-.9-.7 0-.6 0-.6-.5-.2-.5.4-.5.4.2 1.3.3.5.6 1.2.6 1.8v1l.2-1c0-.6.2-1 .4-.8l.8-.3c.4-.4.4-.3.7.2.2.3.2.6.2.7-.1.2.5 1 1.2 1.7l1.4 1.5.3-1.2c.2-1 .2-1.4 0-1.7-.3-.4-.2-1.2.2-4 .3-2.1.7-3.5.9-3.6.5-.1.4.6-.3 5.4a33.7 33.7 0 0 0 1-2.6c.7-2.6.9-3 1.3-2.6.2.3-1.3 6.2-2.2 8.6-.4 1-.5 1.4-.2 1.5.6.4 1-.2 2.4-4.1 1.7-4.4 2-5.2 2.5-4.8.2.2 0 .7-.4 1.7-.3.7-.9 2-1.1 2.9L61.2 71c-.4 1.2-.6 2-.4 2.2.1.3 0 .6-.2.8-.2.2-.3.4-.2.6.2.3 1.8-1 3-2.4zM62.1 71c0-.4.3-1.5.7-2.3l1.2-3.2c.5-1.3 1-2 1.4-1.7l-.8 2.5-1.1 3.2c-.2 1.3-.6 2.2-1 2.2-.3 0-.4-.3-.4-.7zm-5.4-2.5a36 36 0 0 1 .3-7.3c.2 0 .3.6.3 2.9l.2 4c.1.8 0 1-.3 1-.2 0-.5-.3-.5-.6zm-1.8-1.3-.4-3c-.4-3.6-.4-3.3 0-3.3.5 0 .5.2 1 3.3.3 2.7.3 3-.2 3H55zm28.6 7.4c.4 0 .3-.5-.1-.7-.5-.2-1.3.4-1 .8 0 .1.3.2.5 0h.6zm-6.3-1.2c.2-.4.4-.6.4-.4.3.7.6.3.6-.7 0-.8-.1-1.2-.6-1.6-.4-.3-.7-.7-.7-.8 0-.2-.2-.2-.5 0-.7.3-.9 0-.9-1.5l-.2-1.4c-.2 0-.3.3-.2.8 0 .6-.1 1.1-.5 1.7a3 3 0 0 0-.6 1l-.4.2c-.2 0-.4.1-.4.3 0 .2 0 .8-.2 1.3l-.1 1 1.4.1c.8.1 1.6.3 1.8.5.6.3.8.2 1.1-.5zm-17.5.2c0-.2-.1-.3-.3-.3-.1 0-.2.1-.2.3l.2.2c.2 0 .3 0 .3-.2zm4.4-.3L64 73c-.2 0-.3.2-.3.3v.3c.2 0 .3-.2.4-.3zm2.8-2.7 1.4-2.8c.2-.6.5-1 .8-1 .4.1.5-.2.2-1.6-.2-.7-.3-.6-1.3 1.5a39 39 0 0 1-2.2 4c-.8 1.1-1 1.8-1 2.2.3.5.3.5.6 0 .3-.3 1-1.3 1.5-2.3zm15.8 2-1-1.7c-1.4-1.7-2-2.8-2.7-5-.5-1.5-.9-2-1.2-1.8-.1.1.6 1.9 1.8 4.6l.6 1.7c.2 1 1.7 2.9 2.2 2.7.2 0 .3-.3.3-.5zm-32-3c0-2.5-.1-2.9-.7-3.8-.6-1-1-1.2-1.3-.7 0 .2.2.6.6 1 .7.5.7.6.8 3.5a9 9 0 0 0 .3 2.8c.2 0 .3-1.4.3-2.9zm1.3 2.3c-.1-.2-.2-.1-.2.2 0 .3 0 .4.1.3V72zm-7.1-3c0-1.4-.4-2.1-.6-1-.2.6 0 2.5.3 2.5L45 69zm20.6.7.2-.5c-.2 0-1 .8-1 1 0 .4.5 0 .8-.5zm51.6-1c0-1 0-1.4-.4-1.4-.3 0-.4.2-.2 1.1.3 2 .6 2.1.6.2zm-13.6.7-.1-.2c-.2 0-.3 0-.3.2l.1.3.3-.3zM78.1 68c-.8-1.8-1.2-2.5-1.2-2 0 .7 1.4 3.4 1.8 3.4L78 68zm3.7.9c-.2-.5-.1-.6.5-.5l.7.1-1-2.1c-.6-1.3-1-2.6-1-3.4 0-1.6-.2-1.8-1.3-1.8-1.4 0-1.5.3-.8 1.6.4.7.9 1.9 1 2.7l.7 1.5c.2 0 .3.3.3.6 0 .6.5 1.8.8 1.8.2 0 .2-.2 0-.5zM46.9 68c0-.3-.1-.1-.1.3s0 .7.1.5V68zm91-2.6-1.6-4.7c-.4-1 .8-.4 1.3.6.5 1.1.6.6 0-.7-.4-1.1-.5-1.4 0-1.4.3 0 1.4 2.5 1.6 3.8.1.8 0 1.2-.2 1.6-.7 1-.5 1.4.2.6.6-.7.7-1 .7-3.5 0-1.5-.1-3-.3-3.5-.2-.6-.4-.7-1.1-.5-.8 0-2.4-.2-3.7-.7-1-.4-1.2-.4-1.1 0 0 .1-.2.4-.7.5-.9.4-1 .6-.5 1 .5.6 0 .8-.7.4-.5-.3-.7-.2-1.3.4-.6.6-.7 1-.7 2.3 0 1.5 0 1.6.7 1.4.5-.1.6 0 .8.6.2 1 .5 1.5 1.2 1.9.3.1 1.3.9 2 1.6l1.5 1.3 1-1.1c.8-1 1-1.2.9-1.9zm-1.8.5v-1.3c.5-.4.9.2.9 1.2 0 1.4-.7 1.4-1 0zm3.6 2s.1-.1 0-.2c-.1-.3-1.6 0-2 .4-.3.3-.2.4.7.2l1.3-.3zM47 66.9c0-.5-.1-.6-.8-.6-.6 0-.8 0-.8.5 0 .4.2.5 1.4.7.1 0 .2-.2.2-.6zm69.3-.3c.2-.2.1-.7-.6-2.2-1.4-2.7-1.5-2.5-.5 1 .4 1.4.5 1.5 1 1.2zM47.5 65c0-.2.2-.6.5-.8.3-.4.3-.6 0-1-.2-.3-.5-.5-.8-.5-.5 0-.7-.2-1.3-1.6-.3-.7-.7-1-2-1.7-2-.9-3-.9-1.2 0 1.4.7 1.8 1.2 1.4 1.8-.5.8-.1 1.5.8 1.4 1-.1 2.1.5 2.1 1 0 .8-.6.9-1.8.3-1-.6-1.7-.5-3.5.2-1.4.7-1.3 1 .2.5 1.7-.5 3-.5 3.4 0 .2.3.8.5 2 .6 0 0 .2 0 .2-.2zm71.4-.2c.9-.6.8-.9-.5-.9-1 0-1.1.2-.9 1 .3.5.5.5 1.4 0zM72 63.6 72 63c-.2 0-.4-.7-.6-1.5a5 5 0 0 0-.8-1.8c-.5-.4-.5-.4-.4 1.7.1 1.2.3 2.4.5 2.5.3.4 1.2.2 1.4-.3zm5-1.3c-.6-1.5-.6-1.7.2-1.7.4 0 .7-.1.7-.3l-.4-.2c-.3 0-.7-.2-1-.4-.6-.4-.7-.4-1.1 0-.6.5-2 .5-2.5-.2-.7-.8-.8-.6-.7.9.2 1.8.7 2.5.9 1.2.1-.8.2-.9 1-.8.5 0 .9 0 .9-.2 0-.4.7-.3.9 0l.4 2c.2 1.3.3 1.4.7 1.1.3-.3.3-.5 0-1.4zm51.8-.8c.1-2 .1-2 1.2-3 .9-.8 1-1.1.8-1.4-.4-.4-2.2 1-2 1.6.2.4-.8 1.4-1.5 1.4s-1.4 2.7-.8 3.2c0 .2.6.2 1.2.2l1.1-.1zm-7.3.8.4-2c.2-1 .1-1-.3-1l-5.2 2.4c-.2.1 0 .5.2.9.4.6.6.6 2.5.6h2.1zm4 0c.5-2.1.4-2.1-1.6-.4l-1.5 1.3h1.4c1.4 0 1.4 0 1.7-1zm-82.6.2c0-.3-.1-.6-.4-.6l-.4.1-.1.6c-.1.3 0 .4.4.4s.5-.2.5-.5zm-1-1.1c0-.2-.1-.3-.3-.3l-.2.4c0 .3 0 .4.2.3.2-.1.3-.3.3-.4zm70.3-1c-.7-.5-.7-.3-.3.5.5.9.5.9.6.3 0-.4 0-.8-.3-.9zm12 .2c1-1 1.3-1.3 1.3-2 0-.6.1-1 .4-1 .2 0 .4.3.4.5 0 .4.2.5.8.1.3-.2.3-.3 0-.5s-.3-.4 0-1.2c.6-1 1.1-1 .9 0-.2.8.2.9 1 .2.3-.3.5-.8.5-1.4 0-1.7 2.3-3.2 4.6-3 1.4.2 1.4.2 1.2-.6 0-.5-.2-.6-.3-.3-.2.2-.3.2-.5 0-.2-.1 0-.6.3-1.5.6-1.2.7-3.3.3-3.3l-.8 1c-.4.7-1 1.3-1.4 1.4a2 2 0 0 0-1 .9c-.1.4-.4.5-1 .5-.8 0-1 .2-1.4.8-.2.4-.3 1-.2 1.4.2.7-.5 2-1.2 2-.6 0-1.7.9-2 1.6 0 .4-.6.9-1.4 1.3-1 .6-1.5 1-1.8 1.7-.3.9-.5 2.5-.2 2.5l1.5-1.1zm-42.5 0c0-.1 0-.3-.3-.3-.2 0-.3.2-.2.3l.2.3.3-.3zm4.9-1c1.8-.4 3.3-1 2.3-1.1-.5 0-5.8.8-6 1l.1.3c.3.4 1.5.3 3.6-.1zm38.2-3c.4-.4.7-1 .7-1.3 0-.3.4-.8 1.1-1.2 1.3-.9 1.5-1 1.7-2 0-.3.2-.8.4-1.1a1 1 0 0 0 0-1c-.2-.3-.2-1-.1-1.5.1-1 0-1.2-1.2-2.4-1.3-1.3-1.4-1.4-2.7-1.4-1 0-1.4.1-1.5.5-.1.2 0 2.2.3 4.5.4 3.5.4 4.7 0 4.2l-.6-4c-.2-2.2-.5-4-.6-4.2-.5-.6-.6.8-.1 3 .3 1.8.3 2.5.1 2.6-.4.3-.1 2.1.5 4.3.5 1.8 1 2 2 1zm-.2-4.3c-.6-4.9-.7-6-.5-6.3.3-.2.6 1.7 1 5.5.2 1.9-.3 2.7-.5.8zm1.6-1c-.3-.3-.8-5.2-.6-5.4.3-.3.4 0 .7 2.7.3 2.6.3 3.4-.1 2.8zm1-1-.3-2c-.2-2 .3-2.4.6-.5l.3 2.2c.1.8-.3 1.2-.6.3zm10.5 6.4.2-1.3c0-.8 0-.7-.4.5 0 .4-.2.7-.3.7-.3 0-.6-3.2-.4-3.4l.6.5c.4.6.5.6.5.2 0-.3-.3-.8-.6-1.1-.5-.5-.7-.5-.7-.2 0 .2-.3.5-.7.6-.5.2-.6.4-.6 1.2 0 2 1.7 3.5 2.4 2.3zm-4.5-.5-.2-1.5c-.2-1-.2-1-1.1-.9-1.8.4-2.1 1.5-.7 2.3 1.3.6 2 .7 2 0zm5.6-3.8a12 12 0 0 0-.3-2.5c-.3.3-.5 2.1-.3 2.4.2.2.3.8.4 1.3a182.4 182.4 0 0 0 .3 1.6v-2.8zm-4.3 1.6c0-.5-.5-1-.7-.8-.2.2.2 1.3.5 1.3 0 0 .2-.2.2-.5zm1.1-3.6c.1-.2 0-.3 0-.2-.2 0-.3.2-.3.4 0 .3.2.3.3-.2zm2-.2c0-.4 0-.5-.2-.2-.1.2-.2.5-.1.6.2.4.4.2.4-.4zm-5.6-1.8c.3-.6.7-1 1-1.2.4-.1 1-1.2 1-1.8 0-.2-.3-.6-.7-.8-.5-.3-.7-.8-.8-1.6-.2-1.2-.2-1.2-.9-.8-1.4.7-3 1-3.8.7-.6-.2-.8-.2-1.3.3l-.6.5 1.8-.2c1 0 2.2-.3 2.5-.4.8-.3 1.6-.3 1.6 0s-1.5 1.1-2.1 1.1c-.7 0-.5.6.4 1 .8.4.9.8.2 1-.3.2-.6 0-1-.6-.6-.6-.9-.8-1.1-.6-.3.1-.2.5.4 1.4.5.7.9 1.5.9 2 0 1 .1 1 1.2 1 .8 0 1 0 1.3-1zm-2.1-1.3c-.1-.1.2-.4.6-.7.5-.2 1-.7 1.3-1.2.5-.7.5-.7.7-.2 0 .5-.1.8-.9 1.5-1 .9-1.5 1-1.7.6zm-8.6.1c-.4-1.8-.5-2-1-1.7-.3.2-.3.3 0 .4.4.1.4.3.3.8-.1.6.6 2.7.9 2.4l-.2-1.9zm-2.7-1.1c0-.2-.2-.3-.4-.3s-.3.1-.3.3l.5.2.2-.2zm-1-1.6h-1.3c-.4.1-.1.1.6.2.7 0 1-.1.7-.2zm6-1.6c1-1 1.6-1.9 1.5-1.9l-1.6 1c-1.2.8-1.4 1-1.3 1.6.2.5 0 .6-.6.6-.4 0-1 .1-1.3.3-.4.1-.3.2.6.2 1 0 1.1-.1 2.7-1.8zm84-.2c-.2-.4-.4-.4-1.2-.4-.2 0-.6-.2-.9-.5-.2-.4-.4-.5-.4-.3 0 .6.5 1.4 1 1.4 0 0 .5.4.7.8l.5.9.2-.8c.2-.4.2-.9.1-1zm-26-.2c.4-1.3.6-3.7.3-4.4-.2-.6-.2-.6-.5.3a14 14 0 0 0-.4 5c.2 0 .4-.4.5-.9zm18.7-1.6c-.2-1.1-.7-1.7-.7-.8 0 .5.8 2.3 1 2.2 0-.1 0-.7-.3-1.4zm-72.2.7c0-.3.4-.6 1.3-.9 1.4-.5 2-.2 1 .5l-.5.4.9-.2c1.1-.2 1.4-.4 1.2-1.1-.2-.7-1-.8-2.7-.1-1.6.6-2.6 1.9-1.6 1.9.3 0 .4-.2.4-.5zm55.3.1c0-.2.2-.3.5-.2.9.2 2.6-3 2.2-4.1-.1-.5-1.3-1-2.1-.9-1.5.2-1.6.4-1.6 3 0 2.4 0 2.6.5 2.6.3 0 .5-.2.5-.4zm.8-1.9c-.2-.2-.2-.4 0-.4.3 0 .7.5.5.7 0 0-.3 0-.5-.3zm.2-1.4c-.1-.2 0-.3.2-.3s.4.1.4.3c0 .1 0 .2-.2.2s-.4 0-.4-.2zm22.4 2-.4-.2c-.1 0-.2.1-.2.3 0 .1.2.3.4.3s.3-.2.2-.3zm-8.6-1.3c0-.3.2-.4 1-.3.9.2 2-.2 2-.7 0-.2-.2-.2-.5-.2-.2.1-1 0-1.7-.5-.7-.3-1.6-.6-2-.6a35.7 35.7 0 0 0-6.3-1c-2.1-.1-2.3-.1-2.1.3l.1.8c0 .2.2.4.4.4s.7.6 1 1.2c.4.7.9 1.2 1 1.2.2 0 .3-.5.3-1.2s.1-1.2.4-1.5c.3-.2.6 0 1.5 1 1.3 1.2 2.2 1.5 3.4.9.5-.3.6-.2.8.5.3.8.7.7.7-.3zm8 .5-.7-1.2-.6-1.4c0-.4-2-2.5-2.3-2.3-.2.2.2 4 .4 4s.3 0 .3.2c0 .6.9 1 1.8.9l1-.2zm-16.4-.1c0-.5-.3-1.1-.6-1.1-.2 0-.3.9 0 1.1.2.3.6.2.6 0zm2.6-.6c0-.3 0-.5-.2-.5s-.3.3-.3.7c0 .3.1.6.3.5l.2-.7zm8.4-3v-2c.3-.4.2-.5-.3-.6-.5-.1-.8 0-1 .3-.3.7 0 3.3.6 3.7.7.6.9.3.7-1.3zm-21 1.2c0-.2-.3-.3-.6-.3s-.3 0 0 .3c.5.3.9.3.7 0zm-6-.5h-.5c-.2 0-.1.2.2.2.3 0 .4 0 .3-.2zm-2.9-.3h-.9c-.2.1 0 .2.5.2s.7 0 .4-.2zm16.5-.5h-.5c-.3 0-.5 0-.4.2.1.2.9 0 .9-.2zm10.8-.7c0-.6.2-1.2.4-1.4.4-.6-.2-1-1.1-.8-.6.2-.9.4-1 .8l-.2 1.3c-.2.8.4 1.3 1.3 1.2.4 0 .5-.3.6-1.1zm-19.5 0c.4-.8.4-.8-.7-1-1-.3-1.7.3-1.7 1s.2.9 1.2.9c.7 0 .9-.1 1.2-.8zm16.7.5c.1-.1 0-.4-.2-.7-.3-.3-.4-.7-.3-1.3.1-.7 0-.8-.6-1.2-.8-.4-2.1-.5-1.8-.2.1.1 0 .4-.2.8l-.5 1.5c-.2 1-.2 1 .7 1h1l-.2-1.2.1-1.3c.2-.1.4.3.5 1l.3 1.5c.1.3 1 .3 1.2 0zm-4-2 .7-1.4c.2-.3-1.2-.2-2 .1-.7.4-1.7 1.9-1.5 2.5.2.4 1.4.7 2 .3l.8-1.5zm11 0c-.3-.1-.4.1-.6 1l-.1.7.4-.8c.2-.4.3-.8.2-.9zm-62.4-1c0-.8-.5-1.4-1.3-1.4-.5 0-1-.1-1.1-.4-.4-.4-2.2-.2-6 .5-2.4.4-2.5.6-.4.7 1 0 3.2.3 4.9.5 4 .7 4 .7 4 .2zm-31.4-.4c-.1-.7-.8-1-.8-.4 0 .2.6 1 1 1l-.2-.6zm20.6.4c0-.2-.7-.3-1.5-.3s-1.4.1-1.4.3c0 .1.6.2 1.4.2.8 0 1.5-.1 1.5-.2zM116 31c.6-.5.6-.5.2-1.3-.3-.4-.5-1.1-.5-1.5 0-.6 0-.7-.6-.4-.4.3-.5.4-.2.7.7.9 1 1.7.9 2-.2.6-.7.6-1.4 0-.5-.5-.6-.7-.5-1.6.2-1 .2-1-.8-1.2-1.1-.1-1.6.3-1.6 1.4 0 .5 0 .6.5.5h.5c0 .2-.2.3-.6.4-.6.2-.6.2 0 .6.3.2 1 .4 1.5.4s1 0 1 .2c0 .5.9.3 1.6-.2zm-2.9-2c0-.3.2-.5.4-.6.2 0 .3 0 .2.4-.2.7-.7.8-.6.1zm-4.5 1.3c0-.2.1-.4.3-.4l.7-.4c.2-.2.5-.4.8-.3.3 0 .4-.2.5-1 0-.8.2-1 .8-1.2.6-.2.8-.5.8-1 0-.7-.4-.8-1-.2-.2.2-.6.4-.9.4-.4 0-.4-.1-.3-.6l-.1-.8c-.2-.1-.3 0-.3.3s-.1.6-.3.6l-.3-.3c0-.2-.2-.2-.7-.1-1 .2-1 .3-.4.8.4.2.6.5.5.6 0 .1.2.2.5.1.6-.1.7 0 .7.7 0 .9-.7 1.2-.9.4 0-.3-.1-.1-.1.3 0 .7-.2.9-.8.9-.8 0-1 .1-.8 1 .2.7 1.3.9 1.3.2zm6.4-.6c-.3-.8-.4-1-.6-.6-.3.5 0 1 .4 1 .2 0 .3 0 .2-.4zm2-1.4c.1-.7 0-1-.2-1-.4 0-.7 1.2-.4 1.6.2.3.6 0 .6-.6zm-9-1.5c0-.5 0-.6-.2-.4-.2.1-.2.4-.2.7.3.6.4.5.4-.3zM94.6 23c0-.7-.4-1.5-.6-1.2-.2.1.4 1.8.6 1.8V23zM82 22.2V22c-.1 0-.3 0-.4.2 0 .2 0 .3.2.3.1 0 .2-.1.2-.3zm-65.9 94-1.3-.6c-1.7-.4-2.5-2-1-2 1 0 1-.4 0-1.4-.6-.6-1-.8-1.5-.8-1 .2-1.2 1-.3 1.2.8.2 1 .8.4 1.5-.3.3-1 .5-2.8.6-1.6.2-2.6.1-2.7 0 0-.2-.7-.4-1.4-.5-1.6-.3-2-.9-.7-1h.9l-1-.6c-1.5-.6-3.4-2.2-3.4-2.8l-.5-1c-.7-.5-.9-1.2-.5-1.9.2-.5.3-.5 1.2-.1.8.3 1 .3 1.7-.4l2.1-1.8 2.2-1.8c1.5-.9 4.9-3.3 5-3.5.2-.2.6-1.5 1-2.9 1-3.3 1.6-4.6 3-5.7 1.7-1.5 3.4-1.2 4.3.7.4 1 1.9 2.5 2.3 2.5l.2.3c0 .5-.8.6-1.9 0-1.7-.7-2.3-.8-2.9-.7-.8.3-1.6 2.4-1.6 4.3 0 2 .3 4.9.6 4.9a9 9 0 0 0 1.7-1.4c.8-.7 2-1.7 2.8-2 1.2-.8 1.3-1 2-3.2.4-1.2.7-2.7.8-3.3a8.6 8.6 0 0 1 2.1-4.4c1.5-1.2 3.3 0 3.2 2 0 .5.4 1.5.9 2.4.8 1.4.8 1.5.3 1.8-.2.2-.8.4-1.1.4-.6 0-.8-.2-1.2-1-.2-.6-.5-1.1-.6-1.1-1.1 0-2 3.9-1.6 7 .3 2.8.1 4.3-.8 5.4-.8 1-1.8 2.8-2 4 0 .3-.6 1.3-1 2.2l-1 1.6.6.3c.7.1 1 .7.4 1-.2.2-.9.4-1.6.4-.8.1-1.1.3-1 .5 0 .6-.6 1.1-1.2 1h-1.7c-.8.3-1.1.3-1.4 0zm2.3-1-.1-.5c-.2 0-.3 0-.3.3 0 .4.2.5.4.1zm.5-1.2-.4-.2c-.1 0-.2.1-.1.2 0 .2.3.3.4.3.2 0 .2-.1.1-.3zm-8.4-.5c.2-.4-.2-.9-.5-.5-.2.1-.6.3-1 .3-.2 0-.5 0-.5.2s.4.3.9.3 1-.1 1-.3zm10.7.1h-.7c-.3 0-.2.1.3.1h.4zm-1.8-1c1.7-.1 2.8-1.2 3.6-3.7.7-2.1 1.7-3.8 2.1-3.8.2 0 .5-.4.8-.8.6-.8.6-1 .3-4.6-.3-3.4-.3-3.9.1-4.8.2-.6.4-1.6.4-2.2v-1.2l1.2.2c1.5.2 1.9-.1 1.7-1.3-.2-1-1-2-1.7-2-.3 0-1.2 1.1-1.8 2.4-.4 1-1.5 5.1-1.5 6 0 1-.8 2.5-1.6 3-1.5.8-5.7 4-8 6.1-.8.8-1.2 1-2.5 1.1-2 .2-2.2.8-.5 2 .7.4 1.5 1.3 1.9 1.9 1 1.5 2.1 2.2 3.4 2l2.1-.3zM28 89.8c0-.2 0-.3.2-.2.2 0 .2.3.1.4-.2.4-.3.3-.3-.2zM10 112l1-1 .6-.8-1-1.2c-1.4-2-1.2-2.5 1.3-2.5.7 0 1.4-.3 2.1-.8 1.9-1.3 1.9-1.3 2-5.1 0-3.4.4-7 .9-7.5l1.6-.4c1.2-.1 1.4-.2 1.5-.8 0-.7-.6-1.3-1.5-1.3-.5 0-1 .4-1.9 1.3a9.4 9.4 0 0 0-2.5 5c-.8 3.4-.7 3.3-6.4 6.7-.8.4-1.8 1.3-2.3 2-1.7 2.2-2.2 2.5-3.4 2.3-.7-.1-1 0-1 .2 0 .5 3.3 3.7 4.1 4 1.2.2 4.3.2 4.8 0zm7.8-20.6c-.1-.2 0-.3.2-.4.5-.2.8 0 .6.4-.2.3-.6.3-.8 0zm36.4 19c.1-.4 3.1-.6 3.1-.3 0 .4-1 .6-2.2.6-.7 0-1-.1-.9-.3zm27.5-3.5c0-.5.6-.6 5.5-1l5.1-.6c.8-.2 1-.1 1 .2 0 .4-.1.5-4 1l-4.3.5c-2.7.4-3.3.3-3.3-.1zm24.9-.7c-.8-.4-.7-.7.3-1 2.3-.7 3.6-.5 3.6.6 0 .7-2.7 1-3.9.4zm-64.5-4.5c-.2-.4 1-.7 4.2-1 2.7-.1 3-.2 3.2-.9.1-.6.9-.5.7.2 0 .4.1.4 1.7.3 1.7-.2 3 0 2.3.4l-3.5.5-5.3.5c-2.5.3-3 .3-3.3 0zM58.6 96c-.2-.7-.1-.9.3-.6.3.2.4 1.2 0 1.2 0 0-.3-.3-.3-.6zm-8.6-.6c0-.2 1.4-.3 3.9-.3 2.7-.1 3.7 0 3.5.2-.4.4-7.5.5-7.4.1zm10.8-1.2c0-.3.7-.5 1.7-.5s1.2.3.5.6c-.6.3-2.2.2-2.2 0zm48.8-2.1c0-.2.5-.3 1-.3.4 0 .7.1.6.3-.1.1-.6.3-1 .3-.5 0-.7-.2-.6-.3zM49 91.8c-.4-.6.2-.7 2.9-.6 2.7 0 3.5.2 3.2.6-.2.4-5.9.4-6.1 0zm-1.2-2c0-.4 1.8-.6 5.7-.7 2.2 0 3.4 0 3.5.2 0 .2-.5.4-1.2.5-1.8.3-8 .2-8 0zm0-3.2c0-.3 2.3-.8 2.6-.5.3.3-.2.5-1.4.6-.8.1-1.2 0-1.2-.1zm3.9-.8c.3-.4 3.7-1.4 4.6-1.4 1.5 0 .5.5-2 1-2.9.7-3 .7-2.6.4zm-28-.6c0-.3.7-.5 1.4-.5.4 0 .5 0 .3.2-.4.4-1.7.6-1.7.3zm-5.3-2.4 2.4-.3c2.7 0 4 .1 2.3.4-1.6.3-4.7.2-4.7 0zm8.4-.7c-.2-.3.5-.6 1.4-.6.9 0 1 .4.4.6-.6.3-1.6.2-1.8 0zm162.6 0c0-.4 1-.6 4.4-.6 2.2 0 3.4 0 3.4.2a21 21 0 0 1-7.9.4zm-136-.9c0-.1.3-.2.8-.2.4 0 .7 0 .6.2 0 .2-.4.3-.8.3s-.6-.1-.6-.3zM205 80c-.2-.2.8-.4 3.5-.7 1.6-.1 2 0 1.8.2-.7.6-5 1.1-5.3.5zm-182-.8 1.2-.2c.5 0 1 0 1 .2s-.5.3-1 .3c-.6 0-1.1-.1-1.1-.3zm3.6.1c-.8-.3-.2-.5 1.6-.7 2.7-.3 3.7-.3 3.8 0 .2.4-4.6 1-5.4.7zm173.8-1.1c0-.2.1-.3.3-.3.3 0 .5.1.6.3 0 .1 0 .2-.4.2-.3 0-.5 0-.5-.2zm-11.6-1.6c0-.3.8-.5 2.6-.6 2.7-.2 8-.9 9.8-1.3 2-.4 2.8-.5 3-.2a83.9 83.9 0 0 1-13.2 2.3c-2 .1-2.3 0-2.2-.2zm17.4-2.4c0-.1.3-.3.7-.4.8-.2 1.4 0 .8.4-.4.3-1.5.3-1.5 0zm-187.7-.5a9 9 0 0 1 3.2-.7c.2.2-1 .6-2.2.8h-1zm4.5-.8c-.1-.2 0-.3.5-.3 1 0 2-.5 2-1 0-.4.3-.5 3-.5 2.1 0 3 0 3 .2s-.3.3-.8.2c-1-.2-3.7.4-4.7 1-.9.4-2.8.7-3 .4zM14 71.2c0-.3.6-.5 1.5-.5.8-.1 1.8-.4 2.3-.6.4-.3 1.5-.6 2.4-.7l1.5-.2.1-1.3c.1-1.5.6-1.4.6.1 0 1 0 1 .6 1s2-.7 2-1c0-.2 1.6-.3 3.5-.3 2.1 0 3.4.1 3.4.3 0 .3-.2.3-3.8.4-2.2 0-2.8 0-3.2.5-.7.8-1.7 1-4 1.2-1.3.1-2.7.4-3.2.6-.4.3-1.5.6-2.3.7-1.3.1-1.5 0-1.4-.2zm173.4-.3c-.1-.1-.2-.3 0-.4 0 0 1.4-.3 3-.4l5-.4c1.5 0 2 0 1.7.2l-4 .6-4.6.6c-.6 0-1 0-1.1-.2zm9.5-2c.2-.3 5-.9 6.8-.9 1.4 0 .5.3-1.6.6-4 .5-5.5.5-5.2.3zm-178-.4.4-.2c.3 0 .5 0 .6.2 0 .2 0 .3-.4.3-.3 0-.5-.1-.5-.3zm14.9 0c-.2-.3-.5-.5-.7-.5-.2 0-.4-.1-.4-.3 0-.4 1.5-.3 1.9.2l.7.4c.1 0 .4 0 .5.2.2.5-1.7.3-2 0zm-18.5-1.7c0-.9-.2-1.7-.3-2-.3-.4.2-1.1.6-.9.3.2.2 4 0 4.2-.2.1-.3-.4-.3-1.3zm8.3 1c-.3-.5-.5-2.4-.2-2.5.2-.1.3-.6.3-1.1 0-.5.1-1 .3-1 .3 0 .3 4 0 4.5-.1.2-.3.3-.4.1zm-4-.3c.1-.2.3-.3.4-.3.2 0 .3.1.3.3l-.4.2c-.3 0-.4 0-.3-.2zm7.6-3.9c-.4-2.5-.4-3 0-3 .2.1.4.8.5 1.7.3 2.7.3 2.8 1.8 2.6l2.4-.3c1-.3 2.4-.2 2.4.2 0 .1-1.4.3-3 .4-1.7 0-3.2.2-3.4.3-.3.1-.5-.3-.7-1.9zm164.3 1.8c0-.1.9-.3 2-.4a71.3 71.3 0 0 0 5.5-.6l3.3-.3c.8-.2 1.6-.2 1.8 0 .6.2 0 .3-4 .7l-5.6.6c-3 .3-3 .3-3 0zm-171.1-2c-.2-.5 0-1.2.4-1.2.3 0 .4.8 0 1.3-.2.3-.2.3-.4 0zm14.2-.4-.2-1.4c-.1-.6 0-1 .1-1 .4 0 .6 2.2.3 2.5-.1.2-.2.1-.2-.1zm-4.4-.8c-.3-.1-.4-.2-.2-.4.2 0 .3-.5.3-.8 0-.4.2-.7.4-.7.3 0 .4.2.4.5l.2 1c.2.7-.1.8-1 .4zm168.9 0h.5c0 .2 0 .2-.3.2-.4 0-.4 0-.2-.1zm3-.5c.8-.4 4.2-.4 4.2 0 0 .1-1 .2-2.3.2-1.6 0-2.2 0-1.8-.2zm-191.8-1c-.7-.5 0-1 1-.8 1.5.2 7.1-.3 8.1-.8.5-.2 1.4-.7 1.8-1.1 1.2-1 2.8-1.1 4.5-.3 1.3.7 2.8.6 3.4-.2l1.4-1.2c1.1-.8 1.2-.8 3-.5 2 .3 5.1 0 7-.8.7-.3 1.4-.5 1.7-.4a9 9 0 0 0 4.8-.4c1-.5 1.2-.5 1.7 0 .6.3.8.3 2.3-.2 1-.3 1.9-.5 2.1-.4.3 0 1.1 0 1.8-.2s2.7-.5 4.6-.6c1.8 0 3.6-.2 4-.4.5-.2 1-.2 1.5 0 1.1.4 1 .9-.1.7h-1l.7 1c.5.7.7 1 .5 1.2-.2.2-.6 0-1.2-.6-.7-.8-1-1-1.8-.8-.5 0-1.2.4-1.5.7-1 .9-2.1 1-3.4.4-1-.4-1.3-.4-1.7-.2-.5.3-1.3 0-1.3-.3 0-.7-3.3 0-4.3 1-.5.4-.6.4-1.2-.3l-.6-.7-1.5.6-2.4.5c-1 0-1.7.5-1.7 1.2 0 .2-.1.3-.3.2l-.2-.8c0-.3-.1-.7-.3-.8-.4-.2-1.6.7-1.8 1.3 0 .4-.2.5-.8.3-1-.2-2.4-.1-2.9.2-.1.2-.3.6-.3 1 0 1-.7.7-1-.4-.1-1-.2-1-2-1.3-1.1-.1-1.3 0-2.7 1-1.8 1.6-3.3 1.9-4.6 1-.6-.3-1.4-.5-2.1-.5-1 0-1.4.1-2.4 1l-1.3 1-4.5.5c-5.2.4-4.6.4-5 .1zM60 54c.2-.2.3-.5 0-.6-.2-.3-3.5 0-3.5.2s.4.4.8.6c.8.5 2 .4 2.7-.2zm129.9 6.5c0-.3 1-.5 3.8-.6 2.5 0 3.4.3 1.6.7-1.5.2-5.4.2-5.4 0zm8.4-.6c.2-.2.4-.2.6 0 .3.3.2.3-.3.3s-.6 0-.3-.3zm4.1.2c0-.2.8-.4 1.6-.5l2.4-.3c.8-.2 1-.1 1 .2 0 .4-.3.5-1.3.5l-2.6.1c-.8.2-1.2.1-1.1 0zm-7.6-2.5c.1-.1 1.2-.4 2.4-.5a19 19 0 0 0 2.9-.6c1-.4 1.5-.3 1.4.2-.1.5-1 .7-4.9 1-1.5.2-2 .1-1.8 0zm-6.1-.5c0-.2.4-.3.7-.3.2 0 .5.1.6.3.1.1-.2.2-.6.2-.5 0-.8 0-.7-.2zm-71.5-.3c0-.2.2-.3.3-.3.2 0 .3.1.4.3 0 .1-.1.3-.4.3-.2 0-.4-.2-.3-.3zm-28.8-1.3c.2-1.4.4-1.8.7-1.3.3.5 0 2.1-.5 2.3-.3 0-.4-.1-.2-1zM67 55.4c-.2-.5 0-1.7.3-1.7.2 0 .3.3.3 1 0 .8-.3 1.2-.6.7zM79 54a3 3 0 0 1-.2-1c0-.7-.8-.9-3.6-.6-2 .1-2.7.3-3 .6-.3.5-.3.5-1.1 0-1-.5-1.3-.6-1.3 0 0 .2-.2.4-.5.4-.5 0-2-.9-2-1.2 0 0 1.3-.2 2.7-.2a26 26 0 0 0 4-.2c.6-.2 2.8-.3 4.8-.4 3.4 0 3.7-.1 4.6-.8l2-.8c1-.2 1.1 0 1.9.8l.9.9 1.3-.5 2-.9c.4-.2.7-.2 1.4 0 .8.3 1 .3 1.4 0 .3-.2 2-.3 6.4-.4l6-.2 1-.7c1-.7 1.2-.8 2.8-.6.9 0 2 .3 2.4.5.7.3 1 .3 2.3-.1 1.6-.6 4.2-.7 4.4-.3.2.3 0 .3-1.6.4-2.4.1-2.2 0-2.3 1.8 0 .8-.1 1.5-.3 1.5l-.2-1c.1-1.2-.2-1.4-1.5-1.5l-2-.3c-1.8-.5-3-.4-4 .4-.8.6-1.3.7-2.7.7-1.4 0-1.8.1-2 .5-.5.6-.5.6-1 0-.3-.5-.5-.6-3.7-.4-3.3.1-3.4.1-4.1.9-1 1-1.7 1-1.5 0v-.6c-.8 0-3.3 1.1-3.9 1.7-.9.9-1.2.9-1.4 0-.2-1-1-2-1.7-2-.2 0-1 .3-1.5.7-.6.4-1.7.7-2.3.8-1.7.3-2 .6-2 1.6s-.7 1.3-1 .5zm-34.1-2.7c0-.3 1.9-1 3.7-1.3 1-.2 1 .4 0 .8-1.3.6-3.7.9-3.7.5zm9.4 0c-.3-.3.1-.6.8-.6.4 0 .6.1.6.3-.1.4-1 .6-1.4.3zm3.6 0c0-.3.6-.6 1.5-.6.4 0 .6.1.4.3-.4.4-2 .6-2 .3zm-7.2-.3c0-.2 2-1 2.5-1s0 .5-.8.9c-1 .4-1.7.5-1.7.1zm10.5 0a.6.6 0 0 1-.2-.3c0-.3 4.8-.8 6.7-.8l3.6-.1h1.9c0 .3-.6.4-1.4.4l-2 .1-3 .3c-2.4 0-4.2.3-5 .5h-.6zM183 49.9c-.5 0-1-.2-1-.3 0-.3 6-.5 6.2-.3.2.2.1.3 0 .4-.7.2-4 .3-5.2.2zm-167.4-.4c0-.3.3-.4 1-.4 1 0 1 0 .5.4-.7.5-1.5.5-1.5 0zm62 0c.1-.4 2.5-.4 2.6 0 0 .1-.5.3-1.3.3-1 0-1.4 0-1.3-.3zM70 49c0-.5 1.1-.9 1.8-.7.5.1.6.2.3.5-.3.5-2 .6-2 .2zm17.5-.6-2.5-.3c-1.4 0-2.4-.2-2.3-.3 0-.2 1.7-.3 4.5-.2 4 0 5.1 0 7.8-.7 1-.3 4.1.1 4.1.5s-1 .5-2.2.2c-.8-.2-1.3-.2-1.7 0a3 3 0 0 1-1.2.3c-.4 0-.9.2-1.1.4-.4.4-.5.4-1 .2-.5-.4-2.5-.4-2.7 0-.2.3-1.7.3-1.7 0zm134.7 0c0-.3.7-.5 1-.3.2 0 .2.2.1.3-.2.4-1.1.4-1.1 0zm-7.2-.2c-.5-.4 0-.8 1.2-1 .7-.1 1 0 1 .2 0 .3-.4.6-.9.7-1 .4-.8.4-1.3 0zm-192-.5c-.2-.4.6-.8 2-1 1-.1 1.4-.1 1.4.1s-.4.4-.8.5c-.4 0-1 .2-1.5.4-.9.3-.8.3-1 0zm42.1-.3c-2.4-.1-2.3-.5.2-.6l3.2-.4c.8-.1 1 0 1 .2 0 .4-.4.6-2.2.8h-2.2zm-29.7-.2-1.7-.2c-2.4-.3-1.2-.6 3-.6 2.4 0 5.3-.1 6.4-.3 2-.3 2.9-.2 2.4.2-.5.5-8.2 1.2-10.1.9zm174.6-.1-2.6-.2c-1.2 0-1.7-.3-1.2-.7l2.6-.3c1.7 0 2.5 0 3 .3.9.4.9.5.4.8-.5.4-.5.4-2.2 0zm9.4 0c0-.1.3-.2.4-.1.4.2.3.4-.2.4-.2 0-.3-.1-.2-.3zm-165.2-.3c0-.2.6-.4 1.2-.4l3-.3c4.4-.6 4.5-.7 4.5-.3 0 .4-1 .7-3.4 1-3 .4-5.4.4-5.3 0zm-25.4-.6.9-.4 1.7-.4c1.6-.6 3-1 4.9-1.2 1-.1 2.7-.6 3.8-1 2.4-1 4.1-1.3 4-.8-.3.7-6 2.5-8.8 2.7-1.1.1-2.5.5-3.3.8-1.6.7-3.4 1-3.2.3zm59.8-.1-1.5-.3v-1.4c.2-1.5.7-1.6.9-.2 0 1.1.4 1.3 1.8 1.3.8 0 1.1.1 1.1.4 0 .4 0 .4-2.3.2zm116.1-.2c0-.2.1-.4.3-.3l.3.3c0 .2-.2.3-.3.4-.2 0-.3-.1-.3-.4zM83 45.7l-.4-1.2c-.2-.7-.1-.8.2-.8.3 0 .5.2.5.5 0 .2.2.7.5 1 .5.4.5.9-.1.9l-.7-.4zm-6-.1c-1.1-.1-1.6-.6-.6-.6l1-.3c.5-.3.7-.3 1 0l1.1.3.6.2c0 .3-1 .6-1.6.5l-1.5-.1zm14.6-1.7c-.2-1.6 0-2.2.4-1.5.3.5.3 3.1 0 3.1-.1 0-.3-.7-.4-1.6zm2.1 1.1.1-.8c.4-.7.4-1.5 0-2.7-.5-1.3 0-1.6.4-.4.6 1.5.7 4.2 0 4.2-.2 0-.4-.2-.5-.3zm-25.5-.7c0-.4 0-.6.2-.5.2 0 .3.3.3.5s-.1.5-.3.6c-.1 0-.2-.2-.2-.6zm135 .3c-.7-.5 0-.8.8-.3.4.2.7.5.7.6 0 .2-1 0-1.4-.3zm15.4-.2c-.3-.4.5-1 1.8-1.1 2.5-.4 2.8.3.6 1-1.9.5-2.2.5-2.4.1zm-176-.4c-.3-.2-.3-.3-.2-.4.4-.2 2.2.1 2.2.4 0 .3-1.6.3-2 0zm156.3 0c0-.2.2-.3.4-.3s.3 0 .2.2c0 .2-.2.3-.4.3-.1 0-.2-.1-.2-.3zm12 0c-.4-.2-.4-1.6 0-3.5.1-.8.1-1-.2-1.1-.3-.1-.5-.8-.6-1.8-.1-1.4 0-1.7.5-2.7.6-1 .6-1.2.3-1.4-.4-.3-.9-3.8-.5-3.5.2 0 .4.5.5 1 .1.7 1 1.1 1 .5 0-.5.6-.3 1.2.4.6.5.6.6.2 1.3-.4.8-.4.8.1.9 1.5.2 2.4 3.3 1.3 4.6-.4.7-.5 1-.3 2.4 0 1.1.3 1.8.5 1.9.6.2.5 1-.1 1-1 0-1.4-.4-1.4-1.2 0-1.2-.5-3-1-3.2-.2-.1-.3 0-.3.7 0 1.7-.3 3.6-.6 3.7h-.7zm1.5-5.9-.1-.3-.3.3v.3c.2 0 .4-.1.4-.3zm-1-2.2v.7c.2-.2.2-.5 0-.7zm1.2.3c0-.3 0-.4-.2-.3-.2 0-.3.3-.3.5s.1.4.3.4l.2-.6zm1.8-.6h-.5c-.2 0-.1.1.2.1.2 0 .4 0 .3-.1zm-1.9-.9c0-.6-.3-1-.7-1l.1.8c.4 1.2.6 1.2.6.2zm.1-2c0-.2-.1-.4-.4-.4-.2 0-.4.2-.4.4s.2.4.4.4c.3 0 .4-.2.4-.4zM103 43.5c-.3-.6-.5-3-.2-3 .2 0 .4.3.4.6.3.9 0 2.8-.2 2.4zm100 0-.2-.6c0-.3.1-.3.3-.1.2.2.3.4.2.6 0 .2-.2.2-.3.1zm-97.9-.4L105 42c0-.5 0-.5.2-.1.2.2.3.7.2 1 0 .6 0 .6-.3.2zm111.6 0c-.4-.2-.6-.5-.6-.7 0-.3.1-.3.5 0 .7.3 1 .3 1-.2 0-.4 1-1 1.3-.8l.2.8c0 .5-.1.7-.7 1-1 .2-1 .2-1.7-.2zm-168.3-.3v-.3a23.1 23.1 0 0 1 6-.2c0 .5-.3.5-3.2.7-1.6 0-2.7 0-2.8-.2zm146.8 0c-.3 0-.5-.3-.4-.5.3-.4 1-.3 1.4.3.3.6 0 .7-1 .3zm14.3 0c0-.3 0-.4.2-.3.2 0 .2.3.1.4-.2.4-.3.3-.3-.2zm-154.2-.1c-.7-.1-.8-.6-.2-.6.2 0 .6-.3 1-.6.4-.5 1-.6 4.1-.9a30.2 30.2 0 0 0 5.2-.6c.3.4-2.1 1-4.8 1.1-2.6.2-5 .7-3 .7.4 0 .8.1.8.3l-.2.3c-.1 0-.7 0-1.3.2-.6 0-1.3.1-1.6 0zm4.8-.4c-.3-.4 0-.5.6 0 .4.2.4.3 0 .3-.2 0-.5-.1-.6-.3zm4.2 0c-.2-.3.2-.4 2-.6 1.6-.1 1.8.2.4.6-1.3.4-2.2.4-2.4 0zm122.3-.1c-.2-.3.1-.6.7-.6.2 0 .5.1.5.3 0 .4-.8.6-1.2.3zm-111.5-.3c-.6 0-1.1-.2-1.1-.4s.5-.2 1.5-.2h2l1.5-.8c.8-.4 1-.5 1-.2 0 .2-.2.5-.6.7a63.4 63.4 0 0 0-2.7 1L75 42zm-6.8-.6c-.5-.5-.5-.5.3-.5.5 0 .9-.2 1-.4.1-.3.4-.4 1-.3.3.1 2.2 0 4-.4 3.5-.6 4.6-.6 4.6 0 0 .2-.5.3-1.9.4-2.6 0-7.3 1-7.3 1.4 0 .5-1.2.4-1.7-.2zm-18.5-.4c-.3-.4.2-.7 1-.7s1 .4.3.7c-.6.2-1 .2-1.3 0zm39.2-.3c-.1-.1 0-.3.1-.5.4-.5 2-.5 2 0s-1.7 1-2.1.5zm18.6-.1c0-.2.1-.3.3-.3.1 0 .2.1.2.3 0 .1 0 .3-.2.3a.3.3 0 0 1-.3-.3zm1.5-.3c0-.1.2-.2.4 0 .3.1.3.3-.2.3-.2 0-.3-.1-.2-.3zm110.5-.2c.1-.2.4-.3.6-.3.2 0 .3.1.2.3l-.5.2c-.2 0-.3 0-.3-.2zM67 39.8c-.7-.2-.8-.6-.2-.8.6-.2 1.8.4 1.6.7-.2.3-.3.3-1.4 0zm25.2 0c-.1-.4.6-.7 1-.5.1.1.1.3 0 .4-.1.3-.8.3-1 0zm-35.9-.6c.4-.3.9-.6 1.2-.6 1 0 5.9-1 8.4-1.8l6-1.5c4.7-1 6.1-1.5 7.7-3l1.2-1.2 3.5-.1c2.7-.2 3.7-.3 4.7-.8 1.4-.6 2.6-.7 2.6-.3 0 .2.5.3 1.2.3 1 0 1.2 0 .9.2-.2.2-.9.3-1.4.3-.7 0-1 .1-1 .4 0 .3-.7.4-4.7.4-5.2 0-5.5 0-7.2 1.8-.7.8-1.7 1.2-7.2 2.7l-3 .8-5.2 1.2a113 113 0 0 1-8.2 1.7l.5-.5zm33.9-8.4c0-.2 0-.3-.3-.2-.3 0-.5.3-.5.4 0 .4.6.1.8-.2zm130.1 7.4c-.2-.3-.2-1.4 0-1.4.4 0 .7 1.1.4 1.4-.1 0-.3.1-.4 0zM88 37.3c0-.3 1-.7 1.8-.6 1.3.2 1 .6-.5.7H88zm8.6-.2c-.2-.4.1-.9.4-.7.4.2.4 1 0 1l-.4-.3zM88.8 36c0-.1.1-.3.3-.3l.2.3c0 .1 0 .3-.2.3a.3.3 0 0 1-.3-.3zm119.7-.7c0-1 .4-1.3.5-.4v.9c0 .1 0 .3-.2.4-.2 0-.3-.3-.3-.9zm8 .8c-.3-.5-.3-2.8 0-3 .4 0 .6.8.6 2 0 .8-.3 1.4-.6 1zm-125.3-.6 1.4-.7c1.7-.5 2-.5 2-.2 0 .2-.5.4-1.2.6a52.8 52.8 0 0 0-2.2.3zm80.8-.6.1-.2c.2 0 .3 0 .3.2l-.1.3-.3-.3zm42.7-1.7-.2-1.1c0-.7 0-.9.3-.7l.2 1.1c0 .5-.2.8-.3.7zm-58-.3-.2-.6c0-.3-.2-.6-.4-.8-.4-.2-.4-.3.1-.3.4 0 .7.2.8.4.2.5 0 1.6-.3 1.3zm23.5 0c-.3-.4 0-.8.6-1l.7-.3h-.8c-.5 0-1 0-1 .2h-.6c-.2 0-.5 0-.6.2 0 .1-1.6.3-3.6.4-2.7.1-3.3.1-2.8-.1.6-.4.8-.8.3-.8s-.5-1 0-1.8c.3-.3.5-.8.5-1 0-.2.1-.4.3-.4l.2.6c0 .7.6.9 1.2.4.5-.4.5-.5.2-.8-.5-.6-.2-.7.7-.6 1 .2 1.6 1.5 1.3 2.6-.2.5 0 .7.3.8.5.1.5.1 0 .2-.3 0-.4.1-.3.2.3.6 1.3 0 1.8-1s.5-1.1 0-1.4c-.2-.2-.4-.7-.4-1 0-.8-.6-1.4-1.1-1.2-.6.2-.5-.3 0-.6 1-.5 1.3-.3 1.7 1 .3 1 .3 1.1.4.5l-.1-1.2c-.2-.3-.2-.6-.1-.7.2-.3 1-.2 1 .2 0 .2.2.2.4 0 .3-.3.3-.4 0-.7-.5-.5-.3-.7.6-.4.7.2.8.4.7.8-.1.7.5 2 1 2.2l1 .3c.6.1.6 0 .4-.6-.4-1-.4-1 .3-.9.3.1.6 0 .7-.2 0-.2-.2-.3-.5-.3-.5 0-.6 0-.3-.4s.3-.5 0-1a2 2 0 0 1-.5-1.1v-.7h-2.5c-1.3.1-2.7.3-3 .5-.7.4-.9.4-.9 0 0-.6 1.4-.9 4.6-1a17.7 17.7 0 0 0 6-.8c.3 0 .6 2.1.7 5.8.1 4 0 4.1-2.6 4.8-2.6.7-3.1.5-.7-.3 1-.3 1.8-.7 1.7-.7-.7-.2-4.1.4-4.5.8-.2.4-2.1.7-2.4.5zm-4.3-2c.7-1.1.5-1.4-.5-1l-1.7.4c-.6 0-1 .3-1 .4 0 .2.4.3 1 .1 1.2-.2 1.4 0 .4.4-1 .4-.8.9.3.8.8 0 1-.3 1.5-1zm8.1.3 3-.4 1.3-.1V29c0-.9-.1-2.6-.3-3.8-.3-2.2-.6-2.7-1.4-2.4-.5.2-.2 1.5.4 1.7.3 0 .4.3.3.7-.1.5-.2.5-.6 0-.4-.3-.6-.3-1 0-.8.5-.8 1.1 0 .9.4-.2.5-.1.3.5-.2.9 0 1.3.7 1 .6-.4.7-.3.9 1.5.1 1 0 1.1-.2.8-.3-.5-1.7-1-1.8-.6 0 .4-1.8 1.5-2.3 1.3-.4-.2-.4-.2.2-.6.6-.3.6-.3.2-.3-1.2 0-1.8.3-1.6.8.1.3 0 .6-.2.8-.5.3-.1.3 2.1 0zm-4-.7c0-.2 0-.3-.2-.3h-.2l-.2.6c-.1.3 0 .4.3.3.2-.1.4-.4.4-.6zm1.2-1.4c0-.2-.2-.5-.4-.6-.5-.2-.5 0-.3.7.2.6.7.6.7 0zm3.8-.2c-.3-.2-.5.2-.3.5s.3.3.4 0V29zm.4-4.8c0-.6-.4-1-1-.7-.3.1-.3.3 0 .7.3.7 1 .7 1 0zm-63.9 8c-.3-.7-.2-2.6.1-2.3.4.4.7 2.8.3 2.8-.1 0-.3-.2-.4-.5zm48.1.2c.1-.1.4-.2.7 0 .7.1.7.3-.1.3-.4 0-.7-.2-.6-.3zm35.7-1c-.1-.8 0-1.4.3-1.1.3.3.5 2 .2 2-.2 0-.4-.3-.5-.8zm-47.7.2c0-.1.1-.3.3-.3l.2.3c0 .1 0 .3-.2.3a.3.3 0 0 1-.3-.3zm49.7 0 .3-.3c.2 0 .3.2.3.3 0 .1-.1.3-.3.3a.3.3 0 0 1-.3-.3zm1-.8c-.2-.6 0-2.4.4-2.4.3 0 .3.8 0 2-.1.6-.2.7-.4.4zm-30.7-.3c0-.1.3-.2.4 0 .4.1.3.3-.2.3-.2 0-.3-.1-.2-.3zm22.2 0-.4-2.8a9 9 0 0 0-.8-3.4c-.4-.7-.5-1-.3-1.4.4-.7.7-.7 1 0 .2.7.2.6.6 4.4.4 2.8.3 4 0 3.3zm-39.3-.2c-.7-.2-.8-.2-.5-.4.6-.3 1.6 0 1.8.3l-.1.3-1.2-.2zm34.7-.7c0-.4-.2-1-.4-1.3-.3-.5-.8-4.1-.6-4.1 0 0 .4.4.6 1 .6 1.1 1.1 5 .7 5-.2 0-.3-.2-.3-.6zm11.7 0c-.4-.8-.4-1.4-.1-1.4.2 0 .8 1.3.8 1.9 0 .4-.4.1-.7-.5zm-40.4.1c-1.5 0-2.5-.2-2.4-.3.2-.1 1.3-.2 2.4-.1 1.2 0 2.8 0 3.6-.2h1.5c0 .5-2.5.8-5.1.6zm32 0c-.3-.9-.4-2.9-.2-2.9.3 0 .7 3 .5 3.2-.1 0-.2 0-.3-.3zm-48.4-.2c-.1-.2-.2-.4 0-.5.2-.2.4.1.3.5 0 .3-.1.3-.3 0zm2.7.1c-.2-.2 0-1.4.3-1.6.2 0 .3.2.3.7 0 .7-.3 1.2-.6.9zm1.8-.4c-.8-.5-.5-.7.6-.5l1 .5c0 .4-1 .3-1.6 0zm64.6-.8c-.1-.7-.5-1.6-.8-2.2-.5-1-.4-1.3.9-1.1.5 0 .7.3 1 1.6.1.9.2 1.9.1 2.2-.2 1-.8.7-1.2-.5zm-114.6.6h.7c.2.1 0 .2-.3.2-.4 0-.6 0-.4-.2zm36.9-.3c0-.3.1-.5.4-.5.2 0 .4.2.4.5s-.2.5-.4.5c-.3 0-.4-.2-.4-.5zm55.7.4-.2-1.8c0-1.4.1-1.5.3-1 .3.7.2 3 0 2.8zm-36-.8c-1.1-1-.8-2.4.8-2.9.3-.1.2.1-.4.7l-1 .8.7.5c.7.6 1.3.5 2.4-.3.7-.5.8-.5 1.7-.2 1.2.6 1.2.8-.1.6-1-.1-1.3 0-2.1.7l-1.1.7-.9-.6zm55 .4c-.2-.3.3-.6.7-.4.3.2 0 .7-.3.7l-.4-.3zm-25.4-.2c-.3-.3-.1-.6.4-.6.3 0 .5.1.5.2 0 .3-.7.6-.9.4zm-42-.3c0-.2-.2-.3-.6-.2-.8.2-.9-.2-.2-1 .3-.3.4-.8.4-1.9 0-1.4.3-2 .6-1 .2.8.3 4 0 4.2l-.1-.1zm43.7-.3c0-.6.2-.7.4-.1l-.1.5c-.2 0-.3 0-.3-.4zm-25.9 0c0-.2.2-.3.5-.3s.6.1.7.3c0 .1-.1.3-.5.3s-.7-.2-.7-.3zm34 .1-.1-1.3c0-.8 0-1 .3-.6.3.5.2 2.2-.1 2zm-60.2-.8c-.2-.6-.4-.7-1.2-.5-.7 0-1 0-1-.3s.3-.4 1.2-.2c1.2.1 1.8.5 1.8 1 0 .7-.5.7-.8 0zm13-.7.1-2c.2-.6.2-.6.6-.2.5.4.6 1.6.2 2l-.1.8c0 1.3-.5.9-.7-.6zm58.2 1.1.2-.2c.2 0 .3 0 .3.2s-.1.3-.3.3a.3.3 0 0 1-.2-.3zm-129.8-.2 1-.4h.6l-1 .5h-.6zm75.8 0c0-.2.1-.3.3-.4.1-.1.2-.4 0-.7 0-.3 0-.5.2-.5.4 0 .7 1.2.4 1.5-.2.4-.9.4-.9 0zm55.3 0c0-.2.1-.3.3-.3.1 0 .2.1.2.3 0 .1 0 .2-.2.2a.3.3 0 0 1-.3-.2zm-66.5-.3c-.1-.1-.5-.3-.9-.3-.3 0-.6 0-.6-.2s.4-.3 1-.1c1.2.2 1.4.3 1.4.6s-.7.3-1 0zM78 26.8c-.3-.1-.6-.3-.5-.5 0-.1.2-.2.3-.1l1 .1c.6 0 .9-.1 1-.4 0-.5-.1-.5-1.5-.4-1 0-1.5 0-1.6-.3-.1-.3.2-.4 1.7-.2 1 0 1.9.3 2 .5.1.2.4.2 2-.2.7-.2.7-.1.2.2a43 43 0 0 0-.9.8l.5.1c0 .2 0 .3-.2.3a14 14 0 0 1-4 0zm114.5-.2c-.4-1.1-.5-2.7-.3-2.9.3-.2.7 1.8.5 2.8 0 .6 0 .6-.2.1zm-124.7-.4c-.4-.5.1-.7 1.9-.7 1.7 0 3-.4 3.8-1.1.3-.2.6-.3.7-.2.2.2-.5 1-1 1l-1 .4c-.8.6-4.2 1-4.4.6zm98.5 0c0-.1-.3-.3-.8-.3-.4 0-.8 0-.8-.2s.2-.3.4-.3c.5 0 .5 0 .3-.6-.1-.3-.5-.4-.8-.4-.4 0-.6-.2-.6-.3 0-.2.2-.3.5-.3.8 0 1.8.6 1.8 1 0 .3.3.4 1.5.2 1.3-.1 1.5 0 1.4.3-.1.2 0 .4.1.5.3 0 .2.2 0 .4-.6.3-3 .4-3 0zm48.3-.2c-.2-.4 1.4-.9 1.7-.5.2.2.2.4.1.5-.2.3-1.6.2-1.8 0zm-80.3-.6c0-.7.3-.8 1-.4.5.5.5.5-.4.8-.5.1-.6 0-.6-.4zm37.3.3c0-.4.8-.4 1.3 0 .4.2.2.2-.4.2-.5 0-.9 0-.9-.2zm-45.2-.7c-.9-1-.7-1.6.3-.8.4.4.5.4 1.3-.2 1-.8 3-1 3.3-.4.1.3.4.3 1.5-.2 1-.5 1.5-.6 2.2-.5h1.4c.6-.4 2.5-.7 2.3-.4 0 .1-.8.4-1.5.5l-1.7.5-1.3.2c-.7 0-1.2.2-1.5.6-.5.7-1.2.7-1.8.2-.5-.5-2.1-.3-2.1.1 0 .2-1.4 1-1.7 1 0 0-.4-.2-.7-.6zm15.4.3c.5-.4.5-.4 0-.6l-1-.5c-.4-.4-1.5-.3-1.5.2l-.6.2c-.4 0-.7.2-.7.3 0 .2-.1.1-.2-.2-.2-.4-.5-.6-.8-.6-.3 0-.6-.1-.6-.3 0-.3 1-.3 1.7 0 .6.3.9.3 1.6-.1.7-.4 1-.4 1.4-.2 1 .5 1.6.4 2.6-.5 1-.8 2-.9 2 0 0 .2-.1.3-.6 0-.4-.2-.6-.2-1.4.6-.5.5-1 1.1-1 1.5-.2.4-.4.6-.8.6-.6 0-.6 0 0-.4zm67.1-.1c0-1.2-.2-1.4-1.5-1.2l-1.1-.1c0-.2.2-.3.4-.3a5 5 0 0 0 1.4-.6c1.5-.7 1.7-.7 1.6.4v1.2c.3.2.3.4 0 .7-.4.5-.8.5-.8-.1zm-8.4-.2c0-.3 0-.4.1-.2v.5l-.1-.3zm12.2.2c-.2-.2-.8-.2-1.3-.1-1.2.2-1.1-.3.2-.9.6-.3 1.2-.7 1.3-1 .2-.2.5-.4.8-.4.5 0 .6 0 .4 1-.2 1.5-.7 1.9-1.4 1.4zm-42.1-.3c0-.2 0-.3.2-.3s.3.1.2.3l-.3.2-.1-.2zm4-.3c-1-.4-.4-.8 1-.6 1.3.2 1.7.9.4.8l-1.5-.2zm14.6 0 .1-.2c.2 0 .4 0 .5.2 0 .2 0 .3-.2.3l-.4-.3zm-16.6-.5c-.2-.3.2-.6.4-.4.3.3.2.7 0 .7s-.4-.2-.4-.3zm-2.3-.5c-.2-.2-.3-.4-.2-.5.1 0 .4 0 .7.3.4.5.2.6-.5.2zm26-.2c.3-.2.7-.4 1-.4.3 0 .3.1-.1.4-.3.3-.7.4-1 .4-.3 0-.3 0 .1-.4zm4 0c-.2-.5 0-1.2.6-1.2.5 0 .5.6 0 1.2-.4.5-.4.5-.6 0zm-33-.1c0-.1.3-.3.6-.3.4 0 .4 0 0 .3-.5.3-.8.3-.6 0zm26.6 0c-.4 0-.7-.4-.8-.7 0-.7-.8-1-.8-.5 0 .2-.1.4-.3.4-.4 0-.9-.7-.7-1 .4-.6-1-.5-1.6.1-.5.5-1.1.5-1.1-.2 0-.4.2-.5 1-.6a2 2 0 0 0 1.5-1c.6-.9 1.4-1 1.4-.2s.6 1.8 1.2 2c.4 0 .4.2.2.5-.6.7 0 1 1.2.8 1.2-.1 1.6.2.5.5-.7.2-.9.2-1.7 0zm9 0c-.1-.3 1-.8 2-.8.7 0 .8.6.2.9-.7.3-2 .2-2.1-.1zm-49.4-.5a43.3 43.3 0 0 1-.7-8.6c0-1.1 0-1.2.6-.9.4.3.7.3 1.4 0 1.4-.5 1.4-.4 0 .8-1.6 1.2-2 2.2-1.5 3.9l.5 2.4c0 .8.3 1.5.4 1.6l-.2.8-.3.6-.2-.6zm1 .2.5-.2c.1 0 .2 0 .2.2s-.2.3-.4.3-.3-.1-.2-.3zm-7.6-.2c0-.2 0-.3.4-.4.3-.1.5-.3.5-.5 0-.7-.9-2.1-2.4-3.8a14.5 14.5 0 0 1-3.4-5.6c0-.3-.2-.3-1-.2-1 .2-1 .2-.5-.2.6-.4.6-.4 0-.3-.8.2-2-1-2-1.9 0-.8.4-.6.8.4.4.8 1.2 1.1 1.5.5.2-.3 1.6-.2 2.7.2.5.1.6 0 .9-.7.2-.8.2-1.2-.2-2-.4-1.1-.5-1.1-1.6-1.1l-1.8-.2c-.5-.1-.7 0-1 .8-.4.8-.5 1-1 .8-.2-.1-1-.3-1.8-.3-1.2-.1-1.5 0-2 .4l-.4.8c0 .2-.2.3-.3.3-.6 0-1.1-.4-1-.7.2-.2 0-.4-.4-.4-.4-.1-.4-.2.2-.2.5 0 1-.2 1.4-.4.6-.5.4-.6-2-1-1.5-.1-1.8 0-2.5.4l-1 .5c-.5 0-.2-.6.4-.8a2 2 0 0 0 1-.8c.2-.6.3-.6 1-.2.3.3.8.4 1 .4h1c.4.3 4.5.6 5 .4.2 0 .3-.4.2-.6 0-.4 0-.5.5-.4.4.1.5 0 .5-.3 0-.2-.3-.5-.7-.6-.6 0-.8-.3-.8-.7 0-.7 0-.7 1.8-.5 1.5.1 2 0 2.5-.3a2 2 0 0 1 1.6-.3c.8.2 1 .1 1.2-.5.1-.4.4-.7.7-.7.3 0 .7-.1 1-.4.6-.4 1-.3 1 .4 0 .6-2.8 1.7-4.2 1.8-1.8 0-3.3.6-3.3 1.2 0 .2.4.2 1 .1l1 .1c-.1.2-.6.3-1.1.3-.6 0-.9 0-.8.3 0 .2.4.3.8.3.5-.1.7 0 .7.3s.2.4 1.2.2l1.1-.1.3 1.1c.2.7.5 1.3.7 1.4.2.1.2.3 0 .7-.4.5-.3.6.2 1 .3.3.9.6 1.2.6.3 0 .6 0 .5.2l.3.8c.2.3.4 1.4.5 2.5.1 1.9.1 2-.4 2.2-.5.1-.8 0-1.4-.6-.4-.4-.8-.8-.8-1l-.3-1-.7-1.6c-.2-.6-.6-1-1.2-1.3-1-.5-1.7-.6-1.7-.2 0 .1.1.3.3.3.3 0 .7.6 1 1.5.5 1.4 1.4 2.8 2.8 4.3 2.4 2.5 3 3.3 3.2 4.1v1c-.2.2-1.8.4-2 .2zm.8-7.5-.2-1.6c0-.4 0-.7-.2-.7l-1.4-.8c-1.1-1-1.5-.9-1 0 0 .4.3 1.1.5 1.7.4 1.4 1.4 2.6 2 2.3.4 0 .4-.3.3-1zm-8.4-10.7h-.5c-.2 0-.2.1.1.2.3 0 .5-.1.4-.2zm16.2 17.8-.8-.4c.7-.2 4-.2 4 0 .3.3 0 .4-1.2.6-.6 0-1.5 0-2-.2zm34.9.2h.5s-.1.2-.4.1c-.3 0-.3 0-.1-.1zm16.5-.4c0-.1 0-.2.3-.2.2 0 .5 0 .5.2.1.2 0 .3-.2.3s-.5-.1-.6-.3zm12.1 0c-.7-.3-.5-.8.3-.8l1.7-.4c1.1-.4 1.2-.4 1.6 0 .4.4.4.4 0 .5a1949 1949 0 0 1-2.7.9c-.1 0-.5 0-.9-.2zm-17.2-.2c0-.4.3-.5.7-.4.2.1.3.3.2.4-.2.3-1 .3-1 0zm13-.3c0-.6.4-1 .8-.6.2.2.2.4 0 .7-.5.6-.8.5-.8 0zm-72.4.1c-.2-.2 0-.6.4-.6.1 0 .3.2.3.4 0 .4-.4.5-.7.2zm2 0c-.2-.2-.3-.4-.2-.5.2-.3 1.5.1 1.4.4-.2.3-.7.3-1.2 0zm15.2 0c-.2-.4-.1-.4 1.8-1 1.5-.5 2-.5 2-.2l-1.5.7-1.8.6c-.2 0-.4 0-.5-.2zm38 0h.4c.1.1 0 .2-.3.2s-.4-.1-.2-.2zm-127-.3c0-.5.4-.6 1-.2.4.4.4.4-.3.4-.4 0-.7-.1-.7-.2zm135.6-.6c.2-.9.3-1 .6-.5.4.5.2.9-.4 1-.3 0-.4 0-.2-.5zm-100.5-.2c.6-.4 1.1-.4 1.1 0 0 .1-.3.2-.7.2-.6 0-.7 0-.4-.2zm70.2 0 1.8-.9 2-.8.6-.2c.9 0-.3.7-2.3 1.4-2.1.8-2.1.8-2.1.5zm22.5 0c0-.3.3-.5.6-.5.3-.1.4 0 .3.2 0 .2-.3.4-.5.5-.3 0-.5 0-.4-.3zm-89.5-.8c0-.2.2-.4.4-.5.2-.1.3-.4.1-.8-.2-.6-.3-.6-1.2-.5l-2 .2c-1 0-1 0-.6.4l.4.7c0 .4-2.3.2-2.6-.2-.3-.3-.2-.4.6-.2 1 .1 1 .1.8-.6-.1-.5-.1-.6.3-.5.3.1.4 0 .4-.4l.2-.7c.2 0 .3.1.3.4 0 .5 0 .5 1-.2l1-.9.3.6c.3.9.6 1 1.5.9.5-.2.7 0 .7.2s-.1.5-.3.5c-.2 0-.2.3-.1.6.1.4.4.5 1.4.3 1.2 0 1.2 0 .5.2-1.2.6-3 .8-3 .5zm56.4-.7c1-1 1.2-1.1 1-.5-.3.6.2.7 1.2.2a5 5 0 0 1 1.6-.4 16 16 0 0 1-4.3 1.6c-.2 0 0-.4.5-1zm-92.8.4c.1-.2.3-.3.5-.3 0 0 .2.1.2.3 0 .1-.2.3-.4.3s-.4-.2-.3-.3zm13.6.1c-.4-.4-.1-.6 1-.6.9 0 1.2 0 1 .2-.3.4-1.8.6-2 .4zm21-.4c0-.3.1-.5.3-.5.2 0 .5.2.5.5.1.4 0 .6-.3.6-.4 0-.5-.2-.5-.6zm96.5 0 .6-.2c.3 0 .5 0 .4.2-.1.2-.4.3-.6.3-.2 0-.4-.1-.4-.3zm-17.8-.2a3 3 0 0 1 1.3-.5c1-.1 1 0 .4.3-.8.5-2.1.6-1.7.2zm20.6 0c-.2-.4 1.2-1.2 1.7-1 .3.2.2.3-.4.7-1 .6-1 .6-1.3.3zm3.9-.2c0-.2.1-.4.3-.3.5.2.5.7 0 .7a.4.4 0 0 1-.3-.4zm-28.8-.5.9-.4c.1 0 .5-.2.7-.5.6-.6 1.5-.7 1.5-.2 0 .2-.7.6-1.5.9-1.6.7-2.3.8-1.6.2zm11.6.1c0-.1 0-.2.2-.2s.3 0 .3.2-.1.3-.3.3a.3.3 0 0 1-.2-.3zm-23-.8c0-.5 0-.8.3-.8.6 0 .7.4.4.8-.3.3-.2.3 1.1.2 2-.3 2.7-.6 2.6-1.2 0-.2-.3-.4-.5-.4s-.4-.2-.5-.5c0-.6 1-.3 1.3.4.3.5.3.5 1-.2l2-1c.6 0 1.3-.3 1.6-.4.3-.2.4-.2.4 0 0 .3-.4.6-1.1.8l-1.4.4-1.5 1c-.7.5-2 1-3.1 1.3-2.6.5-2.5.6-2.6-.4zm44 .7-.2-1c-.2-.6-.1-.7.2-.7.6.1.8 1.2.4 1.6-.1.2-.3.2-.3 0zM91 17.7c0-.1.4-.4 1-.6.7-.3.9-.6.9-1.1 0-.6 0-.7.6-.5l1.3.1c.4 0 .7.1.6.3-.1.1-.5.3-1 .3a2 2 0 0 0-1.3.6c-.6.6-1.6 1.2-2 1.2v-.3zm101.8 0c-.2-.5.2-.9.6-.6.4.2.3.9 0 .9s-.5-.2-.6-.4zm26 0c0-.3.2-.5.4-.5.3 0 .4.2.4.3-.2.5-.8.6-.8.1zm-108-.4-.1-.8c-.1-.3 0-.3.4.2s.7.6 1.7.6c.7 0 1.2.1 1.2.2s-.7.2-1.5.2c-1.1 0-1.6-.2-1.6-.4zm69.2.1c1-.2 1.4-.2 1.6 0 .2.3-.1.3-1.3.3h-1.6zm36.8-.6c-.4-.6-.3-1.2.2-1.2.2 0 .6 1.6.4 1.8l-.6-.6zM84.5 17c-.4-.3-.2-.8.4-.8.3 0 1-.2 1.3-.4.7-.4 1-.3 1 .1 0 .3-1.7 1.3-2.1 1.3-.3 0-.5 0-.6-.2zm29.3-.7c-1-.5-1.5-1-1.8-1.7l-.6-1c0-.2 1.3-.2 3-.3 2 0 3.2.1 3 .3 0 .1-.4.2-.7 0-.6 0-2.1.3-2.5.6l.6.8c.6.7.9.8 2.6.8 2.7 0 2.3.7-.7 1-1.4.1-1.7 0-2.9-.5zm.9-.7c-.1-.4-1.8-1.6-2-1.5-.3.3.2 1.2.8 1.5.8.4 1.3.4 1.2 0zm56.4 1 .4-.9c.4-.4.4-.4.1.2-.4.8-.5 1-.5.6zm23.5 0c-.3-.4 0-.7.7-.7.4 0 .7-.1.8-.3 0-.1.3-.2.4 0 .2 0 0 .3-.4.6-.8.5-1.3.6-1.5.3zm4-.2c-.3-.2-.5-.4-.4-.5.1-.2 0-.5-.3-.7-.4-.3-.4-.3 0-.5.6-.2 1 0 1 .6 0 .3.1.6.3.8.4.4-.1.6-.7.3zm9.3-.1c0-.2 0-.5.2-.5.2-.1.3 0 .3.3s-.1.6-.3.6l-.2-.4zm2.2-.2.3-1.2.4-.6c.4 0 .3 1.4-.1 2-.5.6-.8.5-.6-.2zm2.3-.3c0-.2.1-.6.4-.9.5-.6.5-1.2 0-1.7-.6-.4-.5-.8 0-.8.7 0 1 .8.8 2-.2.7-.2.7.9.7.5 0 1 .1 1.2.3.2.2 0 .3-1.5.4a5 5 0 0 0-1.4.2c-.3.1-.4 0-.4-.2zM110 15.7c0-.2 0-.5-.2-.7 0-.3 0-.4.3-.4.6 0 .8.4.3 1-.2.1-.4.2-.4 0zm96-.5c0-.7.5-1.1.8-.7.3.3-.1 1.4-.5 1.4-.2 0-.3-.3-.3-.7zm12.6.3c.2-.3 1.2-.8 1.4-.5.3.3-.3.9-.9.9-.4 0-.6-.1-.5-.4zm-16.6-.3c-.4-.4-.2-.6.4-.6.5 0 .7 0 .5.4-.1.4-.6.5-1 .2zm-104.6-1c.8-.7 1.2-.8 1.2-.5 0 .2-1.2 1.1-1.6 1.1-.2 0 0-.2.4-.6zm21.2.4c-.3-.4.2-1.3.7-1.4.6-.2.5-.3.2.8-.3.8-.6 1-.9.6zm7.6-.7c.2-.1.6-.1.8 0h-.8zm57.8-.6-1-.7-1 .6c-1.2.6-2 .7-2 .3 0-.2.3-.3.6-.4l1.3-.6c.8-.4.9-.4 1.8 0 1.2.6 1.7.6 2.6 0 .4-.4.9-.6 1-.5.3 0 .6 0 .9-.4.5-.5 1.4-.7 1.4-.2 0 .1-.2.3-.4.3-.3 0-.7.2-.8.5-.2.3-.6.5-1 .5a4 4 0 0 0-1.4.6l-1 .7zm-56.4.2c-.2-.2-.1-.4 0-.5.2 0 .4-.2.4-.3 0-.3-1.3-.3-1.5 0-.2.4-1.7.3-1.9-.1-.2-.7.3-1 .7-.6.4.6 1 .6 1.4 0 .2-.2.5-.3 1.1-.2.7.1 1 0 1.9-.7.6-.6 1-.7 1-.4 0 .2-.4.6-.8 1-.4.3-1 .8-1.1 1.2-.5.8-1 1-1.2.6zm59.5 0c.8-.3 3.9-.6 3.2-.3l-2.1.4h-1zm16 0c0-.7 2.7-1.1 3-.5.2.1-.2.2-.9.2-.6 0-1.3.2-1.6.3-.4.2-.5.2-.5 0zm-80.7-.4a3 3 0 0 0-1-.4c-.4 0-1.1-.7-1.8-1.8-.3-.3-.7-.6-1-.6-.6 0-.7.1-.4.5.4.8.3 1.1-.3 1.1-.3 0-.5-.2-.6-.9-.2-.7-.3-1-1-1-.7-.2-1.8-1.1-1.5-1.4.1-.1.5 0 1 .4.6.4 1.3.6 3.2.7h2.4c0-.3-1.8-1.3-2.7-1.5-.6 0-1-.3-1-.6 0-.4 0-.5.7-.3l1.6.4c.7 0 1 .3 1 .6 0 .2.2.6.5.8.7.5.3 1.2-.7 1.2-.4 0-.8.2-.8.3 0 .1.2.3.4.3s.5.3.6.6c0 .4.3.7.6.7.7 0 1.9.6 1.9 1s-.3.4-1 0zm-15.7-.3c-1-.5-1.6-1-1.4-1.3l1.1.5c1 .7 1.7.9 1.7.5l.4-.7c.4-.5.4-.5.1.2-.2.8-.6 1.2-1 1.2l-1-.4zm109.2-.7c0-1.4.5-1.6.7-.3 0 .5-.1 1-.4 1.2-.3.3-.4.1-.3-1zm-24.4.7c.2-.2 1-.4 1.9-.6.9-.2 1.6-.5 1.9-.8.2-.3.6-.5 1.1-.5 1 0 3-1.1 3-1.6 0-.2.2-.3.5-.2.4.1.9 0 1.2-.2 1-.6 5-1.7 6-1.7 1.1 0 4.6-.7 5-1a27 27 0 0 1 6.9-.1c.6.4 0 .7-1.4 1-.8 0-2.3.3-3.5.5-1.1.2-2.8.4-3.8.4-.9 0-2.2 0-2.8.2l-3.3.7c-1.3.2-3 .7-3.9 1.2l-2.4 1c-1.5.6-1 .9 1.2.8 1.3 0 2.2 0 2.2.2 0 .1-1.3.3-3.3.4a142.1 142.1 0 0 0-6.5.3zm29.5 0c-.1-.2 0-.4 0-.4.2 0 .4.2.4.3l-.1.3-.3-.3zm-82.6-.7-.7-1.5c-.2-.7-.4-.8-.9-.7h-.6c0-.3 1.3-1 1.4-.8.3.3 1 1.8 1 2.1 0 .3.3.6.6.8.8.3.9.7.2.7-.3 0-.7-.3-1-.6zm79.6-.6c-.2-.4-.7-1-1.1-1.3-1-.6-.7-1 .3-.8 1 .2 1.5.9 1.5 1.7 0 1-.4 1.2-.7.4zm-14.6.2c.5-.4 2.7-.4 2.5 0l-1.5.2c-1 0-1.3 0-1-.2zm-88.4-.3c-.3 0-.7-.3-.7-.5-.2-.4.5-.4.9 0l1.1.4c1 .3 1 .3.2.3-.5 0-1.1 0-1.5-.2zm38.1 0c-.6 0-.6-.1-.4-1.9.2-1.7.2-1.8-.4-1.8-.3 0-.5 0-.5.2l-.3.6c-.2.3-.4.2-1-.4l-.8-.8.5-.6c.7-.7 1.1-.8 1-.1-.2.5.4.8 1.7.8.9 0 1 .2.7 1.3-.2 1.1 0 2.4.4 2.4.2 0 .7-.4 1-.8.8-1 1-.8.3.2-.7 1.2-.8 1.2-2.2 1zm67.7-.1c-.3-.3-.6-.4-.8-.4l-.8-.4c-.2-.4-.2-.5.1-.9.6-.5 1.4 0 1.8 1 .4 1 .2 1.3-.3.7zm-6.3-.4c0-.2.2-.2.4-.1l.4.2-.4.1c-.2 0-.4 0-.4-.2zm-87.9-.3c0-.1.4-.3.7-.3.4 0 .6.1.5.3l-.6.3c-.3 0-.6-.2-.6-.3zm-1.8-.5c0-.2.1-.3.3-.3.1 0 .2.1.2.3 0 .1 0 .2-.2.2a.3.3 0 0 1-.3-.2zm22.5-.2-.1-1.3-.3-2.5c-.2-1.4-.1-1.7.1-1.4.4.3.8 5.6.5 5.6l-.2-.4zm-19.1-.3c-1-.1-1-.6-.2-.6.4 0 .8-.1 1-.3.4-.4.6.1.2.6-.2.2-.6.3-1 .3zm27.5-1.2c-.3-.4-.7-.7-.9-.7-.2 0-.4-.2-.4-.4 0-.4.2-.4.8-.3.5 0 .9 0 1.7-.8.9-1 1-1 1.6-.6.9.4.9.8 0 .8-1 0-2 .8-2.2 1.9l-.2.8zm-28.4-1 .3-.2.1.2c0 .2-.1.3-.3.3-.1 0-.2-.1 0-.3zm32.5-.5c-.3-.4-.3-.6 0-.7.2-.1.4-.5.5-.8 0-.3.3-.5.7-.6.4 0 1-.4 1.6-.8 1-1 .9-.9 1.7-.5.4.2.9.2 1.8-.2 1.3-.4 1.7-.3.9.3-.6.5-1 .6-3.1.8-1.1.1-1.6.3-1.8.7-.2.4-.2.5.4.5.4 0 .7.1.7.3 0 .2 2.3.2 3.4 0l-.1-.5c-.2-.5.6-.9 2-.9.5 0 1-.1 1-.3 0-.1-.1-.2-.3-.2l-.2-.4c0-.3.2-.3.9-.2.7 0 .9 0 1-.4.2-.7-.4-1-1.6-.7-1 .2-1.1-.1-.5-.7.3-.2.4-.6.4-1 0-.6.1-.6.6-.5 1.3.4 2.1.5 2.5.2.5-.4 1.2-.2 1.2.3 0 .2.4.5.8.6 1 .3 1.3 1.1.7 2-.3.5-.3.8-.2 1.3.2.4.2.6 0 .6l-1.6.5c-.7.3-1.4.3-1.7.2h-1.7c-.9 0-1 0-1-.3s-.3-.5-.9-.5c-.8 0-1.3.4-.7.7.2 0 .2.2 0 .4-.3.2-1.5.2-3.5.2-2.3 0-3 0-3.3.3l-.2.5v.2l-.4-.4zm13.5-1.7c1.2-.5 1.4-1 .7-1.4-.7-.5-.7-.9.1-.9.4 0 .8-.1.9-.3 0-.2 0-.2-.2-.1-.3 0-.8-.2-1.2-.6-.6-.6-1-.7-2-.7-1.4 0-1.5.1-.8.8.6.5.5 1-.5 2.1-1 1-1 1.3.3 1.1l1.2.1c.2.4.4.3 1.5-.1zm-52.3 1c-.3-.4 0-.5 1.1-.4.6 0 1.1.2 1.1.3 0 .3-2 .4-2.2 0zm5.3-1-1-.6c-.6-.3-.8-.5-.6-.6.4-.4 1.4 0 2 .7.6.6.2 1-.4.5zm18-.3c.4-.2.7-.4.8-.3.2.2 0 .3-.7.6l-.7.2zm-8.7-.2c-.5-.4-.7-1.2-.3-1.2.2 0 1.4 1.2 1.4 1.4 0 .3-.7.1-1.1-.2zm23-.2c0-.3 1.1-.6 1.3-.4.2.2-.4.7-1 .7 0 0-.2-.1-.2-.3zm-29-1V3a13 13 0 0 1 4.7-.1c0 .1-.7.3-1.5.4-.8 0-1.8.2-2.2.3-.5.1-.8 0-1-.1zm22.5 0c-.3-.2-.2-.4.4-1.1.5-.5 1-1.3 1-1.7.3-1 .7-.9.6.2 0 .6 0 .8.3.7 1.2-.3 2-.3 2.5.1s.5.5-.4.3l-1.6.1c-.3.2-1 .3-1.3.4-.5.1-.8.3-.8.7 0 .6-.2.6-.7.3zm-1.3-2c-.3-1.4-.3-1.8.2-1.3.2.1.2.8.2 1.4v1.2zm-11.3.4 1.7-.5c1.1-.1 2.3-.4 2.6-.5.5-.1.6 0 .5.2-.2.7-4.2 1.4-4.8.8zm17.5-.7c-.4-.4-.2-.7.3-.6.3 0 .6.2.6.3 0 .4-.6.5-.9.3zm6.4 0c0-.4.7-.7 1.5-.7.4 0 .6.2.6.4-.2.4-2 .6-2 .2z"/>
</svg>
