<?xml version="1.0" encoding="utf-8"?>
<svg xmlns="http://www.w3.org/2000/svg" xmlns:svg="http://www.w3.org/2000/svg" version="1.1" viewBox="0 0 157 133">
  <title>Mr. Tod walks up the open hillside towards the edge of the trees.</title>
  <path d="M129.2 131.8a4677.7 4677.7 0 0 0-94.4-.3l-15.9-.3c-13.2-.2-17.6-.3-18.2-.5a171.9 171.9 0 0 1-.5-18c.2-1.7.2-5.4.1-8A2319.1 2319.1 0 0 1 .3 2C.2 1 .5.6 1.5.5A374 374 0 0 1 29.4.1c6.5.2 30 .3 74.8.2a2167.5 2167.5 0 0 1 52.5.8c.2.3.2.4-.1.5-.4.1-.4.3 0 1.5.2 1 .2 2.4 0 6v8.6A4654.3 4654.3 0 0 1 156 119a75 75 0 0 1-.9 12.4c-.4.4-6.3.9-11.6.8l-14.4-.3zm-58.6-2.3c6.2 0 12.6 0 20.8-.2 9.8-.2 20.7-.2 41.7 0 12.3.2 16.2 0 17.7-.7 1-.5 1.3-1.7 1.3-4l.4-5.3.5-6.5v-2.7l-1.5-.1c-1 0-1.5-.2-1.5-.5s.4-.4 1.4-.4c.8 0 1.5 0 1.6-.2l.3-2.6c.1-1.8.1-2.5-.1-2.5s-.3.2-.2.5c0 .3-.2.6-.7.8-.6.3-.9.3-1.6 0-1.1-.6-1.3-.6-2.4 0-.9.4-1 .4-2.5 0l-2.5-.6c-1-.2-1.2-.5-.7-.8.4-.3-.2-1.1-1-1.3-.5-.1-.6-.3-.4-.8.3-1 1-1.7 1.7-1.7.9 0 1.6.7 1 1-.2.2-.6.2-.8.1-.3 0-.5 0-.6.2-.1.1 0 .3.2.3.3 0 .5.1.6.4.2.5.6.5 1.8-.2 1.4-.7 1.6-.6 2 .3l.2.8.8-.5c1.1-.7 4-1.9 4-1.6 0 .5-1.5 1.8-2.2 1.8-.3 0-.8.3-1.1.6l-.5.6 1-.2 1.4-.3c.8 0 1.7-.7 1.7-1.3 0-.3.2-.4.5-.4.6 0 .6-.1.4-3 0-1.7-.2-3-.3-3.1 0 0-.3 0-.5.3-.6.5-1-.3-.5-1 .3-.5.3-.6-.2-.7-.4-.1-.5-.3-.3-.9l-.1-.6c-.2 0-.3.1-.3.4 0 .5-1 1-1.8.9-.4 0-1 0-1.5.2-1 .4-1.5 0-1.5-1 0-.4-.2-.9-.4-1-.5-.5-.4-2 0-2.1.3 0 .4.2.4.8 0 .8.2 1 1 1.5.5.3 1.4.6 1.9.6.8 0 1 0 .9-.5-.1-.6 0-.6.8-.6.5 0 1 .2 1.4.5.6.7.9.7.8-.2l-.3-1.7c-.1-.8-.2-1-.8-.8-.5 0-.7 0-.7-.3 0-.2.2-.4.5-.4.4 0 .6-.4.8-1.3.6-2.5.6-3.4.2-3.8-.4-.2-.4-.2-.4.3s-.2.6-.7.5c-1.3 0-1.4 0-1.7.7-.1.4-.4.6-.5.6-.4 0-.3-1.3.1-1.8.4-.4.4-.5 0-.8-.2-.2-.4-.8-.4-1.4 0-1 .2-1.2.7-.5.3.4.3.3.5-.7v-1.9c0-.8.6-1 .8-.1.1.3.3.6.5.5a240.4 240.4 0 0 1-.3-7.2l-.2-2.6-.5 1c-.5 1-.6 1.8-.6 5.2 0 2.2-.2 4-.4 4l-.3-3c0-4 0-5.3.5-5.7a9 9 0 0 0 1.2-3.1c0-.4-.1-.4-.8 0l-1.4.9c-.4.2-1.1 1-1.8 2.3-1 1.8-1 2-1 4.3l.1 2.6.6 1.1c.3 1 .3 1 .2-.7-.2-2 .4-5.5.9-5.2l-.2 2.3c-.2 1.2-.3 2.4-.2 2.6.3.7.5 4.4.4 6.5 0 1 0 1.2-.4 1l-.4-.8c0-.2-.2-.3-.5-.3s-.4.4-.4 1c0 1 .2 1.1 1.2.7.4-.2.5 0 .5.3 0 1-.7 1.8-1.9 2-1 .3-1.2.5-1.2 1-.3 2.2-.4 2.9-.6 2.9-.2 0-.3-.8-.3-1.7 0-1.6 0-1.7-.6-1.8-1.2-.3-.8-.7 1-.8 2-.2 2.7-.6 1.5-.8a3 3 0 0 1-1.2-.7c-2.5-2.5-2.7-2.6-2.6-1.2.1.6-.3.6-2.2.2l-2.8-.3c-.7 0-1-.2-1.2-.4 0-.3-.4-.4-.6-.4-.7 0-.7 1.6 0 2.1.3.3.4.3 0-.1-.5-.6 0-1.1.6-.6.4.2.4.5.3 1-.2.8-1 1-1.7.3-.3-.2-.9-.4-1.3-.4-.6 0-.9-.2-1-.6-.7-3.7-1-10.4-.7-20.1a61.7 61.7 0 0 0-.4-11.3s-.2 0-.3.3c-.1.2-.2 2.4-.2 4.9 0 5-.3 8.5-.7 8.3-.2 0-.3-.3-.2-.5.3-2.4.4-4.8.3-7.7-.2-3.7-.5-6.4-.7-6.2a145 145 0 0 0-.1 15.6c.3.4.6 4.1 1 12 0 2.4.3 3.8.5 4.2.2.3.3.6.2.7-.2.1 0 .2.3 0 .4 0 .6 0 .8.5.1.4.5.6 1 .7.8 0 .9.4.3 1.1-.4.4-.6.4-1.7.1-1-.2-1.2-.4-1.2-.9 0-.3 0-.5-.3-.4-.2 0-.7-.3-1.2-.8s-1-1-1.4-1c-.5 0-2.3-1.4-2.3-2 0-.2-.5 0-1.3.5a6 6 0 0 1-1.8.8 7 7 0 0 0-1.6.4c-1.6.6-2 .5-1.8-.3 0-.7.2-.7 1.5-.8 1.6 0 3.6-.8 4.2-1.6.4-.4.4-.4-.2-.3-1.6.5-2.1.5-2.1.3s.2-.4.4-.4l1.8-.5c1-.3 1.2-.4 1-.9v-2l-.1-1.4-.4 1.5c-.5 2-.8 2.4-1.3 2-.2-.2-.4-.5-.4-.8 0-.3-.1-.5-.2-.4-.2.1-.3.4-.3.7 0 .6-.3.7-1 .2-.5-.3-.7-.3-1 0-.3.4-.7.4-.7 0 0-.3.6-.7 1.3-1 .7-.3 1.3-.7 1.4-.9.3-.4.3-1.4 0-1.6-.4-.3-1 .3-1 1 0 .2-.5.6-1.2 1-1.4.6-1.7.6-1.9.1 0-.2-.3-.4-.4-.4-.3 0-.2.1 0 .4.3.3.2.5-.6.8-.5.2-1 .5-1.1.7-.3.4-.6.3-.8-.3 0-.5-.3-.5-1.5-.5h-1.4l.9.5c1 .7.7 1-.7.7-.6-.2-.9-.3-.9-.7 0-.4-.2-.6-.7-.7-1.3-.3-1.4-.3-1.4-.8 0-.3.2-.3 1-.2 1 .1 2-.2 2.4-.7.3-.3 1.9 0 1.9.4s1 .3 2.7-.3c.6-.2 1.2-.3 1.4-.2.2.1.6 0 .8-.1.4-.2.2-.3-.8-.3-1.5 0-2.5-.2-2.5-.6 0 0 .8-.2 1.7-.1 1.4 0 1.8 0 2-.5.2-.3.4-.4.7-.1.5.5 1.6-.2 1.8-1.2a29 29 0 0 0-1.6-8.3l-.1 2.8c0 2.3 0 3 .4 3.4.5.5.5 2.6 0 2.4-.2 0-.3-.4-.4-.7 0-.4-.2-.8-.3-1-.2-.2-.3-2.2-.3-4.5 0-4.1-.2-5.6-1-6a24 24 0 0 0 .3 7.5c.2 2 .1 2.7-.4 2.2-.2-.2-1-10.5-1-13.1 0-1 .7-.5 1 .5 0 .6.4 1.7.9 2.6l.7 1.6-.1-1.9c0-1-.2-2.5-.4-3.3v-1.7c.3-.3 1 .9.7 1.5a68.2 68.2 0 0 0 2.2 13.9l.2 1V73c.1-.4.3-.9.5-1 .6-.2.5-2.3 0-2.6-.5-.2-.5-.9.1-2.7.3-.8.6-2.7.7-4.2.2-2.7.3-3.1.6-2.9.2.1-.3 5.8-.6 6.8l.1.6c.2.1.2 1.7.1 4.3-.1 3.4 0 4 .2 4 .3 0 .4.4.5 2.2.3 4.5.6.9.6-8.5a128.9 128.9 0 0 1 .5-14.4c0-2.8 0-4.7.3-4.8.1 0 .2 2.4.2 7.3 0 5 .1 7.6.3 8 .6 1 .7-.1.8-6.5a99.4 99.4 0 0 1 .5-10.2c0-.5.5-.3.6.3 0 .4 0 .5.1.2 0-.3 0-1.4-.3-2.6a27 27 0 0 1-.4-2.7c0-.8.5-.6.6.3a1590.3 1590.3 0 0 1 2 12.2c.5 2.4.5 4.7.7 16.8 0 4.6.1 8.4.2 8.5.1 0 .2-.5.2-1.3 0-2.6.5-2 .7.9v3a73.8 73.8 0 0 0 .5-9.7c0-9.1.2-13 .6-12.6v11.1c0 6 .1 11 .2 11 .4 0 .9-1.7.6-2-.4-.5-.2-7.5.3-7.7.3-.2.3-1.8.1-9-.3-8.8 0-14 .5-14.5a161 161 0 0 0 .2 18.6c.1.3.2 3 .2 6.2-.1 7.3 0 8.8.6 8.6.3 0 .4-.3.3-.8-.3-2.5-.3-7.7 0-9.3.3-2.4.8-4.4 1-4.8.2-.4.5 2 .5 4.7 0 1.7.2 2.7.4 2.8.2.1.2-.5.1-2.2l.1-3.6c.5-2.1 1-7.2 1.2-11.9.1-2.7.3-4.7.4-4.7.2 0 .2 1.2.2 3.1-.1 1.7 0 5.7.1 8.9.3 5.3.3 5.7.8 5.8.4.1.8-.2 1.6-.9.5-.6 1.1-1 1.2-.9.5.3 1.1-.2 1.6-1.5a40.9 40.9 0 0 1 2.2-5c.5-1.4-1.4 1.2-2.4 3.4-.6 1.2-1.2 2.2-1.3 2 0 0 .1-.6.5-1.3 1-2.2 1.3-3 1-3-.4 0-1.3 1.2-2 2.7-.7 1.8-1 2-.5.2.4-1 .4-1-.1-1-.7 0-1-.6-.4-1l.4-.8c0-.4 1-1.6 1-1.3 0 .1-.1.5-.4.9-.2.3-.3.7-.2.8.2.2 1.5-1.2 2.2-2.4.6-1 1-1 .4 0-.5 1-.2 1 .6.2.7-.8 2.5-4.1 2.5-4.7 0-.3 0-.5.2-.5.4 0 .3.7-.1 2l-.4 1.1c0 .4 1.7-1.2 2-2l.7-.8c.4 0 .4.4-.2 1.8a5.8 5.8 0 0 0-.4 3.3c.1 1.8.5 1.9.5.1 0-.4.2-.7.4-.8.4-.2.4-.8.4-3.8 0-2 .1-4 .3-4.5V51l-.1-2.5-.5 1.6a23 23 0 0 1-1.8 5c-.8 1.4-.8 1-.1-.8.4-1 .7-2.2.8-2.8l.2-1.1-.9.8-1.5 1.1c-.4.3-.5.5-.6 1.7 0 1.8-1.1 5.9-1.6 5.9-.2 0-.6.6-.9 1.4-.5 1.4-.8 1.9-1.3 1.9 0 0 0-.5.3-1l.7-2.1.6-1.4c.4-.2 1.7-3.2 1.6-3.4-.3-.2-1 .5-1.2 1.4-.3.9-1.7 1.8-1.8 1.2-.1-.2-.2-.2-.5 0-.6.5-.6 0-.2-1.8.6-2.1 1-2.4.8-.6-.2 1.4-.2 1.4.1.7.2-.5.5-.8.7-.7.3 0 .3-.5.2-2.3l.1-2.4c.2 0 .3.5.3 1.2 0 .6 0 1.1.2 1.1l1.6-.9c1.8-1 3.2-2.4 4.1-4.2l.8-1.2.1-8.2a33 33 0 0 0-.2-8.2c-.4 0-.9-1.4-.6-2 .4-.8.8-7.2.7-10.7v-7c-.1-3.2-.2-4.2-.5-4.4-.2-.2-.4-.6-.4-1s-.2-1-.4-1.3c-.3-.5-.5-.5-10.2-.6h-9.8v1.4c0 1.9-.5 5.5-.7 5.8a13 13 0 0 1-.1-3.5c.1-3.3 0-3.7-.3-3.7-.8 0-1 1-1.6 6.6-.5 4.5-.6 4.8-1.2 4.8-.3 0-.5-.4-.8-1.6l-.3-2.2c0-1.2.5-.8.7.5.1.7.3 1.1.4 1L129 9l.4-4.4.2-1.4h-11.2c-6.2 0-15.4 0-20.6-.2L67 3H45.8v.9c0 .9-.4 1.8-1.5 3.4-.9 1.3-.8 1.7.2.7 1-.9 1.5-2 1.5-2.7 0-.3.1-.6.3-.6.1 0 .3.5.3 1 0 1.2-1.4 3.1-3 4.1-.5.3-1 .9-1.1 1.2-.2.5-.4.6-1 .6-1.2-.1-1.6 0-1.5.4.3.8-.2 1-3.2 1-2.1 0-3 0-3.1-.2 0-.2.3-.4.7-.6.8-.1.9-.2.3-.3-1.2-.3-.6-.7 1.3-.9 1.8-.1 4.7-1 5.5-1.6.5-.4-1.4-1-2.4-.8-.4 0-1 0-1.2-.2-.5-.3-.7-.2-1.4.4-.5.4-1 .7-1.2.7-.2 0-1.1.3-2 .8-1.5.7-5.2 2.1-5.8 2.1-.6 0-.2-.5.5-.7 1.1-.3 4.8-1.7 4.8-2h-2c-2 .2-3.6 0-3.2-.4 0 0 1.8-.3 3.8-.4 2.7-.1 3.7-.3 4.3-.6l.7-.5-.7-.2c-.3 0-.7-.3-.7-.4-.1-.4 3.4-.4 3.6 0l2 .7 1.9.5.7-.8.7-1.1.5-1c.8-1 .7-1.5-.1-.5-.5.5-1 .8-1.4.8l-4.4-.2c-2.8-.1-3.5-.2-3.3-.5.1-.2.7-.3 1.5-.2 1.4.1 3.8-.6 4.9-1.5l.6-.5h-2c-1.6 0-2 0-3 .7-1 .6-1.6.6-1 0 .6-.6.3-.7-1.7-.7-1.5 0-2.1 0-2.3.4a5 5 0 0 1-2 .8l-2 .5c-.3.1-.4 0-.4-.2 0-.3.4-.6 1-.7 2.5-.7 2.6-.8.6-.8h-1.9l-.5 1c-.3.6-.8 1-1 1-.3.1-1 .5-1.5 1-1 1-1.5 1.2-1.5.7 0-.2 1.1-1.2 2.5-2.2 1.4-1.1 1.3-1.5-.7-1.6-2-.1-2.2 0-2.6.9-.3 1-.8 1-.7-.1v-.9h-4.4L17 7c0 2.6 0 4.3.2 4.4.2.2.3.1.3-.3s.1-.6.4-.6c1 0 1.5-.8 1.4-3.2 0-3.2 0-3.7.3-3.5l.3 1.8c0 .9 0 2 .2 2.4l.1.8 1-.9c1.6-1.3 1.7-.8.2.6-.9.9-1.3 1.5-1.3 2 0 .7.2.7 1 0C22.5 9 24.6 7.8 24.7 8c0 .2-.2.5-.5.8-.4.4-1 1-1.3 1.5-.5.9-1.8 2.4-3.9 4.5l-1.2 1.3-.2 3c0 1.7 0 3 .1 2.8.2 0 .3-.3.3-.4l1-2.9c1.2-2.7 3.1-5.8 3.6-5.8.2 0 1-.7 1.8-1.6.7-.9 1.6-1.7 1.9-1.9 1-.5.7.2-1 1.9-2 2-3.4 4-5 6.7-1.6 2.6-2 4-2 6.4v1.9l.4-1.3c.2-.7.5-1.2.8-1.2.4 0 .4.1 0 1.4-.5 1.4-.6 2.5-.1 2.5.9 0 2.5-2.7 3.5-6.1.1-.3.3-.5.5-.5.5 0 .5 0-.1 1.5-.7 1.6-.7 1.8.1.5.4-.6.7-1.4.7-2 0-.5 0-.8.3-.7.8.3.3 2-1.2 4.2-.8 1.2-1.4 2.3-1.2 2.3.1 0 .9-.3 1.7-.8 1.6-1 4-3.6 5.2-5.7 1-1.8 1.6-2 1-.3-.2.5-.1 1 .1 1.4.5 1 .3 1.4-.4.8-.5-.5-.6-.5-1.6.6-1.2 1.3-1.3 1.6-.3 1.5 1.6-.3 2-.4 2-.8 0-.3 0-.4.6-.2.6.1.9 0 1.7-.9 1.3-1.3 1.6-2.4.8-3-.6-.5-.5-1 .2-1 .5 0 1.1 1 1.1 1.8l-.6 1.6c-.4.6-.5 1-.4 1 .7 0 2.9-1.6 3.6-2.6.3-.5.8-1 .9-.9 1 .7-2.3 3.7-4.8 4.4-.7.1-1.8.5-2.6.8a9 9 0 0 1-2.4.5c-.5 0-1.3.2-1.8.5l-.9.4v6.4c0 3.7-.2 6.4-.3 6.4-.4-.1-1-2.4-.8-2.7.3-.3.6-9.4.4-9.4l-.8.5c-.6.4-.7.6-.6 2.4a25 25 0 0 1-.6 7.1c-.2 0-.2-1.4 0-4.2a21 21 0 0 0-.1-4.2c-.4 0-1.7 1.3-2 2A62 62 0 0 0 21 46h.7c.4-.2.5-.4.4-2.1-.2-2 0-2.7.6-2 .1.3.2.2.4-.3l.5-.7c.2 0-.2 3.8-.6 4.3-.2.3-.2.7-.2 1 .2.5 1.1 1 1.4.6.2-.1.3-1.5.4-3 0-2 .1-2.8.4-2.9.2 0 .3.7.3 3.3 0 2.1 0 3.3.3 3.3s0-8.6-.3-11c-.2-1.4-.2-1.7.2-1.3.3.2.6 3.3 1 10.3.2 2.3.3 2.6.7 2.7l.7.1c.2 0 0-3.2-.5-8.4-.5-5.4-.7-8-.3-7.7.2.2.7 4.6 1.4 12.4.3 3.5.5 4.5 1 4.5.6 0 .6-11 0-11.5-.3-.2-.3.1-.2 2.5.1 2.9 0 3.7-.3 3.7l-.3-4.4c0-3.5 0-4.9-.5-6.7-.3-1.2-.5-2.8-.5-3.5 0-1.2 0-1.3-.5-1.3-.3 0-.7-.2-.8-.4-.2-.6 0-.7.8-.4.6.2.8.2 1.3-.3s.6-.5 1-.1c.3.3.3.5 0 1-.4.9-.2 7.7.3 8.8.3.7.4.5.7-3.1l.5-4.1c.4-.4.4.6 0 4.8-.2 3.9-.2 4.7.1 5 .3.4.3.6-.1.9-.5.3-.5.6-.3 4.6.1 3 .3 4.4.5 4.7.6.6 1-2.2.7-4.8-.2-1.8-.2-2.3.1-3 .2-.3.3-1 .3-1.4l-.5-12.4c0-.2.1-.5.3-.5.2 0 .3 1 .4 3.7 0 3 .2 4 .4 4.1.3.2.4.7.2 2.3l-.1 2.1.8-1.7c.8-1.7 1-2.6 1.5-8 .1-1.2.4-2.2.5-2.4.6-.5.7.5.3 2.5-.3 1.4-.3 2.1-.1 2.4.2.3 0 1.1-.3 2.8-.4 1.2-.6 2.5-.6 2.9 0 .3-.3.7-.6 1-1 .9-1.3 2-1.1 4 .2 2.2.6 2 .6-.4 0-1 .1-2 .3-2 .4-.3.5.7.2 3.2-.2 2.4-.2 5.3.2 6h.5c.3-.1.4-.6.4-1.8 0-.9.2-2.3.4-3l.7-5.2c.3-4.2 1-8 1.3-8.5a115.8 115.8 0 0 0-.5 17.2c.4.4.5 0 .6-2 .7-11.5.9-13.4 1.3-13V37c-.6 7.5-.6 10.4-.3 11.9s.7 2.3 1 2V48c0-3.2.3-5.4.8-5.6.2 0 .3 0 .2.4-.3.6-.3 7 0 7.6 0 .2.4.6.8.7.7.3.8.9.1.7l-5.5-1.1a87 87 0 0 0 10.1 3c.8 0 .9 0 1-.7l.3-6c.1-3.2.3-5.4.5-5.3.1.1.2 2.7 0 6 0 3.3 0 6.1.2 6.3.1.2.4.3.8.2l.6-.2-.2-3c-.2-2.6-.1-3.7.3-6.4L51 39c.3-4 .7-3.9.7.3-.1 5 .6 9.7 1.6 10.5.4.3 1 3.1 1 4.6 0 .6.2.9.5.9s.4-.3.2-1.6c0-.8-.2-1.8-.3-2.2-.1-.6 0-.8.4-1 .4 0 .5-.3.7-1.6.4-3.7.6-5.4.9-5.6.4-.4.4.7-.1 4.1l-.3 3c.2.2 1-2 1-3s.2-1.7.6-1.7c.2 0 .4-.1.5-.3.5-1.4 1 4 .8 7.8-.1 2.7-.1 3.1.2 3.1.5 0 .7-1 .7-3 0-.6.2-1.2.3-1.2.3 0 .6 2.2.4 3.5-.2 1.2-.2 1.2.7 1.3l1.8.4.8.1v-2.7c0-1.5.1-2.9.3-3a34 34 0 0 0-.8-7.8c-.4-1.3-.7 2.3-.3 3.8.3 1 .3 1.3 0 1.5-.2.1-.3.8-.1 2.9.1 2.5 0 2.7-.3 2.6-.5-.1-.5-.5-.5-4.5a52.8 52.8 0 0 1 .5-9l-.1-2.4c0-1.4.6-2.9 1.2-2.9.5 0 .5.8 0 1.5-.5.6-.5 1.8-.2 3.4a45 45 0 0 1 1 6.4c.2 1.4.4 2 .5 2 .4 0 .6 1 .7 3.1l.4 3.3c.4 1.8.4 2.7-.2 2.5-.2 0-.4-.9-.6-2-.4-4-.7-4.4-.6-1 .1 2 .2 3.2.4 3.3.5.3 5.7 1.1 5.9.9.3-.3-.4-10.2-.7-10.4-.1-.1.2-1 .7-2.3.8-1.9.8-2.4 1-5.4 0-1.9.2-3.4.3-3.4.3 0 .6 2.8.4 4.6 0 .9-.4 2.3-.7 3.2-.6 1.8-.7 4.8-.2 5 .3.1.3.2 0 .3-.4.2-.4 1.2 0 1.9.4.4.5 1 .4 3.6V59c.2-.4.3-1 .3-1.6 0-1 .5-1.1.7-.2.4 1.8.4 2.4.1 2.7-.2.3-.2.4.2.5h.6a99.5 99.5 0 0 1-.5-17.2c.2 0 .3.4.3 1.7a49.6 49.6 0 0 0 1 12.5c0 1 .3 1.6.7 1.6.4 0 .5-5.4 0-5.7-.2 0-.2-.3 0-.7.3-.3.4-1.7.4-4 0-2 .1-3.4.3-3.5a170 170 0 0 0 .7 14.2c0 .2.2 0 .6-.6.6-1 .6-1.6.2-1.5-.4 0-.7-2.5-.7-7.4 0-2.2 0-3.5.2-3.5s.3.8.3 2c0 2.6.3 4.5.6 4.4.2 0 .4.3.5.8 0 .5.1.2.2-1.2 0-1.2-.1-2.1-.3-2.2-.1-.1-.2-.4 0-.8l.2-2c0-1.4.5-2.1.5-.7 0 2 1.2 0 1.4-2.4 0-.9.2-1.6.3-1.6.5 0 1 1.9 1 2.8-.2.6-.1 1 .2 1.3.5.5.6 2.6 0 2.8-.2.1.8 1.3 1.2 1.3.2 0 .3-1 .3-2.2 0-2.5.4-5.5.8-5.5.2 0 .2.4.1 1.1-.3 2-.4 7-.2 6.3.2-.4.3-1.5.3-2.5 0-2.5.8-2.3.8.2 0 1.2.4 2 .8 1.6l.7-1.6c.4-1.4.4-1.4-.3-2.7-.7-1.4-.8-2.1-.4-2.1 0 0 .5.7.8 1.6.4.9.8 1.7 1 1.7.2.1.3 0 .2-.1l-.4-1.7a5 5 0 0 0-.8-2c-1-1.1-1.3-2-1.2-4.2 0-1 .2-2 .3-2.2 0-.2 0-.2-.3-.1-.4.1-.9 1.6-1.3 3.7-.1.5-.3.9-.4.9-.5 0-.5-1 .1-2.9.5-1.5.5-2 .3-2.1-.6-.1-3.1 1.2-4.2 2.2-.5.6-1 .9-1.2.8-.2 0-.4-.6-.5-1.1-.3-1.7-.8-2.4-1.7-2.6-2-.4-3 0-3.5 1-.3.7-.6.5-1-.7-.6-1.3-.7-1.4-2.7-1.7-1.2-.1-1.6 0-2.8.6l-1.4.8-.5-.7c-.4-.5-1-.8-1.4-.8-.7-.1-.8-.2-1-1.3 0-.7-.2-1.3-.3-1.5-.4-.7-1.9-1.1-3-1-1.1.2-2.3-.2-2-.7.2-.4 3.8-.2 4.6.2.8.4 1.8 1.8 1.8 2.5 0 .3.5.8 1 1.2 1.2.6 1.2.6 1.9.1 1.8-1.3 5.8-.4 6.4 1.3.1.4.3.3.7 0 .7-.7 2.6-.7 3.8 0 .5.2 1.1.8 1.4 1.5l.6 1.1 1-.6c1.3-1 3.6-2 4.5-2 .9 0 2.9-2 3.6-3.5.6-1.2 1-1.7 3.4-4 1.7-1.8 2.3-2.2 4.3-2.5l2.4-.6c1-.2 1.4-.2 1.8 0 .6.3.8.2 2.4-1.5 1.7-1.8 2.2-2.2 2.5-1.7.1.3-.8 1.6-1.4 2-.4.3-.9.7-2.8 2.9-1 1-1 1.2-1.2 2.8-.1 2-.3 2.4-1 1.9-.5-.5-1.2.1-2 2-1.4 2.6-1.5 3.7-.8 6.3.2.6.3 1.8.3 2.6 0 1 .1 1.5.4 1.6.5.2.5.8 0 1.3-.7.5-1-.3-1.3-2.5a13 13 0 0 0-.7-3.2c-.5-1.2-.5-1.3-.1-3 .5-2.4 1.2-3.9 2.6-5.4.7-.6 1.3-1.6 1.5-2.2.2-.5.5-1.1.8-1.3.2-.2.4-.4.4-.6l.3-.7c.3-.9-1-.8-4.6.3-2.4.7-6.1 4.7-6.5 7-.1.5-.4 1-.5 1h-.7c-.2 0-.6.4-.8.7-.3.5-.3.6 0 .4.7-.2.6.4 0 1.5-.5.6-.6 1.2-.5 2.9 0 2.3.2 2.7 1.5 4 .8 1 .9 1 .6 1.7-.6 1 .2 3.5 1.3 4.1.5.3.5.6.5 3.4 0 3.2.5 6.3 1 7.4.2.3.4 2.1.5 4.2.1 3.6.2 4 .6 4 .3 0 .3-.3.3-4 0-1.7 0-2.8.2-3 .2 0 .3.4.3 1.6 0 2.8.3 6 .6 6 .2-.1.3-1.4.4-3 0-1.6.2-3 .3-3.2.2-.2.3-.8.3-1.4 0-.6.2-1.5.4-2 .3-.7.4-1.9.4-3.6 0-1.6.1-2.7.3-2.7.1 0 .2 1 .2 2.2 0 1.2.1 2.3.3 2.5.2.2-.1 2.2-.7 3.6l.1.4c.2 0 .3.5.3 1.2 0 1.3.2 2 .6 2l.1-2.4c0-1.8 0-2.4.4-2.6.2-.1.3-.4.1-1 0-.4 0-.6.3-.6.4 0 .4-.2.3-1.3l-.4-3c-.1-1.7-.2-1.8-1-2-.5-.2-1-.3-1.1-.2-.2 0-.4 0-.6-.3-.5-1-.7 0-.6 3.9 0 4 0 6-.5 6-.1 0-.2-1.1-.2-2.7l-.1-2.8c-.8 0-1 .5-1 1.9 0 .9 0 1.6-.2 1.6s-.8-5.6-.8-7.7c0-2 .4-.8.6 1.5.2 2.5.4 3.3.4 1.2 0-1.7.3-3.2.6-3.2.2 0 .2.7.2 1.8v2c.2.1.3-.8.3-2 .1-3.2.1-3.3.5-3.4.6-.2 1.6.2 1.6.8l.1.5 1 .4 1 .4-.1-1.8c-.2-2.2 0-4.3.5-4.3.2 0 .3.8.3 2.7 0 2.6 0 2.8.8 4.2.7 1.2.9 1.8 1 3.7l1.2 9.8c.2.5.3 2.4.3 4.3 0 3 .1 3.4.5 3.6.7.4.9 0 .5-1l-.2-3.5v-6.5c-.2-3.7 0-4.9.4-2.7l.4 6.8c0 3 .2 5.7.3 5.8.2.2.2.3.3-3.4 0-1.7.2-4.6.4-6.6.2-3.3.2-3.7-.3-5-.3-.8-.8-2-1.2-2.5a4 4 0 0 1-.6-1.4c0-.2 0-.3-.2-.2-.5.2.1 2.2.9 2.9.5.4.7.7.5 1-.2.1-.4 0-.7-.2-.5-.7-.8-.5-.8.6l-.2 1.6c-.2.6-.2.4-.3-.7l-.1-2.1c0-.4-.4-1.6-.9-2.6a11.8 11.8 0 0 1-1.2-6.5 147.9 147.9 0 0 0 .4-5.8c.4 0 .2-1-.3-1.3-.7-.4-1.2-1.8-.8-2.2.1-.2.3-.3.3-.2l.5 1c.2.4 1 1 1.8 1.5a5 5 0 0 1 1.4 1l-1 .2c-1.4 0-1.7.4-.9 1.2 1.2 1 1.7 1.7 1.5 2-.1.1-.4.1-.8-.2-.6-.3-.6-.3-.9.7-.4 1.2 0 2.5.7 2.3.4 0 .5.2.6 1.8 0 1.4.3 2.2.9 3.2a67.5 67.5 0 0 1 2.3 3.8l.3 1.1v1.2l.3-1.2c.2-1 .2-1.3-.9-3.5-1.4-2.9-1.3-4.1 0-1.4.8 1.4 1.2 2 1.4 1.8.4-.1.4 0 .4.9 0 1.2 1 4.4 1.4 4.1.1 0 .2-.6.2-1.3 0-.8.2-1.2.4-1.3.5-.2.6-3.2.2-3.4-.4-.3-.4-1 0-1 .6 0 1.5 1.9 1 2.1-.2.2-.2 1.2-.1 4.4 0 2.6 0 4.2-.2 4.3-.3.2-.2 2.7.2 3.1.2.2.3 1 .2 2.1-.1 1.7 0 2.5.8 3.6.5.6.7-.3.7-3.2 0-1.6.1-2.9.3-3l.2-1.4c0-1 .2-1.3 1-2.3.7-.8.9-1.2.8-1.6-.1-.4 0-1 .2-1.3.4-.6.4-.7 0-.8-.3-.2-.4-.6-.4-2.3 0-3.3.3-6.6.6-6.6.2 0 .2 1.4.1 4-.2 3.8-.2 3.8.3 3.2.8-1 1.1-2.2 1.5-5.4l.3-2.9-1-1.7a8.7 8.7 0 0 1-1-3.6c0-2.2.5-4 2.4-7.7a12 12 0 0 0 1.4-7c-.1-1.3 0-1.7.2-1.6.2 0 .5.6.7 1l.3 1 .2-1.2v-3c0-1.6 0-2-.5-1.8-.6 0-1-.7-1.1-3.3-.2-2-.3-2.3-.8-2.5-.5-.2-.7-.5-.7-1v-1.1c-.1-.6.4-.4.7.4.2.5.4.8.7.7.4-.1.8 1.3.8 3.5 0 1.1 0 1.2.6 1 1.1-.2 1.3.6 1 4.7-.1 3.5-.6 6.1-1.3 6.9-.2.2-.4.7-.5 1.2l-.8 2c-.7 1.3-.7 2 0 1.3.1-.2.5-.3.7-.3.3 0 .5-.4.8-1.8.2-1.3.4-1.9.7-1.9.3 0 .3.2.2 1.1-.5 2.5-.2 7 .6 9 .2.6.3 1 0 1.1-.5.6-1.4-1.9-1.7-5 0-1.1-.2-2-.3-2-.4 0-2.7 2.4-3 3-.6 1.1-.6 3-.2 4.7.5 2 .8 1.9.8-.4 0-1.5 0-2 .3-2 .7.3.3 9.2-.5 12.6-.2 1-.3 1.9-.1 2.4.2.8.2.8.5.2.2-.4.4-.6.6-.6.5 0 .2 1-.9 2.2a27.3 27.3 0 0 0-2.8 4.1c-.5.8-.6 1.3-.6 3.5 0 1.5.1 2.6.3 2.6 0 0 .3-.8.4-1.8.2-2.6.4-3.5.7-3.3v1a39.4 39.4 0 0 0 .9 9c.2 0 .4.3.4.6 0 .2.3.3.8.3 1 0 1 .5-.1 1-.8.5-.9.5-1-.3-.1-.5-1.8-2.3-2.2-2.3l-.5.4c-.2.3-.6.5-1 .5-.6 0-.6 0-.6-.6s0-.6-.3-.1c-.4.4-.5.4-1 .2-.7-.5-1 .2-.4 1 .3.5.3.8.2.9-.4.2-.8 0-1-.8-.3-.5-.3-.5-.3.2 0 .4-.2.7-.3.7-.2 0-.4-.3-.6-.7l-.5-1.2a31.5 31.5 0 0 1 1.1-12c.3-1 .2-1.3-.2-1.7a3 3 0 0 1-.7-1.3c-.3-1.3-.8-.6-.6.8.5 3.3.5 4.1 0 5.8-.3 1.2-.4 2.6-.3 5 0 3 0 3.6-.4 4-.4.3-.6.3-1 .1a.9.9 0 0 0-.9 0c-.3.2-1 0-2.9-1l-3-1.7a34.2 34.2 0 0 0-9.3-4.7c-3-1.6-4.1-2-4.7-2a58.3 58.3 0 0 0-16.4-5c-5.3-.7-5.4-.8-5.4-1.1 0-.2-1-.5-3-.8-8.2-1.3-10.3-1.7-10.3-2.4 0-.4-1.1-.8-5.7-2l-9-2.7c-.9-.2-1.7-.3-2-.2-.3.2-.1.3 5.7 2.2a47 47 0 0 1 5.1 2c.5.3 2.3 1 4.1 1.5 2.4.6 3.5 1.1 3.9 1.5.3.4 1.3.9 2.4 1.2 2.8 1 4.5 1.8 4.8 2.5.2.4.5.7.8.7.3 0 2.3.9 4.5 2 5.8 2.8 5.9 2.9 6.3 2.3.2-.3.4-.4.5-.3.1.1 0 .4-.1.6-.3.3-.1.5.6 1 .5.2 1 .6 1 .8 0 .2.7.8 1.6 1.3a127.6 127.6 0 0 1 20.5 13.9l6.2 4.4c1.6 1 2.4 1.2 3.1.9.3-.1.7 0 1.2.5.6.6.7.8.4 1-.2.4-.2.4.1.4.3 0 .5 0 .5-.2s.2-.3.6-.3c.7 0 1.5-.9 1.5-1.6 0-.6-.5-.9-.9-.6a9 9 0 0 1-3.9 0 .7.7 0 0 1-.3-.6c0-.3-.3-.4-1-.4-1.2 0-2.5-.6-2.3-1 .3-.5 3.8.2 4.4.8.6.7 2.7 1 3.2.4.4-.6.8-.5 1.5.1l.6.6v-.5c0-.3-.1-.7-.3-.8l-.2-.5c0-.3.1-.4.6-.3.7.2.8 0 1-1.7 0-.4.3-.6.5-.6.6 0 .7 1.8.1 2.7-.2.3-.4.7-.3.8.5.4 3.7-1.6 4.1-2.5.4-1 1-.8.8.2-.2.5-.1.7.1.7.8-.2.3.7-.7 1.3l-1 .6 2.2-.1c1.6-.2 2.6-.4 3.5-.8.6-.4 1.3-.6 1.3-.5.3.2-.6 1.1-1.1 1.1a2 2 0 0 0-1 .4c-.2.3-1 .4-1.5.4a6 6 0 0 0-1.6.3c-.4.1-.2.2.8.4l2.5.2c1 0 1.2 0 1-.6 0-.5.1-.6.8-.5.5 0 .7.2.7.6 0 .4 0 .4.8.4.6 0 .8 0 .8.4 0 .3-.4.6-1 .8-1.5.5-2.3.5-3.6 0-1-.4-1.2-.4-2.1 0-1.1.4-2.4.3-2.4-.3 0-.2 0-.3.2-.3s.2-.2.1-.3c-.2-.4-.9.2-.9.7 0 .4-.4.6-1.8.5-1.1-.1-1.3 0-2.1 1-1 1-1 1-.4 1.4.2.2.6.3.9.2.2 0 .6 0 .9.2.7.5 3.8 1.7 3.5 1.3l-1.3-.5c-1-.4-1.3-.8-.5-.8.7 0 4.5 1.6 4.5 1.9l-.4.2c-.7 0 1.3.7 2 .7.4 0 .5 0 .4-.1-.2 0-.4-.4-.4-.7 0-.4.1-.5.6-.3l2.2.4c3.8.7 4.4.8 4.4 1 0 .4-.7.5-2.2.2-1.2-.3-1.7-.3-2.1 0-.6.3-.5.3.5.5s1.6.5 1.3.8c-.1.1-1.8-.2-2.8-.6-.2-.1-.3 0-.2.1.1.2.9.5 1.7.7l2.3.8a8 8 0 0 0 1.8.6c.5 0 1 .3 1.3.5.2.2.8.4 1.5.4 1.5 0 2.5.3 2.4.7 0 .1-.7.2-1.5.2h-1.5l1.6.3c1.5.3 6.6.8 5.5.5-1.6-.5-.8-1 1-.7.9.2 1.1.3 1.1.7 0 .4.2.6 1.1.6l1.5.2c.3.2.3.2 0 .4s-1.2.1-2.2 0c-.9-.1-1.7-.2-1.8-.1-.2.1-4.3-.5-7.7-1.2-2-.4-2.9-.7-3.1-1-.2-.4-.6-.6-1-.6-.9 0-4.7-1.1-5.2-1.5-.3-.2-1.2-.6-2.1-.8-4.4-1-6.2-1.5-6.1-2 0-.3-.5-.6-1.7-1-1-.3-2-.9-2.4-1.3-1-.9-4.3-3-8.3-5.1-1.8-1-3-1.8-3-2 0-1-6.8-4.3-12-6A102.9 102.9 0 0 1 67 74c-.2-.5.5-.3 4.4 1.5 4.1 2 8.1 3.4 10.2 3.9a32 32 0 0 1 10.2 4.2l2 1-1-1a107.3 107.3 0 0 0-8.4-6c-3.8-2.8-5.8-4-12.4-7.8a34.1 34.1 0 0 1-4-2.5c-.5 0-5-2.2-5-2.4 0-.3-2-1.3-2.8-1.3a5 5 0 0 1-2-.7A53 53 0 0 0 44 57c-1-.2-2.1-.7-2.4-1l-1-.4c-.2 0-.4-.2-.5-.5 0-.3-.6-.6-1.8-1a130.4 130.4 0 0 1-13.2-4.4c-2.3-1.2-3-1.5-3.3-1.3-.3.3-.5.2-1.2-.1-1.7-.9-9.1-3.9-11-4.4-1.8-.5-3-1.3-2.1-1.3.2 0 1.6.4 3.1 1l2.8.7-.2-.2c-9.2-3.4-9.8-3.7-9.8-4.6 0-.7.7-.8.9 0 0 .2.3.5.4.5.4 0 .6-1.5.5-3.3-.2-1.1-.1-1.8 0-1.9.2 0 .3-1.3.3-3 0-2.8 0-3-.9-4.9a7.6 7.6 0 0 1-.8-2.5c0-.3.3 0 .7 1 .3.7.8 1.5 1 1.6.4.2.6.5.6.9 0 .3.3 1.2.7 2 .4.8 1 2.4 1.3 3.5.7 2.3.8 1.9.3-3L8.1 27l-1.8-3.7c-1.9-3.9-2.6-6-1.7-5.2l.4.7c0 .5 2.5 5.7 2.7 5.7l.4-.6c.3-1 .6-.5.6 1 0 1.3.1 1.6 1.5 3.5l1.8 2.1.1-2.3v-3.1c0-.6-.1-1.2-.5-1.7-1.7-2.4-4-10-2.9-10 .2 0 .4.4.7 2.6a21 21 0 0 0 2.1 6c.7 1.2.8 1.2 1 .6 0-.3.3-.5.5-.4.1.1.2-.6.2-2 0-1.5 0-2.1-.4-2.4-.4-.3-.4-.2-.3 1.6v1.9c-.4 0-.6-.8-.6-2l-.5-6.7c-.7-6.7-.7-8.5-.2-8.5.3 0 .4-.3.4-.7 0-.6 0-.6-2.2-.6-1.2 0-2.5-.1-2.9-.3-.8-.3-2.9 0-3 .5 0 .2.1.3.4.3.7 0 .7.3.2 2.5-.2.9-.4 2.3-.4 3.2v1.7l1.3 1 1.6.9c.5 0 .3-2-.4-3.7l-.7-2c0-.7.5-.5.7.2 0 .4.3.6.4.6.3-.2.3-2 0-2.1-.3-.3-.8-2-.6-2.5.2-.5.6-.4.7.3 0 .3.2.6.4.6.4 0 .4.4.3 3v3l1.3 1.7c1.6 2 1.7 2.9 0 1.1-.5-.6-1-1-1.1-1-.2.2.3 5 .6 6.3.4 1.5 1 2.6 1.6 3.4.3.3.4.6.3.7l-1-.6a14 14 0 0 1-1.9-6.3c-.2-1.6-.3-1.8-.7-1.9a6 6 0 0 1-1.9-1.1l-1.4-1c-.3.3-.6 16-.3 17.7.3 1.8.3 2.8.2 21.3A192.2 192.2 0 0 0 3.4 73c-.2.4-.3 15.1-.2 24.4v9.1c0 11.3.3 21 .9 21.5.2.3 1.4.5 3.5.6l3.7.4a250.8 250.8 0 0 0 23.5-.4l2.4-.5c.7 0 0 .5-.8.6-.5.1-1 .3-1.1.5-.1.1 1.7.2 4.7.2 4 0 5.3 0 7-.5a35 35 0 0 1 5.7-1c.7-.2.6.4-.1 1-.6.5-.5.5 3.7.3l4.3.1c0 .2 1.6.3 4.3.2h5.7zm-4-.5c-.2-.2 0-.4.2-.4.5-.3 1.8 0 1.8.2 0 .4-1.8.5-2 .2zm-28.4-.3c.2-.2 2.5-1 3.1-1 .3 0 .2 0 0 .3-.8.7-3.5 1.3-3.1.7zm38 .1c-.4-.3 0-.6 1-.6.6 0 .8.1.8.4 0 .3-.2.4-.8.4l-1-.2zm-46.3-.4c0-.1.4-.2.9-.2l1 .2c.2.2-.2.3-.8.3-.6 0-1.1-.1-1.1-.3zm12.2.2c0-.3 1.5-1 2-1 1 0 .7.5-.4.8-1 .3-1.6.4-1.6.2zm23-.6c-.3 0-.6-.3-.6-.5s-.3-.4-.8-.4c-.6 0-.9-.3-1-.6 0-.4.2-.4 1.4-.4 1.4 0 2.3.4 2 1-.2.2 0 .3.5.3.6 0 .9.1.9.4 0 .4-1 .5-2.5.2zm-11.4-.3c0-.2.2-.3.4-.3.3 0 .3-.4.2-1.7-.1-1.5 0-1.7.8-3l1.6-2.3c.4-.5 1.1-1.2 1.6-1.5 1-.6 1-.6.8-2-.4-2.3-.3-3 .6-4.3 1.1-1.5 1.3-2.5.7-3.2-.4-.5-.7-.5-4.3-.4-5.2.2-5.3.2-8.5 0-3.8-.4-6.6-1.3-6-2l2.1.4 4 .6c2.7.2 12.1.1 12.4-.1l2-3.1c1.4-2.5 1.8-3.2 2-4.7 0-1 .3-2.2.4-2.7.2-1.4 1-1.6 1.3-.5.4 1 .8 1 1 .1 0-.5.2-.7.7-.8.6 0 .7 0 .8.7.4 1.8.6 2.3 1 2.8.3.4.3.6-.1 1.7-.3.7-.7 1.4-1 1.7-.3.3-.4.6-.2 2 .4 3 .3 2.9 3.9 3l7.3.5 17.1.2c11.8 0 15 .1 12.8.6-.7.2-.7.2.3.2a75.2 75.2 0 0 1 11 1.3c1-.5 15.2.2 14.9.7-.1.1-2.7.2-7 0a25 25 0 0 0-7.3.2c-.4.3-2.5 0-4.7-.7-2.4-.8-8.8-1.1-29.7-1.6-12-.2-14.5-.3-15.8-.5l-1.3-.2.8 1a15 15 0 0 1 2 4c.5 1.4-2.2 2.7-4.3 2.2h-1.2l-.4 1.6a7.6 7.6 0 0 1-2.3 3.8c-.8.7-1 1.8-.3 2 .3 0 .7-.3 1-.9.6-.9 1.6-1.5 2.8-1.5.3 0 1 0 1.4-.2.6-.3.7-.4.2-.6-.9-.5-.1-.7 2.4-.8 1.4 0 2.2 0 1.7-.1-.5-.1-.8-.3-.7-.5 0-.2 1-.3 3-.3 2.5 0 2.8 0 3 .5 0 .3-.2.6-.4.8-.3.2-.4.5-.4.7 0 .3-.3.4-2.2.5-1.6 0-2.4.2-2.6.4-.2.3-.6.4-.9.4-.3 0-.8.3-1 .6l-1.5.8-1.8.6c-.4.2-1.1.4-1.5.4-.4 0-.7.1-.8.3l-.6.2c-.3 0-.6.2-.9.4a9 9 0 0 1-4 .8c-.4-.2-1.8.7-1.6 1 .2.6-.4.8-.9.3-.4-.4-.5-.4-1.2.2-.7.5-2.6.7-2.6.3zm3-2.8c-.2-1-.2-1-.9-.7-.3.2-.5.6-.5 1 0 .7.1.8 1 .7.5-.2.6-.3.4-1zm4.7-1.3c0-1 0-1-.6-.6-.5.5-.5.6 0 .9.3.2.3.3 0 .4l-.8.3.5.1c.8 0 .9 0 .9-1zm-1.6-1.8c.3-.6.3-.6-.1-.3l-.4.6c0 .4.2.3.5-.3zm1-2 .8-1.2c.2-.6.2-.7-.1-.7-.4 0-1 .8-1.3 1.8-.2.7.1.7.7 0zm3.5-1c.3-.3.2-.4-.3-.4-.3 0-.5.2-.5.4s0 .4.2.4l.6-.4zm1-3.3c.8-2.6 1-4 .8-4.5-.3-.7-.8-2.3-.8-2.7l.3-1 .4-.9c.3-1 .7-.1.5 1-.2 1.2.2 2.3.7 2.3.5 0 0-3.3-.6-4.4-.5-1-1.6-1.7-2.4-1.7-.3 0-.6.2-.7.6-.4.8-1.3 4.9-1.3 5.6 0 .3-.2.8-.4 1.1-1 1.4-1.6 5-.9 5.6.2.2.6.3 1 .3s.8.1 1 .3l1.1.2c.6 0 .8-.4 1.2-1.8zm-2.9 0 .3-1.4c.2-.8.2-1.1 0-1.5-.6-.6-.4-1 .5-1 1.2 0 1.2.1.1 3.3-.4 1.1-.9 1.5-.9.6zm8.8-1.8c0-.3-.1-.6-.3-.8-.3-.5-.6 0-.4.7.2.7.7.7.7.1zM69 112c-.1-.2-.2-.2-.2.2 0 .2 0 .4.1.3v-.5zm1.6 0c0-.3-.3-.5-.5-.3-.3.1 0 .6.3.6.1 0 .2 0 .2-.2zm-4.4-11.8c.2-.3 0-.4-1-.3-.3 0-.1 1.4.2 1.8.3.3.4.2.4-.4 0-.4.2-1 .4-1.1zm59 26.7c-.2-.5.2-.8 1.3-.8 1.3 0 2 .3 1.7.7-.2.4-2.7.4-3 0zM21 126.5c.2-.4 5.3-.8 5.7-.4.3.3-.2.4-3.2.6-2 .2-2.5.1-2.5-.2zm93.1-.3c0-.4.6-.7 1.8-.7 1.2 0 1.1.5-.1.8-1.3.4-1.7.4-1.7 0zm3.8 0c.4-.5 3.1-.9 3.1-.4 0 .3-1.6.8-2.8.8-.7 0-.7 0-.3-.4zm-89.1-.2c-.3-.4-.2-.4 1.8-.5 1.6-.2 2.4 0 2 .5-.4.3-3.6.3-3.8 0zm58-.7c-.1-.2 0-.3.4-.4 1-.3 2.1 0 2.3.3 0 .4-2.5.5-2.8 0zm-53-.2c-.3-.4 0-.6.8-.6 1 0 1.7.2 1.7.5s-2.2.4-2.4.1zm62.4 0c0-.3.2-.4.3-.4.3 0 .2.4-.1.5-.2 0-.3 0-.2-.2zm1.6-.2c-.2-.3.3-.7 1.3-.9.8 0 1 0 1 .3 0 .4-2 1-2.3.6zm11.6.1c-1.2-.3-.6-.7 1-.6 1.6.1 1.9.2 1.9.6 0 .3-2 .3-2.9 0zm-8.5-.2c0-.6 1.6-1 3.4-1 1.2 0 1.6 0 1.6.3 0 .4-.2.5-2.1.5-.7 0-1.6.2-2 .3-.6.1-1 0-1-.1zm-24.5-7c-.2-.3-.1-.4 1.7-.5 1.5-.2 2 0 1.4.4-.5.3-3 .4-3.1.1zm3.6-1.1c0-.2 2.4-1.2 3-1.2.7 0 .7.5 0 .9-.8.4-3 .6-3 .3zm54.1-1.1c-.4-.5 0-.6 2-.6s2.7.2 1.5.6a9 9 0 0 1-3.5 0zm-55.3-.6c0-.2 1-.3 2-.3 1.2 0 1.8 0 1.7.3l-2 .2c-1.2 0-1.8 0-1.7-.2zm36.2 0c-.2-.2-4.8-.3-10.1-.3s-10-.1-10.3-.2c-.4-.1-.7-.4-.8-.6-.1-.3.7-.3 4.7-.2l10 .3c10 .3 16 .6 16 .8 0 .4-8.7.5-9.5.2zm-31-.8c0-.2-1.2-.3-2.7-.3-1.4 0-2.7-.1-2.8-.3 0-.1 1-.2 2.8-.2 1.6 0 3 0 3 .2.1.2.5.2.9.1.5 0 .6 0 .6.3 0 .5-1.4.6-1.7.2zm-2.4-1.3c-2.2-.1-1.5-.6 1-.6 3.8 0 8.8.3 8.8.6 0 .2-6.5.2-9.8 0zm29.2-1-2.2-.3c-.7 0-1.4-.3-1.4-.4 0-.2.7-.2 2-.1 2.8.2 3.9.4 3.9.7 0 .2-.7.3-2.3 0zm25.2-1.7-4.6-.2c-.5 0-.9-.2-.9-.3 0-.2 1.7-.3 5.2-.2h5.1c0-.2-.2-.4-.5-.5a74 74 0 0 0-9-.7c-1.6 0-3.2-.1-3.8-.3-.6-.1-3.7-.3-6.9-.3-7.5-.1-13-.5-13.8-1-.4-.1-2.2-.3-4.5-.4-2.2 0-4.2-.2-4.4-.4-.6-.1-.5-.2 0-.4l.7-.3H98l-4.1-.6-5.2-.9a39.3 39.3 0 0 1-7.4-1.8l-4.8-1.4c-3.7-1-6.3-2.1-5.9-2.5.2-.1 1.3.1 2.8.7a94 94 0 0 0 17.2 4.4c0-.2-.4-.4-.8-.4-1-.3-1.3-.7-.6-.7a40.6 40.6 0 0 1 6.6 1c.5 0 .9.2.9.4 0 .1-.6.2-1.6 0-1.1 0-1.4 0-1 .2l2.4.4c1 0 2.5.3 3.3.5l3.6.5c1.2.1 2.5.4 3 .6.4.2 2.4.4 5 .5 3 0 4.2.2 4.5.5.4.3 1.9.4 7 .5a177.5 177.5 0 0 1 25 2c3 .3 2.5 1-.5.9a6 6 0 0 0-2.6.2c-.4.2-.6.2-1 0-.2-.3-.5-.3-1 0-.7.3-1 .3-6.8 0zm-11.7-1c-1.6-.2-4.1-.3-5.6-.3-1.7 0-2.8-.1-2.9-.3-.1-.3 1.3-.3 5.8-.2 6 .2 7.6.4 7.6.8 0 .2-.4.2-4.9 0zm-86.4-.9a21.4 21.4 0 0 1-4.5-1l-1.6-.6c-1.3-.6-2.8-1-7-1.5-1 0-1.2 0-1.2.3 0 .7-.5.6-3.8-.5-5.8-2-8.8-3.4-8.9-4.1l.1-.5 2 1c1 .7 2.1 1.1 2.6 1.1.4 0 1 .1 1 .3l3 1.3c2 .7 2.7.9 2.7.6 0-.2-.1-.3-.3-.3l-.2-.4c0-.5.5-.5 1.7 0 .5.2 2.3.5 4.1.8 1.8.2 3.7.6 4.2.9a30.7 30.7 0 0 0 8.9 2c.2.2-.4 1-.8.9l-2-.3zm41-.4c-.4 0-.8-.3-.8-.5 0-.3.4-.3 1.4-.2l4.8.2c5 .3 4.5.7-.5.6l-5-.1zm58.6-7.2c-.5-.2-2-.4-3.3-.6-2.3-.4-2.9-.6-2.6-.9l3.6.4c4.5.7 4.6.8 4.6 1 0 .4-.7.4-2.3 0zm7.8-.3c0-.3-.1-.5-.4-.5-.2 0-.4-.2-.3-.5.1-.5 1.4-.8 1.9-.3.4.4.8.3.6-.1-.2-.5.3-1 1-1 .6 0 .5.7-.1.9-.3 0-.5.3-.5.5s-.1.3-.5.3c-.5 0-.6 0-.5.3.1.4-.3 1-.8 1-.2 0-.4-.3-.4-.6zm4.8-1.6c-.7-.2-1-1-.3-.8h1.7c1.4 0 1.8.4 1 .8-.6.3-1.4.3-2.4 0zm-10.8-1.7-2.7-.6c-.5-.1-.8-.3-.8-.5 0-.4 1-.4 2.3 0 1 .3 1.3.4 1.4.1.1-.4 1.4-1.5 1.6-1.5.2 0 .3.2.3.4 0 .5.9.4 1-.2v-.7c0-.2.3-.2.8.1 1 .5 1 .7.4 1.2s-.5.8.4.8c.4 0 .8 0 1 .2.1.2.6 0 1.4-.3.6-.2 1.3-.4 1.5-.3.6.2 0 .8-1 1.3-1.2.5-2.1.5-2.5.1-.2-.2-.6-.2-1.3 0-1.3.4-1.7.3-3.8-.1zm10.8 0 .4-.4c.4 0 .3.6 0 .7-.3.1-.4 0-.4-.3zm-18-1.6c.1-.3.4-.5.7-.6h.7c.4 0-.7-1.1-1.3-1.1-.7 0-1.6-.7-1.3-1 .4-.4 2 .1 2.6.8.6.6 1.8.6 1.8 0 0-.2.2-.3.6-.3.4 0 .5 0 .4.5-.1.3 0 .5.1.6.2 0 .2.2.1.4s-.6.2-1.4.2c-1.2-.2-1.2-.2-.7.3 1 .6.8.8-.8.8-1.4 0-1.5 0-1.4-.6zm16.4.4c0-.1.1-.3.3-.3l.4.3c0 .1 0 .3-.3.3-.2 0-.4-.2-.4-.3zm-10-.6c0-.2.1-.5.4-.7.2-.2.4-.6.4-.9 0-.6.7-.5 1.1.1.2.4.1.6-.5 1.1-.9.8-1.4 1-1.4.4zm-77 0-2-.5c-2.3-.3-6.7-2.4-5.9-2.7.3-.2 1.2.1 2.5.8 1.2.6 2.5 1 3.5 1.1 1.6.2 2.8.7 2.5 1.1-.1.3-.5.4-.7.2zm72-3c0-.4-.5-.5-.7-.1l-.4.3c-.5 0-.3-.6.3-1.2l.5-.6-.7-.2c-1.1-.2-2-.8-1.6-1.2.4-.4 3.3.7 3.3 1.2 0 .3.2.4.5.3.4-.2.6 0 .7.4.2.5.2.5.3.1.1-.4.3-.4 1-.3 1.8.4 1.5 1.2-.5 1.2-.6 0-1.2.1-1.3.3-.3.4-1.5.3-1.5-.2zm6.3-.3c-1.2-.3-1.5-1.1-.3-1.1.8 0 1.7.6 1.5 1l-.2.3-1-.2zm2.5-.5-.1-1c0-.7 0-1 .4-1 .3 0 .4.3.4 1.1 0 1-.2 1.3-.7.9zm6.2-.6c-.3-.2-.3-.3 0-.6s1 0 1 .5c0 .4-.4.4-1 0zm-7.8-.3c-.2-.3 0-.8.6-.8.4 0 .4 0 .2.7-.2.4-.5.5-.8.1zm8-1.5c-.4-.2-.7-.5-.7-.7 0-.5.3-.5 1.2 0l1.3.5c.2 0 .4.2.3.4-.3.4-1.2.3-2-.2zm-12.4-.8c-.4-.3-.2-.6.7-1.1 1.6-1 2.4-.5 1 .6-.7.7-1.4.9-1.7.5zm13.9-.7c-.2-.5 0-1.2.4-1.2.2 0 .3.3.3.8 0 .8-.4 1-.7.4zm-45.6-.4c0-.2.6-.6 1-.6.2 0 .3.2.3.4 0 .3-.2.4-.6.4-.4 0-.7 0-.7-.2zm34.9-.4c-.3-.4 0-1 .6-1 .4 0 .5.2.4.5 0 .5-.7.8-1 .5zm-40.5-2.4c-.5-.6-.7-1-.6-1.4.2-.8.7-.6 1 .4 0 .5.4 1 .6 1 .2.1.4.3.4.6 0 .6-.7.3-1.4-.6zm2.4.7c0-.3.7-.6 1.4-.6.6 0 .6.4 0 .7-.6.2-1.4.2-1.4-.1zm4.2-1c-.4-.4-.2-.7.5-.6 1 .1 1.2.8.3.8l-.8-.2zm-2.5-.4c0-.2.2-.4.4-.4s.4.2.5.4c0 .2-.1.3-.5.3-.3 0-.5-.1-.4-.3zm-1.4-.2c0-.2.1-.3.3-.4.1-.1.2 0 .2.2l-.2.4c-.2 0-.3 0-.3-.2zm16.8 0a3 3 0 0 1-1.4-.6c-.5-.5-.6-.5-1.2-.1l-1 .4c-.4 0-.3-1 .3-1.4.4-.4.6-.5 1-.2.3.3.4.3.6 0 .4-.7.7-.6.8.2 0 .6.3.8 1.1 1l1.3-.1c.4-.4 1-.4 1 0s-.8 1-1.3 1l-1.2-.2zm29.9-1.7v-2c.4-.7.6-.1.6 1.7 0 1 0 2-.2 2-.1 0-.3-.8-.4-1.7zm-48 1.1c0-.1.2-.3.4-.3l.3.3c0 .2-.1.3-.3.3-.3 0-.4-.1-.4-.3zm12.8.1c-.3-.3-.2-.6.3-.6.2 0 .4.2.4.4 0 .4-.4.5-.7.2zm-7-.4c0-.3 1-1 1.5-1 .3 0 0 .8-.4 1-.7.4-1.1.4-1.1 0zm-55-.9a20.5 20.5 0 0 1-3.8-2.4 74 74 0 0 0-11-7.5c-1.8-1-2.1-1.3-1.8-1.6.4-.4 9.3 5 12.2 7.3 2.3 1.8 3.8 2.9 5 3.6 1.5 1 1.1 1.5-.5.6zm52.1.1c.1-.2-.3-.4-1-.6-1.5-.3-2-1-.6-.8l1.6.2c.7 0 .8 0 .6.5-.1.4 0 .5 1 .3 1 0 1.1 0 .6.3-.6.5-2.3.6-2.2.1zm8.4 0c0-.3.2-.4.3-.4.2 0 .3.2.3.3 0 .2-.1.3-.3.4-.1 0-.3-.1-.3-.4zm6.6-1.2c-.1-.1 0-.3 0-.4.5-.3.7 0 .4.4-.2.2-.3.2-.4 0zm-16.7-1L100 79c-.3-.4-.3-.5 0-.5.4 0 .8.2 1.1.3.6.3.6.3 0-.2-.5-.3-.9-1.3-.4-1l1.6.7c1 .5 1.3.7 1.3 1.2 0 .7-.5.8-2.1.2zm5.9-.1c-.3-.2-.3-.4.2-.7 1-.9.8-2.2-.3-2-.8.1-1-.6-.3-.8 1.2-.5 2.7 1.5 1.9 2.4-.3.3-.4.6-.4.8 0 .4-.7.6-1.1.3zm-4.2-1.7c-.2-.2-.2-.4-.1-.5.2-.2.9.1.9.5 0 .5-.4.5-.8 0zm2 .2c-.3-.5-.3-2 0-2.1.2-.1.6 1 .7 2 0 .2-.5.3-.7 0zm-1.5-1.8c-.2-.3-.2-.4 0-.5.4-.3 1 .3.6.6-.2.2-.3.2-.6 0zm8.7-.2c0-.4.1-.5.7-.4.6.2.7.1.8-.3.3-.8.8-.5.8.4 0 .7 0 .8-1.1.8-1 .1-1.2 0-1.2-.5zm-11.3 0c0-.5.5-.7 1.4-.7.4 0 .7.1.7.4 0 .2-.2.4-.5.4l-1 .1c-.5.1-.6 0-.6-.2zm17 .1c-.6 0-1-.8-.4-.8.4 0 .4-1 0-1.3-.3-.2-.3-1.1-.3-2.8 0-1.3 0-3.2-.3-4.3-.4-2-.3-7 .1-7s.6 1.9.4 3.9c-.1 1.3 0 2.5.3 4 .2 1 .3 2.6.2 3.4 0 1 0 1.5.4 1.8.3.2.5.3.6.2.3-.2 1.5 1 1.5 1.4 0 .3-1.6 1.8-1.9 1.7l-.6-.2zm1.1-1.8c-.3-.3-.5.1-.3.5.2.2.3.2.4 0v-.5zm-3.2-.4a61.1 61.1 0 0 0-.5-3.3c-.2-2.2-.5-8.1-.3-8.7 0-.4.3-.7.5-.7s.2.7 0 2.4c0 1.7 0 2.4.2 2.5.2 0 .3.8.4 1.6l.2 3.9c.2 2.2 0 3-.5 2.3zm-78.2-3a34 34 0 0 0-3.7-1.9c-1.3-.5-2.4-1.1-2.4-1.3 0-.2-.3-.4-.7-.4-.4 0-1.7-.4-2.9-1a108.2 108.2 0 0 0-11.3-5c-.5-.3-.5-.3 0-.5.3-.1 5.8 2 7.5 2.8.2.2 1.9.9 3.6 1.6a29.5 29.5 0 0 1 4.3 2.1 67.5 67.5 0 0 1 7.7 4.3c0 .4-.6.2-2-.7zm1.5-.4c-1-.4-2.8-2.2-3-3.1 0-.7 0-.9.3-.9s.4.3.4.6c0 .6 1.5 2.1 2.8 2.7l1 .7c0 .3-.8.3-1.5 0zM74 67.1c-1.5-.5-2.7-1-2.7-1.1 0-.4.8-.3 3.3.5 1.6.5 2.4.9 2.5 1.2.1.5.2.5-3-.6zm10.6.1a92.4 92.4 0 0 0-9.2-3.3c-1.1-.6-6-1.9-6.7-1.8-.5 0 .2.3 1.7.7 3.8 1 5 1.5 5 2 .2.4.5.7 1 .8.8.2 1.6 1 1 1a38.4 38.4 0 0 1-6.2-2l-2.4-.5-2.8-.8c-.6-.1-1-.4-1-.5 0-.3 0-.3 3.2.4 2.6.7 3 .7 2 .3-.6-.2-2.3-.7-4-1a35.5 35.5 0 0 1-7.1-2c-.2-.2 0-.3.5-.3s.9-.1 1-.3l2.1.2c2.5.5 3 .5 3.8.3.4-.2.6-.1.6.1 0 .5.2.6 3 1.1a20 20 0 0 1 7.2 2.3c.8 0 7.5 2.4 8.2 3 1 .6.1 1-1 .3zM72 64h-.5c-.2 0-.1.1.2.1.3 0 .4 0 .3-.1zM68 61.9h-.5c-.2 0-.1.1.2.1.2 0 .4 0 .3-.1zM36 66c-.4-.4-.2-1.4.5-1.9l1.3-.9 1.5-.6c1.3-.2 4.7-.2 5 0 .3.4-.6.7-2.8.7-1.3 0-2.4.2-2.5.4 0 .2-.6.5-1.2.7-.5.3-1 .7-1.2 1.1-.3.7-.3.8-.6.5zm102.9-.2-.6-3.3-.6-4.8a94 94 0 0 1-.6-6c0-1 0-1.5.3-1.3l.5 3.7a73 73 0 0 0 1.6 11.7c0 .5-.5.5-.6 0zm4.4-1.8c.3-1.3.7-2.4.9-2.3.1.2-.6 2.9-.9 3.1v-.8zm-98.1-1.5c-.3-.6.2-.8 2-.8 1.7 0 3.4-.7 3.4-1.4 0-.1.1-.2.3 0 .1 0 .3.4.3.7 0 .6-.3.8-1.2 1.2-1.2.5-4.5.7-4.8.3zm66.2-.5v-8.7l-1-1.8c-.8-1.4-1.2-2-2-2.3-.7-.4-1-.8-1.5-2.3l-.7-2.3c0-1 .6-.2 1.2 1.5.6 1.4.9 2 1.7 2.5 1 .6 1.5 1.4 2 2.8 0 .4.3.5.7.3.5 0 .7 0 .8.5v1c-.2.3-.3 1.1-.3 2 0 2.7-.4 7-.6 7-.1 0-.2 0-.3-.2zm12.6-.6v-.9l.7-6.4c.3-3.2.7-5.9.8-6 .4-.4.3.3-.3 5.9l-.5 6.3c0 1.3-.3 1.7-.7 1zm-54.3-6.1c0-2-.1-4-.3-4.3l-.2-.8v.9l-.1 4c0 2.7-.2 3.3-.5 3.3s-.4-.7-.3-4.9c0-2.6.2-5.2.3-5.7.4-1.5 0-3.8-.5-4-.4 0-.6-.5-.8-2-.2-1-.2-2-.1-2 .3-.6.6 0 .6 1l.3 1.6c.2.5.2.4.2-.5 0-1.2.5-1.5.7-.5l.4 4.4c.2 2 .5 4.3.7 4.9.2.6.4 2.6.4 4.5 0 2.9 0 3.4-.3 3.5-.4 0-.4-.4-.5-3.4zm51.2 0 .8-2c.8-1.5.9-1.8 1-3.7 0-1.2-.2-3.1-.4-4.3-.3-2-.2-2.7.2-2.3l.7 3.3c.5 3.4.4 4.8-.6 7.1-.6 1.5-1.4 2.4-1.7 2zm-3.3-1.8.5-1.4c.5-.7.6-.8.7-.4.2.7-.4 2.3-.9 2.3-.2 0-.3-.2-.3-.5zm-71.6-.8v-2.3c.6-4.2.6-8.4.1-9-.2-.2-.3-1.4-.3-3.4 0-3.9 0-3.6.3-3.4.2 0 .3 1 .3 2s0 1.8.2 1.9c.3.2 2-2.4 2.4-3.6l.6-3.2c.2-1.3.5-2.5.7-2.8.3-.4.3-.4.3.2 0 1.3-1 6.3-1.3 7l-1.4 2.4-1 1.8.3 3c.2 2 .2 3.1 0 3.6-.2.4-.3 1.4-.3 2.2 0 2.8-.4 4.4-.9 3.6zm92.7-.3-.2-1.2c0-.4-.2-1-.4-1.5-.8-1.5-1.4-3.6-1.6-5.3-.3-2.5.2-2.4.6 0 .3 2 .8 3.6 2.2 6.6l.5 1.5c0 .6-.7.5-1 0zm-71.5 0c-.3-.4-.3-5 0-5.2.3-.4.4.2.3 2.9 0 1.6-.2 2.6-.3 2.4zm-23-1.9c-.2-2-.2-6.1 0-6.7.4-1 .6-.2.6 2.2l.2 3.5c.3 1.2.1 2.6-.3 2.6-.2 0-.4-.5-.5-1.6zm67.8.6c0-.2 0-2 .2-3.9.2-3.5.6-4.7 1-3.5.2.6 0 4.5-.4 6.2-.2 1-.7 1.7-.8 1.2zm36-.2.4-1.1c.5-1 .5-1-.5-1-.6 0-1 0-1.2.4-.1.2-.3.3-.4.2-.2 0 0-.9.5-1.8 1.1-2.7 2.3-5.8 2.1-6l-1.4 1.2c-1.4 1.4-2.6 2.1-2.8 1.6-.1-.1 0-.4.3-.6a81 81 0 0 0 4-3.5c.6-.6 1-1.2 1.3-2.3.5-2 .8-2.7 1.1-2.3a46.6 46.6 0 0 1-3.8 11.4c-.1.6 0 .8.2.8s.6 0 .9.2c.5.1.7-.2 2-3.4.9-2.3 1.4-4 1.5-5 0-1.5.1-1.6.7-1.5.4 0 .5.2.5 1.3 0 1-.4 2-1.8 4.8a171 171 0 0 0-3.2 6.6c-.4.6-.4.6-.4 0zm-105.5-.2v-1.1c.1-.4 0-.8-.2-1.1-.2-.3-.4-1.7-.5-5-.1-3.1-.4-6-.9-8.4-.9-5-1-6.2-.7-5.8.3.3 1 3.3 1.6 7.3l.4 2.8.3-.7c.1-.4.4-.9.7-1.1.2-.3.8-1.7 1.3-3.2l1-2.5c.2 0 .1.7 0 1.4-2.4 7.5-3 10-2.8 11.8 0 .5 0 .5.2.2.5-.8.6-.1.4 2.8-.2 2.8-.4 3.6-.8 2.6zm18.3-1.5-.1-2.2c0-.6-.3-1-.7-1.5-1.5-1.4-3.2-6.3-2.2-6.3l.2.6c0 1.3 1.9 5.2 2.5 5.2 0 0 .2-.5.2-1.2 0-2 .9-6 1.3-6s.3.4-.3 3.2c-.4 2.1-.5 3.1-.3 6l-.1 3.6c-.2 0-.4-.7-.5-1.4zm70.4 1.1.1-1.6c.3-1.6.3-14.7 0-20.2 0-2.4-.2-3.4-.5-3.6-.3-.2-.3-.3 0-.6.2-.4.3-1.2.1-3.8l.1-3.8c.4-.6.5.3.7 5.3.3 6.9.4 9.5.4 15.5 0 3.4.1 5.3.3 5l1.2-5.8c0-.5.2-1 .4-1 .4 0 .3 2-.3 4.2-.5 2-1.3 6.3-1.7 9.1-.2 1.3-.5 1.8-.8 1.3zm13.4-.7c0-.2 0-.5.4-.8.4-.3.5-.3.6 0 .2 1-.6 1.7-1 .8zM54 49.1c-.3-.5-.5-5.7-.2-6.5l.4-.9c.3.3.4 7.6.1 7.6-.1 0-.3 0-.3-.2zM94.2 48c-1.4-1-1.6-1.7-1.6-3.8 0-1.4.2-2 .7-3.2.8-1.5 1.4-2 1.4-1.2l-.4 1.2c-1 1.8-1 2.3-.2 3 .7.7.7.7.3 1.5l-.5.9 1 1c1 1 1.2 1.5.6 1.5l-1.3-.9zm49.2-.3.2-2.5c.2-1 .3-.8.3 1.3 0 1.4 0 2.4-.2 2.4s-.3-.6-.3-1.2zm2.3-.7c.1-.3.2-.4.3-.2 0 .1 0 .4-.2.6-.2.2-.2 0-.1-.4zm-19.4-.3a5 5 0 0 1-.7-3c.2-.8.6-.8.6 0l.4 1.8c.4 1.1.2 1.9-.3 1.2zm-16.9-2.4c-.2-.3-.4-.7-.4-1 0-.2-.2-.6-.5-.7-.6-.4-.7-1.1-.2-1.1a8 8 0 0 1 2.5 2.9c0 .4-1 .3-1.4-.1zm30.3-.4c0-.4-.3-1.8-.7-3-.8-2.9-1.2-8.8-.6-8.6.2 0 .3 1 .4 2.9 0 2.8.6 5.9 1.3 7.5.5 1.2.5 2 0 2-.3 0-.4-.3-.4-.8zm-12.3.3c-.3-.7-1.8-6-1.8-6.9-.1-2 .4-1.3 1 1.4A44.2 44.2 0 0 0 128 44c0 .4-.4.5-.6.2zm-48.4-2a8.3 8.3 0 0 0-.6-2.7c-.4-.6-.4-.6.2-.6.4 0 .7.3 1 1l.5 1.7c0 .8-.5 2.5-.7 2.5-.1 0-.3-.9-.4-2zm27.8 1.2c-.4-.3-.7-.9-.8-1.2-.1-.4-.4-.8-.7-1-.7-.4-1.5-2.7-1.9-5.7-.3-2.3-.3-2.8.1-4.6.5-2 .8-2.6 1.2-2.3 0 .1 0 1.2-.3 2.6-.4 2-.5 2.6-.2 3.9l.3 2.4c0 1.3 1.2 3.6 2.5 4.9.7.6 1.2 1.1 1.2 1.3 0 .4-.7.2-1.4-.3zm34.3-1.9a1262.2 1262.2 0 0 0 .6-10.8 602.3 602.3 0 0 1 .5-17.7c0-3.6.2-6.6.3-6.7 0-.2.3-.2.5 0a259.5 259.5 0 0 0-.8 27.2l-.4 5c-.2 2.6-.4 4.8-.6 5-.1.2-.2-.5 0-2zm-120 .7c-.2-.2-.2-1.6-.1-3.1l.1-5.3c0-1.6.2-2.6.3-2.6.2 0 .3 1.3.3 3.4 0 1.9 0 3.5.2 3.5.1 0 .3.8.4 1.7.2 1.3.2 1.5-.1 1.2-.6-.5-.7-.4-.8.7-.1.7-.2.9-.3.5zm89.5-.3c0-.2-.4-.6-1-.9-1-.6-1.8-2-1.4-2.6.2-.4.3-.3.8.5.3.6 1 1.3 1.5 1.6.6.3.9.7.8 1l-.2.6s-.1.2-.3.2l-.2-.4zm33.3-.6c0-.5.1-.9.3-.9 0 0 .2.3.2.7l-.2.8c-.2.1-.3-.2-.3-.6zm-46.5 0V41l.6-.2c.3-.1.4 0 .3.3-.3.5-1 .7-1 .3zM53.7 40c0-1.8.2-2.7.6-2.7.3 0 0 3.7-.4 4-.1.2-.2-.3-.2-1.3zm58.9.2-.7-1.5c-.4-.5-1-3.2-.9-3.7.3-.7 1-.4 1 .5 0 .5.3 2 .8 3.2 1 2.7 1.1 2.8.6 2.8-.2 0-.6-.6-.8-1.3zm16.7 1-.5-2.8c-.4-3.8-.7-4.9-1.4-4.8-.4 0-.7-.3-1.4-1.6-.8-1.7-1.1-3.5-.6-3.5.1 0 .4.5.5 1 .3 1.1 1.3 2.9 1.5 2.7 0-.1 0-.9-.3-1.8-.5-2-.5-3.8 0-4.2l.4-.3.1 2.1c0 1.4.2 2.3.6 3.2a26 26 0 0 1 1.5 10c-.2.2-.3.2-.4 0zm-5.6-2.5c-.6-1-1-2.3-1.1-3-.2-1.4.3-1.5.7 0l1.1 2.7c.7 1.1.8 1.6.6 1.8-.3.2-.6-.1-1.3-1.5zm23 .2c0-.2 0-.3.3-.3.2 0 .3.1.2.3l-.2.2-.3-.2zm-44.8-.8c-.4-.9-.3-2 0-2 .2 0 .4.2.4.5s.4.9.8 1.2c.8.8.8 1-.1 1-.6 0-.8-.1-1.1-.7zm-59.3-1.6.2-1.6c.2-.3.1-.8-.4-1.8-.4-.7-.6-1.6-.5-2 0-.5.1-.4.6.6.7 1.6.9 1 .9-2.8 0-2.4 0-3 .3-2.8.5.5.1 9-.5 11-.2.8-.6.4-.6-.6zm101.6-.8c0-.4 0-.5.2-.4v.7c-.1.2-.2 0-.2-.3zm2.7.2c0-.1 0-.4.2-.6.2-.2.3-.1.3.3 0 .7-.2.8-.5.3zm3.7-2.2c-.2-.5.4-3 .7-3 .3.3 0 2.9-.3 3.2 0 .2-.3.1-.4-.2zm-38-.2c-.5-.6-1.2-2.1-1.6-3.7-.5-1.9-.5-3.5.2-3.6.3 0 .4 0 .3.8-.1.7.1 1.7.8 3.7.5 1.5.8 2.8.7 3-.1 0-.3 0-.5-.2zm34.5 0s.1-.2.3-.2c.1 0 .2.1.2.3 0 .1 0 .2-.2.2a.3.3 0 0 1-.3-.2zm-16.8-.6c-.2-.7-.2-2.8.1-2.8.3 0 .5 2.6.3 3-.1.1-.3 0-.4-.2zm17.2-3 .4-3.7c.2-.3.2.5.1 2.2-.3 4.2-.6 5.3-.5 1.5zm1.4 0c0-3 .4-3.8.7-1.6.1 1.4-.1 4.7-.4 4.7-.1 0-.3-1.3-.3-3zm-10 2c-.4-1.6-.4-3.4 0-3.4.3 0 .5.6.6 2 .2 2.1-.1 3-.6 1.3zm5.4.4c-.2-.6-.1-2.7.2-2.8.1-.1.2.4.2 1.5 0 1.8 0 2.1-.4 1.3zm-98-.7c0-.5 1.5-2.3 1.9-2.3.4 0 .2.7-.6 1.7-.9 1-1.3 1.2-1.3.6zm69.6-.3c-.4-1-.3-3.6.1-3.7.2-.1.4.6.5 2 .2 2.1-.1 3-.6 1.7zm-64.7 0c0-.2.2-1 .7-1.8.6-1.2.7-1.6.4-2-.2-.2-.1-.5.2-1.2.2-.5.4-1.2.3-1.5a4.6 4.6 0 0 0-2-2c-.8-.5-.7-1 .3-.8 1 .2 1-.1-.3-1.1-.6-.5-1-1-1-1.2.2-.4-.2-.8-1-1-.8-.2-2.8.3-4.3 1-.8.5-1.3.6-1.5.4-.1-.2 0-.4.7-.8 1.2-.7 1.2-1 .2-1.6-.8-.4-1-1-.4-1 .2 0 .8.3 1.3.8 1 .7 1 .8 2.1.5.7-.2 1.6-.2 2-.1 1 .1 2 1 1.8 1.5 0 .2.3.7.9 1.2 1.3 1 2 2.9 2 5.8v1.4h1.1c1 .1 1.3.3 1.8.9.8 1 .8 1.2-.2 1.2-.6 0-.8-.2-1-.6-.2-1-2.2-.4-3 1-.5 1.1-.8 1.4-1.1 1zm-5.3-2.4c-.3-.6 0-3 .4-3.3.2-.3.3.2.3 1.7 0 2-.4 2.6-.7 1.6zm77-.4c-.2-1-.2-6 0-6.8.4-1.3.6-.4.6 2V26l.8.3c.5.1.8.4.8.7 0 .5-.7 1-1.2.9-.1 0-.3.2-.2.5 0 .9-.6.8-.8 0zm21.5-3.6c-.3-5.1-.5-6.1-1-6-.3.2-.3-.1-.2-2.2.3-4.2.5-5.4.8-5.4.1 0 .2.4.1.8-.1 1 0 1 .5.4.5-.8.7-.3.5 1.3-.2 1.6-.5 1.9-1 1-.1-.6-.1-.6-.2.3a89.9 89.9 0 0 1 .7 13.2l-.2-3.4zm6.8 2.7v-.8c.1-.4 0-.6-.1-.6-.2 0-.3-.2-.3-.3 0-.2.2-.3.4-.3s.4-.4.6-1c.4-1.2 1-2 1.3-1.8 0 0 0 .5-.3.8-.2.4-.6 1.5-.7 2.4-.3 1.7-.5 2-.9 1.6zm-1.6-1.5-.2-2.2c0-1.6-.1-1.9-.7-2.1-1.5-.8-1.2-1.5.4-.8 1.3.5 2.5 2 2.5 3 0 .4-.1.9-.3 1-.4.2-.8-.4-.8-1.2 0-.3-.1-.6-.3-.6-.2 0-.2.5-.1 1.3 0 1.4-.2 2.4-.5 1.6zm-3.4-.9c-.2-.2.7-2.7 1.1-3 .5-.5.4.2-.1 1.6-.6 1.4-.7 1.6-1 1.4zm-111-.5a1 1 0 0 1-.7-.5c0-.3.1-.4.9-.4.5 0 1.4-.3 1.8-.5.5-.3 1-.5 1-.3.3.4 0 .7-1.2 1.3-1 .5-1.1.6-1.9.4zm89.2-1.3a40.7 40.7 0 0 1-.8-5.7c-.3 0-1.6.8-1.6 1 0 .2-.2.3-.4.3-.7 0-.5-.6.3-1.4.6-.5 1-.7 2-.8h1.2l.3-1.3c.1-.7.2-1.6.1-2-.2-.6-.1-.6.6-.5.9 0 1.2 1 .5 1.5-.5.4-.6 2.1-.1 2.6.2.2.1.3-.2.6-.2.2-.4.7-.4 1 0 .6-.1.8-.4.8-.2 0-.4-.2-.4-.6 0-.4-.1-.7-.3-.7-.2 0-.2.5 0 1.7.4 4.3.4 5 .1 5-.1 0-.4-.7-.5-1.5zm9.5.6.7-2.7c.3-1.2.6-2.6.6-3.2 0-.6 0-1.2.2-1.4l.6-1.7c.3-1.4.6-1.9.9-1.3.2.3-.4 3.6-.8 4-.2.2-.4.9-.4 1.5s0 1.4-.2 1.8a22 22 0 0 0-.4 1.6c-.2.8-.2.7.6-.3l1.4-1.7c.7-.8 1-3 .8-4.1-.3-1-.1-1.5.5-1.5.4 0 .5.2.5.9l.4 3.1.4 3c0 .8 0 .8-.4.3-.2-.2-.4-.8-.4-1.2 0-.4 0-.8-.2-.8-.1-.2-2 1.8-2 2.1l-.9 1.2c-1.1 1.1-2 1.3-1.9.4zm-26-.2c-.2-.3 0-1.4.4-2.5.2-.3 0-.4-.8-.5-1.3 0-1.2-.6.1-.7 1 0 1-.1 1.5-1.5.4-1.4 1-2 1.4-1.6.1.1 0 .6-.3 1-.4 1-1 3-1.3 4.5-.2 1-.8 1.8-1 1.3zm38.5-3c0-1-.2-2.1-.4-2.7-.6-1-.7-3.9-.3-4 .2-.1.4.2.5.9l.4 2c.4 1.5.6 3.5.4 4.5-.3 1.5-.7 1-.6-.8zm-29.7.5c0-.3 0-.4.2-.4s.3 0 .3.2l-.3.4c-.1.1-.2 0-.2-.2zM22.9 20c-.1-.2 2.1-3.1 2.5-3.3.6-.2.1.9-.8 2-1.2 1.4-1.4 1.5-1.7 1.3zm12.6-1.2c0-1 .6-1.3.8-.7.2.6 0 1.5-.5 1.5-.3 0-.4-.2-.3-.8zm75.8-.2c-.3-.2-.2-3.2 0-3.3.4-.3.6.5.6 2 0 1.1-.2 1.7-.6 1.3zm-83.6-1.5c.4-.3 1.7-1.1 3-1.7 2.2-1 2.6-1.2 4.5-1.2 3.1 0 3.8.2 5 1.6 1 1.1 1.3 2 .9 2l-1.5-1.4-1.2-1.4H33.1l-2.7 1.4-3 1.4c-.1 0 0-.3.3-.7zm-5-.3c-.7-.8-.5-1.1.5-.7.5.1.8.4.8.8.1.8-.4.7-1.2-.1zm111.6-1.3c.1-1.9.1-2-.4-2-.6 0-.6 0-.4-2.2l-.1-3.2c-.2-.6-.2-1.1 0-1.3.3-.4.7.8 1 3 0 1 .2 2.1.4 2.3.7.7.3 5.1-.4 5.3-.3.1-.3-.2-.1-1.9zm-19-.5-.4-2.3c-.3-.5-.3-.4-.3.8 0 .7-.2 1.3-.3 1.3-.2 0-.3-.3-.3-.7l-.1-2c-.2-1.3.2-1.8.5-.7.1.3.3.5.5.5.5-.1.9 1 1 3 0 2.2-.4 2.4-.6.1zm-90.4.7c0-.2.1-.3.3-.4.2 0 0-.2-.4-.2-.7 0-1.2-.4-1-.7l2.1-.3 4.2-1.1c2.4-.9 2.8-1 2.6-.5 0 .2-.8.6-1.6.9L27.6 15c-2 1-2.7 1.2-2.7.8zm115.7-1.6.3-1.9c.3-.3.5.7.5 1.8-.2 1.6-.3 1.9-.7 1.9-.2 0-.2-.5 0-1.8zM113 15.5c-.2-.3.1-2.1.4-2.1.3 0 .3 2 0 2.2h-.4zm-74-5.7.5-.7c.5-.4.6-.5.7-.1.2.5 0 1-.7 1-.3 0-.5-.1-.5-.2zM29 8.4c0-.1.2-.5.7-.7.9-.6.8-.8-.2-.4-.9.3-2.3.3-2.3 0 0-.5 3.9-1.2 3.9-.7 0 .2 0 .4.2.6.1.2 0 .5-.4.7-.9.5-1.7.8-1.9.5zm2.2-3.7c-.2-.2-.2-.4.4-.5.5 0 1.3-.4 2-.7 1.3-.6 1.3-.6 1.3 0 0 .2-.3.5-.7.6l-1.3.5c-1 .5-1.4.5-1.7.1zm114.9 98c-.2-.2-.5-.2-1 0-.5.3-.5.3.4.3.7 0 .8 0 .6-.3zm-34.2-7.6-.7-.2.2.2.6.3c.2 0 .1-.1 0-.3zm-5.3-3c0-.3-.2-.4-.6-.4-.7 0-.9.2-.5.6.3.3 1.1.2 1.1-.2zm2.4-1.7c1.1-1 1.1-1 .5-1.2-.5-.2-.7 0-1 .4-.3.3-.6.8-.6 1 0 .1 0 .3-.2.3s-.3.1-.3.2c0 .5.4.3 1.6-.7zm36.2-5.3.2-1c0-.2 0-.3-.5-.4-.8-.2-.9.1-.4 1.2.4.8.7.9.7.2zm-16.7-2.5c.1-3.4.2-11.6 0-11.6-.3 0-.7 5-.6 9.2.1 5.1.1 4.7.3 4.5l.3-2zm17.7-.6c.1-1.1 0-1.5-.2-1.4-.5.2-1 2.1-.5 2.3.1 0 .3.3.3.5 0 1 .3 0 .4-1.4zm-2.6.7c0-.2-.1-.3-.5-.3-.6 0-.7-.4 0-.8.5-.2.6-.5.6-2.5 0-1.2-.1-2.2-.3-2.2-.3 0-.8 1-1 2.5a20.8 20.8 0 0 1-.9 4c0 .2 2-.4 2-.7zm7.8-1.2c-.4-.3-.4.6-.1 1.4.1.3.2.3.2-.3.1-.4 0-1-.1-1zm-24.9.7c.2-.6 0-1-.3-.7-.3.2-.3 1.2 0 1.2 0 0 .3-.3.3-.5zm15-1.2c.3-3-.2-13.5-.6-13.8-.2-.2-.3 1.5-.2 3 0 .5 0 1-.2 1.3a63.6 63.6 0 0 0 .2 10.4c.2 1 .7.6.8-.9zm11.2-.5.4-7.7c.1-6.2 0-6.8-.9-2.5-.2 1.5-.3 2.8-.1 4.6.2 3 .1 4.6-.4 4.8-.2 0-.4.3-.4.6s.2.5.4.4c.3-.2.4 0 .4.8 0 1.7.5 1 .6-1zm-7.2-3.3c0-3-.2-3.7-.7-2.5-.2.6-.3 2-.3 4v3l.5-1c.4-.8.5-1.6.5-3.5zm-6.8 3.3c.3-1 .2-2.9 0-2.9-.3 0-.6 1.6-.6 2.8 0 .8.4 1 .6 0zm-11.5-1.7V77l-.3 1.6c-.4 1.6-.3 2 .1 2 .1 0 .2-.8.2-1.8zm8.7-1.4-.1.8c0 .8 0 1.1.1.7v-1.5zM123.5 79v-.3c-.1 0-.3.1-.3.3-.1.1 0 .2 0 .2.2 0 .3 0 .3-.2zm.3-3c0-.6 0-1-.3-.9l-.2 1.4c0 1 0 1.2.2.9.2-.2.3-.9.3-1.4zm19.6 0c.2-.3.3-1 .2-2 0-1.3-.1-1.6-.5-1.4-.2.2-.4.9-.5 2 0 1.7.1 2.1.8 1.4zm-15.5-5.2.3-3.1c.1-1.3 0-1.4-.4-1.4s-.5.3-.6 2l-.2 4.2v2.1l.4-1 .5-2.8zm17.7 1c.2-.8 0-.9-.6-.5-.4.2-.5.5-.5 1.4v1.1l.5-.6.6-1.4zm-40.1.2c-.1-.2-.2 0-.2.4 0 .3 0 .5.2.3V72zm3.5.2c.4-.4.1-.9-.4-.9-.4 0-1 .9-.7 1.2.2.2.8.1 1-.3zm4.8-1.6c0-1-.1-1.2-.3-.9-.3.5-.3 2.1 0 2.1.1 0 .3-.5.3-1.2zm-8.2-1c0-1.7-.2-2-.6-1.5v.7c.2.1.3.8.3 1.5 0 .8 0 1.3.2 1.2v-1.8zM99.7 71c0-.2 0-.6-.2-.9-.2-.4-.2-.4-.3.3-.1.6 0 .9.2.9s.3-.2.3-.3zm9.5-.5c-.1-.3-.2-.2-.2.1 0 .3 0 .4.2.4v-.5zm-10.6-2.1.6.3c.3.3.3.2.2-.6v-2.6c.3-2 0-3.9-.5-3.9-.2 0-.4-.3-.5-.6l-.3 4.3v5.3c.1.2.2-.3.3-1l.2-1.2zm2.7-.2a9.5 9.5 0 0 1-.1-2.7c0-.3 0-2-.2-3.8l-.7-5.8c-.3-2.5-1-4.2-1.4-3.7-.2.3.4 6.2 1.2 10.8.4 2.2.7 4.7.7 5.6 0 1.9.2 2.4.6 2 .2-.3.2-1 0-2.4zm6.8.3v1.4-1.4zM96.8 68c0-.9 0-1.6-.2-1.6s-.3-.5-.3-1.2c0-2.2-.5-1.1-.6 1.3 0 2.5 0 3.1.8 3.1.2 0 .3-.4.3-1.6zm52.5-.4 1.6-.9c.6-.5.7-.7.7-2.3v-1.8l-.4 1.1-.7 1.1c-.2 0-.2-.2-.1-.4l.4-1.5.4-1.6c.2-.4 0-.3-.7.3s-1 1.2-1 1.6c0 .4-.4 1.7-1 2.8-1.3 2.5-1.4 3.1-.5 2.4l1.3-.8zm3 0c0-.2 0-.3-.2-.2l-.2.4c0 .4.1.3.3-.2zm-60.4-1a9 9 0 0 1-.3-2.3 198.6 198.6 0 0 1-1-9 9.8 9.8 0 0 0-.5-3c-.5.1-1 2-.7 2.9.4 1 .2 9.4-.2 9.6-.4.1-.6-1.3-.4-3 0-1.1 0-1.4-.2-1a10 10 0 0 0 0 4c0 .6.3 1 .7 1 .5.3.5.2.6-3 .1-2 .3-3.4.5-3.4.2-.1.3 1 .3 3.2 0 3.4.3 4.4 1 4.4.2 0 .3-.2.2-.4zm17.3-2.5v-2.3c.2 0 .3-1.1.3-2.3v-2c-.3.2-1 6.2-.9 7 .2 1.3.3 1.7.6 1.7v-2.1zm44 .8c0-.6 0-.6-.3-.3-.3.5-.3 1 0 1 .2 0 .3-.3.3-.7zm-65.7-3.8c0-2.2 0-4.5-.2-5l-.2-1-.6 1.4c-.3.7-.6 1.7-.6 2.1 0 1.5.4 4.1.6 4.1.2 0 .3.5.3 1 0 1 .1 1.4.5 1.4.2 0 .2-1.8.2-4zM85.8 64c0-.2 0-.6-.2-1S85 62 85 61.4c-.1-.5-.3-1-.5-1s-.2 0 0-.3c.1-.2.2-1.7.1-4l-.1-3.6-1.3-1-1.4-1.1c-.3 0-.1 4 .2 4.8.4.8.4.8.5.2l.2-1.4c0-.3.1-.7.3-.8.2-.2.3.1.3.6v3c.2-.3 1 .5 1 1 0 .1-.2.4-.5.4-.5.2-.5.4-.4 2 0 1.1.2 2 .3 2 .2.1.3.5.3 1s.2 1 .4 1c.6.3 1.2.2 1.3-.1zm-3-3.5c0-2-.2-2.8-.5-3.3-.5-.6-.5-.6-.6 1-.1 1.3.1 3.8.4 4.7.1.2.3.4.5.4.4 0 .4-.5.3-2.8zm23.1-.1c-.2-.7-.2-.6-.3.3v1.9c.4.8.4.8.4-.4v-1.8zM81 61.7a25 25 0 0 1 0-4c0-2.1-.1-3.4-.4-4.4-.6-1.8-.6-2 0-2.6.5-.3.6-.7.6-2.3v-1.8l-.8 1.4c-.7 1.3-.7 1.7-.8 4 0 2.2 0 2.7-.4 2.5-.3 0-.3.2-.2 1.8.2 2.5.3 2.8.8 2.1.3-.4.3-.3.4 1.1 0 1.7 0 2.3-.2 2.5-.3.3-.6-.7-.6-1.6 0-.7-.1-1-.4-.9-.2.1-.3.4-.3.7 0 .9-.6 1-1 0-.2-.6-.3-.6-.5-.2-.3.6-.9.6-1.1 0-.2-.6-.8-.4-.7.2.1.5.6.7 2.3 1.3 1.3.4 2.3.8 2.4 1h.7c.4 0 .4 0 .2-.8zm7.5-3v.8c.1-.2.1-.6 0-.8zm-28-1.4c-.1-.2-.6-.3-1-.3-.5 0-.6 0-.2.3l1 .2c.5 0 .6 0 .3-.2zm-2.7-.5c-.4-.4-1.7-.6-1.7-.3s.5.5 1.3.5c.4 0 .5 0 .4-.2zM55 56c-.1-.2-.7-.4-1.2-.5-.6 0-1.6-.3-2.2-.4-.7-.2-1.3-.2-1.5 0-.3.3 0 .5 2.3 1s3.1.5 2.6-.1zm91.8-.2c0-.1 0-.2-.2 0-.2 0-.3.2-.3.3 0 .2.1.2.3.1l.2-.4zm-88.6-.5c0-.5-.4-.7-.7-.2-.2.3 0 .8.4.8.2 0 .3-.3.3-.6zm-1.6-1.6c0-1.4 0-1.8-.4-1.7-.5.3-.6.8-.5 2.3.1.8.3 1.3.5 1.3.3 0 .4-.5.4-1.9zm30 .5c0-.4-.3-.7-.4-.7-.3 0-.3 1.4 0 1.7.3.3.5-.3.4-1zm1.6.6-.1-.5c-.2 0-.3.2-.3.5l.1.5.3-.5zm60-.8c.8-1 .6-1.4-.4-.7-.4.3-.7 1.8-.3 1.8l.8-1.1zm-95 .3c.4-.8-.2-4.4-1-5.6l-.6-.9v3.3c0 3.3 0 3.3 1.2 3.7l.4-.5zm4.5-1.9c0-.3-.2-.5-.3-.5-.1 0-.3.3-.3.7 0 .3.2.6.3.5.1-.1.3-.4.3-.7zm30.9.2c.3-.3.6-1 .8-1.7.3-1 .3-1.1-.4-2.2-.4-.6-.8-1-.9-1-.3 0-1.5 4-1.3 4 .1.2.2 0 .2 0 0-.2.2-.3.3-.3.1 0 .3.4.3.9 0 1 .2 1.1 1 .3zm41.8-1c0-.5 0-.7-.2-.6-.2 0-.3.6-.3 1.1 0 .7 0 .9.3.6l.2-1.2zm-29-1-.6-1.2.1.9c0 .5.3 1.3.4 1.7.3.7.4.7.5.3 0-.3-.2-1.1-.5-1.8zm-44 0c0-.9 0-1-.3-.4-.2.3-.2.8-.1 1 .2.7.4.5.4-.6zm-25.8-.3-1.2-.4-1-.2.9.4c1 .5 1.7.6 1.3.2zm4 .1h-.5c-.2 0-.1.1.2.1.3 0 .4 0 .3-.1zm-1.9-2.4c0-2.3-.3-2.5-.8-.5-.4 1.6-.3 2.6.4 2.5.3 0 .4-.4.4-2zm3.4 1.2c-.3-1.7-.6-2-.5-.8 0 1.4 0 1.6.4 1.6.2 0 .2-.4.1-.8zm1.2 0c-.1-.2-.2-.2-.2.1 0 .3 0 .5.1.4v-.5zm44-1c0-.5-.1-.6-.3-.4-.2.2-.2.5-.1.6.2.5.4.4.4-.3zM58 48c0-.2-.1-.2-.1.1v.4c.2-.1.2-.3.1-.5zm-33.3.1-2-.9c-1.2-.5-1.6-.6-1.6-.4 0 .4 1.6 1.1 2.9 1.3l.7.1c.1 0 0 0 0-.1zM58 46.6l-.1.4c0 .3 0 .5.1.3v-.7zM51 46c-.1-.3-.2 0-.2.4 0 .5.1.7.2.5v-1zm-31.6.5a49.6 49.6 0 0 1-2-12.2v-.9c.2-.3.4-1.3.5-2.3.1-1.4 0-1.7-.2-1.4l-.6.3a63 63 0 0 1 0-7.9c.1-7.2.1-7.9-.3-8-.7-.3-.8.3-.5 4 .2 4.5.2 5.6-.1 6-.3.1-.3-.4-.4-2 0-3.3-.5-9.5-1-14.2-.2-2-.1-3.5.3-3.5l.3 3a102.8 102.8 0 0 0 .4 4.9c0 .5.1.5.5.2.3-.3.4-.7.2-2.6a9 9 0 0 0-.4-2.5L15.9 5V2.7l-1.7.1-1.6.1v4.8c-.1 5.6.3 8.3 1.3 9 .5.4.6.6.8 4.4v4c-.2.3-1-.7-1.4-1.6l-.3-.8v1c0 .8 0 1 .3 1s.4.3.4.7c0 .4-.1.7-.3.7-.5 0-.6.3-.4 2.6l.1 2v-1.8c.1-1.3.2-1.8.5-1.8.7 0 1 .7 1 2.9s0 2.2-.6 1.7c-.3-.2-.6-.4-.7-.3-.3.3.2 2.6.6 2.6.3 0 .7 3.8.7 7.8v2.3l1.6.8c.8.4 1.5 1 1.5 1.1 0 .5.7 1 1.4 1 .4 0 .5-.2.3-.5zm17.3-1c-.1-.1-.2 0-.2.4s.1.5.2.3v-.6zm-21-.3c-.2-.2-.7-.4-.9-.4-.2 0-.2.2.3.4.8.5 1.3.5.6 0zm-4.3-3c-.2 0-.3-.4-.3-.7 0-.7 0-.7-.4-.3-.5.5-.3 1.4.3 1.6.6 0 .9-.4.4-.5zm1.8-.6c0-.8 0-1.2-.2-1.1-.3.2-.4 1.4-.2 2 .3.8.4.5.4-.9zm-3.6-1.5.3-4c.1-1.7.3-2.4.5-2.3.4.1.6 1.3.7 4v2.4l.3-2.4.2-4.5c0-2 0-2-1.2-3.7-1.6-2.2-1.8-2.2-1.5.2a33 33 0 0 1-.1 9.4c-.3.1-.4-.2-.2-1.5.1-1.2 0-1.6-.2-1.5-.2 0-.4-.6-.6-1.6-.2-1-.7-2.3-1-3L6 30.1v4.2c.2 3.6.3 4.3.7 4.6.3.2.4.6.4 1.3 0 .6.1 1.1.2 1.1.2 0 .3-.4.3-.8 0-.9.4-1.3.6-.6.5 1.3.8 2 1 2l.3-1.9zm10-3.4c0-2.4-.1-4.5-.2-4.6-.4-.3-.9 1-.8 2 .6 6 .8 7.3 1 7.2v-4.6zM6.6 40c0-.3-.2-.6-.4-.6-.4 0-.5.9-.2 1.2.3.3.6 0 .6-.6zm6.1-3.8c-.2-1-.2-1-.2.7 0 1.6 0 1.8.2 1.2.2-.5.2-1.1 0-1.9zm1.3 1.5-.3-.8c-.2-.4-.2-.4-.2.2l.2.8c.2 0 .3-.1.3-.2zm14.6-9.4c-.2-.2-.3 0-.3 1 0 1.2 0 1.3.3.4v-1.4zm-8-.6c0-.3-1.5.6-1.7 1-.4 1 0 1.1.8.2l1-1.2zm-1.8-14c.8-.5 1-1.1.4-1.3-.2 0-.2-.3 0-.8.3-.5.4-.8.2-1-.4-.4-1.4 1-1.4 1.8l-.2 1.3c-.2.8 0 .8 1 0zM3.6 4.4c0-.2-.1-.1-.2.2 0 .2.1.4.2.3v-.5zm40 .4.8-1c.5-.8.5-1 .2-1.1-.3 0-.8 0-1.2.4-.4.3-1.2.8-1.8 1l-1.1.8c0 .2 2.7.1 3-.1z"/>
</svg>
