<?xml version="1.0" encoding="utf-8"?>
<svg xmlns="http://www.w3.org/2000/svg" xmlns:svg="http://www.w3.org/2000/svg" version="1.1" viewBox="0 0 224 144">
  <title>Two piglets are being pulled in a wheelbarrow by a farm worker, following the rest in a farm cart through the farm gates. A pair of cows, and a small flock of chickens look on.</title>
  <path d="M109.8 142.9c-.3-.6-.7-1.2-1-1.4-.3-.2-.6-.6-.7-1 0-.2-.4-.6-.7-.7-1.1-.3-3-2.3-3.7-4-1-2.1-1-3 .5-4.4 1.8-1.6 2.7-2.8 2.7-3.5 0-1 3.2-4.9 4-4.9.8 0 2.1 1.2 2.5 2.2a9.7 9.7 0 0 0 3.3 4.5c.8.4 1.4 1 2 2 .5.9 1 1.5 1.2 1.5.2 0 .7-.8 1.2-1.8l1-1.7-.7-1.4c-.8-1.5-.7-2 0-2.2l.6-.4c0-.3-1.8-3.1-2.4-3.9-.5-.6-.8-2.7-.5-3.4.1-.2.4-.4.6-.4.7 0 .7-.6 0-1.2-.4-.4-.9-.6-1-.6-.7 0-1.5.5-1.5.8 0 .2-.3.7-.7 1.2-.5.6-.8 1.5-1 3.1-.4 2.3-1 3.8-1.5 3.8-.3 0 0-1.9.3-2.5l.2-1.6c.1-2.2 1.9-5.2 3.2-5.5l1.3-.6c.8-.5 1-.3 1.3.8.2.6.4.9.9 1 .9 0 1.3.5 1.3 1.1 0 .4-.1.5-.4.4-.2-.1-.7 0-1.2.2-.7.4-.8.5-.6 1.5 0 .6.5 1.8 1 2.6 2 3.7 1.9 3.3 1.8 6.6 0 2.7 0 3.2-.7 4.6-.4 1-1 1.9-1.3 2.2l-1.1 2c-.5 1-1 1.8-2.4 3-2.4 2-3.7 2.6-5 2.5-.7 0-1.2.1-1.2.3 0 .1-.2.2-.5.2-.4 0-.7-.3-1-1zm3.7-1.2c.1-.3.6-.8 1-1 .6-.3.7-.5.6-1 0-.6.1-.9.4-1 .7-.2 1.3-.8 2.2-2.3 1-1.6 1-2.4.1-4.2-.7-1.5-1-1.8-1.8-1.8-.6 0-1.7-1.4-3.2-4.3-1-2.2-1.8-2.4-3.1-1-.5.5-1 1.2-1 1.4 0 1-1.2 2.8-3.2 5-1.4 1.4-1.6 1.7-1.4 2.4 0 .5.5 1.2.8 1.6.4.4.7.8.6 1-.3.3 1.4 1.9 2.5 2.4.6.2 1.7.3 3.5.2 1.7 0 2.7 0 2.7.2.2.6-.6 1.3-1.4 1.3-.7 0-.8 0-.7.4.1.4 0 .6-.3.6-.4 0-.5.3-.2.6l.9.1c.6 0 .8-.1 1-.6zm-2.2-.8c.3-.4.3-.4-.6-.4-.8 0-1 0-.6.4l.5.4.7-.4zm7.4-3c-.2-.2-.7.2-.5.5 0 .2.2.2.4 0s.2-.4.1-.4zm1.3-2c.5-.6 1-1.4 1-1.8l.7-1.6c.3-.6.4-1 .3-1-.1 0-.5.6-.8 1.4-.4.8-1 2-1.5 2.6l-.9 1.4c0 .4.5 0 1.2-1zm86 5.5c-8.2-1.8-9.2-2-9.2-2.5 0-.4.6-.3 3.5.3l4.5 1c2.7.5 2.9.5 2.9 1 0 .3-.6.4-1.7.2zm-56.1-1.2c-.3-.4.4-1.2 1.2-1.4l1-.4c.2-.4.8-.3.8.1 0 .2-.4.7-.9 1-.5.3-1 .6-1 .8 0 .3-1 .3-1.1 0zm-75.4-2.7c0-.4 0-.8-.2-1l-1-1.2a15 15 0 0 0-1.3-1.7c-1-.9-1-1.3-.3-1.3.3 0 .5-.1.5-.2 0-.3-2.3-.6-2.5-.3l-.2 2c-.2 1.5-.1 2 .2 2.3.5.4.2.8-.5.5-.7-.2-1-1.3-.7-3.3.1-2 .1-2-.7-2.7-.5-.4-.9-1-.9-1.2 0-.4-.2-.7-.6-.8-.4-.2-.8-.5-1-.9 0-.3-.5-1-.9-1.4a10 10 0 0 1-1.2-2c-.2-.7-.9-1.9-1.4-2.7-1.1-1.9-1.4-3.4-.8-5.3.3-1 .6-1.6 1-1.8 1-.4 1.1-.1.4.9-.5.7-.6 1.1-.6 2.7 0 1.8 0 2 1.2 4l1.3 2.2.6.8 1.1 1.7c.4.7.8 1.2 1.2 1.3.4 0 .7.3.8.7 0 .3.5 1 1 1.3 1.3 1 4 1.2 5.6.3.6-.3 1.4-.5 1.6-.4.8.2 2.2-1 2.2-1.7s2.1-3.1 4-4.5c.8-.7 1-1 1.1-2.4.2-1.8.7-2 .9-.2 0 1.6-.1 2.2-1.2 3.2-2 1.8-3 3-3.1 3.6-.2.9-.6 1.3-2 2.3-1.2 1-3 1.7-4.2 1.5-.7 0-.8 0-1 .7 0 .7.1 1 2.3 3.6a8 8 0 0 1 1 1.3c0 .1-1.5.7-1.8.7v-.6zm-32.4 0c-.2-.2-.4-.9-.5-1.5-.5-2.3-1-3.3-1.9-3.6-.8-.4-1.3-1-1-1.3l2 .4c1.9.6 2 .6 1.5 1-.4.5-.4.7 0 1.4.9 2 1.3 3.1 1.1 3.5-.2.5-.8.6-1.2 0zm3.8-1-1-1c-.3-.3-.5-.9-.5-1.4 0-.9 0-1-.7-1-1.7-.3-.2-1.6 1.8-1.6 1.1 0 1.6-.3 4.3-2.2l1.4-1.2c.3-.4.7-.6.8-.5 0 0-.3.6-.9 1.2-.6.6-1.1 1.3-1.2 1.6-.1.3-.7.8-1.3 1.1-1.4.7-2.8 2.1-2.8 2.7 0 .3.4.9 1 1.4.7.8.8 1 .5 1.3-.4.6-.7.5-1.4-.3zm102.5.5c0-.2.5-.5 1.4-.7 1.6-.4 1.8-.4 1.8 0 0 .3-.9.6-2.2.9-.8.1-1 0-1-.2zm43.4.1c-.5 0-.8-.2-.8-.5s.3-.3 1.2-.2a52.2 52.2 0 0 0 6.6.4v.3c-.1.2-5.5.3-7 0zm-45.5-1.5c0-.5.2-.7 1-1 1-.3 1-.4.5-1-.2-.3 0-.3 1-.2l2 .2c.8 0 .7.8-.2 1-2.1.4-3 .7-3.3 1.2-.4.7-1 .6-1-.2zm1.4-3.3c-1-.3-1.4-.8-.6-.8 1 0 2.1.3 2 .6 0 .4-.4.4-1.4.2zm44.4.1-4.9-.5c-4-.4-5.3-.6-4.9-1 0-.1 2.3 0 5 .3 7.4.8 8 .9 8.1 1.1.2.2-2.5.3-3.3.1zm-153.5-2.8c-1-.8-2-2-2.4-3.5-.2-.8-.2-1.3 0-2.5.7-2.2 1.2-2.1 1 .1-.3 2.3.2 3.4 1.8 5 .7.5 1.2 1.1 1.2 1.3 0 .4-.7.2-1.6-.4zm106.8 0c-1.2-.2-1-1 .1-.8 1.2.1 2.1.5 2.1.8 0 .3-1 .3-2.2 0zm-44-1.2c0-.7.2-1.2.3-1.2.4.1.4 2.2 0 2.4-.3 0-.4-.2-.3-1.2zm-56.3.8c-.2-.3 1.8-2 2.2-1.8l.5.1v.4c0 .5-.7 1-1.1.8-.2 0-.5 0-.7.3-.3.4-.6.5-.9.2zm142.2-.3c-2-.2-2-.6.1-.5 1.2 0 2 .2 2 .4s-.1.3-.4.3l-1.7-.2zm-146.2-.7c-.6-.6-.8-1.2-.4-1.2.3 0 1.6 1.3 1.6 1.6 0 .5-.6.3-1.2-.4zm11.2-1.5c.4-1.3.2-4-.5-6-.8-2.4-1-3.2-.3-3.2.2 0 .4.1.4.4 0 .6.5 1.7.8 1.5l.2-1.2c0-.7.3-1.9.6-2.7.3-.9.6-2 .6-2.6 0-1.3.3-1.6 1.2-1.4.3 0 1 0 1.4-.3.4-.2.8-.3 1-.2.5.3.2.9-.5 1.2-.8.3-1.8 1.5-2.5 2.8a32 32 0 0 0-1.1 9.4c0 1.9 0 2-.5 2.5-.8.5-1 .5-.8-.2zm53-.7c-.2-.2-.3-1-.4-1.5-.2-1.4-.5-1.7-1.4-1.7-.8 0-1.7-.8-2.5-2.2-.6-1-.9-5.2-.5-6.8.4-1.5 2-3 3-2.8 1 .2 2.3-.5 2.3-1.2 0-.3.1-.6.3-.6l.3-1.4c0-.7.4-1.9.7-2.6.5-1.1.6-1.2 1.5-1.2.5 0 1 .2 1.2.4.2.2.3 1.6.4 4 0 2.8.2 3.6.6 4.5.5 1 .8 2.3 1.2 5.5.2 1 .1 1.2-.8 2-2.4 2.2-4.3 2.8-5.6 1.8-.4-.3-1-.5-1.1-.4-.2 0 0 .2.4.4.8.3.9.4 1 2 .2 1 .2 1.8 0 2-.2.4-.5.3-.7-.2zm2.2-5.2 2-1.6c.9-.8 1.1-1.2 1.1-2 0-.6-.2-1.3-.6-1.7-.5-.7-.6-1.3-.8-4.2a142.2 142.2 0 0 1-.5-6c-.4 0-1 1.6-1 2.6 0 .6-.2 1.2-.4 1.4-.2.2-.4.6-.4 1 0 .3-.3.7-1 1-.5.3-1 .7-1 1-.1.1.2.8.6 1.5.7 1 1 1.2 2 1.5 1.6.5 2 1 2 2.3-.1 1.3-.8 1.6-.8.3 0-1-.5-1.6-1.7-1.9-1-.2-1.8-1-2.9-2.7-.8-1.3-1-1.4-1.5-.5-.1.4-.5.7-.7.8-.4 0-.5.5-.7 1.6-.2 1.8.2 3 1 3.2.4 0 .8.5 1.1 1.3.4.8.7 1.1 1.3 1.2 1.4.3 2 .3 2.9-.1zm-5-.6-.1-.6c0-.2-.2-.3-.4-.3-.5 0-.5.1 0 .8.3.6.8.7.6.1zm-33.3 5.3-1.5-.3c-.2 0-.6-.6-1-1.5-.3-.8-1-1.8-1.5-2.2-.5-.5-1-1-1-1.4 0-1 1-.5 1.9.8a26.8 26.8 0 0 0 2.4 3.2c.3.4 1 .7 2 .9 1 .1 1.7.4 1.8.5.1.5-2 .5-3.1 0zm106.3-1.2c-1.3-1-2.2-2.7-2.9-5-.3-1.3-.3-1.7 0-2 .2-.3.3-.3.6 0l.4.5c0 .7 1.3 3.5 1.8 4 .9.6 2 .6 2.8-.2.4-.4.7-.8.7-1 0-.2.3-.8.7-1.3.6-.9.7-1.4.8-3.5.1-2.7-.3-5.1-1-5.4-.5-.2-.7.2-1.2 2.9-.5 2.3-.4 2.9.2 2.9.6 0 1.1.7.8 1-.4.4-1 .2-2.3-.7-.8-.5-1-.6-1.5-.3l-1.3.2h-1c-.3.6-1.9-.1-3.1-1.3-.7-.7-1.6-1.3-1.8-1.3-.3 0-.7-.4-1-.9-.7-1.4-1.8-2.5-2.7-2.8-.6-.2-1.2-.8-2.2-2.4-1-1.5-1.4-2-1.8-2-.4 0-.9-.5-1.7-1.7a21.5 21.5 0 0 0-3-4.2c-.1 0-.2 1-.2 2.4 0 2.2 0 2.4-.6 2.5-.6.2-.6.5.3 3.5l.5 2.5c0 1-1 1.7-2.7 1.6-1.2 0-1.4 0-1.4-.6 0-.3 0-.6.2-.6.1 0 .2 0 .1-.2 0-.1 0-.8.3-1.4.3-.9.3-1.6.2-3 0-1-.2-2.7-.1-3.7 0-1.7-.1-2-.6-2.6-.5-.5-.6-.9-.6-2.6 0-3.2-.6-4-5.2-6.7-1.6-.9-2-.9-1.7 0 .2.5.2 1.1.2 1.5 0 .4.4 1.5.9 2.5 1 1.9 1 2.3.7 2.6-.2 0-.6-.4-.9-1a5 5 0 0 0-1.2-1.7c-.4-.3-.6-.8-.7-1.6-.1-.6-.4-1.4-.7-1.7-.4-.5-1.3-2.4-1.3-2.8h.4c.2 0 .6.3.8.8.5 1 1 .6.8-.4-.2-.7-1-1.2-2.2-1.7-.6-.1-.7 0-.5.4.1.6-1.1 2.2-1.8 2.2-.4 0-1.2-.9-1.2-1.3l-.5-.7c-.6-.5-.8-1.2-.4-1.2l1.1.4c.6.3.8.6.8 1 0 .5.2.7.4.7.3 0 .4-.2.4-.6l.3-1c.6-.5-.2-1.1-1.2-1-.9.2-1 .2-.9-.6l.2-2.2c.3-1.7.2-2.2-.5-1.6-.6.5-1.6.3-1-.2.4-.5.3-1-.3-1-.3 0-.5.1-.4.4.3.6-.6 1-1.7.7a29 29 0 0 0-3-.6l-4.5-1.2a59.3 59.3 0 0 0-11.2-2.7l-4-.7c-1.5-.2-2-.3-2.4-.9l-.7-1c0-.4-.5-.6-1.6-.8a181.6 181.6 0 0 1-4-.8c-.3.3 1.5 1 3.1 1.3 1.1.2 2 .5 2 .7.1.3-.1.3-1 .2L102 75c-2.3-.2-3.5-.5-4-.8-.8-.6-1.4-.8-3.8-1a1818.2 1818.2 0 0 1-18.4-2.3 68 68 0 0 0-7.7-.7c-.5 0-.7-.1-.7-.4 0-.2.1-.4.3-.4.6 0 1.2-3.5.8-3.8-.5-.3-.4-1 .2-1.6.6-.5.7-1.3.3-2.4a44 44 0 0 1-.6-11.9 30.2 30.2 0 0 1 .3-10l-3.4-.5a1284.2 1284.2 0 0 1-9.1-.5c-.4.4.8.8 2.6.9 1.9 0 2.4.5.8.7-1 0-1.5.5-1.5 1.5l-.3 5.5c-.3 5 0 13.5.3 12.8.4-.6.7-7.8.6-12.8 0-4.4 0-5.7.7-5.7.4 0 .4 5.7 0 10-.3 3.3-.3 3.6.1 4 .5.3.5.4 0 2.4-.4 2.2-.4 3.6 0 3.6.6 0 1-4.4 1.1-12.6.1-8.4.2-8.6.7-9 .8-.7 1.1-.2.6.8-.3.7-.4 1.3-.2 3.3l.2 2.8-.2 8.3c-.2 8-.1 8.6.8 9.7.2.3.4 1.1.4 1.9 0 .8.2 1.6.3 1.8.2.2.2.4-.1.7-.4.4-1 .4-3-.4-.4-.2-1.9-.2-3.4-.1h-3c-1.1 0-4.6 0-5.1.4-1.2.6-5.3-.5-6.3-1.6a7.7 7.7 0 0 1-1.5-3.5l-.7-2.8c-.3-.8-.5-1.8-.5-2.2 0-.4-.1-.8-.3-1a26.4 26.4 0 0 0-9 1.3l-2.6.2c-1 .2-1.4.1-1.5-.1-.4-1 1-1.4 5.2-1.6a103.6 103.6 0 0 0 15-1.7c.7-.3 1.1.1 1 1.1-.2.7-.2.8.5.6.5-.1.7 0 .7.3s-.2.4-.7.3c-.3-.1-.7 0-.8 0-.2.4-2-.1-2.4-.6-.2-.3-.6-.4-1.3-.3-1 0-1 .1-1.2 1V60a694.6 694.6 0 0 1 1.4 4.5c.1 0 .8-1.2 1.4-2.6.7-1.6 1.3-2.5 1.6-2.5.6 0 .5.7-.1 1.6-.3.4-.8 1.3-1 2l-.9 2-.5.8.9.5 1.4.7c.4.1.6.3.5.5-.2.6.8.7 1.7.3l1.3-.4c.5 0 1.1-.6 1-1 0-.6.1-.9.7-.9.8 0 .8 0 .4-.7-.2-.4-.2-.7.4-1.5.8-1.3.7-1.8-1-3.2-.9-.7-1.5-1.4-1.5-1.6 0-.6.2-.5 1.9.8.8.7 1.7 1.2 1.8 1.2.6 0 1.5-5.7 1-6.8-.1-.5 0-1 .2-1.5.4-.8.5-2 .2-3 0-.4-.3-.5-1-.5-.6 0-.9.3-1.5 1.4l-2.2 3.3c-.7 1-1.2 1.9-1 2l1.7-.2c3-.6 3.1-.6 3.1-.2 0 .3-.6.5-2.1.9-2.8.5-3.5.4-3.8-.5-.2-.6-.1-.8.7-1.6l2.6-3.5 2-3c.2-.3.1-.4-.1-.5-.2 0-.7-.4-1-.8-1.2-1.2-1.3-1-3.6 5.5-.5 1.5-1 2.8-1.5 3.3-.7.7-.8.7-4.4.9-4.9.2-12.8.2-13 0-.4-.4.5-.7 2.8-.9 10.3-.9 10.5-.9 12-.3.6.3 1.1-.7 2.7-4.5l1.8-3.6.4-1.3c0-.6-.2-.6-1.6-.5h-1.5c0-.5 3.4-1.8 4.3-1.8 1 0 1.2.1 2.6 1.6 2 2 2.5 3.4 2.8 7.1.4 3.6.9 4.4.7 1v-4.4c0-3.9 0-5-.6-6-.3-.6-.6-1.3-.6-1.6 0-.3-.2-.7-.5-.8-.3-.2-.5-.5-.4-.8.1-.2 0-.6-.4-.9-.4-.3-.6-.6-.4-.7 0-.1 2.1-.3 4.5-.4 3.8-.1 4.3 0 4.9.4.7.5 2 .6 1.6 0-.6-.6 2.1-.9 3.5-.3.5.3 1.2.5 1.6.6 1 .2 1.1 1 .4 2.2-1 1.7-1.2 6.2-.3 6.6.5.2.8-.2.3-.5-.2-.1-.3-.3 0-.5l1.9.2c2.3.4 3.4.4 4 0 .2-.3 1.4-.7 2.6-1 1.3-.1 2.3-.4 2.3-.4s-.2-.4-.6-.7c-1-1-.9-2.4.1-3.1 1-.8 1.5-1.9 1.1-2.6-.3-.7-.6-.8-3.3-1.1-2.7-.3-3.7-.7-7.8-2.5-1.8-.9-3.9-1.7-4.6-1.9-1.8-.4-2-1-.3-.9 1.5.2 1.6-.2.3-1.1L64.6 29l-.8-.8-4.3.2c-4.7.2-4.8.2-5.1-1.2-.2-.6-.5-.8-1.7-1.2C51 25.5 50 24.8 50 24c0-.7 1-1 1.7-.8.6.2.3.7-.4.7-.9 0-.5.6.8 1.3 1.5.7 2.4.7 3 0 .8-1.3 1.6-2 2-2 .4 0 .4.3 0 .5-.3.1-.6.6-.8 1.2-.3.9-.2 1 .3 1.4.6.4.6.5.2.7-.3.2-.8.2-1 .1-.4 0-.5 0-.4.3 0 .3.6.3 2.2.3h3.8c2 0 2-.1 1.6-1.6a2 2 0 0 1 0-1.5c.4-1.2.9-.7.9 1 0 1.2.1 1.6.5 1.9l1.4.8c1 .7 2 .8 2.4.3.2-.2.4-.2.5.2.2.6-.3 1-1.3 1h-.8l.6.5c.3.3.7.9.8 1.3.2.5.7 1 1.7 1.4l2.5 1.2c2.7 1.3 6.3 2.3 7.3 2.1.5-.1.4-.2-.3-.6-.5-.2-1-.6-1-1l-.9-1.3c-.4-.5-.6-1-.5-1.2.2-.4.5-.2 1.5 1l1.2 1.4 1.6-.2c1.2-.1 1.7-.3 2.2-.8 1-1.2.8-1.6-1-1.4-1.4.2-1.6.2-1.6-.2 0-.3.3-.4 1.7-.4s1.8-.1 2-.5c.3-.6.1-1.3-.5-1.5l-2 .1c-5.5.9-11.2 1-11 .2.1-.2.5-.3 1-.2h.7l-.6-.4a31 31 0 0 0-1.2-1c-.7-.4-.7-.6-.6-1.5.2-1 .2-1-.8-1.3l-1.3-.3c-1 0-3.1-.9-4.2-1.8-1.9-1.7-2.4-3.4-1.6-5 .5-1 1.2-1 2 0 .6.9.5 1.3-.2.7-.7-.6-.8-.6-1.1 0-.8 1.5 1 4.3 2.6 4.3.3 0 .9.2 1.2.5.5.5 4 1.4 4.3 1.2.1 0 0-.7-.3-1.4-.5-1.4-.6-3.1-.2-3.7.2-.4.4-.4 1.3.2.6.3 1.5.5 2 .5h.8l-.7-.5c-.8-.6-1-1.6-.3-1.6.4 0 2.5 1.9 2.5 2.2l-.6.2c-.4 0-.8.1-.9.3l-1.4.2c-.7 0-1.3.2-1.3.3 0 .1-.2.3-.4.3-.5 0-.4.6.5 2.3.4.9.9 1.4 1.6 1.7 1.7.8 1.8.9 1.7 1.1-.2.4-1.3.2-2.4-.4-.8-.5-1-.5-1.5-.3-.7.4-.8 1-.2 1.4.3.2 1 .3 2.5.2 2.2-.2 2.8 0 1.8.5-.5.3-.2.3 2.1.3 1.5 0 2.7-.1 2.7-.2 0-.2-.2-.3-.6-.3-.4-.1-.5-.3-.5-.6s-.3-1-.7-1.4l-1-1.4c0-.3-.3-.6-.6-.6-.6 0-.7-.3-.3-.6.2-.1.3-.4.3-.7 0-.6.4-.7.7-.2 0 .2.6.2 1.3.1 1.4-.2 1.6.2.4.7-.8.3-.9.4-.7 1.1.2 1.1 1.9 2.6 2.5 2.3.5-.2 1 .1 2.1 1.4 1.4 1.7 3.5-2.6 3.5-7 0-2-.3-1.9-1.6 1a7.3 7.3 0 0 1-1.3 2.2c-.2 0-.3 0-.3-.2 0-.5 1-2.7 1.6-4l.8-1.6-.5-.5c-.4-.4-.5-.8-.5-1l.2-.7s.1-.2.3-.2l.2.6c0 .8.3 1 1.7 1.8 1 .4 1.5.5 2.2.4 1.4-.3 1 .4-.4.7-1.2.3-1.4.8-1.9 4 0 1-.3 2-.5 2.3-.4.7-.2 1.3.7 1.6 1 .4.5.7-.7.6-1-.1-1-.1-1 .4 0 .3 0 .6.2.7.2.2.2.3 0 .5-.3.2-.7.8-.9 1.4l-.6 1.5c-.3.7.8.6 1.7-.3 1-.8 1.4-.6.7.4-.3.4-1 .9-1.9 1.1-.7.3-1.8.9-2.3 1.3l-1 .8h.8c2 0 4-.3 4-.7 0-.5 1.2-.3 1.3.3.1.7-.4 1-1.8 1l-2.2.1c-1 .2-1 .2-.8 1.2.2 1-.6 2.8-1.4 3.3-.4.2-.5 1.4-.1 1.6.1 0 .3.4.3.7 0 .7 1 .7 1.6 0 .3-.3.7-.6.9-.6.2 0 1-.4 1.5-.9.7-.5 1.5-1 1.8-1 .6 0 .6.1.2.4-.3.2-.5.5-.5.7 0 .1-.2.4-.6.6-.4.3-.5.5-.4.9.3.5 1.3.5 2.9-.2l.9-.4-.7-.3c-.4-.2-.8-.5-.8-.7 0-.4.2-.4 1-.3.6.1 1.2 0 2.6-.7 1-.5 2-1.2 2.4-1.5.5-.6 1.2-.7 1.2-.3 0 .7-.7 1.4-2 2-1.3.7-1.5 1.1-.3.8.6-.1 6.1-5.4 5.9-5.6l-2.2.6c-1.1.4-3.2.9-4.6 1.2l-4 1a5 5 0 0 1-2.4.4l-1.5-.1c-.8 0-1-.5-.2-.8l2.5-.4c2.4-.2 3.1-.6 4.3-1.9 1.4-1.6 1.5-2 .7-2.9-.6-.5-.7-.6-1.5-.4-.5.2-1 .2-1 0l-.8-.3c-.3-.1-.6-.4-.6-.6 0-.5 0-.5 1.5-.1 2.7.6 7.6-1.2 9.3-3.3.7-1 1.2-1.2 1.5-.7.2.3-1 2-2.4 3.6-.5.6-.9 1.1-.9 1.3 0 .2 2.7 0 4-.4.5-.1.7-.4.8-1.2.3-1.4 1.5-3 2.2-2.7.2.1.4.4.4.7 0 .7-.5 1.9-.8 1.9l-.2.4c0 .6-1 2.6-1.7 3.6-.4.6-.4 1-.2 2.4.1.9.4 1.7.5 1.9.1 0 .5-.3 1-1 .3-.7.8-1.2 1-1.2.4 0 .3.6-.3 1.3-.4.6-1.2 2.2-1 2.3.3.3.9-.3 1-1.1.4-1.4 1-1.6 1-.4-.1.8 0 1 .4 1 .3 0 .6-.4 1-1.4l.7-1.6c.5-.4.6 0 .2 1.2-.2.9-.2 1.2 0 1.6.3.5.2.6-.4 1.2a4 4 0 0 1-1.5.8c-1 .2-1.4 1-.8 1.7.4.4.4.7.1 1.6l-.5 2.6c-.2 1.2-.2 1.4.4 1.5l6 .8 1.8.2v-1c0-1.7 1-1.4 1 .4l.2.9 3.1.6a93 93 0 0 0 10.9 1.4c1.7.1 1.8 0 2-.5.2-1 1-.9 1 .2v1l2.5.4c2.4.4 3.4.8 3 1.2l-1.6-.1-2.6-.5-1.3-.2v4.8l.8.1 3.6.6c3.3.5 3.8.6 3.8 1 0 .3-.6.2-4.1-.3-4.5-.8-4.1-1-4 1.3l.5 2.8c.2.8.3.8 2.4 1.2 1.2.2 2 .5 2 .6 0 .3-.7.3-2.7 0l-1.4-.2-.1 1.3c-.2 1.5 0 4.6.2 4.9.3.2 5.6.7 6.2.6.5-.2.6-.3.4-1.4l-.4-4.7-.1-3.4 1.8-1.8c1-1 2-1.9 2.4-2 1-.4.8-1-.2-.7-1 .2-1.8-.4-1.8-1.5 0-.5-.2-.8-.5-1-.9-.5-1.2-2.2-.7-3.8a5.5 5.5 0 0 1 5.3-3.9c1 0 1.2.1 2.2 1.3.6.7 1.2 1.7 1.3 2 .1 1-.8 3.3-1.4 3.3-.4 0-.5-.9-.1-1.2.5-.3.3-2.4-.4-3.4-.6-.9-.6-.9-.8-.3 0 .4-.2.5-.4.2-.9-.8-3.2 0-3.2 1.2s1.7 3 3.1 3.5c.6.2 1.2.5 1.4.8.3.3.4.3 1-.2.4-.3.8-.7.8-1 .1-.9 1-.8 1.3 0 .2 1 0 1.5-.7 1.5s-.8.3-.5 1.3c.6 1.7.9 2.2 1.8 2.5.5.2 1 .5 1 .7.2.4-1.6.1-2.5-.4-.5-.4-.8-.4-2 0l-1.8.4c-.9 0-.5-.5.5-.8.8-.3 1.2-.5 1.4-1.1.5-1.5.4-1.9-.5-1.6-1.1.3-2 .2-2-.2-.2-.2.1-.3.7-.3 1.1 0 1.3-.3.4-.7-.7-.3-1.5.2-1.9 1-.2.7-.5.6-.9-.2-.3-.7-1.1-.8-1.1-.1 0 .6.5 1 1.2 1 .3 0 .7.3 1 .5 0 .2.4.4.6.4.2 0 .4 0 .4.2 0 .3-2 2.1-2.3 2.1-.2 0-.8.4-1.3 1-1.1 1-1 1.4.1 1.4 1.3 0 3.7 3.3 4.1 5.6a186 186 0 0 1 .6 12.2c-.1.4 0 .2.5-.5.4-.6.9-1.1 1-1.1.3 0 .4 0 .4.2-1.6 3.2-2.1 4.3-2 4.8.1 1 .6 1 .8 0 .1-.5.8-1.5 1.6-2.3 2.4-2.6 5-9.6 3.6-9.6-.3 0-2.1 3.6-2.6 5-.2.6-.5 1-.6 1-.6 0 0-2 1.5-4.5l1.4-2.6V69c0-1.7.2-3.1.3-3.1l1.2 2c.5 1.2 1 2 1.2 1.8.2 0 .2-.3 0-.5l-.5-1-1-3c-1-2.6-1-2.8-.5-2.8.2 0 .5.6.7 1.3.2.7.6 2 1 2.7a46.6 46.6 0 0 1 3.9 14c.2 3.2.1 3.8-.2 4.2-.3.3-.5 1.1-.7 2l-.2 1.5h1c.7 0 1-.1 1.4-.9.5-1 .4-1.5-.3-1.5-.6 0-.7-.5-.1-1.2.7-.7.8-2.5.3-3.1-.3-.3-.3-.9-.2-1.7.1-1 0-1.7-.2-2.5-.4-1.1-.4-1.3 0-2 .2-.5.7-1 1-1 .7-.2 1.5.2 1.5.8 0 .5 1.2 1.2 2.2 1.2.5 0 1 .1 1 .3 0 .4-1.2.8-2.5.8-1.2 0-1.3.1-1.5.9-.3 1-.2 7 .1 7 .7.1 1.7 0 2.2-.4a4 4 0 0 1 1.7-.4c.6 0 1.3 0 1.4-.2.5-.3.9-2.5.7-3.1-.3-.8 0-1 .5-.5.3.3.5.8.5 1.4 0 .7.1.8.3.5l.2-1c0-.4.2-.6.6-.7.7-.2.7-.6 0-1.5-.4-.5-.8-.7-1-.6-.5.1-.6 0-.8-.8-.2-.9-.4-1-1.1-1.2-.9-.2-1.9-1-1.9-1.7 0-.4.6-1 1-1 .7 0 2.2 1.5 2.7 2.5a4 4 0 0 0 1.3 1.6c1 .5 1.9 2.2 2 3.3a8 8 0 0 1-.2 1.7c-.1.6 0 1 .2 1.4.8 1 1.7-.7 1-2-.3-.7-.3-.9 0-1.2.2-.3.5-1 .7-1.8.3-1.4.3-1.5-.3-2.3L170 76c-.5-.2-.5-.7 0-.7l1.1-.4c.7-.3.9-.3 2 .4a7 7 0 0 1 1.4 1c.1.2.3.2.7 0 .3-.1.8-.2 1.2 0 .5 0 .7 0 1-.7.7-1.4.5-1.5-2.5-1.7l-3-.4c-.4-.3-3.4-1-7.3-1.5-1.7-.2-3.4-.6-3.7-.7a16 16 0 0 0-2.7-.5c-2.2-.2-3.4-.7-3-1 .3-.3 3.9.1 5.8.6l2.4.4c.6 0 1.6.1 2.2.3.7.3 2.5.7 4 1l3.8.8c.6.2 2 .3 3 .3 1.4 0 1.9.1 2.3.5.6.5 7 2 8.2 1.8.5 0 .6-.3.8-1.5l.1-2.4c0-1-.2-1.1-5.4-1.8a1755.1 1755.1 0 0 1-11-1.6v.7c.5 1.5.6 2.4.2 2.4-.4 0-.9-1-1-2 0-.7-.2-.8-1.5-1a189.4 189.4 0 0 1-12.9-2.3c-2.2-.3-3-.7-2.5-1 .2-.3.6-.3 1.4 0a171 171 0 0 0 14.9 2.6l.2-3.5V61l-.9-.4a21 21 0 0 0-4-.7 96.7 96.7 0 0 1-9-1.2l-1.3-.2v1.2c0 2.2-.3 4.5-.6 4.3-.2 0-.3-1-.3-2.8v-2.8l-1.5-.2c-1.5-.3-2.3-.7-1.8-1h1.3c1 .2 1.2.2 1.6-.2.5-.7 1-.7 1 0 0 .2.3.5.5.6a207.9 207.9 0 0 0 14.5 2.2c.6.1.7 0 .7-.6 0-.9.6-.7.8.3.1.7.2.7 1.8.8 1 0 3.6.4 5.9.9 7.2 1.4 8.2 1.5 8.5 1 .3-.7 1.2-.6 1.3.1 0 .6.2.6 2.6.8 1.4 0 2.7.2 2.9.4l2 .3c2.6 0 6.3.7 6.4 1l-.4.6c-.4.2-1.1.2-3.3-.3-2-.3-2.8-.4-3.1-.2-.3.2-.8.1-1.8-.1-1.7-.5-5-1.1-5.2-1 0 0-.2 1.5-.2 3.1 0 3.2.2 3.6 1.4 3.6l7.6 1 7 .8c.2-.1.3-1.1.3-2.3 0-1.5-.1-2.2-.4-2.7-.5-.6-.5-.7 0-1.1.3-.4.3-.6 0-.8-.6-.6 0-2 .7-1.6.4.3 1 5 .6 5.7l-.2 1.7c0 1.2 0 1.4.7 1.8.7.3 7 1.7 9.5 2.1 2.1.3 2.5.5 2.5.8 0 .5-1 .5-3.2 0a1525.1 1525.1 0 0 0-9-1.9c-.5-.1-1 2-1 3.6 0 1 0 1.2.8 1.6l.8.5-.6.3c-.7.2-1 1-1.5 4 0 .5-.4 1.4-.7 1.8l-.7.7 2 .3a53 53 0 0 1 6 1.3c3 .6 5.7 1.4 6 1.7 0 .2 0 .4-.2.6a132.5 132.5 0 0 0-17-3.7c-.5-.1-1 0-1.3.3-.7.6-5.2 1.4-5.6 1-.4-.4.2-.8 1.2-.8s3-.6 3-.8c0-.3-2.8-1-5.9-1.3-3.5-.3-9-1.5-9.7-2-.8-.6-1-.6-1 .3 0 .5-.1 1-.3 1.3-.5.8.1 2.6 1.1 3.3 1.3 1 2.1 2.8 2.1 5 0 2.8-.2 3.4-1 3.4-.9 0-1 .2-.6.8.2.3.4.2 1-.2 1-.9.7-1 5 1.7l1.7.7c1 .3 1.6 1 1.8 2 0 .9 0 1-1 1.6-1.3.6-4 3.2-5.7 5.1l-1 1.3.6 1.7c.7 2 .7 3.5 0 4.4-.2.3-.6 1.3-.7 2-.5 2-1.6 4.2-3 5.7-2 2.3-3.4 2.6-5.2 1.2zm2.6-.9-.6-.1c-.3 0-.5.1-.4.2.2.3 1 .2 1-.1zm-4.8-9.2a2 2 0 0 1-.5-1.2c0-.3-.1-.5-.3-.4-.4.2-.1 1.3.6 2.3.5.6.6.7.7.3 0-.2-.2-.7-.5-1zm3.4.5c.2-.4.4-1.5.6-2.5.2-1.6.7-2.4 1.3-2.4.4 0 .3-1-.1-1.3-.4-.4-1.7-.1-2.3.4-.4.4-1 2-1.1 3.3 0 .4-.3.7-.7.7l-.6.1.6 1c.3.7.7 1.1 1 1.2l.8.1c.1 0 .3-.2.5-.6zm-5-.5c0-.4-.5-1.7-1.1-2.9-.6-1.3-1.1-2.6-1.2-3.2 0-.7-.2-1.2-.7-1.7-.5-.5-.7-1-.6-1.2.3-.7 1.2-.5 2 .5.6 1 .7 1 1 .4.2-.6.8-.9 1.3-.5.2.2.4.2.5-.1.3-.5 2.5-.9 2.5-.5l-.3 1-.6 1.2c-.3 1.2.3.7 1-.9.7-1.5 1.3-1.7 1-.3-.2 1.3.3 1.1.8-.2.4-1.4.7-1.8 1.2-1.8s.4.7-.2 1.7l-.5 1h.9c.7 0 1-.2 1.4-1.1.4-.6.8-1 1-1 .5 0 .5.2.1 1-.3 1 0 1 1 0 .7-.7 1-.9 1.2-.6.3.2.5.1 1.2-.5.9-1 1.5-.9 1 0-.6.8.2.7 1-.1l1.8-1.7 1.3-1.1c0-.2-.5-.3-1.3-.2a594.9 594.9 0 0 1-17.9 2c-2.3 0-3.4.3-3.8 1-.1.3-.4 1.2-.5 2.1-.3 1.5-.3 1.7 0 2.1l.9 1.2a53.7 53.7 0 0 1 3.1 3.8c1.2 1.4 1.5 1.5 1.5.6zM183 113c.1-.6 0-1.6-.3-2.4l-.4-2c0-.4-.1-.5-1.1-.5-1.3 0-1.4.2-.3 1.8.3.5.8 1.8 1 2.8.5 2 .9 2.1 1.1.3zm-10.3-2c-.3-.4-.4 0-.3.7l.2.6.1-.6v-.8zm-.2-4.2c0-.2-.2 0-.4.2l-.4.8c0 .2.2 0 .4-.2l.4-.8zm10.6 0c.3-.9 0-1-.5 0-.4.8-.4 1 0 .8.2 0 .4-.4.5-.8zm-18.3-1a9 9 0 0 0 .3-1.9c0-.8-.2-1.1-1-1.8l-2.3-2.3c-1.3-1.4-1.8-1.7-1.7-1 0 .4 0 .6-.3.6-.2 0-.4-.3-.5-.8 0-.5 0-.7.3-.7.6 0 .8-.9.4-1.2l-1.6-1.7a8.9 8.9 0 0 0-2.6-2.1c-1.1-.6-1.5-1-2-1.8-.5-1.2-2.2-2.5-3.2-2.5-.6 0-.6.1-.5 1 .2.7.6 1.4 1.4 2.2.8.9 1.1 1.4 1 1.7-.1.3.2.8 1.1 1.7.7.7 2 2.1 2.8 3.2l3 3.6 3.1 3.4c.9 1 1.7 1.7 1.8 1.6.1 0 .4-.6.5-1.1zm-2.7-2c-.3-.3-.2-1.9 0-2 .4-.3.6.2.7 1.2 0 .8-.3 1.2-.7.8zm4.9-1.4c0-.2-.2-.3-.5-.3-.2 0-.3.1-.2.3l.4.3.3-.3zm-13-2.3c0-.7.3-1.5.4-1.8.1-.5 0-.9-.7-1.6a4 4 0 0 0-1-1c-.2 0-.3.8-.4 1.6-.2 1.2 0 1.8.3 2.8.3.7.7 1.2.8 1.2.1 0 .4-.5.5-1.2zm15 .5c0-.2.4-.4.8-.5.7-.3 2.2-1.5 2.2-1.8h-.5c-.3 0-.4-.2-.4-.5s0-.4-.3-.4c-.4 0-.4-.2-.3-.6a8 8 0 0 0 .3-2c0-1-.2-1.6-.6-2-.3-.4-.6-.8-.6-1 0-.1-.5.1-1.2.7-.6.5-1.4.9-1.8.9-.3 0-.7.1-1 .3-.5.6-.8-.1-.6-1.5a3 3 0 0 1 1-2c1.2-1.1 2.4-3.4 2-3.8-.2-.2-.4 0-.7.2-1.2 1-1.5.3-.5-1l.6-.8s-.5 0-1.1.3l-1.7.3c-.3 0-1 .4-1.2.7a2 2 0 0 1-1.4.7c-2.6 0-4.3 1.8-4.3 4.4 0 .8 0 1.4.2 1.4.1 0 .2-.3.2-.8 0-1 .5-1.6 1.2-1.6.6 0 .6.2.1.7-.8.9.2 4.6 1.5 5 .3.1.7.4 1 .8l1.4 1.3c.5.4 1 .9 1.1 1.2.2.7 2.2 1.6 3.5 1.6.7 0 1.2-.1 1.2-.2zM165 89c-.2-.4.5-1.4.8-1 .2.2-.1 1.4-.4 1.4-.2 0-.4-.2-.5-.4zm13.5 11.1c0-.2.2-.6.5-.8.7-.5 1.2-1.6 1.2-2.7 0-.4.2-1 .4-1 .3-.3.3-.5.1-.7-.2-.2-.5 0-.9.4-.6.7-1.5 1-1.5.5l.8-1c.8-.9.8-1 .7-2.2-.2-1-.1-1.3.3-1.4.6-.3 1.1.3 1.1 1.2 0 .8.8 2.1 1.1 2 .3-.3.3-2.8.1-3.5 0-.2-.3-.4-.5-.4-.7 0-1.7-1.3-2-2.7-.3-.9-.6-1.5-.8-1.5l-1.2.4a5 5 0 0 1-2 .3c-.4 0-1.4 0-2 .2l-1.5-.1c-.2-.2-.7-.3-1-.3-.5.1-.6.3-.8 1.8l-.1 1.8 1.4 1.4 1.5 2c.3.8.7.6.7-.4 0-.9-.7-1.8-1.5-2.1-.6-.3-.6-.4-.6-2 .1-1.8.6-2 .8-.3 0 .9.3 1.3 1 2 .6.4 1 1.1 1.2 1.6.2 1-.2 2.3-.7 2.2-.3 0-.4.2-.2.9s0 1.1-.5 2.1c-.3.7-1 1.7-1.4 2.1l-.8.8h3.5c3.1-.1 3.6-.2 3.6-.6zm9.2-.2a12 12 0 0 0-3.4-1.7c-.4 0-.1.6.6 1.4.7.7 1 .8 1.9.7.6 0 1-.2.9-.4zm-15.2-4.5c0-.6-.1-1.3-.3-1.6-.3-.4-.4-.3-.4 1.2 0 1.7.5 2 .7.4zm-3.9-4.6c1-1.3 1.2-1.6.6-1.8-.2 0-.7.2-1.2.8-.5.5-1.1 1-1.4 1.1-.7.4-.4 1.2.4 1.2.4 0 1-.5 1.6-1.3zm-20.2-2.2.3-.6c.1-.1.3-.4.3-.7 0-.2.1-.6.4-.8.3-.2.5-.2 1.3.3 1.2.7 1.4.7 1.7-.2.4-1 0-1.3-1.5-1-.7.2-1.4.3-1.5.1-.4-.4.7-.8 2.6-1l2-.1v.8c0 .5-.3 1.1-.7 1.6-.7 1-.4 1.5.4.7.4-.4.6-.8.6-2 0-1 .2-2.3.6-3.5.7-2.2.8-3 .4-3.2-.6-.4-1.3 1.2-1.7 3.4-.2 1-1 1.4-1 .6 0-1 .7-3.2 1.3-4 .7-1.1.8-2 .2-2.7-.3-.5-.4-.5-.4.2 0 .8-2 6.5-2.3 7-.7.6-.6-.3.1-2.3 1.5-4 1.5-4 1-5s-.7-1-1 .2c-.8 2.3-2.5 5.8-3.5 6.8-1.8 1.8-2.1 2.8-1 2.8.5 0 1 .1 1 .3.3.4-.4 1-1.2 1-1.2 0-1 1 .4 1.7 1 .4 1.2.4 1.2-.4zm-3.5.4h-.5c-.2 0-.1.1.2.1.3 0 .4 0 .3-.1zm-1.7-3.9c.2-.5.1-.7-.2-.7-.3 0-.4.3-.4 1 0 1 .4 1 .6-.3zm58.6.8c-1.3-.3-1.1-.8.3-1 .9 0 1.1-.1 1.1-.5l.4-1.4c.2-.4.4-1.5.5-2.2l.1-1.4-1-.3-2-.4-3.3-.5-8.7-1.3h-1l-.1 2-.3 3.1c0 .8-.2 1-.6.9-.4 0-.7 0-.8.2 0 .1-.1.2 0 .2l3.4.7c2.2.4 3.6.5 3.9.4.6-.3 2.4 0 3 .5.2.3 1 .6 2 .7.9 0 1.9.3 2.2.4l1.2.2c.5 0 .4 0-.3-.3zm-23.6-.6c.2-.2.4-.7.4-1 0-.3.2-.8.4-1 .2-.4.4-.9.4-1.3 0-.7.4-1.3 1-1.3.2 0 .3.3.3.7 0 .4.2.6.5.6l1.2.4c.3.2 1.2.4 2 .5 1.1.2 1.3.2 1.2-.2 0-.2 0-.5.3-.7.7-.5 1.1-2 1.2-3.7v-1.7l-2.2-.3a58 58 0 0 1-5.6-1c-.1.1 0 .6.2 1.1.7 1.6.3 3.2-.4 1.9-.4-.6-.4-.6-.5.3-.2 1.1-1 1.3-1.3.2-.2-.5-.3-.6-1.3-.6l-1.3-.2c-.3-.3-1.7-.2-1.7 0s.3.4.6.5c.7.2.6.4-.5 1-.9.5-1 .6-.8 1.7l.2 1.6c0 .3.4.7.8 1 .5.2.8.6.8.9 0 .4 0 .5-.6.2s-1.3-.1-1.2.4c.2.4 1.2.6 3.6.6 1.6 0 2-.1 2.3-.6zm-3-2.5c-.6-.3-.3-1.2.5-1.2.8-.1 2 .7 1.7 1.2-.2.3-1.7.4-2.2 0zm-34 2.4c.5-.4.6-.9.6-1.9 0-.9.2-1.5.4-1.8.3-.3.5-1 .6-1.7.1-1 0-1.2-.3-1.2-.5 0-.5-.5 0-1.3.3-.5.4-1.4.5-4.8 0-4.6 0-4.7-1.6-6.5-1.4-1.5-1.8-.7-1.8 3.8 0 2.4 0 3.3-.3 3.5-.3.2-.4 1.3-.4 4.7l-.1 5.8c-.2 1.3-.2 1.4.4 1.6 1 .4 1.5.4 2-.2zm3.2-4.9c0-.6 0-1-.2-1-.3 0-.4.3-.7 1.8-.1 1-.1 1 .3.6.2-.2.5-.8.6-1.4zm-9.5 0c0-.3-1.7-1-3.4-1.2-1.1-.2-2.6-.5-3.3-.8-.8-.3-1.8-.5-2.3-.5l-.9.1 1.1.4c.7.2 1 .5 1 .8 0 .3.3.4 1.6.4.9 0 2.3.3 3.2.5 1.6.4 3 .5 3 .3zm2.8-.4c0-.1-.4-.3-.7-.3-.5 0-.5.1-.2.3.5.3 1.1.3 1 0zm.1-1.7.1-1.8v-1.6l-1.1-.2a118.7 118.7 0 0 0-13.7-2c-3.4-.8-5-1-5.8-.7-1.3.5-7.8 1-8.9.7-1.1-.4-.2-.6 2.1-.7 1.4 0 3.1 0 3.8-.2l1.2-.2-1-.1a90.9 90.9 0 0 0-4.7-.9 128.3 128.3 0 0 0-17-3l-3.9-.3c-1.7 0-7.2-.9-11.1-1.7-5.2-1.2-7.7-1.4-7.7-.7 0 .1.2.2.5.1.3 0 1.6.1 3 .4a76.3 76.3 0 0 0 4.8 1.1l1.6.4 4.5.7c1.8.3 3.8.5 4.5.4 1.2 0 2 .2 1.1.5-.2.1-.3.3-.3.4.2.3 1 .4 6 1a32 32 0 0 1 7.8 1.8l2.4.5c.6.2.4.6-.2.7-.4 0 .5.3 1.8.6 2 .4 2.6.4 2.7.2.2-.3 1.3-.3 4.7-.2 4.5.2 7.6.6 7.5 1-.1.4-.2.4-1.8.1h-1.1c0 .3.8.5 4.6 1.4l3 .8c1.2.6 7.6 1.8 9 1.7l1.6-.2zm-6.6-.9c-.5 0-.8-.3-1-.7 0-.6-.2-.7-1.3-.7-.7 0-1.5-.2-1.7-.4-.5-.3-.5-.3.1-.5.4 0 1.9 0 3.4.3l3.6.6c1 .1 1.2.8.3.8l-2.1-.4c-.8-.2-1.6-.2-1.7-.1-.2.3.2.5.9.5.3 0 .6.2.6.4l-.2.4-1-.2zm73-.6.4-2.5c.3-1.1 1.3-.9-9.5-2.4-4.1-.5-6.1-.7-6.3-.5l-.2 2.4v2l1.1.3a3610.4 3610.4 0 0 1 14.2 2.5l.4-1.8zm-80.4 1c.3-.7-.3-1.2-1.2-1.2-.7 0-.8.3-.2 1.2.6.8 1.1.8 1.4 0zm-4.5-1.2c0-.4-.1-.9-.3-1-.5-.4-2.4-.9-3.5-.9-.5 0-1-.1-1-.3l-1.7-.2c-1.4 0-1.5 0-1 .5.4.4 2.7.9 4.3.8 1 0 2.2.7 2.4 1.5.4.8.8.6.8-.4zm1.9.2c.1 0 .2-.1.2-.4 0-.4-.9-.5-1.1-.2 0 .1 0 .5.2.9.2.5.3.6.3.2.1-.3.3-.5.4-.5zm38.1-.1c0-.1-.1-.3-.3-.3-.1-.1-.2 0-.2.3 0 .2 0 .4.2.3.2 0 .3-.2.3-.3zm13.5.1-.4-.2c-.3 0-.4 0-.3.2.1.2.3.3.4.3.2 0 .3-.1.3-.3zM153.5 74c-.1-1.6-2-6-2.3-5.4l.5 2.3a8 8 0 0 1 .5 2.4c-.1.7.6 2.2 1 2.2.3 0 .4-.4.3-1.5zm-52.9-.4c-.5-.2-.9-.5-.9-.7 0-.4-.3-.6-1.3-.8-3.6-.8-8-1-8.3-.6-.2.4 0 .5 3.8 1 2 .2 3.7.6 4.2.9.6.2 1.5.5 2.2.5h1.2l-.9-.3zm29.4-3.7c0-1.7-.2-3-.3-3.2l-1.2-.3a109.6 109.6 0 0 1-14.7-2.5c-.5 0-.6 1.4-.3 3.2.3 1.5.3 2 0 2.5-.2.3-.3.7-.2.7l3.4.6 5.1.8 4.3.5 2.9.4c1.2.5 1.2.5 1-2.7zm9-.7c-.3-.3-.3-.1-.4 1l.2 1.7c.4.3.4-2.2.1-2.7zM89 71.4c-.2-.5-1-.6-1-.1 0 .2.2.4.6.4.3 0 .5-.1.4-.3zm10.6 0c-.1-.3-1.8-.7-5-1.1h-1.2c.1.2.5.3.8.3.6 0 4.5.8 4.6 1 .3.2.9 0 .8-.2zm54-.7c-.3-.5-.3-.3 0 .3 0 .3.1.4.2.3l-.1-.6zM82 70.4c-.3-.2-3.4-1-5.3-1.2-.7-.1-1.7-.3-2.1-.5-1.2-.5-3.4-.8-3.2-.5 0 .2.4.3.7.3.4 0 1.2.4 1.8.8.8.6 1.6.8 2.3.8.5 0 1.6.1 2.2.3 1.7.3 3.9.3 3.6 0zm4 .1-1.1-.8c-1.2-.8-2.6-1-3.6-.7l-.6.3.8.1 2.3.7c1.6.5 2.5.7 2.3.4zm5.2-.4c.4-.1.2-.2-.7-.3a17 17 0 0 0-1.9-.2c-.5 0-.5 0 0 .4s1.8.5 2.6.1zm21-.4c.6-.7.7-2.7.2-4.6-.2-.7-2-1.2-5.4-1.7A356.9 356.9 0 0 1 92.4 61c-2-.6-2.3.2-1.6 4 .4 2 0 1.7 4 2.2 3.3.4 13.2 2 15 2.5 1.9.5 1.8.5 2.2 0zm75.8-2.9c0-1.6-.2-3-.3-3.2a238.4 238.4 0 0 1-8.4-1.7c-3-.6-7.7-1.1-8-1-.3.3-.6 4.2-.4 5.4.2 1 .6 1.2 5 1.8a647.2 647.2 0 0 1 11.8 1.7c.3 0 .4-.6.3-3zM87.7 69.3l-.6-.2c-.3 0-.7-.2-.8-.4-.5-.6-.9-.5-.8 0 0 .4.9.8 1.9.9.3 0 .4-.1.3-.3zm51.1-1.4c0-.2-.1-.1-.1.2l.1.4v-.6zm-64.6-.7c-.7-.6-2.4-1.1-2.6-.8-.4.6 1 1.3 2.6 1.3h.7l-.7-.5zm5.8.3c0-.2-.5-.3-1-.3-.7 0-.7 0-.3.3.8.3 1.5.3 1.3 0zm-23.4-.6c.6-.5.6-.7.5-2.8l.1-4.2c.2-1 .1-2.1 0-2.5-.2-.5-.3-.2-.8 2-1 4.2-1.6 5.7-3.2 7.3l-.6.8h1.7c1.4 0 1.8-.1 2.3-.6zm5 .1c0-.2-.3-.5-.5-.5s-.4.3-.5.5c0 .3.1.5.5.5s.6-.2.5-.5zm28.2-2.2-.2-2.7c0-.8-.2-1.6-.3-1.7-.2-.2-2.7-.7-8.1-1.6a6 6 0 0 0-2.5.1l-1.8.4c-.7 0-.5-.5.3-.7 1.2-.3.6-.4-4.5-1.2-1.5-.2-2.2-.5-2.3-.8-.3-.6.1-1 .6-.5.2.1 2.4.6 4.9 1 5 1 5.4 1 6-.6.2-.4.8-1.3 1.3-1.8 1-1.1 1.2-1.5.5-1.5-.2 0-.5.3-.7.7-.5 1.2-1.8 2.6-2 2.3-.3-.2-.1-.7.4-1.7.4-.7.6-1.4.5-1.5-.1-.2-1-.3-4.8-.9-5.3-.8-7.4-.8-7 0 0 .1-.2.6-.5.8-.4.4-.5.8-.4 1.2.3 1.3.6 5 .5 5.3-.2.5.4 3.2.8 3.6.3.2 1 .2 2.1 0 1.4 0 1.7-.2 1.7-.6 0-.3.3-.5.8-.6l1.8-.7c1.5-.7 3.6-1.1 3.9-.8.3.3-.3.6-3.8 1.6-1.4.4-2.3.7-2 .8.6 0 .4.6-.3.8-.4 0-.6.1-.6.3 0 .3 1 .5 3 .5 1.8 0 4.1.5 4.8 1 .4.4 1.6.5 5.1.5h3zm-15-4c0-.3 1.2-.7 2-.7 1 0 .8.4-.3.7-1.3.4-1.6.4-1.6 0zm64.6 4.1c0-.2-.1-.3-.4-.3-.2 0-.4.2-.4.7 0 .5.1.6.4.3.3-.2.4-.5.4-.7zm-10-.7-.2-2.7-.1-1.4-2-.3a264.5 264.5 0 0 1-12-1.9c-.7-.1-1.4-.2-1.5 0a11 11 0 0 0-.2 2.5v2.4l1.2.4c3 .9 11.3 2.3 13.7 2.4h1v-1.4zm-87-.2-.6-1.2c-.2-.4-.2-.3-.1.4.2 1.3.3 1.6.6 1.6.2 0 .2-.3 0-.8zm69.9-1 .3-3 .2-2.6-.8-.1c-.4-.2-.9-.1-1.2 0-.4.3-.9.3-2.3 0-3.2-.8-9.6-1.7-10.5-1.4-2.2.7-3.3.9-3.4.7-.2-.3.5-.6 1.5-.9.5 0 .7-.3.6-.4-.4-.3-5-1-5.5-.7-.4.1-.4.6-.4 2.7v2.5l1 .2c1.9.5 11.5 2.1 13.8 2.3 1.4.2 4 .6 4.9 1 1.2.3 1.6.2 1.8-.3zm-57.1-2.2.5-3 .1-1.6-.2 1.4-1 3.2c-.5 1-.8 2-.7 2 .3.3.9-.7 1.3-2zM41.4 58c0-.2-.2-.3-.4-.3-.5 0-.6 1.3 0 2.8l.4 1.5v-4zm48.7-.3V55c-.2-.7-1.3-1.2-2-.9a15 15 0 0 1-4.7 2c-.4-.1-.6 0-.8.8-.2.5-.3 1-.2 1.1.2.2 5.9 1.4 6.8 1.4.7 0 .7 0 .9-1.8zm-5.6-.3c-.1-.3 1.2-.7 3-.9 1.5-.2 1.7 0 1 .7-.6.5-3.7.7-4 .2zm45 .5v-2.2l-.3-1-2.2-.5a60.4 60.4 0 0 1-12.5-2.2l-1-.2v2.3c0 1.6.1 2.3.3 2.4l1.7.5a58.6 58.6 0 0 0 10.8 2l2.3.2c.9 0 1-.1 1-1.3zm-16.7-2c.1-.8-.3-3.8-.5-4-.2-.2-2.7-.6-5.6-1A858.6 858.6 0 0 1 93 49.2c-1 0-1.7-.4-1.2-.6.3-.3 5.3.2 8.6.8 1.2.2 2.4.3 2.5.2.4-.2.3-1 0-1.4-.8-.6-.8-1.6-.2-2.8.5-1.3.6-2.3.2-2.3-.2 0-.4.4-.6.8-.3 1-.7 1-.7.3s-.7-1-1.2-.5c-.3.2-.4.6-.3 1.5.2 1.5-.3 1.4-.8-.1-.3-1-.3-1-1.2-1-.5 0-1.7.3-2.6.6-1.2.5-1.7.5-2 .3-.2-.2-.7-.2-1.5 0-.6 0-3 .6-5.4 1-2.4.5-4.2 1-4.1 1.1.2.3 6.2 1 6.6.9.2-.1.3-.5.4-.9 0-.4.2-.7.5-.7.5 0 1.2 2.7.8 3.5-.4.9-.4 3 0 3.2l2 .5 3.6.7c2.8.7 4.8.4 5-.5v-1.6c.4-.8.7.2.7 1.7 0 1.6-.2 1.4 3 2h2c.2-.3.7-.3 2 0 2.3.6 3.6.6 3.7 0zm-27.2-1a5 5 0 0 0 1.4-1l-.7-.3c-.6-.2-.8 0-1.7.9-1.3 1.2-1 1.3 1 .3zM47 54.1c0-.1 0-.2-.2-.2-.1 0-.2 0-.2.2v.3l.4-.3zm93.7-.3c-.1-.3-.3-.5-.5-.5-.4 0-.3.8.1 1 .4 0 .6 0 .4-.5zM48 52c.2-.6.2-.6-.2-.1a2 2 0 0 0-.4 1c0 .5 0 .5.2.2l.4-1zm41.7-.6c0-1-.2-2-.4-2.2-.4-.4-2.5-.8-2.5-.5 0 .6.4 1 .9.8.6-.3.5.1-.5 1.7-.6.8-.9 1.5-.8 1.6.3.3 1.6.5 2.6.4h.8zm-7 0 .2-2V48l-1-.2-2.8-.2c-1 0-1.8 0-2-.2-.1-.2-1-.3-1.9-.4-1.5-.2-1.6-.2-1.9.3-.2.4-.5.6-1.2.6-.5 0-1-.1-1-.3-.3-.4-1-.3-1 .3 0 .3 0 .6-.2.6-.2.1-.1 1.5 0 1.5l1-.4c1-.5 3.9-.9 3.6-.5 0 .2-.6.4-1.2.5l-1.5.5c-.4.4-.4.4.4.5 10.4 1.8 10.3 1.8 10.5 1zm2.2 0c.7-.8.7-3 0-3.2-.8-.3-1 0-1.2 1.7l-.2 1.8c-.2.6.8.4 1.4-.3zm-2.4-5.3 3.8-.8c.4-.3.3-1.2-.2-1.2-.2 0-.7.3-1 .7-.7.6-.7.7-1 .2-.4-.4-.5-.4-3.4.2-3.3.6-4.1.9-3.4 1.1l1 .3.7.1 3.5-.6zm11.3-2.4c1.3-.3 2.7-.7 3-1 .4-.2.9-.5 1.2-.5.8 0 1.1-.2 1.6-1.4.2-.5.5-1 .7-1 .3 0 .3.7 0 1-.5.5 0 1 .8.8.4-.2.5-.3.4-1a134.8 134.8 0 0 1-1-3.7l-3 3c-2.7 2.5-3.2 2.9-4.6 3.2a12488.4 12488.4 0 0 0-3.5 1.2c0 .4.7.5 1.4.2.3-.2 1.7-.6 3-.8zm-42 .7c0-.3-1-.6-1.2-.4-.2.1.5.6 1 .6.1 0 .3 0 .3-.2zm44.6-7.7A9.7 9.7 0 0 0 101 34l.6-.8-1.2.1c-3 .5-5 .8-5.8.8-1 0-1 .2-2.1 1.8l-1 1.7 1.5-.2 3.3-.7zm.4-4.4c.5-.5.8-1 .8-1.2 0-.1-.7.1-1.6.5-.9.5-2 .9-2.6 1-1.7.3-1.2.6.8.6 1.7 0 1.8 0 2.6-.9zm44.6 92.3c-.2 0-.4-.3-.4-.5 0-.3.2-.4 1-.2 1.4.2 1.7.3 1.7.6s-1.7.4-2.3.1zm-34.6-.7c-.1-.4-.2-.8 0-.9.2-.2.9.5.9 1 0 .7-.5.6-.9-.1zm-74.2-2.8c-.5-.6-.8-1.2-.8-1.3l-.6-.4c-.4-.1-.5-.4-.5-1.4l-.2-2a172.6 172.6 0 0 0-.1-10.4v-3.9l1.1-.7c1.4-.8 1.6-1 1.4-1.6 0-.3.3-1 1-1.6 1.1-1.3 1.4-2.3.7-3-.6-.8-.2-1.4.5-1 .7.5 1.7.2 2.5-.6l1.4-1c.4-.3.8-.8.9-1.2 0-.3.2-.6.3-.6.6 0 1.5-1.4 1.6-2.4.2-1 .1-1.1-.5-1.3-.6-.3-.6-.4-.4-2 .2-2.4.5-3.3.8-3.3.1 0 .2.8.1 1.7 0 2.3.7 4 1.2 2.5 0-.3.3-.5.5-.4.3 0 .3.5.5 2.3 0 .8 1.6 1 3 .4 1.2-.5 1.2-.5 1.8 0 .9 1 1.4.8 1.5-.2.1-1.1.8-1.3 1.3-.3.2.5.3.6.6.4.4-.3.3-.6-.3-1.7-.3-.8-1-1.6-1.2-2a3 3 0 0 1-.8-1.7c-.4-3.3-.6-3.6-2.3-3.3-.8.2-.8.2-.6-.7 0-.4.4-1 .6-1.2.5-.3.6-.7.6-2 0-1.5-.1-1.7-.5-1.7-.6 0-.9.4-.9 1.3 0 .2-.3.7-.6 1-.3.2-.7.7-.7 1 0 .3-.4.5-.7.6-.4 0-.6.2-.6.7 0 .5-.3.8-1.4 1.4-1.7 1-1.7 1-2 .2-.5-1.1-.6-1.1-3.1.2-.3.2-1.4.3-2.6.3-1.1 0-2.2.2-2.4.4-.2.1-.9.3-1.5.2-.6 0-1.8.1-2.6.3-1 .2-1.4.1-1.6-.1-.1-.3-.4-.3-1.3-.1a5 5 0 0 1-1.7.1c-.3 0-.8 0-1 .2-1 .5-5.5.7-7.8.3a7.1 7.1 0 0 0-2.5-.1c-.6.3-4.8.6-6 .4-1.3-.2-.8-.5 1.7-1 1.7-.2 2.1-.4 2.8-1 .4-.5.7-1 .7-1.2 0-.2.2-.5.4-.6.3-.3.3-.4 0-1-.5-.7-.3-1.2.4-1.2.5 0 1.5-.8 2.8-2.4.5-.6.5-1.3 0-2.5-.5-1-.3-2.9.3-3.1.5-.2.7.5.3 1.1-.2.5-.1 1 .2 2 .8 2.5.8 2.5 2.2 3 1 .3 1.5.3 2.5 0 .7-.1 1.3-.4 1.4-.5.2-.3 1.1-.3 1.2.1 0 .2.1.2.3-.1.2-.3.5-.5.7-.5.1 0 .3-.2.3-.6.1-.8 1-1 1 0 0 .3 0 .6-.2.6s-.3.3-.3.6c0 .2-.2.5-.4.5s-.5.2-.6.5c-.4.7-3.3 1-5.5.7l-1-.2-1.9 2a22.4 22.4 0 0 1-3.6 3.4c0 .2 4.3.6 6.3.5 1.5 0 4.3-.4 7-.8.9-.2 1.6-.1 2.1 0 .7.3.8.3 1.1-.2.4-.4.5-.5 1.5-.2s1.2.2 2.6-.5l1.8-.7L36 78c1-.6 1.5-.5 1.5 0 0 .4.5.7.9.7.2 0 .7-1.7.7-2.5s.2-1.2 1-2c1.9-1.6 2.8-1.6 3.5 0 .1.5.5.8.7.8.6 0 1.5-1 1.9-1.9.1-.4.6-.9 1-1 .6-.3.7-.3 1.3.4.7 1 1 2.8.7 4-.3.8-.2 1 .5 1.6 1 .8 1.9 3.2 1.5 3.9-.2.4-.2.6.1 1l.9 1.3c.2.5.8 1.2 1.2 1.5.4.4.7.9.7 1.1 0 .3-.5 1-1.2 1.7l-1.3 1.2-2.2-.2c-1.2-.1-2.7-.2-3.2 0l-2.4.1h-1.5l-1 1.3c-1.8 2.5-3.2 3.8-4.4 4.1-.7.2-1 .5-1 .8 0 .2-.2.9-.5 1.4l-1 2.3c-.5 1.6-.9 2-2 2.5-.9.3-1 1.1-.3 1.5.4.2.5.7.4 4.4-.2 9.3-.1 9.9.8 11.7.7 1.5.8 2.4.3 2.4-.2 0-.7-.4-1.1-1zm9.7-42.5c.5-.5.5-3.5 0-3.8-.4-.3-1 0-1 .4 0 .2-.3.5-.7.8l-.7.5.7 1.3c.7 1.3 1.2 1.5 1.7.8zm95.5 43.3c-1-.2-1.8-.7-1.5-1 .2-.1 3.5.2 4 .5.1 0 .2.3 0 .4-.1.4-1 .4-2.5 0zM37 120.7a17 17 0 0 1 2.3-4.5c.7-.7.7-.1.2 1.4-.6 1.6-1.9 3.6-2.2 3.6-.2 0-.3-.2-.3-.5zm96.9-1.4c-2.4-.5-2.7-.6-2.7-1.2 0-.3.2-.4.6-.2l2.5.5c2.4.5 3.3.9 2.7 1.2-.4.3-.7.3-3.1-.3zm41.9.1c-.3-.6.2-1.8.7-1.8.6 0 .5 2 0 2.2a.6.6 0 0 1-.7-.4zm-92.3-.5c-.3-.4-.2-4.7.2-5.3l.5-1.2c.1-.5.6-1 1-1.2.8-.5 1.2-1.5.7-2-1.1-.8-4 1.4-5.2 4-.6 1.3-.7 1.4-2.4 1.9l-2 .5c-.7 0-.3-.6.6-1 2-.9 3.3-2 3.7-3a7 7 0 0 1 4.5-3.7c1.4-.2 1.6-.2 1.9.2.2.3.2.6 0 1-.3.6-.3.9.1.3.2-.3.8-.4 1.5-.5 1 0 1.2 0 1.2.5 0 .3-.4.7-1.6 1.2-3.2 1.4-3.8 2.2-3.8 5.4 0 2-.4 3.4-.9 2.9zm-39.7-.6c0-.1 0-.4.3-.6.2-.1.4-.5.4-.7 0-.1.4-.5.9-.7l.9-.5-1.7-1c-1-.4-2.1-1-2.6-1.4-.5-.4-1-.7-1.2-.7-.2 0-.6.6-1 1.4-.8 1.4-1.7 2.1-1.4 1.1.6-1.8 1.5-4 1.8-4 .2 0 .6.1.9.4 1 .8 3 2.1 4.8 3 1.7 1 1.9 1 2.2.6a21.4 21.4 0 0 1 4.3-4.9c.3-.6 1.8-.7 3.1-.2 1.4.5.9.9-1.3.9-1.4 0-2 0-2 .3a34.2 34.2 0 0 0-2.7 3.7c-1.3 2-1.7 2.4-3.3 3-1.2.6-2.2.7-2.4.3zm23-1.2c-.4-.2-1.2-.7-1.8-1.3-.5-.5-1.1-1-1.3-1-.3 0-.5-.1-.5-.4 0-1 2.4 0 3.1 1.4.3.3.6.4 3.4.1l4-.4 1.2.1c.6.4-.1.7-2.3 1-1 0-2.5.3-3.2.5-1.6.4-1.5.4-2.6 0zm-41.6-.3c-.2-.2-.5-1-.6-2-.2-.9-.5-2-.8-2.6a9 9 0 0 1-.6-1.9l-.8-2.7c-.2-1-.4-2-.3-2.3.2-.7 1-.7 1 0s.8 3.3 1.2 4.2c.5 1 1.3 4 1.5 5.6.2 1.8 0 2.5-.6 1.7zm4 .2c-.2 0-.4-.4-.4-.7l-.3-2-.3-1.5-.2 1.5c0 1-.2 1.5-.5 1.5s-.4-.6-.6-2.2a12 12 0 0 0-.4-2.7 10 10 0 0 1-.3-2.8c0-2.5-.2-3.2-1.1-4.2-.8-.9-1.3-.9-2.6-.1-.7.4-1.3.5-2.5.5-1 0-1.9.1-2.3.3-.6.4-1.7.4-5.9.3H6.1c-.4.1-2.1 2.5-2.1 3 0 .3-1.8 1.6-2.3 1.6-.5 0-.5-.9 0-1.3.2-.2.4-.7.4-1 0-1.2.3-1.6 1.8-2.8.9-.8 1.4-1 2-1 .7 0 .8 0 .6-.6-.1-.5 0-.7.3-.7.2 0 1-.7 1.9-1.5 1.4-1.4 1.6-1.7 2.1-3.8l.6-2.9c0-.6.7-.7.8 0 .2.7-.7 5-1.2 5.7-.2.4-1 1.4-1.8 2.2L8 103.4l2.5.1c1.4 0 2.5.2 2.6.3.4.3 3.4.2 4.5-.2a5 5 0 0 1 2.1-.2c.8 0 1.2 0 1.7-.4l1.7-1.2c1-.5 1.3-.5 1.8-.3.3.2 1 .4 1.7.5 1.2.2 1.6.7.8 1-.3.1-.4.5-.4 1 0 1 .6 4.3 1.2 6.1.2.7.3 1.4.2 1.5 0 .2.1.4.3.5.3.2.6 1 .8 2.4.3 2 .3 2.7-.3 2.5zm99-.3c-1.7-.2-2.5-.5-2.5-.7 0-.5 1.2-.5 3.8 0l2.2.4v.4c0 .5 0 .5-3.4 0zm-8.6-3.7-1.5-.5-1-.4c-1-.3-.4-.7 1-.7 1 0 1.4.1 1.7.5.2.3.7.5 1.3.6 1.3.1 1.5.8.3.7l-1.8-.2zm102.4-1.3c-1.7-1-3-2.7-2.1-2.7a10 10 0 0 1 3.1 2.5c0 .6-.4.7-1 .2zm-71.2-1.6c0-1 0-1-.3-.3-.3.8-1 1.2-1.3.9a9 9 0 0 1-.3-2.4c0-1.5-.2-2.3-.5-2.6l-.6-1.5c-.2-1.2-1-2.6-2-3.8a7 7 0 0 1-1.9-3.5c-.4-2 .1-2 1 0 .6 1 1.5 2.3 2.5 3.2l1.5 1.6.1-1.1c0-.8 0-1.1-.2-1.1s-.4-.4-.4-.9c0-.6 0-.7-.2-.4-.2.2-.3.3-.4.2l-.3-2.9c-.1-2.5-.1-2.7.3-2.2.2.2.4.9.4 1.4l.2 1.3c.2.3.3 0 .2-1 0-1.1 0-1.5.4-1.5.9-.2 1.9 4 1.6 7.2 0 1.6.3 5.4.5 4.6 0-.3.3-.7.5-.7.3-.1.3 0 .2.7l-.2 3.3c0 2 0 2.5-.4 2.5-.3 0-.4-.3-.4-1zm-4.7-.7c-1.2-1.2-1.4-1.5-1-1.7.6-.5 2.8-.1 3 .5 0 .2-.2.3-.6.3-.8 0-.8.2 0 1 .7.7.9 1.4.3 1.3-.1 0-1-.6-1.7-1.4zm71.9-1.5c-2.2-.2-2.9-.4-2.9-.8 0-.3 4.9 0 5.4.2.2.2-.3 1-.6.9l-2-.3zm-7.1-3c-4.8-.9-4.8-.9-4.8-1.2 0-.3 1.4-.3 3.2 0 5.4 1 7.7 1.4 7.7 1.6 0 .4-2.4.2-6.1-.4zm-115.3-1.1c-1.1-.2-.6-.5 1-.7 1.7-.1 2.3 0 2 .6-.2.3-1.8.3-3 0zm-2.6-1.3c-1.5-.2-2.2-.3-2.2-.6 0-.2 1-.3 2.8-.2 2.2 0 2.8.1 2.8.4 0 .4-1.3.5-3.4.4zm114.3 0-2.2-.4c-4.8-.7-6.7-1.2-6.6-1.7.1-.2-.6-.5-2.4-1-5.6-1.6-7.5-2.3-7.5-2.7 0-.3.2-.4.4-.3a253.6 253.6 0 0 0 11.1 3.3c.2 0 .5.3.7.5.3.3 1.2.6 2.4.9 4.4.7 5.1 1 5.2 1.2.1.3-.5.4-1.1.2zm-118.6-1.7c-1.7-.1-2.5-.3-2.2-.6a30 30 0 0 1 4.2-.2c.2 0 .3.3.3.5 0 .3 0 .6-.2.5l-2-.2zm49.8 0c-3.2-.3-4.6-.5-4.8-.9-.1-.1.7-.2 2.7 0 3.6.2 5 .4 5 .8 0 .3-.2.3-3 0zm83.5-.9c-.2-.2-1.3-.7-2.4-1-2.5-1-3-1.2-2.4-1.5.3-.2.3-.3-.1-.4l-1.3-.6c-1-.4-4.2-1.4-4.7-1.4-.6 0-.1.5.8.8.6.1 1 .4 1 .6 0 .2.5.6 1.1.7 1.4.4 2.4 1.2 2 1.6-.3.2-.5.2-1-.2-.5-.3-1.9-.8-3.2-1.1a64.1 64.1 0 0 1-5.4-1.5c-1.2-.4-1.6-.6-1.6-1 0-.5-.2-.6-.8-.2h-1.2l-4.4-1.2a550.2 550.2 0 0 1-14-3.7c-1.6-.3-1.1-1.3.6-1.6.9-.1 1 0 1.2.5.3.7 1.3 1.1 1.8.7.4-.3.7-.3 2.8.3h.9c-.2-.3-1.5-.7-4.8-1.5-1.8-.5-2.4-1-1.6-1.3.4-.2 5.6 1.3 7.3 2 .4.2 2.4.4 4.5.5l4 .4.2.6c0 .4.7.5 1 .1.2-.4 1.1 0 1 .4 0 .2.2.4.9.7.5.1 1.3.5 1.6.7.6.4.8.1.3-.4-.6-.6 0-.7 2.6-.4 5.2.6 9.6 2 8.2 2.6-.3 0-1 0-1.7-.4-.7-.3-2-.6-2.8-.7L211 93l1.3.4 1.8.6c.2.2 1.5.6 2.8 1 3.5.9 5.5 1.8 5.6 2.3 0 .5-.2.5-1.8 0-.7-.2-.7-.2.1.6.5.5 1.2 1 1.6 1.1.4.2.6.5.6.8 0 .7-.5.7-1 .2zm-4.4-3.8a8 8 0 0 0-3-1c-.4 0-.4 0 0 0l1.2.6c1.5.6 2 .7 1.8.4zm-7.2-.6c.2-.6-.2-1-1.2-1.2-.8-.2-.8-.2-.5.3 1.3 1.6 1.5 1.8 1.7 1zm-2.9-1c-.3-.7-.8-1-2.4-1.5l-3-.8C201 92 199 91 199 90.7l-1.4-.2c-1.6 0-1.5.2.4.9.7.3 1.2.5 1.1.6l-3.5-.6-3.4-.6 2.9 1c2 .6 3.5 1 5 1 1.8 0 4.7.6 5.4 1.2.2.1.3.4.2.6-.2.4.3.6 1.5.6h.8zm4.6-.4c-1.8-.6-2.7-.8-2.5-.5.4.3 2 .8 2.9.8.5 0 .3 0-.4-.3zM19 97.8l.5-2.2.5-2.3.4-2.3c.5-1.7.7-2.1 1-1.6.3.5-1.4 8-2 8.6 0 .1-.2 0-.3-.2zm2.6-1.1.5-2.5c.3-1.5.5-2 1-2 .5-.2.5-.1-.4 3-.4 1.6-1.1 2.6-1 1.5zm3.9-.3v-.6c.2-.3.4-.3.6-.1.2.2.2.4.1.6-.2.3-.5.4-.7 0zm100-.1-2.4-.6c-.7-.2-.7-.3-.3-.6.3-.2-.1-.4-2.1-.7-1.4-.2-2.6-.5-2.7-.6-.5-.4.4-.4 4 .1l4.8.6c1.9.1.8.6-1.2.6-2.7-.1-1.7.3 1.7.7l2.7.5c.1.3-2.1.3-4.4 0zm-101.9-.4c-.3-.3-.2-1.4.1-1.6.4-.2.4-.1.7.9.1.6 0 .8-.2.8l-.6-.1zm49.7-1.2c-1.7-.2-2.2-.4-2-.7.3-.2 5.7.3 5.7.6s-1.6.4-3.7.1zM17.9 93l.7-3.2c.2-2 .5-2.7.9-2.3.2.2-.4 4.5-.9 5.7-.6 1.6-1.2 1.5-.7-.2zm12.8.8c0-.3.6-.6 1.3-.6.4 0 .3.1-.1.4-.6.5-1.2.6-1.2.2zm36.8-1c-3.2-.7-2.6-1.2.6-.6 2.2.4 2.6.5 2.4.8-.2.3-.9.3-3-.2zm-51.6 0 .4-1.5.9-3.8c.2-1.4.5-2.5.7-2.5.7.4-.8 8-1.7 8-.2 0-.3-.1-.3-.3zm14.5-1c-.7-.2-1.3-1.4-1.3-2.5l-.4-.8a21 21 0 0 1-2.4-5c.3-.3.8.4 1.6 2a7 7 0 0 0 1 1.6l.3-1.5c.2-1.7.4-2.4.7-2.4a9 9 0 0 1 .1 2.8c-.2 3 0 5 .6 4.8.1 0 .2-.6.1-1.2 0-.6 0-1.1.2-1.2.4-.3.5 0 .7 1.5.2 1.7-.2 2.3-1.2 2zm34.2-.6c-.8-.1-1-.4-.6-.7.3-.2 3.5.3 3.9.6.2.3-1.5.3-3.3 0zm-27.2-1.7c.2-.8.3-2.5.3-3.8 0-2.1.5-4.1.8-3.8.2.2-.3 8.3-.5 8.6-.1.2-.3.4-.5.4s-.2-.5 0-1.4zm1.2 1.1.4-1.4c.2-.6.5-2.8.6-5 .2-2.1.4-3.8.6-4 .2-.2.3.5.2 3a48 48 0 0 1-.3 4c-.6 3-.8 3.7-1.1 3.7-.2 0-.4-.1-.4-.3zm184-.8-3.3-.4c-3.3-.2-4.4-.7-1.8-1h1.7l.1-1.8.4-2 .2-1.3c0-1.2-.7-1.8-2.1-1.8l-2.4-.4a87 87 0 0 0-3.9-.6c-2.6-.3-4.3-.9-4-1.3.2-.1 1 0 2 .1 1.7.4 6.3 1 7.7 1 .5 0 1 .2 1.3.5 1 1 1.3.4 1.4-2.2 0-2 0-2.4-.4-2.6-.6-.3-.6-.7 0-.8.6-.2.7-.7 1-5.3l.2-2.2-2.6-.4c-1.4-.2-2.8-.4-3.2-.6l-4.5-.4c-2.3-.1-3.7-.3-3.7-.5.1-.3 5-.2 8.3.3 6 .8 5.9.8 6.2 0 .4-.8.9-.7 1 0 0 .4.3.8.5 1 .6.5.4 1-.3.9-.8-.2-1 0-1.1 4.1l-.2 3.4 1 .1c1.3.3 1.3 1 0 1H221l-.2 1.7c-.3 2.3 0 3 1.3 3 1.2.2 1.2.7 0 .8-.8 0-1 .2-1 .7 0 .3 0 1-.3 1.5a11 11 0 0 0-.5 2.5c-.1 1.9-.1 1.8 2 2 .7 0 .9.2 1 .7 0 .6-.1.7-.8.3zm-207-2-.4-3.3c-.2-1-.1-1.2.2-.8.5.4 1.2 5 .9 5.7-.3.9-.6.3-.8-1.7zm20.4.7c0-.4 0-1-.3-1.2-.4-.6-.8-2.4-.5-2.8.2-.3.3-.2.4.2.3.9.7.7.6-.1-.2-1 0-2.2.4-2.2 0 0 .2 1.4.1 3.3 0 2.5-.1 3.4-.4 3.5-.3 0-.3-.1-.3-.7ZM181.8 87c-.7-.4-.8-.9-.2-.9l1.6.1c1 0 1.2.1 1.2.6 0 .4-.2.5-1 .5-.5 0-1.3-.1-1.6-.3zM.3 83.3l-.3-.5c0-.5 1.2-.9 2.5-1 .7 0 1.7 0 2.2-.2 1.5-.3 1 .3-1 1.1-2.1 1-2.9 1.1-3.4.6Zm44.2 0c-1.2-.7-1.2-1 0-1.8 1.6-1 2.2-1 2-.1v1c.9 1-.6 1.6-2 .8zM162.2 81c-.5-.6-.1-1.7.5-1.7.7 0 .8.3.6 1.3-.1.9-.6 1-1.1.4zm-72-.6c-.3-.4.4-.6 2.3-.6 1.3 0 1.7 0 1.6.3-.1.4-3.8.6-4 .3zm-11.8-1.7v-.4a57.4 57.4 0 0 1 8.8-.1c-.3.5-8.5 1-8.8.5zm67.3-1.2c-.1-.2.2-.8.6-1.4l1.3-2.1c1-1.5.6-.3-.4 1.8-1 1.8-1.2 2.1-1.5 1.7zm-108-.7c0-.3.1-.5.3-.4.4 0 .3.6-.1.7-.2 0-.3 0-.3-.3zm32.7.1c0-.1.4-.3.8-.3l3.1-.2c2.2-.2 3 0 2.4.4-.6.3-6.3.5-6.3.1zm75.4-2c0-.2.3-.9.7-1.5l.8-1.6c.1-.4.6-.7.6-.3l-2 3.8-.1-.4zM26 74c-.4-.5-.2-.7.6-.7.7 0 1.2-.7 1.2-1.5 0-.3-.5-1-1-1.5a5 5 0 0 1-1.3-1.7c0-.3-.4-.9-.7-1.2-.4-.3-.7-1.1-.8-1.7-.1-.9-.4-1.2-.8-1.4l-2-.8c-.7-.3-1.6-.5-2-.5-1 0-1.2-.8-.4-1.4l1-.5c.3 0 .7-.2.9-.5l1.3-1c.6-.4 1-.8 1-1l.4-.7c.4-.3.5-.3.8.2.6.8.8 2.6.3 3.5-.6 1-.5 2 0 2.5.4.3.5.7.4 1-.1 1 .8 2.6 2.4 4.2 1.7 1.8 1.9 2.3 1.2 3.5-.7 1.4-1.9 2-2.5 1.2zm-4.2-11.6-.7-.2c-.6 0-.6 0 0 .4.4.4 1 .3.7-.2zm1.6-.9c.5-.5.5-1.4 0-1.4l-.9.5c-.6.5-.6.5-.1 1 .6.4.5.4 1-.1zm-1.7 10.6c-.2-.2-.2-.4 0-.5.6-.2 1.2.2 1 .6-.3.4-.6.4-1 0zm9.9-.3c-1-.4 0-.6 2.5-.7 2.4 0 2.6 0 1.2-.2a7 7 0 0 1-1.8-.3l3.5-.3h3.7c0 .2.3.3.5.3.6 0 .4.6-.3.7-1.9.4-8.6.8-9.3.5zm117.1 0 .4-.7c.4-.3.4-.2.4.2-.1.5-.8 1-.8.5zm-136.4-.9.1-.4c.5-.2.7.1.4.4-.2.2-.4.2-.5 0zm135.8-.1c-.2-.3.3-1.2.6-1.2.4 0 .3.3 0 .9-.3.2-.5.4-.6.3zM34.2 69.4c-1-.4 0-.5 2.9-.4 2 0 3.3.1 3.3.3.1.3-5.5.4-6.2.1zm-15.5-.9c-.4-.2-.4-.3.3-1.2.7-.9 1.9-1.2 1.7-.4l.3 1 .4.8c0 .2-2.2 0-2.7-.2zm-6.5-2c-.4-.6-.7-.7-2-.8-1.4 0-1.5 0-1.3.5.2.6-.7.7-1.2 0-.3-.2-.2-.4.4-1 .7-.8 1-.8 2.1-.7 1.3.1 1.4 0 1.8-.6.8-1.1 1.1-.8 1.1.9l.2 2c.4.7-.5.5-1-.3zm3.2.1c-.3-.3-.4-1.7-.2-2.4.1-.3.5-.6.9-.7.6-.2.6-.4.5-1.2-.3-1.8-1.1-1.9-1.4-.2-.5 3-1.3 2.9-1.3-.3 0-1.4-.2-2.4-.3-2.5a150.8 150.8 0 0 0 .2-12.9v-8.2c0-.5-.1-.5-2.5-.7-1.8-.2-2.7-.2-3 0-.1.2-.2 1.9-.1 5 0 3 0 4.8-.3 5.3-.3.7-.3 1.6-.5 9.3-.1 3-.2 3.5-.5 3.4-.5 0-1-2.6-.6-3.3.4-.7.4-1.6 0-1.6 0 0-.3.5-.3 1.2-.3 2.2-.5 2.7-.9 2.8-.5.2-.8-.5-.4-1 .5-.5.8-4.6.7-7.3-.7-11.6-.6-14.2.5-15.2l.7-.7.3.7.2 1c0 .3.2.5.3.5.2 0 .3-.3.3-.5 0-.3 0-.6.2-.7.2-.1 1.6 0 3.2.1 2.6.3 3 .3 3.4 0 .8-.8.1-1-3.1-1-3 0-3.9-.3-3.3-.8a27 27 0 0 1 7.5-.1c.3.2.2.8-.1 2.3-.4 1.7-.4 2.1-.1 2.3.5.3.8-.1 1.5-2 .6-1.8 1.3-2.4 1-1-.2.8-.2.9.3.7.8-.3 1-.3 1 .2 0 .6.8 1.2 1.4 1.3.2 0 .3-.3.3-.7 0-.3.2-.7.5-.9.5-.3 1.6 0 1.6.5 0 .1.4.2.9.2.8 0 .8 0 .8.6-.1.6 0 .8.8 1h1.2c.1-.1.2-1 .2-2.2 0-1 .2-2.3.4-2.6.3-1 .3-1.2-.3-1.4-.6-.2-.7-1.2-.2-1.7.6-.4 1 0 1 1 0 .5.1.9.3.9.2 0 .2.6.1 2-.1 1.8 0 2.2.3 2.7l.5.7.2-1.5c.1-.8.4-1.5.6-1.7.3-.2.4-.4.1-.8-.4-.8-.3-1.7 0-1.7s.5.4.7.8c.4 1 1 1 .6 0 0-.3-.4-.8-.7-1-.7-.2-.7-.7 0-.8.4 0 2.3 1.5 2.3 2 0 .2.3.5.7.6.6.3 1.4.2 1.4-.3 0-.1-.2-.1-.4 0-.6.2-.5-.6.2-1.2 1.7-1.5 2.9-1.8 2.9-.8s.4 1.9 1.3 2.5c1.1.8 1.5.5 1.8-1.8l.5-1.9c.4-.3 1 0 1.3.7.2.8.6 1 1.6.6 1-.2 2 0 2 .4s-3.5.5-4 .1-1 .2-.9 1.7c0 .7.2 1.5.3 1.9.2.3.3.8.3 1.3-.1.9.4 1.6 1.2 1.6.3 0 .7.1 1 .4.1.2.5.4.9.4.8 0 .8.4 0 .6-.5.1-1 0-1.6-.2-.4-.3-1.2-.5-1.8-.6-.8-.2-1 0-1.3.5a7 7 0 0 1-.8 1.1l-.6 1.5-.2 1h3.2c3.1.2 4 .5 4 1.2a54.3 54.3 0 0 1-15.9.2c0-.7.5-.8 3.8-1 2.2-.2 3-.3 3.4-.7l.6-.5-.6-.5-1-.5c-.3 0-.3-.2-.2-.5.2-.3.1-.5-.3-.9l-.5-.4.7-.3 1.1-.3c.2 0 .8-.4 1.2-.8.5-.4 1-.8 1.3-.8.5 0 .9-1 .6-1.5l-1.6-1c-1.4-1-2.1-1.1-2.6-.7l-1.3.6c-1 .2-1.3.2-1.5 0-.4-.4-.7-.4-.7 0 0 .3-.2.5-.4.5l.3.3c.6.2.6.2.2 1-1.3 2.9-1.6 3.2-2.3 2.6-.2-.3-.5-.3-1-.2-.6.3-.7.6-.1 1 .5.5.5.8-.2.8-.3 0-.7.4-1 1.2-.7 1.4-1.1 1.6-2 1.1-.3-.2-1.3-.6-2.3-.8-1.6-.5-1.9-.5-2-.1-.3.4-.2.4-3.5-.8-.8-.2-1.5-.6-1.5-.8-.3-.7-1.2-1.4-1.3-1-.2.5-.6 12.5-.5 12.7.2.2 1.6.1 4.2-.4 1.2-.3 1.6-.5 1.8-1 .3-1 .2-1.7-.3-2.4l-.7-1.4c0-.4-.3-.7-.5-.7s-1 .8-1.9 1.8c-.8 1-1.6 1.9-1.9 1.9-.2 0-.3 0-.3-.2s2.3-3.4 2.7-3.7c.7-.6.6-1-.6-2.5-1.1-1.4-1.2-1.7-.8-2 .2 0 .7.2 1.1.7.6.7.9.8 1.2.5 1-.9 2.8 2.2 3.3 5.7 0 1.2.3 2.7.4 3.3.3 1.2 0 2.2-1 3.8-.6 1.1-1.2 1.3-1 .4l.4-2c.2-1.7 0-1.7-2.3-.5-1.8.9-3.3 1-3.2.1 0-.3 0-.4-.3-.4-.2.1-.4.9-.6 2-.2 1.5-.2 1.7.4 2.2.3.3.4.7.4 1-.2.5 0 .6.5.5 1.2 0 1.8 1 1.8 3 0 1.5 0 2-.7 3-.8 1.3-.9 1.4-1.4 1zM6.9 52c0-1.6-.1-2.1-.4-2.3-.3 0-.4.2-.4 1.7 0 2 .1 2.7.5 2.7.2 0 .3-1 .3-2.1zm0-5.8c0-.3-.2-.6-.3-.7-.5-.4-.9.3-.7 1.3.2 1 .3 1 .6.5.2-.2.4-.7.4-1zM19.4 45c0-.2-.3-.5-.5-.6-.4-.1-.3.2.3.9.3.3.4.2.2-.3zm18 0c1.1-.1 1-.1-.4-.1-.8 0-2 0-2.6.2l-1.2.2h1.6c.9 0 2 0 2.6-.2zm3.9-.2c0-.3-.7-.3-1.5 0-.4.2-.3.2.5.3.5 0 1-.1 1-.3zM6.4 43.5c0-.4 0-1.7.2-3 .3-2 .3-2.2 0-2.6-.3-.2-.6-.3-.7-.2-.3.2-.2 5.4 0 6 .3.7.7.6.5-.2zm20.3-1c.4-.4.4-1-.2-1.4-.4-.3-.4-.3 0-.9.7-.7.5-.9-.5-.5-1.3.5-6-.2-7.3-1.1-.8-.6-.8-.6-1.1-.1a3 3 0 0 0-.4 1.5c0 .9 0 1 1.2 1.4.6.2 1.4.4 1.8.3.5-.2 4.8.7 5.2 1 .2.3 1 .2 1.3-.2zm10-9.2c0-.1 0-.2-.2-.2-.1 0-.3 0-.3.2s.2.3.3.3c.2 0 .3-.1.3-.3zm12.4 33.1c-.2-.3-1-4.5-1-5.3 0-.5.2-.8.4-.8s.5 1 .8 2.9l.6 3.1c.2.4-.6.5-.8.1zm-46.9-.8-.8-.2c-.5 0-.7 0-.8-.3 0-.4.3-.5 3-.4 3 0 4.2.4 3.3 1-.6.3-4.4.2-4.7 0zM32 61.4c-.2-.4 0-.4 2.6-1 2.6-.4 3.4-.4 3.3 0a1375.5 1375.5 0 0 0-4.7 1.1h-1.2zm11.2-1c-.3-.2.6-1.4 1-1.4.5 0 .4.6-.1 1.2-.6.4-.7.5-1 .2zm-24.8-2.2-.7-.5c-.1-.2-.7-.6-1.4-.8-1.2-.6-1.5-1-.5-1 .6 0 1.3.3 3 1.4 1.2.7 1 1.4-.4 1zM2.6 56.4l.5-3A66.2 66.2 0 0 0 2.5 36c-.2-.6 0-.6.5-.6.3 0 .8.2 1.1.5.5.5.5.6 0 1-.4.2-.4.6-.2 6.3.2 6 0 12.5-.5 13.3-.4.5-.8.3-.8-.2zM.4 55c-.2-.6 0-3.4.3-3.7.2-.2.4-2.3.4-4.9.2-4.3.5-7.9.9-8.2.3-.4.4.3.1 3.1-.4 4.6-.3 7.1.2 7.7.4.4.4.5 0 1-.2.4-.5 1.5-.6 2.5-.2 2-.5 2.8-1 2.8L.5 55zm25.6-.6c0-.3 0-1 .2-1.5l.3-2c0-.6.1-1.7.3-2.5.7-2.4.3-3-2-3.8a6 6 0 0 1-2-1c0-.3.1-.3 2 .3 2.4.8 3.6 1.3 3.7 1.9.1.4.4.5 1.8.6 1 0 1.7.2 1.7.3 0 .1-.7.4-1.6.5-2 .3-2.2.6-2.6 3.7-.5 3-1.3 4.7-1.8 3.5zm10.3-.8.4-1.9.7-2.7c.3-1.3 1-1.5 1-.4 0 .6-.6 3-1.3 5-.1.4-.9.5-.8 0zm-12.6-.1.1-2c.3-1.9.2-2.5-.1-1.5-.1.3-.3.5-.5.5s0-3.8.3-4.6c.3-.9.6-.3.6 1.3v1.6l.5-1.6c.3-1 .7-1.7.8-1.7.4 0 .3.7-.1 2.3-.3.7-.6 2.2-.7 3.4-.3 2-.6 2.8-.9 2.3zm19.2-1 .2-.6 1-2.2c.8-1.8 1.4-2.3 1.4-1.3 0 .9-1.8 4.3-2.2 4.3-.3 0-.4-.1-.4-.2zm81.6-2.1a27.6 27.6 0 0 1 .6-9.6h-.5c-.3 0-.7-.4-1-1-.5-.8-.8-1-1.6-.9-1.6 0-3.3.6-3.6 1.3-.2.4-.5 1.8-.7 3.2-.5 4.6-1.2 6.8-1.7 6.3-.1-.1 0-1.3.3-2.5.2-1.3.5-3.2.5-4.3 0-1.1.1-2.2.3-2.5.2-.6-.2-.6-2.5 0-3.6.8-3.7.8-4 .6-.1-.4.5-.8 1.3-.8.3 0 .5-.1.5-.4 0-.3.3-.4 3.3-1.2 1.4-.4 1.8-.6 1-.9-.7-.2-.7-1 0-1 .6 0 1-.8 1-2 0-.6-.1-.8-.6-.9-.7 0-.7-.5 0-.9.4-.1.7-.5.8-1 .2-.7.8-1.4 1-1.2.1.1 0 .6-.1 1-.5 1.3-.1 1.5 1.8 1.2 1.7-.3 4-1.3 4-1.6 0-.2-.5-.4-1.2-.4-1.6-.3-2.2-.6-1.8-1 .2-.2.5-.2 1 0 .9.3 1.8.3 1.8 0l-.4-.2c-.6.1-.5-.5.1-.8.4-.2.7-.2 1 0 .2.1.7.2 1.6 0 1.5-.3 1.9-.2 1.9.5 0 .3.1.5.3.5.6 0 3.1-1.3 3.1-1.6 0-.1-.4-.3-1-.3-1.2 0-2.8-.5-3.5-1.2-.5-.4-.6-.4-1.4-.1a35 35 0 0 1-3.7 1.4l-2.2.9c-1 .3-2.3 1-3 1.4-1 .7-1.2.8-1.7.6-.3-.2-.9-.3-1.3-.4-1 0-1.1-.8 0-1 .6 0 .7-.1.6-.6-.2-.9.5-1 .7-.1.3.7.8.4.9-.5 0-.8 0-.8-1-.7-.6.1-1 .3-1.2.8-.1.3-.6.8-1.1 1-1.2.5-1 1 .6 3 2.4 3.1 2 4.2-2 6.8-1 .7-2.3 1.8-2.9 2.5-.8.9-1.1 1.1-1.4.9-.6-.6-.1-1.3 1.6-2.6 1-.8 2.5-2 3.3-2.9.8-.8 1.6-1.5 1.8-1.5.5 0 .1-1.2-1-2.6l-1.5-2.2c-.3-.4-.6-.7-.8-.6l-2 .2c-1.5.2-1.6.1-1.6-.3 0-.5.2-.5 1.8-.5s2 0 2.2-.4c.1-.3.4-.4.8-.3.3 0 .8 0 1.1-.3.5-.4.5-.4.1-.7-.5-.3-.7-.3-2.2.2-1.2.3-1.4.3-1.7 0-.1-.3-.2-.6-.1-.7.2-.4-.7-1.6-1.1-1.6a.4.4 0 0 1-.4-.4c0-.2.2-.4.6-.4.6 0 1.5.9 1.8 1.9.2.5 3.7.4 3.7-.2 0-.5.2-.4.8 0 .5.5 1.6.4 2.1-.2.4-.6 0-2.2-.6-2.5-.3-.2-.5-.6-.5-1.3 0-1.6-1.2-2.9-1.7-1.8-.2.6-.6.5-.7 0-.1-.5-.3-.6-.7-.4-.5 0-.7 0-1-.9l-.4-1-1.8.1c-2 0-3.3-.2-3.1-.6 0-.2.4-.3.9-.3l2.7.2c1.6 0 2 .1 2.3.6.4.4.6.5.9.3.6-.3 1-.3 1 .2 0 .2.4.5.8.7 1 .3 2 2 2.6 4.3l.6 1.7c.4 0 1.9-1.4 2.3-2 .2-.6.3-1 .1-1.6-.3-1.2-.8-1.8-2.6-3-1.9-1.5-3-3-3-4.2v-.9l-1.3.2c-2 .3-6-.1-6.5-.6-.3-.3-.3-.5-.1-.7.2-.2.3-.2.5 0 .7 1.2 5.8 1.2 6.7 0 .3-.3.8-.3 2.4-.1 2.3.2 4.8-.3 7.2-1.3 1.5-.7 1.4-.7 1.4 0 0 .6-2.1 3.5-3.2 4.2-1.4 1-1.3.2.2-1.3 1.9-1.8 1.9-2.2.2-1.7-.7.2-1.5.6-1.8.9-.3.3-.7.5-.9.5-.2 0-.3.2-.2.4.3.6 0 .6-2 .2-.9-.2-1.7-.2-1.9 0-.5.5 2.1 3.7 3.7 4.5.3.1.9.7 1.3 1.3 1.3 2 .7 4-1.5 5.5a6 6 0 0 0-1.5 1.3c-.4.7-.4 1.6 0 1.6.5 0 5.8-2.1 6-2.4l.8-.2c.8 0 4.9-2.4 6.5-3.8l1.1-1-.1-1.9c-.1-1.6-.3-2-.7-2-.4-.1-.4 0-.3.7.2 1-.1 1-.7.2-.4-.5-.5-.5-.7-.2-.5.7-.3 1.5.4 2.2.3.3.6.7.6 1 0 .6-.7.2-1.6-.8l-.8-1-1.2 1.3c-1.3 1.4-3.7 3.3-4 3 0 0 .7-1 1.8-1.9 1.6-1.5 3-3.3 2.4-3.3l-1.7 1.6c-1.4 1.5-2.3 2-2.3 1.4l1-1.2c.7-.6 1.2-1.3 1.2-1.6 0-.3.6-.9 1.2-1.3s1.5-1.3 2-2c1.4-1.9 1.6-1.3.3.6-1.3 2-1.2 2.4.3 1 .8-.8 1-.8 2.3-.7 1.2.2 1.6 0 2.8-.5 1-.5 1.4-.9 1.4-1.2 0-.7.7-.7.9 0 .1.3 0 1-.1 1.7-.3.9-.3 1.3 0 1.5.2.3-.1.7-1.6 1.9l-2 1.5c-.2 0-.3.2-.2.5.1.5-.9 1.3-2.6 2.2-1.5.8-2 1.2-1.7 1.7.2.5 1 .8 3.2 1.2 1.6.2 1.9.2 2.6-.2 1-.5 2.3-2.1 2.3-2.8 0-.7-.6-.6-2.5.2-1 .4-1.6.6-1.8.5-.3-.4 0-.7 1.4-1.5a19 19 0 0 0 4.8-4.5c.2-.3.3-1 .3-1.2-.1-.4 0-.6.4-.7 1.1-.4 1.7.9 1 2.3 0 .4 0 .7.2 1 .6.7 0 .9-1 .3l-.7-.4-1.4 1.3c-1.3 1.3-1.3 1.3-.6 1.5.3.1.7.4.8.7 0 .3.3.5.5.5.4 0 1.5 1.2 1.5 1.6 0 .4-.6.8-2.3 1.8a7 7 0 0 1-1.9.5c-1.3.2-3.5 1.2-3 1.4.1 0 .7 0 1.2-.2 1-.3 1.5-.2 1.5.2s-3.4 1-5 1l-1.6.1c0 .2-.3.3-.5.3-.3 0-1.4.4-2.6 1l-2.8 1.2c-.5.1-.9.7-1.7 2.5l-1.1 2.5c-.2.5 2.2 0 2.6-.6.3-.4 1.4-.7 4.5-1.3 2.3-.5 5-1.1 6.2-1.5l5.1-1.2c2.8-.5 3-.5 3.7-.1 1 .7.7 1.2-1.2 2.3l-1.2.4-1.4.5c-1.6.6-1.8 1.1-1.8 6.8 0 2.6-.1 5-.3 5.1 0 .2-.3.3-.6.3s-.4-.2-.2-1.2c.3-1.5.2-1.1.2-6.2 0-3.7-.1-4-.5-3.3-.4.7-1 6.7-.7 7.4l-.1 1c-.2.4-.4 1.2-.4 2 0 1-.2 1.3-.5 1.3-.4 0-.4-1.2 0-5.5.6-6 .6-5.7 0-5.8-.5 0-.6-.3-.6-.6.1-.5 0-.5-1.1-.3-.7 0-2.2.3-3.2.5-1.6.3-1.9.4-2.3 1.2l-.5.8.6-.1.6-.2.1 5v5.4c-.3.6-1.6.7-1.9 0zm1.2-3.7c0-1.3-.1-2.3-.3-2.3-.1 0-.3.6-.2 1.3 0 1.3.2 3.2.4 3.2v-2.2zm-6.1-10.6.8-2-.8-.2c-.6 0-.8.1-1 .6a67 67 0 0 1-.5 2.7c-.1.5 0 .6.3.6.2 0 .7-.6 1.2-1.7zm6.8 1.3h-1c-.5 0-1 0-1 .2s1.7 0 2-.2zm3.4-.5c1.2-.2 2.1-.6 1.4-.6-.5 0-3.7.7-4 1h.7l1.9-.4zm6.9-1.2 1.3-.6-1-.1-1.8.1a234 234 0 0 1-2 .9c.4 0 .9.2 1.1.5.4.5.5.5.8.2.1-.3.9-.7 1.6-1zm3.1-.8c.1-.1.2-.3 0-.4-.1-.2-1.7.2-1.7.4 0 .4 1.5.4 1.7 0zm-13-4.9c.4-.3.5-.4.2-.4a2 2 0 0 0-1 .4c-.3.3-.4.4 0 .4a2 2 0 0 0 .9-.4zm10.4-3.7c.3-1-.4-.9-1 0l-.7 1 .7-.3c.5-.2.9-.5 1-.7zm-2.5-8.2c.8-1.3.6-1.5-.7-.8-1.2.5-1.2.5-1.2 1.9v1.3l.7-.8c.4-.4 1-1.1 1.2-1.6zM32.3 49.7c.6-.8 1.3-1 1.3-.4 0 .5-1 1.2-1.5 1.2-.3 0-.2-.2.2-.8zm96.8-.3c0-.4 1.3-1 2.2-1 1 0 .5.8-.7 1-1.5.4-1.5.4-1.5 0zm9-2a3 3 0 0 1 1.1-1c1-.5 3-.7 3.3-.4.2.4-.7 1-1.6 1-.4 0-1.1.1-1.5.4-1 .7-1.7.7-1.3 0zM.3 47.2c0-.2 0-.4.2-.4s.3.2.3.4-.1.4-.3.4l-.2-.4zm145.5-1.7c-.3-.2-.2-.3.2-.5.7-.4 1.3-.4 1.5 0 .4.6-1 1-1.7.5zm-39.5-.5c.1-.6 1.1-1.6 1.1-1.1l-.3 1c-.3.7-1 .9-.8.1zm-60.5-1.3.5-.7c.3-.4.6-1 .7-1.6.1-1 0-1-.6-1.4l-.8-.2.9-.4c.5-.1 1.1-.7 1.4-1.2.5-.9.6-1 .2-2-.3-1.1-.1-1.7.5-.9.7 1 .7 2 0 3.6-.4.8-.7 1.9-.7 2.4 0 .7-.2 1.3-.7 1.8-.6.7-1.4 1.1-1.4.6zm102.7-.2c-.2-.6.4-1 3.7-2l3.4-1.3c.4-.2.8-2.3.9-5l.2-3c.2-1.3.2-2.3 0-2.4-.1 0-.9 0-1.7.2-1.7.3-2 .1-2.1-.9 0-.5 0-.7 1.4-1.1 1.5-.5 1.5-.6 1.5-1.6 0-.5.1-1 .3-1.1.1 0 .9.2 1.7.6 1.4.6 1.5.7 1.3 1.4l-.1.8 1.1-.2a100.4 100.4 0 0 1 6.5-1.7c.7-.2 1.1-.4 1.1-.7 0-.5-.1-.5-1.7.1-2.4 1-6.2 2-6.4 1.8-.3-.3.4-.7 3.4-1.5 1.7-.4 3.6-1 4.2-1.4 1.3-.6 1.6-1.3.6-1.3s-1-.4.5-2l2.1-3c.4-.6 1-1.4 1.4-1.7.7-.6 1-1.2.5-1.2s-4.7 2.2-5.3 2.8c-.3.3-.6.7-.6 1 0 .2-.2.6-.5.8-.5.4-.5.7-.4 1.6l.2 1.4s0 .2-.3.3c-.3.1-.8-1.5-.8-2.9 0-.5-.2-1-.5-1.3-.3-.3-.3-.4.2-.8.3-.3.8-.5 1-.5.3 0 1-.3 1.6-.7l5.2-3.2a33 33 0 0 0 3.1-2 27 27 0 0 1 5.4-3c.5-.3.6-.2.6 0 0 .3-.3.6-.7.7-1.1.5-1.4.8-1.1 1.4.1.3.5.5.8.5.5 0 .5-.1.3-.4-.2-.2-.2-.4-.1-.5.2-.2 1.1.7 1.1 1.1 0 .2-.4.4-.9.5-.8.3-.8.5-1.3 2.4l-.3 2c0 .1.7.1 1.6 0 1.5-.2 1.6-.2 3.9-2.5 2.4-2.4 3.2-3.8 3.4-5.3.1-1.3-.4-1.2-1.1.2-.6 1-1 1.4-2.3 2-1.5.8-2.5.9-2.5.2 0-.1.2-.3.5-.4.3 0 .7-.3 1-.4.7-.3.7-.3.2-.6-.6-.5-.2-1 1.2-1.2.8-.1 1.3-.4 1.6-.8.3-.5.3-.6-.3-.6-.4 0-.7 0-.7-.2 0-.4 1.2-1.3 1.7-1.3.3 0 1-.3 1.4-.7.5-.4 1.1-.7 1.4-.7.2 0 .8-.3 1.2-.8.5-.7.6-1 .5-1.7-.1-.7 0-1 .2-1 .5 0 1 .9 1 1.5 0 .2-.6 1-1.2 1.8-1 1-1.2 1.4-1 1.8.2.2.2 1 0 1.6-.4 2.1-.3 2.2.7 2l1-.2-.2 1c-.1.6 0 1.2.2 1.6.1.3.2.8.1 1-.2.6-2.5 1.8-4.3 2.2-1.7.3-1.9.4-4 2.6a21 21 0 0 0-2.3 2.4c0 .1 3.6-1 5-1.6l.4-.5.4-.7c.4-.3.5-.3.8.1.3.5.5.5 3.6-.7a26 26 0 0 1 6.8-2c1.4 0 2-.7 2.4-2.3.2-.8.4-2.3.4-3.2 0-1 .2-1.8.3-1.9l.1-.7c0-.3.3-.8.6-1 .5-.5.7-1.3.3-1.3l-1.5 1.5c-1.1 1.3-2 1.8-2 1.2L201 5c1.2-1.3 1.4-1.7 1.1-2-.2-.3-.2-.4 0-.7.4-.4 1.2 0 1.3.8.1.8.5.7 1.8-.2l1.4-.8c.6 0 .3.7-.4 1.2-1.1.7-2.2 1.8-2.2 2.2 0 .6.5.4.8-.3.5-1 1.1-1 1 .1-.1.7 0 .8.6 1 1 .2.8.7-.1.6-.4 0-.8 0-.8.2-.1.2-.7.3-1.2.3-1.2 0-1.4.2-1.7 2l-.3 2.7c-.2 1-.1 1.4 0 1.4.2 0 .4.2.4.5 0 .7-4 2.2-5.3 2-.7-.1-1 0-1.2.2-.4.5-.9 5.2-.6 5.4.3.2 5.1-1.5 5.5-2a20 20 0 0 0 2.9-5.4c.1-.7.3-.9 1.3-1.1a4.4 4.4 0 0 0 2.7-2.8c.2-.5.5-.9.7-1 .5-.1.8-.5.8-.9 0-.5-.6 0-2 1.4-1.3 1.4-1.6 1.6-2.5 1.6-.8 0-1-.1-1-.5.1-.3.5-.5 1.2-.7 1.2-.2 2.2-1.2 2.2-2 0-.9.4-1.3 1-1.3.8 0 3.5-3.6 3.5-4.7 0-.5.6-.7.9-.4.1.1.2.8 0 1.5-.1 1-.4 1.5-1.4 2.5L210 7.1l.8.1c1.3.2 2.2-.2 3.2-1.3.7-.8 1-1 1.3-.7.5.5.2 1.2-1 2l-1.1 1c0 .4.8.3 2.2 0 1-.3 1.3-.3 1.5 0 .4.8.2 1-1.2 1.5-1.9.5-4 .4-4-.2-.1-.3 0-.5.3-.5.5 0 .3-.6-.3-.8-.5 0-1.7 1.2-1.7 1.8 0 .2.3.4.7.5 1.5.3 1.6.4 1 .6-.2.2-.8.2-1.5 0-1.3-.3-1.7 0-1.3.7.2.5 0 8.6-.3 11.5-.2 1.1.1 1.3 1 .7.8-.6 11.3-2.9 11.6-2.6.5.5-.5 1-2.6 1.3-3 .5-6.8 1.4-7.2 1.8-.1.2-1.5.6-3.1.9a27 27 0 0 0-8 2.1c-.3.3-.7.4-1 .3-.7-.2-3.4.6-3.9 1.2-.2.2-.6.4-1 .4s-1.6.3-2.7.7L187 32c-3.3 1.3-4.7 2-4.2 2.2a54.8 54.8 0 0 1 6.5-2l.1.1c0 .2-1 .7-2.4 1.1-4.1 1.4-6 2.2-5.5 2.4l2.2-.5a4352 4352 0 0 0 6.2-1.7c.3.2 0 .3-2 .9l-5.7 1.6c-7 2-11 3-10.4 2.4l3.4-1.1.9-.4c.5-.4.4-.4-.6-.3l-1.9.5a56.4 56.4 0 0 0-6.7 2 135 135 0 0 1-14.8 4.6c-.4-.3 0-.5 3-1.4 3.4-1 3-.6 3.2-3.9 0-3.2-.5-6.6-1-5.7V38c-.3 1.3-.2 1.7 0 1.7s.4 0 .5.2c.2.3-2 1.7-2.4 1.5-.4-.1-2.5.4-3.1.8-.3.2-.7.4-1 .4-.2 0-.9.3-1.4.7-1.1.7-1.2.7-1.4.2zm15.3-3.8c6.6-2.2 6.3-2.1 6.7-3 .6-1 1.3-5 1.1-5.6-.1-.3-.3-.4-.6-.3-.3.1-1 .4-1.8.5-2.7.7-5.4 2.7-5.9 4.3-.3 1.3.7 1.5 3 .5.3-.1.4-.1.3.2 0 .2-.8.6-1.7 1-2 .8-2.6 1.3-2.8 2-.3.8-.6.8-1 0l-.5-.7c-.2 0-.3-.1-.3-.4 0-.2.2-.4.4-.4.6 0 1-.7 1.1-2.1l.1-1.3-1 .1c-1.9.3-1.2-.4 1-1.2 1.8-.6 3.5-1.9 3.5-2.6 0-.5-.6-.2-1 .5-.5.9-1.2 1-1.2.4l.6-1.2 1.4-1.8c.7-1 1.2-1.4 1.2-.8 0 .2-.2.7-.5 1l-.5 1c0 .8 1.3-.8 1.4-1.7.2-.7.1-.8-.4-1-.5-.2-2.7.5-3.4 1-.9.8-3.3 1.8-3.7 1.7-.4 0-.5.1-.7 1.5-.1 1 0 2 .2 2.4.2.5.3 2 .2 4 0 2.8 0 3.3.4 3.3l4.4-1.3zm9.1-5.2c.4-1.5.4-2 .2-2.3l-.4-.2c-.2.2-1 3.9-1 4.6 0 1.1.7 0 1.2-2zm4.1 1 3.4-.6c.4 0 .7-.2.9-.6.3-.7 2.1-1.8 4.2-2.5l1.4-.5.1-2.6c0-3.3 0-3.6-1.5-2.7-.6.5-1.3.7-1.9.7-.9 0-2.7.6-5.1 1.5l-2.2.9-1.7 1c-.7.6-.7.8-.6 2a6 6 0 0 1-.3 2.6l-.4 1.3c0 .4.8.3 3.7-.4zM168 31c0-.2.4-.3.6-.3.3 0 1.1-.3 1.9-.7 1.2-.6 1.3-.7 1.2-1.2a82.1 82.1 0 0 1-1-3.4l-.6.5-1 .7c-.4.1-.5.3-.4.8.2.4 0 .8-.7 1.4-.6.6-1 1.2-1 1.7 0 .7.6 1 1 .5zm20.9-3.3c0-3.1-.1-3.6-.8-3-.3.4-.4.9-.3 2.9.2 2.8.3 3.2.7 3 .3 0 .4-.9.4-3zm2.9 2c.1-.2.7-.4 1.3-.6 1.7-.5 1.8-.7 1.6-2.4l-.4-1.9c-.2-.3-.1-.5.1-.7.5-.4.8-.2.8.5l.3 2 .2 1.6 1.6-.5c.9-.2 1.7-.6 1.8-.7l.5-1.9.4-2.4c.2-.7.1-.7-.6-.7l-2.8.6c-2 .7-3.9.8-4 .3-.1-.2.2-.4.6-.5.5 0 .9-.4 1-.7.2-.8-.4-4.3-.9-4.4-.6-.3-3.4.7-4 1.3-.5.5-.5.8-.3 2.4.2 2 .1 2 1.7 1.6 1-.2 1 .5-.2 1l-.8.3v3c0 1.8.2 2.9.4 3 .3.2 1.2 0 1.7-.3zM158 28.1c0-.7-.4-.9-.7-.4-.2.4.1 1.3.4 1.2.1-.1.3-.5.3-.8zm16.7-.7c.8-.8 2-3.5 1.7-3.8-.2-.3-1.7.5-1.9 1-.1.5-.7.6-.7 0 0-.4-.4-.5-1-.1-.3.2-.3.5.1 2 .3 1 .6 1.7.7 1.7.2 0 .7-.4 1.1-.8zm4.7-.2c3.6-1.4 5.5-2.2 6.6-2.9 1-.6 1-.6.8-1.8l-.3-1.6c0-.5-.3-.5-4.5.7-2.3.7-4 1.3-4 1.5l-1 2.4c-1.6 3.2-1.6 3.2 2.4 1.7zm23.6-1.5 1.2-.4c1.1 0 1.4-1.5.7-3.5l-.6-2.7c0-.8-.2-1.6-.4-1.6-.2-.2-1.2.9-1.2 1.4 0 .2.3.3.6.3.8 0 1 .5.2.7-1.8.7-3.2 3-3.2 5.4v1.1l1-.2c.5 0 1.3-.3 1.7-.5zm-33-1c.1-.1.1-.3 0-.4-.1-.2-1.2.4-1.2.7 0 .3 1 0 1.2-.3zm37.1-.3c.5-.5.9-3.4 1-7.5.2-3.1.1-3.8-.1-3.6-.2 0-.4 0-.6-.2-.2-.4-2.3 1.7-2.5 2.6-.2.7.3 4.5.9 6l.3 2c0 1.1.5 1.4 1 .7zm-34-.5c.6-.4.6-.4 0-.4-.7 0-1.4.2-1.4.5 0 .4 1 .3 1.5-.1zm-1-1.8.6-1.2-1.5-.2c-1.3 0-1.5 0-2 .5-.3.5-.3.8-.2 1.2l.4 1.1c.3.8 1.8 0 2.6-1.4zm16 0c0-1.1-.3-2.1-.6-1.8-.3.2.1 3.1.4 3.1.1 0 .2-.5.2-1.2zm-13.1 0c1.2-.3 1.6-.5 2-1.1.4-.9.2-1.3-.7-1.3a4 4 0 0 0-3 1.8l-.5 1c0 .3.6.2 2.2-.3zm4.7-1.5c1-.7 4.4-3.8 4.4-4 0-.4-.8 0-1.5.7-.8.7-3.6 2.2-4.2 2.2-.2 0-.3.1-.3.4l-.2.7c-.2.6.9.6 1.8 0zm-6.7-.9c.7-.2 1.6-1.2 1.6-1.7 0-.2-.4-.2-.9-.2-.5.1-1.1 0-1.3-.2-.3-.2-.5 0-1.2.7a4 4 0 0 0-.8 1.4c0 .4 1.4.4 2.6 0zm3.8-.7c.4-.2.7-.6.8-1 .1-.6 0-.7-.7-1-1-.5-1.4-.9-1-1.3.3-.2.4-.2.6.1.2.3.5.5.9.5s.6-.2.9-1.2c.5-1.8.4-2.8-.2-2.8-.3 0-.6.2-.6.4s-.4.5-1 .6c-2 .3-3.5 1.7-3.5 3.3 0 .5.1.5 1.5.3 1.5-.1 1.5-.1 1.3.5-.6 2-.4 2.1 1 1.6zm3.6-1.5c0-.4 0-.5-.8-.3-1 .2-1.4.5-1.2 1 .2.4.3.4 1 .1.5-.2 1-.6 1-.8zm14.5-1.1h-.6c-.3.1-.3.2 0 1l.6.9v-1.9zm-7.8-3.4c1-1 1.7-2.2 1.5-2.4 0 0-.5.3-.9.9a6 6 0 0 1-1 1l-.2.5c0 .2-.2.5-.4.6-.3.2-.4.3-.2.3s.8-.4 1.2-1zm3 .4c1.4-.7 1.6-1.4.6-2.2-.7-.6-1-.5-2 1-1.3 1.8-.8 2.2 1.4 1.2zm-.2-6.2c.2-1.3-.2-1.7-1.1-1.2-.6.3-.6.3-.1 1.3.3.5.5 1 .5 1.3 0 .9.6-.2.7-1.4zM30.1 42.7c-.3-.3-.2-1.4 0-1.4.3 0 .9.8.9 1.3 0 .3-.6.4-1 0zm14.8-4c-.5 0-.7-.3-.8-.8-.2-1 0-1 .6-.5.7.6 1.3.6 1.3-.2 0-1-.5-1.3-1.4-.8-.6.3-.7.3-.9 0-.2-.6 0-.7 1.5-1l1.7-.6c.3-.1.5 0 .5.2 0 .3-.2.5-.3.5-.1 0-.3.4-.3.8 0 1-.6 2.6-1 2.6l-.9-.2zm57.2-1.5c0-.4.5-.8.7-.6.2.2-.2 1-.4 1s-.3-.2-.3-.4zm-66.6-.3c.1-.6.6-.6.7 0 0 .2 0 .4-.3.4s-.4-.2-.4-.4zm-11.4-1c0-.4.3-.6.6-.7.3 0 .5 0 .4.4 0 .3-.3.6-.6.6s-.4 0-.4-.4zm-4.3-1c0-.4.7-.8 1.3-.6.5.2.4.8 0 1-.8.3-1.3.2-1.3-.3zm22.8.3c0-.2.2-.3.4-.3s.4.1.4.3c0 .1-.2.3-.4.3s-.4-.2-.4-.3zm-40-.7c-.4-.5-.1-1.1.7-1.4.4-.2 2.5-.4 4.7-.5 3.8-.1 4-.1 4 .4 0 .7-1.3.9-5.1.9-1.5 0-2.7 0-2.8.2-.4.6-1.1.8-1.5.4zm105.2-.3-2.3-.8c-.7-.1-1.2-.8-.8-1.2.2-.2.8-.1 1.6.1 2.1.7 2.7.8 3.2.5.4-.3.7-.3 1.1 0l1.3.3c.9.1.8.6-.2.7-.5 0-1 .3-1.1.6-.4.7-.9.7-2.8-.2zm-60.6-.6c-.6-.7-.2-2 .6-2 .4 0 .5.2.6 1.3 0 1.4-.3 1.6-1.2.7zm-22-.4c-1-.9-2.6-1-3.7-.3-.6.5-.7.5-1 0-.2-.2-.6-.4-.8-.3-.7.1-.8-.6-.2-1.4.7-.9 1.7-.5 1.7.6 0 .5 0 .7.2.6.4-.6 2-1 3-.7.9.3 2 1.4 2 1.9 0 .4-.3.3-1.2-.4zm-11.5.2c-.3-.2 0-.6.5-.6.2 0 .4.2.4.4 0 .4-.6.5-1 .2zm177.4-.2a47.4 47.4 0 0 1 6.4-1.4l-.6.3a950.4 950.4 0 0 0-5.8 1.1zM78.8 32.1c-.3-.3-.2-.9.1-.9.2 0 .5.1.7.3.4.2.4.3 0 .5-.4.3-.6.3-.8.1zm119.6-.6 2.5-.7a151.5 151.5 0 0 0 8.9-1.6c2.3-.4 4.3-.8 4.6-1 .5-.2 1 .3.5.6-.4.4-2.5.8-6 1.2-5.6.7-7 1-8.6 1.3-1.8.5-1.9.5-1.9.2zM92.3 29.2c-.4-.4-.2-.6.6-.6 1 0 3-.4 4-.9l.8-.3-.8-.3c-.5-.2-.9-.5-.9-.7 0-.2-.3-.6-.8-.7l-1.7-1c-.9-.6-1.6-.7-2.7-.5-.8.3-.7.8 0 1.6.8.7 1 1.5.4 1.5-.4 0-2-2.2-2-2.7 0-1 3.4-1.4 4.5-.6 1.8 1.4 2.7 1.7 6 1.4.3 0 3-2.1 3-2.4 0-.4-1-.6-3.6-.7a21 21 0 0 1-3.8-.3c-.6-.2-1.7-.3-2.4-.2-1.2 0-1.4 0-1.3-.3.1-.6 1.4-.7 3-.4l3.4.5c1.8.2 2 .1 2.2-.3 0-.3.5-1 .8-1.4.4-.5.6-1 .6-1.6-.1-.4 0-.7.2-.6h.6c.2.1.4 0 .5-.3 0-.4 0-.5-.5-.3-.7.2-.7 0 0-.9.3-.4.5-.9.5-1.1 0-.4.8-1.3.8-1l.3 2c0 .8-.6 2.3-1.6 3.5-.9 1-1 1.3-.6 1.3.7 0 1.3-.4 1.3-1 0-.3.2-.5 1-.5.7 0 1.2 0 1.2.2l-.4.2c-1.3 0 1.3 1.8 4 2.9 1 .3 2.6 1 3.5 1.6 1.3.7 1.9.9 2.8.8.8 0 1 0 1 .3 0 .9-2.7.6-4.2-.5-.6-.3-1.9-1-3-1.4-2.4-1-3.2-1.3-3.7-1.7-.3-.2-.8-.4-1.2-.3-.7 0-.8.1-.8 1.2 0 1.2-.4 1.7-2.3 2.9-.4.2-.8.7-.8 1-.1.3-.6.9-1.2 1.2-1.7 1-6.2 2-6.7 1.4zm45.4-.3c-.2-.4 1.1-1.2 1.6-1 .4.1.4.2.1.5-.5.5-1.5.8-1.7.5zm-34.3-2c-.8-.5-1-.8-.5-1 .3-.3 2.2.8 2 1.1-.2.3-.7.3-1.5-.2zm18.6-.6c0-.5 1-1.2 3.6-2.5 2.3-1 2.8-1.3 2.7-.7-.1.3-5.7 3.6-6.1 3.6-.1 0-.2-.1-.2-.4zM82.7 26c-.3-.4.3-.8.9-.6.8.2.7.9-.1.9-.4 0-.7-.1-.8-.3zm-22.4-1.1c0-.2.3-.5.6-.5.7-.2.9-.1.7.4-.2.5-1.3.6-1.3 0zm79.3-.7c-.2-.3.7-1 1.6-1.2 1-.3 1 .4-.1.8l-1.2.6s-.2 0-.3-.2zm-118.4-.4c0-.3.7-.8 2-1.4l2.6-1.1a47 47 0 0 1 4.7-1.6c.5 0 0 .8-.5 1a58 58 0 0 0-7.3 3c-1 .6-1.5.6-1.5 0zm141.3 0c0-.2-.8-1-1.6-1.6-1-.8-1.6-1.2-2.2-1.2-.4 0-.7-.1-.7-.3 0-.2-.5-.4-1.3-.4a6 6 0 0 1-2.2-.4c-1-.6-1.3-.6-1.3-.1 0 .4 1.1.8 3 1 2 .4 1.8.8-.3.7-3.2-.2-5.8-2-3.6-2.7.5-.1 1-.5 1.1-1 1-2.1 1.4-2.4 2.5-1.8.4.2.4.3.2.7-.3.3-.2.5.5 1.2 1 .8 1.5 1 1.2.3l-.3-1.3c-.2-1.1.5-.7 1 .5.1.6.6 1.5 1 2 .6.8.8.8 1.3.6 1-.6 2.3-.2 1.4.3-.4.3-.3.8.4 1.6.8.9 1.1 2.3.5 2.3-.2 0-.5-.2-.6-.4zm-6-4.8c-.8-.8-1.2-.8-1.2-.1 0 .5.4.7 1.3.7h.7l-.7-.6zm-2.1 3.6c-.2-.3.6-.9 1-.7.1.2.1.3-.1.6-.4.4-.7.5-.9.1zm-88.9-.2c-.3-.3-.2-.6.4-.9.8-.4 1.4.2.7.7-.6.4-.8.5-1 .2zm83.2-.3c-.3-.3-.3-.3 0-.5.4-.3 2.2 0 2.3.4.1.4-1.7.4-2.3 0zm-72-.7c0-.2.3-.4.7-.5.3 0 .9-.6 1.2-1 1-1.6 1.8-1.6 1.8-.2 0 .5.2.8.6 1 .8.2.6.6-.4.5-.4 0-1.4 0-2 .2-1.5.5-1.9.5-1.9 0zm64.9-.8c0-.4 1-1.2 1.5-1.2.6 0 .3.8-.5 1.2-1 .5-1 .5-1 0zm-105-.5c.3-.4 3.3-1.3 8.1-2.5l2.9-.7c.3-.1.6 0 .6.1 0 .2-.3.3-.6.4a81.8 81.8 0 0 0-11 3c-.4 0-.4 0 0-.3zm70.7 0c-.2-.3.3-.7 1-.6.1 0 .3.2.3.4 0 .5-1 .7-1.3.3zm-39.7-.3c-.2-.3-.6-.3-1.2-.2-1.4.3-.9-.9.8-1.8.8-.4 1.3 0 1.3 1.2 0 1-.3 1.4-.9.8zm27.3-.2c-1-.3-1-.8.2-.6a72.1 72.1 0 0 0 2.5.7c0 .3-1.8.3-2.7 0zM33.1 19c0-.3 1.2-1 4-2.2 2.3-1 2.7-1.3 5.7-4.2 1.4-1.3 1.8-1.6 3-1.8l2-.3 2.8-.3c1.8-.3 2.5-.3 2.8-.1.2.2.2.4.1.5-.3.3-5 .9-5.3.7-.1-.1-.7 0-1.2.2-.6.2-1.2.4-1.5.3-.5-.2-1.1.4-1.4 1.3-.2.6-1.7 1.7-2.3 1.7-.3 0-.6.3-.7.6-.2.4-1 .9-1.9 1.3a91 91 0 0 0-3.6 1.6c-2.2 1-2.5 1.2-2.5.7zm65.9-.2s.4-.6.9-1c.6-.7 1-.9 1.2-.7.2.2 0 .5-.7 1.1-1 .9-1.4 1-1.4.6zm22.7 0c0-.3.5-.8 1.1-1.2.6-.4 1.5-1.3 2.1-2 .9-.8 1-1.2 1-1.7-.2-.6-.1-.7.5-.7 1.6 0 2.1-.5 1.2-1.2-.4-.2-.3-.3.6-.6 1.3-.4 3-1.4 3-1.7 0-.3-1.2-.2-3 .3-1.3.3-1.8.3-2 .1-.4-.3-.4-.3 2.2-1 1-.2 2.4-.4 3-.3 1.5 0 2.2-.3 3.2-1.5.6-1 .7-1 .2-1.5-.5-.6-.1-1 .7-.5.6.3.7 1.2 0 1.9l-.4.8c-.2.8-.5 1.5-.8 1.5-.2 0-.2.1 0 .3.3.3 2.8-.2 3.8-.8.6-.3.6-.3.1-.7-.5-.4-.5-.4 0-.8.7-.5 1.7-.5 2 0 .4 1.3-2.2 2.8-5.5 3-1.8.2-2.2.3-3.7 1.3-1 .7-1.9 1.4-2.1 1.7a2 2 0 0 1-1.1.7h-.8l-.6 1c-.6 1-3.8 3.9-4.4 3.9-.2 0-.3-.2-.3-.4zM88 17.8c-.5-.1-1-.4-1-.6 0-.4.3-.5 1.3 0l2 .3c.6 0 1.2.1 1.2.3.2.3-2.2.4-3.5 0zm5-.5c-.2-.3-.2-.4 1.3-.6 1.3-.1 1.6.2.7.7-.7.3-1.8.3-2 0zM53.9 17c-.2-.2.4-.6 1.5-.9.3 0 1-.6 1.4-1 1-1.4 1.6-1.6 6.1-2.7l4.3-1.1c.7-.3-1.4-.5-3.8-.4-2.2 0-2.3 0-3-.6-.3-.4-.7-.7-.8-.7-.2 0-.3 0-.3-.2 0-.5 1.4-.3 2 .2a421.1 421.1 0 0 0 27.7.3h1.5l-.7-1-.6-1.4c0-.9.6-.6 1 .4.2.5.6 1 1 1.3.7.3.7.4.7 2 0 2 .2 2.4 1 2.4.7 0 .6.7-.1.9-1.2.3-1.4.2-1.6-1-.1-.5-.4-1-.6-1.1-.3-.1-.4-.5-.3-1v-.8l-3.3-.1c-1.8 0-4.3 0-5.6.2l-5.7.4c-8.2.3-17.8 2.7-17.4 4.4v.5l-1.8.6c-2 .8-2.4.8-2.6.4zm105.6-.6c0-.6 0-.7-1-.7-1.4 0-3-.4-3.4-1-.4-.3-.4-.4 0-.7.5-.4.5-.4-.2-1.3-.6-.8-.8-.9-1.5-.7-.4.1-.8.2-.8 0-.4-.3-.1-.8.6-1 1-.1.9 0 .4-1s-.5-1.8-.1-2.5c.3-.6.8-.4.8.3 0 .3.1.5.3.5.3 0 .4-.1.4-.3 0-.6 1.1-.1 2.3 1.1 1.4 1.4 2 1.7 2 .8-.2-1 .4-.9.8 0 .2.5.5 1 .7 1.1.7.5.3.8-.8.7a6 6 0 0 1-2.8-1.2c-.9-.7-1.8-1.1-2.2-1.1h-.8l.7.8c.3.5.7 1.1.7 1.4.1.6 1 .9 2.8 1 1.4 0 2 .3 1.3.6-.2.1-.4.3-.4.5 0 .5-.5.6-1.6.4-.6-.2-1-.2-1.2 0-.6.6.4.9 3.8 1 3.3.1 3.5.1 4.1-.4.6-.6.7-.6.9-.2.2.4.4.4 1.7 0 1.7-.7 2.1-1.4.6-1.4l-1.6-.3c-.5-.3-.9-.2-2.1.3l-2.2.9c-1 .3-.7-.3.4-.8 1.1-.6 1.3-.9.8-1.4-.6-.6-.6-1.6 0-1.6.2 0 .3.2.3.4 0 1 1.1 1.5 2.2.8.4-.3.5-.2.9.3s.5.5 3.1.4c2-.1 2.8 0 3 .1.2.5-.3 1-1.2 1.3-.4 0-1.4.5-2.1 1-1 .6-1.7 1-2 .8-.3 0-.7.2-1.3.8-.8.8-.8.8-3.5.9h-2.8zM86 15.5c-1-.6-1.3-1.8-.5-2 .4 0 .5.1.5.6 0 .7.4 1.1 1.2 1.3.3 0 .5.2.5.3-.1.5-.8.5-1.7-.2zm12.4.4c0-.1.3-.5.7-.8l1.4-1.8c.5-1 .6-1.3.3-1.8-.3-.7-1-.9-1.6-.3-.7.7-2.1.8-2.1.1 0-.5 1.1-1.3 1.6-1.1.2 0 .6 0 .8-.3.2-.2.8-.4 1.5-.4 1.2 0 1.7.5 1 .9-.3.1-.3.4-.2 1 .2.9-.4 2.2-1.6 3.6-1 1-1.8 1.5-1.8 1zm-9.5-.7c-1.3-.4-1.8-1-1.3-1.6.2-.2.4 0 .7.4.3.3.9.6 1.5.7.5.1 1 .3.9.5-.2.4-.5.4-1.8 0zm4.9-.1c-.2-.3 1-.8 1.7-.8.3 0 .3.1-.2.5-.7.6-1.3.7-1.5.3zm2.8-1c0-.5.4-.6.8-.2.2.3.2.4-.3.4-.3 0-.5-.1-.5-.3zm71.8-2.6c-.1-.2 1.1-1.4 1.5-1.4.1 0 .4-.3.5-.7.1-.4.5-.7.7-.7a2 2 0 0 0 1-.4c.2-.2 1.1-.4 2-.5 1.4-.2 1.9-.5 3.6-2.2.8-.9.8-1.2-.1-1-1.7.4-2.7.5-2.7.2s2.2-1.1 3.3-1.1c1.3 0 1.6.8.9 1.7-.8 1-.5 1.1.8.4 1.3-.6 1.3-.6 1.3 0 0 .3-.7.8-2.2 1.7l-2.6 1.2-.7.3c-.1.2-1 .4-2 .4-1.4 0-1.8.2-3.2 1.1-1.6 1.2-1.8 1.3-2 1zm-59.7-.4c-1.5-.3-2.3-1.1-1.4-1.5.2 0 .6 0 .7.3.2.2.8.5 1.3.6 1 .1 1 .1 1-.6 0-.3-.2-1-.4-1.3-.5-.8-.3-1.5.6-2 1-.4 4.1.7 3.3 1.2-.1 0-.7 0-1.3-.2-1-.4-1.1-.4-1.5 0-.4.4-.4.5 0 1l1 1.3c.8.9.5 1.3-.6.7-.4-.2-.6-.2-.8.2-.3.6-.4.6-2 .3zm8.5-.3H116c-.6 0-.9 0-1-.3-.2-.5.2-.8.9-.6.7.2 2-.4 3.4-1.7a9 9 0 0 1 2.3-1.5c1.1-.4 1.2-.4 1.6 0 .5.5.5.5-.1 1-.4.3-1 .5-1.6.5-.8-.1-2.2.8-2.2 1.4 0 .1 1 .2 2.2.1 2.4-.1 2.9-.4 3.7-2.2.7-1.4.6-1.6-.7-2l-1.9-1.1c-.7-.6-.7-.7-.3-.8.3-.2.8 0 1.3.4.8.6 1.2.6 3.2.6 1.3 0 2.5-.1 2.6-.3.2-.2.7-.2 1-.2.5.1 1.2 0 2-.4 1-.4 1.3-.5 1.5-.3.2.2.2.4 0 .7-.2.3-.5 1-.5 1.8-.1 1-.3 1.4-.6 1.4s-.4-.4-.5-1.1c0-1.4-.6-1.5-1.7-.6-.6.5-.8.5-1.5.2a4 4 0 0 0-1.6-.2c-.8 0-.9.2-1 1.1a7.1 7.1 0 0 1-3 3.8c-.7.3-.7.3-.7 0 0-.4-.2-.4-.6-.3l-2.2.2c-1 0-1.8.2-2 .4-.3.2-.5.2-.8 0zm24.6-.3c0-.4.8-1 1.3-1 .6 0 .3.7-.4 1-.8.4-.9.4-.9 0zm57.6-.8c-.2-.5-.7-1.1-1.2-1.4-1-.6-1.4-1.3-.5-1 .5 0 .5 0 .4-.9-.1-1.2.2-2.3.7-2.1.2 0 .3.5.2 1.1 0 1 .5 2.6 1 3 .4.1.4 1.8 0 2-.1.1-.4-.2-.6-.7zm-144.2.4c-.8-.2-.4-.6 1.3-1 2-.7 2.2-.7 2.2-.4a10 10 0 0 1-2.9 1.6l-.6-.2zM92.7 9c-.7-.2-1.3-.5-1.3-.6 0-.5.1-.5 1.9 0 .8.1 1.4.4 1.4.6 0 .4-.2.4-2 0zm103.5-.5c-.3-.3.3-.8.6-.6.4.3.4 1 0 1a.7.7 0 0 1-.6-.4zM182 8.3l.8-1c.6-.7.8-1.2.7-1.5-.1-.6.5-1 1-.5.2.1.5.3.8.3.7 0 .5.6-.3 1l-1.5 1.2c-.8.6-1.5.9-1.5.5zm9.7-.3c-.3-.3-.1-.6.9-.9.5-.1 1.1-.5 1.4-.8.5-.6 1-.4 1 .3 0 .4-.3.7-.9 1-1.3.5-2.1.7-2.4.4zm-34.2-.4c0-.3 0-1 .2-1.6.2-1 .2-1.1-.4-1.7-1-.9-.5-1.3.6-.9.9.4 2.5.3 5.9-.2 1.6-.3 2.5-.1 1.8.3a20.9 20.9 0 0 1-6 1.1c-.6.2-1 1-1.2 2.4 0 .9-.6 1.2-.9.6zm9.1-.5c-1.4-.8-1.7-1.7-.6-1.4h1.3c.5-.2.5-.2-.2-.8-.9-.7-.7-1.3.1-.7.3.2.7.3 1 .3.3 0 1.1.7 1.1 1 0 .2-.4.4-.9.6-1 .3-1.1.5-.4 1 .6.4.7.8.2.8-.2 0-1-.3-1.6-.8zm-106.5.3c0-.1.1-.3.4-.3.2 0 .4.2.4.3 0 .2-.2.3-.4.3-.3 0-.4-.1-.4-.3zm76.6-1c0-.2.2-.3.2-.3.1 0 .2.1.2.3l-.3.2c-.2 0-.2-.1-.1-.2zm54.9-.4c0-.4.8-1.2 1.2-1.2.5 0 .4.6 0 1.1-.6.5-1.2.6-1.2 0zM113 5.6c0-.4.4-.6.9-.4.6.2.5.6-.3.6-.3 0-.6 0-.6-.2zm3.2-.2-1.6-.5c-.5-.2 0-.7.6-.7.3 0 .8-.2 1-.4.2-.3.6-.4 1.3-.2 1.7.3 2.6 1.2 1.2 1.2-.5 0-.7 0-.6.4 0 .6-.5.7-2 .2zm4.6-1.3-.1-.8c0-.5.1-.7.5-.7s.5.2.5.8c-.1.7-.5 1-.9.7zm66.7-.1c-.1-.1.2-.5.6-.9.4-.3.9-.9 1-1.2.5-.8.9-.7.9 0 0 .5-.4 1-1 1.5-1 .9-1.3 1-1.5.6zm-33-.6c-1.2-.7-1.3-1.3-.4-1.3.5 0 2 1.2 2 1.7 0 .3-.6.2-1.6-.4zm15.4 0c0-.2 3.7-2.3 4.2-2.3.8 0 0 .7-1.7 1.6-2 1-2.5 1.2-2.5.8zM127 2.8c0-.3-.1-.6-.3-.8-.2-.1-.2-.5-.1-.8.2-.4.2-.4.8.3.4.4.6.9.5 1.2-.2.7-.9.8-.9.1Zm34-.5-1.2-.6c-.6-.3-.6-.7 0-1 .6-.1 2 .6 2.3 1.2.3.6-.3.8-1.1.4zm4.2.2c-.2-.5.6-1.2 1-1 .6.2.4.6-.3 1-.3.2-.6.2-.7 0zm3-1.3c0-.4 1.2-1.1 1.8-1.1.6 0 1.4.7 1 .9-.5.3-2.7.4-2.7.2z"/>
</svg>
