<?xml version="1.0" encoding="utf-8"?>
<svg xmlns="http://www.w3.org/2000/svg" xmlns:svg="http://www.w3.org/2000/svg" version="1.1" viewBox="0 0 178 130">
  <title>Peter Rabbit and Benjamin Bunny reach Cottontail and her children who are sitting near her feet.</title>
  <path d="M1.58 129.39c-.1-.18-.3-1.53-.43-3-.12-1.48-.32-3.6-.43-4.7-.11-1.11-.14-6.59-.07-12.17C.83 96.45.8 72.06.6 63.9.5 59.11.16 26.32 0 3.39c0-2.12-.6-2 11.77-2.24 6.04-.12 13.96-.15 17.6-.08 7.02.14 14.12.16 35.58.08 19.07-.07 23.47 0 23.83.36.51.51.17 1.27-.61 1.36-.86.1-.83 0-.32 1.22.44 1.06 1.04 1.45 1.51.99.37-.37 1.26-.4 1.26-.05 0 .14-.21.37-.47.53-.43.26-.43.3.05.67.78.6.26.81-.79.31-.8-.38-.95-.39-1.07-.06-.09.21-.08.5 0 .63.24.4 2.43.85 3.28.68.6-.12 1.45.14 3.49 1.06 1.48.67 2.75 1.22 2.82 1.22.08 0-.29-.5-.81-1.1-.86-1.01-1.2-1.81-.79-1.81.1 0 .82.65 1.62 1.45 1.59 1.59 3.03 2.18 7.06 2.87 2.36.4 2.37.37 1.45-2.09-.49-1.3-.75-1.62-2.15-2.52a6.77 6.77 0 0 0-2.19-1.04c-.81 0-2.24-.76-2.24-1.2 0-.2-.14-.66-.31-1.03l-.3-.68h-4.7c-4.63 0-4.69 0-4.84-.59-.09-.32-.06-.68.05-.8.12-.11 3.66-.2 7.87-.21 4.2 0 11-.14 15.11-.3 6.61-.25 7.6-.24 8.74.14a5.5 5.5 0 0 0 3 .17c.93-.14 5.75-.32 10.7-.4 4.95-.08 10.48-.26 12.3-.4 1.82-.14 5.33-.19 7.8-.1 2.48.09 7.06.02 10.2-.16 9.71-.54 10.17-.45 10.42 1.92.2 1.9.22 9.95.04 17-.37 13.82-.1 39.56.43 41.94.14.66.3 5.55.33 10.87.04 5.33.15 9.82.26 10 .1.16.06 1.91-.1 3.88-.35 4.32-.38 23.74-.05 27.64.13 1.53.26 5.04.29 7.8.03 3.79.14 5.22.43 5.8.2.42.38.8.38.83 0 .04-.4.3-.9.6-.98.58-3.16.68-13.92.67h-5.95a79.2 79.2 0 0 1-5.03-.19c-3.23-.25-5.28-.2-7.01.14-1.09.22-2.29.21-4.76-.04-2.59-.26-4.73-.27-9.8-.04-4.56.21-6.94.22-8.06.02a28.72 28.72 0 0 0-7.55.02c-.69.13-2.25.16-3.47.05-1.21-.1-3.88-.16-5.91-.12-16.45.26-23.98.33-39.56.39-9.82.04-22.74-.05-28.7-.2a650.9 650.9 0 0 0-12.18-.21c-.73.02-6.02.1-11.77.16-5.75.07-10.7.21-11.02.32-.34.11-.64.06-.76-.13zM68.67 127c-.07-.22-.16-1.05-.21-1.85-.11-1.67.7-3.63 1.7-4.12.32-.15.8-.55 1.07-.88.45-.56.57-.58 1.61-.3.77.2 1.23.5 1.43.95.35.78 1.2.85 2.09.15 1-.78 3.98-2.3 5.41-2.75 1.9-.6 3.9-.74 6.55-.46 1.52.15 3.03.14 4.36-.04 1.12-.15 2.72-.34 3.57-.4a6.36 6.36 0 0 0 3.02-1.04c.83-.5 1.63-.9 1.78-.9.16-.02-.05-.2-.45-.41-.4-.22-.72-.5-.72-.6 0-.12-.36-.57-.79-1.01-1.07-1.1-1.33-1.92-1.33-4.23 0-2.4.42-3.34 1.85-4.07l1.04-.53.42.8c.52 1.01.83 1 1.34-.07.41-.86 1.9-2.05 2.58-2.05.31 0 1.56 1.36 2.14 2.33.38.64.95 3.87.95 5.4 0 1.43.04 1.53.62 1.53.66 0 2.05.4 3 .86.7.33 2.63 3.01 3.05 4.23.16.47.45 1.1.65 1.39.75 1.1.45 1.86-1.39 3.5-.96.84-1.96 1.61-2.22 1.71-.26.1-.64.4-.84.69-.2.28-.63.6-.95.7-.59.18-.84.68-.35.68.14 0 .86-.13 1.6-.29 1.12-.24 1.45-.22 1.99.13.86.57 1.33.53 2.28-.17.76-.56 1.06-.6 5-.6 2.3 0 4.28.1 4.4.22.47.47-.73.7-3.68.7-2.15 0-3.1.1-3.1.31 0 .22 1.07.25 4 .11 2.2-.1 6.82-.18 10.25-.17 6.13.01 9.74-.31 8.98-.81-.28-.19-.26-.3.11-.59.7-.53.58-.66-.73-.74-1.82-.13-1.29-.61.67-.62.94 0 1.95-.13 2.24-.3.38-.2 1.13-.2 2.58-.01 1.5.2 2.67.18 4.37-.06 2.28-.33 2.62-.43 4.13-1.25.6-.33 1.73-.42 5.56-.43 2.64 0 5.59.08 6.55.2 1.65.19 1.77.17 1.94-.35.23-.75 1.7-1.12 3.6-.93 1.78.2 1.77.2 1.85-2.82.09-3.17.1-3.13-.96-3.33a3 3 0 0 0-1.52.1c-1.75.83-3 1.12-4.92 1.12-1.87 0-2.1-.06-2.22-.54-.1-.4-.3-.51-.76-.42-2.03.42-2.84.41-3.26 0-.4-.41-.6-.41-2.6.02-2.45.52-3.27.89-4.36 1.98-1.2 1.2-5.78 2.4-6.25 1.63-.27-.44-1.6-.5-2.35-.12-.66.34-.96.34-2.49 0-1.13-.26-1.94-.32-2.35-.16-.75.28-5.82.45-6.07.2-.48-.48.35-.74 2.36-.74 1.2 0 2.27-.08 2.37-.18.27-.27-.37-.88-.93-.88-.9 0-2.16-.81-3.6-2.31l-1.41-1.46.59-.63c.32-.34.52-.7.44-.77a4.9 4.9 0 0 0-1.57-.12c-3.02.08-3.63 0-4.69-.54-.6-.32-1.1-.66-1.1-.77 0-.3 1.12-1.24 2.02-1.69.9-.45 1.91-2.5 1.75-3.54-.08-.5-.2-.56-.93-.42-.47.09-1.08.31-1.38.5-.65.4-3.82.61-3.84.24-.01-.15.61-.39 1.38-.54 1.1-.22 1.39-.38 1.33-.73-.1-.51.74-.59 2.38-.2l.98.22.17-1.13c.12-.79.04-1.37-.25-1.94a3.76 3.76 0 0 1-.43-1.19c0-.27-.36-.38-1.25-.4-1.66-.05-6.53.44-7.9.79-.98.24-1.25.2-2.39-.41a5.78 5.78 0 0 0-2-.69 6.1 6.1 0 0 1-1.73-.37c-.55-.2-1.34-.45-1.76-.54a5.14 5.14 0 0 1-1.59-.78 7.5 7.5 0 0 0-1.73-.92c-1.19-.4-4.08-2.02-4.5-2.53-.72-.86.28-10.65 1.28-12.58.26-.51.56-1.39.66-1.95.18-.97.17-1-.42-.83-7.8 2.37-9.34 2.9-9.27 3.25.03.18-.74.7-1.72 1.14l-3.38 1.55c-.87.4-3 1.23-4.71 1.83-4.13 1.44-4.03 1.37-4.08 2.67-.04 1.01 0 1.08.54.92.95-.3 1.1-.27 1.1.14 0 .22-.4.6-.9.83-.78.36-.84.46-.45.68.64.35.28 1.07-.62 1.27-.69.15-3.81 2.18-5.33 3.45a25.9 25.9 0 0 0-3.55 4.29c-.75 1.3-.27 1.34 1.2.1 1.08-.91 1.36-1.04 1.49-.7.1.27.34.36.66.26.73-.23.63.46-.17 1.16-.75.65-1.1.72-1.25.24-.16-.47-2.5 1.36-2.8 2.19-.17.48-.62.8-1.66 1.16-.79.27-1.82.73-2.29 1.01-.8.48-.87.48-1.03.06-.2-.51.33-1.02 1.7-1.6.47-.21.85-.5.85-.64 0-.4-.95-.3-1.31.13-.47.57-3.14 1.29-4.6 1.24-.7-.02-2.05.14-2.99.35-.94.22-2.36.4-3.14.4-1.16 0-1.49.1-1.72.53-.17.33-.55.53-1 .53-.94 0-1.9.27-1.9.53 0 .4.97.44 2.25.1 3.03-.84 5.94-1.41 6.34-1.26.6.24.35.71-.4.76-.36.02-1.18.13-1.82.25-.97.17-1.1.26-.7.48.26.14.96.2 1.56.11a95.13 95.13 0 0 0 9.23-1.59c1.2-.37 1.88-.22 1.2.26-1.2.84-2.18 1.14-4.13 1.27-1.6.1-2.36.28-2.9.67-.77.58-3.92 1.33-8.12 1.96-3.17.47-4.9 1.06-2.38.8a85.5 85.5 0 0 0 8.25-1.4 5.49 5.49 0 0 1 1.88-.1c.77.1 1.88-.15 4.31-.94 1.8-.58 3.86-1.15 4.57-1.25.72-.1 1.51-.4 1.78-.67.76-.76 2.5-1.5 4.83-2.07 3.7-.88 4.16-.92 4.31-.36.12.44.3.48 1.63.3.83-.1 1.9-.27 2.37-.37.94-.21 1.2.2.4.63-.5.26-4.98 1.1-5.9 1.1-.3 0-.52-.18-.52-.42 0-.33-.18-.38-.86-.25-1.83.37-5.01 1.54-5.44 2a4 4 0 0 1-2.5 1.05c-.56 0-1.52.69-1.52 1.1 0 .12.3.22.68.22.96 0 .67.65-.3.7-1.1.04-4.89 1.34-5.66 1.92l-.64.5 1.2-.13c2-.23 1.74.34-.5 1.1-2.94.98-5.25 2.15-4.7 2.36.8.3 1.76.17 2.4-.34 1.52-1.19 7.91-2.61 13.96-3.1 1.94-.16 2.07-.14 1.98.33-.06.34-.34.51-.88.54-1.16.08-7.16.85-8.94 1.16-.84.14-2.15.5-2.91.79-.76.28-1.55.52-1.76.52-.2 0-.65.26-.98.57-.56.52-.93.57-4.52.63-4.82.09-6.5.22-9.17.73a9.6 9.6 0 0 1-2.45.27c-.94-.36-11.2 2.39-11.2 3 0 .17-.62.38-1.4.48-.76.09-2.2.35-3.2.59-1.6.37-2.05.37-3.7.06-1.04-.2-1.95-.35-2.02-.33-.08.02-1.15.12-2.38.22-2 .18-2.2.15-1.9-.21.51-.62 3.39-.84 5.81-.45 1.55.26 2.2.26 2.62.04a9.08 9.08 0 0 1 2.37-.47c1-.09 1.93-.26 2.07-.37.48-.38 8.95-2.81 10.85-3.11 3.19-.5 7.6-1.16 9.53-1.4 2.9-.38 5.54-1.25 5.83-1.93.15-.33 1.18-1.04 2.5-1.72a64.82 64.82 0 0 0 3.08-1.65c.45-.28 1.19-.5 1.63-.5.6 0 .96-.21 1.38-.8.3-.44.47-.8.35-.79-.45 0-2.7.76-3.49 1.17-.52.27-1.5.41-2.81.41-1.1 0-2.93.18-4.05.4-5.38 1.05-7.66 1.32-8.1.95-.21-.18-.64-.19-1.23-.02a72.75 72.75 0 0 1-10.04 1.4c-4.79.22-13.48 2-17.07 3.5-3.1 1.3-6.35 1.51-6.16.42a1.3 1.3 0 0 0-.27-.9c-.4-.47-.86-3.58-.97-6.4-.03-1.03-.2-2.17-.35-2.56a17.6 17.6 0 0 1-.47-3.3c-.1-1.49-.4-3.22-.7-4.01-.75-2.03-.48-3.31 1.02-4.75.63-.62 1.16-1.3 1.16-1.53 0-.22.4-1.44.91-2.7.5-1.27.86-2.36.8-2.43-.14-.13-4.15 1.45-5.02 1.98-.3.18-1.96.88-3.7 1.57a73.3 73.3 0 0 0-3.96 1.64c-.43.23-1.32.54-1.98.7-1.12.28-1.21.37-1.37 1.32-.24 1.5-.24 19.67 0 25.18.11 2.63.34 5.02.51 5.33.3.54.5.57 5.53.61 6.57.07 25.8.08 41.88.03 11-.04 16.15.17 16.63.65.31.31 1.23-.03 1.11-.41zm55.28-2.21c0-.37.36-.43 2.36-.43 1.34 0 2.4-.12 2.45-.27.05-.14.92-.32 1.94-.4 1.02-.07 2.54-.2 3.37-.28 1.01-.11 1.53-.07 1.53.12 0 .33-.6.48-2.74.66-.84.07-1.72.28-1.94.47-.26.22-1.57.38-3.69.45-2.89.1-3.28.05-3.28-.32zm-.67-2.3c-.1-.16-.05-.42.1-.58.4-.39 9.32-.82 9.67-.47.14.14.2.3.15.37-.07.05-2.08.24-4.48.41-2.4.17-4.57.37-4.81.44-.24.07-.52 0-.63-.17zm5.44-1.93c0-.84 1.07-1.04 5.65-1.07 3.26-.02 4.51.06 4.6.29.14.43-.96.57-5.36.7-2.04.07-3.97.2-4.3.3-.45.15-.6.1-.6-.22zM9 120.43c-.27-.43.65-.9 2-1.03 1.05-.1 1.33-.05 1.24.22-.1.28-.91.56-3.04 1.03-.03 0-.12-.1-.2-.22zm6.33-1.88c-.31-.51.17-.8 1.34-.8.82 0 1.18.11 1.18.37 0 .55-2.2.93-2.52.43zm48.02-12.41c0-.3.7-.58.9-.36.32.31.15.6-.37.6-.29 0-.53-.11-.53-.24zm58.21-.94c0-.3.27-.41.95-.41 1.2 0 1.1.62-.1.74-.63.06-.85-.02-.85-.33zm-29.76-.15a4.1 4.1 0 0 0-1.26-.24c-.53-.02-.73-.16-.73-.52s-.25-.55-.91-.67c-.96-.18-1.34-.51-1.08-.93.2-.34 1.75.2 2.26.78.22.25 1.02.6 1.78.78.86.2 1.4.47 1.4.7 0 .4-.65.45-1.46.1zm-17.6-.92c0-.52 2.62-1.85 2.97-1.51.16.16-.27.55-1.2 1.08-1.64.94-1.77.97-1.77.43zm72.9 23.14c.58-.14 6.35-.32 12.83-.4 6.47-.07 12.19-.22 12.7-.33 1.24-.28 1.64-1.1 1.49-3.06a4.8 4.8 0 0 0-.4-1.82c-.14-.15-1.07-.22-2.1-.16-1.58.09-1.91.2-2.46.81l-.63.71-3.06-.29c-1.9-.17-4.17-.2-5.96-.07-2.76.2-2.83.22-1.59.44.72.13 1.63.47 2.03.75.4.29.85.52 1.01.52.16 0 .29.18.29.4 0 .63-1.9.52-2.32-.14-.18-.29-.53-.53-.77-.53-.25 0-.84-.14-1.31-.31-.71-.26-1.4-.22-3.73.18a67.4 67.4 0 0 1-4.83.65c-1.1.08-2.25.3-2.57.48-.32.18-.91.33-1.32.33-.73.01-2.4 1.2-2.11 1.5.53.53 3.24.72 4.8.34zm-61.05-.81c.24-.35.67-.5 1.37-.5.8 0 1.04-.12 1.15-.56.13-.47.06-.53-.43-.38-1.63.51-1.86.5-1.71-.05.13-.49.07-.5-.63-.24-.6.23-.82.21-1-.06-.14-.23-.42-.3-.8-.17-.47.15-.57.1-.5-.3.13-.63 1.5-1.14 1.79-.67.15.24.38.26.92.05.93-.35.96-.35.96.13 0 .49.43.5 1.75.04 1.05-.37 1.8-.32 1.54.11-.22.36.45.28 1.2-.15.73-.42 2.39-.54 2.39-.17 0 .13-.54.37-1.2.54-.65.16-1.19.4-1.19.54 0 .13-.44.38-.99.56-1.07.35-2.2 1.02-1.78 1.07.14.01.51 0 .82-.02.31-.02.63.15.72.37.12.31.53.4 1.69.39l1.53-.03-1.04-.32c-2.09-.65-1.3-1.28 1.5-1.21.91.02 2.22-.07 2.91-.2.95-.19 1.26-.17 1.26.07 0 .18-.27.4-.6.5-.57.18-.57.2-.06.4.3.12.72.08.99-.08.53-.33.62-1.13.15-1.28-.45-.15-.01-.73.8-1.03.55-.21.75-.18 1.01.18.27.37.46.4 1.18.14 1.21-.42 1.25-.17.14.94-.92.93-1.2 1.42-.77 1.4.11 0 .73-.47 1.38-1.05a6.54 6.54 0 0 1 1.4-1.05c.44 0 .16.74-.46 1.21-.75.57-.85.9-.26.9.22 0 .54-.3.7-.66.17-.36.48-.66.69-.66.27 0 .33.18.21.66-.16.65.19.92.51.4.25-.4.66-.32.66.13 0 .58.44.49.91-.19.92-1.3.36-2.73-1.44-3.65-.36-.2-1.1-.7-1.65-1.14-.77-.62-1-.98-1-1.63 0-.47-.23-1.08-.53-1.4-.67-.72-.77-.73-.6-.06.12.44.01.53-.58.53-.6 0-.7-.1-.59-.53.12-.43.01-.53-.57-.53-.39 0-.94.17-1.23.36-.33.23-1.21.36-2.38.35-1.56-.02-2 .08-2.7.6-.74.55-.95.6-1.55.32-.38-.17-2.34-.4-4.36-.48-3.07-.14-3.9-.1-5.13.3-.8.25-1.53.56-1.61.69-.08.12-1.13.69-2.33 1.25-2.19 1.03-2.2 1.04-2.64 2.46a7.1 7.1 0 0 1-1.26 2.29c-1.37 1.47-1.72 1.1-1.14-1.2.36-1.44.36-1.68 0-2.4-.32-.6-.66-.83-1.47-.96-.58-.1-1.18-.1-1.33 0-.63.38-1.01 1.92-.84 3.34.16 1.33.22 1.42.95 1.5.43.05 1.03.3 1.34.54.5.38 1.3.42 7.02.34 6-.08 6.48-.12 6.81-.6zm11.17-3.02c0-.25-.22-.37-.6-.33-.96.1-.7-.64.37-1 .91-.32 1-.3 1.56.34.57.65.57.7.11 1.03-.64.48-1.44.45-1.44-.04zm-8.36-.7c-.26-.43.2-.75 1.08-.75.49 0 .93.12.97.26.06.17.4.18.95.02.87-.25 1.41.03.8.42-.46.29-3.62.33-3.8.05zm-1.96-.6c0-.25.23-.42.55-.42.65 0 .56.62-.1.75-.27.05-.45-.09-.45-.33zm.97-1.39c-.37-.37-.14-.6.73-.76 1.17-.22 2.54.08 2.54.56 0 .28-.4.38-1.55.38a5.2 5.2 0 0 1-1.72-.18zm57.05 3.44a1.52 1.52 0 0 0-.8 0c-.25.06-.1.12.33.13.44 0 .65-.05.47-.13zm-32.4-2.25c.47-.4.84-.91.84-1.15 0-.24.23-.5.51-.58.38-.1.46-.25.3-.57-.12-.24-.35-.73-.51-1.1-.17-.36-.41-.83-.55-1.05-.15-.22-.52-1.02-.83-1.77-.73-1.79-1.42-2.06-3.35-1.35-2.52.93-2.96.52-2.05-1.9.7-1.9-.02-5.67-1.42-7.4-.45-.57-.6-.61-1.16-.36-1.7.77-2.56 5.12-1.68 8.48.33 1.27.37 1.79.14 2.2-.34.65 0 1.74.99 3.07.34.47.61 1.02.61 1.23 0 .22.57.87 1.27 1.45a4.38 4.38 0 0 0 2.77 1.25c1.06.13 1.52.1 1.52-.1 0-.17-.12-.3-.26-.3-.15 0-.27-.18-.27-.39 0-.37 1.47-.93 2.45-.94.7 0 .57.93-.2 1.43-.36.24-.66.56-.66.7 0 .34.43.1 1.55-.85zm-5.05-.64c-.09-.09-.1-.33-.02-.53.1-.25-.04-.37-.41-.37-.7 0-.72-.43-.02-.8.64-.34 1.14-.1.93.46-.16.4.15.4 1.24-.06.73-.3.58.53-.19 1.03-.67.44-1.26.54-1.53.27zm2.32-2.89-.8-.65.53-1c.6-1.1 1.24-1.37 1.77-.72.2.24.62.71.95 1.04.32.33.6.78.6 1 0 .22-.28.47-.6.55-.33.07-.84.2-1.13.29-.34.1-.81-.08-1.32-.5zm1.19-1.05c0-.22-.12-.4-.27-.4-.14 0-.26.18-.26.4 0 .21.12.4.26.4.15 0 .27-.19.27-.4zm-6.62-3.98c-.48-.58-.53-5.19-.06-5.35.22-.07.33.17.33.71 0 .46.18 1.11.41 1.46.28.42.39 1.09.33 2.02-.08 1.47-.43 1.86-1.01 1.16zm40.86 3.17c.35-.23.78-.76.95-1.2.36-.85 1.2-1.11.94-.28-.1.27-.04.8.1 1.2.22.57.43.69 1.25.69 1.59 0 4.59-1.65 4.59-2.53 0-.17-.18-.47-.4-.65-.22-.18-.4-.53-.4-.79 0-.33-.28-.5-.99-.62-1.52-.26-2.18-.2-2.18.16 0 .45-1.94 1.52-2.75 1.52-.36 0-.73.12-.82.26-.26.42-.85.31-1.04-.17-.1-.25-.03-.57.14-.73.22-.2.34-.2.42.04.2.55.54.38.72-.35.12-.46.3-.64.56-.54.3.11.39-.07.39-.77 0-.5.12-.92.26-.92.15 0 .27.37.27.82 0 1.01.62.92.74-.11.07-.6.18-.68.7-.55.47.12.66.02.8-.39.1-.33.31-.48.55-.39.29.12.38-.08.38-.8 0-.65.15-1.02.5-1.2.28-.16.63-.64.78-1.08.25-.7.22-.8-.2-.8-.7 0-.84-1.11-.42-3.3.19-1.02.3-1.94.22-2.05-.06-.11.07-.28.3-.36.22-.1.4-.45.4-.81 0-.54-.09-.62-.53-.48-.37.12-.69-.02-1.05-.45-.28-.34-.51-.5-.52-.37 0 .13.18.45.4.7.5.54.55 2.47.14 4.3-.16.7-.22 1.87-.12 2.58.15 1.12.1 1.3-.28 1.3-.28 0-.42-.17-.37-.46.04-.25 0-.6-.11-.76-.1-.17 0-1.34.24-2.6.47-2.54.25-3.91-.74-4.81-.6-.54-.64-1.16-.07-1.16.66 0 .32-.51-.7-1.05a14.68 14.68 0 0 0-4.14-1.33c-.26 0-1.13-.54-1.93-1.2a8.27 8.27 0 0 0-2.12-1.35 3.54 3.54 0 0 1-1.27-.72 1.73 1.73 0 0 0-1.26-.48c-.5.07-.64-.03-.64-.47 0-.3-.16-.62-.35-.7-.4-.14-2.68.77-2.94 1.19-.19.3.72.59 1.56.49.33-.04.56.12.62.44.1.53-.02.65-2.55 2.57-1.18.9-1.35 1.13-1.07 1.47.25.3.26.51.04.87a8.61 8.61 0 0 0-.49 2.36c-.15 1.59-.11 1.98.27 2.4.34.37.4.73.26 1.5-.1.57-.32 1.1-.47 1.2-.15.1-.32.52-.37.93-.14 1.13-1.44 3.08-2.19 3.29-.36.1-.46.2-.22.2.24.02.5.21.59.43.22.6 1.45.48 2.2-.2 1.55-1.4 2.46-2.34 2.46-2.53 0-.47.84-1.33 1.18-1.2.2.07.45.63.55 1.24.1.6.3 1.24.42 1.4.31.39.02 1.16-.44 1.16-.3 0-.28.18.04.95.43 1.03.14 1.8-.57 1.52-.21-.08-.46.06-.55.31-.27.69 1.56 2.1 3.6 2.8.95.31 1.96.74 2.25.94.28.2.88.36 1.32.36.44 0 .98.12 1.2.26.57.38 1.25.33 1.96-.14zm-1.85-2.36c-.19-1.03 0-1.46.43-1.03.4.4.44 1.74.07 1.87-.2.07-.39-.27-.5-.84zm-1.57-.4c.1-.15-.02-.27-.25-.27-.52 0-.53-.63-.01-1.06.37-.3.52-.18.41.38-.02.13.14.08.37-.1.62-.52.8-.13.3.64-.4.61-1.19 1-.82.4zm3.44-2.44c-.08-.2-.01-.94.15-1.67l.48-2.38c.1-.58.32-1.28.47-1.55.23-.41.3-.3.44.7.13.95.03 1.46-.5 2.56-.36.76-.6 1.6-.5 1.86.17.56-.34 1.01-.54.48zm-1.6-1.5c.1-.28.25-1.02.36-1.64.1-.62.32-1.18.48-1.23.48-.16.62.95.23 1.73-.2.39-.43.92-.5 1.17-.08.26-.27.46-.43.46-.17 0-.22-.21-.13-.5zm4.91 0c0-.45.76-1.36 1.14-1.36.38 0 .16 1-.3 1.42-.63.56-.84.55-.84-.05zm-8.42-.2c.1-.52.9-1.08 1.17-.82.21.21-.63 1.25-1.01 1.25-.14 0-.2-.2-.16-.44zm6.71-.08c-.26-.42.96-1.93 1.3-1.6.19.2.15.49-.12.97-.44.78-.92 1.04-1.18.63zm-4.11-1.6c0-.3-.1-.54-.22-.54-.23 0-.84-1.15-.84-1.6 0-.45.75-.26.87.21.09.35.2.25.44-.4.33-.86.8-1.16.8-.5 0 .84-.62 3.35-.82 3.35-.13 0-.23-.24-.23-.53zm-1.94-2.04c-.26-.26-.21-1.67.06-1.67.29 0 .56.65.56 1.34 0 .51-.3.67-.62.33zm-1.77-1.8c0-.93.1-1.2.43-1.2.35 0 .4.18.27.83-.1.46-.17 1-.17 1.2 0 .2-.12.36-.26.36-.15 0-.27-.54-.27-1.2zm8.61-.33c.1-.26.18-.74.16-1.06-.02-.37.12-.6.37-.6.24 0 .39.25.39.64 0 .93-.27 1.48-.72 1.48-.27 0-.34-.14-.2-.46zm-9.83-.45c-.2-.56.11-1.76.62-2.33.61-.68.93-.28.47.6-.22.42-.4 1-.4 1.29 0 .67-.48.98-.69.44zm7.1-.99c.11-1.96.74-2.05.74-.1 0 1.15-.09 1.47-.41 1.47-.33 0-.4-.27-.33-1.37zm-8.26-.76c0-.54.78-2.1 1.05-2.1.37 0 .35.29-.12 1.42-.38.9-.93 1.3-.93.68zm11.85-.14c-.28-.46-.34-2.36-.07-2.45.41-.13.78 1.47.48 2.13-.14.31-.33.46-.4.32zm-6.36-4.2c-.29-.4-.36-.7-.19-.81.15-.1.24-.36.2-.58-.12-.67.5-.69 1.16-.03.54.54.56.62.15.7-.34.06-.42.25-.3.73.22.85-.4.84-1.02-.02zm-120.47 18.6c.87-.4.62-.75-.52-.75-.71 0-.91-.11-.91-.5 0-.26.23-.7.53-.96.62-.56.7-1.86.13-2.08-.66-.25-.45-.7.33-.7.88 0 2.91-.98 3.55-1.72.63-.73 1.48-3.7 1.52-5.29.04-1.72.61-3.9 1.07-4.05.29-.1.31.13.14 1.17-.12.71-.23 2.07-.25 3.01-.03.95-.14 2.24-.25 2.88l-.22 1.15 1.03-.12a6.86 6.86 0 0 0 1.48-.32c.86-.38.5.5-.47 1.12-.78.5-.89.68-.66 1.1.14.28.65.58 1.13.67.47.1 1.42.37 2.12.6 1.8.62 2.1.22 1.02-1.38a6.35 6.35 0 0 1-.83-1.48c0-.14.31-.72.69-1.29.74-1.13 2.49-7.15 2.49-8.6 0-.49-.18-1.81-.4-2.94-.3-1.63-.33-2.77-.14-5.7.28-4.1.1-8.18-.36-8.17-.44.02-2.12 2.42-2.08 2.98.02.28-.22.58-.58.71-.9.34-1.04.74-.42 1.12.78.49.7 1.06-.12.85-.57-.14-.66-.08-.67.46 0 .34-.3 1.87-.65 3.39-.62 2.66-.7 2.82-1.98 4.07-.96.94-1.26 1.4-1.07 1.62.14.18.18.4.09.5-.31.3-.62.18-.62-.26 0-.33-.16-.38-.72-.24-.4.1-1.61.28-2.69.38-1.8.17-2.01.26-2.72 1.1-.42.5-1.18 1.33-1.69 1.84-.99 1-1.3 2.64-.51 2.64.48 0 .49.11.08 1.24-.28.77-.26.92.17 1.24.3.21.43.52.33.78-.1.27.16.87.69 1.56 1.24 1.66.94 3.35-.39 2.16-.44-.4-.49-.4-.64 0-.1.24-.1.7-.02 1.03.2.82.39 1.74.57 2.9.09.54.46 1.34.83 1.78.72.86 1.48 1 2.6.5zm-1.26-7.54c-.28-.28-.2-1.68.1-1.68.14 0 .26.15.26.33 0 .18.07.6.16.93.15.56-.14.8-.52.42zm1.01-.64c-.2-.63-.03-.91.39-.65.34.21.37 1.2.03 1.2-.13 0-.32-.25-.42-.55zm1.38.35c-.3-.5-.45-1.88-.24-2.02.2-.12.85 1.45.85 2.05 0 .23-.47.21-.61-.03zm.88-2.18c0-.44.12-.8.26-.8.15 0 .27.36.27.8 0 .43-.12.79-.27.79-.14 0-.26-.36-.26-.8zm-4.5-.4c0-.62.63-1.18.95-.86.18.18-.46 1.52-.73 1.52-.12 0-.22-.3-.22-.67zm-.47-2.03c.06-.2.33-.4.59-.44.3-.06.43.03.35.26-.07.2-.33.4-.59.45-.3.06-.43-.04-.35-.27zm9.2-7.23c0-.4.11-.62.26-.53.15.09.27.33.27.53s-.12.44-.27.53c-.15.1-.26-.14-.26-.53zM28.97 95c0-.44.12-.8.26-.8.15 0 .27.29.27.64 0 .36-.12.72-.27.81-.15.1-.26-.17-.26-.65zm.72-2.12c-.08-.3-.03-.6.11-.7.32-.2.42-.1.53.53.13.69-.47.85-.64.17zm.52-2.76c-.09-.22-.05-.47.07-.55.35-.22.64.4.34.7-.17.17-.31.12-.41-.15zm.17-1.63c-.21-.55.15-.86.45-.37.32.5.32.78-.02.78-.15 0-.34-.18-.43-.4zm138.82 25.9a4.58 4.58 0 0 0 1.82-.65c.63-.5 1.64-.45 2.34.1.18.14.5.19.73.1.33-.12.4-.8.4-3.86 0-2.3-.1-3.71-.27-3.71-.14 0-.26.1-.26.22 0 .28-2.72 1.22-4.76 1.65-.8.17-1.57.47-1.72.67-.15.2-.74.46-1.33.58l-1.05.23.86.2c.88.2 2.7-.32 3.98-1.13.43-.27.69-.3.89-.1.33.33.07.85-.43.85-.19 0-.5.18-.67.4-.27.31-.25.42.1.55.6.23.53.64-.1.64-.3 0-.53-.18-.53-.4 0-.5-.48-.5-1.75.03-.8.33-1.47.39-3.05.25-1.33-.12-2.1-.08-2.2.1-.1.16-.52.28-.94.28-.42 0-.83.11-.92.25-.17.28 6.96.18 8.13-.12.74-.19 2.48.32 2.17.64-.19.18-2.34.33-4.92.33-1.68 0-1.75.03-1.75.66s.07.66 1.42.6c1.63-.08 2.05.16 1.3.74-.5.38-.48.4.4.23.5-.1 1.45-.25 2.1-.34zM26 113.51c.28 0 .92-.29 1.44-.64.51-.34 1.2-.72 1.53-.82.5-.16.39-.25-.8-.66-1.46-.49-1.85-.85-1.85-1.7 0-.46-.08-.44-.75.2-.4.39-.86.7-1 .7-.52 0-2.23 1.8-2.23 2.35 0 .3.26.79.57 1.08.56.52.57.52 1.58 0a4.69 4.69 0 0 1 1.51-.51zm75.42-.6c-.14-.47-.29-1.69-.33-2.7-.07-1.8-.68-3.58-1.23-3.58-.5 0-1.1 1.95-.93 3.03.23 1.46 1.1 3.32 1.55 3.32.2 0 .53.18.7.4.49.58.53.5.24-.47zm59.17.35c.89-.18.93-.22.26-.22-.43 0-1.15.1-1.58.2-1.1.28-.02.3 1.32.02zm-124.75-1.84c0-.24-.62-.56-1.08-.56-.14 0-.25.18-.25.4 0 .25.25.4.67.4.36 0 .66-.1.66-.24zm116.14-1.07c.15-.28.27-.77.27-1.1 0-.57-.01-.57-.53-.1-.54.48-.73 1.71-.27 1.71.14 0 .38-.23.53-.5zm-114.55-.8c-.34-.63-.11-1.16.9-2.1 1.08-1.02.79-3.47-.42-3.47-.71 0-1.8-.97-1.8-1.61 0-.26-.13-.54-.27-.63-.16-.1-.27.24-.28.84a10.37 10.37 0 0 1-1.38 4.34c-.32.47-.41.94-.3 1.5.14.7.35.88 1.52 1.26.75.24 1.54.54 1.76.66.51.3.64-.1.27-.78zm18.76-.13c1.95-.37 3.61-.74 3.68-.8.27-.27-1.11-.13-2.65.27-.9.23-2.92.43-4.72.46-2.7.05-3.22.13-3.62.55-.46.49-.42.5 1.64.34 1.17-.08 3.72-.45 5.67-.82zm-15.04-.82c.43-.22.73-.5.65-.63-.3-.49-1.48-.45-2.32.07l-.86.55.79.18.87.21c.05.02.44-.15.87-.38zm11.62-1.3c0-.43-.26-.8-.79-1.1a3.62 3.62 0 0 1-1.2-1.34c-.25-.52-.61-.88-.9-.88-.6 0-1.11-.57-.86-.96.1-.16.44-.37.75-.47.32-.1.72-.56.9-1.02.24-.64.35-.74.44-.39.23.93 1.66.17 1.66-.88 0-.29.14-.74.32-1.02.24-.4.24-.66 0-1.2-.46-1-.4-1.24.28-1.15.5.07.6-.06.67-.76a2.88 2.88 0 0 0-.19-1.37c-.2-.38-.18-.59.12-.83.5-.42.5-1.17 0-1.59-.34-.28-.4-.22-.4.37 0 .38-.12.7-.25.7-.3 0-.64-.98-.44-1.3.08-.12-.16-.5-.51-.83a2.03 2.03 0 0 1-.66-1.34c0-1.02-.25-1.56-.65-1.4-.21.08-.43-.25-.6-.95-.23-.87-.21-1.07.09-1.07.2 0 .37.18.37.4 0 .22.12.4.26.4.35 0 .34-.16-.1-1.01-.62-1.22-.8-2.43-.34-2.43.3 0 .42-.65.58-3.18.17-2.9.14-3.27-.37-4.36-.72-1.52-.73-2.25-.04-2.25.5 0 .49-.07-.17-1.15a4.24 4.24 0 0 0-1.23-1.39c-.3-.13-.59-.4-.65-.57-.15-.48.72-.41.9.06.26.68.67.44.58-.33-.1-.9-.93-1.03-2.4-.4-1.2.5-1.63.22-.74-.5l.65-.52-1.05.08c-1.01.08-1.04.1-.96 1.01.04.51.1 1.74.13 2.72.06 2.01.28 2.3 1.79 2.3 1.41.01 1.65.4 1 1.7-.3.6-.89 1.36-1.31 1.7-.42.34-.76.85-.76 1.14 0 .63-.4 1.42-1.02 2.04-.55.55-1.31 5.66-.86 5.81.36.12.38 1.38.02 1.38-.14 0-.26-.18-.26-.4 0-.22-.1-.4-.24-.4-.47 0-.56.89-.24 2.4.31 1.54.15 2.32-.33 1.56a2.57 2.57 0 0 1-.25-1.11c0-.4-.1-.73-.23-.73-.4 0-1.12 1.28-.83 1.46.15.09.27.64.27 1.22 0 .64-.1 1-.27.9-.14-.1-.26-.46-.26-.82 0-.4-.16-.64-.4-.64-.24 0-.4.24-.4.64 0 .86-.26 1.5-.55 1.32-.13-.08-.24-.48-.24-.9 0-.66-.07-.73-.63-.58-.34.1-.94.56-1.33 1.02-.4.47-.91.92-1.16 1-.57.18-1.65 2.04-1.65 2.84-.02 1.24.35 2.4.79 2.51.27.07.54.55.7 1.2.21.95.37 1.12 1.43 1.5 1.15.43 1.2.48 1.32 1.72.13 1.2.19 1.3 1.16 1.63.57.2 1.14.5 1.27.7.17.26.38.17.9-.42.56-.63.65-.93.5-1.75-.14-.86-.01-1.22 1.05-2.86a15.44 15.44 0 0 1 1.46-2.02c.45-.29.56.36.2 1.23-.39.91-.2 2.04.47 2.86.17.22.4.62.5.89.12.35.3.43.63.28.5-.23 2.15-.23 2.37 0 .32.31-.23.95-.83.95-.72 0-1.01.27-.73.69.24.36 1.83.83 2.9.87.73.02.85-.07.85-.62zm-14.02-6.5c0-.43.12-.78.26-.78.15 0 .27.08.27.2 0 .1.08.46.16.79.12.44.05.6-.26.6-.3 0-.43-.25-.43-.8zm-1.01-.9c.04-.57.24-1.09.44-1.15.28-.1.32.08.17.77-.28 1.35-.71 1.62-.61.38zm13.97-.02c0-.36.12-.66.27-.66.14 0 .26.3.26.66 0 .37-.12.66-.26.66-.15 0-.27-.3-.27-.66zm-15-2.15c.1-.52.23-1.02.3-1.1.32-.32.47.24.3 1.12-.24 1.27-.8 1.25-.6-.02zm13.32-4.2c-.1-.24 0-.4.24-.4a.4.4 0 0 1 .38.4c0 .22-.1.4-.23.4s-.3-.18-.4-.4zm.24-2.6-.27-.83c-.06-.21 0-.46.14-.54.37-.23.87 1.21.53 1.55-.18.17-.31.12-.4-.18zm-.76-7.22c-.27-.28-.22-3 .07-3 .35 0 .64 2.24.36 2.75-.13.24-.32.35-.43.25zm.87-4.62c-.29-1.09-.18-1.61.24-1.15.35.38.57 1.93.3 2.1-.13.08-.37-.34-.54-.95zm117.76 27.38c.88-.67 1.54-1.29 1.47-1.36-.08-.08-.83.37-1.67 1-2.05 1.54-2.09 1.58-1.72 1.58a8.4 8.4 0 0 0 1.92-1.22zm-2.26.03c1.49-.86 4.1-2.83 4.1-3.09 0-.4-.4-.23-2.4 1-1.08.68-2.68 1.64-3.55 2.14l-1.59.9 1.2-.17a7.6 7.6 0 0 0 2.24-.78zm-9.79.4c.2-.34-.4-.34-.93 0-.32.2-.28.25.19.26.32 0 .65-.12.74-.27zm-109.74-.17c.84-.23.75-.74-.32-1.89l-.92-.99v1.35c-.01 1.7.1 1.84 1.24 1.53zm116.68-.78c.65-.38 1.1-.75 1.03-.83-.14-.14-2.55 1.17-2.55 1.39 0 .24.38.1 1.52-.56zm-6.8-.11c0-.26-.83-.48-1.26-.34-.71.24-.33.77.46.66.44-.07.8-.21.8-.32zm-3.19-.85c.01-.83-.56-3.12-.78-3.12-.38 0-.46 2.16-.08 2.3.19.08.34.56.34 1.1 0 .72.07.86.26.57.14-.22.26-.6.26-.85zm9.64-.28c1.34-.86 1.17-1.07-.24-.29-.65.37-1.19.72-1.19.78 0 .26.56.07 1.43-.49zm-7.12-.2c.1-.14.04-.26-.12-.26-.15 0-.28.12-.28.26 0 .15.06.27.12.27.07 0 .2-.12.28-.27zm11.8-1.18a19.28 19.28 0 0 1 2.8-1.48c.6-.2.88-.45.88-.82 0-.52 0-.52-.7.02-.38.3-.8.55-.93.55-.35 0-3.88 2.14-4.23 2.56-.55.67.23.37 2.17-.83zm-4.95-.03c1.28-.72 1.64-1.25.63-.94-.64.2-2.58 1.34-2.58 1.52 0 .29.85.03 1.95-.58zm-.7-1.52a8.93 8.93 0 0 0 1.8-1.44c-.05-.05-.38.07-.72.28a71.74 71.74 0 0 0-4.19 2.71c0 .31 1.52-.45 3.11-1.55zm-92.7.88c.23-.26.02-.3-.98-.2-1.7.19-2.13.63-.55.57.67-.03 1.35-.2 1.52-.37zm-15.29-.11c.3-.2 1.27-.62 2.15-.92.89-.3 2.2-.86 2.9-1.25 3.29-1.82 4.16-2.23 5.53-2.63.81-.24 1.54-.37 1.61-.3.33.34 7.45-2.31 8.84-3.28a5.2 5.2 0 0 1 1.32-.64c.35-.1 1.54-.92 2.63-1.82 1.57-1.3 2.2-2.06 3.04-3.62.68-1.25 1.3-2.06 1.71-2.23.36-.15 1.25-.6 1.98-1 3.84-2.11 8.3-4.16 9.06-4.16.47 0 1.77-.34 2.91-.76a49.42 49.42 0 0 1 4.45-1.35c3.1-.76 5.56-2.1 5.94-3.26.48-1.45 2.35-3.25 4.51-4.31 1.1-.54 2.06-1.1 2.16-1.25.1-.14-.23-.47-.73-.72-1.18-.6-2.21-1.6-2.22-2.15 0-.73 1.83-2.7 2.87-3.05 1.21-.43 1.18-.43 1 .07-.1.26-.05.38.14.32.18-.06.44-.46.6-.89.16-.42.51-1.11.79-1.52l.5-.75-.76-.63c-.43-.35-.91-.64-1.08-.64-.72-.02-3.02-.92-3.36-1.3-.32-.37-.32-.62 0-1.75.2-.73.54-2.45.75-3.82.23-1.55.52-2.58.75-2.7.2-.12.52-.57.7-1 .23-.56.76-1 1.87-1.53.86-.4 1.56-.86 1.56-1 0-.15-.28-.75-.64-1.33-.36-.58-.78-1.36-.95-1.72-.17-.36-.47-.98-.67-1.36-.48-.93-.46-2.1.07-3.99.34-1.23.56-1.57 1.07-1.7.36-.09.75-.44.89-.79.4-1.06 1.88-.86 3.62.48 3.03 2.34 5.2 6.2 5.53 9.84.11 1.22.35 2.1.66 2.52.27.34.5.79.5.99 0 .2.11.36.26.36.48 0 2.6 2.46 2.74 3.18.1.54.39.78 1.28 1.05 1.54.5 2.63.5 2.8 0 .07-.22.53-1.05 1.02-1.85.48-.8 1.12-2.16 1.41-3.02.3-.87.78-1.98 1.07-2.47.29-.49.52-1.1.52-1.35s.15-.6.32-.77c.77-.78-.08-.43-1.9.76-1.08.72-2.08 1.26-2.23 1.22-.66-.23-.3-.84 1.55-2.73 1.1-1.12 2-2.08 2-2.13 0-.05-.24-.1-.53-.1-.29 0-.53-.1-.53-.23 0-.35 1.61-2.32 3.23-3.95.77-.77 1.14-1.28.82-1.12-.87.43-1.2.35-1-.25.1-.32.04-.53-.15-.53s-.26-.22-.17-.54c.13-.52.04-.55-1.95-.5-1.16.04-2.07-.04-2.03-.18.09-.33 10.27-.19 10.6.15.2.2-.06.28-.81.28-2.46 0-1.15 1 2.05 1.57 2.43.43 4.09 1.01 4.64 1.62.55.6.3 1.02-.36.6-.33-.21-.62-.2-1.11.04-.36.18-1.83.4-3.26.5-3.09.19-3.3-.15-.7-1.04 1.69-.58 1.7-.59.97-.88a4.44 4.44 0 0 0-1.34-.3 4.8 4.8 0 0 1-1.62-.52c-1.18-.6-1.99-.69-1.99-.2 0 .17-.91 1.24-2.03 2.36-1.12 1.13-1.98 2.12-1.9 2.2.08.08.7-.17 1.38-.55 1.25-.7 2.02-.7 2.02-.02 0 .2-.32.51-.72.68-.4.17-1.03.54-1.4.83l-.65.53.7-.16c1.12-.26 1.07.25-.1 1.16-1.43 1.1-1.17 1.06 1.32-.18 4.2-2.08 6.13-2.6 5.72-1.51-.08.21-.41.47-.72.56-1.65.5-3.09 1.28-3.1 1.67 0 .25-.83.92-2.03 1.62-2.9 1.71-4.3 3.78-1.5 2.22 1.3-.72 1.55-.85 2.75-1.4a26.7 26.7 0 0 0 3.28-2.82c1.82-1.74 2.71-2.43 2.9-2.24.2.2-.2.75-1.25 1.83-1.43 1.44-1.5 1.56-.94 1.7.84.22.39.68-2.14 2.16-1.13.67-2.6 1.69-3.26 2.27a7.94 7.94 0 0 1-1.35 1.04c-.34 0-2.44 1.67-3.02 2.4-.75.96-1.24 3.83-.82 4.91.3.79.68.61.82-.37.15-1.04.61-.78.7.4.06.83.17 1.07.46.96.24-.1.38.01.38.27 0 .27.15.36.43.25.38-.15.4.05.22 1.8-.21 1.93-.2 4.2.03 4.44.31.3.44-.45.58-3.4.11-2.43.23-3.19.5-3.19.24 0 .38.38.4 1.13.04.97.06 1 .15.26.06-.5.32-.97.62-1.13.43-.23.51-.57.51-1.96 0-1.42-.07-1.7-.49-1.8-.38-.1-.54-.49-.68-1.62a4.97 4.97 0 0 0-.3-1.5c-.08 0-.56.19-1.1.4-.97.42-1.71.2-1.07-.32.86-.7 4.98-2.74 5.22-2.6.47.3.3.65-.52 1.07-.67.35-.79.57-.79 1.4 0 1.27.39 1.94.62 1.07.1-.34.17-.94.17-1.34 0-.4.1-.73.24-.73.4 0 .56.78.39 1.87-.14.85-.09 1.04.26 1.04.24 0 .44.15.44.34 0 1.25-.89 6.68-1.22 7.48-.47 1.12-.44 1.19.36.89.5-.2.6-.43.6-1.42 0-.66.1-1.7.25-2.33.14-.62.4-1.87.56-2.78.3-1.58.59-2.04.84-1.32.08.24.28.19.69-.18.9-.8 1-.24.21 1.18-.4.71-.8 1.87-.88 2.56-.14 1.22-.11 1.28.68 1.62 1.12.48 1.45.3 1.84-1 .27-.91.43-1.1.91-1.02.86.12.9 1.31.1 2.39-.36.48-.93 1.4-1.28 2.05-1.06 2-1.56 2.63-1.96 2.47-.43-.16-.54.58-.13.83.37.23.01 2.77-.54 3.89-.42.82-.5 1.86-.62 7.2-.1 4.76-.23 6.45-.54 7.2-.28.66-.4 1.85-.4 3.78 0 2.34-.1 2.96-.53 3.68-.61 1-.67 1.38-.2 1.38.4 0 2.05-1.83 2.05-2.3 0-.19.2-.34.43-.34.31 0 .4.17.3.66-.09.44.01.75.28.9.36.2.36.3.06.67a.81.81 0 0 1-.84.27c-.37-.12-.5-.03-.5.35 0 .35.3.6 1.02.8a3.9 3.9 0 0 1 1.5.84c.78.86 1.01.65.8-.72-.2-1.3-.23-2.48-.09-3.33.06-.36-.23-.6-1.19-.97-1.98-.77-2.08-.9-1.9-2.75.23-2.23.93-5.46 1.2-5.46.11 0 .49-.23.83-.53.33-.3.85-.7 1.13-.9.52-.36.52-.38-.1-2.8-.57-2.17-.6-2.6-.32-3.66.4-1.49.72-1.9 1.49-1.9.7 0 1.15.48 1.43 1.51.25.96 1.43 1.08 1.56.16.1-.64 1.46-1.93 2.04-1.93.64 0 1.16.79 1.73 2.6.7 2.27.89 3.88.59 5.2-.15.66-.13 2.14.04 3.9.28 2.84.28 2.85 1.21 3.48.51.35 1.1.93 1.29 1.3.2.36.65.8 1 .95.83.38.9.37.72-.08-.18-.47.37-1.54.7-1.34.13.08.16.35.08.6-.1.3-.07.36.09.2.24-.26 1.17-3.14 1.52-4.7.1-.42.05-.73-.1-.73-.14 0-.34.33-.44.73-.1.4-.28.86-.4 1.02-.14.17-.4.83-.58 1.46-.2.7-.5 1.18-.78 1.24-.5.1-.64-.71-.21-1.16.56-.57 2.1-4.88 2.36-6.58.24-1.55.7-2.5 1.04-2.15.05.05-.05.83-.22 1.72-.23 1.17-.24 1.71-.04 1.92.16.16.24.86.17 1.64l-.11 1.35.52-1.59c.29-.87.53-1.8.53-2.05 0-.25.18-.46.4-.46.23 0 .4.24.4.6 0 .47.05.51.26.2.14-.23.26-.67.26-1 0-.33.14-.6.3-.6.18 0 .24.33.17.86a94.44 94.44 0 0 1-1.68 7.18c-.14.37-.09.47.17.38.43-.14.72-1.02.76-2.33.04-1.07.92-3.18 1.33-3.18.15 0 .29.57.3 1.26.02 1.2.03 1.22.28.46.15-.43.36-1.03.48-1.32.12-.29.41-1.07.65-1.74.24-.67.61-1.44.84-1.72.38-.48.4-.47.29.29-.07.43-.38 1.44-.7 2.24-.81 2.04-.88 2.32-.7 2.8.14.36.22.36.52.06a6.66 6.66 0 0 0 1.35-2.79c.1-.47.3-.86.43-.86.32 0 .31 1.76 0 2.36-.27.48.4 2.4.83 2.4.11 0 .2.21.21.47.01.62 1.37 3.04 1.78 3.18.49.15.41-.87-.1-1.29a7.2 7.2 0 0 1-1.09-1.82c-.55-1.22-.68-1.94-.75-4.33-.08-2.65-.14-2.94-.8-3.84-.4-.53-.81-1.02-.9-1.1-.1-.07-.5-.69-.89-1.36a8.2 8.2 0 0 0-1.1-1.55c-.2-.17-.45-.75-.55-1.28a5.14 5.14 0 0 0-.55-1.54c-.53-.81-.36-3.51.24-3.89.35-.22.63-.15 1.25.3.43.33.96.6 1.18.6.21 0 .75.3 1.2.68l.81.68v-.77c0-1.25.55-1.77 1.7-1.58l.98.16-.08-.98c-.06-.71-.2-.95-.48-.87-.22.05-.7.15-1.06.2-1.33.23-2.78.74-3.06 1.1-.23.3-.34.29-.64-.08-.24-.3-.28-.56-.12-.78 2.18-2.97 3.44-4.41 3.5-4.03.06.24.2.44.34.44.13 0 .5.25.8.55.3.3.61.49.69.41.08-.08 0-1.78-.16-3.8-.53-6.4-.54-6.46-1.07-6.37-.25.05-.66-.08-.9-.27-.36-.3-.54-.27-1.24.23-.6.43-.9.5-1.12.3-.21-.22-.42-.19-.77.13-.6.55-.97.24-.54-.45.18-.28.32-.56.32-.62 0-.23-2.03.04-2.83.38-.47.2-.91.3-.98.23-.35-.35.24-1.27 1.04-1.65.5-.23 1.76-1.44 2.81-2.69 1.92-2.27 2.74-2.63 2-.9-.21.5-.7 1.18-1.08 1.54-1.14 1.05-.99 1.22 1.89 2.02.18.05.33.3.33.53 0 .29.14.38.42.27.23-.09.57-.16.76-.16.27 0 .32-.78.25-3.64-.15-5.7-.67-11.69-1-11.63-.38.07-.39-.25-.11-6.42.51-11.38.54-13.93.18-14.61-.17-.31-.17-.82 0-1.43.16-.6.17-1.18.01-1.6-.14-.36-.25-1.53-.25-2.6 0-1.48-.1-2.06-.44-2.4-.42-.41-.42-.46 0-.69.64-.36.54-.72-.29-1.06-.57-.24-.63-.33-.26-.41.5-.12.55-.37.3-1.64-.17-.83-.2-.84-1.53-.76l-1.35.08v1.52c0 .9-.13 1.61-.32 1.73-.25.16-.23.44.05 1.25.81 2.27.38 3-1.57 2.62-1.06-.2-1.02-.03-.96-3.55.02-1.38-.08-2.7-.23-2.91-.22-.33-.27-.29-.27.22 0 .83-.65.6-.75-.28-.06-.52-.27-.71-.9-.84-1.75-.35-1.79-.32-1.43 1.23.18.76.7 1.9 1.16 2.53 1.1 1.52 2 3.41 1.83 3.85-.08.2-.6.42-1.15.5-3.27.48-8.5 1.6-9 1.93-.55.35-2.7.46-6.7.32a70 70 0 0 0-10.37 1.28 9.4 9.4 0 0 1-2.12.37c-.98 0-2.1.5-2.26.98-.08.24.24.28 1.2.17 1.61-.2 1.94.18 1.13 1.27-.68.91-.62 1.68.12 1.68.36 0 .55-.2.62-.66.12-.85.61-1.16 1-.64.26.34.43.36.9.1.6-.31 1.85-.14 2.13.3.1.17.61.14 1.38-.07.67-.18 1.3-.25 1.4-.15.36.36-.16.95-1.13 1.25-.56.17-1.52.54-2.13.82-.62.28-1.25.5-1.4.5-.45 0-2.9 1.37-2.9 1.62 0 .13-.38.24-.84.24-.46 0-2.16.52-3.77 1.15l-4.79 1.87c-2.2.85-4.12 2.18-4.65 3.23-.9 1.8-1.9 3.27-2.24 3.27-.53 0-.7-.44-.31-.84.46-.47 1.25-2.16 1.08-2.32-.07-.07-.23.05-.35.26-1.27 2.19-1.8 2.89-2.26 2.96-.3.04-.76.52-1.06 1.07-.64 1.19-1.35 1.37-1.05.26.38-1.4.3-1.79-.34-1.72-.32.03-.98-.17-1.45-.46-1.03-.63-1.52-.67-1.52-.13 0 .22.19.4.43.4s.7.26 1.03.59c.33.33.8.75 1.03.94.32.26.36.46.14.86-.39.73-.73.65-1.76-.44a3.8 3.8 0 0 0-.95-.86l-.4.72c-.32.55-.3.7.22 1.23.87.93 1.85 1.08 2.39.38.76-1.02.88-.07.14 1.18-.77 1.33-2.59 3.03-4.82 4.53-.86.58-2.13 1.55-2.83 2.16a74.49 74.49 0 0 1-7.42 5.37c-.4.21-.63.42-.48.47.15.05.63-.09 1.05-.3.74-.4 1.11-.34 1.11.14 0 .12-.98.71-2.18 1.31-1.2.6-2.81 1.5-3.58 1.99-.76.49-1.45.9-1.52.9-.07 0-1.36.75-2.86 1.68a30.5 30.5 0 0 1-3.37 1.89c-1.03.32-3.42 1.94-3.61 2.44-.1.26-.51.93-.92 1.5-.4.56-.74 1.13-.74 1.26 0 .33-2.56 5.48-2.97 5.97-.3.35-.25.38.32.22 1.47-.43 3.6-1.27 4.16-1.62.53-.35 6.5-2.77 6.8-2.77.3 0 5.13-2.45 6.24-3.16a5.05 5.05 0 0 1 1.86-.78c.85-.03 3.95-1.84 5.71-3.35a5.86 5.86 0 0 1 1.77-1.17c.21 0 .53-.18.71-.4.4-.47 1.06-.53 1.06-.09 0 .5-.83 1.28-1.36 1.28-.27 0-1.23.6-2.14 1.33-.91.74-2.9 1.93-4.44 2.66a95.64 95.64 0 0 0-3.3 1.63 59.3 59.3 0 0 1-5.96 2.88c-1.09.44-3.05 1.27-4.36 1.83-2.4 1.03-5.51 2.2-9.66 3.64-2.12.74-4.7 1.76-6.48 2.57-.44.2-1.39.56-2.12.8-.73.25-2.05.8-2.93 1.21-.89.42-2.26.88-3.04 1.03-1.5.28-2.52.87-3 1.72-.45.8-2.06 2.36-3 2.92-.47.27-.86.65-.86.84 0 .18.25 1.25.56 2.37.4 1.49.57 2.88.59 5.1.03 3.41-.21 4.18-1.4 4.42l-.74.14-.14 2.82c-.17 3.33-.62 4.74-2.07 6.45-1 1.2-1.03 1.27-.45 1.27.34 0 .86-.17 1.16-.38zm6.99-9.42c0-.15 1.22-.85 2.71-1.57 2.8-1.34 4.17-2.33 4.17-3.04 0-.22.27-.57.6-.78.88-.57 5.25-2.33 5.4-2.18.3.3-.28.67-2.55 1.62-2.4 1-3.35 1.77-1.3 1.05 1.28-.45 1.55-.48 1.55-.13 0 .15-.33.34-.73.44-.97.23-2.2.85-2.84 1.43-.6.54-6.26 3.43-6.72 3.43-.16 0-.3-.12-.3-.27zm11-7.64c-.16-.25 2.18-1.35 2.87-1.35.86 0 .36.48-1.06 1.02-1.7.65-1.62.64-1.81.33zm4.08-.65c0-.5 7.7-4.66 8.66-4.67.69 0 .3.47-.79.95-.62.27-1.19.58-1.27.7-.34.47-3.27 2.06-3.8 2.06-.3 0-1 .3-1.53.66-1.12.76-1.27.8-1.27.3zm84.79-1.5c-.1-.16.07-.9.36-1.66l1.54-3.94c.74-1.92 1.07-2.5 1.31-2.3.23.19.4.02.62-.61.34-1.02 1.75-2.8 2-2.55.1.1-.02.53-.25.97-.23.45-.41.88-.41.96 0 .35.82.1 1.28-.4.83-.9 1-.08.28 1.26-.6 1.12-.68 1.17-1.62 1.05-.65-.08-1.08 0-1.28.24-.17.2-.4.31-.51.24-.18-.11-2.12 4.57-2.12 5.12 0 .27-.8 1.9-.93 1.9-.05 0-.18-.13-.27-.29zm-96.84-.77a4.6 4.6 0 0 1 1.4-.7c.7-.25 2.72-1.04 4.51-1.74a30.7 30.7 0 0 1 3.66-1.28c.95 0-.18.58-4.27 2.22-4.08 1.64-5.66 2.08-5.3 1.5zm104.12-1.18c0-.22.24-1 .53-1.75.3-.74.53-1.7.53-2.12 0-.93.46-1.05.68-.17.18.71-.96 4.2-1.42 4.35-.17.06-.32-.08-.32-.3zm-8.1-.57c-.1-.25-.04-.83.13-1.3.4-1.1.38-1.21-.1-1.03-.57.22-.5-.45.26-2.15.36-.81.58-1.66.5-1.88-.12-.3-.03-.39.33-.33.45.08.5-.06.41-1.46-.07-1.21-.01-1.53.26-1.44.26.09.38.81.44 2.6.07 2.2 0 2.66-.6 3.98a14.6 14.6 0 0 0-.84 2.33c-.2 1-.56 1.3-.8.68zm.95-3.7c0-.14-.11-.08-.25.14-.15.22-.26.52-.26.66 0 .15.11.09.26-.13.14-.22.25-.52.25-.66zm-88.36 3.39c0-.23 3.74-1.65 6.48-2.48 3.4-1.02 4.34-1.22 4.6-.96.19.2.79.15 1.94-.15.92-.23 2.14-.5 2.72-.59.58-.09 1.33-.23 1.66-.3.32-.08.6-.03.6.1 0 .25-6.3 1.93-7.23 1.93-.27 0-.4-.12-.32-.27.3-.5-.54-.27-4.42 1.18-3.96 1.49-6.03 2.01-6.03 1.54zm1.85-2.4c0-.36 3.1-1.7 3.65-1.57.3.06-.08.34-1.04.78-1.96.9-2.6 1.09-2.6.79zm17.06-1.13c-.18-.29.5-.57 2.49-1.04.78-.18 2.36-.67 3.5-1.07 2.23-.79 3.18-.59 1.25.26-1.76.77-7.07 2.13-7.24 1.85zm72.9-3.77c0-.6 1.5-2.83 1.9-2.83.32 0 .26.74-.08.95-.16.1-.52.7-.8 1.34-.56 1.26-1.02 1.5-1.02.54zm-4.84-.88c-.22-.22 1.16-2.23 1.42-2.07.12.08-.03.55-.32 1.06-.6 1-.87 1.25-1.1 1.01zm3.92-.36c-.2-.31.05-.8.4-.8.33 0 .33.72.01.92-.14.08-.32.03-.41-.12zm-84.39-.24c-.22-.35 1.93-1.15 13.96-5.21 6.12-2.07 8.64-2.64 8.64-1.96 0 .14-.32.33-.72.41-.4.09-1.03.28-1.4.43l-4.5 1.82-4.8 1.95c-1.43.6-1.58 0-.17-.64 1.2-.54.8-.74-.5-.24a386.4 386.4 0 0 1-10.3 3.68c-.03 0-.13-.1-.21-.24zm79.49-1.28c0-.9-.1-1.69-.23-1.76-.27-.17-.56-3.42-.37-4.15.3-1.16.6-.38.6 1.58 0 1.6.1 2.16.43 2.44.33.27.39.64.27 1.66-.24 2.02-.7 2.17-.7.23zm-81.17.69c.1-.32 6.4-2.87 7.07-2.87.86 0-.7.76-4.83 2.37-2.34.9-2.38.91-2.24.5zm74.55-.34c0-.9 2.92-5.97 3.43-5.97.38 0-.02.94-1.25 2.95-.58.94-1.13 1.96-1.23 2.26-.1.3-.35.7-.56.88-.31.26-.39.24-.39-.12zm-4.93-2.33c.08-1.22.23-2.43.32-2.67.4-1.06.62-.27.57 2.13-.05 2.28-.11 2.59-.55 2.67-.45.09-.48-.06-.34-2.13zm15.39 1.38c-.1-.32-.07-.7.08-.84.17-.18.32-.07.44.31.1.32.07.7-.07.85-.18.18-.33.07-.45-.32zm-13.99-.71c-.1-.1-.17-.9-.16-1.78 0-1.57.4-2.53 1.01-2.53.39 0 .4.6 0 .98-.16.17-.29.96-.28 1.77.01 1.4-.19 1.94-.57 1.56zm7.94 0c-.26-.25-.21-1.79.07-2.08.14-.15.14-.86 0-1.79a5.33 5.33 0 0 1-.1-1.78c.5-.81.88.32 1.09 3.2.1 1.46.04 1.8-.38 2.19-.27.24-.58.37-.67.27zm-5.26-1.37c-.44-.45-.41-.56.63-2.3.6-1.01 1.27-2.04 1.49-2.3.6-.68.9-.27.45.61-.23.45-.29.78-.13.78.51 0 .26.8-.72 2.25a7.16 7.16 0 0 1-1.12 1.44 2.2 2.2 0 0 1-.6-.48zm11.49-1.16c.04-.47.2-.86.34-.86.15 0 .3.39.35.86.07.65-.02.86-.35.86-.32 0-.4-.2-.34-.86zm-13.02.3c0-.17.55-1.26 1.22-2.42.69-1.2 1.16-2.3 1.09-2.58-.15-.57.69-2.06 1.28-2.29 1.35-.51.83 1.36-1.22 4.41-.54.8-1.18 1.84-1.42 2.32-.42.84-.95 1.15-.95.55zm-50.65-.48c.14-.14 1.02-.55 1.97-.9.95-.36 2.53-1.04 3.52-1.51 1.28-.61 1.88-.78 2.08-.58.34.34-.92 1.03-4.3 2.34-2.27.87-3.8 1.18-3.27.65zm69.57-1.34c-.09-.15.24-.65.74-1.13.5-.47 1.1-1.27 1.35-1.78l.45-.93-.55.64c-.85.98-.96.43-.2-1.1.37-.76.82-1.84.99-2.38.35-1.15.85-1.09.62.08-.1.5-.05.78.14.78.76 0 .01 2.07-1.6 4.43-.85 1.23-1.67 1.82-1.94 1.39zm-2.78-1.54c0-.12-.26-.21-.6-.2-.42.01-.57-.11-.51-.44.05-.3-.1-.47-.43-.47-.61 0-1.21-.65-1.03-1.13.07-.18.63-.69 1.24-1.11l1.12-.77.5.65c.68.89.63 1.2-.29 1.75-.43.25-.8.57-.8.7s.45-.03 1-.35c.6-.36 1.01-.47 1.07-.29.06.16.33.29.6.29.71 0 .64.4-.18 1.04-.7.55-1.69.74-1.69.33zm-75.93-1.18c0-.42 4.85-5.22 5.26-5.22.52 0 .31.47-.56 1.24-.47.41-1.67 1.55-2.67 2.53-1 .99-1.86 1.79-1.92 1.79-.06 0-.11-.15-.11-.34zm4.76-2.31c0-.15.31-.77.7-1.37.38-.6.86-1.51 1.07-2.02.28-.67.46-.83.68-.61.22.22.14.59-.32 1.42-1.29 2.38-2.13 3.4-2.13 2.58zm75.09-.14c-.23-.23 1.02-3.93 1.36-4.04.4-.14.11 1.52-.55 3.06-.48 1.14-.56 1.23-.81.98zm-73.24-.56c0-.26 1.8-3.47 2.83-5.05.86-1.32 1.4-1.74 1.4-1.1 0 .22.12.2.4-.02.73-.6.95 0 .3.87a33.7 33.7 0 0 0-1.73 2.9c-.62 1.12-1.23 2.05-1.36 2.05-.37 0-.34-.1.68-2.24.5-1.07.92-2.05.92-2.17 0-.3-1.76 2.71-2.3 3.94-.23.55-.58 1-.78 1-.2 0-.36-.08-.36-.18zm67.74-.47c0-.27.86-.94 1.2-.94.52 0 .49.7-.04.9-.48.18-1.16.2-1.16.04zm4.71-.55c-.08-.08.02-.76.22-1.51.2-.76.36-1.65.36-1.98 0-.36.16-.6.4-.6.5 0 .5.68-.05 2.64-.41 1.49-.6 1.78-.93 1.45zm-69.09-.3c-.25-.25.85-1.68 1.29-1.68.5 0 .48.15-.2 1.07-.6.8-.8.91-1.09.61zm65.57-.88c-.27-.44.94-1.68 1.3-1.33.18.19.05.49-.42.96-.48.47-.75.59-.88.37zm-14.74-2.27c-.22-.2.75-4.36 1.09-4.7.2-.2.38-.15.63.19.32.43.38.39.78-.54.23-.56.56-1.45.72-1.99.4-1.32 1.9-2.34 3.46-2.34 2.43 0 3.06-.24 3.96-1.5.46-.65.76-1.26.67-1.35-.1-.1-.64.08-1.2.4-1.22.7-1.33.72-1.33.2 0-.22-.19-.4-.42-.4-.27 0-.37-.14-.28-.4.13-.3-.07-.39-.95-.39-1.55 0-.95-.49 1.16-.94 2.4-.52 5.1-.5 5.55.05.3.36.27.49-.17.86-.29.23-.96.95-1.5 1.58-.8.95-.92 1.24-.68 1.63.25.39.08.71-.97 1.95-1.42 1.66-2.4 2.34-4.06 2.83-.97.29-1.2.28-1.54-.06-.35-.36-.34-.46.08-.96.35-.4.87-.58 1.96-.67 1.74-.13 1.87-.2 2.66-1.3.55-.77.55-.82.08-.62-.29.12-.9.25-1.35.29-.46.04-1.09.21-1.4.38-.31.17-.8.23-1.09.14-.83-.26-1.57.1-1.57.77a6.8 6.8 0 0 1-.73 2.03c-.59 1.16-.85 1.42-1.33 1.37-.55-.06-.58.02-.43.95.2 1.22-.45 2.69-1.18 2.69-.26 0-.55-.07-.62-.15zm15.28-.1a.3.3 0 0 1 .1-.4.3.3 0 0 1 .4.1.3.3 0 0 1-.1.4.3.3 0 0 1-.4-.1zm-8.87-.88c0-.18.37-.75.82-1.25 2.4-2.73 2.88-3.33 2.88-3.65 0-.43 2.64-2.95 3.1-2.96.44-.01.42.3-.05.93-.57.76-.5.91.42.91.66 0 .77-.07.53-.35-.42-.51.49-1.27 1.57-1.33 1.16-.05 1.28.52.2.98-.8.34-.83.4-.35.59.63.25 1.17.9 1.18 1.4.02.9-2.2 2.42-3.58 2.42-.34 0-.69.12-.78.28-.1.15-.5.2-.92.11-.42-.09-.82-.04-.92.12-.1.15-.36.28-.58.28-.23 0-.98.42-1.68.93-1.32.97-1.85 1.14-1.84.6zm4.96-3.48c.59-.21 1.14-.31 1.22-.23.18.18.96-.43.96-.76 0-.46-2.26.1-2.9.73-.77.74-.7.76.72.26zm-59.47 3.32c0-.3 2.25-2.15 2.62-2.15.62 0 .2.7-.92 1.52-1.2.87-1.7 1.05-1.7.63zm46.42-1.3c.1-.4.25-1.1.32-1.58.09-.52.3-.86.54-.86.29 0 .35.2.23.8l-.3 1.58c-.1.47-.32.8-.57.8-.3 0-.36-.18-.22-.73zm-4.09-1.73c0-.2.33-.66.73-1.04 1.1-1.05 5.12-3.65 5.39-3.49.59.37.04.96-2.4 2.6-1.45.96-2.7 1.87-2.8 2.01-.23.39-.92.33-.92-.08zm-36.25-1.99c0-.55 3.07-4.54 3.5-4.54.32 0-.16.82-1.7 2.94-1.22 1.66-1.8 2.18-1.8 1.6zm2.12 0c0-.32 1.17-1.37 1.54-1.37.5 0 .37.34-.4.99-.72.62-1.14.76-1.14.38zm62.3-.33c-.28-.44.34-.95.7-.58.3.3.11.87-.3.87-.12 0-.3-.13-.4-.3zm-22.87-3.09c.02-.36.7-1.12 1.01-1.12.4 0 .39.6-.01 1-.35.36-1.01.43-1 .12zm.52-2.38c0-.1.45-.6 1-1.08.54-.48.84-.8.66-.7-.21.1-.34-.03-.34-.35 0-.31.53-.87 1.4-1.46.76-.52 1.86-1.3 2.44-1.74 2.73-2.03 4.37-2.63 4.37-1.61 0 .32-.18.53-.45.53-.44 0-4.05 2.27-4.05 2.55 0 .08.39-.11.86-.43 1.58-1.04 3.05-1.67 3.5-1.5.65.25.38 1.08-.4 1.17-.36.04-1.22.33-1.9.64-1.13.5-1.2.6-.8.9.69.53 1.18.45 3.3-.52 2.71-1.23 4.6-1.82 5.2-1.63.29.09.91 0 1.4-.2.98-.41 1.54-.33 1.54.22s-2.55 1.24-3.17.86c-.39-.25-.92-.15-2.7.5-3.63 1.34-4.51 1.62-6.12 1.9-.84.15-2.38.7-3.4 1.21-1.92.96-2.34 1.1-2.34.74zm-15.73-4.8c-.09-.15.02-.56.24-.9.23-.34.33-.71.22-.82-.1-.1-.02-.3.2-.43.46-.3 2.9-.34 2.9-.06 0 .3-1.77 1.65-2.15 1.65-.18 0-.53.19-.78.42-.3.26-.52.31-.63.14zm-4-1.64c-.3-.5.55-.96 2.17-1.16 1.36-.17 1.97-.07 1.64.26-.08.08-.72.3-1.44.5-.7.2-1.49.44-1.73.54-.25.1-.52.05-.63-.14zm-5.93-1.18c0-.21 3.33-4.46 3.8-4.85.72-.6.76.21.05 1.05-.37.45-.68 1.04-.68 1.31 0 .29-.32.68-.75.9-.42.21-.96.7-1.2 1.06-.38.6-1.22.95-1.22.53zm17.27-1.47c-.48-.48-.08-1.03.73-1.03.79 0 1.27.43.88.79-.44.4-1.31.53-1.61.24zm4-.76a8.63 8.63 0 0 0-2.13-1.6l-1.15-.57-2.45.82c-2.82.94-3.23 1-3 .39.14-.37.02-.41-.88-.27-1.38.22-1.66-.26-.45-.76 1.09-.46 2.32-.51 2.7-.13.16.15.66.2 1.17.1.8-.17.83-.2.31-.4-.32-.12-.58-.31-.58-.43 0-.59 2.2-.72 9.66-.58 6.57.12 8 .09 8.31-.22.36-.36 1.57-.33 4.55.1 1.01.15 2.62 1 2.62 1.4 0 .45-.68.5-2.39.14-2.26-.48-2.37-.47-2.37.18 0 .48-.12.54-.86.43l-3.11-.44a14.65 14.65 0 0 1-2.9-.63c-.68-.34-8.04-.44-8.37-.11-.17.16 1.93 2.28 2.27 2.3.07 0 .31-.11.53-.26.34-.22.34-.3.03-.5a.58.58 0 0 1-.2-.66c.22-.6 5.2-.63 5.2-.03 0 .59-1 1.13-2.9 1.57-.93.22-1.8.58-1.93.8-.34.62-.61.52-1.68-.64zm17.1-3.94c0-.17.38-.47.85-.67 3.86-1.62 5.23-1.87 5.23-.94 0 .3-.21.6-.47.69-.25.08-.87.33-1.36.55-1.18.53-4.26.8-4.26.37zm-21.24-.38c-.74-.29-1.03-1.24-.4-1.24.54 0 1.52.78 1.52 1.2 0 .44-.1.44-1.12.04zm2.33-.07c-.5-.5-.52-.8-.1-1.06.35-.22 1.35.88 1.13 1.24-.22.35-.56.29-1.03-.18zm-20.47-.66a12.2 12.2 0 0 1 3-1.83c.07 0 .12.16.12.37 0 .2-.59.68-1.31 1.05-1.42.74-1.96.86-1.8.4zm7.62.02c0-.25 1.27-.9 5.16-2.66a83.6 83.6 0 0 1 13.1-4.27c6.76-1.68 7.84-2.02 11.7-3.64 1.42-.59 2.71-1.07 2.87-1.07.78 0-.19.98-3.18 3.22-1.8 1.36-3.47 2.8-3.7 3.2-.46.82-3.3 2.64-3.93 2.52-.88-.17-.5-.65 1.2-1.53 1.89-.98 2.5-1.86 1.3-1.86-.76 0-6.31 1.08-9.78 1.9-2.2.52-3.17.5-2.3-.05 1.76-1.12-6.24 1.67-9.53 3.31-2.17 1.08-2.9 1.32-2.9.93zM151.91 22c1.43-.28 3.34-.59 4.24-.69 1.45-.16 1.84-.34 3.31-1.52 1.76-1.4 1.53-1.47-1.1-.3-.78.36-2.45.88-3.7 1.17-4.34 1.02-5.57 1.37-5.57 1.6 0 .3-.2.33 2.82-.26zm9.7 5.32c-.45-.4-1.32-1.12-1.93-1.6-.76-.62-1.02-.99-.83-1.17.45-.45 4 2.48 4 3.3 0 .37-.38.2-1.23-.53zm2.3-.67c0-.21.36-.45.82-.54 1.25-.25 2.35-.2 2.35.1 0 .34-.3.44-1.92.65-1 .14-1.25.1-1.25-.2zm-13.09-1.21a.3.3 0 0 1 .1-.41.3.3 0 0 1 .4.1.3.3 0 0 1-.1.4.3.3 0 0 1-.4-.1zm-11.64-3.97a.3.3 0 0 1 .1-.4.3.3 0 0 1 .4.09.3.3 0 0 1-.1.4.3.3 0 0 1-.4-.1zm11.68-3.9c-.34-.34-.18-.61.58-1 1.14-.6 7.2-2.6 7.37-2.43.35.35-.27.94-1.43 1.35-.7.25-2.17.78-3.26 1.19-2.68 1-3.06 1.1-3.26.89zm18.87-7.5c0-.3.87-.8 1.43-.8.64 0 .5.71-.18.9-.86.23-1.25.2-1.25-.1zm4.23 92.06c0-.14-.12-.25-.26-.25-.15 0-.27.18-.27.41 0 .23.12.34.27.25.14-.1.26-.28.26-.41zm-14.85-.3c1.09-.65 3.06-1.9 5.2-3.27.8-.52 1.45-1.14 1.45-1.38 0-.34-.16-.28-.73.25a7.6 7.6 0 0 1-1.39 1.02 65.9 65.9 0 0 0-5.82 3.83c0 .24.34.12 1.3-.45zm-88.19-.34c.28-.21.37-.4.2-.4-.5-.01-1.14.3-1.14.55 0 .35.36.29.94-.15zm84.05-.14c.62-.58.47-.69-.34-.26-.28.15-.51.4-.51.53 0 .39.22.31.85-.27zm12.9-.15c0-.08-.23 0-.52.15-.3.15-.53.34-.53.41 0 .08.23 0 .53-.15.29-.15.52-.34.52-.41zm-95.25-.37c0-.14-.17-.19-.4-.1-.21.08-.39.2-.39.25 0 .06.18.1.4.1.22 0 .4-.11.4-.25zm88.9-2.2c2.95-1.97 4.08-3.1 3.48-3.48-.23-.14-3 1.52-4.8 2.88-.65.5-1.32.91-1.49.92-.16.01-.36.23-.43.48-.08.25-.22.67-.33.93-.1.25-.07.46.06.46.14 0 1.72-.98 3.51-2.18zm5.37 1.4c.16-.61.09-.64-.63-.26-.28.16-.45.4-.36.53.27.44.85.28 1-.27zm-149.54-.34c.23-.33.63-1.27.9-2.1.38-1.24.4-1.6.14-1.93-.5-.6-1.22-.48-1.83.3a3.1 3.1 0 0 0-.4 3.42c.58 1.07.64 1.08 1.19.3zm138.53-1.4c2.75-1.8 6.4-4.88 5.8-4.88-.1 0-1.9 1.2-4 2.65a40.15 40.15 0 0 1-4.07 2.64c-.5 0-.31-.38.57-1.14l.86-.74-1.1.54c-.61.3-1.18.66-1.28.8-.09.15.17.69.58 1.2.64.8.76.86.91.44.1-.27.88-.94 1.73-1.5zm13.32 1.46c0-.14-.18-.25-.4-.25-.4 0-.53.3-.23.6.21.22.63-.02.63-.35zm-97.9-.28c0-.15-.12-.2-.26-.1-.15.08-.27.28-.27.42 0 .15.12.2.27.1.14-.09.26-.28.26-.42zm85.3-.1c.16-.45.12-.47-.48-.24-.51.2-.55.63-.05.63.2 0 .44-.18.52-.4zm-34.24-2.5c1-.48 1.8-.7 1.95-.57.31.32-.01.8-.71 1.07-.4.14.2.27 1.94.4 3.72.28 3.83.25 3.89-1.18l.05-1.2-1.63-.79c-1.99-.97-2.56-1.72-2.74-3.59-.12-1.14 0-1.84.57-3.42.4-1.1.9-2.2 1.14-2.47.4-.46 2.94-1.76 4.14-2.12.3-.1 1.13-.9 1.86-1.8 2.58-3.17 3.35-3.8 5.13-4.26l1.64-.4.42.63c.36.56.37.84.09 2.16-.19.83-.4 1.93-.46 2.44-.07.5-.47 1.36-.9 1.9-.77.98-.96 1.65-.54 1.91.13.08.3.74.39 1.46.16 1.35.81 2.67 1.32 2.67.41 0 2.3-1.9 2.3-2.3 0-.41-.43-.46-.66-.08-.25.4-.93.31-1.1-.15-.1-.23.09-.67.42-1.02.8-.86 1.6-3.66 1.62-5.71 0-.95.11-2.32.23-3.04.36-2.2.11-3.1-1-3.66a7.13 7.13 0 0 1-1.96-1.78 5.28 5.28 0 0 0-1.22-1.31c-.13 0-.3.68-.4 1.5-.18 1.51-.72 2.47-1.4 2.47-.2 0-.35-.1-.35-.24 0-.28-4.35 1.16-5.12 1.7-.3.21-.77.39-1.03.39-.25 0-.47.03-.47.07 0 .04-.23.7-.52 1.5-.28.77-.6 2.11-.7 2.96-.11 1.07-.28 1.55-.54 1.55-.44 0-.42.09-1.12-3.66-.31-1.65-.7-3.26-.88-3.57-.45-.81-1-2.23-1.38-3.61-.37-1.33-1.2-1.9-3.26-2.22-1.2-.19-1.32-.06-.72.74.42.55.54 1.74.18 1.74-.12 0-.42-.39-.68-.86-1.23-2.33-1.82-3.1-2.32-3.1-.29 0-1.14.59-1.9 1.32l-1.37 1.33.77.6.76.61-.54 1.57c-.3.87-.85 2.1-1.23 2.76-.91 1.6-.87 2.02.22 2.38.5.16 1.05.47 1.23.7.48.57.77-.01.77-1.6 0-.7.12-2.01.27-2.9.14-.9.33-2.32.42-3.17.09-.9.25-1.45.39-1.32.14.14.13 1.23-.02 2.61-.14 1.3-.3 3.63-.34 5.16-.05 1.56-.23 3.04-.42 3.39-.43.79-.13 1.16 1.79 2.24a5.9 5.9 0 0 1 1.86 1.55c.23.41.49.75.57.75.08 0 .62-.39 1.2-.86 1.07-.9 3.7-1.98 4.02-1.66.1.1-.07.38-.37.62-.3.25-.63.66-.72.91a.76.76 0 0 1-.68.46c-.29 0-.68.15-.88.33-1.86 1.73-3.06 1.93-3.94.67-.33-.48-1.3-1.56-2.16-2.4-1.26-1.25-1.54-1.68-1.44-2.2.19-1-.74-1.92-2.79-2.76-.4-.17-.72-.41-.72-.55 0-.14.52-1.35 1.17-2.69 1.54-3.2 1.67-3.77.98-4.13-1.04-.56-1.73-.3-3.53 1.37-2 1.85-3.3 4.3-3.58 6.67-.08.73-.3 1.64-.5 2.02-.6 1.19-1.4 5.82-1.46 8.37-.04 2.14.01 2.5.46 2.86.98.78 2.37 1.6 3.55 2.1.65.27 1.5.71 1.87.97.38.25 1.77.7 3.09.99 1.32.29 2.97.82 3.68 1.18l1.28.65.53-.63c.29-.34 1.3-.99 2.24-1.43zm-3.43.29c0-.39.86-1.01 2.59-1.88.91-.45 1.78-.76 1.91-.67.55.34.21.9-.73 1.2-.55.18-1.44.6-1.98.95-1 .63-1.8.8-1.8.4zm-3.53-3.66c-.28-.28-.21-2.88.1-3.69.46-1.2.81-.35.73 1.75-.07 1.77-.35 2.42-.83 1.94zm-2.38-.8c-.22-.21-.23-1.75-.02-2.3.3-.78.63-.15.63 1.17 0 1.22-.18 1.56-.61 1.14zm47.6 4.07c2.27-1.64 3.03-2.38 2.71-2.7-.23-.23-5.77 3.8-5.77 4.22 0 .46 1-.04 3.06-1.52zm-92.04.98c-.08-.09-.31-.1-.5-.02-.21.08-.15.15.16.16.28 0 .43-.05.34-.14zm105.12-.18c0-.48-1.82-3.1-2.28-3.28-.76-.3-.72.2.08 1.04.45.47 1 1.25 1.25 1.72.43.86.95 1.15.95.52zm-20.4-.9c.67-.38 1.63-1.01 2.14-1.4 1.5-1.14 2.92-1.93 3.12-1.74.18.18-.57.92-2.2 2.2-1.24.95-.59.68 1.18-.5 1.37-.91 2.93-2.67 2.93-3.3 0-.35-2.3.26-2.95.79-.39.3-1.9 1.4-3.37 2.41a19.18 19.18 0 0 0-2.67 2.05c-.02.37.6.2 1.82-.5zm14.57-.2c0-.2.14-.42.31-.47.23-.08.23-.24.02-.62-.27-.48-.3-.47-.57.23-.35.93-.36 1.24-.02 1.24.15 0 .26-.17.26-.37zm-95.11-.15c.09-.14.04-.26-.1-.26-.15 0-.34.12-.43.26-.1.15-.05.27.1.27.14 0 .34-.12.43-.27zm-47.11-1.16c.53-.4.92-.8.86-.86-.07-.06-.92.19-1.9.56-1.85.69-2.52.81-2.52.47 0-.11.8-.49 1.78-.83 2.51-.88 3.45-1.34 3.61-1.76.27-.72-.27-.6-3.15.69a21.8 21.8 0 0 1-3.37 1.3c-.95 0-.4-.43 1.6-1.24 3.62-1.47 5.1-2.12 5.29-2.31.29-.29-1.02.07-4.93 1.36-1.95.64-3.61 1.09-3.7 1-.25-.25.34-.52 3.21-1.43a51.68 51.68 0 0 0 3.54-1.24c.45-.2.97-.37 1.14-.37.16 0 .22-.13.13-.28-.34-.54-4.47.5-6.5 1.65-1.09.61-1.75.48-.88-.17.61-.47 1.96-.99 4.52-1.74 1.36-.4 1.93-.7 2.02-1.06.1-.37 0-.52-.35-.52-.27 0-.56.12-.65.27-.1.14-.45.26-.79.26-.76 0-5.44 2.31-5.54 2.74-.04.17-.21.71-.37 1.2-.43 1.3.05 2.15 1.54 2.74 1.8.71 4.15.52 5.4-.43zm129.47-1.77c2.94-1.94 3.7-2.62 2.96-2.62-.14 0-.26.1-.26.23s-.3.31-.68.4c-.38.1-.83.3-1 .45-.17.15-1.4.98-2.75 1.85a22.16 22.16 0 0 0-2.45 1.7c0 .5 1.42-.18 4.18-2zm-76.53.35c-.08-.1-.36.05-.61.31-.44.46-.43.47.16.16.34-.17.54-.39.45-.47zm88.76.48c0-.31-.52-.65-.71-.46-.19.2.14.7.46.7.13 0 .25-.1.25-.24zM36.78 92.64c-.2-1.13-.67-1.75-.67-.87 0 .65.55 2.24.72 2.07.07-.07.05-.61-.05-1.2zm1.32 1.04c.09-.15.04-.27-.1-.27-.15 0-.34.12-.43.27-.1.14-.05.26.1.26.14 0 .34-.12.43-.26zm114.68-.7c1.01-.52 2.1-1.24 2.42-1.59.58-.6.58-.62.07-.62-.41 0-3.72 2.2-4.54 3.03-.35.35.37.06 2.05-.82zm12.4.5c-.06-.34.12-.49.64-.55.86-.1 1-.58.17-.58-.59 0-1.27.67-1.28 1.26 0 .18.11.33.27.33.15 0 .24-.2.2-.46zm-32.81-.59c.72-.96.72-1.01 0-1.11-1.08-.16-.77-.7.9-1.55.91-.46 1.81-.96 1.99-1.1.6-.5 1.17-1.93 1.32-3.33.13-1.26.1-1.38-.39-1.38-.95 0-2.38.75-3.05 1.61-.71.9-1.25.84-1.25-.14 0-.9 1.6-2 3.77-2.57 2.03-.53 2.4-.87 2.83-2.53.44-1.72.37-2.46-.23-2.46-1.05 0-1.78.51-3.06 2.15-2 2.56-2.73 3.2-4.99 4.32-2.9 1.45-3.45 2.23-3.57 5.09-.07 1.58 0 2.33.26 2.64.59.7 1.85 1.12 3.42 1.14 1.33 0 1.53-.07 2.05-.78zm-4.2-2.66c-.65-.66-.56-1.15.24-1.27.46-.07.57-.24.51-.8-.12-1.14.82-.93 1.31.3.38.94.37 1.03-.1 1.4-1.14.9-1.38.94-1.95.37zm3.99-1.21c0-.24.3-.78.66-1.21.36-.44.66-.95.66-1.15 0-.37 1.21-1.45 1.63-1.45.13 0 .3.17.39.39.14.37-.22.95-1.85 2.93-.8.97-1.5 1.2-1.5.49zM5.82 92.9c1.25-.4 1.42-.5.8-.52-.45 0-1.28.21-1.86.49-1.38.65-.94.66 1.06.03zm73.68.25c0-.15-.05-.27-.11-.27-.07 0-.2.12-.28.27-.1.14-.04.26.11.26.16 0 .28-.12.28-.26zm1.47-1.01c-.09-.08-.3 0-.48.18-.26.26-.23.3.15.15.26-.1.4-.25.33-.33zm72.06-1.32c-.58-.1-2.35.96-2.35 1.42 0 .26.43.1 1.38-.48.88-.54 1.24-.89.97-.94zM4.3 90.68c.05-.56-.04-.97-.2-.97-.15 0-.28.1-.28.23s-.08.62-.17 1.1c-.13.66-.09.83.2.73.2-.07.4-.55.45-1.1zm2.34.94c.42-.27.15-6.67-.3-6.84-.2-.08-.28-.9-.24-2.56.04-1.34 0-2.16-.07-1.82-.23 1.07-.76.47-.68-.77.06-.86.01-1.06-.19-.77-.15.22-.27.78-.28 1.26 0 .6-.12.86-.42.86-.36 0-.4-.26-.27-1.79.39-4.52.45-8.13.18-11.12-.3-3.37-.17-5.35.35-5.35.2 0 .3 1 .3 3.1.01 1.72.05 4.94.1 7.17.07 3.49.13 3.96.42 3.4.2-.38.29-1.13.2-1.82-.07-.7.04-1.65.3-2.41.33-.98.43-2.36.43-6.23 0-7.23.26-11.41.7-11.41.3 0 .33.87.18 4.93-.1 2.97-.08 4.88.07 4.8.13-.1.9-1.18 1.7-2.43.8-1.25 1.6-2.28 1.78-2.28.57 0 .37.45-1 2.26-.73.97-1.55 2.2-1.83 2.75-.47.92-1.45 6.51-1.2 6.9.05.1-.08.68-.3 1.3-.26.79-.3 1.24-.11 1.47.19.22.14.75-.14 1.7A9.06 9.06 0 0 0 6 78.54l.08 1.24.47-.9c.25-.5.7-2.04.98-3.44a23.44 23.44 0 0 1 2.4-7.03c.4-.73.73-1.5.7-1.72-.01-.22.07-.96.19-1.66.29-1.66.8-1.66.61 0-.15 1.38-.18 1.4 1.21-.58.48-.68.98-.89.98-.4 0 .14-.59.99-1.3 1.88-.73.9-1.75 2.45-2.28 3.46-1.1 2.1-1 2.59.43 2.1.96-.34 2.02-.4 1.72-.1-.1.1-.93.31-1.82.46-1.81.3-1.68.08-2.27 3.57-.14.8-.33 1.78-.44 2.18-.15.6-.08.77.44.97.55.22.8.06 2.1-1.32.82-.87 1.7-1.56 1.98-1.56.42 0 .33.16-.45.86-.87.77-3.13 3.62-3.13 3.94 0 .07.35.08.79.01 1.02-.15 1.01.22-.02.8-1.1.63-1.23.6-1.47-.39-.2-.84-.2-.84-.38.46-.1.73-.1 1.41 0 1.52.1.1.57.08 1.06-.06 1.16-.33 1.45-.12.88.66-.3.42-.64.59-.94.5-.9-.27-1.25.37-1.23 2.24.02 2.56.36 4.3.93 4.71.64.47 1.95.22 3.88-.74a26.4 26.4 0 0 1 2.77-1.18c.7-.24 1.9-.71 2.66-1.06a8.58 8.58 0 0 1 1.72-.64c.3 0 1.52-1.83 1.52-2.26 0-.1-.24-.12-.53-.04-.3.08-1.1-.04-1.79-.26-.86-.26-2.46-.4-5.03-.4-2.08 0-3.84-.11-3.91-.23-.08-.12.11-.35.42-.51.41-.23 1.7-.22 4.97 0 2.43.18 5 .27 5.73.22 1.3-.08 1.33-.1 1.26-.88-.04-.53.33-1.5 1.12-2.91 2.07-3.72 3.59-7.2 3.6-8.24a4.91 4.91 0 0 0-.87-3c-.44-.56-.49-.91-.33-2.54.11-1.21.08-1.96-.1-2.07-.15-.09-.35-.85-.45-1.68a65.06 65.06 0 0 0-.37-2.78c-.03-.33-2.54-.22-2.98.14-.46.36-.83 1.6-.56 1.87.45.46 1.14 3.1 1.14 4.4 0 1.68-.42 2.45-2.15 4.04-.89.81-1.05 1.08-.76 1.26.38.24.26.32-.95.66-.31.1-1.1-.3-.9-.45.79-.55 2.94-2.67 3.53-3.49.69-.93.75-1.19.62-2.52-.07-.81-.34-1.95-.59-2.52l-.44-1.05-.6 1.88a19.02 19.02 0 0 1-2.4 4.97l-.52.8.86-.62c.47-.33.98-.84 1.13-1.12.32-.58.79-.68.79-.16 0 .87-3.94 3.63-5.16 3.6h-.8l.94-.5c1.04-.55 3.08-3.34 3.97-5.43.3-.73.62-1.92.7-2.65a3.8 3.8 0 0 1 .68-1.9c.46-.5.51-.83.39-2.26-.2-2.19-.63-3.02-1.85-3.5-1.01-.41-2.88-.55-3.18-.24-.26.25.3 1.16.73 1.16.68 0 1.34 1.22 1.97 3.7.5 1.94.57 2.55.33 2.94-.17.27-.31.79-.31 1.15 0 1.63-1.74 4.9-2.4 4.5-.4-.25-.29-.6.27-.78.77-.25 1.64-3.13 1.64-5.49 0-1.94-.7-4.7-1.26-4.89-.15-.05-.42.37-.59.94-.39 1.3-1.01 1.9-1.27 1.23-.1-.26-.04-.69.13-.96.17-.26.3-.98.3-1.58a3.7 3.7 0 0 0-2.77-3.4c-.65-.2-1.2-.45-1.2-.57 0-.46 1.49-.21 2.61.43.64.36 1.2.66 1.26.66.06 0 .1-.37.1-.81 0-.7-.07-.79-.52-.65-.63.2-.67-.06-.13-.78.59-.77.46-1.96-.4-3.7-.58-1.14-.7-1.65-.5-1.9.4-.48.07-.87-1.19-1.44-1.17-.53-3.47-.68-3.74-.25-.1.18-.34.17-.7-.02-.47-.25-.49-.34-.15-.73.8-.93.75-1.36-.27-2.32C6 40.14 5.17 39.73 3.8 39.64l-1.16-.07.05 6.22c.02 3.42.05 12.75.06 20.75.02 14.18.04 14.56.58 15.68.62 1.28.86 1.47.61.48-.1-.4-.05-.67.12-.67.48 0 .9 2.13.96 4.9.1 4.44.46 5.44 1.63 4.69zm3.44-9.5c-.1-.1-.17-.34-.17-.55 0-.3.23-.34 1.04-.2 1.11.19 2.13-.18 2.13-.77 0-.19.49-.67 1.08-1.06a4.3 4.3 0 0 0 1.47-1.65c.36-.85.35-.99-.06-1.44-.43-.48-.42-.5.23-.5.38 0 .76.11.85.25.25.41-.68 2.9-1.41 3.78-1.1 1.31-4.55 2.74-5.16 2.14zm.1-3c0-.14.64-.76 1.44-1.39 1.45-1.13 3-3.47 2.5-3.77-.33-.21-.31-.66.04-.66.15 0 .71-.3 1.25-.66 1.41-.96 1.98-.82.8.2-.81.73-1.29 1.7-1.4 2.88 0 .18-4.3 3.67-4.51 3.67-.07 0-.13-.12-.13-.26zm-1.53-3.5c.17-.5 3.85-2.63 4.37-2.53.32.07.06.33-.86.85-.73.42-1.77 1.04-2.31 1.38-1.12.71-1.36.77-1.2.3zm11.88-3.88c-.25-.15-.1-.26.53-.35 1.11-.17 2.87.05 2.87.36 0 .3-2.93.3-3.4 0zm-8.24-1.22c0-.1.27-.51.6-.91.32-.4.72-.96.89-1.23.16-.28.4-.41.51-.3.24.23-1.17 2.35-1.67 2.51-.18.06-.33.03-.33-.07zm26.11 20.4c.12-.2.76-.95 1.42-1.65 1.65-1.76 2.76-3.27 2.4-3.27-.17 0-1.1.84-2.1 1.85-.98 1.02-1.93 1.86-2.11 1.86-.18 0-.32.35-.32.79 0 .84.36 1.05.71.42zm2.97-.32c.3-.39.55-.95.55-1.26 0-.3.35-.86.77-1.22.42-.36.85-.96.94-1.32.12-.48-.47.02-2.07 1.71-1.23 1.31-2.18 2.47-2.11 2.58.28.46 1.4.17 1.92-.5zm109.4.27c.6-.23.53-.63-.1-.63-.3 0-.53.17-.53.4 0 .44.05.46.64.23zM3.86 88.2c.14-.46.18-1.35.08-1.98-.2-1.28-.85-3-1.05-2.8-.07.07-.04 1.72.06 3.66.14 2.66.24 3.35.41 2.75l.5-1.63zm20.08.27c.44-.09.8-.26.8-.38 0-1.25-4.98.6-5.24 1.95-.07.37.26.28 1.77-.48 1.02-.51 2.22-1 2.67-1.1zm30.17 1.37c0-.2-.14-.41-.32-.47-.25-.08-.21-.37.14-1.15a20.1 20.1 0 0 0 1.24-4.3c0-.83-.5.1-.94 1.68-.25.96-.57 1.8-.7 1.88-.57.35-.52-.3.16-2.26.4-1.16.69-2.32.64-2.58-.06-.28-.25.09-.45.84-.56 2.13-.55 2.1-.87 1.78-.2-.2-.1-.86.38-2.36.66-2 1.1-3.64 1.12-4.18 0-.15.17-.65.36-1.1.24-.58.27-1 .1-1.31-.22-.37-.33-.15-.58 1.1-.5 2.59-1.69 5.94-2.1 5.94-.29 0-.33.33-.19 1.65.42 4.08.51 4.52 1 5 .53.53 1.01.45 1.01-.16zm1.33-.04c0-.22-.12-.33-.27-.24-.14.1-.26.35-.26.56 0 .22.12.33.26.24.15-.1.27-.34.27-.56zm1.05-.56c0-.83-.12-.73-.37.28-.11.5-.08.7.1.58.15-.1.27-.48.27-.86zm-28.05-.32c.96-.74.5-.93-.62-.27-.53.32-.96.62-.96.68 0 .29 1 .03 1.58-.41zm11.47-2.48c-.24-.39-2.2 1.81-2.2 2.47 0 .45.24.29 1.18-.82.65-.76 1.1-1.5 1.02-1.65zm-3.34 2.15c-.09-.21-.15-.15-.16.16-.01.28.05.43.14.35.08-.1.1-.32.02-.51zm112.25-.46c.38-.7.35-1.08-.09-1.08-.2 0-.51-.18-.7-.4-.36-.44-.13-1.1.9-2.55.27-.39.44-.86.38-1.05-.07-.22-.41.09-.86.76-.41.62-.9 1.12-1.1 1.12-.25 0-.35.32-.32 1.02.03.75.18 1.07.59 1.26.34.14.54.47.53.83-.02.73.3.77.67.09zm6.57-1.52c.4-.31.63-.66.53-.77-.24-.24-3.91 2.16-3.91 2.55 0 .3 2.24-.87 3.38-1.78zm-.7 1.57c.33-.42.32-.43-.1-.1-.26.2-.46.4-.46.46 0 .22.21.08.56-.36zm17.32-.53c-.29-.3-.49.17-.28.65.2.45.21.45.32-.01.06-.27.04-.56-.04-.64zm-115.87-.14c-.07-.18-.13-.03-.13.33 0 .37.06.52.13.34.07-.19.07-.48 0-.67zm95.08.3c0-.14-.12-.19-.27-.1-.14.1-.26.28-.26.43 0 .15.12.2.26.1.15-.09.27-.28.27-.43zm-129.55-.25c1.38-.6 1.45-1.15.1-.68-1.09.39-1.52.66-1.52.98 0 .33.01.33 1.42-.3zm14.63-.03c-.08-.21-.14-.15-.16.16 0 .28.05.44.14.35.09-.09.1-.32.02-.51zm128.08-2.44c-.06-.36-.25-.03-.54.94-.6 2.01-.55 2.52.1.91a5 5 0 0 0 .44-1.85zm-108.57.1c.11-.75.09-1.04-.07-.78-.13.21-.31.99-.4 1.71-.2 1.63.21.82.47-.92zm98.58.36c.5-.34.8-.61.66-.61-.15 0-.79.36-1.43.8-.64.43-1.26.78-1.39.78-.12 0-.22.13-.22.3 0 .28.32.11 2.38-1.27zm-127.7.23c-.07-.4.12-1.68.43-2.84.9-3.31.91-3.38.54-3.26-.3.1-1.25 2.96-1.71 5.17-.2.9.23 2.06.65 1.8.13-.08.18-.47.1-.87zm124.95.57c.5-.33.58-.5.32-.66-.52-.33-.74-.27-.74.17 0 .22-.12.4-.27.4a.27.27 0 0 0-.26.26c0 .37.17.34.95-.17zM22.35 85.6c0-.56-.46-.48-.78.12-.4.74-.34.87.25.55.3-.16.53-.46.53-.67zm3.6-3c.23-.77.36-1.46.3-1.52-.16-.16-2.04 4.23-2.04 4.75 0 .22.14.45.33.5.2.08.45-.33.66-1.1l.75-2.62zm1.98 3.4c.28-.16.5-.56.5-.9 0-.75.73-4.95.96-5.55.12-.3.05-.39-.22-.28-.52.2-1.76 3.89-1.88 5.6-.1 1.52-.1 1.52.64 1.12zm122.36-.78c-.38-.42-.55-.46-.96-.2-.77.48-.6.72.46.72.94 0 .96-.02.5-.52zM40.46 83.74c.1-.53.14-1.01.09-1.07-.06-.05-.55.44-1.1 1.1-1.1 1.32-1.07 1.91.09 1.31.53-.27.8-.66.92-1.34zm130.54.8c-.08-.08-.23.07-.33.33-.14.37-.11.4.15.14.18-.17.26-.39.18-.47zM24.56 83.07c.42-1.02.7-1.91.64-1.98-.45-.45-2.16 2.75-1.86 3.51.24.63.46.35 1.22-1.53zm16.84 1.28c0-.48-.05-.52-.26-.2-.33.51-.33.8 0 .8.14 0 .26-.27.26-.6zm2.86-.22c.07-.62.06-.62-.34-.13-.49.62-.52 1.03-.07.88.18-.06.36-.4.4-.75zm45.13.27c.8-.3 1.86-.86 2.37-1.25.5-.4 1.14-.87 1.4-1.05.44-.28.4-.3-.26-.16-.75.17-5.72 2.68-5.72 2.9 0 .24.85.08 2.21-.44zm-59.43-.44c.18-.39.33-1.4.33-2.23 0-2.06.34-2.87 1.2-2.87.5 0 .66.12.6.46-.06.34.13.48.71.54.7.07.9-.09 1.66-1.24a6.5 6.5 0 0 0 .86-1.63c0-.46-1.44-.11-2.36.57-.41.3-1.16.64-1.65.74-.78.16-.94.34-1.34 1.54-.53 1.59-.92 4.84-.58 4.84.13 0 .39-.32.57-.72zm124.29.46c.09-.15.04-.27-.1-.27-.15 0-.34.12-.43.27-.1.14-.05.26.1.26.15 0 .34-.12.43-.26zm1.13-1.21c-.09-.1-.3.11-.48.45-.3.6-.3.6.16.17.26-.26.4-.53.32-.62zM42.99 82.07c0-.86.08-1.96.17-2.45.14-.8.12-.85-.24-.5-.24.25-.46 1.18-.57 2.45-.15 1.75-.11 2.05.23 2.05.32 0 .41-.33.41-1.55zm-1.24-.37c.17-1.13-.23-1.34-.62-.3-.3.76-.04 2.27.27 1.66.11-.2.26-.81.35-1.36zm-4.18-1.58a6.5 6.5 0 0 0 .68-1.78c-.09 0-.7.95-1.37 2.1-.9 1.52-1.14 2.17-.93 2.38.21.22.36.13.54-.31.14-.34.62-1.41 1.08-2.4zm.58 1.98c.23-.55.57-1.64.75-2.44l.34-1.45-.5.66c-.55.7-1.57 3.2-1.57 3.84 0 .73.56.38.98-.61zm.87.73a.27.27 0 0 0-.26-.27.27.27 0 0 0-.27.27c0 .14.12.26.27.26.14 0 .26-.12.26-.26zm-7.67-.86c0-.18-.12-.51-.27-.73-.2-.3-.25-.24-.26.33 0 .4.12.73.26.73.15 0 .27-.15.27-.33zm117.51-.18c.34-.28.53-.6.42-.71-.11-.12-.53.11-.92.5-.82.82-.44.97.5.21zm5.12.25c.1-.15-.01-.2-.25-.1-.46.17-.54.36-.16.36.14 0 .32-.12.41-.26zm-114.49-.6c.17-.33.6-1.47.96-2.54.7-2.09.85-2.35 1.14-2.06.1.1.05.42-.13.7-.39.62-.41 1.05-.06 1.05.14 0 .56-.65.94-1.45.48-1.02.84-1.46 1.2-1.46.28 0 .5-.13.5-.3 0-.46-1.78-.07-2.77.6-.7.49-1.01 1.04-1.69 3.04a26.3 26.3 0 0 0-.82 2.73c0 .49.42.31.73-.31zm-15.23-.78c.53-1.1 2.69-2.33 4.1-2.33.48 0 .87-.11.87-.25 0-.42-1.88-.65-2.44-.3a1.4 1.4 0 0 1-1.01.15c-.29-.1-.52-.05-.52.1 0 .14-.3.61-.66 1.05-.87 1.03-1.63 2.79-1.14 2.63.2-.06.55-.54.8-1.05zm19.9-.26c-.07-1.92-.1-2.16-.27-2-.19.2-.35 2.9-.19 3.18.28.46.51-.12.47-1.18zm111 .77c.62-1.6.94-3.1.92-4.3-.02-1.39-.8-3.83-1.21-3.83-.28 0-1.12.83-2 1.97-.48.63-.55.96-.41 2.1.08.74.31 1.7.51 2.15.32.7.34.53.19-1.66-.11-1.63-.08-2.45.1-2.45.16 0 .5-.07.74-.17.4-.15.44-.06.3.63-.13.65-.04.9.41 1.2.56.37.57.4.12 1.77-.5 1.56-.6 3.19-.18 3.19.15 0 .38-.27.5-.6zM36.75 79.6c.9-1.57.56-1.63-.58-.1-.87 1.15-1.27 2.57-.5 1.74.2-.21.69-.95 1.08-1.64zm137.1.92c-.3-.29-.5.17-.29.65.2.46.21.46.32 0 .06-.27.05-.56-.04-.65zm-120.3-2.58c.11-.87.34-1.92.5-2.33.38-.92.4-2.47.04-2.7-.42-.26-1.05 1.56-1.05 3.03 0 .73-.2 1.81-.43 2.4-.3.74-.37 1.36-.23 2.05l.2 1 .4-.93c.21-.51.47-1.64.58-2.52zm-7.97 1.55c-.05-.25-.22-.5-.4-.55-.2-.06-.25.1-.16.44.17.65.68.74.56.1zm1.24-1.42c.09-.29.4-.65.68-.8.8-.43.63-1.05-.27-1.05-.63 0-.87.18-1.22.92-.24.5-.35 1.03-.26 1.19.28.45.89.31 1.07-.26zm-17-1.24c-.18-.07-.33-.35-.33-.63 0-.33-.19-.5-.53-.5-.3 0-.53.11-.53.26 0 .14.18.26.4.26.21 0 .4.22.4.49 0 .66.3.91.64.54.2-.21.18-.33-.05-.42zm26.42-2.2-.24-1.19-.03 1.75c-.01.95.06 1.83.17 1.94.31.31.37-1.17.1-2.5zm-22.78 1.42c0-.2-.24-.5-.53-.68-.3-.18-.53-.5-.53-.7 0-.43-.76-1.07-1.3-1.08-.24-.01-.28.1-.1.32.13.18.4.86.6 1.52.2.65.4 1.27.46 1.38.15.3 1.4-.37 1.4-.76zm12 .01c.09-.2 0-.37-.19-.37-.36 0-.97.52-.97.83 0 .32 1.02-.07 1.17-.46zm-17.96.16c.1-.14-.01-.26-.23-.26-.64 0-.8-.55-.2-.71.31-.08.5-.25.41-.38-.23-.37.9-.27 1.73.15.7.37.76.36.9-.19.16-.6-.06-.81-1.46-1.43-.59-.26-.77-.24-1.08.13-.51.61-1.52 2.4-1.52 2.7 0 .34 1.25.33 1.45 0zm12.55-3.13c.31-.39.9-1.41 1.32-2.27.72-1.51.73-1.61.34-2.52-.22-.52-.5-1.95-.62-3.19-.61-6.67-.76-7.05-2.67-6.76l-2.05.3c-.86.14-1.06.27-1.06.73 0 .62 1.25 1.75 2.71 2.45.8.37 1 .7 1.61 2.5.39 1.15.71 2.36.73 2.7 0 .32.17 1.01.35 1.52.29.78.28 1.03-.07 1.59a5.31 5.31 0 0 1-2.38 2.3c-.77.32-.86.46-.72 1.09.1.39.43 1.21.75 1.83l.58 1.12.3-1.35a6 6 0 0 1 .88-2.04zM57.8 75.8c0-.37-.13-1.23-.3-1.92-.44-1.94-.48-2.02-.8-1.7-.2.19-.14.87.17 2.28.44 1.98.93 2.68.93 1.34zm-20.76-.62c-.27-.43-.67-.08-.67.58 0 .52.03.53.42.14.24-.24.35-.56.25-.72zm-1.47-.04c0-.3-.12-.47-.26-.38-.15.09-.27.33-.27.54 0 .21.12.38.27.38.14 0 .26-.24.26-.54zm6.8-.93c.06-.19-.02-.61-.2-.95l-.33-.6-.25.56c-.14.31-.48.62-.76.7-.35.09-.5.37-.5.94v.8l.95-.55c.53-.31 1.01-.72 1.08-.9zm10.14 1.1c0-.07-.12-.2-.27-.29-.14-.09-.26-.04-.26.12 0 .15.12.28.26.28.15 0 .27-.05.27-.12zm77.78-.13c.48-.13.67-.37.67-.83 0-.58.13-.65 1.07-.68 1.22-.03 3.03-.8 3.03-1.28 0-.18.3-.91.68-1.62.62-1.17.7-1.6.73-4.53.03-2.62-.04-3.32-.37-3.65-.38-.37-.5-.31-1.3.68a4.87 4.87 0 0 1-1.64 1.36c-.42.14-.94.6-1.16 1.02-.21.41-.8 1.09-1.31 1.5-.51.4-.92.9-.92 1.13.01.3.1.28.39-.1.2-.28.54-.44.74-.36.47.18.8 2.36.4 2.6-.16.1-.28.55-.27 1 .02.71-.07.82-.66.82-.64 0-.67-.05-.54-1.2.1-.83.04-1.17-.16-1.1-.17.05-.34.41-.39.8-.1.82-.07.8-.94.41a3.07 3.07 0 0 0-1.6-.12c-1.18.22-1.25.88-.27 2.72.82 1.55 1.93 1.96 3.82 1.43zm-75.05-.41c.09-.22.04-.46-.1-.55-.14-.08-.25.09-.25.39 0 .64.14.7.35.16zm3.6-.34c0-.4-.18-1.2-.39-1.79-.44-1.23-.48-1.72-.14-1.72.13 0 .44.6.68 1.32.73 2.21 1.32 1.4.82-1.12-.18-.9.48-1.02.77-.13l.2.6.12-.66c.09-.45-.05-.8-.46-1.12-.56-.46-.6-.45-1.75.49-.74.6-1.13 1.12-1.05 1.39.07.23.27 1.1.45 1.94.34 1.6.77 2.05.75.8zm-13.8-1.33c-.04-.43-.26-.75-.54-.8-.38-.08-.46.1-.46.96 0 1.08.48 1.6.88.92.11-.2.17-.69.13-1.08zm19.37.36 3.7-1.6a87 87 0 0 1 7.02-2.73c3.9-1.42 3.76-1.35 3.92-1.94.1-.4-.13-.65-1.13-1.16a3.9 3.9 0 0 0-2.72-.48c-.94.1-1.52.04-1.64-.15-.1-.17-.54-.3-.97-.3-.61 0-.9-.2-1.32-.9-1.04-1.77-4.13-3.23-6.18-2.92-1.58.23-2.34-.19-2-1.1.15-.37.26-.85.26-1.06 0-.46-1.52-1.16-2.5-1.16-.37 0-.68-.15-.7-.33l-.06-1c-.04-.54-.31-.76-1.62-1.28-1.55-.62-1.6-.62-3.51-.2-1.07.23-2.28.43-2.7.43-.88 0-1.6.23-1.6.51 0 .1.47.34 1.06.51 1.26.38 2.9 1.75 2.9 2.42 0 .26.42 1.1.93 1.85.51.76 1 1.64 1.07 1.96.24.92-.32 1.98-1.87 3.53a7.1 7.1 0 0 0-1.45 1.76c0 .39 1.32 2.5 1.96 3.14.46.45.56.39 2.65-1.5l2.17-1.98 2.7-.5c3.48-.66 3.84-.49 2.84 1.38-.91 1.73-1.17 2-2.34 2.53-1 .45-2.3 1.9-2.3 2.56 0 .56 1.82.4 3.43-.3zm-11.31-1.3c.12-1.2.01-1.77-.35-1.77-.12 0-.16.18-.07.4.08.22-.05.82-.3 1.34-.24.52-.38 1.13-.29 1.35.27.7.88-.09 1-1.31zm-9.97.23c-.1-.52-.29-.94-.43-.94-.32 0-.31.18.07 1.23.4 1.1.6.94.36-.3zm127.64.69c0-.27-.23-.7-.52-.97-.62-.55-.64-.5-.24.62.32.92.76 1.12.76.35zm-137.21-.7c.36-.27.64-.3.99-.12.62.34 1.65.07 2.23-.57.26-.28.67-.5.92-.5.6 0 1.32-.84.85-1-.53-.17-.4-1.12.15-1.12.4 0 .47-.2.43-1.26-.03-.69-.24-1.7-.48-2.24a5.08 5.08 0 0 1-.43-1.5c0-.59-1.52-1.88-2.21-1.88-.52 0-1.49-1.05-1.9-2.06-.23-.55-.22-.92.05-1.57.4-.95.5-6.57.13-6.8-.28-.17-1.66 1.97-2.21 3.42-.48 1.24-.85 4.39-.62 5.14.12.37.5.57 1.36.7.85.12 1.16.28 1.06.53-.07.2-.02.43.12.51.66.41.16.8-1.09.85-1.27.05-1.33.02-1.16-.53l.18-.59-.64.6c-.36.33-.84.6-1.07.6-.54 0-1.02-1.35-.69-1.95.47-.83.78-3.59.52-4.61-.14-.54-.32-1.52-.42-2.18a4.7 4.7 0 0 0-.67-1.85l-.5-.66-.65.66c-.36.36-1.09 1.67-1.63 2.91-.96 2.21-.97 2.29-.79 4.63.1 1.31.4 3 .66 3.76.27.76.42 1.63.34 1.92-.08.3.01.72.2.95.27.32.26.52-.02 1.05-.3.56-.28.72.1 1.14.24.26.44.64.44.84 0 .2.53.87 1.2 1.5.96.93 1.37 1.14 2.17 1.15.55 0 1.17.12 1.39.26.55.36 1.1.31 1.69-.13zm-.96-1.65c-1.1-.12-1.3-.46-.42-.7.86-.22 2.9.12 2.79.47-.11.32-.88.4-2.37.23zm-1.08-3.69c-.1-.1-.18-.35-.18-.55 0-.2-.26-.59-.57-.84-.68-.55-.46-1.08.44-1.08.35 0 .92-.13 1.28-.3 1-.45 2.55.38 2.55 1.37 0 .42.12.83.27.92.15.09.2.28.12.41-.17.28-3.64.34-3.91.07zM27.9 58.5c0-.88.11-1.6.25-1.6.3 0 .45 1.13.32 2.32-.17 1.47-.57.95-.57-.72zm147.24 12.43c-.23-.74-.76-.67-.56.07.08.32.16.77.17.99 0 .31.07.3.28-.07.15-.26.2-.7.1-1zm-131.47-.46c-.29-.28-.44.11-.24.62.19.48.2.48.3.02.05-.27.02-.55-.06-.64zm8.22-.91c-.08-.21-.14-.15-.16.16 0 .28.05.43.14.35.09-.1.1-.32.02-.51zm10.56.11c.27-.37.4-.4.67-.13.51.5.72.41 1.3-.53.73-1.2.67-1.32-.6-1.13-1.32.2-2.85.66-2.85.84 0 .17.9 1.4 1.03 1.4.06.01.26-.2.45-.45zm64.95-.07c.56-.3.69-.79.2-.79-.36 0-1.28-.78-1.28-1.09 0-.12.36-.4.8-.62.82-.43 3.03-3.01 2.79-3.26-.08-.08-.59.3-1.13.84-1.33 1.33-3.56 2.78-4.6 2.99-.6.12-.8.08-.66-.14.1-.17.35-.3.55-.3.5 0 3.73-2.21 4.95-3.37a4.6 4.6 0 0 0 1.12-1.53c.17-.67.9-1.07 1.27-.7.15.14.08.62-.15 1.18-.45 1.07-2.97 4.32-3.52 4.53-.5.19-.45.95.06.95.78 0 1.4-.53 1.7-1.48.2-.6.72-1.23 1.41-1.73a5.88 5.88 0 0 0 1.5-1.55c.63-1.21 1.81-2.39 2.38-2.39 1.8 0-1.56-3.13-3.8-3.55a4.75 4.75 0 0 1-1.84-1.05 7.36 7.36 0 0 0-1.35-1.04c-.27-.1-.38-.62-.37-1.82 0-1.69-.5-3.08-1.46-4.05-.34-.33-.44-.95-.44-2.67 0-1.22-.1-2.44-.24-2.69-.13-.25-.44-.96-.69-1.56a5.26 5.26 0 0 0-1.08-1.65c-.35-.3-.63-.75-.63-.99 0-.53-3.4-3.86-3.81-3.72-.19.07-.3.93-.29 2.33.01 2.1.06 2.29.94 3.54 1.08 1.54 3.16 5.27 3.16 5.68 0 .52-.75.28-1.26-.41-.48-.66-.54-.67-1.6-.35-.62.18-1.25.49-1.41.68-.17.2-.5.36-.76.36s-.62.18-.81.41c-.19.23-.67.58-1.07.8-.88.45-1.64 2.3-2.06 5.05-.32 2.08-.2 2.78.46 2.67.28-.04.44.12.45.46.01.8.3 1.13 1.18 1.32.43.1.9.36 1.02.6.13.22.63.44 1.13.47 1.24.1 4.94-1.13 6.05-2 1.48-1.15 2.43-1.55 3.1-1.3.33.13.6.28.6.35 0 .15-2.55 1.6-4.8 2.74-.96.48-2.47 1.02-3.35 1.18-1.53.29-1.63.35-2.28 1.55-.77 1.41-.88 2.5-.27 2.73.57.22.26.62-.62.81-.4.1-.85.43-.99.75-.36.82-1.55.81-1.66 0-.06-.42.05-.6.35-.6.26 0 .4-.17.35-.44-.13-.68-.54-.68-1.4 0l-.76.62.73.97c.63.82.9.97 1.77.97.56 0 1.03-.11 1.03-.25 0-.13.41-.38.92-.55.81-.27 1.1-.22 2.37.38.79.37 1.65.68 1.92.7.26 0 1.25.29 2.2.63 1.88.7 3.19.82 3.98.4zm-7.42-4.92c-.77-.65-1.06-1.82-.4-1.63.14.04.23.18.19.3-.05.13.12.46.37.74.57.63 2.52.68 3.03.08.19-.23.77-.64 1.28-.9 1.61-.84 2.67-2.07 2.67-3.1 0-.62.1-.89.33-.82.54.18.51 1.33-.04 2.23-1 1.62-4.51 3.8-6.13 3.8-.26 0-.84-.32-1.3-.7zm2.7-1.88c-.54-.19-.36-.6.27-.6.33 0 1.1-.24 1.72-.52.94-.43 1.13-.45 1.13-.12 0 .52-2.41 1.48-3.11 1.24zm-4.54-5.4c-.3-.33-.55-.67-.55-.77 0-.4 1.12-1.13 1.8-1.18a21 21 0 0 0 1.88-.26c1.33-.24 1.36.23.04.52-.42.1-.9.34-1.08.54-.24.3-.16.4.45.54 1.46.32 1.53.47.31.66-.68.11-1.47.28-1.76.37-.37.12-.71-.02-1.09-.42zm4.48.06c0-.14.23-.32.5-.41.29-.1.93-.62 1.43-1.17 1.1-1.22 1.51-1.5 1.51-1.03 0 .6-2.26 2.85-2.87 2.85-.31 0-.57-.1-.57-.24zm-5.29-4.59c0-1.5.47-2.35 1.59-2.9 1.6-.8 4.1-.49 3.2.4-.16.16-.3.51-.3.78s-.17.83-.38 1.24c-.31.6-.7.82-2.1 1.18-.95.23-1.79.43-1.87.43-.08 0-.14-.5-.14-1.13zm1.85-1.67c0-.47-.57-.39-.73.1-.06.18.08.32.31.32.23 0 .42-.2.42-.42zm1.85-.13c0-.14-.18-.25-.4-.25-.4 0-.52.32-.22.61.21.21.62-.02.62-.36zm2.19-4.4a1.4 1.4 0 0 1-.6-1.16c0-.45-.19-.85-.46-1-.6-.32-2.57-4.13-2.33-4.51.3-.49.52-.33 1.04.77.28.57.7 1.11.95 1.19.24.07.63.54.87 1.03.26.55.6.89.88.86.6-.05 1 1.18.79 2.36-.2 1.02-.3 1.06-1.14.47zM48.5 67.76c2.14-.88 2.68-.96 3.16-.48.25.25.41.2.74-.27.53-.76 1.46-1.63 1.74-1.63.12 0 .22-.13.22-.28 0-.15-.2-.24-.46-.2-.33.06-.47-.11-.5-.58-.04-.78.29-1.05 1.3-1.06.66 0 .71-.07.56-.73a7 7 0 0 0-.81-1.73c-.35-.55-.75-1.29-.88-1.64-.33-.85-1.44-1.55-2.47-1.54-.47 0-.96-.08-1.1-.2-.15-.11-.84-.07-1.53.08-1 .23-1.23.39-1.12.74.17.53-1.19 1.21-1.89.94-.4-.15-.4-.2.02-.67.5-.54.36-1.07-.27-1.07-.22 0-.38.25-.38.6 0 .77-.64 1.71-.88 1.31-.1-.15.06-1.27.35-2.48.72-2.99.7-5.09-.07-6.42-.68-1.2-1.1-1.44-1.37-.76a33.74 33.74 0 0 0-1.36 6.16c-.26 2.34-.2 3.31.3 5.33.4 1.53.42 1.83.39 4-.02.97.13 1.47.67 2.17.68.9.89.97 3.16 1.15.3.03 1.4-.3 2.48-.74zm-.75-1.64c0-.4.3-.82.87-1.2 1.13-.77 1.34-.76 1.13.08-.15.6-.1.66.36.51.75-.24.7.35-.05.63-.33.13-.98.31-1.46.41-.77.17-.86.13-.85-.43zm-3.86-2.1c-.22-.34.08-.71.94-1.16.9-.46 1.2-.18.66.59-.42.6-1.37.94-1.6.58zm3.18-1.93c-.52-1.1-.2-1.91.86-2.18.6-.15.85-.02 1.59.84.97 1.13 1 1.57.1 1.61-.32.02-.72.17-.89.33-.56.56-1.22.32-1.66-.6zm95.26 2.73c.21-1.8.61-3.94.89-4.74.5-1.46.94-5.12.58-4.9-.11.07-.35 1.05-.54 2.18-.22 1.3-.53 2.24-.84 2.54-.31.3-.48.84-.48 1.54 0 .59-.14 2.19-.3 3.56-.26 2.22-.19 3.6.17 3.23.07-.07.3-1.6.52-3.4zm1.64 2.1c-.09-.22-.15-.16-.16.15-.01.28.05.44.14.35.08-.09.1-.32.02-.5zm-63.82-2.16c.2-.49.56-1.04.78-1.22.23-.2.42-.51.42-.72 0-.56 2.12-4.66 2.6-5.05.25-.2.85-.58 1.36-.87.51-.29 1.64-.98 2.52-1.52 2.46-1.55 5.07-2.97 5.46-2.97.52 0 2.57-1.42 3.06-2.11l.42-.6-5.26.15c-11.22.34-19.36.71-21.01.97-.95.15-4.16.33-7.15.4-5.05.14-12.64.6-12.95.79-.08.05-.1.74-.05 1.54l.09 1.46.76-.22c.42-.12 2.24-.3 4.05-.4l3.3-.2 1.2.88c.68.48 1.22 1.06 1.22 1.3 0 .27.54.69 1.4 1.08 1.35.64 1.46.78 1.94 2.57.05.21.6.33 1.53.33.8 0 1.52.1 1.6.23.07.13.66.36 1.3.53.88.22 1.48.63 2.37 1.62.65.73 1.35 1.32 1.55 1.32.2 0 .64.2.97.42.44.32.91.38 1.87.25 1.03-.14 1.44-.07 2.17.37 1.34.82 2.04.72 2.48-.33zm53.98-1.76c.73-.77.77-1.27.08-1-.42.17-1.4 1.79-1.07 1.79.13 0 .57-.36.99-.8zM24.27 58.5c.1-.1.27-.56.36-1.02l.17-.86H21.03v.78c0 1.44.18 1.59 1.68 1.42a5.44 5.44 0 0 0 1.56-.32zm14.36-.97c1.56-.08 1.59-.09 1.75-.95.58-3 .74-4.03.63-4.14-.12-.13-2-.1-4.24.07-.89.07-1.32.21-1.3.45.03 1.25.48 3.66.68 3.66.12 0 .23.12.23.27 0 .14-.18.26-.4.26-.22 0-.4.2-.4.43 0 .33.16.38.73.23.4-.11 1.44-.24 2.32-.28zm10.7-1.42c.36-.66.35-2.08-.01-3.22-.4-1.24-1.12-2.62-1.36-2.62-.11 0-.2-.16-.2-.36 0-.2-.23-.65-.5-.98-.48-.6-.5-.6-.77-.08a8.51 8.51 0 0 0-.47 2.13c-.14 1.23-.08 1.75.23 2.23.22.35.48 1.11.58 1.7.27 1.64.32 1.71 1.3 1.71.65 0 1.01-.15 1.2-.5zm-23.72-1.48c.39-.8.71-1.51.71-1.58 0-.2-2.01-.15-5.69.16-4.97.41-5.11.47-2.9 1.08 1.01.28 2.08.74 2.38 1.01.39.37 1.02.53 2.38.6a38 38 0 0 1 2.12.14c.15.03.6-.6 1-1.4zm5.95-.26c.32-.66.58-1.26.58-1.33 0-.06-.43-.12-.95-.12-.91 0-.95.03-.76.73.11.4.18 1 .17 1.32-.06.94.33.7.96-.6zm-9.55-2c1.34-.13 3.02-.24 3.72-.24 1.05 0 1.4-.13 1.87-.67.31-.36.7-.66.84-.66.15 0 .53.3.84.66.57.65 1.8.92 1.8.4 0-.14.18-.26.4-.26.22 0 .4.12.4.26 0 .56.78.23 1.11-.46.43-.9 1.28-1.06 1.92-.34.43.47.8.54 3.16.53 1.47 0 2.8-.09 2.96-.2.16-.1.37-.6.47-1.1.36-1.87 1.67-2.4 2.9-1.18l.68.68.39-.93c.36-.87 1.1-1.5 1.74-1.5.16 0 .55.57.88 1.26.7 1.5 2.02 2.27 3.87 2.26 3.54 0 17.33-.64 18.81-.87.95-.14 5-.38 9-.54L92.34 49c3.66-.14 5.5-.32 5.95-.57l.66-.36-.89-.2c-.9-.18-1.85-.89-1.58-1.16.09-.08.45-.01.81.15.5.23 1.03.22 2.12 0 1.54-.32 2.9-1.05 1.99-1.07-.26 0-.47-.12-.47-.27 0-.14-.27-.26-.61-.26-.47 0-.61.14-.6.6.02.52-.12.6-1.23.67-1.22.08-1.26.06-1.27-.66 0-.41-.18-.98-.4-1.26-1.02-1.36-.22-1.87 2.76-1.76 1.53.06 1.92 0 1.82-.28-.08-.24-.5-.33-1.22-.29-.95.07-1.1 0-1.1-.46 0-.44.18-.53 1-.53.56 0 1.15.13 1.3.3.23.21.85.16 2.38-.19l2.07-.48-3.18-.32-3.37-.35a2.56 2.56 0 0 1-.78-.68c-.31-.37-.8-.66-1.06-.66-.65 0-2.4-.74-2.62-1.11-.1-.16.02-.66.28-1.11.48-.87 1.78-1.43 3.4-1.47.49 0 1.06-.2 1.28-.41.22-.22.9-.41 1.5-.42l1.11-.02-1.32-.47c-.83-.29-1.36-.64-1.42-.94-.07-.36.02-.44.36-.3.33.12.41.06.3-.23-.08-.22-.05-.4.08-.4.48 0 1.86.93 1.87 1.25 0 .19.03.34.06.34l2.83.5c1.51.28 2.94.44 3.17.36 1.47-.51 2.67-1.2 2.67-1.52 0-.69-4.36-1.06-5.12-.44-.28.24-.7.22-1.78-.05-1.42-.37-2.08-.97-1.06-.97.95 0 .61-.41-1.26-1.53l-1.82-1.08-3.14-.07a22.5 22.5 0 0 0-3.75.14c-.42.14-.64.08-.75-.2-.09-.24-.46-.4-.91-.38a2.4 2.4 0 0 1-1.27-.35l-1.76-1.26-1.25-.9-1.98.33c-1.23.2-2.16.5-2.47.8-.55.56-4.1 1.7-4.5 1.45-.45-.28-.04-.59 1-.77 1.14-.2 2.97-.98 2.98-1.28 0-.1-.92-.2-2.05-.2s-2.82-.12-3.77-.25c-1.79-.26-2.39-.7-2.37-1.71 0-.51.03-.52.36-.08.19.25.57.46.85.45.48 0 .48-.02 0-.38-.55-.42-.36-1 .25-.76.23.09.56-.05.75-.32.3-.4.5-.44 1.23-.23 1.24.36 1.33.9.14.9-.75 0-.95.1-.95.5 0 .9.6 1.13 2.1.8 1.06-.22 1.45-.21 1.77.05.55.46 5.17.5 5.32.04.07-.18-.1-.33-.37-.33-.26 0-.84-.19-1.28-.42-.43-.22-1.82-.69-3.07-1.02-1.25-.34-2.5-.73-2.78-.87a7.34 7.34 0 0 0-1.69-.44c-1.35-.2-2.46-.83-2.3-1.3.06-.19.66-.31 1.5-.31 1.48 0 2.07-.46 1.01-.79-.33-.1-3.99-.24-8.13-.3-4.13-.06-7.57-.16-7.63-.22-.06-.06-.03-.25.07-.41.14-.22 1.8-.26 5.92-.14 3.15.09 6.18.22 6.74.29.86.1 1.04.04 1.16-.41.16-.63.67-.7 1.13-.14.19.22.58.4.87.4.52 0 .52-.02.06-.53-.27-.3-.41-.6-.33-.69.22-.21 2.02.46 2.37.89.23.28.4.25.84-.16.95-.85 2.2-1.14 3.16-.73 1.04.44 2.32 1.75 1.71 1.75-.22 0-.7-.23-1.05-.52-.83-.64-1.82-.88-2.33-.56-.33.22-.3.36.23.91.9.96.52 1.31-1.17 1.1-.89-.1-1.46-.07-1.57.11-.2.32 0 .4 1.84.71 1.68.3 1.5.78-.26.72-.73-.03-1.03 0-.66.07 1.05.2 2.77.87 5.09 2 .85.4 1.97.22 3.46-.57 1.82-.97 4.25-1.35 4.5-.7.1.27.47.43.96.43.6 0 .8.12.8.49 0 .29.54.83 1.37 1.36l1.36.88 1.21-.47c1.79-.69 2.37-.77 2.81-.4.64.52.46.8-.46.76-1.06-.05-2.32.43-2.31.88 0 .19.35.54.78.78.64.37 1.22.42 3.14.3 1.62-.1 2.4-.06 2.53.15.1.16.66.3 1.23.3.87 0 1.04-.1 1.04-.53 0-.7.38-.67 1.41.1.76.56 2.56 1.14 2.56.81 0-.07-.42-.97-.94-2a11.86 11.86 0 0 1-1.24-4.12l-.3-2.24-.94.12c-.52.07-1.73.27-2.7.46-2.15.4-3.42.05-5.57-1.53-2.19-1.62-2.17-1.61-5.37-1.36-1.6.12-3.23.3-3.62.38-.57.12-.87-.03-1.56-.78a4.6 4.6 0 0 0-1.4-1.12c-.31-.1-.98-.65-1.48-1.23l-.9-1.05-1.9.16a9.52 9.52 0 0 1-2.8-.12c-.49-.15-4.1-.38-8.04-.51-3.93-.13-8.5-.42-10.15-.64a18.81 18.81 0 0 0-3.62-.25c-.71.18-3.53-.48-5.2-1.2-.62-.28-2.09-.58-3.25-.68a98.6 98.6 0 0 1-12.3-1.98 95.55 95.55 0 0 0-7.63-1.31c-2.92-.3-3.7-.2-11.7 1.65-1.52.35-3.66.79-4.75.96-1.1.18-2.52.43-3.18.56-.65.12-1.84.3-2.64.4-.8.1-1.61.3-1.8.45-.2.17-.44.18-.58.04-.13-.13-.87-.2-1.65-.16l-1.4.1v9.3c0 5.12-.06 11.2-.13 13.53l-.12 4.22 1.63.33c2.47.5 4.6 2.05 5 3.66.1.43.48.65 1.51.91 2.8.71 4.15 1.83 4.15 3.46 0 .7.2 1.27.58 1.71l.57.67 5.05-.02c4.66 0 7.15-.28 7.72-.85.1-.1.47-.2.82-.2.7 0 3.25-1.2 3.25-1.53 0-.23-5.44-1-8.73-1.25-3.5-.26-4.32-.4-4.02-.71.32-.32 5.37.08 9.63.76 3.54.56 6.54.22 8.28-.96.58-.4 1.66-.85 2.38-1 .73-.17 1.98-.49 2.77-.71.8-.23 1.82-.41 2.28-.41.52 0 1.2-.3 1.82-.79a6.82 6.82 0 0 1 1.5-.94c.27-.1.44-.26.37-.39-.23-.37-2.12-.58-5.19-.59-2.43 0-2.85-.06-2.6-.37.45-.54 5.8-.5 7.67.06 1.2.36 1.59.37 2.35.1.5-.18 1.53-.35 2.27-.38a3.33 3.33 0 0 0 2.4-.89c.82-.65 1.6-.95 3.62-1.37 1.41-.3 2.9-.52 3.3-.5.4.03 1.07-.14 1.5-.38.77-.41 1.21-.38 1.21.1 0 .44-1.55 1.04-2.72 1.04-2.32 0-4.24.55-6.17 1.75-1.55.97-2.02 1.14-2.72 1-.98-.2-3.41.5-4.37 1.25-.35.27-.75.5-.89.5-.13 0-.46.24-.72.53-.47.52-.47.53.29.54.82 0 1.69.52 1.69 1.01 0 .4-.32.38-1.23-.1-1.4-.73-6.25-.32-6.79.58-.11.2-.65.35-1.19.36-.58 0-1.7.37-2.8.92-1.13.58-2.2.92-2.83.92-.58 0-1.1.16-1.22.37-.31.55-3.17 2.02-3.9 2.02-.36 0-.7.1-.78.22-.32.52-3.3.85-8.15.92-2.87.03-5.29.14-5.37.22-.1.09-.08.77.02 1.51l.18 1.36 1.88-.15c1.04-.09 2.98-.26 4.32-.4zm35-7.37c0-.3.75-.66 2-.97.87-.22.85.36-.02.7-1.3.48-1.98.58-1.98.27zm5.1-.09c-.64-.15-1.13-.42-1.13-.63 0-.47.64-.45 1.6.05.43.22.87.39.97.37.11-.01.24.1.3.26.1.33-.2.32-1.74-.05zm-27.98-2.18c-.88-.2-3.14-.43-5.03-.52-1.9-.09-3.74-.23-4.1-.3-.58-.13-.6-.17-.2-.4.3-.17 1.8-.16 4.23.03 4.7.35 7.08.77 7.08 1.24 0 .4.1.4-1.98-.05zM81.8 41.4c-.4-.36-.9-.65-1.08-.65-.19 0-.53-.21-.77-.47-.34-.39-.76-.46-2.18-.4-.97.05-1.97.2-2.24.34-.27.15-.8.26-1.17.26-.43 0-.68.15-.68.4 0 .55-.43.5-1.06-.13-.42-.43-.88-.53-2.3-.53-1.29 0-1.7-.08-1.48-.3.37-.36 3.15-.37 4.1 0 .69.27 1.54.1 3.05-.57a5.57 5.57 0 0 1 2.11-.1c2.1.23 5.36 1.94 4.95 2.6-.21.34-.44.26-1.25-.45zm-16.58-.36c0-.22 1.38-.82 1.89-.82.5 0 .18.74-.37.9-.87.22-1.52.2-1.52-.08zm-9.53-.69c0-.43.24-.49.9-.23.65.24.5.63-.24.63-.4 0-.66-.15-.66-.4zm.92-3.65a5.7 5.7 0 0 0-1.66-.44c-.62-.08-1.13-.26-1.13-.4 0-.7 3.27-.22 3.55.52.2.53-.14.68-.76.32zM68.8 36c-1.74-.08-2.89-.24-2.85-.4.04-.15 1.59-.33 3.57-.42 1.93-.1 4.88-.42 6.55-.73 3.38-.63 3.97-.68 3.97-.34 0 .13-.98.39-2.18.57-1.2.18-3.08.59-4.17.9-1.65.46-2.46.53-4.9.42zm-16.47-.18c-.46-.18-.42-.62.06-.62.22 0 .4.18.4.4 0 .22-.03.39-.07.38l-.4-.16zm-3.4-1.45c-.16-.26.03-.3.95-.23 1.1.08 1.25.52.17.48-.54-.02-1.05-.13-1.12-.25zm34.35-.28c.16-.48.57-.52 1.14-.09.5.37.47.4-.36.4-.57 0-.85-.1-.78-.3zm-38.43-.2a64.51 64.51 0 0 1-6.56-2.02c-2.92-1.24-5.34-1.96-7.1-2.12-1.26-.11-1.93-.28-1.86-.47.2-.57 3.13-.23 5.6.65 6.5 2.32 9.88 3.38 11.29 3.54.85.1 1.54.28 1.54.42 0 .3-1.55.29-2.9 0zm45.78-1.43c0-.35.32-.44 1.78-.48 3.43-.08 3.92-.15 5.46-.84 1.7-.77 2.02-.83 2.02-.43 0 .39-2.78 1.6-3.92 1.7-4.93.5-5.34.5-5.34.05zm-34.4-1.77c-8.06-2.01-11.2-2.63-14.24-2.8-2.08-.1-3-.27-3.5-.62-.88-.61-2.94-1.18-6.34-1.72-1.6-.26-2.86-.6-2.98-.8-.26-.47-4.16-2.52-6.17-3.25a10.5 10.5 0 0 0-4.02-.58c-1.66 0-3.25-.21-5.13-.67-1.61-.39-3.51-.66-4.63-.66-1.81 0-2.57-.27-1.9-.68.54-.34 4.02-.1 6.18.42 1.16.29 3.5.57 5.2.64 2.51.1 3.4.25 4.89.84 1 .4 1.94.8 2.08.9.15.11 1.46.8 2.91 1.53A17.16 17.16 0 0 0 34 25.1c1.52.28 3.43.8 4.23 1.18.99.45 1.95.67 3 .69 2.2.03 3.85.36 12.48 2.46 9.1 2.21 8.33 2 8.33 2.33 0 .38-.04.38-5.82-1.06zm31.49 1.1c0-.12.35-.37.78-.55.43-.18.92-.5 1.1-.7.39-.47.76-.47.76.01 0 .2-.4.62-.89.93-.92.57-1.75.72-1.75.32zm-8.05-.75c-.1-.11-1.76-.26-3.68-.35-3.08-.12-3.67-.23-5-.87-1.54-.72-1.96-1.23-1.02-1.23.28 0 .55-.14.6-.31.07-.19.3-.24.59-.13.26.1.41.33.34.5-.09.24.2.31 1.02.24 1.02-.08 1.12-.04 1 .44-.12.47.03.54 1.43.7.87.1 2.26.06 3.12-.1 2.17-.4 2.78-.37 2.6.11-.34.87 2.66.21 4.6-1.01 1.16-.74 2.18-.92 2.18-.4 0 .45-.85 1-1.57 1-.35.01-.83.19-1.06.4-.82.74-4.66 1.5-5.15 1zm7.58-.4c.17-.52 1.53-1.1 1.84-.78.19.18.01.4-.54.69-.97.5-1.45.54-1.3.09zM75.1 28.22a7.63 7.63 0 0 1-.96-.64c-.32-.27-.43-.25-.56.1-.12.32-.36.38-1.02.24-1.32-.28-1.4-.56-.34-1.06.83-.4 1.12-.42 2.05-.14.6.18 1.43.67 1.86 1.1.76.76.76.77.15.74a3.18 3.18 0 0 1-1.18-.34zm.86-.93c-.32-.35-.37-.56-.16-.69.3-.18 1.32.56 1.32.97 0 .4-.7.24-1.16-.28zm31.35-1.1c-.5-.2-.57-.33-.33-.58.35-.35 1.11-.02 1.3.55.13.37-.1.37-.97.02zm-.22-2.02c-.93-.98-1.08-1.4-.5-1.4.4 0 2.28 1.75 2.28 2.13 0 .53-.96.14-1.78-.73zm-36.85-.26c-.36-.07-1.93-.47-3.5-.9a104.6 104.6 0 0 0-6.23-1.43c-1.87-.37-3.89-.9-4.5-1.2-.6-.29-1.34-.52-1.64-.52-.7 0-2.65-.98-2.65-1.33 0-.43.54-.31 4.2.95 2.48.85 3.73 1.16 4.27 1.04.47-.1 1.06-.01 1.55.25 1.26.64 8.05 2.51 9.82 2.7.88.1 1.6.27 1.6.4 0 .22-1.68.25-2.92.04zm24.21-1.14c-.2-.33.53-.65.92-.4.15.09.27.28.27.41 0 .34-.98.32-1.19-.01zm4.02-.44c-.68-.68 1.22-.89 2.08-.23.48.36.43.39-.7.4-.66 0-1.29-.08-1.38-.17zm-12.62-1.38c0-.43.78-.89 1.22-.72.35.13.37.24.1.56-.35.42-1.32.54-1.32.16zm1.9-.35c-.55-.56-.35-1 .47-1 .97 0 1.31.49.67.96-.6.44-.73.44-1.13.04zm1.93-.5c-.1-.16-.04-.43.12-.6.23-.23.37-.2.54.08.26.41.13.8-.25.8-.13 0-.32-.12-.41-.28zm-55-.47c-1.15-.24-2.15-.58-2.2-.77-.15-.41.37-.39 2.79.16 1.06.24 1.93.56 1.94.7 0 .4-.28.39-2.53-.09zm59.28.06c-.54-.3-.68-.5-.47-.7.38-.38 1.62.18 1.62.73 0 .5-.19.5-1.15-.03zm2.8.26c-.17-.08-.32-.31-.32-.53 0-.55.9-.33 1 .24.1.46-.06.53-.67.29zm-10.74-1c-.24-.38-.62-.68-.83-.68-.45 0-.53-.42-.13-.66.47-.3 1.23.12 1.56.84.44.96-.04 1.36-.6.5zm34 26.95c.8-.41.79-.61-.04-1.44a19.82 19.82 0 0 1-1.6-2.38c-.2-.36-.48-1.47-.63-2.46-.15-.98-.4-1.82-.54-1.85-.16-.03-.3.78-.35 1.91-.07 1.74.02 2.16.71 3.57.44.89.92 1.94 1.07 2.34.32.85.33.85 1.38.31zm-20.05-1.44c1.17 0 .89-.78-.3-.82-2.3-.07-2.8.23-1.74 1.07.66.52.77.54 1.04.17.17-.23.62-.42 1-.42zm3.35.14c.28-.35.2-.38-.57-.23-1.67.32-2.05.59-.86.6.67.02 1.23-.13 1.43-.37zm3.23-2.25c1.02-.68 1.38-1.45.54-1.14-.77.29-2.16 1.49-2.01 1.73.16.27.2.25 1.47-.6zm1.26-2.39c.41-.2-4.4-.66-5.46-.52-1.4.18-1.14.45.57.6 1.12.09 4.67.03 4.9-.08zm2.53-.37c.57-.42.42-.78-.22-.54-.44.17-.84.92-.5.92a2 2 0 0 0 .72-.38zm-9.48-.05c-.08-.09-.31-.1-.5-.02-.22.08-.15.15.16.16.27.01.43-.05.34-.14zm-.58-1.14c-.2-.6.28-.97.74-.59a6.8 6.8 0 0 0 2.18.44l1.84.16-.87-.77c-.95-.84-2.06-1.23-4.26-1.52-1.02-.13-1.37-.1-1.24.11.1.16.35.3.56.3.4 0 .5.31.22.6-.09.09-.81-.08-1.61-.38-1-.38-1.54-.46-1.73-.27-.19.19.05.32.76.44.56.09 1.23.28 1.48.41.25.14.65.25.88.25.23 0 .33.13.23.3-.11.18-.6.22-1.4.1-1.6-.24-1.24.1.55.54 1.87.46 1.85.46 1.67-.12zm8.8.14c.4-.2 1.22-.45 1.83-.55.6-.1 1.25-.35 1.42-.56.17-.2.2-.37.08-.37a35.4 35.4 0 0 0-4.76 1.66c-.33.33.7.2 1.43-.18zm-12.51-.96c-.1-.14-.34-.26-.56-.26-.22 0-.32.12-.23.26.09.15.34.27.56.27.21 0 .32-.12.23-.27zm13.46-.96c2.6-1.2 2.72-1.29 2.3-1.8-.28-.33-.42-.34-.9-.04-.32.2-1.28.44-2.14.53-1.1.12-1.67.32-1.92.67-.2.28-.84.58-1.46.69l-1.12.19.65.52c.84.68 1.8.52 4.59-.76zm-7.5-1.15c0-.15-.45-.26-1-.24-.89.02-.92.05-.33.24.95.3 1.32.3 1.32 0zm2.37-.25c0-.34-.23-.45-1.45-.66l-1.06-.18.8.53c.85.56 1.71.71 1.71.3zm5.82-3.63c0-.33-.93-.87-1.52-.88-1.26-.01-.23.99 1.06 1.04.26 0 .46-.06.46-.16zm-4.63-.36c.1-.15-.13-.26-.53-.26-.39 0-.62.11-.52.26.09.15.32.27.52.27s.44-.12.53-.27zm6.04-.6c-.1-.45-.31-.72-.6-.72-.8 0-.84.35-.08.95.4.33.75.57.77.55a3.3 3.3 0 0 0-.1-.77zM106.8 30c3.52-.29 3.61-1.02.13-1.02-2.5 0-4.08.5-3.57 1.12.18.22.54.31.86.22.3-.08 1.46-.23 2.58-.32zm8.16-.51c0-.26-.15-.37-.38-.29-.5.2-.68-.36-.68-2.15 0-1.02-.3-2.33-.9-4.08-.5-1.42-.8-2.65-.67-2.73.14-.08.36.15.5.53.15.37.38.67.53.67.42 0 .33-.32-.34-1.15-.57-.72-.68-.75-2-.57l-1.4.2.09 1.9c.08 1.62.28 2.27 1.36 4.47.98 2.01 1.42 2.64 1.98 2.84.4.14.9.36 1.11.5.59.37.8.33.8-.14zm1.17-.17c-.1-.33-.28-.78-.4-1-.2-.35-.23-.35-.23 0-.01.7.3 1.6.56 1.6.14 0 .17-.28.07-.6zm3.58-.11c1.09-1.4 1.01-1.85-.55-3.26-1.42-1.27-2.44-2.97-3.7-6.1-.31-.8-.82-1.76-1.13-2.15-.31-.38-1.2-1.59-1.98-2.68-1.36-1.9-1.48-1.99-2.65-2.12a4.8 4.8 0 0 0-1.4-.03c-.1.06-.11 1.24-.03 2.62.08 1.38.08 2.51 0 2.51-.35 0-1.51-.62-1.51-.8 0-.3-1.3-.74-3.52-1.19a9.98 9.98 0 0 0-4.08-.13A7.6 7.6 0 0 1 97 16c-.6-.6 3.6-1.4 5.2-1 .72.18.72.18.26-.46-1.2-1.64-1.52-2.26-1.4-2.71.1-.4 0-.47-.56-.37-.65.13-3.5-.89-6.64-2.35-.94-.44-1.53-.57-1.8-.42-.27.15-.98.08-1.9-.18-1.13-.31-1.5-.33-1.59-.09-.16.48-.61.4-1.3-.25-.7-.65-.82-1.54-.22-1.54.22 0 .42-.21.44-.47.15-1.69-.47-2.7-1.65-2.7-.4 0-.81-.13-.9-.27-.22-.36-2.44-.34-4.06.04-1.18.27-1.33.39-1.45 1.12-.08.52 0 .93.24 1.12.44.34.5.9.1.9-.56 0 .05.5 1.47 1.22 1.57.8 1.9 1.31.68 1.07-.66-.14-.75-.09-.63.36.08.29.06.52-.03.52-.38 0-3.55-3.53-3.43-3.83.06-.18-.06-.47-.29-.66-.44-.36-.56-1.33-.17-1.33.29 0 .98 1.03 1.16 1.73.1.41.13.38.16-.16.02-.37-.1-.8-.26-.96-.2-.21-.2-.45.02-.87.17-.32.25-.64.18-.72-.19-.18-15.87-.11-42.64.2C5.24 3.3 3.4 3.36 2.78 4.1c-.18.22-.26 1.49-.22 3.44l.06 3.09 1.73-.16c4.2-.4 6.84-.7 7.95-.92.65-.13 2.08-.37 3.17-.55 2.71-.42 9.8-2.06 10.51-2.42 1.14-.58 7.97.29 13.1 1.65 1.55.42 8.53 1.52 11.53 1.82 1.5.15 2.98.42 3.3.58 1.07.58 3.24 1.02 5 1.02.98 0 2.06.12 2.42.25.92.35 6.13.77 11.56.92l4.63.14-1.59-.6c-1.4-.52-1.58-.67-1.54-1.28.03-.5-.13-.76-.6-.98-.39-.17-.63-.48-.58-.73.08-.48-1.28-1.1-2.5-1.13-.98-.03-.92-.5.11-.94.94-.39 1.5-.28 2 .4.2.3 1.04.56 2.44.78 1.17.18 2.13.42 2.13.53 0 .1-.5.28-1.1.37-1.09.18-1.14.54-.12.73.72.13.82.67.17.88-.3.1-.54.26-.54.38 0 .4 4.03 1.08 6.46 1.08 1.87 0 2.55.1 2.8.4.63.76 3.13.28 2.81-.55-.2-.5.3-.76.75-.39.22.18.73.24 1.25.14.67-.13 1.18 0 2.13.53.69.39 1.38.62 1.53.53.47-.3 7.15.16 6.96.47-.1.17-1.34.2-3.5.1l-3.33-.17 1.45 1.33c1.85 1.69 4.95 3.83 6.51 4.5a6.9 6.9 0 0 0 2.23.52c1.29 0 4-.7 4.24-1.09.13-.2.34-.21.71-.01.57.3 2.13.17 3.32-.29l.74-.27-.54-.58c-.5-.54-.72-1.2-.4-1.2.09 0 .57.32 1.07.72.87.7 1.2 1.4.64 1.4-.46 0-.28.68.5 1.85.79 1.17.83 1.85.1 1.85-.28 0-.35.17-.24.6.1.32.3 1.22.48 1.98.25 1.15.4 1.37.78 1.25.37-.12.53.1.82 1.12.23.83.55 1.35.93 1.52.31.14.63.47.7.73.19.73 1.36.6 2-.23zm-2.76-1.14c-.27-.44.1-.8.82-.8.5 0 .64.12.58.46-.1.52-1.13.77-1.4.34zm-17.87-11c-.19-.22-.27-.47-.18-.56.27-.27.98.13.98.56 0 .52-.37.52-.8 0zm-17.72-6.2a2.41 2.41 0 0 0-1.1-.27c-.38 0-.83-.17-1-.38-.47-.56.1-.77 1.17-.42.5.17 1.18.27 1.51.22.46-.06.6.05.6.44 0 .6-.59.8-1.18.4zm4.64-.78a.3.3 0 0 1 .1-.4.3.3 0 0 1 .4.09.3.3 0 0 1-.1.4.3.3 0 0 1-.4-.09zm4.62-.16c0-.21.14-.4.33-.4.18 0 .6-.07.92-.16.43-.11.6-.04.6.24 0 .22-.27.47-.6.56-.94.25-1.25.2-1.25-.24zm-14.9-2.26c-.33-.46-.76-.6-2.2-.71-1.74-.14-1.8-.18-3.36-1.7-.88-.85-1.5-1.63-1.4-1.73.52-.53 3.6.34 3.6 1.02 0 .28-.43.23-1.39-.17-.77-.32-.52.29.5 1.18.57.51 1.1.78 1.36.68.62-.24 2.7.14 2.7.49 0 .16.27.42.6.56.6.27.72.7.24.87-.14.04-.44-.17-.66-.49zm-2.65-2c-.41-.42-.16-.93.41-.85.33.05.6.26.6.48 0 .42-.7.67-1 .37zm9.15-.69c-.72-.34-.8-1-.12-1 .55 0 1.1.49 1.1.98 0 .4-.18.41-.98.02zm-8.25-.74c-.77-.65-.84-.8-.45-.94.5-.2 1.75.8 1.75 1.39 0 .52-.3.42-1.3-.45zm28.82 24.74c.28-.33.2-.4-.53-.4-.74 0-.81.07-.53.4.18.22.42.4.53.4.1 0 .35-.18.53-.4zm-4.24-1.09c0-.27-1.1-1.16-1.43-1.14-.16 0-.82.23-1.48.5-1.08.44-1.13.5-.53.61 1.03.2 3.44.22 3.44.03zm-5.69-.46c.73-.2 1.79-.55 2.35-.79.87-.37.98-.5.7-.83-.18-.22-.48-.4-.66-.4-.18 0-.9-.53-1.6-1.19-1.29-1.2-2.2-1.48-2.72-.85-.15.18-.88.63-1.61.99-.74.36-1.34.79-1.35.95 0 .39 2.65 2.45 3.18 2.47.21 0 .99-.15 1.71-.35zm29.43-1.4c.06-.17-.53-.73-1.3-1.24a8.74 8.74 0 0 1-1.73-1.41c-.73-1.09-2.07-3.18-2.34-3.65-.15-.28-.42-.55-.6-.61-.18-.06.1.66.61 1.6.52.93.94 1.87.94 2.1 0 .21.77 1.13 1.72 2.04 1.62 1.56 2.45 1.92 2.7 1.17zm5.21-2.16c.64-.43 1.6-.94 2.13-1.14 1.74-.62 1.63-.88-.67-1.64a13.3 13.3 0 0 1-3-1.37 3.2 3.2 0 0 0-1.3-.66c-.24 0-.44-.12-.44-.26 0-.15-.25-.27-.55-.27-.3 0-.47.12-.38.27.1.14-.12.37-.48.5-.9.35-1.07 1.01-.44 1.8.29.38.53.91.53 1.2 0 .66.47 1.54 1.16 2.14.73.65 1.93.45 3.44-.57zm-5.65-.56c-.81-.87-.9-1.09-.82-1.92.02-.24-.15-.81-.38-1.25-.23-.45-.35-.83-.28-.85l.39-.06c.6-.08.55-.44-.12-.75-.57-.26-.77-.26-.85-.02-.07.2-.4.26-.88.16-1.13-.22-1.25.45-.34 1.92l1.1 1.84c.18.34.56.7.85.79.29.09.52.27.52.4 0 .32 1.44 1.07 1.53.8.05-.11-.28-.6-.72-1.06zm-43.67-2.02c0-.47-.57-.39-.73.1-.06.18.08.32.31.32.23 0 .42-.19.42-.42zm52.78-1.17c.1-.15-.19-.26-.7-.26-.67 0-.79.07-.49.26.52.33.99.33 1.2 0zm-52.38-.8c-.1-.14-.28-.26-.42-.26-.13 0-.24.12-.24.27 0 .14.18.26.4.26.24 0 .35-.12.26-.26zm50.35-.05c.17-.17.32-.54.32-.8 0-.47-.06-.46-.76.11-.76.61-.84 1.01-.2 1.01.17 0 .46-.14.64-.32zm5.6-.07c0-.22-.1-.4-.25-.4-.14 0-.19.18-.1.4.08.21.2.4.25.4.06 0 .1-.19.1-.4zm-1.72-.3c.27.1.4-.02.4-.35 0-.43-.08-.46-.65-.19-.36.17-.72.47-.8.67-.12.3-.07.31.25.04.22-.18.58-.26.8-.18zm-4.71-1.27c-.06-.16-.36-.26-.67-.22-.56.06-.8-.55-.34-.83.34-.22.2-1.9-.2-2.38-.45-.54-1.08-.56-1.08-.03 0 .22-.12.4-.27.4-.14 0-.26-.36-.26-.8 0-.44-.12-1-.25-1.26a5.8 5.8 0 0 1-.41-1.44c-.19-1.16-.46-1.4-1.2-1-.45.24-.57.18-.84-.4-.26-.57-.23-.72.2-1.04.65-.47.34-.82-.38-.44-.66.36-1.03-.08-.55-.65.25-.3.23-.38-.11-.38-.3 0-.43-.24-.43-.78 0-1.1-.45-2.13-.91-2.13-.22 0-.81-.42-1.32-.93-.76-.75-1.13-.93-2-.93-.58 0-1.06.1-1.06.24 0 .12.63.77 1.4 1.42 1.08.93 1.65 1.73 2.53 3.54 1.23 2.54 2.54 4.71 3.28 5.45.25.26.46.6.46.76 0 .44 1.81 3.35 2.74 4.4l.8.92.49-.6c.27-.33.44-.73.38-.89zm-12.29-.1a6.56 6.56 0 0 0-1.27-2.2 9.13 9.13 0 0 1-1.17-1.62c0-.11-.2-.2-.43-.2-.29 0-.37.14-.25.46.31.82 2.88 4.54 3.06 4.43.1-.06.13-.45.06-.88zm9.73.74a.27.27 0 0 0-.26-.27.27.27 0 0 0-.27.27c0 .14.12.26.27.26.14 0 .26-.12.26-.26zm-6.88-.5.66-.2-.66-.35c-.36-.2-1.4-1.07-2.31-1.95-1.92-1.83-2.5-1.82-.95.02a27 27 0 0 1 1.53 1.99c.49.75.64.8 1.73.48zm6.06-.45c.18-.16-1.95-3.53-2.34-3.69-.21-.08-1.73-.22-3.38-.3-2.81-.16-2.98-.14-2.98.33 0 .61 2.76 2.98 3.7 3.19.36.08 1.14.3 1.72.5.89.28 2.92.27 3.28-.03zm-28.96-.62c.2-.33-2.28-2.46-3.9-3.34-1.26-.69-1.34-.7-1.67-.25-.3.4-.42.42-.76.13-.34-.28-.5-.26-.89.1-.26.24-.66.43-.88.43-.75 0-.67.29.43 1.49 1.1 1.19 1.14 1.2 3.07 1.33 1.08.07 2.01.18 2.08.24.22.22 2.37.11 2.52-.13zm11.88-2.04-.22-1.81-2.12-.42c-1.16-.23-2.45-.5-2.87-.6-.69-.18-.73-.15-.55.41.1.33.47.94.81 1.35.34.41.63.97.63 1.24 0 .38.32.56 1.44.8a6 6 0 0 1 2.05.79c.34.27.7.4.83.28.12-.12.12-1.04 0-2.04zm25.32.9c.35-1.02.48-1.13 1.55-1.31.64-.11 1.2-.25 1.26-.3.12-.12-1.12-2.4-1.76-3.25-.49-.64-2.2-1.96-2.56-1.96-.14 0-.53.69-.87 1.53-.34.83-.78 1.9-1 2.35-.2.46-.33 1.3-.29 1.85.08.91.21 1.08 1.27 1.62 1.65.83 1.95.77 2.4-.53zm-4.24.34c0-.3-.52-.64-.71-.45-.19.19.14.7.46.7.13 0 .25-.1.25-.25zm.65-4.7c.56-1.28 1.03-2.72 1.05-3.2.02-.48.16-.96.32-1.06.16-.1.38-.69.48-1.3.17-1.04.14-1.13-.4-1.13-.35 0-.52-.13-.45-.33.25-.66-.3-1.52-.97-1.52-.7 0-1.25.56-.72.74.33.1 1.62 2.47 1.62 2.95 0 .61-.48.2-1.33-1.11a7.6 7.6 0 0 0-1.12-1.48 3.28 3.28 0 0 1-.7-.61c-.44-.47-.72-.5-3.27-.33l-2.8.18 2.23 3.27c1.23 1.8 2.23 3.48 2.23 3.73 0 .6 2.06 3.5 2.5 3.5.17 0 .78-1.04 1.33-2.3zm10.92 2.05c.93-.01.7-.72-.33-1.07a2.39 2.39 0 0 1-1.3-1.01c-.22-.43-.85-.9-1.58-1.21-1.05-.43-1.22-.6-1.22-1.26 0-.8-.23-.94-.73-.44-.24.23-.37.14-.57-.37-.34-.92-.78-1.14-1.27-.66-.43.43-.38.5 1.27 1.94.35.3.84.78 1.08 1.06.24.27.74.71 1.12.97.38.27.69.66.69.89 0 .6 1.1 1.43 1.72 1.29.29-.07.8-.13 1.12-.13zm-26.03-.93c-.17-.44.43-.55.84-.17.3.27 6.8.6 6.68.34-1.43-3.13-3.77-7.14-4.37-7.5-.4-.25-1.18-.84-1.73-1.31-.82-.7-1.27-.88-2.58-.97l-1.58-.11v.84c0 .46.1 1.34.24 1.95l.53 2.51c.16.77.58 1.8.95 2.27.7.92.87 1.6.36 1.43a4.43 4.43 0 0 1-1.04-1.15c-.7-.98-1.32-3.6-1.63-6.87l-.07-.79h-1.99c-1.09 0-2.64.05-3.44.13-1.34.12-1.45.19-1.45.8 0 1-.52 1.05-.61.06l-.09-.86h-1.57c-.86 0-1.57.1-1.56.2.01.52 1.06 1.39 2.43 2 2.26 1.01 3.66 2.07 6.47 4.9 1.4 1.4 2.6 2.42 2.66 2.25.06-.17-.2-.96-.57-1.75a8.55 8.55 0 0 1-.68-1.75c0-.66.6.09 1.34 1.64.52 1.1 1 1.71 1.5 1.93 1 .44 1.14.44.96-.02zm-6.23-5.1c-1.25-1.9-1.8-3.02-1.8-3.65 0-.77.45-.35 1.08 1 .35.76 1.02 1.95 1.5 2.64.47.7.86 1.38.86 1.53 0 .65-.54.15-1.64-1.52zm8.43.68a3.87 3.87 0 0 0-.8-1.24c-.52-.43-.58-1.1-.1-1.09.35 0 1.33 1.39 1.62 2.3.3.94-.33.96-.72.03zm32.36 3.74c0-.27-.1-.55-.23-.63-.13-.08-.36-.67-.53-1.31a3.5 3.5 0 0 0-1.28-2c-1.17-.96-1.52-1.02-1.27-.21.1.32.25 1.19.33 1.92.17 1.48.7 2.47 1.5 2.76.77.29 1.48.03 1.48-.53zm-38.89.33c0-.32-2.35-2.55-2.51-2.39-.08.08 0 .6.19 1.17.24.7.53 1.07 1 1.2.94.26 1.32.27 1.32.02zm45.24-.52c0-.53-.46-1.22-1.72-2.56-.94-1.01-1.72-1.66-1.72-1.44 0 .22.13.52.3.68.15.16.23.57.18.91-.1.62-.1.61-.62-.2-.3-.46-1-2.1-1.56-3.64-.87-2.39-1.11-2.8-1.6-2.8-.32 0-.64.06-.71.13-.08.08.5 1.42 1.26 2.98 1.5 3.05 1.94 4.56 1.31 4.56-.22 0-.46-.47-.61-1.17-.14-.64-.71-1.95-1.28-2.92-.57-.97-1.21-2.11-1.43-2.54-.22-.42-.54-.77-.73-.78-.23 0-.26.14-.1.46.81 1.62 1.35 3.05 1.22 3.25-.08.13.22.74.66 1.35.44.6.8 1.26.8 1.45 0 .54 1.05 2.42 1.43 2.57.56.21 1.75-.13 1.75-.5 0-.2-.24-.49-.53-.64-.3-.16-.53-.4-.53-.54 0-.51 1.06-.24 1.91.5.48.4 1.08.82 1.33.9.26.1.47.3.47.45 0 .15.11.27.26.27.15 0 .26-.33.26-.73zm-11.76-.72c-.22-1.46.06-2.05.55-1.16.19.35.36.87.38 1.16l.02.53.22-.53c.14-.34.1-.72-.14-1.06-.2-.3-.56-.9-.79-1.36-.23-.46-.65-.9-.93-.97-.4-.1-.51-.37-.51-1.33 0-.72.16-1.36.4-1.6.27-.27.35-.64.24-1.08-.2-.81-.42-.97-.88-.68-.48.29 0 6.86.65 8.94.06.18.3.33.54.33.36 0 .4-.19.25-1.2zm-2.48-1.7c-.22-2.22-.32-2.52-1.07-3.3-.78-.8-1.1-1.75-.6-1.75.14 0 .44.3.68.66.48.74.95.87.95.27a.4.4 0 0 0-.4-.4c-.23 0-.6-.42-.85-.92l-.44-.93-4.02.02-4.01.02.3.64c.16.35.52.64.8.64s.77.25 1.1.54l.57.55.56-.96c.7-1.2 1.2-1 .68.28-.34.8-.34 1.01 0 1.65.39.75 3.84 4.27 4.19 4.29h.59c.22 0 .4.23.4.5 0 .44.49.9.74.69.04-.04-.04-1.16-.17-2.5zm-3.03-1.51c-1.02-.97-1.23-1.42-.63-1.42.32 0 .92.56 1.72 1.63.65.85-.12.7-1.1-.21zm-1.93-1.79c-.23-.58.07-.88.48-.47.23.23.24.38 0 .62-.24.23-.35.2-.48-.15zm21.82 5.5c.18-.16.54-2.35.55-3.41 0-.58-.17-1.4-.39-1.82-.22-.41-.4-.9-.4-1.06 0-.54-.46-1.03-.78-.83-.22.14-.18.33.17.71.73.81.66 4.29-.12 5.61a7.42 7.42 0 0 0-.59 1.11c0 .12 1.37-.15 1.56-.3zm4.32-.85c.15-.15-.08-.6-.55-1.11-.9-1-1.53-2.3-1.23-2.58.1-.1.45.15.76.58.31.43.9 1.14 1.31 1.59.72.79.74.79.57.15a3.9 3.9 0 0 0-.81-1.34 6.55 6.55 0 0 1-1.07-1.98c-.66-1.97-1.63-3.28-2.45-3.3-.28 0-.33.28-.2 1.19.09.65.28 1.4.42 1.65.4.74.81 2.85.81 4.12 0 .64.1 1.25.2 1.36.24.24 1.92 0 2.24-.33zm-6.68-1.44c0-.18-.13-1.16-.29-2.18a24.14 24.14 0 0 1-.27-3.1l.01-1.27h-2.23c-2.18 0-2.24.02-2.24.64 0 .77 1.75 3.43 3.32 5.05 1.17 1.2 1.71 1.48 1.7.86zm-22.6-2.33c.37-.4.43-.65.22-.97-.49-.78-.82-.64-1.1.45-.3 1.23.05 1.44.88.52zm13.45-1.4c-.47-.97-.9-1.05-.9-.17 0 .45 1.03 1.45 1.26 1.22.05-.05-.11-.52-.36-1.04zm21.86-.55c0-.65-.13-1.25-.28-1.35-.43-.27-.48-.1-.32 1.27.18 1.58.6 1.64.6.08zm-27.25-1.32c0-.4-.48-.82-.69-.61-.18.18.18.99.45.99.13 0 .24-.17.24-.38zm3.17-.3c0-.23-.12-.34-.26-.25-.15.1-.27.28-.27.41 0 .14.12.25.27.25.14 0 .26-.18.26-.41zM92.12 4.6c-.34-.34-.18-.62.37-.62.3 0 .5.14.45.32-.13.38-.57.55-.82.3zm3.41-.02a.79.79 0 0 0-.48-.2c-.16 0-.33-.14-.39-.3-.06-.2.22-.29.77-.26.59.03.9.2.96.5.09.46-.48.63-.86.26z"/>
</svg>
