<?xml version="1.0" encoding="utf-8"?>
<svg xmlns="http://www.w3.org/2000/svg" xmlns:svg="http://www.w3.org/2000/svg" version="1.1" viewBox="0 0 183 133">
	<title>The two rabbits dive into a hole between two rocks on a hillside.</title>
	<path d="M60.8 132.4c-2-.2-12.1-.3-22.7-.3a721.6 721.6 0 0 1-31.7-.9c-2.2-.1-2.5-.2-3.3-.9-1-.8-1-1.3-1.5-8.8a797.6 797.6 0 0 1-.9-42A876 876 0 0 0 .2 30c.2-1.4.3-4.9.3-7.7A128.5 128.5 0 0 1 2 3C2 1 2.8.4 5.5.3 11 0 19-.1 25.5.2 31.8.4 63 .8 69 .8l31.6-.5C103.8 0 118 0 128 .4c7.2.2 10.1.2 13.3 0 2.8-.3 9.3-.4 20.1-.4 14.7 0 16.1 0 17 .5.6.2 1 .6 1 .8 0 .3.2.4.4.4.5 0 .7 1.7.7 5.5a291 291 0 0 1 1.1 36.4v13.6c.1 13.4.2 35 .1 51.4 0 7.2 0 14.7.2 16.7.2 3.5.2 3.7-.3 4.5-1.1 1.5.1 1.4-23.6 1.3-6.6 0-13.8.1-16 .3-6.6.5-9 .5-32.3.6a2228 2228 0 0 0-49 .4zm60.8-3.8c5.4 0 12-.3 14.7-.5 3.1-.2 11.5-.3 22.8-.3 13.9 0 18 0 18.2-.3.4-.4.8-4.6.8-9v-3l-1.4.1c-2 .4-2.9.3-3 0-.1-.4 1.2-.8 3.1-1l1.2-.2.2-1.6c.2-2.4 0-4-.7-4.5-.5-.4-.5-.5-.3-1 .5-.7.1-.8-2-.7-1.4 0-1.5 0-1.5.8 0 1-.4 1.4-1.1 1-1.2-.7-4.7-.2-5 .7-.2 1-3.1.9-3.1 0 0-.5.1-.6 1.1-.5l1.1-.1c0-.3-1-1.2-1.5-1.2l-.5-.4c-.3-.4-.5-.5-2.1-.2-1.6.2-1.8.3-2 .8 0 .3-.2.7-.5.9-.6.3-2.9-.2-4.4-1l-1.6-.6-1-.4c-.9-.6-5.6-.2-7 .6-.5.2-1 .3-1.7.1-1.2-.2-1.2-.6 0-1 .6-.2 1.3-.7 1.7-1 1.4-1.4 6.1-3.6 7.5-3.6.4 0 4.3 2.6 4.7 3.3.4.6 1.7-2.4 2.2-5.6.4-1.8.8-2.2 3.3-3.4a32 32 0 0 1 10.2-.4c1.2.4 1.7 1.2 1 1.6-.5.3-.6.7-.6 1.6 0 .7.1 1.3.3 1.4.1.1.2.8 0 1.6l-.1 1.5.8-.3c.4-.2 1.2-.2 1.9-.1l1.1.1-.1-1.8c-.3-2.6-.3-11.7 0-17 .2-4.7 0-5.4-.9-3.7-.4.9-1.3 1-1.5.4-.1-.2 0-.7.3-1.1.3-.4.6-.8.6-1 0-.2.3-.5.6-.7.9-.3 1.6-1.8 1.4-2.8V56.4c.3-13.4.3-19.1 0-22.2-.2-3-.2-6.3 0-12.3.2-4.5.2-10 .1-12.4-.1-4.2-.2-4.3-.8-5-.5-.5-1.2-.8-2-1-2.4-.4-9.2-.5-22.4-.5-10.9 0-13.3 0-14.5.4-2 .6-4 1-4.3.8l.1-.5c.2-.2.2-.4 0-.4l-.7-.1c-.7-.2-1.2.7-1.2 2.2v1l.4-1c.6-1.3 1-.7.7 1.2-.2 1-.3 2.3-.3 3.1v1.5l1.2-.4c.9-.3 1.3-.3 1.7 0 .6.3 1.9-.1 3.3-1.2.8-.5 1.3-.7 1.8-.6.3 0 1-.1 1.5-.4l1-.5h-.8a3 3 0 0 0-1.2.3c-.6.3-3.3 0-4-.5-.3-.3-.3-.4 0-.8.2-.5.2-.6-.3-.8-1-.3-2.3-1.2-2.3-1.6 0-.2.5-.3 1.5-.3 1.8 0 2.4.4 1 .7l-.8.2 1 .4c1 .3 2.1.3 4.2-.3.7-.2 1.4-.2 1.5-.1.3.3-.7 1-1.8 1-2 .4-3 .8-2.6 1.2.5.4 3.3 0 4.8-.6 2-1 2.7-.5 1 .6-.7.4-.8.6-.5.8.3.3.6.3 1 0l1.4-.2c1.4 0 2.6-.7 2.6-1.5 0-.7.5-.8 1-.2.4.4.3.5-.6 1.3L148.1 9c-1.3.5-1.6.6-2 .3-.4-.2-.7-.2-1 0-.5.2-.7.2-1 0-.3-.2-1.2.1-3.9 1.4-2 1-3.6 1.8-3.7 2-.2.2-.7.2-1.4.1l-1.2-.1v1c0 .4.1 1 .3 1l.2 1.4c0 1 .1 1.1.5 1.1.7 0 .8.1.6 1.9v1.7h1.2c.9-.2 1-.2 1-1.3 0-.7.1-1.6.4-2.2.3-.7.4-1 .1-1-.5-.2-.4-1.1.2-1.4.4-.3.7-.3 1 0 .3.2.5.2 1-.4l2.2-1.7 2.2-1.6c.8-.8 2.4-1.5 4-1.8.6 0 1-.2.9-.4v-.5c.2-.3.9 0 .9.4 0 .5.6.5 1.8 0 .7-.2 1-.2 1.1.2.2.3.7.4 2.4.4 1.2 0 2.3.1 2.3.2l1.4-.2 3-.4 4-1c3.7-1.2 6-1.7 8.2-1.9 2-.1 2.2-.1 2.5.4.1.3.2.6 0 .7l-2.2.1c-2 0-2.2 0-2.8.9-.6.6-1 .8-2.3 1-2 .3-3.8.8-3.8 1.1 0 .1.3.3.7.4.3 0 .6.3.6.6s-.2.3-1.4.2c-2.6-.4-12.7-.6-15-.4-1.9.2-2.8.4-3.8 1-.8.5-1.6.8-1.8.8a5 5 0 0 0-2 1l.2.5c.3.3.1.6-.7 1.9-1.4 2-2.3 3.7-2.2 4.2 0 .2.6-.3 1.2-1.3 1.1-1.7 1.8-2.3 2.2-2 0 .2-.1.7-.4 1.2-1 1.7-2.3 4.3-2.2 4.4.2.2 2.4-3.4 2.4-3.8 0-.1 0-.3.2-.3.5 0 .3 1.5-.4 2.8-.8 1.7-.8 2.1 0 .9.8-1 1.5-1.3 1.5-.6 0 .2-.3 1-.7 1.7-.7 1.4-.6 2.2.3 2 .7-.2 1.3.2 1 .6 0 .2-.3.3-.6.3s-.5.2-.5.5c0 .7-.7.9-1.2.4-.4-.4-.4-.2-.4 1.2 0 1.3-.1 1.7-.5 1.8l-.5-.1c-.3-.7-.5-.3-.7 1l-.3 2.5-.2 1 1-1.5a33.8 33.8 0 0 1 7.7-9.2c1.8-1.7 3-2.3 3-1.4 0 .2-.2.5-.4.5l-.7.7c-.2.5-.2.6.1.8.6.3.6.6-.1 1.3-.5.4-.5.6-.2.8.3.1.3.3 0 .6a1 1 0 0 0-.1.8c0 .3 0 .6-.3.9-.7.6-3.1 1.4-3.6 1.3-.8-.3-7.2 11-7 12.1.1.4 0 1.3-.2 2-.6 2-.6 3.7 0 6l1.3 4c.7 2.7.8 4.7.2 5-.8.2-1-.4-1.2-2.4-.2-1.6-1.1-5-1.7-6-.2-.4-.8 1.4-1.3 4.2l-.5 2.4-.6 2.9a70.2 70.2 0 0 1-1.2 6.6c-.3 2.2-.8 2.8-1.6 2.4-.2-.1-.5-.5-.5-.8 0-.4-.2.3-.5 1.4l-.8 2.9c-.3.5-.4 1-.3 1.1.1.3 2.4 0 2.8-.3.2-.2 0-.3-.6-.1-.6 0-.8 0-.8-.3 0-.6.7-.8 1.4-.3.5.3.7.3 1.3 0 .3-.3.8-.9 1-1.4.6-1 1.4-1.2 1.1-.2 0 .5 0 .7.3.7.4 0 1.7-1.5 1.7-1.9 0-.4-.4-.3-.8.2s-.7.5-.7-.2c0-.5 1.4-1.6 1.9-1.4v1.4a4 4 0 0 0 .1 1.3s1-.6 1.9-1.5a697 697 0 0 1 3.2-3c0-.5 2.5-2.3 4.2-3.3.8-.5 3-1.5 5-2.3a49.9 49.9 0 0 0 11.8-7c-.6 0-.4-.9.6-3.8 1.3-3.7 3.2-7.6 3.8-7.6.5 0 .2.7-1.4 3.9l-1.5 3.5c.2.4 5.3-5 7-7.3 2.1-2.9 2.5-3.3 3-3.3.8 0 .7.6-.3 1.8l-2 2.6a131 131 0 0 1-7 9.1c0 .7-2.5 3.3-3.7 3.8-.8.3-1.6.9-2 1.2-.4.6-2.4 1.8-2.4 1.5l-1.1.6c-.6.5-1.3.8-1.5.8l-.8.3-2.8 1.2-3.4 1.6a4 4 0 0 1-1.5.6l-1 .4c-.7.5-1.6 2-1.2 2 .6 0 .3.6-.7 1.5-.5.5-.8.9-.6.9.2 0 .8-.4 1.3-.8.7-.7 1-.8 1.7-.7 1 .2 1.1.3.7.8-.2.3.3 0 1.1-.5 2.3-1.5 6.7-2.7 7.1-2 .2.3.5.3 1.2 0 2.1-.5 3.6-.1 3.2.9-.1.3.1.4 1.5.5 1 0 3.2.6 5 1.1 3.4 1 3.5 1 4.3.6.5-.4.8-.4 1-.2.2.2.7.3 1 .3.8 0 1.6.6 1.6 1.1 0 .2-.3.2-.8.1-.5 0-1.8 0-2.9.3l-2 .4-1.3-.6a17.8 17.8 0 0 0-8.2-1.8l-2.4.1v-.8c-.2-.7-.2-.7-1.3-.5l-2.5.2c-1.8 0-2.6.3-3.5 1.1-.3.3-1.6 1-2.8 1.5-2.1.8-2.3 1-2.2 1.9 0 .6-.6.9-3 1.2l-2.4.6c-.2.1-.7.2-1.1 0l-2.9.3c-1.1.3-2.4.5-2.8.5-.4 0-1.6.2-2.8.6-1 .4-2.2.7-2.6.7-.9 0-3.6 1-4.7 1.8-1.4.9-2.5 1.4-2.8 1.2-.2 0-.6.1-1 .4l-1 .6c-.4 0-2 1.5-2 1.9 0 .4-2 1.3-3.2 1.4-.9 0-1.8.3-3.9 1.2a9 9 0 0 1-2.2.6l-2.3.6-2.6 1-1.5.6-.7-.5a4 4 0 0 1-1-1c-.2-.3-.3-.3-1 0-.7.4-1.2 0-1.2-.9 0-.6.7-.6 2.3 0 1 .5 1.3.6 1.7.2.2-.2.7-.4 1.2-.4.4 0 .8-.3.9-.5 0-.4 0-.3-2.2.3-.9.3-1 .2-1.3-.1-.1-.3-.4-.5-.6-.5-.5 0-.5-.4.1-.8.3-.1.5-.4.4-.7-.1-.5.1-.6 1.4-.8a54 54 0 0 1 4.4-.9c-.2-.2-4.4.4-6 .8-1 .3-2 .1-2-.2 0-.4.6-.5 3.5-1l2.8-.5c.3-.3-4.5 0-5.2.4l-2 .4c-1.2.2-1.5.1-1.5-.2 0-.4 2-1 4.6-1.3h-1.7a39.6 39.6 0 0 0-4.2.3c-.3 0-.3 0 0 .3.7.4.6.8-.1.8-.3 0-1 .2-1.3.5l-1.3.6c-.4.1-.7.3-.7.4 0 .3 2.1 1.2 3.2 1.4.7 0 1.1.3 1.5.8.5 1 .2 1.2-.6.7-.3-.3-1-.5-1.6-.5-.6 0-1.2 0-1.4-.2-.7-.7-7.4-.8-8.4-.2-.4.3-1 .4-1.2.4-.3 0-.8.3-1 .6-.4.5-.7.5-1.7.4a5 5 0 0 1-1.7-.6c-.4-.3-.4-.4-.1-.7.2-.3.3-.5.2-.6l-1.7-.4c-1.6-.3-1.6-.3-3.4.6-1 .6-2 1-2.1 1-.2 0-.6.3-.8.6-.3.4-.5.5-1.1.3-.7-.1-.9 0-1.3.6-.5.8-.6.9-.6 1.5 0 .2-.5.5-1 .7-.7.2-1 .2-2.4-.4-.8-.4-1.8-.7-2.2-.7l-3.3.8a80.7 80.7 0 0 1-10 2.7l-3.4.7c-1.3 0-2.4.3-5.5 1.1-.5.2-1.5.3-2.2.3-.6 0-1.9.1-2.7.3-.8.2-1.7.2-2 .1-.3-.1-.3-.2 0-.5a9 9 0 0 1 3.3-.8 103.2 103.2 0 0 0 13.3-2.6 58 58 0 0 0 9.8-2.8c1.7-1 2.8-1 4.3-.3l1.4.6.5-.7c.3-.4.6-.7.8-.7.2 0 .9-.3 1.5-.8.7-.4 2.3-1 3.6-1.4l3.7-1.2c1.3-.5 1.4-.5 3 0 .9.3 1.6.6 1.6.8 0 .1.7.2 1.6.2.9 0 1.6-.1 1.6-.2 0-.2.3-.3.7-.3l1.6-.3c.6-.2 1.3-.2 2.5 0 1.6.2 1.7.2 2.4-.4.8-.7 2.5-1.6 3.6-2 .5-.1.4-.2-.4 0-1.3.1-1.6-.3-.5-.8.5-.2.6-.4.4-.6-.2-.2-.2-.5-.1-.7.2-.3-.2-.3-2.1.1-6.7 1.6-9.3 2-9.1 1.5 0-.2.6-.5 1.2-.6.7-.1 1.1-.4 1.1-.6 0-.7 2.8-1.6 5.3-1.7.7 0 1.8-.2 2.4-.4 1.4-.5 2.4-.5 2.4 0s.8.3 2.8-.6l1.6-.6c.2 0 .3-.1.3-.2 0-.4-1.2-.4-1.4 0l-1.2-.1c-2-.5-3.2-.4-3.2.3 0 .5 0 .5-1.5.1a8 8 0 0 0-4.4 0c-.2.2-.4.1-.4 0 0-.5 2.2-1.2 3.3-1l3.3-.3c2-.3 2.8-.3 5.6 0 1.8.2 3.6.3 4 .2.8-.2.8-.2-.3-.4-.7-.1-1.5-.4-2-.8-1-.8-4.6-1-7-.3-1 .2-2.5.4-3.5.4-1.7 0-2 0-3 .8-1.2.8-5.1 2.4-6.1 2.4-.4 0-1 .2-1.4.4-1 .5-3 .5-3.2 0 0-.3.3-1 1-1.7 1.5-1.8 5-6.4 5-6.7 0-.4-2-.2-3 .3-.6.2-1.8.9-2.6 1.4a13 13 0 0 1-5.6 1.8c-2 .3-4 0-4.2-.8-.4-.9 1.7-3.6 3.3-4.3.7-.3.7-.3.3-.9-.2-.4-.8-.7-1.9-.9l-2.5-.6-4-.5a47 47 0 0 1-12.9-2.1c-.7-.2-1.2-.2-2 0-1.5.5-5 .5-6.3 0-1.2-.5-3.6-1-4.6-1.1-.8 0-3 1.7-3.3 2.5-.3 1-1.7 1.5-3.7 1.5s-4.2-.4-4.4-.8c-.2-.3 1.5-2.9 1.9-2.9 0 0 .5-.4.9-1a171 171 0 0 1 2.2-3.3h-1.2c-1 .1-1.5.3-2.2 1.1a5 5 0 0 1-1.6 1.2l-1.9 1c-2.1 1.4-2.6 1.4-4.9.6-3-1-3.5-1.6-1.7-2.5 1.3-.6 6.5-5.8 8.3-8.2.9-1.1 2-1.7 3-1.5.8 0 .9 0 2.3-2.2 1-1.6 2-2.6 2.7-2.9.4-.2.7-.5.8-1.4.1-1 .5-1.4 2-3 1.3-1.1 2.4-2 3-2.2 1.2-.4 5.1-.2 6.4.4 1 .4 1.7 1.6 1.7 2.9 0 .6 0 .6 2.2.7 1.6.1 3.1.5 5.9 1.3 2 .7 4.4 1.4 5.3 1.5a74.2 74.2 0 0 1 9.4 2l-1-1c-.5-.4-.9-1-.9-1.3 0-.5.2-.7 1.3-1 1.2-.2 1.7-.6 3.4-2.3 2-2 6.2-4.8 9.5-6.2a86 86 0 0 0 6.8-3.6c4.3-2.4 7.7-4 8.3-4 .4.1 4-2.6 4.8-3.5.2-.3 1-.6 1.7-.9 1.3-.3 1.4-.5 1.7-1.4.3-1 .3-1.6-.1-1.6-.1 0-.8.5-1.5 1.2-.8.6-1.6 1.2-1.8 1.2-.5 0-3.2 1-4.8 1.9-.6.4-1.5.7-1.9.8-.4.1-.9.6-1.2 1.2-.3.6-.7 1.2-1 1.4l-.3.7c0 .7-.8.3-1-.5 0-.7 0-1 .7-1.7.6-.6.8-1.3 1.2-3.2a76 76 0 0 1 1.3-5.6c1-3.1 1-4.5.4-4.5l-.7.7c-.5.8-.6 1-1 .7-.1-.2.9-1.9 1.3-2 .2-.2.4-.5.4-.8 0-.2.3-.6.6-.8.3-.2.5-.5.5-1v-1l-.6.7c-.4.3-.9 1-1.2 1.5a38 38 0 0 1-1 2 22.4 22.4 0 0 0-2.8 5.9c0 .6-.3 1-.5 1.1-.2.1-.3-.4-.2-3L90 13l-.4 2c-.7 4.2-.8 4.7-.3 4.7.2 0 .7.3 1 .6l.8.7-.8.8c-.5.5-.8 1-.8 1.2 0 .5-1 .8-1.6.4-.7-.3-.8-.3-.8.2 0 .2.2.4.4.5.3.2.4.4.2 1.4-.2 1.5-.2 1.5-.8 1.1-.6-.3-.7-.2-1 .9-.1.5 0 .7.4 1 .7.3 1 .2.5-.6-.2-.4-.2-.5.3-.5.2 0 .5.1.6.3 0 .3.3.2.8-.2.3-.4.7-.6.8-.5l1 .4c1.3.2 1.1.9-.3 1-.6 0-1.4.3-1.7.5-.3.2-.9.3-1.3.3s-1.7.6-3 1.3a8 8 0 0 1-2.7 1l-3.2.8c-2.9 1-4.2 1.8-6.7 4.5-.5.5-1 .9-1.2.8-.2-.1-.3-.3-.2-.4.3-.4-1-.3-1.8.1-.7.4-1.2.4-1.2-.1 0-.4 1.5-.9 2.5-.8.9.1 1 0 1.4-.7.6-1 4.3-3.2 6.8-4 1.6-.5 1.9-.7 1.8-1.2-.1-.3-.3-.4-.7-.3-.3.1-.8.2-1 .1h-1.3c-.5-.1-1-.3-1-.5-.2-.4 2.2-2.5 4-3.5l1.5-.9s0-.3-.2-.5c-.1-.4-.9-.6-.9-.2 0 .2-.2.4-.5.4-.3.1-.9.6-1.3 1-1.4 1.3-2.4 1.7-2.4 1 0-.3.3-.6.6-.8.7-.5.4-1-.4-1-.4 0-.8-.2-1-.4-.2-.3 0-.5.6-1 .5-.2 1.1-.7 1.4-1l.5-.6-1 .2c-1 .2-1.2 0-.5-1.2.2-.5.3-1.1.2-1.5-.1-.5 0-.7.5-.9.6-.2.7-.4.6-1 0-.7-.2-.7-1.3-.5-.7.1-.9-.5-.2-.7.4-.2.5-.3.3-.5-.5-.5-.3-1 .5-2.3l.8-1.2-.7-.1c-1.8.1-1.9-.3-.4-1.5l1-.9h-.9c-.4 0-1-.2-1.1-.4-.4-.5 0-.8.7-.4.6.4 2.3.2 2.6-.3.1-.1 0-.2-.5 0-1 .2-2-.1-2-.6 0-.4.2-.4 1.3-.3 1.3.2 1.4.2 1.3-.3 0-.3-.5-.5-1.3-.7C76 7 76 6.9 76 6.2c0-.8.2-1 .8-1 .7-.2.6-.2-.5-.3-.9 0-1.2-.1-1.2-.4 0-.3.3-.4 1.3-.4s1.3 0 1.3-.3c-.1-.3-1-.3-3-.3h-2.7v4c0 2.3-.2 5-.3 5.8-.1 1-.2 2.2 0 3v2.4a114.7 114.7 0 0 1-.5 6.6c-.1 2.2-.1 2.4.2 2 .3-.4.6-2.5 1-6 .9-7.8.8-7.7 1.1-7.7.3 0 .1 3.5-.3 6l-.4 4c-.1 2.7.2 1.9.7-2 .4-2.7 1-3.4.7-.8-.7 6.3-.9 7.5-1.1 7.5-.2 0-.3-.3-.4-.7-.1-.7-.2-.7-1.2 1-1.3 1.8-2 3.4-2.2 5-.1 1.3-.4 1.7-1.1 1.7-.9 0-.9-.7-.2-2.1l.7-1.7.7-1.3c.5-.7.7-1.5.9-3.3l.4-3.8.2-1.6-.8.2c-1.2.2-1.3-.3 0-.8.7-.3 1-.5.8-.8l-.2-.4c-.3 0-2.6 1.5-2.7 1.7l-1.2.7c-.5.3-1 .7-1.2 1 0 .2-.3.3-.6.3-.2 0-.8.3-1.1.6-1 .7-1.3.3-.4-.5.7-.6.8-.7.5-2-.2-.7-.3-1.8-.3-2.5 0-1 0-1.1-.4-.9l-.4.3v-3l-.5-5.9c-.4-2.8-.3-4 .2-3.7.2.1.3 1.2.4 2.5l.7 4.8c.3 1.4.6 3.6.7 5l.2 2.4 1.2.1c1 .2 1.3 0 2.2-.5a7 7 0 0 1 2-.9l1-.2v-2.7c0-1.5 0-4 .2-5.6.2-2.6.2-2.7-.2-2.4-.6.5-5 .3-5.7-.3-.3-.4-.2-.4 1.6-.3l2 .2-1.1-.7a472 472 0 0 0-1.7-1.3c.2-.2 1.3.2 2.6 1l1.8.7.8.2-.1-2-.2-2.1a27.7 27.7 0 0 0-7.9.4l-.2.4c0 .5-.5.5-1 0-.2-.4-.8-.5-2.1-.6L58 3.8l.2 1.4A81.8 81.8 0 0 1 59.6 28c-.8 2.5-2.2 4.5-3.1 4.5-.7 0-.4-.7.6-1.5.6-.5 1-1 .8-1-.1-.2-1 .6-2 1.7s-2 1.9-2 1.8c-.5-.5.4-1.7 2.4-3.4l2-1.8.4-2c.6-3 .5-4.6-.2-5.7-.4-.7-.8-1-1.4-1.2-1-.2-2-.7-2.3-1-.1-.1-1-.3-1.9-.3-1.3 0-1.7 0-2 .5l-.8.4c-.3 0-.3.4-.2 2 .2 1.8.8 3.9 1.2 3.9.1 0 .2.6.2 1.4 0 1.4 0 1.4-1 1.9-1.2.5-1.4 1-.3.6.5-.2 1.2-.8 1.8-1.5.5-.6 1.1-1.1 1.3-1.1.2 0 .4-.2.4-.4 0-.3-.3-.4-.7-.4-.4 0-.6-.2-.6-.4 0-.3.1-.4.6-.3 1 .3 2.6.3 4 0 1.2-.1 1.4-.1 1.4.2 0 .3-.4.5-1.3.6-2.3.3-3.4.7-3.4 1 0 .3-.2.6-.4.6-.2.1-.4.4-.4.6 0 .5-2.4 2-3 1.8l-.6.1c-.2.4-1.4.3-1.4 0l.4-.5c.4-.2.4-.3.1-.6-.2-.3-.2-.7-.1-1.1.1-.5.4-.7 1-.8 1.4-.3 1.5-.7.8-1.8-.8-1.2-1.5-1.4-1.3-.3 0 .4.2.9.3 1 .2.7-.5.7-1 .1-.4-.5-.4-.7 0-1 .3-.4.3-.5 0-.6-.6-.2-.3-1 .4-1 .5-.1.6-.3.6-1.9.1-2.3-.1-4-.6-4-.2 0-.4-.1-.4-.3 0-.3.2-.4.4-.3.2 0 .3-1.3.3-6.4V3.6h-5.2V20l-.3 6.7-.7.8c-.9 1-2 1.6-2.6 1.4-1-.4-10.1 4.9-10.1 6 0 .3-.2.5-.5.6-.3 0-.6.4-.7.7 0 .4-.6.9-1.4 1.2L25 38.7c-.5.4-1.5.8-2.2 1-1.2.3-5.4 2.1-7 3a20 20 0 0 0-4.6 3.1c-.8.8-1.8 1.5-2.1 1.6-.3 0-1.2.6-1.8 1-.7.6-1.6 1.1-2 1.3-.7.2-.7.3-.9 2.1-.6 8.7-.4 69.4.3 73.3.2 1.4 1.5 2.2 4 2.5 2.5.4 20.5 1 30.6.9a3792.6 3792.6 0 0 0 82.3.1zm-13-2c.1-.4 3.1-1.6 3.5-1.5 1 .4-.3 1.4-2.4 1.7-1 .1-1.2 0-1.1-.2zm19.8-.4c0-.4.3-.7.6-.5.2.2-.1 1-.4 1l-.2-.5zm17.9 0h.5l-.3.1c-.3 0-.4 0-.2-.1zm-27-3c-.4-.7-.8-1.9-.9-2.5-.1-1-.3-1.2-.5-1.1-.6.2-.8-.6-.3-1.6l.4-1c0-.3-1-.2-2.2.3-4.4 2-5.7 2.7-6.6 3.5-.9.7-1 .8-1.4.4-.3-.3-.3-.6.2-1.9.6-1.7.4-2.2-.6-2.2-.5 0-.5 0-.1.2.2 0 .4.3.4.6 0 .5 0 .6-1.5.4l-1.6-.2-.1.8c0 .7-.1.7-1.3.6l-1.3-.2c-.2-.2.9-.9 1.4-.9.4 0 .7-.3.9-.6.4-1-.1-1-1 0-.5.4-1 .6-1.3.5-.3-.1-.9.2-1.6.7-.6.5-1.3.7-1.6.7h-.6c-.1.2-.5.3-.9.3-1.3 0-3.3.5-3.6.9-.4.5-.9.5-1 0-.2-.2-.6-.4-1.3-.4-.7 0-1 0-1-.4 0-.3.4-.5 3.1-.8 1.7-.1 3.2-.6 3.2-1H96c-1.1.3-5.6.3-5.7 0 0-.5 1.1-.6 6-.8 2.7-.1 4.9-.3 5-.4 0-.1-.6-.2-1.4 0L98 117c-.8-.3.3-1 2-1.2 1.3 0 1.4 0 1.6.5.1.6.2.6.9.2.4-.2.4-.3.2-.6s-.2-.5.2-.8c.3-.3.7-.4 1.6-.3 1.4.2 3.2-.3 3.2-.8 0-.6 1-2.3 1.8-3.1.8-.8.9-.8 3-.6 1.3 0 3.4.5 4.8.9 1.9.5 2.7.6 3 .4.3-.4.2-3.3-.1-4-.5-.8-.4-1.7.3-2.5.6-.8 2.4-1.8 3.3-1.8 1 0 6 3.4 6.7 4.6l.4.8.7-1.2a4 4 0 0 0 .7-1.9c-.1-.9 1-3.9 1.6-3.9.7 0 2.4 1.3 2.6 2 .1.6.2.7 1.3.6 1.3 0 1.7.4 2.2 2 .2.7.6 1.1 1.9 2 .9.5 1.9 1.4 2.1 1.8.3.5.8 1 1 1 .8 0 1.4.2 1.4.6 0 .8-2.3.9-4.7 0-1.5-.4-2.2-.5-5-.4-4 .1-5.7.7-6 2a9 9 0 0 1-1.2 2l-.9 1.6c0 .2-.3.8-.8 1.3l-.7.9-1-.6c-1-.5-1-.5-4.9.1l-1.2.2v1.6l.1 2.3c.3.7.4.7 1.6.7 1 0 1.4.1 1.4.4 0 .5-.3.7-2 .8l-1.2.1-.6-1.4zm-4.5-6.5 2.3-1c.2-.2.6-.5 1-.6.6 0 .7-.3.7-.8 0-.4 0-.6-.2-.6-.5 0-3.5 1.3-4.4 2-.7.4-1.1.5-1.3.3-.2-.2-.2-.3 0-.4a270.1 270.1 0 0 0 3.3-2l1.6-.7.9-.4-1.6-.4-3.8-.6c-2.5-.3-3.1 0-3.8 1.4-.6 1.2-.5 2.8.4 4.5l.2.9c0 .3.3.2 1.4-.3l3.3-1.3zm4.7.9c.2-.4-.4-.8-.8-.5-.2.2 0 .8.4.8l.4-.3zm3.2-.9c1.7-.9 3.4-1.1 4-.5.6.4.6.4 1.6-1.2 1.2-1.9 1.3-2.2.7-2.7-.4-.4-1.5-.2-4.4.7-1.3.4-2.4.6-2.8.5l-1 .1c-.3.6-.9 3-.7 3.4.2.5 1.2.4 2.6-.3zm.5-6.1c1.4-.8 1.5-1.2.6-3.9-.6-2-1-2.2-2-1.1-.6.6-.6.7-.4 1.8.2.7.3 1.8.3 2.5 0 .8.1 1.4.2 1.4l1.3-.7zm5.4-.3.6-1.1c.3-1 .3-1-.7-1.8-1.3-1-3.6-2.3-3.8-2.1l.2 1.4.5 2.7v1.5c.1.1 3.1-.5 3.2-.6zm13-1c-1.2-1-2.8-1.3-4.5-1-.8.2-1.6.5-1.8.7h-.6c-.2-.2-.2-.4 0-.6.6-.4 2.6-1.1 3.3-1.1.6 0 .7-.1.6-.7 0-.8-.2-.8-3-.6-1.1.1-1.3-.1-1-1 .4-.8.2-1.7-.3-1.7-.3 0-.4.4-.4 1.2 0 1.2-1 3.6-1.6 4-.4.3-.3.7.2.5.2 0 .6 0 .8.2.3.2 1.3.3 3.2.3 1.6 0 3.3 0 3.9.2 1.7.3 2 .3 1.1-.4zm-58.2 15c0-.4.7-.8 2-1 1.2-.2 1.7.1 1 .7-.5.4-3 .7-3 .3zm51.8-1.3c-.2-.3-.2-.4 0-.7.7-.9 1.6-.3 1.1.6-.3.6-.6.7-1 .1zm21-.8c-1.8-.5-2.2-1.3-.6-1.2 1.7 0 3.2.6 3.2 1.1 0 .7-.4.7-2.5 0zm-140 0c-.4-.2-.4-.8.2-1a144.7 144.7 0 0 1 9.8-2.1c1.7-.4 2.1-.4 2.1.1 0 .3-.4.4-6 1.9-5.4 1.3-5.5 1.3-6 1.1zm72.1-.2v-.6c.2-.5 3.8-.5 3.8 0 0 .2-.2.5-.4.6a9 9 0 0 1-3.4 0zm32.4-.1c0-.2.2-.3.5-.3s.6.1.7.3c0 .1-.2.2-.5.2-.4 0-.7-.1-.7-.2zm17-.7c0-.2.2-.6.6-.8a8 8 0 0 0 1.3-1c.2-.2.7-.5 1-.5.8 0 .5.8-.8 1.8-1.2 1-2.2 1.2-2.2.5zm7.9-.2c0-.6 1-1.3 1.7-1.3 1.3 0 .6 1.2-1 1.5-.6.2-.7.1-.7-.2zm-3.4-.2c-.4-.7 2.5-2.8 3.1-2.2.4.4.1 1.1-.4 1.1-.2 0-.8.3-1.3.7-1 .7-1.1.8-1.4.4zm-101-.4v-.6c.3-.3 2.8-.6 7.3-.8a17 17 0 0 0 5-.5c1.1-1 10-4.3 11.4-4.3 1.1 0 4.3-1.7 4.7-2.6l.3-.9c0-.1-1.3-.2-3.1-.2-5.2 0-9-1-8.1-1.9.2-.2.8-.2 2.4.2 1.1.2 3.9.5 6.3.6l4.2.2v1c.1 1.2-.6 2.6-1.4 3a14.1 14.1 0 0 1-5.3 1.9c-1.4 0-7.3 2.2-10 3.6-1 .7-1.6.8-3.4.9-2.2 0-7.2.4-9 .7-1 .1-1.2 0-1.3-.3zm-9.8-1v-.7c.3-.3 3.1-.7 3.7-.4.8.2 0 .8-1.5 1l-1.7.3c-.2.1-.4 0-.5-.2zm118.5-.3c-.6-.4-.3-1 .6-1 .5 0 .6.2.6.6-.1.7-.5.9-1.2.4zm2.1-1.3c-.7-.6-.7-.7-.3-.8.6-.3 1.2 0 1.4.5.4.8-.3 1-1 .3zm2.3-.7c-.9-.8-.9-1.3 0-1.3.5 0 1.7 1.4 1.4 1.8-.2.4-.5.3-1.4-.5zm1.7-2.2c-.3-.8.3-1.3.8-.6.4.5.3 1.2-.3 1.2-.2 0-.4-.2-.5-.6zm2.5-.1-.2-1.4c0-.6 0-.8.5-.8.3 0 .5.2.6 1 .1 1.2-.4 2-.9 1.2zm4.7.3c-.3-.3-.2-3 0-3.2.4-.1 1.4 1 1.4 1.4 0 .4-.8 2-1 2l-.4-.2zm-2.6-.5c-.2-.5.3-2 .7-2 .6 0 .7.4.3 1.4-.3 1-.8 1.3-1 .6zm6.5-.1c-.3-.6.3-1 2.3-2 2-1 2.9-1 2.9-.5 0 .2-4.6 2.7-5 2.7l-.2-.2zm3.1-.2c.1-.5 3.3-1.6 4.9-1.8 1 0 1 .6-.2 1-3.3 1.2-4.8 1.5-4.7.8zm-17-2.1c-.4-.5.1-1.2.9-1.2.6 0 .6 1.2 0 1.4-.5.2-.5.3-.9-.2zm13.5.1-.9-.2h1.1c.6 0 1.1 0 1.1.2l-.1.3-1.2-.3zm-94.2-1c-.5-.3-.4-1 .2-1 .2 0 .5-.3.6-.6.2-.4.7-.5 2.3-.7 3.2-.3 5.6-.9 6-1.5.2-.4.4-.5 1.2-.3.7 0 1.8-.2 4.1-.9a13 13 0 0 0 3.2-1.2c0-.4-1.1-.9-2.7-1-1.3-.2-1.5-.1-2.3.6-.8.7-1.7 1-1.7.5s-2.8-1.6-4.6-1.7c-.9 0-.8-.7.1-1.8 1.2-1.5 4.4-2.6 7.3-2.6 1.8 0 3.9 1 4 1.8 0 .5.2.6 1.4.6 1.8 0 3.2.5 3.2 1.1 0 1.2.4 1.5 2.3 1.3 1 0 2-.3 2.2-.5.3-.3 1.6-.5 4-.7 3.7-.4 5-.7 5-1.3 0-.2.3-.5.7-.6.5 0 1-.6 1.8-1.8 1.4-2 4.5-5.1 5.3-5.4 2-.4 3.7.9 4 3l.4 1.6c.1.1.6 0 1-.3.8-.4 1-.4 1.4-.1.4.2.6.2 1.2 0 .5-.2.8-.4.8-.6 0-.2-1.1-.7-2-.8-.7-.1-.8-1.1 0-1.6 1.4-1 4.6-1.8 7-2 2.2-.1 2.3 0 4 .8 1 .5 2 1.2 2.3 1.7.6 1 1 1 1.2 0 .4-2 3-3.9 5-3.9 1 0 1 0 1.7-1.4s3.1-4 4.3-4.6c1-.5 3.5 0 4.5 1 .5.5.9 1 .9 1.2 0 .2.4 1 1.5 2.5l.6-.4c.3-.3 1-.4 2.1-.5 1 0 1.7-.2 1.8-.4 0-.1-.1-.3-.5-.3-.7 0-1-.8-.4-1.2.3-.2.5-.5.5-.7 0-.4 1.2-1 1.9-1 .6 0 1-.2 1.4-1 .3-.5.6-.5 3.5 0 2.8.4 5.5 2.3 3.2 2.3-.4 0-1-.2-1.4-.4-.4-.2-1.4-.3-2.5-.4-1.8 0-2 0-2.2.7-.1.3-.4.7-.6.7-.2.1-.2.2.1.2.5 0 .6.3.5 1 0 .2 0 .3.2.3s.6.5 1 1c.4.7 1 1.2 1.6 1.4 1.2.4 1.7.8 1.7 1.3s-1.9.4-2.8-.2a4 4 0 0 1-1.3-1.3c-.4-.7-1.3-1.4-2-1.4-.1 0-.2.3 0 .6 0 .3-.1.6-.4.7-.3.1-.5.4-.5.6 0 .3-.2.4-.7.3-1.9-.2-5.2-.2-5.5 0-.2.2-.6.2-1.1 0l-1.5-.3a2 2 0 0 1-1.1-.5c-.5-.5-.8-.5-1.8-.4-2 .3-2 .3-2.2-.2-.1-.7 1.6-1.2 4.2-1.1h2.3l-.5-.9c-.8-1.4-1-1.5-2.8-1-.8.2-1.6.6-1.8.7-.2.2-.4.1-.5 0-.2-.4.6-1 1.5-1.2 1-.3 1.2-.6.5-.8-.7-.2-2.6 1.2-3.8 2.9l-.7 1 .6.2c.8.2.8.9 0 1-.7 0-.7.1.2.6.7.3 1 .4 1.4.2.3-.2.8-.2 1.1-.1.5 0 .6 0 .7-.4.1-.4.4-.6.7-.5.6.1.8 1.3.2 1.3l-.7.4c-.1.2-.5.4-.9.4s-.5.3-.4.8l.3 1c.2.2.2.4.1.5 0 0 0 .3.3.5.6.4.2.9-.8.9s-2.5.5-2.5.8c0 .2.5.3 1.6.1 1.9-.1 2.6 0 2.6.5s-.8.7-1.4.4c-.6-.3-2.4 0-3.4.5a7 7 0 0 1-2.5.3c-1.6 0-2.3.3-1.7.7.5.3.2.7-.6.7-.7 0-.8-.1-.6-.7.1-.5 0-.6-1-1-.9-.2-1.1-.2-1.4.1-.7 1-1.4 1.2-2.8 1-1-.3-1.5-.3-2.5 0-1.4.6-2.6.4-2.8-.3-.1-.4-.3-.5-.8-.4l-1.9.5c-1.6.4-2.2 0-1.2-.8 1-.9 0-.7-1.9.3-1.3.7-1.6.8-2 .5-.4-.2-.6-.2-.8 0 0 .2-.5.2-1.1.1-2-.3-5.6 0-5.6.4 0 .1.5.3 1.2.3 1.3 0 2.4.7 2.2 1.4-.2.4-.4.4-1 .2l-2-.1c-1 0-1.2 0-1.4-.5-.2-1-1-.6-1.5.7-.4 1.2-.6 1.3-1.6 1.2-3 0-5.4 0-7.2.2-1.7.2-2.3.4-2.8 1-.6.5-.8.6-2 .4-.9 0-2.1 0-2.9.2-1.5.3-2.2.2-2.2-.5 0-.4.2-.5.7-.5.5 0 .8-.2 1-.6.2-.8.1-1-1.3-1.3-1-.2-1.5-.2-2 0-.8.3-.8.3-.4.6 1.4.8 1.6 1.2 1.4 1.9-.1.5-.4.7-.9.8a124.6 124.6 0 0 1-18.7 5.1zm12-8.4c.7-.7 1-.8 2.4-.8 1.2 0 1.6 0 1.8-.5.3-.4.2-.6-.3-1-.6-.4-1-.5-2.6-.3-3.3.2-6.4 1.2-6 2l.8.2c.3 0 1 .3 1.6.6 1.4.6 1.4.6 2.3-.2zm28.8-3.4c.5-.2 1.1-.6 1.4-1 .2-.3 1-.8 1.7-1 .8-.3 1.4-.7 1.4-1l.4-.6c.5-.4 0-1-1-1s-1.8.5-3.5 2.6c-2.1 2.6-2.1 2.8-.4 2zm5.1-1.2c-.5-.6-1.2-.5-2.5.2-.6.3-.5.3 1.2.3 1.8 0 1.8 0 1.3-.5zm14-.2c1-.4 2.2-.4 3.2 0 .6.3.6-.4 0-1l-.4-.7c0-1.4-4.5-2.7-7.4-2.1-1 .2-1.2.3-1.2.9-.1.6 0 .8.9 1.4l1.8 1.3c1 .8 1.6.8 3 .2zm9.4-1.1c.5 0 .8-.2.8-.3 0-.6-1-1.6-1.7-1.6s-1-.4-.5-.6c1-.4 1.8-.1 2.7.9l1 1 .8-.7c.3-.5 1-.9 1.3-1 .9-.2.9-.5 0-1.2-.7-.5-1-.5-2.7-.4-2.1.2-3 .5-4.2 1.7-.9.9-1.3 1.9-1 2.6 0 .3.2.3 1.4 0l2-.4zm1.7-2.1c.2-.7 1-1 1.3-.6.4.4.3.5-.7.7-.5.2-.7.1-.6-.1zm4 1.3c.8-.2.8-.2.2-.4-.4-.1-.8 0-1.2.2-.8.5-.9.9-.2.6l1.2-.4zm11.4-5.6c.1-.1 0-.2-.3-.2l-1.1-.2c-.7-.1-.7-.1-.2.3.6.5 1.4.5 1.6.1zm2-3.4c0-.2-.2-.3-.4-.3s-.3.1-.3.3c.1.1.3.3.5.3l.2-.3zm-17.8 16.2c-1.5-.7-1.4-1.3.1-1 1.2.1 1.8.5 1.8 1.2s-.3.6-1.9-.2zM129 103c-.5-.2-.8-.4-.7-.7 0-.3.3-.4 1.2-.3 1.3 0 2.1.4 2.1 1 0 .4-1.2.4-2.6 0zm17.5-1c-.1-.2-.7-.5-1.3-.6-1.2-.5-1.5-1.1-.5-1.4 1.3-.3 4 1.2 3.5 2-.2.4-1.3.4-1.7 0zm4.3-3.9c-1.1-.5-1.2-1.3-.2-1 1 .3 2 1 1.8 1.2-.2.4-.6.3-1.6-.2zM16.8 96.3c-.2-.6 0-.7 2.2-.8 1.6-.2 2-.1 1.9.2 0 .2-.8.5-1.7.7-2 .4-2.2.4-2.4 0zm47.1-.2c-.3-.7 0-1.4.6-1.4.4 0 .5.2.6.9 0 .7 0 .9-.5.9-.3 0-.6-.2-.7-.4zm1.6-.3c-.2-.5 0-1.2.4-1.2s.4 1.2 0 1.5c-.1 0-.3 0-.4-.3zm33 0c0-.4 1.2-.9 1.5-.5.2.2-.7.9-1.2.9-.2 0-.3-.2-.3-.4zm-74-.7c-.2-.4 1-1 3.4-1.7s3-.6 2.7.3c0 .2-.4.4-.7.4-.4 0-1 .2-1.6.5-1 .5-3.6.9-3.8.5zm42.3 0c.1-.4.7-.5.7-.1l-.4.4c-.3 0-.4 0-.3-.3zM91 93.6c-.6-.3-1.3-.3-3-.2-2.3 0-2.8 0-2.8-.5 0-.4.8-.8 3.6-1.5L91 91l.9.5c1 .6 1 .5.5-.5-.6-1-.5-1.6.5-2 1-.4 4.3-.5 4.8-.2.2.1.4 1 .5 1.8.1 1.3 0 1.7-.4 2.2-.5.7-.8.7-1.7.2-.9-.6-.9-1.5 0-1.5.5 0 .7-.1.7-.6s-.2-.7-1-.8c-1-.2-1.7.2-1.7 1 0 .3-.2.5-.4.6-.2 0-.3.3-.2.6 0 .3 0 .8-.2 1.2-.3.8-1.2.9-2.4.2zm-25.8-.2c-.2-.5.8-1.6 1.6-1.9.5-.1 1.2.3 1.2.8l-.6.2c-.4 0-.8.2-1.1.6-.5.8-.9.9-1 .3zm88.7-.1c-.3-.5.2-.8 1.3-.8 1.7 0 2 0 2 .3 0 .7-3 1-3.3.5zm-101.5-.4c0-.8 4.2-2 4.5-1.3.1.1-.3.3-.9.4l-2.2.8c-1.3.6-1.4.6-1.4.1zm48.6-.3c-.1-.3-.4-.3-.8-.2-.6.1-.7 0-.7-.4 0-.7 1-.8 1.2-.2.2.3.3.3 1 0 .4-.2.8-.3 1-.2.4.2 0 .8-.8 1.1-.6.2-.8.2-.9-.1zm5.3-.1c-.1-.2-.5-.3-1-.3-.6 0-.8-.1-.8-.5s.2-.5.8-.5c.5 0 .9 0 1 .2 0 .2.4.3.7.3.3 0 .5.1.4.5 0 .5-.9.7-1.1.3zm-64.5-1.3c0-.3 1.5-1 2.6-1.2 1.5-.3 1.2.3-.4.9-1.7.6-2.2.6-2.2.3zm57.8-.6c-.8-.4-.7-1.1.1-1.2.7-.1 1.7.6 1.7 1.1 0 .5-1 .5-1.8 0zm4.3-.2c-.3-.5 1-1.3 1.7-.8.2 0 .3.4.2.6-.1.3-1.7.6-1.9.2zM42.2 89c.4-.6 1.5-1 1.5-.5 0 .3-1 1-1.6 1-.3 0-.3 0 0-.5zm77.8-1c-.7-.6-1-.7-4-.7a16 16 0 0 0-3.6.3c-.8.5-4.4.8-4.4.4s.7-.6 3.2-1.2a48.2 48.2 0 0 1 15.6.2c.1.3.2.6.1.7 0 .1-1.3.3-2.7.4-1.4 0-2.8.2-3 .3-.2 0-.8-.1-1.2-.5zm-23.3-2.2c-.5-.4-.4-1.5 0-1.5.5 0 1 1 .8 1.5-.2.4-.4.4-.8 0zm-47.4-1 1.3-1.6c1.1-1 1.6-1.3 2.3-1.3.6 0 .8.1.8.4 0 .2-.2.4-.6.4-.4 0-1.2.5-2 1.2-1.4 1.2-1.8 1.4-1.8 1zm119.4-.5c-1-.6-1-1.4 0-1.6.6 0 1-.2 1-.4s.3-.5.7-.7c.4-.2.9-.5 1-.8.3-.2 1-.5 1.7-.6 1.1-.1 1.3 0 1.8.5.3.4.7.7 1 .7.5 0 .7.4.4 1-.4.7-1 .7-1.6 0-1-1-1.3-1-2-.6-.4.2-.7.7-.7 1-.1.6-.7.7-1.7.3-.4-.2-.5-.1-.3.7.2 1.2 0 1.2-1.3.5zM40.8 82.5c0-.2.7-.6 1.4-1a45 45 0 0 0 2.2-.8c1-.5 1.2-.5 1.1 0A14 14 0 0 1 41 83c-.1 0-.2-.2-.2-.5zM25 82.4c0-.3 1-.5 2.7-.9 3.9-.7 3.8 0-.1.8-2.2.5-2.6.5-2.6 0zm60.6-.4c.2-.6 2.5-1.8 3-1.6.7.3.3.6-.7.8-.5.1-1.1.4-1.4.7-.6.7-1 .7-.9 0zM64 81.4c-.4-.7 2.1-2.3 3.2-2 1.1.2.8 1-.4 1-.7 0-1.2.1-1.8.6-.5.4-.9.5-1 .4zm-26-.5c-.2-.2-.4-.3-.3-.4.3-.3 6.6-.5 6.6-.2 0 .6-5.4 1.1-6.3.6zm39.5-.3.5-.7c.7-.5 1.9-.5 1.7 0-.1.3-2 1-2.2.7zM48 79.3c0-.3.5-.6 2-1.2l3.2-.8 1.6-.6 1-.3c.9.4-.9 1.7-2.6 2l-3 .9c-1.8.6-2.2.6-2.2 0zm26.1.3s0-.3.3-.5c.4-.4.3-.4-.8-.3-1 .1-1.2.1-1.2-.2 0-.4.8-.7 1.8-.7.4 0 .6.2.7.5.1.4.4.6.8.6 1.3.2 1 .8-.2.8-.7 0-1.3 0-1.4-.2zm-40-.4-3.4-.2c-2.2 0-3-.2-3-.7 0-.5 1-.5 7 0 5.3.5 5.5.6 5.3 1-.2.3-3.4.2-5.9 0zm34.4-.5c.3-1 3.6-1.8 3.6-.9 0 .3-.3.4-.9.4l-1.6.4c-.9.5-1.3.5-1.1 0zm-42.1-2.2c.1-.6.6-.6.7 0 0 .2-.1.4-.4.4-.2 0-.4-.2-.3-.4zm42.1.1.3-.3.1.3c0 .2-.1.3-.3.3-.1 0-.2-.1 0-.3zm-11.2-.2c0-.1.4-.5 1-.8.7-.5 1.3-.6 2.9-.6 1.7 0 2 0 1.9.5-.1.4-.4.4-2 .5-1.2 0-2 0-2.3.3-.3.3-1.5.4-1.5.1zm-5.3-1.2c0-.2.7-.7 1.5-1 1.6-.9 1.7-.9 1.7-.4 0 .3-1.5 1.3-2.6 1.6-.4.1-.6 0-.6-.2zm12.4.1c0-.5 1-.7 3.5-1l3-.2c.3-.2.9.3.6.6l-2.2.3-3.5.4c-1 .2-1.4.1-1.4 0zm-23-2.2c0-.2.2-.6.5-.8.6-.6 3.2-1.5 4.1-1.5 1 0 .8.6-.3.7-.6 0-1.2.5-1.8 1-.7.8-1 1-1.3.7-.2-.2-.4-.2-.5 0-.3.4-.7.3-.7-.1zm32.6.1c0-.4 1.1-.8 2.4-.8.7 0 1 0 1 .4 0 .3-.3.4-1.1.4l-1.7.1c-.4.1-.6 0-.6-.1zM37.5 73l.1-.6c.3-.4 1-.2 1.2.4 0 .3-1 .5-1.3.2zm140-1c-.2-.6 0-1 .5-1 .3 0 .4.3.3.6 0 .7-.6 1-.8.4zM58 71.6c-.2-.3 1-.8 2-.8.7 0 1 .3.6.6-.5.3-2.4.5-2.6.2zm-4.4-1.4c-1-.4-.8-.8.2-1a8 8 0 0 0 1.7-.7 9.6 9.6 0 0 1 5-.8c.8.2 1.1.7.6.7l-2.1.1c-2.1.2-4.3 1-4.3 1.6 0 .5-.1.5-1.1 0zM44 70c-.3-.4-.1-.5 1.6-1 4.3-1 4.6-1 5.7-.6 1.7.5 1.6.9-.3.7-1.2-.2-1.8-.1-2.4.2l-1 .3a9 9 0 0 0-3 .5c-.2.1-.5 0-.6-.1zm18.4-1c-.9-.3-1.2-1-.3-.8.3 0 .7 0 .9-.3.5-.6 2.5-1 3-.5.5.4.2.8-.5.7h-1.3c-.6 0-.6 0-.1.4s.3 1-.3 1l-1.4-.4zm79-1c-.3-.3.4-1.2.9-1.2.6 0 .7.3 0 1-.5.4-.6.4-.9.2zm8.3-1.8c0-.5 3-2 4.1-2.1 1.2-.1.7.5-1 1.3-2.4 1.2-3.1 1.3-3.1.8zm10.8-.4c0-.4 2.2-1.5 4.3-2.2 1-.3 2-.8 2.5-1.1 1.3-1 2.8-1.8 3-1.6.8.5-1.9 2.4-4.5 3.3-1 .3-1.8.6-2 .8-.2.2-2.7 1-3 1-.2 0-.3 0-.3-.2zM146.7 63c0-.6.2-1.4.5-1.6l.9-1.9c.9-2.5 2-4.5 2.4-4.7.8-.3.6.6-.4 2.7l-1 2.2c.2 0 .7-.5 1.3-1 .9-.9 1.5-1 1.5-.3 0 .2-.4.7-.8 1.1l-2.3 2.7c-.8 1.1-1.6 2-1.8 2-.2 0-.3-.4-.3-1.2zm11.6-.4c0-.2 1.4-1 2-1 .7 0 .4.5-.6.9s-1.4.5-1.4.1zm4-.6c-.2-.4.1-.6 2.4-1.5 2.6-1 4.1-1.3 4.1-.7 0 .2-.3.5-.7.5-.9.2-3.3 1-4.6 1.6-.7.3-1 .3-1.2.1zm-9.9-5.8.3-.2c.1 0 .3 0 .3.2s-.2.3-.3.3a.3.3 0 0 1-.3-.3zm13.2-4.6c-.3-.3 0-1.4 1.6-4.9 2.4-5.6 2.8-6.3 3.2-6.3.5 0 .4.6-.9 3a43.7 43.7 0 0 0-3 7c-.2 1.1-.5 1.5-1 1.2zm-1.8-1.3.4-1.2 1.4-2.8c.5-1.1 1.6-3.4 2.5-4.9 1.5-2.7 1.8-3.7 1.3-3.7-.4 0-.4-.6.1-1.6.3-.6.5-.7.8-.5.2.2.2.5 0 1.1-.3.6-.3 1-.1 1.1.5.5.2 1.4-1 3.4-.7 1-2 3.6-3 5.7-1.7 3.5-2.4 4.4-2.4 3.4zm.3-5.2c0-.5 2.2-4.3 2.7-4.7.7-.6.6.5-.2 1.6l-1.2 2.1c-.6 1.2-1.3 1.7-1.3 1zM64 39.7c.1-.4 2.1-1.3 2.4-1l-.6.8c-.9.7-2 .8-1.8.2zm103.5-2.6c0-.5 1.4-3 1.7-3 .5 0 .4.8-.4 2-.8 1.4-1.3 1.7-1.3 1zm-117.7-.8c0-.4 2.6-2.6 3-2.6.5 0 0 .9-1.2 1.8-1.3 1.2-1.8 1.4-1.8.8zm116.6-2.8c-.6-.7-.8-1.3-.3-1.5.4-.2 1.7 1 1.7 1.7 0 .5-1 .4-1.4-.2zM45 32.1c-.3-.6 0-1 .4-.5.3.2.3.4 0 .6-.2.2-.3.2-.4-.1zm102.8-.1c0-.4 1-1.2 1.6-1.2.5 0 .2.9-.6 1.2-1 .5-1 .5-1 0zm3.2-1.4c0-.2 0-.3.2-.3s.3.1.3.3c0 .1-.1.2-.3.2a.3.3 0 0 1-.2-.2zm-97-2.4c-.3-.4 0-.6 1-1 1.4-.4 1.8.2.4.9-.9.4-1.2.5-1.4 0zm117.8-2.4-1.8-.6c-1-.3-1.5-.5-1.5-.8-.1-.5 0-.5 1-.4 1.6.3 3.7 1.2 3.7 1.7 0 .4-.7.5-1.4.1zm-13.6-.8a1 1 0 0 0-.7-.6c-.7-.2-.3-1 .5-1 .4 0 .6.2.6.5s.3.7.8.9c1 .4 1 .7-.1.7-.8 0-1 0-1.1-.5zm17 0c-1.4 0-2.6 0-2.6-.2l.4-.6c.3-.4.7-.4 2.6-.3 1.7 0 2.4.2 2.5.5.3.6-.2.8-2.9.7zm-9.4-1.5c-1-.6-2.7-1.1-5.3-1.5-2.3-.4-2.5-.4-3.4.1-1.2.6-1.7.7-2.2.2-.2-.4-.1-.5.7-.8.5-.2 1-.6 1-.7 0-.3.5-.3 2-.2 4.3.4 8.2 1.6 8.4 2.6.1.6-.5.8-1.2.3zm-114-.2c-.6-.3-.4-.7.3-.7.4 0 .7.2.7.4 0 .4-.4.5-1 .3zm123-1.2c-.5-.3-.2-1 .4-1 .2 0 .4.2.4.5 0 .6-.3.8-.8.5zm2.9-.2c0-.3 0-.6.2-.6s.3.2.3.4-.1.4-.3.5c-.1.1-.2 0-.2-.3zm-26.5-.2c0-.5 1.7-1.3 2.1-1 .4.2 0 .6-.5.6l-.8.4c-.4.5-.8.5-.8 0zm-103.8-.3c-.2-.2 0-.6.5-.6.2 0 .4.2.4.4 0 .4-.6.5-.9.2zm110.4-3.3a72.4 72.4 0 0 0-6.8-.5c-.8-.4 0-.8 1.9-.8 2.4 0 10 .7 10.1.9.1 0 .1.3 0 .4-.2.3-1.7.3-5.2 0zm.6-2c-3.2-.3-2.8-.7.6-.8 3-.1 4.4 0 4 .4-.4.4-2.1.5-4.6.3zm8.1-2c-.2-.4-.2-.5 0-.8.6-.3 6.1 0 6.5.3.6.6-.2.8-3.1.8-2.4 0-3 0-3.4-.4zm-5.4-1.2c-3 0-3.8-.2-3.8-.7 0-.2.3-.4.6-.5.9 0 8 .4 8.3.7.2.2-1.1.7-1.8.7l-3.3-.2zm-96.5-.3c-.1-.2 0-.4.2-.4.6-.3 1.9 0 1.9.2 0 .4-2 .5-2.1.2zm99.3-5.2a5 5 0 0 0-1.8-.2c-.6.2-7 .1-7.8-.1-.5-.1-.9-.5-1-.7 0-.4 0-.5.6-.3 2.2.7 6.2.8 7.3.2.3-.2 1-.1 2 .1l2.6.6c.7 0 1.3.3 1.4.4 0 .4-1.7.4-3.3 0zm-6-2c-.3-.5 6.5-2.5 7-2 .3.3-.5 1-1.3 1-1 0-3 .4-4.4 1-1 .4-1 .4-1.2 0zm-92.1 0c0-.3 3.7-1.6 4.1-1.4.6.2.2.5-.8.6-.5 0-1.3.2-1.7.4-.8.4-1.6.6-1.6.3zm99.9-.5c.4-.4 4.2-1.4 4.6-1.2.5.3-.2.7-1.8 1-3.2.6-3.1.6-2.8.2zm-17.9-.3c.1-.2.8-.4 2.1-.5 1-.1 2-.2 2 0 .4.2-.5.5-2.2.7-1.7.2-2 .1-1.9-.2zm8 0c-.5 0-1.3-.3-2-.3-1.5-.2-1.7-.7-.4-.7 1.5 0 3.6.6 3.6 1s-.3.4-1.3 0zm15.1 102.2 1.6-.2-1-.5c-.8-.3-1.5-.4-2.5-.3-1 .1-1.7 0-2.2-.3-1-.5-1.1-.4-.7.7.2.7.4.8 1.1.8l1.1.1h.6l2-.3zm4-1.3c1.7-.8 2-1.6.6-1.6-.5 0-1.8 1.2-1.8 1.7s0 .5 1.3 0zM155 104c-1.7-1.4-1.7-1.5-3.6-.9-1.8.6-2 1-.7 1.1l4.6.7c.7 0 .6 0-.3-1zm8.4-3-.1-.8c-.4-.7-.4-1.5 0-1.8.1 0 .4.2.5.7l.5.8c.5 0 1.1-.8 1.1-1.3 0-.6 0-.6 1-.5.7.2 1.3 0 2.3-.5 1.5-.7 2.5-.7 2.7-.2.1.4 0 .5-1.3.8-.4 0-1 .4-1.4.7-.4.4-1.1.7-1.6.8-.7.2-1.7 1.2-3.8 3.5l-.7.7.8-.1a44 44 0 0 1 7.6-1c1.9 0 2 0 2.2-.6.2-.9.2-2 0-2.5-.6-1-.9-2.2-.7-2.7 0-.4 0-.5-1-.7-2.1-.3-6.3.3-7.8 1l-1.5 1.1a37.6 37.6 0 0 0-1.7 5.6c-.2.5 2.4-2.2 2.9-3zm-56.5-16.7c0-.7 0-.7-.4-.2-.4.7-.5 1 0 1l.4-.8zm2.7-2c1.1-1.8 1.7-2.2 1.4-1-.2.8 0 .8 1.9-.6.9-.6 1.4-1.2 1.4-1.6 0-.6 1-1.7 1.5-1.7.2 0 .4.2.4.4 0 .5.3.5 1-.1.5-.7 1.5-.7 1.7-.1.1.2 0 .6-.2.8-.5.6-1 2-.7 2 .8 0 1.7-.7 1.5-1-.1-.5 1.5-2.1 3.3-3.3 1.2-.8 2.7-2 2.7-2.2l-.6-.3c-.3 0-.5-.2-.5-.3 0-.2 1.5-1 3.4-2 1.9-.8 3.5-1.7 3.6-1.8.4-.7-.6-.4-4 1.3-3.5 1.7-4.9 2.2-4.9 1.6a169.7 169.7 0 0 0 8-4.1c1-.5 1.5-1.3 1.2-1.7 0 0-.6 0-1.2.3-.8.4-1.1.5-1.5.2-.3-.2-.6-.2-1.7.4-1.2.6-2.1.8-2.1.5l.3-.7c.2-.5.2-.5-.4-.3-1.4.4-5.4 2.5-6.1 3.2-1.3 1.2-2.8 3-2.8 3.3 0 0-.3.2-.7.2-.6 0-3.6 2.4-3.3 2.7.1.1.5-.1 1-.6.7-.7 1.7-1.3 2-1.3.6 0 0 1-1.6 2.2L110 80c-1.6 1.5-1.8 1.8-1.3 1.9.7 0 .7.1 0 .8-.4.5-.7 1.3-.3 1.3l1.2-1.7zm6.3-.1c.7-.5 1.1-1 .7-1-.2 0-2.3 1.3-2.3 1.4 0 .3.8 0 1.6-.4zm-.5-1.5c1-.7 1.8-1.3 1.8-1.5 0-.3-.8.1-2.7 1.5-2 1.6-1.4 1.5 1 0zm-28.2-2c.2-.3-.1-.3-.6 0-.4.2-.4.3 0 .3.3 0 .5-.1.6-.3zm24.6-1.8c.1-.2-.3 0-.9.5-.6.5-1 1-1 1.2 0 .2 1.6-1.1 1.9-1.7zm11 1c1.6-1 3.7-2.7 3.7-3 0-.5-.4-.5-.8 0-.2.3-.8.7-1.3 1-1.2.8-3.1 2.5-2.8 2.6l1.2-.6zm5.7-2.4c.2-.2.4-.6.3-1 0-.5 0-.5-.8.4-.7 1-.5 1.3.5.6zM83 75.2c1-.4 1.8-1 3.4-2.6 2.4-2.3 3.2-2.7 4-1.9 1 1 2.4 1.3 4.6.9 1.1-.2 2.4-.2 2.8-.2 1.4.4 3.3-1 4.1-3 .4-1 .8-1.3 1.1-.8.3.5-.4 2-1.4 3l-1 1.1h1.9c1.4.2 1.7.2 1.6.6-.2.3 0 .4.6.3.6-.1.9 0 1 .2 0 .2.6.4 1.3.4.9 0 1.1 0 1 .4-.2.6.5.7 2.2.4 2.7-.6 5.1-1.8 5.1-2.6 0-.3-.1-.3-.5-.1-.5.3-1 0-1-.4 0-.2-.3-.4-.6-.5-.3 0-1.1-.8-1.9-1.6-1-1-1.3-1.6-1.2-2 .1-.3 0-.6-.2-.7-.2-.1-.5-.7-.8-1.3-.5-1.3-.3-2.2.7-4.7l.5-1.2-.5-.8-.6-1.2c0-.2-.6-1-1.4-1.7-1.3-1.2-1.5-1.6-1.5-2.4 0-1 0-1-.8-1.2a15 15 0 0 0-6.1.8c-2 .7-2 .7-2.3 1.7-.2.6-.9 1.4-2 2.5-2 1.8-2.3 2-3.5 2-1 0-1.3-.5-1-1.3.2-.6 1.4-1.3 2.2-1.3l1.1-.3c.4-.2.5-.4.2-.7-.3-.3-.1-.6 1-1.4 1.2-1.2 1.5-1.6.6-1.4-.8.2-.8-.4 0-1.7 1-1.7 1-2.2 0-2.2-2.5 0-4.3-.2-4.3-.3v-.5c0-.4 2.2-.9 2.6-.5.2.2.7.2 1.2.1s.8 0 1 .2l.9.3c.6-.2 1 1 .7 2-.1.3-.2.7 0 .8 0 .3 4.4 0 5-.3.3 0 1.2 0 2 .2l2.5.4a8 8 0 0 1 2.4.7l2.7 1a7 7 0 0 1 2 1c.6.5 1.4.4 1.4-.2 0-.4.6-.7 1.3-.7.6 0 3.4-1.1 3.8-1.5.2-.2.5-.3.7-.3.2 0 .3-.2.2-.5-.2-.7.1-1 4.4-2.7 7-3 7.2-3 7.2-2 0 .9.6.7 1.3-.3.5-.8.7-1.4.8-3.2 0-1.2.2-2.3.4-2.5.2-.3.8-3.7 1-5.4 0-.5.1-1 .3-1.2.4-.3.4-1.6.2-3.5-.2-1.1-.3-1.2-1-1.2-.4 0-1-.1-1.2-.3-.4-.3-.8-.3-1.6 0s-1.2.3-1.3.1l-.8-.6c-.4-.2-.5-.4-.4-.7.1-.3 0-.4-.2-.3-2 .7-3.5 1-3.7.8-.2-.2-.8-.2-1.6-.1-1.2.1-1.3 0-1.3-.5 0-.4-.2-.5-.6-.5-.4 0-.7-.2-.8-.3 0-.2-.4-.2-1.1 0l-2.3.3c-1 .1-1.2 0-1.2-.4s.3-.6 1-.7c1.3-.3 1.3-.6-.2-.4-3.2.5-9.6 3-9.6 3.8 0 .5-1.7 1.6-3 2.1l-.7.5a42 42 0 0 0-5.7 5c-1.8 1.8-2 2-3.9 2.4a186.3 186.3 0 0 0-16.2 5l-1.5 1 .7.7c.4.3 1.3.7 1.8.8l2 .5a9 9 0 0 1 3.7 3.3c.5 1 .8 1 1.4 0 .2-.5.7-.9 1-.9.2 0 .6-.2.9-.5.6-.7 1-.4 1 .6-.1.4-.4.6-.8.7-.3 0-.7.3-.9.6-.1.4-.5.9-.9 1.2-.5.4-.7.9-1 2.5 0 1-.3 2.3-.6 2.7a7 7 0 0 0-.5 2c-.2 1.5-.6 1.9-2.4 1.9-.5 0-1.2.1-1.6.3a42 42 0 0 0-7 6 27.1 27.1 0 0 1-3.5 2c-2.2 1-2.7 1.5-2.2 2 .5.3 5.2-.6 6.2-1.3 2.4-1.9 4.4-3 5.4-2.9.6 0 1.1.1 1.2.3.3.5.9.1 2.3-1.3 1-1 1.6-1.4 2-1.3.4.2.6 0 1-1.1 1-2.2 2.7-3.4 2-1.3l-.3 1.3c0 .3-.2.5-.4.6-.3.1-.4.5-.4 1.1l.1 1h-1.3c-1.2 0-1.3 0-2.3 1.1l-1.5 2.2c-.3.6-1.4 2.1-2.4 3.4-1 1.3-1.9 2.5-1.8 2.6.2.4 2.4.4 3.6 0zm26.8-2c.1-.5 2.8-1.7 3.2-1.4.4.2-.3.7-1.4 1l-1.5.6c-.3 0-.4 0-.3-.3zm0-1.3c0-.3 2-1.1 2.2-.8 0 0 0 .3-.3.4-.8.4-2 .6-2 .4zm12-24.4c-.3-.5 0-.7 3.9-2 3.7-1.2 4.5-1.4 4.8-1 .2.5-.4.8-4.4 2-4.3 1.4-4 1.4-4.3 1zm-3.2-4.2c-.3-.5.1-.8 1.7-1.3 3.3-1 4.3-1 4.4-.7.2.6.2.6-2.4 1.5-2.4.8-3.4 1-3.7.5zm-1.8-1.2c-.1-.3-.4-.4-1.3-.2-1.3.1-1.9-.3-1.2-.9.5-.6 4.4-1.3 5.2-1 .4.2 1 .2 1.2 0l3.7-1c2.3-.6 3.4-1 3.7-1.4.9-1 3.3-2.2 3.6-1.8.5.5 0 1-1.2 1.6-.8.3-1.4.9-1.6 1.2-.2.4-.8.7-2.5 1.1-1.2.3-3.7 1-5.4 1.7-3.6 1.2-4 1.3-4.2.7zm-19-.7c-.4-.4 0-.7 1.6-1.2 1.5-.4 2.4-.4 2.4.1 0 .8-3.7 1.8-4 1.1zm11.7-4.1c-.4-.4-.3-.5.1-.8.5-.4.5-.4-.2-.4-.4 0-.8 0-.8-.2-.1-.2-.4-.2-.9 0s-.7.2-1 0c-.4-.5.1-1.1 2-2.2l3.5-2c1.9-1.3 3.3-1.8 3.7-1.4.3.3-.2 1-.6 1-.4 0-4.8 2.8-4.6 3l1.9-.3c2-.3 2.2-.3 2.2.2 0 .4-.4.6-1.3.8-1.3.4-1.3.4-1.2 1.1.2.8-.2 1.1-1.7 1.5-.6 0-.9 0-1.1-.3zM105.7 75l-.8-.2c-.6 0-.7 0-.4.2.6.4 1.4.4 1.2 0zm23.5-2.4c.8-.6 1.5-1.1 1.5-1.3 0-.3-.1-.3-1.4.3-2.2 1.1-3.3 1.9-3.2 2.1.3.4 1.4 0 3-1.1zm15.4-1.4c0-.3 0-.4-.1-.3l-.3.4c0 .4.2.3.4-.1zm-.6-.7c.3-.4.4-.8.3-.8l-1 .8c-.6.6-.6.8-.3.8.2 0 .7-.3 1-.8zm-26.6-1.1c.2-.2-2.4-5.4-2.8-5.9-.4-.4-.3-1 .1-1.4.6-.5.5-1.3 0-1.5-.6-.2-.6-.2-.9.6-.6 1.4.5 4.8 2 6.6.7.9.9 1.7.3 1.7l-.7-.4c-.3-.4-1.9-.5-1.9-.1 0 .5 3.4.9 4 .4zm2.5-1.5c1-.4 1.4-.8.6-.8-.2 0-.6-.6-1-1.5-1-2-1.7-1.9-.8.2.7 1.8.7 2 .2 2-.4 0-.7-.4-1.2-1.8-.7-1.9-1.8-3.6-1.8-3 0 .4 2 4.5 2.5 5 .3.5.2.5 1.5 0zm-7.5-.5c-.2-.2-.6-1-.8-1.8-.3-.8-.7-1.4-.9-1.4-.4 0-.4 0 .4 1.6.8 1.7 1 2 1.5 2l-.2-.4zm1.2-.8c-.7-1.6-1.1-4.5-.8-5.2.3-1 .3-2.5 0-2.5-.2 0-.3.5-.3 1.2 0 .6-.1 1.8-.3 2.5-.3 1.5 0 3 1.1 4.3.7 1 .8.9.3-.3zm9.5 0c.3-.2.3-.3 0-.7-.2-.2-.3-.6-.2-1 0-.4-.1-.6-.4-.7-.4 0-.5.1-.5 1.3 0 1.3.2 1.6 1 1zm2.2-1 1-.2c.4.4 1.8-1 2-2 .4-1.2.4-2.4 0-2.4-.3 0-.7 1-.7 2s-.7 2-1.1 1.5c-.3-.3-.3-.5 0-1.2.4-1.1.4-1.2-.2-1.3-.4-.1-.6-.5-.7-1.3 0-.7-.3-1.4-.6-1.6-.5-.4-.4-.7.2-.7.3 0 .7.2.8.6.3.7 1.4 1.5 1.6 1.3v-1c-.4-1-.2-1.1.6-.5.6.3.7.3.7 0 0-.5-2.3-1-4.6-1h-2l.4 1.4.5 2.2c.2 1 .2 1 .5.4.2-.4.2-.9-.2-1.8-.3-1-.3-1.2 0-1.3.5-.2.8.1 1 1 .1.5.4 1.1.6 1.4.4.7.7 2.6.5 3.3-.3 1-1 .7-1-.5 0-.9 0-1-.5-1-.4 0-.5 0-.4.4l.2 1.6c0 1.2 0 1.3 1.4.8zM74 65.3l.8-.8c0-.4-.8-.2-1.5.4-1 .8-1.3.9-1.1.2.1-.5-.4-.8-1.6-.8-.6 0-.6 0-.2.6.8 1 2.4 1.2 3.6.4zm47-.2c0-.7-.6-1.8-1-1.5 0 .1.6 2.3.9 2.3l.2-.8zM75.8 63c0-.8.3-1.3.7-1.3.4 0 2.7-2.3 2.7-2.8 0 0-.2 0-.6.4-.3.3-1 .6-1.5.7a5 5 0 0 0-1.9 1c-1 1-1.7 1.1-1.6.2 0-.3 0-.6-.3-.7-.5-.1-.5-1.3-.1-1.6.2-.1.4 0 .5.1.3.5 1-.2 1.8-2 .9-1.7 1-2.4.6-2.4-.2 0-.4.2-.6.5-.1.3-.7.8-1.4 1.2-1.4.8-3 3-2.7 4 .2.6 2 2 3 2.3.3.1.7.4.8.7.1.6.6.4.6-.3zm35.7-1.3v-1l-.5 1c-.3.5-.5 1.2-.5 1.6v.6l.5-.6c.3-.4.5-1 .5-1.6zm19 .7c.3-2.4.3-3-.3-3-.6-.1-.6 0-.6 2.1 0 1.8 0 2.2.3 2.1.2 0 .4-.6.5-1.2zm-100 .3c1.6-.8 3.1-2.1 4.1-3.6.7-1 1.6-1.1 2.3-.3.7 1 1.6 1.2 5.2 1.7l3.5.4 2.3-1.4c1.7-1 2.4-1.7 2.6-2.2.1-.4.4-.9.6-1 .3-.3.3-.4-.1-1-.3-.4-.6-.8-.6-1l-.4-.6c-1.1-1-1.8-4-1.2-5.3.3-.4.2-.7-.1-1.1l-1.8-2.2c-1-1.3-1.5-1.7-2.4-2-1.1-.2-1.3-.2-3.2.7-1 .5-2 1-2.1 1.2-.3.5-1.2.3-1.4-.3-.2-.7.5-1.7 1.5-2 .5 0 1.5-.4 2.2-.7.8-.4 1.6-.7 2-.7l1.2-.3c.7-.4.7-1.1 0-1.7a12 12 0 0 0-5.1-1c-1.2.2-4 2.4-4.2 3.3 0 .3-.3.8-.4 1-.1.2-.2.6-.1 1 .1.5 0 .7-1 1.3-1.4.8-4 4-4 4.9 0 .6 0 .6-1.6.6-1.4 0-1.5 0-2.3 1l-1.8 2-1.8 1.8a81 81 0 0 1-2.5 2.5c-1.8 1.7-1.9 2.4-.4 2.4.5 0 1.3-.4 2.4-1.2 3.8-2.8 6.2-3.8 9-3.8.9 0 1-.1 1.6-1 1.4-2.2 2.9-2.9 4.3-1.9s1 2.2-.6 1.5c-1.1-.4-1.6-.2-2.3.8l-2.6 3.2c-1.1 1.2-2 2.4-2 2.6 0 .4-1 2-1.5 2.3-.2 0-.1.3.2.6.7.5.6.5 2.4-.5zm35.5.4c.6-.2.6-.2-.3-.5-1.3-.5-4.1-1.1-5.7-1.3a6 6 0 0 1-2.8-1.2 28.2 28.2 0 0 0-5.3-2.9l-.2.4c0 .3-.1.8-.4 1.1-.3.5-.3.6 0 .7.6.2.5.7-.1.7-1 0-.4.7.6.7.8.1 5.5 1 8 1.7 2.8.7 4.9 1 6.2.6zm52.7-1.8c.2-.9.2-1.7 0-2.1-.1-.7-.2-.6-.3 1l-.4 2.6c-.1.4 0 .5 0 .2.2-.2.5-1 .7-1.7zm1.5-.6-.1-2.3c-.1 0-.3 1-.3 2.3 0 1.3 0 2.3.2 2.2 0 0 .2-1 .2-2.2zm2 1.2c.2-1.5-.3-3.6-.8-3.6-.2 0-.2 3.1 0 4.1.3 1 .6.7.8-.5zm10.5-.4c.3-1.2-.1-1.8-.5-.8-.2.4-.3 1-.3 1.3 0 .8.5.5.8-.5zm-15.6-.8v-1c.2-.5.2-1-.1-2-.2-.7-.4-1.4-.3-1.6.1-.3 0-.5-.5-.6-.7 0-.7 0-.6.5.8 2.6 1 3.5.8 4.9l-.1 1.5.5-.7c.4-.4.5-.7.3-1zm-49.4-.3-.3-1.2v-3.1c0-1.6-.1-2.6-.3-2.7-.5-.3-.3-1.2.2-1.5.3-.2.6-.5.6-.9 0-.7-1.4-3.5-2.2-4.2-.6-.7-.9-.4-.4.4.2.3.6 1.1.7 1.8.3 1.2.7 8 .6 10.9 0 1.4 0 1.4.6 1.3.6 0 .6-.2.5-.8zm-2.2.1c.2-.2.3-.7.3-1-.2-5.7-.6-9.7-.9-9.7-.5 0-.7 1.1-.7 3.1 0 1.9 0 2.3.5 2.7.7.7.3 1.4-.5.9-.6-.4-.9-2-.7-4 .1-1.5 0-1.7-.4-1.7-.3 0-.7.2-1 .5-.8.9 0 4.1 1.7 6.4.4.6.6 1.2.6 1.9 0 1.3.4 1.7 1 1zm9.7-.5c.7-.7 1.5-2.2 1.3-2.6 0-.2-.3 0-.5.5a11 11 0 0 1-1.3 1.8c-.9 1-.4 1.4.5.3zm-11.6-.7c-.2-1-.8-1.8-1.3-1.8-.3 0 0 2.5.4 2.7.7.5 1 .2.9-1zm-2.1 0c0-.6-.7-2.4-1-2.4-.1 0-.2.7-.2 1.5 0 1.4 0 1.5.5 1.4.3 0 .6-.3.7-.6zm-2.1-.7c0-.7-.1-1.1-.5-1.5-.9-1-1.3-2.5-1.3-4.4 0-1.6-.1-1.7-.7-2-.6-.3-.6-.3-.8.6-.2 1.6.2 4 .8 4.5.6.5 1 1.5 1.3 3 .3 1.1 1 1 1.2-.2zm55.8.6c0-.2-.2-.4-.5-.4s-.5.2-.5.4.2.4.5.4.5-.2.5-.4zM77.3 59l-.1-.2-.3.2.1.3c.2 0 .3-.1.3-.3zm4.1 0-.1-.2-.4.2v.3c.2 0 .4-.1.5-.3zm53-.8c0-.7-1.3-2.2-2.4-2.6l-1.6-.3c-.8 0-.8 0-.3.6.4.4.4.6.1.9-.2.3-.1.4.5.5.5.1 1 .4 1.2.7.4.5 2 1 2.3.9.2-.1.2-.4.2-.7zM57 58c-.2-.4-.7-.8-1-1-.6-.3-.8-.5-.7-.8.1-.4 0-.5-.5-.5-1 0-1.3-.8-1.4-3.4 0-1.3 0-2.5-.2-2.8 0-.4 0-1 .2-1.4.9-1.5.4-3.4-1-4.4-.9-.7-1.1-.4-.6 1 .7 1.8.8 3.8.4 5.6-.6 2-.6 2.9-.1 4 .7 2 1.4 2.7 2.6 2.5.2 0 .8.4 1.2 1 1 1.2 1.6 1.2 1 .2zm21.5 0c0-.1-.2 0-.4 0-.3.3-.4.5-.4.7 0 .1.1.1.4 0l.4-.7zm6.3.6c.4-.2.5-.5.5-1.3 0-.6.2-1.1.5-1.4.3-.3.6-1 .7-2 0-.8.2-1.6.4-1.7.2-.2-.1-.7-.9-1.6-2.2-2.8-2.5-2.9-7.4-3.5-4-.5-5-.5-4.8 0 0 .1.4.3.9.3.4 0 1 .2 1.3.4.2.2 1.5.8 2.8 1.2 1.4.4 2.4.9 2.6 1.2.3.6-.2.9-1.2.6-.8-.2-.9 0-.2.6.3.2.4.4.1.8-.2.4-.1.5.4 1 .3.2.6.6.6.8l.5 1 .6.7c0 .1.2.3.5.4.4.1.5.3.4.7 0 .3 0 .6.3.7.2 0 .3.4.3.8 0 .6.3.7 1.1.3zM69.4 56v-2.4c-.2-1.3-.2-1.6.2-1.7.5-.2.2-1.5-.7-2.8-.4-.7-.6-1.1-.4-1.3.3-.3 1.8 1.6 2 2.6.2.6-.1 4.2-.5 6.4l-.2 1 .7-.6c.9-.6 1.3-2.2.8-3-.4-.5-.3-.6.2-1.4.6-1 .5-2-.2-3.3l-.4-1.1c-.2-.5-3.5-1.5-3.8-1.3-.1.1.1.7.5 1.4.8 1.3.8 1.4.6 6.4l-.2 3.7.6-.8a7 7 0 0 0 .8-1.8zM81 57.7c0-.3-.2-1-.6-1.7l-.7-1.2v.8c-.2.9.5 2.5 1 2.5l.3-.4zm38-.4-.7-.5c-.1 0 0 .2.3.5l.7.5c.1 0 0-.2-.3-.5zm-41-.8c.4-.7.3-1-.4-1.3-.7-.3-.8-.2-.5 1 .2 1 .5 1 .9.3zm51 .1c-.8-.5-1.2-.5-.6 0 .3.2.7.4 1 .4l-.3-.4zm-67.4 0-.4-1c-.8-1.8-.3-5.1.7-5.4.7-.2.7-2.5 0-3.5-.6-.7-1.8-1.5-2-1.2-.1 0 0 .6.4 1.3.6 1.3.6 3 0 4.4-.2.5-.3 1.3-.2 2.2.2 1.5.9 3.4 1.3 3.4l.2-.1zm11-1c.4-.5.6-1.1.6-1.4 0-.3.3-1 .6-1.6l.6-1-.5-1c-1-1.6-1.3-1.2-1.5 2.1l-.3 3.4c-.3.7 0 .4.6-.5zm-13 0-.1-2.8c0-1.8-.1-2.4-.4-2.5-.7-.2-1 1-.7 3.2.2 1.9.6 2.7 1.1 2.7.2 0 .2-.2.1-.6zm67.5-.2c.4-.5.3-.6-.3-.5a8 8 0 0 1-1.3 0c-1.1 0-1.3.4-.2.8 1 .4 1.2.3 1.8-.3zm-12.9 0c0-.4-1-1.5-1.3-1.4-.3.2.2 1.2.7 1.5.4.3.6.3.6 0zm-59.2-2.3c0-1.8.5-3.8 1.2-4.5.7-.9 0-3.5-1-3.5-.4 0-.5.4-.7 2.7-.4 3-.4 4.2-.2 5.9.3 1.6.7 1.3.7-.6zm23.8 1c0-.5-1.1-1.6-1.7-1.6-.4 0-.4.2-.3.6.1.4.4.8.6 1 .5.4 1.4.4 1.4 0zm33-.4c-.1-.2-.3-.4-.4-.3v.6l.4.3v-.6zm-36.5 0c.1-.5-.4-.4-.6 0 0 .3 0 .4.2.4l.4-.5zm33.2-1c-.1-.5-.2-.6-.4-.5-.3.3-.1 1.1.3 1.1.1 0 .2-.3 0-.7zm61-1.7c.6-.7 1-1.4 1-1.6 0-.3-2.1 2.3-2.7 3.2l-.5.9.6-.6 1.7-1.9zM51.3 50c0-1 0-1.8-.3-2-.2-.2-.3-1-.3-1.7 0-1-.2-1.5-.4-1.8-.8-.8-1-.4-.4.8.5 1 .6 1.8.6 4 0 3.4.1 3.5.5 2.9.1-.3.3-1.3.3-2.2zm24.5 1.7c0-.1-.1-.2-.3 0l-.2.3c0 .2.1.2.2.1.2 0 .3-.2.3-.4zm50.7-1.3c.8-.3 1.4-.7 1.3-.8 0-.1-.7 0-1.5.4-2.2 1-2 1.3.2.4zm-51-.2c0-.3-1.1-1.4-1.5-1.4-.3 0-.2.3.4.8.7.8 1.1 1 1.1.6zm-16.8-.6c.3.2.5.2.8 0 1-.8-.5-4.3-1.7-4-.3 0-.5.3-.4.5l.2 2.3c0 1.7 0 1.8.3 1.4.3-.4.5-.5.8-.2zm6.3-.5c0-.4-1-2.3-1.4-2.5-.2-.2-.3 0-.1.2l.1 1.5c0 1 .1 1 .7 1 .4 0 .7 0 .7-.2zm8.2-.3c0-.1-1.2-.8-1.5-.8 0 0 0 .3.3.7.4.6 1.2.7 1.2.1zm-62.9-3.4c1.6-1.5 4.7-3.6 6.3-4.1 1.6-.6 1.6-.6.7-2-.5-.7-.9-1.6-1-2.3 0-1.1 0-1.2 1-2.2 1.1-1 1.2-1 .9-1.6-.4-.6-.4-1.5 0-1.7.3-.3.2-.7-.2-.7-.7 0-1.5-.7-1.5-1.4 0-.3.2-.8.5-1.2l.4-.6-2.3.2-3 .1-2.6-.1c-1.5-.2-2.4-.1-2.8 0l-1.3.5C4 28.4 4 28 4 38.7c0 5.5 0 10.1.2 10.2.3.3 4.7-2.2 6-3.5zm6.3-11.5c-.2-.6.4-1.2.8-.8.3.4.1 1.2-.3 1.2-.2 0-.4-.2-.5-.4zm121.3 11.4c.3-.3.5-1 .5-2 0-.8.2-2 .4-2.7.3-1.2.3-1.3-.1-1.8-.5-.5-.5-.7-.2-2l.2-1.7a46.2 46.2 0 0 0-1.3 11.3c0-.3.3-.8.5-1.1zm-62.9.1 1.5-.2c-.3 0-.8-.2-1.1-.5-.6-.4-5.3-1-5.6-.8-.1.1.3.6.8 1.1.9.7 1.3.9 1.8.8l2.6-.4zm4.2-2.5c1.6-1 4.7-2.4 6.2-2.7.8-.1 1.2-.5 2.1-1.7l3.4-4c2.6-3 4.9-6 4.5-6-.7 0-3.2 1.4-3.5 2l-.5.6-.8.5A8.1 8.1 0 0 1 86 34a4 4 0 0 0-1.6.3l-2.2 1.2-3.3 2c-.8.4-1.7.8-2 .8-.5 0-2.7 1.7-3.3 2.5l-.9 1c-.6.7-.4 1 1 1.2.7 0 1.7.3 2.2.5 1.4.5 1.5.5 3.2-.5zM49 43c0-.1-.1-.3-.3-.3-.1 0-.2.2-.1.3 0 .2.2.3.3.3V43zm-28-4c1.8-.7 2-1.1 1-3.7-2.3-6.2-3-7.6-3.5-7.6-.1 0-.4.3-.7.8-.6 1-.4 1.5.6 1.5.3 0 .8.2 1 .4.5.3.5.4 0 1-.5.4-.6.7-.5 1.3.2.8-.2 1.6-1.2 2.7-.3.4-.4.7-.2 1v1.2c0 .5.1 1 .5 1.4.7.7 1.5.7 3 0zm70.7-.9 3.7-1c2.3-.5 2.4-.6 3.8-2 .7-.8 2.3-2.2 3.4-3l4.5-3.7c3.3-2.7 5-3.5 10.3-5l1.3-.4h-3c-3-.1-3.2 0-3.3.4-.1.5-.3.6-2.2.6l-4-.3c-2.1-.3-3-.2-4 .7a62 62 0 0 1-2.1 1.8 19.5 19.5 0 0 0-4 3.9c-.2.3-.4.9-.3 1.2 0 .7-.6 1.7-1.2 1.7l-1 .7-1 1a48 48 0 0 0-3.4 4h.6l2-.6zm-66.2-1a5.3 5.3 0 0 0 2.3-2l.6-1-1-2-2.6-4.8c-1-1.6-2-3.6-2.3-4.4-.3-.8-.7-1.6-1-1.7a9 9 0 0 1-1-2.7c-.5-2-.7-3-.8-6.4 0-2.3-.2-5.3-.3-6.7-.1-3-.1-3-2.8-2.6-1.2 0-1.6.2-1.5.5.4 1.8.9 5.6.7 5.8-.3.3-1-.7-1.6-2.1-1.3-3.2-1.8-4.2-2.4-4.2-.8 0-1 .3-.4 1 .3.3.6 1.2.8 2l.7 2c.2.5.4 1 .4 1.4 0 .4.4 1.8 1 3.3l1.2 4.3c.5 2.5 2 6.5 3.6 9.5a57.6 57.6 0 0 1 4.2 11c0 .9.3.8 2.2-.2zm0-2.3c0-.1.1-.3.4-.3.2 0 .3.2.2.3 0 .2-.3.3-.4.3-.1 0-.3-.1-.3-.3zm-1.3-.8c0-.2 1.4-1 1.9-1 .4 0 0 .5-.6.9-1 .5-1 .5-1.3.1zm-.2-1.2c-.3-.3-.1-.6.4-.7.4 0 .9-.2 1.1-.3.4-.2.5-.2.4 0-.1.5-1.7 1.2-1.9 1zm-.7-1.4 1-.5c1-.3 1.2 0 .4.5-.7.3-1.4.3-1.4 0zm0-2.1c0-.2.4-.3.8-.3.5 0 .8.1.8.3 0 .1-.3.2-.8.2l-.8-.2zm122.4.8.4-1c0-.6-2.7 3.8-3 5-.3.7 2-2.7 2.6-4zM30 32.7l2.7-1.6 2-1.2h-1l-1-.3c0-.3 3.8-1.2 4.1-1.1.4.1 3.3-1 4.1-1.7l1-.5c.3 0 .4-.7.4-3.4 0-3.3 0-3.4-.7-4-.4-.4-1-.8-1.2-.8a5 5 0 0 1-1.4-.4c-.9-.3-1-.3-3 .7s-2 1-3.2.7l-2.4-.7a4.6 4.6 0 0 0-4 .7l-1.2.6c-.6 0-2.5 1.1-2.5 1.4 0 .4 2.6 5.6 3.7 7.4 1 1.7 1.5 2.6 2 4 .4.9.7.9 1.6.2zm2-4.9c0-.4.4-.5 2.5-.8 1-.1 1.4-.1 1.4.1 0 .4-.8.7-2.6 1-1.1.1-1.3 0-1.3-.3zm106.8 4.6c-.1-.2-.2 0-.2.3 0 .4 0 .5.2.3v-.6zm.3-3.9c0-3.3.2-4 1-3.6.3 0 .4.3.2 1.3v2l.2 1 .6-.6c.6-.7.7-.8.4-2l-1-2.4c-.8-1-.8-1.2-.4-1.8l.3-.6-.7-.4c-.5-.3-.6-.3-.9.6-.5 1.5-.4 9.6.1 9.6.1 0 .2-1.4.2-3zM81.8 30c0-.4-.6-.1-.7.3-.1.2 0 .2.3.1.2 0 .4-.3.4-.4zm-2.3-2.3c.1-.2.2-.4.1-.5-.2-.1-2.6 1.5-2.6 1.9 0 .2 2-.9 2.5-1.4zm2 .6c.6-.9.8-2 .3-2l-.4 1c0 .5-.3 1.2-.6 1.5l-.2.4c.2 0 .5-.4.9-.9zm3.6-.2c.3-2.1 1.3-5.7 1.7-6.7.3-.6.7-1.9.9-2.8.4-2.6.2-2.8-2.8-1.8-1.3.5-2.6.8-2.9.8-1 0-.4-.5 1.5-1l2.2-.9c.2-.4-.6-.2-2 .3-1.2.6-2.2.7-2.2.3 0-.2 3-1.4 4.4-1.7.6-.2.7 0 .8.4.1.3.4.5.8.4.4 0 .5-.3.7-1.6 0-.9.4-2.9.6-4.4.2-1.6.4-3.6.3-4.5V3.2h-6.9c-.8.2-1 .4-1.5 1.5-.5 1.2-.5 1.4-.2 2.7.2 1 .3 2.3.2 4A69 69 0 0 0 81 23c0 .9.6 1.3 2.7 2 1 .3 1.5.7 1.5.9l-.6 1.5c-.7 1.2-.7 1.7 0 1.7.2 0 .4-.4.5-.9zm.3-9.5c-.1-.1-.2-.3 0-.4.1-.2.6.2.6.5s-.4.3-.6 0zm-1.5-5c-.3-.6-.1-5.2.3-5.8.1-.2.3-.3.3-.1.1.7 0 6.5-.1 6.5l-.5-.6zm-2.8-6 .3-1.4c.2-.7.7-1 .7-.5 0 .6-.7 2.6-1 2.6v-.6zm68.2 20.2.6-1.1c.8-1 .9-1.4.2-.8-.6.5-1.9 2.6-1.9 3 0 0 .2 0 .5-.3s.6-.6.6-.8zm-99.5-.4c.3-.2.3-.3 0-.3s-.6.2-.7.3c-.2.3.2.3.7 0zM13.4 27c3.3-.1 4.5-.2 4.6-.5a53.8 53.8 0 0 1-3.7-11.4c-2.1-7.7-3.1-10.7-3.7-10.9a.7.7 0 0 1-.5-.6c0-.6-1.2-1-2.2-.5C5.4 4 5.3 4.2 5 7.4c0 1.3-.3 3.4-.4 4.5-.2 1.2-.3 5.1-.3 8.8v6.7l2.3-.1 6.8-.3zm70.3-.1c.2-.5.2-.7 0-1-.6-.6-.8-.4-.8.6s.3 1.1.8.4zM137 25l.1-2.3c0-.7-1.3-.7-7-.2-4.5.5-5.1.6-5.2 1 0 .3-.5.6-.9.6-.5.1-.7.3-.6.5.1.3.6.4 1.8.4 1 0 1.8.1 1.9.3.2.3 3.1.3 4.4 0 .8-.3 1.2-.3 1.5-.1.3.2.8.2 1.2.2.5-.1.7 0 .7.2 0 .3.2.5.5.5s.5.2.5.4.3.4.6.4c.4 0 .5-.2.5-1.9zm-11.8-1c-.2-.4 1.2-.9 2.1-.8.5 0 .8.2.8.5s-.3.4-1.4.4c-.7 0-1.4 0-1.5-.2zm-47.7 0c.3-.3.2-.4-.4-.1-.2 0-.4.2-.4.4 0 .3.4.2.8-.2zm2-1.2c.1-.5 0-.5-.3-.2-.5.4-.6 1 0 .8l.3-.6zm17.4-.5a974.4 974.4 0 0 1 5-2c1.6-.8 3.1-2.2 2.5-2.4-.3 0-.7.1-1 .4-.7.4-1.3.5-1.3.1 0-.2 2.3-1.3 3.1-1.4.7 0 .7-.2 1.2-3.1.2-1.7.5-4.3.5-5.8V5.3h-1c-1-.1-2.2.3-2.8 1l-4.7 3c-1.6.9-2 1.4-1.8 2.1a3 3 0 0 1-.1 2.3l-.6 2.8-.8 3.6c-.4 1-.4 1.4-.2 2 .4.6.5.6 2 .2zm.2-4.5c0-.2.8-.5 1.5-.7l3-1.2c1.1-.5 1.7-.7 1.9-.4.3.3.4.2-1.7 1.2-2.6 1.3-5 1.8-4.7 1.1zM99 10c-.2-.3 3.3-1.7 4-1.7 1.1 0 .6.5-1.5 1.2-2.3.8-2.3.8-2.5.5zm9.1 11c1.1-1.3 1.1-1.5 1.4-8.7a94.7 94.7 0 0 1 .7-8c0-.4-.8-.2-1.4.4-.5.5-.7 1-.8 2.7a171 171 0 0 1-1.2 10.8c0 1.2 0 1.2.5.9.6-.5.8-.5.8 0 0 .4-.8 1.5-1.8 2.5-.4.5-.4.5.2.5.4 0 1-.4 1.6-1.1zm16 .3c-.3-.3-.8-.5-1-.5-.4 0-.7-1.2-.6-2.1.1-.5.4-.8.5-.8.4 0 .7-.6.7-1.4 0-.3-.2-.5-.6-.5-.6-.1-.7-.6 0-.6.4 0 1-.6.8-.8l-2 .1a51.8 51.8 0 0 0-13.6 7h8.2c8 0 8.2 0 7.6-.4zm-46.7 0c.5-.3.8-1.8.3-1.8-.4 0-1.1 1-1.1 1.6 0 .6.1.6.8.2zm55.6-.2c.9-.1 1.5-1.4 1-2.2-.4-1-.6-2-.7-4.4-.1-2-.1-2.2-.7-2.1-.5 0-.6 0-.5-.6l.2-4.4.4-4c.2-.2.1-.3-.2-.4-.4-.2-6.8-.3-7 0v2c.2 1.2.1 3 0 4.2a8 8 0 0 0 0 2.7c.4.5 1.2.6 1 0-.2-.4 0-.5 1.3-.8l.7-.1-.9-.5c-.5-.3-.9-.7-1-1 0-.6 0-.6.8-.2 1.2.6 2 .5.9-.2-1.6-.9-1-1.4.8-.6.8.3 1 .5 1 1.2 0 .6-.2.9-.6 1-.3 0-.5.3-.5.6s-.3.5-1 .7l-1 .3h1.3c.6-.1 1.2 0 1.2.1 0 .2-.5.5-1.3.8-1.1.4-1.5.4-1.9.2-.8-.5-1.2-.3-1.4.4-.3 1-.2 4 0 4.4.2.2.4.6.4 1 .1.6.2.7 1.7.7l2.7-.3c1-.2 1.2-.1 1 .2 0 .2-.3.4-.6.6-.6.2-.7.7-.4 1 .2.2 1.6 0 3.3-.3zm-6.7-1.9a.7.7 0 0 1-.3-.8c0-.3 0-.5-.2-.5-.5 0-.3-.7.4-1.3.8-.8.8-1.1 0-1.1-.5 0-.6-.2-.6-.5 0-.4.2-.5 1.6-.6 2-.2 2.5.1 1.5 1a3 3 0 0 0-.8.6l.8.2c.5 0 .7 0 .6.4 0 .4.2.5 1 .3 1.2-.2 1 .7-.4 1-.3.1-.1.2.5.2 1 0 1.4.4.9.8-.5.4-4.5.6-5 .3zm1.1-11.9c-.6-.4 0-.7 1-.6.5 0 .8.2.8.4-.1.4-1.3.5-1.8.2zm1.3-1.7c0-.2.2-.4.4-.4s.4.2.4.4-.2.4-.4.4a.4.4 0 0 1-.4-.4zM126.4 21l-.1-.2c-.2 0-.3.1-.3.2l.1.3.3-.3zM79 18.8c-.3-2-.4-2.3-.7-2.4-.1-.1-.3 0-.4.4 0 .4 0 1 .8 3.4.3 1 .5-.2.3-1.4zm-55.8.5a7 7 0 0 1 1.7-.8c.5 0 1-.3 1.3-.5.8-.7 3.3-1 4.8-.5l1.6.7c.5.4 1.3.2 3-.7 1.8-1 2.8-1.2 3.7-.5.3.2.7.3.8.2.1 0 .6.1 1.1.4l1 .4c.1 0 .2-3.3.2-7.2v-7l-1.8-.4c-1.1-.2-3.3-.3-5.2-.3-3.3 0-3.3 0-2.4.5a49.5 49.5 0 0 0 7.9 2c1.4.2 1.8.5 1 .8-.5.2-2.4-.2-3.7-.8a14 14 0 0 0-3.9-1c-.6 0-1.4-.2-1.7-.4-.3-.2-1.1-.4-1.8-.5a21.6 21.6 0 0 0-8-1c-2.1 0-2.9.1-3 .4-.3.5 0 2.4.4 3.9.4 1 .4 1.8.3 4.2a18.9 18.9 0 0 0 .6 6.3c.2 1 .8 2.5 1 2.5l1-.7zm119-3.6.5-.7c-1 0-3.3 2.8-3.3 4 0 .8 0 .8 1-.9l1.8-2.4zM124 18.9c0-.2-.2-.4-.3-.4-.2-.1-.4 0-.4.4s.2.6.4.5c.1 0 .3-.3.3-.5zm-65-2.8c-.1-1.6-.5-4.5-.9-6.4l-.6-4.6c0-.8-.2-1-.7-1.1H54.7l.9.4c.5.3.7.5.5.6-.4.3-1.3 0-2.2-.7-1-1-3.4-1-4-.1-.2.3-.4.9-.4 1.3 0 .6.1.6.7.5h1c.7.3.2.8-.8.8-.8 0-.8 0-1 1.7a51 51 0 0 0 0 5.7l.2 4 .6-.5c.8-.5 4.4-.6 5-.1l.4.6c0 .2.4.3 1 .3l1.6.1.8.3v-2.8zm-6.1-9.3c-.3 0-.5-.2-.5-.4 0-.3.5-.3 2-.2 2.4 0 2.9.2 2.7.6-.2.2-3.3.3-4.2 0zM111 18.7c.6-.4.8-6.6.2-6.6-.3 0-.4-.3-.4-1.1 0-1.1.6-2.1 1-1.6 0 .2.2.2.5 0l.4-.2.1 2c.1 2 .6 4.8.8 5 .3.4.6-.4.6-1.6 0-1.7.3-2.6.7-2.5.2 0 .2.8.2 2l.1 2c.4 0 .6-.8.6-2 0-.5.2-1 .3-1.1.2-.1.2-.3 0-.5-.3-.5-.8-3.2-.8-5 0-1.4 0-1.6-.7-1.8-.4-.2-1-.2-1.4 0-.6.1-.7.4-.9 1.5-.2 1.5-.7 2-.7.7 0-1.7.3-4 .6-4l.6.3c.1.3.7.5 1.3.5.9 0 1 0 1.1-.5.1-.2.3-.6.5-.7.6-.3.4-.7-.3-.7-.5 0-.7.2-.8.5-.2.7-.5.7-.9 0-.2-.4-.5-.5-1.1-.5-.8.1-.9.2-1.1 1.5-.1.8-.4 1.4-.6 1.4-.3 0-.5 1.3-.8 6.3-.2 3 0 7 .4 7l.5-.3zM113.5 7l.3-.2.6-.2c.3-.1.5 0 .5.3 0 .2-.3.4-.7.4-.4 0-.7-.1-.7-.3zM80 14.8c0-1.5 0-1.5-.2-.4 0 1 0 1.9.3 1.9v-1.5zm-1-.3c.1-1.8-.6-2-1.6-.5-.7 1.2-.7 1.4.5 1.4.9 0 1-.1 1-1zm13.8-2.6.2-.8.7-2.3c.7-2.2.8-2.8.3-2.3-.6.5-.8-.1-.3-1.3.4-1.3.5-2.1.1-2.1-.1 0-.4.3-.5.8l-.4.9-.2-.7c-.4-1-2.6-1.4-2.6-.4 0 .2.2.3.5.3.4 0 .4.4.3 5.5v5.6l.8-1.5c.4-.8 1-1.5 1-1.7zm24.6 2c.1-.4 0-.5-.1-.5-.4.2-.6 1-.3 1 .2 0 .4-.2.4-.5zm6.4-.4c.5-.4 0-.8-1.3-1.3-1.4-.5-1.7-.8-2.3-1.9a12.2 12.2 0 0 1-2.1-5.9c0-1.3-.3-1.8-.6-.8-.1.3-.4.6-.7.8-.4.2-.5.6-.5 2.2 0 1.8.4 4.6.7 4.9l.4-.2c.6-.6 1-.4.9.3-.2 1 .9 1.8 2.2 1.8.6 0 1.1.1 1.2.3.2.2 1.5 0 2-.2zm-45.4-1.7c.2 0 .3-.3.3-.7 0-.8-.2-.8-1.1 0-.9.6-1 1-.1.9a5 5 0 0 1 .9-.2zm46.2-.9c.1-.6.2-2.2.1-3.6 0-2.5 0-2.5-.7-2.5-.8 0-1-.6-.3-.8.3-.1.5-.4.5-.7 0-.5-.1-.5-2.4-.4-1.4.1-2.6.3-2.7.5-.9.7.6 5 2.3 6.7 1 1 2.2 1.9 2.7 2 .2 0 .4-.6.5-1.2zm-34.8-.7c0-.6 0-.6-.2-.1-.2.3-.3.8-.3 1.2 0 .6 0 .6.3 0l.2-1.1zm-10-1.3c0-.8-.2-1.8-.3-2.2-.2-.5-.1-1.1.2-2 .2-.6.3-1.2.2-1.3-.2-.3-1.4.9-1.3 1.2.3.8.6 2.6.6 3.8 0 1.3.2 2 .6 2V9zm10.5-1.7V5.6L90 6.8c-.3 1.6-.3 2.4 0 2.2l.2-1.8zm9.5.6c2.2-1.3 3.2-2 3-2.2 0 0-.8 0-1.5.2-1 .2-1.5.2-1.7 0-.3-.3-.2-.4 0-.5l4.3-.7c.4 0 1.1-.3 1.6-.7 1.2-1.1.7-1.4-1.6-1.2-1.4.1-2 .3-2.9 1l-1.4 1c-.5 0-.2-.8.3-1.2.6-.4.5-.4-1.1-.4s-1.8 0-1.8.5c0 .7.2 1.3.5 1.3.2 0 .3-.2.3-.3 0-.6 1-1.4 1.3-1.1.2 0 .1.3-.2.7-.2.3-.4.8-.4 1.4 0 .6-.1 1-.5 1-.6.2-.9 1-.5 1.7l.4.6 2-1.1zM96 5c-.2-1.3-.4-1.8-.8-1.9-.3 0-.4 0-.4.6L94.5 5l-.3.7.5-.6c.8-1 1-.6.3 1.2-.8 2.2-.7 2.5.4 1.4l1-1zm-81.2.1c-.5-1.5-1.1-2.5-1.4-2.3-.1.2.2 1.1.7 2.3 1 2.2 1.3 2.2.7 0zm63 1.2a1 1 0 0 0-.6 0c-.2 0 0 .2.4.2.3 0 .5-.1.3-.2zm29.8-2 1.2-.7c.7-.4.4-1-.6-1-.8 0-1 0-1.4.7-.3.5-.6.8-.7.8-.2 0-.2.1-.1.3.2.3.6.3 1.6-.2zM137.5 3c.5-.2.4-.3-.2-.3-.4 0-.7.1-.7.3 0 .3.2.3.9 0z"/>
</svg>
