<?xml version="1.0" encoding="utf-8"?>
<svg xmlns="http://www.w3.org/2000/svg" xmlns:svg="http://www.w3.org/2000/svg" version="1.1" viewBox="0 0 223 176">
  <title>Pigling Bland has moved closer to the fire and warms his trotters, while Pig-wig lies sleeping on the hearthrug wrapped up in an antimacassar.</title>
  <path d="M134.1 175.1c0-.2.4-.5.8-.6 1-.2 2.7-1 2.7-1.4 0-.5-1-1-2-1-1.2 0-3.2-.4-3.5-.7l.2-.6c.3-.3.7-.4 2.6-.2 1.2 0 2.4.2 2.7.4.5.2.8.1 2-.6.7-.6 1.6-1 1.8-1.2.3 0 .4-.3.3-.6-.2-.7 0-1.3.5-1.3l.4-.2c0-.2.3-.4.7-.6.9-.3 1.7-1.3 1-1.3l-.8.5c-.2.3-.6.5-.8.5-.2 0-.7.2-1.1.5l-.8.4-1.5-.3c-1.2-.2-2-.2-3.8.1a9 9 0 0 1-6.4-.8 6 6 0 0 0-1.8-.7c-.6 0-1-.7-.7-1l1.2-.4 1-.2.2.6c.2.9 2.9 2 4 1.7 2.2-.5 5.1-.8 6.7-.7 2 .1 2 0 1.6-.8-.3-.4-.2-.6.6-1 .5-.3 1-.5 1.4-.5.7 0 1-.3.6-.7-.4-.5.6-2.6 1.3-3l2.3-.2c1.5-.1 2.2 0 3.2.3 1 .4 1.5.5 2 .3.4-.2.8-.2 1.5.2.9.5 1.3.6 2.6.3.7-.2.8-.9.2-2-.4-.9-.7-1-1.7-.4-.4.2-1.4.4-2.7.4-1.1 0-2.3.1-2.7.3-1 .3-2.4-.4-2-1 .1-.3.4-.6.7-.7.2-.1.4-.4.4-.6 0-.3-.2-.3-.8 0a4 4 0 0 1-1.7 0c-1.1-.1-4.1.2-5.3.7-.5.2-1.5 1-2.2 1.6l-1.7 1.3s-.3.3-.4.7c-.2 1.1-1.4 1.6-1.4.6 0-.6-.4-.9-2.3-1.5-.9-.3-1.6-.7-1.6-1 0-.4.3-.4 2.5.4l1.9.6.7-.4a24 24 0 0 0 2-1.4c1-.8 1.2-1.2 1.2-1.7 0-.3 0-.6.2-.8a15 15 0 0 1 3.2-.4c2.5-.1 3 0 3.3.3.4.5 1 .5 2-.2 1.1-.6 1-.8-.8-1.2-1-.1-1.5-.7-1-1.2.2-.2.7-.2 1.7 0l1.4.3.8-.6c.4-.3 1.3-.6 2-.6 2.1-.2 2.3-.3 1.5-1-.5-.5-.5-.6-.1-.7l2 .6 2.5.9c.8.2 1 .6.2.6a5 5 0 0 0-1.5.4c-.5.2-1.8.4-3.1.4-2.8 0-4 .4-3.8 1.1.1.3 0 .7-.1 1-.3.2-.3.4 0 .6.5.5 5.2-.3 6.2-1 .5-.4 1-.6 1.1-.6.2 0 .5-.3.7-.5.5-.8 2-1.7 2.9-1.7.5 0 .7 0 .7-.5s1.8-1.6 3.2-2c.7 0 1.4-1.3 1.2-1.7-.1-.1-.5-.3-.8-.3-.4 0-1.2 0-1.8-.3-1-.2-1.7-.2-3.4 0l-2.2.4-.3-.5-.4-.5.6-.4.5-.6c-.4-.3-3.5-.7-6-.9-2.7-.1-3.5-.4-2.7-.9.6-.3 3.7-.3 6 .2 2.6.5 2.4.5 2.4-.2 0-1 .5-1.3 2.8-1.3h2.2l.8-.8c.5-.4 1.2-1 1.6-1 .4-.2 2.7-.4 5.3-.4 2.9 0 4.8-.2 5.3-.4 1.1-.5 1.7 0 1 .7l-.5.6 1.7.8c1.5.6 1.8.9 1.8 1.4 0 .5-.3.9-1 1.4l-1.3.6-.8 1c-.3.5-.7 1-1.2 1l-1.4.4c-1 .4-1.8.3-2.1-.1-.2-.3-.9-.5-1.8-.6H169v.4c0 .3-.2.6-.4.6-.3 0-.4.2-.2 1 0 .6 0 1-.5 1.5l-.5.6h1.1c1 0 1.1 0 1.2.5v.5l-1.6.2c-.9.1-1.8.4-2 .6-.3.2-1.1.4-2 .4l-1.3.1-.1 1.2-.1 1.1h-2.2c-2-.2-2.3-.1-2.3.2 0 .8.6 1 2.2 1a43.1 43.1 0 0 0 8.2.6l7.8.4c1.9.2 2.3.1 2.7-.2l.5-.5.3.5.3.5h5.5c4.6.1 5.9 0 7-.3a11.8 11.8 0 0 0 4.7-2.4l2.2-2.5a263.4 263.4 0 0 1 7.6-9.2c.6-1 1.6-1.2 1.5-.4 0 .4-.9 1.6-6.6 8.6a20.3 20.3 0 0 0-2.2 3c0 .4-.6 1-1.1 1.6-1 1-1 1.4.2 1.9 1 .3 7.2.4 9 0 1.5-.2 1.9 0 1.7.8l-.4 1c-.2.2-3.5.2-8 0a610.9 610.9 0 0 0-17-.7l-4.9-.3-1.3.7-1.4.9-1.3 1c-.7.3-1.3.8-1.3 1 0 .2-.2.4-.5.4-.2 0-.8.4-1.3.9a29 29 0 0 1-3.7 3.4c-.5.2-4.1 3.7-3.8 3.7.7 0 .2 1-.8 1.9-1.3 1-3 1.7-3.8 1.4-.4-.1-.3-.3.6-.7 1.3-.7 2-1.4 2.4-2.8.3-1 2.2-2.8 4.7-4.5l3.3-2.8 3.1-2.9c.7-.5.8-.8.7-1.2-.1-.3-.4-.7-.7-.7l-7.2-.3c-3.7 0-6.8-.1-7-.2-.7-.3-1 .5-.6 1.2l.4.5-.8.8c-.9.7-3 1.5-4.2 1.5-.8 0-.8.5 0 1.6.4.5.7 1 .7 1.2 0 .6-1 1-2.7 1-1.4 0-1.8 0-2.2.4-.6.7-.5 1 .1 1.7.7.7.4 1.2-1 1.4l-1.7.7c-.6.5-1 .5-2.2.4h-1.4c0 .2.3.4.6.4.4 0 1.6.3 2.8.8l2 .8v2.6h-2.5c-2.6 0-3.1-.4-.7-.6 1.1 0 1.3-.2 1.4-.6 0-.5-.1-.8-1-1.2-1.4-.7-2-.7-2.4.2-.8 2.1-.8 2.2-2 2.2-1.5 0-1.8-.5-1.1-1.5l.5-.9-.5-.2c-.8-.4-1.3-.4-1.8.2l-1.8 1.4c-1 .8-1.5 1-2.6 1-1 0-1.3-.1-1.3-.4zm7.2-4.1c0-.1-.1-.3-.3-.3l-.4.3c0 .1 0 .3.3.3.2 0 .4-.2.4-.3zm6.4-2c.1-.2.5-.4.8-.3.3 0 .5 0 .4-.2 0-.1-.5-.4-1-.5-.5-.1-1-.3-1.2-.5-.5-.4-2 0-2 .6 0 .3 0 .6-.2.6-.6.4 0 .7 1.4.7 1 0 1.5-.1 1.8-.4zm3.1-4c.4-.2 1-.3 1.5-.3 2.2 0 .1-1.7-2-1.8-.8 0-1.2 0-1.1.1l.4 1.3c.2 1.3.3 1.3 1.2.7zm-3.6 0c.2-.4 0-.4-.8 0l-.5.1h.6c.3 0 .7 0 .7-.2zm2.5-3.5c.6-.3.2-1-.5-1.1H148c-1.5-.3-2.4 1-1 1.1 1.4.2 2.4.2 2.7 0zm4.5-4.3c.1-.6-.6-.7-2-.4-.7.1-1.1.3-1.1.6 0 .6 3 .4 3.1-.2zm6.7-3c0-.2-.2-.4-.4-.4-.4 0-1 .6-.8.9.3.2 1.2-.2 1.2-.5zm14.6-8c.4-.5 0-1.3-1.3-2.1-.8-.6-1.1-1-1-1.3.3-.7 2-.3 3.2.7 1 .8 1.7 1 1.9.3 0-.2-.8-.7-2-1.3l-2-1h-2.8c-3.3-.2-4.6 0-5 1l-.3.6-2.4.3-2.9.3c-.6 0-1 .4-.7 1 0 .2.5.2 1.9 0 1.6-.1 2.6 0 7 .5.7 0 1.1 0 1.6-.4.3-.3.7-.5 1-.4l1.5.3c1.3.2 1.6.8.5 1-.4.1-.7.4-.7.6 0 .3.3.4 1.2.2a4 4 0 0 0 1.3-.4zm-72 28.4c0-.6.5-.7 4.7-.8 2 0 4.2-.3 4.9-.5l1.3-.3.2-.8c.2-1.2.4-1.5 1.1-1.5.9 0 1.5-.2 1.4-.5-.1-.2-1.3-.3-2.8-.3-1.8 0-2.7 0-3-.4-.4-.2-1.4-.3-3.8-.3-2.6 0-3.3-.1-3.5-.5-.3-.3-.3-.5.1-.8a23 23 0 0 1 8.8 0c.1.4.6.5 2 .5 1 0 2.5 0 3.2.2l1.4.2-.1.5c0 .5.1.6.7.7.5 0 .7.2.8.7 0 .3.2.6.3.6.5 0 .2.7-.3 1-.3.2-1.5.3-2.6.4h-2.1l-.2.6c-.3 1.1-1.6 1.4-7.3 1.6l-5.2.1zm18 0c0-.3.2-.4.5-.4.4 0 1-.2 1.4-.4 1.5-.8 2-.3.6.6-1 .7-2.6.8-2.6.2zm8.4 0c0-.5.6-.7 2.1-.7 1.4 0 1.7.2 1.3.7-.4.5-3.4.5-3.4 0zm-30.2 0-2.6-.5c-2.5-.4-3.2-.8-3-1.4.2-.6 1.3-.5 2.1.2l.8.7h3l3.1.1c0 .1 0 .4-.2.6-.3.4-2.9.6-3.2.3zm-84-1.7c0-.1.1-.4.4-.7.8-.7 1.9-.4 1.4.3-.2.4-1.9.8-1.9.4zm-2.7-.4a56.8 56.8 0 0 0 3.5-4.1A76 76 0 0 1 30 156.2l.4-.4v.4a12 12 0 0 1-2.5 2.5 114 114 0 0 0-13.5 13.2c-1 1-1.4 1.2-1.4.6zm72 .1c0-.2.1-.3.4-.3.3 0 1-.4 1.6-1 1-.8 1.9-1 2-.4.2.4-1.9 1.6-3 1.8h-1zm39-.5c-.3-.4 0-.8.7-.8.3 0 .5.1.4.4-.1.5-.9.8-1.1.4zm-92.7-.6c-.3-.5.9-1.4 2-1.4.7 0 1 0 1 .4.2.8-2.5 1.7-3 1zm-15-1A90.4 90.4 0 0 1 29 159.4c.4 0 .1.3-2.2 2.2a217 217 0 0 0-9.1 8.3c-2 1.8-3 2.2-1.6.6zm-4.4.3c0-.3 8.5-8.7 10.9-10.8 2.4-2.2 6.8-5.7 7.1-5.7.6 0 .1.6-2 2.3-2.1 1.7-11 9.9-14 13-1.2 1.3-2 1.7-2 1.2zm6.7-.4c-.2-.3.8-1.2 2.1-1.8.6-.2 1.5-.9 1.9-1.4.5-.6 1-1 1.6-1.1.7-.1 1-.4 1.2-.8a15 15 0 0 1 5.2-4.7 8 8 0 0 0 2.2-1.6c0-.3 2.7-2.4 4.4-3.4l3.8-2.9 2.7-1.7a12 12 0 0 0 1.6-1 18 18 0 0 1 3.9-2.5l1.6-1a97.5 97.5 0 0 1 1.7-6.7 133 133 0 0 1 2.4-8.2c-.2-.2-2.3 1.4-2.6 2-.1.3-1.3 1.3-2.5 2.1a143 143 0 0 0-5.3 3.8 43.2 43.2 0 0 1-6 4l-3.7 2.4a17.8 17.8 0 0 0-4.5 3.6l1.3-.7c.7-.5 1.3-.8 1.4-.7.2.2-.2.6-3.9 3.4A88.2 88.2 0 0 0 17 161.8l-2.4 2.2c-1.2 1-1.8 1.5-1.8 1l1.7-2c1.7-1.8 2.1-2.6.7-1.3-.8.8-2.3 1.5-2.6 1.3a148.2 148.2 0 0 1 15.3-13c1.8-1.2 2.1-1.8 1.7-3l-.2-.3-.8.4c-1 .5-3.2 2.7-2.7 2.7.2 0 .4 0 .4-.2.2-.3 2.4-1.7 2.6-1.5v.2a38.2 38.2 0 0 0-4.3 3.4 28 28 0 0 0-2.3 1.9c-.3.3-1 1-1.6 1.3l-3 2.5a84 84 0 0 1-6.2 5.2C9.8 164 9 164.4 9 163.9l.6-.8c.7-.8.5-.7-1.8.8-1 .7-2.1 1.6-2.4 2-.5.7-1.2.8-1.2 0 0-.4.8-1 3.9-3.1l3.8-3a215 215 0 0 1 8.9-7.6c2.7-2.1 3.7-3 3.5-3.3l-2 1.2a279 279 0 0 1-8 5.6c-1 .7-1.9 1.5-2 1.8-.3.3-.5.5-.7.5-.4 0-1.5.8-4.2 3a9 9 0 0 1-1.5 1c-.5.2-.9.5-.9.6 0 .1-.2.2-.5.2-.6 0-.7-.5-.2-1.1.2-.3 1.5-1.2 3-2.1 1.5-1 3.6-2.4 4.7-3.3L18 152l3.7-2.6a77.4 77.4 0 0 1 7.1-4.9l2.4-1.4 1.8-1.3 1.4-.9a160.6 160.6 0 0 0 10.7-7.2c0-.2.2-.3.6-.2.4.1 1 0 1.5-.4l2.4-1.5c.8-.5 1.8-1.2 2.3-1.7.9-.9 1.5-.8.9.1l-.3.6.5-.2c.4-.1.5 0 .5.2s-1.5 1.2-3.3 2.3c-4 2.3-9 5.8-9.6 6.7-.4.5-2.2 1.6-8.5 5.4-.8.5-1.6 1-1.7 1.3-.2.5-.2 2 0 2 .4 0 2-1.3 2-1.5 0-.2.5-.6 1.1-1l2.3-1.5a248 248 0 0 1 19-13.3c.2 0 .3-.2.3-.4 0-1-.6-1.4-2-1.6l-1.4-.1-2 1.3-3.2 2-2.7 1.6c-.6.6-2 1.3-2.8 1.7a35 35 0 0 0-4.4 2.7 711.1 711.1 0 0 1-7.7 5.3c-.3.3-.8.5-1 .5-.2 0-.8.4-1.2.8l-3 2.2a171.4 171.4 0 0 0-7.4 4.7 598.5 598.5 0 0 0-8.8 5.5l-1.7.8c-1.6 1-2 1-2 .4 0-.5 3.6-2.9 4.1-2.6.3 0 .7-.2 1.2-.6.4-.5 1.3-1.1 2-1.5.7-.4 1.8-1 2.4-1.5 2-1.5 7.1-4.9 10.4-6.8a42.7 42.7 0 0 0 6.9-4.8 227.1 227.1 0 0 0 7-5.3c-.1-.2-1.4-.2-3.3-.1l-3.1.2-1-.6c-.8-.5-1.2-.6-2.3-.5-2 .3-4 0-4-.6s.5-1 1.4-1.2c1-.2 3.6-2.9 4.4-4.4.7-1.4 3.6-4.3 5.2-5.3 1.6-.9 3.4-2.3 3.4-2.7 0-.2-.3-.7-.6-1-.5-.7-1.2-3.7-1.7-6.8-.3-1.8 1-5.5 2.7-8.1a8.2 8.2 0 0 0 1.3-2.7c-.3-.7-.9-.6-2.5.3l-1.7 1-.9-.3c-.6-.2-1-.2-1.4 0-.3.1-.9.1-1.6 0l-2.4-.5c-1.6-.4-2.6-.8-2.6-1 0-.8.4-1.2 1.7-1.6.7-.2 1.9-.9 2.6-1.5l3-1.8 2.2-1 1.6-.4c.7-.1 1.4-.4 1.7-.7.3-.2 1.1-.4 2.3-.5h1.8l-.3-.8c-.1-.5-.4-.8-.5-.8-.5 0-3.5 1.1-3.8 1.4l-2.3.2h-2l-2.5-1.3c-2-1-2.5-1.4-2.5-2-.1-.3 0-.8.4-1 .3-.4.6-.7.6-1 0-.1.1-.3.3-.3.7 0 1.3-1 1.5-2.4.3-1.4.2-1.6-1.5-6-1.2-3-1.5-5-1.4-8.6 0-2.4.2-3.6.6-4.5l1.3-3.6c.8-2.2 1.7-3.9 2.6-5l.5-.5-.8-2.1-1.3-3.2a17 17 0 0 1-1.8-3.7c0-.5 1.6-1.4 2.5-1.4 1.4 0 3.3.9 4.6 2.2 1.8 1.8 4.7 2.6 5.4 1.5.1-.3 0-.7-.5-1.5l-.7-1 .2-3c.1-1.5.2-3.4.1-4.1 0-.7.1-1.5.3-1.7.5-.6 2.3-.1 4.3 1.1 3.6 2.3 5.5 4.4 5.9 6.5.2 1.5.8 1.9 3.3 2.3 3.1.4 4.7.9 5.5 1.4.4.3 1 .4 1.4.3.5 0 1 0 1.2.3.3.3 1.3.7 2.3 1a9.6 9.6 0 0 1 2.6 1c.1-.1-.2-10.9-.7-23.5-.4-9.9-.6-23.8-.3-26l.2-1.2H69.9l-.2 1.2c-.5 4-.6 6.1-.7 12.1 0 3.7.1 8.7.3 11.3l.4 10.4a153 153 0 0 0 1.7 16.8l.7.3-.5-11.6c-.5-6.2-.5-6.7-.2-6.7.4 0 .5.8 1 7.3l.7 7.9c.2 1.7.2 2.4 0 3l-.3.6h.6l.6-.1v-2c0-1.4 0-2 .3-2 .5.2 1-2.7.6-4.7l-.4-7-.4-7a427 427 0 0 1-.6-15.5l-.3-13.3.4-.4c.3-.3.5-.3.8 0l.5.3-.3 1.7c-.5 2.6-.4 18.5.1 25.7A613.5 613.5 0 0 1 76 47.2c.2.8.2 1.5 0 2.4v2c0 .7 0 1-.3 1.2-.3.2-.5.6-.5 1.5v1.4l1.3 1.1 2.5 2.2c.7.6 1.6 1.5 1.8 2 .6 1 2 2 3.8 2.2l1 .2-.2-2.2-.5-7.3c-.6-8.2-.7-8.8-.8-14.2a48 48 0 0 0-.5-8.7L83 19.5c-.8-15.6-.8-15.7.2-15 .3.3.3 1.3.2 5.4-.1 3.7 0 5 .2 5s.3-.8.3-2.5V9.9l.5-.4.6-.4-.2-1.6-.2-1.6h.6c.3 0 .6.2.7.5.3.4.5 4.9 1.2 21a317.4 317.4 0 0 0 .6 11.9s-.2 3-.2 6.5-.2 6.5-.3 6.6c-.4.6-.2 3 .2 3.5.4.4.4.7.2 2V60c.2.3.2.6 0 1-.2.3-.2 1-.1 2.3l.2 1.9 1.3 1.3 1.5 1.3c.3 0 .3-1.1 0-2.1 0-.4-.3-.7-.7-.7-.7 0-.9-1.1-.9-5.8l-.4-8.5a77 77 0 0 1 0-13.8c.2 0 .3 2.3.3 6.5a191.1 191.1 0 0 0 .6 12.8c.4 5.5.6 7.2.9 7.6a562.4 562.4 0 0 1-.2-12c-.1-3.5-.3-6.7-.5-7.2-.3-1.3 0-2.2.7-2.1h.6l-.1-1.4-.2-3-.1-1.4.4.5c.2.4.4 1 .4 2l.5 6.6c.4 3.4.6 7.1.6 10.7V62l-.6.6-.6.5.3 2.2.5 2.5c.3.6.6 0 .6-1.3 0-2.5.7-3 .8-.6.1 4.2.2 4.1-.3 4.2-.4.1-.5 0-.5-.7 0-.5-.1-.8-.5-.9-.7-.1-1 .2-.5.5l1 1.5c.3.7 1 1.7 1.4 2.1.5.5.8 1 .8 1.3 0 .2.2.9.6 1.5.4.5 1 1.6 1.2 2.4l1 2.7c.2.8.3 1.6.2 2.5v2c.1.7.2.8.5.5.1-.2.4-.5.6-.5.3-.1.4-.5.4-.8 0-.9 1.3-1 1.5 0 0 .6.4.7.7.2l2.3-2.6c2-2 3-3.8 3.5-5.4 0-.5 0-.7-.3-.7s-.4-.1-.3-.4c.3-.7 0-1.4-.6-1.4-.2 0-.6-.1-.7-.3-.3-.3-.4-.3-.8 0-.3.4-.3.8 0 3 .3 2.9 0 3.5-.8 3-.4-.3-.5-.8-.5-2.4 0-1.2-.2-2.8-.5-3.6l-.4-2.3c0-1 0-1-1-.5-.5.2-.6.4-.5 1.1l.4 3.7c.2 2.3.3 3.2.8 4.2.8 1.5.6 2.2-.7 2.2h-.7v-1.2l-.2-4.4c0-2.2-.2-3.4-.4-3.6-.7-.7-1 .3-.8 3.8.1 2.5 0 3.4-.2 3.6-.2.2-.4.2-.7 0-.2-.4-.3-1.5-.1-5.2a28 28 0 0 1 .7-5.8c0-.5-.2-.6-.6-.5-.7.2-.9-.3-.2-.7.4-.3.5-.6.5-1.7v-1.5l-.5.2-1.2.3c-.8.2-1.1 1-.7 2 .2.6.2 1 0 1.2-.2.2-.3 1.1-.3 2.2 0 1.5 0 1.9-.3 1.9s-.5-.4-.6-.8c-.1-.4-.2-4.4-.2-9 0-9.6.3-11 .8-3.1L96 65c0 .3.8.2 1.8-.4l.9-.6v-3.5l-.1-3.4-.7-.1-.7-.2.7-.3.6-.4-.2-4.3A184.3 184.3 0 0 0 96.9 35a35 35 0 0 0-1.2-11.8c-.3-1.7-.2-2.2.9-2l.8.2v-.8c0-.5 0-.8.2-.8s.3.5.3 1.3c0 1-.1 1.3-.4 1.3-.3 0-.4.2-.3.7l.3 5.4c.1 2.6.3 4.8.4 5 .2.3 2 0 2.5-.5.2-.2.2-1.4 0-3.6-.2-4.5-.1-6 .4-6 .4 0 .5 0 .5 5.7v3.4h.6c.4 0 1-.2 1.3-.4l.6-.4v-4.4c0-2.7.2-4.4.3-4.4.2 0 .3 1.5.4 4.2 0 3.2.1 4.3.3 4.3.6 0 3-1 3-1.2l.4-1.4c.4-1.3.8-1.5.8-.2 0 .5 0 1 .2 1 0 0 .8 0 1.5-.2 1.5-.5 2.4-.4 2.2.2 0 .2-.7.4-1.5.6l-1.9.7-.5.3v3.1c0 3.3.1 3.7 1.2 3.2l1.6-.5c.7-.2 1.3-.6 1.5-.9.4-.8.6-8.2.2-12.2-.2-3.3-.4-4.5-1.2-9.5-.3-2.1-.2-2.9.4-2.3.6.9 2 14.2 1.8 19.3 0 2.5 0 3.8.2 3.8l3-.5 2.8-.5 1.2.4c.7.3 1.2.6 1.3.9 0 .4 0 .4-.7.3-1.9-.6-4-.3-7.2 1l-4.3 1.7c-1.3.4-2 1.1-1.7 1.6.1.2.7.3 1.4.3.6 0 1.2.1 1.3.3l.6.2 1 .5c.3.4 1 .5 3.4.5 1.6 0 3.3.2 3.7.3.4.2 1.2.3 1.9.3.9 0 1.2.1 1.5.7.4.6.5 1 .2 2.3l-1 8.7c-.8 9-.6 9.7 1.9 8.5l1-.5v-4c0-4.4 0-4.7.3-8.2.2-2 .3-2.5.7-2.5.7 0 .8.7.5 2-.3 1.5-.8 7.7-.8 10.5v2.4h.8c1.2 0 1.4-.8 1.6-6 0-.6 0-.7.3-.4.3.2.4 1.1.3 3.2v2.8l1.2-.1c1 0 1.2 0 .9.2l-1.2.2c-.5 0-.8.2-1 .7-.2.8-.2 3 .2 3l1.5-.3 1.3-.2v-4c0-2.6-.2-4.4-.4-4.8-.2-.5-.2-.9 0-1.3.2-.3.3-1 .3-1.6v-1H131c-2 .1-2 0-2-.6l.1-.6 1.6-.1 1.6-.1.2-1.4.2-2.9c0-.9.2-1.7.3-1.9l.4-.7c0-.2.1-.4.2-.3.2 0 .3.2.3.4a153.2 153.2 0 0 0-.4 9.6c.2.5.5.7 1.5.9 1.5.2 1.5 1 0 1.3-1.8.4-1.8.2-1.8 5.5v4.8l1.6-.2c1-.1 1.6-.4 1.8-.6.4-.5.5-4 .4-13 0-4 0-6.3.2-6.8.6-1.5.8-.2.8 4.4V55l.6-.1 1.9-.4c1.5-.2 1.8-.6 1.6-2.4-.3-3.2-.3-8.7-.1-9l.3-.5.3.5c.3.4.4 1.7.4 5.5 0 3.3.2 5.2.4 5.6.2.3.2.6-.2 1.3-.2.6-.5 2.2-.7 5l-.2 4 .4.4c.5.3.2 1-.5 1.2-.4.1-.5.5-.5 2.4l-.1 2.2h-.8l-.7.2.1-1.4.4-2.2.1-.7-.9.2c-.5 0-1.2.3-1.6.5l-.7.4v1.8c0 1.3-.1 1.9-.4 2.1-.4.3-.5.3-.7 0-.2-.4-.2-.8.2-3.1l.2-.9-1.7.1-1.7.1-.2.7-.1 2.2v1.6h.7c1-.1 1 .5 0 .7l-2.5.5c-2.3.3-2.3.3-2.3 1.7 0 1.8 1.1 2 3.4.9 2.3-1.3 9.3-2.7 12.7-2.7h2v-1c0-.6 0-1.3.2-1.6l.7-3.6a204.7 204.7 0 0 1 3-13.8l-1.2.1-1.3.2.1-.5c0-.3.7-.8 1.5-1.2l1.3-.7.3-2.2c.4-2.9.4-6.4 0-7.8l-.3-1H150l-3.4.4a394.8 394.8 0 0 1-14.3 2.4c-3.7.3-4.2.2-4.3-1 0-.5-.2-.6-.8-.6-.7 0-2 .4-1.5.5h.9c1 .1.7.6-.5 1-1.3.3-1.6.2-1.6-.5v-.6h-1.2c-1.8.2-1.8.2-2.2-.6-.3-.8.2-1.3 1-1 .4.2 2 .2 3.6 0l3-.2.6-.7 1.8-1.7 2-1.6c1.2-1 3.2-1.9 3.7-1.7 1 .4.3 1.3-1.5 2.3-2.5 1.3-4.4 2.7-4 2.8.2.1 2.1 0 4.2-.2 3.7-.2 4.9-.2 4.9.3 0 .4-.5.5-2.8.7-2 0-5 .4-7.7.8-1 .1-1.2.5-.5.7.6.3 6-.3 11.4-1.3l5.5-.9c.1 0 .2-.1.2-.3 0-.2-.4-.2-1 0h-.9v-.5c0-.5.1-.6 2-.9 4-.7 7.8-2 7.8-2.4 0-.2.5-.7 1-1.1 2-1.3 1-1.7-4.6-1.8l-6.6.3-7.2.7c-2.6.3-6 .6-7.7.9l-3 .4-.4-.4c-.6-.7 0-1 1.5-1.1.7 0 1.6-.2 2-.3l.5-.2-.2-2.5c-.3-5.1-.7-15.6-.6-17.3 0-1.3.1-1.7.5-1.8h.5v4.2c0 5 .4 13 .9 15.4l.3 1.7h2.5a73 73 0 0 0 5.3-.4c14-1.5 16.5-1.4 18.9.4l1 .7-.2.9-.2 1.5c0 .3-.4 1-.8 1.5-.5.6-.7 1-.6 1.4 0 .3 0 1.1-.3 1.8a81.7 81.7 0 0 0-1.9 16.7c-.2 4-.1 4.5 1 4.4h.7v-1c0-.7-.2-1-.7-1l-.7-.2.8-.3.7-.3v-6l.1-5.8h.6c.4 0 .5.1.4.6l-.4 9.6.1 1.5h.7c1.3 0 1.4-.2 1.4-3.3.1-2.3.2-3 .6-3.4l.4-.5-.2-4.5c-.7-13-.6-23.2.1-23.2.2 0 .3 2 .3 7.2L161 42l.6 13.6c0 .2.3.3.7.3.5 0 1-.1 1-.3l.4-2.5c0-1.6.2-2 .5-2s.4.3.3 2v2.3h1V50l-.1-1.2h-1.3c-1.5.2-1.7-.3-.2-.5 1.7-.3 1.6-.3 1.6-2.3v-1.9l-1.2.2c-.7 0-1.6.2-2 .3-1.5.3-.4-.5 1.4-1l1.7-.4-.1-3.7-.2-11.8c0-7 0-8.2.4-8.4.6-.4.7 0 .5 3-.1 3.2 0 18 .2 19.7l.2 1.2 1.4-.2 1.8-.3c.2-.1.3-2.7.3-8.5 0-8.2.3-11 .8-10.7a314.4 314.4 0 0 0 0 13c0 4.5 0 5.6.4 5.8.2.1.5.2.6.1 1-.2 2.6-.3 2.6-.1 0 .2-1 .6-2.8 1h-.7v1.9c0 1 .2 2 .3 2 .1.3 3.6 0 3.9-.2l-.2-3.2-.5-4.8h-2.7c0-.4 1.6-1 2.4-1 .2 0 .3-.2.1-1.2a49 49 0 0 1-.1-13.4c.1-.4.3-.7.4-.6 0 0 .2 3.3.2 7.1s.2 7.2.3 7.4c.2.4.6.5 2.6.5 1.7 0 2.6.1 3 .4.9.6.2.9-2.7.7l-2.8-.1.2 1.3c.4 3.7.6 7.7.6 10.9 0 2 .1 3.4.3 3.4 0-.1.3-2.3.4-5 .2-5.2.3-6.6.7-6.6a615.5 615.5 0 0 0-.2 10.8v1l1.1.2c1 .1.9.4-.4.5-.8.1-1 .8-.3.8s.7.1.2 3.4c-.5 2.8-.4 3.7.5 3.7l.8-.2c0-.2.8-.3 1.6-.3a6 6 0 0 0 1.8-.2c.3-.1 1.2-.2 2.2 0l2.2-.1c.3-.2 1.3-.3 2.2-.2 4 0 5.8 0 8.4-.3 3-.3 9.3-.5 17.5-.7 4.3 0 5 0 5.2.3.2.7-.5 1-2.3 1a456.4 456.4 0 0 0-19.2.3l-6 .6c-2.2.2-4.6.3-6.7.2h-4.5l-1.4.3v3.5c0 2 0 4 .2 4.4l.1.8h1.8l.4-2c.3-2 .4-2.2 1-2 .3.1.3.3.1 1-.4 1.8-.5 2.9-.2 3 .4.1 5.4-.1 12.9-.7 3-.2 4.1-.2 4.3 0 .5.5 0 .7-1.6.7a212.8 212.8 0 0 0-12 .8l-3.4.4c-.3.2-.3.2 0 .3.3 0 .5.1.5.4 0 .2-.2.4-.5.4-.5 0-.9.7-.5 1.1.1.2.8.3 2 .1a25.9 25.9 0 0 1 6 0c3.4.1 4.3.3 3.2.7h-1.7c-1.4-.2-1.5-.1-1.6 1.4l-.1.8h3.6c0 .3-1.6.6-2.8.6-.9 0-1.3.5-1 1 .2.2.8.3 2.3.2l2-.2.2-.8c.4-1 1-1 1.2 0v.7l2.8.2c1.9 0 2.8.2 2.9.4 0 .3-.6.4-2.5.4-5.8 0-8.1.2-8.6.7-.4.3-.6.4-1.1 0a4 4 0 0 0-1.8-.2c-1 .1-1.2.2-1.3.7 0 .4.1 1 .4 1.3l.4.6 1-.2c1.4-.4 6-.3 6.3 0a173 173 0 0 1 8.4-.2c5.4-.2 8.6 0 8.6.6 0 .3-.8.3-4.4.3-2.4 0-6.3 0-8.5.2-5.6.5-6.4.5-6.4 0s-1.3-.7-2.7-.4l-2.8.3c-1.3 0-1.6 0-1.6.4 0 .2-.1.4-.3.4-.1 0-.3-.2-.3-.4 0-.4-1.2-.8-1.6-.5l-.2 1v1h1c1 0 1 .5-.1.7-.6.1-.8.3-.9.8v.6l1.9-.1 2-.1 1.9-1.3L191 86c.3-.4 1.3-.4 1.3 0l-1.9 1.4-1.9 1.4h3.6c2.1 0 3.5 0 3.6.2.2.4-1.6.6-5.2.7l-3.2.2c-.2 0-.5.5-.8.9l-.4.8 1.2-.2 6.4-.2c3.4 0 6.3-.1 8-.4 3-.4 10.2-.6 10.6-.3.4.5-.6.7-4 .7a123 123 0 0 1-14.6.7c-3.5 0-7.5.2-9 .4-3.4.3-4.4.3-4.4 0 0-.1.4-.3 1-.3 1.7 0 2.8-.3 3.7-1.2l1-.8H176v3.4h-.4c-.4-.2-.5-.5-.5-1.7a5 5 0 0 0-.2-1.6c0-.1 0-.4.2-.7.2-.4.2-.6-.2-1-.5-.2-.5-.4-.2-.6.3-.1.3-.5.2-1.7l-.2-1.4.9-.3c.6-.1.9-.3 1-.9 0-.5-.1-.7-.6-.8-.8 0-.8-.8 0-1 .5 0 .7-.3.8-.9v-.7l-1.5.1h-1.5l-.2 2a54 54 0 0 0-.2 5c0 2.4-.1 3-.4 3-.5 0-.8-3.9-.4-6l.3-3c0-.8-.1-1-.6-1.1-.9-.1-1-.7 0-.7.5 0 .6-.1.5-.8 0-.6-.2-.7-.8-.6a3 3 0 0 0-.9 0l-.2 2.8-.2 2.7.7.2c1 .2.7.7-.3 1-1 .3-1.3.8-.8 1.6.6.9 1.5 4 1.9 6.1l.3 1.9.9.2 1.8.6.8.4 2.9-.6c3.6-.7 6-.7 7.6 0l1 .6 2-.3c1.1-.2 3.3-.3 4.8-.3h2.8l1.4.6c1 .5 2.2.8 3.4.9 1.1 0 2.9.5 3.9.8 1 .4 2.1.7 2.4.7.8 0 1.3.6 1 1.5l-.1.8 2.9.3 3.2.4c1 .1-.5 1.2-2.9 2-.7.2-1.4.6-1.7.9-.4.4-.7.4-1.7.3-2-.3-2.4-.2-3 .3l-.5.5.1 2c.1 1.3 0 1.9-.2 2l-2 .5-1.7.5v1c0 1.2-1 2.2-2.2 2.5-.9.1-1.5.6-.8.6 1 0 1.7.6 2 1.8l.3 1.2 10.4-.1 10.3-.1.3.5v.7a6971 6971 0 0 1-23.7.2c-.1 0 0 .4.2.7.5.9.5 1.5-.1 2.2-.7.8-2.5.8-2.4.1 0-.2.4-.5.7-.5.2 0 .6-.2.7-.4.3-.2-.5-1.2-1.5-1.7-.6-.3-.7-.5-.7-1.1l.1-.7h2l2 .2-.2-.5c0-.5-.2-.6-1.9-1.3-1.3-.5-1.8-1.6-1-2.3.3-.2 1.3-.5 2-.6.9-.1 1.6-.4 1.7-.5l-.3-1.2c-.6-1.1-.3-1.5 1.6-1.9 1.6-.3 2.7-.7 2.7-1 0-.2-.3-.4-.7-.6-.4-.2-.9-.7-1.1-1-.2-.5-1-1.3-1.7-1.9l-1.2-1-1 1c-1 1-1.7 1.3-1.7.5 0-.4 3-3.7 3.3-3.7l.2.4c0 .9 3.8.3 4-.6.1-.2.8-.7 1.5-1 .7-.4 1.3-.7 1.2-.8a17 17 0 0 0-4.1-1.3c-1.8-.2-2.6 0-2.8.9-.2 1-1.4 2.2-2.1 2.2-.9 0-.8-.8 0-1 .7-.3 1-.9.4-.9-.5 0-.2-.8.4-1 1-.5.8-.7-.5-1.4-1.2-.6-4-.8-6.3-.4-1.4.2-1.7.8-.6 1.2.4.2.7.5.7.7 0 .4-.3.4-1.7.2a9 9 0 0 1-2.2-.4c-.8-.4-3.6-1-5-1-.8 0-1.5-.1-1.5-.3 0-.3 1.1-.7 2.1-.8l-.9-.2c-1.3-.2-1.7-.1-2.4.3-.4.3-1.5.5-2.4.6a5 5 0 0 0-2 .6c-.4.4-2 .4-2.9 0-.4-.2-.5-.1-.4.4 0 .5.3.8 1.7 1.4 1.3.6 1.7 1 1.9 1.4 0 .4.3.9.6 1 .3.2.5.7.6 1v.8l1.8.5 1.8.7c0 .1.6.4 1.2.5l1 .4-.2.9c-.1.7 0 .9.2.9.3 0 .5-.2.5-.4s.1-.5.4-.7c.3-.3.6-.2 1.5.2.7.4 1.3.6 1.5.6.1 0 .3.2.3.4s-.3.4-.5.4c-.4 0-.5.1-.4.6l.1.5-1.3-.1c-2.2-.2-4-.8-4-1.3 0-.3-.2-.6-.5-.7-.2 0-.8-.4-1.2-.8a6.1 6.1 0 0 0-3.6-1.1 3 3 0 0 1-1.5-.4l-.5-.4.5-.5c.6-.7.5-.8-.4-.6-1 .1-1 .5-.2 2 .7 1 .6 1.3-.4 1.1-.7-.2-1.2-1.2-1.2-2.5 0-1.5-.4-1.6-.8-.1-.2.7-.4 1.5-.6 1.7-.3.7 0 1 1.1 1 1.4.2 1.2.8-.4 1.4-2 .6-2.1.6-2.4-.5l-.2-2v-1.1l.7-.1.6-.1.7-3c.3-1.8.6-3.8.6-4.6 0-3.8-1.8-9.6-3.3-10.7-.4-.3-.7-.4-.7-.3l1 2.7c1.4 3 2 5 1.7 6-.2 1-.8.7-.9-.4 0-2.3-2.3-7-4.7-10.6-3-4-8.1-8-8.6-6.5-.1.2-.4.2-1.2 0l-1.7-.5-.6-.2.5.4L154 77c.4.4 1.3.8 2.1 1.1 2 .6 4.8 2.1 5.7 3 1 1.2.6 1.3-.9.2-1.4-1-3.4-2-4.5-2.4l-.6-.2v.8c0 .5.2 1 .4 1l2 .5c1 .3 2.3 1 3.3 1.7l1.5 1v1c0 1.8.2 2.2 1.3 2.5 1.5.4 1.7 1 .3.7l-1.2-.2.2.5c.6 1.4.8 2.7.8 5.8 0 3 0 3.6-.5 4.5-.3.6-.7 1-1 1.1-.6.1-.6-.4 0-1 .3-.4.4-1.3.6-3.6.1-3.6-.3-5.8-1.4-7.3-.5-.7-.7-1.1-.5-1.4.2-.1.3-.7.4-1.3 0-.8-.1-1-.7-1.6l-1.1-.7-1-.5c-1-.7-3-1.3-3.4-.9-.3.3-.5.2-.9-.2l-1.4-.7-.9-.1.3.5L154 82l1.1 1.3 1.5 1.3 2 2c1.8 2.8 3.6 10.2 2.4 10.2-.1 0-.3-.2-.3-.6-.3-2-1.4-5.8-2-7.2-.9-1.8-2.7-3.8-3.4-3.8-.3 0-.6-.3-.7-.6a12 12 0 0 0-1.5-2.3c-1-1.2-1.4-1.6-1.9-1.6-.3 0-.7 0-.8.2l-1.2.4-2 .3c-.7.2-.9.1-.9-.2 0-.5 1-.9 2.7-1.1.9-.2 1-.3.6-.4l-.5-.2.5-.2c.2-.1 1-.2 1.5 0 .9 0 1 0 1.4-.6.7-1 .5-1.4-1-1.8a11 11 0 0 0-1.7-.4c-.4 0-.4-.4 0-.6.2 0-.3-.2-1-.3-1-.1-1.4-.3-1.4-.5 0-.3.4-.4 1.9-.3l2 .1-1.4-.4c-1-.3-2-.4-4.5-.2-4.7.2-7.8 1-8.6 2-.3.3-.9.5-1.6.6-1.6.2-3.4.6-4.4 1-1.4.5-3.4 2-3.8 2.7-.4.9-.2 1.1.5.6 2.6-1.8 3.9-2.6 4.8-3 1.9-.8 1.7.1-.2 1-1 .5-1.6 1-1.4 1.1l2-.5c1-.4 2.7-1 3.7-1.2 1-.3 2-.7 1.9-.9 0-.2.5-.3 1.5-.3s2-.2 2.6-.3c1.1-.1 1.4.3.3.6-.4 0-.6.3-.5.7 0 .5-.1.6-.6.5l-1.8-.2c-1.3-.2-1.5.2-.5.8.9.6 1.8.6 3 0 1-.7 2.4-.8 2.9-.3.1.1.7 0 1.8-.6 1.6-.9 2.8-1 2.8-.4 0 .3-.3.5-.5.6-1.3.4-2 .7-3.3 1.6-1.4.9-2.3 1.1-2.3.6l.4-.7c.6-.4.1-.5-1-.1l-2.5.6c-3.2.6-11.5 3.4-11.5 3.8l.6.2c.8 0 2.1.4 2 .8 0 .2-.5.2-.9.2-1.1-.2-2.5-.2-3.7 0-1 .3-1.2.2-1.2-.1 0-.5 2.2-1.7 4.7-2.6.8-.3 1.4-.6 1.4-.8l1-.5c1-.2 1.6-.8 1-.8-.5 0-2.7 1-2.9 1.3-.3.5-.7.3-.7-.4 0-.3 0-.6-.2-.6l-2.2 1-2 1-.2-.5-.5-.7c-.4 0-1.5 1.7-1.3 2.1 0 .3-.6 1.3-1.6 2.7-2.8 3.7-4.3 7.4-4 9.7.1 1 0 1.3-.3 1.6-.3.3-.4.3-.7 0-.6-.5-1-.1-1.1 1.4-.2 1.6.3 3.8 1 4.4.3.2.4.7.4 1.2 0 .7.2 1 .8 1.4 1 .6 1.2 1.7.2 1.7l-1.2-.4c-.4-.4-.6-.4-1-.1-.4.2-.7.2-1.5-.2l-1-.4-.6 1.1c-.3.6-1 1.3-1.5 1.6-1.1.6-1.3 1-.5 1 .2 0 .9-.4 1.4-1 .6-.4 1.3-.9 1.6-.9.4 0 .7 0 .8-.2l1.1-.4c.8-.1 1.3 0 2.1.4.7.3 1.2.8 1.2 1 0 .3-.3.4-1.7.2-1.2-.1-2 0-2.9.3-1.5.5-1.6.8-.2 1h1l-.1.8v.7l.5-.2 1.5-.3c.7-.1.8-.3.8-.8s.2-.6 1-.6c.9 0 1.3.5.6 1-.3.1 1 1.4 1.5 1.4.2 0 .4-.1.5-.3l.6-.3c.3 0 .8-.3 1.2-.6l.7-.7v-3.2l-.1-3.3-1-.7c-2.7-2.4-3.4-3.6-3.3-5.3v-1.1l1.1-.4c1.3-.4 7-.5 8.5-.1l1.8.7c1 .7 3.7.7 6.2.1 1.3-.3 3.2-.5 5-.5h3.2l1.3.7a8.2 8.2 0 0 1 4.2 4.3l1 2-.2 2c0 1-.3 2.2-.6 2.7-.5 1-.3 2.1.5 2.7a141 141 0 0 1 3.8 2.2l-.1-1c-.5-1.3-.4-1.4.6-.4.7.7 1 1.2 1 1.8 0 1-.7 1.3-1.3.6l-.3-.5.1.6c0 .3.5.7 1 1 .3.2.8.7.9 1l.1.7h2.7c2.6 0 3.9.3 3.9.8 0 .7-6.4.9-7.7.2-.5-.3-1.2-.4-1.6-.3a10 10 0 0 0-4 1.6c-.6.8-2.9 1.3-4.6 1l-1.4-.1-2.1 1-2.2 1.2-3 .1-3 .1-1.5-.6-2.4-1.3c-.4-.4-1-.7-1.2-.7-.3 0-.6-.2-.8-.4a6 6 0 0 0-3.3-1c-.8 0-1.4-.2-4.3-1.8a9 9 0 0 0-2.4-.6c-2.5-.2-3.9-.8-4-1.5 0-.4 0-.6.5-.6.2 0 .8-.3 1.2-.7l.8-.7-.7.2-1.5.5-.8.3-.4-.4-.3-.5-2.6.6c-1.7.3-3.7.6-5.2.6-1.6 0-2.7.1-3.2.4-1.2.6-2.4 1.6-2.2 1.9 0 0 1.1.3 2.3.4l2.3.1.1.7c.1.4 0 .8-.2 1-.2.4-.2.5.3.3.8-.2 1.3.2.9.7-.3.4-3.1.9-3.4.6 0 0 0-.4.3-.7l.5-.6-.5.2c-1.3.4-2.5.5-2.8.2-.3-.2-.7-.2-4.4.6-.7.2-.8.7 0 .7.2 0 .5.2.5.4 0 .4-1.3.7-2.2.5-.4-.1-.9 0-1.5.7l-1 .7H93c1.3 0 1.6.3 1.2.8-.2.2-1 .3-2.4.3-1.2 0-2.1.1-2.3.3 0 .2-.4.2-.8.2-.5-.1-.8 0-1.4 1a8.3 8.3 0 0 1-3.4 3.1l-1.1.5.1 1.5c.2 1.5 0 2.2-1.2 5.2-.4 1 0 3.3.9 5 1 2 0 6.6-1 4.8l-1.1-1c-1.4-.9-2.2-.2-1.7 1.6a35 35 0 0 1 2 9.6v1.9l1.4-.2c3.4-.4 6-.1 6 .8 0 .3.7.6 1.7.6.7 0 1 .8.4 1-.3.2-2.6.4-5 .4l-4.6.1-.7-.8-.6-.7-.8.4c-1.6.8-3.3-.1-4-2.3l-.3-1-3 .2-3 .2V156.3h1.4l1.3-.2-.9-.3c-.5-.3-1.2-.4-1.6-.3-1.4.3-6.5.6-7.5.5-1.3-.3-1.8-1-1.1-1.6.6-.7.6-.8-.6-1-.5 0-1.4-.4-1.9-.7-.5-.2-1.2-.4-1.5-.3-.6.1-1.1 1.1-1.1 2.2 0 .4-.1.8-.3 1-.4.4-1.6 3.5-1.4 3.8 0 .2.7.2 1.5.1 1.8-.2 1.5.4-.6 1-.9.3-1.6.6-1.6.8 0 0 1 .2 2.2.2l2.2.1v.8c0 .5.1.8.4.9.9.1.3.7-.9.8-.9.2-.6.2 1.2.2 1.6 0 2.3.2 2.5.4.1.3 1 .4 3.7.5 2.3 0 3.6.2 3.8.4.6.6-.2 1-2 1l-5.8.3h-4.5c-.2-.3-1.1-.4-2-.5-2.6-.2-3.8-1-3.2-2 .3-.5-.3-.8-1.7-.8-1.5 0-2.3-.8-2.3-2.1 0-1.9.8-4.6 2.4-8.3 1-2 1.6-3.8 1.5-3.9-.2-.1-2.1.9-3.1 1.6l-.6.5.3.6c.5.7 0 1.2-1.5 1.4-.7.1-1.6.4-2 .6l-.8.3h.7c.9 0 1.4.6 1 1-.2.2-.7.4-1.1.4a4 4 0 0 0-1.5.4l-2 .5c-1.2.2-2.5 1-2.5 1.4 0 .3 3 0 3.4-.4l1.6-.3 1.8-.2c.5-.2.6 0 .6.3 0 .7-.9 1.1-2.5 1.3-2.7.2-3 .4-3 1 .2.5.1.7-.1.8l-1.3.4-1.6.4c-1.3 0-4.8.7-5.2 1l-.5.5h3.1v.5c0 .4-.3.6-1 .7-4 .6-5 .8-5 1.2-.1.4.1.5 1 .6.6 0 1.1.2 1.2.3 0 .3-.8.5-4.7 1-.8.2-1.2.5-1.6 1.1-.4.5-.8 1-1 1-.1 0-1 .3-1.7.7-1 .5-1.6.7-1.7.5zm30.2-9.2c.1-.3.5-.7.8-.8l.7-.5 1-1.6c.8-1.3 1.4-2.8 1.7-4.9a7 7 0 0 1 .6-1.7 59.9 59.9 0 0 1 2.6-11.3 3 3 0 0 0 .3-2c-.2-1 0-1.4.3-2a5 5 0 0 0 .7-1.7l.3-1.5c.2-.5.1-.6-.3-.6-1 0-2.3 3-3 7-.7 4.2-1.7 7.8-2.1 7.8-.3 0-1.1 2.1-3 7.3-1.4 4-2 7-1.2 7 .3 0 .5-.2.6-.5zm25-5.3c.1 0 .3-.2.3-.5 0-.5-2.2-6.8-3.8-11.1l-1.8-5.6a20.7 20.7 0 0 0-2.4-6.5c0-.2-.4-.7-1-1.2-.7-.7-1-.8-1.8-.6-1.2.2-1.3.3-1.7 1.1-.7 1.2-1.1 9.6-.6 10 .3.4 1.5-.2 2.3-1 1.1-1.1 3.8-3.1 4.2-3.1.2 0 .2.3.1 1-.2 1.3-.3 1.3-1.3 1.8-1 .3-1.2.8-.7 1.3.6.6-.2 1-2.5 1.1l-2.3.2v3.4a22 22 0 0 1-.5 5.5l1.3-.1c1-.1 1.4 0 1.6.3.2.3.6.4 2 .4 2.2 0 2.8.2 2.3.8l-.8.4c-.3 0-.6.1-.7.3-.2.3 1 .6 1.6.4.2-.1.6 0 .8.1.3.3.5.3.7 0 .5-.4 1.5-.3 1.7.2.1.2.5.4 1 .4 1 0 1.5.4.8.6-.6.3-.4.7.2.6l1-.2zm2.4-1.8c.3-.5 0-2-.8-5.3-.4-1.7-2.4-3.2-2.4-2a141.2 141.2 0 0 1 1.9 6c.6 1.9.8 2.1 1.3 1.3zM21.3 153l.5-.6-.6.3c-.3.2-.6.4-.6.6 0 .4.2.3.7-.3zm44.8-.2h-1.5l.8.1h.7zm-41.5-2.3c.6-.7-.1-.4-.8.3l-.6.7.5-.3.9-.7zm4.6-.4-.7.5-.6.6.7-.5c.4-.2.7-.5.6-.6zm28.5-2.7a66 66 0 0 0 .8-10.9c-.4-.4-.7.5-1.3 3.5-.8 3.5-1 8.8-.6 9.4.6.7.8.1 1.1-2zM29.2 146v-.3c-.2 0-.4.1-.5.3l.1.2c.2 0 .3 0 .4-.2zm2.5-1.5 4.2-2.5c2.7-1.6 5.1-3.4 4.5-3.4-.2 0-9.6 6-10 6.3-.6.5.3.2 1.3-.4zm41.2-2c-.4-3-1-4.6-1.6-5.5-.8-1.2-1.4-1.4-1.4-.6 0 .6 1.1 3.9 1.5 4.4l.7 1.5c.5 1.4 1 1.5.8.1zm7.1.4c0-.2-.3-.4-.4-.4-.5 0-.2-1 .3-1l.5-.2-.5-.6c-.2-.4-.6-.6-.8-.5-.4.3-.3 1.8.2 2.5.4.7 1 .8.7.2zm-3-5.7a4 4 0 0 1 .6-1.4c.3-.3.2-1-.2-1.1-.7-.3-2.3.7-2.3 1.3 0 1.4 1 3.1 1.4 2.6l.5-1.4zm4-1.4c.4-1.4.4-3.7 0-3.8-.3-.1-.4.1-.2 1.1.1 1 0 1.5-.6 2.8-.3.9-.8 1.6-.9 1.6-.1 0-.2.1-.2.3 0 .6 1.6-1.2 1.9-2zm-38.5-3c3.7-2.4 6-4 6-4.3 0-.3-3.3-1.9-4-1.9l-.6.6c-.2.3-.5.5-1 .5l-1.3.2-1.6.7c-1.2.6-1.4 1-.6 1.6l.5.4 1.5-.8c.9-.5 2-1.1 2.4-1.5.9-.6 1.8-.8 1.6-.3 0 .3-.9 1-3.8 2.7a16.1 16.1 0 0 0-2.6 2l-.5.3.5.3c.2.1.4.5.4.8 0 .3 0 .5.2.5l3-1.8zm37-.6c-.2-1.3 0-1.7.7-1.3l.5.3v-.8c0-.4-.2-1-.5-1.2l-.5-.5-.4 1.3c-.3 1-.4 1.6-.2 2.3.4 1.3.6 1.2.4 0zm-49.4.4c.5-.3 1.3-1 1.9-1.8 1.2-1.7 2-2 2.7-1.2.3.4.5.5.5.2 0-.2.4-1 1-1.6.7-1 1.3-1.5 3.3-2.5 1.3-.6 3-1.2 3.5-1.3 1-.1 2.2-.8 2.2-1 0-.2-.4-.6-.9-1.1-1-1.1-1.3-2-.7-2.2.3-.1.7.1 1.1.7.5.5 1.2 1 2 1l1.9.9c.8.5 4.4 1.1 5 .8l.4-.1-.4-.2c-.2-.2-.4-.4-.4-.6l-1.2-2c-.6-1-1.6-2.8-2-4.1-1.6-3.9-2.6-8.6-1.9-8.6.3 0 .8 1.6.8 2.4 0 1.5 1.6 5.9 3 8.2l1 1.8.4-.4.4-.5.9 1a9 9 0 0 0 2 1.5l1 .6 1-.5c1.1-.6 1.2-1 .2-1.3-.5-.1-1.3-.6-2-1-.6-.5-1.7-1.2-2.4-1.5-1.3-.7-1.8-1.5-1.2-1.9.3-.1.2-.5-.3-1.4a26 26 0 0 1-2.5-9.2c.3-.9 1-.6 1 .4 0 3 2 8.4 4 10.7.5.6 4.6 2.7 5.2 2.7.2 0 .3-.4.3-1 0-.7-.2-.9-1-1.2-2.1-1-4.7-4.2-5.9-7.4-.7-2.1-1-5-.4-5.1.3-.1.4.1.4.6s.1 1.5.3 2.2c.2 1 .4 1.4.9 1.6.5.2.6.4.6 1.2 0 .7.3 1.2 1.2 2.2 1.4 1.4 3.2 2.8 3.5 2.6 0-.1-.2-.7-.7-1.3-1.7-2.3-4-6.5-4.2-8-.3-1.4-.4-1.5-1.9-3.1l-.9-1-2 .1a7 7 0 0 1-3-.3c-1.3-.5-2.9-.5-3.5.2l-1 .6c-.4 0-.8.5-1 .8-.3.4-.7.7-.8.7-.5 0-2.3 1.5-2.7 2.3l-1 3-.7 2.4.3 1.6.7 3.2c.2 1.2.4 1.6 1 1.8.6.2.9.7.9 1.8 0 1-.7 1.8-2.1 2.5l-1.7 1.1c-.2.2-.7.7-1.3 1-.5.2-1.3.8-1.7 1.3a44.5 44.5 0 0 0-4.5 6.3c-1 .8 0 1 1.4.4zm18.7-12.6c-1-1.3-2.5-7-2.5-9.8 0-1.6 0-2 .3-2 .2 0 .4 1 .5 2.5a28.7 28.7 0 0 0 2.4 9.4c0 .3-.4.2-.7-.1zM44 119l-1-1.5c-.1-.3-.5-.6-.8-.6-.8 0-2-1.2-2.6-2.7-.7-1.5-1-5-.6-5.7.4-.6.6-.3.7 1.6 0 .9.2 2.2.4 2.8.3 1.1 1.7 3 2 2.7 0-.1 0-1-.3-2.2-.6-2.6-.6-5.9-.1-5.9.3 0 .4.6.6 2.7 0 1.4.4 3.4.7 4.4.5 1.7 1.7 4 2.2 4.3l.2.6c0 .6-.7.4-1.4-.5zm1.6-.8c-.8-1.3-1.1-2.7-1.4-5.4-.2-2 0-3.8.4-3.8 0 0 .3 1.4.4 3.2.3 2.8.4 3.5 1.2 5 .8 1.5.8 2.1.3 2.1-.2 0-.6-.5-1-1.1zm-8.8 13.6c.6-.6 1-1.6.5-1.6a8 8 0 0 0-1.4 1c-1.4 1.2-2 1.3-2.3.6-.3-.5-.9-.2-.9.4 0 .2.4.3 1.7.3h1.8zm39.7.1c.4-.6 0-.9-.5-.3a2 2 0 0 0-.4.8c0 .3.6 0 .9-.5zm-5.2-1.2c0-.4-1.5-.4-1.7 0-.2.4.7.8 1.3.5l.4-.5zm5.8-1.4c.9-1 1.4-1.6 1.4-2v-.6l-1.2 1c-.7.5-1.2 1.2-1.2 1.4 0 .2-.4.7-.8 1-.4.3-.8.7-.8.9 0 .4 1.1-.3 2.6-1.7zm-2.2-.9c2.6-2.1 4.4-4.1 4.4-4.8v-.6l-.7.6c-.4.3-1 1-1.3 1.6-.4.5-1.3 1.4-2.1 1.9-1 .6-1.5 1.1-1.5 1.4 0 .3-.3.8-.7 1.1-.5.4-.6.5-.2.4a12 12 0 0 0 2.1-1.6zm-6.3 1c0-.2.5-.3.9-.3s1-.2 1.2-.4l.5-.4-.4-.3c-.3-.3-.9-.4-2.3-.3-1 0-2 .2-2 .4 0 .3 1.3 1.5 1.6 1.5l.5-.2zm-7.9-2.2c2.2-.3 2.9-.7 2.2-1.3-.2-.2-1-.1-3 .4-1.6.5-2.5.8-2.3 1 .5.3.5.3 3.1-.1zm-4 0c0-.5-2-1-2.7-.9h-1.2l-1.6-.7c-1.1-.3-1.3-.3-1.6 0-.2.2-.2.4-.2.5a33.1 33.1 0 0 0 7.4 1zm9.2-.7 1.4-.2c1.1 0 3.4-.6 5-1.2.4-.2.3-.2-.4-.2-2.1.1-2.7 0-2.9-.6l-.1-.5h-2c-1.5 0-2.2-.1-2.4-.4-.6-.7 0-1 2.7-1 2.3 0 2.6 0 2.2-.3-.7-.5-.6-1.2.2-1.2 1.4 0 6-1.4 8.2-2.5 2.3-1.1 4.4-2.6 4-3l-2 1c-5 2.8-7.1 3.4-12 3.6l-3.5.2-.5-.7c-.3-.4-.4-1-.3-1.3l.2-.5 1.5.2c1.9.2 3.5.2 4-.2.2-.2.4-.2.9.1.8.6 1 .6 3.4-.2 2.2-.7 4.2-1.6 7.2-3.1a7 7 0 0 1 2.6-1c.8.3 2.3-1.5 2.3-2.6 0-1 0-1-1.8.5-2.3 1.8-3.8 2.7-5.2 2.9-.7.1-2 .6-3 1-3.2 1.4-9.7 2.8-10.6 2.2-.7-.5-.1-1.1 1-1.1 1.3 0 4.6-.7 5-1l-.1-.3c-.2 0-.4-.2-.4-.4 0-.4 2.5-1.5 3.3-1.5l1.7-.6 3.8-1.8c2.5-1.2 3.2-1.4 2.6-.6-.3.4-.3.4.2.3.2-.2.9-.4 1.3-.5.5-.1 1.7-1 2.7-2a11.3 11.3 0 0 0 3.9-6.6c.1-.4 0-.6-.1-.6-.3 0-.7.8-2.2 4.2-.8 1.9-1 2.1-1.6 2.1-.6 0-.6-.6 0-1.4l.7-1.6.4-1-.4.3a54.8 54.8 0 0 1-8.4 6.8c-2.1 1.3-2.6 1.5-3.8 1.6-.8 0-1.5.1-1.7.3-.7.5-5 1.6-6.4 1.6-1 0-1.6-.1-2-.5-.6-.6-2.1-.9-2.7-.5-.3.2-.2.4.6 1.2.8.8 1 1.1 1 2 0 .6-.2 1.2-.4 1.5-.5.4-.5.4.5 4.1.7 2.8 1.7 5.2 2 5.2.1 0 .3 0 .4-.2zm21-3.1c.2-.2.3-.5.2-.6-.2-.2-1 .4-1 .8 0 .3.5.2.9-.2zm-13.8-.4c1.7-.5 3.4-1.3 4.7-2.1 1.6-1 2.5-.2 1 1-.6.5-.6.6-.2.6.9 0 1.5-.8 1.5-2 0-.7-.1-1.2-.3-1.3-.1-.1-1.3.4-2.6 1-1.3.7-3 1.4-4.1 1.6-1.2.2-1.9.5-1.8.7 0 .2 0 .5-.3.7-.4.5.1.4 2-.2zm16.8.1c.3-.2.5-.6.5-.9 0-.6 2-2.4 4.1-3.4l2.5-1.7a12 12 0 0 1 2.1-1.5c.7-.3 1.4-.8 1.6-1 .3-.4.8-.7 1.1-.8l.6-.3h-.9c-.5 0-1.2.2-1.4.4-.3.2-.8.4-1.2.4-.6 0-3.6 1.7-4.7 2.7l-.6.5-.2-.5c-.2-.5 0-.7 3-2.3a58 58 0 0 0 4.3-2.5c.5 0 3.3-2.3 3-2.4-.2 0-1 .3-1.6.7-1.3.7-2.3.7-2 0 0-.2.7-.6 1.5-1l2.1-1.3c.5-.4 1-.8 1.4-.8.6-.2.9-1 .2-1-.2 0-.4-.2-.3-.5 0-.5.8-.9 6-3.7 1-.5 1.9-1 1.9-1.3 0-.6-.5-.5-3 1-1.7 1-2.7 1.4-3.4 1.4-.5 0-1.2.2-1.5.4l-2.3 1.6-4.6 3c-2.8 1.8-3.2 2-3.2 1.3 0-.2.5-.6 1.1-.9a30.6 30.6 0 0 0 6.1-4.2c.2 0 1-.4 1.6-1l2.7-1.6 2.1-1.2.5-.4-1.1.1c-2 .3-6 2.5-5.7 3.2 0 .2-.3.6-.9 1a585.2 585.2 0 0 0-6.1 3.8c-1 .3.9-1.4 2.9-2.6 1-.8 1.6-1.3 1.3-1.2l-.7.2.7-.5 1.8-1.2c1.9-1 8.2-4.9 9-5.5.8-.6 1-1.3.5-1.3l-1.3.6c-.5.4-1 .7-1.2.7a26.7 26.7 0 0 0-9.1 5.5c0 .3-1.8 1.3-2 1-.4-.3.8-1.3 4.3-3.4l4.8-2.7c.7-.3 1.7-1 2.2-1.5l1.8-1.3c1-.5 1.1-1.2.1-1-.4.2-.9.4-1 .6a1 1 0 0 1-.8.4c-.5 0-2.6 1.1-3.8 2l-1.1.7c-.3 0-1.5.7-4.2 2.5-1.6 1-3.8 2-3 1.3a76.5 76.5 0 0 1 7.3-4.8l.3-.5-.5.2-3.6 2c-2.3 1.4-3.3 2-3.9 1.9l-.7-.1-.8 2.2c-.5 1.3-1 2.7-1 3.2s-.2 1.7-.5 2.6c-.3 1-.5 2.2-.5 2.8 0 1.1-.3 3-1 6-.1.8-.8 2.4-1.5 3.6l-1.2 2.4c0 .5.5.4 1.1-.1zm4-10.2c0-.4 2.2-1.9 5.2-3.4l2.8-1.5c.9-.6 1.1-.4.4.3-.4.4-1.6 1.1-2.7 1.6l-3.7 2.2c-2 1.2-2 1.3-2 .8zm46.6 8.6c.7-.1 1.6-.7 2.2-1.1.5-.5 1-.8 1.3-.8.2 0 .4-.2.4-.3 0-.1-.3-.3-.7-.3-.3 0-.7 0-.8-.2-.1-.2 2.6-3.2 3-3.2.3 0 1.7-1.3 2.2-2 .4-.7.7-1 1.1-.9 1 .2.9 1.2-.5 2.6l-1.2 1.4c0 .1-.2.2-.5.2-.6 0-.6 0 0 1.4l.5 1 1-.5c1-.5 2-1.7 2-2.4 0-.2-.3-.1-.6.2-.3.3-.6.6-.8.6-.5 0-.6-.8-.1-1.3.5-.6 1.2-.7 1.2-.3 0 .5.4 0 .6-.7.2-1-.4-2.5-1.1-2.8-.9-.4-1.1-.7-1.1-1.6 0-.4-.1-.8-.3-.9-.3-.2-.3-1.6 0-1.8.2-.1.6 0 .9.4.6.7.9.5 1.2-1 .3-1 .3-1.6 0-2.5-.1-.7-.4-1.3-.5-1.3l-.4-.6c-.1-.8-2-2.4-3.4-3-1.4-.6-5-.5-7.8 0-2 .6-2.5.6-4.6.3l-1.2-.2.1.9c.3 1.1-.3 1-1.9-.4a6.8 6.8 0 0 0-2-1.3c-3-.7-7.4-.3-7.4.6 0 .5 2.8 3.5 3.7 4 .3.1 1 .3 1.6.3 1 0 1 0 1 .5 0 .3.3.8.5 1.2.7 1 .3 2.3-1 3.3l-1 .9v1.3c0 .8-.1 1.5-.3 1.7-.2.2 0 .5.4 1.2 1.4 2 .5 2.8-1.4 1l-1-.9-.6.4c-.3.4-1 .5-2.4.5-1 0-2.1 0-2.4.2-.3.2 0 .3.7.3 1.4 0 3 .6 4.2 1.4.4.4 1.6.9 2.5 1.1 1.7.5 2.2.5 4.5.8l1.1.2v.6c0 1 .7 1.1 1.5.2.6-.6 1-.8 2-1 .8 0 1.6 0 1.8.2.4.2.8.2 1.8-.3 2-1 3.7-.8 3.4.4 0 .3-.3.5-.8.5-.6 0-.9.2-1 .6-.4.8-1.6 1.2-3 1h-2.3l-.9.3 1.9.2a40 40 0 0 1 3 .2l1.7-.5zm1-6.3v-1.4c0-.8.2-1 .6-1 .4 0 .6.2.7 1.2l.1 1.2.2-1c0-.6.2-.9.6-.9.6 0 .8.8.4 1.6-.2.5-.6.6-1.4.6-.6 0-1-.1-1.2-.3zm5.3-3.2c-.2-.5.2-.8.5-.4.3.5.3.8 0 .8-.2 0-.4-.2-.5-.4zm-6.1-4c-.2-.3-.3-.7-.3-1 0-.2-.4-.7-1-1.2s-.9-.9-.8-1.2c.2-.4 1.4-.5 1.6-.1l1 .4c1.4.3 2.4 2.4 1.5 3.2-.5.5-1.7.4-2-.2zm-12-3.8v-.8h-.6c-1.1 0-2.5-.7-2.5-1.4v-.5l1.2.2c.6 0 1.7 0 2.4-.2l1.2-.3.5.6.4.7 1.1-.5c1.5-.6 2.5-.6 2.4 0-.1.5 0 .5-3.1 2-2.8 1.3-3.3 1.3-3 .2zm-46 17.5c0-.2-.2-.3-.4-.3s-.4.1-.4.3l.4.2c.2 0 .4 0 .4-.2zm3.9-1.8.7-.4.3.5c.2.2.4.4.5.3.2-.2 1.5-4 1.4-4 0-.1-1 .8-2 2-2 2-2.3 2.5-1 1.6zm8.3 0c.3-.3.2-.3 0-.3-.3 0-.6.1-.8.4-.3.3-.3.4 0 .4s.6-.2.8-.4zm7.2-.5a1 1 0 0 0-.7 0l.4.1c.3 0 .5 0 .3-.1zm1.4-.6s-.3 0-.5.2c-.2.3-.2.3.2.2.2-.1.4-.3.3-.4zm-16.9-1.2c.8-.5 1.3-1.2 1-1.4 0 0-.7.3-1.4.9-2 1.4-1.7 2 .4.5zm66.5.3c.8-.5 1-.9 1-2.3 0-.6-.2-1-.5-1-.6-.1-1.6.9-1.6 1.6 0 .3-.2.8-.4 1.1a2 2 0 0 0-.4.7c0 .4 1 .3 1.9-.1zm-70.8-.8v-.4c-.2 0-.4.1-.5.4l.1.4.4-.4zm3.2-2.3c.2-1 0-1.1-.5-1-.5.3-.8 1-.4 1.4.5.6.7.5.9-.4zm2.9-.5c.3-.3.5-.3 1-.1.3.2.5.2.7 0 .3-.3.4-2 0-2-.1 0-2 1.7-2.6 2.5l-.4.5.4-.3c.2 0 .6-.4.9-.6zm15.9-1c.4-.2.6-.5.6-.9 0-.6-.2-.6-1.1 0-1.1 1-.9 1.3.5.8zm-17.8-.5.3-.5-.4.4-.5.4c0 .2.2 0 .6-.3zm16.4-.4 1.2-1c0-.2-.2-.1-.5 0l-1 .5c-.4 0-1.4.7-1.4 1 0 .5.3.4 1.7-.5zm10.6.6.8-.2-.7-.2c-.4-.2-1.3-.2-2 0-.8 0-1.4 0-1.5-.2-.2-.4-.7-.3-.7.1 0 .6 2.5.9 4.1.5zm-42.8-1.5a83 83 0 0 0 11.6-5.7l2.4-2 1.3-1.1-.5-.4c-.3-.3-.4-.6-.3-1 .2-1-.5-.6-2.6 1.5a25.9 25.9 0 0 1-6 4.4 23 23 0 0 1-6.2 3.9c-.7 0-.3-.9.5-1.3l.6-.4c-.2-.2-2 .5-2 .8 0 .1-.3.6-.7.9-.3.3-.6.7-.5.8.2.3 0 .4 2.4-.4zm9.1.1c.2-.1.3-.2.1-.2-.1 0-.4 0-.6.2l-.2.3c.2 0 .5-.1.7-.3zm-14.8-.6c1.7-.2 2.7-.7 1.4-.7-.6 0-1-.2-1.3-.5-.4-.4-.8-.6-2-.6-1.8 0-2.3-.1-2.3-.8 0-.5.2-.6 1.9-.5 1.6 0 2.6-.2 2.4-.7-.2-.6.7-1.4 1.6-1.4 2.5 0 11.8-4.4 11.8-5.6 0-.2-.1-.2-.3 0l-2.2 1.2a25.7 25.7 0 0 1-15.7 3c-.4-.2-.5-.1-.5.3 0 .3-.2.5-.6.5-1.3.2 0 1.1 1.6 1.1 1 0 1.3.1 1.3.4 0 .5-1.6.8-3 .6l-1.2-.2.4 1c.8 2 2.7 3.4 4.3 3.2l2.4-.3zm44-1.4c0-.3-.2-.3-.6 0l-.6.6c0 .3.2.3.6.1.3-.1.5-.5.5-.7zm-17.6.2c0-.2-.1-.3-.4-.3-.2 0-.3.1-.3.3 0 .1.1.2.3.2.3 0 .4 0 .4-.2zm-2.5-1.3c.5-.9.5-1.4.2-1.4-.2 0-1 1.5-1 2 0 .4.4.1.8-.6zm22.3-.5c.1-.2-.2-.3-.8-.3-1 0-1.3.2-1 .6.4.4 1.7.2 1.8-.3zm-40.2 0a34.5 34.5 0 0 0 4.8-2 53 53 0 0 0 9.5-7.2c1-1 1.3-1.7 1.5-2.5V95a23.5 23.5 0 0 0-5.8 5.6l-4.2 2.7c-4.4 2.9-4.9 3.1-5.2 2.9-.3-.2-2.6.3-3 .7-.3.2.3 1.6.7 1.6l1.7-.5zm44.8-1.3c0-.4-1-1.4-1.3-1.4-.5 0-.3.5.3 1 .6.6 1 .7 1 .4zm-8-1.2c.4-.2.4-.2 0-.2l-.6.2c-.2.4.1.4.7 0zm-48.6-2.1v-.6l1.5.2 1.6.2.7-.7c.4-.4.7-.7.6-.8l-2.9.4-3.5.5c-1-.1-1.1.4 0 .9 1.2.6 2 .6 2-.1zm144.9 0 2.5-1c1-.5 2-.8 2.3-.8.6 0 .7.5.2 1-.2.2-.2.3.3.3.3 0 .7-.2 1-.5.2-.3.7-.6 1-.6.2 0 .4 0 .4-.2 0-.4-2.7-.6-4.6-.5-1.3.1-1.7.3-2.1.9-.3.3-.7.6-.9.6-.7 0-2.2.8-2 1 0 .3.3.3.6.1a6 6 0 0 1 1.3-.4zm-111.9-2.6 1.3-3c0-.1-.5.2-1 .7-.6.7-2.1 4.1-2.1 5 0 .7.5-.2 1.8-2.7zM68 102.6l1.4-.3h1.1c.5 0 .7-.2.5-.6 0-.4.2-.7 1.4-1.5a56.7 56.7 0 0 0 6-4.3l4-3 2.5-2.1v-1.5c0-.7 0-1.4-.2-1.4-.7 0-5.7 4.2-6 5-.1.7-1.6 2-3.3 2.8a35 35 0 0 0-3 2 7.7 7.7 0 0 1-2.9 1.5 7 7 0 0 0-2 .7l-2.2 1c-.7.2-.7.4-.3 1.8.1.4 2 .4 3-.1zm19.8-1.6c.8-.9 1.8-3.2 1.5-3.5-.4-.4-1.6 1-2.2 2.5-.8 2.3-.7 2.5.7 1zm-11.1-1.2c2.7-1.4 3.3-1.6 3.6-1.3.3.3.5.3.9 0a360.6 360.6 0 0 0 5.6-4.8c.3 0 .8-1.6.8-2.5 0-1-.1-1-1-.4-.6.4-.8.8-1 1.9-.2 1.3-.7 2-1.2 1.4-.2-.2-.2-.5 0-.9.5-1 0-1-.9 0a108.7 108.7 0 0 1-11 8.2l-.4.3.7-.2c.3 0 2-.8 3.9-1.7zm95.3 1c.2-.8-.1-1-.4-.3-.2.6-.2 1.2 0 1.2s.4-.4.4-.8zm-57 0-.1-.4c-.3 0-.6.6-.4.8.2.3.6 0 .6-.5zm-81.2 0c.8-.4 1.2-.4 1.6-.2.4.2.8.1 1.8-.4l1.5-.9.3-1.7.2-1.5h-.7a18 18 0 0 0-5.3 2.6c-.3.3-.8.6-1.2.7-.3 0-.9.3-1.1.5-.5.4-.5.5-.2.8.4.6 1.8.6 3.1 0zm8.7-.3c.4-.1.6-.3.6-.4 0-.2-.3-.2-.6-.1-.5.1-.7 0-1.1-.7-.3-.7-.5-.8-.7-.5-.3.5-.3.7.3 1.3.6.6.7.6 1.5.4zm11-.5-.3-.6c-.4-.2-2.2-3.4-2.6-4.7-.3-1-.2-2.3.2-2.3.1 0 .4.5.5 1.1.5 1.8.8 2.7 1.8 4 1 1.7 1.8 2.4 2.3 2.2.5-.2.5-1 0-1.5a13 13 0 0 1-2.2-4.7l-.9-2.3c-.2-.2-1.8.3-2.5.9l-.6.5.6 2c.8 3 2.4 5.8 3.3 5.8.2 0 .3-.2.3-.4zm56.6 0c.2 0 .2-.2.1-.2l-.7.3c-.2.1-.2.2 0 .2l.6-.2zm-44.4-.7c3.6-1.4 7.4-3.4 9.1-4.8 1-.8 1.7-1.5 1.7-1.6 0-.2-.7 0-1.4.5-3.2 1.8-5 2.7-5.3 2.7-.7 0-5.8 2.2-6 2.7-.3.5-.4 1.3-.2 1.3l2.1-.8zm-20.9 0 .7-.2-.7-1.7c-.4-.9-.6-1.8-.5-2.1.1-.6-.6-1-1-.4-.3.2-.3.7 0 2.1.6 2.8.5 2.7 1.5 2.3zm5.6-.4c-.1-.3-.3-.3-.7 0l-.5.3-1-1.1c-.4-.6-1-1.4-1.2-2-.4-.6-.6-.8-1-.7-.5 0-.6.2-.5.7 0 .8 1 2.7 1.3 2.7.7 0 1.9.3 2.5.5 1 .2 1.3.1 1-.4zM99 97.4l4-2.4 3.4-1.7a19.7 19.7 0 0 0 4.2-2.5l.7-.5-.8.3c-.5.1-1.4.2-2.2 0H107l-.4.8c-.3.8-.6 1-2 1.5a41.3 41.3 0 0 0-5.5 2.3c-1.2.3-2.4 1.2-2.8 2.2-.4 1-.6 2.5-.2 2 0-.2 1.4-1 3-2zm-56.8-1c-.2-1-.5-1.2-1.2-1-.6.2-.7.7-.1.7.2 0 .5.6.8 1.3.4 1 .5 1.1.6.6v-1.5zm16.2 1.8c.5 0 .4-.6-.2-1.2-.8-.7-2.2-3.4-3-5.8-.7-2.2-1-5.2-.6-5.4.3-.1.6.8 1.3 4.1.5 2.6 2.4 6.5 3.3 6.9.5.2 1.4-.1 1.4-.5l-.9-1.6c-1.5-2.3-2-3.2-2.4-4.5-.8-2.2-1.5-5.3-1.5-6.3 0-.7 0-1-.3-1-.4.2-1.5 2.2-2.3 4.5l-.6 1.4.6.7c.3.5.5 1.2.5 1.8 0 1.3 1.5 5 2.5 6.3.6.7.9 1 1.3.8l1-.2zm-8.8-1c-.4-1.5-.7-1.9-1-1.9-.7 0-.8.6-.1 1.5.7 1 1.4 1.2 1 .3zm44.4-.9c.6-.2.6-1.2 0-1.2-.1 0-.4-.2-.6-.5l-.3-.5-.2.4c-.2.2-.3 1-.3 1.6v1.2l.5-.4c.2-.3.6-.5.9-.6zm19.9-.4c.4-.6.6-1.2.5-1.3 0-.1-.5 0-1 .3-.8.4-1 .5-1 1.3 0 1.4.6 1.2 1.5-.3zm3.2.5.4-1.6c.3-1 .1-1.3-.5-.7-.4.3-.5.8-.5 1.8 0 1.4.3 1.7.6.5zm-27-2.8a5 5 0 0 0 .3-1.4l-1.2.7-1 .9L88 95v1.4s.5-.2 1-.7a4 4 0 0 0 1-2.2zm1.2 2.3.5-1-.2-.1c-.3 0-1.1 1.3-1.1 1.7 0 .4.5 0 .8-.6zM69 95c1.7-.7 3.2-1.6 4.4-2.5l6-4.8c5-4 5.3-4.2 5.2-4.7a5 5 0 0 1-.2-1.4c0-.6 0-.8-.4-.7a41.3 41.3 0 0 0-8.3 7c0 .2.4 0 1-.2.6-.3 1.1-.5 1.2-.3.3.4-1 1.3-3.2 2.4-1.1.6-2.6 1.5-3.2 2l-1.2.7-.2-.4c-.2-.4-.4-.4-1-.2-1.6.4-2.2 1-2.1 2 0 .8-.5 1.7-1.2 1.7 0 0-.2.1-.2.3 0 .4.8.2 3.4-.9zm-7-.2-.3-.4A28 28 0 0 1 57.2 82c0-.4-.2-.6-.3-.5-.2.2-.2.9-.1 2.1.1 1.9.3 2.7 1 5.3 1 3.2 3 6.6 3.7 6.3.2 0 .4-.2.4-.3zm35.6-1.6 1.1-1.4.8-1.1c0-.2.8-1.2 1.8-2.2l5-5.2c2.7-2.7 3.2-3.4 3-3.7l-.8-.4c-.8 0-5.7 5-7.6 7.8-1 1.5-3.1 3.8-3.5 3.8-.4 0-1 3.3-.7 4 .2.3.2.3.4-.3l.5-1.3zm-49 .5c.1-.4 0-.5-.6-.4-.5 0-.8.2-.9.5 0 .4 0 .5.7.4.5 0 .8-.2.8-.5zm61.7-.5c0-.4-.1-.3-.7.3l-.5.6.6-.3c.4-.2.6-.5.6-.6zm4.3 0c.4 0 .7-.5.4-.5-.4 0-1.8.6-1.8.8 0 .2.2.2.5.1l1-.3zm-51.1 0-.2-.3c-.2 0-.4.2-.5.3 0 .2 0 .3.3.3.2 0 .4-.1.4-.3zm28.9-.5c.7-.7 1-1.5 1.5-3.4.3-1 0-4-.4-6.1-.2-1-.6-.2-.6 1 0 1-.3 1.5-3.1 3.8l-1.1.8V92l.7-.6c.4-.3 1-1 1.2-1.5.3-.5.6-.8 1-.8.2 0 .5-.1.6-.3.3-.4.7-.3.8.2.1.2-.1.7-.7 1.3-.6.6-.8 1.2-1 2-.1 1.5.1 1.6 1 .5zm-44.7-1.3 1.5-1c.6-.2 1.8-2.4 2.6-5 .8-2.3 1.4-3.5 2.8-5 1-1.2 1.2-1.4.8-1.6-.3-.1-.5 0-.6.1-.1.5-2 2.7-4 4.7a16.9 16.9 0 0 0-3.9 6.6c0 .4-.4 1-.8 1.3-.3.4-.6.9-.6 1.2v.6l.6-.6c.3-.3 1-1 1.6-1.3zm46.6 1.3-.4-.6-.2.6c0 .3.1.5.3.5.3 0 .4-.2.3-.5zm24.1-1.3c-.1-.1-1.2.6-1.2.9l.3.6c.3.3.4.2.7-.5.2-.5.3-.9.2-1zm-55.7 0c.2-.5.2-.6-.3-.6s-.8-.6-1.7-3.3c-1.1-3.2-2-7.1-1.6-8 .3-.6 1 0 1 1A24 24 0 0 0 63 90c0 .2 0 .5.2.5s.3-.4.3-.8l.2-1.3c.2-.3.4-1.4.6-2.6l.3-2-.6-.7c-1.5-2-1.9-3.1-1.1-3.9.5-.5.3-.7-.7-1l-.6-.2.1 2c.2 2.8 1 5 1.7 5.1 1 .2.8 1.3-.2 1.3-.4 0-.8-.3-1.2-1-.7-1.4-1.4-4-1.4-5.6v-1.2h-.7c-.3 0-1 .3-1.3.6l-.7.7.4 2.7.7 3.7c.4 1.3 2.1 5 2.5 5.3.5.3 1 .2 1.2-.3zM36.4 91c.7-.4.9-.8.9-1.3 0-1 .5-1.1 1.3-.2l.9.8 1.5-.4c.8-.2 1.5-.4 1.7-.3.3 0 .8-.4 1.4-1.1.9-1 1-1.4 1-2-.2-.5 0-.7.3-.7.8 0 3.3-1.6 3.4-2.3l.4-.6c.5 0 2.6-2.2 2.8-2.8 0-.4.5-1.2.9-1.7.7-1 .7-1.2.5-2l-.2-1.9c0-1.9-1.1-3.8-2.8-4.8-4.5-2.6-5-3-5.2-4.7v-.8l-1.7.1c-1 0-1.9 0-2.5-.3-.5-.2-1.2-.5-1.6-.5-.8-.2-3.3-2.6-3.7-3.6-.4-1-.7-1-1-.2l-1.2 2.6a30 30 0 0 0-2.2 8.6c-.2 3 .8 7.8 2.4 10.7.5 1 .8 2 .9 3l.1 1.7-.7 1.5c-.4.8-.9 1.5-1.1 1.5-.5.2-.5 1 0 1 .2 0 .4-.2.5-.4.1-.2.4-.4.6-.4.4 0 .4.2.3.9v1c.3.4 1.2.2 2-.4zm6.2-5.2c-1-.4-1.6-1-2.3-2.4-.7-1.5-.8-2.7-.5-5.7.2-2 .2-2.2-.2-2.2-.2 0-.5.2-.5.4-.1.2-.5.4-1 .4-.8 0-1.3-.4-.9-.9.2-.1.2-.5 0-1-.3-1 0-1.5.8-1.8.6-.3.7-.4.5-1-.4-1.8-.5-3-.1-3.1.1-.1.4 0 .6.1.4.5 1.5 3.6 1.5 4.3 0 .3.2.8.5 1.2.4.5.5.9.4 2.8-.4 5-.2 6 1.6 7.6.6.5 1 1 .8 1.2-.1.4-.3.4-1.2 0zm-4-10.7H38c-.3 0-.2 0 .1.1l.4-.1zm43.9 13.3c2.4-1.9 2.7-2.3 2.2-3.1-.2-.3-.6-.2-1.8.8a23 23 0 0 0-1.8 1.4l-1 .8c-1.3.7-3.7 2.8-3.5 3 0 0 .3 0 .5-.2.4-.4 1.2-.3 1.2.1s.2.3.9-.2l3.3-2.6zM70.8 90c.7-.3 1.9-1 2.5-1.6a195 195 0 0 1 8.5-7.3l2.3-1.8-.3-.8c0-.5-.3-1-.4-1-.2-.2-3.2 1.7-3.8 2.4L78 81.2c-.9.7-1.5 1.3-1.5 1.6 0 .2-.8.9-1.8 1.5a26.4 26.4 0 0 0-6.3 6c.2.4.7.3 2.4-.2zm-3.2-.6c0-.2.7-1 1.5-1.7l1.2-1.4c-.1 0-.7.1-1.4.5-1.2.5-2 1.6-2 2.6 0 .7.5.7.7 0zm19.4-.4c.4-.3.6-.7.6-1.6 0-.6-.2-1.2-.3-1.3-.6-.4-1.3.9-1.3 2.1 0 1.3.1 1.4 1 .8zm20 0c2-.3 4.4-.5 5.6-.5l2.1-.1 2.3-1.2c2-1 2.3-1.2 2-1.5-.3-.2-.8-.3-1.3-.2-.5.1-1.5.3-2.3.3-4.5.5-5.9.7-6.4 1.2-.4.5-.8.5-3 .5h-2.3l-.5.6c-.7.7-.7 1.3 0 1.3l3.8-.4zm75-.3c.6-.8 0-1-2.9-.6-2.8.3-3.4.5-3 1 .3.5 5.4.1 5.9-.4zm-83-1.4c0-.4-.4-.3-.8 0-.5.5-.4.8.2.5.3-.1.6-.4.6-.5zm82.4-.2c.7 0 .9-.2 1-.9.1-.4.2-.9 0-1l-3.3.2-3.3.2v.6c-.3 1.3 0 1.4 2.5 1.2 1.2 0 2.7-.2 3.1-.3zm-91.2-1c.7-.6 1.4-1.5 1.6-2.3 1-2.3.7-2.3-1.8-.3L88 85l.2 1c.3 1.6.3 1.6 2 .1zm-20.9-1.6c1.6-1.5 1.6-2 .2-1.4l-1.5.6c-1 .3-1.6 1-1.6 1.8v.8l.7-.2c.4 0 1.4-.8 2.2-1.6zm18.3-.3 2.4-2 1.6-1c1-.1 1-1.4-.2-3.2l-1-1.6c0-.2-.1-.1-.4.1l-.7.5c-.4 0-3.8 2.3-4 2.8 0 .4.1 2.7.3 2.7l1.9-1.3c1.8-1.4 2.2-1.5 2.2-1 0 .4-1.4 1.6-3.1 2.8-.7.5-.9.8-.9 1.5 0 .5.1 1 .3 1 .1 0 .9-.6 1.6-1.3zm33.8-.6c-.1-.7-.4-1.3-.5-1.3-.3 0-.3.9 0 1.5l.4 1c.3 1 .5 0 .1-1.2zm-13.7.7c.3-.3 1.8-1 3.3-1.7 1.6-.6 2.7-1.1 2.4-1.1a20.4 20.4 0 0 0-5.5 1.8c-.5 0-1.4 1-1.2 1.3.3.4.4.4 1-.3zm4.2.4 1.4-.2.4-.9.3-.8-.4-.2a20 20 0 0 0-5.5 2c-.2.3 1.7.3 3.8 0zm-37.5-2c8.4-6.6 8.7-6.8 11-8 2.4-1.3 3-1.5 3.5-1.2.3.2.3.4-.2 1.5-.7 1.3-.6 1.8.2 1 .4-.3.5-.8.5-2 0-1.6-.3-3.1-.8-3.4-.7-.4-1.6-.3-1.6.2 0 .7-.5 1.1-1.1 1.1-.3 0-1.6.8-3 1.8l-3 2.3c-1 .7-9.2 8.2-9.2 8.4-.1.5 2.2-.5 3.7-1.7zm95.2.5c0-1.1-.2-1.2-1-.9-1 .3-1 .7-.1 1.6.8.8 1 .6 1-.7zm9.5-.8v-2.3h-.7c-.5.2-.8.3-.8.8 0 .4 0 .7.3.9.5.3.6 1.2 0 1.4-.4.2-.7.9-.5 1.2l1 .2h.7zm2.8 1.2-.1-2.2v-1.3h-.9c-.6 0-.7.1-.6.5.3.5.3 2.2 0 3.1l-.1.7h1.9zm3.8-.2c0-.6 0-1.2-.2-1.3-.3-.2-.2-.5 0-.8.5-.8.1-1.4-1-1.4-1.5 0-1.7.1-1.7 1.8 0 1.9.7 2.6 2.3 2.7.6 0 .6-.2.6-1zm-67.1.2c.4-.8-.3-1-1.8-.5-2 .7-2.1 1-.1 1 1-.1 1.7-.3 1.9-.5zm-24-4.5c-.2-.9-.8-2.3-1.2-3.2-.7-1.3-1-1.6-1.5-1.6-.8 0-.8-.4 0-.8 1-.4.7-1-.4-.8-.9 0-1 0-1-.5 0-.3.2-.5.4-.5s.4-.2.4-.3c0-.6-1.6-2.5-1.8-2.3l.2 1c.2.5.3 1.7.4 2.6.2 1.9.2 2 1 2.2.5 0 .6.3.5 1.2v1.1H93l.4 1.4.6 2.9c0 .8.3 1.6.5 1.8.4.6.5-2.3 0-4.2zm28.6 3.3c0-.2-.3-.4-.4-.4-.3 0-.4.9-.1 1.1.3.3.7-.2.5-.7zm-5.9 0c1-.4 1.4-.7 1.5-1.1 0-.4 0-.6-.2-.6-.6 0-1.4.3-1.4.6 0 .6-.6 1-1.2.7-.8-.3-1.2-.1-1 .4.2.5.7.5 2.3 0zm-47.8-2.1c4-3.6 13-10.7 13.6-10.7l.5.3c.3.5 0 1.2-.6 1.8-.3.2-.4.5-.4.6 0 .2.8-.2 1.8-.8 1.1-.8 1.9-1.5 1.9-1.7 0-.4.2-.5.9-.5 1 0 1.1-.3.4-1.3-.3-.4-.4-.8-.4-1 .2-.5-2.1-2.1-4.2-2.9-2.3-.9-2.3-.9-4-2.9-1.8-2.2-3.3-3.3-4-3-.6.4-.8.2-1-.8-.1-.7-.4-1-1.4-1.4l-2.2-.7a4 4 0 0 1-1.6-.7c-1-.8-4.2-1.1-5.4-.5-1 .5-1.3.3-1.1-.7.2-1-.8-1.6-3.4-2.5-1.6-.6-2.4-.7-5.4-.7-2.3 0-3.5 0-3.7-.3-.2-.4.7-1 1.3-.9.3 0 .7 0 .9-.2l.4-.3-.6-1.6c-.6-1.9-1.5-2.8-4.2-4.3l-2.3-1.3c-1.1-.6-1.3-.4-1.5 2.7-.1 3.2.1 4.2 1.3 5.4.7.8 1 1.2 1 2 0 .7.2 1.2 1.3 2.3 1.8 2 2.5 3.6 3 6.8.2 2 .2 2.8-.1 3.4l-.3.8-1.6.2c-1.2.2-1.7.1-1.9-.1 0-.2-.3-.3-.4-.2-.2.2 0 .5 2.5 2.3 1.5 1.2 2 1.3 2 .7 0-.3.2-.5.6-.7l.7-.2-.2-1.2-.2-1.1.7-.6c.4-.2.7-.7.8-1 .1-.4.5-.8.9-1 .3 0 1-.8 1.5-1.5.6-.7 1-1.3 1.2-1.3a4 4 0 0 0 1-1.2c1.5-2.5 4-4 4-2.6 0 .6-1.3 2.2-4.6 6-1.2 1.3-2 2.4-2.2 3-.3 1.2-.6 6.2-.3 6.2l.8-.8c.4-.7.5-1 .2-1.3-.2-.5-.2-.9.5-2.4.4-1 .8-1.9 1-2l.3-1.1c.2-1 1.3-2.1 3.8-4l2.9-2.4c.7-.8 1.6-1 1.6-.3 0 .1.3.4.7.5 1.1.4.6 1.8-1.2 3-1 .7-4.8 5-4.8 5.4 0 .8 1-.1 4-3.6l1.8-2c.7-1 3-2.5 3.5-2.5.7 0 1 .7.8 1.4-.2.4-.2.7-.1.8.4.4-.3 1.5-1.5 2.2-1.5 1-5.8 5-5.8 5.5 0 .7.5.4 2.8-1.8 3.6-3.5 6-5.2 7.4-5.2.4 0 .6.1.6.5 0 .5.2.5.9.5 1.2-.1 1 .6-.3 1.2-2.5 1.2-8.3 6.4-8.3 7.5 0 .4-.3.8-1 1-.9.6-1.4 1-2.8 2.7l-.5.6 1-.3c1.1-.3 1.9-.9 3.9-2.8 3.5-3.4 6.5-5.9 7.5-6.5 1.1-.6 2-.5 2 .2 0 .5-1.2 2.1-1.7 2.2-.3 0-.4 0-.2-.6.2-.4.2-.7 0-.7-.3 0-3.2 2.5-5.2 4.4-1.3 1.3-1.6 1.8-1.5 2.2.1.5 0 .7-1 1-1.1.6-2.6 1.8-2.6 2.2 0 .4 2.7-1 4-2.2 2.6-2.5 5.3-4.5 9.7-7.5 2.5-1.7 3.3-2 3.6-1.2.3.7-1 2.7-1.8 2.7-.5 0-.5-.2 0-.8 1-1 0-.8-1.9.6a55.8 55.8 0 0 0-12.5 10.9c0 1 1.9.2 4.5-2l8.6-7c2.3-1.7 4.6-2.5 4.6-1.6 0 .8-2.1 3.3-2.8 3.3-.5 0-.4-.2.3-1l.6-1-1.6.8c-1.2.7-2.4 1.7-7.4 5.9-1 .7-1 1-.8 1.3.5.5.3.8-1.4 1.5-1.5.8-3.6 2.5-3.6 3 0 .6.6 1.7.9 1.7l2.5-2.2zm41.8 1 1.8-.6v-8.6l-.6-1.3a7 7 0 0 0-.8-1.4c-.2 0-.1 3.8.1 5.1 0 .5.3 1 .5 1.2.5.3.5 1.4.1 1.7-.1 0-.1.4 0 .8 0 .6-.1.9-1.6 2.2l-1.5 1.6 2-.7zm54.2-.3h-.6c-.3.2-.3.3 0 .6l.3.4.2-.4c.2-.2.2-.5.1-.6zm-93.4-.3c2-1 7-5 7-5.6 0-.2.4-1 1-1.5 1.3-1.6.5-1.4-1.4.3-1 .7-2 1.6-2.4 2-4 3-6.4 5.1-6.4 5.5l.1.3 2.1-1zm97.3.4c.4-.1.7-.3.7-.6 0-.6-2.6-.4-3 .3-.5.7-.3 1 .7.7l1.6-.4zm-44.1-.2c.2-.6-.6-1.5-1.5-1.5-.7 0-.7.5 0 1.4.7.8 1.2.9 1.5.1zm12.1.2c.7-.1 1.2-.4 1.2-.5 0-.5-1.7-1.3-2.5-1-1 .1-2 .6-1.5.7.2.1.3.4.3.7 0 .6.8.6 2.5.1zm-16-.4c.3-.4.2-.6 0-.7-.6-.2-1 0-1 .7s.7.6 1 0zm67.9.3c.2 0 .4-.3.4-.5 0-.5-.8-.8-1.8-.6-.7 0-1 .3-1 .7l-.1.6h1c.6 0 1.3 0 1.5-.2zm-124.7-.9c0-.3-.2-.5-.4-.5-.4 0-.6.8-.3 1.2.3.2.7-.1.7-.7zm51.4-.9c.3-1.8 0-2.2-1.2-1.7-.9.4-1 .8-.2 1.8.3.3.5.9.5 1.2 0 1.1.7.2.9-1.3zm2.6.7.2-1.7.1-1.6-.5-.1c-1.1-.1-1.3.3-1.2 2.7v1.2l.6-.1.8-.4zm45.4-.3c0-.3-.1-.5-.4-.5-.4 0-.5.3 0 .7.4.5.4.4.4-.2zm1.8-.6c0-.3-.3-.4-.4-.4-.3 0-.4.8-.1 1.1.3.3.7-.3.5-.7zm-11 .4c0-.2-.1-.3-.3-.3-.2 0-.2.1-.1.3l.3.2v-.2zm14.7-.2c.5-.1.6-.3.6-1.3 0-.7-.2-1.2-.3-1.2l-.5-.7c-.2-.7-.6-.8-1.7-.4-.5.2-.6.5-.6 1.1v.8h1l1.2.2c.2.3-.5.6-1.3.6s-1.3.4-1.1.9c.1.4.8.4 2.7 0zm-47.8-1.8v-1.8l-.8.2c-.5 0-1 .3-1.1.4V78l.1 1.5.9-.1h.8zm55 1.6c.2-.1.3-.5.3-.8 0-.4-.2-.4-1.7-.4-1.8 0-2 0-1.8 1 .1.5.3.6 1.5.6.8 0 1.5-.2 1.7-.4zm-49.7-.7c0-.3.4-.7.8-1l.8-.3-.2-1.3c-.2-1.5-.4-1.8-1-1.5-.6.1-1.8 3-1.6 3.7l.3.8c.2.6.7.3.9-.4zm52.4 0v-.8h-.7c-.6.1-.8.3-.9.9v.7h1.6zm2.6 0c.1-.8-.3-1.2-1.1-1-.6.2-.7.4-.7 1v.8h.8c.7-.1 1-.3 1-.8zm4-.1c.3-1.1 0-1.3-1.5-1-1.3.2-1.9.7-1.6 1.5.2.3.5.4 1.6.3h1.3zm3.6.6.5-1.1.1-.7h-2.6l-.3.6c-.5 1.3-.3 1.5 1 1.5.6 0 1.2-.2 1.3-.3zM111 77.3c0-.3-.3-.5-1.2-.5l-1.2-.1.8 1 .9 1 .3-.5c.2-.2.4-.6.4-.9zm13.6.8c.2-.9.2-2.8 0-3-.4-.2-1.7.2-1.8.5l.1 1.7c.3 1.2.4 1.4.9 1.4.4 0 .6-.2.8-.6zM86 78c.5-.3.6-.6.5-1 0-.2 0-.7.3-1.1.6-1 0-1-1.2 0-1 .7-1.1.9-.9 1.9.2.7.5.7 1.3.2zm77.7 0-.3-.6c-.3-.3-.7-.3-1.4-.2l-1 .2.5.5c.3.4.6.5 1.2.3l1-.2zm2.2-.7c.3-1 .2-1.3-.5-1.3-.6 0-.7.1-.7.8 0 1.2.9 1.6 1.2.5zM58.4 75.9c1.5-.7 2.8-1.5 2.7-1.6v-.8c0-.7-.5-.7-1.4.1-.3.3-1.3 1-2.3 1.5-1.8 1-2 1.4-2.1 1.9 0 .5.2.4 3.1-1zm56.8 1 1-.4v-1.4c0-1.9-.2-2.3-1-2.3h-.8l.9-.5c.7-.4.8-.6.7-1.1l-.2-3.5v-3l-1-1.8-1-1.8V63c0 1.4 0 2 .4 2.3l.4.4-.4.5c-.5.6-.6 4 0 6.4.3 1.4.3 1.8 0 2.1-.6.6-.5 2.6 0 2.6l1-.4zm57.2.3c.5-.2.5-1.3 0-1.7-.6-.5-1.5.1-1.5 1s.5 1 1.5.7zm3.3-.5c.6-.7.2-1.3-.8-1.4-1.1-.1-1.6.3-1.4 1.2 0 .4.3.6 1 .6.5 0 1-.2 1.2-.4zm3.8-.8c0-.7-.1-.8-.7-.9-.5 0-.8 0-1 .5-.5.9-.1 1.4.9 1.3l.8-.1zm-27.6.5-.4-.2c-.2-.1-.4 0-.4 0 0 .2.2.3.4.3h.4zm25.3-1.1c-.3-.7-.8 0-.6.7l.2.6.3-.4v-1zm4.8.4V75h-1.9v1.5h2zm-63.8.4c.4-.1.6-.4.7-1.6.2-1.9 0-2.2-1-2.2h-1v2c0 2 .1 2.1 1.3 1.8zm41.6-1.2v-1.3h-.6c-.8.2-1 1.4-.2 2.1l.7.6.1-1.4zm3.4.7c.3-.8.4-2 .2-2.3h-1.1l-1 .2-.2 1.2c-.2 1.5-.1 1.6 1 1.6.6 0 .8-.2 1-.7zm-42-.4c.4-.2.5-.6.5-2v-1.7h-.6a2 2 0 0 0-.9.2 8 8 0 0 0-.4 3.6c.2.3.8.2 1.4 0zm45-1.1v-1h-.9c-.7.1-.9.3-1 .7 0 .8.5 1.5 1.2 1.4.4-.1.5-.3.6-1.1zm-55.7-2.8c0-1.9-.1-3.5-.2-3.6-.1-.1-.8 0-1.5.2-1 .3-1.3.4-1.3 1l-.1.8.8-.1c.6-.1.8-.1.6.2 0 .2-.4.4-.7.5-.7.2-.9.9-.3 1.1.5.2.6 1 .2 1-.4 0-.4 1.2 0 1.7 0 .2.4.3.6.2.3 0 .5 0 .6.3 0 .2.4.3.7.3h.6zm58.4 2.6v-1h-.9c-.8 0-1 .2-1 .7-.2 1 .1 1.4 1 1.3h1zm-111.5-.2c2.5-1.6 4-2.6 5.3-3.2a26 26 0 0 0 4.1-3.4l4.4-4c1.6-1.2 2-2 1-2-.6 0-4.8 3.5-7.8 6.6-2.8 2.9-4.1 3.9-4.3 3.3-.2-.6-1-.2-2.5 1.3-1.5 1.6-2.3 2-2.3 1 0-.6 2-2.8 3.5-3.8 1.6-1 2.8-2.1 2.5-2.4-.1-.1-.6.3-1.2.8-.6.6-1.2 1-1.4.8-.3 0-.5 0-.6.3 0 .2-.3.4-.5.4-.3 0-.5 0-.5.2l-1.3 1.6c-1.3 1.4-1.4 1.8-1.1 2.9.2.8 1 .7 2.7-.4zm66.8.4c.1-.4.2-1.2.1-1.8 0-1-.2-1.2-.7-1.3-.7 0-.7.1-1 2.2v1.5h.7c.6 0 .8-.2 1-.6zm33.2 0c.8-1.3.1-2.6-1.3-2.6-.4 0-.5.2-.5.9 0 .4-.1 1-.3 1.2-.2.3 0 .5.4.7.8.5 1.4.5 1.7-.1zm15.1-.6v-1h-.7c-1 0-1 .2-1 1.1.2.7.3.8 1 .8h.7zm3.2-.5c0-1 0-1.2-.3-.9-.2.3-.4.5-.6.5-.4 0-.6-.9-.8-2.8 0-.8-.2-1-.5-1.1-.4-.1-.5 0-.5 1.3 0 .8.2 1.6.3 1.7.2 0 .2.5.1 1-.2 1.4 0 1.7 1.2 1.7h1V73zm3.1 1.2c.3-.2.3-.3 0-.4-.7-.2-.6-.9 0-1l.7-.2-.2-1.1-.3-4.3-.2-3.1h-.6c-1 0-1 .6-.7 5.5.3 5 .4 5.2 1.3 4.6zm-2-3-.3-2.5v2.6c0 1.4 0 2.6.2 2.7.3.3.3-.1 0-2.8zm5.1 2.7c0-.2-.4-.3-.8-.3-.3 0-.7.1-.8.3 0 .2.2.3.8.3.6 0 .9-.1.8-.3zm-56-1.8c0-.8-.2-1.4-.4-1.5-.3 0-.5 1.8-.2 2.7.3 1.1.7.3.6-1.2zm2.4-.2c0-1.7-.1-2-1-1.7-.5.2-.6.4-.6 1.5 0 1.8.2 2.2 1 2 .4-.2.5-.5.6-1.8zm23.7 1.7c0-.1.4-.2.8 0h.6l.1-1.2V69l-.2-2-.3 2.1-.3 3c0 1.1-.7 1.3-1 .2-.3-1.3-.3-1.3-.3.1 0 1.3.2 1.8.6 1.1zm18.4-.1c0-.2-.1-.4-.3-.4-.1 0-.2.2 0 .4l.2.4v-.4zm-20.1-1.1V71c-.2-.2-1.4.7-1.8 1.3-.4 1-.4.9.1 1 1.2.4 1.5.1 1.7-1zm-18.4.3c.3-.1.4-.7.4-1.8v-1.6l-1.2.2c-1.7.2-2 .5-2 2.2v1.5l1.2-.2 1.6-.3zm28-.4c.4-.7 0-1.3-.6-1.1-.7.1-1 .7-.7 1.3.2.5 1 .4 1.3-.2zm-54.7-.1v-.6c-.2-.2-1 .2-1.2.7-.1.4 1 .3 1.2-.1zm58.5-.5.1-.7h-1.3c-1.4 0-1.5 0-1.2 1 .1.5.3.6 1.3.5h1zm2.4-.1c0-.5 0-.6-.7-.6-.9 0-1.2.3-1 .9.3.7 1.6.4 1.7-.3zm3-.2c0-.3-.2-.4-1-.4-.7 0-.9 0-.9.5s.2.6.9.5c.5 0 .9-.2 1-.6zm3.4.1c0-.4-.6-.7-1-.6-.6.2-.8.8-.2 1 .4 0 1.2-.1 1.2-.4zm-55 .1c.4 0 .5-.5.5-1 0-.7-.1-1-.5-1-.5 0-.9 1.1-.6 1.9.1.3.1.3.7.1zm52.7-.2-.2-.4-.1.4c0 .2 0 .4.2.4s.2-.2.1-.4zm-65.4-.4c.7-.4.7-2 0-1.7l-.9.3c-.5.1-.6.5-.3 1.2.2.5.5.6 1.2.2zm16.3-.2c.5-.1.6-.3.6-1.2 0-1-.1-1.1-1.2-.7-.5.2-.6.4-.6 1.2 0 1 .1 1 1.2.7zm35.4-.2c.5-.2.3-.7-.4-.7-.3 0-.5.2-.5.4 0 .4.2.5.9.3zM124 70l.1-1.1c.1-.7 0-.8-.5-.8-.6 0-.7.2-.8.8v1c.2.5 1 .6 1.2.1zm28.2-3.2c.2-2 .2-2.3-.1-2-.3.3-.4 1.4-.4 3 0 3.2.3 2.5.5-1zm-50.3 3c.3-.1.5-.4.5-.6 0-.5-.1-.5-1 0-1 .7-.7 1.2.5.6zm57.8.1h-.5c-.2 0-.1.2.2.2.3 0 .4 0 .3-.2zm3.5 0c.3-.3.1-.3-.7-.3-.7 0-1 0-1 .2.2.4 1.2.4 1.7 0zm5.9-.5c0-.2-.3-.4-1-.4-1 0-1.3.7-.4.9.7.1 1.4-.1 1.4-.5zm3 0c0-.3-.2-.5-.6-.6-.5 0-.6 0-.6.6s.1.7.6.6c.4 0 .6-.2.6-.6zm-65.5-.2c0-.4 0-.5-.3-.2-.1.1-.2.4 0 .5.2.5.3.4.3-.3zm19.3-.7c0-.8 0-1-.3-1-.2 0-.4.6-.4 1.2 0 .9 0 1.2.3 1 .2 0 .3-.5.4-1.2zm39.5 1s-.1-.2-.3-.2l-.4.3c0 .1 0 .2.3.2.2 0 .4 0 .4-.2zM113.2 68c0-1.5-.2-1.8-.6-1.9-.3 0-.4.1-.4.7v.7l-.4-.5c-.7-1-.6 0 .1 1.2.5.6.8 1.2.8 1.3 0 .2.1.3.3.3.2 0 .2-.7.2-1.8zm15 1.4c.2-.1.4-.7.4-1.3v-1h-.9l-.8.1-.1 1.3v1.3h.5c.4 0 .8-.2 1-.4zm47.5-.3c0-.2-.2-.4-.4-.4s-.4.2-.4.5c0 .4.1.5.4.4.2 0 .4-.3.4-.5zm-58.2-.3c0-.5-.2-1-.4-1.3l-.4-.5v1c0 .7 0 1.2.2 1.3.3.4.6.2.6-.5zm39.5-1.3a18 18 0 0 0 0-5c-.2-.4-1.5-.6-1.8-.2-.2.4.4 6.8.7 7 .7.4 1 .1 1-1.8zm-52.5 1.3c.9-.4 1-.9.3-.9-.6 0-1.7.8-1.5 1 .2.4.3.4 1.2 0zm27.9 0 .2-1.3v-1.2h-.8l-1.6.3-.8.3v2.4l1.4-.2 1.6-.3zm17.6-1.2c1.2-3.7 1.9-6.5 1.8-7.2-.1-.4.1-2 .5-3.4a120 120 0 0 0 2.7-16.4v-1.3l-1 .2c-.5 0-1 .2-1.1.3v1.4c.5 1.9.4 5.7-.2 9a5315.4 5315.4 0 0 1-1.5 7.3l-1.6 7.4c-.8 4.6-.6 5.7.4 2.7zm10 1c0-.5-.2-.6-1-.6h-1V69.2l1-.1c.7 0 1-.2 1-.6zm-58.5 0c.7-.2.9-.4.9-.9 0-.7-.6-.8-1.8 0-.7.4-.8.6-.6.9.4.4.4.4 1.5 0zm61.3.2c.8-.1 1-.3 1-.7-.1-.3-.3-.6-.5-.6l-1.4.1h-1v.7c0 .7.2.8 1.9.5zM57.2 67.5l-.4-.2c-.4 0-.8.6-.5.9.2.2.9-.4.9-.7zm61.3-5.5c-.2-4.5-.2-6.2 0-6.4.5-.5.8.9.9 4.3l.2 3.9.2.6.8-.4.7-.4.5-4.3a307 307 0 0 0 1.2-13.2l.3-2.3a671.2 671.2 0 0 1-3.6-.8l-1-.1-.5 1.4c-.4 1-.5 2.3-.5 5.5a19 19 0 0 1-.2 4.3c-.4 0-.5-.7-.7-3.8-.1-2.7 0-5.3.6-7l.1-.6h-2.2c-1.5 0-2.5-.2-3-.4a5 5 0 0 0-2-.4h-1l.1 2.6c.2 2 .4 3 1 4.8l1.4 3.5c.8 2.5.9 2.3.9-2 0-4.6.2-6.9.6-6.7 0 .1.2 3.2.2 6.8 0 7 0 7.5 1.3 10l.7 1c.3 0-.1-4.7-.5-5.8-.4-1.3 0-1.9.9-1.1l.5.5.1 4.4.2 4.3 1 2 1 2-.2-6.2zm-7.9-14.7c0-.7-.2-2-.4-2.7l-.4-1.7c0-.2 0-.4.3-.4.5 0 1 2.9.8 4.7l-.2 1.4zm11 20.6c.2-.2.2-2.8-.1-3.2-.2-.3-.4-.3-1-.1-.6.2-.8.4-.9 1l.1 1.9.2.8.7-.1 1-.3zm43.7 0c0-.3-.3-.5-.5-.5s-.4.2-.4.5c-.1.3 0 .4.4.4s.6-.1.5-.4zm3.6 0c.6-.5.4-1-.4-1-.8-.2-1.7.4-1.5 1 .2.6 1.4.6 2 0zm-62.3-.5c0-.2 0-.4-.2-.4s-.3.2-.3.4.1.4.3.4l.2-.4zm65.4-.1c0-.7-.7-1-1.1-.6-.4.4 0 1.1.5 1.1.4 0 .6-.2.6-.5zm2.2.2.3-1.7.1-1.4h-.7c-1 0-1.6.6-1.2 1.1.2.2.2.6.2 1v1c.2.4 1.2.4 1.3 0zm1.7-1.6c0-1.1 0-1.5-.3-1.5-.3.1-.6 2.4-.3 3 .3.9.6 0 .6-1.5zm-71 .8c.7-.7.2-1.1-.9-.7-.6.3-.8.5-.8 1s0 .6.6.4l1.1-.7zm4 .2h1l.8.1-.2-.8-.3-3-.7-4.3-.8-4c-.2-1.6-.4-2-.7-1.9-.4.1-.5.7-.7 3.3v3.5c0 .2.3.3 1 .2 1-.2.8.2-.4.8l-.8.4.1 1.3v1.2h1c1.3 0 1.4.3.1.7-.6.2-.9.5-.9.8 0 .5.1.5.9.3l.8-.1-.3.4-.9.6c-.3 0-.5.3-.5.6 0 .4.2.5.6.3a3 3 0 0 0 1-.4zm50.8 0 .2-3.5V62h-2.2v1c0 .5 0 1.8.2 2.7l.1 1.8.8-.2.9-.3zm-35.5 0 .3-1.8c.2-1.3-.2-1.8-1.1-1.1-.5.3-.5.6-.5 1.7 0 1.7 0 1.6.6 1.6.3 0 .6-.2.7-.5zm-23-.4 1.2-.6V65c0-2-.7-2.2-2.6-.7-.4.3-.2 2.7.1 2.7l1.3-.5zm-42-.3.3-.9c-.2-.4.1-1 2.4-3.7.9-1 1.6-2 1.5-2.1-.2-.3-3 2-4.2 3.5-1.5 1.8-2 2.8-1.5 3.4.4.5.9.5 1.4-.2zm66.7-.5c0-.6 0-1-.2-1s-.3.4-.3 1 .1 1 .3 1c.1 0 .2-.4.2-1zm37 .9.9-.2v-2.3l-.2-2.2-1-.1-1.1-.1-.3 1.4c-.2.7-.3 1.8-.3 2.5v1.2h.6l1.5-.2zm-35-.4.7-.2v-1.6c0-1.7 0-1.8-1.3-1.5l-.6.2v1.5c0 1.3.2 1.9.5 1.9l.7-.3zm37.2-.7c0-.6 0-1.6.2-2.4.1-1.1 0-1.4-.3-1.4-.6 0-1 2.7-.5 4.2.2 1 .6.7.6-.4zm4.2 0c0-.4-.1-.6-.5-.7-.7-.2-.7-.7.1-.7h.6l.2-2 .2-3.5c0-.9 0-1.7.2-1.8.2-.2.2-.5.1-.7-.1-.4-.4-.4-1.9-.3l-1.8.3-.2.7c-.1.8 0 .8 1.5 1 1.2.3 1.4 1 .3 1l-.8.1v1.2l-.2 3.3c-.3 2.6-.2 2.9 1.1 2.8.8 0 1-.2 1-.7zM65.7 62.6c3-3 3.8-4 3-4-.2 0-4.7 4.5-5.8 5.9-.6.9-.9 1.5-.6 1.5l3.4-3.4zm41 3.2-.3-.2h-.3c0 .2.1.4.3.4l.2-.2zm65-.5c0-.7-.6-1-1-.4-.2.4.1 1 .6 1 .3 0 .4-.2.4-.6zm-31 0c.5-.2.6-.7 1-4.3.4-3.6.5-5.2.2-5.4l-1.5.2a5 5 0 0 1-1.8.2l-.5-.1v1.5c0 .9 0 3-.2 5l-.1 3.4 1.2-.2 1.6-.3zm-36-.1.6-.3v-1.3l-.2-1.5c-.2 0-.7 0-1.2.3l-1 .5.1 1.2.2 1.3c0 .1.8 0 1.4-.2zm8.3-3.7c-.2-2.6-.4-3.5-1.3-6.1-1.1-3-1.3-3.4-1.5-3.2-.2.2 0 1.2 1 7.5.6 3.6 1.3 5.6 1.8 5v-3.2zm-6.4 2.4-.1-1.4c-.2-.7-.3-.8-.4-.4-.4 1-.3 2.3.1 2.3.2 0 .4-.3.4-.5zm-20-2.2-.3-.9v3.4l.3-.8c.2-.6.2-1.1 0-1.7zm85.2.5c.3-2.6.5-3.1 1-3.1.2 0 .3.2 0 1.4l-.1 2.3v1l.7-.2c1 0 1.5-.7 1.5-2.1l.3-3.1c.3-2.7.3-2.8-2.2-2.8h-2l-.2 2.6c-.3 4.6-.2 5.6.4 5.6.4 0 .5-.2.6-1.6zM101 63l1.2-.6v-1.1L102 60c-.1-.1-.7 0-1.3.4l-1.2.6v2.5l1.4-.5zm65.2-.8-.1.5v.4-.9zM49 62.6c.7-1.8-.7-5.6-2.9-7.9-1.5-1.6-3.3-2.2-6.4-2.4-2.7 0-3.7-.4-3.7-1.2 0-.3.2-.5.4-.5s.4-.2.4-.5c0-.6-3.1-2-3.6-1.6-.5.4-.5.9.2 1.8l1 1.3 1 1.8c.3.6.7 2 .9 3 .1 1 .4 2 .5 2.4.4 1 1.8 2.7 2.3 2.7.2 0 .6.1.9.4.5.5 1.7.7 4.3.7 1 0 2.1.2 2.4.4.3.2.9.3 1.3.3.5 0 .8-.2 1-.7zm-9.4-2c-.3-.3 0-.6.8-1 1-.5 1.4-.4 1.4.4 0 .4-.2.7-.6.8-.9.2-1.5.2-1.6-.1zm-1.1-1.4c-.8-.6-.3-1.2.9-1.1 1.2 0 1.4.7.4 1.2-.8.4-.7.4-1.3 0zm137.6-.4v-3l-.2 2c-.4 3.8-.3 6 0 4.7.2-.3.3-2 .2-3.7zm-71.7 2.7.8-.5v-3.3l-.1-3.5c-.4-.2-2.2.5-2.5 1v2.2c.2 1 .2 2 .1 2.5-.1 1 .1 2 .6 2l1-.4zm49.8-1.9c0-1-.1-1.8-.2-1.8a9 9 0 0 0-1 3.4c.2.1.4.3.7.3h.5zm5.6.7c0-1-.4-1.4-1.4-1.1-.6.1-.7.3-.7 1v1h2.1zm4-.4-.2-1h-.7c-1-.1-1.5.4-1.5 1.4v.6h2.4zm1.6.5c.4-.8.3-1.6-.3-1.6-.4 0-.5.2-.5 1 0 1.2.3 1.4.8.6zm-58.9-3.2a23 23 0 0 0 0-3.6h-.4c-.3.3-.4 7 0 7 .1 0 .3-1.5.4-3.4zm60 2.4-.1-.8-.2.8v.8l.3-.8zm-74.8-1.8c.2-2-.4-13.3-.7-13.7-.2-.1-.2 2.3-.2 5.7 0 9 .4 12.6.9 8zm10.2-.8c0-.9 0-1.6-.2-1.6l-1.1.4c-1.2.5-1.6 1.3-1.2 2.8.2 1.3.3 1.3 1.4.7l1-.6V57zm61.7.8c.4-.4 0-1.6-.6-1.6-1 0-1.3.3-1.3 1.2v1l.8-.2 1.1-.4zm1.9-.8c0-.7-.1-1-.4-1-.6-.1-.8.4-.6 1.3.2 1.1 1 .8 1-.3zm-64.7-1.8 1.1-.4-.1-2.2-.2-4.2c0-2.4-.2-2.6-1.9-1.9l-1 .5v1.6a180 180 0 0 1 .8 7l1.3-.4zm69.4-.3c.1-.2.3-4.5.2-6 0-.4-1.3-.5-3-.2l-1 .1v3c-.1 1.6 0 3 0 3.2.3.3 3.4.2 3.8-.1zm5-.2c.1-.1.2-1 .1-2l-.1-3.4V48l-1.7.1-2.1.4-.5.2v3c0 1.8.1 3.2.2 3.4.2.2 3.7 0 4.1-.3zm-70-1.6-.2-4v-4c.1-.8-.4-.9-1.7-.3l-1.3.6.2 4.3.3 4.6c.2.3 2.5-.7 2.6-1.2zm1.4-1c0-1.5.4-3.6.6-3.6.1 0 .2.9.2 2v2h.5c.5-.2.5 0 0-5.6-.4-3-.5-4.2-.2-4.7.2-.5.2-.7-.1-1.1-.7-.7-.6-2 .2-2.3l.7-.3-.2-2.1c-.2-3.3-.3-4.6-.5-4.8-.1-.3-2.4.4-2.9.8l.1 5 .5 7.8c.2 6 .4 7.8.8 7.8.2 0 .3-.3.3-.9zm-20.2-5.5a574 574 0 0 0-1.1-33c-.1-.9-.3-1.6-.4-1.6-.3 0-.5 3.8-.5 10v6.2l.6-.2.5-.2-.1 1a74 74 0 0 0 0 14.5 62.8 62.8 0 0 1 .2 8.6l.2.6.3-.5c.1-.3.3-2.4.3-5.4zm22.8 3.7c-.1-.2-.2-.2-.2.2 0 .2 0 .4.2.3v-.5zm60.8-2.5c.3-.1.4-.5.4-1.8 0-2.3-.1-2.4-2.2-2.1l-1.8.1v1.8l.2 2c.2.2 2.8.2 3.4 0zM100.4 45l.9-.5-.1-2.8-.3-5.3-.1-2.5-.9.2c-.4 0-1 .3-1.4.5l-.6.4.2 2a77.6 77.6 0 0 0 .5 6.5c-.1 2.1.3 2.5 1.8 1.5zm3.4-1.6 1-.5-.1-1.2-.4-5c0-2.1-.2-3.9-.4-4 0 0-.7.1-1.2.4l-1.1.6v3.6c0 5.1.2 6.7.7 6.7l1.5-.6zm43.9-4.3a1 1 0 0 0-.7 0h.7zm3.8-.7.5-.2h-.7l-1.1.2-.6.3h.7c.3 0 .9-.1 1.2-.3zm2.4-.7c.6-.6 0-.7-1 0l-.9.5h.7c.4 0 1-.2 1.2-.5zm3-2.3.8-.8c0-.2-1.8 1-1.8 1.3 0 .3.3.2 1-.5zm-89.3 135c-.6-.1-2-.2-3.3-.1-1.7 0-2.2 0-2.3-.3-.4-.9.4-1 4.3-1l3.8.2v.6c0 1-.6 1-2.5.6zM95 170c-1-.4-.5-.9 1.2-1 .9 0 2-.2 2.5-.3 1.2-.3 2.1-.3 2.1 0l-1.5 1c-1.5.6-3.1.8-4.3.3zm31.7-.6c-1-.1-1.6-.6-1.5-1 0-.2 1.3-.3 3.1-.2l5.2.1c1.7 0 2.1.2 2.2.5 0 .2 0 .5-.3.6-.4.3-7.2.3-8.7 0zm-86.4-.2c-.4-.1-.6-.4-.6-.7.1-.3.5-.4 2.8-.5 2.9 0 3.2.1 2.1 1-.6.5-3.2.7-4.3.2zm42-1.1c-.5-.6 0-1 .9-.8l2.2.3c.8.1 1.5.3 1.6.5.2.5-4.3.5-4.7 0zm-70-.2a107.4 107.4 0 0 1 21-17.7c.4 0-.2.6-1.4 1.5a111.3 111.3 0 0 0-9.6 7.7l-2 1.7-2.7 2.5c-2.1 2-5.1 4.6-5.3 4.6v-.3zm82-.8c-2-.3-2.8-1-1.8-1.5a5 5 0 0 1 2 0l3.8.3 2.2.2v-.6c.2-.5.4-.6 1.2-.7.8 0 1 0 1 .5 0 .3-.2.5-.6.5-.3 0-.5.1-.4.3l1.3.2c1.2 0 2 .4 1.7.8-.3.3-8 .4-10.3 0zm22.1-2.6c0-.7.3-.8 2.9-1 2.7-.3 3.2-.2 3.2.4 0 .8-1.3 1.1-3.9 1.1h-2.2zm17.7 0c0-.4 1.5-.8 3-.8 2 0 1.5.4-.8.8-1.6.3-2.2.3-2.2 0zm-46.2-.6c-1.4-.4-2-1.1-1.4-1.5.2-.2.7-.2 1-.2l4.3.4c2.1.2 4 .4 4 .6.2 0 0 .3-.2.6a24.5 24.5 0 0 1-7.8 0zm14.3-1.8c-1.6 0-2.3-.3-2.6-.6l-.5-.5.4-.2c.6-.4 3.5-.3 7.6 0 3.5.5 4.3.7 4 1.3-.3.3-4.9.3-8.9 0zm118-.6c-1.2-.3-2.7-.4-4.8-.5h-3v-.6c0-.8.2-.8 3.4-.7 1.8 0 6.4 1 6.8 1.4.2.1.1.3-.1.6-.3.3-.7.3-2.2-.2zm-83 0c0-.2.4-.4.8-.4s1-.3 1.3-.5c.6-.3 1-.4 2.3-.1 1.8.3 2 .4 1.7 1-.1.3-.7.3-3.2.3-2.4 0-3 0-3-.3zm-30-2.5c-.7-.1-.8-1 0-1.3l4.5-.1c3 0 4-.1 3.7-.3-.4-.4-.4-1 0-1l1 .5c1 1.3 1.6 1.5 5 1.3l3-.1 1.5-1.4 1.4-1.3-1.6-.3c-.9-.2-1.7-.4-1.7-.6-.4-.6.2-.7 1.6-.3 2.2.5 3.3.4 5-.4 1.3-.6 1.6-.6 2.4-.4l2.3.4c1 0 1.3 0 1.8-.6l.5-.8c0-.2-1.5-.7-2.7-1-.8 0-1-.2-1-.5.2-1 3-.6 4.4.4.7.5.8 1 .2 1.4a4 4 0 0 0-.8 1.2l-.4 1-1.8-.3c-1 0-2-.2-2.5-.4-.6-.1-1.2 0-3.2 1-2.3 1-3.6 2-4.3 3.2-.2.4-.6.4-2.7.4-1.4 0-3 .1-3.6.3-.8.2-1.1.1-2-.4l-1.2-.7-.3.5-.3.5H112a38.4 38.4 0 0 0-4.8.1zm-24.8-1.3c-.3-.7.3-1 2-.8 1.7 0 2.5.6 1.3.8-2 .4-3.2.4-3.3 0zm15 0c-.3-.2-2.1-.4-4.1-.4-4.5 0-4.9-.1-5-.8-.2-.4-.5-.5-1.7-.5-1.5 0-3.3-.6-3.2-1.1 0-.2.4-.3.6-.3l2.3.3a51.2 51.2 0 0 0 11.8.8h9.6c.4 0 1 .2 1.2.4 1 .8 0 1-4 1.3-2.2 0-4.7.2-5.5.3h-2zM7.3 153c.3-.6 2-2.1 2.3-2.1l2.1-1.3c6-4 7.7-5 8.2-5 .4.2 3.9-1.8 5.6-3.1.8-.6.3-.8-1.3-.3l-2.3.4-3 .4c-1.7.3-2.2.5-2.8 1.2-.3.4-2 1.6-3.7 2.6a52 52 0 0 0-3.7 2.5c-1.2 1.1-2.7 1.8-3.3 1.5-.4-.1-.6-.3-.6-.5a45.6 45.6 0 0 0 4.1-3l3.6-2.3c1.2-.9 2.9-1.9 3.7-2.2.8-.4 1.5-1 1.6-1.2.1-.4.5-.5 2.6-.6 2.6-.2 5-.7 8.6-2 2.1-.8 3-.8 2 0l-.3.7c0 .3-.4.8-1 1.1a164.5 164.5 0 0 0-7 4.5l-3.5 2.4c-3.7 2.5-3.3 2.3-6.1 4-2 1.4-5.4 3.1-6 3.1l.2-.8zm4-2.1v-.3l-.3.3c-.1.1 0 .3.1.3.2 0 .3-.2.3-.3zm3.3-2.2c1.3-1.2 1-1-1 .3-1.8 1.3-2 1.4-1 1a8 8 0 0 0 2-1.3zm2.2-1.4c.3-.2.4-.4.2-.4l-.7.4c-.3.2-.4.4-.3.4l.8-.4zm96.2 6c-1.1-.1-2-.6-2.2-1-.3-.5.2-.6 1.6-.3 1.4.3 2.3.9 2 1.3-.1.2-.3.2-1.4 0zm-13.9-.2c-.4-.4 0-.6 1.7-.8 1.6-.1 2-.3 3-1 1-1 1.8-1.1 2-.5 0 .2-.2.5-.6.6-.3.1-.7.3-.7.5l-1.2.8c-1.1.6-3.7.8-4.2.4zm19-2.2c-.6-.3-.2-.7 1-1 .5 0 2.2-.7 3.7-1.4l2.6-1.4h2c1.2-.1 2.9 0 3.8.1 1.8.4 2.8.2 5.1-1 .7-.3 1.8-.7 2.5-.8l1.2-.1.1.5c.2.7.8.8 3 .9 1.7 0 2.4.4 2 1.2 0 .3 0 .4.9.2.5 0 1.2-.2 1.4-.3.7-.2 1 .7.4 1.1a8 8 0 0 1-2.2.7c-1 .1-2.4.6-3.1 1-1.6.6-2 .7-2 .2 0-.6 1.3-1.5 2.9-2l1.5-.4-1.4-.3c-.7-.2-2.1-.4-3.2-.4s-2-.1-2-.3c0-.4-1-.3-2 .3a8.1 8.1 0 0 1-4.6 1c-.6-.2-2.3-.3-3.6-.3-2.6 0-4.2.3-5.4 1.3a13 13 0 0 1-3.9 1.4c-.2 0-.6 0-.8-.2zm26.8-.5c.4-.5 8-2 8.4-1.7.1.2 0 .5-.5.7-.5.4-1.3.5-3 .6l-3 .2c-1.9.5-2.2.5-1.9.2zm12.8-.6c0-.3 5.2-2 5.7-1.7l.4.2-.4.4c-.3.3-.7.5-1 .4-.2 0-1.3.1-2.3.4-2 .7-2.4.7-2.4.3zm-114.8-.7c0-.1.7-.9 1.6-1.7 2.4-2 2.9-2.4 3-2.2.2 0-.5.9-1.5 1.7-1.8 1.7-3.1 2.6-3.1 2.2zm61.9-.4c0-.4.4-.4 2.6-.5h2.8c.3.5-.6.7-3 .8-2 0-2.4 0-2.4-.3zM3.7 146.8c0-.2 1.4-1.2 3.1-2.2 3.8-2.4 5.7-3.8 6-4.6 1.3-3.6 2.6-5.8 4-6.9l1.5-1c.2 0-.3.7-1 1.5-.8.9-1.5 1.8-1.6 2.1-.3 1.1.1 2.4.9 2.7.8.4.7 1-.2 1-.4-.1-.8 0-1.1.5a35 35 0 0 1-6.2 4.3l-1.6 1.1-.8.6-.8.4c-.6.7-2.2 1-2.2.5zm36.8-.1c0-.3 9-7.3 9.8-7.7.1 0 .2.1.2.3 0 .2-1 1.1-2.1 2a469 469 0 0 0-4.9 3.6c-2.5 2-3 2.3-3 1.8zm106.7 0c-.3-.7.5-1.3 1.9-1.4 1.4-.1 2.1.2 1.8.9-.2.6-3.3 1-3.7.5zm-35.5-.3c-.3-.2-.3-.3 0-.7.4-.5 4.5-.6 4.5 0 0 .2-.3.5-.6.7a8 8 0 0 1-4 0zm-72.5-.4a85.6 85.6 0 0 1 13.2-10.7c.4-.4.8-.4.8 0 0 .3-.5.8-1.2 1.1a84.8 84.8 0 0 0-11.1 8.7c-1.4 1.3-1.7 1.5-1.7 1zm82.1-2.1c-.7-.5-1.4-1-1.6-1-.5 0-.5-.3 0-.7.4-.3 1.5.2 2.4 1 .6.6 1.8.7 2.1.3 0-.1 1.4-.3 3-.4 2.1-.2 3-.1 4 .2.7.3 1.5.4 1.7.3.6-.4 1.4-1 2.2-2 .8-.7 1.1-.9 2.5-1 6.2-.9 8.8-1 11.2-.7h2.3c.9-.4 1.3 0 .7.6-.2.3-.9.4-3.2.3-6.6-.1-8.6 0-9.1.5-.3.3-1.2.6-2.1.8-1.3.2-2 .5-2.9 1.2-1.6 1.4-2 1.5-3.7 1-2-.8-3.3-.7-7.6.4-.4 0-1-.2-1.9-.8zm19.6.2c-.2-.5.6-.7 3.2-.8 1.7-.1 2.5 0 2.5.1 0 .4-.6.5-3.2.8l-2.5-.1zm-47.2-.4c0-.2 1-.5 2-.6l3-.8c1.2-.5 1.8-.3 1 .3-1.4 1-6.2 1.9-6 1zm12.3-.2c-.3-.5 0-.6 1.6-.7 1.9-.2 2.7 0 2.7.6 0 .3-.4.3-2 .3-1.3 0-2.2 0-2.3-.2zm-5.2-2.3-2-1c-.4-.1-.6-.3-.6-.5.2-.6 1-.5 2.3.3a8 8 0 0 0 1.6.8l.5.4c.3.3.2.4 0 .6-.3.3-.7.1-1.8-.6zm77 0c-.5-.4-.2-.9.4-.9 1 0 1.1-.7.4-1.6-.7-1-.7-1.6.2-2.4 1.1-1.1 2-1 2.6.2.5 1.3.5 1.4-.4 1.6-.7.1-.8.2-.5.5.3.4 2.5.5 3.6.2 1.2-.3 1-1.5-.5-1.8-.8-.2-1.4-1-.8-1.1.2 0 .3-.3.3-.5s.4-.6 1-.8c1-.4 1.1-1 .3-1.3-.3 0-.5-.3-.5-.5 0-.5.1-.5 1.4-.8.5-.1.8-.5 1.2-1.3.3-.6.5-1.1.4-1.2l-1.4-.6c-1.3-.4-1.9-1.3-.9-1.3.3 0 .7-.1.7-.3.3-.3 2-1 3-1.3.8 0 1-.3 1.1-.7v-.7l1.1.2 1 .2.6-1c.4-.6.5-1.1.4-1.7v-.9c.2 0 .3-.4.2-.7-.2-.7.6-1 1.7-.4 1 .5 1.1 1.2.3 2-.4.2-.8 1.1-1.1 2.4l-.5 1.9-1 .6-1 .7-1.4-.2c-2.4-.4-3.8.1-2.5.8 1 .5 1.7 1.1 1.7 1.5.2.7-1 3-1.9 3.3-.5.2-.7.4-.7.8s.1.7.3.7a1032.6 1032.6 0 0 0 28.6 0h7l.2.5c.3 1.1 1.4 1-16.6.8a3025.9 3025.9 0 0 0-20.6-.4l-.7-.2.8.7c.5.5.7.9.7 1.8 0 1.8-.5 2.3-2.3 2.3-.9 0-1.8.2-2 .4-.7.4-3.7.8-4 .5zm-73-.6c-.5-.3-.5-.4 2.2-1 3-.9 4.4-1 4.7-.7.5.5-.3 1.2-1 1-.7-.1-3.6.3-5.1.8l-.8-.1zm50 0c-.1-.4.4-.8 1.7-1.1l2.5-.8c1.7-.7 3-.8 3.1-.3 0 .2-.2.4-.6.5-.4 0-2 .5-3.6 1-1.8.6-3 .8-3 .6zM2.6 139c-.2-.4-.3-.3 1.6-1.3l4.9-2.9c5.6-3.3 6.2-3.7 8-4.5 1.7-.8 2.8-1 2.8-.6 0 .3-.5.6-1.1.7-1.2.1-2 .6-2 1.1 0 .6-.5.9-1.7.9-.7 0-2.2.9-3 1.7-.3.4-5.5 3.3-8.1 4.5-.8.4-1.3.5-1.4.4zm164.2-.5.4-.6c.2-.2.4-.5.4-.8 0-.6.4-.6.8 0 .1.3.1.6-.2 1-.4.6-1.4.8-1.4.4zm-49.9-.2c-.6-.7.3-1 4.3-1.7 3.5-.6 4.3-.6 4.3 0 0 .3-1.1.6-3.6 1a134.4 134.4 0 0 0-5 .7zm12.3-.3c-1.3-.2-2.6-.6-2.6-1 0-.2.6-.3 2.2-.3h2.3l.8-.7c.6-.6 1.1-.7 2.2-.8h2.3c.5 0 1.8.1 2.8.4 1.1.2 2.1.4 2.2.3.5-.3 1.3.2 1.3.7-.2.6-2 .8-3.3.3a18 18 0 0 0-3.5-.5l-2.3-.1-1 .8c-.8.7-2 1-3.4.9zM2.4 136.6c0-.4 3-2.7 4.6-3.4A280.8 280.8 0 0 0 32.3 118c1-.6 1.7-1 1.9-.8.4.4 0 1.1-1 1.4-.4 0-2 1-3.6 2a74 74 0 0 1-6.5 4l-1 .6c-.1 0-1 .5-1.8 1.2-1 .6-2 1.3-2.6 1.5a78.3 78.3 0 0 0-8 4.7c-.3 0-5.6 3.3-6.1 3.8-.6.5-1.2.6-1.2.2zm168.5 0c-.3 0-.7-.4-.7-.6l-.1-.5h2c1.6 0 2.3 0 2.5-.4.7-.8 1.4-.3 1.1.9 0 .4-.3.6-1.3.7a9 9 0 0 1-3.5 0zm-77.6-1.3c-.5 0-1.4-.2-2.2-.5l-1.3-.4-1.5.4-2 .5c-1 0-.5-.6.6-1l2.2-.6 1.1-.4 1.3.6c1.4.7 2.6.7 5 0 2-.6 3.8-.6 3.8-.1s-.6.7-1.8.7l-2.7.4c-1 .3-2.1.5-2.5.4zm33.6 0c-.4-.6.7-1 5.7-1.7.6-.1 1-.3 1-.4 0-.4-3.9-1-5.3-.7-1 .1-1.3 0-1.3-.3 0-1.2 4-1.3 7.4-.1l1.6.6.3-.4c.2-.3 1-.6 1.8-.9 2.8-.8 2.7-.8 2.6 0 0 .4-.4.7-1.6 1-1 .4-1.7.8-2 1.3-.3.5-.7.8-1.4.9h-1.3l-3.4.4c-3.8.6-4 .6-4.1.3zm18.8 0-.2-.6v-.5h2.7l2.7.2v1h-2.5a11 11 0 0 1-2.7 0zm32.3-.2c-.4-.4-.1-.9.8-1.3 1-.4 1.6-.3 1.6.3s-2 1.5-2.4 1zm-39-.3c-.2 0-.4-.3-.4-.6v-.6l1.3.2c1.4.2 1.5.2 1.3.8-.2.4-1.5.5-2.2.2zm20.2 0-.2-.7v-.5l1.3.2c1.4.2 1.5.2 1.3.8-.2.4-2 .6-2.4.2zm-46.6-.2c-.2-.3.6-1.2 1.2-1.2l2-.5c1-.3 1.7-.4 1.8-.2.2.2-.7.6-2.8 1.3l-1.6.6h-.6zm6-.5c-.3-.7.2-1 2.3-1 1.7 0 2.1.1 2.1.4 0 .6-.1.6-2.3.8-1.6.2-2 .2-2-.2zm-16.5-.3c0-.8 1.6-1.5 2.8-1.3.6 0 1 .1 1.1.2.3.3-.5 1-1.4 1l-1.7.4c-.7.2-.8.1-.8-.3zm48.8-.2c0-.4.3-.6.8-.7.8 0 1 .6.2 1-.8.5-1.1.4-1-.3zm-3.7-2a7 7 0 0 1-1.2-.7l-.7-.4-.7.4c-1 .6-2.5.6-2.5 0 0-.7.8-1 3-1.6l1.5-.3.8.8.7.8 1.3-.3a26 26 0 0 0 2-.6c.5-.2 1-.1 2 .3.9.3 1.8.4 2 .3 1-.2 2 .2 2 .7 0 .7-.5.8-3.5.7a21 21 0 0 0-5 0h-1.7zm20.4-.4c-.3-.3-1-.4-2-.4-1.6 0-2.2-.3-2-1 .1-.3.6-.3 2-.3 1.5 0 2 0 2.8.6.8.6 1 .8.7 1.1-.4.5-.8.5-1.5 0zm-71.4-.7-1.4-.2c-.6 0-.9-.2-.9-.5v-.4l2 .2c1.2 0 2.1.2 2.2.2 0 .1 0 .4-.2.6-.4.4-1 .5-1.7.1zm75.4 0c-.2-.3.5-.7 2-1l1.4-.6c.3-.4.7-.3.7.3 0 1-3.6 2.2-4.1 1.3zm-13-.3.1-.7c.5-.8 4.3-1.2 4.3-.5 0 .3-.1.5-.3.6l-3.9 1-.1-.4zM21 130a22 22 0 0 1 4.8-2.4c1.6-.5 2.8-.3 2.2.4-.1.2-.5.4-.7.4l-.7.2c-.2.2-5.1 1.7-5.6 1.7v-.3zm94.5-1.9c-.6-.5-1-.5-2.6-.4-1 0-2.2.2-2.6.3-1 .2-1-.2-.2-.7 1-.5 4.8-.6 5.7-.2l.8.5 1.3-.6 2.7-.9c.9-.1 1.9-.4 2.3-.6 1-.2 2 0 2 .6-.1.2-1.1.4-2.4.6-2.1.3-5.2 1.3-5.4 1.7-.3.4-.8.3-1.6-.3zm61.7.4-1.9-.2c-1.8-.1-2.5-.4-2.5-1.2 0-.3.3-.3 2.4-.2 4.1.3 4.8.6 3.9 1.4-.3.4-1.6.5-1.9.2zm-157.6-.3c0-.2 4.1-2.6 5.1-3 .3-.2 1-.5 1.4-.9l2.3-1.5c1-.4 2.1-1.1 2.7-1.5.8-.4 1.2-.5 1.3-.3.1.2.2.3.1.4l-1.4.8a63 63 0 0 0-6 3.7l-2.9 1.6c-1.3.8-2.6 1.2-2.6.7zm-17.4-.9c-.3-.5.2-1.2 1.7-2.1l3-2c4.5-3 5.3-3.4 5.3-2.7a29 29 0 0 1-5.6 4.4l-2.5 1.7c-1.3 1-1.6 1.2-1.9.7zm146.5-.2-1.3-.4c-.4-.2-.4-.9 0-1 .5-.2 4.8 1 5 1.3 0 .4-2.1.4-3.7.1zm8-1.3c0-1 2.7-1.5 9-1.5h4.5l.1.4c.2.6-.6.8-5.7.9-2.4 0-5.2.2-6.2.3-1.2.1-1.8.1-1.8-.1zm-61.9-.6c-.3-.5.3-.8 2.3-1.3 1.6-.4 2-.5 2-1 0-.4.3-.5 1.6-.7 1.5-.2 5 0 5.4.3.2 0 .2.3 0 .5-.2.3-1 .3-3.3.2l-3-.1-.4.7c-.5 1-4 2.2-4.6 1.4zm-92.7-.9c0-.3 2.4-2 6.2-4.1 3-1.7 3.4-2 4-2.6l.5-.5-.9-.2c-.4-.1-1.2 0-1.6 0-.5.2-1.8.4-2.9.4-1.7.1-2 0-2-.3-.2-.8.8-1 4.4-1 4.2.1 4.3.2 4 2.5 0 1.5-.4 2.2-.8 2.2v-.9c0-1.1-.5-1.3-1.4-.3a3 3 0 0 1-1.2.8 3 3 0 0 0-1.2.6l-2.5 1.5c-1.1.6-2.5 1.3-3 1.7-1.2.7-1.6.7-1.6.2zm102.7 0c0-.5.3-.6 2.6-.6h2l-.2.4c0 .4-.4.5-2.2.5-1.8.1-2.2 0-2.2-.3zm74.7.1v-.5c.5-.4 2-1.3 3.4-2l1.2-.5-1.5-.8a5.4 5.4 0 0 1-1.8-1.5c-.4-.7-1.4-1-5.3-1.4-1-.1-1.7-.3-1.7-.4 0-.5 1.2-.5 4-.1 4.4.6 4.3.5 4 1.2 0 .5.2.7 1.7 1.5 2 1 2.3 1.4 2.2 2.2 0 .5-.3.6-1.2.8-.6 0-1.6.4-2.2.8-1.3.9-2.5 1.2-2.8.7zm-27.4-.7c0-.4.7-.7 2.6-1.2 3.2-.9 4-1 4.2-.5.2.4-.3.9-.8.7a30 30 0 0 0-5.4 1c-.3.2-.6.2-.6 0zm34.6 0c-.4-.4-.1-.6.6-.6.6 0 .8.1.8.4 0 .4-1 .6-1.4.2zm-21.3-2.2c.5-1.2 1-1.7 1-1 0 .8-.8 2-1.2 2-.3 0-.2-.1.2-1zm6.8-.6c0-.3.4-.5.8-.6.4 0 1-.3 1.5-.4.8-.3 1.4 0 .9.5-.5.3-2 .9-2.7.9-.2 0-.5-.2-.5-.4zm6 0-.5-.4.8-.4 1.4-.4c.8 0 .7.9-.1 1.2-.9.4-1 .4-1.6 0zm-68.7-.1c-.8-.1-1-.7-.4-1a22 22 0 0 1 6 .5c0 .2-.2.4-.4.5-.5.2-4 .2-5.2 0zm-90-1.6v-1c0-.4 0-.6-.4-.7l-.6-.2v-2.5c0-1.4.1-2.8.3-3v-1.5c-.2-.9-.2-1-.2-.3 0 .4-.2 1-.4 1.3l-.3.5-.3-.4-.3-.5-1.6.7-2 1.2a9 9 0 0 1-2 1L9.4 115c-1 .6-2 .6-1.7 0 .1-.5 0-.6-.4-.5-.6.2-.5 0 .3-.7 1.3-1.2 6.8-4.5 7-4.3.5.2.1.9-.5 1-.6.3-4.5 2.5-5.3 3.2l-.6.4 1-.1c.9-.2 2.1-.8 5.3-2.6 1.8-1 1.9-1 1.5-1.9-.3-.6-.5-.7-1-.6-.9.2-1.3 0-1.3-.7v-.5l1 .2c.8 0 1.5.4 2 .9.4.4.8.6 1 .4.4-.5.7-5 .6-11 0-5.7 0-7 .6-6.5 0 .1.2 3.6.2 7.7.1 7.8.3 11.3.6 11.3s.5-2.8.7-8.6l.2-3.7-.4.8-.4.8v-1c0-2.4.7-3.9 1.2-2.2.1.7-.1 9.3-.4 12.3l-.1 5.5c0 3.9-.2 5-.7 5-.2 0-.3-.1-.4-.4zm88-1.3c0-.4.2-.6 1.3-.7 2.5-.3 4-.2 4 .2 0 .6-.2.6-3 .8l-2.4.2zm77.2.3c-.7-.2-.7-.6 0-.6.5 0 .5-.1.3-.4-.5-.5.1-1 1.3-1l2.2.4c.8.2 1.9.4 2.6.4.7 0 1.3.1 1.4.3.3.5-.7.8-2.3.7l-3.3.1h-2.2zm-16.8-.5-2-.4-2-.1v-.6c0-.4.2-.5.7-.6.6 0 .7-.2.8-1l.1-.8h1c1 .1 1.2 0 1.4-.6.4-.8.2-1.1-.3-.5-.2.3-.7.5-1 .6h-.8v-1c0-1 0-1.3-.6-1.8-.6-.6-.8-1.4-.4-1.7.2 0 .3-1 .3-2v-1.9l.5.1c.3 0 .5.5.6 1.4 0 .8.4 1.9.6 2.5.2.7.4 1.4.3 1.7-.2.4.7.6 4.4.8 1 0 1.1.1 1.1.6 0 .4-.2.6-1.3.8-1.1.1-1.4.3-1.4.7 0 .6 0 .6.9.2.4-.1.7-.1.8 0 .2.4-.4 1-1 1-.4 0-.4.2-.3.8.2 1.2-.3 2-1.3 2l-1-.2zm-8.9-.6c0-.5.3-.6 1.4-.7 2-.3 2.7-.2 2.7.5v.5l-2 .1h-2zm34.7-1.5-.3-.6c0-.2-.3-.5-.7-.8-.7-.5-.8-1.2-.1-1.8.3-.2.6-.7.7-1 .1-.6.3-.7 1.2-.7 1.4 0 1.5-.4.4-1-.7-.5-1-.8-1-1.2.2-1 1-.8 2.3.4 1.7 1.6 1.6 2.1-.8 3.3-1.7.9-1.8 1-1 2 .7.8 0 2.2-.7 1.4zm-32.2-.2c-.2-.4.4-1 1.1-1 1 0 1.4.3 1.4.8 0 .4-.2.5-1.1.5-.7 0-1.3-.1-1.4-.3zm-2-2c-.7-.2-1-.6-1.9-2-.6-1.3-1-2.2-.9-2.8.1-1.5.7-1.3 1.4.5.8 1.8 1.2 2 1.2.7 0-1.8.6-1.4 1.5 1l.1.5.3-.8.5-.9c.4 0 .5.6.2 2.1-.4 1.8-.9 2.2-2.4 1.7zm-157.1-.6c0-.4.2-.5.6-.5.9 0 1.1.4.5.7-.8.5-1.1.4-1.1-.2zm179.4 0c-2 0-1.7-.6.4-.8 2 0 3.2.2 3.4.7.1.4-.3.4-3.8.2zm4.8-.6c.1-.5 3.4-2 4.5-2.2.8-.2 1-.1 1 .2 0 .3-.4.5-1 .6-.6 0-1.7.5-2.6 1-1.7.8-2 .9-2 .4zm-182-.2c-.2-.4 1.7-2.4 2.4-2.3.7 0 .8.6 0 .8l-1.3 1c-.5.5-1 .7-1 .5zm169-.4c-.3-.3-.2-.5.2-.9l.7-1c.2-.7.8-.8 2-.5l1.8.5 1 .2-.4-.4c-.6-.7 0-1.1 1.7-1 2.8.2 3.3.3 3.3.9 0 .2-.2.5-.4.5-.1 0-.5.2-.7.5-.4.4-.7.4-1.7.3-.8 0-1.5 0-2 .3-.6.3-1.8.6-2.8.7-2.3.4-2.3.4-2.7 0zm-150-1.7.4-10.7c0-4.9.3-8.9.4-8.9.1 0 .2 2.5.2 5.6.1 9.3.2 13.3.4 14 .1.5 0 .9-.4 1.3-1 1-1.1.7-1-1.3zm-21.2.3a25 25 0 0 1 4.8-3c.8-.2 1.2 0 .7.5l-5.4 2.7-.1-.2zm117.5-1.6c0-.6 1.8-1.5 2.2-1.1.2.2 0 .5-.5 1-.9.7-1.7.8-1.7.1zm-108.2-1c-1-.9-1.1-1.2-1-1.5.4-.3 1.7.6 2.3 1.6.6 1.1-.1 1-1.3-.1zm150 .6c-.1-.5 1.3-3.9 1.7-3.9.6 0 .4 1.4-.3 2.9-.6 1.4-1 1.7-1.3 1zm37 0a393.2 393.2 0 0 1-5.4-1.5h-2.4c-1 0-1.7 0-1.8-.2-.5-.7 2.7-1.3 4.2-.8l3.2.9c2.4.5 3 .8 3 1.5 0 .5-.3.6-.8.1zm-197-.2c-.2-.3 0-.8.5-.8A286.7 286.7 0 0 1 12 102c2.3-1.2 3-1.7 3-2 0-.7 0-.7-.9-.2l-1.1.4c-.3 0-.6 0-.7.2l-4.5 2.4-5 2.7c-1 .6-1.5.3-.7-.3.4-.4 8-4.4 11-6 2.2-1 2.2-1.4.3-1.4-1.4 0-2-.3-1.5-.6.1-.1.2-.6.1-1l-.2-.8h1c.5 0 1 .2 1.1.4l.9.7c1 .5 1.4 1.4 1.4 3v1.6l-1.1.6a4285.4 4285.4 0 0 0-13 6.7l-.4-.3zm8.3 0c-.5-.5-.6-1.3-.2-1.3.2 0 1.6 1.2 1.6 1.5 0 .2-1 0-1.4-.3zm151.3-3.2.1-.8c.2-.3.4-1.2.4-2 .2-1.4.4-1.8 1-1.5.3.2.1 3-.4 3.8-.4.6-1 .9-1.1.5zm2.5-1.6.2-.9a19.6 19.6 0 0 0 2.3-10l.1-1.7c.6 0 .9 1.5.8 4-.1 2.1 0 2.8.3 3 .8.7.2 4-.9 4.3-.5.1-.6-.6 0-1.5.4-.7.5-2.4.1-2l-.7 1.6a63.8 63.8 0 0 1-1.1 3c-.4 1-1.1 1-1.1.2zm30.5.2-1-.3c-.4 0-.7-.3-.7-.5 0-.5 2-.6 3-.1.7.2.7.3.5.6-.3.4-1.1.5-1.8.3zm-192-1.8.3-.6c.2 0 .2-.4.1-.8l-.1-.7h.9c1.7.2 2.1 0 3-.9l1-1-.4-.3c-.2-.3-1.5-.7-2.9-1-2.4-.4-3-.8-2.6-1.4.4-.5 1.1-.4 2.8.3l1.8.7c.7 0 1.7 1 1.7 1.8 0 1 0 1 1.2.4.6-.2 1-.3 1.1-.1 0 .1-.2.4-.6.5a15 15 0 0 0-4.1 2.1 5 5 0 0 1-2.5 1.2c-.4.2-.6 0-.6-.2zm157.2-1.6-.4-3c-.1-1.3.2-2 .7-1.5.5.4 1 4.8.8 5.5-.5 1.2-1 .8-1.1-1zm31.1 1c-2-.3-2.5-.4-2.5-.8 0-.2.3-.4.6-.5.5-.1 4.7.3 5 .5l-.1.5c-.2.4-1 .5-3 .3zm-35.4-2.5c-1-2.7-1.4-3.8-2.2-4.8-.5-.7-.9-1.5-.9-1.7 0-.6 1-.5 1.4.2l.4.6.2-.4c.1-.3 0-1-.3-1.5-.7-1.4-3.7-3-5.7-3-1 0-1.3 0-1.3-.4s.3-.4 1.5-.3c2 .2 4.6 1.5 5.5 2.6.9 1.2 1.4 3 1 3.5-.2.3 0 .8.5 2.3a8 8 0 0 1 .8 2.4c-.1.7-.7 1-1 .5zm37.5-.7c-.2-.5-.1-.6 1-.8 1.2-.1 1.8.3 1.3.9-.5.5-2.1.4-2.3 0zM120 95.2c0-1.8.4-3.5 1-3.8l1.3-.2c.6 0 1.4-.1 2-.5.5-.3 1-.4 1.1-.3.3.3-1.1 1.4-3 2.6-1.2.7-1.5 1-1.7 1.7v1s.6 0 1.2-.3c1-.3 1.1-.5 1-.9 0-.4 0-.5.5-.5.3 0 .5.2.5.4 0 .3.2.3.7.1l1.2-.2c.6 0 .7.5.2.6a364 364 0 0 0-5.9 1.7l-.1-1.4zm29.6.3c-.3-.5-1-1.2-1.6-1.6-1-.7-1.3-1-.8-1.4.6-.3 1.5.2 3 1.6l1.5 1.4-.6.4c-.8.6-.8.6-1.5-.4zm-5.3-.7c-2.6-.9-2.9-1-2.3-1.5.4-.3.7-.2 1.6 0 .5.3 1.2.4 1.5.4.7 0 2 1.2 1.7 1.6-.2.4 0 .4-2.5-.5zm-15.2 0c-.4-.3 0-.8 1.1-1.5 1.7-1 4.9-2.1 6.8-2.4.9 0 1.8-.3 2.1-.5.9-.6 3.8-.5 4.9.2 1.4.8 1 2-.5 1.2-1-.6-4.4-.6-4.9 0l-2 .6c-2.2.4-5.2 1.5-6.1 2.1-.8.6-1 .7-1.4.4zm-3.3-2.3c0-.2 2-1 4.3-2 .4 0 .7-.3.6-.4 0 0-.5 0-1 .3-1.2.5-2.3.6-1.9.2a49 49 0 0 1 13.3-3.9c.3.3-.4.6-2 1-1.8.3-5.3 1.2-6.1 1.6-.7.2-.8 1-.2 1l2.4-.4c1.8-.4 2.6-.4 2.1 0 0 .1-1.5.5-3.3.8a49.5 49.5 0 0 0-6.4 1.6 9 9 0 0 0-1.3.3l-.5-.1zm51.5-.2c-.2-.5.3-1 .8-.8.5.3.4 1.2-.2 1.2-.2 0-.5-.2-.6-.4zm-160.3-.5v-5.1c-.2-4-.1-4.9.2-4.9.6 0 .7 1 .6 5.7 0 3.3-.2 4.5-.4 4.6-.2 0-.4 0-.4-.3zm138.6.2v-.6c.4-.7-1.2-3-2-3-.3 0-.5-.3-.5-.7v-1.2c0-.5-3-2-4-2-.6 0-1-.5-.6-.8.4-.3 1.8 0 2.2.4.1.2.4.4.6.4.6 0 2.5 1.6 2.7 2.2 0 .4.4 1 .7 1.3 1.3 1.5 2 2.7 2 3.3-.1.7-.7 1-1 .7zm-32-3s-.1-.5 0-.8c0-.5 0-.7.6-.8.3 0 .5 0 .4.2-.3.5 3.4.1 5.4-.6a90.7 90.7 0 0 1 11.4-2.8c0 .2-.3.4-.7.5l-.8.1.9.2h2c.7-.3 1.4-.3 2.3 0l2.3.4c1.2.2 2 .7 1.4 1-.1.1-.4.2-.5 0L146 86c-1.7-.3-2.3-.4-3 0-.8.1-1.3.2-1.8 0-.4-.2-1.1-.2-1.5-.2-.5.1-.7 0-.7-.3s-.1-.4-.5-.3l-2.1.6-5.3 1.6a48.2 48.2 0 0 1-7.5 1.8zm10.7-1.7c0-.3.4-.7.7-.9.8-.4 3.2-.5 3.2 0 0 .3-1 .7-1.7.7a4 4 0 0 0-1.5.4l-.8.5zm79.8-2c0-.3 4.5-.7 4.7-.5v.5c-.2.3-4.7.3-4.7 0zM2.8 80.9c-.3-.4-.1-1 .4-1 .3 0 .5 0 .5-.3 0-.2.2-.6.5-.8.6-.5.9-.6 3-.6.7 0 1-.2.9-.3-.2-.2-1.8-.3-3.6-.4-2 0-3.3-.1-3.2-.3 0-.3 14.1-.2 16.3 0l1.3.3v.8c0 .5 0 1-.3 1.2-.2.1-1.8.3-3.7.4-3.2 0-6.2.3-9.8.9-1.9.3-2 .3-2.3 0zm7.3-1.9c1.2 0 2.4-.3 2.6-.4.2-.1-.7-.2-2.4 0-4.8.3-4.6.2-4.3.6 0 .2.5.2 1 .2l3-.4zm5.4-.5H15c-.2 0-.1.1.2.1.3 0 .4 0 .3-.1zm5.8 1.7c-.2-.3 1.3-1.8 1.8-1.8.1 0 1.2-.4 2.3-1 2.3-1 2.6-1 2.6-.4s-.8 1.2-2.5 1.8c-.7.3-1.5.7-1.8 1-.7.5-2.2.8-2.4.4zm122.4-3.3c-1.2-.8-1.4-1.2-.5-1.1.8 0 1.9.8 1.8 1.4l-.1.4zm62.7-4.4c0-.4.7-.6 4-.9 1 0 2.1-.3 2.4-.4h.6c0 .2 1.3.3 2.7.3 1.4 0 2.6 0 2.8.2.4.5 0 .5-4.2.7l-6 .3c-2 .2-2.3.2-2.3-.2zM6 71.6c-.5-.3-1-.4-2.2-.2l-1.5-.1c0-.3 1.3-.6 2.9-.6 1.8 0 5-.6 5-1 .1 0-.6-.2-1.6-.2-3.9-.2-3.8-.8.1-.7 5.2.1 9 .4 8.8.7-.1.1-1 .2-2 0-1.3 0-2 0-3.2.4l-2 .5c-1.1 0-2.8.6-2.5.8H10a221.6 221.6 0 0 1 11-.6c0 .4-.3.6-2 .6-2.1 0-9.6.6-11 .7-1 .1-1.5 0-2-.3zm137.3-2a79 79 0 0 0 3.7-20.8c.4-6.5.5-7.4 1-7.4s.5.6.3 4.3a141.8 141.8 0 0 1-3.4 22.8c0 1.3-.3 1.7-1 1.7-.4 0-.6-.2-.6-.6zm-123.8-.2h-1.2l2.4-.4c1.3-.2 2.5-.2 2.6-.1.5.4-1.7.7-3.8.5zM16 67.8c-.2-.1-.3-.3-.2-.3.2-.3 6.3-.4 6.3-.2 0 .3-.7.4-3.4.6H16zm169-1.8c-.4-.7.8-1 5.2-1 3.8-.1 4.4-.1 4.4.2 0 .6-.9.7-5.7 1-2.4 0-3.8 0-3.9-.2zM8.6 60.7c-.7-.8-.8-3.8-.3-6.4.2-1.3.5-4.6.6-7.6l.1-5.4-.8.2-2.2.2H4.8l-.2-10.1C4.3 12 4.3 7 4.8 7c.3 0 .4.6.5 3.2 0 1.7.2 3.3.3 3.5.1.1 0 1.7-.1 3.4-.3 1.7-.4 3.5-.3 4l.2 8c.2 6.2.2 8 .5 11 0 .3.2.5.6.4.8-.1 1-.5.6-1l-.5-.6.3-3.1c.4-3.9.4-4.3.8-4.3.2 0 .2.3.1 1l-.2 3.5v2.4l.7.6.8.7.2-1.3A79.4 79.4 0 0 0 8.6 24c-.5.5-1.2.2-1.2-.4 0-.3.3-.6.7-.7l.8-.2-1-.1c-1.3-.2-1.2-1 .3-1 .9-.1 1-.2 1-.6 0-.3-.3-.4-.9-.3-1 0-1.6-.5-1.1-1.3.2-.5.3-2 .2-6-.2-5.7-.1-6.2.4-6.2C8.7 7.2 9 8.3 9 11c0 3.7-.4 7-.8 7.3-.4.3 0 1 .7 1.3.4 0 1.1.4 1.6.7l.9.5-.2 4a1276.2 1276.2 0 0 1-.6 19.6c0 2.6-.1 5-.3 5.3-.2.7-.4 6.2-.2 7.7 0 .3 0 .5-.3.5s-.4-.2-.4-.6c0-.3 0-.6-.2-.6s-.3 1.7 0 2.6c.2.9 1.2.7 2-.3.4-.6.5-1.1.5-2.3 0-.8-.2-1.7-.3-2.2-.4-1-.2-1.1 1.4-1.3 1.6-.2 1.9.2 1.7 3-.2 2.2-.6 3.2-1.7 4.2-.9.8-3.5 1-4.2.3zm4.2-4.8-.1-.8c-.2-.3-.3-.1-.3.5 0 1 .2 1 .4.3zm1.2-.2-.2-.6c-.2-.3-.3-.3-.3.2 0 .3.1.6.3.6.1 0 .2 0 .2-.2zM9.7 44.6c0-.3-.1-.1-.1.3 0 .5 0 .7.1.5v-.8zm.6-21.6v-1.9l-.2 1c-.2 1-.1 2.8.1 2.8V23zm84.6 29.7-.3-4.6a158.6 158.6 0 0 0-.8-12.2 48.7 48.7 0 0 1-.5-6.9l-.4-5.5a32 32 0 0 1 0-8.2c.4-.3.6.6.6 4.2A309.5 309.5 0 0 0 95 43.7l.4 6.7c.1 2 .1 2.6-.1 2.6s-.4-.2-.4-.3zm87.4-1.9c-.5-.7.2-1 3.4-1.1 2-.2 3-.1 3 0 0 .5-.8.8-2.6 1l-2.5.3c-.7.1-1 0-1.3-.2zm-143-2.9-.3-3.8c0-3.5-.1-3.8-.4-3.7-.1.1-.2 1.5-.2 3.2 0 2.7-.2 3.5-.7 2.8-.1-.2.3-5.9.6-7l.1-.8-.5.5c-.3.3-.6.4-.7.4l-.3-3.4c-.2-4.5-.7-8.6-1-8.3l-.3 4.1c0 2.2 0 3.9-.2 3.9-.3 0-.4-2-.3-4.1a33.6 33.6 0 0 0-1-13.7c0-1.2-2.7-3-5.3-3.5-.5 0-1.6-.3-2.5-.6-1.7-.4-2.3-.3-6 .2-3 .5-4.5.9-6 1.5l-1.5.5c-.4-.3.3-1 1.4-1.3l2.9-1.1c2.3-.9 5.1-1.2 8.3-1 5 .2 7 1 9.7 3.5.9.9 1.7 1.6 1.9 1.6.1 0 .3.4.4.9a208.5 208.5 0 0 1 2 16.2c.1.1.3 3 .4 6.5 0 3.4.2 6.7.3 7.3.1.9 0 1.1-.2 1.1-.3 0-.5-.5-.6-1.9zm-.5-12c-.3-.3-.4 0-.2 1.2l.2 1.2V36zm-1-5.8c-.3-3.7-1.4-8.2-1.9-7.7-.2.3.1 2.4.5 2.8.4.5.6 1.8.8 4.8.2 2.4.2 2.9.5 2.9V30zm-1.3-11c-.3-.3-.3-.3-.2.1l.2 1c0 .2.1.1.2-.2 0-.4 0-.8-.2-1zm165.7 30.4c-.2-.3-.4-2-.5-4.7a138 138 0 0 0-.8-12.6c-.3-3.5-.7-7.6-1.1-14.4-.3-4 0-8.2.6-8.5.5-.4.7.6.5 2.2-.4 2.5 0 12 1 21.3l.6 9.7c.2 5 .3 5.9.8 6 .5.2 8.5-.2 9-.4.5-.1.7 0 .9.2l-.1.8c-.2.1-2.2.3-4.5.3s-4.6.2-5.2.3c-.6.1-1 0-1.2-.2zm-10.8-.5c-.3-1-.4-2.6-.5-6.3l-.4-5.5c-.2-.7-.3-3-.4-5.3-.1-4.5-.2-5.6-.8-11a71 71 0 0 1-.3-12.7c.2-.8.3-1 .8-1h.5l-.1 1c-.4 2.6-.5 6.9-.2 10.1a881.7 881.7 0 0 1 1.3 16c.4 6 .8 10 1.2 11.7.2 1 .2 1.4 0 2.2-.4 1-.9 1.4-1 .8zM79.1 41.2l-.5-6.3a173 173 0 0 1 .2-23.7 301.1 301.1 0 0 0 .9 33.7c-.2 0-.4-1.6-.6-3.7zm-2.2 2a485.8 485.8 0 0 1-.6-28.8l-.2-.7-.2.6c-.1.4-.3 4.4-.3 9 0 5.7 0 8-.2 7-.4-2.4-.2-19.6.2-19.6.2 0 .4.2.4.6l.2-.8c0-1 .1-1.4.3-1.4.3 0 .4 3 .4 13.8l.2 17.2c.1 3.1 0 3.9-.2 3zm-21.5-1.6c-.2-.8-.3-14.8 0-14.8 0 0 .2 1.6.2 3.8 0 4.2.2 9.2.4 10.3 0 .7-.4 1.3-.6.7zm2-.1V40c.2-.8.4-5.8.4-11 0-5.4.1-10.2.3-10.7.3-1.4.8-1.3.5.1l-.3 9c0 8.6-.3 14.2-.6 14.2l-.3-.1zm3.2-.3v-9.8c.2-14 .1-18.2 0-21L60.2 8h.5l.5.2v3.7c.2 2 .1 6 0 9a422.3 422.3 0 0 0-.2 20c0 .4-.5.7-.5.3zm55.6-1c-2.3-.3-3.5-.7-3.5-1 0-.3 1.8-.1 3.5.3.5.2 1.4.3 2 .3.8 0 1.1 0 1.1.4s-.8.4-3.1 0zm97.1-5a29 29 0 0 0-.6-3.8l-.2-2.8-.3-4.1c-.3-2-.4-14-.2-15.1.2-.9.6-1.2 1-1 .2.2.3.9.1 2.8-.2 3.4-.1 12.3.2 14.7.3 2.3.8 9.3.9 11 0 .8-.1 1.4-.3 1.5-.2 0-.4-1.2-.6-3.2zM122.5 38c-1.6-.3-.9-.6 2.2-.7 2.9-.1 4 0 3.4.4-.3.2-4.8.5-5.6.3zm15.1 0c-.4 0-.8-.2-.8-.4 0-.3 2.8-.3 3 0 .2.3-.5.6-1 .5l-1.2-.1zm3.7-.5c0-.2.4-.4 1-.5 1.2-.2 1.7.3.7.6-1 .4-1.7.4-1.7 0zM.4 34.3C.1 31.3 0 22 .2 22c.1 0 .3 1.5.3 3.7 0 2 .2 4.6.3 5.6.3 2.5.3 4.5 0 4.5 0 0-.3-.7-.4-1.5zm70.7.7c-.1 0-.3-2.4-.4-5 0-2.7-.2-5-.4-5.3A56.4 56.4 0 0 1 71.7 3c.5-.6.6.1.2 2.1-.7 3.4-1.2 8.2-1.4 12.7l-.2 4.3.6.3.6.2v6.3c0 5.7 0 7-.4 6.2zm4.3-.4c0-.2.1-.4.3-.4l.2.4c0 .2 0 .4-.2.4s-.3-.2-.3-.4zM90 30.4c-.6-9-.9-14.7-.8-17.5l.4-3 .8.5.6.7v2.3a62.8 62.8 0 0 0-.5 16.7c.4 6 0 6.2-.5.3zM33.8 30a74.3 74.3 0 0 0-1.2-10.6l-.1-1.1.4.4c.5.5 1.2 5 1.4 9.3l.2 5c.1 1.2 0 1.6-.2 1.6-.3 0-.4-1-.5-4.6zm83.6 2.3c-.3-2.4-.7-9.2-.8-15.4l-.2-5.7.5.1.4.1v4.8c.1 6.7.4 11.8.8 14.2.6 3 .5 3.4 0 3.4s-.6-.3-.7-1.5zm-85.2 1a61 61 0 0 1-.7-9 30 30 0 0 0-.6-7c.6-.6 1 .3 1 2.8l.4 7.8c.2 4.9.2 6.4-.1 5.3zm91.7-.6v-.9c.2-.6 0-1.8-.6-8.5-1-8.7-.9-11.5 0-11.7.3 0 .4.7.4 4.8 0 2.6.2 5.5.3 6.3a58 58 0 0 1 .9 9.8c0 .5-.7.7-1 .2zM6.4 29c0-2.1.2-3.4.3-3.3.2 0 .4.5.4 1.2.1 1.5-.2 5.5-.5 5.5a13 13 0 0 1-.2-3.4zm119.7 2.3c-.2-1.5-.5-17.4-.3-18.2 0-.3.3-.6.6-.6h.5l-.1 7.7-.1 7.7.5 1.2c.5 1 .6 1.3.3 2.2-.4 1.5-1.2 1.5-1.4 0zm-74.5.7c0-.2 1.8-1.2 2.1-1.2.5 0 .2.5-.5.9s-1.6.5-1.6.3zm-22.2-3.7c0-3.5-.5-7-1-8-.2-.4-1-1-1.8-1.4-1.5-1-5.9-2.4-7.4-2.5-.5 0-1-.2-1-.3 0-.8 3.6-.1 7.4 1.4.8.3 1.4.4 1.4.3 0-.4-.8-1.7-1.6-2.3-.3-.3-.6-.7-.5-.8.4-.3 1.2.2 1.8 1.1.4.6.9 1 1.2 1.2.6.2 1.7 3.1 1.9 5 .8 9.7.8 9.8.1 9.8h-.5v-3.5zm91.5 2.8-.1-1a134 134 0 0 1-1.5-18.4c.5-.6.8 0 .8 2 0 2.1.3 4.8 1.3 13 .3 2.3.5 4.3.4 4.4-.2.3-.9.3-.9 0zm16.5-.2v-9c0-8.3.2-10 1-10a134.6 134.6 0 0 0 0 11.8c0 3.5 0 6.7-.2 7-.1.7-.6.8-.8.2zm-3.6-.6c-.2-.2-.4-3.7-.6-7.6L133 16l-.2-4.9.6.1.6.1.1 5.3a162.7 162.7 0 0 0 .6 13.5c-.2.4-.6.5-.8.2zm15.3 0-.3-4.5-.4-10.2-.2-10.8V0l.6.1.6.1V2c-.2 7.6-.1 13.5 0 16.8.7 9.2.7 11.1.3 11.5-.3.2-.5.2-.6 0zm-4.7-4.4-.2-13.6-.1-10.4c-.2-.6 0-.9.5-1.4.4-.4.9-.6 1-.5a6 6 0 0 1 0 2.2 8488.7 8488.7 0 0 1 0 24.3c.1 3.1 0 3.5-.6 3.5h-.5l-.1-4zm-64.2 1.7c0-.3 0-.5.2-.5.1 0 .2.2.1.5 0 .3-.2.5-.2.5l-.1-.5zm.1-4.3a180.1 180.1 0 0 1 .8-12 537.6 537.6 0 0 0-.7 14.8 9 9 0 0 1 0-2.8zm-34-3.5c.1-.5.5-.6 2.8-.9 1.5-.1 3-.4 3.3-.6.5-.2 1.3 0 1.3.3 0 .5-.8.7-3.4 1l-3.4.5c-.5.1-.6 0-.6-.3zM0 18.4c0-1.6.2-2.2.7-2.2.4 0 .4.3 0 2-.5 1.7-.7 1.8-.7.2Zm112-7.3c0-.3 0-.4.2-.4.1 0 .2.1.2.4 0 .2 0 .4-.2.4s-.3-.2-.3-.4zM63 8.4c-.1-.5 0-1.2.4-1.4.2 0 .4.2.4.7 0 .9-.5 1.4-.7.7z"/>
</svg>
