<?xml version="1.0" encoding="utf-8"?>
<svg xmlns="http://www.w3.org/2000/svg" xmlns:svg="http://www.w3.org/2000/svg" version="1.1" viewBox="0 0 436 356">
	<title>Pigling Bland peers through the doorway. On the wall are a pair of shelves, and to the other side a side table with a basket.</title>
	<path d="m344.4 355.4-.7-.8c-.1-.4-.6-.7-.9-.8-.3 0-.9-.5-1.2-1-.4-.6-1.6-1.7-2.7-2.5a77.2 77.2 0 0 1-6-4.5 55 55 0 0 0-8.7-6.8 197.3 197.3 0 0 1-8-6 34.5 34.5 0 0 1-4.6-3.5c-.4-.4-.9-.6-1.5-.6-.5 0-1.1-.2-1.4-.4l-2.3-1.7c-1-.7-2.3-1.6-2.7-2.1-.8-.8-1-.9-1.3-.6-1 .6-1.8.9-2.6.8-1.4-.3-13.5-.3-23 0a421 421 0 0 1-24.1-.2c-3.4-.6-6-.7-10.7-.5-3.5.2-4.8.2-5.2 0-.4-.2-1-.3-1.6-.2-.7.2-16.7.5-20 .5-2.1 0-4.2-.4-4.2-.7 0-.7 1.3-1 4.3-.8a140.2 140.2 0 0 0 19.5-.3c.4.2 2.7.2 6.4 0h8c4.8.3 26.4.2 37.7-.2a71.2 71.2 0 0 1 13-.2l.6-.3-.7-.6c-1.1-1-2.8-2.1-4.4-3a72.1 72.1 0 0 1-9.2-6.6c-1-.7-2-1.6-2.4-2l-1.6-1.2-1.2-1-1.7-1.4c-1.8-1.4-3.5-3-7.2-6.4a209.5 209.5 0 0 0-25.8-20.4c-2-1.7-4-3.3-7.2-5.5-2.6-1.8-3.5-2.7-3.5-3.6 0-1.4 1-1.5 2.6-.1 2 1.7 5.9 4.1 5.9 3.8l-.5-.7c-.5-.6-.3-1.3.5-1.3.3 0 .7.4 1 1.1.4.7 1 1.2 1.5 1.5l1 .6c0 .3 1.4 1.7 2.8 3a94.3 94.3 0 0 1 7.3 6.6c1.3 1.2 3.1 2.5 4 3 .8.4 1.6 1 1.7 1.2.2.3.8.8 1.5 1.2l1.1.9 1.3 1a79 79 0 0 1 3.6 2.4c.3 0 3.3 2 3.8 2.5a72.5 72.5 0 0 1 10.9 8.2c1.2 1.3 1.4 1.5 1.2 2.2-.1.7 0 1 1 1.8.7.5 1.3 1 1.5 1l2.1 1.5c1 .9 2.1 1.6 2.3 1.6.2 0 1 .6 1.6 1.2a38.6 38.6 0 0 0 7 5.4c1.2 1 1.6 1.4 6.8 4.8a43 43 0 0 1 5.5 4.1c1 .6 2 1.3 3.5 2.7a13 13 0 0 0 2.2 1.5 6 6 0 0 1 1.4 1l2 1.8c1 .6 1.6 1.2 1.6 1.3l1.6 1.2c.8.5 2.3 1.7 3.2 2.7 2.1 2.2 2.7 2.8 4 3.8l8.5 5.7c.6.3 1.3 1 1.6 1.5.3.6.7 1 1 1.1 1.2.4 2 1.9 1.2 2.1-1 .3-1.7.4-2 .2zm-110.6-3.5-1-.5c-.2 0-.9-.3-1.6-.8-.7-.4-1.6-.9-2.1-1-.6-.2-1-.6-1.2-1-.1-.4-.6-.8-1.2-1-2.8-1.2-4-2-5-3-2-1.8-1.2-2.7 1-1.2 1.3.9 3.7 2 4.3 2 .3 0 1 .5 1.6 1.1.7.6 1.5 1.3 1.8 1.3 1 .4 4.3 2 4.9 2.6.6.6.7.8.3 1.6-.3.6-1 .6-1.8 0zM404.6 333l-1.4-.5c-.5-.1-1-.5-1.4-1-.3-.4-.8-.7-1.2-.7-.3 0-.8-.3-1-.6l-.8-.5a17.4 17.4 0 0 0-3.5-2c-1.5-.8-3-1.7-3.4-2.2-.5-.4-1-.8-1.2-.8l-1.8-.8a116.8 116.8 0 0 0-5.1-2.9 99.8 99.8 0 0 0-6.1-3.5l-1.2-.7a54.1 54.1 0 0 0-9.7-5.8c0-.2-.1-.3-.3-.3-.4 0-3.2-1.4-3.8-1.9-.1 0-.5-.3-1-.3l-1-.5c-.5-.5-2.5-1.5-4.1-2-1.6-.5-2.3-1-2.1-1.8.1-1 1.1-.8 5 1.2a90 90 0 0 1 6.7 3.4l.4.2c.1.2 3.1 2 5.3 3.2l2.2 1.3c1 .7 2.2 1.4 5.8 3.3l6.6 4c.9.7 2.3 1.5 3 1.9.8.4 1.5.8 1.6 1 0 .2.4.5.8.6a88.4 88.4 0 0 0 8.5 4c4.4 1.7 5.5 2.6 5.3 4.2-.1.9-.4 1-1.1.5zm-284.7-9.2c-1-.6-1.6-1.7-1-1.8a160.4 160.4 0 0 1 12 0c2.4.5 9.7.5 16 .3a1934.6 1934.6 0 0 1 12.4-.8 46.8 46.8 0 0 1 10.1-.3c1.6 0 3.4 0 4-.2a53 53 0 0 1 7.7-.1c8.4.2 7.9.2 9.2-.1.8-.3 1.1-.5 1.4-1.1.1-.5.4-1 .6-1 .5-.2 1.8.7 2.3 1.6.3.6.5.7 2.2.7 1 0 2.3 0 2.8.2 1.7.5 6.2 1.4 8.1 1.6 2.2.4 2.8.7 2.3 1.1-.2.3-.8.3-2.4 0a9.8 9.8 0 0 0-2.6 0c-.2 0-1.2 0-2.2-.2a134 134 0 0 0-25.5-.7c-2.2.2-5.7.5-7.8.5-2.1 0-4.6.2-5.6.4-1.3.3-4.3.3-12.7.3h-24c-6.2.2-6.3.2-7.3-.4zm66.8-5.3c-.2-.4-.2-1-.1-1.6.2-1.1 0-1.3-2.4-2.5a17.3 17.3 0 0 1-4.3-2.8c-3.4-2.3-4.5-3.1-6-4.4a41.8 41.8 0 0 1-5-4.6 44.7 44.7 0 0 1-6.3-5.6 29 29 0 0 0-2-1.8c-1-.9-1.2-1.8-.2-2 .4 0 1 .4 1.8 1.3.7.8 2 1.8 2.6 2.3 1.5 1 2.8 2.2 4 3.6a58.2 58.2 0 0 0 10.6 9l1 .7c.3 0 .7.4 1.1.8.5.5 1 .8 1.1.8.2 0 .4.2.6.4.5.6 3.5 2.3 4 2.3.3 0 1 .5 1.7 1 1.2 1.1 1.5 2 1 2.8-.3.5-1.3 1-2.2 1-.6 0-.8-.2-1-.7zm188-8c-.1-.2-.8-.6-1.4-1a6 6 0 0 0-1.4-.7l-.8-.6c-.4-.4-.7-.7-.9-.7l-.8-.5c-.3-.3-1-.8-1.6-1l-2.4-1.4c-.7-.5-1.5-.8-1.7-.8-.2 0-.6-.2-.9-.5-.3-.3-1.6-1-2.8-1.7l-2.4-1.3-1.6-.9a22 22 0 0 1-2.2-1.2c-1-.7-1.2-.6-1 .5v1l-.8-.3c-.5 0-1.2-.4-1.5-.6a66 66 0 0 0-6.8-4.1c-.7-.6-2.3-1.5-3.4-2A158.1 158.1 0 0 1 316 278c-.6-.6-1.3-1-2.6-1.6-1-.5-4.2-2.5-4.5-3a19 19 0 0 0-3.7-2.3c-.4-.1-.8-.5-1-.7 0-.5-2-1.9-2.4-1.9-.2 0-.3-.2-.4-.4 0-.2-.5-.6-1-.8l-1.9-1.3c-.5-.5-1.6-1.2-2.3-1.6l-1.6-1.1c-.1-.3-1.3-1.2-2.5-2a53.6 53.6 0 0 1-6.4-4.4c-.2-.3-1.2-.9-2.1-1.3l-1.7-1a29 29 0 0 0-6.4-3.7c-.3-.5-.7-.5-.7-.1l.4.4.8.5 3.4 2.7c1.8 1.3 3.7 2.9 4.2 3.4l4 3a31 31 0 0 1 3.5 2.5c.5.6.6.6 3.5 2.4 1.1.6 2.2 1.4 2.5 1.7l1.6 1c1 .5 1.7 1.2 2.3 2.4.2.3-.4 1.1-.8 1.1-.1 0-.7-.3-1.3-.8l-2.3-1.5c-.7-.3-2-1.2-3-2l-2.1-1.4-1.4-1-2.1-1.7a31 31 0 0 1-2.7-2 66.4 66.4 0 0 0-8.5-6.8c-3.8-2.9-4.5-3.3-5-3.4-.4 0-.7-.4-.9-.7-.5-1.1-1.8-2.2-5.2-4.6l-3.4-2.5-2.9-2c-1-.4-5.3-3.6-5.6-4-.2-.3-3.8-2.7-6.2-4a75.5 75.5 0 0 1-7.3-4.7l-1.8-1.1c-1.7-1.2-2-2-1-2.5l.7-.3.2-11.2a787 787 0 0 0-.4-51.5c.2-.4.3-1.8.3-3.3 0-1.9 0-2.8.4-3.4.3-.7.4-1.6.3-5.5a262.3 262.3 0 0 1 .2-27.1 17 17 0 0 1-.2-2v-2.8l.4-6c.2-2.9.3-3.4.7-3.3.2 0 .4.3.4.7l-.2 6.3c-.2 4.4-.1 6 .2 7 .2 1 .3 1.8 0 2.6a81.2 81.2 0 0 0-.3 12v10.6c0 5.4-.1 8-.3 8.8-.4 1.5-.5 6-.1 13.3.4 7 .4 12 .4 24l-.5 31.1c0 .7.2 1 1.9 2l2 1c.1 0 .3-.2.5-.6.4-1.2 2-.7 7.4 2.4 1.6 1 3 1.7 3.2 1.7.1 0 .4.2.5.5.2.2 1 .8 1.8 1.2 3.9 2 8 5 10.6 7.3l2.1 1.6 2.5 1.8 1.5 1.1 1.1.9 2.3 1.8a194 194 0 0 1 10.3 7.4 57.1 57.1 0 0 0 7.7 5.3 85 85 0 0 1 6.5 4 92.4 92.4 0 0 0 11.1 6.8 42.6 42.6 0 0 0 4.4 2.6 97.6 97.6 0 0 0 9.1 6 46.2 46.2 0 0 0 7 4.3c.7.4 1.5 1 1.9 1.1l1.6 1.2 3 1.8 2.7 1.5c.3.3 1 .7 1.7 1 .6.2 1.7.9 2.4 1.3l1.4.9 3 1.7a77.6 77.6 0 0 0 7.9 4.3c.3.3 1.3 1 2.2 1.4a33.4 33.4 0 0 1 4.6 2.6 14.8 14.8 0 0 1 4.1 2.7c.5 0 4.4 2.5 6 3.8.8.8.2 1.3-1 .7zm-102.6-63.7a44.6 44.6 0 0 1-5.2-4 23 23 0 0 0-2.7-2 62.5 62.5 0 0 0-11.4-7.5c-1.4-.6-3.9-2.2-4.1-2.6a6.9 6.9 0 0 0-2.8-1.3c-.6 0-.2.4 9 6.6a209.8 209.8 0 0 1 16.2 12l1.2.7.2-.7c.2-.5.1-.8-.4-1.2zm103 59.1c-1.8-.6-3.2-1.3-4-2-.3-.4-.8-.6-1-.6a31.8 31.8 0 0 1-16.2-8.5 5 5 0 0 0-1.5-.8l-1-.5c-1-.8-3.2-2-3.9-2.2a9 9 0 0 1-2-1.1c-.8-.5-2-1.3-2.8-1.6-.8-.3-1.8-1-2.3-1.3l-1.1-.7c-.2 0-.5-.3-.8-.6l-2.9-1.7-2.9-1.7a165.3 165.3 0 0 0-10.8-6.3c-1.5-1-2.2-1.5-2.2-1.9 0-.7 1-.7 2.2 0l4.7 2.7c.6.2 1.8 1 2.7 1.6l3.3 1.9a42.8 42.8 0 0 1 5.2 3l1.2.8 2.6 1.4a32.5 32.5 0 0 0 6 3.4c1.7 1 3.8 2 4.4 2.5l3.7 2.1a41.8 41.8 0 0 1 4.3 2.3 15.9 15.9 0 0 0 3.3 2 350 350 0 0 1 11.5 6c1.4.5 2.4 1.3 2.4 1.8 0 .6-.3.6-2 0zm-316.5-8.5c-.4-.1-1-.2-1.6-.1-1.3.2-3.2-.4-4.3-1.3l-1.4-1c-.5-.2-.6-.3-.5-3 0-1.6.2-3.4.3-4l.2-1.3-.9.8c-.6.5-1 .6-1.3.4-.7-.3-.8-1.2-.4-1.8.4-.5.4-.6 0-.6-4 0-7.6-.2-8.1-.4-.4-.2-1-.8-1.5-1.3-.7-1-.7-1.2-.7-3.4 0-1.4-.1-2.6-.2-2.7 0 0-.6 0-1 .3a3 3 0 0 1-2.1.1 30 30 0 0 0-4.6-.2c-3.7 0-4.4 0-4.4-1.1 0-.4.3-.5 2-.6 2.7-.3 8-.3 9.1 0l1 .1v-3.1c.3-5.3.3-5.2-.9-5.5-.5 0-1.2-.3-1.4-.5-.3-.2-2.8-.4-8.4-.5-4.4 0-8.1-.2-8.2-.3-.2 0-3.7-.2-7.8-.2-8-.1-8 0-8.3-1.6-.3-1.2.8-1.9 2.6-1.5l4.4.2a211.3 211.3 0 0 0 15.3.8 111.5 111.5 0 0 1 10.8.6c1.7-.1 2-.2 2.3-.7.2-.4.3-3.2.4-9.8a161.8 161.8 0 0 1 .4-12.6c-.2-.4-1.5-.3-2.3 0-.5.3-1.2.4-3 .2a17 17 0 0 0-4.9.1c-2.7.4-8.1.3-9.6-.3-1.6-.6-2.8-1.6-2.8-2.3 0-.3.2-.6.4-.6.4 0 1.2-1 1-1.2h-2c-2.2.2-5.6-.2-6-.8-.5-.6 1-.8 4.4-.5 2.8.2 5.2.2 15.7 0 1.5 0 3.1.2 4.1.5l3 .4H39l-.3-2-.6-3.8-.2-1.7-1.2-.2c-.6-.2-3.5-.2-6.3-.1a223.1 223.1 0 0 1-21.4-.2c-3.7-.4-4.1-.4-4.9 0-.8.3-.9.3-2.2-.2-1.5-.7-2-1.4-1.5-2.5.3-.6.4-.6 1.3-.4.6.1 1.3.1 1.6 0 .4-.2 1.4-.2 2.6 0 2.6.4 5.4.5 19.9.6a114.8 114.8 0 0 0 18-.5c3.8 0 4.5 0 4.9.3.4.4.6.4 1.5.2.6-.2 1.2-.3 1.4-.2.4.3 2.5.4 8.3.4 2.8 0 5.7.1 6.6.3 2.4.4 3.5.4 4-.1.7-.6 1.4-3.6 1.6-6.4a196.1 196.1 0 0 0 .6-16.6c0-5.2 0-9.6.2-9.8l.1-5.6a25 25 0 0 0-.5-7c-.5-1.5-.5-2.3-.3-10.5l.4-11.2c.1-1.7 0-2.5-.2-3-.3-.6-.5-.6-3.3-.6-1.6 0-3-.2-3.2-.3l-1.3.1c-.7.2-1.3.2-1.9 0a5 5 0 0 0-2 0c-4.6 1-4.7 1-6.2.6-1.1-.2-5.8-.3-16-.2a436.9 436.9 0 0 1-23.2 0c-5.5.4-11.2.4-13.2 0l-2-.3v-1c0-1 0-1 .7-1.1.4 0 1 0 1.4.3.4.3 1.3.5 2.8.5a1308.7 1308.7 0 0 0 49.5-.7l3.7-.1a62.3 62.3 0 0 1 11.4-.3c.4-.4-.2-1.2-2.7-3.8-1.4-1.4-2.1-2.3-2.1-2.7l-.2-.8-4.4.2c-3.5.2-4.3.2-5.5-.2-1.8-.5-2.8-.5-4.1 0l-2.6.8c-.9.2-1.8.6-2 .8-.7.6-5 2.3-5.5 2.1l-.8.1c-.7.4-7 1.1-7.6 1-.4-.1-1.5 0-2.4.1l-2 .3h-7c-3.6 0-8-.2-9.6-.3a16 16 0 0 0-4.8 0c-1.4.2-1.8.2-2.3-.2-.8-.5-.8-1 0-1.6.7-.3 2-.4 12.2-.3h13.4c2.3 0 7.7-.7 8.5-1.1 1.6-.8 2.9-2 3.3-3 .4-1 .4-1 0-1.8-.5-.9-.5-1 .1-2.9.4-1 1-2.5 1.4-3.1l.7-1.6c0-.7-.8-.6-1.7.2-.5.5-1.2.8-1.6.8-.7 0-2.7-.5-3.2-.8-.3-.2-9.7.2-13.8.5-1.7.2-3 .2-3.3 0h-2.3a21 21 0 0 1-6.1-.1c-.2-.2 0-.6.4-1.3.8-1.2 1.3-1.5 2.6-1.7.9-.1 1.2-.3 1.5-.9.4-.9.8-.9 2 0 .7.7.9.8 2.7.6 1.7 0 2-.2 2.3-.8.4-.9 1.2-1 2.4 0s2.8 1.1 3.8.4c.5-.4.7-.4 1.5 0a8 8 0 0 0 4.6.1c.7-.2.9-.2 1.8.6l1 .8.7-.5c.7-.4 1.4-.5 3-.5 1.1 0 2.2-.1 2.3-.3l.2-1.1-.1-1-1.4.2c-.8 0-1.5 0-1.7-.2-.6-.3-.1-1.3.9-1.8.5-.2 1.2-.7 1.6-1.1.7-.6.7-.7 2.3-.3.9.1 1.7.2 1.9.1.4-.3.3-1-.3-1.6-.5-.4-1-.5-3.8-.5a25 25 0 0 0-4.3.4c-.8.2-1.4.2-1.9 0h-3c-2 .3-2.5.3-3.2-.1-.9-.5-1.2-.5-5.7-.2s-4.8.3-6.8-.2a7.3 7.3 0 0 1-2.3-1c-.8-1.1.4-2.3 1.8-1.7 1.2.4 18 1 19 .5.7-.2.7-.3.7-4.2 0-2.5 0-4.4.3-5 .2-.6.2-1 0-1.6-.2-.6-.2-1 .1-2 .3-.8.4-1.7.2-3.8-.3-4.2-.2-10 .1-14.7a664.5 664.5 0 0 0 1.7-36.4 26548.8 26548.8 0 0 0 1-23.8c.4-10.1.4-9.8.8-10 .7-.5 1-.2.9.9l-.1 8.7c0 4.2-.1 8.4-.3 9.3A215.6 215.6 0 0 0 42 58c-.2.2-.7 12.2-.6 14.7a180.2 180.2 0 0 1-.8 22.5 431.9 431.9 0 0 1-.8 13.4 1056.1 1056.1 0 0 0 .1 14.6c.1 0 1.8.2 3.7.2 3.5 0 5.1.3 6 1 .4.4.5 1 .4 3.2 0 2.7-.4 4.1-1.4 5.7-.3.4-.6 1.4-.8 2.4-.4 2.2-.5 7.3-.2 7.6.3.3 4.2.6 7.9.7 2.8 0 3.6-.3 3-1.2-.1-.4-.1-.7.1-1 .2-.2.3-1.4.3-3.7 0-2.4.2-4 .5-5.3.5-2.1 1-10.5 1-16.6 0-4.3.3-9.8.8-21.4.5-11.1.4-10.7.4-14.4a472 472 0 0 1 .7-27 151.4 151.4 0 0 1 1-12.3 104.9 104.9 0 0 1 .5-9l.2-3.4c.1-.4 0-1-.1-1.5-.5-1.3-.8-.4-.6 1.6 0 1.1 0 2.3-.2 3.2-.2.7-.3 3-.4 5 0 2.5-.1 3.8-.3 4-.2.2-.4.7-.4 1.2 0 .4-.2 1-.4 1.3-.4.4-.5.4-.6 0-.1-.3 0-1 .2-1.5a286.5 286.5 0 0 0 .3-30.7c.3-.6 1.2-.7 1.5-.1.2.4.3.3.8-.1.4-.5.4-.6 0-.6-.2 0-.5-.1-.6-.3-.1-.4.6-2 .9-2l2.2-1.6a14.2 14.2 0 0 1 3-2c.3-.4.5-.4.7-.2.3.2-.3 1-2.3 2.9a27.5 27.5 0 0 0-2.7 2.8c0 .6 1-.2 3.7-2.8a26 26 0 0 1 6-4.7c1.3-1.1 1.8-1.2 2.3-.5.4.6-.5 1.8-2 2.6-.7.3-1.7 1-2.4 1.7a195.4 195.4 0 0 1-6 5l-1 1 .1 5a187.2 187.2 0 0 1-.7 20.2L64 54c-.2 1.8-.2 5.4 0 8v7.5c-.7 16.5-.7 16.6-1.2 24.5l-.2 8.9c0 2.5-.1 4.9-.3 5.2-.2.7-.2.9.3 1.4.7.7.7 2 0 10.3L62 130a46 46 0 0 1-.5 6c-.2.4-.4 2.2-.4 4l-.1 3.3c-.1.4.4.5 3.6.6 4.5.2 5 .4 5.2 2.5.1.8.6 2.2 1.1 3.2.8 1.7 1 1.8 1 1.1.2-.4.1-1.8 0-3-.2-1.3-.3-2.8-.2-3.4a46.7 46.7 0 0 0 .4-13.8c0-.2.3-.4.7-.4.5 0 .6.2.6.7 0 .4.2 1 .5 1.5.5 1 .6 6.5 0 8.7-.4 1.8-.3 5.3.2 8 .4 1.9.4 2.1 0 2.7-.3.4-.7.8-1 .8-.7.2-.6.5.6 1.7.8 1 1 1.3 1.2 2.6.1.9 0 1.8-.2 2.4a738.6 738.6 0 0 1 .2 35.4c0 6 .2 12.2.5 12.2.4 0 .5-1.8.8-8.6.2-3.9.8-6.7 1.5-6.7s.8-.4.8-2.7c0-2.1.3-2.5 1-2 .3.1.4 1 .4 5.2 0 2.7.2 6.4.4 8.2.2 1.9.4 5.5.4 8.2 0 5.3.2 6.2 1.3 6.7.9.3.8 1 0 1.3-1 .2-1.5 1.4-1.1 2.8.3 1.1.2 2-.3 5.6l-.6 6a25 25 0 0 1-.6 4.6c-.6.8-1.6 0-1.3-1.1l.3-3.2.6-4.7.5-6.4c.2-4.3.2-4.5-.3-5.2-.5-.7-.5-1-.3-3a45.5 45.5 0 0 0-1-14.2c-.3 0-.3 0 0 .2.2.2.3.5.2 1a159.8 159.8 0 0 1-.7 7.1c-.2 1.5-.4 5.8-.6 9.5-.3 7.6-.3 8.6-.7 13.3-.4 4-.4 3.9-.2 5.9l.2 1.6 1.4.7c1.3.6 1.6.6 3.2.4l2.4-.4c.6-.2 1.7-1 1.7-1.4l.7-1.3c1-1.4 1.5-4 1.4-7-.1-6.6.2-32.2.4-34 .2-1.1.1-1.6-.2-2-.5-.9-.6-1.5 0-2.1.2-.4.2-1.6.1-5.3 0-3.7 0-5.5.4-8.1a12 12 0 0 0 0-5.9c-.4-1.8-.5-3.3-.5-5.5.2-8.6.4-18.5.4-28.6a48 48 0 0 1 1.2-16.3l.1-5 .4-11a248.4 248.4 0 0 1 .5-17.3 1732.8 1732.8 0 0 1 .6-20.7 115.3 115.3 0 0 0 .8-14c0-4.5 0-8.7.2-9.4l.2-8.2.3-11.7a79 79 0 0 0-.1-8c-.3-3.6-.1-4.7.7-4.8.5-.1.6 0 .7.7a207.3 207.3 0 0 1 .4 26.7c0 2.7 0 4.7-.2 5.3-.2.5-.4 2.5-.4 4.4-.2 3.4-.6 30.2-.7 38.9A83.8 83.8 0 0 1 91 103a722.1 722.1 0 0 1-.9 23c-.2 1.3-.2 2.6 0 5.3l.4 4.2-1.2 48-.8 35.8c0 1.5.1 3 .3 3.4v4.6c-.3 2.2-.5 5.4-.5 7l-.2 3h2.3c.1 0 .4 0 .4.2.1.2.7.3 1.2.3 1.3 0 1.7.3 1.6 1 0 .5-.3.8-1 1-.8.1-3.9.2-6.6.1-.6 0-1.8 0-2.9.2a9 9 0 0 1-3-.2c-1.7-.4-5 0-8 1.2-.8.2-1.1.5-1.2 1l-.3.9v6.3c.3 5.6 0 10.6-.4 12.4-.2.5-1.4.6-1.5.1a70.7 70.7 0 0 1 0-6.4s-.2.2-.2.6c0 .9-.7 1.7-1.2 1.6-.2-.1-.3-1.8-.3-5.7 0-4.7.1-5.5.4-5.5.3 0 .5.3.5 1 .1 2 .7 4.7 1 4.7.2 0 .3-1.8.3-6.2V240l-2.4-.1h-2.5c-.3.1-.5 4.2-.7 13.2 0 3.6-.3 6.6-.4 6.7-.6.6-.1 3.6.6 4.2h2c1.3 0 2 0 2.3.2.2.1 1.7.3 3.5.4 2.5.2 3.3.1 4.5-.3 1.2-.4 1.7-.4 5.1-.1 2.1.2 5.7.4 8 .4 3.6.1 4.3 0 5-.3.5-.2 1.7-.5 2.8-.6 1.8 0 2-.1 2-.7 0-.7.8-1.7 1.2-1.7.7 0 2.5-5.2 2.3-6.5-.2-1-.2-8.4-.1-22.5 0-6.8 0-12.2-.3-15.3-.3-4.3-.3-4.8.1-5.8s.5-2.3.6-9.6c.1-10.7.1-11.5 0-12.3v-4.6c.3-3.8.3-4-.2-5-.6-1-.6-1-.2-1.9.4-.8.5-1.8.5-5.8l.1-9a977.8 977.8 0 0 0 .5-35c.3-7.2.3-17 .2-29.2 0-4.1 0-6.5.2-7.1a17710.5 17710.5 0 0 0 1.5-82.7c0-4 0-4.3.6-5l1-1.2c.8-.3 1.6.1 1.7 1 .2 1 .8 1 2.5-.3 1.6-1.4 2.1-1.5 2.5-.7.3.4.1.7-1.2 2-.9.8-2.2 1.8-3 2.2-1.7.8-1.7.7-2 4.2v1.8h1c.9-.2 1-.1 1.5.7l.6 1c0 .2.7.1 1.4-.1.8-.3 2.1-.6 3-.7l2.7-.4c.6-.1 1 0 1.3.3.5.4.6.4 2.1-.1.9-.3 1.8-.5 2-.4.3 0 1-.3 1.8-.8 1.1-.8 1.6-1 2.2-.8 1.1.2 2.8-1.4 3.5-3.4.5-1.2.6-1.7.4-3.7-.2-2.6 0-3.1 1-3.1.8 0 2.8 1.1 3.2 1.8.5 1 .4 1.2-3.9 6.9-1 1.4-.8 2 .5 1.3.9-.4 3.9-5.2 3.9-6.2 0-.6.7-.5 1 .1.3.6.2 2-.3 2.8-.7 1.2-.7 1.4.2 1.3 1 0 1.8-1.2 2-3.2.2-1.7.5-2 1.3-1.1.8.8.6 2.5-.6 4.3l-1.7 2.8c-1 1.4-2.2 2.4-2.6 1.9l.7-1.5c.8-1 .8-1.2.5-2-.4-1-.6-1-1.2 0-.2.6-.5 1-.6 1 0 .2-.5.7-1 1.4-.6 1-.7 1.1-1.6 1-.7-.2-1 0-2 .9a24.8 24.8 0 0 1-5.5 3.6c-1.8 1-2.4 1.3-2.4 1.8 0 .2.3.3.9.1 1.2-.3 3.1-1 4-1.5l1-.3c.4.3 0 1-.8 1.3l-1.3.8c-.4.3-.9.5-1.1.5-.8 0-3.3 1.2-4 1.8-.8.9-.6 1.1.6.7 1.2-.4 2.7-.4 2.7 0 0 .5-1.7 1.5-2.5 1.5-.5 0-1.2.2-1.8.5-.5.2-2 .6-3 .7-1.2 0-2.6.2-3 .3-.6 0-1-.1-1.3-.3-.7-.8-.2-1.1 1.8-1.4 1 0 1.6-.2 1.2-.3l-.9-.3c0-.1-.6-.2-1-.1-1 .2-2.3-.3-2.5-.9-.2-.5.4-.9 1.4-.9 1 0 1.1-.2.4-.9-.8-.6-.5-.8 1.7-1.3 2-.5 2.5-.8 2.5-1.3s-1.9-.7-3.5-.4c-1 .2-1.6.6-2.4 1.3-.5.6-1 1-1.2 1-.1 0-.4.3-.5.7a4 4 0 0 1-1.4 1.2l-1 .5v5.2l1.2.3c.5.2 1.8.5 2.8.6 1.7.3 1.8.3 3-.4s1.3-.7 4.3-.6c2.5.1 3.4 0 4.8-.4 1.8-.5 3.3-1.1 4-1.7l1.3-.8c1.5-.8 3.1-2 3.2-2.3 0-.2-.3-.4-.6-.5-.8-.2-.5-1 .6-1.3 1.4-.5 4.5-2.7 6.3-4.4 1.6-1.5 2.2-2.8 1.6-3.2-.6-.4 0-1 .9-1 1 0 1.2-.2 2-1.5l1.4-2c.9-1 1-1.8.2-2.5a7.8 7.8 0 0 1-1.3-3.4c0-.7 1-1 1.9-.7.6.3 1.1.3 2.6 0 1.6-.3 2-.3 2.8 0 1 .6 2.7.7 2.7.3 0-.6 1-.8 2-.5.6.2 2.2.5 3.5.5 1.4.1 2.6.3 2.9.5.2.2.4.8.4 1.5l.1 3.8c.1 2.1.1 2.7-.3 3.5-.3.8-.4 1.4-.3 3.6.1 1.4.3 4.7.3 7.4a68.6 68.6 0 0 0 1 11c.4 2.5.7 3 1.7 3 1.5 0 1.5 0 1.6-15.4 0-14.2.2-18.3.7-18.9.4-.4 1.4-.4 1.6.1.3.7.2 5.6 0 5.8-.5.3-.6 1.9-.2 3 .3 1.1.4 1.4 0 2-.4.7-.7 7.7-.8 19.6a595.1 595.1 0 0 1-.3 11.4c-.2 3-.4 4-1 3.8-.3-.2-.3-.6 0-6.5l-.1-3.4c-.2-.6-.2-.6-1.1-.2l-1 .5.1 1.7c0 1 .2 2.2.3 2.8 0 1 0 1.3-1.3 3l-1.3 2v3c0 1.5.1 2.6.2 2.4a9 9 0 0 1 3.1-2.8c1.7-.7 2.2-.6 3.8 1 .8 1 1.5 1.5 1.7 1.4a71.2 71.2 0 0 0 .6-15.9V34l.2-14.4a51 51 0 0 0-.6-14c-.3-.9-.3-1.4-.1-1.7.7-1 1.7-.5 2.2 1.4.3 1 .4 10.2.1 16.7a186.7 186.7 0 0 0-.2 22.7l-.3 5.8c0 2-.3 3.7-.4 4-.2.4-.1 1 .3 2.4.3 1 .5 1.9.4 2.1-.2.5 1 2.4 2.1 3.7l1 1 .2-2a50 50 0 0 0-.2-9.2c-.3-2.3-.2-2.8 0-3.3.6-.9.6-2.8 0-3.4-.5-.4-.5-.7-.4-3.6.1-2.7 0-3.4-.4-4.7-.5-1.3-.6-2.2-.6-6.4l-.1-5-.3-4.9c-.1-4.6 0-5.4.7-4.7.4.4 1 6.5 1 9.9 0 1.7.1 2.8.3 2.8.1 0 .3.4.3 1a156.8 156.8 0 0 0 .6-20c0-2.2-.2-2.8-.6-3.4-1.1-1.6-.2-4.2 1.1-3.4 1.2.6 1.5 2.6 1.6 10.1a141.2 141.2 0 0 1-1 16.8 1138.2 1138.2 0 0 0-.7 33.6c-.6.2-.2.7.8 1.3l1.5.5c.7-.3 1.1-1.6 1.1-4v-5.3a83 83 0 0 0 0-10c-.2-1-.2-1.8 0-2.2.3-.5.3-1.4 0-4.5-.3-4.8-.3-13.8 0-16.7.3-1.8.6-11.4.6-14.3-.1-2.2 0-2.6.2-4 .3-1.8.8-2.3 2-1.8 1.2.5 1.4 1 1 2.2-.3.8-.4 3.5-.5 13.6 0 7 0 12.7-.2 12.9-.1.3-.2 6.5 0 13.1l.1 10.4c0 7.7 0 7.5 1.9 7l2.2-.5c.8 0 2-.3 2.8-.5l2.5-.6c1.7-.4 1.7-.4.5-3.1l-.5-1.7-.7-2c-.5-.8-.5-1-.2-2.2l.5-3c.1-1 .6-2.5 1.2-3.8 1-1.8 1-2.3 1-4 0-2.2.4-2.7 1.7-2.7.5 0 1-.1 1-.3.3-.4 1.2-.3 2.8.3 1.4.5 1.8.9 2.4 2.1.8 1.6 2 3 3.5 4.4.9.9 1.8 1.9 2 2.3l1.3 1.6c1 1.1 2.2 3.6 2.2 4.7 0 .5.5 2 1.1 3.3 2.6 5.2 3 7.2 2.3 9.3-.3.9-.1 1.9.8 3.9.6 1.2 1.6 2.5 4.6 5.5l3.8 4 .3-.8c.3-.6.4-4.1.5-15.3l.2-20.4c.1-6 0-7.7-.9-7.9-.4 0-.4-.1 0-.1.8 0 1-2.2 1.2-13.7.2-14.8.3-15.7.9-16.5.8-1.1 1.4-1.4 1.9-1 .3.5.3 1.5 0 4-.2 1.6-.2 4-.1 13.8 0 6-.3 14.4-.6 15l-.3 11.8a2486.5 2486.5 0 0 1-.3 38.1v6.1c-.2 2.1-.4 17.5-.5 31a580.3 580.3 0 0 1-.4 23.4v5.8a645.2 645.2 0 0 0-.1 26.6c-.1 1-.2 3.8-.1 6.4 0 2.6-.2 5.6-.3 6.5-.2 1.2-.3 5.1-.3 11.2v16.8c0 12.4 0 16.1.3 18.8.4 3 .4 4.8 0 5.2l-.3.7c0 .8-.7 1.2-1.2.8l-1-.6c-.5-.3-.5-.5-.5-5a419 419 0 0 0-.1-30.6c-.6-.2-1.2 1.6-1.4 4.5-.2 2.6-.3 3.1-.8 4.3-.8 1.9-1 3.8-1 6.6 0 4.6-.3 7.1-1.5 9-.5 1-1 1.8-1.2 1.9l-.7 1.5c-.4 1.3-.4 1.5 0 2.1.6.9.2 1.8-.8 1.8-1.1 0-1.9.7-2 1.8a5 5 0 0 1-.8 1.7c-.9 1.1-.3 1.5 1 .7 1.3-.9 1.7-1.3 2-2.4.2-1 1-1.5 2.6-1.5 1.7 0 3 1.5 1.9 2.1-1.7.7-2 1-2.4 1.9l-.5.9h1c.7.1 1.2.3 1.3.5.2.6-.4 1.8-1.4 2.7-.7.7-1 .8-3 1-2 .1-2.2 0-2.3-.4v-1.2c.2-.5.1-.6-.4-.6l-1.8.6c-1 .5-1.5.6-2.2.5-.8-.2-.8-.2-.7-1.2.1-.7.4-1.3 1-1.9 1.4-1.5 1.9-2.1 2-2.8a25.2 25.2 0 0 1 3.2-7.6 11 11 0 0 1 1.8-3.8c1.1-1 1.3-1.7 1.2-6.7 0-4.3 0-5.2.8-8.8a38.3 38.3 0 0 1 1.3-6c0-.4.1-1 .3-1.2l.6-2.8c.4-2 .4-2.6 0-4.1-.6-3.5-2.3-6.7-3.6-7.2-.2-.1-.6-.7-.7-1.3l-1.3-2.5a20.2 20.2 0 0 1-2.7-4.6c0-.5-1.5-2.6-3-4-.9-.9-1.8-2-2.2-2.6a31.2 31.2 0 0 1-6.1-12.5c-.6-2-.8-5.6-.3-6l.2-1.4c0-1.5-.2-1.8-4-4.8a12 12 0 0 1-4-5c-.6-1-.7-1.7-.7-3.1 0-1.4-.1-2-.5-2.3l-.8-.4-.4-.6-1.1-2.7a7.8 7.8 0 0 1-.6-5.7l.5-3.2.4-3c.1-.8 0-1-.6-1.8a21 21 0 0 1-2-3.5c-1.1-2.2-1.4-2.5-2-2.5-.4 0-1.1-.4-1.6-.8-1.1-1-1.6-1-1.7-.2-.3 1.3-.4 6.8-.1 8a747093.2 747093.2 0 0 0 1 40.3 51 51 0 0 1 0 8.8c-.3 2-.3 4 0 7.5.2 5.4.1 9.6-.4 18-.4 5.8-.4 5.8.2 6.7.5.8.5 1 .2 2.8-.7 3.8.4 5.2 2.7 4 .8-.4 1.3-.4 3.8.3 1.2.3 1.5.6 1.7 1.2.2.6.6.9 1.7 1.3l1.8.5a116.2 116.2 0 0 1 9.8 3.2c2.5.8 2.7.9 2.8 1.6 0 .4.4.8 1 1.2 1 .6 1.2.8.9 1.4-.2.3-.5.3-1.8 0l-2.4-.8-1.3-.5c-.2 0-1.2-.3-2.1-.8l-3-1-2.5-.9-1.7-.5c-.5 0-2-1-3-1.7-.3-.3-1-.7-1.5-.9-.9-.3-1-.2-1.4.3-.3.4-.5.8-.4 1.3.6 2.4.5 2.6-1.1 2.6-.7 0-1 .2-1.1.6-.3.7-1.2 1-3.2 1-1.5 0-3.5.8-4 1.7-.4.5-.7.7-1.9.7l-1.4.1 1.5.4c1.7.4 2.2.9 1.8 1.6-.2.5-.6.5-2.4.5l-4.4-.4c-2-.3-2.5-.3-3.2 0l-.9.3 1.7.9 1.9.8 1.6 1 1.7.9c.7 0 2.2.9 2.2 1.3 0 1-1 .8-3.3-.2a78.7 78.7 0 0 0-8-3.4c-4-1.2-7.3-2.7-8.7-4-1-1-1.2-2.2-.5-3.2.4-.6.4-.6-.3-.6-2.2-.2-2.8-.2-4.8 0-2 .3-2.2.4-2.1 1 0 .2.4.7 1 1 .8.4 1.2.8 1.4 1.4.3 1.1 1.3 1.7 4.6 2.8l2.8 1 6 2.2c.8.3 5.1 2 5.3 2.2.1.2 3.8 2 4 2 .3 0 3.8 1.4 7.2 3 1.5.8 3.2 1.5 4 1.8.7.3 1.8 1 2.5 1.6 1.2 1 1.8 1.3 8 3.2.7.2 1.4.3 1.7.2.2-.1.8.2 1.6 1 .7.8 1.4 1.3 1.7 1.3.8 0 3.7.8 4 1 .2.2.8.3 1.4.3a9 9 0 0 1 2 .3c.5.1 2 .3 3.1.3 3 .2 4 .6 4 1.4 0 .3-.2.7-.5.9a36.2 36.2 0 0 1-17-3.3l-2-1c-.5-.4-1.3-.7-1.6-.7-.4 0-1.3-.3-2-.7a14 14 0 0 0-2.2-.8c-.4 0-1.3-.4-2-.8l-2.5-.9c-1.5-.5-3.4-1.3-6.2-2.6l-4-1.8c-2-.8-5-2.4-5-2.8 0-.2-4-2.3-4.6-2.3a69.7 69.7 0 0 0-12.7-4.6c-1-.3-2.1-1-3.2-1.9-.8-.8-2-1.5-2.4-1.6-.9-.2-1-.5-1.5-2.8-.4-2-1.2-2.2-9.2-2a1556.9 1556.9 0 0 1-17.2.2c0 .2-.3.2-.6.2-.4 0-.7 0-.7-.2 0-.4-.5-.3-1 .1-.3.4-.3.4.4.4l4.3.3a435 435 0 0 0 13.4.8l5.7.3c2.1.2 2.4.3 2.1 1-.2.6-.5.7-1.8.8h-2.6a60.3 60.3 0 0 0-11.4-.1c-.4.3-.3.3 1.1.4h2.5a31 31 0 0 1 8.1 1.3v.6c-.3.5-1 .5-20.8.3-4.5 0-6 .2-6.5 1-.2.3.7.7 2.3.8a1130.6 1130.6 0 0 0 6.7.9c1 .2 3 .4 4.7.4 2 0 3.2.2 3.5.5.5.4.5 1.5 0 1.7a8 8 0 0 1-4.1-.3 3 3 0 0 0-2-.2l-1.5-.1c-.3-.3-2.2-.4-5.7-.4-4.8 0-5.4 0-5.7.4-.1.2-.2.5-.1.6l2.4.2c2 0 2.4.1 2.7.5.5.9-.4 1.4-2.6 1.5-1.3 0-2.1.2-2.3.5-.3.3-.5 3.1-.5 8 0 2.5 0 2.7-.7 3.3-.5.4-.6.9-.6 1.6l-.3 2v2.2c.7 3.1.6 4-1 7.7l-.6 1.6c-.4 1.6-1 2.4-2.8 3-1.4.6-1.6.6-2.3.3-1-.4-5.5-.4-7.1 0-2.8.8-25 .8-27.9.1-1-.2-1.5.4-1.3 1.7.4 2.3.3 2.2 2 2.2a146.9 146.9 0 0 0 19.3.9c.2.3.2.4-.2.6-1 .5-2.6.6-3.2.1-.6-.3-.7-.3-1.2 0-.4.2-1.7.4-4.2.4-3.2.1-3.8.2-4.2.6-.3.3-.8.5-1 .5l-6.3-.9-.8-.2v4.8l-.2 5.4c-.1.4 0 .9.4 1.4.5.6.6.8.3 1.4-.2.4-.4 2.2-.4 4.6 0 2.1-.2 4-.4 4.3-.2.4-3.6 2-4 2l-.8-.3zm1.9-3.4c1-.5 1.2-1 1.2-4.4 0-2.2 0-2.4-.6-3-.8-.9-.8-1.3-.4-6.1.2-2 .4-7.9.4-13.5l.3-21.5.2-11.5-.7-1c-.7-1.1-1.3-1.5-3.6-2.4-1-.4-1.2-.4-1.5 0-.3.2-.4 3.1-.4 16.3 0 8.8-.2 16.2-.3 16.5-.2.2-.5.4-.9.4h-.7l.2 6.7c.1 5.6.2 6.7.5 7.1.4.4.4.7.2 2.5a7.6 7.6 0 0 0 0 3.4c.3.8.3 1.6.2 1.9v.7a29 29 0 0 1 1 5c0 .5.5 1.2 1.2 2 1.3 1.6 2 1.7 3.7 1zm-9.1-12.5c.3-13.7.3-14-.2-15s-.5-1.2-.2-1.8c.5-1 .8-6.4.5-7.8-.2-.5-.3-3.6-.4-6.8a26.2 26.2 0 0 0-.6-7.4l-.1-1c-.4-.2-.5 2.4-.7 17l-.2 19.8-.1 4.6.8.3h1l.2-2zm-4.8.2c.7-.7.9-2.2.3-2.7a210 210 0 0 0 .6-31.3c-.2 0-.3 1-.3 5 0 4.3 0 4.9-.4 5.2-.4.3-.5 1-.5 7 0 6.7 0 6.9-.6 7.4-.5.4-.6.8-.6 2 0 .9-.1 2.3-.3 3.2-.3 1.3-.4 1.6-1 1.6a1 1 0 0 1-1-.3c-.2-.3-.5-.4-.7-.3-.5.2-.6 1.3-.2 1.6.2.1.3.5.3 1 0 1 .6 1.2 2.3 1.2 1.2 0 1.5 0 2-.6zm-4-4.2c.5-.8 1-5.1.8-6.9-.1-1 0-1.5.4-2.1.4-.7.5-1.3.5-4 0-1.8.2-3.8.3-4.5.2-.7.3-3 .4-4.9 0-5.2.4-10.6.7-10.7.2-.2 0-14.5-.3-14.8-.1-.1-.9-.2-1.6-.1h-1.5l-.2 1.1c-.4 2-.2 6 .4 7 .4.8.4 1 0 1.8a6 6 0 0 0-.3 2 316.9 316.9 0 0 0-1.3 32.3c0 4.5-.2 4.2 1 4.4.2 0 .4-.3.7-.6zm36-10.4h-.5c-.2 0-.1.1.2.2.3 0 .4-.1.3-.2zM69 253.6c0-.5-.1-.9-.2-.9-.2 0-.3.5-.3 1.1 0 .6.1 1 .3 1l.2-1.2zm37.5-9.6c-.4-.3-.6.4-.5 1.4l.2 1.1.2-1.2V244zm-58.4.8c0-.6-.2-1-.4-1-.3-.1-.5.6-.3 1.4.3 1 .7.7.7-.4zm-16.5-6.1c-.2-.3-1-.3-1.5 0-.3.2-.1.3.6.3.6 0 1-.1.9-.3zm-7-.4h-.7.7zm24.8-5.1c-.2-3.7-.5-5.2-.9-4.5-.4.6-.5 5.3-.1 7.4l.3 2 .4-.9c.3-.6.4-1.4.3-4zm25-.5v-5c.3-1.4-.2-1.1-.6.4-.5 1.8-2.2 2.7-3.7 2-.4-.3-.8-.3-1.6-.1-.8.2-1.2.2-1.4 0-.5-.5-1.4-.3-2 .3-.6.6-.6 1-.7 3.3a9 9 0 0 0 .2 3l1 .2h.8V234c0-2.3 0-3 .4-3.2.8-.7 1 0 1 3 0 2.5.1 3 .5 3 .8.2 1.4-1.2 1.5-3.6.1-2.2.2-2.3.8-2.3.9 0 1.1 1.1.9 4-.2 2.4 0 2.6 1.7 2l1.1-.4v-3.8zm-21.3.8c0-.5 0-1.2-.3-1.5-.3-.6-.3-.6-.5 0a10 10 0 0 0 0 3.8l.1.9.4-1.2a9 9 0 0 0 .3-2zm55.7-2.1c.5-.2.6-.6.1-1-.5-.5-1-.2-1 .5s.2.8 1 .5zm58-2.8c1.4-.2 2.5-.5 2.6-.6 0-.2-1.6-.3-4-.5a115.9 115.9 0 0 1-7-.3l1.2 1c1 .6 1.3.7 2.8.7l4.3-.3zm-57.5-1.4c.5-.3.5-.4 0-.8-.4-.5-.4-.5-1-.2-.2 0-.4.3-.4.6 0 .8.6 1 1.4.4zm4.4 0-1.4-.4c-1 0-1.2 0-1.2.4 0 .3.3.4 1.3.4s1.4-.1 1.3-.3zm44-1.5-.3-.2c-.2 0-.2 0-.1.2 0 .2.2.3.2.3.1 0 .2-.1.2-.3zm-82.9-5.5c.3-2 .6-12 .4-11.8a61.7 61.7 0 0 0-.7 14.6l.3-2.8zm90.5 3.3c.4-.4-.7-.6-3.8-.6-2.7-.1-3.7 0-4 .2-.4.3-.3.4 1.1.6 1.6.1 6.5 0 6.7-.2zm17 0c0-.3-.7-.4-2.2-.5-2.6 0-3.5 0-3.2.5.4.4 5.4.4 5.4 0zm-33.5-2 1.3-.5-1.8-.2a220.6 220.6 0 0 0-25.3.3c-1.3.2-2 .1-2.5-.1-.4-.2-1-.3-1.6-.2-.6 0-1.7 0-2.5-.2-1.3-.2-1.7-.1-2.6.3-.6.4-1.5.6-2 .6l-.7.1a95 95 0 0 0 14 .1c1.5.2 4.5.2 6.5.1 2.4 0 3.8 0 4 .2 0 .1 2.2.2 6 0 4.6 0 6.1-.1 7.2-.5zm25.5-.4-1.4-.5c-1.6-.6-5.7-.7-7.8-.2-1 .3-2 .3-3.4.2h-2c0 .3 1.7.4 4.8.4a1494.5 1494.5 0 0 1 9.8.1zm1.5-.1c-.5-.2-.9-.2-1 0-.2.1 0 .2.7.2 1 0 1 0 .3-.2zm-39.3-2.1c0-.2-.2-.3-.4-.3s-.4.1-.4.3l.4.2.4-.2zm10.1-.5h-.8l.4.1h.4zm-31.4-1.4c2 0 2.2-.3 1.7-2.2l-.4-4a566.4 566.4 0 0 0-.7-13.1v-6.8c0-3.5 0-6.8-.2-7.9-.2-1-.3-3-.3-4.4v-10a43.9 43.9 0 0 1 .1-8.4c0-.3 0-2.7.2-5.3a536.5 536.5 0 0 0 1.1-27.7l.3-8.3c0-.4-.2-.5-.6-.4-.3 0-.6 0-.7-.2-.1-.2-.3-3.3-.3-6.9 0-8.1-.3-12.7-.7-13a.8.8 0 0 0-.6 0c-.3 0-.4 1-.4 3.9a768.5 768.5 0 0 1-.7 31.9c0 4.4-.2 8.2-.3 8.4l-.3 4.8c0 2.4-.1 6-.3 8l-.6 12.3c-.3 7.5-.4 13.6 0 18.7.2 4.4.2 5.4-.2 6.2-.2.8-.3 3-.4 9.7a1163.5 1163.5 0 0 1-.1 13.3c0 1.3 0 1.4.9 1.5h3.5zm7 0c.2-.3.5-.3 1.3 0 .6.1 1.8.3 2.8.3 1.4 0 1.8-.1 2.3-.6.5-.5.5-.7.4-2.7-.1-1.5-.3-2.3-.6-2.5-.4-.3-4-.3-4.5 0-.2.1-.4.9-.5 1.7 0 .8-.2 1.5-.3 1.6-.3.4-.7-.5-.8-2-.1-1.2-.3-1.4-.8-1.6-.8-.4-.8-1.4 0-2.5.6-.6.7-1 .7-2.3-.1-3.8 0-10.5.3-11.5l.4-8.9a227 227 0 0 1 .8-19l.2-5.8-.2-6.8-.3-11c0-6.8-.4-11-.8-11-.3 0-.4 1-.5 4.8 0 2.6-.2 6.5-.4 8.5-.5 6.9-1.2 16.4-1.2 18 0 1.4 0 1.6-.5 1.6s-.6-.2-.6-1.3l.4-4.4.3-7.8.2-6.5c.3-2 .6-10.2.6-17.8 0-4.5 0-5.6-.4-6.3-.2-.5-.4-1.5-.4-2.4 0-1.2 0-1.6.5-1.8.4-.2.6-.2 1 .2.5.4.6.8.7 4.2 0 2.1.2 3.9.3 4 .3.3.5-.8.3-2.4 0-.9 0-2.8.2-4.3.2-2.7.6-3.7 1.4-3.4.3.1.4.5.2 2-.4 4.5-.4 8.6-.1 14.9a881.7 881.7 0 0 1 .7 32c0 4.1-.2 7.6-.3 7.8l-.3 8.3c-.1 9.5-.6 26.9-.8 27.4-.3.8.4 1.1 2.4 1.1l2.2-.2c.4-.3.5-26.4 0-26.9-.1-.2-.2-.1-.2.3 0 .5-.7 1-1 .7-.3-.1-.3-2.2.4-21.5.3-11.2.6-26.7.6-35.5 0-1 0-3.2-.3-4.7-.4-3.9-.2-6.4.3-6.8.9-.5 1.1.2 1.3 4.4.4 8.5-.2 47.8-1 55.7-.1 1.9-.1 2 .6 2.2.9.3.9.4 1.1 3 .2 2 .2 4.1.2 19.2V208.4h1.5a5 5 0 0 0 1.8 0c.3-.3.5-6.7.7-19.2.1-3.7.3-6.8.4-7h.7c.4.1.4.8.3 8-.4 16.1-.3 17.9.2 18.2.4.2 2.5.2 7 .1l9.4-.2c1.6 0 3.4-.2 4-.3 2-.5 3.2.4 2 1.5-.5.4-1 .4-4 .2h-5c-1.2.2-1.4.3-1.4.8 0 .4 0 .7-.2.8-.2.1-3 .2-6.3.2-5.5 0-6 .1-6.3.6-.2.3-.4.8-.4 1.2 0 .5-.1.8-.4.8-.3 0-.4-.3-.4-1 0-.6-.1-1.2-.3-1.3-.4-.4-2.5-.5-3-.1-.5.3-1 4.5-.5 4.9.4.4 8.3.3 14.3-.1 2.3-.2 7.6-.4 11.7-.4 9.2 0 12-.3 14.2-1.4 1-.5 1.7-1 2-1.5.1-.4.9-1 1.6-1.4l2-1.1c1.4-.8 1.5-1.7 1.6-9.2 0-3.8 0-7.4.2-8 .5-3.7.7-23.9.2-25.8a141 141 0 0 1 0-15c.3-.7.4-16.5 0-20.9-.1-2-.1-5.6 0-8.7l.2-5.4-1-1a8 8 0 0 1-2.7-4l-.8-3.5c-.3-1.3-.5-3.1-.5-4 0-1.4-.1-1.6-.7-1.9-.5-.3-.6-.5-.7-2.4 0-1.2-.3-2.3-.5-2.5-.1-.3-.2-.6-.1-.7.2-.4 1.2-.3 1.2.1 0 .3.1.7.3 1l.3.6.2-.7.2-4c0-3.8-.2-5.1-1.6-7.9-.8-1.5-2.3-3.1-3-3.2-.7 0-1-.2-1.3-1-.2-.7-.9-1.6-1.2-1.6-.2 0-1.2-1-2.4-2.2a18.5 18.5 0 0 1-3.4-4.2l-2-3.3c-.7-1-.8-1.1-1-.7-.2.3-.3 4.6-.4 11 0 5.7-.2 10.6-.2 10.8l-.3 8.1a86.7 86.7 0 0 1-1 14.6 84 84 0 0 0-.4 2.8c0 .3-1.3.2-1.6-.2-.2-.2-.2-.6.1-1.4l.5-3a63.1 63.1 0 0 0 1-13.4l.4-5.6.5-23.2c.2-10.3.2-10.7.6-11 .4-.4.6 0 .7 1.5.1 1.4.4 1.9.4.7 0-.8.2-1.4 1.4-4 1.2-2.7 1.2-3.1.5-3.3-.5-.1-.5-.4-.6-2.6V50l-1.2-.4c-1.2-.3-1.7-.1-1.7.8 0 .3-.2.7-.4 1-.3.4-.5.4-1 .2-.8-.4-.8-.5-.1-2.5.4-1.3.5-2 .4-3.4v-2l.3-2.4c0-2.1.5-9.7 1.1-17.2.3-3.4.2-13.6-.2-14.4 0-.2-.3-.4-.4-.3-.2 0-.3.8-.2 2.2 0 2.7-.1 3.8-.8 3.8-.4 0-.5-.3-.7-1.6-.2-.9-.6-2-.9-2.5-.3-.5-.4-1-.3-1.3.2-.7-.5-1.8-.9-1.5-.2.2-.2.7 0 2.2.3 1 .4 2.2.3 2.6 0 .4 0 1.8.3 3.1 1 6 .2 29.5-1 31.2-.2.2-.5.3-.8.3-.8-.1-.9.5-1.1 5a185.7 185.7 0 0 0-1.3 22.5c0 4 0 4.7.7 7 .8 3 1 6.7.3 8.4-.3.6-.5 1.5-.5 2 0 .7-.1.8-1 .8-.8 0-1.3.2-1.7.7l-1.4 1.3c-2.1 1.4-2.2 1.6-2.2 6.8 0 6.1.2 10.5.6 12.2.3 2 .3 2.7-.1 3.3-.4.5-.5.5-.8.1-.8-.7-1.3-7-1.3-15.8 0-2.8-.1-5-.2-5-.5 0-.8.6-1.4 3-.6 2-.6 2.7-.4 3.7.2 1 .2 1.2-.3 2a6.6 6.6 0 0 1-4.2 3c-.8.2-1.6.5-2.2 1l-2.4 1.4c-.7.3-1.4.8-1.5 1-.1 0-.7.3-1.2.3-.6 0-2.2.6-3.6 1.2a98 98 0 0 1-3.8 1.5l-1.2.4V122a106.4 106.4 0 0 0-.8 13.6 665.7 665.7 0 0 1-.8 19.6c0 2 0 3.8-.2 4-.2.1-.3 18.1 0 18.1l.4-1.1c.4-1.5.7-2 1-1.7.5.3.4 1.3 0 1.7a47 47 0 0 0-.8 10l-.3 7.3a62 62 0 0 0 .1 7.4c.2 1.8.3 4.3.3 5.5 0 1.3.2 2.9.4 3.7.3 1 .3 1.5.1 1.9-.4.8-.3 4.4.2 4.9s3.3.5 3.7 0zm16.5-32 .3-16.2c.3-12.8.4-40.6 0-50-.2-9 0-10.4.8-10.4.5 0 .5.2.6 2l.3 5.7a903.4 903.4 0 0 1-1.1 76.5c-.1.2-.4.3-.6.3-.4 0-.4-1-.3-8zm6.4 7.3c-.1-.2 0-.6.1-1 .3-.5.3-7.6.2-40.4l.1-31.7c.2-11.6.2-13.5-.2-13.9-.5-.5-.4-1 0-1.7.6-.8 1.6-.8 2 0a9559.6 9559.6 0 0 0 0 44c-.1 22-.4 41.9-.6 43.4-.2 1.3-1.3 2.2-1.6 1.3zm-12.2-3.7a162 162 0 0 1-.2-27.5 726.2 726.2 0 0 0-.3-45.1c0-2.6 0-2.7.6-2.9 1-.2 1.4.4 1.4 2.1l.6 20.5-.1 4.5-.3 9.4c0 2.8-.1 7.2-.4 9.8a240.7 240.7 0 0 0-.6 23.7c.2 4 .1 6.1-.3 6.1-.1 0-.3-.2-.4-.6zm19.9-1.8c-.1-.1-.2-2.6-.1-5.4a2071.9 2071.9 0 0 0-.7-53.6c.3-.3.7-.4 1-.4.3.2.5 1.4.8 9.2a2684 2684 0 0 1 0 50c-.5.6-.8.6-1 .2zm12.4-1.4c-.2-.5.3-6.2.7-7.6.3-1 .7-9.3.6-10.4 0-.5 0-2.3.2-4.2a268 268 0 0 0 .6-18.7l.3-6.4c0-3.4.2-7.3.4-8.7l.3-6.9c0-2.4.1-5.6.3-7.2l.4-7.5c.1-2.7.3-4.6.4-4.6.2 0 .5.4.8.9.4.9.4 1.2.1 3.8-.2 2-.2 8.3-.2 19.1a888.3 888.3 0 0 1-.7 40.8c-.1 3.3-.2 3.8-.6 3.9-.4 0-.6.5-.7 1.6a36.6 36.6 0 0 0-1.1 8c-.2 3-.6 4.5-1.3 4.5-.2 0-.5-.2-.5-.4zm9-12.1c-.1-.2 0-3 .1-6a479.2 479.2 0 0 0-.1-40.8l-.2-9.2c0-.7 0-1 .3-1s.4.4.5 2l.3 4.8v3c-.2.3-.2 1.4 0 3.1l.5 7.2a49.6 49.6 0 0 0 .4 6.6c0 .1-.2 4.8-.2 10.5 0 13-.4 20.1-1.1 20.1a.6.6 0 0 1-.5-.3zm-15.9-5.5c-.1-.3.1-1.6.4-2 .2-.2.5-1.7 1-4.4a449 449 0 0 0-.7-34 223 223 0 0 1 .4-27.4c.1-7.1.4-9.3 1.2-9.4.2 0 .6 0 .8.3a67.6 67.6 0 0 0-.4 13.4 1629 1629 0 0 0 .1 28.4v16.8c.1 12.2-.1 15.6-1.2 17.8-.4.7-1.3 1-1.6.5zM157 139c-.1-.2.3-4.7.5-5.3 0-.2.4-.3.7-.3.5 0 .6 0 .4 2.3a18 18 0 0 1-.4 3c-.3.5-1 .7-1.2.3zm-5.8-37.6a149.2 149.2 0 0 0 .4-18.3 219.6 219.6 0 0 1 .6-28.8c.2-3.5.4-4.5 1-3.9.3.5.2 7.1-.3 11.2-.2 2-.2 5.6 0 14.5.2 12.6.1 24.1-.3 25.2-.3.7-1.2.8-1.4 0zm-42 109.5c0-10.8.3-17 .5-19.2.2-1.3.3-4.2.2-7.8l-.2-6c0-1.8.6-16 .9-18.7.3-3.9.7-15 1-24.7 0-3.6.2-6.8.3-7 .3-.6.2-10.8-.2-13.5 0-1 0-3 .2-4.5.2-2 .2-4.3.1-7.1l-.2-4.2-.8-.5c-1-.6-2.8-.7-3.3-.2-.2.1-.3.5-.3.9 0 .3-.1.7-.3.8-.2 0-.3.7-.2 1.8v5.6a276.6 276.6 0 0 0-.9 15.7c-.2 3.9-.2 5.5 0 6.5.4 1.8.4 7.5 0 8.5-.3 1-.4 9.5 0 11.6l.2 1.6.2-1.4c.4-2.2.7-5.9.8-10a748.6 748.6 0 0 1 1-17.7l.2-9.2c-.1-14.4-.1-13.3.4-13.3.4 0 .6.2.8.9.2.5.6 1.3 1 1.8.5 1 .5 1 .4 9.4a84.8 84.8 0 0 1-.7 15.8c.4 1.4-.2 6.4-.8 7-.7.6-.7 1.6 0 1.8.3 0 .5.3.5.8 0 .3-.2.9-.5 1.2-.4.4-.5.9-.5 2.5a90 90 0 0 0-1 10.9c-.2 4.4-.5 8.3-.6 8.7a55.3 55.3 0 0 0 0 15.4c0 1.1.1 3.4.3 5 .2 2.6.2 3.2-.1 3.5-.4.4-.4 1-.2 4.2l.4 4.9c.1.7 0 2-.1 3-.2 1-.3 3.5-.3 5.6a130 130 0 0 1-.1 11.6c0 3 0 3.4.5 3.7.3.3.6.3.9.1.4-.2.4-.9.5-5.8zm67 5.7c0-.2-.2-.4-.4-.4s-.4.2-.4.4.2.4.4.4.4-.2.4-.4zm46.8-18.3c.3-.3.4-2.3.3-9.9a83.3 83.3 0 0 1 .5-11.5l-.4-25.5c-.1-3.5-.1-4.8.2-6.3.3-1.5.4-4.4.3-17.6 0-10.5-.1-16-.3-16.1-.5-.5-1.1 0-2 1.8-.5 1-1 1.8-1.4 2-.3.2-.8.5-1 .9-.3.5-.6.5-3.3.5-3.3 0-4.2.3-5 1.5-1.2 2-7.6 4-13.7 4.3-2.9.2-3.6.2-4.1-.2-1-.6-2.7-1-4-1-1.6.2-1.7.9-.3 2.4l1 1h2.9c2.9 0 3 0 3.3.7.1.4.5.7.8.8.4.1.5.4.5 1v.7l-2-.2c-2.3-.1-3.4.2-4 1-.4.7-1.1 3.6-1 4a7 7 0 0 1-.2 2.1c-.6 2.2-.5 2.4 0 4.2.7 2.5 1.4 4 2.4 5.1.6.8.9.7.9-.3 0-1.6 2.3-4.7 3.7-5.2.3 0 .5-.2.5-.4 0-.1.2-.2.5-.2.2 0 .6-.1.7-.3l1.7-.4c.8-.1 1.8-.3 2.1-.5 2.9-1.4 2.6-1.4 6.4-.6l3.6.6c1.5.2 2 .3 2.7 1 1 1 1.4 1.8 1.2 2.9-.1.6-.4.9-1 1.1-1.2.6-1.7 1.1-1.3 1.8 1 1.4-.2 3.5-2.8 5.6-2 1.5-2.3 1.6-4.3 1.2-1-.2-2-.5-2.2-.8-.5-.5-.5-.5-1.1.2-1 1.2-4 .7-4-.7 0-.3.3-.7 1-1l1.4-1c.7-.8 1-.8 1.8 0 .6.7.7.7 2.6.5 1.9-.1 2-.2 3.3-1.3.7-.6 1.2-1.2 1.1-1.3a8 8 0 0 0-2.2-.2c-3 0-4-.7-3.5-2.2l.3-.7 2.3.2c1.2 0 2.7.2 3.1.3.8.1.9 0 .9-.4 0-.3.3-.8.6-1.2.3-.4.4-.8.3-1-.3-.2-5.7-1.3-7-1.3-.6 0-1.5.3-2 .5a8 8 0 0 1-2.2.7c-.6.1-2 .6-3 1.1-1.4.7-1.9 1-2.2 1.8-.7 1.6-.5 2.5.6 3.1.5.4 1 1 1 1.3.1.4.4 1 .6 1 .6.6.4 1.6-.4 2-1.5.8-2.4.4-3.5-1.7-.7-1.2-1.1-1.2-1.3-.2-.1 1 1.6 3.3 4.2 5.3l2.7 2.4 2 1.4c1 .6 1.7.7 4 .8 3.9.2 4.7.1 5.8-.4l1.2-.6c.1 0 .7-.3 1.2-.8a8 8 0 0 1 1.7-1.1c.4-.2 1-.7 1.4-1.2.6-1 .6-1 .1-1.7-.3-.5-.7-1.6-1-2.6l-1-2.5c-.5-1-.3-1.6.3-1.9.5-.2 2 1.2 2.7 2.4.6 1.1.7 4.4.2 5-.4.4-.4.4 0 .6.6.2.5 1.5 0 2.5l-1.8 1.9c-.7.6-1.6 1.5-2 2.1-.5.9-1 1.2-2.1 1.6a9 9 0 0 1-2.2.5 7 7 0 0 0-1.8.4c-1.5.5-2.3.5-2.7-.1a6 6 0 0 0-3-1.7c-.5-.2-.7 0-1 .4-.7 1-1 3.5-.8 4.9.9 4 1.8 6.5 3.4 9.1 1.1 1.7 6.2 7.6 7 8 1 .6 1.6 1.3 1.6 2.2 0 .6.2 1 .9 1.7.8.8 2.8 4.3 2.8 5l1 1.4a26.6 26.6 0 0 1 3.8 7.3c.3.3.4.1.5-.6 0-.5.3-1.1.5-1.4zm-18.5-70c-1.5-.7-3-2-3-2.7 0-.9.8-2.5 1.3-2.7.5-.2 2 1.2 2 2 0 1.4 2.3 1.8 4.6.7l1.4-.6v-1.4c0-1 0-1.4.4-1.7.9-.6 2.6 1 3 2.7.2 1-.5 1.8-2.7 2.7l-2.7 1c-1.4.7-2.8.7-4.3 0zm-126 66.5c-.1-.2-.2 0-.2.4s0 .6.2.4v-.8zm-34.1-50.2.5-1.2c.5-.8 1.3-7.6.9-7.6-.3 0-1.5 2.2-2 4l-.8 2c-.5 1 .2 3.5.9 3.5l.5-.7zm78-16.7-.1.5v.4c.2-.2.2-.6 0-.9zm79-8.7 1.7-.4c1 0 2.2-.7 4-2.4 1.5-1.4 1.6-1.5 2.4-1.2.8.2 2.1 0 4.1-1 1-.4 2.6-.8 4.7-1 1.2-.2 1.4-.3 1.7-1.2.2-.5.3-1.2.2-1.6-.3-1.1.3-2.2 1.8-3 2-1.2 2-1.7 2.2-9.2 0-4.1.2-6.5.4-6.8.2-.5.2-1.4 0-3.6l-.3-3.4c0-.3-.1-.4-.6-.3-.9.2-1.5-.5-1.5-1.7 0-1.1-.4-2.1-1.5-3.3l-.9-1.2c0-.1-.4-.5-1-.8-1.6-.9-2.7-2.2-4.2-4.6a11 11 0 0 0-1.8-2.6l-1.4-1.1c-.4-.4-.8-.8-1-.8-.4 0-1.1-.8-1.1-1.4 0-.3.3-.9.6-1.2.9-.8 2-3 2-3.9 0-.4-.1-.6-.5-.6-.7 0-1-.5-1.2-2.3-.3-2.3-1-5.3-1.8-7-.6-1.2-1.4-2.2-3.7-4.6a30.6 30.6 0 0 1-3.8-4.3c-1.3-2.4-2.5-3.2-2.5-1.6 0 .5-.2 1.1-.4 1.4l-.4 1c0 .4-.3 1.1-.7 1.8-1.4 2.7-2.5 5-2.6 5.7-.2.9.2 3.3 1.1 6.5l.5 2c0 .8.4 1.7 1 3l.6 1.4-.8 1.4c-.6 1.1-1 1.4-1.4 1.4-.6 0-.7 0-.5-1.3.2-1.2.1-1.3-1-2.1-1-1-1.5-1-1 0 .2.4.3.9.2 1-.2.4-1 .4-1.4 0-.3-.3-1.6-.2-3.5.3-2.2.6-2.9 1-4 2.6-1.1 1.7-1.6 3-1.6 4.3 0 1.2-.5 3-1.1 3.7-.5.6-1.7 1-2.1.6-.2-.3-.2-.8.1-2.2.5-2 .5-2.7-.5-4.4-.6-1-1.5-1.7-2.4-1.7l-1.4-.4-1.8-.5c-.8-.2-.8-.2-.5.4.1.4.6.8 1 1 1 .3 1.5 1.2 2 3.4.7 3.4.3 6.4-.8 7.1-.8.5-1.7.3-2-.5-.2-.4-.7-.8-1.2-1-1.7-.6-2.5-1-2.5-1.3l.4-1.2c.2-.6.3-1.1.1-1.7l-.4-2.7c-.1-1.5-.3-2-1-3-1.3-1.5-2.7-5.3-2.4-6 .3-1 1-.4 2 2 1.3 2.6 2 3.4 2 2 0-.4-.2-1.4-.6-2.3-.3-.8-.7-1.8-.7-2.2-.3-2-.6-2.7-2.2-4.7a9.5 9.5 0 0 0-2-2.1c-.6 0-1.8 1.7-3 4-1 2.2-1.3 3.3-1.6 8.7l-.2 2 1.1 1.4c.6.8 1 1.6 1 1.8 0 .2.5 1 1 1.7.5.8 1 1.5 1 1.7 0 .4 3.2 3.3 4.1 3.8 1.2.6 3.9 2.9 4.4 3.7.2.4.7 1 1 1.2l.6.4.2-1.5c0-1.5.1-1.6.8-1.6 1.2-.2 1.6.8 1.3 2.9l-.2 11.6.1 9.9.7 2.5c.4 1.4 1 2.7 1.1 2.9l.8 1.3c.6 1.2 2.7 3.4 3.6 3.8 2.3 1 4.2 1.6 5.4 1.7.7 0 1.7.3 2.1.5.8.4 3.3 1 5.6 1.4 1.7.3 4.9.1 6-.4zm3.3-6.9c-.6-.7-.5-1.3.3-1.7.6-.3 2.7-.8 3.8-1 1 0 1 0 1 .8 0 2.1-3.6 3.5-5 2zm-14.2-2.2c-1.3-.2-1.6-.4-2-1.5-.7-1.6.2-2.6 1.3-1.4.3.3.6.5.8.5.4 0 1.5 1.1 1.5 1.5 0 .7-.7 1-1.6 1zm10.6-.2c-.5-.2-.4-1.6.2-2l1.3-1.5 1.2-1.4c.5-.3 2.1-.2 2.7.2.6.4 1 .4 2.4-.3.5-.2 1.5-.4 2.2-.4 1.4 0 1.5-.1 1.4-1.3l-.3-2.4a6.4 6.4 0 0 0-.8-2.8c-.5-.7-3.5-2.4-4.2-2.4-.2 0-.9-.5-1.5-1-1-.7-1.3-.9-2.4-.9a12 12 0 0 1-2.4-.3c-1.2-.3-1.2-.3-2 .6-.7.6-1.2 1.7-1.8 3.7a14 14 0 0 0-1 6v3.1l1 .4c1.5.7.8 2.4-1 2.4-.8 0-2.9-1.5-3.4-2.4-.5-1.2-.5-2.5.1-3.4a5 5 0 0 0 .7-1.6c0-.5.5-1.6 1-2.5 1.5-3.4 1.9-5 1-5-.7 0-1.6-1.8-1.4-2.8.2-.4.1-1 0-1.5-.2-.6-.1-1.1.3-2.1.4-1.2.6-1.3 1.3-1.3.5 0 .7.1.8.5 0 .4.3.6.8.7 1 .2 1.2 1 .6 2.4-.5 1-.3 1.7.3 1 .4-.4 2.7-.3 4.5.1.9.2 2.8.6 4.3.7 3.2.4 4 .6 6.3 2 2.7 1.8 3.2 3.1 2.5 5.8l-.8 3.4c-.6 2.8-1 3.5-2.3 3-.6-.2-.9-.1-1.7.5-.6.3-1.3.6-1.6.6-.3 0-1.4.3-2.4.7a21.5 21.5 0 0 1-4.6 1.5H201zm-20-4.9c-2-1-4.1-3.2-4.1-4.2 0-.5 1-2.6 1.3-2.6l1 1.1c.3.6 1.1 1.7 1.7 2.4.5.6 1 1.3 1 1.6 0 .2.2.5.5.7.7.4.7 1 0 1.3-.3.2-.7.1-1.5-.3zm18.7-1.8-.5-1.5c0-.5-.3-1-.4-1l-.2-.7c0-1.3 2.2-1.7 3.3-.6 1 1 .9 2.1-.2 3.4-.9 1-1.7 1.2-2 .4zm5.3-2.8c-1.1-1.2-1.3-2-.8-3 .5-.8 2.1-1.7 2.6-1.4.2 0 .5.7.8 1.3.7 1.5.5 3-.4 3.7-.8.6-1.4.5-2.2-.6zm-25-8c-.6-.2-.7-.5-.7-1.2 0-.9-.1-1-.8-.9-1 .1-1-.5-.2-2.2.4-.7.7-1.5.7-1.7 0-.2.3-.5.7-.7.7-.3.8-.9.2-2-.3-.5-.4-.9-.1-1.4.1-.4.4-.8.6-.8.3 0 .6.4.9.8l1.2 1.5c.4.4.7 1 .7 1.2 0 .3.4.7.9 1 1 .6 2.7 2.7 3 3.7.2.9-.8 1.7-3.3 2.5-2.4.8-2.8.8-3.8.3zm3.6-3.8c.3-.8 0-1.2-.8-1.2-.5 0-1 1-.8 1.6.3.8 1.3.5 1.6-.4zm30.5 1.5c-.1-.2.2-1 .6-2 .6-1 .8-1.7.6-2-.2-.3-.4-.1-.8.8-.6 1.2-1.6 2-2.6 2-.7 0-.4-.8.8-2.5.8-1.2 1.1-1.9 1.2-2.9.2-1.7.6-1.7 2.1-.4 1.2 1 1.2 1 1.2 2.7 0 1.5-.1 2-.8 3-.6 1-1 1.4-1.5 1.4l-.8-.1zm-11-4.7c-.6-.7-.7-1.1-.6-1.3.2-.2.3-1.4.3-2.8 0-2.5.1-2.9 1.7-6.5.4-1 .6-1.2 1.2-1.1.6 0 .7.2.8 1.2.1 1.2.2 1.2 1.2 1.4l1.4.4c.2 0 .6.7 1 1.5a6 6 0 0 0 .9 1.6c.5.3.3.9-1.2 2.7-2.9 3.7-2.8 3.6-4.4 3.7-1.4.2-1.4.1-2.3-.8zm3-1.8c.2-.3 0-.5-.4-.5-.3 0-.5.2-.5.6 0 .7.9.6 1-.1zm-17.3-1.7c-.4-.4-.1-2 .7-4.4.4-1 .6-1.3 1-1.3.8 0 .8.5.1 3.3-.7 2.8-1.1 3.3-1.8 2.4zm-4-.3c-.4-.3-.2-1.4.3-2.6l1-2.8.5-1.4h1.3c1.2 0 1.8.5 1.6 1 0 .2-.5.3-.9.3-1-.1-1.3.2-1.7 1.8-.6 2.6-1.6 4.3-2.2 3.7zm6.9-5.2c0-.5.2-.8 1-1 1.2-.6 2-.6 2.4 0 .6.6-.4 1.3-2 1.5-1.4.2-1.4.2-1.4-.5zm10.2-9.3V66c.2-.9-1-4-2-5l-2-3.2-1.6-2.5v-2.4c0-2 0-2.6.3-2.7.7-.2 1.6 1 1.8 2.3.1.7.6 2 1.3 3.2.9 1.6 1.3 2.1 2.2 2.5l1.8 1.2c.4.3 1 .5 1.5.5 1 0 1.7.9 1.7 2.4 0 1.2 0 1.2-.9 1.2-.7 0-.8 0-.8.7 0 .4-.4 1.1-1 1.9-1.3 1.6-2 2-2.3 1.1zm-80.6 45.6a50.3 50.3 0 0 1 5.6-2.2c1.8-.7 3.2-1.8 3.1-2.5 0-.9 0-1 1-1.5.7-.3 1-.8 1.2-1.3.3-1 1-1.7 1.5-1.7.2 0 .3-.3.3-1 0-.8 0-.9-.2-.4-.6 1.3-2 1.4-2.4 0-.4-1.2 0-3.6.6-4.3l1-.7c.5-.2 0-1-1-1.2-1.5-.5-1.8 0-2.3 3.5-1 7.1-1.3 8.4-2.2 9-.4.2-.9.4-1 .3-.6-.2-.4-1.2.8-4.7.9-2.6 1.8-7.4 1.5-8.2-.5-1.3-.7-1-1.2 1.1a86 86 0 0 1-2.4 10.4c-.6 2.7-2.3 3.4-2.3 1 0-1 0-1-.9-1.1-.7-.1-.8-.2-1-1 0-.5.2-1.4.5-2l.6-2 .7-2.7c1-3.8 1.2-5.5 1.3-7.6.2-3.2.3-3.5 1-3.5.5 0 .8-.2.9-.4 0-.3.3-.9.5-1.3.3-.5.5-2.2.7-4.9.1-2.2.4-4.8.6-5.6.4-1.4.8-4.5 1-7.2 0-.8.3-2.2.5-3.3.3-1.1.5-2.8.5-3.7 0-.9.1-1.7.3-1.8.1 0 .2-1 .2-2.7l.1-4.1c.2-1.5.2-1.6-.2-1.2-.2.2-.4 1.1-.5 2.9 0 1.4-.3 3-.6 3.5a26 26 0 0 0-.6 5.5 110 110 0 0 1-2.1 15.1c-.1.1-.4 0-.6-.1a40 40 0 0 1 .4-7.6l.5-12.7c.1-4.7-.5-16.5-.9-17.2-.4-.7-.3-1.7.1-2.3.5-.7.2-2.5-.8-5.4l-.6-2.2c0-.8-.7-.4-.9.4l-.3 4.5c-.1 2.6-.3 4-.6 4.4-.8 1.3-1 .3-.9-4.2v-4.2l-.9.4-1 .4c-1.2-.2-1.3.3-.7 4.2.2 1.8.4 3.5.3 3.8l.3 2.7c.3 1.1.4 2.2.3 2.5l-.7 11.4.4 4.9a164.2 164.2 0 0 1 1 8c.2.5.3 2 .4 3.2 0 1.3.2 3.6.4 5.1.6 5.9.3 11.5-.7 13-.3.5-.5 2-1.2 11.3l-.5 6c-.3 3.7-.2 3.8 2.1 3.2zm15.2-7.1c.2-.3.4-.8.3-1-.4-1.1-.4-1.9 0-2.5.5-.7.5-3.1.1-4-.2-.4-.4-.4-1-.3l-.8.4v2.2c.1 1.6 0 2.2-.5 3.9-.3 1-.5 2-.4 2.1.2.4 1.8-.2 2.3-.8zm-12.8-.3c.1 0 .3-.1.3-.4a87.3 87.3 0 0 0 2.4-9.4c0-.7 1.4-3.3 2-3.5.4-.2.6-.5.6-1.2v-1l-.6 1c-.6.9-1.1 1-1.8.4-.5-.4-.5-.4-.7 0 0 .3-.2.8-.4 1.1l-.2 1.8c0 1.7-1 6.8-1.7 9.3l-.4 2c0 .5 0 .7.1.4l.4-.5zm-6.6-6.3c-.3-.8-.5.5-.3 2.4l.1 2 .2-2V99zm16.8.2c.1-1 .1-1.2-.2-1.1-.6.2-.7.7-.6 1.8.2 1.2.5 1 .8-.7zm-18-4.6c.3-.5 1-.9 1.2-.9.6 0 .9-.2 1.8-1.5.7-1 .6-1.3-.6-1.4-.8-.1-.8-.2-1-1.4 0-1 .2-1.7 1-3.5l1.1-2.1V80c.1-4.4-.1-6.6-.6-6.4-.2 0-.4-.4-.5-2a6.3 6.3 0 0 0-.6-2.4c-.3-.3-.4-1.2-.3-4.6v-7c0-3-1.2-10.2-1.8-11.5-.3-.7-.4-2-.5-5.2 0-4.5-.2-5.4-1.4-6.3-.4-.4-.6-.4-.8-.2-.4.4-.4 4.3 0 5l.3 2.8.4 3 .6 4.4a3750.7 3750.7 0 0 0 .5 8.7l-.2 6c0 5.5-.3 9.8-.9 11.3-.4 1-1 4.2-1.3 6.4a50 50 0 0 1-1 4.5c-.6 2.6-.8 4.7-.3 3.5.1-.4.4-.6.5-.6.4 0 1.3-1.7 1.9-3.5.7-2.4 1.1-5 1-7a8 8 0 0 1 .3-3.4c.3-1.1.5-2.2.4-2.8-.2-1 .3-2 1-1.8.3.2.5.6.5 1.9a63.9 63.9 0 0 1-.8 12c-.3 2.7-1.8 6.9-2.8 8.2-.9 1-2.3 1.2-2.9.3-.4-.6-1.2-.5-1.2.2 0 .4 1.6 1.2 2.5 1.2.3 0 .7 0 .8.2l1 .4c1.5.3 1.9.2 2.6-.8zm27.5-.5c1.5-1 3-2.6 3-3a4 4 0 0 0-.2-1.2l-.3-.7-1.1.7-1.5.6c-.7 0-.6-.8.2-1.8.4-.5 1-1.3 1.2-1.8.4-.9.4-1.6-.1-1.2-.5.3-1.3-.8-1.5-2 0-.7-.4-2-.8-3-.3-1-.7-2.4-.8-3.3l-.6-2.3c-.3-.9-2.1-9.7-2.1-10.5 0-.2.2-.6.5-.9.6-.6 1-.2 1.2 1.8a49.8 49.8 0 0 0 2.4 9.7c.2 1.5.8 3.5 1.4 4.6l.6 1v-1a26 26 0 0 0-1.3-6.2c-.6-2-1.4-5-1.4-6 0-.6-.2-2-.5-3-.4-1.2-.6-3.2-.7-5.3 0-1.8-.3-5.1-.5-7.4-.3-2.3-.5-5.3-.5-6.9a16 16 0 0 0-.5-4 16 16 0 0 1-.7-2.5l-.1-1.3-.2 2.1a64.2 64.2 0 0 1-.7 5.4c0 .7-.2.9-.7.9-.7 0-.7 0-.6-2.9 0-2 0-2.8-.3-2.9-.2 0-.3.2-.3.7a4 4 0 0 1-.4 1.5c-.2.4-.4 1.1-.4 1.6s-.2 1.2-.4 1.7c-.5 1.2-.8 4.2-.5 4.2 1.2 0 1.3 6.8.2 13.6l-1 6a53.2 53.2 0 0 0-1 15.5l.6-1.2c.3-.9.6-2.5.7-4.2.3-3.5.6-4.3 1.3-3.4.5.6.6 4.5.2 6.2-.2.8-.4 2-.3 2.4 0 2-.1 2.4-.7 2.8-.8.5-1.4.3-1.9-.7l-.3-.8-.2.9-.3 3.4c0 2.4 0 2.7.7 3.3.7.8 1.8.9 2.5.1.4-.4.7-.5 2-.3.8 0 2 .4 2.7.7 2.4 1.2 2.7 1.2 4 .3zm-8-9.3c-.2-.6.4-1 1-.7.6.4.5 1-.2 1-.4.1-.7 0-.8-.3zm2.4-.2a44 44 0 0 1-.7-8.2l-.3-5c-.2-3.5 0-6 .7-6.4.5-.3.5 0 .6 3.3a90 90 0 0 0 1 12.1c.3 2 .5 4 .4 4.2-.2.5-1.4.5-1.7 0zm-29.5 7a3 3 0 0 0 .5-1.9c0-.6 0-1-.1-.7 0 .3-.2.5-.3.5-.2 0-.3.2-.4.6l-.4 1.4c-.3 1 0 1.1.7.1zm1-3.8c0-.2-.1-.1-.1.2 0 .3 0 .4.1.3v-.5zm-.7-3.6a109.6 109.6 0 0 0 2.6-15.9c.6-1 .8-.2.9 2.5 0 1.3 0 2.1.1 1.7l.4-1.6a71.6 71.6 0 0 0-.8-25.7c-.5-.7-.5-1.1-.5-3.5 0-2.3-.1-2.8-.6-3.4-.3-.3-.5-.8-.5-1 0-.3.2-.6.5-.7 1.3-.7.2-3-1.4-3-1.2 0-1.5 1-1.7 4.2-.1 3.2 0 3.8.8 4.2.4.2.7.7 1 1.6a76.2 76.2 0 0 0 1 4.3c0 .3.2 1 .5 1.4a73.4 73.4 0 0 0-.7 13.5 33.5 33.5 0 0 1-2.6 14.2c-.5.3-.6.7-.6 4.5 0 2.8.1 4.3.3 4.5.4.4.9-.2 1.3-1.8zm22.2-8.3.6-3.3a103.4 103.4 0 0 0 2.4-18.2c-.2-1.2-.3-1.3-.5-.6-.2.3-.4 1.5-.6 2.6l-.5 2.4a127 127 0 0 0-2.2 16l-.2 2.6v1.3l.5-1a5 5 0 0 0 .5-1.8zm43.3-2c0-.9 0-1-.7-1-.7-.1-.8 0-.8.6 0 .9.5 1.5 1 1.4.4 0 .5-.4.5-1zm-66-5.5a76.5 76.5 0 0 0-.1-20c-.3-.4-.4 1.2-.5 7.5-.3 12-.3 15.3.1 14.7.2-.3.4-1.3.5-2.2zm37.4-2.8a555.3 555.3 0 0 1-.4-8.4c-.2-1.5-.3-6.2-.4-10.3 0-7.1 0-7.7-.8-10.4a61 61 0 0 1-1.4-7.4c-.4-1.6-.1-2 1.2-2 1 0 1.1-.4.5-1.6a40.4 40.4 0 0 1-1.4-2.6c-.3-.4-.2-.6-1.1 3l-1.1 2.9c-.5.5-.5.9-.4 4 .2 3.4.4 5.2 1 7.6.3 1.3.3 1.6.6 4.4.3 2.8.7 9.2.8 12.7a31.2 31.2 0 0 0 3 12.7v-4.6zm1.6-10.2a49.9 49.9 0 0 1-.4-3.9c-.2 1.1 0 5.5.3 5.3.1-.1.2-.7.1-1.4zm-18.7 0c0-.2-.2-.1-.2.3 0 .5 0 .7.2.5v-.8zm1-4c0-1 .3-2.2.4-2.7.3-.8.2-1-.2-1.7s-.4-1.4.1-6.3c.5-4.3.6-6.8.2-8.5-.2-.9-.3-1.3-.4-1l-.2 1-.8 2.3a8.8 8.8 0 0 0-.4 4c.1 1.7.1 2.2-.2 2.4-.7.5-.7 1-.3 3.6a51.3 51.3 0 0 1 .5 9.2l.1.6.5-.6c.3-.4.6-1.3.7-2.3zM107.8 46c-.2-.2-.2 0-.2.5 0 .7 0 .7.3.3.2-.4.2-.6 0-.8zm25.1-2.4c.3-.3 1-4.7 1.3-8 .1-1.6.1-1.7-.4-1.6-.9.1-1.3 2.7-1.3 7.9 0 2.5 0 4 .1 3.3 0-.8.2-1.5.3-1.6zm26.7 2c.9-.3 1.2-.5 1.3-1 0-.4.3-1 .4-1 .2-.3 0-1.9-.3-4.6a587.6 587.6 0 0 1-1-7.3l-.2-1.1-.2.8a45 45 0 0 0-.4 4.5l-.5 4.8c-1.2 4.3-1.3 6-.5 5.4.1-.1.8-.4 1.4-.5zM151 44l.2-1.4c.2-.2.4-3.4.5-7.6 0-4 .2-7.7.3-8.1a48.4 48.4 0 0 0-1-8.6c0 1.2-.5 2.6-.9 2.6l-.9-.3c-.7-.4-1 0-.6.8.2.4.4 1.6.4 2.7l.4 2.2c.6.8 1.2 8.6 1.2 14.2 0 3.4 0 5.5.2 5.1l.2-1.6zm-2.7-6.5c.1-3.2.2-6.1.1-6.5v-.6l-.4.6c-.2.3-.7.5-1 .5-.6 0-1-.7-.5-1.1.2-.2.3-.6.3-.9 0-.4-.1-.5-.5-.4-.7.2-1 .7-.6 1.2.3.3.4 1.2.8 8.4l.6 5.8.4 1.2.3-1.2c.2-.7.4-3.8.5-7zm9-.3v.5c-.1.8 0 1.1 0 .8v-1.3zm-19.5-1.8.7-.4v-6.5c0-4.1-.1-6.5-.3-6.5-.1 0-.3 1-.4 2.3-.2 2.2-.4 3-1 5.3a18 18 0 0 0 0 6.2l1-.4zm20.8-8.8c.4-4.3.5-9 .3-14.3 0-.8.1-1.6.3-1.7.2-.2.3-1.2.3-2.6V5.8l-1.6.1C156 6 156 6 156 7c0 .7 0 .8.7.9 1 0 1.5 1.8 1.5 5.7 0 4.1-.6 14.9-1 19.1-.2.9-.1 1.4.1 1.7.5.4.5 0 1.2-7.7zm-30 3.3c.4-1.7.4-1.8 0-1.8-.7 0-1.9 1-1.9 1.5l.5 2c.4 1.4.4 1.5.6.8l.7-2.5zm5-1.8c0-.2.1-.7.3-1l.6-1.3c.2-.8.1-.9-.6-.9-1.4 0-1.8 1-1.7 4.2v1.5l.7-1c.4-.6.7-1.3.7-1.5zm13.7-1.6c.3-.2.3-.5 0-2l-.5-2c-.2-.2-.3-.5-.3-.8 0-.4-.8-2.2-1.2-2.6l-.3.5c-.3.5-.2.9.2 2l.6 2.1c0 .4 0 .7.2.8l.4 1.2c.2 1.1.3 1.2 1 .8zm-30.4-4.2c0-.3-.2-.3-1-.2-1.8.2-2 .8-.5.6.9 0 1.4-.2 1.5-.4zm30.7-4.8c0-.3-.1-.5-.2-.4-.2 0-.2.3-.2.5.3.6.4.5.4-.1zm-3.7-.5c0-.2-.1-.3-.3-.3-.1 0-.2.1-.1.3l.3.2.1-.2zm3-1c-.4-.5-.4-.8.3-2 .7-1.4.8-2.3.2-2.3-.3 0-1.5 1-2 1.8-.7 1-.5 1.6.6 2.6 1 1 1.3 1 .8 0zm-83.5-3.5-.1.6v.8c.2-.4.2-1 0-1.4zm86.5-3.4c.1-.7-.3-.8-.7 0-.4.6-.3.8.2.7.2 0 .5-.4.5-.7zm163.3 286.7.3-.2.3.2c0 .2-.2.3-.3.3a.3.3 0 0 1-.3-.3zm-246-13c-.9-.4-1.1-1.2-.5-1.7.3-.2 3.5-.3 10.3-.4 9.9 0 12.2-.1 13.6-.9.4-.2 1-.4 1.4-.4.3 0 .9-.1 1.2-.3 1-.4 1.5.2 1.2 1.3-.5 1.6-2.2 2-11.9 2-7.3.2-9.3.3-13.2.6-.7 0-1.6 0-2-.3zm-31.6-2c-.2-.5-.2-.7.3-1.1.7-.8 1.9-.5 1.9.4 0 .7-.7 1.5-1.4 1.5-.3 0-.6-.3-.8-.7zm34-3-1.9-.3c-1.5 0-1.7-.1-1.8-.6-.1-1.2-.1-1.2 9.5-1.2 8.2-.1 11.3 0 11.4.6l-.1.7c-.1.5-.3.6-1.4.4a78.5 78.5 0 0 0-15.6.5zM35.8 275c-.3-.3-6.6-.3-11.8 0-4 .1-4.5 0-4.4-1.3 0-.5.2-.6.7-.7h2.4l1.7-.1-2-.3a280 280 0 0 0-10.3-.8c-1.3 0-1.8-.6-1.8-2 0-1.7.2-1.8 7.1-1.8l11.3-.2 5.3-.2.5.6c.5.8.4 1.7-.1 1.7l-1.7.3c-1.3.1-1.7.6-.7.6s2.2.9 2.4 1.6c.1.6.3.7 1.4.8 2 .2 2.5.8 1.5 1.7-.5.5-1.1.5-1.5.1zm-10.1-2.2c-.2-.1-.5-.1-.8 0h.8zm5-2.4c0-.3-.3-.4-1.2-.4-1.4 0-1.5.2-.4.5 1.3.4 1.6.4 1.6 0zm138.3 2.2-7-.2a1534.3 1534.3 0 0 0-29.5-.1c-2.9-.2-3.5-.3-3.7-.7-.1-.3-.1-.6.1-1 .3-.4.5-.4 2 0a9 9 0 0 0 2.7.1c.7-.1 1.2 0 1.4.1a101 101 0 0 1 12.3-.3c8.2 0 9 0 9-.7 0-.9-5.5-5-8.8-6.8a74.1 74.1 0 0 1-14.8-10c-.9-.7-2-2.8-1.8-3.4.2-.9 1-.5 3.3 1.8 1.2 1.2 2.5 2.2 2.7 2.2.2 0 .9.4 1.5.9l2.9 1.9a81 81 0 0 0 9.2 6.2c.2 0 2.7 1.8 4 3 1.5 1.2 4 2.8 4.4 2.8.2 0 .8.5 1.3 1l.9 1 4.7.2a282.7 282.7 0 0 0 16.8.4c.3.1.4 1.2 0 1.5-.3.4-1.4.4-6.2.4-3.3 0-6.6-.1-7.4-.3zm203.2-2.7c-.2-.3-.3-1.4-.1-4.2l.2-4.4c0-.4 0-2.1-.2-3.8l-.3-9.3a289.3 289.3 0 0 0-.6-18v-6.9a924.8 924.8 0 0 1-.5-27.3c.5-2 1.3-2.7 2-1.8.3.2.2.7-.1 1.8-.5 1.3-.5 1.8-.2 7.2.4 6.2.4 7 .4 9.4a147.5 147.5 0 0 1 .5 14.4c0 3 0 8.2.2 11.7.3 7.6.3 29.9 0 30.7-.3.7-.9 1-1.3.5zm-116.8 0c-.3-.3-.3-.4 0-.8.4-.6 1.3-.4 1.2.3-.1.5-.7.7-1.2.4zm-.3-2.9c-.1-.1-.2-2-.1-4l-.3-10.3c-.3-6.7-.3-8.6.3-8.8.2 0 .3-.3.3-.4 0-.7-4-3.1-4.5-2.7-.2.2-.3 2-.4 4.3 0 2.2-.2 4.1-.3 4.3l-.3 3.4c0 3.8-.6 12-.8 13-.2.5-.4.6-.9.6h-.6v-6.2l.4-7 .2-4c0-1.8.1-3.3.2-3.3.2-.1.2-1.7.1-3.6l-.1-3.5-1-.9c-.5-.5-2.1-1.7-3.7-2.6a184 184 0 0 1-6.8-4.2c-.4-.2-.6-.5-.5-.9.1-1 1.4-.6 4 1a55.2 55.2 0 0 0 6.7 3.9l1.7 1.3 3 2.2c1.3 1.1 3.7 2.8 7.2 5.1 1 .7 2 1.4 2 1.6.1.2 1.5 1.3 3.1 2.4 1.6 1 3 2.2 3.2 2.5.2.3.5.5.7.5.5 0 2.2 1.1 2.3 1.6.1.2 0 .4-.1.6-.5.3-2.5 0-2.6-.4a8.6 8.6 0 0 0-2.4-2.3 178 178 0 0 1-6.2-4.5c-2.6-2-3-2-2.7-.4a173.8 173.8 0 0 1 1 20.3c0 .5-.2 1.1-.5 1.4-.5.5-1.3.5-1.6 0zm-159.6-5.6c-.2-.2-.3-.8-.2-1.5.2-1.1.3-7.4.2-9.2-.1-1.2.1-4.6.5-7l.6-6.7c.4-4.5.4-4.9 0-6.3-.5-1.4-.5-1.7-.2-3 .5-1.9.9-6.7 1-12l.4-4.8a476.3 476.3 0 0 1 .1-20.5c.1-4.9.1-5 .8-5.9l.6-.9v-13c0-15 .4-42.9.6-43.3.1-.5.4-16 .4-27 0-10-.2-15.8-.6-15.8-.1 0-.3-.2-.3-.4-.1-.3-.2.7-.1 2 0 1.4 0 4.3-.2 6.5a1642.5 1642.5 0 0 0-.9 23.9c0 7.5-.1 8.2-.6 8.6-.8.8-1 0-1.1-3 0-3 .5-14.3.7-15.3.5-1.9.8-16.8 1-38.6 0-4.6.2-8.6.3-8.7.5-.6 1 .9 1 3.5v2.6l.1-2.3.4-2.7c.3-.4.5-6.8.6-17.2 0-7.1 0-7.1-.6-8-.9-1.2-1-4.4-.8-14.8.3-8 .3-8.8.8-9.8.4-.8.5-1.4.4-2-.2-1.1 0-1.8.6-1.8.7 0 1 .5 1 1.7l.3 4.2c.2 1.9.3 3.7.2 4.1l-.3 12.5a1471 1471 0 0 1-.7 42c.2 2.4 0 3.4-1 4-.8.4-1 .7-1.1 1.7v2.1c.2.7.3.9 1 1 .5 0 1 .2 1 .5l.3 5.5a62 62 0 0 0 .3 6l-.3 9.4-.3 16.2a2381.6 2381.6 0 0 0-.5 51.2c.1 2.7.2 5.8.1 6.7a42 42 0 0 0 .2 6.8c.2 2.7 0 3.5-.8 3.7-.4 0-.7.3-.7.5a8917.9 8917.9 0 0 1-.6 33.8c-.1 8-.8 19.3-1.2 21.6-.3 1.4-.2 6.2.1 8.2.3 1.6.1 7.8-.2 9.6-.3 1.6-.4 1.7-1.2 1.8-.4 0-.9-.1-1.1-.4zm216.3-1.8c-.1-.4 0-.7.6-.7.1 0 .3.2.3.5 0 .6-.7.8-.9.2zm-71.2-.2c-.2-.2-.3-1.8-.3-3.7-.2-8.7-.4-14-.6-15.9-.3-2.3-.2-3.5.4-3.7.5-.3 1.2.5 1.2 1.4a46 46 0 0 1 .9 13.1c0 7.5 0 8-.5 8.5-.6.7-.8.7-1.1.3zm-166.2-1.7c-.5-1.4-1-10.7-.6-11.6.4-.6 1-.5 1.2.2l.2 2.6.3 2.6c.6 3 1 5.7.8 6.2-.2 1-1.6 1-2 0zm-56.7-.6-2-.4c-.5-.3-.5-.9 0-1.1a67 67 0 0 1 9.3 0c.5.2.5 1-.1 1.3-.7.3-5.2.4-7.2.2zm60.9-2.4c-.5-1-.2-10 .4-11.5.2-.7 1.2-.4 1.4.4v7.2c.5 2.1.5 3.3 0 3.9-.7.6-1.5.7-1.8 0zm-59.3-1.2-3.4-.2c-2.5 0-3 0-3.1-.4-.3-.6.2-1 1.2-.9 5.2 0 19 .3 19.4.4.6.3.6.9-.2 1.1-.8.3-13.4.3-13.9 0zm2-3.7-8-.1c-3.2 0-6-.1-6.2-.2-.6-.2-.7-1.3 0-1.6a89.7 89.7 0 0 1 15.4.3c9.8.3 10.8.4 10.4 1.6-.2.4-.6.4-4.7.3-2.5 0-5.6-.1-7-.3zm-.7-2.6c-.6-.2-2.6-.3-4.3-.3-2.5.1-3.2 0-4.3-.4-1.2-.6-1.7-1.2-1.2-1.7.2-.2 3 0 8.8.8 2 .2 4.6.3 7.8.3 8.8-.1 9.1 0 8.7 1-.1.3-.8.4-6.2.3l-7 .1c-.6.1-1.6 0-2.3-.1zm209-.4c-.2-.2-.1-1 0-1.8.2-1.2.2-1.6-.1-2-.3-.2-.4-1-.4-2 0-2-.4-3.9-.9-5.2-.5-1.4-.5-.8-.3-31.3l.2-32c-.1-13.8-.1-14 .3-15l1-1c.6 0 .9-2 .5-4.6-.1-1.2-.2-3.1-.1-4.4v-18.9a407.5 407.5 0 0 1 0-24.2c.2-8.2.3-17.4.2-20.4-.2-5-.2-5.6.4-7.3.5-1.7.5-2.7.7-12.4.2-16.4.6-20.3 1.8-19.8.3.1.4 1.3.3 6.8a550.2 550.2 0 0 0-.8 32.8c0 18.4-.2 25.1-.5 29.4a22 22 0 0 0 0 7c.2 1.1.3 3.6.2 11.8 0 5.7-.2 11.2-.3 12.3v8.2a330 330 0 0 1 .2 10c0 1.3-.1 2.7-.3 3.1-.2.5-.3 3-.4 6l-.1 5.6.1 8.2v8.5a2 2 0 0 1-1 1.2l-.7.3.2 3.5.2 6.3c.1 6.2.7 20.1.9 20.4 0 .1.3 0 .5-.2.5-.6 1.2-.5 1.8.2l1.5 1.2c.8.5 1 .8 1 1.4 0 .7 0 .8-.7.8-1.6 0-3.8-1.1-3.8-2 0-.5 0-.5-.3 0-.4.7-.6 7.5-.2 11.3.2 2.2.2 3.3 0 3.9-.2.7-.2.8.3 1 .5.3.5.6.4 1.5 0 .7-.3 1.4-.5 1.6-.3.4-1.2.5-1.4.2zm0-65.2c-.1-.2-.2-.1-.2.2 0 .2 0 .4.1.3v-.5zm.2-9.1c0-.4-.1-.2-.1.5 0 .8 0 1.1.1.8v-1.3zM350.2 244l-.1-2.9c-.1-2.7-.7-9-.9-9.7-.2-.7-.4-3-.4-4.3 0-1.6-.7-8.6-1-9.7-.2-.5-.3-2.4-.4-4.2-.2-3.4 0-4.5.8-4.5.5 0 .7.4.8 2a60 60 0 0 0 1.2 8.2c.2.6.4 2 .4 3.3 0 3.7.4 8.2.6 10a65 65 0 0 1 .6 11.5c-.3.9-1.6 1-1.6.3zm-44.6-1.3v-1.3l.4-4.8a142.4 142.4 0 0 1 .8-10.6c0-2.4 0-2 .3-6.5a310.5 310.5 0 0 0-.4-30.1l-.2-14.2a1101.7 1101.7 0 0 1 .6-39.7c0-7.9.2-9.4.5-9.6.5-.4.7-.3 1.1.1.4.4.4.7.3 1.6-.2 1-.2 2.7 0 12.3a376 376 0 0 0-.3 48.5 252.1 252.1 0 0 1 .5 18.6 464.7 464.7 0 0 1-1 28.7c-.3 4.4-.6 6-1.4 7-.4.5-1 .5-1.2 0zm30.7-1-.3-1a279.7 279.7 0 0 1-2-27.8c.2-.4.2-2.8 0-4.9-.2-1.3-.5-14.2-.6-21.2 0-2.5.2-3.1 1-2.8.4.1.6 5 .8 13.7a190.5 190.5 0 0 0 .6 14.4 183.5 183.5 0 0 0 .7 15.1c-.2 1.2 0 5 .3 6.9.7 4 .9 6.2.6 7-.2 1-.9 1.2-1.1.5zM82 235.8a13 13 0 0 1 .2-4.6 202.4 202.4 0 0 0 1.5-20.1l.2-3.2c.2-4.7.5-6.7.9-6.7.6 0 .8 1.4.5 2.9-.4 2-.5 4.6-.5 11.6 0 4.3-.2 7.3-.4 8.8-.2 1.3-.4 4-.4 6 0 4.4-.3 5.7-1.2 5.7-.3 0-.7-.2-.8-.4zm128-.3c-.3-.3-.8-.5-1.8-.5-1.1 0-1.3 0-1.4-.5-.1-.9.9-1.5 2.5-1.5 1.2 0 1.5.1 2 .7.6.8.6 1.5.2 2-.5.4-1 .3-1.5-.2zm113.6-3V218l.1-4.7c.1-.2.3-4 .4-8.6a362.7 362.7 0 0 0 .5-38.4c-.1-2.4 0-3.3.2-3.5.2-.3.3-1.6.2-4.5a360.5 360.5 0 0 1 .4-24.7c.3-2.7.3-2.9.9-3 .7 0 .7.2.6 3.5 0 1.1 0 2 .3 2.2a202.6 202.6 0 0 0-.6 34.5c.1 1.1.2 3.6.1 5.6v7.1l-.3 6c-.2 1.5-.4 6.9-.4 12.1l-.3 9.8c-.1.1-.2 5.4-.2 11.7 0 11 0 11.5-.6 11.9-1 .7-1.1.5-1.3-2.3zM203 233c-1.3 0-1.8-.5-1.3-1.2.5-.5 4.2-.5 4.5 0 .2.3.2.7 0 1-.2.5-.4.5-3.2.2zm-7-2.2c-.7-.2-.8-.3-.7-.8.2-.8 1-1 3.5-1 2 0 2.7.3 2.7 1.2 0 .7 0 .7-3.2.8-.8 0-1.8 0-2.3-.2zm118-1.4c-.2-.3-.1-7.3.2-23.1a2705.6 2705.6 0 0 0 .5-27.2c.1 0 .3-3.9.4-9.7 0-3.5.2-6.6.3-6.8l.3-8.3a96.7 96.7 0 0 1 1.5-18.4c.1-.2.4-.3.7-.3.5 0 .6.1.4 1.1a50 50 0 0 0-.3 4 151.2 151.2 0 0 0-.9 14.6 3365.1 3365.1 0 0 1-.6 25.4 1315.7 1315.7 0 0 1-1.1 48.3c-.2.6-1.1.9-1.4.4zm-124.6-.3c-.2 0-.4-.5-.4-.9v-.7l2.8-.1h3.1c.7.4.6 1.3-.2 1.6-.7.3-4.7.3-5.3.1zm-.8-2.2c-.4-.2-.6-.5-.6-1 0-.6 0-.6 1.5-.6 1.9 0 2.7.2 2.7.7 0 1-2.2 1.5-3.6.9zm55.3-7.6a340.3 340.3 0 0 0-.7-23.5c.1-1.6 0-5.3-.1-9.7-.2-5.2-.2-5.2 0-10.4.2-4.7.4-5.7 1.2-6 .5-.2.6-.3.4-.8a64 64 0 0 1-.3-6.3c-.1-11.1 0-13 .6-11.9.4.6.5 5.3.2 6.5-.2.6-.2 1.1 0 1.3.2.3.4 3.2.6 7.8 0 1.5.2 3.2.3 3.7.2.9.2.9-.7.7l-.8-.2.1 14.3a807.4 807.4 0 0 0 .5 21l-.3 13c0 .4-.5.7-1 .5zm6.3-2.5c-.3-.5-.3-1.3-.2-2.6.3-2 .3-1.5-.1-8-.2-2.8-.4-9-.4-13.8l-.2-13.7c-.1-4 0-5 .2-5.1.2 0 .6.2.9.6.3.5.4 1.3.5 3.7l.2 7.8c.1 5 .5 22 .4 23.9 0 6-.2 7.2-.6 7.6-.4.4-.4.4-.7-.4zM94 216.5c-.4-.7-.3-2.8.2-6 .3-1.6.6-4 .6-5.3 0-2.4.4-9.1.6-10.6l.3-7.6c.3-19.2.5-26 .7-26.2.2-.3.3-6.4.2-12.7 0-2.5 0-3.2.4-3.5.8-.9 1 0 1 3.4a654 654 0 0 0 0 9.7l-.2 6.8c0 2.7-.2 7-.4 9.2-.3 4.9-.4 15.8-.1 16.9 0 .4 0 1-.3 1.5-.3.7-.4 1.9-.5 6 0 3-.3 7.2-.5 9.5-.1 2.3-.3 5.1-.2 6.2 0 2.7-.1 3.2-1 3.2-.3 0-.7-.2-.8-.5zm-89.2-2c-.6-.6-.7-.8-.2-1 .6-.2 1.5.4 1.5 1 0 .8-.6.8-1.3 0zm251.7-8.1c0-5-.3-15.3-.5-16-.2-1 .2-2.5.6-2.5h.3l.3 2.6c.2 1.4.3 3.8.3 5.3l.3 7.7c.4 4.2.4 5 0 5.6-.2.4-.5.8-.8.8-.4 0-.5-.4-.5-3.5zm-21.4 1c-.6-6.9-.8-13.8-.7-40.4 0-7.3 0-12.4-.2-12.8-.2-.6-.3-3-.3-7.6a827.5 827.5 0 0 1 .5-30.8c-.2-1.6-.2-2.8 0-3.7.2-1 .3-3 .1-6.8-.2-5.9-.2-7.5 0-17.2l-.1-6.8c-.3-.5.3-1.6.8-1.6.4 0 .6.2.7.9.2 1 0 11-.3 14.7v3.6a60 60 0 0 1 0 11.7c-.3.8-.3 2-.2 6.3 0 3.3 0 6-.2 7.3-.4 3-.5 9 0 12 .2 1.9.3 2.9 0 4-.2 1.2-.2 1.8 0 2.3.3.5.3 1.1 0 2.5 0 1-.2 2 0 2.2a49.3 49.3 0 0 1 .4 10.8 1409.1 1409.1 0 0 0 .5 45.3c.2 4.6.2 5.5-.5 5.5-.2 0-.4-.5-.5-1.4zm49-.6c-.3-1-.4-9-.1-16.3a5122 5122 0 0 0 1-28.6c.1-.2.3-3.7.4-7.7 0-4 .2-8.7.3-10.6.2-2 .2-5.8.2-8.8 0-5.5 0-7.2.4-7.8 1-1.3 1.2 2.9 1.1 14.2 0 2.1 0 4-.2 4l-.2 7.3a179.7 179.7 0 0 1-.9 17l-.2 6.2c-.2 3-.5 20.8-.4 25.7 0 5.3 0 5.5-.5 5.8-.5.3-.6.2-.8-.4zm-202.6-3c-.3-.2-.3-1.9-.3-10.3a271.3 271.3 0 0 0-.2-16c.2-.3.3-3 .2-11.4a2010 2010 0 0 1 .2-9.6l.3-8c.3-11.3.4-13.1.6-13.4h.7c.4.1.4.7.3 6.3-.5 14.9-.7 43-.3 43.8a154.6 154.6 0 0 1-.7 18.6c-.2.1-.6.1-.8 0zm2.4-5.2c-.2-.2-.2-.9.1-2.7.7-3.4 1-5.2.8-5.4 0 0-.2-5.1-.2-11.2l-.3-11.3c-.2-.3.2-1 .5-1s.4 1 .5 4l.5 14.8c0 2.9-.3 11.7-.5 12.6-.1.7-.9.8-1.4.2zm109-10c-.8-.5-.4-1.2.9-1.4a4 4 0 0 0 1.5-.5c.7-.6 1.5-.7 3.3-.4 2 .4 2.5 1 2 2-.3.6-.3.7-3.8.7-2.4 0-3.7-.1-4-.4zm87.4-3c-.2-1 0-5.3.4-5.7.2-.2.4-.2.5-.1 0 0 .2 1.4.2 3 .1 2.7 0 3-.4 3.2-.4.3-.5.2-.7-.3zm-202-.5a80.3 80.3 0 0 0-.3-13.2c-.3-.3-.3-4.8 0-7.3a192 192 0 0 0-.3-27.5c0-1.7.1-2.2.5-2.6.6-.7 1.1-.7 1.6 0 .3.5.3 1.3.2 4l-.1 24.7c0 18 0 21.2-.4 21.7-.4.7-.7.8-1.1.2zm202.2-7.7c-.2-1.5-.3-3.3-.3-10.5V147c0-14.1.2-27.8.5-36.5 0-3.3 0-5-.2-5.8-.3-1-.3-1.4 0-1.9.3-.7 1.3-.9 2-.2.4.4.4.8.2 3.7a218 218 0 0 0-.2 9.9c0 3.7-.2 7.6-.3 8.6l-.3 8-.2 9.7a841.8 841.8 0 0 0-.3 28.6c0 5.8 0 6.3-.4 6.4l-.5-.1zm-85-.3c-.2-.2-1.4-.3-2.8-.3s-2.7-.1-3-.3h-1.1a7 7 0 0 1-2 0c-1 0-1-.1-1-.7 0-.3 0-.6.2-.7a98 98 0 0 1 9.2-.2c1.1 0 1.4.1 1.8.7.7 1-.2 2.1-1.2 1.5zm-194-29.8c-.2-.6-.1-.8.3-1.1 1-.8 2.3-.1 2.2 1-.1.5-.3.6-1.2.7-1 0-1.2 0-1.3-.6zm24.8-.4c-.2-.2-.3-.7-.3-1 0-.7-.2-.8-1.2-1-1.8-.3-6.3-.4-7 0-.7.2-2.4.5-5.1.8-1.3.2-1.5.1-1.8-.3-.3-.7 0-1.2 1.2-1.6.8-.3 2.2-.3 6.3-.2h6.8l1.4-.3v-1c-.2-1.2.5-1.7 1.8-1.2.6.1 1.6.2 3 0 1.7-.2 2.2-.2 2.7.1 1.5 1-.7 2.3-4.5 2.7-1.3 0-1.8.2-1.8.5s.3.4 1.7.2l2-.2c1-.4 1.5 1 .5 1.8a1331.4 1331.4 0 0 1-4.2.9c-.8 0-1.3 0-1.5-.2zm217.7-.6c0-1 .4-1.7 1-1.3.4.4 0 2-.6 2.1-.3 0-.4-.1-.4-.8zm-192.8-3.2c-.5-.5-.6-3.4-.4-5 .2-1 .4-3.4.5-5.5.2-3 .4-3.8.7-4.2.4-.4.5-.4.9.1.3.4.3 1 .1 3.7l-.2 6.7c0 3 0 3.5-.5 4-.6.6-.8.7-1.1.2zm13.6-1c-.1-.6-.2-1.1-.1-1.2 0-.1.3-2.8.4-6l.7-7.7c.2-1.9.3-2.1.8-2.1s.5.1.5 3.3c0 5-.4 13.5-.7 14.2-.1.4-.4.6-.8.6-.6 0-.7-.2-.8-1zm31.6.8-.2-3.2c0-1.6-.1-3-.2-3-.1-.2 0-1.2.2-2.3.2-1.1.2-2.4.1-3-.4-2.3-.1-5.1.5-5.1.2 0 .4 1 .7 2.3.4 2.6.6 13.3.1 14.1-.3.6-.9.6-1.2.2zm147.8-.6c0-.5.2-1 .4-1 .5-.3.7 0 .7 1 0 .7-.1.9-.5.9-.5 0-.6-.2-.6-1zM14 141.8l-4-.4c-1 0-1.6-.2-1.6-.5 0-.5 2.6-.7 7-.6 3.8.1 4.5.3 4 1.2-.4.6-2 .7-5.4.3zm14.2-2c-.4-.5-.5-.7-.3-1 .4-.7 5.3-1.1 6-.5.6.6 0 1.3-1.5 1.5-3.3.6-3.7.5-4.2 0zm-21.2 0c-.5-.4-.1-1.2.8-1.5 2.4-1 6-.9 6.3.2v.6c0 .1-1 .2-2.3.2-1.2 0-2.5.3-3 .4-.8.3-1.5.4-1.8.1zm237.3-.7c-.3-1 0-1.9.5-2 .5 0 .8 1 .6 2-.2.8-.9.8-1.1 0zm31.6-2.7h.5c0 .1 0 .2-.4.1-.3 0-.3 0-.1-.1zM.6 135.7c-1.1-.6.2-3.1 1.5-2.7l3.1.4c3 .2 3.8.6 2.9 1.4-.5.4-1 .5-2.6.5l-2.3-.1-1.2.4c-.7.3-1 .3-1.4.1zm243.2-3-.3-2.2a5.9 5.9 0 0 1 0-2.3c.2-.3.4-.8.4-1.2.1-.5.3-.8.6-.7.4 0 .5.3.4 1.5a135.4 135.4 0 0 0-.3 4.5c0 .5-.8.8-.8.4zM2.2 131.5c-1.5-.2-2-.6-2-1.4 0-1 .6-1.3 2-1.1 2.5.2 4.2 1.6 3 2.5-.5.3-1.1.4-3 0zm17.9-1c-.1-.2-1.2-.3-3.1-.3-3.9.1-8.2 0-8.6-.3-.3-.2-.2-1 .3-1.3.3-.2 7 0 8.9.3H22c4.8-.5 10.8-.7 11.5-.5.8.2 1 1.1.3 1.5a73.6 73.6 0 0 1-13.7.6zm16.6-1.2c-1.2-1.2-.3-2.1 1.3-1.5.8.4 1 1.2.4 1.8-.4.5-1 .4-1.7-.3zM4 126l-1.6-.3c-1.8 0-2.7-1.4-1.6-2.5.5-.4.6-.4 2 0 1.4.5 1.6.5 2.7 0 .7-.2 2-.4 2.8-.4.8 0 1.6 0 1.6-.2l.3-3c0-1.4.3-2.8.4-3.1.1-.3.3-1.3.3-2.3 0-1.6 0-2-.4-2.5a2 2 0 0 1-.4-1.2c.1-1.9 0-2.1-1.4-3-1.3-1-1.6-1-4.1-1.2-3-.1-3.5-.4-3.5-1.3 0-.6.6-1.4.8-1.1.1 0 1-.1 1.9-.4l3-.8c2.7-.5 3-.6 3-1 0-.3-.2-.4-1.6-.2l-3.4.4c-1.2 0-2 .3-2.5.7-.6.5-.8.6-1.2.4-.7-.4-.7-1.2 0-1.8.6-.7 5-1.5 8-1.5 2.1 0 2.2 0 2.3.6 0 .4-.1.8-.4 1-.4.3-.5.4-.1.6.2.2.6.3.8.3.2 0 1 .1 1.5.4 1.3.4 1.3.3.6-.6-.8-1-.7-1.7.1-1.7 1.6 0 2.3.9 3 4.1.4 2.4.5 7.6.1 8.2A58 58 0 0 1 16 117a9.3 9.3 0 0 0-.3 3.5l-.1 1.8c-.4.5-1.5.5-1.7.1-.1-.1-.2-2.4-.2-5.1 0-3.2 0-5-.2-5s-.3.7-.3 1.6c0 .9-.2 2.2-.4 3-.2.8-.5 2.5-.5 3.8-.2 3-.6 3.6-2.7 4.2l-2.1.7a6 6 0 0 1-3.3.3zm9.6-19.8a3 3 0 0 0-.6-1.2c-.3-.2-.5-.6-.5-.7 0-.5-1.4-.8-2.2-.5-.9.4-.8.6.7 1.3.6.2 1.4.8 1.7 1.2.8.8 1.1.8 1 0zm1.4-1.4c0-.2 0-.6-.2-.8-.2-.3-.2-.3-.5 0-.4.7-.3 1.4.2 1.3.3 0 .5-.3.5-.5zm224.4.6c-.4-.6-.5-4.5-.2-5.3.3-.8.4-.8.8-.5.5.6.5 5.1 0 5.7-.3.2-.5.3-.6 0zm-234-6.9c-.1-.7.1-7.1.4-9.4.2-1.2.4-4.2.4-6.8 0-2.5.3-5 .4-5.6.2-.6.4-4.2.5-9.1a1528.4 1528.4 0 0 1 .3-19.1c0-2.6.5-3 1.3-1.4.4.8.4 1.6.4 5.2-.2 6.2-.2 8.3-.4 9.5l-.4 6.9A248.8 248.8 0 0 1 8 80.3c-.1 5.8-.4 9-.8 11.1a36.8 36.8 0 0 0-.6 7c0 .5-.8.6-1 .1zm-4.4 0c-.1-.2-.2-.4 0-.7 0-.3.4-.4 1.3-.4 1 0 1.2 0 1.2.5 0 .4-.3.5-1.1.6H1.1zm319-24.4c-.5-.8-.6-.8-1.2-.5-1.5.7-2.6-.7-1.4-1.8.4-.4 1-.6 2-.6 1.1 0 1.3 0 2-1a9 9 0 0 0 1.8-5.4v-1.5c-.5 2.5-.6 2.7-1.5 2.6-.9-.1-.9-.1-1-1.7 0-.9.1-2 .3-2.6.3-.9.3-1-.2-1.6-.7-.7-.8-2-.4-4.5.6-3.3.8-5 1-7.6l.1-2.9-.7-.3c-.5-.2-.7-.2-1.1.2-.5.4-.6.9-.7 4.9 0 2.4-.2 6.4-.4 8.8-.3 4-.3 4.5.1 5 .4.3.4.4 0 .7-.2.2-.4.8-.4 1.2 0 1.5-.4 2.3-1.1 2.2-.6 0-.6-.1-.6-3.1l.4-6.9c.4-5.2.4-13 0-13.4-.5-.5-1.3-.4-1.5.1-.2.3-.2 2.3-.2 4.5.1 3.3 0 4-.3 4.5-.4.5-.4.5-.8 0-.2-.4-.4-1-.3-2.1a121.5 121.5 0 0 0-.6-13.5c0-2.5 0-3 .4-3.4.5-.4.6-.5 1.1 0 .6.3.6.5.6 3.6 0 2.6 0 3.3.4 3.6.7.5 1.3 0 1.4-1.1.1-1.5.6-3.1 1-3.1.5 0 .7.6.5 2.2a4 4 0 0 0 0 1.7l1.5.6c1.8.6 2 .3 2.2-2.3 0-2 0-2.1.7-2.3.6 0 .7-.2.8-2.2.1-2 .4-2.6 1.2-2.3.7.2.9 1.3.7 4.8-.2 3.7 0 4.1 1.1 3.3.4-.2 1.2-.4 2.2-.4 1 0 1.8-.1 2-.4 1-.6 4-1.2 7-1.3 1.4 0 3.1-.3 3.8-.5.6-.2 2-.5 3.1-.5a61.8 61.8 0 0 0 9.8-1.4c.2.1 1.5 0 3-.4l4.4-.7 5.2-.9c3.7-.6 4.4-.6 4.4.3 0 .7-.5 1-1.8 1.2l-1.1.2.7.6c.7.6 1 .6 3.7.5 2.6-.1 3 0 3.6.4.7.6.8.6 3.3.3l3.5-.5c1.1-.3 1.8 0 1.8.8 0 1-1 1.2-5 1.3-3 0-4 0-4.3-.2-.4-.4-2-.5-2-.1 0 .1.2.3.5.3s.6.2.7.4c.3.7-.9 1.4-2 1.4a137 137 0 0 0-16.4 1c-2.6 0-8.8.3-10.5.6-.7.2-3.5.3-6.2.4a44.3 44.3 0 0 0-6.9.7c-.4.1.2.2 1.2.2l2.4.2c.7.3.4 1-.5 1.4-.8.3-.8.3-.2.6.3 0 .5.4.5.7 0 .5-.1.6-1.8.6-1.4 0-1.9 0-1.9.3l-.4 1c-.4.4-.8.5-2.5.6-2.4.2-3.5.5-3.3 1.2 0 .2.2.4.4.3.9-.2 5.7-.5 6-.4.2 0 .4.4.4.6 0 .6-.4.7-3.1 1-2.3.3-2.2.6 0 1 1 .2 1.4 1 .9 1.4-.4.2-2.6.3-3.7.1-.3 0-.2-1.2.1-1.5.3-.3.2-.3 0-.3-.7 0-1.3.8-1.4 1.9-.1 1.1-.1 1 1.1.8 1-.2 2.1.2 2.1.8 0 .6-.8 1-2.3 1-1.5.1-1.6.3-1.7 3.7 0 2.8-.3 4.3-1.1 7-.9 2.6-2.4 6.3-2.7 6.5-.5.4-1.2.2-1.8-.6zm3-23.3c0-.2-.1-.2-.2.2 0 .2.1.4.2.3v-.5zm12.5-5a65.8 65.8 0 0 0-6.7.2c-1.3.2-.8.3 2.5.2 3.2 0 4 0 4.2-.3zm-27 27.4a6 6 0 0 0-1.5-.4c-.8 0-2.2-1-2.2-1.4 0-.2-.5-1-1.2-1.9-.9-1-1.4-2-2-3.7l-.7-2.6a16 16 0 0 0-3.7-3.6 8 8 0 0 1-1.7-1.8l-2.2-2.5a38 38 0 0 1-4-4.4l-.7-.5c-.7-.3-3.6-2.5-4.8-3.5-.3-.3-1.1-.7-1.9-1l-2-.7-2.2-.8a8 8 0 0 1-2-1l-1-.5-.6-.4c-.8-1-3.2-1.9-7-2.6l-4.3-1c-1.8-.5-3.2-.7-4.7-.8-1.2 0-2.3 0-2.3-.2-.1-.2-1.5-.3-3.3-.3-3 0-3 0-3.8-.7-.4-.4-1-.7-1.4-.7-1.1 0-1.5-.8-.8-1.5 1-1.2 1.3-1.8.9-2.7-.3-.8-.3-.8.7-1.7 1-.8 1.2-.9 3-1 4.7 0 6-.2 13-1a193.6 193.6 0 0 1 10.9-.9l3-.4a156.4 156.4 0 0 0 9.8-1c2-.1 2.9-.3 3.2-.6.5-.5.6-1.5.7-5.2v-2h-2l-3.3.3c-.6.1-1.7 0-2.6-.1l-3-.6a9.5 9.5 0 0 1-4.9-2.5 11.3 11.3 0 0 0-3.9-3.4c-1.6-.9-4-2.2-6.4-3.8-.9-.7-1.8-1.2-2-1.2l-1.3-.4c-.4-.2-1.8-.5-3-.7a15.8 15.8 0 0 1-5-1.3c-1-.3-2.4-1.2-2.6-1.7 0-.2 0-.7.2-1 .3-.8 1.6-1 2.7-.3.3.2 1.3.4 2.2.4 1.3 0 1.7.1 3.1 1 .9.6 2 1.2 2.5 1.3a15.7 15.7 0 0 1 5.9 3.1 896.9 896.9 0 0 1 4.4 2.5c.6.3 2 1.4 3 2.5 2 2 3.3 2.8 4.1 2.8.8 0 .4-.8-.5-1.2l-2-1.1c-.5-.5-1-.8-1.2-.8-.2 0-.5-.3-.6-.6a13 13 0 0 0-2.5-2 33 33 0 0 1-3.5-2.8c-3-3-3.6-3.4-4.5-3.2-1.2.2-2-.3-2-1.2 0-1.1.5-1.4 2.5-1.4 1.9 0 2.9.4 4.3 1.7.5.5.6.5.8-.2.3-.6.4-.6 1.1-.4.5.2 1 .7 1.3 1.2.6 1.1.9 1.2.9.1 0-1 .9-2 1.6-1.6.8.5 1 1.2 1 3.2 0 1.5.1 1.9.7 2.5.8.8 1.3.8 1.3-.1a31 31 0 0 1 0-5.5c0-.2.4-.3.8-.3 1.1 0 1.3.6 1.4 4.6 0 4 .2 4.6 1.2 4.6.9 0 1-.7.8-3.7-.4-4.4-.2-5.5 1-5.5.8 0 1.3.8 1.3 2.3 0 .7 0 2.2.2 3.3l.1 2h.8c.8 0 .8 0 .7-1-.6-3.6-.5-5.7.4-6.2.3-.2.6-.2 1 .3.5.5.6 1 .9 4l.3 3.3.5-.7c.3-.4.6-1.3.7-2 .2-1.2.8-2.2 1.4-2.2.2 0 .4-.1.4-.4 0-.2-.1-.4-.3-.4-.5 0-.8-1.2-.5-1.8.3-.6.4-.6 2-.4l4.5.2c2.7 0 3 .1 3.6.7.6.6.8.6 1.7.3a3 3 0 0 1 1.4-.1c.3 0 1-.1 1.8-.5 1.1-.6 1.7-.7 2.3-.2.5.3 2.6.6 5.3.6 2.1 0 2.9 0 3.7-.4 1.3-.6 2-.6 3.2 0 .9.3 2.7.6 4 .6h1.8c2 0 4.1.3 4.4.8.2.3.1.6-.2.9-.3.3-1 .4-3.9.3H324l-.1 1c-.2 1.5.3 1.6 4 1 1.8-.1 4-.4 4.8-.6 3.3-.6 5.4-.8 8.3-.9 3.9-.1 4.4-.2 4.1-1.2-.6-2.5-.3-2.7 6.6-2.8 3 0 6-.2 7-.3 2-.1 2.1 0 2.4 2.5.1 1 .4 2.2.6 2.7.3 1 .2 3-.4 5-.3.9-.5 2-.5 2.7 0 1.4.3 1.6 2 1l1.2-.3.2-2.8v-6c-.2-3.2-.2-3.5.4-4.1.7-1 1.5-1 1.9 0a47 47 0 0 0-.1 12.5c.1.2.9.5 2 .8 1 .3 1.8.5 1.9.4l-.2-1.5c-.3-1.3-.3-1.7.2-2.8.3-1 .4-1.9.4-3.9-.1-4.2.7-7 1.8-6.3.3.2.4 1.2.4 6l.2 6c.4.4 1.9 1 3 1 1 0 1.1-.1 1.4-.7.5-1 .6-5.2.3-6-.2-.3-.3-1-.3-1.4 0-.7-.2-1.1-.6-1.5-.4-.3-.7-.7-.7-1.2V1.5c0-.4.1-.8.3-1 .5-.2 2.8 0 3.8.5.6.3.8.3 1.3 0a5 5 0 0 1 2.5-.7c.2 0 .5.2.7.5.3.4 0 .4 9.3-.2 4-.2 4.5-.2 5 .2.6.6.5 1.1-.8 4-2 4.2-1.9 6.5.6 7.7 1 .5 1.3.6 2.9.4l3.6-.3c1 0 3.3-.4 5.3-.7l5.5-.7c2.3-.3 3.1-.6 3.1-1.3 0-.2.5-1 1-1.6a6 6 0 0 0 1.1-1.3l-.7-1.5a4 4 0 0 0-2-2c-1.2-.6-1.4-.8-1.4-1.5-.1-.8 0-1 1.2-1.5 1.4-.6 3.2-.7 4 0 .4.1.8.8 1 1.3l1.1 2.6c.5.9.9 2.2 1 2.9 0 .7.2 1.2.5 1.2.5 0 .6-.7.3-2.3-.2-1.6-.1-2.7.4-2.7.1 0-.1-.3-.6-.6-1.6-1-1.2-3.2.5-2.6.5.2 1 1.6 1.1 2.6 0 .2.3.4.6.5.4 0 1 .5 1.4.9.7.7.7.8.4 2.1A5 5 0 0 0 430 8c.2.4 1.5.3 2.6-.2 1.6-.6 2.5-.3 2.5.7s-.4 1.2-3 1.4c-1 .1-2.5.4-3.3.7-.8.3-2.5.6-3.6.7-1.5.1-2.6.4-3.6 1a15 15 0 0 1-7.6 1.2c-.7-.2-1.5-.2-3.3 0l-4.4.4-3.6.6-2 .4-2.9.3c-3.6.6-6.6 1-9.1 1.1-1.3 0-2.8.2-3.2.4a9 9 0 0 1-2.5.3c-1.4 0-1.9.2-2.5.7-.7.6-.8.6-4.6.5-2.6 0-4.5 0-5.6.3l-3 .4c-.8 0-2.2.1-3.2.3-1 .3-3.3.5-5 .6a66 66 0 0 0-7.9.7 73.3 73.3 0 0 1-7.9.8l-3.3.3a80.3 80.3 0 0 0-15.7 1.9c-1.1 0-3.6.4-5.5.9a66.4 66.4 0 0 1-10.4 1.6c-.7.2-2 .3-2.8.3-1 0-2.4.1-3.2.3-.9.3-2.6.6-4 .7l-3.1.5c-.5.2-2.7.3-5 .4a38 38 0 0 0-5.2.4c-.5.2-3.4.5-6.4.7a130.7 130.7 0 0 0-13.3 1.2c-.6 0-2.9.3-5 .7-2.2.3-4.2.6-4.4.5-.7 0-4 .4-5 .7-.7.2-.8.4-.8 1l.4 1.2c.4.5.4.5 1.4 0 1.2-.8 1.8-.8 2.9-.2.6.3 1 .4 2.2.1a206.6 206.6 0 0 1 22.5-2l2.2-.2c.1 0 .7 0 1.3-.2.6-.2 2.4-.4 4-.4a32.6 32.6 0 0 0 6-.7l4-.5c2.5-.4 7.1-.9 7.7-.9 1.1.1 7.5-.5 10.2-1l4.2-.4c1.4 0 3.8-.3 5.4-.5a270.5 270.5 0 0 1 20.7-2.3 184.4 184.4 0 0 1 16.3-1.5c3.8-1 5.6-1.2 10-1.4 4.2-.2 6.7-.4 11.3-1 .4 0 2 0 3.5-.2 4-.2 8.5-.5 11.5-1 2.6-.2 2.6-.2 3 .3.6.6.5 1.5 0 2-.2 0-2.6.2-6 .2-5.7 0-12.3.4-14 .7l-1 .2.6.6 2.5 1.5a26 26 0 0 1 10 7.6c.3.2 1 1 1.4 1.7.7 1 .8 1.4.6 2-.3.6-.2.9 1 2.4.9 1 1.7 2.4 2 3.2l1.1 2.5.7 2c.1.7.4 1.5.6 2 .2.5.3 1.2.2 1.7-.2 1 .9 4.5 1.6 5.2.6.7.8 2.4.3 2.6-1 .3-1.9-1.3-3.5-5.8-.4-1.2-1-2.4-1.4-2.8-.4-.4-1-1.3-1.2-2-1.8-4.8-2.2-5.5-4.4-7.9-1-.9-2-2-2.3-2.6a7.4 7.4 0 0 0-1.9-1.8c-1.6-1-3.3-2.3-4.4-3.3l-1-.7c-.8 0-3.2-1.4-4.3-2.5a9.7 9.7 0 0 0-2.4-1.8c-1.4-.5-5.7-1.1-8.3-1.1a66.3 66.3 0 0 0-11.4 1 73.3 73.3 0 0 0-9.4 1c-1.4 0-2.7.3-3 .4l-3.2.4a432.5 432.5 0 0 0-17 1.7c-1.5 0-3 .3-3.3.4l-2.2.2c-1.4 0-4 .3-8.2 1-.7.1-1.8.2-2.5 0l-2 .1c-.3.1-1.2.3-2 .3a26 26 0 0 0-6.5 1.2 8 8 0 0 1-2.7.3c-1 0-2.3.2-2.7.3l-3.3.5c-7 .8-8.3 1-9 1.9-1 1-.4 1 5.5 1.1l6 .2c1.3.5.5 2-1 2.2-.8 0-.8.1-1 1.7-.1.9-.3 1.9-.5 2.2-.3.5 0 .9 2.8 3 1.7 1.4 1.7 1.4 1.3-3.8-.2-3 0-3.6 1-3.2.8.3 1 1.2 1.1 6.2.1 2.4.3 4 .5 4.3l2.9 3.1c1.3 1.5 2.7 3.2 3.1 3.9l2.3 3.4c1.5 2 1.7 2.3 1.7 3.5 0 2 1 3.1 4 4.6 2.9 1.3 3.5 2 3.3 3-.1.4-.4.8-.5.9-.5.3-1.8.2-2.9-.2zm-21.8-30.5c-.2-2.3-.3-2.6-1-2.8-.8-.2-7.9-.2-7.9 0s2.6 1.4 3 1.4a20 20 0 0 1 4.5 2.3c1.3 1 1.6.9 1.4-.9zm103.9-9.2c0-.4-1.3-1.8-2-2.1l-1.3-.7c-.8-.6-.8 0 .1 1 1 1 3.2 2.3 3.2 1.8zm-13-9.3c-.4-.2-.6.1-.4.5.1.2.3.2.4 0v-.5zm-75.6 0 3.5-.3c1.4 0 1.6-.6 2-4.5a168 168 0 0 0 .6-11.6l-.2-3.3h-2.4a8 8 0 0 0-3.5.6c-.7.3-1.6.5-2.1.5s-1.2.2-1.6.4l-1.6.5c-1.3.2-1.7.6-1.7 1.5 0 .5-.1 1-.3 1.4-.2.4-.3 1.9-.4 4.3l-.2 6-.2 2.3.8.8c.7.7 1 .8 2.2.8 1 0 1.3 0 1.4.5.3.7.4.7 3.7.2zm20.6-3.7c0-.3-.2-.6-.3-.6-.2 0-.3.3-.3.6 0 .4.1.7.3.7.1 0 .3-.3.3-.7zm9.1-.2h-.5l.2.1c.3 0 .4 0 .3-.1zm6.7-.8c1.6 0 2.7-.9 2.7-2 0-.6-.2-.7-.9-.9l-1.7.1c-.6.2-1.4.3-2 .3-1.4 0-3 .5-2.6.8.4.4.4 1.4 0 1.8-.3.3 0 .3 1.4.2l3-.3zm-16.9-1.3 4.5-1c4.4-1 5.9-1.2 9.7-1.8a22 22 0 0 0 3.7-.7c.6-.4 1-1.5.8-2-.3-.4-2.8-.2-7.6.7-4.2.8-5.2 1-7.9 1l-3.8.4c-.9.1-1 .2-1 .8.1 1.2 0 1.3-.8 2.2l-.9.8 1-.1 2.3-.3zm9.2 0c.1-.1-.2-.2-.7-.2-.4 0-.8.2-.8.3 0 .2 1.2.1 1.5-.2zm2.1-.6h-.5c-.2 0-.1.1.2.2.2 0 .4-.1.3-.2zm19.6-1.7c.7-.9.7-1.2 0-1.5-.8-.4-6.8-.5-6.8-.1 0 .1.4.6 1 1.1.6.7 1.2 1 2.4 1.2 1.9.4 2.6.2 3.4-.7zm29.3-2.3c.2-.1.6-1 .9-1.9.6-1.8.7-4 .3-5.9l-.4-1.8c0-.4-.5-1-1-1.3l-.7-.5-.3.5a68.6 68.6 0 0 0 .1 10.7c.2.4.7.5 1.1.2zm-56-1.1 4.5-.5c.6 0 1.7-.2 2.6-.5a30.2 30.2 0 0 1 7.2-1.2c1-.2 1.6-.2 2.2 0 1.1.5 1.5 0 .8-.9-.3-.4-.6-1-.6-1.3 0-.5-.2-.6-1.9-.7h-3a1305.7 1305.7 0 0 1-8.6 1.8c-1 0-1.9 0-2 .2l-2.6.2c-1.5 0-2.5 0-2.7.3-.7.6-.3 3.1.4 3.1l3.7-.5zm62.6-.5c0-.1.5-.2 1-.1.4 0 .7 0 .7-.2 0-.4-2-.3-2.4.1-.2.3-.2.4.1.4.3 0 .5 0 .6-.2zm3.7-2c0-1 0-1.1-1-1.4-.4-.2-1.8-.3-3-.3-2 0-2.2 0-2.2.4 0 .7.7 1.2 1.4 1h2c1.4.2 1.6.3 1.6.8 0 .7.3 1 .8.9.3-.1.4-.4.4-1.3zm-78.5 0c.4-.6.2-3.9-.3-4.5-.2-.2-.8-.5-1.4-.6l-1.1-.2V9c-.2 1.3.2 1.5.8.3.7-1.3 1.7-.9 1.4.6-.2.9.1 1 .6.2zm76.5-3.5-.5-1c-.5-.8-.7-1-1.8-1-.9-.1-1.3-.4-2-1-.3-.4-.8-.8-1-.8-.3 0-.3 1 0 2.5l.4 1.2h1.8a98.4 98.4 0 0 1 3.1.1zm-32.7-1.4c.1-.1 0-.3-.3-.4-.4 0-.6 0-.6.3 0 .4.7.5 1 .1zm62.8 61c-.7-.4-.8-1.9-.2-3.6a66.3 66.3 0 0 0 2-20.6c0-7-.1-10.1-.3-10.6-.5-.7-.4-2 0-2.4.4-.3 1.5-.2 1.5.2l.7 1.3c.7 1 .7 1 .4 3-.2 1.2-.3 3-.2 4.7.2 3.3-.2 16.2-.6 18.3l-1 3.6c-.9 2.8-.6 3.4.7 1.6 1.4-2.1 2.2-8.8 2.5-19.9l.2-8c.2-3.6.2-3.6.8-3.6.9 0 1.2 1 1 2.4-.2.7-.3 3.5-.3 6.2a137.2 137.2 0 0 1-2 23.5c-1 2.2-4.1 4.6-5.2 4zm-111-.6c-.1-.7.2-14.8.5-18.4.1-1.9 0-2.6-.2-3.2-.5-1-.4-2.2.2-2.9 1-1.3 2.2.4 2.1 3.5 0 2.2-.4 8.8-.8 14.4-.2 2.1-.3 4.3-.2 5v1.7c-.4.8-1.3.8-1.5 0zm103-.4a7 7 0 0 0-2-.4c-2 0-2.8-.4-4.2-1.5-.8-.6-1-1-1-1.6V61h2.2l3 .2c1 .4 3.3.8 5.3 1 1.7.2 1.7.3 1.8 1 .1 1.1-.5 1.9-1.4 1.7-.3-.1-1.1 0-1.9.2-1 .2-1.4.2-1.8 0zm-106.5-3.7c-.3-.2-.4-.8-.4-2.6a69.1 69.1 0 0 1-.1-14.8c.5-3.5 1-4.4 2.1-3.7l.5.3.2 4.8.2 4.7-.8 1.4c-.7 1.4-.7 1.5-.4 3.4.3 2 .2 4-.3 5.7-.3 1-.5 1.1-1 .8zm21.8-1.6c-.2-.4.2-1.5.6-1.5.2 0 .5.2.8.5.3.5.3.6-.1 1-.6.4-1 .4-1.3 0zm-24.6-3a80 80 0 0 1-1.1-13c0-1.3-.1-1.7-.4-1.9l-.7.1c-.4.4-.6 2.7-.3 3.4.2.5.8 5 .8 6.5 0 .3-.2.7-.4 1-.6.5-1.4 0-1.4-1l-.6-3c-.5-2-.7-3.3-.7-6.3v-1.3h-1.8c-1.6 0-1.7 0-2-.7-.3-.6-.3-.7.3-1.2.5-.4.9-.4 2.2-.3l4.2.3c2 0 2.7.2 3.3.6.8.7.8 1.2 0 1.7-.4.3-.5.6-.5 2.3l.3 3.3c.3 1.6.5 9.2.2 9.6-.3.4-1.1.4-1.4 0zM407.4 54c-.6-.3-.8-4.7-.3-6.6.5-2.2.6-5.6.2-8.9a170.8 170.8 0 0 1-.6-7.5c0-1.7.5-3 1.2-2.8.7.3 1 9.2.6 20.8-.1 4.7-.3 5.6-1.1 5zM386 51.3c-1.3-.7.5-1.9 2.5-1.7 1 0 1.1.2 1.2.6l-.1.7-1.7.3c-1 .2-1.7.3-2 .1zm25.5.1c-.2-.1-.3-1.8-.4-6.1a230.3 230.3 0 0 0-.8-14.6c0-1 .5-1.3 1.3-.6.3.3.4 1 .4 2.8a70.4 70.4 0 0 1 .6 11c.1 6.2 0 7-.3 7.3-.3.2-.6.3-.8.2zM381 48.8c-1-.4.2-1.5 1.9-1.8.7-.1 1.3-.3 1.4-.5.1-.2-1.4-.2-4.9 0-5.5.2-5.4.2-5.5-1.6 0-.8 0-1 .5-1.2.7-.2 6.8-.6 10-.6 2 0 2.3.1 2.7.6.2.3.6.5.8.5.7 0 1.3.8 1.2 1.5-.1.5 0 .7.6 1 .8.5.8 1.1 0 1.4l-3.6.4a105.6 105.6 0 0 0-5 .3zM8 45c-.4-1-.4-1.8-.1-2.1.2-.2.2-.6 0-1.3-.4-1.5.1-2.3 2.2-3.4 1.3-.7 2.8-1.8 4.3-3.2a4 4 0 0 1 2.1-1.2c.6 0 1.2-.3 1.5-.4.2-.2.7-.6 1.2-.8.5-.2 1.4-.8 2-1.3a2930 2930 0 0 0 9.4-7.8c1.3-1.1 3.8-3 5.6-4.2 1-.8 1.8-.7 1.3.2-.6 1.2.3.8 2.5-.9l1.5-1c.2 0 .5.3.8.6.4.4.5.7.4 1.3-.2 1-.5 1.2-1.5 1.5-1 .2-3 1.5-4.5 2.7-2.4 2-3.6 2-2.7.1l.3-1c0-.1-.8.3-1.6 1a49.5 49.5 0 0 1-4.2 3.2l-1.7 1.5-2.9 2.5-2.5 2a16 16 0 0 0-2.8 2.4 14.6 14.6 0 0 1-6 3.9c-.4.1-.8.5-.9.7a100.2 100.2 0 0 0-1.5 3.1l-1.4 2.4c-.5.4-.5.4-.8-.5zm226.6.5-.2-3.4c0-1-.2-3.3-.5-5a54 54 0 0 1-.2-9.1V22c-.3 0-1 5.3-.9 6.2.1 1 0 1.2-.5 1.2-.7 0-.8-.4-.5-1.4l.2-8c0-5.7 0-7 .4-7s.6 1.2.7 3c0 2 .4 0 .5-2.3 0-1.1.1-2.3.3-2.5l.4-4.3c.2-4 .5-5 1.3-4.1.4.4.5.8.4 2.7a130.4 130.4 0 0 0-.9 14.9c-.1 8.8-.1 11.4.2 14.4.4 4 .6 6.7.5 9.2 0 1.4-.2 1.6-.6 1.6l-.6-.2zm-.7-26.5c0-1-.3-1.7-.6-1.7s-.3 1.4 0 2c.2.7.6.5.6-.3zm97 18c-.5-.1-.6-1.1-.1-1.3l3-.5 2.7-.7c0-.3-1-.3-4.8.2-3.6.4-4.7.2-4.3-.6l.1-.5a49 49 0 0 1 11.3-1.1 91.8 91.8 0 0 0 13-1.3c1.8-.1 2 0 2 .4 0 .5-1 1-2 1-.4 0-.7.2-.7.4s.6.3 1.9.2h5.8c3.6 0 4 0 4 .5 0 .6-.9.8-6.2 1-2 0-4.5.3-5.4.4-2.4.4-8.7 1-11.2 1.2a167.9 167.9 0 0 0-9.1.7zm-125.5-6.7a10 10 0 0 0-2-.4c-1.9-.2-3-.9-2.4-1.5.5-.6 1.2-.6 2.9 0 1 .2 2.7.3 7.2.3 3.3 0 6.2.2 6.3.3.2 0 .3.5.3.8l-.1.6h-5.8c-3.2.1-6 0-6.4 0zm222.4-2.7-.4-1.3c-.1-.6-.4-.9-1.1-1.2-1.3-.5-2-1.1-2-1.8 0-.8 1.1-1.7 2-1.7.9 0 2.2 1.5 2.7 3 .5 1.8.5 2.6-.1 3.2-.6.5-.8.5-1-.2zm-236.1-4c-.3-.8.4-1.3 2.5-1.5l4.2-.5c4-.6 12.6-1 13.7-.7 1.3.3 2.3 1.2 2 1.8-.2.9-1.3 1.1-2.8.6-2.2-.7-6.2-.6-14 .4-5.4.6-5.4.6-5.6 0zm-29.2-.8v-7c-.6-11.6-.6-12.5.3-12.5.2 0 .6.3.8.6.4.6.4 1.9.5 8.3 0 8.5-.2 11.3-1 11.4-.3.1-.4-.1-.6-.8zM8.1 21.4c-.4-.4 0-1 .8-1 .6 0 .8.8.2 1-.6.4-.6.4-1 0ZM408 19.8c0-.5.2-.9 1.1-1.4 1-.7 1.4-.8 4-1l6-.5c2.6-.3 3.2-.3 4.3 0 1 .4 1.6.4 3.5.1l3.5-.6c1.5-.3 3-.3 3.5.1 1.8 1.4-.5 3.1-4.2 3.3a230.5 230.5 0 0 1-8.6.4c-1 .1-4.4.3-7.5.3h-5.6zm-397.4-.3c-.2-.6 1.4-1.9 2.5-2.1.4-.1 1.2-.6 1.8-1.1l2-1.6c.4-.4 1.3-1 1.9-1.2l2-1.3a17.8 17.8 0 0 1 3-2.2c2.4-1.5 2.6-1.6 2.8-1.4.4.4-.5 1.4-2.2 2.6-2.6 1.7-3 2-4 2.5a45 45 0 0 0-4 2.8l-1.4.7c-.2 0-.8.5-1.3 1-.8.9-2.1 1.7-2.7 1.7l-.4-.4zm102.8-7.2c-.3-.6-.2-.7.6-1.4.4-.4 1.4-1 2.2-1.5.8-.4 2-1.2 2.6-1.7A26.3 26.3 0 0 1 124 4c1.2-.7 2-.8 2.3-.2.3.7.1 1.2-.6 1.5-.3 0-1.4.8-2.5 1.5l-3.7 2.4c-1 .6-2.5 1.6-3.4 2.4l-2 1.3c-.3 0-.6-.3-.8-.7zM403 11c-.3-.5.1-1.3 1-1.8.5-.2 1.8-.4 3.8-.5 2.5-.1 3 0 3.6.3.5.3.8.4 1.2.1 1-.4 1.1-1.1.5-2-.5-.8-.3-1.4.7-1.4.9 0 1.5.8 1.5 2 0 1-.2 1.3-1.1 2.2-1.1 1-2.2 1.4-2.8.8-.6-.5-6.5-.3-6.9.3-.2.3-1.3.3-1.5 0zM110.9 9.7l-.2-.8c0-1.1 2-2.7 5.8-4.8 3-1.5 3.7-1.8 4.2-1.6 1.5.8 1 1.3-3.7 3.7-2 1-4 2.3-4.6 2.8-.8.8-1.2 1-1.5.7zm121-1.3c-.5-.7-.7-4-.2-5.2.4-1 .8-1.2 1.5-.8.3.2.3.7 0 3-.3 2.9-.7 3.7-1.3 3z"/>
</svg>
