<?xml version="1.0" encoding="utf-8"?>
<svg xmlns="http://www.w3.org/2000/svg" xmlns:svg="http://www.w3.org/2000/svg" version="1.1" viewBox="0 0 224 145">
  <title>Pig-wig and Pigling Bland have stopped in the road as a horse and cart approaches. The driver is reading a newspaper.</title>
  <path d="M153.5 144.5c0-.3.6-.7 1.7-1.3l1.7-.9 1.4-2.1c1.4-2.2 1.5-2.9.5-2.9-.9 0-2.1-.7-2.4-1.4-.1-.4-.4-.7-.8-.7s-.6-.3-1-1c-.2-.7-.6-1.2-1.1-1.4-.5-.2-1.1-.7-1.5-1.2-.5-.6-.8-.9-1.1-.7l-1.7.5-1.3.4-1.3-.6c-2.6-1.1-4.5-4.3-4.5-7.6 0-1.3.2-2 .4-2.1.3-.2.4-.5.4-.7 0-.2 1-.6 2-1 1.2-.5 2-1 1.8-1 0-.3-.7-1-1.5-2-1.7-1.9-2.8-2-2.8-.1 0 .6-.7.9-1 .4-.4-.5.1-2.1.8-2.6a3 3 0 0 1 1.5-.4c.6 0 .9.1 1.2.7.6 1 3.3 3.8 3.6 3.6.1 0 .3-.4.3-.8s.1-1 .4-1.6l.4-1.2c0-.1-.8-.2-1.7-.2-1.1 0-1.5-.1-1.5-.4.1-.2.8-.3 1.8-.3 1.2 0 1.8-.2 2-.4.1-.5 1.2-6.3 1.2-7 0-1-.7-1-1.1 0l-.7.3c-.6 0-.8-.5-.2-.8.1 0 .2-.2.1-.3a8 8 0 0 0-2.5.3c-1.4.2-3.7.4-5.8.4h-3.4l-1.1.7c-1 .5-1.7.7-4.4.9-3.3.2-7 .7-8 1-.3 0-.4.3-.4 1 0 .8.2 1 .6.7l1-.2c.7 0 1-.1 1-.6 0-.4.3-.6 1.4-.7 2.5-.3 5.6-.2 5.4.2 0 .2-.9.3-2.8.3l-3 .1c-.1 0-.1.2 0 .4.3.3.3.4 0 .7-.3.2-.4.4-.3.5.3.6-.1 1.6-.7 1.6h-.5l.2-1c.1-.7 0-.9-.4-.9-.2 0-.9.4-1.4 1l-1 .8-2 .2c-2 .1-2.8-.2-1.2-.5.4 0 .9-.4 1-.7l.3-.5h-1c-1.2 0-4.7.6-5.6 1-.8.3-3.2 2.4-3.2 2.7 0 .4 1.3.3 1.7-.2.4-.3 3.8-1 4-.7.1 0 0 .3-.3.6-.4.4-.6.4-.8.1-.3-.4-1.3-.2-1.5.4-.3.8.3 1 1.8.6 1-.2 1.5-.5 1.5-.8 0-.3 0-.3.1 0 .2.2.7.3 2 .1 3-.2 4.8-.9 3.5-1.2-.3-.1.7-.2 2-.2 1.7 0 2.7 0 2.8.3.2.2 1.6.3 4.6.2 5.6 0 7.5.2 7.4.8 0 .5.1.5-4.3.2-3.8-.3-12.2.1-15.2.7-1 .2-2 .6-2.5.8l-.7.5-1-.4c-.6-.2-1-.2-1.3 0l-1.8.2c-2.6-.1-12.8 1.1-14.5 1.7-1 .4-1.5.2-1-.3.8-.7 1.5-1 3.5-1s4-.5 4-.9a87.9 87.9 0 0 1-22.8-.5 27 27 0 0 1-5.5-.8c-1 0-5.2-1-6.4-1.4-2.2-.8-5.8-1.3-9.2-1.3-1.8 0-4-.2-4.6-.3-1-.1-1.2 0-1.5.3-.2.4-.5.4-1.4.3a6 6 0 0 1-1.5-.4 11 11 0 0 0-4-1.4c-.4 0-1.5-.2-2.4-.5-.9-.3-2-.6-2.6-.6l-1-.2.6.4.6.7c0 .3-1.2.3-1.5 0-.3-.3-.5-.3-1 0l-3.4.9-2.8.8c-.1.1 0 .3.3.4.2.2.4.4.4.6 0 .4 2.2 1.4 4.5 2.2 1.1.3 1.5.4 2 .1.6-.2 1.1-.2 2.2 0l2.8.4a76.7 76.7 0 0 0 14 1.5c1.4 0 1.8 0 2.5.6 1 .8.6 1.2-.5.6-1-.5-2.8-.7-12.4-1.1l-3.3-.4a13 13 0 0 0-5.6 0c-.2.3-.7.5-1.2.6-1 .2-2.3-.3-4.8-2-1.5-.9-5.2-2.3-6.2-2.3-.6 0-5-1.4-5-1.6 0 0 .3-.3.7-.4.5-.2.9-.2 1.6.2l2.8.9 2.4.6.5.1-.5-.5a7 7 0 0 0-2.3-1.1 144.5 144.5 0 0 1-7.9-2.8c-2.6-1-3.2-1-3.2 0v.8l1.2.2c.7.1 1.2.3 1.2.5a51.6 51.6 0 0 0-3.8-.2c-2-.2-2.4-.7-.7-.7.8 0 1 0 1-.3-.3-1-3.5-1.6-5.2-1-.7.2-1.2.2-1.7 0-.4-.2-.7-.4-.6-.5.6-.6 6.8-1 8.5-.6 1 .3 1.3.2 1.6 0 .3-.3.6-.2 1.1.1.9.5 3.2.9 4.2.6 1.2-.3.4-.7-1.7-.7h-2l2-.2c2-.2 3.5-.7 3.7-1.5.1-.2.4-.4.8-.4h.5l-.2.9c-.3 1.5-.3 1.6-1.6 2.2-.6.3-1.1.6-1 .8 0 .5 2.1 1.2 2.7 1 .2 0 .4 0 .5.3.2.2.8.6 1.5.8l1.2.3.6-.4c.4-.3 1-.3 1.7-.3 1.4.2 1.4.2 2.4-2.3 1.4-3.5 1.5-3.8 1.9-3.8.4 0 .3.5-.8 2.9-1 2.4-1 3.3.2 2.5.4-.3.7-.7.7-1 0-.2.2-1 .5-1.6l.5-1.4c0-.2 1.4-1.1 1.8-1.1v.7l.4 1.7.3 1 .7-.2h1.5l.7.3-.9.3-1 .3 2 .6 2.1.5c.3-.3-.2-.8-1-1.2-.6-.2-.7-.3-.4-.3h.5l-.6-.7c-.4-.4-1-.7-1.6-.8-.8-.2-1-.4-1.3-.9-.1-.4-.5-1-.8-1.3-.4-.4-.5-.7-.3-.9a170.8 170.8 0 0 0-4.3-9.7l-.7.5-.5.6-1-.4c-2.2-1-7.1-1.3-7.8-.6-.2.3-.5.4-1 .3-1-.2-1.8.2-2.3 1.2-.2.5-1 1.4-1.6 2l-1.1 1.4c0 .3-1.2 1.3-1.9 1.6l-1 .5-1.4.7c-1.2.6-1.2.7 0 .4.6-.2.8-.2.8 0-.1.2-.5.4-.9.5-.4.1-.9.4-1 .6-.7.5 0 .8.8.3.5-.3 1-.4 2.1-.2 2 .3 3.5.2 3.5-.3 0-.2-.7-.5-1.6-.8-1.3-.4-1.5-.5-1.1-.7.3-.2.9-.2 1.8 0 1.6.4 2.4.2 2.8-.9.2-.7 1-.9 1-.2s-.5 1.3-1.3 1.7c-.5.2-.8.5-.8.8 0 .6-.5.8-2.5 1.3-1.2.3-1.6.3-1.7 0 0-.1-.4-.3-.8-.3H18l.6.4c.8.6.5 1-.3.7-.4-.2-1.4-.3-2.2-.3h-1.5l.5-.4c.7-.5 0-.7-.9-.3l-1 .7c0 .2-.7.6-1.4 1-.7.3-1.4.8-1.6 1.1-.1.3-.5.6-.8.7-.6.2-2.9 3.5-2.9 4.2 0 .5.2.5 4.6.6 3.2 0 3.7.1 5 1.5l.6.8 3.1.1c3.5.2 3.6.2 5.1 2.6.6 1 1.3 1.6 2 2 1.4.7 2 .5.8-.2-1.1-.7-2.4-2-2-2l1.9 1c2 1.4 3.2 1.8 3.6 1.5.4-.3 2.2 0 3.4.6 1.5.8 4.4 1.9 4.7 1.8.1 0 .3-.3.3-.5l.2-.5a63.2 63.2 0 0 1 23.7 2c.7.2-2 0-3.5-.3l-2.5-.2H56l1.7.4c2.7.6 2.7.7.6 1l-2 .1-.4-.5a24.3 24.3 0 0 0-16.5-.4c-.3.1-.4 0-.4-.2 0-.5-1.3-1.2-1.5-.9-.1.1 0 .3.3.5.3.3.4.6.3.9l-.2.5-.7-.7c-1-1-2.3-1.4-2.9-1l-1.6-.1c-1-.2-1.3-.2-1.9.1l-.7.5-2.2-.7c-2.3-.7-3-.7-3 0 0 .4.3.4 1.4.4.7 0 1.3.2 1.3.3 0 .3-2.2.3-4.8 0-2.3-.3-2.8-.6-1.5-1l.9-.2-.8-.4c-.9-.4-1.5-.2-1.5.6 0 .7 0 .7-3.4 1.5-2.3.6-4.9.9-5.1.6-.5-.4 0-.8 1.3-1 .7 0 1.5-.3 1.8-.5.3-.2 1.3-.4 2.3-.5h1.7v-.7c.1-.3.4-.6.9-.7.4 0 .8-.3.8-.5s.2-.6.5-.8c.4-.4.4-.6.2-1-.4-.8.1-1 1.4-.4 1.6.7 1.8.6.7-.6-.7-.9-1.1-1-2.8-1.4-1.6-.3-2.1-.3-2.8 0-.8.2-1.2.2-2.5-.1l-3.1-.5c-2.1-.3-2.9-.9-1-.9 1 0 1.7-.3 1.3-.7l-1.8-.2a9.6 9.6 0 0 1-3.5-.8c-1.1-.4-1.4-1-.8-2 .5-1 4-5 4.5-5a507.5 507.5 0 0 1 4-2.6c.5-.3 1-.8 1-1 0-.2.1-.4.4-.4 1 0 1.3-.2 1.2-.7-.1-.4.1-.7 1.1-1.2l2-.8c1.7-.5 4-3.3 3.9-4.5l-.1-.6-.4 1c-.5 1.1-2.4 2.9-3.2 2.9-.6 0-1-.7-.5-1.2.2-.2.3-.1.3.2 0 .2.1.4.3.4 1 0 2.6-2.2 2.7-4 .2-1.4-.2-1.6-.7-.5-.6 1-2.5 2.8-2.8 2.6-.5-.3-.3-.6.7-1.1.7-.4 1.2-1 1.8-2.1 1-2 1.2-3.3.3-4.1l-.6-.5.5-.2c.7-.3 1 .4 1 2 .1 2 .4 3 .8 2.8.2 0 .4-.5.4-1 0-.7.2-1.2.4-1.4l.2-1.3c0-3.2 1.2-2.3 2.7 2 .6 1.8.6 2.2 0 1.8-.5-.2-.6-.2-.6.2 0 .3.2.4.7.3.8 0 1-.5.5-2.4-.1-.8-.1-1 .2-1 .2 0 .5.3.6.5.1.4.3.5.7.4.3 0 .6.1 1 .7.7 1 1 1 1 .3s-.5-2-1.4-3.2c-.5-.6-.6-1.2-.6-2.1 0-1-.3-1.6-1.2-3.2l-2.1-3c-1.2-1.5-1.2-1.8-.1-1.6 1.4.2 1.4.3 1.6 1.1.3 1.3 1.2 3.2 1.7 3.5.6.3 3 5 3 5.8 0 .3 0 .5.2.5s1.1.8 2.1 1.8 2.1 2 2.5 2.2c.3.3.9 1 1.2 1.6l1.3 2.7a5 5 0 0 0 1 1.7c.6.2 1.2-.4 1-1 0-.4 0-.5.4-.5.7 0 .7-.2.2-1-.4-.6-.9-3-.6-3l.7.3.6.3.8-1.3c.4-.8 1-1.3 1-1.2.3.1.1 1.9-.3 3-.3 1 .1 1.2 1 .6 1-.7.7-.2-.6.8-1.3 1-2 1-1.3 0 .2-.2.4-.9.5-1.3.3-1.2-.5-1.2-1 0-.4.8-.4 1.1-.2 2 .3 1 .2 2.7-.2 2.7-.5 0-.5 1.2.1 2.2.8 1.3 2.5 3 3 3a9 9 0 0 0 3.2-1.2c.3-.3.5-.4 1-.3l.2.4c-.1.3 0 .4.6.3.9 0 1.1-.7.4-1-.3 0-.6-.2-.6-.4 0-.5 1.3-2.6 1.9-3.2.7-.6.7-1.6 0-2-.4-.2-.5-.4-.4-.7.2-.7-.6-1.1-1.7-1.1-1 0-2.3.6-2.5 1 0 .2-.6.7-1.4 1.2-1.5 1-1.6 1.4-1 2.7.6 1.3.3 1.5-.4.3-.6-1-1-1.2-1.2-.7-.3.4-1 .3-1-.1 0-.2.4-.6.9-.8.4-.3.7-.6.7-.8 0-.7 1.4-1.7 2-1.6.6.2 1.1-.3 1.9-1.8.7-1.3.6-1.5-.4-1.5h-.7l.7-.6c.4-.3.8-.7.8-1 0-.5-2.3-2.7-3-2.7l-1 .3c-.7.4-.9.2-.5-.5l.3-.6-.6-.6-.6-.5-3 .2c-3 .2-3.3.1-5.6-1-.8-.3-1.2-.4-1.6-.2-.5.3-1.4 0-1.4-.5 0-.4 2.5-.3 3.5.1 1.8.8 4.8 1.2 6.5 1 1.8-.1 3.1.4 3.4 1.3 0 .2.4.5.8.6.5 0 1.3.6 2 1.2.8.8 1.1 1.2 1.3 2.4.2.8.2 1.6 0 2-.3 1-.4 1 .5.7.6-.2 1.1-.2 1.7.1 1 .4 1.6 1 1.3 1.3 0 0 0 .4.3.7.6.9.6 1.3-.2 2.4-.9 1.1-.9 1.3.2 1.2l1.1-.2c.2 0 .4-.2.5-.5l.8-1.1.6-.7-.2-1.4a79.6 79.6 0 0 1-.9-7l-.2-1.3.9-1.4.8-1.4.5.3c.3.1.7.5 1 .9.2.4.5.6.8.5.7-.2 1.7-1.6 1.5-2.1-.2-.6-1-.4-1.3.3-.3.7-.4.8-1 .3l-.6-.4 1.5-1c1.5-1.2 1.8-1.5 1.3-1.8-.2-.2-.4-.8-.7-3.2-.1-.6 0-1.1.1-1.3.3-.3.2-.6-.6-1.5l-1-1.4c0-.2.7-.7 1.5-1.2 1-.6 1.4-1 1.5-1.5l.1-.6-1 .1c-.8.1-1 .1-1-.2 0-.3.2-.6.5-.7.3-.2.6-.7.6-1.2 0-.6.2-1 .4-1l.2.5c-.2 1 .2 1.1 2 .5 1.6-.5 1.9-.6 1.8-1-.1-.9-1.1-1.3-2.2-1-1.1.4-1.3.4-1.4.1 0-.1.5-.5 1.3-.7l1.4-.5.6.4c.3.2.8.8 1 1.2.3.6.7.8 1.5 1l1 .1 2-1.7 3-2.8c1.1-1.2 1.7-1.4 2-.7.2.6.2 4.2 0 6.4l-.3 1.8.9 1c.5.4.9 1 .9 1.2 0 .6-1.3 2.3-2 2.8l-.7.5.6.5c.3.4.5.8.5 1.6v1h1c.4 0 1 .1 1 .3.1.2.6.2 1.4.1l1.6.1c.3.2 1 0 2.1-.4 1-.4 2.6-.8 4-.9 1.3-.1 2.6-.3 2.9-.5.6-.3.8-.4.8 0 0 0-.4.3-1 .4-.6.1-.8.2-.6.4.4.5 2.3-.2 3.5-1.3l1.4-.8.7-.4c.2-.3.6-.4 1-.4.7 0 2-1 1.4-1.3-.8-.3-.2-.6 1.3-.6.9 0 1.6 0 1.6-.2s.5-.6 1.2-1c.8-.6 1.2-1 1.2-1.4 0-.4.1-.8.3-1 .2-.3.6-1 .8-1.7.6-1.5 1.3-2.5 1.7-2.3 1 .6.5 3.6-.5 3.6-.4 0-.5.2-.4.6l.2 1.2v.7l1.2-.2c1.5-.2 1.5.3 0 .8-.5.2-.8.5-.7.7l.2 1.9c.1 1.2 0 1.5-.2 1.4-.3 0-.4-.5-.3-1.3 0-.7 0-1.3-.2-1.3-.3 0-.4.3-.3 2.2 0 .9 0 1.6-.2 1.7-.5.3-.5.1-.7-1.9-.2-2.4-.4-2.5-.4-.1 0 1.4 0 1.9-.3 1.8-.4-.2-.8-2.2-.7-3.3v-.9a6 6 0 0 0-1 1.5 5 5 0 0 0-1 3.3c0 1 .2 1.9.3 2 .2 0 .3.4.3.8 0 1.1 1.4 3.3 2.3 3.8.4.2.8.6.8.8.2.7.7 1 1.3 1 .6 0 .7.1.5.7l.1.7c.5 0 .6-1.6.2-2.4-.5-1-.4-2.1.2-2.1.2 0 .6.3 1 .7l.5.7.6-.7c.6-.6.7-.9.5-1.7-.2-1.3-.2-1.3-1-1-.6.2-1 .2-1.6 0-1.2-.5-1-1 .3-1 1 0 1.5-.4 2.6-2l.4-.5v1.4l.4-.7c.6-1 1-4.8.4-4.3-.2.2-.4.8-.5 1.3-.2.8-.2.4-.2-1.2.1-1.8 0-2.3-.4-2.8-.3-.4-.4-.9-.3-1.2 0-.3 0-.8-.2-1.3-.4-.5-.4-1-.2-2 .2-.7.4-1.2.7-1.2.5 0 1.2.8 1 1.3l-.3 2-.2 1.7 1 1.4.8 1.4v2a9 9 0 0 1-.8 4c-.7 1.8-.8 2.4-.7 3.6.2 1.8-.4 2.9-1.6 3.1-.6.1-1 .3-1 .5l-.3 1-.4 1.3c0 1.3-1.6 5.4-2.3 6-.4.3-.7.8-.7 1.2v.5l1.9-.2c1 0 2.3-.3 2.8-.5.6-.2 1.8-.3 2.9-.2 2.3.1 2.5.2 2.3.7-.2.5-1.1.6-1.1 0 0-.3-.3-.3-1.4-.2-.8.1-1.8.3-2.2.5-.5.2-1.5.3-2.6.2l-2.2.1c-.6.4-1.5 4-1 4.4.2.2 9.3 0 10.8-.2.4 0 1.3 0 2 .2l1.5.3-1.1.2h-2.8c-1.2 0-2.2 0-3.2.3-2 .6-3.1.6-3.1 0 0-.4-.3-.5-.8 0-.2.2-1 .3-1.9.3h-1.6l-.3 1-.6 2.3c-.5 1.4-.5 4.2-.1 5.6l.3 1 2.4-.1c3.5-.2 6.2-1 8.1-2.2 1-.6 2.4-1.3 3.4-1.6l2-.8 1.4-.1c.7 0 1.3-.2 1.5-.5a5 5 0 0 1 1.2-.9l1.9-1.1c.6-.4 1.3-.6 2.2-.6 2.5 0 10.6-1 12-1.6 1.3-.4 2.1-.5 4.5-.4 2.6 0 5.6-.3 6-.7.1 0-.3-.3-.9-.4l-1-.3-.4-1.5-.6-2.4c0-.6-.2-1-.4-1.2a59 59 0 0 0-10.8-.5c-3 0-4.8-.1-4.8-.3 0-.4-2-.3-2.9.2-.4.2-2.3.5-4.6.6l-5.2.5c-.9 0-1.3 0-1.3-.2 0-.3.5-.4 3.5-.8 1.3-.1 2.5-.3 2.5-.4.6-.6-1.8-2-3.4-2-.7 0-1-.1-1.2-.6-.2-.4-.5-.7-.7-.7l-1.9-.5c-1.6-.7-2.2-1.4-1.6-1.9.4-.3.5-.2.6.2.1.5 1.9 1.3 2.2 1l-.3-1.4c-.6-1.7-.9-3-.6-3a9 9 0 0 1 1 2.6l.8 2.6.9.3c1 .5 1.3.3 1.2-.6l-.2-.8.5.4.4.7c0 .6 1 1.6 1.9 1.9l.8.3.7-.6c.3-.4.7-1 .7-1.6l.4-1c.2 0 .8 1.4.6 1.8-.2.6.4 1.7 1 1.8h.6l-.6.4-.7.3h1l2.4-.2c1-.2 1.6-.1 1.7 0 0 .2 1.3.3 3.5.4 1.8 0 5.6 0 8.4.2l5.1.2.5-1c.7-1 .7-1.7 0-1.7-.2 0-.5-.1-.5-.3 0-.3 1-.8 1.2-.6 0 0 .2 0 .4-.4s.1-.7-.3-1.5-.5-1.3-.4-2.1l.3-2.6c.2-1.2.3-1.6.8-2 1-.5 1.2-.3 2 1.4.7 1.2 1 1.5 1.7 1.6.4.1 1.3 0 1.9-.2l1-.4.1-1c0-.6.4-1.3.7-1.8.4-.4.8-1.1.9-1.5 0-.4.2-.9.3-1 .5-.2 1 .5 1 1.2 0 .8.4 1.7 1.5 3.2.5.7.7 1.3.7 2.2 0 1.2.5 2 1.2 2 .3 0 1.4 1.2 1.4 1.5l.8 1.4c.4.7.9 1.7 1 2.2l1 1.7c.8.8.7 1.1-.2.9-.4-.1-1-.8-1.7-2.2l-1.1-2.2c0-1-1.9-2.9-3-3-.7-.1-.8-.4-.5-1.6l.3-1.3-.7-1c-.4-.7-1-1.4-1.1-1.8l-.4-.7-.6.7c-.5.6-.7 1-.6 1.9v1l-.9.4c-.5.2-1.3.6-1.7 1l-.7.8-.6-.8c-.4-.3-.8-.7-1-.7-.3 0-.8-.6-1.2-1.4l-.9-1.5-.7 3.1c-.2 1.4.1 2 1.3 2.7 1.3.8 1.4 1.4.2 1.3h-.9l-.1 1.5-.3 2.7c0 1.9-.2 2-1.2 1.8l-1 .1c-.2.3.8 2.7 1.2 3 .6.4 1.8.3 2-.2.2-.5.6-.5 1.6.3.4.4 1 .7 1.3.7.7 0 2.6-2.3 3.3-4 .4-1 1-2 1.9-3l1.3-1.3 1.2.2c.7 0 1.5.3 2 .6l.6.4-.5.1c-.3 0-.9 0-1.4-.3l-.8-.5-1 .9-1.5 1.4c-.4.5-1 2.3-1 2.5l1.6-.9c1.5-1 2.5-1.1 2.8-.5.2.5-.2.8-1.3 1.1a6 6 0 0 0-1.7 1c-.5.5-1.2 1-1.5 1-.5 0-2 1.4-2 1.8 0 .1.2.3.5.3s.6.3.9 1c.6 1.5 1 1.3 1-.5 0-1.6 0-1.9.7-1.3.4.5.4 1.9-.2 3.5-.7 1.9-1 4.4-.5 5.7.1.6.4 1 .5 1l1.2 1.1c.6.6 1.5 1.2 2.2 1.4 1.9.5 2.4.7 2.4 1.1 0 .7-2.9.3-4-.5-.4-.4-.9-.6-1-.5-.5.2 0 .7.6.7.4 0 .4 0 .2.3-.4.3-3.2.5-3.4.2-.2-.4-.5-.3-1 0-.1.3-.8.6-1.3 1-1 .4-1.1.6-1.2 1.3 0 .5.2 1.3.5 2 .3.5.5 1.2.5 1.5 0 .3.1.5.3.5.5 0 .6-.6.3-1.5l-.4-1 .6-1.1c.3-.6.7-1 .8-1l.2 2.4c0 3.5.3 4.6 1.1 5.7.9 1 1.2 1 .9-.2-.2-.6-.2-1 0-1.3.2-.3.4-.9.3-1.3-.1-1.3.4-.4.8 1.5.6 2.4.6 5.8 0 5.8-.2 0-.4-.2-.4-.5 0-.6-2.4-3.6-3-3.7-.3 0-1 1-1 1.5 0 .2.8 1.2 2.5 3.1.6.8 2.5.9 2.8.2 0-.2.3-.4.6-.4.2 0 .5-.1.6-.3.1-.3.2-.3.3 0 .3.5.9.4 1.8-.2 1-.7 1-1.5-.2-2.6-.8-.8-1.4-2.3-1-2.6.2-.3 1.5.9 1.4 1.3 0 .3.2.5.5.5.2 0 .6.1.8.3.2.2.6 0 1.5-.9l1.4-1.2s-.2-.4-.6-.7l-.8-.6.2-.8c.2-.4.7-1 1.6-1.4 1.5-.7 2.2-.6 3 .8.3.6.5.8.8.6l1.5-.5 1-.4.8.4.9.4.3-1c.3-.9.3-1.3-.1-2.1-.2-.6-.7-1.2-1-1.3-.5-.2-.6-.5 0-.9.5-.5.5-2.3-.2-3.3-.3-.5-.5-1.2-.5-1.8 0-.6 0-1-.2-.9l-.2.6c0 .3-.1.5-.3.6-.3 0-.7-1.2-1-3a11 11 0 0 0-1.7-3.8c-.6-.8-1-2.4-.6-2.4.2 0 .8.6 1.4 1.4l1.9 2.4c.5.5 1 1.3 1.1 1.8.3.7.5.9 1 .8.5 0 .8 0 1 .5 0 .3.6 1 1.1 1.5.5.4 1 1 1.1 1.4.1.3.4.5.6.5.4 0 .4-.2.3-1.1-.1-.6-.4-1.3-.7-1.5-.3-.3-1-1.4-1.5-2.6-1-2.1-2.3-3.6-3.6-4.1-.4-.2-1-.6-1.1-1-.4-.7-1.6-2-4.3-4.5-1.2-1.1-1.4-1.6-.4-1.1.3.2 1 .2 1.8.1l1.3-.1 2-2.2 2-2.3c0-.3-2.6-1-3.8-1-.6 0-1.5-.2-2-.4-1.1-.5-3.2-.5-4-.1-.5.3-.6 0-.2-1 .2-.4.5-.6.6-.4l2 .4a32.8 32.8 0 0 1 8.8 1.6c.1 0 0-.7-.2-1.3-.8-2.3-.1-3 1.7-1.9 1.2.8 1.5.8 1.6-.3 0-.9 1.2-1.8 1.7-1.5L182 92a8.1 8.1 0 0 0 1.8 2.2c.2 0 .6-.2.8-.6a9 9 0 0 1 3.1-2c.5 0 1.8-1.2 1.8-1.6 0-.4 1.6-1.6 2.3-1.8 1-.3 1.2.2.3.9-.5.3-1.2 1-1.5 1.5-1 1.5-2.6 2.8-3.3 2.7-.4-.1-.9 0-1.6.7l-1 1c0 .2.5.9 1.1 1.5.6.6 1 1.4 1 1.7l.2.8c0 .5.7.8 1.6.8h1l.4 1.1c.3.6 1.1 1.7 1.9 2.4 1.9 1.8 2.4 2.6 4 6.4 1.8 4.2 2.3 5.7 2.7 9.3l.3 2.8-.5 1.7-.4 2.7c0 .4-.3 2.3-.7 4-.8 3.8-.7 4.1.9 4 1.2 0 1.7.4.6.6l-1 .3 1 .4c.8.2 1.9.2 3.3.1 1.5 0 2.2 0 2.4.2 0 .1 0 .4-.2.5-.2.2 0 .2.8.2 1 0 1.2 0 1.2.3s-.4.4-1.8.5c-1 0-2 .2-2.1.3-.2.2-.6.3-.9.3-.3 0-.9.1-1.3.3l-.7.4.8.1c.9.1 1 .8 0 1-1 .1-1.9-.2-1.7-.7.1-.2 0-.3-.7-.3s-1 0-1 .5c-.2.4-.4.5-1.2.5-.6 0-1.6.3-2.3.6-1 .5-1.4.6-2.7.5-1.4 0-1.7 0-1.8.4 0 .4-1.3 1-4.2 2.1a8 8 0 0 1-2.3.4c-1.6 0-2-.5-1.5-1.7.5-1 .5-1-.2-1-1 0-3-1.1-3.8-2.3-1.8-2.5-2.5-3.6-2.6-4.6-.1-.6-.3-1-.4-1.1-.3-.2-1.8 1.8-2.2 3.2a58.3 58.3 0 0 1-2.1 5.4c-.1.3-.4.5-.7.5l-1 .4-.7.4.6-.1 2.5-.5c2-.3 3-.7 1.7-.7-.4 0-.7-.1-.7-.3 0-.2 2.4-.5 4.1-.5.8 0 .9 0 .6.4l-.6.4c-.2 0-.4.2-.5.5-.1.3-.4.5-.8.5l-1.7.5-2 .6c-1 .3-5.6.6-6.4.4-.7-.3-.5-1.1.6-2 1.8-1.6 3.1-5.1 2.2-5.9-.4-.3-.7 0-1 1.2a5 5 0 0 1-1.7 2c-1.7 1.5-2.8 3.1-2.4 3.6.4.5.5.5-1 1.2-.8.4-1.7.5-4 .7h-3.2zm4.8-.6c.7-.3 1-.5.8-.6-.3-.4 1-2.2 1.6-2.4.3 0 1.2-1 2-2 1.9-2 1.8-2.4-.2-1.7-1.2.4-1.4.6-1.7 1.8 0 .3-.4.7-.6.8-.6.1-2 2.7-1.8 3 .1.2-.4.5-1 .6-1.3.4-1.7.8-.6.8l1.5-.3zm27.4-3.5c-.2-.6 1.2-1.3 2-1 .5 0 1 0 1.7-.5a4 4 0 0 1 1.3-.5c.2 0 .5-.3.5-.7.1-.3.4-.7.7-.8 1-.3 2-4 2.5-9.9.7-5.8.5-8-.6-12.9 0-.3 0-.6.2-.6.4 0 1.3 2 1.6 4 .3 1.8.4 2 .8 1.7.4-.4-.6-6-1.5-8-.4-.8-.6-1.7-.5-2 .3-1-1-3.1-2.7-4.8l-1.5-1.5-.4.4c-.6.6-.8.3-.6-.8 0-.7 0-.9-.3-.9s-.5.2-.5.5l-.1 1c-.1.2.3.6 1.3 1.1 2 1.2 3.5 3 3.6 4.6.1 1.2-.3 1.5-.5.4-.5-1.7-1.9-3.2-4.1-4.6-.8-.5-1-.6-1.4-.3-.3.2-.2.4.4 1.2 2.2 2.6 2.6 3.7 2.7 6.8.2 2.5-.4 2.4-.6-.2a6.4 6.4 0 0 0-.9-3.4l-1-1.8c-.5-.8-1.4-1.8-1.7-1.8-.1 0-.4.1-.6.4-.3.3-.3.5.2.8l1.3 1.5.7 1-.1 2.5c-.2 2.6-.8 4.3-2.2 5.7-1 1-2.4 1.9-3 1.7-.4-.1-.6 0-.8.5l-.3.7-1-.1-1.1-.2-.3.7c-.2.3-.4.6-.6.6-.2 0-.8-1.3-.6-1.7 0-.1-.3-.5-.8-.8l-.9-.6-.2.4c-.3.5-.3.8.4 4.2a12 12 0 0 1 0 4.5c-.5 4.6-.5 6 0 8 1 2.8 2.4 4.9 1.7 2.3-.4-1.3-.4-3.2 0-3.4l.3 1c.2 1.4 1 3.3 1.6 3.8.2.2 1 .4 1.7.5 1 .1 1.5.3 1.8.8.3.5.5.6.7.4.6-.6 1-.4.9.5l-.2.8.6-.3c.3-.3.5-.6.4-.9zm1.3-3.9v-2a125.6 125.6 0 0 0 1.4-11.6c.5-.3.5 3 0 6.6a47 47 0 0 0-.5 6.3c0 1.7 0 2.3-.3 2.4-.3.1-.5-.3-.6-1.7zm-5.4-2.2.5-3 .5-5.9c.3-3.8.5-4.8 1-4.4.3.3-.5 9.6-1 12-.2 1.1-.6 2.1-.8 2.2-.2 0-.3-.2-.2-1zm6.8-1 .4-2.4c.9-4.3 1.1-8.8.5-10.8 0-.3 0-.5.3-.5.2 0 .5.6.8 1.5l.4 1.5v-2c0-1-.2-2.6-.4-3.4a13 13 0 0 1-.4-1.8v-.4l.4.4c1.2 1.3 1.6 7.5.6 8.7-.3.3-.5 1.3-.7 2.7a36.3 36.3 0 0 1-1 5.6c-.4 1.4-.9 2-.9 1zm3.6-.5a30 30 0 0 0 .6-12c0-1.6.5-1.1.8.7.5 3 .2 7.6-.7 10.9-.3 1-1 1.4-.7.4zm-11.3-3.7a49.2 49.2 0 0 1 1.1-5.3c.3 0 .2.3-.4 4-.5 2.8-1 3.7-.7 1.3zm11.6 10c.3-.4-.1-.6-.6-.1l-.5.5h.5l.6-.3zm-22.8-1.2c.8-1.2.9-1.5.1-1.7-1-.3-1.1-.2-1.1 1.3l.1 1.4c.1 0 .5-.4.9-1zm27.3-.2c.4-.3.4-.4.1-.4l-1 .4c-.3.3-.4.4 0 .4.2 0 .6-.1.9-.4zm4.6-.9c0-.2-.9-.5-1.5-.5-.2 0-.3.2-.3.4s.2.4.9.4c.5 0 1-.1 1-.3zm-5-.2c.2 0 .5-.2.5-.4 0-.3-.9-.2-1.4.2-.6.4-.3.5.8.2zm7.2-.2a1 1 0 0 0-.7 0l.4.1c.3 0 .5 0 .3-.1zm-41.2-.8c.2-.3.5-.7.7-.7.6 0 2.2-1.6 3-3l.6-1.2-.6-.7-.6-.7-1.6 2c-1.6 2-3.9 3.7-5 3.7-.4 0-.6 0-.6.2 0 .5 1.4 1 2.5 1 1 0 1.2 0 1.6-.6zm7.8-1.3c1-.5 1.7-1 2-1.6l.4-.8-.6-1.2c-.7-1.3-1.8-1.9-2.6-1.2l-1 .5c-.6 0-.7.2-.8 1 0 1-.4 2-1.3 3l-.4.7 1.2.5c.8.3 1.2.4 1.3.2a7 7 0 0 1 1.8-1zm25.2-2.4c.2-1.1.5-2.3.8-2.6.2-.3.4-.8.4-1.2v-.7l-.6.8a4 4 0 0 0-.8 1.3 178.6 178.6 0 0 1-1 4.8v.5l.5-.5c.2-.3.5-1.4.7-2.4zm-44-5c.3.3.5.3.8 0 .6-.5.7-1.3.3-1.6a6 6 0 0 1-1-1.3c-.9-1.4-2.3-2.8-2.9-2.8-.3 0-.4-.2-.2-1.1l.1-1.2-.7.8c-.3.4-1 .7-1.3.7-.9 0-2.7 1-3 1.6-.2.3 0 1.2.5 3.2.4 1.4.7 2.8.6 2.9-.2.4.6.5 1.3.3.4-.2 1.3-1 2-1.7 1.5-1.5 2.1-1.6 1-.1-1 1.2-.4 1.3.8.1.5-.5 1-.8 1-.7.2.1-.4.8-1.1 1.5-.8.7-1.4 1.4-1.3 1.6.1.1.8-.3 1.5-1 1-1 1.5-1.3 1.7-1.1zm17 1.8c.4-.5.2-1.5-.5-1.6-.6-.1-1.5.7-1 1 .2 0 .4.2.4.5 0 .6.6.7 1 .1zm-17.8-.1-.1-.3-.3.3.1.3c.2 0 .3-.2.3-.3zm23.3-.2.3-1.2v-.7h-1c-1.6 0-3 .5-3 1 0 .2.4.5.7.5l1.4.4c1.2.6 1.3.6 1.6 0zm22.5-2 .6-1-.2-2c-.2-1.7-.6-3.5-.7-2.6a417.4 417.4 0 0 0-.4 6.5l.7-1zm-23.6-.8c.2-.3.3-.5.2-.6-.2-.3-1.6.2-1.7.6-.1.5 1.1.4 1.5 0zm-4-.1c0-.5-1-1.2-1.4-1-.7 0-.8.9-.2 1 .8.2 1.7.2 1.7 0zm29.3-4c-.3-2.6-.5-3.2-.7-3.2-.2 0-.2.2-.1.4l-.1.8c-.3.3-.2.7 0 1.6.3.7.5 1.5.5 1.8v.5l.3-.5v-1.3zm-156.5.8c0-.2-.2-.3-.4-.3s-.4.1-.5.3c-.1.1 0 .2.4.2.3 0 .5-.1.5-.2zm-13.8-.5-.3-.6c-.4-.3-4-1.6-4.1-1.5-.4.4 1.5 1.6 3.3 2 1 .3 1.1.3 1.1 0zm-5-.8-.5-.4v.4c0 .2.1.5.3.5.6.2.6 0 .1-.5zm130.2-4c0-.2.3-.4.6-.6.8-.2 1-1 1.2-2.7.1-2.4.2-3.5.4-4.4.2-1.1-.2-2.2-1.1-3l-.6-.5-.2.6a21 21 0 0 0-1.6 5.3c-.2 1-.6 2.5-.9 3.1-.2.7-.5 1.6-.4 2 0 .5-.2 1.3-.4 1.8-.8 1.8-.5 1.9 1.3.3 1-.9 1.7-1.7 1.7-1.9zm26.3 1.7c.7-.3.5-1.6-.2-1.8-.8-.3-1.3.4-1 1.3.4.7.5.7 1.2.5zm18-2.7c0-.6-.3-1.2-.4-1.2-.2 0-.2.3-.1.5l.3 1.5c.2 1.4.4.7.2-.8zm-13.7.2c.6 0 2.4-2 2.7-3.2.4-1.4.4-4.1 0-4.5l-1.2-.4c-1.6-.3-3 2-3.1 4.9 0 1.8-.3 2.5-1 2.3-.7-.2-.6.8 0 1.6l.6.6.8-.7 1.2-.6zm-143 .6c0-.2-.3-.5-.6-.6-3-1.2-4.3-1.7-4.4-2-.2-.3-.6-.4-1-.4l-.8.1 1 .7c1.8 1.1 4.8 2.6 5.3 2.6.2 0 .4-.2.4-.4zm115.5-.2c.5-.4.4-1-.2-1-.4 0-.5.2-.5.7 0 .7.2.8.7.3zm-47.3-.2c.3-.2 0-.2-1-.2-.7 0-1.4 0-1.4.2 0 .4 1.9.4 2.4 0zm66.5-.8c-.2-1.2-1-3.3-1.3-3-.2.2 1 4.1 1.2 4.1.1 0 .2-.5 0-1.1zm-78-.8c.4-3 .5-4.7.3-5.1-.1-.3-.2-1.3-.1-2.3v-2c-.3-.2-.9.3-.9.8 0 .3-.8 2.3-2 4.4-1 2.1-2 4.1-2 4.5v.7l.9.1 2.2.1H97zm-8.5-.2 1.6-1.7c1.1-1 1.6-2.2 2.2-4.7.4-1.8.3-2-2.5-1.8-3.2 0-2.6-.6.7-.8h2.4v-.9c0-.4-.4-1.5-1-2.5-.4-1-.9-2-.9-2.4 0-1-1-.7-1.3.4-.3 1-.8 1-.6 0 .2-.9-.6-1-.8-.1a8 8 0 0 1-.9 1.5c-.5.7-.6 1.2-.5 1.9.2 1.3-.3 3.9-1 4.9-.4.8-.3 2 .4 2.3l.2 1.2.2 2.2c.2 1 .3 1.3.8 1.3.3 0 .8-.3 1-.8zm10.7-1.7c0-1.6-.3-2.6-.7-2.2a12 12 0 0 0 0 4.3l.3.5.2-.5.2-2.1zm10.6 2.2c.5-.3.1-.3-.6 0-.4.2-.4.2-.2.3.3 0 .6-.2.8-.3zm-95.7-.4c-1.1-.5-1.7-.5-1 0 .3.2.8.4 1.2.4h.7zm71.5-1.8c0-1.3 0-2.3-.2-2.3l-.3-.8-.4-1c-.5-.2-1.4-2.2-1.3-2.9.1-.3 0-.7-.2-.9-.6-.5-.4-1 1-2 1.2-1 1.6-1.4 1.7-2 .3-1.4-.2-2.3-1-2.1-1 .2-3.1 3-3.4 4.3-.4 1.7-.3 3.1.4 3.8l1.3 1.6.8 1v1.8c-.1 1.5 0 2 .4 2.8 1 1.5 1.2 1.2 1.2-1.3zm-2.9-1c0-2.2-.2-2.7-.7-3.4-.7-1-1-1-1.1-.3-.2.8 0 4.1.3 4.7.2.3.3.8.3 1 0 .4.4.6 1 .7.2 0 .3-.8.2-2.7zm8 2c-.2-.3-.7.2-.6.5h.5c.2-.2.2-.4.1-.5zm-76.1.2c0-.4-.3-.5-1.6-.7-1.4-.2-1.2.2.3.6 1.2.4 1.3.4 1.3 0zm63.3-.6c0-1.6-.1-6.2-.3-6.7 0-.2-.2-.4-.4-.4s-.6-.3-.8-.5l-.5-.6.5-.2c.3 0 .5 0 .6.2.2.7.5.2.5-1a43 43 0 0 1 0-4.2 110.5 110.5 0 0 0-13 .1c-.9.2-1.3 1-1 1.8l.3 2.1c.1 1.3.2 1.6.6 1.5.7 0 .8.4 0 .6-.4.1-.6.4-.7 1.7-.3 2.1-.3 3.5 0 3.7.1.2 1.3.4 2.6.5 1.3 0 2.8.3 3.2.5l3.6 1c1.5.2 2.8.6 2.8.6l1 .1h1v-.8zm-12.4-7.2c-.1-.2 4.8-.6 5-.4h2.5a7 7 0 0 1 2.5-.1c.1.1-1.1.4-2.8.5-3.1.3-7 .3-7.2 0zm114.5 6.8c0-.4.1-1 .3-1.4.9-1.5 0-2-.9-.6-.5.8-.6 1.5-.4 2.3.3.7 1 .5 1-.3zm-100.1-2.8c0-1.5-.2-2.3-.4-2.3-.7 0-.9 2.2-.3 4 .5 1.6.7.9.7-1.7zm92.5 1.9c0-.3-.2-.5-.3-.4v.7c.1.3.3.5.4.4v-.7zm-49.7-1.3c.1-1.5-.1-1.7-1-.5-.4.6-.5.8-.2 1.1.1.2.2.5.1.7-.1.2 0 .3.4.2h.7zm55.6-.2c-.3-.2-.7.2-.7.6v.5l.4-.5c.3-.2.4-.5.3-.6zm-120 .6-.5-1c-.2-.6-.4-1.6-.4-2.3 0-.8-.1-1.7-.3-2.1-.3-.5-.4-1.4-.4-2.2 0-.8 0-1.6-.2-1.8 0-.2-.8-.3-1.9-.3h-1.7l.2.9c0 .6 0 1-.3 1.4a2 2 0 0 0-.4.8c0 .4 1 .6 1.6.3.4-.2.5-.1.5.1 0 .3-.6.5-2.5.6h-2.8c-.3-.2-2.4-.2-2.6 0l.9 1.2c.5.6 1.1 1.5 1.3 2 .6 1.4 2.1 2 5.5 2.2 1.5 0 2.8.1 2.9.2h1zm-17.7-1.1c.7-.2 1.1-1.3.7-1.8l-.4-1.3c-.2-1.3-.4-1-1 1-.8 2.7-.8 2.6-.3 2.4l1-.3zm53.5-1c.1-.3.5-.9.9-1.3l.6-.7-.1-1.6c-.1-1-.3-1.8-.5-2-.5-.7-.6-3.4-.2-4.6.2-.5.3-1.3.3-1.7 0-1 .5-1 1 0 .3.7.5.8.9.7 1-.3 1.7-.9 1.8-1.6.2-1 1-1.7 1-1.1v1.5c0 1.4.4 1.5 1.8.2.7-.6 1-1.1 1-1.7 0-.5.3-1.1.5-1.4.2-.3.4-1 .4-1.4v-.7l-.6.1c-1.4.4-3.1.5-4 .2-.8-.4-1-1.2-.2-1 1 .2.6-.2-.6-.7-1.4-.7-2-1.3-2-2.1l-.6-1.7c-.4-.9-.4-1.3-.2-1.7.3-.6 0-.6-1.4-.2-.8.2-1 .5-1.5 1.4l-.7 2.2c0 .6-.1 1.6-.3 2.3-.1 1 0 1.2.3 1.2.6 0 .5.4-.4 1.2-.8.9-1 1.6-.4 2.4.4.6.8 2.2 1 3.7l1 2.5.7 1.5v3.1c0 2 0 3.3-.2 3.7l-.3.6.4-.4.6-.9zm-33.3.3-.3-1.9c-.3-2-1-1.3-1 1 0 1.3.2 1.5.9 1.5.4 0 .5-.2.4-.6zm38.4-.3.3-1.6.5-2.5c.7-4.6.8-5.4.7-5.6-.3-.2-1.4.6-1.6 1.1-.5 2.9-.6 9.2-.1 9.2l.2-.6zm-37.5-.6-.3-2-.1-1.1-.2 1c-.2 1.2 0 2.8.3 2.8.2 0 .3-.3.3-.7zm118.8-.1 1.4-.5c.2 0 .3-.1.2-.5 0-.3.2-1 .4-1.3.7-1 0-.7-1.1.5-1 1-2 1.7-2.2 1.4l1-1.1 1.7-1.6c.3-.3.7-.6 1-.6.2 0 .5-.1.6-.3l1-.3h.8l-.4-.6-.4-.5-.8.5-1.4.8c-1 .6-4 4-3.8 4.3.2.5.9.4 2-.2zm-134.4-2.1a10.9 10.9 0 0 0-2.6-2.2c-.2.4 1.1 2.3 2 2.9l1.3 1c.4.4 1 .6 1.3.6.3 0-.2-.6-2-2.3zm39.5 1c.3-1.4.4-4 .2-4l-.8.6c-.5.4-.7.7-.7 1.5 0 1.9 1 3.3 1.3 1.9zm92-.3c.2-.3.5-.4 1-.3.6.1.8 0 .8-.2 0-.7 2.3-3 3.4-3.5.7-.3 1.1-.8 1.3-1.2.2-.5.6-.9 1-1 .6-.1.7-.3.7-1.2 0-.8-.2-1.2-1.4-2.4-1.1-1.1-1.7-1.5-2.6-1.7-1-.2-1.2-.3-1.3-.9-.2-.6-1.6-1.3-3.4-1.7l-.7-.2.2 1c.2 1.3 1 2.3 2 2.8 1 .4 1.8 1.8 1.3 2.1-.4.3-1.3.1-2.1-.3-.3-.1-.8-.7-1.2-1.3l-1-1.2c-.5-.2-3.2 2.3-3.4 3.1-.3.8-1.5 1.8-3 2.2l-.7.3 1.1.8c3.3 2.4 5.5 4.1 5.8 4.6.4.6 1.7.7 2.2.2zm.5-2.1c0-.3-.1-.8-.3-1-.3-.6.2-1.2.7-.8.5.5.5 2.4 0 2.4-.2 0-.4-.3-.4-.6zm1.2 0c-.3-.6 0-1.7.2-1.6.2 0 .4.4.4.8.1.8-.4 1.4-.6.8zm-7.1-2.5c-.2-.2 0-.6.4-.6l.2.4c0 .4-.3.5-.6.2zm.9-1.2c0-1.5 1.4-2.2 1.7-.9.3 1.1 0 1.6-.9 1.7h-.8zm-92.8 5.2.2-2.1c0-1.2.2-2.2.6-3.3l.8-2.6.2-1.1-1-1.2-1-1.2.2-1.3c0-.8.3-1.6.6-1.8l.4-.5-.1 1c-.1.8 0 1.2 1 2.7.8 1.3 1.4 1.8 2.8 2.2 3 .8 3.7.9 4.3.4 1.2-.7 1-1.5-.6-4.5-1.5-2.6-1.6-3.3-.9-3.7.4-.3.4-.4.1-.8l-.3-1c0-.5-.4-.5-3.5.6l-3.2.9-1 .5c-.3.3-.8.5-1.1.5l-1.7.5-1 .5v1l.5 1c.2.2.5 1 .7 1.7l1 2.3c.8.8 1 1.8.7 1.8l-1-.9c-1-1.2-1-.3.2 1 1.7 2.1 2.2 3 1.3 3-.4 0-.5.3 0 1.3l.2 2.1c0 1.4.3 1.8.6 1zm-21.1-.9c0-.4.2-1 .4-1.3.1-.4 0-1.5-.1-2.7l-.3-2h-.6c-.7-.2-.9.6-.2.9.5.2.5.9 0 .9-.6 0-.7.3-.3 2l.4 2.2c0 .4.1.8.3.8l.4-.8zm2.1-1.3-.1.4c0 .4 0 .6.1.4 0-.2.1-.5 0-.8zm1.6-2.9-.4-4.4-.3-1 .7-.8c.5-.7 1.3-1 3.4-1.7a209.3 209.3 0 0 0 9.4-3.3l.7-.5-.8.2c-.5 0-2.7.7-5 1.4l-4.2 1.2-.2-.6-.5-.6-.6-.1c-.3 0-.4-.7-.6-2-.4-5-.5-5.4-1.2-5.7-.4-.2-1.6.5-1.6 1l.8 1c.5.4.8 1 .9 1.4l.2 1.4.5 2.4.3 2h.7c.5 0 .4 0-.6.4-1.6.6-2 .7-2 .2 0-.1 0-.5-.2-.8a7 7 0 0 1-.5-1.7c-.3-2-.7-3.2-1-3.2-.6 0-.5 1.4 0 3.6.6 2 1 4.3 1.4 9.5.3 3.6.4 4 .7 4v-3.3zm34.6 2.5c0-1.4-.8-3.5-1.2-3.5-.4 0-.6 2-.4 3.5l.2 1 .7-.2c.6 0 .7-.2.7-.8zM52.5 102l-.3-.2c-.2 0-.3.2-.3.4s.1.3.3.2c.1 0 .3-.2.3-.4zm134.2.3c1-.5.9-.8-.1-.5l-.8.5c0 .3.1.3 1 0zm-125.4-1.1-.2-3c-.2-3.3-1-7-1.9-8.1-.7-1-.7 0-.2 2.3l1 4.5c.5 2.6 1.1 5.1 1.3 5.1.1 0 .1-.3 0-.8zm9.3-2.1c0-.2-.8-.5-1.8-.7-1-.1-2.4-.6-3.2-1-2-1-2.4-.9-2.2.3v1l1.8.3c2.4.5 5.6.5 5.4 0zm6.5-1.1c0-1.5-.4-1.6-6.6-1.8-2 0-2.5 0-2.8.4l-.5.4.7.3c1.6.6 4.7 1.1 8.8 1.5.2 0 .4-.3.4-.8zm-18.8-.2c.6 0 .7-1.6 0-4.8-.3-2.3-.8-3-.9-1.6v.7l-.2-.9c-.2-1.3-.8-1.4-.8-.1 0 1 .5 5.8.7 6.7.1.5.2.5.4.3s.6-.3.8-.3zm-21.6-3.4c.1-.2 0-.3-.3-.3-.2 0-.3.1-.2.3l.2.2c.1 0 .2 0 .3-.2zm145.7-.2c0-.3-2.2-3-2.5-3-.5 0-.1 1.2.8 2 .9 1 1.7 1.4 1.7 1zm-156-.8c.1-.2 0-.8-.3-1.4l-.4-1-.3.6c-.3.8-.2 1.6.1 2 .4.4.7.3 1-.2zm8.7-.7c-.9-1.4-2.4-3-2.6-2.9-.4.4 0 1.3 1.2 2.3 1 1 1.8 1.3 1.4.6zm40.3-.8c.4-.4.4-.4 0-.4-.7 0-1.3.3-1.1.5.2.4.5.3 1-.1zm-48.5-1c-.1-1-.6-1.4-.6-.6 0 .5.5 1.7.7 1.6v-1zm36.6-2c-.2-1-.5-1.8-.6-1.9-.4-.4-.4.3 0 2 .3 1.3.5 1.9.7 1.7.2-.1.1-.8-.1-1.9zm40.3 1.8c.3-.2.2-.3-.4-.5l-1-.3a8 8 0 0 1-1.5-1.5c-.7-.8-1.4-1.4-1.5-1.4l-.1.5c0 .5 2 2.4 2.6 2.4.2 0 .4.2.6.5.3.6.7.7 1.3.3zM90.6 89c0-1.3.3-2 .7-2.5.7-1 .7-1.2 0-1-.6.1-.7 0-.7-.2 0-.5-.3-.4-2.6.7-1 .4-1.7.8-1.6.9 0 0 .5 0 1-.3 1-.6 2-.6 1.7 0 0 .2 0 .8.3 1.3.2.5.4 1.3.4 1.8 0 .7 0 1 .3 1s.4-.5.5-1.7zm10 1.2c0-.2-1.9-2.3-2.2-2.4-.5-.2 0 1 .7 1.7.7.8 1.5 1.2 1.5.7zm-21.8-1.1c.6-.1 1.8-.6 2.6-1l4.5-2c3.1-1.4 3.7-1.7 3.4-2-.1-.4-.8-.3-3 .3-.8.3-1.7.4-2 .4-.3 0-.6.2-.8.3-.2.2-.6.2-1.2 0-.5 0-.7-.2-.5-.2l2.6-1.1 2.1-1.1 1 .4c.5.3 1.2.4 1.5.3.7-.1 1.7-1.9 1.3-2.1-.3-.2-1.3.1-1.3.4 0 .2-.6.2-1.4.2-1.5-.2-4.7.4-6.1 1a6 6 0 0 0-1.7 1.3c-.5.5-1 1-1.2 1-.1 0-.2 0-.2.3l-.7 1.4c-.3.5-.6 1-.5 1.1l-.1 1-.3.7.5-.2 1.5-.4zm-.3-.5c-.2-.4 0-2.3.5-3 0-.3.4-.5.6-.5.3 0 .3.1 0 .7-.3.4-.4 1-.4 1.4 0 1-.4 1.8-.7 1.4zM71 87.6c0-1.7-.2-1.9-.7-1.9-.4 0-.4.2-.2 1l.2 1.8c0 .5 0 .7.4.6.3 0 .4-.4.3-1.5zm3-.7c.1-2.3 0-2.8-.5-2-.4.8-.5 2-.2 3.2.2 1.4.5 1 .6-1.2zm23.6-2.5c.5-.6.2-.8-.5-.5l-.7.4.3.8c.3.6.3.7.4.2 0-.3.3-.7.5-.9zm-26.4 0c0-.5-1-.8-2.9-.8-1.7 0-2.3.3-1.4.7.5.3 4.3.4 4.3.1zm22.2-1.2 2.6-.6c.7 0 .8-.6.4-1.4L96 81l-.1.3c-.1.3-.6.4-1.3.5-.8 0-1.4.2-2.5 1-2 1.4-1.8 1.6 1.2.5zm5-1c0-.2 0-1-.2-1.5-.3-.9-.2-1.1.1-1.7.3-.4.4-.8.3-1-.7-1.1-1.5 2-1 4.2.1.8.9.8.9 0zm-24.1-.7c0-.2 0-.5-.2-.7-.1-.2-.2-.6-.1-.9.2-.9-.6-1-1.4 0-.7.7-1.8 1.3-2 1-.3-.3 1.2-1.8 2.3-2.3 1-.6 1-.4 1.7-7 .4-4.3.4-6.5-.2-6.5a88.9 88.9 0 0 1-5 4.5L67.8 71l-1.3-.3c-1.1-.3-1.6-.2-2.7.1-1.5.5-1.9 1-.7 1.3l1.1-.1 1-.4.6-.2-.3.4-1 .6a17 17 0 0 0-4.2 2.6c-1 .9-.8 1.4 1.3 2.8 1 .6 2.2 1.7 2.8 2.3.8 1 1.2 1.2 1.7 1.1l1.2.1c1.1.5 6.7.6 7 .2zM64 81l-.4-.6c-.3-.2-.4-.2-.4.1 0 .2 0 .5.2.6.2.2.6.2.6 0zm31.3-.7c.2-.6.2-1.4 0-1.4-.4 0-.9.6-.9 1.2 0 .7.7.8 1 .2zm2-2c0-.1-.1-.2-.4-.2-.2 0-.4.2-.4.5 0 .5.1.5.4.3.3-.2.4-.5.4-.6zm-22.2-2.2c0-.3-.1-.4-.3-.3l-.2.4c0 .2.1.3.2.3.2 0 .3-.2.3-.4zm27.5-.5c.4-.4.4-1 0-1a2 2 0 0 0-.7.8c-.3.5-.3.6 0 .6l.7-.4zM5.9 139.7l.5-1c.8-1 1.6-3.4 1.3-3.6-.1-.1-.2-.7 0-1.5.3-2.5-.8-7.4-1.8-8-.2-.2-1 .6-2 1.6-1.7 1.9-2.8 2.4-2.8 1.5 0-.3.4-.7 1-1a7.5 7.5 0 0 0 2.8-2.4c.2-.4 0-.7-1-1.7-.8-.8-1.1-1.4-1-1.5.4-.2 1.6.6 2.2 1.4l.4.4.4-1.4c.7-2 .6-3.7 0-4.8-.6-1-.7-1.3-.1-1.3.5 0 .5-.3 0-1-.7-.8-.5-1.3.3-.5l.7.8v3c0 2.1-.2 3.5-.5 4.3-.4 1.2-.3 1.8.2 2 .2 0 .7 1 1 1.9.3 1 .7 1.7.8 1.7l.4-.6c.2-.7 1.9-2.8 2.2-2.8.5 0 .3.4-.4 1.1l-.6.6.1 1.7c.2 1.7-.2 2.2-.6.9l-.3-.8-.3.7c-.2.3-.3 1-.2 1.5.7 4 .5 5.4-1.2 8-.7 1-1.5 1.5-1.5.8zm63.3-.7c-.5-.2-.4-1 0-.8l3 .2c2 0 2.5 0 2.3.3-.4.4-4.7.6-5.3.3zm-46.4-.9c-.6-.6-2.2-.7-2.4-.2-.2.5-6 .5-6 0 0-.2.4-.3 1.6-.3 1.1 0 2.2-.2 2.9-.5 1.6-.7 3.5-1 3.3-.5-.2.5 1.7 1 3.4 1 1.8-.2 1.9.4 0 .6l-1.9.3c-.3.1-.6 0-1-.4zm54 .4c-.9-.2-.5-.8.6-.9.6 0 1.3-.2 1.6-.4.4-.2 1.3-.3 2.7-.3l5.2.1c2.4 0 3.1.1 3 .4 0 .3-1.2.3-5.2.2h-5.1l-.7.5c-.7.6-1 .6-2 .4zm.7-2.2c-.2-.4.9-.8 2.3-1l7-.4 5.7-.3 1.3-.6c1.3-.7 3-.8 3.6-.3.4.4 1 .4 4.1.2a62.6 62.6 0 0 0 7.7-1c2.3-.2 2.6-.7.7-1a33 33 0 0 0-10.4-1.5c-1.5 0-4-.1-5.4-.4-1.4-.2-3.7-.5-5.1-.5-1.6 0-2.6-.2-2.7-.4-.4-.6-2.8-1-6.7-1.2a37.6 37.6 0 0 1-3.8-.4c.3 0 .5 0 .5-.2 0-.3-3.2-.8-6.4-1-2.8-.2-4.1-.6-1.8-.6 1.6 0 3.1.2 9.6 1.2a214 214 0 0 0 10 1.5l2.4.5 3.6.5c1.1.2 3.4.4 5 .4a40.3 40.3 0 0 1 13.1 2.1l2 .7h4.6c4 0 13.8-.3 18-.7 1.4-.1 2.2.1 2 .6-.2.2-1.6.3-4.3.3-3.4 0-8.1.3-12.7.7-.6 0-2.7 0-4.8-.2-3.8-.2-6.8 0-10.3.7a38 38 0 0 1-9.5.4c-.3-.4-1.5-.3-2.7.3-.8.4-1.7.5-6.8.7a83 83 0 0 0-7.5.6l-1.7.4-.6-.1zm-66.5-1v-.7c.2-.4 2-1 2.6-.9l1.1.3c1 .2.7.5-1.3 1.2s-2.2.7-2.4.1zm2-1c-.2-.2-.3-.2-.6 0-.2.3-.1.4.4.4s.5 0 .3-.3zm205.9.8c-.3-.4-.3-.5.2-1 .5-.3.6-.5.3-1-.2-.3-.5-.5-1-.5s-1.4-.4-2.2-.8c-.8-.4-2.1-.8-2.9-1-.7 0-1.4-.2-1.5-.4l-.7-.2c-.3 0-1-.3-1.3-.5-.4-.4-1-.6-1.7-.6-1.4 0-3-.2-3-.5 0-.2.5-.3 1.1-.3 2 0 3.2-.3 3-.8l.4-.8.2-.6c0-.1-1-.3-2.3-.4-2.4-.3-2.7-.4-2.5-1 .1-.2-.2-.3-1.3-.5-1.8-.2-2.3-.5-2.1-1.2.1-.4 0-.5-.5-.3-.7.1-2-.3-2-.7 0-.2.1-.3.4-.3l.7-.4c.2-.3.5-.3 1.5.4.6.5 1.7 1 2.3 1.1.6.2 1.2.5 1.3.7 0 .2.5.4.9.5.4 0 .9.4 1 .6.2.3.7.5 1.6.6 2 .3 2.4.6 2.4 2 0 .6.2 1.4.4 1.8.4.5.7.7 1.6.7a3 3 0 0 1 1.7.4c.6.5 3 1.4 5.2 2l1.2.2v.8c0 1.2-.8 2.4-1.5 2.4-.3 0-.8-.2-1-.4zM10 133.8c0-.4 1.5-1.4 1.8-1.2 0 .1-.3.5-.8.9-.7.5-1 .6-1 .3zm9-.2-3-.2c-1.3 0-1.5-.1-1.1-.3.2-.2 1.8-.2 4-.2l3.5.1.3-.4c.1-.3.7-.6 1.2-.7.5-.1 1.3-.5 1.8-.9l.8-.7h5.1v.5l.2.5-1.4-.2c-.7 0-1.8 0-2.6.2a20 20 0 0 0-4.8 2c-.6.4-2.3.5-4 .3zm122.8-.4a8 8 0 0 1-2.7-.4c0-.4.9-.4 5.8-.4 4.4 0 5.5.1 5 .6-.2.2-4.2.3-8 .2zM13.4 132c.7-.2 2.3-.3 2.3 0l-1.4.2c-1 0-1.2 0-.9-.2zm-2.1-1.2c-.1-.2 0-.7.4-1l1-1.5c.5-.8 1.1-1 1.1-.4 0 .3.3.4.7.4 1.6 0 2.6 1 2 2.1-.5.9-1.3.7-1.4-.1-.1-1.1-1-1.1-2.3 0-1.3 1-1.3 1-1.5.5zm24.4-1.1c-2.6-.1-3.2-.2-3.4-.6-.1-.3-.4-.5-.6-.5a.4.4 0 0 1-.4-.4c0-.5.2-.5 2.6.1 1.3.4 2.9.6 4.6.6 1.4 0 2.6 0 2.6.2 0 .3-1.3.8-1.8.8l-3.6-.2zm3.7-1.8c-1 0-1.7-.2-1.9-.3-.3-.4 0-1.3.6-1.5.8-.4 9.7-1.2 10-1v.5l-4.4.4c-4.5.2-5.3.4-5.3.8 0 .3 1 .5 3 .6.9 0 1.7.1 1.8.3.1.3-1.3.3-3.8.2zm35.4-2.1-3.2-.5c-1.3-.3-3.2-.4-4.2-.4-2.3 0-2.5 0-2.5-.3 0-.1.3-.2.8-.2.4 0 .8-.2.9-.4 0-.2.1-.2.1 0 0 .3.5.4 1.6.4 1 0 2.5.1 3.5.3a94.6 94.6 0 0 0 4.2 1c0 .1 0 .2-.2.2l-1-.1zM63 124.4h1c.3.1 0 .2-.6.2-.5 0-.8 0-.4-.2zM7 122c0-.2 0-.3.2-.3.6 0 1.1-1.6 1-3-.2-1-.2-1.2.2-1.2.5 0 .8 1.7.4 3-.3 1.1-1.9 2.4-1.9 1.5zm116-.7-2.3-.2c-2.9 0-2.7-.5.2-.6 2.3-.1 3.1.1 2.6.7-.2.1-.4.2-.5 0zm-118.6-1v-.6c.2-.2.7.2.7.6 0 .5-.5.5-.7 0zm200.4.1c-.1-.5-.2-8.2 0-8.7 0-.3.2-.6.4-.6.3 0 .4.2.2.9-.2 1-.2 2.1 0 5 .2 2 .2 2.6-.1 3-.3.3-.4.5-.5.4zm5-.3a76.1 76.1 0 0 0 .4-10.6v-.6h-1.4l-1.5-.2.1 1.6c0 .8.2 2.2.4 3 .2 1 .3 2.6.3 3.8 0 2.1-.3 2.9-.9 2.3-.2-.2-.2-.6 0-1.5.3-1 .3-1.6 0-3.7a30 30 0 0 1-.5-3.7c0-.9-.1-1.2-.4-1.2-.6 0-2.6 1-2.6 1.4 0 .2-.3.3-.6.3-.8 0-.8-2 0-2.6l.6-.5-.8.2c-2 .3-6 .4-6 .2s.3-.4.7-.5c.5-.1.6-.2.4-.6-.2-.3-.5-.4-1.1-.3-.6 0-.8 0-.7-.3.1-.5 1.5-.8 3-.6 2.2.3 2.8.3 6.1.3 2.1 0 3.2.2 3.1.3 0 .2-.4.3-.7.3-.4 0-.5.2-.4.6v.6h2.2c1.4 0 2.1.1 2.2.3l-.5 1.5c-.4 1-.5 1.6-.5 5l-.1 4.6c0 .8-.5 1.1-.9.6zm-3.6-12.9.4-.4-2.3.2a60.3 60.3 0 0 1-3.8.4c0 .1 1 .2 2 .1 1.2 0 2.1 0 2.2.2.2.3 1.1 0 1.5-.5zM169.4 118c0-.8 1.3-2.1 2.1-2.1.5 0 .8 0 .8.2a8 8 0 0 1-2.5 2.4c-.2 0-.4-.2-.4-.5zm30-1.5c-.3-.6.2-.9 1.5-1 .6 0 1.2-.2 1.3-.4.3-.5.7-.1.8.7l.1.5h-1.4c-1 0-1.5.1-1.5.3-.2.5-.6.4-.8 0zM1.6 115.3c-.2-1.4.1-1.8.7-.9.5.8.5 1.9-.1 2-.4 0-.5-.2-.6-1zm216.2-2.7c-.3-.5-.7-1-1-1.2-.3-.3-.4-.3-.3.3.1 1.3 0 1.4-.5.9-.7-.6-.7-1-.1-1.4.3-.2.2-.4-.7-1.1-1.2-1-1.4-1.3-.6-1.3a15 15 0 0 1 4.5 4.2c-.2.7-.7.5-1.3-.4zm-101 .5h1.3H116.8zm13-.3c.6-.4 4.7-.7 4.7-.4 0 .2-.1.3-.2.3-4.3.3-5 .3-4.6 0zm11.3-.7-1.4-.3c-.5 0-1-.3-1-.4 0-.3 2.7-.3 3.1 0 .4.2.3.8-.1.8l-.6-.1zm-6.6-.8c0-.4.1-.7.3-.8.3-.2.4-.2.6.7.1.6 0 .7-.4.7s-.5-.1-.5-.6zm-112.3.1v-.3c.3-.2 1.7 0 1.7.3s-1.5.3-1.7 0zm197.3-.3c-.5-.5-.4-1.1.1-1 1.2.4 1.2.4 1.3-.3.2-1.4 1.1-1.7 1.6-.7l.3.7-1 .8c-1.3.9-1.8 1-2.3.5zM2.9 110c-.1 0 .2-.6.7-1.2 1.7-2 2.2-3.9 1.4-5.3l-.3-.5-.3 1.5c-.4 1.6-.8 2.4-1.2 2.2 0-.1 0-.5.2-.9.4-.8.5-2.6.1-3.6-.2-.4-.2-1-.1-1.2.1-.5 1.2-1 2-1s.5.4-.4.6c-1 .2-1 .3-.8 1.4.2.6 1.2.8 2 .3.3-.2.2-.3-.3-.2-1.1.1-.9-.5.3-.8 1.3-.3 1.7-.7 1.8-1.5.2-.6 1-.9 1-.3 0 .3-.5 1-1.2 1.6l-1 1.2c.1 0 0 .2-.4.5-.9.7-.5.7.7 0 1.5-.9 2.8-2.3 2.8-3.2 0-1 .6-.8.7.1 0 .5-.2 1-1.2 2-.7.6-1 1.1-.8 1.1.6 0 2.7-1.7 3.4-2.8.3-.5.6-.9.7-.7.3.8-1.7 3.9-3 4.7-.9.6-1.1.3-.5-.4.6-.6.4-.6-1.5 0l-1.4.5-.2 1.3c-.1 1.7-2.6 5.3-3.2 4.7zm32-.2c0-.1.2-1 .7-1.7 1.2-2 1.4-2.6.8-2.6-.6 0-1.2.5-1.6 1.3-.3.4-.5.5-1.1.4-.6-.1-.8 0-1.3.7-.7.9-1.1.8-1.1-.3 0-.8.8-1.3 2-1.3.5 0 1-.2 1.1-.4.4-.4 2.5-1.5 3-1.5l.2.7c0 1.3-2.3 5.3-2.7 4.7zm100.1-.3c0-.3.2-.6.4-.6.3 0 .4.1.1.6l-.4.5-.1-.5zm3.4.2c0-.2 3.6-.5 4.2-.3.2 0 .3.2.2.3-.2.4-4.4.4-4.4 0zm-138-4.6c0-3.5.1-4.8.6-3.7.2.5.2 5.3 0 6.5-.4 2.1-.7.9-.7-2.8zm146.4 3.5c0-.3-.7-.5-1.6-.6-.8 0-1.5-.3-1.5-.4 0-.3 1.4-.5 2.6-.3l1.1.1v.8c0 .8-.3 1-.6.4zm-139.6-1 .4-.4.4.1-.4.4h-.4zm19.6-2.3 1.3-3.7c1.5-3.6 1.5-4 1-4.2-.8-.2-1-.1-1.4 1-.5 1.3-1 1.3-1 0v-1.1l-.4.3-1 1c-.2.5-.5.8-.7.7-.5-.2-.2-1.8.5-2.5l.7-.7-.2.8-.2.8.7-.7.7-.6-.5-.2c-.4-.1-.3-.2.3-.5l.7-.4.7.7c.8.9 1.5 1.1 2.2.7.9-.4 2.5.4 2.4 1.2l.1 1c.2.4-1.3 4.6-1.7 4.9-.4.2-.3-.8.5-2.6.6-1.7.7-2.3 0-2 0 .1-.6 1.2-1 2.5-.8 2-1.3 2.8-1.3 1.9 0-.8 1.7-5.1 2-5.4.3-.1.3-.3 0-.5-.5-.7-1-.4-1.4 1l-.6 1.6-1 2.7c-1 2.4-1.4 3.3-1.4 2.3zm172.8-.1c0-.2-.7-.3-2.4-.2-2.8.1-3.4-.4-.8-.6 1 0 2.1-.3 2.7-.6.5-.2 1.5-.5 2.3-.6 1.1-.1 1.3-.1 1.3.3 0 .3-.2.4-.7.4-.4 0-1 .2-1.3.4l-.5.4.6-.1 2.3-.3c1.6-.2 2-.1 2.3.2.2.3.3.5.2.6l-3.1.3c-2.1 0-3 0-3-.2zm-61-.2c-.1 0-2-.2-4.5-.2l-4.5-.1v-.3c.1-.2 2.3-.2 7.4-.1 7.1.2 8 .2 8 .6 0 .2-6.2.3-6.4 0zm-21.9-.1.6-.5c.8-.4 11.8-.6 11.5-.2a148 148 0 0 0-12 .7zm-71-.4c-.2-.3-.1-1.1.1-1.1s.3 0 .3.2c0 .5.8.3 1-.2 0-.5.6-.8.6-.4 0 .8-1.6 2-2 1.5zm167-.6v-.3c0-.3-.6-.4-2.1-.5a5 5 0 0 1-1.6-.2c-.3-.1 3.2-1.1 4-1.1.5 0 1.4 1 1.4 1.5 0 .3-1.6 1-1.6.6zm-180.5-.6.6-2c.5-.8.9-1.8 1-2.2.2-1 .8-1 1.2.1.4 1.1 1.6 2.4 3.4 3.4 1.7 1 1.5 1.4-.2.5l-2.1-1c-.6-.4-1.2-.8-1.4-1.1-.4-.7-.9-.3-1.1.7l-.7 1.4c-.4.6-.5.6-.7.2zm16.2-.2v-1.8l.2-1.5.3 1.5-.1 1.9c-.2.2-.3.1-.4-.1zm.9-.5c0-.4 1-3.3 1.2-3.1.2.2-.6 3.2-1 3.3 0 0-.2 0-.2-.2zm144.3 0c-1.3-.2-1.3-.3-.7-.8l.6-.5-.3-.6c-.3-.5-.3-.6.2-1 .2-.1.8-.3 1.3-.3h.8l-.8.2-.7.1.1.7c.4 1.8.5 2.4.3 2.4l-.8-.1zm-181.1-.1c0-.4 1.3-2 1.4-1.9.3.4.2 1.1-.3 1.5-.4.4-1.1.6-1.1.4zm190.5-.3c0-.2.4-.7.8-1.2l.8-.8-.6-.1-3.7-.3c-2-.2-3.1-.3-3-.5.1-.5 6.5-.1 7.2.4.4.3 1.8 0 1.5-.3-.1-.1-1.4-.5-2.9-.8a9.5 9.5 0 0 1-3-1c0-.1-.5-.3-.9-.3-.3 0-.8-.2-1-.4-.2-.3-1-.4-4.7-.3l-4.5-.1c0-.5 1.2-1 2.1-1 .9 0 3-.4 4.7-.7l.6-.2-.6-.5-.6-.5.5-.5 1.6-1c1.6-.5 1.5-.9-.4-.9l-1.6-.2c0-.6 4.3-2.2 5.8-2.2v-.2c0-.2-.4-.3-1-.3s-1 0-1 .2c0 .4-4.8.6-5.4.3-.7-.4-.3-.9.5-.7l.8-.1c0-.1-.2-.2-.5-.2s-.5-.1-.5-.3c0-.3 2.6-2 2.9-1.7.4.2 1-1 1.2-2.5 0-1 0-1.4-.2-1.5l-9.5-1.3c-3.4-.4-7.2-.4-7.7 0-.2.2-1.5.6-3 .9a53.3 53.3 0 0 0-5.7 1.4 79.1 79.1 0 0 0-9.4 3.1c-.5 0-.1-.7.5-.9l3.4-1c3-1.1 3.3-1.2 9-2.7 3.5-.8 4.5-1.3 4.1-1.6-.3-.4-7.3-.7-12.6-.6h-4.7c.3-.2 1.4-.3 2.3-.3.9 0 1.7-.2 1.8-.3 0-.2-.1-.3-.5-.3s-.5 0-.3-.2c.1-.2 1-.1 2.4.1l6.6.7a325 325 0 0 1 21.7 2l2.9.4 1.7-.7c1.5-.5 1.7-.7 1.8-1.3 0-.4 0-.9-.2-1-.4-.5 0-1 .8-1.1l2.2-.6c1.2-.3 1.6-.3 1.9-.1.2.2 1 .3 2 .2 3-.3 2.3.1-1.3.7-4 .6-4.8 1.2-1.4 1 1.4 0 2.1 0 2.1.2 0 .1-.2.3-.4.3a75.7 75.7 0 0 0-3 .2c-.8 0-1 .2-1 .4 0 .6-.9 1.5-1.4 1.5l-1.4.3c-.8.2-1 .4-1 .9 0 .8.4.9 3.2.9 2 0 2.4 0 2.4.4 0 .3-.4.4-2.7.2-1.9 0-2.8-.3-3-.5-.5-.6-1.2-.4-1.5.3-.3.8-.1 1 .8 1.3.6.2.6.1.4-.1-.5-.6-.4-.8.2-.7 1.3.3 6.8.6 7.7.4l.5-.2c-.2 0-.3-.2-.2-.3a9 9 0 0 1 3-.3l3.2-.2c.7-.4 1 .1.5.6l-.5.6c0 .3-1 .4-3.2.5-2.8 0-3.3.1-3.6.5l-.3.5-.4-.5c-.3-.3-.8-.5-2.3-.6h-2l1 .3c1 .4 1.5.9 1.1 1.3-.2.2-.5 0-1-.3-.7-.5-1-.6-2.2-.5h-2.2c-1-.3-1.4.1-.6.7.5.4.5 1 0 1.2l1.6.2c1 .1 2 .3 2 .5.5.4 0 .7-1 1-3 .4-5 1.4-3 1.4 1.8 0 1.7 1-.3 1.7-3 1-2 1.7 2.5 1.7 2 0 3.2.2 3.5.4l.5.4-.6.5-.6.8c0 .1-.5.4-1.2.5-.6.2-1.2.4-1.2.6 0 .2.3.3 2.4.8 3.3.7 3.4.8 3.6 1.3 0 .4.3.5.8.5l.8-.1v-2.8l.8-.7c1.3-1.1 3.9-1.9 6.4-2 1.5 0 2.3 0 2.4.2 0 .2-.8.4-2.5.5-2.5.2-4.9 1-6 2-.8.7-.5 2.3.7 2.7.2.1.2.2 0 .5a8 8 0 0 1-2.9.3H205l-.8 1c-.8 1.1-1.2 1.3-1.2.7zm-1.4-6.3c1-.3.8-1-.4-1-2.4-.1-3.5 0-5.2.5l-1.9.5h2.6c1.3 0 2.6.2 2.9.3.3.3.7.2 2-.3zm1.7-1a1 1 0 0 0-.6 0c-.2.2 0 .2.3.2.4 0 .5 0 .3-.1zm-5.7-7.6c.2 0 .3-.2.2-.4-.2-.3-1.3-.2-1.8.2l-.5.4h.8c.5 0 1 0 1.3-.2zm-2.3 14.8c0-.4 1-.6 3.1-.6 1.1 0 2 .1 2 .3l-1.2.2-2.5.2h-1.4zm20.7-1.8c-2-.3-2.4-.4-2.4-.7 0-.1.5-.2 1.5 0l2.8.1c.7 0 1.2.1 1.2.3 0 0 0 .2-.2.2-.8.1-2.4.2-3 0zm5.3-.4-.7-.2.7-.2c.4 0 .8-.3.8-.5s.1-.4.3-.4c.3 0 .4.3.4.8 0 .8-.2 1-1.5.5zM14 99.3c-.1-.2 0-.4.1-.5.2 0 .2-.5.1-1l-.1-1h.5c1 0 .5-.6-.5-.7-1.2-.1-1.6-.5-.8-.7.3 0 .5-.3.5-.5 0-.6 1.5-1.2 2.3-1 1 .1 1.9.8 1.5 1.1-.2.2-.5.1-1-.2-.7-.3-1-.4-1.6-.2-1 .3-1 .7 0 1 .7.2 1.2.6 1.2 1l-.5.8c-.3.3-.6.7-.6 1 0 .4-1 1.2-1.1.9zM3.2 99c0-.2.5-.3 1.1-.3.6 0 1 .1 1 .3 0 .1-.4.2-1 .2s-1 0-1-.2zm5.6-2.1c0-.9.4-1.3.7-.8.2.3-.1 1.5-.4 1.5-.2 0-.3-.3-.3-.7zm32.4-.2c-.2-.4-.4-.8-.3-.9.2-.2 1.2 1 1.2 1.3 0 .5-.4.3-.9-.4zm-33.7-1c0-1.4.2-1.6.7-.6.2.5.2 1 0 1.4-.3 1-.7.7-.7-.7zm118.2 1c-.3-.4-.1-1.3.3-1 .3.1.5 1.4.3 1.4l-.6-.4zM3.5 96.3c-1.2-.4-1.5-.7-1.1-1 .1-.2.2-.5.1-.7 0-.2 0-.4.2-.4.5 0 1.3.5 1.3 1l.8.8c.6.5.6.6.2.6l-1.5-.3zm6.4-1.7v-2l-1-2.2c-1.1-2.2-2.5-4-3.6-4.3-.2 0-.5-.2-.5-.4 0-.4.8-.2 2 .6 1.1.8 1.5 1.3 2.5 3.2 1.2 2.5 1.6 4.3 1.2 6.1-.3 1.7-.6 1-.6-1zm-4.3 1.1c-.4-1.3-.5-1.7-.3-1.9.4-.2.9.5 1 1.6.2 1-.3 1.3-.7.3zm115-.1-.4-1-.4-1.9-.3-1.4c.3-.2 1 .9 1 1.8.3 1.2.6 1 1-.3l.2-1.1v2.2c0 2.2-.2 2.5-1 1.7zM.5 95v-.5c.2-.4.9 0 .9.4s-.7.5-1 .1zM208 93.7c0-.2.3-.3.7-.3.4 0 .7.1.7.3 0 .1-.3.2-.7.2-.4 0-.7 0-.7-.2zm-99-.8c-1.7-.3-3.2-1-2.5-1.2h1.5c.9.1 1 0 1-.3 0-.2.2-.4.3-.4.2 0 .3.2.3.3 0 .1.3.5.7.8.6.6.8 1 .4 1l-1.6-.2zm-90-.6c-.1-.1-.5-.2-.9 0-.4 0-.6 0-.5-.3.2-.7 2.3-.4 2.3.4 0 .3-.7.3-1 0zm-7.7-.4c.6-.4 1-.4 1.5 0 .2.4.1.5-.9.4h-1.1zm196.4.3c-.8-.2-.5-.6.5-.6 1.3 0 2.2.2 2.2.5s-1.9.3-2.7 0zm-193-.6c-.4-1.3-.7-1.9-1.2-2.3-.6-.5-.6-1-.1-1 .7 0 1.5 1.4 1.7 2.6.1 1.2-.1 1.6-.4.7zm96.8-.6c-.4-.6-.4-1 0-1 .1 0 .7 1.1.7 1.4 0 .4-.5.1-.7-.4zm108.8.4-2-.2c-1.3-.2-1.8-.3-1.8-.6 0-.2.2-.4.5-.4l1.5-.1c.6-.2 1-.1.8 0-.2.5.5.7 2.1.7 1.1 0 1.4 0 1.4.4 0 .3-.2.4-1 .3h-1.5zM16 90.4 15 89c-.3-.4-.4-.7-.2-.9.3-.3 1.5 1 1.8 2.2.3 1-.3 1.1-.6.1zm4.2.1c-.7-.6-.7-.8 0-.8.5 0 1 .5 1 1s-.3.4-1-.2zm123.4.3-3.4-.3c-1.9 0-2.8-.1-3-.4l-2.7-1-2.3-.5-1.7.3-2.2.4c-.4.1-.7 0-1-.7-.3-.7-.6-1-1.6-1.2-2.2-.7-2.3-.9-.5-.8l1.6.1 1 1c.6.6 1.2 1 1.3.8.8-.4 3.1-.6 4.3-.4 3 .7 3.6 1 4 1.3.5.4 1.2.4 3.5.4 3 0 4.4.4 4 1-.2.3-.2.3-1.3 0zm66-.4-3.6-.5c-.1-.1 1.4-.2 3.4-.2 3.6 0 5.2.3 4.8.8-.1.3 0 .3-4.5-.1zM7 90l-1.2-.4c-.3 0-.6-.1-.6-.3 0-.3 1.4-.3 2.2 0l.7.7c0 .5-.2.5-1 0zm10.5-.5c-.2-.7-.2-1.7.1-1.7l.4.4.3 1c.2.8-.5 1-.8.3zm203.2-.4 1.1-1.2c.3-.1.3-.3 0-.6a38.6 38.6 0 0 1-5-1.6c-.2 0-.2-.2 0-.4s.4-.2.6 0l1.4.6c4 1.2 5 1.8 3.5 2.4a2 2 0 0 0-.9.6c0 .2-.5.5-.8.7l-.7.4.8-1zm-209.4 0c-.2-.2-.7-.3-1-.3-.7 0-.8-.4-.2-.6.4-.2 1.6.2 1.8.6.3.4-.2.6-.6.3zm192.2-.6c-.2-.3 0-1.3.4-1.3.2 0 .5.7.5 1.2s-.7.5-.9.1zm7.5-.4c-1-.4-1-.4 0-.6 1.2-.3 2.6 0 2.3.5-.2.3-1.6.3-2.3.1zM4 87.6c-.4-.3 0-.5.8-.5 1 0 1.7.2 1.7.5 0 .2-2.3.2-2.5 0zm99.3-2.4c-.1-.7-.6-1.7-1-2.3-.5-1-.5-1.2-.3-1.5.2-.2.4-.4.6-.3.5.3 1.5 2.8 1.6 3.8.1 1.6-.4 1.7-.9.3zm18.4.3c-.4-.5-1-.8-1.3-.8-.3 0-.8-.2-1-.4-.5-.3-1.5-.5-4.5-.8-1.1-.1-1.6 0-2.7.5l-1.4.6.6-.8.7-.7h2.3c1.3 0 3.3.1 4.4.4l2.1.4 2.2-.8 2.5-.8c.7 0 .8-.5.4-1.3-.6-.9-2.1-1.8-4-2.3l-1.6-.4 1.3.2c.7 0 1.8.2 2.3.4 1 .3 1.2.4 2.6 2l.8.9 1.2-.4c1.2-.4 2.8-.7 2.8-.6 0 .2-4.2 1.5-4.6 1.5A163 163 0 0 1 122 84l-.5.2.6.9c1 1.1.5 1.5-.5.4zm88 .6c-.8-.3 0-.5 2.5-.5 3.5 0 3.8.5.4.6l-2.8-.1zm-182.1-.9c-.6-.4-1.4-1.2-1.8-1.8-.8-1.1-2-1.8-3.6-2-.6-.2-.9-.1-1.2.3l-.5.6c-.4 0-.2-.7.3-1.2.4-.4.8-.4 1.7-.3.7.1 1.3.3 1.4.5.2.3.9.2.9-.2 0-.2-.2-.5-.5-.7L23 79.2l-.9-.9-1 .3c-.7.2-1.1.2-1.9-.1-.5-.3-2-.5-3.4-.6-1.4 0-2.6-.3-3-.5-.5-.4-.8-1-.4-1l6.7 1.5c1.3.3 1.8.2 1.5-.4-.1-.1-.3-.2-.5 0-.2 0-1.8-.4-3.5-1.2-1-.4-3.1-.5-4-.2-.7.2-1.7-.3-1.7-.7 0-.2.4-.3 1-.2.6 0 1.4 0 2-.2.6 0 1.6 0 2.8.3 2.2.5 2.2.5 2.2.1l-1.5-1.3c-1.3-1-1.6-1-2.3-1-.6.2-.8.2-.6 0 0-.2.4-.3.7-.3.3 0 .5-.2.4-.4 0-.2-.5-.3-1.3-.2-1.6 0-2.5-.4-2.4-1.1 0-.5 0-.8-.4-1.1l-.6-.5.5-.6c.7-.9.5-1.5-.4-1.3-2.6.6-3 .8-3.4 1.5-.3 1-1.3 1.3-2 .7l-.4-.5.4-.8.5-2a4 4 0 0 1 .7-1.7c.4-.4.5-.9.5-1.6 0-.7.2-1.7.6-2.6 2-4.7 2.4-5.5 3.8-6.7a6 6 0 0 0 2.3-4.1c.3-2.4 1.2-5.5 1.7-6 .2-.3.5-1 .6-1.6.1-.6.4-1.3.6-1.4.2-.2.4-1 .5-2l.2-1.6.4.9c.5 1.3.2 3.2-1.2 7.5-.6 2-1.1 3.8-1 4 0 .2 1.7-1 1.7-1.5s2.6-3.3 3.2-3.5c.5 0 .8-.4 1-.7 0-.4.4-1 .9-1.4l1-1.4c.3-.7 1-.8 1.3-.2.2.3.5.3 2.3-.5 2.5-1.1 2.9-1.2 2.6-.5-.2 1 .3 1 1.7 0 .9-.5 1.7-1.3 2.3-2.2.8-1.2 1-1.5.8-2.4a4 4 0 0 0-.5-1.4c-.2-.2-.1-.4.2-.8l.4-.4v.6c-.1 1 .6 1.4 1.3.8.7-.6 3.5-.7 3.5 0 0 .2-.3.3-1.1.3l-1.6.2a27 27 0 0 0-3.4 5l.4.1.4.2c0 .3 1.6.5 6 .8 1.2 0 2.2.2 2.2.4a36.6 36.6 0 0 0-16 1.1s-.8 0-1.5.3c-1 .3-1.8.8-2.7 1.8a6 6 0 0 0-1.2 1.6c0 .2-1.3 1.5-2.7 2.8-2.9 2.6-4.2 4-4.2 4.6l-.4.7-.3.5c.3.5 1.2.3 1.4-.2.3-1.2.9-2.2 1.1-2 .2 0 .1.5-.1 1l-.3 1.7v1.5c-.4 1-1 6.4-.7 7.2.1.5.3.6.8.4.5 0 .6 0 .6.3s-.2.5-.6.4c-1 0-1.2 0-1.2.7v.7l.7-.2c.7-.1.8 0 .8.3 0 .5.6 1 1.5 1.4 1.1.5 1.5 1.4 1.6 4 0 2.3.3 3 1.3 4.3 2 2.1 2 2.1 2.9 2 .7-.2 1-.1 1.3.4.2.3.4.7.4 1l.6.8c.4.4.5.6.3.7-.9.3.1 2 1.2 2 .6 0 2.2 1.9 2.2 2.6 0 .7-.6.6-1.7-.3zm1.1-.2c0-.3-1-1.2-1.7-1.6-1-.5-.8 0 .3 1 1 .8 1.4 1 1.4.6zM17.4 73c.2-.3-.3-.6-.7-.4-.3.2 0 .7.3.7l.4-.2zm.2-2c.3-.5-.2-1.1-1-1.3-1-.2-1.2-.6-.3-.6.4 0 .7-.1.7-.3 0-.1-.2-.3-.5-.3s-.7-.2-1-.5l-.5-.5-.2.5c-.1.5-.3.6-.5.3-.6-.5-.7-.3-.7 1 0 1 0 1.4.4 1.6.6.3 3.4.4 3.6 0zM13 64.6c-.1-1.7-.4-3.5-.6-3.8-.4-.6-.3-2.3 0-3.3.2-.3.2-.5 0-.4l-.9 1.9c-.6 1.7-1 2.2-1.2 2a13 13 0 0 1 1.5-4.1l.7-1.7.2-.6-.8.6c-.7.7-1.2 1.7-2.6 4.9-1 2.4-1.2 3.2-.5 3 .4-.2.4 0 .3.7v1c.2.2.8 0 1.4-.4 1-.5 1.2-.8 1.1-1.3 0-.5 0-.7.3-.7s.3.3.2 1.6a13 13 0 0 0 .7 4.8c.4.7.5-1.3.2-4.2zm-1.3 2c0-.2 0-.5-.3-.7l-.5-.3.5-.3.5-.3-.4-.1c-.5-.2-3.1 1-3.1 1.4 0 .4 0 .4 1.2-.1s1.2-.5 1 0c-.2.6.7 1 1 .4zm2.5-7.2.3-2.7c.1-.9-.4-1.2-.7-.5-.3.7-.7 4.8-.5 5.1.4.7.8 0 1-1.9zm1.1-11.3c.3-.7.5-1.8.6-2.5l.2-1.4-.4.6c-.6.8-1.3 4.6-.9 4.6l.5-1.3zm100.4 37.3-1.1-.2h1.5c1 0 1.5 0 1.4.2-.2.3-.3.3-1.8 0zM3.5 84.9l-1-.2c-.7 0-1.5-.8-1.2-1.1.3-.3 2.6.6 2.9 1 .2.4-.3.6-.7.3zm11.6-.6c-.7-.8-1.2-1-2.3-1.1-1-.1-1.3-.2-1-.4 1.3-.5 4.2 0 4 .8 0 .6 1.8 1 2.8.4l1-.2c.5.2 0 .9-1 1.1-1.7.5-2.5.4-3.5-.6zm204.2.1c-1-.2-1.7-.6-1.3-.9.5-.3 4.8.5 4.8.8 0 .4-1.7.5-3.5.1zm-212-1c.4-.4 3.4-.9 3.7-.6.1.1-.5.4-1.3.5-1.9.4-2.7.4-2.3 0zM203.2 82c-.4-.4 0-.6 1.5-.6 2.3 0 3.2-.2 3.2-.8 0-.4-.2-.5-.5-.4l-1.8.3-1.3.1.4-.3c.3-.2.4-.5.4-.5-.2-.2 4-.6 5.1-.5 1 .2.8.4-.8.6l-1 .2.4.6c.1.5.5.7.8.7.4 0 .6.1.6.3 0 .2-6.8.5-7 .3zm-70-2c.3-.3.7-.4 1-.3.6.2.2.6-.6.6h-.7zm4.8-.4c0-.4 1-.6 2.6-.7 1 0 1.2 0 1.3.5l.1.4h-2c-1.1 0-2 0-2-.2zm7.2 0c0-.2.4-.4 1-.5.5 0 2-.4 3.2-.7 1.8-.4 3.2-.5 7-.5l4.9.1c0 .3-1.8.5-6.4.6a34 34 0 0 0-6.3.7c-2.4.6-3.4.7-3.4.3zm76.3 0c-.4-.1-.8-.3-.9-.5 0-.3.1-.3 1-.2l1.2.4c.3.3-.4.4-1.3.3zm-87.5-1c-1-.2-1-.6 0-.7h.9c.2 0 .4.1.4.4.1.5 0 .5-1.3.3zm80.4 0-.2-.8c0-.6-.5-1.2-1.1-1.2-.3 0-.5 0-.5-.2 0-.9 2.7-.5 3 .5.4.7 1.1.6 1.2-.2.2-1 1-1.5 2.7-1.4h1.6l.7-1c.8-1 1.4-1.1 1.4-.4 0 1.2-1.3 2-3.4 2.2l-1.7.1-.3 1c-.3.7-.5 1-1.2 1.1a153.4 153.4 0 0 0-2.2.3zm-95.7-.8c-.8-1-3.8-2.9-5.8-3.6-.5-.2-.5-.2.4-.1 1.7.2 7 3.3 7 4.2 0 .5-1 .2-1.6-.5zm-85.8 0c-.1-.2-.5-.4-1-.4-.6 0-.8 0-.6-.2.3-.3 5.6-.5 5.8-.2.1.1-.2.2-.7.2-.6 0-1.1.2-1.4.5-.6.6-1.9.7-2.1.1zm187.3.2c-.1-.1.3-.3 1-.4 1.2 0 1.8 0 1.6.4-.2.3-2.4.3-2.6 0zm-90-.3c-2.5-.4-2.5-.5-.4-.5 1.4 0 2.2 0 2.5.4l.6.4h-.6l-2-.3zm42.6 0c.4-1 7.2-4.5 9.2-4.8 1.3-.2 1.8-.7 1.3-1a152 152 0 0 0-28.8.3 52 52 0 0 0-17 3.6c-1 .7-2.7 1.2-2.9.9 0-.2-.6-.6-1.2-.9l-2.3-1.3c-.7-.4-1.7-.9-2.3-1-1.6-.4-2-1.4-.7-1.4a2 2 0 0 0 1-.5c.4-.3 1.1-.6 1.7-.7l1-.1-1.3.8-1.2.9.6.6c.6.7 4 2.4 5.2 2.7.5 0 1.2-.1 2.2-.7.9-.5 2-.9 2.5-1 .6 0 2.8-.6 5-1.2l4-1 5.2-.3c13.3-.6 15.6-.7 19.5-.6a109.3 109.3 0 0 1 18.5 1.1l5.4.3c3.3.2 11.8.5 15.4.5 1.3 0 1.7.1 1.6.4 0 .2-.4.3-.7.2a306.4 306.4 0 0 0-15.4-.4 1640.1 1640.1 0 0 0-11-.7c-1-.3-1.4-.3-2.2.1-.5.3-1.6.7-2.5.9-1.7.4-5.4 1.9-5.7 2.3-.1 0-.1.5 0 .8.1.9-.6 1.3-2 1.1l-1.3.1c-.2.4-1 .3-.8 0zm-134-.4c0-.2.1-.4.3-.4.1 0 .2.1.2.3l-.2.4c-.2 0-.3 0-.3-.3zm87.1 0h1-1zm-84.1-.6zm180.3-.2h.5l-.3.1c-.3 0-.4 0-.2-.1zm-166.6-.7c-.8-.4-.7-.8.3-.7.6 0 .9.2 1 .6 0 .5-.4.5-1.3 0zm-6.1-.3-2.5-1.1-1.8-1-1.7-.5c-1-.1-1.7-.4-1.7-.5 0-.4 4.8.9 6 1.6 1 .7 1.1.7 1 0l-.2-.7.5.4c1.8 1.4 2.1 2.7.4 1.8zm2 0c-.1 0 0-.2.5-.2h.7v-1.2c0-.6 0-1.2.2-1.2s.3.4.3.8L53 75c0 .2-.2.5-.6.7-.8.4-1 .4-1.2 0zm54.5-2.7-.2-.9c0-.7.6-.6.8.1 0 .5-.3 1-.6.8zM40 72l-.6-.4.7.1c.5.1 1 .3 1 .5.5.3-.3.2-1-.2zm75.8.2c-2-.3-1.6-.6.6-.6 1.8 0 2.2 0 2.2.4s-.8.5-2.8.2zm8.3 0c-.8-.1-1-.6-.3-.6l1.3.4c.8.4.5.5-1 .2zM38 71.5c-.4 0-.6-.2-.6-.3 0-.3.8-.1 1.6.3l.4.2H39l-1-.2zm-28.7-.3c-.3-.2-.2-.3.4-.3.5 0 1 .1 1.2.3.3.2.2.2-.4.2-.4 0-1 0-1.2-.2zm35.4-.2c.9-.3 1.3-.3 1.5-.1.2.2.1.3-.3.3l-1.4.1-1 .2zm53.7-.2c-.3-.2-.4-.4-.2-.5.1 0 .5 0 .9.4.4.3.5.5.2.5s-.7-.2-1-.4zm-68.7-.1c-.5-.4.2-.5 2.2-.3 1.3.1 1.6.2.8.2l-1.8.2-1.2-.1zm5.5 0h.5c.1.2 0 .2-.3.2s-.4 0-.2-.2zM23.5 70l-3.2-.6c-.7-.3-.5-.3.8-.2 1.6 0 4.8.7 5 1 .3.2.4.2-2.6-.2zm14.3.2c-.2-.2.3-1.2.9-1.6.7-.6 1.3-.9 1.3-.7 0 .4-2 2.5-2.2 2.3zm54.5-.3c-.9-.2-1.1-.6-.4-.6 1 0 1.8.3 1.8.6 0 .2-.5.3-1.4 0zm40.7 0c-.2-.4.5-.6 1.1-.5.4 0 .3.1-.2.4-.5.2-.8.2-.9 0zm-47.2-.3c0-.1.3-.3.7-.3.6 0 .7.1.3.3-.5.3-1 .3-1 0zm50-.3a88.4 88.4 0 0 1 16.2-2.7c.3.3-.4.5-3.5.9-2.4.2-6.6 1-10 1.5-1.3.3-2.5.4-2.7.3zm82.4-.5a186.4 186.4 0 0 0-21.6-1.5c-1.1-.3.1-.6 2.2-.5A851.9 851.9 0 0 0 219 68l3.6.1v.5c.2.4 0 .5-.6.4l-3.9-.2zm-151.7-.7c0-.2.2-.4.5-.4.5 0 .5.1.3.4-.2.3-.5.4-.6.4-.1 0-.2-.1-.2-.4zm-45.8-.3c0-.4 1-1 2.5-1.8 2-1 2.4-.7.6.3-.9.4-1.7 1-2 1.2-.4.5-1.1.7-1.1.3zM2.6 66.5 2 65.1c-.2-.4-.5-2-.6-3.5L1 58.8l-.3.5c-.3 1.1-.6.4-.7-1.7 0-3.2 0-4.1.6-5.7l1-3.2c.3-1 .7-1.8.9-1.8.2 0 .6-.6 1-1.3l1.7-3.1c1.4-2.6 3.2-5 3.5-5 .5.3 0 1.2-1 2.5a6 6 0 0 0-1.4 2l-.4 1A65.4 65.4 0 0 0 1 53v.5l.6-.4c.2-.3.5-.6.5-.8 0-.3 2.8-6.8 3.7-8.6.4-.8 1-1.8 1.5-2.3l1.3-1.6c.3-.4.7-.7.8-.6 0 .1 0 .5-.3 1l-.8 1.1-.9 1.1c-.5.6-2.5 4.6-4 8-.4 1-1 2.8-1 3.9l-.6 3.5c-.3 1.3-.3 1.6 0 1.9.3.1.5.9.6 2.1 0 1 .3 2.1.4 2.4.3.4.3.2.3-1.1 0-1 .2-1.7.3-1.7.5 0 .5 1.2.2 3.4-.3 2.3-.8 3-1.1 1.7zM187 67a377 377 0 0 0-32.8-.7c1.3-.8 15-1 18.1-.3l12 .5a91 91 0 0 1 10.7.4c.1.4-3.1.4-8 .1zm.7-2.1a36 36 0 0 0-5.8-1.4c-1.3-.2-3.5-.8-5-1.3-2.2-.8-3.5-1-7.2-1.4l-4.6-.5c-.3-.3 7.2.2 9.6.6 1.3.2 2.8.6 3.3 1l1 .4 6.3-.1 11 .1c5 .3 11.6 1.1 12 1.6.4.4-.6.3-3.2-.2l-5.5-.7c-5.3-.6-18.3-.5-16.7.1l1.2.2c1 0 5 1.4 5 1.7 0 .3-.4.2-1.4-.1zM4.3 63.4c0-.6 1.4-2.4 2.2-2.8.7-.4.6-.2-.6 1.2-.6.7-1 1.3-1 1.5l-.3.2-.3-.1zm22.2-.1c0-.1.6-.5 1.3-.7l1.5-.7 1.6-.4 1.3-.1-2.4.8-2.6 1c-.3.4-.7.4-.7 0zM.1 61.7v-1.5l.2 1c.3 1.5.3 2 0 2-.1 0-.2-.6-.2-1.5zM35 62c0-.4 3.2-1.6 6.4-2.5l3.5-.7c.6 0-.2.3-3 1-2.5.7-3.5 1-6.2 2l-.7.2zm126-1.7c-1.2-.2-6.6-.3-12.2-.3s-9.7-.1-9-.2l3.2-.2c1.1 0 2-.2 2-.3l-1-.5c-3.8-1-5-1.3-5.3-1.6-.3-.3-.2-.2 3.8.5a37.4 37.4 0 0 0 13.4 1.8l7.2.5c.4.1.4.7 0 .6l-2.2-.3zM4.5 60c0-.4 2.6-3.2 3-3.2.4 0 0 .6-.6 1.1l-1.6 1.5c-.5.7-.8.8-.8.6zm214.1-2.4-3-.5c-.8-.2-3.2-.4-5.2-.6-3.1-.2-7.4-1-11.3-1.8a461.1 461.1 0 0 0-20.3-3.7l-7.1-1.3c-4.1-.7-7.9-1.5-8.8-1.9l-.6-.3 1 .1 3.9.7a340.6 340.6 0 0 0 12.5 2.2 408.7 408.7 0 0 0 14.5 2.6c.3.2 2 .5 4 .8a76 76 0 0 0 13.2 2c1.2 0 9.6 1 10.2 1.3.2 0 .4.2.4.4 0 .3-1 .3-3.4 0zM93 56.9c-2.2-.7-3-1.1-2-1l1.8.4c1.3.2 3 .7 3.3 1 .4.3-1.3.1-3-.4zm42.2-.5c-.7-.3-2.9-.8-4.9-1.2a661.2 661.2 0 0 1-11.7-2.4c-1.8-.5-5.5-1.1-7.7-1.3a73.1 73.1 0 0 0-16.8.4c1.4-.9 9.2-1.3 15-1 5 .4 4.5.4 15.8 2.7 9 1.8 13 2.8 12.7 3.1-.3.3-1 .2-2.4-.3zm-91-2.4c0-.2.6-.3 1.8-.2h2l-1.1.2c-1.5.3-2.5.3-2.7 0zm8.9-1.1c0-.1 1-.2 2.4-.2s2.4 0 2.2.1c-.6.2-4.6.3-4.6 0zm16.8.1c-.5-.5.1-.6 3.4-.6h3.5l-2.2.3a70.3 70.3 0 0 0-4.7.3zm-9.2-.2h.5l-.3.1c-.3 0-.4 0-.2-.1zm19.4-.9h1.5c.4.1 0 .2-.7.2-.8 0-1.2 0-.8-.2zm5 0c.3-.2 1.5-.3 2.2 0 .7.2.6.2-.7.2-.9 0-1.5 0-1.4-.1zM66 51.3h.5l-.3.1c-.4 0-.4 0-.2-.1zm40.8-1.2-3.6-1c-4-.8-4-.8-3.7-1a1409 1409 0 0 0 8.4 2c0 .3-.6.3-1.1 0zm30.5-.5-1.5-.6c-1.5-.6-1.8-1-.5-.7 1.5.3 3 .9 3 1.2 0 .3-.6.4-1 .1zm-39.8-2a3 3 0 0 0-.9-.7c-.4-.2-.3-.2.3 0 .9.1 1.3.4 1.1.8 0 .3-.2.2-.5 0zm35 .2c-1.2-.2-5.6-1.8-5.6-2 0-.3.3-.2 1.7.1 1 .3 1.5.3 3.2 0a89.3 89.3 0 0 1 30.2 1.6c.2.3 0 .3-3.4-.3-5.3-.9-13.2-1.5-18.9-1.5-3.4 0-4.2 0-5.7.5l-1.8.8c-.1.2.2.4.7.6.8.4.7.4-.3.2zm-41.6-2c.2-.2.4-.2.5 0h-.5zm-2-.4h.8c.1.1 0 .2-.5.2-.4 0-.6 0-.3-.2zm32.8-.4c-2-.7-4.6-2-4.6-2.3 0-.4.2-.3 2 .5a39.3 39.3 0 0 0 6.2 2.3c0 .3-2 0-3.6-.5zM87 45h.8l-.5.1c-.4 0-.5 0-.3-.1zm-4-.4-8-.5-6.5-.3c-.1-.2 4.4-.5 4.7-.4l5.8.6 6.6.6 1 .2h-1.1c-.6 0-1.7 0-2.5-.2zm-19.2-1c-.8-.2-.3-.2 1.7-.3 1.5 0 2.7 0 2.6.1-.2.2-3.3.3-4.3.2zm-7.5-.5c-2.5 0-3.4-.3-3-.6.1-.2.5-.2 1 0 .3.2 1.6.3 2.8.3 1.2 0 2 0 2 .2s-.1.3-.4.3l-2.4-.2zm-4.5-1c-.3-.3-.3-.4.3-.4.5 0 .7.1.7.3-.2.5-.7.6-1 .1zm62-.4c-1.1-.3-2.9-.6-4.5-.6l-3.6-.1c-.7 0-1.2-.3-1.7-.7-.4-.4-.6-.7-.4-.7.2 0 .6.2.9.5.4.4 1.1.4 4.5.5 3.4 0 4.2.1 5.5.6.9.3 1.5.7 1.4.8l-.2.2-1.9-.5zm-65 0c-.2-.2 0-.2.8-.2.7 0 1 0 1 .2-.2.4-1.2.4-1.8 0zm93.8-1.6-9.2-1c-3.2-.1-12.9-1.6-15.1-2.2-1.4-.3 2.8 0 5.7.6 4.3.8 5.9 1 10.2 1.3 5 .4 9.7 1 10 1.3.3.3 0 .3-1.6 0zm-117-.4c-.2-.4 0-.5.4-.5.7 0 .9.5.2.8-.6.2-.6.2-.7-.3zm193.9-.5-3-.4c-5.8-.6-11-1.6-16.2-2.8a166.1 166.1 0 0 0-10.4-2.2c-3.3-1-8.7-2.1-11.8-2.5-3.4-.5-3.8-.6-3.8-1 0-.6 5 .3 14.6 2.6l5.9 1.2 5.5 1.1a96.4 96.4 0 0 0 18 3c2 .2 2.4.3 2.5.7 0 .4-.2.5-1.3.3zm-175.9-.4-2.7-.4c-2.8-.3-3-.6-.3-.6 2.9 0 4-.4 5-2 .5-.8 1-1.6 1.3-1.8.4-.5.5-1.2.1-1.4-.3-.2-2.4.4-2.4.7l.7.3c.4 0 .8.2.8.4.2.4-.8.3-2.3-.3-1.9-.7-2-1.2-.3-1.2a7 7 0 0 0 3.1-1l.7-.1c.4 0 .6-.3.5-.9 0-.1.2-.2.6-.1.4 0 .6.2.5.7v.6h1c1 0 1.1 0 .5.2l-1.3.4-.7.2v1c0 .5 0 1.2-.2 1.5-.3.9.1.8 2-.4.8-.6 1.8-1 2.2-1.2.6-.1 1.5-1.5 1.5-2.4 0-.9-1.3-2.2-2.5-2.5L50 28c0-.4 1-1.1 1.6-1.1.5 0 .6.1 1.5 1.3.5.7 1.1.6 1.1-.2 0-.5.5-1.1 1-1.1.2 0 .3.4.3 1.3l.2 1.4c.3.3 2.4-2.3 3.4-4.2a7 7 0 0 0 1-3c0-1.3.5-2.2 1-1.7 1.2 1.3-4.1 10.4-5.7 9.8-.3 0-.4-.5-.4-1 0-1.2-.3-1.3-.7-.3-.3.5-.3.8 0 1 .3.5 0 2.4-.7 3.2-.5.7-3.5 2.2-6 3l-2.5 1-.8.5h1c.8.2 1.5.5 1.5 1 0 .2-2.6.2-3.4-.1zm4-3.4c.2-.5.5-1 .4-1.4v-.6l-.8 1.1-.7 1.4c0 .5.5.3 1-.5zm-24.8 3.1.4-.2.8-.4c.3-.3 1.6-.8 3-1.3 1.3-.5 2.4-1 2.3-1.1 0-.1-.6-.3-1.2-.3-.8 0-1.2 0-1.2-.3 0-.2-.2-.3-.4-.3-.7 0-.4-.5.5-.8.4-.2 1.4-.4 2.1-.5l2-.5c1-.3.5.3-.8 1-1.6.7-1.2 1 .4.4.6-.2 1.5-.4 2.1-.4h1l-.5.4c-.3.2-1.2.6-1.8.7-1.3.3-1.6.6-1.8 1.8-.2.8-1.5 2.5-1.5 2l.5-1c1.2-1.3.4-1.5-1.7-.6-1.3.5-1.7.8-1.7 1.2 0 .4 0 .5-.3.3a.6.6 0 0 0-.8 0c-.5.3-1.6.3-1.4 0zm26.7-.2c.4-.4.8-.5 1.9-.5 1.6 0 1.8-.4.6-1.1l-.9-.5.7-.1a9 9 0 0 1 2.7-.2h1.1l-1 .5c-1.4.5-1.1 1 .7.9l1.5.1c0 .4-1.6.7-4.1.8-1.2 0-2.2.1-2.2.3 0 .2-.4.3-.8.3H49Zm-39.3-.2.5-.9c.3-.3.6-.8.6-1 0-.3.4-.9 1-1.4l2-2.4c.7-.8 1.4-1.5 1.6-1.5.5 0 1.2-1.7 1.2-3 0-1.2.1-1.4 1.4-3.3.8-1.2 2-3.7 2.6-5 .2-.4.3-.6.4-.5a1493 1493 0 0 0-2.6 6c-.7 1.7-1 5.2-.4 5.2.4 0 1.2-1.3 1.2-1.8l.5-1c1-.9 4.4-10.2 4.1-10.9-.2-.6-1.1-.3-1.3.6-.1.4-.5 1-.9 1.2l-.6.4.5-.9 1-1.7c.4-.5 1.2-2.4 1.8-4.3 1-2.8 1.3-3.4 1.9-3.7.5-.3.9-.3 1.3 0 .3 0 .5.2.6.1 1-1.3 2.2-4.5 2.3-6 .1-1.2.6-1 .6.3 0 1.1-.9 3.1-2.2 5.3l-.8 1.5h-2l-.6 1.1c-.8 1.6-1.7 4-1.7 4.5 0 .3.1.4.7.3.4 0 .7 0 .5.2-.2 0-.4.9-.6 1.8-.1.8-.6 2.4-1 3.4a523.8 523.8 0 0 0-2.2 5.8c-.6 1.3-.5 1.8.1 1.3 1.6-1.2 2.6-1.7 3.6-1.8l1.2-.2-.5.4c-.3.3-.7.4-1 .4-.5 0-3 2-3.7 3-.4.4-1 1-1.4 1.2-.4.2-1 1-1.4 1.9-.8 1.6-1.7 2.1-1.7 1 0-.8-.5-1-1-.3-.2.2-.7.6-1.2.8-.7.3-2 1.5-2.7 2.5-.4.6-1.7 1.7-1.7 1.4zm6.5-6.5c.3-.4 0-.5-.4 0-.2.2-.2.3 0 .3l.4-.3zm3.8 6.4c0-.1.3-.4.7-.6.4-.1.7-.4.7-.5l.6-.2c.4 0 .7.1.7.3l-.5.2c-.3 0-.6.2-.6.4 0 .4-.5.7-1.2.7-.2 0-.4-.1-.4-.3zm95.2-1.3-3.2-.8a26 26 0 0 1-4-1.1c-2.8-1.2-6-1.9-10-2-2.6-.1-3.5-.2-3.2-.4.3-.2 1.8-.2 4 0h4.4c1.2 0 4.8-.7 8-1.6 4.8-1.3 7.8-2 10.3-2.4 3.1-.6 3.4-.7 3.6-1.5.1-.4.2-.5.2-.2s.4.5 1 .6c.5 0 .9.2.8.3l-5.3 1.2a145.7 145.7 0 0 0-13.3 3.1c-.9 0-3.5.8-3.5 1 0 .2.7.5 1.6.8 1 .2 2 .6 2.4.8l3.5.9c3.2.6 4.1.9 4.1 1.3 0 .3-.4.3-1.4 0zm-82.3-.4v-.6c.2-.3.4.1.3.6v.5zm-9.7-.4c0-.3 1.6-.8 2-.6.6.2 0 .6-1 .8-.6 0-1 0-1-.2zm38.6 0c0-.1.2-.3.5-.3.2 0 .3.2.2.3l-.4.3-.3-.3zm-2.5-.5c.1-.2.5-.3.8-.3.4 0 .7.1.7.3l-.8.2c-.5 0-.8 0-.7-.2zm-18.6-.9c.1-.2.5-.3.9-.3s.8.1.9.3c0 .2-.2.3-.9.3s-1 0-.9-.3zm40.1-1.5c-4-.5-3-.7 4.9-.7 5.5 0 8 0 8 .2.2.2-.2.3-1.5.2-1.6-.2-7.3 0-8.7.4l-2.7-.1zM35.8 33c0-.3 1.6-1 2.4-1 .9 0 1 .6 0 .7l-1.4.2h-1zm22.8-.3c.4-.3.8-.4 1-.3.2.2 0 .4-1 .5l-.7.2zm3.4-.3c.2-.3.4-.7.4-1 0-.5.2-.6 1.3-.7 1.6-.2 5 .1 9 .8 3.5.6 1.3.5-2.9-.1a35 35 0 0 0-4.2-.4h-1.7l-.8.9c-.8 1-1.8 1.4-1 .5zm-29.9-.1A3 3 0 0 0 31 32c-.3 0-.5 0-.5-.2s1-.3 2.4-.2h2.5v-.6c-.1-.3 0-.8.2-1 .4-.5 1-.6 1-.2 0 .2.3.4.7.5l.6.3H37c-.8 0-1.3.3-1.4 1-.1.6-.7.8-1.4.5h-1c-.4.2-.8.2-1.2 0zm32.3 0c0-.2.1-.3.4-.3.2 0 .4.1.4.3 0 .1-.2.3-.4.3-.3 0-.4-.2-.4-.3zM25.3 31h.9-.9zm-22.9-.6c0-.2.4-.3.8-.3 5.3-.2 6.3 0 1.7.4l-2.5-.1zm37 0h2.3l-1.2.1h-1zm132-.8c-1-.9-1.8-1.2-4.2-1.8l-5.9-1.6c-5.1-1.6-6-1.8-9-1.4-4.3.4-7 .5-6.8.2a39.8 39.8 0 0 0 5.8-.7c3.8-.5 5.4-.3 11 1.5 1.8.6 4.3 1.3 5.6 1.5 1.6.3 2.7.7 3.6 1.2 1.3.8 2 1.6 1.7 2-.3.2-.4.1-1.8-1zM10 30h1l-.5.1c-.5 0-.7 0-.5-.1zm18.5-.3c0-.3 2.2-.8 3.3-.8.7 0 1.4.3 1.1.6-.2.2-4.4.4-4.4.2zm4-1.5c0-.3.2-.4.8-.4 1.2.2 1.3.8 0 .8-.6 0-.9-.1-.9-.4zm96.2-.8h.6-.6zm1.3-.3h.7l-.4.1c-.3 0-.5 0-.3-.1zm3.9-.6c0-.2.6-.3 1.2-.3l4-.5c2-.3 3.4-.4 3.8-.3l.4.3a1203.1 1203.1 0 0 1-9.4.8zm-6-.7c0-.2.2-.3.3-.3.2.1.3.3.3.5 0 .1-.1.2-.3.2l-.2-.4zm-103-.7c0-.2.4-.5 1-.8.4-.3.9-.6.9-.9 0-.2.3-.6.6-1 2-2.1 2.3-2.6 1.7-3.9-.5-1-.8-3.1-.4-3.1.3 0 1.1 1.7 1.1 2.6 0 1.1.9.8 2.4-1.1.9-1 1.3-1.4 1.3-1 0 .5-.5 1.3-2.7 3.9-2.3 2.8-2 3 1.2 1.2 1-.5 1.7-.8 1.7-.6 0 .1.4.3.8.3h.7l-1 .5-1.7 1a3 3 0 0 1-1.7.6c-1 0-3.9 1.2-4.9 2.1-.6.6-1.2.7-1 .2zm93.6-3c0-.7 0-1 .1-.6v1.3-.7zm-100 .2.4-.8c.9-1.3 1.4-2.6 2.2-6.2 1-4.4 1-4.6.4-4.6-.3 0-.6-.1-.6-.3-.1-.3 0-.3.7-.3l.9.1.5-2c.3-1.1.4-2.7.4-3.7l.1-2c.3-.3.7.4.7 1.3 0 .6.1.7.8.7 1.2 0 1.6-.2 1.6-1 0-1 .7-1.1 1.4-.2l.5.6-.5.5c-.6.5-2 1-3 1h-.7l-.3 1.4-.8 2.9-1.7 6c-.8 3.1-1.4 5-1.9 5.7-.6 1-1.2 1.4-1.2 1zm164-2c-.4-.6-.2-1 .3-.5.2.2.8.3 1.4.4.6 0 .8 0 .5.1a2 2 0 0 0-.8.4c-.4.4-1 .2-1.4-.3zm8.4 0c0-.1-1.3-.2-2.7-.2-1.7 0-2.5-.2-2.3-.3.3-.3 4-.3 5.9 0v.3c-.1.3-.7.4-1 .2zm-73.3-1 .4-.2c.2 0 .5 0 .6.2 0 .2-.1.3-.4.3-.3 0-.6-.1-.6-.3zm-81.7-.5.3-.4.5-.8c.1-.4.5-.7 1-.8.5-.1.8-.3.8-.5s-.2-.3-.5-.2c-1.2.3-.4-.6 1-1.2 1.7-.7 1.7-.8 2.7-3.5.5-1.2.3-2.4-.7-3.7C40.4 7 40 6.2 40 6c0-.8.7-.5 1.4.7l.7.7c.3 0 .4-3.3 0-5.1-.3-2.4.3-2.7 1.3-.6.4.7.6 1.5.5 2v.7l-.3-.9c-.3-1.3-.7-.7-.7 1 0 1.6.3 1.9.7.7v.6c-.2.7-.2 1.7-.3 2.2 0 .5 0 1-.2 1.2l.1 1.4.3 1-.5.7-1 1.3a11 11 0 0 1-2.9 3c-.2 0-.7.5-1.3 1.1-.9 1-2 1.6-2 1zm143.8-.3c-.1-.1 0-.2.4-.2.3 0 .5 0 .5.2s-.2.3-.4.3-.4-.1-.5-.3zM18 17.8l-.3-.6-1-1.9c-.5-1-1-2-1.4-2.2-.3-.3-.5-1-.7-2.3-.1-1.9-1-3.5-2.2-4.2-.3-.1-.5-.4-.4-.5 0-.1-.1-.9-.4-1.6-.6-1.1-.8-1.3-1.4-1.3-.8 0-1.2-.6-.7-1.2.1-.2.2-.5.1-.8-.1-.3 0-.4.8-.4 1.3 0 4.1.6 4.1.9 0 .1-2.1.3-3.6.2h-.5l.5.3c1.2.8 1.8 1.5 1.8 2.4 0 .9 1 2.8 1.4 2.8v-.6c-.4-1.8-.4-3 0-3.3.5-.4.7-.1 1 1.5.5 2.7.5 3.4.2 3.6-.1.1-.3.7-.3 1.4 0 1 .2 1.4.6 1.8.3.3.5.6.5.8 0 .6 2 4.6 2.3 4.6.2 0 .4.3.4.5 0 .7-.5.7-.8.1zM170 17l-1.8-1a56.3 56.3 0 0 1 4.3 2c-.3 0-1.4-.4-2.5-1zM40 17.3c1.6-.7 3-1.1 3.6-1.1.4 0 .4 0-.1.3l-1.8.7c-.6.3-1.4.5-1.8.5H39l1-.4zm133.7.2h2.2l1.6.2h-2.3c-1.5 0-2 0-1.5-.2zM49.3 17c0-.2.2-.4.6-.6.7-.3 1.5-.9 1.5-1.1l-.6-.2c-.3 0 .2-.2 1.3-.4 2.3-.5 2.5-.5 2.3-.1l-1 .2c-1.4 0-1.8.3-1.6 1 .2.7-.2 1-1.5 1.3-.7.1-1 0-1-.1zm-5-1 .5-.2.4.1c-.2.2-1 .4-1 .2zM7 15.7c-.1-.1.1-.2.6-.2s.8 0 .8.2-.3.3-.6.3c-.4 0-.7-.1-.8-.3zm4.3 0 1.2-.2c.8 0 1.2 0 1 .2 0 .2-.5.3-1.1.3-.6 0-1-.1-1-.3zm152 0c-.9 0-1.3-.2-1-.2 2.2-.4 4.2-.2 3.5.3-.4.2-.4.2-2.6 0zm-3.4-.4-1-.3h.9c.5 0 1.2.1 1.4.3.7.5.2.5-1.3 0zm-110.3-.1.3-.3v.3c0 .1 0 .3-.2.3s-.2-.2-.1-.3zm99.3 0c0-.2.5-.3 1-.3l1.1.1s-.4.2-1 .2h-1zm-122.4-.6c.4-.3.8-.4 1-.4.1.3-.8 1-1.3 1-.2 0 0-.3.3-.6zm19 0s.1-.2.3-.2c.1 0 .2.1 0 .3l-.2.2-.1-.2zm107 .1h2.8c.8 0 .2.1-1.3.1h-1.4zm-142.5-.3-1.7-.1.9-.2.9-.2-.6-.5-.7-.6h1c3 0 3.6 0 3.8.3.1.2 0 .4-.2.6-.7.6-1.6.8-3.4.7zm2.7-.8-.3-.3-.3.3c0 .2.2.3.3.3.1 0 .3-.1.3-.3zm56 .6c-1.5-.6-1.6-.6-1.3-1 .3-.3.3-.4-.2-.4-.8 0-1.2-1-.6-1.5.2-.2.6-.3.9-.3.6 0 .6.8 0 .8-.8 0 .7.7 1.6.7 1.1 0 1.1.6 0 .6-.6 0-.8.1-.5.2.3 0 .7.2.8.3.3.4-.1.8-.6.6zm25.8-.5c-.4-.8-.2-.8.6-.1.5.4.6.5.2.6-.5.3-.5.3-.8-.5zm-64.5 0c-.5-.3-.9-.3-1.5-.1-1 .3-1 .3-.9 0l1-.7.9-.4-.8.2-1.4.3-.7.2.3-.4c.3-.5 2.2-1 3.2-1 .6 0 .8.6.2.8-.6.3.7 1 1.7 1 .6 0 1 .1 1 .3 0 .4-2.1.3-3-.2zm30.5.2c-.4 0-.7-.2-.7-.3 0-.4 3.7-.2 3.9.2 0 .3-1.5.4-3.2.1zm12 0c-1.1-.4-1-1 .2-.9 1.2.2 1.4.3 1.2.7-.2.5-.2.5-1.4.1zm-23.9-.4c0-.2.7-.7 1.4-1l2-1.2c.3-.4.4-.4.6-.1.2.3.3.3.8 0 .6-.3 1-.3 1 0 0 0-.4.4-1 .6l-1 .4h.8l2.4-.4c2-.7 5.5-1 5.5-.6 0 .2-.1.3-.2.3l-1.7.1c-.8 0-2.8.5-4.5.8a47.9 47.9 0 0 1-5 1.2c-.7.4-1 .4-1-.1zm6.4.1 1.2-.3c.5 0 1.2 0 1.6-.2.4-.2.8-.2 1.1 0 .4.2.4.2-.3.5-1 .4-4.2.4-3.6 0zm41.5-.2h.5c0 .1 0 .2-.4.2-.3 0-.3 0-.1-.2zm1.9-.4c1-.5 2.5-.6 1.8-.2l-1.5.4-1.2.1zm-5.4-.2c-.1-.1 0-.2.2-.2s.4 0 .4.2 0 .3-.2.3-.3-.1-.4-.3zM10.9 12c-.4-.3.8-.4 1.6-.2l.7.1-1 .2a3 3 0 0 1-1.3-.1zm52.3 0c-.2-.3.5-.6 1-.4.6.2.3.7-.4.7-.2 0-.5-.1-.6-.3zm28-.6c-.3-.5-.3-.7 0-.7.4 0 1 .5 1 1s-.5.4-1-.3zM17.6 11c.3-.2.6-.3.8-.2.3.2 0 .6-.7.6h-.6zm11.6 0c.2-.3 2.6-.6 2.6-.2 0 .4-.7.6-1.7.6-.7 0-1-.1-.9-.3zm15.6-.2c0-.5.4-.7 1.2-.5.9.1.8.4-.3.7l-1 .3zm10.9-.5c0-.2.7-.7 1.3-1l1.5-1c.2-.3.3-.3.4 0 .2.2 0 .4-.2.6l-1.6 1c-1.2.8-1.6.9-1.4.4zm-23.2-.1c-.2-.3.1-.7.7-.7s.6.4 0 .7c-.5.2-.5.2-.7 0zM62 10c0-.1.2-.3.5-.4.8-.2 2.2.1 2 .4-.2.3-2.5.3-2.5 0zm-31.5-.2c0-.3 1-1 1.3-.8 0 .1 0 .4-.4.6-.5.4-1 .5-1 .2zm18-.1c.2-.5 1.4-1 2-.7.6.3.2.6-1 .8-.8.2-1 .1-1-.1zm11-.2c.5-.8 1.2-1 3.6-1.4 1.5-.2 2-.2 2.2 0 .2.3 1 .4 2.6.4 2 0 2.4 0 2.4.4 0 .3-.2.4-.5.3-3-.4-6.2-.5-6.6-.2l-1.5.5-1.7.3-.7.2zm-43.2 0c-.2-.4.5-.5 2.8-.8 2.5-.4 2.4-.4 2.4 0L20 9l-2.5.4h-1.2zm36.5-.7c.1-.5 0-.8-.3-1.2l-.5-.5.4-.4c.7-.6 1-.5 1.4.5.2.8.2 1-.1 1.6-.6.8-1 .8-.9 0zm32.3.1c-.1-.1-.5-.3-.9-.3-.4-.1-.1-.2.6-.2 1.3 0 2 .2 2 .5s-1.4.3-1.7 0zM45.4 7.7c.7-1.4 1-2.3.4-2-.2.2-.3 0-.1-.2l.1-1c0-.3.2-.5.3-.4.2.1.3-.1.3-.5 0-.3.3-1.3.7-2.1l.6-1.5.9.5c1.2.7 2.2.9 2.8.5.8-.5 1 0 .4 1-.5.9-4 4.4-4.3 4.4-.7 0-.4-.5 1.3-2 1-1 1.8-2 1.7-2 0-.4-2.1-1-2.3-.9L47.7 3c-.3 1.4-2.3 5.6-2.7 5.9-.1 0 0-.4.4-1.2zM35 8.5c0-.2.1-.3.3-.3.1 0 .2.1.2.3l-.2.2a.3.3 0 0 1-.3-.2zm13 0c0-.3 1.3-.5 2.5-.5 1.3 0 1 .4-.3.6-1.7.2-2.2.2-2.2 0zm30.8 0c-1.1-.5-.5-.9 1.1-.7 2.3.3 3 .4 2.8.7-.2.3-3 .3-3.9 0ZM6 8.1c.2-.4 2-.5 2.2-.1 0 .1-.5.3-1.1.3-.9 0-1.1 0-1-.2zm14-.3c-.8-.3-.7-.8.3-.6 1 .2 1-.3 0-.7-.4-.2-.6-.4-.4-.7.2-.6-.3-.8-1.4-.6l-1 .1c-.3-.2.2-.6.8-.6.3 0 .7-.1.8-.3 0-.1-.1-.3-.5-.3-.7 0-1.4-.4-1-.5l1.2-.4 1-.1.7.6c.3.4.9.7 1.3.7h.7l-.8.4-.9.5.5 1.1c.9 1.5.4 2-1.2 1.4zm-8.6-.5.4-.2c.2 0 .3 0 .3.2s-.2.3-.4.3c-.3 0-.4-.1-.3-.3zm45 0 .3-.2v.2c0 .2 0 .3-.2.3-.1 0-.2-.1-.1-.3zm3.1-.4c.7-.6 1.3-.8 1.3-.4 0 .2-1.4 1-1.7 1l.4-.6zm-50.8.1c-1 0-2-.3-2.2-.4-.6-.3 1-.5 2-.3a7 7 0 0 0 1.5.2c.7 0 1 .4.5.6H8.6zm16.8-.9c.1-.7 1-1.1 1.5-.7.2.2 0 .5-.4.8-.9.8-1.3.7-1.1 0zM9.3 5.6c-1-.6-1.4-1.4-.7-1.3.2 0 .7.3 1.2.8.5.4 1.1.7 1.3.7.2 0 .4.2.5.3.3.5-1.4.2-2.3-.5Zm48 .6s.1-.6.4-1.1c.3-.6.6-1.6.7-2.2.1-.5.3-1 .5-1a60.2 60.2 0 0 0-.2 2.6c-.2.6-.5 1.1-.8 1.4-.4.3-.7.4-.7.3zm-25-.3c-.6-1 1.2-2.3 2.8-2.1.7 0 .8 0 .8-.6v-.7h1.7c1.4 0 1.8.1 1.8.5 0 .3-.1.4-.6.5-.9.1-1.1.6-.4.9.3 0 .6.3.6.6s-.3.3-1.4.2c-1-.2-1.4-.1-1.5 0-.1.3-.8.4-1.5.5l-1.8.2c-.2.2-.5.1-.6 0zm2.1-1.3c0-.3 0-.4-.3-.3-.3 0-.6.2-.6.4-.1.3 0 .4.3.3.3 0 .5-.3.6-.4zm24.4.9c0-.6 5-2.1 5.5-1.7.3.3-.2.5-2 .7-1.2.1-2.1.4-2.4.6-.4.4-1.1.6-1.1.4zm5-.4a3 3 0 0 1 1.2-.5c.8-.1 1 0 .8.2a3 3 0 0 1-1.3.4c-.8.1-1 .1-.8-.1Zm-8.9-1c-.2-.3.5-.6 1.6-.6.8 0 1.5.3 1.2.6-.3.2-2.6.3-2.8 0zm-49.8 0c0-.6 1-1.5 1.4-1.4.7.3.5.8-.2.8-.4 0-.8.2-1 .4 0 .3-.2.3-.2.2Zm9.8-1.2c.1-.3 3-1 5-1.1 1.2-.1 1 .4-.3.6-.7 0-1.4.3-1.6.4-.5.4-3.2.5-3 0Zm14-.7c0-1.2.2-1.4.7-1.2.4.2.5.6 0 1.5-.4 1-.7.8-.7-.3zm31.3.8c.4-.7 3.9-1.2 3.9-.6 0 .4-.3.4-2.3.7-1.2 0-1.7 0-1.6-.1zM6.8 1.9c0-.2.1-.3.5-.3s.7.1.7.3c0 .1-.2.2-.5.2s-.6 0-.7-.2zm29.4 0c-.4 0-.3-.2.5-.6l1.2-.5c.5 0 .3.8-.2 1-.6.3-.7.3-1.5.1zM66 2c-.4-.3-.2-.6.4-.6.5 0 .7.2.7.4 0 .4-.8.6-1.1.3zm-44.2-.2c-.2-.3.6-.6 1.6-.8l1.1-.2c.5-.1.8 0 1 .2.2.3.3.4.2.5h-.8c-2 .4-3 .5-3.1.3zM39 1.6c0-.2.3-.4.6-.5.3 0 .4 0 .4.3-.1.2-.4.4-.6.4-.3 0-.5 0-.4-.2zm-6.7-.3c0-.3 1-.8 1.5-.6.4 0 .4.2.1.5-.3.4-1.6.6-1.6.1z"/>
</svg>
