<?xml version="1.0" encoding="utf-8"?>
<svg xmlns="http://www.w3.org/2000/svg" xmlns:svg="http://www.w3.org/2000/svg" version="1.1" viewBox="0 0 222 145">
	<title>Both the pigs sit on their own three-legged stools in front of the fire and talk to each other.</title>
	<path d="M71.4 144.4c-.2-.3-.2-.5.3-1l.5-.7c0-.1-.5-.2-1.2-.2-2 0-3.3-.5-3.3-1 0-.8 1.3-1.3 1.9-.7.3.3 1.1.4 3.6.4 3.9 0 4.3 0 4.5 1 .1.6.3.8 1 .9 1 0 1.2.8.5 1.2l-4 .4c-2.8 0-3.6 0-3.8-.3zm90.8.1-.7-.2 1-.5c1.4-.6 1.8-.6 1.8-.2 0 .8-1.2 1.3-2.1 1zm-38-.3c-.7-.5-.2-1 1.1-.9.8 0 1 .2 1 .6 0 .7-1.3.9-2 .3zm-25.4-.3c-.8 0-1.5-.3-1.7-.5-.2-.2-.5-.4-.8-.4-.3 0-1.1-.4-1.8-.8-1.4-.9-2-1.8-1.4-2.6.3-.5 2.2-1 2.8-.7.7.2.5.7-.3.7-1.1 0-1.9.2-2 .7-.2.3 2.3 2 3 2 .3 0 .6 0 .7.3.4.4 5 .8 6 .5.4 0 .8-.5 1-.9.1-.4.3-.7.4-.7a47.8 47.8 0 0 0 9 0l1-.3.9-.5c.6-.7 3.4-1.3 3.8-1 .4.5 0 .9-1.1 1.2a8 8 0 0 0-2 1c-.6.3-1.2.6-1.5.6l-1.7.5c-1 .5-1.3.5-1.7.2-.5-.5-4-.8-5.4-.6-.7.2-1 .4-1.2.9l-.3.6h-2.2l-3.5-.2zm-8.8-.4c-1.3-.6-.7-1.6.7-1l2.5.4c2 .1 2.4.3 2.2.7-.2.3-4.6.2-5.4-.1zm40.6.1c-.3-.4.3-.8 1.7-1.2 1.7-.5 3.3-.6 5-.1 1.5.3 1.8.6 1.3 1.1-.3.4-.7.4-1.7.3-.7-.1-1.3-.4-1.3-.6-.3-.5-1.6-.4-3 .2-1.2.5-1.8.6-2 .3zm-100.8-1.2-.3-.5-2 .3c-2 .4-3.2.2-3.2-.5s1.2-1 3.7-1.2c2.9 0 3.6-.5 1.2-.8-2-.2-2.6-.4-2.3-1 .1-.5 1.2-.9 1.6-.6l.7-.5.4-.6-.4-.3-.4-.7c0-.4 1.4-1.2 2-1.2.6 0 .8-.5.3-1-.7-.8-.8-2.9-.2-4.4.4-.7.5-1.4.4-1.5l-1.4-.3-2.2-.3c-1.2-.3-3.3.3-3.5.8-.2.5-2 .5-2.5 0-.4-.5 0-.8.8-.4.5.2 1.3 0 1.3-.3l1.2-.7c1.2-.4 1.6-.4 5.5 0l1.2.2.5-1.1c1.1-2.4 1.4-3.1 1.1-3.3-.3-.2-4.5.8-6.5 1.5-.8.3-1.8.5-2.2.5l-1.8.4c-.7.2-1.8.4-2.7.4l-1.7.2c-.4.4-4.8.6-5.5.3-.7-.3-4.3.2-6.6.8-1.1.3-2.3.4-2.3 0 0 0 .4-.3 1-.3l6-1.4c.7-.2.1-.7-.6-.5-.4.1-.7 0-.8-.3-.2-.6-1.1-1.4-1.5-1.4l-1.8-1.1c-1-.6-2.1-1.2-2.6-1.2-.5-.1-1.2-.4-1.6-.7-.4-.2-1-.5-1.3-.5-.7-.1-1-.8-.7-1.5.1-.3.2-.4.6 0 .2.1.7.3 1 .2.2 0 .7.2 1 .5.6.5 3.1 1.9 3.5 1.9.2 0 1 .5 1.7 1.1 1.9 1.5 3.5 1.8 4.5 1l.7-.5V117l-.1-4.8.8.9.8.9.3-.5c.4-.7.7-.2.7 1.2 0 .7 0 1.6.2 2.1l.2.9.3-.6c.4-.8.5-3.6.1-3.9-.1 0-.3-.3-.3-.6s-.1-.5-.3-.6c-.2 0 0-.1.3-.3l.9-.3c.4.3.4 2.6 0 5-.4 3.2-.4 4.4 0 5.6.5 1 .9 1.1 3.1.5a14 14 0 0 1 3-.4c.7 0 2.7-.2 4.3-.5a67.5 67.5 0 0 1 6.4-1c.3 0 1.4-3.2 2.2-6.6a9 9 0 0 1 1-2.8c.8-.7 0-3.6-1-3.6s-1.4 1.3-1 3l.2 1-.4-.1c-.4 0-.6-.4-.6-1-.2-1.6-.5-1.5-1.3.5-1.1 2.4-2 2.5-2 .2 0-1.3-.4-.5-.8 1.8-.6 2.4-.8 2.9-1.3 2.9-.2 0-.4-.3-.4-1l-.2-2.3c-.2-1.2-.3-1.4-.5-1a9 9 0 0 0-.7 2.4c-.7 4-1.2 4-1.5.2l-.3-2.5-.3.6-.6 2.6c-.2 1.3-.4 2-.6 2-.3 0-.4-.4-.4-.7l-.1-1-.1-.6c0-.2-.2-.4-.3-.4l-.3 1.6c0 1.9-.2 2.4-.7 1.7-.2-.3-.4-1.2-.4-2.2 0-.9-.1-1.7-.3-1.8-.2-.1-.2-.6-.1-1.3.2-1.2-.1-1.6-.5-.8l-.1 4.1c0 3.5 0 4.2-.5 4.2a21 21 0 0 1-.2-3.9c0-4.2 0-4.5-.6-4.5a32.3 32.3 0 0 0 .1 6.8c.1.2 0 .3-.2.3-.3 0-.5-.5-.6-2.6l-.3-3.7c0-1.3-.3-1.6-1.8-1.4-1.1 0-1.3 0-5.4-1.9-1.2-.5-1.5-.9-1.1-1.1.3-.2 2 .4 2.7.9.2.2.6.3.7.2.2-.2.5 0 .8.1a4 4 0 0 0 3 1c1-.3 2.3-.4 5.1-.6 1.2 0 2.8-.3 3.6-.5a32 32 0 0 1 3.8-.7c3-.3 5.4-.9 5.4-1.1 0-.1-.2-.4-.6-.5l-1.6-1.3-1-1-.5.4c-.7.4-4.4 1-9.2 1.5-6.2.7-6.6.8-7 .4-.5-.4-4-2.1-4.4-2.1l-.5-.4c-.5-.6-1.3-.5-1.6 0-.5 1-2.7 1.1-2.7.2 0-.2-.2-.3-.5-.3-.6 0-1.6-1-1.7-2-.2-1 1-3.6 2-4 .8-.6 2.3-.3 3.3.5.4.3 1.2.7 1.7.8l.9.2 1-1.1.9-1.2L15 97c1-.2 2.2 0 3.4.2a28 28 0 0 0 8 0l-.8-2.1-1.4-3.5c-3.3-8.5-3.4-9.2-2.4-11.8.5-1.4.7-2.5.8-5.5.2-2.9.1-4-.1-4.4-.3-.5-.3-2.7-.1-9.7.2-7 .1-9.2-.1-9.6-.3-.6-.6-.7-2.1-.8h-3.4c-2.1.4-9.5 1.1-9.7 1-.6-.4.2-.7 1.7-.7 1 0 1.8 0 2-.2.3-.3.1-.3-.8-.2-1.3.2-2-.2-1-.5.2 0 .7-.4 1-.6l.6-.5-.5-.1a17 17 0 0 0-4.7.7c-2 .5-3 .3-3-.7 0-.6.1-.6 1.3-.2.6.2 1.1.2 2 0L9 47l2.2-.3v-.7c0-.4-.4-1.4-.8-2.3l-.8-1.5H8.1l-2.5.2c-.7 0-1 0-1-.3 0-.4 2-1.3 3.2-1.3 1.4 0 1.6-.6.7-2-.5-.7-.8-1.4-.8-1.6 0-.4-2.3-7.2-2.8-8.3l-.4-1 .2 4.2c0 2.2.2 4.5.4 5 .3 1.3 0 2.7-.6 2.6-.3 0-.4-.5-.4-1.6a698.7 698.7 0 0 0-1-19.7c-.3-7-.3-12 .2-14 .6-2.4 1-2.2.8.3-.2 2.9-.3 11.1 0 15.7.2 4.4.5 5.4 2.4 9.3a14 14 0 0 1 1.7 5c.3 1.8 1 4.1 1.7 5 .1.1.7.3 1.2.3 1.2 0 1.4.4.4.6-1 .3-1 1-.4 2.9.8 2.2 1.5 3.4 2 3.3l2.3-.3 1.8-.2v-.7c0-.5.2-.8.5-1h.5l.2-3.6a40.6 40.6 0 0 0-.7-14c0-2.4.5-3.4 3-6l2-2.3c.1-.3.2-2.5.1-5.4V5c0-1.6 0-2.3.3-2.3s.3 2 .4 8.8c0 8.6.2 11.7.5 12.3.3.4 1.7.7 1.7.3 0-.1-.2-.2-.5-.2-.6 0-.3-1.2.4-1.5.6-.3.8-.6.3-.7H25a.4.4 0 0 1-.4-.5c0-.3.3-.4 1-.4h.8l-.1-.6c-.4-1.8-.5-4.8-.2-5 .1 0 .3 0 .4.3.1.2.3.4.5.4.3 0 .4.2.4.3 0 .2.3.5.6.7.3.2.4.5.3.6 0 .2-.3.2-.6-.1-.8-.7-1-.5-1 .7 0 1.4.3 1.8 1.1 1.4 1-.5 2.4-.2 2.5.5 0 .3-.3 1-.8 1.5a32 32 0 0 0-1.6 2c-1 1.3-2.2 1.8-3.6 1.5l-1-.2-.2-2.2a7.5 7.5 0 0 0-.4-2.2c-.3 0-1.2 1.4-2.2 3.2l-.9 1.7v4.7c0 2.6 0 4.7-.2 4.9-.3.2-.2 1.4 0 1.4.5 0 .4 3 0 4.9-.6 2.2-.6 4.2 0 4.6.2.2 1 .5 1.7.5l1.4.2.5 1.6c.3 1 .4 1.9.3 2.5l-.2 4.3-.3 8.1c-.2 3.3-.1 4.7 0 4.9.2 0 .4.9.5 1.8l.2 1.6.4-1 .7-1.5c.3-.2.4-.5.4-.6l.7-1.2c.5-.9.6-1.3.5-2.3 0-.7-.3-1.6-.4-2-.2-.5-.2-1 .2-2.1a8 8 0 0 0 .4-2.4c0-.6.1-1.4.4-1.9.5-1 .6-3.2.2-7.8l-.3-3.3.5-1 .7-.8 1 .8c1 1 1.3 1 1.7 0 .4-1 1.2-1.7 1.7-1.5.2.1.4.6.5 1.2l.6 2.6.4 2.3c0 1 .5.9 2.4-.5l1.8-1.2c.1 0 .2-1.7.2-3.7v-3.8l.6-1.3a15 15 0 0 1 4.2-4.8c1-.5 3.7-3.6 3.5-4.1l.5-1 .5-.5-.2-2-.5-2.4c-.1-.5.6-3 1.1-3.8l1.6-1.4a5 5 0 0 0 1.6-1.7c.3-.9 2.7-3.6 3-3.6.7 0 1.4 1.1 1.4 2.2 0 1.2.5 3 1.2 3.6.4.6 1.2 3.6 1 4.1-.3.8 2.3 1.3 3 .7.3-.4.7-.6 2.6-1.6 1.4-.8 2.6-2.1 3.3-3.7 1.4-3.1 4-3.6 4.6-.8l.4 1.3.7 2.2c.5 2.2.3 5.5-.5 7.6-.3.8-.4 1.5-.3 1.6 1.1.7 4.3 5.8 4.3 6.8 0 .1.5.6 1.2 1l1 .7 1.5-.1 1.4-.2.2.6.7 3.8.5 3.3-.5 1.1a6 6 0 0 1-3 3.3c-.6.2-1.4.7-1.9 1-1.4 1.2-4.3 2.6-5 2.6-1-.1-.6.6.8 1.6.8.5 1.6 1 1.8 1.3.2.3.5.4.6.3l2.3-.4A326.2 326.2 0 0 0 88 56c2.6 0 1.8-1-1-1.2-2.2-.3-4.2-.7-4.5-1.1-.4-.6.2-.7 1.6-.3.7.2 2 .5 3.1.6 2.6.2 3.4.4 3.8.7.9 1-1 2-3.6 2-.9 0-3 .2-4.6.5a59 59 0 0 1-7.3.7s0 .5.3.9l.5.7 2.3-.1 2.7-.4c.2-.2 1.4-.4 2.7-.5a63.6 63.6 0 0 0 7.7-1c4.2-.5 6.5-1 6.5-1.4a66.9 66.9 0 0 0-6.9-2c-.6 0-1.3-.3-1.4-.6-.4-.6-.1-.8.9-.5 1.7.6 7.4 2 8.1 2 1.2 0 1.5 1.6.7 2.8-.6.8-.6 2.7-.1 6.1.3 2.3.3 6.7-.1 14-.1 2 .1 3.4.6 3.6l2.4.4c1.1.2 2.1.4 2.4.7.3.3.7.4 1.2.2l3.3-.4a48.3 48.3 0 0 0 9.5-1.4l1.5-.3c.3-.2 1.2-.5 2-.6l2.3-.6 2-.4a118.6 118.6 0 0 0 10.3-1.8c.7-.1 1.7-.3 2-.5l.8-.3v-1.2c0-.8.2-1.5.4-1.7l.4-.4 1.4.4c.7.2 2.6.4 4.2.5l4.8.2c2.1.2 3 .5 2.4 1-.2.2-.8.2-2 0l-5.2-.6c-2 0-4-.3-4.4-.4l-.9-.1-.2.7-.3 1.3-.1.5 1.5-.2c1.6 0 2.4-.7 1-.7-.5 0-1-.1-1-.3-.2-.3 2.3-.1 3.8.3.5.2 1.3.3 1.8.3.6 0 .9.1 1 .5v.7l-2.4.4-5 .7c-4.3.9-6.3 1-7.5 1-.8-.1-2.5 0-4.5.5a342.8 342.8 0 0 1-15.4 3l-4.6.5c-1.5 0-3 .2-3.4.4-.6.2-.8.2-1.2-.2-.3-.2-1.3-.5-2.5-.6l-2.8-.5c-1-.3-1.2-.3-3.6 0-3 .4-6.8 1-10.1 1.8l-1.4.3-.7 1.1c-.3.7-.7 1.5-.7 1.8 0 1.7-.7 2.2-3.7 2.7-1 .2-1.5.8-1.5 1.7 0 .6.3.6 3.6-.2 2.6-.7 3.3-.7 6.3.3l2.6.8 4-.2c2.2 0 4.7-.3 5.7-.5 1-.3 3-.6 4.6-.8 2.9-.4 6.5-1.3 6.8-1.8.2-.4-.8-2.3-1.4-2.4-1.2-.4-.5-2 1-2 .3 0 .7-.1.8-.3 0-.1.5-.3 1-.3s1.6-.1 2.5-.4a59.4 59.4 0 0 1 8.2-1.6 33 33 0 0 1 3.6-.5 22 22 0 0 0 3.2-.4l2-.4 2.1-.3c.8 0 1 0 1.3.4l.2.5 1.2-.2 2.3-.5c1-.2 1.2-.2 1.6.1.2.2.3.5.2.6l-2.8.5A197.4 197.4 0 0 0 127 84a156.3 156.3 0 0 0-14.6 3c-.6 0-.8.3-.6 1 .1.4.5.5 2.6.6a120.5 120.5 0 0 0 18.2-2.6c1.5-.5 5.2-.8 5.2-.5a84.1 84.1 0 0 1-12.4 3l-1.7.5 1.3-.1c1.3-.1 2.7-.4 9.4-1.7 3.6-.7 7.7-1 7.7-.6 0 .5-1 .8-2.8.8-2.1 0-7.1.7-8.9 1.2-.8.3-1.1.5-1.1.8 0 .2-.2.4-.4.4-.7 0-1.1.6-1.1 1.5 0 1 .4 1.2.8.4.2-.5.5-.6 1.1-.5.6.1 1.1 0 1.7-.5 1.2-.7 1.4-.8 1.6 0l.2.5 1-.2 2.2-.2c.8 0 1.8-.3 2.4-.4.5-.2 1-.2 1.1-.2l-.2 1c-.3.7-.7 1-1.2.5-.3-.3-4 0-5 .5l-1 .4-.4-.5-.6-.5-.7.6c-.4.3-1 .5-1.3.5-.4 0-.9.2-1.2.4l-.5.3-.6-.7-.6-.7-.5.7c-.8 1.4-1.6 1-1.8-.9v-1h-.9c-1 .2-1.2.3-1.2 1.4 0 1 .4 1.4.7.7.2-.6.7-.5.7 0 0 .6-1.7 2.3-2 2l-.2-.9c0-1.2-.4-.8-.9.7-.4 1.5-1 2.3-1.5 1.8a7 7 0 0 1-.4-2.3c-.1-1.6-.2-2-.6-2l-.7.3c-.5.5-.4 2 0 2.3l.5.2-.4 1.5c-.2 1-.5 1.4-.7 1.4-.3 0-.4-.5-.4-2.6v-2.6H114v1.8c0 1.1.2 2.1.4 2.6.3.4.4.9.4 1 0 .5-1 1.4-1.2 1.1-.1 0-.3-1.5-.3-3.2l-.1-3h-.7c-1.4 0-1.7.5-1.5 2.5.1 1 .3 1.8.4 1.9.3.2 0 1.4-.4 1.9-.5.7-.7-.2-.9-2.9l-.2-2.7-.5-.1c-1-.1-1.3.3-1.4 2.4-.1 2 .1 2.6.7 1.4l.3-.6v.6c0 1-.5 2.2-1 2.2-.6 0-.8-.9-.7-3.3.1-2 0-2.2-1.3-2.2-.8 0-.8 0-.7 2.6 0 2.6.2 3 .8 1.7.7-1.5 1-.6.3 1.2-.8 2.3-1.6 2-1.6-.5 0-.5-.1-1.1-.3-1.3-.2-.3-.3-.2-.4.4-.4 1.8-1.5 4.6-1.8 4.5-.2 0-.3-1.2-.4-3-.1-4.5-.5-4.1-1.4 1.4-.1 1.1-.4 2-.5 2-.5 0-.8-1.1-.8-2.7 0-.8 0-1.6-.2-1.6-.4 0-.5.3-.7 1.5a11 11 0 0 1-1 3.8c-.5.6-.7-.2-.9-3.7l-.2-3.4h-.7c-.4 0-.9.1-1.1.3l-.5.3.3 2.7c.1 1.4.4 2.7.5 2.9.3.3.4 1.7.1 2.4 0 .2-.3.4-.5.4s-.4-.6-.5-1.8c-.4-4.3-.5-4.8-.7-4.8-.2 0-.3 0-1 3.4-.2 1.3-.5 2.2-.7 2.1-.1 0-.3-1.1-.3-2.4 0-1.2-.2-2.6-.3-3l-.2-.8-.3.7c-.2.3-.5 1.5-.8 2.7-.3 1.6-.5 2-.8 2-.3 0-.5-.5-.6-1.4 0-.7-.2-1.2-.4-1.2l-.7 2.1c-.5 2.5-.9 3-1.3 2a5 5 0 0 1-.2-1.4c0-1.2-.3-2-.8-2-.2 0-.3-.1-.2-.5l.3-1.7.2-1-.6.2-1.8.5c-.6.1-1.2.4-1.3.5-.2.2-.1 1.2 0 2.6.3 1.4.3 2.3.2 2.5-.6.6-.9-.5-1-3.8v-1.2H80c-1.2-.2-1.5.2-1.4 2.5 0 1.1 0 2.2-.2 2.3-.4.2-.5-.4-.6-2.4v-1.9H77a23 23 0 0 0-9.3 2.5 16.8 16.8 0 0 1-4.4 8c-1.1 1.3-1.2 1.5-.4 2.2l.5.5 1.1-.3a94.2 94.2 0 0 1 13.1-2.6 45 45 0 0 1 3.5-.7c1.5-.3 2.4-.6 2.7-1 .2-.2.8-.6 1.3-.7 1.1-.4 6.6-.5 7.2-.2.6.2 1.8 0 2.3-.5.2-.2 1-.5 1.6-.7l2-.7c.6-.3 1.2-.3 3.8 0l3 .2.7-.8.7-.8 2.2-.1c7-.5 8-.6 8.7-1.3.8-.7 2.5-1.4 4.1-1.7.6 0 1.1-.4 1.3-.6.4-.8 1.7-1.2 3.5-1 1.6.2 2 .3 3 .2l4.5.2-.2.4c-.2.3-.6.4-1 .4-1.1 0-3.6.6-3.8 1-.2.2-4.2 1-4.5.7-.4-.2-.2-.9.2-1 .5-.2.5-.7 0-.7-.2 0-.4.3-.5.6-.1.3-.5.5-1.2.6-1.8.3-2 .4-3 1l-1.3.7c-.2 0-.5.2-.8.5-.3.2-1.4.4-3.4.6-5.8.5-7.2.7-7.8 1.5-.6.7-1.6.8-5 .4-1.6-.2-2-.2-3 .2a14.8 14.8 0 0 1-7.6 1.8c-5.2.1-5.8.2-6.1 1-.2.4-.5.5-1.2.6-.5 0-2.3.2-4 .6-2.5.4-3.4.7-3.7 1l-.4.6-1.1-.3a4 4 0 0 0-2.3 0l-3.3.7c-1.2.2-3 .6-3.7.9l-1.5.5.1 1.1c0 .7.2 1.7.5 2.4 1 3 1.2 4.1 2 9.1.3 1.3.7 2.9 1 3.5.3 1 .3 2 0 3.2-.1.5 1.2.8 3.6.9 1.4 0 1.7 0 1.7.5 0 .7-.4.7-4 .5-2-.2-3.3-.2-3.5 0-.1.1 0 .3.3.5.7.4 5.2 1 6.4.7l1-.1.3.6c.2.5.5.6 2.1.8 1.4.1 1.9.3 1.9.5 0 .8-1 1-5.8.7-6-.3-6.1-.3-6.1-1.3 0-.5-.2-.8-.5-1-.3 0-.6-.4-.7-.8-.3-1-1.2-2.5-1.6-2.5-.6 0-1.2-.8-1.2-1.6.2-1.8-.3-2.8-1.3-3.6-.6-.3-1-.8-1-.9a3 3 0 0 0-.7-1c-.4-.5-.7-1.5-1-3.2-.8-3.8-1-5-1.5-6.3l-.4-1.1H54l-1.2.2-.2 1.1-.3 2.5-.2 1.2.7 1.1c1 1.6 1.1 2.7.4 3.4-.7.7-1.2.6-1.3-.1-.1-.6-.8-1.2-1.6-1.2-.4 0-.5.1-.4.4.1.3 0 .4-.5.4-.7 0-.8-.2-.7-1 0-.3-.4-.7-1-1-1.1-.9-1.5-1.5-1.3-2.4.3-1 .4-3 .2-3l-.5.3c-.2.2-1 .5-2 .6-1.4.3-1.6.4-1.7 1 0 .3-.3.9-.6 1.3s-.7 1.2-.8 1.8c-.2.5-.6 1.3-.9 1.6-1 1.2-1.7 2.6-1.7 3.5 0 .9-1.7 4-2.5 4.7-.9.7-.5 1 1.3 1.1l1.8.1v1.1h-2c-1.2 0-2.2.1-2.4.3-.2.3 0 .3 1 .3 1.1 0 1.5.3 1.2 1 0 .3-1 .4-3.1.4h-3v.4c.2.7 1.8 1 4 .7 2-.3 2.3-.2 2.3.4 0 .6-.5.8-2.1.8h-1.3v.6c0 .8-.2 1-1.5 1.9-1.4.9-1.8.9-2.3.1zm4-11.6c.5 0 .8-.8.6-1.3-.2-.3-.1-.6.1-.8.3-.2.4-.5.3-.8-.1-.4 0-.7.5-1.1.5-.6.6-.8.5-1.9-.1-1 0-1.2.3-1.4.4-.1.4-.3.3-1.1-.1-.7 0-1.1.2-1.4.7-.7 1-1.7 1-2.6 0-.5.1-1 .4-1.1.3-.3.3-.6.2-1.4l-.3-1-.4 1-1.8 4.9-2 5.6c-1 1.9-1.8 5.2-1.5 5.6.1.1.4 0 .7-.5.3-.3.7-.7.9-.7zm31 1c.6-.6.7-2 .2-2.9-.2-.3-.5-1.8-.7-3.2a39 39 0 0 0-1.5-6.4l-1.5-5c-.4-1.4-1-1.7-1.8-1.2-.3.2-.3.3.2.6.4.4.4.5.2.8-.5.4-.5 1 0 1 .6 0 .8.5.3 1-.6.7-.5.8.3.9 1 .1 1 .7.2 1-.7.3-.7.8 0 .8.5 0 .5.6.1 1s0 .9.6.9.7.3.1.7c-.5.5-.5.8.2 1 .5 0 .5.2.3.4-.5.5-.4 1 0 1s.4.2.3 1c-.1.6 0 1 .2 1.5.3.5.4.7.1 1-.2.2-.1.2.3.2.9 0 1 .5.2.9l-.8.3.8.1c1 .1 1.4.5.7.8l-.6.4.4.4c.3.3.4.7.3 1-.2.5.3.5 1 0zm-41.3-8.4c.3-.1 0-.2-.9 0-.7 0-1.4.2-1.6.4-.3.3 1.9 0 2.5-.4zm-9.1-3a8 8 0 0 1 .5-2.4c.3-.4 0-3.2-.4-3.5-.5-.3-.7.4-.8 4.1-.1 2.9 0 3.8.2 3.8s.4-.7.5-2zm30.7-2.6 1.4-.3.5-.2-.2-1.4c-.1-.9-.3-1.9-.5-2.3-.3-.7-.2-3 .1-4.2l.3-.6-1.2.9c-.6.5-1.3 1.3-1.4 1.7-.8 3-1.5 5.8-1.5 6.5 0 .2.3.2.9.1a13 13 0 0 1 1.6-.2zm5.3-1.1c.6-.3.5-.4-.5-2.1-1-1.8-1.2-2.6-.4-4.2.6-1.3.7-3.7.1-4.1l-.5-1c-.3-1.2-.7-.7-.5.5.2 1.3-.2 3.5-.9 4.8-.6 1.2-.4 2.8.3 2.8.2 0 .3.2.2.5-.1.5.4 1.4 1.4 2.6.3.4.3.4.8.2zm3.5-1.1 1-.2-.3-1.5a95 95 0 0 1-.2-2.2c-.1-.6-1.3-2-1.8-2-.3 0-1.8 2.8-1.8 3.3 0 .2.3 1 .7 1.7.5 1 .8 1.3 1.1 1.2l1.3-.3zm-12.5-1.2c.1-.1 0-.2-.1-.2-.2 0-.3 0-.3.2l.1.3.3-.3zm-17-3c0-.8 0-1-.4-1.1-.4-.1-.5 0-.5 1.2l.2 1.4c.3.3.6-.4.7-1.5zm5.2.2.5-2c.1-.6-.3-.6-.8 0-.5.4-.7 3.5-.2 3.5.1 0 .4-.7.5-1.5zm-3 .4.5-1.3c.2-.4 0-.5-.2-.5-.5 0-1 1.4-.8 2.2.2.6.3.6.6-.4zm-4.2-.8c0-.2-.1-.1-.2.2 0 .3.1.4.2.3v-.5zm36.5.2h-.5c-.2 0-.1.1.2.1.3 0 .4 0 .3-.1zm-26.5-1.2c.5-1.1.5-1.6 0-1.5-.4 0-.5.4-.6 1.2-.1 1.3 0 1.4.6.3zm9.8 0c1.4-1 1.5-1.4.4-1.2-.7.2-1 0-1.2-.4-.2-.3-.6-.5-.8-.5-.2 0-.4-.2-.4-.5 0-.4.2-.5 1.6-.5.9 0 1.6.1 1.6.3 0 .2 1.4.2 1.8 0 .9-.6 0-.9-2.5-.8-2.5.1-3.4-.1-3.9-1-.2-.3-.2-.5.3-1l.7-.7-.7-.2h-1c-.3.2-1.5-.4-1.7-.8l.1-.9c.4-.7.4-.7-1.2-1-1-.3-1.6-.6-2-1-.2-.5-.7-1-1-1.5-.9-.7-1-2-.4-2.2.6-.2 0-.8-.9-1l-1.2-.3-.5-.2.2 1 .6 1.8.3 1.1.4 1.2.5 1.5c.2.9 2.5 3.2 4 4 1.3.8 3.7 3 4.1 3.8L41 111l1.2-.8zm14.6.5-.6-.2c-.2 0-.3 0-.2.2 0 .2.3.3.5.3s.3-.1.3-.3zm6.3-.9.4-.6c0-.2-.5 0-1 .4-.8.6-.3.9.6.2zm-2.7-.8 1.5-.9.6-.5-.8-.5c-.9-.7-1.1-.6-1.1.5s-1.2 1.7-3.1 1.4c-1.2-.1-1.4 0-1.2.2.4.5 3 .3 4.1-.2zm-5.8-.3c.3-.3-.4-1.1-.9-1.1-.6 0-.7.2 0 .8.4.5.6.6.9.3zm5-1a16.5 16.5 0 0 0-7.1-2.6l-1.7-.2.3.7c.3.7.7.8 1.2.4.1-.2.5-.1 1 .1l1.9.7c.6.1 1.2.4 1.4.6.4.4 3 .6 3 .2zm5.5-2.8c1-1.3 1-1.7 0-1.4-.6 0-1 .3-1 .4l-.8 1c-.8 1-.8 1 .2 1 .6 0 1-.2 1.6-1zm-48 .3c.4-.2.2-.4-.7-.8l-1.7-.5c-.2 0-.7-.4-1-.7-.6-.6-1-.7-2-.8-1.8 0-1.4.5 1 1.4l3 1.2c1 .5 1 .5 1.5.2zm28.7-.5c.8-.7.2-1-1.5-1-1.7.2-3.3.8-3.3 1.4 0 .5 4.2.2 4.8-.4zm-17.2-1.2 1.7-.4-2.2.1c-1.3 0-2.4.2-2.5.4-.4.4.9.3 3-.1zm26.8 0c.1-.1 0-.4-.3-.7-.3-.4-1.1-.5-2.9-.7-3.6-.2-3.5.2.3 1.5 1.1.3 2.7.3 3 0zm31.3-1.2.5-2.4.2-1.1h-.8c-.5.1-.7.3-.7.6a173.3 173.3 0 0 1 .3 4.2c.1 0 .4-.6.5-1.3zm-79-1c.2-1.5.2-1.9-.1-2.2-.3-.2-.5-.2-.8-.1l-1 .2c-.5 0-.7.2-.8 1-.2 1 .3 2 1 2 .3 0 .7.2.9.5l.4.3.4-1.8zm15.5 1.5 2.9-.6c.8-.3 2-.4 2.7-.5l1.1-.1-1-1.2-1-1-2.8.1c-2.3.2-3 .1-3.7-.2-.6-.4-1.6-.5-3.6-.5-1.5 0-2.8 0-2.9-.2-.1-.4-.6-.4-.6 0 0 .2 1.2.8 1.8.8l1 .4c.3.4 1 .5 4.5.5 4 0 5 .2 4.2.9-.3.2-1.4.3-4.2.2-3.2 0-3.9-.1-4.3-.5-.7-.7-2.6-.6-3.5 0-.5.4-1 .5-2 .5h-1.2c0 .5 2 .6 3 .4 1.3-.4 3-.4 3.2 0l.9.2c1.2 0 2.4.3 2.4.7 0 .4 1 .4 3 .1zm34.2.1-.3-.2c-.1-.1-.2 0-.2 0l.2.4c.2 0 .3 0 .3-.2zm-12.8-.8 1.5-.5c.5 0 .7-.2.5-.7-.1-.6-.3-.6-1.3-.2-.4.2-1.6.4-2.7.5-1.9.2-2.6.5-2.3 1 .2.4 3.3.3 4.3 0zM64 102c.3-.2 1.3-.5 2.1-.6l1.6-.2 1-1.3c.6-.7 1-1.4 1-1.5l1-2a7 7 0 0 0 .8-1.6l-1.9.5c-2.7 1-4.6 1.3-8.5 1.4-2.8.2-3.6.1-4.3-.2-2.2-1-3.1-.7-2.4.6.2.4.5.5 1.8.5l2.6-.2c.6-.2 1.1-.2 1.3 0l1.8.2c1-.1 1.4 0 1.4.3 0 .2-.5.4-1.6.7l-1.6.3h1.3c1.6 0 2.9-.3 5-1.2 1-.5 1.6-.6 1.8-.4.4.4 0 1-1 1.5-.7.3-.9.5-.9 1 0 .4-.2.8-.6 1-.8.6-3.5 1.3-4.6 1.3-.5 0-1 .1-1 .3-.3.5 3.1.1 3.9-.4zm63.2-.1c0-.2-.5-.2-1-.2-1.4.2-1.4.4-.1.4.6 0 1-.1 1-.2zM9.8 100.5c0-.3-.2-.2-.5.2s-.5.7-.4.9c.2.3.9-.6.9-1.1zm79.4.1.4-1.6c.1-.6 0-.7-.4-.7-.7 0-1 .8-.7 2.3.2 1.3.5 1.3.7 0zm3-.6c.3-2.1.4-3.6 0-3.5l-.2.7c0 .3 0 .6-.2.6-.1 0-.3.7-.3 1.7 0 2 .4 2.3.7.5zm-37.9.2c-.3-1.3-.5-1.4-2.9-1.4h-2.2v.9l.1.8 1.4.2 2.6.2h1.2zm43.8-1.6c.4-1.8.2-2.3-.7-2-.4.1-.5.3-.4 1.1v2.2c.1 1 .2 1.1.5.8.2-.2.5-1.2.6-2.1zm-41.7 1.8s-.2-.3-.4-.3c-.4-.2-.6 0-.3.4.3.3.7.2.7 0zm7.7-.2c1.2-.5.7-.6-1.2-.3l-3.6.3c-1 0-1.9.2-1.9.3 0 .3 5.8 0 6.7-.3zm-22.6-.5c.5 0 .9-.2 1-.4l.6-.2c.3 0 .6-.1.7-.3.1-.2-7.8 0-8 .2-.5.4 3.1 1.3 4.3 1l1.4-.3zm6.7-.2c0-.3-.2-.7-.3-.8-.4-.2-.5-.2-.7.7-.1.6 0 .8.4.8s.6-.2.6-.7zm28.5-.4A142.7 142.7 0 0 0 90 96c0-.1-.1-.5-.4-.8-.8-.8-4.3-1.3-5.5-.8l-3.2.8-5 1.2-2.6.6-1.2 1.4-1.2 1.5 1.4-.2 4.5-.7zm24-2c.2-1.6 0-2.2-.9-1.9l-.4.2.6.3c.6.2.6.3.3.5-.3.1-.5.7-.5 1.7v1.6l.3-.5c.2-.2.5-1.1.6-2zm3.1-.5.7-2.3h-1l-1 .2v1.3c-.2 1.7.1 3.7.4 3.4.2-.2.6-1.3 1-2.6zm-77 2c0-.4-.6-.6-1.2-.4l-.6.2.5.2c.8.3 1.2.3 1.2 0zm11-1.3c0-.6-1-1.4-2-1.4s-2.3.5-2 .8c.2.5 4 1 4 .6zM45 97l1.2-.5c.4 0 .7-.3.7-.4 0-.3-8.3-.5-8.3-.2 0 .1.4.6.9 1l.8.7 2.1-.2L45 97zm8-.7c-.2-.8-1.8-1.5-3-1.4-.5 0-.7.3-.7 1-.1 1.2 0 1.3 2.3 1.4 1.5 0 1.8-.1 1.4-1zm-25-.7c-.6-1.6-.6-3.2.1-3.3.4-.1.5.1.6.7l.3.8 1-.7 1-.6-.9-.4a14 14 0 0 0-1.6-.6c-.3 0-1-.5-1.5-.9l-1-.7.4-.7c.5-.9 1-.9 1.6.1.4.4.8.8 1 .8l.4.2c0 .3 2 1.1 2.6 1.1.1 0 .3-.2.3-.4 0-.6.7-.7 2-.3 2.2.8 5.4 1.3 9 1.2 3.9-.1 4.6-.4 3.7-1.3-.5-.4-1-.5-3.3-.6a61 61 0 0 1-16.4-2.4c-1.1-.7-1.5-1.4-1-2l.3-.3 1.3.9c1 .7 1.6.8 3.7 1 3 .4 3.3.4 4.2.1.6-.1.8 0 .9.4.1.5.3.5 1.4.6.6 0 1.7 0 2.4.2.6.1 1.6.2 2.2 0h1l-1.8-.6c-4-1.1-4.5-1.2-5-1.5-.7-.3-1.7-.5-4-.8-5.1-.6-7.6-1.6-7.1-2.8.2-.5 1-.5 1.4 0 .7.8 4 1.6 4 1 0-.7-1.4-1.9-2.6-2.2-1.5-.4-2.5-1.1-2.2-1.7.2-.5.4-.5 1.4 0 .4.2.9.4 1 .3.1 0 .9 0 1.7.4 1.5.5 3.9 1 6.4 1.2l1.3.1-1-.5c-.5-.3-1.2-.9-1.5-1.3-.6-.9-2-1.5-5.4-2.2a9.5 9.5 0 0 1-2.7-.9c-.6-.5-.2-1.3.4-1l3 .8c.7 0 1 0 1.2-.6l.3-.6-1.4-.4c-.7-.3-1.5-.4-1.8-.4-.5 0-2-1-2.4-1.5-.3-.4-.2-1.3.2-1.7l.4-.4-.4-.6c-1-1.6-2.1 1.5-1.4 4.2l.3 1.3-1.2 1.3c-.7.8-1.3 1.9-1.7 3l-.6 1.7.4 2a18 18 0 0 0 1 3.2l1 3c.5 1.6.9 2.4 2.4 5l.8 1.3c.5 1.1.5.5 0-1zm67.5.8c1-.3.8-.7-.3-.7s-1.4.2-1 .6c.4.5.3.5 1.3.1zm3-.5c.2-.2.1-.2-.5-.2-.5 0-.9 0-.9.2 0 .4.8.4 1.3 0zM80 94.7c3.7-1 3.7-1.3 0-1l-3.7.2c-.7 0-2 1-2 1.6 0 .3 2.8 0 5.7-.8zm-14.7.3a11 11 0 0 0 3.7-1.2l1.6-.8.6.4 1 .4c.3 0 2.8-2.7 3.4-3.8.5-1 .7-2.5.3-2.5-.2 0-.6.4-1 1-.5.6-1 1-1 .8-.3-.4-1-.3-2.7.4-1.9.7-4.3 1.2-7.2 1.4-1.4 0-2 .2-2.1.5 0 .2-.6.5-1.2.6-1.1.3-1.4 1-.3.7l3.4-.4a30 30 0 0 0 8.8-2c.7-.3 1.4 0 1.2.5-.4 1-7.1 2.6-12 3-1.7 0-3.1.2-3.2.2v.7c.3.4.6.5 2.4.5l4.3-.4zm-18.6-.8c.5-.2.8-.5.7-.6-.4-.4-11-.6-11.1-.3-.6.9 1.2 1.2 5.9 1.3 2.6 0 3.7-.1 4.5-.4zm73.5-1c.5-1.6.4-1.8-.2-1.8-.7 0-.8.4-.6 1.9.2 1.5.4 1.4.8-.2zm-22.4.7c.2-.2-1.8 0-2.1.2-.3.2 0 .2.8 0l1.3-.2zm-45.4-.2c-.1-.3-.5-.4-1.3-.4h-1l.7.4c1.1.5 1.8.5 1.6 0zM34 93.5c-.2-.4-1.3-.6-1.3-.3s.5.5 1.2.6v-.3zm65 .1h-.5c-.2.1-.1.2.2.2.3 0 .4 0 .3-.2zm-40.4-.8h-.5c-.3.1-.2.2.1.2.3 0 .5 0 .4-.2zm17-.7c.2-.3.1-.4 0-.3-.2.1-.3.3-.3.4 0 .4.2.3.4-.1zm36 0c1.5-.3 1.7-.4 1.1-1.2-.6-.9-1.8-.7-3.2.6-.7.6-.5 1 .4.9l1.8-.4zm14.2-.6c.4-.8.4-1.1 0-1.1-.5 0-.8.5-.8 1.3 0 .7.4.6.8-.2zm-66.9 0c0-.2-.6-.4-1.4-.5-1.5-.2-2.3-.7-2.3-1.5 0-.6 0-.6 1.6 0 3 1 13.5.2 13.5-1 0-.2-1.8-.3-5.4 0-5.7.2-9.4.1-12.6-.1l-1.9-.2-.5.6c-1.2 1.5-.5 2 3 2.3 1.3 0 2.5.3 2.6.4.2.4 3.4.3 3.4 0zm56.9 0c.3-.3.1-.3-.6-.3-.5 0-1 0-1.1.2-.2.4 1.2.4 1.7 0zm5.9-1.9c1.2-.2 2-.6 1.2-.6-.9 0-3.7.6-3.7.8a291.7 291.7 0 0 0 2.4-.2zm-42.3-.4 1.8-.8.7-.2-.1-1c-.4-2 1.3-3.1 6-4l1.6-.4.1-3 .1-3h-1.3c-.7 0-2.1.3-3.2.6s-2.4.5-2.9.5l-1.8.3c-.8.3-1.4.2-1-.2l3.2-.8c1.8-.3 3.5-.7 3.8-.9l2-.3H90v-1.2h-1.5c-1.2 0-1.5.2-1.5.5 0 .5-.4.7-.5.2 0-.1-.6-.1-1.6 0-1.8.4-4.5.3-4.5-.1 0-.2 1.1-.5 2.5-.8a64.5 64.5 0 0 0 7.3-1.8l.4-1.8.2-1.5h-1.2c-1.3-.1-1.5-.1-4.7.3a35.2 35.2 0 0 1-5.9.2c-.8 0-1-.4-.2-.7l.4-.1-.4-.3c-.7-.4-.3-.8.8-.8 1 0 4.7-.6 6-1A11 11 0 0 1 88 67c1.4 0 2-.2 1.7-.5a53 53 0 0 0-7.5.7c-2.8.3-3.7.3-3.3-.2l1-.2c4-.3 9.2-1.1 9.7-1.5.4-.4.5-2.7.1-3.4a8 8 0 0 0-1.1-1.3l-.9-.9-4.4.3-5.1.3c-1.3 0-1.5.3-1.2 1.3.1.5.3 2.3.3 4 0 3.3-.2 3.9-1.8 4.8-.5.3-.9.6-.9.8l.8 1.2c.4.6 1 1.7 1.3 2.5l.8 1.9a31 31 0 0 1 1.6 4.7c.3 1.3.3 4.2 0 4.6-.2.3-1 3-1 3.5s.2.4 1.4-.3zm-34-.6h-.6c-.2 0-.1.1.2.2.3 0 .4-.1.3-.2zm32.1-2.4c.2-.7.1-.9-.1-.9-.6 0-1 1.2-.7 1.7.3.6.6.3.8-.8zm-17.7.4 1.9-.3-3-.2c-2-.1-3.5-.3-4-.6-1.2-.5-3.7-.9-4.5-.7-.8.2-1 .7-.3.9.3 0 .5.3.5.6l.2.7c.3.3 7 0 9.2-.4zm12.1 0c4-.8 4-.8 4.7-1.8.6-1.2.7-2 .3-3.5-.3-.8-.3-1.1 0-1.7l.3-.6-1.2-2.6a21 21 0 0 0-3-4.8c0-.3-2.7-1.7-3-1.5 0 .1 0 .3.2.4.5.3 0 1.2-.6 1.5l-4.3.2-4.3.4c-.6.4 1 .9 3.5 1 1.9.1 2.5 0 4.5-.6 2.6-.8 4-.8 4.2 0 0 .6-.7 1.3-1.2 1-.2 0-.4 0-.5.2-.1.2.1.3.6.3 1.6 0 1.3 1-.3 1.7-1.7.5-4.8 1.2-5.9 1.2-1 0-2.6.7-2.4 1.2 0 .2 1.5.2 4.7 0 2-.2 5-.9 5.5-1.4.6-.4 1.5-.4 1.7 0 .3 1-1 1.6-5 2.3-3.3.6-3.6.8-1.7.8 1 0 2.3-.2 3-.4 2.6-1 3.4-1 2.8.1-.3.5-2.2 1.1-5.3 1.6-1.1.2-2.2.6-2.8 1-1 .6-2.4.8-2.5.3-.1-.2-1.1-.3-3.5-.2h-3.3l-.3-.6c-.4-.9-1.2-1-4.4-.5-1.3.2-3.6.3-5 .3h-2.7l-.5.5c-.2.3-.4.6-.3.8.1 0 1.5.2 3.1.2l3.2.2H52c1-.1 1.4-.3 1.3-.5-.3-.7.6-.7 2.1-.2.8.3 2 .6 2.6.6.5 0 1.3.2 1.6.4.5.3 1.7.4 5.8.4 4.8 0 6.3 0 6.3-.5 0-.1-1-.2-2.1-.2-2.5 0-3-.5-.6-.6 1.7 0 3.7-.8 4.6-1.7.4-.4.6-.4.9-.2.2.2.3.6.2.8 0 .3 0 .5.2.5l.2.8c0 1.4-3 2.3-8.7 2.5-3.5.1-4 .3-3.8 1l.2.5 4-.2c2.3 0 4.6-.2 5.2-.3zm-24.4-.4c.3 0 .6-.3.6-.7 0-.4-.2-.4-.5-.3-2 .7-5.6.9-8 .2-1.7-.4-2.7-.3-1.5.2 1.6.6 7.8 1 9.4.6zM43 84.4c-.3-.1-.4-.4-.4-.9l.1-.7-1.7-.4c-2.3-.6-2.6-.6-2.6 0s-.8 1-2 .7l-.8-.1 1 .4c1 .5 3.9 1 5.6 1h.8zm78.6-1s0-.2-.3-.2c-.2 0-.4.1-.4.3 0 .1.1.2.3.2.1 0 .3 0 .4-.2zm1.6-.2c0-.1 0-.2-.3-.2-.2 0-.4 0-.5.2-.1.2 0 .3.2.3s.5-.1.6-.3zm1.2-.2c0-.2-.2-.3-.3-.3l-.4.3c-.1.1 0 .2.2.2.3 0 .5-.1.5-.2zm-28-1.4.1-1.7v-7.3a86.8 86.8 0 0 0-.7-12.1l-.2-1.8-1.5.1c-1 0-1.7.2-1.8.4l-.2 2.3-.2 3.9-.2 1.8.5-.5c.2-.3.4-.5.5-.4v3c-.3 1.8-.3 4-.1 7v4.5c0 .2-.3.3-.6.2-.3-.2-.5 0-.5.3 0 1 .5 1 2.7.7l2.3-.4zm-2.7-10.9c0-.2.4-.4.7-.4.5 0 .6 0 .5.3 0 .2-.4.4-.7.4-.4 0-.6 0-.5-.3zm4.8 10c-.2-2-.1-3 .2-4.1.4-1.4.5-9.4.2-11l-.2-1-.4.8a14 14 0 0 0-.4 4.7c0 3.3 0 4.2-.4 4.5-.5.5-.5 2.3 0 3 .2.3.3.7 0 1.6-.2 1.4 0 2.5.6 2.4.3 0 .4-.3.4-.9zm-49.7 0a32 32 0 0 1 9.5-.7c2.8 0 3.6-.1 3.2-.3a3 3 0 0 0-1.3-.3c-.7 0-.8-.1-.7-.6v-.6l-1.6.1a144.7 144.7 0 0 0-13 2c0 .2.4.3 2.5.6l.7.2.7-.4zm41.9-1.4c-.1-.2-.2 0-.2.5s.1.7.2.4v-.9zm-47.3.6c0-.6.8-.9 3.1-1.2a13 13 0 0 0 2.6-.5l.5-.2-.5-.2-4-.1-4.8-.1c-1.1 0-1.3 0-1.2.4 0 .3 0 .7-.2.9-.2.2-.1.4.7.6 3.3 1 3.8 1 3.8.4zm7.3-1.9h-.5c-.2.1-.1.2.2.2.3 0 .4 0 .3-.2zm4.9-.6c.2-.2 0-.3-.9-.3-1.4 0-2.7-.8-2.1-1.3.2-.2.7-.2 1.7 0 2 .3 7.3 0 7.3-.5s-2.2-.9-4.3-.7c-4.1.3-10 1.4-10.4 1.9h2c2.2 0 2.8.2 2.6 1l-.1.4 1.9-.2c1 0 2-.2 2.3-.3zm86.2.3c.7-.4.2-.5-1-.1l-1.2.3h.9a3 3 0 0 0 1.3-.2zm-104.3-.2h-1l.5.1c.6 0 .8 0 .5-.1zm54-.5c.4-.5-.3-1.5-.8-1-.3.3 0 1.4.3 1.4l.5-.4zm-49.7-.6c0-.5-3-.8-3.3-.3-.1.2.7.3 2.6.5.4 0 .7-.1.7-.2zm-17.9-.7c.2-.6.2-2 0-2.7-.3-.4-.3-.4-.3.3l-.2 1.8c-.2 1 .2 1.4.5.6zm45.2-.3c1-.5 1.4-1.1.6-.8-.3.1-1.4.3-2.5.3-2.7.2-3.2.3-3.2.8 0 .4.3.4 2 .3 1.3 0 2.5-.3 3.1-.6zm-20.7-.8c1.2-.2 2.6-.5 3-.7l1.8-.2c1.4 0 5-.7 5.5-1.1.3-.3.3-.4-.4-.5h-1.8l-2.8.4-4 .7a1658.2 1658.2 0 0 1-7 1.7c-.4.3 3.6 0 5.7-.3zm-7.8-.5c.3-.2.9-.4 1.3-.4.5 0 1.5-.3 2.3-.5l2-.6c1.2 0 .4-.4-.8-.4a47.6 47.6 0 0 1-8.2-.8c-.6.2-2-.4-2-.7.1-.2 1.1-.3 3-.3 2.2 0 3.2-.2 5.8-.9a109 109 0 0 1 3.4-1c0-.2-.5-.4-1-.5-.7 0-1.3-.3-1.4-.6-.4-.4-1-.3-4.5.8-3.4 1-6.3 2.2-7.1 2.9-.5.3-1 .4-1.5.4-2.9-.5-3.3-.5-3.3 0 0 .1-.2.4-.5.6l-.5.3.7.5c.6.5 1.6.9 3.5 1.2.8.1 1 .1 1-.2-.1-.7 0-1 .4-1l4.6 1.3c1.1.4 2.3.3 2.8-.1zm51-1.4c0-1-.1-1.1-.3-.9-.4.7-.3 2.2.2 2.2v-1.3zM56 70.9c2-.3 2.2-.4 1.8-.8-.3-.4-.2-.5.3-1 .3-.2.5-.5.5-.6 0-.3-5.8.1-8.6.7-3.6.7-4 1-4 1.3.1.6 2.4.7 4.7.1l2-.4.3.6c.4.4.6.5 1.3.4l1.7-.3zm-11-.1c.1-.2 0-.3-.4-.3-.3 0-.5.1-.4.3l.4.2c.1 0 .3 0 .4-.2zm24-.3c.5-.4 0-.6-1-.3s-1.2.2-1.6-.6c-.3-.5-.6-.6-2.2-.7h-2.6c-.9.2-2.3 1.3-2 1.6.2.2 5.8.5 7.9.4.7 0 1.4-.2 1.6-.4zM33 69.6A126 126 0 0 1 47 65c5.2-1.3 6.2-1.4 11-1.2l4.4.2.2-.5c.1-.3 0-.5-.2-.7-.6-.4-6.7-.3-7.8.2l-.9.3-1-.5c-1.6-.8-4-.3-13.7 2.6-3.5 1-6.2 2-8.8 3.2-.7.3-1 .3-1.2 0-.5-.5.2-1 2.6-2a275.6 275.6 0 0 1 15.1-5c0-.2.6-.6 1.2-.9l1-.7a33.5 33.5 0 0 0-9 2.5 3 3 0 0 0-.9.4l-1.2.4-3.5 1.4c-.7.6-3.8 1.6-4.4 1.5-.9-.3-2.5 1.5-2.2 2.4.2 1.1.6 1.4 1.9 1.5l1.7.1c.2 0 1-.2 1.7-.6zm41.2-.6c1.4-.8 1.7-1.2 1.7-2.6v-1L74.2 67c-.9 1-1.8 1.7-2 1.7-.3 0-.3.7.1.8.5.3.6.3 1.9-.5zm10.8-.9c.4-.4-.3-.3-1.3.2l-.8.4 1-.2c.5 0 1-.2 1.1-.4zm4.2 0c0-.1 0-.2-.2-.2l-.2.2v.3c.2 0 .4-.1.4-.3zm-17.5-.6c1.2-.7 3.2-2.5 3.2-2.9l-3 1.3-2.9 1.5.5.4c.6.5.7.4 2.2-.3zm-6-.5c-.5-.5-.7-.5-1.6-.3-1.6.4-1.4.9.5.9h1.6l-.5-.6zM54 66.7c.7-.4 1.2-.8 1.2-1 0-.3-2.5-.5-3.9-.3a27 27 0 0 0-4.7 1c-.4.3.7.6 2.5.7l1.8.1c.4.4 2.1 0 3.1-.5zm8.3-1c.7-.1 1.4-.4 1.4-.5 0-.2-1.4-.2-6 0-.2 0-.4.2-.4.4 0 .4 3 .5 5 .1zm8.9-.8c2-1 3.6-2.2 4-3 .3-.4.2-1.1-.3-1.7 0 0-1 .7-1.9 1.8-1 1-2.3 2.1-3 2.6-2.4 1.5-2.3 1.4-1.3 1.3l2.5-1zM33 64l7.2-2.9c2.1-.8 6.9-2.1 9-2.5.9-.1 1.4 0 2 .2.5.3 1.1.4 1.5.3.3 0 1.6 0 2.8.2H59l2.4-.5c1 0 2.2-.6 4.7-2.2.4-.3.6-.3.9 0 .2.2.2.4-.2.8-.7.8-2.7 2-3.4 2.3a2 2 0 0 0-1 .5c-.2.3-.1.4.5.7l.7.2 1.6-.8c2.7-1.5 4.1-2.9 4.1-4 0-.2-2.7-1.6-3.3-1.6-.2 0-.4.3-.4.6-.1.5-.5.7-1.8 1.2-.9.3-1.8.7-2 1-.6.4-3 .8-6.3 1.1-1.8.2-2.2.1-3.2-.4a6 6 0 0 0-2-.5 70 70 0 0 0-18.2 6.2c-.8.2-1.4.6-1.4 1 0 .2.5 0 2.4-.8zm34.8.1c1-.3 3.5-2 4.7-3.3 1.2-1.3 1.3-2.4.2-3.1-1.2-.8-1.6-.7-3 .8a19.8 19.8 0 0 1-4.2 3.3c-2.3 1.4-.5 1.5 2.1 0 .8-.4 2.1-1.5 2.9-2.3.9-.9 1.5-1.3 1.8-1.2.2 0 .4.3.4.4 0 .7-3.2 3.6-5 4.6-2 1-2.4 1.4-1.3 1.1L68 64zm8.1-.4c0-.2-.2-.2-.4 0-.1.1-.2.4 0 .6 0 .2.2.2.4 0v-.6zm-46.3-.9c.5-.5 1.2-1 1.5-1 .3 0 .6 0 .7-.2.4-.6-.2-.6-1.4 0-1.3.6-1.7.6-1.7-.3 0-.5-.6-1.2-1-1.3-.3 0-.4 2.7-.1 3.3.2.7.9.5 2-.5zm6-1.7a87.5 87.5 0 0 1 14.5-5c1.4-.1 1.8-.4 1.6-1-.2-.4-2.7-.5-3.7-.1l-3 1C41 57.6 33.6 61 33.4 61.8c-.1.3 1.1 0 2.3-.7zm55-.2c-.6-1-1.2-1.5-1.4-1.3-.2.1 1.5 2 1.8 2 .1 0 0-.3-.3-.7zm-32.9.2-2-.4-1.7-.1.5.4c.6.4 3.6.5 3.2.1zm1.7 0h-1c-.2.1 0 .2.5.2s.7 0 .5-.1zm-6.7-.3c0-.1-.2-.2-.7-.2h-.9l.7.2.7.3.2-.3zm-22-.8a7 7 0 0 1 1.6-.5c.3 0 .7-.2 1-.5l.5-.5h-1.4c-1.6.2-2.9.4-2.9.7l-.1.8c-.2.7-.2.7 1.3 0zm7-3c.2-.2.3-.6.2-.8-.1-.3 0-.7.3-1 .5-.5.2-1.2-.4-.7-.2.2-.3.5-.3.8 0 .3-.4 1-.8 1.7-.5.6-.8 1.2-.8 1.3 0 .2 1.4-.7 1.8-1.3zm-9-.2c0-.3 0-.4-.2-.3-.2 0-.3.4-.3.7 0 .2.1.4.3.3l.2-.7zm3 0 .6-.1-.8-.1c-.6-.1-1 0-1 .2-.2.4.1.4 1.2 0zm23.1 0 2.5-.5c2.3-.2 3.1-.5 1.6-.5-.6 0-.9-.1-1-.5-.1-.5-.3-.6-1.8-.6-1.6 0-2.3.3-1.7.7.2.1.2.3 0 .7-.5.9-.2 1.4.4.8zm-21.6-.1h-.5c-.3 0-.2.1.1.1.3 0 .5 0 .4-.1zm13.3-2.5c3.4-1.1 5.1-1.3 9.9-1 2.5.2 4.6 1 4.6 1.7 0 .8.2.9 1.8.5 3.2-.6 2.8-1-1.7-1.9a1 1 0 0 1-.7-.6c-.1-.6-.3-.6-7.2-.7h-4l-2.3.7a19 19 0 0 0-6.2 3.5l1.2-.5 4.6-1.7zm-16.4.3 1-1.4c1.9-2 2-2.1 1.6-3.7-.5-2.9-1.2-3.6-1.8-2-.4 1-1.1 1-2-.1l-.7-.9v1.9c0 1 .2 2.4.4 3l.4 2.1c0 .5 0 1 .2 1.2.2.2.9.2.9 0zm13.5-1.7a157 157 0 0 0 5.5-2c.6 0 2.2-1 2-1.4-.1-.1-.4-.2-.6 0l-2 .5c-.7.2-1.8.5-2.3.8-2.4 1-5 2.4-5.4 2.8l-.5.4.8-.2 2.5-.9zm-9 .6c1-.3 2.6-1.8 2.6-2.4 0-.3-2.2.7-3.3 1.6-1.4 1-1.2 1.3.7.8zm35.6-.3c1.3-.7 1.6-1.7 1.4-4-.3-2.4-.9-4-2-5.4l-1.3-1.8c-.5-.8-1-.8-1.5-.1a3 3 0 0 1-1 1l-.9.3-.4-.4c-.5-.5-.2-1.1.6-1.4 1-.4 1.3-1 1.4-3.2 0-2.2-.2-3.1-1-4.2-.7-.7-.4-1.9.5-2.2 2.2-.9 3-1.4 3.8-2.4 1.7-2 2-5.5.9-8.8L70 18c0-.2-.2-.4-.4-.5-.4-.2-1.7 1.3-1.7 2 0 .8-2.9 3.5-4.5 4.2-1.8.9-2.4 1.5-2.5 2.7 0 1.6-1.5 1.6-1.8 0-.2-1-.7-1.2-2-.7-.7.3-1 .3-1.3 0-.5-.4-2.1 0-4 1.1-1.8 1.2-4.7 4-4.9 4.8-.2 1-1.8 2.5-3.3 3.3l-1.1.7c0 .1-.5.8-1.2 1.5-.6.7-1.3 1.7-1.5 2.2-.4 1-.5 6.4-.2 6.8l2.4-1 5.9-3 3.7-1.8.4.5c.2.3.6.6.9.7.7.3.4.8-.5.9-.5 0-1 .1-1.3.3-.4.2-.1.3 1.5.3 2.1 0 3.3.4 5 1.5.5.3 1.2.6 1.7.6.6 0 1.1.4 2.4 1.7a55.2 55.2 0 0 0 6 5.4c.7.8 1.4 1.4 1.5 1.4l1-.6zm-8-8.2c-.5-.3-.5-1.3 0-1.3.7 0 1.2.4 1.2.8 0 .6-.5.8-1.1.5zm-17-3a22 22 0 0 1 6-2.5c1.4-.2 6-.2 7.5.1 1.2.3 3 1.9 2.6 2.3-.2.2-.6.2-1.5-.2l-2.2-.6-2.5-.7-2.6-.4c-1.1 0-3.4.7-5.4 1.7-1.4.8-2.5 1-2 .3zm2.6-3.6c0-.8 3.7-1.6 4.1-1 .3.6-.5 1-2.3 1.2-1.5.1-1.8.1-1.8-.2zm.8-2.3c.2-.6 1.8-1.3 3.6-1.5l1.7-.2v.5c-.1.4-.5.5-1.5.6l-2.2.6c-1.1.6-1.7.6-1.6 0zm2.1-3.2c0-.5 1.3-.8 3.2-.8 1.4 0 1.8 0 1.8.3-.1.2-.7.4-1.6.4-.8 0-1.9 0-2.4.2h-1ZM60 30c-.2-.5-.2-.7.2-1.2.3-.3.6-.5.8-.5.4 0 .7 1.4.5 2-.3.6-1.2.4-1.5-.3zm5.5-1.6c-.6-.4-.3-1.2.7-1.8a4 4 0 0 1 1-.4c.7 0-.2 2.2-.9 2.4-.2.1-.6 0-.8-.2zm-3.9-2.2c0-.2.3-.5.6-.7.8-.5 1 0 .3.5-.5.5-.9.5-.9.2zm-21 26c.4-.4.9-.6 1-.6.3 0 .5-.1.6-.3.1-.2-.1-.2-.6-.1-1 .2-1.3-.3-.8-.9l1.9-1.2c1.8-.9 1.8-1.2.1-.6l-2.6 1c-1.4.5-1.5.6-1.3 1l.2.6-.3 1-.2 1.1.6-.2a5 5 0 0 0 1.4-.8zm24 0-1.7-2c-1.5-1.8-4.5-3.7-4.8-3.2 0 .1.3.4.8.7.5.2.9.6.9.8 0 .2.4.6 1 .8.5.3 1 .7 1 1.2.3 1 1.3 1.9 2.1 1.9.4 0 .7-.1.6-.3zm10.1-2 1.2-1.2v-1.3c0-.6.2-2 .5-2.8l.4-2.5c0-.7 0-.9.5-.9h.6l-.2 1.8c-.5 4-.3 4.9 1 4.3.6-.3.7-.5.5-1.1-.2-1 .1-1.4.7-.9 1.1 1 1.2-.1.4-4.3l-.2-.8h-.9l-1.5-.3c-.6-.2-.7-.2-.7.1 0 .2-.1.5-.3.6-.4.2-1.6-1.2-1.6-1.9 0-1.5-1-3.8-2.7-6-1.6-2-1.8-2.1-3-1-1.6 1.5-1.7 2-1.3 5 .2 2.1.4 2.8.9 3.3l.6 1 1.3 1.9c1.4 1.9 1.3 1.8 2 5.5l.5 2.6 1.3-1.1zm-5-9.4c-.3-.3-.1-1 .3-1.4.3-.3.4-.7.2-1.7l-.1-1.4.6-.4c.3-.3.9-.5 1.2-.5h.7l-.2.9c-.1.6 0 1 .3 1.3l.5.5-.8.5c-.4.3-.7.7-.7 1 0 .3-1.1 1.4-1.5 1.4-.1 0-.3 0-.4-.2zm-10 9.8c-.2-.4-2-.7-4.2-.6-2 .1-2.5.3-2.2.7.2.3 6.4.2 6.3-.1zM44 50.2c.6-.2.9-.4.7-.5-.3-.1-2 .6-2 .8 0 .3.3.2 1.3-.3zm-32-.5h-.5c-.2 0-.2.1.2.2.2 0 .4 0 .3-.2zm3.5-.3c0-.1-.4-.2-1-.1l-.8.2.9.1c.5 0 1 0 1-.2zm4.8-.5 1.4-.2-1.4-.2c-1.5-.2-3 0-3 .6a79 79 0 0 1 3-.2zm28.5-.5c2.2-.7 3.3-.7 3.9 0 .2.3.6.3 1.4.2 1-.2 1.1-.2.6-.4-1-.2-.5-.8.8-1.1l1.2-.4h-1.5c-2.8 0-4.5-.9-3.4-1.7.9-.6.5-.7-2.1-.5-1.8.1-2.7 0-2.8-.1-.2-.4-1.4.2-2 .9L43 46.5c-2.8 1.4-2.2 1.7 1 .5s5.7-1.4 4.9-.5c-.2.2-.3.6-.4 1 0 .5-.3.7-1 .8a3 3 0 0 0-1.1.5c-.5.4 0 .4 2.4-.4zM21 47.6l.5-.2-.4-.2a2 2 0 0 0-1.2-.1l-3.7.2-3.4.4a53 53 0 0 0 8.2-.2zm33.8-2.7c-.5-.4-.9-.4-.7 0l.6.2c.4 0 .4 0 0-.2zM19.4 27c.2-1.2 0-1.4-.7-.9-.5.5-.6 1.5-.1 2 .4.3.6 0 .8-1.1zm30.4-.3c.2-.3.7-.8 1.2-1l1.1-.7c.2-.2 1.3-.5 2.3-.7 1-.3 2-.6 2-.8.6-.9 0-3-1.1-4.9a7 7 0 0 1-.9-2.2l-.2-1-.7.5c-.4.3-1 1-1.1 1.4-.2.5-1 1.5-1.6 2.2-1.6 1.7-2 3-1.6 5.2.3 1.2.3 1.6 0 1.9l-.3.5c0 .4.5.2 1-.4zm-30-3c.1-.5-.4-.4-.6 0 0 .3 0 .4.2.4l.4-.5zm8.1-1.5c.6-.6 1-1.3.9-1.3l-1.3 1.3c-.6.6-1 1-.6 1l1-1zm156 120.4c-1-.5-.9-1.1 0-1.1 5.5.1 5.5.1 4.6 1-.5.5-3.6.6-4.6 0zm-144.2-.2c-.6 0-1-.3-1-.6l-.1-.6.9.2 2.1.4c.8 0 1.3.3 1.3.5 0 .4-1.4.4-3.2.1zm80.7 0c0-.5.8-.8 3-1l2.7-.2.9.1c.3.2.3.3 0 .7-.3.3-.7.4-2 .3-1 0-2.5 0-3.2.2h-1.4zm35.4 0c-.5 0-.9-.3-.9-.5 0-.4.4-.4 1.9-.4 1.4 0 2-.2 2.7-.6 1.1-.7 2.7-.8 2.7-.2 0 .2-.3.4-.8.4-1.1 0-1.2.4-.1.6.5.1.9.4.8.5-.1.4-4.7.5-6.3.2zm-108.3-.7c-.6-.6 1.9-1.7 3.7-1.7 1 0 1.2.4.3.6l-2.2.7-1.8.4zm37.3 0c-.2-.5.4-.8 1.7-1 3.2-.4 4.3-.5 4.3-.2 0 .4-.6.6-2.5.9-1 0-2.2.2-2.6.3h-.9zm-31-.3c0-.3.8-.6 1.7-.6.4 0 .6-.2.8-.8.2-.6.7-1 2-1.6 1.4-.6 1.9-.8 2.1-.5.4.4-.2.9-1.6 1.3-1.4.4-2 1-1.6 1.5l.2.5c-.3.2-3.7.4-3.7.2zm45.5 0c-1-.1-1.7-.8-1.1-1 .5-.2 4 .5 4 .8 0 .3-1.5.4-2.9.2zm-35.2-.2c-.7-.3-.3-1 .5-.9 2.5 0 3.7 1 1.2 1l-1.7-.1zm80.9-1c-.8-.7-1.4-1-2-1-1.3 0-1.6-.3-1-1.2.5-.8 1.5-.8 1.5 0 0 .3.3.6.8.7l1.4.7c.6.5.9.5 2.5.4 1.6-.1 1.8 0 1.8.3 0 .6-.8 1-2.5 1h-1.4zm35.6.5c-3.6-.4-3.6-.4-3.5-.9 0-.6 1.3-.8 3.5-.6 2.8.4 3.3.5 3.3 1 0 .3-.8.9-1.3.8l-2-.3zm-162.2-.2c-.3-.4.5-.7 2.2-.9 1 0 2-.2 2.4-.3.5-.1.6 0 .5.2-.2.6-4.8 1.6-5.1 1zm199.2-.1c-.4-.2-1.3-.4-1.9-.4-1.6 0-4-1.1-4-1.8s.2-.7 2-.2l2.7.7c2.2.5 4 1.1 4 1.5 0 .7-1.5.8-2.8.2zm-115.2 0c-.7-.1-1-.3-1.3-.8-.2-.5-.5-.6-1.8-.8-1.1-.1-1.5-.1-1.7.2-.3.5-.8-.1-.7-.9 0-.7.2-.7 2.5-.3 1 .2 1.5.5 2 1l.7.8.5-.5a8 8 0 0 1 3-.8c3-.5 3.7-.8 3.7-1.5 0-.6 1-1.5 1.6-1.5.6 0 .6.3 0 .9-.3.2-.6.7-.6 1 0 .8-.4 1-2.9 1.5-1.3.2-2.1.5-2.5 1-.6.6-1.2.7-2.5.6zm29.4-1c0-.6 2-1 4.9-1.1 1.1 0 2.5-.2 3-.3.7-.1.8-.1.6.3 0 .2-.3.4-.6.4s-.6 0-.7.2c-.3.6-7.2 1-7.2.4zm-87-.2c0-.1-.3-.3-.6-.3-.4 0-1.3-.7-1.3-1.1 0-.3 1.5 0 2.1.4.5.4 3.5-.4 4-1 .4-.5.7-.5.7 0 0 .7-4.5 2.6-4.9 2zm72.7-.3c-2-.2-2.7-.4-2.7-.8a64 64 0 0 0 7.3 0c3.9 0 5.4-.3 6.3-1.4.5-.7 1.9-1.1 2.4-.7.4.3.7.3 7.5-.7l1.7-.4c.4-.3 4.3-1 5.6-1 .6 0 1.4-.2 2-.4.6-.3 1.4-.4 3.1-.3 1.3 0 2.7.2 3 .3.7.2.8.1.8-.3 0-.7 1-1.5 2.5-2 1.1-.2 1.8-.2 4.6.2l1 .2 1.3-2.5a22 22 0 0 0 1.7-4.1c2.8-5.5 2.8-5.6.8-5.6l-1.4-.2c-.2 0-.6.1-1 .4-.2.3-.6.6-.8.6-.4 0-.2-1 .3-1.2.3-.1.6-.4.7-.7.2-.6 1.5-.7 2-.1.2.2.7.4 1.3.3 1.3 0 1.9-.7 3-3.3.7-1.4.7-1.8.4-2.3l-.3-.6-2.6.1c-3 .1-6-.4-7-1.2a9 9 0 0 1-2-3.3c0-.7-2.5-2-3.2-1.6-.4.3-2.9-.2-2.9-.6 0-.3.3-.4 1.3-.3 1.6 0 1.7-.5.2-1.3l-1-.5-.8-2c-.8-2-1.1-2.5-2.6-3.3-.5-.3-1.1-1-1.4-1.4l-.4-.9.5-1.3.8-1.9c.3-.5.1-1-.5-1.4-.8-.6-2.5-4.6-2.6-6.2-.2-1.8 0-2 1.2-.7 1 1 1.4.8.7-.3-1-1.8.5-2.2 2.6-.6 1.6 1.2 3 2 3.2 1.9a26.5 26.5 0 0 0-.5-6.2c-.7.2-.4-2 .4-4.1l.8-2.5c0-.5 2-4.3 2.6-5l.4-.5-.9-.7c-.4-.4-1.2-.9-1.7-1-.8-.3-.9-.5-.6-1.4 0-.3-.2-.5-.7-.5-1.6-.2-3-1.6-4.2-3.9l-.9-1.7a4 4 0 0 1-.5-1.4c-.1-.8 0-1 .4-1.5.5-.5 1.4-.5 1.7 0 .1.1.5 0 .9-.4.3-.4.8-.7 1-.7l1.5 1.4c1.6 1.7 4.5 3.4 5.6 3.4l2 .1c1.1.2 1.3 0 .7-.6-.5-.4-1.9-.8-3-.8-1.6 0-3.6-1.4-3.1-2.2.2-.4.6-.3 1.5.4 1.1.9 2.3.9 4.8 0 1.8-.6 3-.6 3 0 0 0-.2.3-.5.4-.5.2-.3.3.9.3 1 0 1.8-.2 2.8-.6a13 13 0 0 1 2-.9c.4 0 .7-.2.8-.4.3-.4-1.7-1.3-2.6-1.2-.7 0-.8 0-.9-.5-.1-1-.8-1.3-1.7-1-.8.3-1 .2-1.4-.8 0-.5 0-.7.5-1l.6-.3 1.4 1.1c.8.6 1.5 1 1.7 1 .2 0 .4-.5.5-1a8 8 0 0 1 1-2.2l.9-2c.2-.6 1-1.3 1-.8l-.9 2.3c-1 2.4-1 3.6.1 4.7.4.4.7.8.6 1-.3.8 2.4 1 4 .3a6 6 0 0 1 2-.4 4 4 0 0 0 1.6-.3c.3-.3.9-.4 1.2-.4l.6-.2 1.3-1.1c.7-.6 1-1.1 1-1.5l.5-1.2c.5-.9.5-2.4 0-3.6-.6-1.4-2.2-3.6-3-4l-1.4-1.1c-.9-.7-1.1-.2-.2.6.5.5.7 1.2.2 1.2-.5 0-1.3-1-1.7-2-.4-1.2-.3-1.6.4-1l.5.4.1-.6c.2-.6.6-.7.8 0 .3.7 1.4 1.9 1.9 1.9.2 0 1 .6 1.7 1.4a7.7 7.7 0 0 1 2.1 5.4c0 .7.2 1.5.4 1.8l.3.5.8-.4c.5-.2.8-.7 1-1.2 0-.4.4-1 .7-1.3l.7-1.1c0-.3.4-.7.6-.8.3 0 .8-.4 1-.8l1.4-.7c1-.1 1.7-.7 2.3-1.8.5-1 .5-1.2-.1-2l-.8-1.6a34.6 34.6 0 0 0-8.7-8.5l-1-1h-3.1l.4 1c.2.3.4 1.2.6 2 .1 1 0 1.4-.7 2.9-.4 1-1 1.7-1.2 1.7-.5 0-.7-2.2-.2-2.5 1.6-1.4.6-4.8-1.7-6-.6-.3-1.1-.7-1.1-.8 0-.5-2.4-1.4-3.2-1.2-1 .2-3.2-1-4.9-2.7-1-1-1.7-1.4-2.2-1.4l-.7-.1-.2 1.6a11.2 11.2 0 0 0 1 6.1l.5 1.3c.6 1.1 2.2 2.3 4.8 3.6 1.8.8 2.5 1.6 2.5 2.5 0 .6-.5.4-.9-.2a7.7 7.7 0 0 0-3.3-1.9c-.8-.2-3.7-2.7-3.7-3.2l-1-1.8c-.6-.7-1-1.6-1-1.8.1-.4 0-.5-.9-.5-1.7 0-3.4-1.2-5.3-3.6-.3-.5-.7-1-.9-1l-.6 1.6c-.6 2-.5 5.6.2 6.4.3.3.6 1 .9 1.7.2.7.5 1.2.7 1.2.2 0 .6-.5.8-1 .5-1.2 3.1-3.9 4-4.1.6-.3.8 0 .4.7-.2.5-.8 1-2.5 2-1 .6-3.5 6.2-3.5 7.9 0 1.2.7 3.8 1 3.8l.6-.8c.3-.4.6-.8.8-.8.5 0 .6 0-.4 2-.5 1-.7 2-.6 2.2 0 .3 0 .6-.3.8l-.4.6c0 .2-.4.8-1 1.4-1.1 1.4-1.3 2-.7 3.8.3 1 .4 1.6.2 1.9-.4.6-.9.7-.9.1 0-.3-.2-.8-.5-1.3-.3-.4-.5-1-.5-1.2 0-.8-.6-1.8-1.3-2-.3-.2-.7-.3-.8-.2-.2.2 1 4.2 1.4 4.6.5.5.5 1.3.1 1.3-.8 0-1.2-.5-1.4-1.9-.1-.7-.5-1.9-.8-2.6-.4-.6-.7-1.4-.7-1.6 0-.7 1-1 2.9-1s2 0 3-2c.6-1.2.5-2.1-.3-3.6-.6-1.3-.4-5.4.4-7.8 0-.4-.1-1.2-.8-2.4-1.9-3.6-2.1-6.4-.8-9.3l.7-1.4h.8c.7 0 1 .3 2 1.4.5.7 1.4 1.5 1.8 1.7l1.7.9 1 .5.1-.7.2-2.3c0-2.1.5-2.8 2-2.8h1l2 1.7c1.3 1.3 2 1.7 2.5 1.7 1 0 3.7 1 5 1.6.5.3 1.4.6 1.9.6 1 0 5.6 1.4 6.4 2 .7.5 3.8 3.3 5.5 5 2.2 2.2 3 3.2 4 4.8l1 1.8c.3.2.5.6.6 1 .2.3.4.5.7.4 1-.3 2.5.7 2.9 1.7.1.5.5 1.2.8 1.4.4.4.5.8.5 1.7l-.1 1.2 1 .2c.4.1 1.1.6 1.5 1l2.3 1.7a6 6 0 0 1 2 1.7c0 .4.7 1 1.4 1.4a9 9 0 0 1 3.5 5.7c0 .9.2 1.7.3 1.8.1.1.4 1 .5 1.8.3 1.1.6 1.8 1 2.2a22 22 0 0 1 2.9 7.4c.3 2.4-.4 7.5-1.4 10.6-.7 2.2-2.5 5.7-3.4 6.8-.4.4-.6 1-.6 1.1 0 .4-1.2 1.6-4.5 4.8-1.1 1-2.3 2.2-2.6 2.7l-1.2 1.4c-.3.3-.5.5-.4.6 0 .1 3.7.2 8.1.2 6.7 0 8 0 8 .4 0 .3-1.4.3-8.7.3h-8.7l-1.2 1c-.7.5-1.5.9-1.9.9-.3 0-.8.2-1 .5-.4.3-.8.6-1.2.6-.3 0-.6 0-.7.2-.2.3 1 3.6 1.6 4.4l.6 1c0 .6 1 3.6 1.7 5a78.2 78.2 0 0 1 4.3 10.8l.4 1.3c0 .5.6 1 1.9 1.2.4 0 1 .4 1.3.7.4.5 1.2.7 2.8 1 1.9.4 2.3.5 2.8 1.1.9 1.3.4 1.4-3.7 1l-5.9-.3c-2.3.1-3.2 0-3.2-.6l-1-1c-.8-.5-1.1-1-1.9-2.9l-.9-2.3h-1c-1.2 0-1.4-.4-.2-.7.4 0 .7-.3.7-.6 0-.6-1-2.7-1.6-3-.4-.2-.4-.3-.2-.6.3-.3.2-.9-.5-2.8l-1.6-3.9-.7-1.5v1c-.1.5 0 1.2.2 1.7l.4 1.3.3 2.6c.5 3.2.6 6.2.3 6.4-.6.3-.2.9.7.9.6 0 1 .1 1.2.5.1.3.5.5 1 .5.7 0 1 .8.5 1.1-.6.4-3.9.3-4.7-.1-.4-.2-1-.8-1.4-1.2-.6-.7-.9-.8-2.2-.9-1.5 0-2-.5-.8-.7.4 0 .7-.2.6-.4-.2-.4-.7-2-.8-2.8-.2-.9-1.2-1.2-3-.9h-1.1c0-.5 2-1.2 3-1.1h.8v-.9c-.2-1.3-.5-1.5-1.5-1.1-.6.2-1 .2-1.1 0-.3-.2.2-.4 1.5-.9l.5-.1-.2-1.3c-.2-.7-.3-1.8-.3-2.6s0-1.4-.2-1.4l-1 1.2a11.1 11.1 0 0 1-6.8 4c-1.6.2-1.4 0-3.9 4.8a57.2 57.2 0 0 1-3.1 5.9c-.4 1-1 1.9-1.1 2.1-.4.5-.2 1 .2.6.5-.4 2.3-.6 2.4-.4.1.2.7.3 1.4.3 1.7 0 1.9.7.1 1-1.8.2-2.6.9-1 .9.7 0 1.5.5 1.5 1 0 .2.7.3 1.4.3 1.5 0 2.6.5 2.6 1.2v.5l-2.9-.2c-2.1-.2-2.7-.1-2.5 0 .2.3.9.5 1.6.5 5.8.6 6.4.7 6.4 1.7 0 .2-.2.3-.9.1-.6 0-1 0-1 .2a222 222 0 0 0 1.8.8c.7.1 1.2.4 1.2.6 0 .5-8.3.4-8.4-.1-.2-.6.8-1 2.2-1 .8 0 1.5-.2 1.6-.3 0-.2-.2-.3-.6-.3-1.6 0-4.7-.3-5.2-.4a.7.7 0 0 1-.5-.7c0-.6-.4-.6-3.2 0-2.2.6-4.7.6-5.4 0-.4-.3-2 .2-3.2 1-1.7 1.3-2.5 1.5-5 1.2-3.2-.4-4.1-.7-4.3-1-.1-.5 1.6-.5 4 0l2.1.4 1-.4c.5-.2 1.3-.8 1.8-1.3l.8-1h1.6c1 0 1.8 0 2.4.4 1.2.6 2.4.6 3.2 0l.6-.5-1-.8-1.1-.9-2.4.2c-1.7 0-2.8 0-3.5-.3-1.5-.5-3.7.2-3.7 1.2s-1.7 1.3-4.2.6c-1-.3-2.2-.1-7.7.8l-3.8.8c-2.5.7-9 1.6-9.2 1.3-.4-.4-1.5 0-2 .6-.6 1-2.2 1.4-6.4 1.5h-5.3zm51-6.8c0-.2-.2-.3-.5-.3s-.5.1-.5.3c0 .1.2.2.5.2s.5 0 .5-.2zm-1.6-1.4c.1-.1.2-.4.1-.7 0-.4.4-1.4 2.1-4.7.3-.5.6-1 .8-1 .1 0 .2-.3 0-.8 0-.8 0-1 .5-1 .4-.2.5-.4.4-.9-.1-.5 0-.7.4-1 .3-.2.5-.6.5-1s.2-.8.6-1c.5-.4.6-.7.6-1.6 0-.9 0-1 .4-1s.5-.2.5-.8c0-.6 0-.7.4-.8h.8s0-.4-.3-.7c-.2-.4-.3-1-.3-1.3 0-.4.2-.6.8-.5.5 0 .7 0 .8-.5.2-.7 0-1.3-.4-1.3-.6 0-2.4 1.3-2.7 2l-.4.7.4.5c.6.6.5.8-.2.8-.5 0-.7.3-1.2 1.3l-.6 1.6c0 .3-1.7 3.7-2.1 4-.2.2-.3.6-.3.9 0 .3-.2.8-.4 1-.6.6-1.5 2.9-2.1 4.8-.3.7-.7 1.7-1 2-.2.6-.3 1-.2 1.2.3.3 1.5.2 2-.2zm35.7-2.5c.3-1.3-1-5.7-2-6.3-.1 0-.5-.8-.7-1.5-.3-.7-.7-1.5-1-1.6a1 1 0 0 1-.5-.7c0-.3-.2-.7-.5-1-.6-.5-.7-1.3-.3-1.6.5-.3.3-.6-.4-.7-.5-.2-.6-.3-.5-.8 0-.4 0-.7-.2-.8-.2 0-.2-.2 0-.7.5-.7.4-.8-.2-.8-.6 0-.7-.7-.1-1 .6-.2.2-.6-.6-.6-.7 0-.8-.4-.1-.8.5-.3.2-.6-.7-.6-.9 0-1-.8-.1-1 .6 0 .8-.8.2-.8-.3 0-.7-.2-1-.5-1-1-1.3-.7-1.1 1.1 0 1 .3 2 .5 2.4l.4 1 .7 2 1 2.5c0 .4.4 1.4.8 2.2l.6 1.4c-.2.8 2 6.5 3 8 1.5 2 2.4 2.5 2.8 1.2zm1.3-.8c.2-.5-.4-.4-.5 0-.1.3 0 .4.1.4.2 0 .4-.3.4-.4zm-13-5c0-.2 0-.7-.2-1-.2-.4-.2-.7 0-1.1.4-.6.3-.7 0-1.2-.5-.5-.6-1.5-.2-1.7.3-.2.2-3.1-.3-5.4-.2-1.1-.5-1.8-.9-2l-.5-.5.6-.4c.3-.2.6-.5.6-.7 0-.5-2-1.8-2.2-1.5-.3.3-.3 2.5.1 4.4.4 1.7.6 4.9.5 6.3-.1 1 .7 4.2 1.2 4.7.6.6 1 .7 1.3 0zm-10.2-8.2c.3-.4.3-.5-.2-1-.9-.5-.6-1 .5-.7.7.2 1 .1 1.6-.4l1-.7c.4 0 1.6-3 1.3-3.5-.4-1-2.3-.4-2.8 1 0 .3-.7 1.1-1.4 1.9-2.4 2.6-3 3.3-2.8 3.5.3.4 2.5.3 2.8-.1zm-10.5-3.8c.2-.2.7-.3 1.3-.3.6 0 1-.2 1.4-.5.3-.3.6-.6.8-.6l.8-.4c2.1-2.3 3.5-3.5 4.4-4 1.2-.5 1.3-.7.1-1-.4 0-1.2-.5-1.7-.9-.8-.6-.9-.8-.6-1 .2-.4.4-.3.8 0 .8.7 2.1 1 3.8 1 2.8 0 3.8-.4 4.9-2 .5-.8 1.8-2.2 3-3.3 2.8-2.5 3.3-3 4.7-5.8l1-2.2-.3-.3c-.4-.3-.4-.4-.2-1 .2-.2.6-.5.9-.5 1.2 0 .2 3.2-1.9 6.2-.8 1.2-4.6 5.2-5 5.2-.1 0-.4.3-.5.7a8 8 0 0 1-1.5 2c-.7.6-1.2 1.2-1.2 1.3 0 .3 2.3 1 3.3 1 2.8 0 6.2-1 7.8-2.1.4-.4.9-.5 1.3-.4 1 .2 3.9-1.4 3.8-2 0-.3.3-.7.7-.8.6-.3 1.6-2 1.6-2.8 0-.2-.2-.3-.8 0-1.4.5-1.4 0 0-.9 1-.6 1.7-1.3 2-1.9.3-.6.6-1 1-1 1.2 0 2.3-2.4 2.8-6.4.6-4.3.3-7.1-1.3-12l-.7-2.7c.4-.3.8.5 1.8 3.6l1.1 3.4.2 3.2c0 3 0 4.2-.7 6.2 0 .4 0 .4 1.1.4 1.4 0 1.7-.5 1-1.3l-.5-.5.5-.4c.3-.2.7-.3.9-.2.4.2.9-.7.7-1.1 0-.2.4-.8 1-1.4.9-.9 1-1.2 1-2.1 0-.7.3-1.7.7-2.5.6-1.2.8-1.7.8-3.8 0-2.7-.4-4.2-1.3-5.2a11 11 0 0 1-2.2-5.5c-.4-2.5-1.7-5.2-3.2-7-1.3-1.7-.9-1.7.6-.2l1.5 1.4c.3 0-.3-1.6-.9-2.5-.4-.5-.6-.7-1-.5-.5 0-1-.3-2.5-1.5-1.8-1.6-3-2.2-1.6-.9l.7 1 1.2 2c1.3 1.8 1.8 3.2 1.6 4.2-.1 1-.6.8-.7-.4l-.6-1.8A17 17 0 0 0 202 52l-1-.8-.9-.6-1.9.4-1.8.4 1 .5c1.7.9 3 3 2.4 3.6-.1.1-.5-.3-1-.9-.8-1-2.2-2-2.4-1.6-.3.4.5 1.5 2.4 3.5 3.4 3.5 4.8 6.1 5 9.7.1 2.5-.4 8.6-.9 8.7-.2.1-.2-1.3-.1-5 0-4.3 0-5.3-.3-6.4-.7-2-2.1-4.1-3.6-5.4a30.8 30.8 0 0 1-3.5-3.4L194 53l-1.6.2-1.8.4-1.2.3h-.9v.9c0 .9-.1.9-1.5.4-.6-.2-1.1-.3-1.2-.2 0 0 .2.6.6 1.1 1.4 1.8 1.5 2 1.5 3.1 0 1.3-.7 3.3-1.3 3.9-.6.7-.7 0-.1-1.3.3-.7.6-1.8.6-2.4 0-.9-.1-1.1-.7-1.3-.4-.2-.7-.5-.7-.8 0-.5-1-1.5-1.2-1.3 0 .1 0 .7.3 1.3.5 1.3.3 2.5-.7 3.3-.3.3-.5.8-.5 1.7 0 .7-.1 1.4-.3 1.6-.2.2-.2.3.3.3.8 0 .7.3-.4.8-.6.3-1 .8-1.3 1.5-.3.5-1 1.5-1.8 2.2l-2.3 2.2c-.6.6-1.3.9-2.3 1.1l-3 .7c-2 .6-4.2.6-5 0a9.2 9.2 0 0 0-6.4-1.3c-.2.1-1 1.1-1.6 2.3-1.4 2.6-1.7 3-2 2.9-.1-.2 1.3-3.4 2.2-4.7.8-1.1.8-1.9.2-2.1-.3 0-.6-.3-.7-.5-.4-.7-1-.3-2 1.4-1.7 2.7-2.3 5.2-2.2 10.4 0 2.5.2 3.6.6 4.6l.5 1.4-1 .8c-.5.5-1.2.9-1.4.9l-1.4.6c-.8.6-1 .9-1 1.7 0 .5-.1 1-.3 1.3-.2.2-.4.8-.4 1.4 0 .6-.1 1.2-.3 1.5-.5.5.7 2.3 1.8 2.6.6 0 1 .4 1.7 2 .8 1.6.8 1.9.5 2.2-.3.2-.3.3.3.6.3.2.9.3 1.3.4.8 0 1.4.6 1.1 1.3-.1.4 0 .5.9.7 2.4.7 3.9.7 5 .1s2-.7 2.3-.3c.2.2.6.3 1 .2l1.2.1c.2.2.6.2 1 .1.5 0 .7-.3.7-.8l.1-1c.1-.3 0-.4-.3-.4-.6 0-5.1-4.2-5.1-4.7s1.2.1 1.4.7a12 12 0 0 0 3.4 3c.5.2 1 .1 2-.2a10 10 0 0 1 1.5-.4c.4 0-.5.8-1.1 1-.5.2-.6.4-.5.7.5 1.3.4 1.7-.2 2.4-.9 1-2.3 1.4-5 1.1-1.6-.1-2 0-3 .4-.5.2-1 .6-1 .8v1c-.2.3 0 .6.3.7.2 0 .6.4.8.6.2.3.8.5 1.6.6 2.1.2 6 0 6.2-.3zm23.9-10.1c-.2-.3-.3-.3.8-.9a29 29 0 0 0 4.8-5.8c1.4-2.2 4-8.8 4.3-10.7.2-1.6.2-1.9-.4-1.9-.5 0-.5-.3 0-.7.3-.5.5-.4 1 0 .6.6.6 1.9-.1 4.3a33.4 33.4 0 0 1-3.6 8.3c-1.7 3.5-6.2 8.4-6.8 7.4zm-33.5-4.2c-1.4-.8-2.2-1.5-2-1.8.4-.6 3.3 1.3 3.3 2.1 0 .3-.3.2-1.3-.3zM171.7 80c0-.4.9-2.5 1.5-3.3 1-1.4 6-6.2 6.5-6.2.2 0 .5-.2 2.5-2 1.5-1.3 1.7-1.4 1.7-.8 0 .3-.8 1-1.7 1.7-6.8 5-9 7.4-9.6 10.1-.1.7-.9 1.2-.9.5zm27.2-4.8.7-1.9-.2-2.4c0-1.3-.3-3-.6-3.8a54.4 54.4 0 0 0-3.5-8.5c.3 0 1.4 1.6 2.8 4.2 1 2 2.2 6 2.2 7.7 0 2-.4 4-1.1 5.5-.8 1.8-1 1.3-.3-.8zm-9.6-.7.4-2.5c1-5.4 1-7.5 0-13l-.4-2.4c-.1-.7 0-.9.2-.9.5 0 .5.1 1.2 3.2a37.3 37.3 0 0 1-1.3 16.5c-.2.2-.3 0-.1-1zM177.4 109c-.2-.2-.5-.3-.7-.3-.4.3-.3.7.1.6.3-.1.5 0 .6.1.1.2.3.3.3.2.1-.1 0-.4-.3-.6zm1-1.2-.3-.2c-.2 0-.3 0-.3.2s.1.3.3.3c.1 0 .2-.1.2-.3zm15-2.9c-.5-.3-.8-.3-.8 0 0 .2.3.3.6.3.5 0 .5 0 .2-.3zm-9.5-.4c.7-.4 1.3-1.4.7-1.4a7 7 0 0 0-2.6 1c-.3.2-.3.4 0 .6.6.3 1 .3 1.9-.2zm-32.1-15.7c1.8-1.3 1.8-2.2 0-3-1.1-.6-1.3-.6-1.2.2.2.9 0 1-1.5.5l-1.4-.3c-.2.2.7 2.2 1.3 2.8.7.8 1.5.7 2.8-.2zM170.5 71l-.1-.7 1.3-.1c.7-.1 1.9-.4 2.6-.7 1.6-.8 4.3-3 4.5-3.7.2-1 .5-1.3 1.3-1.5 1-.2 2.7-2 2.7-2.6 0-.7-.2-.6-1.5.8-.6.6-1.3 1-1.4 1-.2-.1 0-.6.6-1.1a10 10 0 0 0 1.5-2c.6-1.3.9-3.7.4-3.8-.2-.1-.4 0-.4.4 0 .3-.3.9-.7 1.2l-1.5 1.7a5 5 0 0 1-1.6 1.5l-1.6 1c-.8.8-1.2.9-1.2.4s.9-1.3 2.7-2.4l1.6-1-.1-2v-2.1h-1.3c-.8-.1-1.6 0-2.2.3-.5.2-1 .3-1.2.2-.4-.2-4.2.4-5 .9l-1.5.3c-.4 0-.8.3-1 .7-.3.3-1.1.9-1.9 1.2-.8.3-1.5.8-1.7 1.2-.2.3-1.3 1.2-2.4 2l-2 1.2.2 1.1c.2 1 .2 1.2-.2 1.6l-.5.5.5.7.4 1c0 .5 1.4 1.5 2.1 1.5l.7-.1v-2.3a8 8 0 0 1 .5-3.3c.7-1.5 1.3-1.6.7 0-.3.8-.3 1.2 0 1.9l.2 1.5c0 .6.2.8.7 1l1.5 1c.4.5.9.9 1.1.9.2 0 .6.2.8.5.3.4 1 .6 2.1.7.4 0 .4 0 .3-.5zm4.4-.3 1.2-.7c.5-.2 1.4-1 1-1l-1.3.6-2 .8-1 .4c-.1.4 1.4.3 2-.1zm5.5-4.6c.4-.9.2-1.6-.3-.8l-.9 1.4-.5.8.6-.3a3 3 0 0 0 1-1.1zm-22-2.9.2-1.5-.5.3a1 1 0 0 0-.3 1c0 .3 0 .7-.2 1-.5.3-.6.9-.1 1 .5.2.7 0 .9-1.8zm-1.5.4c0-.1-.1-.2-.3-.2 0 0-.3 0-.4.2 0 .2 0 .3.3.3.2 0 .4-.1.4-.3zm-.3-1.9c.3-.3.6-1 .7-1.6l.2-1h-.6a7 7 0 0 1-2.1-1.2l-1.7-1.2-.3.5-.3.5-1.1-.5c-.6-.3-1.3-.7-1.4-.9l-.5-.3c-.5 0-.3.9.3 1.5.3.3 1 1.3 1.4 2.2l.8 1.7 1.2.4c1.7.7 2.7.6 3.4 0zm3.9-.6 1-.4-.5-.4c-.3-.4-.4-.4-.8-.1-.3.2-.5.2-.9 0-.7-.3-1 0-.6.8.4.6.5.6 1.8.1zm23.1-1.2c.7-.3.7-1.3 0-2l-.4-.7.1 1a3 3 0 0 1-.2 1.4c-.3.7-.2.7.5.3zm-2.6-3h-.3l-.3.4c0 .2.2.2.3.1.2 0 .3-.3.3-.4zm8.1-4.5c.7-.3 1.5-1 1.9-1.3.7-.8 1.4-.9 2-.1.6.6 1.5.5 1.8-.2.4-.9 1.4-1.4 2.9-1.6 1-.2 1.5-.4 1.7-.9l.7-.9c.5-.4.7-1.7.4-2.3 0-.3-.5-.5-.9-.6-.5-.2-.6-.3-.5-.8.1-.5 0-.7-.7-1l-.9-.5-.3.4-.3.9-.4 1c-.3.5-.5 1.5-.6 2.2l-.2 1.4-1.1.3c-1.7.5-2.5-.1-1.6-1.2.6-.6.4-1.2-.6-1.5l-.8-.3-.4 1c-.2.4-.7 1-1 1.1-.5.2-.8.6-.8 1 0 .3 0 .6-.2.7-.2.1-.3.5-.3 1 0 .7-.7 1.8-1.3 1.8-.3 0-.6.5-.4.8.2.4.5.3 2-.4zm15-1.5c-.5-.5-1-1.2-1.1-1.5-.3-.6-1-.8-1.2-.3-.2.3 2.2 2.6 2.7 2.6.3 0 .2-.2-.4-.8zM81.3 138.7c0-.2.6-.3 1.5-.4 1 0 1.4 0 1.3.3 0 .2-.7.3-1.5.4-1 0-1.4 0-1.3-.3zm-75-.7c-.8-.5-.6-1 .5-1.1 1.3-.2 1.7.2.9.8-.8.6-.8.6-1.4.3zm33.4 0c0-.2.3-.4.8-.7.7-.3.8-.3.8 0 0 .2-.4.5-.8.6-.5.2-.8.2-.8 0zm46.2 0c-.2-.3.1-.3 1.8-.3h1l.8-1c.4-.5.7-1.2.7-1.5 0-.9 1.3-1.8 2.2-1.6h2l1.4-.2v-.8c0-.5.1-1 .3-1.1.1-.1 2.2-.2 4.5-.2 6 0 6.2 0 6.8-1.1l.4-1h1.1c1.3 0 2.2.4 2.2.9 0 .2-.4.2-1.3.1l-1.3-.1-.5.6-.9 1.2-.5.6-1.7-.3c-1.2-.3-2.7-.3-4.7-.2l-3 .2v.7c0 1-1 1.5-3.5 1.5l-2.3.2c-.2.1-.4.6-.5 1-.1.5-.6 1.2-1 1.7l-.8 1h-1.5c-.9 0-1.7-.2-1.7-.3zm81.3 0c-2.2-.4-2-1 .4-1 1 0 1.8 0 1.9.2 0 .2-.9 1-1.2 1 0 0-.6 0-1-.2zm53.7-.4-1.5-.3c-.8 0-2.2-.3-3.1-.5a7 7 0 0 0-2-.2c-.1 0-1.3 0-2.6-.3a67.6 67.6 0 0 0-6.5-1c-.6-.9 1.7-1.4 4.5-1 4.8.7 9.3 1.5 11.2 2 .4.2.7.5.7.8 0 .5-.4.8-.7.5zm-203-.4c-.1-.1 0-.3 0-.4.4-.2.9 0 .9.4 0 .3-.7.3-1 0zm32.8-.4c-1.2-1.1-.7-1.7.6-.7.4.4 1 .6 1.7.6.9 0 1 0 .7.4-.5.6-2.3.5-3-.3zm-40.4-.4c0-.2 1.8-.6 2.2-.4.5.4.1.7-1 .7-.6 0-1.2-.1-1.2-.3zm12.5 0c0-.1 1.8-.8 2.3-.8.5 0 .3.7-.1.9-.6.2-2.2.2-2.2 0zm37.9 0c-.2 0-.4-.2-.4-.4 0-.5 1.1-.4 1.3 0 0 .4-.5.6-1 .5zm-44.6-.2c-.4-.3.1-.6 1.4-.6 1 0 1.3.1 1.2.3-.1.4-2.3.6-2.6.3zM3 136c-.3-.5-.1-.6 1.6-.9 2.3-.3 2.8-.4 2.9 0 0 .2-.5.5-1.3.7-1.7.5-3 .6-3.3.2zm108.9 0c-.2-.3-.3-.7-.3-1 0-.7.8-1 3.5-1.3 1.8-.2 1.9-.2 1.9.2 0 .2-.9.5-1.9.8-1 .2-1.6.4-1.3.4.8 0 1 .4.6.8-.3.4-2.1.4-2.5 0zm-32.5-.8c-2-.6-2.5-.8-2-1.1.5-.2 3.4.4 3.8.8.6.6-.2.7-1.8.3zm40.2-.8c-.3-.7.5-1.1 1.6-1l3 .4c2 .1 1.8.2 5.5-1.6.8-.4 1.4-.5 2.2-.4.7.1 2.2 0 3.4-.3 1.6-.3 2.3-.3 2.5-.1.5.5 0 .9-1.2.9-2.7 0-7 1.1-8.8 2.2-.8.6-8 .5-8.2 0zm-105.4-.1c-.4-.5 0-.8.8-.6.4.1 1.5 0 2.5-.4 1-.3 2-.4 2-.3.4.4-.3.7-1.7 1-2.6.6-3.3.7-3.6.3zm92 0c0-.2.5-.5 1-.7.5-.2 1-.5 1-.7.2-.3.6-.4 2.8-.2l2.6.2 1-.7c.6-.4 1.6-.8 2.2-.9 2-.2 3.8-.9 4-1.4l.7-.5c.2 0 .4-.2.4-.4s-.7-.3-2.7-.3c-2.8 0-5.7-.5-6.5-1-.9-.7-.1-.8 1.6-.3 1.3.3 2.5.4 5.6.4a28.5 28.5 0 0 0 5.7-.4c.4.2.3.8 0 1-.3 0-.3.2 0 .4.9.6 4.2.2 7.6-1 .8-.3 2.4-.7 3.7-.8 2.4-.2 2.7-.4 2.3-1-.3-.4-2.7-1.4-2.9-1.2l-4.3.2c-2.2 0-4.2.2-4.3.3l-.3.7c0 .3-.3.6-.6.7-.4 0-.5 0-.4-1 .1-.5.2-1.2.4-1.4l.2-.5h-1.4c-.7 0-1.6 0-2-.2-.6 0-1 0-1.6.7-.6.6-1.2.8-2.7 1-1.3.3-2 .3-2.2.2-.5-.5.6-1 2-1 2.1 0 2.2-.1 2.7-1l.4-.9h4c2.9 0 3.9 0 3.9.3 0 .2-.3.4-.7.5-1.4.4 0 .7 3.1.6 2.4 0 3.2-.1 3.3-.4.2-.4 2.3-.2 4.5.5.9.3 2.2.5 3.1.5 1 0 2 0 2.3.2.5.2 2.9.2 4.3 0 .1 0 .3-.2.4-.5.3-.7 1.4-1 4-1.5l1.2-.1-.7-.2c-1.4-.4-4.2 0-5.6.6-1.9 1-2 1-11.7 0l-1.8-.2-.1-.6c-.1-.7.2-.8.6-.3.3.3 5.9.7 9.7.8 2.6 0 3.2-.3 3.5-1.3l.2-.7 1 .2c1.1.3 4.4.3 8 0 3-.2 4 0 3.7.6-.1.4-.9.6-6 1.6-3.4.6-4 .8-4.6 1.4-1.1 1.1-3.1 1.4-6.7 1a26.5 26.5 0 0 1-4.9-.7h-.7l.5.6c1 1.5.3 2-2.7 2.3l-2.5.4c-.8.7-6.2 1.8-8.6 1.8-1.7 0-2.5.1-3 .5l-1.7.7-1.6.6-1.7.4a6 6 0 0 0-1.8.4c-.9.6-4 1.3-5 1.2-.5-.1-1.4 0-2.2.3-1.6.6-3 .7-3 .2zm107.2 0a37.2 37.2 0 0 0-5.3-.5c-2 0-2.4 0-3-.6l-.8-.6.4-.5c.3-.3.6-.4 2-.2a181.6 181.6 0 0 0 6.6 1c5.7 1 5.8 2.3.1 1.5zM0 133.7c.1-.4.6-.6 2.4-.8l3-.5c.5-.1.7-.1.7.2 0 .5-1.7 1-3.6 1.1-.7 0-1.6.2-2 .3-.4.1-.5 0-.5-.3zm12-.4v-.7c.2-.3.2-.4-.2-.2H10l-1.4-.2.5-.4c.3-.2.6-.3.7-.2.1 0 1.8 0 3.6-.3 5-.6 7-.7 7.3-.4.4.4-.3.7-2.8 1.2a43 43 0 0 0-3.2.8c-1.7.6-2.5.7-2.6.4zm77.4-.6c0-.5.3-.7.7-.4.5.4.5.8-.1.8-.3 0-.6-.2-.6-.4zm-8.5-.4c-.3-.3.4-.5 2.7-.6l1.7-.1.8-1c.4-.4 1-1.3 1.2-1.8.6-1.1 1.3-1.4 1.3-.5 0 .5-2 3.4-2.7 3.7-.6.4-4.9.6-5 .3zm-10-.2c0-.2 1.2-.6 2.6-1l2.6-.6-.1-.5c0-.8 0-.8 1 .2.6.6 1 .7 1.4.6l3-.5c2.2-.3 2.5-.3 2.7 0 .2.7-.5.9-2.5.9-1 0-2.3.1-2.7.3a2 2 0 0 1-1.6 0c-.6-.3-1-.2-2.3 0-2.2.6-4 .8-4 .6zm-70-.3c-1.2-.2-.6-.9 1-.9.4 0 1.4-.1 2.3-.4l3.3-.5c1.5-.2 1.8-.1 1.7.2 0 .2-.7.4-1.7.6-.8 0-2.4.4-3.4.6-2.4.6-2.3.5-3.1.4zm22.7 0c-1-.1-1.2-.8-.3-.9 1 0 2 0 2.2.3.5.5-.5.8-1.9.6zm118-.2-1-.2c-.3-.1-.6-.4-.6-.6v-.4l1.7.3c2 .4 3.7.1 3.4-.5a6 6 0 0 1-.3-1.3c-.2-1.3.2-1.4 3.8-.8l3.1.5.8-.4.7-.5.2.5c.4 1-1.8 1.9-3 1.2l-2.6-.4c-1.6-.2-2-.2-2 .2 0 .2.3.5.7.6 1.1.6.7 1.2-1 1.6-1.4.3-3.3.4-3.8.2zm-29-1.3c-1-.7-1.6-1.7-1-1.7.5 0 2.7 1.7 2.6 2 0 .7-.5.6-1.7-.3zm-53.3 0c0-.2.1-.4.4-.4.2 0 .4.2.4.4s-.2.4-.4.4a.4.4 0 0 1-.4-.4zm32.3-.2c-1.2-.4-2.2-1.4-1.8-1.7.1-.1.4 0 .6.4.5.7 1.4.7 4.2.2 1-.2 2-.3 2.2-.2.6.4 0 .8-1.1.8-.6 0-1.5.2-2 .5l-1 .5zm40.7 0 .8-.2c.5 0 .7.1.6.3l-.8.2-.6-.2zm52.1-.2c0-.5 1-.8 2.8-.8 1.8 0 2.2.3 1 .8-.8.3-3.8.3-3.8 0zM.2 129.6l-.2-1.4v-1.3l.8-.1c1.9-.4 2.2 0 .5.6-.8.2-1 .4-1 .7.2.2.2.5.2.5 0 .3 5.8-.5 6.4-.8l2.1-.4c1.1-.1 2.3-.4 2.7-.6.6-.2.8-.1 1.5.4l.9.6h3.3c2.5-.1 3.3 0 3.2.2 0 .2-.9.5-1.8.7-2 .4-4.4.2-5.8-.4a3 3 0 0 0-1.7-.3h-1.2c-.2-.1-1.2 0-2.2.3a61 61 0 0 1-7.7 1.3zm101.3-1.1c-.1-.2-.5-.3-1-.3-.8 0-4.2-.9-4.2-1.1 0-.4.6-.5 1.8-.2.7.2 2.2.3 3.3.3 1.3 0 2 0 2 .2s-.2.4-.4.4l-1 .6c-.2.2-.4.3-.5 0zm54.7 0c-.2-.4.8-.8 1.7-.8.8 0 1.2.4.5.6-1 .3-2 .4-2.2.2zm-1.7-.3c0-.3 1-.6 1.3-.4v.4c-.3.3-1.3.4-1.3 0zm29-.4c-3.7-.9-4.4-1-5.5-.8-2.9.5-3 .5-2.8.1.2-.6 2.9-1.5 4.6-1.6 1.1 0 1.9-.3 2.4-.7 1-.7 2.6-.8 3.2-.2.5.5.4.7-.3.7-1 0-3.8 1-3.3 1.1.7.3 4.5 1 5.3 1 .4 0 .8.1.8.3 0 .3 0 .3-1.8.4-.7 0-2-.1-2.6-.3zm-100.9-.7c-.6-.3-1.1-.7-1.1-1 0-.4.3-.4 1.4.2l.8.5 1.6-.5 2.7-.7c1 0 1.2 0 1.2.3s-.3.4-.9.4c-.9 0-3.6.8-4 1.1-.3.3-.4.3-1.7-.3zm26.8-1c-.3-.5.3-.9 1.5-1.2 1-.3 1.6-.2 1 .3-.9.6-2.4 1.1-2.5.8zm-107-.3c-.2-.1-.7-.2-1.1 0-.6 0-.8 0-.8-.4l.2-.4h2.4l2.6-.4c.6-.4 3.3-.4 3.3-.1 0 .2-1.3.5-2.7.5-.5 0-1 .1-1.1.3l-.9.3c-.4 0-1 .2-1.1.3a1 1 0 0 1-.8 0zm111.9-.2c-.6-.6-.7-2.2-.3-2.2.2 0 .5.4.6.8.2.7.4.8 1 .7.7-.2 1 .4.4.8-.7.5-1 .5-1.7-.1zM91 125c-.2-.1-.8-.2-1.3-.1-.6.1-1.1 0-1.5-.3l-.5-.4 2.1.2c1.7.1 2.3 0 3-.3 1.2-.6 2.8-2.2 2.5-2.4-.7-.4.2-.6 2.5-.6 2 0 2.5 0 2.6.4.1.2 0 .5-.1.7-.5.6-2.2.6-2.7 0l-.3-.4-.6.5c-.5.5-1.3 1-3.2 2.3-1 .7-1.8.8-2.5.4zm11.1-.3c0-.3.7-.5 2.3-.7a44.7 44.7 0 0 0 8.3-2c.7 0 1.6-.3 2-.4.7-.2 1-.2.9 0-.2.5-3.3 1.4-7.5 2.3l-2.3.6c-2.4.5-3.7.6-3.7.2zm-98.4-.9c.1-.4.4-.5 2.3-.6 1.7 0 2 0 1.5.3-.2.2-.8.3-1.1.3l-1.7.3-1 .2zm80.8-.2c-.2-.3.4-.7 1.4-.7.4 0 1.2 0 1.7-.2 1.5-.2 1.3.4-.2.7-2.1.5-2.7.5-3 .2zm-13.6-.4c0-.3 1.8-.7 2-.4.3.2 0 .3-1 .5h-1zm59.7-.3c-.1-.2-.2-.3-.1-.4 1.4-1 2.2-1.2 2.5-.5.3.9-2 1.7-2.4.9zM1.5 122c-.4-.5.1-.8 1.3-.8.8 0 1.2.1 1.2.4 0 .5-2.2 1-2.5.4zm69.2-.1c.1-.6 1.6-1.3 2-1 .4.3.4.4 0 .7-.2.2-.7.4-1.2.5-.8.2-.9.2-.8-.2zm32.4-.4c-.1-.1.2-.5.6-.7.4-.3 1-.8 1-1.2.2-.6.5-.8.8-.7.8.1.7 1-.4 2-1 .8-1.7 1-2 .6zm37.3-.7-1.4-.8c-.2-.6.6-.7 1.5-.3 1.5.7 2 .7 3 .4 1.6-.5 2.8-.5 2.8-.1 0 1-4 1.5-6 .8zm38 0c0-.5 3.5-.9 3.9-.5.3.3-.4.5-2.1.6l-1.9-.1zM10.5 120c-.6-1.5-.5-9.1 0-9.1.1 0 .2 1.6.2 3.6 0 2.1.2 3.8.4 4.3l.3.7v-.9c.2-1.4 1-1 1 .4 0 1-.1 1.2-.4 1-.2 0-.5.1-.6.3-.2.6-.6.5-1-.3zm-2.3-.2a3 3 0 0 1 0-1.5c.2-.5.2-2.2.1-3.8v-3l.5.2c.3.3.4 1 .3 4.1 0 2.5-.2 4-.4 4.1-.2.3-.4.2-.5-.1zm104.7.2a.5.5 0 0 1-.3-.5c0-.3 1.8-.7 3.4-.7 1 0 .7.8-.4 1-2 .3-2.3.3-2.7.2zm17.7-.5-.8-.4c-1.2 0-.3-.7 1-.7 1.4-.1 1.8.1 1.4 1-.3.6-1.1.7-1.6.1zm-50.2-.1a.6.6 0 0 1-.2-.7c0-.3.6-.4 2.3-.4l2.9-.2c.8-.3 1-1 .2-1.4a1 1 0 0 1-.5-1v-.6l1.5.1c2.6.2 4.5-.7 4.3-2.1-.1-.4 0-.5 1-.5s1.3.1 1.2.5c0 .5.8.6 1.1.2l1.7-.4c1.4-.2 1.7-.3 1.9-.8.2-.5.4-.7 1.2-.7 1.1 0 1.5.7.8 1.3l-.5.3h.7c.5 0 .7.2.7.4v.4l-2.2.4c-1.2.2-3 .4-4.1.4-1.4 0-2.2.1-2.8.5-.4.3-1.5.6-2.3.8-2.5.6-2.4.5-2.2 1.5.2 1.1-.2 1.4-2.6 1.7l-2.8.4-1.3-.1zm37-.2c0-.3 0-.5.2-.6.2 0 .7-.4 1-.7 1-.8 1.2-.8 1.7-.2.3.3 1 .4 3.4.3 1.8 0 3 0 3.1.2.2.7-.8 1-3.6 1h-2.9l-.4-.5-.3-.5-.7.7c-.8.8-1.2 1-1.4.3zM7 119.3l-.2-1.8c0-.9 0-1.3-.1-1-.4 2.3-.8 1.6-1-1.4l-.3-4.5c-.1-1.9 0-2.2.3-2.4.3 0 .8 0 1.2.4.5.3 1 .5 1.2.4.3 0 .7.1 1.2.6 1 1 1 1.2-.2.7l-1.5-.4-.6-.2c-.3-.5-.6-.3-.8.4-.2.8 0 1.3.7 1.5.3.1.5.5.6 2.6.3 4.3.2 5.7-.5 5zm-.2-4.8c-.3-.3-.5.2-.3.7l.2.4.1-.5v-.6zm-.3-1.4c0-.2-.1-.2-.1.1 0 .3 0 .5.1.4v-.5zm99.9 5.8c0-.1.1-.2.4-.2.2 0 .4 0 .4.2s-.2.3-.4.3c-.3 0-.4-.1-.4-.3zm99.2.1c-.7 0-1.3-.2-1.3-.3 0-.3.2-.3 2.6-.3 2 0 3 .2 3 .6 0 .2-1.4.2-4.3 0zm6.2 0c-.2-.3.9-.9 1.6-.9.4 0 .5.5.2.7-.6.3-1.7.4-1.8.1zm-137.5-.3c0-.2 1-.5 1.6-.6.2 0 .3.2.3.4 0 .3-.3.4-1 .4-.4 0-.9 0-.9-.2zm-7.7-.8c-.3-.4 0-1 .5-1 .4 0 1 .6.8 1-.2.3-1.1.3-1.3 0zM3 116.5l-.3-2.4-.4-2.5c-.4-1-.3-2.2 0-2.2.2 0 .6.3 1 .6l.6.7-.4.3c-.3.2-.4.5-.3.8.2.7.3 5.3 0 5.3l-.2-.6zm99-1.4-.4-1c.2-.3.3-.3 1.1.1s1 .4 1.5.1c.7-.4 5.2-1.3 6-1.1.5 0 .7.2.7.6v.5h-1.5c-1.6-.2-4.2.5-4.6 1-.5.7-2 .6-2.7-.2zm22.6.1c-.2-.7-1-.8-2-.3l-1 .4-2.3-.5-3.8-.7c-2-.3-2.2-.4-1.9-.8.2-.2 1.3 0 4 .4l3.7.6 1.1-.6c.8-.4 1.3-.5 1.8-.3.8.3 1.8.3 2 0 .1-.1-.2-.5-.8-.8-.7-.5-.9-.8-.9-1.4v-.8l.6.2c.3.1 3.2.3 6.4.3l5.9.1.5-.5c.2-.3.8-.6 1.2-.6 1 0 1.2-.4.5-1.1-.6-.7-.5-1.5.2-1.5 1.2-.1 4.1 0 5.8.3 1.5.2 2.2.2 2.8 0 1-.5 1-1.3 0-1.5-.7-.2-.9-1.2-.1-1.2.7 0 2.5.7 2.6 1 0 .2-.1.4-.4.6-.3.2-.6.5-.6.9 0 1-.8 1.5-2.4 1.5-.9 0-1.8-.2-2.2-.3-.4-.2-1.3-.2-2.4-.1l-1.7.2-.2.7c0 .5-.6 1.1-1.2 1.6-1.2 1-1.2 1.4-.3 2.4l.7.8-.4.4c-.4.4-1 .5-4.1.5h-3.6V114h6l-.1-.6v-1c.4-.5-.4-.6-5.5-.4l-5 .1v.6c.3 1-1.2 3-2.1 3-.4 0-.7-.1-.8-.5zm-47.5-.2c-.3-.4.1-.6 2.3-.7h2c0 .5-.5.6-2.4.8h-2zm125.8-.3c.1-.5 1.7-1 3.6-1.1 2.4-.3 2 .4-.4.7l-2.1.5c-.3.3-1.2.2-1.1-.1zm9.2-.2c-.7-.1-.6-.7.2-.8.7-.1 1.5.4 1.2.8-.1.2-.3.2-1.4 0zm-11-2.3c-.3-.4 0-.6 1.1-.8.7 0 1.5-.2 1.8-.3l.4.1c0 .2-.5.4-1.1.6l-1.6.4h-.5zm-96.6-2-3.1-.8c-1.5-.4-2-1-.8-.9 1.7 0 4 .5 5 .8.5.3 1.1.4 1.3.3.5-.2.8.3.4.7-.4.5-.8.5-2.8-.1zm-21.4-4.6c-.2-.7-.1-5.4.1-5.6.1 0 .3.8.4 1.9.2 1.4.3 2 .6 2s.3.1.2.7c-.3 1.3-1 1.8-1.3 1zm119-2.4c.3-.3 16.6-.6 17-.3.1 0 .2.2 0 .3 0 .1-4 .2-8.7.2-5.6 0-8.5 0-8.3-.2zm-63.4-.1c-.2-.3.2-.6 1-.6l1.8-.1c1-.2 1.3-.1 1.3.2 0 .2-.3.5-.6.6-1 .2-3.3.2-3.5-.1zm-3.7-1.8-.2-.6c0-.9 2.3-1.6 6-1.9a53 53 0 0 0 5.3-.7c1.8-.3 2.6-.2 2 .4-.5.4-4.2 1.1-5.5 1.1-1.5 0-4.9.8-5.9 1.4-.9.5-1.4.6-1.7.3zm13.1-.6c-1.2-.3-.7-.7.9-.6 1.8.1 2.3.3 1.6.6-.7.2-1.7.3-2.5 0zm64.5-2c-5-.1-6.4-.4-3.6-.8 2-.2 9-.2 9.4.1.5.3.2.8-.4.8l-5.4-.2zM12.6 94.8a84 84 0 0 0 10-2.2l.4.3c0 .4-.2.5-1.2.7-.7 0-2.4.4-3.8.6-3.6.7-5.7 1-5.4.6zm202.6-.3.1-.4c.4-.2 5.5-.3 5.8 0 .8.4-.1.7-2.8.7-1.6 0-3-.2-3-.3zM13.8 91.8c0-.2.5-.3 2.1-.3l3.6-.2c1.1-.2 1.4-.1 1.4.2 0 .5-1.3.7-4.6.7-2 0-2.5 0-2.5-.4zm205.2 0c-.5-.2-.6-.6 0-.8.3-.1 2 .5 2 .8 0 .2-1.3.1-2 0zm-203-2c.7-.7 5-1 5.3-.5.2.4-.2.5-3 .6-1.8.2-2.5.1-2.2 0zm126.5-3.4c-.3-.4-.2-.5 1.4-.7 1.5-.3 2 0 1.2.6-.6.4-2.4.5-2.6 0zm-.8-5c-.3-.5 1.2-1 3.8-1.3l4-.7c2-.5 2.1-.5 2.1 0s-.3.6-1.5.8c-.8 0-1.8.3-2.2.4-.4.2-1.4.4-2.4.5l-2.7.4c-.5.1-1 0-1-.1zM19.3 78.5c0-1.2.4-2.2.6-1.6l.3 1.4c0 .8 0 1-.4 1.2-.4 0-.5-.1-.5-1zm83.6.8c-.3-.2-.4-.8-.4-2.4 0-1-.1-2.3-.3-2.6-.6-1.1-.2-6.4.6-8.2.3-.7.4-1.5.3-3.9-.3-5.9-.4-14.2-.3-20.3v-1.1l1.6-.2a54 54 0 0 1 3.9-.3c1.5 0 2.3-.2 2.3-.4s1.1-.3 3.5-.4c3.7-.2 7.6-.5 12-1l2.7-.4.6.5c.4.4.5.8.4 1.3 0 .5 0 1.3.3 2 .4 1.4.5 4 0 4 0 0-.2-.6-.2-1.3 0-1.7-.7-3.6-1.5-4l-.6-.3-.8.7c-.7.7-1.6 1-1.6.4l.2-.3 1.3-.9 1-1-3.1.2-5 .4c-1 .2-3.5.3-5.4.5-2 0-3.5.2-3.5.4s1.3.2 5.6 0c3.6-.4 8.1-.2 8.1.2 0 .1-.6.2-1.3.2l-3.1.3c-1.7.3-12.3.9-15 .8H104l-.1.6-.3 1.3c-.2 1 0 2 .6 2 .3 0 .3.3.2 1.6L104 59l-.1 9.8-.6.4c-.5.4-.6 1.4-.2 2.5.5 1.2.8 4.4.5 5l-.3.4h2c1.1 0 2 .1 2 .3 0 .1-.6.4-1.4.5-.8.2-1.5.4-1.5.6 0 .3 2.8 0 8-.7l1.4-.3h-1.5c-1-.2-1.4-.3-1.4-.6s.2-.4 1-.4c.4 0 2.4-.1 4.3-.5l6.3-.7c1.6-.1 4-.4 5.4-.7 2-.4 2.6-.4 3-.1 1.2.6 1.4 0 1.7-4 0-1 .3-2.2.5-2.7.4-.6.4-1 .2-1.6-.2-.5-.2-1.4 0-2.7.3-3 1-10.6 1.1-13.9a47 47 0 0 0-.6-14.4l-.4-1.7-1.6-.2a44.7 44.7 0 0 0-12.8.6c-.4.4.6.5 3.3.5 1.7 0 3 .1 3 .3a744 744 0 0 0-25.1 2.4c-.6 0-.8.2-.8.7 0 .3-.2 1-.4 1.3-.4.7-.4 1.2-.1 3.2a29 29 0 0 1 0 6.3c-.2 2-.3 4-.2 4.3 0 .3-.1.6-.4.6-.3 0-.4-.3-.3-1.4a66 66 0 0 0-.2-11.7l-.3-1.4.5-.5c.7-.6.7-.8.2-1.5-.2-.3-.7-.5-1.5-.5a45 45 0 0 0-8.8-1c-3-.2-4.1-.3-4.1-.6 0-.4.5-.6 1.4-.4.6 0 .7 0 .5-.4-.3-.7.4-.8 1.9-.5.7.2 3 .6 4.9.8l4.3.6.7.1.2-.9V32c-.4-1.7-.2-5.4.1-5.4l.7.4c.3.3.7.4 1.4.3l3.8-.3a105 105 0 0 0 13.1-1c1-.2 1.5-.2 1.6 0 .1.2 1.5.3 3.6.3 3.4 0 4.4 0 4.4-.5 0-.2 1-.3 2-.3h2.2l.1.6c.3.8 0 .9-1.5.8-.8 0-2.7 0-4.3.2a80.6 80.6 0 0 0-16 .6l-6.5.4c-2 0-3 0-3.1.3-.1.2-.4.3-.6.3-.3 0-.4.6-.3 3.5 0 3.6.2 4 1.2 3 .6-.4 3.1-.8 6-.9l4.2-.3 5.2-.5 10.8-1c2.7-.2 5-.2 6 0s1.3.2 1.8-.3l.5-.4-.1-2v-2c.2-.2.4-2.4.4-5 .3-9.3.9-19.6 1.3-20.5 0-.3.4-.6.6-.6.4 0 .7.7.5 1.1l-.3 9.3-.2 10.3a316 316 0 0 0 .2 39.7c-.4 0-.5-1-.7-4.3-.4-5.2-.8-6.6-.9-2.7l-.2 6-.2 3.8.5.4.5.5-.4.7c-.3.4-.4 1.2-.4 1.8.1 1.7-.1 2.6-.7 2.4l-.5-.1v3.7c-.1.2.3.3 1.1.4.7 0 1.3.2 1.3.3 0 .5-1 .8-2.3.8a783.3 783.3 0 0 0-5.4-.2c.1 0 .3-.2.3-.4 0-.3-1.1 0-1.5.5a15.8 15.8 0 0 1-7 1.2l1.5-.3c.8 0 1.4-.4 1-.6-.4-.2-8.6 1.2-8.4 1.4h1.8l2.5-.2h1l-.8.2c-1.1.4-7.2 1.3-11.5 1.7-4.2.5-3.8.5-4.3.2zm1-31.4c0-.2 0-.4-.2-.4l-.2.4c0 .2 0 .4.2.4s.3-.2.3-.4zm5.6-7c.3-.2 0-.3-.8-.3-1.5 0-2.9.3-2.9.6 0 .2 3.2 0 3.7-.3zm25.8-8a117.3 117.3 0 0 0 .7-16.6c-.2-.4-.3 1.2-.8 10.3-.2 4.5-.3 5.7-.7 6.1-.4.5-.3 1.5.3 3l.3.7.1-1.3V33zm-26 2.7c1.4-.3 1.2-.3-1.2-.4l-2.1-.1c-.5-.2-5.7.3-5.7.5 0 .3 7.3.3 9 0zm5.5-.5 1.5-.2-1.2-.1c-.7 0-1.9 0-2.7.2l-1.4.3h1.2l2.6-.2zm-101 42.4a239.2 239.2 0 0 0 .6-14.9c0-3.4.2-5.2.4-5.4.2-.2.3-.2.3.1a164 164 0 0 1-1.3 20.2zm-1.9.7c0-.4.2-.5.6-.5.3 0 .5.1.4.4-.1.7-1 .8-1 .1zm7.7-2.5c0-.5.1-.6.2-.3v.7c-.1.2-.2 0-.2-.4zm86.7-.1c-.8-.8-1.1-2.1-.6-2.2l.6.6 1.1 1.4c1 .8 1 1 .2 1-.3 0-1-.4-1.3-.8zM19.6 66c0-4.8.1-9 .2-9.5l.2-.8v1c.2 4 0 17.7-.3 18 0 0-.1-3.9 0-8.7zm105.8 8.2 1.3-1.4c.8-.7 1.4-1.5 1.4-1.8 0-.7.4-1 1.2-.9.9.1 1.2-.9 1-3.8 0-3.5.1-7.4.3-7.2 0 0 .2 2.6.2 5.7l.2 5.5-1 .7-1 .7-1.4 1.4c-1.1 1-2.2 1.7-2.2 1.1zm-113.7-.9c0-.5 0-.7.1-.4v.9l-.1-.5zm92.5-1.7c-.3-1-.3-1.2.1-1.2.6 0 1 .7.9 1.3-.3.8-.6.7-1-.1zM12 69.9c0-1 0-1.2.1-.8a7 7 0 0 1 0 1.6L12 70zm107.2-6c-.1-.1.2-.5.6-.7 1-.6 1.6-2.4 1.8-5.5l.2-2.4-.7-1.3a5 5 0 0 0-1-1.6c-.8-.4-2 .3-2 1.3-.1.5-.3.8-.6.9-.5 0-.6.3-.5 1.7 0 1.8.5 4.5.8 3.9 0-.2.1-1 0-1.6 0-.7 0-1.4.2-1.6.2-.3.3-.1.3.5 0 .5.1.8.3.8.6 0 1-.6 1-1.6 0-.8-.1-1-.4-.8-.3 0-.4 0-.4-.4 0-.5.2-.6.7-.6h.6V58l-1 1-.9.8.1 2V64c-.2 0-.5-.5-.7-1.2-.5-1.3-.8-1.5-1-.5 0 1-.6 1.1-.9.4-.2-.7.4-1.9 1-1.9.1 0 .2 0 .1-.2l-.4-2.7c-.4-3.3 0-4.7 1.3-5.6 1-.7 2-.9 2.8-.6.8.3 1.7 2.7 2 4.9.3 2.2 0 5.7-.6 6.2-.2.2-.2 0 0-1 .1-1.4-.2-1-.9 1-.3 1.2-.5 1.5-1 1.5-.4 0-.7-.2-.8-.3zm-9.7-1c-.3-.8-.3-1.3 0-1.5.3-.2.7.5.9 1.4.1 1-.5 1-.9.2zM21 62.7c0-.4.1-.5.2-.3v.6c-.1.2-.2 0-.2-.3zm120.7-2.7c0-1.2 0-5.1-.3-8.7a169.2 169.2 0 0 1 2.4-35.3c.2.2.2.9-.3 3.3a159.6 159.6 0 0 0-1.6 32.4c.4 7.7.4 9.9 0 10.3-.2.2-.3-.2-.2-2zm-120.4.3c0-.7 0-1.3.2-1.3s.3.4.1 1.2c-.2 1.7-.3 1.8-.3.1zm118.4-1.1c.4-1.2.4-2.7-.2-9a135.2 135.2 0 0 1 1.2-28.9c.1-.6.3-1 .4-.8a88.7 88.7 0 0 0-1.4 19.1c0 3.8.2 8.1.4 9.7.4 3.6.4 8.7.2 10-.2.6-.4 1-.6 1-.3 0-.3-.2 0-1.1zm-25.2.6c-.7-.3-.8-1-.2-1 .6 0 1.4.5 1.4 1 0 .3-.4.3-1.2 0zm16.1-1.6a74.3 74.3 0 0 0 1-17.3c0-1-.3-1.7-1-2-.7-.3-.9-1.2-.1-1 2 .6 1.9.4 2 4.5 0 1.8 0 4.9-.3 7.3a237.2 237.2 0 0 0-1 9c-.4.5-.7.3-.6-.5zM12 57.8c0-.2.1-.2.3-.1l.2.3h-.2c-.2 0-.3 0-.3-.2zm101-.4-.2-.7c0-.6.7-.6.9 0 .2.3-.4 1-.7.7zm30.9-.8c.3-1.2.6-8.5.3-10.4-.3-3.2 0-17.8.6-24.5.4-4.6.6-5.4.9-5.4a215.2 215.2 0 0 0-.9 27c0 10-.1 13.2-.8 13.8-.2.3-.2.1-.1-.5zM12.4 53c0-.4 1.3-.6 2.9-.6 1.8 0 1 .4-1 .6-1.2.2-1.9.1-1.9 0zm124.2-1.5.2-1c0-.3.1-.5.3-.5.4 0 .2 1.6-.3 1.8-.2 0-.3 0-.2-.3zm10-4c.4-.8.7-2.6.9-3.9.3-2.7.6-10.9.7-17.5 0-7 .2-11 .5-11 .2 0 .1 20-.1 23.1-.4 5.2-1.1 8.8-1.8 9.5-.2.2-.2.1-.1-.2zm-9.7-1.8v-.8 1.7-.9zm-31.2.4-.7-1c0-.7 1-2 1.4-2 .5 0 .8 1.2.4 2-.2.4-.1.8 0 1 .3.3.2.7-.2.7l-.9-.7zM3.6 45c-.4-.3-.4-.5-.2-.8.2-.2.6-.4 1-.4.3 0 1-.1 1.3-.3 1-.5 1 0 0 1s-1.3 1-2.1.5zm123.4-.3c-.3-.2-.9-.6-1.4-.7-1.2-.4-1.3-.8-.3-1 1 0 2.8 1.4 2.4 1.8-.2.2-.4.2-.7-.1zm39.2-1.8a1 1 0 0 1-.3-.6c0-.4 1-1 1.1-.7.1 0 .5 0 .8-.2l.7-.3.8.6c.7.5.9 1.2.3 1.3-.8.2-3.2.1-3.4-.1zm-29.4-.6c0-.4.1-.5.2-.3v.8c-.1.2-.2 0-.2-.5zm14.4-1.5V40a7 7 0 0 1 0 1.6v-.8zm1.5-.3c0-.4 0-.6.1-.3.1.2.1.6 0 .8v-.5zm13.6.2c-.3-.5.4-2 .8-2 .6 0 .7 1.4.2 2-.5.6-.8.6-1 0zm-12.6-1c-.2-.4 0-2.5.3-2.5.2 0 .2.5.1 1.2-.2 1.4-.3 1.6-.4 1.2zM10.4 38.3c-.8-.6-.8-1 0-.8 1 .2 1-.2.7-3.4-.2-1.6-.3-5.6-.3-9.6 0-3.8 0-8-.2-9.4-.3-2.6-.4-11-.1-11.3.6-.7.8 3 1 19.8 0 4.9.3 9.7.4 10.8.4 2.7.3 4.1-.4 4.2-.3 0-.8-.1-1.1-.3zm140.6 0c-.1-.3 0-.6 0-.8.3-.2.3 0 .3.5 0 .8 0 .9-.3.2zm1.3-3.7c-.2-3.4 0-7.5.3-7.7.1 0 .2 2.5.2 5.6 0 3 0 5.6-.2 5.6l-.3-3.5zm-15.5 2.6c0-.4.1-.6.2-.3v.8c-.1.2-.2 0-.2-.5zm-12.4-.2c.2-.4 2.4-.4 2.5 0 .1.2-.3.3-1.2.3-1 0-1.4 0-1.3-.3zm40.3 0c-.2-.6.8-1.8 1.5-1.8.6 0 .6.6 0 1.4-.7.8-1.3 1-1.5.3zm3.7-.2c-.5-.5-.4-1.3.2-1.3.5 0 1.3.9 1.3 1.4 0 .6-1 .6-1.5 0zm-17.5-.7c-.4-1.7-.2-20.2.3-23 .3-1.6.8-1 .6.6a242.3 242.3 0 0 0-.6 23.1l-.3-.7zm25.7-3-1.6-1.7-.9-.8.2-.8.2-.8h1c1.8.2 3 2.1 2.6 4.7l-.4.3c-.2 0-.7-.2-1.1-.8zm-84.7.1c-.7-.3-.3-.6.7-.6 1.7 0 4.2.3 4.2.5 0 .3-4.3.3-5 .1zm107.5-.5-.2-2a59.5 59.5 0 0 0-.2-6.2c.3-.2.7 3.7.7 6 0 2.4 0 2.5-.3 2.2zM36.7 31.4c-1-.6-2.3-2.3-2.9-4-.1-.5-.3-2-.3-3.2 0-2 0-2.5.7-3.8.4-.8.8-1.5 1-1.4 0 .1 0 .5-.2.8A9 9 0 0 0 34 24c0 1.5.2 2.2.9 3.7 1 2.4 1.3 2.8 2.8 3.4l1 .6c0 .4-1.2.1-2-.3zm134.8-.7c-1.1-1-1.4-2-.7-2.2.3 0 2.5 2.9 2.5 3.3 0 .4-.9-.1-1.8-1zm25 .6a86 86 0 0 1-.6-7V22l.3 2.3c.4 3 .8 7.3.5 7.3 0 0-.2-.1-.2-.3zm-183-4c0-1.3.1-1.7.3-1.4.3.8.3 3.3 0 3.3-.2 0-.3-.8-.3-1.9zM38.2 29c-.6-.7-.9-2.2-.9-4.2 0-1.1.1-2 .2-2s.2.9.2 2c0 1.6.1 2.3.6 3.2l.6 1.2c0 .3-.5.1-.7-.2zm153.3-4.4c0-9.8 0-10.4.2-10.5.2 0 .3.5.3 1.8a471 471 0 0 0 0 11.2c0 .6 0 1.2-.2 1.4-.1.3-.2-1-.3-4zm-3.8-4.8c0-5 .1-7.8.3-7.9.2 0 .3 1.9.3 5 .1 5.3-.1 10.6-.4 10.6-.1 0-.2-3.5-.2-7.7zm-97.9 7c-1.1 0-1.9-.3-2-.5-.2-.2-.7-.4-1.1-.4-.5 0-.9-.3-1-.5 0-.3.3-.3 1.6-.2 2.5.3 11.3.2 17.3-.2 1.6-.2 2.3-.1 2.2 0-.2.2-3 .5-6.3.8a98 98 0 0 0-5.6.6c.4 0 .6.2.6.3 0 .3-1.6.3-5.7 0zM15.2 26l.1-1.4c.4-1.5.5-8.1.2-11-.2-2.7-.3-5.9 0-6 .4-.6.6.8.8 5.8 0 3.2 0 7.1-.2 9-.3 3.3-.5 4.2-.9 3.6zm93-1.4c1.6-.3 7.1-.2 7.3 0 0 .2-1.7.3-4.2.3-3 0-4-.1-3-.3zm76.2-5.8-.1-6.8c0-.7.1-1.2.3-1.3.3-.1.3 1.4.3 6.8 0 4.4 0 6.9-.2 6.9s-.3-2-.3-5.6zM102 24c.6-.3 1.9-.3 1.9 0 0 .2-.5.3-1.1.3-.9 0-1 0-.8-.2zm2.4 0a9 9 0 0 1 2.6-.3c2.4-.1 3 0 2.7.2-.2.2-5.3.3-5.3.2zm-26 0 .6-1.2c1.3-2.6 1.7-3.8 1.7-5.5 0-1.9-.6-3.6-1.5-4.3-.6-.5-.6-1.1 0-1.1.8 0 2.2 2.9 2.2 4.6 0 1.8-1.2 5.7-2.2 6.8l-.7.7zm36-.2-1.7-.1 2-.3h2.1c.4.2.1.7-.3.6l-2-.2zm84.2-.3c0-.3.1-.5.3-.5.1 0 .2.2.2.5s0 .6-.2.6-.3-.3-.3-.6zm-87.6.1h1l-.6.1c-.6 0-.8 0-.4-.1zm-72.3-2c.7-5.6.7-5.7 2-8 .7-1 1.3-1.5 1.3-1l-1 2c-.6 1.2-.9 2.1-1 3.6-.1 1.1-.3 2-.5 2.2-.2.1-.4.6-.6 1.2l-.4 1zm61 .3-.2-.2c.9-.2 13.6 0 13.8.3.3.2-12.8.2-13.5 0zm80-2v-3.4c-.2-2.6.2-3.7.4-1.4.3 2.7.3 6.3 0 6.3-.2 0-.3-.7-.3-1.5zm-74.5 1 .7-2.5c1.2-4 1.4-9.3.4-10.3-.3-.4-.6-.8-.6-1.1 0-.3-.3-1.1-.8-2-1.4-2.4-.7-3.7.8-1.5 1.2 1.8 2 5.3 1.8 8-.3 4.2-1.2 8.7-1.9 9.3-.3.3-.4.4-.4.1zm93.4-.5c0-.5.1-.8.3-.8.3 0 .3.8 0 1.3-.2.3-.3.2-.3-.5zm-91.5 0c-.2-.2.4-.3 1.5-.4 2-.2 3.7 0 3.7.4 0 .3-4.7.3-5.2 0zm3.2-2c-.2-.2-.3-.3-.3-.5 0-.3 2.8-.3 3 0 .1.2-.2.3-.7.3l-1.3.1h-.7zm66.2-.2c-.2-.3.1-4.2.4-4.3.2-.2 0 4.3-.1 4.5 0 0-.2 0-.3-.2zm-152.2-.3c-.1-.5.4-1.3 1-1.3.5 0 .3 1.5-.3 1.6a.6.6 0 0 1-.7-.3zm78.8-1.4c-.1-.5 0-1.6.2-1.8.3-.5.3-2.7 0-5.5-.1-1.9-.4-3-1.3-5-1-2.7-1.2-3.3-.8-3.6.4-.2 1.1 1.4 2 4 1.1 3.3 1.3 10.4.3 11.7-.2.3-.4.4-.4.2zM64.6 16c0-.1 0-.3.2-.3s.2.2.2.3l-.3.3-.1-.3zM28 15.5c-.5-.4 2.1-2.8 4-3.7.8-.3 2.1-1 3-1.6 1.8-1.1 4.6-2.4 5.3-2.4.3 0 .8.1 1 .3l.4.2-.4.3-.7.3-1.9.7-2.7 1.2c-2.6 1.1-4 2-5.4 3.2-2 1.7-2.1 1.8-2.6 1.5zm14.6-.3c.2-.3.5-.4.5 0 0 0 0 .2-.3.2-.1.1-.2 0-.2-.2zm-16.3-1c-1 0-1.2-.5-1.2-3.1 0-1.5 0-2-.3-2s-.4-.6-.4-3.2c0-2.8 0-3.4-.4-4.1-.4-.7-.5-1-.3-1.2.3-.2.4-.2.7 0 .4.3.5.3.6-.2.1-.4.3-.5.5-.3.1.2.3 2.5.3 6.1 0 6.7.2 7 1.6 5.5 1-1 1.1-1.4.4-1.7l-.5-.3-.1-3.9c-.2-2.1-.2-4 0-4 .3-.5.6.9.6 3.7 0 2.2 0 3.1.3 3.3.3.3.5.2.7 0 .2-.3.6-.5.8-.5.3 0 .6-.1.8-.3.5-.5 1.4.6 1.4 1.8 0 .8-.2 1.2-1.3 2.2-1.6 1.5-3.1 2.3-4.2 2.2zm4-4.2c0-.1-.3 0-.4.2-.4.6-.3 1 .2.5.2-.3.3-.6.2-.7zM68 12.7c.2-.6.6-1.2.8-1.3l1-1.5a5 5 0 0 0 .5-3c0-1-.3-2.2-.5-2.7l-.3-1c.7-.8 1.8 2.4 1.6 4.3-.1 1 0 1.1.2.8.1-.3.2-.7.1-.9 0-.2 0-.4.3-.4 1.1 0 0 2.4-2.6 5l-1.5 1.8zM53.6 12c-.1-.3 0-.8.5-1.3 1.1-1.3 2-3.4 2.2-5 0-.9.2-1.3.5-1.3.2 0 .4.4.4 1.3 0 1-.3 1.7-1.1 3.3-.6 1.2-1.4 2.4-1.7 2.8l-.7.6zm11.2.2.3-.7c.5-1 .8-4.2.5-5.5-.3-1.2-.1-1.8.6-1.5.9.4.7 4.2-.3 6.6-.3.7-.7 1.2-.8 1.2l-.3-.1zm-5.3-1.5L60 9c1-4 0-7.9-2.2-7.4-.8.1-1.7-.3-1.5-.7.3-.3 2.3-.3 3 .1 1 .5 2.2 3 2.2 4.4 0 1.2-1 4.6-1.6 5.1-.1.2-.3.3-.3.2zM50 6.4c-.3-1.5-1.6-3.3-2.6-3.5-1-.2-1-.5 0-.7 1-.2 1.4 0 2.4 1.6.8 1.3 1 2 .6 3-.2.5-.2.4-.4-.4zM50 2c0-.7 3.1-1.5 4.3-1 1.3.4.9.7-.7.6h-1.8c-.5.5-1.8.7-1.8.4z"/>
</svg>
