<?xml version="1.0" encoding="utf-8"?>
<svg xmlns="http://www.w3.org/2000/svg" xmlns:svg="http://www.w3.org/2000/svg" version="1.1" viewBox="0 0 231 96">
  <title>Mr. Bouncer stands outside the burrow, that is sheltering four little rabbit-babies.</title>
  <path d="M15.7 95.3c0-.1-3.3-.2-7.2-.2-4.9 0-7.2 0-7.6-.3-.4-.3-.5-.7-.4-3.7 0-2.3 0-3.1.2-2.6.1.6.2-.7.2-3.1 0-2.9 0-4-.2-3.5-.2.4-.3.6-.4.5-.2-.2-.3-7.8 0-8l.1 1.1c0 .8.1 1.4.3 1.4.1 0 .2-1.2.2-2.7 0-2.7 0-3-.5-1.5-.2 1-.2 0-.3-6.1 0-8.4 0-9 .5-9 .3 0 .4-.3.4-1.2 0-1-.1-1.2-.4-1.1H0a326.1 326.1 0 0 0 1.2-21.7c.2-2.2.3-7.4.4-11.6.1-9.4.6-19.8 1-21l.3-.9L14 .2c6.2 0 11.3.2 11.5.3.5.4 3.8.3 9.3-.2C38 0 40.5-.1 42.5 0c4.8.3 6.3.3 22 .3h28.3a1367.7 1367.7 0 0 0 47 0h15.6c4.9-.2 71.4-.3 72.7-.2.2 0 .7.5 1 1 .8 1 .8 1.3.9 4.8a469.4 469.4 0 0 0 .5 16.4l-.1 3.4v20.4a507.6 507.6 0 0 1-.7 41.5c0 4.3 0 4.9-.4 5.6-1 1.6-.6 1.6-12.7 1.2-13-.3-18.9-.3-41.8 0-18.2.3-30.8.3-44.7.2-7-.1-28.4 0-45.4.3h-29a7177.2 7177.2 0 0 0-40 .3zm66.3-3c.2-.2.2-.3-.1-.3-.6 0-.9-.5-.5-1 .3-.3.6-.3 1.4-.2.8.1 1.3 0 2.7-.6.9-.5 2.7-1.2 4-1.6 2.3-.8 2.4-.8 2.5-1.8l.1-1c0-.2-2 .9-2.3 1.2l-1 .2c-.4 0-1 .2-1.3.5-.4.3-1.6.7-2.7 1-2.5.6-3.9 1.3-4.2 2-.1.4-.5.8-.7.9-.3 0-.7.4-1 .6-.4.5-.4.5 1.2.4a5 5 0 0 0 2-.3zm36.8.1c-.2-.5-.9-.7-.9-.3 0 .3.4.6.9.7v-.4zm-78.7-.1c0-.2-2.4-1.4-3-1.4l-.2.4c0 .3.3.4.6.4.4 0 1 .2 1.3.4.8.5 1.3.5 1.3.2zm60.8-.4c.5-.9.3-1.2-1-1.2s-2.4-.5-2.3-.9c0-.2.7-.3 2-.2 2.4 0 2.6-.4.4-1.5-1.6-.7-2.8-.7-4.7 0-1 .5-1.2.9-.3 1.1.3.1.9.5 1.2 1 .4.5.8.7 1.4.7.7 0 .7.1.6.6-.4 1.2 2 1.5 2.7.4zm15.6-.2c-.6-.6-1.7-.9-2.2-.5-.5.4-.2.7 1.1 1 1.3.3 1.6.1 1-.5zm-62.8.1c.6-.2 1-.4.9-.5-.2-.2-2 .4-2.2.7-.2.4.2.3 1.3-.2zm54.8 0c.5-.4 1.2-1.5 1.2-2 0-.6-.5-.4-1.7.7-1 .9-1.1.9-2.2-.1-.5-.4-1-.8-1.2-.8a4 4 0 0 0-1.2.7c-1 .7-1 .7-.3 1h1.4c.5 0 1.4 0 2 .3 1.4.4 1.7.4 2 .2zm82-.4c1.3-.3 1.9-.5 1.8-.7 0-.2.1-.3.4-.2 1.3.3 3.3.5 3.1.2 0-.2-.7-.3-1.4-.3-1.6 0-2-.3-.8-.8 1-.4 7.3-.1 9 .5.6.2 2.1.4 3.3.5l6 .4c8.5.6 9 .6 11.6-.4 1.4-.5 1.7-.9 2.5-2.5.9-1.8 1.4-4.8 1.4-7.5v-2l-1.2-.6-2.4-.8c-1.3-.3-1.6-.5-1.2-.9.2-.2.8-.2 2 0 2.7.6 3 .6 3-.3.2-1-.3-1.5-1.4-1.5a5 5 0 0 1-1.8-.4c-.7-.3-1.3-.4-2.7-.2h-3c-2.4 0-4.1 0-6.1.2-1.7.2-2 .1-2-.2a50.8 50.8 0 0 1 15.2-.9c1.7.3 1.7.2 1.8-4.5v-4.2l-1.6-.1-3.8-.3-2.2-.2-.1 1a4 4 0 0 1-1 2c-.4.4-1 1-1.3 1.5-.3.4-1 1-1.5 1.2l-1.4.6c-1 .7-3.1 1.6-4.1 1.9-1 .3-1.2.4-1 1 0 .7 0 .7-1.6.8-1.3.1-3 .7-2.5.8l1.6.4c1 .2 1.4.4 1.4.7 0 .4-1 .5-6.8.2-2.9-.1-3.6 0-4.3.3-.6.3-1.7.4-5 .4-2.2 0-4.1 0-4.1-.2l-1.5-.3c-2.6-.4-2-1.7.8-1.7 1.3 0 1.6 0 1.7.5.1.5.3.5 1.3.4 2-.3 2-.5-.1-1.3a18 18 0 0 1-2.8-1.3c-.8-.6-1.1-.5-3.2 1.2l-1.7 1.3a10 10 0 0 1-3-.7c-1.7-.6-3.3-1-4-1-.7 0-1.6-.1-2-.3-.4-.2-2-.4-3.6-.5l-2.8-.2-1.4 1c-2.6 2-2.5 2-6.3 2-4 .2-4.6.1-4.8-.6-.1-.3-.5-.6-1.2-.7-.5-.1-1.2-.5-1.5-.8-.2-.3-.8-.7-1.3-.8-.5 0-1-.3-1-.5-.1-.2-.6-.4-1.2-.5-3-.5-3.8-.7-4.7-1.2l-1.5-.5c-1 0-2.4-.6-2.4-1s-.4-.6-1.7-.8c-2-.4-2.5-.2-2.3.7.2.7-.6 1-1.6.6-2.5-1-6.9-1.3-10.6-1-1.5.2-1.7.3-1.3.5.6.5 2.7 1 4 1 .7 0 .9 0 .8.4-.1.4-.4.5-2 .4-1 0-2-.2-2.5-.4-.5-.3-1.1-.4-1.5-.4-1.5 0-2.8-.4-2.9-.8 0-.3-.7-.7-1.5-1-2.2-.9-2.5-1-3.1-.5-.8.6-1.3.5-2.6-.4-1.3-.8-3-1.3-3-.8l.7.7c.4.2.7.5.7.7l.4.7c.7.6 0 1-1 .5l-.7-.4-1 1.2c-.5.6-1.1 1.1-1.3 1.1-.2 0-.6.3-1 .7-.4.6-.6.6-1.2.3-.8-.4-2.9-.7-3-.5-.1.1 0 .7.1 1.2.3.8.4 1 .9.8 1-.3 1.8-.2 3.1.5 1.2.5 1.3.5 1.6.2 0-.3.7-.6 1.4-.7a8 8 0 0 0 2.2-.7 5 5 0 0 1 2-.5c.6 0 1.3 0 1.5-.2.6-.4-1-.8-2.6-.8-1.4 0-2-.2-2-1 0-.5.4-.5 3-.3 4.3.3 5.5 1.4 3.5 3.1-.9.8-.9.9-.5 1.3.2.3.4.7.4 1 0 .2.1.4.3.4.4 0 1.7-.7 2-1 .2-.4 4.9-.4 10.4 0 5.2.3 6.9.6 7.2 1.4.2.6.7 1 1.6 1 .3 0 .8 0 1.2.3 1 .5 3 .8 3 .4 0-.1-.3-.3-.7-.3-.6 0-.8-.2-.8-.6 0-.5.2-.6 1.2-.6 1.4-.1 2.1.4 2.1 1.5 0 1.3-.5 1.7-2.2 1.5-.9 0-2.2-.4-3-.7-.7-.3-1.6-.5-2-.5-.2 0-.8-.4-1.2-.9-.7-.8-.8-.8-1.4-.4-.9.7-1.5.6-1.5-.2s-.8-1-1.4-.5c-.2.2-1 .5-1.5.6-.9 0-1.1 0-1.3-.3-.1-.4-.3-.5-1-.3-.6 0-1.3.3-1.7.5l-1.7.5c-1.4.3-1.4.6.1.8.7.1 2.2.6 3.3 1.2 1 .6 2.5 1.1 3.3 1.2l1.5.4c0 .2.5.5 1 .7a13 13 0 0 1 2.7 2c1.6 1.6 1.8 1.7 2.4 1.5.5-.2.8-.2 1.6.1.8.4 1.4 1.1 1 1.4 0 0-.4 0-.8-.3l-1.1-.4c-.6 0-.4.5.4.8.4.2.9.6 1 1 .5 1 1.9 1 2.8 0 1-.9 1.9-1 2.7 0 .9.8.9 1.4 0 2.2-.5.5-.8.6-2.1.5a19 19 0 0 1-3.6-.9l-2-.7.1.6c.1.3 0 .6-.6 1-.3.2-.6.4-.5.5.3.3 3.8.6 6 .5a481.5 481.5 0 0 1 26 .1c-.3-.3-2.7-.5-9.4-.6-3.7-.1-4.4-.3-4-.8.2-.2 1.3-.3 4.2-.1l12.7.2c4.9 0 8.8.2 8.8.3 0 .5-1.2.7-4.9.9-2.2 0-4 .2-4.2.3-.8.5 15.9.5 19 0zm23.3-.7c-3.8-.3-3.5-.3-3.5-.6 0-.1 1.1-.2 3-.2 3.3 0 5.3.2 5.3.6 0 .4-1.1.4-4.8.2zM159.5 87c0-.4 1-.7 1.2-.4.2.4-.2.8-.7.8-.3 0-.5-.2-.5-.4zM141.2 86c-.5-.4-.6-.6-.4-.8.3-.2.5-.2 1 .1l1.2.4c.5 0 .6.1.3.4-.4.6-1.4.5-2.1 0zm1.7-1c0-.2.1-.4.4-.6.7-.4.8-.3.8.3 0 .5-.9.7-1.2.3zm2-.5c-.4-.1-.5-.3-.5-.8 0-.7 0-.7-1.4-.5-1 0-1.5 0-1.8-.3-.6-.5-1.5-.2-1 .4.1.2.5.3.8.3.8 0 .4.7-.5.8-1 0-1.7-.5-1.7-1.5s2-1.6 3-.7c.4.3.6.3 1.2-.1.7-.4.8-.4 1.6 0 .6.3 1 .4 1.2.2.4-.3.8 0 1 .6.3.7 2.9.4 2.9-.3 0-.2-.4-.3-.8-.4-.5-.1-.8-.4-.8-.6 0-.4.3-.4 2.8-.3 3.5.2 8.9 1 9.2 1.3.6.6-.3.8-2.3.5-1.8-.2-2-.2-2.5.4-.8.8-2.8 1-2.7.2 0-.3.4-.5.7-.6.7 0 .8-.5.1-.5l-1.4-.2c-1-.2-1-.2-1 .7 0 .7-.2.9-.9 1.2-.8.3-3.7.4-5.1.2zm40-.4c-1.3-.4-1.9-.9-1.5-1.3.2-.2.8-.1 1.8.1 1.8.5 1.9.6 1.7 1.1-.2.5-.4.5-2 0zm-8.6-.9-2.6-.6c-2.2-.5-2.3-.6-2.3-1 0-.7.6-.7 3.7 0 3.5.9 3.8 1 3.6 1.6-.2.5-1 .5-2.4 0zm-16-1c-1-.2-1.5-.5-1.6-.8 0-.3.1-.4 1.3-.3 4.1.5 4.3.5 4.3 1 0 .4-2 .5-4 .1zm4.6-.4c-.4-.6.2-.8 1.7-.8 1.4 0 1.6 0 1.5.4 0 .4-.4.5-1.6.6-.8 0-1.5 0-1.6-.2zm52.6-5.6c-1-.2-1.2-1-.1-1 1 0 2.1.5 2.1 1 0 .3-.6.3-2 0zM27.7 91.4c0-.3-1.4-.9-2.8-1.1l-1.7-.7c-.4-.3-1.5-.6-2.4-.8-1.9-.3-8.2-.3-9.8 0l-1 .1 1.2.2c3 .6 4.2.8 6.8 1 4 .5 6.8 1 7.1 1.3.4.4 2.6.4 2.6 0zm63.2-.2c-.5-.3-4.2-.3-4.7 0-.3.2.4.2 2.3.2 1.7 0 2.6 0 2.4-.2zm31.5 0-.1-.3-.3.3.1.3c.2 0 .3-.2.3-.3zm7.3-.2.7-1c.2-.9.9-1 2.2-.7.7.2 1.5.5 1.8.8.4.4.5.4.9 0 .5-.6.2-1-1.1-1.7-1-.5-1.2-.9-1-1.4.1-.7-3.3-2.3-4.4-2l-1-.1c0-.2-.5-.3-1-.3L125 84c-1.6-.8-3.1-.8-3.1-.2 0 .6-.7.7-1.3 0-.6-.7-1.4-.9-1.4-.3l-.1.8c-.2.4 0 .4 1.1.4 1.5 0 4.4.6 5.5 1.2.8.3.9 1 .3 2.2-.5 1-1 1.2-1.9.9-1-.4-1.7-.3-1.7.1 0 .2.4.5 1 .7 1.3.3 1.8.3 2.5 0 .6-.5 1.4-.1 1.5.7.2 1 1.4 1.2 2.3.4zm-11.9-.1c0-.2-.3-.4-.6-.5-.4 0-.4 0-.1.4.4.5.9.5.7 0zM10 90.4c-1-.4-3.6-1-2.8-.6.2 0 .4.3.4.5 0 .3.8.5 2.6.6h1zm34.8.3c.2 0 .3-.2.2-.3-.2-.3-3-.4-3 0 0 .3 1.2.5 2 .4l.8-.1zm13.9-.3c.4-.2 1-.2 1.2-.1.7.2 1-.3.5-.7-.4-.3-.8-.2-2.4.3l-2.1.8c-.4.3 1.8 0 2.8-.3zm5.6.3c.1-.2.6-.2 1-.1.5 0 1 0 1.4-.3.4-.3.4-.4.2-1-.6-1-3-1.4-4.4-.6l-.7.3.9 1c.8 1 1.3 1.1 1.6.7zm14.4-.4.8-.8s-.4-.2-1-.2c-1 0-1 0-1 .8 0 1 0 1 1.2.2zm42.8-.2c0-.1 0-.4-.4-.7-.7-.5-.7-1.5 0-2 .3 0 1.2-.2 2-.1 2 0 2.2-.5.2-1-2.5-.7-5.2-1-5.8-.5l-1 .4c-.5 0-1.7 1.3-1.9 2.3-.1.7 0 .8.7 1.3 1.2.7 1.4.7 1 0-.6-.8-.2-1.4 1.3-2 1-.5 1.4-.5 1.8-.3 1 .4.6.9-.7 1-1.3.3-2 .8-1.1 1 .3 0 1 .4 1.7.8 1.1.6 1.8.5 2.2-.2zm-87.7.3-1-.8c-.8-.3-1.1-.7-1.1-1 0-.3-.3-.6-.6-.7-.7-.2-.6-.8.2-1.4.5-.3 1.3-.5 2.3-.5 1.4 0 1.8-.1 2.7-.8.8-.5 1.2-1 1.2-1.3 0-.6 0-.6-2 .3l-2.2 1c-.3 0-3 1.3-4.3 2.2-.6.4-1.2.6-1.5.5-.5-.2-2.2 0-2.2.4 0 0 1.2.4 2.5.6 1.4.3 3.1.8 3.8 1.1 1.4.7 2.2.8 2.2.4zm58.6-.7c-.5-.7-.6-.7-1.6-.3-1 .4-.4.8 1.5 1 .5 0 .5 0 0-.7zm-51.1 0c.4-.6 6.8-.6 8 0 1 .5 1.7.6 1.7.2l-.6-1c-.3-.3-.5-.8-.4-1 0-.2-.5-.6-1.5-1.2-1.6-.8-2.3-1-2.7-.6 0 .1-1.7.2-3.6.2-4.1 0-5.4.3-5.1.9l.3 1c.3.8.5.8 2.1 0 .9-.3 2.4-.9 3.5-1 3.5-.8 6.7 0 5.6 1.2-.2.2-.7.4-1.1.4-.6 0-.8-.1-.8-.6s0-.5-2-.4c-3.2.3-6.6 1.7-5 2.2 1 .2 1.3.1 1.6-.3zm34.4-.4c1.6-1.2 2-2 1-2-.4 0-.5 0-.4.5.2.7-.3 1-1.8 1-.7 0-1.3.1-1.4.3-.1.1-.6.2-1 0-.6 0-1 0-1.1.2-.2.3.3.5 1.8.7 1.7.2 2 .1 3-.7zm-22.1-.8c.5-.4.8-.8.7-1-.2-.1-2.1-.2-2.4 0 0 0 0 .2.2.3.3.2.3.3 0 .7-.4.7-.4.8.1.8.3 0 .9-.3 1.4-.8zM7 87.8c.8-.3 4.6-1.3 5.9-1.5 2.2-.3 3-.6 3-1.3 0-.5.3-.7 1.4-1L20 83c1.6-.6 8.4-.6 9.6 0 .7.4.7.4.7-.2 0-.8.6-1.2.9-.6.3.6 1 .5 1-.1 0-.3-.2-.5-.4-.5-.5 0-.7-.8-.2-1 .5-.3.2-.9-.5-.9-.4 0-.5-.2-.5-1.3 0-1.5.4-2.7.9-2.6l.4.8c.1 1.1.2 1.3.8 1 .9-.5 1.2-1.7.8-3.5-.5-2-.7-2.2-2.1-1.8-1.1.3-3 1.9-3 2.6l1 1.5c1 1.4 1 1.5.5 1.5-.2 0-.5.3-.6.6-.2.4-.4.7-.6.7l-.2.4c0 .4.4.5 1 .5 1.2 0 1.7.8 1 1.4-.4.3-1 .4-2.6.2-1.1 0-2.3-.3-2.7-.4-.4-.3-2.8-.4-7.6-.5a43.6 43.6 0 0 0-12 1c-.6 0-.7.2-.7 2.7 0 2.3.1 2.7.6 3.2.3.3.6.5.7.4l.9-.4zm75.6 0c1.1-.8 3.5-1.6 4.6-1.6 1.1 0 1.5-.4.8-1.1-.5-.6-1.5-.7-1.3-.1.2.6-.7 1-1.7.6-.9-.2-2 0-2.5.3l-1.5.4c-1.7.2-1.7 1-.1 1.6 1 .4 1 .4 1.7 0zm30.2-.4c0-1.2-.3-1.5-1.5-1.8a6 6 0 0 0-3.5 0l-.7.3.6.6c.5.3.9.4 1.5.3.9-.2 1-.1 1.1.7.2.7.2.8 1.3.8 1.2 0 1.2 0 1.2-.9zm-78.3 0c0-.3-.3-.4-1-.4-1 0-1.2.4-.2.6l1 .1s.2-.1.2-.3zm35.7-.4a5 5 0 0 1 1.8-.6c.5 0 .8 0 .8-.2 0-.6-.3-1-.7-1a.4.4 0 0 1-.3-.5c0-.4-.6-.7-1.9-.7-1 0-1 .1-1 .7 0 .8-.6.9-2 .3-2.3-.8-6.5-1.3-6.5-.7 0 .2 0 .3.2.3l1 1.2.7 1.2h2.7c1.6-.1 2.9 0 3.2.2.7.4.8.4 2-.2zm32.9 0c.2-.3.8-.6 1.2-.7.5 0 .8-.3.9-.7 0-.4.2-.6.7-.7 1.2-.1 1.9-.3 1.9-.6 0-.2-2.6-.8-3.5-.8-.4 0-1 1-1.4 2.5-.1.3-.4.4-.9.4-.9-.1-1.1.5-.3.8.9.4.9.3 1.4-.2zm-74.7-1.4 1-.7c0-.3-1.6-.9-2.4-.8-.3 0-.5 0-.3.1.3.1.5 1.2.2 1.2l-1.7-.4a8 8 0 0 0-2-.4c-.6.1 2.6 1.3 4 1.5l1.2-.5zm23.4.2v-1c-.2-.8-1.5-1.2-2.6-.8-1 .4-.9 1 .3 1.3.6.2 1.1.5 1.1.6 0 .4 1 .3 1.2-.1zm27.9-.3c.8.2.9.1.7-.2l-.2-.7c0-.1-.4-.4-.9-.6-.5-.3-1-.6-1-.8 0-.4-2 0-2.4.4a1 1 0 0 1-.7.4c-.8 0-.6.5.6 1.2.9.5 1.3.6 2 .4h1.9zm22.8-1.6c.3-1 .6-1.4 1.8-2.2 1.7-1 3.3-1.2 3.8-.4.9 1.1 1.1 1.4 1.8 1.5.6.2.8.1.8-.3 0-.2.1-.6.3-.8.3-.3 0-.8-.6-.8-.2 0-.7-.3-1-.6-.6-.7-.1-1.1.8-.8.7.3.7.3.7-.5 0-.4-.1-.8-.3-.8-.8 0-1.5.4-1.5.7 0 .4-1.2 1.1-1.5.8l-.2-1.5c0-1.3-.1-1.4-.8-1.5-.6 0-.7 0-.7.7 0 .9-.5 1.4-.8.8-.4-.6-.3-1.5.2-1.6.3 0-.3-.5-1.6-1.1-1.6-.8-2.2-1-2.3-.7l-.3.6s-.2.2-.5.2c-.7 0-1-.7-.5-1.2.4-.5 0-1.4-.9-2.4-.8-.9-.8-1.7 0-1.7.6 0 .4-.5-1.1-2-.8-.8-1.5-1.7-1.5-2 0-.3-.6-.9-2-1.7-1.4-.8-2.2-1.4-2.2-1.7 0-.6-1.5-1-4.4-1.3-1.8-.2-2-.2-2-.7 0-.4-.3-.5-1.3-.6-.6 0-2 0-3 .3l-2.8.5c-.6 0-1 .2-1 .5 0 .4.6.4 3.3.2 1.3 0 1.3 0 1.2.7 0 .8 0 .8 3 .2 1-.2 1.2.3.6 1-.3.2-.1.3.7.1 3-.4 3.9-.4 3.9-.2 0 .4-.6.8-1.2 1-.3 0-.6.2-.6.3-.1.3.3.4 1.9.2 1.9-.2 2-.1 2 .4 0 .3-.2.7-.5 1-.3.3-.3.4 0 .6.2.2.6.3 1 .3s.5.1.5.7c0 1.4-1 1.7-1.5.5-.2-.4-.6-.6-1.5-.8-1.4-.3-1.8-.8-.9-1.2.5-.2.3-.3-1-.2-1.5 0-1.5 0-1.5-.6 0-.7 0-.7-1.8-.9-1 0-2-.2-2-.4-.2-.2-1-.3-1.9-.3-1.5 0-1.6-.1-1.6-.6s-.1-.6-1.4-.5c-1.6.1-2.7-.5-2.5-1.3.2-.5 0-.5-1.3-.5-2 0-2.5-.3-2-1 .2-.4.2-.6 0-.7-.5-.4-.2-1 .8-1.7 1.4-.8 2-.6 2 .8v.9H79l5.6-.2c2.1 0 2.5 0 3.2.5.4.3 1.5.7 2.4.8 2.8.5 4.2 1.1 4.7 1.8.4.6.6.6 2 .6 2.3 0 5.3.5 8.4 1.2 3.6.9 4.5 1 6.1 1 1 0 2.2.2 4.5 1l3.4 1.2 5.5-.2c4-.2 5.4-.1 7.2.2l2.2.4 1-.7c1.3-.9 3-1 3.8-.5.4.2 1.1.4 1.7.4l2.5.4 3.5.7c1 .2 2.1.4 2.4.6.3.1 1.8.4 3.3.5l2.7.2 1.6-1.2L158 67l.1-1.9c.3-2.1 0-5.1-.4-5.4-.6-.5-2.5-.8-6.4-.8a248 248 0 0 1-8.6 0 53.2 53.2 0 0 0-3.6-.2l-12.2-.4c-.4 0-.5-.7 0-.9l6.5.2c3.4.2 10 .3 14.4.2 6.8 0 8.2-.1 8.5-.4.3-.3.6-.4.7-.4.5 0 .2-.8-.5-1.2-1.3-.9-3.5-3.3-3.7-4 0-.5-.6-1.3-1.2-2-1-1.3-1.7-3.4-2.3-7-.2-1.4-.2-1.9.2-2.8l.6-1.3c.3-.2-.5-1.3-2.2-3.2-1.3-1.2-1.7-1.6-2.4-1.6h-4c-2.4 0-3 0-3.1-.3-.3-.6.4-.7 3.8-.7 3 0 3.7 0 3.7-.7 0-.3-1.3-.9-2.2-.9-.6 0-1.8-.6-1.8-.9 0-.1.4-.2 1 0 1.7.2 2.4 0 2.4-1 0-.3.1-.8.3-.9a24.9 24.9 0 0 1 1.2-5.2c.7-2.7.6-4.6-.4-6.6-1-1.8-1-1.9-1.8-1.3-.4.3-.9.6-1.2.6-.7 0-.6-.8.3-1.2.9-.4 1.2-1 1-1.7-.7-1.5 0-5.5 1.3-8l1-2c0-.3-6.5-.2-17 0-7.3.2-8.5.3-9.5.7-.4.3-.6.2-1-.1-.4-.4-1.3-.5-8.3-.5l-18.1-.1C74.2 3 71 3 66.9 3.3c-4 .3-4.5.4-4.5 1.3 0 .2.2.2 1 0 1.5-.6 1.9-.6 2.9 0 1.2.7 1 1.3-.5 1.3-.7 0-2 .4-3 .7l-2.3.7c-.4 0-5.5 4-5.8 4.5l-.3.6 2.5-.6c3-1 9.3-2.2 10.8-2 .8 0 1.1.2 1.1.4 0 .3-.8.5-3.4.8-3.4.5-7.7 1.4-10 2.3-1.8.7-2.1.6-2.4-.4-.3-.8-.2-1 1-2.1A42 42 0 0 1 56.1 9l.8-.7-.8.5c-2.6 1.5-6.5 4.9-6.5 5.7 0 .1-.2.2-.6.2-.5 0-.7-.1-.7-.5 0-.7 4.2-4.4 7.7-6.6 1.6-1 2.9-2 2.8-2h-.5l-1.8 1.1c-3 1.6-4.5 2.5-4.6 2.8-.1.2-1.4 1-3.5 2.5L46 13.7c-1.6 1.3-2 1.5-2.4 1.2-.4-.2-.8 0-2.2.7-1 .5-1.9 1.1-2 1.4-.4.3-.3.4.3.4.4 0 .8.2.9.4.2.7 1 .4 2.6-1a11 11 0 0 1 1.8-1.5c.5 0 0 .8-.9 1.5s-1 1-1 1.6c.3.9-.3 1.6-1.1 1.7-.6 0-.7 0-.6-.5 0-.8-.4-.8-2.1 0-1.4.6-5.5 3.7-5.5 4.1l-1 .7c-.4.2-1 .6-1.1.8-.2.2-.8.4-1.5.4-.9 0-4.8.6-7.7 1.2-.4 0-.6.3-.7.7 0 .5-.2.6-2.8.6-2.8.1-3.7 0-3.4-.6l1.8-.6 2-.5c.3-.1 1.8-.4 3.5-.5l3.3-.5c.8-.3.2-.7-1.2-.8-2.5-.2-3.5-.5-3.5-.9 0-.2.2-.3.6-.3a2 2 0 0 0 1.1-.3c.6-.4.7-.4 1.5 0 .9.4 1 .4 2.7-.4 1.4-.7 1.8-1 1.5-1.2-.6-.3-.5-.6.4-1h1c.3.4 1.1.3 1.1 0 0-.6-2.7-1-5.1-.9l-2.4.2.2-1.7c.2-1.6.1-1.7-.4-1.9-.8-.2-1.6.4-1.6 1 0 .4-.1.8-.3.9-.2 0 0 .3.4.5.6.3.7.5.7 1.6 0 1-.2 1.3-.6 1.6-.6.3-.8.3-1.8 0-1.3-.6-1.4-.6-5-.4-1.8.2-3 .4-3.4.6-.6.4-.8.4-2.3 0-2-.6-2.9-1.2-2.7-1.8.3-.6.9-.6 2.5.2 1 .4 1.5.5 1.8.4.3-.2 1.6-.4 2.9-.5 2.6-.3 5.2-.7 4.8-.8a1253.7 1253.7 0 0 1-8.1-1c-.9 0-1.3-.2-1.4-.5 0-.2-.5-.4-1-.4-2.4 0-4-.6-3.2-1.3.4-.4 4.6 0 5 .6.3.2 1.1.5 2 .6l1.7.1-.9-.6c-.5-.4-.9-.9-.9-1.1 0-.5 1.6-.5 1.8 0 0 .2.3.4.5.4.7 0 1 .5.7 1-.3.5-.2.5 1.9.8 2.9.4 4 .4 3.7 0-.1-.2-.2-.6-.1-1 0-.7-.1-.8-1.8-1.4a9.8 9.8 0 0 0-4.3-.7c-1.4 0-3-.1-3.5-.3-1-.3-1.3-.9-.6-1.1.6-.3-.5-1-2.3-1.4l-1.9-.4-1 1-1 1 .1 2.4c.1 1.8.3 2.4.6 2.6.5.4.5.4 0 1.1l-.7 2.4c-.3 1.4-.3 1.7.1 2.4.4.8.4 1.3.1 4.1-.5 6.1-.5 6.5 0 8l.3 2c0 .8.7 1.9 1.1 1.9.6 0 0-5.3-.7-7l-.6-2c0-.6.6-.2 1.2.8 1.2 1.7 1.6 4.2 1.4 7.4v1c.3 0 .5-1.1.7-3.5.1-1.3.3-1.8.6-1.8.2 0 0-.4-.6-1C6.8 33 6.2 31.7 6.3 31c.1-1 .9-.6 1.5.8.3.7.9 1.5 1.2 1.6.3.1.7.6.8 1 .2.6.2.8-.3 1.2-.4.4-.5.8-.5 1.3.1.4-.2 2.4-.6 4.4-.4 2-.6 3.7-.5 3.7.2.2 1.5-3.2 1.5-3.8 0-.3 0-.6-.2-.7-.5-.4.4-2.2 1-2.2s.9.6.7 1.3v1c.3.7.3.7.6-.4l.5-1.9c.1-.6.3-.8.8-.9.7 0 .7-.1.9-1.7.1-1.8.4-2.2 1-1.5.3.3.3.8 0 2.8l-.4 3c-.2.7-.1.7.4.4.3-.3.6-.8.7-2 .2-1.2.4-1.6.7-1.7.4 0 .5.1.5.9l.2 1c.2 0 .3.4.3.9 0 1 0 1 .8.6.4-.2.7-.2 1 0 .5.3.6.3.6 0l.1-.9c.3-.6-1-3-2.7-5.3a6 6 0 0 1-1.1-2.2c0-.6 0-.6.8-.5.8.2.9.2.4-.2l-1.5-.5c-1.1-.3-2.1-.9-2.1-1.3 0-.7.6-.6 2.6.2 1.8.7 2 .7 2.2.3.1-.2.7-.5 1.2-.6 2.2-.4 5-1.3 6.3-2 .8-.4 1.8-.7 2.3-.7.5 0 1-.2 1.2-.3.3-.3 1.1 0 1.1.4 0 1-5 4.6-6.4 4.6-.9 0-1 .4-.1.9.4.3.5.4.2 1-.5 1-.3 2 .9 4.5l1.2 2.4.4-1c.4-1 1.2-1.2 1.2-.4 0 .3.2.1.5-.4.5-1 1.2-1.2 1-.2-.2 1 .2 1 .8 0 .6-.8 1.5-4 1.8-5.8.2-1.4.9-1.3 1 .2v1l.3-.8c.3-1 1-1.1 1-.1 0 .4-.4 1.5-.7 2.5-.4 1.2-.5 1.8-.3 2.1.2.4.1.7-.2 1.3-.5.8-.5.8 0 .5.7-.4 1.7-1.9 1.7-2.5 0-.6 1-1.7 1.4-1.7.6 0 1-.6.6-1.1-.3-.4-.2-.6.1-.9.8-.6 5-7.4 4.7-7.7-.1-.1-.4 0-.8.2l-2.1.8c-1 .3-2.2 1-3.4 2a40 40 0 0 0-6.2 5.6c-1.3 1.7-3.3 2.4-3.3 1.2 0-.3.4-1 1-1.5.6-.6 1-1.2 1-1.3l.5-.2c.3 0 .4.1.3.6-.2.5-.1.5.5-.2s.6-.8.2-1.2c-.4-.5-.2-.7 2.8-3.6 2.9-3 7-6.2 7.7-6.2.6 0 .2.5-.9 1.3a36.7 36.7 0 0 0-7.6 7c0 .4 1.2-.3 3.5-2.1 1.4-1.1 2.7-2 3-2l1.8-.6c4.5-2 5.2-2.3 5.2-1.8l-.9.9a28 28 0 0 0-4.1 6.5s.7-.3 1.3-.8l1.5-1.1c.5-.4.8 0 .4.6L42 30c-.2.4-.6.8-.9.8-.2 0-.4 0-.4.2 0 .5-1.1 1.9-2.3 3-2.1 1.8-2.7 2.5-3 3.3a3 3 0 0 1-.8 1.2 16.1 16.1 0 0 1 1.7-.3 13 13 0 0 0 2.5-1c2.2-1 2.7-.8 1.5.7-.8.8-.9 1.3-.4 1.3s1-.5 1.8-1.5c.6-1 .7-1.1.1-1.1s-.4-.6.4-.8c.9-.3 1-.7.5-.9-.2 0-.2-.2 0-.4.7-.4 1.4-.4 1.2.1-.1.3.1.3 1.3-.1 1.7-.7 1.9-.8 2.3-1.4.2-.3.7-.5 1.2-.5s1.3-.2 1.8-.4c1.2-.5 2-.5 2 0s.2.5 1.7 0c1.1-.4 1.3-.4 1.6-.1.2.3.2.3.1 0-.1-.4.2-.8.9-1.5.6-.5 1-1.1 1-1.3 0-.3 1.1-1 1.8-1 .8 0 .3.9-1 2-1.3.9-1.9 1.5-1.4 1.5s5.2-2.4 6-3c1.3-1.1.9-1.4-.8-.5-1.3.6-1.9.6-1.9 0 0-.2 2.8-1.5 3.5-1.5.2 0 .5.2.5.4 0 .4.1.3 1-.1.6-.5 1-.6 1.2-.3.2.2.2.4-.2.6-.5.5-.6.8 0 .6.5-.2.7.3.2.6a7 7 0 0 1-1.7.7c-.7.2-2.3 1-3.5 1.6-1.9 1-2 1.2-1.4 1.2.4 0 1-.2 1.5-.4a12 12 0 0 1 4.3-1.1c.6.2.3.7-.4.7l-1.3.4-1 .4 1.2-.1c.7-.1 1.7-.4 2.3-.7 1.3-.7 1.4-.7 2 0l.5.6.4-.7c.3-.7.8-1 2.6-1.5 2.5-.9 2.3-1-.5-.3-2.4.7-2.8.7-3.2-.1-.4-.8-.1-1.2.7-1.2.6 0 4-1.1 4.8-1.6 1.2-.6.2-.5-2.3.3-2.8.9-3.5 1-3.5.5 0-.2 1-.7 2.5-1.1l3.2-1.2c.6-.3.8-.3 1.8.4.8.6 1 .6.8.2-.7-1.7-.1-2 .9-.5.8 1.3 1 1 .3-.4l-.6-1h-2.6c-1.6 0-2.7-.2-2.8-.4-.3-.4.5-.7 2-.7 1.6 0 1.3-.4-.5-.7-1.3-.2-2.1-.8-1.7-1.2.3-.3.3-.4 0-.7-.2-.3-.2-.4 0-.7.5-.4 1.2 0 1.6 1 .2.4.6.7.8.7a45.1 45.1 0 0 1 7.2 2c0 .8.6 1.2 1 .8.3-.2.5-.2.9.3l.4.7.5-.8c.7-1 1-1.2 1.4-.8.2.3.3.3.6 0 .3-.2.4-.2.4 0 .2.6.7.5.7 0 0-.2-.3-.5-.5-.5l-1.3-.5c-1-.5-6.2-1.2-7.3-1-1.2.1-1.5-.3-.8-1.1.6-.6 1.7-.7 6-.7 1.4 0 1.5 0 1.8-.8.3-1 .8-1 2.3-.2.8.4 1.3 1 1.6 1.7.7 1.6 1.2 2 1.8 1.8.7-.2.7-.5 0-1.2-.6-.7-.6-1 .1-1 1-.2 1.7 0 2 .3.3.3.7.3 1.4.2.5-.2 1.4-.3 2-.3l1.4-.2c.5-.3.4-.4-1.9-.3-1.1 0-2-.1-2.6-.4-.5-.3-1.1-.4-1.7-.3-.7.1-1 0-1.7-.7-.7-.8-1.1-1-2.3-1.1-1-.1-1.6-.4-2-.7-.3-.5-1-.6-2.9-.8-1.3 0-2.8-.3-3.3-.5-1-.3-4.7-.3-5 0-.1.2 0 .5.1.8.5.8.2.9-1.8 1.3-1 .1-1.8.4-1.9.6-.1.2-.6.2-1.5.1l-2.8.1-2.5.4A46 46 0 0 0 51 25.5c-1 1-2 1-2 .3-.1-.2.4-.7 1.1-1.1l1.4-1a60 60 0 0 1 7.3-4.4l3.4-1.9 3-.1a29 29 0 0 0 6.5-1l1.5-.3v-1l-.1-1h2.3c1.3 0 3 0 3.7.2l4.1.6c2.2.2 2.8.2 3 0 .1-.3.5-.4 1-.2 1.2.2 1.4 0 1-.7-.5-1 0-1.3 1.3-.9 2.4.8 9.6.5 9.6-.3 0-.2.3-.4.5-.4.6 0 1 1 .6 1.5-.2.2-.1.4.2.8.6.5.7 1.2.4 1.5-.2.3-1.7-.9-1.7-1.3 0-.6-1.2-.8-3.2-.6h-4.1c-2 0-2.2 0-2.2.5 0 .7.8 1 2 .6a18 18 0 0 1 2.7-.4c1.5-.2 1.9-.1 2.2.2.6.7.1 1.2-1.2 1.2-1.5 0-2.3.4-2.3 1 0 1.1.7 1.3 3.7 1A15.8 15.8 0 0 0 102 17c.7-.2.9-.1 1 .3.3 1.2 2.6.2 4.9-2a9 9 0 0 1 2-1.8l1-.7c.6-.6.8-.7 2.2-.7 1.1 0 1.7-.1 1.8-.4a7 7 0 0 1 2-1.2l1.8-.9H116c-2 0-2.9-.1-2.9-.3 0-.6-.3-.7-.5-.1-.1.4-.4.5-1.3.5h-1.5l-1.5.1c-1 .2-1.1.3-1.1.8 0 .6-.2.7-1 .7-1.7 0-3.6-.5-6.6-2l-3.9-1.5c-.6-.2-.6-.1-.5.3.1.6 0 .6-1 .2L92.5 8c-.6-.1-1-.3-1.2-.6 0-.2.1-.3 1-.1.8 0 1.1 0 1.1-.2 0-.6 2.8 0 5.5 1.3 4 1.8 5.6 2.4 6.5 2.2.7-.2.7-.2.2-.2-.7 0-1.6-.5-1.6-.9 0 0 .8-.2 1.8-.2 1.1 0 2.6-.1 4-.5 2.3-.6 2.6-.7 6-.4 3.9.4 4.3.5 4.3 1.1 0 .5-.2.6-2.6 1.6-.6.2-.6.3-.2.4.3.2 1.2-.1 2.5-.7 2.2-1 6.5-2.9 10.3-4.4 1.9-.7 2.7-1 4.4-1 1.3 0 3.7-.4 5.9-.8 4.1-1 4.6-1 4.6-.5a113 113 0 0 1-11.1 2.3c-1.3 0-2.7.4-4.2 1l-2.8 1.2c-1 .3-.2.3 3.5.1 8.3-.4 10.6-.5 10.6-.1a243.5 243.5 0 0 0-5.8 3.9c-5.2 3.3-5.5 3.4-5.8 3.3-.5-.4-.3-.6 1-1.3a70 70 0 0 0 7.6-4.9c.6-.4-4.8-.4-8.7 0-6.2.5-6 .5-8.9 1.9-2 1-3 1.3-3.7 1.3-.7 0-1.2.1-1.7.5-1 .9-.9 1 .2.5.7-.3 1-.3 1.2-.1.2.2 0 .4-.6.9-.8.5-1 .6-.7 1 .3.3.3.4-.1.7-.4.3-.5.4-.1.8.3.4.2.6-1 1.6-1.5 1.3-1.2 1.5.8.6.9-.5 1.2-.7 1-1-.1-.6 1.4-1.4 3.4-1.9 1.7-.3 2.4-.3 2.4.1s-.6.7-1.4.7c-.7 0-2 .7-2.7 1.5-.4.3-.7.7-.7.8 0 .3 1.8 0 2.1-.3.4-.4 3-1.3 5.5-1.7 1.5-.3 1.8-.3 2 0 .4.6 1.1.6 1.4.2l.8-.2c.4 0 1-.2 1.4-.4l1.9-1c.7-.2 1.4-.7 1.7-1 .5-.6 1.3-.7 1.6-.2.1.1 0 .5-.4.8-3.1 2.4-4.4 4-4 4.7.3.3.7.5 1.3.5.4 0 .9.1 1 .3 0 .1.4.4.8.5l.6.5c0 .1-.7.9-1.6 1.6-2 1.5-3 2.6-2.8 2.8 0 .1.5 0 1-.3.9-.6.9-.6 1.5 0 .6.4.7.5.4 1-.6.9-.2.9 1 0a5 5 0 0 1 1.7-.8c.7 0 2-1.1 1.9-1.6-.1-.3.6-1 2.4-2.6 2.4-2 3-2.4 3.3-2 .2.4 0 .7-1.7 1.8-1.6 1-3 2.4-2.8 2.7l1.5-.7a7 7 0 0 1 1.7-.8c.5 0 1 .5 1 1s-2.4 1.5-3 1.2c-.6-.2-2.2.6-3.1 1.5l-2 1.6-2.4 1.7c-.7.5-1.8 1-2.3 1.2l-1.1.4.8.1c1.3.3 1.1.9-.5 1.8-.6.3-1 .7-1 .8.1.6-.4 1-1.8 1.4a28.8 28.8 0 0 0-11.8 7.9c-1.2.9-3.5 3.5-3 3.5l.4-.3c.2-.4.9-.3.9.1 0 .2-.3.5-.6.7-.3.2-.6.5-.7.8-.2.6-2.3 1.7-2.6 1.3-.2-.3-1.7.4-1.7.9 0 .1.4.2 1 0h2.3c1.1 0 1.2-.1 1.1-.6-.2-.6.7-1 2.4-1.3 1 0 1.2 0 1.2.3 0 .2-.4.6-.8.9-.7.3-1.6 1.6-1.3 1.8.2.1 8-.6 8.4-.7 1.3-.5 2.9-.8 4-.7h1.4v-1c.1-.8 0-1.2-.3-1.3-.5-.2-2.1.5-2.9 1.2-.8.8-1.4.5-1.4-.7 0-1 .3-1.3 2.4-3.5 1.8-2 2.5-2.5 2.7-2.2.2.2.1.5-.5 1.2l-1.3 1.5-.5.6.7-.4 1.4-1c.5-.2.8-.3 1 0 .1.1 0 .5-.8 1l-1 .9 1.3-.2c1-.1 1.4 0 1.5.2.4.6.3 2.2-.1 2.6-.3.2-.4.5-.4.6 0 .2-.4.7-.8 1-.6.7-.9.7-2.6.7-1.4 0-2 0-2.4.4-.7.6-4 1-7.5.8-2.3-.1-3 0-3.7.3-2 .9-3 1-11.2 1-6.9.1-8.4.2-9.4.6-1.6.6-4.4.9-4.2.4 0-.2.7-.5 1.3-.6 3.6-.5 5-.8 5.5-1.1.3-.2 1-.4 1.5-.4h4l-.8-.5-1-.6c0-.1-.3-.2-.6 0-.2 0-.6 0-.8-.2-.2-.2-.6-.2-1.5.1-.7.3-1.6.4-2.4.3-1.4-.1-6.6.7-9.7 1.6-2 .5-12.2.7-15.1.3-4.2-.6-4.8-.6-8.7 0-3.7.7-3.8.7-4.2.2-.3-.5-.5-.5-2.3-.3-2.4.3-4.3.2-4.3-.4 0-.3.4-.4 1.6-.3 1 0 3-.2 5.3-.7l4-.7.1.7c0 .5.1.5 1 .3a27 27 0 0 1 7.6.3c3.4.5 8 .5 11 0 2.6-.5 5.8-1.4 5.8-1.7 0-.6-5-.7-7.5-.1l-2 .2c-.3-.1-2.6-.3-5.4-.4-4.4 0-5.6-.2-5.2-.6a420.4 420.4 0 0 1 31.2.1c.6-.2.5-.2-.4-.2-1.2 0-1.5-.4-.7-.8.3-.2 0-.3-1.1-.2-2.8.3-7.1.2-8.3 0-1-.4-4.8-.5-7-.3-.9 0-1.1 0-1.1-.3s.3-.5.7-.5c.8-.1.9-.3.4-1-.5-.5-1-.6-2.7-.3-1.5.3-3.1-.3-4.4-1.4-.5-.5-1-.8-1.2-.8-.2 0-.4-.3-.5-.7-.2-.7-1.2-1.4-1.9-1.4-.2 0-.7-.2-1-.5a2 2 0 0 0-1.1-.4l-1.5-.3-1.2-.4c-.4 0-.3 0 .1.3.4 0 .6.3.6.4 0 .4-2 .7-2.3.5-.4-.3-.4-.7 0-.7.3 0 .5-.1.5-.2 0-.2-.3-.3-.7-.3L60 41c0-.3.6-.6 1.3-.6.3 0 .4-.2.3-.7l.1-.6.6-.3c.3-.2.3-.3 0-.7-.5-.4-.5-.5.2-.9.3-.2.6-.5.6-.7 0-.5-2-2-2.5-1.9-.4.1-.3.2.4.6.9.5.9.5.6 1.4 0 .6-.3.6-1.2.6-1.4-.1-1.7-.8-.3-.8l1-.2c0-.4-1.2-.8-2-.8-.4 0-.7-.2-.7-.3 0-.2-.4-.3-1.3-.2-1.8.3-1.9.6 0 .7 1.7 0 2.2.2 2 .6h-2c-1.8 0-1.9 0-.5.3.8.2 1 .7.2.7-.3 0-.5.3-.6.5-.1.5-.4.6-2 .6-1 0-2.2-.2-2.5-.3-.7-.4-1 0-1 1.5 0 1-.6 2.7-1 2.7l-.6-.3c-.7-.4-1.4 0-1.5 1-.1 1 1 2.3 2 2.3.3 0 .8.2 1 .5.6.6 3 1.6 4.2 1.6.4 0 1 .1 1.3.3.3.1 1.5.3 2.8.2 2 0 2.2 0 2 .4 0 .5-.7.7-3 .7-2 0-2.3 0-2.8-.3-.3-.1-2-.4-3.6-.5-3.8-.4-5-.7-5.8-1.5-.8-.7-1.9-.9-5.4-1-2.4-.2-3.4-.6-3.4-1.4 0-.2-.5-.4-1.5-.4a5 5 0 0 1-2.3-.8c-1-.8-3.6-1-4.4-.4-.4.4-.6.5-1.2.2-.5-.2-1.1-.3-1.4-.2-.5 0-.3.2 1 .7 1.1.4 1.8.6 2.9.4a6 6 0 0 1 4.4 1.1c3 2.2 3.9 2.6 3.9 1.8 0-.4.5-.7 1.6-.7 1 0 1 .4 0 1.2-.6.3-.8.6-.6.8.4.4.3 1-.1 1-.3 0-1.1-.5-2-1l-1.8-.9c-.8 0-2.5-1-2.7-1.5-.3-.7-.3-.7-2.6-.5-2 .2-2.5.1-2.9-.2-1-1-5.2-1.4-5.8-.6-.2.2-1.1.5-2.2.6-1.4.1-2 .3-2.4.7-.4.4-.6.5-1.3.3l-1.8-.2c-1.2 0-5.5 1.6-6.3 2.4l-1.2.6c-.5.1-.6.3-.8 2.1-.2 3-.2 11.1 0 11.1.4 0 2.4-1.6 2.6-2 0-.3 1-1 2.3-1.8l3-2c.6-.3 1.8-1 2.7-1.3 1-.5 1.8-1 2-1.4.2-.4.9-.8 2.3-1.3 2.7-1 4.4-1.5 5.8-1.7 1-.2 1-.1 1 .4 0 .3-.2.6-.4.7-.7.2-1 1-.4.8 1.4-.4 1.9-.4 2-.2v.7c-.5.5-2.4.8-2.8.4-.2-.1-.6-.3-1-.3-.6 0-.8.2-.8.5 0 .6-1 1-5 2-2.4.5-4.8 1.6-6.2 2.9l-.8.5c-.2 0-1.1.9-2.1 2-1 1-2.3 2.2-2.8 2.4-1.5.6-1.9 1.2-1.9 3.1 0 2.7.5 4 1.5 4.5.5.3 1 .7 1 1 .1.4.3.4 2 .3 1-.1 2-.4 2.2-.6.2-.2 1.3-.4 2.5-.5 1.8-.1 2.2 0 2.3.3.2.6 0 .7-2 .9-3.4.3-2 .7 3.8 1 3.1.2 4.6.6 4.9 1.3.1.3.4.4 1.5.2 1.2 0 1.5 0 2 .4 1 .7 1.2.7 1 0-.4-1 .8-3 2-3.8l2-1.5c1.5-1.6 3-.5 3 2.2l.4 2.4.4 1.2-.8 1.5c-.9 1.6-.8 1.8.6 1 1.3-.8 2.6-.7 3.7.3.8.6 1 1 1 1.7 0 .9.2 1.2 1.5 2.2.7.5.6 1-.3 1-.6 0-1.7 1.3-1.2 1.5.1.1.5 0 .8-.1.8-.5 2-.4 2.6 0 .5.6 1.7.6 2.2.2.2-.2.9-.7 1.6-1 1-.7 1.5-.8 2.9-.8.9 0 2 .2 2.6.4.6.2 1.3.3 1.6.2.5-.2 1.3.4 1.1.7 0 .2-.4.3-.8.3-.7 0-.7 0-.3.4.3.3.7.4 1.6.3l1.3-.3c0-.4-.4-1-.7-1-.8 0-.7-.7 0-1.3.8-.7 1.2-.7 3.9 0 1.7.3 1.8.3 2.3 0 .4-.5 1.3-.6 6.7-.7 3.4 0 6.6-.2 7.3-.3 1.4-.3 2.1-.1 2.8.7.3.3 1 .7 1.5.8 1 .2 1 .2 1.1-.4.2-.5.4-.6 1.1-.6.5 0 1-.1 1-.3 0-.2.1-.4.4-.6.4-.3 0-.5-4.6-1.9-1.1-.3-1.2-.3-1.4.3-.2.4-.5.6-1 .6-.7 0-.4 0-2.8.6l-2.2.5c-.6 0-.4-1 .2-1.3.6-.2.5-.3-.3-.1-.5 0-1.6.4-2.4.6-1.1.4-2.6.5-6.9.6-3 .1-7.5.4-10.1.7-4.7.6-5.8.6-5.3 0 .4-.4 8.7-1.3 13.5-1.5l3.7-.1 2.1-1.1c1.2-.6 2-1.2 2-1.4 0-.2.2-.5.4-.6.3-.3.5-.3 1 0 .5.2 1 .2 1.8 0 2-.5 3.9-.8 4.8-.8.5 0 1-.1 1-.3.3-.3-.4-.5-1.3-.5-.5 0-.6-.1-.5-.5.1-1 4-1 4.3 0 0 .3.3.4.7.3.5-.2 1-1 .8-1.2 0-.1-1.1-.2-2.3-.2-1.5 0-2.3-.1-2.7-.4-.6-.5-1.3-.5-2 0a8 8 0 0 1-4.1 1c-2 0-3.5.6-5.4 2.3-.9.8-1.5 1-2.4 1.2-.6.1-1.4.3-1.7.5-1.6 1-4.6 1-4.6.1 0-.4.2-.5 1.4-.4 1.3 0 2-.2 3.9-1.3l1-.5-1.5-.3-2.8-.7c-1.3-.3-1.8-.6-1.6-1 .2-.3 2.7-.3 2.9 0l2 .6c1.4.2 2 .2 2.2 0 .3-.3.2-.4-1.2-.7-.9-.2-1-.8-.2-1 1.2-.3 1.9-.2 2 .4.1.4.3.5 1.1.4.5-.1 1.2-.5 1.5-.8l1-.8c.1 0 .2-.3 0-.6-.1-.4-.3-.4-1.4-.3-.8 0-1.5 0-1.9-.2-.5-.3-1.2-.3-2.9-.1h-2.6c-.3-.2-1-.3-1.5-.3-1.2 0-2-.4-2-1 0-.5.7-.9 1.8-.9l.6-.1c0-.5-.8-1.1-1.2-1-.2 0-.6 0-.8-.3-.6-.5-1-.3-.6.2.2.2.1.5-.1.9-.4.5-.4.4-1-.2-1-.8-1-1.5-.2-2 .8-.4 2.6-.3 3 .2.5.6 1.4.7 1.9.2.6-.7 1-.6 2.4.1 1 .7 1 .7 1.5.2.5-.6 1.8-.7 1.8-.3 0 .4 1 .3 1.8 0 1.4-.8 1.8-.8 2.3-.3l.5.6 1-.6c1.4-.6 3-.7 3.3 0 .3.4.5.5 1.4.3 1.8-.4 2.6-.3 3.1.3.4.4.9.5 2 .4 1 0 1.4.1 1.7.5.3.4 1 .6 1.8.8a4 4 0 0 1 2.3 1.1c1 .8 1.1.9 1.2.5.1-.2.5-.6 1-.8.6-.4 1-.4 1.9-.1l1.4.2c.2-.1.6 0 .8 0 .3.2.6.2.9-.1.4-.5 1-.3 1 .2 0 .2.2.5.6.6.7.1.8.6.4 1-.2.3 0 .6.9 1l1.3 1.2c.2.7 0 4.4-.2 4.8-.2.4-1 .4-1.4 0-.3-.3-.2-2 .3-2.5.2-.3 0-.6-.5-1-.3-.5-.7-1.1-.7-1.5 0-.5-.3-.7-1.1-.9-.7-.1-1.1-.4-1.2-.7 0-.2-.3-.5-.5-.6-.5-.2-.2 1 .5 2.3.4.7.5 1.3.4 2.1-.1 1.4.1 1.8 1 1.8.8 0 1 .5.4 1.4-.2.4-.6.7-1 .7-.3 0-.8.3-1.2.8-.7 1-1.5 1-1.5.2 0-.6-.2-.7-1.1-1-1.2-.3-2.4-.1-2.3.4l1 .2c.5 0 .8 0 .9.3 0 .3.3.4.5.4.3 0 .6.3.7.5.2.5.2.7-.4 1l-.6.6.7.5c.4.4.8.6 1 .6.5 0 1-.7.8-1.4-.2-.9.2-1.2 1.6-1 1 0 1.3 0 1.5-.4.3-.3.4-.8.3-1-.1-.5 0-.7.3-.8.5-.3 1.4.6 1.4 1.2 0 .9-1.3 2-2.6 2.2-1 .2-1 .3-1 .9 0 .6 0 .6 1.1.5l1.4.1c.3.5.6.2 1-.7.3-1 .6-1.2.8-.5.3.6 3.4 2.3 3.7 2l.7-1.5zm-1.4-1.3c0-.2.1-.4.3-.5.3-.2.9.5.6.7-.3.3-.9.2-.9-.2zm-2-1.1c0-.5 1.2-2.6 2.5-4.3 1-1.1 1.6-1.4 1.8-.7.1.2.4.4.7.5.6.1.6.8 0 1.2-.3.4-.5 1.6 0 1.6l.8-.5c.8-.6 1.6-.7 2-.1.4.3.4.4 0 .6-.2.2-.5.3-.7.3a2 2 0 0 0-1 .4c-.3.2-.8.3-1.3.2-.6 0-.9 0-1 .3 0 .2-.4.4-.7.4-.6 0-.7-.6-.1-2l.4-1c0-.5-1.2.8-2 2.1-.7 1.4-1.5 1.9-1.5 1zm-49.7-3.6-2.4-.2c-.8 0-1.7-.2-2-.4-.7-.4-.8-.4-2.2 0-1.3.5-1.5.5-1.9 0-.6-.5-.3-.8 1.7-1.4 2.2-.7 2.9-.7 3.2-.2.2.4 3.7 1.2 5.2 1.2 1 0 1 0 .8-.6v-.8c.3-.2 3.5.3 3.9.5.3.2 0 1-.6 1-.2 0-1 .2-1.8.6-1.5.7-2.1.7-3.9.3zm51-1.2c0-.4.1-.6.5-.6s.5.2.5.5c-.2.7-1 .7-1 0zM135.2 66c-.1 0-.2-.3-.1-.6s.6-.4 2.3-.4c2 0 2.7.3 2.2.8-.3.3-4 .5-4.4.2zM34 63.7c-.4-.6 1.2-1 4.5-1 2.7 0 3.7-.1 4.5-.5l1-.4-.9-.3a64 64 0 0 0-6.7 0c-4.7 0-5.8 0-5.9-.4-.2-.5 0-.6 1.9-.8 1.2 0 1.8 0 2.1.2.3.2 1.7.3 4.4.3 4 0 4 0 3.3-.5-.7-.4-1.8-.6-5.8-.7l-6.6-.3c-2 0-2.2-.4-.7-1.1 1-.5 1.4-.5 4-.4 1.5 0 3 .3 3.3.5.3.2 2.2.3 5.1.4 3.6.1 4.7.3 5.2.6.4.2 1.4.5 2.3.6 1 .2 1.7.4 2 .7.4.7 1.1.6 1-.1-.2-.6-.1-.6.7-.4.4 0 1 .3 1.1.6.3.3 1 .5 3 .6 3.3.3 3.8.4 3.8 1 0 .4-.6.4-3.8 0-1.8-.2-3-.2-5.7.1A171.4 171.4 0 0 1 34 63.7zm-6.1-.7c-.6-.2-.4-1 .2-1 .2 0 .5.3.5.5 0 .4-.3.6-.7.5zm36.6 0v-.5c.4-.2 4.6-1 4.9-.8.3.2.2.9-.2 1-.9.3-4.6.5-4.7.2zm-42-.8a.6.6 0 0 1-.3-.4c0-.3 4-2.4 4.4-2.4 1 0 .1 1-1.6 2-1.9 1-2.3 1-2.6.8zm38-1.4c-.3-.4.7-.7 3.5-1.2 3-.5 3.7-.5 3.7 0 0 .4-.1.5-3.6 1-2.9.5-3.4.5-3.6.2zm92.4 0c-.8-.1-1.2-.3-1.2-.6s.4-.3 1.8-.3c1 0 1.7.2 1.8.3.2 0-.8.9-1 .8l-1.4-.2zM16.6 60c-.2-.2-.3-.5-.1-.6.3-.3 6.5-1.4 8.7-1.6 1.2 0 1.7 0 1.7.2 0 .4.2.3-4.2 1.3-5.1 1.2-5.7 1.2-6.1.7zm90 .1c0-.4.8-.7 2.3-1 1.1 0 1.3 0 1.3.3s-.3.6-1 .7c-1.2.4-2.7.4-2.7 0zm32.1 0c-.7 0-.5-.4.4-.6l4.7-.1c3.7 0 4.8.1 4.4.8-.2.3-2 .3-2.1 0a38.2 38.2 0 0 1-7.3 0zm-130.4-2V57c.1-1.1.4-1.5 1.9-3 1-1 1.8-2 1.8-2.2.1-.3-.8 0-2.7.6-1.8.7-2.4.7-2.2 0l.2-.9c0-.3 1.5-1 4.7-2 3-1 3-1 3.2-.5 0 .3.4.6.8.8 1 .4.7 1-.8 1.1-.8 0-1.4.3-1.5.5l-.6.7a3 3 0 0 0-.6 1c-.1.3-.5.8-.8 1-.4.2-1.1 1.3-1.7 2.4-.9 1.8-1.3 2.2-1.7 1.8zm45.5-.9a63 63 0 0 0-18.7-4l-4-.3c-1.3-.6 0-.7 5.4-.7 7.3 0 10.3.3 10.4.7.1.3-.2.4-.9.4-.5 0-.7 0-.5.1l1.4.5 1 .4c.5 0 6.4 2 7.6 2.5 1.3.5 1.7 1.2.7 1.2l-2.4-.8zm85.8.2a38 38 0 0 0-8.2-.8l-10-.7c-1.4 0-2.8 0-3.5.2a56.7 56.7 0 0 1-12.6 0c0-.3.7-.4 4.7-.5 2.8 0 5-.3 5.7-.5 1.4-.5 5.6-.4 9.8.1 1.8.3 4.4.5 5.7.4 1.4 0 3 .1 3.6.3 1.8.4 2 .4 1.6-.1l-.2-.5c.2-.2 3.8-.6 4-.5.2 0 0 .3-.4.6l-.6.5 1.2-.2c1.8-.2 2-.2 2 .2.1.2 0 .4-.4.4-.3.1-.5.3-.5.4 0 .4-.8 1-1.2 1-.2 0-.5-.1-.7-.3zm-1.1-1.4h-1c-.4 0-.2.1.4.1.6 0 .8 0 .6-.1zm-40.3.5c-3.7 0-5-.3-4.4-.9.2-.2 9.9.1 10.3.4.7.4.3.7-.8.6l-5-.1zm-53.9-.2c0-.1-2.2-.3-4.6-.4-3-.2-4.7-.4-5-.6-.6-.5-2.7-.6-3.4-.3-1.3.5-4.5-.7-3.7-1.5.2-.2.5-.2 1 0 1.7.6 3 .8 4 .4 2-.7 3.5-.4 2.8.5-.3.3.3.4 3 .6 5.1.2 8.5.7 8.2 1.2-.2.2-2 .3-2.3 0zm99.8-1c-.3-.4-.2-.5.4-.7l1.7-.7c1.3-.6 2.4-.4 2 .3-.2.2-3.3 1.4-3.7 1.4l-.4-.4zm-14.8-5c0-.2 0-.5.2-.5l.8-.1c.3 0 .8-.3 1-.5l1.2-.6c.6-.1.8 0 1 .4.2.3.3.7.3 1 0 .4-1.4.9-3.1.9-1.2 0-1.4 0-1.4-.6zm-76 0c-.8-.5-.5-.7.8-.7 1.4 0 1.7.3.9.7-.7.4-1.1.4-1.7 0zm81.2-1c-.2-.6-.3-.6 1.9-1 1-.3 1.5-.3 1.8 0l2 .2c1.6-.1 1.7-.1 1.7.5v.7h-3.6c-3 0-3.5 0-3.8-.5zm-68-.3c-.6-.1-1.4-.2-1.7-.1-1 .2-2.2-.2-2.2-.7 0-.6.3-.8 1-.5.5.2 1 .2 1.6 0 .6-.2 1-.2 1.4 0 .4.2.5.2.5-.2 0-.3.2-.6.4-.7.6-.2.7-.2.7.4 0 .6.3.6 1.5 0 1-.5 1-.5 1.2 0 0 .3.3.4.5.4.6-.2 2.9.8 2.9 1.3a35 35 0 0 1-7.7.1zm8.3-.2c0-.4.1-.6.4-.5.3 0 .5.2.5.5 0 .2-.2.4-.5.4-.3.1-.4 0-.4-.4zm-14.3-1.6c-.2-.1-.6-.2-.8-.1-.3 0-.5 0-.5-.2 0-.1.1-.3.3-.3.2 0 .6-.1.7-.4.2-.2.5-.4.8-.4.2 0 .3.2.2.4-.2.6 0 .6.7 0 .4-.4.4-.4.4 0s-.8 1.2-1.2 1.2c-.1 0-.4 0-.6-.2zm-2.4-.9c0-.4 2.4-1.6 2.6-1.4.2.2-.5.9-1.3 1.3-1 .5-1.3.5-1.3.1zm-1.8-1c0-.3.7-.8 1-.7.4.3 0 1-.5 1-.3 0-.5-.1-.5-.2zm-2.5-.6-.6-.4.6-.4c.4-.4.4-.4-.6-.3-1 .2-1.2 0-1.7-.4-.6-.5-.6-.5-.1-.7l.9.1c.3.2.7.1 1.4-.2 1-.6 1.5-.5 1.5.2 0 .2.2.3.4.3.4-.2 1 1.2.7 1.6-.3.5-2 .6-2.5.2zm10.8-.4-1-.4c-.6 0-.5-.1.4-.5 1.2-.6 1.4-.6 1.2 0-.2.7.1.7.9.3.8-.4 1.2-.2.6.4-.5.5-1.7.6-2.1.2zM62 43c-.2-.4 0-.5 1.2-.7.8-.2 1-.1 1 .2 0 .2-.2.4-.5.4a5 5 0 0 0-1 .2l-.7-.1zm-6.7-2c-.3-.2-.7-.4-1-.4-.4 0-.7-.3-.8-.5 0-.3-.4-.6-.7-.7-1-.2-.4-.8.8-.9 1.7 0 2 .2 2.3 1 0 .3.3.8.6 1 .5.3.2 1.1-.4 1.1-.2 0-.6-.2-.8-.5zm78.5-1.6c0-.6 1.8-2.3 2.2-2.1.6.2.5.7-.4 1.6-1 .9-1.8 1.1-1.8.5zm-123.6-3c-.3-.3-.2-.6.2-1.8.6-2 1-2.5 1.4-2 .3.2.3.5 0 1.2l-.2 1c1.2.7 1.6 1.4.6 1.3-.3 0-.6.2-.7.4-.3.5-.9.5-1.3 0zM40 34.2c0-.3 1.5-1.7 2.6-2.2.3-.2.9-.3 1.3-.2.7.1 1.4 0 3.3-1 2.2-1.1 2.5-1.4 2.4-1.9 0-.5.6-1 4.5-3.8 5-3.5 7-4.7 7.4-4.3.3.4-.2.8-2 1.7L57.3 24l-2 1.5c-1 .6-1.1.8-.9 1 .2.3.2.6.1.9-.1.4 0 .3 1-.3a36.6 36.6 0 0 1 3.6-2.3c.9-.6 1.2-.7 1.6-.5.3.2 2 .3 3.7.3 3.4 0 4 .1 4 .7 0 .5-1 1.3-1.3 1l-4-.1h-3.7L58 27.2c-1.4 1.3-3 2.2-3.6 2-.2-.1-.5-.4-.6-.7-.1-.4-.2-.4-1.9 0-1.5.5-1.6.6-1 .9.4.2.5.4.4 1 0 .5-.1.6-.9.5-.6 0-1.5.3-3.1 1.1-2.4 1.3-3.5 1.5-4 1-.2-.3-.7 0-1.7.6-1.6 1-1.8 1.2-1.8.6zm-29-3.2-2.1-.6c-.5-.4-.6-1.3-.2-1.5.6-.4 5.4 1.5 5.3 2-.2.5-1.1.5-3 .1zm42.8 0c-.3-.2-.3-.4-.1-.5.3-.2 1.9 0 1.9.4 0 .3-1.3.4-1.8.1zm-10.1-2.6 1.2-1.4c.9-1 1.2-1.2 1.5-1 .2.3 0 .6-.8 1.4-1 1-2 1.4-2 1zm88.9-3.6c0-.3.3-.7.7-1a109.2 109.2 0 0 0 7.5-5.4c.7 0 .4.7-1 1.5a51.6 51.6 0 0 1-5.2 3.9c-.5.4-1 1-1 1.1 0 .2-.2.4-.5.4s-.5-.2-.5-.5zm-118.7 0c-.3-.3-.1-.6.6-1 .4-.3.7-.7.7-.9 0-.3.3-.4 1-.4 1.1 0 1.1 0 1.1 1 0 .8 0 .9-1.4 1.2-1.8.4-1.7.4-2 .2zm-6.4-.2c-.5-.2-.4-.8 0-1l1.2-.1c.3 0 1-.2 1.4-.5.6-.4.8-.4 1.4-.1 1 .4.8.9-.4 1.3-1.1.3-3.2.6-3.6.4zm60.2-.8-.2-.6c0-.4.2-.5.7-.5 1 0 1.5.3 1.3.9-.2.4-1.5.6-1.8.2zm-19.3-1c0-.5.7-1 6-3.8l3.5-2c.8-.3 1.5-.6 1.7-.5.4.2-.2.8-1.6 1.6l-7.4 4.3c-1.3 1-2.2 1-2.2.3zm87.2-3c.4-2.5 3.4-7.2 4.6-7.2.5 0 .4.3-.9 1.6a9.4 9.4 0 0 0-2.5 5c0 1-.4 1.6-1 1.6-.3 0-.4-.2-.2-1zm-72-.9c.1-.5 1-.6 1 0 0 .2-.3.3-.6.3s-.5-.1-.4-.3zm69.3-.2c-.2-.4 1-1.4 1.3-1.2.4.3.2.6-.4 1-.5.3-.7.4-.9.2zm5.3 0c-.1-.2 2.5-5.6 3.1-6.2h.5a27 27 0 0 1-3.2 6.5l-.4-.3zm-90.7-.8c-1.1-1.4-.7-3 .7-2.4.6.3.7.3 2-1 .8-.6 1-.7 1.3-.3l-1 1.6c-.7.8-1.3 1.6-1.3 1.8 0 .5-.5 1.1-.8 1.1l-.9-.8zm7.3-2.2c0-.9 3.6-2.5 8-3.6 2.9-.7 3-.7 3.3-.2.3.4.7.4 3 .4s3 .1 3.3.5c.4.4.4.5 0 .8-.4.4-.6.4-1.3.1-.5-.2-2-.3-3.4-.3-1.5 0-2.6-.1-2.7-.3-.4-.6-4.9.6-8.6 2.3-1.6.8-1.6.8-1.6.3zm5.7-.1c-.2-.4 0-.5 1.8-.9 1.4-.3 2.5 0 1.6.5-.9.5-3.2.7-3.4.4zm60.2-2.2c-.6-.3-.1-.5 2.7-.8 2.6-.2 3.1-.1 3 .4 0 .5-5.1.8-5.7.4zM79.4 12a14.1 14.1 0 0 0-5.6-2.5c-.7 0-.8-.4-.1-.6 1-.4 4.6-.7 5-.4.2.2.3.2.3 0 0-.3-2.2-1.2-3.9-1.6-.7-.2-1.4-.4-1.4-.6 0-.5 1-.5 3 .2 2.3.7 3 1.2 2.6 2 0 .2 0 .3.4.1l.9.1c.2.2 0 .3-1 .4l-1.6.3c-.3 0-.4.1-.4.3 0 .2 2.9 2.3 4 2.8.8.4 1 1 .5 1L79.4 12zm14.5-1.2c-.2-.5-.6-1-.8-1.2-.6-.7 0-1 1.5-.6 1.3.3 2 1 .8 1-.5 0-.7.7-.2 1 .4.3.3.7-.3.7-.3 0-.7-.4-1-.9zm4.3.6c-.3-.5.3-1 .8-.7.2.2.5.4.5.6 0 .3-1 .4-1.3 0zm31 0c-2.4-.2-2.2-.7.4-1 1.9-.1 2.6.2 2 .8-.1.3-.5.4-.8.4l-1.6-.1zm-47.6-.7c-.3 0-.5-.3-.5-.5 0-.3.4-.4 1.2-.4h1.2l-.4-.7c-.4-.6-.4-.6.4-.6 1 0 1.3.4.8 1-.4.3 0 .3 3.5-.1.6 0 1 0 1.2.2.4.5 0 1-.9.9l-3.4.1c-1.4.1-2.8.2-3.1 0zm39.3-2.9c-.7-.5-.2-.9 2.2-1.5 2.4-.5 3.2-.6 3.4-.2.3.5-.3.9-1.9 1-.8.2-1.7.5-1.9.7-.6.5-1.1.5-1.8 0zm-17.5-.6c-1.7-.6-1.4-1 .8-.8 2 .1 2.8.4 2.4.8-.4.4-2 .4-3.2 0zm33.4.2c-.2-.3 0-.4 2.7-1 3.2-.8 5-1 4.8-.6-.1.5-.7.6-3.9 1.2l-3 .6c-.2 0-.5 0-.6-.2zm-21.7-.8c-1-.4-.7-.8.8-.8 1 0 1.5-.1 1.7-.4l.6-.4.2.4c0 .3.3.4.7.4.5 0 .7.2.7.6 0 .4-.2.5-2 .5-1.2 0-2.4-.1-2.7-.3zm-20.2-1c-.7-.2-1.9-.3-2.7-.3-1.5 0-2-.3-1-.6.3-.2 2.8 0 4.7.2.5.1.8.3.8.5 0 .5 0 .5-1.8.2zm13.4-.3c.7-.7 9-1 9-.4 0 .2-.8.3-2 .3l-4.7.2h-2.3zM117 85c1.4-.6 1.4-1 0-2.3-1.3-1.1-1.4-1.4-1-2 .3-.1.6-.1 1.1.1 1 .3 1.3.1.8-.5-.2-.3-.8-.4-1.7-.4-1.1 0-1.5 0-1.5-.4 0-.2.2-.5.4-.5.2-.1.3-.4.2-.6-.2-.6.7-1.1 1.5-1 .6.1 1 0 1.5-.5l.8-.7-1 .4c-.6.2-1 .3-1.2 0-.3-.3-2.3.8-2.5 1.4-.1.3-.6.8-1 1-1 .8-1 1.2.1 1.2.7 0 1 .1 1.2.5.4.7.2 1-.5 1-.9 0-2.1.6-2.1 1 0 .3.5.8 1.3 1.2L115 85c.4.5.8.5 2 0zm-2.3-1c-.4-.4-.2-1 .2-.9.3 0 .5.3.5.5 0 .4-.5.7-.7.4zm18 .7c0-.5-2.2-1.6-4.7-2.4-1.5-.5-2.8-.8-2.9-.7-.2.2 1.5 1.2 2.6 1.3.5.1 1.6.6 2.5 1.1 1.6.9 2.5 1.2 2.5.7zM86 84l1.3-.5c.5-.1.7-.3.7-.8 0-.3-.2-.7-.4-.9-.2-.2-.3-.2-.5.3-.1.5-.2.5-1.4.4-1.3-.2-1.4-.2-1.4.5-.1.7-.2.7-1 .7-1 0-.8.3.5.7 1 .2 1.3.1 2.2-.4zm-51.4-.8.9-.5-1-.3c-.7-.4-.9-.4-1.2 0-.8 1.2-.1 1.6 1.3.8zm89.5-1.3c.3-.7 0-.8-1.8-.8-1 0-1.6.1-1.7.4 0 .2 0 .2.4 0 .5-.3.7-.3 1.6.2 1.2.7 1.3.7 1.5.2zm7.8.2h-.5c-.3.1-.2.2.1.2.3 0 .5 0 .4-.2zm-1.3-.5-.7-.4c-.3 0-.4.1 0 .4.1.3.4.4.6.4.4 0 .4 0 .1-.4zm-93.8-.8 1.4-.5-.2-.8c-.2-.6-.4-.7-1.2-.5-1.1.2-3.6 1.3-3.6 1.6 0 .2 1 .5 2 .6l1.6-.4zm49.4-.6c0-.6 0-.8.9-1.3.5-.3.9-.7.8-.8a43.5 43.5 0 0 1-4.1-.7c-.6-.2-1.2 0-1.8.3-.8.4-1 .4-1.8.1-.8-.3-3-.4-2.7-.1l2.7.6c3.7.7 5.5 1.6 5 2.4 0 .2.1.3.5.3.5 0 .6-.1.5-.8zm-59-.3c0-.5 0-.8.2-.8s.3-.3.3-.7c0-1.2-1.4-2.5-2.7-2.5-.6 0-3.3 1-3.6 1.2-.4.4.4 1 2 1.9 1 .5 2 1 2.2 1.3.1.2.6.4 1 .4.8 0 .8 0 .7-.8zm99.2.7c0-.4-1.6-1-2.6-.8l-1 .2 1.2.3c1.3.4 2.4.5 2.4.3zM1 79.5c0-.3-.2-.5-.3-.6-.1-.1-.3.1-.3.5s.2.6.3.5c.1 0 .3-.3.3-.5zm13-.4 5-.8.8-.1-.7-.6c-.9-.7-.7-1.2.3-1.2s2.7-.8 2.7-1.3-2.6-1-6.6-1.2A20.7 20.7 0 0 0 6 75.3c-.6.6-1 3.8-.4 4.4.4.5 2.6.3 8.6-.6zm-4.6-2c0-.3.7-.4 2.5-.6 3.5-.2 4.1-.2 4.1.2 0 .5-1.3.7-4.3.7-1.7 0-2.3 0-2.3-.3zm66.8 2.4c1.4-.2 1.5-.3 1-.5-.6-.3-3.8.5-3.6.9h.6l2-.4zm45.7-.3c0-.7-.2-.7-1.7-.7-1 0-1.8 0-1.8.2-.4.3 1.3 1 2.5 1.1 1.1 0 1.2 0 1-.6zm-51.9.1c0-.1-.2-.2-.4-.1l-.4.2.4.2c.2 0 .4-.2.4-.3zm4-.9c1.2-.4 1.5-.6 1.1-.6-.6-.1-4.3.8-4.3 1.1 0 .3 1.5 0 3.1-.5zm18.2.4a6 6 0 0 0-1.2-2.6c-.7-.7-.8-2.2-.2-2.7l.4-.7c0-.6-2-1.8-2.7-1.7-.6.1-.5.2.4.6 1.1.5 1.2.8.3 1.4-.4.2-.7.6-.7.7 0 .2-.3.6-.6 1-.9.8-.9 1.5.1 2 .4.3.8.7.8 1 0 .4.1.4.5.3 1-.5 1.3-.4 2 .2.5.7 1 1 1 .5zm30.7-3.4h-.5c-.3 0-.2.1.1.2.3 0 .5 0 .4-.2zM86.4 74c-.4-.4-.3-1 .1-1 .8 0 .7-.5 0-.9-.5-.2-1-.7-1.1-1-.3-.7-.4-.7-2-.7s-1.8 0-2-.7c-.4-.7-.6-.7-2.4-.4-1.4.3-1.8.2-1.8-.5 0-.6-.5-.7-2.4-.1-1.4.4-1.5.4-1.9-.1-.5-.7-1.2-.7-2-.2-.6.5-1.6.5-2.2 0-.5-.4-.6-.4-1.3 0-.5.2-1.4.4-2 .4-.7 0-1.5.1-1.9.3-.6.2-.9.1-1.6-.3-.9-.5-1-.5-1.4-.1l-.8.4c-.1 0-.3.1-.3.4 0 .2.3.4 1 .4.6 0 1.2.1 1.4.3.2.2 1 .2 3-.2 2.2-.3 3-.4 3.2-.1.3.2.8.2 1.5.1.9-.2 1-.1 1.3.4.3.5.5.5 1.6.4l1.4-.4c.5-.5 1-.3.9.3-.2.7.2 1.5.7 1.5.2 0 .3-.2.2-.7 0-.7 0-.8 1.2-1 1.6-.5 2.2-.2 2.2 1.2v1.1h1.7c1.2-.1 1.6-.3 1.6-.6 0-.7 1-.6 1.8.2.5.5.7 1 .6 1.3 0 .3 0 .7.5 1 .5.4.6.4 1 0 .4-.3.4-.5.2-.7zm25.8-.2-.4-.2c-.2 0-.2 0-.1.2 0 .2.3.3.4.3.2 0 .2-.1.1-.3zm46.3-.4a2 2 0 0 1 1.6-.6c.5 0 1 0 1 .2 0 .5.9.3 1.3-.2a36.3 36.3 0 0 0 3.8-4.8c.4-.3.5-.3.8.1.3.5.4.5 1 0 .4-.2 1-.8 1.4-1.3 1.2-1.5 2.6-2.8 3.1-2.8.4 0 .5-.1.3-.8-.1-.9.5-2.3 1-2.3.3 0 .5-.5.6-1.3 0-.6.2-1.3.3-1.5.2-.5 2-1.5 2.4-1.4.5.2.4 1.7-.2 3l-.5 1.6c0 .2-.3.8-.7 1.3l-.6 1 1 .6c.4.4 1 .6 1.2.6.2 0 .5.3.8.6.3.3.7.5 1 .5.2 0 .5.1.6.3l1 .2.8.2c0 .2.8.4 1.6.6 1.2.3 1.5.4 1.8 1.2.2.5.6.8 1 .9.8.1 2.3 1 2.3 1.3v.6c.1.3 1.9 1.3 3.5 1.9 1.9.6 7 1 7.6.5.2-.2.8-.3 1.7-.2h2.8c1.2-.1 1.7-.3 2.3-1 .4-.5.9-.7 1.2-.6.6.2 2-2.4 1.8-3.2-.2-.4-.3-.3-.7.6-.4.7-.7.9-.8.7-.2-.2-.1-.8.2-2 .7-2 .7-2.4 0-2.8-.3-.2-.5-.6-.5-1.2 0-2.2-.3-4-.7-4.2-.4 0-.5-.3-.4-1 .1-.8 0-1-.7-1.5-.9-.6-.9-1.1 0-1.1.7 0 1.8 1.2 1.8 2 0 .7.8 1.6 1.5 1.8.3 0 .7-.2 1-.5.4-.4.5-.7.3-1.9-.1-1.3 0-1.5.4-1.6.3 0 .5-.4.6-.8l.3-1.2c.2-.4.1-.5-.3-.4-.2 0-.6.4-.7.7-.2.4-.4.6-.9.5-.4 0-.5 0-.4.2.4.5.6 1.2.4 1.3-.2.1-3.2-3.6-3.2-4h.5c.4.1.5 0 .5-.2 0-.6.6-.5 1.4.3l.8.8-.7-1.6c-.7-1.6-.8-2.5-.4-2.5.1 0 .5.4.8 1 .4.7.5.8.4.2-.1-.3 0-.7 0-.8.4-.2 1.5 1.8 1.8 3 .1.5.4.8.6.8.6 0 .5-2.4-.2-3.7a5 5 0 0 1-.5-1.8c0-.8-.5-2.5-1.2-4-.4-1-1.3-2-2.3-2.3-.3 0-.5-.4-.5-.8 0-.5-.2-.8-.9-1.2-1-.6-1-1.1 0-1.2.4 0 1 .1 1.5.7.6.4 1.1.8 1.3.8.1 0 .2.2.1.4 0 .2 0 .5.4.7.6.2 1.5 2 2.1 4 .2.5.5 1 .8 1a19 19 0 0 1 3.2 6.3l.5 3.3c.2 2.3.3 2.5 2.5 3.4.8.4 1.6 2.2 1.4 3.3l-.2.8H227.7v-5.2c-.3-1-.4-9.5-.2-28.7V13.3c-.4-.2-.9-3.7-.8-5.2.1-2.7 0-3-1-3.5-.5-.3-1.5-.5-2.3-.5-.8 0-1.5 0-1.7-.2 0-.1-1.2-.3-2.3-.3-3.4 0-3.3 0-2.4.7 1 .7 1.5.8 2.7.2.9-.4 1-.4 1.5.1.7.8.4 1-1.3 1.2l-2.6.5c-.8.3-1.2.2-2.1-.1-1.3-.5-2.2-.4-1.9.3.5 1.1.5 1.3 0 1.3-.4 0-.7 0-.8-.2-.2-.3-2.3-.9-3.2-.8l-.8.1.9.5c.9.6 1.2 1.7.4 1.4l-1-.3c-.4-.1-.7-.3-.7-.4l-.9-.5c-.5-.2-1-.4-1-.6 0-.1 0-.2-.1-.1-.2 0-.2.5-.1.9.1.7 0 .7-1.4.2-.4-.2-.5-.1-.3.4l-.1.9c-.5.5 1.1 1.6 2.2 1.3 2.9-.6 6.7 0 8.7 1.2a5 5 0 0 0 1.4.8l2.8-.7c1.9-.6 2.4-.6 3-.4 1 .4.8.8-.2.8-1.5 0-2.9.5-2.9 1.1 0 .5 0 .5-1.4.4a4 4 0 0 0-2 .1c-.9.5-3.8 3.2-4.2 3.9-.3.6-.2.6.8.8l2.3-.1c2.3-.5 4.2-.6 4.6-.2.5.6 0 .8-2 1-1 0-1.8.2-2 .3-.2.2 1.7 2.3 2.8 3 .5.3 1.3.6 1.8.6.8 0 1 .1 1 .5 0 .5-.2.6-1.2.6-1.3 0-2.5-.8-4-2.6-1.1-1.4-1.9-1.8-4-2.2l-1.4-.3-1.4 1c-.7.5-1.6 1.4-2 2-.4.6-.8 1-1 1-1-.2-.7-.8 1-2.5 2-2 2-2.1-1.4-1.9-2.4.2-3 0-2.3-.6.3-.3 1.4-.4 3.5-.3h3.2l2.2-2 2.7-2.3c1-.3-.9-1.6-3.1-2-1.6-.3-5.4-.2-5.6.1-.1.1-1.1.3-2.3.3-1.6 0-2.1 0-2.4.4-.3.4-.4.4-1.9 0-1-.2-2-.3-3.1-.2l-3.3.3c-1 0-2.3.3-2.9.5-.6.2-1.3.3-1.5.2l-2.5.3c-1.5.3-2.3.4-2.5.2-.7-.6-6.2.7-10.2 2.2-2.6 1-2.7 1-2.7.6s2.2-1.3 5.8-2.4c1.2-.4 2.3-.9 2.4-1.1.2-.3.9-.4 1.8-.4 1 0 1.5-.1 1.6-.4.2-.5 1-.5 1.4 0 .5.6 5.5.3 6.3-.5.4-.4.8-.5 1.8-.3 1.2.2 2.6-.2 2.4-.6-.1-.2-.8-.5-1.5-.7-1.1-.4-1.3-.5-1.3-1.1 0-.6-.1-.7-.7-.5-.8.2-1.2-.3-.5-.8.6-.4 1.9-.5 2.1-.1.1.2.5.2 1 .1.4 0 .9 0 1.1.2.6.4.5.7-.2.7-1 0-1 .3.1 1.1 1 .7 1.2.7 2.2.4l1.8-.4c.5 0 .7-.1.7-.4 0-.5.8-1.3 1.5-1.6.4-.1.4-.2.2-.3-.2 0-.6 0-.8.3-.6.4-1.1.3-1.1-.4 0-1 2-1.3 3.3-.6.7.4 3.2.3 3-.1-.3-.4.1-.8 1-1.2 1.5-.8 1-1.3-1.5-1.9a31 31 0 0 0-10.6.1c-3.8.5-4.3.6-5 .2-1.6-.7-2.9-.8-5.1-.3a23.2 23.2 0 0 0-6.4 1.7c-.9 0-1.5.3-1.5.7 0 .1-.8.9-1.8 1.6a32 32 0 0 0-5.6 5.5l-.8.8c-.4 0-.5.3-.5 1 0 .5-.3 1.7-.7 2.7-1.5 4.1-1.5 4.4-1.2 5.8.3 1.1 1.3 3.4 2.1 5 .5.7 1 .8 3.3.5 3-.4 4.2-.4 4.2 0s-.4.5-1.6.5c-1.2 0-3.2.4-2.3.5.2 0 .6.3 1 .6.8.8 1.8 1.2 3.4 1.4l2 .3c.6.1 1 0 1.4-.4.4-.4 1-.5 4.8-.7 5.1-.2 7.4-.2 7.8.2l1.7.2c.8 0 2 .2 2.8.5l2.2.8c.5.2 1.2.7 1.7 1.1l1.3 1c.3 0 .5.2.5.3 0 .2.2.3.5.3.2 0 .8.2 1.1.5l1 .6c.7.2.8 1.2.3 1.8-.3.5-.5.5-1.1.3-.4-.2-.9-.5-1-.8-.2-.3-.5-.6-.9-.7-.6-.2-2.8-1.8-3.5-2.7-.6-.7-3.3-1.3-3.3-.7l-.1.7c-.2.3 0 .5.7.8.7.3 1 .6 1 1 0 .7-.3.6-1.6-.2-.7-.4-1-.8-1-1 .1-.3-.1-.5-.8-.7-1.8-.5-1.6-1.2.2-1 .4 0 .5-.1.4-.3-.2-.4-2-.4-3 0-.7.3-1.5-.1-1.2-.7 0-.3 0-.4-.4-.3l-1.6.3c-1.6.3-2.5.8-2.2 1.5 0 .4 0 .6-.4.7-.3 0-.6.3-.6.5s-.1.4-.3.4c-.2.1 0 .2.6.1.6 0 1 .1 1 .4 0 .2 0 .6.2.9.3.6 0 .8-1.4.8-1.1 0-1.3 0-1.4-.6 0-.3-.3-.7-.7-.9-.6-.3-.9-1-.4-1 .2 0 .3-.1.3-.3l-.4-.2c-.2 0-.4-.2-.4-.4s-.2-.4-.5-.5c-.8-.2-4.5.1-4.5.4 0 .6-2.6-.3-2.9-1 0-.4-.4-.4-1.8-.3-1.3.2-1.7.1-1.6-.1 0-.2.4-.4.7-.5.8-.2 1-1 .4-1.2a9 9 0 0 0-1.9-.3c-1.3 0-1.3 0-1.5.7v1c.4.7-4 5.9-5 5.9-.3 0-1.3.4-2.4.9-2.5 1.2-4.3 1.4-6.3.7-1.5-.5-2.7-.5-3 .1 0 .2.2.3.7.3.6 0 .8 0 .8.4 0 .3.1.5.3.5.2 0 .2.4.1 1.2v1c.2-.5 1.2-.4 1.2 0s.1.4.5.3c.5-.2.5-.1.4 1.5-.2 1.5-.1 1.6.2 1 .5-1 .8-.8 1 .5 0 .7.2 1 .2.9 0-.2.2-.3.4-.3.3 0 .4.4.5 1.4 0 1.2.1 1.4.7 1.4.3 0 .6.2.6.3 0 .1.2.4.6.5.3.2.8.7 1 1.1.5.9.5.9 0 1-1 .2-.6 1.3.3 1.3.5 0 .6.2.7 1 0 1.1.6 2 1 1.7 0-.1 0-.6-.2-1-.4-1.2-.4-1.6 0-1.6.3 0 .6.5.9 1 .2.7.6 1.1.8 1.1.2 0 .4.3.5.6.1.6.2.6.7.1.7-.6.9-.5.7.3l-.4 2c-.4 1.7-1 3.9-1.3 4-.4.3-1.7 3.1-2 4.5-.2 1.2-.4 1.4-2.1 2.7-1.8 1.3-3 2.8-2.6 3.1.3.3.6.2 1.2-.5zm39.5-1.2c-.6-.5-.8-.6-1.3-.3-.3.2-1 .4-1.8.5-1.2 0-1.3 0-2-1-.7-1.1-.8-1.5-.3-1.5.4 0 1.5 1 1.5 1.3 0 .2.1.2.4 0 .3-.2.5-.2 1 0 .5.3.8.3 1 0 .4-.3 1.8-.2 2.3 0 .2.2.7-.3 1.3-1 .9-1.2 1.5-1.7 1.4-1l.3.4c.2.2.7-.3 1.4-1.5.8-1.2 1.2-1.7 1.6-1.6.2 0 .5 0 .7-.2.2-.2.4-.4.6-.4.3 0 .3 1 0 1.2-.3.1-1.4 2.3-1.4 2.6 0 .1.1.2.3.2l.2-.4c0-.2.3-.6.6-.8l.5-.9c0-.5.5-.3.9.3.2.3 0 .7-1 1.8l-1.2 1.4h-1.9c-1.2 0-2-.1-2-.3-.2-.3-.4-.1-.9.4-.8 1.2-1.3 1.4-2.2.8zm-6.8-.2-.5-.8c0-.2-.2-.3-.5-.2-.5.2-.8 0-1.7-1.1-.4-.5-.7-1-.6-1.2 0-.2 0-.5-.3-.7-.5-.4-.5-1.6 0-1.6l.9.5c.4.4.5.7.4 1.3 0 .6 0 .9.6 1.4l.7.7-.2-1.2c-.1-.9 0-1 .2-1 .3 0 .5.4.8 1.2.1.7.6 1.6 1 2l.5 1c0 .4-.7.2-1.3-.3zm4.6-3.3c-.6-.7-1.2-2.6-1-2.9.5-.4.8 0 1.3 1.4s.3 2.3-.3 1.5zm3.3-1c0-.5-.3-.7-.6-.2-.4.5-.7.2-1-1-.3-1.8-.3-2 .1-2 .2 0 .6.5.8 1l.5 1-.2-1 .1-1.2c.4 0 .7.5.9 1.6 0 .5.3 1.2.4 1.6.1.7 0 .8-.4.8s-.6-.2-.6-.6zm1.8-.3a51.8 51.8 0 0 1-.9-3c-.1-.6 0-.7.3-.6.4 0 .6.5.9 1.3l.6 1.7c.1.2.2.6.1.7-.2.4-1 .3-1 0zm1.8-.7-1-3.3.5-.2c.4 0 .5.1 1 1.8.3 1.2.3 1.4 0 1.7-.3.2-.4.2-.5 0zm1.3-1.4a9.7 9.7 0 0 1-1-3.7c.4-.3.7.3 1.3 2 .3 1 .4 1.7.2 1.8-.2.2-.4.2-.5 0zm-12.8-2c-.7-1.3-.7-1.9 0-1.9.3 0 .6.4.9 1.1.5 1.4.5 1.8 0 1.8-.2 0-.6-.5-.9-1zm13.4-1.3c-.4-.9-.7-1.8-.6-1.9.2-.2 1.2 1 1.2 1.5 0 .2.3.3.7.2.9 0 1.2.6.4.8-.3.1-.4.3-.4.7.1.3 0 .5-.2.5s-.7-.7-1.1-1.8zm-11.8.3c-.5-1 .1-1.5.8-.7l.5 1c0 .7-1 .4-1.3-.3zm1.9-.2c-.4-.4 0-.9.5-.6.2.2.6-.6.4-1.2 0-.2.2-.4.6-.3.4 0 .6-.2.7-.9.1-.6.3-.9.7-.9.4 0 .5.2.5.8 0 1-.4 1.9-1 1.9-.1 0-.4.3-.6.7-.2.4-.4.6-.6.5l-.7.1c-.1.2-.3.1-.5-.1zm-14.4-3.1c-1-.8-1.3-1.6-.8-2 .3-.1 2.7 2 2.7 2.4 0 .6-.9.4-2-.4zm2.7.3c-1-1-1.4-1.8-1.1-2.3.2-.4.3-.4.7 0 1.1 1.2 2 2.4 1.8 2.6-.2.4-.7.2-1.4-.3zm1.7-1.7c-1-1-.8-1.4.5-1.4h1.6c.6.2.6 1.2 0 1.2-.3 0-.7.2-1 .4-.3.4-.4.4-1-.2zm13.3-.7c-.5-.8-.4-1.3.1-1.3.3 0 1.3 1.6 1.1 1.9-.2.4-.8.2-1.2-.6zm9.1-1.2c-1.2-2-1.2-2-.7-2s2.3 2.6 2.3 3.3c0 .8-.5.5-1.6-1.3zm-43 .2-.2-1.1c0-1-.3-1.6-.6-1-.3.4-.6.2-1.2-1-.6-1.1-.3-1.7.6-1.2.6.4.7.3.7-.1 0-.2.2-.4.4-.4.3 0 .4.3.4 1.2 0 .7.2 1.5.4 1.8l.4.8c0 .5-.6 1.3-.9 1zm34.8-.7c-.9-.9-1-1.7-.4-1.7.4 0 1.7 1.5 1.7 2 0 .7-.5.5-1.3-.3zM165 52c.1-1.3.1-1.7-.2-1.7-.4 0-1-.8-1-1.6s.8-.6 1.3.4c.2.4.6 1 .9 1.2.5.6.4.9-.2 2.6-.6 1.4-1 1-.8-.9zm34 .2c-.8-.7-1-1.4-.5-1.4s2.3 1.4 2.3 1.8c0 .6-.8.4-1.8-.4zm.5-1.8c-.3-.4-.7-.6-.8-.6-.3 0-.6-.8-.4-1.1.1-.2.3-.2.5 0 .7.3 2.3 1.9 2.3 2.1 0 .5-1 .3-1.6-.4zm-36.9-.6c-.5-.6-.7-2.5-.2-2.6.3-.1 1 1.2 1.3 2.5.2.7-.4.8-1 .1zm43-1c0-.9 0-1.2.4-1.2.3 0 .4.3.4 1.2 0 1-.1 1.2-.4 1.2-.3 0-.4-.3-.4-1.2zM160 48c-.7-1.2-.7-2 0-2 .5 0 1.7 2.2 1.4 2.7-.3.5-.8.2-1.4-.7zm38.5-.1c-1.3-.5-1.8-1-1.3-1.4.2-.1 1 .1 1.9.4 1.1.4 1.6.7 1.6 1-.1.5-.5.5-2.2 0zM176 46.3c-.5-.4-.5-.6-.2-1.1.4-.6 1.1-.2 1.1.6s-.4 1-.9.5zm22.3-.6c-.6 0-1-.3-1-.6 0-.5 0-.5 1.4-.4 1.8.2 2.3.4 2.3.9 0 .4-1 .4-2.7.1zm6.9-.5c-1.1-.7-1.3-1.4-.5-1.4.6 0 2.1 1.3 2.1 1.8s-.5.4-1.6-.4zm-29-2c-.4-.3-.4-1-.2-1.3.3-.3 1.2.6 1.2 1.2 0 .5-.6.6-1 .2zm0-2.1c-.8-.8-.7-1.7.2-1.2.7.4 1.3 1 1.3 1.4 0 .6-.6.5-1.4-.2zm8.7-1.4c-.9-.8-1.1-1.4-.5-1.4.6 0 2.2 1.1 2.3 1.6 0 .7-.8.6-1.8-.2zm-8.8-.4a1 1 0 0 1-.5-.8c0-.3-.3-.8-.7-1.2-.6-.7-.9-1.7-.4-1.7.7 0 2.1.8 2.1 1.2 0 .2.5.5 1 .8.6.2.9.6.8.7l-.3.8c-.2.6-1.3.6-2 .2zm15 0-.5-.8c0-.2-.6-.5-1-.6-1.2-.2-2-.9-1.6-1.3.4-.4 1.8 0 2.7.8l1.3 1.2c.4.2.5.5.4.7-.2.4-1 .4-1.4 0zm5.8-.6c-.3-1.2 0-1.5.7-.7.6.8.6 1.6 0 1.6-.4 0-.6-.2-.7-1zm-9.2-2.7c-.6-.1-.7-.3-.7-1 0-.8.1-1 1.8-1 1.5-.1 1.8.3.5.8-.8.2-.8.3-.2.3.9 0 1.1.3.7.7-.2.4-.7.4-2.1.2zm-3.5-6.7c-1.5-.5-2.8-1.3-2.8-1.6 0-.4.6-.3 1.2.1l2.1 1c1.6.4 2.3 1 1.3 1l-1.8-.5zm-1-2.6c-.5-.4-1.3-1-1.8-1.2-.5-.3-.8-.5-.7-.6.3-.4 1.7.2 2.8 1.2 1.4 1.1 1 1.7-.3.6zm7-.3c-.2-.4.3-.5 4.1-.7 3.2 0 3.5 0 3.5.4-.1.3-.6.4-3.7.5-2.3 0-3.7 0-3.8-.2zm-2.3-1.9V24c.3-.2 4.6-.9 7.8-1.2 1-.1 2.6-.5 3.8-.8a15 15 0 0 1 3.5-.7c1.3 0 1.4.1 1.4.6 0 .6.1.6-2 .6-2 0-3.8.6-3.8 1 0 .2-.5.4-1.2.4-3.3 0-6.7.3-7.5.6-1.2.4-1.8.4-2 0zm-13.3-.5c-1.2-.1-1.7-.6-1-.9h1.6c1 .2 1.3.4 1.4.7 0 .5 0 .5-2 .2zm9.7-1.2-2.1-1-1.6-.3-3.5-.7c-2.4-.3-3.2-.5-2.6-.9.5-.3 5.2.4 7.6 1.2 2.4.8 4.6 2 4.6 2.4 0 .4-.6.2-2.4-.7zM187 21c0-.4.3-.5 5.7-1.5 7.7-1.3 8.1-1.4 8-.7 0 .3-.4.5-1 .5-1.5.1-8 1.1-9.8 1.6-2 .4-3 .5-3 0zm-5.7-1.3c-.3-.5 4.9-2.6 5.3-2.2.3.3 0 .5-1.2 1-.6.2-1.7.6-2.3 1-1.3.5-1.6.5-1.8.2zm.6-2c0-.3.4-.6.8-.7l1.4-.7 1.3-.3 2-.6c1-.3 1.6-.4 1.8-.3.3.3-.6.7-3.8 1.8-1.3.4-2.4.8-2.5 1-.4.3-1 .2-1-.2zm-13.5-1.6c0-1.2 5.2-7.3 6.2-7.3.7 0 .6.4-.5 1.4-1.5 1.3-2.2 2-3 3.3l-.9 1.2 1.2-.6c1.2-.6 4-1.6 4.6-1.6.3 0 .4.1.3.3a23 23 0 0 1-5.9 2.1c-.3 0-.6.3-.8.8-.3.8-1.2 1-1.2.4zm38-.8c-.2-.6 0-1 .8-1 .5 0 .7.2.7.7 0 .5-.2.7-.7.7-.3 0-.7-.2-.8-.4zm-10.3-6.1c-.3-.4-.1-1 .4-1s1.1.7.9 1c-.3.2-1 .2-1.3 0zm-12.7-2c-.7 0-1.2-.5-1-.8.2-.3 2.2 0 2.6.4.8.5-.2.8-1.6.5zm-6.2-.9c0-.3 3.7-1.7 4.7-1.7.6 0 .7.2.4.6l-.2.7c0 .5-1.3.7-1.9.3-.2-.2-.6-.2-1.4 0-1.4.6-1.6.6-1.6.1zM72 73c.6-.1.7-.2.2-.2-.3 0-.6-.1-.6-.3 0-.3-1.3-.3-1.8 0-.3.2-.3.3.1.5.6.3 1 .3 2.1 0zm5.5-.5c-.2-.2-.3-.3-.3 0l.1.4h.4s0-.3-.2-.4zM.9 68.8c0-.4-.1-.1-.1.7v.7c.2-.4.2-1 0-1.4zM103 70.3c1.8 0 2.7-.4 3-1l.8-.8c.6-.5.5-.9-.1-2-.6-1-.7-1-3.4-1.5-1.7-.3-6.4-.6-6.4-.4L98 66a23 23 0 0 1 2.8 4.3c.2.5.4.6.8.4.3-.2 1-.3 1.6-.3zm1.1-1.5c0-.3 0-.6.3-.8.3-.2.4-.5.3-1-.2-.6-.1-.7.4-.6.8 0 1.1 1 .7 2-.4 1-1.4 1.2-1.7.4zm68.6 1.5a8 8 0 0 1 2-.3 30.1 30.1 0 0 0 6.3-1.3c0-.3-1.7-1-2.9-1.2L177 67c-.2-.3-2.7-.3-3.8 0-1.6.5-4.7 2.9-4.4 3.4.2.3 2.9.1 4-.2zm-14.3-.3c1.2-.4 2-1.6 2.2-3.4.5-3 .4-4.8-.4-4.8-.2 0-.3.5-.3 1.8 0 2-1 4.8-1.8 5.2-1.1.6-1.7 1.2-1.5 1.5.1.3.6.2 1.8-.3zm7.8-.1c.3-.3.3-.4 0-.4s-.5.2-.5.4l.1.4.4-.4zm47.5-.4c.4-.2.7-.5.7-.8 0-.2.8-1 1.7-2 1.8-1.5 2-2 2.4-4.6.1-1.1.1-1.3-.7-2-1.3-1.3-1.5-1.2-1.7.8-.1 1.1-.3 1.8-.6 2-.3 0-1.7 2.4-2 3.7a9 9 0 0 1-.9 1.6l-.6 1.3c0 .4.9.3 1.7 0zm-4-4.5c0-.8-.2-1.3-.4-1.4-.4-.1 1-2.5 1.6-2.7.4-.1.4-.2 0-.4-.7-.5-1-.3-1.4 1-.3.8-.7 1.5-1 1.7-.6.3-.6 1.2.1 1.4.5 0 .6.2.4 1.6-.1 1.5-.1 1.5.2.8.2-.5.4-1.4.4-2zm1.5 0c.2-.4.2-.7 0-.9-.3-.4-.8.2-.8 1.1 0 .8.5.7.8-.1zM1 64.2c-.1-.1-.2 0-.2.4 0 .3.1.5.2.3v-.7zm212-2.3.5-1.4c-.2-.3-1 .7-1.4 1.5-.5 1.3-.5 1.2 0 1.2.4 0 .7-.3 1-1.3zm-4.5-.7c0-.7 0-.9-.3-.6-.2.4 0 1.6.2 1.6v-1zm-45.1-2c0-1.4-.2-1.8-.5-1.3-.2.4.1 3 .3 3 .1 0 .2-.7.2-1.6zm-3.6.3-.4-.5-.1.5c0 .3.2.6.4.6.3 0 .3-.1.1-.6zm53.5-2c.2-1.2.1-1.4-.1-1-.2.4-.4.7-.6.7-.4 0-.6 2-.2 2.4.3.4.8-.7 1-2.2zm1.3 1.6c0-.2-.1-.4-.3-.4l-.2.4c0 .3 0 .4.2.4s.3-.1.3-.4zm-2-3.5V54c-.2-.5-.2-.5-.5.4-.4 1-.3 1.8.1 1.8l.4-.8zm-191-2.1c.4-.2.6-.4.6-.5-.2-.2-1.6.2-1.6.5s.1.3 1 0zm86.5-.1c.9-.3 1.3-.6 1.5-1 .2-.6.4-.6-4.2-.2-5.5.4-5.7.4-5.4.9.2.2 1.1.4 2.9.4l3.2.2 2-.3zm49-1c-.3-.6-.3-.6-.4-.2-.2.7.2 1.4.5 1 .2-.1.2-.4 0-.8zm-45.2-.7h-.9c-.6 0-.9 0-.8.2.1.2 1.4 0 1.7-.2zm98.3-.2c-.1-.3-.2-.4-.3-.3v.4c.3.4.5.3.3-.1zm-55.8-1.5-.1.3c0 .3 0 .5.1.3V50zm1.9 0c-.3-.2-.5.2-.3.6.2.3.2.3.3 0V50zm-53.5-.4c2-.5 2.7-.8 2.4-1-.3-.1-.9-.1-1.6 0-.7.2-1.7.2-2.6 0-2.1-.3-3.7-.3-4.7.2l-1 .4h1.4l1.8-.4c.8-.3.5.7-.3 1.1l-.7.5c-.3.3 2.3-.1 5.3-.8zm-13.3-1.2c.6-.3.6-.3 0-.5-1-.5-2.4-.1-2 .5.2.4 1.3.4 2 0zm7.2-1.5c.8-.4 2.8-.7 2.8-.4 0 .2.4.3 1 .3s1.2.2 1.4.4c.6.7 3 .5 2.7-.2 0-.3.2-.6 1-.8.8-.4 1-.6 1-1 0-.5 0-.6.6-.7.4 0 .8-.2.8-.4s.4-.6.9-.8a4 4 0 0 0 1.4-1.3c.7-1.1 1-3 .6-3.5a.9.9 0 0 1-.1-.8c0-.2 0-.4-.3-.4-.2 0-.4-.1-.4-.3 0-.2-.3-.5-.6-.6-.3 0-.4-.2-.3-.5 0-.2.2-.4.4-.3.4.3.2-.1-.4-1.2-.8-1.4-1.3-1.8-1.8-1.8l-.9-.5c-.6-.7-2.4-1.2-5-1.4-1.8-.1-2.1-.2-2-.6 0-.5-.5-.6-1-.2-.4.2-.4.3-.1.4.4.2.4 1 0 1a7 7 0 0 0-1.4.5l-1.2.5v2c0 1-.1 2-.3 2.1-.2.3-.2.5 0 1 .4.6.2 1.2-.3 1.2s-1.5-1-1.5-1.7c0-.4.2-1 .4-1.3.5-.8.6-3.5 0-4.4-.3-.7-.9-.2-1.2 1.2-1 3.6-1.2 4.4-1.5 4.5-.6.2-1.2-.1-1.2-.8 0-.4 0-.9-.2-1.1-.2-.4 0-1.1.5-2.7.5-1.2.8-2.2.7-2.3l-.8.1c-.8.2-1.8 1.5-2.4 3.2-.3.8-.3 1 0 1.9l.8 1.1c.5.3.5.7 0 1-1.2.4-2.5 1.5-2.5 2 0 .2-.1.4-.3.4-.2 0-.4.8-.7 2.7-.1.6 0 1 .3 1.3l.4.7c0 .2 1 1.1 1.2 1.1l.1-.4c0-.3.2-.4 1-.2 1.3.2 1.5.3 1.2 1 0 .4 0 .5.4.3l1.7-.4c1.6-.3 2.9-1.2 2.9-1.9l.4-1.2c.4-.6.4-2 0-3s.5-.5 1 .4c.6 1.2.5 2.5-.1 3.3-.6.8-.7 1-.1 1 1 0 .1 1-1.5 1.8-1 .5-1.8 1-1.8 1.2-.1.4 3.6 0 4.3-.5zm5.6-2.7c-.1-.1 0-.7.3-1.2s.6-1 .6-1.3c0-.3.2-.4.5-.4.2.1.6 0 .7-.3.3-.3.4-.3.5.1.3.6-.8 3-1.2 2.7-.1-.1-.5 0-.8.3-.3.3-.5.3-.6.1zm-5.4-.7c0-.2.3-.6.6-.7l.7-.7c.3-.4.7-.4.9.2 0 .2 0 .6-.4 1-.7.7-2 .9-1.8.2zm7.9.4.5-1.5.5-2c0-.9.5-.5.6.6l.1 1 .3-.8c.4-.7.9-.8.9 0l.4.8c.6.6.5.8-.4 1.3-1 .5-1 .5-1.3-.2-.2-.6-.2-.6-.6.1-.2.4-.5.7-.7.7h-.3zm-13.8-2.3c0-.5.2-.9.8-1.2l1-.3c.2.4 0 1.4-.4 1.8-.8.7-1.4.6-1.4-.3zm-2-.6c.1-.5.7-.6.7-.1 0 .2-.2.4-.4.4s-.4-.2-.3-.3zm-1.4-1.4c0-.3.6-1.2.9-1.2.3 0 .2 1-.2 1.2-.4.5-.7.5-.7 0zm1.6-.7c.5-1 1-1.4 1-.6 0 .6-.8 1.7-1.2 1.7-.3 0-.3-.3.2-1zm9.6-1.7c-.2-.6.1-1 1-1s1 .3.2 1c-.6.5-1 .5-1.2 0zm9.1-.3-.4-1s0-.2.3-.2c.4 0 1.2 1 1.2 1.5 0 .7-.7.4-1-.3zm-7.6-1.2c-.9-.5-1-1.2-.3-1.4 1-.3 1.6 0 1.6 1 0 .8-.3.9-1.3.4zm-3.9-.6c-.2-.6 0-.9.8-1 1-.2 1.5.2 1 .7-.7.6-1.6.8-1.8.3zm4-1.5c-.2-.4 1-.9 1.7-.7.4.2.4.2 0 .6-.7.4-1.4.5-1.7.1zM84.8 47.1s0-.4-.2-.6c-.5-1-1.5-.6-1.2.4.2.3 1.4.6 1.4.2zm-2.6-.6c0-.1 0-.4.2-.7 0-.3 0-.4-.4-.4-.7 0-1 .4-.8 1 .2.4 1 .5 1 .1zM5.8 44.6c0-1.2-.4-1.5-.6-.5-.2.8 0 2.2.3 2l.3-1.5zm103.8.8c.5-.6.5-.6 0-.3-.4.2-.7.5-.7.6 0 .4.1.3.7-.3zm-32.2-.2c2-.7 2.3-1 2.5-2.1.2-.9.1-1.3-.3-2.1-1.2-2.6-2.6-3.5-5.2-3.7-1 0-2.6-.2-3.5-.4-2.6-.5-6.6.2-6.3 1 .1.3.7.4 2 .4 1.2 0 2 .1 2.6.5.7.4 1 .5 1.2.3.5-.4 1.5-.1 1.4.3 0 .2-.5.3-1 .3-.7 0-.8 0-.8.6v.6c-.5 0-1-.4-1-.7 0-.5-1.1-.9-2.7-.9H65l.4.7c.6.8 2 1.4 3.7 1.7 1.2.1 1.3.2 2.1 1.7.5 1 1 1.6 1.4 1.7l.6.3c0 .4 3 .2 4.2-.2zm-4.1-3.4c-.2-.6 0-1.1.9-1.4 1.5-.6 2.8.4 1.7 1.4-.8.6-2.4.6-2.6 0zm-62.8 1.4c0-.7 0-.7-.3-.3-.3.7-.3 1.2 0 1.2.2 0 .3-.4.3-.9zm2.7-3v-1.7c-.3.3-.9 3-.8 4v1l.4-.8c.2-.4.4-1.6.4-2.6zm101.1 2c.2-.1.2-.3 0-.5s-.3-.7-.2-1.1c.1-.7 0-1-.6-1.2-1.3-.6-1.4-.5-1.4 1l-.1 2-.2.9 1.1-.4c.7-.2 1.3-.5 1.4-.7zm-93.2-.1-.7-.9c-.4-.4-.6-.5-.6-.3 0 .4.7 1.3 1 1.3l.3-.1zm2.5-.9c0-.1 0-.3-.2-.4L23 40c-.2-.4-.2-.4-.2.5 0 .7 0 1 .3 1s.5-.2.6-.3zm5.7-.5c0-.2-.3-.3-.6-.3-.2 0-.5.1-.5.3l.5.2.6-.2zm-8-.3c0-.2 0-.3-.2-.3s-.2.1-.2.3l.3.3.1-.3zm21-.5c.2-.2.1-.3 0-.3-.2 0-.4.1-.5.3l.1.2c.2 0 .4 0 .5-.2zM24 37.8c-.6-1.1-.8-1.4-.8-.8 0 .5 1 2.2 1.2 2l-.4-1.2zm19.8 1v-.3c-.2 0-.3.2-.4.3l.1.3c.2 0 .3-.1.3-.3zm-21.4-.5c0-.8-.3-1.3-.8-1.3-.6 0-1-.6-1.8-2.2-.7-1.3-2.4-3.4-2.4-2.9l1.1 2.3a61 61 0 0 1 2 3.2c.5 1.1.8 1.4 1.3 1.4.4 0 .6-.1.6-.5zm60.6-.7c.5-.5 1.4-1.2 2.1-1.6 1.4-.8 1.7-1.4 1-2.2-.5-.4-.3-.7 1.6-3 1.6-1.7 2.1-2.5 1.9-2.7-.4-.4-2.7 1-3.5 2.1-.7 1.1-1.7 1.5-1.6.5l.7-1.3c.5-.8.5-.8-.4.1-.8.9-.9.9-3 1-1.1 0-2.4.2-2.8.4-1 .4-2.5 3.3-2.1 4 .1.2.2.6 0 1 0 .4.1.5 1 .7a4 4 0 0 1 1.6.7c1.7 1.5 2.4 1.6 3.5.3zm-1.8-1.8c-.5-1.5 1.5-2.8 2.6-1.8.8.8.6 1.2-.6 1.7-1.4.6-1.8.6-2 0zM80 31.7c-.2-.4 0-.6 1-.7 1.1-.2 2 0 1.7.4-.5.4-2.5.6-2.7.3zm78.4 6c.4-.3 1-.5 1.3-.5.3 0 .7-.2 1-.4.2-.3.2-.4-.2-.4-.6 0-.5-.1.2-1 .5-.7.5-1 .2-1.4-.3-.5-.3-.6.2-1.1.3-.3 1.4-1 2.5-1.5l1.9-1v-1.2c-.1-1.2-1-3.4-1.5-3.4l-.2.3c0 .2-.5.7-1 1.2-1 .8-1 .9-1.7.5-.7-.3-.7-.4-.6-2.8 0-3 0-2.7.5-3.2.6-.6 1.2-.1 1.2.9 0 .5.1.7.6.8.4 0 .6.3.7.7 0 .3.2.6.4.6.6 0 .5-.7-.1-1.2-.5-.4-.6-.8-.5-1.7.1-2.3 0-2.6-.6-2.5-1.2.3-1.7-2-.9-3.6.5-.9.3-2.4-.3-3.3-.5-.9-.7-3.3-.3-4.6.4-1.4.9-1.5.8-.2-.1 1 .2 1.2.6.4.4-1 1-1 1 .1 0 .5 0 1 .2 1.1.2.1.3.8.2 1.9V13c.4.2 1.1-1 1.1-1.6 0-.4.2-.7.4-.8.4-.2.5-1.2.4-5.1 0-1.2-.7-2.7-1.2-2.9-.2 0-.9.5-1.6 1.3-.7.7-1.5 1.4-1.8 1.5-.2 0-.6.4-.7.8-.6 1.4-1 5.2-1.1 8.4 0 1.8-.2 3.4-.4 3.6-.1.1-.7.3-1.3.3-.6 0-1.2.2-1.3.3-.1 0-.5 0-1-.4-.6-.5-.7-.6-.5-1.7.2-1.7-.6-5.5-1.5-6.4l-1-1.3a19 19 0 0 0-1.4-1.7 7 7 0 0 1-1.2-2l-.6-1.7c-.3-.6-.8-.6-1 0l-.8 2c-.4 1-.7 2.5-1 4.5-.3 3.1-.2 3.7.8 4.9l1.2 2.2c1 1.8 1.3 1.8 1.3 0 0-.5-.3-1.2-.6-1.6-1-1.4-1-5 0-5.2.4 0 .6-.3.6-.8 0-.9.5-.9 1.5 0 .4.4 1 1 1.4 1.2l.6.4-.6.8c-.5.7-.6 1-.5 2.5l.4 2.5c.2 1.4 0 2.2-1.3 2.8-.5.3-1 .7-1 .9 0 .2-.3.7-.7 1.1l-.6 1-.4 1c-.2.3-.4 1.6-.5 2.7a7.6 7.6 0 0 1-.7 3c-.7 1-.7 1.6.3 3 .9 1 1.4 1.4 1.1.6-.1-.2 0-.4.3-.4s.4-.2.4-.8c0-1 .4-1 1.2-.2.7.7.8 1.2.3 1.4-.2.1-.3.5-.2 1 0 .6 0 .7-.4.7-1.2 0 1.6 2.2 3.9 3 1 .3 3.3.2 4.1-.2zm-2.5-.1a.6.6 0 0 1-.3-.5c0-.2-.4-.6-.8-1a3 3 0 0 1-1-1.3c-.1-.7 0-.8.5-.8.3 0 .9.3 1.2.6l.6.6.7-.6c1.4-1 2.2-.5 1 .8-.6.5-.8 1-.8 1.5 0 .7-.4 1-1 .7zm2.3-6c-.2-.3-.2-.5 0-.6.2 0 .3-.4.3-.7 0-.5 1.4-1.8 2-1.8.4 0 .5 0 .1 1.4-.2.8-1.3 2-1.8 2l-.6-.3zm-8-3.8c-.4-.2-.8-.6-1-.9-.3-.6-.3-1.9 0-1.9s1.4-2 1.4-2.7c0-.3.1-.4.5-.4.8.1 1.1 1.3 1 2.8-.2.6-.1 1.4 0 1.8.3.7.3.9-.2 1.3-.7.5-.7.5-1.7 0zm.9-3.2c0-.2-.1-.3-.3-.2l-.2.4c0 .1 0 .2.2.2s.3-.1.3-.4zm4 .5c0-.8.1-1.2.5-1.6 1-1 1.5-.6 1.4.8-.2 1.3-.2 1.4-1.2 1.7-.7.2-.7.1-.7-1zM53.4 36.8c0-.2.2-.4.6-.4.3 0 .7-.2.8-.4.3-.8-1.7-.1-2.5.8-.3.4-.2.4.4.4.4 0 .7-.1.7-.4zm-7.2-1c.6-.3 1.7-.9 2.4-1.1 1.8-.8 3.6-1.7 3.1-1.7l-4 1.5L44 36c-.2 0-.3.3-.3.5 0 .6 1.1.3 2.6-.7zm68.6 1c.1-.2-.3-.6-.9-1-1.2-1-2-2.2-2.2-4-.2-1.3-.7-1.7-2.3-2-.5-.2-.7-.4-.7-.6.2-.3.4-.4 1.7 0 .9.1.9 0 .9-.7 0-.9-.6-1.5-1.3-1.2-.4.1-.3.2.2.7.9.6.6.9-.6.5-.8-.2-1-.2-1.1.1-.1.2-.5.4-.9.4s-.8.1-1 .3c-.6.3 1.3 2.1 2.1 2.1.5 0 .9.3 1.5 1.3.5.8 1 1.3 1.2 1.3.2 0 .5.3.8 1 .4.6.9 1.2 1.5 1.5 1 .5 1 .5 1.1.2zm6.5-1.3c.5-1.4.7-3.6.3-3.6-.1 0-.2.1-.2.3 0 .1-.2.3-.4.3-.4 0-1.3-3.3-1-3.9 0-.2-.3-.4-1-.7a14 14 0 0 0-6.5-1.8c-.5 0-.5 0 0 .4.3.2.7.3 1.1.2.4 0 1 .1 1.7.6.6.4 1 .8 1 1 0 .4-.8.4-1.5 0s-.8-.4-1.5 0c-.7.6-1 1.4-.3 1.6.6.2.5.8-.2 1.3-.5.3-.5.5-.2.8l.3.9c0 .3.3.7.6.9.4.2.7.5.7.7 0 .4 1.6 1.4 2.3 1.4l1.3.4c.4.2 1.3.4 2 .3 1 0 1.1-.1 1.5-1.1zm-2.1.8c-.4-.4-.2-.7.3-.7.3 0 .5.2.5.3-.2.4-.6.6-.8.4zm-2-3.4c-.4-.3-.6-.8-.6-1 0-.8 1-1.4 2-1.3.5 0 1 2 .6 2.5-.4.6-1.4.5-2-.2zm-2.8-3.1c-.2-.2-.5-.5-.5-.7 0-.3.2-.3.7 0 .4.1.7.4.7.6 0 .4-.3.5-.9 0zm-49.6 6.5c.6-.3.6-.7 0-.7-.3 0-.7-.2-1-.4-.8-.5-.8-.3-.2.6.5.7.6.7 1.2.5zm-43-2.3c-.2-1.5-.1-1.8.4-1.3.3.2.5.2.6 0 0 0 0-.3-.3-.5-.4-.2-.4-.5-.3-1.4.1-1 0-1.3-.3-1.2-.5.1-.5.1-.2 1.5.2.6 0 .9-.3 1.3-.7.6-.7 1.2 0 2.7.7 1.5 1 1 .5-1.1zm141.8.7c.5-.5.9-1 .9-1.3 0-.2.1-.7.3-1 .5-.7.1-.8-1-.2-1 .4-1.2.7-1.4 1.6l-.4 1.6c-.3.7.6.3 1.6-.7zm19.9-1.9c.4 0 .8-.3.8-.4 0-.3-1.8 0-2.2.4-.3.2.2.3 1.4 0zm-86.9-2.4c1.1-.9 1.2-1.1.1-1.1-.4 0-.7-.1-.7-.3 0 0 .3-.4.7-.6.5-.1.8-.4.8-.5 0-.3-1.2-.4-1.8-.1-.6.3-.7.4-.6 1.6.2 2 .2 2 1.5 1zm34.1 0V30c-.2 0-.4 0-.5.2l.1.3c.2 0 .4-.1.4-.3zm-5.1-1.5-.1-.4-.3.4.1.4c.2 0 .3-.2.3-.4zm-19.9-.1c0-.2 0-.3-.2-.3s-.3.1-.3.3c0 .1.1.2.3.2l.2-.2zm-32-.6c1-.3 1.6-.6 1.3-.7-.4 0-3.4 1-3.4 1.1 0 .2 0 .2 2-.4zm13-.2c.3-.2.5-.5.5-.6 0-.4-1 .2-1.1.7-.2.5 0 .5.6 0zm6-.8c.8-.4 4-.4 5.6.1 1.3.4 1.4.4 2.6-.2 1.8-1 2.7-1.1 2.7-.6 0 .3.2.4.7.3 1 0 1 .5 0 .8-.7.3-.6.3.7.2 1.3-.2 1.5-.1 1.5.3 0 .3.2.4.5.3.3 0 .5-.2.5-.4 0-.3.2-.4.9-.4 1.3 0 .6-.4-.8-.5-1.4 0-1.6-.5-.4-.8.7-.1.7-.1-.3-.2-1.2 0-1.7-.3-1.6-.8 0-.2-.1-.4-.4-.3-.3 0-.7 0-.9-.2-.2-.2-.8-.3-1.6-.2h-1.2c0-.3 1-.6 1.8-.6.4 0 .6-.1.6-.3 0-.3-.6-.3-2.4.2-1.6.4-2.6.5-2.6.1 0-.8 5.7-1.5 6-.7 0 .3.5.4 1.4.4 1 0 1.3.1 1.3.4 0 .6.5.5.6-.2 0-.6.4-.7 1.5-.3 1.4.4.2-.3-1.3-.8-3-1-10-.2-10 1.2 0 .5-2 1.3-3.3 1.3a3 3 0 0 0-1.5.5c-1.1.9-1.4.2-.2-.8 1-.8.9-.9-.7-.4-1.1.3-2.5 1.4-2.5 2 0 .2.3.3.9.3.9 0 1 0 1 .9 0 .7 0 .8.2.2.1-.3.5-.7.7-.8zm6.3-.3c-.1-.2-.4-.3-.7-.2-1 .3-.5-.5.6-1 .8-.4 1.2-.4 1.5-.2.2.1.8.2 1.2 0h.8c.3.3-.4.9-1 .9l-1.2.4c-.8.4-1 .4-1.2 0zM27.4 28h-.6l.2.1.4-.1zm51.9-.1c.3-.2.3-.3-.2-.3-.3 0-.6.1-.6.3 0 .3.3.3.8 0zm22.6-.3c.6-.3 1-.5.7-.5-.4 0-2.2.7-2.2.9 0 .2.4.1 1.5-.4zm-20.1-.5.5-.8c-.4 0-1.4 1-1.4 1.3 0 .4 0 .3.9-.5zm12 .3c-.2-.1-.4 0-.6.2-.2.2-.2.3.2.1.2 0 .4-.2.3-.3zm-13.2-.7c0-.3-2.2-3.1-2.3-3-.2.2.7 1.8 1.3 2.5.5.6 1 .8 1 .5zm8.1-.9c-.2-.2-.7.2-.7.5 0 .2.2.2.4 0s.4-.4.3-.5zm-8-1.4c-.2-.6-.6-1-.6-.4 0 .2.5 1 .7 1l-.1-.6zm10.5-.6c.2.2.8.1 2-.2.8-.3 1.7-.5 1.8-.4l.7-.1c.8-.5-.6-.6-2.4-.2l-2.4.5c-.3 0-.7.3-.7.5-.1.3-.1.3.3 0 .3-.2.5-.3.7 0zM31 23.6c.8-.3 5-4 4.3-3.8-1.5.6-2.8 1.4-3 1.8 0 .2-.7.8-1.5 1.3a8 8 0 0 0-1.4 1c0 .2.8 0 1.6-.3zm88-2.1c0-.2 0-.4-.2-.4-.1 0-.3.2-.3.4s.2.4.3.4c.2 0 .3-.2.3-.4zm-4.8-.2-.6-.2-.4.2c0 .2.3.3.6.3s.5-.1.4-.3zm-9.8-.5c0-.1-.2-.2-.6-.2-.6 0-.7 0-.2.2l.6.3.2-.3zm12.3-.3-.6-.2c-.3 0-.4.1-.3.2 0 .2.3.3.5.3s.4-.1.4-.3zm-29.3-.1a1 1 0 0 0-.7 0l.4.1c.3 0 .5 0 .3-.1zm21.6-.1c.2-.1.3-.3.2-.4-.2-.3-1.3.1-1.1.4.2.3.4.3 1 0zm14.7-.3c.5-.6.5-.6-.1-.5-.4 0-.7.3-.8.6-.1.6.3.6 1-.1zm-21.3-.1c2.6-.2 3.1-.5 5.8-2.3 2.2-1.6 2.3-1.7 2-2.4-.1-.4-.4-.2-1.3.6-2.6 2.5-5.2 3.7-7.7 3.7-1 0-1.7.2-1.7.6 0 .1.2.2.4 0l2.5-.2zm19.1-.5c.2-.5 0-.5-.7 0-.5.3-.5.3 0 .3.3 0 .7-.1.7-.3zm-12-1.1c1-.6 1.6-1.1 1.6-1.2 0-.3-.6 0-2.2 1.1-1.1.8-1.4 1-1 1l1.7-1zm3 .1c.8-.6.8-.7.3-.7-.3 0-.8.2-1.2.5l-1 .5-.4.3c-.4.6 1.4.2 2.3-.6zm-77.5-.3c.2-.3 1.3-1 2.5-1.5 2.8-1.4 3.1-1.8 1.4-2-.8 0-1 0-1 .6-.1.7-.7.8-2 0-1.4-.7-2-.5-2 .7a3 3 0 0 1-.6 1.5c-.6.9-.6 1 .1 1.1 1.1.2 1.3.2 1.6-.4zm-8.7-.5c.1-.2.2-.6 0-1-.1-.4-.2-.4-.6.2l-.6 1c0 .5.8.3 1.2-.2zm138.3 0c.5-.8 1-2.3.8-2.3-.4 0-1 .7-1.3 1.4-.6 1.4-.2 2 .5.9zM32.1 17c.2-.2.4-.7.4-1.3.1-.5.4-1.3.7-1.7.5-.6.5-.7.2-1-.3-.2-.4-.2-.4 0l-.8.4c-.5.1-.9.4-1 .6 0 .2-.6.6-1.2 1s-1.4 1-1.8 1.5l-.6.6 1 .2c1.3.2 3 0 3.5-.3zm59 0c-.1-.1-.4-.2-.5 0-.2 0-.1.2 0 .3h.7l-.1-.3zm22.8-.3c0-.1-.1-.2-.4-.2-.2 0-.3.1-.2.2 0 .2.3.3.4.3.1 0 .2-.1.2-.3zm-92.6-2.3c-.3-1-.6-1-.9-.4-.2.5.3 1.2.8 1.2.3 0 .3-.2.1-.8zm144.6-1.1c.1-1-.2-1.3-.7-.5-.1.4-.4.8-.6 1l-.4.7c0 .3.1.3.8 0 .5-.3.8-.7.9-1.2zm-52.9.4 1-1-1-.2c-1 0-2.1 1-1.9 1.7.3.7.9.5 1.9-.5zm-86.6-.1c1-.5 2.1-.8 2.4-.8.3 0 .5-.1.5-.3 0-.4-1.3-.3-3.3.2-2 .6-2.5 1-2.2 1.4.3.4.5.3 2.6-.5zM150 14c0-.2 0-.4-.2-.5-.2 0-.3 0-.3.3 0 .2.1.4.3.4l.2-.2zm-133.7-.6c.6-.3 1.6-.5 2.4-.5 1 0 1.4-.2 1.8-.7.4-.6.4-.6 0-.7a8.6 8.6 0 0 1-2.8-.2c-1.1-.2-1.5-.2-2.4.2-.6.3-1.5 1-2 1.5l-1 1h1.5c1 0 1.8-.3 2.5-.6zM157.9 12c0-3.6.3-5 1.8-7.2.8-1 1.3-2 1.3-2-.2-.2-9.2-.2-9.4-.1-.2.3 1.4 3.8 2.9 6.2.8 1.3 1.6 2.7 1.7 3.2.2.8 1.1 2 1.5 1.8l.2-2zm-119.5 1c.2-.3 1.1-.9 2-1.3 2.5-1.3 3-3.5 1-3.9-.9-.1-3.6.2-4.3.6-1.3.7-3.6 2.4-3.7 2.7-.2.4.6 1 1.2 1 .3 0 .5.2.5.4 0 .1.4.5.9.7.9.6 1.6.5 2.4-.3zm-3.5-2.5c0-.2 1-.6 2-1 1.5-.5 2-.5 2.2-.3.3.3.3.4-.2.8-.2.2-.6.3-.8.2-.2 0-.8 0-1.3.3-1.2.4-2 .5-2 0zM45.3 13h-.5c-.2 0-.1.1.2.1.3 0 .4 0 .3-.1zm-22.6-.2c0-.3-.5-.4-.7-.2 0 .2 0 .3.2.3l.5-.1zm2.2-.5c1-.5 1.8-.6 4-.6h2.6l1-1C33.8 9.3 34 9.1 34.1 8l.2-1h-1c-.5 0-1 0-1-.3-.2-.5-.1-.6 1.7-1 1.4-.3 1.6-.3 2 .1.4.4.7.4 2 .2 1.5-.3 1.7-.4 1.3-.9-.2-.1-.3-.6-.3-1 0-1-.8-1-1.2-.2-.3.8-1.3 1-1.7.4-.2-.2-.7-.4-1.2-.4s-1-.2-1.4-.4c-.5-.3-6.7-.8-7.4-.5-.9.3.3 1.7 1.5 1.7 1.5 0 2 .7 1.2 1.5-.2.3-.1.4.6.2 1.1-.2 1.7.5.7 1a5 5 0 0 1-1.5.2c-.5 0-.8.2-1 .6-.3.5-.3.5.6.4 1.6-.3 3.2.6 2.7 1.4-.3.4-1.1.3-1.3-.2-.2-.6-2.4-.5-3.8.2-1.3.6-2.7 2-2.7 2.5s.2.5 1.7-.2zm145.3-2a30.8 30.8 0 0 1 4.6-4.2c-.4-.2-2.1.7-2.1 1 0 .4-1.6.7-3.4.7-1.1 0-1.2-.6 0-.8a79.1 79.1 0 0 0 8.4-2.7c.5 0 4.7-1.2 5.3-1.4.3 0 .3-.1 0-.3-.5-.3-16.3-.2-16.6 0 0 .1.1.6.4 1 .3.8.4 1.6.5 4.1 0 4 0 5.2.2 5.2l2.7-2.6zm31.3.9c1.9-.4 2-.5 1.6-1-.2-.3-.2-.7-.2-1 .2-.3 0-.3-1-.2-1.8.3-2 .4-1.7.8.5.6 0 1-1 1-.6 0-1.3 0-1.6.2-.3.1-.3.2.5.3 1.4.3 1.6.3 3.4-.1zm-188.9-.3c0-.2-.3-.5-.6-.7-.8-.6-.4-1.1.7-1 1 .2 2.3-.3 1.8-.7L12 8.1C10 8 9.9 8 9 8.7c-.6.4-1 .9-1 1 0 .1.5.3 1.1.4.7 0 1.5.4 2 .6 1 .7 1.4.7 1.4.2zm-7-1.5C5.3 9 7 7.5 9.4 6l2-1.5.7-.4c.9 0 .3-.4-.8-.6-2.6-.4-5.6.6-6.2 2a20 20 0 0 0-.8 4.6v1l.6-.7c.3-.3.6-.7.5-1zm18.4.7c.6-.5 1.2-1 1.4-1 .6 0 .5-.3 0-.9-.4-.2-.6-.8-.6-1.2 0-.8 0-.8-1.1-.6-1.3.2-2 .2-5.6 0-2.4-.2-4.6.2-4.3.7l.5.2c.3 0 1.5.4 2.8 1 1.4.5 3.2 1 4.2 1 1.7.2 2.2.6 1.6 1.3-.6.8 0 .4 1.1-.5zm25.3-.1c.2-.6-.5-.2-1 .5l-.4.7.7-.5c.3-.2.7-.5.7-.7zm1.5-1.4c.1-.1.1-.2 0-.2-.3 0-1.2.7-1.2.9 0 .2 1-.3 1.2-.7zm-3 .2c.9-.5 1.6-1.6 1.6-2.6 0-.4-.3-1-.7-1.3-.3-.3-.6-.8-.6-1 0-.5-.3-.5-2-.5-1.1 0-2 .1-2 .2l.5.7c.6.5.7 1.4.2 1.4L43 4.8c-1.5-1-3-1.3-2.8-.5 0 .3.4.7 1 .9.6.3.7.5.6.8 0 .4.1.6 1.1 1 .9.4 1.3.8 1.5 1.4.3.7.5.8 1.5.8a5 5 0 0 0 2-.4zm4.4-2.2c1.3-.9 1.7-1.4 1.2-1.4-.2 0-.4.1-.4.3l-1.2.5c-.8.2-1 .4-1.2 1v.6l1.6-1zm-39.6-.2c0-.5 0-.5-.6-.2-.6.2-.6.6 0 .6.4 0 .6-.2.6-.4zm199-.6c0-.6-1.2-.8-2.5-.4l-1.4.5 1.8.1c1.2 0 2-.1 2-.2zM57.7 4.7c1.7-1 2-1.3 1.4-1.5-.3-.1-.8.1-1.3.5l-1 .7-1 .3c-.6.2-.6.3-.3.5.6.4.7.3 2.2-.5zm-41.4-.2 1.3-.9 1-.5h-1c-1.5 0-2 .2-2.1 1-.2 1 .3 1.1.8.4zm196.9.2c.3-.2.1-.3-.5-.3-.5 0-.8.1-.7.3.2.3.6.3 1.2 0zM61.6 3.6c0-.5-.5-.2-.7.3 0 .4 0 .5.3.2l.4-.5zm150-.1c.7-.5-.5-.8-3.3-.9-1.6 0-2.8 0-2.5.1l1.6.8c1 .5 1.5.5 2.6.4l1.6-.4zm-19.2-.7c0-.1-.5-.2-1.2-.2-1.3 0-1.4 0-.8.3.6.4 1.8.3 2-.1zm7.3-1.8c0-.2-.2-.3-.3-.3-.1 0-.3.1-.3.3l.3.2c.1 0 .3 0 .3-.2z"/>
</svg>
