<?xml version="1.0" encoding="utf-8"?>
<svg xmlns="http://www.w3.org/2000/svg" xmlns:svg="http://www.w3.org/2000/svg" version="1.1" viewBox="0 0 182 135">
  <title>Mr. Tod walks out of the front door, with his big fluffy tail behind him.</title>
  <path d="M139.5 134.3c-6.8-.3-9.7-.3-42.4-.3a4976.2 4976.2 0 0 1-84.6-.4l-3.8-.1v-.7c0-.3-.1-.6-.4-.6-.5 0-.5.1-.1.8.3.5.2.6-2.3.4-2.8-.2-3.8-.5-4.4-1.5-.5-.8-1.1-8.2-.9-11.2A1624.5 1624.5 0 0 0 .2 49a1924.5 1924.5 0 0 1 0-46.6c-.2.2-.2.1-.2-.1s.6-.6 1.2-.9C2 1 2.6 1 5.5 1 7.3 1 10 1 11.1.7a968.8 968.8 0 0 0 40.6.5A22.5 22.5 0 0 0 57 1c.1.3 30.2.3 46.8 0a7031 7031 0 0 1 55-.9c8-.1 18 .3 19.9.9 2 .6 2 1 2.5 7 .3 3.9.4 6.3.2 8.6a1599.5 1599.5 0 0 0-.2 58.2l.1 10c.2 3.8.1 7 0 9.3a357.8 357.8 0 0 0 0 38.5c-.2.3-.7.7-1.2 1-1 .5-1.4.5-20.6.6-5.9 0-11.6.2-12.8.3l-7.2-.1zm-50.9-3.4 2.3-.2c-.2 0-.4-.2-.4-.3 0-.4 5.1-.6 17.2-.6 11.1 0 14 0 14-.5 0 0-1.2-.2-2.6-.2l-19.7-1c-1-.4-.2-.5 4.3-.5 2.8 0 4.8 0 4.9-.2 0-.1-.9-.2-2.5-.2-3.9 0-7.4-.5-7.4-1 0-.4.8-.5 7.3-.5 6.6 0 7.8-.1 7.4-.5l-9.5-.3c-8-.1-10.3-.3-9.7-.7h6.3a646.3 646.3 0 0 0 18.8.4l5.4.3c5.6.1 7 .3 5.8.7-.3.1 0 .2 1 .2 1.2 0 1.5 0 1.4-.3-.1-.3.3-.4 2-.5 3.6-.3 17-.4 16.8-.2-.4.4-3.5.9-5.9 1a8 8 0 0 0-2.8.3c-.3.3-.5.3-.7 0-.5-.4-4.7-.4-4.8 0 0 .3-.9.4-2.7.4l-6.2.3-3.6.2 2.1.2 12.4.4a43.9 43.9 0 0 1 11.9.7c.8-.1 1 0 .9.2-.2.2.1.3 1 .3 5.9 0 17.3.3 17.4.5.1.1-5 .2-11.5.2a418.5 418.5 0 0 0-18.7.1c0-.2.7-.3 1.8-.4h-4.8c-3.6 0-6.7.1-6.8.2 0 .1 1.8.2 4 .2 6-.1 6.3 0 .7.2-3.3.1-4.8 0-5.3-.2s-1.6-.2-5 0l-4.2.5c0 .1 1.5.3 3.2.4 4.3.2 44 0 47.4-.3l2.5-.2 1.4-1.4c1.4-1.4 1.4-1.5 1.6-3.3l.4-11c0-5.1.3-9.5.4-9.9.4-1 .6-7.6.2-7.6-.2 0-.3-1-.2-3.3a125.2 125.2 0 0 0-.3-6.5c0 .7-.2 1.3-.3 1.4-.3.3-.3-1 0-2.3v-1.3c-.2-.3-.2-.2-.2.1 0 .3-.1.5-.3.5-.1 0-.2-.3-.1-.6.4-2 .6-3.9.8-6.4.2-3.6.3-14.6.1-16.7 0-1.5-.1-1.5-.3-.7-.2 1.2 0-4.4.3-6.6.4-2.3.3-4.7 0-4.7l-.2-.6c0-.3 0-.5.2-.4.2.1.3 0 .3-.2s-.1-.4-.3-.4c-.1 0-.3-.7-.3-1.6V45l-.3 1.5-.4 5.7-1 9.9c-.5 4.4-.5 6.3-.4 8.6.2 2.5.2 2.8.5 2.2a59.9 59.9 0 0 0 1.4-10.7 88.2 88.2 0 0 0-.3 6.2l-.6 8.5a71 71 0 0 0-.3 10c0 4.4 0 5.5-.2 4-.3-2.8-.4-2.8-.6-.2l-1.2 13-.2 5.4c0 1.8-.2 3-.3 3-.5 0-.3-5.3.3-10.9 1-10.4 1.5-17 1.3-19.3l-.2-1.7-.6 3.3a159.5 159.5 0 0 0-1.7 10.6c-.3 1.7-.8 2.8-.6 1.3.3-2.1.5-7.8.2-7.5-.2.2-.4 2.6-.5 6.3-.3 6.4-.8 11-1.1 11.4-.2.1-.2-.3-.2-1a490.7 490.7 0 0 0 1-13 85 85 0 0 0-.6-21.2c0-2.4-.3-7.3-.5-7.2l-.7 2.7-1 3.4c-.2 1-.2 7 .1 7.2.2.1.3-.1.3-.6a17.2 17.2 0 0 1 1-3.8 92.7 92.7 0 0 0-1.4 13c-.2.2-.2.3 0 .3s.4.3.4.6c0 .4.1.7.2.7a67.6 67.6 0 0 1 1.5-9.3c.2-.1.2.5-.5 5.9-.3 1.8-.6 4.9-.7 6.8l-.6 7a105 105 0 0 0-.6 7.4c0 2.2-.2 4.1-.4 4.3-.2.1-.2.1-.2 0 0-.2-.5-.4-1-.5-.9-.1-1.1 0-1.5.4-.4.5-.4.5-.4.2 0-.5-.4-.5-3.7-.6-2 0-2.8 0-1.8-.1 2.3-.1 2-.6-.3-.6l-6.3-.4a167 167 0 0 0-11-.4c-5.7 0-7.3-.2-6.2-.6a250.4 250.4 0 0 1 28.3 1.5h.8v-2.3c.1-1.6 0-2.2-.1-1.8-.2.5-.2 0 0-1 0-1.6 0-1.9-.4-2a33.8 33.8 0 0 1-8.7.5c-7.2-.1-8.5-.2-7.8-.7l1-.3-1.2-.2h3a268 268 0 0 0 10.2 0h4l.2-1.4.2-2.6v-1.3h-1.2c-1 .2-1.3.3-1.6.8-.3.8-.6.7-.4-.1 0-.6 0-.7-.5-.7-.6 0-.6 0 0-.1.5-.2.9-1 .6-1.6 0-.2-.5-.4-1.1-.4-1 0-1 0-1 1 0 .5 0 .9.3.9.2 0 .2 0 0 .2-.3.1-.5.7-.6 1.3l-.2 1v-1.2c-.1-1-.2-1.1-.7-1h-2.2l-1.6-.3h1.6l2.3-.1c.5 0 .6-.2.6-.9v-.7h-3.3c-3.7-.1-5.6 0-5.6.5 0 .1.6.3 1.3.4l1.3.2h-1.3c-1.2 0-1.6.4-.8.7h2l1.8-.2v.8c-.1.6 0 .7.8.9.8.1.8.2.4.3-.3.2-1.2.1-2.1 0-2.1-.4-3.3-.4-3.3 0 0 .2-.2.1-.5-.1-.6-.6-5-1-5.1-.4 0 .2 0 .2-.2 0-.2-.3-.8-.4-2-.3-1.5 0-1.6.1-1.7.8 0 .6 0 .7 2 .8 1 .1 2 .3 2 .5 0 .1-.4.2-.7 0l-2-.1c-1.2 0-1.5 0-1.6.4 0 .2.1.4.4.5.3 0 0 .2-.4.2-.5 0-1.1-.1-1.3-.3-.4-.2-.3-.2.2-.2.4 0 .7 0 .8-.4 0-.3-.1-.4-.7-.5h-.7l.7-.2c.7 0 .8-.3.8-.8 0-.6 0-.6-1.4-.7-4.2-.2-6.2-.2-6.3.1 0 .2.2.4.8.4.5 0 .7 0 .5.1-.2.1-.3.3-.3.4 0 .2.8.3 2.3.2h2.2l-.2.7c-.2 1-.3 1.2-.6 1-.2 0-.2-.3 0-.5s.3-.5.1-.6c-.3-.3-4.5-.4-4.8-.2l-.8.2-.6.2c0 .2.3.3.7.3.3 0 .7.1.8.3.1.2-.2.3-.9.2-2.4 0-3.5 0-3.5.4 0 .5 2 .7 7.4.7 6.7 0 8.5 0 8.5.2 0 .1-1.5.2-3.4.2h-3.4v.9c-.1.8 0 1 1 .8a87.8 87.8 0 0 0 17.3 1.6c6.7 0 6.7 0 6.7.3 0 .2-.7.2-2.2.2-3 0-3.2.2-.4.4l2.7.4c.6.3.4.3-6.8-.3-2.2-.2-5.5-.3-7.3-.3-2 0-3.4-.1-3.5-.3l-3-.4-7.1-.5a65.6 65.6 0 0 0-8.5-.2c.2 0 .4-.2.4-.3a119.8 119.8 0 0 0-14.1 0 9 9 0 0 1 2.5-.5l2.2-.3h-3.2c-4.2-.1-9.6-.5-7.8-.5.7 0 1.4-.2 1.5-.4.1-.1 1.7-.2 4.6 0 4.5.1 4.5.1 4.5-.4s-.1-.6-1.1-.6l-1.1-.1h1l1.1-.2v-1c0-.7-.2-1.2-.2-1.3l-2.8-.2c-1.5 0-2.8-.2-3-.3-.2-.2-2.3-.4-4.6-.5-4.7-.2-7-.5-7.2-1 0 0-.3 0-.6.3-.3.2-1 .4-1.6.4l-1.2.2c0 .2.5.3 1.3.3.7 0 2 0 2.6.2 1 .2 1 .2.6.4-.5.2-.5.2 0 .4.4.1 0 .3-1 .4-1.4.2-2.4 0-2.1-.4 0-.1.7-.3 1.4-.3s.3-.1-1.2-.2a35 35 0 0 0-4.4 0c-2.3.1-2.6 0-3.3-.1-.5-.2-.7 0-1 .7-.3.8-.5 1-2 1.2a7 7 0 0 0-2 .7c-.5.4-.5.4.3.4.4 0 1.4-.2 2.2-.5 1.5-.5 2-.5 1.7 0 0 .2 0 .2.4.2.3 0 .6 0 .6.2 0 .1-.7.4-1.5.6l-6.7 1.5c-.3.1 0 .3.6.4.6.2 1.2.1 1.5 0 .6-.4 1-.4 1 0 0 .5-3.9 1.3-4.1.9-.2-.2-1-.2-2.2-.1-2 .2-6 .2-4.6 0 1 0 1.5-.6.7-.6-.9 0-1.7.4-1.7.7 0 .2-.3.4-.7.4-.4 0-.2.2.6.3l8.4.2a33.3 33.3 0 0 1 9 .6c1.4 0 2 0 2 .2-.3.3-5.8.2-7.2-.1-.5-.2-.7-.1-.6 0 .2.3-.5.4-2.2.4a178.9 178.9 0 0 0-7.3 0l4.8-.2c2.1 0 3.8-.1 3.7-.2a148.3 148.3 0 0 0-15.2.2c0 .2.6.2 2.2 0 1.3 0 2.3 0 2.5.2.4.2.3.3-.4.3-2.5 0-3.6.2-5.5.8a66.9 66.9 0 0 1-4.2 1.1l-.8.3.2 7.3.2 10.7c0 4.2 0 4.5 2.7 4.8a161.3 161.3 0 0 0 19.6-.2c.3.3-1.6.5-6.7.7l-5.2.4c-.6.3 12.2.3 16 0zm-23.4-2a2 2 0 0 1-.8-.5 31.6 31.6 0 0 0 4.4 0c2.4.1 3.6.2 3.5.4-.1.2-6 .3-7.1 0zm-2.4-.7c0-.1 0-.2.3-.2.2 0 .3 0 .2.2 0 .2-.2.3-.2.3l-.3-.3zm92.2 0c2.6-.3 13.7-.5 13.1-.3a77 77 0 0 1-13 .3zm-90.3-1c-1.3-.2-1.2-.2.7-.2 1.2 0 2 0 2 .2 0 .3-.6.3-2.7 0zm86.6 0a50.4 50.4 0 0 0-8-.2 91.3 91.3 0 0 1 18.7-1.4s-1.5.3-3.2.4l-8 .5c0 .1 2.4.4 6.5.7l2.6.2h-2.5c-1.4 0-4.1-.1-6-.3zm-87.3-1c-.7-.1-1-.3-.8-.4.5-.2 3.5.4 3.5.6 0 .3-1.3.3-2.7-.1zm-.3-1.9c-.5 0-.7-.2-.7-.5s.1-.3.5-.2l1.8.3c.6.1 1 .3 1 .4 0 .2-1.2.3-2.6 0zm57.3-.3c.9-.3-9.6-1-15.5-.9-3.2 0-5.7 0-5.6-.2 0-.1 1.6-.2 3.3-.2 1.8 0 3.8-.1 4.3-.3l1-.2-.8-.1-3-.3c-4.1-.3-8-.8-8.3-1-.4-.4.1-.5 2.2-.3 2.2.2 2.8.2 2.6-.2-.1-.2.2-.3.7-.3.7 0 .8 0 .2-.2-.4 0-.8-.2-.9-.3-.1-.1-2.5-.3-5.2-.3-3.4 0-5 0-5-.2 0-.3 1.7-.3 5.8-.2l12.1.2a44.2 44.2 0 0 1 10.3.8c-.1.1 1.2.2 3.9.3 2.2 0 3.7 0 3.2.2a58.7 58.7 0 0 0 12.3.3c3.9-.4 6.3-.4 6.5 0a157 157 0 0 0-8.5.6c-4.9.4-7.6.4-17 .4-3.5 0-7 .2-6.8.4.1.2 19.3.5 27.6.5 4.4 0 8 0 7.9.2l-1.5.2a45.8 45.8 0 0 1-7.8.6h-6c.3-.2.4-.3.3-.4-.1-.2-.5 0-1 .5l-.6.6h-5.6c-3 0-5.4 0-5.1-.2zm9.4-.7h-1.1c-.3 0-.1.1.5.1.5 0 .8 0 .6-.1zm-11.2-.3h-.9l.5.1h.4zm-4.5-2c3.3 0 4.7 0 4-.2l-5.6-.2-7.9-.2-3.2.1c-.1.2.4.4 1.2.4 4.6.5 5.7.6 6.1.4l5.4-.2zm8-.1a7 7 0 0 0-1.6 0c-.5 0-.2.1.7.1.9 0 1.3 0 .9-.1zm-5.8-.9c0-.2-7.2-.5-11-.5-3.1 0-3 .5.1.6h11zm11 .1h1.3l-.6.1h-.6zm5.8 0c.1-.2.7-.3 1.4-.3 1.1 0 1.2 0 .5.2-1.2.3-2 .3-1.9 0zm-16-1.1c.2-.2.6-.3 1-.3.6 0 .4.2-.6.4-.6.1-.7 0-.4-.1zm3.1-.2h.7l-.3.1c-.4 0-.6 0-.4-.1zm2.7 0h1.2l-.6.1c-.7 0-1 0-.6-.1zm3 0c1.7-.5 1.8-.5-18-.6-15.4 0-21-.3-21.6-.8-.2-.2-.1-.4.1-.6.3-.3 1.9-.5 5.6-.7l8.8-.6a277.8 277.8 0 0 0 32.3 0c.7 0 1.2.2 1.2.3 0 .2-.4.3-1.2.2-.7-.1-3.7 0-6.6.2a207.7 207.7 0 0 1-12.3.4c-.5-.3-.6-.2-.8 0-.2.3-.3.3-.5 0-.1-.2-2.1-.3-8.5-.3-9.3 0-18.2.5-16.1.9 1.2.2 11.7 0 13-.2.5-.1.7 0 .7.3 0 .4 1.2.5 1.5 0l.7-.2c.4 0 .5.1.3.3-.2 0 4.6.3 10.7.4 13.1.2 12.4.2 13.4.7.8.4.8.4-1.3.4-1.5 0-1.9 0-1.3-.2zm4.4-.1c-.5 0 .3-.2 2.2-.3 4.2-.3 6-.3 5.6 0-.2.3-6.3.5-7.8.3zm36.2-1a1773.4 1773.4 0 0 0-11.5-1.3 113.8 113.8 0 0 1 17.5 1.4c-.1.4-.9.4-6-.1zm-11.4-2.7c-.1-.1.1-.3.5-.3.8 0 .9.2.1.4l-.6-.1zm7.3 0c-2.9 0-5.2-.1-5.3-.2-.1-.1-1.9-.3-4-.4-3.3-.2-3.7-.1-4 .3-.2.4-.2.4-.2 0 0-.3-.2-.5-.6-.5-.3 0-.5 0-.4-.2h5.2a653.5 653.5 0 0 0 17.1.6c.4.3-.3.7-1.4.6l-6.4-.1zm-74.4-.3c-.3-.1.6-.2 2.7-.2 5.3 0 12.5-.3 13-.6.2-.1-.9-.2-2.6 0-2 0-2.8 0-2.5-.2.2-.2.7-.3 1.1-.3.4 0 .8 0 .8-.2s-.9-.2-2-.2a160 160 0 0 1-18.7.7s2-.3 4.3-.4l6.3-.4c1-.2 9.4-.4 18.5-.4a115.2 115.2 0 0 1 18.1.3c1.8-.2 3.3 0 3.3.4a18.5 18.5 0 0 0-4.5.2 270 270 0 0 1-9.3.9c.1-.2 1.4-.4 2.7-.6 5-.6 5.3-.7 1.5-.8-6.2-.2-12.1-.2-14.2 0-1.6.2-1.3.2 2.2.2s7.5.4 6.3.6h-5.7c-3.4 0-5.1 0-4.9.2.6.4-.3.5-7 .8-7.4.4-8.9.4-9.4 0zm15.9-1.7h-1.1l-1.5.1c.2.2 1.6.2 2.6 0zm10.8 1.3h.5c0 .1 0 .2-.4.2-.3 0-.3-.1-.1-.2zm23-2A706.7 706.7 0 0 1 155 111a192 192 0 0 0-20-1.2 97.4 97.4 0 0 1 16.6.5 228.3 228.3 0 0 1 12.4 1c-1.5 0-2.2 0-2.1.2a82.4 82.4 0 0 0-9.7.3c-5.4.4-15 .6-13.7.3zm-57.8-.4c-2.4-.4.4-.7 8-.7 4.4 0 8.1-.2 8.3-.3a207.2 207.2 0 0 1 19.3-.1l-6.4.2-10.2.3c-14.5.8-16.8.9-19 .6zm1-1.6c1.9-.4 21.7-1 21.4-.7l-8.3.4a2834.7 2834.7 0 0 0-13.1.3zm-8.6-.8c.6-.7 2.4-.9 9.1-1.1 9.7-.4 13.8-.6 14-.8a232.6 232.6 0 0 1-18-.3c1 0 1 0-.3-.2a22 22 0 0 0-4.1.1c-4.9.6-6.4.4-2.8-.3 2.7-.5 8-.8 8.4-.4.2.2 1.2.2 2.6.2a677.4 677.4 0 0 1 17-.4c.1.2-.6.3-2.2.3-4.6 0-8.9.2-9 .3 0 .1 2.2.2 5.1.2 8.3 0 19.2.3 19 .5 0 .2-1.9.3-4 .3-2.2 0-4 0-4 .2s-11.5.7-16 .6a266 266 0 0 0-14.8.8zm13.9-2.4c.3-.1-.7-.2-2.4-.1-1.7 0-3 .1-3.2.2-.2.2 4.9.1 5.6-.1zm16.7 2.5c.1-.2 3-.3 3.3 0l-1.6.1a6 6 0 0 1-1.7 0zm5.4 0h2.8-2.8zm39.5-1c0-.1-3.2-.2-6.9-.2s-7.2-.2-7.8-.3a518.7 518.7 0 0 0 17.8.1c-.1.2-3 .5-3.1.3zm-72.6-1c-.1-.1 0-.3.4-.3.3 0 .5.2.5.3 0 .1-.2.3-.4.3s-.4-.2-.5-.3zm-10.7-.5c0-.3 1.8-.7 2-.4.2.2 0 .3-1 .5h-1zm110.5-2.8.3-4.8a126.1 126.1 0 0 0 1-9.9c.4-.3-.8 15-1.2 16.8-.1.5-.2-.4-.1-2.1zm-107.2 2.2c-.1-.1.2-.2.8-.2.6 0 1.3-.2 1.6-.4.5-.3 1.3-.4 20.7-.9 4.7 0 7 0 6.8.1 0 .2-3.7.4-9.6.5-13.4.3-15 .4-19.3 1-.5.2-1 .1-1 0zm60.6-.1-3-.1c-1.7 0-2.7-.2-2.7-.3 0-.2 1.5-.3 5.3-.1 5.8.2 8 .6 3.4.6l-3-.1zm-8.5-1.2a100.2 100.2 0 0 1 14.5 0c0 .2-14.4.2-14.5 0zM117 104c0-.1-.1-.3 0-.4.2-.3 9-.3 9.7 0 .4.2-1.2.3-4.1.3a52.4 52.4 0 0 0-5.6.1zm10.9-.3h.5c0 .1 0 .2-.4.2-.3 0-.3-.1-.1-.2zm-44-.8c.1-.3 2.2-.6 2.2-.3 0 .2-1 .5-1.8.5-.3 0-.5-.1-.4-.2zm57.5-2c.1-.2.4-.2.6 0h-.6zm3-.4h1.3c.4.1 0 .1-.7.1h-.6zm-41-.6c-.7-.4 0-.4 5.4-.6h4.7c-.3.2-2.2.3-4.3.3a32.2 32.2 0 0 0-5.9.3zm41-1c-.7-.1-.9-.2-.6-.3.4-.2 3 .2 3 .4s-1.3.1-2.5-.1zm-42.3-.5c-3.4-.2-2.3-.8 1.3-.6 2.6 0 4.6.5 2.5.5l-1.7.1h-2zm39.8 0h.7c.1.1 0 .2-.4.2-.3 0-.5-.1-.3-.2zm-29.2-.3h2.3c.7.1 0 .1-1.2.1h-1.1zm21.1 0h1.4c.3.1 0 .2-.8.2-.7 0-1 0-.6-.2zm27.2 0c0-.2.1-.3.3-.3.1 0 .2.1.1.3l-.3.2v-.2zm-60.3-1.2c0-.2.1-.5.3-.6h.1c0 .2.6.3 1.7.2 1 0 2.6 0 3.7.2l2 .3h-2.4l-3.9.1c-1.2.2-1.5.1-1.5-.2zm69-27.3c0-.7.2-1.5.3-1.7.3-.5.3 1 0 2.3-.2.7-.2.6-.2-.6zm-59.5 61c.5-.3-10.8-.5-15.6-.2-3.2 0-3.3.3-.1.5 3.8.2 15.2 0 15.7-.3zm-53.6-3.3c0-.4-.2-.7-.3-.7-.3 0-.1 3.4.1 4 .3.5.4-2.5.2-3.3zm-35 2.5c-.5-.2 0-.2 1.2-.1 5.6.4 7.8.5 7.8.2l-.2-.4-5.3-.3-7.8-.3c-2.3-.1-2.8 0-3.1.2-.3.4-.2.5.5.6 2.4.4 8 .5 6.9.1zm25.6-.6c.2-.3.3-.4.1-.4-.1 0-.3.1-.4.4-.1.2-.1.4 0 .4l.3-.4zM10 129l-1-.2c-.6 0-.8 0-.5.2.6.4 1.7.4 1.5 0zm25 0-.3-.4c-.4-.2-3.2.2-3 .5.2.3 3.3.3 3.3 0zm18.1 0-.4-.2c-.1 0-.2 0-.2.2s.2.3.4.3.3-.1.2-.3zm97 .1c.3 0 .4-.2.3-.3-.4-.3-2.2 0-2.2.3 0 .2 1 .3 1.9 0zm-21.2-.4s-.7-.2-1.6-.2c-.9 0-1.5.1-1.4.2.2.3 3 .4 3 0zm-99.1-.1h-1.3H29.7zM45 127v-1.8c-.3-.9-.7.1-.7 2 0 2 .5 1.9.7-.2zm4.6.5c0-.2-.1-.3-.2-.3-.2 0-.3.4-.3.8 0 .8 0 .8.3.4l.2-.9zm74.8 1a7 7 0 0 0-1.5 0c-.5.1-.2.2.7.2.8 0 1.2 0 .8-.1zm18.6 0c3.9 0 4 0 1.9-.3-3.8-.3-13.5-.3-13.5 0 0 .4 3.6.5 11.6.3zm-90.8-2c0-.4-.1-.1-.1.7v.7c.2-.4.2-1 0-1.4zm77.1 1.6h-1.2 1.2zm-95.8-.5c.2-.2.2-.4.2-.5 0-.2-3.2-.4-9.3-.6-6.6-.2-10-.2-10.6.2-.5.3-3.6.1-4.5-.2l-.4.1c0 .5.8.6 8.4.7l10.1.4c4.2.3 6 .2 6.1 0zm91 .2h-.6c-.2 0-.1.1.2.2.3 0 .4-.1.3-.2zm1.1 0a1 1 0 0 0-.6 0l.3.1c.4 0 .5 0 .3-.1zM42 126.6c0-1.4-.2-2.3-.5-2.3s-.3 2 0 2.8c.2 1 .5.7.5-.5zm17.6-.5c-.1-1.1-.2-1.5-.4-1.4-.3.3 0 3 .3 3 0 0 .1-.7 0-1.6zm50.5 1.4a1 1 0 0 0-.6 0c-.2.1 0 .2.3.2s.5 0 .3-.2zm-72.2-.9c-.7-.3-1.8-.3-1.5 0 .3.3 1.4.5 1.8.3.1 0 0-.2-.3-.3zm89.3-.3a221.4 221.4 0 0 0-22.1.4l15 .3 7-.7zM47.5 124c-.2-2.8-.6-5.1-1-5.1-.2 0-.2.5-.1 1.5l.3 2.7c.3 3.8 1 4.6.8.9zm12.8-3.6c0-4.7 0-6.1.2-6.3.3-.1.4-1.1.5-3.3 0-2 .2-3.2.4-3.5.3-.3.3-.4 0-.5-.4-.2-.4-1.8 0-2.5.2-.4.1-.7-.1-1.2-.3-.4-.6-2.1-.7-3.8l-.6-5.1c-.2-2-.2-5.4-.2-12.5V38c0-19-.4-31.7-1-34.4-.4-2-.5 2-.5 20.1 0 17.8-.2 35.5-.3 30.5 0-1.4-.2-1.9-.3-1.5-.3.6-.2 12.7 0 18.3a621.8 621.8 0 0 1 .8 23c0 5 .1 5.4.5 5.4s.5.2.4.7a152.5 152.5 0 0 0 .1 16.3c.3 0 .4.5.3 2.5 0 2.4.2 7.7.4 7.7v-6zm-.1-12.1v-.3c.2 0 .4.1.4.3l-.1.3-.3-.3zm-.5-1.8v-1.1c.3-.6.3-.6.4-.2.4 1 .4 1.2 0 1.5-.2.2-.3.2-.4-.2zM58.2 57c0-.4 0-.5.2-.4v.7c-.1.2-.2 0-.2-.3zm-25.7 68.6c0-.3-.6-.4-2.7-.4-2.7 0-9.2-.3-16-.8-2.7-.2-3.6-.2-3.8 0-.1.3-.8.3-2.5.2-2.6-.2-3-.3-2.5-.9.3-.3.2-.3-.2-.3-.5 0-.6.1-.6.8 0 .8.2 1 2.7 1.2 1.3.1 2 0 2.2-.2a111.6 111.6 0 0 0 8.5.2c4 0 8.8.2 10.4.4 3.8.2 4.3.2 4.5-.2zm8-.7c0-.4-.2-.8-.4-1-.6-.1-.7 0-.5 1.1.2 1.2.9 1.1.9 0zm79.4.4a1 1 0 0 0-.7 0l.4.1h.3zm1.5 0h-.6c-.2 0-.1.2.2.2.3 0 .4 0 .4-.2zm4.7 0a7 7 0 0 0-1.6 0c-.4 0-.1.1.8.1.8 0 1.2 0 .8-.1zm-9.6-.3h-1.2c-.4.1 0 .2.6.2s.9-.1.6-.2zm-85.4-.8c0-.2.6-.3 1-.3 1.5 0 .9-.3-.7-.4a5531.7 5531.7 0 0 0-21.4-.7c0 .3 6.5 1 11.1 1.2l4.5.3c.3.3 5.3.1 5.5-.1zm17.7-2.4c-.2-1.7-.7-2.4-.6-.8l.2 2.4c0 1.1 0 1.1.3.4.1-.5.2-1.4 0-2zM34.6 124c0-.1-.2-.3-.5-.3s-.5.2-.4.3c.1.1.3.3.6.3.2 0 .3-.2.3-.3zm3.4-1.4c0-.3-.1-.1-.1.5s0 .8.1.6v-1zm12.1-.9c0-.6-.3-1.1-.4-1.1-.3 0-.3 1.2 0 2.4.4 1 .4 1 .5.5a8 8 0 0 0 0-1.8zM7.7 123c-1.2-.4-3.6-.6-3.3-.3.2.2 1.4.4 3 .4.8 0 .8 0 .3-.1zm33.6-4.4c-.5-3.6-.6-4.2-.8-4a1817.8 1817.8 0 0 1 .8 8.4c.2.6.3-2 0-4.4zm13.4 3.8c-.1-.2-.2-.2-.2.1 0 .3 0 .5.1.4v-.5zm-23.1-.2c2-.4 1.6-.4-8.7-.8l-11-.5c-2.8 0-3.2 0-3.2.3 0 .4-.2.4-.8.3l-2.2-.4H4.3c-.4.8 1.1 1 9.7 1 3.6 0 8 .2 9.8.3 3.6.2 5.8.2 7.8-.2zm8-.2.2-2.1-.1-2.8c-.2-.8-.3-2.3-.4-3.3-.1-1.1-.3-2-.5-2s-.1 6.1.2 9.2c.2 1.7.6 2.3.7 1zm5.8-1.8c0-1.6-.2-2.7-.4-2.9-.3-.2-.3.2-.2 2 .1 2.3.3 3.4.6 3.4v-2.5zm-8.8.7c-.1-.4-.2-.4-.4 0v1c.1.6.1.6.4 0v-1zm-2-1c-.4-.4-.6.1-.3.6.1.4.2.4.3 0v-.7zm-8.4.2c0-.4.9-.4 3.6.1.7.1 1 0 .8-.2 0-.2-.7-.3-1.7-.4l-3.5-.2-10.6-.3-9-.3c-.2 0-.5.1-.7.4-.4.5-.4.5-.5-2.3v-3.1c-.1-.8-.2-1.4-.4-1.4s-.3 1.5-.3 4v4l.8-.2a129 129 0 0 1 19 .3c2.1 0 2.5 0 2.5-.4zm28.9-1-.1-1.8c-.2-.2-.3.2-.3.9a9 9 0 0 1-.1 1.8v.6c.2 0 .4-.7.5-1.6zm-12-2.2c-.3-3.7-.5-5-.8-5-.3 0 0 6.8.3 7.7l.4.7v-3.4zm7.3 2.5a57.1 57.1 0 0 1-.6-4.7c-.3.3-.2 2 0 3.3.2.6.1 1 0 1-.5.4-.4 1 .1 1.1l.6.2v-.9zm2.1-.6c-.2-.3-.5.1-.2.5.1.2.2.2.3 0v-.5zm-24.1-.6c-.3-.3-3.2-.4-17-.9-1.7 0-3.3-.2-3.5-.3-1.1-.4 0-.6 2.9-.5 10 .3 15.9.4 15.9.1 0-.5-.9-.7-2.6-.7-2 0-9.1-.3-11-.5a4 4 0 0 1-1.9-.5c-.5-.6-2.4-.3-2.6.5-.2.4-.3 0-.3-1-.2-1.8-.4-2.3-1-1.8-.6.5-.6 1.5 0 2 .4.4.4.5 0 1l-.6.7-.5-.1c-.5-.2-.5-1-.1-1.4.2-.2.2-.8 0-1.8-.2-2.3-.6-1.4-.7 2l-.2 3.1h13.5c7.2.4 10 .4 9.7 0zm18.8-1.4a5 5 0 0 0-.4-2c-.2-.2-.3-.8-.2-1.7a4 4 0 0 0 0-1.8c-.4-.5-.4 3.7 0 5.3.5 2.4.7 2.5.6.2zm1.7.3c0-.5 0-1-.2-1.2-.2 0-.3-.5-.3-1 0-.3-.1-.7-.3-.7-.2 0-.2.3-.1.6l.3 2.1c.2 1.7.6 1.8.6.2zm9-2.2c0-3.3-.5-5.1-.5-2.1 0 2 .3 5.2.5 5v-3zm-22-2.3c-.1-4.7-.2-5.6-.6-5.2a88 88 0 0 0 0 10c.1.2.3.3.4.3.2 0 .3-1.7.2-5zM31 117c0-.2-.2-.3-.4-.2-.1 0-.1.2.1.4.5.3.5.3.3-.2zm6.8-4.2c0-1.1-.2-1.9-.3-1.7-.2.4-.3 2.9-.2 5v1.2l.3-1.2.2-3.3zm-7.9 2.7c-.3-.4-.4.2 0 1 0 .4.1.4.2-.1 0-.4 0-.8-.2-1zm25.4.1c0-.2-.1-.3-.3-.2-.1 0-.3.3-.3.6 0 .2.2.3.3.2.2 0 .3-.3.3-.6zm-26.7-2.2-.2-2v4.2c.4.4.4-.1.2-2.2zM24 115c0-.2-1.6-.3-3.8-.4h-3.6c0 .2 1.6.3 3.4.4 1.8 0 3.3.2 3.4.3.2.2.6 0 .6-.3zm-10-.8c.3-.2.4-.4.3-.4-.5 0-1.2.3-1.2.5 0 .4.4.3 1-.1zm12.1-.3c0-1.6-.4-4.6-.6-4.6-.2 0-.2.3-.1.6l.1 2.5c0 1.3.1 2 .3 1.9.2 0 .3-.2.3-.4zm6.2-5.8c.2-.6.3-1.2 0-2.1a10 10 0 0 1-.1-2.1c0-.5 0-.9-.2-1-.4-.2-.6 1.3-.6 5 0 3.5 0 3.5-.6 3.4-.5-.2-.5-.1-.4.6l.7 1.7.4.8.2-2.7c.1-1.6.4-3.2.6-3.6zM11.2 113c3.3-.8 6.1-2 4.9-2-2-.2-4.4.3-4.6.9-.1.3-.2.3-.6 0-.4-.2-.7-.1-1.3.2-1.2.6-1.2 1.7 0 1.3l1.6-.4zm10.5 0c0-.3-.6-.3-3 0l-2 .2 1.4.1c1.7.2 3.6 0 3.6-.3zm28.1-.2c0-.3 0-.5-.1-.4l-.2.5c0 .6.1.5.3-.1zm-42-1.3c.1-.2 0-.3-.2-.2-.2 0-.4.2-.4.4s0 .3.2.2c.2 0 .4-.2.5-.4zm33.4-.6c0-.4 0-.7-.2-.6-.3.2-.4 1.4 0 1.4l.2-.8zm-30.8.4c.2 0 .4-.3.4-.6 0-.2-.1-.3-.4-.2l-.5.2-.1.4c0 .4 0 .4.6.2zm-4.3-.5c0-.2-.2-.3-.3-.3-.1.1-.3.3-.3.5l.3.2c.1 0 .3-.2.3-.4zm45.8-.2c.6-2.7.9-10.9.5-11.9-.2-.4-.4-.7-.5-.6 0 0-.2 2.3-.2 5a156 156 0 0 1-.1 8.1c.1 0 .3-.3.3-.6zm-37.8-.3.7-.5c.3-.1.2-.1-.1-.2l-1 .3c0 .2-.6.4-1 .4-.5 0-1 .1-1 .3-.1.3.1.4 1 .2.6-.1 1.3-.3 1.4-.5zm-6 .1s0-.3-.3-.3c-.4-.2-.7 0-.7.4 0 .2.7.2 1 0zm-3.5-.4c.1-.4 0-.7-.4-.5-.3.2-.3 1 0 1l.4-.5zm45-1.6-.1-5c0-4.4-.5-3.3-.6 1.5-.2 4.2 0 5.5.6 5.5.2 0 .3-.5.1-2zM11 109.7c0-.6-1-.5-1.2.1 0 .4 0 .5.5.4.4 0 .7-.3.7-.5zm10.4-.3v-.7l-.7.7-.6.8h.7c.5 0 .6-.2.6-.8zm-15.3.2c0-.3-.4-.2-.5.1 0 .2 0 .3.2.2.2 0 .3-.2.3-.3zm6.8-.6c0-.2-.2-.3-.6-.3-.5 0-.7.1-.7.5 0 .2.2.5.4.6.4.1 1-.3 1-.8zm15.9-.5c0-1.7-.2-1.5-.3.4l.1 1c.1 0 .2-.6.2-1.4zm8.8 1v-.6c-.2 0-.3.3-.3.6v.5c.1 0 .3-.3.3-.5zM8 109.2c0-.2-.2-.3-.4-.3-.4 0-.5.3-.2.6.2.2.6 0 .6-.3zm22.6-2.1-.2-2.3c0-.5-.2-.8-.4-.8-.4-.1-.4.2-.4 2.5.2 3.1.3 3.6.8 2.7.3-.5.3-1 .2-2.1zm-26 1.4c.2-2.1.2-12 .2-22.6 0-17 0-22.4.5-23.5.1-.5.4-.8.5-.8v17.2c0 9.5 0 16.9.1 16.4.3-1.3.5-10.1.7-27.5 0-8.2.1-15.2.2-15.4.3-1 .7-9.6 1-19.7a1999 1999 0 0 1 1-27V3.8h-1c-.8 0-1 0-1.2.5 0 .4 0 .5.3.5.4 0 .4 1.4.2 13.6a115.2 115.2 0 0 1-1 20C5.5 48 5 57.8 4.6 58.4a511.8 511.8 0 0 0 0-15.6c0-6.7-.6-16.5-.8-17.3l-.2-7.8c0-6.3 0-6.7-.4-5.5-.6 1.8-.6 10-.2 13.8.3 2.3.3 5 .2 11.2-.2 9-.2 24 0 24.3.3.7.4 4.2.5 24.7l.1 23h.3c.2 0 .3-.3.3-.7zm10.5.2c0-.2-.3-.5-.7-.5-.4 0-.6 0-.6.4 0 .5.2.6.7.6.5 0 .7-.1.6-.5zm-8.7-3c0-2.2 0-2.9-.3-2.8-.2 0-.4 1-.4 2.7 0 2.7 0 3.5.5 3.2.1-.1.2-1.4.2-3zm19.6.4c0-1.6-.1-2.7-.3-2.7-.2 0-.3 5 0 5.3.3.4.3.2.3-2.6zm-17.8-.4-.2-8.9c-.2-5-.1-6.7.1-7.9.5-1.8.7-4.6.8-11a457 457 0 0 1 .5-35.5 1026.7 1026.7 0 0 0 .6-29.7c.1-5.4 0-8-.1-8.2h-.3a26946.7 26946.7 0 0 0-2 57A917.9 917.9 0 0 1 7 92.9c.1.2.2 3.8.2 8 0 7.1 0 7.6.4 7.5.4 0 .5-.4.5-2.6zm25.6 2.4c.1 0 .1 0 0-.2-.2-.3-1-.1-1 .3 0 .2.2.1.4 0 .2-.2.5-.2.6-.1zm-11.3-3c0-.6-.1-.1-.1 1 0 1.2 0 1.7.1 1.2v-2.1zm-11.6.6a38.4 38.4 0 0 0 .6-13.5 50 50 0 0 0 .6-12.6c.2-13.2.5-21.5.7-21.5.2 0 .2 3 .1 7.6a201.3 201.3 0 0 0 0 26.8c-.3.1-.4.7-.3 1.8v1.5l.3-1.4.4-1.4s.2 2.7.2 6 .1 6 .2 6.2c.4.4.5-.8.6-6.7 0-3.6 0-6.6.2-6.7.1-.1.3 7.2.1 9 0 .4.1.7.3.7.1 0 .3 0 .3-.2V99a740.6 740.6 0 0 0 .2-55.8c0-17 .1-19.5.4-19.4.2 0 .2 4.5.2 13.4 0 8.5 0 13.2.2 13.1.2 0 .3 0 .3.2s.1.1.3-.2c.2-.3.2-3.8 0-12.7-.1-13-.4-17.6-.7-16.6-.5 1.5-.7-.5-.7-8.2 0-7.6 0-8.7-.4-8.4l-.2 11.2a364.9 364.9 0 0 1-.8 23.9l.2 5.4a983.4 983.4 0 0 1 .3 45.6c-.5.7-.6-2.2-.6-18 0-11-.2-16.8-.3-16.9-.2-.1-.2-2.5-.1-7.2.1-6.2 0-7-.3-7.4-.3-.3-.4-.7-.3-1.2.3-2.2.7-11 .8-22.8.2-12.4.2-12.9-.3-12.8-.5 0-.5.9-.8 14.6-.2 8-.3 19.4-.3 25.3 0 6.1-.1 12-.3 13.6-.2 1.6-.4 7.8-.4 13.7l-.3 11c-.1.4-.2.4-.4 0a169.5 169.5 0 0 0 0-19.6c-.4-3.4-.4-4.8 0-11.8.2-2.9.3-9.8.4-15.4l.3-20.8c.1-7.7.1-10.7-.1-10.7S11 5 11 6.3l-.8 34.1c-.2 4.6-.3 14.3-.4 21.7-.1 12.6-.3 18.2-1 28.5-.2 4.5-.2 13.5 0 15.1.3 1.2.6-5.2.6-11.2 0-6.3.6-11.2 1.1-10.3v4.2a519 519 0 0 0-.4 11.7c-.1 6.2-.1 7.8.2 7.7.2 0 .3-.8.4-2zm25.9.4c0-.4-.1-.2-.1.6v.7-1.3zm131-2c1-11.7 1.1-13.7 1-15.8l-.4-2c-.2.2-.4 1.6-.6 3.3a26 26 0 0 1-.4 3.2c-.2.1-.1-1.6.2-4.1l.4-4.5c.2-2.6-.2-11.2-.4-10.7a121.7 121.7 0 0 0-1.6 13.6v1l-.3 3.5c-.2 1.8-.2 2.4 0 2.6.6.3 1.2 0 1.4-.6.2-.8 0 3.4-.4 5v-1.4c0-2.5 0-2.6-.5-2.6-.3 0-.6.2-.6.4-.2.5-.6 11.8-.5 12.4.1.4.4.5 1.3.5h1zm-1.8-1c0-.4 0-.5.1-.3v.6-.3zm-112 4c0-.2 0-.3-.2-.3s-.3.2-.3.4.1.4.3.3l.3-.4zm-41-2.5c0-1.5 0-3.8-.2-5.2l-.2-2.5v3c-.1 4.4-.3 6.6-.8 6.6-.2 0-.3.2-.3.5s.2.3.7.3l.7-.1zm1 2.2c0-.1 0-.3-.2-.4-.1 0-.2 0-.2.3 0 .4.1.5.4.1zm2.3-2.8c0-1.6.2-3.1.4-3.3.2-.4.2-2 0-5.3l.1-1.8c.2-.1.2-.7 0-1.1a9 9 0 0 1 0-3.6c.3-1 0-8-.2-7.7-.1.2-.7 13.9-.7 19.7-.1 6.3.2 8.6.4 3.1zm-1.2 2.2c-.1-.2-.2-.1-.2.2 0 .3 0 .4.2.3v-.5zm30.5-1.5c0-1.4-.3-2.4-.7-2l-.3 1.9c-.1 1.3 0 1.8.2 2 .6.3.8-.3.8-2zM63 106l.4-.8c.4-.7-.2-.6-1 0-.8.8-.8 1.6 0 1.4.2 0 .6-.3.6-.6zm-28-.1h-.5.5zm.6-.7c0-.1-.1-.2-.3-.2-.1 0-.2 0-.2.2s0 .3.2.3.3-.1.3-.3zm7.1-1.5c0-2.4-.2-3.8-.5-3.8s-.3 4.5 0 5.2c.3 1 .6.3.5-1.4zm-27.5 0c0-1.3-.4-2-.6-1-.2.7-.2 2.1 0 2.3.3.3.6-.4.6-1.4zm18.5.3c0-.2-.1-.4-.4-.4-.3 0-.4.1 0 .4l.3.4.1-.4zm16.6-.4-.1.3c0 .4 0 .5.1.3v-.6zm-9-.4a22 22 0 0 0-.4-6c-.2 0-.3 1.6-.3 3.5 0 2 .1 3.5.3 3.5.1 0 .3-.5.3-1zm-19-5 .1-5.7c.2-.7-.4-1.8-.8-1.5-.2.2-.3 10.7 0 11.8 0 .3.2.6.3.6.3 0 .4-1.4.3-5.1zm7.7 4.4c0-.6-.5-.7-1-.2-.3.4-.1.7.6.7.3 0 .4-.2.4-.5zm9.3-1c0-.5.1-1.2.3-1.3.4-.4 0-4.6-.4-4.6-.3 0-.4 1-.4 3.7 0 2.5 0 3.7.2 3.6.2-.1.3-.7.3-1.3zm8.6.2c.1-1.4 0-2.1-.4-2.1-.2 0-.3.7-.3 1.7 0 2 .4 2.3.7.4zm2.8.8c0-.2-.1-.3-.3-.3l-.2.4c0 .2 0 .4.2.3.2-.1.3-.3.3-.4zm7-2.5-.4-3.5a34.5 34.5 0 0 1 0 3.9c0 1.6.1 2.6.3 2.6.2 0 .2-1 0-3zm5.3 2.7-.7-.2c-.3 0-.5 0-.5.2s.3.3.7.3c.4 0 .6-.1.5-.3zm-29.7-.8c-.3-.3-.4-.3-.7 0-.2.2-.1.3.4.3.4 0 .5 0 .3-.3zm43.4 0-.5-.2-.4.2c0 .2.3.3.6.3s.4-.1.3-.3zm-44.5-.2c0-.2.1-.3.4-.3.2 0 .4-.2.4-.5 0-.5 0-.5-.7-.1s-1 1.1-.4 1.1c.1 0 .3 0 .3-.2zm5.1-2.4c0-1.3.2-2.5.3-2.7.3-.2.3-.7.1-1.4-.1-.7-.1-1.2.1-1.5.2-.4.2-.6-.1-1-.3-.2-.6-.3-.7-.2-.2.2-.4 8.5-.2 9 .3 1 .5.2.5-2.2zm-18 2.1c.1-.1 0-.2-.2 0-.5 0-.6.3-.2.3.2 0 .3-.1.4-.3zm11.4-.5c0-.3 0-.5-.2-.4l-.2.7c0 .7.4.4.4-.3zm35 .1 1.3-.5c1.1-.3 1.2-1 0-1-.7 0-1.4-.7-.8-1 .2 0 .4-.2.4-.5s-.3-.3-1.4-.2c-.7 0-1.6.3-2 .6-.6.2-1 .3-1 .1-.3-.5.1-.7 1.9-1 1-.2 2.4-.7 3.1-1 1.7-.8 1.7-.8 1.8 0 0 .4 0 .4.1 0 0-.2.7-.6 1.4-1 .9-.4 1.3-.7 1.2-1a3 3 0 0 1-.1-.8c0-.5-.1-.5-1.1-.4-1.4.3-4.4.4-6.3.2l-1.5-.1 1-.4c.6-.2 1.2-.2 1.3-.2l2 .3c2.6.2 5-.8 4.5-1.7 0-.1-.3-1.4-.4-3-.2-1.5-.5-3.4-.8-4.2-.4-1.6-1.6-4-2-4.3-.3-.1-.4-.6-.4-1.1 0-.6-.2-1-.5-1l-1.1-1.4c-.4-.7-1.1-1.8-1.7-2.4-.7-1-1-1.3-.8-1.8.1-.4 0-.7-.1-.7-.2 0-.3.1-.3.3 0 .4-1 .3-1.7-.3-.8-.6-1-.5-.8.7v5c.1 5 0 4.8 2.2 4 .6-.2 1.2-.4 1.3-.3.2.3-.2.5-1.4.7-1.9.3-2 .6-1.9 2.3l.3 7.6c0 3.3.2 7 .3 8.2l.2 2 1.7-.1c1-.1 2-.4 2.2-.6zm.7-6.2c-1.7-.1-1.8-.1-.8-.3 1.5-.3 2.7-.3 3 0 .2.4-.2.4-2.2.3zM62 88.2c.2-.3 4-1.2 4.2-1 .2.1-.2.3-1.6.7-1.4.4-2.8.5-2.6.3zm.1-3.6c-.4-.2-.3-.3.6-.3l2-.1c.7-.1.6 0-.3.2-1.4.5-1.5.5-2.3.2zm5-.4 1.3-.7c1.4-.5 1.8-.2.5.4-.7.4-2.1.6-1.9.3zm-4.4-1c-.1 0 .5-.3 1.2-.4 1.3-.3 1.8-.2 1.5 0-.3.3-2.6.7-2.7.5zm74 18.2.2-.8.1-.8h-4.8l-6.7.1c-1.5.2-2 .2-2.3-.1-.4-.4-.4-.4 3.3-.5 1 0 1.3-.1 1.3-.5s0-.5-.8-.5l-1.4-.2c-.4-.2-.2-.3.8-.3s1.2 0 1.2-.5c0-.4-.2-.5-.5-.5s-.5 0-.5.2c0 .3-.2.3-.4 0-.2-.1-.7-.2-1-.1-.5.1-.8 0-1-.3-.2-.4-.3-.4-.3.3 0 .8.1 1 .6 1 .6 0 .6 0 0 .3-.4.2-.8.2-1 .1-.4-.4-2.8-.3-3 .2-.1.5 0 .6 1 .9l1 .2h-1c-.9 0-1 .2-1 .5l-.1.8c-.2.3.4.4 2.8.3l5.3.2c1.9.2 8 .2 8.3 0zm-56.3-.3c.5-.4.5-.4 0-.4a2 2 0 0 0-1 .4c-.6.4-.6.4 0 .4a2 2 0 0 0 1-.4zm-44.4-.8.2-4.3c.2-2.8.1-3.7-.1-3.7s-.3.3-.3.7c0 .8-.8 2-.8 1.4l-.2-4.7c0-1.3-.2-2-.5-2.3l-.4-.6.4-.1c.5 0 .6-.6.1-1-.2-.3-.4-.2-.7.3-.3.5-.3.5-.2-.4v-1h-1.1c-1-.1-1.2-.2-1.3-.8-.1-.5 0-.6.3-.2l.3.5c-.1.1.1.2.5.2.3 0 .7-.1.7-.3.1-.2.4-.2.9-.1s.7.3.5.5c-.2.2-.2.4 0 .6.5.4.7.1.5-.6-.1-.6-1.7-1.6-1.9-1.2-.2.7-.7.3-.6-.5 0-.6 0-.8-.3-.8s-.4.3-.4.6c0 .5 0 .5-.3.2-.2-.3-.3-.2-.4.5l-.4 1c-.5.3-.3 1 .3 1 .3 0 .5.1.5.5l.2 1.3v7c0 3.3 0 4.1.3 4.4.3.2.4.2.6 0a49.9 49.9 0 0 0-.2-12.6c.2 0 .4.3.4.4 0 .2.2.4.4.6.4.3.4 1 .4 4.4a650.3 650.3 0 0 0 0 7c0 1 .1 1.7.3 1.6l.2-1.1c0-.6.1-.9.3-.7.2 0 .3.6.2 1.2 0 .5 0 1 .2 1 .2-.1.3-1.2.3-2.4 0-2.2.1-3 .6-2.5l.1 2.9c0 1.5.1 2.7.2 2.6l.2-.5zM33.6 97c0-.2.2-.4.4-.6.4-.3.4-.3.3.1 0 .5-.7 1-.7.5zm86.2 3.4c.6-.4.1-1.1-.8-1.1-1.7 0-2 .8-.5 1.1l.8.2s.3 0 .5-.2zm-74.5-.6c0-.1-.2-.2-.4 0v.3c0 .2.2.2.3.1.2 0 .2-.3.1-.4zm116.8.4h-.5c-.2 0-.2.1.2.1.2 0 .4 0 .3-.1zM27.5 99c0-.3-.2-.7-.4-.8-.4-.1-.5.5-.2 1.3.2.6.6.3.6-.5zm4 .6-.4-.3-.4.1c0 .1.2.3.4.3l.4-.1zM51 98c-.3-.2-.3-.2-.3.1 0 .3-.2.5-.4.6-.3 0-.4.3-.3.5.2.2.4 0 .8-.3.4-.4.5-.6.2-.9zm25 .9c0-.3-.1-.6-.3-.6-.2 0-.4.3-.4.6s.2.5.4.5.4-.2.4-.5zm-50.7 0c0-.2-.1-.3-.3-.4-.1-.1-.2 0-.2.2s0 .4.2.4.3 0 .3-.2zm17.2-.5c0-.5-.1-.6-.3-.4-.2.2-.2.5-.2.7.3.6.5.5.5-.3zm7 .5c.2-.3-.1-1-.4-1-.2 0-.3.2-.3.6 0 .6.4.9.7.4zm20.4 0c0-.2.5-.2 1-.1.6 0 1.5 0 2-.2 1.2-.3 1.2-.4 1.8-2 .5-1.5.6-1.8.2-2-.2-.2-.4-1-.5-2.2-.3-3.5-1.2-11.2-1.5-11.9-.1-.4-.3-2-.3-3.7 0-1.6-.1-3.1-.3-3.4-.1-.3-.5-.3-1.6-.3-1 .1-1.5 0-1.6-.2-.2-.2 0-.2 1.1-.1 1.6.2 1.8 0 .6-1-1.3-.9-3 0-3 1.7 0 .7.6 1 2 1 .4 0 .7.2.7.3 0 .2-.4.3-1.2.2-1.6-.2-1.5.2.2.5 1.3.1 1.5.6.3.6-.6 0-.6.1.2.2.5.2.9.4 1 .7l-.2.4c-.2 0-.3.2-.3.3 0 .1.2.3.5.3s.3 0 0 .3c-.2.3-.1.4.3.5.7.2.4 1.3-.3 1.3-.6 0-.6.4 0 .6.8.3.7.7 0 .7-.5 0-.7.1-.6.3l.8.2c.8 0 .8.4 0 .7-.4 0-.5.2-.2.4.2.2.6.4 1 .4.6 0 .7.1.7 1s0 .9-.4.5c-.2-.2-.5-.2-.6-.1-.2.3.6 1.9 1 1.9.1 0 .2.2.1.4 0 .2 0 .5.2.6.2.2.3.7.1 1.8 0 1 0 1.8.2 2.3.2.4.3 1 .2 1.2 0 .4 0 .8.4 1.1.4.6.4.6 0 1-.3.1-.5.4-.5.6 0 .1 0 .3-.2.3-.1 0-.3.2-.4.6 0 .3-.4.8-.7 1.2-.4.5-.5.6-.9.3-.5-.4-2-.3-2.2.2 0 .3 0 .3.2.2.3-.2.3-.1.2.2-.2.5.2.6.5.2zm50.1-.3c0-.4-.2-.5-.6-.5-.4 0-.8-.1-.9-.3 0-.1.2-.3.7-.3.5 0 .8 0 .8-.4 0-.3-.3-.3-1.3-.3-1.4 0-2 .3-1.2.7.4.2.5.3.2.6-.7.7-.4 1 1 1 1.1 0 1.3 0 1.3-.5zm-100.9-.3c0-.2-.1-.2-.1.1v.4c.2 0 .2-.3.1-.5zm26.2-.6c0-.2-.3-.4-.4-.4-.4 0-.4.9 0 1.3.3.2.4.2.4-.1v-.8zM25 96.9l-.2-.4c-.2 0-.3.3-.3.6 0 .4-.1.8-.3.8-.1.1-.2.3 0 .5 0 .3.8-1 .8-1.5zm53 1.5c0-.4-.5-.7-.9-.5-.1.1-.2.3 0 .5.1.3.8.3.8 0zm1.8 0c0-.4-.5-1-.8-.7-.5.3-.3.9.3.9.2 0 .5 0 .5-.2zM48 97.2c0-.4-.3-.7-.4-.7-.3 0-.4 1.4 0 1.7.3.3.6-.4.4-1zm34.2.4c0-.3.2-.6.3-.6.2 0 .3-.2.3-.4 0-.7-.6-.4-1.1.4l-.5 1.1c0 .5 1 0 1-.5zm-1.3-.2c0-.4-.3-.5-.6-.2-.2.2.1.9.4.7l.2-.5zm50 0c0-.3-.1-.4-.5-.3l-.7-.1c0-.1-.4-.3-.7-.3-.5 0-.5 0 0-.2.3-.1.4-.2.2-.3a3 3 0 0 1-.7-.1c-.4-.2-.5 0-.5.7 0 1 0 1 1.3 1 1.5.2 1.6.1 1.6-.4zm-104 .2c0-.2-.1-.3-.3-.4-.3-.1-.4 0-.4.2 0 .4.4.5.6.2zm3.4-2c-.2-1.2-.1-1.6.1-1.8.2-.1.3-.2.1-.2-.2 0-.2-1.3-.2-4 0-2.3 0-3.7-.1-3.3-.3 1.2-1 1-.9-.2 0-.7 0-1-.5-1.4-.3-.2-.7-.3-.7-.2l-.5 2.4c-.2 2-.2 2.6.3 4.6.4 2.2.4 2.4 0 3.2-.5 1.2-.5 1.3.5 1.3.7 0 1 0 1 .4 0 .2-.2.3-.3.2-.1 0-.4 0-.6.3-.5.7.2 1 1.2.5.7-.4.7-.5.6-1.9zm-1.6-.2v-1.3c.2-1.3.3-3.4.4-5.4 0-1 0-1.2.4-1.2.4.1.5.4.5.8-.4 6.6-.7 8.2-1.3 7.1zm94.6 1.9c0-.5-.2-.5-1-.5-1 0-1.1 0-1.1.5 0 .4.1.5 1 .5s1 0 1-.5zm-79.8-.6v.6-.6zm34.7.4c.5-.1 1.5-.4 2-.8a4 4 0 0 1 1.5-.6c.3 0 .6-.1.7-.3l.9-.2c.8 0 2.1-.6 2.1-.9 0-.5.6-.1.9.6.3 1 .6 1 .8 0 .1-1-.9-2.4-1.8-2.4-.3 0-.7.1-.8.3 0 .1.1.2.4.2.3 0 .5.2.5.3 0 .3-1 .5-2.5.5-1.4 0-2.5.3-2.5.6 0 .2-1.1.6-2.5.8-1 .2-1.5.6-1.7 1.2-.3.8-.1 1.2.5 1l1.5-.3zm-51.5-.6c-.5-.3-.9-.3-.7 0l.7.2c.3 0 .3 0 0-.2zm15.9-.3c0-.3-.1-.5-.3-.5-.1 0-.3.2-.3.5s.2.6.3.6c.2 0 .3-.3.3-.6zm80.4 0c0-.1-.3-.2-.8-.2-.4 0-.8 0-1 .2 0 .2.3.3.9.3.5 0 1-.1 1-.3zm3 0-.5-.2c-.2 0-.4 0-.4.2s.2.3.4.3.4-.1.4-.3zm1.2.2s-.1-.2-.4-.3l-.3.1c0 .2.1.3.3.3l.4-.1zM26 95.9c.5-.3.5-1.3 0-1.3-.1 0-.3-.3-.3-.6 0-1-.4-1-.6-.1-.4 2.4-.2 2.7.9 2zm19.4-1c-.3-.4-.3-.5.2-.9l1-.4c.1 0 .4-.5.5-1 0-.6.2-1.2.3-1.4v-.9c0-.3.1-.4.3-.3.1 0 .3 0 .3-.2 0-.5.7-.8.9-.4l.2 2c0 1 .2 1.8.4 1.8.3.2.4-3.8.3-10.9V76c0-2.2-.3-2.9-.6-1.3a214.2 214.2 0 0 0-.7 13.7c-.1 0-.3.2-.3.4s-.3.4-.6.5c-.4.1-.7.3-.7.5 0 0 0 .1-.2 0-.3-.1-.7 1.1-.5 1.5l.3.9c.1.8-.4 1.2-1 .7s-.5-1.1 0-1.3c.4 0 .5-.2.5-.3-.1-.2-.4-.2-.6 0-.4.4-.4.3-.3-.9.1-1 0-1.5-.3-2.2l-.5-1 .1 1.3v1c-.2-.4-.7-.4-.7 0l.4.6c.4.3.4.5 0 1-.5.8-.8.9-1.1.3-.3-.4-.3-.4-.3.2l.3 1c.2.3.4 1 .3 1.5l.1 1c.3.2 1-.4 1.2-.9.1-.2.2.1.1.7 0 1.2.3 1.6.8 1 .3-.4.3-.6 0-1zm-1.7-2.1c0-.2.2-.2.4-.1.3 0 .4.2.4.2l-.4.1c-.2 0-.4 0-.4-.2zm6.1 2.6c0-.5-.6-.7-1-.2-.1.3.5 1 .8.9l.2-.7zm69.5.6h-1c-.3.1-.1.2.4.2.6 0 .9 0 .6-.2zM41 94.8c-.1-.4-.5-.7-.8-.7-.3 0-.6-.2-.6-.5l-.2-2c0-.2-.1-.4-.3-.4-.1 0-.2.8-.2 1.8s-.2 2-.3 2.1c-.2.2-.3.4-.2.5.3.2 1.3-.4 1.3-.8 0-.3 0-.4.2-.4.4 0 .8.6.8 1.1 0 .4.1.5.3.3.3-.3.3-.5 0-1zm11 .5c-.3-.8-1.5-1-1.5-.2 0 .7.2.9 1.1.9.7 0 .7 0 .5-.7zm3.3 0c.3-.9.3-3.2 0-9.1 0-3 0-3.8.3-4 .2-.2.2-.3 0-.6-.3-.3-.3-.6 0-1v-.5c-.2 0-.3-.6-.2-1.3 0-.8-.1-1.3-.3-1.3-.1 0-.2 3.2-.2 9a40.3 40.3 0 0 1-.2 9.5c.2 0 .5-.4.6-.8zm32.8 0c0-.5 0-.5-.3-.1-.3.5-.3.8 0 .6.2 0 .3-.3.3-.6zm42.7.4c.2-.3-.3-.6-.6-.4-.3.2-.2.7.2.7l.4-.3zm-16.7-.3c.1-.1 0-.2-.1-.3-.3 0-.3 0 0-.1.1 0 .3-.4.3-.7 0-.4-.2-.5-3.3-.5l-4.2-.1c-1-.2-1-.1-1 .3.1.4.4.5 2.3.6 1.2 0 2.2.2 2.2.3 0 .1-.1.3-.3.3-.1 0-.2 0 0 .2 0 .2 1 .3 2 .3 1.1 0 2-.1 2.1-.3zm-2.7-.5c0-.3.8-.3 1.3 0 .3.2.2.3-.5.3-.4 0-.8-.2-.8-.3zm4.8.2c.2-1 0-1.3-.8-1.3-.6 0-.6.1-.5.9l.1 1h.6c.3 0 .5-.2.6-.6zm4 .1c.7-.8 0-1.4-1.6-1.4-1.5 0-1.7.1-1.5 1.2.1.6.2.7 1.4.7.9 0 1.4-.2 1.7-.5zm3 0a9 9 0 0 0-.1-2.2c-.2-1.1-.2-1.9 0-2 .1 0 .2-.5 0-.9 0-.7 0-.8.6-.8.7 0 .8-.4.3-1-.3-.3-.3-1.4-.2-10.2 0-5.7-.2-9.7-.8-16.8-.4-5.2-.8-12.3-.5-12.5l.3 4a123.4 123.4 0 0 0 1.2 14 90.2 90.2 0 0 0 .9-8.1l-.1 14.4c.1 20.4.2 21.3 1 20.1.3-.4.4-.4.6 0 .6.6.8.2.8-1.7s.2-2.5.6-2.3c.1.1.2-.5 0-1.6 0-1 0-2.3.2-3 .2-.8.2-1.3 0-2.3-.4-1-.5-3.3-.5-12a98 98 0 0 0-.3-12c.2.3.3 0 .3-1.4a1097.2 1097.2 0 0 0 .1-24.6l1-7.4c.7-5.3 1-4.7.4.8-.7 5.8-1 8.4-1 9.7.1 1 .1 1 .4-.6 0-1 .4-2.4.7-3.3.5-1.5.5-2.5.5-7.2 0-3.2 0-5.9-.3-6.3-.2-.7-.2-.7-.7-.2-.4.4-.6 1.2-.8 4.5-.6 8.1-.8 8.7-.7 2.6 0-3.2.2-6.3.4-6.8.2-1-.2-1.8-.4-.7-.2.5-.2.5-.7 0-.5-.4-.5-.3-.5 1.6a64 64 0 0 1-.5 9.8c-.2.4-.2-1-.1-5 0-4.9 0-5.7-.3-5.8a.7.7 0 0 1-.4-.6c0-.3 0-.3-.3 0a93.2 93.2 0 0 0-.3 19.8 370.4 370.4 0 0 1 1 16.2c-.2 0-.4-2.2-.6-4.9l-.6-7a116.2 116.2 0 0 1-.8-24.2c-.4-.3-.7.6-.9 3 0 1.4-.3 3.1-.4 3.8a29 29 0 0 0 0 6.7l.3 8.3c0 1.5 0 3.2.2 3.7.4 1.1.6 4.7.3 4.7-.2 0-.3-.2-.3-.6l-.2-.8a329.6 329.6 0 0 1-1.3-29.1c-.2 0-.3.6-.3 1.3l-.4 3.3c-.4 1.8-.4 4.3-.4 12.6a574 574 0 0 0 .6 24.1c.2 5.6 1 14.7 1.3 14.5.1-.1.2-4.8.2-10.6V51.6c.3-.2.5 10.1.3 16l-.1 14a57.2 57.2 0 0 1-.7 11c0 .8 0 1 .6 1l.6.2-.6.2c-.5.1-.6.4-.6 1s.1.7 1 .7c.5 0 .8-.2 1-.5zm2.7-4c0-.2.2-.3.4-.3.3 0 .4.1.3.3l-.4.3c-.2 0-.3-.2-.3-.3zm-.5-1.6c0-.2 1-.6 1.3-.4l-.1.4c-.2.3-1.2.4-1.2 0zm1-3.9c-.3-3-.3-7 0-7a9 9 0 0 1 .3 3c0 2.6 0 3.8.4 5.5.1.3 0 .6-.2.6-.3 0-.4-.6-.5-2zm-.2-13-.1-6.1a289.9 289.9 0 0 1 0-25c-.2 4-.1 8.5.3 27.2.2 5.2.2 8.9 0 9-.1.2-.2-2-.2-5.1zm.7-17c-.1-.4-.2-1.7-.1-2.7 0-1.9 0-1.8.2.7.2 2.7.2 3.5-.1 2zm-5.3-5.4v-2l.3-1.4v1.9c0 1.9 0 2.3-.3 1.5zm1.1-8.9c-.2-1.5-.7-10.2-.7-12.8v-3.4l.2 2.9a239.3 239.3 0 0 1 .5 13.3zm1.8-7.6a941.7 941.7 0 0 0-.2-14.3c.3 0 .5 3.2.7 12.9v8.5c-.2 0-.4-2.7-.5-7zm-.3 60.7c0-.4-.3-.6-.4-.5-.3.2-.3 1.2 0 1.5.3.4.6-.3.4-1zm1.7.2c0-1.2-.6-1-.7.2 0 .6 0 .8.3.8s.4-.3.4-1zm1.3 0c0-1-.6-1.2-.9-.2-.2.7 0 1.2.6 1.2.2 0 .3-.3.3-1zm2.4.7c0-.1-.3-.2-.7-.2-.4 0-.7 0-.8-.2 0-.3.1-.3.7-.2l.8.2V93c-.1-1.5-.2-1.8-.6-1.9-.3 0-.4.1-.4.8 0 1.8-.4.4-.5-2h-.3l-.2 1.8c0 1.3.1 1.6.4 1.7 1.1 0 1.1 0 .7.5-.4.4-.5.4-.7 0-.1-.2-.2 0-.2.7 0 1 0 1 .9 1 .5 0 1-.1 1-.3zm24.3-.2c0-.2-.4-.3-1.8-.3-1.9 0-2.5.4-1 .6 1.5.2 2.7 0 2.8-.3zm-134.7 0c-.1-.2-.3-.3-.5-.3-.1 0-.2.1 0 .3l.4.2c.1 0 .2 0 0-.2zm88 0c-1.4-.3-2-.2-2.3 0-.2.1.4.2 2 .2h2.2zm-59.3-.5c0-.7-.5-1-.7-.4-.2.6-.2.9.3.9.2 0 .4-.3.4-.5zm30.3 0c.3 0 .6-.2.6-.4h-.5c-.3.2-.7.3-1 .3-.3 0-.6.2-.6.3 0 .2.2.2.4.2l1-.4zm22.9.2-.3-.3c-.2 0-.3.2-.3.3 0 .1.1.3.3.3l.3-.3zm2 0-.6-.3c-.2 0-.4.2-.5.3-.1.1.1.3.5.3s.6-.2.5-.3zm46.6-1v-1.1h-2l-2-.1 2-.2 1.9-.1v-1c.2-.8 0-1-.4-1.2l-.7-.3h.7l1.5-.1h.8l-.1-3.7c0-2.3 0-3.6.2-3.6.1 0 .3 1.4.3 3.6 0 3.5 0 5.1.2 5.8 0 .2.4.4.8.4.7 0 .8-.1.8-1 0-.6-.1-1-.4-1-.4-.2-.4-.3 0-.5.3-.3.4-.8.1-4-.5-8-.4-19 .3-19.5.1 0 .3-3.6.4-7.8.1-6.7.6-14 .8-13.8l-.1 6.3a1531.5 1531.5 0 0 0-1 18l-.2 8.7c0 12 .8 15.9 1.3 7l.5-5v3c-.2 1.8-.2 4.2-.2 5.2v1.8h1l1.1-.1a187.9 187.9 0 0 0 .3-15c0 3 .2 5.4.3 5.6.2.2.3-.2.3-1l.3-1.8a6319.9 6319.9 0 0 0-.5 9.9c0 2.6 0 2.6.6 2.6.7 0 .8-.3 1-2.8.3-2.3.5-3.9.6-3.8a73.2 73.2 0 0 1-1 7.5c0-.6 0-.7-.5-.6-.4 0-.7.3-.8.7-.2.7-.2.7-.2.1 0-.7-1-1-2.6-.7-1.1.1-1.2.2-1 1v.8h1.6c5.8-.2 6-.2 6.1-.9l.3-4.2c.4-4.8.6-7.2.7-7.1.2 0-.3 9-.5 12-.2 2.3 0 2.6 1.6 2.4l1.2-.2v-4.8c0-5.6-.7-23.5-1-24.8 0-.4-.2-.8-.4-.8-.3 0 0 12.2.3 18.4.2 2.6.3 5 .2 5.5l-.4-3.7c-.2-2.5-.5-4.6-.6-4.8a158.8 158.8 0 0 1 .2-21.6c0-1.5-.2-4.8-.1-7.4v-4.8h1.4l.2-4c.2-3.5-.2-12-.5-12.3l-.2 1.6c0 1.6 0 1.6-.2-.8l-.2-5.3c0-2.4-.1-2.9-.5-3-.4-.2-.4 0-.2 2.1.1 1.9 0 2.4-.3 2.6-.3.3-.4 1.7-.5 8.6 0 5.3 0 8 .1 7.3.2-.6.3-1.5.3-2 0-.6.1-1 .3-1.2l.2-1.2c0-.7.1-1 .3-.9.2.2.1 1.8-.1 4.7a350.6 350.6 0 0 0-1.2 28.8 33 33 0 0 1-.3-3V66l-.4 1.5c-.4 1.5-.5 6-.2 6 .1 0 .2 2.6.2 5.7 0 3 0 5-.2 4.5l-.2-2c0-.5 0-1-.2-1l-.3-11.2c0-8.5 0-11.3.2-11.3.3 0 .3 1 .3 3.7v3.9c.4.3.6-3 .4-7.4-.1-3.5-.1-4.7.1-4.6.2.1.3.8.3 1.5a59.7 59.7 0 0 0 .3-9.3l-.3.7c-.5.5-.3-1.6.2-2.2.3-.5.3-.7 0-.8-.2-.2-.3-2-.4-8a68 68 0 0 0-.6-8.5c0-.5-.5-.7-.6-.1v6.5c0 3.4 0 6.7-.2 7.3a186.6 186.6 0 0 0-.8-19.7c-.3-1.4-.4 5.4-.2 12.4a250 250 0 0 1 0 22.5 60.7 60.7 0 0 1 .8-6.5c.6-4.4.5-2.6-.3 6.6a170.2 170.2 0 0 0-.8 12c-.1-1.3-.1-1.3-.3-.5-.3 1.4-.5.8-.3-.6.4-1.7.4-2.8.4-13.6l.1-12.6c.1-2.8.1-3.4-.2-3.3-.2.1-.4.7-.5 1.9l-.5 3.6c-.3 2.5-.7 12.2-1 23.6 0 5.7-.4 10.2-.8 10.6v-2.3c.2-1.5.2-2.3 0-2.5a104.7 104.7 0 0 0 .2-12.3 969.8 969.8 0 0 1-.3-19.8c-.1.1-.3.8-.3 1.4l-.2-1.8c0-2.1 0-3 .3-2.8.2.1.2.6.1 1.3l.1 1.3c.2.1.3-.7.3-2.2 0-1.4-.1-2.4-.3-2.4-.1 0-.2-1.9-.2-5l-.1-5-.3 5.8c-.2 7.8-.5 11.3-.8 11.5a156.4 156.4 0 0 0 .2-18.4c-.2-.7-.2-.8-.5-.3-.3.4-.4 1.3-.3 4 .1 3-.2 11.5-.5 12.4-.1.3-.2.3-.4 0 0 0-.2 7.8-.1 17.6a109.4 109.4 0 0 1-1.2 24c-.4.5-.3-2 .1-4.6.7-4 .8-8.6.7-16.7l-.3-7.6-.4 4.8a57.7 57.7 0 0 1-1.6 11c.6-2 1.3-10 1.5-17.4a111.3 111.3 0 0 1 .6-13.1c-.1.1-.4 1.2-.5 2.5l-.3 2.3v-2.7c.2-1.9.1-2.7 0-2.7-.2 0-.4-.3-.4-.6s-.1-.1-.2.5l-.4 7.4c-.2 6.7-.5 12.7-1 15.3-.4 3-.5 6.2-.2 6.3.6.4 0 6-1 9.2-.2 1-.4 3.3-.6 7.4l-.2 6v-6c.2-4.3.3-6.5.6-8 .6-2.6.8-8 .4-8.8a168.5 168.5 0 0 0-.1-23.6 174.2 174.2 0 0 0 .7-8.6c-.3.9-.5 0-.4-2.1 0-1.4 0-3.3-.2-4.3-.4-2.2-.4-2.1-.2-6.9V17c-.8-.5-1.2 7.1-1 16l.2 10.4c0 2 0 2.7.3 2.7.2-.1.3.5.1 2.2a83.7 83.7 0 0 0-.4 6.5c-.2-.2-.2-1-.3-9.3 0-5.8-.3-7.7-.6-4a961.3 961.3 0 0 0-1 36c-.3 2.1-.5 4.7-.6 9v3.2l1.1.1c.7 0 1.2 0 1.4-.2 0-.2.2-.2.3.1.1.3-.2.4-1.4.6l-1.6.2v.9c0 .6.2 1 .4 1 .4.2.4.2 0 .4-.8.5-.1.8 1.7.8 2.2 0 2 .3-.3.3-1 0-1.6.2-1.6.3 0 .2.4.3.8.3l2 .1c.8 0 1 .1.7.3-.3.2-.2.3.4.3.8 0 .8 0 .9-1.2zm0-7.5c-.5-6-.2-12.9.6-15 .4-1.1.6-.5.2 1.2-.2.8-.4 5-.5 9.2-.1 7.1-.2 7.5-.4 4.6zm-3.6-2.3c0-1.9 0-2.6.1-1.7a35.3 35.3 0 0 1 0 1.7zm15.3 2c0-.4 0-.6.2-.4v1c-.1.2-.2 0-.2-.5zm-5.8-7.7c0-.6 0-.8.1-.5v1-.5zm3.2-5c0-1.7 0-3.2.2-3.4.2-.2.2.4.2 2.1 0 3.8-.4 4.8-.4 1.2zM146 70.7c0-1.7.2-3.1.4-3.3.1-.2.2.6 0 2.3-.2 3.8-.6 4.6-.4 1zm16.2 1.9c0-.5 0-.7.2-.5v1c-.1.2-.2 0-.2-.5zm-4.7-5v-.4c.2.3.2.8 0 1v-.5zm-10-.6v-.4.9-.5zm-.2-3.9a495.8 495.8 0 0 0 0-7.7 53.3 53.3 0 0 1 .1 10.6v-2.9zM160.6 45c0-.3 0-.4.2-.2v.6c-.1 0-.2-.1-.2-.4zm-5.5-1.4c0-.4 0-.5.1-.4v.7l-.1-.3zm-4-.3c0-.2 0-.2.2-.1.2 0 .3.2.3.3h-.3c-.1 0-.2 0-.2-.2zm9.8-2c0-.7 0-1 .1-.6v1.4-.8zm-5.6-5.1c0-.2.1-.3.3-.4.1-.1.2 0 .2.2l-.2.4c-.2 0-.3 0-.3-.2zm8.6-2.4c.3-1.7.4-1.7.4 0 0 .7-.1 1.3-.3 1.3-.1 0-.2-.5 0-1.3zm-1-5.4c-.2-1.1.2-1.5.5-.4l-.1 1c-.2.2-.3 0-.4-.6zM52.6 94.1c0-.7 0-.8-.3-.5-.2.1-.3.5-.3.8.2.8.6.6.6-.3zm-24.8.3c0-.2-.2-.3-.4-.3-.3 0-.4.1-.4.3 0 .1.1.2.4.2.2 0 .4 0 .4-.2zm103 0c0-.1 0-.3-.2-.4-.5-.1-.8.2-.5.5.2.2.5.2.7-.1zm3 0c-.2-.2-.5-.3-.7-.3-.3 0-.6.1-.6.3 0 .1.3.2.7.2.4 0 .6 0 .5-.2zm10.2 0c.2 0 .3-.5.3-.8 0-.7 0-.7-1.6-.7-1.5 0-1.6 0-1.6.7l.1.8c.1.3 2.5.3 2.8 0zm-101.7-.1c0-.3-.5-.4-.6-.2-.1.1 0 .3.2.3l.4-.1zm8.2-.2-.2-.4c-.2 0-.3 0-.3.3 0 .2.1.4.3.4.1 0 .2-.1.2-.3zm44.4 0c.2 0 .3-.2.3-.5s-.1-.6-.3-.6c-.2 0-.2 0 0-.2.3-.2.4-2.6.3-6.2 0-3-.4-1.2-.6 3.1-.1 2.1-.3 4-.5 4-.1.1-.4 0-.6-.3-.2-.3-.4-.4-.4-.1 0 .5.6 1 1 1l.8-.2zm6-.2c.1-.2 0-.3-.4-.3-.5 0-.7.3-.3.6.2.2.7 0 .8-.3zm4.2 0c0-.2-2.4-.5-3-.4-.1 0-.3.3-.3.5 0 .3.4.4 1.7.3 1 0 1.6-.2 1.6-.3zm35.3.2c-.1-.1 0-.3 0-.4.5-.3.4-.7-.3-1-.5-.1-.5-.1 0-.2.3 0 .7-.1.9-.3.2-.2.3-.2.3 0s.4.3 1.5.3c1.4-.1 1.5-.2 1.6-.8 0-.4-.2-1-.4-1.2-.2-.2-.3-.4-.1-.4.2 0 .3-1.6.3-4.9v-4.9h-1.9v4.9L142 83c0-1.8-.1-2.3-.4-2.3-.4 0-.4.8-.4 4.8V90h1l1.2.1-1 .2c-.9.1-1.1.3-1.3.8-.1.6-.1.6-.2 0 0-.5 0-.5-3.4-.5-2 0-3.5.2-3.5.3 0 .1 0 .2-.2 0-.2 0-.5 0-.8.2-.5.2-.6.5-.5 1.4v1.1h2.3c1.2 0 2.2 0 2.3-.2l.9.1c.4.2.7.4.6.5 0 .2.3.3.8.3.6 0 1-.1.9-.3zm37.8-.3c0-.2-.1-.2-.1.2 0 .2 0 .4.1.3v-.5zM54 94l-.3-.3-.3.1c0 .2.1.3.3.3l.3-.1zm43.7-.4c0-.2-.2-.2-.4-.1-.1 0-.2.2 0 .4h.3c.2 0 .2-.2.1-.3zm1.8 0c0-.4-.2-.5-.4-.4-.3.1-.4.3-.4.5s.1.4.4.4c.2 0 .4-.2.4-.5zm-72.5 0c0-.4-.3-.4-.8 0-.3.2-.3.2.2.2.3 0 .6 0 .6-.2zm104.7-1.2c0-.8 0-1.2-.2-1-.2 0-.3.5-.3 1v.8l-.2-1c-.3-1.3-1-1.2-1 .2-.2 1 .2 1.5 1 1.3.5 0 .6-.3.7-1.3zM41 91.7c-.1-.9-.2-1.2-.3-.9-.2.8-.3 2.2 0 2.6.3.5.5-.3.3-1.7zm35.8 1.5c0-.2.3-.4.5-.4.6 0 .9-1 .8-3V84c0-3-.1-3.5-.5-3.7-.2 0-.7 0-1 .2-.6.4-.7.4-.7-.2 0-.3.4-.8.9-1.1.4-.4 1-.8 1-1 .3-.3.3-4.6 0-6l-.2-1-.6 1c-.9 1.6-1.6 2-.9.4l1.3-1.8c.4-.5.6-1.1.6-1.7 0-.8-.2-1-2.2-2.5a176.9 176.9 0 0 0-5.4-3.8c-.4.1-.4.5-.4 3.4v3.5c.2 0 .6.3 1 .6.5.2 1.3.9 1.9 1.5.9 1 1 1.2.8 2.2-.1.6 0 1.8.1 2.7.6 3.6 1 7.2 1.2 10.7a15.9 15.9 0 0 0 1 5.6c0 .6.6.6.8 0zm-2.7-24.6a8 8 0 0 0-.5-1c0-.2 0-.2.3-.2.6.1 1 1.5.7 1.7-.2.1-.4-.2-.5-.5zm4.5 24.9c0-.3-.5-.4-.7-.2 0 .2 0 .3.2.3l.5-.1zm33.3-.5c-.1-.5-.3-.6-1-.6-1.4 0-1.5-.1-1.2-.4.2-.2.2-.5.2-.7-.2-.4-2.6-.5-2.9 0-.1.1-.3 0-.5-.1-.3-.3-.4-.2-.4 0 0 .4.3.5 1.2.7 2 .2 2 .3.3.3-1.5 0-2.2.4-1.4.7l2 .2c1 0 1.9 0 2.1.2.2.2.7.3 1 .3.5 0 .6-.1.6-.6zm2 .3c.6-.3.2-1-.5-1-.8 0-1 .3-.9.9.2.4 1 .5 1.5.1zm2.2-.8c0-.9 0-1-.5-1-.3 0-.6.2-.7.6-.2 1 0 1.5.7 1.5.4 0 .5-.2.5-1zm4 .2c0-1-.4-1.2-2-1.2-1.2 0-1.2 0-1.2.8l.2 1.1c.1.1.9.2 1.7.1 1.4 0 1.4 0 1.3-.8zm4.2-1.1c0-1.2-.1-1.7-.4-1.7-.2 0-.3.5-.3 1.6 0 1.7 0 2.2.5 2l.2-2zm-97.7.2c.1-.6 0-1.2-.3-1.5-.3-.5-.4-.4-.4 1.1 0 1.2.1 1.7.3 1.6.2 0 .4-.6.4-1.2zM90 91a68.7 68.7 0 0 0 .4-6.2c.2.5.9.7.9.3 0-.2-.2-.6-.5-.9-.5-.5-.8-3.5-.4-3.2.4.2.6-.9.2-1.2-.2-.2-.4-.7-.4-1.3 0-1 0-1 1-1 1.3-.1 1.5-.3.2-.3-.6 0-1-.2-1-.4l-.3.3c-.3.4-.4 2.1-.5 8.2-.1 7.5 0 10 .4 5.7zm15.4 1.8c.1-.2 0-.4-.4-.5-.3 0-.5-.3-.5-.7 0-.5-.2-.7-.5-.7-.6 0-.8 1-.2 1.2l-.6.1c-.7 0-1 .3-.7.6.2.3 2.8.2 3 0zM83 91.9V70l-1.4-1L80 68c-.1 0-.4 0-.6-.2-.6-.4-.7.2-.5 2.5l.3 2.2.3-2c.2-1.9.3-.5.3 8.4 0 5.8.1 11.2.3 11.9.2 1.3.2 1.3 1.1 1.2.6 0 1 .1 1.3.4.5.5.5.5.5-.5zm10.5-1.4.1-5c0-2.3.2-3 .4-3l.8-.2c.7-.3 1.2 1.2 1.2 3.7l.2 2.6s.3.2.6.1c.5 0 .5-.1.4-.5-.4-1.1-.5-5.3-.1-5.5.2-.1.2-.2 0-.4-.2 0-.3 0-.3.2s-.2.1-.5-.2c-.3-.2-.4-.6-.4-.8.1-.2 0-.3-.2-.2-.2 0-.7-.2-1.1-.7-.7-.7-.7-.9-.5-1.4.3-.6.3-.7 0-.7s-.7.2-1 .4c-.3.4-.3.5 0 1 .2.5.3.8 0 1.1-.1.3-.2.4-.2.2s-.2-.3-.3-.3c-.2 0-.3.3-.2 1a76 76 0 0 1 .7 7.2c0 4 .3 5 .4 1.4zm.1-9c0-.2.2-.4.3-.5.2 0 .3 0 .3.3 0 .2-.1.4-.3.4-.1 0-.3-.1-.3-.3zm7.4 10.7c0-.2.2-.5.4-.5v-.3c-.2-.2-.4-1.1-.4-2 0-1.2-.1-1.7-.4-1.9-.3-.1-.3-.3-.1-.4.4-.3.4-.7-.1-.7-.4 0-.4.3-.4 1.3 0 2.2 0 2.7-.3 2.6-.1-.1-.2-.4-.1-.6.2-.5-.3-.7-1-.3-.5.4-.6.8 0 .6.3-.2.3 0 .3 1 0 1.1.5 1.3.9.2.1-.6.1-.6.2.2 0 .7-.1.9-.5.9-1 0-.6.4.4.4.7 0 1 0 1-.5zm19.8-.4c0-.3-.1-.1-.1.3 0 .5 0 .7.1.5v-.8zm-68.2-.3c0-3.2 0-5.3.3-5.5a24.1 24.1 0 0 1-.3-7.6c.2-13.9.2-23.6 0-23.7-.5-.3-.6 5.5-.6 20a116.6 116.6 0 0 0 .6 16.8zm38.4.9-.3-.3-.2.1c0 .2 0 .3.2.3l.3-.1zm7-.3c0-.7-.1-1.7-.4-1.7-.1 0-.3.3-.3.7 0 1-.2.6-.3-.7 0-.6-.3-1.2-.5-1.3-.4-.1 0 3 .4 3.2.5.3 1 .2 1-.2zm53.5-.9c.1-1 .1-1.1-.6-1-.8 0-1 .6-.8 1.7.1.5.3.6.8.6.5-.1.6-.3.6-1.3zm-97.3.5-.2-.2c-.2 0-.3 0-.3.2s.1.3.3.3c.1 0 .2-.1.2-.3zm48.7-.4-.1-.4-.5-.1c-.5-.2-.6.4-.1.9.3.3.7.1.7-.4zm2.5.3c0-.3 0-.4-.1-.3-.2.1-.3.3-.3.4 0 .4.2.3.4-.1zM112 90a177.4 177.4 0 0 1-.9-54.4c0-20-.3-20-1 0-.2 3.8-.4 7.6-.6 8.4-.3 1.7-.3 7.6 0 12.4a51 51 0 0 1 .2 10.6c-.3-1.7-.4-3.4-.6-10.3 0-2.8-.2-5.2-.3-5.4-.3-.4-.5 1.6-.8 5.6a19 19 0 0 1-.4 3.4c-.1.1-.2-2.1-.2-5 0-5.9-.2-10-.6-9.8a75 75 0 0 1-.3-12.6c0-5.7-.4-10-.7-9.1l-.2 2.7-.3 6.1a207 207 0 0 0-.5 15.2c0-1.4-.2-2.5-.3-2.5a22 22 0 0 0-.5 5.6c0 .6-.2 1.3-.4 1.6-.4.3-.4 1.4-.5 5.5 0 5 0 5 .5 5.6l.6.6v-2.8c0-1.5.1-2.9.3-3 0 0 .3.9.3 2l.4 2.8c.1.5 0 .6-.3.6-.2 0-.4.2-.4.3 0 .2.1.2.2.1.2 0 .4.2.5.5 0 .4.3.8.5 1 .3.2.3-.8.4-5.9 0-3.4 0-7.3.2-8.8.2-2.3.2-2 .2 2.5 0 4.8.3 8.4 1 9.2l.3 1.5c.2 1.3.2 1.4-.2.6-.3-.5-.6-1.5-.8-2.4l-.3-1.6-.1 2.9c0 2.4-.2 3-.5 3.2-.3.2-.4.4-.2.6 0 0 .2 0 .3-.2 0-.1.2-.3.4-.3.1 0 .2.1 0 .3 0 .1.4.7 1 1.3 1.6 1.7 2.2 2.6 2 3.1-.1.4 0 .7.5 1 .8.5 1 .5 1 0 0-.2 0-.4.2-.4s.2.2.2.5c-.2.4-.3 18.2-.2 19h.3c.2 0 .4-.8.6-1.8zm-1-22.6-.2-2.6a235 235 0 0 0-.5-14.9l.4 1.7c.2 2 .7 15.7.6 15.8h-.3zm-5.7-8c0-.4 0-.6.2-.4v.7c-.1.2-.2 0-.2-.4zm-1-4.2c0-1.7.3-2.9.6-3.4.4-.8.4-.8.4 1.3 0 1.5-.1 2-.3 1.7-.2-.2-.2.1-.2 1.3 0 1-.2 1.7-.3 1.7-.3 0-.3-.8-.2-2.6zM38 90.8c0-.8-.5-1.4-1-1-.2.3 0 1.3.2 1.6.6.5.8.4.8-.6zm47.6.7c0-.2-.1-.3-.3-.3-.1 0-.2.1-.2.3l.2.2c.2 0 .3 0 .3-.2zm28.3-3c0-2-.1-3.4-.4-4.2-.3-.8-.4-2.4-.3-7 0-3.4 0-5.7.2-5.3l.2 5.3c0 3.4.2 4.3.4 3.7l.2-3.6a1169.6 1169.6 0 0 1 .2-23.3c.1.2.2 2.5.1 5 0 3.2 0 4.5.2 4.1a142 142 0 0 0 .2-23v-3.1a160.8 160.8 0 0 0-.3-21c0-2 0-2.4-.2-1.9s-.3 5.7-.3 17.2a211 211 0 0 1-1.3 29.5c-.3.2 0-4 .3-4.5.3-.4.6-31 .3-31-.1 0-.3.8-.4 2a101 101 0 0 0-1 27.3c-.2 0-.1.6 0 1.3.2.6.3 1.5.2 2-.2 1 .1 4.3.4 3.8.2-.3.4 1.6.6 6.5v1.5c-.2-.4-.3-1.5-.3-2.5 0-1.5-.1-1.8-.4-1.4a1966.7 1966.7 0 0 1 0 23.8c0 2 .1 2 .8 2h.6v-3.1zM36.2 90c0-.7-.1-1.3-.4-1.5-.3-.2-.4 0-.4 1.2l.2 1.6c.4.3.6-.2.6-1.3zm52.8.8c.2-.5-.1-1.2-.4-1-.3.1-.3 1.4 0 1.4l.4-.4zm27.1-.5.3-7.4-.1-7c-.2-3.5-.1-6.2 0-6.5.1-.2.2 1.1.1 3.4 0 3.4 0 3.8.4 3.8s.4.4.4 5.5c0 3.7 0 4.5-.3 4-.3-.4-.3 2 0 3.9l.1 1.2h1.4c1.5-.1 1.5-.3 1-2.5-.2-1-.1-1 .3-.7.4.3.4 0 .4-3.7 0-2.2 0-4 .2-3.8.1 0 .2 2 .2 4.4 0 3.7 0 4.3.4 4.3.6 0 1-1.9.5-2.6-.2-.4-.3-2.2-.4-6.9 0-5.8-.6-14-1-14.3l-.3 1c-.1.6-.2 1-.3.8l.2-2c.3-2 .3-11 0-14.5-.2-1.4-.3-6.2-.4-10.5a1103.5 1103.5 0 0 0-.7-23.5v-1.6l-.3 1.4-.5 2.4c-.3 1.5-.3 14.9 0 14.9.2 0 .2 2.4.1 6.3 0 3.7 0 7.7.2 9.8a73.8 73.8 0 0 1 .2 8.5c0-1.5 0-2.1-.3-2.2-.3-.1-.3-.5-.2-1.7l-.1-3.2-.3-1.5-.1 2.4c-.1 1.3-.2-4-.2-12-.1-14.1-.3-16.1-.9-9.7-.1 1.6-.3 9.5-.3 17.7 0 9.8-.2 14.8-.4 14.9l-.5 1.2a177.5 177.5 0 0 0 .4 23.3v2.1l-.2-1.5-.2-1.6-.2 1c-.2 1.3-.2 3.2 0 3.4l.8.2c.5 0 .6-.1.6-.9zm3.2-3.4c0-.3-.1-.8-.3-1-.2-.3-.2-.2-.2.3 0 .4-.2.8-.3 1-.3 0-.3-.2-.2-1 .2-1.6.5-7.8.3-7-.3 1.3-.5.5-.7-2.5-.3-4.8-.4-12-.2-10.6.2 1.5.6.6.4-1.2 0-.7 0-1.8.2-2.5.1-1 .2-.2.2 2.7v4.7c0 .6 0 .6.3.1.1-.3.2 1.1.2 3.6l.1 4.5a102 102 0 0 1 .2 8.9zm-.3-18.3c0-.4.1-.7.3-.7v.7l-.2.6v-.6zm-2.6-.6c0-.3 0-.3.2-.1v.5c-.1 0-.2-.1-.2-.4zm.8-5c0-.9 0-2.6-.2-3.8-.2-2.5 0-2.9.3-.4.4 3.6.5 5.2.2 5.5-.2.2-.3-.3-.3-1.3zM40 90c-.2-.1-.2-.2 0-.3.3-.1.3-.2 0-.2-.7 0-.6-.6 0-1.2.7-.6.7-1.2.1-1.2-.2 0-.3.1-.2.3 0 .1 0 .6-.4 1-.6 1-.7 1.3-.1 1.5.2 0 .4.3.4.6 0 .4 0 .4.2 0 .2-.2.2-.4 0-.5zm81.3.2c0-.4-.1-.7-.3-.7-.3 0-.6.8-.4 1 .3.6.7.3.7-.3zm8.4-.2c-.1-.5 0-.8.2-.8s.3.3.3.8c-.1 1 .7 1 .9-.2.2-1 .3-.9.2.2 0 .4 0 .6.3.5.3 0 .4-.7.4-2 .1-2.3.6-6 1-7 .2-.7.7-1 .7-.4 0 .3 0 .3.2 0 0-.3.2-.3.5 0 .2.1.4.2.5.1.3-.2.5-3.5.4-4.1-.2-.7-.2-.6-.3.1l-.3 1.6c-.4.7-.4.7-.5-1.5-.2-2.4 0-4.8.3-5 .4-.3.5-2.6.8-14a132.5 132.5 0 0 1 2-25c.4-.5.4.3.1 2.7-.1 1.4-.4 7.3-.5 13l-.6 15.7c-.3 6.6-.3 16 0 16.4.5.6.8-.2 1-2.7l.4-5.8c.1-1.8.3-6.8.2-11.1 0-4.6.1-8.1.3-8.5.1-.5.2.9.2 4.5 0 4 0 5.3.3 5.6.2.3.3.7.2 1l-.2 3.4c0 1.6-.1 3-.2 3-.2.2-.3 2.3-.4 4.8-.2 4.9 0 6.1.8 6 .4-.1.5-.5.4-3.3l.1-3.4c.1 0 .3 1.3.3 3 .1 3.1.4 4.3.8 3.5.3-.5.8-11 1.1-22.8.4-12.6.7-19.3 1.2-22.2.6-3.4.8-5.8.5-8.7-.1-2.2-.2-2.4-.4-1.5l-.5 6.3c-.3 5.4-.6 8.2-1 8-.5-.3-1.2 7.9-1.5 16.8-.1 3-.3 5.5-.4 5.4-.1-.2 0-14 .1-17.6.1-1.4 0-1.4-.2-.7-.5 1.1-.5.9.1-3.6.6-4.3 1-15 .6-15.7-.2-.3-.3.5-.3 2.8 0 4.4-.3 10.8-.5 11l-.1-9.9c0-8 0-9.9-.3-9.8-.2.1-.3 2.2-.2 10 0 5.5 0 10.7-.2 11.7-.1 1-.3 1.4-.3.9v-1c.2-1 0-20.1-.3-20.6-.1-.4-.2 1-.2 4.6V30c-.3.1-.5-3.8-.5-8.3v-4l-.8-.2c-.5-.2-.6 0-.6.5a78.5 78.5 0 0 1 .8 16.2c-.2 2-.2 1.7-.2-2.6 0-3.5-.2-4.8-.5-5.4-.2-.5-.4-1.5-.4-2.7 0-1.4 0-1.8-.2-1.4a138.2 138.2 0 0 0 .2 15.5c0-.2.2-.4.3-.4l.2.4-.5 3a65.6 65.6 0 0 0-1.3 18 154.6 154.6 0 0 0 0 9.6l-.4-7c-.1-6.8.2-15.2.7-18 .3-1.6.3-6.2 0-7-.2-.3-.2-.3-.3.5l-.4 2.6c-.2 1.3-.4 4.6-.5 11.4-.2 6.4-.3 9.3-.5 8.5l-.1-5.8c0-3.5 0-4.5-.3-4.5-.4 0-.4-.5 0-.6.3-.1.4-1.5.6-4.6a166.8 166.8 0 0 0 .5-26.7c-.2-.1-.4-.2-.5 0-.1 0-.2 3.8-.1 8.3 0 7 0 8.2-.4 9-.3.6-.3 1-.1 1.4.2.5.1 1.7-.3 5.1L131 52l-.3 6.6.1-6.5c.1-6 .3-8.6 1-13.1.2-2 0-3.5-.4-3.5 0 0-.2.1-.2.3l-.2 2a150 150 0 0 0-.9 19.7c0 6.1-.1 11.1-.3 11.2-.2.1-.3-6.5-.2-17.8v-7.2c-.1 0-.3 1.9-.3 4-.1 2.2-.3 4-.4 4.2-.2.2.2-11 .5-13.5.4-3 .4-4 0-4.2a84.2 84.2 0 0 1-1 4.7c-.4 2.5-.4 3-.4 26.7 0 9 .2 15.9.3 15.3.4-1.9.6-1.4.4 1-.2 3 0 3.8.7 3.8.6 0 .9-.9.7-2.6l.1-1.5c.2 0 .2.7.2 1.9 0 1.9.1 2.8.4 2a168.3 168.3 0 0 0 .7-11.3c.1.5.2.4.4-.5 0-.6.3-1.8.5-2.7.2-.9.4-2.4.4-3.4s.1-1.7.2-1.6c.4.2.1 3-.4 6.2a123 123 0 0 0-1.5 16.1c0 .1-.2-.3-.2-.8 0-.8 0-1-.6-1.2-1.7-.7-1.7-.5-1.7 2.2 0 2.4 0 2.5.6 2.5.4 0 .5-.1.4-.8zm-.2-9.8c0-.7 0-1.2.2-1.2l.2 1.4c0 .6 0 1.2-.2 1.2-.1 0-.2-.6-.2-1.4zm10-6.6c-.2-2-.2-9 0-9 .4 0 .4.5.3 5.2l-.2 3.8zm-9.8-.4c0-.3.1-.4.2-.1v.5c-.1 0-.2-.1-.2-.4zm4.3-2s0-.3.2-.3h.3c0 .2-.1.4-.3.5l-.2-.1zm-4.3-.6c0-.3.1-.4.2-.2v.5c-.1.1-.2 0-.2-.3zm1.6-1c0-.5.1-1 .3-1l.2 1c0 .6 0 1.1-.2 1.1s-.3-.5-.3-1zm.3-1.7c-.2-1 0-10 .2-11.2a116.5 116.5 0 0 1-.3 11.2zm-1-6c0-.5 0-.6.1-.4v.8l-.1-.4zm.1-1.6c-.3-.8-.2-2 .1-1.6.2.2.2.7.2 1.2 0 .7-.1.8-.3.4zm-2-3.7c0-1.4 0-2 .2-1.9.2.2.2 1 0 2.1l-.2 1.9zm.1-3 .1-.5c.2 0 .3.1.3.4 0 .6-.2.7-.4.2zm3.4-2c0-.8 0-1 .1-.7v1.4l-.1-.8zm-3.5.6c0-.1 0-.3.2-.3s.3.2.3.3c0 .1-.1.3-.3.3a.3.3 0 0 1-.2-.3zm9.5-.6.2-.6c.2 0 .2.1.1.4-.1.6-.3.7-.3.2zm.3-2.2c0-.3 0-.4.1-.2v.5l-.1-.3zm.3-2.4c0-.7 0-1 .1-.5v1.3l-.1-.8zm-30.6 42-.1-1.8c-.3-.4-.3-.3-.3.5l-.2 2c-.1.7-.1 1 .2.8.2 0 .4-.6.4-1.5zm1.6.5c0-.6-.2-1.2-.3-1.3-.3-.2-.3-.9-.2-2.2.1-2 .1-2-.7-2.6-.5-.4-.8-1-.8-1.2 0-.4.4-.5.5-.1 0 .1.4.2.7 0 .4 0 .6-.2.5-.5a3 3 0 0 1-.1-.8c0-.3-.5-1-1-1.7s-.8-1.4-.7-1.6c0-.2-.2-.7-.6-1l-.6-.8-.2.8c-.2.9 0 1.4.5 1.4.3 0 1.5 1.5 1.5 2s-.4.4-.7-.2c-.2-.3-.5-.4-.8-.3-.3 0-.4 0-.4-.6 0-.4 0-.7-.2-.7s-.6-.4-1-1-.8-1-.9-1c-.1.1-.5-.3-.8-1-.7-1.3-1.7-2.7-2-2.5a18.8 18.8 0 0 0 3.8 6.3v1c.2.6.2.9 0 .8-.2 0-.3-.4-.4-.8 0-.3-.4-1-.7-1.2-.6-.6-.7-.6-1-.3-.4.3-.6.3-1-.4-.5-.5-1-.7-1.7-.8l-1-.1 1.1 1c.7.6 1.1 1.1 1 1.2-.1.2-.5 0-1-.5-.8-.8-1.3-.8-.8 0 .3.7.4 1 0 1-.6 0-4.5-4-4.9-5-.1-.6-.9-1-.9-.6 0 .2-.2.2-.4.1-.3 0-.1.3.4 1.3.4.8.7 1.7.6 1.9-.2.5.2.5.7 0 .3-.2.4-.2.7.2.4.5.4.6 0 .9l-.4.5c0 .2-.2.3-.4.2-.2-.1-.4 0-.4.1 0 .2.1.3.3.3.2 0 .4.1.3.5 0 .3.2.6.4.6.1 0 .5 0 .7.2.4.1.5 0 .3-1-.1-1 .2-2 .5-1.3.1.3.3.5.5.5l1.1.7c.8.6 1 .6 1 .2.3-.5.8-.5 1.6.2l.6.5-.8-.1c-1-.3-.7.2.4.6.9.4 1 .6.3 1.6-.4.8-.4.8.3 1.4.5.4 1 .7 1.2.7.3 0 .7.3 1 .6.6.4.7.7.7 2.4V90l.2-1.6.3-2c0-.3-.3-.7-.8-1-1.2-.6-1.5-1.2-.4-1l1.1.5c.5.4 1.4.5 1.4.2 0-.1-.2-.3-.4-.3s-.4 0-.4-.2c0-.4 1.1-.4 1.9 0 .6.3.6.4.6 3v2.9l.7.2c.4 0 .5-.2.4-1.1zm-6.8-8.9c-.3-.8-.3-1.6 0-1.3.4.6.8 1.7.5 1.9-.1 0-.4-.2-.5-.6zm-57 8.8-.1.4c0 .3 0 .5.1.3v-.7zm40 .6c0-.1 0-.4-.2-.7-.3-.3-.3-.4 0-.5l.2-1.5c0-1.8.3-2.5.9-2.4.5.2.8-.2.6-.8-.2-.5-.9-.5-.9 0 0 .4 0 .4-.4.1-.5-.4-.8.2-.4.7.3.3.3.4 0 .4-.5 0-1.2.7-1.4 1.5-.2.5-.1.6.4.6.4 0 .5 0 .2-.4s-.1-1 .3-1c.2 0 .2.4.1 1-.4 2.7-.4 3.3 0 3.3.2 0 .5-.1.5-.3zm1.1 0c0-.1-.1-.2-.3-.2-.1 0-.2 0 0 .2 0 .2.1.3.2.3l.1-.3zm46.8-1.2c.1-2 .3-2 .3-.2 0 1.6 0 1.7.7 1.7.3 0 .6-.1.6-.3 0-.2.2-.2.4 0 .3.2.7.3 1.1.2.7-.2.7-.3.6-1.3-.3-2.2-.5-7-.2-6.4.2.4.2.4.2 0 0-.6-.6-1-1.5-.8-.8.2-.8.2-.8 1.6 0 .8.1 1.4.2 1.4.2 0 .3.2.3.4s.2.5.4.6c.3.2.3.3-.1.6-.3.2-.6.2-.7 0-.2-.3-1.2-.3-1.2 0s0 .3-.3 0c-.4-.4-.7-.3-.8.2 0 .4 0 .4-.2 0-.2-.6-.2-.6-.2 0l.1 2.2c.1 1.3.3 1.6.6 1.5.3 0 .4-.4.5-1.4zm1.7-.4c0-.5 0-.7.1-.4v1-.6zm0-4.6c0-.3 0-.4.1-.2v.5l-.1-.3zm4.8 6.2h.7l-.1-2.5c-.2-3.9-.4-6-.7-6-.3 0-.6 1.3-.4 2v1c-.2.2-.3-.2-.4-1.2-.1-1.4-.2-1.6-.7-1.7h-.7l.2 4.2.1 4.5.7-.1 1.3-.2zm-37-.2c0 .1.3.2.4 0 .4-.1.3-2.4 0-2.4-.4 0-.8 1-.6 1.6.1.2 0 .3-.3.2-.2-.1-.5 0-.7.1-.4.5 0 .8.6.5.3-.2.5-.2.6 0zm3-.2c0-.2 0-.3-.2-.2-.2 0-.3.3-.3.4 0 .1.1.2.3.2.1 0 .2-.1.2-.4zM25 89.3c0-.2-.2-.5-.3-.5-.2 0-.3.3-.3.5 0 .3.1.6.3.6.1 0 .3-.3.3-.6zm62.7.2-.3-.3-.3.1c0 .2.1.3.3.3l.3-.1zm22.8-4.5a12 12 0 0 0-.4-3.4c-.3.1-.3 5 0 6.8.3 2.5.6.2.4-3.4zm-72.3 3.7c0-.2-.2-.4-.4-.5-.4-.2-.6.6-.2 1 .2.2.6 0 .6-.5zm53.8-.2c.2-1.2.1-2.4-.2-2.3-.4.1-.5 3.1-.2 3.1l.4-.8zm-3 0c0-.2-.1-.5-.3-.5l-.2.5c0 .3 0 .6.2.6s.3-.3.3-.6zm-37.9.1s0-.4-.2-.6c-.2-.3-.3-.3-.3.2 0 .3.1.6.3.6.1 0 .2 0 .2-.2zm36-.4c.2-.4.2-.9.1-1-.2-.7-.8 0-.7.9.2.9.3.9.6 0zm12.3-.2c.1-1 0-2.6-.3-2.6-.1 0-.2.7-.2 1.7 0 1.8.2 2.3.5.9zm-45.6-.4-.3.2-.2.6c0 .2 0 .1.2-.1s.3-.5.3-.7zm49 .7c0-.2-.2-.3-.3-.3l-.4.3c-.1.1 0 .2.2.2.3 0 .4 0 .4-.2zm70.5-2.1c0-.8.5-3.2 1-5.4.6-3.5.7-4.2.5-7-.2-3-.5-3.3-.6-.7v1l-.3-.9-.2-1v1c0 .6-.2 1.1-.4 1.2-.2.1-.2 0-.1-.4l.3-2.8c.1-1.2.4-2.3.6-2.5.3-.4.4-1.4.2-6.4-.1-4.5-.3-5.7-.5-5.3-.2.3-.3 2.5-.3 6.3 0 3.3-.1 6-.2 6.1a51.8 51.8 0 0 0-.4-5.5l-.2-1.7-.3 1.6-.6 2.4c-.2.4-.4 1.6-.4 2.6-.2 1.5-.2 1.7.2 1.6.3-.1.3.1.2 1.5v4.3l.3 3h.3c.2-.2.2.3.1 2-.2 2.7 0 7.3.4 6.8l.4-1.8zm-.6-8.4c0-.5 0-1.4.2-1.8l.2-.8v.8l-.2 1.8-.3 1v-1zM39 87.5c-.2-.3-.5-.4-.6-.4-.2.1-.4 0-.5-.1-.1-.2 0-.3.3-.3.6 0 1-.4.6-.7-.3-.2-1.3.4-1.5 1 0 .1.1.3.4.4.3 0 .5.2.5.3l.6.2c.4 0 .4 0 .2-.4zm68-.4c0-1-.3-1.4-.8-1-.2 0-.2.2 0 .4s.3.6.3 1c0 .2.1.5.3.5.1 0 .2-.4.2-.9zm-71.7.2c.2-.4.2-.6-.1-.7h-.4c0 .2 0 .5-.2.7-.2.6.4.6.7 0zm63.3-3c.4-.7.2-1-.5-.5-.5.2-.5.4-.3.8.2.3.2 1.1.2 1.7v1.3c.1.1.2-.4.2-1.2 0-.8.3-1.7.4-2zm-55.1-1c0-2.7-.1-4-.3-3.8-.2.2-.3 1.2-.3 2.2l.1 3.9c0 1 .1 1.9.3 1.9.1 0 .2-1.7.2-4.1zm-18.4 2.5c0-.6 0-1.4.2-1.8.3-.6.3-.8 0-1-.4-.2-.4-.3 0-.5.2-.2.2-.3-.2-.4-.4 0-.6 0-.7.2-.2.4 0 4 .2 4.6.3.7.5 0 .5-1zm2.2-1.7c.2 0 .4-.3.4-.6 0-.5-1-.8-1.3-.4-.4.3-.4 2-.1 3.4.1.8.2.8.4-.7.2-.9.5-1.6.6-1.7zM88.7 87v-1.4c-.2-.6-.3-.8-.3-.5l-.2 1.4c-.2.8.2 1.2.5.5zm13.6-.4c-.3-.3-.5.1-.3.5.2.3.2.3.3 0v-.5zm1.4 0c0-.3-.1-.6-.3-.6-.3 0-.3.9 0 1.1.2.3.3.3.3-.4zm34-.8v.9-.9zm-96.9.6v-.5c-.5-.3-.1-.7.3-.5.2 0 .4 0 .5-.2v-.6c0-.2.3-.3.5-.2.3 0 .5-.1.5-.4l-.1-.4-.6-.1c-.2-.1-.4 0-.4.2 0 .3-.2.5-.5.5-.5 0-.5-.1-.3-.6s.1-.4-.3.2c-.4.4-.6.8-.6 1l-.1.6c-.2.2-.3.4-.2.5l.2-.1c0-.3 0-.3.3 0 .3.1.4.4.3.6l.1.4c.2 0 .3-.2.4-.4zm4.4.1c.3-.1.3-.2 0-.2-.1 0-.2-.6-.2-2v-1.8l.8.1c.5.1.7 0 .7-.1 0-.2-.3-.3-.6-.3-.2 0-.7-.1-1-.5-.2-.3-.5-.5-.5-.4v1.5c0 4.3 0 4.3.8 3.7zm10.8-.3c-.1-.2-.2-.1-.2.2 0 .3 0 .4.2.3v-.5zm68.3-1.2c-.1-.4-.2-.1-.2.6s0 1 .2.7V85zm-9.3.5-.1.4v.4c.2-.1.2-.5 0-.8zm-67 .2-.3-2.4c-.2-2-.5-2.4-.6-.8 0 .5-.1 1-.3 1-.4.2-.3.8.1 1 .3.1.4.5.4 1s.2.8.5.8.3-.2.2-.6zm39 .2v-.4l-.3.4c-.1.2 0 .4 0 .4.2 0 .3-.2.3-.4zm79.4-7 .7-5.8c.3-1.2.4-3 .4-4.5 0-3.3.4-9.5.7-10.4.3-.5.3-.3.2 1-.2 2.6-.4 8.2-.3 7.9l.3-1c.1-.6.2-.7.4-.5.2.4.6-1.2 1-3.8.2-2.3.3-2.8.7-2.8.3 0 .4.7.4 3.6 0 2.1.1 3.6.2 3.4a66 66 0 0 0 2.2-17.8c0-1.9.2-3.6.3-3.8.2-.2.2 1.5.1 4v4.4c.2 0 .5-1.3.7-3l.7-4.4a117 117 0 0 1-.4-11.6l-.3-9.4-.2 8.6c-.1 8.2-.2 10.6-.5 10.9l-.1-9.6c0-11.4-.3-23-.6-21.6-.1.5-.2 5.7-.1 11.5a222.1 222.1 0 0 1-.4 13.4c-.2-1.8-.8 2.7-1 6.6a140.2 140.2 0 0 1-.6 11.7c0 1.6 0 2-.4 2-.5 0-.6-2.2-.4-7.7.5-10.2.5-16.6.2-16.5-.3.1-.3 0-.9 5a72 72 0 0 1-.6 5.1 221.1 221.1 0 0 1-1.5 13.6 85.3 85.3 0 0 0-.9 9.2c-.1-.6-.2-.7-.3-.4-.1.2-.3.5-.3.8v-1.2c.3-2 .1-7.8-.2-8.4-.2-.2-.3.8-.3 3v5.4c-.1 1.3 0 2 .1 1.9.4-.1.5 1.1.2 1.6a111.7 111.7 0 0 0 0 15v2.1l.3-1.9.5-5.6zm-87 5.9c0-.7-.1-1.1-.3-1-.2 0-.3.6-.3 1.2 0 .5.1 1 .3 1 .1 0 .3-.5.3-1.2zm21.4.7c0-.3.1-.6.3-.6.2-.1.1-.3-.3-.7-.8-.7-1.3-.8-.7 0 .5.5.5.8 0 .6-.4-.2-.5 0-.2.8.2.6.9.5.9-.1zm33-1.6c0-1.2 0-1.8-.2-1.7-.2 0-.3.4-.3.6 0 .3 0 .6-.2.6-.1 0-.3.4-.3 1-.1.8 0 1.2.3 1.3.6.4.8 0 .8-1.8zm1 0c0-2.4-.5-2.7-.6-.3-.1 1.8 0 2.4.5 2.4.1 0 .2-.7.2-2zm-98 1.4c.2-.2.5-.3.9-.3h1.1c.5 0 .6-.2.3-.5l-.6-.3c-.5 0-.7-.6-.5-1.4.2-.7 1-.5 1 .3.3 1.3.7 1.2.7-.2 0-.8 0-1.4.2-1.4.4 0 .6-.8.3-1.2a.8.8 0 0 1-.1-.7L40 79c-.2 0-.1-.4.2-1l.4-1.3c0-.6-.7-.7-.7 0 0 .2 0 .4-.2.3-.5-.3-.3-1.3.3-1.5.5-.1.5-.2.1-.8-.2-.3-.4-1.4-.4-3l-.2-2.5s0-.5.2-.8c.2-.6.2-.5.2.4l.2 1c.5 0 .5-23 0-23.4a330.5 330.5 0 0 1-.7 9.2l-.4 13.1c-.1 6.9-.1 7-.5 7.2-.2.2-.1.3.2.6.2.2.4.5.4.8l.3.6c.3 0 .2.3-.1.5-.7.5-1 .5-1-.2s-.5-.9-.7-.2c-.4 1-.8 0-1-2.3a65.4 65.4 0 0 1 .3-12.8c0-2.5.3-3.2.8-3 .2 0 .4 0 .4-.3 0-.2-.2-.3-.6-.2-.5.1-.5 0-.5-2.8a630.7 630.7 0 0 0-.4-18.9c-.3-1.5-.3-.6-.2 6.4a174.2 174.2 0 0 1-1.3 24.8c-.2.3 0 2.7.4 2.9.3.2.2 1.2-.1 1.6-.3.3-.3.3 0 .3a29.2 29.2 0 0 1 0 4.4c-.3.3-.8-.5-.9-1 0-.5-.2-.9-.4-1-.3 0-.4 1.2 0 1.5.1 0 .2.3.1.5-.1.4.3.5 1.2.4.2 0 .3.2.3.8-.1 1-.8 1.4-.8.5 0-.6 0-.6-.4-.1-.2.3-.2.6-.1.7.1 0 .3.7.4 1.5.2 1.4 1 3.7 1.4 3.7.1 0 .4-.1.6-.4zm0-.8h.4c.1.1 0 .2-.3.2s-.4-.1-.2-.2zM37 81c0-.2.1-.4.3-.4.1 0 .3.1.3.3l-.3.4c-.2 0-.3 0-.3-.3zm1.2.2.1-.4c.2-.1.3 0 .4 0v.5l-.5-.1zm0-1.2-.6-.3.1-.5c0-.2.4-.4.8-.3.9 0 1 .3.6.9-.3.4-.5.4-.9.2zm-1.7-.4.3-.6c.2-.3.2-.3.2.2 0 .4-.1.6-.2.6-.2 0-.3 0-.3-.2zm48.1 5.1c0-.2 0-.4-.2-.5-.2-.1-.3.1-.3.5s.1.6.3.5l.2-.5zm53.1-.8v.9-1zM22.6 80c0-2 .3-4.3.4-5 .3-1.2.3-2 .3-4.2v-4.9a201.8 201.8 0 0 0-.8-22.2v-2.2c-.2 0-.1-1 0-2 .2-1.3.2-3.6 0-7.3v-7.8c.2-1.7.1-2.5-.2-3.4-.3-.9-.4-2.4-.4-7.3l-.1-7.4c-.2-1.1-.3-1.3-1-1.6l-1.2-.2c-.2.2-.3 1.4-.2 3.4l.3 9.7c.2 9.5.3 11.9.6 12.8a6 6 0 0 1 0 2.7 20 20 0 0 0-.2 6.9c.2 1 .3 4 .4 6.6 0 2.6.1 5.3.3 5.9.3 1.3.2 2.7-.4 2.7-.2 0-.3.2-.2.3 0 .2.2.3.4.3l.3.1.1.9c0 .4 0 1.1-.3 1.7-.2.7-.3 1.1 0 1.5.1.3 0 .6-.4 1-.5.4-.5.6-.4 4.1l-.1 4.4c-.2.7-.2 1 .2 1.3.3.4.4.7.2 1.3l-.3 3.8c-.1 3 0 3.1.4 3l.6-.5c.2-.3.4 2 .3 3.5 0 .4 0 1.2.2 1.7.6 2 1 .6 1.2-3.6zm31.7 4c0-.3-.2-.5-.2-.5l-.1.4c0 .2 0 .4.2.4s.2-.2.1-.4zm1.8-.2c0-.2-.1-.3-.3-.3-.1 0-.3.2-.3.4 0 .3.2.4.3.3.2-.1.3-.3.3-.4zm30-.6c-.1-.3-.3-.5-.4-.5-.2 0-.1.3 0 .6.4.6.6.5.4-.1zm2.3.2v-1.3c-.1-.8 0-1 .3-.8.3.1.4 0 .4-.3s0-.3-.6 0c-.6.2-.7.4-.7 1.5 0 1.2.3 1.7.6 1zm4 0c0-.5-.5-1-.7-.7v.6c.1.3.6.3.6 0zm-62.3-1c0-.2 0-.5-.2-.5 0 0-.2.3-.2.7 0 .3.1.6.2.5.2 0 .2-.4.2-.7zm55 .4c0-.2 0-.5-.2-.6-.6-.4-.8-.3-.8.4s.7.9 1 .2zm.8-2.1c-.4-.3-.5.1-.3 1l.2.9.1-.9v-1zm1.3.8c-.2-.2-.7.2-.5.5 0 .2.2.2.4 0s.2-.4.1-.5zM79 79c0-5-.2-6.3-.4-6.3-.1 0-.2 1.8-.1 4 0 3.7.2 5.2.4 5.2v-3zm-53.7.8c-.4-.3-.6.3-.3 1.3l.2.7.2-.9c.2-.7.2-1 0-1.1zm5.7 1.5c0-.7-.1-1.6-.3-1.9-.4-.4-.6 0-.3.7.2.4.2.6-.1.7-.3.1-.4.2-.1.5.3.5.7.5.8 0zm1.8 0 .3-.1c0-.6-.7-.5-.8 0 0 .3 0 .5.1.3s.3-.3.4-.2zM99 81c0-.4-.7-.8-1-.6-.1.2.5 1 .8 1l.2-.4zm-11.8-.3c0-.2-.2-.3-.3-.2v.4c.3.4.5.3.3-.2zM33.6 79c-.3-1.4-.1-3.3.3-3.6l-.1-.7a5 5 0 0 1-.4-1.6l-.2-1.9.1-2c.2-.8.1-1-.1-1-.5 0-.5-.7-.2-.9.2 0 .2-.5 0-1.2l-.4-1.2v1.4c0 .8-.2 1.5-.3 1.7-.4.3-.4 1.3 0 1.6.3.4.3 1.6.3 6 0 3-.1 3.4-.5 3.2-.3 0 0 .3.6 1 .5.5 1 1 1.1.8 0-.1 0-.9-.2-1.6zm102 1.3c0-.2-.1-.2-.1.2 0 .2 0 .4.1.3v-.5zm-91-1.5c0-.5 0-.8-.1-.7l-.2 1.4c0 .9 0 1 .1.7.2-.3.3-1 .3-1.4zm40.5.4c0-.8 0-1.5-.2-1.5-.3 0-.3 1 0 2 .2 1.3.3 1.1.2-.5zm-31-2 .2-2.7c.1 0 0-.3 0-.4-.2 0-.3-.8-.2-1.8v-2.7l-.2-1-.2 1c-.2 1.7 0 11 .2 10.5.2-.2.3-1.5.3-2.8zM86 79.8c-.3-.3-.7 0-.4.4 0 .1.3.2.4 0 .2 0 .2-.2 0-.4zm-57 .1-.5-.2c-.1 0-.2 0-.2.2s.2.3.4.3.3-.1.3-.3zm12.8-.1c0-.2.2-.4.4-.4.7-.1.9-.1 1-.3.2-.2 0-.2-.1-.2-1 0-1-1-1-7.1a360.5 360.5 0 0 1 0-10.2c0-2.6-.1-3.1-.4-3.1-.4 0-.5.4-.5 2v10.2c0 4.7.1 7.6.4 8v1c-.3.3-.3.5 0 .5l.2-.4zm100.3-.8.2-1v1c0 .8 0 1 .8 1 .4 0 .8-.2.9-.4l.3-3.5c.2-2.3.3-3 .6-3 .2 0 .3-.5.3-1.8a516.6 516.6 0 0 1 .4-20.2c.1-4.5.3-9 .5-10a123.4 123.4 0 0 0 .1-14.5 14 14 0 0 0-.4 3.8c0 1.8-.2 3.2-.3 3.2-.2 0-.3-.1-.3-.3V33a44.8 44.8 0 0 0-.3 7.1c0-1 .2-2 .4-2.2a364.7 364.7 0 0 0-.8 18.1l-.3 6.5.1-8.7a194.1 194.1 0 0 1 .1-10.6c-.2.1-.3-1-.2-4.9 0-3.7 0-5-.2-5.2-.4-.1-.5.3-.7 2-.5 3.2-.7 7-.8 12.6l-.3 6.9-.2 7c0 3.4 0 6.7-.2 7.2a68.3 68.3 0 0 0-.2 11.2c.2 0 .4-.6.5-1.1zm0-2c0-.4 0-.5.1-.3v.6l-.1-.3zm.2-1.7.4-4 .6-5.3c0-1.5.3-2.3.6-2.8l.5-.6-.1 1.7-.4 2.1v1.3c0 .6 0 .9-.2.7-.2 0-.4 1.2-.7 3.5-.5 4-.6 4.6-.7 3.4zM78 79.3c0-.2 0-.3-.2-.2-.2 0-.4.2-.5.4 0 .2 0 .3.2.3l.5-.5zm9-.4c-.2-.2-.1-.6.2-1.6a4 4 0 0 0 .2-1.4l.2-.6c.1-.3 0-.5-.5-.7-.6-.3-.6-.3-.6.6 0 .6.1.9.3.8.1-.1.2 0 .2.1 0 .2-.1.3-.3.3-.1 0-.2.2-.1.5l-.1.5-.6.8c-.4.6-.4.7.3 1.1.8.5 1.4.2.9-.4zm-1-.4c0-.1 0-.3.2-.4l.3.1-.3.4c-.1.1-.2 0-.2 0zm-45 .2c-.1-.4-.5 0-.4.5.2.3.2.3.4 0 .1-.1.2-.4 0-.5zm68.3-.3c0-.4-.2-.7-.4-.7-.5 0-.6.6-.1 1 .4.4.5.4.5-.3zM89 78c-.2-.6-.4-.5-.4.1 0 .3.1.5.3.4.1 0 .2-.3 0-.5zm4.1 0c0-.3-.1-.4-.3-.3l-.2.6c0 .2.1.3.2.2.2 0 .3-.3.3-.5zm-46-.7c0-.4-.2-.8-.3-.8-.2 0-.3-.9-.3-2 0-1.5.1-2.1.5-2.5.4-.5.4-.5 0-.5s-.5-.1-.4-.6c.1-.5 0-.7-.2-.7-.3 0-.4.7-.3 3.8 0 2 .2 4 .3 4.1.3.5.7 0 .7-.8zM27.5 77l-.2-3.5v-3.3c0-.8 0-.8.3-.4s.4.4.6.2l-.1-.6c-.6-.5-1.2-.4-1.5.3-.1.4-.5.9-.7 1-.3.4-.3.4.2.3.7-.1.7 0 .6 4.1 0 2.7 0 3.2.6 3 .3-.1.3-.4.2-1.1zm3.7-1.9c0-1.5.2-2.7.2-2.7a3941.5 3941.5 0 0 1 0-16.3c-.2-11.7-.4-18.6-.7-19-.1-.3-.1 5.8-.1 13.4a195.8 195.8 0 0 1-.2 25.1c.2.5.3 1.3.3 1.8 0 .6 0 .8.2.7.2-.2.3-1.5.3-3zm-6.1 2.2c-.1 0-.3 0-.4.3-.1.4 0 .4.2.2s.2-.4.2-.5zm19.7-7c.4-14.9.4-15.5 0-15.8-.1-.3-.2-2-.1-5.5 0-3.6 0-5.2-.2-5.2s-.3 2.8-.3 9.1v16.4c0 6.3 0 8.7.4 8.4l.2-7.4zM86.1 77l-.1-.4c-.2 0-.3-.4-.2-1 0-.5 0-1-.3-1-.2 0-.3 0-.3.4l-.1.8c-.2.3-.1.5.2.7.2.2.4.5.3.7-.1.1 0 .2 0 .2.2 0 .4-.1.5-.4zm-68.6-1.4a180.3 180.3 0 0 0 .1-17c-.2-.1-.5-.6-.6-1-.4-1.8-.6 2.2-.4 11 .1 7 .2 8.5.5 8 .2-.2.4-.7.4-1zm81 1.3c-.3-.1-.4-.3-.2-.3l.6.4c.6.5.1-1.9-.4-2.4a16.4 16.4 0 0 0-6-7.3 28 28 0 0 1-2.4-2 10 10 0 0 0-4-2.4c-.3 0-1-.3-1.3-.7a9 9 0 0 0-1.8-1.1c-1.1-.5-1.2-.6-.5-1 .5-.4.7-.3 1.2.4L86 62c2.7 1.4 4.4 2.6 6.7 4.5 3.2 2.7 6.8 7 6.9 8.4a9 9 0 0 0 2.5 2.2c.5 0 0-1-1.2-2-1.5-1.5-2.2-2.5-1.4-2l1 .8c.8.9 1 .6.4-.7-.3-1-.6-1.3-1.7-1.8-1.2-.5-1.7-1.1-.7-.8 1.1.3.4-.5-1.3-1.6a9.2 9.2 0 0 1-1.6-1.2c0-.3 1.7 0 2.2.5.2.2.5.2.5 0 .1 0-.2-.5-.8-1-.6-.6-1-.8-1.5-.7-.4.1-1.2-.3-2.8-1.4-2.2-1.5-2.8-2.2-2-2.2.2 0 .4.1.5.3.1.4 3 2.4 3.5 2.4.7 0 3.1 1.2 4 2l2.3 1.8c1.2.8 1.4 1.1 1.2 1.4-.3.4.3 1.4 1.4 2.3l.6.6-.2-.6-.4-1.6c-.2-.9-.6-1.4-2.2-2.9-1-1-2.4-2-3.1-2.4l-1.8-1.1a10 10 0 0 0-2.3-1.2c-1-.4-2.3-1-2.9-1.5-.5-.5-1.8-1.2-2.8-1.6-1.8-.8-2.6-1.5-1.3-1.1.8.2 4.1 2 5.4 2.9a8 8 0 0 0 2 .9c.7.2 1.6.5 2 .8.5.3 1.2.5 1.5.5.3 0 1.3.8 2.6 2.1a13.5 13.5 0 0 0 2.7 2.5l.1-.2.1-.9c.2-.2.1-.3-.2-.3-.6 0-2.2-1.3-2.2-1.7 0-.2-.8-1-1.8-2L98 62.8l1 .2c1 .1 2 .9 1.8 1.4 0 .2 0 .3.2.3l1.3 1c1.4 1.1 2.5 1.2 1.3 0l-1-.7a2 2 0 0 1-.9-.4c-.5-.4-.5-.4.1-.3l.7.2-.7-.5c-.3-.3-1.4-1-2.3-1.4-1.3-.7-1.7-1-1.8-1.6-.2-.9-2-2-2.4-1.6-.1.2-1-.2-2-.9l-2.1-1.3c-.2 0-.2-.2-.1-.3 0 0 .9.2 1.7.7 1.6.8 2.8 1 2.2.5-.4-.5-.4-1 .2-1.1.3 0 .2-.2-.4-.5-.6-.3-.8-.6-.7-.9 0-.2 0-.4-.2-.4-.1 0-.2.1-.1.3 0 .1-.2.2-.7.2-.9 0-1.1-.5-.2-.5.6 0 .6 0 0-.4-.4-.2-1.7-.4-3-.5a7 7 0 0 1-2.4-.4c-.3-.3-.1-.3.6-.2l1.3.2c.2 0 .4 0 .5-.3 0-.3-.3-.6-1.3-.9-.8-.3-1.3-.6-1.3-.8 0-.2-.2-.5-.4-.6-.5-.2-1.2.4-1 .9 0 .2 0 .4-.5.4-.3 0-.5 0-.3.1.8.4.2.5-1 .3l-1.3-.5c0-.1.3-.2.6 0 .7 0 .7 0 .7-.8 0-.9-.2-1-1-1.1-2.1-.4-2.5-1.4-.4-1.1 1.4.1 1.7-.2.7-.7-.5-.2-2-.3-4.2-.3-3.2 0-3.4-.1-3.6-.7-.2-.6-.6-.7-1.6-.3-.5.2-1 .2-2-.1-.7-.2-2.2-.5-3.4-.6-1.5 0-2.1-.2-2-.4.2-.2 1.1-.1 2.7 0 1.6.2 2.6.2 3 0l1-.2c.3 0 .5-.1.5-.2 0-.2-.4-.3-1-.3-2.2 0-6-.3-7-.4-.8-.2-.8-.2-.5.2.3.4.3.5 0 .5s-.9-.3-1.4-.6c-.9-.5-1.7-.7-1.7-.2 0 .3 1 .9 2.1 1.3 1 .3 1.5 1 .4.7l-1.5-.4c-.5 0-1-.2-1.2-.4-.6-.4-.4.2.2 1 .3.4.8.7 1.2.7.6 0 2.6 1.5 2.3 1.8l-1.6-.6a16 16 0 0 0-1.6-.7v.9c0 .7 0 1 1 1.6l1.2.7c.4 0 1.8 1.3 1.5 1.3-.7 0-4-1.9-4.3-2.4-.1-.4-.2-.5-.4-.3-.2.4 1.4 2 3 2.9 1 .6 1.2.9 1.1 1.5l.3.6.8 1.2c.2.4.6.9.9 1a9 9 0 0 1 2.8 3.1c.4 1 1 1.7 1.4 1.7.2 0 .9.5 1.6 1.2.6.7 1.3 1.1 1.4 1 .2-.2-2-3.1-2.5-3.2-.5 0-1.4-1-1.4-1.6l-.2-.4c-.4-.1-1.7-2.4-1.5-2.6l1 .8c.3.5.7.8.8.7.4-.3-.8-1.6-2.3-2.6a5.5 5.5 0 0 1-1.5-1.3c0-.3 1.3.3 2.3 1.2.4.4 1 .7 1.2.7.5 0 .6.1.8 1.3a5 5 0 0 0 1.1 1.7c.6.6 1.1 1.4 1.3 1.9l.5 1c.4.6.8.5.6-.1-.1-.4 0-.5.4-.5.3 0 .5.1.5.3 0 .6 2.6 3.3 2.8 3 .1 0 0-.5-.4-.9a19 19 0 0 1-3.4-5c0-.2.3-.4.6-.5.8-.2 4.2 1.3 4 1.8 0 .6.6 1.8 1.7 2.8.6.6 1 1.2 1 1.4 0 .4.8 1 1.6 1.3.3.1.5.4.4.6 0 .3.1.5.4.7.7.4 1 .4.7 0-.1-.2 0-.3.1-.1.2 0 .3.3.3.5s.2.4.3.5c.2 0 .3.2.2.3-.1.1-.7-.1-1.3-.5-.6-.4-1.1-.7-1.2-.6-.2.2.4 1.2.7 1.2l.6.4.8.6c.3.1.7.6 1 1l.8 1.6c.3.4.5.9.5 1.2 0 .7.3 1.3.5 1.2.2-.1.3 0 .3.1 0 .2-.2.3-.5.3-.4 0-.4 0 0 .3l1.2.8c.5.5.7.5.9.2.2-.3 0-.5-.3-.7-.3-.2-.5-.7-.5-1 0-.3-.2-.7-.3-.8-.2-.2-.1-.3.4-.2.4 0 .7.4.9.8.2.9 1.4 2.4 1.9 2.4.2 0 .2-.2.1-.6-.3-.8-1.7-2.8-2-2.8l-1.1-.9c-.5-.4-1.1-.8-1.4-.8-.4 0-.5-.2-.5-.7 0-.4-.2-1-.5-1.4-.3-.4-.4-.8-.3-.9.3-.3-.8-1.7-3-4a22.7 22.7 0 0 1-2.2-2.5c0-.4.8-.1 1.8.6a4 4 0 0 0 1.3.8c.2 0 .3.2.2.5 0 .3 0 .6.3.6.2 0 .6.3 1 .6.7.8 1 .9 1 .2 0-.5-.6-1.2-1.5-1.5-.3 0-.4-.2-.2-.3.2 0 .7.1 1 .4a36.7 36.7 0 0 1 6 5.6c.3 0 1 .8 1.8 1.8l1.6 2c.4 0 1.9 1.5 1.6 1.6-.2.1-.1.4.2.8.2.4.3.7.1.7-.2 0-.3.2-.3.4s.3.4.6.4c.5 0 .5 0 .2-.3zM84.3 66.6c0-.2.1-.3.2-.3.2 0 .3.1.3.3 0 .1-.1.3-.3.3a.3.3 0 0 1-.2-.3zm4.3-4.4-2-1.2c-.9-.2-1.4-.8-.8-.8.5 0 3.2 1.6 3.8 2.3.9 1 .3.8-1-.3zm5.8-.1c-1-.4-2.2-1.3-2.7-1.9A5.3 5.3 0 0 0 90 59c-.7-.1-1-.6-.4-.6.4 0 1.1.4 3.2 1.7 1 .7 2 1.2 2.4 1.2.3 0 1.1.3 1.8.7 1.1.6 1.1.6.4.6h-1.1c-.2.2-1 0-2-.5zm-12-3.1c-1.9-.8-2.4-1.1-1.8-1.1a18 18 0 0 1 4 1.6c.5.4-.4.2-2.2-.5zm1.2-1.3a7 7 0 0 0-2.2-1.2c-1-.3-1.7-.8-1-.7.5 0 2.6.6 3.4 1 .4.2.8.5.9.8l.3.7c.2.6-.3.4-1.4-.6zm5.6-.2c-.9-.4-2-.7-2.6-.8-1-.2-1.4-.7-.4-.7.9 0 4.2 1.2 4.7 1.7.5.6.2.5-1.7-.2zm-10.3 0a13 13 0 0 0-3.4-1.8c-.2 0-.2.3 0 .6.2.7-.1.6-1.7-.5-.7-.6-1.6-1.1-1.9-1.2-.4-.1-.5-.4-.4-.7.1-.4-.4-.8-2.1-2-2-1.3-2.7-2-2.2-2a27 27 0 0 1 4.5 3c.4.5.8.7 1.1.6a5 5 0 0 1 2 .2 87.1 87.1 0 0 0 4.5 1.3c.6.4-2.2 0-4.3-.6-2-.6-2.4-.6-2.4-.3s1.6 1 3 1.4c1.5.3 4.2 1.7 4.2 2.1 0 .3-.3.3-1 0zm-11-1.2c0-.2.1-.3.2-.2l.3.3-.3.1c-.1 0-.2 0-.2-.2zm23.1 0-2.9-.5c-2.2-.1-3-.6-1-.6 1.3 0 5.8 1 6.2 1.2.1.2-1.1 0-2.3-.2zm-21.7-1.4a19 19 0 0 1-2-1.5c-.8-.6-1.4-1.9-1.1-2.1 0-.1.2 0 .3.2.3.7 1.5 1.9 3.1 2.9l1.7 1.2c0 .3-.7 0-2-.7zm9-.8c-1.5-.4-2.1-.7-1.2-.7.9 0 3 .5 3.1.8.2.3-.1.2-2-.1zm4.5-.2c-2.2-.4-2.4-.5-2.2-.7.3-.2 4.7.7 4.7 1 0 .1 0 .2-.2.2l-2.3-.5zm-7.4-1.4a12 12 0 0 0-2-.5c-.3 0-.5 0-.5-.2s.2-.3.3-.3c.6 0 4.3 1.1 4.6 1.4.4.3-.7.2-2.4-.4zm3.2-1.5c-1.7-.6-2.3-.7-2.6-.1-.3.3-.6.3-2.2 0-2.3-.3-2.5-.5-.4-.4 1 0 1.6 0 1.5-.2 0-.1-.6-.3-1.3-.3-2.2-.1-3.6-.4-3.7-.6-.1-.2-.7-.3-1.4-.3-.6 0-1.2-.1-1.3-.3-.2-.3 4.5 0 5 .3l1.9.4c1.6.2 5.2 1 5.9 1.5.8.4-.1.4-1.4 0zm.6-1.5-1-.2c-1 0-1.4-.4-.3-.4 1.4 0 2.7.3 2.4.5-.4.3-.9.3-1 .1zM29.5 76.7c.1-.2.2-8.3.1-11.3 0-2-.5-1-.5 1.2 0 1-.2 2.3-.3 2.6-.2.4-.2.8 0 1 .1 0 .2 1.7.2 3.5 0 3 0 3.6.5 3zM109 76c.2-.4.1-.7-.4-1.5l-.8-1.6c0-.3-.3-.6-.4-.6-.4 0-.3.4.5 1.7.6.9.7 1.2.4 1.2-.3 0-.3.1 0 .7.3.8.3.8.7.1zm-3.2 0c0-.6-.8-1.8-1.2-1.8-.3 0-.3.1.2 1 .6 1 1 1.4 1 .8zm-62.4-1.7c0-.9-.1-1.5-.2-1.4-.3.3-.3 2.8 0 2.8 0 0 .2-.6.2-1.4zm67.4.3c0-.8 0-1-.5-1-.6 0-.7.7 0 1.4.5.7.5.6.5-.4zm-73-.1c-.4-.3-.6.1-.4.5.2.3.3.3.4 0v-.5zm58.2.5c0-.3-.5-.9-1.1-1.4-.5-.3-.4-.2 0 .6.7 1 1.1 1.3 1.1.8zm10.3-2c-.3-.7-.7-1.2-.8-1.2-.4 0-.2.5.4 1.6.4.5.7 1.2.7 1.4l.2-.2c0-.2-.2-1-.5-1.6zm-71.1 1.1-.4-.2c-.4 0-.6.3-.3.6.3.2.7 0 .7-.4zm100.2-1c-.1-.2-.2 0-.2.5s.1.8.2.5v-1zm-69 .2h-.3v.7l.3-.1c.1-.2.2-.5 0-.6zm-18.5.2-.3-.3c-.1 0-.3 0-.3.2l.3.2h.3zm17.6-1.9c-.2-.5-1-.4-1 .1 0 .3.2.8.5 1.1l.5.7v-1.9zm20.2 1.5c0-.5-.7-1-1-.8 0 .2 0 .3.2.3s.3.2.3.4l.2.4c.2 0 .3-.2.3-.3zm6.9-.2c0-.6-3.2-3.8-3.8-3.8-.8 0 2.8 4.2 3.6 4.3.1 0 .2-.2.2-.5zm-5.3-.3c0-.3-.1-.6-.3-.6l-.2.6c0 .3 0 .5.2.5s.3-.2.3-.5zm6.9-.3-.4-.5-.4-.7c0-.5-1-1.4-2.3-2.3l-1.2-1c0-.2-2.5-1.8-2.8-1.8-.6 0-.4.4.5 1.4.5.5 1.1 1 1.4 1 .3 0 1.4.8 2.7 2 2 2 2.5 2.5 2.5 2zm-45-.6c-.2-.2-.2-.1-.3.2 0 .3.1.4.2.3v-.5zm52.6 0c0-.2-.2-.5-.5-.8-.3-.2-.5-.6-.5-.8 0-.2-.2-.4-.5-.5l-1-.6c-.7-.5-.7-.5-.4 0l.6.8.2.7c0 .3.1.5.3.5.1 0 .3.2.4.5.2.6 1.4.8 1.4.2zM25.3 52.6c0-10.4-.1-17.6-.3-17.3-.2.5-.4 20.8-.2 30.1.3 12.5.6 5.3.5-12.8zm18 13.8c0-2.7 0-4.3-.2-4.4-.2-.2-.3 1.4-.2 4.8 0 2.7 0 4.7.2 4.4l.2-4.8zm24.8 5c.1-.2.5-.5.8-.6.6-.2.6-.3.4-1a5 5 0 0 1-.1-2c.1-.9 0-1.2-.1-1.1-.2.1-.3.4-.3.8 0 .3-.2.8-.5 1.2-.3.5-.3.7 0 1.1.1.3.2.6 0 .7-.5.4-.9 1.1-.6 1.1l.4-.3zm-18.5-1.6c.3-3 .2-16-.1-16l-.3 5.2v8.7c-.1 3.7 0 4.9.4 2.1zm35.6 1c-.1-.3-.2-.5-.1-.6h-.6c-.5 0-.8.1-.9.5 0 .3 0 .4.3.3h.9c.6.3.8.2.4-.3zM56 60c0-6.9 0-10.7-.2-10.7-.1 0-.3-.2-.3-.5-.3-1.3-.5 9.1-.2 14.8a686 686 0 0 1 .4 7.3l.3-10.9zm7.3 10.6c.1-.3 0-.4-.4-.4-.5 0-.6.3-.3.6s.5.2.7-.2zm3.8-.7c.4-.4.4-.5 0-.5-.6 0-2 .9-2 1.2 0 .5 1.4 0 2-.7zm40.8.9c0-.2-.2-.4-.4-.4-.6-.3-.7-.2-.4.2.4.4.8.5.8.2zm-69.7-1.6c-.2-.3-.5.1-.2.5.1.3.2.3.3 0v-.5zm25 .4c.5-.1 1.1-.4 1.3-.6.3-.3.5-.3.8 0 .8.4 1.9-.4 2.3-1.6.8-2 1-3.5.7-4.4-.2-.8-.3-.9-1.1-.8-1.6 0-5.8 2.2-6.3 3.2s0 1.3 1.2.7l1-.3-1 .7c-1 .5-1.3.8-1.3 1.2 0 .8 0 .8 1.6 0S67 66 67.1 66l-2.4 1.2c-1.4.5-2.6 1-2.7 1.2l-.7.2c-.3 0-.5.2-.5.5 0 .8 1 1 2.4.5zm1.3-4.7c1-.6 2.8-1.3 3.2-1.3.6 0 .2.5-.4.7-.4 0-1.3.3-2 .6-1.6.7-2 .7-.8 0zM37 68.4c0-.2-.1-.2-.1.2 0 .2 0 .4.1.3v-.5zm45.9.3c0-.1-.2-.3-.4-.3-.2-.1-.3 0-.2.2.1.4.6.5.6.1zM34.3 68c-.3-.3-.5.1-.3.5.2.2.2.2.3 0V68zm12.9 0c.2-.7.2-2.6 0-7.2l-.1-4.5c0-.2-.1-.2-.3-.2-.2.1-.2 1-.2 2.3v3a6 6 0 0 0 0 2c.3 1.3.3 4 0 4.6 0 .2 0 .4.2.4l.4-.4zm-19.9-.8c.3-.6.2-2 0-1.8-.4.4-.7 2.2-.4 2.2.2 0 .3-.1.4-.4zm7.3 0c0-.3-.5-.9-.8-.9l.1.6c.3.5.7.7.7.3zm43.2 0c0-.2-.4-.6-.9-.9l-.9-.6.8.8c.9 1 1 1 1 .6zm3.4 0c0-.2-.1-.3-.3-.3-.1 0-.2 0 0 .2 0 .2.1.3.2.3l.1-.3zm-78.1-1c-.1-.1-.2 0-.2.4s0 .5.2.3v-.6zm102 .7c0-.2-.2-.3-.4-.3-.1 0-.2.1 0 .3l.2.2.1-.2zm-73-1.2v.7-.7zm48.5-2c-.9-1-1.7-2.3-2-2.8-.1-.4-.4-1-.6-1-.7-.6-2.3-1.2-2.3-1l1.3 2.2c.9 1.4 1.5 2 1.8 2 .3 0 .6.2.6.4 0 .1.5.9 1.2 1.6 1.9 1.8 1.8.9 0-1.4zm-29.7.3c-.3-.3-.4.2-.2 1.2l.2 1 .1-1V64zm-16 1.2c-.2-.2-.2-.1-.2.2 0 .3 0 .4.1.3v-.5zm-1.6-.6-.2-.3c-.2 0-.3 0-.3.2 0 .1.1.2.3.2h.2zm29.3-.9 3-1.5 1.8-.9c0-.3-1-1.3-1.2-1.3l-1.2-.8-1-.9-1.1.5c-2 .9-2 1-2.2 2.9 0 1-.2 2-.3 2-.2.3.1.8.6.8l1.6-.8zm-1.2-2.1c0-.3 1.3-.7 2.8-1 1.7-.2 1.4 0-.7.7-2 .6-2.1.6-2.1.3zm103.2-.6c-.2-.3-.3.1-.3 1.5v1.8l.3-1.5c.2-1.1.2-1.6 0-1.8zM45.9 62.8c0-.2-.1-.1-.1.2 0 .3 0 .4.1.3v-.5zm-12-.2c.2-.8 0-1-.4-.4-.5.7-.5 1 0 1 .1 0 .4-.3.4-.6zm-4.3-1.1c0-.8 0-4.7.2-8.7.1-6.4 0-7.4-.3-7.4s-.4 1-.6 5.4a52.4 52.4 0 0 0 0 9c-.2 1-.2 1.8 0 2v.6c0 .3 0 .5.3.5s.4-.3.4-1.4zm73-6c0-4-.1-7-.2-6.5 0 .4-.2 1-.3 1a333.4 333.4 0 0 0 .5-19c0-3.4-.4-3.4-.5 0-.1 3.7-.5 3.5-.5-.3 0-5.5-.4-6.7-.7-2.3-.2 3.2-.4 4.3-.7 3 0-.2-.2 1.8-.2 4.5 0 7-.3 13.8-.4 14l-.1-2.1-.2-8c-.1-3.7 0-6.7.1-8.1.3-2.4.6-16.3.3-16.6l-.3 3.2c0 1.9-.2 3.4-.4 3.5-.1.1-.3 2.7-.4 6.3a34 34 0 0 1-.4 6.3c-.2.2-.3-.2-.4-1.4l-.2 2.4-.1 8c0 3.3 0 3.6-.2 2.3-.2-1-.3-3.6-.2-7.4.3-12.8.1-19-.5-19.3-.2 0-.3 0-.3.2s.1.3.2.3c.3 0 .2 7.6 0 12.5-.2 2.6-.3 3-.6 2.8-.3-.2-.4-.2-.4 0l.4.4c.2.1.4.5.3 1.3 0 .6 0 2 .2 3.2.2 1.5.1 2 0 2-.2-.2-.4-.7-.4-1.3 0-1.2-.5-3.7-.8-3.7 0 0-.2 2.5-.2 5.6l-.2 7.6c-.1 2.3.1 3 .6 1.5.3-1 .3-.8.2 1.3-.2 1.8-.1 2.3.1 2.1.3-.1.3-1.5.2-6 0-4 0-5 .1-2.8.3 3.7.2 3.5.6 3.2a55.2 55.2 0 0 0-.2 3.9c-.1 2 0 2.4.3 3 .2.4.4.9.3 1-.2.6.2.6.5.2.2-.3.3-.1.4.4 0 .6.3.8.6.8.5 0 .6-.2.7-3 .2-3.7.2-3.5.6-3.5a73.6 73.6 0 0 0-.2 5.2c-.1 2.1 0 2.5.3 2.6h.6v-13c0-8 .1-13.2.3-13.6.2-.4.2.4.2 2.8a1309.6 1309.6 0 0 0 0 25.3c0 .6.9 1.6 1.4 1.6.1 0 .2-3.3.2-7.4zm-4.8-.2c-.3-1.8-.2-3.3 0-3.1.2 0 .3-.2.4-.6 0-.4 0-1 .2-1.3a37 37 0 0 0 0 3.9c0 2.5-.3 3.1-.6 1.1zm-.1-4.5c0-.5 0-.7.1-.4v1l-.1-.6zm.7-3.4c0-.3.1-.4.2-.2v.5c-.1.1-.2 0-.2-.3zm-.1-1c-.1-.3-.2-.5 0-.6.2-.3.4 0 .3.6-.1.5-.1.5-.3 0zm0-3.7c-.1-.2-.2-.8-.1-1.3 0-.8.1-.7.2.4.1 1.3.1 1.5-.2.9zm-2.5-.5c0-.3 0-.5.1-.3v.7l-.1-.4zm2.4-2.5c0-.3 0-.4.1-.1v.5l-.1-.4zM136 54.8c0-4.4 0-7.1-.1-6.4a92.3 92.3 0 0 0-.2 14.2l.3-7.8zm39.8-.8c.6-7.4.7-8.4.3-8.2-.1 0-.3 0-.3-.2-.1-.2-.2.5-.4 1.5 0 1-.3 2.5-.5 3.2a48.7 48.7 0 0 0-.8 5.7c.3 0 .4.4.4 2 0 1 0 2.5.2 3.2l.2 1.3.2-1 .7-7.5zM43 60.7c0-.2-.1-.1-.1.2 0 .3 0 .4.1.3v-.5zm-8-.5-.4-.2c-.1 0-.2 0-.2.2s.1.3.2.3c.2 0 .3-.1.3-.3zm129.8-4.1c.3-3 .4-5.5.3-7.3 0-.7-.1-1-.4-1-.2 0-.5-.4-.6-1.1-.4-1.8-.5 6.2-.2 11.3.2 2.8.5 2.3.9-2zm-96.3 3.6c0-.1-.1-.3-.3-.3-.1 0-.2.2 0 .3 0 .2.1.3.2.3l.1-.3zm98.4-7.3c0-2.6.1-6 .3-7.5.4-4.9.6-9 .3-8.9-.2.1-.3-.3-.3-1 0-1.8-.4-1.5-.6.4-.7 7.1-.8 19-.3 23.3l.2 1.4.2-1.4.2-6.3zM48.3 58.8l-.1.4c0 .3 0 .5.1.3v-.7zM63 58c.3-.2.3-.3 0-.4-.6-.4-1.5-.3-1.7.3-.3 1 .4 1.1 1.7.1zm3.4.1c-.3-.4-.7 0-.5.4 0 .3.2.4.4.2.1-.2.2-.4 0-.6zm29.9.6c-.1-.2-.3-.3-.5-.3s-.2.1 0 .3c.6.3.7.3.5 0zm53.6-11.8c.1-4.1.3-7.7.4-8 0-.4 0-.6-.4-.7l-.6.1c0 .1.1.2.3.2a176.5 176.5 0 0 0-.3 18.9c.2.5.4-2.5.6-10.5zM18.5 52.4c.4-4.2.4-6.7-.3-7.5-.5-.7-.5-.7-.5 5.8 0 6.6.2 7 .8 1.7zm8.4-3.5c0-4.4 0-8.8-.2-9.7-.1-1-.2 2.5-.2 8.1 0 6 0 9.8.2 9.8s.3-3.2.2-8.2zm21.8 6.6c0-.7-.2-1.4-.3-1.5-.2 0-.3.5-.3 1.5s.1 1.5.3 1.4c.1 0 .3-.7.3-1.4zm16.6 1.3c0-.2-.5-1.2-1.2-2.2-1.3-1.9-1.3-1.9-1.5-1.2-.3.9-.5 1-1 .4-.4-.6-.8-.3-.8.5 0 .4.2.6.4.5.6-.2 1.7.3 2.6 1.3.9 1 1.5 1.2 1.5.7zm-3.4-.4-.3-.3c-.1 0-.2 0-.2.2 0 .1 0 .2.2.2h.3zm-24-3.3-.3-2v2.2c0 1.7 0 2.2.2 2 .3-.2.3-.9 0-2.2zm9.1-.2c0-2.4-.3-4.6-.5-3.4-.2 2 0 6 .5 6v-2.6zm-14-2.7.1-6c.2-1.8 0-2.6-.4-2-.1.2-.2 2.3-.2 4.7 0 6.9 0 7.8.3 7.6.2 0 .3-1.5.2-4.3zm1.6 2.4-.1.8v.7-1.5zm122.2-2.2c0-1.8.2-4.6.4-6.2.8-9 1-14 .5-13.7-.2.1-.3-1.8-.2-6 0-4.7 0-6.4-.3-6.6-.2-.3-.3.5-.2 3.4 0 2.5 0 3.8-.3 4-.2 0-.3 3.4-.3 10.3v12c-.2 2.6 0 6.4 0 6.2.1 0 .3-1.6.4-3.4zm.4-17c0-.5 0-.6.1-.3v.8l-.1-.5zm.2-1.7c0-.4.1-.5.2-.4v.7c0 .2-.2 0-.2-.3zM41.7 52.8c0-.4 0-.8-.2-.8l-.2.8c0 1 .3 1 .4 0zm10.1-10V32.3l-.3 7.5L51 50c-.1 2.8 0 3.6.5 3.6.1 0 .2-3.5.2-10.7zm42.4 6.5c0-2.6 0-4.4.2-4.5.4-.2.4-1.8 0-1.8 0 0-.3-.4-.4-1-.5-2.8-.6-2.3-.5 1.9 0 2.4 0 4.3-.2 4.3l-.2-1.5c0-1.2 0-1.3-.3-.9-.2.4-.2 1.2 0 3.2.4 3.2.4 3.8 0 3.8-.3 0-1.3-1.8-1.1-2v-1l-.3-.8-.2.7c-.3 1.1-.2 2 .2 2 .2 0 .4.3.4.6 0 .5 1 1.3 2 1.3.3 0 .4-.4.4-4.3zm-55-6.4c0-6.2-.1-9.8-.3-10.1-.3-.6-.3-.2-.3 10.8 0 7.5.1 9.5.5 9.1V43zm9.1 9-.1.2v.4c.2 0 .2-.3.1-.5zm5.3-5a1278.8 1278.8 0 0 0-1-20.4v5.7a400.4 400.4 0 0 0 .3 19.7c-.5.3-.3.6.3.5.5-.2.5-.3.4-5.5zm-3.9 4.2c0-1.2-.2-1-.4.3-.1.6 0 .9.1.8.2-.1.3-.6.3-1.1zm58.7-1.2c.2-1.7.2-3.8 0-6.7-.1-4.3 0-6 .3-6 .1 0 .2 1.6.2 3.5s.1 3.5.2 3.6l.5-9.4c0-1.5-.3-2-.4-.5 0 .9-.3-.7-.7-5.2-.3-2.5-.4-3-.7-2.8a169.9 169.9 0 0 0 .1 25.9 9 9 0 0 0 .5-2.4zm62.4-3.5v3.8-3.8zm-80.3 4c.2-1.3 0-1.9-.3-1.1-.3.7-.3 2.2 0 2.2.1 0 .3-.5.3-1.1zm-48.8-9.2-.3-9.5c-.5-.5-.6 1.1-.4 8a811.2 811.2 0 0 1 .5 11.3c.2-.3.2-4 .2-9.8zm62.4 4c.6-8.6 1-17.1.7-17.6-.1-.3-.3.6-.6 3l-.7 7c-.4 4.1-.5 13.6-.1 13.2l.7-5.6zm-43 2.4c0-2 0-2.7.3-3.3.4-.6.4-.7 0-1.2-.2-.3-.4-.5-.6-.4-.3.2-.3 7.5 0 7.5.2 0 .3-1 .3-2.6zm107.7-8.5c.5-3.4.7-9 .3-8-.3.8-.5.1-.4-1.8a32.3 32.3 0 0 0-.5-11.3v-2.3l-.2 3v3.5a238.8 238.8 0 0 1-.5 25.6c0 2.2 0 2.2.4-1.3l.9-7.4zm-81 9.4c-.1-.2-.2 0-.2.4 0 .3 0 .5.1.3v-.7zm-38-6.2-.3-8.4c-.2-1.3-.2.5-.3 5.7 0 6.8.1 9.7.4 9.4l.1-6.7zm53 4.8c0-.7 0-.7-.2-.2-.3.7-.3 1.2 0 1 .2 0 .3-.4.3-.8zM42.7 37c-.2-.4-.3 1.2-.3 4.9 0 3 .1 5.5.2 5.6.3.4.4-10 0-10.6zm12.7 8-.1-2.5c-.1-.1-.2 1-.2 2.6 0 1.5 0 2.6.2 2.5 0 0 .2-1.3.1-2.6zm27.8-.9-.3-7.3c-.2-2.7-.2-5.6 0-8.2a360 360 0 0 0 .7-21.8c.1-2.3-.1-3.4-1-3.5H82l.1 12V27a259.5 259.5 0 0 0-1.3-23.5c-.5.2-.7 5.3-1 22.4l-.2 16.7-.2 4 .7.3c.8.2 2.4.5 2.9.4.1 0 .2-1.4.2-3.2zm81.9 2-.1.4v.5c.2-.2.2-.6.1-.8zm-79 .4c0-.2-.2-.3-.3-.2-.4.2-.3.6.1.6.3 0 .4-.1.3-.4zm91.7-.5-.1.4v.3c.2-.2.2-.5 0-.7zm-92.8.2c0-.2-.1-.3-.3-.3-.1 0-.2.1-.2.3 0 .3.1.4.2.4.2 0 .3-.1.3-.4zm-6.4-6.6.4-6.2c0-.4 0-.6-.3-.6s-.4-.6-.5-2.8c0-1.8 0-2.7.2-2.7s.3 1 .3 2.6c0 1.5 0 2.4.2 2.2v-5.3c-.2-2.7-.3-8.4-.3-12.7V6.4l-.7 1.4c-1 2-1.5 1.7-.5-.4 1-2.4 1.2-4 .6-4-.4 0-.5.3-1.2 3.5-.2.9-.6 1.6-.8 1.7-.2 0-.3 0-.2-.5.5-1.7 1-4.5.9-4.7-.4-.4-.6.6-1 3.8a948.3 948.3 0 0 1-1.3 10.7c0 2.1-.2 3.7-.6 3.7-.2 0 0-2.2.7-9.3.3-2.8.4-5.3.3-5.7-.1-.7-.2-.7-.5-.2a3 3 0 0 0-.4 1.4c0 1.3-.9 6.3-1.1 6.6-.3.2-.3-.8 0-3.3.3-2.1.2-3.5-1-7.3 0-.4-.8-.7-.8-.2l-.3 2.8a29 29 0 0 0 .6 12c.5 1.1 1.2 3.4 1.4 5.2.3 2-.3 1.4-.7-.6-.1-1-.6-2.6-.9-3.5a40 40 0 0 1-1.2-5c-.5-3-.5-3.3-.1-5.6.5-3.2.5-4.2-.1-5a3 3 0 0 0-.6-.5V6c0 1.8 0 2.6-.2 2.6s-.3-.6-.3-1.6c0-1.7-.5-3.4-1.1-3.4-.2 0-.2.4-.1.9.3 2 .8 4 1.1 4.9.3.4.4 1 .3 1-.5.4-1.2-1-1.4-2.5 0-.9-.2-1.7-.4-1.8-.4-.2-.5.8-.1 2.4a33 33 0 0 0 2 7.3c.8 1.3 2.8 7.9 2.4 8.3-.3.2-.3.2-1.5-4-.4-1.5-1-2.9-1.2-3.2-.3-.3-.7-1.8-1-3.2l-1-3.9c-.6-2.2-.9-5.1-.5-5.1.2 0 .4-.3.4-.6 0-.2-.2-.5-.4-.5-.6 0-1 .7-1 2 0 1.5-.3 2.2-.5 1.1-.1-.4-.2-.4-.2.3 0 .4 0 .9.2 1 .1 0 .2 1 .1 1.9-.1 2.2-.3 2.9-.6 1.8 0-.4-.3-.8-.4-.9-.3 0 0 2 .4 3s.5 1.5.3 1.5l-.6-1c-.1-.6-.6-1.6-.9-2.4-.9-1.9-1.4-4-1.7-7 0-.2-.1-.2-.3 0-.2 0-.2 1-.1 3.3.2 2.6.3 3.5.8 4.6l.7 1.5 1.4 3.1c1.5 3.2 2.8 6.4 2.8 6.8 0 .2.2.4.4.5.2 0 .4.3.4.5 0 .9-1.2 0-1.4-1a30.9 30.9 0 0 0-4-8.7c0-.8-.8-3-1-2.7-.2.2.3 22.3.5 22.5l.8.2c.6 0 .8 0 .7.3-.1.2 0 .6.4 1 .3.2.5.5.5.7l.8.5c.5.1.8.4.8.7 0 .2.2.3.3.2.3-.2 3 2.4 3.3 3.3l.3 1c0 .3.2.5.9.7 4 .8 5 1.1 5 1.4 0 .7 2.7 1 3 .4l.4-6zm-2 3.2c-.2-.6-.3-1.5-.3-2l-.2-.8c-.2 0-.3-.8-.4-1.7l-.4-2c-.4-.5-1.3-3.2-1.5-4.2a16 16 0 0 0-1-2.6c-.8-2-.8-1.9-.5-1.9.2 0 1.7 3.3 2 4.6 0 .5.5 1.6 1 2.6.4 1 .7 2.1.7 2.6s.2 1.2.4 1.6c.3.6 1 3.8 1 4.7 0 .8-.6.2-.8-.9zm-3.2-.5-.7-2.5a11 11 0 0 1-.4-2.4c0-1.3-1-5-1.7-6.4-.4-.7-.7-1.6-.6-2 0-.4 2 4 2.4 5.7l.6 1.5.8 2.4.7 2.3c.2.6.2 1-.2 1.6l-.5 1-.4-1.2zm.2-2.6c-.5-2-.5-2.3-.7-1.8-.1.4.7 3.5 1 3.3 0 0 0-.7-.3-1.5zm-2 .2c-.4-1.4-.4-1.5-.1-1.5.3 0 .8 1.5.8 2.2 0 1-.5.5-.8-.7zm6-1a34 34 0 0 1-.8-5.2c0-.5.1-.8.3-.8.1 0 .2.6.2 1.3l.3 2.6c.3 1.4.3 3 0 2.2zm-7-1.7a300.8 300.8 0 0 1-2-6c-.2-.6-.4-1.2-.3-1.4.2-.8-1.7-3.3-2.7-3.3-.6 0-3.5-2-4-2.7-.6-1-.1-1 .7-.1.9 1 1.3.7.5-.4-.4-.5-.5-.9-.3-1 .2-.1.2-.4 0-1.2-.6-1.5-.8-3-.5-3.2.1 0 .3.1.3.4 0 .8.8 3.8 1.3 4.8.8 1.5 2.3 2.8 3.2 2.8.7 0 .9 0 1 .8l.6 1.4.7 2 .8 2.3c.5.9 1.3 3.5 1.4 4.7.1.5-.5.6-.7.1zm-3.8-1.8c0-.5-.4-2-.8-3.3-.9-2.7-1-3-.6-3a22 22 0 0 1 2 5.9c0 .5-.1 1-.3 1-.2 0-.3-.2-.3-.6zM63 32.7a110.9 110.9 0 0 0-.4-3.7 173 173 0 0 0 1.3 5.2c.1.4 0 .6-.2.6-.3 0-.5-.6-.7-2.1zm12.8 2-.2-1.8c0-1-.1-1.8-.3-2.1-.8-1-.2-11.3.6-11.3.3 0 .3 0 0 1-.4 1.5-.6 6.4-.2 8.3.7 4 .7 6.5.1 5.9zm1-6c0-1.5.2-2.9.5-2.9.2 0 0 3.5-.4 3.9 0 .1-.2-.3-.2-1zm-9.3-5.4c-1.5-3-1.3-3.8.1-.8 1.2 2.3 1.6 3.3 1.3 3.3-.2 0-.8-1-1.4-2.5zm-1.8-3.9c0-.3-.3-1-.5-1.4-.5-1.2-.5-1.6 0-3 .3-.8.5-2 .4-3.7 0-2 .1-2.4.3-1.9.2.4.3 1.6.3 2.6l.2 2c.2 0 0 2-.2 2.8 0 .3-.2.3-.4-.2-.1-.4-.3-.5-.5-.4-.2.2.2 2 .8 3 .2.3.2.6 0 .7 0 0-.3-.1-.4-.5zm6.7.5c-.3-.5-.5-2.7-.2-3 .4-.7.6-.2.5 1.6 0 .9-.2 1.5-.3 1.4zm3.9-3c.4-3.8 1.2-8 1.6-7.7l-.1 1.5-.7 3.9c-.5 3-1 4.5-.8 2.4zM71 12.3c-.2-.5.1-2.2.4-2.2.4 0 .4 2.3 0 2.5-.1 0-.3 0-.4-.3zm-25.1 29c0-2.4 0-4.2-.2-4.2-.1 0-.2 1.2-.2 2.8 0 1.6 0 3.7-.2 4.6-.1 1.3 0 1.6.2 1.4.2-.2.3-1.7.4-4.6zm132 1.4a145.1 145.1 0 0 1-.4-5.1c-.3 0-.2 7.4.1 8 .4.6.5 0 .4-3zm-1.2.4v-1.7l-.2 1.5c-.2 1.3-.2 1.8.1 1.8 0 0 .1-.7 0-1.6zm-5.6.1c0-1.1 0-1.2-.2-.5-.3 1.2-.3 1.8 0 1.8.1 0 .3-.6.2-1.3zM37.7 42v1.7a7 7 0 0 0 0-1.7zM92 40.5c0-.8 0-1.5-.2-1.6-.2 0-.3.8-.2 2.6 0 2.3 0 2.5.2 1.5l.2-2.5zM68 43c-.1-.4-.4-.7-.7-.7-.8-.1-.8 0-.2.7.6.7 1 .7.8 0zM93 40.8c0-1-.1-2-.3-2.1l-.2-2c0-1 0-2.3-.2-3l-.2-1.4-.3 1c-.2 1.1 0 2.5.4 5.4.3 1.6.3 2.2 0 3.2-.3 1.3-.1 1.9.4 1.3.3-.3.4-1 .4-2.4zM64 43.1l1.8-.8c1.3-.6 1.4-.7 1-1.4-.2-.3-.5-.2-2 .5-1 .5-1.8 1.1-1.8 1.4-.2.6.3.7 1 .3zm-34.1-.9c0-.2-.2-.2-.2.2 0 .2 0 .4.2.3v-.5zM130 38.4v-1.3l-.2 1.2-.2 2.9v1.7l.2-1.6.2-2.9zm36.2-3.2c.3-3.2.2-9-.2-9.2-.1-.1-.2.3-.2.9 0 .6-.2 1.1-.4 1.2-.2.2-.3 1.7-.2 7.5.1 6 .2 7 .4 5 0-1.2.4-3.6.6-5.4zM19 41.7c0-.8 0-.8-.2-.4-.3.8-.3 1.2 0 1.2l.2-.8zm46.3-1.5c0-1-1.4-.5-2.7.9-.5.5-1 1-1 1.2 0 .1.9-.2 1.9-.8 1-.5 1.8-1.1 1.8-1.3zm29.3-3.5c0-2.7-.2-4.6-.4-4.7l-.4-.7A29 29 0 0 0 94 38c.6 6 1 5.3.7-1.4zm45.8 4.3-.1.5v.4c.2-.2.2-.7 0-1zM28 38.4c-.2-.2-.3.1-.1 1.3.2 2.5.2 2.6.3.7 0-1 0-1.8-.2-2zM48.5 29c0-6.3-.2-13-.4-13.7a1003.5 1003.5 0 0 1-.3 25.5c.2 1.6.6-5.7.7-11.8zm6.7 12.4c0-.2-.2-.1-.2.2 0 .2 0 .4.2.3v-.5zm7.1-.8c1.5-1.4 1.7-1.9 1-2.2H63c0 .2-.4.8-1 1.3-1 1-1.6 2.3-1.2 2.3.2 0 .9-.6 1.6-1.4zM30 39l-.2-3.3c0-1.2 0-1.9-.2-1.8-.3.2-.3 5 0 6.6 0 1 .1 1 .3.4.2-.3.2-1.2.1-2zm7.8 0c0-1 0-1.8-.2-1.7-.2.1-.1 3.4.1 3.4l.1-1.8zm134-7.5v-1.8c0 .5-.3 1-.5 1.2-.3.2-.4 1.2-.4 5.1v4.8l.4-3.3.5-6zM18.6 39c.4-1.2.4-1.6.2-2.2-.2-.4-.4-2.2-.5-4.9 0-2.3-.2-4.6-.4-5.1-.2-.7-.2-1.2 0-2 .4-1.4.5-3.3.2-6.8-.3-5-.6-4-.6 1.9 0 8 .3 20.6.5 20.6 0 0 .4-.7.6-1.5zm122.7-4.2c.3-2.8.1-9.7-.3-14.4L141 18l-.2 2.2c-.2 1.7-.1 11 0 12.3v4.2c-.2 4.2 0 3.3.6-2zm-50.4-1V38v-4.3zm-29.4 5.4.7-1c.5-.5.5-.5-.3-1.3l-.8-.7v1c0 .4 0 1.2-.2 1.7-.1.9.4 1.2.6.3zm115.6-2.4c0-1.7.2-2.5.4-2.5s.3-.8.2-3c0-2.5 0-2.7-.1-1 0 1-.2 2-.3 2-.2 0-.3-.2-.4-.4l-.1 3.6c-.1 4.5 0 5.3.3 1.3zm-148.8.5c0-.4-.1-.8-.3-.8-.3 0-.3 1.2 0 1.4.2.3.3.2.3-.6zM93 37l-.1.3c0 .4 0 .5.1.4v-.7zm57 .7c-.1-.1-.3-.5-.2-1 0-.8 0-.8.2-.2.5 1.8.6-6.4.1-13.7-.3-5.3-.6-2.8-.6 5.4l-.1 8.3c-.3.5 0 1.4.6 1.3.2 0 .3 0 0-.1zm2.6-3.3c0-.9 0-1-.2-.7l-.2 2.3c0 1.6 0 1.6.2.7l.2-2.3zm23-.3c0-.6-.1-.1-.1 1.1v1.1V34zM42.4 29l-.2-11.4c0-7.6-.1-8.3-.5-7.9-.4.3-.4 1-.4 3a507.3 507.3 0 0 0 1.2 23.8V29zm46.4 6.6-.1.3v.3c.2-.2.2-.5 0-.6zm70-.2c-.1-.6-.1-.6-.3-.2-.1.3-.2.7-.1.8.2.4.3.2.3-.6zm-130.6-4a128 128 0 0 0-1.3-18.3c-.2 0 0 5.4.3 12.3l.3 6.9c0 2.6.1 3.3.6 3.3.1 0 .2-1.6 0-4.1zm17.5 2.8c-.1-.1-.2 0-.2.4 0 .3 0 .5.2.3v-.7zm37.5-.4v1-1zm5.6.7c0-.2-.2-.1-.2.2 0 .3 0 .4.2.3v-.5zm-33.8-1c0-1 0-1-.2-.5-.2.7-.1 1.8.1 1.8v-1.2zm57.4-4.4c.4-3.6.5-5.6.3-5.7-.2-.2-.3-.7-.3-1.2l-.2-1.5c-.2-.4-.2-.3-.4.5-.2 1.3-.2 13.8 0 13.6l.6-5.7zm18.9 4.8v-4.5l-.3-7c0-2.3 0-3.4.2-3.6.2 0 .3.2.3.7 0 .7 0 .8.3.6.2-.2.2-.8 0-1.8-.1-1.5-.4-1.9-.7-.8 0 .4-.3.7-.5.7-.3 0-.4 1.5-.5 7.3a51 51 0 0 0 .3 8.8c0 .8.6.5.9-.4zm-93.6-1.2.1-5c.4-4.3.5-10.6.2-10.3a99.8 99.8 0 0 0-.3 15.3zm114.1-.8c0-2.6 0-2.7-.2-1-.2 1.6 0 3.7.2 3.7v-2.7zM104 27.7a41.5 41.5 0 0 0-.3-11.2 110.5 110.5 0 0 0-.3 16.5l.6-5.3zm66.4 2.9c.2-1 .4-19.4.1-19.8-.2-.4.5-4.5.7-4.4a47.3 47.3 0 0 0 0 9c.2.5.3 2.4.3 4.4.3 7.1.3 7.4.4 2.2V11l.1-6.4c.3-1-.2-1.6-1-1.5-.4.1-.5.3-.4 1.4 0 1.1 0 1.3-.5 1.4-.4.1-.5.4-.5 1s0 1 .2.8c.3-.1.4.3.3.8l-.1 9.3a588.7 588.7 0 0 1-.1 14.8l.5-2zM96 25.4c0-3 0-4.9-.2-5-.2 0-.3 2.1-.3 6.4 0 4.3.1 6 .3 5l.2-6.4zm-66.1-2c0-5.2-.1-9.5-.3-9.5a68.3 68.3 0 0 0 0 19c.2 0 .3-4 .3-9.4zm14.6 4.9a505 505 0 0 0 0-24.6c-.2 0-.3 4.5-.4 10-.3 14.3-.2 19 0 19s.3-1.7.4-4.4zm48.4 1.1c.2-2.8 0-3.3-.4-1-.2 1 0 4.9.2 4.2l.2-3.2zm60.2-2.8a311 311 0 0 1-.2-7c0-.6 0-.9-.4-.9-.3 0-.4-.3-.4-.8s0-.8-.2-.7c-.4.3-.4 1.6 0 2 .2.2.3 2.2.4 6.6 0 3.4.2 6.4.2 6.6 0 .2.3.3.4.3.3 0 .3-1.5.2-6.1zm-114.3 5c0-.2-.2-.1-.2.2 0 .3 0 .4.2.3v-.5zm137.1-.3s0-.2-.2-.2-.3.3-.3.6c0 .5 0 .5.3.2l.2-.6zm-126.5-.9c0-.2-.2-.1-.2.3 0 .5 0 .7.2.5v-.8zm94.8-4.2c-.3-.4-.3 0-.2 1.2a84 84 0 0 1 .4 1.7c0-1.5 0-2.7-.2-3zm-12-.5c-.2-3.2-.4-4.8-.5-4.6-.2.1-.2 1.7 0 4.5a201.8 201.8 0 0 1 .5 5.2v-5zm43.8.5-.1-2.5a17 17 0 0 0-.2 3.7c0 3.7.2 3.2.3-1.2zm-81.7-.5v-6.5L94 17v3.2a352.6 352.6 0 0 1-.1 10.1l.4-4.6zm15.2-.6c0-3.5-.4-9.5-.8-10-.5-1-.6 6.2-.1 10.5l.4 4.7c.1 1.4.5-2.5.5-5.2zm-69.2 4.8c.4-.3.4-.5.1-.8a7 7 0 0 1-.5-2.4c-.1-2-.1-2-.2.8v2.8l.6-.4zm6-2.3c-.1-.4-.2-.1-.2.8 0 .8 0 1.2.1.8a7 7 0 0 0 0-1.6zm3 1.4v.1c-.1.3 0 .5 0 .4.1-.1.2-.3 0-.5zm6.7-1.8-.1.8c0 .8 0 1 .1.7v-1.5zM98 25v2.8V25zm47.3.2c.1-7 0-8.2-.2-8.3-.3 0-.3 1.5-.3 6 0 3.5 0 6.1.2 6.1.1 0 .3-1.7.3-3.8zm3.8 2.8-.1.4c0 .4 0 .6.1.4V28zm2-8c-.2-.3-.4-.5-.5-.4v4.8l.3 4.8.2-4.4v-4.9zm-96 7.9v.7c.2-.2.2-.5 0-.7zm116.8.3c-.1-.2-.2-.2-.2.1 0 .3 0 .5.2.4v-.5zM41 22.2a40 40 0 0 0-.4-6c-.2-.2-.2 1.8-.1 5.5.2 5.4.2 6.3.5 6.3v-5.8zm66.2-3c0-6 0-8.6-.3-9.1l-.3-.8-.2.8.1 2.2c.2 1 .2 2 0 3.4-.4 2.9 0 12.7.5 12.2l.2-8.6zm59.6 2.6a31 31 0 0 0-.4-4.1v2.7a140.3 140.3 0 0 1 .4 6.4c.2-.6.2-2.8 0-5zm-131.5-3c0-6.5-.1-6.9-.5-5.5-.3 1.7-.6 10.2-.3 12.6.1 1.5.1 1.5.5.8.3-.6.4-2 .3-7.8zM175 26.7v.6-.6zM32.7 26l-.1.4c0 .3 0 .5.1.3V26zM51 24l-.1 1v1-2zm114.6-2.2c0-1.8-.2-3.5-.3-3.7a115.4 115.4 0 0 1-.3 7.7l.1 1.2.3-.9.2-4.3zm-49.3 2c.4-3.2.8-12.1.5-13.5-.3-1.6-.7-.4-.6 2a71.4 71.4 0 0 0-.3 14.2l.4-2.7zm60.6 1-.1.6c0 .8 0 1.1.1.8v-1.3zm-60 .5c-.1-.2-.2-.2-.2.1 0 .3 0 .5.1.4v-.5zm29.2-3c0-3 .2-3.6.5-4 .5-.3.4-1.5 0-1.5s-.5.8-.8 4.4c-.4 4.1-.4 4.6 0 4.6l.3-3.5zm29.5-4.2c.2-2.2.2-4.4.2-4.7l-.2-4.9c0-3.7-.1-4.2-.5-4.3-.4 0-.5.2-.6 2-.1 3.2 0 12 .3 16 .2 3.7.2 3.7.4 2l.4-6zM143 21.8c0-1.2-.2-2.3-.3-2.4-.2-.4-.5 1.8-.5 4.2v2.1l.4-1c.3-.6.4-1.5.4-3zm18.3 1.3c.2-2 .2-2-.4-2-.5 0-.5 0-.4 1.2l.2 2.3c0 1.8.4.8.6-1.5zm-59-5-.5-1.7c-.2.2-.1 6.4 0 7.6.2 1 .3 1 .5-1.4v-4.5zm49.6 6c-.1 0-.2 0-.2.4s0 .5.2.4v-.7zm-7.7-1-.1.5c0 .6 0 .8.1.6v-1zm11.4.3c-.1-.2-.2 0-.2.3 0 .4 0 .5.2.4v-.7zM39.4 16.3l-.5-8.7c-.2-1.5-.2-1.4-.3.8 0 2.5.5 14.5.7 15 .3 1.1.4-.6.1-7.1zm100.7 4.1c0-1.7 0-3-.2-3s-.4 1-.5 2.6c0 1.3.3 3.8.5 3.6 0 0 .2-1.5.2-3.2zm-5.1.2a48.7 48.7 0 0 1-.3-3.7c-.2 0-.5 2.5-.6 5.2 0 1.6.4 1.5.5 0 0-.9.2-1.5.4-1.5zm-29.8.4c0-.5-.1-.1-.1.7 0 1 0 1.3.1 1a7 7 0 0 0 0-1.7zM33 22c-.1-.3-.2-.2-.2.3 0 .4 0 .6.2.4V22zm16.8-8.8c0-9.1-.1-11.7-.4-7.5-.3 3.7-.2 17.4 0 17 .3-.1.4-3.3.4-9.5zm105 8.7c0-.8-.1-.9-.3-.3-.3 1-.3 1.3 0 1.3.1 0 .2-.4.2-1zm22.4-1.3c0-.4-.1-.1-.1.6v.7-1.3zM119.9 18c0-1.8 0-2.2-.3-2.2-.6 0-.6.6-.4 3.8.2 2.3.2 2.6.4 1.7l.3-3.3zm-6.6 2c.2-2.6.2-8 0-8-.5 0-.6 1.8-.6 5.2a151.6 151.6 0 0 1 .2 4.8c.2 0 .3-.9.4-2zm-88 .7c0-.7-.3-1-.5-.4-.2.5 0 1.2.3 1 .2 0 .3-.4.3-.6zM37 20l-.2-.6c-.2-.1-.3 0-.3.5 0 .3.1.7.3.7l.2-.6zm73.8-4.7c.4-5.7.3-5.9-.4-2.6-.5 2.4-.6 3.4-.5 5.3.3 3.4.7 2.3 1-2.7zm43 2.8c-.3-.8-.3-.8-.3.5l.1 1.5c.4.4.4-1 .1-2zm10.7 1.6c-.1-.2-.2-.1-.2.2 0 .2 0 .4.1.3v-.5zm-4-.3c0-.2-.1-.1-.2.2 0 .3 0 .4.2.4v-.6zm2.7-.6c0-1 0-1.2-.2-.9-.4.5-.4 2.1 0 2.1.1 0 .2-.5.2-1.2zm-8.4-.4c-.4-.4-.4 0-.1.7.2.5.2.5.3 0 0-.2 0-.6-.2-.7zm-16.6-.8c-.1-.5-.3-.7-.6-.7s-.3 0-.1.1c.2.1.3.6.3 1.3 0 .8.1 1 .3.5v-1.2zM24.9 16.4c-.2-.4-.3-.2-.3 1 0 1.4 0 1.4.3.5.2-.7.2-1.2 0-1.5zm74 .8c0-.9 0-1.7-.2-1.8l-.4-1-.1 1.4.1 2.5c.3.9.6.3.6-1.1zm62.7.8c0-.2 0-.3-.2-.2-.2 0-.3.3-.3.5 0 .3.1.4.3.3l.2-.6zm7.4-.1c-.1-.3-.2-.2-.2.1 0 .3 0 .5.1.4v-.5zm-26.3-1c-.3-.3-.4.2-.2.8l.2.6.1-.6v-.8zm6.9.5c-.1-.2-.3-.2-.4-.1-.2 0-.2.2-.1.4 0 .1.3.1.4 0 .1 0 .2-.2 0-.3zm5.4.1c0-.2 0-.4-.2-.4s-.3.2-.3.4.1.4.3.4l.2-.4zm14-6.5V8.5l-.3 2.8v4.2l.2 1.5.2-1.7V11zM4.8 16c0-.7 0-.7-.2-.2-.1.2-.2.6-.1.7.2.4.3.2.3-.5zm33-.2-.1.4c0 .3 0 .5.1.3v-.7zm5.3-.1c0-.3-.1-.1-.1.3 0 .5 0 .7.1.5v-.8zm9.4-.2c-.1-.6-.3-.8-.3-.5 0 .6.3 1.7.4 1.6l-.1-1.1zm-19-2.6c0-3.8-.3-4.5-.4-1 0 3 0 4.5.2 4.5l.1-3.5zm63.3 1-.1-3.3c-.2-.7-.3-.1-.4 2.2 0 2.9 0 3.8.2 3.6l.3-2.5zm80 .7c-.4-.3-.5.2-.3 1l.2 1v-2zm-64.9.7c0-.2-.1-.1-.1.2v.3c.2 0 .2-.3.1-.5zm43.4.2h4.5c3 .1 4.3.1 4.3-.1s-.2-.4-.4-.5c-.6-.3-4.8-.4-9.2-.3a440.5 440.5 0 0 1-11 .4l3.6.3c1.9 0 3.5.2 3.7.3.4.2 4.3.2 4.5 0zm-22-.4a61.2 61.2 0 0 1-9.6-.4c-.4.2-.4.2 0 .5a40.3 40.3 0 0 0 9.6-.1zm-31-4.4c-.3-.4-.3 0-.3 1.5 0 2.9.3 3.8.4 1.1 0-1.2 0-2.4-.2-2.6zm39 4.2H138c-3 0-3.2 0-1.3.2 2 .1 4.4 0 4.6-.2zM36.8 13.5c0-.8-.2-1.4-.3-1.4-.3 0-.4 1.8-.1 2.5.3.7.4.4.4-1zm131.9-8.9.2-1.5h-1.5l.1 5.5c.2 7 .6 8 .8 2 0-2.4.2-5.2.4-6zM5 9.8c.1-2.3 0-3-.2-3s-.3 1-.3 4c0 4.6.4 3.9.5-1zm95.8 3-.1-1.4c-.1-.1-.2.5-.2 1.3 0 1.9.3 1.9.3 0zM120 12c-.2-2.4-.5-2.3-.7.3 0 1.7 0 1.8.4 1.5.4-.2.5-.4.3-1.8zm57-2.8c0-2.4-.1-3.9-.5-3.7V14c.2.8.5-2.6.6-4.6zm-34 3.5c0-1-.1-1.2-.5-1-.3 0-.4-.1-.3-1 0-.8.2-1.2.4-1.2.3 0 .4-.3.4-1.2 0-2.2 0-2.1-3.2-2.1-3.4 0-3.4.2 0 .3 1.5 0 2.7.2 2.7.3 0 .2-1.2.3-2.9.4-1.9.1-3 .3-3.5.5-.8.6-.7.9.3.8 1.1-.1 1.2.6 0 .9-.8.2-1.1.9-1.1 2.8 0 .8 0 .9.6.7l2.5-.1c2.1 0 2.4-.4 1-1-.5-.3-1-.6-1-.8-.3-.5-1-.4-1.2 0-.1.5-1.4.6-1.4.2 0-.2.3-.6.6-1 .7-.8 2.5-.9 2.7 0 .1.2.4.5.6.5.6 0 2 1.4 2 2 0 .7-.7 1-1.5.7l-.7.1c0 .2.7.3 1.7.3h1.8zm-5-3.8a.5.5 0 0 1-.3-.4c0-.3.6-.3 2.3-.3 2.3.1 2.7.2 2.4.5-.2.2-4 .3-4.4.2zm28 2.9.4-5.4c.4-3.2.3-3.7-.2-3.3-.5.6-1 10.7-.5 10.7.2 0 .3-.8.3-2zM43 10.9c0-2-.1-2.5-.3-1.7-.2.8 0 4.5.2 4.5V11zm81.2 2.5c0-.1 0-.3-.2-.3s-.3.2-.3.3c0 .2.1.3.3.3.1 0 .2-.1.2-.3zm1.8-.4c.2-.7 0-6.7-.4-9.3 0-1-.2-1.4-.6-1.4-.4 0-.4.2 0 2.2.1 1.2.3 3.7.3 5.7s.1 3.5.3 3.5c.1 0 .3-.3.4-.7zm29 .5c1-.7 1.1-1.6 1-5 0-2-.1-3.7-.2-3.9l-.8-.2c-.3 0-.6-.1-.6-.3l-.6-.2-.9.2c0 .2-.3.3-.6.3-.9 0-1.1.9-1 3.4.3 4 .4 4.6 1 4.5.3 0 .4-.6.5-3.2 0-2 .3-3.2.4-3.3.2 0 .3.6.2 2.1-.1 2.2.1 3.4.8 3.4.1 0 .2-1 0-2.9l.1-3.3c.2-.3.3.5.5 2.9l.3 3.3-.8.4-.8.4c-.3 0-.1.2.4.9.7.7.8.8 1.2.5zm9.3-4.4c0-2.5-.1-4.5-.2-4.6-.1-.1-.7 5-.7 6.4 0 .8-.2 1.3-.6 1.7-.7.7-.4 1 .7 1h1zm-158 0V6c-.3.8-.6 7.5-.4 7 .2-.4.3-2.1.4-4zm142.8 4-.4-.2-.4.2c0 .2.2.3.4.3s.4-.1.4-.3zm-55.1-1.6c0-.3-.1-.1-.1.5v.6c.2-.3.2-.8 0-1.1zm40.2 1.1-.1-.3c-.2 0-.4.2-.5.3l.1.3c.2 0 .4-.1.5-.3zm-81.5-2.4v1.6a7 7 0 0 0 0-1.6zm75.5 1.8c.2-3.7.3-5.6.5-5.8.2-.2 1.9.5 1.9.8 0 .2-.3.3-.5.4-.5.1-.6.4-.6 1.2 0 .7.2 1.1.4 1.2.6.2 1 0 .7-.5a.6.6 0 0 1 0-.6c0-.2.1-.6 0-.8-.1-.7.4-1 1-.6.4.2.6.2 1-.3.3-.6.3-.6.5.6.2.6.4 1.2.6 1.2.3.1.6-1.6.6-3.2v-1h-1.8c-3.3 0-4.4 0-4.8.6-.3.4-.3 1.4 0 6.3.1.8.5 1.2.5.5zm31.1-4c-.1-4.8-.2-5.4-1-5.4-.3 0-.5.2-.5.7v9H159.6zm-9.7 3s0-.2-.2-.2-.3.3-.3.7c0 .6 0 .6.3.3l.2-.7zm-2.9.4.7-.4c.2 0 .4-.2.5-.5.1-.3.3-.5.4-.4.2.1.3 0 .3-.2 0-.5.3-.6.7-.1.5.5.7 0 .2-.6-.4-.5-.3-.8.4-.8.5 0 .5-.3.5-2.5 0-1.3.1-2.6.3-2.8.1-.2.5-.3 1.5-.2a4 4 0 0 0 2.2-.2c.8-.3.8-.3.2-.5-1-.3-8.2-.2-14.5.1l-9 .4c-3.1 0-3.3 0-3.3.5s.1.5 2.7.5c1.6-.1 3 0 3.3.1l1 .4c.3.1.5.4.5.7 0 .6 1.2 1 2.5.8.5 0 .6-.2.5-1 0-.7 0-.8.6-.8.4 0 .7-.1.8-.3.2-.3 3.2-.3 3.8 0l1 .4c.4.1.5 1 .1 1.3-.4.3-.3 1.2.1 1.4.3 0 .7 0 1-.3.4-.4.7-.5 2.3-.2 1.6.2 1.8.3 1.9.8.1 1-.4 1.2-1.2.5-.8-.8-1.2-.9-2-.4-.3.2-.5.5-.5.8.1.5 0 .6-.6.6s-.7 0-.8 1.2a5 5 0 0 0 0 1.7c.2.5 1.5.6 2 0zM163 11c0-.8 0-.8-.2-.4-.3.8-.3 1.2 0 1.2.1 0 .3-.4.2-.8zM17.1 9c.4-1.8.3-3.3-.3-3.3-.3 0-.4.6-.4 3 0 1.6.1 2.7.2 2.5L17 9zm93.4-.4-.1-3.1c-.3-.9-.3-.7-.3 1.2a50.5 50.5 0 0 1 0 4.5l.4-2.6zm1.9 1.3V8.2l-.2 1.4c-.2 1.2-.1 2 .1 2V9.9zM36.7 6c0-1.7 0-1.7-.2-.5L36.3 9v2.4l.2-1.8.2-3.6zM105 8.2c-.3-1-.3-1-.3.6 0 1 0 1.9.2 2.1.3.8.4-1.4 0-2.7zm25 2.6c-.3-.3-.7-.4-.8-.3-.4.4 0 .8.8.8h.6zm2.6.3h-.5c-.2 0-.1.2.2.2.3 0 .4 0 .3-.2zm1.6-.3-.2-.6c-.3 0-.5.7-.3 1 .3.3.6 0 .5-.4zm16.5.2c0-.1-.1-.2-.3-.2-.1 0-.2 0-.2.2s0 .3.2.3.3-.1.3-.3zM118 9c0-.7 0-1.5-.2-1.9-.3-1.1-.5-.3-.4 1.8.1 2.4.6 2.5.6.1zm56-4.2c-.1-.5-.4-1-.6-1-.4-.2-.4 0-.3 2.5v2.5c-.6-.4-.6.6-.1 1.2.3.3.6.7.6.9l.3-2.5V4.8zM63.6 6.2c0-1.7.1-2 .4-2h.6c.3-.5-.7-.7-1.8-.3l-1 .3v1.7c0 2 .5 3.7.5 1.9 0-1.5.6-1.2.6.3l.1 1.8c.3.7.6-1.2.6-3.7zm59.8 3.5c-.1-.3-.2-.2-.2.1l.1.4v-.5zm-7.3-3.4-.2-1.8-.2 1.1a9 9 0 0 0 0 2.5c.1 1.4.2 1.4.4.7V6.3zm-75.5.9c0-1.6-.3-1.8-.6-.3-.1.6 0 1 .2 1.3.1.3.3.4.4.4V7.2zm74-1.5c-.2-1.9-.4-2.4-.7-2.2-.3.2-.2 2.1.2 4.4l.2.9.2-.8c.1-.5.2-1.5 0-2.3zm17.8 2.7c0-.2-.1-.3-.4-.3-.2 0-.4.1-.4.3l.4.2c.3 0 .4 0 .4-.2zm-90-1c.2-.7 0-3.5-.2-3.5l-.3 2c0 1.9.1 2.5.4 1.4zm79-2.1-.3-2v2.3c0 1.7 0 2.3.2 2 .2-.1.3-.8 0-2.3zm-86.3.6c-.1-1.5-.2-1.7-.6-1.3-.1.1 0 .7.2 1.5l.5 1.2V6zm17.4.1c0-.7-.1-1.3-.3-1.3-.2 0-.3.6 0 1.8.2 1.2.3 1 .3-.5zm59.3-.9c-.3-.3-.4.8 0 1.6 0 .4.2.3.2-.4 0-.5 0-1-.2-1.2zm6.9-.1c0-1.5-.1-1.9-.4-2-.4-.2-.5 0-.3 1.6.2 1.7.3 2.2.6 2.2V5zM32 5.5c0-.5-.1-.8-.3-.8-.1 0-.2.4-.2 1 0 .5 0 .8.2.7.2 0 .3-.5.3-1zM73.7 5c0-1.4.4-1.5.8-.2.3 1 .3 1 .7-.8.2-.7.2-.7-1.3-.7h-1.5l.2 1c.2 1.3.6 2.3.9 2l.2-1.3zm-35.8 0c0-.6 0-.9-.1-.8l-.2 1.1c0 1.2 0 1 .3-.3zm-8.3 0c0-.6 0-.7-.3-.5-.1.1-.2.5 0 .7.2.6.3.5.3-.3zm79.6-.9c0-.5 0-.8-.2-.8s-.3.5-.3 1.2c0 1 .1 1.2.3.9l.2-1.3zm34.2 1.4c0-.6-.4-.8-1.9-.7-1.5 0-1.8.2-1.4.7.2.1 3.3.2 3.3 0zM5.4 4.5c-.3-.3-.5.1-.3.6s.3.5.4 0v-.6zm34 0c0-.2-.1-.4-.3-.4l-.2.6c0 .3 0 .5.2.4.2-.1.3-.4.3-.6zm67.7.2c0-.7-.2-1.4-.5-1.2-.2.1 0 1.7.3 1.7.1 0 .2-.2.2-.5zm-60.8-.6c0-.3-.1-.5-.3-.5-.1 0-.2.3-.2.7 0 .4 0 .6.2.5.2 0 .3-.4.3-.7zm117.5-.3h-.3c-.2 0-.3.3-.3.6s0 .4.3 0l.3-.6zm-62.4-.7c-.2-.2-.6.3-.6.9 0 .5 0 .5.4-.1.2-.4.3-.7.2-.8zm9.6 0c-.3-.2-.4.2-.2.7.1.5.2.5.3 0l-.1-.6zm54.3.5c0-.3 0-.5-.2-.5s-.3.2-.3.5.1.5.3.5c.1 0 .2-.2.2-.5zm-65.8 0-.3-.2c-.1 0-.3 0-.3.2s.2.3.3.3c.1 0 .3-.1.3-.3zm13.5-.2c0-.3-.2-.6-.3-.6-.2 0-.3.3-.3.6 0 .2.1.5.3.5.1 0 .3-.3.3-.5zm60-.6-.4-.2c-.2 0-.3 0-.2.2 0 .2.2.3.4.3.1 0 .2-.1.2-.3z"/>
</svg>
