<?xml version="1.0" encoding="utf-8"?>
<svg xmlns="http://www.w3.org/2000/svg" xmlns:svg="http://www.w3.org/2000/svg" version="1.1" viewBox="0 0 131 111">
	<title>Ribby butters a muffin while looking over the table. A cup of tea stands next to her plate.</title>
	<path d="M106.6 110.3c-.2 0-.4-.3-.5-.4-.3-.3-1.7-.7-2.1-.5-.2.1-1.1 0-2-.4-2.2-.7-3.7-.8-7.9-.2-6.8.8-9 .8-9.9-.4-.4-.6-.4-.6.2-1.4l.6-.6.4.6.5.6h2c1.3-.1 2.2-.3 2.1-.4 0-.2-.3-.2-.6-.2s-.5 0-.5-.2a45.6 45.6 0 0 1 17.3 2l.4-.6c.4-.8.4-.7-.6-1-.7-.3-.8-.5-.7-1v-.5l-.6.1c-.4.1-1 0-1.3-.1l-.6-.3.7-.2c.7-.2 3.5 0 6.5.4 1.2.2 1 .7-.5 1-.6.2-1 .4-.9.5.4.2 5-.2 6.1-.6 2.2-.7 2.3.9.3 2.7l-1.4 1.3h-3.3l-3.7-.2zm1.2-1.3a.6.6 0 0 0-1-.2c-.2.2.7.9 1 .7v-.5zm5.4 0c.2-.4.5-.6.8-.6.3.1 1.1-.7.8-.9H112l-2.8.2v.6l-.1.7 1.1-.2c.6 0 1.4-.2 1.6-.3.8-.3.6.3-.2.8l-.8.4 1-.1c.7 0 1.2-.4 1.5-.7zm-16.9-1.2c.3-.1 0-.2-1-.2l-1.5.2c-.2.4 2 .4 2.5 0zm-34.3.8s0-.3.3-.4c.4-.3 20.2 0 20 .3-.2.3-20 .4-20.3.1zm-24.8-2-.2-.6c0-.3.6-.3 3.4-.2 8 .4 9.3.5 9.3.7 0 .3-12.2.3-12.5.1zm49.8 0h.6l-.3.1H87zM33.6 105c0-.5 4.2-.8 10.6-.7 7.4 0 7.3.4-.1.6-3.8 0-7.7.2-8.7.3-1.4.1-1.8 0-1.8-.2zm-9.4-1a.6.6 0 0 1 0-.6c.1-.1-.3-.2-1-.2-1.3 0-2-.2-2-.6 0-.1 1.5-.2 3.3-.2 3.4 0 4.6.4 1.8.6l4.5.1c8.9.1 7.5.6-3 1-2.3.1-3.5 0-3.6-.1zm72.6-1c-.2-.3-.2-.5.2-1 .2-.4.6-.8.8-.9.3 0 .7-.3.8-.5.7-.6 3.1-1.1 7-1.4 4.2-.3 15.8-.3 16.5 0 .2 0 .4.3.4.6 0 .5-.1.5-.7.4-3-.8-17-.8-19.6 0-4.5 1.2-4.7 1.3-4.6 2.7 0 .6-.3.7-.8.2zm-67.5-.3-.6-.2.6-.2c.7-.2 3.9.1 3.6.3-.2.3-3 .3-3.6 0zm17.8 0h-2.9c-2-.1-2.7-.2-2.7-.5 0-.2.1-.3.3-.3.7 0 8.6.8 8.7 1H49l-1.8-.1zm5 0c.2-.4-.6-.6-4-1.1a7.3 7.3 0 0 1-2.2-.5l3.7.4 3.6.4v.5c0 .3-.2.5-.5.5s-.5-.1-.5-.3zm2.1-.2-.3-.5 1.7.2c3 .4 3.6.7 1.1.7-1.7 0-2.2 0-2.5-.4zm9.2-.6h1.1c.3.1 0 .2-.6.2s-.8-.1-.5-.2zm6.4 0h.7c.1.1 0 .2-.4.2-.3 0-.5 0-.3-.2zm1.6 0h1.2c.3.1 0 .2-.6.2-.7 0-1-.1-.6-.2zm3 0c.5-.4 1.8-.4 1.8 0 0 .1-.5.2-1.1.2-.8 0-1 0-.7-.2zm-15.8-1c.2-.3.6-.4 2-.4h2l-1.9-.2c-4.2-.5-7.8-.6-7.8-.3 0 .1.3.3.7.3.4.1.1.2-.7.2-1.9 0-3.5-.3-3.6-.7-.1-.2.3-.3 1.2-.3.8 0 1.4-.1 1.4-.3 0-.1-.1-.2-.3-.2-.1 0-.2-.3 0-.6 0-.3.2-.5.4-.5.5 0 .5-.5 0-.7-.5-.2-1.3.4-.9.7.5.3-.5 1.1-1.2 1-.5-.1-.8 0-1 .3l-.3.5-.3-.4c-.2-.3-1.4-.4-6.3-.5a148.3 148.3 0 0 0-15.9-.4c-5.8 0-9.1-.1-8.9-.3a7 7 0 0 1 2.2-.2c1 0 1.8 0 1.7-.2l-2.7-.1c-2.3 0-3-.2-2.2-.7a8 8 0 0 1 2-.2c1.8 0 2.5-.2 2.1-.6h-6.9l1-.5c.6-.2 1.3-.3 1.5-.2.3 0 .7-.1 1.2-.6.7-.8.8-1.7.2-1.7-.2 0-.6-.1-.8-.4-.3-.3-1-.3-4-.2-3 .2-3.5.1-3.5-.2 0-.4.6-.4 4-.3 4.2.2 5.5 0 5.5-1 0-.3-.4-.6-1-1-1.2-.4-1.5-1-.4-.7.5.1.8 0 1.1-.4l.5-.6 1 .5c.5.4 1.3.6 2 .6h1v-1c0-1-.3-1.6-.8-1.6-.1 0-.2.4-.1 1v1l-.9-.1c-1.1-.1-1.8-.7-1.8-1.7 0-.4-.2-.8-.4-1-.4-.3-.4-.2-.4.7 0 1-.6 2-1 1.6-.2-.3-.9-2-.9-2.5 0-.2.2-.3.4-.3s.4-.2.4-.4.2-.5.3-.5c.3-.2.3-.2 0-.3-.1-.1-.2-.5 0-1.1.1-.6 0-1.3-.2-2-.2-.6-.3-1.2-.2-1.3v-1.2l-.2-1-.4.5c-.6.8-.7.2-.2-1 .3-1 .6-1.4 1.4-1.7A5 5 0 0 1 19 75c.6 0 .9-.8.5-1.5a46.8 46.8 0 0 1-.3-15.7c-.2 0-.2-.2-.1-.7.2-.8.2-2 .3-5.1 0-1.2.2-2.1.3-2.1.2 0 .8 3.6 1 7a164 164 0 0 0 .3 4.3c0 .3.3.8.6 1 .6.6.7 2 .1 2.2-.6.2-.7 1-.1 2.3l.5 1.4c0 .2.3.5.6.6.6.4.6 1.1 0 1.6-.2.2-.3.6-.3 1l-.1 1.6c-.3 1.2 0 3.2.5 3.2.2 0 .4.2.4.4 0 .6-1.8.5-2-.1-.2-.8-1.6-.8-2.1 0-.3.5-.7.8-1 .8-.3 0-.5.1-.5.5s.2.5.4.4c.5-.2.5.5 0 1-.5.3-.5.6 0 1.5.2.4.2 1.2.1 2.5a10 10 0 0 0 0 2s.2 0 .5-.3c.2-.2.3-.4.1-.6V83c0-.7.3-1 .7-1 .3 0 .7-.4.9-.9.2-.5.7-1 1.3-1.2 1.2-.5 1.7-.3.6.3-.6.3-.9.6-.8.8.1.2 0 .5-.3.7-.6.4-.8 1-.3 1s.3.5-.3.7c-.5.1-.7.6-.2.6.5 0 3-1.8 2.6-2-.1 0 .1-.3.7-.6 1.2-.6 1.3-.7 1-.2-.3.3-.3.7-.2 1 .1.5.8.7 1 .3.3-.5 3.3-.6 7.6-.3h4.6c.1-.1 0-.6-.1-1.2-.6-1.6-.4-8 .2-8v2.7c0 3.9.2 5.5 1 6.5.3.4.7 1 .8 1.5l.1.8-2 .2c-2.8.3-8 .3-11.7 0l-3-.2v1.9c0 1 .1 2 .3 2l.6 1c.5 1.2 2.2 3 3.1 3.5.5.2.8.6.8 1 0 .6.7.8 3.2.7 1.4 0 2.2 0 2.3.2.1.5-1.6.8-4 .6-3.8-.4-4.7-.6-5.5-1.5-.4-.6-.9-.9-1.4-.9-.4 0-.7.1-.7.3 0 .1-.5.3-1.1.3-.6 0-1.2.2-1.2.4-.2.5 1.1 1 4.4 1.8 2.3.6 3 .7 3.4.5.3-.2 1.1-.2 2.5 0 4.2.4 10.3 0 11.9-.8.5-.3.7-.3.8 0 .1.2.4 0 .7-.4l.5-.7h6l.7-.8.6-.7h-.6c-.4-.1-.7 0-.8.1-.2.3-1.1.3-3.2.3h-3l-.5.8-.5 1-.2-.7c-.3-.6-1.4-1-3.8-1.2l-1.4-.1-.5 1c-.5 1.1-1.5 1.6-2 1-.4-.3 0-1.1 1-2.3l.9-1.1c0-.2.2-.4.6-.5.4-.2.7-.6.9-1.4.2-.7.5-1.3.7-1.5.2-.2.5-.8.5-1.3.3-1.5.4-2 .7-2 .4 0 .2 2.3-.4 3.8a14 14 0 0 0-.6 1.8v.7l.2-.6.6-.6c.6 0 1.3.7 1.3 1.3 0 .5.1.6.8.6.5 0 1-.1 1.2-.3.1-.2 1-.1 2.4 0l2.2.4.4-.6c.2-.3.9-.7 1.6-1a16 16 0 0 0 2.4-1.1l1-.7.4-2.8c.4-4.3.5-4.8 1-4.8.4 0 .4.1 0 1.8a29 29 0 0 0-.3 2.5c-.1 1.1 0 1.3.3 1.2.3 0 .5-.5.7-1.4.2-1.5.7-2 .7-.6 0 .4 0 .8.2.8.5 0 1.1-.8 1.3-1.5.1-.4.4-.8.6-1 3-1.3 3.2-1.6 1.3-1.9-1.9-.2-1.6-.7.4-.7s3-.3 3-1 .5-1 1-.6c.1.2 0 .6-.3 1.3l-.3 1c.3.3 1-.5 1.4-1.4.2-.5.5-.9.7-.9.6 0 .6-.8 0-2.7-.6-1.5-.6-2 0-2 .2 0 1.3 3.4 1.3 4.4 0 .6-.2 1-.6 1.3l-.6.4h.7c.3 0 1.2.1 1.8.4 2.1.7 4 .8 5.5 0 .7-.2 1.4-.6 1.4-.7l-.9-.5-.8-.3.1-1.2c.1-1 .1-1.1-.2-.9-.5.4-.9 0-.9-1 0-.9-.6-1.5-1.8-2-.8-.2-1.2-1-.5-1 .9 0 2.5.9 3 1.6.4.4.8.8 1 .8 1.4 0 3 2 2.6 3.1 0 .5 0 .7.5.8a42.4 42.4 0 0 1 9.1 8c-.4 0-2.2-1.3-4.8-3.7a13.3 13.3 0 0 0-4.2-3c-.6-.2-.7-.2-.5.1.6 1 1.7 2.1 3 3 2 1.4 4.6 3.8 4.4 4.1-.1.2-.8-.2-1.6-.9a6 6 0 0 0-1.8-1.2c-.6 0-5.1 3.4-6 4.5-.4.5-1 1.3-1.2 1.8l-.4 1 1 1 1 1 1.4-.1h1.4c0 .2-.3.3-.6.4-1 .1-.8.9.2.8 1.1-.1 3.3-.9 4.2-1.4l.8-.6-1 .2c-1.5.3-2.6 0-2.6-.7 0-.4.1-.5.7-.4.3.1.7 0 .8 0 0-.2.6-.3 1-.3 1.2 0 2.5-.6 3.7-1.5l1-.7c.6 0 3.7-2.7 4.4-3.8 1-1.6 1.1-3 .1-2-.2.3-.6.1-1.5-.6l-1.3-1-1.3.2-1.2-.1c0-.4 2.8-1 4.2-.8l1.2.2.9-2c1-2.2 1.5-3 2-3s.5.2 0 .8l-.5 1c-.1.6 0 .8.4 1 .3 0 .5.2.4.4-.1.1 0 .7.1 1.3.2.6.3 1.1.1 1.3-.3.3-1.4-.1-1.5-.6l-.3-.9-.2-.5-.4.9c-.4 1-.3 1.3 1 1.7 1.7.5 3.4.3 4.2-.5l1.9-1.4c1.3-.9 1.4-.9 3.1.1.7.4 1.7 2.1 2.5 4.1.7 2 .5 4.2-.4 4.2-.1 0-.2-.7-.2-1.6 0-1.3-.2-2-.8-3.4-.6-1.2-1-1.6-1-1.2-.3 1.5-.4 1.7-.7 1.7-.3 0-.4-.3-.4-1.4 0-1.8-.2-2.3-1-2.3-.6 0-1.3.7-.9 1 1 .6-1.9 2-3.5 1.8-1.1-.2-1.1-.1-.7 1.6.3 1 .3 1.4-.1 2.5a11 11 0 0 1-1 2c-.3.3-.4.7-.3.7.2.3.9 0 .9-.5 0-.4.4-.4 1.1 0l.7.5 1.5-.4c1.6-.4 2.3-.3 2.1.3-.1.3.3.3 1.8.3 1.6 0 1.8 0 1.3-.3-1-.5-.6-.7 1.5-.7 1.7 0 2.1-.1 2.8-.7.4-.3.8-1 .9-1.5.2-1 1-1.3 1.2-.5l.4.6c.3 0 1-2 1-2.8 0-.4.2-1 .4-1.3.2-.4.2-.9 0-1.5-.2-.7-.3-.8-.3-.3 0 .3-.1.6-.3.7-.5.3-.6-.7-.3-3 .3-2 .3-2.5-.1-4-.2-1-.7-2.1-1-2.6-.9-1.7-.4-2.7.6-1 .3.4.5.6.5.4 0-.2-.9-1.5-2-2.8-1.7-2.2-2.4-3.5-1.7-3.5.2 0 .5.3.8.7.7.8.8.3.1-.6-.3-.5-.6-.6-.9-.5-.4 0-.4 0-.3-.4.1-.4-.1-.9-.6-1.4a63 63 0 0 1-2.3-2.8c-1.3-1.6-1.7-2-3-2.3l-2-.6h-.7l-.2 1.1c-.1 1-.3 1.3-1.3 2-.7.4-1.5.9-2 1l-.7.1.5.5c.3.3.5.9.5 1.6 0 .6 0 1 .2 1 .7 0-.2 3.7-1.8 7.6l-.6 1.3c-1 2.8-1.7 4.3-2.3 5-1.2 1.2-1.3.3-.2-1.3a5 5 0 0 0 1-2.7l.5-2.5.2-4.2c0-2.1.1-3 .3-2.7.2.2.3 1.5.2 3.7l.1 3.5 1-1.9.6-1.9V68l-.4-3c-.1-.2-.6.1-1.4.8l-1.9 1.8-.7.7-.4 4c-.2 2.2-.2 4.6-.1 5.4.1 1 0 1.3-.2 1.3-.6 0-.8-2-.5-5.3l.2-2.8c-.1-.1-.9.8-1.4 1.7-.5.8-.7 0-.2-.9l.3-1c0-.1-.3 0-.5.4l-1.5 2c-1.2 1.4-1.3 1.8-.8 2 .5.2-.5 1.5-1.1 1.5-.6 0-.7-.7-.2-1.8.2-.4.5-1.1.6-1.7.1-.8 0-1-.3-.8-.2 0-.4.4-.4.6 0 .3-.2.5-.4.5s-.4.2-.4.4-.1.5-.3.7c-.7.6-.8-.3-.2-1 1-1 1.4-1.4 1.2-1.6l.1-.6c.3-.3.4-.3.7.1l.3.5 1-1.2c.8-1 1-1.3.7-1.6-.4-.5-.1-1 .5-.8.4.1 1-.1 1.7-.7a11 11 0 0 1 1.3-.8c.3 0 2.2-1.3 2.4-1.6V63c-.2-2 .2-2.6.9-1.3.3.6.6.8 1.2.8.8 0 1-.3.3-.8-.5-.4-.3-.8.6-.8.3 0 .7-.2.8-.4.2-.5.6-.5 1 0l.3.5.2-.4c0-.3 0-.6-.4-.7a1 1 0 0 1-.5-.9c0-.4.1-.5.7-.4.7.2.8 0 .4-1.2-.5-1.3-3-4.2-3.6-4.2l-1.3 1c-1 .9-1.9 1.1-1.9.4 0-.2.4-.5 1-.8.6-.3.8-.6.8-1a26 26 0 0 1-.3-2.2c-.1-.6-1.2-1.3-2-1.3-1.1 0-1-.4.1-.6.6-.2.8-.4.8-.7 0-.3 0-.7.2-1 0-.2-.2-.5-1-1l-1.3-.5-.8.4c-1 .5-1.3.4-.8-.2.4-.5 0-.6-1-.5-.5.1-.9 0-.9-.1 0-.4 2.1-1.8 3-2 .7-.3 1 0 .5.4-.6.6-.3 1 1.2 1.7 1.9.8 2 .8 3.2 0 .6-.6.8-.9.7-1.3 0-.3.1-.7.6-1 .7-.8.8-1 .2-1-.5 0-.5-1 0-1.7l.5-.7h-1.4c-1 .1-1.4 0-1.4-.2 0-.3-.1-.3-.6-.2l-.7.2.2-.7c0-.5 0-.7-.1-.6-.4.3-.6-.3-.2-.6a6 6 0 0 1 1.4-.6c1-.3 1.2-.3 1.4 0 .4.6 1 .1 1.4-1.2.4-1 .4-1.5.2-2l-.4-1.6c-.1-.6-.4-1.1-.8-1.4-.8-.6-1-1-.6-2.1l.3-1-.7-.5c-1-.7-.9-1.2 0-1.4.6-.1.9-.3.9-.7 0-.2.1-.6.3-.7.2-.1.5-.7.6-1.2.4-1.5 1-1.7.9-.3v1.7c.4 1 .1 1.9-.8 2.2-.8.2-1 .6-.5.8.1.1.3.5.3 1 0 1 .2 1.6.8 1.6.5 0 1.6-2.1 1.6-3l-.1-5.2c-.2-8-1.2-10.5-2.6-6-.3 1-.8 2.4-1.2 3-.6 1.2-2.3 3.2-2.6 3.2-.3 0 .3-1.3 1.4-2.7 1-1.5 2-4 1.8-4.3-.1-.2-2 1.8-4.6 4.6-.5.6-1.1 1-1.3 1-.2 0-.7.2-1.2.7-.4.5-.8.8-1 .7-.3-.4 3.2-4 5.4-5.7.4-.3.6-.6.5-.6l-1.1.6-1 .7c-.2 0-1.2.9-2.4 2-3 2.8-3.3 3.1-3.3 3.6 0 .2 0 .5-.2.6-.4.3-.5-.5-.2-1.2.7-1.2.5-1.9-.6-2.7l-1-.7H79l-1.7.1v1c.3 1.6 1.3 2.1 1.7.7.1-.6.4-1 .8-1 .7 0 .7.6.1 1.3-.3.4-.5 1.2-.6 2.8 0 1.7-.2 2.2-.5 2.2s-.3-.2-.2-1V23c-.3-1-1-1.1-1.2-.3l-.4 1c-.1.4 0 .5.2.5.6-.2.7 1.3.2 2.7-1 2-1.6 1.7-1.6-1 0-1.6-.1-1.6-.8 0-.4 1.3-1.2 1.6-1.5.6-.4-1-.4-3 0-3.4.3-.2.5-.7.5-1.1 0-.6-.1-.7-.5-.5-.5 0-.6 0-.6-.4s-.1-.6-.6-.6c-.4 0-.8-.1-.9-.4 0-.2-.3-.4-.5-.4-.8 0-1.4-.6-1.4-1.4 0-.3-.3-1.3-.7-2l-.7-1.5-.3.8c-.4 1-.8.7-1-1 0-.7-.3-1.7-.5-2.1-.5-1.4-1.7-3-2.1-3-.2 0-1.3.8-2.4 1.8-1 1-2 1.8-2.2 1.8-.8 0-3.5 4-3.3 5 0 .2.3 0 .8-.9.8-1.6 1.5-2 .9-.5l-1 2.5c-.3.8-.7 1.7-1 1.9-.3.3-.5.8-.5 1.4 0 .7-.2 1-.6 1-.4.2-.5.4-.4 1 .2.9-.2 1.3-.8.8-.6-.6-.7-.1-.2 1.6.6 2.4.5 4.5-.1 5.1l-.7 1.1c0 .4-.2.7-.3.7-.2 0-.4 0-.6.2-.4.3 1.7 5 2.7 5.8.4.3.6.7.5 1 0 .2.3.6 1.3 1.2s1.2.9 1 1c-.4.3-.5.3 1.3 1.4.8.4 2 1 2.8 1.1 1 .3 1.4.5 1.4 1 .1.6 0 .6 1 .2 1-.4 1.7 0 1.7.7 0 .4.2.6.4.6.6 0 2.5-.8 2.1-.9l-1-.2c-.4-.1-.7-.4-.7-.6 0-.3-.2-.4-.6-.3-.4 0-.6 0-.5-.4 0-.2-.1-.5-.4-.6-.2 0-.3-.2-.2-.4.2-.4 1.3-.3 1.7 0 .1.2.8.3 1.5.3.8 0 1.2 0 1.3.3.1.3.4.4.7.3.3-.1.5 0 .5.3s-.2.4-.5.3c-.8-.2-.7.4 0 1.1.6.5.7.8.6 1.4l-.2.8h1c.5 0 1.6.2 2.3.5a5 5 0 0 0 2.9.5c.9-.1 1.7-.3 2-.5a11 11 0 0 1 4-.8c.4 0 .9-.1 1.1-.3.3-.2.3-.3-.2-.7-.4-.3-.6-.6-.6-.7.3-.2 3.3.2 3.2.5 0 .2-.3.2-.5.2s-.3.1-.3.3c0 .3.2.4.5.4.7 0 1 .8.6 1.4-.2.3-.3.8-.3 1.2 0 1.2-.4 1.5-.9 1l-.5-.7v-1.4h-2c-1.1-.1-2 0-2.3.1-.2.2-.5.2-.8.1-.6-.2-2.8 1-2.5 1.4.2.2.4 1 .4 1.7.2 1 .1 1.3-.2 1.3-.5 0-1-1.3-1-2.5v-.8l-2-.4c-2.9-.7-4.6-.9-4.6-.5l-1.2.9-1.3.7-.6-.4c-.5-.4-.6-.5-.3-1 .4-.7-.2-1.3-1.4-1.3-1.1 0-1.5-.3-1-.9.3-.3 0-.4-1.8-.4h-2.1l-.7-1.2c-.5-1-1-1.4-2.3-2.1a9 9 0 0 0-2-1c-.6 0-2-.8-2-1.2 0-.5.8-.4 1.8.2.7.5.9.5.9.2s-.5-.7-1.2-1c-.7-.3-1.2-.8-1.3-1.1l-.2-.6-.5.5-.6.6-.3-.5c-.2-.3-.6-.5-.9-.5-.7 0-2.2-.5-2.2-.7 0-.3 2.2-.6 2.8-.4l.6.1-.1-1.5c-.1-.9-.4-2-.7-2.4-.6-1-.6-1.8 0-2.2L52 32l.7-1-.4-.3-.4-.3.5-.4c.6-.5.7-2 0-3.5-.6-1.6-.5-2.2.4-2.4.7-.2.8-.3.8-1 0-.9.5-2 1-2.4.2-.2.4-.9.6-1.6.3-1.7 1.1-3.6 2-4.9 1.2-1.5 2.7-3 3.1-3 .3 0 1-.5 1.8-1.3 1-1.1 1.4-1.3 2.3-1.4h1l1 2c.5 1 1.3 2.2 1.6 2.4.4.3.7.6.7.8 0 .5 1 2.5 1.7 3.2l.6.8 1.7-.2 1.7-.3v-1l.3-1.5c.2-.6.6 0 .7 1.1.1 1.4.3 1.6 2 1.6 1.5 0 4 .3 5.4.6.6.2.7.1 1-.5.4-1-.4-6.2-1-7.5l-1-1.8C81.3 7.1 77.8 4.4 75 3c-3.1-1.7-5-2-14-1.8H54v-1h1.5l7-.2a46.1 46.1 0 0 1 9.6.7c1.8.2 2.5.4 3.2 1l1.1.6 1.4.7c.7.4 1.5.9 2 1 .3 0 .6.3.6.4 0 .2.5.6 1 1.1a6 6 0 0 1 1.3 1.8c.2.5.6 1.2 1 1.5.6.7 1.5 4.6 1.5 7.2 0 2.6.1 2.7 2.2 1l1.6-1.2c.2 0 2.8-1.8 3.4-2.4.3-.2.5-.6.5-1 0-.6.4-.9 1.4-.9 1.8 0 2.5 3 2.7 11.2l.1 6-1 1.8-1 1.8v3c0 1.6 0 3 .2 3.1.2.3.1.6-.3 1.1l-.5.8.5.2c.8.2.6 1-.4 2.1-.5.6-.9 1.2-.8 1.4 0 .2-.1.7-.4 1.1l-.5 1c0 1-.6 2.2-1.2 2.4-.8.4-.9.9-.1 1.5.3.3.5.8.4 1.2 0 .5 0 .7.6.8.6.2 1.9 1.5 4.4 4.8.8 1 1.5 1.5 2.9 2.2 2.4 1.2 3.3 1.9 5 4.5l2.6 3.7c2.5 3.7 3.6 7.4 4.2 13.5.2 2.5.2 3.6 0 4.9-.2.9-.4 2.4-.4 3.3 0 1.4-.2 1.9-.7 2.4-1.1 1.2-1.2 1.2 9.2 1.1 5.4 0 9.9 0 10 .2.4.2.5 1.2.1 1.7-.3.5-2.8.4-3.9 0-.6-.4-2.8-.5-10.5-.7a533.2 533.2 0 0 0-16.4 0c-2.3 0-4.4.1-4.5.2-.3.2-.3.5 0 1.2.3 1.3-.4 2.4-2.5 3.7-2.9 1.8-6.6 2.3-15.5 2.3H64.4l-6 .3zm19.9-1.2c.3-.2 1.4-.4 3.9-.4a32 32 0 0 0 7.3-1c3.4-.4 4.5-1.5 3.5-3.5-.4-.8-.7-1-1.5-1.3h-1.2c-.4.7-2 1.2-3.5 1.3-1.4 0-1.9.1-3 .8a26.5 26.5 0 0 1-12.2 2.3c-5 0-5.4 0-5.4-.4s-.5-.6-2.4-.7c-.9-.1-1.3 0-1.4.2-.2.4-2.8-.2-3.2-.7-.4-.7 0-1.8.7-1.8.5 0 .5 0 .3.3-.5.5-.4.6.5 1 1 .3 3.6.2 4.4-.3.3-.1.7-.2.9-.1.1 0 .7 0 1.2-.2l2.6-.5 1.6-.1.2-1.2c0-.6.3-1.4.6-1.8.9-1.3.7-1.4-4-1.4-2.5 0-5 .2-5.6.3-1 .3-2.5.6-6.3 1.1-2.5.4-4.8 1.2-5.3 2-.3.4-.2.6.5 1.3a8 8 0 0 0 4 2.3 26.1 26.1 0 0 0 13.8 2.9 60.4 60.4 0 0 0 9-.4zm-25.6-1.3-.4-.2c-.2 0-.4 0-.4.2s.2.3.4.3.4-.1.4-.3zm-2.8-.8a17 17 0 0 0-3.3-.3c-2.2 0-3.3 0-3.8-.4-.6-.2-1-.3-1.4 0l-2.3.5c-.9.1-1.7.4-1.9.5-.4.2 11.9.4 12.5.1.5-.2.5-.3.2-.4zM72.7 96c.1-.4-1-.7-1.7-.5-.6.2-.4.7.4.8 1 .1 1.2 0 1.3-.3zm-22.2-.2c.2-.6-1-.9-3.6-1H44l-.3.8-.2.6H47c2.3-.1 3.4-.2 3.5-.4zm18.8.1c0-.1-.2-.2-.5-.2s-.5 0-.5.2.2.3.5.3.5-.1.5-.3zM88.4 93c.3-.3.8-.5 1.2-.5.5 0 1-.3 1.4-.7.4-.3.8-.6 1-.6.6 0 2-3.3 1.4-3.6l-.3-.6c0-.5-1-2-1.3-2-.2 0-.8 1.3-.8 2 0 .3-.4 1-1 1.4-.8.7-.9 1-.6 1.3.4.5.2 1-.6 1-.3 0-1.1.5-2 1.4l-1.4 1.5h1.3c1 0 1.4-.2 1.7-.6zM86 91.7c0-.4-.4-.3-1.2.3-1 .8-.8 1.1.3.5.5-.3.9-.7.9-.8zm22.5-.3.5-1.1-.7-.1c-.4 0-1 .2-1.7.9l-1 1 .8.2 1.2.2c.2 0 .6-.5.9-1.1zM54.3 91c.6-.4 1.7-.6 4-1 5.2-.5 5.3-.6 2.2-1.6-1-.3-1.8-.7-1.8-.8l.2-.2c.5 0 4.4 1.5 4.7 1.8.2.2 2 .3 4.9.3H73l1.2-1A17 17 0 0 1 76 87c1.6-1 3-2 3-2.3 0-.2-.4-.5-.8-.9a25 25 0 0 1-2.2-1.7 6.9 6.9 0 0 0-1.5-1.2l-1.8.5c-1 .3-2.7.6-4.5.7l-3 .2.2-.5c.2-.5-.5-.6-1.6 0-.4.2-1 .4-1.4.4-.4 0-1 .3-1.5.9-.4.5-1.2 1-1.7 1.3-.4.2-1 .8-1.2 1.3-.4.9-1.3 1.5-2.1 1.5-.2 0-.6.3-.9.6l-.5.5.8.6c.9.7.7.9-1.7 1.9-1 .4-1.8.8-1.7 1 .2.3 1.4 0 2.3-.7zm6.8-4c-1.6-.8-2.3-1.5-1.5-1.5.2 0 .5 0 .5-.2.1-.4 3.8 1.5 3.8 1.9 0 .2.1.4.3.5.1.1-.1.2-.6.2s-1.6-.4-2.5-.9zM74.7 86c-1.1-.3-1.4-.5-1.4-1.1 0-.3-.2-.6-.5-.7-.3 0-.6-.3-.6-.5 0-.3.2-.4.5-.3l.9.2c.3 0 .5.2.5.7 0 .6.9 1.4 1.6 1.4.3 0 .5.1.5.3 0 .3-.3.3-1.5 0zm-6.9-1-.7-.6c-.1-.1-.8-.3-1.5-.3-1.4 0-2.4-.3-2.4-.8 0-.2.4-.2 1.2-.1l2.2.3c.6 0 1.3.3 1.4.5l.8.4c.6 0 .7.4.1.6l-.5.2-.6-.3zm6-3c0-.3.1-.5.3-.5.1 0 .3.2.3.5s-.2.5-.3.5c-.2 0-.3-.2-.3-.5zM23 91.2c0-.2-.2-.3-.4-.3s-.3.1-.2.3l.4.2c.1 0 .2 0 .2-.2zm64.6-.5.2-.4c-.2-.2-1 0-1 .4 0 .3.3.3.8 0zm-66.4-4.3c0-.5-.1-.5-.3-.3-.2.1-.2.4-.1.6.2.4.4.3.4-.3zm1.3-1.2c0-.2-.1-.3-.3-.2l-.2.5c0 .2 0 .3.2.3.2-.1.3-.4.3-.6zm15.4-1c1.1-.3 1.3-.5.4-1-.4-.3-2-.3-5.5-.3-7.1.1-9.2.4-7.7 1 1.3.6 9.9.7 12.8.2zM22.4 84c0-.1 0-.2-.3-.2-.2 0-.4 0-.5.2-.1.2 0 .3.2.3s.5-.1.6-.3zm-.6-11.6V72c-.2 0-.4.1-.4.3 0 .1 0 .3.2.3l.2-.3zm-2-9.8c-.1-.3-.2-.2-.2.1l.1.4v-.5zm49.4-14.1c.2-.6-.3-.8-1.2-.4-.6.2-.7.4-.5.5.6.4 1.5.3 1.7-.1zM76.5 22V20l-.2-1.4h-.6l-.7-.1v6l.8-.8c.5-.5.8-1 .7-1.6zm-3-2.8c0-.1-.2-.3-.5-.3-.5 0-.7.6-.3 1 .2.1.9-.4.9-.7zm-59.4 81.6c-.2 0-.3-.3-.3-.4 0-.3 5.1-.3 7.6 0 1.5.2 1.3.2-1.7.3a63.6 63.6 0 0 0-5.6.1zm10-.4c0-.3.2-.3 1 0l.4.3h-.7c-.4 0-.7-.1-.7-.3zm-12.6-.9c-.3-.6 0-.7 1.6-.5 1.6.2 2 .6.6.6a7 7 0 0 0-1.5.2c-.4.1-.6 0-.7-.3zm4.1-.1c0-.2.1-.3.3-.3l.4.3c0 .1 0 .2-.3.2-.2 0-.4 0-.4-.2zm1.8 0h.7c.1.1 0 .2-.4.2-.3 0-.5 0-.3-.1zm3.5 0c-.5-.4.7-.5 2.5-.3 1.1.1 1.3.2.7.2l-1.9.2H21zm-7.7-9c0-.3.2-.5.3-.4.1 0 .3.3.3.5s-.2.4-.3.4c-.1 0-.3-.2-.3-.5zM9.5 90c-.2-.4-.4-1.6-.7-3.3-.2-1.6.3-.9.7.9.3 1.5.3 3.3 0 2.4zm32.8-.2c-.3 0-.5-.3-.5-.5 0-.4.8-.4 1.4 0 .3.3.9.4 1.2.4.6 0 .5 0-.3-.3-1.2-.3-1.2-.6.2-3 1.1-1.8 1.1-2 .4-2.8-.3-.4-.5-.9-.5-1.1 0-.7-.5-1.5-1.2-2.1-.8-.7-1.2-2-1.2-4.3 0-1-.1-1.7-.3-1.8-.5-.3-.2 4.1.4 6.5l.7 2.6c0 .2 0 .4-.2.4-.5 0-1.3-2.6-1.7-5.9-.4-3.4.1-9.3.9-9.5.5-.1.9-2 1-4.6 0-2 .7-4.8 1.8-7.8.5-1.3.2-2.3-.4-2-.3.1-1 .8-1.6 1.4-1.2 1.2-1.4 1-.7-.4.8-1.6.2-1.5-1.4.2a43.9 43.9 0 0 0-6 8.3H34s.1-.6.5-1a194.6 194.6 0 0 0 3.4-5.4l.8-1-1.3 1.3a28 28 0 0 0-3.4 4c-1.8 2.7-2.3 3.5-2.5 3.3-.3-.2-1.1 1-2.7 4.3-1.6 3-2.4 5.8-1.8 6.3.2.2.3 0 .3-.4 0-1 3.4-7.6 3.7-7 0 .4.6-.1 2.6-2.5a271.8 271.8 0 0 0 3.3-3.6c.2.2-1 1.8-3.4 4.4a30 30 0 0 0-3.3 4.1c-.4.2-1.6 2.7-1.6 3.2l-.4 1.3-.4 1.2c0 .2.4-.4 1-1.4 1-2.2 3.8-6.2 4-5.7l-.5.8a38 38 0 0 0-3.4 5.6c-.4.9-.4 1.8 0 1.8l1-1.8c.7-1.5 1.3-2.6 2.3-4 0-.1.2 0 .2 0 .1 0-.1.6-.5 1.2a17.3 17.3 0 0 0-2.7 6.5c0 1-.1 1.4-.5 1.5h-.5l.2-1.4c.2-1 .1-1.4-.1-1.4l-.9-.3-.5-.2.2 1 .5 1.8c.1.4.2.8.1 1-.3.2-1.5-.3-1.7-.7a7 7 0 0 0-1.3-2.3c-.2-.2-.3-.7-.2-1.4.2-1.3.5-1.4.8-.5.1.4.2 0 .5-1.4.2-1.1.7-3.1 1.3-4.5l1-3c0-.5 0-.7.4-.7 1 0 1.9-3.8 1.1-5-.2-.4-.2-.6 0-1l.3-.5v.9c0 1.3.6.9.9-.7v-3.7c-.1-1.7 0-2.5.1-2.5.5 0 .6.4.6 3.9.1 3.8 0 3.8 2.3-.2 2.7-4.7 3.2-5.3 5.8-6.6 1-.5 1.3-.8 1.4-1.4 0-.9 1.2-2.7 1.8-3 .4 0 .5-.9 0-.9 0 0-.2-.1-.2-.3 0-.3.4-.4 1-.5 1.1-.1 1.9.3 1.4.7 0 .1.1.1.4 0 .4 0 .6.1.6.3l-.8.2c-.9-.1-3.6 2.5-3.3 3.2.2.4.2.4.4.2.2-.3.4-.3 1.3 0 .6.3 1.2.5 1.3.4.9-.1 1.4.1 1.4.6 0 .3.1.8.3 1 .3.6 1.2.8 1.4.3.2-.6 2.5.6 3.2 1.6.6 1 1.4 1.5 2.5 1.6.5.1 1 .7 2 2.3a8 8 0 0 0 1.8 2.4c.6.1.6.3 0 .9-.5.5-.2 1.3.6 1.3.3 0 .8.3 1.2.6.3.4.7.7 1 .7l.3.9c0 .4.1 1.4.4 2.1.4 1.5.5 3 .1 3l-1-1.1-.9-1.2-1-2.1c-.5-1.2-1-2.1-1.2-2.1-.5 0-.5.5.2 3.5.2 1.5.5 3.6.5 4.7v2.1l.6-.1a6 6 0 0 1 1.3-.2c.3 0 .9-.1 1.1-.3.4-.4.5-.5.2-.8-.5-.6.1-.9.8-.3.5.5 1 .5 6.3 0 1.4-.2 2-.1 2.6.2.5.2.8.6.8.7 0 .5-.7.6-1.2.1s-3-.5-4 0c-.6.3-1.2.4-2.1.3-1-.2-1.8 0-3 .3-2 .7-4 1-4.4.8-.2-.1-.2-.6 0-1.4a6 6 0 0 0 .2-2.7l-.2-1.5-.2 1-.3 2.4c0 .8-.2 1.5-.4 1.5-.3 0 0-10.6.4-11.3.2-.5.1-.7-.4-1.4-.3-.4-.7-.8-1-.8-.1 0-.4-.3-.6-.7-1-2.8-1.7-3.3-1.4-1 .4 3.6.4 4 .2 4s-.3-.1-.3-.3c0-.2-.2-.4-.3-.4-.2 0-.3.5-.3 1.2 0 1.9-.6 4.1-1 4.3-.3 0-.3-.2-.2-1.6.3-2.3.3-5.8 0-6.6l-.2-.6-.2.6c-.1.3-.4.5-.6.4-.2 0-.4.1-.5.5-.2.5-.2.5-.4.2-.2-.2-.2-.6-.2-.9.1-.2.1-1 0-1.6l-.2-1-.3.4c-.2.3-.4 1-.4 1.4 0 1-1 3.1-1.7 3.2-.6.1-.5-.1 1-3.5 1.1-2.7 1.2-3.5.4-3.7-1.3-.4-2 .4-3.2 4-.8 2.7-1 3.6-.3 2.4.5-1 .5-1 .9-.9.1.2.1.5-.1 1.2a51.3 51.3 0 0 0-2 7c.1.5.2.4.5-.5A5 5 0 0 1 44 66c.4-.4 0 1.7-.7 4.1-.8 2.4-1.3 6.6-.7 6.6.1 0 .3-.5.3-1.2 0-.8 0-1.2.3-1.1.1 0 .3 1 .3 2.3.2 3.7.6 4.2 1.5 1.5 1.3-4.2 1.7-4.6 1.7-2 0 1.4.2 2 .8 3l.7 1.6c0 .9-.7.2-1.5-1.4l-.9-1.7-.3.6c-.1.3-.4 1.4-.4 2.4-.2 1.9.1 2.9.8 2.9.6 0 .3.8-.8 2.7-1.5 2.6-1.5 2.8.8 2.9h1.3l1.2-1.4 1.7-2 1.4-2.4c1.6-2.4 2.4-4 2.9-6.1.3-1.1.6-1.9.7-1.8 1.1.4-1.2 5.7-4.3 9.9l-1.6 2.2c-.8 1.3-1.8 2.2-2.4 2.3-1.1.2-4 .3-4.5.1zm.8-10.8c0-.2 0-.3-.2-.2-.2 0-.2.3-.2.4.3.4.4.3.4-.2zm-9-18.1a29 29 0 0 1 3-4c1-1 1.9-2.4 1.7-2.5l-1.3 1.2c-.6.8-1.5 1.5-2 1.6-.6.1-1 .7-2.2 2.9a9.9 9.9 0 0 0-1.4 3c.2.4.6 0 2.1-2.2zm0-1c-.3-.3.5-1.6.9-1.6.3 0 .2.4 0 .6-.2.1-.5.5-.6.8-.1.3-.2.4-.4.2zm-2.9 2c0-.1 0-.1-.2 0-.2 0-.3.2-.3.4 0 .1.1.2.3 0l.2-.4zm19.1-5.7c-.3-.5-.4-.3-.1.3 0 .3.2.4.3.3l-.2-.6zm-.3-1.8c0-.7 0-1-.3-.7-.2.2 0 1.7.2 1.7l.1-1zM38.2 54c.7-.8 1.4-1 1.1-.3-.1.4-.1.4.1.2s.3-.5.2-.8c-.3-.8-2.5.4-2.5 1.4 0 .6.4.4 1.1-.5zm6.7-.5c1 .4 1 0 0-1.1l-.8-1h-1.2c-.6 0-1 .2-1 .4s-.3.5-.5.6c-1 1 .2 1.2 1.3.3.6-.5 1.8-.7 1.8-.3l-.6.5c-.3.2-.5.5-.5.6 0 .2.1.2.4 0 .3-.3.6-.3 1 0zm-31.2 35c-.3-1-.4-3-.2-3 .3 0 .6 1.6.5 2.7l-.1.9zm-8.4-1.4c0-.3.1-.5.2-.5.3 0 .6.7.4.9-.3.3-.6.1-.6-.4zm9.7-.5c-.2-1.2-.2-2.3 0-2 .2.2.5 3 .3 3l-.3-1zm-13 0-1.5-8C0 75-.2 69 .3 68.8h.2c0 3.1.4 8 .5 9 .7 4 1.4 7 1.6 7.7.4.8.2 1.4-.2 1.4-.2 0-.3-.1-.4-.3zm47.3-1.9c1.1-1.3 1.4-1.3.5 0-.3.6-.8 1-1 1-.3 0-.1-.3.5-1zm-36.1-.7c-.3-.5-.5-3.6-.3-3.4.3.2.7 3.3.5 3.5h-.2zm37.3-.7.8-1.6 1-2.5c.1-1.1.5-1.8.8-1.5.5.5-1.6 5.7-2.3 5.7h-.3zm-36-1.6V81c.2 0 .3.3.3.7v.6l-.3-.6zm69.8-.9a9 9 0 0 0 .2-1.6c0-1 .3-1.2.7-1 .4.3.3 1.7-.1 2.6-.6 1-1 1-.8 0zm-50.6-.4c0-.5.3-1.4.6-2 .6-1 .7-3.6.2-3.5-.2 0 0-.6.3-1.4.5-1 .7-1.7.6-2.1-.2-.5 0-1 .5-1.6a4 4 0 0 0 .6-1.4c0-.2.1-.3.3-.3.4 0 .3.8-.2 1.5-.4.9-.5 1.8 0 2 .2 0 .2.2-.2.6-.7.9-1.2 2.5-.9 3 .3.7.1 1.5-.7 3.3a4 4 0 0 0-.5 2c.1.6 0 .8-.3.8-.4 0-.4-.2-.3-1zm6 .2a34 34 0 0 1 0-14.5c.3-1.3.5-3 .5-3.6 0-1.3 1.3-4.8 1.8-5 .2 0 .2.3-.1 1-.6 1.3-1.2 4.2-1 4.6.1.3 0 1-.3 1.8-.2.8-.4 1.7-.3 2.1.1.4 0 .8 0 .8-.4 0-.8 2.1-1 4.6-.2 2.2.5 7 1 8 .4.5.3.9 0 .9-.2 0-.4-.3-.6-.7zm-9.4 0c-.4-.4 0-1.7.8-3.4.5-1 1-2.3 1-2.8.1-.4.4-.9.7-1a4 4 0 0 0 1-.8l.7-.7-.5.7c-1.4 2.4-2 3.7-2 4.4 0 .5-.1.8-.5 1-.4 0-1 1.4-.6 1.7.2.2 1.4-.5 1.4-.9s1.6-3.7 1.7-3.5c0 0-.2 1-.7 2.1-.7 2-.8 2.8-.2 2.8.2 0 .2.1.1.3-.2.4-1 .3-1.3-.2l-.3-.4-.5.4c-.5.5-.5.5-.8.3zm-6.6-.3c.4-.4 1.4-.7 1.4-.4 0 .2-.2.3-.6.4-.8.3-1.1.2-.8 0zM14 76c0-.9.1-1.6.3-1.6.1 0 .3.7.3 1.6 0 .9-.2 1.6-.3 1.6-.2 0-.3-.7-.3-1.6zm71-.2c0-1.2.6-1 .7.2 0 .6 0 .8-.4.8-.2 0-.4-.3-.4-1zM98.4 74c0-2.2-1.1-7-1.8-7.7-.5-.6-.5-1.4 0-1.3 1 .2 3 8.1 2.6 10.2 0 .5-.3.9-.5.9s-.3-.6-.3-2zm-45.6-.2.6-3.4c.3-1.8.6-4.2.6-6.4 0-3.5.2-4.5.6-3.1a37 37 0 0 1-1.4 13.3c-.2 0-.4-.1-.4-.4zm23.4-.4c-.2-.7.3-4.5.7-4.7.2 0 .6-.4 1-.7.3-.4.6-.6.7-.4.2.3-.6 2.2-1 2.4 0 .1-.3.8-.3 1.6-.1.7-.4 1.5-.6 1.8l-.3.4zm-43.6-1.5c0-1.4.6-2.6 1.5-3.3l.5-.6-.1.6c-.4 1.2-1.6 4.2-1.8 4.4-.1.1-.2-.3-.1-1zm-16.4.2c-.2-1.4-.3-7.6-.1-7.6.2 0 .6 8.1.4 8.3 0 .1-.2-.2-.3-.7zm84.5-1c0-1-.3-1.9-1.5-4.3l-1.3-3c.3-.3.7.2 1.4 1.5 1.7 3.2 2.3 5.4 2 6.5-.2 1-.6.6-.6-.7zm-27.6 0v-2c0-1.5 0-1.9.4-1.9.3 0 .4.4.4 2 0 1.2-.2 2-.4 2-.1.1-.3 0-.4 0zm-8.8-.3c-.2-.2-.4-.7-.4-1.1 0-1 1-1 1.2-.2.4 1.4 0 2-.8 1.3zm49.8-.6c-.3-.5-.3-1.3-.1-4.8.2-5.3.5-7.3.8-7.3.3 0 .2 12.4 0 12.6-.2 0-.5-.2-.7-.5zm-3.5-4-.1-10-.3-12.9c0-6.1 0-7.2.3-7.4.3-.2.5-.1.8 0 .3.4.3 1 0 3.7-.2 2.3-.3 6-.1 12.8.3 15.3.2 18.1-.3 18.1-.3 0-.3-.7-.3-4.3zm-85.2 2.9V68c.2-.4.3-.4.4.2.3 1 .3 1.5 0 1.5l-.4-.6zm-7.2-.1c0-.4 0-.6.1-.4v.7l-.1-.3zm14.8-.7c0-.5 1.7-2.6 2-2.5.2 0-.2.7-.9 1.4l-1.1 1.1zm37-.3c-.3-.8-.6-2.4-.4-3.1.2-1 1-1 1 0l.1 2.1c.2 1.5-.1 2-.6 1zm-3.4-.4c-.4-.6-.2-1.3.2-1.3s.8 1 .6 1.5c-.1.5-.5.4-.8-.2zm-42.3-1v-1.9c-.4-.9-.2-1.4.2-.8.4.6.3 3.4 0 3.6-.2.2-.3 0-.2-.9zm-6.3 0V66v1-.5zm61 .2c-.8-.8-.6-1.9.5-2.1.6-.2.8-.4.8-.8s.6-1.3 1.2-2.2c1.4-1.8 1.4-2 .7-2.2-.8-.2-.5-.7.8-1.3a6 6 0 0 0 1.5-1l.6-.4c.5 0 .3.6-.5 1.3-.4.4-.9 1.2-1 1.8-.2.5-.6 1.5-1 2l-.8 1.7c-.1.5-.5 1.2-.8 1.6-.4.4-.8 1-1 1.5-.2.8-.4.8-1 .1zm-7-1.7c-.5-1-.3-2.2.2-2.2.4 0 .7 1 .7 2.4 0 1-.4 1-1-.2zm15.6.4c-.2-.3.3-1 .7-1 .4 0 .2 1-.2 1.2-.2 0-.4 0-.5-.2zm-65.3-.2c-.1-.2 0-.4 0-.4.2-.1.4 0 .4.2 0 .5-.2.5-.4.2zm5.5-.6c-.2-.8 0-1.3.3-1l.3 1c.2 1-.3 1.1-.6 0zm48 .5c-.2-.1-.1-.4 0-.6.2-.2.2-.5.2-.8-.2-.7.2-1.3.6-1 .4.1.4 1 0 1.3-.1 0-.2.3-.1.5.1.5-.5 1-.8.6zm-60-1.7c0-.4 0-.8.2-1 .2-.2.3 0 .3.7 0 1.2-.2 1.3-.4.3zm23-.5c0-.6.1-1.2.3-1.3.1-.1.2.3.2 1.2 0 .7 0 1.3-.2 1.3s-.3-.5-.3-1.2zm27.3.3a2 2 0 0 0-.6-.8c-.4-.3-.3-1 .3-1s.7.2 1 1.4c.1 1.2-.3 1.4-.7.4zm-41.3-.5c-.3-.9-1-1.1-1.2-.4-.1.5-.2.5-.4.2-.4-.5-.4-2.6 0-2.8l.6-1 .4-.8v1.4c0 1.1.2 1.7.8 2.5.5.7.6 1 .4 1.3-.3.2-.4.1-.6-.4zm43.6-.2c-.2-.5 0-1.3.3-1.3s.8.9.8 1.4c0 .6-.7.5-1 0zm11.1.3c0-.2.2-.3.4-.3.3 0 .4.1.4.3 0 .1-.1.2-.4.2-.2 0-.4 0-.4-.2zm9.7 0c-.2-.3.3-.6.7-.4.3.2 0 .6-.3.6-.1 0-.3 0-.4-.2zm-29-1c-.5-.8-.6-1.2-.4-1.4.4-.4 2.1 1.4 2 2-.3.6-1 .4-1.6-.7zm-42.8 0c0-.5 0-.6.1-.4v.6-.3zm67.2 0c0-.4.9-1.1 1.2-1.1.5 0 .4.4-.2.9-.7.4-1 .5-1 .1zm15 0a.9.9 0 0 1-.2-.5c0-.5.7-.5.9 0 .2.5-.3 1-.7.5zm-41.2-1 .4-.2c.1 0 .3.1.3.3 0 .2 0 .3-.3.3s-.4-.1-.4-.3zM76 61c-.2-.6 0-1.3.5-1.3.2 0 .4.3.4.8.1.7 0 .9-.3.9a.7.7 0 0 1-.6-.4zm-5-.2c-.3-.3-.5-1.4-.4-2.3 0-.1.2-.3.4-.3.3 0 .7 1.3.8 2.5 0 .4-.5.5-.8 0zm-6.6-.3c-.2-.6 0-1.2.5-1.2s.8.6.6 1.2c-.1.2-.4.4-.6.4-.2 0-.4-.2-.5-.4zm17 0 .4-.2c.1 0 .2.1.2.3 0 .1-.2.3-.4.3s-.3-.2-.2-.3zm-2.4-.3c-.4-1.1 0-3 .6-2.4.2.2.3.8.4 1.5 0 .9 0 1.2-.4 1.2a.6.6 0 0 1-.6-.3zm-11.5-.7c0-.3.1-.5.3-.4.2 0 .3.2.3.4s-.1.4-.3.5c-.2 0-.3-.1-.3-.5zm20.5.3c-.3-.5.8-1.5 1.2-1.1.3.3.1.7-.6 1-.3.3-.5.3-.6 0zm-29.4-.4v-.7c.4-.3 1.5.5 1.3.8-.2.4-1.2.3-1.3-.1zm-36.6-1s0-.2.2-.2.3.1.3.3c0 .1-.1.2-.3.2a.3.3 0 0 1-.2-.2zm41.1-.1c0-.3 0-.6.2-.8.4-.4.5-.3 1 .2.3.3.5.6.4.8-.3.4-1.4.3-1.6-.2zm13 0a2 2 0 0 1 0-1.1l-.1-.7c-.4-.2-.4-1 0-1l.4.5c0 .3.2.7.4 1 .3.7.2 1.5-.2 1.7-.2 0-.4-.2-.5-.5zm-18.8-.3c-.5-.6-.5-1.4 0-1.4s1.1 1.3.7 1.6c-.1.2-.4.1-.7-.2zm-27.8-.1c-.3-1-.6-5.6-.4-5.9.3-.3.5 0 .6 2.1l.4 2.8c0 1 0 1.3-.2 1.3l-.4-.3zm59.1-.2c0-.5 1.5-1.2 1.8-.8.2.4-.8 1.3-1.4 1.3-.2 0-.4-.2-.4-.5zM6 57.5l.1-.7c.2-.3.2-.2.3.3 0 .8-.2 1-.4.4zm66.2-.6-.4-1.4c-.1-1 0-1.1.3-1.1.5 0 1 1 1 2 0 .8-.4 1-.9.5zm7.9-.4c.2-1.3.6-2 1-1.6.3.4-.3 2.4-.8 2.4-.3 0-.4-.2-.2-.8zm1.4.4c.2-.6 1-.8 1-.3 0 .2-.1.5-.4.6-.6.2-.7.2-.6-.3zm26.2.3-.5-4.7a152 152 0 0 1-.7-9.5l-.2-5h.9v3.4l.4 7.8c.7 8.2.7 8.1.4 8.1h-.3zm-83.2-.8c-.2-.7 0-1.3.4-1 .3.1.3 1.3 0 1.5-.2.1-.3-.1-.4-.5zM78.7 55c.2-2 .3-2.3.7-2 .5.3 0 3.8-.6 3.8-.2 0-.2-.6 0-1.8zm-17.5.8c-.4-.8-.2-1.7.4-1.6.4 0 1.2 1.9 1 2.2-.5.3-1.2 0-1.4-.6zm5 .4c0-.1 0-.4.2-.5.3-.4 1.2 0 1 .4-.1.4-.9.5-1.1.1zm17.2-.5c.2-.5.7-.6.7-.1 0 .2-.1.4-.4.4-.2 0-.3-.2-.3-.3zm1.6-.5c0-.3-.3-.5-.5-.5s-.4-.2-.4-.3c0-.2.3-.2.9-.1 1 .2 1 .2.9.9-.3.7-.7.7-.9 0zm-28.4-.5c0-.5 0-.8-.2-.7-.3.2-1.4-.4-1.4-.8 0-.7.8-.7 1.7 0 .8.6.9.9.7 1.4-.2 1-.8 1-.8 0zm46.6.6v-3.5c0-.7.5 1.6.5 2.7l-.2 1c-.2 0-.3-.1-.3-.2zm-96.8-.8c0-.5 0-.7.2-.4.3.2.3.4 0 .7l-.2.5zm17 .3-.1-1.5c0-.7-.2-1.7-.4-2.2a21 21 0 0 1-.4-4.6 14 14 0 0 0-.4-4.2c-.2-.4-.4-1.8-.5-3-.2-2-.2-2.4.1-2.3.3 0 .4.8.5 2.3.1 1.5.3 2.2.6 2.6.4.4.5 1 .5 2.7 0 1.2.1 2.7.3 3.3.3 1.2.2 7.2-.1 6.9zm37-1.6c-.3-.8.2-1.7 1-1.9.3 0 1-.2 1.3-.4 1.2-.5 1.2.2 0 1.1l-1.4 1.2c-.2.5-.7.5-.9 0zm38.8-3.8c0-2.7.1-4.3.3-4.3.1 0 .3 1.4.3 3.6V53c0 .3 0 .6-.2.6-.3.1-.4-.8-.4-4.1zm-12.8 3.1c-.1-.1 0-.3.3-.4.5-.2.7 0 .5.4-.2.4-.6.4-.8 0zm-54.1-1.2c0-.5.2-1 .4-1.1l.4-.4v1c-.2 1.3-.8 1.6-.8.5zm20.4-.1c-.6-.7-.6-1-.4-1.8.3-1.1.7-1.1.8 0 0 .5.3 1 .7 1.5.9 1 .9 1.1.1 1.1-.4 0-.8-.3-1.2-.8zm-16.5 0c-.2-.4-.2-1.2 0-2.4 0-1 0-2-.2-2.3-.2-.3-.2-1.2 0-2.5 0-1.5.2-2 .6-2h.4v2.4c0 6.3 0 7-.2 7.2-.2.1-.4 0-.6-.4zm28.2-.5.7-.5c.4 0 .3.7-.2.9-.8.3-1 .1-.5-.4zm-36-1c-.5-1.1-.3-2.2.4-2.1.3 0 .5-.2.5-.6.2-1 .7-.4.8 1 .1 1.4-.2 1.8-.7 1-.2-.4-.2-.3-.1.6.2 1.4-.3 1.5-.9.1zm9.2.6c.2-.7.8-.8.8-.2 0 .4-.2.6-.4.6-.3 0-.4-.2-.4-.4zm18.2 0c0-.2.2-.4.3-.4.1 0 .3.2.3.4s-.2.4-.3.4c-.1 0-.3-.2-.3-.4zM8.3 46.7c0-1.8.2-3.6.4-3.8.3-.6.2 3-.2 5.7-.2 1-.2.6-.2-2zm66.4 2.9c0-.2 0-.5.3-.6.6-.5.5-.7-.5-2-.5-.5-1-1.1-1-1.3 0-.4 1.2-.4 1.9.1.3.2.5.3.5.1 0-.5 3-.1 3.1.5.2.4-.7 1.3-1.7 1.9-.3.2-.6.5-.6.7 0 .7-1.6 1.2-2 .6zM55 48.1c0-.4.2-.6.5-.5.3 0 .5.2.5.5 0 .2-.2.4-.5.4s-.5 0-.5-.4zm26.2-.4.4-.7c.4-.3.4-.4 0-.9-.4-.7-.1-1.4.5-1.1.6.2 1 1 .5 1.1-.1 0-.2.4-.1.6.1.6-.4 1.4-.9 1.4a.4.4 0 0 1-.4-.4zm-43.6-.5c0-.3.2-.6.4-.6.1 0 .3.3.3.6 0 .4 0 .6-.3.6s-.4-.2-.4-.6zm12.3 0 .1-.6c.3-.2 1 .3 1 .7 0 .4-1 .2-1-.2zm4.3.1c-.3-.3-.2-.6.2-.6.2 0 .4.2.4.4 0 .4-.3.5-.6.2zm-5.5-.6-.3-.7c0-.8-1-1.4-2.5-1.4-1.4 0-2.1-.4-1.4-.8l1.3-.2c.7 0 1-.2 1.4-.9l.4-.8-.5-.4c-.6-.5-.7-1.3-.2-1.5.1-.1.4 0 .5.2.1.2.4.4.6.4.2 0 .5.4.7.8.2.6.2.7-.1 1-.7.5-.8 1.6-.3 1.9.6.3 1.3 2.1 1 2.5l-.6-.1zm2.9-1-.1-.9.3-.4c.2 0 .3.2.3.8 0 1-.5 1.4-.5.5zm-23.4 0c-.2-.3 0-.8.4-.8.1 0 .2.2.2.5 0 .6-.3.7-.6.3zm1 0c-.2-.3-.1-3 .2-2.9.5.2.7 1.3.6 2.3-.2.8-.4 1-.7.7zm40.5-1v-.6c.2 0 .4-.4.5-.7 0-.3.2-.5.5-.5.2 0 .3.2.3 1-.1 1.1-1 1.7-1.3.8zm12-.4c-.3-.5 0-1 .3-1 .4 0 .5.7.1 1-.3.3-.4.3-.5 0zM40 43.9l-.1-1.6c0-.8 0-1.1.4-1.1.3 0 .4.3.4 1.6 0 1.5-.3 2-.7 1.1zm62.8 0c0-.3.1-.3.2-.1v.5c-.1 0-.2 0-.2-.4zm-39.3-.6c-.5-.3-1-.8-1.2-1.2-.2-.4-1-1-1.7-1.4l-1.4-1c-.1-.5 1-.5 2 .1l2.6 1.3c1 .3 2 1 2.4 1.3 1.1 1.1.7 1.6-.6.6l-1-.5c-.1 0 0 .2.3.4.4.2.6.5.5.7-.3.4-1 .3-2-.3zm-26.2-1v-1c.3-.7.8-.3 1 .8 0 .7-.1 1-.4 1-.2 0-.5-.4-.6-.7zm-9.6-.3c-.5-.9.1-1.4.7-.7l.3.8c-.2.5-.7.4-1-.1zm22 .2c0-.1.1-.2.3-.2l.9-.2c.4-.1.6 0 .6.3s-.3.4-1 .4c-.4 0-.9-.1-.9-.3zm31 .1c-.2-.3-.1-2.4.2-2.6l1-1.2a7 7 0 0 1 1.6-1.7l1-.7 1 .2c.7.3 1.2.2 2.2 0 1.6-.5 1.6-.5 1.6.2 0 .5-.2.8-.9 1-.5.3-1 .6-1 .9 0 .2-.2.9-.6 1.6a23 23 0 0 0-.7 1.4c0 .1-1 .4-2.3.6a26 26 0 0 0-2.5.4h-.5zm3.2-1.7c.1-.1 0-.3-.3-.4-.3 0-.6-.3-.7-.6 0-.3-.2-.2-.5.4l-.5 1c0 .2 1.9-.2 2-.4zm2.5-2c0-1-2-1.2-2.6-.5-.3.4-.3.4.2.4.2 0 .6-.1.8-.3.2-.2.4-.1.6.5.3.7.4.8.7.6.2-.2.3-.5.3-.8zM36 40.7c-.2-.4-.3-1.1-.3-1.7 0-.7.1-.9.5-.8.5.1 1 2 .7 2.8-.2.5-.6.4-1-.3zm31.4 0c-1.1-.5-2-2-2-3.4 0-.4-.3-.8-.7-1.1-.5-.3-.7-.6-.6-1 0-.8 1-1 1.4-.3.3.4.4.4 1 .1a5 5 0 0 1 1.7-.3c1.4 0 3.2 1.8 3.4 3.3.1.6.4 1.3.7 1.7.3.3.5.7.4 1-.1.7-1 .8-1.4.2l-.4-.4-.5.4c-.6.6-1.8.5-3-.1zm3.2-1.9c.2-.7.2-1-.1-1.3-.5-.5-.9-.3-.4.2.2.3.1.5-.4 1-.7.6-.6 1 .1 1 .3 0 .6-.3.8-.9zm-2.7-.4c-.6-.6-.7-.9-.6-1.5.1-.7 0-.9-.4-.9-.6 0-.6.5 0 1.8.3 1 .7 1.4 1.4 1.4.2 0 0-.3-.4-.8zm7.6 2.6c-.2-.7 0-1.4.4-1.4.3 0 .4.3.4.8 0 .8-.5 1.2-.8.6zm1.8-.6c.1-.8.8-1.4 1.2-1 .3.2-.4 1.5-1 1.6-.2 0-.3 0-.2-.6zm-48.4.2c-.2 0-.3-.5-.3-.9 0-.6 0-.8.4-.7.5.1.8 1.2.5 1.5-.2.1-.4.2-.6.1zM9.3 38.1l.2-1.6c.2-.4.3-.3.2.4 0 .5 0 1.3-.2 1.6-.2.6-.2.5-.2-.4zm28.1-.5c-.2-.8.3-2 .7-2 .1 0 .3.6.3 1.3 0 1-.1 1.4-.4 1.4-.2 0-.5-.3-.6-.7zm-15-.5c0-.3.2-.4.4-.4.1 0 .3.2.3.4l-.3.3c-.2 0-.3 0-.3-.3zm5 0-.3-3.5c-.2-2.6-.1-3 .2-3 .3 0 .5.5.6 2.6l.2 3.3c0 .9-.4 1.2-.7.5zm28.6-.7-2.2-1c-.5-.5-.2-1 .5-.7.4 0 .7 0 .9-.4l.3-.4 1.1 1 1.2 1c0-.1 0-.7-.3-1.2-.5-1.2-.3-1.4.8-.8.6.3.8.4 1 .1.2-.4 2.6 0 2.6.5 0 .2-.1.3-.3.3-.7 0-2.3 1-2.3 1.4 0 .5-.6 1-1 1a12 12 0 0 1-2.3-.8zm-10.7 0c-.6-.6-.3-2.4.4-2.4.2 0 .3.3.3.8 0 .7.1.8.6.7.5 0 .6.1.6.5s-.2.6-.8.6c-.4 0-1 0-1-.2zm-9.9-2.2c-.4-.9 0-2 .8-2 .7 0 1 1 .7 2 0 .4-.3.6-.7.6-.3 0-.6-.3-.8-.6zm43-.4c0-.1 0-.3.2-.4.4-.3.7 0 .3.4-.2.2-.3.2-.4 0zm1.9-.2c-.2-.5.4-2 1-2.2.7-.4 1.3-.3 1.3.3 0 .3 0 .8.2 1 .4.7.2 1-1.2 1.2-1 .1-1.2 0-1.3-.3zM77 33c-.3-1.1-.3-2.7 0-2.9.2 0 .4.4.5 1l.3 1.8c.2.7.1.9-.2.9-.2 0-.5-.3-.6-.8zm-30.6.3-.2-.7c0-.3-.1-.4-.4-.3-.5.2-1-1-.8-1.8l.2-.7.8.2c1 .2 1.3.4 1.3 1.7 0 1.5-.4 2.1-1 1.6zm27.2-.6c-.3-.9-.5-1-1-.4-.8.7-1.3.5-1.3-.6 0-1.6 1-2.3 2.5-1.6.6.3.7.5.7 1.4 0 .7.1 1.2.3 1.3.3.3 0 .7-.5.7-.2 0-.5-.4-.7-.8zm-52.1.3c-.3-.4-.3-7.2-.1-7.2.4 0 .4.5.5 4 .2 3 0 4-.4 3.2zm67.3-1.5c-.4-.5-.9-1-1.2-1l-.5-.2.5-.5c.6-.7 1-.7.9 0-.2.5.1.7.4.3.3-.5.6-.3 1 .6 1 1.8 0 2.4-1.1.8zm-10.6-.4c-.2-.5 0-1 .3-.9.3.2.3 1.2 0 1.2l-.3-.3zm-42.5-.5c-.5-.3-.6-1.2-.3-2 .2-.4.3-1.6.2-2.6 0-1.9.3-2.4.8-.9.3 1.3.3 5.1 0 5.5h-.7zm22.6-.2c-.2-.5 0-.9.5-.9.3 0 .4.2.3.6 0 .7-.6 1-.8.3zm-1.5-1.2c-.6-.7-.3-1 .8-.8.9.1 1 0 1-.3s.3-.4.6-.4.8-.2 1-.5c.8-.6 1.3 0 .8.7l-.6.6s-.2.1-.2.4c0 .5-.4.7-1 .3-.4-.2-.6-.3-.9 0a1 1 0 0 1-1.5 0zm30 .1c-.2-.3-.1-.6.3-.6.2 0 .4.1.4.3 0 .3-.4.6-.6.3zm-60-1.2c-.3-.6 0-.9.4-.5.3.3.3.4 0 .7-.2.2-.3.2-.5-.2zm19.3.1c-.1-.1-.3-.2-.5-.1-.5.2-1-.3-1-.8.1-.4.5-.6 1-.7 1.2-.2 1.5 0 1.4 1-.1.7-.6 1.1-1 .6zm19.3-.5c-.7-.8-.1-1.3 1.2-1.3.9 0 1 0 1 .5 0 .4-.2.8-.7 1-.9.4-1 .4-1.5-.2zm21 0c0-.4.2-.6.6-.6.7 0 .6 1-.1 1-.3.1-.5 0-.5-.4zm-17.7-.3c-.4-.2-.3-1.4.2-1.4s1 1 .5 1.4c-.2.1-.5.2-.7 0zm12.4-1v-1.2l.6.6c.6.8.5 1.4-.1 1.6-.4 0-.5-.1-.5-1zm-68-.9c0-1.5.3-3.4.6-3.4.1 0 .2.8 0 1.8-.1 2-.5 3.1-.6 1.6zm76.8 0-1-.2c-1 0-1.2-.4-.3-.8a3 3 0 0 0 1.1-1c.6-1 1-1 1 0V25c0 .5 0 .7-.4.8-.2 0-.4 0-.4-.2zm-32-.9-.7-.6.3-1c.3-1.4 1-1.5 1.4-.2.2.6.4.8.7.7.2 0 .4 0 .4.2 0 .1-.2.3-.4.3-.3 0-.4.2-.4.6 0 .9-.6.9-1.4 0zm-31.4 0c-.4-.4-.1-1.2.4-1.2.4 0 .5.2.5.6-.1.6-.5 1-.9.6zm34.6-.4v-.9c.2-.7-.5-1.6-1.8-2l-.7-.3.1-1c.2-1.2 2-5 2.3-5 .5 0 .7.8.3 1.4-.2.2-.4 1.2-.6 2l-.2 1.5.7.5c.8.7 1.8 3.3 1.4 3.8-.4.4-1.2.4-1.5 0zM45 24v-2.3c0-1.6 0-2 .4-2 .2 0 .4.3.4 1 .2 2 .3 2.2 1.1 2 1-.2 1.4.4.6 1-.6.5-2.3.7-2.5.3zM63 22.3c-.4-.4-.4-.9 0-1.2.3 0 .5-.4.6-.6 0-.3.3-.4.6-.3.5.2.5.7 0 1.1-.3.2-.4.5-.4.8.1.5-.4.6-.8.2zm29.2.1c0-.1 0-.3.2-.4.4-.3.6 0 .3.4-.2.2-.4.2-.5 0zm-56.6-.7c-.3-.6 0-1.2.6-1.1.3 0 .4.3.4.7 0 .8-.8 1.1-1 .4zm-9.2 0c-.3-.2-.3-1.8 0-2 .3-.4.9.4.9 1.3 0 .8-.5 1.1-1 .7zm39.3-.3-.4-1.2c-.2-.4-.2-1.3-.1-2 0-.9 0-1.5-.2-1.8-.5-.7-.7-5.2-.2-5.3.1 0 .4.4.6 1L66 14c.4 1 .6 8 .2 8-.2 0-.4-.3-.5-.5zm-52-.8c0-.3.2-.6.3-.7.2-.1.3 0 .3.3s-.1.6-.3.7c-.1.1-.2 0-.2-.3zm22-1c-.3-.4-.1-1 .3-1 .3 0 .5.7.3 1.1-.2.3-.3.2-.6 0zm11.2-1c0-.4.2-.7.3-.7.4 0 .4 1.1 0 1.3-.3 0-.4-.1-.3-.6zm-30-2-.2-3.2-.1-2.5-.3-1 1.4-1.3c.8-.8 1.5-1.3 2-1.3.3 0 .8-.3 1.1-.7 1-1.2 5-3.2 7.3-3.5l3.4-.6h2.3c.6 0 1.2 0 2-.6A17 17 0 0 1 44.4.2h6.1c2.4 0 2.8.2 2.9.6l-.1.4h-6.8c-7.2 0-7.6.2-10.7 1.7-1 .6-1.7.7-2.3.6-1.2-.3-6.8.6-8 1.2l-2.3 1.2c-.6.3-1.6 1-2 1.7-.7.8-1 1-1.7 1a2 2 0 0 0-1.4.7l-.6.7.1 4-.1 4.3c-.1 0-.4-.7-.5-1.7zm9.7 1.4c-.2-.5 0-1 .5-1 .3 0 .4.4.4.8 0 .7-.7.9-1 .2zm8.9 0c-.3-.7 0-4.1.4-4.3.4-.1.6.7.4 2.8-.1 2-.3 2.3-.8 1.5zm9.3-1.4c0-.4-.2-1-.4-1.3-.3-.8-.3-1.6 0-1.6.5 0 1.4 2.2 1.2 3-.2.9-.6.8-.8 0zm31.5-1.1c-.2-.4.1-2.1.4-2.1.3 0 .5.7.3 1.6 0 .8-.4 1-.7.5zm-49.8-.6c-.5-.5-.4-1 .3-1 .4.1.6.4.7.7 0 .7-.5.9-1 .3zm18.1-2.5c-.2-.2-.2-1.5 0-1.9.4-.5 1-.1 1 .8 0 .7-.6 1.4-1 1.1zm29.8-1c0-1 .6-1.5 1-.8.2.6-.2 1.7-.7 1.7-.3 0-.4-.2-.3-1z"/>
</svg>
