<?xml version="1.0" encoding="utf-8"?>
<svg xmlns="http://www.w3.org/2000/svg" xmlns:svg="http://www.w3.org/2000/svg" version="1.1" viewBox="0 0 224 150">
	<title>Pigling Bland walks past a signpost down a road towards a wide gate.</title>
	<path d="M156.7 149.3c-1.4-.2-2.6-.5-2.7-.6-.5-.4.8-.7 2.4-.5l3.6.2c2.1 0 2.9.2 3.2 1 0 .3-.2.3-2 .3a41 41 0 0 1-4.5-.4zm-69.7 0c0-.2.3-.3.4-.2.4.2.3.4-.2.4-.2 0-.3-.1-.2-.3zm-3.8-.4c-.5-.5-.4-.8.6-1.7a8 8 0 0 0 1.3-1.7c1.1-2.2 4.5-6 5.3-6 .2 0 .6-.3 1-.6.7-.4.7-.5.4-.6-.5-.2-1.5.2-1.5.6 0 .1-.3.3-.6.3a4 4 0 0 0-1.7.7 35 35 0 0 1-3.6 2.2l-1.5 1 .8.5c1 .3 1 1.1.2 1.1l-1-.2a.9.9 0 0 0-.8 0h-.6c-.1-.4-2.5 1.4-2.7 2 0 .3-.7.8-1.4 1.2l-1.7 1c-.3.3-.5.3-.8 0-.4-.3-.3-.4.2-1.3.3-.6.7-1.1.8-1.1.2 0 1-.5 1.7-1.2.8-.6 1.5-1.2 1.7-1.2.2 0 .2 0 0-.2-.3-.3-5-1-8-1.3-1.8-.1-1.9-.1-1.7.4 0 .3.4.7.6.9.3.1.5.4.5.7l.3 1.5c.2.7.4.9.6.7.3-.2.5-.2.9.1.4.3.4.5.1.6-.2 0-.6.3-.8.6-.7.7-1.2.6-1.6 0l-.3-.7-.4.6c-.5.8-1.7.8-1.7.1 0-.3.1-.6.3-.7.4-.2.3-.6-.2-.7l-.8-.4c-.2 0-.3 0-.2.3.2.5-.3.8-1.7.7-.6 0-1.3.1-1.5.3-.3.2-.5.2-.8-.1-.5-.5-.3-1 .6-1.3.4-.1.6-.4.6-.9 0-1 1-1.5 2.6-1.3l1.7.4c.3.2.5.2.5 0 0-.1-.2-.3-.5-.4a5 5 0 0 1-1.3-1c-.8-.7-.8-.7-1-.2 0 .3-.3.5-.6.5-.6 0-.8-.5-.3-1.3.2-.4.2-.6-.1-.7-.4-.1-1-1.4-1-2.3 0-.2.2-.5.4-.6.6-.2 1.2.6 1.2 1.6v.8l2.4.5a70.2 70.2 0 0 0 7.3 1l4 .4 2 .2 1-1.3 2.4-3.7c2.7-4 8.8-10.7 9.7-10.7.4 0 1-.2 1.4-.5.4-.2.8-.3 1-.2.2.2-1.4 1.7-2 1.7-.5 0-4.2 3.9-5.6 6l-1.1 1.2c-.2 0-1 1.5-.8 1.7.3.2 3 .3 3 .1.2-.2.3-.1.6 0 .2.3.6.2 1.3-.3 1.1-.7 10.5-5 11.4-5.3.4-.2.7 0 .8.2.2.6-.4 1.2-1.5 1.4-1.8.3-5.9 1.9-5 2l1-.3c.6-.4 1.4-.1 1.4.4 0 .4-.4.5-2.2.8-1 .1-1.3 0-1.4-.2-.1-.4-.3-.3-1.3.1-.9.5-1 .6-.6.7.8.1 1.1.5.8.9-.6.5-.4.6 1.2.6s2.2.5.6.5l-2.2.1c-.8 0-1.3.2-1.4.4 0 .3-.4.4-.7.4-1 0-3.2 1.4-3.3 2.1-.1.4-.4 1-.7 1.3-.4.5-.5.5-.5.2-.1-.6-1.8 2-1.8 2.7 0 .6.5.8.9.4l1.1-.2c2.6 0 7-.8 7.6-1.2.5-.5.5-.5-1-.9a65.3 65.3 0 0 0-4.7-1c-.5-.1-.8-.4-.8-.6 0-.4.3-.4 1.6-.3.8.1 1.7.3 2 .5l1.2.2c.4 0 .8.1 1 .3l1.2.2c.9 0 1.2-.2 2.5-1.3.8-.7 1.5-1.3 1.7-1.3.4 0 .2-1-.2-1.2-.2 0-.3-.3-.2-.4.1-.2.2-.2.4 0l1 .3c1 0 1.2.3.7.8-.2.1-.4.4-.4.6 0 .2-.3.5-.6.5-.7.3-2.6 1.5-2.6 1.8 0 .2 1.4.5 2.4.5s3 .8 4.3 1.6c.8.6 1.4.8 3.4 1 1.7 0 2.3.2 2.3.5s-.4.3-2 .2c-2-.2-2-.2-1.6.3 1.1 1.3.1 1.2-1.2-.1-.8-.8-1.3-1-2.8-1.3-1.3-.2-1.6-.3-1.2-.5 1.4-.4.5-.8-2.6-1-1.7-.2-2-.2-2.4.2-.5.5-.5.5.2.6 1.5.2 2 .4 2 .8 0 .3-.2.3-1.4.2-1.4-.2-1.5-.1-2.4.7l-1.3 1.6c-.4.7-1.5 1-1.5.5l.9-1.2c1.7-2 1.6-2-3.6-.9l-3.8.8c-1 .2-1.5.4-2 1-.6.9-1.3 1-1.8.5zm2.7-8.6 2.2-1.3c.4-.4 1-.6 1.1-.6.2 0 .3-.2.3-.3 0-.1-.3-.3-.6-.3l-1.4-.1c-.8-.2-1 0-2 1.4-1.7 2.2-1.7 2.3.4 1.2zm27.4 8c0-.4.5-.4 3.5-.4 4.6.1 4.6.6 0 .7-3 0-3.5 0-3.5-.3zm-75.5-.8c-.3-.5 0-1 .7-1 .9 0 1.4.5 1.2 1-.2.5-1.7.5-2 0zm9.6-.4c-.2-.4-.5-.8-.8-.9-.3 0-.5-.4-.5-.7 0-.4-.1-.5-.6-.5-.9 0-1.3-.4-1.2-1.1 0-.5 0-.6-.6-.7-1.1 0-1.3 0-1.3-.4 0-.2.2-.6.4-.7.4-.3.3-.4-.4-.7-.8-.4-1-.9-.5-1.4.2-.2.1-.5-.3-1.2-.6-1-.5-2.6.3-2.6.3 0 .5.2.5.3 0 .2.6 1 1.4 1.6 1 1 1.6 1.3 2.2 1.3.4 0 1 .2 1.1.3.2.2.5.2.8.2.6-.3 0-.8-1.4-1.5-.9-.4-1.2-.7-1.2-1.2 0-.3.2-.8.4-1 .6-.4.5-.6-.3-1-.6-.3-.6-.4-.5-1.2.2-.8.1-.9-1-1.5-1.3-.7-1.7-1.2-1.2-1.7.4-.4 1.1-.2 2.7.9 1.5 1 2.3 1.1 2.3.3 0-.7.3-.7 1.8.2 1.5.9 1.5.9 3 3l1.3 1.6.5-.6c.7-1.1 1.6-.2 1.6 1.8 0 .6.2 1 .5 1.1.3.2.7.7.9 1.2.4 1.1.5 1.2 1 .4.7-.7.5-1.5-.4-2.6-.8-.9-.8-1-.2-1 .5 0 1.7 1.3 2.5 2.6.2.6.9 1.4 1.4 2 1 .9 1.1 1.4.7 1.8-.2.2-.3.6-.4 1 0 1.3-.8 1.2-2.4-.2a8 8 0 0 0-1.6-1.2c-.2 0-.4.3-.5.6-.2.4-.5.6-.8.6-.5 0-.6-.2-.6-1.8 0-1.4 0-1.8-.4-2-.3-.2-.5-.6-.5-1 0-1.2-.3-2-.8-2-.3 0-.5.3-.6.6-.3 1-1.1.6-2-.9-1.3-2-1.6-2.5-1.6-3 0-.7-.5-1-.9-.6-.2.2-.2.4 0 .8.2.3.3.6 0 .7l-.2.6c0 .3-.2.7-.6 1l-.6.4 1 .8c.5.5 1 1.1 1.1 1.4.1.4.6.7 1 .9 1.7.6 2.3 1.6 1.3 2.1-.4.3-.7.2-1.5-.4-1.3-.8-1.5-.8-1.3.3.2.7.1 1-.2 1-.8 0-2-.7-2.2-1.2-.1-.5-.7-.6-1-.2 0 .1 0 .4.4.5.6.4.4 1-.3 1-.3 0-.5.2-.5.4 0 .1.7.2 1.6.2 2.7 0 5.3.2 6.1.5.6.3.8.5.8 1.2 0 .5-.2 1.1-.5 1.3-.5.6-3 .6-3.4 0-.2-.3-.4-.3-1 .3-1.1.9-1.5.9-1.8 0zm109 .5a21 21 0 0 0-3.3-.2c-2 0-2.5-.1-2.8-.6-.3-.4-.7-.5-2.6-.6-1.7 0-2.2-.2-2.2-.5 0-.4 3.8-.5 8-.2 2 .1 2.3.2 2.3.7 0 .4.2.5 1 .6.8.1 1.1.3 1.2.6 0 .5-.3.6-1.7.2zm-3.7-1.2-.9-.1c-.5 0-.9.1-.8.2.1.2 1.7.1 1.7-.1zm-129.5.8c-1-.5-1.4-1.3-1-1.8.6-.5.4-1-.6-2-.7-.7-.9-1.1-.9-1.8 0-.8 0-1 .7-.8.6.1.6 0 .3-.2-.2-.2-.8-.4-1.4-.5-1-.2-1.2-.1-1.4.3-.2.4 0 .8 1.3 2.3 1.6 1.8 1.8 2.1 1.2 2.9-.3.5-1.5.3-1.5-.3 0-.2-.3-.7-.7-1-2-2-2.2-2.4-1.9-3.1.3-.6.3-.8 0-1-.2-.3-.3-.3-.3 0 0 .9-.5.9-1.3.1-.7-.6-.9-.7-2.3-.5-1.3.1-1.6.1-1.8-.2-.3-.8 1.4-1.6 2.8-1.4 1.2.2 1.3.1 1.3-.4.2-.9 1-1 1.6-.1.6.5 1 .6 3 .8h2.5v-.8c0-.8 0-1-.6-1-.3 0-1-.3-1.3-.7-.5-.5-1-.8-1.4-.8-.5 0-.8-.3-1.2-1-.6-1-1.1-1.1-1.5-.3-.4.6-.7.6-1.4 0-.8-.9-.2-2.4 1-2.4 1 0 2.8 1 3.1 1.8.2.4.5.6 1 .6.4 0 1 .3 1.4.8l1 .8c.3 0-.1-.8-.6-1-.2 0-.7-.6-1-1.2-.6-1-.6-1.1-.2-1.5.4-.4.5-.3 1.4.3l1 .7.1-1c.2-1 .2-1 1.2-1s1.2-.4.7-1c-.2-.5-2-.5-3.2 0-1.4.5-1.3.5-1.6-.3-.2-.7-.3-.7-.8-.3-.9.6-1.8.6-1.8 0 0-.8 2.6-2 3.8-1.9.8.2 1 0 1.2-.5.1-.4.3-2.3.3-4.3l.1-3.6-1.2-.2a31 31 0 0 0-3.3-.2c-1.3 0-2.5-.1-2.9-.3a58.6 58.6 0 0 0-8.8-.3c.2-.5 1.8-.7 7.3-.8l6.5-.3c.8-.2 1-.1 1.1.4.1.3.4.5.8.5h.6v-7.5l.2-9.3c.2-2 .1-2-2-2.1-3.2-.2-4-.4-3.7-.8.2-.2.8-.2 3.5 0h2.2v-2.6c0-1.5 0-11 .2-21 .2-18 .2-18.4-.3-18.2a4 4 0 0 1-1.5.2c-1.9-.2-2.4-.2-5 .3-2.5.5-6 .6-10.2.3l-4.4-.2c-1.7 0-2.1-.1-2.2-.5 0-.4.5-.4 6.2-.3 8.3.2 7.7.2 11.3-.4 2.2-.4 3.7-.5 4.7-.4l1.6.2V39.3c-.4-.2-13.3 1-15.1 1.5-1.6.3-7.4.8-8 .6-1-.4-.4-.7 1.4-.7 1.7 0 4.8-.3 12.3-1.4l5-.6c2.8-.1 4.3-.5 4.5-1.1v-9c0-4.8.1-9.7.3-11 .2-2.2 0-2.6-.6-2a6 6 0 0 1-1.4.5l-2.5 1c-1.3.7-1.6.7-6.5.8H8.4l-3.8 1.3c-2.7.8-3.9 1.1-4 1-.3-.3-.1-.4.4-.6l1-.3.7-.3A33.4 33.4 0 0 1 16.2 17c2.2 0 2.5 0 4.2-.9 1.9-1 2.9-1.6 2.7-1.8l-2.5-.3A143 143 0 0 0 9 13.4l-8.8-.2c-.1 0-.2-.3-.2-.7V11c-.1-.6-.1-.7 1.3-.6l7 .2c3.7 0 5.5.1 5.8.4.2.1 1 .3 1.8.3l3.3.1H23l1.7-.2V5.7L24 6c-1 .3-20.5.2-21.5 0-.8-.3-1.3-1-1-1.4a43.3 43.3 0 0 0 11.7.6c6.2 0 9 0 9-.2.2-.2.5-.5.8-.6.5-.3.6-.6.6-1.2 0-1.2.5-1.8 1.6-1.9h1v1.2l-.3 7c-.2 7-.2 4-.2 30.1-.1 61.8-.1 66.2-.6 75.7-.1 2 0 2.5.7 2.5l.3-3.2c.3-5 .5-6.8.7-6.8.2 0 .3.4.3 1 0 .5 0 .8.2.7a145.3 145.3 0 0 0 0-15c.2-.8.6-10.1.6-15.6a2003.6 2003.6 0 0 0-.3-31.8c0-1.8.2-2.8.8-2.8.5 0 .5.2.5 1.9l.2 3.5v9.1c-.1 1.1-.2 5.2-.1 9.2V93c-.2 3.7-.2 20.9-.1 27.1 0 2.2 0 4.6-.2 5.4a6 6 0 0 0 0 2.4v1.4l-.4 1.2c-.1.8 0 .9.4.9.8 0 3.1 1 3.1 1.5s-.8.8-1.6.6c-.4-.1-1-.2-1.3 0h-.6v3.9c.1 3.6 0 3.9-.4 4.2-.7.5-.7 1-.1 1.3.4 0 .5.4.5 1.8 0 2.6 0 2.7-2.3 2.8-1.3 0-2.3-.2-2.8-.4zm.7-3.7-.3-.6c-.2-.4-.2-.3-.2.2 0 .3 0 .6.2.6s.3-.1.3-.2zm1.4-2.6c-.2-.5-1.2-.5-1.3 0 0 .2.1.4.5.4.8.2 1 0 .8-.4zm.8-8.3c.3-.3.4-.7.3-.8-.2-.2-1.2.8-1.2 1.2 0 .5.4.4.9-.4zm-.2-13.6v1-1zM6 11.3c-.8-.2-1.2-.2-1.4 0-.2.3 0 .3 1 .3h1.3Zm-3.6-.1h-.8c-.3 0-.1.1.3.1s.7 0 .5-.1zm1.7 0h-.5c-.2 0-.2.1.1.1.3 0 .5 0 .4-.1zM42 147c-1.2-.6-1.5-1-1.1-1.4.1-.2.4-.2 1.2 0 .8.2 1 .2 1.1-.2.4-.6.8-.5 2 .5 1.1 1 1 1.5-.3 1.4l-1.4.1c-.2.1-.9 0-1.5-.4zm16.6.1c-.2-.4-.2-.6.1-1 .7-1 1.4-.6 1.4.9 0 .5-.1.6-.6.6-.3 0-.7-.2-.9-.5zm-26-.3c-.3-.5-.4-2.1-.4-5.8l-.2-18.8-.3-56.7c-.2-42.9-.2-49.6-.5-49.8-.2-.2-1 .4-1 .8 0 .1-.1.4-.4.7-.6.7-1 15.5-.6 23l-.1 2c-.2 1.4-.3 1.6-.7 1.5-.5-.1-.5-.4-.6-3.5l-.1-6.7c-.1-4.3-.2-23.6 0-28.6 0-3.5 0-3.7.6-3.7.5 0 .5.1.4 3.5a171.2 171.2 0 0 1 0 7c0 .1 1.5-.3 3.1-.9a73.5 73.5 0 0 1 11-3 1705.4 1705.4 0 0 1 15.4-4.6C67 .2 69.7-.5 69.7.3c0 .5-1.5 1.2-3.3 1.5l-2.9.8-3 1a68 68 0 0 0-6.2 1.7c-.5.2-.4.2.8.1 1.5 0 2.5-.4 8.4-2.1l5.9-1.7c1.5-.5 3-1 3.2-1.2.4-.4.6-.4 1-.2 1 .6.6 1-1 1.6a33.4 33.4 0 0 1-4.3 1C68 3 66 3.6 64 4a36 36 0 0 0-6.2 1.8c-.8 0 4.5.9 6 1 .6 0 1.6 0 2.1.2.7.1 1.4 0 3-.5 3.2-1 6.6-1.7 6.7-1.5.2.4-.8.7-3.2 1.2-4.7 1-7.8 3.3-4.4 3.3.8 0 1.8.3 2.7.7l2.1.8c2 .2 3.1.8 4.1 1.9.8.8 1.2 1.1 1.8 1.1.4 0 .8-.2 1-.4 0-.2.8-.3 3-.4 3.3 0 4.2.4 1.6.7-3.8.4-4.3.4-4.3.6 0 .3 2.2 1.4 2.8 1.4.8 0 3.7-1.5 4-2.1.2-.4.6-.6 1-.6.5 0 1 0 1-.2.4-.4 1.5-.6 1.5-.4 0 .3-4.6 2.7-5.1 2.7l-.7.4c-.5.6 0 1 1.4 1.2.7.2 1.6.5 2 .8.3.3.8.5 1 .5 1 0 2.2.6 2.2 1l-.1.4c-.4 0-3.5-1.2-4.4-1.7-.7-.4-1.7-.7-2.2-.8l-1.3-.3c-.4-.2-.4 0-.4.6s0 .7-.6.7c-.5 0-.7-.1-.7-.5v-1c0-.5-2.9-2-3.7-2l-1.3-.7c-.5-.4-1.4-.9-2-1l-3.2-1.6c-1.7-.8-2.3-1-3.3-1-1.5.1-1.4.1-.9 2.9.4 1.6.4 1.7-.1 2-.4.3-1 .4-2.1.3a109 109 0 0 1-7.2-1l-6.2-.5a244.9 244.9 0 0 1-12.9-1l-3.4-.3-1 .6c-1.1.6-1.1.7-1.3 2.5-.1 1-.3 6.5-.3 12.2l-.2 10.4h1.2a74.4 74.4 0 0 0 18-2.5c.3-.3 1.2-.6 2-.8a30 30 0 0 0 9.6-4c.2-.3.4-.4.6-.2.5.4 4.6-.7 6.7-1.8 1.6-.9 2-1 6.3-1.3 5-.4 13.9-.8 14.3-.6.5.3-3.8.8-5.3.7-1-.1-2.3 0-3.2.1-.9.2-3.3.4-5.3.5-3.8.1-5.5.5-6.7 1.4-.4.3-1 .5-1.3.5-.3 0-.8.1-1 .3L67 31c-.4 0-1 .3-1.1.5l-.8.4c-.5 0-7.4 2.3-10.5 3.4-4.8 1.8-8.9 3-10.5 3.1a85.3 85.3 0 0 0-11 1.2l-.6.1v7.4l.3 7.6c.2.3 2.1.4 2.9 0 .7-.2 1-.2 2.2 0 2 .5 6.8.8 7.4.5A69.3 69.3 0 0 0 56 52.7c1.4-.5 3-.8 2.7-.4-.3.3-6 2.3-7.4 2.6-1.6.3-.2.5 4.3.6a149.5 149.5 0 0 1 9.4.3c.4 0 2 .3 3.4.7 2.2.5 2.9.8 3.9 1.7 1.7 1.4 2.3 1.6 3.2 1.4.6 0 1 0 1.1.3.5.5 2.8.2 4-.7l2.6-1.3 4-2a8 8 0 0 0 2.4-3.3c.7-2 2.3-3.4 4.9-4 1.2-.2 1.4-.4 1.4-1 0-.3.2-.7.9-1l1-.8c0-.2-1.6-.8-2.6-.9-.8-.1-.5-.6.6-.7.5 0 1 0 1.4.4.8.7 1.6.5 5.1-1 2-.8 9.3-1.6 11-1.1 1.4.4.3.6-2.7.6a24.7 24.7 0 0 0-10.2 2l-2 1.2c-1.2.6-1.5 1-1.7 1.6 0 .5-.3.9-.5 1-2 .5-4.2 1.5-4.6 2-.3.3-.8 1-1 1.7a8 8 0 0 1-1 1.7c-.6.7-.2 1 .7.6.7-.4 6.4-1 7-.8 1 .4.2.6-2.7.7a11 11 0 0 0-4.1.7l-1.5.6-2.1.9c-1 .5-2 1-2.4 1-1 .4-2.7 1.5-2.5 1.7l8.5.3 10.3.2 2 .2.1.9c.1.6 0 1-.2 1.1-.7.5 0 .6 2.3.6 1.8 0 2.4-.2 2.7-.5.3-.4.4-.4.7 0 .2.3 1.1.4 4.6.6l4.3.2v-.8c.2-1 .8-1.1.8-.2 0 .7.5 1.2.7.7 0-.2.5-.3.9-.3a28.3 28.3 0 0 0 8.2-2.3c1.2-.2 1.5-.5 2.1-1.9.8-1.8 1.8-3 2.6-3 .6 0 .8.3 1.7 2.2l1.1 2s.9 0 1.8-.3c1-.2 2.4-.5 3.2-.5 5.2-.5 5.7-.6 5.7-1.4 0-.7.6-1.7 1.2-1.8.3-.2.7.1 1.5 1l1 1 2.2-.1c2.5-.2 8.6-.8 11.6-1.3l8-.9c.7 0 2.7-.4 4.3-.8a32 32 0 0 1 8.9-.6h9.2v-2.2c0-3 .2-5.3.5-6 .2-.3.4-2 .6-3.8.2-3.6.5-4.5 1.4-5.4l1-1.1c.3-.4.8-.6 1.3-.6.7 0 4-1.7 4-2.1l-.9-.5c-.4-.1-.8-.5-1-.8 0-.7 0-.7-1.3 0-1.2.5-2.5.7-2.8.2-.1-.2-.3 0-.5.3-.2.5-.6.7-1.3.7a3 3 0 0 0-1.7.8l-1.2.8c-.3 0-.5.3-.5.6 0 .6-.6 1.1-2 1.7a9 9 0 0 0-3.3 3.1c-.7 1-3.1 1.3-3.1.3 0-.5-.6-.3-3.3 1a15 15 0 0 1-3.4 1.2c-1 .2-1.2.1-1.5-.4-.2-.4-.5-.5-.8-.4l-2.6.2c-1.7 0-2.3 0-2.4-.3 0-.3-.2-.2-.7.2-.8.7-2.2 1-4.7 1.3-1.3.2-2.3.4-2.6.7-.6.5-3 .6-4 0-.6-.3-1-.3-1.4-.1l-1.7.3c-1 0-1.8.3-4.2 1.5-1.1.5-1.4.6-1.8.3-.7-.6-.5-1 .4-.9.7.1 1 0 1.2-.4.3-.3.6-.6.9-.6.2 0 .7-.1 1-.3a12 12 0 0 1 2.7-.8l2.4-.7c0-.2.3-.4.6-.6.5-.2.6-.1 1.1.4.5.7.7.7 1.3.5.4-.2 1.4-.3 2.2-.3 1 0 1.5-.1 1.8-.5.4-.4.8-.6 1.8-.6s1.5-.1 2-.5c1.3-1 1-2.1-.5-2.1-.5 0-.8-.1-.7-.3.2-.5 3-.6 4.3-.2.8.3 1 .5 1.1 1 .1.3.4.5 1 .6l2 .5c1.2.2 1.4.2 2-.3.8-.5 5-1.6 6.3-1.6.3 0 1.5-.5 2.6-1.2 1.5-.9 2.1-1.5 2.8-2.5 1-1.6 1.3-1.8 2.2-1.8.3 0 1-.4 1.6-.8l.9-.8h-1.2c-.9 0-1.5.2-2.1.6-.7.5-1.1.7-1.6.6-.4-.1-.9 0-1.2.2-.3.2-.8.4-1.1.4-.4 0-.9.3-1.2.7-.5.6-.7.7-1.6.5-.7 0-1.4 0-2 .2-.6.3-1.7.5-2.7.6-1 .1-1.8.3-1.9.5a48.1 48.1 0 0 0-3.1.7l-3.9.5-4.8.2c-1.7 0-3 0-3.5-.2s-1-.2-1.9 0c-.6.2-2 .5-3.1.6-2.8.3-5.7 1-7.5 1.7-.8.4-1.9.6-2.4.6-1.2 0-4.4-.9-5.2-1.5-.5-.4-.9-.4-1.8-.2-1 .1-2 .1-5-.3-.8 0-1-.2-.7-.6.1-.2.8-.3 2.1-.2h3c.8-.1.8-.2.8-1.2-.1-1-.2-1.1-.6-1l-1.7.2c-.7 0-1.4.4-1.7.6-.3.3-.9.6-1.3.6-1.3.3-4.5.2-5 0-.6-.4-.7-1.3-.1-1.6.8-.3.3-.5-1.3-.5-1.4 0-1.8 0-2.4.7-.7.6-.8.6-3.4.6l-4.1-.2c-1.3-.2-1.4-.2-1.4-1 0-.3-.2-.8-.4-.9a3 3 0 0 1-1-1.5h.3c.2 0 .4-.1.6-.4.2-.4.4-.5 1-.4.5.1 1 0 1.4-.2.4-.3.7-.4 1-.2.3.2.6.1.8-.2l.6-.3 1-.6c.7-.6 1.8-.7 1.8-.1l-.5 1c-.7.9-.2 1.2 1 .6.8-.4 4-.6 4.2-.2 0 .1-.1.4-.4.7-.6.5-.5 1.2.1 1.2.5 0 3-1.8 3.2-2.3.2-.5-1.1-.4-1.4.1-.4.7-1.7 0-1.7-.8 0-.6.1-.7 2.4-.8 1.7 0 2.3 0 2.6.3.3.4.5.4 1.3.2 1.4-.4 1.9-.2 2 .6 0 .5.3.7.6.8 2.5.3 4.3 1 2.7 1.1h-.6l.6.5c.3.2.6.5.6.7 0 .3.2.6.4.8.3.3.3.5 0 1-.2.3-.1.5.4 1.1.3.4.8.7 1 .7.4 0 .6.1.7.3l1.4.8c1 .4 1.3.4 1.8.2a119.8 119.8 0 0 1 4.9-2.2c2-1 3.4-1.3 6.1-1 3.2.3 9.5.3 10 0 .1 0 0-.4-.4-1.1l-.6-1-1.8.2c-1.5.1-2 0-2.9-.4-.5-.3-1.3-.6-1.7-.6l-2.2-.4c-1.4-.4-1.6-.4-2.2.1-.9.6-2.5 1.4-4.7 2.3-1.3.6-1.7.6-2.2.4-.5-.3-.8-.3-2 .2-1.6.7-3.3.8-3.5.2-.1-.3 0-.6.1-.7.5-.6.4-.8-.6-.8-1.4 0-1.6-1-.2-1.2h.6l-.5-.4c-.3-.1-.6-.4-.6-.8 0-.5 0-.5-1.3-.4-1.2 0-1.4 0-1.5-.4-.1-.5 0-.5 2-.5h2.6c.2 0 .4-.5.4-1.2 0-1.2.2-1.3 1-1.7.5-.3.8-.5.6-.5-.4 0-.9-.9-.6-1.3.2-.3.4-.3 1.4 0 .7.3 1.3.4 1.7.2h2.5l2 .1-.5-.6-.5-1c0-.5.7-.4 1 0 0 .3.2.5.5.5.4 0 .5-.4.1-.7-.1 0-.3-.3-.3-.5 0-.3.4-.4 1.6-.4 1.3 0 1.7 0 1.9.5.6 1.1 5 1.8 4.6.7-.1-.3 0-.4.6-.4.9 0 1.4.4 1 .8-.2.1-1 .4-2 .5l-2.1.5-1.2.2a28.5 28.5 0 0 0-8.3 1.7l-1 .5c-.4 0-2.7 1-2.7 1.2l.5.7c.8 1 5.5.6 4.9-.3-.2-.4-1.1-.3-1.8 0-.7.4-.9.1-.4-.5.3-.3.5-.6.5-.8 0-.4.6-.4 2.1.3 1.5.6 1.8.5 1.3-.3-.1-.3-.2-.8-.1-1.1.1-.4.3-.5 1-.4.3.1 1 0 1.6-.2l1-.2c0 .1.7.1 1.6 0 2-.3 3.8 0 4.2.4.4.5 1.8.5 2 0 .1-.2.4-.3.7-.2.5 0 .7 0 .8-.3 0-.2.4-.4.7-.4.4 0 .5-.2.5-.5 0-.5-.3-.7-1.8-.9-.3 0-.6-.2-.6-.3-.1-.5 1-.5 2.5 0l1.5.4 1-.9c.8-.8 1-.8 3-.9 1.4 0 2.2-.1 2.8-.4.7-.4 1-.4 1.4-.2.8.4.7 1.2-.4 1.9-.8.5-.9.7-.7 1.5.1.6 0 1.2-.6 2.2-.4.7-.6 1.4-.5 1.5 0 .2.5.3 1 .4 1.7.3 12 .4 12.2.2 0-.2-.7-.3-1.6-.4-2.2-.2-2.5-.3-2.5-.7 0-.1.5-.3 1.2-.3 1 0 1.3 0 1.6-.6.5-.8 1.4-1 1.4-.2 0 .7.4 1 1 .6.8-.4 2 0 2 .5 0 .3.1.5.4.5.5 0 .5-.7-.1-1-.4-.2-.4-.3 0-1l.5-.6h-2v-2.2c-.1-1.3-.2-2.2-.4-2.3-.6-.4 0-.8 1-.8.5 0 .8.1.8.4 0 .3.3.4 1 .4.8 0 .9 0 .8.6 0 .4-.3.6-1.1.9-.6.1-1 .4-1 .6 0 .4 0 .4 2.2 0 1-.2 2-.2 2-.1.6.3.3 1-.6 1.3-.5.3-.9.6-.9.9 0 .2-.1.6-.3.7-.5.5 0 1.2.6 1 .9-.2 1-.4.4-.7-.9-.4-.5-.8.8-.6.9 0 1.2 0 1.3-.3.1-.3.4-.3 1-.2.7.1 1 0 1.2-.3.2-.5 2.1-1.2 2.5-1l.2.8c0 .5-.2.7-.8.8-.5 0-.9.3-1 .4 0 .1-.4.2-.9.2-.4 0-.8.2-.9.4 0 .3 0 .4.5.4.3 0 .7.1 1 .3.2.1.6 0 1.1-.5.6-.5 1-.6 1.7-.5.5 0 1 0 1.6-.4.8-.4.9-.6.7-1.3-.2-.9.1-1.3 1-1.3.4 0 .8-.3 1.1-1l.5-.8-.7-.6c-.5-.4-.7-.8-.7-1.4 0-1 .4-1.2 2-1.2 1.1 0 1.4-.4.6-1-.5-.2-1-.3-1.8-.2-1 .2-1 .3-1 .8.1.3 0 .9-.3 1.4-.4.6-.5 1.2-.5 1.8 0 1.2-.6 1.5-1 .6-.3-.7-1.8-1.3-2.3-.8-.2.2-.2.4 0 .6.3.3.3.5 0 .9-1 .9-2 .2-1.6-1.3.1-.8 0-1-.2-1-.3 0-.6-.2-.8-.4l-1.1-.8c-1.3-.5-1.8-1-1.7-1.6 0-.5.4-.5 2.4-.2 1 .2 1 .1.9-.3-.6-2-1-3.5-1-4.1 0-.6.1-.8.6-.8.6 0 1.1.6.9 1-.3.4.4 3 1 4.3l.5 1.1.6-.6c.7-.7.6-1-.3-.8-.6.1-.7 0-.6-1 0-.7 0-1.8-.2-2.5-.2-1.2-.1-1.4.4-1.8l.5-.8.4-.7c.3-.3.5-.8.5-1.3.2-1 .4-1.4 1.2-1.4 1 0 2.7-.5 2.7-.8l-.6-.2c-.8 0-1.5-.3-1.5-.6l.4-.6c.3-.3.8-.4 2.2-.3l2.3.3c.5 0 .6 0 .6-.3 0-.2-.3-.5-.8-.6-.9-.1-1-.7-.3-1.6l.5-.6.3.8c.4 1.1 1 1 1.6-.1.3-.8.4-1 1.2-.9.6 0 .9.3 1 .8 0 .4.4.7 1 .9.4 0 .8.3.8.5 0 .6-.8 1-1.7 1.1-1.3.1-2.5.4-2.8.8l-.7.4c-.2 0-.3 0-.3.2 0 .4-1 .8-3 1.4-1.2.2-2.4.7-2.8 1-.7.5-.7.7-.5 1.7l.2 2.2c0 .6.1 1.4.3 1.9.2.7.4.8 1.3.8 1 0 1.3-.4 1.3-1.7 0-1 .4-1 1.7 0 1.5 1.2 1.8 1.7 1.8 3.2 0 .7 0 1.2.2 1.3.4.3 2.7-.2 2.8-.5.1-.2 0-.7-.4-1.1-.7-.8-.7-1.7-.1-1.9.5-.2.9.3.9 1.2 0 .6.2.8 1.1 1.5.5.3.5.4 0 1.4l-.3 2.4c0 1-.1 1.2-.7 1.4a7 7 0 0 1-2 .2l-1.3.2V24c.5 2.3.5 2.2-.4 2.1-.4 0-1-.3-1.3-.7-.5-.6-.6-.6-1.5-.2-1.3.6-1.3 1.1-.1 1.1.5 0 1 .2 1 .3 0 .1.1.2.3.1.6-.2 2 .4 2 1-.1.2-.4.3-1 .3-.4 0-1.1.1-1.6.3l-1 .4c-.2 0-.4.1-.4.3 0 .1.2.3.4.3.5 0 .5.4 0 .6-.2 0-.4.4-.4.8 0 .8.8.9 2 .2.5-.3.8-.4 1.2-.1.4.2.6.2 1-.1.2-.2.8-.4 1.2-.4.4 0 .7-.1.6-.3l-1-.2c-1 0-2-.6-1.7-1 .1-.2.4-.3.7-.3.2 0 .7-.1 1-.4.7-.4.7-.4 1.4.2.8.8 1.3.9 1.3.2 0-.3-.1-.6-.3-.6-.1 0-.4-.3-.5-.6-.4-.8 0-1.6.7-1.4.4.2 1-.5 1.2-1.3.1-.7.8-.8.8 0 0 .5 0 .5.2 0 .4-.6.7-.5 1.8.4.5.5 1 .8 1.1.8.2 0 .3.2.3.4 0 1 2.8-.1 3.3-1.3.4-.9 1-.7 1.2.4.1 1.8-.8 2.9-2.6 2.9-.4 0-.8.2-1 .5-.4.6-1.4.7-1.4.2 0-.6-1-1.5-1.5-1.5-.2 0-.5.2-.5.5-.4 1.2-.8 1.6-1.6 1.8-.7.1-1 .3-1 .8 0 .3-.1.7-.4 1-.7.4-3 4.8-3 5.6 0 .3.2.7.4.9.2.1.5.9.6 1.6.4 2 .7 8.3.4 8.5l-.6 1.6c-.2.8-.5 1.9-.8 2.4-.3.6-.5 1.5-.5 1.9l-.4 2-.4 2.6c0 1.4-.3 2-1 1.8-.4 0-.4-.3-.4-1.7 0-.8.3-2 .5-2.5l.4-2c0-.6.2-1.5.5-2.2a20.6 20.6 0 0 0 1.2-10.6c-.2 0-.6-.2-.9-.5-.5-.6-.5-.6-1.5 0-1 .3-1 .5-1 1.5l-.2 1.3.1 1c.2.5 0 1.3-.3 2.6-.5 1.4-.6 1.9-.3 2.1.3.4.4 1.3 0 1.7-.2.2-1 2.7-1.2 4-.2.8.6-.6 1.3-2.4.2-.5.6-1 .8-1 .6 0 .5.5-.3 2.6-.3 1-.6 2-.5 2.2 0 .3.1.3.1 0s.3-.5.5-.5c.5 0 .5 0-.4 3.2-.7 2.4-.7 2.4.1 2.2.7-.2.7-.2.5.7-.3 1.6-.2 2.4.7 3.3.5.5 1.5 1.2 2.2 1.5l1.5.9c.3.4 1.3.5 1.3.1l-.8-1c-.9-.8-1-1.4-.2-3.4.3-.7.5-2 .5-3.5 0-2 0-2.4.4-2.4.7 0 .8 1.3.5 5.3-.2 2.8-.2 2.9.5 3.7.8 1 .8 1 .3 1.7-.6.8-.5 1.4.2 1.2.8-.1 1.3.5 1.2 1.3-.1.8-1 1-2.2.4-.6-.3-1.2-.4-1.8-.3-1 .2-1.4-.1-.8-.7.5-.6.3-.9-1.2-1.7-1.5-.7-1.8-.5-2 1l-.2 1h1.2c.7 0 1.2.2 1.3.4.2.5-.3 1.5-.8 1.6l-1.2.5A24.8 24.8 0 0 1 195 75c-4.5 0-5.8.1-8.3 1.3-2.2 1-2.9 1.6-3 2.6 0 .7 0 .9.6 1 1 .2.8.6-.2.6-1.1 0-1.6-.4-1.6-1.5 0-.6.3-1 1-1.7 3-2.5 5.1-3.2 10.2-3.3a38 38 0 0 0 4.5-.2c.3-.1 1 0 1.4.1.6.2 1.1.2 2.9-.4 1.2-.4 2.4-.8 2.6-1 .5-.4.5-.5 0-.9a1 1 0 0 1-.2-1l.2-1.2c0-.4 0-.8.2-1 .1 0 .3-.3.3-.6 0-.6-.1-.6-7.5-.4a38.4 38.4 0 0 0-15.2 2.2c-.2 0-.6.5-.9 1-.4 1-.7 1.2-2.3 1.8a28.2 28.2 0 0 1-9 1.9c-1.2.2-1.4.2-1 .6.3.5 0 .7-1.4 1.1-3 .8-4 1.4-4.4 2.2l-1 1.8c-.3.6-.4 1.2-.3 1.8 0 .5 0 1.2-.3 1.7-.5 1-.5 1 0 2.5.3.8 1 2.2 1.6 3.1 1.6 2.3 1.8 3.2 1.6 5.3l-.2 1.8-1.6 1.2c-1.7 1.2-2 1.5-1.6 1.7.2.2 2-.6 5.8-2.7l2.4-.8a4 4 0 0 0 2-1c1-.9 1-1 .6-1.7l-.4-1.1c0-.8.8-1.8 2-2.3.8-.5 1-.6.8-1.2-.1-.4 0-.9.1-1.2.4-.8 2.9-2.6 3.5-2.6.4 0 1.5-.4 2.6-1 1.8-.8 1.9-.9 1.5-1.4-.6-.6-.6-.8 0-.8.7 0 1.4.8 1.1 1.3-.3.7-2.3 1.8-4 2.3l-2.7 1.3c-1.2.9-1.2 1-1.2 2.2 0 1.3 0 1.4-.9 1.6-.5.2-1.1.6-1.4.9-.4.4-.4.6-.1 1.8.3 1.3.3 1.4-.2 1.9-.6.4-.8 1.2-.3.9l2-.5c2-.2 6.2-1.4 6.2-1.7 0-.2 2.3-1.1 2.9-1.1.7 0 .1.4-1.4 1.2-.9.5-3.1 1.2-5 1.6a1061.7 1061.7 0 0 0-9.2 2.2c-.6.1-2 .7-3.3 1.3l-2.1 1h2.7a35 35 0 0 0 4.3-.5c3-.6 7.3-1.6 9.7-2.5 1.8-.6 2.7-.8 3.1-.6.7.2 1 .6.7 1-.2.2-2.6.8-3.5.8-.3 0-.9.3-1.2.6-.5.4-.7.5-1 .2-.3-.2-1-.1-3.7.5a74 74 0 0 1-5.7 1.2c-1.7.3-2.5.5-2.7.8-.3.6-2 .6-2.8 0-.5-.4-.6-.4-.6 0l.4 1.3c.5.9.5 1.9-.3 6.8a17 17 0 0 1-.7 3.4c-.3.3.5.8 1.3.8l.9.4c.2.2 1.3.5 2.4.8 1 .2 2.7.8 3.6 1.2 1.7.8 5.4 1.8 8.1 2 1 .2 1.6.4 1.7.6 0 .2 0 .3-.2.3l-.3.2c0 .2.9.4 2 .6 2 .4 3.2.9 3.5 1.4.4.8 2.9 1.6 5.5 1.8 3 .3 4.4.8 4.4 1.5 0 .4.4.6 1.9 1 1.3.3 2 .3 2.2.1.2-.2.4-.1.5.2 0 .2.3.3.4.2.3-.2 1.3.5 1.3.9 0 .1-.2.4-.4.4-.5.2-4-.4-5.2-.9a7 7 0 0 0-2-.2c-1.5 0-2.1-.4-1.7-1 .5-.5 0-.7-2-1-.9 0-2.2-.4-3.1-.8-1.2-.6-2-.8-3.7-1-1.7 0-2.1-.2-2.2-.5 0-.3.2-.5.5-.6 1-.4.8-.4-4-1.3-3-.6-5-1.2-5.5-1.8l-1.4-.8a4 4 0 0 1-1.2-.7 2 2 0 0 0-.9-.4c-4-1-5.1-1.3-5.2-1.5-.2-.4-1-.3-1.3 0-.2.3-.3.7-.2 1 .1.4 0 .8-.6 1.3-.4.4-1.4 1.6-2 2.7a12 12 0 0 1-2 2.3c-.3.2-.6.7-.6 1 0 .3-.2.8-.4 1-.6.4-1.5 2.6-1.3 2.9.1.1 0 .4-.3.6-.3.2-.5.7-.5 1.8 0 1-.2 1.7-.6 2.1-.6.8-1.5 2.7-2 4.2-.5 2.1-.3 2.2 5.4 2.5l4.5.4c1.1.2 1.1.2.4.4h-3.4c-2.8-.1-3.5 0-8 2-1.3.5-1.8.6-2.3.1-.3-.3-.7-.4-1.1-.3-.7.2-1.3-.3-1-1 0-.2.2-.4.3-.4l1.2-2.2c.7-1.8 1-2.7 1-4.7.3-2.5 0-3-.6-1.6l-1 1.4a2 2 0 0 0-.6 1.3c0 .9-1 1.4-1.5 1-.6-.5-.4-1.4.6-3.3s1.2-3.3.6-5.2c-.4-1.2-.6-1.2-1.2-.3-.2.3-.6.6-1 .6-.2 0-.4.2-.4.5l-.2.7c-.5.5-1 4.4-1 7.6 0 2.9 0 3.3-.5 3.3-.2.1-.4.3-.4.5 0 .8-.7 1.7-1.5 2-.4 0-1 .3-1.2.4-.3 0-.5 0-.6-.4-.1-.5-.3-.6-.6-.4-2.1.8-2.5.3-1-1.5 1-1.2 1-1.2 1-5.8-.1-2.3-.2-3.1-.5-3.3-.3-.2-.6-1-.8-2-.2-1-.7-2-1.3-2.7a9 9 0 0 1-1-1.7c-.3-.7-1.2-1.2-1.7-.9-.3.3-.4.2-.4-.2 0-.6-.7-2.2-1-2.2l-.6.5c-.6.5-3.2.8-4 .4l-2.3-.8c-1-.2-2-.6-2.2-.7-.5-.4-1.2-1.7-1.2-2.2l-.6-1.1c-.4-.7-.5-1.2-.5-3.1 0-2.8.1-3.8.9-4.6.6-.5 4-1.6 5.1-1.6.6 0 .9-.4.4-.6l-1.4-1.6c-.6-.8-1.3-1.8-1.6-2-.3-.4-.5-.6-.8-.4-.2.1-.7.3-1.2.3-.7 0-1 0-1.2-.7V100c.8-2.3 2.9-1.7 5 1.4l1.2 1.7c0 .4.8 1 1 .8 0 0 0-.3-.4-.5-.5-.4-.5-.7-.5-7v-6.8l1-1.5c.4-.9 1.5-2.2 2.2-3a7 7 0 0 0 1.4-1.6c0-.1-.3-.5-.8-.8-1.6-1.2-2-3.4-1.1-6.7.4-1.8.8-4 1-7 .2-1.3 0-2-.3-2.9-.2-.7-.5-1.2-.6-1.2-.4 0-.6 2.6-.3 3.2.2.4.2.7 0 .9-.1.1-.3 1-.3 1.8 0 1.2 0 1.6-.5 1.8l-4.2.2c-4 0-4.4.2-3.7 1.4.3.5.4.5 3.6.4 3-.2 3.4-.3 3.9-.8.4-.4.5-.5.7-.2.2.4 0 1.9-.3 2.2h-1c-1.2-.3-5-.4-12.5-.4-5.2 0-6 .2-6 .5 0 .2.1.4.3.4l.7.4c.3.3.8.4 2.8.3 3-.2 2.6-.2 4.7 0 1.7.1 1.8 0 2-.4.1-.8 1-.7 1.1 0 .1.5.3.6 1.3.6 5.6.1 5.6.1 6 1.1 0 .5 0 .7-.6.9l-1.2.5-1 .6c-2.8 1.2-4.2 2-4.3 2.4-.1.3-.4.5-1 .5-1 0-3 .4-4 .8-.4.2-.6.2-.8 0-.5-.4 0-.8 1.3-1 .7 0 2.4-.7 3.9-1.4a90 90 0 0 1 5.5-2.6c1.1-.6 1-.8-.4-.8-.3 0-3 0-5.7-.2-4.9-.1-8.9.2-9.8.7l-3 .5c-1.3.2-2.5.5-2.7.7-.2.2-.8.4-1.8.4-1.4 0-1.6-.1-1.5-.5 0-.3.6-.6 2.2-1l3-.4.8-.2c0-.3-.6-.4-2.6-.7-.5 0-1.6 0-2.4.3-.8.2-2 .3-2.8.3-.8 0-1.5.2-1.6.3-.2.4-1.6.3-2-.2-.6-.8-2.8-2-5.5-2.9-3.4-1.2-3.3-1.2-3.3 0 0 .8.4 1.4 1.2 2.3 1 1.2 1.3 2.1.8 2.1-.4 0-1-.5-2.2-2-.8-1.1-1-1.5-1-2.7 0-.8-.2-1.6-.4-2l-.5-.7-.8.8c-.5.6-.7 1-.5 1.4l.2 2c0 1 .2 1.5.5 1.7 1 .6.7 3.1-.4 3.1-.5 0-.5-.1-.4-.8.1-.5 0-.8-.3-.8s-.4-.6-.5-3c0-2.5 0-3.1.5-4 .5-1 .5-1.3.2-2-.2-.5-.6-1.1-1-1.4a9.2 9.2 0 0 0-2.7-1.7c-.1 0-.2.8-.2 1.8 0 1.4-.2 2-.7 3.1a6 6 0 0 0-.7 3.4 7 7 0 0 0 .4 2.8c.2.4.4 1 .3 1.3-.1.2 0 .6.4 1 .3.2.5.6.5.8 0 .5-1.2.4-1.8-.3-.5-.6-.6-.8-.4-1.3.2-.4.2-1-.1-1.8-.3-.8-.3-1.9-.3-3.2.2-2.3-.2-3.7-.4-1.8l-.3 3.5c-.2 2.5-.4 3.1-.9 2.5-.2-.2-.2-1 0-2.2.3-2.6.6-9.8.4-10.3-.4-1-.8.2-.8 2.8 0 2-.3 3.2-.7 4.3-.6 1.7-.7 2.5-.2 1.7.5-.9.7-.5.7 1 0 1.2-.2 1.6-.5 1.5-.2 0-.3 0-.1.4l.5 2.3c.1 1 .4 1.9.6 2 .2 0 .3.4.3.8 0 .5.2.9.5 1 .8.4 4.8.4 8-.1 5.3-.8 5.2-.8 5-1.2 0-.6.2-.7 2.8-1a14 14 0 0 0 3-.7c.4-.2 1.4-.4 2.3-.5l3.1-.3c1.3-.2 1.6-.1 1.5.2-.1.2-.9.4-2.2.6-1.2.2-2.7.5-3.4.8l-2.7.5c-1.3 0-1.6.1-1.7.6-.3.7-.3.7-3.7 1.3-3.3.6-5.5.9-7.2.9-.9 0-1.6.1-1.7.3l-1 .2c-.5 0-1 .2-1.2.4-.2.3-.6.4-.8.4-.7 0-2.9.9-4.8 1.8L67.8 90c-.5.2-.8.5-.8.8 0 .5-.4.8-1.5 1.3l-2 1c-.1.2-1 .4-1.9.6-1.1.1-1.6.3-1.6.6v.7c-.1.4-2 1.1-3 1.1-.6 0-1 .2-1 .3 0 .2-.4.4-.7.5-.5.2-.5.3.4.3l2 .3 2 .7c1.5.5 3.9 2 3.9 2.3 0 .3-.2.4-.5.3-1-.4-1.4-.5-1.4-.2 0 .2-.4.3-.8.3H60l.8.4 2.5 1.2c1 .4 2.3 1.2 3 1.8 1 .8 1.7 1.1 2.6 1.2 1.9.3 1.5.8-.5.8-1 0-1.6.1-1.6.2 0 .3 5.3 1.8 6.5 1.8.5 0 1.1.2 1.5.4.3.2 1.1.4 1.8.5 1.9.3 3.9 1.7 2.3 1.7-.6 0-1.9-.4-2-.7-.2-.1-1.2-.4-2.3-.5l-3.2-.8a11 11 0 0 0-1.9-.7c-1.4-.4-4.2-1.2-4.6-1.5-.5-.3-.1-1 .5-1 1 0 .9-.5-.2-1.4-.7-.6-1.1-.7-1.7-.6-.5.1-.7 0-.8-.4-.1-.3-.8-.7-1.7-1-2-.8-2.5-1.3-1.8-1.9.3-.2.9-.3 1.4-.2l.9-.1c0-.4-1.2-1-3.2-1.6-1.7-.5-2.5-.6-5.7-.6-2.8 0-3.6 0-3.5-.2 0-.2.5-.5 1-.6.8-.2 1-.4 1-.7 0-.7.8-1 1.3-.5.4.4.5.4 1.4 0 .5-.3 1.4-.6 2-.7a7 7 0 0 0 1.4-.3c.4-.2 0-1.2-.5-1.2-.3 0-.7-.2-1-.5-.2-.2-.5-.4-.6-.3-.2 0-.5 0-.7-.3-.3-.2-1-.4-1.8-.5-1.5-.2-1.7-.4-1.7-1 0-.2.1-.3.4-.1l2.7.3c1.2 0 2.2.2 2.3.4l1.2.2c1 0 1 0 1 .6-.3.5-.2.5.6.3l2.5-.4c3.2-.5 6-2 3.1-1.7-4 .4-4.8.5-4.8 0 0-.3.3-.4 1.4-.4 1.6 0 3.4-.3 5.7-1 1.4-.4 1.4-.4.7-.6-.4 0-.8-.2-.7-.3v-.5c0-.2 1.5-.7 5-1.4l2.3-.6c.3-.2-.5-.6-1.3-.6-.6 0-1.1-.3-1.8-1-1.1-1.2-1.2-1.4-.6-1.4.3 0 .4-.4.4-2.1 0-1.2.1-2.2.2-2.2.2-.1.3-.8.4-1.4l.8-3c.5-1.8.8-6.1.4-6.1l-.9.8c-.6.8-.7 1-.5 2.6.1 1.2 0 1.8-.2 2-.2.3-.3 1-.3 2 0 1.3 0 1.6-.4 1.6-.2 0-.5-.2-.7-.5-.2-.2-.4-.4-.5-.3-.4.4-.5 4.1-.2 4.3.4.3.4 1.2 0 1.4 0 0-.4-.1-.7-.4a6 6 0 0 0-1.7-1l-1.3-.5-.1-2.2a48.7 48.7 0 0 0-1.5-9.5c0-.5.8-.3 1.1.2.2.3.4.5.6.5l.6.5c.2.3.6.5.8.5.3 0 .6.3.7.7 0 .4.5 1 .8 1.6.4.5.7 1.2.7 1.6 0 .7.6 1.4 1 1l.1-.8c0-.3.1-.8.3-1 .1-.4.1-1.1-.2-2.4-.4-1.7-.4-1.7.1-2.2l.6-.7.6-.5c.3-.1.6-.5.7-1 .1-.7.3-.8 1.2-1l1.8-.5c.9-.3 1.4-.1 1.7.6.1.5 2.6 2 3 1.7l-.5-.9-.8-1.6a8 8 0 0 0-1.1-2c-.8-1-1.5-1.3-4-2.4-.6-.2-1.5-.8-2-1.3-.7-.6-1.3-1-2-1.1-.6 0-1.7-.3-2.4-.5-2.7-.8-7.8-1.1-9-.7-.5.3-.8.2-1.6-.1a3 3 0 0 0-2-.3c-1.1.2-8.7.2-12 0-1.7-.1-2.3-.1-2.3.1 0 .3-.6.3-2.3.2l-3.8-.2h-1.4v17.5a8796.5 8796.5 0 0 0 .4 60.4v7.7l.8.5c.9.7 1 1.3.2 1.9-.4.3-.5.6-.5 1.6.1 1 0 1.3-.3 1.4-.3 0-.6-.2-.8-.5zm106.9-7.7c.2-.2.2-.7.1-1.2-.1-.6 0-.8.7-1.2.6-.4.8-.6.8-1.3 0-.5 0-2.2.3-3.8.2-2.5.2-3-.2-4-.4-1.1-.7-1.4-1-.9-.1.2-.4.2-.7.2-.2-.1-.6 0-.8.2-.3.4-.3.7.1 1.7.7 2 .9 3.6.4 4.3-.2.4-.3 1-.2 1.8.2 1.1.2 1.6-.1 3.5-.1 1 0 1.3.6.7zm10.2-1.1.5-2.4c.2-1.4-.4-1-1 .6-.2.8-.6 1.7-.8 2-.6.8-.5 1.3.3 1.2.6-.1.7-.3 1-1.4zm1-5s.2-.7.6-1.3a4 4 0 0 0 .7-2.3c0-.7 0-2 .3-2.7.3-1.5.2-1.7-.7-1.5-.5.2-.6.3-.5 1 .1 1-.3 1-.7.1-.3-.8-1.5-1-1.2-.2l.3 1.3c0 .4.3.8.6.8.8.2.7 2.6 0 3.2-.5.4-.5.6-.2 1.2.3.7.7 1 .7.5zm-10.3-7.5c.3 0 .4-.3.4-.5 0-.4-1.2-1.6-1.9-1.8-.2 0-.4-.3-.4-.5s-.5-.8-1-1.3-.9-1-.9-1.2c0-.6-.9-2-1.2-2-.6.2-1 0-1-.3 0-.6-1-1.8-1.3-1.6-.4.3-.2 1.4.7 3.4 1.7 4 3 5.4 4.5 5.4l1 .3c.4.3.6.3 1.1.1zm7-2.3c0-.5 0-.5-.2-.2l-.3 1c0 .7 0 .7.3.2l.2-1zm-3.8.3c.8-.5 1.2-1 1.4-1.6 0-.4.4-1 .8-1.4l.6-1.2.4-.9c.2-.3.4-.8.4-1.1 0-.8.4-1 .8-.5l.7.4c.1 0 .3.4.4 1l.6 3.3c.4 2 .6 2.3 1 2.3.3 0 .4 0 .3-.2-.4-.1-.5-1.3-.1-1.5a13 13 0 0 0 2.1-4c0-.8.5-1 1-.6.3.3.5.2.9-.3l.7-1.3c0-.4.3-.9.5-1a18 18 0 0 0 2-5c.6-2 1.3-2.9 1.3-1.7 0 .6.4.7.6.1.2-.5.7-.5.7.2s.4.6.6-.2c.3-1 .5-3.2.5-4.3 0-.7 0-1-.3-1s-.5-.3-.6-1c0-.5-.4-1.5-.7-2.2-.9-2-1.3-4-1.8-7.8l-.6-4.2c-.4-.7-.4-1.3 0-1.3.5 0 1.8 2.9 2.4 4.8.2.6.3 1.5.3 2-.1 1.2.4 1.3 1.3.2.5-.5 1-.8 1-.7.2 0 .1.3 0 .5-.3.4-.3.4 0 .3.9-.3 1 0 .6.7-.2.4-.3.7-.1.7.4 0 .8-1 .8-1.8 0-.4-.6-1.6-1.4-3a10 10 0 0 1-1.5-3c0-.7-1.4-3.5-2.2-4.3-.3-.3-.8-.7-1.1-.7-.6-.2-.6-.2-.4.7.4 1.2.3 1.8-.1 1.8-.2 0-.4-.2-.4-.4 0-.8-1.4-2.9-2.6-3.8l-2-1.9-2.6-1.8c-1.8-.9-2.5-1.6-2.3-1.8.1-.1.6 0 1 .3.9.4 1.3.4 1-.1-.1-.2-.7-.6-1.4-1-1-.6-1.5-.7-2.9-.6-3 .2-7.5 2.9-7.5 4.6 0 .5-.3 1-1 1.5a77 77 0 0 0-4.9 4.5c-1.4.9-4 7.5-3.5 9 .4 1.2.3 2.2 0 2.6-.4.4-.5 1-.5 3 0 1.3.2 2.9.4 3.5.3 1 .4 1.1 1 1.1.8 0 .8 0 .8-1.4 0-.7-.3-2-.6-2.8-.6-1.8-.6-4 0-4 .2 0 .3.3.3.6 0 .7.5.9.7.2.5-2.4.6-3.2.6-4.4 0-1.3.1-1.4.6-1.3.4 0 .7-.2 1-1.1.3-.7.8-1.8 1.3-2.4l.9-1.4c0-.2 2.2-2.4 2.6-2.6.7-.2-.2 1.5-2.2 4.2-1 1.1-1.2 1.8-1.7 4.3a45 45 0 0 0-.8 6.3c-.2 3.6-.6 4.4-.9 1.4l-.1-1.8-.2 2a9.1 9.1 0 0 0 0 2.8c.2.5.2 2 .2 3.4-.2 2.3-.1 2.6.4 3.2.4.5.5 1.1.5 2 0 1 .2 1.4 1.6 3.3a70.7 70.7 0 0 0 3 3.8 39.8 39.8 0 0 0 3.1 4.1 13 13 0 0 0 2 2.5c.1 0 .7-.3 1.3-.8zm-1.9-6.7c-.2-.5 1-11.5 1.2-11.8.5-.5.6.2.3 3.6l-.4 4.8c-.2 2.9-.7 4.5-1 3.4zm3.6-1 .3-.8c.6-1 1.1-5.6 1-8.7 0-3 .1-3.9.6-3.1.4.6.6 4.3.3 6.6-.5 3.5-.9 5.6-1.2 6-.3.4-1 .4-1 0zm11.3-15c-.8-.1-1.1-.5-.7-.8.5-.3 2 0 2 .6.2.5-.2.5-1.3.3zm-16.1-.8c-.3-.4 0-.7 1-1a4 4 0 0 0 1.9-1c1-1 2.4-1.6 2.6-1v.6c-.1.2.2.5.8.7.5.2 1 .5.9.7-.2.4-1.8.6-2.2.2-.3-.2-.4-.2-.5 0 0 .3-.7.5-1.7.6l-2.1.3h-.7zm10-1.5c-.2-.2-.2-1 0-1.2.5-.3 2.3.4 2.2.8 0 .5-1.8.8-2.1.4zm4.2-1.2c0-.3 0-1.6.3-2.8.4-1.5.5-3.3.5-5.2 0-2 0-2.8.3-2.8 1 0 1.1 3.4.4 7.2-.7 3.3-1.1 4.5-1.5 3.6zm-6-1c-.1-.1 0-.6.1-1.1.3-.6.4-2.3.4-4.7 0-3.7 0-4-.8-5.2-.8-1.6-.8-1.7-.3-1.7.2 0 .7.6 1.1 1.3.7 1.2.8 1.4.8 4.5 0 4.1-.4 7.2-.8 7.2-.2 0-.5-.1-.5-.3zm-7.9-17.9c0-.2.2-.4.4-.4l2.1-.7c3-1.4 3.4-1.5 4.6-.7l1.3.6c.2 0 .5.2.7.5.3.4.2.4-1.1.2-2.4-.3-3.8-.2-5.5.4-2 .6-2.5.7-2.5.1zm-2-.3c0-.2 2.7-2.1 4-2.8 1-.5 2-.6 2-.2 0 .2-.3.4-.7.6l-1.4.7c-2 1.4-4 2.3-4 1.7zm14 45 .4-.6c-.3 0 .6-1.6 1.6-2.8a28 28 0 0 0 5-8.3c0-.4 0-.6-.1-.4a63.1 63.1 0 0 1-4.2 7c-.4.5-.8.8-1 .7-.3-.1-.7.3-1.1 1.2l-1.2 2c-1 1.6-.7 2.2.6 1.1zm-6.1-1.3c0-.1-.2 0-.3.2l-.3.6c0 .2.2.1.3-.1l.3-.7zm-18.6-3.2c.3-.2.3-.4 0-.7-.6-.5-.6-.5-1.3-.1-.6.3-.6.3 0 .6.8.4.8.4 1.3.2zm-2-1c0-.2.2-.7.6-1.1l1.3-1.7c.4-.7.8-1 1.3-1 .9 0 1-.1.7-.8-.1-.3-.1-.6 0-.8.2-.3 0-.6-.2-.9-.3-.4-.4-.6-.1-1.1.5-1.1.3-1.1-.6 0-.8.9-.8.9-1.7.5-1-.4-1.5-1.5-1.3-2.7l.2-.8-1 .3c-.5.2-.9.5-.9.8 0 .6-1.3 2.6-1.6 2.4 0 0 0-.6.4-1.1l.8-1.5c.2-.5.2-.5-.4 0l-1.4.8c-1.3.5-1.4.8-1.4 3.2 0 2 0 2.3.5 2.4.2 0 .6.5.8 1 .3.7.3.8.5.2.3-.8.4-.8 1 .2.7 1.5 2.4 2.7 2.4 1.7zm-2.2-6.4c0-.6 1-1.9 1.2-1.6.2.2-.6 2-1 2l-.2-.4zm6 6.5-.1-.2c-.2 0-.4 0-.5.2l.1.3c.2 0 .4-.1.5-.3zm29-1.5c1-1.6 1.2-2.2.6-1.7-.3.3-1.7 2.8-1.7 3.1 0 .4.3 0 1.1-1.4zm-28.4 0c.1.7.5.5.6-.3.2-.8-.2-1.6-.7-1.6a8 8 0 0 0-1.7 2.8l.8-.6c.7-.6.9-.6 1-.3zm-1.6-7.3c.2-.3.4-1.2.4-2.1 0-1.6 0-1.6-.6-1.7-.6 0-.6 0-.2.2.6.4.5.8-.4 1.7-.9.9-1 1.1-.3 1.8.5.6.7.6 1.1 0zm-3.3-5c-.2-.4-.5-.7-.5-.6-.2 0 .6 1.5.8 1.5 0 0 0-.4-.3-.9zm6.4-7.4c0-.2-.1-.1-.1.2 0 .2 0 .4.1.3v-.5zm-61.3-9s-.2-.1-.4 0l-.4.2.4.1c.2 0 .4 0 .4-.2zm2.7-3.6c0-.7-1-1.4-1.4-1.2-.4.1-.4.3-.2.6.7 1.3 1.6 1.6 1.6.6zm88.2-2.4c0-.6.4-1.6.6-2 .3-.4.6-1.1.7-1.5.1-.4.5-.9.8-1 .8-.4.8-.6.4-1-.5-.5.6-1.3 2.4-1.6 1-.2 2-.5 2.2-.7.8-.5 2-.7 4.8-.8 1.6 0 2.7-.2 3.3-.5l1.3-.4c.2 0 .6-.6.9-1.2.3-.7 1-1.4 1.7-1.9l1-.8c0-.1-1.5 0-3.2 0-2.7.2-3 .3-3.2.7-.1.5-.3.5-1.8.4-.8-.2-1.8-.2-2-.2a1 1 0 0 1-.8-.4c-.4-.5-1-.4-1 .1 0 .3 0 .5-.4.6-.3 0-.7.3-.9.5-.3.4-.4.4-.8-.1-.2-.3-.6-.7-.9-.7-.2-.1-.4-.4-.3-.6.2-.5-.3-.6-1.8-.5-1 .1-1.3.3-1.5.8-.3.6-1 .9-1 .3l-.6-.2c-.3 0-.6.2-.6.4s.2.4.3.4c.6 0 .2.5-.8 1-.7.4-1 .8-1 1 0 .4-.4.8-1 1.1-.9.6-2.4 2.3-3 3.5l-.8 1.1c-.6.7-.7 1.3-.1 1.3.5 0 3 1.6 4 2.6.9 1 1.5 1 1.3.1-.3-1 1.8-6.2 2.4-6.2.4 0 .4 0-.2 1.5-1.3 3-1.8 6.2-1 6.2.3 0 .5-.4.6-1.3zm-2.7-2.9c.3-1.6 1-3 1.3-2.7.2.2.2.6-.1 1.5l-.5 1.7c0 .3-.2.5-.4.5-.4 0-.4-.2-.3-1zm-86.4 2c.2-.8 0-1.5-.4-1.5-.2 0-.3.5-.3 1 0 1.2.4 1.5.7.5zm59.9-.7c1.3-1.6 2.2-1.8 2-.5-.2.6-.1.8.2.8.6 0 1.5-1 1.6-2 .1-.6.4-1 .8-1.3.3-.1 1.2-.9 2.1-1.7.9-.8 1.8-1.4 2-1.4l2-.5c2.5-.8 3.6-.7 5.4.3.9.4 1.6 1 1.6 1 0 .2.5.3 1 .3.8 0 1.1-.1 1.1-.4 0-.6-3-6.2-3.3-6.2-.5.1-.4-1.1.3-2.3.7-1.2.7-1.3.4-2.9-.5-2.9-1.1-4.9-1.6-5.3-.4-.4-.5-.3-1.2 1.4-.4 1-1 1.9-1.2 2-.2.3-.7 1.2-1 2.2-.2 1-.5 1.8-.6 1.8-.5.3-.9-.3-.9-1.4v-1h-2c-1.5-.1-2 0-2.6.3l-1.8 1c-1.1.6-1.2.6-1.6.2-.2-.4-.5-1.3-.6-2.6-.2-2-1-4-1.6-4.4-.3-.2-1.4 1-2.1 2.5-.7 1.4-1 3.5-.6 4 .6.7 1 5.4.6 6.6-.2.6-.2 1.2-.1 1.2l.3-.1c.2-.5 1.1-.4 1.1 0 0 .3-.3 1.3-.8 2.3a19 19 0 0 0-.9 2.6c-.1.6-.3.8-.7.8-.4 0-.5.2-.5 1.3 0 1.4.3 2.1 1.1 2.4 1 .4.9.4 2-1zm5.2-6.6V72c-.2-1-.1-1.1.4-1 .8 0 .9 1 .2 1.8l-.6.5zm-69.5 5.2c0-.8.1-1.8.3-2.4.4-1.4 0-1.8-.6-.6-.4.8-.5 1.4-.4 2.6.1 2 0 1.8.4 1.8.2 0 .3-.6.3-1.4zm-1.2-4.2a5 5 0 0 0-.6-2.6c-.4-.7-.7-1.3-.8-1.2l.2 1.8a29.6 29.6 0 0 1 .5 5.6c.1.4.6-2.1.7-3.6zm33.2 2.3c.7-.2 1-3.1 1.3-9.1l.4-5.9c.2-.6.2-.6-.7.3l-1 1V75.7c-.2.1-.4 0-.6-.1-.2-.3-.3-1.8-.2-6v-5.6h-2.1c-2 0-2.1 0-2 .6 0 .4.3.5.9.6 1.7.3.8.7-1.8.8h-3.1c-1 0-.7-.5.3-.5.5 0 1-.1 1-.3l1-.2c.4 0 .8-.2.9-.4.2-.5-1-.8-3.1-.7-.8 0-1.5-.1-1.5-.2 0-.3.7-.6 1.4-.6.4 0 .7 0 .8-.2.2-.4-1.8-1.8-2.9-2-1.2-.3-9-.3-9.4 0-.1 0 0 .5.3 1 1 1.3.4 1.4-.8.2-1.3-1.3-2-1.4-.9 0 .5.5 1.3 1.9 1.8 3.1l1.4 2.7 2.5 3.5c.3.4.8 1 1.2 1.2.7.5.8.5.8.1 0-.3.2-.5.5-.5.5-.1.6 0 .6.7 0 1.1 1 1.4 5.5 1.6 2.1.1 4 .2 4.1.1.3-.2 1 .2 1 .5 0 0-1.2.2-2.6.2-1.6 0-2.7.1-2.7.3 0 .1.3.2.7.2.3 0 .7.1.8.3 0 .1.5.3 1 .3s1 0 1.4.2c.4.2 2.8.1 3.8-.1zm-11.7-3c-.4 0-.4-.2-.2-.5.4-.4 3.3-.5 3.6 0 0 0 0 .2-.2.3-.7.2-2.7.3-3.2.2zm6.6 0c-1 0-1.8-.2-1.8-.3 0-.4 5-.2 5.1.1 0 .3-.7.4-3.3.2zm-1.5-1.3c-1.4-.2-1.9-.4-1.9-.8 0-.3.2-.3.6-.2l2.4.4c1.2 0 1.9.2 1.8.4-.1.2-1.5.3-3 .2zm-8.8-1.1c-.3 0-.5-.2-.4-.4.2-.5 3-.4 3 0 0 .5-1.4.6-2.6.4zM95.6 70c0-.3.3-.4 1-.4.6 0 .8 0 .8.4 0 .2-.2.4-.9.4-.6 0-.9-.2-.9-.4zm-3.5 0c-.5-.5-.1-.7.9-.6 1.5 0 1.7.7.3.7-.6 0-1.1 0-1.2-.2zm-3.4-.4c0-.2.5-.3 1-.3.7 0 1.1.1 1.1.3 0 .1-.4.2-1 .2s-1 0-1-.2zm-2.5-.7c-.3-.4-.1-.7.5-.7.4 0 .7.2.7.4 0 .4-.8.6-1.2.3zm-2.6-.8c-1-.2-1.6-.6-1.3-1 .4-.3 2.8.2 2.8.6 0 .5-.3.5-1.5.4zm7.8-.3c-.5 0-1-.2-1.2-.4-.2-.1 1.3-.2 4-.2 3.6 0 4.3 0 4.3.4 0 .3-.6.4-3.1.3l-4-.1zM85.8 66c0-.3.3-.4 1.5-.4 1.1 0 1.5-.1 1.7-.5.4-.8.8-.7.8.4v.9h-2c-1.6 0-2 0-2-.4zM81 64.6c0-.3.2-.4.9-.2l1.4.1c.4 0 .6.2.5.3 0 .2-.7.3-1.4.3-1 0-1.4-.1-1.4-.5zm6.1-1.2c0-.2.1-.5.3-.6 0 0 .1-.4 0-.8v-.7l1 .6c.9.6 1.3 1.2 1 1.5l-.5-.1c-.4-.5-.7-.4-.7 0 0 .3-.2.5-.5.5s-.6-.2-.6-.4zm-5.6-.6c-.2-.5-.2-.7 0-1 .3-.2.4-.2.7.2.2.2.7.4 1.2.4 1 0 1.9.4 1.9.8 0 .2-.8.3-1.7.3-1.6 0-1.8 0-2-.7zm4.2.2c-.1-.6.2-1.2.6-1 .4.3.4 1.5 0 1.5-.3 0-.5-.2-.6-.5zm21 13c-.3-.5-.5-.6-2.5-.8a9 9 0 0 0-2.4 0c-.4.4.3.7 1.6.8l2.1.4c1.4.4 1.5.4 1.2-.3zm47.6-.4c0-.2.9-1.1 1.9-2.1 1-1 1.8-2 1.8-2.2 0-.2.4-.6.8-1 .5-.2.8-.7.8-.9 0-.3 1.4-1.2 3.2-2.1.5-.3 1.8-.5 2.8-.6 1.9-.2 2.5-.4 2.2-.7h-1c-.4.2-1.3.3-2 .2-1 0-1.8 0-3.4.7-1.1.5-2.3.8-2.7.8-2.1 0-6.4 2.7-6 3.8a14.3 14.3 0 0 1 .8 5c.2.3.8-.5.8-1zm14.8-.9h-.5c-.2 0-.2.1.1.1.3 0 .5 0 .4-.1zm-60.2-.4 2.7-1.4a35.1 35.1 0 0 0 5.8-3.3l.7-.4-.6-.2-7.5-.3c-7.8-.2-8-.2-8 1.6v1l1.5.2h4.9c2.7 0 3.3 0 3.3.3 0 .6-.6.7-5.5.7h-4.5v.7c.1.9.8 1 3.6 1.1 2.2 0 2.2 0 2.2-.6 0-.5.2-.7.4-.7.3 0 .4.2.3.6-.2.9.4 1.4.7.7zm-1.4-3.9c0-1 .7-1.7 1-1 0 .2.3.4.5.4s.4.3.4.6c0 .4-.2.5-.6.4l-.5.1c0 .2-.2.3-.4.3-.3 0-.4-.3-.4-.8zm2.7-.8c0-.4 0-.5.1-.4v.7l-.1-.3zm8.4 4v-1.1l-1 .1h-2c-.7-.4-1-.3-2.7.6-1 .5-2 1-2 1.2 0 0 1.7.2 3.9.2h3.8zm-41.5-2c.3-1 .3-3 0-3.2-.2-.1-.3-.6-.3-1 0-.9-.3-1.3-1-1.3-.2 0-.3.7-.3 1.5 0 1.2 0 1.4.4 1.3.3-.2.4.1.4 1.6 0 1.8.3 2.2.8 1zm49 .1c1.2-.2 1.5-.7 1.1-2-.1-.6-.2-.6-3-.6-1.7 0-3 0-3.1-.2-.5-.4.5-.7 2.6-.7 3.7 0 4.2-.2 3.6-2-.3-.8-.4-.9-1.3-.8-1 0-2.2.7-7 4-1.6 1-2.8 2-2.8 2 0 .4 8.1.7 10 .3zm-7.3-1c-.2-.4.3-.8.6-.3.3.4.1.8-.2.8-.2 0-.3-.2-.4-.4zm33.8-3c.5-.7 1-1.8 1-2.3.2-1 .3-1.1 1.6-1.7 1.3-.7 3.4-1.3 6.4-2l3-.9c2.7-.8 5-1 13.5-1.1a157.2 157.2 0 0 0 15.3-1c.4 0 .6-.2.6-.3v-3.2h-1.2a64.1 64.1 0 0 0-19.4.8c-.7.4-7.2 1.1-11.5 1.3-3.2.1-6.8.9-7.5 1.6l-.8.6c-.2 0-.5.4-.9 1l-1 1.3c-.3.4-.6 1.3-1 4.5-.1 1.3.4 3 .8 3 .2-.1.7-.8 1.1-1.5zm30 1v-.2l-.4.3c0 .1 0 .2.2.2.1 0 .2 0 .2-.2zm-62-1.2c1-.8 2.5-1.9 3.4-2.4.8-.6 1.4-1.2 1.4-1.4-.2-.2-1.8 0-2.1.4l-1.4.2c-.9 0-1.1 0-1 .4 0 .4-.2.5-.7.5-.5 0-.6-.1-.6-.6.1-.6-.2-.7-1.1-.3-.3 0-.4.2-.2.3.3.3.4 1.6 0 2.4-.1.6 0 1.8.3 1.8l2-1.3zm35.9 0c5-2 5.8-2.2 8.4-2.4a68 68 0 0 0 7.6-1 70.4 70.4 0 0 0 7-1.1 50 50 0 0 0 7.8-1.2c.8-.3 2.4-.5 3.4-.5 1.7 0 2 0 2.6-.6 1-1 1-1.3-.3-1-2.4.4-8.2.7-15.8.7-7.6.1-8.4.2-11.3.8-7.7 1.6-11.1 3-11.3 4.2 0 .4-.3 1.3-.7 2-.6 1-.7 1.4-.6 1.4l3.2-1.2zm12 1.1h-.5c-.2 0-.1.1.2.2.3 0 .4 0 .4-.2zm-51.7-.8c.7 0 .8-.2.8-1.2 0-1.2 0-1.2-1.1-1.4H112l-3.3.2v2.5h3.7l4.3-.1zm-9.4-1.3-.2-1.3a5 5 0 0 0-1.7-.3c-1.1 0-1.6.1-2 .4-.2.3-.6.6-.8.6-.3.1-.5.5-.5.9 0 .7.4.8 3.7.9h1.5v-1.2zm73.2 1c1.6-.2 1-.7-.8-.7-2.4.1-4.3.4-4.2.7.2.3 3.5.3 5 0zm-6.4-.5c0-.5.3-.5 3-.7 5.4-.3 6.6-.4 6.8-.6.3-.3-9.4-.4-11.7-.2-1.3.1-1.8.3-1.8.5 0 .3-.4.4-1 .4h-1l1 .4 1.2.5 1.8.2c1.5 0 1.7-.1 1.7-.5zm15.2-1.2c.5-.4.4-.4-.9-.4s-1.8.3-.9.6c.9.2 1.3.1 1.8-.2zm10.2-.7c0-.4-.8-.4-1.3 0-.3.2-.2.2.4.2.5 0 .9 0 .9-.2zm-6.3-.5c3.4-.5 4.5-.8 4-1.3 0 0-2.3 0-5 .4-4.7.5-4.8.5-3.8 1 1.1.4.6.4 4.8-.1zm-80-.3c0-.2-1.4-.3-3.7-.3-2.4 0-3.6.1-3.3.3.8.3 7 .3 7 0zm91.2 0c-.1-.2-.3-.3-.4-.3-.2 0-.3.1-.3.3l.4.2c.3 0 .4 0 .3-.2zM95.2 63.2c.1-.2 0-.4-.1-.6a1 1 0 0 1-.3-.6c0-.4 1-.5 1.2 0 .2.3 2.4 1.2 3 1.2.5 0 .4-1.5-.3-2.1-.4-.5-.7-.6-1.7-.4l-3.4.1c-2.4 0-2.8.3-1.3 1l1 .7c0 .7 1.5 1.3 2 .7zm33.2 0c0-.3-.3-.3-.8 0-.3.2-.3.3.2.3.3 0 .6-.1.6-.3zm-1.1-.8c.1-.3.5-.6.7-.6.3 0 .5-.2.6-.4 0-.1 0-.3-.2-.3-.4 0-5.1 1.6-5.3 1.8-.1.1.7.2 1.8.2 1.9 0 2 0 2.4-.7zm13.3-.4c1.5 0 3-.2 3-.3l.8-1c.2-.5.5-1 .7-1 .1 0 .2 0 .2-.2 0-.6-8.6.4-9.7 1-.4.3-.2 1.2.4 1.8.2.3.5.3 1 .1l3.6-.4zm10.7-1 1-1.4.8-1-1.2.2c-1.7.2-2 .4-1.5 1.6.4 1 .7 1.2 1 .5zm45.3-1.1a42 42 0 0 1 1.2-6.5c.6-1.5.8-3 .4-3.4-.3-.2-.5 0-1 1.8l-1 3.2a4 4 0 0 1-.5 1.7c-.4.3-.4.6-.1 1.6l.3 1.8c0 1 .6.8.7-.2zm4-.3c0-.4.2-1.3.5-2 .4-1.2.4-1.3-.2-.9-.4.3-1 2.5-1 3.4 0 .5.5.2.6-.5zm-2-.1c0-.1-.2-.2-.4-.1-.1 0-.1.3 0 .4 0 .1.2.2.3.1.2 0 .2-.3.1-.4zm3.9-.9c0-.5 0-.5-.4 0-.2.4-.4.8-.3 1 .3.3.7-.3.7-1zm2.5-.5v.7-.7zm-6.3-.4a47.7 47.7 0 0 1 2-6.8c.4-1.2.8-2.5.6-2.7-.1-.1-1.2 1-1.8 2-.6 1-1.3 4.1-1.3 6-.1 2.2.2 3 .5 1.5zm4-.3c-.1-.3-.2-.2-.2.1l.1.4v-.5zm-.4-4.2.7-3.2c0-.6 0-.7-.5-.1-.9.9-2 5.2-1.4 5.7.4.4.5.1 1.2-2.4zM49.9 55.4a1 1 0 0 0-.7 0l.4.1c.3 0 .5 0 .3-.1zm146.9-4.7a86.4 86.4 0 0 0 1.9-6.4c.4-1 .5-2 0-2-.2.1-.6 1.1-1 2.3-.6 1.7-.8 2-1.2 2-.4 0-.4 0-.1.3.2.3.2.7 0 1.7-.2.8-.3 1.5-.2 1.7 0 .2 0 .8-.4 1.3-.5 1-.7 3.1-.2 2.4l1.2-3.3zm7.4.5c.3-.6.3-.7-.1-.7-.5 0-.5.1-1.2 3.2-.1.4 0 .1.4-.5l1-2zm-4.6-3.7 1-3.3c1-2.7 1-3 1.3-2.8.2 0-.1 1.3-.5 2.8a11 11 0 0 0-.7 2.8c.4.4 1-.2 1.6-1.4.6-1.3.6-1.3.7-.5 0 .4.2 1 .3 1 .2.2 0 .6-.6 1.2s-.8 1-.6 1.1c1 1 1.9-.7 2.1-3.7a88 88 0 0 1 .2-3c0-.4-.2-.3-.5.6-.5 1.4-1 2.1-.8 1a75.8 75.8 0 0 1 1.5-6.4l.4-2c.4-1-.3-.5-.7.7a69.3 69.3 0 0 1-1.5 3.6c-.2.5-.5.7-1 .7-.3 0-.6-.1-.6-.3 0-.7-.6.3-.7 1.2 0 .5-.2 1.1-.5 1.4-.2.2-.4.7-.4 1 0 .4-.2 1.2-.5 1.8-.5 1-1.1 3.3-1.1 4 0 .5 1.3-.7 1.6-1.5zm-2-4.6c.5-1.1.7-5 .3-5-.2 0-.3.2-.4.6 0 .4-.2.9-.4 1-.3.1-.4.7-.3 2.4l.1 2.2c0 .3.4-.3.8-1.2zm-19-2.5c.7-.3 1.1-.6 1-.6-.5-.2-2.8.7-2.8 1 0 .3.6.2 1.9-.4zm28.1-3.6c.7-1.7 1.1-2.6 1.5-2.6.4-.1.4 0 .2.7l.1.8c.4 0 2-3.4 1.8-3.7-.3-.5-.8-.2-1.1.5-.3.7-.4.8-1.2.8-1 0-1.8.4-1.8 1l-.8 2.9-.8 2.8c0 1.2 1.1-.5 2.1-3.2zm-6.6 2.6c0-.5-.1-.7-.3-.7l-.2.9.2.6c.2 0 .3-.4.3-.8zm8-1.6v-1.3l-.4 1c-.6 1.3-.6 1.6 0 1.6.4 0 .5-.2.5-1.3zm-7.3-2c-.3-.3-.7.5-.7 1.2 0 .6 0 .6.4-.2.3-.5.4-1 .3-1zm-1.5 1.2-.1-.2s-.2 0-.3.2l.1.3c.2 0 .3-.1.3-.3zm4-1.7c.5-1.3.4-1.4-.5-.7-.5.4-.7 1.1-.6 2.2 0 .6.6-.1 1.1-1.5zm-48.6.4c.1-.1-.1-.3-.5-.3s-.7.2-.7.3c0 .2.3.3.6.3.2 0 .5-.1.6-.3zm15-1.2c0-.4-.5-.5-1.2-.2-.6.2-.2.6.5.6.4 0 .7-.1.7-.4zm6.4-.6c.4-.4 0-1-.5-.5l-1 .4a3 3 0 0 0-1 .3c-.2.2 0 .3 1 .2.6 0 1.3-.2 1.5-.4zm-40.8-1.2c0-.2-.2-.4-.4-.4s-.9-.5-1.5-1l-1-1-1.2.8c-.7.4-1.2.9-1.2 1 0 .2.5.6 1.2 1 1.1.6 1.4.6 2.7.4 1-.2 1.4-.4 1.4-.8zm-3.5 0c-.6-.3-.6-1 0-1l1.2.5c.6.3.7.4.4.6-.5.3-1 .3-1.6 0zm-11.8.4c0-.3 0-.6.2-.7l.3-.4c0-.2-.3-.1-.6 0-.4.3-.5.3-.9-.2-.2-.3-.6-.6-1-.6-.8 0-.7.4.2.9.5.2 1 .7 1.3 1 .4.6.7.6.5 0zm17.7-.2-.3-.2h-.3c0 .2.2.4.3.4.1 0 .3 0 .3-.2zm35.8-.5c1.4-.6 2.2-.7 3.1-.6.9.1 1.7 0 2.3-.2.6-.3 1.7-.4 2.8-.3 1.8 0 1.9 0 2-.6 0-1-.9-1-5.8-1-3.6.2-4.6.2-5.3-.1-.6-.3-1.5-.5-2.2-.6a6.8 6.8 0 0 1-3.1-1.4c-.5-.5-1.2-.5-2.2-.3-.7.2-.7.3-.7 1.3.1 1 .2 1.2.9 1.5l.9.7c0 .2.6.5 1.1.6.6 0 1.1.2 1.2.4l.6.2c.3 0 .7.2 1 .5.5.7 1.1.7 3.4-.1zm-7.7-3.7c0-.3.2-.5.4-.6.2 0 .3 0 .3.3s-.3.6-.5.6c-.2.1-.3 0-.2-.3zm-40.5 3.9c.1-.2-.1-.3-.5-.4-.7-.1-1.1.2-.6.4.6.2 1 .2 1.1 0zm-2-.6c0-.3-1.2-.7-1.4-.4-.3.2.4.7 1 .7.3 0 .5-.2.5-.3zm14.5-.2c0-.2-.2-.3-.6-.3-1 0-1.7-.4-1.7-1.1 0-.5-.6-.7-1.2-.3-.4.3.2 1 1.5 1.5 1 .4 1.8.5 2 .2zm12.7 0c0-.2 0-.3-.4-.3-.3 0-.6 0-.7.2 0 .2.1.3.4.3.3 0 .6-.1.7-.3zm13.2-.6s0-.9-.2-1.7c-.3-1.5-.5-1.7-2.1-1.5-.5 0-2.3 1.4-2.3 1.7l.6.4 2 .8c1.4.6 1.8.7 2 .3zm-2.8-2.1c0-.2.3-.3.7-.3.4 0 .7.1.7.3 0 .1-.3.3-.7.3-.4 0-.7-.2-.7-.3zm-13.7 1.2c0-.5-.9-.8-1.9-.5-1.4.3-1 .9.7.9.9 0 1.2-.1 1.2-.4zm38.8.1c0-.1 0-.3-.3-.3-.2 0-.4.2-.3.3l.3.3.3-.3zm-32.2-.7c.2-.2.3-.5.1-.6-.1-.1-.5.1-.8.5-.6.7-.6.8-.1.6.3 0 .7-.3.8-.5zm34.7 0c0-.2-.1-.3-.3-.3-.1 0-.3 0-.4.2 0 .2 0 .3.3.3.2 0 .4-.1.4-.3zm12.5-.1h1.2c.6.1.7 0 .8-.7 0-1 0-1-1.3-.3a5 5 0 0 1-1.8.5c-.8 0-1.3.3-1 .6h1l1.1-.1zm-47.5-1.7h-.5c-.2 0-.2.1.1.1.3 0 .5 0 .4-.1zm19-2.2c.2-.5.5-.8.7-.8.3 0 .4-.2.4-.4 0-.3-.2-.4-.5-.4-1 0-3 .5-3.4 1-.3.2-.2.3.8.8 1.5.7 1.7.7 2-.2zm-12.3 0c0-.2-.1-.3-.2-.3 0 0-.2.1-.2.3-.1.1 0 .2 0 .2l.4-.2zm-3.2-1.8c0-.1 0-.2-.3-.3-.2 0-.6-.4-1-.8-.7-.7-1.8-.8-1.5-.2l-.1 1c-.2.3-.2.4.3.5.6.2 2.4 0 2.6-.2zm54.6-2.7c.6-.7.3-1-1-1-2.4-.2-3.1.3-2 1.2.8.7 2.5.6 3-.2zm-9.9-1.8-.3-.2c-.1-.1-.2 0-.2 0 0 .2 0 .4.2.4s.3 0 .3-.2zm1-1.2c0-.1-.2-.2-.5-.2-.5 0-.6 0-.2.2.5.4.8.4.8 0zM65 12.8c.1-.4.3-1.5.3-2.3 0-2-.4-2.4-2.7-2.5-1 0-2-.2-2.1-.4L59 7.4l-3.5-.2c-2.2-.3-2.5-.3-4.2.3-1 .4-2.2.7-2.6.7l-1.4.4-1.2.4c-.8 0-2.6.8-2.6 1.1 0 .2-.5.3-1.1.3-1.4 0-1.8.1-1.8.6 0 .4.8.6 4.2.8 1.5 0 4 .4 5.6.6 1.5.3 4.8.7 7.4.8 7.5.3 6.8.4 7.2-.4zm-28.1-2L42.3 9c3.4-.5 7.3-1.8 7-2.1C49 6.8 44 8 40.7 9c-1.5.5-3.2 1-3.7 1-1.5.4-5 1.6-5.2 1.8-.2.5.6.3 5-1.2zM52.6 6c.2-.1 0-.2-.5 0a3 3 0 0 0-1 .4c-.3.1 0 .2.4 0a3 3 0 0 0 1.1-.4zm20.6 140.1c0-.5.2-.7.6-.8.7-.1 1 .6.5 1.1-.7.7-1.2.5-1.1-.3zm-63.2-.8c-.7-.5-1-.8-1-1.8-.3-1.4-.1-2 .6-2 .4 0 .6.3.7.9.1.4.5 1 .8 1.2.5.3.6.6.6 1.2-.1 1-.6 1.1-1.7.5zm134.3-.5c-.5-.5.6-.6 5.9-.6 3.9 0 5 0 4.9.3-.1.3-1.3.4-4.5.4l-5.2.2c-.5 0-1-.1-1.1-.3zm-129.5-.3c-.1-.2-.5-.2-1-.1-.6 0-.9 0-1.7-.8-1-1-1.1-2-.3-2.4.4-.3.6-.2 1 .3.1.3.5.6.6.6.2 0 .6.2.8.5.3.3.8.5 1.2.5.9 0 1.1.5.8 1.2-.3.4-1.2.6-1.4.2zM3.9 144c-.6-.6-.5-1 .5-2l.8-1-.6-.5c-.7-.5-.7-1.4 0-1.6.3 0 1 .1 1.5.4 1.2.5 1.2 1.6 0 2.6-.4.5-.7 1-.7 1.4 0 .5-.5 1.1-.9 1.1L4 144zm3 .3c-.4-.4-.2-1.2.3-1.4.7-.4 1.6.3 1.2 1-.3.4-1.2.7-1.5.4zm22.8-.6c-1.7-.2-1.9-2.2-.2-2.2.8 0 1.8.8 1.8 1.4 0 .4-.5 1-.8 1l-.8-.2zm110.2-.2a3 3 0 0 0-1.5-.4c-.7 0-1 0-1-.3.2-.4 4.3-.5 5.4 0 1.1.4 6.8.2 7.2-.3.5-.7 3-.8 3-.1 0 .7-.8 1-4.5 1.1-2.1 0-4.8.2-6 .3-1.6.1-2.2 0-2.6-.3zm54.2-.2c-.2-.6.1-1 .7-.8.7.2.7 1.2 0 1.2-.3 0-.6-.2-.7-.4zm16.6-.6c0-.2.3-.4.9-.4.5 0 1 .2 1 .4.2.3 0 .4-.9.4-.7 0-1 0-1-.4zm-2-.2c-1.2-.4-1.1-.8 0-.6 1.5.3 1.8.4 1.6.7-.2.3-.5.3-1.7 0zm-11.2-1.4-2.4-.5c-.3 0-.7-.4-.8-.8-.2-.4-.5-.6-.8-.6-.5 0-1-.5-.7-.7.3-.3 2.3.2 2.5.6.2.6.6.8 1.6.8s4.3 1 4.3 1.4c0 .3-1.8.2-3.7-.2zm-71.7-.8c-1.2-.6-1.4-.6-3.9-.5-4.7.4-6.3.3-6.4-.1 0-.4.6-.4 4.9-.4 5.4 0 6.5.2 6.8.8.3.8-.2.8-1.4.2zm41 .5c-1.4-.2-1.6-.2-1-.4 1-.3 3.2-.1 3.3.3 0 .2 0 .3-.3.3l-2-.2zM8.4 140c-.3-.6.9-1.4 1.9-1.3 1.2.1 1.2.9 0 1.4-1.3.5-1.7.5-2 0zm54 0a.5.5 0 0 1-.4-.4c0-.5-1-1.3-1.3-1.1-.2 0-.8-.3-1.3-1-.6-.5-1.3-1-1.6-1-.6 0-1.7-1.6-1.4-2 .1 0 .6 0 1 .3l1 .4.7.4.5.4c.2 0 .3-.2.3-.4 0-.5.7-.5 1.3 0 .7.5 1.3 1.5 1.3 2.3 0 .4.1.8.3.9.3.2.3 1 0 1.2h-.5zM6 138.4c-1-.6-1.2-1.3-.5-1.5.6-.2 2.8 1 2.7 1.4 0 .7-1.2.7-2.2 0zm96.5.2-.9-.3c-.2-.1-.4-.3-.4-.5s2.5-.1 4.7.2c.8.1 1.2.6.5.6l-2 .2c-.8 0-1.7 0-2-.2zm5.9.1c-.8-.3-.3-.6.7-.5 1.4 0 1.8.7.5.7l-1.2-.2zm-32.2-.7c-3.1-.2-3.4-.3-3.2-.7.4-.6 7 0 7 .7 0 .3-.7.3-3.8 0zm108.9-.3c-.5-.5 0-.6 3.8-1a29 29 0 0 0 4-.5c.7-.2 1.5 0 1.3.4 0 .2-1.1.4-2.4.5-1.6.2-2.3.4-2.3.6 0 .6-4 .5-4.4 0zm-21.1-.1c.7-.3 2.5-.3 2.5 0 0 .1-.7.2-1.5.2-1.1 0-1.4 0-1-.2zM5.2 135.9c-1-1-.7-1.6.8-1.5 1 .1 1.1.2 1.2 1.1 0 1 0 1-.6 1-.4 0-1-.3-1.4-.6zm128 .2c0-.3.2-.4 1-.3 1.3 0 1.4.7 0 .7-.8 0-1 0-1-.4zm-29.6-.2c-.3-.5.3-.6 3.2-.7 1.6 0 3.1-.2 3.3-.3.5-.4 3.8 0 3.8.5 0 .4.4.4-4.5.5a73.7 73.7 0 0 0-5.8 0zm77 0c-2.8-.4-2-.8 1.2-.6 3.4.2 4.5.4 4.5.7 0 .3-3.5.3-5.7 0zm6.3 0s.2-.2.5-.2.5.1.5.3c0 .1-.2.2-.5.2s-.5 0-.5-.2zm-175.4-1c-.3-.4-1.1-1-2-1.3-2.2-.8-3.2-1-4.4-.5-1.1.3-2.5.1-2.3-.4 0-.1.5-.4.9-.4.6-.1.7-.2.3-.4l-1.1-.2c-.7 0-1.1-.6-.8-1 .2-.4 2.5-.1 3.5.4.4.2 1 .4 1.4.4.5 0 .5-.1.4-1.4 0-1.3 0-1.4.6-1.5.3 0 .8.2 1.2.5.8.7 1.8.5 2.5-.5.3-.4 1-.9 1.6-1 1-.4 1.2-.4 1.5 0 .2.3.7.4 1.3.4.8 0 1 .1 1 .7 0 .3-.4.8-.7 1.2-.5.5-.8.5-1.2.3-.3-.2-.6-.5-.6-.7 0-.4-.7-.5-1.4-.2-.6.2-.5 1.3 0 2.6.6 1 .6 1.7 0 1.7-.4 0-.4 0-.2.4.5.6.3 1.6-.4 1.7-.3 0-.7-.2-1-.7zm.6-2.4-.1-.7c-.2 0-.6-.4-1-.7-.8-.7-1.8-.7-1.5 0l.1.8c0 .2.5.5 1 .7 1.3.6 1.3.6 1.5-.1zm114.5 2.3c-1-.8-.7-1 1-.8 1.8.1 2.1.3 1.7.6-.5.5-2 .6-2.7.2zm6.4.2c-2.1-.2-2.2-.7-.2-1 .8 0 1.3 0 1.6.3.4.5.5.9 0 .8l-1.4-.1zm25.7 0c.2-.4 1-.4 1.5 0 .3.1 0 .2-.7.2-.6 0-.9-.1-.8-.3zm-49.2-1.2c-.2-.1-.4-.3-.3-.5.2-.2 1.2 0 1.2.3 0 .4-.4.5-.9.2zm64.9-1.7a2 2 0 0 1-1-.5c-.6-.7.2-.9 1.8-.4 2.4.8 2 1.3-.8.9zm34.8-2.2c-.2-.4.4-1.5 1-1.7.6-.2.6-.4.2-1.8-.3-.9-.3-1 .2-1.6.6-.6.6-.6 0-1-.7-.4-.6-1.2.4-1.6.5-.2 1.1-.8 1.4-1.4.3-.5.7-1 1-1.1.4-.2 1.4-1.7 1.1-2-.2-.2-1.7.6-2.3 1.3-.5.6-.8.7-2 .7-1 0-1.5.2-2.5.9-1.5 1-1.8 1-1.8.3 0-.3.3-.7.8-1 .5-.3.9-.9 1.2-1.7.2-.7.7-1.4 1-1.7l.6-1c0-.4.7-.9 1.8-1.5 1.8-1 2.3-1.4 2.3-2.3 0-.7-.1-.7-2.7-.3-1.5.2-2 .2-2.7-.1-.5-.3-1.2-.5-1.5-.5-.7 0-3 .6-3.5.9-.8.4-3.6-.3-3.2-.9 0 0 .5-.1.8 0 1 .1 1.6-.3 1.2-.9-.5-.5.1-.5.9 0 .4.4 1 .4 2.7.3 1.4-.1 2.6 0 3.4.1a5 5 0 0 0 2.7 0l2.6-.4 2-.3c.7-.2 1.6-.3 2.3-.3 1.2 0 1.3-.2.7-1-.3-.4-.3-.6-.2-.6l-.2-.4c-.2-.2-1-.3-2-.3-1.8 0-2-.3-1-1.3l.5-.8-2-.2c-1.1 0-2.4-.2-2.8-.4-.5-.2-1.1-.3-1.4-.2l-.7-.1c-.1-.2-.5-.3-1-.2h-1.2c-.7-.5 0-1 1.5-1 .7-.2 1.4-.3 1.5-.5l1.5-.2c.6 0 1.4 0 1.7-.2.3-.2.9-.3 1.3-.3s.8-.3 1-.8c.4-.4.7-.8 1-.8l2.3.9c1.5.7 2 1 2 1.4 0 .7-1 .9-1.2.2-.2-.5-2-1-2.4-.7-.2.2 0 .5.6 1 .9.8 1 1.5.4 2.4-.4.6-.4.6.7.8.5 0 1.4.4 1.9.7l1.6.9c.5.2.7.5.7 1s-.2.6-1 .7c-.5.1-1.2 0-1.6 0-.4-.2-.7-.2-.8-.1-.1 0 0 .2.2.3.3 0 .4 1 0 1.2 0 0-.4 0-.7-.2-.2-.3-.8-.4-1.2-.4-1 0-2.3 1.3-2.3 2.2 0 .4-.2.7-.4.7l-.9.4c-.3.3-1.3.9-2.2 1.3-1 .4-1.8.9-1.8 1 0 .5.3.5.7.2l1.7-.7 3.2-1.2c1.8-.9 1.8-.9 2.8-.4 1.2.6.9.9-1.1 1a30 30 0 0 0-7.5 2.4c-.4.3-.1 1.3.4 1.3.2 0 .6-.3.9-.7.2-.3 1-.7 1.5-.9l1.5-.5c.3 0 .4 0 .4.6 0 .8.1.8 1 .1.8-.6 1.5-.7 1.7-.1.1.2.4.4.7.4.8 0 1 .5.2 1-.8.7-1.5.7-1.7 0-.2-.6-.3-.6-1 .3l-.7.8.6.3c.8.4.6.6-1 1.5-1.5.7-1.5.8-1.6 2 0 .6-.2 1.2-.3 1.3-.3.4 0 1 .4 1 .2 0 .5-.3.7-.6.1-.4.5-.7.8-.8.5 0 .6-.2.6-1.1 0-.9 0-1 .5-1.2.3 0 .7.2 1 .4.2.3.2.6-.1 1.3-.3.5-.6 1-.8 1-.2 0-.6.4-.8 1-.4.9-.6 1-1.1 1-.4 0-.7.2-.7.3l-1 1c-.6.4-1.2 1-1.3 1.3-.2 1-1.7 1.6-2 .9zm6.6-26.2c.2 0 .2-.1 0-.3-.2-.2-.7-.2-1.4-.1-2 .4-1 .7 1.4.4zm-47.1 26c-1.2-.2-1.8-.7-1.6-1 .2-.4 3.8.4 3.9.8 0 .3-.9.4-2.3.2zm-41.7-1.8c-1.8-.4-1.9-1-.2-1 1.3.1 2.2.5 2 1 0 .4-.4.4-1.8 0zm36.2-1c-1.8-.7-2-1.6-.2-1l2.1.5c.6.2 1.1.5 1.1.6 0 .4-1.8.3-3-.1zm58.1 0c-.4-.3-.4-1 0-1.4.5-.5-.1-2-1-2.6-.5-.3-.9-.7-.9-1 0-.6-.5-1-.5-.4s-1 .6-1.3 0c-.2-.5-.1-.7.5-1.2.9-.8 2-1.1 2.4-.9l.2 1c0 .9 0 1 1 .9l1.1-.2c.5-.3.6.8.5 2.9-.1 2.6-.7 3.3-2 2.8zm-99.2-2c-.6-.3-1.1-.7-1.1-1 0-.5.7-.4 2.3.3.8.3.9.5.6.8-.4.5-.4.5-1.8-.1zM86.5 123c-1.8 0-2.3-.2-2.3-.5 0-.4.4-.4 3.3-.2 1.7 0 3.3.2 3.4.3.5.3 0 .6-1 .5l-3.4-.1zm-14.5-.4-1.1-.1.8-.3c.5-.3 1.7-.3 4.2-.2l3.5.1v.4c0 .3-5 .4-7.4.1zm46.6-.5c-1.1-.3-1.8-.8-1.8-1.2 0-.2.1-.4.3-.4.6 0 3.5 1.3 3.6 1.6 0 .3-1 .3-2.1 0zm-40.3-1.6c-1.9-.4.3-.6 5-.4a2015.4 2015.4 0 0 0 5.3.4c-.2.3-9.1.3-10.3 0zm12-.4c-1.1 0-1.6-.2-1.5-.4 0-.3.7-.3 2-.3 1.1 0 2.1.2 2.2.3.4.2 0 .6-.7.5l-2-.1zm132.1-.7c-.5-1-.3-2 .5-2 .4 0 .6 1.9.3 2.5-.3.4-.4.3-.8-.5zM39.5 119c0-.3.6-.3 5.3-.4.8 0 1.4 0 1.4.2-.1.4-6.7.5-6.7.2zm166.4 0c0-.2.2-.3.3-.3.2 0 .2.1.1.2 0 .2-.2.3-.3.3v-.3zm-172-1c-.7-.5-.5-1.3.3-1.3l6 .3c5.3.2 7 .5 3 .5-1 0-2.2.2-2.5.3-.3.2-1.8.4-3.4.5-2.4 0-3 0-3.4-.3zm22.1.2-1.9-.4-2.6-.2c-1.3 0-2.6-.1-2.8-.3-.3-.2-.3-.2 0-.2h10.4c0 .1-.4.3-.9.3-.4 0 0 .2 1 .2 1.3 0 1.8.1 1.7.4-.2.3-2.5.4-4.9.2zm129.6-1.4c-1.7-.9-2.3-1-3.7-1-2.8 0-5.6-.4-6-.8-.4-.5 0-.6 1.6-.3.9.2 2.4.3 3.4.3 2.2 0 4 .4 4.7.9.6.6 2.6 1.3 3 1l1.2-.2 1.5-.3c.7-.1.9 0 .9.3 0 .2-.4.4-1 .5l-1.5.4c-.9.5-2.2.3-4.1-.8zm-139.4.4h.8l-.5.1c-.4 0-.6 0-.3-.1zm176.3-.7c-.1-.5.4-1 .7-.8l.2.6c0 .6-.7.7-.9.2zm-186.8-.7c-.3-.5.1-.8 1.1-.8l2.3-.1c3-.4 6.5-.5 6.5-.3 0 .8-.5 1-3.9 1-1.9 0-4 .2-4.6.3-.8.1-1.3 0-1.4-.1zm35.8 0c0-.2.1-.3.3-.3.1 0 .2-.1.2-.3 0-.2-.4-.2-1.3-.1l-1.4-.1c-.1-.2-1.5-.2-3.9-.1-2.5 0-3.8 0-4-.2-.3-.2-2.2-.2-6.7 0l-7.2.3c-1.4 0-1-.5.5-.6a286.5 286.5 0 0 1 28.8 0c.3.2.5.5.4.6-.3.4 2.1.3 4.5-.3l4.2-.7c1 0 2-.2 2.1-.4l.9-.2c.5 0 .6.1.6.8v.7l-3.2.2a28 28 0 0 0-4.7.5c-1.7.5-10 .6-10 .2zm151.4-2.4c0-.5 0-.8.2-.7.2.1.3.5.3.8 0 .4-.1.7-.3.7l-.2-.8zm-138.4-.2c-.5-.1-1-.4-1-.5-.1-.3.2-.4 1.3-.2 1.2.1 2.5.6 1.6.6a3 3 0 0 0-.6.1 4 4 0 0 1-1.3 0zm94-1c0-.2-1-.3-3.6-.3-1.9 0-3.6-.2-3.7-.3-.4-.2 0-.6.7-.6.4 0 .7-.1.7-.2 0-.2.7-.4 1.5-.5.8 0 1.4-.2 1.3-.3l-4.7-.3c-3.3-.1-4.6-.2-4.7-.5-.1-.4 3.9-.4 7.7 0 3.4.3 3.4.3 3.2 1-.1.4-.4.5-1 .5-.4 0-.6.1-.5.3.1.3 1 .3 3.1.2 1.8-.1 3.3 0 4 .1.9.3 2.1.2 5-.5 1.8-.5 6.6-1.1 8.1-1.1 1.6 0 3.7.5 3.7.8 0 .2-.6.2-1.6.1-2.5-.3-4.8-.1-7.3.4a64 64 0 0 1-8.3 1.3c-3 .4-3.7.4-3.7 0zm-97-.8-.7-.3c-.2 0-.3-.2-.1-.4.3-.3 3 .2 3 .6 0 .3-1.4.3-2.1 0zm24-1.7c-.2-.4.4-.8.9-.6.2 0 .3.3.3.5 0 .4-1 .5-1.2 0zm-51-1c-.3-.4.1-.5 1.4-.5 1.6.1 1.7.1 1.5.4-.2.4-2.7.4-3 0zm47.2-1c-1.8-.1-2.4-.2-2.3-.5.1-.4 4.6-.6 5-.1.4.3.4.8 0 .7l-2.7-.2zm120.3-1.6c-.3-.2-.4-.6-.3-.8l.1-.5c0-.3 1-.1 1.3.2.8 1-.3 2-1.1 1.1zm-54.8-.3c-.4-.1-.8-.4-.9-.5-.2-.6.8-.7 2-.3l1.8.4c1.6-.1 3.8 0 3.8.3s-5.4.3-6.7 0zm-66.6-.5-1.2-.1c-.6 0-1.1-.2-1.3-.3l-1.1-.4c-.5 0-.9-.3-.9-.5 0-.4.3-.4 1.3-.2a5 5 0 0 1 1.5.4l1.4.4c.6 0 1.1.3 1 .4 0 .3-.5.5-.7.3zm69-.7c-.3-.4 0-.5 2.8-.7l4-.5c1.3-.1 1.5 0 1.5.3s-.3.4-.8.4l-2 .3a17 17 0 0 1-5.6.2zm52.2-2.3c-.3-2.3 0-3.1 1-2.8.8.2.8 2.1.1 2.7-.5.4-1 .5-1.1.1zM95.3 102c-2.7-.2-3.7-.5-3.7-.9 0-.1 1.2-.2 3.3 0 3.8.1 4.5.2 4.3.7-.1.4-.7.4-3.9.2zm-81-3.5-4.5-.2c-2.1 0-2.6-.1-2.6-.5 0-.3.4-.4 3-.2 3.6.2 7.3.7 7.3 1 0 .2-.5.2-3.3-.1zm74.6.1c-.4-.4.2-.6 1.6-.6 1 0 1.4 0 1.4.4 0 .3-.3.4-1.4.4l-1.6-.2zm-2.1-2.1c-.3 0-.4-.3-.4-.5.1-.3 2.8-.3 3 0 .5.4-1.7.8-2.6.5zM13 96c0-.3 1-.6 2.3-.5 1.7.2 1.2.7-.6.7-1 0-1.7 0-1.7-.2zm175-1.3c.3-.4 1.8-.8 2-.5.2.5-.2.8-1.2.8-.5 0-.8-.1-.7-.3zm-97.5-1.5-3-.1c-2.5 0-4.1-.3-3.7-.7l3.8-.1c3.5 0 4.7.3 3.8.8-.5.3-.7.3-1 .1zm101.8-.6c.2-.5.1-.6-.2-.5a6 6 0 0 1-2.7.4c-.7-.3-.1-.8 1.2-1.2l1.4-.6a24 24 0 0 1 2.6-1c3.9-1.5 3.4-1.8-1-.7-1.5.4-3.4 1-4.3 1.4-2.1.9-2.6.6-.6-.4a25 25 0 0 1 7.8-2.2c2.4-.4 5-1 5.8-1.5 3.2-1.3 3.2-1.3 3.3-1 0 .3.3.4.5.4.5 0 2.8-.6 4.2-1.1 3-1 5.3-1 5.1 0 0 .3-.4.4-1.2.5-1.5 0-4.7.8-6 1.4-.6.3-2 .5-3.2.6a52.3 52.3 0 0 0-12.2 4.3c1.3-.3 3.5-.4 3.7-.2.2.4-2.8 2-3.8 2-.5 0-.5-.2-.4-.6zm-74.6-.4c-.3-.2-.5-.4-.4-.5.2-.2 2.4.2 2.5.5 0 .4-1.5.4-2.1 0zM47 90.5l-1.6-.7c-.3-.2-1-.4-1.7-.5l-1.3-.4c-.2-.5.5-.6 2.4-.3a106.4 106.4 0 0 0 5 .8c0 .2-.3.3-.5.3-.3 0-.4 0-.3.2l.8.2c.3 0 .6.1.7.3 0 .4-2 .4-3.5 0zm36.3 0c0-.4 1.2-.5 4.3-.6 2 0 3.1.1 3.1.3 0 .2-.2.3-.4.3h-3.7a12 12 0 0 1-3.3 0zm29.6-.6c-1.4-.2-1.8-.4-1.4-.7.4-.3 4.2.3 4.2.6 0 .4-1.2.4-2.8.1zm-53-.2c-.2-.3.5-.7 1-.4 0 0 .1.3 0 .4-.1.3-.8.3-1 0zm127.2-.4c0-.4 1.4-1 4.7-2.3 5.2-2 5.3-2 11-4.6 1-.5 2.2-.8 2.4-.7.7.2.3 1-.7 1.1-1 .2-1.7.5-7.1 2.8a52.9 52.9 0 0 1-4.9 1.8 156 156 0 0 1-5.2 2.2c-.2.1-.3 0-.2-.3zM60 88.3c-.1-.1 0-.4.1-.5.2 0 .2-.4.1-.6-.1-.4 0-.5.6-.3 1.2.3 1.4.6.7 1.2s-1.2.7-1.5.2zm49.6-.5c0-.4.2-.5 1.7-.5 1.3 0 1.4-.1.5-.2-1.8-.2-1.5-.8.5-1 4-.3 8.4-.4 8.4-.2s-.7.3-1.9.3-2.2.2-2.7.4c-.4.3-1.2.4-1.8.4-.8 0-1 .2-1.2.6-.2.5-.4.6-1.9.7-1.4 0-1.6 0-1.6-.5zm-16.1-.5c-1.2-.5-.2-.7 2.6-.6 2.6.1 3.3.4 2 .7-.8.2-3.9.2-4.6-.1zm-36-1.5c-.7-.5-.5-.9.6-.7 1.5.2 1.6.3 1.2.7-.4.6-1 .5-1.7 0zm39.5 0c-1.2-.3-1.6-.5-1.3-.8H98c1.5.2 2.1.4 2.1.6 0 .4-1.1.4-3.1.1zm24.3-.5c0-.2.4-.4 1.2-.5l2-.3c.7-.1 1.2.3.8.7-.1 0-1 .3-2.1.3-1.6.2-2 .1-2-.2zm-66.8-1.2-1-.6c0-.3-.3-.4-1.6-.3l-1.5-.1c0-.8 4-1.2 4.4-.4 0 .2.5.6 1 .8 1.8.7.9 1.1-1.3.6zm21.5-.2c-.3-.3-.2-1.1.2-1.1l.8.4c.4.3.4.4 0 .7-.4.3-.5.3-1 0zm2.4-1.2c0-.3.2-.4.5-.4.5.1.5.6 0 .7-.3 0-.5 0-.5-.3zm113 0c0-.2.7-.5 2.4-1 6.7-1.6 10.6-2.7 14.1-4 1.2-.5 2.3-.6 2.3-.2 0 .4-1 .8-4 1.6a264.6 264.6 0 0 0-10.9 3l-3.3.9c-.4 0-.6 0-.6-.3zm-146-.4v-.6c0-.5 0-.5 2.4-.3 2.3.1 3.4.4 2.5.7-.5.2-4.7.3-4.9.2zm33-2.8c-.6-1.1-1-2.1-.6-2.3.4-.3.7 0 1.4 1.3.5 1 .6 2 0 2l-.7-1zm6.2.2c-1-.8-1.5-2-1.2-2.3.3-.2.6 0 1.4.9 1 1.1 1.3 1.9.7 1.8l-.9-.4zm-22.2-1.9c-.7-.8-1.3-1.7-1.3-2 0-.6-1.5-1.4-2.6-1.5-.4 0-1-.3-1.5-.8-.6-.6-1-.8-2-.8-.8 0-1.2 0-1.6-.7-.4-.5-1-.7-1.8-.8-1.5-.2-1.7-.7-.3-.8a5 5 0 0 1 2.5.7c2 1 2.8 1.1 2.5.4-.4-1-.7-2.6-.5-3.2.2-1 1.7-1.1 1.7-.1l.4 1.2.5 2.3c.2 1.5.7 2.3 1.3 2 .6-.2.6-.9 0-1-.5-.1-.8-1.6-1-5.2 0-1.1-.4-1.3-1.3-.8-.3.3-.9.5-1.3.6-.3 0-1 .5-1.5 1-1.7 1.5-2 1.6-3.2 1.2-1-.3-1.2-.3-1.5.3-.4.5-.6.6-2.6.6-1.8 0-2.2-.1-2.2-.4 0-.3.3-.4 1-.4.6 0 1.1-.2 1.2-.3.2-.3-.1-.3-1-.2-2 .3-6.5 0-6.5-.5 0-.3.6-.4 2.8-.4l7.9-.2c.3 0 .6.1.8.4.4.5 1.8.2 2.1-.5.3-.7 2.1-1.7 3.2-1.8.5 0 .9-.3 1-.7.3-.7 1.3-.8 1.8-.2.2.3.5.4 1 .3.3-.1.9 0 1.4.4.5.3 1 .5 1.3.5.5 0 .5.2.4 1.3l-.3 4c-.3 4-.7 3.7-.7-.4 0-2.6 0-3.3-.4-3.6-.6-.5-1-.1-1.4 1.3-.3 1.4-.2 2.3.5 3 .3.4.3.6 0 1-.4.8-.3 1.3.3 1.5.3 0 .5.4.5 1 .1 1 .7 1.2 1 .3 0-.3.3-.7.5-.8.5-.2 1 .6.8 1.3-.1.5 0 1 .3 1.5.4.7.4.8-.1 1.2l-.7.3s-.7-.6-1.4-1.5zm-4.8-6c.2-.4-.6-3-1-3v.6l.3 1.7c.1 1.1.4 1.4.7.7zm2.7-4c.2-1.2-.1-1.6-.8-1.2-.3.2-.4.3-.2.4.2.1.3.7.3 1.3 0 1.4.4 1 .7-.5zm155 2.6c-.2-.4 1.3-1.9 1.9-1.9.5 0 .5 1.2 0 1.7s-1.6.6-1.9.2zM19.6 66.2c-.9-.7-1.8-.9-2.5-.4-.5.3-.6.3-1.6-.6-1.2-1-1-1-7.2-.8-3.7.2-6.5 0-7.3-.7-.6-.4-.1-1 .5-.9 2.8.9 6.5 1 10.5.5 2.2-.3 4-.1 4 .3v.4c1.8 0 5.6 1.4 5.5 2-.2.5-1.2.7-1.9.2zm197.6-2.6c-.1-.3 0-.6.1-.7.2-.2.3 0 .3.4 0 .8-.2 1-.4.3zM72.3 63a1 1 0 0 0-1-.6 6 6 0 0 1-1.6-.3c-.5-.3-1.6-.5-2.3-.6-.8 0-1.8-.3-2.3-.5-.4-.3-1.4-.6-2-.7-1 0-1.2-.2-1.2-.7 0-.2 0-.5.2-.4.6 0 2.2.7 3.3 1.1.6.3 1.6.5 2.3.5.6 0 1.6.2 2.2.5l1.5.3c.5-.3 2 .8 2 1.3-.2.6-.7.7-1 0zM214 61.7a45 45 0 0 0-.4-5.6c-.3-2.6-.3-3 0-3.9.4-.6.6-.8 1-.7.2 0 .3.3.2.6-.4.9-.5 2.3-.1 3.7l.3 2.4c0 .6 0 1 .4 1.2.9.6.8 2-.1 2.2-.8.4-1.1.4-1.3.1zM52 59.9c-.1-.1-2.4-.3-5.5-.4-.8 0-.9 0-.5-.3.5-.3 15.2-.4 15.5-.1.4.4-.4.5-4.5.6a61.7 61.7 0 0 0-5 .2zm62-1c0-.2.4-.6 1-1 1.3-.9 1.6-1.6 1.6-3.5 0-1.4 0-1.5 1-2.4.6-.5 1.1-1 1.1-1.3 0-.3.2-.5.5-.6 1.7-.5 3.3-1.5 3.8-2.4.6-1 1-1.2 1-.5 0 .8-.5 1.4-1.7 2.2l-1.4.9-.6.3-1.6 1.5c-1.1 1-1.3 1.3-1.3 2 0 1.7-.5 3.1-1.6 4.2-1 1-1.9 1.3-1.8.6zm101.7-2.3-.2-3.6c0-2 0-3.3-.2-3.4-.1 0-.3-.4-.3-.7 0-.4-.2-.5-.9-.5-1 0-1.7-.6-1.7-1.6 0-.7 0-.8.9-.8.7 0 1-.2 1.6-.9.9-1.1 1.4-1.2 1.4-.2 0 .4-.3 1-.8 1.5-.7.8-.8 1-.5 1.5l.4.6.4-.6c.6-1 1.1-.7 1 .6 0 .6 0 1.9.2 2.8.2 2.4-.1 5.4-.7 5.5-.2 0-.5 0-.6-.2zM65.8 55c-.2-.3.1-.8.6-.8.2 0 .4.3.4.6 0 .5-.7.7-1 .2zm70-3 .8-1c.4-.5.8-1 .8-1.2 0-.3 1.1-1.4 1.4-1.4.7 0-1.2 3-2.2 3.6-.4.2-.8.2-.8 0zm-75.6-.5c.2-.2 1-.7 1.8-1 1.7-.7 5.7-3.3 6.3-4.1l1.6-1.4c.7-.5 1.4-1.1 1.5-1.4 0-.5.8-1 3.2-2a48 48 0 0 1 8.3-2.8c2.7-.9 3.7-.8 1.5.2l-1.9.7-8.1 2.8c-1.3.5-1.8.8-1.9 1.2 0 .4-.7 1-1.6 1.5-.9.5-1.7 1.3-2 1.7-.1.3-.8.9-1.5 1.2-.7.3-1.3.8-1.4 1.1 0 .3-.3.5-.7.5-.3 0-1 .3-1.5.6-.7.5-3.4 1.5-3.9 1.5l.3-.3zm-17.3-7.3c0-.4.4-.6 2.6-.7 4.6-.2 14.7-1.2 18.2-1.8 2.4-.4 8-.4 8.3 0h-3c-1.7 0-4.2.3-5.4.5a70.5 70.5 0 0 1-9.4 1.2 92.9 92.9 0 0 1-11.3.8zm72.6-.5c-1.6-.6-1.6-.9-.3-.9.8 0 1.4.2 1.6.5.5.6 0 .8-1.3.4zm99.4-.5c-.4-1-.3-2 .3-2.8.7-1 .8-2.3.1-2.3-.5 0-.5-.2 0-.7.3-.3.3-.5.2-.9-.4-.7-.1-1.4.6-1.2l.8.4c.5.5.1 3.7-.5 5-.4.9-.6 1.5-.5 2.2.1.8 0 1-.3 1-.2 0-.5-.3-.7-.7zm3.6-.9c-.2-.3.8-1.3 1.3-1.3.6 0 .5.6 0 1.1-.6.5-1 .6-1.3.2zm.9-1.9V40l.1-3.1c.1-2.2.3-3.2.6-3.4.5-.5 1.3-.2 1 .4l-.2 2.7a30 30 0 0 1-.3 3c-.2.8-1.2 1.5-1.2 1zm-99-.3c0-.6.5-.7 1.1-.4.8.5.7.8-.2.8-.6 0-.8-.2-.8-.4zm14.5-1.7.1-.4c.1-.1.3 0 .4 0v.5l-.5-.1zm-3.6-1.1c0-.2.1-.3.3-.3.1 0 .2.1.2.3 0 .1 0 .3-.2.3a.3.3 0 0 1-.3-.3zM117.7 27a12 12 0 0 1-2-1.2c-.5-.5-.8-.5-1.2-.1-.2.1-1.6.3-3.2.3s-3.9.3-5 .4c-1.6.3-2.4.3-2.5.1-.5-.4 0-.9.6-.7.9.2 9.5-.6 9.9-1 .4-.3 2.1 0 2.9.5a5 5 0 0 0 2.1.4c1.5 0 1.7 0 1.6.4 0 .3.2.5.6.6.8.2 1 .8.4.8-2.3.2-2.9.1-4.2-.5zm22.2.4c-.2-.4-.5-.4-1.6-.2-.7.2-1.7.2-2.2 0-1.2-.2-1.4-1-.5-1.3.4-.1.7-.4.8-.6.3-.6 1-.5 2.1.2.6.4 1.5.7 2.2.8 1 .2 1.2.3 1.1.8 0 .7-1.5 1-1.9.3zM92.2 27a42.2 42.2 0 0 1 11.1-.7c0 .3-1.6.5-5.2.7-1.6 0-3.6.2-4.4.3-1.2.1-1.5 0-1.5-.3zm31.4 0c0-.2.2-.5.5-.7.3-.2.4-.2.7 0 .2.3.2.4-.2.7-.7.5-1 .5-1 0zm2.4 0c0-.2.2-.4.4-.5.7-.2 2-.2 2.1.1.2.3 0 .4-1.5.7-.7 0-1 0-1-.3zm52.8-1c-.2-.3.3-.8.6-.6.5.3.4 1 0 1a.7.7 0 0 1-.6-.3zm-51.2-1c-.2 0-.6-.3-.9-.6-.4-.4-.7-.4-1.5-.3-.8.1-1 0-1.2-.4-.1-.4-.3-.5-.8-.4-.6 0-.9 0-1.4-.7-.7-1-.5-1.4.4-1l2 .2c1.1 0 1.3.1 1.2.5-.1.3.2.5 1 .9l1.3.5 1-1c.8-1 1-1.1 1.6-1 .8.2 1.6 1.2 1.3 1.7-.1.2-.6.4-1 .5-1.2 0-1.5.3-.5.3 1.6 0 2.8-1 3.5-2.7.1-.3.4-.4.9-.4.8 0 1.2.6.7 1-.4.2.7.5 2.4.5 1.6 0 2.2.3 2 .6 0 .2 0 .4.2.5.6.4 0 .8-1 .8-.8 0-1.1-.1-1.1-.4 0-.5-1-.5-1.2 0-.1.3-.6.4-2.1.4a8 8 0 0 0-2.3.1c-.4.3-4 .6-4.5.5zm7.9-1.5h-.5c-.2.1-.2.2.1.2.3 0 .5 0 .4-.2zm50.9 1c0-.7.2-1 .7-1 .5 0 .5 0 .5.8 0 .7-.2.9-.7 1-.5 0-.6 0-.5-.9zm-68.1.3c-.5 0-.8-.3-.9-.7-.2-.6-.3-.7-1.7-.7a4 4 0 0 1-2.8-.8c-.7-.4-1.8-1-2.6-1.1-1-.2-1.3-.5-1.3-.8l-.5-1c-.6-.5-.5-1.3.2-1.3.2 0 .4-.2.4-.4s.4-.4 1.3-.5c1.2-.2 1.3-.2 1.4-1 0-.8.2-.9 1.3-1 1.5-.4 2.7-.2 4.5.5.9.3 1.6.6 1.7.5l.2-1c.2-1.2.4-1.4 1.6-1.3 1 0 2-.4 3-1.3.4-.4 2.4-.4 2.6 0 0 .1.4 0 .8 0 .4-.3.8-.2 1.7.3l1.7.6c.3 0 1 .2 1.5.5 1 .5 1 .5 1.5 0 .5-.4.6-.4 1.4 0l2 .6c.8.1 1 .3 1 .7 0 .5-.2.5-3 .6-1.6 0-3.2 0-3.4-.2l-1.3-.5c-.7-.2-.9-.2-.9.1 0 .6 1.9 2.3 3.2 2.8 1.3.6 2 .7 2.4.1.4-.5 2-.5 2.7 0 .6.4.7.4 1.3 0l.7-.6 1.2 1c1.2 1 3.5 2.1 3.8 1.8l-.1-.2c-.4 0-1.1-1.4-1.1-2 0-.6 0-.6.9-.5 1.1.2 1.8-.1 1.8-1 0-.7.1-.9 1-1 .6 0 1 .1 1.3.5.3.3.8.6 1.2.6 1 0 1.4.3 1.4.8 0 .4.3.5 1.3.5l1.4.1v-.8c0-.6.1-.9.4-.9.2 0 .4-.3.4-.8 0-.8.2-.9.9-.9s.9-.2 1.5-1.5c.6-1 .7-1.6.6-2.3-.1-.6 0-1 .3-1.4.4-.4.5-.4 2 .2l2.4 1c.4.3 1.2.5 2 .6 1.2.2 1.4.7.2.8-.5.1-.7.3-.7.6 0 .4-.2.5-.8.6-1.3.1-1.2.7 0 1 1 .1 1.2.3 1.2.7 0 .4-.2.5-1 .6-.6.1-1.3.3-1.6.5-.7.3-3.4.2-3.6-.3-.4-.5-.3-1 .1-1.3l1-.8c.4-.5.6-.5 1.1-.3.8.4 1.4 0 1.6-.9.2-.4.1-.6-.3-.6l-.8.4c-.4.4-.6.3-1.1-.2l-.6-.7-.8 1.2-.7 1.4c0 .3-2 2.2-2.4 2.2-.2 0-.3 0-.2.2l.7.1c.4 0 1 1.5 1.5 3.6.1.7 0 .8-.4.8-.3 0-.5-.1-.5-.2 0-.6-1.8-1.6-3.1-1.8-1-.1-1.5 0-1.8.3-.7.7-1.2.5-1.2-.4v-.8l-1.7.2c-.9 0-1.7.2-1.7.2l-.2.5c-.1.5 0 .6 1 1 .6.3 1 .6.8.8-.2.6-2.1 1.5-3 1.5-.5 0-1 .2-1.2.4-.5.7-1.6.7-3.2 0a16 16 0 0 0-4.1-1.4c-.3 0-.5-.1-.5-.3 0-.1-.3-.3-.7-.4-.8-.2-.8-.8.1-1 .5 0 .8-.2.8-.6.2-1-1-.8-1.9.3-.8.9-.8.9-1 .3-.2-.3-.8-.7-1.5-1-.6-.2-1.3-.8-1.7-1.3-.9-1.1-1.7-1.7-2-1.3v2.8c.2 2.1.2 2.5-.1 2.5-.5 0-1.3-.7-1.3-1.2l.4-1c.3-.4.2-.6-.2-.9a2 2 0 0 0-1-.4c-.3 0-.5-.1-.4-.3 0-.2.5-.3 1-.2 1 0 1 0 1-.6 0-.4-.2-.7-.6-1-.4 0-.8-.7-1-1.2-.4-.7-.6-.9-.9-.8l-.8.2c-.4 0-.3.2.3.8.4.4.7.8.6 1-.4.3-3 .3-3.6-.1-.8-.6-1-.4-.6.6.2.5.7 1 1.4 1.2 1 .4 1.3 1 .7 1.3-.2 0-.7 0-1-.2l-1.4-.5c-.6-.1-.7 0-.7.5 0 .7.4 1 1.6 1 .7 0 1.2.3 1 .6l-1.7.2c-1.6 0-2.4-.4-2.1-1.3 0-.3 0-.7-.4-1-.5-.5-2.7-.9-2.7-.5 0 .5-.4.4-1.2-.2-1-.7-2-.5-1.3.2.7.8.8 1.8.2 2.2-.5.2-.3.4.9.6.3 0 .5.3.4.7 0 .5.1.5 1 .5 3 0 4 .2 4.4.7.5.7.5 1 0 1-.2 0-.4.1-.4.3 0 .3.3.4 1 .4 1 0 1.6.5.7.6h-3.6zm21.7-4.4c-1-1-1.9-1.2-1.8-.4.1.4.4.7 1 1 1.6.5 1.8.4.8-.6zm-26.7 0c0-.4-2.7-1-3-.7-.5.5.2.8 1.6.8.8 0 1.4 0 1.4-.2zM129 15c0-.2 0-.3-.2-.3s-.3.1-.2.3l.3.2.1-.2zm90.1 9c-.1-.2 0-.5.4-.8.8-.6.4-.9-1.1-.9-1 0-1.1-.1-1.6-.9-.3-.5-.7-.9-1-.9-1 0-1.5-.4-1.4-1 .1-.5.3-.6.8-.5.7.1.8-.2.2-.8-.2-.2-.3-.6-.2-.8l.2-1.5c0-1 0-1-1-1.1-.6 0-1.3-.2-1.6-.3l-1.8-.7c-2.5-1-5-3-4.6-4 .3-.5 1.3-.8 2-.4.6.3.6.3.1.8-.5.6-.5.6.8 1.4.7.3.9 0 .3-.6-.2-.2-.4-.9-.4-1.5s-.1-1.2-.3-1.3c-.5-.5 0-1 1.2-1 1 0 1.2.2 1.2.6l-.2.7c-.4.2-.4 1.4 0 2.2.6 1 1.4 1.5 2.6 1.5l1.4.2c.5.3.5.2.3-.7l-.2-2.8c-.1-1.8-.1-1.9.5-1.9.7 0 2 .6 3 1.4 1.1.9 2.5.4 1.6-.5-.2-.2-.2-.4.3-.6.3-.2.6-.2.8-.1.1 0 .2-.2.2-.7 0-1.4.5-.9.6.6v2.4c.1 1.2.3 1.2-2.2.7-.8-.1-1.6-.4-2-.6-.8-.6-.9-.6-.9.2 0 .4.3.7 1.2 1 2 1 3.2 1.3 3.5 1 .4-.5.6-.3.6.8 0 1.2-.4 1.4-1.5.7-.3-.3-1.1-.7-1.9-1l-1.4-.5.2 1.2c.2 1 .1 1.3-.3 1.6-.4.4-.4.8-.3 2.7.2 2.7.6 3.2 2.3 3.2 1.3 0 2 .6 1.8 1.5-.2.7-.2.7.4.3.8-.6 1-.6 1 .4 0 .8 0 1-.9 1l-1.6.4c-.6.1-1 0-1-.1zm-23.3-1.7c-.4-1 .2-1.7 1-1.3.3.2.3.4 0 1-.3.7-.8.8-1 .3zm-10.2-1.7c-.2-.3-.2-.5 0-.9s.2-.5-.4-.6c-.8-.2-1.3-1.3-.9-1.9.5-.5 1.9-.5 2 0 .2.3.6.4 1.4.4 1 0 1.2 0 .9-.4-.7-.8-.1-1.2 1.5-1.2 2.9 0 4-.5 2.6-1-1-.4-.9-.8.1-1.6l.8-.7-1-.7c-1-.6-1.2-.7-1.7-.4-.3.2-.4.5-.3 1v.5c-.3 0-1-1.2-1-1.7 0-.2.2-.4.4-.5.1 0 0-.2-.4-.4-1.3-.5-.8-1.6.8-1.6.5 0 .8-.1.7-.3l-.6-.3c-.3 0-.8-.1-1.1-.3-.6-.3-1-.3-2.7 0-2.5.4-5.2.1-5.8-.7-.4-.5-.6-.5-1-.3l-1.9.7c-1.4.5-1.4.5-1.8 0-.3-.4-1-.7-1.5-1-1-.3-2-1.3-2-2.1 0-.5 0-.5-.4-.2-.3.2-.6.7-.8 1.1-.4.8-.4.8.3 1.6.5.5 1 .7 1.5.7 1-.1 1.1.3.4 1.2-.4.3-.7.8-.8 1-.1.3-1.8.6-2.7.4-.4-.1-.7-.4-.8-.7-.2-.6-1-.7-1.3-.3-.1.2-1 .3-2 .3-1.4 0-1.6 0-1.6.5 0 .4-.2.5-.6.5-1 0-2.3-.5-2.5-1 0-.4-.5-.6-1.6-.7-1.2-.2-2 0-4.4.6-1.6.5-3 1-3.1 1.2-.2.3-.7.2-2-.2-.5-.2-.7 0-.9.5-.3.9-.3.9-1.4 0-.7-.5-1.1-.6-1.6-.5-.7.2-1-.2-.4-.5.4-.3.3-.7-.2-.7a352.3 352.3 0 0 0-7-1.9c-.5 0-1.5-.6-2.1-1-.7-.4-1.4-.8-1.7-.8-.7 0-2.5-1-2.5-1.4 0-.3-3.2-1.5-4.1-1.5-.2 0-.5.2-.6.4-.2.5-2 1-2.8.8-.3-.1-1 0-1.6.3-1 .4-1.1.4-1.4 0-.5-.7-2.6-.9-3.3-.3-.7.5-2.4.5-2.8 0-.5-.4-.4-1.4.2-1.7.4-.3.5-.4.2-.7-.5-.6 0-1.3.6-1 .4 0 1.1.3 1.8.5 1.2.3 1.4.7.5.9-1 .2-.6.6.6.7 1 0 1.4 0 2-.6.9-.8 1.3-.7 1.2.4v.8c.3 0 1-1.6.7-1.7l-.2-.7c0-.8 1.1-.6 1.8.2l.6 1.2c0 .8.9.6 1.2-.3.4-1 1-1.3 1.7-.6.7.7 1.6 1 2.8.7.8-.1 1 0 1.6.5.7.6 3.5 1 3.5.5 0-.2-.4-.3-1-.3-.7 0-1-.2-1.5-.7-.5-.7-.5-.7 0-1 .4-.3.6-.3 1.2 0 1 .5 4 1.4 4.8 1.4.6 0 .8-.1 1-.6.3-.8.3-.8 2.2-.4 1.1.3 1.4.2 2-.1.7-.4 1-.4 2.7 0 2.1.4 2.5.6 2.3 1.3-.1.3-.4.3-1.2.2-.7-.1-1.1 0-1.1.1 0 .5 1 .6 2.4.3 1-.2 1.4-.2 1.6 0 .2.5 1 .2 1-.4 0-.3.2-.8.5-1.1.4-.5.6-.6 1.2-.3.4.1.8.4.9.6.2.6-.9 1.7-2 2.2-.5.2-.9.5-.9.6 0 .5 1 1 2.4 1.5l2 .6c1.1.5 3.4.3 5.3-.2 2.2-.7 2.2-1.3 0-1.1-1.1 0-1.9 0-2.1-.3-.2-.1-.9-.2-1.7-.1-1.5.1-2-.2-1.4-1l.7-.4c.3 0 .8-.9.6-1-1.8-.6-1.6-1.6.5-2 1-.3 1.2.2.2.6-1 .4-.6.6 1.4.7 1.4.2 1.8.3 1.8.6s-.3.4-1.2.4c-2 0-2.5.8-1 1.3.8.3 1.1.3 1.5 0 .4-.3.7-.3 1.2 0 .5.2.8.1 1.7-.3.8-.5 1.6-.6 2.8-.6 1.6 0 1.8 0 1.8-.5 0-.4-.3-.6-1.5-.7h-2.5c-.7.3-1.1.3-1.2 0-.7-1 6.4-1.5 7.4-.4l1.4.5c2.2.2 5 .2 5.3 0 .2-.2 1-.2 2-.1l3 .2c1 .1 1.6.3 1.8.6.6.8.5 1.2-.5 1.8-1 .5-1 .5-.4.8 1 .5.8 1.1-.4 1l-1 .2c0 .2.6.3 1.2.3 3 0 3.8-.2 3.3-1-.4-1-.3-1.2.6-1 .6 0 .8 0 1-.4.2-.3.6-.5 1-.5.5 0 .9-.2 1.2-.8.3-.5.7-.8 1.4-.9 1.8-.3 2.5-.2 2.5.2 0 .3-.2.4-.6.4-1.2 0-1.5 0-1.8.7-.1.4-.4.9-.7 1-.3.3-.3.5-.2.8 0 .3 0 .7-.3 1-.4.5-.4.5.1.5.3 0 .6.1.6.3 0 .1.4.2.9.2 1 0 2.4.6 3.2 1.4l1.3.6c.7.2.7.2.4-.3-.2-.3-.3-.7-.2-1 .2-.4 1.8-.7 2.2-.4l.7.3c.7 0 .6.7-.1 1-.4.1-.7.5-.8.9 0 .5-.2.6-1.8.5-1.7 0-3.7-.8-3.7-1.4 0-.2-.3-.3-.7-.2-.5 0-.7.2-.7.6 0 .4.1.5.8.5 1-.1 1 0 1 2.7-.1 1 0 1.4.3 1.6.8.5.3 1.6-1 2-.5.3-1.2.5-1.4.5-.2 0-.6.3-1 .7-.3.6-.9.9-1.9 1.1-1 .2-1.6.6-2.3 1.2-1 1-1 1.1-1.6.5zm-31.9-12c1.3-.2 2.4-.5 2.5-.6.2-.2-1-.7-3.6-1.2l-2.8-.7c-1.2-.4-2.4-1-2.9-1.5-.3-.3-.8-.5-1.2-.5a7 7 0 0 1-1.7-.4l-3-.5-2-.2.2 1c.2 1 0 1.1-.6.6-.5-.5-3.7-.9-3.7-.5s.8.8 1.3.6c.3 0 .8.1 1.1.4 1.4 1.3 3.2 1.9 2.3.8-.3-.4-.1-1.1.3-.9 0 .1.3 0 .3-.4l.2-.6.6.6c.8.7.9.7 1 0 .3-.8 1-.6 2 .7a10 10 0 0 0 5 3.6 6 6 0 0 0 2 .3l2.7-.6zm13.3 0c.3-.4.7-1.4.5-1.6-.4-.7-2.6.4-2.7 1.3 0 .6 0 .6 1 .5l1.2-.2zm3.8-.2c0-.4-1-1.4-1.4-1.4-.2 0-.5.3-.7.5-.2.5-.1.6.2.8.6.3 2 .4 2 .1zM142.5 7c-.2-.4-.6-.6-.8-.5l-1 .1c-.4 0-.6.1-.5.3l1 .2c.3 0 .7.1.8.3l.6.3c.3 0 .3-.1 0-.7zm26.9-1.7c-.2-.7-2-1-2.8-.5-1 .6-1 1 0 .8.4 0 1.1 0 1.5.2.8.3 1.4 0 1.3-.5zm13.8.1.4-.7c.2-.1.4-.5.4-.7 0-.3-.3-.3-1.3-.2h-1.5c-.1-.2-.9-.4-1.6-.5l-1.4-.2.2.8c0 1-.3 1.1-1.3.6-.3-.1-.9-.2-1.4-.1-.8.1-1 .3-1 .7 0 .5.1.5 1.4.3 2.9-.4 5.2-.4 5.2 0 0 .2.2.4.3.5.6.2 1.6-.1 1.6-.5zm-12-1c.4-.3.5-.9 0-1.1-.3-.2-1.8 0-1.8.4 0 .1.6.5 1.3.8l.4-.2zm19.6 15.5c0-.4.7-.6 1.7-.6.5 0 .7-.1.7-.4 0-.4 1.2-.6 1.5-.1.3.5-1.3 1.3-2.6 1.3-.7 0-1.3-.1-1.3-.2zm-38-3.7c-.2-.4-.4-1.4-.5-2.3l-.2-1.5h.8c.6.1.8.3.7.8l.3 1.5c.3.5.4 1.2.3 1.5-.2 1-1.1 1-1.5 0zm66 0c-.7-.4-.7-.6-.4-1.2l.2-.8.7.6c.6.6 1.2.6 2.3.1.3-.1.5 0 .8.5.5 1.2.1 1.5-1.5 1.5-1.2 0-1.7-.2-2.2-.6zM145 14.5c0-.2.3-.4.5-.5.8-.3.4-.9-.8-1.1l-1.1-.3v.8c0 1.1-.5 1.2-1 .1a6 6 0 0 0-1.3-1.5c-.8-.7-1-1.6-.3-1.8.4-.1 2 1 2 1.5 0 .4.2.4 1 .4.7 0 1.5-.1 1.9-.3 1.4-.6 1.8 1.3.5 2.4-1 .8-1.7 1-1.4.3zm22.6.2c-.2 0-.3-.3-.3-.5 0-.6 1.2-.3 1.3.2 0 .5-.3.6-1 .3zm1.8-.2c-.2-.2-.2-.4 0-.4 2.3-.3 2.9 0 1.2.4-.7.3-1 .2-1.2 0zm-32-.5c-.6-.4-1.7-.8-2.5-.9-1.3-.2-1.9 0-1.2.3.6.4.2.7-.7.5a4 4 0 0 1-2-1.1c-1.5-1.3-2.8-1.6-9-1.7-4-.2-5.2-.3-5.7-.6s-1.5-.5-3.6-.6c-2.7 0-3 0-4.1.6-1 .5-2 .7-3.1.5-.2 0-.4-.4-.6-.8-.6-1.5-3.6-2.1-5.9-1.3a243.2 243.2 0 0 1-4.1 1.8 15 15 0 0 1-3.8 1.8c-.8 0 .1-.6 3.5-2.3 3-1.5 4.2-2 5.8-2.2 1.8-.3 2-.2 3.4.3 1 .3 1.6.8 1.9 1.3.4.7.5.8 1.2.6l1.4-.6c1-.6 7.3-.5 8.3 0 .9.5 6 1 9.4 1 1.9 0 7 .8 8 1.3.6.2 1.5-.8 1.5-1.5 0-.6.3-.6 2-.5h1.6c.3 0 .6.3.6.5 0 .3-.2.5-.8.6a4 4 0 0 0-1.6.8l-.7.6 1.3.8c.7.4 1.3.9 1.3 1-.2.5-.9.4-1.8-.2zm47.7-.5c-.5-.9-1.3-1.4-1.8-1l-.4.8c0 .4-.2.5-.5.5-.8 0-2.4-.8-2.5-1.3-.1-.3-.5-.5-1-.6-.7 0-.8-.5-.1-.7.8-.1 1.7.2 1.9.8.2.6 1 .7 1.4.1.2-.2.6-.4 1-.4.2 0 1-.3 1.4-.8.9-.6 1.1-.7 1.7-.5 1 .4 1.7 1.9 1.3 2.9-.2.5-.4.7-1.2.8-.7 0-1 0-1.2-.6zm-12-1.2c-.2-.1-.1-.4 0-.4.4-.3.7 0 .4.4-.2.2-.4.2-.5 0zm-6.4-.7c-.2-.4 0-.7.5-.7.2 0 .4.3.4.6 0 .6-.7.7-1 .1zm6.8-1c.2-.2 2.5-.6 2.7-.3l-.2.4c-.5.3-2.7.3-2.5 0zm7-1.3c.1-.4.3-.6.7-.6 2.5.3 3 1 .7 1.1-1.3.1-1.4 0-1.3-.5zm-150-3.6c0-.2 0-.5.3-.7l.6-.7c.1-.5-.3-1.8-.7-1.8-.1 0-.2-.3-.2-.7 0-.6.8-1.1 1.3-.8.7.4 1 1.7.8 2.5-.2 1 0 1.2.6.8A71.6 71.6 0 0 0 42.9 1c1.8-.7 2.7-.8 2.7-.3 0 .7-.9 1.2-2.8 1.7A103.4 103.4 0 0 0 31.1 6c-.2 0-.4-.2-.5-.5zm166.4 0c-.3-.2-.3-1 0-1.5l.7-.8c.5-.7 1-.3 1 1 0 1-.2 1.2-.5 1.2l-.7.2h-.5zM79.5 5.2c-1.4-.3-1.5-.8-.1-.7h1.8a20 20 0 0 1 4.7-.8 50 50 0 0 0 4.1-.5c.8-.2 2.3-.3 3.2-.3 1 0 2.2 0 2.8-.2a38.5 38.5 0 0 1 10.2 0c0 .5-.6.5-7.2.6-2.3 0-3 0-3.3.5-.5.4-.6.4-1.6 0-1.2-.5-3.1-.3-5.3.4-1 .4-1.8.5-2.7.4-1.4-.2-4.4.3-4.7.7-.1.3-.4.3-1.9 0zm121-.1c-.2 0-.4-.3-.4-.6 0-.6.4-.8 1.6-.5 1 .2 1.2.3 1 .9-.2.4-1.5.5-2.3.2zm-93-3.1c0-.4 2-1 3.8-1.1 1.6-.2 2-.1 2.1.2v.5a135 135 0 0 1-4.9.4h-1z"/>
</svg>
