<?xml version="1.0" encoding="utf-8"?>
<svg xmlns="http://www.w3.org/2000/svg" xmlns:svg="http://www.w3.org/2000/svg" version="1.1" viewBox="0 0 224 148">
	<title>Pigling Bland stands by the side of the farmhouse. A cart with a basket on the back is just visible around the corner.</title>
	<path d="M207 147c-.3-.6.3-1 1.5-1 1.3 0 3.3-.4 4-1 .3-.1 1-.3 1.7-.3.6 0 1.1 0 1.2-.2.3-.4-.6-.9-1.3-.7-.4.1-.9 0-1.7-.8-1.6-1.3-3-1.5-7-.7-3.2.7-4 1-4.4 1.7-.2.4-.3.8-.2.9.2.2 4 1.1 4.6 1 .3 0 .5.2.5.6 0 .4-.1.5-1.8.4a86.6 86.6 0 0 0-16.2-1.1 6 6 0 0 1-3.6-.3c-.3-.2-1.1-.1-2.1.1-4 1-4.7 1-5.3.7-.4-.2-.6-.2-.9 0-1 .8-3.3.8-3.3 0 0-.3 2.1-1 3-1 .8 0 1.2-.5.7-1a52 52 0 0 0-8.7-3c0-.1-.7-.5-1.6-.8l-1.6-.6-1.2.6c-.8.4-2 .7-3.8.8l-4.3.4-6.7.4c-4 .2-5.4.1-6.5-.2-.8-.2-1.8-.3-2.3-.2-1 .2-4.7-.6-5.1-1-.2-.3-.7-.5-1-.5-.8 0-1.6-.6-1.6-1.1 0-.4-5.2-.6-6.2-.2-.6.2-.8.1-1.4-.3-.6-.5-.8-.5-1.2-.2-.4.2-.6.2-.9 0-.2-.1-.6-.3-1-.3-.5 0-2.2 0-3.9-.2-3.1-.3-5.7-.2-6.8.2-.7.3-2.2 0-2.2-.3 0-.6-7.2.4-9 1.3-.4.2-1.5.3-2.5.3-1.2 0-2 .2-2.5.6-.7.4-1 .4-1.6.2-.6-.2-1-.2-1.2 0-.3.3-.6.3-1.6 0-.7-.2-1.6-.2-2.3-.1a1692.7 1692.7 0 0 1-6.7.9c-3 .3-5.2.8-5 1.2 0 .2.8.4 1.7.5 2.1.2 4 .7 4 1 0 .4-2.1.3-3.6-.2a42.7 42.7 0 0 0-18.1.2c-1.5.1-3.3.4-4 .7-1 .3-1.3.3-2.1 0-1-.2-5.7-.2-8.1.2-1 .2-1.4 0-3.3-1-2.1-1.2-4-2.7-4-3.1 0-.5.6-.2 1.8.8 1.2 1 1.5 1.2 3.3 2 1 .4 1 .4 7.3.3 6.4-.2 11.2-.7 13.7-1.4.9-.2 3-.4 5.9-.4 4-.1 4.5-.2 5.4-.7 1-.6 2.3-.8 6-1 1.8 0 2.8-.2 3.5-.6.7-.3 1.4-.4 2.8-.4 3.2.2 3.6.2 4.9 0 .6 0 1.5-.2 1.9-.4.3-.2.7-.2.8-.1l1.2-.2a64.4 64.4 0 0 1 8.8-1.6c1.6-.3 2-.3 2.7.1.8.5 1 .5 2.3.2 1-.2 2.8-.3 5.3-.1 3.2 0 4 0 4.5-.3.4-.3.8-.3 1.6-.1 1.8.3 2 .3 2.5-.8.5-1 .6-1 2.2-1.1l10.4-1.3c1.5-.4 3.7-.4 4.6 0 .6.2 1.4.2 3 0l2.9-.4c1.5-.2 2.8-.5 3.7-1 1-.6 1-.9.4-1.6-.2-.4-.3-.8-.2-1.3.2-.7.1-.8-.3-.7a96.5 96.5 0 0 1-21.9.2c-2.7 0-3.6 0-3.9-.4a7 7 0 0 0-2.3-.8c-2-.4-3.2-1-3.2-1.5 0-.6.8-.5 1.8.2.7.5 1.5.7 3.2 1 1.2.1 2.4.3 2.7.5l3.1.2a65.5 65.5 0 0 0 19.7-.2c.5-.4 3.2-.6 4-.3 1.2.4 1.1 1.2 0 1-.8 0-1 .1-1.3.8-.4.8-.4 1 0 1.5s.4.8.1 1.2c-.3.5 0 .8 1.2.8.4 0 1.4.2 2.2.5 4.2 1.4 5.3 1.7 6.8 1.8 2.1.2 2.2.7.2.8-1 0-2-.1-3.2-.6a53.8 53.8 0 0 0-8.7-2.5c-.3.3-3.7 1-6 1.3l-6.8.4a96.5 96.5 0 0 0-9.1.6c-3.7.5-3.8.5-4 1.5l-.3.8 2 .2a115.5 115.5 0 0 0 6.3.6l-.1.6c-.2.4-.2.5 0 .5l1.4.3 2 .4c.7.1 1 .4 1.1.7.1.5.3.6 1.5.4a88.6 88.6 0 0 0 19.8-.3c.8 0 2-.3 2.4-.6 1.1-.6 5.2-1.8 6.9-2l3.7.1c4 .5 4.8.5 6.2-.2l1.6-.6c.2 0 .4 0 .5-.2.1-.2.4-.3.7-.3 1 0 .3.8-1 1.2a5 5 0 0 0-1.7.9c-.5.5-3.2.5-6.3 0-2-.2-5.2-.1-5.6.3-.4.3.5.7 3 1.3l9.2 2.3c1.4.4 3.3.8 4.3.8 1.5.1 1.8.2 1.8.6 0 .4.4.4 4.2.4h4.1l1.9-1 3.8-1.6 1.8-1c0-.2 0-.6.3-.8.6-.7.2-1.2-1-1.4l-4.1-1.3-4.7-1.6c-1.7-.5-1.8-1-.3-.8l4.6 1.4a206.6 206.6 0 0 0 10.6 3.6c0 .3.5.4 2 .5l3 .2 1 .1v-1.7c.2-1.4.4-1.8 1-2.2.9-.7.8-1.2-.2-1.2-.7 0-3.3-1.1-4.2-1.8a10 10 0 0 0-3.2-.5c-3-.2-7.5-.8-8.9-1.2-.5-.2-.8-.5-.8-.6 0-.6 2.5-.7 6.7-.4a116.7 116.7 0 0 0 7.7.5c.2.2.6 0 1-.5.8-.8.9-1.4.3-1.4-.2 0-.4.2-.4.5 0 1.1-1.4.9-3.1-.6-1-.8-1.7-.7-1.7.1 0 .8-1 .6-1.3-.2-.6-2.2 0-3.6 1-2.4.4.4.6.5 1.1.4.6-.2.6-.3.2-.6-.2-.1-.4-.5-.4-.8 0-.5-1-2.2-1.3-2.2l-.5.5c-.2.3-.4.4-.7 0-.3-.2-.4-.5-.4-.8.2-.6-.3-.6-1 0-.7.4-.7.4-1-.1-.6-.7-.5-1.3 0-2 .6-.7 1.3-.5 1 .3-.2.7 0 .6 1-.3.4-.4 1-.8 1.2-.8.6 0 .7.7.2 1.4-.4.6-.4.7 0 1 .3.3.4.3.4 0 0-.5.8-1.3 1.3-1.3.2 0 .3.3.2 1 0 .8 0 1 .6 1.1.5.1.7.3.6.9 0 1 .4 2 .8 1.9.5-.4 2 .7 2.4 1.7.3 1 .7.7.7-.6 0-.6-.2-.9-1.2-1.5l-1.2-1c0-.3 1.6-.8 3-1 1.6 0 1-.5-1.2-.7-2.3-.2-3.6-.6-3.6-1 0-.2.4-.3 1.1-.2l3.1.3c1.9.2 2.1.2 2.6-.4.7-.8 1.3-.5 2.3 1 .7 1 1 1.2 2.3 1.5l2.2.4c.5 0 .7.2.7.6 0 .6 0 .6-2.8.1-2.2-.3-4.3-.2-5.3.5-.5.3-1.2 2.2-1.2 3.4 0 .3-.3 1-.7 1.3-1.1 1-.6 2.2 1.4 3.3l.6.3v-2.4c0-1.8.1-2.3.4-2.2.3 0 .4 3.4 0 4.2-.3.8.3.5.8-.4.4-.6.5-1.2.4-2.7 0-1.5 0-1.9.3-1.9s.4.4.5 1.7c0 1.6 0 1.7.6 1.5l2.3-.2c1.5 0 1.8 0 1.8.4.1.5 0 .5-1.2.3-1.4-.2-3.3.4-3.9 1.3-.3.5-.2 1.4.2 2 .2.2.2.6 0 1.1-.5 1.4-.4 1.8.2 1 .4-.5.6-.5.9-.3.3.3.4.3.5 0 .1-.3.4-.4.7-.4.4 0 .6.1.6.6 0 .4-.1.7-.3.8-.3.2-1.1 3-1 3.3.3.2.7-.5.7-1.2 0-.8.4-1.2 1-1.1.5 0 .5.3.2 1.5-.2.7-.2.7.2.2.4-.5.5-.5 1-.3.4.3.5 1 .2 2-.2.5-.2.6.1.3.3-.2.5-.2.6-.1.2.2.2 1.8 0 2.7-.2.6-.2.6-4.2.6-2.6 0-4.3-.1-5-.4-.7-.2-1.2-.2-2.2 0l-2.8.5c-1.3 0-1.5 0-1.7-.3zm-28.7-2-.3-.3-.3.3.3.3.3-.3zm-2.9-2.4a3 3 0 0 0-1.3-.4l-1-.1.8.4c1 .4 2 .5 1.5.1zm40.7-.5c.2 0 .3-.7.4-1.3.1-1 0-1.1-.1-.8-.5.7-.8.6-.8-.1 0-.5-.1-.7-.4-.5-.5.1-.5 0 .1-1.8.7-1.8.1-1.7-.7.1a16 16 0 0 1-.7 1.7c-.4.6-.4 2.5-.1 2.9.2.3 2 .2 2.3-.2zm2-1.9.1-.9-.4.9c-.2.5-.5 1.3-.5 1.7l-.2.9.4-.8c.2-.5.5-1.3.5-1.8zm-6.9-11.4c0-.2-.1-.1-.1.2 0 .3 0 .4.1.3v-.5zm-1.5-.7c0-.4-.1-.6-.7-.6s-.6 0-.2.6l.7.5c.1 0 .2-.2.2-.5zm6.8-3.9c-.2-.4-.7-.5-.7-.1 0 .2.3.5.6.5.1 0 .1-.1 0-.4zM1 141.6c-.3-.5 1.4-1 4.8-1 3.4-.2 3.4-.2 3.6-.9 0-.5.3-.7 1-.8l3-.6c1-.3 3.3-.6 5-.7 2.8-.3 3-.4 3-.9 0-.4.3-.6 1.3-.9.7-.2 2-.3 2.6-.3 1.5 0 1.6-.4.5-1.3-1.2-.8-3.1-1.2-6.6-1.1-2.5 0-3.3-.1-2.7-.5.2-.2.7-.2 1.2-.1.5 0 1.5 0 2.2-.2a5 5 0 0 1 2.8.1l2.3.5a5 5 0 0 1 1.7 1.2 5 5 0 0 0 2.1 1.2c2.1.4 5.6 1 8 1.1 1.3.1 2.8.4 3.4.6 1 .3 1.3.3 2 0 1.1-.3 5.4-.4 6.3-.1 1.2.4.2.7-1.7.6-1.5-.2-2-.1-2.2.2-.5.6-3.3.6-4.6 0-.6-.2-1.7-.4-2.6-.4a37 37 0 0 1-8.5-.7c-.7-.7-4.3-.1-5.1.9-.5.6-1 .7-4.5 1-5.2.6-8.4 1.3-8.4 1.9 0 .8-1 1.2-2.6 1.1-1 0-3 0-4.4.2l-2.9-.1zm190.4-4.3c0-.1.2-.3.4-.3l.3.3c0 .2 0 .3-.3.3s-.4-.1-.4-.3zm-8.9-.2c-.2-.4 1.4-1 2.6-1 2.3 0 2.7-.7 1.1-1.8-1-.6-1.9-.6-2 0-.1.5-2 .7-2.7.3-.6-.3-.3-.8.4-.6.4 0 .5 0 .5-.4 0-.7.6-1.8 1-1.8l.8.5c.6.5.6.5.6 0 0-.7.3-.8 1.3-.4.6.3.8.6.7 1-.2.3 0 .4.4.5.4 0 .7.4.9 1.1.2 1 .4 1.1 1.1 1.3 1 .2 1.5.6 1.3 1-.2.3-1.6.4-2.3 0-.3-.2-1-.1-2.3.1-2 .5-3.1.5-3.4.2zm-11-1.3c-.4-.3-.2-.5.7-.7 1.1-.2 1.9.2 1.2.6-.5.3-1.7.4-2 .1zm5.4-.5c0-.4.3-.5 1-.4 2 0 2 .8 0 .8-.9 0-1 0-1-.4zm17.4-.7c0-.3.3-.4.7-.4.6 0 .6 0 .4.4-.2.2-.5.3-.7.3-.2 0-.4-.1-.4-.3zm-29.3-.5c0-.2.8-.6 1.7-.9a9.4 9.4 0 0 0 3.4-1.7c0-.1.4-.3.8-.3.5 0 .8-.4 1.8-2 1.7-3 6.3-9.4 9.3-13.1 1-1.4 1.2-1.7.8-1.8-.5 0-.7.1-1.4 1.2-.2.4-.3.5-.6.2-1-.9 1-2.9 2.5-2.6.6.1 1 0 1.3-.4.6-.5.4-1.3-.2-1.3-.7 0-2.8 1.2-5 2.8a3547.5 3547.5 0 0 1-7 5.6c.3.3 4.6-2 6-3 1-.9 1.5-1.1 1.7-1 .5.6-.5 1.7-2.2 2.8-1 .5-2 1-2.3 1-1.1 0-2.7 1-2.9 1.8l-.4 1.8-.3 2.5c0 2-.2 2.6-1 3-.5.2-.6.5-.6 1 0 .4 0 .8-.2.9l-2.6-.7c-2.6-1-3-1.6-1.4-1.8 1.3-.2 1.1-.7-.3-.8-1.2 0-1.6-.4-.9-.6l3-.4c2.9-.2 3.1 0 1 1-.8.4-1.1.6-.9.8.2 0 .3.4.2.6-.2.6.2.5 1-.1l1-.5c.5 0 .6-.6.8-3.7l.2-2.4-1 .4-1.4.9a2 2 0 0 1-1.1.5c-.4 0-1.1.5-1.7 1-1.3 1.3-1.7 1.4-1.7.7 0-.6.8-1.4 2.6-2.5l1.4-1a63 63 0 0 0 10.2-8.7c-.1-.3.1-1 .5-1.8.7-1.6 2.9-4.8 3.4-5 .2 0 .2-.2-.2-.7-.4-.7-.2-1.4.4-1.2l1 1 1.5 2 .9 1 .2-.7c.4-1 .8-1.1 1.5-.6l1.3.4c.4 0 1 .3 1.4.6l2 1.5c1 .7 1.3.8 1.7.5.3-.2.5-.5.5-.6-.1-.2.2-.5.8-.7.7-.2 1-.2 1.7.1.4.2.8.6.9.8.2.6-.8 1-1.6.8-.4 0-.8 0-1 .2-.2.2-.6.2-1 .2-.3-.1-.6 0-.7.3-.4.7-.7.7-1.7-.5-1.3-1.3-1.5-.9-.3.7l1 1.5c0 .7-.7.7-1.5 0l-.8-.8.2 1.2v1.4c-.2.3-1.2-.3-1.2-.7 0-.2-.1-.4-.4-.4-.2 0-.4-.3-.5-.7-.2-.5-.3-.6-1.3-.5-.6 0-1.4.2-1.6.4-.5.3-2 2-4 4.6l-1.7 2.3a35 35 0 0 0-4.6 6.5l2.1-2c2.2-2.3 3.7-3.9 4.4-4.4 1-.8 2.6-3 2.6-3.6l.4-1.4.5-1.3c.1-.3.4-.5.9-.4 1 .1 1 .9.4 1.6-.4.3-.6.7-.6 1 0 .3 0 .7-.2.9 0 .3 0 .4.4.4.7 0 .7.3.1 2-.5 1.4-1 1.5-.9.2 0-.5 0-.9-.2-.9-.5 0-1.8 2-2.4 3.7a24.5 24.5 0 0 1-2.8 6.5c-.2 2-.8 3-1.4 2.4-.2-.2 1-3.6 1.8-5 .4-.8.4-1 0-1-.3 0-1.3 2.2-2.3 5-.7 1.8-1 2-1.6 1.7-.3-.2-.2-.6.6-2.2 1.7-3.6 2-4.5 2-4.6-.3-.2-2.2 1.5-2.5 2-.3.6-2.6 3.1-4.4 5-1 1-1.5 1.3-2.4 1.5-.6 0-1.6.3-2.2.5-1.3.5-2.9.5-2.7 0zm14.7-21.1v-.3c-.1 0-.3.1-.3.3v.3c.2 0 .3-.2.3-.3zm2.6-1.6c0-.1 0-.3-.2-.3l-.2.3v.3l.4-.3zm1.2-.7c.1-.1 0-.6-.4-1-.4-.5-.7-1.1-.7-1.4 0-.4 0-.4-.2 0-.1.5.7 2.6 1 2.6l.3-.2zm5.6 23-.2-1.5c-.1-.8-.3-1.2-1-1.8-.7-.6-.8-1.1 0-.8.4.1.4-.2 0-2-.5-1.7-.5-1.5-.5-2.1 0-.4-.1-.3-.7.3-.4.5-1 1.1-1.1 1.5-.4.7-2.6 3.4-4.4 5.4-.9 1-1 1-1.3.6-.5-.7-.3-1 1.4-3.3a83 83 0 0 0 2-2.5c.2-.3.6-.5.8-.4.3 0 .9-.5 1.6-1.4 1.2-1.5 1.4-2 .9-2.2-.3 0 0-.8.8-2.4a100.8 100.8 0 0 0 2.4-4.8c.5-.3.6.4.1 1.2-.6 1.2-.5 1.5.6 1.6.8 0 1 .2 1.1.7 0 .5 0 .6-.7.6s-1.6.5-1.6.9c0 .3 1 .1 2-.4 1.3-.6 1.6-1 1.1-1.3-.5-.3.3-1.7 1-1.8.5 0 .6 0 .6.7 0 1 .2 1 1.2.8 1-.2 1.8.3 1.6 1-.1.3 0 .4.9.4.7 0 1 .1 1.2.4.2.4-.4.8-1 .5-.5-.2-2 .6-2.5 1.2-.4.6-1 .6-1.2.1 0-.2-.4-.4-.7-.4-.3 0-.5.2-.6.7 0 1-1 1.2-1 .3 0-.5-.1-.7-.5-.7-.8 0-1.4.9-1.2 1.7.2.7.1.7-.3.6-.6-.1-.6 0-.5 2.3.1 2.6.3 2.8 2 3.3.5.2 1.3.5 1.7.8.3.3 1 .5 1.3.5 1.1 0 .8.5-.4.7-2.5.2-4.6 0-3.2-.4.4 0 .7-.3.8-.4 0-.3-1-1-1.5-1-.4 0-.4 2.1 0 2.3l.2.4c0 .4-1 .4-1.2 0zm.2-10c0-.5-.7-.5-1.2 0-.4.5-.5 1-.2 1.3.2.2 1.4-1 1.4-1.4zM11.2 132l-4-.3c-2.5 0-4-.3-3.8-.4.3-.6 10 0 10 .7 0 .2-2 .3-2.2 0zM174 132c0-.2.3-.4.6-.5 1.5-.4 2.1 0 .9.6-1 .4-1.5.4-1.5 0zm-115.9-.6c0-.2.9-.3 2-.4l2 .1c0 .2-.7.2-1.6.2a9 9 0 0 0-2 .2l-.4-.1zM201 130l-.2-1.5c0-2-.2-3.3-.6-3.3-.2 0-.8.4-1.3.9-1.2 1-1.8 1-2 0 0-.6.2-1 1-1.8 1.2-1 2-1.2 2-.4-.1.5.8.7 1 .2.3-.4.7-.3 1 .2 0 .3.3.7.6 1 .5.5.5.6 0 1-.4.5-.8 2.3-.4 2.3.2 0 .4-.2.6-.4.4-.5 1.3-.5 1.3 0 0 .4-2 2-2.4 2-.2 0-.5 0-.6-.2zm-159-.4-.8-1.4c-.3-.5-.8-1-1.1-1.2-.8-.3-1-.7-1-2l-.3-2.4-.2-1.3 2.5-2.6c1.4-1.4 2.6-2.8 2.7-3.1l1-2.3c.8-1.7.8-2.3.1-2.6-.4-.1-2.8 1.4-4.1 2.6l-2.6 2c-2.6 1.5-2.6 2 0 1.1a5 5 0 0 1 1.8-.4c.6.4.2 1-1 1.6-1.5.8-2.6 2-2.3 2.7l.4 1.6.7 2.6.7 2.3c.1.6.3.8.7.7.7-.1 1.2.6 1 1.2-.3.7-1.7.5-2.7-.3-.4-.4-1.2-.9-1.7-1-1.4-.2-4-3-4-4.3l-.4-1.2-.7-2.2c-.3-1.4-1-2.7-1.6-2.7-.5 0-.2 1.6.7 3.3l1.6 3.9c.7 1.8.9 2.1 1.7 2.4.6.3.8.5.6.7-.7.7-6.2.6-6.2-.1 0-.2.5-.5 1.1-.7 1.1-.3 1.1-.3 1-1.3-.1-.5-.7-2-1.4-3.2-1.2-2.6-1.5-3.7-1-4.3.3-.4.3-.6-.5-1.7-1.7-2.2-2.9-3.3-3.3-3.2-.3 0-.7.5-1 1-.3.7-.5 1-.8.9-.6-.3-.5-1.5.3-2.3.7-.7.7-.7.1-.7-.5 0-.5-.2-.5-1.6l-.3-2.7c-1.2-5.1-1.2-6 .2-9.7a21 21 0 0 0 1.9-8c.2-2.7.3-3.2 1-4.6l1.7-3.3c.5-1.1 1.4-2.3 2.4-3.2 1.5-1.5 2.6-3.1 3-4.6.2-1 1-2.2 2.3-3.4 1-1 1.1-1 .8-2L34 67c0-1 .9-2.5 1.6-3 .9-.4 1.9-1.8 1.7-2.2-.1-.3-.4-.4-1.3-.2a7 7 0 0 0-1.6.4l-3.7.2-7.2.4-8 .5c-2.1.1-4.3.3-4.8.5-.5.1-2.6.3-4.7.3-2 0-4 .1-4.4.3-.6.1-.7 0-.7-.3s.2-.4.8-.4c.4 0 .8-.1 1-.3 0-.2 0-.2-1.3-.3-.8 0-1-.5-.9-1.2l.2-2.2c-.1-1.2 0-1.4.2-1 .2.1.4.9.4 1.6 0 1.8 0 1.8.5 1.8s.7-5.5.2-6c-.3-.4-.2-.7 0-1.4.7-1.6 1.2-7.9.8-10.1a6.5 6.5 0 0 1 0-2.8l.2-5.3c0-4 .2-6.6.7-8.6.1-.6 0-.7-.7-.7-1.1-.2-1.4-1-.4-1.2 1-.3 1.2-.7 1.3-3.4 0-2.8 0-3 1.3-2.7.7.2 1 .9.8 1.6-.2.6-.5.5-.8-.2-.2-.9-.5 0-.7 2.3-.3 2.5-.1 3 .9 3 1.2 0 1.7-.9 1.7-3.8.1-2.4.1-2.6.7-2.8.4-.2.7-.1.8.1.4.6.3 2-.2 2.3-.5.3-.8 4.3-1 14-.3 15.7-.3 17.7.2 18.3.3.4.3.8.2 1.2-.3.6 0 4.8.3 5 .4.5.7-.5.6-2-.2-2-.2-7.3 0-8.4l.4-8.2c.1-4 .4-8.8.6-10.6.3-3.3.3-3.3-.3-3.8-.6-.4-.6-.5-.1-1 .4-.5.4-1 .4-4.1-.1-3.1 0-3.7.3-4 .9-1 2.5-.6 2.5.5 0 .6-.2.6-.8 0-.4-.3-.5-.3-.7.2-.2.3-.3 2.1-.3 4.2l-.3 6.3a247 247 0 0 0-.2 13.3v12.3c-.1 4.4 0 5.9.4 5.9.5 0 .7-9.7.6-22l.1-3.3.3-5.6c.1-6.4.4-9.3.7-9 .1 0 .4 0 .6-.2.2-.2.5-.3.7-.2.1.1.6 0 1-.3.7-.3 1-.4 1.5-.1 1.6.7 2.5.2 2.5-1.3 0-2.4-1-3.8-3.5-5.6-.4-.3-.7-.7-.7-1 0-.6.4-.7.7-.2 0 .1.4-.1.8-.7.3-.5.7-1 .9-1 .3 0 .3.2 0 1-.3.5-.3.7.2 1.4.3.4.5 1 .4 1.2-.1.3 0 .4.3.4.2 0 .4 0 .4-.2s.3-.6.7-1c.5-.8.9-.9 1.8-.9.6 0 1.6.2 2 .4 1.2.5 1.3.4.6-2.2-.6-2.6-.7-2.7-3.6-2-.5.1-.7 0-.7-.2 0-.6.5-.8 2.3-.8 1 0 1.4 0 1.4-.4 0-.2-.2-.4-.5-.5l-1.1-.5c-.4-.2-1.1-.4-1.6-.4-1 0-1-.4 0-.7.7-.1.8-.3.7-.7-.2-.7.2-.8 1 0 .6.7 1 .8 2 0 .6-.5 1.7-.6 2.4-.2.5.3 0 .9-.6.7-1.4-.4-2.3 2-1.3 3.2.7.8.9.8 1.9-.2.5-.5 1.1-.8 1.6-.8.6 0 .7.1.7.8 0 .7 0 .8-.8.8-.5 0-1.1.2-1.4.5-.5.5-.6.8-.5 2.2 0 1 0 1.7-.2 1.9-.2 0 0 .4.4.7.6.5.7.8.7 1.5-.1 1 0 1 1 1.3.7.2 1.3.3 1.5.1.1 0-.2-1-.9-2.2-.6-1.2-1-2.2-1-2.5 0-.5.6-.3.7.3 0 .3.5 1.1 1 1.9.4.7 1 1.8 1.1 2.4.6 1.8 1.7 2.8 3 2.8.5 0 .8 0 .8.2l1 .7c1 .5 1.4 1 .8 1.3-.3 0-.2.1.1.3.3.1.6 0 1-.3.3-.4.3-.4 0-.7-1-.5-.6-.8.6-.6l1.2.1-.1-2c-.2-1.9-.3-2.2-1.1-3-.8-.8-1.2-1.9-.6-1.9l.7.8c.7.8.8.8 1-.6.2-.8.1-1-.2-.9-.6.1-.6-1.3 0-1.8 1-1 .9-3-.4-4.4-.7-.8-1-.5-1.2.8-.1.8-.3 1.4-.5 1.4s-.3-1.2-.2-3.1c0-.1.5-.2 1.2-.2 1 0 1.3-.1 1.4-.6l.6-.8c.4-.3 1.5.6 1.8 1.6.3.7.5 1 .8.8 1.4-.6 1.8-.7 2.2-.6.6.3.3.8-.4.8-.8 0-2.7 1.3-3.3 2.4-.6 1-1 3-.7 3.4.2.3 1.6-.4 1.7-.9.2-.4 2.9-1.2 3-1 .1.2 0 .6-.3.9-.4.5-.4.5 0 .8.2.2.5.5.5.7 0 .3-.7.4-1 0-.2-.4-1.9-.3-3 .1-1 .4-1.7 1.4-1.5 2 .2.4.5.4 1.4.3 1 0 1.2 0 1.3.4l.6.8c.5.4.2.8-.7 1-.8.2-2.2 1.4-2.2 2 0 .5 1 1.4 1.6 1.3.3 0 .4-.3.4-.8 0-.7 0-.8 1-1.3.7-.2 1.3-.6 1.4-.8.3-.4.7 0 .5.5-.1.5.5 1.3 1.3 1.4.8.2.5.6-.5.7-.8.1-1 0-1-.4-.2-.6-1-1-1.5-.7-.8.5.7 2 1.8 1.9l2.7-.3c1.8-.2 1.9-.2 1.7.3-.1.5.2.5 9.8.5 8.8 0 10 0 9.8-.4-.4-1-.4-1.3.1-1.6.5-.2.5-.4.3-1-.2-.3-.2-.8-.1-1 .2-.3-.4-4-.9-5.3a6 6 0 0 0-.7-1.5c-.3-.2-.3-.6-.2-1.2.2-.7.3-.7 1.5-.8.7 0 1.5-.3 1.8-.5.3-.2 1.1-.4 1.8-.4l10.5.4 1.2.2-.2-.9-.7-1.7a5 5 0 0 1-.5-1l1-.6c.4-.3.8-.8.8-1 0-.6.5-.5.9.3.3.6.4.6 2.5.6h2.2l-.5-.6c-.3-.4-.5-.6-.7-.4-.7.6-.6-.3.2-2C88.9.4 89.6-.2 89.6.7c0 .2.2.5.5.6.3.2.3.3 0 .8-.3.7-.3 1 .2.6l.4-.7c0-.2.2-.4.5-.4.6 0 .6 0 0 1a13 13 0 0 1-1.3 1.7l-.7.8.8-.1c.6 0 .8-.3 1-.8.3-1.6 2.3-4 2.3-2.7 0 .3.1.3.5 0 1-.5 1 0 0 1.4s-1.4 1.6-1.7 1c-.1-.2-.2-.1-.4.2-.4.6 0 .9.8.7.6 0 .9-.3 1-.8.4-1 2-2.7 2.2-2.5.2 0 0 .5-.4 1l-.6 1.2c0 .4 0 .3.4-.1l.3-.7.6-.2c.4 0 .5 0 .4.4l-.4 1c0 .6 0 .7.6.7.3 0 .7.2.8.4.2.5-.3 1.8-.6 1.6-.2-.1-.5 0-.7.2-.3.3-.8.5-1.2.6-.9.2-1 .6-.4 1.2.4.2.6.2 1 0 .4-.3.5-.3.5 0s-.2.5-.4.5-.4.2-.4.5-.2.6-.4.7c-.3.1-.3.3.1 1.2.3.6.7 1 .8.9l.3-1.4c0-.7.3-1.3.5-1.3.2-.1.3.1.1 1.2-.2 1.3.2 3 .7 3 .4 0 .6-3 .3-3.4-.3-.3-.2-.7.3-2.3.9-2.5.9-3 0-4.6-.7-1.5-.7-1.5-.2-1.4.4.1 1 1.2 1.5 3.2.2.8.2 1.5 0 2.7-.3 1.4-.3 1.6 0 1.8.3.2.5.6.5 1.4 0 .7.1 1.3.2 1.3.3.2.7-1 .5-1.3-.1-.2 0-1.9.1-3.8a86.7 86.7 0 0 0 .5-7c.4-.3 1 .2 1.5 1 .3.6.3.8 0 1.3-.2.3-.5 1.2-.6 2-.5 4.4-.8 13.7-.4 16.2.2 1 .4 4.6.4 7.8 0 3.3.2 6 .3 6.2l.2 6-.1 6.6c.1 4.1.3 6.2.5 6.7.4 1 .1 3.9-.4 4.3-.2.1-.3.4-.3.6l-.4.7c-.3.2-.4.6-.4.9 0 .3-.2.7-.4 1-.2.1-.4.4-.4.6l-.8 1.7c-.7 1.2-.7 1.2-.6 5.8v6.6c0 1.1 0 2.4-.2 2.8-.2.5-.3 1.5-.1 2.7.1 1.7.2 2 1 2.6 1 .8 1.7.7 3.1-.4.8-.6 1.2-.8 1.7-.7.5.2.7 0 .8-.3l.6-1.5c.5-1 .6-1.7.5-4l-.2-3.4c-.1-.3-.4-2.4-.5-4.7l-.5-4.2c-.3-.3-.4.5-.4 3a15 15 0 0 1-.3 2.7c-.7.7-1-2-.4-4.5l.3-3.2c0-1.2.2-2 .4-2.2.4-.4.8.3.5 1 0 .2 0 .7.2 1.1.3.5.5 2.1.7 4.3a33.7 33.7 0 0 0 1 6.1c.3 1 0 7-.4 8.7a19 19 0 0 1-1 2.4l-.7 1.6.5.6.6.8 1 1 2.3 1.7c1.1.9 1.3.9 1.9.6.5-.3.8-.3 1.1-.1.6.4 2 3.2 2.1 4.4 0 .7.3 1.1.7 1.3l1.2.9c.4.3 1.2.6 2 .7a7 7 0 0 1 3.6 1.9c.1.2.4.1.6 0 .3-.3.5-.3 1 0 .8.4 3 1.8 4.2 2.8.6.5 1.2.8 1.3.7.2-.1.3-.7.3-1.4 0-1 0-1.2 1-1.5.5-.3 1.2-.4 1.6-.4.3 0 .8-.3 1-.5.3-.4.4-.4.6 0 .3.4 0 1.3-.6 1.7-.3.3-.4.7-.4 2v1.5h1c.7-.1 1-.3 1.8-1.4 1.1-1.7 1.1-2.8 0-3.1-1-.3-1.2-.7-1.2-1.8v-.5c-.2.9-.6.5-.5-.5 0-1 .7-1.6.7-.7 0 .4 0 .4.3 0 .1-.4 0-.7-.2-.9-.4-.3-.4-1.1.1-5.4.3-2.2 1-4.9 1.4-5.4.3-.4.8-3.6 1-6.7 0-1.7.3-4 .6-5.2.3-1.1.5-2.5.5-3 0-.9.2-1.3.9-2 1.1-1.3 1.8-1.2 1.8.4 0 .8 0 1 .4 1s.5-.2.5-.5c0-1 .5-.9 1.5 0 .8.7 1 1 1 1.7 0 .6.2 1 .4 1.2.6.3.2.9-.5.7-.9-.2-2 1.1-2.2 2.7a312.8 312.8 0 0 1-2.2 16.6c-1.5 4.5-2.4 12.2-1.6 13.2.4.5 1.6.5 1.6 0v-2.5c0-2.7.4-6.3.7-6.7.2-.2.2 1.2 0 7.4 0 1 0 2.3.3 3.1.5 1.6 2.3 4.3 3 4.5.7.3 1.1 1.1.9 2.2-.1.8 0 1 .6 1.2l1.5.9a8 8 0 0 0 1.6.9c2 .7 3.6 2.2 2.6 2.3h-.6c-.2 0-.3.3-.2.5 0 .3-.1.5-.4.6-.3 0-.5-.1-.5-.7-.1-.6-.4-.9-1.8-1.5-3-1.5-3.5-1.6-6.4-1.6a111 111 0 0 0-13.6.8c-.2-.5-.8-1.1-1.6-1.4-.6-.2-1.2-.6-1.5-.8a6.7 6.7 0 0 0-2.8-1.6c-.8-.2-1-.2-1.6.2a5 5 0 0 1-2 .6 36.7 36.7 0 0 0-16 3.7c0 .3-.5.6-.9.9-.7.3-1 .3-2.2 0-.8-.2-1.6-.3-2-.2-.6.1-1.6-.4-1.4-.8.1-.2.7-.2 1.7-.1 1.2.1 1.7 0 2.4-.3.5-.3 1.4-.6 2-.7l2-.7a19 19 0 0 1 5.6-1.6l5.4-.5c4.2-.5 4.4-.6 5-1.3.7-.9.8-1.8.1-2.2-.5-.2-1-.8-1.8-2.6-.4-.9-.4-1 0-1.7.3-.4.4-.9.3-1l-3.3-.6c-4.3-.6-4.5-.7-4.5-1 0-.3.4-.6.9-.9.6-.3.7-.5.4-.6a2 2 0 0 0-.8-.3 14 14 0 0 1-2.3-.5c-2.2-.7-3.7-2-3.5-3 0-.6 0-.7-.6-.7-.4 0-.8-.2-.9-.4 0-.2-.7-.4-1.4-.5-.8 0-1.2-.2-1.2-.4 0-.5 2-.4 3 0l1.3.7c.6.3.7.5.6 1.5 0 .9 1.6 1.7 4.7 2.5 2 .5 2.6.8 2.7 1.1 0 .3-.2.6-.6.8-.9.4-.6.8.5.8l2.8.4c2 .4 10.1.6 10.5.3.2-.3-1-1.5-1.6-1.5l-.6-.3c0-.1-.4-.3-.8-.3-.3 0-1-.3-1.6-.8a11.9 11.9 0 0 0-6.8-2.8c-1-.1-1 0-1.3-2.8-.1-.6-.4-1.2-.6-1.3-.2-.1-.4-.4-.4-.6 0-.5-.6-1.7-.8-1.7l-.2.4c0 .6-.6.5-2-.4-1.3-1-1.4-1-1.6-.2-.2.7-.5.4-.8-.8-.2-.6-.5-1.1-.9-1.3a9 9 0 0 1-2.9-2.8c-.6-1-.7-1-1-.6-.7.5-2.6.5-3 0-.4-.5-2-1-2.6-.8-.3 0-.7.4-.8.8-.2.4-.5.7-.7.7l-1.6.8c-2 1.4-5.1 2.2-5.5 1.6-.3-.4.5-.8 1.8-1 1.6-.2 3-1 4.4-2.2 1-.9 1.8-2 1.8-2.6 0-.4-1.6 0-3.1.6-.8.4-1.6.6-2 .6-.6 0-1.8.6-1.8 1h.6c1-.3 1.4-.3 1.4 0 0 .6-1.7 1-2.1.6-.5-.6-2.5-.1-2.8.7-.3.7-1.2.9-1.8.4-.3-.4-1.2-.2-5.5 1l-4 .8c-1.5 0-1.7 0-1.6-.4 0-.4.4-.5 1.3-.7a43 43 0 0 0 7.2-1.3c.7-.4.3-.7-1-.7-.6 0-1.2-.2-1.4-.4l-1.7-.4c-2-.2-1.5-.7 1.2-.9l6.7-.4c4-.3 6-.7 7.4-1.4l2-.9c1.6-.5 1.6-.6 2-1.9.2-.8.3-3 .3-6.7v-5.5L96 68c-1 .1-2 0-2.3-.1l-2.7-1a20 20 0 0 1-6.4-3.8c-.6-.7-1.4-1.2-1.4-.9l1.3 1.7a6 6 0 0 1 1.2 1.5c-.2.2-2.4-2-3.8-3.7L80.8 60l-4.6.2c-2.6 0-6.5.3-8.7.4-4 .3-6.1.2-5-.3a13 13 0 0 1 2.8-.2 55 55 0 0 1 9.3-.6l5.4-.3c.1-.1-.2-.7-.6-1.4-1.3-2-2.4-4.8-2.7-7.3-.2-1.2-.4-2.6-.6-3a7 7 0 0 1-.3-1.6c0-4-.4-6.4-1-6.8a6 6 0 0 0-1.2-.4l-1.3-.7a18 18 0 0 0-6-2.1 9.7 9.7 0 0 1-2.8-.9c0-.1.2-.5.5-.7.4-.5 1-.6 2.8-.6 3.1 0 3.2 0 2.4-3.4a38.7 38.7 0 0 1-.9-5c-.1-1.3-.3-1.6-.8-1.8-1-.3-1.4-.3-1.4.3 0 .7-.5.7-1.2-.1-.7-.8-1.2-.8-1.4-.3 0 .3.1.7.6 1.2.3.4.7 1 .7 1.2 0 .8-.8.4-1.8-1a7 7 0 0 0-1.1-1.5c-1.4-.2-4.3-.2-4.6 0-.3.2.1.7 1.7 2.2 1.4 1.3 2 2 1.8 2.1-.3.2-2-1.3-4.5-3.8-.6-.6-.9-.6-2-.6-1.4.2-1.5.4-.5 1 1 .7 3 2.8 2.9 3.1-.3.5-1 .2-1.5-.7-.3-.5-1.3-1.4-2.2-2.1-1.4-1-1.7-1.2-2.5-1.1-.5 0-1.7 0-2.7-.3a5.8 5.8 0 0 0-2.9 0 3 3 0 0 1-2.1-.2c-.6-.2-1.7-.4-2.4-.4h-1.2l1.6 1.4c1 .9 1.5 1.5 1.4 1.7-.1.2-.3.3-.4.3-.4 0-3-2.5-3-3s-.5-.5-2 .2l-1.3.5.8.7c.6.5.7.7.4.9-.6.3-2-.6-2.2-1.6-.1-.3-.5-.6-.8-.7a9.8 9.8 0 0 0-4-.1c-.7.2-1 .2-1.7-.2-.6-.3-1-.3-1.1-.1-.2.1 0 .4.6.7.5.2 1 .6 1.2.8l.6.4c.3 0 .6.8.3 1-.2.3-.6.1-1.1-.4a20 20 0 0 0-4.9-2.8c-.5 0-.5.8 0 1 .8.2 2.7 1.9 2.4 2.1h-.6c-1.5-1.1-4.3-2.5-4.8-2.5h-.7l.8.6c.4.3.6.8.5 1-.2.4-.5.3-1.7-.5-.6-.5-1.6-1-2.2-1.1-.8-.2-1.3-.5-1.5-.9l-.3-.6-.5.6c-.4.5-.5 1.1-.5 2.7 0 2 0 2.1.6 2.1.7 0 1.8.8 1.6 1 0 .2-.4.2-.8.2-.5-.2-.6 0-.6.6 0 .4-.1 1.1-.3 1.6-.4 1.4.3 2.4 1.7 2.4l2.4.3a67.7 67.7 0 0 0 3.3.8c0 .4-2.1.3-3.7 0l-1.6-.3-1.6.1c-1.7.1-2 .4-1.4 2 .4 1 .4 1.3 0 1.5-.4.3-.8 3-.5 3.5l1.7 1c1.7.9 3.5 1 6.2.3 1.7-.4 2.4-.4 2.2.2-.1.3-5 1.2-6.5 1.2-.5 0-1.2-.2-1.6-.5-.8-.7-.8-.7-1.7.1-.6.6-.7 1-.9 2.5-.1 1.8-.1 2 .6 2.7l.7.9-.7.5c-.6.4-.7.7-.7 2 0 .7.2 2 .4 2.7.4 1 .6 1.3 1.1 1.4.4 0 .7.2.8.3 0 .3-1.5 1.2-2.2 1.2-.5 0-.5 1.2 0 2.7.3 1.1.5 1.2 1.6.5.5-.3 1.2-.6 1.7-.6 1.1 0 .9.3-1 1.1-1.7.7-2.5 1.3-2.2 1.6 0 .1.9.3 1.8.3 1.3 0 1.7-.1 2-.5.1-.3.4-.4 1.5-.2 1.7.3 6 .2 10.5-.3 4.7-.4 7.2-.6 13.6-.8 2.9 0 6-.3 7-.4 1.8-.2 10.3-.3 11.2 0 1.5.3.3.5-3.6.5a59 59 0 0 0-5.7.1l-6.6.2c-5.2 0-6 .2-6 .7l.8 1.8c.5 1 .8 1.9.8 2.2 0 1 .3 1.4.9 1.4.2 0 .8.2 1.2.5.8.4.8.4 1.3 0 .5-.5.6-.9.6-2 0-2.3 1.2-4 2.2-3.3.7.5 1 2.1.7 4.3a9.3 9.3 0 0 1-.6 2.6c-.4.5.8 1.5 1.3 1 .4-.3 4.2-.1 4.1.2 0 .2-.9.2-2.2.2-2.2-.1-2.3 0-1.8 1.1.3.6.4.7 1.4.6H51c.2.2.4 1.2.5 2.6.2 2.2.2 2.2-.6 3.4-.5.6-.9 1.4-.9 1.7 0 .6-1.3 2.3-2.5 3.3-1.5 1.2-1.5 1.2-.7 2.8.3.8.7 2.1.7 2.9l.2 1.6.3 2.4c.1 1.2.4 2.8.7 3.5.3.7.5 1.7.5 2 0 .5.3 1.2.6 1.8 1 2 1.3 5.1.6 5.7-.3.3-.5.3-1.2-.3-.5-.3-1-.7-1-1-.6-.8-.9-.2-.7 1.4a9 9 0 0 1-.2 3.2l-.8 3a6 6 0 0 1-.8 1.9l-.7 1.4c-.2.7-1 1.9-2.5 3.4-2.5 2.6-2.9 3.4-2.1 5.5l.4 1.7c0 .2.2.6.5.7.3.2.8.7 1 1.1.6.9.6.9 3 1 1.4 0 2.5.1 2.7.3.2.2-.1.3-1.4.3l-3 .1c-1 .1-1.5 0-1.6-.2zm-5.3-3.4c.2-.3-.8-2.8-1.7-4l-.7-1 .6-1.2.6-1.4c0-.5-1.2-.4-1.7.1-1 1.1-1 1.6-.5 3.3.4 1.4.8 2.1 2.5 4.2.3.3.7.4.9 0zm-2.1-10.5c.5-.2 1-.6 1.2-.9.2-.2.7-.6 1.2-.8.5-.3 1.5-1.1 2.4-2a8 8 0 0 1 1.9-1.4c.4 0 2.4-1.3 3.3-2.3.7-.5.7-.7.6-1.9-.2-1.5-.8-3.9-1-3.9-.2 0-.9 1-1.6 2.1-.8 1.2-1.8 2.4-2.3 2.7-1 .6-1.5.3-.6-.3 2-1.4 4-4.7 3.6-6.3 0-.5-.2-1-.4-1L42 101c-.8 1.5-2 2.6-2.5 2.2-.2-.2 0-.4.4-.8.9-.7 1-1 .3-1.1-.3 0-.2-.2.5-.5.5-.3 1-.7 1.2-1 0-.3.3-.6.5-.6.4 0 .5-.6.1-.9l-.5-1.6-.6-1.6c-.3-.2-.2-1.9.2-3.8l.4-2.7c0-1.2 1.1-3 1.7-2.7.5.2.3 2.3-.3 3.3-.2.3-.5 1.6-.6 2.8l-.3 2.2 1 1.2c.5.7.9 1.5.9 1.7 0 .2.2.8.5 1.3s.5 1.1.5 1.5c0 .5.2.7.5.8.3.1.6.4.7.7 0 .3.3.4.6.3.3-.1.4-.4.2-2 0-.9-.3-2.4-.4-3.3-.2-1-.2-2.1-.1-2.7 0-.6 0-1-.2-1.3-.5-.5-.8-3.4-.4-3.6.5-.4.2-1.2-.9-2.3L44 84.6c-.6-1-.8-1-.6 0 .1 1.2-.1 1-.8-.3l-1.1-1.7c-.3-.3-.4-.6-.2-.6.1 0 .3-.4.3-.9 0-1-1.5-3-2.6-3.5-.5-.2-1-.6-1.1-1-.4-.9-1-.6-1 .4 0 .7-.2.8-.6.5-.7-.3-1.6-.3-3 0a16 16 0 0 0-6.2 5.3 14.9 14.9 0 0 0-2 9.1c.4 1.7.2 2.1-1.3 4.5a9.8 9.8 0 0 0-1.8 4.5c-.1 1.3.4 5.3.8 6 .1.5.3 1.3.3 2 0 1.2.5 2.8.9 2.8a8 8 0 0 0 3-2.5c.5-1.4-.5-3.4-1.7-3-.5.3-.5.8 0 1.8s0 1.2-.8.4c-.7-.8-1-1.8-.8-2.4 0-.2.5-.6 1-.9 1-.4 1-.4 2 .1 1.5.8 2 2.6 1.3 4-.4.7-.4.8.4 1.6 1.4 1.4 2 1 2-1.2 0-1 1.3-5.9 1.7-6.3.3-.3.1 2.9-.3 6.2-.5 3.3-.7 6-.6 6.4.1.4 2.4.3 3.4-.2zm0-3c0-.3.9-1 3-2 2.3-1.3 2.6-1.4 2.6-.7 0 .4-.6.8-2.1 1.6-2.5 1.2-3.4 1.5-3.4 1.2zm1.8-3.3 1.3-.6a62 62 0 0 0 1.7-.5c.8-.2.7.4-.1.7-1 .4-3.2.7-2.9.4zm-.1-2.6c0-.2.8-.8 1.9-1.4l2.6-1.4c.8-.6 1.3-.7 1.3-.3 0 .4-3.4 2.8-4.5 3.2-1.1.4-1.3.3-1.3-.1zm-1.5-3c-.2-.5 0-.6 1.3-.8 1.4-.1 1.7.3.5.6l-1.2.3c-.2 0-.5 0-.6-.2zm1.5-2.2c.2-.4 2.4-.8 2.7-.5.3.3-.1.5-1.5.7-1 .1-1.3 0-1.2-.2zm-1.3-1.2c-1.2-.2-1.6-.5-1.6-1.3 0-1 1.1-1.2 2.1-.4.4.3 1 .5 1.4.5.8 0 1 .5.2 1-.4.3-.5.4-2.1.2zm4.7-.8c0-.5 1.6-1.6 2-1.2 0 .2-.1.5-.7 1-1 .7-1.3.8-1.3.2zm-10 0c-.3 0-.8-.4-1.2-.8-.7-.6-.7-.8-.6-1.9.3-1.7.4-2.2.7-2 .2 0 .3.4.3.8s.1.6.3.6c.3 0 .5-.6.7-1.9l.7-2.8.4-1.4c0-2 1.5-6.7 2.3-7.4.5-.5.4.4-.2 1.6-.5 1-1 2.7-1.3 5.7l-.5 2.4c-.3.3-1.1 4.5-1.1 5.5 0 .4.1.7.4.7.5 0 .8.5.4.8l-.5.2-.7-.1zm4-2.4c.3-.4 1.5-.5 1.5-.1 0 .3-.6.5-1.4.5-.4 0-.4 0-.2-.4zm-.5-3.4c-.4-1 1-6.7 1.5-6.7.2 0 .2.2.1.6l-.6 3.4c-.5 2.9-.7 3.5-1 2.7zm109.3 21.6c.7-.3.9-1 .4-1.2-.4-.2-.3-1.6 0-2 .3-.2.3-.4-.1-.7a2 2 0 0 0-1-.4c-.2 0-1-.8-1.7-1.8-.6-1-1.4-1.9-1.5-1.9l-1.6-.6c-.6-.4-1.2-.6-1.3-.5l-2 .4c-3.2.5-4.7.2-4.5-1 .1-.9-1.4-1-7.2-.5-.9 0-3 1.1-3 1.5 0 .2.4.5.7.6.3.1.6.6.7 1a13 13 0 0 0 2.6 3c1.3 1.2 2.5 2.5 2.6 2.7 0 .3.9.8 1.8 1.2l1.6.7 6.5-.2c3.5 0 6.7-.2 7-.3zm-15-2.1c-.3-.4-1.6-1.7-3-2.8-1.3-1.2-2.2-2.3-2.2-2.6 0-.7.6-.6 1.2.3.3.5.8 1 1.3 1.3l.8.4-.8-1c-1.2-1.6 0-1.2 2 .8l1.8 1.7.3-.8c.4-1 1.1-1.2 2-.6 1.3 1 2.4 1.4 3.2 1.4 1 0 2 .4 2 .9 0 .6-4.2 1-4.4.4 0-.2-.2-.3-.3-.1-.2.1-.1.2 0 .3.6.2.5.6-.1.7-.3.1-.9 0-1.3-.2-.8-.4-.8-.4-1 .1-.2.8-.7.7-1.5-.2zm8.3-2c-.2-.1-.3-.5-.3-.8 0-.8 1-1 1.3-.2.5 1 .1 1.4-1 1zM30.1 114c0-1.6-.1-1.7-.6-1.3-.5.4-1.7 0-2.5-.8l-.6-.8-.7.6c-.6.6-.6.6-.2.9.3 0 1 .6 1.5 1 .5.6 1.1 1 1.3 1 .2 0 .7.2 1 .5l.8.4V114zm19.6-10c0-1-.7-1.8-1-1.4-.3.2-.2.5.1 1 .6 1 .9 1.2.9.3zm87-4.4c.1-1 .3-1.6.7-3.4.4-2 .4-3.7 0-2.3-.1.3-.3.6-.5.6V94c.6-1.5.9-2.4.9-3.2 0-.5.1-1.2.3-1.7.4-.9 1.4-6.5 1.2-6.6l-.7-.3c-.4-.2-.6 0-.7.5 0 .5-.4 1.6-.7 2.6-.3 1-.4 1.9-.3 2 .2.4-.5 6-.8 6.2-.1.2-.2-.4 0-1.7.1-2.5-.3-1.9-.6.7 0 1-.2 2-.3 2.1 0 .2 0 .4.2.4.1 0 .3-.2.3-.5s.1-.6.3-.6c.1 0 .2.3.1.8-.9 4.6-.9 5 0 5l.6-.1zM45.6 82.3c2.5-1.1 2.5-1.1 3-3 .5-1.4.7-1.8 1-1.8.7 0 1-.7.8-2.5 0-1.2-.1-1.3-.7-1.3-.5 0-.7.2-.8.6-.1 1.2-1 .5-1.5-1.3-.6-1.7-.6-1.7-.9-1l-.3 1c0 .5-1.2 1.6-1.7 1.6-.8 0-.7-.8.3-1.7 1-.9 1-1 .8-2V69c.2-.3.2-.7.2-1-.2-.4-.9-.3-.9.2 0 .3-.5 1.1-1.1 1.9-1 1.3-1.2 1.3-1.5.9-.2-.3-.3-.8-.2-1.3.2-1.3-.5-1.6-1.9-.7-1 .6-2.2.6-2.2 0l.7-1.6.7-1.5-.5-.8c-.2-.5-.6-1-.8-1-.4-.1-1.6 1-2.2 2.1-.5 1-.5 1.1-.1 2.2.3 1.1.3 1.3 0 2.1-.3.5-.7 1-1 1-.7 0-2.3 2-2.3 2.8l-.2 1.2c-.3.7 1 .5 1.7-.2.6-.8 2.1-1.5 3.5-1.5s2.4.9 3.5 3c.5 1 1 1.8 1.2 1.8.2 0 .8 1 1.3 2.1l1.1 2 1-.4zm94.4-2c.2-.3.7-3.5.9-5.3 0-1 0-1.4-.2-1.4-.3 0-.4-1 0-1.2.2-.2-.8-2.5-1.1-2.5-.2 0-.4 1.3-.7 3.4-.7 7-.7 7-.3 7.2.5.3 1.3.3 1.4-.1zm-100.6-4c-.4-.7-.8-1-1-.8-.1.1 0 .4.4.7.9.7.9.7.6 0zm-1.6-1c0-.3-.4-.4-.8-.4-1 .2-1 .6 0 .7.7 0 1-.1.8-.4zm59.9-9.1c0-.2-.3-.3-.4-.3-.2 0-.3.1-.3.3l.4.2c.3 0 .4-.1.3-.2zm-2.6-.3c.3-.5-.7-1.1-1.8-1-1.5 0-1.7 0-2.8-1a73.8 73.8 0 0 0-3.9-3l-2-2.3a13.7 13.7 0 0 1-2.7-3.7c-.5-1-1-2-1.3-2.2-.5-.5-1.1-3.3-1.6-7a12 12 0 0 0-.4-2.3s-.3.1-.5.4c-.7 1 0 6.8 1 9l.9 2c.4 1.5 6.5 8 8.4 8.9a103.5 103.5 0 0 0 4.4 2c.8.5 2 .6 2.3.2zm0-1.6-.6-.3c-.2 0-.4-.2-.4-.7a6 6 0 0 0-1-2.2c-.5-.8-1.3-2.4-1.6-3.4-.3-1.1-.7-2.4-1-2.8-.6-1.4-.7-1.8-1-4.8-.3-3.6-.3-4.5 0-6.9.2-2.3.5-2.1-4.4-2.3-4.4 0-4.5 0-4.5 2.1v1.8l2.7-.1c2.5-.1 2.7 0 2.7.4 0 .3 0 .4.5.4 1.2 0 .2.7-1.5 1l-3 .6c-1 .2-1.2.1-1.5-.4-.4-.5-.4-.5-.3.5.1 1.3.8 3.2 1.2 3.3l2.2-.5 2.4-.7c.3 0 .5 0 .5.3 0 .2-.7.5-2.2.8-1.8.4-2.6.8-2.3 1l1.2-.2c1.6-.5 3.8-.8 3.8-.4a55 55 0 0 0-2.3 1.1c-1.3.5-1.4.6-1.3 1.2.1.4 0 .8-.2 1.1-.6.6-.3 1.5 1 3 .9.9 1 1 1.3.6.2-.4 3-2 3.7-2 1.3 0 .3 1.3-1.9 2.4-.6.4-1.1.8-1.1 1 0 .2.4.6 1 .9 2.4 1.3 3.5 2 4.5 2.9 1.3 1 3.8 2.1 3.3 1.3zm3.7-1c0-.3-.4-.7-.9-1-.4-.3-1.2-1-1.7-1.7-1.4-1.9-2.5-2.6-1.5-1l.5 1.2c0 .7 1 2 2 2.4 1.1.6 1.6.6 1.6 0zm-92.3-.5c.9 0 1.7-.2 1.8-.4.2-.3-1-.5-2.1-.2l-2.1.4c-.5 0-1 .3-1 .4 0 .2.3.2.9.2l2.5-.4zm93.4-1c0-.4.4-1.5 1-2.5 1-2.1 1.3-3.7.8-4.7-.3-.6-.4-2.2-.4-7.8 0-9.5-.3-16.6-.7-16.6-.5 0-1.3 1-1.1 1.4.2.5-.3 1-1 1-.4 0-1 .7-1 1.4 0 .2.7.8 1.5 1.4 1.6 1.2 1.7 1.3 1.6 2 0 .4-.3.6-.8.7-1.5.1-1.6.2-.7 1 .8.8 1 1.4.2 1.4-.2 0-.3.2-.2.6 0 .6 0 .6-2 .8-1.4.1-2.1 0-2.2-.2-.3-.4-1.2.1-1.3.9 0 .5 0 .5 2.1.5 1.7 0 2.3.1 2.7.5 1 .9.5 1-2.7.6l-1.2.1-1 .2v3.7l3.5-.1h3.6c.1.2-1.4 1.1-1.9 1.1l-2.4 1.1c-1.8.9-2.2 1.2-2 1.5l.5 2c.2.9.5 1.8.7 2 .4.5 1.4.4 2-.3.7-.9 1.8-1.5 2.7-1.5.4 0 .8 0 .8.2 0 .4-1.4 1.9-2.6 2.7-1.7 1.2-1.8 2-.5 3.3a6 6 0 0 1 1.2 1.5c.4 1 .8 1 .8 0zM98.5 34c-.1-.4 0-.7.4-.5.3.2.3 1 0 1l-.4-.5zM5.6 61.2c.2-.1.4-1.4.5-2.8.2-2.5.2-2.5-.4-2.6-.6-.1-1-.8-.4-.8 1 0 1-.6 1-6.4v-6.8c.1-2.1 0-6.4-.2-9-.1-2.3 0-2.8.3-3.7.6-1.4.4-2-.7-1.7l-1 .4c-.3.2-.5 6.1-.6 19.4 0 5.9-.2 11.3-.3 12-.2 1.3-.2 1.5.2 1.8.6.4 1.2.5 1.6.2zm87.6-8.5a27.8 27.8 0 0 1 0-13.8c.3-1.8.6-3.3.5-3.5-.2-.2.6-1.7 1.3-2.4l1-1.6.7-1c.2 0 .5-.4.8-.9.4-.5 1-1.1 2-1.6s1.5-.9 1.5-1.2c0-.3-.1-.5-.3-.5-.5 0-3 1.7-4.4 3-1.7 1.7-2.4 2.7-2.4 3.7 0 .4-.3 1-.6 1.6-.3.4-.5 1-.5 1.3 0 .6-.8 2.3-1.1 2.3-.2 0-.2.2-.1.4 0 .2 0 1.4-.3 2.6-.6 3.2-.6 8 .1 10.6a34 34 0 0 0 1 3l.4 1 .4-.6c.4-.6.4-.8 0-2.4zm-5.8-13.8c.3-.8.4-.8 1.5-.7h1.4c.4-.3 1.2-2.1 1.2-2.7 0-.9 1.3-3.1 3-5.2 2.2-2.8 3.5-4 5-4.6l1.3-.6-.2-3.5c-.2-4.4-.3-5.5-.8-6-.3-.4-.5-.5-.8-.3-.3.2-.8.2-1.1.1-.5 0-.6 0-.6.4 0 1.4-1 .5-1.4-1.2-.1-.4-.3-.9-.5-1-.5-.3-.2 1.3.6 2.8.7 1.4.7 1.6.5 2.2-.3.5-.3.8 0 1 .3.4 1-.9 1.2-2.4.1-.6.3-1 .4-1 .4 0 .3 1-.1 2.3l-.3 1.6c.1.2 0 .6-.3.8-.4.3-.5 1.3-.2 1.3l1-.8c.8-.9.9-1 .8-.2 0 .3-.4.8-.8 1l-1 .8c-.4.6-1.1.3-1-.5l-.3-1.6-.6-3c-.2-1.6-.7-2.8-1.2-2.8-.4 0-.9 1.1-.8 1.9 0 .4-.3 1.4-.8 2.2a5 5 0 0 0-.7 2.5c0 .8.2 1 1 1 1.5.3 1.2 1-.3 1l-1.3.2-1 1.9c-1.2 2-1.5 2.5-2 2.5-.3 0-.2-1 .4-2.3.6-1.3.9-4.3.5-4.6-.2 0-.2-.9.1-2.2l.4-2.1.4-.2c.3 0 .4.3.3 1l-.2 1 .4-1c.2-.7.6-1.4.8-1.8 1-1.4.2-2.5-2-2.7-.7 0-2.3-.3-3.4-.5-3.2-.7-7.4-1.5-8.5-1.6-.8-.1-1 0-1 .2.2.2 0 .5 0 .7-.3.1-.6 1.7-1 3.5-.3 2-.6 3.2-.8 3.3-.4.1-.4-.6.2-3.9.3-1.5.3-2 0-2.4V12c.2 0 .3-.3.3-.6 0-.4-.5-.5-2.9-.8-4.7-.6-5.7-.5-4.6.5.7.6 2 .9 3.7.6 1.3-.2 2.2 0 1.2.4-.3 0-.7.2-1 .4l-1.2.2c-.6 0-.8.1-.7.3 2 4.7 2.4 6 1.7 6-.3 0-.5-.2-.6-.7-.4-1.6-1.2-4-1.8-5-.8-1.1-.8-1.1-.4.8l.5 3.6c.2 1.8.3 2.4.8 2.7l.5.6c0 .3-1.2.2-1.5-.1-.5-.5-.4.2 0 1 .5.5.6.6.8.2.3-.4.4-.4 1.3 0l1.5.4c.3 0 .6.2.7.4.1.2.4.4.8.5.3 0 .6.3.7.5.2.5-.3 4.7-.6 5.4-.4.8 0 3 .5 3.2.6.2.9.6.5 1-.2.3-.1.4.2.4.2 0 .4-.1.5-.3 0 0 .5-.3.9-.3 1-.2 1.5-1.2 3-5.3.6-1.7 1.2-3.1 1.3-3.1.5 0 .1 1.4-1.2 4.8L79 32c0 .3-.1.6-.4.7-.4.2-.5 1.3 0 1.5.7.3 2.2-.1 2.4-.6.1-.6 1.9-1.4 2.3-1.2.3.2-1.4 2-2 2-.4 0 1.2 1 2 1.1.4.2.8 0 1-.2.5-.4.6-.4.7 0 .2.6.6.5 1.2-.2.4-.4.8-.7 1-.7.4 0 .4-.3 0-.7-.2-.3-.2-.4 0-.8l.7-1c.2-.6.6-.5.7.1 0 .3.2.6.3.6a28.7 28.7 0 0 0 4.6-4.7c-1.5.6-2.3.6-2.5.3-.2-.6.4-3.4.8-3.6.5-.3 1 .3 1 1.1 0 .7 0 .8.7.6.4-.1.8 0 1.1.3.3.2.7.4.8.3.2-.1.3 0 .4 0 .1.2-.7 1-1.9 2-2.4 2-3.9 3.6-3.7 3.8.1 0 .5 0 .9-.3 1.4-1 .6.3-1.6 2.6-2.7 2.8-3.2 3-4.7 2.4a94.2 94.2 0 0 0-5.5-1.4l1.5.9c1.4.7 1.8 1.2.9 1.2-.7 0-2.7-.8-3.3-1.3-.4-.4-1.2-.5-3.5-.6h-3c0 .2 1.7.9 2.4.9.5 0 2.1.2 3.6.6a102.7 102.7 0 0 0 8.4 1.7c.8.4.8.4 1.1-.5zm-3-6c-.6-.4-.3-1.3.6-1.4.4 0 1.1-.4 1.5-.6 1.4-1 1.6.3.3 1.5-.6.5-2 .8-2.4.5zm-9-.8c0-.2.2-1 .6-1.7.3-.8.7-2.2.8-3 0-1 .3-2 .4-2.3 1.1-2 .4 3.8-.7 6-.7 1.4-1.2 1.8-1.2 1zm6-1.1c0-.2.4-.6.8-1s1.2-1.7 1.7-2.8c.6-1.1 1.1-2 1.3-2 .3 0 .2.2-.7 2.5-.7 1.9-1.1 2.5-1.6 2.3-.2 0-.4.1-.5.5 0 .6-1 1-1 .5zm7-1c-.3-.3 0-.6.8-1 1-.5 1.5-.4 1.5.3 0 .6-1.7 1.2-2.2.7zm-2.9-.6c-.2-.3 1-3.2 1.2-3.2.5 0 .4.4 0 1.7-.6 1.5-1 2-1.2 1.5zm7.9-4.4c0-.6.8-.8 1.4-.5.6.2 0 1-.9 1-.4 0-.6-.2-.5-.5zm-7.5-.3c-.3-.3-.3-.4.4-.3.5 0 .8.2.8.3-.1.5-.8.5-1.2 0zm-6-.3c-.7 0-1.5-.2-1.8-.3a6 6 0 0 0-1.7-.3c-1-.1-1.1-.2-1.2-.8 0-.7 0-.8.6-.8.9 0-2.4-1-3.3-1-.3 0-.6-.2-.6-.3 0-.4 3.9 0 4.9.5.7.3.7.4.2.7-.4.4-.4.4.1.4.3 0 .8.2 1 .5.3.6 1.4.7 1.9.3.2-.2.7-.2 1.4-.1 1 .1 1.1.3 1 .7 0 .6-.5.7-2.6.5zm5-1.3c-.4-.3-.5-.6-.4-.7.3-.2 2 .5 2 .9s-1 .3-1.7-.2zm9.4-2.4a16 16 0 0 1-.5-3c.2-.5.5 0 .8 1.5.2.9.5 1.8.8 2 .4.5.3 2.1-.1 2.3-.2 0-.6-1-1-2.8zm-13 1.8c-1.4-.5-1.5-.8-.4-.8.9 0 2.4.7 2.4 1 0 .4-.7.3-2-.2zm-3-.5c0-.4.4-.6 1-.4.8.2.6.6-.3.6-.4 0-.8 0-.8-.2zm15-.3c-.2 0-.3-.7-.4-1.3-.2-1.2.3-1.5.5-.3l.4 1.3c.1.5-.3.8-.6.3zm-11.3-1c0-1.3 2-7.5 2.4-7.5.3 0 .2 1-.6 3.5l-.8 3c-.2.8-.4 1.2-.7 1.2-.2 0-.3 0-.3-.2zm3.5-.7c.5-3 1.1-5.2 1.3-5.2.7 0-.4 5.8-1.1 6-.3.2-.3 0-.2-.8zm-7.9.2.1-1 .6-2.7c.3-2.2.6-3.2 1-2.8.3.2-.2 4-.7 5.7-.3.9-.7 1.2-1 .8zm-5.2-3c0-.5-.1-.9-.4-1-.5-.2-.5-1.4 0-2.6.4-.8.5-1 .7-.6.3.5.3 4.2 0 4.7-.2.3-.3.2-.3-.4zm7.7-4c0-.4.3-.5 1-.5.6 0 .9.1.9.4 0 .3-.3.4-1 .4-.6 0-.9-.1-.9-.4zm-3-.5c0-.3.8-.5 1.7-.5.8 0 1 .4.4.6-.7.3-2 .2-2 0zm18.6 26.8c0-.4-.7-.9-.9-.7-.3.4-.1.9.4.9.3 0 .5-.1.5-.2zm2.8-1.9c.2-.3-.7-.5-1.7-.3-.6 0-.8.2-.5.3.5.3 2 .3 2.2 0zM74 34c.2-.2-.1-.3-1.2-.5-2-.2-2-.2-2 0 0 .6 2.5 1 3.2.5zM72.3 32c.7 0 .7 0 .5-1.2a25 25 0 0 0-2-5.8c-.3-.3-.3-1.2 0-1.2.1 0 .7 1 1.3 2.3a10 10 0 0 0 1.2 2.2c.2 0 .4-.7.5-2.6V24l-1.6-.4-2.3-.7c-.4-.2-.5-.1-.2 1 0 .8.2 2 .1 2.8 0 1.3.4 3.9 1 5.3 0 .2.2.3.5.2l1-.2zM29 21.3c-.4-.6-1.6-1.2-2.5-1.2-.3 0-.5-.1-.5-.2 0-.4 1.4-.4 2.7 0 .7.2 1 .4 1.1.9.2.7 1.2 1 1.2.2 0-1-3.6-3.5-5-3.5-.3 0-.6-.1-.7-.3-.3-.5-.6 0-.4.6.5 1.5.8 2.6.7 2.8-.3.3-1-.2-1.1-1-.3-1.4-.6-2-1-1.6-.3.2-.6.2-1-.1-.5-.3-.8-.6-.8-.7 0-.3 1-.3 1.2 0 .2.1.5 0 .8-.2.7-.6 1.7-1.8 1.3-1.5-.2 0-.5 0-.6-.4-.4-.7-2.2-1.6-3.2-1.6-1.4 0-1.9.6-1.9 2.6 0 1 .2 1.6.3 1.6l2.3 1.3c1.4 1 2 1.4 2 1.8 0 .7.8 1 2 .7.4-.2 1.1-.1 1.8 0 1.6.6 1.8.6 1.3-.2zm5 .3c-.4-.3-.6-.6-.6-.8 0-.3-.2-.4-.8-.3-1.3.2-.3 1.5 1.1 1.5.8 0 .8 0 .3-.4zm-12.1-.3.9-.7-1.1-1c-.7-.3-1.4-.9-1.8-1.2l-.6-.5.2 1 .3 2c.1 1 .7 1 2 .4zm68.4-1.4c0-.6-.1-.6-.3-.3-.3.5-.3 1.4 0 1.2.1-.1.3-.5.3-.9zm-49.5-3c0-.3-1.1-.3-1.7 0-.3 0-.4.4-.4 1v1l1-1c.6-.4 1-1 1-1zm58.6-3.6-.4-2c-.2-.6-.2-.6-.3 0l-.2 1.9c-.2 1.5-.2 1.6.6 1.6.4 0 .5-.1.3-1.5zm-5.8-.4c0-.2-.2-.3-.4-.3s-.4.1-.5.3c0 .2.1.3.5.3.3 0 .5 0 .4-.3zm-1.7-.6c.3-.4.3-.5-.3-.3l-1 .2c-.2 0-.3.1-.3.2 0 .5 1.2.3 1.6-.1zm-2-.3c-.2-.2 0-.3.2-.3.5 0 .6-.5.1-.6a.3.3 0 0 1-.2-.4c0-.3.3-.3.9 0 .7.4 1.5.5 1.5.3 0-.3-1-1.6-1.3-1.8a.8.8 0 0 1-.3-.6c0-.2-.3-.4-.8-.4-1.3 0-3.2.3-3.2.6l1 1.2c1.2 1.3.8 1.7-.8.8a39.8 39.8 0 0 0-14.1-1.4c0 .2 1.8.4 4 .5l6.3.6c2.3.3 2.8.5 3.2 1 .5.6 1.2.8 2.9 1 .5 0 .6-.2.5-.5zm-5.1-.4c-.3-.3-5-.8-5.6-.7-.3.1 0 .2.5.2l2.6.4c2.3.5 2.9.5 2.5.1zM24.4 11c-.2-.4-.7-.6-.7-.3 0 .4.4 1 .6.8V11zM85 9.4l-.3-.7c-.2-.5-.3-.5-.5-.2-.4.6-.3 1 .3 1l.5-.1zm7.2-.7c-.2-.2-.3-.2-.3 0 0 .3.3.6.5.4l-.2-.4zM39.8 7c.1-.6-.4-1.3-.7-1.1-.3.2-.4 1.3 0 1.5.2.3.6 0 .7-.4zm50.4-.2c0-.3-1.5-.3-2.4 0-.5.2-.3.2.8.2.9 0 1.6 0 1.6-.2zm5-.8c0-.5 0-.6-.9-.5-.6 0-.9.2-1 .7 0 .6 0 .6.9.5.7 0 .9-.2 1-.7zm-9.2 0h-1.3c-.4.1-.2.2.6.2.7 0 1 0 .7-.1zm7-3.8c0-.1-.2 0-.3.3-.2.4-.1.4.1.1l.2-.4zm2.2 126.4c0-.4 1.8-.6 6.7-.8 3.6 0 4.7-.2 5.6-.6.6-.3 1.7-.6 2.6-.8.9-.1 1.7-.4 1.8-.6.1-.2 1.3-.4 3.2-.5l3.6-.3c.3 0 .6 0 .6.2a7822.8 7822.8 0 0 1-7.5 1.5c-.9.1-2.3.6-3 1-1.3.5-1.8.6-5.9.6a84.5 84.5 0 0 0-7.7.3zm22.2-1.3c-.2-.2-.2-.4 0-.5.3-.2 1 .1 1 .5 0 .5-.6.5-1 0zm38.3 0c-.4-.4.2-.7 1.7-.7 2.7 0 3.2-.2 3.4-1.1.1-.6.3-.9 1-1 1.1-.3 1.6-.1 1.6.6 0 .3-.1.5-.5.5-.3 0-.7.3-.9.7-.2.5-.7.9-1 1-.8.2-5 .2-5.3 0zm-144.5-2c-1.3-1.4-1.5-1.8-.9-1.8.5 0 2.9 2.8 2.7 3-.3.3-.5.2-1.8-1.2zm181 .7c0-1 2.8-1.6 3-.6 0 .3-.3.5-1 .7-1.4.4-2 .4-2-.1zm-32.1-2.4c0-.2-.4-.4-.8-.4-.3 0-.7-.1-.8-.3l-.7-.2c-.3 0-.8-.2-1-.4a3 3 0 0 0-1.6-.4c-.6 0-1-.2-1.2-.4-.1-.2-.8-.6-1.5-.7-.7-.2-1.4-.5-1.4-.7-.2-.5 2.7-.4 3.7.2l2 .8c.7.2 1.8.7 2.4 1.2l1.7 1c.2 0 .4.3.3.4-.3.4-1 .4-1.1-.1zm1.6-.5c-.5-1.2-.5-1.2.2-1.2.2 0 .5.1.5.3 0 .1.1.2.4.1.4-.2 1 .4 1 1s-.2.7-.9.7-.9-.2-1.2-1zm57.2 0c-.3-.5-.7-1-1-1-.6-.2-.5-.9.2-2 .6-.9 1-.7.8.3-.1 1 .4 1.6 1 1 .4-.5 2.7-.4 3 .1.2.8.1 2.6-.2 2.4-.2 0-.4-.3-.4-.7 0-.9-.5-1.2-1.3-.8-.5.2-.7.5-.7 1 0 1-.8.8-1.4-.3zm-54.6 0c-.3-.3-.1-1 .3-1s.7.6.7 1.1c0 .4-.6.3-1 0zm9.2-.6c0-.5 1.7-2.5 2.1-2.5.7 0 .4.7-.6 1.7-1.4 1.4-1.5 1.4-1.5.8zm-165.6-1-6.5-8.2C.4 112 0 111 .5 111c.2 0 .5.3.8.7 1.1 1.8 5.6 7.5 7.7 9.8.6.6.6 1 0 1-.1 0-.7-.5-1.1-1zm192.6.5c-.5-.2-1.1-2-.8-2.3.4-.4 1 0 1.5 1 .5 1.1.3 1.6-.7 1.3zm3.2-1.3c-.1-.5.4-1 1-1 .7 0 .7.8 0 1.1-.6.4-.8.4-1-.1zm6.6-.3c-.3-.3-.3-.4 0-.6.2-.2.7-.3 1.1-.3.8 0 1-.7.3-1-.5-.2-.5-1.4 0-1.4.3 0 .5.2.6.5l.6 1.4c.6 1.2.4 1.4-1.2 1.7-.8.1-1.1 0-1.4-.3zm-53.5.1c-.3-.8-.4-4-.1-7 .2-2.2.2-2.5-.4-3.5l-.5-1.4c0-.2.5-.7 1-1 .6-.5 1-1 1-1.2 0-.9-1.6-5.2-2.8-7.6-.9-1.8-1.2-2.3-1.4-2-.2.4-.3.4-.9-.1-.8-.8-.8-1.2.1-1.6.9-.4 1.6-.2 1.6.5l1.4 3.1c2.4 4.6 3 7 2.5 9.3l-.1 1c0 .1-.3.2-.6.1-.4-.1-.5 0-.3.3 0 .2.2 2.8.2 5.7 0 4 0 5.3-.3 5.4h-.4zm63.4-.6c-.6-.7-1-1.5-.8-1.9.2-.5.9-.4 1.2.2.3.5.5.5 1.3.4 1.2-.2 1.3 0 .5 1-.6.8-1.6 1-2.2.3zm-168.4-.1c0-.2.4-.2 1.1-.1 1.6.2 1.6.3.1.3-.7 0-1.2 0-1.2-.2zm95.8-.3c.2-.5.8-.5.8-.1 0 .1-.2.3-.5.3-.2 0-.3 0-.3-.2zm52.4-1.1c-.4-.4-.4-.7.1-1.3.4-.4.4-.5-.1-.8-.3-.1-.6-.4-.6-.7 0-.6.8-.7 1.7 0 .7.4 1.2.4 2 .3.8-.1.9-.1.8.3 0 .3-.4.7-.8.8l-.6.4h.7c.9 0 1.2.5.6 1-.6.4-3.4.4-3.8 0zm7 0c-.3-.5.2-.8 1.2-.7.6 0 1 .2 1 .5 0 .4-.1.5-1 .5-.6 0-1.1-.1-1.2-.3zm-35-1.4c0-.7 2-5.4 2.9-6.8.5-.8.9-1.5.8-1.6h-1c-1.2.1-2.6-.2-2.7-.7-.1-.3.5-.3 2.8-.3h3c.2-.2.5-.1.9 0 .8.3 1.2-.2.5-.7-.4-.3-.6-.3-.9 0-.2.1-1 .2-2.5 0-2.6-.2-3.1-.3-3.1-.8 0-.3.4-.4 1.7-.4 1 0 1.8.2 1.9.3.3.5 1.4.3 1.8-.4.4-.6 2-1.8 3-2.1.8-.4.3.7-.8 1.4-1 .6-1 .7-.5.8.3 0 .8 0 1-.2.3-.3.5-.3.7 0 .2.1 0 .7-.8 1.7-1 1.6-2.4 4-3 5.8-.5 1-1 1.3-1 .6 0-.2.5-1.6 1.2-3l1.1-2.5h-.8c-.6.1-.9.3-1 .7 0 .3-.5 1-1 1.7-1 1.5-1.7 3-2.3 4.7-.5 1.6-2 3-2 1.8zm39.4-1c-1.2-.6-1.7-1.3-.8-1.3.7 0 2.6 1 2.5 1.4-.1.5-.5.5-1.7 0zm5.5-.2c-.5-1-.3-2.2.5-2.9l1-.5c.5 0 .4.7-.2 1.1-.4.3-.5.6-.5 1.5.1 1.3-.3 1.7-.8.8zm5.3.1c-.6-.4-.8-1.2-.3-1.2.6 0 1.3.6 1.3 1 0 .5-.4.6-1 .2zm-29.2 0c-.4-.4-.2-.9.4-.9.3 0 .5.1.4.4 0 .5-.5.8-.8.5zm13.7-.1c-.1-.2 0-.5.2-.7.6-.6 1.9-.3 1.7.4 0 .5-1.6.8-1.9.3zm-5.1-.7c-1.1-.4-1.1-1.3 0-1.2.8 0 1.2-.8.7-1.6-.3-.6-.3-1.5 0-1.5.5 0 1 .8 1.2 1.6.1.5.5 1.2.9 1.6.4.5.6.8.4 1-.5.4-2.3.5-3.2.1zM149 115c-.1-.3 0-.6.1-.8.2-.2.4-.1.5.2l-.1.8c-.2.2-.4.1-.5-.2zm64-.9c0-.9.1-1 .9-1.1 1.4-.3 1.6.3.3.8-.5.2-.7.4-.5.6.4.4.3.7-.2.7-.4 0-.5-.2-.5-1zm-5.9 0c0-.2.1-.3.3-.3.1 0 .3.2.3.4l-.3.3c-.2 0-.3 0-.3-.3zm-12.1 0c-.7-.3-.7-1 0-1 .5-.2 1.3.3 1.3.7 0 .3-.7.5-1.3.2zm15.5-.6c0-.4.2-.5.5-.5.7.2.8 1 0 1-.3 0-.5-.1-.5-.5zm-11.6-.1c-.9-.4-1-1-.2-1.2.6 0 1.8.7 1.8 1.2s-.4.5-1.6 0zm5.7-.6-.4-1c0-.8-1.8-1.9-2.4-1.5-.7.4-1.7.4-2 0-.5-.5-.5-1.3 0-1.3.3 0 .4-.2.4-.6l.3-.9c.3-.2.3-.4 0-.7-.1-.2-.3-.7-.3-1.2-.1-.8 0-1 .5-1 .4-.1.7.2 1.2 1.2.8 1.6 1.2 2 1.2 1 0-1.2 1-4.3 1.4-4.3.4-.1.6.2 1.4 3 .5 1.4 1.4 2.9 1.7 2.6l-.3-.8a2 2 0 0 1-.3-1.6c0-.4 0-2-.3-3.5-.5-3-.3-3.7.7-3.4.6.2.6.1.2-1.2-.1-.5-.5-1-.8-1.2-.5-.4-.6-.3-1 .2-.6.7-1.6.5-2.5-.6-1-1-2-1-1.2 0 .1.3.1.6 0 .8-.3.2-.2.7.1 1.9.3 1.1.4 1.7.2 2-.3.5-.3.4-.6-.3a58 58 0 0 0-1.1-2.4 7.2 7.2 0 0 1-.9-3c0-1.2 0-1.2.8-1.1.7 0 .9-.2.4-.7-.4-.4-.2-1.5.3-1.6.2 0 .6.3 1 .9.2.5.6 1 .8 1 .1 0 .3 0 .3.3 0 .5.8 1.7 1 1.7.2 0 .3-.1.3-.4 0-.2.4-.7 1-1.2.6-.7.8-1 .7-1.5-.1-.5 0-.6.6-.6a6 6 0 0 1 2.9.9c.2.1 0 .3-.2.6-.4.3-.5.5-.4 1.4.2 1 .2 1.1-.3 1.3-.8.2-.7 1.2.2 4 .5 1.4.8 3 .8 3.4v1l.6-1.2c.5-1.1.5-1.6 0-3 0-.5 0-.8.7-1 1-.6 1.6-.4 1 .3-.4.4-.5.7-.3 1.4 0 .6 0 1.3-.3 1.9-.2.5-.4 1.4-.4 2 0 1.3-.2 2.1-.7 2.1-.2 0-.4-.2-.5-.5a1 1 0 0 0-.6-.6c-.4-.1-.5-.4-.5-1.3 0-1.4-.3-2.9-.6-2.9s-.3.5 0 1.6c.2.5.3 1.9.3 3 0 2 0 2.2.6 2.2.8 0 .8.7 0 .8-.5.1-.5.2-.2 1.3.5 1.6.5 2.4 0 2.6-.5.2-1.2-.5-1.2-1.2 0-.3-.3-.7-.6-.9-.4-.2-.8-.7-1-1.1-.3-.7-.3-.7-.6-.2-.1.3-.5.6-.7.8l-.3.4.8.6c.5.4.6.5.8.2.3-.5 1-.2 1 .4 0 .2-.2.4-.4.4-.3 0-.7.1-.9.4-.4.5-.8.5-1.4-.1zm3.3-18.2c-.2-.4-.3-.5-.3-.1s.3.8.5.6c0 0 0-.3-.2-.5zm12.8 17.3c.1-.5.7-.6.7-.1 0 .2-.2.4-.4.4-.3 0-.4-.1-.3-.3zm-75.6-.2c-.3-.5-.4-2.4-.5-6.3 0-4.7.1-5.3 1.3-4.8.8.3 2.3 3.3 2.2 4.4-.2 1.3-.7 1.4-1 .1-.2-1.2-1-3-1.5-3.5-.4-.3-.4 0-.4 1.5 0 2.7.2 3.2 1.5 3.3 1.5.1 1.4.9-.2 1h-1.1l.1 1.4c.2 1 .4 1.5 1 2s.6.5 0 .8c-.6.4-1.2.4-1.4.1zm77.6 0c0-.2.1-.3.3-.3.1 0 .2.1.2.3 0 .1 0 .2-.2.2a.3.3 0 0 1-.3-.2zM98 111.4c0-.1.2-.3.4-.3.1 0 .2.2 0 .3l-.3.3c-.2 0-.2-.2-.1-.3zm124-.8c-.1 0-.4-.5-.5-.9 0-.4-.4-1-.8-1.3-.8-.6-.6-1 .5-1 .4 0 1 0 1.3-.2.4-.3.5-.2.5.2 0 .3-.2.8-.4 1-.2.5-.2.7 0 1.1l.4.8c0 .3-.7.6-1 .3zm-7.9-.3c0-.1 0-.3.3-.4.5-.2.8 0 .5.4-.2.4-.6.4-.8 0zm-208-.6c-1-.4-1-.4-.3-.5l1.6-.2c1.8.2 2.9 0 2.9-.4 0-.5.4-.5 1.2.2l1 .5v-.5c-.2-.7.2-.7 1.2 0 1.2.9 1 1.3-.6 1.1-2.1-.2-3.7-.2-5 0-.7.1-1.5 0-2-.2zm-3.4-.3c-.5-.3-.4-.3.7-.2 1.5.2 2 .6.7.6-.5 0-1.1-.2-1.4-.4zm12.9-.2c-.3-.4-.2-.4.7-.4.8 0 1.1 0 1 .3-.1.5-1.4.5-1.7 0zm3.3 0c-.4-.5-.1-.7.8-.7 1.3.1 1.5.8.3.8l-1.1-.2zm192.6-.3c-.3-.4.2-1 .8-1 .5 0 .6.2.6.5-.1.5-1 .8-1.4.5zm-46.7-.4c-.4-.2-.4-.3 0-.6.5-.6 6.3-.3 6.3.2 0 .3-.6.4-2.4.4l-3 .1c-.3.1-.7 0-1-.1zm-10-.5-.4-1.4c-.1-.6-.5-1.5-.8-1.8-1.1-1.7-2.4-6-2-7 .3-.7.7-.2.7.7 0 1.6.8 3.6 1.5 3.9.4.2.7.6 1 1.4 0 .6.5 1.8.7 2.5.3.8.5 1.6.4 1.7-.2.3-.8.3-1 0zm38.2-.3c-.5-.5-.4-1.3 0-1.3s.9.8.9 1.4c0 .6-.4.5-1 0zm-33.8 0v-5c0-4 0-4.6.6-6.5 1.2-3.7 1.2-4.3-.3-8.5-.4-1.1-.5-1.9-.4-2.7 0-.7 0-1.3-.2-1.5-.4-.5-.1-1.2.4-1.2.3 0 1-.3 1.6-.7 1.3-1 2.8-1.7 3.3-1.7.4 0 2.2-1 2.2-1.3 0-.5-3.4-3-5.6-4.1-3-1.5-3.4-1.9-3.4-2.6 0-.6.3-.6.8 0 .3.4 4.8 3 5.2 3 .2 0 .6.4.9.8.3.5 1 1 1.3 1.2l.8.4v-1.4l.1-2c.1-.4 0-.6-.4-.6-.5-.1-.7-.3-.8-1.2-.2-1 .1-5.5.4-6l-.1-.2c-.2 0-.4.5-.6 1-.1.6-.5 1.3-.9 1.7-.4.3-.6.9-.7 1.2 0 .7-.4.9-1.3.4-.5-.2-.7-.5-.6-.8 0-.3 0-.7-.2-.9-1.2-1.1-1.3-3-.5-5.4.6-2 .6-2 0-2-.8 0-1.1-1.1-1-3.3.2-2 1-4 1.7-4.3.6-.2.8.2.3 1.1-.7 1.2-1 2.8-1 4 0 1.4.4 1.7 1 1 .5-.6.5-.7 1.2-.2.9.6.8 1.3 0 1.4-.7.1-.8.4-.3 1 .2.4.2.8-.3 1.6-.6 1.3-.7 2.6-.1 2.9.2 0 .4.3.4.5 0 .6.4.3 1.3-1 .7-1.1.8-1.4.5-1.8-.3-.6-.1-1 .5-1 .3 0 .6-.3.7-.7 0-.3.5-1 .8-1.5.8-.8.8-1 .6-4-.1-1.3.5-1.5 1-.3.4 1.6.3 1.6.9 1.1.2-.2.8-.6 1.3-.7.5-.2.9-.6 1-1 .2-.8 0-1-.7-.6s-1 .2-1-.7c0-.8 1.6-2.7 2.8-3.2.5-.2.8-.5.8-.8l.6-1.6c.7-1.6 1.2-1.4 2 .8.6 2 .8 2.3 1.2 2.3.4 0 0-1.6-.5-1.9-.5-.3-.5-1 0-1.5.2-.2.5-1.4.7-2.5.2-1.8.2-2.2-.2-2.6-.2-.3-.3-.6-.2-1.1a35 35 0 0 1 4.5-6.2c.6-.5 1.6-.2 2 .6.3.8 0 1.1-.8.6-.4-.2-.6-.2-1.4.5-.8.7-1.8 2-1.8 2.3l.7-.2c.3-.3.8-.4 1.1-.3.4.2.3.3-.4.9-.5.3-1.2 1.3-1.6 2-.6 1.2-.7 1.8-.8 4.5 0 2.2 0 3.3.2 3.7.2.3.3 1 .2 1.6 0 1-.1 1-.8 1-.6 0-.7 0-.7.6 0 .4-.2.7-.3.7-.4 0-1.5-1.4-1.6-1.8a2 2 0 0 0-.4-.7c-.3-.5-.4-.5-.8-.1-.3.2-.8.5-1.1.5-1 .1-1.3.9-.7 1.5.2.3.4.8.4 1.2 0 .8-1.2 2.5-2.6 3.6-.8.6-1.1 1-1.1 1.5 0 1-.7 1.9-1.6 2.2-.4.1-.8.5-.8.9l-.4 1c-.1.4 0 .5.3.5.2 0 .5-.2.5-.4.2-.4.9-.7 1.2-.5.2 0 .1.4-.1.6-.7.8-1.7 4-1.7 5.3v1.1l1.3-1c1.5-1.4 2.5-1.5 3.1-.2.4.8.5 2.4.2 2.7-.2.3-1-.5-1-1 0-.9-.3-1.4-.8-1.2-.2 0-.7.8-1.1 1.6a6.7 6.7 0 0 0-.7 3.5c0 2.8.2 3 1.5 1.4 1.2-1.7 2.6-2.7 3.3-2.4l.6.3c.3 0 .2-1.2-.1-2-.2-.4-.2-1 0-1.2l.1-3.7c0-1.8.2-3.6.3-4 .2-.5.1-.5-.4-.4-1.3.5-.7-2.2 1-4.2 2.5-3 2.6-3.1 3.3-3 1 .3 1 .6 0 1.2-.5.2-1 .7-1.2 1.1l-.8 1c-.8.2-.5.6.4.5.7-.2.7-.2.7.9 0 .6-.1 1.2-.4 1.4-.2.1-.3.5-.3.7 0 .3-.2.6-.4.7-.7.2-1.4 4.6-.7 4.6.1 0 .3-.3.3-.7 0-.7.4-1.4.8-1.4.7 0-1 4.8-1.8 5.4-.1 0 0 .7.3 1.6.4 1.3.4 1.7.2 2.4l-.3 1.4c0 1-.9.6-1.2-.4 0-.5-.3-.9-.4-.9-.4 0-2.7 2.5-2.7 3l-.1.8-.1.6c0 .6-.9.5-1.6-.2l-.7-.7-2.5 1.3c-4 2-4.2 2.1-4.3 3.2-.3 1.7-.2 2.9.5 4.9.7 2.3.8 4.6.2 6.6-.7 2.3-1 4.1-1 8.4 0 3.5 0 4.2-.3 4.2-.2 0-.4-.2-.4-.4zm54.4 0c-.3-.5.6-1.2 1-.9v.7c-.2.5-.8.6-1 .2zm-71.7-5.4c0-3 0-5.5.2-5.5.3 0 .5 1.7.6 6.2.1 4.4 0 4.7-.4 4.7s-.4-.4-.4-5.4zm55 4.9c0-.2-.4-.3-.7-.3-.4 0-.7-.3-1-.7-.4-1-.4-1.3.2-1.7.2-.2.7-1 1-1.8a6 6 0 0 0 .6-3.3c0-1.7 0-1.9.4-1.9s.8.5 1.3 1.5c.7 1.3.8 2 .8 3.5v1.9h-.9c-.5.1-1.2.4-1.4.6-.4.5-.4.5.2.4.9-.2 2.3.4 2.3.9 0 .3-.2.3-.8.2-.7-.2-1 0-1.3.4-.3.4-.5.5-.7.3zm21.6-.2c-.1 0-.3-.3-.3-.5 0-.6 1.4-.4 1.6.2 0 .5-.5.6-1.3.3zm-6.4-1.7c0-.4.2-.8.4-.9 1-.3 1.3.5.5 1.3-.7.6-.9.5-.9-.4zm-19.7.3c-.2-.4.1-.8.7-.8.4 0 .8.5.8 1 0 .2-1.3 0-1.5-.2zm25.7 0c-.5 0-.5-.2 0-1.3.2-.5.7-.9 1.4-1.1.6-.2 1-.4 1-.6 0 0-.2-.4-.6-.7-.7-.5-.7-1 .1-1 .3 0 .7.4 1.1 1.1l.7 1.2-.7.5c-.3.3-.9.6-1.2.6-.2 0-.6.4-.8.7-.4.7-.4.8-1 .6zm4.5-.5a.5.5 0 0 1 0-.6c.2-.2.4-.2.5 0v.6c-.2.2-.4.2-.5 0zm-37-.3c-.2-.2 0-.6.3-1 .7-1.1 1.1-2.2.8-2.3-.3-.2-2 .7-2.7 1.4-.3.3-.7.6-.9.6-.4 0-.5-.9 0-1.3.2-.3.2-.4 0-.6-.3-.3-.4-.2-.8.1-.5.4-.5.4-1 0a10 10 0 0 1-1-2.1c-.7-2.3-3.2-6.2-3.8-6.2-.9 0-3.2-3.2-3-4 .4-.8 1.3-.6 1.8.5.6 1.1 1.8 2.4 2 2 .2 0 0-.7-.2-1.3l-.6-3c-.1-1.2-.3-1.9-.7-2.2-.4-.5-.5-.6 0-1.1.3-.6.3-.7-.1-.9a2 2 0 0 1-.8-.5c-.2-.3-.2 0-.2.8 0 1.4-.5 3.1-1 3.4-.3.2-.4-.2-.5-1.6-.2-2-.5-3-1.3-3.5-.4-.2-.5-.5-.5-1.4l.1-1.6c.3-.6 1.1-.5 2 .1l.6.5.6-.7a5 5 0 0 0 1.2-3.2c0-1.2.8-2.8 1.5-2.9.5 0 .5.1.7 2.3l.4 2.8c.2.5.2.5.6-.1.3-.4.5-1 .5-1.6 0-1.6.3-2.7.8-2.8.3-.1.4-.3.3-1-.1-.7.2-1 .9-.5.6.5 1.3 3.6 1 4.3-.2.2-.5.3-.8.2-.5-.2-.6 0-.7 1-.2 1-.1 1.3.4 2 .4.6.6 1.2.6 2.5s.2 1.9.6 2.4c.3.4.6 1 .6 1.3 0 .8.5 2.3.9 3 .3.4.4.3.4-.9 0-.7-.2-1.5-.4-1.7-.2-.2-.4-1.3-.5-2.4-.6-6.8-.6-7.3-.3-7.4.4-.3.6 0 1 1.1.1.6.3 1 .5.9.3-.2.8-3.4.9-5.8V70l1.2-.2h1.3c.2.1.3 1 .4 2.2l.1 2.2c0 .1.4 0 .8-.5.6-.5.8-1 .8-1.6 0-.6.2-1.1.6-1.5l.6-.5-1.2.1c-1 .1-1.3.1-1.5-.2-.2-.6.4-1 1.5-1 .6 0 1.2-.1 1.5-.3.3-.2.8-.4 1.3-.4.7 0 .7 0 .5.9-.1.7 0 1 .2 1 .6 0 1.5-.9 1.1-1-.7-.3-.3-1 1-1.5s2.4-.5 2.4.2c0 .2-.3.5-.6.6-.4.1-.9.6-1.1 1l-.5.6h1.6c.9 0 1.7.1 1.7.3.3.4 0 1-.7 1.2-.5.1-.5.2.3.4.5.1.9.4.9.7 0 .4-1.5 1.4-2.2 1.4-.6 0-.7-.7-.2-.9.3 0 .3-.2 0-.4a.8.8 0 0 1-.1-.7c.1-.4-.2-.4-2.3-.2-2 .1-2.4 0-2.5-.3-.3-.6-.7-.3-.7.5 0 .3-.3 1-.8 1.6l-.8 1.2c0 .4 1.4-.3 2-.9.3-.4.7-.5 1.3-.5.7 0 .9 0 .9-.4-.1-1 .7-.5 1 .6.2 1.5 0 1.7-1.4 1.7-.7 0-1.8.2-2.4.5-1.1.4-1.2.4-1.5 0-.3-.5-.5-.3-1.5 1.2-1.4 1.8-2.4 5-2.7 7.6-.2 1.5-.2 1.8.2 2 .4.2.5.5.3 1-.2.7.7 6 1 6.3.5.3.6 0 1.2-2 .5-1.7.8-2.2 1.8-3 .7-.6 1.2-1.3 1.2-1.6 0-.9 1.3-1.6 3.2-1.8 1-.1 2-.4 2.4-.7.5-.4.8-.4 1.2-.3.9.5 3.2 1.1 4.1 1.1.8 0 1 .1 1 .5-.2.7-2.7 1-3.1.5-.2-.2-.7-.4-1-.4-.5 0-1-.2-1.2-.3-.2-.2-.4-.2-1 .2-.8.6-.8.7.2 1.1l1.3.7c.2.2.8.4 1.2.4 1 .1 1 .6 0 .7-.7.1-1 .6-.3.6.9 0 .4.7-.8 1.2-1.8.8-4 3.6-4 5.3 0 1-1.2 4.6-1.6 4.7-.6.3-.9-.3-.5-1 .6-.8.7-2.2.4-2.8-.3-.4-.2-.7.2-1.6a35 35 0 0 0 1.9-4.6c-.5-.3-1.8-.5-2.5-.4-.4.2-1 .2-1.3.1l-.6.1c0 .2-.3.5-.6.8-.6.6-1.3 2.2-1.3 3.2 0 .6.6.8 1 .2 1-1.3 1.4 0 1.8 6.4 0 .6-.1.7-.7.7-.5 0-.7-.2-.9-1.1l-.3-1.2-.3 1c-.4 1 0 2 .9 2.4.7.4 1 1.3.5 1.7-.5.4-3.3-1.3-3.4-2 0-.4-.2-.2-.7.7-.6 1.3-1.2 1.7-1.5 1.3zm-2.7-6c-.1-.9.4-1.6 1-1.3 0 .1.2-.1.2-.6 0-.7-.2-1-.6-1.1-1-.3-1.2-1.9-.3-1.9.4 0 .2-1-.3-1.5a11 11 0 0 1-1.6-3.4c-.2-1.2-.7-.8-.7.5 0 .6 0 1.3-.2 1.5-.2.3-.3.3-.5-.3-.4-1-.2-2.4.4-3.3.4-.6.3-.8 0-1.7-.3-.6-.6-1-.8-1a5 5 0 0 1-1.2-1c-1-.9-1.6-1.1-1.6-.6 0 .1.1.3.3.3.6 0 1.3 2 1.3 3.7 0 .8.1 2 .4 2.6l.4 1.8c0 .4.3 1.2.6 1.8 1.6 2.6 1.8 3 1.6 4 0 .9 0 1 .6 1.6 1 .8 1.2.7 1-.2zm3.6-1.3c.4-.7-.3-3-1.1-3.7-.8-.7-.9-.4-.4 1.3l.4 2.2c0 .3.1 1 .3 1.3l.3.8.1-.7c0-.4.2-1 .4-1.2zm-6.7-2c-.1-.3-.3-.5-.4-.4-.2.2.1 1 .4 1 .2 0 .2-.2 0-.6zm14.6-6.3c3.3-.6 3.4-.7.9-1-1.3 0-1.7 0-2.2.4l-1.1.7c-.3 0-.5.3-.5.4 0 .2.2.2.5.1a20 20 0 0 1 2.4-.6zm-8.6-7.8v-1c-.4 0-1 2-.8 2.5.3.4.6-.2.8-1.5zm-5.7 0c-.2-.7-.6-1.2-1.1-1.2l-.2-.4c0-.5-.2-.5-.8-.2-.3.2-.1.5.8 1.5l1.4 1.2-.1-.8zm6.8-8.8-.1.4c0 .5 0 .8.1.5v-1zm28.3 32.2a2 2 0 0 0-1-.3c-.7-.1-1-.9-.5-1.4.4-.4 2.7.8 2.7 1.4 0 .6-.8.7-1.2.3zm-1.2-2.4c-1.1-.8-1.4-1.7-.7-2 .5-.1 2.5 1.6 2.5 2.3 0 .7-.5.6-1.8-.3zm-126-.3-1.4-.2c-.9 0-1 0-.9-.6 0-.6 0-.6-2.6-.5-3.2 0-3.7-.4-.6-.6 2.7-.2 4.4 0 4.7.6.2.3.6.6 1 .7.6.1.8.5.4.7H88zm134.7 0c0-.1.1-.2.3 0l.2.2-.2.1c-.2 0-.3-.1-.3-.3zm-19.3-1.2c-.3-.8-.4-2.6 0-2.8.4-.3 1 1 1 2.2 0 1.5-.4 1.8-1 .6zM144 99.5V97c.2-2.6 0-3-1-3.4-1-.3-.7-.9.3-.7 1.5.4 1.7.8 1.5 4-.2 2.6-.4 3.2-.8 2.5zm27.4-.9c-.3-.4-.5-1-.5-1.1 0-.7-1-2.2-1.4-2.2-1 0-1.8-3-1.2-4.8.3-1.2.3-1.3-.2-1.8-.6-.4-.6-.7-.5-2.3 0-1.5.3-2.3 1.4-4.4 1.2-2.3 1.9-3.2 1.9-2.3 0 .3-.5 1.4-1.1 2.5-1 2-1.4 3.8-.8 3.8.1 0 .4-.3.6-.7.4-.9 1-1.3 1.6-1 .2 0 .8.8 1.2 1.6.6 1.2.7 1.7.5 2.3v1.9c.6 2.4.2 3.4-.9 2.4-.5-.6-.5-.5-.7 1-.2 2 .9 2.8 1.4.9.2-1 1-1.2.9-.2l-.3 2.6c0 1.4-.3 2.1-.5 2.4-.7.5-.8.4-1.4-.6zm-1.3-6.8.9-1.6c.2-.3.2-.6-.2-1.4-.5-1.1-.6-1-1.3 1-.5 1.4-.6 2.6-.3 2.9.3.3.3.2.9-1zm43.1 6.8c-1-1-1-1.5-.3-1.5.5 0 2.1 1.6 2.1 2 0 .7-1 .4-1.8-.5zm5 .7c-.3-.4.9-1.4 1.4-1.3.3 0 .7 0 1-.2.4-.2.6-.2 1 .3.8.7.6 1.6-.1 1.2-.6-.2-1.6-.2-2.5 0-.4.2-.8.1-.9 0zm-138.5-.9c-.2-.3 0-.4 3.2-1 2.5-.3 3.4-.3 3 .1l-2.6.6-3 .5c-.2 0-.5 0-.6-.2zm136-.6a3 3 0 0 0-1.8-1 .4.4 0 0 1-.4-.4 5 5 0 0 0-.6-1.4c-.6-1.3-.7-2.4 0-3.3.8-1.4 1.3-.7 1.3 1.8 0 1.3.2 1.7.8 2.5l.7 1 .4-1.1c.6-1.4.6-2.1 0-2.5-.7-.4-.6-1.2.3-1.2 3.3-.4 4.9-.7 5.2-1.2.2-.3.7-.5 1-.5.7 0 .7 0 .5 1l-.3 2.2c-.2 1-.3 1.2-.9 1.2-.6 0-.6-.2-.6-.9 0-1.2-.4-1.5-2.1-1.3-1.4.2-1.5.3-1.5 1s-.4 2.5-.9 3.7c-.3.8-.8 1-1.2.4zm-4.9-.2c-.3-.2-.3-.3 0-1 .5-.8 1-.9 1 0 .1.8-.4 1.4-1 1zM82.3 96.2c.4-.3 1-.4 2.1-.4 1 0 2-.2 2.7-.5 1-.5 7.2-1.3 7.5-1 .3.3-.2.5-2.3.7l-4 .8c-1 .3-3 .6-4.2.7-2 .1-2.2 0-1.8-.3zM97 94.9c-.2-.3 1.2-.7 2.4-.7.6 0 1.8-.1 2.8-.4 1.7-.4 2.8-.4 2.5.1-.1.2-.4.3-.6.3-.3 0-.7.2-1 .5-.4.3-1 .4-3.2.4-1.6 0-2.9 0-3-.2zm46.8-3c-.7-1-.3-1.7 1-1.7.2 0 1-.5 1.6-1.2 1.4-1.3 2-1.4 2.1-.5.2.7-.4 1.5-1.1 1.5a2 2 0 0 0-1 .4c-.2.2-.7.4-1 .4-.5 0-.6.1-.6.7.1.9-.6 1-1 .3zm-54.4-.6c-3.3-.2-3-.7.4-.7 2.1-.1 3 0 3.1.2.3.5 0 .8-.6.7l-3-.2zm121.2 0c0-.8 1.1-3 1.5-3 .6 0 .5.8-.2 2-.6 1.1-1.3 1.6-1.3 1zm-2.6-.4c-.4-.5-1.5-.5-1.7-.1-.3.4-1.2.3-1.2-.2 0-.2.2-.5.5-.6.4-.3.5-.5.4-2.2 0-1.6 0-1.8.4-1.7.3 0 .4.3.4 1.6 0 1 0 1.5.3 1.5.2 0 .5-.3.6-.7.3-.8.8-.8 1 0 .3.7.2 2.5-.2 2.7 0 0-.3 0-.5-.3zm8.9.1c-.3-.3.3-1 .8-1 .4 0 .5.5 0 1-.4.4-.6.4-.8 0zm-1.3-1.3c-.4-.6 3.3-2.2 3.8-1.6.2.2.2.3-.2.4l-1.3.6c-1.6.7-2.2.8-2.3.6zm-11.8-1c0-1.1.6-1 .7.2 0 .6 0 .8-.3.8s-.4-.3-.4-1zm-94.2 0 .2-.6c.3-.4 0-.8-.9-2-1.1-1.3-1.3-2-.6-2 .1 0 .6-.4 1-.9.8-.8 1-.9 2.1-.9 1.6 0 2.7.4 2.7.9 0 .3-.4.3-1.9.2-1.5 0-2 0-2.4.4-.6.5-.7 1.5-.1 1.7l.8 1.4c.3 1 .4 1.3.1 1.6-.3.4-1 .6-1 .3zm80.2-.9c.3-1.3.7-2 1-1.6.4.4-.3 2.7-.8 2.7-.2 0-.3-.2-.2-1.1zm-1.6 0c.2-1.2.8-2.6 1.5-3.6.4-.6 1.4-4 1.4-5h-1c-.7 0-1.2-.2-1.3-.3-.2-.4.6-1.1 1.2-1.1.3 0 .7-.3 1-.6.7-1.2 2.8-1.6 3-.7.2.4.4.5 1.1.5.5 0 1 .1 1.1.3.2.3 1.4.3 1.6 0 0-.1 0-.6-.2-1l-.2-.7 1.5-.3 1.3-.2v1c0 .7-.2 1-.5 1.1-.5.1-.4 1 .3 1.6l.5 1c0 .4.5.6 2 1 1.7.5 2.4 1 2 1.4l-1.7-.1-1.6-.2v1c.2.5.4.7.8.7.8 0 1.1.5.5.8-1.4.7-2.9.5-2.2-.3.3-.5-1-4.6-1.8-5.3-.5-.5-.5-.5-2.3 0-1 .2-2 .6-2.3.9-.6.6-1 .4-.8-.3 0-.4 0-.5-.4-.5s-.6.2-.9 1c-.1.6-.2 1.2-.1 1.3.2.1 4.4-1 4.5-1.3.3-.4 1-.3 1.6.1.5.4.5.4-.2 1.1-.4.4-.7.8-.7 1 0 .2-2.1 1.1-3.2 1.3-.4.1-1 .6-1.5 1-.6.5-1.1.8-1.4.7-.4-.2-.9.5-1.7 2.6-.5 1.2-1 1.3-.9 0zm4-5.8c-.6-.2-1 .1-.8.5.2.2.4.2.7 0 .5-.3.5-.3 0-.5zm20.9 6.4c-.8-.2-1.7-1-1.5-1.3.4-.7 2.7.2 2.7 1 0 .6-.2.6-1.2.3zm2.6-.7c0-.4.3-.5 2-.8 1.6-.2 1.5.4-.2.9-1.5.4-1.8.4-1.8 0zm-66.7-.2c0-.2.2-.5.5-.6.8-.5.7-1-.4-2.3-.7-.8-.9-1.3-1-2 0-1.2 0-1.4-1.2-2-.7-.4-1.3-1.1-1.3-1.6l.5-.7c.4-.3 1-.5 1.9-.5.7 0 1.3-.1 1.4-.3.3-.5-.7-1-3.7-1.8-1.3-.3-2-.7-1.7-1 .1 0 .7 0 1.3.3a6 6 0 0 0 1.7.4c.9 0 3.3 1.2 3.5 1.8.3.7-.9 1.4-2.1 1.4-.6 0-1.3.1-1.5.3-.4.2-.3.3.2.7 1.7 1.2 2.2 1.9 2.1 2.8 0 1 0 1 1.6 2.7.4.5.4 1-.1 2-.5.8-1.7 1-1.7.4zm59.9 0c-.1-.3 1.1-2.5 1.5-2.6h1.8c.3.2.2.4-.5.8l-1 .6c-.1 0-.4.3-.6.8-.5.8-1 1-1.2.4zm12.7-1.2c-.2-.3 1-2.1 1.3-2 .6.1.5 1.4-.1 1.8-.7.5-1 .5-1.2.2zm-8.1-1.3a5 5 0 0 1-1-2c-.2-.8-.4-1.4-.6-1.5-.4-.3-2.6.3-3.1.7-.3.3-.3.4.5.4 1.2 0 1 .5-.7 1-2.1.9-2.3.3-.7-2 .8-1.3 1-1.4 2.4-1.4.8 0 1.1-.1 1.1-.4 0-.7-.5-.7-1.9 0-1.3.6-1.8.6-1.8.1a12 12 0 0 1 3.7-1.8c.2 0 .3-.3.3-.6 0-.4.2-.5.6-.5.4 0 .8.1.8.3.2.3-.7.8-1 .6-.2-.1 0 0 .2.3.5.7.7 1.2 1 3.2.1 1 .5 2 .9 2.7.6 1 .7 1.6.2 1.6a3 3 0 0 1-1-.7zm-47.2 0c-.4-1 1-3.5 1.9-3.5.3 0 .3.2-.2.8a5 5 0 0 0-.7 2c-.2 1-.7 1.5-1 .8zm50.9 0c-.6-.9-.2-1.1 1.4-1.1.7 0 1.3-.1 1.3-.3 0-.1-.6-.2-1.3-.2-1.2 0-1.9-.4-1.5-.8h1.7c1.5 0 2-.3 1.4-.7-.2 0-.3-.3-.3-.5 0-.7 1.2-.5 2 .4.9.9.7 1.1-.9 1.4-.7.2-.8.3-.5.6.4.6-.5 1.3-1.8 1.5-1 .2-1.2.1-1.5-.4zm-20.8-1c-.9-.2-1-.5-.5-.8l2-.2c1.7 0 2.2.3 1 .8-.7.3-.9.4-2.5.2zM100 83c0-.3.5-.4 1.8-.5h2c.3.3-.7.7-2.1.8-1.4.1-1.7 0-1.7-.3zm14.2-1.7-.3-1c0-.2.4-.8 1-1.2a6 6 0 0 0 1.4-1.3c.2-.3.7-.8 1.2-1.1 1.2-.8 1.4-2 .6-3.3-.4-.6-.6-1.4-.6-2.1 0-1.5-1.3-4.4-2.3-5-1.3-1-2.2-2-2.1-2.6 0-.5.2-.6 1.2-.6 1.1 0 1.2 0 1.2-.6-.2-1.1-2-3.3-3.2-4-.7-.3-1.9-1.2-2.6-1.8l-1.3-1.2v-4c-.2-3.2-.3-4-.6-4.4-.4-.5-.4-.6 0-1.3.1-.4.3-1.3.3-2 0-.8.2-1.6.4-1.8.1-.2.3-.2.3 0a1313.1 1313.1 0 0 1 .5 10.4l.2 3 1.2 1c.6.5 1.6 1.3 2.3 1.6.6.3 1.2.9 1.4 1.2 0 .4.6 1 1 1.4 1.1 1.2 1 3.4 0 3.4-.9 0-.6.7.5 1.5.6.3 1 .9 1 1.1 0 .3.4 1 .7 1.8.5.8.7 1.7.7 2.5 0 .7.2 1.5.4 1.8.2.3.5 1.2.6 2 .1 1.4 0 1.5-.7 2.3a42.6 42.6 0 0 0-3.5 3.8c0 .6-.3 1.2-.5 1.2s-.3-.3-.4-.7zm-94.9.4c-.2-1-.1-1.5.4-1.7.7-.2 1 .2.3.6-.5.4-.5.4.1.2.4 0 .8-.2 1-.3.2 0 .4 0 .5.2 0 .1-.3.4-.8.7-1 .3-1.4.5-1.5.3zm2.4-.2c0-.2.7-.5 1.3-.5.3 0 .3 0 0 .4s-1.3.5-1.3.1zm196.2 0c-.2-.4 0-.8.6-.8.7 0 .3-.7-.5-1-.6-.1-.9-.3-.9-.7 0-.9 1-.8 1.7 0l.8 1c.5.3.4.7-.2.7-.4 0-.6.2-.6.5 0 .6-.6.8-.9.3zm4.5 0c-.1-.2 0-.6.2-1 .4-.7.2-1-.5-.5-.8.4-1 .2-.7-1.2.2-1.4.4-1.5 1.4-.8.5.4.6.7.5 2 0 1.5-.5 2.2-.9 1.5zM1.5 81.3c0-.3 2.1-.9 4.6-1.1l2.5-.2c.3.3-1.2.8-3.2 1a43.7 43.7 0 0 0-3.9.3zm6.8-.1c-.3-.2 1-.8 1.8-.8h3.1c.6-.2.8-.2.8.1 0 .3-.4.5-1 .6-1 .3-4.3.3-4.7 0zm7.2-.5c0-.3.8-.6 1.1-.4.5.3.3.7-.4.7-.4 0-.7-.1-.7-.3zm86.7 0c-1-.2-1-.6.1-1.6.6-.6 1-1 1.2-1 .3 0 .2.9-.1 1.2-.4.4-.1.9.4.9.2 0 .4.2.4.4 0 .4-.9.5-2 .2zm101.5-.5c0-.3.6-.8.8-.6.4.3.2.8-.3.8-.3 0-.5 0-.5-.2zM215 80c0-.5.8-.9 1.5-.6.5.2.5.8 0 1-.9.3-1.5.2-1.5-.4zM0 80l.7-.2c.3 0 .6 0 .6.2s-.4.3-.7.3c-.4 0-.6-.1-.5-.3zm205.2-.9c0-.5 1.6-1.1 2-.7.4.4 0 .7-1 1-.8 0-1 0-1-.3zm-34.5-1c.3-.8.3-.8.6-.6.4.2 0 1.2-.4 1.2-.2 0-.3-.2-.2-.6zm31.5 0c-.4-.4-.4-.5-.1-.7.4-.3 1.4.2 1.5.9.1.6-.8.5-1.4-.2zm12.9 0c0-.2.6-.5 1.2-.7 1.7-.7 1.7-1 0-.7l-1.6.1.2-.8c0-.4.4-1.2.8-1.6.5-.6.7-1 .5-1.5L216 70c0-1.2-.3-2.5-.4-2.8-.4-.7-1.5-.7-1.8.1-.2.4-.6.7-.9.7-.3 0-.6.3-.8.7-.2.7-.3.7-.8.2-.4-.4-.6-.4-1-.2-1.2.7-3.6.2-3.9-.7a.9.9 0 0 1 1.1-1.2c.4 0 .7 0 .9-.2.3-.4 1.5-.8 2-.8l.4-.4c.2-.4.6-.6 1.2-.6 1 0 1.3.7.3 1-1 .2-.8.5.3.4.8 0 1.1-.2 1.2-.7.1-.4.2-.5.5-.2l.5.3V62c0-2 .1-4.3.3-5 .2-1 .2-1.5 0-1.8-.2-.1-.3-1.2-.3-2.7l-.3-6.6c-.2-3.3-.2-4.2 0-4.4.3-.1.3-.3.1-.5-.4-.4-.5-.2-1 3.2a44.4 44.4 0 0 1-3.7 15c-.7.2-.5-.8.5-4 .5-1.6 1-3.3 1-4 0-1-.1-1-.7-1-.5 0-.6-.2-.5-1.5 0-.8.3-2.6.6-4 .3-1.3.6-3.8.6-5.3.2-2.8.6-4.3 1.1-4.2.2 0 .3.3.3.7v.8h5.1l5.4.1a419 419 0 0 1-.5 32c-.5.5-.5 3.3 0 3.7.3.2.4.8.4 1.5 0 1 0 1-.6 1-.4 0-.9.3-1.1.7-.4.3-.7.5-1 .4-1-.4-.2-2.1.8-1.8.8.2.8-.4 0-1.3l-.4-1.1c0-.5-.5-.8-.7-.4l-.4 1.5c-.1 1.2-.2 1.2-1.1 1.2-1.4 0-1.5.3-.4.9.8.3 1 .5.8 1-.2 1-.4 1.2-1.9 1.7-1.4.6-2.3.7-2.1.2zm4-12.1c-.1-5.4 0-5.6 1.4-6 .7-.2.9-.6.3-.6l-1.5.4c-.9.3-1.3.3-1.5 0-.4-.3-.5-.9-.1-1v-1.1c-.2-1.4-.4-1-.7 1 0 .8-.4 2-.6 2.7-.5 1-.6 4-.2 5.1.2.5.4 1.9.6 3.7 0 .7.3 1.3.4 1.2.3-.2.3-3.7 0-7.1-.2-2.6-.2-3.1.4-3 .3 0 .4 1.2.5 5.3 0 3 .2 5.4.3 5.6.1.1.3-.1.5-.5.3-.6.3-2 .2-5.7zm1.6.5.1-3.7c0-1.4 0-1.5-.5-1-.4.3-.5.7-.5 2.6 0 4.3.6 5.8.9 2zm1.4-8.7c0-.1-.2-.4-.6-.5-.5-.2-.6-.5-.6-1s-.2-1-.3-1c-.2-.1-.3.2-.3.7 0 1.5 1.5 3 1.8 1.8zm-2.7-1.3c.4-2.8.9-11 .7-11.8-.2-.6.3-2.9.8-3.3.7-.6.6-1-.2-1.1-1.2-.3-1.3 0-1.4 2l-.2 4.9c-.2 1.5-.1 2.9 0 3.1.2.3.1.6 0 .9-.2.2-.3 1.7-.4 3.2 0 3.2 0 3.1.3 3.1.1 0 .3-.4.4-1zm-1.5-1.8c-.1-1-.8-1-1-.1 0 .7.5 1.5.8 1.1.2-.1.3-.6.2-1zm2.6-1.5-.1.4c0 .3 0 .5.1.3V53zm-4.3-.3c.3-.7.2-2.7 0-2.4-.4.4-.6 2.8-.4 2.8l.4-.4zm1.9-.5c.2-.8 0-1.2-.5-1.2-.2 0-.5.1-.6.3-.3.4.1 1.5.6 1.5.2 0 .4-.3.5-.6zm2.7-2.2-.1.7v.7-1.4zm-2.6-2 .2-3.9c0-1.7 0-1.9-.4-1.8-.3 0-.5.4-.6 1.3a27 27 0 0 0 0 6.1c.4.5.7-.1.8-1.8zm-6.2-1.2.3-1.6c.2-.6.1-.7-.2-.4-.5.4-1 2.3-.9 2.8.3.7.6.3.8-.8zm4.5-1.8-.1-2c-.2-.2-.3.5-.3 2 0 2.5.2 2.6.4 0zm-3.7-1.4c.1-.4.2-2.5.1-4.3 0-.6-.1-1-.2-1-.2 0-.3.3-.3.7l-.1 3c-.2 1.4-.1 2.1 0 2.1.2 0 .4-.2.5-.5zm5.6-3.1c0-.8-.6-1.2-.9-.5-.2.6 0 1.2.6 1.2.3 0 .4-.2.3-.7zm-1.6-.6c-.3-.4-1-.4-1 0l.4.7c.2.3.3.2.5 0V40zm-1.2-.6-.3-.2c-.1 0-.3.2-.3.4s.2.3.3.2c.1 0 .3-.2.3-.4zM209.4 78c-1-.3-.5-.9.6-.9s1.5.6.7.9c-.5.2-.6.2-1.3 0zm-76.6-.7c-.9-1-4-2-7-2.4-2.4-.3-2.4-.3-2.4-1 .3-2.8.4-5.2.1-6.7-.3-2-.2-2.3.7-2.8.7-.3.8 0 .2.7-.3.5-.3.8 0 1.8 0 .7.2 2.4.1 4.1v3c1 0 4 .5 5 .8 3 1.1 5 2.3 4.4 3-.3.2-.5.1-1.1-.5zm70.1-1.2c-.8-.5-.4-1 .6-.7.5 0 .7.3.6.6 0 .6-.5.6-1.2.1zm7.9.2c-.3-.2-.3-.3 0-.7.4-.4.6-.4 1-.2.3.2.5.5.5.7 0 .4-1 .6-1.5.2zm-4-.2c-.2-.2-.2-.5-.1-.7.1-.4.3-.4.9-.3.6.1.7 0 .7-.5 0-.6.8-.9 1.3-.4.3.3.3.4.1.7-.1.2-.4.4-.6.4-.2 0-.3.2-.3.4 0 .5-1.3.8-2 .4zm-22.4-1c-.2-.2-.4-1.5-.5-4v-5.4c.2-.9 0-1.4-1-3.5-2-4.1-3-8.2-2.2-9.5.4-.8.7-.3.7 1.3 0 1.7.6 4 1.2 5l.4 1c0 .2.4 1.3 1 2.5.5 1 .9 2.2.9 2.5l-.1 3.5c-.1 1.6 0 3.7.1 4.6.3 1.7.1 2.3-.5 2zm29-.5c0-.4.6-1 1.2-1s.6.4 0 1c-.6.5-1.2.5-1.2 0zm-2.5 0c-.2-.1-.4-.5-.4-.8 0-.4-.1-.7-.3-.7-.6 0-.8-.4-.5-.9.2-.4 1.4 0 1.4.5 0 .3.1.7.3 1 .3.5 0 1-.5.8zm-77.6-.5.2-.6c.2 0 .3.1.3.4 0 .3-.1.6-.3.6l-.2-.4zM92 73.3c-1.2-.6-1.6-.8-2.1-.8-1 0-.5-.5.7-.6 2-.3 3-.2 3 .2.2.2.6.4 1 .4.8 0 1.3.4 1 .7-.2.2-3.2.4-3.6.1zm120.4-.4c0-.5.7-1 1-.8.5.3.4.9-.1 1-.7.3-1 .2-1-.2zm-6.2 0c-.3-.4-.1-1 .4-1 .4 0 .5 0 .3-.7-.1-.7 0-.8.4-.8.5 0 1.4.8 1.4 1.3 0 .1-.2.3-.5.3s-.6.2-.6.5c-.2.5-1 .7-1.4.4zm-129-.6c0-.3 3.3-.6 3.9-.4.9.3.1.6-1.8.6-1.2 0-2.1-.1-2.1-.2zm75.7 0c-2-.4-5.9-2.8-5.9-3.7 0-.2 0-.3-.2-.3s-1.6-2.5-1.6-3c0-.9.5-.4 1.3 1.1.4.9 1.2 2 1.6 2.5 1 1 3.2 2.2 5 2.7 2 .4 1.7 1-.2.7zM9.3 72c-.2-.4.9-.5 6.6-.8l7.7-.5c1.7 0 2.6 0 2.4.1-.2.4-2.3.6-9.2.9a97.2 97.2 0 0 0-7.5.3zm191.8 0c-.6-.2-.4-1 .3-1.2 2-.5 3.2.6 1.3 1.2-1.1.3-1.1.3-1.6 0zm-45.3-.3c0-.1 0-.3.2-.3s.3.2.3.3c0 .2-.1.3-.3.3a.3.3 0 0 1-.2-.3zm56.6-.1c-.4-.5-.2-1 .4-1 .4 0 .5 1 .2 1.2-.2.1-.4 0-.6-.2zm10.4-.3.2-1.3c0-.5 0-.7.2-.5.3.5 0 2.2-.3 2.2-.1 0-.2-.2 0-.4zm-163.6 0c0-.2.6-.4 1.3-.5l2-.3c.5-.1.7 0 .7.3 0 .2-.3.4-.6.4-.4 0-1.2 0-2 .2-1 0-1.4 0-1.4-.2zm122.3-.5c-.6-.7-.8-.7-2.3-.6-1.5 0-1.6 0-1.6-.5 0-.4.2-.5 1.2-.7 2.2-.3 4.3.8 3.8 2-.2.6-.4.6-1.1-.2zm28 0c0-.3.3-.6.6-.6.4-.1.5 0 .4.5 0 .3-.3.7-.6.7-.4 0-.4 0-.4-.5zM54.4 71c-.4-.3 0-.6 1-.6s1.7.2 1.5.5c-.1.3-2.3.4-2.5.1zM66 71c-.4-.4 0-.6 1.7-.7l3.9-.3c1.5-.1 1.9 0 1.9.2 0 .3-.8.4-3.1.6a43.2 43.2 0 0 0-4.4.2zm-38.8-.3c0-.2 2.5-.6 4.1-.6 1.5 0 1 .5-.7.6-2.2.3-3.4.3-3.4 0zm58.5-.3c0-.4 1-.5 4.8-.7 2.1 0 3.4 0 3.5.2 0 .1 0 .3-.2.3-.8.3-8.1.4-8.1.2zm90.3 0c-.3-.5-.2-3 .2-3.2.6-.4.9 0 .9 1.3 0 1.4-.7 2.5-1 2zm37.6 0c-.3-.2-.2-.5.2-.5.3 0 .4 0 .4.2 0 .3-.4.6-.6.4zM74.3 70c0-.7 1.3-1 5-1l7-.2c1.9-.2 3-.1 3.2 0 0 .2-.9.4-2.6.5-1.5 0-4 .3-5.7.5-3.6.5-7 .5-7 .2zm17-1.2c0-.1.4-.3.7-.3.3 0 .7.2.7.3.1.3-.1.4-.7.4-.5 0-.8-.1-.7-.4zm90.9-.4v-2.5c-.1-2-.4-2.7-1.2-2.4-.3.1-.4 0-.3-.6.1-1 1.1-1 1.9 0 .8 1.1 1 4.3.2 5.2-.4.5-.6.6-.6.3zm7.2-.8-1.3-.8c-.3-.2-.4-.6-.4-1.3.1-1.2-.3-2.5-.7-2.4-.2 0-.7-.6-1.1-1.4-1.3-2.6-1.9-6.3-1-6.5.3 0 .4.2.4 1.3 0 1.4.5 2 1.5 2 .6 0 1.2-1.7.6-2.2l-.8-1.9c-.4-1.2-.5-1.4-1-1.2-1.2.3-1.6-1.6-.8-4 .4-1.2 1-2 1.3-1.6 0 0 0 .8-.3 1.6-.5 1.6-.4 2.3.4 2 .4 0 .5 0 .7.7.4 1.9 1 3.2 1.4 3.2.6 0 1-.9.6-1.6-.4-.8-.8-2.4-.8-2.8 0-.5.7-.4 1 .1l.4 1.6c.1.6.3 1.1.5 1.2.1.1 0 .6-.3 1.3a8 8 0 0 0-.6 1.4l-.7 1.7-.5 1.5h.8c.7-.3.8-.5 1.3-2.3.5-2 1-3.2 2-4 .5-.5.5-.5.7 0 .1.2 0 .6-.4 1a10 10 0 0 0-1.7 4.2c-.2 1.3 0 1.6.6.7.1-.3.5-.5.7-.5.2 0 .6-.4.9-1 .3-.5.7-.9.8-.9l.8-.4c1.2-1 1.7.4 1 2.5-.3.7-.5 1.8-.5 2.5 0 2.2-.8 3.8-1.4 2.8l-.7-.2c-.4 0-.5-.2-.5-.8 0-.8-.2-1-.7-.6-.4.3-.3 4.4.1 4.7l.3.6c-.2.6-1.7.5-2.6-.2zm.3-6.2c-.2-.2-.3 0-.3.7 0 1.2.3 1.5.5.4 0-.4 0-1-.2-1zm12.8 6.6c-1.1-.8.7-1.3 1.9-.5.3.2.5.5.4.6-.2.4-1.8.3-2.3 0zm-8.5-.3c-.3-.3-.1-1.1.3-1.5.6-.5 1 .1.7 1-.3.6-.6.8-1 .5zm-15.3-1.1-.2-1.4c0-1 0-1.2.4-1.2s.6.3.8 1v1.4c-.1.4-.8.5-1 .2zm28.4-.7c0-.2.2-.5.5-.7.3-.2.6-.5.6-.8 0-.3 0-.6.2-.6.2-.2 1.6.8 1.6 1 0 .4-2 1.5-2.5 1.5-.2 0-.4-.2-.4-.4zm-4.4-.2-.4-.8c0-.7 1.3-.7 1.4 0 .3 1-.4 1.5-1 .8zM142.2 64a6 6 0 0 0-1.1-1c-.5-.3-.5-.3.1-.3.4 0 1 .2 1.3.4.4.3.9.4 1.5.3 1-.2 1.4.2 1 .8-.6.6-2.1.5-2.8-.2zm52.9.3c-.2-.2.4-2 1-3.6.5-1 1.4-1.4 2-.7.3.4.3.4.8-.2.4-.5.5-.9.4-1.7-.1-.6-.2-1.2-.1-1.3l.1-1.6v-2.4c-.3-1.1-.1-2 .4-2 .2 0 .8.5 1.5 1 .8.8 1.4 1.1 2 1.1.4 0 .8.2 1 .6.6.8.8.6.4-.3-.2-.5-.3-1-.2-1.7l.1-1h-1c-1.5 0-2.7-.6-3.2-1.6l-.6-1.3c-.7-1.3-1.1-2.4-1-2.8.3-.5.8-.3 1 .4 0 .4.3.6.9.7.4.1 1 .5 1.4.8.3.3.6.4.6.3v-1c.1-.7.8-1 1.4-.4.6.6 2 1.2 2 .9 0-1-.3-1.5-1.3-1.8-.8-.2-1-.4-1-1 0-.5-.1-.6-1.1-.6-1.2 0-1.3-.1-.6-.6.4-.4.4-.4-.5-.8-.6-.2-1.6-.4-2.3-.4-1 0-1.4-.1-1.5-.4-.6-1.4 2.5-1.5 5-.2.9.5 1.7.7 2.5.7 1 0 1.8.4 1.5 1l.1.3c.6.4.5-.4-.3-1.8-1.2-2.6-.6-3.8.9-1.6l.8 1.3-.2-1.4a5 5 0 0 0-.5-1.9c-.5-.5-.7-2.1-.4-2.5.1-.2.2-.6 0-.9 0-.5-.2-.5-.9-.4-.7.1-.9 0-1.2-.7-.7-1.5-1.2-1.3-1.4.5v3.1c-.3 1-1.3.8-1.7-.3-.1-.4-.4-1-.7-1.3l-.4-.6c0-.2-.4-.6-.8-1-.8-.9-1.3-2.5-1-3 .4-.6 1.2-.3 1.3.4l.3 1.2c.1.5 1 1.3 1.6 1.3l.3-1.2c.1-1.3.9-2.3 1.6-2.3.2 0 .7.3 1 .7.4.4.8.6.9.5.1 0 .2-1 .2-2.2l.1-2-.8-.5c-.5-.3-1-.8-1-1.1-.1-.7.7-1.1 1.2-.5.4.5 1.1.5 1.1 0 0-.2-.2-.4-.5-.4s-.5-.3-.6-.6c-.3-1.1-.2-1.5.5-1.8a4 4 0 0 0 1.2-.8 2 2 0 0 1 1.1-.5c.9 0 2-.5 2-.8 0-.2-.4-.3-1-.3-.5 0-1.1 0-1.3-.2-.7-.4 0-.8 1.3-.8 1.6 0 1.7-.5.3-1.2-1.3-.8-2.4-.5-4.2 1.1-1.5 1.3-1.7 1.3-1.7.6 0-.6 1.1-1.7 2.7-2.6 1.4-.7 3.3-.8 4.3 0 .3.2.7.4.9.3.2-.1.6-1 1-2 .6-1.7.7-2.2.5-4a36.8 36.8 0 0 1 0-5c0-1.3 0-1.6-.8-2.7l-.9-1.5c0-.5 2.7-1.6 3.1-1.2.6.5.6 1.2 0 2-.5.7-.5 1-.3 1.3.3.4.3 1.7.2 4.9-.1 3.4-.3 4.5-.7 5.5a20 20 0 0 0-1.6 4.9c-.3 1.5-.3 1.6-1.7 2.2-1.1.6-1.3.7-1 1 .3.1.4.4.3.7-.1.4-.4.4-1.5.3h-1.3s.4.6 1 1c1 1.2 1.1 2.1 0 2.3-.4 0-.7.1-.6.3h1c.6 0 .7 0 .7.5s.1.6.5.5c.8-.3.9 0 .3 1.3-.8 1.6-.6 2.1 1.3 3.6l1.9 1.2.1-2c0-1.8 0-1.8.7-2 .4 0 .8 0 .8-.2 0-.4-1-1.4-2.1-2-.7-.3-1.3-.7-1.3-1-.1-.6 1-1.6 1.6-1.4l.9-.1c.2-.2.5 0 1 .4.5.5 1 .6 1.7.6 1 0 1 0 1-.7 0-.5-.2-1.2-.7-1.8-1-1.3-1-1.7 0-2.6.8-.5 1-.6 1.4-.3.4.2.6.1.7 0 .2-.7.9-1.2 1.6-1.2.9 0 1.8-.6 1.9-1.3.2-1 .6-.6.7.7 0 1.4 0 1.4-.9 1.8-.8.4-1 .5-1 1.5 0 1.8-1 2.5-1.6 1.1-.2-.7-.3-.7-.4-.2 0 .3 0 1 .2 1.6.2 1 .1 1.4-.2 2.2-.5 1-.5 1.3-.3 2.6.4 2.4.3 4.3-.1 4.3-.3 0-.4-.3-.4-1.1 0-2.1-.5-4.3-1.2-4.8-.5-.4-2.5-.6-2.5-.2l.6.8c1.2 1 1 1.8-.5 2.5-.5.3-.5.5-.5 2.2 0 1.6 0 1.8-.6 1.9-.3 0-1-.3-1.5-.8-.7-.5-1.1-.7-1.3-.5-.2.2-.5.3-.7.3-.3 0-.7.2-1 .5-.3.4-.4.6-.1.9.2.2.2.5.1.7 0 .3 0 .8.2 1.2.2.6.2.8-.1 1.1-.3.3-.3.8-.2 1.6 0 1 0 1.1-.3 1.1-.4 0-.5.3-.5 1 0 .9-.1 1.2-.7 1.7-.7.5-.7.5-.3 1.2.2.4.4 1 .3 1.1 0 .2 0 .7.2 1.1.3.7.3.8-.3 1.3s-.6.6-.3 1.2l.5 2.3c0 .8.2 1.7.3 2 .4.7 1.2 5.4 1 6.2 0 .3-.2.7-.5.7s-.4-.2-.6-1.2c0-.7-.2-1.7-.4-2.4l-.2-1.9c0-.4-.2-.8-.3-.8-.2 0-.3.5-.1 1.5.1 1.4 0 1.6-.4 2-.5.5-.6.5-1.4.1-.5-.3-1.1-.4-1.4-.4-.7.2-.7.9 0 1 .4 0 .7.4.9.8.9 2.6 1.1 3.5.9 3.8-.4.4-1.1 0-1.5-1-.1-.5-.4-1-.5-1-.1 0-.6-.2-1.1-.6-1.2-.9-1.7-.7-1.7.6 0 1-.7 2.5-1.1 2.5-.2 0-.4-.2-.4-.5-.5-1.4-1.1-1.6-1-.3.1.9-.3 1-.7.3-.3-.4-.4-.4-1 .4-.8.9-1.3 1-1.5.6zm7.1-6.9c.1-.1 0-.2-.1-.2-.2 0-.3 0-.3.2l.1.3.3-.3zm2.1-2c0-.2-.3-.4-.4-.4-.2 0-.2.2-.1.3 0 .2.3.3.4.3.2 0 .2-.1.1-.3zm4.5-27.6c.1-.2 0-.3-.2-.3-.3 0-.4.1-.4.3 0 .1 0 .3.2.3l.4-.3zm-60.2 34.8c-.4-.2-1.4-.4-2.4-.4-1.3 0-1.9-.1-2.4-.5-.8-.7-2-1-4.5-1.4-1.2-.1-2.3-.3-2.5-.5l-2.2-.4-3.2-.3-1.4-.2-.1-1.7v-1.7l1.1.2h3.7c2.6-.2 2.9-.3 2.2-1.3-.4-.5-.4-.5-2 0-1.2.5-1.7.6-2.3.4l-.8-.3-.2-3.6.1-4.9a60.6 60.6 0 0 0-.9-16 35 35 0 0 0-.3-3.7c-.1-.5 0-1 .2-1.3.4-.5.4-.5 1.3 0l1.2.4c.4 0 .2-3.1-.3-4.8-.6-1.8-1.5-6.6-1.5-7.6 0-1.5.3-1.7 1.4-1.4a72 72 0 0 0 14.2-.9c2.3-.2 4.6-.5 5.1-.8 1.4-.5 1.7-.5 2.2.3.4.5.4 1 0 3.9l-.5 8.6c0 2.9-.2 5.6-.4 6-.2.4-.3 2-.3 3.4 0 1.5 0 3.5-.2 4.5-.1 1-.2 2.9 0 4.3v7.7l-.3 5 1.3 2c1.6 2.5 2.6 5 2.1 5.7-.3.3-.4.3-1 0-.3-.3-.8-.4-1-.4-.6 0-.7 0-.7 1.3 0 .6-.1.7-2 .7a6 6 0 0 1-2.7-.3zm5.5-3.4c.3-.3-.5-1.9-1.2-2.5-.5-.6-.8-.6-1.8-.5-1 .2-1.2.1-1.7-.3l-.5-.6h1.3c1.2-.1 1.2-.2 1.3-1 0-.6 0-.8-.3-.8-.7 0-.8-.6-.2-.7.8-.3.9-1.4 1-12.4l.2-11.6c.1-1.1 0-1.5-.3-1.8-.5-.5-.8-.1-.4.6.3.5.3.6-.1 1-.3.1-.7.2-.9.1-.6-.2-1.3.1-1.7.8a70 70 0 0 0-.3 10.7c-.1 10.5-.2 12-.8 12.6-.5.4-2.5.5-2.5.2s.7-.6 1.4-.6c.6 0 .7-.1.8-2.2.3-3.5 0-12.1-.3-12.3a6 6 0 0 0-2.8.3c-.1 0-.2 3.3-.2 7.2l-.1 7-.8.7c-.6.5-1 .6-1.9.5-1.4 0-2-.6-1.9-1.4.2-.9-.4-1-1.6-.4-1.1.7-2.8 1-3.3.7-.5-.4-1.4-.3-1.3.1 0 1.2 0 1.2 1 1a32.9 32.9 0 0 0 3.4-.5c1.1-.2 1.2-.2 1.2.3 0 .3.3.7.6 1 .5.5 1 .6 3.5.7 2.6.1 3.6.4 3.6 1 0 .1-1.2.3-2.7.3-2 .1-2.9 0-3.3-.2-.7-.4-2-.5-2-.1 0 .5-1.9.8-4.2.8-1.9-.1-2.4 0-2.8.3-.5.5-.5.5 1.1 1l2.3.2 13.2.8c1.6.2 5.8.2 6 0zm-11.4-7.4c.1-.2.3-3.4.3-7.2v-6.8l-.8.2-1.3.1c-.6 0-.6.1-.5 3 0 1.6.2 4 .4 5.3.4 2 .4 2.4 0 3-.4.9-.5 2.2-.2 2.6.3.3 1.9.1 2.1-.2zm-5.4-.9c.2-.2.3-3.7.2-7.2v-1.4h-1.4c-.8 0-1.5.2-1.7.4-.4.4-.3 7.9 0 8.3.3.4 2.4.3 2.9 0zm1.6-5.3c0-1-.2-1.7-.3-1.7-.3 0-.3 2-.1 3.5.2 1.5.5.1.4-1.8zm-5.8-1.6v-1.1c-.2 0-.3.5-.3 1.2 0 1.5 0 1.4.3-.1zm4.4-4.7c0-1.3.2-2.3.5-2.7.3-.5.3-1 .2-2.8-.1-2.8-.5-3.7-.8-2a27.6 27.6 0 0 0-.4 4.7c0 .4-.8-.7-.8-1.2 0-.3-.2-.8-.5-1-.4-.5-.5-1-.6-2.9 0-2.2-.1-2.3-.7-2.3s-.6.1-.6 2.3c0 1.4 0 2.2-.2 2-.3-.2-.9-5.9-.7-6.1.1-.1 2.7.4 3.6.8.4.2 1 .5 1.2.8l.3.6v-.6c0-.6.7-1.1 1.6-1.1.3 0 .6-.1.6-.3l-.4-.2-.7-.4c-.7-.8 0-1 3.4-1 5 .2 9.5.1 9.7 0 0 0 .2-1 .2-2.2l.4-4.8c0-2 0-2.7-.2-2.7-.1 0-.3.4-.3.9s0 .9-.2.9-.3-1-.4-2v-2.1l-1.2-.2c-.7 0-1.6-.2-2-.3l-1-.2.1 5c0 3.7 0 5.2-.3 5.4-.6.6-.8-.4-.8-3.6 0-2-.1-3.7-.4-4.5l-.4-1.8c0-.2-.3-.2-1 0-2 .3-1.9 0-1.9 4 0 2.3 0 3.7-.3 3.7-.1 0-.2.8-.2 1.9 0 1.6-.3 2.5-.6 2-.2-.4-.8-6.2-.8-8.8v-2.4l-.8.3a4 4 0 0 1-1.7 0h-.9v2.9l.3 5c.3 1.9.3 2-.1 2.6-.4.4-.5.6-.2 1 .3.2.3.5 0 1-.3.7-.7.8-1.5.4l-1.5-.5a14 14 0 0 1-1.5-.4c-1-.4-1 0-.6 5.1.5 6.2.5 7.4.3 8-.2.3-.2.5.2.5.2 0 .4.2.4.6v.7l2.1.1h2v-2zm-3.6 1.3c-.4-.2-.4-1 0-1.7.2-.4.2-.6 0-.8l-.4-.8c0-.4.3-.5 1-.5 1 0 1.2.4.6 1.6-.6 1.2-.6 1.3-.1 1.3.2 0 .4-.3.4-.6 0-.8.3-1 .9-.8.7.2.5 1.3-.3 2-.6.4-1.4.6-2.1.3zm5.2-1c-.1-1.2-.6-1.4-.7-.3-.1.9 0 1.5.4 1.5.2 0 .3-.5.3-1.2zm8.2-7.1v-4.6l1.3-.2c1.7-.2 2-.7.4-.6l-4.6.2c-3 0-3.3 0-2.7.4.4.3.6.7.6 1.2v.9l.2-1 .2-.9h1.7c1.8-.1 2.6.1 2.3.7-.1.1-.5.3-.9.3s-.7.2-1.1 1c-.5.9-.6 1.5-.5 3.9l.1 3c0 .2.8.3 1.6.3h1.4zM136.4 31c0-.9 0-1.6-.2-1.6-.3 0-.4 1.5-.3 3.2.1 1.6.5.6.5-1.6zm6 .6v.9-1zm-6.6-6.9c.2.1.4 0 .4-.2.5-7.4 0-10.2-2-10.2-.3 0-.4.3-.4 3.2 0 1.8 0 3.2.2 3 0 0 .2-1.3.2-2.7 0-4 .5-3.4.7.7 0 2 .2 4 .4 4.3.1.6 0 .8-.3.8-.2 0-.4-.3-.4-.6s-.1-.5-.3-.5c-.3 0-.3 0 0 1.6.3 1.2.4 1.3.7.9.2-.3.5-.4.8-.3zm-2.9-10.2c0-.2-.1-.1-.1.2 0 .3 0 .4.1.3v-.5zm13.9-2c0-.2-.1-.3-.3-.3l-.3.2c0 .2.2.3.3.3.2 0 .3-.1.3-.3zM136.2 62c-.2-.2-1.2-.4-2.2-.6-1.6-.3-2.6-.8-2.2-1.2 0-.1.6 0 1.1.2l3.1.7c1.2.2 2 .5 2 .7-.2.3-1.3.5-1.8.2zM19.5 59.8c0-.3 1.7-.5 2.4-.3.3 0 .5.2.4.3-.2.3-2.8.3-2.8 0zm84.6-.4c-.5-.7-.6-1.4-.2-1.4.3 0 1.4 1.5 1.2 1.8-.3.4-.6.3-1-.4zm60.6-.2.1-1.5.4-1.8c0-.4.3-.6.6-.6 1 0 .9 1.7-.2 3.7-.3.5-.8.6-.9.2zM47 58.8c-.2-.1-.5-.5-.7-1-.3-.6-.6-.8-1-.7a2 2 0 0 1-1-.2c-.4-.2-.3-.3.5-.4 1.4-.3 2 0 2.4 1.2.4 1 .3 1.5-.2 1.1zm19.4-.3c0-.2.2-.2.3-.1.2 0 .3.2.3.2l-.3.1c-.1 0-.3 0-.3-.2zm146.5 0c0-.2 0-.5.2-.9.3-.4.4-1.2.4-2.7 0-2.3.2-3.1.6-2.5.3.6.3 4.9 0 5.7-.4.7-1 .9-1.2.4zm-39.3-1.8c0-1.2 0-1.4.5-1.3.3 0 .4.3.4.8-.3 2.4-.9 2.8-.9.5zm-153 .7c0-.1 1-.3 2.2-.3h2.9c.4 0 .8 0 .9.2 0 .2-1.1.3-3 .3s-3 0-3-.2zm39.2 0c0-.1.2-.3.4-.3.2-.1.4 0 .4 0 0 .2-.2.3-.4.3h-.4zm14.6-.4c-.3-.3-.3-.4 0-.4.6 0 .9.5.5.7 0 0-.3 0-.5-.3zM38.7 57l-1.3-.2h1.2l2.4-.2c1.1 0 2.5.3 1.5.4h-3.8zm9.2-.4c-.6-.3-.1-.7.7-.7.5 0 .8.2.8.4 0 .4-.8.5-1.5.3zm6.1-.1c-1.4-.1-2-.2-1.6-.4.7-.3 6.2 0 6.6.3.3.4-1 .4-5 0zm104.3-.1c-.1-.2 0-.9.1-1.5.2-.6.2-1.6.1-2.3-.2-1.2 0-2.2.5-2.2.2 0 .8-.5 1.4-1a5 5 0 0 1 1.8-1.3c.8-.2 1.8.3 1.8.8s-.5.8-.9.5c-.5-.5-.8-.4-1.8.5s-1.7 2.6-2 5.5c-.2 1.2-.8 1.7-1 1zM68 55.9a7 7 0 0 1 1.6 0l-.8.1H68zm3.4 0c0-.2.3-.3.5-.3s.5 0 .6.2c0 .2-.2.3-.6.3-.4 0-.6-.1-.5-.3zm-55-.2c-.2-.1-.4-.3-.4-.5 0-.3.4-.3 1.6-.2 1.9.1 2 .2 1.7.6-.2.2-2 .3-2.9 0zm21.8-.8c0-.2.1-.4.3-.4.1 0 .2.1.2.3 0 .1 0 .3-.2.4-.2 0-.3 0-.3-.3zm125.1.2c0-.2.2-.4.3-.5l.3.1c0 .2-.1.4-.3.5l-.3-.1zm-98.6-.3c-.3-.2-.2-.3.6-.3s1 0 .7.3l-.7.2c-.1 0-.4 0-.6-.2zm-8-1.5c-.7-1.3-.2-1.9.4-.6.3.5.7 1 1 1.2.3.3.2.3-.3.3-.6 0-.8-.2-1.2-1zm140 .5c0-.4.6-.7 1.2-.5.3.1.4.2.1.6-.4.5-1.3.5-1.3 0zm-169.6-.3c-3.5-.2-4.3-.4-4-.7.3-.2 10 .3 10.1.5.1.4-1.4.4-6 .2zm13.7 0c-2.6-.2-3-.6-.7-.6 2.2 0 4.4.3 4.4.6 0 .2-.6.2-3.7 0zM.3 52.2c.1-.5.3-7 .4-14.4a172 172 0 0 1 .7-17c-.1-1.1 0-1.2.5-1.2 1 0 1.4 1.3 1.3 3.2-.2 1.7-.6 2.1-.6.5 0-1.3-.4-1.6-.7-.5l-.3 11c0 9.2-.4 16.8-.8 18.7 0 .4-.2.7-.4.7s-.2-.4 0-1zm16.6.5c0-.2.2-.3.5-.3s.5.1.5.3c0 .1-.2.2-.5.2s-.5 0-.5-.2zm3.7-.5c0-.2.3-.3.7-.3l1.4-.2c.4-.1.6 0 .5.2-.2.4-2.6.7-2.6.3zm5.3-.8c0-.3 1.5-.6 2.9-.6 1.3 0 .4.4-1.4.7l-1.5-.1zm37 0c0-.2 5.8-.7 6-.4.3.2-.2.3-3 .5h-3zM54 50.3c0-.1.5-.6 1.3-1l2-1.1c1-.8 1.6-.7.8.1-.3.4-.7.7-.8.7-.1 0-.8.3-1.5.8-1.4.8-1.5.9-1.8.5zm137.3-.5-1.7-1.2c-.7-.4-1.2-.9-1.1-1 .2-.4 1.2-.2 2 .3 1 .8 1.3.7 1.3-.4 0-.5 0-1 .2-1 .2-.2.2-.4-.1-.7-.5-.6-.4-1.3.2-1.3.4 0 2.3 2 2.3 2.3 0 .4-.7.5-1 .3-.6-.3-.9 0-.6.5.4.8-.1 2.7-.8 2.7l-.7-.5zm-9.1-.4c-.3-.6-.2-1 .4-2.4.7-1.7 1.8-3 2.2-2.7.1.1-.2.9-.7 1.8-.7 1.2-.8 1.8-.8 2.7.1.8 0 1-.3 1.2-.3 0-.6-.2-.8-.6zm-161.9-.2c-3.6-.3-5-.5-5-.8H18c4.6.2 6.5.4 6.6.8.2.3 0 .3-4.4 0zm20.4-.2c-.3 0-.5-.2-.4-.3 0-.1 2-.2 4.1-.2a82 82 0 0 0 5.5-.2c1.2-.2 1.6-.1 1.9.2.2.3.2.5 0 .5h-11zm-4-.9-.4-1c-.2-.6-.1-.6.6.2l.9 1c0 .3-.8.1-1-.2zm134.5-.8.1-.9c.2-.3.5-1.5.7-2.8.6-2.7 1-2.8 2-1 .7 1.3.7 2 0 2.8l-1.3 1.4c-.8 1-1.3 1-1.5.5zm-11.5-.1c-.3-.3-.3-1.4 0-1.6.2 0 .3-.4.2-.6 0-.3.2-1 .6-1.8.9-1.6.7-1.8-.5-.5-1 1.1-1.5 1.2-1.7.3-.2-.6.4-2 1.4-3l.9-1.2c.3-.4.7-.7.9-.7.7 0 .2-.6-.7-1-.6-.1-1-.4-1-.7 0-.5 1.7-1.7 2.3-1.5.3.1.3.2-.2.5l-.6.6c0 .1.7.6 1.5 1 .8.3 1.5.7 1.6.9.3.4-.5 1-1.1.9-.8-.2-1.5.2-2.7 1.5-1.4 1.5-1.7 2-.7 1.3.7-.5 3.7-1.9 4-1.9.4 0 0 .9-.8 1.5-.5.4-1.3 1.4-1.7 2.1-1 1.5-1.1 2.3-.4 1.6.6-.5 1.1-.6 1.1 0a7 7 0 0 1-2 2.5l-.4-.2zm-132.9-.9c-1.7-.3-2.1-.5-1.8-.8h2.3c2.9.4 3.4.5 3.2.8-.2.3-1.8.3-3.7 0zm-10-.5c-.3-.4 0-.5 2.3-.7 1.4 0 1.8 0 1.7.2-.2.6-3.7 1-4 .5zm-1.7-.2c-.3-.1-.5-.9-.2-.9l.7.3c.9.5.5 1-.5.6zm155.4-.4c-.2-.1-.4-.4-.4-.6 0-.4-1-1.2-1.4-1l-1-.5c-.6-.5-.6-.5-.2-2 .7-2.4 1.4-4 2.4-5 1-1.2 1-1.2.5-1.7-.3-.3-.7-.5-1.1-.5-.6 0-.7.3-.8 1-.3 1.8-.7 2-1.8.8-.4-.4-1-.8-1.2-.8-.6 0-.6 0 .6-1.3l1-1h2l2.3.4c.5.3.6 0 .6-2.4.1-2.3.5-3.3 1.8-4.9.4-.4.8-1 .8-1.2 0-.4 1.8-1 2.2-.7.4.4 3-.3 3-.8s-1.9-.6-3.3-.2c-1.3.4-1.8.1-1-.5.5-.4 1.2-1.4 1.2-1.8 0-.4-1.8.3-2.4 1l-1 1c-.5.2-.6.2-.9-.4-.1-.4-.2-1 0-1.2v-.7c0-.6 2.7-4.4 4-5.5.7-.6 1.3-1.1 1.3-1.3l-.6-1c-.8-1.3-1.1-3-.7-4 .6-1.2 1-.9 1.1 1l.3 1.9c.5.5 2.3-1.8 2.7-3.4.1-.5 0-.8-.4-1l-.5-.3.5-.8c.7-.8 2-1.4 2.4-1.2.1.1.3 0 .4 0 .2-.4 1.7-.4 2.6 0 .9.2.8.9-.1.8-.3 0-.8 0-1 .3-.3.2-.7.3-1 .2-.5-.2-.5.3.2 1.3.4.5.7.7 1 .6.7-.2 1 .3.2.7l-.8.7c-.3.5-1 .4-1-.2 0-.6-.7-2.1-1-2.1-.1 0-.3.4-.4 1-.3 1.2-1.5 3.5-2.5 4.3l-.7.6.7.1c1.4.2 1.6 1.4.2 1.4-.7 0-1.6.6-1.6 1.1l.6.7c.8.7.3 1.2-1 .8-.8-.3-1-.2-1.6.2-.4.3-1 .9-1.2 1.3-.7 1.3-.5 2.3.3 1.3.4-.4 1.8-.5 2 0 .2.1.4 0 .7-.4.6-.8 1-.4 1 1 0 1 0 1.1.6 1.1.4 0 .8-.1 1-.3.4-.5 1 .2 1.3 1.8.3 1 .3 1.5 0 1.8-.1.2-.3.2-.6 0-.6-.6-3-.1-5.4.9-.8.3-1.1 1-.5 1.2.2 0 .2.2 0 .5-.4.4-.3.5.8.4 1.8 0 2 .3.8 1.5-1.3 1.4-2.5 3.8-2.4 4.7.1 1-.3 1.3-1 .5-.4-.5-.4-.5-.4 0 0 .2-.6 1-1.4 1.6-.8.7-1.5 1.6-2 2.5-.8 2-.8 2.8.2 1.9l1.2-.6c.6-.1.7 0 .7.3s-.2.8-.4 1c-.4.6-.4 1.8.2 3.2.3.9 0 1.3-.7 1zm-3-11.6c0-.1-.2-.3-.4-.3l-.2.3c0 .2.2.3.4.3s.3-.1.2-.3zm6.8-3.5c1.2-1.3 1.1-1.7-.2-1.2-.8.2-1.4 1.1-1.4 2 0 .6.4.4 1.6-.8zM64 45c0-.2.4-.3 1-.3s1 .1 1 .3c0 .1-.4.3-1 .3s-1-.2-1-.3zm136.2-.4c-1-.7-1.5-1.5-1.2-2 .2-.3 1.5-.4 1.5 0l.5.7c.3.3.6.9.7 1.3.2.8-.2.8-1.5 0zm-6.2-.4c-.8-1.6.2-2.2 1.2-.7.3.6.4.9.2 1.2-.5.5-1 .3-1.4-.5zm-152.5.3c-3.2-.3.2-.9 4.9-.9 6 0 7.9.2 8 .5 0 .3-.4.4-1.6.4H41.5zm125-.4c-.3-.6 0-.9.4-.5.3.3.3.4 0 .6-.2.3-.3.2-.4-.1zm21.7-.9-.1-1c0-.5-.3-1.3-.6-1.7-.5-.7-.6-1-.5-2.6.1-1 .4-2.3.7-3 .3-.6.7-1.6.8-2.2.1-.6.4-1.1.6-1.1.4-.1.4.3.3 2.7 0 3.6-.2 3.9-.8 3l-.5-.6V38c0 1 0 1.5.4 1.7.3.3.5.2 1.4-.8 1-1 1-1.3 1-2.2-.2-1 .1-1.5.7-1 .4.4.7.4.7 0 0-.6.6-1 1-.7.2.2.1.6-.4 2-.5 1.1-.7 2.4-.7 3.4 0 1.7-.4 2.5-1 1.9a3 3 0 0 1-.3-1.3c-.2-1.7-.9-1.1-1.5 1.3-.2 1-.8 1.3-1.2 1zm9-.2c-.3-.5 0-1 .6-1 .7 0 1 .5.6 1-.5.5-1 .5-1.3 0zm-130.8-.8c-.6-.3-1.1-.6-1.1-.8 0-.5.3-.5.7 0l1.1.4c.5 0 .9.3.9.4 0 .4-.3.4-1.6 0zm-8.8-.1c0-.2.5-.3 1-.4l3.3-.7c2.2-.5 3-.5 2.5-.1a56.6 56.6 0 0 1-6.8 1.2zm123.3-.4c0-.6 1.6-2.3 2.2-2.3.7 0 .6.5-.5 1.7-1 1-1.7 1.3-1.7.6zM35 41c0-.3 4.2-1.4 4.5-1.2.5.2-.1.6-1.6.9a1606 1606 0 0 1-3 .3zm72.6 0-.1-3.1c0-1.6-.2-3.3-.3-3.7-.2-.9 0-2.5.3-2.5s.5 1.7.6 5.7c0 3.1 0 4.2-.5 3.6zm-52.8-2a4 4 0 0 1 1.6-.2c.9 0 1 .1.6.3-.7.3-2.7.3-2.2 0zm-10.3-.3c.2-.3 2.4-.6 2.4-.2 0 .3-.7.6-1.7.6-.5 0-.7-.1-.7-.4zm17 .1c0-.5 2.4-.7 3.8-.4 1.2.4.6.6-1.6.6-1.3 0-2.3 0-2.3-.2zm-39.8-.7c0-.3.4-.4 2.2-.3 1.4 0 2.2.2 2.3.4 0 .3-.5.3-2.2.3-1.9 0-2.3 0-2.3-.4zM28 38c0-.6 3-1.7 5.3-2 1.9-.3 1 .2-2.3 1.3-3.2 1-3 1-3 .7zm170.2-1.1c-.7-1-.7-1.7 0-1.7.5 0 1.4 1.3 1.5 2.2 0 .6-.7.3-1.5-.5zM18 36.8c-.8-.2.1-.5 1.8-.5 1.4 0 1.8 0 1.8.3-.1.3-3 .5-3.6.3zm32.7-1.3c0-.4 1-.6 1.8-.5 1 .3.7.7-.6.7-.6 0-1.2 0-1.2-.2zm-19-.6c-1.5-.4-1.6-1-.3-.8h5.8c4.2 0 4.8 0 4.8.4s-.4.4-2.2.4l-4.6.1c-1.3.1-2.9 0-3.6-.1zm162.4-.4c0-.7-.2-.7-1-.7-.7.1-1 0-1.9-1-1-1-1.2-1.7-1-3 0-.6.5-1 .9-.9l.6 1.4c.3 1.2.8 1.6.8.7 0-1.1 1.6-3.6 2-3.1.2 0 0 .6-.3 1.3-.9 2-1 2.5-.3 2.8 1 .4 1.6 3.2.6 3.2-.2 0-.4-.3-.4-.7zm-168.2-.2c0-.2.2-.4.5-.4s.5.2.5.4-.2.4-.5.4-.5-.2-.5-.4zm2.6-.2.4-.2.4.2c0 .2-.2.3-.4.3s-.4-.1-.4-.3zm-5.4-.2c-.3-.4.6-1.3 1.2-1.3.7 0 1 .6.5 1.1-.4.5-1.5.6-1.7.2zm192.1-.4c-.2-.6 0-1.2.5-1.2s.6.3.4 1c-.3.7-.7.8-.9.2zm4.6-1.1-.1-3c-.2-2 0-3.3.5-2.9 0 0 .2 1.6.2 3.3 0 2.3 0 3.1-.3 3.2-.2 0-.3-.1-.3-.6zm-33.5.1c0-.1 0-.4.2-.7.4-.3.4-.3.3.3-.1.8-.2.9-.5.4zm-129.2-.2c0-.2.5-.3 1-.3.7 0 1 .1 1 .3-.1.1-.6.3-1.1.3-.5 0-1-.2-1-.3zm122.7-.7c-.4-.3.1-.6 1-.6.6 0 .9 0 .9.4 0 .2-.3.4-.9.4l-1-.2zM49 31v-.4c.4-.2 1.5.1 1.5.4 0 .3-1.3.3-1.5 0zm-4.7-.3c-.2-.3.4-.6 1-.5.2 0 .4.2.4.4 0 .3-1.2.5-1.4.1zm7.5-.2c0-.2.3-.5.6-.5.4-.1.5 0 .4.3 0 .3-.3.6-.6.6s-.4 0-.4-.4zm-20.8 0c-.4 0-.6-.2-.6-.4 0-.3 2.6-.1 2.7.2 0 .3-1.2.4-2.1.2zm179.5 0c-.6-.5.3-2.7 1.2-2.7.6 0 .5.6-.2 1.8-.7 1.2-.8 1.2-1 1zm10.9-.4c-.1-1.4 0-5.6.1-5.7.3-.3.4.2.6 2.3.2 2.2 0 4-.5 4l-.2-.6zm-25.3-.4c-.4-.8 2-6 2.9-6.3.8-.3 1 .3.4 1l-.5.8-.6 1.1a8 8 0 0 0-1 2.4c-.3 1.5-.9 2-1.2 1zm-14 0V29c.2-.3 1.7-.3 1.7 0s-1.5.8-1.7.5zM19 28.6c-1.8-.3-1.2-.8 1-.8 2.8 0 2.9 0 2.4-.4-.4-.3-.4-.4 0-1 .6-.7.6-.7 1-.2.4.6.5 1.2 0 1.2-.2 0-.2.1 0 .3.1.1.8.2 1.6 0 1.2 0 1.4-.2 1.2-.6 0-.3 0-.5.3-.5.4 0 .4.2.3.9l-.3 1c-.1 0-6.5.2-7.5 0zm166.7-.7c0-.5 1.8-1.6 2.1-1.4.5.3.2.8-.7 1.3-1.1.5-1.4.5-1.4 0zM34.3 28c0-.2-1-.2-2-.3-2 0-2.8-.5-1.1-.7 1.5-.1 4.2.3 4.1.6-.1.4-.8.6-1 .3zm14.5-.4c-.5-.1-.8-.3-.9-.5-.2-.5.6-.6 1.6-.3l1.2.4.3.3c0 .3-1 .3-2.2 0zm16.1-.3c-.2-.3.3-.6.7-.4.2.2 0 .6-.3.6-.1 0-.3 0-.4-.2zm138.4-.2c-.6-.6-.5-1.2.4-1.5.4-.1.5 0 .5.7 0 1.1-.3 1.4-1 .8zM16.7 26c-.8-.8-1.2-1.8-.6-1.8s2.8 1.9 2.7 2.3c-.2.6-1 .4-2-.5zm206.2.4c-.3-.3-.2-4.9 0-4.9s.3 1 .4 2.4c.2 2.1 0 3-.4 2.5zm-185.5-.6c-.2-.3.2-.6.5-.4.2.3.2.6-.1.6-.2 0-.3 0-.4-.2zm8.4-.4c-1.2-.4-1.1-.8.1-.7 1.1 0 2 .4 2 .8s-1 .3-2.1 0zm15.8 0c0-.4 0-.4.2-.2v.5c-.1 0-.2 0-.2-.3zm132-.3c-.7-.7-.7-.7-2-.2-2 .6-2.5.2-2.5-2.3 0-1.8.8-4 1.6-4.6 1.1-.8 1.4-.4.7.6-1.1 1.5-1.6 4.3-1 5.3.3.4.4.3 1-.3.5-.7.6-1 .5-1.8-.2-1 .3-1.7.8-1.4a19 19 0 0 1 2.2 5.2c0 .4-.7.1-1.3-.5zm2 .3.2-1.4c.3-1.4-.3-3-1.5-3.5-1-.5-.9-.9.4-.7l1.2-.1c.4-.8 1.6 0 1.8 1.4.2 1 .2 1-.4.9-.5-.1-.5 0-.5 1 0 1.8-.6 3-1.1 2.4zm-12.8-2c0-.3-.3-.9-.6-1.5-.6-1.2-.6-1.7-.2-1.7.6 0 1 .4 1.2 1.3.5 1.3.4 2.2 0 2.2-.3 0-.4-.2-.4-.4zM.4 22.2l-.3-1.5c-.2-1-.1-1.2.2-1.2.4 0 .7.5.7 1.5 0 .8-.4 1.6-.6 1.2zm50.8-1.2c-.5-2-.5-3 0-3.2.4-.2.9 0 .9.4 0 .2.1.5.4.8.5.5.3 1-.3.8-.4 0-.4 0-.4.8.1 1-.5 1.4-.6.4zm8.3 0s0-.2.2-.2.3.1.3.3c0 .1-.1.2-.3.2a.3.3 0 0 1-.2-.2zm-6.6-.2c.1-.4 1.5-.8 1.9-.6.1 0 0 .3-.2.5-.7.5-1.8.5-1.7 0zm4.2 0s.4-.3 1-.4c.9-.4 1.2 0 .3.4-.6.3-1.3.4-1.3 0zm4.5-.1c0-.5 1-1 1.3-.8.2.1.1.4-.2.7-.5.6-1.1.6-1.1 0zm2.8.1c-.2-.3.3-.6.6-.4.3.2.1.7-.2.7-.2 0-.3-.1-.4-.3zm-18.2-1.6c-.8-.8-1.3-1.6-1.3-2 0-.8.5-.8.7 0 0 .3.6 1 1.2 1.6 1 1 1.3 1.8.8 1.7a8 8 0 0 1-1.4-1.3zm12.5.4c0-.3 2.7-2 3.1-2 .7 0 .2.6-1.1 1.3-1.5.9-2 1-2 .7zm121.4-.2.4-1.4.5-1.8c.1-.4.3-.7.5-.6.5.2.3 2.5-.3 3.4-.4.8-1 1-1 .4zm-145.4-.7-.4-1.3c0-.3-.4-.9-1-1.3-1.5-1.4-3.3-1-2 .5.2.3.4.7.3 1 0 .3-.4 0-1.4-1.3-.8-.9-1.4-1.7-1.4-1.9 0-.3.8-.2 1 .2 0 .3.2.3 1 0l1-.4h.4c.1 0 .4-.5.5-1 .3-1.2 1.4-2 2.5-1.9 1 .2.8 1-.5 1.7-.6.4-1.2 1-1.2 1.1 0 .3.4.9.9 1.3.4.5.9 1.2 1 1.6 0 .4 0 1.2.2 1.6.2 1.1-.3 1.2-.9.1zm179 .1c-.5-.2-.8-.5-.8-.9 0-.6.8-.7 1.9-.1l.8.4-.2-.9c-.2-.8-.1-.8.5-.7.4.1 1 0 1.2-.2.7-.5 1.1-.4 1.1.2 0 .3-.4.6-1 1-.6.2-1 .6-.9.8.3.8-1.1 1-2.5.4zm-26.7-.6a2 2 0 0 1 0-1.5l.5-2.1c.5-2 1.5-3.9 2.7-5 2.3-2 3-1.8.9.3l-2 2.4c-.7 1.5-1.3 3.7-1.3 5.1 0 1.5-.4 2-.8.8zm19.5.5c-.1 0 0-.4.2-.7.3-.4.4-.4.7-.2.2.2.2.5.1.7-.1.5-.8.6-1 .2zm-150-.5c-.6-.6-.4-1.2.3-1 .4.2.5 0 .6-.5 0-.4.2-.8.4-.9.3 0 .4.1.3.7-.2.7-.1.9.3.9.3 0 .8-.3 1-.6.7-.6 1.1-.6 1.1 0 0 .1-.5.6-1.2 1-2 1-2.3 1-2.9.4zM16 17.6c0-.9 0-.9-1.5-1.2l-2.2-.3c-.9 0-2.1-1-1.7-1.4a18 18 0 0 1 6.2 2.1c0 .2.2.5.4.6.6.4.2 1.1-.6 1.1-.5 0-.6 0-.6-.9zm180.7.1c-.6-.8-1.4-1-1.9-.4-.5.7-1.1.5-1-.2.2-.7 0-.9-.5-.4-.9.9-1.8-1.8-1.3-3.8.4-1.5 1-2.3 1.4-2.3.5 0 .5.2 0 1-.2.4-.4 1.2-.4 1.8v1l.8-.8c1.8-1.6 2.8-1.7 2-.1-.7 1.2-.5 1.5.9 2.9 1.3 1.2 1.7 2.1 1 2.1-.2 0-.7-.3-1-.8zM13.5 18v-.6c.2-.2 1 .5.8.7-.2.4-.6.3-.8-.1zm-11.2-.4c0-.3.1-.6.3-.6l.2.6c0 .3 0 .5-.2.5s-.3-.2-.3-.5zm45 .3c-.4-.3-.3-.6.3-.5.3 0 .5.2.5.3 0 .3-.6.5-.9.2zm6.5-.6c-.2-.3.2-.6.5-.3.2.2.2.6-.1.6-.2 0-.3-.1-.4-.3zm62-.1c-.2-.2 0-1 .3-1.8l.8-2.5a14 14 0 0 1 4.1-5.1c1.2-.8 1.5-.4.4.4-2 1.6-3.1 3-3.9 5l-.8 3c-.2 1-.7 1.6-1 1zm-72-1.2c-.3-.6-.3-1.6 0-1.6.4 0 1 1.6.6 1.9-.2.2-.3.1-.5-.3zm3.9-.7c-.6-.7-1.3-1.7-1.5-2.2-.5-1-.4-1 1-1.1.8-.1 1.2.5.4.7-1 .3-.6 1.2 1 2.3 1.7 1.2 2 1.5.9 1.5-.6 0-1-.3-1.8-1.2zm4 .4.6-.9c.4-.3.3-.7-.1-.7-.8 0-.2-.6.6-.7.5 0 .8-.2.8-.3l1.4-1.6c1.3-1.5 1.8-1.5.7 0-.4.6-.5.9-.3 1 .6.2.4.6-.3.5-.5-.2-.8 0-1.9 1.7-.7 1-1.4 1.8-1.6 1.8-.3 0-.3-.1 0-.8zm1.7.3c0-.4.3-.7.5-.8.2 0 .3.1.2.5 0 .4-.2.7-.4.8-.3 0-.3-.1-.3-.5zm1.5-.4c-.1-.4-.2-.8 0-.9.1-.2 1.1 1 1 1.3-.3.4-.7.2-1-.4zm143.1-.9c-.3-2.8-.3-2.8.2-2.9.5-.1 1 .3 2 1.7.5.8.2 1.6-.5 1.2-.4-.3-.5-.2-.5 0 0 .3 0 .5.2.6.5.3.3.7-.5.7-.7 0-.8 0-.9-1.3zm-139.3.8c0-.2.5-.6 1.2-.8.6-.3 1.2-.7 1.2-1l.3-.6c.7-.5.8.3.3 1.3l-.6.8-1.7.4c-.5.1-.7 0-.7-.1zm-54-.6c0-.4.2-.9.4-1.2.4-.5.4-.4.3.4-.2 1.2-.7 1.7-.7.8zm217-.7c0-1.2.5-2.5.9-2.1.3.3-.2 3.4-.6 3.4-.2 0-.3-.4-.3-1.3zm-212.5.7c-.2-.3-.2-.5 0-.6.4-.3.6 0 .5.5-.1.4-.1.4-.5 0zm-7-.6L.8 8.5C.4 6.2.4 5.5.7 5.7c.1 0 .3.8.4 1.7 0 .8.2 1.8.4 2.2.8 2 1.1 3.4 1 4.3v1zm206.8.2c-.7-.5-.8-1-.1-1.3.8-.3 1.4.1 1.3.9 0 .8-.4 1-1.2.4zm5.2-.2c0-.6 1.5-2.2 1.8-2 .2.3-1.2 2.6-1.5 2.6-.1 0-.3-.2-.3-.6zM50.1 14l-.2-1.3c0-1 .7-1.5 1.2-1 .2.3.2.4 0 .5-.2 0-.4.5-.4 1 0 1-.3 1.4-.6.8zm8-.9c.1-1 .3-1.5.5-1.6.3 0 .4.2.2 1.2-.3 1.9-.7 2.2-.6.4zm125 .9c0-.3.2-1.5.6-2.7.7-2 .9-2.3 1.4-2.4.9-.1 1 .5.1 2l-1 2.3c-.3 1.1-.8 1.5-1 .8zm33.4 0c-.2-.6.1-1.7.6-1.8.5-.2.7.4.4 1.3-.3.9-.7 1-1 .5zM7.7 13.2c-.7-.2-1-.7-.7-1 0-.2.3-.2.6 0 .2.3.6.5.9.6.5.2.6.7.1.7l-.9-.3zm49 .1-.1-.7c0-.6.6-.4.7.3 0 .6-.2.8-.6.4zm150.3 0c-.4-.4-.1-.9.8-1.3 1.4-.5 1.8 0 .8.8-.9.7-1.3.8-1.6.5zM31.4 13c0-.6-.5-1-1.8-1.6-1-.5-.9-1 .2-.8.8.1.8.1.8-.7 0-1 .4-1.2.8-.6.3.3.3.6 0 1.1-.1.6-.1.9.2 1.1.2.2.3.2.3 0C32 11 34 9 34.2 9c.6 0 .4.6-.5 1.4l-1 1.1c0 .2-.3.6-.6 1-.6.7-.7.8-.7.4zm20.4-.6c0-.6.7-1.7 1-1.7.5 0 .3.6-.3 1.4-.6.7-.7.8-.7.3zM10.6 12l.6-1.5c0-.6.3-1 .5-1 .4 0 .4.2.3.6l-.2 1.5c0 .8 0 .8-.8.8s-.8 0-.4-.4zm195 0c-.4-.6 0-1.3 1.1-2.6 1.4-1.5 2-3.3 1.8-5.2 0-.8-.3-1.6-.4-1.7-.3-.5 0-.9.6-.9s1 1.1 1.2 3.3c.1 1 0 1.7-.4 2.7-.3.7-.5 1.5-.4 1.9.1.4 0 .6-.6.7-1.3.3-1.4.4-1.8 1.3-.4 1-.8 1.2-1.1.5zM8.3 11.5c-1-.8-1.2-1.2-.5-1.2.5 0 2 1.2 2 1.6 0 .4-.4.3-1.5-.4zm163.4.1c-.3-.3.6-3.2 1.4-4.3.5-.9 0-1.1-.9-.4-1.3.9-1.5-.1-.3-1.7.8-1 3.3-3 4.7-3.8.4-.2 1.7.1 1.6.4L176.3 3c-1 .5-2 1.1-2.3 1.5l-.5.6 1.2-.2c1.4-.1 1.5.2.4 1.5-1 1-1.5 2.1-2 3.8-.4 1.4-1 2-1.4 1.5zm28.3-1c-1.2-1-1.3-1.1-2.7-.8-.7.2-.6-.7.2-1 .6-.3 1-.3 1.9 0 1.2.6 2.5 1.9 2.4 2.5-.2.8-.6.6-1.8-.6zm-78.6.8a28.6 28.6 0 0 1 8.9-7.4c.9.2.5.9-.9 1.4-2.3 1-5.2 3.3-6.7 5.4-.5.8-1.3 1.2-1.3.6zM45.2 11c0-.3.1-.4.3-.4l.2.4c0 .1 0 .3-.2.3s-.3 0-.3-.3zm2.8-.4-.4-.8c0-.5.7-.3 1 .3.4.8 0 1.2-.6.5zM13.5 9.5c-.9-1.5-1.1-2.2-.6-2 .5.1 2 2.8 1.7 3-.1.2-.6-.3-1.1-1zm36 1c0-.3 0-.4.2-.4.1 0 .2.1.2.4 0 .2 0 .4-.2.4s-.3-.2-.3-.4zm124 0c.2-.8 1.5-1.6 2-1.4.5.2.4.3-.4 1-1 .8-1.7 1-1.6.3zm42.5 0 .1-1.8c.2-1 .2-1.7 0-2.3-.4-1.1-.2-2.5.7-4.2l.8-1.4h2.3c1.9.1 2.4.2 2.6.6.5.7-.1 1.2-1 .7-.3-.2-.7-.3-.7-.2l-1 1.5c-.8 1.3-.8 1.4-.3 2 .4.5.6.5 1 .2.3-.3.4-.2.8.6.2.6.3 1.6.3 2.4 0 1.1-.2 1.3-.6 1.4-.5 0-.6 0-1.7-2.7-.2-.6-.4-.7-1.1-.6-.8 0-.9.1-1.2 1.8-.4 1.6-.7 2.4-1 2zM2.4 9.5a8 8 0 0 1 .1-2.3l.3-1.6V8c0 2.4 0 2.9-.4 1.6zm2-.8V5.4l.2-2 .1 2.8c.2 3.1 0 5-.3 2.6zm56.8.8c-.2-.7 0-1.4.5-1.3.3.1.2 1.2-.1 1.6-.1.1-.3 0-.4-.3zm-4.4-.1c0-.2-1-1-2.3-1.6-3-1.5-3.2-1.8-3.2-3.3 0-1.4.2-1.4.8.4.4 1.3.3 1.2 4 3.2 1.4.7 2 1.6 1.1 1.6-.2 0-.4-.2-.4-.3zm146.8.1-.4-1.1-.9-1.6c-.4-.5-.6-.6-1.2-.3-.8.4-1.1 0-.5-.8.7-.7 1.3-.6 2 .2l.8.6.5-1.4c.2-.8.6-1.8.9-2.1.4-.6.4-.7.1-.7-.2 0-.7.4-1 1-1 1-1.4 1-1.8 0-.2-.4-.7-1-1.1-1.2-.9-.4-.9-1 0-1 .3-.1.8.1 1.2.5l.7.7.7-.5c1.1-.9 1.8-1.2 2.4-1 .2.2.7.3 1 .3.7 0 .8.7 0 1-1 .5-2 2.7-2 4.3 0 1-.1 1.4-.4 1.5-.2.1-.4.5-.4.9 0 .6-.4 1-.6.7zM115 9.3c0-.7 5-4.3 5.9-4.3.8 0 .5.6-.6 1-.7.3-2 1.2-3 2-1.8 1.5-2.3 1.7-2.3 1.3zM7 8.7C7 8.4 9.5 4 9.8 3.6c.2-.2.3.1.3.7 0 .9-.5 1.8-1 1.8-.1 0-.5.7-.8 1.5C7.6 8.9 7 9.4 7 8.7zm21.4-1.1c-.7-.6-1-1.5-.3-1.5.4 0 1.7 1.4 1.7 1.9 0 .4-.6.2-1.4-.4zm38.7-.9c-1-1-1-1.1-.6-1.1.7 0 2.5 1.9 2 2.2l-1.4-1zm144.5.2c-.4-.8-.3-2.1.1-2.3.6-.2.7 0 .8 1.4 0 1.3-.4 1.8-.9 1zM47.3 7c-.2-.1-.2-.3.1-.5l.4-.6L46.5 4c-1.4-1.7-1.4-2 0-1 .8.8 1.9 2.8 1.9 3.7 0 .5-.5.6-1 .2zm139.2-.7c0-.5 1-1 1.4-.6.2.2.1.4-.2.6-.7.5-1.2.5-1.2 0zM61 6.2c0-.5 1.2-2.2 1.6-2.2.4 0 .2.4-.7 1.4-.5.6-1 1-1 .7zm-3.5-.4c0-.4 2.1-2.3 3.6-3.1 1.4-.9 2-1 2-.6 0 .2-.2.3-.4.3a14 14 0 0 0-4.2 3c-.6.7-1 1-1 .4zm139.5-.3c-1.4-.2-1.8-.5-1.5-1 .1-.2.6-.3 1.4-.2h1.5c.3-.3.6-.3 1-.1 1.8.8-.1 1.8-2.4 1.3zm-8.8-.4.5-1c.5-.7.6-.7.1-1-.4-.4-.4-.5.2-1 .8-.7 1.9-.7 2.4 0 .3.6.2.7-.6 1.5-.5.4-1 1-1.2 1.4-.4.7-1.4.8-1.4.1zM43.6 4.3c-.4-.6-.5-1-.3-1.2.1-.1.4.1.8.7 1 1.7.6 2.1-.5.5zM69 5c-.1-.1 0-.2.2-.2s.4 0 .4.2 0 .3-.2.3-.4-.1-.4-.3zM13.6 5c-.4-.4-.2-1.7.2-1.7.3 0 .4.2.4.8 0 .7-.3 1.2-.6.9zm-12.2-1c-.2-.2 0-.7.4-.7.1 0 .2.2.2.5 0 .6-.3.7-.6.3zm178.3.1c-.1-.3.3-.7 1.1-1 .9-.2.8.5 0 1-.8.3-.9.3-1 0zm6.9-.4c-.4-.7-2-1.5-3.4-1.6-.8 0-1.1-.1-1.2-.5 0-.3.2-.5.6-.6 1.7-.4 4.8.9 5 2.1.4 1.2-.5 1.7-1 .6zM48 3.6l-.3-1.1c-.2-1 .3-1.2.7-.2.2.6 0 1.7-.4 1.3zM198.5 3c-.8-.4-1.5-.6-2.6-.6-1.4 0-1.9-.3-1.2-.7l2-.1c1.4 0 1.9 0 2.6.7 1 .6 1.2 1.4.6 1.4l-1.4-.7z"/>
</svg>
