<?xml version="1.0" encoding="utf-8"?>
<svg xmlns="http://www.w3.org/2000/svg" xmlns:svg="http://www.w3.org/2000/svg" version="1.1" viewBox="0 0 183 137">
  <title>Mr. Tod gnaws at the clothes line that has been tied to a tree outside.</title>
  <path d="M99.7 136.2c-12.4-.3-65.1-.4-83.6-.2a126 126 0 0 1-14.7-.1c-.7-.3-.7-.4-.7-3.5a51 51 0 0 0-.4-5.3 23 23 0 0 1-.1-5c.4-6 .5-30.6.3-65.1V43.9A1119.7 1119.7 0 0 0 .1 2c.3-.7.9-.8 3.7-1l6-.2C18 .6 40.6.2 59.6.1 99.9 0 179.3 0 179.6.2l.7 2.7c.6 2.8.6 1.1.8 42.6a691.4 691.4 0 0 0 .6 35.4l.3 17.5a161.5 161.5 0 0 1 0 19.8l.6 11.3c0 1.6-.4 3.3-1.2 4-1 1-3 1.4-9.5 1.7l-11.6.5c-3 .2-13.4.3-23 .4l-22.5.2-15.1-.1zm48.5-4c23.7-1 28-1.3 29.4-2.8.7-.7.7-1 .9-3.8V114h-.7l-1-.1c-.3 0-.5-.2-.5-.4 0-.3.4-.5 1.2-.6l1.2-.1v-1.2l-.2-2.4-.2-1.2H177c-1.5 0-2.2-.3-2-.8 0-.2.6-.3 1.8-.3l1.6.1-.2-1.4c0-.8-.2-1.5-.3-1.6-.4-.4-2.5-.8-2.8-.5-.4.4-2 .4-3.2-.1-.9-.4-2.8-.6-2.8-.3s.6.8 1.6 1.5l1.6 1.2 1.3.7c1.4.2.8.7-1.5 1.1-1.8.3-2.5.4-3 .2-1-.4-1.8-.4-2.6 0-2.6 1.4-7.7 2.1-7.7 1.1 0-.2.3-.4 1.3-.4 1.1 0 5.4-1 5.8-1.4.4-.4-.5-1-1.6-1.3-2.4-.4-3-.4-5.2-.1-2.6.4-3.5.3-3.5-.2s2.4-.8 5.9-.8c3.1 0 4.5.4 5.4 1.3.8.8 2.6 1.1 4 .7 1.4-.4 1.3-.7-.7-2l-1.8-1.4c-.2-.2-.6-.3-.8-.2l-1.8.4c-1.2 0-1.5 0-1.6-.3-.1-.3-.5-.5-1.3-.5-1.3 0-1.5-.5-.4-.8.4 0 .7-.3.7-.4.2-.5-.8-.4-4.5.2-1.8.2-3.5.4-3.8.3-.9-.2-.7-.9.2-.9.4 0 .8-.1 1-.3.2-.2 1-.5 1.6-.6a46.3 46.3 0 0 0 5.7-1.8l-1.2-.1-2.1-.6c-1.5-.3-2-.3-2.7 0l-1.7.6c-1 .4-1.2 1.2-.3 1.9.6.4.6.4-.5.4-2.9 0-8.6.6-8.1.9.5.3.2.7-.6.7-1.2 0-1.5.3-1.4 1.7 0 1.2 0 1.4-.6 1.7-.3.2-1.6.3-3 .3a40.3 40.3 0 0 0-14.4 3.1c-.5.5-.9.6-1.5.5-3.4-.5-5.2-.7-8.5-.8-2.1 0-4.2-.3-4.7-.5-.8-.3-1-.2-1.7.2-.5.2-1.1.3-1.6.2-.5 0-1.2 0-2 .4-1.5.6-6.9.6-7.9 0-.3-.3-.8-.4-1-.3-.2 0-1 0-1.6-.3l-1.6-.4c-.3 0-.4-.2-.4-.5 0-.5.9-1.2 2.5-1.7.4-.2.8-.5.8-.7 0-.3-.6-.4-3-.4-4 0-4.8-.6-3.2-2.5.4-.5.7-1 .7-1.2 0-1 2.8-2 5-2 2.5.2 8-.7 8-1.2 0-.2 0-.4-.2-.4l-1.2-1.6c-.6-.8-1.2-1.5-1.3-1.4h-.6c-.3-.2-1-.2-2 .2-1 .3-2.6.5-3.7.6l-3.6.3-1.7-.1c0-.5 1.6-.8 5-1.2 2.8-.2 5.8-.8 6-1.1.1 0 0-.4-.3-.8-.3-.5-.6-.7-.9-.5l-1.5.4c-.5 0-1.4.3-1.8.5-.5.2-1.9.2-3.5.2H91L90 94l-1.8 2.7-2 2.6a6 6 0 0 0-1.3 1.6c0 .4-2.4 2.4-3.2 2.7-.4 0-1 .2-1.5.1-1.5 0-1.6.4-.2.6l2.3.3c.8.2 1 .1 1-.4.2-.4.4-.5 1.4-.5.7 0 1.3.1 1.4.3l1.4.2c1.2 0 2.4.7 2.4 1.3 0 .4-1.7.6-5 .6-2.7.1-3 .2-3.4.7-.4.5-.8.6-4.7.7-2.3.1-4.9.4-5.7.6-2 .5-2.6.5-2.6-.2 0-.5-.7-.7-1-.2-.2.4-1.1.2-1.7-.4-.3-.4-.9-.7-1.2-.7-.8 0-1-.5-.5-1l.4-.8c0-.5 2.9-3 3.6-3.1 3.1-.6 6.3-2 7-3 .2-.4 1-1.4 1.8-2.2.7-.9 1.4-1.9 1.5-2.3.1-.4.6-1.2 1-1.8l.7-1.4c0-.4-.8-.3-2.2.3-2 1-2.6 1-6.5 1-2.3 0-4.3.2-5.7.4-4.2.9-10.4 1-10.4.3 0-.4 2.3-.7 5.7-.7 1.7 0 2.2 0 2.2-.4l.4-.7c.3-.2.5-.2.8.2.2.4.5.4 1.6.3.7-.1 3-.3 5.1-.3 3.8-.2 4.4-.2 6.6-1 .7-.3 1.7-.5 2.3-.5 1 0 1.5-.3 2.7-1.6l1.5-1.6c.6-.7 1.4-1.9 1.7-2.6.5-1.2.5-1.3 0-1.6l-1.4-1.7L82 78a6.1 6.1 0 0 1-1.3-2c0-.3-.3-.8-.7-1.1l-.7-.7-1 .8c-1.4 1-1.8.6-.5-.5 1-.9 1-1 .6-1.8-.3-.7-.7-1-1.5-1.4L74.8 70c-1.4-.9-3.2-1-5.6-.2l-1.9.5-1.7-.8A30.4 30.4 0 0 0 53 68.3c-1 .5-5.6.3-7.9-.3-.6-.2-2.8-.4-4.8-.4s-3.7-.1-3.8-.2h-1.2c-.6 0-1.2 0-1.4-.2-.3-.2-.8-.3-1.7-.2l-2.8.2c-1.4 0-1.5 0-1.1.4.2.2.4.6.4.9 0 .5-.6 1.3-1 1.3-.5 0-.6-.8-.3-1.4.2-.6.2-.7-.7-1l-.9-.7c0-.2-.1-.3-.3-.3-.5 0-.7.8-.7 2a5 5 0 0 1-.5 1.8c-.3.8-.4 1 0 1.6.2.5.2.8-.2 1.7l-.8 1.6c-.2.1-.5.8-.7 1.4a22 22 0 0 1-.4 1.4c0 .2.2.4.7.5 1 .2 1 .8 0 1.3l-1 .4h.9c.4 0 1 .2 1.1.3.2.3.4.2.5-.1a48.2 48.2 0 0 1 .9-3c0-.2.1-.6.3-.8.2-.2.4-.8.4-1.3l.2-1.3c.2-.4 1.9-.5 2.1-.1.2.2-.5 1.7-1 2.1l-.3.6v.7c-.2.2-.4 1.2-.5 2.1-.1 1.6-.1 1.7.5 1.5L28 80l3-1.4a9.7 9.7 0 0 0 2.7-1.6 946.4 946.4 0 0 1 2.1-6.4c0-.2.3-.3.4-.3.4 0 .2 1-.7 3.7-.6 1.9-.8 2.9-.5 2.9l1.4-.4 2.9-.7c.8-.2 1.9-.5 2.3-.8.6-.3 1.5-.4 3.5-.3 3 0 6.5-.5 8.6-1.4.8-.4 2.3-.8 3.3-1 1.8-.3 2-.3 3.2.3 3 1.4 3.3 1.4 5.8.5 2.2-.8 2.6-.8 5.6-.8 2.6 0 3.4 0 4 .4.4.3.8.4 1.4.3.8-.2 1 .3.2.6-.3 0-.5.4-.5.6 0 .4-.2.5-.5.5s-.8.3-1.2.7c-.3.3-1.4 1-2.4 1.4L71 78c0 .2-.4.5-.8.7-.7.4-.8.5-1 0-.2-.3-.5-.2-2.4.4-1.2.4-2.3.6-2.4.5-.3-.3.4-.6 3.6-1.6a27 27 0 0 0 7-3.3l1.3-.6-1-.5c-1-.5-1.3-.6-4-.4-3 .1-5.8.8-6.5 1.5-.4.3-1.8.3-1.8 0 0-.1-.2-.3-.6-.4-4.4-1-4.4-1-5.5-.6l-3 1c-1.8.5-6.4 3.1-6.9 4-.2.3-.6.3-.6 0 0-.5.5-1 2.4-2.2 1.4-.9 1.5-1 .9-1-.5.2-1.9.3-3.2.4-4.2.3-10 1.4-11.5 2.2-.6.4-1.3 1.9-1.3 3 0 .4-.3 1-.6 1.3l-.5.5h.6l.9-.2c.2-.3 2.2-.9 2.7-.9 1.5 0-2.5 2.3-4.6 2.6-.9.1-1 .1-1-.7 0-1 .8-2.7 1.4-3.2.7-.6 1-1.6.4-1.6-.5 0-7 3.4-7.3 3.8-.1.2-.2.8 0 1.3 0 .6 0 1.4-.3 2.1l-.6 2c0 .4-.3 1.1-.5 1.5-.6 1.4-1 3.1-.8 3.4l1.8.4c.9 0 2 .4 2.4.6.9.5 2.3.4 2.3-.2 0-.4-1.8-3-2.5-3.5-.6-.5-.4-1.5.2-1.2l1.9.1c1.3 0 1.5.1 2.5 1s1 1 2 .6c1.4-.5 5.8-.1 6.9.6 1.3.8 1.8.7 1.6-.4l-.4-4c-.1-3.3.1-4.8.8-4.6.2.1.3 1 .2 3.2 0 1.6 0 3.9.2 5 .6 4.4.3 10.8-.9 16.5-.1.8.3 1.5.9 1.4.6 0 .8 0 .7.7-.1.4 0 1 .4 1.5.6.8 1 .8 1 0 0-.3.2-.6.3-.6.6 0 .5-.8-.2-1-.9-.5-1-1-.3-1.4.8-.4 2.3 0 3 .9.5.5.5.5.1.9-.2.1-.5.6-.5.9 0 .4 0 .5-.3.4-.3 0-.6-.2-.8-.3-.3-.1-.4 0-.4.6l-.3 1.2c-.2.4-.1.8.5 2l1.4 3.4c.6 2 .9 2.3 2.3 2.4h2c.9 0 1.2.2 1.2.5 0 .5-.2.6-3 .8l-2.4-.1c-.4-.6-2.5-.2-2.5.5 0 .1 1.7.2 4.2.2 4.4 0 5.3.2 5.3 1.1 0 .7.5 1 .7.3.4-1.3 5.8-1.7 6.3-.4 0 .2.4.3 1.3.2.8-.1 1.2 0 1.5.3.6.8-.2 1.2-3 1.5-2.9.3-3.6.4-3 .8.2 0 1 0 1.7-.2 1-.3 1.5-.3 1.7-.2.4.5 0 1.1-.8 1.3-1.2.2-3 1-3.2 1.3-.1.5 2.2-.2 5-1.5 2-1 2.7-1.4 3-2 .4-.8.4-.9 0-1.3-.9-.8-2.4-1.3-5-1.4a14 14 0 0 1-3-.3v-1.6c0-.9-.3-1.5-.6-2-.3-.3-.5-.8-.5-1.1 0-.5.1-.6 3-.6h3l-1.9-1-4.9-1.7c-2.6-.7-3.5-.8-6.2-.8-2.6 0-3.1-.1-3.3-.5-.5-.8.6-1 3-.9 1.5.1 2.6 0 3.4-.1.7-.2 3-.3 6.3-.3a63.8 63.8 0 0 0 16.3-1.6c1.4-.4 1.7-.4 2 0l1.4 1c1 .5 1.5.6 4.3.7a25.9 25.9 0 0 1 6 .7c1 0 1.7.6 1.2 1.2-.3.4-2 .3-3-.2a7 7 0 0 0-2.1-.3c-5.6-.2-7.4-.7-8-2-.2-.4-.4-.5-.8-.4-1.9.6-5.5 1.2-8.6 1.5-2 .1-4 .4-4.6.5l-1 .2 1.2.3c1.4.4 1.8.9 1.1 1.6-.3.3-.5.3-1 0-.8-.5-2.8-1-3.9-1-.5 0-1.6-.3-2.4-.6-.8-.3-1.8-.5-2.2-.5-.5 0 .3.4 2.2 1a41.6 41.6 0 0 1 6.8 2.6c.7.2 1.5.6 1.7.8l2.2 1.1c1.7.8 2 .8 3.5.7.8-.1 2-.4 2.5-.7l.9-.6-.7-.2c-.8-.4-3.7-.8-5.3-.7-1 0-1.2 0-1.2-.6 0-.4.1-.5 1-.5l2-.1c.3 0 .8-.2 1.1-.5.6-.5 2.7-.9 7-1.3 3.4-.3 4.5-.1 4.5.8 0 .7-.5.8-2.3.5a23 23 0 0 0-7.8.6c0 .2.2.3.5.3.9 0 1.4.3 1.4.7 0 .4.4.6 2.8 1 4 .6 6.3.7 5.9.2-.6-.6 0-1 1.4-.7l3 .2c1.4 0 2.1.5 1.8 1-.1.2-1 .2-2 .2-1.6-.1-1.9 0-2.4.5s-.7.6-1.6.5a140.4 140.4 0 0 0-6.3-1c-1.2-.4-2.2-.1-3.3.9-.7.6-1 .7-1.6.6h-1l-1.1 1-.8.6.6.7.7 1c.4 1.1-1.9 2.4-3 1.8-.5-.3-.7-.2-1 .2-.7 1-.7 1 3.3.5 1-.2 1-.3 1.7-1.5.5-1.2.8-1.5 2-2 1.7-.8 2.6-.6 4 1 .6.7 1.1 1.6 1.2 1.9.3.9 1 1.5 1.7 1.5.8 0 .8-.4 0-.6-.8-.2-1-.6-.7-1.4.3-.8 3.5-2.3 5.2-2.4 1.3-.1 1.4-.1 2.6 1 1.5 1.6 1.5 2.1-.2 3.7-.7.7-1.2 1.3-1.1 1.4l1 .2c.7 0 1.1.2 1.6.6.6.7.6.7 1 .2.7-.7 1.7-.7 3 0 .7.5 1.4.8 1.6.8.8 0 1.2.4 1.4 1.3.1.8.2 1 1.5 1 2 .4 6.4.3 6.4 0 0-.1-.1-.2-.3-.2a6 6 0 0 1-1.5-1 8 8 0 0 0-2.4-1.1l-2.2-.7c-1-.4-1-.5-.9-1.1.1-.4.4-.9.6-1l1.3-1c.7-.7.9-.8 2.2-.6 1.4.1 3.5.8 3.5 1.2l2.5.1c2.1 0 2.6 0 3.3.6.6.5 1 .5 2.4.4 1.8-.2 2.2 0 2.7 1.5.2.8.2 1.2 0 1.9-.5 1-1.1 1-1.4 0-.1-.6-.3-.7-1-.8a5 5 0 0 0-2 .4c-2 .8-3.4.3-2.8-1l.3-.6c0-.3-1.6-1-2.3-1h-.7l.6 1 .6 1.5c.1.3.4.5.7.5l2 .5c1 .3 2.8.5 4.3.6 2.6.2 2.8.2 2.9-.4.2-.6.8-.5.7.2-.1.3.2.4 2 .4 2 0 2.1 0 2.4-.6.7-1.3 1.7-1.4 1.5-.2l-.2.8h3.7l4.7.2c1.6.4 4.8.4 16.2 0zm-46.7-.9-1-.2c-.8-.2-1-.8-.3-1 .8-.3 2.3.3 2.3.9 0 .4-.3.6-1 .3zm33.5-.4-1-.2c-.7 0-1-.5-.6-.8.5-.3 2.8.5 2.7 1 0 .3-.6.3-1.1 0zm-7.4-.6c0-.3.2-.4.6-.4.8.2.9.8 0 .8-.4 0-.6-.2-.6-.4zm3 .2c-.3-.4 0-.6.6-.6.4 0 .6.1.6.4 0 .4-.8.5-1.1.2zm-10.2-1.4c0-.5.2-.5 6.4-2.7 1.4-.4 2.8-1 3.1-1.4l.6-.5.6.5c.6.6 4.5 1.5 4.8 1.1l.2-.7c0-.5 0-.7-.6-.8-1-.3-1-.8 0-.8 1.2 0 2.1.6 1.7 1l-.4 1.2c0 .8-.1.8-1.8 1-1 0-2.2-.1-2.7-.3-1.4-.4-3.5 0-4.4.7-.5.4-1.1.6-1.6.6-.4 0-1.8.4-3 .8-2.5 1-2.9 1-2.9.3zm19.6-.8c-1.5-.1-2.4-.6-1.9-.9l1.8.1 2.7.3c.8 0 1.1 0 1 .3 0 .4-1.5.5-3.6.2zm-49-1.2v-.5c.2-.1.3-.4.3-.7 0-.4.2-.5.6-.5.4 0 .8-.1 1-.3h1c.2.3.7.4 1 .3.2 0 .4 0 .4.2s.3.3.6.2c.8 0 .8.8 0 1.4-.6.4-.6.3-.8-.2 0-.4-.3-.6-1-.6l-1 .2c0 .2-.3.4-.8.5-.7.3-1 .2-1.2 0zm27.7.2c-.2-.1-.3-.6-.2-1.4l.2-1.2h1c.9 0 1 0 1.3.6l.2 1c0 .6-.8.5-1-.1 0-.3-.2-.6-.3-.6-.2 0-.2.2-.1.3.2.3-.3 1.6-.6 1.6-.1 0-.3 0-.5-.2zm45-.3c-.2-.3-1-.7-1.7-1-2.2-.7-6.8-1.7-7.9-1.7-1 0-1.8-.5-1.5-1 .3-.6 3.6 0 7.7 1 2.9.9 3.8 1.3 4.4 1.9.4.4.7.8.6 1-.3.5-1 .4-1.6-.2zm-49-.7c-.5-.5.5-1 2.4-1.3.9 0 .7 1 0 1.1a2 2 0 0 0-1 .4c-.4.3-1.1.3-1.4-.2zm-3.5-.9c0-.5.3-1 .6-1 .4 0 .8.7.6 1-.2.3-1.2.3-1.2 0zm28.4-.2c-2.2-.2-2.2-.7 0-1 1-.1 1.2 0 1.3.3.3.6 0 .8-1.3.7zm-32.9-.5c.1-.6 1-.8 1-.3 0 .2-.1.5-.4.6-.6.2-.7.2-.6-.3zm2.3.2c-.4-.3-.2-.6.4-.6.3 0 .5.2.4.3-.1.4-.6.6-.8.3zm12.1-.2c-.2-.6-.2-.7.5-.6.7.1 1 1 .2 1-.3 0-.6-.2-.7-.4zm2-.2c-.3-.1-.5-.4-.5-.6 0-.5.7-1 1.1-.8.2 0 .5 0 .6-.2.1-.6.9-.5 1 0 .2.2 0 .7-.5 1.2-.8.8-.8.8-1.6.4zm-17.8-.3c-.2-.4.2-.8.6-.5.4.2.3.9-.1.9-.2 0-.4-.2-.5-.4zm7.4.2c-.2-.4.2-1 .6-.8.4.3.3 1-.1 1l-.5-.2zm2-.3c-1.2-.3-1-1 .3-1 1 0 1 .1 1.2.6 0 .7 0 .7-1.4.4zm18.3-.1c-.1-.3 0-.6.1-.8.2-.2.3-.2.5.2l-.1.7c-.3.2-.4.2-.5-.1zm-16.5-.1c0-.5.5-1 .7-.8.5.3.4 1-.2 1-.3 0-.5-.1-.5-.2zm13.7-.3c-.3-.3-.4-.6-.2-.9.3-.5 1.7 0 1.7.7s-1 .8-1.5.2zm-11.9-.5c0-.2.2-.4.5-.3.5.1.5.6 0 .7-.3 0-.5-.1-.5-.4zm-10-.1-1.8-.6c-.7-.4-1.8-.7-5.7-1.5-1.6-.4-2.6 0-2.6.9v.7l-2.8-.2c-3.8-.2-4-.2-4-1 0-.5-.1-.5-3.7-.3-2 0-4.3.2-5 .3-1.2.1-1.4.1-1.4-.3v-.4c1.2-.3 6-.7 7.8-.8 2.8 0 3.5.2 3.6.8.2.5.4.6 2 .6 1.7 0 1.7 0 1.5-.6-.6-2-.5-2.1 2.5-2.6l3.4-.7c3.3-.9 5.5-1.2 6.8-1.1h2.7c1.7-.4 10.6-1 12.5-1 1.1 0 1.5 0 1.4.4l.1 1c.2.8.3.8 1.5.8 1.1 0 1.3.1 1.3.6 0 .4-.2.5-1.5.5-.8 0-1.8-.2-2.3-.4-.8-.4-1-.6-.8-1.1l.2-.7-3.6.2c-7.5.3-11.5.9-13 1.9-.4.3-1.7.8-2.8 1l-1.9.7c0 .2 1 .5 1.7.5l1.3.4c1.8.8 3.8 1.2 4.6 1 1-.4 1.5-.4 2 0 .6.5.6.5 0 .9-.5.4-2.1.5-4 0zm-7.4-3.6c1.8-.2 3.2-.7 4.6-1.5l.8-.6a50.2 50.2 0 0 0-7.2 2.4l1.8-.3zm26.3 3.5c-.2-.5 0-1 .5-1 .4 0 .7.6.5 1-.2.5-.9.5-1 0zm15.5-.5c-2-.4-3.6-.5-10.6-.7a34 34 0 0 1-8.4-.5c-.1-.2.5-.3 2.5-.3s2.5 0 2.2-.3c-.5-.6-.3-1 .6-1.2a4 4 0 0 0 1.1-.4l1.3-.3c.6 0 2.4-.7 4-1.4 2-.8 3-1.2 3.5-1l3-.5c4.6-1.2 13.6-2.6 18-2.8 3-.1 3.4 0 3.4.3 0 .6-.6.7-3 .7a72 72 0 0 0-21 3.6c-1 .3-2 .6-2.3.5-.2-.1-.7 0-1 .2-1 .7-4 1.7-5.4 2-2.2.3-1.5.6 1.5.6 3.3 0 10 .6 12.9 1.2.4 0 .5 0 .4-.3 0-.3 0-.4.4-.4.5 0 .8.5.8 1.2 0 .5-1.1.5-4-.2zm27-1-7.5-.5c-5.4-.3-6.7-.5-6.2-1a91.9 91.9 0 0 1 17.3 1c.3.7-.6.9-3.5.5zm-26.3-1.9c-.4-.1-.7-.4-.8-.6-.1-.3.3-.4 2-.5 2.7-.3 3.4 0 3.3.7 0 .5-.2.6-2 .6-1 0-2 0-2.5-.2zm-22.4-.1c-.6-.3-.3-.9.5-.9 1 0 1.9.4 1.9.8 0 .3-1.8.3-2.4 0zm-41.6-.4.3-.2c.2 0 .2 0 .1.2 0 .2-.2.3-.2.3-.1 0-.2-.1-.2-.3zm37.3-.1c0-.2.3-.4.7-.4.4 0 .7.2.7.4s-.3.4-.7.4c-.4 0-.7-.2-.7-.4zm2-.2c-.2-.2.3-.7.7-.7 0 0 .3 0 .5.2.5.3.1.8-.5.8-.3 0-.6-.1-.7-.3zm-66.1-1.3c-.9-.9-2.9-2.2-3.7-2.4-.4-.1-.7-.4-.7-.6 0-.7 1.8-.5 3.1.4l1.4.8c.4 0 1.4 1.3 1.3 1.8-.1.6-.8.7-1.4 0zm76.7 0c-.2-.3 1-.8 2.4-.8 1.2 0 1.5.5.3.7l-1.7.3c-.5.1-.9 0-1-.1zm38-4-.3-.5 2-.1c1.6 0 2 0 2 .3 0 .4-.6.6-2.1.6-.8 0-1.4-.1-1.6-.4zM57 109.8c-2.6-.2-3-.5-1-.7 2.6-.2 8 0 8 .4-.2.3-3.4.4-7 .3zm89.7-.1v-.5c.3-.3 4.5-1 4.9-.7.5.3-.3.8-1.7 1-.8 0-1.8.2-2.2.3-.5.1-1 0-1-.1zm-79.1-.3a41.3 41.3 0 0 0-16.2-.4c-1 .2-1.2.1-1.2-.2 0-1.4 7.8-1.8 14.3-.7 4.5.7 5 .8 5 1.2 0 .3-.3.3-2 .1zm16.2-2c-.4-.4-.1-1.2.4-1.2s1 .7.9 1.2c-.2.5-.8.5-1.3 0zm3.9.2c-.5-.1-.8-.4-.8-.6 0-.3.4-.4 2-.4 1.8 0 2 0 2 .6 0 .4-.2.5-1.2.5l-2-.1zm50.3 0c-.8 0-.8-.7 0-.8.7 0 2 .4 1.8.8-.2.2-.4.2-1.8 0zm-90.4-1c0-.3.6-.7.9-.4.3.3.1.8-.4.8-.3 0-.5-.1-.5-.3zm2-2.1c-.2-.2 0-.6.4-.6.1 0 .2.1.2.3 0 .5-.3.6-.6.3zm99.5-1.7c-2.1-.2-1.9-.8.3-.8 1.5 0 1.9 0 1.9.4 0 .3-.7.8-.9.6l-1.3-.2zm-99.7-.4c-.3-.1-.5-.3-.5-.6s.3-.3 1.4-.3c1 0 1.4.2 1.4.5 0 .4-1.4.6-2.3.4zm5.5-1.7c-.2-.2-1.6-.4-3.1-.5-2.8-.3-3.3-.5-3-1.3 0-.3.5-.4 2.7-.3 2 0 2.8.2 3.3.6.7.4.8.4 2-.3 1-.6 1.3-.7 2.7-.5.9 0 1.9.3 2.2.5.4.2.8.2 1.5 0 .5-.2 2.5-.4 4.3-.5 3.3-.2 3.4-.1 3.3.3 0 .4-.4.6-2.3.7-5.4.5-5.5.5-5.7 1-.1.7-1 .7-1.5 0-.2-.2-.9-.5-1.6-.6-1.1-.2-1.4-.1-2.3.5-1.1.7-1.7.8-2.5.4zm-10.9-.5c-.3-.6 1.7-1.2 3.2-1 1.4.3 1.2 1-.2 1l-2 .1h-1zm11-5.3c0-.2.4-.5.7-.5.5 0 .6 0 .6.4 0 .5-.2.6-.7.6-.5 0-.6-.1-.6-.5zm-20.5-5v-.5c.2-.3.5 0 .3.5 0 .2-.1.2-.3 0zm-8-3c0-.4 1-.7 1.7-.4.6.3-.1 1-1 1-.6 0-.8-.2-.7-.5zm8.1-.1c0-.2.1-.4.3-.5.2-.2.8.5.6.7-.3.3-.9.2-.9-.2zM52 85.3c-.5-.5 0-.8 1.8-1.2 3.3-.6 13-1.7 13.5-1.5.1.1 1 0 1.8-.3a6 6 0 0 1 3.3-.4c1 0 2.1.2 2.5.4h1.7c.8-.2 1-.2 1.2 0 0 .4.7.4 3 .3 2.5-.1 3-.1 2.8.2-.1.5-1.6.7-4.2.8-1.3 0-2-.1-2.1-.3-.1-.2-.7-.2-2 .2-1.8.4-2 .4-2.3 0-.4-.5-2.6-.8-4-.5-4.2 1-5.4 1.2-8.3 1.2-3 .1-6.2.6-8 1.4-.2 0-.6 0-.7-.3zm-12.8-6.2c0-.3.6-.5 2.9-.7 1.3-.1 1.9 0 1.9.1 0 .4-.6.5-2.9.7h-1.9zm-16.6-1.5c-.2-.5.3-1 .7-.8.4.3.4.9-.1 1-.2.1-.5 0-.6-.2zm29.2-.1c.1-.2 1.8-.8 2.4-.8.7 0 .3.7-.5.9-1.2.2-2.1.2-2-.1zm-22-4.5v-.5c.2-.4 1 0 1 .4s-.7.5-1 .1zm-2.9-.6c-.2-.4.3-2 .6-2s.7 1.4.5 1.9c-.2.5-1 .6-1 .1zm19.2 59.5c0-.5 1.6-1.2 2.6-1.2s3.3-1.4 4.5-2.8c1.4-1.5 1.4-2.3.3-2.8-.7-.3-.8-.5-.7-1 0-.4 0-.6-.5-.6-.3 0-.7.3-.8.6-.3.3-.7.5-1.3.5-.8 0-1 0-.7.4.2.2.2.5.2.7-.2.5 1 .9 2.2.6 1-.2 1.6.2 1 .8-.1.3-.7.4-1.6.4-1.3 0-1.3 0-1.1.7.1.7 0 .8-1.2 1.4-.8.3-1.9.5-2.8.5-1.3 0-1.4 0-1.4.7 0 .9-.7 1.3-1.7 1-1.3-.3-13-.5-13.3-.3-.6.7.7.8 8.2.8 7 0 8.1 0 8.1-.4zm29.3.1c.8 0 .9 0 .7-.8 0-.5 0-.8.3-.9.7-.3 1.4.1 1.5.9.1.8 1 1 1.7.4.2-.2.7-.4 1-.4 1.2 0 1-.5-.7-1.4-1.4-.7-1.8-1-2.3-2.1-.6-1.4-1.2-1.7-3.3-1.4-.7.1-2.8.2-4.5.1h-3.2l-1 .8c-1 .8-1.4 1-3.2 1.2-.5 0-1.2.3-1.5.6-.6.4-.6.4.4.2l3.3-.5c2.3-.4 3.3-.3 4.8.4.7.4 1 .4 1 .2.2-.6.7-.7 2.4-.7 2 0 2.8.5 2.6 1.6-.1.9-.8.9-2.6 0-.9-.3-1.7-.6-2-.5 0 0 0 .2.4.4.9.3 1.5 1 1.2 1.4-.2.3-.5.3-1.7-.3-1.7-.8-3.1-1-3.7-.4-.4.4-.8.5-2.1.3a10 10 0 0 0-3.7.4c-1.6.4-2.3.4-2.5.3-.1-.2-.7-.3-1.1-.3-.7 0-.9-.1-1-.7v-.6l-2.1.8c-1.2.5-2 1-1.7 1h22.6zm-50.5-.6c0-.5 0-.6 1-.8a4 4 0 0 0 1.6-.6c.7-.6 3.5-1 5-.7 1 .2 7 0 8-.2v-.4c0-.4-3.5-.5-4.2 0-.8.4-2-.2-3-1.5-1-1.4-2.3-1.7-2.8-.8-.2.3-.7.6-1.3.7-2.7.5-6.7 1.6-7.8 2.2-1.1.6-2 1.7-2 2.4 0 .2 1 .3 2.7.3 2.7 0 2.8 0 2.8-.6zm82.5.4h-1l.6.1h.4zm-96.2-.6 3-.8c1.6-.3 2.8-.7 3.6-1.2l3.1-1.6 1.8-.8a23 23 0 0 0-6 1.7 8 8 0 0 1-4.9.8c-1.8-.1-2.5 0-3 .3-.7.3-.9.3-1.5 0-.9-.5-1.3 0-1 .9.3.6.5.7 1.6.8 2.5.2 2.8.2 3.3-.1zm78.3-.5c.6-.3 1-.7 1-1 0-.4-.2-.4-.7-.1-.3.2-.8 0-1.7-.3l-2.5-.6c-1.3-.2-1.3-.2-1.9.7l-.5.9.7.2 4.2.7 1.4-.5zm3.2 0c0-.2-.3-.3-.5-.3-.3 0-.6.1-.7.3-.1.1.1.2.5.2s.7 0 .7-.2zm-38.3-1c1.1-.4 2.4-1.7 2-2-.2-.2-.4-.2-.6 0-.1.2-.5.3-.7.3-.2 0-1 .5-1.6 1.1-1 .9-1 1-.5 1 .3 0 1-.1 1.4-.3zm-8.5-1.5c.2-.4 0-.4-1-.4-1.2 0-2.2.2-2.2.5 0 .1.4.5 1 .8l.9.7.6-.6.7-1zm59.9 1.3c.2-.4-1-2.4-1.7-2.7-1-.6-2.7-.6-3.7 0-.5.2-.9.6-.9.7 0 .4 1 .6 2.4.5 1 0 1.2 0 1.2.3 0 1 2.3 2.1 2.7 1.2zm-24.5-1.1c0-.6-1.2-2-1.7-2l-.8-.4c-.7-.7-.8-.2 0 1 .5.8 1.6 1.7 2.3 1.8l.2-.4zm1.5-.6a7 7 0 0 1-.3-.6c0-.3-.3-.5-.4-.4-.2.1-.2.4 0 .8s.4.6.6.5v-.3zm-70.1-.6 1.5-.6-1-.3a54.1 54.1 0 0 0-5.3-1.7c-1.4-.5-1.6-.5-2.2-.1-.3.2-.6.6-.6.9 0 .7 1.2 1.4 2 1.2.5 0 1.1 0 1.6.3a8.4 8.4 0 0 0 2.4.8l1.6-.5zm30.2-.6a11 11 0 0 1 2.8-.4c1 0 1.8-.1 1.8-.3.2-.2-.8-.7-2.2-1-.5 0-1.1-.3-1.3-.4l-1-.6c-.5-.1-.6 0-.6.4 0 .8-.8 1.2-2.2 1.2-.8 0-1.6.2-1.8.3-.5.2-.8.8-.6 1.2.2.4 3.5 0 5-.4zm44-.9c.9-.5 1.5-1.1 1.5-1.3 0-.6-1.4-1.6-2.3-1.7-1 0-3 1-3 1.4 0 .4.7.5 1.4.3 1.2-.5 2.2.6 1 1.2-.5.3-.7 1.1-.2 1.1.1 0 .9-.4 1.7-1zm-58.2-1.4c3 0 3.4-.1 3.4-.5 0-.7.4-.7 5-.6l4 .1.8-.8 1.5-1c1.6-.4 0-2.8-2.6-3.6-1.4-.4-2-.5-5.2-1-.9 0-1.3-.2-1.4-.6 0-.3.3-.5 1.6-.7 1.4-.3 1.6-.4 1.4-.8-.2-.6.6-.7 1.3-.1.4.3 1.3.4 3.3.4 2.5 0 2.7 0 3.4.6.7.6.7.7.4 1.5a6 6 0 0 0-.3 1.7c0 .5-.1 1-.3 1.2-.3.3-.2.3.3.2l1.4-.4c.8-.2.9-.3.3-1.6l-.4-1.6a18.1 18.1 0 0 0-3.8-7c-.5 0-1.8 1-2.4 1.7-1 1.1-.9 1.5.2 1.5 1 0 2 .7 2 1.3 0 .5-1 .4-2 0-.4-.3-1.2-.5-1.8-.5-1.4 0-3.9-.8-4.2-1.4l-.3-.6-.4.1c-.2.2-1.3.4-2.5.5-1.1 0-2.3.2-2.5.4-1 .4-2.1.5-2.3.1v-.5a84 84 0 0 1 6.6-2.4c1.6-.5 2.2-.2 2 1-.2.6-.1.7.8.8 1.7.3 2.2.2 2.9-.5l.6-.9-1.9-.7c-1.3-.3-1.9-.6-2-1-.2-.4-.7-.7-1.5-1-1.1-.2-1.3-.2-1.9.2-.5.5-1 .5-3.6.4a16 16 0 0 0-3.3 0c-.5.3-2 .4-2.5.2-.4-.3-.6-.2-1 .3-.2.4-.6.5-1.4.5-1.2 0-1.4-.5-.4-1.2.5-.3.7-.6.5-1 0-.3 0-.6.4-.8.9-.6.7-.9-.5-.7-.8 0-1 0-1-.3 0-.5 1-1 2.1-1 .7 0 .8 0 .5-.5-.2-.5-.2-.8.1-1.5.7-1.3 1.7-1.2 3 .2l1.9 1.4 2 1c1.5 1 3.4 1.5 5 1.5 1 0 1.5.2 2 .6a17 17 0 0 0 6 1.6s-2.2-3.3-2.8-3.9c-.7-.6-1.1-2.5-.9-3.7.4-1.5 1-1.4 1 .1 0 .7.4 1.8.7 2.4 1.1 2.2 1.5 2 2.2-.8.3-1.3.4-3 .4-5.2v-3.2H42c-.5 0-1.4-.2-2-.5-1.2-.3-1.6-.4-3 0-1.4.2-5.1 1.5-5.6 2-.3.2 1 1 1.9 1.2.6.2 1 .4 1.2.7l.7 1.7c.9 1.8 1 3.2.7 4.1-.4 1-1.1 1.2-2 .7-.6-.4-.6-.4-.5 0 .1.4 0 .7-.4.9-.5.3-.7.2-1.7-.6-1.4-1-1.5-1.2-1.5-2 0-.5 0-.6-.8-.4-.6.1-1 0-1.3-.3-.4-.3-.8-.4-1.2-.3-.9.2-1.2-.4-.6-1.1 1.7-1.8 1.8-2 1-2.3h-1.2c-.7.1-1.1 0-1.6-.3a7 7 0 0 0-1.3-.7c-.3-.2-.4-.4-.3-.8.1-.6 0-.7-.4-.8-.8 0-2.3.2-2.7.6-.4.4 0 1.6.9 2 .5.3.8.6.8 1 0 1-.6 1.3-1.9 1.1-.9-.1-1 0-1 .3 0 .2.2.4.5.4.4 0 1 .2 1.3.5.5.4.6.6.4 1.2-.3 1.2-1.2 1.4-3.3.7-2.3-.7-3.4-.9-4-.6-.7.4-1-.1-.4-.7.4-.5.4-.5-.2-.7-1-.2-2.3 1.2-2.7 3.1 0 .5-.3.7-.6.7-.5-.1-.5-.8-.2-2.3.2-.8.2-.9-.5-.9-.5 0-.7-.1-.7-.5s.2-.5.9-.6c.8 0 .9-.1 1-1.4L10 97c0-.8 0-1-.3-1s-.3.2-.2.7c0 .4 0 .6-.2.6l-.2.8c0 .7-.2.8-1 1-1 .2-1.7-.2-1.2-.8.5-.6-.1-2-.9-2-1 0-1.4-.3-1.4-.9 0-.4 0-.5.9-.3 1 .1 1.5-.3.7-.5-.5-.2-2-2-2-2.4 0-.4 1.3-.1 1.6.4.2.3.4.5.5.4 0 0 0-.4-.3-.8-.3-.5-.4-.8-.2-1 .4-.4 1 .4 2 2.4.8 1.4 1 1.6 1.5 1 .6-.7 0-1.8-1.6-3-.8-.5-1.8-1.5-2.3-2.1-.5-.8-.8-1-1.1-.9a169.2 169.2 0 0 0-.1 17.3c.1 1.5.2 1.8 1 2.3l.7.6.5-.6c.4-.5.6-.6 1.7-.4 2.8.4 3.6.9 3.6 2.2 0 .7 0 .7 1.2.1 1-.4 1.2-.9.4-.9-.7 0-1-.5-.5-1 .5-.4 2-.2 2.3.4 0 .3.3.3 1 .2.6 0 1 0 2 .9 1 1 1.1 1 2 .6a18 18 0 0 1 3-.5l3-.4c.5-.2.7 0 1 .4.4.7.1 1.2-.8 1.6-.6.2-.8.2-1-.3-.5-.4-.7-.5-2.3-.2-1.8.2-2.8.6-2.8 1l.8.8 1.2 1c.2.2.6.3.9.3.8 0 1.3.3 1.3.8 0 .7-1.8 1-4.4 1-1.9 0-2.3-.2-2.9-.7-.6-.6-.8-.7-4.6-.7-2.6 0-4-.2-4.3-.4-.4-.2-.5-.2-.7.3-.2.3-.5.5-.8.5-.6 0-2 1.2-1.8 1.6 0 .2 1.3 1 2.8 1.6 2.7 1.2 3.4 1.8 2.7 2.4-.2.3-2.5-.3-3-.8-.5-.4-2.2-.6-2.4-.3-.3.4.1 2.4.5 2.8.3.2.9.4 1.5.3h1.1l-.9-.2c-.7 0-1-.3-1-.7-.1-.8.6-1 2.5-.5 1.8.5 1.9.5 1.4 1-.2.4-.2.5 0 .6 3.7 1 5.7 1.5 7.8 1.5 1.8 0 2.3 0 2.3.4l-.1.4-2.3.2c-2 .2-2.9.5-2.6 1 .1.1 2.4-.2 5.1-.8 4.2-.9 5.6-1 8.4-1zm-6.6-.2c-.1-.2-1-.3-1.8-.4a91.6 91.6 0 0 1-7-.8c-.6.2-1.2-.3-1-.8.2-.5 1.5-.5 4.5 0l4.4.6c2.1.3 2.2.3 3.6-.4 1.3-.6 1.6-.6 2.3-.4 1.2.5 2.2.4 2.4-.2l.3-.7c.1-.2-.2-.4-1-.5-.7-.1-1.2 0-1.8.3-.5.3-1.3.6-1.8.6l-2.3.2c-1.4.3-2.5.2-3.5-.2-.9-.5-.7-.8.7-.8 1.3 0 5.8-.7 7.1-1 1-.4 2.5-.1 2.7.4.1.3.6.4 2.3.3 1.2 0 2.4.1 2.9.3.4.1 1.5.3 2.4.3 1.3 0 1.7 0 1.8.4v.7c-.2.3-5.7 0-6.4-.3-.7-.4-1.6-.1-1.6.3 0 .2-.3.7-.7 1-.6.5-.7.6-2.8.4-1.9-.1-2.5 0-3.8.4-1.8.6-1.6.6-1.9.3zm17.4-4.5c0-.2.1-.3.2-.3.2 0 .3.1.3.3 0 .1-.1.2-.3.2a.3.3 0 0 1-.2-.2zM15 119c-.2-.5.3-1.1.8-1 .6.3.5 1.5-.1 1.5-.3 0-.6-.2-.7-.5zm-3.6-.7a4 4 0 0 1-.2-1.1c0-.4-1.5-1.2-2.4-1.2l-.8-.4c-.5-.6.2-1 1.6-.8l2.8.2c2.1 0 3.2.1 3.4.7.3.7-.2 1.6-1 2-.5.2-1 .6-1.2.8-.2.3-.7.4-1.1.4-.6 0-.9-.1-1-.6zm8.4.4c-2.1-.2-2.6-.5-1.9-1 .3-.3 1.2-.4 3.5-.2 2.6.1 3 .2 3 .6 0 .5-.8.9-1.9.8l-2.7-.2zm10.2-1.3c0-.9 2.1-1.1 2.3-.3 0 .4-.1.5-1.1.5-.7 0-1.2 0-1.2-.2zm-3.2-.9-.3-.6c0-.2-.2-.5-.4-.6-.7-.4-.2-1.1.8-1.1l1.7-.2c.7-.1.8 0 .8.4 0 .3-.2.7-.5.8-.4.3-.5.4-.3.7.2.2.3.5.2.6-.3.4-1.6.4-2 0zm-10.3-9.2c0-.4.2-.6 1-.7 1-.2 1.6.2 1 .6-.2.2-.7.4-1.2.5-.7.2-.8.1-.8-.4zM6 105.8c-.5-.4-.7-.7-.6-1 0-.3 0-.6-.3-.7-.4-.1-.5-1.2-.1-1.2.6 0 1.3.6 1.3 1s.2.5.7.5c.7 0 .8 0 .7.7 0 .7-.4 1.2-.9 1.2l-.8-.5zm6.8 0-1-.4c-.3 0-.3-.4-.2-1l.1-1.1h1.8c1.2.1 1.8.3 2.2.7.5.4.5.5.1.8-.2.1-.6.2-1 .1-.5 0-.5 0-.4.5.2.7-.2.8-1.6.3zM5 100.5c-.2-.2-.2-1.7 0-1.7.5 0 1 .5.8 1 0 .7-.5 1-.8.7zm19.1 0c0-.1-.3-.4-.8-.7-.9-.5-1-1.2-.2-1.2.6 0 2.2 1.4 2 1.8-.2.3-1 .4-1 0zm12.5 25c0-.6-.2-.7-1.5-1h-1.8c-.1 0 .1.4.5.8.6.6 1 .8 1.8.8s1-.1 1-.6zm40.5-1 .7-.4c.3-.3-1.2-1.5-1.7-1.5-1.1 0-2.8 1.5-2.4 2 .2.4 2.7.3 3.4 0zm-18-1 1.4-.3h-1.4c-.9 0-1.5.2-1.6.4v.4l1.6-.4zm9.6-3.5v-.7c-.4-.3-2.8 0-2.8.4 0 .2.7.4 2.5.8l.3-.5zm-7.9-1c-.1-.4.4-.9 1-.9.5 0 .6.7.1 1h.5c.7 0 .8-.1.8-.9.1-.7 0-.9-.5-1h-1.5c-.9 0-1 .1-1.1 1v1.3c.1.3.9 0 .7-.4zm6-.8c.1-.2-.2-.4-.6-.6-.4-.1-.9-.4-1-.6 0-.3-.3-.4-.5-.4-.4 0-.4 0-.1.3l.3.9c0 .5.1.6.9.6l1-.2zm-22.8-.9c0-.1-.2-.2-.5-.2-.4 0-.4 0 0 .2.5.4.5.4.5 0zm-23.3-3c0-.2-.7-.8-1.4-1.4a8.8 8.8 0 0 1-1.8-2c-.3-.7-.5-.8-1.4-.8a3 3 0 0 0-1.7.7l-1.3 1c-.4.2-.2.3 1.4.1 1.9-.1 2-.1 3.2.9 1.9 1.5 3 2 3 1.4zm-15.5-1c.4-.5.3-.6 0-1.3-.7-1-1-1-1 .6 0 1.4.4 1.6 1 .7zm4.7-2.6c.4-.8-.2-1.3-1.2-1.2-.7 0-.9.2-1 .7 0 .6.1.8.6.9 1.1.2 1.3.2 1.6-.4zm113.9-3.4c0-.2 0-.3-.3-.3-.2 0-.4.1-.3.3l.3.3.3-.3zm-5.5-.5c0-.4-1.5-.8-3.3-1-.8 0-1.6-.2-1.8-.3-.1 0 0 .1 0 .4.4.6 1 .8 3.3 1h1.5c.2.1.3 0 .3-.1zm-47-1c0-.2-.2-.3-.3-.2-.2 0-.3.2-.3.4 0 .1.1.2.3.2l.2-.4zm51-.4c0-.2.2-.2.6 0 1.7.5 5.1-.3 5.5-1.2.1-.3.4-.6.5-.6.2 0 .3-.1.3-.3 0-.4-1-.3-1.5.3-1 1-6.1 1.5-8.9 1-2.1-.5-6-.8-5-.4a37 37 0 0 0 7.9 1.5c.3 0 .6-.1.6-.3zm-48.8-1c.4 0 .7-.3.8-.7.2-.9 0-1-.5-.7-.2.2-.7.3-1 .2-.3-.1-.5 0-.5.1 0 .2-.2.3-.4.3s-.4-.2-.4-.6c0-.3-.1-.4-.3-.3-.7.4.2 1.8 1.2 1.9l1.1-.1zm38.9-1.2-.4-.8v1c0 1 .2 1.4.6.9 0-.2 0-.7-.2-1.1zm22 .3.9-1-1 .2c-.6.2-1.7.3-2.5.4-1.4 0-2.4.4-2.4 1 0 .1.8.2 2 .2 1.9 0 2 0 3-.8zm8.4.6c.1-.2 0-.5-.2-.6-.3-.2-.5-.5-.5-.8 0-.2-.2-.6-.5-.8-.4-.4-.6-.4-1.6-.1-1.5.4-4.3 1.8-3.3 1.6.5 0 1.3-.3 1.8-.5 1.4-.5 2.3-.5 2.5 0 .1.3 0 .6-.1.6-.6.2-.3.6.5.7l1 .1c.2 0 .3 0 .4-.2zm-16-1.2c.3-.3 1-.5 2.2-.6 1-.1 2-.4 2.4-.6.3-.3 1.3-.6 2.1-.7 1.4-.1 1.5-.2 1.4-.8 0-.4.2-1.3.5-2l.4-2.2c0-1 .6-1.2 1-.3.1.6-.4 3.4-.8 4.3-.3.5-.1.5 1.6-.1 2-.7 2-.9 1.4-1.6l-.5-.7v.7c0 .8-.3 1-.7.9-.5-.2-.8-1.8-.5-2.7.1-.4.2-1.1 0-1.6-.1-1-1.4-2.5-1.9-2.3-.2 0-.3 1.1-.3 2.8 0 2.6 0 2.9-.7 4-.6.8-.9 1-1.3 1a6 6 0 0 0-1.8 0c-.7.1-1 .2-.6.2.8 0 1 .5.3.9-.4.2-.8.2-1.4 0-1.3-.5-2-.3-4 1l-1.8 1.1h1.4c.9-.2 1.5-.4 1.7-.7zm47.7-.3c.2-.3-1.4-.6-1.8-.4-.3.2.5.5 1.2.6l.6-.2zm3.6-.3c0-1-.3-1.3-2.2-1.5-1.8-.2-2.7-.5-2.4-1h2.2l2 .2.2-.8V98c-.2-.4-.3-.5-.3-.2s-.2.4-1.1.3c-1.3-.2-5.2.2-7.9.8a170.4 170.4 0 0 1-5.4 1.1c-.3.2 1 1.7 1.9 2.1.8.5 3.9.2 4.5-.4.6-.6 5.4-.3 6.8.4 1.1.6 1.7.7 1.7.4zm-81.7-.3-.3-.3-.3.3.3.3.3-.3zm24-.2c0-.2-.1-.3-.4-.3-.6 0-1 .3-.7.6.3.3 1 0 1-.3zm-86-1.2c-.3-.5-.8-1.1-1.2-1.4-.8-.6-2-.8-2-.4s3.2 3 3.5 2.8l-.3-1zm110.5.6c.1-.1 0-.3-.2-.3-.3 0-.4.2-.4.3 0 .2 0 .3.2.3l.4-.3zm-32.5-.3-.4-.2c-.2 0-.3.1-.3.2 0 .2.2.3.4.3.3 0 .4-.1.3-.3zm-37.2-.2-.1-.3-.3.3.1.2c.2 0 .3 0 .3-.2zm6.5-.7c-.2-.7.2-1 .9-.6.4.2.7.1 1.2-.2.4-.2.6-.5.5-.6l-1.6-.4c-1.5-.3-1.5-.4-1.7-1.4-.2-.7-.2-1 0-1.2.3-.1.4-.3.5-.5 0-.9.4-2 .6-2 0 0 .3 0 .5.3.5.5 4.5 1.6 5 1.3.7-.5.7-.9 0-.9-1 0-2.9-.7-3.3-1.3-.5-.6-.4-.9.2-.8.6.1.6 0 .7-1 0-1.3.4-1.6 1.2-1 .3.2 1 .4 1.5.4.6 0 1.1.1 1.2.3.3.4 2.2.2 2.2-.3 0-.2-.2-.3-.6-.3-.8 0-3.4-1.2-3.9-1.7-.3-.3-.2-.4.2-.6.3 0 .7-.3.7-.6.1-.4.3-.5.7-.4 1 .3 4.3.3 4.8 0 .3-.2.3-.2-.2-.4L92 86c-.4 0-1.2-.3-1.7-.6l-1.3-.5c-.5 0-3 2.2-5.1 4.3-2 2-4.1 5.1-4.1 6l-.6 1.1-.7.8 1 1a4 4 0 0 1 .8 1.3c0 .6-.7.3-1.5-.6-.8-.9-.8-.9-1.3-.4-.3.4-.3.5 0 .5.1 0 .9.4 1.5 1 .8.6 1.5.9 2 .9.8 0 1 0 .8-.7zm58.5 0c-.1-.1-.4 0-.6.3-.5.4-.5.4.1.1.4-.2.6-.4.5-.5zm21.4.1c.2 0 .4 0 .4-.2 0-.4-1.1-.3-1.9.1l-.6.4.9-.1 1.2-.2zM30.8 100c0-.4-.7-.6-1.1-.4-.3.2-.2.3.1.4.8.3 1 .3 1 0zm89.6-.7 1-.8c0-.1-.5 0-1 .4a3 3 0 0 1-1 .6c-.3 0-.7.1-1 .4-.4.4-.4.4.2.2a10 10 0 0 0 1.8-.8zm29.4.7c0-.2-.1-.3-.2-.3l-.7-.1c-.3-.1-.4 0-.4.2 0 .3.2.4.7.4.3 0 .6 0 .6-.2zm-4.5-.8c.7-.4.6-.4-1-.5-1.7-.2-2-.1-1.3.3.3.1.5.4.5.6 0 .5.7.3 1.8-.4zm7.1.6c1.3-.2 1-.6-.3-.6-1 0-1.2 0-1.2.4s.3.5 1.5.2zm-38.8-.4-.6-.2c-.4 0-.8-.2-1-.3-.2-.3-.3-.2-.3.2 0 .5.2.6 1 .6.4 0 .9-.1.9-.3zM130 99c.3-.2.6-.2.7 0 .5.4 1.3.4 1.1-.1 0-.2-.4-.4-.8-.4-.7 0-1-.7-.6-1.3.5-.8 1.3-2.5 1.3-3l.4-1c.3-.3.4-.8.3-1-.1-.3 0-.6.2-.7 1-.4.2-4-1.5-6.7l-1-1.7-.7 1.6c-.8 2-2.2 4-4.4 6.2-1 1-1.7 2-1.7 2.3v.5c.3 0 3-1.6 3.8-2.3 1.7-1.2 3.5-4.5 2.5-4.5l-.3-.3c0-.2.4-.3.8-.2.5 0 .7.2.8.8 0 .4 0 1-.2 1.2-.3.5-.2.7 0 1.2.6.7.6 1.3 0 2.5s-2.4 2.9-5 5c-2 1.4-2.7 2.2-2.2 2.2s3.2-1.4 3.6-1.9c.3-.5 3.2-2.1 3.4-1.9.2.3-.4 1.4-1 1.6-.4.1-.6.6-.2.6.2 0 .3.2.3.4 0 .4-.2.4-.8.3-.9-.2-1.6.2-1.6.8 0 .3 1.9.2 2.8-.2zM13.7 98c-.3-.4-.7-.3-.7.2 0 .2.2.3.4.2.2 0 .3-.3.3-.4zm137.5-.5-.4-.8-2.1.1c-2.2.2-3.3.6-3 1 .4.3 2.7.6 4.3.5h1.6zm-65.1 0c1-.9 1.4-1.7.5-1.5-.2 0-.5.3-.5.6 0 .4-.2.7-.4.7-.9 0-1 .1-1 .7 0 .5.3.4 1.4-.5zm26.4-.4c0-1-.6-.6-.7.4-.1.8 0 .9.3.5.2-.1.4-.6.4-1zm56.7.7 2.5-.7c.3-.2-2-.1-3 .1l-1.8.4c-.4.1-.6.3-.5.4.2.4.1.4 2.8-.2zm-152.7-.1.5-1.5c.4-.8.7-1 1.2-1 .4 0 .6-.2.6-.3 0-.2 2.2-1.4 2.6-1.4.4 0 1-.7.8-1-.1 0-.4 0-.7.2-.4.3-.7.3-1 0-.5-.4-1.1-2.6-1-3.7l-.1-1.3c-.1-.3.1-.4.9-.5 1.2-.2 1.2-.1 1.2-3.7 0-1 .1-1.9.3-1.9.1 0 .2 0 .2-.2s-.2-.3-.5-.3c-.4 0-.5.3-.6 1.4-.1.7-.3 1.4-.5 1.6-.3.1-.3.2.1.5.7.4.6 1-.3 1-.4 0-1 .2-1 .4-.5.5-.9.5-1.1-.2-.2-.5-.3-.2-.7 1.4l-.4 2.5c0 .3-.3 1-.6 1.4-.5.9-.6 1-1.6.8-1.5-.2-1.8 0-1.7 1.1.1 2.1 0 2.7-.7 2.7-1.3 0-.6.9.7 1 .6.1.9 0 1.3-.8 1.6-2.6 2.2-3.4 2.8-3.4 1 0 1 .7-.1 2.4-.6 1-1.2 1.9-1.4 2-.4.7-.4 1.1.2 1.1.3 0 .6-.1.6-.3zm1.2-6.2V91c.3-.4 1.2-.2 1 .3 0 .4-.8.6-1 .3zM156.4 97c1.1-.5 1.7-.5 3-.4a7 7 0 0 1 2.2.5c.7.4 2.2.5 3.3.1.6-.2.6-.2-.1-.2a3 3 0 0 1-1.7-.8c-1.2-1-2-1-9.4-.4-1.5.1-2.8-.3-2.8-.9 0-.3-.3-.3-1.3-.2l-3.1.3c-1.6.2-2 .4-3 1.2-1.2 1-1 1.2.9.8.9-.2 1-.2.3-.3-.4 0-.7-.1-.7-.3 0-.2 1.7-.4 3.3-.2.4 0 .8-.1 1-.3.9-.7 2-.4 4.8 1.3.8.4 1.7.4 3.3-.2zM121 96c.7-.5.8-.6 1.4-.3.4.3.8.3 1.1.1l1.4-.7c.6-.3 1-.3 1.2-.1.7.5 4.1-3.2 4.1-4.5 0-.2-.1-.3-.4-.3-.2 0-.4 0-.4.2 0 .3-3.5 3-5.1 3.8a6 6 0 0 1-2 .8c-.5 0-1.2.3-1.9.9l-1.3 1c-.1 0-.2 0-.2.2 0 .3 1-.3 2.1-1.1zm13 .7.2-1.9v-1.3l-.4 1c-.7 1.7-.8 2.8-.3 2.8.2 0 .4-.2.5-.6zm39.2.4c0-.2-.2-.3-.4-.3-.1 0-.2.1-.2.3l.4.2c.2 0 .3 0 .2-.2zm-5.3-.4c.8-.2 1.2-.4 1-.5-.3-.2-2.5-.6-4.1-.9-1.3-.1-1.3-.1-.9.4.3.3.9.4 1.5.4.7 0 1 .1 1 .5-.1.6-.1.6 1.5.1zM24.7 96c-.3-.3-.7 0-.4.4 0 .1.3.2.4 0 .2 0 .2-.2 0-.4zm87.7-1c0-.4 0-.7-.2-.7l-.2.6c0 .4 0 .7.2.7.1 0 .2-.3.2-.7zm-85 0-.4-.2c-.1 0-.2.1 0 .3l.3.2c.2 0 .2-.1.1-.2zm150.2-1-1.1-.7-1.8-1c-.3-.4-.8-.7-1-.7-.2 0-.5-.2-.7-.5-.4-.5-2.2-1.3-1.9-.8.1.1.3.3.5.3s.7.3 1 .7c.3.5 1.4 1.3 2.6 1.9 2.1 1 2.4 1.2 2.4.9zm-26.3-.5c-.1-.2-.4-.3-.6-.3-.4 0-.4 0 0 .3.7.3.8.3.6 0zm-29-1c.9 0 4.5-4.3 5.8-7 .8-1.5.9-1.6.6-3.4-.3-1.4-.5-2-1.4-3a5 5 0 0 1-1-1.7l-.2-.8c-.1-.1-.2.9-.2 2.3 0 4-.5 5.7-2.7 8.6-.9 1-1.2 1.7-1 2 0 .4-.2 1.3-.6 2-.7 1.7-.8 1.9-.2 1.3.2-.2.6-.4.9-.4zM127 84c-1-.7-1-1-.3-1 .8 0 1.6.4 1.6.9 0 .6-.4.6-1.3 0zm31.9 8.8c-.1-.2-.5-.4-1-.5-.4 0-.9-.3-1-.5-.5-.6 0-1 .8-.8h.7c0-.5-1.5-.7-2-.4-.7.7-4.9 0-4.4-.8.2-.3 2-.2 2.8.2.4.1.4 0 .3-.7-.2-.9 0-1 1.1-.4l2.6.9c1.4.3 1.9.4 2.3 0 .7-.4 1.1-.3 3 .5l1.8.6.6-.6c.3-.3.5-.8.5-1.1-.1-.4 0-.5 1-.3.8.1 1 0 1-.3 0-.2.3-.4.6-.4.7 0 3.4 1.3 3.4 1.6l1 .7 2.2 1.2 1.3.8v-4c0-4.2-.2-4.8-1.3-4.8-.3 0-.8-.2-1-.5l-1-.5a4 4 0 0 1-1.2-.7l-2.1-.7c-1 0-1.2-.2-1.1-.5 0-.6-.6-.6-4-.5-1.6 0-2 0-2.3-.5-.4-.5-.5-.5-2.3-.2-1 .2-2.4.3-3.2.3-1-.2-1.5 0-2 .3-.8.4-.8.4-.2.2l1.8-.3c1-.1 1.2 0 1 .3l-.2.9c0 .5-1.3 1-3.5 1.5-1.8.4-2.5.1-1.6-.5.3-.3.3-.5.1-1a2 2 0 0 0-.5-.8c-.1-.1-1.2.1-2.3.6-1.3.5-2.3.8-2.7.7-.5-.1-1.2 0-2.2.5-.8.3-1.8.6-2.2.6-.4 0-1.2.3-1.7.6a4 4 0 0 1-1.7.5c-.4 0-1 .2-1.2.4l-2.6 1.2c-1.8.7-2.2 1-1.8 1.1.2.2.9.2 1.5 0 .8 0 1 0 1 .3 0 .5-.6.7-1.9.7-.7 0-1 .1-1 .4 0 .4.2.4.7.3l2-.3c.6-.1 1.4-.4 1.7-.6.4-.2 1.4-.4 2.4-.5l1.7-.2v.8c0 1-.4 1.4-1.5 1.5-.5 0-.3 0 .7.3 1.7.2 2 .8.9 1.1-.8.2-.8.5 0 1l1 .7c.3.3.7.5 1 .5.4 0 .4 0 0-.3-1.4-1 0-1.3 2.8-.5 1.3.3 1.8.3 2 0 .4-.3 1-.3 2.4.3.6.3 1.4.5 1.8.5.6 0 .5 0-.3-.5-1-.5-1.3-.9-.8-1.2.3-.2 1 0 2.8.8 2.2 1 3.7 1.4 3.5 1zm-12.4-1.7c-1.7-.5-2.4-.8-2.3-1.1.3-.7 4.7.3 4.7 1 0 .5-1 .5-2.4.1zm17.3-1.4c-.3-.3-1-.5-1.7-.5l-1.5-.1c-.6 0-.3-.8.4-1 1.4-.3 4.2.6 4 1.4-.1.6-.5.6-1.2.2zm-15.9-.2c-1.4-.2-1.6-.4-1.6-1.1 0-.6.2-.7 1.3-1 2-.4 3.4-.3 3.4.2 0 .2-.2.4-.8.4a5 5 0 0 0-1.4.2c-.4.2-.3.3.6.4.7.1 1.1.4 1.1.6 0 .2-.2.4-.4.4H148zm23.8-1.7c-.5-.5-.2-.7 1.1-.7 1.6.1 2 .3 1.9.8-.2.5-2.6.5-3 0zm-9.2 0c-.8-.2-1-.6-.3-1 .5-.3 3.4.4 3.6.8.1.4-1.8.5-3.3.1zm-17.5-1c-.2-.6.4-1 1.8-1 1.5 0 1.3.6-.4 1-1 .3-1.3.3-1.4 0zm11.5.1c-2-.4-2-1.4 0-1.1 1.5.2 2.2.5 2.2 1 0 .4-.5.5-2.2.1zm-18.3-.6c-.3-.4.1-.6 1.8-1 1.4-.4 2.4-.3 2 .3-.5.4-3.6 1-3.8.7zm33.2-.3c-.4-.5 0-.7 2-.9 1.5 0 1.7 0 1.7.3 0 .4-.2.5-1 .5-.6 0-1.4 0-1.7.2-.5.2-.8.2-1-.1zm-24.5-1c-.2-.4.1-.6 1.7-1.1 1.9-.5 2.5-.5 2.4 0-.1.7-3.8 1.7-4 1.1zm15.6.1c-1.4 0-2-.2-2-.4 0-.4 3.2-.8 4.6-.5 1.2.3 1.4 1.2.2 1h-2.8zm-8.2-.6c-.2-.4.2-.7 1.1-1 1.2-.1 2.3.1 2.3.6 0 .3-.5.4-1.7.5l-1.7-.1zm18-.5c-.2-.3 1.2-.9 1.7-.7.2.1.3.3.3.5-.2.4-1.7.6-2 .2zm-26-.6c0-.3 1.8-1.2 2.6-1.2.6 0 .3.7-.4 1-1.5.5-2.2.6-2.2.2zm17.3-.4c-2.4 0-3-.4-1.8-.9.6-.2.6-.3.3-.4-1-.2-.3-.7 1.1-1 1.7-.2 2.7 0 2.7.5 0 .3-.3.4-.6.5-.5 0-.4 0 .2.2.9.3 1.2 1 .6 1l-2.5.1zm-51.3 9.6c-.2-.1-.4-.3-.4-.5 0-.1 0-.2-.2 0s.2.6.7.6c.4 0 .4 0 0-.1zm-101.1-1v-1.4c-.2-.8-.1-.9.5-.9.7 0 1-.3 1.6-1.8.4-1 .4-1.3.1-2-.2-.5-.2-.8 0-1 .2-.2.3-.5.3-.7 0-.3.3-1 .7-1.8a6 6 0 0 0 .6-2c0-.4.3-1.5.7-2.4.7-1.8.7-3 0-4.1a9 9 0 0 1-.7-2.7c-.3-2.8-1.2-5.2-2.1-5.5-.3 0-.5-.3-.5-.5l-.6-1c-.5-.7-.5-.9-.3-3.3l.2-3.5V51c0-7.3 0-18.4-.2-18.9-.1-.3-.4 0-.9.7l-1.2 1.6c-.5.6-.6 1-.6 4.1 0 2 0 3.7-.2 3.9-.2.2-.3 1.2-.2 2.2 0 1-.2 3.6-.5 5.6A136.3 136.3 0 0 0 7 74c.6.2.6 1 0 1.2-.4.2-.6.4-.6 1 0 .9-.6 1.5-1 1-.3-.4-.2-1.3.2-4.1.3-2 .6-6 .7-8.7.2-6.2.6-12 1-14.6.6-4.6.4-16-.4-16.4-.3-.2-.8.9-.6 1.6 0 .3 0 1-.2 1.6-.3 1-.3 1.2.1 1.9.5.7.5 1.2.4 6.6-.1 4.6-.2 6-.5 6.5-.3.4-.6 1.9-.7 3.7l-.7 4.3c-.4 1.2-.4 1.4.1 3.4.3 1.1.5 2.3.4 2.5-.2.6-.5.2-.9-1.3-.2-.7-.4-1.3-.6-1.3-.3 0-.2.2 0 2.6.2 1 .3 5.8.4 10.5v8.6l.8.3c.5.2.7.4.7 1 0 .3.2.8.5 1 .3.4.6.9.7 1.3 0 .3.7 1.1 1.4 1.7a21 21 0 0 1 1.7 1.6c.7.7 1.2.7 1.4.1zm-1.6-4.1v-1.3c.2-.8 0-1.1-.2-1.4-.6-.4-.6-3.3 0-3.5.5-.2.8.2 1 1.3v1l.3-1.4c.2-.8.4-3 .4-4.8 0-3 0-3.5.4-3.6.3-.1.6 0 1 .4.7 1 1.5 2.6 1.5 3.2 0 .9-.8.6-1.2-.4l-.5-1-.2 2c0 1.7 0 1.8.5 1.5.4-.2.6-.1.9.1.4.6-.1 1.2-1 1.2-.5 0-.6.2-.6.6l-.5 2.4-.6 1.8.7.3c.8.3.7.8-.1 1-.3 0-.7.2-.9.4-.3.5-.7.5-.9.2zM8.5 76.3c-.1-.2-.2-.6-.1-.8.1-.5 1-.2 1 .3v.6c0 .3-.5.3-.9 0zM8.3 67a26 26 0 0 1-.3-4.6c-.1-3.5 0-4 .3-4s.4.6.6 3.2c.3 5 .3 5.6 0 5.8-.2 0-.5-.1-.6-.4zm88.8 24.6c3-.6 3.5-.8 3.2-1.4-.1-.3-.4-.5-.7-.5-.2 0-.7-.3-1-.6-.4-.3-1-.5-1.3-.5-.3 0-.9-.3-1.2-.7-.3-.3-.8-.6-1-.6a15 15 0 0 0-3.4 4.5c.2.3 3.6.2 5.4-.2zm64 .2c0-.2-.1-.3-.4-.3-.3 0-.5.1-.4.3l.4.2s.3 0 .4-.2zm-129.3-.3c0-.2-1.4-1-1.8-1-.2 0-.2.1-.1.4.2.6 2 1.2 2 .6zm56.5 0-1.5-.4c-.8-.1-.9-.1-.4.3.3.2 1 .4 1.5.4.7 0 .8-.1.4-.3zm31.9-1.7c2-2.3 2.8-3.6 2.4-3.6-.2 0-.7.6-1 1.3a14 14 0 0 1-2.3 2.5c-1.5 1.3-1.8 1.8-1.1 1.8l2-2zm51 1.9c0-.2-1.3-.9-2-1-.5-.2-.4 0 .3.4 1 .6 1.7.9 1.7.6zm-58-.4-.1-.4c-.2-.1-.2-.6-.1-1.2 0-.7 0-1-.3-1.3-.4-.3-.5-.3-.5.5l-.1 1.8c-.2.7-.1.8.4.8.3 0 .6 0 .7-.2zm4.2-.9c.8-.6 1.5-1.2 1.5-1.4 0-.2.5-.9 1.2-1.6 2.1-2.3 2.4-2.6 2.8-3.4.5-1.1.7-2.3.3-2.5-.2 0-.4.3-.6.8-.4 1.5-2.4 4.2-4.9 6.6a24.7 24.7 0 0 0-2.3 2.4c0 .4.7.2 2-.9zm3.5.3c.6-.9.2-.9-.4 0-.4.5-.5.8-.3.7l.7-.7zm-98.5-.4c.6-1.3.5-1.7-.1-.8-.5.8-.7 1.8-.4 1.8l.5-1zM139 91c.3-.2.2-.3-.4-.3-.4 0-.7.1-.7.3 0 .3.5.3 1 0zm-24-.6c.1-.5 0-.8-.4-.6-.3.2-.3 1 0 1l.4-.4zm-8-.5-.6-.2c-.5 0-.6 0-.2.2.5.4.8.4.8 0zm3.4-.6c0-.2-.2-.4-.4-.4-.7 0-.5.5.3.7v-.3zm29.1.1c0-.2-4.5 0-4.7.2h2.3c1.4 0 2.4 0 2.4-.2zm-49.1-1c.2-.6 0-.6-1-.5h-1.1l.8.5c1 .6 1 .6 1.3 0zm24.4-.6c.3-.5 0-.6-.4-.1-.2.2-.3.4 0 .4l.4-.3zm-1-2.7c0-.7-1 .8-1.2 1.7l-.1.9.6-1.2.7-1.4zm6 .3c1.6-2.1 2-3.2 1.8-4.2-.2-1-.4-1-1.3 0-.4.4-.6.8-.5 1.4.2 1.2-.3 3-1 3.8-.8.7-.9 1-.4.7.2 0 .8-.8 1.5-1.7zM24 83c0-1.7 0-2-.4-1.9-.2 0-.4.4-.4.7-.2 2.4-.2 2.6.1 2.8.5.3.2 1.1-.5 1.1-.5 0-.5 0 0 .7l.4.7.3-1 .5-3zm93.4 3.5c.4-.5.4-.5 0-.4-.2 0-.4.3-.5.5-.2.6 0 .5.5-.1zm-11-1 .7-.7-.9.6c-.9.7-1 .8-.6.8.1 0 .5-.3.8-.7zm9.9-.3c1.5-1.6 2-2.5 1.8-2.7-.2-.2-.3-.3-.4-.2 0 0-.5.7-1.2 1.3-1 1.2-1.4 2.1-.9 2.1.2 0 .5-.2.7-.5zm2.5-1.4v-.6l-.2.7-.5 1.3-.3.6.5-.6c.3-.4.5-1 .5-1.4zm-23.6.5 1.3-1.7 1-1.1c0-.3 1-2.1 2.5-4.3.3-.5.7-1.2.8-1.7l.1-.7-.9.6c-3.2 2.5-9.6 4.5-9.6 3.2 0-.3.4-.5 1.5-.6 2.5-.3 7.8-3 8.3-4 .2-.7 0-.6-2.4.6-1.4.7-2.6 1.1-3.6 1.2-1.6.2-1.6.2-1.5-.4 0-.6.2-.7 1-.6 2 .2 6.8-2.4 6.3-3.4-.3-.3-.6-.3-3.2.4-2.1.5-3.6.5-3.6 0 0-.2.2-.4.7-.4 1 0 4.1-.8 4.4-1 .2-.2.6-.3.9-.3.3 0 .6-.1.6-.3 0-.4-1-.8-1.8-.7-.5 0-.7 0-.7-.4s-.2-.5-1-.5c-1 0-1.3.1-1.3.4 0 .2-.3.6-.8 1-1.6 1.1-4 5-4 6.3l-.4 2-.6 1.8c0 .3-.1.8-.3 1.1l-2 4s.4 0 .9-.4c.7-.4 1.2-.5 2.1-.4 1 0 1.2 0 .9-.3-.6-.8 0-1.2 1.5-1.2.8 0 2-.2 2.8-.5 1.7-.6 1.5-.6 1.5-.1 0 .2-.3.5-.8.8-.4.2-.8.6-.8.9 0 .5-1.1 1-2.2 1-.4 0-.7.2-.8.3-.1.2.4.3 1.3.3 1.4 0 1.5 0 1.9-.9zm-5-2.8c0-.4.3-.6 1-.7 2.1-.3 3.9-1 4.1-1.6.2-.4.4-.6.8-.5.6.2 2.1-.8 2.1-1.4 0-.2.2-.3.4-.3.7 0 .5.9-.3 1.6-1.1 1-4 2.5-5.8 3-2 .5-2.2.5-2.2-.1zm46.3 2.1c.5-.3 1.1-.5 1.5-.5.3 0 .9-.2 1.2-.5.4-.2.8-.3 1.4-.2.6.1 1 0 1.7-.6 1.5-1.2 3.4-2 4.3-1.8.5.1 1.4 0 2.2-.2.8-.3 1.7-.4 2-.3a46.3 46.3 0 0 1 15.8-.9c.4.3 1.4.5 2.2.6a5 5 0 0 1 2 .7c.4.3 1 .5 1.2.5.4 0 1.2.3 1.9.6 3.2 1.7 3.4 1.8 3.6 1.5.2-.3 0-5-.2-5.1l-1 .1c-1.1.3-1.4 0-1.1-1 .2-.7.7-.9 1.7-.5.4.2.4 0 .4-.6 0-.8 0-.8-.9-.8-.6 0-1.1.2-1.7.8-1.2 1.1-1.8 1.2-2.6.4-.5-.5-.8-.6-1.1-.4l-1 .2c-.3 0-.6.2-.7.3 0 .2-2.7 1-3.4 1-.5 0-.2-.7.5-1 1.1-.4 1.5-.5 2.2-1l1.4-.3c.3 0 .8-.2 1-.5.3-.3.3-.4-.2-.2l-2.3.3c-1.8.2-2.3 0-1.3-.7.8-.4-.3-.3-1.2.2l-1.2.4c-.2 0-1 .3-1.7.7-.7.5-1.5.8-1.7.8l-3.6 1.2a21.5 21.5 0 0 1-6.6 2c-.2-.3.3-.7 2-1.2l1.7-.8a3 3 0 0 1 1.3-.5c.5 0 1.7-.4 2.6-.8l2-.7c.6 0 3.6-2 3.9-2.7.1-.4.6-.8 1-1 1-.4 2.8-2 2.5-2.3 0 0-.4.1-.7.4-.2.4-1.3 1-2.2 1.4l-2 1c-.5.7-2.5 1.6-3.8 1.8-1.4.2-1.5.1-1.5-.3 0-.3.3-.7.7-.9.6-.2.6-.3.4-.6-.3-.3-.2-.5.2-.7.4-.3.4-.3 0-.1-.4 0-1.1.3-1.7.5l-1.5.5-1.5 1c-.7.3-1.4.7-1.6 1a4 4 0 0 1-1.9.3 8 8 0 0 0-2 .3c-1.1.4-4.7.7-4.9.4-.3-.5-4.2 1.3-6.7 3-1 .7-1.4.8-1.4.2l.9-.8c.4-.3 1-.7 1-1 0-.4.3-.6 1-.6.3 0 .9-.2 1-.4l2.1-1.3c1-.4 2.2-1 2.6-1.4 1.2-1 3.3-.9 4.2.1.8.8.9.8 3.6-.6 1.2-.6 2-1.2 2.2-1.6.2-.4 1.5-1.2 3.9-2.5 2-1 3.6-2 3.5-2-.1-.2-2.9 1-6.1 2.7-2.9 1.5-3.5 1.7-4.7 1.7h-1.4l.8-.6.8-.7-.8.4c-2 1-2.3.3-.4-.7.7-.4 1-.7.9-.7a7 7 0 0 0-1.9.8c-.7.4-1.6.7-1.8.7-.6-.1 2.5-2 4.5-2.8l1.5-.8h-1.2a7 7 0 0 0-3 1.3c-2.6 1.8-3.8 2.4-4 2.2-.2-.2.4-.7 1.4-1.3l2.2-1.5c.5-.6.5-.6-1-.4-2.5.3-2.8.4-3 1.1 0 .4-.4.7-.7.8l-1.8 1.3c-1.3 1.2-2.1 1.5-2.1 1 0-.4-1.2.4-1.4.9-.3.7 2 0 3.4-1s2-1.3 1.9-.7c-.2.7-5 3.7-5.9 3.7-.4 0-1.7.4-2.8 1-2.1 1.1-2.6 1.3-2.6.8l2-1.2c1.9-1 2.6-1.4 2-1.4l-4.2 1.6c-2 .9-3.9 1.5-4 1.4-.3-.3.3-.6 3-1.7L136 72a11 11 0 0 0 4-3c1.2-1.1 2-2.1 1.8-2.1h-3.3c-2.9 0-3 0-3.6.7-.2.3-.7.6-1 .6-.6 0-.6 0-.2-.3.3-.2.5-.5.5-.6 0-.3-.6 0-1.4.5l-.5.7c.6 0 .3.7-.9 1.8-1.3 1.3-1.5 1.8-.5 1.5.8-.2 1.1.3.3.6-1 .5-2.5.9-2.8.9-.4 0-.4-.7 0-1 .8-.5 3.3-3.3 2.7-3l-.7.5c-.1.2-.3.3-.4.3-.3 0-.4-.8-.1-.8l1.4-1 1.2-1.2-1.6.2c-1.4.2-1.7.3-2.6 1.3-1 1-1.5 1.9-2.6 4.3-.2.5-.2.7.3 1.3a48.1 48.1 0 0 1 5 7.5l1.1 1.8c.5.8.6.9 2 .8 1.1 0 1.9-.3 2.4-.7zm38.5-4c-.4-.5-.1-.8.7-.8.7 0 .8.7.2 1-.6.1-.6.1-1-.3zm-43-1.9c-.2-.2-.1-.4 0-.4.2 0 .7-.4 1.2-.8 1.5-1.3 5.5-2.3 5.2-1.3l-1.6.7c-.8.2-2.1.8-3 1.3-1.2.6-1.7.7-1.9.5zm2.9-7.3c-.2-.4 1.9-1.7 2.2-1.5.4.2 0 .6-1 1.2-.6.3-1.1.4-1.2.3zM116 82.9c.9-1 1.2-1.7.6-1.7a7 7 0 0 0-1.8 2.4c0 .4.2.3 1.2-.7zm-96.2-1c.2-.9.2-1.3 0-1.6-.3-.4.3-1.7 1.1-2.6.4-.4.5-.7.4-1.2-.1-.3 0-1 .2-1.6.8-1.7 1-2.4.6-2.4-.5 0-1.2.7-1.2 1.1l-.6 1.4c-.3.5-.4 1.2-.4 1.4.1.3 0 1.1-.4 2-.3.7-.5 1.6-.5 2 0 .3-.1.8-.3 1-.2.2-.2.3 0 .5.2 0 .3.4.3.8 0 1 .4.7.8-.7zm-3.2-.2.8-.9c.4-.4.4-.5-.2-.3-.4.1-.9.4-1 .6-.7.8-.3 1.2.4.6zM119 81c.2-.8.2-1.2-.1-1.2-.4 0-1.1 1.3-1 1.6.3.4.9.2 1-.4zm5.8-.8c.6-1.6-.3-6-1.3-7l-.6-.6.1 1.8c.1 1.5 0 2.2-.3 3.1-.4 1.1-.4 1.3 0 1.9.2.3.6.6 1 .6.2 0 .4.2.4.3 0 .4.5.3.7-.1zm-17.6-.4c.8-.3 1.8-1.6 3.2-4.3.8-1.2 1.8-4.2 1.8-4.9 0-.4-.5-.5-1 0-.6.6-.8 0-.3-1.4.3-1 .5-1.3.9-1.3s.5.1.4.8c-.2.6-.1.8.3.8 1.2 0 .6 2.8-1.1 6a8 8 0 0 0-1.2 3v1.1l.5-.6c1.4-2 3-5.7 3.3-8.3.1-1.1 0-1.6-.3-2.1-.5-.7-.4-1.3.2-1.3.5 0 1.3 1.9 1.3 2.8 0 1-1.3 5-2.2 6.4-.9 1.6-.9 1.7-.4 1.5.2 0 .5 0 .6.2.3.5.5.3 1.3-.9.7-.9 2-3.8 2-4.3l-.6-.1c-.7 0-.6-.4.2-1.4.7-1 .8-1.7.5-3.3l-.2-1.1h-1.3l-2.8.2c-1.9.3-2.7 1.2-2.7 2.9 0 1.5-1 4.6-2.4 7.2-1 1.8-1.2 2.6-1 2.6l1-.2zm-3.7-2.2 3.2-7.1a4 4 0 0 0 .4-1.8c0-.3 0-.6.2-.7.4-.3 1 .7.8 1.4-.2.7-3.1 7.1-4 8.6-.4.8-.4 1.4 0 1.1l.6.1c.3.3.5.1 1.2-1 1.1-1.7 1.9-4 1.7-4.8a14.1 14.1 0 0 1 1.7-5.7c0-.4-1-.4-2.6 0l-1.2.3V70c0 1.6-.2 2.1-1.4 4.8l-1.8 3.8c-.4.9-.5 1.3-.1 1.3l1.3-2.2zm13.2.6c2.3-3.5 3-6.7 2-8.5-.4-.5-.6-1.1-.5-1.5.1-.4 0-.6-.3-.8-.8-.4-1-.2-.5.7.5.9.5 1.7 0 2.8-.1.4-.3 1.3-.2 1.9 0 .8 0 1.5-.7 2.8-.4 1-.9 1.8-1 1.9-.3.1-.1 2 .1 2l1.1-1.3zm-99 .6c.2-.5-.4-.4-.5 0-.1.3 0 .5.1.4.2 0 .4-.3.4-.4zm101.7-2.2c1-2.1 1.6-4.4 1.4-5-.3-1-.6-.6-.8 1a17 17 0 0 1-1.4 3.7l-1 2.3h.5c.4-.2.8-.8 1.3-2zm2.3.9c.5-1.3.7-2.2.5-3.1-.2-1.2-.6-1.2-.8-.1-.1.5-.6 1.5-1 2.2l-.7 1.5.8.2c.8 0 1-.1 1.2-.7zM19 75.7V74c0-.3-.2-.4-.3-.3-.4.2-.4 3.3 0 3.3.3 0 .4-.4.3-1.3zm67.2-.8c-.2-.3-.5-.5-.6-.4-.2 0-.1.3.2.6.5.7.8.5.4-.2zm18.4-3.5.3-1.7c-.1-.5-1.7 3.8-2 5.3-.2 1 1.3-2 1.7-3.6zm-15.9 3.2c.5-.7 1-2.4.8-2.4-.1 0-1.3 2-1.7 3-.2.5.4.1 1-.6zm-5.7-.5c0-.2-.1-.3-.3-.3-.1 0-.3.1-.3.3l.3.2c.2 0 .3-.1.3-.2zm1.8-1-.2.2c-.2.2-.3.5-.3.8 0 .4.5-.5.5-1zm60.8.8c.2-.2.4-.4.2-.4l-.8.4c-.3.2-.4.4-.2.4l.8-.4zm-58-3.6c.4-.6.8-1 1-1l.2-.4c0-.2-.2-.4-.3-.4-.2 0-.8 0-1.4-.2-.7 0-1 0-1 .2l-.5 1c-.5.7-.7 1.4-.3 1.4.2 0 .4-.3.5-.5 0-.3.4-.6.6-.6.7 0 .7.2.1 1.3-.2.5-.5 1.4-.5 2l-.1 1 .6-1.4 1.2-2.4zm83.1 2.1c-.5-.4-.6-.7-.5-1.1.2-.8-.2-.9-1.1-.3a2 2 0 0 1-1.3.3c-.5 0-.7 0-.7.4s.2.5 1.1.4c1 0 1.2 0 1.1.4 0 .4.2.5.7.5.4 0 .9.1 1 .3.1.3.2.2.3 0 0-.2-.2-.6-.6-.9zm7-1.5v-2.3l-.5 1c-.2.6-.5 1-.6 1-.3 0-.3-.1.2-1.8.4-1.7.4-1.9.2-1.9s-.4.8-.7 1.8c-.7 3-.8 3.5-.5 3.5.2 0 .3-.2.3-.5 0-.4 0-.4.2 0 0 .3.2.5.3.5.2 0 .3.2.4.5.4 1.1.6.5.6-1.8zm-89.3 1.3c.2-.5.4-.9.3-1-.2-.1-1.2 1-1.2 1.4 0 .6.4.5.9-.4zm15-2c.5-1.7 0-2-2.6-2.1-1.9-.1-2-.1-1.3.2 1.7.7 2.5 1.4 2.5 2l.2 1.8.2 1 .3-.8.7-2zm21.9 1.4.9-1.6c.2-.6.7-1.4 1-1.7.3-.3.5-.7.4-.8-.3-.2-7.3-.2-7.5 0-.1.2 0 .5.4.7.3.2 1.2 1 1.8 1.9 1 1.2 2 2 2.5 2l.5-.5zM22.9 70c.2-.8.3-1.5.1-1.7-.3-.5-.7 0-.9 1.2l-.2 1.2c-.2.3.4 1 .6.7l.4-1.4zm-6 1v-.3l-.3.3.1.2c.2 0 .3 0 .3-.2zm158.7-3c.2-1.3.4-1.5.7-1.4.4 0 1.3-.5 1-.7-.4-.3-2.6-.4-2.8-.1-.4.4-1.2 3.7-1 4.2 0 .3 1-2.2 1-3 0-.5.2-.7.5-.4v1c-.2.5-.3 1.5-.4 2.3l-.2 1.5.5-1 .7-2.4zm-85 2.5c.2-.3.7-.6 1-.6.2 0 .8-.3 1.2-.7.7-.8.7-.8.2-1h-1.8c-1 .2-1.3.3-1.7 1.2-.7 1.2-.7 1.2 0 1.4l.5.1.5-.4zm72.6-.2h-.5c-.2 0-.1.1.2.1.3 0 .4 0 .3-.1zm-42.8-.6c0-.2-.2-.4-.5-.6-.6-.3-.7 0-.2.5.4.4.7.4.7 0zm41.5-.2c.3-.2.4-.4.2-.4l-.8.4c-.3.2-.4.4-.2.4l.8-.4zm11-1.4c.5-1.2.6-2.4.2-2.4-.1 0-.3.2-.3.5 0 .2-.1.9-.4 1.5-.7 2.2-.3 2.6.5.4zm-103.7.7c.2-.1.4-.3.4-.5 0-.4-.9-.2-1.7.5l-.8.6.8-.2c.5 0 1-.3 1.3-.4zM154 68a26 26 0 0 0 2.7-1.6l.7-.6-.8.4a24.2 24.2 0 0 0-4 2c-.9.5-1.2.8-.8.8l2.2-1zm11.6.8c0-.2.5-.5 1-.7l1-.6c0-.5-.3-.4-1.3.4-1.4 1-1.6 1.1-1.2 1.1.2 0 .4 0 .5-.2zm6.3-2 .1-.8-.3.8c-.3.5-.5 1.2-.6 1.6l-.1.8.4-.9.5-1.6zm-151.2.4c-.2-.9-.5-1.4-.8-1.4-.7-.2-1-1.3-.8-1.8.2-.3.3-.7.3-1 0-.2.7-1 1.6-1.6 1.3-1 1.6-1.4 2-2.8.3-.9.8-2.7 1-4a74 74 0 0 1 2.4-9.8c.4-.8.8-3.8 1-7.7l.7-5c.4-2.5.4-3.2.2-4.3-.4-1.8-.7-2-.7-.5 0 1-.1 1.3-.8 1.9-.9.7-1 1.2-.5 2 .3.6-.1 1.8-2.2 6.3a27.2 27.2 0 0 0-3.2 8.8c.2.2.5.2 1.2-.2 1.7-1.2 2.9-1.7 3.1-1.5.4.2 0 .5-2.3 2.2-1.3.8-2.5 1.7-2.7 2a5 5 0 0 1-1.5 1l-1 .4V54c0 3.2 0 3.6-.5 3.7-.4 0-.5 0-.5-.7 0-.4-.2-1-.4-1.2-.4-.5-.4-.5 0-.7.7-.4.5-1-.2-1-.6 0-.7 0-.7.7 0 .5.1.8.3.8.3 0 .6 1.1.3 1.4-.5.5-.4 1.3.2 1.3.6 0 1 .4.5.6-.3.2-.3 1.8 0 2.3.4.5.9-1 .7-2 0-.7 0-.9.4-1 .5-.1 1.2-2.3.8-2.6-.2 0-.4-1.2-.4-2.6-.1-2 0-2.4.2-2.4.5 0 .7.6.7 2.3 0 .8 0 1.4.2 1.3l1-2.4c.5-1.3 1-2.4 1.2-2.5.4-.1.3.4-1 4.6-.8 2.2-1.7 5-2 6.4-.5 2-.7 2.4-1.2 2.4-.6.1-.7.6-.3 1.3l.4 1.2c.2 1.2 1.8 3 2.5 3 .3-.1.6 0 .7.3.3.9.4 0 0-1.2zm150-.2c.7-1.5.7-1.4-.1-1.4-.5 0-.7.1-.7.5 0 .2 0 .9-.2 1.4-.2 1.4.3 1.1 1-.5zm-6.5.2c2.2-1 3.3-1.9 2-1.5-1.2.4-5 2.5-4.4 2.5l2.4-1zm-115.9-.3v-.3c-.2 0-.4.2-.4.3 0 .2.1.3.2.3 0 0 .2-.1.2-.3zm28.3.1h-.8c-.3 0-.1.1.3.1.5 0 .7 0 .5-.1zm3.2 0c.1-.2 0-.4-.3-.4s-.6.2-.6.3c0 .2.2.3.4.3s.4-.1.5-.3zM53 66l.4-1.2.6-1.3c.5-1.1-.2-.5-.9 1-.7 1.3-.9 2.4-.3 2.2.2 0 .3-.4.2-.7zm14.2-.3c.8-.4 2-.8 2.9-.9 1.4-.1 1.6-.1 2 .4.2.3.8.5 1.8.6 1.6.2 2.1 0 1.5-.7-.2-.4-.2-.5 0-.7.6-.3 2.6-.3 2.8 0 .2.4-.2.8-1 .9-.6 0-.5.1.4.1 1.4 0 2-.5 1.7-1.6-.2-.6-.1-.7.7-.7h.9L80 63c-1-.2-1.2-.7-.5-.8 1-.2 2.8.2 2.8.6 0 .2.2.4.3.5.3.2 1.9-.4 1.7-.6 0-.2.1-.5.4-.7l.6-.8c0-.2 1-1.5 2.5-2.8 2.3-2.3 3.3-3.7 2.7-4l-.2-.9c0-.5-.2-.6-.7-.6-1.4 0-4.6 1.5-6.8 3.2-.8.6-1.2.3-.7-.6.3-.5.2-.5-1 .1-.9.5-2 .7-3.5.9-1.2 0-2.2.3-2.3.4 0 .1.2.2.6.2.5 0 .6.1.5.4-.1.4 0 .4 1 .3 2.8-.4 4.2-.5 4-.1 0 .2-.3.4-.6.4-.7.1-.8.9 0 1l.5.5.4.7c1.1 1-.3 1.5-2.7 1-1.1-.2-1.8-.5-2.3-1-.4-.5-1-.8-1.2-.8l-1.6-.3c-.8-.3-1-.5-1-.8.4-1-.6-.5-2.2 1.1-.9.9-1.8 1.6-2 1.6-.2 0-.8.3-1.2.8-.5.4-1 .8-1.2.8-.2 0-.4.1-.3.3 0 .2.5.3 1.2.3.8 0 1.1 0 1.1.3 0 .2-.4.4-1.4.5-2.3.3-3.4.2-4.7-.3a6.1 6.1 0 0 0-4-.2c-.5.2-.5.2.6.5 1 .3 1.2.4 1.1.9 0 .4.2.6 1 1 2.5 1 4.2 1 6.3-.2zm7.5-3.2a10 10 0 0 0-3-.1c-2.2.1-2.3.1-2.3-.4 0-.3.2-.5.7-.6.4 0 1.2-.3 1.8-.5 1.3-.4 2.3-.3 3 .4.2.3.5.5.7.5.2 0 .4.2.4.5 0 .6-.3.6-1.3.2zm9.2-2.4c-.1-.2-.5-.3-1-.3-1.1 0-1-.8.1-1.3a5 5 0 0 0 2.5-2.6c.4-.8 2.7-2.1 3.3-1.9.7.3.5.8-1.2 2.5-1 .9-1.5 1.7-1.5 2 .1.2-.2.7-.8 1.1-1 1-1.3 1-1.4.5zm2.5 6.5a1 1 0 0 0-.7 0c-.2.1 0 .2.3.2.4 0 .6 0 .4-.2zm-17.2-.3c0-.2-.2-.3-.4-.3-.1 0-.2.1-.2.3l.4.2c.2 0 .3 0 .2-.2zm32 0H100c-.3.1 0 .2.6.2.7 0 1 0 .6-.1zm6.4 0c.6-.2.4-.2-1-.3-1.1 0-1.7.1-1.6.3.2.3 1.4.3 2.6 0zM88.4 66c0-.2.4-.7.8-1.1.9-.8 1-1.3.5-1.5-.2 0 0-.4.5-1 .5-.4 1-.8 1.3-.7.5.2.7-1.7.3-2.8-.3-.8-.6-1-1.1-1-.6 0-1.5.6-1.8 1.2 0 .2-.5.7-1.1 1.1-1 .8-1.1 1.1-1.5 2.8-.6 2.4-.6 2.2 0 2.2.5 0 .7.1.6.4 0 .4.3.7 1.2.8.2 0 .3-.2.3-.4zm-.8-2.4 1-1.8c.5-1 .8-1.9.7-2.1-.2-.6.4-1.3.9-1 .2 0 .3.3.3.6 0 .6-1.2 3.4-1.7 4-.4.4-1.2.6-1.2.3zm9.7 2.2a2122.8 2122.8 0 0 0 18.1-.9c-.2-.3-2.4-1.4-2.8-1.4v.8c0 .5-.2.8-.5.8s-.4-.4-.4-1.3c0-1.3 0-1.4-.8-1.6l-1-.3.1 1.2c.1.8 0 1.3-.1 1.6-.6.6-1 .4-.8-.4.2-.9-.5-3.2-1-3.2-.3 0-.3.3-.2 1.1.2 1.2-.2 2.3-.7 2.3-.2 0-.3-.3-.1-.8.2-1-.3-2.8-.8-3-.7-.2-1 0-.7 1 .4 1.3.3 2-.2 2.6-.7.8-1 .5-.6-.7.2-.8.2-1.2-.2-2.2-.6-1.3-1-1.6-1.6-1.6-.4 0-.4 0 0 1.4.4 1.9 0 3.6-.9 3.2-.4 0-.4-.2 0-1 .4-.7.4-.9-.2-2.2-.5-1.3-1.7-3-2-2.7 0 0 0 .7.3 1.4.8 2.5.4 5-.9 5.1-.7.1-.7 0 0-1 .6-.7.6-1.8.1-3.7-.3-1-.5-1.3-.9-1.3-.3 0-.4.3-.3.8.3 2.6-.1 5-1 5-.3 0-.3-.2-.2-.7.4-1.7.5-3.2.2-3.8-.5-1-.8-.6-.8 1S96 64 95.6 64c-.1 0-.2-.8-.2-1.9 0-1.6 0-1.9-.5-2.2l-1-.7c-.7-.7-.8-.6-.9 1.2 0 2.4-.7 4.1-1.5 4.1-.4 0-.9.3-1.2.8-.7 1-.7 1.2 0 1 .2-.2 3.4-.4 7-.5zm12 .4h-.5c-.3 0-.2.1.1.2.3 0 .4 0 .4-.2zm-29-.3c0-.2-.3-.3-.6-.3s-.5.1-.4.3l.7.2c.3 0 .5-.1.4-.2zm3.4 0H83c-.2.1 0 .2.4.2s.6 0 .4-.2zm37 0a1 1 0 0 0-.6 0c-.2.1 0 .2.3.2.4 0 .6 0 .4-.2zm34.3 0h-.5c-.2.1-.1.2.2.2.3 0 .4 0 .3-.1zm-139.3-.3c0-.2-.1-.3-.3-.3-.1 0-.3.1-.3.3l.3.3c.2 0 .3-.2.3-.3zm21.1 0c.4-.2.4-.3 0-.2-.2 0-.7 0-1 .2l-.7.2h.7c.3 0 .8 0 1-.2zm9.4-.6.7-.5c.2-.3 2.2-1.5 2.9-1.7l2.1-1.1c1.1-.6 2-1 3-1l2.6-.3 3-.1h1.8l1.7-1.7c.9-.9 1.8-2 2-2.4.3-.6 1.1-1.2 4.4-2.8 4.7-2.3 5-2.5 7-5.8 1.3-2 1.9-2.7 2.8-3.2.6-.3 1-.7 1-.8 0-.5 1.1-.2 1.7.5.6.8.6 1 0 3.2a6.7 6.7 0 0 0-.1 3c.2 1.2.3 1.4 1 1.6.6.2 1 .5 1.2.7.1.2.8.1 3-.6 1.8-.7 3.1-1 3.8-1 1 .2 1 .2 1 1.2.1.9 0 1.3-.5 1.8a12 12 0 0 0-1.2 1.8l-.6 1.1 2.3-.2a23 23 0 0 1 4.3.1l2 .3 2-1c1.2-.6 2.3-1 2.5-1a14 14 0 0 0 3-2.6c2.2-2.3 2.4-2.7 2.7-4 .6-2.4 1-3 2.7-3.5 1.7-.6 2.1-1.3 2.1-3.3l.4-2.5c.4-1.2.4-2.2.3-5.1-.1-3.8-.2-4.2-.8-4.2-.5 0-1.8-1.6-1.8-2.1 0-.2-.2-.3-.5-.2-.3.1-.7 0-1.1-.6-.4-.5-.8-.8-1-.8-.4 0-.3.8.1 1 .3 0 .6.4.8.8l1.2 1.6c.5.5.8 1 .8 1.2 0 .2.2.4.5.5.7.1.7.7 0 .9-.6.1-.6.2 0 1.3.5.7.6 1 .3 1.2-.2.3-.4.2-.7-.3-.7-1-1.7-.6-1.7.8 0 .3-.2.6-.4.7-.2 0-.4.3-.4.5 0 .4-.2.4-1.4.3-1.7-.2-3.4-1.3-5.3-3.5-1.7-2-3-5.4-2.4-6.9.3-.7.7-.5.7.4v.8l.6-.7c.4-.4 1-.6 1.3-.6.8.1.8.7 0 .9-.3 0-.7.4-.7.7-.1.2-.4.5-.6.5l-.4.2c0 .5.6.3 2-.7a7 7 0 0 1 1.7-1.1c.7 0 .2.7-1.2 1.7-1 .7-1.4 1.1-1.4 1.6 0 1 .3 1.5 1 1.5a6 6 0 0 1 1.9.5c.6.3 1.3.5 1.6.5.3 0 .5.2.6.3 0 .3.2.3.7 0l1-.3c.8 0 1.8-1 1.5-1.4a9 9 0 0 0-2.4-2.4 16 16 0 0 1-2.5-2.4c-2-2.1-2.7-2.6-3-1.9 0 .2.1.4.5.5.7.2.2.7-.9.8-1 0-1.4-.4-.6-.7.4-.2.5-.4.3-.7-.2-.3-.3-.3-.7.2-.5.7-1 .5-.7-.3.2-.6 0-.5-.8.2-.5.6-.6.7-.4 2.8.2 2.6 1 5 2.7 7.6.8 1.3 1.1 1.6 1.4 1.4.3-.2.5-.2.9.1.2.3.8.4 1.2.4.5 0 .7.2.6.5 0 .3-.3.4-.6.4-.2 0-.5.1-.6.4 0 .3-.6 1-1.2 1.6-.6.6-1 1.2-1 1.3.3.2 1.3-.4 2-1 .4-.3.8-.5 1-.4.3.3-.2.9-1.5 1.5-1.1.6-3 2.5-3 3 0 .7-.7.7-1.3 0l-.7-.6 1.6-1.6c1.4-1.5 1.5-1.7 1-2-.5-.4-.5-.7 0-1 .4-.3.4-.5.1-1-.1-.3-.2-.8-.1-1 0-.4-.2-1.2-1-2.4-1-1.8-1.6-2.2-2-1.6l-.8.4c-1.3.3-2.7 1.4-2.5 2 .1.5-2.5 3-3 2.6-.1-.2.2-.7 1-1.4.9-.7 1.2-1.2 1-1.2-.6 0-2.8 2-3.8 3.4-.6.9-.8 1-.9.7-.1-.6 1.3-2.6 3-4a63.8 63.8 0 0 0 3.3-2.7c.6-.3 1-.7 1.2-.9l.9-.2c1 0 1-.2.6-1.6-.2-.6-.3-1.9-.3-2.7 0-1.7-.2-1.8-1.4-1.3l-2 .5c-1.2.2-2 .7-3.6 1.9-1.2.9-2.6 1.8-3.2 2-.6.3-1.4.9-1.7 1.2-.4.4-.8.7-1 .7-.1 0-.4.3-.6.7-.4 1 0 2.4 1 2.9.8.3.8.3 1.8-.8 2.6-3.1 3-3.5 3.7-3.5.3 0 1-.4 1.7-.9l2.8-1.5 1.7-.8v.7c-.1.5-.3.8-.7.8-.6.1-.9.6-.4.6.2 0 .3.2.3.4 0 .3-.3.4-.8.4-1 0-1.3-.5-.5-.8l.6-.2h-.6c-1 0-7 5.9-8.1 8-1 2-1.2 2.4-.3 2.2.3-.1.7 0 1 .3.5.4.6.4.4 0 0-.3 0-.6.2-.8.3-.2.5-.2 1 .1.5.6.7.6.7 0 0-.4.3-.4 1.5-.3 1.1.2 1.8 0 2.3-.2l1-.3c.2.3-.3.8-1.8 1.5A21.5 21.5 0 0 0 90 43l.4.7c.5.4.4 1.3-.1 1.3-.2 0-.4-.2-.5-.5 0-.2-.4-.7-.9-1.2-.6-.7-.8-.7-1.6-.6-.8.2-1 .1-1.4-.6l-.8-1c-1-.8-2.2-9.4-2.2-14.7a8 8 0 0 0-.3-2.7c-.1 0-.4-2.7-.6-5.9l-1-9c-.6-3.4-.7-5.1-.2-5.1h.2l1 6.9c.2.7.2-.4.2-3 0-5-.2-5-2-4.8-1 .2-1.2.3-1.3 1.2-.2.6 0 2.8.2 5.4l.5 8.2c.1 3 .2 3.7.5 3.6.4-.1.6.4.8 3.2a71.2 71.2 0 0 0 0 3c-.2.1-.4-.8-.6-1.8-.5-3-.5-3-.6.5 0 2.8 0 3.2.5 3.3.4.1.5.6.8 3 .3 2.8.2 3.8-.3 3-.2-.5-.3-.5-.6-.1-.3.3-.3.7 0 2.7l.5 2.8v.6c-.2 0-.4.4-.4.8s-.1.6-.4.6c-.2 0-.4 0-.4-.2 0-.6-.4-.3-1.3 1-.7.9-1.5 1.5-3 2.2-1 .6-2 1-2.3 1-.4 0-1.8.8-3.6 2.1a8.4 8.4 0 0 1-4.4 1.9c-.8 0-1.2.2-2.7 1.4a66.5 66.5 0 0 1-6 4.1c-.5.4-4.9 2-7.8 2.8a9 9 0 0 0-3.5 1.8 11.3 11.3 0 0 1-5 2.6l-2.3.8 2.8.5 5 .5a2 2 0 0 0 .9-.3zm13.1-9.7a7 7 0 0 1 2.4-1.6c.6 0 .2.5-.7 1.2-1 .6-1.7.8-1.7.4zm36.5-.8c0-.6 1-1.2 1.2-.9.2.3-.6 1.4-1 1.4 0 0-.2-.2-.2-.5zm2.6-1.7 1-2c.7-.9 1.2-1.9 1.3-2.5.3-1.7.7-2.6 1.4-2.8.3-.2.6-.5.6-.7 0-.2.2-.4.3-.4.2 0 .3.3.1.9l-.3 2.6-.2 2.3c-.2 1-.7.6-.7-.5v-1.1l-1 1.5c-.7.9-1.3 1.8-1.4 2.2-.3.7-1 1-1.1.5zm-30.9-2c0-.3 1.3-1.4 1.8-1.4.6 0 .4.5-.4 1-.7.7-1.4.8-1.4.4zm27 0c-.3-.3.3-1.6.6-1.6s.2.9-.1 1.4c-.3.3-.5.4-.6.2zM88.7 49c0-.2 2.5-3.7 3.8-5 .4-.5.9-.8 1.1-.8.3 0 1.6-.7 2.9-1.6 1.8-1.2 2.5-1.6 2.7-1.4.2.2-.4.8-2.4 2-1.5 1-3 2-3.3 2-.6.3-2.7 2.6-3.5 4-.5.8-1 1.2-1.3.8zm-2-.9c0-.4 1.3-1.7 1.7-1.7.3 0 .2.2-.5 1.2-.8 1-1.2 1.1-1.2.5zm-1-1.3c0-.3.2-.4.4-.4.4 0 .3.6-.1.7-.2 0-.3 0-.3-.3zm8.7-.6c0-.4 1.2-1.4 1.6-1.4.5 0 .3.7-.3 1.2-.7.4-1.3.5-1.3.2zm-11.2-6.4c-.2-.4-1-4.2-1-5.8-.1-1.8.4-1.9.6 0l.6 3.5c.3 1.3.4 2.2.2 2.3-.1.2-.3.2-.4 0zm23.7-1.4c0-.1 0-.2.2-.2s.3 0 .3.2-.1.3-.3.3a.3.3 0 0 1-.2-.3zm-19.5-5c-.2-.4.3-.8 3-2.8 2-1.5 2.2-1.6 2.2-1.2a194.6 194.6 0 0 0-3 2.9c-1.7 1.4-2 1.6-2.2 1zm20.7-1.8c-.2-.3.3-.7.6-.4.3.1.1.6-.3.6 0 0-.3 0-.3-.2zM49.9 64.8c.3-.3.4-.5.2-.5-.1 0-.4.2-.6.5l-.1.5.5-.5zm73.5.1c5.4-.2 5.3-.2 6.2-1.6.4-.7 1.3-2.3 1.8-3.5 1.2-2.7 1.4-3 2.4-4.6A42.9 42.9 0 0 1 139 49c.1-.4.4-.8.6-1 .3-.4.3-.6-.1-1.4-.5-1-.6-2.7-.1-3.2.3-.4.1-1.3-.2-1.3a29.6 29.6 0 0 0-8 6.1c-2.6 2.8-3.3 3.2-5.8 3.8l-4.2 1.6-2.8 1.2-3.5 1.6c-3.4 1.7-4.6 2.1-4.6 1.7 0-.4.5-.7 2.4-1.6 1-.4 2.2-1 2.9-1.6 1.7-1.2 4-2.2 4.4-2 .3 0 1.4-.3 2.4-.8s2.4-1 2.9-1.1c1.4-.3 2-.7 3.6-2.6a48.8 48.8 0 0 1 9.1-6.7l.9-.4-.2-2V37l2-1.7c1-1 3.3-2.7 4.8-3.8 2.5-1.8 2.8-2.2 2.4-2.4-.4-.3-.4-.4 0-.7.3-.2.5-.5.5-.7-.2-.4-1 .3-4.5 3-1 .7-1.6.9-1.6.3 0-.3 2.5-2.3 4.5-3.6 1.1-.7 2.1-1.7 2-1.8l.1-.6c.3-.5.2-.5-.6-.3-1 .1-2 .8-2 1.1 0 .2-.2.3-.4.3-.5 0-.5-.6 0-1.6.2-.5.2-1 0-2.4a24 24 0 0 1-.3-4.2l-.8.4c-.9.6-1 0-.2-.8.6-.6.7-.8.4-1.2-.2-.4-.2-1 .2-2.6.6-2.3.8-7.1.2-9.7-.2-1.4-.3-1.5-1-1.5h-.8l.5 1.1c.6 1.5.5 6.4-.1 11.4-.3 2.2-.4 3.7-.3 3.9.2.1.1.6 0 1.2-.3.7-.3 1.1-.1 2l.3 1.8c0 .7-1.5 2.8-2.3 3.3-.6.3-.7.2-1.7-.9-.6-.6-1-1.4-1-1.6 0-.3-.1-.7-.3-1l-.4-1.1c0-.4-.3-.8-.5-.8s-.4 0-.4-.2l-.7-3.8a41 41 0 0 1-.7-9.5v-6h-.7c-.7-.1-.6-.2-.6 3.6 0 2.5-.2 3.3-1 3-.1 0-.3 0-.3.2s.2.4.5.5c.3 0 .5.4.5 1s.2 2 .6 3c.3 1.1.5 2.6.5 3.4 0 1 .1 1.4.4 1.4.3 0 .5.6.8 1.8.8 3.7.8 3.5 0 3.7-.5.3-.6.4-.5 1 .4 2.1.8 3 1.2 3.4.3.3.5.8.5 1 0 .4.2 1.4.5 2.2.3 1 .4 1.7.3 1.8-.4.4-.6 0-1.7-2.8-.5-1.4-1-2.6-1.2-2.6-.2 0-1.3 1.6-1.3 2l.5.2c.5.1.6.3.4.7l-.3 1c-.1.5 0 .6.2.6 1 0 .7.9-.7 2.5-.8 1-1.3 1.8-1.2 1.9.2 0 .3.3.3.4 0 .4-3.7 2.4-4 2.2-.3 0-1.6.7-3 1.6l-3.2 2a19 19 0 0 0-3.8 4.2c0 .8-4.2 3.4-4.8 3l-1 .5-1 .5c-.3 0-1 .2-1.6.5l-1.7.7c-.7.1-2.9 1.5-4.9 3-.5.5-1.3.8-1.6.8-.8 0-2.9 1-2.7 1.3.2.2 1.8.8 3.1 1.1 7.4 2 9.7 3.1 13.2 5.7 1 .8 1.4 1 2 .8l4.7-.3zm-3.2-4.7c0-.4.7-1 1.3-1 .5 0 .3.8-.2 1-.8.5-1.1.4-1.1 0zm-7.7-6.5c0-.2 2-2.1 2.2-2.1.5 0 .1.7-.7 1.5-.8.8-1.5 1-1.5.6zm32.3 11.4c.3-.2.1-.3-.6-.3-.6 0-1 .1-1 .3 0 .3 1 .3 1.6 0zm-9.6-1.2 1.1-1.6a182.2 182.2 0 0 1 2.5-5c1.3-2.7 1.6-4.5.7-5.1-.3-.3-.3-.4 0-.7.5-.6.3-1.2-.4-1-.6 0-.8.3-.7 1 0 .2-.3.8-.7 1.2l-1.4 1.9c-.3.5-.9 1-1.2 1-.6 0-2.7 3.4-2.9 4.7-.2 1-.2 1 .3.3a40 40 0 0 0 2-2.8c.7-1.2 1.5-2.3 1.7-2.3.3 0 .3.2.2.4l-1.2 2c-.6.9-1.3 2.4-1.6 3.3-.5 1.2-.7 1.6-1.1 1.6-.4 0-.5-.1-.5-.5s-.1-.3-.8.5c-1.2 1.3-1.2 1.7 0 1.8 1.9.2 3.4 0 4-.7zm.4-2.9c0-.2.1-.8.4-1.4l1.2-2.9c.7-1.8 1.9-3.5 2.2-3.2l-.6 1.8c-.5 1-1 2.3-1.1 3-.6 2.1-1.7 3.7-2 2.7zm-52.2 3.4c1.3-.3 1-.5-.7-.4-.8 0-1.4.2-1.4.3 0 .3.9.3 2 0zm54.8-.3c.2-.3.2-.4-.1-.5-.4-.2-.1-.5 1.2-1.7 1.6-1.5 2.3-2 2.3-1.4 0 .2-.1.4-.3.5a7 7 0 0 0-1 1l-.7.8 1.3-.9c1.3-.9 1.4-1.2 1-2.2-.3-.4-.4-.4-2.3 1.1l-2.4 2.3c-.2.3-.6.7-.9.8-.9.2-.6.6.5.6.6 0 1.2-.1 1.4-.4zM34.9 64c0-.1.3-.3.5-.3s1.1-.4 2.1-1c1.9-1.2 2.4-1.3 2.1-.7-.2.6 1.3.3 2.5-.5 4.6-3.1 6.1-4.7 8-8 1.1-2 1.8-2.8 4-5 2.5-2.2 4.2-3.5 4.8-3.5.4 0 .1.5-.6.8-1.1.7-6.5 6-7.2 7.4a24.7 24.7 0 0 1-3.2 4.8c-1 .8-.4.8 1.7-.1 1-.5 2.4-1 3-1 1.2-.3 4-1.6 5-2.5l1.1-.7 2.2-1.9c1-1 2.1-1.8 2.3-1.8.6 0 1.4-1.5 1.3-2.4-.2-.9.2-1.1.6-.4.3.6 1.1.3 1.1-.3 0-.3-.1-.7-.3-.8-.5-.5 0-1 .6-.5.4.4.5.4 1.1-.8 1.2-2 .9-2.9-1-3.2-1.5-.2-2 0-4.6 2.5-2.3 2.3-3 2.7-3 2.2l1.8-2c1.7-1.6 1.8-1.7 1.3-2.1-.5-.3-.5-.3-.7.1-.3.7-1.6.7-2.1 0-.4-.5-.6-.6-2.2-.5a2586.1 2586.1 0 0 1-5.3 0c-1-.1-1.7 0-3.1.8-1.7.8-2 1.3-1 1.3 1.5 0 1.8 2.5.5 4.4-.8 1.2-1.5 1.5-1.7.8-.1-.3-1-.7-2-1-3.3-1-5.7-.5-8.4 1.7L34.7 51c-1.4 1-2 2-2.4 4.2l-.7 2.7c-.5 1.2-.1 1.2 2.5-.1 2.3-1.2 2.7-1.3 3.8-.7 1.6.8 1.6 2 0 2.3-.5.1-2 .7-3.3 1.4-1.8.8-2.5 1.3-2.7 1.8-.3.7-.3.8.2 1.2.7.6 2.5.7 2.8.3zm6-6.8c0-.3-.2-.4-.5 0-.3.2-.5.2-.7 0-.2-.2.2-.6 1.2-1.4l1.6-1c.4 0 0 .5-.7 1.2-1.1 1-.7 1 1 0a21 21 0 0 1 3.4-1.8l.2.4c0 .2-.4.6-1 .8l-2.3 1.3c-1.5 1-2.3 1.2-2.3.5zM36.6 54c-.2-.3.5-1 1.1-1 .4 0 .5.6 0 1-.4.4-.9.4-1.1 0zm4.1 0c-.3-.4-.2-.6.2-1.1.4-.4.7-1 .8-1.4.3-.9 1-1 1-.2.1.6-1 2.8-1.4 3l-.6-.4zm2.2-.2c0-.5 4.8-3.7 5.5-3.7.5 0-1 1.4-2.3 2l-1.9 1.3c-1.2 1-1.5 1.1-1.3.4zm5.7-4.5 1.2-1.5c1.3-1.2 1.6-2.3.8-2.6-.2 0-.4-.3-.4-.4 0-.5 1-.3 1.5.2.4.5.4.7.1 1.4-.2.4-.8 1.3-1.5 2-1.1 1.1-1.7 1.4-1.7.9zm92.6 14.3c.6-.4 1-.9 1.1-1.2l-.1-.4c-.2 0-3.3 2.2-3.3 2.3 0 .3 1.5 0 2.3-.7zm1.4.4c.2-.3.2-.4 0-.4l-.6.4c-.1.2-.2.4 0 .4l.6-.4zm-113.8-.2c-2.2-.5-3.4-.5-3.3-.2.1.3.7.4 2.2.4 1.5 0 1.8 0 1.1-.2zm119-.2c-.2-.2-.3-1.2-.4-2-.1-1.6-.4-2-.7-1.5-.1.2 0 .5.1.8.4.7 0 1.2-.6 1-.6-.3-.6-1.2 0-5 1-6.8.9-6.7.5-6.9-.7-.4-.6-.8 1.2-4.4 1-1.9 1.3-3 .8-3-.4 0-.4-.8 0-1.4.3-.3.5-.8.5-1 0-.3.2-.8.5-1l2-1.6c1.5-1.4 2.4-1.5 1.6-.3-.2.3-.4.8-.4 1.1l-.4 1.4a17.3 17.3 0 0 0-1.7 4.8 4 4 0 0 1-.7 1.6c-.6 1-.8 1-1 .6-.4-.5-.7-.3-.7.6 0 .4 0 .8-.2.9 0 .1-.2 1.3-.2 2.8 0 1.8 0 2.4.2 2 .1-.5.3-.6.5-.5.2.2.2 1 0 2.5-.5 4-.6 6.9-.3 6.9s.4-.4 1-4.1l.5-4c0-.5.3-1 .5-1.2l.4-.6a122.6 122.6 0 0 1 4-12c.4 0 .3 1-.2 2.4a57.6 57.6 0 0 0-2.6 9.1c0 1.6.5.8.9-1.3.1-1 .4-2 .6-2.5l.6-1.6c.2-1 1-1.8 1-1l-.6 2.3c-.9 3-1 3.2-.2 3.3.6 0 .7-.2 1.1-2.2.4-1.8.6-2.2 1-2.2.3 0 .5-.2.5-.6 0-.2.1-.5.4-.5.5 0 .5.7-.2 3.6l-.4 2.5c.3.3 4-9 3.7-9.7-.2-.4.4-1.2.7-1 .5.3.2 1.8-1 4.8a16 16 0 0 0-1 3.3c.1.5 2.5-4.5 2.5-5.2 0-.8.4-1 .8-.5.3.4.1 1-1.4 3.9l-3 5.9c-.8 1.3-1.4 2.8-1.5 3.3-.1.7-.1.8.1.5A129 129 0 0 0 163 45l.3.1c0 .5-1 2.8-2 4.5l-2.7 5.4-2 3.8c-.3.1-.4.7-.4 2 0 1.7-.1 2-.6 2-.3.1-.5.4-.5.6 0 .3.5.3 2.8.2 3.3-.2 3.9-.5 3.3-1.5-.3-.6-.2-1 1.4-4 2.4-4.4 3-6.8 4-16.3.5-4 .5-4.4.3-4.2a136 136 0 0 0-2.7 14c0 2.3-.5 4-1.1 4-.5 0-1.6 1.7-1.6 2.5s-1.2 4.1-1.6 4.3c-.5.1-.4-2.4.2-4 .7-1.8.9-3.1.6-3.1-.2 0-.3.2-.3.4 0 .8-1.3 3.2-1.8 3.4-.4.1-.6.5-.7 2-.1 1.2-.3 1.9-.6 2-.5.2-.7-.5-.4-2l.5-2.3c.1-.9.2-1.1.6-1.1.3 0 .5-.2.5-.3a45 45 0 0 0 5-8.8c.3-.4.7-2 1.4-6.2.8-4.4 1.3-6.7 1.8-7.9.8-1.6 1.4-3.7 1.4-4.5 0-.8-.8-3-.8-2.3 0 .4-2 3-2.6 3.3a18 18 0 0 0-3.7 4.6c-.4.5-1.1 2.1-1.7 3.7-.8 2.7-1 2.9-1.6 3-.8 0-.9-.1-1.1-3-.3-3.8-.5-4.4-1-4.5-.7-.2-.6-.4.7-1.8l1.2-1.4c0-.2-1.6.2-2.8.8l-1.6.6-2 1.2-2.9 1.5a7.6 7.6 0 0 0-3.3 2.5c-.3.5-.8.8-1.3.9-.8 0-1.2.8-.6 1.1.4.2.4.4.2.8-.1.2-.2.7-.1 1 0 .3-.1.7-.5 1a2 2 0 0 0-.7 1.7c0 .5-.2 1-.3 1.3-.4.3-.4 3.4 0 3.9.2.2.2.3 0 .4l-.4 1.6c-.2 1.3-.1 1.6.4 2.1.3.4.6 1.2.7 2 .3 2 .6 3.2 1 3.2.2 0 .5-.4.7-1l.4-1.3c.1-.1-.1-.3-.5-.4-.5 0-.6-.3-.9-1.8-.4-2.4-.4-7.4 0-7.3.2 0 .3.8.4 2.4 0 3 .8 6 1.5 6 .4 0 .4.1.3 1.5-.3 1.9-.5 2.5-1.2 2.5-.6 0-.7.4-.3.6.2.1.2.5.1.9-.1.7-.1.7 1 .5.8-.2 1-.1 1 .2 0 .3-.4.6-.9.8-.9.4-1 .7-.7 1l2 .2c1.6 0 1.8 0 1.6-.5zm-2 0c-.1-.4.2-.8.6-.8.3 0 .4.2.4.4-.1.6-.7.8-1 .4zm4-12.7a54.3 54.3 0 0 1 3-10.3c-.3-.2.6-1.6 1-1.6.6 0 .5.3-.5 2.7a54 54 0 0 0-1.8 5.8c-.9 3.2-1.2 4-1.6 3.4zm12.6-14.3c0-.2.2-.3.4-.3s.4.1.4.3l-.4.2c-.2 0-.4 0-.4-.2zm-11.9 27a48.7 48.7 0 0 1 .8-6.4c.7-4.3.7-4.2-.1-3.4a4 4 0 0 0-.8 2.1L150 59v2.3c.2.2.2.7 0 1.2a6 6 0 0 0-.2 1.2c0 .5.5.4.8-.2zm2-.9-.1-1.2c-.2-.3-.3-.2-.5.5l-.3 1.5c0 .5 0 .6.3.4.2-.2.5-.7.6-1.2zm-138.2.2c-.2-.4-.3-1-.3-1.6 0-1-.4-1.2-.7-.5-.3 1-.1 2.2.5 2.6.7.5.8.4.5-.5zm10.4.8c.6-.3.5-.7-.3-.7-.6 0-.8.3-.5.7.3.2.3.2.8 0zm129.5-1.2c0-.6.6-3 1-4s.4-1.3 0-1.3l-.3.6c-.2.4-.4.5-.7.4-.4-.1-.5 0-.5 1.2l-.1 3c-.2 1.4-.2 1.5.2 1 .2-.2.4-.7.4-1zm-5.4.5c0-.2-.1-.2-.1.2 0 .2 0 .4.1.3v-.5zm14.3-1.1c0-.6.4-1.3.6-1.5.5-.4 1.2-3.1 1-3.5-.2-.2-.6.3-1 1-.8 1.1-1.7 5-1.4 5.5.3.3.6-.3.8-1.5zm1.8.4c.1-.6-.2-1-.7-1.1-.1 0-.2.5-.2 1.2 0 1 0 1.2.4 1l.5-1zm2.2 0 .7-3.8c.2-1.3.4-2.5.6-2.5.1 0 .3.7.4 1.6.1.9.3 2 .5 2.4l.2.8v-.8l-.3-3.2c-.3-1.3-.4-2.6-.4-3 0-1 .6-.5 1 1a228.6 228.6 0 0 1 0-2.4c-.3-1.7-.7-3-.8-1.9 0 .4-.2.7-.5.9-.3.2-.5.6-.5 1l-.7 4.5c-.4 2-.7 4.2-.7 4.7 0 .4-.1 1-.3 1.2-.3.2-.4.4-.3.6.3.4.7 0 1.1-1.2zm3 1-.1-.3-.3.3c-.1.2 0 .3.1.3.2 0 .3-.1.3-.3zm-1.6-.1-.3-.3-.2.1c0 .2 0 .3.2.3l.3-.1zm8-.2.8-.6a95.3 95.3 0 0 0-.3-13l-1.3 11c-.2 1.4-.7 2.4-1 2a149 149 0 0 0 1.3-23.7c-.1.6-.7 10.5-.7 13 0 2.2-.2 3.5-.8 3.3-.2 0-.3-.6-.2-1.5 0-1.4 0-1.5-.5-1.4h-.5a1603.5 1603.5 0 0 1 .7-15.8V34l-.4 2.6a9.8 9.8 0 0 1-.7 2.9 86 86 0 0 0 .7 19.5l.3 1.3v1c-.2 0-.4.3-.4.6 0 .4-.1.5-.4.5-.4-.1-.5-.4-.4-1.8 0-1.1 0-1.8-.3-2-.3-.3-.4-2.2-.6-8.5-.2-8 0-11.6.4-12.1.2-.3.8-3.9 1.4-9.1.3-2.2.5-3.1.8-3.4.3-.2.5-.8.6-1.8.1-1 .3-1.5.6-1.5s.4.3.2 1.4c-.8 7-1 9.7-1.2 15.5l-.5 8.6c0 1.2 0 1.7.2 1.7.1 0 .3-.3.3-.7 0-1 .7-12.5 1.1-17 .2-3 .4-4 .7-4.2.3 0 .3.5.2 2.8a199.1 199.1 0 0 0 .5-14.7c-.3-.3-2.5 1.1-3.8 2.5-1.7 1.8-4.4 7-4.3 8.4 0 2.9 0 5.4-.4 6.6l-.9 5.8a22254 22254 0 0 1-2.4 22.2c.4 0 1.9-7.5 2.3-11.8.1-1.3.3-2 .5-2 .4 0 .5-.2 1.2-4.6a153.3 153.3 0 0 0 1.6-15c.2-.3.3-.3.5 0 .5.4-.4 10-1.5 17-.3 2-.4 3-.2 3.1.2.1.4 1 .5 2 0 1 .4 3.6.8 6 1 6.4 1 6.4.4 6.5-.3.1-.5.3-.6.6-.2.3.2.3 2.4.3 1.4 0 2.9-.2 3.2-.3zm-122-.7c.3-.4-.2-.7-.8-.5-.4.2-.4.2 0 .5.5.3.7.3.9 0zm115.3-.5c0-.7 0-.7-.2-.2-.4.7-.4 1 0 1l.2-.8zm-112.7 0c.2-.2.2-.3 0-.3 0 0-.3.1-.5.4-.2.2-.2.3 0 .3l.5-.3zm-30-.5h-.5c-.2 0-.1.1.2.1.3 0 .4 0 .3-.1zm39 0c.3-.2.4-.4.3-.6-.1-.2-.4-.2-1 .2-.6.5-.7.5-.2.5.3 0 .7 0 1-.2zM25.2 60c0-.1 0-.2-.2-.2-.1 0-.2 0-.2.2v.3l.4-.3zM29 60c.3-.7.2-.8-.2-.4-.5.4-.6.8-.2.8l.4-.4zm-1.4-.5c.4-.8 1-1 1.4-.7.3.3.4.1.6-.7 0-.6.3-1.4.5-1.8.5-1.2.8-3.5.4-4-.5-.5 0-1.7.8-2 .7-.2 1-.9 1-1.7 0-.4-.5 0-1.6 1.2-.6.6-1.2 2.7-1.3 4.3a7 7 0 0 1-.5 2.2c-.4 1-.6 1.2-1.1 1.1-.4 0-.7-.3-.7-.7 0-.6-.6-1.3-1-1.3-.2 0-1.2 2-1.2 2.5 0 .2.3.3.8.3s.7 0 .8.6c0 .3 0 .7-.3 1-.2.3-.2.3.4.3.5 0 .8-.2 1-.6zm-23.2-4c.2-1.1.1-1.7 0-1.7-.2 0-.5 0-.7-.2-.4-.1-.4.3-.4 2.8l.1 3.3c.3.4.8-2 1-4.1zm64.4 3.7 1-.8-1 .4c-1 .6-1.6.3-.7-.4.3-.3.5-.7.5-.9 0-1 2.3-2.6 4-2.8h.7c.6-.2.3-.6-.4-.7-.4-.1-.7 0-.8.2 0 .2-.5.4-1 .4-1 0-3.5 1.3-4 2-.6.9-1 2.5-.6 3 .4.4 1 .3 2.3-.4zm-54.5-1.3c.5-1.7.4-2-.4-2-.5 0-.6.1-.5.4l.2 1.8c0 1.5.2 1.4.7-.2zM141.1 59c.3-.2.3-.3 0-.6-.2-.2-.3-.1-.5.3-.3.6-.2.7.5.3zm12-2c.2-1.3.4-2.4.3-2.5h-.5c-.3.2-.5.6-.4 1.4 0 .6 0 1.6-.2 2.2-.3 2.1.3 1.2.8-1.1zm-55.2 1.3c.3-.2-.1-.3-1.7-.5-1.4-.1-1.7-.1-1.7.2 0 .2.2.5.3.5.4.2 3 0 3.1-.2zm-21.8-2.5v-.3c-.2 0-.4.2-.5.3l.1.3.4-.3zm78.7-.7a4 4 0 0 0 .1-1.7l-.2-.6-.1.6c-.3.8-.3 2.7-.2 2.7l.4-1zm-76.7.4c0-.3-.2-.3-1 0-.4.2-.4.3.3.3.4 0 .7-.1.7-.3zm84.7-2 .2-1.5c0-.5-.2-.4-.8.6-.5.8-.7 1.5-.6 1.8.2.8.8.4 1.2-.9zM148 54l-.1.3c0 .4 0 .5.1.3V54zm-121-.7.6-1.6a30 30 0 0 0 1.9-9.7c0-.6 0-.7-.2-.3-.2.3-.7 4.2-.8 5.5 0 .1-.2.2-.6.2-.8 0-.9.4-1.1 3.6-.2 2-.3 2.3-.7 2.5-.6.1-.6.2-.1.7.4.4.6.3 1-.9zm56.5.8c0-.2-.1-.3-.6-.3-.3 0-.7-.1-.8-.3 0-.1-.4-.2-.7 0-.8.1-.8.2-.5.6.5.5 2.5.5 2.6 0zm-4.7-.3 1-.7c-.1-.1-.6 0-1 .3l-1.4.4-.7.2c-.8.5.9.3 2-.2zm-62.4-2.2c0-.9 1-4.5 1.3-4.7.3-.2 1.5-3.8 1.7-5.1.2-.9.1-1-.2-1-.4.1-.6-.1-.8-.8l-1-2c-.5-.4-.8-1-.8-1.3 0-.6.7-.5 1.3.3 1.2 1.6 1.2 1.6 1.5.7.2-.5.5-.9.6-.9a46.4 46.4 0 0 1 1.3-4c.7-2.3.7-3.6 0-3.6-.4 0-1.5 1.2-1.5 1.7 0 .2-.3.6-.7 1-.3.3-.6.8-.6 1.2 0 .5-.7 1.4-2.2 3-1.7 1.9-2 2.4-1.8 2.7.2.3.4 2.8.5 7.4l.3 7s.2 0 .5-.3.6-.9.6-1.3zM5 50c.2-1.4.4-4 .3-6 0-3.9-.4-5.5-1.2-5.5-.5 0-.6.1-.5 2.6a9 9 0 0 0 .4 2.7c0 .1.2 2 .2 4.5 0 2.4 0 4.3.2 4.3.1 0 .4-1.1.6-2.6zm72.3 1.7c.6-.4.8-.4 1-.2.2.2.7.3 1 .3.7 0 .8 0 .6-1.2 0-.9-.3-1.4-.7-1.7l-.7-.5-.7 1.2-1.3 2.2c-.7 1-.6 1 .8 0zm80.9-.7c.3-.6.5-1.2.4-1.4 0-.3-.7.8-1 1.9-.4 1 0 .7.6-.5zm-47.3.1 1-.3c.6 0 2.3-1.6 4.7-4.5 1-1.2 2.6-2.6 3.3-3.2 1.3-1 3.4-3.8 3.4-4.6 0-.2.4-.7.9-1.2.5-.4 1.1-1.1 1.3-1.5.3-.4 1-1 1.6-1.2.6-.3 1.5-1 2-1.5.9-.9.9-.9.2-.7-.3 0-1 .4-1.5.8a8 8 0 0 1-3.3 1c-.4.2-1.4.9-2.3 1.8-.8.8-1.6 1.5-1.8 1.5-.6 0-1-1.4-1.2-3.8-.1-1.3-.5-3.4-.9-4.7-2.1-7.5-2.6-10.2-2-12.3 0-.5.3-.9.5-.9s.4 0 .4-.2-.1-.3-.3-.3c-.1 0-.3-.3-.4-.8 0-.4-.3-.8-.5-.7-.2 0-.3 1.4-.3 4.4 0 3.5-.2 4.4-.6 5-.4.8-.4.9.2 2.7.7 2.4 1.9 7.3 1.9 8 0 .3.1.4.4.3.5-.2.9.3.9 1.1 0 .3.2 1 .5 1.5.5 1 .5 1.9 0 1.7-.2 0-.5-.5-.6-1-.3-.6-.5-.9-.9-.8-.6.1-.6.1-.8 1.7 0 .8-.3 1.7-.4 2.2l-.7 1.9c-.7 2.1-1.2 2.7-3 3.2-1.3.3-1.7.6-1.5.9 0 0-.1.5-.5 1-.3.5-.6 1.4-.7 2-.1.6-.5 1.1-1 1.6l-.9.7 1-.2c.7-.1 1.5-.3 1.9-.6zm-75.5-2.3c.8-.7 1.6-1.5 1.7-1.8a116.2 116.2 0 0 0 2.7-11.9c.4-1.5.4-2 .1-3.6-.3-1.8-.8-2.8-.8-1.7 0 .3-.2.8-.5 1-.3.4-.5 1-.5 1.6 0 .6-.4 2-.8 3-.5 1-.8 2.4-.8 3 0 .5-.3 1.6-.6 2.4l-.5 2.2c0 .3 0 .7-.2.7-.2.1-.4 1-.6 1.9-.1 1-.4 2.2-.6 2.8-.7 2-.6 2 1.4.4zM38 37.3c-.2-.6.3-3.4.6-3.2.3.2.1 2.6-.2 3.2-.2.3-.2.3-.4 0zm79.2 11.3.6-.8c0-.2 1-1.2 2.2-2.3a9.8 9.8 0 0 0 2-2.2c-.2-.3-6.8 6-6.7 6.2.2.3 1.1-.2 1.9-1zm-48.4-.3a178.2 178.2 0 0 1 4.6-3.1c.9-.8 1.4-1 1.8-1 .3.2.6 0 1-.5.3-.3.5-.8.4-.9l.6-1.6 1-2.3c.1-1-.3-3.5-.7-3.5 0 0-.2.1-.2.3 0 .1-.2.3-.5.4-.3 0-.8.6-1 1.1-1.1 3-1.6 3.8-1.9 3.8-.3 0-.3-.2-.2-.9l.3-1.8.2-.9-.6.7-.5.6v-4a40.6 40.6 0 0 1 .6-8V26c0 .4-.3.7-.5.7-.4 0-.4-.2-.3-1.2 0-.7 0-1.1-.1-1l-.2 2.6c0 7.6-.1 10.6-.5 11a5 5 0 0 0-.6 1.9c-.4 2.7-.8 3.7-2 5-.5.8-1.1 1.5-1.2 1.5a5 5 0 0 0-1.3 2.1l-.1.8 1.9-1zm-55 .6a7 7 0 0 0-.4-1.4l-.4-1v1.3c0 1 .1 1.4.4 1.4.2 0 .4-.2.4-.3zm5-.6a195.7 195.7 0 0 1 4.3-10.7l2-4.7v-2.7l-.2-3c-.1-.2-.5-.2-1 0-1.4.5-1.4.7-1 1.7.6 1.4.6 2.2-.1 3.6-.3.6-.7 2-.8 2.9l-.6 3.2-1.3 4.6c-.5 1.9-1 3.4-1.3 3.6-.5.4-.9 1.9-.5 1.9l.5-.4zm11.7-2-.2-1v1.4c0 .8 0 1.2.2 1 .2-.2.2-.6 0-1.3zm12.7-2.2 4.7-2.4c0-.1 0-.8-.3-1.6-.3-1-.6-1.5-.9-1.5-.4 0-.4-.5.2-2.8.3-1 .3-1.3 0-1.4-.4-.1-.4-.8.1-1 .6-.2 1.2.4 1.2 1.1l-.4 1.6-.3 1.4c.2.4 1.7-.1 2-.8.1-.6.9-1 1.4-.7.3.1.2.3-.2.8l-1 1c-.3.2-.4.5-.3 1.3.2 1 .1 1-.4 1.1-.4.1-.4.2-.3.5.2.3.4.3 1.5-.2.7-.3 1.5-.6 1.9-.6.4 0 1.7-.2 2.9-.6l2.2-.5.1-1.4c.2-1.6 0-2.2-.6-2.2-.5 0-.5-.3-.5-2.1.1-2.7-.1-3-2.5-3-1 0-1.9-.3-2.1-.4-.6-.5-.7-.2-.5.9.2.5.3 1.8.4 2.9.2 1.7.2 2-.2 2-.3 0-.4-.3-.4-1s-.1-.9-.5-.7c-.5 0-.6-.1-.7-3.3a34.8 34.8 0 0 0-.5-5.2c0-.1 1.3-.2 2.8-.2 2.2 0 2.6 0 3 .5.7.7 1 .4.7-1-.1-1-.2-1-.8-1-.7 0-.8-.5-.2-1 .4-.3.4-.5.1-2.2-.5-2.5-.9-2.5-2.3 0-.7 1-1.2 2.2-1.3 2.7 0 .4-.3.7-.4.6-.6-.2-.5-1.1 0-2.2l.6-1.3.7-1.2c1.4-1.6 1.7-2.4 1.4-3.5-.4-1.2 0-2 .5-1 .2.6.3.5 1-.9.5-.8.9-1.7.9-2 0-.7-.7-2.4-1-2.4-.2 0-.7.7-1.3 1.5-.9 1.3-1 1.5-.7 2 .4.7.3.8-1 1.2-.7.2-1 .4-1.2 1.2-.3.7-.5.9-1.4 1-2.3.5-3.7 1.5-2.4 1.8.4.1.5.3.5 1.3 0 1.2.7 2.9 1 2.6.2 0 .5-1 .9-2 .3-1 .7-1.8.8-1.8.4 0 .3.7-.5 2.7l-.6 2.5c0 .3-.1.6-.3.6-.1 0-.2.2-.2.5 0 .5-.1.5-.5.4-.6-.2-.9.2-1.2 1.5-.1.5 0 .7.6 1 .5.1.8.5 1.1 1.6.3.7.4 1.4.2 1.5-.3.2-1.2-.5-1.5-1.2-.7-1.8-.7-1.8-.8-.8 0 .8-.2 1-.6 1-.5 0-.5 0-.4-.6 0-.4 0-.8-.3-.9-.2-.1-.5-.9-.8-1.8-.8-2.3-1.8-4.8-2-5-.2-.3-1 1.7-.8 2.3 0 .4.9 2 1.7 3.7.9 1.7 1.6 3.3 1.6 3.5 0 .8-.5.4-1.2-1l-.9-1.5c-.2 0-1.3 4.6-1.5 6.8l-.4 1.3c-.2.1-.3.8-.3 1.6a11 11 0 0 1-1.1 4.6c-.2.4-.6 1.3-.7 2l-.4 1.8c-.1.3 0 .5 0 .4l4.9-2.4zm-2.3-.5a25 25 0 0 0 3.9-8.2c0-.9.6-1 .9-.2.2.7 0 1.2-1.3 4-1.4 2.8-3 5-3.5 5-.4 0-.4-.1 0-.6zm9.8-4.8c0-.1.3-.8.8-1.5l2.2-3.1c1.2-1.8 2-2.4 2-1.6a140.2 140.2 0 0 0-3.5 5.4c-.6.9-1.2 1.3-1.5.8zm2.8-.4c-.4-.7-.3-1.7 0-1.6.5.2 1 1.5.6 1.9-.2.1-.4 0-.6-.3zm-2.1-14c0-.2.1-.4.3-.4.1 0 .2.2 0 .3 0 .2-.1.3-.2.3l-.1-.3zm-.7-7c.2-1.5.5-2.1 1-1.7.3.4-.4 2.9-.8 3-.3.1-.4-.2-.2-1.3zM47 46c.2-1-2.3-1.6-4-1-1.2.6-1 1 .4 1 .7 0 1.5.2 1.9.3 1.1.3 1.5.3 1.7-.3zm-33.5-3.8c0-.8-.4.9-.4 1.8 0 .7 0 .7.2-.2l.2-1.6zm65-.5c.4-.6-.1-1-.5-.3a2 2 0 0 0-.4.7c0 .4.6.1.9-.4zm-46-2.6.6-1.7a12 12 0 0 0 1.1-4c0-.5.3-1.7.7-2.7l2-6c1.1-3.8 1.2-4.3 1-5-.2-.5-.5-1-.7-1-.2 0-.5-.2-.6-.6-.3-.7-2.3-2.7-2.6-2.6-.3.1-1.1 10.1-1 11 0 .3 0 1.7-.4 3-.9 4.2-1.6 9.9-1.5 11.2.2 1.2.2 1.2.6.5l.8-2zm32 1.9c.4-.7 1-3.5.6-3.5a6 6 0 0 1-.3-2l-.3-3c-.2-.7-.1-1 0-1 .4 0 1 2.3 1 4.4 0 1 .1 1.7.2 1.8.2.1.2.7.1 1.4-.1 1.2-.1 1.3.4 1.6.3.2.6.3.7.2.2-.2-.2-.7-.5-.7s-.4-.5-.3-2.3c0-1.3.3-2.6.4-3 .4-.6.1-2.8-.3-3.3-.2-.2-.6-.4-.9-.4l-1.4-.3c-.7-.3-1-.2-1.8.2-1 .5-2.3 2-2.2 2.6l1 .2c.7 0 1 0 2 1 1.2 1.3 1.4 1.8.8 2.3-.2.3-.5.2-1.1 0-.7-.2-1-.2-1.9.2-.9.5-1 .5-.4.6.5 0 .6.2.3.5-.1.2-.6.4-.9.4-1 0-1 .5 0 .6 1.1.2 3 1.3 3.4 2 .3.4.7.3 1.3-.5zM87 41c0-.2-.2-.3-.3-.2v.6l.3.3V41zm41-1.6c1-.6 2-1.2 2.6-1.3.5-.2 1-.5 1.2-1l1.3-1.8c1-1 1.1-1.4 1.1-2.4 0-1.2 0-1.2-1-1.2-.7 0-1.2.3-2.6 1.5-3.7 3.1-5.2 4.6-5.3 5.3 0 .4-.4 1.1-.8 1.7l-.6 1.2c0 .2 2.3-1 4-2zM13.2 40.6l-.3-.4v.6c.1.3.2.4.3.3v-.5zm56-.1c0-.5.4-1 .6-1.1.2-.2.4-.5.4-.8 0-.6-.8-1-1.1-.5-.7 1.1-.8 1.2-1.1.7-.5-.6-1-.6-1 0 0 .4.3.7.7.9.5.2.6.3.4.7-.2.3-.2.6-.1.7.4.4.8.1 1.1-.6zm88.8-1c0-2.1 1.8-8.6 2.4-8.6.5 0 .5.6-.3 2.7-.8 2.3-1 3.8-.1 2l.5-1.7c0-.4.6-1.1 1.2-1.6.6-.6 1-1.2 1-1.4 0-.3.6-.7 1.2-1 .6-.4 1.2-1 1.4-1.4.2-.4.5-.7.6-.7.5 0 .9-1.6.7-2.5-.1-.8 0-1 .7-1.7l1.2-1.5c.6-1.7 3.8-4.9 6.2-6.4l2.4-1.5v-1.4c0-2.2-.3-3-1-3.2-.5 0-.9 0-1.3.4a2 2 0 0 1-1 .6c-.8 0-2.2.7-5.8 3.2-1 .7-2 1.3-2.3 1.3a11.2 11.2 0 0 0-4.4 2.7l-3.3 3c-1.6 1.7-3.2 3.1-4.7 4.3-.1 0 0 .2.3.4.5.3.6.3 1.4-.2 1.3-.8 1.7-.3.6.7a60.5 60.5 0 0 0-11.2 8.6c-2 1.6-2.2 2-1.9 2.2.3.2.4.4.3.8-.2.5-.2.5.8 0l2-1.6c.5-.5 1.4-1.2 2-1.5.6-.3 1.2-.7 1.3-1 .2-.6.6-1 2.7-2.2 1.7-1 2-1.1 2.3-.3 0 .4.2.5.7.3.4 0 .8-.3 1-.5.3-.2.7-.4 1-.4.2 0 1-.7 1.8-1.5 1.3-1.4 1.5-1.5 1.9-1.1.4.4.3.5-.5 1.4l-1 1.2c-.4.1-.2.6.2.5.8-.2.6.4-.6 1.3-1.1.8-1.2 1-1.2 2.2 0 2.7.4 6.6.6 6.4l.2-1.2zm4.4-15.9c-.3-.3.7-1.7 1.1-1.6.6.1.5 1-.2 1.4-.5.4-.6.5-.9.2zm2.8-3c0-.5 1-1.6 1.5-1.6.6 0 .3.8-.4 1.3-.8.7-1.1.7-1.1.2zM58 39.8c0-.5-.2-.6-.9-.3-.8.2-.4.6.7.8.1 0 .2-.2.2-.5zm57.8-.3c.3-1 0-1.2-.3 0-.1.4-.2.9 0 .9l.3-.9zm-102.4-.3-.1-.7c-.2 0-.3.3-.3.7l.1.6.3-.6zm35.1-.2c-.2-.2-.3-.2-.3 0 0 0 0 .3.2.4h.3s0-.3-.2-.4zm37 0-.4-.4c-.2.2.1 1 .4 1 .2 0 .2-.2 0-.6zm66.3-.3v.7-.7zm-131.5-.5c0-.2-.1-.2-.1.1 0 .3 0 .5.1.4v-.5zm-6.7-1.6c0-.3-.2-.6-.4-.6-.6-.2-.6-1.7 0-2.3.5-.5.2-1.4-.3-1-.5.4-.5 2.7-.1 4 .3.8.8.8.8 0zM85 36l-.3-.9v1.2c0 .9 0 1.1.2.9.3-.2.3-.6 0-1.2zm-14.7-1.2c0-1 .2-1.4.5-1.6.2-.2.3-.5.3-1.3s-.2-1-.7-1c-1-.2-1.7.6-1.6 2 0 1.3-.4 2.2-.5 1.1-.2-1.3-.4-1.6-.8-1.8-.3 0-.4 0-.2 1.1l.1 2.2c0 .6.1.8.2.6.3-.3 1.4-.1 1.4.2 0 .4 1 .5 1.1.2l.2-1.7zm.7 1v.6-.7zm-10 0c0-.2 0-.3-.3-.3-.2 0-.5.1-.5.3-.1.1 0 .3.2.3s.5-.2.5-.3zm18-.2c0-.2 0-.3-.2-.2-.1 0-.2.3-.1.4.2.4.4.3.4-.2zm-48.8-1 .5-3.6c.3-3.5 1.2-8.6 1.5-9.2.2-.4.4-2.8.3-3.6 0-.5-.5.8-.5 1.5 0 .4-.2.8-.5.9-.3 0-.3.3-.2 1 .1.7 0 1-.4 1.6-.4.5-.5 1-.5 2.5a26 26 0 0 1-1.1 6.7c-.2.6-.2.8 0 1.1.2.2.3.7.2 1-.1.2-.1.6 0 .8.3.5.6.2.7-.8zm87.4.3c0-.2-.1-.1-.1.2v.4c.2-.1.2-.4.1-.6zM17 33.1l1.3-2.4c.5-.6.7-1.3.8-2.5 0-1.5 0-1.8-.8-3-.9-1.2-1.8-1.8-2.7-1.6-.3 0-.6.2-.7.4 0 .2.1.3.7.2.7-.2.7-.2.5.6 0 .5-.5 1.3-.8 1.7-.7.8-.9 2.2-.2 2.2.1 0 .6-.5 1-1.2.9-1 1.6-1.6 1.9-1.2l-1 1.4c-1.6 1.7-1.9 2.6-1.8 5.2 0 2.1 0 2.2.5 2 .3-.2.8-1 1.3-1.8zm44.5-3.5c.8-.8 2-1.9 2.8-2.4l1.5-1.3c0-.3 0-1-.2-1.8v-1.8c.3-.2 0-.5-.7-1.3-.6-.5-1-1-1-1.2 0-.2-2-1-2.5-1-.4 0 0 1.8.6 3.2l1.4 2.8c1 1.8 1.1 2.2.6 2.2-.2 0-1-1.2-1.6-2.7l-1.5-2.6-.5 1.1C60 24 60 24 61 25.4c1.2 1.5 1.3 1.7.8 2-.4.3-2.2-1.9-2.4-3-.1-.6 0-1.3.4-2.4.6-1.4.6-1.6.3-3.5-.4-2.3-.7-3.2-1.2-3.2s-1.1 3.4-.9 4.7l.2 3.4c0 2.3 0 2.5.5 2.3.8-.2.9.4.3 1.6a5 5 0 0 0-.6 1.5l-.4 1c-.4.6-.4 1.2 0 4l.2.9.9-1.8c.5-1.1 1.4-2.4 2.3-3.3zm3-5.7c-.2-.3-1-2-1-2.3 0-.6.7-.1 1 .8.4 1 .4 1.9 0 1.5zm15 9.3-.3-2.9c0-1-.5-.9-.5.2v1.9c0 .5.1 1 .4 1.4.7.7.7.7.5-.6zm-2 .4c0-.2 0-.3-.2-.3-.1 0-.2.1-.2.3 0 .1 0 .2.2.2s.3 0 .3-.2zm28.8-.2c-.1-.2-.5-.4-1.1-.4-1.2 0-1 .5.3.6l.8.2v-.4zm68-.7-.1.3c0 .4 0 .6.1.4v-.7zm-51.6 0c.6-.6.7-.9.8-2.3 0-1.2 0-2-.4-2.7l-.5-1.1.1 2c.2 2 .2 2-.4 2-.3 0-.5.2-.5.3 0 .2-.3.3-.7.3-.4 0-.6.2-.7.6-.2.7 0 1 .5 1 .2 0 .3.1.3.2 0 .5.7.3 1.5-.3zM10.4 31.5c0-.1.2-.3.5-.4.4-.2.5-.5.7-1.6.2-2 0-6.6-.3-6.7-.4 0-1.6 2-2.2 4A8.2 8.2 0 0 0 9 32l.3 1 .5-.6.5-1zM74 32c0-.1 0-.1-.2 0-.2 0-.3.4-.3.7 0 .6 0 .6.3 0l.2-.7zm3-.1c-.1-1.5-.3-1.7-.6-1.1-.4.7-.3 2 .2 2.2l.5.1v-1.2zm-72-2v-2c0-.8 0-1.4-.2-1.4s-.4-.3-.6-.7a76.5 76.5 0 0 1 .4 6.3c.2.6.2.5.4-.4.2-.6.2-1.4 0-1.7zm124 1.8v-.4c-.2-.2-.4-.2-.7.1-.3.3-.6.4-.8.4-.2 0-.4.1-.5.3 0 .5 0 .5 1 0l1-.4zm-88-1c.3-1 .3-2.7-.1-3-.2-.3-.2-.5 0-.5.9-.4 1-.6.5-1.8l-.7-1.2-.7 1.8c-.6 1.7-.6 2-.2 2.4.2.2.4 1 .5 1.7.2 1.3.5 1.5.8.6zm45.4 0 2.2-1.4c.6-.5 1.3-1 1.6-1 .2 0 1-.4 1.8-1 1.3-1 1.3-1 .8-1.6l-.5-.7c0-.2-.7-.3-1.5-.4-1.3 0-1.7 0-2.8.7a6 6 0 0 1-1.5.7l-1 .8-1 .8.4 1.9.4 1.8 1.1-.6zm40.1-.5a3 3 0 0 1 1.2-.2c.5 0 1.3-.3 1.8-.6.7-.4 1-.5 1.2-.3.2.2.2.5-.2.9s-.4.5 0 .5c.2 0 .4.1.5.3l.7-.2c.7-.7.7-.8 0-1-.8-.2-.6-.6.7-1.3l1.8-1.2c.5-.6.5-.6 0-.6-.3 0-.6.1-.8.3-.1.1-.9.3-1.7.3-.8.1-1.6.2-1.8.4-.3.1-3 .9-3.5.9l-.2-.3c0-.4-1-1.6-1.2-1.6 0 0-.2.4-.2 1 0 .5.3 1 .7 1.4.5.5.6.7.4 1.1-.2.3-.2.7-.1 1 .2.4.2.4.3-.1 0-.3.3-.6.4-.7zm-58.7.3c.1-.2-.1-.3-.5-.3s-.7.2-.7.3c0 .1.3.3.5.3.3 0 .6-.2.7-.3zm-2.4-1c.3-.1 1-.3 1.6-.3l1.3-.1v-1.2c-.1-1.1-.1-1.1-.8-.7l-1 .4c-.3 0-.8.3-1.2.6-.3.4-.8.7-1 .7-.7 0-.7.4-.1.8.6.3.6.3 1.2-.1zM8.4 26.9c.4-1.3.6-2.4.5-2.7-.1-.4-.2-.3-.7.5-.6 1.2-1.3 4-1.1 4.2.3.6.6.2 1.3-2zm63 .4A7 7 0 0 0 71 24c-1-3.4-2.4-6.2-3-5.6 0 0 .4 1 1 1.9 1.1 1.8 1.2 2.1.8 2.4-.3.2-2.9-4-2.9-4.7 0-.6-1-2.5-1.3-2.7L64.2 13c-1.2-2-1.2-2-.9-3 .3-1.1.7-5 .4-4.7l-1.2 2.5-1 2.4.1 3.5.2 3.5.8.5 1 .5v-1.6c0-1.2-.3-2-.8-2.7-.7-1-.6-1.4.3-1.1.8.2 1.4 1.6 1.7 3.9.2 2.5 1.5 4.7 3.3 5.7.6.2.8.5.7.9-.1.3 0 .5.3.6.5.1.9 1.6.5 2.3a3 3 0 0 0-.2 1.2c0 .3-.1.9-.3 1.2-.3.5-.2.5.9.4H71zm5.4 1.5c.3-.4.4-8.3.1-9.6-.2-.9-.6-.8-.4.3l-.5 4c-.6 3.5-.7 4.4-.3 5.2.4.6.6.6 1 .1zm-22.6-.6c.1-.2-2.5-1.8-2.7-1.6-.3.3.7 1.7 1.1 1.9.7.2 1.5 0 1.6-.3zm3.5-.2c0-.3-.1-.4-.6-.4-.6 0-.7 0-.4.5.3.6.9.6 1 0zm62.7-1 .3-3.8c.3-2 .3-2.2-.3-3.5-.4-1.1-.8-1.5-1.5-1.8-1.1-.5-1.4-.2-1.2 1.2.2 1.7.4 2.2.6 2 .3-.2.4.2 1 3.8.5 3.7.5 3.7.9 3.7.1 0 .2-.6.2-1.6zm1.9-.9c.1-.3.4-1.3.5-2.2.4-2 .6-3.5.4-2.9 0 .2-.4.6-.8.7-.4.2-.6.6-.7 1V27c.2 1.3.2 1.5.3.6 0-.6.2-1.3.3-1.6zm-84 1.9.1-.9c0-.3-.1-.2-.4.2l-.4.9c0 .4.5.2.7-.2zm112.5 0 1.2-.5c.4-.2.5-.3.2-.5-.2-.3-.4-.3-.8 0-.3.2-.7.3-1 .3l-.6.6c-.3.6 0 .6 1 .1zm-124.5-.1c0-.2-.1-.3-.2-.3 0 0-.2.1-.2.3-.1.1 0 .2 0 .2l.4-.2zm-5.6-.7c0-.4-.1-.7-.3-.7-.3 0-.3.9 0 1.2.2.3.3.2.3-.5zm92.9-.5c-.2-.2-.3-.1-.3.3 0 .7.4 1 .5.5 0-.3 0-.6-.2-.8zm-67-2.8c0-.6-.3-1.5-.8-2.4-.8-1.5-1-2.8-.4-3.4.5-.5-.4-.4-1.3.2-1 .7-1.5 1.6-1.1 2l1.3 3.4 1.2 3.4c.2.5 1-2 1.1-3.2zm20.8 2c.7-.3.8-.6.3-.9-.2 0-.4-.5-.6-1-.3-1-1-1.3-.8-.3l.2 1.6c0 1 0 1 .9.7zm18.4-.7c.6-.4 1.4-.9 1.8-1 .5-.2.8-.5.8-.6 0-.1.3-.5.7-.8.9-.8.8-1.2-.1-1.6-.7-.2-1-.2-1.3.1-.6.5-1.1.6-1.1.2 0-.6 1.4-1.8 1.9-1.7.6.2 1-.4.4-.7-.7-.4-.3-.8.5-.7l1.8.3c.9.2 1 .3.9.9 0 .6-.3.7-1 .8l-1 .2.8.4c.6.4.7.4 1 .1.2-.2.8-.4 1.7-.4h1.3l-1.1-.5c-1.2-.5-1.4-1.1-.7-1.5.6-.4-2.8-1.7-3.4-1.4l-1.5.2c-1 0-1.3.2-2.4 1.3-1 1-1.3 1.5-1.3 2.1 0 .5.1.9.4 1 .3 0 .3.2 0 .7-.3.8-.1.9 1 .2 1.1-.6 1.2-.6 1.2-.2 0 .2-.5.7-1 1-1.1.6-1.6 1.2-1.6 2 0 .5 0 .5 1.3-.4zm0-4.4c0-.4 1.4-2 1.6-1.8.4.2.3.5-.4 1.2s-1.2 1-1.2.6zm47.3 4.8.7-.4c.5 0 1.2-1.2 1-1.8-.2-.7-.5-.7-.9 0l-.5.5c-.4 0-.2-.8.3-2.1.4-.9.4-1.1 0-2.8-.3-1-.6-2.2-.6-2.7L133 15c-.2-.4-.3-.1-.2.8.2 1.7-.4 3-2 4.6-.9.9-1.2 1.3-1 1.6l.7 2c.4 1.3.6 1.6 1.2 1.8 1 .2 1.2.2 1.5-.2zM13.7 23.2c-.2-1.5-.3-1.6-.4-.7-.2 1.3 0 3 .3 2.7.2-.2.2-1 0-2zm114.7 1.3c-.2-.4-.4-.7-.5-.6-.2.1-.1.4.2.8.5.8.6.7.3-.2zm-99-.3c-.1-.2-.4-.4-.7-.5-.5-.1-.5 0-.1.6.4.8 1 .7.8 0zm68.9.5 2-2c.6-.5.6-.6.2-1-.2-.3-.4-.7-.4-1 0-.5-.3-.5-1 0-.6.5-3 .6-3 .1-.1-.2-.6.2-1.2.8l-1 1.1-1.6-.1c-1-.2-1.6-.1-1.9.1-.5.5-.5 1 .1 1 .3 0 .6 0 .6-.3 0-.2.5-.3 2.2-.3 2.3 0 2.5 0 2 .6-.5.5-.1.4 1-.2.5-.3.9-.8.9-1 0-.6 1.2-1 1.6-.6.7.7-.7 2.4-2 2.4-.5 0-.4.1.1.4.9.5 1 .5 1.4 0zm9.2-.2c-.7-.8-.7-1.2 0-1.2.5 0 .5-.1-.2-1-.4-.7-.9-1.2-1.2-1.3-.2 0-.5-.3-.5-.5 0-.5-.7-1-1-.8 0 0 0 .3.3.5.5.4.3.7-.7 1l-.9.7c-.2.5.7.7 1.2.2.6-.5 1-.3.7.5-.1.4 0 .6.4.8.2 0 .8.5 1.2 1l1 .7c.2 0 0-.3-.3-.6zm3.3.3c.4.1.4 0 .3-.5-.2-.4-.2-1-.2-1.6 0-2.6.2-3 .8-3.4.4-.4.5-.6.3-.9l-.4-4c-.2-3.5-.2-3.6-.7-3.3-.5.3-.6.5-.4 3.6l.2 4c0 .6 0 .7-.4.7-.5 0-.6-.2-.7-1.7l-.5-3.4-.4-5c-.2-3-.6-5.9-1-5.9l-.4.2c-.3.2-.3.8.1 3.1.3 1.6.5 3.5.4 4.2 0 1 0 1.4.3 1.6.6.3.5.9 0 1.2-.7.4-.8.8-.2 1.4.4.5.4.5 0 .8-.4.3-.4.4 0 1 .2.5.3 1 .2 1.3-.1.4 0 .7.3.9.2.1.4.5.4.9 0 .6 0 .6.4.3.3-.2.4-.2.6.1V23c.3.5.3.8 0 1l.1.8c.2.3.4.4.4.2s.3-.2.5-.1zm2.2-.2c0-.3 0-.6-.2-.6s-.3.3-.3.6.1.5.3.5c.1 0 .2-.2.2-.5zm40.7-2.4c2.5-1.7 4.6-3.7 4.6-4.4 0-.2.3-.5.8-.8l.9-.6c.2-.4-.1-1-.6-1-.2 0-.7-.4-1-.8-.7-.7-.8-1-.7-2.9 0-1.9 0-2-.2-1-.3 1-.2 3 .2 5.6 0 1 0 1.1-.3 1.1-.5 0-.8-1-1.1-3.3a33.5 33.5 0 0 1 2-11c.1-.4-2.7-.6-3.7-.4l-.6.2.5.4c.5.3.6.5.3 1s-.1 1.2.3 1.2c.1 0 .3-.4.3-1 0-1.1.3-1.8.7-1.5.4.2.2 3-.2 3.5-.2.2-.2.5 0 .9.2.3.2.6.1.8-.2.3-.8.3-1 0 0-.3-.5-.9-.8-1.5l-1.1-2c-.3-.6-.6-1-.8-1-.2 0-.7.5-1.2 1.1-.6 1-.7 1.1-.4 1.2.3 0 .7 0 1-.3.6-.6.7-.6 1.3.6.6 1.3.7 1.9.1 1.9-.2 0-.4 0-.4.2s.3.3.6.3c.5 0 .5.1.4 1.2-.2 1 0 1.6.6 3.1.7 1.6.8 2.1.7 3.2 0 .7-.3 1.4-.4 1.5-.8.5-3 2.5-3 2.8 0 .6.9.6 2 0 .7-.4 1.4-.6 1.5-.6.5.4.3 1-.5 1.3-2.8 1-5.3 2.9-4.7 3.6.2.3.4.2.8-.3.3-.4 1.7-1.4 3-2.3zM126 23.8c0-.4-.1-.9-.3-1-.1-.4-.3-.3-.5.3-.4 1.2-.3 1.7.3 1.6.3-.1.5-.4.5-.9zm-68.4-.6-.1-1.3c-.2 0-.3.6-.3 1.4 0 1.6.1 1.6.4-.1zM74 24c-.1-.2-.2-.1-.2.2 0 .2 0 .4.1.3V24zM8 22.5c.9 0 .4-.8-.5-.9h-1V23l.1 1.4.5-1c.3-.5.7-1 1-1zm12.1.2c-.9-.7-2.4-1.4-2.4-1l.9.7a9 9 0 0 1 1.5 1.3c.6.6.6.6.7.2 0-.3-.2-.8-.7-1.2zm5.2 1c.8 0 1.1 0 1.1-.3 0-.2-.2-.4-.4-.5-.3-.1-.4-.6-.4-2 0-1.7-.6-4.3-1-4.3-.2 0-.3.4-.3.9-.1.6-.3.9-.6 1-.4 0-.5-.2-.5-1.2 0-1.4-.3-2.2-1.3-3-.8-.7-1-.4-.4.7l1 2.7c.3 1.4.7 2 1.4 2.7.5.5 1 1 1 1.2 0 .5-.6.6-1 .2-.4-.5-.5-.5-.8 0-.3.4-.5.5-.9.2-.3-.2-.4-.8-.6-2.4a8.7 8.7 0 0 0-1-4c-.8-1.5-1-2-.7-2.3.3-.4.2-.5-1.2-1.3-.6-.3-.8-.7-1-1.5-.2-1.5-.4-1.3-.7.6-.1 1.3 0 1.7.4 2.6.6 1 .8 3.8.4 5.2-.1.8 0 1 .6 1.4 1.8 1.1 3 2 3.5 3 .6.7.8.8 1.4.6l2-.1zm103.8-1c-.2-.9-.3-1-.4-.7-.1.3 0 .8.1 1.3.4 1 .5.9.3-.6zM4.7 22.3c.3-2-.3-4.9-1-4.5-.2.2 0 4.8.2 5.7.2.7.6.2.8-1.2zm137 .6c.8-1.2 1.6-6.5 1-6.5-.4 0-1 1.2-1.2 2.4-.2 1-.8 1.8-1.2 1.4-.6-.6 1-4.5 2.2-5.1.4-.3.8-.6.8-.8.1-.3.3-2 .3-4 .1-3.7-.2-3.9-.5-.3-.2 2-1 4.8-1.6 5.1-.1.1-.5 0-.7-.2-.3-.3-.4-.7-.2-2.2 0-1.1 0-1.8-.2-1.6l-.2 1.4-.2 1.4a14 14 0 0 0-.5 4.3c0 1.9 1 5.3 1.5 5.3.2 0 .5-.2.7-.6zM11.2 21.3l.4-.7c.4-.4.5-1.2.6-3.6 0-1.7 0-3.7-.2-4.3l-.2-1.2-.5 1.6-1 3c-.6 2.1-.9 3.7-.5 3.7.5 0 .4.8 0 1-.5.1-.4.6 0 1.9 0 .4 1.4-.9 1.4-1.4zm116.4.8c.1-.4.4-.7.6-.7.6 0 .7-.6.5-2-.1-1.1-.6-1.7-.6-.7 0 .7-.7 1.6-1 1.2-.3-.2.2-2.2.9-3.6.4-.8.5-2.3.2-2.7l-.6-.3c-.2 0-.4-.2-.4-.5s.2-.5.5-.5c.4 0 .4-.1.4-1.1s0-1.3.7-2c.4-.5 1-1.3 1.2-1.8.2-.5.5-1.2.8-1.5.6-.8 1-1.6 1-2.3 0-.5 0-.5-.5.2-.3.5-.6 1-.8 1l-1.2 2-1.9 3c-.6.9-.8 1.5-1 2.6l-.4 4c-.3 2.4-.3 2.7 0 3.4.3.4.6 1.2.7 1.8.2 1.3.5 1.4.9.5zM108 20.9c-.3-1.1-.4-1.3-.7-1-.3.3-.3.5.2 1.3.9 1.3 1 1.2.5-.3zm4.6 1c.1-.1 0-.2 0-.2-.2 0-.4 0-.4.2s.1.3.2.3l.2-.3zm2.2-.6-.1.4c0 .3 0 .5.1.3v-.7zm-58.2-1c.3-1.1.3-1.6 0-2.2l-.2-2.7v-1.8l-.6 1.8c-.8 2.2-.8 2.3-.4 4.6.3 2 .8 2.2 1.2.3zm-26.8.5a82 82 0 0 0 1-12.2c-.1-4.5-.2-5.2-.7-5.2-.5 0-.5.9-.1 1.6.2.3.1 1.3-.4 4.3-.4 2-.9 5.2-1 7-.2 2.7-.1 3.3.3 4.1.5 1.1.7 1.3.9.4zm41.6-1.4c-.1-.8-.3-1.5-.5-1.6-.3-.2-.3 2 .1 3s.6.4.4-1.4zm-56 1.1c1-1.7 1.1-5.7.4-8-.1-.3-.3 0-.7.6-.4.8-.5 1.5-.4 4.3 0 4 0 4.4.7 3.1zm31.3-.6c-.2-1.1-.9-1.5-.9-.6 0 .6.8 2 1 1.8l-.1-1.2zm-38.1-.3c.1-.2.1-.5 0-.8-.2-.3-.3-1.2-.3-2 0-.7-.2-1.6-.4-2l-.4-.5a596.8 596.8 0 0 1-.8 6.5c0 .2 1.6-.8 1.9-1.2zm94.4-2a6 6 0 0 0-1.1-1.2c-.4 0-.2 1 .2 1.2.5.2.4.8-.2 1-.3.1-.5.3-.5.4 0 .2-.2.3-.4.3s-.4-.2-.4-.5-.2-.6-.4-.7c-.3 0-.4 0-.4.5 0 .4.4.8 1.1 1.4l1.2.8 1-1 1-1.1zm46.2 2.7.6-.2 1.1-.6 1-.8c.7-.5.9-1.4.4-1.8-.3-.3-.4-.2-.4.5 0 .4-.1.8-.3 1-.6.1-.7-.1-.7-1 0-1 .4-1.9 1-1.7.2.1.3 0 0-.4-.4-.7-.3-1.8.2-1.8.2 0 .4 0 .4.2s0 .3.2.2c.3-.2.2-.5-.6-2.5l-.7-1.4-2.1 1.9c-1.6 1.5-2 2-2 2.8 0 .5 0 1 .2 1.1.3.2.3.7.1 2-.2 1.5-.2 1.8.2 2.3.5.6 1 .7 1.4.2zM41.6 18.5c.3-.3.5-1.6.3-1.7-.2-.1-.3-.6-.2-1.2.2-.7.1-.8 0-.5-.5.6-1.2 3.6-1.1 4.6v.8l.4-1 .6-1zm-14-.8.2-1.7-.3 1.2c-.5 1.3-.6 3.3-.2 2.6l.4-2.1zm55.3 0-.2-1.2v1.6l.1 1.8c.3.3.4-.9.1-2.2zm15.7 2.1c.1-.2 0-.5-.2-.8-.5-.5-.4-1.1.2-.9.2.1.5-.4.8-1.6.2-1 1-2.7 1.5-3.8 2.2-4 3.1-6 3-6l-1 1c-.6.7-1.2 1.3-1.4 1.3-.3 0-.4.3-.4 1.3 0 1.4-.4 1.8-.7.5-.2-1-.6-1.3-.6-.5 0 .3-.2.6-.4.7-.5.3-.6 1.2-.2 1.8.5.5.2 1.5-.5 1.5-.3 0-.5-.3-.6-.8-.2-.6-.4-.9-1.2-1.1-3-1-5.5-2.6-6.4-4.3-.5-.8-1-1.3-1.8-1.6-.6-.3-1.2-.7-1.3-1C87 5 86 4.8 86 5.2c0 .4.7.9 1.1.9.3 0 .6.2.6.6.2.5.3.7.7.5.7-.2 1 .6.9 2.1l-.1 1.3-1.4-.1c-1.1 0-1.3 0-1.4.4-.1.5 0 .5.2.3.5-.4 2.1-.2 3.3.3l1.8.5c.7.1 1 .3 1 .7 0 .6 1 .8 2.2.6.8-.1 1 0 1 .3 0 .2.2.4.5.4.9 0 1.4.4 1.2.9-.1.3-.5.4-1.3.4s-1.7.3-2.5.7a6 6 0 0 1-1.6.6c-.7 0 0 .5 1.2.8 1 .3 1.2.3 1.8-.2.6-.6.9-.7.9-.2 0 .5-1.1 1.5-1.6 1.5-1 0-.5.5.9 1 1.5.6 3 .7 3.2.3zM93 12.4c.1-.4 1-.5 1-.1 0 .1-.2.3-.5.3-.4 0-.6 0-.5-.2zm-53.6 6.1c0-.3 0-1 .2-1.3l.8-2.3c.3-1.3 1.3-4.9 2-6.9 0-.4 0-.4-.4-.1-.3.3-.4.3-.6-.3-.2-.3-.3-.5-.4-.3v1c.4.9.4 2.3 0 2.3l-.6-1-.5-.9c-.1 0-.2 1 0 2.4 0 2.5 0 4.2-.5 4.2 0 0-.2-1.4-.2-3 0-3.3-.4-5-1.1-5.1-.7-.2-1.3.7-1.1 1.6l.2 3c.1 2.5.6 5 1 5.8.2.3.3.9.3 1.4 0 .8 0 .8.5.5.4-.2.5-.4.4-1zm36-.8c0-.6 0-.6-.2.1l-.2 1.5c0 .6 0 .6.2-.1l.2-1.5zm55 1.4c1.3-1.8 1.4-2.2 1.4-6.9V7.8l-.7 1.3c-.9 1.4-1 3.5-.5 4.5l.6 1.4c.1.7 0 1-.5 1.5-.7.8-1 .8-1 .3 0-.2.2-.4.4-.4.5 0 .5-.3-.1-1.7-.8-1.8-1.2-1.4-1 .8.3 3.3.5 4.3.7 4.3l.7-.7zM13.2 19c0-.2-.1-.2-.2.1 0 .3.1.5.2.4V19zM74 17.5c.3 0 .5-.4.7-1 .2-1.3.8-2.7 1.2-2.8.2-.1.1-.6-.3-1.8l-1-3.3C74 6.9 73.1 5 72.8 5c-.4 0-.4 1.5-.2 4.2.2 1.6.3 4.4.3 6.4 0 3.7.2 4.8.4 3 0-.7.2-1 .6-1zm33 1.3c-.2-.2-.7.2-.7.5 0 .2.1.2.4 0 .2-.2.3-.4.2-.5zm-32.6-.5c0-.3-.1-.1-.1.3 0 .5 0 .7.1.5v-.8zm31.6 0c.2-.2.1-.3-.4-.4-.6-.1-1 .3-.5.7.3.2.5.2.9-.2zm16.8-3.8c.6-5.1.7-7.6.4-7.6-.4 0-.6.5-.3.8.3.5 0 3.4-.4 3.4-.2 0-.4-.4-.5-.8-.2-1-.7-.6-.7.7 0 .7.1.9.6.9s.5 0 .4.7c-.1.4-.4 1-.7 1.3-.6.7-1.6 2.7-1.4 2.8 0 .1.4.1.8 0 .5 0 .6 0 .7.8.3 1 .5 1.5.6 1l.5-4zm1.7 2c.2-.9.3-2.5.3-3.7 0-1.2.2-3 .4-4 .4-2.3.1-3.8-.7-3.8-.5 0-.5.3-.4 3.2 0 2.2-.1 3.7-.3 4.5-.3 1-.3 1.4-.1 1.7.2.2.3 1 .1 2.3-.2 2.4.3 2.2.7-.2zM6 15l-.4-3C5.2 11 5 9 5 8c0-1.2 0-2.3-.2-2.4-.1 0-.2.4-.2 1.1 0 1-.1 1.2-.6 1.2-.4 0-.5.2-.5 1.7 0 1.2.1 1.8.4 2 .2.2.4.6.4 1l.4 1.1c.2.4.4 1.3.4 2s0 1.6.2 2c.1.6.2.6.4-.4l.2-2.2zm108 2c0-.5-.2-.7-.6-.7-.6 0-1 .5-.4.7.2 0 .4.3.4.5s.1.4.3.4l.2-.8zm-7 .3c0-.1-.1-.2-.3-.2-.3 0-.4-.3-.4-.8 0-.6-.2-.8-.7-1-.4 0-.8 0-1 .2-.5.3-1.1-.2-1.4-1.1-.2-.7.2-1.2.7-.7.2.2.8.4 1.4.4.8 0 1 0 1-.6 0-.5-.2-.6-1.4-.8-1.2-.2-1.4-.1-1.9.4-.8 1-.8 1.8 0 2.8.3.5.8.8 1 .7.3-.2 2.3.5 2.3.8 0 .1.1.2.4.2.2 0 .4-.1.4-.3zm-37.3-.8c0-1.5-.5-2.7-1.2-2.8-.4 0-.8-.2-1-.6l-.8-.8a8.3 8.3 0 0 1-1.7-3c0-.7.7-.5 1 .3.5 1.1 1.8 2.4 2.2 2 .1-.2-.2-1-1-2.8l-1.6-3.5-.3-1-.3.7c-.2.5-.4 1.8-.4 3 0 2.1 0 2.4.9 4.3 1 2 3.3 5 3.9 5 .2 0 .3-.3.3-.8zm16.6.1-.4-1.8c-.2-1-.2-1-.2.6s0 2 .5 2c.2 0 .2-.4 0-.8zm-53.3-3.3c-.4-.4-.6-.1-.7 1.5-.2 1 0 1.6.2 2 .3.3.4.1.6-1.4v-2.1zM27 14.7a36 36 0 0 0 0-8.4c-.1 0-1 3.5-1.4 5.7-.2 1.1.6 5 1 4.7l.4-2zm44.4-2.4c-.4-.5-.4-1.2-.3-4.7.2-3.6.2-4.1-.2-4.5-.3-.3-.7-.5-.9-.5-.5 0-.4.7.1.9.5 0 .5.3.2 2.8-.2 2.6-.6 4-1.2 4l-.2-.4c0-.2-.2-.4-.3-.3-.2.1 0 .8.6 1.8l1.4 2.9c1 2.6 1 2.6 1.1.5 0-1.4 0-2-.3-2.5zm29.6 3.5v-1c-.2-.2-1 .8-1 1.4 0 .8.8.5 1-.4zm-57 0c.5-.4.5-.5.2-1-.6-.9-.8-.7-1.1.7-.3 1 .2 1.2 1 .4zm45.7-.2c.6.3.9.4 1.5.1.9-.3 2.3-1.3 2.3-1.5 0-.4-1.3-.2-1.6.2-.6.7-1.3.7-2 .1-1-.7-1.7-.7-1.7.1l-.2 1.2c-.2.4-.1.4.4 0 .6-.6.7-.6 1.3-.2zm48.7 0 .2-.7c.2-.4.1-.4-.3 0-.4.6-.5 1-.1 1l.2-.3zm-114-.4c0-.2-.1-.4-.3-.4-.1 0-.1.2 0 .4l.2.4.1-.4zm12.4 0c0-.1-.1-1-.4-1.8a5 5 0 0 1-.2-1.8c0-.1 0-.7-.3-1.2-.2-.5-.3-1.2-.2-1.6.2-.8-.5-5.4-.8-5.4l-.2.6-.1 5.2c0 5 0 5.3 1.2 6 .8.5 1 .5 1 0zm76.5.1c.7-.3.7-1.4.1-1.2l-.6.2c-.2 0-.3.3-.3.6 0 .8 0 .8.8.4zm5 0c.2-.5-.1-.6-.5-.1-.2.2-.2.4 0 .4l.4-.3zm-70.7-.8c2.1-.5 4.3-2.3 3.2-2.7-.1 0-.3-1.4-.4-3.5-.2-3-.3-3.4-.7-3.5-.3 0-.4 0-.4.4 0 .8-.3.9-1 .3-.7-.7-.8-1.6-.2-1.6.2 0 .3-.1.2-.4 0-.2-.4-.4-.8-.4-.5 0-.6.2-.6 1.2 0 .9.1 1.3.6 1.8.7.6 1.8 3 1.8 4s-.6.4-1.3-1.1c-.4-1-.9-1.7-1.3-1.9-.9-.4-1-.3-1.4.2-.3.7.5 2.5 2.1 4.2 1.4 1.4 1.4 2.2 0 1.2-.4-.4-.9-.5-1-.4-.3.1-.4 2.5-.2 2.5l1.4-.3zm1.5-3.4c.1-.2.3-.3.5-.3 0 0 .2.1.2.3l-.4.2c-.2 0-.4 0-.3-.2zm9.4 3.6s0-.2-.2-.3c-.2-.1-.3 0-.3.1 0 .2.1.3.3.3l.2-.1zm1.4-.4c0-.4-.2-.6-.6-.6-.6 0-.6 0-.1.6l.6.5v-.5zm59.6-.2c-.1-.2-1 .2-1 .5l.6-.1.4-.4zm43.7-.8c1.4-1.5 1.7-2 1.2-2l-.6-.1c-.3-.1-.5 0-.6.4-.2.5-1.4 1.2-1.6.8l.7-1.3c1-1.4 1.8-2.6 1.8-2.8 0-.4-1.2.3-1.7.9-.4.4-.7.6-1 .5-.7-.3-.4-1.2.6-2 1.5-1.2 3.6-3.4 4-4 .9-1.4 0-.9-1.2.8-.7.8-2 2-2.7 2.5-.9.6-1.5 1.3-1.6 1.6-.4 1.4.4 6.2 1 6.2l1.7-1.5zM9.7 14c.2-.4-.4-3.5-.6-3.5-.2 0-1.1 1.7-1.1 2 0 .4 1 2 1.3 2l.4-.5zm157.2-1a121.4 121.4 0 0 0 8.4-4.7c.7-.4 1.2-.8 1.2-1 0-.3 0-.3-.3 0-.2.1-.7.2-1 .1-.5-.1-1.6.3-4.3 1.7-2 1-3.8 1.8-4 1.7-.2 0-.5.1-.8.4-.5.6-.5.6.4.5.5 0 .9 0 1 .3 0 .3-1 .8-2.3 1-.5.2-1 .5-1.3.9-.4.6-.4.6.2.4l2.8-1.3zM23.6 14c0-.2-.8-1-1.7-2-1.6-1.7-1.8-1.9-1.6-2.7.2-1 .3-1 .8-.9.2.1.4.5.4 1s.2 1 .7 1.2c1 .7 1.2.2.5-1.3-.9-1.7-1.2-2-1.7-1.9-.4.1-.7-.1-1-.7-.5-.7-.6-.8-.8-.4v2.4c.1 1.7.2 2 1 2.5l2 1.8c1.4 1.2 1.4 1.3 1.4 1zm21.8-1.6c.3-2.8-.8-3.9-1.3-1.3-.1 1-.1 1.5.3 2.2.2.5.5.9.6.9.1 0 .3-.8.4-1.8zm39.2 1.2c0-.2-.1-.2-.1.1 0 .3 0 .5.1.4v-.5zm54.4-.8c.2-.8.1-1 0-.6-.3.5-.4 2.2-.2 2l.2-1.4zm-37.3.7c0-.2-.2-.4-.3-.4-.2 0-.3.2-.3.4s.1.4.3.4c.1 0 .3-.2.3-.4zM114 5.3c-.4-.3-.7.4-.7 1.4 0 .9-.1 1.3-.5 1.5-.4.2-.5.5-.5 2.7 0 2.4 0 2.4.7 2.4.3-.1.6 0 .6.2a54.3 54.3 0 0 0 .4-8.2zM57 13c0-.1-.2-.2-.3-.1-.2 0-.3.3-.3.4 0 .2.1.2.3.1l.2-.4zm60.8.3c0-.1-.1-.3-.3-.3l-.2.3c0 .1 0 .3.2.3s.3-.2.3-.3zM43.3 9.5c.5-1.7.9-3 .8-3.1-.1-.1-1 1.7-1 2 0 .2-.1 1-.4 1.8l-.7 2.3c-.3 1.7.4 0 1.3-3zm46.5 3.3c0-.1-.1-.3-.4-.3-.3-.1-.4 0-.4.3 0 .5.7.5.8 0zM58.1 12c-.2-.9-.1-1 .5-.9.4 0 .7.4 1 1 .2 1 .2 1 .2-.8a6 6 0 0 0-.2-2c-.2-.4-.4-.4-.8.2-.3.3-.7.5-1 .4-.5-.2-.8 1.6-.2 2.4.6.9.7.8.5-.3zm58.4 0a5 5 0 0 0 .6-1.9c0-.5.2-1 .4-1.2.4-.5.5-1.3.2-3.8-.1-1.7-.3-2.2-.6-2.2s-.4.4-.4 1.7c0 1.6-.5 6.2-1 7.7-.1 1 .1.8.8-.4zm3.3-.5c.7-1.2 1-2.5.7-2.5-.5 0-2 2.2-2 3 0 1.2.4 1 1.3-.5zM7.5 9.3c0-2.3 0-2.8-.4-3.2-.4-.4-.4-.3-.4 2.1 0 4.8.8 5.8.8 1zm121.9 2.2v-1.3c.2-.3.2-.4 0-.4-.4 0-.7.8-.6 1.7l.4 1c.2 0 .2-.5.2-1zM14 11.6c0-.2-.3-1-.7-1.6l-.6-1.2v1c0 .7.1 1 .4 1.2.2 0 .4.4.4.6 0 .3 0 .5.2.5s.3-.2.3-.5zm84.3-1.2c.2-.7.4-2.1.4-3 0-1 .3-2 .4-2.2.5-.5.4-2 0-2-.3 0-.5.2-.6.4l-.4 1-.4 2.2c-.2 2.5-.5 3-1.4 3-.5-.1-.7-.3-.8-.8 0-.5 0-.6.5-.5.4.1.5 0 .7-.6.2-1 0-1.4-.7-1.2-.3.1-.7 0-1-.3A7.7 7.7 0 0 0 92 4.7c-1-.3-1.1-.4-1-1 .1-.6 0-.7-1-.2-.4.1-.6.4-.6.6l.2.8c0 .2.3.5.6.6.5.2.6.4.5.8-.2.8.4 1.3 1.6 1.3 1 0 1.2.2 2.2 1.3.7.7 1.1 1.4 1.1 1.6 0 .4 1.4 1.4 2 1.3.5 0 .7-.4 1-1.4zM94 7.6c-.6-.7-.7-1.3-.3-1.3.4 0 1 .5 1.3 1.3.5.8-.2.8-1 0zM91.3 6c-1-.8-.3-1.2.8-.5l.8.7c0 .5-1 .3-1.6-.2zm50.9 4.2c0-1 .3-2.7.9-4.7.3-1-.1-.7-.7.5-.5.9-.6 1.7-.7 3.5 0 1.5 0 2.3.2 2.1l.3-1.4zm8.6-2.5c-.2-1.3-.6-1.8-1-1a488.9 488.9 0 0 1-1.8 4.8c0 .2.6-.3 1.4-1.2 1.4-1.4 1.5-1.6 1.4-2.6zm-45.8 3c0-1 0-1-.7-.2s-.6 1 0 1 .7-.1.7-.8zm34-.8c-.2-.7-.4-1.8-.4-2.6-.1-5-.1-5-.8-5-.6 0-.6 0-.5 2.1 0 3.2.3 4.3 1 5.3l.8 1.4c.1.4.2.4.3.2 0-.2 0-.8-.3-1.4zm-60.7-.4c-.2-.5-.4-.6-1-.6-.4 0-.9-.2-1-.5-.3-.4-.3-.4-.2 0 0 .2.5 1 1 1.7 1 1 1.2 1.1 1.2.6V9.6zm6.4.8c-.3-.3-.6 0-.4.6.2.4.2.4.4 0 .2-.2.2-.4 0-.6zm-73.7 0c.1-.3.4-.6.5-.6.3 0 .1-1.7-.3-2.8l-.4-.8-.4 1.2c-.4 1.3-.4 3.7 0 3.7.1 0 .4-.3.6-.7zM52.2 6c0-1.3-.1-2.4-.2-2.4-.4-.2-.7 2.7-.5 4.3.1.8.1 1.5-.1 1.8-.2.4-.2.8-.1 1 .3.8.9-2.2.9-4.7zm95.5 4 .4-1.9c0-.5.5-1.4 1-2 .5-.6 1-1.5 1.1-1.9l.4-1c.5-.2.3-.6-.3-.6-.8 0-1.3.5-1.3 1.2 0 .3-.2.8-.4 1-1 .7-1.4 2.2-1.4 4.3v2c.2 0 .3-.5.5-1zm-123 0c0-.3-.2-.5-.3-.4-.1.1-.3.4-.3.7 0 .3.2.5.3.4.1-.1.3-.4.3-.7zm86.7.3c0-.2-.2-.3-.4-.3-.4 0-.4 0 0 .3s.4.3.4 0zm53.4 0 1.2-.8c.8-.5 1-.5 1.3-.2.4.4 1 .2 4.1-1.4A25.1 25.1 0 0 0 176 5c0-.7-.6-.7-1.4.1l-1.1.9c-.2 0-1.2.5-2.3 1.3-1 .7-2 1.3-2.3 1.3-.7 0-.2-.7 1.4-1.8 2.2-1.6 3.6-2.8 3.6-3.3 0-.3-.1-.5-.3-.5l-.2.3c0 .2-.2.3-.4.3-.3 0-1.4 1-2.6 2A21 21 0 0 1 168 8l-.3-.4c0-.2-.3-.4-.5-.4-.4 0-3.1 2.8-3.1 3.2 0 .3.4.3.7 0zM15.7 9c0-.5-.3-1.2-.5-1.6a10 10 0 0 1-.9-2c-.3-1.2-1-2-1-1.3 0 .3.1.5.3.6l.2 1c0 1 .8 4 1.1 4.4.4.4.8 0 .8-1.1zm45.5-1.1c.1-1.2.4-2.3.5-2.6.4-.6.3-2 0-2-.7 0-1.6 3.5-1.4 5.6 0 .8.3 1.4.4 1.3l.5-2.3zm65.3 2c.5-.8.2-.9-.3-.1-.3.3-.4.6-.2.6.1 0 .4-.3.5-.6zm-69.7-1c.2-1.4-.1-2-.8-1.4-.4.4-.5 1-.1 2s.7.8 1-.6zm36.8.8-.1-.5-.6-.1c-.6 0-.6 0-.1.5.6.6 1 .7.8.1zm-60.3-4C33 5 33 5 32.8 6v2.4l.2 1.3.2-1.6c.2-.9.2-2 0-2.4zm25 2.7v-.5l-.3.5-.2 1c0 .3 0 .3.2 0 .1-.3.3-.7.2-1zm-4.1-.1c.2-.4.4-1 .4-1.4 0-.4.2-.8.5-1 .5-.4.6-.5.3-1-.3-.6-.8-.6-.8 0l-.7 2.3c-.6 1.9-.5 2.5.3 1zm33.4.4c-.1-.2-.5-.4-.7-.4-.3 0-.7-.6-1-1.2-.5-.9-.8-1.1-1-.9-.3.6-.2 1.3.3 1.3.3 0 .6.2.7.5 0 .2.5.6.9.7 1 .4 1.2.4.8 0zm13-.2c.2-.7.5-2.9.4-2.9-.3 0-1.2 2.3-1.2 2.9 0 .7.5.7.8 0zm39.8-.5V6.7c-.2-.3-1 1.3-.8 1.8.3.8.6.5.8-.6zm-116.8 0c0-.5 0-.6-.3-.3-.3.6-.3 1.1 0 1.1.2 0 .3-.3.3-.7zm5-1.6c-.1-.5-.2-.4-.2.8 0 1.4 0 1.4.3.6.2-.6.2-1 0-1.4zm92 1.2c-.2-.3-1 .2-1 .6 0 .4.1.3.6 0l.4-.6zM75 5.3c-.8-2.4-1.3-3.1-1-1.5.2 1.1 1.4 4 1.6 3.8L75 5.3zm46.6 1.8c.3-.5 0-.6-.4-.1-.2.2-.2.4 0 .4.1 0 .4-.1.4-.3zm45.2-1.3c.9-.8 1.5-1.5 1.4-1.6-.1-.2-.7.2-1.4.9a19 19 0 0 1-1.9 1.6c-.6.4-.6.4-.1.4a6 6 0 0 0 2-1.3zm-98.4.4c.1-.5 0-.8-.2-1.1-.3-.3-.4-.6-.3-.9l.3-.7c.2-.5-.4-.4-.8.1-.5.6-.5 1.1 0 2.3.5 1.1.8 1.2 1 .3zm-10.7-.7L57.5 4c0-.2-.2 0-.3.2-.4.6 0 2.3.4 2.3.2 0 .3-.3.1-1.1zm104.1-.3c-.2-1.1-.6-.9-.6.4 0 1 0 1 .4.7.3-.3.4-.7.2-1.1zm-40.6.7c.3-.3.3-.4 0-.4s-.5.2-.5.4l.1.4.4-.4zM16.6 5.7c.2-.6-.4-2-.9-2-.3 0-.3.2-.2.8l.2 1.2c0 .5.7.5.9 0zm25-.3-.2-.4c-.3 0-.6.7-.4.9.2.2.6 0 .6-.5zm54.9-.8c-.2-.6-.4-1-.6-1.1-.5-.2-.4 2.2 0 2.4.6.2.8-.3.6-1.3zM10 4.9c0-.3-.1-.4-.3-.4-.1 0-.2.2-.2.5s.1.5.2.4c.2 0 .3-.3.3-.5zm26.7-.2c0-.4 0-.8-.2-.9-.2 0-.3.2-.3.8 0 .5.1 1 .3 1 .1 0 .2-.4.2-.9zM103 4c0-.6-.5-.4-.8.4-.2.3-.3.8-.3 1 0 .4 1-.9 1-1.4zm37.2.7c0-.2-.1-.2-.2.1 0 .3.1.5.2.4v-.5zM24.7 4.6c0-.2-.2-.4-.3-.3-.2.1-.2.3-.1.5.2.3.4.3.4-.2zm105-.6c0-.6 0-.7-.3-.2-.3.7-.3 1.3 0 1 .2 0 .3-.4.3-.8zM111 3.2c-.1-.3-.3-.3-.5-.1-.2.2-.2.4 0 .9.4.5.4.5.5.1v-.9zM87 4c0-.3-1-1-1.2-.8-.3.3.2 1 .7 1 .3 0 .5 0 .5-.2zm-22.7-.6c0-.3-.2-.5-.3-.4-.1 0-.2.3-.1.6.2.5.4.4.4-.2zm104.5-.6c0-.4-.5-.2-.6.4-.2.4-.1.5.2.2.2-.2.4-.4.4-.6zm-26.8 0c-.1-.2-.3-.2-.5-.1-.2 0-.2.1.1.2.3 0 .5 0 .4-.2z"/>
</svg>
