<?xml version="1.0" encoding="utf-8"?>
<svg xmlns="http://www.w3.org/2000/svg" xmlns:svg="http://www.w3.org/2000/svg" version="1.1" viewBox="0 0 223 144">
  <title>While Pigling Bland eats his bowl of porridge in front of the fire, another piglet peeks in the door behind him.</title>
  <path d="M74.3 142.8c-.4-.1-1-.2-1.4-.1l-.8-.1c-.1-.3-5.2-1-5.5-.8a85 85 0 0 1-11.8.1c-.2-.5 1.2-.7 6.3-.6 3.4 0 5.1 0 5.3-.3.5-.4.1-.5-1.6-.6-1.7 0-2.3-.3-2-.8.3-.3 0-.4-1.2-.5-1.7-.2-4.9.4-5.6 1-.5.5-1.3.4-3.8-.3-4.4-1.2-5.2-1.5-5-1.8.3-.3.8-.2 5.7 1l2.4.6 1.2-.6 3-.9 1.8-.4 1 .1 1.7.4c.6.1.8.3.7.8v.6H68c2.8 0 3.4.2 3.4.5 0 .4-1 .5-3 .4-.6 0-1 0-1 .2s.2.3.5.3l3.5.3c2.4.2 3 .2 3.3-.1.3-.4 1.3-.8 2.4-.9l3.9-.2 3-.2.5.5c.3.5.7.6 2 .6 1 0 1.6-.1 1.8-.4.5-.5.9-.5 1.3.1.3.6 1.5.8 1.7.3.1-.1 0-.4-.4-.5-.4-.1-.8-.4-1-.7-.2-.3-.8-.6-1.3-.8-.7-.3-.8-.5-.8-1.3 0-.4.2-1.5.5-2.4a142 142 0 0 0 1-2.5c.2 0 .3-.2.3-.4l.8-1.9c.4-.8.8-1.7.8-2l.4-1.5.8-2.5 1.2-3.7c.4-1.3 1-3 1-3.9l1-3.2c.8-2.2.8-2.3.1-2.3L94 111c-1.4-.5-1.9-.4-2.3.8l-.4 1-1 1.2c-.7 1.2-1.7 1.6-2.4 1-.2-.1-.9-1.2-1.5-2.4-1-2-1.4-2.5-1.9-2.5-.4 0-.1 2.3.5 3.6l.7 1.4-.2 1.6c-.2 1.7-1.1 3.8-1.8 4-.3.1-.4.5-.4 1 0 .6 0 .8.6.8 1.2 0 1.5.1 1.5.3v.5a157.5 157.5 0 0 1-22.4-.8l2.5-.1c1.3 0 2.4 0 2.4-.2 0-.3-6.5-.3-7.8 0-1 .2-.8.6.6 1 1.9.7 2.6 1.1 2.2 1.5-.2.2-.6.1-1.4-.3-2-1-3.7-1.2-4.6-.6a32.6 32.6 0 0 1-7.8 1.2c0-.2.4-.4 1.3-.5a22.4 22.4 0 0 0 6.7-1.7c.8-.2 1.6-.5 2-.8l.4-.4h18l.2.4c.2.4.6.5 1.5.5l1.2-.2.5-.9.5-.8c0-.3-21.4 0-23 .2-2 .4-2.7.4-2.6-.2.1-.6 2-.7 14-.9 5.9 0 11-.2 11.2-.3.4 0 .7-.4.9-1 .3-1.3.2-2.3-.3-4L81 113l-1.3-.2c-.8 0-1.7-.3-2-.5-1-.8-4.8-.3-5.8.8l-.5.6-2.1-.3-6-.3-8-.3c-3.3-.1-4.3-.1-4.8.2-.6.3-.8.3-1.2 0-.6-.4-1.6-.4-1.6 0 0 .3-2.4.3-2.9 0-.2-.1-.2-.4-.2-.5.1-.2 0-.3-.4-.4l-.6-.2.6-.3h1.4c2.2.2 7 .2 7.5-.2s19.3-.5 19.4 0c.2.4.8.3 1.8-.2 1.1-.5 3.7-.3 4.4.3.2.2.8.4 1.3.4.6 0 .8-.1.8-.5 0-.3-.1-.6-.3-.6-.4 0-.3-1.9.3-3.7l.8-3.3.8-3.5c.6-2.5.6-3.2 0-4a3 3 0 0 1-.5-.9s-.4-.8-1-1.5L79.7 91c-.6-1.2-.7-1.4-1.2-1.3-.4.1-1.4-.2-2.8-1-4-2-5.8-2.6-7.7-2.6-3.4 0-5.1-.7-2.2-.8h1.6l-2.9-1.5c-1.7-.8-3-1.3-3.3-1.2-.8.2-.7.6.1.6 1.2 0 2 .3 2 .7 0 .4-.6.4-3.9.3l-3.8-.1-1.5.8c-1.2.6-1.8.8-4 .8a66.2 66.2 0 0 1-16.3.7c.1-.2 1.2-.3 3.2-.3l4.9-.1 1.8-.2v-.6c0-.8-.3-1.1-1.4-1.3l-1-.4c0-.4 1.2-.6 1.8-.4.6.2.2-.1-.5-.5-.4-.2-.6-.5-.6-.8.1-.3 0-.4-.5-.4-.4 0-.5 0-.2.3.2.3.2.4-.1.6-.3 0-.5 0-.6-.4-.1-.4-.4-.5-1.3-.5S38 81.4 38 81c.1-.4 3-.5 4.3-.2.7.2 1 .2 1-.1 0-.2-.4-.4-.8-.5-.7-.2-3.6 0-5.6.3l-1 .2v-1.2h-1.3c-.7 0-1.1 0-1-.2 0-.2.6-.3 1.2-.3 1.1 0 2-.4 1.8-.6l-3.3.2c-1.7.3-3.2.4-3.2.3-.5-.4.6-.7 4.1-1 4.7-.3 5.8-.5 5.3-.8-.4-.2-5-.1-11.4.2-2 .1-2.7 0-2.5-.1.3-.3 1.3-.4 8.8-.7 2.3-.1 4.1-.3 4.2-.5.2-.3-7.9-.1-13.8.3-2 0-2.7 0-2.7-.2 0-.1.3-.3.7-.3l4-.2c5-.4 14.4-.5 14.5 0 0 0-.1.2-.4.2l-.9.3c-.2.2 0 .2 1 .1 1.2-.1 1.4 0 1.4.2 0 .3-.2.5-.6.6l.7.1c.7 0 1.3 0 1.4-.2l.3-4 .2-3.6-.6-.7a5.6 5.6 0 0 1-1.5-2.9c-.1-.5-.4-1.1-.6-1.3-.2-.1-.3-.4-.3-.6l-.7-1.1a8 8 0 0 1-1-2c-.8-2.4-1.1-3-2-4l-1.6-2.1c-.6-1-1-1.2-1.8-1.3L33 53c-.2 0-.3.2-.4.7-.2 1.4-1 1.5-1.8 0l-.5-.8-.4.6c-.2.4-.6.6-.9.6-1.4 0-.7-3.6 1-5.6.2-.2.4-1 .4-2.1 0-1.3 0-1.8.3-1.9.6-.2.7 0 .7 1.3 0 1.1 1 2.6 1.6 2.5 1.1-.2 2.2 1 1.3 1.5l-.2 1.1c0 1 .3 1.4 1.3 1.4.3 0 .7.4 1 1.1a17 17 0 0 0 1.9 2.6c1.6 1.8 2.3 3.1 2.3 4 0 .4.3 1.4.7 2.1l1.8 3.5c.9 1.8 1.1 2 1.3 1.6a58 58 0 0 0-.8-13.2l-.4-3.8c-.5-3-.6-5.2-.2-5.6a52.7 52.7 0 0 1 1.5-7.4l.2-.7-.4.6-1.3 1.4c-1.2 1.3-1.3 2.5-.9 12.3l.3 5.8c.2 2-.2 2.5-.5.6a163 163 0 0 1-.7-16.8c-.2 0-.3 0-.3.2s-.2.3-.4.3c-.3 0-1 .3-1.4.7a6.5 6.5 0 0 1-4.6 1.5L32 43c-.7-.2-.8-.1-.8.2 0 .3-.2.4-.3.4-.3 0-.6-.7-.4-1.1 0-.2-.1-.5-.5-.7-.4-.1-.7-.4-.7-.5 0-.2-.2-.3-.4-.3l-.4-.2c0-.2-.5-.6-1.2-1-.8-.6-1.2-1-1.2-1.4 0-.3-.1-.6-.4-.6-.4 0-1.7-2.6-1.7-3.5 0-.4.1-1 .3-1.4l.7-3 .4-2.4-1-1.7c-.5-.9-1-2-1-2.3 0-1 .9-3.5 1.5-4.3.3-.5.7-1 .8-1.4.1-.5.4-.6 1-.6.7 0 1.7 1 3.3 3 .5.6.7.7 1.3.6l1.7-.3c1.1 0 1.4-.6 1-2-.4-1.7.4-3.5 1.8-3.9.6-.1 1.7.3 1.7.7 0 .1.4.8 1 1.4l1.6 2.5.6 1.5-.2 1.7-.1 1.8 1 1.2c1.3 1.2 2.9 2.4 3 2.2A467.2 467.2 0 0 1 44 5.5c.1-.3.4-.5.6-.4.3 0 .4.3.4 1a107.6 107.6 0 0 1 .5 12.9 5464 5464 0 0 0 .4 42.7c.2.2.2 1 0 2.7-.3 1.3-.3 3.2-.3 4.2.1 1.3 0 2.4-.3 3.6-.3 1.4-.4 2.4-.2 6a26.6 26.6 0 0 1-.3 6.7c.2.6 1 .7 1.2.2.1-.2 1.4-.6 3-1A287 287 0 0 0 62.5 81a19 19 0 0 1 2.8-1 22 22 0 0 0 3.4-1.2c.6-.4.9-.4 1.2-.1.3.2.4.2.4-.3 0-.3.2-.5.5-.5.8 0 .7 1.1 0 1.7-.4.3-1.6.8-2.8 1.2-3.7 1-4.6 1.4-4.7 1.7 0 .1 1.7 1 3.7 1.8a190.3 190.3 0 0 1 10.5 4.6c1 .5 1 .1-.1-1.6A27.8 27.8 0 0 1 74 79c-.4-2.1-.4-6.4 0-7l.6-3c.2-1.8.5-3 1.1-4.2l2-4.5c1.9-4.8 3.2-7.1 6.1-10.4 1-1 2.2-2.7 3-3.7a36 36 0 0 1 14-11.3c.8-.2 2.9-1.6 3.7-2.5 1-1 2.4-1.8 5-2.4a15 15 0 0 0 5.8-2.5c.3-.3 1.2-.7 2-1 .8-.2 1.6-.6 1.8-.7.2-.1.3-1.7.3-6.5 0-8.7.3-15.1.7-15 .2 0 .2 3.2.2 10.7l-.1 10.6h1.3c2 0 6-1.4 6.5-2.3.1-.2.2-4.5.2-9.7 0-7.7 0-9.4.3-9.2.2.3.3 2.4.4 9v9c0 .2.3.3.6.3.6 0 1.6.5 1.9.9.2.3.5-6.7.6-14l.1-6.6h.5l.4-.1v4.4c0 5.3-.6 16.8-.8 17 0 .2-.3.2-.5.1-.2 0-.4 0-.4.3 0 .4-1 2.4-2.1 4.3-.3.4-.4.9-.4 1 .3.2 1.6 0 2.9-.5.5-.2 1.5-.4 2.3-.4 1.4 0 1.5-.2 1.3-1.6l-.1-1-.2.7c-.1.4-.3.5-.5.4-.4-.2-.2-8 .3-13.2l.3-6c0-3.6.2-4.7.6-4.9.3 0 .4 1.4.4 6a731.6 731.6 0 0 1 0 13c0 5.6 0 6.7.3 7 .6.6 5 .7 5.6.2.3-.3.5-.3 1-.1.8.4.8.9 0 2.4l-.9 1.4v2.8c0 2.1 0 2.8.3 2.7.2 0 .3 2.8.2 14.3-.1 18.4-.1 17.2-.4 17.2-.1 0-.3-3.4-.4-7.8-.2-16.2-.4-24.1-.7-24.3a208 208 0 0 1-.8 11 92.7 92.7 0 0 0-.3 16.2l-.3.4-.2-.6-.2-3.2c0-2.5-.3-3.4-.6-1.8-.2.9-1.4 2-3.2 3.3l-1.4 1-1.9-.2c-1 0-2.2-.3-2.7-.6l-.8-.4-1.3.4c-.7.3-1.4.5-1.6.4l-1.6.1c-1.2.2-1.5.2-1.7 0-.4-.6-1.8-1.3-2.2-1.2-.2.1-.7 0-1.1-.3-1.1-.5-1.3-.3-.6.6a20.4 20.4 0 0 0 3.9 5c.2 0 .4.3.4.6 0 .9 1 1.1 5 1.2 4.6.1 10.7 1 12.2 1.8.2.1 1 .7 1.5 1.3 1 1 1.1 1.2 1 1.9-.2 1.2-1 2-2.5 3-1 .5-1.5 1-1.8 1.7-1 2.3-1.2 2.5-4.9 3-3 .3-3.4.3-4.5-.2-.6-.3-1.1-.4-1.2-.3-.2.1-.2 1.8-.1 3.7 0 .7 0 2-.2 3l-.4 2.4c-.4 3.1-1 5-2.4 7-.5.6-1 1.3-1 1.5 0 .2.9.3 2.9.2h2.8l.4-1.5c.3-1.1.6-1.6 1.2-1.8l.7-.4 1.1.7c1.4.8 1.7 1.1 1.8 2l.1.6h4.1l1-1.6a6 6 0 0 1 1.1-1.7 9 9 0 0 0 1.5-2.6 117.4 117.4 0 0 0 4-9.6c.4-1 .4-1.3 0-1.5-.2-.2-.2-.3.2-.2.4 0 .8-.7 2.3-5.4 2.2-6.3 3.2-9 3.5-9 .3 0 .3.7 0 1a9 9 0 0 0-1 3.3l.7-1.5c.8-2.8 1.4-3 .7-.4a53 53 0 0 0-1.5 5.6c-.6 2-1 3.3-.7 3 .4-.3 2.3-5 2.3-5.6a20.8 20.8 0 0 1 2-5.5c0-.4 1.1-2.9 1.8-4l1.2-2.9c.7-1.7.8-2.3.6-3-.3-1.1-1-1.3-1.8-.5l-.7.6.2 1.4c.1 1 0 2-.2 3l-.6 2.2c-.1.4-.4.7-.7.8-.3.1-.5.4-.5.8 0 .7-.4 1-.8.8-.4-.2 0-1.5.5-1.6.6-.2 1.3-2.4 1.5-4.7l.1-1.4-.4.6a2 2 0 0 0-.4.9l-.4 1c-.2.2-.3.6-.2.9 0 .2 0 .5-.3.7-.4.2-1 1.3-1.2 2.3 0 .4-.3.7-.4.7-.4-.2-.2-1.6.3-2.5l.3-1.2-.5-10.4c-.3-10 0-25.3.6-32.2l.4-11.7.2-8.6h.5c.9-.2 1 .2.7 2-.2 1-.5 5.7-.7 10.6l-.6 11.9c-.4 5.2-.6 20-.4 28.1.2 7.4.4 9.2.8 6.9.1-.6.5-1.4 1-2 1.5-1.5 2-2.4 2-3 0-.6.1-.7.6-.5 1.2.3 1.8-1.1.8-1.8-.8-.4-.7-1 0-1 .6 0 .8-.2 1-1l1-2.8c.5-1.3.6-1.9.4-2-.6-.1-.4-1 .2-1 .3 0 .6-.3.8-.6.2-.4.2-.5 0-.4l-.8-.1c-.4-.3-.5-.4-.3-1 .5-1 1.4-2 2.2-2 .8 0 2.3 1.5 2.3 2.3 0 .8-.7 1.7-1.3 1.7-.7 0-1.2 1-.6 1.3l.5.3-.9 1-1.4 2.7-.5 1.7.4.3c.4.3.4.4.1.8-.1.2-.5.4-.7.4-.5 0-1 2-.9 4.5 0 1.6 0 2.3-.3 2.6-.2.3-.8 1.3-1.2 2.4l-1.7 4a139 139 0 0 0-5.2 13.5 199 199 0 0 1-2.7 6.6 20.4 20.4 0 0 0-2.3 7.3c-.4.2-1.5 5-1.3 5.5.1.3.6.4 2 .4 1.5 0 2 .2 3.3.9l1.6.8-.2.8c0 .4-.4 1-.6 1.1-.8.6-1.3 4.6-1.2 11 0 3.9 0 4.5-.4 4l-.3-.4v.7c0 .5-.2.7-.4.7-.3 0-.4-.3-.4-1.2 0-.6-.1-1.2-.3-1.2-.2 0-.8-1.1-.8-1.6l.4-.2c.5 0 .5-.4-.1-1-.8-.6-.8-1.5 0-1.3.4.2.5 0 .5-.6 0-.4-.2-.8-.3-.9-.3 0-.3-.3 0-1 .1-.5.3-2 .3-3.1 0-1.2.1-2.2.2-2.2.2 0 .3.2.4.3v-.8l.1-1-2.1-.2a40.2 40.2 0 0 0-10 .6c-.6.6 1.7 3.8 6 8.7.5.4 1.4 1.7 5.8 7.9 1 1.4 1.4 1.5 1.4.3s.3-1.2 1-.2l.4.8-.4.8-.4.8 1.2 1.7a183 183 0 0 1 5 6.8c3.3 3.6 7.5 9 7.5 9.6 0 .9-1 .4-1.7-.9-.8-1.4-1-1.5-1.3-1-.1.4-1-.6-2.6-2.7a982.9 982.9 0 0 0-6-8.6 3131.7 3131.7 0 0 0-8.2-12.3l-2-2.2a23 23 0 0 1-2-2.2c0-.4-2.4-2.3-2.4-2 0 .6 1.1 2.7 1.3 2.7.2 0 .6.6 1.1 1.3l1 1.4c.4.3 2.2 3 2.9 4.1.9 1.7 3.1 5.3 6.3 10l5.8 9c1 2 1.3 3 .4 2l-1.2-1.8-3.2-5a60.8 60.8 0 0 1-3.1-4.8 95 95 0 0 1-7.2-11l-2-2.7-1.8-2.7c-.7-1-1.3-2.5-1.3-3.5s-2.1-3.8-2.5-3.4c-.1.1 0 .6.4 1 .4.9.4 1 .1 1.5-.4.6 0 1.4 2 4 2 2.5 3.1 4 3.8 5.4.7 1.4.8 1.8.4 1.8a15.3 15.3 0 0 0-2-2.8l-2.2-3c-1.4-2.1-2.5-2.5-4.3-1.6l-2.1.7c-.6 0-1 .2-1 .4a27 27 0 0 0 2.1 3.9c.2.2.7.3 1 .3 1 0 1.4.5 1.4 1.4 0 1.2.8 1.6 2.7 1.3 1.2-.1 1.7-.3 1.7-.6 0-.4 0-.5-.4-.5-.3 0-1-.6-1.7-1.4-1.4-1.7-1.9-2.5-1.7-3 .2-.6.6-.4.7.2.1.5.3.6.8.6 1 0 2.2 1.6 3 4.2 0 .2.3.4.5.4l2 .8a6 6 0 0 1 2.4 2l.8 1.5c0 .1.1.2.3.2.3 0 1 2.3 1.3 4.2.2 2.1 0 3.5-.9 4.8-.6.9-.8 1-1.9 1.2l-1.2.2.8 1a36.4 36.4 0 0 1 3 4.5c1 1.4 1 1.6-.3 1.5-.5 0-1-.6-2.5-3-1-1.5-2.1-3.5-2.5-4.4l-.8-1.5 1-.3 1-.3v-.6c-.2-.5-.1-.7.7-1 .5-.2 1.2-.7 1.4-1 .3-.5.7-.8.9-.8.5 0 .2-2.2-.5-3.5-.8-1.6-1.8-2.5-3.3-2.7l-1.2-.1-.2-.8c-.1-.6-.3-.8-.9-.8-2.5 0-4-.3-5.4-.8-.6-.2-.7-.4-.6-1 .2-.6.1-.8-.2-1h-.7c-.7.5-3.4-3.4-3.4-4.8 0-.7-5-2-7-1.9l-1 .1 1 .6c1.8 1 4.7 2.9 5.1 3.4a44.6 44.6 0 0 0 2.8 4.3c1.5 2.1 1.7 3 .5 3.5-.5.2-1 .2-1.7-.1l-1-.4-1 .7-.8.8v2l.4 2.6c.2.4 1 1.3 1.9 2l1.6 1.4h1.8c3.2-.1 5.5.2 6 .9a1024.9 1024.9 0 0 1 3 4.2 17 17 0 0 1 2.8 4.7c-.4.6-1.1.1-2.1-1.6-1.6-2.7-3-4.8-3.3-4.8-.7 0-.2 1.2 1.8 4.1.8 1.3 1 2.3.4 2.5-.2 0-.8-.7-1.3-1.6-1-1.7-1.5-1.7-.8 0 .5 1.3.5 1.6.2 1.6s-1-1.4-1.7-3.7c-.5-1.8-.9-2.2-2.3-2.5l-.9-.2.3.6c.2.3.4.5.6.5l.4.6c0 .3.7 1.4 1.3 2.6a11 11 0 0 1 1.2 2.5c0 1-.6.4-1.5-1.5l-2.2-3.8c-1-1.4-1.4-1.8-2-1.9-.9-.1-.9.3 0 1.5 1.3 1.6 3.3 4.9 3.2 5-.3.3-1.7-1.4-4.5-5.7-.2-.3-.2-.4 0-.5.5-.2.2-.6-.4-.6-.3 0-1.2-.4-2-.8l-1.8-.9c-.3 0-.3-.2 0-.4.3-.1.1-.5-.6-1.4-.5-.7-1-1.4-1-1.6 0-.1-.1-.5-.4-.8-.3-.4-.4-1-.4-2.5v-2l1.1-1c.6-.5 1.1-1.1 1.1-1.2 0-.2-.4-.4-1-.5-.6-.1-1-.5-1.8-1.5-1.3-1.7-5-4.1-5.6-3.6a45.7 45.7 0 0 1 1.1 4.7 8 8 0 0 0 .7 2.3c.1 0 .4.6.5 1.2l.7 2 .6 1.8.7 2.1.5 2.3v1.1l-.8.3c-.5.1-1.3.6-1.7 1l-1 .7-1.3-.6c-.5-.4-1.3-.7-1.7-.7-1 0-2.3-.6-3.2-1.4-.5-.5-1-.7-1.7-.7-1.4 0-2.2-.3-2.2-.7 0-.3-.3-.4-1.4-.3h-1.4v.7c-.1.3 0 .8.2 1.2l.6 1.2c.2.8 1 1.3 2.5 1.6l1.2.1v1.4l2.5.2c1.3.1 2.4.3 2.4.4 0 .2-.1.3-.3.3a58.2 58.2 0 0 1-7-.1 8 8 0 0 0 2.6 2c.1 0 .2 0 .2.2 0 .1-.4.2-.9.2-.9 0-2-.6-2.9-1.8-.4-.5-.6-.6-1.3-.4-2 .4-2.8.4-2.8.1 0-.4 1.2-.8 3.4-1 2-.3 3.2-.8 1.8-.8-.7 0-1.7-.4-2.8-1-.4-.3-.5-.5-.3-.9.2-.3.2-.9 0-1.7l-.4-1.2-1-.3c-1.7-.4-1.8-.4-1.8-1v-.5h1.7c2.2 0 1.1-.5-1.4-.6-1.4 0-1.6 0-1-.3.7-.3 7.3 0 8.5.3.5.1.8.4.8.5 0 .2.2.3.6.3.7 0 .8-.3.2-2.7l-.8-4.2a19 19 0 0 0-.8-3.1c-.3-.8-2.2-8.2-2.2-8.9 0-.3-.3-.4-1.7-.4l-2.3.2c-1.1.5-3.3 5.3-2.7 6 .3.3.4 2.5 0 2.5l-.4-.3-.4-.2c-.4.4-1.7 5.8-1.4 6l2.4.3c2.4.1 3.3.4 3.3.9 0 .2-.4.2-1.1.1l-3-.3h-1.7l-.4.6-.5 2c0 .7-.4 1.7-.7 2.3-.3.6-.5 1.3-.5 1.6 0 1-1.6 4-2.6 5.1-.6.6-1.2 1-1.6 1a3 3 0 0 0-1.2.3c-.4.2-.4.3-.2.5l1 .2c.3 0 .6.3.7.6l.1.6 1.8-.2c1.5-.2 1.7-.1 1.7.2 0 .6-1.8 1.3-3.4 1.3a323.3 323.3 0 0 1-10.9-.3c-.5 0-.7 0-.7-.5l-.1-.6-2.4.2c-2.6.1-3.3.4-2.5 1 .4.1.4.3.1.6-.3.4-.6.4-1.5 0zm17.5-6c1.2-1.2 1.8-2.3 3-5.9.3-1 .7-2 .9-2.2l.5-1.8c1-4.8 2.5-10.4 3-11.8.8-1.9.9-2.5.5-2.8-.5-.3-.7 0-.3.5.3.4.2.5-.3.7-.9.3-1.1.7-.7 1.2.2.3.2.5-.3 1-.3.5-.5 1-.5 1.4 0 .3-.2.7-.3.8l-.2 1c0 .4-.3 1.3-.6 1.9a5 5 0 0 0-.5 1.8c0 .6-.3 1-.7 1.5a2 2 0 0 0-.6 1.5c0 1.1-1 4.5-1.5 5.1-.2.2-.4.7-.4 1 0 1-.7 3-1.3 4-.9 1.5-.7 2 .3 1zm68-.3c-.2-.2-.3-.3-.3 0s.3.6.5.4c0 0 0-.3-.2-.4zM91.2 133v-.6l-.4.5c-.5.7-.5 1.4 0 1 .2-.2.4-.6.4-1zm28.9-.5c0-.7-.8-3.4-1.8-6a258.2 258.2 0 0 1-3-8.6c-.2-.2-.3-.5-.3-.8 0-.2-.1-.4-.4-.4-.2 0-.3.3-.3 1.4.2 2 .1 2 .7 2.1l.6.2-.2 1.3c-.2 1.4.1 2.1 1 2.1.6 0 .6.3.1 1.1-.2.5-.2.6.3 1 .5.3.6.5.4 1.5-.1 1 0 1.2.4 1.6.5.4.6.8.6 1.7 0 .8.2 1.3.6 1.8.7.7 1.3.7 1.3 0zm11.5.3c-.1-.1-.6-.3-1-.3s-.8.2-.8.3c0 .2.5.3 1 .3s.9-.1.8-.3zm-15.5-.7-.4-.7c-.2-.4-.4-.4-.5-.2-.1.1 0 .5.1.7.4.4.8.5.8.2zm29-1.5s0-.2-.2-.3c-.1-.1-.2 0-.2.1 0 .2 0 .3.2.3l.3-.1zm-38.4-.5h-1.2c-.3.2 0 .3.8.3h1.2l-.8-.3zm8.3 0v-1l-.5-2.4c-.3-1.8-1.4-5.4-1.6-5.5-.1 0-.2-.2 0-.4 0-.3-.1-.4-.4-.4-.3 0-.4.1-.2.5 0 .4 0 .7-.2.8-.3.2-.3.3 0 .7.3.3.6 1 .7 1.4l.5 1.5c.2.3.3 1.2.3 2.5-.1 2 .2 2.8.8 2.5l.6-.1zm-43.4-7.8h-.8c-.7 0-.8 0-.4.2.5.2 1.2 0 1.2-.2zm.8.2c0-.2 0-.3-.2-.3s-.3.1-.3.3c0 .1.1.3.3.3l.2-.3zm-3.2-.2h-.5c-.2 0-.2.2.1.2.3 0 .5 0 .4-.2zm57.3-2.6c0-.3 0-.6.4-1l.6-.3-.5-1.2c-.6-1.3-2-2.9-2.4-2.6 0 .1 0 .4.2.5.6.6.3 1-.7 1-.8 0-.9.1-.7.5l.4 1.5c.4 1.3.5 1.5 1.6 1.7 1.3.4 1.3.3 1.1-.1zm-14.7-.4c0-.1 0-.3-.2-.3s-.3.2-.3.3c0 .2.1.3.3.3.1 0 .2-.1.2-.3zm-.3-1.5h-.5c-.2 0-.1.2.2.2.2 0 .4 0 .3-.2zm10.3-2.1c.6-1.3.3-2-.7-1.4-.4.2-.5.2-.7-.3 0-.3 0-.7.2-1 .4-.4 0-1-.9-1.2l-1-.6c-.4-.4-.7-.4-2.2-.1-2.8.5-3.5.4-4.7-.7-.5-.5-1.1-.9-1.2-.8l.1 1.2c.4 1 1 1.5 3 1.8a8 8 0 0 1 2.1.7l1.2.5c.2 0 .5.1.7.4.2.2.7.6 1.3.8.5.2 1.2.7 1.5 1 .9.5 1 .5 1.3-.3zm-37.6-.2c.1-.3-.1-1-.5-1.9l-.8-1.4.2-2v-2a2 2 0 0 0-.7.4c-.6.4-.6 2.2 0 4.2 1 2.9 1.5 3.6 1.8 2.7zm29.6-1-.5-.2c-.2 0-.4.1-.4.3l.6.2c.3 0 .4-.1.3-.2zm-43.5-2.2.8-.6c0-.1-3.6 0-6 .4l-1.5.2.9.2c1.9.3 5 .2 5.8-.2zm19-3.9c0-.5.3-1.1.5-1.3.2-.2.4-.5.4-.8 0-.5.2-.9 2.6-3.5l1.8-2.3 1-2.4.8-1.7-.2-4.6c-.2-9.5-.1-11 1-11.8.4-.4 1-.6 1.1-.6.2 0 1-.7 1.7-1.4l1.3-1.4v-1.2c0-1.4-.2-1.7-1-2l-1-.3-.5-.2.2 1 .2.9-1 .4-1.8 1-.7.6-.8-.4c-.5-.3-1-.5-1.3-.5-.7 0-.8-.3-.4-.8.3-.3.8-.5 1.4-.5l1.4-.2c.3-.3.3-.4 0-.7l-.4-.5.8-.7.9-1-1.2-1a6.3 6.3 0 0 1-2.5-4 22 22 0 0 0-.8-2.6c-.9-2.6-1.1-4.4-.7-5.7.7-2.2 1.3-3.6 2-4.4.5-.5.8-1 .8-1.2l1.2-1a4.9 4.9 0 0 1 4.5-.5c.8.4 4.4 5.6 4.4 6.5 0 .3.5 1.5 1 2.7l1.2 2.3.1-1.2a5 5 0 0 0-.2-1.9c-.4-.9-.9-3.2-.8-3.8.1-2.5-.1-3.5-1.6-6.6l-1-2.6a4 4 0 0 0-.6-1.7l-.7-1.4c-.4-1.1-.4-4.2 0-4.4l.6-1c.5-1.3 1-1.1 1 .1l-.1 1 .4-.8c.4-.7 1-1 1.3-.6l-.6 2.2a7.6 7.6 0 0 0-.4 3.7c0 1 .2 1.9.4 2l.4 1.3c.2 1 .6 1.4.6.5 0-.5.5-1.3 2.7-5 1.4-2.2 2-4 2-5.2 0-.8 1-2 3-3.4 1.7-1.3 2.4-1.7 3.7-2 2-.2 2-.2 2 .3s-.3.6-1.7.9a7 7 0 0 0-3.2 1.4c-1.8 1.4-2.1 1.8-2.1 2.8 0 .5-.1 1-.3 1l-.7 1.8c-.2.9-.8 2.1-1.3 2.7-1.2 1.7-1.7 2.7-1.8 4-.1 1.2-.5 2.4-.9 2.6-.3.2.2 2.2.7 2.5.1.1.7 1 1.2 2.1l1.2 2c.2.1.4 0 .6-.4.2-.3.4-.4.5-.3.2.2.2.6-.1 1.1-.6 1.1-.6 1.2.4 1.6 1.4.5 2.1.4 2.8-.4l.5-.8.2.5c.2.3 0 .7-.4 1.1l-.5.6.4.2c.5.2 2.7-.3 3.5-.8.3-.3.6-.6.6-.9l.4-.9c.2-.2.3-.7.2-1 0-.2 0-.9.2-1.4.2-.6.2-1.4.1-2l-.2-1.2-.2.9c-.4 1.3-1 1-1.2-.4l-.5-3.6c-.4-2.3-.3-3.1.3-2.7.2 0 .4.5.5 1 .1.7.3 1 .7 1 .3 0 .5.2.5.5 0 .2.5 1 1 1.5 1.1 1.2 2.3 1.5 3.2 1 .2-.2.6-.2.8-.1l1 .4c.8.3 0 .6-2 1l-2 .2-.3 1.4c0 .7-.5 2.1-1 3-.5 1-.8 2-.8 2.2 0 .3-.3.7-1 1-1 .6-1 .7-.6.8.3 0 .7.3 1 .5.2.2 1 .5 1.8.6.8 0 2 .5 2.7.9a6 6 0 0 0 1.6.7c.6 0 .5-1.3 0-1.5-.3 0-1-.5-1.6-1-.8-.7-1-1-.7-1.3.3-.2.5-.2 1 .2.5.3 1.4.7 2.2.9 1.1.2 1.7.5 2.2 1.2l.7.8.4-.8c.4-.9 1.6-1.7 2.4-1.7.2 0 .8-.3 1.2-.7.6-.5 1-.6 1.5-.5l.7.2-.1-.6c0-.4-.5-.9-1-1.2-1.6-1-3.3-5.4-2.4-6.4.5-.5.8-.4 1 .6l.2.8.3-.7c.2-.4.4-.8.6-.8l.4-1 .8-1.4c.6-.6.8-1 .9-2.7.2-2.3 0-3.1-1.4-7l-.8-2.2-1.4-.6c-.8-.4-1.5-1-1.7-1.3a11 11 0 0 0-1.5-1.7l-1.2-1.2-.2.5-.5 1.8c-.3 1-.6 1.5-1.8 2.6-2.2 2-2.9 2.2-5.5 2-1.6-.2-2.3-.3-2.4-.6-.3-.8.5-1.1 3.3-1.2l2.7-.2 1.4-1.3 1.3-1.4-.1-.9c-.1-.6 0-1.1.4-1.7.4-.8.4-1 .2-1.4-.4-.7 0-1.2 1-1.3.7 0 1-.3 1.2-1l.4-.8-1.3.7c-1.4.8-2.4 1.6-2.4 2l-.5 1c-.4.4-.6.5-.8.3-.1-.2-.5-.3-1.2-.1-1.3.3-2.4 0-2.5-.6 0-.3.3-.6 1.5-1a30 30 0 0 0 5.1-2.6c.5-.3-.1-.2-1.9.4-1.7.7-3.2 1-5 1.2-2 .2-2.5.4-2.8.8-.2.3-.8.6-1.4.8a2 2 0 0 0-1.4 1.2 5 5 0 0 0-.5 1.2l-.5 1.2c-.5.8-.6.9-1 .6-.3-.3-.3-.7-.2-1.6l.1-1.3h-.5c-.5 0-3.5 1.1-5.1 2-1.7.8-3.5 2.1-3.9 3-.7 1.3-1 1.6-2 1.5-.6-.2-1.1 0-2.9 1.3-1.1.8-3 2-4 2.5a19 19 0 0 0-5.4 4.8c0 .2.2.2.5 0a11 11 0 0 1 4.2-1.7c.7.2.2.7-2.2 2-4 2-5.1 3-6 5.2l-2.4 3.8a24.6 24.6 0 0 0-3.5 7.3l-.6 1.5v6.9c-.4.4-.3.9.2 1 .3 0 .8.7 1.2 1.6l1.1 2.1c.5.9.3 1.4-.4 1-1-.5-3.2-5.5-3.2-7.1 0-.4-.2-.6-.5-.6-.8 0-1.4 1.8-1.4 4.5v2.5l.8 2c1 2.3 1 2.8.3 3-1 .3-.5 1.8 2.5 7.2l1.6 2.9a20 20 0 0 0 6.9 7.7c.6.5 1.1 1 1.2 1.4 0 .7-.5 1.9-1 1.9a6 6 0 0 1-1.5-1.2c-2-1.8-2.3-1.6-3.1 1.7l-.3 1.4.4.7 1.2 2.2 1.8 2.8c.5.8 1 1.5 1 1.7l.4 1 .4.6.4-1.5.5-2.6zm3.9-9.3-.5-1.4-.4-1v.7l-.3 1.3c-.3.5-.4.5-.5.2-.4-.6-.3-1.7.1-2.2.3-.3.4-.7.3-1.1-.8-3.8-1-5.5-.8-7.4.2-3 .9-5.1 2-5.8 1.4-1 1.8-.1.5 1.2s-1.7 5.7-.8 8.6l.5 2.7.6 2 .2 1.4c0 .9 0 1.2-.4 1.2-.2 0-.4-.2-.5-.4zm31-40.7.7-1.7c.4-1.2.5-1.6.2-2.3-.3-1-.4-1.8-.1-1.8l.9.6c.6.5.8.7.8 1.7 0 1.4-.5 2.5-1.5 3.1-.6.5-1 .6-1 .4zm-22-8.9-1.7-2.3c-.4-.8-.4-2 0-2 .5 0 1.6 1.3 1.6 1.8 0 .1.5 1 1.2 1.8 2.1 2.9 1.2 3.6-1 .7zm26-.4c0-.5 1.3-1.5 1.7-1.4.8.3.2 1.4-1 1.6-.5.2-.6.1-.6-.2zm-3.4-1.3c-.3-.2-.5-.6-.6-.9 0-.3-.3-.5-.7-.6-.8 0-1-.7-.4-1.2.3-.2.4-.4.3-.6l-1 .6c-.8.8-1.5.8-2.3 0-.7-.7-.7-1-.2-1.4.3-.2.4-.2.8.2l.5.5 1-.8c1.1-.9 2-1 3.5-.7.4.2.7.4.7.7 0 .4.2.6.6.6.4 0 .6.3.7.8 0 .7 0 .8-.7 1-.8 0-1.3.7-.9 1 .2 0 .3.3.3.6 0 .6-1 .7-1.6.2zm.4-3.4h-.5c-.6.2-.5.3.1.3.3 0 .5-.1.4-.3zm7 1.5c0-.4.2-.7.4-.7.3 0 .4.2.4.6-.2.9-.8 1-.8.1zm1.2-.8c-.3-.6 0-2 .3-2.2.3 0 .4.3.4 1.2 0 1.3-.4 1.8-.7 1zm-12-2.7c-.4-.2-.4-.6.3-1.5 1.1-1.3 3.9-1.7 4.4-.7.5.8.1 1.1-1 1-.7-.2-1.1-.1-1.6.3-1 .7-1.7 1-2 .9zm3.5-10.5c0-.6.2-1.1.4-1.2.4-.1.4.6-.1 1.5l-.4.7zm-1.1-.2c0-.1 0-.2.2-.2s.3 0 .3.2-.1.3-.3.3a.3.3 0 0 1-.2-.3zM61.3 112c0-.3-1.8-.6-2.7-.4l-.9.2.6.2c.7.3 3 .3 3 0zm69.5-1.8c0-.2-.2-.4-.6-.5-1.3-.2-1.4-.3-1.4-1.1 0-1-.1-1-2.2-1.4-1.3-.2-1.7-.2-2.2.2-.8.5-1.6.1-1.9-.8l-.1-.6-1.8-.1-1.7-.1-1.3.8-2 1.3c-2 .9-2.2 1-1.8 1.4.3.3.6.2 1.3 0 .6-.3 1.9-.4 4.4-.3a18.1 18.1 0 0 1 8.2 1.5c.3.3 3 0 3.1-.3zm-25.2-.9c.1 0-.2-.4-.6-.7-.7-.5-1.2-.6-3.4-.6-1.4 0-3.4-.2-4.3-.4-2.2-.4-2.7-.4-3.3 0l-.5.4.6.3c1.5.8 4.9 1.3 8.2 1.3 1.8 0 3.3-.2 3.3-.3zm25.8-1c-.5-.3-1.8-.3-1.8 0s1 .5 1.7.3c.3 0 .4-.2 0-.3zm-17.2-1.5c1.3-.4 2.1-.8 2.1-1 0-.2.4-.6.8-.8 1.7-1 3.3-3 4.1-5.4.5-1.3 1-1.8 1.3-1 .2.5.8-.2 1.6-1.8.4-.9.9-2.5 1.2-4l.4-2.7-.6-.7-.6-1.2c0-.7-1.4-2.3-3-3.4l-1.6-1h-2.7c-5.4.2-5 .1-5.9 1-.4.3-1.2.8-1.8 1l-2.5.8c-.9.3-2 .5-2.3.5a3 3 0 0 0-1.5.5l-.6.4-1.9-.5c-1.8-.4-2.4-1-1.9-1.5.2-.2.5-.2 1 0 .9.3 2.8.1 2.8-.3 0-.6.5-1.2 1-1.2.4 0 2.2-.9 2.2-1.1 0-.3-.3-.3-1.7.2s-3.2.2-3.2-.5c0-.4.3-.5 1.6-.6 2-.1 4.6-1 5.8-1.9.9-.6 1.7-.8 1.7-.3a18 18 0 0 1 0 2c0 .3-2.3 1.7-3.8 2.4-.5.2-.7.4-.5.5.6.2 2.7-.5 3.6-1.1a7 7 0 0 1 4.2-1.3l3.2-.3c1.7-.2 4 .2 5.3 1 .7.4 1.9 1.5 3.6 3.6l.5.7v-1.4L126 83l-.2-2h-2.3a29 29 0 0 1-14-3.3c-2.7-1.1-3.7-1.2-4.7-.4-.4.4-1.8 1.2-3.1 2-1.3.6-2.6 1.4-2.9 1.6-.5.4-1 2-1 3 0 .3-.1.8-.3 1 0 .3 0 2 .2 3.7l.4 4.6c0 1.3-.6 4.3-1.1 5.3-.1.2-.3 1.5-.3 2.7v2.4l1 .6c2 1 3.4 1.3 7.1 1.2a27.6 27.6 0 0 0 6-.5c.5.3.2 1-.7 1.3-1.2.5-1.1.9.1 1l1.4.2 2.6-.7zm16.7-1.3c.1-.3.4-.5.7-.6.5 0 .6-.2.3-.7l-.2-1.5c0-.6-.1-.8-.7-1l-1-.2c-.3-.2-5.8-.1-7 0-.8.2-1.1.4-1.6 1.4-.4.6-.6 1.2-.5 1.3l2.7.3c2 0 2.8.2 4.7 1 1.2.5 2.3.8 2.4.7l.2-.7zm8-2.8c1.2-.1 2.3-.3 2.4-.5l4-.3 3.8-.3c.8-.8-2.8-1-11-.6-3.5.2-3.9.4-2.5 1.5l.8.5 2.4-.3zm-5.6-.6c0-.2-.1-.4-.3-.4-.1 0-.2.2 0 .4l.2.4v-.4zm-.3-1.2c0-.2-.1-.3-.2-.3-.2 0-.3.1-.3.3 0 .1.1.3.3.3l.2-.3zm9-1.4c1.2-1 3-4.4 3.8-7l1-3.3c.3-.7.5-1.6.5-2l.6-2.5c1.5-4.2 3.1-9.7 3.2-10.7.2-1-1.6 3.7-3.4 8.9l-1.2 3a55 55 0 0 0-2.8 7l-.6 1.5c0 .7-1.7 3.8-2 3.8-.2 0-.4.2-.4.4s0 .6-.2.8c-.2.5 1 .6 1.5 0zm-10.6-.5-.4-.2-.4.2c0 .2.2.3.4.3s.4-.1.4-.3zm1.6 0-.2-.2c-.2 0-.3.1-.3.2 0 .2.1.3.3.3.1 0 .2-.1.2-.3zM52.8 84.3c.7-.2 1.3-.5 1.3-.7 0-.2 0-.3-.1-.2l-2.4.6c-2.3.5-3.4 1-1.3.8l2.5-.5zm-9.3-2.7H43l-.5.2.5.2c.5.2 1-.1.6-.4zm106.7-1c0-.4-.1-.3-.4.3l-.4 1.2c0 .5.8-1 .8-1.5zm-19.7 1.1 1.2-.2c1.2 0 1.3-.2.5-1-.4-.3-.6-.4-1.3-.1-.5.2-1.3.3-1.9.3-1.1 0-1.3.3-.4.7 1.2.6 1.7.7 1.9.3zm5.8-1.5c.5-.6.4-.7-.6-.6-1 .1-1.2.3-.7.7.6.5.8.5 1.3-.1zm-92.5-.6c-.2-.5-3.8-.6-4-.2-.2.2.2.3 1.2.2h2c.7.4 1 .3.8 0zm-2.1-1.1c1.3 0 1.9 0 1.8-.3 0-.2-.3-.3-.6-.2-.3 0-1.6 0-2.9.2-1.6.1-2.2.2-1.8.4h1l2.5-.1zm88.6-.2c.4-.3 1.1-.4 1.6-.3 1 .1 6.4-1.4 7.9-2.2 2.7-1.6.6-3.4-4.5-3.8l-5-.6c-1-.2-2.4-.2-3.1-.1l-3 .2c-2 .1-2 .1-1.4.6.3.2 1 .4 1.5.4l2.4.4c.8.2 1.6.2 1.9.1.2-.1 1.6-.4 3.1-.5 2.3-.3 3-.3 3.6 0 1 .5 1 1 .3 2.1-.5.8-1 1-2.3 1.4-2 .5-7.7.5-8.3 0-.4-.5-.2-.6 1.6-.8 1 0 1.7-.2 1.7-.4 0-.5-1.3-1-2.4-1-1 0-1.4.2-2.1 1-.6.5-1.2.9-1.6.9a3 3 0 0 0-1.2.3l-2.4.4h-2.3c-.2.1-1 0-1.6 0l-1.3-.2v.5c0 .6.6 1 2.5 1.2.8 0 2 .3 2.7.6 1.9.5 10.5.3 11.7-.2zM111 74.2l2.1-.4c.3 0 .6-.2.7-.5 0-.4.4-.7 1.7-1.3.4-.2.2.6-.2 1.5-.3.7-.4 1-.1 1.2.2.2.4.1.8-.3.4-.6.6-.6 1.5-.5.6.1 1.5 0 2.2-.1l1.2-.3-1-.3-1.7-.3c-1.5-.4-1.5-.3-1-1.3l.6-1c0-.3-3-.3-3.9 0-.6.3-.8.5-.8 1 0 .3-.1.7-.3.7-.3.3-1.1-.8-1-1.4v-.7c-.2 0-.3-.4-.3-.7 0-.5-.3-.8-1-1a6 6 0 0 0-1.7-.5c-.5 0-.5-.1-.4-.8l.1-.7-1.2-.6c-.7-.3-1.8-.6-2.5-.7-1.7-.2-2.6-.6-2.5-1.2 0-.3.4-.4 1.3-.5h1.3l-.7-1.3c-.6-.9-.7-1.3-.5-1.6.3-.4 0-1-1-3-.7-1.3-1.3-2.7-1.3-3 0-1.4-2-2.6-3.4-2l-.8.6-1.5 1.3C94 56 93.7 57 94.2 59l.3 1.6c-.3.4-.6.2-.8-.5l-.1-.7-.3.5c-.2.3-.2.6 0 .8.2.2.3.5.2.6-.2.3.3 1.6 1.7 4.4.6 1 1 2.2 1 2.4 0 .2.7 1 1.6 1.5.8.6 1.6 1.4 1.8 1.7.1.3.7.8 1.3 1l1.5 1c.4.6 2.4 1.1 3.1 1 .4-.1.9 0 1.2.2.6.4 1.8.3 4.4-.3zm22.6.4c1.3-.5-.3-1.6-1.8-1.2l-.5.2.6.6c.7.7.8.7 1.7.4zm-12.3-4c0-.3-.8-1.8-1.2-2.1-.3-.2-.7-.8-1-1.4-.5-1.2-2.4-3-2.5-2.6 0 .2.2.8.6 1.3.6 1 .8 2 .5 2-.1 0-1.2-1-2.4-2.3-1.8-1.8-2.4-2.3-3.8-2.8s-1.8-.9-2-1.4c-.4-1.2 0-1.4 1.8-.9 1.9.6 2.5.4 1-.3-1.6-.7-3.4-1.2-3.6-1l.2 1.2c.2.8.2 1.5 0 2.6-.4 1.7-.1 2.3 1.6 3.2l1.4 1c0 .3.4.8.7 1.2l.6.7 2.3.1c2.7.3 4 .6 4.8 1.3.6.5 1 .6 1 .3zM77.6 66V65c-.2-.2-.7.5-.7 1.1 0 .7.5.5.7-.2zm57-4.5c.1-.8.5-1 1-.6.3.3.4.2.9-.3.6-.8.6-1.2 0-1.5-.7-.2-1.1-.1-1.3.4 0 .2-.6.8-1 1.3-.8.6-1.1.8-1.7.7-.6-.2-.8-.1-.8.2 0 .3.3.4 1.4.4 1.1 0 1.4-.2 1.5-.6zm4.7-4.2a125.6 125.6 0 0 1 .2-10.4l-.4.4c-.2 0-.3-.7-.2-2 .4-3.9.5-9.3.2-9.5-.2-.1-1.8 1-2.4 1.9-.5.6-.3 2.2.3 3.5l.5 1v-.7l.3-2.1c.4-1.8.8-1.2.5.7-.1.7-.1 3.6 0 6.4 0 3.5 0 5-.2 5s-.3-1-.4-2.9a23 23 0 0 0-.2-5.4l-.3 1.5c-.2 1.6-.3 2-2.2 5.3-.7 1.3-1 2-1 3v1.3l1.3 1.4c1.1 1.3 3.3 3 3.9 3v-1.4zm19.4-1.5c.3-1 .1-1.9-.2-.9 0 .3-.2.7-.4 1-.3.6-.3 1 0 1 .2 0 .4-.5.6-1.1zM29.7 52c.2-.3.6-.5 1-.5.3 0 .5.2.5.5 0 .7.4.7.6 0 .1-.4.4-.9.6-1.1l.4-.5-.4-.6c-.7-1-1.6-1-2.4.3-.7 1.2-1.2 2.4-.8 2.4.1 0 .4-.2.6-.5zm130.5-1.4.3-1.4-.7 1.4c-.3 1-.4 1.4-.2 1.4s.5-.6.6-1.4zM44.6 44.6v-4.8l-.4 1.9c-.3 2-.5 9.7-.2 10 .4.3.6-2.2.6-7.1zm95.5-3.3c.2-1.7.2-3.2 0-3.3-.1-.2-.5 3.8-.4 6 0 1.7.1 1 .4-2.7zm23.4 1.7c.3-.7-.4-1.6-1-1.4-.4.2-.7 1.5-.3 1.7.1 0 .2.4 0 .8v.6l.5-.6c.4-.3.7-.8.8-1.1zM33.3 41.8c0-.2-.4-.5-.8-.6-.5-.2-.8-.5-.8-.6 0-.4 2.5-.3 3 .1.3.2.4.2.5-.1.1-.2 0-.5-.2-.6-.2 0-.4-.5-.4-.9 0-.7 0-.8.6-.7h.6l-.1 1.6c0 1.2 0 1.6.3 1.7.6.2 2.6-1 3-1.7.2-.4.8-1 1.4-1.3.7-.4 1.2-1 1.6-1.8.7-1.4 1-1.5 1-.3v.8l.6-.9c.5-.7.6-1.5.7-3.8l.1-3-.8-.8-.8-1.1c0-.1-.6-.6-1.3-1-2-1.4-2.1-1.5-1.9-4 .3-2.6.3-2.6-1.5-4.9-1.3-1.6-1.7-1.8-1.7-1 0 .3-.1.6-.4.8-.3.3-.4.3-.4 0s-.1-.5-.4-.5c-.3 0-.4.2-.2 1 .2 1.4.3 1.6.8 1.6l.4.2c0 .2.6 1 1.3 1.9 1.2 1.5 1.4 1.9.7 1.9a7 7 0 0 1-1.5-1.4c-.7-.8-1.3-1.2-1.3-1 0 .7-.4 1-1.2 1.2l-.7.2.1-.7c.2-.6.1-.7-.3-.7l-1.2.3c-.6.3-.7.5-.6 1l.2.6h-.6c-.6-.2-.8 0-1.3 1-.6 1.1-.9 1.3-1.1.7-.1-.3.1-2 .5-2.9.3-.7-.1-1.7-1.1-2.7-1-1-1.4-1-1.4 0 0 .4-.2.5-.6.3-.7-.1-1.2.9-1.4 3-.2 1.4.3 3.1 1 3.4.6.2.5 2.8-.1 5.2-.7 2.6-.7 3 .5 4.8 1.4 2.2 2.2 2.8 3.4 3 .8 0 1 .1 1.3.8.5 1.2 2.5 2.7 2.5 1.9zm3.8-2c-.7-1.1-.3-2 .6-1.1.2.1.4.2.5.1.3-.3-.2-1-1.3-2.3-1.3-1.5-1.5-1.3-2.9 1.4a7 7 0 0 1-1.3 2c-.3 0-.2-1.5.2-1.7.2 0 .4-.3.4-.5 0-1 1.9-3.3 2.6-3.3.6 0 2.7 2.3 3.1 3.4.2.7.2 1 0 1.6-.5 1.2-1.2 1.4-1.9.4zM30 32.5c-.3-.3 0-2.1.5-2.8.4-.7 1-.8.8-.2 0 .2 0 .5.3.7.2.1.3.5.3.7 0 .3.2.6.4.8.5.5-.4 1.3-1 .9-.2-.3-.4-.3-.5 0-.3.3-.6.3-.8 0zm6.9-1.3-.3-1.5c-.2-1.6 0-1.9 1.1-1.3 2 1.2 2 3 .2 3-.5 0-1 0-1-.2zm1.1-1c0-.2 0-.3-.2-.3s-.3.1-.3.2c0 .2.1.3.3.3.1 0 .2-.1.2-.3zm-9.8-1c0-.4.6-1.2 1-1.2.5 0 .5.3 0 .9-.3.4-1 .6-1 .3zM104 40c0-.8 0-.8-.3-.4-.3.8-.3 1.6 0 1.4.2-.1.3-.6.3-1zm37.5-4.1c0-1.1 0-1.4-.2-1.2-.3.5-.3 3 0 2.9l.2-1.7zm-1 0c0-.6 0-.7-.2-.4-.4.6-.4 1.4 0 1.2l.2-.8zm-4 0c0-.2.2-.4.3-.4l1-.5c.4-.3.9-.5 1.1-.5.4 0 3.2-2.5 3.2-2.9 0 0-1-.2-2.2-.2l-4.8-.1c-1.8 0-2.9 0-3.4.2l-.8.4.8.7.9 1c0 .2.3.5.6.6l1.6 1c1.1.9 1.8 1 1.8.6zm-6.3-11c0-.4-.6-.5-1.2-.1-.6.3-.7.4-.3.4.3 0 .5.2.6.5l.2.4.4-.5.3-.7zM45.6 141.4l-3.4-.6c-1.8-.3-2.4-.7-1.7-1 .3-.1 1.5 0 2.7.2 1.1.3 2.9.6 3.8.6 1.7.2 1.8.3 1.3.9-.4.4-.3.4-2.7-.1zm155 .2-.1-4.9c0-3.9 0-4.8-.4-5.3l-.5-.7.3-6.4c.1-3.5.2-6.8 0-7.3l-.1-1-.2 1.5c-.1.8-.2 1.8-.1 2.2 0 1.7 0 3.8-.3 3.8-.2 0-.3-2-.3-5.3v-5.4l-1-.5c-1-.4-1.6-.5-4-.4-3.7 0-4.3.2-4.3 1.4s.5 2.2 1 2.4c1 .4 2 1 2 1.3 0 .3-1.9.2-2.7-.2-1.2-.6-1.9-1.6-1.9-3v-1.4h-.7c-1 0-1.5.6-1 1.2l.7 1.5c.5 1.5 1.6 2.5 3.3 3.1 2.8 1 6.4 4.7 6.2 6.2-.1.5-.3.3-1-.9-1.7-2.4-4-4-5.3-3.6-.3.1-.8 0-1.2-.3l-1.3-.9a11 11 0 0 1-4.4-3.2 83.3 83.3 0 0 0-7.9-7.6 18621 18621 0 0 0-5-3.4l-.2 1.1c-.1.7-.1 1 .1 1 .3 0 .3.3.1 1.1-.3 1.7-.3 6.4 0 8.8.2 1.6.2 2.4-.2 3.7l-.4 2.4c0 .4-.3 1.4-.7 2.3-.8 2-.8 2.4.1 2.4h.8l.3-1.7.7-2.8c.2-.9.3-2.9.3-6.6 0-4 0-5.5.2-6 .7-1.1.7-1.3.4-1.5-.3-.2-.3-.2 0-.2.4 0 3 2.2 3.8 3.1l2.5 2.6a89 89 0 0 1 16 19.2c1.9 3.1 1 2.8-1.1-.4a95.4 95.4 0 0 0-5.5-7.6c-.2 0 .3 1 1.2 2.4l2.4 3.8c1.3 2.3 1.6 3.3 1.1 3a56.6 56.6 0 0 1-4.4-7.1l-1.3-1.7a10 10 0 0 0-1.3-1.7l-.5-.4.3.5.7 1.1c.3.4.3.6.2.7-.2.1-.5-.2-.7-.7a9 9 0 0 0-1.2-1.6 100.4 100.4 0 0 0-4.3-5.6l-2.4-3H173l.1 1.9-.1 2.2c-.2.3.4.3 2.2.3 1.6 0 2.4 0 2.7.3.3.3-.8.4-3.7.3-.9 0-1.4 0-1.4.2s0 .3.2.4l5.4.2c1 0 1.3 0 1.3.5v.5l-2.6-.1-2.9-.4c-.4-.3-1.7.2-1.7.6l-.4 5v.7l1.7.2c2.1.2 2.7.4 2.7.7 0 .1-.9.2-2 .2-1 0-2.3.2-2.9.4-.9.3-1.2.3-2.5 0l-1.7-.3c-.4.2-1.2-.3-1.2-.6l.6-1c.7-.6 1.1-2.2.8-2.7-.2-.4.7-4 1.1-4.4.6-.5.2-4.5-.3-4.7-.6-.2-.9 0-.9.8 0 .4-.2.7-.8.9a12.9 12.9 0 0 0-2.7 1.2c-.6.4-1.2 1.2-.7 1.2l.8-.5c.6-.4 1.4-.7 3-1.2.8-.2.9.3.2.8-.3.2-.3.3-.1.3.7 0 .3.5-.6.7-.5 0-1 .3-1.2.6l-.4.4 1-.2c.6-.1 1 0 1.2.2.3.4.3.5-.1.6-1.6.5-2.2.8-3.2 1.3-1.4.7-1.7.4-.7-.7.5-.5.9-1 .9-1.3 0-.2.1-.6.3-.7.2-.2 0-.2-.5.1-1.8 1.2-2 1.3-2.2 3-.5 2.3 0 4.8 1.2 6.6l.8 1.6c-.3.3-2-1.9-2.4-3-.3-1-1-1.6-1-1a18 18 0 0 0 6.4 9.4c.7.2 2.4 2 2.4 2.4 0 .5-.9 0-2.3-1.2-2-1.7-2.9-2.2-1.5-.8.5.6.9 1.1.7 1.1-.4 0-2-1.3-3.2-2.6-.7-.8-1-1-1.1-.8 0 .5 1 1.9 2.6 3.7 1 1.2 1.4 1.8.9 1.8a19 19 0 0 1-3.5-3.8c-.7-1-.8-1.4-.7-2.2V133c-.7-.8-1.7-4-1.8-5.4l-.3-4.4-.2-2.8.6-.8c1-1.5 7.3-5 8.8-5h.5v-2.1c0-2.6.5-7.7.8-8.3.2-.5-.2-1-1.4-1.6l-1.6-1c-1.2-1-3.9-2.4-4.6-2.4-.6 0-1.7-.8-1.7-1.3 0-.2-.3-.3-.6-.3-.4 0-1-.3-1.5-.7l-.8-.4c0 .2.2.4.5.6.2.1.3.3.2.4-.3.3-1 0-1.2-.6a3 3 0 0 0-.7-1c-.4-.3-.7-.9-.8-1.3l-.3-1.5c0-.5 0-.8.6-1.4.8-.8.7-.8 8.4-.4h5a21 21 0 0 0-4.2-2.4 26.5 26.5 0 0 1-4.6-2.7c-.2-.4-.2-.7.1-1l.5-.5 1.6 1 1.9 1c.1.2.4.2.6 0 .4-.2 1 0 2.4.8l2 1.1 11.8 6.6c2.9 1.6 4.1 2.4 7 4.3 3.5 2.4 4 2.8 3.8 3-.1.1-.8-.2-1.5-.7l-6.3-4c-1.8-1-1-.3 1.5 1.4a43 43 0 0 1 5 3.7c.5 0 3.5 2.2 3.3 2.4-.1.3-2.2-.8-4.1-2l-1.4-1c-.1 0-.6-.2-1-.6l-1.5-.9-2.4-1.3a80.3 80.3 0 0 0-5.8-3.5l-1.5-.8-1.3-.6c-1.1-.7-1.6-.8-1.9-.4 0 .2-.5.2-1 .1-2.7-.5-11-.4-11 .1l2.2 1.4a247 247 0 0 1 15.5 8.4c.5 0 5.3 2.4 5.3 2.7 0 .4-.9.3-2.2-.4a165.8 165.8 0 0 0-5.6-2.8c-2.1-1.2-5-2.6-5.3-2.6a8 8 0 0 0 1.8 1.3c1.5 1 2 1.4 1.8 1.6-.3.4.7 1.2 4.5 3.4l2.4 1.6 1.4 1 .8-.4c.5-.3 1-.3 1.7-.2 1 .2 6.4-.1 6.4-.4 0 0-.8-.2-1.8-.2-2.8-.1-4.8-.4-4.8-.7 0-.3 9.4-.4 10.9 0 1.4.2 1.2.6-.2.6-1 0-1.2.1-1.2.5s.3.6 1.1.7c.6 0 1.3.3 1.4.5.2.3 1.8 1.2 2 1.2a286.8 286.8 0 0 0 .3-25.6c0-.3 3.2-.6 5-.6 1 0 1.3 0 1.6-.5.4-.8.3-1-1.4-2.5-2.7-2.6-4-5.8-4-10.3v-2.2l-.7-.3c-1-.4-2.2-1.8-2-2.4 0-.2-.4-.9-1.2-1.7a18.5 18.5 0 0 1-4-8l-.8-2.6.2 2.1c0 2.2.5 3.7 1.6 5.1.4.5.5.9.3.9-.4 0-.9-.7-1.8-2.6a6.3 6.3 0 0 1-.8-3.7c0-2.2.3-4 .8-6l.6-2.3c.2-1 1.7-3.6 2-3.4 0 .1 0 .5-.2.8-.2.3-.4 1-.4 1.6a7 7 0 0 1-.6 2.1c-1.6 3.4-.4 10 2.5 14.2 1.3 1.8 4.5 4.7 4.9 4.3l.3-.8c0-.5-.2-.7-1-1.2-1.4-.7-3.8-3.6-5-5.6a6 6 0 0 1-.7-3c0-.7.1-1.3.3-1.3.1 0 .2.4.2 1l.2 1.5c.3.7.6.1.6-1 0-.6.1-1 .3-.9.1.1.3.7.3 1.4 0 1 0 1.2.5 1.3.3.1.5.4.5.8 0 1 4.2 4 5.2 3.7.2 0 .4-.4.5-.8.1-.4.3-.7.4-.7.4 0 .3.2-.2 1.1-.2.6-.3 1-.1 1.1.4.4 1 0 1-.6l1.5-5.7c.6-1.7 2-4.6 3.2-6.4 1.3-1.9 1.2-1.8 1.4-1.6 0 .1-.3.9-.8 1.7a38 38 0 0 0-3.7 8.4c-1.3 4.2-1.4 4.6-.7 5 .4.1 1.3.4 2 .4.9.1 1.6.3 1.6.5.2.5-.5.4-2.4 0-1.6-.5-2.2-.3-1.9.4.3.8 5.8 2 7.8 1.6.8-.1 1.2.3.4.6-.6.2-2.4.2-3.8-.1-.8-.2-1.3-.1-1.4 0-.1.3-.5.3-1.4 0-2-.5-2.1-.5-2.2.1-.1 1 1.3 1.7 4.2 2.2 1.4.2 2.6.5 2.6.7 0 .3-2.6 0-5.3-.5a7.7 7.7 0 0 0-2.2-.3l-.3 1.5a8.2 8.2 0 0 0 4.4 7.8c.8.3 1-.1.3-.6-1.4-1-2.2-1.9-2.2-2.7 0-1 .2-1 .7.1.2.5.9 1.3 1.5 1.7 2 1.5 3.2 1.7 9.2 1.7 4.5 0 5.4.1 5.4.5 0 .2-.2.4-.5.4-.7.1-1 .5-1.3 1.4-.1.5 0 .6.3.5 1.4-.1 1.7 0 1.7 1v.9H220.5l.6.3c.9.3.7.8-.3.6-1-.2-1.2-.4-.8-.6.3-.2.1-.3-.4-.4-.5-.1-.9-.3-.9-.6 0-.2-.2-.4-.6-.4-.9 0-.9.1.2.8.6.3 1 .7 1 1 0 .5-.5.4-1.4-.2-1-.8-4.3-2-7-2.7l-2.6-.6c-.3 0-.3.1 0 .6.1.6 0 1-.4 2l-.5 1.1.4.6c.5.9 3 3.2 4 4 3.5 2.2 7 5 7.7 5.8.9 1 .3 1.3-.7.2a31 31 0 0 0-5.5-3.8c-.2 0-.5.1-.6.4-.3.3-.2.3.7.3 1.1 0 1.4.2 1.2.7 0 .3-.4.3-1 .2l-1 .1c0 .2.6.4 1.4.5.7.1 1.3.3 1.4.6.2.4-.5.7-1 .4-.1 0-.2 0-.1.2 0 .2.4.5.8.7.4.2.7.5.7.7 0 .2 1.3 1.5 2.8 3a17 17 0 0 1 2.8 2.9l-.1.4c-.2 0-2.3-2-4.3-3.8l-2.3-2c-.5-.4-1-.7-1-.9 0-.3-1.8-1.6-2-1.5l2.4 2.8c1.4 1.4 2.5 2.7 2.5 2.8 0 .4-.5.1-1.5-1a71.5 71.5 0 0 0-12.7-10.7c-.4 0-.4 2.2 0 2.5.4.5.8 5.2.8 11.6 0 3.6-.1 6.6-.2 6.8l-.1 6.6c0 3.8-.2 6.3-.3 6.3-.4 0-.4-2.4-.2-14.4a42 42 0 0 0 0-7.4c-.2 0-.3.5-.3 1.6 0 2.9-.6 8-1 8.3-.2.3-.3 2.2-.2 8l.1 7.7-.4.5-.5.5.5.5c.4.4.5 1.1.6 3.5.2 5.2.3 8.3.5 9 .1.4 0 .5-.3.5s-.6 0-.7-.2zm-37.2-7c-.4-.5-.8-.6-.8-.3s.6.9.9.9l-.1-.5zm-2.2-13.6.7-1.6c.2-.2.2-.4.1-.5-.3-.3-.7.2-1.4 1.6a7.4 7.4 0 0 0-.6 3.5c0 2.8.4 3 .6.4 0-1.1.4-2.6.6-3.4zm8 1.5c0-.3 0-.5-.2-.4-.1 0-.3.4-.3.7 0 .3.2.4.3.3l.3-.6zm-4.4-5.2c.7-.4 1-.6.5-.5-.8.2-2.4 1-2.4 1 0 .4.9.1 1.9-.5zm4.9-1.5-.1.3c0 .4 0 .6.1.4v-.7zm30.2-1.4-.1.4v.5-1zm-24.3-.3c0-.3-.9-.6-1.6-.6-.3 0-.5.1-.5.2 0 .2.2.3.5.4.8.2 1.6.2 1.6 0zm8.5-.7c-.2-.2-.3-.2-.3 0 0 .3.3.7.5.5 0 0 0-.3-.2-.5zm1.3 0c0-.2-.1-.5-.3-.6-.1 0-.2.1-.2.4 0 .3 0 .6.2.6s.3-.2.3-.4zm-2.5-.5c-.2-.7-.9-1.2-1.4-1.3-.2 0-.4.1-.3.2l.8.9c.8 1 1.1 1 .9.2zm18.4-2.7c0-.4-.1-.7-.3-.8-.1-.1-.3.2-.3.8 0 .6.2.9.3.8.2-.1.3-.5.3-.8zm0-2c.3-1.2 0-19.6-.2-19.9a158.6 158.6 0 0 0 0 20.4l.3-.6zm-27.8-4.3c0-.3-3.8-2.6-4-2.5-.3 0 .9 1 3 2.2.6.3 1 .4 1 .3zm-5.3-3.3a122.3 122.3 0 0 0-11.2-6.7l-.2.4a54.3 54.3 0 0 0 11.4 6.3zm34.3-.9c0-1-.4-1.8-.4-1 0 .6.3 2 .4 2v-1zm-20.4-2.9-.7-.5-.6-.3.6.5c.7.6 1 .7.7.3zm28.8-1.8c-.2-.3-.5-.5-.6-.4-.2.1.5.9.8.9.2 0 .1-.2-.2-.5zm-32.6-.4c0-.2-1.5-1-1.8-1-.1 0 .1.3.6.6.7.5 1.2.6 1.2.4zM160.5 93c0-.1-.5-.2-1.2-.2H158l.7.5c.5.4.7.4 1.2.2.4-.2.6-.4.6-.5zm6.2 0L164 93c-1.8 0-3.2 0-3.2.2s5.3.2 6 0zm-9.3-.8-.4-.2c-.3 0-.4 0-.4.2s.1.3.4.3c.2 0 .4-.1.4-.3zM212 92c-.3-.3-.7-.3-1.7-.2l-1.3.2 1 .2 1.8.2h.6zm-4.9-.1-.4-.3c-.1 0-.2.2-.1.3l.4.3c.2 0 .2-.2.1-.3zm-1.3-.9c-1-1.2-4.5-4.1-5-4.1-.3 0-.2.8.3 1 .4.1 3.3 2.4 3.8 3l1.3.7-.4-.6zm-34.9-.6c-.3-.2-.6-.4-.8-.3l.2.4.8.3c.2 0 0-.2-.2-.4zm38-1c-1-1-2.4-1.6-2.7-1.3-.3.3-.3.4.2.4.2 0 .8.3 1.3.7.4.4 1 .8 1.3.8h.5zm7.6-5.9c0-.3-.4-.5-1.1-.5h-1c0 .2 1.5 1 1.8 1 .2 0 .3-.2.3-.5zM205 79.7a8 8 0 0 1-3-6.2l.2-2.3c.1-.4 0-.6-.3-.7-1-.4-1.1 1.3-.5 4.7a11.5 11.5 0 0 0 3 6.2l1.4 1.5.3-1 .2-1zm9 2.8c-.1-.2.1-.3.6-.3.6 0 .8 0 .5-.2-.3-.4-4.5-.6-4.7-.3 0 .2.4.4 1 .6l1.4.4c.6.2 1.2 0 1.1-.2zm-10.7-13.9c.1-.5 0-.8-.3-1-.7-.6-1.2-.5-1.4.3 0 .5 0 .8.4 1 .7.6 1.1.5 1.3-.3zm-2.8.3c0-.2-1.9-1.2-2-1l.7.6c.9.5 1.3.7 1.3.4zm3.1-2.8c0-.4-.3-.7-.5-.7-.6-.1-1 .7-.5 1 .7.4 1.1.3 1-.3zm-1.7-.7c.2-.4-.1-.7-1.9-1.7-1.9-1.1-1.9-1.1-1.9-.7 0 .2.6.9 1.4 1.5 1.3 1 2.1 1.3 2.4.9zM98.6 141l.2-.4c2.5-.2 3.5-.2 3.5 0 0 .5-1 .8-2.3.8-1 0-1.4 0-1.4-.4zm106.2-1 .5-5.6c.3-6 .8-11.3 1-11.6.3-.3.2 2.7-.2 10.6l-.4 6c0 1-.3 2-.7 2-.3 0-.3-.4-.2-1.4zm-175 .4c-.4-.5 0-.9.8-.7.4 0 1.5 0 2.5-.3 1.3-.3 1.9-.3 2-.1.5.4-.1 1-.9 1l-2.4.2c-1.3.2-2 .1-2 0zm179-8a102 102 0 0 0-.6-14.5l-.5-7.7c-.1-1.7 0-2.1.3-2.1s.4.6.5 2.4c.1 1.4.3 2.6.4 2.7.2.2.3.6.4.9 0 .3.2.2.4-.7.2-.6.5-1.4.7-1.6.2-.4.2-.6 0-.8a4 4 0 0 1-1.2-2l.6-.6c.6-.4.4-.6 4.1 3.2a14 14 0 0 1 2.9 3.5c0 .4.4.9.7 1 .5.4.4 1-.2 1-.3 0-1-.5-1.6-1.2-1-1-1.2-1.3-1-1.8 0-.5 0-.7-.3-.7-.2 0-.5.1-.6.3-.1.2-1.3.2-2.5-.2-.3 0-.6.4-1.1 2l-.7 2.3v6.6c0 9-.3 15.8-.6 16.1a44 44 0 0 1-.2-8.1zm4.1-20c.2-.4.1-.6-.5-1-.5-.4-.8-.8-.8-1 0-.6-1.2-1.2-1.6-.8-.3.3-.2.4.4.6.5.2.7.4.5.8 0 .4 0 .6.3.7.2 0 .4.4.5.7.2.6.9.6 1.2 0zM25.4 140.3c-.8-.1-1.8-1-1.5-1.5h.6c.3.2 1 .4 1.7.4 1 0 1.1.2 1.1.6 0 .6-.4.7-1.9.5zm74.3-.3c0-.1.1-.4.4-.7.4-.6.9-.3.5.3-.3.5-1 .8-1 .4zm-83-.5c0-.2.2-.3.6-.4.4 0 .6 0 .5.2 0 .3-.8.5-1 .2zm60.8 0c0-.3 1-.7 3.4-1.1l2.7-.7c1.7-.5 1.8-.5 1.8.1 0 .4-.2.6-.6.7l-2.5.5c-2.7.6-4.8.8-4.8.5zm17.7-.5c0-.4 1.2-1 2.7-1.3 1.5-.3 1.1.3-.7 1-2 .8-2 .8-2 .3zM76.9 138c-1.1-.4-1-.9.3-.8.9 0 1.2.2 1.3.5 0 .5-.4.6-1.6.3zm-53.2-.3c-1 0-1.3-.2-1.3-.5s.3-.3 2-.2c1.2.1 1.7 0 1.3-.1l-1.2-.3c-.5 0-.7-.1-.6-.2.3-.6 7 0 7 .7 0 .4 0 .4-2.1 0l-1.7-.2-.4.5c-.2.3-.6.5-1 .5l-2-.2zm-15.8-.3c0-.1 0-.3.2-.3s.3.2.3.3c0 .2-.1.3-.3.3a.3.3 0 0 1-.2-.3zm28.7-.5c-.3-.5 0-.6 1.7-.7 1 0 1.7-.2 2-.5.6-.6 1-.2.6.7l-.4.7h-1.9c-1 0-2 0-2-.2zm31-.2c-.4 0-.8-.2-1-.3h-.4l.4-.3c.2-.2 1.6-.3 3-.3l3.8-.2c.7-.2 1.2-.1 1.3 0 .4.6-.5.9-3.1 1a26.6 26.6 0 0 0-4 .1zm-55.2-.3c-.3 0-.6-.3-.6-.5 0-.3.3-.4 1.3-.3l3 .2h1.7l-1 .4c-.8.4-3.1.5-4.4.2zm68.5-.2c0-.5 1-1 2.3-1 1 0 1.3.8.3 1-2.1.4-2.6.4-2.6 0zm131.5 0a77 77 0 0 1 .9-14.4l-.1 4.9a202.2 202.2 0 0 0-.5 10c-.2 0-.3-.3-.3-.6zm-193.2-.2c0-.2.4-.5.7-.6.4 0 1.2-.4 1.9-.7.9-.4 1.4-.5 2.3-.3 2.9.5 3 1.3.2 1a6 6 0 0 0-3.3.4c-1.8.7-1.8.6-1.8.2zm191.3-4.6a163.3 163.3 0 0 1 1.1-16c.4 0 .4 1.6 0 5-.1 2-.4 6.4-.4 9.8-.2 4.5-.3 6.1-.5 6.1-.3 0-.3-1.2-.2-5zm-165.6 4.4c0-.3.7-.5 1.6-.5 1 0 1 .4 0 .6-1.2.2-1.6.2-1.6 0zm171.3 0c-.3-.5-.7-9.5-.5-11 .3-2.2.7-.9.7 2.9 0 2 0 4.7.2 5.9.2 2 0 3-.4 2.2zm-166.1-.5c-.6-.5.8-1 2.9-1.1 1.9 0 2.5.3 2 1-.3.3-.8.4-2.6.3-1.2 0-2.3-.1-2.3-.2zm-11-.3.3-.3c.3 0 .3.4 0 .5-.2.1-.3 0-.3-.2zm-3.2-.5c-.3-.2-.3-.3 0-.4.7-.2 1.7 0 1.8.3.1.4-1.2.5-1.8.1zm-9.2-.3c0-.4 1.3-1 3.2-1.3.9-.1 2.6-.6 4-1 2.3-.9 3-1 2.3-.2-.4.4-1.6.7-6.1 1.9l-3 .8c-.3 0-.4 0-.4-.2zm58.9.1c-1.2-.1-1.2-.6 0-1s.6-.7-1.5-.7c-1.6 0-2.1-.2-1.6-.7.5-.4 4-.4 4.7 0 .5.2.5.3.3.7a2 2 0 0 0-.1 1.2c.2.7.3.7-1.8.5zm93.5-1.4c0-.2.9-.5 1.9-.5.8 0 1 .4.3.6-.7.3-2.2.2-2.2 0zm-118.4-.2c-.6 0-1.2-.2-1.4-.3a.8.8 0 0 0-.7-.2c-.5.2-2.8-.8-2.8-1.2 0-.2.3-.2 1 0l2 .1c.4 0 1 .2 1.2.5.3.3.8.4 2.8.2 2.7-.1 3.4.3 1.3.8-1.2.3-1.4.3-3.4.1zm132.8-2.7a885.3 885.3 0 0 1-5.7-8.4c.7.1 4 4.2 5.5 6.8l1.4 2.3c1.5 2.6.6 2-1.2-.7zM46 131c0-.2.9-.6 2.3-1.1l2.3-.8 1 .4 2.2.5c.7 0 1 .3 1.1.6l.1.5-1.3-.1c-3.3-.5-4.7-.5-6.2 0l-1.6.5zm132.3.2c.2-.4 4-.5 4-.2 0 .2-1 .3-2 .4-1.3 0-2 0-2-.2zm-95.5 0c-2.4-.2-3.2-.4-2.8-1 .1-.2 6.6-.1 6.9.1.3.4-.3 1-1 1l-3.1-.2zm-41.2-.8c-1.3-.6-4.2-1-8.5-1.2-3.7-.2-5.1-.5-5.1-1.2 0-.5 0-.5 1.2 0 .7.4 2 .5 4 .6 3.3 0 8.3.7 9.3 1.2.6.3.8 1 .2 1l-1.1-.4zm-24.7-.4c0-.3.5-.4 1.3-.3l4-.6c1.5-.4 2.8-.6 2.8-.5.3.2-.6.8-1.7 1-.5.2-2.2.4-3.8.5-2.2.2-2.7.2-2.6-.1zm56.7-.3c-.2-.1-1.1-.3-2-.3-2 0-2.4-.2-1.5-.7.7-.4 3.5-.1 4 .4.3.5-.1 1-.5.6zm2.7-.2c-.5-.8 1.5-1.2 5-.9 2.4.2 3.5.1 2.8-.3l-4.6-.3c-4.6-.2-6-.4-6-.8 0-.3 8-.3 11 0l1.7.2.5-.5c.5-.5.9-.6 2.2-.6 1.2 0 1.5 0 1.3-.3-.6-.3-5.8-.2-6.1.2-.2.2-2.2.2-6.4.1a403.7 403.7 0 0 0-8.2-.3c0-.1.4-.3 1-.3h1l2-.3c1-.1 1.5-.3 1.4-.5-.1-.2-1-.2-2.4 0-2.3.2-7.2.1-7.5-.1 0 0 0-.2.3-.4.4-.2 14.6-.1 17.8.2 1.2.1 1.6 0 1.9-.3.4-.5 2.9-.8 3.4-.4.2.2.3.5.3.7-.2.3 0 .4 1 .4 1.2 0 1.8.3 1.2.7-.2 0-.2.2.2.5.3.2.4.5.3.8-.2.4-.5.4-2.1.2l-2-.1-.3.6c-.3.6-.6.7-1.5.7-.8 0-1 0-.6.3l1 .2c.5 0 .8.2.8.4 0 .3-1 .3-5.1.4-2.9 0-5.3-.1-5.3-.2zm2.2-4.5a7 7 0 0 0-1.6 0c-.5.1-.2.2.7.2.9 0 1.2 0 .9-.2zm8.9-.3-.6-.3c-.2 0-.4.2-.5.3 0 .2.2.3.5.3.4 0 .7-.1.6-.3zM67 129c0-.2-.4-.7-1-1.1l-1.1-.9-2.8.6c-5.1 1-5.6.5-.5-.8l3-.8 1.8 1.1c1.8 1.2 1.9 1.3 1.4 1.8-.4.4-.8.4-.8 0zm31.3-.6c0-.3.6-.4 3-.5 2 0 3 0 3 .2 0 .4-.7.5-3.6.7h-2.5zm-71.7-.3c0-.1 0-.2.2-.2s.3.1.3.2c0 .2-.1.3-.3.3a.3.3 0 0 1-.2-.3zm151.2 0c-.2-.2 5.4-.6 5.6-.3l-.2.4c-.5.3-5.2.3-5.4 0zm-134-.2c-.6-.4.2-.8 2-.9 1.3 0 1.5 0 1.6.4 0 .4-.1.5-1 .5l-1.7.1h-.9zm-41.6-.5c-1.6-.3-1.2-1.1.7-1.1.5 0 1.2-.2 1.5-.4l.5-.5.4.5c.3.2 1 .4 1.4.4.6 0 .8.1.7.3 0 .2-.8.4-1.9.5-1 0-2 .2-2.2.3h-1zm5.7 0v-.6c.2-.3 1.2.2 1.2.6 0 .3-1 .3-1.2 0zm172-.5c-.5 0-1.1-.4-1.4-.7l-.5-.5.7.2 1.5.3c.5.1 1 .3 1 .5 0 .3-.3.3-1.4.2zM23 126.5c-.4-.4.3-.6 2-.6h1.8l.2-.8c.1-.6.4-.9 1.2-1.2 1.2-.5 1.3-.5 1.5-.1 0 .1-.4.4-.9.5-.7.3-1 .5-1 1 0 .3.2.6.4.6s.2.1 0 .3c-.2.2-5 .6-5.2.3zm-13.5-.8c-.2-1-.1-1.1 1.6-1.8.7-.2 1.5-.6 1.8-.8.7-.5 1.1-.4 2.5.2.7.4 2 .7 2.8.8.9 0 1.6.2 1.6.4 0 .5-2.6.4-4.4-.2l-1.8-.6-1.6.7c-.9.3-1.6.7-1.6.9v.6c-.2.7-.7.6-1-.2zm28.8.3c.6-.3 1.7-.7 2.4-.8.7-.2 1.5-.5 1.9-.8.7-.4 1.5-.3 1.4.2-.1.2-1.4.7-3 1.1-3 .9-4.3 1-2.7.3zm-16.3-.5c-.4-.4-.2-.6.5-.6.6 0 .6 0 .3.4s-.6.5-.8.2zm8.3-2.5c0-.3.4-.4 1.7-.4 2.5 0 2.6.5.2.6-1.5 0-2 0-2-.2zm70.3-.4c0-.7.7-1.6 1-1.4.2.3-.3 1.6-.6 1.8-.2 0-.4-.2-.4-.4zm121-.7c0-.2-.5-1-1.1-1.9-1.5-2-1-2.6.5-.8 1 1.3 1.4 2.5.8 2.9-.1 0-.2 0-.2-.2zM.2 121.2c.2-.6 2.5-.7 2.5 0 0 .3-.3.4-1.3.4l-1.2.1zm19.3.2c0-.6 2.5-1.5 2.8-1l-.1.2a6 6 0 0 0-1.4.6c-1.3.6-1.3.6-1.3.2zm176.5 0s-.4-.8-1-1.4c-1-1.3-1-1.8 0-1.1s2 2.8 1.3 2.8c-.2 0-.3-.1-.3-.2zm-145.6-.2h.5c.1.2 0 .2-.3.2s-.4 0-.2-.2zm-2.4-1.6c-.4-.2-.7-.6-.7-.7 0-.5.1-.5 1 .3.8.9.7 1-.3.4zm53.1-.3.1-.4.4.1c.1.2 0 .3 0 .4h-.5zm75.7-.2c-.8-.1-1.6-.3-1.6-.5-.2-.6 2.5-.6 3.3 0 .3.3.4.7 0 .7l-1.7-.2zm-121.5-.4c0-.1-.8-.2-1.6-.1-.8 0-1.5-.1-1.6-.3-.1-.1-1-.3-2.1-.4-2.1-.2-2.7-.4-2.2-.7a101.3 101.3 0 0 0 17 .8c1.5-.3.5-.4-5.9-.5-2.8 0-3.6-.2-2.9-.3a159.7 159.7 0 0 1 21.6.8c.2.2.7.2 1.1.1.5 0 .9 0 1.1.3l.3.4c-.8.2-24.7.1-24.8 0zM0 118.2c0-.3 0-.7.2-1 .1-.2.2-.3.3-.1 0 .2.2.4.5.4.3.1.5.3.5.5-.2.5-1.3.6-1.5.2zm36.5.1c-.9-.3 0-.5 2.1-.7 1.4 0 3.1-.3 3.9-.4 1-.2 1.5-.2 1.8 0 .5.5.2.6-1 .7a225 225 0 0 0-6.8.4zm-6.8-.3-3.2-.9c-1.8-.5-2.4-.7-2.5-1 0-.5 0-.5.4-.4.3.2 1.2.4 2 .6a80.8 80.8 0 0 1 4.2 1c.3.2.6.4.6.6 0 .4-.4.4-1.5 0zm-9.4-.6c.5-.5 3-.9 3-.5 0 .3-1.7.8-2.7.8-.6 0-.6 0-.3-.3zm-9.8-.2c-.3-.2-.5-.3-.4-.4.2-.3 5.7.2 5.7.4 0 .3-4.5.3-5.3 0zm193.9-.2c-.1-.1 0-1.4.1-2.8.2-1.6.2-6.3.1-11.5V94c.3 0 .6 3 .7 5.3 0 .6 0 1.4.2 1.6.3.3.3.3.2-.2-.2-.8.3-3.5.6-3.5a95.4 95.4 0 0 1-1.3 18c-.1 1.7-.4 2.4-.6 2zm-139.2-1.3-6.7-.2c-7.8-.2-10.7-.4-10.7-.8a979.2 979.2 0 0 0 14.4.3c5.2.1 6 .2 5.7.4-.1.2-2.6.4-2.7.3zm-35.8-1-2.4-.9c-1.2-.4-2-.7-2-1 0-.2-.2-.4-.5-.4s-.6-.2-.7-.4c0-.3 3.1-.6 3.8-.4.8.2.3.6-.8.6-1.8 0-1.7.4.3 1 2.4.8 3.8 1.4 3.8 1.7 0 .3-.9.2-1.5-.2zm2.4 0c-.2-.2-.4-.2 3-.4a42 42 0 0 0 3.9-.4c.5-.2.7-.1.6.1 0 .2-.6.5-1.2.6-1.3.3-6.2.4-6.3.1zm-19.2-.4c-2-.4-4.3-1-4.6-1.3-.4-.5 0-.6 1.4-.3l3.4.8c2.9.6 2.8 1.3-.2.8zm4.5-.5c-.3 0-.5-.3-.5-.5 0-.3.2-.3.7-.2a85.8 85.8 0 0 0 2.7.7c0 .2-2 .3-3 0zm-15.6-.4c0-.6.5-.8 2-1.1 1.4-.3 2.1-.1 1.5.3l-3.4 1.2v-.4zm39.2-.9a27 27 0 0 1-1.8-.7c-.3-.1-1.2 0-2.6.2-1.2.2-2.2.3-2.3.2-.1-.1.2-.3.8-.4l2.3-.6c1.1-.3 1.5-.3 2.1 0l2.4.7c.8.2 1.6.6 1.7.7.1.5-1.1.4-2.6-.1zm-10.3-.3c-.6-.4 0-.6 1.1-.4.6 0 1 .3 1 .4 0 .3-1.6.3-2.1 0zm23.2-2.7a116.8 116.8 0 0 1-16.2-1l-.2-.3c0-.2.7-.3 2.4-.2h1.7c-1.7-.3 0-.5 5.2-.4 6.4.1 8-.3 2.5-.6a166.2 166.2 0 0 1-16.3-1.8 188.6 188.6 0 0 0 10.7.7l7 .8c2.3.2 3.5.4 3.7.6.3.3.9.4 2.4.3 4.7-.4 11.4-.5 11.4-.3 0 .4-9.3.8-18.3.7-4 0-7.3 0-7.2.1.3.4 11.3.9 20.3 1 2.5 0 4.5 0 4.6.2 0 .1-.1.2-.4.2l-1.3.1h-12zm0-2-.2-.2H53c0 .2.1.4.3.4l.2-.1zm85.2-1.7c0-.4.9-.5 3.4-.5 2 0 2.5 0 2.5.4 0 .2-.7.3-3 .3-1.6 0-2.9 0-2.9-.2zm-.8-1.3c0-.3 1.6-.5 3.7-.5 1.9 0 2.2.4.5.6-2 .2-4.2.2-4.2 0zm40.7-2c-1-2-1.8-4.6-1.7-5.2 0-.4.3-.6.5-.7.4 0 .5.2.7 1 0 .5.5 2 .9 3.1.8 2.3 1 3.3.5 3.3l-.9-1.4zm-151.4 0-4.9-.5c-1.6 0-3.2-.2-3.5-.3-.6-.2-.4-.8.2-.7 3.2.4 9.6.6 18.5.6 6.1 0 10.7.1 10.7.2 0 .2-.2.3-.5.4h2.8l12.1-.2c7.5 0 9.4 0 8.9.5a1345.5 1345.5 0 0 1-44.3 0zm19.4-.3c-.2-.3-5.3-.4-6-.1-.5.2.2.3 2.7.3 1.9 0 3.3-.1 3.3-.2zm26.2-.1c-.6-.4.4-.5 3.4-.5 2 .1 2.9.2 3 .5 0 .3-.5.3-3 .2l-3.4-.2zm108-.3c-.6-.9-.6-2.9.1-2.4.4.3 1 1.6 1 2.2 0 .6-.6.7-1 .2zm-5.5-1.8c-.7-1-1-2.5-.6-2.8.4-.2.9.2 1 1 0 .4.2 1 .4 1.5.4.7.4 1 0 1-.2 0-.5-.3-.8-.7zM68 99c-1.4-.8-1.5-1-1-1 .3-.1.8 0 1 .3l.7.4c.5 0 2 .8 2 1 0 .6-1.2.2-2.7-.7zm125.3-2.6c0-.3 0-.4.1-.2v.6s-.2-.1-.1-.4zM31 95.5v-.3l6-.4 3.7-.2v-.4c0-.7-1.8-2-4-3-2.9-1.2-4.5-2.2-4.5-2.5 0-.4.1-.3 1.3.4l2.9 1.4c3 1.2 4.6 2.5 4.8 3.6 0 1-.2 1.1-4.9 1.3l-4.3.2h-1zm14 0-1-.4c-1.2-.3 0-.4 3.3-.2 2 .2 4.1.3 4.8.2l11.8-.2h4.6l-.3.5c-.3.3-1.7.3-9 .3a229.3 229.3 0 0 1-14.3-.2zm146.5-.5c0-.4 2.4-3 2.7-3 .5 0 .1.8-1 2-1 1.2-1.7 1.6-1.7 1zm3.2-.3c0-.6 2.1-1 2.5-.5.2.4.2.4-1.3.6h-1.2zm-7.2-.3c0-.4 1.2-2.1 1.8-2.7.7-.6.8-1.2.2-1.2-.6 0-2-.8-2-1 0-.5 2-.4 2.4 0 .5.6 1.3.2 2.5-1.2 1.1-1.3 1.9-1.7 1.7-.8-.1.4 0 .5.2.4.2 0 .4-.3.4-.4l.1-1c.2-.4 0-.5-.3-.5h-.5l.4-.4c.5-.5 1.7-.3 1.3.3-.2.2-.2.3 0 .5.2 0 .3.3.3.6 0 .2.6 1 1.3 1.6.7.6 1.3 1.3 1.3 1.5 0 .5-.2.5-1.4-.6l-1.3-.9c-.4 0-2.1 1.7-3.5 3.3-.7.9-1 1.2-1.2.9-.2-.3-.3-.2-.6.3-.5.7-1 .7-1 0 0-.3-.2-.1-.9.6-.9 1-1.2 1.2-1.2.7zm-4-.1c-.4-.4-.2-1.4.5-2.4 1-1.4 2.2-2.8 2.5-2.6.4.3.2.8-1 2-.6.8-1.2 1.7-1.3 2.2-.1 1-.4 1.1-.7.8zm-1.7-2c0-.3.1-1 .6-2 .6-1.2 1-1.6 1.8-2 .6-.3 1.2-.7 1.3-1 .4-.7 4.8 0 5.1 1 .3.6 0 .6-1.7 0l-1.6-.6-1 .7a9 9 0 0 0-1.8 1.8c-1 1.3-2.1 2.7-2.3 2.7l-.4-.6zm-7.2-3c-.5-.3-.8-.7-.8-1 .1-.5 1.6-.8 3-.6 1.6.2 1.5.8 0 .7-1 0-1.2 0-1.2.3 0 .2.1.5.3.6.4.2.3.6 0 .6s-.8-.2-1.3-.6zM24 88.4l-7.8-.3c-4.7 0-7.6-.2-7.6-.4a123.5 123.5 0 0 1 21.2.7c-.2.3-5.5.3-5.8 0zm50-2.2L70.7 85c-2.4-.7-4.7-1.6-5.3-2.1l-.6-.6.5.2a57 57 0 0 1 5.4 1.7 24 24 0 0 1 5.3 2.7c0 .5-.4.3-2.3-.6zm95.4.4c-.3 0-.6-.3-.6-.5s0-.4-.2-.4c-2.2 0-4.7-.3-4.7-.5-.1-.2-.4-.3-.6-.3l-.7-.2c0-.2-.5-.3-1-.3s-.7-.1-.6-.3a113 113 0 0 1 18.9.2c2 0 4.2.2 5 .3 1.5.1 2 .6.6.6-.5 0-.8 0-.7.2.1.2.5.3 1 .2l.8.2a204.5 204.5 0 0 1-17.1.7zM8 83c0-.2 0-.4.2-.4 1.3-.4 22.4-.9 23.7-.5 1.5.4.2.5-4.2.4a130.3 130.3 0 0 0-17 .6c-1.7.1-2.6 0-2.7-.1zm163.6-1.3v-2.6c.2-1.3.2-6.8.1-12.2-.1-9.5 0-11.2.5-11.2.3 0 .3 20.9 0 24.2 0 1.8-.3 2.4-.6 1.8zm-2.1-2.9v-2.4c.3-2.6.3-5.4.1-4.9-.4 1-.5-.3-.5-7 0-4.1 0-7.5.2-7.5l.3 1.4c0 .8 0 2.5.2 4l.1 2.4.3-3.3V52.7l.6-.3c.5-.2.8-.2 1.2 0 .5.3 1.7.4 6 .3 6.6-.2 7.8-.2 8 .4.4.9-.3 1-6.7 1a24 24 0 0 1-6.6-.3c-.2-.2-.6-.4-1-.4h-.5l-.2 4a820.6 820.6 0 0 1-.8 18.5c-.2 2.8-.4 3.7-.7 3zm-146.2-4 .8-.4-.8-.1c-.7 0-1.5-.2-1.7-.3l-.2-.3a153 153 0 0 1 12.9-.5c0 .2-.5.4-1 .4-1.6.3-.8.4 1.4.3 1.7-.1 2.4-.3 2.6-.5.2-.4.4-.4 1-.2 1 .3 1.5.7 1.3 1-.2 0-1.2.2-8 .4a292.7 292.7 0 0 0-8.3.2zm3.2-.7a1 1 0 0 0-.7 0h.7zm1.2 0c0-.3-.5-.4-.6-.1-.1.1 0 .2.2.2h.4zm4.2-.4c-.3-.2-.7-.2-1 0l-.7.2h1c.9 0 1 0 .7-.2zm19.4-.5c0-.5 4-2.1 4.4-1.8.3.3-.6 1-1.5 1.1l-1.7.6c-.8.4-1.2.4-1.2 0zm-1.1-.8V68l.1-17.9a297.8 297.8 0 0 1 1-21.2c0-1.3.3-2.3.3-2.4.5-.4.5.5.2 3.7-.3 3.4-.3 21.7.2 32.7l-.1 4c-.2 0-.4-4.3-.5-10.6 0-6.8-.2-10.7-.4-11-.2-.1-.3 3.2-.2 11 0 14.5 0 16.7-.3 16.7-.2 0-.3-.2-.3-.5zm1-28.3c0-.5 0-.8-.2-.8 0 0-.1.3 0 .8l.2.8v-.8zM16.9 72.4c-.6-.3.6-.5 5.8-.6 3.9-.1 5.4-.1 5.4.1s-.7.3-2 .3a210.4 210.4 0 0 0-9.2.2zm16-1.6L28 69a466.5 466.5 0 0 1-15-6c-3.6-1.4-3.8-1.5-3.5-1.8.2-.2.8 0 1.7.4l3 1 3.5 1.4a266 266 0 0 1 8 3.5 49.4 49.4 0 0 1 4.6 1.8l4 1.7c.3.2.6.8.3.8l-2-.9zm-20.4.1c0-.3-.3-.3 5-.4 2.7 0 4.5 0 4.3.1-.3.4-9.3.6-9.3.3zm51.6-.8.6-.5c.4-.1.7-.4.7-.5 0-.3 3.4-1.4 3.7-1.2.5.2.3.9-.3 1.1a45 45 0 0 1-4.5 1.4.2.2 0 0 1-.2-.3zm-52.4-.8c.2-.5 9.5-.8 9.5-.3 0 .2-1 .3-2.7.3-1.5 0-3.7 0-4.8.2-1.7.1-2 0-2-.2zm48.2-3.6v-4.3a47.3 47.3 0 0 1-.3-12.1c-.2-.1-.3-1-.3-3.1 0-4.7.4-7.5 1-8l.4-.5-.2 4.4c-.1 2.4-.2 6.8-.1 9.9 0 10.2 0 16.9-.4 17.2-.2.2-.2-.9 0-3.5zM60 42c0-.3-.1-.1-.1.5 0 .5 0 .8.1.6V42zm.3-2-.2.2c-.2.2-.3.6-.3.8 0 .4.5-.4.5-1zM57 66.4c.5-5 .5-7 .2-15.1-.5-10.7-.5-24.7-.2-28.5a56 56 0 0 1 1.6-8.4c.3-.4.4.5 0 2.4a64 64 0 0 0-1.1 17l.4-4.3c.1-2.2.4-4.5.6-5.1L59 23l-.1 1.1a231 231 0 0 0-.7 31.4v11.6l-.4.5c-.8 1-1 .6-.7-1.4zm-32-.2c-4.4-2.2-8.9-4.2-13.4-5.9l-1.3-.8-.4-.4h.4l1.7.6a156.8 156.8 0 0 1 14.8 6.7c1.1.5 2 1.2 2 1.3 0 .5.4.7-3.7-1.5zm16 1.1c0-.4 0-.8.2-1 .2 0 .3.3.3.8 0 .6-.1 1-.3 1-.1 0-.3-.4-.3-.8zm-1.5.3-.1-1.9c0-2 .3-1.7.5.5.2 1.3 0 1.8-.4 1.4zm22-11.1c.1-10.6.6-20.3 1.1-21.5.3-.5.3-.3.2 1.2-.6 7.4-.9 18-.4 18.3l.3-5.4c0-3 0-6.1.2-7l.1 9-.1 10.4c-.1 0-.2-.4-.2-4.5 0-1-.2-1.8-.3-1.8-.1.1-.3 2.6-.4 5.6 0 3-.2 5.5-.3 5.8-.2.2-.2-4-.2-10.1zm-24.1 7.3c.2-2.9.6-4.2.6-1.9 0 2.1-.3 4.6-.6 4.6v-2.7zm15.5 1c0-.5 0-.6.1-.3v.7l-.1-.4zm-19.4-3.8c0-2.5.3-4.3.5-4.2.3.2 0 6.5-.2 6.5s-.3-1-.3-2.3zm2.3 1c.3-2.7.6-3.5.5-1.2a7 7 0 0 1-.4 2.4c-.2.2-.2-.2-.1-1.2zm17-2c-.4-4.6-.1-17 .3-17.7a227.7 227.7 0 0 0 0 12.2L53 63l-.3-3zM32 61.6a96.6 96.6 0 0 0 .8-5c.3 0 .3 0-.2 3.3a13 13 0 0 1-.5 2.7c-.1.1-.2-.3 0-1zm38.5-4.5c0-22.5.1-30 .9-30.8a681.4 681.4 0 0 0-.3 29c0 4.6 0 7.1-.3 7.1l-.3-5.3zM31 58.9c0-2 .1-3.4.3-3.5.1 0 .2 1 .2 3.3 0 2.1 0 3.5-.2 3.5s-.3-1.3-.3-3.3zm-30.7.6c0-.3.3-.4.9-.4l3 .1c3.3 0 2.6.5-.9.6-2.5.1-3 0-3-.3zm19.2-1.2a68.5 68.5 0 0 1 .7-14.3 81 81 0 0 0-.2 8c0 3.9-.2 7.1-.2 7.2l-.3-1zm47.7.7.2-5.4.3-5.4c0-.2.2-.3.3-.3a67.5 67.5 0 0 0-.4 6.3c-.1 2.9-.3 5-.4 4.8zM24.6 58c.6-3 .8-6.3.7-11 0-4.2 0-5.4.3-5.6.3-.3.3.8.2 7-.2 6.9-.5 10.5-1 10.5-.2 0-.3-.4-.2-.9zm1.5.8a160.8 160.8 0 0 1 .9-15 192.4 192.4 0 0 0-.4 9.2c-.2 3.3-.4 5.9-.5 5.8zm38-4.2v-20c-.2-18.3-.2-21.8.1-22.1.4-.4.4-.3.4 3.3l.3 13a274 274 0 0 1-1 30l.1-4.2zM0 58.3c0-.3 2.4-.6 4.6-.6 1.6 0 1.7.4.2.6-2.5.3-4.7.3-4.7 0zm75.8.4-.1-15.8c0-17 0-22.6.5-22.7a515.2 515.2 0 0 1-.2 38.4c-.1 0-.2.1-.2 0zm139.7-2-.6-.7v-2.1c0-1.4 0-2-.2-2-.2.2-.3 1-.3 2.1 0 1.4 0 1.8-.3 1.7-.2 0-.4-.3-.4-.6 0-.4-.3-.5-.5-.4-.2 0-.4-.4-.6-1.8l-.6-3.5c-.3-1.2-.2-1.7 0-2.2.5-.8.7-.8 2.3 0l1.4.7v1.9c0 3.6.3 5.3.9 5.4.2 0 .5.3.5.4 0 .1.3.2.7.2 1 0 1 0 1.3-3.6.2-3.8.5-17.6.3-18.7L219 30c0-1.3-.2-2.3-.4-2.2v2.4c.6 5.3.6 5.7.3 5.7l-.4-.6-.7-6.7c0-.5-.3-.5-1.2-.5-2.2.2-6.5 2.2-8.2 3.8-.3.3-.9 1.4-1.2 2.4-.3 1-.6 1.8-.8 1.8-.3 0-.3-.6.2-2.3.8-2.5 3.2-4.3 8.2-6.2l2.6-1v-5.5l-.1-5.6.7-.4.8-.4h-1.5V6.2l-.1-5.8.5-.3c.8-.5 1 .3 1 5.2v4.5c.2-.2.4-3.2.5-5.6 0-2 0-2.4.4-2.4h.4l-.1 2.8a388 388 0 0 0-.5 14.8c0 4.5 0 4.7.5 4.6.4 0 .5-.4.4-1.5l.4-7 .3-9c0-2 0-3.5.2-3.7.2-.1.3-.6.4-1 0-.3.3-.6.5-.6h.4v10.7c0 5.9 0 10.8.2 11 .2.4-.3 12-.6 12.5-.5 1-.9.4-.7-.9.4-2.4.6-13.6.3-16.8-.2-1.5-.2-1.6-.5-1l-.2 6c.1 6 .1 5.8-.3 5.4-.2-.2-.5-.3-.7-.3-.5 0-.4 2.2.1 2.6.3.3.4.2.4-.4 0-.3.1-.6.3-.6.1 0 .2 1.3.2 3.5 0 3 0 3.6.4 3.6s.4.7.3 5.2a466.1 466.1 0 0 1-.4 12.7c0 .7-.2 1-1 1.5-2.8 1.8-3.8 2-4.8.8zm5-3.7c0-.9-.9-.8-1 .1 0 .5 0 .6.4.6.5 0 .6-.2.6-.7zm-6.8-1-.2-2.6c-.1-1-.3-1.5-.5-1.5-.3 0-.3.4 0 1.9l.3 2.7c0 .4.2.6.3.6.1-.1.2-.6.1-1.2zm6.5-2.5c0-1.6-.2-1.4-.3.4l.1 1.2c.1 0 .2-.7.2-1.6zm-5.6 0c-.1-.3-.2-.2-.2 0 0 .4 0 .5.2.4v-.5zm6.3-8.3c0-.2-.1-.1-.1.2 0 .3 0 .4.1.3v-.5zm-.4-15c0-1.1-.2-1.5-.7-1-.5.3-.5 1.3 0 1.7.5.6.7.4.7-.7zm-1.7-.3s-.2-2-.2-4.3a15 15 0 0 0-.3-4.2c-.2 0-.3 8.4 0 8.9h.4c.1 0 .2-.3 0-.4zM17.7 56.6c.2-.7.4-5 .6-12.8 0-2.4.2-4.9.3-5.5.3-1.5.7-1.3.5.2l-.2 5.7a80.6 80.6 0 0 1-1.2 12.4zm-1.8-.9.3-1.8.2-7c0-8 .5-14.4 1.3-16.5.4-1 .5-.4.2.8-.5 2.7-1 8.4-1 13.9 0 7.6-.4 11.8-.8 11.8-.2 0-.2-.5-.2-1.2zm8-2.3c.2-6.6.4-10.3.6-10.3.3 0 .1 8.2-.1 11.3-.3 2.7-.6 2-.5-1zm-17.5 1c.6-2.4 1-6.1 1.2-16L8 26.7c.2-2.4.6-4.7 1-5 .2 0 .2.2.1.7-.4 2-.7 6-.5 6.3a98.4 98.4 0 0 0-.1 10.7c0 2.9 0 5.2-.1 5.1-.2 0-.3-.7-.3-1.3 0-.7-.1 0-.3 1.4-.5 7.1-.8 9.3-1 10.2-.4 1.6-.8 1.2-.4-.4zm2.4-.9c-.3-4.6-.4-8.5-.1-7.2l.2 2.2v1.1l.3-.8c.3-1 .3-.5.3 3.4a16 16 0 0 1-.3 3.4c-.1.1-.3-.8-.4-2zm4.9 1 .4-1.5c.2-.9.4-1 .4-.6 0 1-.3 2.4-.6 2.4l-.2-.2zm25.4-.6-.4-1.8c-.2-1.2-.7-1.5-1.8-1-1 .6-1 .6-1 0l-.4-1.3c-.3-.5-.4-1-.3-1 .3-.3 1 .1 1.2.8.2.4.5.7.8.7.9 0 1-.5.8-2-.2-.8-.2-1.7-.1-1.9.3-.8.7 0 .7 1.2 0 .8.1 1.4.4 1.7.3.3.4.6.2 1s-.2.9 0 1.5c.5 1.5.7 3 .5 3-.2 0-.4-.4-.6-.9zm148.2-1.4c0-.3 0-.7.2-1 .4-.6-.3-.7-5.3-.5-3 0-4.3 0-4-.2 0-.1.7-.3 1.2-.3l1.1-.1.2-1.5c.1-1.7.6-3.6 1-3.8l.7-1.5.6-1.7c.3-.4 1.6-5.3 1.6-6 0-.5-.3-1-1.1-1.4l-1.3-1c-.1-.1 0-1 .2-1.7.4-2 .5-3.3 0-3.2-.1 0-.3.5-.3 1-.1 1.3-.7 3.8-1 4.5-.3.3-.6.5-.9.5-.4 0-.3-.9.3-2 .2-.4.5-1.7.7-3 .2-1.3.5-2.3.8-2.6.3-.3.6-1.4.8-3.2a326 326 0 0 1 2.6-14.7v-.6l-1.5.3-1.7.4c-.2.2-.4 10.3-.1 12l.2 1.2-1 .8c-1 1-2 1-3.2.6-.8-.3-.8-.8 0-1.8l.5-.8V1.5l.4.1c.3 0 .4.3.4 1-.2 1.2.4 1.3.9.2.2-.5.5-1 .7-1 .5 0 .5.3 0 1.3-1 2.1-.1 4.6 1.9 5 1.5.4 2.5-.4 3.1-2.4l.5-1.5-.5-1c-.6-1.1-.8-1-.7.2.3 2-1 3.5-2.5 3.4-.8 0-1.4-1-1.3-2 .1-1 .7-1 1-.1.5 1.3 1.3 1.3 1.8 0 .3-.5.3-1 0-1.6-.3-1.1-.3-1.1.4-1.6 1.2-.8 2 0 2.6 2.7l.3 1.4-.5.7c-.3.4-.5 1-.6 1.4a459.3 459.3 0 0 0-3 16.3c-.2 1.4 0 1.8.3.8.3-.8 2-9.4 2.3-11.7.2-2 .8-3.4 1.5-4.2.4-.5.7-1.3 1-3.4.7-3.8.8-4 1.2-4 .6 0 .6.4 0 2.6-1.3 5.6-2.5 15-1.8 15.4.8.6.3 2.4-.5 2.1-.4-.1-.4-.7-.3-3.4 0-1.8 0-3.7-.2-4l-.2-.9v.8l-.3 1.2c-.2.2-.4 1.5-.6 2.8a55 55 0 0 1-.7 4.1c-.8 3.8-1 5.1-1 5.6.1.3 0 .6 0 .8a9 9 0 0 0-.8 3.2l-.1 1 1 1 1.1 1v1c0 1.6-.5 3.5-2.2 7.6l-1.3 3.4.5 1.6.6 1.7h2l2-.2-.3-2.2a58 58 0 0 1 1.4-18.3l.2.4.6 14.8c.2 3.2-.1 7.8-.6 8-.6.4-.8.4-1-.1zm1-4.3c0-1 0-1.4-.3-1.1-.3.5-.3 3 0 2.8.2-.1.3-.9.3-1.7zm-.8-6.7c0-3.5-.1-4.8-.3-4-.2 1.3-.3 9.4 0 9.2l.3-5.2zm-7.1-18.8.6-.5-.1-5.6-.1-6.9c0-.7-.2-1.4-.5-1.7a4 4 0 0 1-.6-1c-.2-.4-.3 3.2-.3 7.8 0 4.7.1 8.5.2 8.5.2 0 .5-.3.8-.6zm-12.7 29.4c0-.6.2-.6 1.1-.3 1 .4.9.8-.2.8-.7 0-1 0-1-.5zM1.7 52A64.4 64.4 0 0 1 2 30.6c.3-.5.6.6.3 1.4A149.1 149.1 0 0 0 2.1 52c-.2.2-.3.2-.4 0zm38.5-2a14 14 0 0 1-.4-5.1l.2-1 .3 2.6.5 4v1.2c-.2 0-.5-.8-.6-1.7zM172 51.1c0-.2.1-.7.5-1 1.7-2 2.9-5.6 3-9.9 0-4.3.6-5.4 2.7-5.7 1.5-.3 1.4.4 0 .8-1 .2-1.2.5-1.5 1.3-.2.7-.3 1.7-.2 2.8l-.1 3.2a27 27 0 0 1-2.1 6.6c-.7 1-.7 1 0 1 .5 0 .7.4.3.7-.6.3-2.4.5-2.6.2zM14.6 49.6c.5-2.5 1-13 1-22.7 0-9.2 0-10.8.4-10.8.3 0 .3 1.3.3 8.8a143.4 143.4 0 0 1-1.7 24.7zm195.8-.6c-.4-1.2-.4-4 0-5.5.5-1.4 1.2-2.1.8-.7-.5 2.2-.7 3.5-.4 4.5.3 1.2.3 2.2 0 2.2-.1 0-.3-.2-.4-.5zm-12-1.3-.3-.9-.3-.4c-.1 0-.2.2 0 .7l.1 1-.4-.5c-.5-.4-.6-3-.2-4a12 12 0 0 1 4-4.2c1.4-.9 4.5-2.1 6-2.5.5 0 1.5-1 2.7-2.4 1.8-2 4-3.8 5-3.8.7 0 .2.5-1.1 1.3-1.5.8-4.2 3.5-4.2 4.2 0 .2.4.3 1 .3.9 0 2.2.5 2.2.8 0 .4-.3.4-1.3.1-1.7-.6-2.6-.3-3.2 1.2a11.4 11.4 0 0 0-1.3 6.4c0 1.7-.1 2.9-.3 3-.1.1-.2-.2-.2-.8l-.3-2.2c-.3-1.4 0-3.5 1-5.7.4-.8.6-1.6.5-1.6-.2-.3-2.9.7-4.2 1.6a11 11 0 0 0-4.2 4.5l-.8 1.7.2 1.3c.3 1.5 0 2-.4 1zm.4-4c.2-.8.6-1.5.8-1.7.2-.1.4-.4.3-.6 0-.6-2 2.6-2 3.3 0 .7.5.1.9-1zm2-2.9.3-.5-.4.4c-.5.3-.6.6-.4.6l.5-.5zM9.5 47.5c-.2-.2-.2-5.3 0-14 .3-8.7 1-14.3 1.7-13.6 0 0 0 1-.3 2-.2 1.2-.5 5.3-.7 9.4-.5 14.4-.6 16.4-.7 16.2zm73.8-1.2c0-.3 0-1.7.2-3 .3-2.8.5-13 .7-29.8l.1-9.7.4-.2c.3-.2.5-.2.7 0 .1.3.2.5.1.6L85.2 20a327.1 327.1 0 0 1-1.1 25.4c0 1-.1 1.4-.4 1.4-.2 0-.4-.2-.4-.5zM.2 43c0-.2.1-.4.3-.4l.2.2-.2.4c-.2.1-.3 0-.3-.2zm149.5-1.9.2-2.4c.2 0 .3.8.3 2.3 0 1.4 0 2.4-.3 2.4-.1 0-.2-1-.2-2.3zm17.6-.2c-.3-.5-.4-1.6-.9-7.7-.1-2.1 0-2.5.3-2.6.6-.2 1.8.2 1.8.7a139.4 139.4 0 0 0 .3-16.5l-.4-7.3V4.1h.9l.1 3.2.2 7.6.5 20.9c0 2.8-1.2 4-1.8 1.8l-.3-1.2v4h1c1.4-.3 2-.8 2.2-2 .3-1.6.4-8 .2-10.4a191.4 191.4 0 0 1 .2-26.6h1.2l-.2 1.8a646 646 0 0 0-.7 17.7l.1 9.4.2 9-.8.7c-1.4 1.5-3.4 2-4 1zm1.8-6.8c0-1.1-.3-2.1-.4-2.1-.2 0-.1 1.7.2 3.7.3 1.6.4.6.2-1.6zm-1.2-.6-.2-.8c-.2-.5-.3-.4-.3.3 0 .5.1.9.3.9l.2-.4zm-80.3 3c.5-5 1-29.8.7-31.9-.2-.6.4-.8.7-.2.3.5.1 9.1-.3 21.1a46.9 46.9 0 0 1-.9 12.5c-.2.1-.3-.2-.2-1.4zm62.3-2c0-3 .3-5.4 1-14.4.6-5.6.7-13.7.3-15.8-.2-1-.2-1.2.2-1.7 1-1 1.2-.7 1.2 2.6a216.6 216.6 0 0 1-2 26.7c-.5 6-1 7.6-.7 2.7zm-51.2-.4c.7-4.3 1.2-14.4 1.2-22.7 0-4 .1-6.4.3-6.4.2 0 .3 1.8.3 4.7 0 5.9.1 5.3-.1 10.1A141.5 141.5 0 0 1 98.9 35c-.2 0-.2-.3-.2-.8zm-9.2-.3c.3-2.2.4-4.7.5-13.1.2-9.1.3-11.7.5-12a371.1 371.1 0 0 1-.5 25.7c-.3.6-.7.2-.5-.6zm86-1.7c-1.3-1.2-1.8-2.7-1-3.3.3-.3.4-.3.7.1l.4.5.1-.5.3-8.3a182.6 182.6 0 0 1 .4-12.1c.1-4 .3-5 .8-4.4.2.2.3 1.1.3 2.4a1086 1086 0 0 0-.4 9.4l-.3 7.8c0 3-.2 6-.4 6.4-.3 1.3-.4 1.2.5 1.5l.8.3.1-2.7c.2-3 .8-5 1.3-4.4.2.2.2.5 0 1-.2.4-.4 2-.5 3.6 0 1.7-.2 3.1-.4 3.3-.5.6-1.6.4-2.8-.6zm13.4.5c-.2 0-.3-.4-.3-.9 0-.9.8-1.3 1-.5 0 .3.3.5.5.5.4 0 .4.4 0 .8-.3.3-.6.3-1.2.1zM73.5 30.4c0-1.7.7-9.1 1-9.5.2-.5.6-.3.5.2l-.6 4-.6 5.2-.2 1.6zm24.4.4.3-6c.3-13.6.5-17.8.6-18 .2-.4.6.1.5.7l-.3 9.7a227.3 227.3 0 0 1-.6 14c0 .2-.2.3-.3.3-.2 0-.3-.3-.2-.7zm93.8.5.6-1.6a26.7 26.7 0 0 0 2.2-4.9L196 23c.7-.8 1.8-1.8 2.4-2.2a22 22 0 0 0 2.4-1.9l2.6-1.8 1.7-1c.8-.6 2.7-1 5.7-1l3.3-.3c.4-.2 1.1.1 1.1.5s-2.8.7-5.6.6c-.9 0-2 0-2.5.2-1.1.3-2.8 1.3-2.8 1.6 0 .3-1.8 2.2-2.2 2.2-.2 0-1 .4-1.6 1l-1.8 1c-1.2.3-3 2.7-3.9 4.8-.4 1.1-1.3 2.7-1.9 3.5-1.1 1.5-1 1.4-1.3 1.2zm9.4-.5a24.4 24.4 0 0 1 2.8-5.6c0-.4 4.8-4.9 5.5-5.1a4 4 0 0 1 1.2-.3c.5 0 .5.1-.2.4-2 .9-5 3.7-6.7 6.4l-1.4 2.9c-.7 1.8-1.5 2.8-1.2 1.3zm-109.9.4c-.2-.4-.3-14.6 0-15a107 107 0 0 1 0 15zM205 30a9 9 0 0 1 1.7-4c1.6-2.6 3.4-4.2 5.2-4.7.7-.2.8.3.1.6-2.4.8-5.3 4.3-6.3 7.6-.5 1.7-1 2-.7.5zm-63.4-1-.1-13.9V1.6l.7-.3h1.2c.3.4.3.1-.4 9.1l-.6 11.7c-.1 4.5-.3 6.6-.5 6.8-.2.2-.3.2-.3 0zm1.3-24c0-.5-.1-1.2-.3-1.6-.1-.5-.2-.2-.2 1 0 1 0 1.7.2 1.7s.3-.5.3-1zm-5 23.5v-8.3a188.7 188.7 0 0 0-.6-16.2V2.5h.5l.6-.2v2.2c0 3.4.4 5.9.7 6 .2 0 .3-1.1.4-4l.1-4.2.5-.4c.7-.4 1.1 0 .7.6l-.4 4.9c0 2.4-.3 5.6-.4 7.1a198 198 0 0 0-.4 7.2c-.2 3.5-.3 4.4-.6 4.7-.2.2-.4.7-.4 1.2 0 1-.3 1.4-.6 1zm1-11.2c-.1-.4-.2-.2-.2.5 0 .8.1 1.1.2.8v-1.3zm.3-3.5.1-2.3c0-.3 0-.5-.2-.5s-.3 1-.4 2.3c0 1.4 0 2.3.2 2.3s.3-.8.3-1.8zm-37.7 12.4.3-10.2c.1-8.4.2-10 .6-10a147.1 147.1 0 0 1-.8 22.3c-.2 0-.3-.6-.1-2zm90.5 1.6.1-1.8c.2-.8.3-4 .3-7.2 0-3.5 0-5.6.2-5.6.3 0 .5 6.1.4 9-.2 4.6-.5 6.4-1 5.6zm-87-.2c0-2.6.3-20.3.5-21.7.2-2 .7-1 .5 1l-.3 11.2c0 5.3-.2 9.4-.4 9.5-.1.2-.2.2-.2 0zm85.1-1c.2-.6.4-5.3.5-12.4 0-2.3.2-4.2.3-4.3.3-.3.5 0 .5.9l-.2 7.8a59 59 0 0 1-.4 8c-.3.8-1 1-.7 0zm-82.8-5 .3-10.2c.1-4.5.3-6.4.5-6.4.4 0 .5 5 .2 11l-.4 6.7c0 1.1-.2 2-.4 2.2-.3.3-.3-.4-.2-3.4zm9.3 1.6 1.2-17.3c0-.6.1-.9.4-.9.3 0 .4.3.2 1.7a153.4 153.4 0 0 0-.6 9.4c-.2 1.4-.3 3.4-.3 4.4 0 2.8-.3 4.4-.7 4.4-.4 0-.4-.3-.2-1.7zm-1.6-1c-.1-.2 0-3.5.1-7.4l.4-8.5c0-2.1.5-2 .6.2a168 168 0 0 1-.7 15.9c-.1 0-.3 0-.4-.2zm8-4.8.3-13.4c0-.1.2-.2.4-.1.5.1.6 3.8.2 10-.4 5.2-.6 6.7-1 6.7 0 0-.1-1 0-3.2zm21-1.7a80.9 80.9 0 0 1 .5-13.9c.5-.3.8 0 .6.4a69 69 0 0 0-.4 10.3c0 2.5 0 3.6-.2 3.6s-.4-.2-.4-.4zm39.4-3.9c0-1 .2-1.6.5-1.7.2 0 .3.2.2.8l.2 1.7.2.9h-1.1zm6.9-3.7.4-2.5c.4-2 .7-2.7 1-2.4.3.3-.7 4.5-1 5l-.4.4z"/>
</svg>
