<?xml version="1.0" encoding="utf-8"?>
<svg xmlns="http://www.w3.org/2000/svg" xmlns:svg="http://www.w3.org/2000/svg" version="1.1" viewBox="0 0 135 95">
  <title>Ribby stirs sugar into her tea and gestures across the table.</title>
  <path d="M97.1 94.4c-.1-.3-.1-.3 1.1-.4 2.3-.1 7.3-.6 8.5-.8l1.3-.2-.3.6-.7.8c-.4.2-9.7.3-9.9 0zm-16.3-.5c-1.6 0-4.3-.3-6-.4-1.9-.1-3.5-.4-4.3-.7-.8-.2-1.7-.5-2.2-.5a2 2 0 0 1-1.4-.6c-.5-.6-1-.7-2.7-.8-2.1-.2-3.7-.9-3.7-1.6 0-.5 1.3-1.5 2-1.5.4 0 .4 0 .2-.5-.7-1.3.2-2 3.3-2.8 2.3-.5 10.4-.8 14-.6l8 .2c5.7 0 8.6.3 13.8 1.5 3.2.8 5.6 2 5.6 3 0 .8-1.5 2.9-2.2 3-.4.1-.7.3-.7.4 0 .2.3.2.8 0h.7c0 .2-.4.4-1 .5a16.1 16.1 0 0 1-4.3.8l-4 .3c-2.8.4-12.5.5-16 .3zm17.6-1.7c5.3-.7 6.5-1 7.5-2.5.5-.9.5-1.2-.1-1.9-.4-.4-.8-.5-1.3-.4-.5.1-1 0-1.4-.2-1-.6-6.6-1.8-6.6-1.4 0 0 .7.4 1.5.6 2 .5 2 .6 1.7 1a37 37 0 0 0-9.7-1.9l-4.5-.5c-4.8-.6-16.8-.3-19.3.4-1 .3-2.5 1.2-2.5 1.6 0 .1.5.5 1.1.8 1.4.7 1 1.2-.5.8-1.3-.3-2.2-.1-1.8.3.2.1 1.4.3 2.8.3h2c-.9-.2-1-.5-.4-.7.7-.2 3-.4 3.7-.4 2.3 0 8.8.6 10.4 1 2.8.4 7.5.5 7.7 0 0-.3-.1-.6-.4-.9-.6-.5-2.5-.8-2.7-.4-.3.4-1.4.4-1.6 0-.3-.3.8-.6 2.3-.5 1 0 2 .3 3.3 1 1.3.6 2 .9 2.5.8.7-.2 1.2.1.8.4l-5.4.3c-2.8.1-6.2.3-7.6.6-1.5.2-4 .3-6.4.3-2.6 0-4.1 0-4.3.3-.3.3.7.8 1.7.8l2 .4c.8.2 3 .3 5.7.4a129.6 129.6 0 0 0 19.8-.4zM85 90.7c0-.1.4-.2.9-.2 1 0 1 0-.1.3-.5.1-.8.1-.8 0zm2.5 0a46.9 46.9 0 0 0 13-1.5L99 90c-1.5.5-2.5.6-6.4.7h-5zm-5.7-3h1.2-1.2zM72.2 90c.2 0 .2-.2-.2-.4-.5-.5-2.9-.6-3.1-.2-.4.6.2.8 1.5.7l1.8-.1zm2.6-.7h-.6l.2.1.4-.1zm-27.5 4c-.6-.3 0-.6 1.4-.6l4.5-.3c2.2 0 3.1 0 3.1.2 0 .1-.3.4-.6.5-.8.3-8 .5-8.4.3zm-23.2-1.8c-.2-.5.2-.7 1.6-.9 1.6-.2 2.4-.8 1.7-1-.2-.2-.6-.6-.7-1.1-.2-.6-.5-1-1-1-.8-.3-.8-1.2 0-1.5l.7-.3v-1.4c0-.8.1-1.5.2-1.5.3 0 .6 2.5.3 2.6v.6c.4.7 2 .7 2.6 0 .6-.5 2.7-1 2.7-.6 0 .2-.3.3-.6.3-.4 0-.7.1-.7.3 0 .3.8.3 3.6-.1 1.9-.4 2.4-.6 2.8-1l.5-.6-.6-.1c-.3 0-.7-.2-.9-.4-.3-.3 6.1-.3 7.8.1l1.4.5c0 .1-.7.5-1.4.7l-1.4.6.7.2c.5 0 1.6 0 3-.4l3.1-.8c1.1-.2 2-1.2 2-2.3 0-.6-1-1.3-1.7-1.2-.3 0-1-.1-1.4-.5-1-.6-1.4-.7-2.1-.2-.5.2-.6.2-1-.1-.7-.6-4.7-1.3-7.5-1.3-1.3 0-2.7-.1-3.1-.3-.4-.1-2.8-.3-5.3-.3H25l-.4-.7c-.1-.4-.3-1.6-.3-2.8l-.2-2.5c-.3-.5 0-1.7.4-1.5.2.1.4-.3.6-1 .9-3.3 2.1-6.6 2.6-7 .5-.4 2.4-3.5 2.6-4.1.1-.7 1.8-3 2.9-4 1-1 1-4.2 0-9.3-.3-1.1-.5-3.2-.6-4.5 0-1.3-.4-3.2-.7-4.2-.4-1.4-.6-2.7-.6-5.3 0-2.6-.1-3.6-.5-4.3-1-1.8-1.6-6.7-1-6.7l.3.1c0 1.1.7 4.7 1.2 6 .6 1.4.7 2.2.8 5.3 0 2.5.2 3.8.5 4.5.6 1.4.8.4.4-2l-.3-2.2c.2-.5.5-.3.7.5.2.9.7 1 .7.3a22.6 22.6 0 0 1-2-11.3c.2-.3.4.6.7 3 .2 2.3.5 3.9 1 5 .4 1.3.7 2.7.9 4.7a280.5 280.5 0 0 0 .9 9.3c.2 1 .5.7.4-.4 0-.6 0-1 .2-1 .1 0 .3.8.3 2.1.1 2.1.7 5 1 5 .3 0 1.6-2 2.1-3.3.3-.8.9-1.7 1.3-2 .5-.6.6-1 .7-2.3 0-.9 0-1.8-.2-2l-.3-.6.6.5c.5.4.6.7.4 1.8-.1 1.3.2 1.8.9 1.2.2-.2.3-.8.3-1.5v-1.2l.6.6.5 1c0 .5.7 1 1 .6.2-.4-.2-1.4-.6-1.2-.3.1-.4-.2-.6-.8 0-.6-.2-1.2-.4-1.5-.4-.8-1-3.3-.9-3.9.1-1 .4-.9.4 0 0 .5.3 1.7.6 2.5l.6 2.4.2.8.4-.7.4-1c0-.3 0-.5.2-.5s.2.4.1 1c0 .6 0 1.3.3 2 .3.8.5 1 1.2 1 1 0 1.3-.7.8-1.4-.2-.4-.2-.7 0-1 .2-.4.2-.9 0-1.6l-.3-1.8c0-.5 0-1-.2-1-.2-.1-.2.4-.1 1.3.1 1.2 0 1.5-.2 1.4-.4-.1-.5-.5-1-5.8l-.7-4.2c-.5-1.5-.6-4.5-.3-4.7.4-.1 1 2.3 1.6 5.6a58.9 58.9 0 0 0 1.8 8.2c.3 1.5.7 1.8.7.5 0-.8 2.6-3.7 4-4.4.6-.3 1.3-1 1.6-1.4l1.1-1.7c.4-.5.7-1.1.7-1.4 0-.5 2.6-2.2 5.4-3.4 1.4-.6 3-1.5 3.6-2.1.6-.6 1.2-1 1.3-1 .2 0 .7-.9 1.2-2 .6-1.3 1.2-2 1.8-2.5a756 756 0 0 1 9.7-8c1.4-1.2 3.2-2.2 4.4-2.5a15 15 0 0 0 2.8-1l1.7-.8 2.5.2c1.4 0 3.3.3 4.2.5l1.6.3 1.5-.7c1.8-.9 2.3-.8 2.5.6.3 1.2.7 1.6 2 1.6.6 0 1.9.1 2.8.3 1.5.2 2 .1 2.8-.2.7-.3 1.9-.5 4-.5 2.7 0 3.2-.1 3.6-.5l.5-.5.4.5c.2.2.3 1 .3 1.5 0 1.4-1.7 4-3.1 5a5 5 0 0 0-1.8 2l-.7 1.4.3 1.3.7 3.7c.2 2 .4 2.5.7 2.4l1.3-.2 1-.1v.5c0 .5-.2.6-1.5.7-1.9.2-2 .3-2.4 1.6-.1.6-.8 1.8-1.5 2.8l-1.2 2c0 .3.3 1.1.7 1.9 1 1.8.7 2.5-1.2 3.8l-1.4 1.2c0 .2-.3.3-.7.3l-2.4.2c-1.9.2-2.5.8-2.2 2.1.1.5 0 .7-.1.5-.2 0-.3-.4-.3-.8 0-.8-.4-1-1-.3-.3.3-.7.5-1.3.4h-.8v1.6c.1 1.3 0 2-.3 2.6l-.5 1 .7.5.6.5 3.6-.2 3.6-.1 2.4-1.2c1.7-.8 2.5-1.3 2.7-1.8.3-.6 1.2-1.5 3.9-3.6 3.3-2.6 9-2.7 11.6-.1l1 1-.2 1c-.2 1.6-2.2 3.4-5 4.4-2.8 1.1-3.8 1.8-5 3.5a77.9 77.9 0 0 1-8.6 9c-.3.1-.9.9-1.2 1.6a12 12 0 0 1-4 4.3c-1.1.9-.9 1.5.7 1.5.6 0 1 0 1 .2s-.2.3-.4.3c-.5 0-.5.1.2 1 .5.7.8.8 1.5.8 2 0 3-.8 1.8-1.3-1-.3-1-.9 0-.7 1.3.3 2 1 2.2 2 .4 1.4.3 2.3-.3 4-.7 1.9-.5 2.1 1.3 2.1.8 0 1 0 1.2-.5.1-.4.4-.5.8-.5s.7-.1.7-.3c0-.1.3-.3.7-.3.8 0 .8.5 0 .8-.4.2-.1.3 1.1.4 1.2.1 2 0 2.6-.2a5 5 0 0 1 1.4-.4c.3 0 .6-.3.6-.6.2-.4.4-.5 1.3-.5 1 0 1 0 .8-.4-.3-.3-.3-.4.2-.4.7 0 2 1.6 1.8 2.3-.1.5-.4.6-1.8.8-1.2.1-1.7 0-1.9-.2-.2-.3-.2-.3 0 0 .1.7-.4.8-3.6.8-2.8 0-3.6.2-3.3 1 .2.4 3.8.5 4.3 0 .2-.2.6-.2 1.5 0l1.2.4.5-.4c.5-.5 1.9-.6 1.9-.2 0 .7 6-.7 7.7-1.8l1.1-.6-.4-.4c-.3-.1-.5-.4-.5-.6a3 3 0 0 0-.7-1c-.9-1.1-.4-1.3 1.2-.5 1.3.7 1.9 1.4 1.9 2.4 0 .2-.7.8-1.6 1.4-1.3.9-2 1.2-3.8 1.5l-2.6.6-2 .5c-3.2.6-4 .8-4.4 1.2-.3.2-1.2.3-3.7.1-3.3-.2-4.2 0-2.6.6l.7.3H113c-.7 0-1.6.1-2.1.4-2.4.9-3.8 1.3-5.6 1.4-1.2.1-1.8.2-1.4.3l.6.4c0 .5-3.5.2-3.9-.3-.2-.3-.8-.4-2.4-.4h-2l-.2.5c0 .8-1.1 1-3.3.7-1.2-.2-1.3-.3-.7-.3.5 0 1.1-.2 1.3-.3.4-.2.2-.3-.5-.6l-1.3-.5c-.1 0-.3 0-.3-.3 0-.1.4-.2.9-.1h1.4c.4-.2 0-.6-2-2-1.9-1.4-2.4-2-2.4-2.4 0-.4.1-.7.3-.8.3-.2 2.3-.7 3.9-.9 1.3-.2 1.6-.4.8-.8-.5-.2-1.3 0-3.7.5l-6.1 1.4a27 27 0 0 0-4.6 1.4c-.7.3-1.7.6-2.1.6-.5 0-1.1.2-1.5.5-.3.3-1.3.6-2.1.7-.9.1-2 .4-2.5.7l-1.5.5-1.5.4c-.5.2-1.8.5-2.8.6l-4 .8a590.8 590.8 0 0 1-12.4 3.1c-.5.2-2.8.8-5.3 1.3a44.3 44.3 0 0 0-8.3 2c-.5.3-1.8.6-2.8.9l-7.6 1.7H24zm7.1-3.2-1.3-.2c-.7 0-.8.1-.8.5 0 .3-.2.6-.4.6-.2.1-.2.2 0 .4.3.2.8.1 1.7-.4 1-.6 1.2-.7.8-.9zm-3.4-.2c0-.3-.2-.5-.4-.5s-.2 0 0 .6.6.5.4-.1zm8.7-.4a1 1 0 0 0-.6 0h.6zm17.3-6.4c0-.1 0-.5.2-.8.2-.3.6-1.5.8-2.9.7-3.3 1.5-7 2-8 .4-1 .4-2 0-1.8-.4.1-1 1.7-2.4 6.7-.6 2-1.3 4.2-1.7 4.8-.5.9-.6 1.3-.4 2.4l.1 1.4.8-.7c.4-.4.7-1 .6-1zm6.2.6c1-.5 1.3-.9 2.3-2.8l1.2-2.2-.3-1.5-.7-2.5-.5-1-.2.9c-.2.5-.3 1.6-.2 2.4 0 1.2 0 1.5-.3 1.5-.2-.1-.4-.7-.4-1.3-.1-1.7-.7-4.8-1-5-.3-.2-.7 1-.7 2.5 0 1 0 1.4-.3 1.4-.2-.1-.3-.8-.3-2.3 0-1.6 0-2.2-.3-2-.2 0-.3.8-.3 2.2-.1 1.3-.2 2-.4 2l-.2-.9c0-.4-.1-.8-.3-1-.3-.5-.8 1-.8 2.2l-.4 1.8c-.7 1.7-.9 3-.5 3.4.4.3.4.3 0 .6-.3.2-1 1.2-1 1.6 0 .5 1-.2 2.8-1.9 2-2 3-2.4 3-1.5 0 .3-.6 1.3-1.5 2.2a14 14 0 0 0-1.6 2c0 .3 1.6-.1 2.9-.8zm42.9.6c.3-.2.1-.2-.6-.2-.6 0-.8 0-.5.2l.5.3.6-.3zm-46.5-.2V82c-.2 0-.4.1-.4.3l.2.2.2-.2zm7.4-2.1c.3-.4.6-1.1.6-2v-1c-1.5 3.4-1.6 4.1-.6 3zm46-.3.7-1a50.5 50.5 0 0 1-14.1.3c-2.6-.4-3.5-.3-2.6.3.5.3 2.4.9 3.7 1l6.1.1h5.4zm-58.4 0c.2 0 .5-.6.6-1l2-5.9c2-5.5 2.1-6 1.4-6-.4 0-.7.6-1.4 2.8l-.9 3.2c0 .3-.2.6-.4.8l-.4.4.1-1.3 1.2-3.5c.9-2.3 1.2-4 .7-4.3a1727.3 1727.3 0 0 0-1.2 3.1c-.3 1-.7 2.2-1 2.5a10 10 0 0 0-1 1.8c-.5 1.3-1.1 1.8-1.1.9 0-.2.5-1.5 1.2-2.8 1.3-2.7 2.8-6.8 2.6-7-.2-.3-.7.4-.5.7 0 .1 0 .3-.3.3-.4.2-.6-.5-.1-.7.3-.2.3-.7-.1-.7s-1.7 1.7-2.6 3.4l-1.1 2-.5.6.1-.8.9-1.8c.5-.9.6-1.1.3-1.3l-.6-.2s-.1-.2 0-.4c.3-.9-1.8.6-3.6 2.6-2.2 2.4-3.3 4-4 6.2L40.3 76c-.7 1-.6 1.6.5 1.7.7.1 1 0 1.4-.5.3-.3.5-.5.5-.3 0 .1-.1.4-.3.5-.4.4.2.7 3.4 1.6 1.4.4 2.8.8 3 1 .5.2 2.1.2 2.5 0zm-8.3-4 1.2-2c.7-1.2 1.3-1.9 1.8-2 .4-.2.8-.2.9-.1.2.2-1.1 2-2.5 3.3-1.1 1-1.4 1.3-1.4.9zm4.6-2.6c.1-.5.7-1.7 1.3-2.7a347 347 0 0 0 3.4-5.5c.1 0-.5 1.5-1.4 3.2a162 162 0 0 0-2.2 4.4c-.8 1.5-1.4 1.9-1 .6zm17.6 6c-.1-.2-.3 0-.4.3-.1.3 0 .4.2.1.2-.2.2-.4.2-.5zm1.9-.2c0-.3.2-.8.5-1 .3-.4.5-.7.5-1l-.5-.8c-.3-.2-.5-.8-.5-1.2 0-.6-.5-1.3-.9-1.3-.3 0-.2 5.4.1 5.6.6.3.8.3.8-.3zm38.8-.2c.6 0 .8-.3.7-.5 0-.2.3-.6.7-1 1.3-.8 2.2-3 2.3-5.8l-.1-2.3-1.7.4c-1.8.6-7 .4-10-.2-1.1-.3-2.1-.4-2.3-.4-.6.3-.2 3.8.6 5.5l.8 1.5L98 76c1 0 1.4 0 2.2.6a4 4 0 0 0 1.6.7c.7 0 1 .2 1.6 1 .5.8 1 1 2.5.6zm-7.6-4c-.3-.2 0-.2.9-.1l1.4.2c.3.3-2 .1-2.3-.1zm-.8 3.5a9 9 0 0 0-1.3-1.7L95 75.3l-1 .3a6 6 0 0 1-1.5.3c-1 0-1.8.5-1.8 1 0 .6 1.1 1.1 3.4 1.4 3.1.3 3.5.3 3.5 0zm14.9-.4c1.8-.8 1.1-2-1.2-2.2l-1.2-.2-1 1-1.3 1.5-.5.6 2-.2c1.2 0 2.6-.3 3.2-.5zM37 77.7c.5-.3 1.1-1.3 2.2-3.4 2.5-5 8.4-11.4 10.5-11.5 1 0 1.6-.7 1.4-1.3 0-.2.3-.6 1-1 1-.8 1.8-2.2 1.2-2.5-.4-.1-1.4.5-2.7 1.6-.4.5-1.2 1-1.7 1.4-.5.3-2.3 2-4 3.9a14 14 0 0 1-3.3 3c-.2-.2 1-1.7 3-3.8.7-.8 1.7-2.3 2.6-4 2-4 1.9-4.1-.7-1.6-.9.9-1.7 1.5-1.8 1.4 0 0 1.1-1.4 2.7-2.8 2.9-2.8 3.6-3.9 3.6-5.2 0-.8-.6-3.1-.8-3.4-.1 0-.5 0-1 .3a4 4 0 0 1-1.4.4l-1.7.4-1.7.3c-.8-.2-1.9.2-3.3 1.4l-1 .5c-.2 0-.6.5-.9 1-.5 1-1.7 1.6-1.7.9 0-.9 4.5-4.4 6.5-5.2l1.6-.7c.1-.2 1-.7 1.8-1.1 1.5-.8 1.7-1.6.2-1-.4.2-.9.3-1 .2-.2 0-.7 0-1.1.2-1 .3-1.3.1-.8-.5l.3-.4h-1.2c-1 0-1.4.2-2 .8-.5.4-.8 1-.8 1.2 0 .6-1.6 3.3-2 3.3-.3 0-.2-.3.3-.9.2-.3.3-.7.3-1 0-.5-.2-.4-1 .6-1 1.1-1.8 2.6-1.4 2.6l1-.5c.3-.3.6-.4.6-.3 0 .1-.3.5-.7.8-1.1.8-1.7 1.8-1.8 2.8 0 .5-.2.9-.7 1.2-2.7 1.7-3.2 2.2-4.5 5a17.3 17.3 0 0 0-2 7v2.4l.7 2.5c.5 1.4.8 2.8.8 3.2 0 1-.6.5-1-1.1-.3-.8-.7-1.8-1-2.2-.7-1-.6-5.3.3-8a27 27 0 0 1 1-2.9c.8-1.3.5-1.5-.5-.4-.6.6-1.2 1.6-1.5 2.2l-1.2 3c-.9 2.2-1.2 4.1-.9 4.8.2.3.5 1.1.6 1.8.2.8.8 1.8 1.7 2.8l1.3 1.6h5.2l.7-1.1c.4-.7.8-1 .8-.8.1.2 0 .5-.1.7-.5.4-.4 1.7.1 1.7l.9-.3zM33 74c-.2-.2.1-4 .4-5.7a31 31 0 0 1 2.8-7.1c2-4.1 3.9-6.4 3.3-4.3 0 .3-.6 1.2-1.2 2-1 1.3-2.8 4.7-3.6 7-.2.7-.6 2.8-.8 4.6-.4 3.2-.6 4-1 3.5zm4 0c0-.2.5-1 1.7-2.6 1-1.5 1.7-1.8.7-.3a13.8 13.8 0 0 1-2.4 3zm.1-5.9 1.3-2.3a53 53 0 0 0 1.7-3c1-2 3.3-4.7 3.5-4.2 0 .2-.2.7-.6 1-.9 1-2.1 3.2-2 3.5.2.1-.2.7-.7 1.4-.5.6-.9 1.1-.8 1.2l1.3-.4 1-.6-1.1 1c-.7.7-1.8 1.6-2.5 2l-1.3 1zm.3-2.6c-.2-.2.2-1 1.1-2.5l.4-.5-.2.6c-.1.9-.9 2.7-1 2.7l-.3-.3zm4.6-1.2.4-.2h.3c-.2.3-.7.5-.7.2zm-2.9-2c0-.8 4.5-7.4 5-7.4s.3.4-.2 1a47.8 47.8 0 0 0-4.4 6.3c-.3.4-.4.4-.4 0zm2.7 0 1-1c1-.7 1-.8.7-.3-.8 1-1.7 1.7-1.7 1.2zm2-4.2c-.1-.1 0-.3.2-.4l.4.1c0 .4-.5.6-.6.3zm1-1.5c1.6-2.5 4-5.5 4.3-5.3 0 .1-1 1.6-3.5 4.9-.9 1.2-1.5 1.5-.8.4zm-3.6-2.3c.7-1.4 1.2-1.9 1-1-.1.4-.5 1-.9 1.4l-.6.6zm1.2-2c.1-.2.3-.3.4-.3.2 0 .2.1.1.3l-.4.2c-.1 0-.2 0 0-.2zM65 74.6c0-.5 0-1-.2-1.3-.3-.4-.6.9-.5 2.5v1l.3-.6c.2-.4.4-1 .4-1.6zm5.6 1-.4-.2c-.2 0-.4.1-.3.3l.4.2c.2 0 .3-.1.3-.2zm15.3-.7c.3-.2.3-.3.2-.3-.2 0-.5.1-.7.3-.2.1-.3.2-.1.2.1 0 .4 0 .6-.2zm-12.2-.6.9-.6c1.1-.6.9-1-.7-1-1.7 0-2.2-.1-2.2-.7 0-.2.2-.3 1-.3.6 0 1.2 0 1.4-.3l1.3-.2c.9.2 1 0 1.5-1.5a7 7 0 0 1 .9-1.7c.6-.8.2-1-.6-.4-.6.6-.6.3 0-1 .6-1 .3-2.3-.5-2.3s-1.2-1-.8-1.8l.3-1.4c0-.7-1.5-5.1-2.7-8.2-.3-.9-.5-1.5-.3-1.7.4-.3.8.7 2.2 4.5 1.3 3.8 1.6 5.4 1.3 6.4v1c.4.2 1.8-.6 2.1-1.3.5-.8.8-1 2-1 1.4 0 1.8-.8 1.7-4.7-.1-2.6-.2-3.2-.7-4a23.4 23.4 0 0 0-4.7-7.8c-1-1.3-1.5-2-1.5-2.6 0-.4-.1-.7-.3-.7-.2 0-.5-.3-.7-.7a11 11 0 0 0-1.1-1.7c-.7-.8-1-1-1.5-1-.6 0-.8.2-.8 1 0 .7 0 1.3.3 1.7a18.2 18.2 0 0 0 2.4 5.6l2 3.7c0 .2 2 3.6 3 4.9l1.2 1.4V58c.1 1.5 0 2.2-.2 2.2-.2.1-.3-.3-.3-1.5a6 6 0 0 0-1.7-4.5c-.8-.8-2.8-4-2.8-4.3l-1.6-2.7c-2-3.4-2.5-4.5-2.9-5.9-.2-.6-.4-1.1-.7-1.1-.3 0-.4-.3-.4-1.2 0-1.2.5-1.8.9-1.1.1.3.2.2.2-.1 0-.2-.3-.6-.7-.8-.5-.3-.8-.3-1.7.2-.9.4-1 .6-1 1.3 0 .4-.2 1.3-.5 1.8-1.2 3.3-1.2 3.5-1 5.4.4 1.7.3 2.3-.1 2a25 25 0 0 1-.3-10.9c.4-.5.2-1.4-.2-1.4-.2 0-.8.7-1.5 1.5-1.3 1.5-2 1.8-2.5 1l-.3-.5-1 1.2c-2.3 2.4-3.6 5-3.3 6.2V46l-.2.4-.7-.4c-.9-.6-1.1-.2-1.1 1.8v1.6l.6-.7c.8-1 1-.6.7 1.2-.5 2-.5 2.2-1 1.8-.7-.7-.5 4.3.3 6l.4 1c0 .5 1.6 3 2 3l.1-.3c0-.5.9 1.2 1 1.8 0 .7.8 1.8 3.2 4.7 1.1 1.3 2.4 2.5 2.8 2.7.4.3.7.6.6.8-.2.5.8 1.3 2.8 2.2 1.8.8 3.4 1 3.4.6 0-.2-.1-.3-.3-.3l-.2-.4c0-.5.6-.5 1 0 .2.3.2.4 0 .5-.2.2-.2.3 0 .5.6.3 1.4.3 1.8 0zm-5.5-4a25 25 0 0 1-3-2.3L62 65.3c-1.5-1-2.8-2.7-2.8-3.7 0-.6-.1-.8-.7-1-.4-.2-.6-.4-.5-.7l.2-.5h.6c.8.2.8.3.3-1.6l-.4-2.6c0-1 .1-.7 1 2 .6 1.6 1.1 3.4 1.1 3.9 0 .7.2 1.1 1.2 2 1.5 1.3 2.4 1.7 2 .8l-.8-1a20 20 0 0 1-2.6-5.2c-.2-1.2.4-1 .7.2.7 2 2 4.2 3.3 5.6a43 43 0 0 0 5.7 5.3c0 .5-.7.2-1.7-.5-.6-.5-1.2-.8-1.4-.8-.2 0-1-.5-1.7-1.1a8 8 0 0 0-1.6-1c-.2 0-.4-.3-.6-.5-.2-.2-.4-.3-.5-.2 0 .2.5.7 1.2 1.3l2.6 2.2c.7.7 1.6 1.2 2.4 1.5.7.2 1.2.5 1.2.7 0 .6-1 .5-2 0zm1.6-5.5c-2.9-1.7-4.8-4-6-7.1-1-2.9-.4-2.7 1 .2 1.3 2.5 2.1 3.6 4 5.2l.8.7.4-.5.3-.4.8.7c1.6 1.5.6 2.3-1.3 1.2zM57.2 60l-.4-1c-.3-.6-.3-1.1.2-1.6.3-.3.4-1 .4-2.7 0-1.7 0-2.1.2-1.7.2.4.3 1.3.3 2.1l.1 2.5c.2.9.1 1-.2 1-.4 0-.5.2-.4 1 .2 1 0 1.2-.2.4zm1.5-7c0-.3-.3-.8-.7-1.1-.4-.4-.6-.8-.5-1l.3-1c0-.6 0-.7-.3-.6-.5.2-.5-.5 0-3.4.5-2.7.9-4 1.3-4 .2 0 .2.2 0 .4-.4.4-.5 2-.1 2.2.1 0 .2.8 0 1.7 0 1 0 1.6.2 1.6.3 0 .8-1.2 1-2.3.3-2 .7-3.6 1.2-4.6.6-1.2.8-1.4.5-.3-.8 2.4-1 3.6-1.2 5.1-.1 1-.4 1.9-.6 2.2-.3.3-.4 1-.5 2.7 0 1.3-.1 2.3-.3 2.5-.2.3-.3.2-.3-.1zm20.1-2.7-1-2.8a22 22 0 0 1 2.6 5c0 .8-.5 0-1.6-2.2zm-15.2.2c-.5-.6-.6-1.4-.1-1.4.4 0 1 .8 1 1.4 0 .6-.3.6-.9 0zm12.6-4v-.5c.3-.3 1 .2 1 .6 0 .5-.8.5-1 0zm9.4 27c-.1-.2-.4-.3-.9-.3-1 .1-1 .7-.2 1 .9.3 1.3 0 1-.6zm1.3.7-.1-.2c-.2 0-.3 0-.3.2v.3c.2 0 .3-.1.4-.3zm-61.3-.6c0-.4-.1-.7-.2-.7-.3 0-.4.9-.1 1.2.3.3.3.2.3-.5zM80 73c.6-.4 1.6-.8 2-.9.6 0 1.2-.3 1.4-.6.3-.2.7-.3 1-.2.5.2 3.4-1.4 4.2-2.4.4-.5 1.2-1 1.7-1.2 2.1-.7 2.4-1.7.6-3-1.3-.9-1.6-1.6-.5-1.4l.7.2-.2-.9c-.2-1-1.1-2.5-1.8-2.7-.6-.2-1.5.1-1.3.6 0 .2 0 .4-.5.6l-2.4 1.4-2 1.3c-.2 0-.3 0-.3.2 0 .3-1.8 1.2-2 1-.1 0 .8-.8 1.9-1.5 2.1-1.3 3.1-2 3-2.3l-2.3.2c-2.7.4-3.4 1-3.6 2.7 0 .6 0 1.2.2 1.3v.3c-.6.3-.1.7.6.5.9-.2.8.3-.2.8l-.8.7-.8 1c-.6.6-.7 1-.8 2.2 0 .8.2 1.6.3 1.8.4.3.2.5-.9.6-.3 0-.6.3-.6.5-.2.6 2 .1 3.4-.8zm4.5-2c0-.2.1-.4.3-.4.2 0 .5-.1.5-.3.1-.2.2-.3.2 0 0 .2-.2.4-.5.6-.4.2-.5.2-.5 0zm7 2.6c1.1-.2 1.3-.5.8-1.3-.5-.7-.5-1 0-3.4.2-1 .9-1.6.9-.7 0 .8 1 1 1.5.2.4-.7 1.3-1 3-1.3 1.5-.2 3.4-1.2 3.4-1.8 0-.6-1-1.8-1.6-1.8-.4 0-.5.2-.5.8 0 .7-.8 1.8-1.3 1.8-.4 0-.3-.2.1-1 .5-.9.5-1.3 0-1.4-.6-.3-1.4.1-1.7.9-.2.4-.3.8-.2 1 .1 0 .3-.1.3-.4.3-.5.7-.5.5 0l-.2.8c-.1.3-.2.4-.7.1-.4-.2-.5-.4-.4-1 .1-.6 0-.8-.2-.8-.5 0-1.7 1.1-2.1 2-.2.5-1 1.3-1.6 1.8-1 .9-1.2 1-.9 1.4.3.4.2.4-.4.3-1.2-.3-1.4.3-.6 1.7.8 1.4.7 1.9-.1 1.1l-.5-.5v.7c0 .8.5 1.3 1.1 1.1l1.4-.3zm3.3-.4c0-.4-.8-1.1-1-1-.2.3.4 1.3.7 1.3.2 0 .3-.1.3-.3zm-30.8-.5c0-.2-.2-.1-.2.2 0 .2 0 .4.2.3v-.5zm-.4-2c-.6-.4-.8-.4-.8 0 0 0 .2.2.6.2.4 0 .5 0 .2-.3zm30.7-1.2c-.4-.4-1.1.1-1.1.8v.7l.6-.6c.4-.4.6-.8.5-.9zm9.5-.3-.8-.9-.7-.8-2.8.2c-2.1 0-2.9.2-2.9.4 0 .3 1 .6 3.5 1 .8.2 3.7.2 3.7.1zm-42.9-.8-.6-.6-.5-.5.3.6c.3.5.8.8.8.5zm-1.6-1.6c0-.1-.6-1-1.4-1.8-1.5-1.7-2-2.7-2-3.7l-.3-1.6c-.5-1.6-.9-.8-.7 1.5v2l1 1c1.2 1.6 3.4 3.2 3.4 2.6zm44-2.8c.7-.6.7-.8.4-.8-.3 0-.5-.1-.4-.3 0-.2.5-.3.9-.3.6 0 .8-.2 1-.8l.4-1.3c.2-.2.1-.7-.1-1.2-.4-.7-.6-.8-1.1-.7l-.7.2.6-.6c.5-.5.5-1.3 0-1.3-.3 0 .2-.6 1-1.2 1.1-1.1 2.2-1.6 2.2-1 0 .2-.1.3-.3.3-.1 0-.4.3-.5.6l-.3.5 1-.4 1.2-.7c0-.2.2-.3.3-.2.3.3 0 .8-.5.8-.2 0-.4 0-.4.2 0 .1-.5.6-1.2 1-.9.5-1.2.7-1 1 .3.1.5.1.8-.2.3-.3.9-.5 1.3-.5.9 0 1.4-.3 4-2.5 3.6-3 3.5-2.8 1.9-4-.7-.4-1.8-1.4-2.5-2.1a5.8 5.8 0 0 0-1.7-1.4c-.2 0-1 .3-1.7.7-.8.4-2 1-3 1.2l-1.5.4-1.5-.4c-1.8-.4-2.6-.3-2.1.3.2.2.2.6 0 .7l-.1 1.6c0 .8-.2 1.4-.5 1.8-.7.8-.6 1.4.4 1.4l1.3-.3c.3-.2.5-.2.5 0 0 .1-.1.3-.3.3-.5 0-.2.8.3 1 .3 0 .5.3.5.6 0 .2.2.6.5.7.2.1.3.4.2.8 0 .3 0 .7.3.8.2.3.2.4 0 .8s-.2.6 0 .8c.2.3.2.5-.1 1-.4.5-.4.7 0 .9.2.1 0 .2-.4.3-.9.1-1.2.8-.7 1.6.6.9.7.9 1.6 0zm.5-3.8.8-.4.6-.4-.3.5-.8.4h-.3zM103 57h.5l-.4.1c-.3 0-.3 0-.1-.1zm-.2-1.5c.2-.3 3.2-1.8 3.3-1.7.3.3-.3.9-1.3 1.2a26.7 26.7 0 0 0-2 .5zm-.3-1.6c0-.7 2.7-2.3 3.1-2 .1.2 0 .3-.2.4-.2 0-.6.4-.9.7-.5.6-1.5 1.2-1.8 1.2-.1 0-.2-.1-.2-.3zm.2-2.8h1c.3.1 0 .2-.5.2-.6 0-.8-.1-.5-.2zm2-.3c.1-.2.3-.3.5-.3.1 0 .2.1 0 .3l-.3.3c-.2 0-.2-.2-.1-.3zm-6.8 12c3.4-.6 3.2-.5 3.6-2l.3-1.4-.7-1.4c-1-2-2-2.6-4.1-2.8-1.9-.2-2.4-.7-.8-.7.7 0 1.1-.2 1.7-.9l.7-.8v-1.5c0-1-.2-1.6-.6-2-.3-.3-.5-.7-.5-1 0-.2-.2-.5-.4-.6-.2 0-.4-.4-.4-.8 0-.3-.1-.6-.3-.7-.2 0-.3-.8-.4-1.7v-1.7l.5.1c.5 0 .6 0 .5-.7-.1-1-1.4-2.4-2.6-3-.8-.3-1-.3-1.6 0-1.1.6-2.5.2-3.4-.9L88 36.7l-1-1.3c-.4-.5-1.6-1.2-3.2-2L81 32l-.3-1-.7-1.3-.4-.5-.4.4c-.4.6-1 .4-1-.3 0-.3-.5-.7-1.4-1.2-1.7-1-2-1.2-2.5-2.6-.2-.6-.6-1.2-.8-1.3l-1-.5a2 2 0 0 0-1.2-.1l-.7-.1c0-.5-.4-.4-1.5.3-2.5 1.6-2.6 2.2-.3 2.3l1.7.1.4 1c.4.7.7 1 1.4 1.1 1.2.2 4.5 1.6 5.6 2.4.5.3 1.3 1.1 1.8 1.8l1.2 1.4c.3.2.7.8.9 1.4.5 1.1 1.2 1.7 1.9 1.5.6-.3 1.5 0 2.6 1 .8.7 1 1.2 1.2 2 .2 1.2.2 1.3 2.1 2.2.6.2.7 1.8.2 1.8-.2 0-.4-.3-.5-.8-.1-.5-.4-.8-1-1-.4-.2-.9-.5-1-.8 0-.3-.2-.6-.3-.6-.1 0-.3-.4-.4-.9 0-.5-.3-1-.5-1l-.8-.4c-.6-.6-1-.7-2.4-.6h-.7l1.2 1c1.5 1.1 1.7 1.6 1.7 3v1.3l.8.1c.6.2 1 .6 1.5 1.4.3.6.9 1.2 1.2 1.2.4.2.5.3.4.7-.1.4 0 .8.5 1.4.5.6.7 1.1.7 1.9 0 .5.2 1.4.4 1.8l.3 1.4c-.2.7.4 2.6.8 2.6l1.5-.6c1.3-.5 1.9-.2.8.5-1.7 1-3 2.2-3 2.7 0 .3-.2.5-.4.5-.8 0-.7.6 0 1.6.5.6.9 1.3.9 1.6 0 .3.2.8.4 1 .4.5 1.5.5 6-.2zm-4.7-9.5c-.4-.4-.2-1.5.2-1.5.3 0 .4 0 .2-.4a11 11 0 0 1-.3-1c-.2-.7.5-.4 1 .4 0 .3.4.7.7.8.6.4.2.8-.6.6-.5-.1-.6 0-.6.5 0 .7-.3 1-.6.6zm0-4.9.2-.3.1.3c0 .2-.1.3-.3.3-.1 0-.2-.1 0-.3zm-.6-1.7c-.3-.6 0-.9.4-.5.3.3.3.4 0 .7-.2.2-.3.2-.4-.2zm-1.3-2.4a.9.9 0 0 1-.2-.6c0-.4.7-.4 1 0 .1.6-.4 1-.8.6zm2.6-2.4c-.5-.3-.5-.4-.1-.5.5-.2 2 .3 1.7.7-.2.3-1 .3-1.6-.2zm-1.5-1c-.3-.3.3-1.2.7-1.2l.7.2c.3.2.3.3-.2.7-.5.4-1 .5-1.2.2zM72 25.8c-.4-.4-.5-.6-.2-.8.4-.5 1.2 0 1.2.7s-.5.7-1 .1zM53.6 60.6c-.2-.1-.7.2-.7.6 0 .1.1.1.4-.1l.3-.5zm-4.4-.9c1.2-1 1.5-1.7 2-4 0-.7 0-1-.3-1-.2 0-.4.2-.4.3l-.8 1.6c-.7 1-2.1 3.8-2.1 4.1 0 .4.6 0 1.6-1zm34.9.3-.1-.2-.3.2c-.1.2 0 .3.1.3.2 0 .3-.1.3-.3zm4.6-1.9 2-1.3-.2-1c0-.5-.3-1.1-.5-1.4-.2-.4-.2-.7 0-1.2l.3-.8-.6-.4-.6-.4.2-1.3.2-1.4-1-.3c-.6-.3-.8-.6-.8-1.2-.1-1.3-1.5-3.4-2.3-3.4-.5 0-.7.2-.7.7 0 .4-.3.9-.5 1.2-.6.8-.5 1 1 2.5 1 1.2 1.3 1.6 1.3 2.4 0 .8.1 1.2.7 1.7l.7.6-.3.7c-.4.9-.9.9-.9 0 0-.3-.2-.8-.5-1-.4-.4-.5-.8-.5-1.6V50l-1.4-1.3c-1-1-1.3-1.4-1.2-1.8l.3-1.4.2-.8-1.8-1.6c-2-1.7-3-3.6-2.6-4.5.2-.4.3-.2.7.7a9 9 0 0 0 2.7 3.5c.4.2.6.2.7-.1.2-.3.4-.4.7-.3.3.1.4 0 .4-.8v-1l-1.6-1c-1.9-1.3-3.3-1.9-4-1.7-.5.1-2.2-1.5-1.7-1.7.6-.2.4-.6-.5-1.6l-.8-.8h-3.2l.5.4c.5.6.5 1.1 0 1.1-.6 0-2-1.1-2.2-1.8-.1-.5-.4-.7-1-.8-.9-.2-2-.8-2.2-1.1-.1-.2-.4-.2-.7-.1h-.5l.6.3c.4.1.6.3.4.6-.4 1-.4 1.4 0 1.5.2.1.6 0 .9-.3.5-.5 1-.4 1 .4-.1.4 0 .6.8 1 .5.1 1.3.6 1.7.9.4.3 1 .5 1.3.5.4 0 .8.4 1.3 1.4.4.8 1.2 1.7 1.6 2.2 1 .8 1.9 2.7 1.9 3.7 0 .3.2.7.3.8l2 2c1.7 1.9 3.3 4.7 3.3 5.7 0 .3.2.7.6 1 .4.2.8 1 1.3 3l.9 2.9c.1.5.1.5 2.3-1zm-1.9-.2c.2-.5.7-.6.7-.1 0 .2-.2.4-.4.4s-.4-.1-.3-.3zm1-8.2c0-.1.1-.2.3-.2.1 0 .2 0 .2.2s-.1.3-.2.3a.3.3 0 0 1-.3-.3zm19.4 9c.1-.1 0-.2-.3-.2s-.6 0-.7.2c-.1.2 0 .3.3.3s.6-.1.7-.3zm-73.9-2.2c.2-.3.8-1 1.4-1.3.7-.5 1-1 1-1.5v-.6l-2.1 2.2c-1.4 1.3-2.2 2.4-2.2 2.7v.6l.8-.8 1.1-1.3zm20.4-.2-.4-.2-.6.2c0 .2.1.3.4.3.3 0 .6-.1.6-.3zm-.9-2.8c.2-2-.2-1.6-.6.6l-.3 1.7.4-.4c.2-.2.4-1 .5-1.9zm-16.5-2.9c.3-1 .2-1.8-.2-1.6-.3.1-1.2-1.9-1.2-2.6 0-1.9-1.5-7.2-1.6-5.8a15 15 0 0 0 .4 4.2l.5 3.3c.1 1 .3 1.6.5 1.6.6 0 .8.9.3 1.2-.6.4-.3 1 .5.9.3 0 .6-.4.8-1.2zm81.4-2.4c.8-1 1.7-1.5 2-1.6.4 0 1-.2 1.4-.5l1-.5h1c.2 0 .6-.4.7-1l.3-.7.9.1c.9.2 1.3-.2 1-1l.1-.5c.6-.4.3-1.2-.5-1.8-1-.9-3.3-1.5-3.8-1-.2.2-.1.2.3.2.7 0 1.1.6 1.1 1.5 0 .7-.2 1-1 1.8-1.6 1.5-3.5 1.2-2-.3.8-.9.8-1.1.2-2.2l-.4-.8-1.5.1c-.9.1-1.7.4-2.1.7l-1 .7c-.7.3-3.7 3.9-4 4.6-.2 1 .4 2.1 1.8 3 1.7 1.3 2.6 1.1 4.5-.8zm6.9-5.6c0-.2.1-.3.4-.3.2 0 .4.1.4.3 0 .1-.2.3-.4.3-.3 0-.4-.2-.4-.3zM104.7 48c.3-.2.3-.2-.3-.2-.4 0-.7.1-.7.2 0 .4.5.4 1 0zm-63-3.2H41c-.6.6-.5 1 .1.6.3-.2.5-.4.4-.6zm10.6-3.8a1 1 0 0 1 1.6 0c.2.2.4.2.6 0 .3-.3.2-.5-.3-1l-.6-.5.6-1c.4-.6.5-1.1.5-1.2-.3-.2-3.7 3.4-3.7 3.9 0 .4 1 .3 1.3-.2zm-17.8-3c-.1-.7-.3-1.4-.5-1.5-.3-.2 0 3.2.3 3.7s.4-.6.2-2.1zm18.1-.3c.4-.8-.1-.6-1 .3-1.1 1.2-1.1 2 0 .9l1-1.2zm4.2 1.7.7-1.2.4-1-.6.3c-.7.4-1.8 1.6-1.6 1.9.1.2.6.2 1 0zm9-.2c0-.2 0-.4-.2-.4s-.3.2-.3.4.1.4.3.4l.2-.4zm32.3-.8c0-.3-.1-.7-.3-.7-.3-.1-.3-.2 0-.6.4-.5.2-.7-1-.7h-1L97 36c1.7-.5 3-1.3 3-1.7 0-.3.3-.4.9-.5h1l.1.6c.1.4.4.7.6.7l.4.2c0 .4-.5.4-.7 0-.2-.4-1.6.3-1.8 1-.3 1-.2 1.2.5 1.2.4 0 .7 0 .7.2 0 .1.8.3 1.8.4 3 .2 4.9-.9 3.6-2-.7-.6-.5-1 .4-.9 1.2.3 1.6-.2 1.1-1.4-.6-1.5-.3-3.1 1-4.4.7-.7 1-1.3 1-1.6l.3-1.2a8 8 0 0 0 1-3.2V23l-.3.6-.4.7v-.7l.2-.8c.4 0 .4-2.6 0-3.1-.2-.4-.3-.3-.7 0-.5.5-.8.4-.8-.2l-.9-2c-.6-1.5-.9-1.8-1-1.4-.3.5-1.3.5-1.3 0 0 0 0-.2-.2 0 0 0 0 .4.3.8.5 1 .5 1.4 0 2-.3.3-.4.5-.2.5.5 0 1.4 1 1.4 1.6 0 .7-.7 1-1.3.4l-1-.8-.5-.4.4-.6.4-.7-.6-1.1c-.7-1.4-1-1.8-2.2-2.7l-.9-.8-.2 1-.3 1.6c0 .6-1.5 2.2-2 2.2s-.4-.6.2-1.5c.4-.6.6-1.2.5-1.5l-.2-1.2c0-.5-.1-.3-.5.7-.3 1-.6 1.3-1 1.3-.3 0-.9.4-1.3.9-.3.4-.9.8-1.2.8h-.5l.2-1 .1-1-.5.9-.6.9.4.5c.4.4.4.5 0 .8l-.2.7c.2.4-.6 1-.8.6v-.6l.4-.7c0-.4-.7-.4-1 .1-.2.7-1.2.4-1.5-.5-.1-.5-.5-1-.7-1.4-.8-.8-.5-2.8.6-4.3.5-.7.6-1 .2-1-.2 0-.7.3-1.3 1.2-1.8 2.2-2 2.8-1 3.6l.4.9c0 .2-.2.4-.5.5-.6.2-.6.2 0 1.2.4.5.5.9.4 1-.4.4-1.2 0-1.2-.5l-.4-.7c-.6-.4-1.2-2.3-1.2-3.6 0-1 .5-1.5 1.2-1.5l1-.8c1.2-1 3-2.3 3.6-2.3.2 0 .6-.3.8-.5.6-.5 1.8-.8 2-.5 0 .1-.6 1-1.6 2l-1.7 1.8.4.6c.4.7 1.3.9 1.9.4.5-.4 1.1-.1 1 .5l-.2.5h1.2c.8 0 1.2-.2 1.5-.7.6-.9 1.4-3.9 1.4-5 0-2.4-.2-3.2-.4-3.4-.3-.3-3.4.8-4.2 1.4-.2.2-1.1.6-2 .7-1 .2-1.9.6-2.1.9-.3.3-1 1-1.8 1.5-.8.6-1.5 1.2-1.5 1.5l-.3 1c0 .5-.4 1-.7 1.4-.3.3-.5.8-.5 1 0 .3-.3.7-.6.9l-.6.4.7 1.2c.5 1 .5 1.3.2 1.5-.5.3-1 0-1.2-.7-.2-.6-.6-.8-.7-.3 0 .2-.1 0-.3-.2l-.3-.7-.4 1-.3 2.1c0 .6-.2 1.2-.4 1.5l-.4.5.7.1c1 .3 1 1.2 0 1.2-.5 0-.7.1-.6.4.2.6-.2.7-.8.3-.4-.3-.5-.3-.9 0l-.4.4-.6-.7c-1.2-1.6 0-2.6 1.6-1.3.7.6.8.7.7.3a1 1 0 0 1 .1-.9c.2-.3.2-.5 0-1-.2-.4-.3-1.2-.3-1.9v-1.2l-.7.8c-.3.4-.6 1-.6 1.4 0 .4-.1.5-.5.4-.6-.1-1 .2-1.3 1.4-.2.5-.2.9 0 1 .1 0 .2.4 0 .8 0 .4.1 1 .4 1.6.7 1.3 2.5 3 3.2 3 .7 0 1 .5.9 1.4l-.1.7h.9c1.4 0 3.3 1 3.5 1.9 0 .4.9 1.4 1.7 2.3 1.2 1.3 1.6 1.5 2.2 1.4.7 0 4.4 1 5.3 1.7.7.5 1.5 0 1.5-.8zm-5.4-3.2c-.1-.2-.6-.6-1.1-.8-.9-.3-1.1-.7-.7-1 .8-.5 2.8 1.4 2.2 2-.2.2-.3.2-.4-.2zm3.7-1.7c0-.1-.5-.4-1-.5-1.1-.3-1.5-1-1-1.5l.5-.5.7.4c.4.2.8.6.9.8 0 .3.4.5.8.5 1 .2 1 .9 0 1-.4 0-.8 0-.9-.2zm6 0c0-.2 1.1-1.3 1.5-1.3.5 0 .4.4-.2 1-.5.5-1.4.8-1.4.4zm-13.8-1.5c-1.7-1.3-2.4-2.5-1.8-3l1.7-.4c1-.1 1.4 0 1.7.3.2.3.2.4 0 .7-.2.3-.2.5.1.7.2.2.4.6.4.9v1.2c.2 1-.4 1-2.1-.4zm16.6-.2-.6-.7.7-.7.7-.7.3.6c.4.7.7.7 1 0 0-.5.2-.5.4-.2.1.2 0 .5-.3.8l-.6.7c0 .2-.2.4-.4.5-.4.3-.7.2-1.2-.3zm-9-2c-.4-.2-.7-.4-.7-.6 0-.4 1-.2 1.6.3.7.6.3.7-1 .2zm6-.7c-.4-.2-1-.4-1.4-.4-.4 0-1-.3-1.5-.7-.9-.8-1-.7 2.5-2.2l2.8-1.3c.1-.2.5-.3.7-.3.4 0 .5.2.3.6 0 .4-.3 2.8-.3 4.5 0 .4-2.2.2-3-.2zm1.5-.9c0-.1-.2-.3-.4-.3a6 6 0 0 1-1-.1l-.6-.2.5.4c.6.5 1.5.6 1.5.2zm-22.2.9c-.4-.2-.4-.9 0-.9.7 0 1.3.3 1.3.7 0 .4-.6.4-1.3.2zm6.7-1.4c-1-.3-1.4-.6-1.4-1l-.1-.6 1.7.2h1.7l.2-.5c.2-.5.3-.5 1-.4l.9-.1c.2-.4 1.8-.3 2.2.1.2.2.8.4 1.4.4.7 0 1 .2 1.2.4.2.8-.4 1-2.6 1.1-1.6 0-2.3.2-2.4.5-.3.5-2.1.5-3.8 0zm20.3.2c0-.2 0-.8.2-1.4.3-.7.3-1 0-1.1v-2.1c0-1.1 0-2.3-.2-2.7-.4-1-.5-2-.2-2.1.2 0 .8 1 1.3 2.5 1.1 3 1.1 3.5.1 5.8-.6 1.4-.8 1.6-1.2 1.1zm-24.3-3.7c-.3-.4-.4-.6-.2-.8.4-.4 2.3.4 2.1 1-.1.5-1.3.4-1.9-.2zm3 0c-.2-.5.2-.9.6-.6.4.2.3.9-.1.9-.2 0-.4-.2-.5-.4zm16.7-1c0-.8.3-1.4.7-1.4.6 0 .7.6.3 1.3-.5.7-1 .8-1 0zm-1.7-1.4-.4-.8.4-.4c.6-.4 1-.3 1 .2l.3.9c.2.3.1.5-.1.7-.6.4-.7.3-1.2-.6zm-15.1.2.1-.7c.2-.3.4-.2.5.1l-.1.8c-.2.2-.4.1-.5-.2zm1.2-.8c0-.2.2-.4.4-.4s.4.2.4.4-.2.4-.4.4a.4.4 0 0 1-.4-.4zm15.6-.8-.5-.5c0-.3.6-.2 1.1.2.7.5 0 .8-.6.3zm-10-6.4c0-.4 1.5-1.8 1.7-1.6.3.2-1 1.8-1.3 1.8-.3 0-.4-.1-.4-.2zM56.2 37.9l.9-1 .7-.7-.9.4a3 3 0 0 0-1.1 1c-.3.5-.1.6.4.3zm25.5-.5c0-.3-1.4-2.6-1.7-2.8-.2-.1-.6-.7-.8-1.2-.6-1.2-1.8-2-4.9-3.1-2.2-1-4.5-2.2-4.7-2.9-.2-.4-2.6-.2-3.4.4-.8.5-2.3.7-2.6.2-.2-.2 0-.3 1.2-.6.6-.1.7-.3.7-1 0-.9-.7-1-1.7-.3l-2.3 1.2a9 9 0 0 0-3.3 2.3c-2.1 2.2-3.1 3.7-2.6 3.9.2 0 1.4-.4 2.6-1a8 8 0 0 1 3.4-1l1.3-.1.3-.8c.3-.8.8-.8.8.1 0 .4.1.5.6.4l1.2-.6c.7-.5 1.7-.5 2.1 0 .2.3 1 .6 1.7.8l2.3 1c.8.5 1.2.5 2.5.4l1.5-.2 1.1 1.3c2.4 2.6 3.6 3.8 4.1 3.8.4 0 .6-.1.6-.2zM59 30.8c0-.4 1-1.2 1.7-1.2.4 0 .3.2-.3.8-.8.9-1.4 1-1.4.4zm13-.1c0-.2 0-.3.3-.3.2 0 .4.1.4.3l-.2.2c-.2 0-.4 0-.4-.2zm-10.7-1.8c.4-.7.9-.8.8-.1 0 .2-.3.5-.6.5-.4 0-.4 0-.2-.4zm7-.9c0-.1 0-.2.2-.2.1 0 .2 0 .1.2 0 .2-.2.3-.3.3V28zm-9.1 8.5c.3-.3.5-.6.4-.7 0-.1-.5.1-.8.5-.9.8-.5 1 .4.2zm-5.3-1.3c.8-.7.7-.9-.4-.4-1 .4-1.7 1-1.7 1.5 0 .3 1.3-.4 2-1zm5-1.1c0-.2.3-.2.6-.2.5.2 2.5-.9 2.4-1.2 0-.4-2.4-.3-2.9.1-.2.2-.6.5-1 .6-.7.5-.8 1 0 1 .4 0 .7-.1.8-.3zm6.1-.7c1-.5 1.4-1.4.7-1.4-.8 0-2.2 1-2.2 1.5s.4.4 1.5-.1zm15.4-13.8c.6-1.2.6-1.4.3-1.4S79 20.1 79 20.4c0 .1.1.2.4.2.2 0 .6-.4.9-1zm-7.7-.9c0-.5 0-.5-.3-.2-.3.5-.3.8 0 .8.2 0 .3-.3.3-.6zm2.6-.5c.3-.3.6-.9.7-1.2.2-.5 4-3.7 5.4-4.4.8-.4 1.5-1.4 1.3-1.7-.2-.2-1.4.6-2.2 1.3a22.6 22.6 0 0 1-4 3c-.4.1-.8.4-1 .8 0 .3-.6.7-1 .9-.7.3-.8.3-.4.6.2.1.4.4.3.7-.2.7.2.7.9 0zm-2-.5c.4-.5.1-.5-.4-.1-.5.3-.5.4-.1.4.2 0 .5-.1.6-.3zm8.7-.6-.5-.8-.4-.4-.6.5c-.8.8-.8 1.3 0 1.4.7 0 1.5-.2 1.5-.7zm3.6-.6c.7-.6.8-.8.7-1.3-.2-1 .3-2 1.5-3 1.1-1 1.3-1.4.6-1.4-.8 0-5.6 4-5.6 4.7 0 .6.4.4 1-.4.7-.8 1.3-1 1.3-.5 0 .2-.1.5-.3.7-.6.6-.9 1.9-.5 1.9.2 0 .8-.3 1.3-.7zm27.2-3.4c.5-1.3.6-2 .2-2.4-.5-.5-1.4-.5-1.4 0l.4.7c.6.4.5 1.2-.2 1.7l-.6.4.8-.2.8-.2zm-3.2-1.2-.1-.4c-.4-.2-.3-1 0-1.4.3-.2 1-.3 1.7-.4l1.8-.1.5-.1-.5-.4c-.8-.6-2.9-.4-4.7.5-.3.1-1 .2-1.4 0-.4 0-.9 0-1.1.2-.4.2-.3.3.1.8.3.3 1 .6 1.3.6.4 0 1 .3 1.2.5.5.5 1 .6 1.2.2zM15.1 91c0-.3-.3-.4-.6-.3-.4.1-.6 0-1-.8a6 6 0 0 1-.3-2c0-.5-.3-1.6-.6-2.5l-.9-3.4a6.6 6.6 0 0 0-1-2.6c-.6-.6-.7-1-.7-2.2 0-1-.2-2-.5-2.6-.3-.7-.6-1.7-.5-2.3a34.3 34.3 0 0 0-1.8-10.7 114 114 0 0 0-.7-3c-.3-1.3-.1-1.3.4-.2.6 1.2.8 1.2.6 0-.4-2.3-1-4.9-1.3-4.8-.4.1-1-2.7-.7-3.3.3-.5 0-3.2-.7-5.8A40 40 0 0 1 3.4 36a69 69 0 0 0-1.5-10.1A193.5 193.5 0 0 1 0 11.6c.2-2 1.4-4.4 2-3.9 0 .1-.1.5-.5 1-.8 1.1-.6 1.7.8 1.9 1.2.2 1.5.3 1.2.7-.3.6-1.7.4-2-.2-.2-.4-.4-.5-.6-.3-.2.2-.1.7.2 1.8.3.8.4 1.6.3 1.9 0 .2.1.8.4 1.2.3.5.5 1.3.5 1.8s.2 1 .4 1.3c.5.4.5 1 0 1.2-.4.1-.4.4-.2 1.8l.2 2.7A22.2 22.2 0 0 0 4 30.8c0 .3.2.7.3.8.5.3.1-3.3-.5-5.6-.3-1.1-.4-2-.3-2.2.2-.3.2-.3.4.1l.9 2.1c.4 1.2.6 2.3.7 4.2l.2 2.6H5c-.5 0-.5 1.4-.2 2.8.3 1 .1 3.3-.3 3.3-.1 0-.1-.4 0-.8 0-.4 0-.9-.2-1-.3-.2-.3 1.8.1 3.2.2.7.5 1.2.6 1.2.6 0 1 .7 1.1 2.1.1 1 .3 1.3.4 1v-1.1c-.4-1.2-.6-4.6-.3-4.6.1 0 .3.4.3.9s0 1 .2 1c.2.2.3.8.3 1.5s.2 1.5.4 1.8c.7 1 1.5 7.7 1 7.7s-1-1-.6-1.1c.2-.2.1-.4-.1-.8-.3-.3-.4-1-.4-1.5s-.2-1.1-.3-1.3c-.2-.3-.3-.1-.2.6 0 1.5.5 4 1 4.5.2.3.5 2 .8 3.8.6 4.3 1 5.9 1.4 6.4.2.2.4 1.2.5 2.1a15 15 0 0 0 1.2 5.3c.3.4.3.3.3-.4l-.4-3.1-.5-3.9c-.3-3-1-6.3-1.4-6.2-.1 0-.3-.1-.4-.5-.2-.7 0-.8.6-.4.7.4 1.3 1.8 1.3 3 0 .6.3 1.5.6 2l.8 2a75 75 0 0 1 1.8 7l.3.4.2-.4c.4-.6.4-2.1 0-3.4-.3-.6-.6-2.6-.8-4.3a37.6 37.6 0 0 0-1.4-7.8c-.2-.9-.5-2.4-.5-3.4-.1-1.1-.4-2.2-.8-3l-.7-1.3.3-1.2c.3-1.4.2-2.4-.6-3.4-.3-.4-.6-1.5-.8-2.4a29 29 0 0 0-.8-3.3c-.5-1.7-.8-5.3-.5-5.5.1 0 .3.9.4 2 0 1.3.3 2.7.5 3.1.3.5.6 1.7.8 2.8.2 1.2.7 2.3 1.1 3l.7 1-.1 1.7c-.1 1.1 0 2 .2 2.8.3.6.6 2.3.8 3.8a48 48 0 0 0 1 5.3c.5 1.7.7 3.2.7 4.7 0 1.9.1 2.4.6 3.2l.6 1v3.2c0 1.9.2 3.6.4 4.3.3.8.3 1.2 0 1.4-.4.4-.8-.1-.8-1.1l-.3-1.3c-.1-.5-.2-.1 0 1 0 1 .2 1.9.4 2l.4 1.3c.1.4.3.8.5.8h1.3c1-.1 1-.2.5-1.5-.3-.8.5-.5 1 .3.4.8 1.6 1.2 3 1 .3 0 .5.1.6.5 0 .4 0 .4-.7.3-.5-.2-.6-.1-.6.1.1.2.5.4 1 .5 1 .2.9.7-.3.8a3 3 0 0 1-2-.5l-.9-.6-.7.5a2 2 0 0 0-.8 1.4v.9l.4-.4c.5-.4 1.2-.1 1.2.5 0 .4.1.5.7.5l.8-.1.3 1.5c.2.9.5 1.6.6 1.6.1 0 .2-.2 0-.5V82l.3-.6.4.7.4.8.3-.5.3-.4.2.4c.1.3.4.4 1 .3l.7-.2.1 1.1c0 1 0 1.1-.5 1.3l-.7.5c-.1.2-.4.2-.8 0-.3-.3-.8-.5-1-.5-.4 0-1-.2-1.4-.4l-1.2-.4c-1 0-1.8-.6-2.1-1.4l-.3-.8-.3.5c-.3.6 0 1.7.5 2 .3 0 .6.2.8.4.2.2.5.3.7.2.3-.1 4.2 1 4.6 1.4 0 0 0 .3-.2.5-.3.3-.3.7 0 1.5.3 1.2 0 2-.7 1.6-.2-.2-.3-.1-.2.3 0 1-.8.8-1.2-.3a3 3 0 0 0-1-1.6c-.3-.2-.8-.7-.9-1-.2-.7-2-1.4-2.4-1-.2.3 0 1.6.6 2.6.4.6 0 1.5-.5 1.5a2 2 0 0 0-1 .4c-.7.5-.9.5-1 0zm7.2-3.5c-.3-.3-.4 0-.2.7l.2.7v-1.4zm2.4-3.7-.3-.4-.1.4.2.4c.2 0 .2-.2.2-.4zm-9.2-2.9c-.2-1.2-.5-3-1-4.3 0-.2 0-.3-.2-.2-.1.1.4 5 .6 5.6 0 .2.3.4.4.4.2 0 .3-.5.2-1.5zm-2.3-2.5c0-.6-.1-.8-.5-.8-.3 0-.6-.1-.8-.3-.6-.6-.6 0 0 1 .8 1.3 1.3 1.3 1.3 0zm.1-2.8-.8-3c-.2-1.1-.6-.7-.6.5 0 .8-.2 1-.6 1.2l-.6.2.5.1c.4 0 .8.4 1 .8.5.7 1.4.9 1.1.2zm.5-4.5c-.2-2-.7-4.4-1.2-6-.5-1.3-.6-.6-.2 1l.7 3.3c.4 2.5.6 3.2.8 3.2V71zm35.3 20c.4-.4 8.6-.5 8.7-.1l-4.4.3c-2.9 0-4.4-.1-4.3-.3zm-30.6-1.4c-.2-.2-.4-.8-.5-1.2-.1-.8 0-.9.4-.8.5.1 1 1.7.7 2.1-.2.2-.4.1-.6-.1zm5.8-.5c-.3-.9 0-1.3.5-1 .6.3.9 1 .7 1.3-.3.5-1 .3-1.2-.3zm101.6-.6a28 28 0 0 1-3.4-.6c-1.5-.5-7.4-1-8-.6-.5.3-6.1-.1-7.3-.5-.6-.2-.9-.5-.8-.8 0-.6 1.3-.7 1.8-.2.4.6 1 .6 1.1 0 .1-.3.6-.4 2.2-.3a72.8 72.8 0 0 1 12.6 1.2c.7-.1 1 0 .8.2 0 .2.2.4.6.5.9.2 1.2 0 .6-.5l-.5-.3 1-.4c.6-.2 2-.3 3.3-.3h2.4l.6.6c1 .9.8 1.2-.4 1.8-1.2.7-2.7.7-6.6.2zm4.7-1.5h.7l-.5-.2c-.7-.3-2.3-.4-2.3 0 0 .3.6.5 1 .3a5 5 0 0 1 1.1 0zM28.4 84.7l-.1-.8c0-.7.6-.7.7 0 .1.6-.3 1.1-.6.8zm2.2-1v-.5c.2-.2.8.4.8.7 0 .4-.7.3-.8-.1zm3 .2c0-.2 0-.3.2-.3s.3.1.3.3c0 .1-.1.2-.3.2a.3.3 0 0 1-.2-.2zm65-1.3h.6c.2.1 0 .2-.3.2-.4 0-.5-.1-.3-.2zm-8.7-1.1c0-.2.1-.3.3-.3.1 0 .2.1.1.3l-.3.2v-.2zm-8.4-.5h.8c.2.1 0 .2-.5.2-.4 0-.5-.1-.3-.2zm-9.6-.2h.5l-.4.1c-.3 0-.3 0-.1-.1zm42.6-.4c-.2-.1-.2-.2.2-.4.7-.2 1.2 0 1 .4-.2.3-.7.3-1.2 0zm-85.7-.9c0-.2.1-.4.3-.4l.2.2-.2.5c-.2 0-.3 0-.3-.3zm54.4 0c-.3-.4.1-.7 1.1-.7h1l-1-.3-.9-.3L85 78c1.5-.1 2.3.3 1.9 1-.3.3-3.3.7-3.6.4zM23 75.8c0-.4 0-.7.2-.7s.3.3.3.7c0 .4-.1.7-.3.7-.1 0-.2-.3-.2-.7zm-1.6-2c-.2-.4-.2-.9-.1-1 0-.3.3 0 .5.5.4 1 .5 1.3.1 1.3l-.5-.8zm-3-1.3c-.2-1 .1-4.8.4-4.6.2.1.2 5.4 0 5.4s-.3-.3-.4-.8zm97.7 0c-1.2-.3-1.2-.3-.7-.6a7 7 0 0 1 2-.2c1 0 1.4.1 1.7.5l.5.5h-1.5l-2-.1zm11.9-1.4-3.5-.3c-1.9 0-3.5-.2-3.6-.3-.2-.1-2.4-.2-4.9-.2-3.3 0-4.3 0-3.9-.2 1-.4 12-.1 14.5.3 1.7.3 2.9.8 1.9.8l-.5-.1zm-110.7-.6-.2-.9c0-.5.1-.6.3-.4.2.2.3.6.2.9 0 .3-.1.5-.3.4zm6.6-.2c-.1-.1-.2-2.1-.2-4.4 0-3.5 0-4.2-.5-5.2-.6-1.5-.6-2 0-1.4.7.7 1 2.6 1.2 6.8.2 3.7 0 5-.5 4.2zm-3.3-.5c0-.1.1-.2.3-.2.1 0 .2 0 .2.2s-.1.3-.2.3a.3.3 0 0 1-.3-.3zm94.3-.8c.3-.2 1.1-.4 5.6-1a92.5 92.5 0 0 0 3.3-.4c0 .4-3.4 1.3-4.1 1.1-.4 0-1.4 0-2.3.2-2 .5-2.8.5-2.5.1zm10.2-1.6h.9c.2.2 0 .3-.6.3h-1zm-99.8-3.3v-2.9c0-1.5 0-2.5-.3-3.8a71.6 71.6 0 0 1-2-8l-.4-3.2c-.1-1.6-.4-4-.7-5.5-.2-1.4-.3-2.7-.2-3 .2-.3.3-.2.8 2.6.3 1.2.5 3.5.6 5 .1 2 .3 3.2.5 3.6.3.3.5 1 .5 1.5.2 1.8 1 5.8 1.3 6.3.2.3.3 2 .4 3.9l.1 3.6c0 .2 0 .5-.2.5-.1 0-.3-.2-.4-.6zm-8.9-2.4c-.4-1.9-.7-4.5-.5-4.3.3.3.7 2.2.9 3.5l.2 1.6v.5c-.2 0-.5-.6-.6-1.3zm1.4.7c-.3-1.2-1-5.6-.8-5.7.2-.2.8 1.1.8 2l.4 2.3v1.5c-.1.2-.3.1-.4 0zm9-1c-.3-.2-.1-.6.3-.6.2 0 .4.2.4.3 0 .3-.4.6-.7.4zm.2-4.3c0-1.7 0-2.3.2-1.8.3 1 .3 4.2 0 4.2-.2 0-.3-1-.2-2.4zm-4.8-1 .2-1.5c.2 0 .3.4.3 1.2 0 .7-.1 1.4-.3 1.5-.1 0-.2-.4-.2-1.2zm-5.8-2.6v-2.3l-.5-.8c-.5-.6-.6-1-.6-2.2 0-.8-.2-1.8-.4-2.4-.4-1-.3-1.4.2-1 .3.5.7 2.2.7 3.4 0 .6.3 1.4.5 2 .9 1.3 1.1 5.6.3 5.6-.1 0-.2-1-.2-2.3zm-1.6-.9-.3-2a440.2 440.2 0 0 0 .8 3.4l-.5-1.4zm7.5.8c-.8-1-1.2-2.7-1.2-5.4 0-1.5 0-3-.2-3.2-.3-.6-.5-1.3-1-4.9-.2-1.3-.6-3.7-1-5.1-1.2-4.9-2-11.8-1.2-11.8.3 0 .5.7.5 2 0 1.6 1 8.3 1.4 9.7.6 1.8 1 3.8 1 5.3 0 .7.2 2 .5 2.9.5 1.3.6 2.3.6 4.7 0 2.5 0 3.2.5 4.3.6 1.3.6 2.2 0 1.5zm3.6-1c0-.7 0-.8.4-.6.2.2.4.7.4 1 0 .4-.2.6-.4.6-.3 0-.4-.2-.4-1zm-11.6-3.7c0-.5 0-.7.1-.5v1l-.1-.5zM25 46.6c-.3-.4.1-3 .4-2.8.3.4.4 2.8 0 3-.1 0-.3 0-.4-.2zm83.7-6c0-.2.1-.4.3-.4l.2.4c0 .2 0 .4-.2.4s-.3-.2-.3-.4zm-94.8-.3A35.3 35.3 0 0 1 11.5 28l.2-.6.2.5.2 1.9c0 1.6.6 4.4 1.5 7.2.6 2 .8 4 .3 3.3zm26.6-1.5c0-.1-.2-1.8-.2-3.7 0-2-.2-4.4-.4-5.6-.5-3.7-.6-4.4-.3-4.4l.4 1c.1.6.3 1.2.5 1.4.2.3.2-.3.1-1.9-.1-2.3-.9-4.4-1.6-4.4-.4 0-.6-.7-.8-3.4l-.6-3.3c-.4-1.8-.4-2.3 0-2.3.2 0 .8 2 1.3 4.5.1.9.4 2 .6 2.3a13 13 0 0 1 1.2 3c0 .3.2.5.4.7.3.3.4.1.5-.6.3-1.4.5-1 .6.9 0 .8.2 2.6.6 4 .5 2.3.8 6.8.3 5.7-.1-.3-.3-1.2-.3-2l-.4-2.6-.5-2.3c-.1-.8-.3-1-.4-.7-.4.7-.3 2.6.3 4.6.6 1.6.6 2.3.5 4.3 0 1.8 0 2.6.4 3.4.5 1.2.5 1.2.1 1.2-.6 0-1-1.7-1-4.6 0-2.3 0-3.2-.5-4l-.5-1.2-.2.7c0 .3 0 1.2.3 2 .2 1 .2 1.5 0 2.1-.2.5-.2 1.7-.1 3.2.2 2.3.1 2.6-.3 2zm4.5-4c0-.3 0-.4.1-.2v.5c-.1 0-.2 0-.1-.3zm67.6-1.2c-1.2-.2-1.7-.8-.7-.8 1.3 0 2.4.3 2.4.7 0 .4 0 .4-1.7.1zM6.8 22.6c0-1.5 0-2-.5-2.4-.8-.7-1.4-3.7-1-5.7.1-1 .4-1.9.6-2 .2-.3.3-1.1.3-2.3V8.4L5.3 8c-.4-.1-.7-.4-.7-.6 0-.2-.3-.4-.6-.5L3.5 7l.5-.4.4-.6c0-.2.4-.7.7-1.1.5-.6 1-.9 2-1 .6 0 1.8-.4 2.6-.7 1.2-.4 2-.5 4.8-.4h3.3l1.5-1 1.8-1c.5 0 .3.7-.2 1.3-.3.2-.6.6-.6.8 0 .6-2.3 1-6.2 1-3-.1-4.7.1-7.2.8-1.8.5-2.1 1.4-1 2.5.8.8 1.5 2.8 1.5 4.3 0 .7.2 1.2 1 2 1.2 1.5 1 2-.5.8l-1.2-1-.5 1.6a4.5 4.5 0 0 0-.2 3c.2.7.5 1.6.8 2 .6.9 1 2.6.7 3.8-.3 1.6-.7 1.1-.7-1zm38-3.7C44 11.2 43.6 9.8 43 8.5c-.8-1.5-1.6-2.1-3-2.3-1.2 0-1.6-.3-1.6-1s-1-1.3-2.5-1.4c-.9 0-1.7-.3-2.3-.7-.9-.6-2-1-4-1.7l-3.4-.2h-3V.6c0-.6 1.4-.8 2.8-.4.6.2 1.2.2 1.6.1.4-.2 1.1 0 2.1.3 1.3.3 1.7.4 2.1.1l.5-.3 1 1.1c.6.6 1.3 1.1 1.6 1.1 2.8.1 3 .2 3.8 1 .3.5 1.3 1.1 2.1 1.5 2.2 1 2.8 1.8 3.4 3.8 1 3.6 2 12.5 1.4 13.4-.1.3-.4-.7-.7-3.4zm-28.1 2.3c-.2 0-.3-.6-.3-1.4 0-1.3.4-1.7.6-.7.3 1 0 2.3-.3 2.1zm11.8-3.4A13 13 0 0 1 28 15c-.2-1.8-.1-2 .3-2 .3 0 .4.2.4 1 0 .7.1 1.7.3 2.3.4 1.5.4 2 0 2.1-.2.1-.4-.2-.6-.6zm-13.8-.5-.2-1.7v-1.2l.4.5c.4.6.5 2.4.2 2.7-.2 0-.3 0-.4-.3zm26.1-4.4c0-.6-.4-1.8-.7-2.5-.5-1.7-.6-2-.2-1.9.4.1 1.6 4 1.6 4.9 0 1-.5.7-.7-.5zm-27.6-1.5c0-.2.1-.3.2-.3.2 0 .3.1.3.3 0 .1-.1.2-.3.2a.3.3 0 0 1-.2-.2zm-.6-2-.2-.7c0-.7.6-.5.7.2.1.6-.2.8-.5.4z"/>
</svg>
