<?xml version="1.0" encoding="utf-8"?>
<svg xmlns="http://www.w3.org/2000/svg" xmlns:svg="http://www.w3.org/2000/svg" version="1.1" viewBox="0 0 295 161">
  <title>Duchess watches on while Ribby cuts the pie.</title>
  <path d="M133.7 159.8c-1-.1-2.2-.3-2.6-.5-1-.4-4.5-.8-7-.8-2.6 0-8.5-.7-9.2-1.1-1.3-.7.4-1.8 2.7-1.8.6 0 1 0 1-.2l-3.4-.1c-3.6 0-9.9-.4-11.4-.8-1.7-.4-1.6-1.5 0-1.6l-5.9-.2-6.6-.2-.5.6c-.3.4-.8.6-1.3.6-.6 0-.7.1-.7.7 0 .8-.7 1-1.5.5l-.6-.4v-1.8c0-1-.1-2-.3-2l-6.8-.3-7.2-.4c-1.3-.5-.4-.9 3.4-1.3 4.4-.6 5-.7 2.7-.8-2.2 0-6.7-.7-7.4-1-.8-.4-.9-.4-.9.3 0 .4-.2.7-.6 1-.4.1-.7.4-.7.8 0 .7-1.4 2-2.2 2-1.1 0-1.2-.4-1-4 0-2.7 0-3.5-.4-5.4l-.8-2.4c-.1-.2-7.3-.5-12.5-.5-4 0-5.5-.4-5-1 .2-.2.6-.4.9-.4.3 0 .7-.1.7-.4.2-.3 1.1-.3 5.5-.3 3 0 5.3.2 5.3.3 0 .2-1.4.4-3.2.6l-3.3.2 3 .2c5.6.4 8.3.4 8.3 0 0-.3-.9-.6-1.9-.6-1 0-1.8-.7-2-1.9-.1-.5-.3-1-.5-1.2-.1 0-2.4-.2-5-.2-3.1 0-4.8-.2-5-.4-.2-.2-.2-.3.3-.4.3-.1.6-.4.6-.6 0-.3.3-.6.7-.8.4-.1 1-.4 1.3-.7l.5-.4h-.7l-4 .3c-3.6.3-4.8 0-4.2-.7.3-.3 1-.4 3.2-.4 3.4 0 2.3-.5-1.5-.5l-2.8-.2c-.6-.1-.6-.8 0-1 .2-.2.3-.3 0-.6-.3-.4-.3-.4 1.7-.8 2.4-.6 4.7-2 4.7-2.8 0-.5-1.4-2-2.3-2.4-.5-.2-1.5-.5-2.3-.6a29.7 29.7 0 0 0-7.5-1c-3-.2-3.8-.3-3.8-.6v-.4l5.6.2h5.5l-1.8-.5c-1.4-.3-3.4-.5-7-.5-4.7 0-5.8-.1-5.3-.7.4-.4 4-.4 8.6-.1 5 .3 5.6.5 8 1.8l1.1.5.5.2-.4.4-.5.3.9.2c.5.2.9.5 1 .8 0 .3.3.7.8.9 1 .4 1.1.9.6 2.1-.3.9-.7 1.2-2 1.8-.7.4-2 1-2.7 1.1-2.7.7-2.7.7 1 1 1.7.2 4 .6 5 .9 1.2.3 2.8.5 3.7.5H58l.5-.7.5-.7-.3-1.5c-.6-3-.8-4.6-.8-6 0-1-.2-1.7-.4-2-.2-.3-.3-.6-.2-.8L57 117c-.3-1.3 0-7.4.6-10.5a60 60 0 0 1 4-11c.3-.7.6-1.9.7-2.8.1-1.4 0-1.7-.4-2.1-.6-.6-1-2.1-1-3.5 0-.5 0-1.6-.3-2.5-.2-1.2-.2-1.8.2-3.5l.6-2.7c.8-2 1.1-11.3.5-14.2-.2-1.3-.2-2.8 0-7.4a55.6 55.6 0 0 0-.4-16.5c.2-.3.2-.5 0-1-.2-.3-.2-1.3-.2-2.2.2-2 .7-2.4 2.4-2.4.8 0 1.2.2 2.1 1l1.3 1.5.1.5h3.8c2.6 0 4.5.2 6 .5 1.8.4 2.4.5 3.6.2l2.7-.3c1.3 0 2.2-.7 2.2-1.7 0-.4.1-.7.4-.7.2 0 .4.2.4.4 0 .6 1 .5 1.4-.2.3-.5.4-1.6.5-5.3 0-2.8.2-4.5.3-4.5.4.1.3 0 .4 4.7v3.6h.5c.3 0 .6-.2.7-.3 0-.4 0-6.5-.2-8.1 0-1-.3-1.2-1-.9-.6.4-.7.2-.6-1.4.2-1 .3-1.3.8-1.5.6-.2.7-.4.5-1l-.3-4.6c0-2-.3-4.6-.4-5.5-.3-2.2-.1-3.3.7-3.6.7-.4 1.7-.2 1.7.3L91 9a103.9 103.9 0 0 0 0 11.9l.2-5.3c.2-4 .3-5.5.6-6 .6-1.1 1-1 1 0 0 1.2.2 1.2.7.1.3-.5.5-.8.7-.7.2.1.3 11.5.1 18 0 2.2.3 5 .6 5.5.3.3.4.3.7-.1l.3-.5.2.5.6 1c.6.6.8 2.7.9 7.3v3h1.1l.1-2.3.2-2.4.3.8c.2.4.3 1.1.3 1.6 0 1.1.2 1.7.7 1.7.6 0 1-.8 1-2l-.1-1.1h.6c1 0 1.3-1 1.3-3.7 0-1.8.1-2.4.4-2.4.2 0 .4-.1.4-.3 0-.1.4-.4.9-.5 1-.4 1.2-.8 1.1-2.7 0-1.3.3-2.4 1.1-5 .7-2 .6-3.3-.2-3.5l-.5-.1v-3.1c0-2.4 0-3.2-.4-3.4-.5-.3-.7-.3-1 .3-.3.3-.5.4-.7.3-.5-.3-1-2.1-.8-3.2l.4-2.7c.1-2.1.4-2.4 1.9-2.2 1.1.2 1.7.7 1.5 1.3 0 .1 0 .6.3 1 .2.4.2.9.2 1.1v.6c.5.2.7-2.5.4-3.4-.3-1 0-1.3 1-1.2h1.7c1.6-.4 2.2 0 2 1l-.4 2.3-.1 1.4.6.4.6.4-.6 2.6c-.3 1.8-.4 2.8-.2 3 .4.4 1.1.3 1.3-.3.2-.8.9-.7 1.3.2.2.5.5.7 1.3.7l4.4.4c2.5.3 4.1.3 6 .1 2.3-.3 3.4 0 2.6.4-.6.4-5.7.6-8.2.3-1.2-.1-2.4-.2-2.6-.1l-1 .2-.7.2-.1 2.2c-.2 2.2-.6 3.8-1 4.3-.2.1-.2-1-.1-3.5.1-2.8 0-3.8-.1-4-.5-.2-1 .3-1.3 1.4l-.3 1v-1c0-.7-.2-1-.6-1.2-.7-.4-1.3-.2-1.3.5 0 .3-.2 1-.5 1.6-.4.7-.5 1.6-.5 2.8 0 2-.3 2.8-1.2 2.8h-.7v1c0 1.1.7 2 1 1.2 0-.3.2-.3.5-.1.3.2.3.7.2 2l-.2 1.7h.5c.3-.1.6-.5.7-1.2.2-.8.4-1.2.8-1.4l.6-.2v-2.1c0-2.3.3-3.6.7-4 .2-.2.3.4.2 1.9l-.3 2.5c-.1.6.7.4 1-.2.1-.4.5-.6.8-.6.2 0 .8-.4 1.1-.8 1.1-1.2 4.9-3.2 5.8-3.1.8 0 .9.2.5 2.7l-.2 1.3 1.4 2c1.4 2.2 1.6 3 .8 3-.5 0-2.4-2.3-3.2-3.9-.5-.8-.7-1-1.2-.8-.8.1-1.6.5-2.5 1l-.7.5 1.7-.2c1.8-.2 2.1 0 1 .8l-.5.4.6.2c.9.2.7.8-.4 1.1-1.5.5-1.7.8-.6.8.7 0 1 .2 1.2.4.1.3.6.3 2.8.2l2.7-.1 2.5.7c1.4.4 3.4 1.1 4.4 1.6a11 11 0 0 0 8.5 1c1-.4 1.2-.4 1.6 0l.4.4-1 1.3c-.5.7-2 2.4-3.3 3.7a33.6 33.6 0 0 0-2.5 3c-.3.4-.6.6-1.2.6-.7 0-.9.1-.8.4.3 1.3.3 1.6 0 2.5-.5 1.1-1.1 1.5-1.7 1-.3-.2-.3-.5 0-1.2l.3-1.3c.1-1.3.5-1.7 1.6-2.3 1.8-.8 3-1.6 3-2l.2-.4c.2 0 .3-.1.3-.3l1.5-1.9c2-2.2 2-2.3-.8-1.6l-4 .8c-2.6.4-4.7 1.2-5 1.8 0 .3-.3.4-.5.4-.3 0-.4.1-.4.2 0 .5-2.8 3.3-3.3 3.3-.6 0-.6.2 0 1.5.4 1 .1 2-.5 2-.2 0 0 .1.3.4 1.3.8 1.3 1.1.5 2-.7.6-.7.8-.4 1 .1.2.3.6.2 1 0 .4.1.6.7.7l1.2.3c.3 0 1.6-.7 2-1.3.3-.3 1.3-.7 1.8-.7.3 0 .4.1.2.8l-.2.8.9-.5 2-1.7 1.1-1.2v-1.5c0-1.8.3-2.3.8-1.6.7 1 0 4-1.3 5-.4.2-.5.5-.3 1.1l.1.9-.7.1-1.3.4c-.6.2-1.7 2.2-1.7 3 0 1.2-.4 1.7-1.8 2.4-1.5.8-1.6 1-1.2 1.7l.5 1.1.3.7 1.8.2c1.3 0 2.1 0 2.7-.3 1.4-.5 3.7-.4 5.3.3 1.7.8 2.2 1.7 2.1 4.1 0 1.6 0 2 .5 2.3l1.6 1.3c1 .7 1.5 1 3.6 1.3 1.4.3 2.6.5 2.7.4.3-.4.3-2.1-.1-3.7-.7-2.4-.5-2.9.7-2.9 1 0 1.9.4 1.9.8 0 .1-.3.2-.7.2-.6 0-.7 0-.7.5.3 1.9.5 2 2.3 1.2l1-.5-.5-.4c-.6-.3-.6-.5-.3-1 .1-.3.2-.6.1-.8-.3-.5.4-1.3 1.4-1.6l3.4-.2c1.8 0 2.5-.1 2.7-.4.5-.6.7-.5 1.8.2l1 .7 1.5-.2c1.3-.1 1.6 0 2 .4.6.6.8 1.4.4 1.4-.2 0-.3-.2-.3-.4 0-.7-1.3-1-2.7-.6l-1.3.3-.4-.6c-.4-.6-1.4-.8-1.4-.3 0 .3-1.8 1-2.6 1h-.7l1-.3c1.7-.4 1-.9-1.3-.8-2.8.2-3.3.4-3.3 1.4 0 1 1.5 2.7 2.8 3.1.5.2 2 .3 3.9.2 2.3-.2 3-.1 3.2.2.1.2.1.4 0 .4-.2 0 0 .4.3.8.5.5.8.6 2 .6 2 0 2.4.5 2.2 3.2-.1 1.2-.3 2-.4 2-.2 0-.3-.3-.3-.7 0-.4 0-.8-.2-1-.2 0-.6-.6-1-1.1-.4-.7-.8-1-1.2-1-.4 0-.5 0-.3.5.2.8.3 2.9.1 2.9 0 0-.4-.7-.6-1.5-.4-1-.4-1.6-.2-1.8.2-.2.1-.5-.1-1-.5-.8-1.6-1-5.5-1-2.5 0-3.1-.2-3.1-.7 0-.4-2-.8-3.3-.5-1.1.2-2.2 1.3-2.4 2.6l-.1 1 1 .5c1.2.6 3.2 2.5 3.2 3 0 .2.5.6 1 1 .9.5 1.1.8 1 1.3v.6h.8l3.5-.3 2.7-.1.8.5 1.1.6c.2 0 .6.3.9.6.7 1 1.8 1.1 2.2.5.2-.4.2-.6-.2-.8-.3-.2-.2-.3.6-.4l1-.1c.2.1-.5 2-.8 2.3 0 .2-.7.4-1.2.5-.6.1-1.1.3-1.2.5a46.2 46.2 0 0 0 6.8.7c.7-.2 3-1.3 3-1.5H175c-1 0-1.9 0-2.6-.2l-1.1-.4 1.2-.4 1.3-.3-1-1c-1-1-1.2-1-1.8-.9l-.8.2.5-.8c.6-.7 1.2-2.5 1-2.7-.3-.3-1.4.3-1.5.8 0 .4-.3.7-.7.7-.7.1-.7-.2 0-.8.4-.5 1-3 .8-4.4-.1-1 .4-.7.6.4.4 1.2 1.1 1.7 1.6 1s2.6-1.4 4.7-1.6c2-.1 6 .2 7.3.7 1 .4.5.6-.7.3-1.5-.5-7.4-.7-8.6-.3a4 4 0 0 0-2.7 2.9l-.5 1.7c-.2.3 0 .4.6.4.4 0 .8.2 1 .4 0 .3.5.4 1.8.4 1.4 0 1.7 0 1.7.4 0 .3-.2.5-.5.6-.5.1-.3.2.8.6l1.4.4-.8.2-.8.2.4.7c.3.5 1 1.1 2.1 1.7 1 .4 1.7 1 1.8 1 .4.6-1.1.8-5.3.8h-4.4l-.7-.5-.8-.6-1 .3c-.8.2-1.3.2-2 0-1-.4-1.5-.2-1.5.5 0 .8 1.9 1 10.6 1 7.3 0 9.7.2 5 .5l-5.2.4-5.2.4h-2.3v.7l.1.6-1.6.2-2.8.6-1.2.4-2.4-.4-4.4-.8c-2.5-.4-3-.5-3.1 0 0 .1-1 .4-2 .5a2675.6 2675.6 0 0 1-7 .8 128.5 128.5 0 0 1 8.7.3 1493.6 1493.6 0 0 0 52.2-.3c1.5.3 5.4-.3 6-1 .7-.7 1.6-.4 1.2.5-.4 1.1-3.8 1.5-14.2 1.7a4006.2 4006.2 0 0 1-72.1 0c0 .4 1 1.8 1.4 1.8l1 .5.8.5-.6.4c-.8.6-.5 1 1 1.2l1.7.2c.3 0 .7.3 1 .6.7.6.8.5.6-.5 0-.8.3-1.5.6-1.1.3.2-.3 3.5-.6 3.5-.6 0-.7.1-1.2.5l-.5.3.5 1c.6 1.1.8 1.2 1 .1l.5-1c.2 0 .2 0 0 .4l-.2 1.3c0 .4-.1 1-.3 1.3-.3.6.5 2.3 1.2 2.5.5.1.8.8.8 2 0 .8.5 1 .5 0v-.5l.3.4c.2.3.3 1.2.3 2 .1 2.6.4 2.2.6-.6l.4-4c.3-1.8.1-3-.5-3-.3.1-.5 0-.5-.1s.2-.3.4-.3c.6 0 .9-.5.9-1.8s.3-2.3.6-2l.3 1.8c0 1 .2 1.7.2 1.8.3.3.7-.2.7-1 0-.6.2-.7.6-.7.3 0 .6.1.6.3.3.5-.3 4-.6 4.2-.2 0-.4 1.2-.4 2.9-.1 2.1 0 2.6.1 2a85.7 85.7 0 0 0 2.6-8.2l.6-1.2c0-.4.3-.7.5-.7s.4.2.3.4l-.3 1.5a59.9 59.9 0 0 0-3.6 16.7c0 1.3 0 1.7-.6 2.2-.6.7-.8 2.4-.3 3.1.3.5 0 1.3-.5 1.5-.7.2-.7 1 0 1l.6.1-.1 3c-.3 3-.1 4.6.3 2.9l.3-1.8c0-.5.4-1.2.7-1.6.4-.6.5-1 .4-2.3-.1-1.1 0-2 .2-2.8.3-.6.5-2 .6-3l.2-1.9-.6-.5c-.3-.3-.4-.6-.3-.8.2-.1.3-1 .2-2.1 0-1.4.1-2.1.5-2.6.2-.4.6-1.6.8-2.7.4-2 1-3 1.4-2.7l-.3 1.5c-.5 1.3-.4 2.2.2 2 .7-.3 1-1.5 1-3.3 0-1 .2-1.9.3-1.9.1 0 .2-.1.2-.4 0-.2.2-.3.6-.3.4 0 .5 0 .3.6 0 .4 0 .7.3.9.3.1.3.5 0 2.3a7 7 0 0 1-.6 2.2c-.2.1-.3 1-.4 1.9v1.7h-.6c-.6 0-1.2 1-1.2 2.3l-.4 3.2c-.3 2-.4 4-.4 9.3 0 3.2-.3 6.2-.6 6.2-.5 0-.7-.5-.9-2.4 0-.8-.3-1.6-.4-1.7h-.2l-.3 2c-.2 2 .3 5.8 1 6.9.3.3.7 1 .8 1.4.2.4.6.8 1 1 .4.1.6.4.5.6 0 .2 0 .5.2.6l.2.8c0 .3.2.7.3.8.4.2.3 1.2 0 1.6-.3.3-.3.5 0 1 .1.4.2.8.1 1 0 .2.2.7.6 1 .7.8 1.3 2.7 1 3.2-.3.5-.8.2-1-.6-.4-1-1.4-1.1-1-.2.2.8.6 1.3 1 1.3s.4.1.5 1.3c0 .3.3.9.7 1.2.6.4.8.4 1.1.2.3-.2.5-.7.5-1v-.8l.2.6.3 1.5c0 1.5-.5 1.6-4 .3-2.5-.9-1.9.3.7 1.5l2.4 1c.5 0 1 .3 1.3.5l.4.5-.4.4c-.5.5-1.8.6-2.6.2l-2-1.5c-.6-.6-2-1.5-2.8-2a19 19 0 0 1-2.5-1.4l-1-.8.4.6c.1.3.6.9 1 1.2.7.6.8.8.5.9-.5.2-1.7-.6-3-2.2-1-1.1-1.7-1.3-1.7-.5s-.8.4-1.3-.7c-.3-.8-.8-1.3-1.4-1.6-.5-.2-1.4-.9-2.1-1.5l-1.4-1c-.1 0 .2.8.5 1.2.1.1 0 .4-.2.7-.5.4-.5 1-.1 1.3.4.3.3.5-.6 1-1 .6-2 .6-2.8.1-.2-.2-1.3-.4-2.2-.5-1.6-.2-17.7.3-18 .5v.3c.3.3 6.8.6 15.6.9 5 .1 9 .3 9 .5.6.5-.4.6-4.4.6-5.9-.1-9.4.3-8.8.9.4.3 2.4.6 6.6.9a3976.6 3976.6 0 0 1 16.1.9c2 0 2.5.3 1.8 1-.5.5-3.1.5-7 .2zm7.5-6.5c-.4-.4-1.4-.5-1.4-.1 0 .3.5.5 1.2.5.4 0 .4 0 .2-.4zm-21.7-.9c2.3 0 4.4 0 4.6.2.5.2.6-.1.8-2.6l.1-2-.8-.5c-1.5-.8-2.2-.2-.7.7 1 .5 1 .9 0 1-.7 0-1-.1-1.8-.9-.5-.5-1.2-1-1.5-1-.4 0-1 0-1.5-.2-1-.3-1-.1-.2.5.5.4.5.6.2.9-.3.3-.5.2-1.1-.1-1-.6-1.6-.6-1.6 0 0 1-.9 1.2-2.3.4-.8-.4-1.7-.6-2.6-.6-1.6 0-3.3-.4-3.6-.8 0-.2-.5-.3-1-.2-1.6.3-1.9.5-1.9.9 0 .2-.3.3-.8.3s-1.6.4-2.5.8l-1.6.7 6.1.2a49.2 49.2 0 0 1 9.3.7l-12.7.3c-5.2.1-9 .3-9.2.4-.6.3 5 .6 11.6.7 2 0 4 0 4.2.2a213.7 213.7 0 0 1 10.5 0zM96 150.8c1.2-.1 1-.2-1.5-.2-1.8 0-2.8 0-2.7.2.2.3 2.3.3 4.2 0zm35.9-.5c0-.2-1.8-2.1-2-2.1-.4 0 0 .8.6 1.5.8.8 1.4 1 1.4.6zm-45.4-.7c.4-.4.4-.5.1-.8-.3-.3-1.2-.3-4.8 0-5 .2-7 .6-4.3.7 2 0 7.8.4 8.3.5l.7-.4zm7 .2c0-.3-1.2-.7-1.5-.5v.4c.3.4 1.5.4 1.5 0zm5.6-.9c1.1-.2 1.3-.4 1.3-1 0-.4-.1-.5-.5-.5-.5 0-.5 0-.4.5l.2.6-.6-.2-5.4-1.4c-.6 0-.7 0-.6.2 0 .2.5.4 1 .5 1 0 1.6.5 1 .7-.3.1-.5.3-.5.4 0 .5 2.6.6 4.5.2zm-12.6-1.5c.2-.4-.9-1-1.6-1-.4 0-1-.3-1.2-.5-.4-.2-2.2-.4-4.6-.6l-5.9-.6c-2.8-.4-2.7-.4-2.6.6v.9l2.3.4c1.4.3 4.6.6 7.6.7a327.7 327.7 0 0 1 6 0zm45.6-1c-.6-.7-2.8-1.8-3-1.6-.2.2-.4 0 1.7 1.6 1.7 1.2 2.5 1.3 1.3 0zm-42.8.2c0-.2-.2-.3-.4-.3s-.4.1-.3.3l.4.2c.2 0 .3 0 .3-.2zm13.2 0c0-.2-.4-.3-.8-.3-.8 0-.8 0-.4.3.8.3 1.2.3 1.2 0zm9.8-.8c-.5-.4-1.1-.4-1 0l.8.2c.5 0 .5 0 .2-.2zm13 0h-.6c-.2.2-.1.2.2.2.2 0 .4 0 .3-.1zm-38.3-.3-.6-.2c-.3 0-.4 0 0 .2.5.4.9.4.6 0zm9.6.1h-.5c-.2 0-.1.2.2.2.3 0 .4 0 .3-.2zm36.5-.5c-.6-.3-1.5-.7-1.5-.5l.9.7c1 .5 1.4.4.6-.2zm5.4.4c0-.4-1.5-2.1-1.9-2.1-.5 0-.1 1 .7 1.7 1 .8 1.2.8 1.2.4zm-30.3-.4c.2-.5-.9-.9-2.7-.9-1.3 0-1.4 0-1 .3 1.6 1 3.4 1.3 3.7.6zm14-.1c-.4-1-3.5-2.7-3.5-1.9 0 .2 0 .3.2.3l1 .7c.9.7 2.3 1.5 2.4 1.3v-.4zm-43-.5c0-.1-.4-.3-.9-.4-.4-.1-1.3-.5-1.7-1-.6-.5-1.2-.7-1.8-.7-.6 0-1.1-.3-2.2-1.4-.7-.7-1.3-1.5-1.3-1.8 0-.2-.1-.6-.3-.8-.2-.3-.2.2 0 1.4 0 1 0 2.2-.2 2.6-.3.8-.1 1.2 1 1.4a135.3 135.3 0 0 0 7.4.7zm9.5-.1c-1.7-1-2.2-1.4-2.2-1.7-.2-.5 1.3-.4 1.8 0 .5.8 1.6 1.2 3.4 1.3 1.4.2 1.6.2 1.2-.1-2.1-1.4-1.9-2 .9-1.9 1.4.1 2.2 0 2.5-.2.7-.6.4-.8-1.3-.8-1.8 0-3.6-.6-3.6-1.1 0-.2.7-.3 2.2-.4 1.5 0 2.4-.1 2.9-.4.5-.3 1.3-.4 3.7-.4 3.2 0 3.8.1 3.5 1 0 .4 0 .5 1 .8.8.3 1.4.3 2.9 0l3.5-.3c.9 0 2 0 2.7-.2l1-.1-.6-.2-2.9-.2c-1.6 0-2.2-.1-2-.4 0-.2.6-.4 1.3-.4 1.7-.1 2-.4.9-.9l-.9-.3.7-.1c.7-.1.7-.2.5-.5-.2-.2-.7-.4-1.2-.4-1 0-1.6-.3-1.6-1 0-1 .8-1.2 4-1 3.3.1 6 .8 6.1 1.5.1.2-.1.3-1.3.2l-1.4-.2 1.5.8c1.5.8 2 1.6 1.1 1.6-.3 0 0 .3.8.8 1.3.8 1.6 1.6.8 1.6-.3 0-.7-.2-.9-.4-.4-.5-1.3-.6-1.3-.1 0 .2-.3.2-.9 0a27 27 0 0 0-1.7-.2l-1-.1.8.2a8 8 0 0 1 1.7.8c.6.3 1.2.6 1.5.6.6 0 2.9 1.3 3.6 2.1.3.3.6.5.8.5.4 0 .3-1.2-.2-1.6l-.4-.7c0-.6 1.5-.4 2.9.3.6.4 1.3.7 1.5.6.1 0-.6-.6-1.6-1.1-2-1-2.4-1.6-1.5-2 .3 0 .3-.2-.2-.6l-.7-.5.5-.3.5-.4-1.2-.3c-1.5-.4-1.3-.8.4-1.2l1.2-.4h-.9c-1 0-2-.7-1.4-.9a8 8 0 0 1 1.3-.2c.6-.1.2-.2-.8-.2-2 0-2.8-.4-1.7-.8.4-.2 1.3-.3 2-.3 1.2 0 1.3 0 1.3-.4-.1-.4-.4-.5-1.6-.4-1 0-1.5 0-1.8-.4l-.7-.4c-.2 0-.4-.1-.3-.3 0-.2 1.3-.4 4.2-.5 2.2 0 3.6-.1 3-.2-2.1 0-2.7-.8-.7-.8 1.7 0 2.3-.4 2.5-1.7V126c-.2-.8-.2-1.6-.1-1.8.1-.7.7-.6 1 .2 0 .4.3.6.5.6.5 0 .9-1.4 1-3.6 0-1.7 0-2-.4-2.1-.4-.1-.5 0-.5 1 0 1.5-.4 2.1-1.3 2.1-.5 0-.8.1-.8.4l-.4 1.3c-.5.9-.4 1.2.2 2 .3.4.2.6-.3 1.2-.4.4-.5.7-.3.8.5.3 0 .7-.7.5-.5 0-.6 0-.8.6l-.2.7-.8-.2-2 .1a29.4 29.4 0 0 1-8.6.5c-.2.2 0 .3.5.3 1 0 3 1 3 1.3 0 .2-.6.3-2.1.2-1.8-.1-2-.1-1.4.1l2 .7c.5.2 1.2.6 1.3 1l.3.5-1.3-.2-5.6-.4c-2.7 0-4.4-.3-4.3-.4 0-.2 1-.4 2-.6 3.2-.5 3.3-.9.4-.8-1.4 0-2.7.2-2.8.3-.6.3-2 0-2.4-.7-.3-.4-.3-.6.1-.9l1.4-.5c.5 0 1.3-.3 1.8-.4l.8-.2h-1c-.5 0-1.4 0-2 .2-.7.2-2.5.4-4 .4-3 0-4.9.5-5.4 1.1-.3.4-.3.4.2.3.7-.2 4.5-.7 5.3-.7.9 0 .8.4 0 .8-1 .3-4.8 1-5.8 1-.6 0-.7 0-.7-.5 0-.2 0-.6-.2-.9-.8-.9 4.8-2.6 7-2.2 1.1.3 3.2-.7 3.2-1.4 0-.4 0-.5-.4-.4-1.6.4-4.7 1-5 .9-.4-.1 0-.4.8-.8 1-.6 1.2-.8.9-.9-.3-.1-.8 0-1.1.2-.4.3-.9.5-1.1.5-.5 0-3 1.3-4.2 2.2-.6.5-1.5.4-1.5 0a13 13 0 0 1 3.7-2.7c1-.5 1.4-1 1.4-1.3 0-.3 0-1-.2-1.8 0-.7-.3-2-.6-2.8l-.4-1.4-.2 1.1v2.2c.2 1.2 0 1.8-.7 1.4-.9-.5-1.3-6.3-.5-7 .5-.4.4-1.4-.3-4.2-.6-2.6-1-2.7-.8-.2.1 1.5 0 2-.2 2.1-.2.1-.5 0-.6-.1l-.4-6.4c-.1-3.4-.3-6.3-.5-6.4-.6-.6-.8.4-.8 4.2 0 2.4 0 3.9-.2 4-.4.2-.4 3.2 0 5.4.2 1.3.5 1.9 1 2.3 1 1 1.9 6 1 7-.2.5-.3.3-.2-.9 0-1.3-.5-3.3-1-3.3l-.7.3-.4.3.3 1.9.4 2.7.2.8-.9.5c-1 .6-3.6 2.4-4.7 3.5-1.7 1.5-2.5.8-.8-.8l1-1.1-.8.2c-.5 0-1.2.5-1.8.8-.5.4-1 .6-1.2.6l-1.1.7c-1 .8-2 .8-3.5.3-.5-.3-1-.4-1-.3-.2.1 1.5 1.2 2 1.2l.5.4c.5.6-.3.8-1.8.4-2-.5-2.4-.8-2.4-1.3 0-.7-.4-.7-1.4 0-1 1-2.7 1-1.7 0 .2-.2 0-.8-.6-2.4-.4-1.2-.8-2.6-.8-3.2 0-.6-.1-1-.3-1.2l-.2-1.2c0-1 0-1 .4-.8.2.2.4.8.4 1.3 0 .6.1 1.4.4 1.8l.7 2.3c.5 2 1 2.6 1.4 2.5 1-.2 1-.8.2-2.2-1-1.5-1.8-4.3-1.4-4.7.2-.2.3 0 .5.5l.8 1.7 1 2c.6 1.3.7 1.3 1.6.8.4-.2.5-.4.3-.7-.7-1.2.4-1.4 1.3-.3.4.6.5.9.3 1-.2.3-.1.5.4 1 1 .8 1.2.9 1.6.2.2-.3 1-.6 1.9-.8 2.2-.5 2.2-.5 2.4-1 0-.3.3-.6.6-.7.7-.2.7-.6 0-.9-.8-.3-2.1-.1-2.1.3 0 .3-.3.2-1-.2-1.1-.5-1.3-.8-1-1.4.3-.4 1-.2 1.3.3.2.6 1.2.5 1.4 0 0-.3.3-.6.4-.7.3-.2-.3-1.8-.6-1.8-.2 0-.3-.2-.3-.4 0-.7.6-.3 1.5.9l.7 1.1 1-.2c1.3-.2 1.3-.3 1-1-.3-.7-.6-.8-1.2-.4-.4.2-1.3 0-1.6-.6l-1.2-.5-1-.4v-.8c.1-1.1-.6-2.4-1.4-2.6-1-.3-1 0-.4 1.2s.5 1.8-.2 1.8c-.3 0-.3.1-.1.4.3.4.7 2.4.4 2.2-.2 0-.4-.7-.6-1.3a6 6 0 0 0-.7-1.6c-.6-.6-1.5-3.9-1.4-4.9 0-1-.3-1.5-1-1.3-.4.2-.4.5-.3 2.3.1 2 1 4.5 2 6.1.3.4.6 1 .7 1.5l.2.7-.5-.3a16.2 16.2 0 0 1-2.7-6.7 16 16 0 0 0-1-2.8c0-.3-.2-.6-.4-.6s-.3.6-.2 1.8c0 1.7.7 3.6 2.3 6.6l1.6 3.4-.3.1c-1.5 0-4.3-6-4.6-10 0-1-.2-2-.4-2h-1l-.8.2.4.7c.4.8.5 2 .2 2.7-.2.6-.6.6-.6 0 0-.2-.3-.5-.6-.6-.6-.2-.7-.5-.9-2 0-1-.2-1.7-.3-1.7-.9 0-1 2-.6 7.4.2 1.7.3 4.4.3 6.2v3l.7.5c.7.5 1.4 2 1.4 3.2l.2 1c.2 0 .2.6.1 1.2l-.1 1h.6c.5 0 .7-.3.7-.7 0-1.3 0-1.4.7-1.4.6 0 .7.2.8 1a6 6 0 0 0 2 3.6l2.2 2.2c1.7 1.8 2.4 1.9 1.1.2-.9-1.2-1.2-2.6-.6-2.8.2 0 .2-.2 0-.7-.4-.7-.2-1 .7-1 1 0 1.6.3 3.6 2.3 2.2 2.3 2.3 3 .4 2-1-.5-1-.2-.1.6.6.6 3.1 1.6 4.1 1.6h.7l-.5-.3zm-2.3-4.2-1.8-1c-2.4-1-4.6-2.8-4.6-3.7 0-.4 1-.6 1.5-.3h1c.5-.3 1.2-.1 3.2.8l3.2 1.2c1.5.4 1 1.2-.6 1l-2.4-.7c-.8-.2-1.5-.4-1.6-.3 0 0 2.9 2.3 3.5 2.6.5.2.5.8-.1.9-.2 0-.8-.2-1.3-.5zm8-2.4c-.2-.4.6-1 1.6-1.2a30 30 0 0 1 7.4.3c0 .4-5 1.2-7.1 1.2-1 0-1.8-.1-1.9-.3zm-2.8-1.5c-.2-.2-.2-.4 0-.5l4.1-.6c.4 0 .2-.5-.2-.5-.2 0-.3-.2-.2-.3 0-.2-.3-.3-1.3-.2-2.6.3-9 .5-9.5.3-.4-.1-.4-.3-.2-.6.2-.4.6-.5 1.6-.6.8 0 2-.3 2.6-.5l1.1-.3.8.5.7.6 2.5-.3c5.5-.5 7.2-.8 8.1-1 1.3-.4 1.6-.3 1.6.1v.4a90.8 90.8 0 0 0-6.2 1c-2 .2-1.3.6 1.5.6 3.4 0 3.6.9.3 1-1.1 0-2.4.3-2.9.5-1.1.5-4.2.8-4.4.4zm-3.1-5.6c0-.8 6.1-4.8 7.1-4.7 1.1.1.8.5-1 1.5-1 .4-1.8 1-2 1.2L91 130c-1.4 1-2.4 1.2-2.4.7zm-7-1.8c-.5-.1-.2-.6.3-.6l1.3-.4c.5-.3.8-.3 1 0 .6.4.5.6-.8.9-1.2.3-1.4.3-1.9.1zm-9.3-6.3c-.3-.6 0-2.9.3-2.9l.4 1.2c.2 1.2.1 2.1-.2 2.1l-.5-.4zm-1.7-.4.4-.2c.3 0 .4 0 .3.2-.1.2-.3.3-.4.3-.2 0-.3-.1-.3-.3zm64 21.8c-.6-.6-2.2-1.1-3.3-1.1h-.8l1.2.5 1.6.8 1 .2h.7l-.5-.4zm-18.7-.5c0-.5-.9-.9-1.8-.9h-.8l.9.4c.4.2.9.5 1 .7.2.4.7.3.7-.2zm-9.7-.4-.1-.2c-.2 0-.3 0-.3.2l.1.3.3-.3zm3.6 0c0-.1-.4-.2-.9-.2-.7 0-.8 0-.3.2.7.4 1.2.4 1.2 0zm-9.3-.2a7 7 0 0 0-1.7-.2c-1 0-1 0-.4.2a7 7 0 0 0 1.7.2c1 0 1 0 .4-.2zm35.4-.9c-.8-1.2-2-2.3-2.6-2.3-.2 0-.6.1-.8.3l-.4.2.4.3 1 .3c.6 0 .8.3.4.6l-1.8-.1c-1-.2-1.6-.2-1.8 0-.3.3.8.7 2.7 1a8 8 0 0 1 2 .3c.1.2.6.3 1 .3h.5l-.6-.9zm-31 0c-.1-.4-1.7-.7-2.5-.6-.7.2-.8.6-.1.8.8.2 2.6 0 2.5-.3zm7-.7c.5-.4-2.5-.2-3.5.2-.5.3-.2.3 1.2.2 1 0 2-.3 2.2-.4zm27.8-.8c0-.3-.5-.6-.7-.4-.2.1.1.7.4.7.2 0 .3-.2.3-.3zm-9.2-.8c0-.3-.2-.4-.7-.4-.9 0-1.3.6-.5.7.7.3 1.2.1 1.2-.3zm6-1c0-.4-3.3-1.4-5.3-1.6-1 0-2.6-.3-3.3-.5l-2.1-.3h-.8l1 .3a6 6 0 0 1 1.7.7 12 12 0 0 0 5.4 1.6c2.5.2 3.5.2 3.5-.1zm2.3-1-.4-1.1c-.2-.8-.6-.6-.9.3-.2.8.3 1.5 1 1.5.3 0 .4-.2.3-.6zm-70-.6c-.1-1.1-.2-1.2-.6-1-.3.3-.3 1.3 0 1.7.7.6.9.3.7-.7zm2-.2c0-.2-.1-.4-.3-.4-.2 0-.3.2-.2.4 0 .2.2.4.3.4.2 0 .3-.2.3-.4zm65.4.2c0-.2-.1-.2-.4-.1l-.4.2.4.1c.3 0 .4-.1.4-.2zm-1.1-.2c0-.2-1.1-.7-2.3-1.3-1.8-.9-2.2-1-2.9-.8a2 2 0 0 1-1.2.1c-.7-.3-3.1-.3-3 0l1.5.4c.7.1 1.5.4 2 .6.3.2 1.2.4 2 .4.9 0 3.1.4 4 .7l-.1-.1zm-70-.6c.5-.3 1.5-1.8 1.5-2.2l-.4-.8-.5-.5-.1-7.6-.1-7.6-1-1.1-.8-1.4c0-.1 0-.3-.2-.3-.4 0-.4 4.3 0 6.8.2 2 .1 2.8-.4 2.7-.4-.2-.6-1.4-.8-5.2-.2-4-.1-5 .6-5h.4l-.5-.6-.5-.5.5-.2c.3-.1.4-.4.2-1.9 0-1-.3-2-.5-2.2l-.5-.5.5-1 .5-.8-.5-.7c-.4-.7-.4-1.5 0-3.7.2-.6.2-.7 0-.5-.2.2-.6 1.2-.9 2.2-.5 2.2-.6 5.2-.3 8a60.6 60.6 0 0 0 2 20.8c.4.8 0 1.3-.5.9-.6-.4-1.7-4.8-2.1-8.4l-.4-2-.2-.6-.2.4c-.3.8.5 6.8 1 7.3.3.3.4.7.4 1-.2 1.3.4 2.6 1.8 4s1.6 1.6 2 1.2zm71.5-2.2c.1-1.8-.1-3-.5-2.6-.3.4-.6 4.4-.3 4.7.4.6.6 0 .8-2zm-5.7-.6c0-.2-.7-.4-2.4-.7-1.3-.1-2.4-.2-2.5-.1l.5.1 2.3.5c2.2.6 2.1.6 2.1.2zm3.1-.2c0-.2-.1-.1-.1.2 0 .2 0 .4.1.3v-.5zm-74.6-1.2-.3-1.2c-.2-.3-4-.2-4.2 0a9 9 0 0 1-3.2 2l3.5.2h4.4zm70.5-.6c0-.3-.1-.5-.4-.4-.2.1-.4.4-.4.6 0 .2.2.3.4.3s.4-.2.4-.5zm-20.6-.4c.9-.1 1.5-.3 1.3-.4a8 8 0 0 0-2.6.1c-2.6.4-3.8.9-1.5.6l2.8-.3zm7.5-1.9-.1-.5-.4.2c-.3.3-.3.4 0 .5.4.4.7.3.5-.2zm18.5-1.7-.3-.9-.3.7c-.3.5-.3.8 0 1.4l.3.8.2-.6c.2-.4.2-.9 0-1.4zm-18.6 0 .2-2c0-.6.1-1.2.3-1.3.1 0 .2.2.2.7 0 .6.3 1.1.8 1.6l.7.8-.5.3c-.7.6-.5.7.6.7 1.6 0 2-.3 2.3-1.9.5-2.2.5-2.6-.2-2.5h-.6v1.5c-.2 2-.3 2.4-.8 1.8-.3-.4-.3-.9-.2-1.6l.1-1-.5-.2c-.8-.2-.8-.6 0-.5.4 0 .6 0 .6-.7 0-.8-.5-1-.6-.2-.1.7-.1.7-1.8.2-.7-.3-1.3-.4-1.5-.3l-.2 1.1c0 .6-.1 1.5-.3 2-.2.9-.1 1.3.2 1.7.5.9 1 .8 1.2-.2zm8.5-3v-2.8l-.2-.7-.2.8c-.3 1.1-.7 5.8-.6 6 .4.6 1-1.2 1-3.2zm8 .7c.5-2.7.5-3.8 0-3.8-.3 0-.4.3-.4 1v5l.4-2.2zm-19 1.2c0-.5-1-1.3-1.9-1.3-.8 0-3.3.9-3.3 1.1 0 .2.6.2 1.4.1l2.1.1c1.2.4 1.8.4 1.8 0zm8.6 0 .2-1.1c0-.4.1-.7.3-.8l.2-.9c0-.5 0-.6-.2-.2 0 .3-.3.8-.6 1-.4.6-.6 1.2-.5 2 0 .5.4.4.6 0zm-32.3-.3c0-.5-.5-.8-1.1-.6-.7.3-.7.6 0 .8.8.2 1 .2 1-.2zm-4.1-.2-.5-.2c-.1 0-.2.1 0 .2 0 .2.2.3.4.3v-.3zm20-.8c.2-.1 0-.5-.3-1-1.3-1.6-3-5-3.4-6.8-.6-2.9-1.1-2.5-1.1.8 0 2.6 1 5.9 2 7 .4.5.7.6 1.5.5.6-.1 1.2-.3 1.4-.5zm-6.3-.2-.3-.9c-.2-.8-.6-.5-.6.5 0 .8 0 1 .5 1s.6-.2.4-.6zm2.1 0c0-.1-.1-.3-.5-.5-.7-.3-.9-.1-.3.4.3.4.6.4.8.1zm9.2-.5c.9 0 1.8-.2 2-.4.4-.3.5-2.8.1-3.2 0-.2-.4-.4-.6-.5-.6-.2-1.8-2.9-1.6-3.6a29 29 0 0 0-3.1-6.6L107 108c-2.3-5.6-3.6-7.2-5.4-6.7-.7.1-1 1-.4 1.3l.4.8c.3 1.4 1.4 2.8 2.2 2.8l.7.1 1 2.4c2.4 5.5 3 6.6 4 7 .6.2.7.5.7 1.3 0 .5.2 1.3.4 1.7l.4.8-.5.5c-.3.2-.6 1-.7 1.6-.1.9-.3 1.3-.7 1.4-.8.3-1 0-.6-1.2.2-.6.4-1.8.4-2.7v-1.5l-1.9-3.8-2.2-4.8c-.3-.7-.6-1-1-1-.6 0-1-.3-1.7-1.4l-.9-1.7c0-.1-.3-.7-.8-1.2-.4-.6-.8-1.3-.8-1.7 0-.6 0-.6-2.1-.7-2 0-2.1 0-2.1 1s.4 2 1.8 3.7c1.6 2 1.7 2.3 1.3 3.9-.3 1.3 0 3 .3 3 .2 0 .3-.3.3-.6 0-1 1.1-5.2 1.4-5.4.7-.4.7.4.3 3.3a16 16 0 0 0-.3 3c.1.2.2 0 .2-.3 0-.8.6-2.2 1-2.3.7-.3.8.2.5 1.8l-.3 1.5.6.4c.3.2.6.8.7 1.4.3 1.6 1.3 4.1 2.8 6.8l1.4 2.5 1-.1 2.9-.4zm-5.7-5.5c-.4-.3-1.8-4.6-1.6-5 .2-.3.9.9.9 1.7 0 .3.3 1 .6 1.6.5 1.1.6 2 0 1.7zm-1.9-6.2c0-.1 0-.3.3-.3.2 0 .3.2.2.3 0 .2-.2.3-.2.3l-.3-.3zm12.4 7.6a46.2 46.2 0 0 0-5.5-15.8c-.4-.6-.7-1.4-.7-1.8 0-.6-1.1-1.6-1.5-1.3a68.7 68.7 0 0 1 2.3 6.3l1.6 4.4a50.3 50.3 0 0 1 3.2 10c.5.8.8 0 .6-1.8zm-30 .7-.5-2-.5-2.2c-.3-1.4-.5-1.7-1.1-1.7h-.5l1 3.1c.7 1.4.5 1.9-.4 1.3-.8-.6-1-.4-.8.3.2.4.4.6.8.6.5 0 .8.3 1.1.8.7 1 1 1 .8-.2zm35.7 0c.4-1.1 0-2.2-.9-2.2-.5 0-.6-.2-.8-.8 0-.4-.3-.9-.5-1-.6-.6-.5 1 .1 1.7.4.5.6 1.1.6 1.8 0 1.2 0 1.5.8 1.5.3 0 .5-.4.7-1zM60 117c0-2.5 0-4.5.2-4.8.2-.3.1-.7-.2-1.2-.2-.4-.3-1-.3-1.5 0-.4-.2-.8-.3-.9-.5-.3-.7 1.4-.6 5.9 0 3.5.1 4.7.4 5.3.3.5.5 1 .5 1.4a30.8 30.8 0 0 0 .3-4.1zm76.3 3.6c0-.2-.1-.1-.1.2v.3c.2 0 .2-.3.1-.5zm-11.3-.1a111.2 111.2 0 0 0-5.2-14.2 4 4 0 0 1-.8-.8c-.3-.2-.6-.5-.8-.5-.4 0 .1 1.7 1.5 5 .6 1.3 1 2.5 1 2.7l.9 1.2.8 1.4c0 .7 1.2 4.3 1.7 5 .5.7 1 .8 1 .2zm9.7-1.5c.1-.9.3-1.4.8-1.8.4-.3.6-.7.6-1.2 0-1.8-1.7-6.6-2.5-6.9-.2 0-.4-.5-.4-1 0-.6-.4-1.8-1-3.1-.7-1.2-1.3-2.7-1.3-3.4-.2-1-.3-1.2-.8-1.3-.7 0-.7.3-.3 2 .6 2.2 1.6 7 1.7 8.4 0 1.7.4 2.2 1.4 2.3l.7.1v1.7l.4 6c0 .6.5-.6.7-1.8zm-21.2-1.4c-.9-2.7-4.7-12.4-5.4-13.9-1.1-2-1.5-2.4-2.6-2.4h-1l.6.6c.3.4.6.8.6 1l.8 1.7.8 2 .6 1.3a129.2 129.2 0 0 1 6 11.7c0-.3-.1-1.2-.4-2zm12.3-.2c0-.5-.2-1.6-.5-2.4-1-3.4-1.3-4.3-1-4.9.3-.8 0-1.7-.6-2.3l-.6-.5-.6.8c-.7.8-.7 1 .3 3.8l.8 2.3c.2 1 1.6 4 2 4 0 0 .2-.3.2-.8zm4.2 0c.5 0 .6 0 .6-.6 0-.7-.6-.9-1.1-.2-.2.2-.7.4-1.2.3-.6 0-.9 0-.9.2 0 .6 1.1.9 1.6.5a1 1 0 0 1 1-.3zm-43.6-.5c-.4-.4-.7-.1-.4.5.1.3.2.4.4.1.3-.2.3-.4 0-.6zm31.4 0-.4-2c-.1-1.5.1-1.8 1-1 .7.6 1 .3.6-.4a2 2 0 0 1-.3-.8 42 42 0 0 1-5.3-10.8c-.2-.3-.5-.4-1.2-.3l-1.2.1c-.1.2.5 1.8 1.2 2.8.4.5 1 1.7 1.3 2.7a216066.9 216066.9 0 0 0 3.7 9.6c.1.4.3.7.5.7.1 0 .2-.3 0-.6zm-37.4-.2c0-.4 0-.5-.3-.5-.2 0-.3.2-.3.5s0 .5.2.5c.1 0 .3-.2.4-.5zm16.8-3.7c0-2.5-.4-5.8-.8-6.3a1 1 0 0 0-.8-.3c-.5 0-.5.5 0 3.6l.3 2.3c0 1.3.8 3.7 1.1 3.3l.2-2.6zm3.1 1.1c-.3-.3-.5.2-.3 1l.3 1v-2zm-17.6 1-1-.8c-1-.5-1.1-.5-1.1-.1 0 .2.1.4.3.4.2 0 .5.1.6.4.1.4 1.2.5 1.2.1zm-10.3-1.8c.1-.5.5-1 .8-1.3.3-.2.4-.6.3-.9-.2-.7.7-3.3 1.4-4 .8-.7.8-1 .2-2-.3-.5-.5-1.5-.6-3.7a35 35 0 0 0-.4-3.8c-.2-.6-.1-.8.4-1l.6-.2-.5-.3c-.2-.2-.4-.7-.4-1 0-.4-.1-.6-.4-.6-1 0-1.5.7-1.6 2.2-.1 1-.3 1.5-.5 1.5-.5 0-.7-1-.4-2.1a5 5 0 0 0 .2-1.6c0-.3.2-.5.7-.6.6 0 .8-.2.7-.6v-1.4c-.1-1-.5-1.2-.5-.3 0 1-.7.4-.8-.7l-.5-2c-.2-.6-.3-1.2-.2-1.4.2-.7 1.1 0 1.3 1l.4 1c.4 0 .6-1 .4-2-.1-.7 0-1 .3-1 .3-.2.4 0 .4 1.8l.2 3.1.2 1 .2-.7.5-1.4c.1-.4 0-1.2-.1-2-.2-1.2-.2-1.8 0-2.6.2-.5.3-1.3.3-1.7 0-.6.1-.7.6-.6.5 0 .6 0 .8-1 .2-1 .4-1.2.9-1.2.3 0 .7.3 1 .6.3.8.6 7.3.2 7-.2-.2-.4-1-.5-1.7l-.2-1.4-.9-.4c-.4-.2-.8-.3-.9-.2V89.8l1.2-.2c1.3-.1 1.3 0 1.3 1.2 0 .4 0 1.1.3 1.6.3.7.4 1.6.3 3l.1 5.6c.2 3.5.1 6.6-.2 5.4-.2-1-.7-1-.9-.1-.2 1 0 1.2.8 1 .5-.1.6 0 .8.5.2.8-.3 1.3-.8 1l-.8-.2-1.1-.2c-.4-.1-.7 0-1 .5-.7 1-.4 1 1.1.6 1.4-.5 1.6-.4 2 .8.1.4 0 .7-.3 1l-.4.3 1.3.1c1 .2 1.3.1 1.7-.4.2-.3.3-.8.3-1 0-.5.3-.7.8-.7.6 0 .8 0 1 .6.2.6.1.8-.3 1.4-.6.8-.7 1.1-.1 1.1s1-1 1.7-4.1c.8-4.2 1-5.5.6-6.2-.4-.6-1-.7-1.3-.1 0 .2-.4.4-.7.4-.8 0-1.3-1.7-1.4-4.3l-.1-2.2.4.5.4.8c0 .2.2.4.4.4h.6l.3-.6c.1-.3.3-.6.5-.6.3 0 .4.5.3 2.2 0 1.8 0 2.2.4 2.2.3 0 .4-.3.4-.9.1-2.4 0-9.2-.1-10.4l-.2-1.4-.6.2c-.4 0-.7 0-.8-.3a41 41 0 0 1-1.2-6.3c0-.9.1-1 .8-1.4l.7-.4.2.4.1 1.5c0 .6.2 1.4.4 1.7l.4.5V83c0-1.6.4-2.6 1-2.6.9 0 1.1-1 1.1-3.8 0-2.3-.3-5-.5-4.5l-.1 3V78l-.6.1c-.8.1-.9-.4-1-4.4 0-3.7.2-4.5 1.3-4.5.4 0 .7-.2.8-.3.1-.2-.2-.3-.6-.3-.5 0-.9 0-1-.2-.2-.4-1-4-1-4.2.2-.6.7-.3.6.3l-.2.7h2v-1.5c0-1.5 0-1.6-.7-1.1-.3.2-.6.2-.7.1a47 47 0 0 1 0-8.7l.2-1.8.8.1c1 .2 1 .2 1.1-4.3.4-6.8.4-8.7 0-9-.4-.3-4.6 0-6.5.4l-1.7.4-2.1-.4c-3.1-.6-8-.8-9.9-.4-1.9.4-2.5.1-1.9-.8l.3-.6-1-.9c-.5-.5-1.1-.9-1.3-.9-.5 0-.7.8-.2 1.3.3.3.3.6 0 1-.1.3 0 .5.2.8l.6 1c0 .4.4.8.7 1l.6.3-.2 4c-.2 2.2-.2 5.3-.2 6.9 0 1.6 0 4.3-.2 6v3.5a7 7 0 0 1 0 2.1c-.2 1.6 0 2.7.3 2l.5-.2c.3 0 .1 2.1-.2 2.5-.3.1-.3.4-.1.6.2.4.3.4.6-.1l.7-.9c.5-.5.8-2 .8-4V62h.7l1.4-.1a2 2 0 0 0 1.2-.5l.4-.4.7.4c.7.5.9 1.6.2 1.8h-1.1l-.8-.4-.2 1c-.2 1.1-.1 1.2.9.7 1.2-.7 1.3-.3 1 2.1l-.3 4c-.1 1.4-.3 1.7-.6 1.7-.6-.1-.7-1.6-.3-3 .2-.6.2-1 0-1.6-.5-.9-.8-.8-.8.1 0 .7-.1.8-.9 1l-.8.3-.2 2.3v2.6c.3.3.3.2.4-.9 0-.2.3-.4.6-.5.7 0 1.2.9 1.1 2v2c0 1.3.1 1.6.4 1.5.8-.3 1.2 0 1.2 1.1 0 1.3-.2 1.9-.6 1.9-.4 0-.7-.9-.7-2 0-.6 0-.7-.4-.6-1 .4-1.4 0-1.6-1.6l-.2-1.5-.2.9a19 19 0 0 0 0 3.6c0 2 0 2.8-.3 3.5-.3.8-.3 1 0 1.7.3.6.3 1 .1 2v4.1a5 5 0 0 0 0 2.2c.2 1.6 0 2.6-.6 2.4l-.8-.3-.4-.2V97c.2 1.7 0 2.7-.6 2.2-.2-.2-.3-1.1-.2-2.3v-2h.6c.4 0 .5-.2.6-.7 0-.5 0-.7-.5-.7l-.6-.1-.1-3.3-.1-5v-1.7l-.8-.3-.8-.3.1-1.6.3-2c.1-.2 0-.6-.1-.8l-.3-.4-.2.4c-1.2 1.8-1 9.4.1 11.8.5 1 .6 1.4.5 4V97H63c-.6-.1-.8 0-1 .5 0 .4-.5 1.5-1 2.5a21 21 0 0 0-2 5.5c-.3.9-.3 1.2 0 1.5.5.4.7-.1 1-2 .2-1.8 1.9-6.3 2.5-6.7.2-.1.5-.1.8 0 .5.2.6.4.5 4.2 0 1.5.1 2.3.4 2.7.3.5.4.8.1 1.5-.3.7-.2 1 .4 2.4.6 1.3.7 1.8.5 2.9 0 .8 0 1.2.2 1.2.1 0 .3-.2.3-.4 0-.6 1.3-2 1.9-2 .2 0 .5.2.6.5 0 .2.3.4.4.4l.8.4c.3.2.5.3.5.1 0-.4 1-.6 1.5-.3.5.5.4 1.2-.3 1.7l-.6.4h.7c.6 0 .8-.2 1-.7zm-3.2-3.4c-.1-.3-.5-.5-.8-.5-.5 0-.7-.2-.7-.7-.1-.4 0-1 .3-1.2.3-.3.4-.7.2-1.7-.1-1 0-1.4.2-1.6.6-.3.7-.3 1.3.3.4.5.6.6 1.3.3l.7-.2v-1a4 4 0 0 0-.5-1.4c-.3-.3-.4-.9-.4-1.2 0-.8 1.2-2.4 1.6-2.2v1.7c0 .8 0 2.4.2 3.5.1 1 .2 2 .1 2.2 0 0-.4 0-.7-.2l-.7-.4-.3.6c-.2.3-.3 1.1-.2 1.8 0 .7 0 1.5-.2 1.8-.2.7-1 .7-1.4 0zm12-.8c-.3-.1-.4-.4-.4-1.6l-.4-5.6a87.3 87.3 0 0 1 .1-18.4c.3.3.5 8.5.2 10.3-.1.6 0 1.6.1 2.3.2.6.4 2.3.4 3.6.2 4.7.4 7 .7 7.4l.2.5v-.6c0-1 .8-2.6 1.3-2.6.4 0 .5.2.6 1.7 0 1.7-.2 2.4-1 2.4-.4 0-.7.2-.7.4-.2.4-.2.4-1 .2zm-15.7-4.7c0-1 .7-2.2 1-1.8.2 0 .2.8.1 1.4 0 1-.2 1.3-.6 1.3-.4 0-.5-.2-.5-.9zm2.5-1.9c-.4-.9.7-4.3 1.3-4.3.7 0 .7.5.4 2.6-.4 1.7-.5 2-1 2-.3.1-.6 0-.7-.3zm1-5.8c-.7-1.6-.1-3.6.8-3.2.4.1.4.5.4 2v1.9h-.5c-.3 0-.6-.3-.8-.7zm14.5-.8c-.5-.2-.8-.3-1 0-.5.3-.5 0-.6-2.6-.1-3.2 0-3.5.2-.6.1 1.6.3 2.4.5 2.5.3 0 .3 0 .1-.5-.2-.7.5-3 1.2-3.7l.4-.4.2.4c.4.5.3 5.1-.1 5.2-.1 0-.6 0-1-.3zm-14.3-5c-.1-.2-.3-.8-.3-1.5l-.1-1.2h.7c.5 0 .6.2.8 1.1.2.7.2 1.3.1 1.6-.2.5-.8.5-1.2 0zM81.4 87c.1-2 .7-2.4.8-.7.1 1.6 0 2.3-.5 2.3-.2 0-.3-.3-.3-1.6zM71 85.6c-.5-.5-.3-3.6.2-3.9.6-.4.9.3 1 2.1 0 2-.4 2.6-1.2 1.8zm-2.4-.4c-.2-.4.1-.8.8-.8.6 0 1 .6.8.9-.3.3-1.4.2-1.6-.1zm4.6 0c-.3-.2-.2-1.9 0-1.9s.3.5.3 1.1c0 1 0 1.2-.3.9zm1.8-3.2-.2-5.2-.1-6.4c-.1-1.2 0-2.5.1-3.5.2-1 .4-3.3.4-5.3 0-3.8.4-5.1 1.1-4.4.3.3.3.6.1 1.3-.3 1 0 2.4.3 2.4.1 0 .4-.5.5-1.1.2-.6.6-1.2.9-1.4l.5-.3-.7-.3-.7-.4v-1.5l.2-1.4h-.6c-.9 0-1.1-.6-.9-2.2.3-1.6-.2-3.4-.8-3.4-.6 0-.8-.8-.5-1.7.1-.6.3-.8.9-.8l.7-.1-.1-2c0-1.5-.2-2-.4-2.2-.3 0-.4.2-.3 1.3 0 2 0 2.1-.4 2.1a2 2 0 0 0-1 .3c-.8.5-1.2.1-1.4-1.5-.5-3.5-.2-4.7.7-3.7.4.3.7.4 1.8.1.8-.1 1.5-.2 1.6 0 .2.2.8 4 .7 4.5-.2 1-.5 1.6-.7 1.6-.4 0-.3 2.3.2 3.4l.4 1 .2-1 .5-2c.1-.6.2-1.3.1-1.7 0-.3 0-1 .3-1.6l.3-1.4c-.1-.2.1-.8.5-1.4l.7-1h2v1.4c0 1 0 1.8-.3 2.1l-.4 1c0 .4-.2.7-.5.8-1 .2-1.7 3-1 3.9.6.6.4 2.8-.4 3.2-.7.3-.7 1.7 0 2 .6.4.8 1.2.3 1.5-.3.2-.3 2.2 0 3.1.3.6.3 1.6 0 3.5l-.3 5.4c0 2.3-.1 2.7-.5 2.6-.3 0-.4-.4-.5-1.3 0-1-.1-1.3-.7-1.5-.4-.2-.8-.6-1-1 0-.4-.3-.6-.3-.5-.1 0-.3 3.4-.3 7.5 0 5.8-.2 7.4-.5 7.6-.3.4-.4.3-.5-.4zm-1-37.9c-.1-.2-.2 0-.2.4 0 .3 0 .5.2.3V44zm6.4-.2c0-.2-.1-.2-.3-.1l-.2.4c0 .2 0 .2.2.1.2 0 .3-.3.3-.4zM68.8 82l-.4-.4.3-.4c.5-.5 1.5-.2 1.5.3 0 .2-.2.5-.5.7-.4.2-.6.1-1-.2zm4-.4c0-.6.2-1 .4-1.1.1-.1.2.2.2.7l-.2 1.1c-.2.1-.3-.2-.3-.7zm8.9-2c0-.4.1-.6.2-.6.2 0 .3.2.3.5s-.2.6-.3.6l-.2-.6zm-4.4-.4c-.3-.2-.4-1-.5-3v-2.9l1-.3 1-.3c.3.2.2 6.3 0 6.6-.2.3-1 .3-1.5 0zm6.3-.7c-.6-1.1-.5-2.8.1-3.2.7-.4 1 .3 1 2-.1 1.9-.5 2.3-1 1.2zm-3.3 0c0-.2.1-.3.2 0v.4c-.1.1-.2 0-.2-.3zm-7.4-.5c0-.4.1-.6.2-.4v.7c-.1.2-.2 0-.2-.3zm0-1.5c0-.4.1-.7.3-.7l.2.5-.2.7c-.2.1-.3-.1-.3-.5zm-2.3-1c0-1.4.3-2.7.7-2.5.4.3.6 2.6.3 3.3-.5 1-1 .7-1-.8zm2.2-.6c-.2-.5 0-1 .5-1 .3 0 .4.3.3.7 0 .7-.6.9-.8.3zm.3-3c-.1 0-.2-.6-.2-1.3 0-.8.1-1.1.4-1.1.3 0 .4.3.4 1 0 1-.3 1.8-.6 1.5zm10.1-1.4a2 2 0 0 1 0-1.2c0-.4 0-.8-.4-1.2-.4-.4-.4-.5-.1-.8.3-.3.3-.3.1 0-.1.3 0 .4.6.3.5 0 1 0 1.2.2.4.5.5 2.5.2 3a1 1 0 0 1-1.6-.3zm-10-2.5c0-.3 0-.6.2-.6.3 0 .5.5.4 1-.3.5-.6.3-.6-.4zm.2-1.4c-.2-1.2.1-4 .5-4.2.3 0 .3.3.2 1.7a23 23 0 0 1-.4 2.5l-.2.6zm9-.2c0-.3.1-.4.2-.1v.5c-.1 0-.2-.1-.2-.4zm-1.2-3 .2-1.6c0-.5 0-.7.2-.6.4.2.1 2-.3 2.7-.2.3-.2.2 0-.5zm2.6-2.1c-.2-.5-.2-1 0-1.3.1-.3.2-.3.6.3.5.7.5 1 0 1.5-.3.2-.4.1-.6-.5zm-16-1.4c-.2-.1-.1-1.4 0-2.8a20.5 20.5 0 0 0 0-6.4 43.5 43.5 0 0 0-1.3-8.9v-1.3h.6l1-.2c.4-.3 1 .1 1.1.7v.6l.4-.8c.6-1 1.6-.8 1.7.4 0 .3 0 1.2.2 1.9 0 .8 0 1.4-.3 2a8 8 0 0 0-.1 4.7c.2.7.2 1 0 1.5-.4 1-1 .9-1.5-.1l-.5-.7v2c.1 1.3.2 1.8.3 1.4.4-1.4 2-1.4 2 0 0 .4 0 .8.3.9.3 0 .4.5.4 1.6v1.4l-1 .2c-1.4.3-1.6 0-1.7-1.5v-1.4l-.4 2.3a18 18 0 0 1-.5 2.6c-.2.3-.6.3-.8 0zm1.8-10.5.4-.5-.5-1.1-.6-1.5c0-.2 0-.4-.2-.4-.3 0-.4 2-.1 3.2.2 1 .3 1 1 .3zm12.1 10 .2-1c0-.3 0-.3.3-.1.3.4 0 1.7-.3 1.7-.2 0-.3-.3-.2-.6zm1.7-5.2c0-1.4 0-1.6.6-1.6.5 0 .5.1.5 1.3 0 1.1 0 1.3-.5 1.3-.4 0-.5-.2-.6-1zm0-3c-.3-.3 0-1 .5-1 .3 0 .4.2.3.5 0 .7-.6 1-.8.6zm1-2.7c-.6-.3-.9-.6-1.1-1.7l-.8-2.7c-.3-1-.4-1.5-.1-1.9l.3-1c0-.6.4-.7 1-.3.3.2.6.1.9-.2.8-.7 1.3-.2 1.2 1 0 .7 0 1.7.2 2.3.3 1.7-.5 1.6-1.3-.2-.4-.9-.7-1.2-.8-1-.3.3 0 2.5.4 2.8l.2.9c0 .6.2.8.7 1 .7 0 .8.2.5 1-.2.4-.3.4-1.3 0zm34.1 60.4a85 85 0 0 0-1.4-3.6c-.6-1.3-1.8-2.7-2-2.4-.3.2 1.8 5.3 3 7l.8 1.7c0 .2.1.2.3 0 .2-.2 0-1-.7-2.7zm9.8 1.7c.3-.7.2-.9-.4-.9-.6 0-.9.4-.7 1 .2.5.9.4 1.1 0zm1.4-3h-.5c-.2.2-.1.2.2.2.2 0 .4 0 .3-.1zm-5.4-2c.1-.5.7-1.7 1.2-2.7l1-2-.5-.4c-.3-.3-.6-.3-1.8 0l-2.2.2c-.5 0-1 .1-1.1.3-.2.3.6 2 1 2.4l.4.6c.4 1 1.3 2.3 1.5 2.3l.5-.8zm3.9.3c0-.7-.3-1.2-.8-1.2-.7 0-1 .5-.4 1 .6.7 1.2.7 1.2.2zm-7.3-2.8c-1-1.8-1.9-2.6-2.5-2.3-.2.1-.2.5-.1.8.2.7 2.7 3.3 3.2 3.3.2 0 0-.7-.6-1.8zm-42.5-1.4-.4-4.1-.2-2.2h-.5c-.9 0-1 .3-.4.8l.6.4-.5.3-.9.4c-.4 0-1 .7-1 1 0 .2.3.3.8.3l.8.1v1.6c-.1 1.3-.3 1.7-.8 2.2-.8.8-.6 1.1.7 1.1.6 0 1.1.2 1.3.4l.4.5.1-.5v-2.3zm59.9.8c-.2-.2-.3 0-.3.9v1.1l.3-.9c.2-.6.2-1 0-1.1zm-19.6 1.2-.9-1.3c-.6-.8-1-1.2-1.4-1.2-.9 0-.8.3.6 1.6 1 1 1.7 1.3 1.7 1zm-23.8-.8c0-.4-.4-.6-.6-.4-.3.1 0 .6.3.6l.3-.2zm34.8-4.9c.2-.1.3-.5.3-.7 0-.4-.3-.6-1.3-.7-2-.3-7-.2-10.7.1-3.4.4-5 .8-3.1.8 1.1 0 1.7.5 1.1.8-.2.1 2.8.2 6.5.1 4.7 0 7-.1 7.2-.4zm-12.8.1c-.3 0-.3-.2.1-.5.6-.4 4.2-.5 4.4 0l-.1.3c-.6.2-4 .4-4.4.2zM94 98c0-.2-.4-.3-.8-.3-.8 0-1.1.4-.5.6.5.2 1.3 0 1.3-.3zm1.2.4h-.5l.2.1c.2 0 .4 0 .3-.1zm12.2-2.1s-.2-.2-.7-.2a27 27 0 0 1-8-2.8c-2.9-1.6-3-1.7-3.4-1.3-.4.5 0 .8 3 1.8s3.3 1.6.7 1.6c-2 0-2.6.3-1.7 1a42.5 42.5 0 0 0 10.1 0zm12.8-.4c5.4-.4 5.8-.4 5.8-1.1 0-.3-.4-.9-.8-1.3-.5-.3-1.5-1.4-2.2-2.4l-1.4-1.7-4-1.4a242.5 242.5 0 0 1-7.2-2.4c-.7 0-7.5-2.4-10.4-3.6-.5-.2-1.2-.8-1.6-1.4-.8-1.2-2.6-3-3-3-.2 0-.4 0-.4-.2a498.7 498.7 0 0 1-2-2.6l-1-.7c-.8-.3-1 .6-.8 2.6.1 1.4.6 1.9 1 1.2.3-.5 1.5-.3 1.5.2 0 .2.6 1 1.4 1.8 1.3 1.1 2.8 2 6.5 3.8l1.8 1a50.8 50.8 0 0 0 13.8 5.4c.4.2.4.3 0 .5l-.6.3.9.4c.5.2.8.5.7.6-.3.4-.5.3-4.1-.8l-2.8-.7c-.2.2 2.9 1.5 4.6 2 1 .2 1.9.6 2 .8.3.3.8.6 1.4.6.5 0 1 .2 1 .4.1.3-.2.3-1.1.2L118 94l.4.5c.7.8.1.8-2.3 0-.2-.1-.3 0-.3.2 0 .7-1 .7-2.3 0l-2.8-.9-2.5-.6c-.9-.2-1-.3-.5-.4.6-.2 1.9 0 4.7.7 2 .5 2.2.3.4-.3-2-.7-6.4-2.8-8.3-4.1-1.7-1-2.6-1.4-2.4-.8 0 .2 1 1 2.2 1.8 2.3 1.5 2.4 2.1.2 1a30.7 30.7 0 0 1-7.8-6.4c-2.5-2.8-5-5.4-5.2-5.4-.1 0 0 10.7.3 13.9.1 1.3.3 1.7.8 2.1 1 .8 2.5.9 2.5.1 0-.4.3-.6 1.1-.8l1.2-.3-2-1c-2.4-1-2.8-1.7-1.2-2l1-.2-1.3-.9-1.2-1-.1-.5c0-.2 0-.4.3-.5.5-.2 1.4.2 1.4.7 0 .5 2 2 2.6 2 .3 0-.1-.5-.9-1.4a65.7 65.7 0 0 1-2.4-2.6 10 10 0 0 1-1.1-1c-.7-.9-.5-1.4.6-1.7 1-.2 1.4.2.9.8l-.5.5 1.4 1a140 140 0 0 0 10.4 7.3c.3.3 1.7.8 3 1.1l3.5 1c.5.2 1.7.2 2.6.2l5.9-.4zm-30.4-4c0-1-.2-1.8-.2-1.8s-.3 0-.5.2c-.6.5-.6 2.9 0 3.5.7.7.8.2.7-1.9zM74 93.1c0-.2-.1-.2-.1.1 0 .3 0 .5.1.4V93zm42.3-2.6c-.1-.2-2.2-.8-2.8-.8-.4 0 2.1 1 2.6 1 .2 0 .3 0 .2-.2zm23.3 0c.1-.2-1.1-.3-2.8-.3-3.1 0-4.3-.2-4.2-.6 0-.4-.7-.7-2-.7h-1.4v.7c0 .3.3.6.5.7 4.4.3 9.7.4 10 .1zm-31.4-.6c0-.2-1.9-1.3-2-1.2 0 .1.3.4.8.7.8.5 1.2.7 1.2.5zm4.3-.6-1.6-.5-2.7-1-2.1-.7c-.5.2 2.2 1.5 3.3 1.7.6 0 1.2.3 1.4.4a4 4 0 0 0 1.8.5c.5 0 .5 0-.1-.4zm-45.8-4.7c0-4.5-.2-9.8-.4-9.6-.2.1-.7 4.4-.7 5.4 0 .5-.1 1.3-.3 1.8-.2.6-.2 1 0 1.2.2.2.3 1 .3 2-.2 1.6.2 3.2.6 3.2.1 0 .2.2.2.5 0 .2.1.4.2.3l.1-4.8zm59.2 4.3h1l-1.3-.3c-2-.3-2.8-.3-2.8 0 0 .5 1.1.8 1.6.5l1.5-.2zm18 .1 1.5-.4-2.9.2-4.3.1h-1.5l1 .3c1.5.3 4.5.2 6.1-.2zm21.2-.5h-.5c-.3 0-.2.1.1.1.3 0 .5 0 .4-.1zM90 87.3c0-.4-.1-.8-.3-.9-.2-.2-.6 1.3-.4 1.7.3.5.7 0 .7-.8zm53.6.8c.3-.1-.2-.2-1.8-.4-1.2 0-2.7-.3-3.3-.4a229.5 229.5 0 0 1-9.3-1H125l1 .4c.9.4 4.4.7 10.3 1.1l3.9.4c.2.2 3 .2 3.6 0zm8.2.1c.4 0 .6-.3.6-.5 0-.5 1-1 2.1-1 1.3 0 1.4-.1.4-1-1.3-1.2-1.7-1.3-6.8-1.4a35 35 0 0 1-7.4-.7c-1.2 0-1.8-.3-1.2-.6l3.1.1c3.2.3 7.6.4 9 .1 1.4-.2 4-3 4-4v-.7l-1.8.2c-3.3.3-5.7.3-9.7 0-6.8-.4-10-.3-10 .5 0 .2-.3 1-.8 1.8l-1 1.8 1.2.8a17.1 17.1 0 0 0 6 1.3c.2.1 2 .3 4.1.4 4.3.1 5 .3 4.7 1.5l-.2.8h.8c.5 0 1 .2 1.2.4.3.4.8.5 1.7.2zm-1.2-2.5c0-.2 1-.4 1.8-.3 1 .2.6.6-.6.6-.7 0-1.2-.1-1.2-.3zm-15.6-3c-1-.3-1.1-.7-.3-.7.6 0 2.4.7 2.4 1 0 .2-1.1 0-2-.3zm5.2-.6c-1-.2-.5-.7.5-.5l2.3.2c.7 0 1.2 0 1.2.2 0 .3-3 .3-4 .1zm.7-1.1a5 5 0 0 1-2-.5c-.2-.2-.2-.3 0-.3.1 0 .2-.2.1-.4 0-.4.2-.4 1.4-.4l3 .2c1.9.3.7.7-1.5.5h-1.2c.3.2 1 .3 1.8.3.9 0 1.2.1 1.1.4 0 .4-.6.4-2.7.2zm-36.4 6.5c0-.3.2-.5.5-.7.3-.2-.5-.7-4-2.5-4.3-2.1-6-2.6-4-1.2l1.5 1.4c2.3 2.3 3.2 3 4.3 3 1.7.4 1.7.4 1.7 0zm59.3-.6c.7-.4.8-.5.7-1.1l-.2-1.2c0-.3-.2-.5-.3-.5v-.3c0-.2 0-.5-.3-.5-.3-.2-.4 0-.3 1 0 1 0 1.3-.4 1.4-.2 0-.4-.2-.4-.6l-.2-1.2c-.2-.6 0-.7.5-1 1-.5 1.4-.4 1.7.2.4.8 1 .6 1.1-.4.1-.5 0-1-.2-1.1-.5-.4-3.4-.7-6.6-.6h-2.6l-.9.9c-1 1-1 1.5-.5 2 .7.5 1.1.1 1.4-1.1l.2-1.2v1c.3 2.1.5 2.7 1.6 3.8l1 1.2h2c1-.1 2.2-.4 2.7-.7zm-42.7.1.7-.2c.3 0 .5-.2.5-.5l.1-.9c.2-.4-3.7-1.7-4.1-1.3-.2.1.1.7 1 1.7 1.2 1.5 1.5 1.7 1.8 1.2zm12.8-1c0-.5-1-1.3-2-1.5-.6 0-1.3-.3-1.7-.5-.5-.3-.7-.2-1.5.2l-1.3 1c-.4.2-.1.2 1.6.3 1.2 0 2.7.2 3.3.3 1.6.5 1.6.5 1.6.2zm-44-1.3c0-1-.2-1.2-.6-.6-.3.4-.3.7-.1 1.1.4.7.8.4.8-.5zm89.4.2c.4-.7-2.9-1.4-3.8-.8-.3.2-.2.4.5.7 1 .4 3 .5 3.3.1zm-64.8-.7c-.2-.2-.5-.3-.7-.2-.4.2.1.7.8.7.3 0 .3-.1 0-.5zm8-.9c0-.1-.2-.2-.5-.2s-.5.1-.5.2c0 .2.2.3.5.3s.5-.1.5-.3zm-8.1-.5c.9-.3 1.3-.5 1.3-.8 0-.6-1-1.3-1.8-1.3a5 5 0 0 1-2.9-1.3c-.8-.9-1-.6-.3.6.6 1.2 1 1.5 2.6 1.5 1.1 0 1.4.2 1 .7-.6.7-3.4.3-3.4-.5 0-.5-1.2-1-2-.9-.4.1-1.2-.1-2.3-.6l-1.9-.8c-.5 0 .3.6 1.6 1.3l3.1 1.7c1.7 1 2.3 1 5 .4zm10.2-.6.7-.7-.5-.5-.4-.4v1l-.5-.5c-.3-.2-.7-.4-1-.4-1 0-1.4-.3-1.7-1l-.3-.6-1 .1c-1.2.3-1.5.6-1 1.2.2.2.5.6.5.9.1.2.3.5.5.5.3 0 .3-.4 0-.8-.3-.2-.3-.4 0-.6.2-.3.4-.2.9.4.6.7 2.4 2 2.9 2l.9-.6zm3.8 0c0-.3.1-.4.8-.4a7 7 0 0 0 1.5-.2c.7-.2 1.6-1.7 1.6-2.7 0-.4.1-.9.3-1l.4-1.9.2-1.6-.7-.4c-.7-.5-1.5-2.4-1.5-3.8 0-1-1.2-3.8-2.4-5.4-.4-.6-.8-1.3-.8-1.6 0-1-1.8-4.2-3.2-5.4-3-2.6-5.8-3-5.3-.9 0 .6 0 .8-.4 1-1.1.6-1.4 1.7-1.5 5.4 0 2.8 0 3.5.5 3.8l.4.5.4-.5c.2-.3.4-.7.4-1l.5-1c.4-.5.7-.6 1.2-.5l.7.1v-1.4c0-.7 0-1.4.2-1.4.3 0 .8 2.3.8 3.3 0 .3.2.9.5 1.2.2.4.5 1.1.6 1.7.5 2.5.8 3.8 1.3 4.7.3.5.5 1.2.5 1.4 0 .7 1.4 3.1 2 3.6.4.3.4.4 0 .6-.8.5-1.2 0-2.4-3.7-.8-2.6-1-3-1.5-3s-.5 0-.2 2.6c.2 1.5.6 2.6 1.8 5 .8 1.6 1.6 3 1.9 3.2.7.5 1.4.4 1.4-.2zm1-6c-.3-.2-.5-.6-.6-.9 0-.2-.3-.4-.4-.4a19.8 19.8 0 0 1-3.2-7.5c-.3-1.3-.3-1.7.2-1.4.2.1.3.6.3 1.2s.3 1.5.7 2.2l1 2c.4 1.4 2 3.6 3 4 .6.4.8.7.7 1-.2.5-1.2.4-1.7-.1zm-10.6-13c0-1.4.4-2.4.6-2a298.6 298.6 0 0 0 0 3c0 .3-.2.4-.3.4-.1 0-.3-.7-.3-1.4zm-15 19c-.7-.6-3.3-1.7-3.5-1.6-.2.2.6.8 2 1.3 1.8.7 2.3.8 1.6.3zm2.6-.5c-.1-.2-1.8-1.2-3.7-2.2-1.9-1-3.4-2-3.4-2 0-.1.7-.3 1.5-.4 1 0 1.6-.2 1.6-.3 0-.3-3-1.8-4.5-2.2a46.2 46.2 0 0 1-3.6-1c-.1.2 0 .7.3 1.2.8 1.4 3.6 3.7 6 4.8l3.7 1.7c1.6.7 2.6 1 2.1.4zm10.3-1.8c-.4-.5-.8-.7-.8-.3 0 .3.6.8.9.8l-.1-.5zm6.4-1c0-.8-.4-1.1-1-1-.5.3-.4 1 0 1.7.6.8 1 .5 1-.6zm-14 .9c0-.2-3.4-1.8-3.8-1.7-.2 0 .4.4 1.4.9 1.6.8 2.3 1 2.3.8zm8.4-1.7c0-.6-.4-1.3-.7-1-.2.2.1 1.5.4 1.5.2 0 .3-.2.3-.5zm-2.3-.4a3 3 0 0 0-.4-.8l-.3-1.4c-.1-.5-.3-1.2-.5-1.4-.4-.7 0 2.5.5 3.4.4 1 1 1 .7.2zm8-.8c0-1.2-.7-1.3-.7 0 0 .6.2.9.4.9.4 0 .4-.2.4-.9zm13.2 0c1 0 2-.4 2.1-1l.3-1.2.2-.6h-1.2c-1.5 0-1.8-.4-1.1-1.5.2-.3.4-.9.3-1.2-.2-.6.6-1.5 1.3-1.5.2 0 .8-.4 1.2-.8.6-.6.8-1 .8-2s-.2-1.3-.9-2c-.4-.4-1.4-1-2-1.2-2-.7-4 0-2.8.8 1 .7 1.7 1.5 1.7 1.9 0 .5-.6.4-1.3-.3-.9-1-2-1.5-3.4-1.7-1.4-.2-1.7.3-1 1.6.7 1 1.5 3.5 1.5 4.5 0 .6.1.8.6 1 .7.3 1.5 1.5 1.5 2.3l.2.9c.2.3.4.3 1 0 .5-.3.7-.3 1 0 .3.3-.3 1.1-1.4 1.6-.8.3-1 .7-.6 1.1 0 .1.4 0 .7-.2l1.3-.4zm16.6.7c.1 0 0-.6-.4-1.2l-.6-1h-.8c-.8.2-3.4-.3-3.8-.7-.1-.2 2.4.1 3 .3.9.4.4-.3-.5-.8-2-.9-4.1-1.4-4.8-1.2-.9.4-.4 1 1 1.3l1.2.3-1.7-.1-1.7-.1-2 1c-2.3 1.2-2.8 1.8-1.3 1.9l4.6.2c5.3.3 7.7.3 7.8.1zm-89-3.3v-.2l-.3.2v.3c.2 0 .4-.1.4-.3zm2.7-.3c.2-.3.2-.4 0-.6-.3-.2-1.1.4-.9.7.2.4.5.3.9-.1zm32.3-.2c0-.1-.5-.5-1.2-.7-1.8-.8-2.5-1-1.2-.2l1.7.6c.2 0 .4.2.4.3 0 .2 0 .3.2.3v-.3zm12.2-.4c.2-.3.2-.5-.4-1.2-.4-.4-.7-1-.7-1.3l-.4-.8c-.2-.2-.4-.7-.4-1 0-.5-.2-1-.4-1l-2.4.5c-1.2.4-2.6.9-3.3 1l-1.2.3 1.2.3c.9.3 1.2.5 1.2.8 0 .6 0 .6 2.2-.2 1.8-.7 2.2-.7 1.8 0-.2.3-.1.6.4 1.2l1.1.8c.3.1.4.4.3.6-.2.5.5.6 1 0zM142 73c0-.6-2-2.1-2.8-2-.3 0-.6.4-.8 1l-.4 1 .5.3 2 .2h1.5zm-37.6 0c0-.2-2.5-.5-4-.5-1 0-.7.4.4.6 1.5.2 3.6.2 3.6 0zm17.8-.7c.5-.6.3-.9-.4-.9-.3 0-.5.2-.5.7 0 .8.3.8.9.2zM107 72c-.3-.4-1.2-.5-1.4-.2-.1.2.2.3.6.4l1 .2-.2-.4zM92.6 72c.1 0 0-.2-.4-.5-.5-.3-.6-.3-.8 0-.3.4 0 .8.5.6l.7-.1zm22-.8c.2-.2.4-1.6.5-3 .2-2.7.2-2.8.5-3.4.3-.6 0-1.8-.2-1.9-.4 0-1.1 2.8-1.4 4.8l-.2 2c-.2.7-.7 1-.7.3 0-.6-.5-.8-.7-.3-.1.4 1.1 2 1.7 2 .2 0 .4-.2.6-.5zm-14-.3c.5 0-.2-.2-2-.3-2.8-.2-4.6-.6-4.5-1 .1-.4 0-.4 2.2 0 1 .1 2.2.2 2.7 0h1l-1.1-.7c-.6-.3-1.7-.7-2.5-.8-.9 0-1.8-.4-2.1-.6l-.6-.5.4-.2 1 .1c.3.2 1.2.4 2 .6 1.2.2 1.6.2 2-.1l.5-.4-2-.6c-2.7-.7-4-1.3-4-1.6.3-.3 3.6-.3 3.6 0 0 .2 0 .3-.2.3s-.3.1-.2.2c.3.4 1.8.7 2.4.4a38 38 0 0 1 3.2-1.2c1.5-.4 3.6-1.3 4.9-2 1.2-.6 2.4-1.1 2.8-1.1.6 0 1.4-.6 1.4-1 0-.5-.6-.4-1.2 0a5 5 0 0 1-1.6.6c-.7 0-1.5.3-1.8.5-.6.4-2.7 1.3-5.8 2.4-2 .8-2 .8-5.4-.2-1.7-.4-2.3-.7-2.4-1 0-.6 0-.6 1.4-.2l2.7.9 1.7.4 2-.7a57.2 57.2 0 0 0 4.5-1.7l.8-.4-1-.1c-1-.2-2.3-.1-2.7.2-1.1.8-3.2.9-2.5.1.2-.3 0-.4-.8-.8a63.2 63.2 0 0 1-3.6-1.4c-.9 0-2-.8-2.4-1.7l-.7-1c-.1 0-.2-.2-.2-.5s-.2-.5-.4-.5-.3.7-.4 2.4c-.3 10.8-.3 12.1 0 12.4l1.8.4 2.7.4c1.5.3 3.6.3 4.5 0zm-4.8-9.1c-1.2-.4-2.2-.8-2.3-1-.6-.4.3-.4 1.8 0 .8.3 2 .7 2.7.8 1.2.3 1.5.9.5.8l-2.7-.6zm26.8 7.7c.2-.4.1-1.2-.1-2.3-.5-2-.6-2.2-1-2v2.3c.5 2.8.7 3.2 1.1 2zm-16.8-1.3c.8-.2 1.1-.5 1.7-1.6.3-.7.6-1.3.5-1.4 0 0-1 .2-2 .7-1 .4-2.6 1-3.5 1.2l-1.7.5.9.3 1 .6c.2.4 1.3.2 3-.3zM65 66.8c0-.2-.2-.3-.3-.3-.2.1-.3.3-.3.5 0 0 .1.2.3.2.1 0 .3-.2.3-.4zm44.3-.1-.1-.3c-.2 0-.3.1-.3.3v.2c.2 0 .3 0 .4-.2zm-5.8-.8c3-1.1 7-3.3 6.6-3.7l-2.5 1.1a43 43 0 0 1-4.8 2c-1.3.4-2.4.8-2.4 1 0 .3 1.5.1 3-.4zM90 64c0-.4-.1-.8-.3-.9-.1 0-.2.2-.2.8 0 .5 0 1 .2 1s.3-.4.3-.9zm23.6-1.4c-.4-.3-1 0-1.5.7-.2.4-.2.5.1.7.6.4 1.8-1 1.4-1.4zM90 59.3l-.1.6c0 .8 0 1 .1.8v-1.4zm26.7 1.4c.1-.2 0-.6 0-.8l-.2-.5-.4.5a2 2 0 0 0-.3.9c0 .5.7.4 1 0zm-29.3-5c0-1.7 0-3-.2-3 0 .1-.2 1.9-.2 4 0 2.3 0 3.4.2 3l.2-4zm15 3.8c.5-.2.8-.2 1.4 0 1 .4 2.7 0 3.2-.8.2-.3.6-.5 1.2-.5 1 0 2.1-.4 3-1.2.4-.3 2-1 3.4-1.4 3.8-1.2 4.4-1.6 4.7-2.6.2-.8 0-1-.6-1.8a4.7 4.7 0 0 0-3.7-1.7c-1 0-1.5-.2-2.4-.8-1-.7-1.4-.8-2-.7-.8.2-1 .1-.9-.3 0-.3-.3-.7-1.2-1.1-1-.5-1.4-1-1.6-1.6-.5-1.6-3.6-2.1-5-.8-.3.3-.9.5-1.2.5-.4 0-1.5.5-2.4 1-1 .7-1.8 1.1-2 1.1L94.2 48l-2 1.3v2l-.3 2 .8.9c.5.5.8 1 .8 1.2l1.2 1.4c.8.7 1.5 1.1 2 1.1.3 0 .9.3 1.2.7.4.4 1 .7 1.3.7.4 0 .7 0 .8.2.2.4 1.6.4 2.4 0zm.2-2.6c-.3-.2-.6-.5-.6-.7 0-.3.2-.4.7-.3 1 .3 1.3.6 1 1-.2.3-.3.3-1.1 0zm2.6-.6-.3-.7c0-.2-.3-.3-1-.3s-.9 0-.8-.5c.1-.6 2.9-1 4.3-.5a3 3 0 0 0 2 0c.7-.3 1.8-.5 2.5-.6 2.5-.4 3.2-.6 3.5-1 .8-.8 2.3-.7 2.7.1.2.5-.4.9-1.4 1-.4 0-1.3.1-1.9.4-1.4.7-5.2 1.6-6.7 1.6-.9 0-1.3.1-1.4.4-.2.5-1 .5-1.5.1zm-8.2-.4a.6.6 0 0 1-.3-.5c0-.2-.3-.5-.7-.6-.6-.3-.8-.7-.4-1 .4-.2 1 .2 1.2.7.1.3.4.6.7.7.3 0 .5.3.5.4-.2.4-.5.5-1 .3zm2.8-1.3c-1-.7-1.2-1-.8-1.3.4-.2 2.9.9 3 1.3 0 .2 0 .4-.2.4s-.4 0-.6.2c-.2 0-.8-.2-1.4-.6zm2.7-2c-1-.8-1.5-1.4-1.1-1.8.2-.2.4 0 .9.3.4.4 1 .7 1.8.8a4 4 0 0 1 1.5.5c1.1 1-1.7 1.1-3 .2zm4.5 0 .6-.2c.2 0 .5.1.5.3l-.5.2-.6-.2zm-9.6-.7c-.5-.6-.9-2.2-.5-2.2.5 0 1.4 1 1.4 1.6v.8c0 .4-.5.3-.9-.2zm8.8-3c-1.3-.2-1.8-.6-1.4-1 .4-.4 3 .4 3 .9-.2.3-.5.4-1.6.2zm24.2 8v-1.7c-.2 0-1 .2-1.8.6-1 .6-1.8.8-2.2.7-1-.2-.7.4.3.8.5.2 1 .5 1.2.8.3.3.7.4 1.3.3h1zm-39.9-2.6.2-1.8v-1l-.3-.6-.4 1a6 6 0 0 0-.3 3.6c.3 1 .7.4.8-1.2zm30.8-.4c0-.3-.1-.5-.3-.6l-.2-.7c.1-.5 0-.6-.5-.7-.6 0-.8.3-.3.6l.3.6c0 .5.4 1.1.8 1.1.1 0 .2-.1.2-.3zm.5-4c0-.4-.4-.8-.7-.6-.2.2.2 1 .5 1l.2-.4zm-30.8-2c.2-.3-.1-1.6-.4-1.6l-.2.4c0 .2-.3.4-.6.5-.9.3-.6 1 .5 1l.7-.2zm25.5-.7c.7-.5 1-2.4.3-2.6-.5-.2-.9-2-.5-2.4.2-.2.2-.6.2-.8-.2-.3 0-.6.6-1 .5-.2.9-.6.9-.9 0-.3.4-.7 1-1 .6-.3 1.3-.9 1.5-1.3.5-.8 2.4-2.1 3.5-2.4.4-.1.8-.3.8-.5 0-.4-3 0-3.4.4a11 11 0 0 1-3.3 1.7c-.5 0-.9.4-1 .7-.1.3-.7.8-1.2 1-.7.3-.9.5-.8.8.1.3-.1.6-.7.9-.7.3-.8.4-.3.4.9 0 1 .3.2 1.1l-.7.7.4 1.8.9 2.3.3.4-.4.3-.4.4.5.2c.7.3 1 .3 1.6-.2zm6.5-.8c0-.5.4-1.2.6-1.3.3-.3.4-.6.3-1.2l.1-1.6c.2-.5.2-.7-.2-1-.2 0-.4-.5-.4-.8 0-.7-.1-.7-1.4.2-1.2.8-1.5 1.6-1.2 3.4.2.7.2 1.6.1 2-.2 1.1.1 1.6 1 1.5l.8-.1zM93 46l.1-1.6c.4-1 .4-1.2 0-1.5-.5-.6-.6-.3-.6 2 0 1.4 0 2.2.3 2.2.1 0 .2-.5.2-1.1zM91 44c0-.3-.1-.4-.6-.4-.8 0-.9.3-.3.7.2.2.4.6.4 1v.5l.3-.7.2-1zm5.4-2.4c0-1.8 0-3.8.2-4.5.3-1.5 0-2-.9-2l-.5.1v1.4c.1.9 0 1.4-.2 1.4-.1 0-.2-.3-.2-.7 0-1.1-.7-.6-.8.7 0 1 0 1 .4 1s.5.1.5 1.2c0 2.2.4 4.5.7 4.9.2.2.4.2.6 0 .3-.2.3-1 .2-3.5zm13.4 1.7c0-.3.3-.8.6-1.2l.5-.7-.4-.1c-.3-.1-.3-.3-.1-.5.1-.2.2-.5 0-.8 0-.2.2-.5.6-.8.4-.3.7-.6.7-.8 0-.2.5-.6 1.2-.9.6-.3 1.2-.7 1.2-1 0-.3 1.5-1 4.5-2 2.1-.8 1.9-1-.6-.9-1.9.2-2.3.2-2.6-.2l-.8-.4c-.3 0-.6-.2-.7-.4-.2-.5-.6-.5-.6 0 0 .2.2.5.5.6.7.1.5.7-.2.8-.9.1-.7.6.2.6.6 0 .8 0 .7.3 0 .2-.6.3-1.2.3-1.2 0-4.5 1.4-3.8 1.7.5.2.4.6-.3.9-.5.2-.7.5-.6.8 0 .2 0 .5-.3.6l-.3.1.3.6.4.5-.5 1.1c-.6 1.5-.6 1.7.4 2.2 1 .4 1.2.3 1.2-.4zm18.7-2c.4-.7.5-1.4.2-1.4s-1.1 1.5-1.1 2c0 .3.5 0 .9-.6zm-35.3-2c0-.9 0-1.6-.2-1.6l-.7 1-.7 1 .4.6c.8 1.1 1.2.8 1.2-1zm33-.6a7 7 0 0 1 1.6-.3c2-.1 4-.5 4-.8 0-.1.3-.3.6-.3 1.1-.2.8-.6-1-1.4-1.6-.8-2.6-1-3-.5h-.7c-.8-.1-1.7.7-1.1 1 .3.3-.4 1-1.4 1.6-.2.1-.3.4-.2.6.1.3.3.4.4.4l.7-.3zm-2-.7c.7-.4.6-.8-.3-.7-.4 0-.7.2-.8.5 0 .5.3.6 1 .2zm-18.5-2c.2-.5-.1-1.2-.5-1.2s-.5.5-.2 1.2c.2.5.5.5.7 0zm2.8-.5c1.4-.6 1.6-1 1.6-3l.1-1.9c.1-.2 0-.3-.2-.4-.6-.3-1.5.6-1.5 1.4.2 2.4-.3 3.3-.6 1.2-.2-1-.7-1.9-.7-1l-.4 1.6c-.5 1.3-.4 2.5.3 2.5l1.4-.4zm-16.4-1.9c0-.8-.7-.9-.9-.1-.1.5.3 1.1.7.9l.2-.8zm1.7.2c.1-.2 0-.5-.4-.8l-.5-.5.6-.4.5-.4-.3-.8c-.1-.4-.3-3.3-.4-6.7-.2-7.8-.4-12.7-.7-12.7-.3 0-.4 1.7-.5 6 0 4.8.4 15.9.7 16.3.2.3.8.3 1 0zm-2.1-2.4c.1-.7-.3-2.7-.5-2.7l-.1 1.8c0 1.8.3 2.2.6 1zm23 0a1 1 0 0 0-.7 0c-.2.1 0 .2.3.2.4 0 .5 0 .4-.1zm-6.5-3.3c-.4-.7-.5-.5-.5.7V30l.4-.6c.2-.5.3-.8.1-1.2zm13.5-1.8c.4-1 .1-1.4-.6-.9-.4.3-.4.5-.2.9.2.3.2.6.1.7l.1.2c.2 0 .5-.4.6-.9zm-30.4-.2c0-.3-.1-.5-.2-.5-.2 0-.3.2-.3.5s.1.5.3.5c.1 0 .2-.2.2-.5zm18.2-1c0-.3-.1-.1-.1.3v.5c.2-.2.2-.5 0-.8zm-18.5-3c-.1-.2-.2 0-.2.3 0 .4 0 .5.2.3v-.6zm19.4-2.6-.3-.4c-.1-.1-.3 0-.3.2 0 .3.2.4.3.4.1 0 .3 0 .3-.2zm-2.3-4.8v-1.6l-.3-.9-.2 1c-.3 1.5-.3 1.6-.2 1.8.2.4.5.2.7-.3zm2.5-1c0-.5 0-.6-.3-.4-.1.2-.2.4 0 .6.2.4.3.3.3-.3zm.3-1.5-.3-.3c-.1 0-.2 0-.2.2 0 .1 0 .2.2.2h.3zm40.5 142c-.2-.3-.3-.8-.3-1.1v-.6l.4.5c.3.2.7.3 1 .2.3-.1.5 0 .5.4 0 1-1.1 1.4-1.6.6zm4.3-.8c-.5-.1-.4-.8 0-.8.5 0 .8.5.5.7 0 .2-.3.2-.5.1zm3.2-.6s0-.6.2-1l.4-1 .2.9c.2.9 0 1.4-.4 1.4l-.4-.3zm5.8-2.2c-.1-.4.3-1.5.7-1.5l.5.7c.3.6.3.8 0 1-.5.3-1 .2-1.2-.2zm-11-2c-.4-2.6-.3-8 0-8.3.2-.2.3.1.4 1.4v8.2c-.2 0-.4-.6-.4-1.4zm60 .6.2-.8 1.2-.7c2.9-1.8 4-2.2 2.5-1a47 47 0 0 0-2 2c-1.4 1.4-2.2 1.6-2 .5zm-28.3.2c-.2 0-.4-.3-.5-.6 0-.2-.8-1.4-1.6-2.7-1.7-2.5-2-3.1-.6-1.4 2.2 2.7 3.4 4.5 3.2 4.7h-.5zm11.4 0c-.4-.3 0-.7 1.2-1.2 2-.7 2-.7 1.4-.4l-1 .9c-.8.6-1.4 1-1.6.8zM147 149c-.7-.3-.7-.7 0-1 .5 0 .8-1.1.8-2.9v-.9l.4.4c.4.3.4 1.7 0 3.8l-.1.7c0 .3-.3.3-1-.1zm26.3-.2c-.3-.8 0-1 .4-.1v.6c-.1 0-.3-.2-.4-.5zm-8.3-.5v-1.9c.2-1.6.2-1.6.4-.4l.2 1.7c.2.9-.2 1.4-.6.6zm60.6.2c-.3-.1 0-.5 1.1-1.6 2-1.7 2.2-1.9 3.4-2.4l1-.5-.7 1a31 31 0 0 1-4.2 3.8l-.6-.3zm-80.1-1.2c-.3-.4-.2-2 .2-2 .3 0 .5.8.5 1.7 0 .8-.4 1-.7.3zm59.4 0c.6-.6 1.3-.8 1.3-.5 0 .2-1.4 1-1.7 1-.1 0 0-.3.4-.6zm-4.9 0c.1-.2.3-.4.5-.4v.3c0 .2-.2.3-.4.3-.1 0-.2-.1 0-.3zm-50.5-1.3-.3-3.1c-.2-3.3-.4-4-1-4-1 .2-.9-4.8 0-7.6.8-2 1-1.2.8 2.6l-.2 3h.6l.6-.1v4.5c0 4.4-.1 5.8-.5 4.7zm58.2-.4.4-.2c.2 0 .2 0 .1.2 0 .2-.3.3-.4.3-.1 0-.2-.1-.1-.3zm26.2.1c-.2-.2 1.4-2 1.8-2 .4 0 .2.7-.5 1.5-.6.7-1 .8-1.3.5zm-14.7-.3c0-.3 1.8-1.9 2.1-1.9.5 0 .3.5-.6 1.1-1.2 1-1.5 1-1.5.8zm-44.2-.8c0-.5 0-.6.3-.4.3.3.3.4 0 .7-.2.2-.3.2-.3-.3zm34.7 0c0-.2 1.1-.8 1.5-.8.3 0-1 1-1.3 1-.1 0-.2 0-.2-.2zm16.7-.4c0-.3 1.2-1.2 1.6-1.2.4 0 .2.7-.3 1.1-.6.5-1.3.6-1.3.1zm-81.1-.7c-.2-1.1.1-3.2.5-3.4.2 0 .3.6.2 1.8 0 2.1-.5 3-.7 1.6zm26.5 0c0-.4 0-1-.2-1.5-.3-.7-.2-2.2.1-1.9l.5 1.9c.3 1.4.3 1.7 0 2-.3.4-.4.3-.4-.4zm-116.3 0c-1.6-.2-2-.4-2-1 0-.3.3-.3 2-.1l4.9.1h3v.4c0 .3-.2.6-.4.7-.6.2-5.8.2-7.5-.1zm156 .2c0-.2 3-1.6 4.6-2.2.9-.3 1.4-.3 1.6-.1a54.6 54.6 0 0 0-6.2 2.3zm-64-1.5c0-1 .4-1.4.7-.7.2.5-.1 1.7-.4 1.7-.2 0-.3-.4-.3-1zm17.4-1-.2-3.2c0-1.6 0-2 .3-1.7.3.2.4 1.2.4 3 0 2.9-.3 3.9-.5 2zm72.6.8c0-.3.9-.9 1.4-.9.9 0 .4 1-.6 1h-.8zm12.6-.4c-.3-.4-.3-.8-.2-1.6.3-1.1.1-2.1-.4-2.6-.2-.2-.4-.6-.4-1 0-1-.4-1.3-2-1.2-.8 0-1.3.2-1.6.5l-.3.5-.6-.7-.5-.6-.7.4-.7.3.1 1c0 .8 0 1-.2 1-.4 0-.5-.5-.4-1.7 0-.8-.4-1-1.3-.4-.6.3-.9.4-1.1.1a21 21 0 0 0-6-.3c-4.4 0-5.6 0-5.8-.4-.5-.5.1-.7 2-.7 1.1 0 1.7 0 2-.4.6-.5.3-.9-.8-.9s-2.3-.4-2-.8l1.2-.2a70 70 0 0 0 3.2.1l1 .2-.1-.6c-.1-.3 0-.5.2-.5s.4.2.4.5v.5h3.2l6.5-.1.8-.1v-1.1c0-1 .5-2.4.9-2.4.3 0 .4 1 .3 2.3l-.2 1.2h1.7l2-.5c.5-.5.6-3.2.1-3.7-.2-.2-.2-.5.1-1 1-1.3.3-1.4-8.5-1.6-7-.2-9.6 0-9.1.4.2.2 2.7.5 5 .5h.5l-.7.4c-.4.2-.8.3-1 .1l-1.1-.2a21.4 21.4 0 0 1-5.6-.7c-.2 0-.5-.4-.7-.7-.1-.4-.6-.7-1-.8-.9-.3-1.4-.9-1.4-1.8v-.6l.4.9c.3 1 .7 1.3 1 .8.1-.1.7-.3 1.2-.3 1.1 0 2.7-.4 2.7-.8l-1-.8a3 3 0 0 0-2.2-.3c-.9.1-1 0-1-.3 0-.2.3-.6.7-.8l.7-.4-.8-.1c-2.2-.5-2.8-.8-2.8-1.4v-.7l1.1.1c.7 0 1.6 0 2.2-.3l1-.4-.6-.1-1.6-.3c-1 0-1.4-.6-.6-1 .3 0 .2-.2-.4-.5-.5-.2-1-.3-1.2-.2-.2 0-.5 0-.7-.3-.5-.7-.1-1.2 1.3-1.7.7-.3 1.6-.6 2-.9.3-.2 1.3-.5 2.1-.6l1.7-.4h.6c.2.2-.1.4-1 .7-1.2.4-1.6.8-1.6 1.5 0 .2.4.2 1.1.1 1-.1 1.3 0 1.4.3.2.6.7.4.5-.2-.1-.5 0-.7.8-1.1 1-.5 1.2-1 .5-1-.6 0-.1-.7.8-1.1 1-.5 1.3-1.1.3-1-1.2.3-1.4-.2-.3-.7.6-.3 1.6-1 2.1-1.5l1.7-1.3c.4-.2.8-.5 1-.8.2-.4.1-.6-.4-1-.3-.2-.5-.6-.5-.7l.9-1.2.9-1.2c0-.2.3-.4.6-.6.4-.2.6-.2 1.1.1.7.5.9 1.2.4 2-.2.3-.3.6-.1.7.2.3 1.7-1.4 1.7-1.9l.8-1c.8-.6 1-1.8.5-2.2-.2 0-.6.2-1 .6-.6.6-1 .9-1 .4 0-.6.7-1.6 1.4-2 1.2-.5 1.9-.2 1.7.9 0 .1.1.3.3.3.1 0 .2-.2.1-.5-.2-.9.4-1.1 2.3-.9 1.3.2 1.8.2 1.9 0 .3-1-.5-1-4.7-.7-2.2.2-4.9.3-6 .2h-2l-.6.8c-.4.5-1 .9-1.4 1-.9.2-1-.3-.2-.7.7-.4.6-.8-.2-.8-.3 0-1.2.4-1.8 1-.9.6-1.5.9-2.1.9-.5 0-1 .1-1.2.4l-1.3.8-1 .5.7.1.6.2-1 .6c-.9.6-1.9 2-1.6 2.3l1-.4c1.5-1 2.5-.6 1.1.4l-1.7 1.3a7 7 0 0 1-1.7 1c-.6.3-1 .7-.8 1 .3.5 1 .2 2.2-.9 1.6-1.3 2.6-1.9 3.2-1.6l.6.1-1 .8-1.2.8c-.5 0-2.4 2-2.4 2.6 0 .3-.1.9-.4 1.2-.5.8-.3 1.1.7 1 1-.2 1 .2-.3 1.2-1.4 1.2-2.5 1.1-2.5-.1 0-.6-.2-1-.6-1.3-.3-.2-.7-1-1-2l-.8-2.7c-.3-1-.3-1.4 0-1.7.3-.4.3-.5-.7-1l-.8-.4-.2.6c-.1.4-.2.2-.2-.6 0-.9-.2-1.3-.4-1.4-.2-.1-.4-.4-.4-.7 0-.7-.4-1-.8-.5l-.8 2c-.6 1.6-1.3 2.5-1.6 2.3-.1 0-.4-.7-.5-1.5-.2-.7-.5-1.4-.7-1.4-.6-.3-1-1.2-2-4.5l-.9-3 .6-2.2c.4-1.2.7-2.7.7-3.3V87l-.8-.3a12 12 0 0 1-2.5-2c-1.3-1.3-1.8-1.6-2.5-1.6-.6 0-1.2-.3-2.2-1.1a6 6 0 0 1-1.4-1.4c0-.4-2.4-2.8-3-2.8-1.2 0-2.2-1-1.4-1.5.5-.3 0-3-.6-3.5-.3-.2-.5-.6-.5-1l-.5-2c-.3-.8-.5-1.8-.4-2.2 0-.4 0-.7-.2-.7-.1 0-.3-.1-.3-.4 0-.5 1.6-1.4 2.4-1.4h.6l-.5.5-.5.6.7.5.6.5-.5 1-.5 1.2.5.2c.3.2.4.5.3 1-.2.7-.1.9.4 1l.5.2-.1 1.1c-.2 1-.1 1.4.3 2 .4.4.6 1 .6 1.2 0 .5 1.3 2 1.6 2 .2 0 2.1-3.2 2.1-3.5 0-.4-.4-.3-.8.1-.2.3-.6.4-1 .4h-.6l.2-.9.1-.8h-.6c-1.3.3-.8-.5 1-1.8l2-1.6c.4-.5 1.3-.6 1.3 0 0 .1-.4.6-.9 1l-.8.7.5.4c.3.2 1 .4 1.5.4 1 0 1.5.3 1 .7-.4.2-.3.6.1.6.7 0 .8.5.3 1.4l-.4.8 1.1-.1c1.3-.2 1.2 0-.5.9-.9.5-1.1 1.3-.4 1.3.4 0 .4.2.3 1.4-.2 1.7.1 2.6 1.3 3.7 1 1 1.4.9 1.2-.1-.1-.7 0-.8.4-.8.3 0 .6.2.7.5.2.7 1 1 1.4.4.3-.5.3-1.5 0-4.4l-.2-1 .8-.4c1-.5 1-.2.3.7-.4.5-.5.9-.3 1.2.2.5.7 4 .6 4.5-.1.5.5.4.9-.1.2-.3.3-1 .2-2.4l-.2-2 .7.1h1c.3-.2.5-3.1.2-3.7V75c.3-.4 1.3-1 1.9-1 .3 0 .5 0 .5-.2l.7-1 .7-.9-.5-.5-.5-.7c0-.1-.3.1-.5.4-.4.6-1.7.8-1.7.3 0-.1-.3-.2-.7-.2-.4 0-.6.1-.6.5 0 .8-1.8 2.1-3 2.1-.4 0-.5.2-.5 1 0 1.3-.7 2.7-1.1 2.6-.2-.1-.5-.6-.7-1-.2-.6-.4-1-.6-1v-.9c.1-.4.2-1.2.1-1.7 0-1 .3-1.9.6-1.6l.4 1c.2 1.2 1.2 1.4 2.1.5 1-1 1.9-2.1 1.8-2.2 0-.1-.6 0-1.1.3-1.3.5-1.6.5-.6 0l2.3-1.7c.9-.6 1.7-1.1 1.9-1 .3 0 .2 0 0 .2l-1.4 1.4-.9 1h.7c.5 0 1-.3 1.5-.8.3-.5.8-.8 1-.8.4 0 1.2-1 1.2-1.4 0-.5.9-.9 1.3-.6.2 0 .2.3 0 .6a3 3 0 0 0-.3 1.3c0 .4.1.6.2.4.2-.5.8-.4 1.1.2.2.3.5.5.7.5.2 0 .4 0 .4.2 0 .4-.8 2-1 2a3168.4 3168.4 0 0 1-2.8 2.2c-1 .8-.9 1.6.1 2.5l.8.8-.5.3c-.3.2-.6.5-.6.8 0 .2-.1.5-.3.7-.4.3-1.1 2.7-.9 2.9l1.6-1a22.1 22.1 0 0 1 4.2-2.6c.5-.2.9-.3 1-.1.4.4-.5 1.2-1 1-.3-.1-.8 0-1.2.4-2.6 2.2-4 3.2-4.6 3-.7-.2-1.2.2-2.5 2.3-2 3.1-2.6 4.7-2.9 7l-.2 2.3.6 1.8c1.5 4.5 2 5.1 2.8 3.3a4 4 0 0 0-.3-3.5c-.3-.5-.5-1.3-.5-2.3v-1.5l.8.4c.4.3 1 .4 1.2.3l.4-.2-.4-.6c-.3-.6-.4-.9-.1-2 .1-.6.4-1.4.6-1.6.4-.4.4-.6.1-1.2l-.3-.7.6-.6c.6-.7 1.6-1 1.6-.4 0 .3-1.1 3-1.6 3.8-.2.3-.2.6 0 .8.2.2.7-.2 3.4-3.1.5-.6 1-1 1.3-1 .6 0 1-.2 1.6-1.2.7-1 2.1-1.4 2.6-.7l.4.5.2-.4c.2-.3.3-1 .3-1.7 0-1 .1-1.2.4-1.2.2 0 .5.3.5.6.3.8.6.9 1 .1.2-.4.2-1.2.1-2.5l-.2-2h1.2l-.2-.8-.2-1.6c0-.4 0-.7-.2-.7-.5 0-.3-1 .2-1.2.3-.1.6 0 1.1.7 1 1 1.9 2.8 1.9 3.3 0 .2.1.4.4.5.4.2.5 1.3.1 1.9l-.8.4c-.5 0-.7.3-1 1 0 .4-.3.8-.4.8l-.2.4c0 .2-.3.4-.6.4-.4 0-.7.4-1 1-.2.5-.5.8-.8.8-.4 0-.7.4-1 1-.2.7-.4.9-1.1.9-1 0-1.8.8-1.8 1.7 0 .6 0 .7.8.7l1.9.1 1 .2-.6.7-.5 1c0 .2 1.3 0 2-.3.4-.2 1.3-.4 1.9-.4a6 6 0 0 0 1.5-.2c.5-.2.6-.9.1-.9-.1 0-.2-.3 0-.8 0-.6 0-.8-.5-.8-.3 0-.5 0-.5-.2s.7-1.2 1.5-2.2c.9-1 1.8-2.3 2-2.7.5-.7 1.3-1 1.3-.3 0 .2-.6 1.2-1.2 2-.7 1-1.2 1.8-1.2 2 0 .3.6 0 1.3-.6.6-.7.8-.7 1.3-.5.7.3.7.7 0 1.4l-1.6 1.7c-1.1 1.4-1.1 1.9 0 2.2.5 0 .5 0 .3-.4s-.2-.6.4-.8c.4-.2.7-.4.7-.6 0 0 .2-.1.4 0 .3 0 .7-.2 1.1-.8l1-1c.2 0 .6-.2.8-.6.3-.5.6-.6 1-.5 1.1.3 1.5 0 1.2-.8-.3-.6-.3-.9.1-1.6.2-.5.6-1 .7-1 .2 0 .3-.2.3-.5 0-.2 0-.6.2-.6.2-.1.3-.4.3-.6 0-.2.3-.6.7-1 .7-.7.8-1.5.3-2-.6-.4-1 0-1.7 1.8l-.5 1.5H243c-1.3 0-1.4-.3-.7-1.7l.9-2.1a164.4 164.4 0 0 1 1.4-4.9c.6-.2.5-.6 0-1.8-.4-.7-.6-.9-1-.7l-.6.2c-.4 0-.5-1 0-1.2l.2-.7c0-.2-.1-.5-.3-.5-.1 0-.2.1-.2.3 0 .3-.9.6-1.2.3-.2-.2-.1-.4.1-.7.5-.7.5-3-.1-4.3-.4-1-.5-1.2-.2-1.7l.3-.6-1-1.7c-.5-.9-1-1.6-1.2-1.6l-.2-.4c0-.4.2-.4.8-.4.7.1.8 0 .6-.3l-.3-1c0-.4-.6-1-1.4-1.4-.9-.6-1.3-1-1.3-1.4 0-.6-3-4-3.3-3.8-.1.1 0 .6.4 1 .3.4.5 1 .5 1.5l.6 1.7c.3.6.5 1.2.4 1.3-.3.4-.8.3-1.3-.3-.3-.3-.8-.5-1.2-.5-1 0-1-.3-.2-.9 1-.6.9-1.2-.3-2.5-.6-.7-.8-1.2-.7-1.6 0-.4 0-.5-.7-.7-1-.2-1-.7-.1-1.1 1-.5.6-.8-.8-.7l-1.3.2.1-.5c.1-.3.5-.6 1.1-.8.6-.1 1-.3 1-.4 0-.4-1.3-.3-2.3.2-.9.4-1.8.3-1.6-.2.1-.4.5-.6 1.4-.9.3-.1.4-.2.2-.4-.2-.3-.7-.1-1.8.4-1.2.6-1.6.7-2 .4-.8-.6-1-.6-1.7 0-1.2.9-2.1.5-1.3-.6.6-.9.5-1-.5-.8-1.4.2-1.6.5-2 2-.2.9-.4 1.8-.6 2-.4.7-1 2.5-1 2.6l1.6-1c1.6-1.2 1.6-1.2 2-.7.2.2.6.3.9.3.6-.2.6 0 0 .5-.1.3-.6.4-1 .4-.7 0-2.2 1.2-2.2 1.8 0 .3.1.3.7 0 .9-.4 4.9-.8 4.9-.4 0 .2-1.5 1-2 1l-1.5.7c-.8.4-1.6.7-2 .7-.6 0-3 1.9-3.7 3-.5.8-1.4.9-1.6.1 0-.3-.4-.5-.6-.5-.8 0-.7-.4.3-1.3 1-1 .9-1-.6-1.5l-1-.3-.4.5c-.4.5-1.2.7-1.2.3 0-.5.7-1.2 1.1-1 .6.1.9-.3.5-.8-.2-.3-.2-.6 0-1.2.3-.5.5-1.2.6-1.6.2-.8 1.9-3 2.5-3.3.4-.1.4.2-.1 1.3-.1.3 0 .4.4.4.3 0 .5.1.5.2 0 .4-1 2-1.8 2.8-.7.7-.8.9-.4 1 .3 0 1-.5 2.1-1.7 2-2 3-4.4 3-6.4v-1.3l-.5.9c-.5.7-1.6 1.2-1.6.6a127 127 0 0 1 1-7.6c-.3-.2-1 1.7-1 2.6.1.7 0 .9-.4.9s-.5-.2-.6-.8c0-.9-.4-.9-.8 0-.3.7-1.2.8-2 .3-.4-.3-.5-.6-.3-1.4.1-.9 0-1.2-.4-1.6-.3-.3-.5-.8-.5-1.3 0-.6-.2-1-.6-1.2-.4-.3-.5-.7-.5-1.5 0-1-.1-1.2-.7-1.4l-1-.7c-.2-.4-.4-.4-1.2-.1-.7.2-1.2.2-1.5 0-.4-.2-.8-.2-1.3 0l-2.5.4c-1.7.2-2.3.5-1.4.8.2.1.3.4.2.7 0 .2 0 .5.3.7.2 0 .8.7 1.3 1.4.7 1 1 1.6 1 2.2 0 1.9-1.1 2.8-1.5 1.2 0-.6-.3-.8-.8-.8h-.6v-1.4c0-2.3-.1-2.9-1.1-3.4l-1.4-.5-2-.3c-.8-.3-2-.5-2.6-.6l-1.2-.2.2.5c.3.7-.4.9-1.6.4-1.4-.4-2-.3-1.3.2 1 .8 3 3 3.3 3.4.2.5.2.6-.2.8-.2 0-.8-.3-1.6-1.2-1.9-2-3.6-3-4.4-2.9-.6.2-.9 0-1.6-.7-.7-.8-1-1-2.2-1-3.4-.4-4-.6-4.6-1.2l-.6-.7.5-.3c.6-.5 1.4-.5 2.8-.2l2.2.5c1 0 1.5.3 2 1l.7.7.7-.4c.7-.5 1.3-.5 2-.1.4.2.8.2 1.6 0l1-.4 1.9.6 2.4.5c.5 0 2.2-1 2.7-1.6.2-.3 4.7-.7 7.5-.8 3.5 0 6.8 1.5 6.8 3.1 0 .5.1.7.4.7.3 0 .7.3 1 .6.4.6.8.7 1.9.8 1.8.1 2.9.7 3.4 2 .3.5.8 1 1 1 .9.2 1.2.6 1.2 1.4 0 1.1.7 1.7 2 1.9.7 0 1.5.4 2 .8l1.6 1c.4.3 1 .8 1 1 .2.4 1 1 2 1.6l1.9 1 1.3 2.5c1.1 1.9 2.2 3.2 4.4 5.5 2.8 3 3.6 4.1 4.3 6 .4 1.3 1.2 2.4 1.8 2.6.5.2 1.8 1.8 3.9 4.7a9 9 0 0 0 1.4 1.8l.3-.5c0-.4.3-.5.4-.4.4.2.4 1.1 0 1.2-.2.1.2 2.6.6 3 .7.8 1.5.3 1.9-1.2.3-1.4 0 7.1-.6 12.6l.1 4.2c.2 3 .2 4.3-.1 5.2-.4 1.5-.5 5.2 0 5.8.2.3.3.3 1 0 .6-.2.8-1 .4-1.5-.4-.4-.4-5.3 0-11l.6-8.4a252.9 252.9 0 0 0 1.7-35.4c-.5-.4-.7.7-.9 4.2a116.1 116.1 0 0 1-1.5 16.1c0 .5 0 .6-.2.3v-5.4a125.5 125.5 0 0 1 1.3-22.7c-.4-1.4-.2-2 .5-2 .8 0 1.9-.6 1.9-1 0-.7 2.6.1 3.2 1 .3.5.3 2.5 0 2.7-.2 0-.2.5-.1 1 0 .4 0 .9-.5 1.4-.5.7-.5 1-.3 2 .3 1.2.1 5.5-.5 15l-.3 6c.2 2.7.1 4-.2 7.8l-.5 7.6c0 2.9 0 3.5.3 3.8.7.5 1 0 1-1.2 0-1.3.4-1.6.7-.5 0 .3.4.6.7.7.3 0 .7.3.8.7l.5.6c.3 0 1.1-2.1 1.4-3.3 0-.5.3-1 .5-1 .5 0 1.2-.9 1.2-1.6 0-.8.6-3.4.8-3.4.4 0 .8 1.4.6 2.7 0 1 0 1.3.1 1.1.6-.5 2.2-3.8 2.3-4.5.1-1 .4-1.4.9-1.4.3 0 .4.1.2.6l-.3 1.3c-.1.5 0 .7.4.8.3.1.6.5.7 1 .3 1.3.4 1.6.7 1.6l.2-.6c0-.6 1.5-2.3 2-2.3.4 0 .8 1.4.5 1.9-1 1.8-2.2 2.5-2.7 1.6-.2-.4-.3-.2-.5.8s-.2 1.5.1 2.5c.2.6.3 1.4.2 1.7 0 .3.1.7.6 1.2 1.6 1.7 1.7 1.8 1.7 3a9 9 0 0 1-.6 2.6 43 43 0 0 0-.8 2.4c-.3 1-1.3 2.6-1.9 3.1-.6.6-.8-.3-.4-1.6.2-.7.4-2.2.4-3.6v-2.5l-.7-.6c-.6-.4-.8-1-1-2-.1-1.6-.5-2-.7-1-.8 3.4-1 4.2-1 4.8 0 1.6-.8 4.4-1.3 4.6-1 .3-.1 1.3 1 1 .9-.2 1.5-2.3 1.4-5.2l-.1-2.2h1v2c.1 2.2-.2 4-1.3 6.8-1 2.7-1 2.7-.5 2.7.2 0 .7-.2 1.1-.5.7-.5 1.7-.7 1.7-.3 0 .4-.7.8-1.3.8-.5 0-1.1.4-2.2 1.4l-.5.5.3.6c.3.3.8.6 1.3.7 1 .2 1.2.4 1 .9-.1.2-.7.5-1.5.6-1.6.2-2.1.5-1.7.9.5.5 2.4.6 3.1.2.8-.6 1.2-.6 1.2-.1 0 .1-.6.7-1.4 1.2-.7.5-1.4 1.1-1.4 1.3 0 .2-.3.5-.6.6l-.7.2h.9c1 0 2-.5 4-2 1.9-1.3 6-5.5 6.4-6.3.2-.7.7-.9.7-.4a21.1 21.1 0 0 1-3.4 6.3c0 .4-2.4 2.7-2.6 2.6-.2-.1 0-.7.5-1.2 1-1.2.9-1.8 0-.9-1.1 1-4 2.7-4.6 2.7-.7 0-.4.7.3.8.4 0 .7.2.8.4.4 1.3 3.4-.3 6-3 1.3-1.6 1.9-2 2-1.8 0 .3-.3 1-.8 1.6l-.8 1.1 1 .1c.9.2 1 .3.9 1-.1.6-4.7 2.8-8 3.8-.5.2-1 .5-1 .7 0 .5 1.2 1.1 2.3 1.1.7 0 1 .1 1 .3-.1.2 0 .5.1.7.4.4.4.4-1.6.9l-3 .3h-1.6l.9.5c.5.3 1.7.8 2.7 1 .9.3 1.4.5 1 .6-.7 0-.9.4-.4.8s4 .4 5 0c.4-.2 1.1-.3 1.6-.3 1 0 2.4-.8 2.6-1.5l.1-.5-.8.2c-.4 0-1.2.3-1.6.5-1 .4-3.4.2-3.5-.2 0-.2.2-.3 1-.3 1 0 4.5-1.3 5.7-2.1.4-.2.8-.3 1-.2.5.2.4.3-.5 1-.6.6-.9 1-.6 1 .7 0 4.5-2 5.7-3 1.4-1.3 1.8-1.9 1.3-2.5-.2-.4-.1-.8.6-2 .6-1.1.8-1.7.7-2.3-.1-.5 0-.9.5-1.3.4-.4.6-.7.5-.9l.1-.2c.2 0 .4-.5.5-1 .1-.8.3-1.1.7-1.2.3-.1.5-.2.6 0 .2.1-1 4.9-1.3 5.5-.2.3-.3 1-.3 1.4.2 1.1-1.2 4-2.8 5.5-1.4 1.5-1.5 1.6-.9 2.1.8.6.2 1-1.5 1.5-1 .2-2 .4-2.3.6l-.7.2.5.3c.6.3.5.6-.3 1-1 .5-1 1 0 1.9.5.5.7.8.5 1-.4.5-1.2.2-1.6-.5l-.3-.7-2.6.1c-2.8.1-3 .2-2.8.7.4 1-2.8 2.7-5.6 2.8h-1l.9.2c1.2.1 1.7.5 1.3 1-.2.3-.6.3-1.2.2-.7-.1-1 0-1.3.5l-.5.7H262.7l1 .4c.7.2 1.2.5 1.2.8l.1.5-1.8-.2h-2c-.1.3-.5.3-1.2 0-.7-.1-1.2-.1-2 .1-.6.2-1.1.2-1.4 0l-.5-.2-.2 3-.3 5.4c-.1 3.1-.5 4.5-1.5 4.7-1.2.3-1.4.6-1.2 2.1l.2 1.4-.8.5c-1 .7-1.7.7-2.2 0zm3.5-5-.3-.4c-.4-.2-1 .1-.9.4.2.4 1.2.4 1.2 0zm-.3-1.6c0-.3-.1-.5-.5-.5-.7 0-.9.4-.3.8.7.4.8.3.8-.3zm-10.4-1.4c0-.4-1.7-.5-1.7-.2 0 .4.8.8 1.3.6.3 0 .5-.2.4-.4zm7.7 0c.1-.3 0-.4-.5-.4-.8 0-.8 0-.6.6.2.6 1 .5 1.1-.2zm-5.3 0c0-.3-.8-.5-1.4-.3-.6.2-.1.7.7.7.6 0 .8-.1.7-.4zm3.4-.2c.2 0 .2 0 0-.2s-.6-.3-1-.2c-.7.2-.7.3-.4.5.2.1.5.2.7 0h.7zm6-7c0-.8-.2-1.2-.4-1.2a5 5 0 0 1-1.3-.5l-1.1-.4s0 .6.3 1.3c.3.9.6 1.2.9 1.2.2 0 .5.2.6.4 0 .3.3.4.6.4s.4-.3.4-1.2zm-13.4-2.7c.2-.3-1.4-.6-3.7-.7a14 14 0 0 1-2.3-.2c-1-.3-3.8.6-3.5 1.1.1.3 9.2 0 9.5-.2zm-.8-1.6v-.7c-.1-.5 0-1 .6-1.8.5-.7.7-1.3.6-1.9 0-.5.1-1 .3-1 .1-.1.2-.6 0-1.2 0-.9 0-1 .4-1.2.4 0 .6 0 .7.5a8 8 0 0 1-.4 3.8c-.2.2-.2.4 0 .6.3.3 1.4-.6 1.7-1.4l.4-.8c.5-.8 2-4.1 2-4.5a203.2 203.2 0 0 1-1.9 3.1c0 .2-.2.4-.4.4-.5 0-.5-.3-.1-.7.3-.4 0-1.2-.5-1.2-1 0-1.1-.4-.3-1.7l1-1.4c.5-.2.3-.6-.4-.9-1-.4-1.2-1.9-.4-2.5.6-.6.5-.9-.4-.9-.8 0-.8-.1 0-1.2.7-1 .8-.9-.5-1.3-.2 0-.5 0-.7.3l-1.1.8c-.5.2-1 .6-1.1.9l-1.6 2c-1 1.2-1.2 1.5-1 1.9.4.3.3.5-.6 1.3-1.1 1-1 1.5.1.8l.8-.5.2.5c.1.3 0 .6-.5 1a150.6 150.6 0 0 0 .7.1c.9-.3 1 .1.3.8-.7.7-3 1.9-3.4 1.9-.6 0-.8-.5-.5-1 .3-.2.2-.3-.2-.1a2 2 0 0 1-1.2-.2c-.5-.3-.8-.3-2.2.3-1.8.7-1.8.7-1.6.9.1 0 .7 0 1.3-.2.6-.2 1.1-.3 1.2-.2.4.4-.3 1.2-1.2 1.7-.6.2-1 .6-1 .8 0 .6.8.6 1.6.1 1.2-.7 1.5-.7.6.1l-.8.7.6.6c.5.5.7.5 1.1.3.7-.5 1.3-.5 1.8 0 .2.3.5.4.7.3l.8-.3.5-.2-.4.5c-1 1-.4 1.5.8.8 1.4-.8 1.9-.2.7.8l-.6.5h1.6l1.9-.1zm-1.8-4.4c-.3-.3-.2-1.2.2-1.4.6-.3 2-3.1 2-3.9v-.7l.7.2c.5.2.8 0 1.1-.3l.4-.5-.2.7-.1 1c0 .1-.3.4-.7.6-.4.2-.7.4-.7.6 0 .2-.2.5-.5.8-.3.3-.5.7-.5 1 0 .5-1 2-1.3 2l-.4-.1zm-2.2-1.2c-.2-.3.9-1.3 1.4-1.3.6 0 .4.7-.2 1.2-.7.5-1 .5-1.2 0zm5.4-6.4c.2-.4.5-.6.6-.6.2.1 0 .4-.3.7-.7.7-.9.6-.3-.1zm-1.4-1 .3-.3.1.3c0 .2-.1.3-.3.3-.1 0-.2-.1 0-.3zm3.4 12.2c1 0 3.4-2.3 3.4-3.3v-.7l-1 .6c-1 .6-4 3.6-4 4l.4-.2a2 2 0 0 1 1.2-.4zm20.7.1c-1.6-.7-3.2-2-3.7-3-.2-.4-.4-1.3-.3-2V115l.7-.1c1-.1 1-.6 0-1.6-.8-1-1-1-1 0 0 .6-.2.7-.7.7-.5 0-.7.2-.8 1-.2.7 0 1 .2 1.4l.4.7c0 .2.3.5.6.8l.5.5-.5.4-.4.5.8.9c1 1.1 2.6 1.8 4.2 1.8h1.3l-1.3-.7zm-13.7 0c.3-.2-.5-1-1.1-1-.3 0-.8 0-1.1-.3a2 2 0 0 0-.8-.4c-.4 0-1.2.7-1.2 1.2 0 .6 3.6 1 4.2.5zm7.8-1.1c-.2-.6-.6-1.1-.9-1.1-.4 0-.3.5.2 1 .6.7 1 .7.7 0zm6-.5c-.8-.5-1.3-.5-.7 0 .3.2.7.4 1 .4.2 0 .1-.1-.3-.4zm-15.5-1-.1-.6c-.4-.4-1 0-1 .6 0 .4.9.5 1.1 0zm3.9-1c.3-1.6.3-2.3 0-2.3-.6 0-1 1.1-.9 3 .1 1.1.5.8.9-.7zm14.7 1c-.3-.3-.7-.4-.9-.4-.1 0-.8-.4-1.5-1-1.3-1-2-1.1-2-.6 0 .7 3 2.4 4.1 2.4h.8l-.5-.4zm-11.4-.7c.2-.6 0-1.6-.4-1.6-.2 0-.3.5-.3 1 0 1.2.4 1.5.7.6zm12.8-1c.2-.2 0-.3-.6-.6l-1.3-.5c-.3-.2-.7-.3-1-.3-.5 0-.5.1-.3.6.5.8 2.3 1.3 3.2.8zm3-.6c.1-.1-.1-.3-.5-.4-.7-.2-1 0-.8.4.2.4 1.1.4 1.4 0zm6.8-.8c0-.5-3.5-1-4.6-.6-.6.2-.5.6.3.7 1.5.2 4.3.2 4.3 0zm-9-.2c.2-.2.1-.3-.5-.5a3 3 0 0 1-1.2-1.2c-.7-1.2-1.7-1.4-4-.8-.2 0-.4.2-.4.3 0 .4 1.6 1.1 2.5 1.1.7 0 1 .2 1.4.7.4.6 1.5.8 2.2.4zm-12.8-2.3c-.1-.5 0-1 .1-1 .4-.3.3-1.3-.2-2-.7-.9-.9-.4-1 2l-.2 2h1.5zm-3.2-4c.1-.7 0-1.2-.2-1.5l-.4-.6v2.8c0 2.1 0 2.5.2 1.6l.4-2.3zm29.4 2.7.5-.4-.5-.1c-.2-.2-.7 0-1.1.3l-.7.6h.6c.4 0 .9-.2 1.2-.4zm-37.8-1.3c-.3-.3-.7.2-.7 1v.5l.5-.6c.3-.5.4-.8.2-1zm13.9-.9c.1-1-.2-1.8-.6-1.1-.2.2-.4.2-1-.4-1-1-1.6-.7-.9.4l.6 1.3c0 .5.3.7 1.2.8.5 0 .6-.2.7-1zm10.2 0c0-.3-2-.7-2.8-.5-.3 0-.2.2.5.4 1.1.3 2.3.4 2.3 0zm-7.7-3.2c-1.5-.8-2-.6-1 .4.6.4 1 .5 1.6.4l.8-.1zm-15.2.2 1.4-.8c1.6-1.4 2.5-1.9 3.4-1.8 1.1.1 1.1-.4 0-1.2l-.9-.7-.7.5c-.4.3-.8.6-1 .6-.2 0-.6.3-1 .6-.3.4-1 .7-1.3.8a2 2 0 0 0-1.4.7c-.6 1-.4 1.7.4 1.5l1-.2zm18-1c.2-.3-.7-.6-1.8-.5h-.8l.7.3c.7.5 1.7.5 2 .2zm-10.8-2.7c.2-1.9 0-1.9-.8 0-.3.8-.3 1.2-.1 1.3l.2.5c0 .3.1.4.3.2l.4-2zm5.4 1.9c.3-.2.3-.3.1-.6-.1-.2-.4-.8-.5-1.4a30 30 0 0 0-1.3-4.7c-.1-.1-.4 0-.7.2-.4.4-.5.7-.3 2 0 .8.3 2.2.5 3l.4 1.7h.7c.4 0 .9 0 1.1-.2zm-12.5-1.2c.1-.3 0-.6-.4-.9-.5-.3-.6-.5-.4-1.2l.1-.8-.5.5-.7 1.1c-.1.5 0 .6.4.6.2 0 .5.3.6.6.2.6.7.6.9 0zm15.4-1.2c-.5-1-1-1.4-1-.8l-.6.4c-.2 0-.5.3-.5.4 0 .2 1.8 1 2.4 1 .1 0 0-.4-.3-1zm-20.5-.3v-.7c-.2-.2-.8.5-1 1.2l-.2.6.5-.3c.3-.1.6-.5.7-.8zm-17-1.9c.4-.7-.2-.8-.8 0-.4.4-.6.7-.4 1l.1.5.4-.5.7-1zm3.1 0c0-.3-1-.2-1.6 0-.8.6-.5.8.6.5.6-.1 1-.4 1-.5zm-4.3-1.2-.1-.3c-.2 0-.3.1-.3.3v.2l.4-.2zm4.3-.5h-.5c-.2 0-.2.2.1.2.3 0 .5 0 .4-.2zm-5.8-.9-.6-.3-1.2-.3c-.4-.2-.6-.1-.6.2 0 .2.3.4.5.4.3 0 .7.2.9.4.2.3.4.4.7.1.2-.1.3-.4.3-.5zm4.4.1c.2 0 .4-.2.4-.4 0-.3-1.4-.2-2 .2l-.5.4h.8c.5 0 1 0 1.3-.2zm37.2-1.5c-.4-.3-.7 0-.4.4 0 .1.3.2.4 0 .2 0 .2-.2 0-.4zm-33-.4c.9-.1 1-.2.5-.3-.8-.3-5.1 0-5.1.3s3.1.3 4.6 0zm3.5-.5h-1c-.4 0-.2.1.4.1h.6zm-4.7-1c1 0 3.7-.3 6.1-.7A58.8 58.8 0 0 1 248 93c.4 0 .4-1 0-1.2a181 181 0 0 0-22.7 1.7c-3.7.2-4.2.4-4.2 1v.4l3.3-.2 5.1-.3zm36.8-1c0-.3-.2-.3-.5-.2-.8.2-1 .6-.2.6.4 0 .7-.2.7-.4zm.2-2.4c.3-.4.6-.8.5-1-.1-.5-2-.3-2.6.2l-.5.5.5.5c.6.6 1.3.6 2-.2zM239 91c0-.1-.3-.2-.7-.2-.4 0-.7 0-.7.2s.3.3.7.3c.4 0 .7-.1.7-.3zm18.9-3c.2-1 0-1.9-.4-1.6-.4.2-.4 2.5 0 2.5.1 0 .3-.4.4-1zm6-4.8-.7-1.7-.7.5c-.7.6-.7 1.6 0 2.4l.5.8.5 1.3.4 1 .2-1.3c.2-1 .2-1.6-.3-3zm-17.8-.5.2-1.1c-.3-.3-1.3.9-1.3 1.5 0 .8.7.6 1-.4zm20.1-1.8v-.5l-.4.4c-.5.7-.5 1.5 0 2 .2.2.3.1.4-.6V81zm6 .6c0-.4 0-.8-.2-1-.1 0-.2.3-.2.8 0 .6 0 1 .2 1s.3-.4.3-.8zm-8.4-1c0-.2-.1-.3-.4-.2l-.4.4c0 .2.2.3.4.3s.4-.2.4-.4zM259 80c0-.2-.1-.4-.3-.5-.2 0-.3.2-.3.5s.1.5.3.5c.2 0 .3-.3.3-.5zm2.3.2c0-.5-.5-1.1-.7-1-.2.3.1 1.3.4 1.3.2 0 .3-.1.3-.3zm-53.4-.6c.3-.9.1-1-.6-.7-.7.4-1.3.1-1.3-.6v-.5l-.4.7c-.6 1-.2 1.8 1.2 1.8.8 0 1-.1 1.1-.7zm36.3-.3.4-1.2v-.5c-.3-.4-.5-.2-1.1 1-.6.9-.5 1.7.1 1.7.3 0 .5-.4.6-1zm3.8 0c-.3-.2-.8.2-.6.5.1.2.3.2.5 0 .1-.2.2-.4 0-.5zm18.2-.1c0-.3-.1-.2-.1.1 0 .3 0 .5.1.4V79zm-.7-1.3c0-.3-.1-.5-.3-.5l-.2-.8c0-.9-.5-1.3-.8-.8-.4.5-.3 1.6 0 1.6l.6.6c.3.7.7.7.7-.1zM248.2 76l.4-2v-1.2l-.6 1c-.8 1.6-1 3-.6 3 .2 0 .6-.3.8-.8zm-2.6.4c.3-.2.3-.4 0-.8 0-.3-.2-.8 0-1 0-.4 0-.6-.4-.7-.3 0-.5 0-.5.5l-.2 1.4c-.2.7-.2.8.3.8.2 0 .6 0 .8-.2zM208 74.2l.3-.5-.6.3c-.6.4-.7.6-.3.6l.6-.4zm42.3-2c-.4-.7-1.3-1.2-1.7-.8-.2.2 0 .3.3.3.4 0 .7.3 1 1 .3.5.5.8.6.6 0-.1 0-.6-.2-1zm-27.6-1.7c0-.4 0-.6-.2-.6-.3 0-.4.8-.1 1.1.3.3.3.2.3-.5zm25-.7-.8-1.8-.6-1.2.1 1.6.2 1.8.6.2h.7zm1-3.1c0-.4-2.2-3-2.3-2.8-.1 0 0 .4.4.8l.6 1c0 .5.8 1.5 1 1.4.2-.1.3-.3.3-.4zm-3.5-1.3c-.5-2.5-1-3.6-1.6-3.3-.4.2-.2 1.8.2 2.2l.5 1c.2 1.1 1 1.2.9.1zM226.6 41c0-.4-.6-.2-.7.2 0 .2 0 .3.3.2l.4-.4zm-4.5-.2c.3-.2.3-.3 0-.8-.5-.7-.8-.5-.8.4 0 .7.2.7.8.4zm2.7-1.1c0-.5-.6-.6-1-.2-.6.6-.2 1 .5.7l.5-.5zm34.2-5.3c.3-.5-.1-.8-.7-.5-.2.1-.4.4-.3.5.2.3.8.3 1 0zm0-2.8c.3-.3-.4-1.2-1-1.2-.5 0-.6 1-.1 1.2.5.2.9.2 1 0zm-58.4-2.8c0-.1 0-.2-.3-.2-.2 0-.4 0-.5.2-.1.2 0 .3.2.3s.5-.1.6-.3zm6.7-.6c.3-.4-.1-1-.8-1-.6 0-.7.6-.2 1 .4.5.6.5 1 0zM50.5 141c-.4-.2-.6-.5-.6-.7a75.7 75.7 0 0 1 12.1 0c.4.4-.6.6-4.3.6a71 71 0 0 0-5.3.2c-.8.1-1.6 0-2-.1zm194.4 0c-.4-.5-.4-.9.3-1.5.8-.7 1-.6.8.6-.2 1-.6 1.4-1 .9zm-65-1.2v-.1.5s-.1-.1 0-.4zm6.3-.5c.1-1 .7-1.2.7-.2 0 .6-.1.9-.4.9-.3 0-.4-.2-.3-.7zm-32.3-1c0-.6 0-.8.1-.5v1.2-.6zm17.5.3c0-.5 0-.7.1-.4v.9l-.1-.5zm70.3.3c0-.3.1-.5.3-.5.2.1.4.3.4.5s-.2.4-.4.5c-.2 0-.3-.2-.3-.5zm-26.5-.6c.4-.4 2.4-.6 2.4-.2 0 .1-.6.3-1.3.3-.7 0-1.2 0-1-.1zm25-.5c0-.2 0-.5.3-.5.2 0 .4.3.4.5 0 .3-.2.6-.4.6s-.4-.3-.4-.6zm-10.4-.5.5-.5c.2 0 .3 0 .2.3 0 .2-.2.4-.4.4-.2.1-.3 0-.3-.2zm-65.2-4.8a22 22 0 0 1 .4-7.4c.6 0 .6 9.5 0 10.1-.2.2-.3-.5-.4-2.7zm-8.9 1.6c0-.1.1-.2.3 0l.2.2-.2.1c-.2 0-.3-.1-.3-.3zm-12.2-.5-.2-1.5-.3-3.1c-.2-1.2-.2-2.1 0-2.2l.1-2.5c0-1.6.2-2.4.4-2.7l.4-.5.2.6c.4 1.3.3 3.9-.2 4.2-.2.2-.3.5-.2.6l.4 2a131.2 131.2 0 0 0 .6 5.3c-.2.5-.8.4-1.2-.2zm34-.5c-.3-.4-.4-1-.3-1.1 0-.2.3 0 .5.6.4 1.3.2 1.6-.3.5zm-4.4-.2-.2-.6c0-.3 0-.3.3 0 .3.6.2 1-.1.6zm85.5-.3c0-.5.1-.6.3-.4.3.3.3.4 0 .7-.2.2-.3.1-.3-.3zm2.5-.1c-.2-.2-.4-.7-.4-1.2 0-.8.1-.9.4-.6.5.4.8 1.6.5 1.9-.1.1-.4 0-.5-.1zm-42-.7v-.5 1-.5zm-52-.6v-1c.3 0 .4 1.3.2 1.6-.1.2-.2 0-.2-.6zm60.4-.5v-.5c.2.3.2.7 0 1v-.5zm12 .5c-.5-.3 0-1.7.8-1.8.4 0 .6.1.7.8.1.4.2.8.1.9-.3.3-1.2.3-1.5.1zm-16.9-.6c-.4-.5 0-1.3.7-1.4.4-.1.4 0 .4.7-.1 1-.5 1.3-1 .7zm20-.2c0-.3 0-.7.2-.8.2 0 .2-.3.1-.4-.2-.4 0-1.1.4-1.1.1 0 .3.2.3.5s0 .8.3 1c.2.4.2.6 0 1-.6.5-1 .5-1.2-.2zm-66-.5c-.2-.4-.1-.5 0-.3.2.1.3.4.2.6 0 .2-.2 0-.3-.3zm86.7.1c-.2-.2-.2-1.5 0-1.8.2-.1.9 1.2.9 1.7 0 .3-.6.4-.9.1zm-35.7-1-.3-1.7-.2-1.2.5.7c.2.4.3 1.2.3 1.7 0 .8-.1.9-.3.5zm-78.8-1.3c0-1 0-1.3.5-1.9.3-.3.6-.6.7-.5.3.4-.5 3.6-1 3.6l-.2-1.2zm27.3 1a2 2 0 0 0-.4-1c-.3-.3-.4-.5-.2-.8l.2-.5.4.4.2 1.3c0 .5-.2.7-.2.5zm39.2-1.4c0-.7 0-1 .1-.6v1.2-.6zm-23.8 0c0-.4 0-.5.1-.4v.7l-.1-.3zm75-.6c0-1.3.5-1.1.8.2 0 .7 0 .9-.3.9s-.4-.3-.4-1.1zm2.7.8c-.2-.1-.3-.5-.1-1.3.4-2.2.5-2.4 1-.8l.3 1.7c-.2.5-.8.7-1.2.4zm-96.7-1.6v-.7 1.5-.8zm-27.2.3c-.1-4.2.2-7.4.8-6.4.3.5 0 6.6-.4 7-.2.2-.3.1-.4-.6zm22.3-.3c0-1.5.5-2.4.6-1 0 1.2 0 1.7-.3 2-.2.1-.3-.3-.3-1zm72.8.5c-.2-.3-.2-.4.1-.6.3 0 .4 0 .4.4 0 .6 0 .7-.5.2zm32.3-1.8c-.2-.6-.1-1.8.2-1.8.3 0 1.1 1.3 1 1.8-.1.7-1 .7-1.2 0zm-237.6 0-4-.1-.6-.6-.5-1c0-.4.9-.5 1.7-.1 1.3.5 3.8.8 7.8.8 3.6 0 4.5.2 3.8.8-.3.3-3.6.4-8.2.2zm113.9-.5c-.4-1-.2-5 .2-5.8.2-.4.5-1.8.7-3.2.4-3.5.5-3.7 1-3.7.4 0 .4 1 0 1.7-.4.5-1 3.4-1 4.5l-.6 6.9c0 .1-.2 0-.3-.4zm25.2.1-.2-1v-.8l.3.6c.2.7.2 1.5-.1 1.2zm-14.8-1-.2-1.8c0-1 .5-2.6.8-2.6.3 0 .3 4.1 0 4.9-.2.4-.3.4-.6-.5zm16 .4.3-.6.1.6c0 .3 0 .5-.2.5s-.2-.2-.1-.5zm-10.7-.3.3-.4c.1 0 .2 0 .2.2 0 .3 0 .5-.2.5s-.3-.2-.3-.3zm13-.2c0-.2.1-.3.4-.3.7.1.8.8.1.8-.3 0-.5-.2-.5-.5zm14-1.1.2-1.6c.2-.2 0 2-.2 2.5-.1.3-.2 0 0-1zm-5.4-.1v-1.4c.2-.3.4 1 .3 1.9 0 .6-.1.5-.3-.5zm36.8-1.2c-.1-1.2-.2-2.3 0-2.3.1-.3.4 1.5.3 3v1.5zm52.6 1.9c-.2-.2-.2-1.8 0-2.3.3-.7.6-.5.8.3 0 .5.3.8.4.8.3 0 1.2-1.3 1.6-2.5.2-.7.4-.9.5-.5 0 .2 0 .7-.2 1-.2.3-.3 1-.4 1.4-.1.5-.4 1.1-.6 1.4-.5.5-1.7.8-2 .4zm-110.6-.6c-.2-.4.3-2 .7-2.3.1 0 .2.4.2 1 0 .8-.1 1.3-.4 1.4l-.5-.1zm-9.2-.7v-1.8c-.2-1.4 0-2.9.3-2.7.2 0 .2 1.3.1 2.6-.1 2.4-.3 3.4-.4 1.9zm63.6-.3c0-.5.1-.7.2-.4v1c-.1.3-.2 0-.2-.6zm-45.6.6-.2-1.3v-1.1l.3.9c.3 1 .2 1.8-.1 1.5zm29.7-.4c0-.4.1-.5.2-.4v.7c-.1.2-.2 0-.2-.3zm10.6-.7c0-.4.1-.6.2-.3v.8c-.1.2-.2 0-.2-.5zm-70.4-.8c0-.8.1-1.4.3-1.4.3 0 .3 1.8 0 2.3-.2.3-.3 0-.3-1zm28-.4c0-.9.1-1 .3-.8.4.6.4 1.9 0 1.9-.1 0-.2-.5-.2-1.1zm14.4.4c0-.3 0-.4.1-.2v.5c0 .1-.2 0-.1-.3zm27.6-.3a155 155 0 0 1-2.2-7.8 604 604 0 0 0 1.7 4.5c.7 2.3 1 3.5.8 3.5l-.3-.2zm5.3-.2-.2-1-.3-2.3a2945.6 2945.6 0 0 1-1.7-7.3l-.1-.5.4.4.7 2c.1.9.5 2.2.7 3 .4 1.6 1 5.6.8 5.7h-.3zm-45.9-2.7c-.1-1.3-.5-2.9-.7-3.6-.4-1.2-.4-2.2 0-4.8l.4-1h.4l.3 5.8v5.9l-.4-2.3zm-19.8 1.2c0-.5 0-.7.1-.4v.9l-.1-.5zm-7.5-.9c0-.8.1-1.5.3-1.6.1 0 .2.5.2 1.5 0 .9 0 1.6-.2 1.6s-.3-.7-.3-1.5zm-2.3-.3c0-.2 0-.8.4-1.4l.5-1v2.5c-.2.5-.7.4-.9 0zm78.9-1c-.7-2.5-2.3-11-2.1-11.2.2-.2.5.2.7 1.2l.9 4c.6 2.9 1.1 7.2.9 7.2 0 0-.3-.5-.4-1.1zM157 115l-.3-.7v.6c0 .3-.2.5-.4.4-.3-.1-.4-1-.5-4.4a33 33 0 0 0-.3-4.8c-.1-.3 0-.6.5-1 .6-.5.7-.8.6-1.4-.2-.8.2-1.7.5-1.4l.1 1.3a175.5 175.5 0 0 0 0 3.4c.2 1 .3 3.3.4 5.2.2 3.5 0 4.3-.6 2.8zm-136-.7c-.2-.7-.4-.9-1-.8-.5.1-.7 0-1-.6-.5-1-.6-1.7-.2-1.7.2 0 .8-2.1.6-2.6 0-.2-.2-.2-.5 0-.6.5-1.2 0-1-.7 0-.9.4-1 1-.5.3.3.5.3.5 0v-2.5c0-1.8.2-2.2.5-2.4.6-.4.7-2 .2-5.3-.2-1.6-.4-2.4-.8-2.6-.3-.3-.5-.9-.5-1.7-.1-1.4.2-1.8 1-1.2.3.2.4.2.7-.2.6-.8.8 0 1 4.4.1 6.9.1 7.2-.4 8-.4.5-.5 1-.3 1.8a70.5 70.5 0 0 0 1.6 9.1c-.2.7-1 .4-1.3-.5zm22.7-.1c-.9-.3-1-.9-.2-.9.5 0 .7 0 .6-.3-.2-.5 0-.6 2.5-1l1.5-.2h-2.3c-1.7 0-2.4-.2-2.6-.4-.4-.4-.4-.4.9-.8.7-.3 7.8.3 8.2.6.2.2.4.7.3 1v.7h-1.4l-4 .1c-2 0-2.7.2-2.5.3.3.2.7.3 1 .3.4 0 .6.2.6.4 0 .4-1.3.5-2.6.2zm102.4-.6.2-.3c.2 0 .3.2.3.3 0 .2-.1.3-.3.3a.3.3 0 0 1-.2-.3zm24-.8c0-.3.2-.5.3-.5.2 0 .3.2.3.5s-.1.5-.3.5c-.1 0-.2-.2-.2-.5zM34.3 93a623.9 623.9 0 0 1 .6-37.9c.3-4.2.4-16.7.1-22.6-.3-5.7-.3-5.8.3-6.5.6-.9 1.2-1.1 1.5-.8.4.3.4 2 0 11.7V45c.3 1.1.2 2.8-.3 7.2l-.6 5.8.2 8.9a45.9 45.9 0 0 1-.3 10c.1.2.4 4.2.5 9l.1 2.9-.5.4-.4.4.1 2.7c.2 2.7.2 9.6 0 14l.2 4c.3 1.7 0 2.6-1 2.6h-.6V93zm-10.8 19a1512.2 1512.2 0 0 1-.3-12.7c0-1.1.1-1.3.6-1.3.3 0 .5-.2.5-.3 0-.2 0-1.7.2-3.2.1-3.2 0-4-.7-4-.3 0-.6 0-.8-.3a.8.8 0 0 0-.8-.2c-.3 0-.6 0-.7-.2-.2-.3.6-.7 1-.4l1.2.3h.9v-1.2c0-2.2.3-6.1.5-6.1s.2-.8.4 10.3l.2 9-.6.3-.6.4v9.5h-1zm136-2.5c0-.7.1-1 .2-.6v1.3l-.1-.7zm51.6.8c0-.3.1-.4.2-.2v.5c-.1.1-.2 0-.2-.3zm-44.9-1.6c0-.7 0-1 .1-.6v1.3l-.1-.7zm63.5.7c-1.3-.6-1.5-1.2-.5-2.1.9-.9 2-.7 1.2.2-.5.4 0 .9 1.1.9h.9l.5-1c.3-.6.9-1.2 1.6-1.6.7-.4 1.2-.8 1.2-1l-1-1-1-1 .8-.6a6 6 0 0 1 1.4-.9c.5-.1.6 0 .9.8a3 3 0 0 0 1 1.4c.7.5.7 1 0 1.7-.4.3-.7.5-1.2.4-.5-.2-1 .1-2.4 1.6-1 1-2.2 2-2.6 2.2l-.8.5zm45.1 0c-1.3-.2-1.7-.4-1.4-.8.3-.3 3.3-.4 4-.2.6.2.9-.2.4-.5s0-.8 1.3-1.7a5 5 0 0 0 1.4-1.2c.1-.2.4-.4.6-.4.2 0 1.1-.6 2-1.4 1.8-1.5 2.2-1.7 2.5-1.3.1.3-2 2.7-4 4.6-.6.6-.9 1-.7 1.1.2.1.3.3.2.5-.2.2-4.3 1.6-4.8 1.5l-1.5-.2zm4.7-1.6c0-.2 0-.3-.2-.3-.3 0-.5.1-.6.3 0 .1 0 .2.2.2.3 0 .5 0 .6-.2zm-92-1c-.1 0-.2-1.7-.2-3.6 0-2.9 0-3.4.4-3.1.2.2.3 1 .3 3.5-.1 3-.2 3.6-.5 3.2zm-28-.6c0-.4.1-.5.2-.3v.6l-.1-.3zm32-.5c0-.5.1-.7.2-.5v1l-.1-.5zm-27.5-3c0-2.7 0-3.1.4-3.1s.5.2.3 1.6l-.3 3c-.2 2.3-.4 1.6-.4-1.5zm-29.6.4c0-1 .2-2.3.4-2.9l.4-1-.2 1-.2 2.7c0 1-.1 1.8-.2 1.9-.1 0-.2-.7-.2-1.7zm143.8.7.4-.2c.2 0 .2 0 .1.2 0 .2-.3.3-.4.3-.2 0-.2-.1-.1-.3zm-134.2-1.1.3-1.7c.2-1.2.7-1.8 1.2-1.6.1.1 0 .6-.2 1.3l-.7 1.9c-.1.4-.3.7-.5.7-.1 0-.2-.3-.1-.6zm60.7.4c-.4-.6-.5-1.7-.1-1.7.2 0 .3.4.3 1 0 .9 0 1-.2.7zm76.7-.4c0-.2.1-.5.4-.7l.5-.3v.6c-.2.6-.7 1-.9.4zM161.5 100c-.2-2.8 0-3.4.7-2.7.4.4.4.6.2 1.7-.2.6-.3 1.7-.3 2.4 0 2.2-.5 1.2-.6-1.4zm48 1c0-.2 0-.3.2-.3.1 0 .2.1.2.3 0 .1 0 .2-.2.2a.3.3 0 0 1-.3-.2zm29-.2c-.2-.3-.4-.3-.9-.2-.8.2-.8.2-.2-1l.4-.8.9.1h1c.2-.2.5-.2.8 0l.5.4-.9 1c-1 1-1.4 1.2-1.7.5zm48.9-1c-.3-.3-.3-.7-.2-1.8l.4-2.7.1-1.4-.7.1c-.4.1-.8.4-1 .6-.2.3-.3.2-.5-.6a7 7 0 0 1 .3-4.3 7 7 0 0 0 .3-1.5l.5-1c.3-.4.6-1 .7-1.6.3-1.1 1.2-2.4 1.8-2.4.3 0 .5.1.5.2 0 .4-.8 2-1.3 2.5-.6.6-.7 1-.3 1 .2 0 .7-.5 1.1-1.1.8-1.2 1.5-1.6 1.5-.9 0 .4-.9 2-1.6 2.7-.2.3-.5.9-.4 1.2 0 .4-.1 1-.3 1.4-.4 1 0 1 1 .1 1.2-1.2 1.6-1.3 2-1 .2.3.2.4-.1.6-.3.2-.7 1-1 1.7a5 5 0 0 1-.6 1.6c-.4.2-.3 1 .1 1.4l.4.4-.5.5c-.3.4-.6 1.1-.7 2-.2 1.4-.6 2.7-1 2.7l-.5-.4zm-269-1.4c0-.7.4-1.1.8-1.1.8 0 .6 1.1-.2 1.2l-.6-.1zm262-.5c-.4-.5-.4-.7 0-1 .4-.6 2.7-1.8 3-1.6.6.7-.6 2.5-1.6 2.5-.4 0-.8.2-.9.4-.2.3-.3.3-.6-.3zm5 0-.2-.8c0-.2 0-.6.3-1l.3-.4.2.8c.2 1.2.2 1.8-.1 1.8-.2 0-.4-.2-.4-.4zM43.2 96c0-.2 0-1.9.2-3.7.3-2.6.5-3.3.8-3.3.3 0 .4.6.4 3.3 0 1.9-.2 3.5-.3 3.7-.3.4-1 .4-1 0zm6.2.2-.1-6.6c-.1-4 0-8.6.1-11.4.4-5 .6-5.9 1.4-5 .4.2.4.6.2 1.3a130 130 0 0 0-.2 21.5c0 .2-1.3.5-1.4.2zm221.7-.1c-.1-.2.2-.5.7-.8 1.2-.8 3.3-3.1 3.8-4.3.8-1.7 2.4-3 2.4-2s-1 2.5-4.2 6c-1 1-2.4 1.6-2.7 1zm7.9-1c.2-1 1.5-3.8 1.8-3.8.1 0 .1.2 0 .4a5 5 0 0 0-.4 1.8c0 .3-.3 1-.8 1.5l-.8 1zm-262-3.3c-.3-.4-.6-.5-1.5-.5-1.1 0-2-.5-1.6-.9l1.7-.2c1.3 0 1.7.1 2.3.7.7.7.7 1.3-.1 1.4-.4 0-.7-.1-.9-.5zm261-.7c0-.2.2-.3.4-.3.5.2.5.7 0 .7a.4.4 0 0 1-.4-.4zm4.3.2-.1-.5c0-.2-.2-.4-.4-.6-.2-.2-.3-.9-.3-1.5v-1.2l.7 1 .7 1-.3 1.1c-.1.6-.3 1-.3.7zM176.5 90c-.4 0-.7-.2-.7-.3 0-.3.8-.3 3.3-.1 1 0 1.7.3 1.7.4 0 .2-2.9.2-4.3 0zm14.3-.2c0-.1-2.6-.3-5.7-.4-6.3-.3-8.7-.8-3.7-.7a5891.4 5891.4 0 0 0 17 .2c1.8 0 .7.4-2 .8-2.8.3-5.3.4-5.6 0zm82.3-.4c.2-.8.3-.9.5-.7.2.2-.1 1.3-.5 1.3v-.6zm-260-1c-.3-.2 0-1.6.5-1.7.2-.1.6 0 1 .2l1 .4c.3 0 .4.1.4.3-.2.4-2.5 1-2.9.8zm4.8-.2c0-.2.2-.4.6-.4.4 0 .7.2.7.4 0 .3-.3.4-.7.4-.4 0-.6-.1-.6-.4zm170 0c-1.4-.1-2.4-.4-2.5-.6 0-.2.1-.3.4-.3.5 0 .6-.2.6-.8 0-1.2.6-1.4 4.1-1.1 3.1.1 3.7 0 2.3-.7-1.3-.5-1-1 .3-1 2 0 2-.2 1.5-1.6a49 49 0 0 0-.8-1.8c-.2-.4-.3-.8-.2-1 0-.2.4.3.7 1 .7 1.7 1.5 2.2 3 2.3l1.7.2c.3.2 0 .3-1.1.2-1.7-.1-2.8.1-1.7.4l1.7.2c.6 0 1.4.2 1.7.3.5.1.3.2-.8.2-3 0-4.8.4-4.7.8 0 .2.5.5 1 .6 1.4.3 1.2.4-.5.6H192c-.8-.4-3.6-.5-4-.1-.3.1-.3.2 0 .4.8.7 2.4 1 6.6 1.1 2.6.1 4.2.3 3.9.4h-2.3l-2.1.1c-.9.5-3.8.6-6.3.3zm21.5.2c-3 0-2.6-.6.3-.6 2.5 0 3.7.3 2.8.7-.3 0-.6.1-.8 0h-2.3zm-8.1-.7h1.4-1.4zm83.7-3c0-1.7-.1-3.1 0-3.2.2-.4 1.3-.3 1.5 0 .2.3-.2 2.7-.9 4.7l-.4 1.4-.2-3zm-53.3 2.2c-.2-.6 1.8-3.6 2.5-3.6l.7-.5c.3-.3.6-.4.8-.3.3.3-.4 1.6-1.4 2.5l-.8 1.1c0 .8-1.5 1.5-1.8.8zm-212-.5-.2-1.1c0-.4-.1-.5-.8-.6-1 0-1-.5 0-.7 1-.2 1.8 0 1.8.6 0 .7 1.1 1.9 1.3 1.4 0-.2 0-.4-.2-.5-.4-.1-.4-1 0-1.2.6-.2 1 .3 1 1.1 0 .5-.2.9-.8 1.2-1.1.6-1.8.6-2-.2zm261.8-.5-.3-1.4.3-2.2c.7-2.3.7-2.3 1-1.9.2.4.1.5-.2 1.5-.1.3-.2 1.4-.1 2.6 0 1.3 0 2-.3 2l-.4-.6zm-83.9-.2h1.6c.4.2 0 .3-1 .2h-1.6zm6.6 0h3.1c1.2.2.8.2-1.7.2h-3.2zm70.9-.6c0-.4 0-.7.2-.7.3 0 .3.2 0 1l-.2.5V85zm-92 .2c-.5 0-1-.2-1-.4 0-.3 3.2-.3 3.4 0 .1.3-.5.6-1 .5l-1.3-.1zm-139-1.4a328.5 328.5 0 0 1 1-16c.4-.2.5 3.5.2 10.2-.2 6.2-.3 7.1-.9 7.1-.2 0-.3-.3-.3-1.3zm177.7.8c-.2-.6.2-.8 1.1-.8.6 0 .6 0 .3.8-.4.6-1.2.6-1.4 0zm57.4 0c-.2-.3.5-3.2 1.2-5 .4-1 .6-1.4.7-1 0 .4-.1 1-.3 1.3-.2.3-.4 1.5-.5 2.7 0 1.7-.2 2.1-.5 2.2-.3 0-.5 0-.6-.2zm-265.8-.3L13 84l.4-.2c.5-.4 3.7-.4 3.7 0s-3.2.9-3.7.5zm187.2-.4h.5l-.3.1c-.3 0-.4 0-.2-.1zm-19.6-.6c-.2 0-.4-.2-.3-.3.2-.3 4.8-.3 6.5 0l1.2.1-1 .2c-1 .2-5.4.2-6.4 0zm94.6-.8c0-.6 0-1.1.2-1.2.2-.1.1 2-.1 2.2l-.1-1zm-33 .4c-.2-.5 0-1 .6-1 .2 0 .4.3.4.7 0 .7-.8 1-1 .3zm-46-.9c-.7-.2-.5-.5.4-.7 1-.3 1.7.2 1 .6-.4.3-.6.3-1.3.1zm5.8-.3v-.5c.2-.2.5.1.3.5 0 .3-.1.3-.3 0zM9.1 81.5c-.2-.1-.2-.4-.2-.7l.1-.5 1.9.1 3.5.1h5.3c2.7 0 3.7-.2 4.2-.5l.6-.4v-2c0-3.8.6-2.4.9 2l.1 1.6-.6.2c-.7.2-15.4.3-15.8 0zm181.5-.7-.4-.6c.2 0 1.3 1 1.2 1.2l-.8-.6zm-11 .2h1c.2.1 0 .2-.5.2-.6 0-.8 0-.5-.2zm97.7-1.6c.8-1.5 1-2 1-3.5 0-1 0-1.8.2-1.8l.2-.5c0-.8 1.2-2.4 1.7-2.4s.6.4.2.6c-.4.3-1.6 2.7-1.4 3 .3.2.6 0 1-.8.4-.6.8-1 1-1 .5 0 .5.9 0 1.4-.4.4-.6.8-.6 1l-.5.7c-.5.4-1.8 2.9-2.4 4.4-.2.5-.5.7-.8.7h-.5zm14.5.5c-.3-1.4-.2-1.7.5-1.4.6.2.7 1 .4 2-.4 1-.6 1-1-.6zm-112.4.3c.2-.3 1.7-.7 2-.4 0 0 0 .2-.3.4-.5.3-2 .3-1.7 0zM275 79c.5-1.9.5-2 .2-1.8-.2 0-.4.4-.5.6-.1.7-.6 1.2-.9 1-.1 0-.2-.7-.2-1.5v-2c-.3-.7.9-3 1.8-3.4.3-.2.8-.7 1-1.3.7-1.6 1.6-2.6 2.9-3.1l1.3-.4c.2.2-2.5 3.9-2.9 4-.2.2-.3.3-.3.5a14.9 14.9 0 0 1-1.4 7c0 .5-.4.8-.6.9-.4 0-.5 0-.4-.5zM277 74l.4-1.4c.1-.8 0-.9-.4-.9-.5 0-1.2 1.2-1.5 3l-.2 1.1.8-.7c.4-.3.8-.9.9-1.1zM9.5 79c-.3-.5.2-.8 1.4-.7a179 179 0 0 0 10.7.7c0 .3-11.9.3-12 0zm149.4-.5c0-.2.8-.3 2-.3 1 0 2 .1 2 .3.2.1-.5.2-1.9.2-1.2 0-2.1 0-2.1-.2zm28.8-1.5c-.2-1.9-.1-2.2.3-1.8.3.4.4 3.4 0 3.5-.1 0-.3-.6-.3-1.7zm-10 1.2.1-.5c.3-.3 3-1 3.7-1h.5l-.4.3c-.3.2-.5.5-.5.6 0 .2-.5.4-1.2.6-1.4.4-1.9.4-2.1 0zm15.4-.1.1-1 .3-.6v.9c.2.9-.1 1.4-.4.7zm33 0c-.1-.6.2-1 .8-.8.7.2.7.6 0 1-.4.1-.6.1-.7-.2zm14.3-.2c-.2-.3-.2-.6 0-1 .3-.6.3-.6.9-.4.5.2.5 1.4 0 1.7-.4.2-.6.1-.9-.3zM10 77.5c0-.3.5-.4 3-.3a48.5 48.5 0 0 1 5.9.3c1.2 0 2.2.1 2 .2a51.7 51.7 0 0 1-11-.2zm149.7.2-1.7-.4h1.7c1.5 0 4.7.4 3.6.5l-1.1.1c-.5 0-1.6 0-2.5-.2zm75.2-1.3c-.9-1.8-2.7-4-3.6-4.4-.8-.4-.8-.8 0-1.2.9-.6 4.6 4.2 4.6 6 0 1-.4.9-1-.4zm57.2.7v-2l.5-3.3c0-1 .3-2.2.4-2.6l.3-.8.3.5c.1.2.2.6 0 .9-.3.7-.5 2.5-.3 3.2 0 .4 0 1.5-.2 2.5l-.3 2c0 .2-.6 0-.7-.4zm-116.2-.3c0-.4-.3-.6-.4-.6-.2 0-.1-.2 0-.4.2-.2.8-.4 1.2-.4.5 0 1-.1 1.1-.3.4-.3 2.6.3 2.4.7 0 .4-1.7 1.1-3 1.3l-1.2.2zm-160.8 0c-.5-.2-1.4-.3-2-.3-.8 0-1.3-.2-1.3-.3 0-.2.4-.3 1.4-.2 1.7.2 2.9-.1 3.3-1 .2-.4.6-.7.9-.8.2 0 .5-.4.5-.7l.4-1.8c.2-.6.3-1.5.2-2-.1-.4 0-.8.3-1.2l.4-.4-.7-.8a3 3 0 0 1-.7-1l-.1-1.5c-.1-1.4-.3-1.6-.8-1-.3.5-.3 1.8.2 2.6.2.5-.2 2.6-.7 3.2-.2.2-.4.8-.5 1.2-.4 1.7-1.6 1.9-1.3.3.2-1.2-.3-1.4-.8-.6-.3.4-.6.7-.8.7-.6 0-.5-.3.2-1l1.3-2.1 1-2c.4-.8-.4-1.4-1.5-1.1l-2 .3c-1.4.1-1.8.4-1.3 1s.1 1.2-.8 1.2c-.8 0-1.4-.8-1.2-1.6.4-1.3 2-1.9 5-1.9 1.3 0 1.6 0 1.3-.3-.2-.2-.3-.6-.3-1 0-.6-.1-.8-.6-.8a.7.7 0 0 1-.7-.5c-.1-.7-1-.4-1.4.4-.1.4-.4.6-.6.6-.5-.2-.5-1.1 0-1.7.3-.4.6-1.1.6-1.9 0-1.2.5-1.8 1-1.4.5.6.6.2.6-2.1 0-2.6.3-3.4 1.1-3.4.3 0 .5-.2.5-.4 0-.3.3-.6.7-.7l.6-.3v-4.2l.6-.2c.3 0 .5-.3.4-.5-.3-.6.3-1.7.9-1.7 1 0 1.6.5 1.6 1.5 0 .5.1 1 .3 1 .1.2 0 .3-.2.6l-.5.3.9.2c.4 0 .9.3 1 .6 0 .2 0 1.3-.2 2.4-.2 1.1-.4 3.5-.4 5.3 0 1.7 0 3.2-.2 3.2l-.2.4c0 .4 1 .5 1.2.1.1-.1 0-.4-.1-.6-.2-.2-.2-.7-.2-1.1.3-1.7.8-3.4 1-3.8.4-.4.2-10.5-.1-12.9-.1-.6 0-1.5.2-2.2.3-1 .4-1.2 1-1.3h.8L24 39c-.4 3.4-.4 5.2-.2 5.6.5.7.7 0 .8-2.2l.1-2.8c0-.8.2-1 .7-1h.7v2c0 2.6-.4 7.2-.7 8.2a119 119 0 0 0-.5 15.8c0 7.6 0 9.4-.2 9.7-.2.4-.6-.4-.6-1.4 0-1.6-.4-1.2-.4.4 0 2-.4 3.6-.7 3.6-.2 0-.6-.3-1-.6l-.5-.6-.6.6-.5.6h-2.3c-1.3 0-2.7-.2-3.1-.3zm4.2-1.2c.6-.6.6-.8.4-1.4l-.4-.6c-.4 0-1.2.7-1.2 1l-.4 1-.4.6h.6c.4 0 1-.3 1.4-.6zm2.5-1.4v-1.6c-.1-.6-.3-1.2-.6-1.5-.4-.5-.5-1-.5-3.3 0-1-.3-1.3-.7-1-.2.1-.2.5-.1 1 0 .5 0 .9-.2 1-.3.2-.3.4 0 .8l.4 1.6.4 1.6.4 1.4c.1.5.3.7.6.6.3 0 .4-.3.3-.6zm1.3.3h-.5.1c.3.1.5 0 .4 0zm-3.4-2c0-.1-.1-.3-.3-.3l-.2.3.2.3c.2 0 .3-.2.3-.3zm4-4.8c.8-.7-1.3-1-2.4-.2-.3.2-.3.3 0 .5.5.3 2 .1 2.5-.3zm-7.7-.6c0-.3-.1-.4-.3-.3-.1.1-.2.3 0 .4.2.4.3.3.3-.1zm4.3-1.7c-.2-.8-.3-.7-.3.1 0 .4 0 .6.2.5.1 0 .2-.4.1-.6zm-1-.3c0-.4-.1-.7-.3-.7-.4-.2-.7.5-.5 1.1.2.6.8.3.8-.4zm3.9-1.2-.6-.1c-.3 0-.5 0-.4.2.2.2 1 .1 1-.1zm-2.7-.3L20 63l-.2.5c-.1.4 0 .5.4.5h.5zm.4-1v.7-.7zm.2-.8c0-.3-.4-.2-.6.1 0 .2 0 .3.3.2l.3-.3zm-7.8-3c0-.2-.1-.1-.2.3 0 .5.1.7.2.5v-.8zm10.3-3.7c0-.3-.1-.1-.1.3v.5c.2-.2.2-.5.1-.8zm-7.7-.1c0-.2-.1-.2-.1.1 0 .3 0 .5.1.4V55zm8-1.5c0-.5 0-.6-.3-.3-.2.1-.3.5-.3.8.2.7.6.4.6-.5zM20.4 52c-.1-.3-.3-.4-.4-.2-.2.1-.2.4-.1.7 0 .3.2.4.4.2s.2-.5.1-.7zm170.9 24.3-.4-1.8c-.6-2.3-.8-3.2-.8-4.4v-1.2l-.8-.4c-1-.4-1-1.2 0-1.5.9-.3 7.2 0 6.6.3H193c-2.5 0-3.6 0-3.4.4l1.4.4 1.2.2-.7.4c-.6.3-.7.6-.7 1.5a15 15 0 0 0 .1 3l.4 2.3c.2.7.3 1.3.2 1.4l-.3-.6zm-33.2.2c-.4 0-.8-.2-1-.3-.3-.4 4 0 4.3.3.2.2-2 .3-3.3 0zm57.7-.2c.1-.5 1.3-.9 1.3-.4 0 .3-.8.8-1.2.8 0 0-.1-.2 0-.4zm-22.1 0c-.1-.1 0-.3.1-.5.4-.4 3.6-.5 3.8-.2.2.3-3.7.9-4 .6zM225 76c.1-.4 2.3-1.9 2.5-1.7.2.3-1.6 2-2 2-.4 0-.6 0-.5-.3zm36.2-1.9c0-1 0-1.7.2-1.7.1 0 .3.8.3 1.7 0 1-.1 1.7-.3 1.7-.1 0-.2-.7-.2-1.7zm-20.8.3-.1-2.5a16.4 16.4 0 0 0-.8-5.1c0-.4.8-.2 1 .2l.3 1c.3.5.6 5.5.4 6.4-.2.8-.5.8-.8 0zm-2.2-.5c-.2-.1-.3-.5-.3-.7 0-.3-.6-1-1.2-1.6-1-.9-1.4-1-1.9-1-1 .3-3.7-1.6-4.6-3.2-.4-.7-.1-1 .5-.6l.8.5a19 19 0 0 1 7.1 5.3c.6 1.3.4 2-.4 1.3zm-10.4-.5c0-.5.6-1.2 1.3-1.4.7-.2.8.1 0 1-.5.7-1.3 1-1.3.4zm14.9.1c0-.1 0-.6.2-1 .3-.7.8-.9.8-.3 0 .5-1 1.8-1 1.3zM42.3 72.3c-.3-.7.1-18.7.4-19.4.7-1.8 1.3-.2 1 2.4-.2 1-.4 5.1-.4 9.4 0 4.2-.1 7.7-.2 7.9-.2.3-.6.2-.8-.3zM168.7 71l-1.6-.2h-1l.1-.7c0-.3.5-1 .9-1.3.5-.5.7-1 .6-1.3-.2-.7.1-.6.4.1.2.4.1 1-.1 1.5-.5 1-.3 1.4.6 1.4.4 0 1 .2 1.3.4l.5.4h-.5l-1.2-.3zM8.4 70.2c-.2-.8 0-1.2.8-1.7 1-.5 1.4 0 .8 1.3-.5 1.3-1.3 1.5-1.6.4zm166.8.3-.2-1.2c0-.6-.2-1.5-.4-2-.5-1.2-.5-1.4.2-1.4.3 0 .5.2.5.4 0 .8 1.3 1 5 .8h3.5c0 .4.2.4-4.3.6l-3.8.2v1.4c.1 1.2 0 1.6-.5 1.2zm11.6-.3c-.1-.3.2-2 .4-2 .3 0 .3 1.8 0 2-.1.1-.3.1-.4 0zm16.4 0c-.2-.4 2.7-2.5 3.4-2.5.9 0 .6.6-.9 1.6s-2.2 1.3-2.5.8zm34.2-.7-1.5-1.9c-.6-.6-1-1.2-1-1.5 0-.3-.6-1-1.2-1.8-.6-.6-1.2-1.5-1.4-2l-.4-.6.6-.3c.4-.3.7-.3 1.1 0 .9.4 2.3 2.5 2.3 3.3 0 .8.6 2 1.6 3.3 1 1.2 1.3 2.4.7 2.4-.3 0-.6-.4-.8-.9zm-189.7.2c-.4-.3-.2-1.2.2-1.2.3 0 .7.6.7 1.1 0 .3-.7.3-1 0zm178.4-.5c0-.2.2-.5.5-.7.6-.3.7-.2.3.6-.4.6-.8.7-.8.1zm-214.8 0c-.7-.3-.3-1 .6-1 .8 0 1 .2 1 .6 0 .5-.8.7-1.6.3zm147.7-.8c-.6-.6-.5-1 .3-1 .5 0 1.2.7 1.2 1.2 0 .4-1 .2-1.5-.2zm4 .2c-.3-.3-.1-.6.4-.6.8.2 1 .8.3.8-.3 0-.6 0-.7-.2zm72-.2c-.7-.4-3.6-3.3-3.6-3.6 0-.5.5-.2 1.9 1.2a22 22 0 0 0 2 1.8c.8.5.5 1.1-.3.6zm27.7.1.4-.2c.2 0 .3 0 .3.2s-.2.3-.4.3-.4-.1-.3-.3zm-215-1.1c-.3-.5 0-6.4.2-6.8.5-.8.7.3.6 3.3l-.1 3.5c-.2.4-.6.4-.8 0zm166 0 .5-.2c.2 0 .2.1.1.3l-.4.2c-.2 0-.2 0-.1-.2zm-69.2-.1h1.9-1.9zm64.1 0 1.1-1.1c.9-.8 1-1.2 1.2-2.1 0-.6 0-1.2-.2-1.3-.4-.3.2-1.2 1.7-2.5l2.8-2.6c1.8-1.6 2.8-2.4 3.7-2.7.7-.1.8-.1.8.2 0 .5.5.5.7 0 .1-.5 2.2-1.6 3-1.6.2 0 .6-.3.7-.6.3-.6.8-.8 1-.3l1 .5.6.3-.5.4c-.2.2-.8.3-1.2.3-.3 0-.5 0-.3-.1.5-.2.4-.7-.1-.7-.3 0-1 .5-1.4 1-.5.5-1 .9-1.2.9l-1 .5c-.5.5-.5.6-.2.8.2.2.3.3 0 .3 0 0-.3.2-.3.5-.1.3-.4.5-.7.5-.7 0-.8-.5 0-.7.4 0 .4-.2.2-.5-.5-.5-1.3-.4-2.2.3-1.2.9-1.3 1.4-.7 2 .5.4.7 1 .3 1-.1 0-.3 0-.5-.2-.2-.3-.5-.1-1.1.5-.9 1-1 1.3-.6 1.3.2 0 .3.2.3.3 0 .2-1.5 1.8-2.8 2.9-.4.3-.6.7-.6 1 0 .2-.2.3-.5.3s-.7.3-.9.6c-.3.4-2 1-2 .6zm17.6-.1c-.2-.4.4-1 1-1s.9.4.5.9c-.4.4-1.2.5-1.5 0zm67.1-.7c0-.6.1-1.3.3-1.7.1-.5.2-.2.2 1 0 1 0 1.7-.2 1.7s-.3-.5-.3-1zm-40-.2c.1-.5.2-.6.2-.3v.7l-.1-.4zm-240 0h.5-.5zm31.4-1.7.3-1.9c.2-.2.4.3.5 1.5.1 1.6 0 2.2-.6 2.2-.3 0-.3-.3-.2-1.8zM177 66c0-.1 1.3-.3 3.1-.4 3-.1 3.7 0 3.4.2-.3.2-6.4.4-6.5.2zm27.3-.5c-.5-.6-.5-.7 1.1-1.4.7-.3 1-.7 1.5-1.9a5 5 0 0 0 .5-2c-.1-.4 0-.8.3-1 .4-.5.4-.7 0-1.1 0-.3-.2-.6-.1-.7a9 9 0 0 1 3.3-2h.7l-.5.5c-.2.3-.6.6-.9.7-.7.2-.9 1-.3 1.1.8.2.7 1.1-.2 2.2a3 3 0 0 0-.8 1.6c0 .5-.3 1-.8 1.6l-.8 1.1c0 .3-.6.9-1.5 1.4-1 .5-1 .5-1.5-.1zM192 65c.4-.4 2-.7 2-.3 0 .2-.9.5-1.7.5-.4 0-.5 0-.3-.2zm-23-.2c-1-.3-.3-.6 1.4-.6h1.7l-.5.4c-.5.4-1.6.5-2.6.2zm27.4 0c0-.6 2-2.5 2.5-2.5.7 0 .8.2.7 1-.1.7-1 1.2-2.4 1.5-.6.2-.8.1-.8 0zm-14.9-.3c-.2 0-.5-.5-.6-1-.1-.5-.4-1-.7-1.2-.7-.4-.6-.7.5-1.3a57 57 0 0 0 1.8-1c.4-.3 1.3-.6 2-.7 1.5-.2 2-.7 2.7-2.2.6-1.3.3-2-.5-2l-1.6.3-1 .1.5-.4c.3-.2 1-.4 1.6-.4 1.8 0 2-.2 2-1.7 0-1.8-.4-3-1.4-4.3a9.7 9.7 0 0 1-2-5.6l-.2-2.3-1-.2-7.2.1-6.4.1c-.5-.4.8-.6 7.5-.7l7.3-.1.3-1.3c.2-1 .1-1.3-.3-1.8l-.7-1.3c-.1-.5-.5-1-1-1.2-.4-.2-.8-.6-.8-.9 0-.3-.3-.7-.7-1a52.8 52.8 0 0 1-3.4-2c-.9-.3-1.2-.8-.8-1.2.3-.3.5-.3 1 0 .3.3.8.5 1.1.5.3 0 1.3.5 2.3 1.1l1.8 1.1 1 2c.9 1.6 1 1.8 1.5 1.6.2-.1.5-.4.5-.6l.5-1.2c.6-1 1.4-.9 1.2.1 0 .7.2.8.6.3.4-.5 1.3-.6 1.5-.2.1.2 0 .5-.2.8l-1 1.6c-.3.7-.9 1.6-1.2 2a9.8 9.8 0 0 0-1.7 5.8l.3 1.3 1.4 2.6 1.5 2.2-.1 3-.1 2.8-1 2.1c-1 2.2-1 2.8.2 2.8.4 0 .4-.1.3-.5-.2-.8.4-.9 1.7-.2.8.5 1.4.6 1.6.4.3-.2.3-.2 0-.2s-.5-.1-.5-.3l1.5-.3c.9 0 1.5-.2 1.6-.4 0-.2-.3-.3-1.6-.3-1.9 0-1.7-.3.5-.9l1.6-.3-1.4-.1c-1.4 0-1.8-.6-.5-.6h.5l-.6-.3c-.8-.3-.7-.6.3-.4 1 .1 1.3-.3.2-.5-1-.2-1.2-.5-.6-.7.2-.1.3-.3.2-.4-.2-.4 2.7-.5 3.6-.1 1 .4.8.8-.4.8l-1.3.3c-.4.2 0 .2 1.1.2 2 0 4.4-.6 4.9-1.3.3-.4.5-.4 1.2-.2.6.1.9 0 1.1-.2.4-.5-.7-.9-1.7-.6l-1.4.2h-.7l.5-.5c.2-.2.3-.6.2-.9 0-.3.1-.7.6-1.2.8-.8.5-1.2-.5-.8-1 .3-1 .3-1-.1 0-.2.4-.5.8-.7.7-.3.8-.5.7-.9l-.1-1.3c0-.9-1-1.4-1.7-.8-.2.2-.7.4-1.2.5-.7.2-.9.1-.9-.2 0-.9 2.6-3.2 3.4-3.1.3 0 .6-.7.4-1.3l-.1-.6-.3.6c-.2.4-.6.7-1.1.7-.8.1-2.1.9-2.8 1.7-.2.3-.6.5-.8.4-.3 0-.2-.3.3-.7.7-.7 1.2-2.3.8-2.5-.2 0 0-.4.4-1 .8-1 .8-1.3.1-1.3-.4 0-.7-.3-1-1.1l-1.2-2.2c-.6-1-.6-1.2-.3-1.4.2-.2.6-.3 1-.3.4.1.6.3.7 1 .3 1.6.6 2 .8.9.3-1.3-.4-2.6-1.4-2.5-.3 0-.5-1.7-.2-2.3l.3-.6.7 1.3c.4 1 .7 1.4 1.1 1.4.6 0 1 .7.7 1.4-.1.3 0 .7.3 1 .4.5.7.5 1.7.4 1.4-.2 1.7 0 2 1.5 0 .6.3 1.3.5 1.5.2.3.5 1.1.6 1.9.2 2.2.3 2.6.7 2.6.6 0 .8.7.4 1.2-.3.5-.1 1.8.4 2.3.2.1.3.4.2.6 0 .3 0 .4.3.4.6 0 .9-.7.5-1.4-.3-.4-.3-.7.3-1.5l.7-1.2.8-1.8c.4-1 .8-2 .8-2.4 0-.6.4-1 1-.8.5.2.4.8-.3 2.2-.8 1.6-.9 2.2-.2 2.2s1 .4.5 1l-.7 1-.8 1.3c-.5.8 0 .8 1.2 0l1-.5.4.4.4.5-1.3 1c-1.4 1.3-1.6 1.7-.4 1.5.6-.1.8 0 .8.3 0 .5-1.2 1.4-2.7 2-.8.4-1 .4-1.3 0-.2-.2-.2-.5.2-1l.4-.7-.5-.4c-.9-.7-1.5-.3-1.6.8-.2 3.5-.5 4.5-1.3 3.8-.4-.3-1.2 0-1 .4 0 .2.3.4.6.4l.6.1-.2 1.4-.1 1.4.6-.1c1-.2 1.2.4.6 1.3l-.5.7h.5c1.4 0-.9 2-2.7 2.3-1 .2-1 0-.1-1l.4-.5-1 .2c-.8.1-1.3 0-2.4-.6l-1.4-.8-1.3.3-2.4.7c-.7.3-2.2.5-4 .5-3.3.1-4.3-.2-4.3-1.5 0-.4-.2-.7-.4-.8-.5-.2-2.2.6-3.2 1.5l-.6.5.3 1c.2.8.5 1.2 1 1.3.3 0 .5.3.4.4-.2.2-.7.3-1.5 0zm20-5.4.2-1.5c0-.5 0-.7-.3-.6l-1.8.4c-1.6.4-2 .7-1 .7.9 0 2 .8 1.8 1.3-.2.4.4.9.8.7.2 0 .3-.5.4-1zm1.4-6.7.5-.3-.4-.5-.5-.4-.7.8-.8.8h.7l1.2-.4zm-.4-6.1c.2-1.4 0-1.8-.5-1.8s-.7.2-1 1l-.3 1h.8l1-.2zm6.3-1.3c0-.2-.1-.3-.3-.3l-.2.6c0 .2 0 .3.2.2.2 0 .3-.3.3-.5zm-8.6-3.7c0-.7-.6-.7-1.1.1l-.5.6h.8c.6-.1.8-.3.8-.7zm-15.4 23.2c-.3-.2-.3-.4-.2-.8.2-.7.6-.7.8-.2 0 .3.4.4.8.4.8 0 .8.4 0 .7-.8.2-1 .2-1.4-.1zm40.7-.2c0-.7.8-1.7 1.3-1.7.4 0 .5.1.4.6-.2.6-1 1.5-1.5 1.5l-.2-.4zm24.7-1.4c0-.3-.1-.7 0-.8.2-.2.4.2.3.8v.6zm3.2-.3c.1-.4.2-.5.3-.3 0 .2 0 .5-.2.6-.1.2-.2.1 0-.3zm-111.2-.3.7-.2c.3 0 .5.1.4.2 0 .2-.4.3-.7.3-.3 0-.4-.1-.4-.3zm8.8 0c-.3-.4 1.4-.7 2.4-.3.3.1.3.2 0 .4-.4.3-2.2.3-2.4 0zm16.4.1c-.2 0-.4-.2-.4-.4s.5-.2 1.6 0h2.7c.5 0 1 .2 1 .3 0 .3-4 .4-4.9.1zm126.2-9.8c0-8.1 0-10 .3-10a114.7 114.7 0 0 0 0 9.3c0 4.5 0 8.7-.2 9.4a74 74 0 0 1-.1-8.7zm-71 9c0-.3 0-.6.2-.6s.3-.1.3-.3c0-.2-.3 0-.6.3-.6.5-1.3.7-1.6.4-.1-.1.1-.5.5-.8l.6-.8c0-.6 1.4-1.7 2-1.7.8 0 .8 0 .2 1l-.4.7 1.4-.1c1.7-.2 2 .2 1 1.4-.6.6-1 .8-2.2.8l-1.5.2zM45 56.4a19 19 0 0 0-.1-5.6c-.2 0-.2-.3 0-.8.3-.4.6-1.5.7-2.3.1-1.2.3-1.6.6-1.6s.4.3.3 1.8l-.1 1.8.8-.1c.7 0 1-.2 1-.6l.3-4.8c.4-4.6.6-5.5 1.3-5.4.6.2 1 1.5.7 2.2-.4.7-1.1 5.2-1.2 7.4v1.1l1.3.2c2 .2 3.6 1.3 3.1 2-.2.5-.7.4-2.5-.5l-2-.7-.3 3.5c0 4.2-.3 5.4-.8 5.4h-.4l.2-4.3.1-4.4h-.4c-1.1 0-1.4.5-1.6 2.8a74 74 0 0 0-.2 3.3c0 2.1-.5 5-.8 5-.1 0-.2-1.8 0-5.4zm130.6 5c-.4-.2-.6-.5-.6-1 0-.7-.2-1-.7-1.5-1-.7-.5-1 .6-.4l1 .5v1c0 .7 0 1 .3 1l.7.4c.2.3.2.4-.2.4l-1-.3zm42.6 0c0-.3 1.8-2.2 2-2.2l.5-.8c.3-.7 1.5-1.3 1.9-1 .1.2-.8 1.5-1 1.5-.2 0-.9.6-1.5 1.3-1.1 1.2-2 1.7-2 1.1zm-76.4-.5c-.8-.3-2-.4-3.2-.3-2.2.1-3.5-.2-1.8-.5 2.2-.4 8 .3 7 1-.5.2-.3.2-2-.2zm7.6-.1c.4-.8.7-1 2.6-1 1 0 1.8-.2 2.1-.5.8-.7 1.4-.5 1.3.3v.8l-1.7-.1c-1.1 0-2 0-2.9.4-1.5.7-1.8.7-1.4 0zm19.1 0c0-.2.1-.3.4-.3.3 0 .6.1.7.3 0 .1 0 .2-.4.2l-.7-.2zm59.5-.5c.3-.2.5-.4.6-.3.3.3-.1.8-.6.8h-.4zm-66.5-.4c0-.4-.4-.6-1.2-.9a4 4 0 0 1-1.3-.5c-.3-.3 2.3 0 3.1.4.8.4 1 1.2.3 1.4-.7.3-.8.2-1-.4zm72.4-1.1c-1-1.4-1-2.5-.3-2.2.3.1 2 2.8 2 3.3 0 .8-.9.2-1.7-1.1zm-63.2.9v-.3c.2 0 .4.2.5.3l-.1.3c-.2 0-.4-.2-.4-.3zm104.7-.8v-.5 1-.5zm-131.7-.4c-1.1-.5-2.3-.8-3.7-.9-1.7 0-2-.2-2-.5 0-.2.5-.6 1-.9 1-.6 3.7-1 3.7-.5 0 .2-.2.3-.6.3l-1.7.4-1.2.3 1 .2c3.5.6 5.5 1.3 5.5 2 0 .4-.3.3-2-.4zm25.5.4c-.2-.1-1.5-.2-3-.1h-2.6l.6-.9c.7-1 .6-1.8-.4-2.5l-.8-.7h.6c.3 0 1 .3 1.4.8.7.6.7.8.5 1.3-.5.9-.1 1 1.7.3 1.6-.6 2.9-.7 3.7-.4 1 .3.3.6-1 .5-1.1-.2-1.5 0-2.4.5l-1 .6h1.6c1.2 0 1.7 0 2 .4l.5.5h-.5a2 2 0 0 1-.9-.3zm57.2-.5c0-.3-.3-.6-.6-.7-.6-.2-.5-.5.6-1l.9-.5-.5.4c-.6.5-.5.7.7 1.1l.8.3-.8.5c-1 .5-1.1.5-1.1-.1zm23.5-.1c-.3-.4-.1-.7.5-.7s1 .7.4.9c-.5.2-.5.2-.9-.2zm15.5-.4c-.4-.4-.2-1.2.3-1 .3 0 .5.3.5.5 0 .6-.5.9-.8.5zm-81.6-.5a9 9 0 0 0-1.7-.6l-1-.3.8-.6c1.2-.8 1.2-1 .4-1.9l-.7-.7-1.2.1c-1.2.2-1.5 0-1.1-.5.2-.2-.1-.3-1.5-.2-1 0-1.7 0-1.5-.2.1-.1 1-.3 1.8-.3 1.7 0 2.7-.6 2.7-1.4 0-.2.2-.4.4-.4.3 0 .4.3.4.6 0 .5-.2.7-.8 1-.8.3-.8.4-.4.5l1.8.6 1.2.6.1.9c.1.5 0 1-.2 1.2-.6.4-.4.7.7 1.1l1 .7c-.3.3-.5.3-1.2-.2zm61 .2c0-.2.2-.3.4-.3.1 0 .2.1 0 .3l-.2.2-.1-.2zm-94.6-.4c0-.2-.3-.5-.7-.6-1-.2-.8-.6 0-.6.9 0 1.9.8 1.6 1.3-.3.4-1 .3-1-.1zm5.6 0-.5-.4h.7c1 0 2.4.3 2.4.5 0 .4-2 .3-2.6-.1zm115.5-.6c0-.7 0-1.4-.2-1.6-.3-.5.2-3 .5-3s.3 4.8 0 5.3c-.2.3-.3.1-.3-.7zM153 56.5c0-.5 0-.7.2-.7s.4.2.4.4v.6c0 .6-.5.3-.6-.3zm21.7.4c-1.9-.3-2.9-.8-2.9-1.4 0-.6.2-.6 1.1.2 1 .8 2.8 1 4.4.7.8-.2 1.3-.2 1.7 0l1 .2c.4 0 .5.1.5.3-.2.2-4 .2-5.8 0zm-15-.6c-1.3-.2-1.6-.4-1.6-.8s.1-.5.5-.3l1.3.3c1.2.2 1.9.5 1.9.9 0 .3 0 .2-2.2-.1zm85.1-.6c-.4-.3-.6-1-.3-1 .4 0 1.1.6 1.3 1 .2.5-.4.5-1 0zm35-.8c0-.7.1-1.2.3-1.2.1 0 .2.5.2 1.2s0 1.2-.2 1.2-.3-.5-.3-1.2zm-73.3.7c0-.3 3-1.8 4.2-2h.6c0 .5-1.2 1.4-1.8 1.4a2 2 0 0 0-1 .4c-.6.5-2 .6-2 .2zM0 55.3c0-.1.1-.3.4-.3.6-.2.9 0 .6.3-.1.3-.8.3-1 0zm145.3 0c-.2-.1.6-1 1-1 .5 0 .5.2 0 .8-.3.5-.7.6-1 .3zm2.8-.5c-.7-.6-.8-1.2-.2-1l.8.2c.2 0 .4.3.6.6.3.6.2.7-.1.7-.3 0-.8-.2-1.1-.5zm19.6-.3c-.5-.7 0-1.2.6-.7.3.2.4.5.3.8-.2.6-.5.5-1-.1zm5 0c0-.4.3-.5 3.5-.6l3-.1-1 .3c-1.2.6-5.6.9-5.6.4zm74 0c0-.1.2-.3.4-.3s.4.2.4.3c0 .1-.2.3-.4.3s-.4-.2-.4-.3zm3.4-.2-.3-2.3a9.9 9.9 0 0 0-.4-2.4L249 48c-.2-1.4-.6-2-1.7-2.5l-.7-.2 1-.2.8-.2v-1c0-.5 0-1 .2-1 .5 0 .2-.4-.6-.9-.7-.3-2-.4-6.9-.5-5.5 0-7.2 0-5.7.5.3.1 3 .3 6 .3l6 .4c.5.2-8.7 0-12.3-.2-1.8 0-2.1-.2-2.1-.6 0-.6-.7-1.2-1-1-.5.3-1.4 0-1.4-.4a199 199 0 0 0 14.8.4c2.4 0 3.3 0 3.4-.3.2-.2.3-.2.6.1.2.3.6.6 1 .7.7.3.5.8-.4.8h-.7l.2 1.6.7 4.2c.6 3.1.7 6.4.3 6.5h-.4zm-57-.3c-.2-.4.7-.4 1.2 0 .3.2.3.2-.3.2-.4 0-.8 0-.9-.2zm-41.9-.4c0-.2.1-.4.3-.4l.2.4c0 .2 0 .4-.2.4s-.3-.2-.3-.4zm13-.1c-.4-.3-.3-.3 0-.5.6-.2 1.8.1 1.8.5 0 .3-1.3.3-1.8 0zm29.4-.7c-.3-.3-.3-.6-.1-1 .2-.5.1-.7-.5-1-.5-.3-.7-.6-.6-.8.3-.6 1.3-.2 2.6 1l1.3 1-.4.5c-.6.6-2 .8-2.3.3zm-34.6-.5c-.2-.5 0-1.2.3-1.3.3 0 .5 1.1.1 1.5-.2.2-.3.1-.4-.2zm13-1c-1.2-1.1-1.5-1.5-1.1-1.6.6 0 1.7.8 2.3 1.5.3.4.8.7 1.1.7.8.1.6.6-.2.7-.5 0-1-.3-2.2-1.4zm-18.7.7c-.4-.4-.3-2 .2-2 .4 0 .4.5.1 1.5 0 .4-.2.6-.3.5zm-3.7-.7c-.2-1 0-2.4.3-2.2.3.2.3 1.6 0 2.4l-.2.5-.1-.7zm13.2.2c-.2-.4 0-.7.5-.7.2 0 .3.2.3.5 0 .6-.6.7-.8.2zm20.6-.2c1.2-.6 2.5-.6 3-.2l.3.5-2.2.2h-2.2zm64.6.3c0-.2.2-.2.3-.1.2 0 .3.2.3.2 0 .1-.1.2-.3.2l-.3-.3zm-100.7-1.3c0-.5.2-1 .3-1 .2 0 .3.5.4 1 0 .8 0 1-.4 1-.3 0-.4-.2-.3-1zm98 .9-.2-1.2c0-.8.2-1 .4-1 .4 0 .5.3.2 1.6 0 .4-.3.7-.4.6zm-89.2-.3c-.3-.3-.1-.6.3-.6.2 0 .4 0 .4.2 0 .4-.4.6-.7.4zm9.9 0c-.2-.1-.2-.4-.2-.6 0-.3 0-.3.3-.1l.2.6c-.1.2-.2.2-.3.1zM54 50.4c-.3-.3-.3-.5.2-.8 1-.7 3-.3 2.5.6-.1.1-.7.4-1.3.5-.8 0-1.1 0-1.4-.3zm189.3 0c-.2-.6.1-.9.4-.4.3.5.3.8 0 .8l-.4-.4zm-32.7-.1c0-.5.8-1.9 1.1-1.9l.7-.4c.2-.3.4-.4.5-.4.3.3-.2 1.9-.6 1.9-.2 0-.4.2-.6.5-.3.6-1 .7-1 .3zm69.1-1.2c0-.5.1-.6.2-.3v.7c-.1.2-.2 0-.2-.4zm-8.1-.4v-.5 1-.5zm-127.4 0c-.3-1-.1-3 .4-3.3.3-.2.5-.2.7 0 .3.3.2.5-.2 1-.5.5-.6.8-.4 1.5.1 1-.3 1.7-.5.9zm25.8-.5c.2-1.3 2-3 4-3.6l1.3-.4 1.5.8a7 7 0 0 0 2.3.8c.7 0 1.6.6 1.6 1.1a9 9 0 0 1-3-.2c-.4 0-.7-.3-.7-.6 0-.6-1-1.1-2-1.1-.7 0-2.2.8-2.2 1.2 0 .2-.3.4-.7.5-1 .3-1.4.8-1.4 1.8 0 .5-.1.7-.4.7-.4 0-.4-.2-.3-1zm6.1.7.5-.2.6.2c0 .2-.2.3-.6.3-.4 0-.6-.1-.5-.3zm4.5 0c-.1-.1 0-.4.1-.5.5-.2 2 0 2.1.5.1.4-2 .4-2.2 0zm9.3-1c-.3-.2-.2-1.7.2-2.7.3-1 .9-1.5 1.6-1.5.5 0 .5.3.2 1-.4.7-.8 1.7-1 2.5-.3.8-.6 1.1-1 .8zm-146.9-.8L42.7 37a49 49 0 0 0-.7-12c.6-2 1-2.7 1.5-2.7h.5l.2 2.3v5.9c-.2 3-.2 7.5 0 15.5 0 1-.1 1.3-.5 1.4-.2 0-.5 0-.6-.2zm88-.4c-.7-.6-.7-1 .2-1 1 0 1.5.6 1 1-.3.5-.4.5-1.1 0zm-2.8-.6c-.1-.3 1-1.7 1.5-1.7.3 0 .6 1.3.5 1.5-.3.3-1.8.4-2 .2zm108.8-1-.2-.4c0-.3 8.8-.3 9.3 0 .3.2.2.3-.5.3a2849.4 2849.4 0 0 0-8.6 0zm-91-.6c0-.3 1.5-.8 2.4-.8.6 0 .8.3.4.6-.5.3-2.7.5-2.7.2zm13.3-.2a123.3 123.3 0 0 1-12.8-1.7c.2-.4 4-.1 6.6.4 1 .2 5.1.5 9 .7l7.3.2-.7.3c-.8.2-6.4.2-9.4 0zm21.3-.1c-.3-.1-1.3-.3-2.2-.3-.9 0-1.6-.1-1.6-.2 0-.4 5.5-.4 6.5 0 .3.1.6.3.5.5-.2.3-2.4.3-3.2 0zm-50.5-.5c-.3-.6.3-1 3.2-2.5 3.1-1.5 3.9-1.7 4.6-1.3.2.2 0 .4-1.2.7l-2.8 1.1c-.6.4-1.3.6-1.5.6l-1 .8c-.8.9-1 1-1.3.6zm76.2-.3c-.1-.2.2-1.5.7-3l1.1-3.7c.2-.7.4-1 .7-1 .4 0 .5.2.5.6a22.2 22.2 0 0 1-2 6.3c-.3 1-.7 1.3-1 .8zm-47.7-1.5c-1.6 0-2.7-.2-2.7-.4 0-.3 13.4-.3 19.6 0l3.8.2-7.2.1a32334.5 32334.5 0 0 0-13.5 0zm129.2-.8c-.3-.3-.2-1.1.1-1.1.4 0 .6.7.3 1 0 .2-.3.2-.4.1zm-137.5-.5a.4.4 0 0 1 0-.4c.1-.3 5.5-.3 5.7 0 .1.2-.6.3-2 .3l-2.8.1h-1zm7.7-.4.4-.2c.2 0 .4 0 .5.2.1.2 0 .3-.4.3-.3 0-.5-.1-.5-.3zm82.5-1.8c-.1-.7 0-1.4 0-1.6.2-.3.3.2.3 1.2v1.7c-.1 0-.3-.6-.3-1.3zm1.1.7.4-.2c.1 0 .3 0 .3.2s0 .3-.3.3c-.2 0-.4-.1-.4-.3zm46-.5c0-.3.2-.5.3-.5.1 0 .3.2.3.5s-.2.6-.3.6c-.1 0-.3-.3-.3-.6zM57.8 38v-3.4l.3-4.3.1-1.6h1.1l-.1 4.6c0 2.6-.2 4.8-.4 5-.4.5-.7.4-1-.3zm111.7-.3c-.4-1-.3-2.3.1-2.4.4-.2.8 2.1.4 2.7l-.2.5zm72.3.4c-.3-.8-.2-2 0-2 .5-.2.8 1.1.5 1.8-.2.5-.3.5-.5.2zm44-.4c0-.2.2-.4.3-.4.2 0 .3.1.3.3l-.3.4c-.1 0-.2 0-.2-.3zm-187-.5c-.3-1-.3-1.5.2-1.5.2 0 .4.3.4 1 0 1.2-.4 1.5-.7.5zm107.2-.6c0-1.3.6-3.1 1-2.9.5.3.3 1.6-.2 3l-.7 1.1-.1-1.2zm27.6 1-.2-1.6c0-1 0-1.2.4-1.2.2 0 .4.3.4 1.3.1 1.3-.3 2.2-.6 1.4zm-73.3-.7c-.3-.6 0-3.1.2-2.6.3.5.5 2.5.3 2.8-.2.4-.3.3-.5-.2zM83 37c-.3-.6-.2-4.4.1-5 .3-.4.4-1.4.2-4.6-.3-5.9-.3-10.6 0-10.7h.7c.3.1.4.4.3 1.2-.3 1.6-.3 10 0 13 0 1.9 0 2.7-.2 3-.2.2-.3 1-.3 1.7 0 .8-.1 1.3-.4 1.4H83zm198-.3c0-.3 0-.3.1-.1v.5l-.1-.4zm-122-.5v-.6c.3-.2.8.2.8.6 0 .5-.5.5-.7 0zm-80 0v-1.8a483.3 483.3 0 0 0 .6-12.3l.3-2.9c0-.8.1-1.2.4-1.3.8-.3 1 .3.7 2-1 4.5-1.6 13-1.1 14.2.3.9.4 0 .4-2.5 0-2.6.2-4 .6-3.6.2.2.3 1.9.4 3.8 0 3.6-.1 4.2-.9 3.8-.2-.2-.5 0-.8.3-.2.2-.5.4-.6.3zm22.2-.3c-.2-.6-.2-1.6 0-1.8.4-.2.6.5.6 1.5 0 .8-.3 1-.6.3zm140.9-1c0-.8 0-1 .3-.7.2.2.2.5 0 1l-.3.8v-1zm33.7.2c-.2-1 0-1.7.4-1v1l-.2.9-.2-.9zM73.3 35a145 145 0 0 1 0-14.6c.2-.7 1.1-1.2 1.5-.9V22c-.3 1.2-.5 4.7-.6 7.7 0 3.9-.2 5.6-.4 5.7-.2 0-.4-.2-.5-.5zm75.1-.2c-.2-.5 0-1.2.4-1.2.2 0 .3.4.3.8 0 .8-.4 1-.7.4zm98.7-.7v-.6 1.2-.6zm-170.9 0c-.3-1.3.2-13.7.5-14.8.4-1.2 1.1-1.3 1.3-.3.1.5.2 1 0 1-.4.8-.9 6.3-.9 10.3 0 3.8 0 4.6-.3 4.6s-.5-.3-.6-.8zm22.6-.4c0-.8.1-1 .3-.6.3.5.3 1.6 0 1.6-.2 0-.3-.5-.3-1zm-37-.3c-.5-.7-.8-14.4-.4-16.4.1-.5.4-1 .7-1.2.7-.3 1.8 0 1.8.5 0 1.1 0 2.4-.4 3.5l-.7 3.6-.2 2.3.4.6c.4.4.5.9.4 2.3 0 1-.2 2.1-.3 2.4l-.5 1.5c-.2.9-.6 1.4-.9 1zm23.5-1c-.1-.2-.2-2.5-.2-5.3 0-2.7 0-6.4-.2-8l-.2-3h.5l.5.2v6.6l.2 8c0 1 0 1.5-.2 1.6l-.4-.1zM97 32c0-.3 0-.5.2-.5s.3.2.3.5-.1.5-.3.5c-.1 0-.2-.2-.2-.5zm134.4.2c-.4-.5-.2-1 .5-1 .6 0 1.2.7 1 1-.3.5-1.1.4-1.5 0zm-75.4-.3c0-.3.2-.4.7-.4 1 .2 1.1.8 0 .8-.5 0-.7-.1-.7-.4zm66.1.1c.6-.3 7.1-.6 6.7-.3-.1.2-1.8.4-3.7.5-2 0-3.2 0-3-.2zm14.7 0c-.2-.3 0-.3 2.4-.3 1 0 1.7 0 1.8.2 0 .3-4 .5-4.2.1zM103.4 31c0-.5 0-1.4.2-2l.3-1.2.4.5c.2.2.3.6.3.8 0 .2.2.4.3.4.2 0 .3.6.3 1.2l.1 1-.8.1h-.9zm167.3 0v-1.1c.5-.4.7.5.4 1.3l-.2.8zm-200.4-.5c0-1 .2-1.2.6-1.2.6 0 .8.7.6 1.6-.1.5-.4.7-.7.7h-.6zm28.6.6c0-.4 0-.6.1-.4v.7l-.1-.3zm74.7.3c-1-.2-.2-.7 1.2-.8 1.3-.1 2.1.2 1.7.6-.2.2-2.1.3-2.9.2zm90.8-1c-.1-1.4 0-2 .3-2 .4 0 .6 1.2.4 2.3-.2 1.3-.6 1.1-.7-.4zm3.6.8c-.2-.5.3-1.8.7-1.6.4.2.3 1-.1 1.6l-.4.5zm7.8.1c0-.1.1-.2.3-.1l.3.3h-.3c-.2 0-.3 0-.3-.2zM151 31c-.2 0-.3-.2-.2-.3a21 21 0 0 1 7.8.3c0 .2-7 .3-7.6 0zm11.2 0c-.4-.4.4-.6 3.6-.6 2.6 0 3.4.1 3.3.4 0 .3-6.5.6-6.9.3zm-66.9-1.2c-.2-1.2 0-1.6.4-1 .3.5.3 2.2 0 2.2-.1 0-.3-.5-.4-1.2zm127.7.7c-1 0-2-.2-2-.4-.2-.1 1.1-.2 3.5-.2 4.2 0 8 .2 8 .5 0 .2-6.3.2-9.5 0zm12-.1-.8-.2h1c3-.2 3.5-.2 4.2-.1.4 0 .7.2.6.3-.2.3-3.5.2-5 0zm-123.2-.5c-.5-.9 0-5.5.6-5 0 0 .3 1 .4 2.3.3 1.7.3 2.3 0 2.7-.4.7-.7.7-1 0zm-14.9-1v-2.6l.2-1.3.2 2.2c.2 1.3.2 2.3 0 2.6-.2.3-.3.1-.4-.9zm50.2 1v-.5c.2-.2.5.2.4.5-.1.3-.2.3-.4 0zm.8-.8c.3-1.5.3-2.5 0-3.9l-.1-1 .6-.2c.4 0 .6-.3.7-1 0-.5.3-1.1.5-1.4.2-.5.3-.3.3 1s-.1 1.8-.6 2.5-.6 1-.5 2c.3 1.6 0 3-.6 3l-.5.1zm12.3-.5c0-.4.1-.5.2-.4v.7c0 .2-.2 0-.2-.3zm86.2-1c-.1-1.9 0-4 .3-4 .2 0 .3 1.1.3 2.6 0 2.7-.4 3.7-.6 1.4zm-68.7.5c0-.2.4-.5.7-.5l.6-.1-.3.5c-.3.7-1.1.8-1 .1zm55 0c-.6-.6-.6-1-.1-1.4.3-.2.4-.2.6.3.4.6.4 1.6 0 1.6l-.6-.5zm-74-2.3c0-1.5 0-2.2.2-2.1.1 0 .2 1 .2 2.1 0 1 0 2-.2 2.1-.2.1-.3-.7-.3-2.1zm1.5.8a58.7 58.7 0 0 1-.3-2.4c-.2-.3.5-1.4.7-1.1v2.3c-.3 1.6-.3 2-.4 1.2zm9.1-1.5c0-1.2 0-1.7.1-1v2.2l-.1-1.2zm91.1 1.8-.3-2.5-.2-2.1.6-.6.6-.7.1 1.4c.1 1.5-.5 5.2-.8 4.5zm4 .2c-.3-.5-.3-4.2 0-4.3.5-.1 1.1.7 1.1 1.6 0 1.7-.7 3.4-1.1 2.7zm-9.6-1-.3-3.6c0-2.5 0-3.2.3-3.7.4-.6 1-.7 1.3-.3.1.1 0 1.4-.2 2.8a32 32 0 0 0-.4 3.8c0 1.4-.5 2-.7 1zm-73.5-1.5c-.2-1.1 0-1.7.4-1.4.3.2.3 2.1 0 2.3-.2 0-.3-.3-.4-1zm-86.4-4.4v-4.9h.6c.6 0 .7 0 .7-.7 0-.4.2-1 .4-1.1.7-.6 1 .9.8 6-.1 2.8-.3 5-.5 5.2-.3.3-.3.2-.4-3.9 0-1-.2-1.7-.3-1.7-.2 0-.3.7-.3 2.3.1 3.6 0 3.7-.5 3.7h-.5ZM210 24.7c.1-.6.6-.6.7 0 0 .3 0 .4-.4.4-.2 0-.4-.1-.3-.4zm31.2-.9c0-.8.1-1.1.2-.7v1.4c-.1.4-.2.1-.2-.7zm-20.1.5c0-.3 0-.4.2-.4.2.1.3.4.3.6 0 .2-.1.4-.3.4l-.2-.6zm10.4-.7V23c.2-.2.5.1.4.5-.1.3-.2.3-.4 0zM98.6 23c-.3-.1-.3-.2 0-.4s.6 0 .4.4c0 .2-.2.2-.4 0zm154.1-.7c-.1-.4-.1-.7 0-.8.2-.3.4.1.3.8v.6zm-92.5-1.1c0-.8-.1-1-.5-1.2-.6-.2-7-.2-8.8 0-1 .1-1.7 0-2-.2-.1-.1-.4-.2-.6-.1-.4.2-.6-.3-.3-.8.2-.4.1-.7-.1-1-.3-.4-.4-1-.3-1.8l.3-3.2c0-1.5.1-2.2.5-2.5l.4-.4.2.4c.2.5 0 2-.4 4.3-.3 1.4-.3 1.7 0 2.3.3.4.5.9.5 1.1v1.5l1.3-.2 7.6-.2a40 40 0 0 0 8.4-.7c.4 0 .8-.2 1-.5 0-.3.5-.6.9-.6.4-.2.6-.4.6-.7 0-.3.2-.6.3-.7.2 0 .3.2.3.6 0 .9.3 1.3 1.2 1.4.4.1.5.3.5 1 0 .4.1 1 .3 1.1.2.2 1.6.4 4 .4 2 0 5.4.3 7.5.5 4.6.6 7.6.5 8-.2.3-.3.4-.9.4-1.3 0-1 1-1.4 4.4-1.6 1.4-.1 2.8-.3 3-.5h1.2c.8.4 1.5.2 1.5-.4 0-.2.1-.3.3-.3.1 0 .2-.3.1-.6l.1-.5c.4 0 1.4-2.5 1.2-3.1v-1c.4-.8.6-.3.8 1.7.2 2.8-.1 3.9-1.4 4.4-1.3.5-1 1 .6 1l6.7.4-.2.6c-.3.4-.2.6.4.8 1.7.6 5.9.8 10 .5 5-.5 8.6-.4 10.6.1 1 .3 1.7.3 2 .2.7-.4 1.9-.6 1.9-.4 0 .9-2.9 1.4-4 .7-.7-.3-1.5-.4-4.3-.2-11.3.5-11.4.5-14.3 0-2.9-.4-3.9-.7-3.9-1.2s-1.3-.8-4.5-.9c-2.5-.1-3.4-.2-3.6-.5-.5-.7-2-.8-4.5-.3l-2.7.7-.8 1.4c-.4.7-.8 1.2-1.2 1.3-.9.2-5.8.2-8.9-.1l-6.5-.5-3.8-.2-.8-.7a3 3 0 0 0-1-.7l-.8-.6-.6-.6-1.5.6c-.8.4-2.4.7-3.4.8-2.4.2-2.8.4-2.8 1.5 0 .5 0 1-.2 1s-.3-.5-.3-1.1zm-56 .1c0-.3 0-.7.2-.8.1 0 .2.2.2.7 0 .4 0 .8-.2.8s-.3-.3-.3-.7zM246 21l-.6-.6h-2.4l-2.5-.3c0-.4-2.8-.6-3.5-.2l-.8.2-.3-1.3-.1-1.2.3.5c.5.5 3.6 1.5 5 1.5 2 0 3.6-.2 4.1-.6.7-.4.7-.4.8-4.3 0-1.9.4-2.4 1.4-1.8.5.4-.2 8.8-.7 8.8l-.7-.7zm-112.4 0-1.7-.2c-1.6 0-2.3-.6-1.2-.9.4 0 .6-.3.5-.6-.3-1.1-.3-1.2.3-1.2s.7.1.7.8v.8h1.5v-1.2l.1-1.3-.7-.7-.8-.6.1-1.5c.5-5.4.6-5.9 1.6-5.5l1.6.3 1 .2v1.1c0 .8 0 1.2.3 1.3.3.1.4.7.4 2.7V17l-.5.1c-.5.1-.5.3-.5 1v1c-.4 0-.6-1.5-.4-2.5.1-.6 0-1.3-.4-2.3-.4-1-.5-1.5-.2-1.8.3-.6 0-2-.3-2-.5 0-.8 2-.8 5.4 0 2.8 0 3.3.5 3.6.5.4 2.6.4 4.5 0 1-.1 1.5 0 2 .1l2.1.5c.7 0 1.3.3 1.3.4 0 .4-1.7.5-3.2.1-1.1-.2-2-.3-3.9 0a43.7 43.7 0 0 0-3.9.4zm100.4-1.9c-.2-.3-.4-1.8-.4-3.4 0-1.6-.1-3-.3-3.2-.3-.4 0-.9.7-.9 1 0 1.3.4 1.1 1.5a38 38 0 0 0-.3 3.6c-.1 2.6-.4 3.3-.8 2.4zm-51.8-.2c-.2-.5 0-1.7.3-1.8.4 0 .6 1.9.2 2-.2.1-.5 0-.5-.2zm46.3.1c-.3-.4.3-1 .7-.6.3.4.1 1-.3 1l-.4-.4zm-44.4-.2c-.1-.2 0-.3.2-.3s.4.1.4.3l-.2.3c-.2 0-.4-.2-.4-.3zm32.6-.3c-.2-.4-.4-1.3-.4-2.1l-.2-2.5c-.2-.8 0-1.2.2-1.6l.4-.5.2.6c.2.4.2 1 0 1.6a7 7 0 0 0 0 2.3c.3 1.1.3 2.8.2 2.8l-.4-.6zm-30.4 0c0-.1.1-.2.3-.2.1 0 .2 0 .2.2s0 .3-.2.3a.3.3 0 0 1-.3-.3zm45.7-.1v-.6l.2.3v.6l-.2-.3zm-82-.3a34 34 0 0 0-.2-3.5c-.1-.3 0-.4.2-.4.5 0 .8 1.3.6 3 0 1.3-.5 1.9-.6.9zm-6.2-.2v-1.2l.2-1.6c0-.4 0-.8.2-.8s.3.8.3 2c0 1.8-.3 2.6-.7 1.6zm27.2-.5-.3-.5h.7c.8.2 1.1.7.4.9-.3 0-.6 0-.8-.4zM98.7 17c-.3-1.8-.2-3.6.4-4.3.3-.3.6-.5.8-.4.4.3.3 2.9-.2 3.5a5 5 0 0 0-.6 1.3l-.2.8zm19.3.2c-.1-.2 0-.5.2-.7l.5-.5v.6c0 .7-.4 1-.7.6zm33.5 0c-.3-.1-.3-.5-.2-1.1v-1.3c-.4-.4.3-2 .7-1.7.3.2.4 3.6 0 4 0 .2-.3.2-.5.1zm87.7 0c-.1-.1 0-.3.1-.3.2 0 .3.2.3.3l-.1.3-.3-.3zm2 0c0-.1 0-.3.2-.3s.3.2.3.3c0 .1-.1.3-.3.3a.3.3 0 0 1-.2-.3zm-140.3-1.3c-.1-.7 0-1.3.1-1.4.2-.1.3-3 .1-6 0-.8 0-1 .5-1 1.1-.2 1.2.1.9 3.2a41 41 0 0 0-.3 4c0 .9 0 1.3-.6 1.8l-.6.7zm109 .2c0-.6.2-1 .3-.9.2.1.3.5.3 1 0 .4-.1.8-.3.9-.1 0-.3-.3-.3-1zm26 .4c-.3-.9-.2-1 .3-.8.4 0 .4.2.1.8l-.3.8zm-23.2.1-.2-2.6c-.2-2-.1-2.4.2-2.7.3-.3.5-.4.6-.3.1 0 .2 1.3.2 3 0 2 0 2.8-.3 2.9-.2 0-.4 0-.5-.3zm-92.6-.3c-.2-.1-.3-.7-.2-1.2 0-.7-.1-1-.7-1.4l-.8-.5.2-1.4-.1-2.4-.3-1.1.6-.3c.9-.4 1.5-.4 2.1 0l.5.4-.3 1.3c-.2.8-.4 2.6-.4 4-.1 2.8-.2 3.2-.6 2.6zm73-1.5v-3.6c-.3-2-.1-2.5.6-2 .3.3.3.8.2 2v3.4c0 1.5-.1 1.8-.5 1.8h-.5zm34.6 1.3c-.3-.5-.4-4 0-4.4.2-.2.5-.3.7-.3.2 0 .3.4.3 1.9 0 2-.4 3.4-1 2.8zm-82.3-.1v-4c.1-1.2.2-1.6.6-1.6.6-.2.7.6.3 2a10 10 0 0 0-.4 2.3l-.2 1.3h-.3zm12.5-2.8v-2.9h1l-.2 1.7c-.2 3-.4 3.9-.6 4-.2.1-.3-1-.2-2.8zM13.4 15.6c-.3-.2-.1-1 .3-1 .3 0 .6.7.3 1-.1.1-.4.2-.6 0zm126.4-.7c-1.4-4.8-1.4-5.5-.3-5.3.4 0 .5.3.5 2 0 1.2.2 2.3.6 3l.5 1.3h-.5c-.3 0-.6-.3-.8-1zm26 .6c0-.2.1-.4.4-.4.2 0 .4.2.4.4s-.2.4-.4.4a.4.4 0 0 1-.4-.4zm8.3.1c-.3-.5.1-1.3.6-1.3.6.2.6 1.4 0 1.5-.2 0-.5 0-.6-.2zm4.6-1.2v-2c0-.3 0-.6.2-.7.3 0 .4.3.4 1.3l.1 2c.1.4 0 .6-.2.6-.3 0-.4-.3-.5-1.2zm60-.1c-.2-.8-.2-1.2 0-1.8.5-1 1.3-.7 1.2.3-.2 2.7-.6 3.2-1.1 1.5zm2.5.3c0-.4.1-1 .4-1.1.3-.3.4-.2.4.3 0 .9-.3 1.5-.6 1.5-.1 0-.2-.3-.2-.7zm3.5.4c-.2-.6.1-1.3.4-1.1.2 0 .3.4.3.7 0 .6-.5.9-.7.4zm-121.5-1.2c0-.9.2-1.2.5-1.2.2 0 .7-.6 1-1.3.3-.7.7-1.2.8-1.2.2 0 .3 1 .3 2.3v2.4h-.6a.8.8 0 0 1-.9-.6l-.2-.6v.8c-.1.4-.3.7-.6.7s-.3-.3-.3-1.3zm53.4.3c0-.7.4-.6.6.2.1.3 0 .5-.2.5s-.4-.3-.4-.7zm-16.4 0c0-.3.1-.6.3-.7.1-.1.2 0 .2.3s0 .6-.2.7c-.2.1-.3 0-.3-.3zm46 .3-.2-2.8c0-2.2 0-2.6.4-2.8.8-.3 1 .3.5 2.2-.2 1-.4 2-.3 2.5.2.7-.2 1.3-.4.9zm-35.7-.3c0-.2.1-.4.3-.5l.3.1c0 .2-.2.4-.3.5l-.3-.1zm14.9-1.3c-.5-2.2-.4-3.8.1-4 .7-.2.9.4.8 3 0 2.7-.5 3.2-1 1zm-43.5 1c-.4-.3-.2-3.4.1-3.6.5-.1 1 .1.9.4l-.2 1.4c0 1.2-.5 2.2-.8 1.9zm14-.3-.3-1.5-.4-1.1.4-.3c.7-.6 1 .2 1 1.9-.1.8-.3 1.5-.4 1.5-.1 0-.2-.2-.2-.5zm13.2-.1c-.4-1.1 0-3.3.6-3.3.3 0 0 2.3-.2 3.2l-.2.5zm-7-.5c0-1.3.5-2 .8-1.1.2.5-.2 1.7-.6 1.7l-.2-.6zm68.8.3s0-.3.2-.4c.2 0 .3 0 .3.3 0 .2-.1.4-.3.4-.1 0-.2-.1-.2-.3zm-70.6-.8v-.7c.3-.3.5.1.4.6l-.1.5zM175 12c0-.2.1-.3.3-.2.1 0 .2.3.1.4-.2.4-.4.3-.4-.2zm-4.4-.1c-.2-.4.3-.9.7-.7.3.2 0 1-.3 1l-.4-.3zm2.6-1c-.3-.7-.3-1 0-1.1.4-.3 1 0 1 .3l-.3 1-.4.6-.3-.9zm28.5-.5c-.4-.5.1-1.7.8-1.7.7 0 .9.3.7 1.3-.2 1-.9 1.1-1.5.4zM24.2.4c0-.2.2-.4.4-.4s.4.2.4.4-.2.4-.4.4a.4.4 0 0 1-.4-.4z"/>
</svg>
