<?xml version="1.0" encoding="utf-8"?>
<svg xmlns="http://www.w3.org/2000/svg" xmlns:svg="http://www.w3.org/2000/svg" version="1.1" viewBox="0 0 183 133">
	<title>Mr. Tod walks quickly down a forest path.</title>
	<path d="M4.6 132.6c-.8 0-1.4-.2-1.4-.3l-.6-.4c-.5-.2-.6-.4-2-3.6l-.6-1.7.1-14A3585.2 3585.2 0 0 1 .5 81c.3-.5.6-23.2.7-52l.1-27.8c0-.6 1.5-.9 4.4-1a8713.8 8713.8 0 0 1 173.6.5c1 0 1 0 1.9 1.8l.8 1.8V22c0 9.7 0 20.7-.2 24.6-.2 3.8-.3 13.4-.3 21.2 0 10 0 14.4-.3 14.8-.3.5-.1 10.8.1 11.3.2.3.3 8.9 0 19l-.2 12.8c0 1.8-.1 3.3-.3 3.6l-1.6 1.4c-2.5 1.7-4.7 1.9-21.9 1.7-18.4-.2-17.4-.2-23.2-.1-3.5 0-5 0-5.4-.3-.2-.2-.5-.2-.9 0-.6.4-3 .4-32.1.1a1150 1150 0 0 0-57.7.4H15c-5 .2-9.7.2-10.4.1zm103.6-2.4c0-.8-.5-.6-.8.2-.2.5-.1.6.2.5.3 0 .5-.3.6-.7zM4.7 129.1c-.1-.2-.2-.2-.2.1 0 .3 0 .5.2.4v-.5zm155 .2-.2-.8c-.3-.6-.5-.7-1.1-.6l-2.3.3c-1.8.2-2.3.5-2 1 .3.2 1 .3 3 .2l2.6-.1zm14-.2c3.3-1 3.5-1.4 3.6-6.9l.1-4h-1.1c-1.4.1-2.1-.3-1.6-.9.1-.2.6-.4 1-.4 1 0 1.8-.6 1.8-1.3 0-.6-.3-.6-1.3 0-.7.4-.8.4-1.2 0-.5-.5-.4-.6.5-1.5l1-1-.3-1.5c-.2-1-.2-1.7 0-2.2.2-.4.3-1.3.3-2 0-1-.1-1.3-.5-1.6-.3-.1-.6-.5-.6-.7 0-.3-.3-.6-.8-.8-.6-.2-.8-.4-.7-.8.1-.4 0-.6-.3-.6-.5 0-1-.5-1-1 0-.2.3-.3.8-.3.9 0 3.5-.8 3.3-1l-2.4.2c-2.7.4-4 .2-4.1-.7 0-.6 0-.6 1.2-.6h1.2l-1-.6c-1.2-.5-1.9-1.3-1.6-1.8.2-.4 1-.3 1.6.1.3.3 1 .4 1.7.4a14 14 0 0 0 4.5-.9c.3-.3-.3-.4-2.6 0-1.7.1-2.7.1-3.8-.1-1.6-.3-3-1.3-2.7-1.8.2-.4 4.2-.5 4.5 0 0 0 1 .2 2.2.2 2.3 0 3.4-.5 3-1.4-.1-.5-1-.6-1.2-.1-.1.4-3.2.3-4.7-.2-1-.3-1.2-.3-2.2 0-1.7.6-2.5.5-2.9-.4-.1-.5-.4-.8-.7-.8-.9 0-1.3 0-1.3-.4 0-.6 1-1 1.4-.7.7.6 2.2.6 3.7.1l1.7-.5c.3-.1.3-.3-.2-.7-.7-.7-.6-1.4.3-1.5 1.3-.1 1.4-.5 1.4-5.4l.1-4.9c0-.5 1-.3 1.4.3.4.7.4 4.8 0 7.1v1.7c.1 0 .8 0 1.5-.2l1.6-.3c.2 0 .3 0 .3-.4 0-.7-.1-.7-1.4 0-1.8 1-2.4.2-.8-1l.9-.6-.6-.7c-.4-.5-.5-.8-.3-1.1.4-.6 1.3-.6 1.2 0 0 .5.4 1.5.7 1.5.2 0 .2-1.8.2-4.1 0-3.9 0-4.1-.5-4-.6.2-.6-.4 0-.8.4-.2.6-.5.6-.8 0-.2-.2-.5-.5-.5l-.6-.4c0-.2.3-.4.6-.4.3-.1.5-.4.5-.7 0-.5 0-.5-.6 0-.6.4-2.4.5-2.2 0l.8-.2c.4 0 .7-.1.8-.3l.7-.2c.3 0 .5-.2.5-.6 0-.4-.1-.5-1-.3-1.2.2-1.5 0-.4-.5 1-.3 1.2-1.3 1.2-5.6s-.3-5.5-1.6-7.4c-1-1.2-1-1.9-.4-2.7.2-.3.3-.8.2-1.2l.1-.9c.7-.4-.1-2-1-2-.6 0-1.6-.9-1.6-1.3s1-.4 1.2 0c.3.4 1.5.3 1.5-.2l-.2-.4c-1.3 0-2.5-.7-2.5-1.3l1.2-.1c1.6 0 1.8-.5.6-1-1.4-.6-1.6-1.2-.9-2 .5-.4.8-.5 1.4-.4 1 .2 2-.4 2.4-1.7.5-1.4.2-2.5-.9-3.5-.7-.7-1-.8-1.2-.6a1 1 0 0 1-1.5 0c-.2-.3-.2-.5 0-.8.3-.2.5-.6.5-.9l.3-.9c.3-.3.3-.6-.2-1.6-.5-.9-.6-1-.6-.5 0 .3-.3.9-.5 1.2-.7.9-1 2.6-.6 3.5l.7 2.2c.4 1.4.4 1.6 0 2l-.4.8-.5 1.4c-.4.7-.6 2.2-.8 4.3-.2 1.8-.5 3.8-.7 4.4-.4 1.3-.3 1.6.3 1.6.4 0 .4.4.3 2.6-.1 1.4-.3 3-.5 3.5l-.2 2.2c0 1-.1 1.3-.6 1.4-.7.2-1.3.9-1.3 1.5 0 .4.2.5 1 .5 2.1 0 2.8 1 1.5 2.4-.3.4-.7 1.3-.8 2-.2 1.2-.5 2.2-.9 2.5a30 30 0 0 0-3.7 5.8 9 9 0 0 0-.7 1.8c-.3 1.6-.8 2.4-1.5 2.4-.5 0-.9.3-1.4 1.1-.4.6-1.3 1.5-1.9 1.9-.9.6-1.2 1-1.5 2.1-.9 2.5-2 4.7-2.4 4.7-.2 0-.4-.2-.4-.5 0-.2-.2 0-.5.7-.6 1.3-2.5 2.8-3.6 2.7l-1.5.1c-1.3.4-1.5-.2-.6-1.2.7-.7 1-.8 1.7-.6 1.2.1 2.6-.8 2.7-2 0-.4.3-.8.7-1 .7-.2.9-1.5.1-1.3-.5.2-1.1-.2-1.1-.8 0-.3.3-1 .8-1.7 1-1.5 1-1.5.3-1.5-.8 0-1.2-1-.7-1.4.6-.5.5-1.3-.1-1.1-.8.2-1-.7-.3-1.3.5-.4.5-.4 0-.6-.7-.2-.7-.6 0-1 .3-.1.3-.2 0-.7-.2-.5-.2-.7 0-1 .3-.3.2-.5 0-.8-.8-.8-1.2-2.2-.9-2.5.3-.2.4-.2.8 0 .3.3.4.3.6 0 .4-.5.3-.6-.3-1.3-.6-.7-.6-1 0-1.4.2-.2.3-.7.1-1.8-.1-1.4-.2-1.5-.7-1.5-.4 0-.7-.2-.8-.3-.3-.4.4-1 1-1 .4 0 .7-.2.7-.4 0-.5-.5-1-1-1-1 0-2-3.5-1.1-4 .3-.1.2-.2-.2-.5-.3-.1-.6-.5-.6-.7 0-.3.2-.4 1.4-.2l1.6-.1c.1-.2-.1-.3-.7-.3-1 0-1.7-.6-1.4-1 .1-.2.5-.3.9-.3.8 0 .5-.5-.5-.7-1-.2-2-1.1-2-1.6 0-.3.1-.4 1-.3.8.2 1 .1 1.1-.2.2-.4.5-.5 1.8-.3l1.7-.1c0-.2.5-.3 1-.3.4 0 .8-.2 1-.5.3-.6.3-.6-.3-.4-4.1 1.2-5.4 1.2-6.8.3-.5-.4-1.1-.7-1.3-.7-.3 0-.7-1-.5-1.4.3-.3 1.5-.2 2 .2.5.5 1.6.8 1.6.4 0-.7.9-1 2.8-1 1 0 2 0 2 .2.4.5 1.4-.2 1.7-1.1.4-1.1.1-1.5-.5-.8-.2.3-1 .6-1.8.7-1.2.2-1.5.1-2.8-.7l-2-1c-.3-.2-.5-.5-.5-.8 0-.6 0-.6 1.5 0 1.5.7 2.2.6 1-.1-.8-.5-1.4-1.6-1-2l1 .8c1 .7 1.3.8 2.7.8 1 0 1.8-.2 2.1-.4.4-.3.2-.4-1.6-.5-2-.2-3.2-.6-2.9-1l2.7-.1c2 0 2.5 0 2.7-.4.5-.7.3-1.1-.3-1l-3 .4c-2.4.1-2.5.1-2.4-.4 0-.3.3-.5 1.3-.5 1-.1 1.3-.2 1.5-.8.2-.5.3-.6 1-.3.4.2.8.2 1.7-.1l1.2-.4-1.7-.2c-1.5-.1-3-.7-3-1.3h.8c.9.2.9 0 .1-1.5-.2-.4-.2-.8 0-1l-.1-.8c-.2-.2-.2-.4 0-.7l.2-.4v-.5c.2-.3.5-.6.7-.6.4 0 1 .9 1 1.6 0 .6.4.8.7.2.2-.7.9-.5.9.2s0 .8.6.5c.3 0 .4-.3.2-1-.2-1.1-.4-1.3-1.6-1.3-1.3 0-1.3 0-1.5-1.2-.2-.7-.1-.8.4-.8.3 0 .8.3 1.1.6.3.4.8.8 1.1.9.3 0 .7.3.8.4.2.4 1.3-.2 1.7-.9.3-.4.3-.5-.4-.5-1.4 0-2.5-1.3-1.6-2 .7-.6 1.1-.5 1.1.2 0 .5.2.6.6.5.7 0 1-.6.5-1-1-1.1 0-2 2-2 1.5 0 2.9-.6 2.9-1.4 0-.3.1-.7.3-.8.5-.3.2-1.1-1-2.2a5.2 5.2 0 0 0-1.5-1.2.5.5 0 0 1-.4-.3c0-.2.4-.4 1-.6 1-.3 1.5-.4 2.7-1 .3-.2.2 1.6-.1 2-.2.2-.2.4 0 .5 0 .1.3-.1.6-.5.5-.6.5-.6 1-.1l.3.8c0 .2.3.4.7.4.8 0 1 .4.6 1-.3.5-.3.7.1 1.5l1.4 2c.5.5 1 1.2 1 1.4 0 .2 0 .5.3.7.3.2.4.2.5-.2.1-.3.3-.6.5-.6 0 0 .2-.6.2-1.4a4 4 0 0 0-.7-2.6l-1-1.4c-.3 0-.4-.4-.4-.7 0-.8-.5-1.7-1.2-2-.7-.3-1.7-3.1-1.7-5 0-1.3-.1-1.5-.7-1.7-.8-.3-.7-1 0-1 .3 0 .6-.2.8-.8.4-1 .6-1.3 1-.8.1.3.3.3 1-.1.8-.5.9-.5 1.7-.1 1.4.7 1.6.6 1.4-.7-.3-1.6-.7-2.1-1.3-2l-1.6.4c-1.3.2-1.3-.4 0-.8.4 0 1.1-.5 1.6-1 .9-.6 1-.7 1-3.2.3-3.6.3-3.7-1.6-4-1.4-.2-1.6-.2-2 .4-.4.6-1 2-1 2.5 0 .4 2.5.5 2.7 0l.8-.2c.5 0 .7.1.6.5 0 .4-2 1-3.6 1.1h-.8l.1 3.3c0 2.6 0 3.3-.3 3.6-.6.5-1 0-.8-1.3.1-.8 0-1.6-.3-2.6-.5-1.4-.5-1.8-.2-4.4.4-3.2.3-3.2-1.4-2.3-1 .5-1.1.5-2.1.1-1.1-.4-2-.3-1.8.3l.7.4c.4 0 .7.4.7.7a6 6 0 0 0 1.2 1.8l1.2 2 .4 1.7c.3 1.3.3 3.1 0 4.5a10 10 0 0 0-.3 2c0 1.2-.5 1.5-1.3 1-.5-.2-.7-.1-1 .3l-1.6 1.2c-.9.5-1.2.9-1.2 1.3 0 .6.1.6 1 .5.6 0 1.3-.3 1.7-.6.6-.3.8-.3 1.2 0 .2.2.4.5.4.8 0 .3.2.4.4.4s.5.1.5.3c.1.2-1 .9-2.8 1.5l-.9.5c-.4.3-.5.3-.8-.2-.3-.5-.8-1-1.7-1.8-.4-.4-.6-.7-.5-1.4 0-.8.3-1.2 1.2-1.8 4.7-3.4 4.4-3 4.4-7.2 0-2.5-.1-2.9-.7-3.8-.4-.6-.9-1-1-1-.2 0-.6.5-1 1.2-.3.8-1 1.8-1.4 2.3-.4.6-.8 1.2-.8 1.5l-.4 1.9c-.5 1.2-.5 1.3 0 1.6.5.4.5.4-.2.7a3 3 0 0 0-1 1c-.3.3-.7.6-.9.6l-.9.3c-.4.3-.6.3-.8 0-.3-.3-.3-.4 0-.7.3-.2.5-.5.5-.6 0-.2.3-.6.6-1 .9-.8 1.4-2 1-2.3-.1-.2-.6-.3-1.2-.3-1.3 0-2.6-1.1-3.2-2.9-.4-1.2-.4-1.4 0-2l.5-.8-1.4-.3c-1.5-.4-1.7-.7-.3-.8.8-.1.9-.2.5-.3-1.3-.5-1.9-1-2-1.5 0-.7 0-.7 1.3 0 1.1.5 2.5.7 2.8.2 0-.1-.1-.2-.5-.2s-.7-.2-.7-.4c0-.6-.9-1-2-1-1.3 0-3.2 1.3-3.5 2.3-.3 1.4-2.4.3-3.2-1.7-.2-.5-.5-.8-.8-.8-.3 0-.3.3-.2 1.8l.3 2.3c.1.7-.3 1-1.2.7-1-.2-1.3-.6-1.2-1.2.2-.3 0-.7-.7-1.4-.6-.5-1-.9-1.2-.9l-1-.9c-.6-.7-.6-.8-.3-1.1.7-.5.5-.7-.5-.7s-1 .2-.5 2.1c.4 1.5.7 7.2.4 7.6l-.7 3.4c-.4 2.8-.4 3.1 0 3.8.3.5.3 1 .2 1-.2.1-.3.5-.3 1 0 .6-.6 1.5-1 1.5l-1.1-.5c-.7-.3-1-.6-.9-1 .3-1.4.2-3.4-.2-3.9a3 3 0 0 1-.6-1.2c0-1-.8-.8-1 .1-.3 1.4-.7 2.3-1.1 2.3-.4 0-1.8 2.3-1.8 3 0 .5 1 1.1 1.3.8l.9-1.4c.5-.9.5-1.2.2-1.3-.2-.2 0-.4.7-1 .6-.3 1-.5 1.1-.4l-1 2c-1.2 2-1.3 2.6-.4 3.7l.6.8.4-.6c.2-.4.6-.6 1-.6s.8-.1 1-.3c.1-.2.4-.1.7.2.5.6.5.6-.4 1.8-.8 1-1 1-1.8.8-.8-.1-.9 0-.6.4.4.7 1 1.2 1.3 1 .5-.3 1.3 0 1.4.7 0 .5.3.6 2 .7 2.1.2 3.3.1 3.3-.3l-.6-.4c-.8-.2-.5-.7.8-1 .6-.2 1.5-.7 1.9-1 1.6-1.4 3-1.2 1.9.3-.7 1-.8 2.4-.2 2.4.2 0 .6-.3 1-.8.7-.8 1.5-1 1.5-.4 0 .4-1 1.3-2.1 1.9-1 .5-1.9 1.1-1.9 1.5 0 .1.4 0 .7-.3a3 3 0 0 1 1.6-.6c.6 0 1.2-.2 1.9-.9l1.3-1c.4 0 .8-.7 1.1-2.3l.3-1-.8.8c-.6.7-.8.7-1.2.5-.2-.2-.3-.6-.2-.8 0-.2 0-.3-.2-.2-.2 0-.5.5-.6 1-.2.6-.4.8-.9.8-.7 0-.8-.8-.2-1.9.4-.7.5-2.4.2-2.4l-.7-.1c-.3-.2-.4 0-.4.8s-.2 1-1 1.6c-.7.4-1.6.7-2 .8-.9.1-1 0-1.2-.6-.5-1-.3-1.5.7-2 1.3-.6 1.6-1.2 1.6-2.6 0-1.1 0-1.3-.5-1.3-.3 0-.7-.3-1-.7-.2-.3-.6-.6-.9-.6-.7 0-.6-1 .3-1.3.8-.4 3.5-2.5 3.4-2.6 0 0-.6 0-1.2.3-1 .4-1.1.4-1.7 0-.3-.3-.5-.7-.4-1 .1-.3 0-.8-.3-1-.6-.8-.2-1.4 1-1.2.7.1.9 0 1-.4 0-.3.2-.5.4-.5l1.6-1.4c1.5-1.3 2.2-1.5 1.5-.4-.3.5-.2.6.4 1.2.6.5 1 .6 1.5.4 1-.2 1.3.5.5 1.3-.6.5-.6.7-.4 2.5l.1 4.3c0 2 0 2.2.4 1.9.2-.2.5-1.2.6-2.1a13 13 0 0 0 0-4.7c-.3-1.6.4-1.6 1.4 0 .7 1.2 1.5 1.7 2.4 1.7.4 0 .5.2.5 1l.3 1.7c.3.7.3 1-.1 1.2-.5.3-.4.4 0 .6.4.2.6.6.6 1 0 .7.6 1 1.5.7.7-.1.7 0 .5 1a1 1 0 0 1-.8.6c-1 0-.8.5.1.8.7.2.8.3.8.9 0 .6 0 .6-.6.5-.5-.1-.7 0-.7.2 0 .3.2.4.5.4.4 0 .5.2.5.7 0 .7-.5 1-1.1.8-.2-.1-.7 0-1 .4-.3.3-1 .5-1.5.5-1.4 0-2.2.6-2.8 2-.2.6-.4 1.3-.3 1.5l.6 1c.2.4.3 1 .3 1.5 0 .8.1.9 1 .9 1.3 0 1 .6-.3.8-.7 0-1 .3-1.1.6-.1.3 0 .4.6.4.7 0 .8.4.4 1-.2.4-.4.4-1.3.1-.6-.2-1.2-.3-1.3-.2-.2.3.2.7.7.7.3 0 .6.2.6.3 0 .1-.2.3-.4.3s-.5.1-.5.4c-.1.3-.4.3-.9.2h-.6c0 .2-.1.6-.5 1-.6.6-1.2 2.4-1 3 .2.2 0 .4-.2.4-.4 0-.5-.2-.3-.7l-.1-.6c-.2 0-.4.5-.5 1.2-.3 1-.2 1.6 0 2.5.6 1.4.7 2.8.3 2.9-.1 0-.4-.5-.5-1.1-.4-1.5-.7-1-.8 1.8a10 10 0 0 1-.5 2.9c-.2.3-.4 1-.5 1.7l-.3 2.3c-.2 1.3.3 2 1.5 2 .5 0 .7 0 .7.3 0 .4-.2.4-1 .3-1-.1-1-.1-1 .3s.2.6.7.8c.4.2.8.4.8.6 0 .1-.4.3-.8.3-.7 0-.8 0-.8.7 0 .6.1.7.6.7s.6.2.7 1.1c0 1 0 1.2-.5 1.2-.8 0-.6.8.3 1 .4.1.6.4.6.7 0 .4-.1.5-.8.4-.6 0-.7 0-.4.3.2.3.5.5.7.5.2 0 .3.5.3 1.4 0 .8 0 1.5-.2 1.5s-.2.1 0 .5c.3.5.1.8-.5.8s-.6 0-.6 2c0 1 0 1.4.2 1.4s.4.2.6.4c.3.2.1.4-.4 1-.6.4-.8 1-.9 1.7 0 1 0 1 .8 1.2 1 .3 1.2 1.3.3 1.3-.8 0-1.3.3-1.3.8 0 .3-.2.5-.5.5s-.6.1-.6.3c0 .1-.3.2-.7.2-.5 0-.7 0-1 .7 0 .4-.5 1.2-1 1.7-.8 1-.9 1.1-.3 2.2.4.7.4.8 0 1.2-.6.6-2.3 0-2.8-1.2-.2-.5-.6-1-.8-1-.3 0-.6-.5-.8-1-.3-1-.8-1.2-2.2-1.2-.4 0-.7-.2-.7-.4 0-.3.2-.4.5-.4.8 0 2.2-.8 2.2-1.2 0-.3-.3-.4-1-.5h-1l-1-.1c-1 0-1-.5.2-1 .8-.4 1-.5.5-.6-1.5-.3-1.7-.4-1.7-.7 0-.3.3-.4 1.3-.2 1.7.2 2.7 0 2.7-.7 0-.3.1-.6.3-.7.2-.1.2-.2 0-.3l-.8-.5c-.4-.3-.4-.4-.1-.8l.8-.4c.7 0 .9-.4.7-2-.2-1.2-.3-1.4-.8-1.4-1.2 0-1.3-.8-.5-4 .1-.7 0-.8-.5-1-.7-.3-.7-.4-.6-1.6.2-1.2.2-1.3-.4-1.4-.8-.1-1-.8-.2-.8s1.4-.4 1.2-.9c-.1-.3-.4-.4-.8-.3-2.5.5-4.7.4-4.7-.3a9 9 0 0 1 2.7-.4c1.6-.1 2.8-.3 3-.5.2-.2.6-1.3.8-2.4.4-1.6.5-2 .2-2-.2 0-.3 0-.3.2 0 0-.5.5-1.1.8-1.1.7-1.3 1.2-.7 1.4l.4.4c0 .5-.8.6-1.5.2a4 4 0 0 0-1.7-.4c-.9 0-1.3-.1-1.4-.4-.3-.8.4-1.2 1.8-1.2 1.1 0 1.6-.2 2.7-1 .8-.5 1.5-1.1 1.6-1.4 0-.2.4-.5.7-.6.3 0 .5-.3.5-.8 0-.4-.1-.7-.2-.6l-2.4 1.2c-1.7 1-2.1 1.3-1.9 1.5.5.6 0 .8-1.8.7-2 0-2.3-.2-2-1 0-.2.4-.4 1-.4a4 4 0 0 0 1.7-.4c.7-.3.6-.3-.7-.4-1.3 0-2-.3-2-1 0-.4 1-.4 1.3 0 0 .2.6.2 1.2.1.8 0 1.2 0 1.3.2.2.3.4.3 1.2 0 1.4-.5 2.7-1.4 2.7-1.8 0-.8-1.4-1.3-3.4-1.3l-2.3-.2c-.3-.3.7-1 1.4-1 .8 0 1-.5.5-.9-.5-.3-.4-.4.2-1l.7-1c0-.4-.4-.3-.7.2-.3.6-1.2.3-1.3-.4-.1-.5 0-.7.4-.8.7-.1.7-.3.3-.8-.6-.5.5-1.4 1.4-1.2.4 0 .7 0 .7-.2 0-.1 0-.2-.2-.2s-.6-.3-.9-.6c-.3-.3-1-.7-1.6-.8-1.2-.1-1.4-.6-.3-.7 1-.1 1.7-.8 1-1-.2-.1-.7 0-1 .1-.4.2-1.3.2-2 .1-1.5-.1-3.4.3-3.4.8 0 .1.4.2.9.2 1 0 1.1.2.5 1.2-.4.6-.4.8-.1 1.4.2.4.6 1 .9 1.2.4.4.4.8.3 2 0 .8-.3 1.6-.4 1.7-.2.2-.3.6-.3 1l-.4 1.6c-.4 1.2-.3 1.3.6.4.4-.3.7-.4.9-.3.4.4-.5 1.5-1.1 1.4-.4-.1-.5 0-.5.6 0 .3 0 .9-.2 1.2-.2.3-.2.7 0 1 .2.4 0 1.4-.6 3a20 20 0 0 0-.3 7.9c.2 2.3-.1 3.6-1.2 4.8-.7.6-.8 1.7-.3 1.7l.7-.3c.3-.4.8-.1.8.5 0 .3.1.6.3.6.1 0 .3.2.3.6 0 .3.1.7.4.8.6.2.4.9-.2 1-.5.1-.4.1.2.2 1.3 0 1.5.5 1 2-.2.8-.6 1.6-.9 1.9-.6.7-1 1.3-1.2 2.4-.1.8 0 1 .5.6h1.7c1.1 0 1.4.1 1.3.5 0 .3-.4.4-1.5.4-1.2 0-1.4 0-1 .2 1.3.8 1.6 1.2 1.4 1.5-.4.4-1.7 0-2.2-.8-.2-.3-.5-.5-.8-.5-.2 0-.3-.1-.3-.3l-.3-.2c-.4 0-.3.7.1.9.2 0 .4.4.5.7 0 .5.2.6.7.6.4 0 1 .2 1.2.4.2.2.5.2.7.2.1-.1.8 0 1.4.3l2 .7 1 .2c.3.4-.2 1-1 1-.5.2-.8.4-.7.6.1.4 1 .4 2.1 0 .6 0 .7 0 .7.2 0 .6-.5 1-1.4 1-.4 0-.6.2-.5.3 0 .2.7.3 1.3.2 2.1 0 2.1 1 0 1.2-.6 0-.4.1.4 0 1 0 1.6.1 1.9.4.5.6-.2 1-2.2 1-1 0-1.8 0-1.8.2 0 .3 3.5.2 4.8-.1 1.5-.4 2.5-.1 2.8.7.2.4.5.7.7.8.6.3.5 1.2-.2 1.2s-1.5-.8-1.5-1.4c0-.4-.2-.5-1-.3-.6 0-1.3.3-1.6.4l-1.4.2c-.3 0 .3.2 1.4.3 1.6.1 2.2.3 2.5.7.3.4.7.5 3 .5 2 0 2.5 0 2.5.4 0 .2-.4.4-1 .5-2 .4-3.3.3-4-.3-.9-.7-1.5-.4-1.3.6.2.9-.2 1-1.9 1.1-1 0-1 0-1.1 1 0 .6.2 1.5.9 2.9 1 2 1 2 2.3 2.2 1 .2 1.2.3 1.1.7-.1.7-2.4.4-3.5-.4-1-.8-1.2-.8-1.2-.3 0 .6 1 1.3 2.3 1.4l1.4.4c.2.4-.8 1-1.7 1-.5 0-1 .1-1 .3 0 .4 1.2.8 2 .7h1c.3.3.3.4-.2.9-.4.3-.9.4-1.3.4-.4-.1-.5 0-.4.3 0 .3-.2.6-.6.8-.7.4-.8.7-.4 1 .5.3.3 1-.4 1.2-.5.2-.6.4-.8 2 0 1-.3 2.1-.4 2.6-.2.5-.1 1 0 1.2.2.3.2 1 .1 1.4-.3 1.7 1.2 1.9 4.2.5 1.6-.7 2-1.2.8-1h-2c-1.4-.1-2-.7-1-1.3.4-.4.4-.4-.1-.6-1.2-.4-2-1.7-1-1.7.1 0 .3.2.3.4 0 .3 1.2.7 3 1 .8.1 3.1-.3 3.1-.6s-.6-.4-2-.4c-2.2 0-3.7-.5-4-1.3-.3-.8.4-1 1-.3.8.8 1.5.9 2 .4.3-.3.5-.3.7.1.3.3.7.5 1.3.5.8 0 1-.1 1.1-.8l.2-1.8c0-1.6.2-2 1.2-2.5.6-.3.9-.6.9-1s.2-1 .5-1.2c.7-.6.7-2 0-3.4a3 3 0 0 1-.4-1.8c0-.4 0-.8-.2-1-.3-.2-.4-.4-.4-.6 0-.3 1.1-.3 1.4 0l1.3.5c1.1.2 1.2.2 1.3-.3 0-.4.3-.6 1-.6.4 0 .9-.3 1-.6.5-.9 1-.6 1.2.5.1.7 0 1.4-.6 2.9-.5 1-.8 2.4-.8 3 0 .5-.3 1.6-.6 2.4-1 2.7-1.7 4.8-1.9 6-.1.7-.4 1.4-.6 1.6l-.5 1c0 .5-.6 1.3-1 2-1 1-2 3.4-1.7 4 .2.5 2 1.3 2.7 1 .4 0 1 .2 1.5.6 1.2.8 2.5 1.5 3.6 1.6.7.2.8.1.8-.5 0-1.2.5-1.6 2.2-1.4 2 .2 2.4-.1 6.2-4 2.8-2.8 3.6-4 2.7-3.6l-.6-.1c-.2-.4.4-1.4 1-1.5.7-.2.6-1.9 0-3.2l-.6-1.4c0-.5 1-.4 1.6.1.7.7 3 5.2 3 6.2a23 23 0 0 1-3.3 8.5l-.5-.5c-.2-.3-.6-.6-.9-.7-.4-.1-.4-.3.5-1.5 1.1-1.5 1-2 0-1.1-1.4 1-3.2 2-4 2.2-1 .1-1.5.8-.7.8.7 0 1 .2.6.7-.6.6 0 1 1.1.6 1-.3 1.8 0 .9.4-.5.2-.5.2 0 .4a54.7 54.7 0 0 0 11.1-.3zm-3.6-1a7 7 0 0 1-1.7-.4l.4-2.9.8-3.9c.1-1 .8-2.6 1.5-4l-.6-.3c-.7-.2-.8-.6-.3-2.5.2-1 .2-1.5 0-2.1-.3-.7-.4-.7-.7-.3-.4.6-.7.6-2 0-.7-.4-1-.8-1-1 0-.6 1-1.7 1.4-1.7.8 0 1.2-1.3 1.1-3.2 0-1.7-.2-2.1-1-3.4a9.8 9.8 0 0 1-1.8-5.7c0-1.6.3-2.3.8-1.8l.6 2.5c.4 2.5.6 3.2 1.6 4.5 1 1.6 1.3 2.1 1.4 3.5 0 1.5 1 4.9 2 6.5.4.9.5 1.6.5 3.7v2.6l1.6 1.5c1.6 1.4 1.7 1.6 2 3 .5 2 .3 2.4-2.1 4-2 1.5-2.5 1.6-4.5 1.4zm-18.4-1.1c-.2-.4.6-1 1.1-1 .5 0 1.3-1.3 1-1.5-.2-.1-.3-.5-.3-.8 0-.4.2-.7.8-1 .4-.1.9-.4 1-.6.3-.3.1-.3-.6-.3-.6 0-1.1.2-1.3.4-1 1-1-.4.1-2.3 1.6-2.9 3.2-4.1 5-3.9l1.2.2-.6-.5-.7-.5.6-.4c.8-.6.5-1.7-.5-2-.9-.1-1.8-1-1.4-1.4 0-.1 1.5-.3 3-.3l2.8-.1v.7c.1.9-.8 2-2 2.7-.6.3-.7.5-.6 1.2 0 .7 0 .8-.7 1-1 .2-2 .8-3 1.7-1.1 1-1.3 1.3-.5 1.3.6 0 .7.6.3 1-.4.2-.3 1.5 0 1.9.5.3 1.3.1 1.3-.3s2-1.5 2.7-1.5c1.1 0 1.2.5 0 1.3-.4.5-1.2 1.3-1.5 1.9-.4.6-1 1-1.4 1.2a5 5 0 0 0-1.4.6l-1 .4-1.8.6c-1 .4-1.5.5-1.6.3zm9.4-8.4c0-.5.8-1.4 1.2-1.4.3 0 .2.4-.5 1.2-.6.7-.7.7-.7.2zm-22.1-2.8c-.5-.2-.9-.6-.9-.8 0-.5.6-.6 1-.1l1.6.4c.8.1 1.4.3 1.5.5 0 .4-2.3.4-3.2 0zm17.8-5.6-.5-.4c0-.7 0-1 .3-1h.4l-.2-.7c-.6-1-.3-1.3.6-.7.5.3 1.2.4 3.6.4h3l.1 1v1.3c0 .2-6.4.3-7.3 0zm1.8-3.2c-2.3-.6-2.5-.7-2.5-1.2s.1-.5 1.5-.3c2.5.3 4 .7 4 1.1 0 .3-.4.4-1.3.5l-1.7-.1zm1.5-2.5-1.5-.1V103c0-.8.1-2 .3-2.6.2-1.3.2-1.3-.8-2.1l-1-.9.5-.6c.6-.8.9-.7 2 .9.7 1 .7 1.3.6 2.9v1.7l1-.4c.6-.2 1.3-.4 1.8-.4h.8l-.1 1.5v1.5H160zm-17.4-.3-.3-.6-.5-.7c-.4-.5-.3-1 .3-1 .4 0 1.7 1.4 1.7 1.8 0 .5-1 .8-1.2.5zm6-2.5c-.5-.2-.3-1 .3-1.3 1.2-.3 1.9-.1 1.8.3-.1.5-1.5 1.2-2 1zm-6.6-.9c-.6 0-1-.3-1-.6-.1-.5 0-.5.9-.4l2 .2c.8 0 1 .1 1 .5 0 .5-.2.6-1 .5-.5 0-1.4 0-2-.2zm11.5-.1c-.8-.5-.8-1 .2-1.2.4 0 .9-.3 1-.6a2 2 0 0 1 1.2-.6c.7-.2.9 0 1.3.5.5.8.5 1 0 1-.3 0-.6.2-.8.5-.3.8-1.8 1-2.9.4zm8.1-.2c0-.4.3-.6.6-.6.8 0 .7 1 0 1.1-.6.1-.7 0-.6-.5zm-3-4.7c-.3-.4.3-1.3.7-1.3.5 0 .5.3.1 1-.3.6-.6.7-.9.3zm6-7c-.4-.4-.2-.7 1.5-2.5 2-2 3-4 2.7-5-.2-.5.9-1.7 1.6-1.7.2 0 .6.4.9 1 .4.8.4.9-.4 2.4a16.6 16.6 0 0 1-4.7 5.5c-.7.8-1 .8-1.6.2zM145.1 84v-.6c.2-.2.7.2.7.6 0 .5-.5.5-.7 0zm-14.3-1c-.5-.5 0-.9 1.2-.9 1 0 1.1 0 1 .6 0 .4-.3.5-1 .6-.5 0-1 0-1.2-.3zm18-3.9c-.1-.3.3-.6.5-.3.3.2.2.6 0 .6s-.4-.1-.5-.3zm21.7-.4c-.2-.6.5-1 1-.5.1.2.2.5.1.6-.3.5-1 .4-1.1-.1zm3.9-2c0-.2 1.3-.6 1.5-.4v.4c-.3.4-1.5.4-1.5 0zm-41.8-.5c-.3-.2-.3-.3 0-.9.4-.5.5-1 .4-1.7-.1-.5 0-1.1.1-1.4.2-.3.3-.3.7.2.2.2.4.8.4 1.3l.1 1.3c0 .2 0 .6-.4 1-.6.5-.8.6-1.3.2zm42-.5c-.4-.3-.3-.4.8-.6 1-.2 1.3.2.6.6-.6.3-.9.3-1.4 0zm-26-1.6c-.2-.3 0-1.3.4-1.3s.8.7.6 1.1c-.2.5-.8.6-1 .2zM175 74c-.5-.4-.5-.4.2-.4.5 0 .8.1.8.4 0 .5-.3.5-1 0zm-2-.6 1-.7c.6-.3.9-.6.7-.7-.6-.2-.3-.6.3-.6 1 0 .9.7-.3 1.5-.9.6-1.7.8-1.7.5zm.2-2c-.1 0 .5-.5 1.3-.9 1.5-.7 2.1-1.4 1.8-2 0-.3.1-.6.4-.8.3-.2.6-.5.6-.7 0-.2.1-.3.2-.3.4 0 .4.4 0 .6l-.2.7-.1 1c-.3.7-2 2.2-2.7 2.2-.2 0-.4 0-.4.2 0 .4-.7.4-1 0zm2.1-5.8c-.1-.1.2-.2.7-.2.4 0 .7 0 .6.2 0 .2-.4.3-.6.3-.3 0-.6-.1-.7-.3zm-1-1.3c0-.1.2-.3.4-.3s0-.2-.4-.4c-.8-.4-.8-.5-.4-.8.5-.3.5-.3 0-.5-.3 0-.3-.2-.1-.4.4-.5 1.2 0 1 .5-.2.4 0 .6.2.6.4 0 1.5.5 2.3 1 0 0 0 .2-.3.3-.5.3-2.6.3-2.6 0zM148 57.9c0-.2.4-.4.7-.4.4-.1.5-.2.3-.3-.5-.3-.2-1.1.4-1.1.3 0 .4.2.3.5v.6c.6 0 .3.7-.3.8-1 .3-1.5.2-1.4-.1zm-15.7-8.3c.2-.7.8-.8.8-.1 0 .3-.2.5-.4.5-.3 0-.4-.2-.4-.4zm43.5-6.3c-.2-.5 0-1 .6-1 .2 0 .4 0 .4-.2s.2-.3.5-.3c.6 0 .7 1 .2 1.5-.4.5-1.5.4-1.7 0zm-19.2-9.5c-1-1.4-1-2.2.1-1.4.4.3.7.3 1.5 0 .7-.2 1-.2 1 0 0 .3.4.3.8.2 1-.2.8.6-.4 1.3-1.6 1-2.2 1-3-.1zm2-.5c.2-.3-.1-.3-.6 0-.4.3-.4.3 0 .3.3 0 .5-.1.6-.3zm2-3.3c-.4-.3 0-.6.7-.6.4 0 .6.1.6.3-.2.4-1 .6-1.4.3zm2.3-1c-.4-.2-.4-.5-.3-.9.2-.6.2-.6.7 0 .5.5 1 .4 1-.2 0-.2.2-.4.4-.4s.4-.2.5-.5c0-.4.3-.6.7-.5 1 .1.8.9 0 1-.6 0-.8.2-.8.7 0 1-1.3 1.5-2.2.8zm-2.2-7.9c-.5-.4-.4-.7 0-.7s.8.7.5.9c-.1 0-.4 0-.5-.2zm4.5-4c.1-.4.9-.8 1.1-.6v.6c-.1.4-1.3.5-1.1 0zm-12.3-8.8c-.3-.4-.2-1.2.3-1.2.3 0 .9 1 .7 1.4-.3.3-.6.3-1-.2zm-18.5 121c0-.3-.5-.4-.6-.2-.1.2 0 .3.2.3l.4-.1zm13.5-.3c0-.2-.3-.3-1-.3l-1.2.1v.3c.2.4 2.2.4 2.2 0zm-100-.4c3.8-.3 5.7-.8 9.5-2.5l1.6-.4c.7 0 7.6-2.3 9-3 .4-.2 1.9-1 3.4-2 1.5-.9 3-1.6 3.3-1.6 1.2 0 1.6 1.3.8 2.5-.6 1 .2 1.7 1 .8.1-.2.9-.6 1.6-.8 1.2-.4 1.4-.4 2.6 0 1.6.5 2 .3 3.2-1.4a9 9 0 0 1 4.2-3.6c1.9-.7 4.2-.7 6 0 1.5.8 2.8.8 3.7 0 1-.8 1.8-1.2 2.4-1.2.3 0 .7-.2.9-.4.4-.5 1.4-.4 3 .4l.9.5.6-.8c.5-.8.7-.8 1.6-.7.8.1 1 0 1-.2s.4-.6.9-.8l.8-.5-1.6-.6c-1.1-.5-2-.6-3.1-.6-1.3 0-1.6 0-1.7-.4 0-.3 0-.4.3-.4s.6-.5.9-1a3 3 0 0 1 1-1.4c.5-.3.6-.5.5-1-.1-.6 0-1 .5-1.3.4-.3.7-.7.7-.8 0-.2-.6-.4-1.3-.6-.7-.2-1.3-.5-1.3-.6 0-.4 1.3-.4 2.4 0 1.4.7 2.7.7 4 0 1.4-.6.9-1-1-.7h-1.7a8 8 0 0 0-3.1-.4c-.7 0-.9.2-.9.6 0 .3 0 .5-.2.5l-.4.5c0 .4-.5.6-1.5.7-1.9.2-1.3.2-6.6-.1a35 35 0 0 0-6.6-.2c-1 .2-.6-.4.5-.7.9-.3 1.7-.3 3.3-.1 5.2.6 5.4.6 6 0 .5-.4.5-.4.9 0 .3.5.6.5 1.6.4 1.7-.3 2-.5 1-.7-.7-.1-1-.3-1.1-.6-.1-.7 2.3-1.1 5.8-1.1 3 0 3.8-.2 2.6-.5-.4-.1-.5-.3-.5-.6.1-.8-.2-1.2-1-1.2-1 0-2.5-.7-2.5-1.2 0-.6 5-.4 5.8.2.7.6.8.6 1-.3.1-.7.3-.9 1.7-1.2l1.4-.3c.6-.1.9 0 1.1.3.2.2.8.5 1.4.5 1.1.1 2.6 1.2 2.4 1.7 0 .2-.5.6-1.1 1-.8.7-1 1-1 1.7v.8c.7 0 1.4-.4 1.4-.7 0-.2.3-.5.6-.6.4-.2.9-.7 1.2-1.3.6-1.2 2.4-2.1 3.5-1.8.7.3.4.6-.8.8-.9.1-1.2.3-1.5 1-.4.7-.4.8 0 1.3.5.5.3 1.2-.3 1.4l-2.8.8c-2 .7-2.5.7-3 .4-.3-.2-1.1-.4-1.8-.5l-1.8-.4c-.4-.2-.4-.1-.3.2 0 .3 0 .5-.4.6-1 .3-.6.6.6.6.6 0 1.2.1 1.4.3.4.3 3.4.6 3.6.3.4-.5 1-.3 1 .4l.6 1.2c.3.4.4.4 1-.2.4-.3.7-.8.8-1 .1-.8 2.4-1.2 3-.6.3.2 1 .4 1.8.4h1.3l-.1-1.4c-.1-1.5-1-2.8-1.7-2.8s-.7-.5 0-.8c.6-.2.7-.4.6-.7-.2-.3-.3-1.2-.4-2-.1-1.3-.2-1.5-.7-1.6-.7 0-.7-.8 0-1.1.8-.3.8-.9.1-1-.7-.3-.5-.8.3-1 .4 0 .7-.4.9-.9.3-.9.2-1-1-1-.8 0-.8 0-1 1a14 14 0 0 0-.3 2c0 1 0 1-.7 1-.8 0-1.5-.6-1.2-1 0-.2.4-.3.7-.2.3.2.5 0 .5-.3 0-.5-.6-.9-1.7-1.2-.5-.2-2.6.3-2.6.6 0 0 .5.3 1.2.4.7.2 1.1.4 1.2.7 0 .6-.8.6-1.4 0-.4-.3-.5-.3-.8 0-.4.3-3 .3-3.2 0-.3-.5.4-1 2.4-1.7 1.7-.6 2.5-1.3 1.6-1.3-.3 0-.4 0-.3-.3 0-.2 0-.8-.3-1.2a9 9 0 0 1-.5-1.5c-.2-.6-.1-.7.3-.6l2 .3c1.5.2 2.2.7.9.7-1 0-.7.4.7 1 .8.5 1.3.6 1.9.4l1.4-.1c.5 0 .6-.1.7-1 0-1 0-1.4-.8-2.6-.8-1.1-1.1-1.4-1.7-1.4a190.3 190.3 0 0 0-20.8-.6 1815.9 1815.9 0 0 1-17 .3c-.2.2.2.6 1 1l1.9 1.2c.3.3 7 .4 7.4.1 0 0 1.2 0 2.4.3 5.5 1 10.8 1 12.5.2.5-.3 1.6-.4 3.2-.4 2.5 0 3.3.2 3 .8-.2.2-.3.2-.5 0-.5-.3-5 0-5.8.5-.3.2-1.1.4-1.8.4l-4.4.3c-2.6.2-3.5.1-5-.2-1-.3-2.2-.4-2.6-.4-.8.2-2.3 1.3-2.3 1.8l-3 .7c-1.6.2-2.8.6-2.8.7 0 .2 1.1.5 3 .7 3.3.3 6.5 1 6.9 1.3.2.3-.1.4-.8.3a95 95 0 0 0-14.4-.6c-2.7 0-3 .1-3.1.6-.1.3-.5.6-1 .8a6 6 0 0 0-1.5.8l-1.3.6c-.4 0-1.5.4-2.5.8-1.5.6-2.3.7-4.6.7-2.5 0-2.7 0-2.7.6-.1.6-.9 1-2.6 1-1.2 0-1.6.3-.9.7.7.4.1 1.2-1 1.5-.6 0-1.7.4-2.5.8-1.8.8-2.4.8-4.9.3-2.2-.5-5.5-.5-5.3 0 0 .8-.5 1.1-2.3 1.4l-4 1.1a46.8 46.8 0 0 1-8.2 2A404.4 404.4 0 0 1 24 110c-.8-.4-.2-.8 2-1.1 1.3-.2 3-.6 3.9-1 1.8-.7 3.8-1.3 6.5-1.7 1.1-.2 2.1-.4 2.3-.6l1.7-.4c1 0 1.6-.3 1.9-.7.3-.4.8-.5 2.2-.6 1 0 2.2-.2 2.8-.4 1-.2 1-.3 1-.9-.3-.9.3-1.1 3-1.3 1.4-.2 3 0 4.9.3l2.8.4 1.8-.6c1.3-.6 1.7-.8 1.8-1.3.1-1 .5-1.3 1.4-1.3.8 0 1-.2.4-.7-.6-.6.1-.8 3.6-1 4.5-.2 6.3-.4 6-.7 0-.2-.5-.2-1-.1-.5 0-.9 0-1-.2-.1-.2-.8-.2-2-.1-1.1 0-2.3 0-3-.2-1.2-.3-2.5-.1-2.5.5 0 .4-1.4 1-2.7 1-.7 0-1 0-1 .3l-.1.4-3 .4c-3 .4-3.3.4-3.3-.3 0-.3 3-.9 4.6-.9 1 0 1-.3.4-1-.6-.5-.7-.5-2.2-.2l-2.8.5c-.7 0-1.6.3-1.9.5a9 9 0 0 1-2.5.5c-1 .1-2.7.4-3.7.7-1.8.4-2 .4-2.3 0-.5-.5-1.4-.5-3.3 0l-3.2.4c-.5 0-1.8.4-2.9.8-1.1.5-2 .7-2.3.5a39.7 39.7 0 0 0-12.3 1.8 784.6 784.6 0 0 0-6.5 1c-1.1.2-3.6.4-5.6.4-1.9 0-3.5.1-3.6.2a148.5 148.5 0 0 0 0 18.3l.5 3 .2 1.2h1.2c.7 0 2-.2 2.9-.5a67.7 67.7 0 0 1 11-2.2 63 63 0 0 0 13-2.2c.6-.4 1.5-.7 2-.7 1.8 0 5.6-1.4 8.3-3.1l2.8-1.4 2.5-1 3-1c2.7-.5 4.7-1.3 5.7-2.2.8-.7 1-.7 4-1 2.3 0 3.4 0 3.8.2.5.2 1 .2 2.5-.2 2-.4 3.4-.3 3.6.4 0 .3-.2.4-1 .2-.7 0-1.8 0-2.5.2-.8.2-1.7.3-2.6.2-.8-.1-2.4-.2-3.6 0-2 0-2.4.2-4 1.2-1 .6-2 1.3-2.3 1.7-.2.3-.7.5-1 .5l-2 .5c-.6.3-2 .7-2.8.9-2.2.4-3.7 1-3.2 1.3.3.2.4.5.4.8 0 .6 0 .6 5 .4 5-.2 5.2-.2 6.9-1l1.9-.9 1.3-1.1c1.1-1.1 1.2-1.1 2.9-1.1l3-.3a67 67 0 0 1 2.3-.5c4.4-.8 5.2-1.5 2.6-2-.4 0-.7-.3-.7-.6s.1-.4.7-.2l3 .3c1.7.1 2.4 0 3.2-.3l1-.7c0-.4 2.9-1 5.4-1 3.3-.1 3.3-.1 2.9.3-.2.2-1.6.4-3.3.5-2.8.1-3.1.2-4.3 1-1.4 1-1.6 1-4 1.3l-1.6.1 1.3.2h3.9a33.1 33.1 0 0 1 7.6-.1c3.7.1 4 .2 5.6.9 1.7.7 1.8.7 3.2.4 1.4-.4 7.2-.5 8-.2.3 0 .4.3.4.4 0 .2-.9.3-3.1.2-2.3 0-3.9 0-5.5.4-2.2.4-8.3 1-8.5.7-.4-.2.8-.6 2.3-.6l2.4-.2.7-.2-.8-.4c-.6-.2-2.8-.3-9.5-.3-8.8 0-10 .1-10.6 1-.2.3-1.2.4-3.6.5-2.3.1-3.3.3-3.5.5-.2.2-1.2.6-2.2.8-1.4.4-2 .6-2.1 1 0 .2-.5.6-1 .8-.4.2-1 .5-1.3.9-.6.5-1 .5-5.4.6h-8c-1.3-.2-1.7-.2-2.5.3-.5.3-2 1-3.4 1.5-2 .8-3 1-5.3 1.2-1.6.1-3 .3-3.3.5l-3 .4a40.7 40.7 0 0 1-6.8.7c-3 .2-5 .4-7.7 1.1a409.7 409.7 0 0 1-6.4 1.7l4.6.7 9.4 1c1.1.3 23.7 0 27-.3zm58.9-15.3c-.3-.3-.2-.6.2-.6.2 0 .5.1.5.3.2.2-.5.6-.7.3zM95 109.5l-3.9-.2c-1.3 0-2.3-.1-2.3-.3 0-.1.2-.3.5-.3s.3 0 .1-.2c-.4-.5-2.3-.8-5.3-1-3.7-.3-3.5-.7.3-.7 2.6 0 3.3.1 5.5.8a41 41 0 0 0 10.8 1.2c1.6 0 3 .2 3.1.7.1.3-5.7.3-8.8 0zm-76.7-2c-.2-.5 0-.9.7-.9.6 0 .9.5.5 1s-1 .5-1.2 0zm105.2-3.8c0-.5 1.2-1 2-.9 1.2.3 1.1.8-.1 1-1.4.2-2 .2-2 0zm-97.3-.8c-.2-.4 0-.5 1.8-.8 2.4-.3 4-.3 3.9.1-.1.2-1 .5-2.4.6-2.9.4-3 .4-3.3.1zm76.6-4.5c0-.6.8-1 1-.5.4.5.1 1-.5 1-.3 0-.5-.1-.5-.5zm20.8-.5c-.1-.3-.5-.5-1-.6-.6 0-.9-.2-1-.6 0-.7.3-1 1.3-.8.7.2.8.3.8.8 0 .4.2.7.4.7.3 0 .4.2.4.5 0 .7-.8.7-1 0zm-23.8-.5c-.1-.2.3-.3 1-.3s1.2.1 1.2.3c0 .1-.4.2-1 .2s-1.1 0-1.2-.2zM101 94c0-.3.2-.3 1-.3 1.3.1 1.4.8 0 .8-.7 0-1-.1-1-.5zm8.8-3.2c-.8-.3-.3-.5.9-.5l1.9.2c.3 0 .6.1.6.3 0 .2-2.8.3-3.4 0zm30.5 37.8c.5-.2.9-.4.9-.6 0-.1-.2-.2-.5 0l-1.9.3-2.1.5c-.5.3-.4.3 1 .2 1 0 2.2-.3 2.6-.4zM129 128a25 25 0 0 0 2.8-.9l1.1-.2c.8 0 1.5-.2 1.5-.5 0-.5-1.4-1-2.5-1l-2.2.2c-1 0-1.1 0-1.1.6 0 .7-.3 1.1-1 1.3-1.4.5-2.4 1-2.2 1 0 .2.4.2.7.2l2.9-.7zm-7.2-.2 1.8-.6c.6 0 .6-.6.2-1-.5-.5 0-1.1 1-1.4 1-.3 2-1.2 2-2 0-.6.7-.8 1.1-.4.5.4 2.2.3 2.1-.1 0-.3-.3-.5-1.6-1-1.3-.4-1-.9.7-.8 1.2 0 1.3 0 1-.4a7 7 0 0 0-1.6-1 10 10 0 0 1-2-1.3c-1-.8-.8-1.6.1-1.3.5.1.7 0 .8-.5.5-1.7 1.1-2.3 2-1.8.8.4.9.2.4-.8-.5-.9-.5-.9 0-1.3l1-.6c.1 0 .3-.6.2-1.3 0-1 .1-1.3.5-1.4.3-.1.7-.6 1-1l.8-1.3c.3-.4.3-.6.1-1.2l-.6-2.1c-.3-1.5-.2-2.6.7-4.5.4-.8.4-1 0-1.8-.5-1-1.6-2.2-2.6-2.5-.7-.3-.7-.4-.7-2 0-1 0-1.8-.3-2.1-.4-.5-.8-.3-.8.3 0 .3-.1.6-.3.7-.6.2-.8 2.6-.4 4.6.3 2 .6 2.8 1.5 3.7.5.5.6.8.4 1.7 0 .9 0 1.3.3 1.5.5.4.5 1 0 1.2-.2.1-.4.9-.5 2.3a9.7 9.7 0 0 1-.4 2.5c-.2.1-.3.6-.4 1 0 .6-.3 1-1.3 1.4-.7.4-1.6 1-2 1.6a22 22 0 0 1-2.2 2.5c-1.6 1.4-1.6 1.5-1.8 3.3-.3 2.7-1 3.8-3.6 5.8-3.8 3-3.6 4 .8 4 1 0 1.7-.1 2.6-.6zm-42.3-.2h19.3l.8-.6c1-.9 2.4-1 3.5-.5 1 .6 2.3.5 2.3-.2 0-.8.6-1 1.3-.6l1 .4c.8 0 .5 1-.2 1-1 .2-.6.6.9.7 2.8.4 5.4-.3 6-1.5.3-.5 1.5-1.6 2.7-2.5 1.7-1.3 2.4-2 2.8-2.8.5-1 .7-2.5.3-1.9-.1.2-.8.4-1.5.4l-1.3.1v1c0 1 0 1.1-1.2 1.3-.9.2-1.1.4-1.1.9 0 1-.5 1.2-2.3 1.2-1.9 0-3.3-.5-3.8-1.3-.4-.8.3-1.2 2.2-1l2 .2c.3 0 .4 0 .4-.4s.4-.7 1.2-1.1c.8-.4 1.3-.9 1.4-1.2.1-.7 1.5-1.1 3-1 1.2.2 1.2.2.6-.2-.4-.3-1.1-.4-2.6-.4-1.8 0-2 0-2.1-.4-.2-.7-3-1.3-4-.7l-2.5 1c-2.1.5-2 .5-5.9-.4-1.3-.3-2.5 0-3.3 1-.3.3-.7.6-.9.6-.2 0-.7.4-1.2.8-1.1 1-1.7 1-2 .2-.5-1-3.3-2.1-5-2a6.7 6.7 0 0 0-4.7 3.2c-1.2 2-2.9 2.8-4.5 2.3a9 9 0 0 0-1.8-.3c-.6 0-3 1.4-3.7 2.1-.7.7-1.4.7-1.8 0a.9.9 0 0 0-.8-.4c-.3 0-.7-.2-1-.5-.3-.6-.3-.7.5-1.4.7-.7 1-1.4.7-1.4l-2.7 1.6c-2 1.3-3 1.7-4.4 2-2.7.6-8.4 2.6-8.2 2.8a695 695 0 0 1 21.7-.1zm11.2-2c-.2-.8 0-1.3.5-1.3s.7 1 .3 1.4c-.4.6-.7.5-.8-.1zm17.8 0c-1.3-.4-2.9-1.3-3.2-1.9-.7-1.3-.1-1.3 2.3-.1 1.3.6 2.2 1 3 1 1.4 0 2 .2 1.8.8-.2.3-.5.4-1.7.4-.9 0-1.8 0-2.2-.2zm-27-.5c0-.4.7-.7 2-1 .8 0 1.5-.4 2-1 .9-.8 1.2-.8 3.8-.1 1.9.5 1.8.9-.2 1.1l-3.5.6c-3 .6-4.1.7-4.1.4zm14.3-1.3c0-.8 1.6-1.2 2-.6.3.5-.4 1-1.3 1-.5 0-.7 0-.7-.4zm-2.7-1.1c0-.3.2-.6.3-.6.2 0 .3-.1.3-.3 0-.2.1-.5.4-.7.3-.3.4-.2.8.3.3.6.3.8 0 1.2-.4.8-1.8.8-1.8 0zm5.7 0a.6.6 0 0 1-.4-.4c0-.5.4-.5 1.3-.3.3.1.6.4.6.6 0 .3-.9.4-1.5.2zm-93.8 4c0-.4 0-.6-.2-.6s-.3.3-.3.7c0 .4.1.6.3.5l.2-.7zm132.8 0c1-.6.7-.8-1-.6-1.3 0-1.8.3-1.8.9 0 .3 2.2.2 2.8-.2zm2.4-.7c0-.4-.1-.7-.4-.7-.4 0-.4.1 0 .8.3.7.4.7.4-.1zm-1.6-1 1.2-.6c0-.2-.8-.3-1.9-.4-1.7 0-2 0-2.6.6-.3.4-.6.8-.5 1 .3.4 2.2.1 3.8-.5zm3.2.2c0-.4 0-.7-.2-.7-.3 0-.4.9-.1 1.2.3.3.3.2.3-.5zm.6-2.5c1-.8.3-1-1.2-.2l-1.4.7h1c.6 0 1.2-.2 1.6-.5zm1-2.6c.4-.3 0-.4-1.6-.3-2 .1-3 .4-2.4.7.5.3 3.7 0 4-.4zm-10-.7c-.2-.1-.4-.2-.5 0l.2.4h.5l-.2-.4zm12-1.5c0-.3-.1-.2-.1.1 0 .3 0 .5.1.4v-.5zm-34.5-2.5a35.2 35.2 0 0 1 9-.5c1 .5 1.1.5 2.3-.3 1.5-1 2.6-2.7 2.2-3.3-.3-.6-.2-.8.7-.8 1.1 0 2.7-1.6 2.7-2.6 0-1.1-.4-1.2-2.6-.8-2.7.4-3.4.9-4.4 3-1 1.9-1.5 2.2-4.1 2.9-1 .2-1.2.4-1.3.9 0 .5-.2.6-.8.4a18 18 0 0 0-4-.1c-.3 0-.5.2-.5.4s-.2.5-.5.6c-.7.2-1.1.6-1 .9.1.2.3.2.5 0l1.8-.7zm6-2 .3-.3c.2 0 .3.2.3.3 0 .2-.1.3-.3.3a.3.3 0 0 1-.2-.3zm12.2 2s0-.2-.2-.3l-.3.1c0 .2.1.3.3.3h.2zm18-2.8-.2-.2c-.2 0-.3.1-.3.4 0 .2.1.3.3.2l.2-.4zm-34.1-.9c0-.6-1.9-1-3-.4-.6.2-.5.2 0 .3 2.3.6 3 .6 3 .1zm4.2-.6c.8-.2 1.3-.5 1.3-.7 0-.3-.3-.4-1.7-.2-2 .1-2.3 0-2.6-1.4l-.2-.8 1.1.2c.7.1 1.3.4 1.5.6.4.5 1.8.5 2 0 .3-.6.3-.7-.2-.7-.2 0-.7-.2-1.1-.5l-1-.5c-.2 0-.4-.2-.5-.3 0-.2-.5-.4-1-.4s-1-.3-1.1-.4c-.2-.1-.5-.3-.8-.3-.5 0-.5 0 0 .7l.4 1 .3 1.1c.5 1 .6 2 .1 2l.2.5c.6.7 1.4.7 3.3.1zm-8.2-2c1-.6 1.9-1 1.9-1.2 0-.2.3-.3.6-.3.8 0 .9-.3.4-.8-.3-.2-.3-.4 0-.8.2-.4.2-.5-.4-.6-1-.3-2 0-2 .8 0 .5-.3.8-1 1-.4 0-.9.5-1 .8-.2.4-.5.6-.7.6-.4 0-1 .8-1 1.4 0 .4.7.2 3.2-1zm3.6.7v-.7c-.4-.3-1.8.2-2.3.8-.2.3 0 .3 1 .3.8 0 1.3-.2 1.3-.4zm23.1-1.2c0-.1 0-.2-.2-.2s-.3.2-.3.4.1.3.3.2l.2-.4zM149 107c0-.4-.8-1.4-1.1-1.4-.4 0-.3.5.2 1 .4.6.9.7.9.4zm-12.9-4-.4-1.7c-.4-1.9-.5-2-.8-1.5a10 10 0 0 0 0 4.5l.4.6.5-.7c.3-.4.4-.8.3-1.1zm-19.4.2c.5-.5.7-1.6.3-1.6l-1.1.8c-.7.7-.8.9-.5 1 .5.4.7.4 1.3-.2zm-4.7-2.3c-1.4-1.4-2.5-2-1.9-.9.2.3.6.6.8.6.3 0 .7.6 1 1.2.5 1 .6 1 1 .8.5-.2.4-.4-.9-1.7zm-104.8.5c.5-.5 1.2-.5 3 0 1.3.2 4 .3 5 0 .2 0 .4-.3.5-.6.1-.5.3-.6 1.3-.4 1.7.3 2 .3 5.5-.7 2.9-.9 3.6-1 6.4-1 1.7 0 3.2-.2 3.3-.3l1.3-.2c2 0 2.9-.8 1.8-1.5-.6-.3-5.8-.3-6.6 0l-.8.6c-.3.4-3.3.6-3.9.2-.1-.2-.7-.4-1.2-.5-.5-.1-1-.4-1-.6A45.8 45.8 0 0 0 5 97.5l-.9.2v2c0 1.2.1 2.1.2 2.2.2.3 2.4-.1 2.8-.5zm5.4-.3c-.3-.6.1-.8 1.4-.7 1.6.1 1.6.1 1 .5-.6.5-2.2.6-2.4.2zm101.9.3c0-.3.4-.7.7-1l.5-.6h-.5c-1 0-1.4.2-1.4 1.2s.4 1.2.7.4zm4-2c0-.4-1.3-.1-1.7.2-.7.8-.4 1 .7.4l1-.7zm-4.2-.5c0-.3-.2-.6-.4-.6-.1 0-.3.3-.3.6 0 .4 0 .6.3.6s.4-.2.4-.6zm22.9-.5-.1-.2c-.2 0-.3 0-.3.2l.1.3.3-.3zm-1.3-.2c.1-.3-.6-1-.9-.7-.2.2.1 1 .5 1l.4-.3zm-97.3-1c.3 0 .6-.3.6-.5 0-.3-.2-.4-.6-.3l-1 .3c-.3.1-.5.3-.4.4.2.3.5.3 1.4.1zm6.1-1.5c0-.5-.2-1-.5-1.2-.4-.3-.7-.9-.9-1.4-.2-.5-.5-1-.7-1-.2 0-.3 0-.2.3.3.8-.3.8-1.1 0l-1-.6c-.4 0-.8-1.6-.7-2.3.3-1 .8-.7.7.5-.1 1 0 1 .3 1s.7-.6.9-1.1c.3-1 .3-1 0-.9-.6.2-.8-.3-.5-1.2l.4-1.7.2-.8-.5.8c-.4.7-.9 1-.9.4s.8-1.8 1.2-1.7c.2.1.4-.3.6-1 .3-1 .2-1.9-.1-1-.1.2-.7 1-1.3 1.5-1.3 1.2-1.3 1.4-1.6 4.3 0 1.1-.2 2-.4 2.1l-.2.6c0 .3-.1.5-.2.5-.4 0-.9-.6-.9-1.1 0-.3-.1-.5-.2-.5-.6 0-.3 1 .5 1.7.5.4.8.8.7.9-.3.3-1.8-.5-2.2-1.3-.2-.5-.5-.7-.8-.6-.9.4-.2 1 2.7 2.5 2.2 1.1 3.1 1.8 3.3 2.4.2.4 2.5 1 3 .8.3 0 .4-.4.4-.9zm-38 .2a7 7 0 0 1 2.8-.4h1.9c-.3-.3-5-.5-6-.4-.9.2-1.2.3-1.2.7 0 .4.2.5 1 .5l1.6-.4zm20.1.2c.5-.2.7-.5.7-1 0-.3.3-.8.5-1 .7-.5 2-3.2 2-4.4 0-1 .9-3.4 1.6-4 .6-.5.7-.3.2 1.4l-.5 2.3c0 .8 0 .7.9-1a34.8 34.8 0 0 0 2-5.2c.2-.4 0-.3-.5.3-.7.7-1.1.6-.8-.3.2-.5 2.6-2.3 2.8-2.1 0 0 0 .3-.3.5s-.4.5-.3.7c.2.4.6.3 1-.3l.8-.5c.4 0 .5 2.8.1 3.5-.3.6-.3.6.3 0 .3-.2.5-.5.5-.7 0-.4 2.4-5 3-5.8 1.2-1.5 1.6-1.8 1.8-1.6.2 0 .1.4-.1 1-.4.6-.4.7 0 .7.5 0 .5.6 0 1.6-.5.9-.3 1 .5.7.4-.2.6-.4.5-.7 0-.2.2-1 .7-1.7.5-1 .7-1.5.5-1.7-.2-.2.2-.6 1.2-1.2.8-.6 1.6-1 1.7-1 .6 0 .2.5-1 1.3-1 .6-1.3 1-1 1.1.2.2.2.4 0 .9-.5 1 0 1 .9.1.4-.4.8-.7 1-.7.3 0 1.2-.8 1.2-1.2 0 0-.3 0-.7.3-.8.7-1.2.7-1.2.3 0-.5 3-2.4 3.3-2.1.2 0 .7-.2 1.2-.7l.9-.8h-4c0-.2.6-.5 1.3-.9 1.5-.6 3.3-.5 3 .2-.2.5.5.5 1 0 .1-.2 1-.5 2-.6 1.8-.1 2-.2 2-.8 0-.3 0-.9.2-1.3.3-.9-.1-1.5-1-1.4-.3.1-.6 0-.6-.1s-.4-.2-.9-.1c-3 .5-4 .6-6 .4-1.8-.1-2-.1-2.3.3-.3.4-.7.5-1.9.5-1.8 0-3.2.4-3.6 1-.3.4-.7.5-2 .5a6 6 0 0 0-2 .3c-.5.3 0 .4 3.1.5.7 0 1.3 0 1.3.2s-.7.5-1.5.8c-1 .3-1.8.7-2 1-.3.2-.2.3.2.1l1.3-.3c1.4-.3.7.4-1 1-1.5.5-2.3.5-1.5-.1.3-.2.4-.5.3-.7 0-.2.1-.6.4-.7.8-.6.2-.8-1.4-.4-1.3.3-1.7.5-2 1-.2.6-.2.6.9.5.8-.2 1-.1 1 .2 0 .2-.2.4-.5.4l-1.5.4c-.9.4-1 .4-1.3 0-.2-.3-.4-.3-1.1.4-1 .8-1 1-.6 1.5.3.3.3.4 0 .7-.1.2-.2.6-.1.8.2.5-.2.9-1.7 1.5-1.2.5-1.4.7-1.2 1.2.1.5 0 .7-.6 1-1 .3-2.5 1-2.7 1.3-.3.5.2.5 1.5-.2 1.5-.7 1.6-.8 1.6-.4 0 .2-.6.6-1.3 1l-2 1c-.4.3-.6.7-.6 1 0 .4 0 .3 1.3-.4 1.1-.7 1.4-.8 1.6-.5.2.4.4.2 1-.6l1.1-1c.5 0 .2.7-.9 2-.9 1-1.2 1.2-1.7 1.1-.5-.1-.9 0-1.7.9-.6.6-1.2 1-1.4 1-.2 0-.4.2-.4.3l-.2.7c-.3.8 0 6 .2 6.4.5.5 2.5.7 3.5.4zm.6-3.7c-.1-.3 1.2-2.8 1.6-3 .5 0 .5.3-.2 1.9-.6 1.2-1 1.6-1.4 1.1zm-1.3-1.7.8-1.3 1.5-2c.9-1.3 1.5-1.7 1.5-1 0 .5-1.4 2.6-2.3 3.5-.3.3-.6.7-.6 1 0 .2-.2.4-.5.4-.4 0-.5-.2-.4-.6zm-1.5-.4c0-.4 1.6-1.8 1.8-1.6.2.3-1 1.8-1.4 1.8l-.4-.2zm-1.3-.6c0-.1.4-.6 1-1 1-1 1.6-.7.6.3-.6.7-1.6 1-1.6.7zm6.6-5.3c.3-.6 2.1-2.1 2.5-2.1.2 0 0 .2-.2.4l-.4.5c0 .2-1.7 1.7-2 1.7l.1-.5zm1-4.2c0-.3.8-.8 1.7-.9 1-.1.8.4-.4.8-1.3.4-1.2.4-1.2 0zm6.2-.5c0-.1.4-.7 1-1.2 1.2-1.3 1.7-.9.5.5-.7.8-1.5 1.2-1.5.7zm-1.6-1c0-.4.6-1 1-1 .6 0 .7.3.2.8-.4.4-1.2.5-1.2.1zm-1.4-2c0-.3 1.2-.8 2.2-.8a8 8 0 0 0 2.5-.9l2.2-1c.9 0 .6.8-.3 1-.4 0-1.3.4-2 .8-.7.3-1.8.7-2.5.7l-1.6.4-.5-.1zm6.7-.4c0-.4 1.3-1.2 1.5-1 0 0-.1.4-.4.7-.7.5-1.2.6-1.1.3zm1.7-1.7c-.3-.5 3.4-2 3.9-1.6.3.3-.8 1-1.4 1.1l-1.4.4c-.6.2-1 .2-1.1.1zm1.3-2.9c.4-.3 2.6-.8 2.9-.6.1 0 0 .3-.3.5-.5.4-3 .5-2.6.1zm1-1.3c-.1-.3.1-.5 1.4-.7l1.3.1c.2.4 0 .5-1.5.7l-1.1-.1zm11.6-.4c0-.3-.2-.3-.7-.1-.8.3-.9-.2-.1-.6l.5-.1.5-.1c.5-.3.6-.2.6.5 0 .5-.2.8-.4.8a.4.4 0 0 1-.4-.4zm-7-.4c0-.2.5-.3 1-.3s1 .1 1 .3c.2.1-.2.3-1 .3-.7 0-1.1-.2-1-.3zm2 25.8 3.2-.3c2.7-.2 4.1-.6 4.1-1.1 0-.3.2-.6.4-.8.2-.3.2-.3-.2-.3-.2 0-.5.2-.6.4-.2.4-.6.5-1.5.4-2.3-.2-4.5 0-5.3.2-.9.3-1.3 0-1.1-.9v-.7l-.7-.1c-.4-.2-1 1.4-1 2.6 0 .7.8 1.4 1 1l1.8-.4zm11-.3c.2-.8.2-.9-.3-.9-.3 0-1 .3-1.4.7-.6.5-.7.7-.4.9l1.2.2c.7 0 .8-.2 1-1zm-22.9.2c.4-.2.1-.6-.8-.9-1.1-.3-3.7-1.7-4-2-.1-.4-.8-.4-.8 0 0 0 .2.4.6.7.7.7.4 1-.6.6-.9-.4-1-.3-2.8 1.1l-.8.7 2.8.1c2.8 0 6 0 6.4-.3zM73 95c0-.9-1.6-1.2-2.3-.6-.2.3-.6.4-.8.3h-.7c-.1.2.4.3 1.3.4l2 .2c.3 0 .5-.1.5-.3zm-53.8-.2c.7 0 1.7 0 2 .2.8.1.8.1.5-.4-.1-.3-.5-.6-.7-.6-.3 0-1-.3-1.4-.8-1-.7-1.6-1-1.6-.5l.3.4c.4.3 0 .7-.6.6h-.6c-.1.2-.4.3-.6.3-.3 0-.4-.1-.2-.6.1-.6 0-.7-.9-.9a16 16 0 0 1-2-.5c-.7-.3-1-.2-1.6 0-.4.3-1 .4-1.2.3-.3 0-.9 0-1.4.3a8 8 0 0 1-2.5.4c-1.3 0-1.7 0-2 .5-.5.5-.5.6-.2.8.7.4 2 .3 2.3-.2.2-.3.6-.4 2.4-.2 3.7.2 5.6.5 6 .9.2.2.7.3 1.5.2l2.5-.2zm46-.8c.1-.1-.1-.2-.5-.2-.3 0-.7 0-.8.2 0 .2.1.3.5.3s.7-.1.8-.3zm12.5-.2c-.2 0-.4-.2-.4-.5 0-.2-.2-.3-.4-.3l-.4.1c0 .3.9 1 1.3.9.3 0 .3 0 0-.2zm-8.9-.6c.3-.1.7-.2 1 0 .4.1.4-.2 0-.8-.3-.5-.4-.5-1.8 0a77.1 77.1 0 0 1-2.4 1.1c0 .3 2.6 0 3.2-.3zm-24.2-1.4.3-3.3.7-3.2c.3-1.6.8-2.5 1.2-2.3.2.1.3 0 .4-.2.2-.5.2-2.5 0-2.5a1 1 0 0 0-.9 1c0 .5 0 .6-.8.4l-.8-.2v2.1c0 2.3-.2 4-.5 4-.5 0-.6-.7-.2-1.9.3-.8.3-1.2.1-1.6-.1-.2-.2-.9 0-1.3 0-.6 0-1-.2-1-.5 0-1.3.6-1.2.9a9 9 0 0 1-.4 2.5c-.6 2.3-.6 3.4 0 1.3.6-2 1-2 1-.2 0 1.2-.2 1.7-.5 2-.2.2-.5.8-.6 1.3 0 .6-.2 1.2-.3 1.4 0 .2 0 .4.3.4.2 0 .4-.4.5-1 .2-1.1.7-1.1.7 0 0 1 .7 3.1 1 3.1.1 0 .2-.7.2-1.7zm36 1.5c1.1-.1 1.4-.6.3-.6-.3 0-1.2-.3-1.9-.7-1.2-.7-4-1-4.5-.6-.4.4 1 1.3 1.9 1.1.6 0 1 0 1.5.4.8.7.9.7 2.6.4zm-27-.6c-.2-.6-.3-.6 1.4 0 1.6.6 2.7.7 2.2.2l-.3-.5c0-.3 3.5 0 3.8.4.2.2.7.3 1.5.1l2.3-.4c1.6-.2 1.4-.5-.3-.5-1.1 0-1.6-.1-1.8-.5-.3-.3-.5-.4-.9-.2-.2.2-.8.2-1.3 0a7 7 0 0 0-2.1.1l-3.4.2c-1.6 0-2 0-2.2-.4l.1-.7c.1-.2.2-1 .1-2 0-1.3-.2-1.6-.5-1.6-.6.1-.8 1.5-.3 2 .3.4 0 3-.3 3s-.3-.3-.3-1.4c0-.9-.2-1.8-.5-1.8-.4 0-.8 1.1-.5 1.5.1.2.2.7 0 1.2 0 .7 0 .8.4.6.3-.1.4 0 .5.4.2.5.3.6 2.2.8.2 0 .3-.1.2-.5zm116.7 0c1-.4.5-.8-.5-.5l-1.1.5c-.4.4.7.3 1.6 0zm-149-1.8c0-1.1 0-1.3-.4-1.4a.7.7 0 0 1-.5-.7c0-.8-.7-1.2-1.7-1-1.1.2-2-.2-2.6-1.2-.5-.7-.5-.8 0-1 .5-.3.5-.3-1-1.3-.7-.5-1.2-.7-1.3-.6 0 .2-.3.3-.6.3-.6 0-.6 0 .2 1.7.5.9 1 1.4 1.2 1.4.3 0 .8.5 1.3 1.1.6.7 1 1 1.5 1 1 0 1.2.2 2.3 2 .5.9 1 1.5 1.2 1.3l.4-1.6zm63 1.4h-.5c-.2 0-.1.1.2.1.3 0 .4 0 .3-.1zm39-.6c0-.5-.6-1-1.8-1.2-.4-.2-.6-.1-.6.2 0 .5.7 1 1.1.8.3 0 .5 0 .6.3.2.5.7.5.7-.1zm53.3 0c2-.5 2.5-.9 1-.8-1.8 0-3.3.3-3.4.7-.2.4.4.4 2.4 0zm-168-.3c0-.2-.3-.3-.5-.3-.4 0-.8-.7-.5-1 0-.3-1-.7-1.1-.5-.2.2 1.5 2 1.9 2 .2 0 .3 0 .2-.2zm8.9-.1c0-.2-.4-.7-1-1a4 4 0 0 1-1.2-1c-.1-.3-.5-.6-.7-.6-.7 0-1.5-1-2-2.3a6 6 0 0 0-.7-1.6l-.5-.7.3 1c.2 1 .2 1.1-.3 1.5l-.5.3.6.9c1.4 1.8 1.9 2.2 2.3 2.3.2 0 1 .3 1.7.7 1.5.9 2 1 2 .5zm65.5 0c.7 0 .8-.2.2-1-.3-.3-.8-.5-1.5-.5-.5 0-1-.1-1-.3 0-.1-.8-.3-1.7-.4l-1.6-.1 1 .6a4 4 0 0 0 1.2.6c.3 0 .6.3.8.7.3.7.5.8 1.2.6l1.4-.1zm1.7-.2-.3-.4c-.1 0-.3 0-.3.3 0 .2.2.4.3.4.2 0 .3-.1.3-.3zm-28-.3c.5 0 .4 0-.3-.5-1.2-.6-1.6-.6-1.6 0s.3.9.9.7l1-.2zm7.6-2c.2 0 .3 0 .3.4 0 .6.5 1.1.7.6.2-.5.7-.3 1 .3.2.5 1.4 1 1.4.6 0-.5-3.5-3-4.3-3-.4 0-.3 2.5.1 3s.4.4.5-.5c0-.6.2-1.2.3-1.3zm21.7 2c0-.3-.2-.4-.4-.3-.2 0-.3.3-.2.4.2.4.6.3.6-.2zM9.4 90c-.8-.7-1.5-.9-1.5-.5 0 .3 1.6 1.1 2 1.1l-.5-.6zm44.7-.2.3-2.8c0-2 0-2.3-1-1.5-.5.2-.5.4-.2.9.1.3.3.8.2 1.1-.2 2.4.4 4.3.7 2.3zm78.2-.2c0-.6-.1-.8-.9-1l-1.3-.5c-.7-.3-.5.3.6 1.4 1.2 1.3 1.6 1.3 1.6 0zm-69.8.4c0-.2-.2-.4-.3-.3-.2.1-.2.3-.1.4.2.4.4.3.4-.1zm11.1-.7c-.4-.5-.4-3.3 0-3.7.4-.2.5 0 .5 1.1.1 1 .2 1.4.5 1.4s.4.3.5.7c0 .6.5 1.1.9.9.3-.2.3-1.1 0-1.3a153.4 153.4 0 0 0 .8-16.7c-.1-2-.1-2-.4-1l-.6 1.6c-.2.3-.3 2.7-.4 7.6l-.1 7.3-.4-.1c-.3-.2-.3-1.8-.1-6.3l-.1-6c-.3 0-1 .8-1.3 1.4l-.2 5.1c0 2.6-.2 4.7-.3 4.8-.4.4-.6-1.5-.5-4.5v-3.4l-.5.8c-.1.4-.3.8-.5.8l-.2.4c0 .2-.4.8-.8 1.3-.4.4-.9 1.3-1 2-.3 1-.3 1.1.7 2.7l1 1.7v-1.3c0-.8 0-2-.2-2.8-.2-1.5 0-2.8.4-1.9l.6 4c.4 3.8.9 4.9 1.6 4.1.3-.3.4-.5.1-.7zm-12.3.4c-.5-1.3-.7-4.6-.2-4.6.1 0 .3.8.4 1.8 0 1 .3 2 .5 2.1.3.3.4 0 .5-1.8.2-3.2 0-3.7-2.3-4.4l-1.8-.6-1.1.6-1.2.7-.6.8c-.7.8-.9 3.8-.1 4.6 1 1 1.2.6 1.2-1.8 0-3.7.6-2.6.9 1.6 0 1 .1 1 .7 1 .7 0 .7 0 .7-2 .1-2.5.3-3.4.6-3.4.2 0 .3 1 .3 2.1 0 2 .3 3 1 3.5.4.4.7.2.5-.2zM78 90l-.6-.4c-.5-.1-.7.1-.3.4.2.3.9.3.9 0zm11-1c-.3-.3-.6-.4-.9-.2-.5.2-.5.2 0 .3.3 0 .7.2.8.4.5.4.6 0 .1-.5zm89 .3c.4-.1.5-.3.5-1s-.2-1-.7-.5l-1.7.7c-1 .3-1.6.6-1.6.8 0 .3.3.3 1.4.2l2-.2zm-168.5-1c-.5-.5-1-1.2-1.2-1.6-.3-.8-.7-1-.7-.3 0 .4.9 1.6 1.8 2.4 1 .9 1 .5 0-.5zm28.5 1 .3-.9c.3-1-.1-1.3-.7-.4-.4.6-.4 1.4.1 1.4h.3zM49 88a3 3 0 0 0-1.1-.6l-.8-.2.9.7c1 .7 1.7.7 1 0zm36.6.5c0-.2-.8-.3-1-.1 0 .1.1.2.4.2h.6zm-17.2-.4c0-.1-.3-.3-.6-.3-.2 0-.5.2-.5.3 0 .2.3.3.5.3.3 0 .6-.1.6-.3zm-45.3-3 .3-1.4c.3-.9 3-4.6 3.8-5 .9-.8.9-.8-3.5-4.2-2.3-1.9-2.9-2-4.5-1-.8.4-.9.5-.7 1.6.1 1.2.8 2.7 1.2 2.7.1 0 .5-.8.8-1.7a7 7 0 0 1 .8-1.9c.5-.3.2 1-.4 2.6a6 6 0 0 0-.6 2.1c0 .5.3.2 1-1.2.4-1 1-1.8 1-1.8.4 0 .4 0-.4 2-.4.8-.8 2-.9 2.7-.1 1-.2 1-1.1 1-.8 0-1 .2-1.4.8-.6 1-.5 2.2.1 2.4.3 0 .6.3.6.4l1.3 1.6 1.4 1.4.6-1.3.6-1.9zm-1 .2c0-.2 0-.4.2-.4s.3.2.3.4-.1.4-.3.4l-.2-.4zm0-1.3c0-.5-.1-.5-.8 0-.3.1-.6.2-.7.1-.2-.2 1.8-5.9 2.3-6.2.5-.3.4.4-.3 2.2-.8 1.8-.8 2.5-.3 2.5l.6-.8c.1-.5.5-.8.7-.8.4 0 .4-.2-.3 1.7-.6 1.5-1.2 2.2-1.2 1.3zm2-4.2c.1-1 .4-1.7.8-1.7s.5.7 0 1.7c-.2.8-.7.8-.7 0zm-.4-2c0-.2 0-.3.2-.3s.2.1.2.3l-.3.3-.1-.3zm.1-1.2c-.3-.3-.2-.7.3-.7.2 0 .4.2.4.4 0 .4-.4.6-.7.3zm-4.5-1.9c-.2-.2.1-.9.4-.9.3 0 .3.7 0 1h-.4zm50.3 12.8c0-.2-.1-.1-.1.2v.3c.2 0 .2-.3.1-.5zm10.1 0c0-.1 0-.2-.1-.1-.1 0-.6 0-1.1-.2-1.2-.5-1.7-.5-1.7 0 0 .4.5.6 2 .6.6 0 1 0 1-.3zm7 0c0-.4-1.8-1.3-2-1-.1.2 0 .5.1.8.4.6 1.8.8 1.8.2zm-20 0c.7-.3.8-.7.1-.7-.7 0-1.4.3-1.2.5.2.3.3.3 1.1.1zm17-.2c0-.4-.6-.6-1.2-.4-.4 0-.4.1.2.4.8.3 1 .3 1 0zm4-.2c0-.2-.1-.3-.3-.3-.1 0-.2.1-.2.3 0 .1 0 .2.2.2s.3-.1.3-.2zm-52.1-1.2L36 84c.2-.6.2-.7-.2-.6-.5 0-1.5 2.3-1.5 3.2 0 .8.6.5 1-.7zm14.3.9c0-.2-.2-.3-.3-.3-.2 0-.3.1-.3.3 0 .1.1.3.3.3l.3-.3zm-45.5-.6C4 86 4 86 4 86.2c0 .3.3.6.5.4l-.2-.4zm61.7 0c1-.3.6-.7-.5-.7-1 0-1.3.2-.9.7.4.4.5.4 1.4 0zm-60.3-1c-.2-.8-1-1.7-1-1.1 0 .4 1 2.2 1 2v-.9zM84 86l-.3-.4a.4.4 0 0 1-.2-.5c.1-.2 0-.5-.1-.8-.4-.7-1-4.2-.8-4.6.1-.1.2-1.5.1-3 0-1.9-.2-2.6-.4-2.6-.5 0-.8 5.6-.4 7l.4 2c0 .6.3 1.1.5 1.2.3.1.3.3.1.6-.2.4-.1.6.2 1 .4.4.9.5.9.1zm2.1-.2-.6-.9c-.6-.9-1-.9-1.2 0 0 .4 0 .5.3.4.3-.1.4 0 .4.3 0 .2.3.4.6.4s.5 0 .5-.2zM6.9 84c-.4-.9-.8-2-.9-2.6 0-1 0-1 .6-1 .4 0 .9 0 1.1.2l.5-.1c0-.2-.3-.3-.6-.4-1-.3-2-3-1.5-4 .3-.7.1-2-.3-2s-.7 7.5-.3 7.8c.2 0 .4.4.5.8.1.8 1.4 3.1 1.6 3L6.9 84zm44.5.4c.5-.2.4-.2-.8-.2-.7 0-1.6.1-2 .3l-.7.4 1 .4c1 .4 1 .4 1.4-.1l1-.8zm28.8 1.1a9 9 0 0 0-.6-1.5l-.6-1.3-.2.7c-.1.4-.4.7-.5.7-.3 0-.3-1.1 0-1.4.2-.2.3-.9.4-1.6a280.2 280.2 0 0 1 .6-8.2l.2-5.8c0-1.6.2-2.4.4-2.6.5-.2.2-.6-.3-.4-.7.3-1 2.2-.9 5.3.3 4-.3 7.5-1 6.7-.2 0 0-.6.2-1.1.5-1.5.4-6.4-.1-6.8-.3-.2-.5-.6-.6-.9 0-.4-.1-.4-.3.3a27.4 27.4 0 0 1 .3 9V78c.5-.7.6 0 .4 3.4l-.2 3.6.8.2c.4 0 .7.1.7.3l.6.2c.4 0 .7 0 .7-.2zM67 84.2c.3-.2.5-.6.5-.9 0-.2.5-1.3 1.2-2.2a13 13 0 0 0 2.2-4.3c0-.3-.2-.3-.6-.2a34.6 34.6 0 0 1-11.2-2.3c-.5-.2-.7-.2-1 .1-.3.3-.9.6-1.2.7-.7.2-.7.4-.5 1.3.2 1.4.6 2 1.7 2.9.5.4 1 1 1.1 1.4.4 1 2.5 1.6 4.6 1.3.9-.1 1.7-.2 1.8-.1.6.3 0 .6-1.2.6a5 5 0 0 0-1.3.1s.1.6.5 1.2L64 85l1.2-.2c.7-.1 1.5-.4 1.7-.6zm-2.4-.3c-.4-.7-.4-.8.3-.8.6 0 1.9.9 1.6 1.1-.4.4-1.7.2-2-.3zm-3.3-2.7c-.1-.1.3-.2 1-.3l3.2-.2.4.1c0 .5-4.3 1-4.6.4zm.2-1.3c3.6-.7 4.2-.8 4.3-.7v.3c-.2.3-3 .7-4.2.6h-1.4l1.3-.2zm-2-1.3c0-.2.6-.2 1.4-.1 2 .2 2 .3.1.3-.8 0-1.5 0-1.5-.2zm4-.2h.5c0 .1-.1.2-.4.2-.3 0-.4-.1-.1-.2zm1 0c.3-.2.8-.3 1.1-.3.5 0 .6 0 .3.2-.2.2-.7.3-1 .3-.6 0-.6 0-.3-.3zm-4.2-1.1c-.4-.2.3-.2 2-.2 2.2 0 2.4 0 1.5.2-1.5.2-2.6.2-3.5 0zm21 6.5c-.2-1-.6-1.2-.6-.4 0 .7.2 1 .6 1 .1 0 .2-.3 0-.6zm44.2.2v-.9c-.1-.5-.3-.5-1.5-.5l-2.3-.3c-.7-.2-2.4-.2-5.4 0-3.6.2-4.5.3-4.7.7-.3.4-1.2.4-8 .4-4.3 0-7.9.2-8 .3-.2.2-1.1.2 15 .3a260.7 260.7 0 0 1 15 0zm-117-.7c0-.7-.6-1.5-1-1.5-.5 0-.4.6 0 1.6.5.8 1 .8 1-.1zm46.4-1c1-.6 1.7-1.3 1.7-1.5 0-.2-.2-.5-.5-.7-.3-.3-.6-.9-.7-1.3-.2-1.3-1.1-2.6-1.6-2.4-.6.2-.4 1 .3 1.2l-1.2.1c-1.3 0-1.9.1-2.4.5-.9.6-1 1-.2 1 .3 0 .5-.2.5-.4s2.6-.3 3.3 0c.9.3.4.6-.8.4h-.8c.2.2.4.3.4.5 0 .1-.8.2-1.9.2-1.6-.1-2 0-2 .3s.6.4 2.4.6c3 .4 3.3.8.4.5-2-.1-2.3-.1-2.3.3s.3.4 1.8.4c2 0 2.8.2 2.5.6h-2.3c-2-.1-2.3 0-2.3.3 0 .5.4.7 2.3.7 1.6 0 1.8 0 3.4-1.2zm-14-1c.4-.9.5-1.4.3-1.3-.4 0-1.7 2.5-1.7 3 0 .8.7-.2 1.4-1.8zM92.6 83a40 40 0 0 1 10.4-.6c5.7 0 6.5 0 6.5-.3s.3-.4 1.1-.4c1 0 1 0 .8-.4-.2-.3-.3-.5 0-.7a13 13 0 0 1 4.8 0l3.5.3c2.2 0 3.2.2 3.3.4 0 .2.6.4 1.3.4 1 0 1.1 0 1.1-.9 0-.4.1-1 .3-1.3.2-.4 0-.9-.7-2.4-1.3-2.7-1.2-5 .1-6 .4-.2.9-2 1.2-3.7 0-.6-.9-.7-2.2-.2l-2.3.7-3.2 1c-1.1.4-2.6 1-3.3 1.1-1.4.4-3.4 1.7-3.4 2.2 0 .2.5.5 1.1.7.7.2 1.8.6 2.5 1s1.9.7 2.6.8c.8.1 1.3.3 1.5.6.1.3.7.5 1.3.6 1 .2 1.5.7.7.7-1 0-3.2-.5-4.3-1-4.5-2-7-2.8-8.6-2.4-1 .2-5.2 2-5.5 2.3l.2.5c.5.5.3.7-1.7 1.8L99 79.6c-1 .8-3.6 1.1-6.4 1-1.1-.2-3.4-.1-5.1 0l-3 .2v.7c0 .5 0 .8.1.7.2-.1.8 0 1.4.2 2.1.8 5.7 1.2 6.6.7zm28.8-5c-.8-.2-.5-.6.3-.6 1 0 1.6.3 1.5.6-.2.2-1 .3-1.8 0zm-6-6.4c-.2-.4.2-.8 1.2-1 1.1-.2 1.2.3.1.9-1 .4-1 .5-1.2 0zm41.8 11.1-.4-.2c-.4 0-.6.3-.3.6.3.2.7 0 .7-.4zm-10.9-.8c0-.5 0-.5-.3-.3-.1.1-.2.4 0 .6.2.4.3.3.3-.3zM4.4 81.4c0-.2-.1-.1-.1.2l.1.4v-.6zm8.3 0c-.2-.2-.3-1-.3-1.9 0-1.2-.1-1.6-.6-2l-.5-.5-.1 1.3c0 .7 0 1.8.2 2.4.2.9.4 1 1 1 .5 0 .6 0 .3-.3zm14.2.1c.2-.4-.3-.5-.6-.1-.3.3-.3.4 0 .4l.6-.3zm53.4-.6a54.6 54.6 0 0 0 .6-8.4c.4-1 .6-6 .2-6-.2 0-.4-.4-.6-.8-.2-.6-.3.2-.4 3.5L79.5 80c-.2.3.2 1.8.4 1.8.1 0 .3-.4.4-.9zm34.9.4h-.8c-.3 0-.1.1.3.1h.5zm23-.2c.3-.2.5-.4.4-.5 0 0-.4.1-.7.4-.4.3-.6.5-.4.5l.7-.4zM15.4 79.4c.2-.2.1-.4-.3-.5l-.7-.3.6-.2c1-.2.7-1-.4-1-.7-.2-.8 0-1 .5l.1 1c.2.2.3.8.2 1.2-.2.7 0 .8.3 1 .3 0 .6-.2.7-.7l.5-1zM17 81c0-.2-.1-.5-.3-.7-.5-.4-.9.1-.4.6.4.5.7.5.7 0zm78.2-1.4c2.6-.2 2.8-.2 4.3-1.2 1-.6 1.6-1.2 1.5-1.3-.4-.7.3-1.4 3.2-2.7l3.6-1.7a3 3 0 0 0 1.1-.7c.3-.2 1-.6 1.7-.8l1.4-.6c0-.2.2-.4.4-.4s1-.3 1.9-.8a29 29 0 0 1 4.3-1.4c1.5-.4 2.6-.8 2.6-1l-1.2-.3a22 22 0 0 1-2.3-.6c-2.8-.8-4.9-1.2-6.8-1.2-2 0-2.2.1-3 .8-.6.4-1.3.9-1.7 1-1.5.9-2.9 2-2.9 2.6 0 .8-1.2 1.7-4.1 3.1-3.8 1.9-4.9 2-2.7 0 2-1.6 1-1.9-2.2-.6-3.9 1.5-4.4 1.7-5 2.2-.2.2-.6.5-.8.5-.2 0-.9.2-1.5.6-.7.4-1.4.7-2.2.7h-1.2v3.2c.1.7.2.7 1.5.8 1.6.1 6.2 0 10.1-.2zm12.6-8.3c0-.3 3.7-2 3.9-1.8.2.2.2.2-1.7 1.2-1.7.8-2.2 1-2.2.6zm0-1c0-.3 2.6-1.7 3.2-1.7.4 0 .3.6-.2.7-.3 0-1 .4-1.7.8-1 .5-1.3.6-1.3.3zm58 8.4 1.5-3a11.2 11.2 0 0 0 1.5-3.2c.3-.5.3-.9.1-1.4-.2-.6-.3-.6-1.4-.5-1 .2-1.2.1-1.2-.2 0-.3.2-.4.8-.4 1.2 0 1.2-.1 1-1.2 0-.7-.2-1-.5-1s-.5.2-.5.5-.2.3-1 .2l-1.1-.2V71l-.2 5.4c-.2 2.7-.1 3.6.3 3.6.2 0 .5-.6.7-1.3zm.2-6.6c0-.2.1-.3.3-.3.1 0 .2.1.2.3 0 .1 0 .2-.2.2a.3.3 0 0 1-.3-.2zm-6.8 6.9c1.2-.8 1-1.2-.4-1-.9.2-1 .3-1 1 0 .9 0 .9 1.4 0zm-77.9 0c0-.2 0-.3-.2-.2-.2.1-.2.3-.1.4.2.4.3.3.3-.1zm-63 0c.1-.3-.5-1.9-.9-2-.5-.2-.6.4-.2 1.4.3.8.7 1 1 .6zm-8.2-1-.4-3.2c-.1-2.2-.8-3.4-1.6-3.1-.2 0-.7-.1-1-.4-1-.8-1-.5-.3.7a35 35 0 0 1 1.8 4c1.2 3 1.7 3.7 1.5 2zm38.2.6c.5-.2 1.6-1 2.4-1.7.7-.8 1.5-1.4 1.7-1.4.5 0 4.6-2.1 4.6-2.4 0-.4-.3-.3-1.3.3-.6.4-1.1.5-1.9.4-1-.2-2.4.4-2.4 1 0 .5-1.1 1.6-2.8 2.7-.8.5-1.4 1-1.4 1.2 0 .3 0 .3 1.1-.1zm97.8-1.3c0-.3 0-.5-.3-.5s-.4.3-.4.6c0 .6.6.5.7-.1zM7 76.8c-.4-.5-.5-.3-.2.3 0 .3.2.4.3.3l-.2-.6zM15 76c.3.1.5 0 .5-.2 0-.3-.3-.4-1-.4-1 0-1.1.1-1.1.5 0 .5 0 .5.6.3.3-.2.7-.3 1-.2zm145.2-.2v-1.1c-.2-.6-.3-.6-.5-.3-.3.5-.3 1.8 0 1.8.2 0 .4-.2.5-.4zm-132.5-.1c0-.2-.1-.3-.3-.3-.1 0-.2.1-.2.3 0 .1 0 .2.2.2s.3 0 .3-.2zm.3-.8c.2-.2.6-.1 1 .2.4.3.7.3.9 0 .5-.4-1.3-2-2.7-2.2-1.3-.2-1.5-.1-1.1.7.4.7.2.9-.8.5-.5-.2-.8-.5-.8-.8 0-.3-.1-.5-.3-.5-.3 0-.5-.5-.6-1.6-.2-2-.7-3.6-1-3.3l-.9 1.6-.7 1.4 1 1c.6.7 1.8 1.7 2.6 2.3 1.6 1.2 2 1.3 3.4.7zm40.4 0-1-.3c-.6-.4-1-.2-.7.3l1.2.2c.5 0 .8 0 .5-.1zM18 72.8a48.4 48.4 0 0 0 .4-6.5c.4-.3.2-1-.6-2-.7-.7-1-.9-1.5-.7-.6.3-.8 1-.3 1.5s1 .4 1 0c0-.3.2-.4.3-.4.4 0 .6.7.3 1-.3.5-.4 9.3 0 9.2l.4-2zm53.4 1.8 1-2c.4-1.1.5-1.8.3-2.8-.2-1.6-.8-2.2-2.4-2.3-.6 0-1-.2-1-.3.1-.2.7-.3 1.3-.2 1 0 1.2 0 1.2-.3 0-.4-.4-.7-1.7-1.1-.3-.1-.4-.3-.2-.4.2-.2 1.6 0 3 .7.4.1.5 0 .5-.4 0-.6-.9-1.1-2-1.1-.4 0-.6-.1-.6-.3.1-.4 1.7-.5 2.4-.1.4.1.5 0 .5-.4 0-.3.2-.6.4-.7.4-.3.3-.3-.2-.7-.3-.3-.9-.4-1.2-.4-.4 0-.6-.2-.6-.4 0-.4-2.2-2-4.2-3.3-.7-.4-.3-.6.6-.3.7.2.8.2.3-.1l-.8-.5c-1.8-.1-4.5-.7-4.5-1 .2-.6-1 0-1.3.8 0 .2-.8.8-1.6 1.3-.9.5-1.6 1.1-1.7 1.3-.2.6 1.2.3 2.1-.5 1.7-1.5 2.7-.6 1 1-.7.7-.8 1-.5 1.1.7.5 1 .3 1.4-.8.5-1.3 1-1.3 1.2 0 0 .8-1 3-2.2 4.7a18 18 0 0 0-1.2 1.8c-2.2 4-2 3.9-1.8 4.5.2.5.4.6.8.5.3 0 .8.1 1.3.6 1 .7.6.7 6.1.2 1.2-.1 2 0 2.1.1.5.5 1 .4 1-.2 0-.3-.3-.8-.8-1.2-.4-.3-.7-.7-.6-.7.4-.3 1.4.3 1.7.9.4.7.4 2.3 0 2.7l-.3.5c0 .3.8.2 1.2-.2zM66 72l-1.7-.2c-2-.1-2.3-.7-.3-.7 1 0 1.3-.1 1-.3l-1.1-.2c-.9 0-1.5-.3-1.5-.6s2 0 3.3.3c.5.2.9.5.9.7 0 .2.2.4.4.5.2 0 .3.3.2.4-.1.3-1 .3-1.2 0zm4.8-.6c0-.6-1-1.5-1.9-1.8-.2 0-.5-.3-.5-.4 0-.4.7-.3 1.7.4 1.2.8 1.2.8 1.2.2 0-.7-.9-1.4-1.7-1.4-.4 0-.6 0-.6-.2 0-.6 1.5-.3 2.3.4.9.7 1 1.5.5 1.9-.2 0-.4.4-.4.7 0 .3 0 .5-.3.6-.1 0-.3-.1-.3-.4zm-5.1-1.9-1.4-.4c-1.8-.2-2.2-.5-1.7-1 .3-.5.4-.5.6 0l1 .4c1.4 0 2.2.3 2.3.8.1.5-.6.6-.8.2zM64.6 68c-1.9-.5-2-.6-1.8-1.2.2-.5.7-.5.7 0 0 .3.6.5 3.4 1 .3.2.6.3.6.5 0 .3-1 .2-2.9-.3zm.6-1.5c-1.8-.6-2.4-1-2.2-1.3l1.2.4c.5.3 1.6.7 2.4.8.8.2 1.4.4 1.4.6 0 .3-.7.2-2.8-.5zm1.5-1.5c-1-.3-2-.7-2.2-1-.6-.5-.3-.8.4-.4l2.4 1c1 .3 1.8.6 1.8.8 0 .3-.4.3-2.4-.4zm.8-1.3c-1.4-.6-2-1.1-1.8-1.4.1-.2 4.2 1.5 4.2 1.8 0 .4-.9.2-2.4-.4zM71 62a9 9 0 0 0-1.8-.6c-1-.2-1.3-.4-1.3-.7 0-.3-.3-.5-1.5-.8-2-.4-2.1-.9-.2-.6 1.8.2 5.5 2 5.7 2.7.1.4-.2.4-.9 0zm-5.3-3.5c0-.6 1.1-.7 1.1-.1 0 .2-.3.4-.6.5-.5 0-.6 0-.5-.4zm-2.5-.8c-.3-.3-.3-.5 0-.6.5-.4 1.4 0 1.3.4l-.2.5c0 .3-.8 0-1-.3zM14.7 74.2l-.5-1c-.7-.8-.7-.8-.7-.2 0 1.2 1 2.1 1.2 1.2zm71.7-.2c1.2-.3 2-.6 2.9-1.4l1.2-1.2c0-.2-1.4-.2-3-.2-3.4.2-3.6.3-3.6 1.7l-.2 1.3c-.1.4 0 .5.5.3l2.2-.5zM5 71.8l.3-2.5c.1-1 0-1.3-.6-.7-.2.2-.4 1.3-.3 3 0 3 .3 3 .6.2zm69 .8c0-.3.1-.8.3-1 .2-.3.4-.7.4-1l.4-1.3c.3-.4.4-1 .3-1.4 0-.3 0-.7.3-1 .3-.3.3-.5 0-1-.5-.6-.5-.6-.8-.1-.2.3-.5 1.2-.6 2-.1 1.6-.6 4-1 5.5-.2.6-.2.6.2.3.2-.2.4-.6.4-1zm86.4.4c0-.1 0-.2-.2-.2-.1 0-.3 0-.4.2-.1.2 0 .3.2.3.3 0 .4-.1.4-.3zm-18-.8c0-.8 0-.8-.2-.4-.3.8-.3 1.2 0 1.2l.2-.8zm-127.2-.4c0-1-.3-1.3-1-1-.2.2-.2.4.2 1.1.7 1.1 1 1 .8 0zm18-.3c0-.4-.1-.9-.3-1.1-.2-.3-.2-.3-.2.3 0 .4-.2.9-.5 1.1-.3.4-.3.4.3.4s.7 0 .7-.7zm112.6-1-.1.7c0 .6 0 .9.1.6v-1.2zm-133.9 1c.1-.2 0-.6-.1-.9-.5-.7-.4-.8.6-.6l1 .2-.3-.8-1.1-1.4c-.5-.5-.7-1-.6-1.2l-.1-.4c-.4 0-.4.3-.5 3.4 0 2 0 2.2.5 2.2.2 0 .5-.2.6-.5zm98.7.2c0-.1 0-.2-.3-.1-.4.2-.5.4-.1.4l.4-.3zm-81.8-1.6c0-.6-.2-1.3-.4-1.4-.2-.2-.3 0-.1.6.1.5 0 1-.2 1.2a1 1 0 0 0-.1.8c.3.8.8 0 .8-1.2zm65.1.9 2.1-.6a13 13 0 0 0 4.3-1.8c0-.2-.3-.3-.7-.4l-1.5-.4c-.8-.1-1.5.3-4.4 2.3-1.8 1.3-1.7 1.7.2.9zm-11-1.4c-.2-.3-.2-.2-.2.6 0 1 0 1 .2.5.2-.4.2-.8 0-1zm-63-1c.2-.6.3-2.5 0-2.5-.5 0-1 1.7-1 3.3V71l.4-.9.5-1.4zm140.5 2c0-.3 0-.5-.2-.5s-.3.2-.3.4.1.4.3.4l.2-.4zM34.7 69.2c0-.3 0-.8.2-1 .4-.6.6.1.4 1.2-.2.9-.1 1 .5.8.5 0 .6-.2.7-1.3.1-.7.4-1.4.6-1.7.5-.6 1.4-2.7 2.2-5.1l1-2.3c.3-.2.5-.4.4-.5 0-.7 0-2.2.3-2.2.4 0 .5 7 .1 8.4-.5 1.7-.4 2.4.2 2.4.3 0 .5-.3.8-1.3.3-1.5.4-2.6.2-12.3-.1-6.6-.1-7.8.2-7.8.3 0 .4.6.4 3l.2 3.7c.2.3.3-1.5.3-4.5v-5.1l-1-.4c-.4-.2-.9-.5-.9-.7 0-.2 0-.2-.2-.1-.2 0-.3 2.5-.3 6.5 0 4.8 0 6.5-.3 7.2-.3.4-.6 1.5-.8 2.3a13 13 0 0 1-.5 1.8l-1.2 3c-1.4 3.7-1.6 4.2-2 4.2-.4 0 0-1.4 1-3.7A28.2 28.2 0 0 0 40 55c.2-.6.3-3 .2-6l.1-7c.3-2 .2-2.1-.4-3.1-.5-.8-.7-1-.9-.7a26 26 0 0 0-.6 6c0 3.3.4 10.5.6 10.6.3.1.3 2.5 0 2.9l-.5 1.1a56 56 0 0 1-1.4 3c-.6 1.2-1 2.6-1.2 3.2 0 .6-.4 1.3-.8 1.7-.3.3-.6.8-.6 1 0 .3-.2.7-.4 1-.4.4-.4.5 0 1.2.3.9.7.7.7-.5zm57.7.7 2.9-1.9c1.1-.8 2.2-1.4 2.3-1.4l.7-2.3c.3-1.5.8-3 1.5-4.4 1.6-3 2-2.9.5 0a13 13 0 0 0-1.2 3.6l-.3 2c-.2 1.2.2 1.9 1 1.9.6 0 .7-.2 1-2l.7-2.5c.5-1 .5-1 0-1-.6 0-.5-.6.6-2.5.8-1.3 1.1-1.7 1.8-1.9.5-.1.9-.3.9-.4l.6-1.7c2.1-4.5 2.4-6.1 2.4-11a33.2 33.2 0 0 0-.1-5.3c.6 0 .8 2.2.7 6a12 12 0 0 0 0 3.8c.2 0 .5-.3.8-.6.3-.4.4-.6.1-1.1-.3-.6-.3-4.3.1-8.2v-2c-.2 0-.8.4-1.5 1l-1.2 1 .1 2.7c.1 1.9 0 2.7-.1 2.7-.2 0-.3-.6-.3-1.3l-.3-2.7-.2-1.4 1.6-1.4c1-.8 1.5-1.4 1.3-1.4-.4 0-1 .4-2.8 2.1l-1.4 1.3-.7-.6-.8-.6.2 1c.2.8 0 1-1 1.9-1.4 1.1-1.8.9-.5-.4.5-.5.9-1.1.9-1.5 0-1-1-2.7-2.7-5-1.7-2.3-2.1-3.4-.8-2 .5.3.8.8.8 1l.6.8c.5.4.4.2-.3-1.1-.8-1.7-3-4-3.7-4-.3 0-.6-.5-.9-1-.5-1.1-.9-1.2-1-.2-.3 1 0 1.9.6 1.9.5 0 1.5 1.2 1.8 2.4.2.5.4 1.8.5 2.8.2 1.5.2 2.1-.1 2.8-.4.9-.3 1.1.3 2.9 1 2.6.9 4.2-.3 6.5-.4.8-1 1.4-1.4 1.6-1 .4-1.3 1.1-1.4 2.9-.2 1.4-.1 1.4.7 1.5l1.8.2c1 0 1 0 1.3-1 .8-4.6 1.1-7.6 1.4-15 0-.6.1-1 .3-1 .2 0 .3 5.8 0 7.1-.2 1.1.2 1 1.3-.2 1-1 1.4-1.3 1.4-.8l-1.4 1.6-1.3 1.5-.7 3.6-.7 4c0 .2 0 .4.2.4.6 0 1.8 1.3 1.8 1.9 0 .6-1.2 1.6-2 1.6-.5 0-.6 0-.6.7l-.2 1.6c-.2.8-.1.8.6.7 1.2-.3.5.3-.9.8-1.3.4-4.7.5-5 .1 0-.1.3-.2 1-.2 1.2 0 1.2 0 1.6-1.2.7-1.8.7-2.2 0-2-.4 0-.8.1-1 .3-.1.2-.7.7-1.4 1-.6.3-1 .7-1 .8l-.6.4c-.2 0-.7.3-1 .6-.2.3-.9.6-1.4.8a9 9 0 0 0-1.8 1.1L84.9 64c-1.2.5-1.3.6-1.3 1.5 0 2 .6 2.2 2.3.8l2.1-1.5c.6-.3 1.6-1.2 2.2-2 .6-.8 1.3-1.4 1.5-1.4.6 0 .5 0-.7 1.3-1 1-1.4 1.7-.6 1 1-.7.5.2-.8 1.9-1.7 2-2.4 2.4-1 .5.5-.6.7-1.2.6-1.2-.2 0-.9.4-1.6 1-.7.6-1.4 1-1.5 1a4 4 0 0 0-1 .8c-.7.6-1 1-1 1.7l.2 1c.3.4 7.3 0 8-.4zm-3.5-1.7c0-.3.1-.6.3-.6l.2.6c0 .3 0 .5-.2.5s-.3-.2-.3-.5zm4-1c0-.2.5-.7 1-1.3.6-.6 1-.9 1-.7 0 .2-.3.7-.8 1.3-1 .9-1.2 1-1.2.7zm-1.6-.3c0-.3 2.5-2.8 3-3 .6-.2 0 .6-1.4 1.9-.9.7-1.6 1.2-1.6 1zm4.8-1.3c.1-.2.3-.3.4-.2.2.1-.2.6-.5.6-.2 0-.2-.1 0-.4zm5.8-8.3c0-.2.5-.8 1-1.3 1.2-1.2 1.4-1.6.6-1.6-.8 0-.8-.2.3-2.2.4-.7.6-7.8.4-10-.1-1.4.5-1.1.7.3 0 .7.3 1.9.6 2.6.2.8.3 1.6.2 1.8-.2.5-.2.5-.3 0-.3-1.2-.6-.1-.7 2.8 0 1.8-.2 3.5-.3 3.7v.5c.4 0 1.4-3.3 1.6-5.2l.2-1.7c.8-.7 0 4.8-1 7.7-.5 1.2-.8 1.8-1 1.6-.3-.3-.6 0-1.5.8-.5.5-.8.6-.8.2zm.1-5.6.4-4.3c.2-3 .7-3.4.6-.5-.1 2-.8 6.2-1 6.4-.1.1 0-.6 0-1.6zm-5.3.6c-.2-.3.5-4 .8-4v1.8c-.2 2-.5 2.7-.8 2.2zm8.1-11.7c.1-.2.3-.4.5-.4.2-.1.3 0 .2.2 0 .2-.2.4-.4.5-.2 0-.3 0-.3-.3zm-6-2c-.1-.3-.6-3.2-.6-4 0-.3.1-.6.3-.6.5 0 1.2 4.2.8 4.6-.2.1-.3.1-.4 0zm2.8 31.4c.5-.4.6-.6.3-.8-.1-.2-.3-.3-.4-.2l-.7.8c-.7.9-.2 1 .8.2zM6.7 68.7v-1.2C6.4 67.5 6 69 6 70s.5 0 .6-1.3zm23.1.8-.1.4c0 .3 0 .5.1.3v-.7zm-15.2 0c0-.2 0-.9-.3-1.6-.5-1.4-.7-1-.4 1 .2 1 .5 1.2.7.6zm10-1a6 6 0 0 1-.2-1.6c0-.4-.2-.8-.3-.8-.2 0-.3.3-.2.8l.4 1.8c0 .8.2 1.1.4 1 .2-.2.1-.6 0-1.2zm6.9-3.7c0-3.5 0-4.8.3-4.7.2 0 .3 1.3.4 4v5.6l.7-1c.8-1.3 1-2.2 1-6.8.2-3 .3-3.7.7-4.7.7-1.3.9-4.4.2-4.1-.4.2-.8-1.7-.4-2.1.1-.2.2-.7.1-1.2l-.2-1.8c-.3-1.5-.7-.6-.7 1.4 0 .8-.1 1.7-.3 1.9-.2.2-.2.4 0 .7.3.3.3.7 0 1.9l-.4 2.8c0 .8-.3 1.2-.5 1.2-.5 0-.5-1 0-3 .4-1.7.3-3.9-.3-4.7-.2-.4-.3-.3-.6 1.2l-.3 2.4c0 .4-.1.7-.3.7-.6 0-.7-.5-.3-2.1L31 50c0-.5.1-1 .4-1.3.2-.3.3-.7.2-1.3-.2-.8-.2-.8-.5-.4-.2.3-.7 1.4-1 2.6-.9 2.3-1.2 2.9-1.5 2.7-.1-.1.2-1.2.6-2.4.8-2.2.8-2.3.3-2.8-.6-.7-1.3-.7-1.7.1-.2.6-.2.9 0 1.3.4.6.5 5.7.2 5.7-.1 0-.3-.3-.4-.7-.2-1.2-.3-1.3-.8-1.3-.2 0-.7 0-1-.2-.8-.3-.5.6.5 1.2 1 .8 1.2 1 1.2 2a25 25 0 0 1 .8 5.2c.3 2.7.4 4 1 7.1 0 .6.2 1 .4 1s.2-.3.1-.9L28.6 59c0-.5.6-.7.7-.1.3 4.8 1.5 11 2 10.8 0 0 .2-2.3.2-5zM30 58.7v-1.3c0-.4-.1-.4-.5-.2s-.5.1-.5-.6c0-.6-.1-.8-.7-1-.7-.3-.6-.8 0-.8.3 0 .5-.3.5-.6 0-.7.4-1.5.6-1.3l.3 1.9c.2 1.4.2 1.6.5 1.1.5-.5.4-.6.5 1.7 0 1.5 0 2-.3 2-.2 0-.3-.4-.4-1zm8 10.3c0-.8 1-3.4 1.4-3.4.3 0 0 2.1-.5 2.8-.5.9-.2 1.3.5.8.5-.3.6-.6.5-1.6 0-.6 0-1.4.2-1.6.3-.7.7-4.6.4-4.6-.2 0-.6 1-1 2.2a17 17 0 0 1-1.1 2.7c-.2.3-.4.7-.4 1l-.5 1c-.5.4-.5.5-.3 1 .4.7.8.5.8-.3zM10 67.8c.2-1 0-1.4-.4-.8-.2.2-.6.5-.9.5-.2 0-.6.4-.9.7-.3.6-.3.6.8.6 1.2 0 1.2 0 1.4-1zm72.5.3a4 4 0 0 0 0-1.6l-.3-1v1.2l-.2 1.7c-.1.2 0 .4.1.4.2 0 .4-.3.4-.7zM27.7 67s.3.2.4.5c.2.5 0-2.8-.2-4.9-.2-1.5-.6-1.4-.6.2 0 1-.2 1.5-.6 1.9-.4.4-.5.7-.3 1.4l.5 1.6.2.8.1-.8c.1-.4.3-.8.5-.7zm16.5.2c.2-.7.3-5.1.2-8.5l.1-1.7c.2-1 .2-1-.5-.9-.8.1-.8.2-1 2v3.7c.3 1.4.3 2.3.1 2.6l-.2 2c0 1.4.2 1.7.5 1.7s.6-.3.8-.9zm59 .5c.4-.4.5-.7.3-1.7 0-.8 0-2.3.4-3.7.2-1.3.4-2.5.3-2.6-.2-.2-1.7 3-2.2 4.8-.7 2.7 0 4.3 1.2 3.2zm63.6-.5-.6-.1c-1 0-1.5.2-1.2.8.1.1.3.1.7-.2l1.1-.5zm-93.6.3c.2-.4-.3-.8-.8-.6-.4.1-.4.2-.2.5.4.5.7.5 1 .1zm-60-.1c0-.4-1.2-4.8-1.4-5.1-.2-.3-.3-.3-.4.1-.4 1-.3 1.7.2 1.9.4 0 .6.5.7 1.1.3 1.8.4 2.2.7 2.2l.2-.2zm46-.5c.1-.8-.6-1.5-1.6-1.4-1 .1-1 .6-.2.7.3 0 .6.2.6.4 0 .4.5 1 .9.9.1 0 .3-.3.3-.6zm-10 0c0-.2 0-.6-.2-.8-.4-.4-.2-4.5.3-5.3.4-.6.8-3.5.4-3.6l.6-2.2.8-2.1-.1-10.3-.2-10.4h-.5c-.5.2-.5.1-.5-1 0-1.7-.6-2.5-1.2-2-.4.3-.4.2-.4-.7 0-.6-.2-1.2-.4-1.5a2 2 0 0 1-.4-1c0-.3-.1-.5-.3-.5-.2 0-.5 2.7-.6 5.6 0 1.4.1 2 .6 2.6.7 1 .7 1.4 0 1.2l-.6-.2.2 8.6c.2 4.7.2 10.4.2 12.6 0 4 0 4 .4 3.6a6 6 0 0 0 1-2c.4-1.6.4-1.9 0-3.2-.5-2-.7-7.8-.2-7.5.2 0 .3 1 .3 2.2 0 3 .4 4.9.8 5a93.8 93.8 0 0 1 0-12.7c0-1.5.2-2 .5-2 .2 0 .3.2.2 1.2a83 83 0 0 0-.1 11c.2 2 .1 2.7-.2 3.9-.3.8-.4 1.7-.4 1.9l-.5 1.9c-.3.7-.5 1.6-.5 2 0 .3-.1.6-.3.7-.3.2-.5 4-.3 4.8.3.7 1.3.8 1.5.2zm-1.8-23c0-.2 0-.7.2-1 .4-1 .9-.7.5.3-.3 1-.7 1.3-.7.7zm-.3-5.2c0-1 .1-1.8.3-1.8.1 0 .2.6.2 1.3 0 .7.2 1.3.3 1.3.3 0 .4-.6.4-3.3 0-1 .1-1.8.3-1.9.2 0 .3.6.3 2.1 0 2.4-.2 3.8-.7 3.7-.2 0-.3 0-.3.2s-.2.3-.4.3c-.3 0-.4-.4-.4-1.9zm1.2-5.6v-1.4c.2-1.3.8-1 .7.3-.1 1.2-.5 1.7-.7 1zm-.7-2.8c0-.2.2-.3.3-.4.1-.1.3 0 .3.2s-.2.4-.3.4c-.1 0-.3 0-.3-.2zM46.7 64c.1-2.6.1-2.7-.4-2.7-.7 0-.8-.3-.5-1.5.3-1.5.4-3.6.1-10.4-.2-6-.2-6.1-.7-6a4 4 0 0 0-.7.3V54c0 1.3 0 1.5.4 1.2.6-.5.7-.1.4.8-.2.6-.3 2.4-.1 5.9l.1 5 .7-.1c.6 0 .6-.2.7-2.8zm59 1.8c.6-.4.7-.7.7-2.5 0-1.7 0-2 .8-3 .6-.8.7-1.2.6-1.8 0-.4.1-1.7.4-3 .3-1 .6-2.7.7-3.6 0-1.5.6-2.5 1.3-2.5.3 0 .3.2 0 .8-.3.4-.4 1-.3 1.2.1.2 0 .7-.2 1-.5.6-.5 1.2-.2 1.2l1-1c.5-.8.6-1.3.7-3 0-1.4 0-2-.2-2-.4 0-3.3 2.8-3.3 3.2 0 .3.2.4.4.4.6 0 .5.4-.3 1l-.6 1-.3.9c-.6 1-2 5.6-2.4 7-.3 1.8-.3 4.8 0 5 .2.3.6.2 1.3-.3zm17.2-.5c0-.7.1-1 .6-1.2.3-.1 1-.9 1.4-1.7l1.5-2.1c.7-.7.6-1.4 0-1.4-.3 0-1.1.5-1.8 1.2-.9.7-1.6 1.2-2 1.2-.6 0-.7 0-.5 1 .2 1.2-.2 1-.7-.4-.1-.6-.6-1.7-1-2.5-.5-1.2-.6-1.3-.8-.9-.1.4 0 .7.4 1.2.5.5.7 1.1.8 2.4a7 7 0 0 0 .4 1.8c.3.3.8 1.6.6 2-.1.3 0 .4.5.4.6 0 .7 0 .6-1zm2 .7-.4-.3-.4.3c0 .2.2.3.4.3s.4-.1.3-.3zm42.5 0-.1-2.1c-.1-2 .2-4 .6-3.6.3.2.3 2.6 0 2.6l-.1.5c0 .7.3.7 1 0 .7-1 1-2 1-3.5l.6-7.6c.5-4.8.6-6.2.3-6.3-.2-.1-.3-.6-.4-1 0-.4-.1-.9-.3-1-.1 0-.3-.6-.3-1.3l-.3-1.8c-.3-1 0-2.6.4-2.6.3 0 .5 1.2.6 2.9 0 1 .6 3.4.9 3.4.4 0 1.2-2.4 1.3-3.8 0-1.6-.2-2.5-.8-3.1-.6-.7-.4-1.2 1.9-5 .4-.8.4-1.8-.2-1.8l-.4.4a36.2 36.2 0 0 0-3.8 6.6c-1.5 3-1.5 2.9-.5 7.1.3 1.2.5 3 .5 3.9 0 1 .2 2.3.4 3 .5 1.6.5 1.4 0 1.4-.4 0-.9-1.7-.9-4l-.2-2.3c-.3-.4-.4 0-1.3 3.5-.2 1-.6 1.8-.7 1.8-.6 0-.8 4-.3 5.2l.5 1.1 1.2-.5 1.2-.5c.3.3 0 .6-1.3 1.3l-1.2.6-1 3.2-1 3.4a7 7 0 0 0 2.7 0zm-.4-10-.2-2c-.1-1.2 0-1.5.2-1.4.2 0 .4.5.4 1.2 0 1.3.2 1.7 1 1.7 1 0 .8.4-.2.9-1.2.5-1.2.5-1.2-.3zM22 63.9c-.7-2-1.4-3-2.4-3-.6 0-.6 0 .3 1 .6.6 1 1.2 1 1.4-.2 1 .3 2.3.9 2.6.8.3.8 0 .2-2zm104.8.4c.3-2 .3-3.5 0-3.2-.6.7-1.5 4.6-1.2 5l.6-.1c.3-.2.5-.7.6-1.7zm29 1.4c0-.1-.1-.2-.3-.2-.3 0-.4 0-.4.2s.1.3.4.3c.2 0 .3-.1.3-.3zM6.5 61c.5-1.6.5-2.6 0-1.2-.8 2-1.4 4-1.6 5-.1.8 0 .5.5-.8.4-1 1-2.4 1.1-3zm75 4c0-.5 0-.6-.3-.4-.1.1-.2.4 0 .7.2.6.3.5.3-.3zm38.2 0a43 43 0 0 1-.4-4c-.2-2.3-.4-3.4-.6-3.7-.2-.3-.4-.9-.4-1.3 0-.5-.2-1-.4-1.2-.3-.3-1-3-.7-3.2l.6-.2c.4 0 .4.2.3.8-.2 1.1 1.1 5 2 6 1 .9 1.1.8 1-.2-.2-.6 0-1.4.2-2.2.2-.7.5-2.5.6-4 0-1.5.3-2.7.4-2.7.4 0 0 4.4-.5 6.4-.2.8-.3 1.6-.2 1.7.2.2 1-2 1.1-3.2 0-.7.2-1.2.4-1.2.3 0 .5.9.3 1.4v.4c.3 0 .7-1 1-3 .5-2 .4-3-.4-3.6-.3-.2-.4-.6-.3-1v-.6c-.3 0-2.5 1.2-3 1.8l-1.6 1.3-1.9 1.6c-.7.7-1 .8-1.7.7-1.1-.2-1.3-.5-.8-1 .4-.4.4-.6.1-2a54.3 54.3 0 0 1-.2-12.9c-.1.1-.3 0-.4 0-.1-.2 0-.4.2-.5.2-.1.5-.6.6-1 .4-.8 0-2.5-.7-3-.3-.3-.3-.4.2-.5.5-.1.6-.3.4-.8 0-.5 0-1 .4-1.4l.6-1.1.2-.7c.5-.4 1.8-5.4 1.7-6-.1-.5-.2-.5-.4.1a99.4 99.4 0 0 1-1.6 3.9c-.5 1.2-1.3 2.1-1.6 1.7V24c0-1.4-.2-2.4-.4-2.6a1 1 0 0 1 .1-1.6c.5-.4.6-3.6 0-3.7-.2-.1-.2-.3 0-.8l.5-1.5c.2-.8.2-.8-1.2-1-.9-.1-1.3-.3-1.3-.6s.2-.3.8-.2c1 .2 1-.2 0-.5-.3-.2-1-.5-1.6-.6-2.3-.9-2.9-1-3.2-.6a53.5 53.5 0 0 0 .8 15.9c.6.9 1 1.3 1.3 1.3.2 0 .5.3.7.7l.4.8v-7c-.1-1.7-.2-1.8-1-1.5-.8.3-.7-.5.1-1 .5-.2.7-.5.7-1l.1-1.4v-1c-.2-.6-1 .5-1 1.4 0 .8-.4 1.3-.6.7 0-.3-.3-.4-.5-.3-.7.3-.5-.2.8-1.7 1.2-1.3 1.2-1.4 1.1-2.7-.1-1.2 0-1.7.4-1.1a126.3 126.3 0 0 0 .4 11.6c.5 5.2.5 5.5 0 6.1-.5.6-.4 1.2.4 2 .7.4.6 1.6-.1 2.1l-.6.4h.7c.7 0 1 .5.4.7-.2 0-.3 1.7-.4 5.6l-.2 9.6c0 2.3 0 4.3.2 4.4.1.2 0 .6-.2 1.1-.3.7-1 4-1 5.3 0 .4.2.6.5.6.2 0 .3.2.2.8-.2.8.4 1.3 1.4 1.3.7 0 1.2-1.8.7-2.5s-.4-1.2.1-1.2c.4 0 .4 0 0-.4-.5-.3-.5-.4-.2-.6.3-.2.4-.4 0-.8-.2-.4-.1-.6.2-.8.3-.3.4-.7.2-1.4 0-.8 0-1 .4-1 .2-.1.5-.5.6-.8.1-.4 0-.5-.2-.4l-.8.3c-.7.3-.4-.4.6-1.2 1-.9 1-.9 1-.4a8 8 0 0 1-.1 2c-.7 3-.6 8.9.1 9 .2.1.8-3.2 1-6.8.3-2.1.7-2.5.7-.6 0 1.2.1 1.6.5 1.8.4.2.5.7.5 3.5.1 3.4.3 4 1.2 4 .4 0 .5-.2.3-.8zm.9-10.3.3-3.1c.1-1.2.2-1.5.4-1.1.3.6-.3 4.8-.7 5.4-.2.3-.2 0 0-1.2zm-1.1-.3c-.3-.5-.9-3-.7-3 .2-.2 1.2 2.5 1 3 0 .2-.2.2-.3 0zm-6.2-35.7c0-.2 0-.3.3-.3.5.2.5.8 0 .8a.4.4 0 0 1-.3-.5zm-4.2-6.2c-.2-.3.1-.8.6-.8.4 0 .4.1.2.7-.2.5-.5.5-.8.1zM19.7 64c-.2-1.2-.9-2-1.4-1.7-.5.3-.3 1 .5 1.6.4.4.8.9.8 1.1 0 .3 0 .4.1.3V64zm4-.6c-.2-.8-.4-1.9-.3-2.4.1-.6 0-1-.4-1.5a58.5 58.5 0 0 1-3.2-4c-1.8-1.9-2-2.3-2-3.4 0-.6.2-1.2.4-1.3.4-.2.3-2.6 0-2.7-.2 0-.5.5-.7 1.2-.6 1.5-1.5 2.8-2 2.8s-.8-2-.4-2.5c.2-.2.5-.3.8-.3.3.2.5 0 .6-.4.3-1 .2-1.3-.2-1.1-.2 0-.5 0-.6-.2-.2-.4-.2-5.6 0-6 .5-.8 1 .3 1.1 2.8.1 1.7.3 2.4.5 2.2.1-.2.2-.8 0-1.8-.3-2.1-.3-2 .4-2 1.2.1 1.2-2.4 0-3.1-.8-.4-.8-.4-1.3.3l-1 1.1c-.7.9-1.4 2.8-1.5 4l-.3 3.6-.2 2.6 1.2 1.2c.6.7 1.2 1.2 1.4 1.2l1.2.8 1.6 1c.8.3 3.4 4.6 3.4 5.5l.6 2 .7 2c0 .3.2.4.4.2s.1-.8-.2-1.8zM60 65c.2-.3-.5-.7-1.6-1-1.2-.2-1 .4.2.9 1.2.4 1.2.4 1.4.1zm17.3-1.8c-.4-.3-1 .6-1 1.4v.8l.6-1 .4-1.2zm-27 1.3c.5-.8.4-3.7 0-3.7-.6 0-.7.6-.7 2.5 0 1.7.3 2.1.8 1.2zm67.4-.5.1-3.2v-2.3l-.5 2.3c-.6 2.7-.7 4.2-.1 4.2.2 0 .4-.4.5-1zm-61.6.2c0-.1-.1-.4-.4-.5-.7-.4-2.1-.4-2.1 0 0 .1.2.2.6.2l1 .3c.4.3.7.3.9 0zM25.8 63l.4-2.1c.2-.6.2-1 0-1.2-.4-.4-.6 0-.6 1 .1 1.1-.4 1.5-.7.6-.2-.5-.3-.5-.3.3 0 .4.1.9.3 1l.2 1c0 1.2.5.8.7-.6zm34.8.4c-.5-.6-1.8-.8-2.3-.3-.4.4-.4.4.2.4.4 0 1 .2 1.3.4.8.4 1.3.1.8-.5zm-24.2-2 1.3-2.5v-3a118.2 118.2 0 0 0-.7-18.7c.2-.6.6-1.2.7-1.3.2-.1 0-.2-.5-.1-.6 0-.8 0-.8-.6-.2-1.3-.9-2.7-1.5-2.7-.3 0-.5-.1-.5-.4 0-.2 0-.3-.2-.3-.1 0-.2 1.9-.2 4.3l-.2 5.1c-.2.8-.2.9.4.9.6 0 .7-.1 1-2.9.3-2.6.3-2.9-.2-4.2-.5-1.3-.5-1.4-.1-1.3.6 0 .8 1 .8 4.6v3h.7c.8 0 .8.4 0 .8-.5.3-.5.4-.3 4.3a43 43 0 0 1-.9 13c.1.6 0 1-.2 1.4-.4.6-.4 3.2 0 3.2l1.4-2.5zm-.7-2.2c0-.9.4-1.5.7-1.2.2.2-.2 2-.4 2s-.3-.3-.3-.8zm39.5 4.3c0-.3-.2-.5-.2-.4-.2.1 0 1 .3 1v-.6zm81.4.3c0-.3-.6-.6-1.4-.6-.5 0-.5 0 0 .4.5.5 1.4.6 1.4.2zm-46.6-1 .5-3c.5-2.7.5-2.9-.3-2.1a10 10 0 0 0-2.2 5v1.1h1c.9-.2 1-.2 1-1zm-52.8 0c0-.1-.2-.4-.5-.5-.9-.3-3.1 0-2.8.4 0 .1.3.2.5.1.2 0 .7 0 1 .2.9.5 1.8.4 1.8-.2zm88.6-.4c-.2-.2-.3-.1-.3.5s0 .7.3.2c.2-.3.2-.5 0-.7zm-130 .4c.2-.5-.6-1.4-1.3-1.4-.6 0-.6.4 0 1.2.5.7 1 .8 1.3.2zm68-.2c0-.2-.4-.5-1-.8-.8-.3-1-.6-1-.9.2-.7 2.4-.6 3.2.2.7.6 1.1.7 1.4.3 0-.1-.2-.4-.6-.7-.5-.2-.9-.6-1-.9-.1-.4-.4-.5-1.6-.5-1.2 0-1.5 0-1.7.5-.2.3-.4.5-.5.4h-.3c0 .2.2.4.3.5.2 0 .4.2.4.4v1.1c0 .5.3.8.6.8.7.2 1.9 0 1.9-.4zm-22.2-.2c-.1-.7-1-1-1.7-.6-.5.3-.4.4.4.7 1.3.6 1.4.6 1.3 0zm15.5 0c.2-.2-.8-1.5-1.2-1.5-.1 0-.2.1-.2.4 0 .2 0 .4.2.4s.3.2.4.5c.2.5.6.7.8.3zm87.5-2.2c-.6-.6-1 1-.6 2.2.1.3.2.2.5-.7.2-.9.3-1.3 0-1.5zm-89 2s-.5-.6-1.1-1c-.9-.7-1.1-1-1-1.3.4-.4-1.1-1.7-3.2-2.7-1.2-.6-1.4-.8-1-1 .6-.4-2-.7-3.8-.4l-1.3.2 2.2.3c2.7.4 3.2.7 3.1 1.5 0 .4.5.9 2.5 2.3a47 47 0 0 1 3 2c.3.4.7.4.7.1zm2.7-.8-.6-.8c-.4-.3-.7-.9-.7-1.1 0-.4-.3-.7-.8-.8l-.8-.6-.4-.7c-.4-.3-.5-.3-.6 0-.2.5-.6.3-.9-.4-.5-1-2.6-1.6-2.6-.5 0 .3 2 1.8 3.6 2.4 1 .5 2.8 2.2 2.8 2.8 0 .6.3.8.7.3l.3-.6zm-51.4.2c0-.2-.1-.1-.1.2v.3c.2 0 .2-.3.1-.5zm31 0c0-.3-1-.6-1.3-.3-.2.1 0 .3.3.5.7.3 1 .3 1-.1zm27 .2c0-.2-.3-.5-.9-.6-1.2-.2-1.4 0-.5.6 1 .5 1.4.5 1.4 0zm-66.7-1.5c.5-2.1.4-2.4-.3-2.4-.5 0-.7 0-.7-.5 0-.6-.4-.7-.7-.2 0 .2-.5 0-1-.6-.8-.8-.9-.9-.5-1.4.3-.5.3-.6-.6-1.4a6 6 0 0 0-1-.9c-.1 0-.2.5-.2 1.2 0 1.2.5 2.7 1 3.3.3.2.3.5 0 .8-.3.8-.6.7-1.9-.7-1.2-1.2-2.2-1.6-1.8-.7l.3 1.1c0 .4.4 1 .6 1.2.3.2.5.6.5.8 0 .2.1.5.3.7.1.3.4.2 1.2-.4l1.5-1.3c.5-.5 1.2-.5 2.2-.1 1 .4.9 1.1-.2 1-.8-.3-1.5 0-1.5.3 0 .1.2.2.5.2s.7.3 1 .8c.2.5.6.8.7.7.1 0 .4-.7.6-1.5zm62.4 1c0-.2-.3-.1-.4 0-.3.1-.3.2 0 .4.4.2.7-.2.4-.5zM51.8 60c0-.3 0-.5-.2-.4-.1 0-.3.6-.2 1.1 0 .8 0 .9.2.5l.2-1.2zm1 .4c-.3-.2-.4-.1-.4.4s0 .5.3.3c.3-.3.3-.4 0-.7zM79 60c0-1-.2-1.3-1-2.3-.7-.7-1-1-1-.8.2.2 0 .3-.4.2l-1-.3c-.4-.2-.5-.1-.5 0 0 .2 0 .3.2.3l.8.4c1.6 1.6 2.1 2.1 2.3 2.8.2 1.2.6 1 .6-.3zm-51.6.6c0-.2-.2-.3-.4-.3s-.4.1-.4.3c0 .1.2.3.4.3s.4-.2.4-.3zm31.5-.2c0-.2-.3-.3-.7-.3-.4 0-.6-.2-.6-.4 0-.3-.2-.4-.4-.4s-.3.1-.2.3c0 .2 0 .5-.2.6-.5.3 0 .6 1 .6.8 0 1.1 0 1.1-.4zm38 .1c.2-.2.4-1 .5-2 .1-1.3.1-1.6-.2-1.6-.5 0-.8.4-1 1.7l-.4 1.7c-.1.4 0 .6.4.6.2 0 .6-.2.7-.4zM25 60c0-.2-.2-.4-.4-.6-.2 0-.4-.4-.5-.6 0-.3-.3-.5-.5-.5l-.2.2c.8 1.5 1.2 2.1 1.4 2l.2-.5zm55.4.3-.1-.7c-.2-.3-.3-.2-.3.4 0 .8.1.9.4.3zm-75.1-1-.1-.7c-.5 0-.4-.6.2-1 .5-.4 2.1-3.8 2.1-4.4 0 0-.2-.2-.5-.2-.7 0-.7-.4.1-1.4.8-.8.7-1.4-.3-3.3-.8-1.5-1.4-2.2-1.7-2a7 7 0 0 0-.2 2.3c0 2 0 2.3.5 2.4.4 0 .6.3.5.9 0 .4 0 1 .2 1.2.4 1-.5 3.6-1.3 3.6-.4 0-.5.1-.4.6l.2 2c0 1.3.3 1.3.7 0zM126.5 57c0-.2-.1-.4-.3-.5l-.2-1c0-.4-.2-.8-.3-.9-.3-.1-1 1.2-1 1.9 0 .6-1.2 2-1.7 2-.3 0-.5-.2-.5-.3 0-.2 0-.2-.4 0-.4.4-.2 1.3.4 1.3.3 0 .6.2.8.4.3.4.5.2 1.8-1 .7-1 1.4-1.7 1.4-2zm-73.3 1.7c0-.3-.1-.5-.2-.5-.3 0-.6 1.4-.4 1.7.2.3.5-.5.6-1.2zm34.8 1c.5-.5.3-1-.4-1-.3 0-.6 0-.7-.2 0-.2-.5-.3-.9-.3a3 3 0 0 1-1.1-.1c-.4-.2-2.6.2-2.6.5h1.4c1 0 1.6.2 2.4.7 1.3.9 1.3.9 1.9.3zm15.2.1c0-.1 0-.4.2-.7.1-.4 0-.4-.3 0-.5.7-.5 1-.2 1 .2 0 .3-.1.3-.3zm-48.7-1.4c0-.4.1-.7.3-.7.3 0 .3-1 0-1.2-.6-.3-1 .6-.9 2 .1 1.4.6 1.4.6 0zm-44.8-.3c0-.4-.3-1.1-.4-1.5-.2-.6-.8-1-.8-.5 0 .1 0 .3.2.3s.4.7.6 1.6c.2.9.4 1.4.5 1.3V58zm41.4.1c0-.6-.1-1-.3-1-.1 0-.3.5-.3 1.2s.1 1.1.3 1c.2 0 .3-.6.3-1.2zm34.4 1-.1-.2-.3.3c-.1.1 0 .2 0 .2.2 0 .4 0 .4-.2zM26.9 58c0-.6-.3-.8-1.4-1.4-1-.5-1.4-.7-1.3-1.1.1-.3 0-.7-.5-1.1-.7-.8-1.4-.9-1.6-.3-.2.4.3 1.7.7 1.7.6 0 2 1.4 2 2 0 .6.3.7 1.9.9.2 0 .3-.2.2-.7zm63 .3c0-.2-1.9-1.4-2.1-1.4l-.3.4c-.1.3 0 .5.7.8 1 .4 1.8.5 1.8.2zm-9.7-.8c0-.9-.4-2-1.1-3.8-.5-1-.8-1.3-2-1.9-.8-.3-1.4-.7-1.4-.8 0-.3.5-.2 2 .5 2 .9 2.6 1.7 2.6 3.2 0 .8.3 1.6.5 2 .3.6.3.5.4-.6 0-.7.2-1.3.5-1.4.3-.2.3-.4-.2-1.2a7.3 7.3 0 0 0-3.5-3.2l-1.9-1c-.3-.3-1.3-.3-3.5-.2-2.7 0-3.1.1-3.4.6-.4.5-.3.5 2.3.6 2.2.1 2.7.2 3.2.7l2.2 1.7c1.5 1 2.2 1.7 1.8 2 0 .1-.5-.2-.9-.6a9.9 9.9 0 0 0-2.1-1.5l-2-1.2c-.4-.4-1-.5-3.2-.4-2.5 0-2.9 0-3.4.6l-.5.5h.8c2.7 0 6.2.6 7.4 1.1 1.6.7 3.5 2.3 3.5 2.8s1.3 2.2 1.6 2.2c.2 0 .3-.3.3-.7zm-23.5-4.3a54.8 54.8 0 0 0-.4-7.3v-3.2c0-2 .2-2.6.7-3.7.7-1.3 1.2-1.8 1.2-1.1 0 .2.2.1.3-.1.3-.5.3-.8-.3-3l-.3-1-.4 1-1.2 3.8-.8 2.8.2 7.2.2 8.2c0 1 0 1.2.4 1 .4 0 .5-.4.4-4.6zm3.3 3-.3-1.8c-.1-.8-.3-1.2-.5-1.1-.5.1-.5.8-.3 2.8l.2 1.7.5-.6c.3-.4.4-.8.4-1zm31.6 1.3-.8-.8c-1-.7-.6-1 .5-.4 1 .5 2.6.5 2.6 0l-.8-.3c-1-.3-1.1-1.3-.2-1.2.4 0 .7 0 .7-.4.1-.6-.5-.6-1.9.2-1 .6-2.5 1.8-2.5 2.1 0 .3 1.4 1 1.9 1l.5-.2zm18.3-.2.4-.6c0-.2.2-.4.4-.4.4-.2.4-.5.4-1.6 0-.7-.3-1.4-.4-1.5-.7-.2-2.2 3.2-1.8 4.1.1.5.4.5 1 0zm-51.6-3.1c.2-2.5.1-3.9-.2-5.6a31 31 0 0 1-.7-4.8c-.1-.4-.2-.4-.4.5-.2 1.4-.1 4.4.2 5l.2 2.9c0 2.8.3 5.2.6 5.2l.3-3.2zM86.1 57c.9-.3.4-.7-.6-.5l-1.5.1a2 2 0 0 0-1 .4c-.5.4-.4.4 1.1.3l2-.3zm-34-.4c.3-.6.4-13.9.2-13.7-.1.1-.3 3-.3 6.6a73.2 73.2 0 0 1-.2 7.4c.2 0 .3-.2.4-.3zM54 54c-.3-2.5-.6-2.3-.7.5 0 2.3 0 2.4.4 1.8.4-.5.4-1 .3-2.3zm20.7 2a8.1 8.1 0 0 0-2.7-1.2c-.3.2 0 .7.6.7.2 0 .5 0 .7.2.2.3 1.2.5 1.4.4V56zm2 0c.7-.6.4-1-1.1-1.8-2-1-3.5-1.3-7-1.5l-2.7-.2-1.2 1.3-1.2 1.3h3c2 0 3 0 3.2-.2.1-.1.5-.2.9 0 .4 0 .7 0 .7-.2 0-.4-1-.6-3.7-.6-1.5 0-2.4 0-2.4-.2s1-.3 3.4-.2h3.3l2.2 1.3c2.4 1.4 2.3 1.4 2.7 1zM26 54.4c-.8-.7-1-.6-1 .3 0 .6.1.7.7.8 1 .1 1.1-.5.3-1.1zm36.2-.5-.4-3.9c-.2-2.2-.4-3.4-.6-3.6-.3-.1-.3-.3-.1-.7.2-.2.2-1.4.1-3-.1-2.4-.1-2.4-.4-1.4-.2.6-.4 2.2-.5 3.5-.1 2.1-.1 2.6.4 3.6.3.8.5 1.9.5 2.9 0 2.3 0 2.6-.2 2.5l-.4-2.4c0-1.3-.2-2.5-.5-3-.4-.8-.5-1.4-.4-3.9.3-4.6.6-6 1.1-4.8 0 .3.3.4.5.3.4-.3 0-2.7-.6-4.9-.7-2.1-1-2.7-1.5-2.6-.3.2-.4 0-.4-.6 0-1.1-.4-.7-.6.6-.2 1-.2 1 .3 1 .4-.1.5 0 .5.7l.4 1.7c.2.7.2 1.4 0 2.3-1 4.1-1.1 5.6-.7 7.3.2.9.5 2.2.5 2.9.1.7.4 1.3.6 1.4.2.1.4 1 .5 2.6.3 3.5.3 3.5 1.2 2.6.5-.4.7-.9.7-1.1zm23.5 1.5c.2-.3-1.2-.5-1.7-.2l-.5.4c0 .2 2 0 2.2-.2zm-75.4-1.2c0-.2-.3-.3-.4-.2-.4.2-.3 1.1 0 1.3.4.1.6-.5.4-1zm114.6.2c.6-1.2.4-2-.2-.8-.5 1-.6 1.6-.4 1.6l.6-.8zm-37.6-.7c-1-.8-2.9-.8-3 0 0 .4.1.4 1 .4.5 0 1.2.2 1.6.4 1 .5 1.3 0 .4-.8zm58.3 0c0-.5 0-.6-.3-.6-.2.1-.4.5-.4.9 0 .5 0 .7.2.6.2 0 .4-.4.5-.8zm-18-.4.5-1.5c0-.3-.1-.2-.6.3-.4.4-.7 1-.7 1.5 0 1.2.5 1 .8-.3zm-106.3-.8c-.2-.2-.3 0-.3.7 0 1 0 1 .3.3.2-.5.2-.8 0-1zm33.6-2.9c0-2.6-.1-3.1-.5-3.2-.3 0-.4-.4-.4-1.3-.1-2 .1-3.7.5-3.7.2 0 .4-.2.4-.4 0-.3 0-.6.2-.8l.7-1.6.6-1.7c.3-1-.4-.4-.8.6l-1 1.8c-.3.5-.4 1-.3 1.3 0 .5 0 .6-.3.5-.5 0-.5.3-.6 4.4 0 3.2 0 4.7.3 5l.7 2.2c.3 1.3.4 1.4.5.8v-3.9zm35.8 4.1a2 2 0 0 1 1-.4l1-.5c.4-.3.9-.5 1.1-.5.4 0 .5-.2.5-1 0-.6-.1-1.2-.3-1.3-.1 0-.9.2-1.6.6a4 4 0 0 0-2.1 2.2c-.7 1.4-.6 1.7.4 1zm-7.5-.7c.3-.5.5-1.2.6-1.6.2-1 2.8-2.1 4-1.9 1.2.2 1.2-.3.2-1.5-.5-.4-.8-1-.8-1l-.6-1.1c-.4-.6-.5-.9-.3-1 .3-.4 1.1 0 1.1.6 0 .5 1.6 2.2 1.6 1.8 0-1.2-2-3.7-3.4-4.3-.7-.3-3.5-.2-3.5 0s.1.3.3.3c.1 0 .3.2.3.5s.3.5.8.7c.5.1 1 .5 1 .7 0 .3.5 1 1.1 1.6.6.5 1 1.1 1 1.4-.1.6-.8.8-.8.3s-1.7-2.3-2.1-2.3c-.2 0-.2-.2-.2-.4.3-.6-.3-.9-2.3-1-1.4 0-2 0-2.8.4l-.9.5h1.9c2.1 0 3.3.3 3.3.9 0 .2.3.5.7.7.9.3 2 1.2 2 1.6 0 .4-.8.2-1-.3-.3-.3-.5-.5-.7-.5l-1.4-.8c-1-.7-1.4-.8-2.9-.8s-1.6 0-.8.3c.9.3 1.2.8.9 1.1-.4.4-.3.6.5.8.9.2 2.4 1.5 2.4 2.1 0 .6-.5.5-.7 0 0-.4-.8-1-1.7-1.3-1.2-.6-1.6-1-1.6-1.4 0-.6 0-.6-2.4-.5a9 9 0 0 1-2.9-.2c-.3-.2-.6 0-1.3.5l-.9.8.8-.2c1.5-.3 4.5-.3 5.2.1 2.5 1.3 3.7 2.2 4.5 3.4.6.7 1 1.4 1 1.6 0 .5.4.3.8-.6zM81.8 49c-1.7-1-2-1.7-1-1.3 1 .4 3 1.8 3 2.2 0 .4-.6.2-2-.9zm-18.2 4c.9-1.3 1-2.4.7-6.3-.6-7.6-.6-7.8-.2-7.6.4 0 .7 1.9.7 4.3 0 .8.1 1.7.3 2 .1.2.2-1.2.2-3.8a24 24 0 0 0-.2-4.3 30.8 30.8 0 0 1-.2-6.4l.3-.7v-1.5c-.2-1-.3-1.7-.5-4.7-.3-5.6-.4-6.7-.7-9-.2-1.8-.2-2.6 0-2.8.2-.2.3-.2.4.1.3.8.7 5.3.9 9.1 0 3 .2 4.2.6 5 .3.8.5 2 .6 4.7l.4 5c.6 3 .9 8.3.6 9v2.4c0 1.8 0 2.1-.3 1.9-.4-.4-.5-.8-.5-4.2 0-2.8-.2-3.6-.6-3.4v1.8c.1 1.5 0 1.7-.4 2.2-.7.5-.8 1.1-.2 1.1.5 0 .5-.1 0 2l-.4 2.4c.1.5.2.5 1-.3l1.8-1.5c.5-.4.8-.9.7-1 0-.3.2-.4.7-.4h.7v-3.3c0-2.5 0-3.3.3-3.4.3 0 .4.1.3.7v3c0 1.8.1 2.4.4 2.3.4-.1.4-.8.1-3.6l-.6-8.4A120.5 120.5 0 0 0 68 12.7c0-.8.8-.6 1 .2.4.9 1 6 1.4 10.3l1 14.5c.2 4.3.4 3.7.7-1.6l.3-6.7c0-2.3.2-2.9.6-3.1.4-.3.5-1.1.6-6 .2-5.4.4-7 1-7 .2 0 .3 1.1.2 3.8a252.3 252.3 0 0 1-.7 15.3c.1.1.3 1 .3 2 0 2.8.4 1.4.9-3.2.5-4.8.5-6.8 0-7-.4-.1-.4-.2 0-.7.2-.4.4-1.2.4-2.2 0-2 .3-3.1.7-3.2.2-.1.3.8.3 3.7 0 3.8.2 4.9.9 4.5.2-.1 0-4.8-.2-6.7l-.4-3.7c-.3-3.7-.3-3.8-1.7-3.6-1.3.2-1.7-.3-.9-1.1.3-.3.5-.7.4-.8-.2-.2-2.5.3-2.7.5 0 0 0 1.5.3 3.3.5 4.2.5 9.4 0 9.9-.2.2-.4.2-.4 0 0-1.6-.3-11.3-.5-12l-.2-1-2.2-.1-2.2-.1v1l.3 2.7.3 2.4c0 .4.2.8.4 1 .4 0 .3 1.4 0 3.8-.1.6 0 .8.4.9.3 0 .5.2.5.3a8503.4 8503.4 0 0 1 .4 24.6c-.3.3-.4-.4-.5-2.5l-.2-2.7c-.1-.1-.3-3-.4-6.2-.2-9-.3-10-.8-10.5-.3-.4-.4-1.3-.5-4.2a48.3 48.3 0 0 0-1.4-12.1c0-1.6-1.8-4.6-2.7-4.6-.7 0-.8-.4-.4-1 .4-.5.4-.4 1.5.7.6.6 1.5 2 2 3.1l1 2 1-.2c1-.2 1.7-1 2-2 0-.3.2-1 .4-1.3.2-.5.2-.8-.2-1.5-1-2-1.4-2.2-2.7-2.2-1 0-1.2 0-.9.4.2.2.7.4 1.2.5.5.1 1 .4 1 .6 0 .4-.7.4-2.4 0-1.2-.2-1.4-.3-1.4-1v-.6l-2.2.2-2.2.3.2 1.3c.3.8.5 1.2.8 1.2.3 0 .7.4 1 1 .4 1.2.4 1.7 0 1.5-.3 0-.5 0-.5.3l-.2.4c-.2 0-.4.5-.5 1-.1.9 0 1 .4 1.1.4.2.6.5.7 1.7.2.9.2 1.9.2 2.3-.1.9.7 5.1 1.3 6.6.4 1 .4 1.3 0 3.2-.4 2-.4 2 .2 2.5.5.3.6.6.6 2 0 1-.1 1.8-.2 1.9-.1.1-.2 1.8-.1 3.8 0 3 0 3.5-.3 3.4-.2 0-.3-.2-.3-.4s0-.3-.2-.3c-.3 0-.3.5 0 .7.2 0 .2.3 0 .7-.2.2-.4.4-.5.3a16 16 0 0 1-.7-5.3l.4-2.2c.1-1.5.2-1.7.6-1.7 1 .2.4-1.7-.7-2.4-.6-.4-.8-.4-1-.1-.6.4-.6 1 0 2.3.4.7.6 1.5.5 2.2 0 1.5-.6 1.6-.8.1-.1-1.2-.7-2.6-1.1-2.7-.4-.1-.7 1.5-.4 2 .5.8 2 6 2.3 7.3 0 .7.4 1.5.6 1.6.5.4.8 4 .3 4-.4 0-.5-.6-.5-2 0-1-.1-1.3-.3-1.2-.4.2-.1 7 .3 9.1.1.9.2.4 0-2 0-1.6 0-3 .2-3.1.6-.4.9 6.2.3 6.7-.3.4-.4 1.8 0 1.8.1 0 .4-.2.6-.6zm-38.8-.2-.3-1.1c0-.5-.5-.9-1-1.2-.6-.2-1-.5-1-.7-.2-.6-1 0-1 .7 0 .6 0 .7.6.5.9-.2 2.3.8 2.3 1.6 0 .4 0 .7.2.7s.3-.2.2-.5zM12 51l.3-1.2c-.1-.5-1.8 2.3-1.8 3 0 .3.9-.7 1.5-1.8zm11.5 1.7c0-.2-.1-.3-.2-.3l-.2.3c-.1.1 0 .2 0 .2l.4-.2zm63.5-.3-.4-.7c-.3-.4-.5-.4-1.1-.2l-.9.7c0 .4.2.5 1.1.5.7 0 1.3-.1 1.3-.3zm-67-1.7c0-.3.3-1 .7-1.7.5-.8.8-1.1 1.3-1.1.6 0 .7-.1.7-1.3v-1.2l-.7.8c-.4.4-.8 1-1 1.5-.5.8-1 1-1 .4s2.2-3.4 3.9-5c3-2.8 5.3-6 5.4-7.6.1-.6 0-.7-.6-.8-.7 0-.7 0-.6.6.1.4 0 .7-.3.8-.2 0-.4.4-.4.7 0 .4 0 .5-.4.4L26 37c-.5 0-.8 0-.8-.4 0-.3.2-.4.7-.2.7.1.7 0 .5-.7-.2-1.1.1-2.4.7-2.4.5 0 1-1 .7-1.6-.3-.4-1.2-.2-1.3.2-.2.4-.5.4-1.5.3l-1.2-.1-.3 2.1a28 28 0 0 1-.7 3.6l-.7 2.8c-.4 1.7-.8 2.5-1.3 2.5-.4 0-.4-.1.2-2 .8-2.5 1.6-5.8 1.8-7.4l.1-1.6-1.3-.2h-1.3l.3 1c.5 1.6.3 4.2-.8 8.7l-1 4 .4 1.3a8 8 0 0 1 .2 4.6c-.3.7-.3.7.3.2.3-.2.5-.7.5-1zm1-6.2c0-.7 1.3-2.8 2.1-3.5.8-.6.9-.8.6-1.4 0-.3-.3-.7-.5-.8-.3-.2-.4-1.4 0-1.6.3-.2 2 .3 2.5.7.2.1.4.5.5.9.1.7-1.2 2.3-2.6 3-.4.2-1 .8-1.3 1.3-.6 1.2-1.2 1.9-1.2 1.4zm-10.4 5.1c1-2.2 1.7-4 1.7-4.7 0-.8-.2-.4-1.8 2.5-.9 1.8-1.3 3-1.3 3.6 0 1 0 1 .4.5l1-1.9zM26.6 51c-.1-.2 0-.4.4-.4s.5-.1.5-.7c0-.7 0-.7-.4-.2-.3.5-.4.5-.6.1-.2-.2-.3-.7-.3-1 0-.6-.1-.8-.4-.8-.2 0-.7-.3-1-.6-.8-.8-1-.7-1 .4 0 .5.1.7.6.7.3 0 .6.3.8.7l.5 1 .3.8c.1.4.3.6.5.6v-.6zm9-2.6c-.2-1-.3-2.7-.2-3.8v-2l-.7.2c-.5 0-.7.2-.8.8 0 .8.2.9.6.3.2-.3.3.3.3 2.4l.2 4.2c.3 1.3.3 1.3.5.5v-2.6zm104.6 2.4c0-.9-.2-1-1.6-.7l-1.1.2 1.2.6c1.3.8 1.5.8 1.5-.1zm7-.3c-.3-.4-.3-1-.2-1.6.2-1.4-.3-1.1-.7.3-.2 1.1-.2 1.3.1 1.6.3.2.5.5.5.6 0 .3 0 .3.3 0 .2-.1.2-.4 0-.9zm-29.8-.5c.4-.3.6-.8.6-1-.2-.3-2.1 1.3-2.1 1.8s.7.2 1.5-.8zm24.7-1c0-1-.1-1.3-.3-.9-.3.8-.3 3.3 0 2.8.2-.2.3-1 .3-1.8zm25.2-.4c.5-1.9.8-5.4.4-5.8-.3-.3-.7.5-.7 1.4 0 .5-.2 1.3-.4 1.8-.5 1-.8 3.9-.6 4.7.2.5.3.5.5 0l.8-2.1zM24.7 49.7c-.4-.4-.8-.6-.8-.5-.2.4 1 1.6 1.3 1.4.1 0 0-.5-.5-.9zm139 .5c0-.2-.1-.1-.2.2 0 .3 0 .4.2.3v-.5zm-35.5-1.1c.2-.9-.1-2-.6-2-.4 0-.4.5-.2 1.8.2 1 .6 1 .8.2zm35.8-.2c-.1-.2-.2 0-.2.3 0 .4 0 .5.2.3V49zm-46-1.7c.4-.6.6-1.3.5-1.9-.1-.7 0-.8.4-.8.3 0 .4.2.4.8 0 .7.1.8.6.6 1-.3 1-.4.3-.9-2.3-1.9-3-2.6-3-3.6-.2-.6-.2-1 0-.8.2.1.3.4.3.6 0 .4.2.5.6.5.5 0 .6.1.6.7 0 .4.2.7.5.9.5.2.7 0 1.8-1.3 1.1-1.6 1.2-1.7 1-3.1l-.1-1.5-.6.8a16 16 0 0 0-1.6 2.8c-.3.6-.5.8-.7.6-.1-.2-.1-.5.2-1.1.6-1.3 1.5-2.8 2.1-3.5.5-.5.5-.5 0-.9-.4-.3-.3-.3.3-.5.7-.2.8-.7.7-2.8l.2-2c.2-1.3.2-1.6-.2-2.4-.3-.5-.8-1.5-1-2.3-.2-.8-.5-1.5-.6-1.5-.2 0-.8 1-1.6 2.5-.3.7-.7 1.2-.8 1.1-.2-.3-.2-3.3 0-3.3s.4.2.5.5c.2.6.2.6.8-.4.3-.5.5-1.1.4-1.4v-.7c.3-.1-.4-3.4-.7-3.7a675.6 675.6 0 0 1-2 6c-.3.7-.5 1.9-.5 2.5 0 .5-.3 1.8-.6 2.9l-.4 1.9c.1.2 2.5-.8 3.5-1.4.6-.4 1.2-.7 1.3-.6.3.3-.6 1-2.5 1.8-1.9.9-2.1 1.2-2.4 3.6 0 .9-.2 1.7-.4 2-.2.4.2 10.6.5 11 .2.5 1.7-.6 2.3-1.7zm-1.1-.7c-.6-.3-.6-1 0-1.8l.6-.6v2.7l-.6-.3zm.4-7c-.8-2.3-.9-2.6-1-3.4 0-1.5.5-.9.9.9l.5 2 .5 1c.3.6.3.7 0 .7-.2 0-.6-.5-.9-1.2zm.7-1.9c0-.6.8-2.2 1.7-3.5 1.3-1.9 2.1-2.1 1.1-.4l-.7 1.5c0 .5-1.4 2.6-1.8 2.6-.1 0-.3 0-.3-.2zm-.5-6.4c0-.2.4-.6.9-.9 1.1-.6 2.5-2 2.5-2.4 0-.2.1-.4.3-.4.6 0 .2 1-1 2-1.5 1.5-2.7 2.2-2.7 1.7zM145.4 47c.3-1.3.3-1.3-.4-2-.6-.6-.7-.6-.7-.2l.1.8c.2.2.2.8 0 1.8-.1 1.5 0 2.3.4 1.4l.6-1.8zM32.8 48.2 33 45c.1-2.1.1-2.4-.3-2.4-.8 0-1 1-.8 3.3 0 1.2.2 2.4.3 2.6.2.7.6.5.6-.3zm87.4-.5 1-1-.8-.2c-1-.1-1.5.2-1.1.7.3.3.2.4-.2.7-.3.1-.6.4-.6.5 0 .6.8.2 1.7-.7zm17.8.6c.7-.4.8-.6.7-1 0-.5 0-.8.3-.9.6-.2.6-.6 0-.6-.3 0-.7.2-1 .6l-1 1.3-.7.9c0 .2.9 0 1.7-.3zm-46.7-.1c0-.2-.1-.3-.3-.3-.1 0-.2.1-.2.3 0 .1 0 .2.2.2s.3-.1.3-.2zm3.8-1c.2.1.5 0 .7-.3l.1-.6s0-.4.3-.8c.2-.4.4-1.2.3-1.8 0-.5 0-1.1.2-1.3 0-.2 0-.5-.4-.7-.3-.2-.6-.8-.7-1.5 0-.6-.2-1-.4-1l-.2-.6-.2-.6c-.5-.3-.2 2.1.4 3 .8 1.4.8 2.8 0 3.4-.6.3-.7.5-.5.7.5.4.3 1-.2 1-.3 0-.6.2-.6.5l-.4 1.3-.1.7.6-.8c.4-.5.8-.7 1-.6zM76 47c1-.1 1.1-.2.9-.5-.4-.4-1.6-.3-2.5.3-.6.5-.4.5 1.5.2zm-45.7-2.6c0-2.4-.1-2.6-.6-2.6-.4 0-.5.1-.4.5v2.1c.1 1.4.5 2.5 1 2.5v-2.5zm80 2.3c0-.2.1-.3.4-.3.2 0 .3.1.2.3-.1.3-.1.3 0 .1.4-.4.6-11 .3-11-.9 0-1 .2-1.4 8.4-.1 2 0 2.7.1 2.7.2 0 .3 0 .3-.2zM25 45.2l-.4-1c0-.5 1.5-1.6 2.2-1.6.5 0 .6.7.2 1-.3.1-.3 1.3 0 2 .4.7 1.6 0 1.6-.8s-1-2.9-1.4-3.1c-.3-.3-1.5.5-2.6 1.8l-1 1 .9.8c.8 1 1.2.9.5-.1zm112.5.8c0-.1 0-.2-.3-.2-.2 0-.4 0-.3.2l.3.3.3-.3zm-14-.2c0-.1 0-.6-.2-1l-.3-1-.7.7c-.9.8-.8 1.5.2 1.5.4 0 .8 0 1-.2zm-49.9-.5c.3-.8.2-8.6 0-9.6l-.2-.9-.2 1a4 4 0 0 1-.5 1.2c-.3.3-.1 8 .2 8.5.3.4.6.3.7-.2zM8.2 45c0-.3-.1-.5-.3-.5-.1 0-.2.2-.2.5s.1.5.2.5c.2 0 .3-.2.3-.5zm67.1-.5c.3-.6 0-4.8-.3-4.3l-.3 1.6-.2 2.2c-.2.8-.1 1 .2 1 .2 0 .5-.2.6-.5zm-43.5-2.1h-.4c-.3 0-.4.2-.4 1.2v1.2l.4-1.1.4-1.3zm59.8 2a1 1 0 0 0-.3-.7c-.2-.2-.2-.3 0-.4.4-.3.3-2 0-2.2-.3-.1-.6-.2-.8-.1-.3 0-.5-.2-.7-.8-.2-.9-.4-1-1-.3l-1.3 1c-.4.2-.7.5-.6.6 0 0 .5 0 .8-.3 1-.6 1.4-.2.7.5-.7.6-.7 1 .2 1.6.4.2 1 .6 1.1.9.5.5 1.9.6 1.9.1zm1.7-.4c.7-.7.8-1.1.4-1.1-.2 0-.3.2-.3.4 0 .3 0 .4-.4.1-.5-.4-.2-1 .5-1.3.7-.3 1.2 0 1.2.4 0 .2.1.4.3.4.4 0 .3-.2-.2-1.1-.2-.4-.6-.8-.9-.8-.4 0-1.6-1-1.6-1.3 0-.4-1-.6-1.3-.2-.4.5-.3.8.3.6.4-.1.5 0 .6.8.2 1.3.4 2.3.4 3.2 0 .8.2.8 1 0zM122 44c.7-.9 1-2.4.5-2.4-.6 0-2.2 2.2-2 2.8.3.6.6.5 1.5-.4zm5 .6c1 0 .8-.4-.3-1-.7-.3-.8-.7-1.3-4.5-.3-3-.5-3.8-.9-3.7-.8.3-.9 3.8 0 5.6.4.7.7 1.6.7 2 0 1.1.3 1.9.7 1.7l1.2-.1zm19.7-.2c.2-.6.2-.6-.4-.5-.5.2-.6.4-.3.7.3.3.5.2.7-.2zm-136.1-.6c0-.7.3-1.4.6-1.4l.2.6c0 .4 0 .5.3.3.1-.2.3-.6.3-1 0-.6-.6-2.6-.8-2.4-.2.2-1.3 4.4-1.2 4.5.2.2.6-.1.6-.6zm67.5-.4c.6-.4 1-4.2 1-10 0-4.4-.3-5.8-1.2-6.1-.3-.2-.4.2-.4 1.6 0 1.2.1 1.9.4 2 .1 0 .4 1 .5 2.6.3 3.2.3 4.4-.2 6.3-1.2 4.1-1.2 4.5 0 3.6zm-6.1-.6c0-.3-.1-.6-.3-.6-.1 0-.2.2-.1.4v.7c.1.5.4.1.4-.5zm75.8-.4.4-1c0-.3-1 1-1 1.5s.1.4.6-.5zm-139-2 .7-2.6c.2-.6.2-1-.3-2l-.8-1.2v2c.2 2.4 0 3.5-.6 3.5-.4 0-1.2 1.4-1.2 2 0 .2.3.5.6.6.8.3 1 0 1.6-2.3zm36.8-2.7c-.1-4-.2-5.4-.5-6-.3-.4-.5-.6-.7-.5-.2.3-.3 11 0 11.5 0 .2.4.3.7.2.5 0 .5-.1.5-5.2zm118.3 4.6c.8-.3.7-.4-.8-.2-2.2.2-2.8.3-2.6.6.2.4 2.3.1 3.4-.4zM6.7 35c0-1.9.2-3.6.3-3.8.1-.3 0-.5-.3-.6-.5-.2-.5-.5-.6-6.5 0-6.2-.2-8.8-.5-8.2l-.3 4c0 2-.1 3.8-.2 3.9-.4.2-.7 12.6-.4 12.8.2.1.3 0 .4-.4.2-.6.2-.6.6-.2.4.4.4.6 0 1.9-.2.7-.4 2.1-.4 3v1.8l.7-2.2c.4-1.5.6-3.1.7-5.5zM58 40.4c.1-1 .2-1.9.1-2-.2-.2-1 2.4-1 3.4 0 1.5.6.6.9-1.4zm22.2-.8V37c-.3 0-.6 1.6-.6 3.7 0 3 .5 2 .6-1zm-37 2.5c0-.2-.2-.3-.3-.3l-.4.3c-.1.1 0 .2.2.2.3 0 .4 0 .4-.2zm39-.7c0-.4.3-1 .5-1.3.5-.7.6-7.6.1-8.7a9.5 9.5 0 0 0-1.9-3.6c-.4-.3-.5-.2-.3.3a209 209 0 0 1 1 13.6c.2.6.7.4.7-.3zm64 .4-.1-.3c-.2 0-.3.2-.4.3v.3c.2 0 .4-.1.5-.3zM85.7 41c.5-.4.8-.8.8-1l.7-1c1.4-1.3.4-1.6-1.1-.3-1.3 1.1-1.4 1.2-1.4 2.1 0 .9 0 .9 1 .2zm-42.5-2.3v-3.2c0-.3 0-1.8.2-3.2.2-2.2.2-2.8-.2-3.6-.3-.8-.3-1.2 0-2.3.3-1.6 0-2.1-.7-1.9-.5.1-.7 0-1-.7-.3-.4-.6-.8-.8-.8-.4 0-.2 1 .3 1.3.3.1.6.7.7 1.3 0 .5.4 1.8.7 2.8l.5 1.7-.6.6c-.3.4-.5.7-.4 1 .1.3.4 1.1.5 2 .3 1.7 0 3.6-.8 3.6-.3 0-.3-.1-.2-.6.4-1.3.5-2.4 0-3.6a9 9 0 0 1-.4-2.2c0-1-.5-1.8-1.3-1.8-.4 0-.4.2-.3.7a22.4 22.4 0 0 1 1 7.3c-.2 1-.1 1 .4 1 .6-.1.6 0 .7 1.1 0 1.4.4 2 1.1 2 .5 0 .5-.2.6-2.5zm-15 2c.2-.2.4-.6.4-1 0-.6.5-.7 1-.2.5.5.8 0 .9-1.7 0-1.8.6-1.6.6.3 0 1 .2 1.5.5 1.8l1 .7c.5.4.5.3.5-.8 0-.7-.1-1-.2-.8 0 .2-.3.4-.5.4-.3 0-.4-.2-.2-1.1.2-1.5.2-2.6-.2-3l-.2-.8c0-.5-.2-.6-.6-.6-.3 0-.5-.2-.5-.6 0-.6.4-.6.8 0 .2.4.2.4.3 0 0-1.3-1.2-2-1.9-1.2-.4.5 0 1.9.8 2.3.3.2.3.3.1.5l-.6 1c-.5 1.2-2.1 4-2.4 4.2-.3.2-.3 1 0 1l.5-.4zm2.1 0c0-.1 0-.2-.2-.2-.3 0-.5.1-.5.2 0 .2.2.3.3.3l.4-.3zm135.3-.5c.7-1 .7-1.4 0-1-.3.2-.5.5-.5.7 0 .2-.2.4-.4.5-.5.2-.5.6 0 .6.2 0 .6-.3.9-.8zM13.5 38.6c0-.3-.1-.5-.2-.5-.2 0-.3-1-.5-2-.1-1.8-.2-2-.5-1.6-.2.2-.4 1-.5 1.9-.1 1.1 0 1.7.4 2.7l.5 1.3.4-.7.4-1.1zm52.7-1.9c-.2-.8-.3-1.8-.2-2 .2-.5.1-.6-.1-.5-.3 0-.4.5-.3 1.3A604.6 604.6 0 0 1 66 40c.4.6.5-1.5.2-3.3zm27.3 3c-.2-.3-.4-.3-.4-.1 0 .3.4.7.5.5l-.1-.5zM147 39l.4-.7c-.3 0-1.4 1-1.4 1.3 0 .5.4.2 1-.6zm-15.5 0c.1-.4.3-.5 1.2-.3.7.1 1 0 1-.1 0-.2-.5-.3-1.4-.3-1.2 0-1.4-.1-1.4-.5 0-.5.3-.5 2.4-.7 1.9 0 3-.3 4.2-.8 2.3-1 2.4-1.1.5-1-1 .2-1.8.2-2 .1 0 0-.8 0-1.5.3l-2.4.7c-1.3.4-3.7 2-3.5 2.4.2.3 1.6.7 2.3.8.3 0 .5-.3.6-.5zm13.7 0c.9-.6 1-1 .6-1.9-.1-.3 0-.5.5-.7.7-.3 1-.8.5-.8-.4 0-2 1.2-1.7 1.3.6.2.3.6-.9 1.1-1 .5-1.1.6-.9 1 .4.7.8.7 1.9 0zM54 37.3c.2-2.2.5-2.7 1.5-2.6.5.1.8 0 .9-.3l-.1-.5c-.2 0-.3-.2-.4-.5 0-.3-.1-.2-.1.3s-.2.6-.5.5c-.2 0-.4-.5-.4-1.6 0-1.8-.2-2.3-1-2.3-.6 0-.7-.1-.8-1.5A9 9 0 0 0 53 27v-1.7l-.6.7c-.5.6-.5 1-.6 4.6 0 2.2.1 4.2.3 4.6.2.5.3.3.3-1.2 0-1.3.1-2 .4-2.2.5-.4.8-.2 1.3.8s.5 1.2 0 1.3c-.5.2-.6.5-.7 2.4v2.5c.2.7.5 0 .7-1.5zm84.6 1.5c0-.7-1.2-1-2.4-.7-1.5.4-1.4.8.3.9l1.7.1c.2 0 .4-.1.4-.3zm14 .1-.1-.3-.3.3v.3c.2 0 .4-.2.4-.3zM52 38.3c0-.2-.1-.1-.1.2 0 .3 0 .4.1.3v-.5zm25.9-3c-.3-1.5-.3-1.5-.3 1 0 2.4 0 2.6.3 1.6v-2.6zm11 3.3-.2-.2c-.2 0-.4 0-.5.2 0 .2 0 .3.3.3.2 0 .4-.1.4-.3zm16.6-.8c.5-.6.5-1 .3-1.6-.3-1.1-.3-1.3 0-1.3.2 0 .5.5.7 1 .4.9.5 1 .9.5.2-.2.4-.9.5-1.5 0-.7 0-2.4.2-3.8.2-2.7.2-2.7-.5-3.4-.4-.5-.8-.7-.9-.6l-.3 3.4c-.1 2.2-.3 3.2-.5 3.3-.4.1-.4-3.2 0-5.8.2-1.5.2-1.9-.2-2.5l-.6-.6c-.1 0-.2 1.5-.1 3.4l-.1 4.2c-.2.4-.2 1.7-.1 2.9 0 1.6 0 2.2-.2 2.2s-.3-.5-.3-1.3-.2-1.4-.3-1.5l-.2-1c0-.7-.1-1.1-.4-1.3-.3-.1-.5-.4-.5-.6l-1-2.4c-.6-1-1-2.2-1-2.4 0-.4.2-.2.7.6 1.2 2.3 2.6 4.4 2.8 4V30c-.1-1.1-.3-1.6-.6-1.7-.3 0-.7-.9-1-1.8-.8-2-1.5-2.8-2-2.3-.3.1-1.1 1.1-1.9 2.1-1.3 1.7-1.8 2.2-1.8 1.6 0-.3 2.4-3.5 2.8-3.8.1 0 .4-1.5.6-3.2.3-2.8.3-3.2-.1-4l-.4-.8-.5.7c-.7.8-1 .5-.5-.5.6-1.5 1-1.5 1.6-.3l.7 1.3c.2.2 1.1 2.4 1 2.8l-.4-.3-.5-.6-.2 1.2c-.3 2.7.1 2.8 1.8.3.8-1.3 1-1.9 1-2.8 0-.6-.1-1.1-.3-1.1l-.5-1c-.4-1.5-.4-3.2-.1-3.2l.2.4c0 1 .5 2.6 1 3.5.4.6.5 1 .4 1.7-.2 1-1.3 3.2-2 4l-.6.6.8 2.3c1 2.6 1 2.6 1.3 2.4.4-.2.4-1.8 0-3.6 0-.8-.2-1.4-.1-1.5l1 1.4a25 25 0 0 0 2.6 3.2l2.2 2.3c.3.4.8.7 1 .7.1-.1-.2-.7-1-1.5-3-3-3.8-4-3.8-5 0-.5.1-1 .3-1 .1 0 .2.4.2.9 0 .4.2.9.5 1a137.3 137.3 0 0 0 0-13.8c-.3-.1-1 .7-.8 1L106 13c-.5 1.5-.5 3.5-.2 6.5.2 1 .2 2 .1 2.2-.4.6-.6-.6-.7-4-.1-3.7-.2-4-.7-4-.6-.1-.7-.5 0-.8l1-1.1c.3-.8.3-.8-.3-.7l-1.8.3c-1 .2-1.2.3-1.5 1.2-.1.6-.2 1.4-.1 1.9.2 1.3-.3.7-.9-.8-.5-1.5-.8-1.6-2.8-1-1 .2-1.4.7-.6.7.4 0 .4.2.3.8-.1.4 0 1.8.3 3 .3 1.8.4 2.8.2 4.2a30 30 0 0 0-.2 2.7c0 1-.5 2.3-.8 2.2-.2 0-.3-.8-.3-1.6 0-1.1 0-1.4.3-1.3.2 0 .3 0 .3-.3s-.1-.4-.4-.4c-.2 0-.4-.2-.4-.3 0-.2.2-.3.4-.3.5 0 .6-.4.1-.6-.2-.1-.2-.2.1-.5.6-.5.7-2 .1-3-.2-.4-.4-1.5-.5-2.4a9 9 0 0 0-.2-1.8h-1l-.8.2v5.4c0 3.8 0 5.5-.2 5.6-.2 0-.3-1.5-.3-5.4v-5.5l-1.3.2-2.5.2h-1.3v1.3c0 1.6-.4 1.7-.6.1-.1-1.4-.3-1.7-.9-1.3-.3.2-.5.7-.5 1.2 0 3.1 0 3.7-.5 3.7-.3 0-.4-.2-.2-1 .1-.6 0-1.2-.2-1.6-.3-.5-.3-.7 0-1.1.5-.9.4-1.9-.3-2.1-.6-.2-.9-.7-1.4-2.2 0-.3-.2-.5-.4-.5s-.3.5-.2 1.7v2c-.4.1-1-1.3-.7-1.8v-1.2c-.2-1-1-1.5-2.8-1.4h-1.1l.1 3 .2 7.2c0 3.4 0 4.3.4 4.3.2 0 .5.5.8 1.2l.7 1.4.7 1.3c.4.6.7 1 .9 1 .1-.1.2-1.9.2-4s.1-3.8.3-3.8l.3.3a47.1 47.1 0 0 1-.3 9.7c.1.3.2 1.4 0 2.8 0 1.6 0 2.2.2 2.2s.3-.2.3-.6c0-.3.2-.8.5-1 .3-.3.6-.8.6-1.2l.4-1.6c.5-1 .5-3 0-3.2 0 0-.2-.7-.2-1.5 0-1.2.1-1.4.6-1.5.6-.2.5-.9-.2-.8-.5 0-.4-.7.2-3 .3-1.1.3-1.2-.2-1.6-.2-.2-.7-.4-1-.4a2 2 0 0 1-1.2-.5l-.8-.5-.5-.4c-.5-.6-2.4-6-2.2-6.1.4-.2.7.4 1.2 2.1.5 1.5 1.6 4.1 1.9 4.1l-.2-1.1c-.3-1.6-.3-1.8.2-1.8.2 0 .4.5.5 1.4 0 .8.3 1.5.4 1.7 0 .1.9.5 1.7.7 3 1 4 1.3 4.4 1.7.7.5 1 .4 1-.4 0-.4.3-1.6.7-2.6l.8-2.8c0-.6.3-1 .5-1.2.4-.3 0 2.2-.7 4.1a6.2 6.2 0 0 0-.3 4.4c.2.4.1.4-.4.3-1-.3-.6.3.6.9 1 .5 1.7 1 3.8 3.2 1.2 1.3 3 2.7 3.3 2.5.2-.1.2-.8 0-2.2 0-1.6 0-2 .3-1.8.4.1.7 2.3.6 4.4-.1 1.5.2 2.4 1.6 4.4.4.7.6 1.2.5 1.7v1c.4.3 1.8 1 2 .9l.7-1zM81 20.6c-.3-.2-.6-.4-.6-.6h.6l1.2.3c.4 0 .6.2.6.4 0 .3-1 .2-1.8-.1zm8.7.1c0-.3 1.6-4.2 1.9-4.4.4-.5.2.3-.6 2.5-.4 1.2-1 2.1-1 2.1-.2 0-.3 0-.3-.2zM81.9 15v-.4c.2-.2 1.2 0 1.2.4 0 .2-.9.3-1.2 0zm60.5 23.7-.3-.2c-.1 0-.3 0-.4.2-.1.2 0 .3.2.3.3 0 .5-.1.5-.3zM15.7 36.8l1.3-2.5c.6-1 .8-1.7.9-2.5 0-.7 0-1.4.2-1.7a5 5 0 0 0-.3-2.7l-1.2 3.8a37.4 37.4 0 0 1-1.6 6c-.3 1.5 0 1.4.7-.4zm60.8-2.3c-.2-3-.5-1.8-.3 1.4 0 1.8.2 2.3.3 1.7v-3zm64 3.7h-.6c-.2 0-.1.1.2.1h.3zm26.6-1.5c.3-.7.4-1.3.3-1.4-.2-.2-1.5 2.6-1.3 2.9.2.3.5 0 1-1.5zm-148-.2c0-1 0-1.5-.4-1.8-.5-.4-.5-.4-.9 0-.5.8-.4 1.2.2 1.8l.7 1c.2 1 .5.5.5-1zm19.2 1.1c0-.1 0-.3-.3-.3-.2 0-.4.2-.4.4 0 .5.5.4.7 0zm45.7.2c.1-.1 0-.2-.1-.2-.2 0-.3 0-.3.2l.1.3.3-.3zm44.4-.3a6 6 0 0 1 1.5-.8c.8-.3.7-.7-.4-.9-2-.3-2-.3-1.8-1.1 0-.5 0-.9-.4-1.2-.3-.3-.6-.7-.6-.9 0-.2-.1-.3-.4-.3-.6.2-.5 1.6 0 2.6.3.3.4.8.3 1.2-.2.7.3 2 .7 2l1.1-.6zm-34.2 0-.4-.2c-.2 0-.4.1-.4.3l.4.2c.2 0 .4 0 .4-.2zm-3-.4c0-.1-.1-.2-.6-.1-.3 0-.6.2-.6.4 0 .3 1 .1 1.2-.3zm51.3 0c.6-.2 1.4-.7 1.7-1l.6-.6-1.2.1c-.8.1-1.4 0-1.6-.1-.3-.2-.9 0-2.4.8l-2.1 1h1.9c1 0 2.4-.1 3-.3zm7.4-.3c.7-.8.3-1-.4-.2l-.4.7c.2 0 .5-.2.8-.5zM39.5 34c-.1-.1-.4.3-.6 1-.3 1.1-.3 1.3.2 1.6.4.4.5.3.5-1l-.1-1.6zm24 .5c0-.7 0-1-.3-1-.4.2-.6 1.4-.3 2.6l.2 1 .2-.8.2-1.8zm24.6 2c.5-.6.5-.6.1-1.1-.3-.3-.6-.6-.8-.6-.4 0-.4.2 0 .7.6.5.6.9 0 .8-.2 0-.5.1-.5.3-.2.5.5.4 1.2-.2zm21.5-1.4c.4-.1.5-.5.6-2.4.1-2 .1-2.3-.4-2.9l-.6-.6-.2 1-.4 3.3c-.2 1.9-.1 2.2.2 2l.8-.4zm-18.8-.4c0-.3 0-1 .2-1.3.2-.5.2-.7 0-.8-.6-.2-.8-3.8-.5-6.1.3-1.8.3-2-.1-2.5-.6-.7-.4-1 .3-.6.6.3.7.2.4-.4a9 9 0 0 0-3.2-1.7c-.4 0-.5.5-.6 3.1-.2 5.6-.2 5.7.8 5 .9-.4 1.2.3 1.4 3L90 35c.2.6.9.4.9-.3zm-2.8-10c-.1-.6.3-.9.6-.2.4.7.4.8 0 .8-.3 0-.5-.2-.6-.5zm-55 8.6c0-.4-.1-.1-.1.6s0 1 .1.7v-1.3zm59.7 1c1-1 1.3-2 1.3-5.2.1-3 .1-3-.6-3.5L92 25c-.6-.2-.6-.1-.8 1.7-.2 2 .3 8.5.6 8.5l.9-.7zm40.8.5c.5-.9-2.7-1.4-3.7-.7-.5.4-.5.4-.1.6 1.2.4 3.6.5 3.8.1zm13.3-.5c.9-.3 1-.6.6-1-.2 0-1.7.5-2 .9-.3.1.2.7.4.6l1-.5zM9.6 34.1c-.3-.3-.3-.3-.2.1.1.3.3.4.3.3l-.1-.4zm28.9-1c.1-1.6-.3-3.5-.8-3.5-.2 0-.7.3-1.1.7-.7.6-.7.6-.1.7.3 0 .6.1.6.4 0 .2-.2.4-.3.4-.2 0-.3 0-.3.2 0 .4 1.4 2.7 1.6 2.5.1 0 .3-.7.4-1.5zm106 1.3c0-.1-.1-.3-.3-.3l-.4.3c0 .1 0 .3.3.3.2 0 .4-.2.4-.3zm7.6-.3c0-.2-.1-.2-.4 0l-.3.5.3-.1c.3 0 .4-.3.4-.4zm-40.6-1.5c-.3-.7-.6-.3-.6.8v1.1l.4-.8.2-1zm27.3-.2c0-1.3-.1-1.8-.6-2.3-.4-.4-.6-.9-.5-1.3 0-.4-.2-.7-.6-.9-.8-.4-.9-.5-.6-1.1.4-.8-.1-2.1-1-2.6-1-.5-1.5-.5-1.7.1-.2.7-.7.7-.9 0l-.7-1.6c-.5-.9-.8-1.1-1.2-1-.7 0-1-.5-1.2-2.6-.1-1-.3-1.6-.7-1.8-.3-.2-.4-.5-.3-.7 0-.2-.2-.6-.6-.8l-.7-.7c0-.2.4-.8.9-1.5.6-.9 1-1.7 1.2-3.2.1-1.1.5-3 .8-4 .8-2.7.7-3.6 0-3.8-1.2-.4-1.5-.3-1.5.5 0 .4-.1.9-.3 1-.5.6-1.1 3-1.6 6.2l-.5 3.7h-1c-1-.2-1-.2-1-1.3l-.4-1.4c-.2-.2-.1-.5.2-.7.3-.4.4-1.2.4-3.6 0-4 0-4.2-1-4.3-1 0-1.2.3-.5.6s.4 1-.4 1c-.6 0-.8 0-.8.3s.2.4.5.4.5.2.5.4-.1.4-.3.4c-.2 0-.5.1-.7.3-.3.2-.3.3 0 .6.2.3.2.4-.3.6-.6.2-.6.2.1.4 1 .1 1.1.8.2 1-.4.2-.5.3-.2.3.6 0 .6.8 0 1-.7.1-1 .8-.6 1.2.1.1.7.3 1.3.3.7 0 1.2.2 1.3.4 0 .2-.1.3-.7.3-1.4-.1-2.2 0-2.2.2s.2.3.4.3c.3 0 .4.2.4.6 0 .5-.2.7-.7.8-.5.2-.6.4-.6.8l-.1 1c-.3.4.5 1 1.4 1 1.1 0 1.6.3 1.9 1 .2.5.3.6 1 .4.4-.1 1-.2 1.1 0 1 .5-1.4 1.5-3.2 1.3-.4 0-.8.1-.9.3 0 .4 0 .4.7.3a150.3 150.3 0 0 1 4.7-.3c0 .3.2.5.5.5.4 0 .6.2.6.6 0 .3.1.7.3 1 .4.3 0 .7-1.2 1-.7.2-.6.3.5.2 1.8-.2 2.1.3 1 1.3-.3.3-.6.7-.6.9 0 .1.8.3 1.9.3 2.6.1 2.4.6-.2.7-3 .1-5.2-.5-5.2-1.5 0-.4 1-.3 1.4.1.1.2.4.4.6.4.6 0 .5-.7-.1-1-.3-.2-.5-.5-.5-.7.1-.2-.1-.4-.6-.5-.4-.1-.8-.3-.8-.6 0-.2-.2-.4-.4-.4l-.9-.4a7 7 0 0 0-1-.8c-.6-.4-.6-.4-.4.5 0 .5.6 1.8 1.1 2.8 1 2 1 2 2.3 2.5 1.7.6 4.8.9 6 .5 1-.4 1.7 0 .9.6-.8.6-2.7.8-4.7.5-1.8-.2-2.3 0-1.3.4.7.4 3.3.4 5.6 0 1.9-.3 2.5-.1 2.1.5 0 .2-1 .4-2 .6-2.2.3-3.5.7-3.1 1 0 .2 1 .1 2.2 0 2.2-.5 2.9-.4 2.9.3 0 .3-.2.6-.5.8-.4.2-.4.3.2.3.4 0 .7.2.7.5.2.8 1.5 1.3 3.2 1.3h1.3v-1.7zM128 10.8c-.2-.4.1-.6.5-.3.1.2.2.3 0 .5-.2 0-.4 0-.5-.2zM29.1 33.5c0-.3-.2-.4-.4-.4-.7.2-.8.8-.1.8.3 0 .5-.2.5-.4zm114.2-.1c-.1-.2-1.5-.1-1.5.1l.8.1c.5 0 .8-.1.7-.2zm8-.6c.7-1 .6-1.2-.3-.8-.3.2-1 .4-1.4.3-1 0-1.4.5-.8 1 .9.6 2 .4 2.6-.5zm-19.5-.3c.5-.1.3-.2-.7-.2l-1.6.2c-.2.4 1.3.4 2.3 0zm10.8-.3c.3-.3.2-.5-.6-.7l-1.3-.4c-.3-.1-.5 0-.5.2 0 .3.2.5.4.5s.4.1.5.3c.2.6 1 .6 1.5 0zm3-.2c1.6-.6 2.1-1.2.8-1l-1.4.4c-1 .2-2 1.1-1.2 1.1l1.9-.5zm-137-2.6c.5-2.9 1.1-8.2 1.3-11.5l.2-3-.8-.7-.8-.8V17c0 2-.2 4.7-.4 6.2-1 5.9-1 6-.6 6.4.1.2.3.7.2 1.1 0 .6 0 .8.3.7.2 0 .5-1 .7-2zm42.2 1.4c0-.2-.1-.3-.3-.2l-.2.4.2.2c.2 0 .3-.2.3-.4zm-28.7-.3c.5 0 .5-.1.3-1.3-.1-.5-.4-1-.7-1.2-.3-.1-.5-.5-.5-.9s-.4-1.1-1-1.8a49 49 0 0 1-1-1.2c-.1 0-.4 0-.6.3-.4.4-.4.5.2 1 .4.3 1 1.2 1.2 2 .3 1 .7 1.6 1 1.6.5.2.6.8.2 1-.2.1-.3.4-.3.6 0 .3 0 .4.4.1.2-.2.5-.3.8-.2zm2-.2c0-.4.2-.7.5-.7.5-.2.6-.3.4-1-.2-.9-.7-2.1-1-2.1l-.7.5c-.6.4-.6.5-.3 1.2l.3 1.5c0 .5 0 1 .2 1 .3.4.6.2.6-.4zm4 .1c-.2-.3-.4-.5-.6-.5l-.2-.4c0-.2.4-.5 1-.7 1.2-.3 1.2-.4.7-1-.3-.5-.4-.5-1.4.7l-1.1 1.4c0 .2 1.3 1 1.6 1v-.5zm2-.3c0-.2 0-.5-.2-.5s-.5 1-.3 1.2c.2.3.6-.1.6-.7zm114 .5c.6-.5.4-.6-1.8-.8-1.6-.2-2 0-1 .7.8.6 2.1.6 2.8 0zM14.7 28.2l1-1.7c-.5 0-3.3 3.8-3 4 .2.3.4 0 2-2.3zm1 .5c0-.3-.3-.1-.7.6-.9 1.5-.9 1.7 0 .7.3-.4.6-1 .6-1.3zm29.6 1.1c-.2-.1-.3-.2-.3 0s0 .4.2.5h.3s0-.3-.2-.5zm-16.5.1c0-.1 0-.3-.2-.3s-.2.2-.1.3l.2.3.1-.3zm30.2-.5c0-.4 0-.6-.4-.6-.2 0-.4.3-.4.7 0 .9.6.8.8 0zm-24.1.3h-.5c-.3.1-.2.2.1.2.3 0 .5 0 .4-.2zm16-.9c0-.4-.2-.8-.4-.8s-.3 1.2 0 1.5c.3.3.3.2.3-.7zM34 28a5 5 0 0 0-.4-1.9c-.4-.8-.4-.8-.6-.3-.2.5 0 1.5.4 3.3.2.7.6 0 .6-1zm3.8.5c.2-.5.2-1.1-.2-2.6-.3-1.4-.4-2-.1-2.2.2-.2.4-.1.8.3.3.4.5.9.5 1.2 0 .2.1.5.3.5.1 0 .2-.8.2-1.7v-1.6l-1.6.2c-.9 0-1.7.2-1.7.2l.4 1.3c.5.9.5 1.4.4 2.5-.3 2.2.3 3.3 1 1.9zm135.4.3c-.1-.2-.3-.4-.5-.4s-.2 0-.1.3c.2.5.7.6.6 0zM10.8 27.6c.2-.6.2-1 0-1.2-.3-.4-.4-.2-.6 1-.3 1.5.3 1.6.6.2zM28 27c1-1.2 1.3-1.7 1.6-3.1.3-1.7.2-2.6-.2-2.6-.2 0-.3.2-.4.3-.3.5-1.1.3-2.3-.6-.6-.4-1.1-.7-1.2-.6-.1 0 0 .7.4 1.3l.6 1.8c0 .5 0 .6 1.4.9.4 0 .7.3.7.6 0 .4-.2.5-1.3.4-1-.1-1.4 0-1.4.1 0 .2-.1.3-.4.3-.2 0-.4.2-.4.5 0 .2.2.3.4.2.5-.1.8.3.5.5-.3.2.2 1.5.5 1.5A9 9 0 0 0 28 27zm7.4.3v-1.8c0-1 0-1.5-.2-1.6-.1-.1-.3 0-.3.3l-.1 1.5v2c.2.8.2.8.5.3.3-.3.3-.6.1-.7zm-3.7-1.2c0-1 0-1.9-.2-2-.4-.2-1 1-1.2 2.5L30 28h.8c.7 0 .7 0 .8-1.8zm9 .6-.2-1.2c0-.6-.4.1-.5 1.1-.2 1-.2 1 .4 1 .5 0 .5 0 .3-1zm15.7.1c0-.4-.2-1-.4-1.2l-.8-1.5c-.5-1.4-1-1.4-1.2.1 0 1 .1 1.4.8 2.4 1 1.3 1.6 1.4 1.6.2zm3.4.2c0-.2-.1-.4-.3-.4l-.2.6c0 .3.1.4.2.4.2-.1.3-.4.3-.6zm-14.3-.5c0-.5 0-1-.2-1a3 3 0 0 1-.6-1.2c-.3-.8-.3-1 .1-1.3.4-.2.4-.5.3-1.2-.2-1.4-.5-1.7-1-1.3-.4.4-.5.4-.9 0-.5-.8-.4-1.2.2-1.8.5-.5.5-.5-.2-2.3l-.8-1.8h-2.3v2.2c.2 1.8.1 2.2-.2 2.2-.6 0-.7-.6-.7-2.6 0-1.5-.3-2.2-.7-1.4 0 .3-.1.3-.3 0l-1-.2c-.9 0-1.3-.6-.4-.8.3 0 .5-.3.5-.8 0-.3 0-.6-.2-.6-.4 0-2 1.6-1.7 1.9l.1 1.3c0 .8.1 1 .5 1.3.3.2.5.2.7 0 .3-.5.6-.3 1.4 1.2 1 1.8.8 2.1-1 1.7-1.4-.3-1.6-.2-1 .5l.8.9c.2.3.6.4 1.4.3 1-.1 1.1-.2 1.1-1 0-.3.1-.7.3-.8.2-.2.4 0 1.2 1 .4.5.4.4.3-1.5-.1-1.7-.1-2 .2-2 .5 0 .9.8 1.1 2.4.1.6.4 1.3.6 1.4.4.3.4.4 0 .5-.4.2-.5.5-.5 1.2 0 1 .4 1.5.6.8.3-.9 1.5 1.3 1.5 2.6l.2 1c.4.3.6 0 .6-.8zm133.3-2.8c0-2.2 0-3.9-.2-4.3-.3-.6-.4-.6-2.1-.6-1.7 0-1.9 0-1.9.6 0 .7.6.8 1.5.2.7-.5 1.2-.3 1.2.4 0 .3-.4.7-.8 1-1 .5-.8.9.4.9.5 0 1 0 1 .2-.1.3-.5.7-1 .9-.6.2-.5 1 .1 1 .8 0 1.4 1.4 1.2 2.5-.1.7-.1 1 .2 1 .3 0 .4-.7.4-3.8zM15 24.8l1.1-2c0-.5.8-.3 1 .1v1.2l-.6 1.2c0 .3.3 0 .8-.6 1-1.3 1-1.6 0-2.6-.7-.5-1.4-.4-1.4.3 0 .5-1.8 3.3-2.3 3.5-.2 0-.4.3-.4.5 0 .7.6.2 1.8-1.5zm42.9.5c-.1-.7-.5-2-.9-2.6-.7-1.3-.7-1.9 0-1.3.4.3.5.3.7 0 .4-.6.3-.9-.8-2-1.2-1-1.4-2-.5-2 .3 0 .6.4.9.9.4.8.8 1 1 .5.4-.5.7-.3 1.1.7.7 1.6.8 2.2.3 2.2-.2 0-.4-.3-.5-.7-.2-.5-.3-.6-.5-.4-.1.1 0 .6.2 1.3.5 1.5.5 1.5-.2 1.3-.5-.1-.5 0-.4.8.3 1.3.4 1.4 1.2 1.4.9 0 1-.3.9-1.5-.1-1 .4-1.7 1.1-1.7.3 0 .4.2.3.7-.2.6-.1.7.2.6.4-.2.6-2.9.2-3.6-.5-.9-1-.4-.9.6.1.7 0 1-.2 1-.3 0-.5-.3-.6-.7l-.3-1.2c-.1-.4 0-.5.2-.5.3 0 .2-.3-.4-.9-.8-.9-1-2.3-.3-2.8.5-.5.8-.2 1.3 1.2l.8 2c.4.6.4.5.3-.9l-.3-2.3c-.3-2.7-.5-3.8-.7-3.8-.2 0-.2.2-.1.5.4 1 .5 2.4.1 2.6h-.5c0-.2-.4-.4-.7-.5-1.2-.4-1.8-2-.7-2 .5 0 .4-.5 0-.7-.3 0-.5-.4-.5-.7 0-.4-.1-.8-.4-1-1-.8 0-1.4 1.3-.8.4.2.5.1.8-.6.4-.9.4-1-.2-2.6-.4-1.2-.7-1.7-1-1.6-.3 0-.7-.1-1.1-.4-.6-.3-1-.4-2.3-.3-1.5.2-1.6.2-1.7-.3-.2-.7-1-.7-1.4-.1-.2.3-.4.4-1.2 0-1.4-.4-1.8-.1-.5.4 1.8.7 4.8 4.3 4.8 5.6 0 .6-.7.5-1 0-.3-1-2.5-3.3-3.4-3.8-.8-.4-1.1.2-.4.7a15 15 0 0 1 3.4 3.7c.4 1.3-.7 2.2-1.9 1.5l-.8-.2c-.1 0 .2.7.7 1.5 1 1.8 1.7 4.1 2.2 7 .3 1.3.6 2.5.8 2.7l.6 1.2c0 .4.3.7.4.8l.7 1.3.7 1.2c.1 0 .2-.6 0-1.4zM56 16c-.2-.6-.2-.7.2-.6.3 0 .5.4.5.7.2.8-.3.7-.7-.1zm2-8.6c-.3-.5 0-.6.4-.1.2.2.2.4 0 .4l-.4-.3zM23.3 26.3c.6-.2.6-.2-.2-.5-1-.4-1.4-1.2-1-1.4.3 0 .4-.3.4-.5 0-.4 0-.4-.4 0-.4.6-.4.6-.8 0-.3-.3-.5-.4-.7-.1-.2.2 0 .5.6 1.4 1 1.3 1 1.4 2 1zm55.4-2.4a47.3 47.3 0 0 0-.7-12.1c-.1.1-.2 2 0 5.2a137.6 137.6 0 0 1 .3 9.5c.1 0 .3-1.2.4-2.6zm-29.7 2-.3-.4c-.2 0-.3 0-.3.2 0 .1.1.2.3.2h.3zm66.7-2 1.1-3 .7-1.3.2-.4c0-.4.1-.4.4-.2.2.2.5.2.5.1l.3-3.2c.2-2.6.2-3-.2-3-.3-.2-.6 0-1 .5-1.3 1.6-2 2.3-2.2 2.1l.6-1.2.9-1.2h-.9c-.7 0-.9.1-1 .7l-.1 1.5c-.2 1.3-.4 10.1-.1 10.1l.8-1.5zm.9-6.4c.2-2.1.3-2.7.6-2.7.2 0 .2.6.1 1.4-.2 2.5-.4 3.1-.6 3.1-.2 0-.3-.6-.1-1.8zm37.9 6.5c.6-1.2 1-3 1-3.6l-.6 1.3-1 2.2c-.2.5-.3 1.2 0 1.2l.6-1zm-142-1c.3-1.3.3-2.5-.2-2.9-.3-.3-.4-.2-.4.7 0 .6 0 1.7-.2 2.4-.2 1.5.3 1.4.7-.1zm12.3.4c.4-.3.4-.3 0-1.4-.3-.6-.7-1.1-.9-1.2-.4-.2-.5-1.1 0-1.4 0 0 .2-.4.1-.8 0-.6 0-.8.5-.8 1.3-.2.6-.5-1.1-.4-1.8 0-1.8 0-2.8 1.2l-1 1.1-.6-.6c-.4-.5-.4-.7 0-1.7.4-1.3.4-1.3-.3-1.2-.4 0-.8.5-1.3 1.5a5 5 0 0 0-.6 1.6l1 .4c.6.1.7.3.7.8 0 .3-.1.7-.3.7-.3.1-.3.2 0 .6.6.6 1 .5 1.6-.6 1-1.5 2.5-3.2 2.8-3.2.4 0 .4 1.8 0 2.8 0 .4 0 .8.4 1.2.3.4.6 1 .6 1.3 0 .6.4.7 1.2.1zm131.8-.2c.4-1 .7-4.1.4-4.1-.2 0-.4.7-.6 1.6l-.4 2.4c-.3.9.2 1 .6 0zm11.8.4c.1-.2 0-.3-.2-.3s-.5.1-.6.3c0 .1 0 .2.3.2l.5-.2zm-135-.8c0-.2-.2-.3-.3-.3-.2 0-.3.1-.3.3 0 .1.1.2.3.2l.2-.2zm125.4-1c0-.6-.4-1-.7-.7l-.3 1c-.1 1-.1 1 .4.6.3-.2.6-.6.6-1zM7.3 12.5c-.4-.4-.5.7-.4 6.3v3.8l.3-5c.1-2.7.2-5 0-5.1zm43 8.9L50 21c-.4-.2-.3-.6.2-.6.2 0 .7-.3 1-.6.5-.4.6-.7.4-1.5-.6-2.4-1.5-5.2-1.8-5.2L47 14c-.2 0-.2.5.1 1.7.5 1.8.3 3-.4 3-.4 0-.5-.4-.6-1.9-.2-2.3-.4-2.7-1-2.5-.9.2-.6 2 .7 5.8.3.8.5 1.2.9 1.2.3 0 .5-.2.5-.4s.2-.4.4-.4.5.2.6.4c0 .2.3.4.5.4s.5.3.6.7c.3.7.3.7.7.2l.4-.7zm-.3-2c0-.2-.2-.3-.5-.3s-.5-.2-.5-.5l-.4-1.5a7 7 0 0 1-.4-1.8c0-.7 0-.8.5-.7.8.1 1.3 1 .8 1.2-.4.3-.3 1.5.2 1.5s.8.5 1 1.6c0 .7 0 1-.3 1a.4.4 0 0 1-.4-.5zm2 1.4c-.3-.5-.4-.5-.4.4 0 .7 0 .8.3.6.2-.3.2-.5 0-1zm-16.7.2c-.2-1-.7-1.2-1.1-.8-.4.4-.2 1 .4 1 .2 0 .3 0 .3.2s.2.3.3.3c.2 0 .2-.3.1-.7zm115.8-1c0-1.6 0-1.7.5-1.7.4 0 .5-.2.5-.8l.2-2.4c.1-1 0-1.6 0-1.6-.5 0-4.7 4.2-4.5 4.5 0 .1.4.3.7.3.8 0 1.5 1.2 1.5 2.5 0 .8.1 1 .6.9.6-.1.6-.2.5-1.8zm-118 .3c.4-.7.4-.9.2-1.2-.3-.3-.3-.4 0-.5 1-.4 1.7-2.3 1.3-3.8-.3-1-1.5-1.5-2.5-1.2-.8.3-.8.3-.3.6.2.2.7.4.9.4.6 0 1.2 1.1 1.1 2.1 0 1-.5 1.2-1.2.6a5 5 0 0 0-1-.9c-.4-.1-.6-.5-.6-.8 0-.3-.4-.6-1-1-1.1-.4-1.4-.9-.9-1.2.2-.1.3-.4.3-.7 0-.4-.2-.5-1-.5s-1.1 0-1.1.4c0 .2.4.9 1 1.6.7.8 1 1.4 1 2 0 .7.4 1.5 1.1 2.4.2.2.3.5.2.7v.7c.1.3.2.3.5-.1.2-.3.6-.5.8-.4.6.2.5.9-.1 1-.7.2-.5.7.2.7.3 0 .8-.4 1-.9zM52.9 18c-.5-2-1-3.3-1-2.7a28.5 28.5 0 0 1 .8 3.8c.3 2 .6 2.6.7 1.6l-.5-2.7zm-24.8 2.5c-.6-.4-1-.4-.7 0l.6.2c.4 0 .4 0 0-.2zm106.4-.4c.7-1 .6-1.2-.4-1-.6.1-.8 0-.7-.2 0-.3.6-.4 1.2-.5 1.2 0 2-.7 2-1.7 0-.4-.2-.5-.8-.4-2.9.6-4 .5-4-.2 0-.3.3-.4 1-.4h1l-.8-.4c-1.3-.6-1.4-.5-1.6 1a6 6 0 0 0 .8 3.8c.6.9 1.8.8 2.3 0zM14.8 19c0-.2-.5-.6-.7-.4-.2.2.2.7.5.7.1 0 .2 0 .2-.2zm21-.3c0-.3-.3-.4-.5-.4s-.4.1-.4.4c0 .2.2.4.4.4s.4-.2.4-.4zm-22.6-1.3c0-.4 0-.7-.2-.7-.3 0-.6 1.2-.4 1.6.3.4.6 0 .6-.9zm3-.9c.5-1 .6-1.2.2-1.6-.4-.4-.5-.4-.6.2-.2.3-.4.5-.9.5-.3 0-.6.1-.6.3 0 .4.9 1.8 1.1 1.8.1 0 .5-.5.8-1.2zm10.4.6c-.2-.5 0-.7.3-.7.2 0 .6.2.8.5.2.2.4.3.5.2.3-.3-.9-1.2-1.6-1.2-.3 0-.8.2-1 .4-.2.4-.2.5.4 1 .8.6.8.6.6-.2zm114.4-.9c0-.6-2-3-2.2-2.6-.1 0 .2 1 .8 2 1 1.8 1.4 2 1.4.6zm16.7.9c0-.3-.2-.4-.4-.4s-.4.1-.4.4c0 .2.2.4.4.4s.4-.2.4-.4zm-134.4-.9c.3 0 .1-.2-.4-.3-1-.2-1-.9 0-1.1 1-.3 1.2-1 .3-1-.8 0-1.2-.8-.7-1 .5-.4 1.6 0 1.7.5.2.4.2.4.9 0l.8-.5c.1 0-1.3-3-1.6-3.2-.1 0-.2.1-.2.4 0 1-5.5 3.1-6.2 2.4-.4-.3.1-.7 1.2-1 .4 0 .8-.2.8-.4 0-.4 1.3-1.2 2-1.2.1 0 .4-.1.5-.3.3-.5-.1-.6-.8-.1-.8.5-1 .5-1 0 0-.2.5-.6 1-.8 1.2-.6 1.3-.8.6-1.5-.8-.6-1-.6-1.1 0-.2.8-1.3.7-1.5 0 0-.7-1-1.4-2-1.8-.8-.3-.8-.2.1 1 1 1.2 1.7 3 1.5 3.6-.3.8-1 .4-1.6-1-1-2.5-5.2-6-5.2-4.5 0 .2.4.6.9.8 1.3.7 2.6 1.7 3.2 2.7.4.7.6 1.5.7 3.7 0 1.5.2 2.8.3 2.9.2 0 .6-.2.9-.5.6-.6 2.5-1.3 2.8-1.1.5.2.2.7-.6 1.3-.5.3-1 .7-1 1 0 .4 0 .4.6 0s.7-.4.9 0c0 .2 0 .6-.2.8-.2.3-.2.4.2.5.5.1 1.5 0 2.2-.3zm-9.8-1.6c0-.3-.3-.7-1-1-1-.7-1.1-1.2 0-1.2.4 0 .7 0 .7-.2s-.1-.3-.4-.3c-.5 0-.5-.5 0-1 .4-.4.4-.7.2-1-.2-.4-.2-.7 0-.8.5-.3 1.3.4 1.9 1.7.3.8.7 1.4.8 1.4.3 0 0-3-.5-3.8-.2-.4-.8-1-1.3-1.3L12 5.8c-.8-.8-2.1-1.1-2.2-.6 0 .1.1.3.4.3 1.1.2 1.5.9 1.4 2.4-.2 1.1-.1 1.4.3 1.6 1 .3 1 1 .1 1.4-.5.2-.6.4-.6 1.2 0 .6 0 1.3-.2 1.4 0 .2.3.9.9 1.4 1 1.1 1.4 1 1.4-.3zm124 0c0-.2-.7-1.5-1.8-2.8l-2-2.9c0-.2-.3-.4-.5-.4-.4 0-.8 1.3-1 3.3l-.2 1.4 1.1.6c1.5.6 2 .6 2.2 0 0-.4.3-.5.4-.4.2 0 .3.4.2.6-.3.8 0 1 1 1 .5 0 .7 0 .7-.4zM26 14.6v-.3l-.4.3c0 .1 0 .2.2.2l.2-.2zm115.5-1.8c.3-2 .2-3.5-.2-4.4-1.3-3-1.2-2.8-2-2.8-.5 0-1.2-.3-1.7-.7l-1-.7c-.5 0-.2.8.4 1.2.6.4.6.4 0 .8-.4.3-.4.5-.2 1 .4.9 1.3 1.3 2.3 1 1-.1 1 .4.1 1.2l-.8.7.6 1.2.8 1.1c.1 0 .3-.9.4-2 .3-3.4.7-3 .6.5 0 2.3 0 3.1.2 3.1s.4-.5.5-1.2zm-102.5.4c0-.3.4-.9.8-1.3.8-.7 1-1.6.4-1.8-.2 0-.7.3-1.2.7-.8.7-.8.8-.7 1.8.2 1.2.7 1.6.7.6zm2.8-.1c0-.7-.6-.8-.8-.2v.7c.3.3.8 0 .8-.5zm3.4.2c.2-.4-.9-2.4-1.9-3.7-1.4-1.7-2.1-1.4-1.3.5l1 2.1c.4 1.1.6 1.3 1.3 1.3l.9-.2zm46.3 0-1.2-1.6c-1.2-1.3-1.3-1.4-2.1-1.2-.6.2-1 .5-1.2 1-.2.6-.1.8.4 1.2.4.4.9.5 1.2.4l.8.1c.2.3 1.9.4 2 .1zM93 13c0-.2 0-.3-.2-.3s-.3.1-.3.3c0 .1.1.2.3.2.1 0 .2 0 .2-.2zm-57-.7.7-.6L36 10l-.8-2c0-.6-.9-1.3-1.5-1.3-.8 0-2.4-1.4-2.1-1.8.3-.5 1-.3 1.5.4.4.4.7.6.8.4.4-.4 0-.8-1-1.2-1.7-.7-2.1-.8-2.3-.3-.2.6-1.3 1.2-2 1.2-1.1 0-4.7-.9-5-1.2-.6-.5-1.5-.5-1.9 0-.2.3-.4.3-.8.1-.6-.3-1.8-.3-1.8 0 0 .4.7.9 1.2.7.2 0 .9.1 1.6.5.9.6 1.2.6 1.8.4.4-.1.9-.2 1.1 0 .3.2.6.1 1-.1.4-.3.8-.4 1.3-.2l.7.2c0-.3 2.6 1 3.2 1.6l1.2.8c.3 0 .6.3.6.5 0 .4-.3.5-1.9.8-.5 0-1.1.3-1.3.6-.8.9-1.9.7-3-.5-1.2-1.2-1.1-1.8.3-1.8 1.2 0 1.2-.4 0-.8-.9-.3-1-.3-1.3 0a1 1 0 0 1-.7.5c-.3 0-.5.1-.5.3 0 .1 0 .2.2.2a57.5 57.5 0 0 0 2 3.4l1-.2c.7-.2 1.3-.3 2.5 0 2.4.4 3.9.9 4.6 1.4l.7.5.7-.7zm12.6.4c.5-.1 1-.4 1-.6.4-.4-.1-1.7-1.1-3l-1-1.4c0-.1-.6-.5-1.2-.7-.9-.5-1-.6-1.1-1.6 0-.7 0-1 .3-1.2.7-.4.3-.7-.8-.5-.8 0-.9.1-.7.6.5 1.6.4 2-.2 2.1-1 .1-.9.9.2 2.3 1 1.2 2.2 3.4 2.2 4 0 .3 1.2.4 2.4 0zm45.6 0a1 1 0 0 0-.7 0c-.2.2 0 .2.3.2.4 0 .5 0 .4-.1zM125.9 9V7l-.2 1.7a33 33 0 0 0-.2 3v1.4l.2-1.2.2-3zm-115.6.8c0-2.1-.2-2.8-.9-2.8-.4 0-.4 4.5 0 4.8.8.5 1 .2 1-2zm121 1.4c0-.3-.2-.5-.3-.4-.2.1-.3.4-.3.7 0 .3.1.5.3.4l.2-.7zm-32.1.2c2.1 0 3-.3 2.7-.5l-4-.3c-3.8-.1-3.8-.1-4.6.5l-.8.7 2.1-.2 4.6-.2zm18.4 0c.2-.1.1-.3 0-.4-.2 0-.6-.3-.8-.5-.4-.4-2.6-.9-4.1-.9-1.4 0-1.3.6.2.9.5 0 1.3.3 1.6.5.5.3 2 .7 2.6.7.2 0 .4-.1.5-.3zm19.7-.3c0-.8-.8-1.8-1.4-1.7-.4 0-.4.2.4 1.2.9 1.3 1 1.4 1 .5zm27-.3c.8-.4 2.1-2.8 2.1-3.7 0-1-1.4-2-3-2.1-1.8-.2-2.6.2-1.7 1l.6.4-1.1.7-1.1.8.5.9c.3.3.5.9.5 1.1 0 .3.3.6.6.8.4.2.6.2 1-.2.3-.4.3-.4.2 0-.3.8.3 1 1.4.3zM39.5 9.2c.4-.3-.3-1.5-1.2-2-.9-.4-2-.4-2 0l1.2 3.5s.5-.1 1-.6l1-.9zm53.6 1c0-.5-1-.7-1.3-.2-.3.3-.3.4 0 .6.5.3 1.3 0 1.3-.4zm11.1.4c.8-.2 1.4-.4 1.4-.6 0-.3-.2-.3-1.9 0-.7.2-1.3.5-1.3.6 0 .3.2.3 1.8 0zm-27-.2h-.5c-.2 0-.2.2.1.2.3 0 .5 0 .4-.2zm-25-1c.5.2.6.2.2-.3-.7-.9-1.7-1.7-2-1.5l.2 1.4c.3 1 .3 1 .6.7.3-.4.5-.4 1-.3zm34.3.4c.6-.3.7-.9.2-1.3-.4-.4-.5-.2-.8.8-.2.8-.1.9.6.5zm21.3-.3V9c-.1-.3-1.7.5-1.7.9 0 .2 1.4 0 1.7-.4zm-22.4-.9.3-1-1.4-.4a5.3 5.3 0 0 0-3-.2L80 7c-.5 0-.6.2-.6.7 0 1 .6 1.3 1.2.7 1-.9 1.6-1.1 2-.7.2.3.2.5 0 .8-.5.5-.2.8.8 1 1.3.2 1.6 0 2-1zm17.8.5c.3-.2-1.9-1.4-2.5-1.4-.3 0-.5.2-.6.4-.2.6-.6.4-.6-.3 0-.5-.2-.7-1.1-1l-2.5-.6c-1.2-.1-1.5 0-1.6.3-.2.5-.7.5-1.7 0-.7-.4-.9-.4-1.4 0-.3.2-1 .4-1.7.4-1.2 0-1.3.1-.7.8.3.4.7.4 1.7.3.8 0 1.3 0 1.4.2.1.1.7.3 1.2.3s1.6.2 2.4.5c1.3.5 2 .5 4.5.4 1.6 0 3-.2 3.2-.3zm15.6-2.4c0-.8-.9-.8-1.8 0l-1 .4c-.5 0-.4.4.3 1 .4.5.8.6 1.3.5.5-.1.7 0 .8.4.2.6.3.5.4-.5V6.7zM73.6 8c0-1-1-2.5-1.6-2.5-.8 0-.7 1.2 0 2.4.8 1.3 1.6 1.3 1.6.1zm3.5.7c.3-.3-.2-.9-.8-.9-.4 0-.6.2-.6.6 0 .3.2.5.6.5.3 0 .7 0 .8-.2zm35-.2c1-.2 1.2-.3 1.1-.7 0-.4-.4-.7-1-.9-.6-.2-1.3-.5-1.6-.8-.4-.3-.5-.3-1.4.5l-1 .8.6.8c.5.6.7.7 1.4.6.4-.1 1.3-.3 2-.3zm2.4-.8c-.2-.3-.5-.4-.6-.3-.2.1 0 .4.3.6.6.5.9.2.3-.3zM29.6 8s0-.2-.2-.3L29 8c0 .2.1.3.3.3l.2-.1zm77.4-.2c.1-.1 0-.2-.2-.2s-.4 0-.4.2 0 .3.2.3.3-.1.4-.3zm-65.9-.1c.2-.3-.6-1.2-.9-1l.1.6c.3.6.5.6.8.4zm94.6 0c0-.2-.1-.5-.4-.9-.3-.4-.5-.5-.9-.3-.6.3-.7 1-.2 1.2.5.2 1.5.2 1.5 0zm-32-.5c.3-.3.2-.4-.3-.7-.3-.2-1-.7-1.3-1.1-.8-1-2-1.1-2.9-.3-.5.4-.5.4 1.5 1.3l2.2 1c.2.3.5.2.8-.2zM48.6 5.9c-.3-.3-.5.1-.3.5.2.3.2.3.3 0v-.5zm27 .5c-.1-.2-.3-.3-.5-.3-.1 0-.2.1 0 .3l.3.2c.2 0 .2-.1.1-.2zm37.4-.7c-.6-.7-1.4-1-1.6-.7-.2.1 0 .4.6.8.9.6 1.5.5 1-.1zm2.6.4c.4-.3.4-.3 0-.6-.9-.7-.6-1 .6-.9 1 .2 1 .2 1-.3 0-.3-.4-.5-1.2-.5-.6 0-1.2-.3-1.4-.5-.3-.4-.3-.4-.8 0l-.6.5.6.6c.3.3.5.7.5 1 0 .3.5 1 .8 1l.5-.3zM37 5.6c-.3-.7-1.5-1.9-1.9-1.9-.4 0-.4 0 0 1.1.5 1.1.7 1.3 1.4 1.3.5 0 .6-.1.5-.5zm43.6.2c.6-.3.4-.8-.5-.8-.4 0-.6.2-.6.6 0 .6.3.6 1 .2zm5 0-.6-.4c-.4-.1-.7-.5-.7-1-.1-.8-.9-1-1.7-.3-.4.3-.4.4.3.8 1.6 1 2.7 1.5 2.7 1zm20.3 0c0-.1 0-.2-.2-.2s-.3 0-.3.2.1.3.3.3c.1 0 .2-.1.2-.3zm-14.6-.3c.2-.3-.5-1.3-.8-1.3l-1.4.6c-1 .6-1 .6-.3.8.6.2 2.3.1 2.5-.1zm42.7-.7-.3-.6c-.2-.3-.3-.3-.5 0l-.3 1c0 .7 0 .7.6.2.3-.2.5-.5.5-.6zm-91.3.5c.3-.2.3-.3 0-.6-.5-.7-1.3-.6-1.3.2 0 .7.6.9 1.3.4zm31.7-.8c-.1-.3-.2-.2-.2.1 0 .3 0 .4.2.4v-.5zm2.3 0-.1-1.2c0-.4-.2-.6-.6-.7-.7-.2-.8 0-.2 1.3.6 1.2 1.2 1.5 1 .5zm21.2 0c.3-.4.3-.6-.2-.8-1.2-.6-2.5.4-1.3 1 .7.5 1.2.4 1.5-.2zm10.2-.1c.2-.4.2-.4-.1-.4-.3 0-.5.1-.5.4l.1.4.5-.4zm-36.2-.2.7-.2c.4 0 .5-.2.5-.8 0-.8 0-.8-1.4-.8-1.6 0-1.7.1-1 1.3.3.8 1 1 1.2.5zm14.9 0c.4-.1.2-.2-.7-.2-.9 0-1 0-.7.2l.7.3.7-.3zm-48.5-.8c.1-.1 0-.3-.2-.4-.5-.2-.8 0-.6.4.3.4.6.4.8 0zM94.3 3c-.2-.3-3-.9-3.7-.9-.2 0-.3.1-.3.3l1.6.4c.8 0 1.6.3 1.8.5.2.3.4.3.6.2.2-.2.2-.4 0-.5zm9.8.3c.4-.3.5-.4.3-.7-.4-.4-5.4-.7-5.4-.3 0 .4 1.4.9 2 .7.3 0 .8 0 1.2.3.7.5 1.3.5 2 0zm35.7-.2c-.4-.7-2.5-.6-2.5.1 0 .3.2.3.8 0 .5-.4.6-.3 1 0 .4.5 1 .4.7 0zm33 0c0-.3-.2-.5-.4-.5-.4 0-.4.1-.1.4.1.3.3.4.4.4V3zm-56.2-.7c-.1-.2-.4-.3-.6-.3-.2 0-.3.1-.2.3l.5.2c.2 0 .3 0 .3-.2zM87.9 2l-1-.2c-.6 0-.9 0-.8.2.1.2.5.3 1 .3.4 0 .8-.1.8-.3z"/>
</svg>
