<?xml version="1.0" encoding="utf-8"?>
<svg xmlns="http://www.w3.org/2000/svg" xmlns:svg="http://www.w3.org/2000/svg" version="1.1" viewBox="0 0 217 175">
  <title>Ginger and Pickles stare out of the doorway past a hedge and iron fence.</title>
  <path d="M56.9 174.4c-.6-.6-.1-.8 2.4-1.1l3.8-.6a76.1 76.1 0 0 1 9-1l3-.3c.6 0 1-.1 1-.3 0-.1-.9-.3-2.3-.3-1.8 0-2.4 0-2.7-.4-.3-.3-.2-.5.2-.7.4-.4.4-.4 0-.5l-2.7.1c-2.3.2-5.6 0-5.8-.3-.3-.5.1-.7 1.2-.7h2.8l1.8-.2-2-.3c-2.4-.3-3.1-.8-1.7-1l6.3-.2c5.3 0 5.5 0 5.5.5 0 .4.2.5 1.4.6a4 4 0 0 1 1.6.5c.4.4-.2 1-1.2 1.2l-.9.2 1.1.2c1.4.3 2 0 1.8-.5-.4-1-.4-4.2 0-7.1.7-5.1 1-8.8.8-9.7-.3-1.6 0-2.2 1.8-3.4 2.1-1.6 3.3-2.8 3.7-4l1-2.6c.8-1.6 1.4-3.6 1.1-3.8l-6.2 1-2.4.6-.5 1.2c-.3.7-1 1.6-1.6 2.1l-1.5 1.4-.8 1-.5.7-1.1 2-1.5 2.8c-.5 1.2-2.7 7.4-2.6 7.5h1.3c.9 0 1.4.3 2 .7.6.7.6.8.4 2.3 0 .9-.3 1.9-.5 2.2-.3.8 0 .8-8.8.9-5.2 0-5.4 0-5.8-.5-.5-.5-.6-.6-8.2-.4-6.6 0-7.8 0-8.6-.3-.6-.3-1-.6-.9-.7 0-.1 4.3-.2 9.4-.2 8.4 0 9.2 0 9.3.4.1.4.4.4 1.9.3.9 0 1.4-.1 1.2-.2-.7-.2-.6-.9.3-1.2.7-.2.8-.4.8-1l.3-2c.6-2.4 1.4-4.8 1.7-5.6a58 58 0 0 0 3-12.1c-.1-.1-1.1 0-2.2.3l-2.9.4a24433.9 24433.9 0 0 0-8.9 1.5 33 33 0 0 1-5.6.7 69 69 0 0 0-11.2.1c-3.3.5-5 .6-5.3.3-.3-.5.5-1 1.6-1 .6 0 1.4-.2 1.7-.3 1-.3-2-.5-8.6-.7-3 0-5.8-.2-6-.3-.3 0-1-.4-1.3-.8-.8-.7-.8-.7-6.1-.9-5.3 0-6.3-.2-6.6-1-.4-1 .1-1 5.4-1 3 0 5.6.3 6.4.5 1.7.4 2 .1 1.2-1.5-.5-1.1-.6-2-.7-5.8 0-4.8 0-5.4.6-5.4.5 0 .5-.6 0-3.5-.7-4-1-7.4-.7-11.5.3-3.5.5-4.7 1-4.3l.2 6.3c0 4.8.2 7 .6 9.6.8 4.4.8 5.5 0 5.7-.5.1-.5 0-.2 1.9l.4 3.7c.2 3.2.4 3.6 1.7 4 1.1.2 13 .9 13.2.7.1-.2-.3-7.1-.7-11a92.5 92.5 0 0 1-.3-21.4c.6-.3.7 1.1.7 8.6 0 6.8 0 8.9.6 12.9l.7 8 .3 3 2 .4c2.1.3 2.6.5 2.6 1 0 .7-.5.7-2.9.3l-7.2-.7-7.1-.5c-1.6-.2-2.4-.1-2.6 0-.3.3-.3.4 0 .6.4.2 4 .7 6.4.8a156.5 156.5 0 0 1 15.5 1.8h1.1l-.7-.8c-.4-.5-.7-1-.7-1.2l-.4-1c-.5-1-1-3.2-1.6-6.8-.7-4.7-.5-25 .3-25.1.5-.1.8.4 1 2.2l.2-2.7c0-5.2.1-5-3.6-5.4a313.7 313.7 0 0 1-18-2.1c-.2-.4 1.6-1.1 3-1.2 1.8 0 2.1-.4 1.7-1.3-.9-2-1.2-6.2-1.2-16 0-4 0-5.7.3-5.8.5-.1.6.7.8 5.1.1 3 .2 4 .4 3.3.3-1.4.3-6.2 0-13.6-.4-7.6-.4-6.8-.2-9.3.2-2 .6-2.7 1.8-2.7.8 0 1-.4.3-.6h-4.7c-8 .4-16 .7-19 .7-2.8 0-3.3 0-3.3-.4-.2-.6.4-.7 15-1a65.5 65.5 0 0 1 18 .5l5.3.3c1.9.2 3.6.3 3.7.2.4-.3-1.7-1.3-4-2.1-2-.7-2.8-1.2-4.7-3l-2.7-1.9-1.4-.7-9.4.2c-5.2 0-11 .2-12.9.3-4.3.4-8.3.4-8.9 0-.3-.1-.3-.3 0-.5.4-.4 1.3-.4 13.4-.6 7.7-.2 16.2-.6 16.5-.8l-2-3c-1.6-2-2.2-3-2.2-3.5s-.4-1.2-1-2c-1.5-2-1.9-2.7-1.9-3.6 0-.4-.3-1.3-.7-2-.4-.7-.7-1.6-.7-2 0-.5 0-1-.3-1.2l-1-1.5-1.6-2.3c-.9-1-1-1.5-1.3-3 0-.8-.3-2.1-.5-2.8a4 4 0 0 1-.1-1.5 8 8 0 0 0-.5-2.4l-.7-2.3c0-.6 1.1-.6 2.4-.1 2.5 1 7.6 7.4 7.6 9.3l1 2.2.9 2.2a21.9 21.9 0 0 0 5.4 9.3l2.5 2.2c.8.6 2.3 1.8 3.3 2.8l1.7 1.7.2-.8.3-1.3c.2-.7 1.9-3.5 3-5 .7-1 1-1.6 1-2.2 0-1.3.6-2.2 2-3.3a78.4 78.4 0 0 0 4.3-3.1c0-.2 1.5-1 3-1.8 1.7-.7 3.4-1.8 4-2.2 1.1-1 2-1.4 4.4-2 1-.2 2-.6 2.2-.8 1-.9 3.2-1.6 5-1.8 2.1-.2 9.1.3 11.8.8 2 .4 3.7.5 4 .1.3-.4 4.2-.8 5.8-.5a24.1 24.1 0 0 0 10.6-.6c1.5-.2 2-.1 2.2.2.2.2.5.3.8.2.3 0 .9 0 1.2.2.6.3.7.2 1.6-.6 1.7-1.6 8-4.7 9.5-4.7 1 0 1.4.2 1.7 1.1.3.7.2 1-.6 2.7-.6 1.1-1 2.2-.9 2.4.1.2.5.3 1.6.2 3-.2 3.5.3 2 2.6-.7 1.4-1 2.5-.4 2.8l.8 1.4c.4 1 .5 1.5.3 3a12 12 0 0 1-.5 2.7 4 4 0 0 0-.2 2c.1 1.2 0 1.3-.9 1.9l-1.5 1c-.3.4-.9.6-1.6.6-3.7.1-3.8.1-4.4.7-.4.5-.7.5-2.7.3-2.5-.2-3.8-.7-4.5-1.8-.6-.8-2.3-2.2-2.6-2l-.2 1.4c-.2 1-.3 1.2-.8 1.3-.3 0-.7.2-.9.5-.1.2-.4.3-.6.3-.2 0-.8.5-1.4 1-.9.9-1.4 1.1-2 1.1-1.1 0-5.5 2.4-5.9 3.2-.1.3-.7.9-1.3 1.3a8.8 8.8 0 0 0-2.9 3.7c-.5 1.1-.5 1.2 0 2a4 4 0 0 0 1.7 1.6 8 8 0 0 1 1.8 1.3c.6.6.6.8.5 2-.1.6-.2 1.5-.1 1.7v7c-.1 5.9 0 6.4.3 6.4.6 0 1.5-.5 1.5-.8 0-.2.1-.5.3-.6.3-.2.3-1.7.2-6.4V60c.5-.7 1.1.6 1.3 2.3 0 1 .2 1.8.3 1.8.2 0 .3.3.3.6 0 .4-.1.7-.3.7-.1 0-.2 1.6-.2 4.1v4.1l.9.8c1.5 1.4 2.3 3 2.2 4.4 0 .8 0 1.6.4 2.1.2.5.4 1.3.4 2 0 1.1-.6 1.9-2.5 2.8a9.1 9.1 0 0 0-3.5 3.6 9 9 0 0 1-1 1.5c-.7 1-.8 3.8 0 4 .3.1.4.3.3.7-.3.8-.8 3.2-.6 3.4l3-.8c1.5-.5 3.6-1 4.6-1.2 1-.1 2.2-.4 2.7-.7.5-.2 1.8-.5 3-.6 1.1 0 2.6-.3 3.1-.4 2.2-.8 5.9-1 10.3-.9 4.3.2 4.4.2 5.3-.5l2.6-1.8c1-.7 2-1.5 2.2-1.9.2-.3 1-.8 1.5-1.1 2.1-1 2.3-1.4 2.3-5.1a1209.6 1209.6 0 0 0-.5-47.6c0-8.5-.3-19.4-.8-27.3-.1-2.4-.2-5.3 0-6.5 0-1.9.2-2.2.6-2.4.3 0 .7 0 1 .3.3.3.4 1.8.4 10.4 0 5.5.2 10.8.3 11.7.1 1 .2 4.2.1 7.2v5.5h1.1l2.6-.3c1.4-.4 1.5-.4 1.4-1.3-.1-1.1-.3-1.3-.6-.7-.4.7-.9.6-.7-.2.4-1.5 1.7-4.1 2.1-4.1.5 0 1.4 1.4 1.7 2.5.2.9-.3 1.6-.7 1-.6-1-1 .7-.6 2 .3.5 1 .6 6.3.6 4.6 0 4.7 0 4.6-1.3-.1-.7-.3-1-.6-1-.7 0-.8-.3-.4-1.2l.8-1.9c.7-1.6 1.6-1.1 2.3 1.2.4 1.2 0 1.9-.6 1.3-.7-.5-.8-.2-.5 1.2.2 1.1.3 1.3.9 1.4a1 1 0 0 0 1.1-.5c.4-.5.4-.6.6-.2.3.8 2 1.2 4 1 1 0 2-.2 2-.3.2-.1.3-.8.4-1.6.1-1 0-1.3-.3-1.3-.7 0-.7-.4-.3-1.9.5-1.3 1.2-2 1.7-1.6.4.2 1.6 2.9 1.6 3.4 0 .3-.2.4-.8.2-.7-.1-.8 0-.8.5-.2 1.9.2 2.4 1.5 2.2l4.3-.2 3.9-.1c.2-.1.4-.6.4-1.4 0-1.8-.2-2.2-1-2-.8.2-.8-.2 0-1.8.5-1.3 1.3-1.8 1.9-1.3.4.4 1.2 2.5 1.2 3.3 0 .3-.2.6-.5.6-.4.1-.6.4-.6 1 0 1.3.5 1.5 3 1.5a64 64 0 0 1 8.5.4l.2-1.6c0-1-.1-1.5-.4-1.6-.6-.2-.5-.9.1-2.4.4-1 .6-1.2 1.1-1.1.5 0 .7.3.8 1 0 .6.4 1.4.7 1.9.5.7.5 1.5 0 1.5-.1 0-.5 0-.8-.2-.4-.3-.5-.2-.5.5 0 .5.2.8.4.8.3 0 .5.2.6.5l.4.6c.4.2 9.7 0 10-.2v-1.3c-.1-.9-.2-1-.7-1-.7.1-.8-.5-.2-1.9.2-.5.4-1.3.4-1.8s.2-1 .4-1.3c.7-.5 1.5.7 2 3 .5 1.8.5 1.9 0 2.8-1 1.4-.7 1.7 1.9 1.6 1.2 0 2.6 0 3 .2.8.1 1.2 0 1.7-.4.7-.5.8-.8.8-2 0-2-.3-2.5-1-1.6-.4.8-1.2 1-1.2.2 0-.2.2-.6.5-.9.3-.4.4-.5 0-.9-.2-.3-.2-.6.2-1.4.2-.6.4-1.7.4-2.4s.1-1.4.3-1.5c.4-.2 1 .4 1 1.1 0 1 .5.8 1.1-.3.9-1.4 1.4-1.1 1.6 1l.6 3.3c.5 1.9.5 2.7.2 2.7-.4 0-1-1.6-1.3-2.9 0-.6-.2-1-.3-1-.1 0-.4.7-.7 1.7-.3 1.4-.4 3.1-.5 9.2-.2 8.7-.3 12.9-.5 13 0 .2-.3 0-.5 0-.4-.3-.4-.5-.1-1 .2-.5.2-1 0-1.8-.3-.8-.4-2.6-.2-7l.2-5.8-1.9-.2c-2.6-.3-5-.2-5.6 0-.5.3-.5.6-.5 4.5 0 2.2.2 4.1.3 4.2 0 0 0 .6-.3 1.1-.2.5-.3 1.6-.3 2.4v1.6c0 .2-.3 3-.3 5 0 1.1-.2 1.3-.7 1.3-.6.1-.6 0-.5-1.4a224 224 0 0 0 .7-14.7c.2-4 .4-3.9-6.1-4H185l-.2 1-.4 8.7c0 4.3-.2 8.1-.3 8.6-.2 1.5-.6.9-.6-1l-.2-3V35.3h-4.9c-3 0-5.2 0-5.5.2-.4.2-.5.5-.4 2.3 0 1.2-.1 2.3-.3 2.7-.6 1-1 .2-.9-2.3 0-3.6.5-3.3-5-3.1-2.5 0-4.8.3-5 .4-.4.2-.5.8-.6 3-.2 2.7-.5 4.1-1 4.1-.2 0-.2-1.1-.1-3.6l.2-3.6-2.6.2a83 83 0 0 1-4.3.1h-1.7V38c0 2.5-.2 3.5-.6 3.4-.2 0-.4-1.2-.4-3l-.2-2.9-4.5.1a27.3 27.3 0 0 0-5.5.6c-.8 0-1 .6-1 3 0 1.8-.3 3-.7 3-.2 0-.3-1.1-.3-3.1 0-2.7 0-3.2-.4-3.4-.6-.2-4.3.5-4.7 1-.2.2-.2 2 0 6.7 0 3.5.2 7.7.1 9.2a903.7 903.7 0 0 0 0 22.2c0 .5 0 2.7-.2 4.8v5.2l.2 1.4 1.5-.8 1.8-.8c.5 0 1.5-2 1.3-2.6a57 57 0 0 1 2-8.7c.6-1.7 1.1-2.7 2-3 .4-.2.8-1 1.3-2 .4-1 1-2 1.3-2.3.5-.4.5-.5.2-1.3l-.8-2.1-.5-1.3c-.3 0-3.9 4.8-4.7 6.3-.7 1.3-1.5 1.8-1.5 1 0-1 5.3-8 6.7-8.8a8 8 0 0 1 2-.5c.9 0 2-.4 2.5-.7 1.2-.6 2.4-.6 3.4 0 1 .5 1.4 1.2 1.3 3 0 1.3-.1 1.8-.5 2.1-.6.5-.6.5 0 .8.4.2.6.1.9-.3l.4-.8.6-1.6.8-1.8c.2-.6 1.8-.8 3.8-.5 1.2.2 2.7 1 4.7 2.9.4.3 1 3.5.8 4.3-.1.7 0 1 .4 1.2.3.2.6.7.8 1.2.2.5.6 1 .9 1.3.9.6 3 1 3.3.6.2-.2.5-.2.9 0 .3.2 1.8.4 3.2.5 2.4 0 2.7 0 3.1.6.3.4.5 1 .5 1.2 0 .7-1.1 3-1.9 3.8-1 1.1-.3 1.2.9 0 .6-.5.8-.6 1-.3.3.9-1.4 2.2-2.9 2.2-.2 0-.5.3-.7.6-.2.3-.5.4-.7.3-.5-.2-1.4.8-1.8 2-.1.5-.5.9-1 1-.8.4-4.4.8-5.9.7-.8 0-1 0-1.7.9a8 8 0 0 1-1.7 1.6c-2.1 1.3-2.7 2.9-3.4 9.6-.4 3.3-.7 5-1.2 5.6-.8 1.2-1 2.4-1 5.7-.1 2.8-.2 3.3-.9 4.7-.4.8-.8 2-.8 2.6-.2 1-.2 1 .6.9a105.7 105.7 0 0 1 5.4-2.4l1-.4H159c-1 0-1.7-.1-1.7-.3 0-.5.8-.8 2.2-.7 1.1 0 1.4.1 1.3.5 0 .6.5.6 2.2.2 1.2-.3 1.2-.3.8-1-.6-.8-.3-1.2.7-.7.7.4 1 .4 2.4 0a516 516 0 0 1 12.2-2.8c1.5-.7 3.1-1.1 5-1.3 1.2-.1 2.5-.5 3.2-.8.6-.3 1.8-.6 2.7-.7l1.7-.2-.1-.8c-.1-.7 0-1 .3-1.2.7-.4 4.2-.6 4.4-.3.2.3-.5 1-1 1-.2 0-.5.3-.7.6a1 1 0 0 1-1 .5c-.4 0-.7.3-.9.7-.3.7-.5.8-2.4 1-.8.2-1.7.4-2 .6a4 4 0 0 1-1.6.4l-1 .2c0 .2-.5.3-.9.3s-1.5.2-2.4.5a228.9 228.9 0 0 1-16.4 4c-.7.2-1.3.5-1.3.6 0 .2 0 .2-3 1-1.1.3-2.6.8-3.3 1.2l-2.7 1c-1.3.5-2.9 1.7-2.9 2.3 0 .7.9 4 1 4.1.2 0 .3 1 .3 2.2l.3 3.8.4 5.7a136.3 136.3 0 0 0 .5 8.4c.1 1.3.4 2.9.7 3.4.3.6.6 1.7.6 2.4l.3 1.2 1.6-.7c1.3-.7 1.5-.7 2.4-.3 1.1.4 1.8 1.4 2.9 4.2.5 1.3.5 1.6.2 2.3-.3 1-1.6 1.7-2.8 1.7-.4 0-1.5.2-2.5.6-1.9.7-4.2.8-9.5.7-2.4 0-2.8 0-3.2.5-.8.7-2 1-5.2 1.3l-5.5.6c-3.2.4-5 .4-5.2 0-.2-.5 1.4-1 4.3-1.4 2-.2 3-.5 3.4-.8.5-.5.8-.6 4.9-1 2.7-.3 4.5-.7 4.2-1l-1.3-.3c-.6-.1-1.1-.3-1.2-.5-.1-.4 1.4-.6 4.5-.6 1.4 0 2.6 0 2.7-.2 0-.1 0-1-.3-2l-.7-3.7c-.4-1.6-.6-2.2-1.3-2.9-.7-.7-1-1.3-1.4-2.9-.8-3.8-2.7-9.3-3.7-10.7-.6-.9-1-1.9-1.2-3-.4-1.7-.4-1.7-2.2-1.3-1.4.4-1.5.7-1.9 3.9 0 .9-.4 2.1-.6 2.8-1 2-1.4 4.2-1 5 .2.6.1.8-.2 1.4-.3.4-.4 1.2-.4 2v1.6h.9c1.3 0 3.2.7 3.7 1.4.4.7.6 2.8.3 3.9-.3 1-1.8 1.8-3.4 1.8-.8 0-2 .2-2.6.4-2.6.8-11.1 1.2-12.6.6-1.8-.8-.3-2 2.5-2 1 0 1.8 0 1.7-.1l-.5-.2c-.2 0-.3-.1-.3-.3 0-.3 1.4-.8 2.4-.8.5 0 .8-.1.9-.4 0-.3.2-.7.4-1 .5-1-.1-4.7-1-5.5-.8-.5-1.2-3.9-1-7.7.1-2.2 0-3.2-.1-3.5-.4-.5-3.5-.3-4.3.2a3 3 0 0 1-1.5.5l-4.2.6a86 86 0 0 1-6.6 1c-3.6.5-6.7 1.1-8 1.7-.8.4-2.7 2.9-2.7 3.5l-1 2c-1 2-2.5 3.8-4.4 5.2a23 23 0 0 0-6.7 9.5c-.2.7-1 2-1.6 2.8a6 6 0 0 0-1.3 3.3v2.5c0 .8 0 .8 1.3.7 1.3 0 1.3-.1 3.4 2.3 1.3 1.5 1.6 3 1 4.3-.4.6-.7.7-1.7.9l-3.6.5c-2 .4-6.4.4-7.4 0l-3.2.2-6 .5c-4.8.3-8.9.8-10.2 1-1.5.4-2.2.4-2.5 0zm31.4-4.1a6 6 0 0 0 2-.8c0-.5-1-1-2-1-1.2 0-1.4-.5-.4-1.2.8-.6.2-1.2-.8-.8-.7.2-1 .6-1.2 1.5-.2.6-1.2.3-1.5-.5-.4-.9-.3-3.8 0-6.3.2-1.6.5-2.3 1.1-3.3l1.4-2c.4-.4.6-1.2.7-1.6a24.6 24.6 0 0 1 7.6-10.4c1.2-1 3.4-4 4-5.5.5-1.4 2.6-4.2 4.2-5.8a14 14 0 0 0 2-2.2c.5-1 1-3.3 1-6.3.2-2.4.3-2.6 1-3.4.8-.8 3-1.2 3.3-.7 0 .2.5.3 1 .3.3 0 .7.2.8.4 0 .1.6.5 1.2.6 1 .3 1.7 1 2.6 2.6.2.4 2 1 2 .6l-.7-1.6c-.3-.8-.9-2.3-1.2-3.5-.8-2.9-1.8-4.6-2.6-4.6-.9.1-1-.7-1-4.3 0-2.4.2-3.3.7-4.5l.5-1.5-.6-1.3a7 7 0 0 0-1.6-2l-1-1c0-.7-1.8-1.6-3-1.6-.9 0-1.5-.1-1.8-.4-.4-.4-1-.5-2.5-.5-4.2.1-12.6 2.2-11.5 2.9l1.4-.5c.9-.5 2-.7 4.9-1 3.8-.5 4.5-.5 6.1.4.8.4 1.3 1.5 1 2 0 .2.1 1 .4 1.8.7 1.7.6 2.3-.4 2.2a8 8 0 0 0-1 0c-.1 0 .3.6 1 1.4.7.7 1.2 1.5 1.2 1.7 0 .2-.7 1-1.6 2a31.6 31.6 0 0 0-4 4.6c-.5.5-.8 1-.7 1 0 0 1.3-1 2.8-2.5 1.5-1.5 3-2.6 3.1-2.6.6 0 .5.9-.1 1.4-.3.3-.5.6-.4.7.1.2.3.2.5 0 .4-.4 1.2-.4 1.2 0l-.5 1.2c-.3.4-.6 1.1-.6 1.6 0 1-.4 1.1-1 .6-.2-.3-.5-.2-1.1.5-1.1 1-1.7 1-2 .1l-.2-.6-1.2 1c-1.8 1.4-3.2 1-2.3-.8.4-.9.4-.9-.3-.9-.6 0-.7 0-.7-.8 0-.5 0-.9-.2-.9l-1.2.8c-1.2.9-1.7 1-2.1.5-.4-.4 0-1.7.7-2.5.7-.7.7-.9 0-.7-.8.2-1.2-.8-.7-1.8l.8-1c.3 0 .4-.2.4-.3 0-.2-.2-.2-.5 0-1.7 1-2.3-.5-.9-2.2.4-.4.4-.4 0-.3l-1-.1c-.2-.2-.2-.4.2-1 .3-.5.6-.9.8-.9.1 0 0-.2-.3-.4-.5-.3-.5-.4-.1-.7.2-.3 1.5-1 2.9-1.7 2.6-1.3 2.7-1.7.3-1.2-2 .5-4 1.6-4.2 2.3-.2 1-1 .8-1.6-.5-.5-1-.6-1.2-1.7-1.3-1.2-.2-1.5-.5-3.2-2.6-.6-.7-.7-.8-1.1-.5l-.4.5c0 .6 4.3 6.7 5 7 .8.6 1 .8 1.2 2.8l.3 2.2c.2 1-.3 2.2-1.3 3.4-.6.6-1.4 2.9-1.3 3.8.4 5.5 1 7.8 2.2 10.1.4.9.5 1.4.3 4.7-.2 6.6-.6 8.3-2.4 12-1.7 3.6-2.3 4.4-3.6 5-1.2.5-1.9 1.3-1.9 2.5l-.3 3.7c-1.5 11.5-1.5 12.7.1 14.3.6.7 1 .7 2.3.7.8 0 2.3-.2 3.3-.5zm-4.1-16a1 1 0 0 1 0-1c.4-.9 1.6-2 2-2 .5 0 .3.9-.4 1.6-.3.3-.6.7-.6.9 0 .2-.2.5-.4.6-.3.3-.4.2-.6-.1zm11.2-15.4c-.3-.3-.2-2.2.1-2.7.4-.8.8-.4.8 1 0 1.2-.5 2.1-.9 1.7zm.6-8.2c0-.4.4-1.5.8-2.5.5-1.2.8-1.7 1.2-1.7.7 0 .6.5-.5 3-1 2-1.5 2.4-1.5 1.2zm14-19c-.4-1.1-.4-2.3 0-2.4.3-.2.7.6 1 2.1.1.8 0 1-.2 1s-.6-.4-.7-.8zm-40.3 51.9c.6-.2 1.4-.4 2-.4 1 0 1-.2.2-1.2-.6-.7-.5-1.3.2-1 .3 0 .4 0 .3-.2-.3-.4-2-.3-2.6.2-.8.6-1.4 0-1.2-1.2a57.6 57.6 0 0 1 5.2-13.1c0-.7 1.4-2.7 3.3-4.5l2.5-3c.6-1 1.5-1.9 2.6-2.7 1-.6 2-1.5 2.4-1.8l1.7-1a3 3 0 0 0 1.2-.8c.1-.3.6-.5 1-.6.7-.2.8-.3.9-1.9 0-1.4-.1-1.9-1-4.2-1-2-1.2-3-1.2-4.3 0-1-.2-2.2-.4-2.7-.6-1.7 0-3.2 2.2-7 1-1.5.9-2.5-.4-4.2a9.3 9.3 0 0 0-1.3-1.4l-1.5.7c-1.6.7-2.6 2-3 3.7-.2.5-.3 2.6-.4 4.6-.1 3-.3 4-.8 5.6a6.4 6.4 0 0 0-.5 3.3c.1 1.4 0 1.5-.9 2.8-.6.7-1.2 2-1.5 2.6-.2.7-.6 1.3-.7 1.4l-.2.7c0 1-.9 2.2-3.5 5-3.8 4-3.7 3.9-4.2 7l-1.4 5.5a28 28 0 0 0-1.3 5.7c-.3 2.6-.4 2.8-1 2.8-.4 0-.5 0-.7 1.3-.2 2 0 2.7 1.4 3.7 1.4 1.1 1.2 1 2.6.6zm2.6-18.9c-.2-.5 1.2-3.2 1.7-3.4.5-.2.4 1.1-.2 2.6-.6 1.3-1.2 1.6-1.5.8zm-7.7 18.8h-.8c-.2 0 0 .1.3.2.5 0 .7-.1.5-.2zm94.5-8.7 1.6-.4c.7 0 .7 0 .3-.7l-1.1-1.4c-1-1-.8-1.4.4-1.2.9.1 1 0 1-.2s-.2-.6-.6-.8c-.5-.4-.7-.4-1.7 0-1.4.6-1.6.8-1.4 1.9.1.7 0 .9-.4.9-1 0-1.7-1.4-2.1-4.3-.2-1.3-.3-1.4-1-1.6h-1.4c-.7.1-.7-.2 0 4 .2 1.2.6 2.6.8 3 .3.8.4.9 1.4.8l1.7.1c1 .4 1.4.4 2.5 0zm-23.6-4.2c.6-.2 1.8-.4 2.6-.4 1.1 0 1.6-.1 1.6-.4 0-.6-.8-1.2-1.5-1.2-.5 0-.6-.1-.6-.5 0-.6.8-1.1 1.3-.8l.8.3c.9 0 .5-.5-.7-1-1.2-.4-1.2-.4-1.8.1-1.4 1.3-2 .5-2-2.5 0-1.9 0-2.2-.5-2.3-.7-.2-2.5 1-3 1.9-.3.7 0 2.7.4 3.6.1.3.5.7.8 1 .5.4.5.5.1 1-.6.6-.6 1 0 1.3.6.4 1.1.4 2.5-.1zm18.3-7.3c0-1.5-.2-2.3-.5-2.6-.3-.4-.4-1.4-.4-5.6 0-5.3-.4-9.7-1.2-12.4-.8-2.9-1-3.6-.9-5.3.1-1.2.3-2 .6-2.3a18.2 18.2 0 0 0 2-8.3c0-2 0-2.3-.6-3-.7-1-.6-1.3.4-1.6.7-.1 1.3-1.2 1.3-2.4 0-.8-2.6-3-4.7-4.1-1-.5-1.9-1-2-1.2-.3-.4-.2-1.2.2-1.3.4-.2 4.1 1.8 6 3.1l.7.5c.4 0 1.2-2.7 1-3.1-.1-.4-.4-.4-1.8-.3-1.5.2-1.7.1-2.2-.4-.3-.3-.8-1-1-1.5-.3-.4-.6-.8-.8-.8l-2-1c-1-.7-2-1.1-2.2-1.1l-.7-.4c-.7-.6-3-1.4-4.7-1.8-1.6-.3-1.7-.3-2 .1-.3.6-.8.6-1.3 0l-.9-.3c-.9 0-2.9 1.7-4 3.4-1 1.6-1.7 2.1-2.6 1.8-.4-.2-1.5.7-1.5 1.2 0 .4-1.4 1.6-2.5 2-.5.2-.9.5-.9.6 0 .1-.5.5-1.2.8-1.1.5-1.2.5-3.3 0a22.8 22.8 0 0 0-10.4.4c-1.7.2-1.5.7.4.8 1.4.1 1.6.2 2.8 1.3.7.6 1.2 1.4 1.3 1.8 0 .3.2 1 .4 1.3.8 1.2 1 2.5.8 3.3-.3.7-.3 1 .2 2.4.4 1.1.5 2.3.5 3.7 0 2 0 2.1.6 2.3.5.2.5.3.4 1.3 0 .7 0 1.6.2 2.3l.5 1.9c.1.4.5 1 .8 1.5.4.4.7 1 .7 1.5 0 .6.3 1 1 1.8 1 .9 1.3 1 2.6 1 1 0 1.8.1 2 .4.7.4 1.3.4 1.8 0 .4-.4.6-.4 1.4-.2 1.2.4 3.2 0 5-.7l1.8-.6c.6 0 .7-.4.3-.7-.7-.4-.1-.9 2-1.8 2.2-1 2.3-1 2.6-.6l.5.8c0 .1.4.1.8 0 .7-.1.7-.2.3-1.1-.7-1.7 0-4.4 1-4.2.4 0 .6-.1.7-.4 0-.3-.1-.5-.4-.5-1.5 0-1.5-1.4-.1-3.4 1.3-1.9 2.7-3.2 3.6-3.2.8 0 .8.7.1 1-.5.3-2.3 2.7-2 2.7l.7-.3c.3-.2.5-.2.9 0 .3.3.2.6-.6 2.1l-1 1.8v4.2c.1 3.6.2 4.3.6 5l.7 1.5c.2.5.1.6-.4.5-.6-.1-.6 0-.6 1.4 0 1.8.8 3.2 1.6 3.3.3 0 1 0 1.6-.2.6-.2 1.2-.4 1.4-.3.5.2.3 1-.4 1.6-.8.8-.8 1.2-.2 1 1-.2 1.3.2 1 1.2-.3.7-.3 1 0 1 .3.2.4.7.4 1.6v1.3h1c1 0 1.2.6.3 1.2-.2.1-.7 1-1 1.9l-.5 1.6.6 1c.8 1 1 1.1 2.5 1.1h1l-.1-2.3zm-18.6-23.6c0-.5.5-1 2.2-2.2 1.7-1.3 2.4-1.4 2.6-.7.2.7-.2 1.4-.9 1.4a5 5 0 0 0-1.8 1c-1.3.9-2.1 1.1-2.1.5zm-8.2-3.4V113c0-2.5 0-3.3-.8-5.7-1-3.6-2-5.6-2.8-6.2-.7-.5-.9-1-.2-1.3.6-.2.8-.2 1.4.5 2 2.2 3.8 9.1 3.5 13.8-.1 2.3-.2 2.5-.7 2.5-.2 0-.4-.1-.4-.3zm9.1-1.6-.2-3.4c-.2-3-.7-5.2-2-7.8a7 7 0 0 0-1.4-2c-.5-.4-.6-.6-.2-.8.9-.5 2 .8 3.4 4.3 1.3 3 1.7 4.9 1.5 7.9 0 1.9-.1 2.3-.5 2.3-.3 0-.5 0-.6-.5zm-5.3 0v-1.9c.4-3.2-1-10.5-2.1-11.8-.5-.6-.5-1.3 0-1.3 1.7 0 3.7 8 3.2 12.8-.2 1.7-.7 2.9-1 2.3zm-7-2.2c-.2-.1-.3-1-.3-1.8 0-2.5-.6-5.5-1.6-7.4-.8-1.8-2.5-3.6-3.3-3.6a.4.4 0 0 1-.3-.4c0-.5 1-.5 2 0 1.4.6 3 3.4 3.8 6 .4 1.6.5 7.1 0 7.3l-.4-.1zm16.9-.3c-.5-.4-.1-1.2 1.3-3.3 1.7-2.6 3.2-4.2 3.8-4.2.8 0 .9.6 0 1.3-1 .9-3.3 3.8-4 5.3-.5 1-.8 1.3-1.1.9zm-.8-6.9c-.4-.4-1.4-2-2.4-3.6l-1.7-3-.8-.2c-1 0-1-.7 0-1 1-.4 1.8 0 3 2l2.3 3.8c1 1.6 1.2 2 1 2.3-.5.6-.6.5-1.4-.3zm-19.7-.7-1.3-2c-.3-.6-1-1-2.5-1.9-1.6-.8-2.1-1.2-2-1.5 0-.8.9-.7 2.5.3l2.2 1.2c.8.3 3 4 2.7 4.7-.3.6-.8.4-1.6-.8zm24.5-11c-.2-.1-2-.6-4.1-1-3.6-.9-3.9-1-5-2-1.3-1.3-1.5-2.1-.5-2.2.4-.1.6 0 .8.6l.4.7.5-.8c.4-.8.6-.8 1-.6.3.1.7.5.8.8.2.3 1 .9 2 1.4 1.4.6 2 .7 2.3.5.9-.3 2.6 0 2.8.4l.2 1.4c0 1-.4 1.3-1.2.8zM55.3 142a184.5 184.5 0 0 1 11.6-1.5 4 4 0 0 1 1.5-.2c1 0 1.2-.2 2.8-2l2.5-3a14 14 0 0 0 3.1-4.8l1.6-3c.4-.5.7-1.5.8-2.2l.9-4c.4-1.7.7-3.3.7-4.6 0-6.3 0-6.5 1-7.5.3-.4.8-1.3 1-2a8 8 0 0 1 1.3-2.3c.6-.7 1-1.5 1-1.8 0-.3-.5-1.2-1.1-2a6.6 6.6 0 0 1-1.2-1.8c0-.4-.6-.4-4.3.3-1.3.3-4 .5-5.9.6-1.9 0-6.3.4-10 .9-14.3 1.8-15 2-16.5 3.1l-.8.7-.3 5.5c-.3 7.3-.2 23.3.2 26.3a14 14 0 0 0 2.2 5.8c.3.4 1.4.3 7.9-.5zM48 107.3c0-.3.2-.5.5-.6 1-.3 3.3-.7 5.4-1 2-.2 2.4-.2 2.6 0 .4.8-.4 1.1-3 1.4l-4 .4c-1.2.2-1.5.1-1.5-.2zm84.4 33.5a4 4 0 0 1 1.8-.5l1.3-.2v-1.6c0-1.6.8-5 1.2-5.8.3-.6 1-3.3 1-3.8 0-.2-1-.4-3.7-.6-3.5-.3-3.8-.3-4.1.1-.4.6-.2 1 .5 1 .8 0 1.6.5 1.4 1l-1.1.2c-1.5 0-1 .6.8 1 1.6.3 2.2.8 1.7 1.4-.2.2-.7.3-1.7.1l-1.4.1c0 .2.4.3 1.1.3 1.5 0 2 .2 2 .9 0 .6-1 .9-2.2.6l-1 .1c-.2.2.2.3 1 .3 1.3 0 1.4.1 1.2.8 0 .4-.3.5-1.4.5-1.4 0-1.7.4-.5.8 1 .3 1.1 1 .2 1-.6 0-.7.2-.6 1 0 .6 0 1.2.2 1.4.4.4 1.8.4 2.3 0zm-48.5-2c.9-.3 2.2-.5 3-.6 1.8-.3 2.1-.6 2.3-2.3.2-1.8-.2-2.2-1.4-1.3a3 3 0 0 1-1.2.5c-.3 0-1.3.7-4 2.7-1.9 1.4-1.6 1.6 1.3 1zm65-.9c0-.4-.8-1-1-.8-.3.2.4 1.5.7 1.3l.2-.5zm-40.3-5c1.8-.4 3.9-.7 4.7-.7.8 0 3.3-.3 5.5-.7 3.6-.6 4-.7 4.7-1.4.8-.9.9-1.3.3-2.4-.6-1.1-1.2-1.4-4-1.4-3.5-.1-5.6-1-6-2.7 0-.3-.5-.6-1.8-1-1.6-.6-1.8-.6-2.3-.3-.3.2-.5.7-.5 1 0 .4.1.5 1 .5 1.2 0 2.2.5 2.3 1 .1.5 0 .5-1.2.5-.8 0-1.4.2-1.6.4-.3.3-.6.4-1 .3-.7-.1-.8 0-1 .8l-.1 2.1c0 1.1-1 3-2 3.8-.3.3-.6.8-.3.8l3.3-.6zm-65-6.7-.1-6.8a91 91 0 0 0-.4 11.1c.2 1.7.4 2.5.6 2.5v-6.8zm83.1 3.9h1.2v-1.4l-.1-1.4-1.1-.2c-1.8-.3-2-.2-1.8 1.5.2 1 .1 1.5-.1 1.5s-.3.1-.3.3c0 .2.2.2.5 0s1-.3 1.7-.3zm13.6-4.1c.7-.3 1-.4 1.7-.2.6.3.8.2.8-.1 0-.7-.9-1.6-1.6-1.9-.9-.3-2.8.3-3.6 1-.3.4-1.2.8-2 1-.9.3-1.5.5-1.4.7.3.4 5.1 0 6.1-.5zm-2.6-3 .8-.6c0-.3-.2-.3-1.4.3-1.2.5-.7.7.6.2zm-39.2-11.5 2.7-2.2.7-.6h-.7c-.4 0-1.3.6-2.7 1.8a19 19 0 0 0-2.3 2.5c-.4.7-.1.5 2.3-1.5zm2.5.9c.5-.4.8-.9.7-1-.1-.1-.7.2-1.2.8-1 1.2-.8 1.3.5.2zm3.4-3.2c.3-.3.5-.6.4-.7-.2-.2-1.5.6-1.5 1s.5.3 1.1-.3zm-5.3-1.4 1.8-1.4c1.1-.7 1.3-1.1.4-.8-.6.2-3.5 2.8-3.1 2.8l1-.6zm-.8-2.2c1.5-1 3-1.7 3.2-1.8.6-.2.7-.7.1-.7-.8 0-7.2 4.2-6.3 4.2.1 0 1.5-.7 3-1.7zM45 102.2c.2-.6.3-.7 1.9-.7l5.6-.6a274.7 274.7 0 0 1 19.8-2.7c2.2 0 5-.2 6.3-.3 4.3-.2 4.2 0 3.1-7.4-.2-1.5-.2-2 .2-3 .6-1.7 1-2.4 2.1-2.8.7-.3 1-.5 1-1 0-1.2.8-2.6 1.5-2.7.8-.2 1.3-1.3 1.3-2.7 0-1.3.5-2 1.2-1.8.5.1.7 0 .8-.6v-1.2c-.2-.1-.3-2-.2-4.3 0-4.6-.3-9-.7-9.5-.2-.2-.8-.4-1.3-.4-.6 0-1.5-.2-2-.4-.6-.2-1.3-.3-1.8-.2a110.6 110.6 0 0 0-29.6.2h-3c-2.8-.2-3 0-2.4 2.4.4 1.8.6 5.3.6 9.2 0 3 .4 1.8.6-2.6.2-3 .2-4.2 0-4.6-.4-.7-.1-2 .4-2.2.2-.1.6 0 .8.2.4.5.4 3.9-.2 13.4a125 125 0 0 0 .1 24.2c-.1.5-1 .5-1.3 0-.4-.5-.7-6.3-.6-12 0-3.4-.1-6-.4-8.3l-.6-8.1c-.1-4.2-.2-5-.6-5.4-.5-.5-.5-.9-.4-2.4.2-2.1-.2-3.6-1-3.8-3-.6-6.4-.8-6.7-.4 0 .2-1.4.3-3.9.1-3.2-.1-3.9 0-4.8.3-2 .9-2 .7-1.8 6 .1 3.4.3 4.7.5 4.8.6.3.4 1-.2 1-.5 0-.5 0-.4 2l.7 10.2c.6 8.7.8 11.8 1.2 13.1.4 1.3.4 1.4 0 2-.3.4-.4.8-.4.9l2 .3c1.6.1 1.7.1 1.8-.5 0-.6.2-.6 1.7-.7 1.5 0 1.6-.1 1.9-1 .6-1.6.6-6.6.2-13.7-.5-6.6-.5-16.2 0-17.6.2-.6.7-.8 1-.2 0 .2 0 1.4-.2 2.7-.2 1.6-.2 4.4 0 9 .7 14.4.7 14.8.3 17.5l-.5 3c-.2.4 0 .5 1.2.8 1 .2 1.7.6 2.2 1 .4.5 1 .8 1.2.8.2 0 .6.3.9.7.2.4.4.6.5.6l.4-.6zm-12.5-3c0-.4.2-.6.6-.6.3 0 .5.2.5.5 0 .4-.2.6-.5.6-.4 0-.6-.2-.6-.6zM32 97a318.7 318.7 0 0 1-.4-12.3c-.2-4.7.2-11.6.7-12.1.5-.6.6.2.3 3.3-.2 2.4-.3 4.6 0 8 .3 6.4.5 12.5.3 13s-.9.5-1 0zm3.3-.2v-2c.2-1.4-.5-8.9-.8-9.4-.3-.5-1-9.4-.9-12.7.1-3.6.2-3.8.6-3.8.5 0 .5.2.6 4.8 0 3.7.2 6.3.8 10.4 1 7 1 13 .1 13l-.4-.3zm6-2.5-.4-11.8c-.4-10.8-.4-15.5.1-15.8.1 0 .3 0 .5.2.3.4 1 27 .7 27.5-.2.4-1 .3-1 0zm28.7-3v-5a75.8 75.8 0 0 1-.7-15.8c.1-.4.4-.7.5-.7.1 0 .3 2 .4 4.4 0 2.4.3 7.7.6 11.8.4 7.4.4 8.6-.3 8.6-.3 0-.4-.5-.5-3.3zm-25.3 2.9-.2-4.3c-.3-6-.2-22.9.2-23 .5-.1.6 1.7.7 10.4.3 17.8.3 17-.2 17l-.5-.1zm18.9-2.4c-.2-.1-.5-.6-.7-1.1-.7-1.6-.8-3.8-.4-7.3l.5-4.5c0-.7.2-1 .5-1 .6 0 .8 1.8.3 4.3s-.4 4.7.2 7c.7 2.5.5 3.2-.4 2.6zm11.1-1.4c-.3-.5-.3-24.3 0-24.3.4 0 .7 1 .7 2.5v5.8l.1 10c.2 4.9.2 5.7-.2 6-.3.2-.4.2-.6 0zm29.1 10.9c0-.2-.3-.3-.4-.3-.2 0-.2.1 0 .3.5.3.6.3.4 0zm-74.2-1.8-.9-1.1v.3c.2 1 .6 1.5 1.1 1.5.3 0 .3-.2-.2-.7zM28.3 95a371 371 0 0 1-1.1-9.6c-.5 0 .3 9.5.8 11 .4 1 .5.7.3-1.4zm56.3.2c.1 0 .4-.9.6-2 .4-2.5 1.1-3.8 2-3.8.8 0 1-.5 1.5-2.1.4-1.6 1-2.3 1.7-2 .3 0 .4.3.3 1.3v1c.5-.2 1.8-3.1 2-4.2.1-.5.4-1 .7-1.3.2-.2.7-.7.9-1.2.4-1 .4-1-.3-2.7L93 76c-.2-.5-.3-.3-.8.8-.4.8-.8 1.5-1 1.5-.3.1-.4.4-.3.7a.8.8 0 0 1-1.2.9c-.4-.3-.5-.2-.7.4-.3 1.3-1.2 2.4-1.8 2.4-.6 0-.7.2-.9 1.3-.3 2.1-.5 2.4-1.5 2.4-1.4 0-1.6.7-1.2 5.1.3 3.6.5 5.1.7 4.1 0-.2.2-.4.3-.4zm71.7-3.8c.3-.4.5-3 .2-4.4-.2-.6-.1-.8.2-.8.2 0 .9-.3 1.4-.7l1.3-.6c.3 0 1-.8 2.4-2.2.5-.7.6-1 .6-2.4 0-1.5.5-2.1.8-1 .1.7.1.7 1.3-.3 1-.7 1-.8 2.4-.5l2.3.3c.7 0 .9-.1.7-.5-.1-.4 0-.4.2-.2 1 .8 1.6.7 3.1-.8.8-.8 1.4-1.6 1.4-1.7 0-.1-.3-.4-.7-.6-.5-.2-.7-.5-.7-1 0-.8-.2-.9-.8-.6l-.8-.1c-.4-.4-1.2-.4-1.3 0 0 .2-.2.2-.6 0-.5-.5-4-1.2-4.4-1l-.2.8c0 .5-.1.6-.8.6-.7 0-.8.1-.8.7 0 .5-.1.7-.6.7-.4 0-.7 0-.8.2V75c0-.1-.2-.6-.6-1-.6-.5-.7-1.4-.1-1.4l.5-.5c.2-.5.2-.8-.2-1.4-.6-1-1.2-1-1 0 .2 1-.3 1-1-.2-1-1.5-1.8-2-2.5-1.3-.2.2-.2.4.3.6.9.4.7 1-.5 1.7l-1 .5h.8c.7 0 1 .2 1.3 1 .2.5.7 1.1 1.1 1.4.5.2.9.6.9.7 0 .2.3.5.6.8.8.5.9 1 .1.8-.5-.2-.5-.1-.4.6.5 2.2.1 4-1.1 5.6-.7.9-1.4.5-1.7-1-.2-1.1-.2-1.2-.8-.7-.4.4-.5.7-.4 1.8.2 2.3-.4 2.7-1.4 1-.6-1-.7-1.1-1.1-.7-.4.4-.4.5.1 1 .5.4.5.6.2.9-.3.2-1 .2-3.8-.3l-3.4-.6-.5.5c-.3.5-.5.5-1.7.3l-1.3-.1.5.6 1.5 1c.5.2 1.6.8 2.4 1.4.9.5 1.7 1 2 1 .5 0 1.6 1 2 1.8.3.5.7.8 1 .9 1 .1 3-.1 3.4-.4zm-7.6-5c-1.1-.3-1.5-.5-1.5-.9 0-.7 1-.8 2.6-.1.9.4 1.3.7 1.3 1 0 .7-.5.7-2.4 0zM159 73.7c0-.5.5-.8.8-.4.2.1.1.3-.2.5-.5.3-.6.3-.6 0zm-19 10.7c.2-.1.1-.2 0-.2-.2 0-.3 0-.3.2l.1.3.3-.3zm.8-1.2v-.5c-.3-.3-.3-.5-.1-.7l.4-1.3c.2-1 .1-1-.3-1-.7 0-1 1.3-.7 2.7.1 1 .4 1.2.7.8zm7.2-.9V82c-.2 0-.4.2-.5.3v.3c.2 0 .4-.1.5-.3zm-52.2-1c.3-.3.4-.6.3-.6-.2 0-1.1 1-1.1 1.2 0 .3.4 0 .8-.5zm49.7.4c0-.3-.1-.4-.3-.4-.1 0-.2.1-.2.4 0 .2 0 .3.2.3s.3-.1.3-.3zm22.9-.1c1.3-.2 1.6-.3 1.6-.7 0-.6 0-.6-2.1-.4-.5 0-1 .2-1.1.4-.1.2-.6.4-.9.4-.4 0-.7.3-.8.5 0 .2.1.3.8.1l2.5-.3zm-13.4-.2c.3-.3.2-.5 0-1-.4-.6-.7-.6-.9 0 0 .1-.3.3-.5.3l-.7.4c-.2.3-.1.4.6.5l1 .1c.1 0 .3 0 .5-.3zm-2-2.4c.2-.1.7 0 1 .1.3.2.5.2.5 0l1.5-2c1.2-1.6 1.4-2 1.3-2.6 0-.4-.3-.7-.4-.7-.7 0-7.6 3.6-7.4 3.9l2.3-.7c2.6-1 3.2-1 3.2-.2 0 .3-.5.7-2 1.4l-2 1.1c0 .1.9 0 2-.3zm-6.8-.5c.5-.4.4-.4-.7-.3-1.5.2-2 .7-.8.7.5 0 1.2-.2 1.5-.4zm11.3 0v-.6c-.1-.2-.9.4-.9.7 0 .5.7.3 1-.2zm-15.3-1.2c1-.6 1-.7.5-2-.2-.4 1.8-2 3.3-2.8 1.8-.9 1-.9-1.2 0-1.7.8-2 1-2.4 1.8a5 5 0 0 0-.3 1.6c0 .4-.3 1-.6 1.3-.7.8-.4.8.7 0zm6.2-.4c.4-.5 0-.5-.7 0-.4.3-.4.4 0 .4l.7-.4zm7.3-6.9c.1 0 0-.2-.2-.3-.4-.1-3.4 1.1-3.4 1.5 0 .2 3.3-.8 3.6-1.2zm-11 .1c1.8-.9 4.3-2.4 4.2-2.5l-1.6.4c-.8.3-1.7.6-2.1.6-.4 0-.7.1-.8.4l-.3 1c-.3.5-.1.5.7.1zm15.6-.3-.2-.3c-.2-.1-.3 0-.3.1 0 .2.1.3.3.3l.2-.1zm-9.6-1.1c.5-.2.9-.5.9-.7 0-.1-.3-.1-.7.1-1.8 1-1.9 1.3-.2.6zm5-1.7c0-.1 0-.4-.3-.6l-.4-.1-.1.5c-.2.5.5.6.8.2zm6.5-.9c-.1-.2-.3-.6-.3-1 0-.9-.7-2.4-1.2-2.5a9 9 0 0 1-1.2-.6c-.7-.3-.8-.3-.8.2l.4.8c.2.2.4.7.3 1.2 0 1 .3 1.5 1.3 1.8.2 0 .4.3.4.5 0 .6.6.7 1 .3.4-.3.4-.4.1-.7zm-4-1.4c0-.7-.8-.4-1 .3l-.3.8c0 .3 1.3-.8 1.3-1.1zm-11 .7c.1-.2 0-.3-.3-.3s-.6.1-.7.3c-.1.1 0 .2.3.2s.6 0 .7-.2zm-.8-2.7c.6-1 1.3-1.4 2.2-1.2.4 0 .7 0 .8-.3.2-.5 0-.6-1.6-.2-1.7.3-2.3.9-2.3 2 0 .8.4.6.9-.3zM88.9 59c.7-.4.6-.6-.5-1.3l-1.3-1-.6-.3-.8-1.1c-.8-1.5-.7-1.4-1.1-1l-1.8.4c-1.1.1-1.3.1-1.3-.3 0-.5 1.4-1.2 2.3-1.2.7 0 .7-.2 0-1.6l-.5-1.6c0-.2-.4-.9-1-1.5-.9-1-1.9-3.1-1.9-4 0-.3.4-1 .9-1.5l1.2-1.6c.4-.7 1-.6 1.3.2.2.5.4.4 1.9-1 1.6-1.6 1.6-1.6 1.6-3 0-1.6-.3-2.1-1.7-2.6-.5-.1-.8-.4-.9-.8 0-.5 0-.6.7-.6 1.2 0 2 .5 2.7 1.5.8 1.2 1 3.4.4 4.6-.5 1-.5 1 0 1 .2 0 .4.3.4.6l.1.5 2.2-1a51 51 0 0 1 3-1.5c.6-.2 1.6-.8 2.2-1.4 1.2-1.2 1.7-1.3 2-.7.2.7-1.5 2.2-3.4 3.1-1 .4-2.1 1-2.6 1.4-.6.3-2 1-3.4 1.4a27 27 0 0 0-4.2 2c-2 1.2-2.4 1.9-1.6 2.5l.4.8c0 .2.3.7.7 1 .5.4.9 1 1 1.2 0 .3.2.3.5-.2l.9-1c.4-.4.4-.5 0-1-.2-.5-.2-.6.5-1.2l2-1.2c7-3.3 8.7-4.2 8.8-4.7.1-.3.6-.8 1.2-1.2l1.4-1.4 1.3-1.7c1.4-1.5 3.4-2 3.4-.9 0 .7 1.2 2.9 2 3.6.6.6.9.7 2.6.6 1 0 2.2-.2 2.6-.5.6-.3 1.3-.3 2.7-.2 2 .2 2 .2 3-.7.6-.5 1.1-1.1 1.1-1.5l.5-2c.9-2.4 1-3.4.3-4.8-.5-1.2-.5-1.3-1.1-.8-1 .6-1.3.7-1.6.4-.2-.1.1-1 1-2.6.8-1.3 1.4-2.5 1.4-2.7 0-.1-1-.3-2.1-.3-2 0-2.2-.1-2.2-.6 0-.7 1.2-4 1.5-4.3l.2-.7c0-.7-1-.6-3.4.6-2.1 1-2.5 1.4-1.9 2 .4.4 0 1.2-.7 1.2l-2 .8-1.5.8-2.6-.5c-3-.4-4.2-.5-5-.2-.4.1-.4.3-.3 1.6 0 .8.3 1.8.6 2.1.4.7.5 1.6.1 1.9-.7.4-2.6-2.9-2.6-4.6 0-1-.4-1.1-1.3-.4-.5.4-.7.9-.8 1.8 0 1.3 0 1.4.6 1.9.4.2 1 .9 1.2 1.4.3.5.7 1.1 1 1.3.3.4.5.3 1-.3.2-.4.6-.7.8-.7.6 0 .5 1-.4 2.8-.4.8-.8 1.8-.8 2.2 0 .5-.2.8-.5 1-1 .2-1.3-.4-1.4-2.3-.2-2-.6-2.9-2.4-5-.6-.5-1-1.2-1-1.6 0-1.4-.3-2.1-1.1-2.4-1-.4-3.8-.4-4 0-.2.3-4.2.3-6.4 0A227 227 0 0 0 71.6 23c-1.2 0-1.4 0-1.5.6-.1.7-.3.7-2.2.9-1.3.1-2.5.4-3.2.7-.6.4-1.7.8-2.5 1.1a27.6 27.6 0 0 0-8.7 4.6c-1 .2-5.1 2.7-5.1 3 0 .4 1.6 1.9 2.2 2 .3.1.6.1.8 0 .2-.2 1.2-.3 2.2-.3 2 0 2 0 3.1 1 1 .8 1.2 1.3 1.2 1.9 0 1-.5 1-2.2 0-.7-.3-1.4-.5-1.5-.4-.4.2-5-.7-5.9-1.2-.7-.4-.7-.4-1.2.2a68 68 0 0 0-4.3 6.2c-.4.5-.5 1.2-.5 2.6 0 2-.3 2.9-1 2.9a19 19 0 0 1-3.2-2.8 42.7 42.7 0 0 0-6.3-5.5A30.9 30.9 0 0 1 25.3 29c-.4-.6-1-2-1.5-3.2-.8-2-2.2-4-3.8-5.5-1.4-1.2-1.6-1-1.4 1 .4 3.8.6 4.6 1.4 5.5 1.3 1.7 1.8 2.4 2.8 4.2.8 1.4 1 2 .8 2.6 0 .6 0 1 .6 1.8.3.5.7 1.3.7 1.7 0 .5.5 1.6 1.4 3a9.4 9.4 0 0 1 1.5 2.7c0 1.2 4.7 6.7 6.5 7.5.6.3 1.8 1 2.5 1.8a12 12 0 0 0 5.8 3 4 4 0 0 1 1.8.6c.5.4 2 1 3.5 1.5l2.5 1h8l8.1-.3c.2-.1 0-.4-.2-.7-1.2-1.3.3-2 1.6-.7.3.4.7.7.8.7.3 0-.1-2.2-.5-2.5-.7-.4-2.9.2-4.5 1.3-1.5 1-1.8 1-2.4.6-.7-.5-.3-1.2 1-1.5 1-.3 1.1-.4 1.3-1.4.2-1 .4-1.2 1.5-1.8.8-.4 1.3-.9 1.3-1.1 0-.3.4-.9.8-1.4.4-.5 1-1.5 1.3-2.3l.6-1.5.2-1.2c0-.5.1-1.3.3-1.6.2-.6.1-.9-.3-1.5-.3-.4-.5-1-.5-1.1 0-.7-1.1-1.3-2.3-1.3-1.3 0-4.7.9-5.8 1.5-1 .5-1.5.5-1.5 0 0-1 4.6-2.8 7.5-2.9 2.2 0 2.8.4 3.8 2.7l.8 2 .7-.6c.4-.4.7-.8.7-1.1 0-1.2 4.3-5.3 5.5-5.3.6 0 .4.8-.4 2a6 6 0 0 0-.8 1.5c0 .1-.4.5-1 .8-.9.5-1.3 1.7-1 3.1.2.6 0 .9-.6 1.3-1.2.7-1.2 1-.2 1.8.7.6 1 1 1.1 2 .2 1.2 1.2 3.2 2.4 4.5.4.4.5.4.9 0 .5-.4 2.2-1.1 2.9-1.1 1.4 0 .5 1.5-1.3 2.1l-.8.5.5 1.6c.7 1.6 2.1 2.6 3.6 2.3.7-.1 1 0 1 .2.1.3.4.4.6.4.3 0 .8.3 1.3.5.9.6 1.8.7 2.5.3zm-35.6-3.4-.7-.6c-.4-.5-.2-1.6.2-2 .4-.5.3-.6-.9-1.1-.7-.4-1.3-.9-1.3-1.1-.1-.5.7-1.5 1.4-1.6.4 0 .5 0 .5.6 0 .7 0 .8 1.3 1.2l2.7.5c1.5 0 2 .4 1.1 1-.4.3-1 .4-2 .3-1.1-.2-1.4-.1-1.4.2 0 .2-.1.5-.3.5-.2 0-.2.3-.1.6.2.5.5.5 4.8.1.7 0 .8 0 .7.5 0 .3-.2.6-.3.7-.3.3-5.1.5-5.7.2zm25.4-4.8c-.5-.5-.4-.7.9-1 .7-.2.7-.3-.2-.3-.6 0-.8-.1-.8-.5 0-.6.5-.8 1.7-.8.7 0 1 .1 1.2.6l.5.7c.2 0 .3.2.3.4 0 .8-2.7 1.5-3.6.9zm-20.1-1.8c-2-.5-5.4-2.6-5-3.2.2-.4 1.2-.3 2 .3 1 .7 2.8 1.6 3.3 1.6.1 0 .4-.2.4-.4.4-1 2.9-.2 2.9.9 0 1-1.6 1.3-3.6.8zM89 39.7c-.4-.3.3-1.1 1.2-1.4 1-.3 1.5-.2 1.5.4 0 .6-2.3 1.5-2.7 1zm28.2-4c-.1-.5-.3-.6-1-.4-.8.1-1 0-1-.4 0-.2.6-.8 1.1-1.3 1-.8 1.1-1 1.8-.6.6.3.6.4.5 1.5l-.4 1.5c-.2.4-.9.2-1-.4zM71.4 57c0-.7.5-1 1-.4.6.5 1.2.5 1.7 0 .2-.3.7-.6 1.1-.8 1.7-.9 2-1 2-1.4 0-.2 0-.4-.2-.5-.1 0-.5-.7-.7-1.4l-1.5-2.5-1-1.4h-4.6l-.4 1.3c-.2.6-.6 1.5-1 2-.7 1-.8 1.1-.2 1 1.4-.6 2.9 1.2 2.8 3.3 0 1.1 0 1.3.5 1.3.3 0 .5-.2.5-.5zm6.9.2c0-.5-.5-1-1-1-.3 0-.8.3-1.1.6l-.6.7h1.3c1 0 1.4-.1 1.4-.3zm128-29.3c0-.4 0-.4-.2 0-.1.2-.3.5-.3.8 0 .3 0 .3.3 0l.2-.8zM35.6 166.4c-.1-.2 0-.4.2-.4 2.2-.8 3.6-1 6.2-1 1.5 0 4.7-.1 7-.3 3.2-.2 4.3-.2 4.5 0 .7.7-.1.8-7.2 1.4-6.8.5-10.5.6-10.7.3zm81-.8c-.5-.4-.6-1-.1-1.2a51 51 0 0 1 8.3.2c.3.3.3.4 0 .6-.5.4-7.6.7-8.2.4zm-70.7-4.3c-1-.8.1-1 4.2-1.3 7.7-.5 10.4-.3 10 .6 0 .3-1.2.4-4.8.6-2.5 0-5.6.2-6.8.3-1.6.1-2.2 0-2.6-.2zm67.2-7c-.4-.9.4-1.2 2.6-1.2 2.4 0 3 .4 2.1 1.2-.6.6-4.5.6-4.7 0zm97.8-15.5c-2.2-.1-2.8-.4-2.5-1.2.1-.3.6-.3 2.3-.2 2.1.2 2.2.2 2.5-.4.4-.6.6-5.8.6-15.8 0-4.9 0-8.2-.5-15a611.7 611.7 0 0 0-.6-39.2c-.2-6-.3-7.4-.7-8-.3-.5-.3-.7 0-1 .2-.3.2-1.1 0-3.8-.3-2.5-.4-4.5-.2-7 .3-4.7.3-7.4 0-11.3-.4-7.3-.5-10.6-.1-10.5.6.2 1 4.2 1.8 14.3V44c-.3 1.8-.3 7.3 0 9.8a113.4 113.4 0 0 1 .7 7.6c.3-2.2 1.2.3 1 2.7 0 .8 0 1-.4 1-.5 0-.5.3-.5 3.7l.1 4c.3.2.5 12.3.5 26.6a171 171 0 0 0 1.3 25.6c.1.6.2 1.6 0 2.2a110 110 0 0 1-.3 5.6c0 2-.1 2.3-.6 2.4-.6.1-.6.1 0 .2.5 0 .6.1.6 1.3 0 1-.1 1.4-.7 1.8-.4.4-1 .6-1.4.6l-2.9-.3zm-94-1c-.4 0-.8-.2-.8-.4s1-.4 3.3-.6a72 72 0 0 1 4-.4c1 0 1.4.5 1 .9-.3.3-5.9.7-7.4.5zm-76.3-.2-.1-2.3a72 72 0 0 0-.3-5c-.7-7.6-.8-9.4-.8-14.6-.1-5.1 0-5.6.3-5.7.3 0 .6.1.6.3l.3 7.1c0 3.7.2 8 .4 9.7.4 3.8.5 10.5.1 10.6l-.5-.1zm133.7 0-2-.4a10645 10645 0 0 0-7.7-1.1c-.7-.2-.8-1-.1-1a114.7 114.7 0 0 1 11 1.9l.2.4c0 .4-1 .6-1.4.2zm23.2-.6c-.7-.2-1.4-.4-1.5-.6 0-.2-.5-.2-1-.1-.5 0-2.4-.1-4.3-.4l-4.7-.6c-2-.2-13.6-2.2-15.1-2.6l-2.8-1c-1-.4-2.4-.7-3.9-.8-3.6-.4-5.7-1.2-5-1.9.2-.2 2.7.2 9 1.5a114.5 114.5 0 0 0 12.6 2.1 14345.1 14345.1 0 0 1 18.7 3.4c.4 0 .7.2.7.7.1.6-.3.7-2.7.3zm-164-3.3-.2-2.4-.5-6.9-.7-8.3c-.1-2.2-.3-3.3-.5-3.5-.3-.2-.4-.8-.4-1.8 0-2.4.4-3.2 1.3-2.7.3.2.5 1.7.7 6.8l.8 10.5c.6 5.6.5 8.7-.2 8.7l-.3-.4zm-9.8-1.7c-.2-.4-.6-8.4-.8-16.2-.2-6.3-.5-10.9-.9-12.9 0-.7 0-.8.4-.8.8 0 .9.2 1.3 3 .5 3.4.7 8 .7 18.2 0 6.8 0 9-.3 9a.6.6 0 0 1-.4-.3zm4.8-.8c-.2-.3-.6-3.7-1.7-13.3l-.5-4.2-.3-4c-.2-3.8.1-5.3.8-4.8.2.2.4 1.4.5 3.4l.4 4c.2 1 .2 1 .4.4s0-2.7-.4-4.3c-.2-1.1 0-1.8.5-1.8.9 0 1 1 1.4 8.3l.4 8.9c.2 1.5-.1 2.7-.5 2.3l-.6-5c-.3-2.7-.5-4.5-.6-4v2.7c.8 8.5 1 11.2.5 11.5l-.3-.1zm-.3-16.9-.1.6c0 .7 0 1 .1.7v-1.3zm-11.2 9-.2-4.6-.7-9.7c-.5-5.5-.5-6.4.2-6.4h.4l.5 4.4c.6 4.5 1 14 .7 15.5-.2 1-.5 1.2-.9.7zm-7.3-4.5c-.3-.2-.7-.9-1-1.4-.9-1.8-.6-2.8.7-2.1.8.5 1 .2.7-1-.3-1-.4-6.9-.2-7.6.1-.2.4-.4.7-.4.4 0 .5.2.5 1.6a110.4 110.4 0 0 0 .6 11c-.2.5-1.5.4-2 0zm145.6-5.1c-.8-.4-.4-.7 1-.9 1.1-.1 1.5 0 1.2.6-.3.4-1.5.6-2.2.3zm9-6.8c-.3-.1-.7-.4-.7-.6-.2-.4 1.2-.4 2.2 0 .6.2.6.3.3.5-.4.3-.9.3-1.8 0zm3.8-1.6c-.5-.5-.5-1.1 0-1.1s1.3 1 1 1.3c-.1.4-.5.3-1-.2zm.2-2c-.1-.6.3-1.1.7-.9.5.3.4 1.2 0 1.2-.3 0-.6-.1-.7-.4zm9.7-.4c-.4-.4-.2-.8.7-1.2l1.3-.4c.8 0 .4.8-.6 1.3-1.2.6-1.2.6-1.4.3zm5.6-.5c0-.6 1.6-1.6 2.2-1.3.4.1.5.2.2.6-.4.4-1.7 1.1-2.1 1.1-.2 0-.3-.2-.3-.4zm-10.2-.8c-.5-.2-.5-1.1 0-1.1.4 0 1 .5 1 1 0 .3-.4.4-1 .1zm2.3-1.4c-.4-.7-.4-1.5 0-1.7.4-.3 1.3.8 1.3 1.6s-.8.9-1.3.1zm3-1.6c-.5-.3-.5-1.5 0-1.7.2-.1.7 0 1 .3.4.4.5.4.5-.2 0-1.6 1.1-1.7 1.4-.1.2 1 0 1.5-.7 1.5-.2 0-.5 0-.5.2 0 .4-1 .3-1.6 0zm5.1-.4c-.6-1.3.4-2.7 1.1-1.5.4.8.3 1.6-.2 2-.5.2-.6.1-.9-.5zM24 98l-2.4-.4c-2.3-.2-3.1-.7-2.5-1.4.3-.5 2.4-.5 3.7 0 .6.2 1 .3 1.1.2.2-.4.4-6.4.2-7-.2-.4-.3.1-.7 2.3-.5 3.2-.7 3.6-1.3 3-.4-.3-.4-.6 0-2.5.2-1.1.4-4 .5-6.2.2-5 .2-5.5.6-5.8l.4-2c.2-2.2.3-2.5.8-2 .4.4 1 10.5 1 16.2-.1 4.4-.2 4.8-.7 5.3-.3.3-.6.4-.7.3zm0-11.5c-.1-.2-.2-.2-.2.2 0 .2 0 .4.2.3v-.5zM193 97c0-.6.9-1.8 1.2-1.8.5 0 1 1.2.8 1.7-.1.5-2 .5-2 .1zM167 95c-.2-.5-.1-.7.2-1 1-1 2.2 0 1.3 1-.6.6-1.1.6-1.5 0zm-4.4-3.7c-.5-.1-.6-.3-.5-.8 0-1 .5-1 1.2-.4.9 1 .6 1.4-.7 1.2zm11.2-2.9-.5-.7-.6.6c-.4.4-.7.5-.8.5-.2-.3.7-1.5 2-2.7a28 28 0 0 0 2-2.1c.5-.7 1-1.3 1.2-1.3.4 0 .3.8-.1 1-.6.4-1.3 1.6-1 2 0 .3-.1.7-.4 1l-.7 1.4c0 1-.6 1.2-1.1.3zm-56 .2a75.5 75.5 0 0 0-.7-6 168.5 168.5 0 0 1-.2-29c0-2.2 0-2.7.4-2.7.3 0 .4 1.4.4 9.4.1 11.8.3 15.7.6 19.5.4 3.6.4 8.7.1 8.8h-.5zm83.4-.6c-.6-.2-1.1-1.2-.9-1.8.2-.4 1.1-.4 1.1.1 0 .2.3.5.7.7.7.3.8.5.3 1-.3.3-.4.3-1.2 0zm-24.8-.5a20.5 20.5 0 0 0 5.9-6.5 5047.7 5047.7 0 0 1 3-4.9c.2-.6.6-1.3.9-1.5.7-.6.8.4.2 1.6l-.6 1.4a50.6 50.6 0 0 1-6.2 8.5l1.2-.2 1.2-.2c.3.4-.3.7-1.8 1.2-2.3.8-3.5 1-3.8.6zm-63.2-.7-.1-1.2c0-1.3.6-1.3.7 0 0 1-.2 1.5-.6 1.2zm-5.6-1-.3-11a203.2 203.2 0 0 0-.4-14.6c.2-.6.8-.6 1 0 .3 1 .7 15.6.6 20.4-.1 4.9-.3 6.2-.9 5.3zm97.4-.6c-.2-.4 0-2.4.2-2.6.4-.4 1 .2 1 1 0 1.5-.8 2.7-1.2 1.6zm-95.6-2.8v-4.3c.5-5.6.1-21.1-.6-25.3-.2-1.2-.2-1.6 0-2 .6-.9 1-.7 1.2.3.7 4.3.7 33.2 0 33.4-.2 0-.4-.6-.6-2zm89.2 1c-.5-.3-.4-.8 0-1 .6-.2 1.4.5 1.2 1-.2.5-.8.5-1.2 0zm-19.7-1.2c-.6-.3-1-1.8-.5-2.2.2-.2.4-.1.7.2.9 1.2.7 2.5-.2 2zm-65.7-.3c-.2-.2-.4-2-.5-4-.2-4.7-.5-27.6-.3-28.4.1-.5.3-.6.7-.6.5.1.6.2.5 1.2a264 264 0 0 0 0 22 67 67 0 0 1 0 9.7c-.2.4-.2.4-.4.1zm84.1-.3c0-.3.2-.7.6-1 .6-.6 1-.8 2-.8s1.3.1 1.2.5c0 .3-.5.5-1.2.7a4 4 0 0 0-1.4.6c-.5.5-1 .4-1.2 0zm.3-2.2-.1-.8c0-.6 0-.7-1.9-.5-2.4.3-3.7 0-3.7-.7 0-.4.1-.5.7-.4h1c.2-.3.4-.3.5-.1.2.3 3 .1 4-.2.4-.2.9-.6 1.1-1l.6-.9s.2 0 .3.3c.2.2.1.6-.1 1-.6.8-.6.8.7.7 1 0 1.1 0 1.1.5 0 .4-.2.6-.8.6-.5 0-1 .3-1.2.5-.1.2-.4.4-.6.4l-.7.4c-.3.4-.6.5-.9.2zm7.3-3.5-.1-3c0-.8.4-1 .8-.1.8 1.7.7 5.4-.2 5.4-.4 0-.4-.3-.5-2.3zm-11.7 0 .9-1.2a26 26 0 0 0 1.6-2.1c.4-.6 1-.3.8.4-.1.5 0 .5.4.2.3-.1.6-.5.6-.7 0-.7.6-1.4 1.1-1.4.4 0 .4.2.3 1.5 0 1.5 0 1.5-.9 1.5-.5 0-1.3.2-2.5 1-1.7 1-2.3 1.2-2.3.8zm.9-4.6c0-.4.5-1 1.7-1.7.9-.5 1.9-1.5 2.2-2 .4-.5.8-1 1-1 1.2 0-.2 2-2.2 3.4l-2.2 1.5c-.6.5-.6.5-.5-.2zm9.4-1c-.3-.2-.2-5 0-5.1.3-.2 1.6 1.3 1.6 1.9 0 .2-.1.7-.3 1l-.6 1.3c-.2 1-.5 1.3-.7 1zm-10-1.8c-.2-.3 0-.8.6-1.9l1-1.6 1.4-1.6c1.2-1.5 1.4-1.6 2.4-1.6.7 0 1.2 0 1.3-.2l1.4-.2c1 0 1.2 0 1.1.5 0 .5-.3.6-1.9.8-1.6 0-1.9.2-3 1.2-1.3 1-3.2 3.6-3.2 4.2 0 .2-.2.4-.4.6-.3.2-.5.2-.7-.2zm-5.6-1.6c0-.2.6-.6 1.2-1.1.8-.5 1.2-1 1.2-1.3-.1-.6 1.3-.7 1.5-.1.2.5-.8 1.5-2.5 2.2-1.3.6-1.4.6-1.4.3zm-2.6-.5.7-.7a31 31 0 0 0 4-3.7c.8-1 1.3-1.8 1.5-2.8.1-.8 0-1-.8-1.6-1.2-.8-.8-1.3.8-1.3 1 0 1.2-.1 1.6-.7.4-.7.4-.8.5-.2.2.5.3.5 1 .3h.9c.1.3 1.1.3 2.4.3 2.2 0 2.3 0 2.6.5.1.3.5.6.8.6.3 0 .7.1 1 .4.4.6-.5.8-4.5 1-3.3.2-3.8.1-3.8-.2 0-.3.3-.5.9-.5l2.6-.4c1.5-.2 1.2-.3-1.8-.2l-3.7.1.2.4c.4.3.5.8.6 2.6v2.2h-.8c-.8-.2-1.1 0-2.4 1.3-2.3 2-4.3 3.3-4.3 2.6zm-12.7-1.9c0-.9 1-1.6 3-2 1.6-.4 2-.6 2-1 0-.2.3-.8.7-1.2l.6-1h-1.1c-1.5.2-1.6-.1-.5-1.3 1.6-1.7 2.7-3.2 2.7-3.6 0-.6-.4-.6-1.7 0l-1.4.6-.7-.6c-.6-.6-1-.7-1-.2l-.3.9c-.3.4-.4.4-1.2 0-1-.5-1-1-.1-1 .7 0 1.1-1.5 1.1-4.3 0-1.5-.1-2.3-.6-3.2-.4-.8-.5-1.2-.3-1.4.8-.8 2.2 2 2.2 4.3 0 .4.2.8.6 1 .5.3.5.4.4 1.7-.2 1.7-.2 1.7 2.2.7 1.1-.4 1.3-.4 1.7 0 .7.5.4 2.2-.4 3l-1 1.4c-.3.5-.2.6.2.8.8.4.7 1-.2 2.3-.5.6-.7 1.2-.6 1.3.2.1 3.1-.4 4.3-.8.3-.1.5 0 .5.3 0 .4-2.9 1.3-6 2-1 .2-2.4.7-3.2 1-1.6 1-2 1-2 .3zm32.5-1.2-.2-3c0-2 0-2.2.4-2.1.4 0 .5.4.6 2.7 0 2.7-.3 3.7-.8 2.4zm-19.5-.4c0-.2.1-.7.4-1.2.6-1.6.5-2-.7-2.9-.7-.4-1-.9-1-1.2 0-.4 0-.5.4-.4 1.1.5 1.3.5 1.4-.2 0-.4.3-.6.6-.6.5 0 .6.2.6 2.3.1 2.2 0 2.4-.6 3.4-.7 1-1.1 1.4-1.1.8zm20.8-1.5c.6-1 1.1-1.5 1.5-1.3 1 .3 0 1.7-1.1 1.7-.5 0-.6 0-.4-.4zm-6-1.6c-.4-.8-.4-.9.1-.9.3 0 .4.3.4.8 0 1-.2 1-.5.1zm6-.4c0-.4 1.8-1.8 2-1.6.3.3.2.9-.4 1.4-.6.6-1.5.7-1.5.2zm-65.6-2c0-.6 1.5-2.4 2.4-2.8.5-.3.8-.6.8-.7 0-.2.5-.7 1-1.3a18 18 0 0 0 3.6-5.8c.1-1 1-1 1.2 0 0 .9-.8 2.4-3.3 5.8-1.5 2-2.3 2.9-2.8 3-.4 0-1 .6-1.6 1.2-.9 1.2-1.3 1.3-1.3.6zm63-.8c-.2-.2-.3-.5-.2-.7.2-.4.4-.4 1-.3.8.2.9.3.7.8-.2.5-.9.5-1.5.2zm-73.7-.4c0-.4.7-.4.7 0 0 .1-.2.3-.4.3-.3 0-.4 0-.3-.3zm7-1.5c-.4-.7-1.3-3-1.3-3.5 0 0 .2-.2.5-.2.4 0 .6.4 1.1 1.9.4 1.3.5 2 .3 2.1-.2.2-.4 0-.6-.3zm32.6-1c0-.1.5-.6 1.2-.9 1.1-.5 1.3-.5 1.6-.1.4.4.4.4 0 .9-.6.6-2.8.8-2.8.2zm33.2-.4a85 85 0 0 1-.5-9.4l.4-.6c.4 0 .5 1 .6 5.6l-.1 4.6c-.2.1-.4 0-.4-.2zm-44-.5c-.2-.7.3-1.1.9-1 .5.3.4 1.4-.2 1.5-.3 0-.5-.1-.6-.5zm-15.7-1 .4-1.3c.6-1.8.5-3.7-.4-6.3a7.9 7.9 0 0 1-.7-2.4c.8-.8 2.6 3.6 2.7 6.3 0 2-.7 4-1.5 4-.3 0-.5-.2-.5-.3zm21.1-1.5-1.4-.2c-1 0-1.3-.1-1.4-.5-.1-.7 2.2-1 3-.3.4.3.7.6.7.8 0 .3-.6.4-.9.2zm-7.7-.4c-.3-.5 1.2-1.8 2-1.8l2.8-.5c2.2-.6 3.1-.7 3.4-.3.3.5-.4.9-2.1 1-1 .2-2.5.6-3.5 1-2 1-2.4 1-2.6.6zm9.4-2.6c-.4-.7-.4-1.8 0-2 .4-.3 1 .4 1 1 0 1.4-.5 2-1 1zm2.7-.6c-.2-.4-.9-3.2-.9-4 0-1 .4-1.4 1-1 .3.3.9 3 .9 4.5 0 .8-.6 1.2-1 .5zm-8.4-.5 1.4-2c.6-.8 1.4-2 1.7-2.7.5-1.2 1.3-1.5 1.3-.5 0 1.2-3.3 5.5-4.2 5.5-.2 0-.3-.1-.2-.3zm10.6-1.2c-.4-.9-.5-1.2-.2-1.5.5-.4 1.3.5 1.5 1.8.3 1.4-.5 1.3-1.3-.3zm-20.9.5-.3-1.3c0-.5-.6-1.6-1-2.2-1.1-1.4-1.2-1.9-.4-1.9.8 0 2.4 2.7 2.5 4.3.1 1 0 1.3-.3 1.3-.2 0-.4 0-.5-.2zm8.8-1.7c-.1-.5 0-.8.2-1 .6-.2 1 .4.7 1.1-.2 1-.8 1-1 0zM214 36c0-.2.1-.4.3-.4.1 0 .3.2.3.4 0 .3-.2.4-.3.4-.2 0-.3-.1-.3-.4z"/>
</svg>
