<?xml version="1.0" encoding="utf-8"?>
<svg xmlns="http://www.w3.org/2000/svg" xmlns:svg="http://www.w3.org/2000/svg" version="1.1" viewBox="0 0 570 243">
  <title>A cat in a dress sits at a table, writing a letter with a quill. On the windowsill behind her are pots of geraniums.</title>
  <path d="M191 242.5c-.4-.2-.5-.6-.5-1.4v-1.2l1.1-.6c.6-.4 2.2-1 3.4-1.2 3.6-1 7-2.1 11-3.8a33 33 0 0 1 4-1.5 89.2 89.2 0 0 1 13.3-4.8 73.3 73.3 0 0 0 6.7-2.1c.3 0 1-.2 1.4-.5.4-.3 1.4-.6 2.2-.8l3.2-.7c.9-.2 2-.6 2.3-.8l.6-.4-.1-1.7a49 49 0 0 0-1.4-7.6c-.4-.3-6.6.2-7.5.7-.6.3-2 .4-7.5.4a106.3 106.3 0 0 0-13.4.7l-6.2.2c-2 .2-3.2.1-3.5 0-1.2-.7-7.1-.6-12.2.1l-5.5.6a236.5 236.5 0 0 0-18.9 2c-2 .7-3 .3-2.6-.9.3-.7 1.8-1.4 3.2-1.4.9 0 2.8-.3 4-.7.1 0 2.3-.2 4.7-.2a235 235 0 0 0 19.1-1c5-.4 6.5-.6 7.1-1l.8-.4-4.2-.1-4.2-.2-.4.5c-.3.3-1.2.5-2.8.6-1.3.1-2.6.3-2.8.5-.4.1-1 0-2.3-.4-1.1-.3-2.1-.5-2.5-.4l-3 .4-5.2.7-4.5.4-2.8.2c-.5.2-2 .4-3.3.6-1.3.2-2.7.4-3.2.6-.4.1-1.8.3-3 .3-1.3.1-2.7.3-3.2.5-1.6.6-2.8 1-3.4 1l-1.5.4c-.5.2-1.2.3-1.6.3a5 5 0 0 0-2.7.7c-.2.3-3.2.2-3.4 0-.2-.5.2-1.7.7-2a72 72 0 0 1 12.7-2.2c2.4-.5 5.8-1 7.8-1 1.3-.1 2.9-.4 3.4-.6l1.1-.4-2 .1a606.6 606.6 0 0 1-15.6 1.2c-1 .2-3.2.3-4.8.4a47.7 47.7 0 0 0-9.9 1.2 194.5 194.5 0 0 0-7.3 1.2c0 .4-.3.4-2.3.3-2.1-.2-3-.5-3-1 0-.9 2.4-1.4 12.5-2.6 1.2-.1 5.2-.4 8.7-.5 7.5-.4 14.1-1.1 12.8-1.5a109.3 109.3 0 0 0-20.3.5c-1.3 0-3.9.3-5.7.5l-6.8.8c-1.9.1-4 .5-4.9.8-1.3.5-3 .8-7.2 1.2-1 .1-2.2.4-2.5.6l-.7.5-2.3-.4-2.3-.4v-.5c0-.7.5-1 1.4-1 .5 0 1.5-.3 2.4-.5l4-.6a741.3 741.3 0 0 0 21-2.4c-.8-.5-7.1-.6-10.8-.3l-6.7.4-4.8.6-3 .3a34 34 0 0 0-8.3 1.1l-4.8.7c-4.3.2-6.8.6-9.7 1.6-3.3 1-3.8 1-4-.4 0-1 .5-1.4 2.6-1.7a143.9 143.9 0 0 0 8.1-1.1l3.2-.4c4.8-.7 6-.8 8.6-.8h2.9l.7-.6c.4-.4.6-.8.5-1-.2-.1-2.5-.2-5.7 0l-2 .1-.3-.5c-.5-.7-.2-1 1.7-1.1 2.6-.2 2.2-.6-.6-.6-2.6 0-3.5.3-2.5 1 .7.4.6 1 0 1.4l-4.7.6a138.6 138.6 0 0 0-20 2.7c-1.2 0-3.6.4-5.4.8l-4.8 1c-1 0-2.3.4-2.9.7-1.2.6-1.8.5-2-.2-.4-.7 1.1-1.8 3-2.2 1.2-.3 1.6-.5 1.6-.8 0-.3-.2-.5-.5-.5a48.2 48.2 0 0 0-9.4 2.1l-3.2.8c-2 .6-2.5.6-2.5-.2 0-.7.4-1 1.8-1.2l2.7-.6a99.4 99.4 0 0 1 13.6-2.3c4.4-.7 6.3-1 7.5-1 .6 0 1.1-.2 1.2-.4 0-.2.5-.4.8-.4.4 0 .7-.1.7-.3a59.5 59.5 0 0 0-15 1.1 59.6 59.6 0 0 0-8.5 1.4c-.5.3-1.6 0-1.7-.6v-.5l-1.3.6a8.8 8.8 0 0 1-4.5 1c-.6 0-1 0-1.9 1-1.4 1.2-4 3.2-4.4 3.2-.1 0-.6.5-1 1.1-.5.7-1.3 1.4-1.8 1.6l-1 .7c-.3.4-2.2 1.4-2.8 1.4-.4 0-.6-.2-.6-.6 0-1 0-1.4.6-2.1.3-.4.5-1 .5-1.3 0-1 1.6-2.3 2.8-2.5 1.6-.3 1.6-.3 2-1.4 0-.5.7-1.5 1.4-2.2 1.3-1.4 1.4-1.8.8-2.2l-.4-.3.6-1.7.5-1.8-.3-2.9a31 31 0 0 0-.6-3.7c-.3-1.2-.1-1.8.6-1.4.8.4 1.2 2.4 1.2 6.7v3.5l.4-.8c.3-1 .8-3.7.8-5.1v-1.4l.7-.5c.5-.3.9-.5 1-.4l.7-.1c.9-.4 1.6.3 1.6 1.4 0 .6.2 1.1.8 1.7l.8.9-.2 1.4c0 .9-.2 1.8-.3 2.1-.2.8.4.8 1 .1.4-.3.5-1 .5-3.7 0-3.2-.2-4-.7-4-.7.2-.8 0-1-2.2v-2.2l-1.3-1.7c-1.8-2.2-4.2-5-4.6-5.3a51.8 51.8 0 0 1-5.7-9l-1-1.5c-.4 0-.1 2.1.6 4.8a8 8 0 0 1 .3 2.4c-.2.6-.9.8-1 .3-.5-1-.7-.1-.5 2.5.2 3 0 3.5-.8 2.9-.3-.3-.5-1-.6-2.6a39.6 39.6 0 0 0-6.3-20.8l-1.6-2V162l.1-1.3-1.9-1.9-1.9-1.8-.8.1-.9.2-2.4-2.3a46.8 46.8 0 0 1-3.2-3.2l-1.3-1.2a45.4 45.4 0 0 1-6.6-4c-.5 0-1.2-1-1.2-2 0-1.4.6-1.4 2.2 0 .7.8 1.6 1.5 2.1 1.8a69 69 0 0 1 4.5 2.6 53.5 53.5 0 0 1 14 12.7c.7 1.3 1.6 2 2 1.8.3-.2.2-4.8-.2-10.4-.2-1.5-.1-2.4.1-3 1-2.2 1.4.3 1.4 8v6.4l.8 1.3c1.4 2.2 1.3 3 1.4-10 0-4.4 0-5.5.4-5.7.2-.1.5-.2.6-.1 0 0 .2 4.7.2 10.2v10l.7 1.2c.4.6 1 1.9 1.4 3 .7 1.7 1.8 3.7 2.1 3.7.4 0 .4-.9.1-10.4a290 290 0 0 1 0-13c.2-3.3.3-3.8.9-3.8.5 0 .7 1 .4 2.3-.2 1-.2 6.4 0 20.1l.2 7 .7 1a8 8 0 0 1 1 1.4c.3 1 2.7 3.7 3.7 4.4.5.3 1.2 1 1.3 1.4l.5.8.1-10.7c0-9.7.5-24 .8-25.1 0-.3.3-.5.5-.5.4 0 .8 1 .6 1.3-.3.4-.6 13.5-.6 25.3v12.7l1.2 2.3c.7 1.2 1.3 2.5 1.3 2.9.1.3.2-6.8.2-16 0-9.1.1-16.7.2-16.9l.5-5.6c.3-5.6.6-6.5 1.4-5.7a56.5 56.5 0 0 1-.4 8.8c-.3 1.1-.4 6.8-.4 19l-.1 17.9c0 .5-.9.4-1.1-.3-.2-.4-.3.4-.3 2.6l.2 3.5c.3.4 5 .4 27.7.4a373.4 373.4 0 0 1 37.7 1.3l5.4.2h3.9l.2.5c.2.3.2.6 0 .8l-.2.3 6.2.2c3.8 0 6.5.1 7.2.3 1.6.6 6.6.8 18 1 6 0 12 .2 13.4.4 1.7.2 6.3.3 12.2.3 8 0 9.6 0 10.2.3.7.4 1 .4 2.2.2.8-.2 3.6-.3 6.3-.3 2.7 0 5.4 0 6-.2 1-.2 1.7-.1 2.7.1 1.2.3 1.8.3 3 .1 1-.2 5.7-.3 13.7-.3h12l.6.7.6.8.2-.5c.2-.5 0-2.1-1.3-8.2-.5-2.6-.8-5.2-1-7.5a4267.6 4267.6 0 0 1-.8-18.3 57 57 0 0 0-3.4-18.4c-.5-.3-.8-1.2-1.1-3.5a2662.5 2662.5 0 0 0-1.8-10.6l-.5-1.8-.1 2a10 10 0 0 1-.8 3.4l-.9 2c-.2.5-1 .5-1.4 0-.2-.1-.3-1-.3-2 0-3-.4-1.4-.4 2-.2 6-.5 8.9-1 9.3-.8.5-1.1.5-1.8-.1l-.7-.6v-4.1c0-6.8-.3-10-1-10.6-.2-.3-.4-.7-.4-1 0-.2-.2-.4-.4-.4-.4 0-.4 0-.1.5.2.6.2 2.3-.2 4.2 0 .5-.5 1.4-.9 1.9s-.9 1.4-1 2c-.5 1.3-1.2 2.2-1.9 2.2h-.4v-6c0-4.3-.1-6-.3-6.2-.3-.2-.7-.2-1.3 0-.5.2-1.2.3-1.5.2-1-.2-11.9-.5-17.6-.4-10.9.2-21.5 0-28.8-.5-2.2-.1-9.1-.3-25.3-.5l-11.9-.2c-4 0-6 0-7.5.3-1.7.3-2.4.3-3.5 0a15 15 0 0 0-4.8 0c-2.5.3-4 .3-5.6 0a98.8 98.8 0 0 0-19.8.6 9 9 0 0 0-2.7 0c-.4.2-1.8.2-3.2.1-4.6-.3-9.3-.2-11 .3-2 .5-8.8.6-13.7.1a134 134 0 0 0-13.5 0c-.5 0-5.6-.5-8.2-.9a53 53 0 0 0-7.4-.4c-4.1 0-6-.1-8.8-.7-.6 0-1-.6-.6-1.1 0-.2 1-.5 2-.7a83.7 83.7 0 0 1 14.7 0l6.7.3 6.9.1 10.2-.4c3.4-.3 6-.2 13.8 0l4.6.2.2-.6.1-.5h2.3c1.9 0 2.3 0 2.7.5l.5.5 33.5.1c23.8.2 33.8.3 34.6.5 1.2.3 6.4.4 15.6.2 2.1 0 5.5 0 7.6.2 2.2.2 7.7.4 13.7.4h26.7l.4-1c.3-1 .3-1.5 0-2.4 0-.7-.4-1.4-.6-1.6-.3-.2-2-.4-7.5-.5-3.9 0-8-.2-9-.3a545.7 545.7 0 0 1-41.8.1 5671.7 5671.7 0 0 0-43.7-.6c-.4-.2-.3-.9.2-1.1.4-.2 3.2-.3 8.2-.2 7.3.2 12.8-.1 12.8-.6s-1.1-1.1-3.7-2.2c-3-1.3-3.6-1.8-3-2.5.3-.7 1.9-1.1 2.8-.9.9.3 6.7.4 7 .2l-.3-1.3c-.3-.6-.5-1.4-.5-1.8-.2-1.2-1.5-1.4-6.5-1l-4.3.3-.7-.6c-.5-.5-1-.6-3.2-.7a43 43 0 0 1-3.7-.3c-.7 0-1.6 0-2.4.3-.7.2-2.4.4-3.8.5-2.7.1-4.1.5-5.1 1.5a23.3 23.3 0 0 1-5.1 3.4l-1.7 1c0 .2-.4.7-.9 1.3-.7.9-1.2 1.2-2.2 1.4-2.6.6-4.2.9-5.2.7-1.3-.1-3 0-3 .4 0 .5 6.2 1 7.8.5.7-.2 1.3-.1 2 0 .5.2 3 .3 6.7.3h5.9l.4.4c.3.3.4.5.2.7-.2.2-4.9.3-15.7.3H79l-.6.5c-.5.3-1.3.4-4.8.3-7.6-.1-10.5-.4-13.5-1.5a5 5 0 0 0-2.4-.3c-.6.1-1.5 0-2.1-.1a861.9 861.9 0 0 1-51.7-.1c-.8.1-1.5-.5-1.5-1.4 0-1.2 1.4-1.6 2.5-.7.5.4 1.3.5 3.2.7l3.8.3 43.8.4c1.6 0 2.6-.2 3-.5l.8-.4 2 .3c2.4.5 5.2.6 4.5.3l-.9-.6c-.2-.3-.6-.5-.9-.5-1 0-1.8-.3-1.8-.6 0-.6.5-.8 2.3-.7 1 0 1.7 0 1.7-.2 0-.5-1.9-2-2.8-2.4-2.2-.8-3.5-1.8-4.3-3.5-.4-.8-.8-1.6-1-1.7l-2.8.1c-1.3.1-3.2.2-4 .1-9.2-.3-10.5-.4-10.6-.8 0-.2 0-.4.3-.6 1-.4 4.7-.5 7.9-.2 2.1.3 3.9.3 5.4.2 2.7-.3 10-.8 12.4-.8 1 0 2-.2 2.5-.4l1.2-.4c.5 0 .6-.1.6-.9l-.4-2c-.8-2.4-1-3.3-1-4.2-.4-3.1-.6-4.2-1-4.4-.1-.1-.5-1-.8-2.1a42 42 0 0 0-2.4-6.9c0-.2-.4-1.2-1-2.2-1.1-2.3-1-3.3.4-4.5.5-.5 1-.8 1.2-.8.2 0 .1-.2-.1-.3-.3-.2-.6-.2-.8-.2l-1.4-.4c-1.2-.5-2-.6-3.2-.1-1.2.4-2.3 0-2.2-1 0-.5.3-.6 1.6-.7.8 0 1.7-.3 2-.6 1-.6 1.9-.5 2.7.4l.7.8H67c2.3 0 4.2-1 3.1-1.8l-.9-1c-.5-.9-.9-1.1-3-1.8-3.9-1.3-5.3-1.5-6.8-1.1-3.4.9-4.3 1.7-5.3 5l-.8 2.7c0 .2-.3.3-.6.3-.4 0-.4-.4-.4-1.7a7.7 7.7 0 0 1 4-6.6c4.2-2.1 5.5-2 13 1 .9.3 1.4.1.9-.4-.2-.2-.4-1-.4-1.8 0-1.2 0-1.6-.5-2-2-1.8-5-3-8.6-3.2l-2.1-.1-2.4.7c-1.6.5-2.7 1-3.5 1.7-2.6 2.2-3.5 2.4-6 2-.8-.2-1-.1-1.5.3l-.6.6-1.5-.2a11 11 0 0 1-2.1-.6c-.6-.2-1-.2-2.6.3-2.5.7-5 .7-6.1 0-1-.7-1.3-1.2-1.9-3-1.6-4.4-1.6-4.4-.8-6.1.3-.6.9-1.3 1.2-1.5.6-.3 1.5 0 5 2.2 1.3.8 4.8 1.4 7.5 1.2 2.1-.1 3-.8 3.4-2.3.1-.6.5-1.3.8-1.5l.5-.4 1 .7A22 22 0 0 0 64 70.7l1-.5-.6-.5c-1-.8-2.1-1-4.9-.7-3.3.4-5.1 0-7.7-1.4-2.5-1.4-3.7-2.8-4.2-5a5.3 5.3 0 0 1 0-2.9c.7-2.6 1.7-3.6 4-3.8l1.5-.2 1.8 1.7c2 2 3.9 3.2 6.8 4.6a667 667 0 0 1 6.5 3 16.8 16.8 0 0 1 6.5 5.7l1.9 2.4c.9.8 3.3 2 4 2 1.5 0 2 .7 1 1.4-.7.5-2.4 0-4.6-1.1-1.5-1-2.4-1.8-4.3-4.5-1.8-2.5-3.1-3.4-10.6-6.8a24 24 0 0 1-7.4-4L52 58.2c-.6-.2-1.7.5-2.3 1.3-1 1.8-.5 4 1.7 6a7.4 7.4 0 0 0 4.1 2.1c2 .5 2.2 0 .6-1s-2-2-1.3-3c.3-.4.9-.7 1.3-.8.7-.1 1.2 0 2.9 1.1 3 2 3.2 2.2 3.4 2.7.1.4 1 .9 2 1.4 2 .8 2.5 1.3 2.5 2.2 0 .5-1.3 1.4-2.3 1.4l-1.6.6c-1 .4-1.8.5-4.8.5a25 25 0 0 1-9.1-1.5c-.4 0-.7.1-1.2.8-.6 1-1 1.2-3.2 2-1.2.5-6.6.5-8.3 0-.7-.3-2-.8-2.8-1.3-.8-.4-1.6-.7-1.8-.6-.7.2-.2 3 .9 5.1.7 1.5 2.3 1.8 5.4 1.3l3.1-.5c1.2-.2 2-.5 3-1.2 2.2-1.4 4.8-2.1 9.7-2.7 8.6-.9 13 0 16.7 3.6a12 12 0 0 0 2.7 2l3.9 2c1.5 1 3.6 2.1 4.5 2.6 2.2 1.2 3.5 2.4 3.5 3.3 0 .6.1.7.7.7h.8l1.2-2.2c1.7-3 3.1-8.1 3.1-11 0-2.1.6-4 1.3-4.3.3-.2.6-.3.7-.2.2.2.2 1.3 0 3l-.5 3.4-.2 1.5h.6c1.7 0 5.3-2.9 5.7-4.5.2-1-.1-1.3-1.3-1.3-.7 0-1-.3-1.3-1.2-.3-.6 2.2-3.2 3.8-4 1.4-.7 4-1.1 4.3-.7.3.5-.4 1-1.6 1-1 .1-1.8.5-3.2 1.4-2.1 1.4-2.5 2.2-1 2.2 1.2 0 2 .4 2 1 0 2.5-3.4 6.4-6 7-1.4.4-2.4 1.2-2.8 2.2-.1.6-.4 1.1-.5 1.3l-.2.7c0 .5-1.6 3.5-2.6 4.9l-.6.8.4.2c.5.2 2 0 4.7-.7l4-.7c1 0 2.8-.4 4-.8l2.8-.6c1.2 0 3.2-.8 2.8-1.2l-2.7-.7c-3.2-.6-3.9-1-3.9-2 0-1.3 1.2-1.7 5.7-1.8 3.7-.1 5.3 0 11.4 1 3.6.7 4.4.6 5.4-.3.4-.4.8-1 .8-1.3 0-.4-.6-1.2-1.3-2-2-2.2-1.6-3.5.7-1.8 1 1 1.7 1 2.3.4.6-.5.6-1.1 0-2-1-1.3-2.4-2-4.7-2.3-2-.3-6.4.3-8 1a15 15 0 0 0-4 2l-1.1.5c-.6.3-2 1.2-3 2.2-1.5 1.5-1.8 1.7-2.3 1.4-.7-.3-1-1-1-2 0-1.3 1.3-2.5 3.9-3.5 3.4-1.4 5.1-3.3 4.7-5.2-.1-.3-.6-.8-1-1-1.5-.8-.7-2.2 1-1.7l1 .5c.4.4 1 .2 2.3-.5 1.5-1 3.6-1.6 6.4-2 3.3-.4 6 .2 9.9 2 2.9 1.5 4.3 2.7 4.8 4 .4 1 .3 2.8 0 3.3-.5.7-1.9 1.5-3 1.9-.5.1-2 1-3.4 1.9L125 79l.1 1c.2 1 0 1.3-.4 1.9-.7.9-2.4 1.7-4 2-1.7.2-2.1.2-4-.2-6.9-1.3-11.4-1.7-13.9-1.2-1.2.3-.1.8 1.9 1 2.7.3 4.3.7 4.4 1.4 0 .8-.9 1.8-2.2 2.2l-2 .6c-1.2.3-1.3.6-.7 1.4.5.7.5 3.3 0 5.7-.7 2.8-.7 2.8 3 1.6 3-1 7.3-1.8 10.2-1.9 1 0 2.1-.6 4.8-2.9a21.7 21.7 0 0 1 5-3.4c.9-.7.8-1.4-.4-3a3 3 0 0 1-.8-2.2v-1.3l1.5-1.4c.8-.7 1.8-1.4 2.2-1.5.4 0 1.2-.3 1.7-.5.7-.2 1-.2 1.3 0 .5.5 0 1-1.5 1.6-3.4 1.3-4.1 3-2.3 5.1 1.3 1.5 3 2.4 7.3 3.6 4.6 1.3 5.3 1.9 5.3 4v1h6.9v.5c.2.6-.5.7-5.7.8h-4.7l-1.1.8-1.1.7h-3.2c-1.7 0-4.1-.1-5.4-.3-2.5-.3-7.3-.1-8.5.3-1 .4-4.7 4.3-6 6.2-1.3 2-1 2.2 1.2 1.6 2.3-.5 5.1-.5 5.4 0 .1.4-1.3 2-1.8 2s-1.2 2.5-1.2 4c0 2 .3 3.1 1.6 5 .8 1 1 1.5.7 1.9-.1.2-.5.5-.7.5-1 0-2.2-1.6-3-4.2a11 11 0 0 1 0-6.5c.3-.7.3-1.3.3-1.4-.3-.2-3.3.5-4 1l-.8.5v1.8c0 2 .3 2.4 1.5 3 .4.2.8.5.9.8 0 .7-1.2.9-2.3.4-1.3-.7-1.8-1.6-1.8-3.7v-2c-.1 0-.4 0-.8.3-1.2.8-2.4.3-1.6-.6.3-.3 1-.8 1.8-1 .9-.4 1.4-.9 1.7-1.5.8-1.6 2.4-3.7 4.3-5.8l1.9-2.3c0-.2-.3-.3-.9-.2l-3 .4c-5.3.8-8.9 2.5-9.2 4.5a155.3 155.3 0 0 1-3.7 16.5c-.3.4 1.3.8 2.9.6 1.3 0 1.8 0 2.5.4 2.4 1.4 2.6 1.4 3.7 1.1.5-.2 2-.3 3.1-.3 1.2 0 2.5-.1 3-.3.5-.2 2.4-.2 6.5 0 11.4.6 13 .7 13.2.4.1-.2-.7-2.9-1-3.2l-.2-.6c0-.2-.2-1-.5-1.5l-.5-1.5-.2-.5a19 19 0 0 1-3.6-13.5c0-1 .6-1.5 1.3-1 .6.3 1.4 3.3 1.5 5.4.1 1.6.7 3.9 1 3.9.2 0 0-3.4-.4-4.5-.2-.7-.1-1 .2-1.3.3-.3.5-.4.9-.1.5.2.6.7 1 4.8.2 1.1.5 2.8.8 3.7.3 1.2.4 2.3.3 3.4-.2 1.6.3 3.8 1.1 5.3.2.3.6 2 1 3.6.3 1.7.7 3.3 1 3.5.5.6 3.7.7 11.5.4 8.7-.4 9.2-.4 9.6-1.3l.2-1.8.4-2.4c.4-1.2 1.5-5.8 2-8.6.5-2.7 1.1-5.5 1.8-8 1-3.8 1-4 .5-4.9l-.5-.8h-1.6c-1 0-2.8 0-4.2-.2-3.3-.4-6.7-.4-7.5 0-.6.2-.8.2-1.3 0-.3-.3-1.7-.5-3.7-.6-1.8 0-3.4-.2-3.7-.3-.5-.3-.3-1 .2-.9a47 47 0 0 0 8.2 0c1-.7 1-2-.3-3-.5-.5-1-.8-1.2-.8-.2 0-.8-.4-1.4-1l-1-.8.2-.8c.2-.4.5-.8.8-.8 1.5-.3 2-.7 2-1.6 0-1.3-1.4-3.6-2.6-4.4-3-2-3.8-2.2-9-2.9l-2.5-.3-.2-.6c-.4-1-.3-1.5.3-1.3l4.5 1c4.4 1 7.9 2.3 9 3.6 1.5 1.4 2.6 4.2 2.2 5.4-.1.3-.6 1-1.1 1.5-1 1-1 1.4.3 2 1 .5 2.1 1.7 2.4 2.6.2.4.3.5 1 .3.5 0 1.2-.2 1.5-.4 2-.7 5.3-1.3 7.2-1.3 5.9 0 11.8 1.6 12 3.4.2 1-.5 1-2.2 0a13.3 13.3 0 0 0-4.5-1.6c-1.6-.4-5-.3-5 .1 0 .1.3.2.7.2 1.4 0 3.8.8 4.3 1.3.5.7.4 1.6-.3 2-.5.2-.7 1-.3 1l2.2 1.3a87.7 87.7 0 0 1 11.6 11.7c1 1.1 1 2.7 0 2.5-.5 0-.9-.5-1.3-1.2s-.8-1.4-1-1.5l-2.7-3a63.6 63.6 0 0 0-8.7-8c-.4-.2-.7-.1-1 .4-.4.7-1 2.7-1.3 4.7l-.6 2.6-.6 3.2c-.7 3.8-1.3 6.4-2 9.1-.2.9-.4 2.1-.3 2.8v1.2l1-.1c4.2-.4 4.4-.4 5.2 0 .9.5 1.3 1.4 1 2.4-.2.8-1.3 1.4-4 2.3-3 1-3.4 1.6-1 1.6 2.3 0 3 .7 1.6 1.5-.8.4 7.2.7 12.5.5a526.4 526.4 0 0 1 20.5-.5c1.8 0 2.5-.1 2.6-.7.1-.3.7-.6 1.4-.8l1.2-.4-.9-.2-2.7-.5c-3.5-.4-4.1-.6-4.3-.8l-.5-.2c-.6 0-3-1.7-3-2 0-.3.3-.5.7-.7l2.4-1.1 1.6-.8 5-.1c3.6 0 5-.2 5.3-.5.3-.2.2-.7-.3-2.3a71.7 71.7 0 0 1-1.7-5.1l-.8-2.4a54 54 0 0 0-1.7-5.5c-1.4-3-2.3-6.4-2.6-9.4 0-1.4-.4-3.5-.6-4.7-.2-1.1-.4-2.4-.3-2.8.2-1 1.1-1.7 2.8-2.3 1.7-.6 3.1-.7 4.3-.2.7.3 1.7.3 4.7.2l4.2-.3c.7 0 1.2-1.4.8-2.1l-.7-.9c-.2 0-.8-1-1.3-2-1-1.8-2.8-3.9-5.6-6a20 20 0 0 0-4.2-2c-.7-.2-1-.1-1.4.3-.3.3-.6.7-.6 1 0 .3-1.3 1.5-2 1.8-.3 0-.9.7-1.4 1.4a12.6 12.6 0 0 1-7.8 4.5c-3.7.8-6.7 1-9.9.5-1.5-.3-3.2-.5-3.8-.5-.6 0-1.8-.1-2.6-.3-.8-.3-1.8-.4-2.3-.4a14.5 14.5 0 0 1-7.4-4.5c-2.5-2.8-3.2-3.8-3.2-5 0-1.3.5-2.1 2.9-4.4 1.1-1 2-2.2 2-2.4 0-.5 3.3-2.6 5.6-3.6l2.9-1.2c1.1-.5 3.5-.5 4.7 0 1.6.7 1.8.6 2.3-1.2.4-1.2.8-2 1.7-3 2.4-2.4 4-2.9 11.3-2.9a28.4 28.4 0 0 1 7 .6c1 0 3.1 1.3 3.8 2.3 1.2 1.7 1.2 2.5.2 4.5l-.9 1.7.4 1a25.1 25.1 0 0 0 1.3 3.3c.3.7.5.8 3.7 1.5 3.4.8 6.8 2.2 7.7 3.3l.5.5.9-.9c1.4-1.5 2.4-2 3.2-2 .7 0 4.3.6 6.4 1.2.7.1 1-.4 1-2.1v-1.2l-1.4-1.2-2.2-1.7a254 254 0 0 0-5-3.6c-1-.6-1.7-1.4-1.8-1.7a8 8 0 0 0-1.2-2l-1.3-1.8c-.1-.4-.7-.5-3.8-.6-3.8-.1-4.4-.3-5.7-1.5l-.8-.7h-3c-3.8 0-6-.5-7.6-1.6a5 5 0 0 1-1.5-1.6c-.4-1-.3-2.5.1-3.4.6-1 .5-1.4-.2-1.6-1.1-.2-.8-.8.5-1 .9 0 1.4-.3 2.2-1a15 15 0 0 1 6.8-2.9c2-.3 3-.1 4 .5.6.3 1.3.3 3.9.2l5-.3c1.2 0 2-.2 2-.4.4-.4.2-2.3-.2-3.2-.5-1-2-1.6-3.4-1.3-1.4.2-7 0-10.3-.5l-2.5-.3-.5.4-1 .8c-1.6 1-2.8 2-4.8 4a23.6 23.6 0 0 1-5.2 4.2 42.7 42.7 0 0 1-10.4 5.4c-4.7 1.4-7.4 2-9.8 2-2 0-2.7.2-3.3.6-.3.3-.7.6-.7.8 0 .1.6.6 1.3 1 1.3.9 2.3 2.4 2.2 3.6 0 .8-2 5-2.6 5.6a987.8 987.8 0 0 1-4.7 1c-.8.1-1.4.4-1.5.7a23 23 0 0 1-2.1 2.3l-1.9 1.9h-6.5l-.7-.7c-.6-.5-.8-1-.9-2l-.1-1.4-1.2-1c-1.4-1.3-1.5-1.3-2.6-.7-1 .6-4.3.8-9.3.5-2.2 0-2.7-.2-3.7-.8-1.7-1.1-2.4-2.3-2-4l.2-1.3 1.5-.7c1.9-.9 2-1.4.6-3-.5-.8-1-1.7-1-2.3-.4-1.8-1.8-2.5-3.8-1.8-.6.2-1.6.2-3.3 0a9.4 9.4 0 0 0-3.8.2l-1.4.4-2.1-.5c-1.1-.2-3.9-.5-6.2-.6-3.5-.2-12-1.3-13.5-1.7-.6-.2-.6-.8 0-1.3.4-.5 1.4-.6 2.6-.2l2.8.6 4.5.7c1.3.3 3.4.5 4.6.6a74.5 74.5 0 0 0 16.5-.1l1.8-.4.8.5.8.5.8-1.7c.9-1.8 1-2.3.7-2.3h-9.8c-10 0-13.3-.3-14-1l-.5-.5.5-.2h4.6c5.5.4 19.3.3 21-.2 1.6-.4 4-.4 4.8 0l.5.2-.2-1.3c-.3-2.1-.2-3 .4-3.5.3-.2.7-.6.8-1l.3-.5-7.4.2c-16.7.3-22 .4-23.4.6-1.6.1-2.2-.2-2-1.3v-.6h44.3l4.4-.1.6-.8.7-.7 12-.1 12.2-.2.2-1.5.4-5.5.2-3.8h1v5.2c0 4 .1 5.3.4 5.6.2.2 2 .3 8 .4h7.8l.9-.5c1.3-.9 5.8-2.8 8-3.5 1.1-.3 3.4-.3 4.4.1 1 .3 1.3.2 3.1-1.6.8-.7 1.1-1.2 1.1-1.8 0-1.3-.2-1.4-4.7-1.4a34 34 0 0 1-8.6-.8c-.9 0-1.6-.4-2-1-.6-1.2 2.6-3.4 6-4.1l1.5-.4 2.4.6c1.3.3 3 1 3.7 1.3l1.3.8.6-.4.6-.3-.5-.4c-.6-.4-.7-1-.1-1.2a55.7 55.7 0 0 0 14.4.4c3.3-.6 4.8-1.7 3.4-2.8-.7-.5-2.2-.4-3.3.3-.4.3-1 .4-1.6.3h-.9c0 .3-1.6.8-2.6.8h-.9l.6-.5c.8-.7 1.5-.9 2-.5.3.2.5.2.6 0 .3-.3 1.3-.7 2.8-1.1.9-.3 1.4-.6 1.4-.9l.1-.5-1.5.2a126.5 126.5 0 0 0-9.8 1.4c-2.1.2-4.5 1-5.1 1.6-1 .8-2.4 1-2.9.5-.6-.7-.1-1.7 1-2.2 2.1-.9 11.7-2.4 18.4-2.9 2.7-.2 3 0 3 1.5 0 .6.3 1.3.5 1.8.6 1 .1 2-1.4 2.7l-1.7.8c-.3.1-.4.8-.5 2.7 0 1.4-.3 2.7-.4 2.9-.2.2-.4.7-.5 1.2-.1.5-.9 1.6-1.8 2.6l-1.5 1.8.3.5a16 16 0 0 0 2.3 2c1.5 1 2.1 1.4 3 1.4h.9l.6-1.4c.3-.7.5-1.8.5-2.4 0-.5.1-1.2.3-1.6l.4-1.6c.2-1.4 2-3.3 3.3-3.5 1.4-.3 1.7-.6 1.1-1.5-.2-.4-.7-.9-1-1-.2-.2-.4-.4-.4-.6a3 3 0 0 0-.5-1c-.8-1-.6-2.6.4-3.3 1.6-1 4.2-1.3 10.6-1l5.8.3 2.3 1c2.6 1 3 1.2 3.7 2.5.2.5.9 1.4 1.4 2l1 1.4c0 .2.6.4 1.3.6 2 .4 2.6 1.5 1.5 2.5-.7.7-1.9 1.1-5.6 2-3.9 1-5.7 1-7.4-.5a6 6 0 0 0-1.7-.9l-1-.3-1 .6-.8.7h-4.3l-4.3-.1-.3.7c-.4 1-.9 1.4-1.4 1.2-.6-.2-.6-1 0-2.1 1-1.4 1.7-1.8 3.5-1.6l3.2.2h1.7l.9-.7c1.3-1 2.5-1 5.6.6l2.5 1.2 2 .1c1.7 0 2.4 0 3.7-.5a7 7 0 0 0 1.7-.8c.2-.2-3.3-5-4.4-6-.8-.8-2.7-1.6-5-2-2.5-.6-10.9-.6-12.8 0-1.8.5-1.8.8-.7 2.6 1.2 1.7 2.1 2.4 3.7 2.8 1.4.3 2 .8 1.4 1.4-.2.1-1.5.3-3 .3-3.7 0-4.7.5-5.2 2.4-.4 1.7-.4 3.3 0 3.2h.7c.3.3.3.5 0 1.6-.3.7-.5 2-.6 2.8V39l.6.2c.3.1 1.6.2 2.9.1 1.4 0 3 0 4.3.3 3.6.7 4 .7 4.8.1a3 3 0 0 1 1-.5c.1 0 .3-.1.3-.3 0-.1-.3-.3-.6-.3-1 0-2.9-.5-2.9-.9s5.6-.6 11.7-.5l12.5.1c11.1 0 14.1.2 14.7.9.5.6.7.6.9 0 0-.4.3-.5 1.4-.4.7 0 1.1.2 1 .2l-.4.4c0 .4 1.1.3 1.6-.1.3-.3 1.8-.4 7-.5l8.4-.3 8.5-.3c3.8 0 7-.2 7-.3.2 0 .3-.7.3-1.4 0-1 0-1.1-.3-.9-.5.5-1 .4-1.1-.2v-5c.4-4.4.7-11.5.7-15 0-1.6.2-2 .5-2.3.4-.2.6-.2.9.1l.4.4-.3 3.6c-.1 2-.2 3.8-.1 3.9.2.4 2.7.6 10 .8l7 .2.2.5.2.5 5 .1c6.1.1 6.8.2 7.4 1.2l.4.7-.4.3c-.3.1-.6 0-1-.2l-.6-.4v1.4l-1.1-.1H352l.1-.8v-.8l-4.9.2c-9.1.3-12.6.3-13 0-.4-.5-.2-1 .5-1 .3 0 .5 0 .5-.2 0-.4-1.3-.6-1.8-.3a8 8 0 0 1-3.9 1.4h-1.1l-1-1c-1.2-1.6-1.7-1.5-1.7.3v1.4h1.2c1.6 0 2 .3 1 1.2l-.8.7-.1 3.2c-.1 5 0 7.2.3 7.5.2.2 2.5.3 7.5.3 4 0 8.9.2 11 .4 5.8.4 22 .6 22.4.2.3-.2.3-.6.2-1.5l-.2-5.4c-.2-3.6-.3-4.4-.7-5-.6-1-.7-1.6-.2-2 .3-.3.4-2.3.3-11.1v-11c-.3-1 1-2 2-1.6l.6.1L370 2l-.1 3.6a88.7 88.7 0 0 0-.5 17c.2 2 .8 14.3.8 16.9 0 .7.2 1.8.5 2.6.6 1.6.7 2.3.1 2.5-.4.2-.5.8-.1 1 .3 0 .4 1 .5 4.5v2.6h.6l2.3-.6c1.4-.5 2.4-.6 5.6-.6 4 0 8.1-.6 9.8-1.3 1.6-.7 2-.6 2.5.5.8 1.8.7 3.6 0 9l-.2.9 1 .6c.6.4 1 .8 1.2 1.5.2.8.5 1.2 1.8 2 1 .6 2 1.5 2.3 2 1 1.6 3.4 3.4 4.5 3.4.3 0 1.5.7 2.7 1.5 1.4.9 2.6 1.4 3 1.4.5 0 1.1.3 1.5.5l1.4.7a36 36 0 0 1 4 1.8l1.7.4 1.2.2v-3.8l-.2-3.8.5-.3c.8-.5 1 .3 1 3.7 0 3.8 0 4.2 1.1 4.8 1.3.8 5.4 1 6.6.5 1.2-.7 2-.4 2.6 1 .7 1.5.2 2.6-1.5 4-.7.6-1.8 1.7-2.3 2.6-1 1.4-2.8 3-3.4 3-.4 0-4 2.7-5.2 3.9-.6.6-1.4 1.7-1.8 2.5-.3.7-1 2-1.7 2.8l-1 1.6-1 1.3-1.1 1.4c-.4.5-1 2.2-.8 2.4l1.2.3c.8.1 1 .3 1 .9.2.8.2.7-3.1 3.5a14.1 14.1 0 0 0-2.6 2.4c0 .2.2.5.4.6.9.8.2 1.8-1.7 2.8l-1.6 1c-.3.3-.8.5-1 .5l-1.5.5-1.4.5-1.3.8c-.6.5-1.3.8-1.8.8-.7 0-1 .2-1 .6-.3.5.2 1.3.6 1.3l1.4.5a6 6 0 0 0 1.4.5c.4 0 1.7 1.5 1.7 2 0 .3-.2.4-.8.4-.5 0-.8 0-.8-.2 0-.5-4.3-2.4-5.5-2.4-.6 0-.3.7.6 1.5 2.9 2.1 4.6 4.8 4.6 7 0 .9-.1 1.2-.4 1.4-.6.2-.8 0-1.2-1.5-.5-2.4-2.5-5.2-4-5.7-.3 0-1.1-.6-1.7-1.2l-1.1-1.1v.9a9 9 0 0 0 1 2.9 35.5 35.5 0 0 1 4.3 12.7c0 1.8.1 2.2 1.5 3.8.4.4 1.4 2.9 1.7 4.5l.8 2c1.8 4 2.2 6.8 1.3 9.8l-.5 2.2c-.1.7.3 2.3.8 2.6.1 0 .8 0 1.6-.3 1.5-.6 3.4-.7 4.2-.2l2 1.7c.7.7 1.6 1.5 2 1.6.8.2 2.2-.2 3.7-1a102 102 0 0 1 16.2-7.1c.8-.4 2.2-1 3-1.2l3.7-1.5 3.7-1.6a63.2 63.2 0 0 0 8.8-3.5l4.5-1.7c3.2-1.3 4.9-1.9 5.6-1.9l1.8.6c2.6 1.2 2.4 1.2 10.3 2 4.6.6 17.7 1.1 28.4 1.2 7 .1 7.8.2 7.8 1.1 0 .2-.1.4-.3.5-.4.1-4.5 0-14.8-.4l-10.8-.2a97 97 0 0 1-16.7-1.3c-2.1-.2-3.2-.4-3.8-.8-1.1-.7-2-.7-3.1-.2l-2.2.5a19 19 0 0 0-4.8 1.5l-2 1-2.4.9-2.5 1a22 22 0 0 0-5.8 2.8c-.2.4-2.6 1.7-3.1 1.7l-2 .8c-1 .5-3.7 1.5-6 2.3l-5.1 1.8c-.5.2-1.2.4-1.7.4s-1.1.2-1.4.4c-.3.2-.7.4-1 .4-.3 0-1 .3-1.5.7l-1.4.6a8 8 0 0 0-1.6.7l-1.3.6 1.3.2c1.4.2 6.5.5 16.5.9a52 52 0 0 1 12 .9c1.4.5 2.8 1.9 2.6 2.6-.1.5-1 1.6-1.8 2.7l-1.9 1.1a53.8 53.8 0 0 0-6.5 4.4 119 119 0 0 0-5.3 3.4c-.2 0-1.5.7-2.8 1.6a92 92 0 0 1-7.9 5 6.2 6.2 0 0 0-2.8 2.4c-.5.7-1 1-1.8 1.3l-1.7.7c-1 .7-14.3 1.4-20 1h-20.5c-2 0-3 0-3.4.3-.6.3-2.6.4-14.6.3a249 249 0 0 1-21.5-.6c0-.1 0-.3.3-.5.4-.2 2-.3 6.4-.2 3.3 0 6.8 0 7.9-.2 1-.2 6.6-.3 12.7-.3 5.9 0 10.2 0 9.6-.2-.7 0-1.2-.2-1.2-.3 0-.2-1.7-.3-4-.3-7.3 0-9.6-.7-10.7-3.3-.5-1.2-1-1.4-3-1.4l-2.8-.3c-1.3-.4-2.6-.1-4.7 1-.8.5-2.4 1-3.7 1.4-2 .5-5 1.7-7.1 2.9l-1 .3c-.2 0-1.2.2-2 .6l-3 1c-1.6.3-4.3 1.5-4.3 1.8 0 .1-.4.2-.9.2s-1.7.4-2.6.8l-2.1.9c-.2 0-.5 0-.6.2l-1 .4-1.9.5-3 1.2c-1.3.5-3.3 1.3-4.5 2-1.2.5-2.5 1-2.8 1a4 4 0 0 0-2.5 1.1c-.2.2-.7.4-1.2.4s-1.3.3-2 .6a6 6 0 0 1-1.3.5 3 3 0 0 0-1.1.5 5 5 0 0 1-1.9.7c-.6.1-1.6.3-2.2.6l-2.6.7-2.5 1c-.4.2-1.4.6-2.2.6-.8.1-1.8.4-2.3.7-.5.3-1.6.7-2.4.9-.8.2-2.2.6-3 1-1 .4-2 .7-2.5.7l-1 .2c-.2.2-1.3.6-2.5 1a77.8 77.8 0 0 0-12 4.4c-2.2 1.5-2.5 1.6-3.8 1.4-1-.1-2 0-4 .6-1.6.5-3.7 1-4.7 1.1-1 .2-2.5.6-3.2 1l-3.3 1.2a140.7 140.7 0 0 0-5.3 1.4 50 50 0 0 0-7.6 3c-1.9 1-3.5 1.5-4.8 1.7-.8.2-1.4.4-4 1.5a37 37 0 0 0-7.6 2.5c-.3.3-1.3.6-2.1.9-1.5.3-4.7 1.6-6.5 2.4-1.8.9-3 1.3-3.8 1.5-2 .5-4.2 1.3-4.7 1.7-.8.7-1 .8-1.5.5zm53.4-20.7.6-.5v-1.8c0-1.5-.1-2.2-.7-3.4-.5-1-.8-2.2-1-3.9-.5-5.2-.5-5.3-1.5-6.4-1.2-1.3-1.2-1.6-.5-2.3.4-.4.6-.4 1.4-.1.5.1 1.1.5 1.4.8.5.6.9.7.9.1 0-.2-.5-.7-1-1a10.4 10.4 0 0 1-5-6.9c-.3-1-.3-1.4 0-1.8.2-.4.1-.9-.2-2-.4-1.1-.4-1.6-.2-2.5a6 6 0 0 0 0-3l-.5-2-.4-.2h-.4l.1 2.5c.2 2.7.4 4.5.6 5.1.4 1 .4 3.5.1 3.9-.4.5-.2 2.4.5 3.9.4.7.6 1.8.7 3.3 0 1.3.2 2.8.4 3.4.6 2.5 1 5.3 1.5 9 .4 3.5.6 4.4 1 5.2.7 1 1.3 1.2 2.2.6zm12.9-6c.3-.9-.8-3.8-1.7-4.6-.6-.6-4-1.1-4.3-.7-.4.4.3 3.2 1 4l.7.8.5-.4.5-.4.6.8c.4.6.8.8 1.5.8.6 0 1-.2 1.2-.4zm7.6-.6.8-.6-.7-1-.7-1.3c0-.3-1.8-1-2.8-1-1.1 0-1.2.6-.1 2 .7 1 2.3 2.5 2.6 2.5l1-.6zm-4.8 0-1.5-2.8c-.2-.2 0 1.6.3 2.4.1.4 1.2.7 1.2.3zm10.3-1.7c1.4-.5 1.1-.9-.7-.9-1.5 0-2 .3-1.4 1 .4.5.8.5 2.1 0zm-50.7-.2a7 7 0 0 0 2.3-.4c0-.3-8.4-.5-9.3-.2-.4 0-1 .4-1.2.6l-.5.5 3.2-.2 5.5-.3zm-52.8-.3h-.5c-.2 0-.2.1.1.2.3 0 .5-.1.4-.2zm2.1 0h-.5c-.2 0-.2.1.1.2.3 0 .5-.1.4-.2zm59-.1 1.7-.4 3.1-.3 1.8-.2-2.6-.2c-1.9-.1-2.6 0-3 .2-.5.3-1.5.4-3.4.4-2.2 0-2.8 0-2.8.3s.5.4 2.4.4c1.4 0 2.6 0 2.7-.2zm-163.1-1.1 1.7-.5c0-.2.6-.2 1.1-.3.5 0 1.7-.1 2.7-.4l3.2-.6 1.4-.1-1.8-.2H71c-.2.2-.6.3-1 .3-.5 0-1.2.2-1.7.4-.6.2-1.5.4-2.2.4a69.2 69.2 0 0 1-4.1.7c-.4 0-.7.2-.7.4 0 .3 1.6.3 3.5-.1zm20-2.2 3.3-.4c.6 0 2-.3 3.2-.8 2.3-.8 2.3-.8-.3-1.2-1.5-.2-4.4.4-4.9 1l-.4.6H82c-2.8-.1-4 0-4.9.3-.6.2-.8.4-.6.4l.8.4c.3.4.7.4 2.9.2 1.3 0 3.5-.3 4.7-.5zm175-1.3c0-.3-.2-.4-.3-.3-.2.1-.2.3-.2.4.3.4.4.3.4-.1zm-217-1.8c0-.2-.2-.5-.4-.5-.4 0-1 1.1-1 2v.5l.7-.7c.4-.4.7-1 .7-1.3zm17.4 1.3 3.4-.6c.2-.1-2-.4-2.3-.3-.4.3-5.4.2-5.7 0-.5-.6-1-.4-2 .6l-1 1 2.2-.2c1.2 0 3.6-.3 5.4-.5zm-20-.7c0-.3-.2-.3-.5.1-.5.7-.5 1.1 0 .7.2-.2.4-.5.4-.8zm37.5.5a6 6 0 0 1 1.9-.3 8 8 0 0 0 2.3-.4l1-.3-1.8.1-3.6.2c-1 0-2 .2-2.2.4-.2.2-.6.3-.8.3-.3 0-.5.1-.5.2 0 .3 3.1.1 3.7-.2zm-27.9-.4h-.5c-.2 0-.1.1.2.1.3 0 .4 0 .3-.1zm14.9 0h-.6c-.2 0-.1.1.2.1l.4-.1zm185.8-.1c0-.2-.2-.3-.3-.3-.1 0-.3.1-.3.3l.3.3.3-.3zm28.4-2.3-.4-.4v.4c0 .2.1.4.3.4l.3.5v.5l.1-.5c0-.3 0-.6-.3-.9zm-2.6.6c.4-.4.3-1.2-.5-3.6-1-3.1-1.4-5.2-1.4-8.3v-2.9l.6-.5.7-.5-.2-3-.2-10.8c0-4.7 0-8-.2-8-.2-.1-.3.3-.3.8l-.6 3.2c-.4 1.3-.7 3.1-.8 4 0 1-.3 3.3-.6 5-.2 2-.4 4-.3 4.9.2 1.6-.1 2.4-.7 1.9-.5-.6-.2-7 .6-11.6a328.2 328.2 0 0 0 2.2-12c.4-1.8.5-2.3.2-3-.2-.6-.5-1-.7-1.1-.3-.1-2.7 2.6-3.4 4-.2.5-.4 1-.4 1.4l-.2 1a75 75 0 0 0-1.9 14l-.3 3.6.7.7.6.7.1 3.1c.4 6.5 1 13.3 1.4 14.1l.4.8-.4.9-.3.9 5.2.6c.3 0 .6 0 .7-.3zm-6.9-.8c-.3-.9-.7-4.2-1-8.2-.1-2.4-.4-4.7-.5-5l-.3-.7-.4 1c-.3.8-.3 1.6-.2 2.5.4 2.8.4 9 .1 9.3-.4.6-.7.5-1.1-.3-.3-.6-.4-1.2-.2-2.9.3-3 .3-3.3-.1-3.3-.2 0-.8-.4-1.2-1l-.7-1-1.5 1.6-1.6 1.6.2 2.7c0 1.4.3 2.7.4 2.9l2.2.4 3.6.5c2.5.3 2.5.3 2.3 0zm-10.3-.8.2-2.3.3-4.3.2-2.4-.7.7-.7.7v3.2c0 3.2-.2 3.7-1.1 3.7-.6 0-.6.1-.5-4.1v-3.5l-.6-.6-.7-.7V190a57.6 57.6 0 0 1 1.8-15.8 39.2 39.2 0 0 0 1.1-5.5 107.2 107.2 0 0 0 2.7-11.1l.2-.8c0-.7-.6-.4-.8.4a107.4 107.4 0 0 0-7 18.7 7 7 0 0 1-.5 1.8c-.2.4-.4 1.3-.4 2 0 2.1-1 4.8-1.6 4.7-.8-.2-.2-4.9 1.1-8.6l.9-2.9c0-.6.3-1.3.5-1.6l.4-1a48.2 48.2 0 0 1 3.4-9.2l1.3-3c.7-1.4 1.7-3.5 2-4.6l1.6-2.8 1.7-2.1c1.5-2.2 2.5-1.3 2 1.6a129.4 129.4 0 0 0-1.2 6c-.5 1.9-1.1 6-1.7 10.8-.7 6.2-.4 19.3.5 19.9.2 0 .5-.2.7-.7.2-.5.5-.8.7-.8.4.1.4 1.4 0 3.6-.5 2.2-.4 4 .2 4.4.5.4.9-.7 1.1-3.1a365.1 365.1 0 0 1 .9-10.8 74.6 74.6 0 0 1 4.7-22 17.4 17.4 0 0 1 2.5-4.9c0-.3 1.2-2 2.3-3.2 1-1 1.9-1.2 2.9-.4l.7.5.5-.4c.7-.7 2.6-3.5 3.3-4.7l1.1-1.6a7 7 0 0 0 1.1-1.4l.5-.7-.6-.6c-.7-.8-1-.6-4.6 2-3 2.3-4.1 2.7-4.3 1.6 0-.7 1.4-2.4 2.2-2.4.9 0 5.2-3.4 5.2-4.1 0-.4 1.3-1.2 2-1.2.3 0 .7-.2.9-.4.2-.3.2-.4-.4-.8l-.7-.4-1.4.3c-.8.2-1.8.3-2.2.2-2-.4-9.3 2.2-11.2 4l-1.6 1c-1.8.7-6.1 3.9-7.6 5.6a9 9 0 0 1-2 1.8 32 32 0 0 0-6.8 7.4c-2 3.3-5.4 13.2-5.7 16.8-.1 1-.3 1.6-.6 2l-.6.4.2 4.3a68.7 68.7 0 0 0 2.8 18.3c0 .6.2 1 .7 1.5.7.7 2.2 3.3 2.2 4.1 0 1.1 5.9 2.8 6.5 1.8zm27.3 0c.6-.6.4-1.6-.6-2.4-2-1.5-2.5-.5-.8 2 .6.8.9 1 1.4.5zm-4.4-1c.3-1 .2-1.7-.2-3-.7-2-1.3-2-2 0-.4 1.2-.2 2 .7 3 .7.9 1.3.9 1.5 0zm19-.8a184.4 184.4 0 0 1 6-2.6l1-.6-.5-.3-1.8-.4c-1.6-.2-2-.7-1.6-1.7l.3-.7.8.3c.5.2 1.3.2 1.8.1l4.4-.7c4.5-.7 5.7-1 5-1a3 3 0 0 1-1-.3l-2-.5a7.4 7.4 0 0 1-5-3c-1.3-1.6-1.6-2.9-1-3.6.5-.4.5-.6.3-.9-.4-.4-.5-1.2 0-1.2a7 7 0 0 1 2.4 1.3 27 27 0 0 0 7.2 4.1c1.5.7 3.3 1.1 3.4.9.1-.1.5-.3.8-.3.6 0 .7 0 .4-.3-.2-.3-.7-.4-1.2-.4-1.6 0-4-.9-4.5-1.6-.8-1 0-1.7 1-1.1 1.3.6 2.6.8 5.1 1 2.2.1 2.8 0 3.7-.3.7-.4.9-.6.6-.9-.3-.4-2.6-.5-3.4 0-.8.4-5-.6-8-2l-2.6-1.1-2.3-1c-2.4-1-4.2-1.5-6.2-1.5-1 0-2.4-.1-3.2-.3-1.3-.3-1.7-.5-3-1.8-1.7-1.6-3-4-3.7-6.7-.3-1.3-.3-2-.1-3.6.2-1 .3-2.8.3-3.8s.2-2.8.5-4c.5-2.1.4-2.8-.3-2.8-.8 0-1-.9-.7-3.1.2-2 1-6.9 1.6-9 .2-1.2-.1-2.3-1-3-.7-.6-.9 0-.7 1.8 0 1.4 0 2-.4 3a23 23 0 0 0-1 5.8c-.5 5.5-1.3 10-2 12-.5 1.3-.6 2.3-.6 6.1 0 3.3-.2 4.8-.5 5.6-.7 1.7-.6 7.8.1 7.8l1.2-.7c.6-.4 1.3-.7 1.7-.7 1.2 0 1.5 1 1.7 5.7a147 147 0 0 0 .6 9.6c0 .4 1.3 1.7 2.3 2.4 1.3.9 2 .9 4.1 0zm6-8a7.4 7.4 0 0 1-3.8-2.9 7.4 7.4 0 0 1-1.1-2l-1.1-2.3c-1.2-2.2-1.3-2.6-.6-3 .8-.4 1.3.3 3.2 4.6.9 1.8 2.7 3.8 4 4.5 1.3.7.9 1.5-.5 1zm-264.8 6.9v-1l-.4.6c-.2.3-.3 1-.4 1.4 0 .6.1.7.4.4.3-.2.4-.7.4-1.4zm246.5-.4.7-.8-.1-1.4c-.1-1.2-.6-4.3-1.2-7 0-.6-.2-.7-1.4-1.7l-.7-.5v-2.5c.1-2.7.3-3.8 1.4-8 .5-1.8.6-2.5.4-3.4-.2-1-.1-2.1.5-5.9a56.7 56.7 0 0 0 1.6-16.2c-.2-3.1-.2-4.6 0-6.3l.4-2.2h-.4a65.5 65.5 0 0 1-5 3.2c-3 2-4.3 3.3-5 4.9-.5 1-.7 12.3-.3 16.3.4 5.1 2 10.3 3 11 .8.4 1.2 1.9 1.2 4.3 0 4.2.4 7.3 1.9 13.8.3 1.5 1.3 3.2 1.9 3.2.2 0 .7-.4 1-.8zm-10.5-.5c0-.2-.1-.3-.4-.3-.2 0-.4.2-.4.7v.6l.4-.4c.3-.2.4-.5.4-.6zm5.8-2.4c0-.4-.1-1.7-.4-3a36 36 0 0 1-.7-4.3c-.4-5.3-.6-6.4-1.1-7.2-.3-.4-.6-1.2-.7-1.8-.2-1.2-.8-1.8-1-.9-.2 1.5 1.5 14.8 2.4 18l.3 1 .5-.5c.3-.3.6-1 .7-1.3zm8.5-5.3c0-4.6 0-5.3-.4-5.4-.7-.3-.8-.2-1.8.8l-1 1 .2 1.7c.3 2.5.8 4.8 1.3 6 .4.7.7 1 1.5 1.1.1 0 .2-2.3.2-5.2zm21.5 4.2c.4-.2.8-.5.8-.7 0-.3-.2-.3-.7 0-.4.1-.7.4-.7.5 0 .1-.3.2-.7.2h-2.6l.7.3c.7.2 2.1 0 3.2-.3zm-34-5.4a131 131 0 0 1-1.2-14.7l-.3-5.6a116 116 0 0 1-.3-9c0-5.2 0-6.6-.3-6.5-.2 0-.4.5-.4 1 0 .8-.8 3.3-1.4 5-.2.4 0 .7.6 1.5l.8 1-.3 1.8c-.6 3.2-.5 23 .1 27.8.3 1.9.4 2.3.8 2.7l.5.4.8-1.7.9-1.8zm-4.3 2.5-.4-.4v1.2c0 .7.2 1.4.4 1.5.2.3.3.2.4-.7 0-.8 0-1.3-.4-1.6zm-16-1.1c.3-2 .2-7.8 0-8-.2-.2-.2.3-.2 1 0 .8-.1 1.5-.3 1.6a8 8 0 0 0-.5 2.1c-.2 1-.4 2-.6 2.1l-.4 1.4-.1 1.1.7.4c.4.2.8.4 1 .3l.4-2zm2.8 1a4 4 0 0 0 .3-2.1c-.1-2.1-1-5.7-1.4-5.9-.5-.1-.5 8.4 0 8.8.3.4.6.2 1.1-.8zm51.4-2c.2 0 .2-.3.1-.5-.4-.5-3.9-2.5-4.4-2.4l-.5.1 1.2 1.3c1.7 1.6 2.8 2 3.6 1.5zm79.2 0h19.3l1.8-1c1-.4 2.5-1.3 3.3-2l2.3-1.5 1.7-1.2c2.2-2-1.1-.6-4.7 1.9-1.4 1-1.5 1-2 .7-.5-.4.2-1.4 1.7-2.3l2.3-1.3 5.2-2.7 4.4-2.2.4.4c.6.5.7.4 1.2-.6.3-.7.7-1.1 1.8-1.6a153.6 153.6 0 0 0 6.7-3.6c.4 0 3.3-3.3 3.3-3.6 0-.2-.3-.4-.6-.4-.8-.2-9-.7-13.3-.9-1.8 0-4-.3-5-.5-2.2-.4-7.3-.7-8.3-.4-.5.1-.7.3-.7.7.2.9.8 1.3 2.2 1.5l2.1.3c2.4.5 6.6.7 10.3.6h4.4v.6c.2.6-.8 1.9-1.3 1.9a190.1 190.1 0 0 1-13 7.1l-1.8 1.2c-3.9 2-5 2.9-8.6 6l-1.3 1.2-3.8.3c-3.3.3-4.3.3-7.5 0a52239.5 52239.5 0 0 0-16-1.8 7 7 0 0 0-2.2 0 58.2 58.2 0 0 0-8.5-.3c-3.5 0-6.2-.1-7.8-.4-3.7-.6-5.3-.2-5.3 1.3 0 .9.3 1 2 1.2l5.1.4a39.5 39.5 0 0 0 11.2.7c.5.4 11.3.5 19 .3zm-135.3-4.1a185.2 185.2 0 0 0 1.9-11.5c1-5.3 1.5-10.5 1-10.8 0 0-.2.1-.2.5 0 .3-.1.8-.3 1l-.6 2.5a171.3 171.3 0 0 1-2.3 11.1c-.3 2.2-.7 9.3-.5 10.1v.7l.4-1c.2-.6.5-1.7.6-2.6zm147.7 1c.7-.3 1.9-1.3 3.5-2.9 1.5-1.4 2.8-2.5 3-2.5.4 0 4.3-2 7.8-4.1 1-.7 2.1-1.2 2.3-1.2.2 0 .7-.2 1.1-.5l2.9-1.6 2.7-1.6.6-.6-.5-.2a67.3 67.3 0 0 1-8-.2l-5.4-.3-.6.4c-.5.3-1 .4-2.1.3-1.8-.2-2.1.1-1.9 1.8l.2 1.2-.6.2c-.4.2-.8.1-1.4-.2-.7-.5-1-.5-2.3-.3-.8.2-1.6.5-1.8.7-.3.3-1.7.3-6.8.2h-6.5v.4c0 .6 1.3 1.8 2.8 2.7l2 1.5c.6.5 1.3.9 1.6.9.5 0 .8.5.8 1.5v.7l-1.7-.1a5 5 0 0 1-2.8-1c-.7-.4-1.6-1-2.2-1.2-.5-.2-1.4-.8-2-1.4l-1.2-.9-1.1.7a55 55 0 0 1-2.1 1.7l-1.3 1-2.1-.1c-1.2 0-2.8-.2-3.5-.4-.9-.2-2.5-.2-4.9-.1-3.8.1-4.4.2-5.7 1-1.3.7-3.4 1-7.9 1.4-3.8.4-1.3 1 6.9 1.6 1.5.1 2.3 0 2.8-.2.4-.2 1.9-.4 4.3-.4l3.7-.1 1 .6c.6.4 1.6.6 3.8.7l4.4.6 5.7.4c2.3 0 4.2.2 4.3.2.2.3 7.3 0 8.2-.4zm2.8-7s0-.3.2-.3c.5-.2.8.1.5.4-.2.3-.5.2-.7 0zm-54.4 5.4c0-.5-2-.5-2.9 0l-.7.4h1.8c1.4 0 1.8 0 1.8-.4zm-34.7-3h-1c-.4.1-.2.2.4.2.6 0 .8 0 .6-.1zm6.2-1.2c.9-.2 1-.3.7-.6-.4-.3-1.8-.5-5-.7l-2-.2.7.7c1.2 1.1 2.9 1.4 5.6.8zm23.9-1.7c.5-.3 1-.5 1.3-.5.5 0 2.7-2 4-3.6 1.2-1.7 1.9-2.2 2.3-1.8.4.4 0 1.3-1.2 2.7-.7.7-.9 1-.7 1.3.6.6 4-2.3 5-4.2.2-.5.7-1 1-1 .5 0 .6 0 .6.8 0 .6-.3 1.2-1.1 2-1.4 1.6-2 2.7-1.5 2.7s2-1.6 2.5-2.8c.5-1 1.3-1.2 1.6-.5.2.5-.8 2.2-2 3.4-1.2 1.2-1.4 1.8-.7 1.8.6 0 4-3.4 4.3-4.2 0-.3.3-.8.6-1 .4-.4.6-.4 1-.1.5.4.4.7-.6 2.3-1.4 2-1.3 2.3 1 2.2 1.2-.1 3-1 4.2-2.1l1-1v-2.2l.1-2.3-.6-.7-.5-.8.3-.5c.6-.8.2-1.4-1.2-2.1l-1.1-.6h-9l-2-.7c-1.6-.5-2.6-.6-4.6-.6-2.8 0-3.3.3-4.8 2.2-.4.6-1.8 2.2-3 3.4-2 2.2-3 3.8-2.8 4.3.2.4.5.2 2.3-1.5 1.8-1.8 2.4-2 2.8-1.2l.2.6.6-.7c1.3-1.4 2.4-.3 1.3 1.2l-1 1.5c-.4.3-.5.8-.5 1 0 .4.3.3 1.2-.6l1.5-2.1c.7-1.2 1.4-1.7 1.8-1.2.5.5 0 2-1.1 3.2-.6.6-1.2 1.5-1.4 1.9a2 2 0 0 1-1 1c-1 .5-1.6 1-1.6 1.3 0 .5.4.4 1.5-.2zm8.6-.1-.8-.2c-.7 0-.8 0-.5.4.2.3.4.3.8.1l.5-.3zm-21 .2.8-1c.7-1.5 1-2 3-4.3 1-1.2 2.3-2.8 2.7-3.5.5-.7 1.4-2 2.1-2.7.7-.7 1.5-1.8 1.7-2.3.2-.5.7-1.3 1.2-1.7l.6-.7c-.2 0-1.2.9-2.2 1.8a57.6 57.6 0 0 1-7.8 6.5l-1.5 1v.9c0 .6-.2 1-1 1.7-.6.6-.8 1-.8 1.7 0 .4-.3 1.1-.6 1.6l-.5.8.7.1c1 .3 1 .3 1.5.1zm-5-.8c1.4-.7 1.8-1.3.7-1.3-.8.1-3.6.7-4.3 1-.5.2-.6.3-.3.6.5.6 2.3.5 4-.3zm53.8.1.5-.9.5-1.4c.4-.7.5-1.6.5-2.7v-1.6l-1.3-1.3c-.7-.7-1.5-1.3-1.8-1.3-.3 0-.9-.3-1.2-.7-.6-.5-.7-.8-.5-1.4.2-1.2-.5-2.1-1.6-2.1-.5 0-1 0-1 .2-.2.2-1.4.3-2.8.3s-2.7.1-3 .3c-.6.3-.7 1.3-.2 2.2.2.3.4 1.8.4 3.9v3.3l.6.8c.4.5 1 .9 1.4 1 .4 0 .8.3 1 .5 1 1 3 1.4 6.3 1.5 1.3 0 1.7-.1 2.2-.6zm-68-.3.5-.3-1.4-.6-3-1.4c-2.1-1-3-1-3-.2 0 .4-.4 1-.9 1.4l-.8.8 1.7.1 2 .4c.3.3 4.5.2 5-.2zm3.4-1c0-.4-1.5-1-2.4-1h-.6l.5.2c.3.2.7.4.9.7.4.5 1.6.6 1.6 0zm-13.3-.7c1.1-.5 2.2-1.8 2.2-2.6 0-.3-.2-1-.5-1.6l-.6-1.4a1 1 0 0 0-.3-.7c-.5-.4-4 1.5-4.1 2.2-.3 1.6-.3 1.7-1.3 1.7-.6 0-1-.2-1.3-.7-.4-.6-.4-1.2-.3-5 0-2.8 0-5.6-.2-8.2a31 31 0 0 1-.3-4.4c.5-1.3 2-.4 2.8 1.7.7 1.7.6 2.4-.1 2.4-.4 0-.6-.2-.6-.7 0-.4-.3-.8-.5-1-.3-.3-.4-.2-.4.3l.2.9c.3.1.9 8 .8 9.8v1l.6.2c.4 0 1 0 1.5-.2 1.1-.4 2.7-2 2.7-2.5a8 8 0 0 0-.7-2c-2.1-4.3-3.6-14.6-2.2-15.5.6-.3.8.3.8 2.2 0 1.9.6 6.5 1.1 8.3.5 1.8 3 6.9 4.3 8.5 1.7 2.2 3.7 4 4.4 4 .3 0 .8.2 1.1.4l.6.3-.4-.7-1.3-1.2c-1.7-1-2.4-1.7-2.8-2.6-.4-.7-.4-1-.1-1.3l.8-.4c.7 0 1.8 1.2 1.8 1.8 0 .4.5.9 1.2 1.4a21 21 0 0 1 2.4 2c.7.8 1.6 1.4 1.9 1.4.2 0 .9.3 1.4.7.5.4 1.6.8 2.4 1 .7 0 1.6.3 1.9.4 1.5.9 6.3-.6 6.3-2l-.8-1.1c-.6-.6-1.1-.9-2-1-1.4-.1-2-.6-3-2.6l-2.2-4c-1.7-3-2.8-7.6-2-8.8.2-.5.7.1.9 1.4.3 2 1.8 5.5 3 7.7.8 1.2 1.3 2.3 1.3 2.4 0 .4 1.3 1.7 1.7 1.7.2 0 .2 0 0-.2-.3-.3-.9-1.3-.9-1.7l-1-2.4a21.8 21.8 0 0 1-2.1-6.2l-.4-2.2v-1c.6-.8 1 0 1.8 2.8a28 28 0 0 0 2.7 7.5c2.1 4.4 3.4 6 4.8 6 .2 0 .8-.3 1.4-.8a29 29 0 0 1 3.2-2.5 31 31 0 0 0 2.5-2l1.3-1.2h-2c-1.7 0-2.3-.2-3.4-.8-1.7-.8-2.5-1.9-1.9-2.6l.4-.4.8.8c1.3 1.2 2.3 1.6 4.4 1.6 2.2 0 3.8-.7 5.8-2.5 2.3-2.2 4.6-2.5 6.6-1 2.7 2.1 4 1.7 1.8-.7a37 37 0 0 1-2-2.4c-1.8-2.5-2.5-3-4.6-3.7-1.1-.3-2.4-.5-2.8-.5-.6 0-1.3-.4-2-1-.7-.5-1.6-1-2-1l-3.5-1c-.3-.2-1.5-.4-2.5-.5a25.4 25.4 0 0 1-5.5-1c-.8-.3-1-.5-1.2-1.2-.2-1-1-1.5-2.3-1.5l-3.7-.7-4-1c-.7-.1-1-.4-1.2-1l-.3-.7H317c-1 0-1.6-.2-2.6-.9-1-.6-1.7-.8-2.7-1-.8 0-1.9-.2-2.3-.4l-1.2-.4c-.2 0-.6-.2-.9-.5-.4-.4-.8-.5-2.3-.5-2.5 0-3.4-.5-4-1.8-.4-1.1-.9-1.4-1.9-1-.3.2-.4.7-.3 3.8 0 2 0 3.2.1 2.8 0-.4.4-1 .6-1.5.3-.4.5-.9.5-1.1 0-.5 1.2-1.3 1.7-1 .2 0 .2.8.1 2.7-.2 3-.5 3.9-1.3 4-.7.1-1.5 2.3-2 5.4l-.7 3.3a2524.7 2524.7 0 0 0-1 10c-.2 1.7-.1 2.8.3 5.3.6 3 1 3.8 2.1 4.3l.8.5c.9.5 3.1 1.4 4 1.6 1.2.2 2.5 0 3.9-.5zm27.4-7.7a16 16 0 0 1-4-5.8c-1.1-2.3-1.3-2.8-.8-3 .5-.4 1.3.4 1.8 1.8.3.9 1 2.1 1.4 2.8l.7 1.5c0 .4 2.5 2.1 3 2.1.6 0 1 .7.7 1-.6.6-1.7.4-2.8-.4zm-17.8-10.4c-.3-.5-.5-1-.5-1.3 0-.7-1-4.4-2-7.4-.5-1.6-.9-3-.8-3.3.3-.7 1-.3 1.4.8l1 2.7a42.2 42.2 0 0 1 2 7.3c.6 1.8-.2 2.7-1 1.2zm-72.4 14.4c-.3-1-.4-1.7-.2-2.6.3-1.9.1-2.5-.7-3.4l-.8-.8V166c0-1.4-.1-1.8-.6-2.4-.4-.4-.7-.7-.8-.6-.4.3-.1 1.6.5 2.8l.4 1.2c-.2 0-.2.8-.1 1.7a30 30 0 0 0 1.1 5.6c.2.6.3 1.5.3 2s.2 1 .6 1.4l.6.6v-1.2c.1-.7 0-1.8-.3-2.6zm158.7 0c.4-.3.5-.5.4-1-.4-1.6-.5-2.4-.2-2.6.4-.3 1.3.8 1.5 2 0 .5.3 1 .5 1.1.1 0 .9 0 1.6-.2 2.1-.6 2.7-1.9 1.8-4-.4-.9-.3-1.4.2-1.4.3 0 1.3 1 1.3 1.3 0 .4.8 1.6 1 1.6.2 0 .3-.4.3-.8 0-.8-.9-1.9-3.1-3.7a6 6 0 0 1-1.4-1.5c-.8-1.7-4-1.9-5.5-.3a4 4 0 0 0-.8 1.2l-.6 1c-.4.5-.7.6-1.8.6-.7 0-1.4 0-1.5-.2-.3-.6-1.1-.3-1.8.6-1.4 2-.5 3.8 2.4 4.8.6.2.8.4.8 1.1v.9l2.1-.1a10 10 0 0 0 2.8-.5zm-92-.5c-.3-.3-.4-.3-.4 0 0 .2.2.5.3.5.6.2.6 0 .1-.5zm78.3-5.8c.3-.2.4-.8.4-1.5 0-.9 0-1-.2-.5l-.6 1.6c-.5.9-.2 1.1.4.4zm-143.1-1c.2-.8.1-1.2-.3-1h-1l-.7-.2.3-.9c.2-.6.2-.8 0-1-.4 0-.4-2.7 0-3.4.3-.7 1.7-.7 2-.1v1.8c0 1.6.5 2 1 .7.7-1.3.7-2 .3-3.4-.3-.8-.4-2.6-.5-5.1a15.8 15.8 0 0 0-2-8.7c-.3-.4-.6-1.1-.6-1.6l-.5-3c-.3-1.3-.5-2.8-.5-3.3 0-.6-.1-1.4-.3-2-.1-.4-.3-2-.3-3.2 0-1.8-.1-2.6-.5-3a13 13 0 0 1-1.6-6.4c0-.7-.2-2.1-.5-3.2a68.5 68.5 0 0 1-1.7-16.8c.5-2.1.4-3.3-.6-4.7l-.6-1 .4-1.9c1-5.3 1-5.5-2.6-8.7-2.8-2.4-3.4-3.3-3.4-5 0-.2-.3-.8-.7-1.2l-2.7-2.6c-2-2-5.7-4.1-7-4.1-.7 0-2.4 1.3-3.4 2.7-.5.6-1.4 1.7-2.1 2.3l-1.3 1.3.8 1.5c.5.8.8 1.7.8 1.9l.4 1 .4.6-.5 1.1-.7 2.2c-.2 1.1.3 6 .7 8.2.2.6.3 3.5.4 6.3v5.1l-.8 2.4-.8 2.4v3.1c0 1.9.2 3.9.5 5l.5 2-.4 1.8c-.2 1-.4 2.2-.3 2.5a5 5 0 0 1-.4 2c-.3.8-.4 1.5-.3 1.9l.2 4c0 2.2.1 4 .3 4.2.4.7.4 1.6 0 1.7-.3.1-.4 5.5-.1 5.7l.1-.7c0-.4.2-.9.4-1 .2 0 .3-1 .3-3.4a44.8 44.8 0 0 1 1-9.5c.2-1.8.8-3.1 1.3-3 .2.1.3.9.3 2.5-.1 1.7 0 2.7.3 3.5l.3 1.7c-.1.2 0 .8.2 1.2.2.5.4 1.3.4 2 0 .8.2 1.2 1 1.9l.8.8.3-.7c.4-1 .2-2-.7-3.8a9 9 0 0 1-.4-6.7c.4-1 .7-2.2.8-2.8.3-1.3 1-1.6 1.4-.6.2.4.3 1.7.2 2.8 0 1.5.1 2.4.6 3.6.3.9.7 2.4.8 3.3l.1 1.7.5-1.6c.8-2.2.7-3.3-.3-10a456 456 0 0 1-2.4-17.2l-1-7.3a42 42 0 0 0-1.7-9.3l-.3-1.8.6-.8.5-.7-.5-.2c-.4 0-.5-.3-.5-1.2 0-1.3.4-1.7 1.9-1.6h1.4c.2 0 .4-.6.4-1.7 0-1.3.2-1.6.6-1.7.2 0 .5.1.6.4.3 1 .7 1.7 1 1.7 1 0 1.3-4.6.4-6-.3-.5-.8-1-1-1-1.3-.1-.9-1.8.4-1.8.8 0 2.2.7 2.6 1.3.5.7 1 3.4.9 4.6l-.7 2.4a9 9 0 0 0-.6 1.4c0 .1.6.8 1.4 1.5 1.6 1.5 1.8 2.1 2 7.8v4.2l.8 1.6c1.4 3 1.9 4.3 1.9 5.2 0 .5.2 1.6.5 2.6.8 2.7 1.3 5.7 1.5 8.5 0 1.4.3 4 .6 5.5.6 2.8.6 3.6.2 6.5-.2.8 0 1.4.6 2.8.4 1 .7 1.8.6 2-.2.5-1 .4-1.5-.2-.3-.5-.4-.5-.4-.2l.3 1.2c.3 1 1.8 7.8 2.2 10.5.2 1.6.5 2.2.9 2.6.3.2.8 1 1 1.8.8 2.8 1 3.3 1.3 3.8l.4.5v-.9c0-1.1.7-2 1.6-1.8l.6.1.2 1.6.4 2.4c.2 1-.2 1.3-1.4 1.5-.6 0-.8.2-1 1-.2.8-.2 1.2 0 1.6 1.2 1.8 1.4 2.5 1.4 3.7 0 1.6.5 2.4 1.5 2.4.3 0 .7-.2.8-.5zm-5.3-19.8c-1-1.3-1-2-.5-2.6 1-1.2 2.3-.4 2.6 1.7.4 1.8-1.1 2.4-2.1.9zm147.4 18a58.2 58.2 0 0 1 4-10.1c.6-1.5.9-1.9 1.3-1.9.6 0 .8 1 .4 1.6a21 21 0 0 0-1.6 3.9l-.2.7.8.4.8.4.4-.6c.6-.9 1.8-3.4 2.1-4.8.2-.7.6-1.4.9-1.5.7-.5.6-1.3-.3-3.2-.8-1.8-2.9-3.8-3.6-3.6-.3.2-1 2-1 2.9 0 .3-.7 2.1-1.7 4a40 40 0 0 0-3.3 8.3c-.6 2-.8 4-.6 4.6l.2.6.5-.4c.3-.2.7-.8 1-1.3zm-22.7.2c1.3-.6 1.4-1 .6-1.4l-1-.7-.7-.4c-.6 0-5.7-2.8-6.2-3.4-.3-.4-1-.9-1.7-1-1.5-.5-1.5-.5-1.5.2 0 .6 1.8 2.5 4 4.2l2 1.7c.9.8 2.1 1.4 2.9 1.4.3 0 1-.2 1.6-.6zm16.5-.7-.2-4c-.2-4.4-.5-5.4-1.5-5.7l-.9-.2v-2.6a12 12 0 0 0-.4-2.7c-.1-.1-.4 0-.6.1-.5.4-.5 2-.1 4.1.6 3.6.7 6 .3 8-.2 1-.6 2.1-.8 2.4-.6.9-.2 1.1 1.5 1.2 2.6.2 2.8.2 2.7-.6zm-5.7-.6.5-2.5c.3-1.5.4-2.3.2-3.3l-.2-1.4-.4 1-.3 2.4v1.2l-1 .8a4 4 0 0 1-1.1.8c-.3 0-.3-1.2 0-1.4.2-.1.3-.5.3-.8 0-.5-.2-.7-.5-.7-.8 0-1-.4-.5-1.3.3-.6.4-1.6.4-3.2 0-1.3.2-2.4.3-2.5.4-.2.3-2 0-2-.2 0-.8.6-1.3 1.4-.7 1-1 1.8-1 3.1l-.6 2.4c-.4.9-1.6 2.1-2 2.1-.2 0-.4.2-.6.4-.2.2 0 .5.7.9l1.4.6 2.5 1.3c2.3 1.5 3.1 1.7 3.2.7zm-115-1.8c.5-.9.7-1.5.8-3.5l.4-3 .2-.5-.4.4c-.6.6-2.4 8.1-2 8.6 0 .2.1 0 .2-.3 0-.4.4-1.2.7-1.7zm130 1a4 4 0 0 0 .4-1.9v-1l-.2.6-.7 1.4c-.5 1.4-.6 1.8-.4 1.8.2 0 .5-.4.8-.9zm-150.6-5.8c-.2-.4-.5-.7-.6-.7l-.3-.7-.1-.8v.8l.4 2.7.6 2.6c0 .4.1 0 .3-1.1.1-1.7.1-2.1-.3-2.8zM398 161c.1-.9-.5-1.3-1-.7-.2.4-.4 1.2-.3 1.7h.6c.4-.2.6-.5.7-1zm-12-1 .4-3.6c.3-3.5.6-4.6 1.5-5l.9-.3c.4 0 .3 1.2-.2 2.3a5 5 0 0 0-.3 2v.9l1.3-2.6c.7-1.4 1.4-2.7 1.7-2.8.2-.1.7-1.2 1-2.6.3-1.3.9-2.9 1.2-3.5.4-.9.5-1.2.3-2-.8-2.3-1-3.7-1-4.7a23.2 23.2 0 0 0-3-10.4c-.1-.5-1-1.7-2-2.5-2-2-3-2.3-6.3-1.8l-2.3.3.6.3 1.8.5c.9.2 1.5.5 2.1 1.2 2.2 2.1 3.5 3.8 3.6 4.6.1.5.6 1.5 1 2.2 1.2 2.4 1 2.7-1.8 3.4-1 .2-2 .6-2 .7-.6.4-1.4.2-2.3-.6-1.2-1-1.9-1-2 0v2.7c-.1 2.1.2 4.7.8 5.9.2.4.3 1 .2 1.6-.1.8 0 1 .5 1.2.4.2 1 .2 2-.2s1.7-.5 2.1-.3c.8.3 2.2.3 2.2 0 0-.5-1.2-2.6-2.8-5-1.3-2.1-1.6-3.2-.8-3.2.3 0 2.8 3 2.8 3.3l.8 1.3c1.4 2 2 5 1 5.4l-2 .7c-1 .3-1.8.6-1.8.8l-.4 1.4-.3 1 .4.6.5.5-.3 1.4c-.4 2-.7 4.9-.5 5.4.3.7 1.2.5 1.4-.5zm-15.4-1.4c.3-.3.4-.8.4-1.6v-1.1l-1.2.1c-1.5.2-1.5-.2.1-1.3l1.1-.7v-2.5l-1.3-.6c-2.2-1-2.3-1-3 2.4-.4 1.6-.7 2.3-1.3 3-.4.4-.8.6-1 .5l-.3-2.4v-2.1l-.8.8c-1 1.1-1.5.8-1.5-1.1 0-2.3.4-3.5 1.2-3.5.3 0 .7 0 .8.2.2.4.6.1.6-.4 0-.7-.8-1.2-2-1.2-1 0-1.3-.1-2.4-1a7.6 7.6 0 0 1-1.5-2l-.3-.6-1 .4c-1.3.7-2 .4-2.4-.7-.3-1.2.2-2.9 1.5-6.1 1.1-2.9 1.2-3.4.5-5.3l-.6-1.8c0-.2-.6-1.3-1.5-2.5-1.4-2.1-2.6-3.4-3.1-3.4-.2 0-.5-.2-.8-.5-.5-.7-.9-.5-.5.3.2.3.5 1.4.7 2.3l1 3.3.6 1.6-.2 3.3c0 2 0 4.5.2 6.2.2 1.5.3 3 .2 3.3-.1.2-.2 1 0 1.5 0 .7 0 1.2-.2 1.3-.8.5-.3 1.2 1.8 2.5 1.4 1 2.6 2 3.5 3.1.8 1 2 2.1 2.7 2.7a244.4 244.4 0 0 1 5.7 4.4c1 .9 1.4 1 2.6.3a11 11 0 0 0 1.7-1.1zm-8.1-.4-3.2-2.6c-4.5-3.8-5.3-4.5-7.4-6-4-3-4.8-3.5-6.3-4-.8-.2-1.7-.7-2-1a34 34 0 0 0-8-4 77.7 77.7 0 0 1-11.1-5c-.2-.2-1.3-.6-2.3-1a71 71 0 0 1-4.4-1.5c-.4 0-1.4-.2-2.2-.5-1-.3-2.7-.7-4.1-.8l-4.4-.7c-6.6-1.4-9.9-1.8-9.9-1l-.3.8-.4.5-.7-.6a6 6 0 0 0-2.2-1c-1.6-.4-4.1-.5-3.6-.2.2.1.4.5.6.9.2.6 0 .5 5.9 1.9 2.2.5 3.5 1.6 2.6 2.2-.5.3 0 .8 1.1 1.1l2.1.9c.6.3 1.9.6 3 .7 1 .1 2.2.4 2.5.6.6.4 1 .4 2.7.2a7 7 0 0 1 2.3-.1c.4.4-.5 1-2 1.3l-1.4.2.7.4c.4.2 1.1.3 1.7.3 1.3 0 4-.5 4.3-.8.8-.7 3.4 0 3.4 1 0 .5-1.6 1.2-2.6 1.2-.5 0-.6 0-.3.3s1.2.4 4.1.3h3.8l-.3.4c-.1.3-.4.6-.6.6-.2.1 0 .3.6.4.9.2.9.2.5 1.7-.1.4.3.5 6.1.6h3.3l.1.6c.1.8 1.1 1.2 3 1.2 1.2 0 1.6 0 1.7.4.3.7-.3.9-2.9.9-2 0-2.5 0-2.4.4.2.4 2.7.7 6.6.8 3 0 3.4.2 3.2 1-.2 1 .3 1.1 4.7 1.9 2 .3 3.8.7 3.8.8.5 1.5.7 1.6 4.5 2.5a7 7 0 0 1 2 .8c1.2.9 3 1.6 4 1.5h.8l-.7-.5zm-86-5c1.6-1.4 2-2 2-2.6 0-.7-.1-.8-.5-.6-1.2.7-4.2 5-3.4 5l2-1.7zm-22.6-1.2c.4-.4.8-1.2 1-1.7.3-1.1.3-4.5 0-5.5-.2-.4-.4-2.3-.4-4.1-.1-2-.3-3.7-.5-4a12.2 12.2 0 0 1-2-7.5c0-2.9-.7-6-1.6-7.9l-.8-1.6v-3.3l-.1-3.3h.5l.6-.1.2 1.8.1 3.4c0 1 .2 1.8.5 2.3 1 1.8 1.6 4 1.8 7.4.2 4.1.4 5 1.5 7.2l.8 1.6v3.3c.1 2.2.3 3.7.6 4.6l.4 2.1c0 .5.1 1 .3 1.2.6.4 1-1.6 1-3.5-.2-1.5-1-4.8-1.3-5.5-.4-.7-.3-5.1 0-5.5l.5-.3c.1 0 .3 1.2.4 2.7 0 1.4.2 2.8.4 3 .1.1.3.7.3 1.3l.7 2.5.6 1.5-.1-1.6-.4-5.2c-.1-2-.4-4-.7-4.7-.5-1.3-1.4-6.4-1.4-7.5 0-.4 0-1 .3-1.2.2-.4.2-.9-.1-2.2-.3-1.2-.4-2.5-.3-4.6l.1-3-.8-1.5a25 25 0 0 1-2.1-6c-.3-1.4-.4-2-.1-3.5.4-2.3.4-3.3-.1-5.7l-.7-3.7c-.3-2.5-.6-3.6-2-6.3l-1.3-2.4.5-.5.5-.5.8 1c1.6 1.8 2.9 5.2 2.9 7.5 0 .9.2 2.4.4 3.4.3 1.3.4 3.3.5 6.4v4.5l1.1 2.1a13 13 0 0 1 1.1 2.6l.6 1.9c.4 1.2.5 1.8.4 3.2-.3 2 0 3.8.4 3.3.4-.3.7-6 .5-7.8-.3-2-.4-2.2-1.6-4.3-1.4-2.3-1.5-2.8-1.8-7.8-.2-2.5-.4-4.8-.6-5.1-.9-2.3-1-5-.3-5.8.4-.5 1.5-.6 1.8-.2 0 .1.2 2.2.2 4.6.3 9.2.7 11.8 2.1 14 1.5 2.1 1.7 3 2 8.4 0 3.1.2 4 1.1 6 .3.6.6 2 .8 3l.8 7.4c0 .5.3 1.8.7 2.8.3 1 .6 2.3.6 2.9 0 1.7.3 1.8 1.4.9l1-.8v-2.6c-.1-2.3-.2-2.7-.8-3.5l-.6-.8.1-2.9.2-2.9-.9-2c-1-2-1.3-4.1-.6-4.2.2-.1.5.2.7 1.1.2.7.7 2 1.2 2.9l.7 1.5-.1 2.6-.2 2.6.7 1.3c.5 1.1.7 1.7.7 3.3 0 2 .3 2.8 1 2.3.3-.2.3-.4-.1-3.4-.1-.5 0-1.2 0-1.6.2-.3.2-1.3 0-2.2a7 7 0 0 1 0-2.1c.2-.3.2-1.4 0-2.4l-.3-3.8c0-1.3-.3-2.6-1-4.5-.5-1.5-1-3.3-1-3.9 0-1.2-1.1-6.3-1.6-7.1-.2-.4-.4-2.5-.5-6l-.2-5.5-.6-2c-1.4-4-1.5-5.8-.4-5.4.4.1.6.8 1.7 5l.7 2.7.1 5.3.2 5.3.7 1.2c.4.7.8 2 1 3.3l1 3.7c.8 2.4 1.3 4.8 1.5 7.2 0 1.2.3 2.5.4 3 .2.3.4 1.7.6 2.9 0 1.2.5 3.3.9 4.6.6 2 .8 2.3 1.3 2.3 1.2 0 1.6-1.5.6-3-.4-.8-.5-1.2-.4-2 .3-1.5-.6-6.4-1.2-7.3-.8-1-1-3.7-1-11.4 0-5.2 0-6.7-.4-7.7-.6-2-.4-3.3.5-3 .9.4.8-.1-.2-6.6a18.7 18.7 0 0 0-1-4c-.3-1.4-2-6.3-2.9-8-.3-.5-1-1.6-1.7-2.3-.7-.8-1.2-1.7-1.2-2 0-.4-.1-.7-.3-.7-.1 0-.2-.3-.2-.8v-.8h.7c1.1 0 3.2 1 3.7 1.7.5.8 1 2.9 1 5 0 .8.2 1.7.4 1.9.7.8 2.4 7 2.8 10a39.3 39.3 0 0 0 1.2 6.8l.6 4.1c.3 1.7.5 4.2.5 8 .1 5.7.2 6.6 1.4 9.5l.7 1.6 1.4.9c1 .5 1.6.8 1.7.6.2-.1.1-1 0-2.5a179 179 0 0 1-1-5.6c-.3-3.2-1-6.5-1.2-7.3l-.6-4.4a762.3 762.3 0 0 0-1.1-10.3c-.3-2.3-.5-3.4-.8-4.2a8 8 0 0 1-.4-1.9c0-.7-.3-2.1-.5-3.1l-.6-3.5c-.3-3.6-.5-4.9-.7-5l-.2-1.7-.4-3.3a55.2 55.2 0 0 1-1-3.6l-.9-1.5a12 12 0 0 0-1.3-2.2l-.6-.7h-3c-3.3 0-3.4.2-4 2.3-.1.8-.5 1.9-.7 2.5a20 20 0 0 0-.8 2.2 8 8 0 0 1-1.9 3.8c-.7.8-1 1-1.8 1s-2 .3-3.3.8c-8.1 3.1-8.8 3.4-10.2 3.6a38.2 38.2 0 0 0-6.1 1.4l-1.4.3c-1.7.5-1.2 1.9 1.4 4.2a7 7 0 0 1 1.7 2l1 2c.5 1 .7 1.8.7 2.6 0 1.3.3 2 1.4 3.1.7.8.9 1.1 1 2.4 0 .9.1 2 .4 2.6l.5 2.5.5 3c.1.7.3 3.4.3 5.9.2 6.3.7 9.2 2.2 13 .6 1.6 1 3.3 1.2 4.4 0 1 .3 2.4.6 3 1 3 1.2 4.4 1.4 7.5 0 2.6.3 3.8.9 5.7a22 22 0 0 1 .9 4.7c.2 3.5.3 3.6 1.5 2.4zm123.5-1.5c-.1-.1-.4-.2-.6-.1l-.4.1.4.9.4.9.3-.8v-1zm-5.8-1.3.8-3.1.7-3.2.6-2.8c.2-1.4.5-2.3.7-2.3.5-.2.7.4.5 1.5a65 65 0 0 0-1 5.6c-.4 1.6-.7 3.8-.4 3.8 0 0 .2-.4.2-1s.1-1 .5-1c.6-.2 1.2-1.5 1-2-.1-.1 0-.5.2-.9s.4-1.4.5-2.8v-2.2h.6c.5-.2.6-.4.7-1.4.3-1.6.2-4.6 0-5.2-.5-1.2.7-1.7 1.2-.6.2.4.6.7 1.2.8.4.2 1.2.4 1.6.7.6.3.8.3 1.4 0 .4-.2.7-.3.8-.1.2.3 2.1.9 2.7.9.5 0 .3-1.1-.2-2.3l-.6-1.5a8 8 0 0 0-1.7-2.2l-1.7-1.7-1.1.1-2.1.3c-.8.2-1.1 0-2-.5-.5-.3-1.5-.7-2.1-.8l-2.3-.3c-1-.1-1.3-.3-2.1-1.4a33.2 33.2 0 0 0-9.1-7.5l-1.4-1-1.6 1.3c-.9.8-2 1.5-2.6 1.6l-1.5.7c-.3.2-.9.4-1.3.4l-1.2.2-.4.3.4.7.4.8 2 .1c1.6 0 2.5.3 3.3.7.7.4 1.3.6 1.5.6.5 0 2.5 1.5 3 2.3l.6 1.5c.2.6.2.7.3.3l.2-.8c.2 0 .3-.7.3-1.4s0-1.3.2-1.4c.3-.3.9.1 1.3 1 .2.5.7 1 1.2 1.2 1 .4 3 2 3.2 2.5.2.5-1.2 2-2.2 2.5-.7.3-1 .2-2-.3-.6-.3-1.3-.5-1.4-.4l-.6 2-.4 1.9.5.4 1.5.5c1.3.3 2.4 1.1 2.8 2.2.5 1 1.5 1.2 2.2.2.3-.6.4-1 .2-2.5 0-1-.2-2-.3-2.4-.1-.4 0-.5.3-.5.8 0 1.2 1 1.4 3.2l.1 2.2-1.6 1.5c-1.8 1.6-2 2.4-1.2 4 .2.4.3 1 .2 1.2-.1.3-.3.2-1.2-.7a4.5 4.5 0 0 0-1.2-1.1c-.2 0-.4-.2-.6-.4-.3-.4-.3-.5.4-1l.7-.6-.4-1.4c-.5-1.6-1.2-2.2-2.9-2.7-2.3-.7-2.5-.8-2.7-1.6-.1-.4 0-1 .1-1.3.4-.8.4-1.6-.1-1.4-.2 0-.4.2-.4.4l-.9 2.1c-2 4.4-2.6 5.7-3 7.1-.2.9-.3 1.7-.2 1.8l2.2-.6c2.4-.8 2.7-.8 3.5-.2.4.3.6 1 .7 2.1.2 1 .4 1.8.6 2h1.7c1.7-.2 2.9.4 3.6 1.7 1 2 2.5 2.8 3.2 1.6zm-.4-11.4c-.1-.4 1-2.4 1.5-2.5.7-.2.7.6.1 1.7-.6 1-1.3 1.4-1.6.8zm1.5-8.3c-.8-.6-.3-2.1.6-1.8.5.2.8 1.1.4 1.6-.4.4-.5.4-1 .2zm-150.4 17.4v-1.2l-.3.5c-.3.3-.4 1-.4 1.6 0 .8 0 1 .4.7.2-.3.3-.8.3-1.6zm157.5 1c.2-.4.2-.8 0-1.5l-.6-2.9c-.3-1.9-.6-2.6-1.2-2.2-.2.2-2 5.2-2 5.9 0 .8 3.1 1.4 3.8.6zM231.2 145c-.1-.3-.2-.1-.2.3s0 .7.2.5v-.8zm55.7.3 1.5-.8c1-.3 3-2.7 3.3-3.6l.3-1.5.2-.6-.7.3c-.8.4-3.6 2.8-4.6 4-1.1 1.2-1.9 2.9-1.3 2.9.2 0 .8-.3 1.3-.7zm-37.1-.8c0-.2-.1-.4-.3-.4l-.4.4c0 .3 0 .4.3.4.2 0 .4-.2.4-.4zm98 .1-.5-2.5-.5-2 .3-2.3c.3-2.3.2-2.8-.7-2.6h-.4l-.1 4.4v4.4l.5.4c.7.6 1.2.6 1.3.2zm-3.3-2.6a105.1 105.1 0 0 0-.3-7.5c-.2.2-.3 1.5-.3 3.2 0 2-.2 3-.4 3-.6 0-1-1-1.4-3-.3-2-.9-3.5-2.5-6.4l-1-2.1c-.2-.6-1.4-2.1-2.6-3.4a11.5 11.5 0 0 1-2.1-2.8c0-.6.9-1.5 1.3-1.3.2 0 1.5 1.2 3 2.7 2 2 2.6 2.5 2.7 2.2.5-1.3-3.5-6.3-5-6.3-.3 0-.9-.3-1.3-.8-.6-.7-.9-.8-1.5-.7-.5.2-1.4-.1-3.6-1.3l-2.9-1.5-1.6.2c-1.3.1-1.7 0-2-.2-.1-.3-.4-.5-.7-.5-.3 0-.2.2.1.8.3.5.4.9.3 1-.3.3-3.4-.4-4.3-1-1.1-.8-.9-1 1.3-1.7 1.2-.3 2-.4 3.4-.3 2 .2 2.9 0 2.9-.4 0-.5-2.7-2-3.9-2.2-.6 0-1.6-.3-2.3-.6a5.4 5.4 0 0 0-5 .8c-1.1.7-1.5 1.1-1.4 1.5.1.2-.2 1-.7 1.9L311 119c-1 2.5-1.6 3.2-2.2 2.6-.4-.4.2-2.1 1.6-4.9l.8-2c0-.4 0-.4-.1-.1-.1.2-.3.3-.5.3-.3 0-1.8 1.5-2.8 3-.3.4-.7 1.4-.8 2 0 1-.2 1.2-.7 1.3-.4 0-.9.8-1.9 2.8-1.5 3.1-1.8 4.6-.8 4.8 4.2.8 5.4 1 6.7 1a113.4 113.4 0 0 1 22.3 7.5 69.4 69.4 0 0 0 9.6 4.9c.4.3 1 .5 1.5.5h.9v-.8zm-11-6c-.3-.4-.8-1.4-1-2.1-.3-.7-.6-1.6-.8-1.8a2 2 0 0 1-.4-1l-.6-2-1.2-4.1c-.6-2-.6-2.4-.3-2.7l.3-.5.5.6c.3.3.5.8.5 1l.7 2.4a53.3 53.3 0 0 0 3.2 8.6c1 2.1.5 3-.8 1.6zm-4.4-2.3a10 10 0 0 1-1.5-3.5l-1-2.8c-.9-2.4-1-3.4-.5-3.6.5-.1 1 1 2.5 5.1 1.4 3.8 1.6 5.7.5 4.8zm-66.7 6.2a12 12 0 0 0-.6-4.2c-.3-1-.6-1.6-.7-1.5-.1.3.2 4.7.5 6.3.1 1 .5 1.8.7 1.8v-2.4zm-222-.5c-.3-.4-1-.4-1.5 0-.3.1-.1.2.6.2.6 0 1 0 .8-.2zm207-3.9a5 5 0 0 1-.4-1.3l-.1 1.6c0 1.4 0 2.7.3 3.1l.3.7.1-1.8c0-1 0-2-.2-2.3zm61.3 4h-.5c-.2 0-.2 0 .1.1.3 0 .5 0 .4-.1zM37.3 139c0-.2-.2-.3-.4-.3s-.4.1-.4.3c0 .1.2.3.4.3s.4-.2.4-.3zm312.4-1.3c-.3-.3-.5.2-.3.7l.2.5.1-.5v-.7zm-119.5-4v-1l-.4.7c-.2.4-.4 1.1-.4 1.6v1l.4-.7c.2-.4.4-1 .4-1.6zm120.7.3a28.5 28.5 0 0 0-2-9l-.4-.5-.4.5c-.2.3-.6.5-.8.5-.3 0-.4.2-.4.6 0 1.1 1 6.4 1.4 7.2.7 1.6 2 2 2.6.7zm-79.3-1.3c-.1-.6-.2-.6-.4-.3-.3.5 0 1.7.3 1.3.2-.1.2-.6.1-1zm20.5.9c0-.3-1.7-1.2-2.3-1.2-.4 0-.7-.3-1-.9l-.5-.8-.5.6c-.8 1 0 1.9 2 1.9.5 0 1 0 1.2.2.5.3 1.1.4 1.1.2zm-128.3-1.2c0-.2-.4-.3-1-.3-.5 0-.9.1-.9.3 0 .1.4.2 1 .2.5 0 .9 0 .9-.2zm97-5.4-.7-2.2-.5-1.4-.4-.7c-.3-1.2 0 1.8.6 4.4l.8 4 .1 1.1.2-2.2a8 8 0 0 0-.2-3zm-46.8 3.6c.4-1.4.4-1.4-.8-1.4-1.3 0-4.1-.6-5.9-1.2-1-.3-2.3-.4-6.4-.3-2.9 0-4.8 0-4.3.1a62.1 62.1 0 0 0 8.7 1.7c.7 0 1.7.4 2 .6.4.3 1.2.4 2.4.4 1.4 0 1.8.1 2.2.6.2.2.7.5 1.1.5.6 0 .8-.2 1-1zm21.4.4c0-.2-.2-.1-.2.2 0 .2 0 .4.2.3v-.5zm42.7 0c.3-.6.2-.9-.1-1.6l-.9-3.1c-.2-1.3-.9-3.3-1.4-4.5-1.3-3-1.7-5.6-1.4-9.5.2-3 0-6-.5-7 0-.3-.3-1.2-.3-1.9 0-1.1-.1-1-.1.5 0 1 0 1.8.2 1.9a23.8 23.8 0 0 0-.1 5.4v6.4c0 1.4.2 1.8.7 2.5.7.8.7 1 1.2 6.2.3 3.5 1 5.3 1.8 5.3.3 0 .7-.3.9-.7zm-124.8-.5c.8 0 1.8-.3 2.4-.6l1.6-.4 3.1-.8 3.6-1.1c1.3-.3 1.9-.7 1.9-1.2 0-.6-.8-.7-1.4-.2-.3.3-1 .6-1.6.7l-3.8.5c-1.4.3-3.8.6-5.2.7l-2.6.2-.6.8-.6.7-4.6-.1c-3.3-.2-5-.3-5.7-.6-.5-.2-1.6-.4-2.3-.4-.8 0-1.8-.1-2.3-.3-1.5-.4-3.7-.6-3.7-.3 0 .4 2.4 1.3 4.5 1.7 1.1.3 4 .5 6.5.5 2.6 0 5 .2 5.7.4 1.1.3 2 .3 5.1-.2zm81.7-1.5c-.1-.9-.5-1.5-.8-1.3 0 0 0 .7.2 1.3.4 1.5.9 1.4.6 0zm10.8-1.1c-.2-.5-.5-1-.7-1.1l-.4-.4.1 1.3c0 .7.4 1.5.6 1.8l.5.6.1-.8c0-.4 0-1-.2-1.4zm36.2 1.4.6-.6-.6-1.4c-.6-1.2-1-1.6-2-2.1-.8-.4-1.4-.6-1.5-.5-.3.2-.2 1.2.2 2 .3.4.4 1 .4 1.3 0 .8 1.1 2 1.8 2 .3 0 .8-.3 1.1-.7zm7-.2c0-.2-.3-.4-.5-.4-.4 0-.4 0-.1.4l.4.4.1-.4zm-202-.7c.4-.3 1.8-.7 3.2-1a24.6 24.6 0 0 0 8.6-2.7c1.2 0 4.4-2.2 4.4-3 0-.5.1-.5-1.7 0a25 25 0 0 1-8.8 1 63 63 0 0 0-6 0l-3.2.2 1.8.4c2 .4 2.2.5 1.8 1-.2.4-.7.6-2 .7l-1.6.1H85c1.1.1 1.6.2 1.8.6.6 1.1-1 1.7-5.2 1.9l-3.2.1v.7l-.1.6 3.9-.1a14 14 0 0 0 4.7-.5zm275-.3c0-.5-.1-.5-.3-.2-.1.2-.2.4-.1.6.2.3.4.2.3-.4zm-60.8-.8c.3-1.6 2.5-5.7 4.3-8 1.2-1.6 1.4-2.5.6-2.7-.3-.1-.5-.3-.4-.5.4-1 5.8-7.3 6.3-7.3l1.2-.7c1.7-1.4 6.2-4 6.6-3.9.8.4 0 2-.9 2-.5 0-3 1.2-3.6 1.9l-.8.5c-.6 0-1.5 1-1.5 1.7 0 .9.5.8 1.5-.1.4-.5 1-.8 1.3-.8.3 0 1-.3 1.4-.6l1-.6.5.7c.3.4 1.4 1 3.3 1.5 2.7.9 4.4 1.7 5.8 2.7.5.3 1.3.5 3.4.5l2.6.1 1 .8a5 5 0 0 1 1.6 1.7c.3.6.6 1 .8 1 .2 0 .8.6 1.4 1.2.8.9 1 1 1 .7.2-.6-.6-3.1-1.1-3.7-.2-.2-.4-.8-.4-1.4 0-.9-.2-1.5-.8-3-.5-1-.9-.5-.8.7.1 1.3-.6 1.8-1.2 1-.6-1-.4-2.4.5-3.5l.8-1-1.4-.2h-4.4c-2.4.3-3 .3-3.7 0-.6-.4-1.2-.4-4 0-2.4.1-3.5.2-3.7 0-.6-.5.2-1 1.9-1.2l4.6-.5c3.8-.5 7.3-.5 8.7 0 1.4.6 3.4.5 3.6 0 .3-.6-.1-1-1.6-1.6-2.1-.8-2.7-1.6-1.6-2.3.3-.2.9-1 1.3-1.6 1-1.8 1.7-1.9 2.5-.2.8 1.5 2 2.8 2 2 0-1-1.8-4-3.3-5.4-.9-1-1.5-1.7-1.5-2 0-1.3-1.7-4.2-2.6-4.5-.5-.1-1.6.2-1.9.7-.3.5-3.4 1.8-4.2 1.8a3 3 0 0 0-1.6.6l-2.9 2c-1.2.8-2.4 1.8-2.7 2.2a10 10 0 0 1-2 1.8 24.1 24.1 0 0 0-4.7 4l-2.2 1.5c-.5.2-1.3.8-1.8 1.3a14 14 0 0 1-2.7 1.7 25 25 0 0 0-6.7 6c-.7.7-1.4 1.6-1.5 2l-1.1 1.5c-.4.5-.9 1.4-1 2-.2.5-.7 1.3-1.2 1.8-.8.8-1 1.6-.3 1.3.2 0 .4-.2.4-.3 0-.5 3.3-3.5 3.9-3.5.8 0 .2 1-2 3.2-2 2.2-2.1 3-.7 4.1 1 .8 3.1 1.7 4 1.7.4 0 .6-.2.7-.8zm26.6-26.3c0-.5.2-.8 1.2-1.2 1.3-.5 2.1-.6 2.4-.3.2.3-.2.7-1.4 1.5-1.4.9-2.2 1-2.2 0zm-113.3 26.5c.2-.2.3-.8.3-1.3l.3-1.8c.4-.9 0-3-.7-5.5l-.4-1.3.4-2c.3-1 .4-2.6.4-3.4 0-1 .2-2 .6-2.7l.6-1.2-.4-1.4a6.3 6.3 0 0 1 0-3.3c.4-2 .3-5-.2-7.9a45 45 0 0 1-.5-3.7l-.2-2h-.8a66.9 66.9 0 0 1-12.1-.2c-1 .4-1.8 1.1-1.5 1.4 0 0 2.7.2 5.8.2 4.5 0 5.7.2 6 .5.7.7-.2.8-5.2.8h-6.6v3.4c0 2 .1 3.8.3 4.2l1 2.4c.5.9.8 1.8.8 2.1 0 .3.2 1.1.5 1.7a32.7 32.7 0 0 1 2 6 64 64 0 0 0 3.3 10.4c1 3.1 1.6 4.4 2.2 4.6l1.1.2c1.2.3 2.6.2 3-.2zm-3.4-16.5-.2-.8c0-.5 0-.6.7-.5.6 0 .7.2.7.7 0 .5-.1.7-.5.8-.3 0-.6 0-.7-.2zm-.1-3.6c-.3-.2-.4-.5-.3-.8.1-.4.4-.4 1.3-.3l1.4.4c.6.6-1.6 1.3-2.4.7zm-2.2-3c-.2-.2-.3-.5-.3-.8l.1-.5 2 .1c1.9.1 2.6.5 2.2 1a9 9 0 0 1-4 .2zm-1.5-2.6c-.3-.6-.1-.7 2-.8 1.8-.2 2.1-.1 2.3.3.2.6 0 .8-2.2.9-1.6 0-2 0-2.1-.4zm.3-2.4c-.3-.6.4-.8 2.2-1h2v1l-2 .1a6 6 0 0 1-2.2-.1zm21.4 27.4v.6-.6zm131.2.4c1-1 0-3-2-3.6l-1.7-.7c-.7-.4-1.7-.1-1.5.5.2.8 1.6 2 2.5 2.2.4.1.9.4 1 .7.3.5 1 1.3 1.2 1.3l.5-.4zm-152.8-1.2c0-.6-1.4-.8-5.3-.8-3.3 0-4.5.2-4.5.7 0 .3.8.4 3.7.4l4.3.2c1 .3 1.8 0 1.8-.5zm81.4.5-.9-1.2c-1.1-1.5-.2-3.2 1.1-2 .5.5.8.6 1.2.4.9-.5 3.2-3.2 3.4-4 .2-1 2.3-4.1 3.2-4.8a54 54 0 0 0 2.8-2.6l2-2-.8-.9-.8-1c0-.2-.3-.4-.7-.6-1-.4-1.5-1.5-1.1-2.6.3-1.2.7-1.7 1.4-1.7.5 0 .5.5 0 2-.3 1.2.9 1.5 1.8.6 1-1 2.1-1.5 2.8-1.5 1 .2.9.8-.4 1.5-1.4.8-2 1.8-1.3 2.4.5.3 1.3.1 1.8-.5l1-.8 1.4-1c.2-.2 1.5-1.3 3-2.3a59.9 59.9 0 0 0 6.5-5.2c.6-.5 1.2-1 1.4-1 .2 0 .4 0 .4-.2l1-.8 1.1-.8c.4-.5 3.2-2.2 5-3.1.4-.2 1-.8 1.2-1.2.3-.4.9-.9 1.4-1.1l1.5-1c.3-.4 1-.8 1.3-1l.8-.4v-4.1c0-.8 0-1.5.2-1.8.4-.4 2-.5 2.3 0 .2.3.6.2.6-.2 0-.7-1.2-2.4-2.5-3.6-1.3-1.3-2.5-3.5-2.5-4.8 0-1.2.8-1.9 2.1-1.9h1.6c.3.2.4 0 .5-.4l.2-1.6.1-.9.8.1c.7.1.8 0 1-.5l.4-2c.5-1.5 1.2-1.6 2.8-.2 1.6 1.5 2 1.6 3.2.3.6-.6 1-1.1 1-1.3l1.4-1.6 1.3-1.6c0-.4 2.4-1.3 3.3-1.3.8 0 1-.2 1.6-1 .4-.7.9-1.1 1-1.1.3 0 1-.5 1.7-1.1.9-.9 1.1-1.3 1-1.8 0-.6-.2-.8-1.3-1-1.1-.2-1.6-.2-3 .2-2.4.7-4 1-6.8 1.2-2 0-2.9.3-3.5.7-.8.4-1 .5-1.7.2l-1-.2-.4 1.6c-.2 2-.5 2.6-1.2 2.3-.4-.3-.5-.6-.5-1.9 0-1-.1-1.6-.4-1.7-.2 0-1.3 0-2.5.2a31 31 0 0 1-9-.2c-2.5-.5-2.6-.5-2.7.3-.1.6-.3.8-.8.8s-.7-.2-1-.8c-.4-1.6-1-2.3-1.8-2.2h-.8v1.1c-.3 4.6-.4 5.5-.8 5.6-.9.4-1.2-.7-1.1-3.9v-3h-2.3c-3-.2-3.3 0-3.3 2.3 0 1-.1 1.9-.3 2.2l-.4.4-.5-.4c-.4-.4-.4-.8-.3-2.1.2-2.2 0-2.4-1.8-2.2-2 .2-2.1.3-2.6 1.5l-.4 1.1-.6-.3c-.3-.2-.5-.5-.5-.8 0-.9-.7-1.2-3-1l-10.2-.1c-1 0-1.5 0-2 .5-.6.3-1 .5-1.2.3l-2.1-.3c-1 0-2.9-.3-4.2-.5l-2.5-.3-1-.9c-.8-.6-1.4-.9-2-.9-.4 0-1.4-.1-2.2-.4-1.6-.4-2.1-.2-2.1.8 0 .8-1 2-1.8 2.1-1 .3-3.5-.5-4-1.3-1.2-1.7-1.7-2.2-2.5-2.4-.5 0-1.5-.3-2.2-.5l-1.4-.4-1.1.4a4 4 0 0 0-1.9 1.8c-.4.6-1.3 1.6-2 2a69 69 0 0 1-10.1 5c0 .2-.6.7-1.2 1.2a53.4 53.4 0 0 0-9 8.8c-.2.3-.4 1.2-.5 2l-.2 1.4.7 1c.4.6.9 1 1 1 .5 0 5-2.4 5.8-3.2 1.4-1.3 1-2-1.6-2.6-2-.5-1.9-1.9.1-2.8a21 21 0 0 1 5.7-1.5c.3 0 1.2-.3 1.8-.7a8.5 8.5 0 0 1 5.1-1.9c2.9-.3 4.6-.1 6.5.5 1 .4 1.2.6 1.2 1.1 0 .5-.1.7-.6.8-.3 0-.7 0-.9-.2-1-.8-5.4-1-8.1-.4-.8.1-2.8 1.4-3.2 2l-2.7.5a11 11 0 0 0-2.7.5l-.9.2c-.4 0-.5.2-.4.4 0 .3.5.4 1 .4 1 0 1.6.4 3 1.7l1.1 1 1.8-.2 3.6-1 2.8-.8c1.2-.2 3.8-1.5 4.6-2.3 1.2-1.1 1.7-.2.5 1-.8.8-1.7 1.3-6.1 2.8a31 31 0 0 1-7 1.7c-.8.1-1.4.5-2.2 1.2-.6.5-1.9 1.3-2.9 1.8-2.3 1.1-4 2.5-3.8 3 .3.4 2.8.1 5-.6 1-.3 2.6-.7 3.6-.8l3-.6a61.4 61.4 0 0 0 7.6-2.9c.6-.1 1.7-.5 2.4-.9 1.5-.6 1.6-.7 3-4.7 1-2.5 2.7-5.6 3.5-6.4a5 5 0 0 1 3.7-1.4l2.1-.3c2-.5 3-.1 4.2 1.6.6.8 1 1.6 1 1.8l2 4.3 1.4-.5c2.7-1.2 5-1.7 8.3-1.7 3.3 0 6.7.4 7.6 1 .8.5 1.6 2 1.7 2.7 0 .4-.3 1-.6 1.4l-.5.8.8.7c.7.7.8 1 .7 1.7v.9l-1.6.8c-.8.5-2 1-2.6 1.2l-2.3.7c-3 1.2-8 1.8-9.3 1.1l-.6-.3.2 3a56.4 56.4 0 0 0 2 12.7c.1.5.4 2.6.5 4.7a77.3 77.3 0 0 0 1.5 11.2 1539.4 1539.4 0 0 1 1 4.2l.6 3.4c.5 3.6.8 4.7 1.3 6.2.7 2.1.7 2.1 2.3 2.5l1.5.3-.1-.3zm-.3-15.9-.2-2.3c.1-3 1.8-6.8 3.6-7.6 2.1-1 2.9-1.2 5.4-1.3 1.5-.1 2.7-.3 2.7-.4 0-.4-1.5-1.8-2-2-.7-.1-1-1-.7-1.5.4-.3 2.5.6 3.7 1.9 1.4 1.2 1.5 2.3.6 3.2-.5.5-.8.6-1.8.4-5-.9-9 1.2-9.6 4.9l-.3 2.3c-.2.9-.2 1.1.2 1.2.7.3 3.8-.6 5.2-1.4 1.2-.8 1.8-.8 1.8 0 0 .1.1.3.3.3.1 0 .3.3.3.7v.6h-1.2c-.6 0-2 .3-3.1.7-1 .4-2.6.8-3.3.8l-1.4.2zm1.3-12c-.6-.2-.4-.9.4-1.2.8-.3 1.4-.1 1.4.4 0 .4-1.1 1-1.4 1l-.4-.2zm-3.2-.4c-.5-.5-.4-2 .2-2.7.3-.4.5-.9.4-1 0-.3-1-.9-2-1.4-3.5-1.9-6.3-5.4-5.3-6.6.6-.7 1-.5 1.3.6.2.5.5 1.2.8 1.5.8 1 3.3 2.7 5 3.6 2.1 1 2.4 1.5 1.7 3-.3.5-.6 1.5-.6 2.2v1.1h-.6c-.3 0-.7-.1-.9-.3zm27.6-.6c-.1-.3 0-.7.4-1l.5-.6h-3L309 96l-.6.5c-1.1 1-3 1-3.4-.2-.2-.6-.1-.8.3-1.4.7-1 2.2-1.2 4.4-.7 2 .5 4 .6 4.3.1.2-.2.3-.6.4-1 0-.8 1.3-1.3 1.9-.8.6.5.5 1.8-.2 2.5-.8.8-.6 1.2.6 1.3.7 0 1 .2 1 .6 0 .5-.1.6-1.3.9-1.7.4-2 .4-2.2-.1zm-21-.2c-.2-.4.7-1.2 1-.8.3.2.3.4 0 .7-.4.5-.7.5-1 .1zm26.2-4c-.5-.6-.1-1 1-1.1 1.2-.2 1.8.2 1.4.8-.4.7-2 .8-2.4.3zm-27.6-.3c-.8-.8.4-1.7 2.1-1.7.5 0 1.4-.1 1.9-.3 1-.3 1.6-.1 1.6.5 0 .7-.2.8-2.2 1a130.9 130.9 0 0 0-3.4.5zm10.2-.3c-.4-1 .8-1.3 1.6-.4.2.2.3.5.2.6-.3.4-1.7.2-1.8-.2zm-6.2-3c-2 0-2.5-.4-2.3-1.3.2-.4 0-.7-.5-1-.8-.5-3.1-1.2-4.4-1.2-1 0-1.7-.5-1.4-1.2.1-.4.4-.4 2-.2 3 .2 5.1 1 7.6 2.7 1.2.8 1.7.7 2.4 0 .4-.4.9-.7 1.1-.7.4 0 .5.2.5 1.1 0 1.5-.6 2-2.2 2l-2.8-.2zm26-.5-1.8-1.1c-.3-.4-1.4-.4-1.6 0-.3.5-1.1.3-1.4-.3-1.1-2 2-2.9 4.2-1 1.5 1.1 1.9 1.2 4.2 1.2 1.8-.1 2.3-.2 2.8-.7.7-.6 1.4-.7 1.7 0 .2.6-1.6 2-2.8 2.2-3.4.5-3.6.5-5.2-.3zm-34.3-.5-.2-.8c0-.4.2-.6.5-.6.7 0 1.2.7 1 1.2-.1.4-1 .5-1.3.2zm18.8 0c-.4-.4-.2-1.7.4-2.2.7-.6 1-.5 1 .4 0 1.4-.8 2.4-1.4 1.8zm4.3-.7c-.4-.5-.1-1.4.5-1.6.8-.3 1 1 .2 1.7-.2.2-.4.2-.7-.1zm-8.4-1.3c-.8-.4-.6-1.1.4-1.2.6 0 1 0 1.1.4.3.5.2.6-.2.9-.6.3-.5.3-1.3-.1zm2.2-1.4c-.3-.6.5-1.4 1-1 .4.4.1 1.3-.4 1.4a.6.6 0 0 1-.6-.4zm17.6.2a10 10 0 0 1 3-2.5c.4.4 0 1.1-.8 1.9-1 .7-2.2 1.1-2.2.6zm-38.6-.8c-.3-.6-.1-.8.5-.8.7 0 1 .4.5.9-.4.5-.7.5-1-.1zm23-1.3c-1-.2-1.2-.5-.8-1.4l.3-.8-.8-.9c-1-1.1-1-2 0-2.2.4 0 .8 0 .8.2L307 80c.7.7 1.2 1.4 1.2 1.5 0 .2.5.5 1 .8.6.3.9.6.8.9 0 .4-.3.5-1.5.5h-2.1zM287 83c-.4-.2-1.2-.2-1.8-.1-1.3.2-1.7-.2-1-1 1-1 4.4-.3 4.4.8 0 .6-.5.7-1.6.3zm32.8-.5c0-.3.1-.7.3-.9.8-.8 1.4-2 1.5-3.1.1-1 .3-1.2.8-1.3.9-.1 1.2 1 .8 2.5-.4 1.6-.6 1.9-1.9 2.7-1.2.7-1.5.8-1.5 0zm-8.7-.4c-.3-.4-.1-1.5.3-1.8.6-.4 1.5-.2 1.5.2 0 1.1-1.3 2.3-1.8 1.6zm3.2-3.4c-1.6-1.2-2-2.8-.5-2.8.7 0 2.9 2.4 2.8 3-.2.8-1.1.7-2.3-.2zm-5.7-9.9-.2-1.3c0-1.9.8-2.3 1.5-.7.2.6.2 1 0 1.4-.3.6-1 1-1.3.6zM72.2 125.2c0-.9-.6-1-4-.8-2.9.1-4.2.4-2.1.4.5 0 1.1 0 1.2.2.3.3 2.5.8 3.8.8h1zm163.7-.9-.3-3.9c-.1-1.6-.5-4.1-.8-5.7l-1.2-5a18 18 0 0 0-1.3-4.3c0-.2-.2-.6-.5-.9l-.6-.9c-.1-.2-.2 0-.2.5s.3 1.5.7 2.2l.7 1.3-.2 2.6a32.6 32.6 0 0 0 1.6 11.3c.6 2.1 1.4 3.8 1.9 3.8.3 0 .3-.2.2-1zm-159.5.3h-.5c-.2.1-.2.2.1.2.3 0 .5 0 .4-.2zm272-1.3c.2-.6.3-.7.8-.7.8 0 .7-.7-.2-2.3-1-1.7-1.3-3.4-.7-4 .3-.4.7-.5 1-.4l1.6.4h1v-.5c0-.8 0-.9-1.8-2.9-1.1-1.2-1.6-1.6-2.2-1.6-1 0-2.6.7-3.5 1.5-.4.3-1 .6-1.3.6-.6 0-.6 1.3 0 2.5.4.6.6 1.5.6 2.1v1.1l.2-1c.1-.8.3-1.1.7-1.2.6-.1.8.7 1 3.1.2 1.8.5 2.6 1.7 4 .4.5 1 .2 1.2-.7zm-266-.3H81c-.4 0-.1.1.6.1h.8zm-17.1-.5h-.5c-.2 0-.2.2.1.2.3 0 .5 0 .4-.2zm7.2-1.3a4 4 0 0 0-.3-1l-.2-.7h-1.3l-3.4.4a27 27 0 0 1-3 .4h-1l1.1.3c.6.2 2.2.4 3.7.5 1.4 0 2.6.3 2.7.4.4.3 1.7.1 1.7-.3zm19.2 0H95v-.4c0-.6.7-1.1 1.3-.9.6.2.6 0 1-2.5l.6-2.3.5-2c.5-3 .8-4 1.2-5.2.5-1.6.6-3.8 0-3.6-.7.2-1.3-.5-1.3-1.7v-1.2l1.7-1.4c1-1 1.6-1.8 1.7-2.3l.6-2.5c.6-2.6.5-3.2-.5-4-.4-.4-1.2-.8-1.6-1l-2.3-.4c-1.6-.3-4.7.1-9.5 1.5-1.6.4-2 .5-2.6.2-1.1-.6-16.3-.6-17.3-.1l-1.8.5c-.8.2-1 .4-1 1 0 .3.1 1.1.4 1.7l1 2a141.8 141.8 0 0 1 3.8 11.5c0 1.3.8 4.5 1.3 5.6.3.6.6 1.3.6 1.7 0 .3.3 1 .7 1.6.6.8.8 1.3.8 2.2 0 .9.2 1.4.6 1.8l.6.7 6.5-.2 9.7-.2zM75 114.9l-.2-5a86 86 0 0 0-.9-11.2c-.1-2.2 0-2.6.3-2.7.8-.3 1.2.5 1.3 2.9l.5 5c.4 4.5.5 10.7.2 11.1-.4.5-1 .5-1.2 0zm3.5-1.3-.2-2c0-1.7-.2-3.6-.8-7.2l-.3-3.6-.2-3.2c-.3-1.4 0-2.3.7-2.3.6 0 .9 1 .9 3.5 0 1.4 0 3 .2 3.7.9 4 1.2 9.2.7 10.7-.2.6-.6.8-1 .4zm3.9-2c-.3-.3-.8-11.4-.7-14.5 0-1 .5-1.4 1.1-1 .4.2.5 1.1.8 5.8.5 8 .5 9 .2 9.6-.3.5-1 .6-1.4.1zm18.2 9c1.3-.6 1-1-.7-.7-.9 0-1 .2-1.2.7 0 .8.5.8 1.9 0zm284.9-.9c-.2-.2-.7-.4-1-.4h-.9l-.1-.6c-.1-.2.1-.5.7-.8.7-.4 1-.4 2-.1.8.2 1.7.7 2.2 1.2l1 1 1.4-.4c.8-.1 2-.7 2.9-1.2l1.4-1-1-.3a3 3 0 0 0-1.8 0c-1 .3-2.3-.3-2.5-1.3 0-.5-.4-.8-.8-1l-2-1.2c-.6-.5-1.4-.9-1.6-.9-.4 0-1.5 1.2-1.5 1.7l-.7 1.4c-.7.9-1.7 3-1.7 3.6l1.2.2c.7 0 1.2.1 1.2.3 0 .1.4.2 1 .2.8 0 .9 0 .6-.4zm-13.9-.5c.1-.2 0-.6-.1-.9-.4-.8 0-3.2.8-4 1-.9 1.7-.9 2.7 0 1 1 2.8 2 4 2.3.8.1 1 0 1.6-.5.3-.4.7-1 .8-1.4.3-1.4 1-2.6 2.2-3.4.8-.6 1-1 1-1.3l-.4-1.5c-.1-.8-.3-1-1-1-.7-.1-2.1.3-4.2 1.3-1.7.8-2.3.6-2.6-.8-.2-1-.4-1.2-.8-1.1l-1.7.2-1.1.1.2-1.7.1-1.7-2.1-2.1a30.4 30.4 0 0 1-2.8-3.2c-.9-1.3-1.2-3.1-.6-4.2.4-.8.2-1.4-.4-1.4-.6 0-2.4-1.5-2.5-2.1-.3-1.2-.5-1.3-2.3-1-1.1.1-1.9 0-2.4-.1-.6-.3-.8-.2-1.3.1-.5.3-1.3.4-2.6.4h-1.8l-.4-1c-.2-.4-.4-1-.4-1.4 0-.2-.4-.6-.8-.9-1-.5-1.2-1.3-1.4-3.3l-.4-2.6c-1.1-5.7-1-6.3.5-7.3l1.1-.7-.2-2.1c-.1-1.9 0-2.3.3-2.7.3-.3.5-1 .5-1.6 0-1 0-1.1.5-1.1.4 0 .6.3.9 1 .2.6.4 1.2.6 1.2l.5 1.4.6 2.2c.3 1.3 2.3 4.1 3.3 4.9.4.3.6.6.5 1-.2.6-1 .4-2.4-.7l-2.3-1.3c-.5-.2-1.1-.6-1.5-1l-.6-.8v1.4c0 1.9.5 3.7 1.1 4.2.4.4.5.8.5 2.1 0 1 .1 2 .3 2.3a7 7 0 0 0 3.6 2.3c.4 0 .9.2 1.1.3.5.2.7 0 1.4-1 1.1-1.8 2-1.9 2.7-.3.4.8.6 1 1.1 1 .5 0 .7.2.8.8a15 15 0 0 0 1.4 4l.4.6.4-.7c.5-1 1.2-.9 2.6.6a21 21 0 0 0 3.4 2.5c2.4 1.4 2.4 1.4 3.3 3l.6 1.2-.3 1.2-.6 2.3a11 11 0 0 1-.6 2c-.2.6-.3 1.1-.1 1.5.2.8.8.6 1.2-.4.2-.5.6-1 1.3-1.3a15 15 0 0 0 2.2-1.3c1.4-1 3-1.6 3.6-1.1.5.4.5 1-.2 1.5-1 .7-1 1-.2.9.6 0 .8 0 1 .5.1.4.2.7.1.8 0 .2.1.5.5.7l.5.5-.3 1.2c-.1.7-.2 1.4 0 1.7l.2.7 1-.7c1.4-1 2.6-1.3 4.2-1l1.3.1 2 2 2.1 2.2h1c1.4 0 1.6.2 1 1.2l-.6.8.5.2c.6.2 1.9-.3 1.9-.7 0-.4 1-1.5 1.4-1.5.6 0 1.8-1.2 3-2.9l1.2-1.7-.2-1.3c0-.7-.2-1.4-.3-1.6 0-.3.2-.7.7-1.2 2-1.7 2.6-2.4 2.9-3.8l.4-2 .2-.7-1.3.2c-.9.1-1.4 0-1.5-.1-.3-.4.3-1.9.7-1.9 0 0 .2-.1.2-.4 0-.2-.2-.4-.5-.4-1 0-1.1-1.5-.3-3.2l1.5-2.2c1-1.3 1.1-1.6.6-2.5-.2-.4-.2-.7 0-1.2.3-.8 1-.8 2 0s1.5.9 2 .3c.2-.3.7-.4 2-.2l1.7.1 2-1 2-1-1.6-.2-1.8-.1.1-1v-1h-1.6c-1.1 0-2-.2-2.7-.6l-2.7-1.4c-1.5-.8-2.9-1.7-4.3-2.7-2.3-1.7-2.8-1.9-3-1.3-.2.6.8 3.4 1.7 4.6.3.4.5 1.1.6 1.8.3 1.6.4 2 .8 2 .9 0 1 .4.6 1.9l-.7 3.7-.5 2.5c-.2.1-.3 1.1-.3 2.1 0 5-.1 5.7-2 8.4-2 2.8-3.5 3.9-5.4 3.9-1.4 0-1.8-2.3-.6-3.1 1.1-.7 2.4-2 2.4-2.3 0-.2-.2-.6-.5-.8-.3-.3-.5-.7-.5-.9 0-.3-.2-.1-.7.4-.3.4-.6.8-.6 1l-1.4.8-2.2 1.3c-1 .9-1.8.9-2.2 0-.4-.9.7-2.5 1.8-2.5.3 0 .6-.2.8-.4.3-.3.2-.4-.9-.4-1.5 0-1.9-.6-.9-1.4 1.4-1.2 1.7-1.4 2.9-2.2 1.6-1.1 2.3-2 3.2-4 .8-1.5 1.3-2 1.6-1.4.1.1 0 .8-.2 1.4-.5 1.4-.5 1.7 0 1.2l.4-.7.5-.7c1-.9 1.4-6.1.6-8.3l-.5-2.5c-.1-.8-.4-1.5-.7-1.9a8 8 0 0 1-1-1.4c-.4-.8-.6-.8-1-.6l-.3 1c0 .5-.2 1.3-.4 1.8-.3.7-.4 1.4-.3 2.6.2 1.5-.2 3.9-.7 3.9-.1 0-.2.3-.2.8 0 1 .4.8 1.2-1 1-2 1.8-1.8 1 .3-.2 1-.2 1.2 0 1.6l.4.6-.5.7c-.4.4-.8.7-1.3.7s-1 .3-1.6.8c-.7.6-1 .7-1 .5-.2-.3-.3-.3-.3 0s.2.5.4.5.4.2.4.4l-.4 1.4-.4 1.4c0 .8-2.3 2.4-3.4 2.4-.4 0-.9.1-1 .3l-.7.2c-.3 0-.5-.2-.5-.7 0-.3-.2-1-.6-1.3l-.6-.6-.2.7c-.1.8-1.6 1.9-2.6 2-.5 0-.6-.1-.7-.7 0-.5-.2-1-.3-1l-.3-.9c0-.7 2-3.2 2.8-3.4.4-.1.8-.5 1.1-1.1a7 7 0 0 1 4-3.4c.3-.2 1.1-3.1 1.1-3.9 0-.5.2-1 .4-1.2.2-.2.3-1.6.4-3.6l.2-3.2.8-.4.8-.4-.5-1.2-.8-1.7-.2-1.1c0-1-.8-3.5-1.2-3.7h-.8c-.5.2-.4 1.4.1 3.5.2.7.3 1.4.2 1.6-.1.4-1.2.5-1.2.1l-.5-.8-.6-.6v.5c0 .6-.5 1.1-1 1.1-.3 0-.9.3-1.3.7-.5.4-1 .6-1.3.6-.7-.2-1 .3-1.2 1.5-.1 1.5-.7 1.7-2.2.8l-1.3-.8v-1.5c.2-1.2 0-1.6-.3-2-.3-.4-.4-.8-.3-2.4.1-2.4.7-3.4 3.4-6.2 3-3 4.1-5.7 3.3-7.3l-.4-1.3c0-.9-.5-1-1.8-.5-.7.3-2.1.5-3.4.6-4.6.1-8.2.5-9.4 1-1.4.7-2.8 2-2.7 2.4.1.5-.7 2-1.3 2.6-.6.5-.7 1.5-.2 2.6.2.5.4.7.6.6l2.5-2.2c.7-.8 1-.8 1.3-.6.5.5.5 1-.1 1.6l-1.2 1c-1 .9-1 1.8-.1 1.6.3-.2.9-.3 1.3-.4.8-.1 1.3-.7 1.8-2.3.6-2.1.8-2.3 1.4-2.2.4 0 .6.3.7 1 0 .4.1.8.3.8a4 4 0 0 0 1-1c.6-.6 1.4-1.3 2-1.5 3-1.3 2.8-1.3 3.2-.9.5.5.2 1.1-.8 1.6-.4.2-1 .8-1.2 1.2-.2.4-.6 1-.8 1.1-.6.6-1.2 1.8-1.4 3l-.4 1.1-.8 2.3c-.7 2.2-1.5 4-2.2 5a4 4 0 0 0-.5 1.6c-.1.8-.2 1-1 1l-.7.2v1.2c0 1 .2 1.4.8 2 .9.9.9 2 0 2-1 0-2.3-1.8-2.7-3.7 0-.5-.3-1-.5-1.3l-.4-.4-.8.6c-1.1.8-3.2.7-4-.2-.6-.5-.7-.6-1-.3-1.7 1.6-3.2 2-3.4.7 0-.7.2-1.3 2.2-4.6.5-.9 1.2-2 1.4-2.7.3-.6.9-1.3 1.3-1.5.4-.2 1.2-.8 1.8-1.4l1-1-.4-1.2c-.3-.7-.4-1-.5-.7 0 .8-1.5 2.8-2.2 3-1.4.3-2-.9-1-2 .7-.8.7-.9.2-2-.4-.6-.4-.9-.2-1.4.2-.3.3-.9.3-1.1v-.6l-1 .9c-2 1.9-2.4.4-.5-1.6 2.5-2.6 2.3-3.6-.4-2-1.8 1-2.4 1.2-3.2.5l-.5-.5-.5.6c-.2.3-.6 1.1-.8 1.8-.2.7-.6 1.4-1 1.6l-.6.4-.5-.5c-.3-.2-.5-.6-.5-.9a2 2 0 0 0-.4-1l-.3-.4-.6.5c-.9.8-1.4 2-1.5 3.8-.2 2-.9 3-1.5 2.4-.3-.2-.5-.7-.5-1 0-1-.6-1.3-1.3-.7-.4.4-.5.7-.4 1.4.3 1.3 0 2.2-.8 2.2-.5 0-.6-.2-.6-.8 0-1-.6-.8-1 .4-.3.7-.3 1.2-.1 2.4.6 3 .1 4.3-1.3 4-.4-.2-1-.3-1.6-.2-.5 0-1.2-.3-2-.8a5 5 0 0 0-1.5-.8c-.2 0-.2 0 0 .2a13 13 0 0 1 1.2 4.5c0 .7 0 1-.4 1-.3.1-.6-.4-1.2-2-.8-2.7-1.7-4.1-2.1-3.6-.5.5-.4 2.9.2 4.3 1.3 3 2 6 1.8 6.6-.1.3-.4.6-.6.6-.4 0-.7-.5-1.6-3.7-1-3.2-1.4-4-1.9-3.8-.5.2-.5.5.2 1.7l.5 1.5.2.4c.4 0 .4 1 0 1.5-.2.4-.2.7.3 1.3.6 1 1.9 4.5 1.9 5.4l.5 1.7.7 2c0 .5.3 1.4.5 2 .5 1.5.5 1.6-.3 2-.5.2-.6.4-.4 1l1 2c.5.6.9 1.2.9 1.4l1.8 2.2c1 1 2 2.3 2.3 2.7.2.4.7.8 1.1.9.4 0 1.3.6 2 1.2 1.8 1.6 2.5 1.8 5.6 1.6 2.8-.1 4 0 4.5.8.4.6 0 .8-1.8.7-1.3 0-1.7 0-1.9.4-.2.5 1.5 1.3 3.3 1.6 1.1.1 1.7 0 2.7-.3.8-.4 1.8-.5 3.3-.5h2l1.3.7 1.3.8-.3.5c-.3.7-1 .6-1.7 0-.8-.8-2.7-.9-4-.3l-.9.3 2 2.2c2.2 2.3 3.2 3 5.4 4.2 1.4.8 1.8.9 2 .3zm-10.4-11.6c-.5-.3-1.5-.6-2.1-.7-.7-.2-2.3-.8-3.6-1.5a14 14 0 0 0-2.9-1.1c-.6 0-1.3-.4-2.2-1.2-.4-.4-.8-.7-1-.7-.3 0-.2-1 .2-1l2.2-.2c1.5 0 2 0 2.5.4l1 .5.3.2c0 .2.5.5.9.9l.7.6v-.7c0-.5-.2-.7-1-1-1-.2-2-1.2-2.7-2.7-.3-.6-.9-1-2-1.6-3.2-1.5-4.3-2.3-5-3.6-.6-1.3-.3-2.2.8-2.7.5-.2.7-.2 1.3.2.6.4 1.4 1.8 1.4 2.4l.6.8c.4.5.6.6 1.2.3 1-.3 1.9 0 2.7.7.4.3.7.4 1.2.3.7-.2 1 0 1.5 1.5a37.3 37.3 0 0 0 1.4 3.4c.3.2.5.2 1-.1 1-.7 1.6-.5 3.5 1 2.1 1.5 2.7 2.7 2 3.8-.1.3-.4.3-1.1 0-.8-.2-1.1-.2-1.4 0-.3.3-.3.5.2.9.6.5.5 1.3-.2 1.3a5 5 0 0 1-1.4-.4zm.2-2c0-.3-.4-.4-1-.5-1 0-1 .4 0 .8 1 .3 1 .3 1-.2zm19.9-10c-.4-.3-.7-1.7-1-4.6-.2-2.2.1-2.7 1.3-2.6l.6.1.2 1.6v2.5l-.2 2c0 1-.3 1.4-.9 1zm-.2-10.5c-1.1-1-1.6-2-1.3-2.8.1-.4.4-.5 1.2-.5.6 0 1.2-.2 1.6-.6.8-.7 1.3-.6 1.6.2.2.3.5.7.8.8.4.1.5.4.4.9v.7h-1.1l-1.2.1.3.7c.8 1.6-.7 1.9-2.3.5zm5.6-.7a3 3 0 0 1-.4-1.5c0-.4-.1-.9-.3-1l-.2-1.2c0-.8.1-1.1.7-1.6 1-.7 1.3-1.8 1.2-3.2-.2-1.3.1-1.7 1-1.4 1.1.4 1.3 3.5.4 5.9-.4.9-.7 2.1-.7 2.8 0 1.7-.9 2.3-1.7 1.2zM360 71.5c-.6-1.5.1-2.8 1.1-2.3.7.4.7.9.2 2-.5.8-1 1-1.3.3zm-25.7 45.3c-.2-.6-1.7-1.4-1.7-1 0 .4 1.6 1.6 1.8 1.4v-.4zm-91.1-3.1c-.3-.8-.2-1.2 0-2.1.6-1.4.6-3.4.2-4.4l-.6-2.5c0-1-.3-2.4-.4-3.2l-.2-1.4v1c0 .7-.2 1.2-.3 1.2-.4 0-1 1.7-1 2.8 0 1.1.4 3 1.2 6l.5 2.3.4 2.1.3 1.5v-1.2c.1-.7 0-1.6-.1-2.1zm113.6 2c.5-.5 1-1 1-1.3 0-.6-.2-.6-1.7.2-1.7.9-1.8 1-1.7 1.3.3.7 1.4.5 2.4-.3zm-16.8-4.5c-.1-.1-.3-.6-.3-1 0-1.2-.5-2-1.3-2h-.6l.6.7.9.8.2 1c0 .5 0 .9.2.9s.3.2.3.6v.6l.2-.7c0-.3 0-.7-.2-.9zm53.6.7c.2-.4-.3-.8-.9-.9-.4 0-.4.6 0 1 .4.5.7.4 1 0zm-49.7-.5 2.3-1.3c1.5-.7 1.4-1.2-.4-1.8-.8-.2-1.7-.7-2-1-.3-.4-1-1-1.4-1.2l-1-.4-.3.5c-.4.6-.4 1.7.1 3.5s.8 2.4 1.2 2.4c.2 0 .9-.3 1.5-.7zm-2.2-6.2c.1-.1 0-.6-.2-1l-.3-.8-.3.8-.4 1c0 .4 1 .3 1.2 0zm-241.2-3c-.1-.1-.2 0-.2.4 0 .3 0 .5.2.3v-.7zM273 99.7c0-.4-.1-.1-.1.6v.8-1.4zM230.2 94c-.3-.4-.6-1-.6-1.5a33.4 33.4 0 0 0 .6 7c.1 0 .3.4.3.9l.1-2.4.1-3.3zm145.5 4.8c0-1.4-.5-2.1-1.7-2.6a14 14 0 0 1-2-1.1c-1.5-.9-2.5-.8-2.6.3 0 1.3.2 1.5 2.3 1.5 2 0 2.7.5 2.7 1.3 0 .3.1.8.3 1.1.4 1 1 .6 1-.5zM241.8 97c0-.8-1-1.6-1.5-1.1-.4.4-.4.6.2 2l.6 1.1.4-.7c.2-.4.3-1 .3-1.3zm157 .1.7.3v-.7c.2-.4 0-.9-.2-1.2l-.4-.5-.6.4c-.4.2-.6.6-.6.8 0 .2-.2.4-.3.4-.1 0-.3.2-.3.4 0 .3.1.3.6.1.3-.1.7-.2 1.1 0zm-237.1-.4c.3 0 .5-.2.5-.4 0-.3-1.5-.5-5-.7-2.3-.2-3-.2-3.5.2-1.3.7-.5 1 3.6 1h4.4zM136 94.4c3.1-1.2 3.6-1.6 3.6-2.4l-.1-.7-1.9-.5a31.2 31.2 0 0 0-7.5-1.7h-2l-1.8 1.2c-2.7 1.8-5.4 4-5.1 4.2a67 67 0 0 0 6.7.6 30.6 30.6 0 0 0 8.1-.7zm91.7-4-.3-.8c0-.3 0-.5-.2-.5v1.2c0 .6.1 1.2.3 1.2l.2.4c0 .3.1 0 .2-.4 0-.5 0-1-.2-1.2zM83 89.3c.5-.3-.8-1-3-1.5l-2.2-.7c-1.7-.8-4.7-1.6-5.2-1.4-.2 0-.4.3-.4.6 0 .6-1.3 1.8-2.3 2.2-.7.3-.8.7-.1.8.8.2 12.9.2 13.2 0zm144-1.2c-.2-.2-.2-.1-.2.2 0 .3 0 .4.1.3v-.5zm-145.5-2c0-.2-.2-.3-.4-.3-.3 0-1-.3-1.6-.8l-1.3-.8L76 83c-2.4-1.5-3.1-1.7-3.4-.7 0 .4-.1.8 0 .8l1.5.3c1.1.1 1.6.3 2.6 1.2.6.6 1.5 1 1.9 1 .9.1 1 .2 1.8.5.9.4 1 .4 1 0zm105.2-2.5c.7-.2 1-.4.9-.4-.7 0-1.1-.7-1-1.4.3-.8 1.4-.6 1.5.3v.7h1.9c1.3 0 2-.1 3-.5 1.6-.9 2.8-1.8 3.2-2.6.3-.6.3-.8 0-1.3-.6-.7-.1-1.5.9-1.8 1.3-.3 4.8-2.2 5.7-3.1 1.1-1.2 1.2-1.9.1-2.5-1-.5-.9-1.2.1-1.3h.8l-.2-.8-.4-1.6c0-.5-.3-1.2-.5-1.5-.4-.9-.4-1.3.4-2.5a4 4 0 0 0 .6-2.2c0-2.8-2.6-3.9-9.2-3.9-6 0-8.4.6-10.1 2.5-1.2 1.3-1.7 3.6-1 4.6l.4.5 3-.8c2.2-.5 3.8-.7 6-.8 3.2 0 4 .2 3.4 1.1-.3.4-.8.5-3.1.5-2.4 0-6.7.7-7 1-.3.3.5 1.5 2 3.1 2.1 2.4 2.7 3.1 2.7 3.8 0 .7-.7 1.2-1.3 1-.2 0-.6-.5-.8-1a22 22 0 0 0-5.5-5.7c-.6 0-1.3.7-3.4 3.4-1.3 1.8-2 2-2.2.8 0-.6.2-1 2.4-3.3l1-1.1-.2-.7c-.4-.8-2.6-2-4.2-2.2-.9 0-1.4 0-2.2.4-.6.4-1.3.6-1.4.6a3 3 0 0 0-1 .4c-4 2.1-5 2.9-5 3.7 0 .5-.6 1.3-2.2 2.8-1.3 1.2-2 2.3-2 2.6 0 1.1 5.2 6.5 6.6 6.8l2.7.2c1.6 0 2.5.3 3.8.8 3.5 1.6 8 2.2 10.8 1.4zm27.5-3.8c0-.6.4-1.5.7-2.1l.6-1.2-1.2-1a8.5 8.5 0 0 0-2.6-1.5c-.7-.2-1.4-.5-1.5-.7 0 0-1.1-.2-2.3-.2-1.9 0-2.3.1-2.8.6-.7.6-.6.8 2.1 2.2a17 17 0 0 1 5.1 3.7c.6.7 1.2 1.2 1.4 1.2.2 0 .4-.5.5-1zM50 77.9c1-.5 2.7-1.8 2.7-2.1 0-.4-1.7 0-4.8.8-2.9.8-3.3 1.4-1.3 1.7a6 6 0 0 0 3.4-.4zm235-.6 2.3-.8 1.4-.4c.9 0 3.2-1.4 3.3-1.9.1-.3-.2-.5-.8-.8-.5-.1-1-.5-1-.7 0-.2.5-.9 1-1.5l1-1.2-.4-.7c-.3-.4-1-1-1.5-1.2l-1-.6h-4c-4.7 0-7.7.7-8.7 1.9-.7.7-.8 1.4-.3 1.4 1 0 1.5 1.5 1.5 4.8v1.5l1 .3c1.6.4 4.7.4 6.2-.1zm-181.4-.5.5-.4h-.6c-.3 0-.7.2-.8.4-.5.5.2.5.9 0zm24.2-2c-.2-2.1-.2-2.2.7-2.5.7-.2 1.3-.2 2.2 0h1.5l-.2-1c-.5-1.5-2.2-3-4-3.5l-3.2-1.3-1.9-.8h-2.1c-2.4 0-4.5.6-6.7 1.6-1.8.8-2.4 1.3-2.4 2 0 .2-.3 1-.7 1.6-.8 1.6-.8 1.9 0 1.7 4.8-1.4 9.6-1.7 12-.7 1.6.6 3.2 2 3.6 3.1.3 1 1.4.7 1.2-.2zm241.2-.2c.7-.4 1.1-.9 2-2.5l1-2.4-1.5.6c-1 .6-1.4 1.1-1.5 1.6 0 .3-.4 1-.8 1.4-.7.7-1 1.8-.4 1.8l1.2-.5zm-2.5-2 1.7-2c1-.9 1.3-1.6.8-1.6-.2 0-.4 0-.5.2l-1.6.6-1.3.4-1.1 2c-1.2 2.3-1.2 3 .1 2.1.4-.2 1.3-1 1.9-1.7zm-211.2-3.4c.7 0 1.1-.2 2.3-1.5.8-.8 1.6-1.7 1.7-2 .3-.9.9-1 4-1.5l2.8-.6a9 9 0 0 0 2-4.4c0-1.5-1.1-2.6-2.9-2.8l-1.7-.2c-.2 0-.4-.3-.5-.6 0-.9 2.6-2.7 5.6-3.8 2.2-.9 2.3-1 1.1-3.3l-1.4-2.4c-.3-.3-.7-1-.9-1.5l-.3-.8.5-.4.5-.4.8.9.7 1c0 .2.8.3 1.7.3 2.3 0 2.7.5 1 1.1l-1.4.5.2.6c0 .3.4 1 .6 1.4.3.4.5 1.2.5 1.8v1h.9c1.7 0 8.4-2 11.4-3.5 3.4-1.7 2.7-2.7-1.8-2.5l-4.1.2c-1.8.3-3.5-.2-3.3-.8A55.2 55.2 0 0 1 188 45l2-.4c.8-.1 1.6-.6 3.7-2.7a22 22 0 0 1 3-2.5c.3 0 2-1.9 2-2.2 0-.2-.1-.4-.3-.4l-8.7-.1c-10.9 0-13 0-13 .2l4.8.3c2.5 0 4.9.3 5.2.4 1.8.7 0 .8-13 .7h-13.9c-.3.3 0 .6 1.2 1.9.9.8 1.8 1.9 2 2.4.3.9.7 1 2.1.4.6-.2 1.2.3 1 .8-.1.2-.8.7-1.5 1-.7.2-1.9.8-2.7 1.3-1.7.8-2.6 1-2.8.3-.1-.3.2-.7 1-1.3 1.5-1.4 1.4-1.8-1-4.5-1.8-1.8-2.2-2.2-2.7-2l-1.5.2c-.4.1-1.1.4-1.5.7-1 .7-1.7.6-2-.3 0-.5-.3-.8-.7-1-.8-.1-1.1.3-.7 1.3.6 1.4.6 2 .2 2.3-.6.5-1.2 0-1.8-1-.6-1.3-1.4-1.6-2.8-1.5-1.3.2-3 .7-3.5 1-.4.4-.4 1.7.2 3.6a7 7 0 0 1 .3 3.3c0 1-.2 1.8-.3 2-.4.3-1.5-.5-1.5-1 0-1-.6-1.8-1.8-2.4-2.2-1-3-.7-4.3 2-1 1.9-1.6 4-1.6 5.3 0 .6.2 1 .6 1.3.9.6 1.8 2.6 1.7 3.7v1l-1.4.6c-2.5 1-2.8 1.6-1.4 3.1l.9 1 2.5.1c4 .3 7.6 0 8.2-.5.9-.8 2.5-.7 3.7.4l1.7 1.3c.8.5 1.2 1.5 1.2 2.8 0 .8.1 1 .9 1.3.5.2 1.2.4 1.8.3l1.8-.2zm-5.4-7.3-.1-.7c0-.9-.6-1.2-2-1.2-1.6 0-2.5-.4-2.5-1 0-.7.5-.7 2.5-.4 1 .2 1.8.2 2.9 0 .8-.3 1.6-.4 1.7-.3.5.3.2 1.2-.7 2.5-.9 1.2-1.4 1.5-1.8 1.1zm7.6-1.5c-1.2-.5-1.3-2-.2-2 .9 0 .4-1.6-1.2-4-1-1.4-1.4-2-2.4-2.4l-1.3-.6-1.1.4-2.4 1.2c-1.4 1-2 1.1-2 .5 0-.6 1.4-1.8 3.3-2.8 1.5-.7 2-.8 3.1-.7 1 .2 1.6.4 2.5 1.2l1.5 1.9c.2.5.8 1.4 1.3 2 1 1.3 1.2 2.3.5 3l-.4.6.4.5c1 1.1 0 2-1.6 1.2zm-17.1-6.5c-1.2-1.9-.8-2.7 1.8-3.2 1.7-.3 2-.2 2 .6 0 .4-.3.6-1 1l-1 .3v1.2l.2 1.2h-.7c-.5 0-.8-.3-1.3-1.1zm18-.6c-.4-1 1.2-2.7 2.1-2.4.5.2.4.6-.3 1.7-.7 1-1.6 1.4-1.9.7zm-4-5c-.3-.3-.4-.6-.3-1 .2-.5 1.7-1.3 2.2-1.1.5.1.4 1-.3 1.5-.9.8-1.1 1-1.6.5zm35.8-10c-.6 0-1.1-.3-1.1-.4 0-.4 2.4-.8 2.9-.5 1 .6 0 1.1-1.8.9zM232.6 67c.7-.7 1.3-1.4 1.3-1.6 0-.2-.1-.2-.3.1-.2.3-.6.5-1.2.5-.5 0-.9-.1-.9-.2 0-.5.7-1.2 2.4-2.3 2-1.4 4-3.2 4.7-4.3.7-1.2.2-2.5-1.7-4.5-1-1-2-1.7-2.3-1.7-.3 0-1 .3-1.5.7a31 31 0 0 1-3.6 2.4c-.8.4-4.5 1.3-6.5 1.6-.9 0-1.4 0-2-.3-.4-.4-.7-.4-1-.2-.3.4.8 3.4 1.5 4 .3.3 1.6.8 2.8 1.2a18.1 18.1 0 0 1 5.1 2.3c1.2.6 1.4 1.1.9 1.7-.5.4-1.2.5-1.2 0 0 0-.1-.2-.4-.2-.4 0 1 1.7 1.8 2 .7.2.8.2 2.1-1.2zm9.3-8.6a21 21 0 0 0 2.7-3.9c.6-1 .5-1.4-.5-2.2-.7-.5-1-1-1.1-1.8l-.3-1-1.3-.2c-1.9-.3-6.2.6-6.2 1.3a14 14 0 0 0 3.1 3c.4 0 1 1 1.4 1.8.7 1.4.8 1.9.7 2.8-.2 1.5.2 1.5 1.5.2zm6.3-2.5c3-1.7 3-1.8 2.6-3.3-.4-1.4-.5-1.4-3-2.2l-1.9-.6-.4.6-.5.5.8.8c1 .8 1 1.4.3 3-.7 1.5-1 2.5-.6 2.5l2.7-1.3zm79.5-.6c.5-.9.8-.9 1.7 0l.7.5 2-.2a7374.8 7374.8 0 0 0 21.8-2.1c5.6 0 5.4 0 5.2.5l-.1.4.8-.4c.9-.5 2.2-2 2.2-2.5 0-.2.2-.5.4-.6.6-.3 1.4.4 1.4 1.1 0 .4.2.3 1-.4.5-.5 1.3-1 1.7-1 1.3-.2 1.2-.7-.2-1-.9 0-1.7 0-2.5.3-1.2.4-4 .3-7.1-.2-1-.1-1.5 0-2.3.2-1.1.5-3 .6-4 .2-.3-.1-6.1-.3-13.7-.4a106.8 106.8 0 0 1-15.3-.7c-2.9 0-11-.2-11.5-.4-.4 0-.6-.3-.6-.5 0-.5 1.1-.8 2.7-.5a885.5 885.5 0 0 0 57 .9c.4.4.6-.2.6-1.6 0-.6.2-1.3.3-1.5.3-.4.3-.6-.1-1-.2-.2-.4-.7-.4-1 0-.2-.1-.5-.3-.6l-.4-1.6c0-.8-.2-1.6-.4-1.8-.1-.1-2.5-.3-6-.4-4.3 0-6 0-7 .3-1.2.3-2 .4-3.2.2l-7-.2c-3 0-5.6-.2-6.3-.3-.6-.2-1.7-.3-2.5-.2h-2.9a5 5 0 0 0-2.8 0c-1.8.6-3.2.6-3.8 0-.5-.7-1-.7-2.2-.2-.8.3-2.2.4-6.8.4-6 0-6.6 0-6.6.6s-.8 1-1.8 1l-4.2-.3-7.1-.4a185 185 0 0 1-19.6-1c-.1.3-2.4.3-6.7.3-5.5-.1-6.7-.2-7.4-.6-1-.5-2-.5-2 0 0 .2.2.4.5.4.2 0 1.8.7 3.5 1.6 3.5 1.7 4.8 2.9 4.8 4.3 0 .5.2 1 .3 1.2.3.2 1.7.3 3.7.3l4.5.1 6.5.2c5.5 0 6.4.2 5.5 1-.3.3-1.7.3-5.6.3-8.5 0-14-.2-14.4-.4-.5-.4-1.4.6-2 2l-.3 1.6c.1.2 1 .5 2 .7.9.2 1.9.4 2.1.6l2 .5 2.4.7c.7.4 1.8.4 5.9.4a16226.6 16226.6 0 0 1 8.9.1c2.4.2 3.1 0 3.1-1.2 0-.4.2-1 .4-1.2.5-.8 1.2 0 1.2 1.2 0 1.3.3 1.4 2.2 1.2 1.2-.1 1.5-.3 1.5-.6 0-1.4 1.4-1.7 1.7-.4l.2.6h2.4l6.7-.4c5.2-.3 6.7-.3 6.9.4.2.6 2.2 1.6 3.3 1.6l1.4.2c.3.2 1.2.3 2 .3h1.6l.4-.6zm-31.5-7c-2.1-.2-3.2-.6-2.9-1.2.1-.2 2.1-.2 5.8 0 5.4 0 8.2.4 8 .9-.3.4-1.7.5-4.5.2h-6.5zm-73.4 6.8 1.5-.7c.4-.3 1-.3 2.4-.2 1.5.2 2 0 3.6-.5 2-.8 2.8-1.3 2.8-2 0-1.2-.2-1.3-2.7-1.3-2.4 0-6-.6-7.5-1.3a5.8 5.8 0 0 1-3-3.4c-.2-1.8-.3-2-1.3-2.1a37 37 0 0 0-5 0c-5.5.3-5.6.3-7.3-.4l-1.5-.6-2.2.6c-3.7 1-4.6 1.5-5.6 3.1-1.2 2-1.7 3.9-1.2 4.8.8 1.5 3 2 8 2h4l.6 1 .7 1c.3.2 8.4.5 10.9.3 1 0 2.3-.2 2.8-.3zm136-.2c0-.2-.1-.3-.3-.3-.1 0-.3.1-.3.3l.3.2c.2 0 .3-.1.3-.2zm-92.4-.5c.2-.2.5-1 .7-2l1-3.4c1-2.2 1.2-4 .7-4.8-.3-.3-.9-.8-1.5-1.1l-1.5-.9c-.6-.3-1.7-.8-4.2-1.7-3.2-1.3-6.9-.8-8.3 1-.8 1-1.3 1.1-2.7.4-.6-.3-1.5-.5-2-.5l-1.7-.3a32 32 0 0 0-5.3-.3H237l-.6.5c-.3.4-.9.6-1.5.6-1 0-1.2-.1-2.7-1.9-.7-.8-2.5-.6-5.8.5s-3.8 1.6-2.9 2.6c1 1 .6 1.5-.7 1.3-1.2-.2-1.4 0-1 1.4.3.8.6 1 2 1.8 2.2 1 5.8 1.5 6.6.8.8-.7 2-.8 2.9-.3.8.6 3 .4 4.5-.4 2.5-1.3 4.3-2 5.1-1.7 1 .2 3 .3 4.6.1 1.7-.1 3 .7 3.8 2.2.4.9.8 1.3 1.2 1.4 1 .3 3.9-.3 4.5-.9.4-.3 1-.4 2.1-.4h1.6l1.9 1.2c2.7 1.8 2.6 1.7 2.4 3.1-.2 1.1-.1 1.4.3 1.6.6.3.6.3 1 0zm103-1.2c.2-.3.4-2 0-2-.3 0-.8 1-.8 1.6 0 .8.2 1 .7.4zm.2-3.8-.2-.2h-.3c0 .2.1.4.3.4.1 0 .2 0 .2-.2zM223 40.4c1.7-1.1 2.3-2.2 1.6-2.7l-2.3-.2c-2.2 0-2.4.2-2 2 .6 2 .6 2 .9 2l1.8-1.1zm6-2.2c-.1-.5-2.2-.6-2.3 0-.2.3 0 .3 1.1.3 1 0 1.3 0 1.3-.3zM174.6 37h1.6l-2.4-.2c-1.3-.1-2.6-.2-3 0h-.4l.5.3c.3.1.9.2 1.3 0h2.4zm-6-.1h-.5c-.3 0-.2.1.1.1.3 0 .5 0 .4-.1zm48.1-.8c.2-.8-.9-2.2-2-2.6-2-.9-5.8-.3-8.6 1.2-1.8 1-1.8 1.3-.2 1.3 3.3.1 7 .3 8.2.5 2.1.3 2.5.3 2.6-.4zm15 .3c0-.4-1.7-1.7-2.2-1.7-.5 0-1.6 1-1.6 1.5 0 .2.5.3 1.3.4l1.8.1c.4 0 .6 0 .6-.3zm-6.5-.1c.8-.3 2.7-2.7 2.7-3.4a4 4 0 0 0-.9-1.3c-.7-.9-1.4-2.2-1-2.2l.4-.2c.3 0 .9.4 1.7 1.3l1.3 1.4 1-.8c.6-.4 1.3-1.4 2-2.8.9-1.7 1-2.3 1-3.6 0-.9 0-1.7-.3-1.9-.4-.4-3-.4-3.7 0-.2.2-1.6.3-3 .3-2 0-2.5 0-2.5.3 0 .6-2 3-2.7 3.2-.7.2-.8.3-1.1 2.4-.1.6-.6 1.7-1.2 2.6l-1 1.6c0 .4 1.2 2.7 1.5 3 .5.4 4.7.4 5.8 0zm100.3-8c-.1-.2-.2-.2-.2.1 0 .3 0 .5.1.4v-.5zm-104.6-3.7 1.3-.9h-.9c-.5-.1-1.3 0-1.9.4-1.1.6-2.2.7-2.5.2l-1.7-1c-1.2-.5-1.9-.6-4.4-.6h-2.9l-1 .5c-1.5.8-1.6 1-.9 1.5 1.2.6 4.8 1 9.3.9l4.4-.1zM309 226.7c-.5-.5-.8-1-.7-1.3v-.5l9.2-.2a649.3 649.3 0 0 1 25.6-.3l1.1-.2.3.7.3.7-.6.7c-.6.7-2 .9-2.2.3a92.2 92.2 0 0 1-7.9 0c-3.5 0-8 .2-9.9.3-1.8.2-5.9.3-9 .4l-5.5.1zm52.3 0-3.2-.2v-.7c-.2-.8-.4-.8 3.3-.7 1.6 0 3.3-.1 4-.3 1.3-.3 2.1 0 2.1 1 0 .3-.1.6-.3.7-.4.3-2.6.4-6 .2zm34.8-3.5c-.5-.4-.8-1-.8-1.3 0-.6 1.4-1.8 2.2-1.8.6 0 2.9-1.5 5-3.2 1.2-1.1 8-7.8 8.8-8.8.7-.9 1.4-.8 1.6.2.1.5-.1 1-1 2.3a15 15 0 0 1-2 2.2c-1.1.8-7.1 7-7.4 7.7-.2.3-.9 1-1.5 1.3l-2 1.5c-1 1-2 1-3 0zm-56.3-.5c-.5-.5-.4-1.2.2-1.7.8-.8.7-1.2-.4-1.2-.5 0-1 0-1.2-.2-.5-.5.2-.9 1.7-1l1.5-.2.2.6c.2.8 1 .6 2.3-.6l2.3-1.7c.5-.4 1.2-1 1.5-1.5.3-.5 1-1.3 1.7-1.8 1.2-1 1.5-1.3 1.4-1.6 0-.3-7.4-.3-13.1 0-6.5.4-10 .1-9.6-.7.2-.2 2.4-.4 8.8-.6l11.5-.2c2.4 0 3-.1 3.4-.5 1-1 .8-1-7.6-1.2l-14.2-.4-6.2-.2v-.4c-.2-.7.9-.8 4-.7 13.1.7 47.8.5 49-.2.4-.2 1.9.2 1.9.5 0 .5-2 1-2.8.7-.9-.2-6.7.2-6.7.5 0 .2 1.7.3 5 .3a269.2 269.2 0 0 0 26.3-2c1.2 0 3-.3 4.3-.4 2.5-.4 3.5-.2 3.5.5s-.6.8-3.2 1c-2.5 0-11.8.8-15 1.1a277 277 0 0 1-22.3 1.5c-9.2.1-11.8.4-13.2 1-1 .5-3.4 2.6-5.4 4.9-.6.7-.7 1-.4 1.2.2.3.2.5-.3 1-.6.6-3 1.8-3.8 1.8a4 4 0 0 0-1.7.7l.2.6c.4.7 0 1-1.7 1.2-1.1.2-1.7.1-2-.1zm28.8-14.2c0-.3-.3-.4-1.5-.2l-4.2.4-2.7.2h8.4zm-15.1 13.3c-.3-.3-.3-.6-.1-1l.3-.3 6.8-.2a658 658 0 0 0 25.8-1c1.6-.2 2.7 0 3.4.8.2.3.2.5 0 .7-.9.7-17.1 1.4-18.7.9-.7-.3-13.8 0-16 .4-.9 0-1.2 0-1.5-.3zm-46.2-.9c-.3-.2-.3-.5-.1-.8.3-.7 3.7-1 10.6-.6 4.5.1 5.6.2 6 .6l.4.4-.5.5c-.4.3-.7.4-1.8.3a19.6 19.6 0 0 0-4.3-.1c-4.1-.2-5.4-.2-6 0-.3 0-1 0-1.5-.2-.5-.1-1.1 0-1.6 0-.6.3-.9.3-1.2 0zm-11.6-1.1c-.2-.2-.4-.6-.4-1 0-.3.2-.7.4-.8.5-.3 8.4-.2 8.8 0 .4.3.3 1.2 0 1.3l-3.5.4-3.9.2-1.4-.1zm-102.2-.4c-.2-.3-.3-.6-.1-.7a33 33 0 0 1 8-.8c1.5 0 3.1 0 3.7-.2.5-.2 1.9-.3 3.1-.4a166 166 0 0 0 11.8-1c4.9-.3 10.4-1 11.5-1.2 1.8-.5 4.2-.7 4.6-.3.7.5 0 1.3-1 1.3l-2.6.2a146 146 0 0 1-11.8 1.2 422.8 422.8 0 0 0-9.2.8c-3.3.2-7.2.5-11.7 1-4.7.6-5.7.6-6.3 0zm231.9-1.3c-.7-1.5 1.5-2.8 5.3-3.3 1-.1 2.4-.5 3.3-.8a9 9 0 0 1 2.2-.6c1.3 0 3.2-1.3 3.4-2.3a7 7 0 0 0-.4-4.1c-.7-2-1-3.2-1-3.8 0-.3-.3-.7-.6-1l-.5-.5-2.2.3a89.3 89.3 0 0 1-14.8.7c-.5.1-.5 0 1.2 4.2.9 2.3 1 4 .6 5.8-.5 1.7-1 2.2-2 1.7-.8-.4-1-1.3-.4-2.6l.5-1-.3-1.8c-.5-3.1-.6-3.4-1.7-4.7-1-1.3-1.3-2.2-.6-2.8.2-.2 2.3-.4 6-.5 6-.3 11.8-.7 13.5-1 1.7-.2 3 1 3.4 3.3a19.5 19.5 0 0 1 1.2 10.7c-.3.4-9 3.1-10 3.1l-2.3.8c-2.5 1-3.4 1-3.8.2zm-64.3-1.3c0-.1-1.2-.2-2.6-.2-2.5 0-3-.2-2.2-.8.3-.2 1.4-.3 4.1-.3 2.1 0 6.4 0 9.6-.2a645.8 645.8 0 0 1 15.4-.6c2-.1 2.5 0 2.3.9l-.1.5h-5.1a384.2 384.2 0 0 0-21.4.7zm-22.9-1.8c-.3-.5.8-1 2-1l3.3-.2c1.8-.2 2-.1 2 .2 0 .6-.4.7-3.5 1-3.4.3-3.5.3-3.8 0zm-314.8-4c-1.3-1.5-.6-4.5 1-4 .2 0 .5.4.6.8l.4 1.4c.4.9.3 1.7-.2 2.2-.7.6-1 .6-1.8-.4zm102.1-3.1c-.2-.4.1-.8.6-.8.3 0 .7.6.4.9-.2.2-.8.2-1-.1zm245.4-2.7c-.2-.1-4.6-.2-9.8-.2-5.2 0-10.8-.1-12.5-.3l-15.8-.2H320v-.4l-.2-.4h11.6c24 0 38.8-.6 42-1.6.5-.1-5-.2-14.1-.3a975.6 975.6 0 0 1-22.9-.4c-2 0-4.1-.3-4.6-.4-1.2-.3-9-.4-9.7-.2-.4.2-.6.1-.7-.2-.1-.2 0-.4.3-.5.9-.2 14.8 0 17.1.4 2.3.3 27 .4 38.8.1 3.9 0 5 0 5.5.3.7.5 3 .5 14.7.4 8.4 0 9.1 0 8.8.8-.1.4-1.7.4-9.6.3a149 149 0 0 0-19.8.8l-1 .3 1.2.3c1.6.4 2 .8 1.3 1.1-.6.3-7.3.6-7.8.3zM33.4 205c-.3-.2-.5-1-.6-2.3l-.5-3.6c-.4-1.9-.2-2.4.6-2.3l.6.1.5 2.8.5 3.8c0 1.1-.6 1.8-1.1 1.5zm284-.3c-.5-.3-.6-1 0-1.2.5-.2 1.4.4 1.3.8-.2.5-.8.7-1.3.4zm-295.2-1.4c-.5-.7-.8-1.6-1.6-4.1l-1-3.4c-.8-1.8-.7-4 .1-4 .5 0 .7.7 1.9 4a81 81 0 0 0 2 6l.4 1.3-.4.4c-.5.6-1 .5-1.4-.2zm5.8-1c-.4-.4-.7-1.6-.8-3 0-.6 0-.8.4-.9.6-.1 1.2 1 1.4 2.8.1 1 0 1.3-.2 1.5-.3 0-.6 0-.8-.3zm105.4-2.8c-.5-.2-.4-.8.3-1.3.6-.4 1.2-.4 4.7-.3 4.1.2 13.4-.1 17.4-.6 2.4-.3 3.2-.1 2.7.8-.2.4-.8.5-3.7.6a182.5 182.5 0 0 1-21.4.8zm-123.9-.3c-.7-.2-1-1-1-2 0-1.3.5-2.4 1.7-3 1-.7 1.9-.6 2 .1.3 1 .3 4.4 0 4.6-.3.3-2 .5-2.7.3zm374.8 0c-1.6-.2-7-.2-12-.1a160 160 0 0 1-13.8-.2h-3.2c-1-.2-4.5-.4-8-.4a363.8 363.8 0 0 1-10.4-.4l-5.9.4c-2 .2-7 .2-7.7 0-.6-.2-.7-.8-.1-1h1.8c1 .2 2.6.3 4.6.1 1.7-.1 8.2-.2 14.4 0 16.7.1 20.9.1 25-.3 5.4-.5 5.3-.5 5.2 0 0 .4.2.5.5.5h4.7c6.9 0 11.4.3 11.6.7v.6c-.3.2-3.1.2-6.7 0zm-9.5-1.9c-.1-.1 0-.3.1-.3.2 0 .3.2.3.3l-.1.3-.3-.3zm93.2-.4c-.3-.2-1-.4-1.5-.4-1.2 0-1.6-.2-1.6-1v-.5l-2.8-.2c-3.8-.2-4.1-.4-3.4-2 .1-.5 0-.5-1-.5-1.3 0-1.7-.2-2.2-1.1l-.3-.6h-2.6c-2.2 0-2.9-.2-4-.7l-2.2-1c-1.1-.5-2.4-2-2.4-2.8l.4-1.6c.3-.8.7-1.1 1.9-1.6l1.4-.7-.1-1.4c0-.7-.3-2.2-.6-3.2l-.5-1.8.4-2.2c.2-1.9.4-2.3 1-2.8.3-.3.8-.5 1-.5a5 5 0 0 0 1.4-.5c.6-.3 1.3-.5 1.7-.5.7 0 2.2-1.5 2.4-2.5.1-.4 0-1.3-.4-2.2-.7-2-.6-2.4.2-3.2l.6-.7 2 .2c1 0 2.2.2 2.6.3.5 0 1.4 0 2-.3 1.8-.6 3.3-.3 4.4 1 .5.4 1 1 1 1.2 0 .2-.5.8-1 1.3l-1 1 .6 1c.2.5.6 1.3.6 1.9a2.4 2.4 0 0 0 2.8 2c.4-.2 1.2-.1 1.7 0 .8.2 1 .5 1.4 1.5.5 1.7.5 2.6-.2 3.6l-.6.8v7.2h.5c.8.2 2.3 1.7 2.3 2.4s-.7 2.5-1.3 3l-.4.6.5.1c.2.1 1.7 0 3.4-.2 4.2-.6 4.6-.6 5 .2l.4.7.5-.5c.2-.3.5-.6.7-.6.4 0 2.5 2.2 2.5 2.6 0 .6-1 1.1-3.7 2-1.5.4-2.9.6-5.8.7l-4 .1 1.2.5 1.3.8c0 .2-.4.5-1 .9-1.5.7-4 .8-5.2.2zm2.2-4c0-.4-.4-.5-2.8-.9-1.3-.2-1.6-.2-2 .1l-.3.4.6.1 1.2.3c1 .2 3.3.2 3.3 0zm8.9-.4c0-.1-1.9-.2-4.3-.2-2.5 0-4.2.1-3.9.2.8.2 8 .2 8.2 0zm-12.2-5.9.9-.4v-1c0-.7-.1-1-.6-1.1-1.4-.5-2.2-2.3-2-4.5l.1-1.6h-2.2a26 26 0 0 1-4.4-.4 34 34 0 0 0-4.6-.6c-2 0-2.4 0-3 .4-1.5 1.3.5 2 5.5 1.9h3.5l.5.4c.4.3.6.8.6 1.6 0 1.6.2 1.7 2 1.7h1.5l.6.6c.4.4.6 1 .6 1.3 0 .5-.7 1-1.5 1a7 7 0 0 0-1 0h-.5l.5.6c.6.6 2.1.7 3.5.1zm-8.1-.7.5-.3-.4-.6c-.3-.5-.4-1-.3-2 .2-2 0-2.2-1.7-2-.8.1-2.5 0-3.8-.1-2.7-.4-3-.3-3.2 1.5 0 .7-.3 1.5-.6 1.7-.5.6-.2 1.3.5 1.3l2 .4c1.5.4 6.3.5 7 .1zm.5-12.8c.3-.2 1.2-.4 2.5-.4 3.2-.1 4-.5 2.2-1.2-1.7-.7-3-2.9-3.2-5.6 0-.8-.1-1-.6-1-.6-.2-.7 0-1 1.6-.1.5-.5 1.2-.8 1.7-.4.5-.7 1.2-.7 1.5 0 .7-.9 1.4-3 2.3-1 .4-1.7.8-1.6 1l2 .4c2 .4 3.6.2 4.2-.3zM25 195.9c-.8-.8-.8-1-.2-1.5.8-.7 2 .8 1.3 1.7l-.4.5zm44-1.3-.5-.7v-8.5l.2-14 .2-5.5h1c1-.1 1.3 0 1.3 1.4 0 11.4-.3 25.6-.7 27.3-.2.8-.7.7-1.4 0zm-15.5-.1V190l.3-4.5-.2-8.7.1-10c.2-1 .3-4.1.4-6.9 0-2.7.2-5.1.3-5.2.4-.4 1.1 0 1.3.7v1.9c-.5 4.5-1 13-1 21.6a882.6 882.6 0 0 1-.2 13.8c0 .7-.2 1.5-.4 1.8l-.3.5-.3-.5zm10-1c-.2-.6 0-24 .2-32.2l.2-4.6H65v3a1618.6 1618.6 0 0 1-.9 34l-.3.6-.2-.7zm-5.1-.9a1203.8 1203.8 0 0 0 .2-26.3c0-8.7 0-11.4.3-11.6.9-.9 1 .1 1 13.1-.1 12-.4 22.2-.8 24-.2.8-.4 1.1-.7.8zm285-.5c-1.3 0-1.8-.2-2-.5-.2-.7 1-.8 4.7-.6 4.9.3 7.2.6 7 1-.2.3-5.7.3-9.7 0zM79 191c-.2-.5 0-22 .3-33.1.2-6.6.3-7.3 1.2-7 .4.2.5.8.4 3.5 0 1.8 0 4.8-.2 6.7-.1 1.9-.4 8.3-.5 14.3a76.8 76.8 0 0 1-.8 15.8c-.2.2-.3.1-.4-.2zm-57-2c-.7-1.2-.6-2.2.1-2.3.8-.1 1.6 1.4 1.5 2.8 0 .6-1.1.3-1.6-.6zm51.7-.6v-6.2L74 163a80 80 0 0 1 .6-14.1c.3-.4.4-.4.7-.2a663.2 663.2 0 0 1-.6 39.8c-.2.5-.8.5-1 0zm12.4-.6-.5-.3.5-1 .5-1 .4.5c.3.5.2 1.6-.2 2 0 .1-.4 0-.7-.2zM1 186.8c-.7-.9-1-1.6-1-2.8 0-1 .1-1.3.7-1.6 1.3-.7 1.8-.6 3 .4 1.3 1 1.6 1.8 1.1 2.5-.4.6-2.4 2-2.9 2-.3 0-.7-.3-.9-.5zm85.3-2.1c-.1-.8.2-22 .5-29.6 0-3.7.2-4.2.6-4.3.5-.1 1 .6 1 1.8l-.3 7.5a784.6 784.6 0 0 0-.7 24.2c-.2 1-.8 1.3-1 .4zm-70.9 0-.4-.9c-.3-.9-2.2-4.2-3-5-.3-.4-.9-1.2-1.2-1.9l-1-1.7c-.2-.4-.3-.9-.2-1.3.3-1 1-.8 1.8.7.3.7 1.3 2.3 2.2 3.6 2.8 4.2 3 4.5 3.2 5 .3 1-.6 2-1.4 1.5zm25.6-1.8v-6h.5c.6 0 .8 1 .8 4 0 2.7-.1 3.2-.8 3.2-.3 0-.5-.3-.5-1.2zm136.4-1v-3.4l-.1-3.4-.2-.7-.1.8a124.2 124.2 0 0 1-.7 4.1c-.8 0-.8-1-.3-8l.5-7.2c.5-9.2.8-12 1.3-12.3.6-.3.9 0 .8 1.2 0 .5.2 1.1.5 1.5l.6.7-.3 2.5c-.6 5.3-.8 8.3-.7 15.8 0 4.3-.1 8-.2 8.4-.1.3-.4.6-.6.6-.2 0-.4-.3-.5-.6zm-159.2-1c-.3-.3-1-1-1.3-1.6-.3-.5-1.4-1.8-2.4-2.8a27.8 27.8 0 0 1-4.7-6.3l-.8-1 .4-.4c.7-.5 1.3 0 2.8 2.2a43 43 0 0 0 2.6 3.5c3 3.6 5 6.3 5 6.7-.1.6-.9.5-1.6-.2zm76-.4c-.3-.6-.2-6.2.5-22.6.3-6 .5-7.4 1.2-7.6.9-.3 1 .3.5 6.5l-.5 8a285.2 285.2 0 0 0-.6 16l-.5.2c-.2 0-.5 0-.6-.5zm108.9-.1c-.1-.3 0-2 .2-4 .4-2.3.4-4.1.3-6-.2-3.3-.2-3.2 0-11 .2-7.3.2-7.6 1-7.6.5 0 .8.2.9.6 0 .5 0 13.8-.2 18.9a84 84 0 0 1-1 8.9c-.1.8-1 1-1.2.2zm-31-1.2c-.3-.7.1-1.7.5-1.6.5.2.7 1 .4 1.5-.3.6-.7.6-1 0zm-43.4-2.5v-2.2l.3-10.6c0-6.7.2-9.1.5-10.2.3-1 .5-1.3.8-1.2.5.2.6.9.4 3.4l-.4 11.5a190 190 0 0 1-.3 9.6c-.2.4-1.1.2-1.3-.3zm-10-.3c-.2-.7.5-3 1-3.1.6-.2 1 1 .7 2.2-.1.8-.3 1-.9 1.1-.3 0-.7 0-.8-.2zm-18.6-1.1c-.2-.2-.3-1.3-.2-3.4.7-18.5.7-19.6 1.1-20l.4-.4.4.4.4.4-.4 6.5a215.6 215.6 0 0 0-.6 16.4c-.2.5-.7.5-1.1.1zm81.5-.4c-.2-.9.1-20.5.4-22 .1-.7.3-1 .7-1h.5v7.8a849.7 849.7 0 0 0 0 15.4c-.3.8-1.4.6-1.6-.2zm15.4-.4a382.9 382.9 0 0 0 0-18.5l-.2-3.5.6-.6 1-1c.3-.3.4-.4.9-.1.4.2.5.4.4 1.3-.4 2.6-.7 7-.9 14-.1 5.4-.3 7.4-.5 8-.4.7-1 1-1.3.4zm286.8.1c-2.8-.1-3.4-1-.9-1.2a336 336 0 0 1 23.2-.2c.4.2.4.4.2.7l-.3.5h-7.4a738.6 738.6 0 0 0-14.8.2zm-442.4-6c.3-11.4.5-14.8.9-15.3.6-.8.9-.2.7 2a480.7 480.7 0 0 0-1 19c-.7 1-.8 0-.6-5.8zm131.1 5.7c-.3-.2-.4-1.5-.3-8.1.1-10.7.4-15.1.9-15.6l.4-.4.5.4.6.4-.1 3.6c-.2 7.7-.4 9.5-.8 10.7-.3.8-.4 2.2-.4 4.7 0 4-.2 4.7-.8 4.3zm-17-2.5c0-3 0-18.4.2-18.9.1-.4.3-.5.6-.3l.4.2v9.2l-.1 9.8c-.1.4-.4.6-.6.6-.3 0-.4-.2-.5-.6zm-5.5 0v-20c.2-.2.4-.3.6-.2.5.2.8 4.7.7 12.8 0 6.3-.1 7.3-.8 7.4h-.5zm11.5-.2c-.2-.2-.4-2.9-.5-6.3 0-3.3-.3-6.2-.4-6.4a16 16 0 0 1-.3-3.5c0-3.4.5-5 1.4-5 1 0 1 1.1.7 6-.2 3.4-.2 5.4 0 8 .4 3.8.3 6.6-.3 7.1-.3.4-.4.4-.6 0zm-41.9-.3c-.3-.4-.4-2-.2-2.8l.3-7.3c.1-6.7.2-7.6.8-7.6.9 0 1 1.3.7 9l-.4 8.1c-.2.7-.8 1-1.2.6zm18.6-1c-.4-.5-.2-5.7.3-10 .6-4.7.7-5.4 1.3-5.5.6-.2.8.8.5 2.2a96.5 96.5 0 0 0-1.1 13.2c-.1.3-.8.3-1 0zm349.2-.3-6.3-.2c-3.3 0-4.6-.3-4.6-.9 0-.4 1.3-.8 2-.6a298.5 298.5 0 0 0 30.4.1c2.4 0 3 0 3.2.4.7 1 0 1.1-13.4 1.3h-11.3zm-382.5-.5c-.2-.3.3-12.5.6-14 0-.5.3-1 .4-1.3.7-.8.8.2.6 6-.2 7.6-.4 9.6-1 9.6-.3 0-.5-.1-.6-.3zm106.7-.7c0-.1-.2-3.4-.2-7.3v-7l.4-.4c.2-.3.6-.5.8-.5a101.8 101.8 0 0 1 .2 15c-.1.4-1 .6-1.2.2zm-25.2-.7v-7.6c0-7.3.2-8.3 1.1-8.1h.5l-.1 7.9c0 4.6-.2 7.9-.4 8-.4.6-1 .5-1.1-.2zm14.3 0 .2-4c.1-2 .2-4.1 0-4.6 0-.6.1-1.2.3-1.6.3-.5.4-.5.6-.2a57.1 57.1 0 0 1-.4 10.5c-.2.4-.5.3-.7-.1zm-9.2-.6a24 24 0 0 1-.4-5.4v-7.6c-.1-2.5 0-3.1.3-3.5.3-.3.5-.3.9-.1.6.4 1 4.7.7 8.7-.3 7.1-.4 8-.8 8.3-.3.3-.4.2-.7-.4zm-76.5.2-.2-7.1v-7l.5-.1c.2-.1.5 0 .8.3.3.4.3 1.5.2 6.9-.1 3.4-.3 6.5-.5 6.8-.2.5-.6.6-.8.2zm405.9-.8-1.3-.4a534.2 534.2 0 0 0-32.8-.3c-1.5-.5-5.2-.6-6-.2-.8.5-2.4.4-4.2-.2-.8-.3-2.4-.6-3.5-.8-2-.2-2.8-.6-2.5-1.4.3-.9.5-.9 9.5.4 3 .4 5.7.5 6.4.3.6-.2 1-.2 1.8.1a9 9 0 0 0 3.2.4c1.1 0 3.9 0 6 .2 2.3.2 4.8.3 5.8.2l1.8-.2-.7-.6c-.3-.2-.6-.7-.6-.9 0-.3.2-.4 1-.2 1.1.2 1.3.2 3.2.2 1.1 0 1.3-.2.9-.3l-.7-.6c-.1-.3-1-.4-3.8-.4l-9.4-.4c-4.2-.2-6.3-.2-7.5 0-2.6.5-3.8 0-3-1.2l.4-.5h3.4c2.4 0 3.3 0 3.3-.3 0-.2.2-.4.5-.6.4-.2.5-.1.8.4.3.8 1 .8 8.2 1.2a43 43 0 0 0 12.2-.4c1.4-.5 2.5-.5 3 0s.5.6.2 1.1c-.2.4-2.2 1.1-3 1.1-.4 0-.9.2-1.2.4l-.7.4.6.1c.9.3 4.3 0 5.6-.6l1.4-.5c.1 0 1-.4 1.8-1 2.2-1.3 3.7-1.1 3.7.3 0 .5-.4.8-1.5 1.3l-1.4 1c0 .6 2.2.3 4.6-.5 1.3-.5 2.4-.7 4.4-.6h1v.7c0 .9-.7 2-1.4 2.5a45.9 45.9 0 0 1-9.5.8zm-9.7-3.6h-.7.7zm-344.4 2.5-.2-2c0-1.8-.2-2.2-.8-1.7-.3.2-.4.2-.7-.1-.4-.5-.8-4.7-.8-8.7v-2.8l.6-.4c1.1-.8 1.3-.4 1.1 3.2a42.9 42.9 0 0 0 .1 7.6c-.3.3-.2.7.2.7.3 0 .4-.3.4-1 0-1.6.3-2.7.7-2.7.3 0 .4.6.3 3.8-.1 3.6-.4 5-.9 4.1zm-24.6-2 .2-3a107 107 0 0 0 .6-8.6c.2-.8.9-1 1.4-.6.3.2.3.8.2 3a40.1 40.1 0 0 1-1 6.8c0 1-.3 2-.3 2.4-.2.5-1 .6-1.1 0zm4.5-1.2c-.3-2 0-9.8.3-10 .6-.1.8 1.3.8 6.2v4.8h-.5c-.3.1-.5-.1-.6-1zm-36.1-.6a24 24 0 0 1 .4-8.9c.8-1.5 1-.7.8 4-.2 4.8-.4 5.8-1.2 4.9zm58.3 0c-.2-.2-.4-2.5-.5-5.8-.2-5.8 0-6.6 1-6.5l.6.1v12c-.2.6-.7.8-1.1.2zm39-.6-.3-2.7c-.2-2.8 0-3.6.7-3 .4.3.5 1 .5 2.7l-.2 2.8c-.2.4-.5.5-.7.2zm-71.4-.8c-.4-1.1-.6-8.6-.3-9.3l.6-.6c.6 0 .8 1.4 1 5.7v4.6l-.5.1c-.4.1-.6 0-.8-.5zm-67.2-.6c-.2-.5-.3-2-.1-5.5.1-5.4.3-6.8.8-7.2.4-.4.9 0 1 .8 0 3.2-.3 11.9-.5 12.1-.3.5-.9.4-1.2-.2zm437.7 0c-.6-.2-.3-.8.4-1 2.7-.5 3-.9 1.4-1.4a41 41 0 0 0-9.1.2c-1 .7-31.6 1-34.6.4l-3.3-.6c-4.7-.8-6.6-1.6-6.3-2.5.2-.6 1-.6 2.1-.1 1.4.5 3.5 1 7.5 1.4l4.7.6 1.4.2.8-.8c1.1-1 3.2-1 4.5.2l.6.6h6.6a126.6 126.6 0 0 0 13.8-.7h3.2c1.3.1 5.7-.2 7.6-.5 2.3-.3 2.9-.1 4.2 1.2l.9 1-.3.6c-.2.3-.6.7-1 .7l-1.9.5a7 7 0 0 1-3.2 0zm-86.2-14.2a433 433 0 0 0-.8-34.4c-1-12.4-.9-15 .4-14.1.4.2.5 1.4 1 18.5a151.8 151.8 0 0 0 .9 14.6c.2 5.4 0 14.2-.4 15.4-.3.5-1 .6-1.1 0zm7.5.2c-.2-.3-.6-21.7-.6-32 0-6.2 0-7.7.4-8 .2-.4.4-.4.6-.3.2.2.3 3.2.3 7.2a1139.3 1139.3 0 0 0 .5 31c-.2 1.7-.3 2.2-.7 2.3-.2 0-.5 0-.5-.2zm76.4-2.7c-.5-.8-.5-2.2 0-3.8.3-.8.5-2.2.7-3.2a224.5 224.5 0 0 0 2.8-32.8l.4-12.8c0-3.3.2-5 .5-5.2.2-.3.2-.5 0-.7-.4-.6 0-4.9.4-5.4.7-.7 1-.1.8 2.6 0 1.8-.2 2.7-.4 2.8-.3.2-.3.3 0 .4.3.3.3 2.4-.1 2.8-.3.2-.3.4 0 .8.2.4.3 1.3.1 3l-.1 5.5c0 1.7 0 3.1-.2 3.3v.7c.4.5.3 1.6-.1 2.3l-.4.5.3.7c.4.7.4 1 0 1.6l-.2 1a97.6 97.6 0 0 1-.7 16.8c0 1.2-.1 3.2-.4 4.6l-.6 6c-.4 5.1-.8 8.3-1.1 8.7-.5.5-1.2.4-1.7-.2zm-12.2-4.1c-.5-.5-.5-1.3 0-2.8.4-1 .5-3 .7-10.5a227.8 227.8 0 0 1 .6-15.4 954 954 0 0 1 3-41.8c.3-.6.3-.7 0-.9-.3 0-.3-.6-.1-2.7.7-10.9.7-20.8-.1-29.1l-.3-3 .5-.9c.5-1 1.3-1.6 1.6-1.4a287.3 287.3 0 0 1-1.2 45.4L496 94.6a1667 1667 0 0 0-2.2 43.9c-.1 1-.7 1.3-1.3.7zm5.5 0c-.4-.4-.5-2.4-.1-5.5a1334.8 1334.8 0 0 0 2.3-37.5c0-2.6.3-3.4 1-3.4.4 0 .6.5.5 1.4a5429.8 5429.8 0 0 0-1.8 33.6l-.3 6.2c-.3 5-.5 5.8-1.6 5.2zm28.1-.6.1-3.5a77 77 0 0 0 .2-12.1l.1-3c.2-1 .2-1.8 0-2-.1-.1-.3-1.7-.4-3.6l-.2-3.7v-1c.3-.4.5-.5.8-.2.4.3.5 2.5 0 2.7 0 .1 0 .4.2.6l.4.7.2 3.4a266 266 0 0 1 .2 22c-.3.4-1.4.2-1.6-.3zm9-.2c-.2-.7-.1-5.1.2-6.3a48.3 48.3 0 0 1 0-12.7c.2 0 .5.7.7 1.6.3 1.8.3 1.6.3 6.7 0 3.7.1 7 .4 9 .2 1.4 0 2.1-.8 2.1-.3 0-.7-.2-.8-.4zm-4-.6a151 151 0 0 1-.3-16.3c-.4-.9-.6-8.1-.3-8.6s.7-.1.9 1c.1.4 0 1-.2 1.3-.3.4-.3.5 0 .9.2.3.4 1.6.5 4.5l.2 6.6c.3 4.4.4 10.3.3 10.7-.2.6-.9.5-1.2-.1zm-114.5-.7a615.8 615.8 0 0 1-2-32.1c-.3-1.3-.3-4.5 0-4.7.6-.4 1 1.9 1.5 9.8l.2 3c.4 1.7 1.3 16.2 1.3 21.4 0 2.4 0 2.9-.4 3a.6.6 0 0 1-.6-.4zm64.7-.3c-.3-.3-.3-1 0-4.1l.5-9 .5-8.9c.2-2 .4-9.5.4-16.7a257.6 257.6 0 0 1 .6-16.7c0-3.8 0-3.7.5-3.7.7 0 1 1 .6 2a44.2 44.2 0 0 1-.1 8.7l-.2 12.6a202.6 202.6 0 0 1-.8 18.1 46.5 46.5 0 0 1-.7 8.6c-.2 6-.4 9.4-.7 9.5-.1 0-.4-.1-.6-.4zm62 0a87.2 87.2 0 0 1 0-8.8l.3-13.1v-12.1l.5-.2c.4 0 .8 1.9.5 2.4l-.1 3.6c0 5.3 0 6-.3 6.2l.2 1c.3.6.4 1 .2 1.4-.2.3-.2 1 0 1.3v3.2c-.2 1.3-.2 2.7 0 3v1l-.3 4c0 2.9 0 3.8.3 4.7.4.8.4 1.2.2 2-.4 1-.8 1-1.5.4zm-104.2-.5-.6-.3.1-3c.2-10.2.4-15.7.6-16.2.2-.3.4-.4.6-.4.4.1.4 19.7 0 20-.1.2-.4.2-.7 0zm74.9.2a198.3 198.3 0 0 0 .8-12.2c.1-3.4.2-4 .6-4.3.4-.1.5 0 .8.5.4 1-.2 14.8-.7 15.6-.4.6-1.3.8-1.5.4zm34-.2c-.5-.6-.8-2.5-.5-3.2 0-.4.3-3.2.3-6.3.1-3 .3-5.8.5-6.2l.2-.7.3.8.2 2.3a172.2 172.2 0 0 0 .3 10.6c.3 1.9.3 2.4 0 2.7-.4.5-1 .5-1.4 0zm-63.4-.2c-.4-.3-.4-.5-.3-1.1.2-.9.5-5.2 1-14a203.5 203.5 0 0 1 1-14.7c0-1.8.7-10.2 1-11.3 0-.4.2-.6.4-.6.7 0 .8 2.2.4 6.7-.6 5.5-1 10.9-1.1 16.2a63.9 63.9 0 0 1-.6 7.7c.3.8-.6 10-1 10.8l-.3.7zm55.3-.7a18367.9 18367.9 0 0 0-.4-16.2c0-.6 0-1.2.3-1.3.3-.2.3-.2 0-.2-.2 0-.3-.2-.3-.4 0-.3.2-.4.4-.4.4 0 .7 1.9.7 4.1 0 .7 0 2.1.2 3v7.9c.2.1.3 1 .2 2 0 1.2-.2 1.6-.5 1.7-.2 0-.5 0-.6-.2zm-69.5-1c-.2-.2-.2-2 0-7.3a26869.3 26869.3 0 0 0 .7-20.2c-.1-1.1 0-4.6.2-7.6.3-3 .6-9.6.7-14.6.3-9 .5-11 1.2-11h.4l-.1 8.4-.4 10.3c-.2 1-.3 5.5-.3 9.8a254.6 254.6 0 0 1-.4 17.2c-.1 6.5-.4 11.7-.8 14.3-.1 1-.7 1.3-1.2.8zm80.9-.4c-.4-.5-.4-1.1-.3-3.5.2-3.6.3-4.1.8-4.1.3 0 .4.6.5 2.7 0 1.5.2 3.2.3 3.8.1 1 0 1.2-.4 1.4-.4.2-.6.2-1-.3zm11.4-.5-.5-.3.1-4.6c.1-2.6.3-4.8.4-5 .5-.3.5.1.9 5 .4 5.1.3 5.6-1 5zm-86.3-2.4c-.3-.4-.2-6.6.1-12.4l.4-9.6.5-15.1a1091.5 1091.5 0 0 0 .9-26l.2-4.4c0-3.8.6-10.4 1.6-19.4l.4-6.2c0-2.8.4-5.7.7-6.1.4-.4 1.4 0 1.8.8l.4.8-.4.8c-.3.5-.5 1.8-.6 3 0 1.2-.3 2.4-.5 2.7a55.4 55.4 0 0 1-1 9.4l-.3 4.8c0 2.2-.2 4.5-.3 5l-.5 9.2-.2 6.8a423.7 423.7 0 0 0-.7 20.1l-.4 10.7c-.3 15.2-.9 25-1.6 25.3-.2 0-.4 0-.5-.2zm-32-.8c-.8-.9-.7-2.7.4-12.4.3-2.7.5-5.8.6-9.4l.4-5.5c.2-2 .3-7.5.2-17.6-.3-16.8-.3-15.4 0-33.5.1-16.6.4-23.9 1-24.4.3-.4.5-.4.9-.2.6.4.7 2 .3 5.8a298.7 298.7 0 0 0-.8 24.6v5.7c-.2 1.2-.3 10.5-.4 20.5a638.2 638.2 0 0 1-.8 32c0 1.6-.3 4.7-.5 6.8-.3 3-.3 4 0 5.3.1 1.2.2 1.7 0 2-.4.6-1 .7-1.4.3zm9-.4c-.2-.4-.1-1.6 0-2.7.2-1.1.4-3.7.4-5.7l.2-7.5a514 514 0 0 0 1-32.3v-8.2l.5-.2.7.1c.5.5.2 28.7-.4 36l-.4 12c-.1 4.5-.3 8.5-.4 8.8-.4.7-1.5.6-1.7-.3zm105.6 0c-.2-.4.2-4.4.5-6 .3-1.5.6-.3.5 3 0 2.8 0 3.3-.4 3.4-.3 0-.5-.1-.6-.3zm8-1.9a172.6 172.6 0 0 0 .1-11.6c.2-10.2.2-10.4.7-10.7.4-.2.6-.2 1 0 .3.4.3.7.2 1.9-.2 2.2-.5 11-.5 16.3v4.7l-.6.1c-.4 0-.6-.1-.9-.7zm-15.6-3a1 1 0 0 1 0-1.5c.5-.3.8.1.8 1.2 0 .7-.3.8-.8.3zm-102.1-1.3-.4-.2v-18.2c0-17.6.2-20.7.8-20.8.2 0 .6 3.2.6 4.5v17.5c-.1 11-.2 17-.4 17.2-.1.2-.4.2-.6 0zm-420.5-.1-2.7-.2c-2.1 0-2.7-.2-2.8-.5 0-.3.6-.4 3.9-.5 4.2-.2 4.9 0 4.2.6-.3.3-.6.5-.8.5a397 397 0 0 0-1.8 0zm530.6-1c-.2-.6 0-1.6.4-1.7.2 0 .3.2.3.8 0 1-.4 1.6-.7.9zm3.3.2-.2-1c0-1.2.7-1.3 1-.3 0 .7-.4 1.7-.8 1.3zm-11.4-.8c-.2-.6.1-2 .5-2s.3 2.2 0 2.3c-.2.1-.4 0-.5-.3zm-522.6-.4-2.7-.4c-2.6-.3-3.3-.6-2.8-1.2.3-.3.7-.3 2.7 0l3.7.5c1.3.2 2 .7 1.7 1.2-.1.2-2.4.2-2.6 0zm139.7-.2c-.5-.3-1.4-.4-2.9-.3-2.5 0-3.6-.2-3.6-.6 0-.5 5.7-.8 11.4-.7a169.4 169.4 0 0 0 12.2-.1h5.7l.7-.6c.6-.4.8-.4 1.1-.1l.4.7c0 .3.2.4.9.2 1-.3 8.3-.3 9.2 0 .4 0 .8.3.8.5 0 .5-.4.5-13.1.6a185.5 185.5 0 0 0-12.2.2c0-.2-.7-.2-1.8 0-1.2.4-2.4.4-4.3.3l-3.2.1c-.3.2-.8 0-1.3-.2zm380-2c-.2-.1-.4-1.5-.4-3 0-2.2 0-2.7.3-2.7.6 0 .7.6.6 3.3 0 2.6-.1 3-.6 2.4zm11.1.2c-.3-.3-.2-1.9.1-2 .4-.4.8.3.7 1.2 0 .8-.4 1.2-.8.8zm3.2-.3V115c0-.2.3-.4.5-.4.5 0 .7.9.5 2l-.2 1.8c0 .6-.2 1-.4 1.1-.2.1-.3 0-.4 0zm-11.2-.4c-.3-.7 0-1.9.5-2 .4 0 .7.5.5 1.5-.1.7-.8 1-1 .5zM535 118c-.4-1-.3-1.7.1-1.7.5 0 .6.2.8 1.3.2 1-.5 1.5-1 .4zm-19.5-.5c-.2-.5-.2-1.6-.1-5.5 0-2 .2-3 .5-3.2.2-.3.4-.4.5-.3.2.2.4 7.2.2 8.3-.2.9-.9 1.4-1.1.7zm-318.6-.3c-.5-.2-.4-1.3.1-1.5.5-.2 1.2.3 1.2.8 0 .4-.8.9-1.3.7zm362.6-1.2c-.1-.3-.2-1.5-.1-2.6 0-1.6.1-2 .5-2l.5-.1v2.6c0 2.2 0 2.7-.4 2.7-.2 0-.5-.3-.5-.6zm-413.3 0c-.2-.3.1-1 .5-1s.7.7.5 1h-1zm405.3-.6c-.1-.6 0-.8.3-1.1l.5-.4.1.7c.2 1.4-.6 2-1 .8zM34.8 115c-1-.2-2.3-.3-3.7-.2-1.9.1-2.3 0-2.7-.3l-.4-.5.5-.3c.5-.4.6-.4 2.6-.4 6.1.1 9 .9 6.9 1.8-.8.4-1.1.4-3.2-.1zm500 0c-.2-.3-.3-2.1-.4-4.1-.1-3 0-3.7.2-4 .5-.4.7.3.6 1.6 0 .5 0 1.2.2 1.5.3.8.3 5.3-.1 5.4-.2 0-.4-.1-.5-.4zm4.6-.1a141.4 141.4 0 0 0-.4-7.7c-.5-8.2-1-33.4-.7-34.5.2-.8 1.1-.9 1.4-.1V75l-.2 9.2V94.6l.1 1.9c.2 3.5.3 18.8.1 19-.1 0-.3-.2-.3-.5zm-517.1.1c-.6-.2-.4-1 .3-1.5.5-.3 1-.4 2.2-.3a6 6 0 0 1 1.8.4c.5.4.2 1-.6 1.2-1.4.2-3.4.4-3.7.2zm120.4-1.8-.7-.3.5-.4c.5-.4 4.4-.7 5.5-.4.9.2.9.9 0 1.2-1 .4-4.6.3-5.3 0zm296.7 0a197 197 0 0 1 0-17.1c.2-2.2.4-3 .7-3.3.9-1 1-.1.6 5.7a159.1 159.1 0 0 0-.4 13.6c-.2 1-.5 1.4-1 1zm108.8-.5-.2-5.8c0-4.8.2-6.6.8-5.7.3.5.4 10.1 0 11.5-.1.8-.5.8-.6 0zm14.6-.2c0-.5.1-.8.4-.8.2 0 .4.3.4.8 0 .6-.2.8-.4.8-.3 0-.4-.2-.4-.8zm-11.3-.1c-.2-.5.3-1.7.7-1.7l.2 1c0 .8 0 1.1-.4 1.1-.2 0-.4-.2-.5-.4zm-360-.1c-.2-.2-.4-1-.5-3.7-.1-3.6 0-4.6.8-4.5.3 0 .4.4.5 1.6l.3 3.7c.3 3 .1 3.6-1 2.9zm338.7-.6c-.2-.4-.4-1.5-.4-3.3a56.6 56.6 0 0 0-.9-13 246 246 0 0 0-1-30.8c-.2-6.4-.3-7.3-1.3-8.2l-1.1-.8c-.2 0-.3.7-.3 1.6 0 1-.1 1.9-.3 2.1-.3.4-.3.7 0 1.2v1a187.7 187.7 0 0 0 1 33.8v1.2a1535.1 1535.1 0 0 1 .6 6.6c.3.5.3 5.2 0 5.4-.5.3-1-.8-1-2 0-2.6 0-4.3-.3-4.4-.3-.2-.3-1.5 0-2v-.7c-.4-.4-.9-4.5-.7-5.5 0-.5 0-2.5-.2-4.6-.2-2.3-.3-4.2-.1-4.7.1-.5 0-.9-.1-1-.2-.3-.2-.9-.1-1.5 0-.8 0-1.2-.3-1.5-.3-.3-.3-.7-.2-1.2l.1-1.7-.1-5.3c-.3-12.2-.5-15.4-1-15.4l-.2-1.2c0-1.7.8-2.4 2.3-2.3.2 0 1.1.7 2 1.6 1 .9 2 1.6 2.1 1.6.3 0 .7.3 1 .6l.4.7v3.4a72.2 72.2 0 0 0 0 12.6c-.3 2.2-.3 3.7 0 8.2.2 2.3.4 7.2.4 10.9 0 7.2.2 11.6.5 15.3.2 1.7.1 2.6 0 3.1l-.4.8-.4-.6zm-376-1.2c-.4-.2-1-.3-2.1-.2l-1.5.2-.2-.6c-.1-.5 0-.8.8-1.4 1.1-1 1.4-2.2 1-3.8-.5-1.7-1.4-2.4-3.3-2.6H146c-1.2.4-2.4.1-2.4-.5 0-1.4 3.9-1.7 7-.5l1.8.7.8 1.5.7 1.4-.1 1.8c-.2 1.9-.1 2 1 2.7 1.3.8.7 2-.7 1.3zm-12.6-.2c-.5-.4-.5-.5-.3-.8.4-.6 7.2-.6 7.6 0 .7.7-.4 1-3.6 1.1-2.5.1-3.2 0-3.7-.3zm418.2 0c-.3-.3-.2-2 0-2.2.5-.2.9.5.8 1.4 0 .7-.5 1.1-.8.7zm-364-.7v-2.1c.1-1.2.2-1.4.7-1.4h.5v2c0 1.6 0 2-.5 2-.3 0-.5-.1-.7-.5zm367.1.3c-.4-.6.3-16.3.8-17.1l.3-.7.4 1.4c.3 1.3.2 2.1-.5 12.2l-.1 2.8c-.1 1.4-.5 2-.9 1.4zm-11.1-.5c-.3-.6.2-4.6.6-4.7h.5v2.5c-.2 1.7-.4 2.4-.6 2.4a.7.7 0 0 1-.5-.2zm-408.4-1.8c-2-.1-2.2-.2-1.8-1l.3-.5 2.2.1c2.2.1 3.1.5 2.6 1-.4.4-1.6.5-3.3.4zm372.1-.5c-.2-.9.1-1.8.7-1.7.6.2.6 2.2 0 2.3-.4 0-.6-.1-.7-.6zm19-1c-.3-.4-.7-7.6-.4-8.4.2-.8.8-.6 1 .2a50 50 0 0 1 0 8.2c-.3.3-.3.3-.6 0zm25-1.6c-.2-2.2 0-4.7.4-4.7.5 0 .8 1.5.6 4v2.6h-.5c-.2 0-.4-.5-.5-2zm-44-.5c-.2-.8 0-1.7.6-1.9.4-.2.7.7.6 1.7-.1 1-1 1-1.2.2zm28.1-2c-.2-.4-.1-5.6.1-5.7.1-.1.2-.8.1-1.5-.1-1 0-1.4.2-1.6.2-.1.4-.2.5-.1.2 0 .2 7 0 8.7 0 .4-.6.6-.9.2zm-27.6-.6c-.4-.5-.4-1.7 0-2 .5-.4.7 0 .7 1.2 0 .9-.3 1.2-.7.8zm-52.2-.7c-.2-.5-.2-2.8.2-8.5.5-9.6.7-16.5.4-18.3-.2-.9-.1-2.8.1-5.7.5-6.3.6-10.8.6-21.4v-11c0-1-.2-2.9-.5-4.2a11 11 0 0 1-.3-2.8c.2-.6 1.3-.8 2-.3l.8.5-.3 1.3c-.2 1.6-.2 6.5 0 16.2 0 6.8-.2 20.4-.5 23 0 .8 0 2 .2 2.7.2 1 .2 1.4 0 2-.2.4-.4 2.4-.4 5.5l-.4 8c-.2 1.8-.3 5.3-.3 7.8 0 4.6-.2 6-1 6-.2 0-.5-.4-.6-.8zm84.2-.6c-.6-1-.2-2.6.6-2.3.3.1.4.5.4 1.4-.1 1.4-.6 1.8-1 1zm-352.6-1.7-.3-.8v-1.1c.2-.5.4-.6.8-.6.5 0 .6.3.6 1.4 0 1-.1 1.4-.5 1.4-.3 0-.5 0-.6-.3zm364 0c-.2-.7-.4-7-.2-9 .2-1.8.6-2.3 1.4-1.7.3.3.4 1 .2 5.2-.2 5.3-.3 5.9-.8 5.9-.2 0-.4-.2-.5-.5zM185 98.1a8.4 8.4 0 0 0-3.4-1.2 33 33 0 0 1-7.5-4.3v-.6c.6-.7 2.5 0 4.8 1.8 1.2 1 2.8 1.7 4.3 2 .8.2 1.8.5 2.3.8.9.3 1 .5 1 1.2 0 .6 0 .7-.6.7-.3 0-.8-.2-1-.4zm4.6.2c-.1-.2 0-.6.1-1 .5-1-.2-2.2-2.3-3.6-1-.7-2.4-1.5-3-1.7-1.3-.4-1.8-1-1.3-1.5.3-.4 1.8 0 3 .7 3 1.5 3.4 1.8 4.3 2.7l.9 1v1.3c0 .7-.1 1.5-.3 1.8-.3.5-1.1.7-1.4.3zm326-.3v-2.8c.2-1.3.4-5.1.5-8.5.2-8.4.2-9 .5-9.4.8-.7 1.6.9 1 2-.2.4-.3 1-.2 1.1.2.7.2 4.9-.1 5.2-.2.3-.2.8 0 1.9.2 1.8 0 4.4-.5 4.6-.2 0-.2.2.1.7.3.5.4 1 .2 1.7l-.1 2.3c0 .8 0 1.3-.3 1.5-.5.3-.7.3-1-.3zm32.8-1c-.2-.4 0-.9.4-.9.3 0 .3.7 0 1-.2 0-.4 0-.4-.2zm-14-.7c-.4-.4-.4-1-.4-3l-.1-3.9c-.1-.7-.1-1.4 0-1.6.2-.2.1-.7 0-1.4-.3-.8-.3-1.2 0-1.5.3-.3.4-.3.7-.1.4.3.5 2.2.1 2.5-.2 0-.2.3 0 .6.4.7.4 2.7 0 2.7-.3 0-.3 0 0 .2s.6 4.7.3 5.4l-.2.5zm-481-3.6c-.8-.8-.6-1.1.6-1a4 4 0 0 0 2-.2c1.2-.4 2.2-.1 2.2.6 0 .9-.6 1.1-2.5 1.1-1.5 0-2 0-2.3-.5zm447.2-1c-.2-.4-.2-.9-.1-1.1l.2-3.6c.1-3.1.4-4.1 1-3.6.5.3.5 5.2.2 5.5-.1 0-.2.6 0 1.1 0 1-.3 2.2-.8 2.2-.1 0-.4-.3-.5-.6zm43.5-.2c-.3-.6 0-1.6.4-1.6.3 0 .4.3.4 1 0 .9-.5 1.3-.8.6zm-391.9-.5-.4-.4 1.2-1.3c4-4.2 14.3-7.1 14.3-4 0 .4 0 .6-.3.5l-2.2-.2c-1.6 0-2.3 0-5 1-1.8.7-5.9 3.3-6 3.8-.4.8-1 1-1.6.6zM534 83.8c-.4-.4-.4-1.5.1-2 .4-.6.7 0 .7 1.2s-.2 1.4-.8.8zm-32.8-1.7c-.2-.3-.2-.7-.1-1.1l.2-1.7c0-1.3.1-2.1.6-2.1.6 0 .8 1.8.3 2.2l-.4.3.4.5c.3.3.4.6.2 1.3-.2 1-.6 1.2-1.2.6zm-414.4-.2-.5-.3v-3c.2-3.7-.2-4.9-2.2-7.4a14.3 14.3 0 0 0-5.8-4.4c-1.5-.4-1.8-.7-1.5-1.3.8-1.5 5.4.8 8.6 4.3 2.4 2.6 2.9 4.2 2.8 8.6-.1 3.3-.4 4-1.4 3.5zm-6.5-.6a1 1 0 0 1-.2-.8c.1-.4.4-.5 1.5-.3 1.5.2 2 .4 1.8 1-.3.6-2.7.6-3.1 0zm453.8-.5c-.4-.5-.5-4.8 0-5.3.1-.3.4-.4.5-.3.3.2.3 2.4 0 2.6-.2.1-.2.4 0 .7.3.6.3 1.9 0 2.3-.2.3-.3.3-.5 0zm-84.6-1.7V78c.1-.5.2-.5.5-.3.5.4.5.8 0 1.5l-.3.5zm60.1-.8c-.3-.3-.2-1.6.1-2.2.3-.4.3-.6 0-.8-.3-.4-.4-2 0-2.2.1 0 .1-.8 0-1.6 0-1.2 0-1.5.3-1.6.6-.2.6-.6 0-1.1-.2-.3-.3-.7-.2-1.3.3-1 .4-3 .4-7V57l.5-.3c.8-.4 1.2.5 1 2.3a113.4 113.4 0 0 0-.6 9.7c-.2 0-.2 1.5-.2 3 0 2.5 0 3-.3 3.4-.4.4-.4.5-.1 1 .5 1-.2 2.8-.9 2.1zM483.7 77c-.5-.4-.6-1.6-.1-2l.4-.5.4.5c.6.9.1 2.5-.7 2zm18-.6c-.5-.3-.6-1.4-.1-2.2.3-.6.4-.8 0-1.4-.3-.8.1-2.5.7-2.5.8 0 1 2.3.2 3-.3.4-.3.5 0 .8.5.6-.1 2.8-.7 2.3zm14.9-.3c-.3-.4.2-2.1.5-2.1.4 0 .8 1.7.6 2.1-.3.4-.9.4-1.1 0zm17.1-1.6c-.4-.6-.6-2.3-.2-2.6.7-.5 1.3.3 1.2 1.6-.1 1.2-.5 1.6-1 1zm-49.9-.7c-.2-.2-.2-1.5 0-2 .3-.7.9-.5 1 .4.3 1.4-.3 2.3-1 1.6zm33-.8c-.2-.3-.3-.6-.2-1 .4-1.5 1.2-1.2 1.2.3 0 1-.4 1.3-1 .7zm-61.6-.7-.1-8.6V42c0-9.3.1-13.7.3-14 .4-.5 1-.4 1.3.3.4.8.3 13.2-.1 14-.2.2-.2 1-.2 16.4v13l-.5.5-.5.5-.2-.4zm28.7-1.8v-1c0-.6.2-.8.5-.7.6 0 .6 1.9 0 2-.2 0-.5 0-.5-.3zm33.1-.2c-.4-.2-.4-1.6 0-2.2v-1.8c0-1 0-1.3.5-1.5.7-.4.8-.2.8 1.2 0 .8-.1 1.2-.4 1.3-.3.1-.3.2-.1.5.7.9 0 3-.8 2.5zM92.7 69.1c-.2-.1-.4-.6-.4-1.3 0-.7-.1-1.3-.4-1.5-.9-.8-4-1.8-5.1-1.8-1.1 0-1.8-.3-2.1-1.2-.2-.3-.7-.7-1.5-1-1.5-.4-3.3-1.3-4-2l-.4-.6.4-.6c.3-.5.7-.7 1.3-.7.9 0 4.7-.9 5.2-1.2.2 0 .3-.6.3-1.2 0-3 2.5-5 5.4-4.1.7.2 1.5.5 1.7.8.2.2 1 .5 1.5.6.8.2 1.4.6 1.8 1.2l1 1c.3.1 1.4 0 2.5-.3 2.3-.6 4-.6 6.4.1 3.8 1.2 4.2 4.1.7 5.5-1.5.5-5 1.4-7.3 1.8l-3 .8c-1.6.5-2 .5-2.4.3-.2-.2-.3-.5-.1-.8.2-.4 1.9-1 6.7-2 5.2-1.2 6.3-1.6 6.2-2.6-.1-.9-1.3-1.5-3.3-1.8a8.7 8.7 0 0 0-4.1.5l-2.9.6c-.3 0-.9-.5-1.2-1a7.9 7.9 0 0 0-5.4-2.7c-.9 0-1 0-1 .5 0 1 1 2.1 2.3 2.5 1.7.5 3 1.3 3.2 1.8 0 .3-.2.7-.5 1-.5.5-.8.6-1.7.4l-2.5-.8c-1.5-.7-2.6-.8-3.2-.4-.3.2-.3.4.2 1.2l.8 1.8c.2.5.7.9 1.3 1.2a342.9 342.9 0 0 1 3.4 1.4c.4 0 1.4 1 1.7 2 .5 1.2-.5 3-1.5 2.6zm-7.5-8.2c0-.6-1-1.2-1.6-1-.7.2-.7.7.2 1 1 .5 1.4.5 1.4 0zm399 6.6c-.4-.2-.4-1.8 0-2.1.2-.2.2-.6.1-1-.3-.8-.2-1.5.3-2l.4-.5-.4-.5c-.4-.3-.4-.7-.3-1.5l.4-2.7c0-.8.3-1.6.5-1.7.5-.1 1 1.2.7 2.3l-.5 4.9c0 .8-.2 1.6-.4 1.8-.2.3-.2.5 0 .6l.2 1.2c0 1-.3 1.4-1 1.2zm-72.2-.9-.6-.6.2-2.4.2-20.1a781.2 781.2 0 0 1 .5-32.8c-.2-.6-1-.6-2.1 0l-.8.6-.1 1.6.1 5.4c.2 2 .3 6 .3 8.9l-.1 13c0 4.8-.2 7.9-.3 8-.5.6-1 .5-1.3-.2a366.2 366.2 0 0 0 .1-17.3 51.3 51.3 0 0 1 .2-7.7c-.2-.3-.3-2-.4-4 0-2.4-.2-3.7-.6-4.6l-.4-1.3.4-1.7c.5-1.7.7-2 2-2A5 5 0 0 0 411 9c1.2-.6 3.1-.7 3.6-.2.2.3.2.9 0 2l-.5 4.4a393 393 0 0 0-1 28.8c.2 1.6.2 1.3.2 13 0 7-.1 9.2-.4 9.7l-.3.6-.6-.6zm90 0c-.2-.2-.1-1.7.3-2.2.5-.8 1 0 1 1.7 0 .5-.2.8-.5.8l-.7-.2zm-84-1c-.2-.2-.3-1.7-.3-4.8-.1-4.4 0-5.6.8-5.6.6 0 .8 2 .8 6.4 0 3.7-.1 4.3-.5 4.4-.2 0-.6 0-.7-.3zm99.4-1.8c-.3-.3-.4-.8-.3-2.5.1-2.3.2-2.5 1-2.7l.5-.2V61c-.2 2.8-.4 3.5-1.2 2.8zm-15-.3c-.3-.3-.2-1.6.1-2.2.3-.4.3-.6 0-.8-.4-.4-.4-1.9 0-2.3.2-.2.2-.5 0-1.2-.3-.9-.3-1.1.1-1.8l.6-.8.4.4c.3.3.3.6.1 1.5l-.2 1.5v1.5a139.9 139.9 0 0 0-.1 3.8c-.2.6-.7.8-1 .4zm-84.4-9c-.3-.3-.5-2.2-.3-5.4v-1.8a100 100 0 0 0 .3-9.2c0-1 .1-1.5.5-1.8l.4-.4-.4-.3-.4-.4.2-2.7.4-5.2c.2-5 .6-12.2.8-13.2.1-.7 0-1.3-.3-2-.4-.9-.4-1.2-.1-1.8.4-1 1.4-1.3 2.3-.7.5.3.6.6.6 1.9l-.2 3c-.6 3.2-.8 5-1.3 9l-.6 5.3a51 51 0 0 0-.5 9.2v15.8l-.5.4c-.3.3-.6.4-.9.2zm84.8-.8c-.3-.6-.2-5.1.2-6.7l.2-3.9v-2.7l.5-.2c.4-.2.7-.2 1.1.1l.6.4-.2 1.4c-.6 4.8-1 7.4-1 9.1-.3 2.7-.8 3.7-1.4 2.5zm-17.3-3.8c0-.8.6-1 .9-.4.2.6 0 1.2-.5 1.2-.3 0-.4-.3-.4-.8zm.2-1.8c-.2-.3 0-2.4.3-2.4.9 0 1 2.4.3 2.6-.3 0-.5 0-.6-.2zm-87.9-3.3a5 5 0 0 1-.4-1.4l-.7-3.7a63.7 63.7 0 0 1-1.2-6.3 78.2 78.2 0 0 1-1.7-16.6c.2-.8 1-1.3 1.7-1 .6.2.8 1 .4 1.7-.4 1-.4 2.4 0 7.6a217 217 0 0 1 1 8.2c0 .6.4 2 .6 3.1.7 3 1.5 7.5 1.6 8.4 0 1.2-.8 1.2-1.3 0zm-153.1-6.2c-.5-.1-.8-.6-.5-1.1.2-.3.5-.3 1.4-.1.9.2 1.1.3 1.1.8 0 .4-.2.5-.8.5h-1.2zm-137.3-3c-.5-1 0-2.4.9-2.7.5-.2 2.5 0 6.9.4 7.3.8 5.7.8 20.8.8 10.1 0 12.4 0 12.7.3.2.3.2.5 0 .8l-.4.4h-17.9c-10.6 0-18.5 0-19.5-.2L109 35l-.7.6-.7.5zm42.6-.2c-.5-.4 0-1.1.6-1 .4 0 .6.2.6.6 0 .6-.6.8-1.2.4zm208.1-1c-.3-.8-.1-5.3.3-6.4.2-.7.4-1.7.4-2.3 0-1 .1-1.2.7-1.7.9-.7 1.5-.9 2.2-.6.5.2.8.1 1.2-.1.8-.5 2.7-.4 3.1.2.2.4.2.6-.3 1.1-.8.8-2.2 1-3.7.3-1-.4-1.4-.3-1.4.6 0 .4-.3 1.2-.6 1.8l-.7 1v2.9c0 3-.1 3.6-.7 3.6-.1 0-.4-.1-.5-.4zm-64-.1-.4-.3v-5c0-4 0-5-.4-5.3-.4-.3-.4-.2-.4.7 0 1.8-.6 5.7-1 6.1-.6.9-1 .2-.8-1.5l.4-3.1c0-1 0-2-.2-2.5l-.3-1h-1.2c-6.3 0-8.2-.1-8.7-.5-.2-.2-.3-.5-.2-.6.2-.1 3-.3 6.1-.3h5.9v-.8a39.8 39.8 0 0 0-1.9-7.9c-.7-.6-.6-1.5.2-1.8 1-.6 1.5.1 1.9 3.2.1 1.5.4 3.2.6 3.7 1.2 4.4 1.4 6 1.4 11.3 0 3.2 0 5.4-.2 5.6-.2.2-.5.2-.7 0zm60-2.7V26.8h1.1v4.9c-.2.7-.9.6-1-.1zm-195.8-2c-.5-.3-.6-1.4-.3-2.9.2-1.1.5-1.6 1.4-2.4 2-1.9 2.5-1.4 2.4 2.4 0 1.5-.2 2.8-.4 3h-.8c-.5-.2-.5-.3-.4-1 .2-.8 0-1.8-.4-1.8-.1 0-.3.6-.3 1.3 0 1 0 1.3-.4 1.5-.5.2-.4.2-.8 0zm24-1.3-.4-.8c-.4-.3-.4-.7-.3-2 0-.9.3-2 .5-2.6.3-1 .9-1.4 1-.6.3 1 0 4.3-.3 5.3-.3.6-.5.9-.5.7zm139-3.8c-.5-.5-.4-2.5 0-2.9.6-.4 1 .3.8 1.5-.2 1.4-.4 1.8-.8 1.4zm-18.9-1.3-1.2-.1v-.7c0-.7-.2-1-1.1-1-.6 0-1-.7-.7-1.1.1-.1 2.6-.3 5.5-.4 3 0 6.2-.2 7.4-.3 2.4-.3 3.1 0 2.8.9l-.2.5-5 .2c-7.1.3-6 .8 1.4.7h5.6l.2.4-.1.7c-.3.3-12.3.5-14.6.2zm-114.2-2.4c-3.3-.1-3.8-.3-3.8-1.2 0-.8.7-1 3.4-.5 2 .3 3.8.3 6.7.2 4.2-.1 5.5 0 5.5.8 0 .3-.1.5-.3.6-.4.3-7.1.3-11.5.1zm94.2-.8-1.5-.4c-.6 0-.7-.2-.5-.5.3-.3 1-.3 3-.2 1.5 0 2.8.2 3 .3.6.7-2.3 1.3-4 .8zm-18.1-.2-1.8-.1-.3-1.6a34 34 0 0 1 .4-9.3l.3-.5.4.4c.3.4.4.8.2 2.1l-.3 4.7v3l.4.1 7.8.1c7 0 8.7.2 8 .8-.2.2-12.3.5-15.1.3zM357 19c-.4-.3-.5-.9-.6-3 0-2.7-.3-8-.5-10.4-.1-1.7.2-2.5 1-2.4l.6.1v1.4c-.1.7 0 3.5.2 6.3.3 5.3.3 7.8 0 8.1-.2.1-.5 0-.7-.1zm-61.9-3.3a22 22 0 0 1-.4-5 47 47 0 0 0-.2-4.5c0-.2-.4-.4-.7-.4-.9-.1-1-1.1-.2-1.6.7-.4 5.3-.9 8-.8 1.8.1 2.5.5 2.2 1.4-.2.4-.4.5-1.6.5h-1.6l-2.3.1-2 .2V7c0 3.9-.4 9-.6 9.3-.1.1-.4-.1-.6-.6zm26.2-1-.4-4.8c-.1-4.6 0-5.6.9-5.6.7 0 1 1 1 4.3a31.6 31.6 0 0 1-.5 5.6c-.2.7-.8 1-1 .5zm-56.5-2.1c-.4-.5-1-4.4-.7-5.3.2-.8.8-1 1.2-.4.1.3.3 1.8.3 3.2 0 2.7-.1 3.3-.8 2.5zm88.5 0a4 4 0 0 1-.6-1.7 9 9 0 0 0-1.9-4.3c-1.2-1.3-.3-3.2 1-2.3.8.5 2 2.7 2.4 4.4.5 1.5.4 3.4 0 3.9l-.5.4zM325.1 8c-.9-1 .9-4.3 2.6-5 1.9-.8 2.4 1 .7 2.4a4 4 0 0 0-1.3 1.7c-.2.7-.4.9-1 1l-1-.1zm-53.8-3.5c-.3 0-.8-.4-1-.7-.8-.6-2-.5-5.5.2-2.4.6-3.6.4-3.8-.5-.3-1.1 0-1.5 1-1.4.5 0 2 0 3.5-.2 2-.3 3.9-.4 7.3-.3l6.5.2 1.8.1.4.7c.7 1.3.2 1.5-4.4 1.7a101.6 101.6 0 0 0-5.8.2zm72-.3c-.4 0-.7-.3-.7-.5 0-.5 2.3-2.7 2.8-2.7.4 0 2 1.3 2 1.7 0 1-2.3 1.8-4.2 1.5z"/>
</svg>
