<?xml version="1.0" encoding="utf-8"?>
<svg xmlns="http://www.w3.org/2000/svg" xmlns:svg="http://www.w3.org/2000/svg" version="1.1" viewBox="0 0 183 134">
  <title>Mr. Tod enters his kitchen, looking worried.</title>
  <path d="M90.4 133.2c-.1-.2-6.3-.3-37.2-.6H20.9c-10.4.3-11.7.2-16.6-.3-2.8-.4-3.5-.6-3.6-1.5l-.3-11.4-.3-11.7c-.2-.8-.1-.9.4-.7.3 0 .6 0 .7-.2.2-.4.2-4.9-.1-6C.7 99.3.6 83.7 1 79.6a655.1 655.1 0 0 0 .3-53.8c.4-.6.4-7.5.1-13.8-.3-6.6-.3-7.7.1-9C2.1.7 2.6.5 8 .1c3.5-.3 5.6-.3 9.7 0L38 .6c8.4 0 19.3.3 24.3.4 6.3.3 16.2.3 31.8.1a4167 4167 0 0 1 62.4-.1c9.7 0 24.8.5 25.6.9.7.3.7.3.7 2.4l-.2 14.2c0 6.6-.2 15.8-.4 20.5-.5 15.5-.6 25.5-.3 27.7.4 2.2.5 8.6.2 39-.2 24.1-.2 23.7-.8 25.2l-.5 1.3-1.5.3c-1.4.3-7 .3-29.5.2a2692.6 2692.6 0 0 0-59.5.5zm4.7-2.9a8 8 0 0 0 4.6-1.2 17 17 0 0 0 3-1.8c1.4-1.3 1.4-.3 0 1.2-.8.8-1.2 1.1-1.8 1.1-.4 0-1 .2-1.3.4-.5.3-.4.4.7.4.7 0 2.1 0 3.2-.2l2-.2v-2a27.6 27.6 0 0 0-2.6-9.2l-1.2 1.3c-1.4 1.9-3.3 4-3.9 4.2-1 .6-.6-.3 1-2 2-2 3-3.5 3.2-4.9.1-.7 0-1.4-1-3.3l-1.3-3.5a10 10 0 0 0-.8-2.1c-.4-.5-.8-1.3-1-1.8-.6-1-1.2-1.2-1.5-.2 0 .4-.3 1-.5 1.1l-1 2-.9 2.4c-1.4 3.3-4.2 12.4-4.7 15.5-.2 1.2-.6 1.8-1 1.3 0-.2-.2 0-.4.5-.4 1-1 1.1-.8.2l.6-2.7c.4-2.1.5-2.4 1-2.4.2 0 .6-1 1-2.2l1.4-4.5 3.3-9.9c0-.2-.7-.2-1.2 0-.6.4-3.4.9-6.2 1.2a35.6 35.6 0 0 0-6.6 1.3c-.3 0-.6.2-.8.4-.2.3-.8.4-2 .4-.9 0-3 .3-4.8.7-1.7.3-4.2.7-5.5.7a43.8 43.8 0 0 0-8.5 1.2l-1.7.4a87 87 0 0 0-15.2 2.5 178.5 178.5 0 0 1-9.8 2 98.2 98.2 0 0 1-13.7 2.3l-1.8.4c-.6 0-.7.3-.7.8l-.4 3.5c-.2 2-.4 2.7-.7 2.7-.3 0-.3-.6-.2-3.3l.2-3.3h-.6c-1.2 0-7.8 1-9.3 1.5-.8.2-.8.3-.9 1.8 0 1.2 0 1.7.4 2.1.8.9 2 1.4 3.8 1.6l1.6.2v-2c0-1.9.3-3 .8-2.7.2.1.2 1 .2 2.5 0 2.1 0 2.2.5 2.3.5 0 .6 0 .6-.8.1-1.3.6-1.3.7 0 .1.9.1.9 1.4.9l8.9.7 1.6.1.2-2.6.2-4c0-1.5.3-2.5.7-2 0 0 .2 1.9.2 4v3.9H29c4.2 0 25.5.6 28.8.8a724.4 724.4 0 0 0 37.2.3zm1-.5c0-.2 1-.7 1.5-.7.1 0 .3-.2.4-.5 0-.2 1-1 2-1.5 1.5-1 2-1.4 3-3.2.6-1 .8.2.3 1.3-.8 1.7-6.6 5.5-7.2 4.6zm-75.7-3c0-2.6.2-3.8.6-3.8.5 0 .8 3.3.4 4.8-.6 2-1 1.6-1-1zm46 2.1c-.3-.2-.3-5.8-.1-8 .1-1.2.3-1.6.6-1.6s.3.7.2 4.6c0 4.3-.3 5.5-.8 5zm-48-.8c-.2-.3-.3-1.5-.3-2.7 0-1.9 0-2.3.4-2.3.3 0 .4.5.5 2.5 0 2.4-.2 3.6-.7 2.5zm77.2.2c0-.2.3-.5.8-.7.7-.3 1-.6.8-1 0-.2.4-.7 1.6-1.5a8.1 8.1 0 0 0 3.3-3.8c.3-.8.8-1 .8-.2 0 1-1 2.6-2.4 3.8a51 51 0 0 0-2.3 2c-1.1 1.1-2.3 1.8-2.6 1.4zm-72.4-3.1c-.2-1.7-.1-2.9 0-3.4.6-1.4.9-.3.8 2.8 0 3.9-.6 4.2-.8.6zm4.6-.9c0-3.2.2-4.2.7-3.5.4.4 0 6.8-.4 6.9-.3 0-.3-.7-.3-3.4zm-20.4 1.8c.1-1.8.6-1.7.7 0 .1 1.1 0 1.4-.3 1.4-.4 0-.4-.3-.4-1.4zm45.2.9c0-.2.6-.8 1.2-1.4.8-.8 1.3-1.5 1.4-2 .2-.6.4-1 .6-1 .3 0 .4.4.3 1.8 0 1.9-.4 2.7-.8 2.4-.2 0-.3-.4-.3-.7v-.6l-.6.6c-.8.7-1.8 1.2-1.8.9zm-21.9-2.7.4-2.9c.4-.7.6.2.6 2.2 0 2.6-.1 3.4-.7 3.4-.3 0-.4-.4-.3-2.7zm2.7 1.7c-.2-1.2.2-3.6.7-3.7.2-.1.3.4.3 2.3s0 2.4-.4 2.4c-.2 0-.5-.4-.6-1zm2.8-1.6c0-1.9.1-2.5.4-2.4.4.1.5 2.2.3 3.8-.3 2-.7 1.2-.7-1.4zm3.5 2.5c-.2-1.4 0-4.3.1-4.4.2 0 .3.9.3 2.2.1 1.4 0 2.3-.2 2.3l-.2-.1zm37.8 0-.1-4.7c-.1-5.5 0-7.2.5-7.2.6 0 .6 10.8 0 11.6l-.4.4zm-18.3-.4-.2-3c0-2.4 0-2.9.4-2.9.5 0 .7 1.3.6 3.8 0 2-.3 2.6-.8 2.1zm-16.7-.7c-.5-1.4-.4-3.2.1-3 .4.1.6 3 .2 3.2-.1.1-.3 0-.3-.2zm9 0c-.3-.6 0-1.4.3-1.4s.4.3.4.8c0 .8-.5 1.3-.8.6zm10.6 0c-.2-.6-.3-5.3 0-5.8 0-.3.3-.5.5-.5.3 0 .4.6.3 3.3 0 2-.2 3.2-.4 3.3l-.4-.3zm-16.9-1c0-.5.2-1 .4-1.3.5-.4.6-.2.5 1.2-.2 1.6-.9 1.7-.9.2zm29 .8a66.3 66.3 0 0 1 .6-10.3c.3 0 .3.7.4 3.3 0 3.6 0 5.2-.2 6.4-.2 1-.5 1.2-.7.6zm-9.5-1.8c-.4-2.3 0-5.6.7-5.6.2 0 .2.8 0 3-.1 3-.4 4-.7 2.6zm5 .6-.1-4c0-2.7 0-3.8.3-4.2.4-.5.4-.5.6 0v4.2c0 3.4-.3 4.5-.7 4zm11.7-4.3c.1-4.7.2-5.8.7-5.8.2 0 .3 1.1.2 4.7 0 5-.1 5.3-.6 5.3-.3 0-.4-.8-.3-4.2zm-9.3-.4c.2-3.3.4-4.4 1-4.4a443 443 0 0 0-.2 5c-.2 2.1-.3 2.7-.7 2.7a12 12 0 0 1 0-3.3zm7.5.2-.1-4.4c-.2-1.5-.2-1.8.2-1.8.3 0 .4.5.6 2.2.2 3 0 6.4-.3 6.5-.3 0-.4-.5-.4-2.5zm17.2 1.8c0-.2.5-.7 1-1.3a7.5 7.5 0 0 0 2.4-3.5c.2-1 .7-1.2.8-.3.1.8-.6 2-2 3.5-1.3 1.4-2.2 2-2.2 1.6zm-20.6-.9a342 342 0 0 1-.4-5.7c0-.5.1-.7.5-.8.4 0 .4.2.4 3 0 2-.1 3.3-.2 3.4l-.3.1zm7.7-1.8c0-1.7 0-1.8-.4-1.7-.5.2-.5 0-.3-1.5l.1-2.1c0-.3.2-.5.4-.5.3 0 .4.4.3 2v.6c.2-.8.4-1.2.7-1.2.4-.1.5 0 .3 2.2-.2 3.4-.3 4-.8 4-.3 0-.4-.3-.3-1.8zm13.2.3.6-1.4c.4-.6 1-1.9 1.3-2.8.5-1.6.9-2 1.2-1.3.1.5-1 3.3-2 4.7-.6 1-1.1 1.3-1.1.8zM85.4 118l.7-5.2c.1-.3.2-.3.4 0 .2.4-.4 5-.7 5.3-.3.3-.4.2-.4 0zm1.9-1.3c0-1.4.6-4.7.8-4.7.4 0 .5.3.3 1.2-.2.6-.3 1.8-.4 2.8-.2 2-.7 2.5-.7.7zm8.3-.4c.3-1 1.8-5 2-5.2h.3c.3.3-.7 3.3-1.4 4.8-.5.9-1.2 1.2-1 .4zm-6-2c0-.7.8-2.3 1.1-2.3.4 0 .4.2-.1 1.5-.5 1.1-1 1.5-1 .7zm18.9 15.3c0-.8-.7-2-1.2-2-.1 0 0 .8.3 2.3.2 1 .9.7.9-.3zm2-2.3c.3-4 .2-21.7-.1-22.2a518 518 0 0 0-.4 25.2c.2.5.4-.2.5-3zm7.2 2.8-.2-2.9c-.4-3.2-.4-4.4 0-4.4.2 0 .3.4.6 2.5.1.6.3 1 .4.9l.3-7.8c0-5.2.2-7.8.4-8.1.5-.7.4-1 .4 6a39.8 39.8 0 0 1-1 12.5v1.4h1.8v-3l-.2-17.3c-.3-10-.3-14 0-22.1l.2-5.9-1-3c-.8-2.3-1-3-1.4-3-.3 0-.6 0-.7-.2 0-.2-.5-.2-.8-.2-.4.1-1 0-1.5-.1-.7-.3-.8-.4-.6-1.2 0-.7.4-1.2 1-1.7.4-.3.7-.8.7-1a4 4 0 0 0-.8-1.3c-1-1-1.8-2.5-1.8-3.3 0-.6 1.9-1.5 3.3-1.5s1.4-.2 1.7-4.4l.2-3h-1.1c-.6 0-1.5.1-2.1.3l-2.3.5c-1.1.1-1.2.2-1.3 1.2l-.4 5.6c-.2 4.3-.2 4.5.4 5.3.5.7.5.8.3 6.7A273 273 0 0 0 112 93c.1 8.8.1 9.7-.3 10-.5.4-.6 2 0 2.4.2.2.3 1.9.2 8.8a112.1 112.1 0 0 1-.6 11.3v1l.3-1.2c.1-.6.4-1 .6-1 .3 0 .3-1.5.2-8.8-.1-6.4 0-9.6.2-12.3.5-4.3.5-6.3.2-14.6-.3-5.8-.2-8.6.3-8.6.1 0 .3 3.5.3 7.7a32.8 32.8 0 0 0 .7 9.5c-.1.6-.3 2.3-.3 3.8a77.6 77.6 0 0 0-.7 14.8c0 10 0 11.4-.4 11.5-.2 0-.4.5-.4.9s0 1-.2 1.5l-.3.7 2.8-.2 3-.3zm-3.2-.3c-.1 0 0-.4 0-.8a239.4 239.4 0 0 1 .5-29.2c.3-1.7.3-4.2.2-5.6-.3-5.8-.5-14-.2-14 .2 0 .3 2.3.4 6l.4 9.6c0 2.1 0 5.7-.2 8.4-.6 8.5-.8 17.9-.4 18.4.6.6.8 4.9.4 6.2-.4 1-.8 1.4-1.1 1zm2-8.6.3-8.3c.1-4.5.5-12 .7-14.6l-.4-17.8c-.1-1.5.3-3.2.7-3.2a3879.3 3879.3 0 0 0 .3 14.4 279.7 279.7 0 0 1-.9 25.5c-.2 3.8-.4 6-.5 6.3-.3.2-.3-.4-.2-2.3zm9.4 7c0-1.4 0-2.5-.2-2.6-.1 0-.2-1.2-.1-2.7 0-1.4 0-3-.2-3.7-.2-.8-.2-.3-.3 3-.1 4.2 0 7.4.2 8 .3.8.5 0 .6-2zm2.7-.2a2117.5 2117.5 0 0 0-.7-23v-4.6l-1.3-2.8a20 20 0 0 0-1.4-2.8c-.2 0 .1 8.5.4 10.6.1 1.3.2 1.5.5 1.2.3-.2.4-.8.2-3-.2-2.6 0-4.3.4-4.3.3 0 .5 6 .7 18.9.1 11.1.2 12.1.9 12 .3 0 .3-.5.3-2.2zm5.4.6.3-6.4c.1-4 .1-4.8-.3-5.9-.2-.6-.6-1.2-.7-1.2l-.2 2a48.8 48.8 0 0 1 0 5c.5-.9.6 0 .2 2.3-.3 1.3-.5 3.1-.5 4 0 1.6 0 1.8.5 1.8.4 0 .5-.2.7-1.6zm2.8 1.4c0-.2-.1-.3-.3-.3-.1 0-.3.1-.3.3l.3.2c.2 0 .3 0 .3-.2zm3.4-1.1c-.2-.5-.6-1.3-1-1.7-.6-.6-.7-.6-.9-.2-.3.8-.2 1.3.1 1 .4-.5 1 0 1 .5 0 .2.1.7.3 1 .4 1.2.9.5.5-.6zm12.7.8c.2-.3-.3-16.6-.6-16.8l-.3 1.1c0 .7-.3 1.8-.4 2.4a40 40 0 0 0 0 5.7 68.3 68.3 0 0 1 .2 8c.1.1 1-.1 1.1-.4zm3 0-.4-1-.6-3.2c-.7-3.9-.9-4.2-.9-1.3 0 2.8.3 5.2.8 5.5.5.3 1 .3 1 0zm8.5 0c.7-2.5 1-3.8 1-5 .2-1.6.3-1.7.9-1.5.3.1.4.4.2 2 0 1.1-.3 2.6-.5 3.3-.3 1-.3 1.2.1 1.1.3 0 .6-.6.8-2 .2-1.2.5-2.1.7-2 .1 0 .3 1 .3 2 .1 2.1.6 3 .6 1.1 0-1.1.4-1.8.8-1.5.1 0 .4.7.5 1.4.3 1.2.4 1.4 1.1 1.4 1 0 1.6-.7 1.1-1.3l-.6-1.1a38 38 0 0 0-6.1-6l-.8-.4.2.7c.3 1 .3 2.4-.1 4l-.5 1.9c0 .4-.3.6-.6.6-.8 0-.9-.5-.5-1.8.2-1 .3-1.3 0-1.3-.2 0-.3-.4-.3-.7 0-.3-.2 0-.5.9-.3 1-.6 1.4-1 1.5-.7.1-.8-.5-.2-2 .2-.5.5-2.2.7-3.7a65.8 65.8 0 0 1 .3-4.7c-.2 0-.4 1-.5 2-.3 3.2-1.2 6.5-2 6.9-.7.3-1 .1-.8-.6 0-.4 0-.5-.7-.5-1 0-1-.1-.2-1.6.5-.9.7-2 1-4.6.7-5.2.7-5.3.9-5.9.1-.4 0-.6-.2-.6-.5 0-1.4 3.8-1.4 5.4.1 1.6-.5 4.7-.8 4.6-.2 0-.3-.6-.2-1.1v-1l-.6 1c-.5.7-.6 1-.4 1.5.1.4.2.7 0 .8-.1.2.2 1.1.8 1.8.3.3.5.8.4 1-.1.5.6 2 1.6 3.6.4.6.5.7 3 .7 1.7 0 2.4-.1 2.5-.4zm-18.1-3.4c0-3 0-3.5.4-3.5.5 0 .5-1.8 0-2.5-.3-.4-.4-2-.4-10l-.2-15c-.2-4.7-.3-5.4-.7-5.7-.9-.5-1 0-.7 5.2.2 2.7.4 10 .4 16.1 0 6.2.2 12.5.3 14 .1 2.5.1 3-.3 3-.3 0-.3.2.2 1 .3.4.6.8.8.8 0 0 .2-1.5.2-3.4zm1.9 1.7c.5-1.4.5-2.2.4-10.4v-8.8c.3 0 .9 7.4 1 14 .2 3.6.3 5.8.5 6 .5.7.6-1.9.4-6.8l-.2-8c0-3.1 0-3.4.4-3 .2.3.4 1 .4 1.4 0 .5 0 .9.2.9.1 0 .3-1.7.4-3.8a24.7 24.7 0 0 0-1-10.3c-1.7-8.5-2-8.6-2-.6a88.2 88.2 0 0 1-.3 8.2 647.4 647.4 0 0 0-1-16.7c-.5-.6-.6 1-.6 12 0 9.9 0 11.7.4 12a61.4 61.4 0 0 1 0 15.3c.2.5.4.3 1-1.4zm2.2-18.3c0-.8.4-.8.4 0 0 .4-.1.7-.2.7-.2 0-.3-.3-.2-.7zm-.7 19-.6.1c-.3.1-.4.2-.1.6.3.3.3.3.5-.1.2-.2.2-.5.2-.6zm26.5.3c1-1.1 1.4-1.8 1.6-3.9l.4-2.3c0-.3 0-.7-.5-1a88.2 88.2 0 0 1-9.5-10.4c-1-1.3-2-3-2.3-3.7-.8-1.8-1.6-5-1.4-5.7.1-.5-.8-6-1.3-7.5a5 5 0 0 0-.8-1.4 4 4 0 0 1-.6-1.8c0-.6-.7-2.1-1.3-3.3-1.2-2.3-2-3-3.3-2.6-1 .2-1.1 1-.2 1 .8 0 .9.2 0 .8l-.5.5.6-.2c1.9-.5 2.2 0 .7.8-.6.3-1.2.6-1.3.8-.4.6-1 0-1.1-1-.2-1.8-.3-2.5-.8-3.6-.2-.6-.5-1.1-.6-1.1-.2 0-.5-.5-.9-1.2-.3-.7-.7-1.2-.8-1.1-.7.2-.5 1 1.7 8 1 3.4 1.6 5.5 1.6 6.8 0 1 1.8 8 2.2 8.7.1.1.4.2.7 0 .4 0 .6.2 1 1 .7 1.3 1.5 2.1 4.5 4.3 2 1.4 2.4 2 2.4 2.5 0 .8-.4.8-1.5-.1l-2.4-1.8-1.4-1 .1 1c.3 1.3.7 2.2 2.3 5.4a20 20 0 0 0 5.2 6.9c3.5 3.7 4.9 5.4 4.9 6.4 0 .8 1.8.7 2.6-.2zm-5.8-6.1c0-.1 0-.4.2-.6.2-.3.3-.3.7 0 .2.2.3.4.2.6-.1.2-1.1.3-1.1 0zm-.8-2.3c-.4-.5 0-.7 1-.7.5 0 .8.1.8.4 0 .7-1.3.9-1.8.3zm-1-2.5c-.8-.2-2.3-1.3-2.1-1.5.1-.1 3 .4 3.8.7 1.4.5-.1 1.2-1.8.8zm-2.2-2.7c-2.3-.5-3.2-1-3.2-1.5l-.4-.8c-.7-.7-.2-.7.6 0a6 6 0 0 0 2.8 1c2.4.4 3.2.7 3 1.3 0 .6-.5.6-2.8 0zm-3-9.4v-.6c.2-.4.9.1.9.7 0 .4-.8.4-1 0zm-2.6-1.5c-.6-1-.6-2-.1-2 .3 0 1.7 2.3 1.7 2.8h-.5c-.3 0-.7-.3-1-.8zm-1.8-7c-.6-1.3-1.3-3.2-1.3-3.5h.7c.4.1 1 0 1.4-.2 1.1-.5 1.3.1.3 1-.9.6-.9.6-.5 1.6.5 1.1.6 2.3.2 2.3-.1 0-.5-.5-.8-1.2zm-2.8-4.8c-.2-.3.1-.7 1-1.4.9-.9 1.2-1 1.2-.6 0 .2 0 .6-.2.8-.4.5 0 .5 1.3 0 1-.4 1.6-.2 1.2.4-.1.2-3.3 1.3-4 1.3-.2 0-.4-.2-.5-.5zm.4-2.8c0-.4 1.4-.9 3-1 .6 0 .9 0 1 .3 0 .3-.4.5-1.5.8-2 .4-2.5.4-2.5-.1zM131 126.5c0-1.6 0-3.3-.2-4l-.2-1-.2 1.5v2.5l.1 2.4c0 .8.1 1.4.3 1.4.2 0 .2-1 .2-2.8zm6.2-2.3c-.2-1.8-.4-3-.7-3.4-.5-.7-.5-.6 0 3.1l.4 3.5c0 .4 0 .4.3 0 .1-.2.1-1.4 0-3.2zm7.4.3c-.2-.4-.2-.9-.2-1 .3-.5.2-21.3 0-25.6-.7-8.9-.6-8.4-1.4-8.9-.5-.2-1-.4-1.4-.4-.5 0-.5 0-.4 1 .5 2.8 1 9.2 1.1 13.7.2 6.4.6 11.6 1 14.3.6 3 .7 5 .2 5.4-.7.5-.9.1-1-2.4l-.3-6.7a535.2 535.2 0 0 1-1-18.7c-.2-1-.3-.9-.4 1.5-.3 3.8-.3 9.3 0 8.8.2-.2.4-.3.5-.1.1 0 .2 3.2.2 7 0 6 0 6.7-.5 7-.3.1-.4.3-.1.7.2.4.2.6 0 .9-.5.4-.4.9.4 1.2.5.3 1 1 2 2.9l1.1 2.4.2-1a4 4 0 0 0 0-2zm-36.5.6c.2-1.8 0-6.3-.4-6.3 0 0-.2.6-.2 1.5l-.3 3.9a13 13 0 0 0-.1 2.7c.3.7.8-.3 1-1.8zm1.3-10.5c0-8 0-11-.2-11-.6 0-.6-.8-.2-3 .4-1.8.4-3 .2-10.2-.4-12.2-.3-26.6.1-29h.5c.4 0 .4.3.2 3.3-.5 7.8 0 35 .6 34.5.2-.2.2-2 .2-7.3 0-3.8-.2-7.1-.3-7.4l.1-2c.2-1.1.3-5.8.2-13-.1-11.3-.1-11.5-.7-12-.3-.2-.8-.4-1.1-.4-.7 0-3.2-.9-3.7-1.3l-.7-1.4c-.4-1.4-.3-1.4 2.8-2.6A18 18 0 0 0 111 50c.7-.6 1.6-1 2-1.2 1.3-.3 3.4-3.4 3.4-5.3 0-1.2.5-2.5 1.5-3.8l.9-1.2-.6-.7c-.3-.4-.7-.8-.9-.8-.4 0-1.3-1-2-2.5-.7-1.3-1.3-1.9-2.8-2.7l-.7-.4.1 5.8c.1 4 0 5.7-.2 5.8-.1 0-.3-1-.4-3.4a129.4 129.4 0 0 1-.9-15l-.2-9.3-.6-.1h-1.1c-.5.1-1-.3-.6-.5l8.1-.3c4.4 0 12-.4 17-.8 4.9-.4 11.3-.7 14-.8 12.6-.4 19-.7 20-1 1.1-.5 7-1 10.3-1 1.4 0 1.8 0 1.8.4s-1.5.8-2 .4-7 0-7.8.6c-.5.4-2 .5-7 .7a938.9 938.9 0 0 0-20.9 1c-4.6 0-8.4.3-18.8 1.4-3.9.3-5.1.4-5.4.1-.5-.3-4.9-.5-5.6 0-.5.2-.5.5-.4 5 0 2.8 0 4.2.2 3.3 0-.8.2-1.5.4-1.5.1 0 .2 1.6.1 4.3v4.1h.6a1 1 0 0 0 1-.5c.1-.3.5-.5.8-.5.6 0 2.9 1 4 2 .8.4.8.4 1.2 0 .3-.5.4-1.1.2-3.5-.2-3.6-.2-4 0-5.4.3-1.2 1.5-3 2.4-3.5.7-.4 4.3-1 7-1.1 2.1-.1 3.4-.3 3.8-.5.5-.4 1.4-.5 6-.8l9-.5c5.9-.2 8-.2 10.1 0 2 .3 3.5.3 5.6 0a63.7 63.7 0 0 1 14.3.2c1.5-.2 1.5-.2 1.5-1.1 0-.5.2-1.3.4-1.7.4-.6.4-1 .2-1.6-.2-.5-.4-1.6-.5-2.6-.1-.9-.3-1.6-.4-1.6-.2 0-.3.2-.3.5 0 .6-1.3 1-2.6.7-.9-.2-.9-.2-.4.2.3.2.5.5.4.6l-4 .2a242 242 0 0 0-10.6.6c-7.1.3-15.5 1-16 1.2-.8.3-2.5.5-10.8.9-9.2.5-13.4.5-13.8.1-.2-.2-1.4-.2-4.1 0l-8.8.6c-4.7.3-5 .3-5 .9v9.1a172.8 172.8 0 0 1-1.3 19c-.4 0-.2-16.4.3-17 .2-.2.3-1.6.2-5.5V15H101c-1.8-.2-2.1-.3-1.5-.8.6-.5.8-.5-4.2-.4-2.2 0-3.7 0-3.8-.2-.1-.2-2-.3-4.4-.4-5.5 0-19.4.2-19.7.4 0 .1 2.8.2 6.3.2 4.6 0 6 .1 5 .3a7 7 0 0 0-2.1.6c-.7.4-2.5.6-4 .4-1.6-.3-22.2-.5-22.2-.2 0 .1 2.7.3 6.4.3a598.7 598.7 0 0 1 9.7.2 321.7 321.7 0 0 1-25 .2c-.3-.3.5-.4 2.7-.6a52.1 52.1 0 0 1 12.3-.7c5 0 9 0 9.1-.2a1685 1685 0 0 1-13.4-.3c-5.5 0-10.2 0-10.3.2-.2.1-4.4.2-9.3.2a101.2 101.2 0 0 0-21.2 1.4c-2 0-3 .3-3.3.5-.3.2-1.1.4-2.4.4-1.2 0-1.8 0-1.7.2a7 7 0 0 0 2.5.3c2 0 2.4 0 2.4-.4 0-.3.7-.4 5.3-.4h5.3l-.1-.6v-.6h10c9-.1 10 0 10.5.3.3.3.5.6.5.8 0 .4 2 .6 13.4.9 6 .1 9.2.3 9.4.5.2.2-1.8.3-7.2.3-4.3 0-7 .1-6.4.2.7.2 4 .3 7.3.3a175.5 175.5 0 0 1 11.2.5c0 .2-1.3.3-3.5.3H61l.1 1.5c.5 5 1 19 .7 19.2-.1.2-.3.2-.3 0A4057.4 4057.4 0 0 0 60.5 19s-12.9-.6-18.2-.7c-3.7-.2-5.1-.3-5.2-.6 0-.2.2-.3.8-.3.6 0 1-.1 1-.3 0-.2-.7-.2-2.6-.1l-3.8.2c-1 0-1.3 0-1.3.3s-1 .4-5.7.3l-7.3-.1c-1.2 0-1.5-.1-1.5-.4 0-.4.5-.5 5.5-.4 4.5.1 5.6 0 5.6-.2 0-.6-11.5-.5-12 .1-.2.3-.2.4 0 .6.2.1.3.4.2.5-.1.2.5.3 2.2.3 1.9 0 2.4 0 2.4.3-.1.2-.8.4-1.7.5-2.4.2-1.2.5 2.6.6 2 0 3.7.2 4 .4.5.2.5.6.4 4.6 0 2.4-.3 7.7-.6 11.9a227 227 0 0 0-.4 20.1c0 7.3-.1 12.7-.2 12.7a91.4 91.4 0 0 1-1-14c-.1 0-.3 3.4-.4 7.4-.2 4-.4 7.7-.6 8.3-.2.6-.3 4-.4 8.3l-.1 14.4-.1 7.2 1.3.2c1.3.2 7.2-.2 7.5-.5.1 0 .2-4.5.2-9.9 0-8.1 0-9.8.4-10.3a536 536 0 0 0 0-38.8c-.2 0-.3 1.8-.3 4.1S31.1 50 31 50c-.4 0-.6-2-.5-7.2 0-2.9 0-5.2-.2-5.1 0 0-.2 1.1-.2 2.3l-.2 3.9c-.4 3.2 0-12.6.7-22.2 0-2 0-2.4-.3-2.5-1-.4-1.2.2-1.2 3.9 0 1.9-.2 5-.4 6.8a89 89 0 0 0-.3 13.1v10.4c0 .3-.3.5-.4.5-.5 0-.2-31 .2-31.4.5-.5.4-3.4-.2-3.4-.2 0-.4.2-.4.4 0 2.4-.5 6.3-.7 6.2V24L27 21l.2-1.6h-2.7c-1.6-.1-2.8-.3-2.8-.4-.1-.3 6.7-.4 10-.2 1 0 1 .6 0 .6-.5 0-.6 0-.6.7 0 .4 0 1.4-.2 2-.1 1.2-.1 1.3.3 1.1.5-.1.5.2.3 5.8a742 742 0 0 1-.2 11.3c.2.6.3-.4.4-3.2 0-2.4.2-4.3.4-4.6.2-.4.3 2.3.3 11.3l.2 13.5a651.9 651.9 0 0 1 .3 25.2c-.1 2.2-.3 7.1-.3 11v7.1h.6c.5 0 .9-.1 1-.3V84c0-.8 0-6 .2-11.5.2-11.4.5-16 1.1-16.9.4-.5.4-1.3 0-8-.6-10-.7-10-.5-.8 0 5.2 0 8-.1 7.8-.3-.2-.6 1.7-.6 4 0 1-.1 1.7-.3 1.7-.2 0-.2-2-.3-5.5l-.1-6.1c-.1-.4 0-.6.3-.6.4 0 .4-.2.3-2.8l-.2-7.7c0-2.7 0-4.8-.2-4.7-.4.4-.5 5-.3 10.4a103.4 103.4 0 0 1-.5-6v-13c-.1-4.2-.1-4.5.4-5 .4-.3 1.7-.3 10.8-.2 10 .1 10.2.1 10.6.7.3.4.7.5 1.6.5 1 0 1.2.1 1.8 1 .4.6 1 1.7 1.1 2.5a38 38 0 0 1 .4 11.9c-.1 0-.3-2.2-.4-4.9-.2-5.9-.2-5.5-1-7.3-1-2.2-1.5-2.4-7.5-2.4l-5-.1v1.6c-.2 1.4 0 1.7.2 1.7.3 0 .5-.3.5-1 0-.6 0-1.2.2-1.3.3-.1.4.2.3 1-.1.8.3 1.6.8 1.6.4 0 .5-.2.5-1.3 0-2.4.5-2 .9.7 0 .2.2.4.4.5.3.1.3-.1.2-1-.2-1.3.2-2 .7-1.2.3.6 1 .5 1-.2.1-.8.6-.7.7 0 0 .4.2 1 .3 1.1l.1.6c.2.8 1.4.3 1.6-.7.1-.4.3-.7.4-.7.3 0 .1 2.5-.2 3.2l-.1 16.2v15.7h-1c-.5 0-1 0-1.2.2-.2.1-3.2-.2-5-.5-.6-.1-1.4-1-1-1.4 0 0 .7 0 1.4.3s2 .5 3 .5h2l.1-7.3a734.6 734.6 0 0 0 .6-20.3 22 22 0 0 0 0-3.4c0-.3-.5-.4-2.3-.2-4.2.4-5 .4-9 .2-3-.1-3.8-.1-4 .2-.1.2-.3.3-.5.3-.3 0-.3 3.5-.3 14.8 0 13.6 0 14.7.4 15 .6.3.6.6-.2 1.6-.6.8-.6 1-.6 4 0 2 .1 2.7.2 2 0-.7.3-1.2.5-1.3.3-.1.4.2.2 1.5l-.4 6.2c-.4 6.3-.6 8.3-.8 7.8v-6.5a70.6 70.6 0 0 0 0-5.8c0 .4-.1.7-.3.8-.2.2-.3-.7-.3-2.5 0-.5 0-1.3-.2-1.8a63.1 63.1 0 0 0-.5 16.8c.2.3.2 1.3 0 3.9-.3 3.5-.4 16.5-.1 17.2.1.3.3.3 6.3.2v-1.4c-.2-1.7.1-2.3 1.4-2.3.6 0 1.1-.2 1.3-.3.4-.5 2.2-.4 2.5 0 .3.7 1.4.4 2.2-.4 1.2-1.3 3.4-1.9 3.4-1 0 .3-.3.6-.8.9l-.9.4.4.6c.2.2.4.9.5 1.5v1l1.4.1c1 0 1.6 0 2.3-.5 1-.7 3.7-1.4 4.6-1.2.7.1.7.7-.2 1l-.7.5 1.4 1.4c1.2 1.2 1.6 1.5 2.6 1.6.8 0 1.3 0 1.4-.2l.3-9.3v-12c.3-23.3.2-31.8-.3-32-.4-.3-.4 0-.5-14.8 0-13.5 0-13.5.3-13.5.2 0 .3 2 .3 5.7 0 5.8 1 24.7 1.2 24.4l.2-4a674.6 674.6 0 0 1 1.8-27l.2.4a31434 31434 0 0 0 13.1-.3c4-.2 5-.3 4.6-.7-.2-.2-.3-.2-6.5 0-4 .2-5.4.1-5.4 0 0-.3 1.2-.4 4.2-.4l6.9-.1c1.8-.1 2.7 0 2.8.1.1.2 0 .4-.1.6-.2 0-.3.2-.3.2 1.4.3 1.9.3 2.1-.3.3-.5.5-.5 2.6-.4 2.1 0 2.3.1 2.3.5 0 .5-.2.5-2.3.5-2.3 0-2.3 0-2.3.6s.1.6 1.2.6c.8 0 1.3 0 1.4-.4.2-.3.5-.3 1.4-.1l1.2.2.1 2c.1 1.6.2 1.8.3 1.1.3-1 .5-1 1.1 0 .4.8.5 1.3.2 6.6-.1 3-.3 6.1-.2 6.7v1l.3-1.3c.2-.7.4-1.5.6-1.7.4-.5.4-3.6.1-8.8-.3-5.2-.3-8.4 0-8.4l.5 4.6c.4 5.8.4 6.4.2 11.2-.2 3.6-.1 6.7.5 14.4.1 1.5.1 1.9-.1 1.7-.2-.2-.5-2.3-.6-5.2a34 34 0 0 0-.5-5c-.6 0-.6 11.8-.1 34v7.7c-.4 1.6-.6.3-.7-4 0-4.5-.3-12.1-.4-11.6l-.3 1.2c-.4 2.8-.6 0-.5-10.3.1-11-.1-13.1-.5-5-.1 2.2-.3 4.1-.4 4.3-.4.3-.4.4-.3-4.2l.1-8c0-3.1.1-4 .4-4 .2 0 .3.4.3 1.2 0 .7.1 1.8.3 2.4a179.6 179.6 0 0 1 .4-10c.1-2.6.1-2.8-.2-2.3-.5.7-.7.4-.8-1.4 0-.7-.2-1.2-.4-1.2s-.4 4-.1 5.1c.1.6.2.5.3-.4 0-.7.2-1 .5-1 .2 0 .4.2.4.5l-.3 3.1c-.1 2-.2 2.7-.5 2.8h-.5c-.2-.1-.5-4.4-.9-12.1l-.1-3.3-.5 2a24 24 0 0 0-.5 6l-.4 8.4c-.5 4.6-.5 8 0 25 .2 5.6.1 7-.4 6.4-.1 0-.3-7-.4-15.1a142 142 0 0 1 .2-18.3c.4-2.8.6-6.3.8-13.9v-1.3l-1.3-.2c-1.8-.2-8.2-.3-8.6 0-.2 0-.3 1.7-.2 6.2.2 8.6 0 11.2-.4 3.6l-.2-7.7c0-1.4 0-2-.3-2-.2-.1-1.3-.2-2.6-.1h-2.3l-.1.9-.2 2.4c0 1.5 0 1.6.3.7.1-.5.4-1 .6-1.2.2-.1.4-.6.5-1 0-.5.2-.8.3-.8.3 0 .3 13.8 0 15-.4 1.2-.9 5.1-1 9.3l-.5 3.8a66.2 66.2 0 0 1 .3 10.6c0 11.5-.2 21-.5 20.7-.2 0-.3-4.5-.3-9.7 0-6.6-.2-9-.3-8.1-.3 1.3-.6 1.9-1 1.5l.2-1.2c.6-2.2.8-5.7 1.1-14 .3-6.5.3-9.8 0-15.4a298 298 0 0 1-.6-13.1c-.6.2-.8 2.3-.5 8 .2 3.2.3 9.4.3 13.8 0 7-.2 8-.6 8.6-.4.6-.4 1.3-.2 6.8 0 4.2 0 6.1-.2 6.1a20 20 0 0 1-.4-5.2l-.3-7v-11c0-12.9 0-14-.3-17.4-.2-2.5-.3-3-.7-3-.5-.1-.5 0-.3 5.4.4 9.2.2 30.3-.3 30.3-.1 0-.2-.7-.2-1.5l-.2-1.6c-.1-.1-.2.4-.2 1 0 .7-.1 1.2-.3 1.2-.1-.1-.2-1.7-.2-3.6v-3.3c-.5.4-.9 6.8-.9 14.3v7.9c.3.2.5-3.7.7-9.7.2-5.1.6-7 .7-3v2.4a67 67 0 0 0-.1 7.7c0-.2.2-.5.4-.5a111 111 0 0 0-.2 7.7l-.1 5.2.4-3.1c.2-1.7.5-3.1.7-3.1.2 0 .3-.2-.2 4.9-.2 2.4-.4 7.3-.4 11.4 0 4.3-.1 7.2-.3 7.3-.2.2-.4-7-.6-21.3l-.1-4.9a97 97 0 0 0-.8 10.5c0 1.6 0 1.7-.5 1.7-.5-.1-.6 0-.6 1.8v4a94.3 94.3 0 0 1 .1-21.5c.2-.2.3-2 .4-6.3 0-6.8.4-13 .9-16 .2-1.6.3-3 .1-5.1v-11c0-5.2 0-8-.2-7.7-.2.5-.4 3.2-.8 17.8-.3 8.2-.4 10.2-.7 10.6-.3.4-.4 1.5-.2 7.7.2 6.5.1 7.4-.3 9.4-.5 2.5-.5 2.8-.4 22.8 0 7 0 10-.2 10s-.3 0-.3-.3c0-.6-.5-.5-.7 0-.2 1 .1 1.1 1.5 1.1l3.8.3a295.1 295.1 0 0 0 23 1.8l4.1.3c1.4 0 2.3.8 2 1.7 0 .2.2 1.1.6 2 .3.8.7 2 .8 2.8 0 .7.7 2.6 1.3 4.2 1.2 3.2 2.3 6.4 2.7 7.9l.2.9.5-1c.3-.7.4-2.8.7-10l.4-10.6c.2-2 .6-4 1-4 .2 0 .2 0-.2 4.6-.2 2-.5 6.2-.5 9.3-.2 5.1-.2 5.4.3 5.6.4.1.5.5.7 2.3l.1 4.3c0 1.7.1 2 .3 1.5.2-.4.3-5 .3-11.6zm-4.7.5a60 60 0 0 1 .5-11.7l.4-9.5c0-5.2.2-8.5.4-8.6.2-.2.2 4 0 13a175.1 175.1 0 0 1-.8 21c-.2 0-.4-1.9-.5-4.2zm-2-19.2c-.2-13.8 0-21 .4-21.5.5-.5.6.6.4 3.7l-.2 17.4c0 8.7 0 14.2-.2 14.7s-.3-3.7-.5-14.3zm-9 6c.1-1.2.4-16.1.2-16a46 46 0 0 0-.8 8.4c0 2.1-.1 2.9-.4 3a109 109 0 0 1 .2-11.3c.2-1.4.4-8 .6-14.5 0-6.5.3-12.1.4-12.5.5-1.6.6 0 .5 6.1-.1 4.6 0 6.6.1 6.3.4-.5.7-.2.6.7l-.2 15c-.2 11.3-.3 14.5-.6 15-.5 1.1-1 1-.7-.2zm-70-11.6c0-5.4.3-10.8.5-12.1.2-1.9.2-2.5 0-3s-.4-1.2-.3-1.7c0-.9.8-2.9 1-2.9.3 0 .2 9.1 0 9.3-.2.1-.3 4-.4 10-.2 8.1-.3 10-.6 10-.3.1-.3-1.4-.2-9.6zm45 3.8c0-5.3 0-7.9.4-7.9.1 0 .2 3 .2 6.6 0 5.4 0 6.6-.3 6.6s-.4-1-.4-5.3zm4-2.4c.1-4.1.3-7.6.4-7.7.2-.2.3 3 .3 7.4 0 6.6 0 7.8-.4 7.8-.3 0-.4-1.1-.2-7.5zm-35.3 5.2v-8.8c0-8.3.1-10.4.5-10.4.3 0 0 19-.3 19.2-.1.2-.2.2-.2 0zM55 83.2A253.5 253.5 0 0 1 56 58c.3 0 .3 3.3-.2 11.6-.2 4.8-.2 7.1 0 7.5.2.5.1 18-.1 18.4l-.4.2s-.2-5.6-.2-12.5zm1.9 8.6.2-12.2c0-5.5 0-11.2.2-12.7a76 76 0 0 0 0-13.8c.3 0 .7-10 .8-22.6 0-3.7 0-4 .3-2.8a571 571 0 0 1-.5 48c0 4-.4 18.1-.6 18.4h-.3c-.2 0-.3-.6-.1-2.3zm-17.5-1.3.3-5c.2-4 .4-5.6.7-5.6.3 0 .3-.5-.2 6.4l-.4 6.2c0 .2-.1.3-.3.3-.2 0-.2-.6-.1-2.3zm5.1.5v-1.7c.5-2.3.9-8 1.2-17 .3-9.7.6-14.6.8-14.8.6-.6.6.5.4 12.6a41 41 0 0 1-.4 5.7l-.4 4.7c-.2 4.3-.9 10.2-1.2 10.6h-.4zm39.7-7 .1-1.8c.6-5.3.8-10.7.8-21.5A180.3 180.3 0 0 1 87 27.4c.3-3.7.5-5 1-4.7l-.2 3.5-.2 6.5c0 2.8-.1 3.3-.4 3-1-.8-1.6 11.9-1.3 26.8.1 9.3 0 11.8-.3 15.2-.7 6.4-.7 6.8-1.3 6.3zm-31.7-2V69.9c0-8.8.1-11.2.4-11.1.5.1.4 22.7 0 23.2-.3.3-.4.3-.4 0zm26.7-2 .1-5.2c.3-4.2.5-40 .3-39.8-.4.4-.9 7.8-1 15.2-.3 14.3-.5 17.6-.9 17.7-.3.1-.3-.6-.2-4.5l.4-18.2c.2-10.6.5-19 .8-23h.3c.2 0 .3 1.5.3 4 0 3.8 0 4.2.4 4.1.4 0 .5.2.5 1.1a225.6 225.6 0 0 0 0 18.7c.4 9.2.3 18.4-.3 27.6-.1 2.1-.4 3-.7 2.2zm-36.2-2.4c-.1-.7 0-8.6.3-11.4.3-4.1.5-4.9 1-4.7.2.1.3 0 .3-.6 0-1 .2-1.7.6-1.7.2 0 .2 1 .1 2.9-.2 3.4-.4 4.5-.8 4.5-.5 0-.6 1.3-.8 6.4-.2 3.2-.5 5.6-.7 4.6zm-4.5-7.2c0-7.8.5-12.4 1.2-11.6v3.6c-.3 3.2-.6 9.7-.6 13 0 .7-.2 1.3-.3 1.3-.2 0-.3-2.3-.3-6.3zm10.5-.5c-.3-8 0-12.4.7-11.3a172.7 172.7 0 0 1-.1 17.5c-.4 0-.5-.6-.6-6.2zm-8.3.6c0-3.9 0-5.3-.3-5.4-.4-.1-.4-2.2 0-4.8.4-2.5 1-2.4.9.1v1.1c.2-.9.8-.8.8.1l-.4 3.4-.3 4.6c0 3-.3 6.3-.6 6.3a26 26 0 0 1-.1-5.4zM83.4 54c.2-17.2.4-22 1.1-23.2.3-.4.4-1.4.4-3.6 0-3 .2-4.1.6-4.1a84.9 84.9 0 0 1-.3 11c0-2-.5-.9-.8 1.9a182 182 0 0 0-.4 16.7c0 17.5 0 18.5-.4 18.5-.3 0-.3-4.3-.2-17.2zM88 60A217.5 217.5 0 0 1 89 27c.3-5.6.7-5 .8 1.1 0 2.9 0 4.8-.2 4.6-.3-.6-.5-.1-.9 3-.2 2.2-.3 6.5-.2 18.3 0 9.4 0 15.4-.2 15.4-.1 0-.3-4-.4-9.4zm-6.7-5.6c.2-12 .5-18.7 1.1-21.7.2-1.2.4-3.6.4-6 0-4 .1-4.9.6-4.9.1 0 .1 2.7 0 6.4 0 6.7-.2 8.2-.6 8.2-.4 0-.5 2-.8 14.9-.1 10-.3 13.2-.5 13.5-.3.2-.3-1.8-.2-10.4zM92 55c-.1-9.8.2-17.8.7-17.8a344 344 0 0 0 0 15.4c-.1 4.7-.2 7.3-.4 7.3-.1 0-.3-1.9-.3-5zm-52.7 1.3c-.4-.6-.4-.6 0-.8.5-.2 5.4-.2 5.6 0 0 0 0 .4-.2.7-.2.6-.3.7-2.6.7-2.3 0-2.5 0-2.8-.6zM55 54.3c.3-1.2.7-6 1-12.3.1-3.2.4-6 .5-6.4.2-.3.4-3 .5-5.7.1-3.3.3-5.2.4-5 .2 0 .3.3.3.6l-.3 6.7c0 3.5-.3 6.4-.4 6.6-.2.2-.4 2.4-.5 5-.3 6-.5 9-.8 10.2-.3 1.1-1 1.4-.7.3zM44.4 52c-.6-.2-2.1-.3-3.3-.3-2.1 0-2.8-.3-2.3-.8.3-.3 9.2.1 10.1.5.4 0 .3.2 0 .5-.6.4-2.5.4-4.5 0zm4.4-1.5a44 44 0 0 1-.2-5.4c0-5.6 0-5.8-.4-1-.2 2.7-.3 2.3-.3-4l-.1-7-.2 4.7a38 38 0 0 1-.5 5.4c-.3.7-.5 2.3-.5 4 0 1-.6 1-.6 0 0-.5 0-.7-.2-.6-.4.1-.4-2.6-.1-10.8.1-4.6.2-5.8.5-5.8.2 0 .4.2.4.4 0 .4.1.4.7.3.6 0 .8 0 1 .3l.1 4.7c0 3.5.1 3.9.3 2.3l.2-5c0-1.8.1-3 .3-3 .1 0 .3.3.3.6 0 .4 0 .5.3.2.3-.2.5-.2.6 0 .2.3.2 16.4 0 16.6a225.8 225.8 0 0 0-.4-13c-.1-2.9-.2-3-.3-1.7-.1.8-.3 5-.3 9.6 0 4.5-.2 8.2-.3 8.2h-.3zM46.3 42l-.1-3.8c-.3.3-.4 8-.2 7.8.2 0 .3-1.7.3-4zm.7-7.7-.1.3v.5c.2-.2.2-.5.1-.8zm62.2 12.3a2654.3 2654.3 0 0 1 0-30.8c.4.1.7 30.5.3 30.8h-.3zm-66.1-3.4c0-1.5-.1-2.1-.2-1.4-.1 2.3-.3 3.6-.6 3.6-.5 0 0-15.2.4-15.6.3-.3.4-.3.4-.1 0 .2.2.2.5.1.4-.1.4.2.2 4.3l-.2 8.1c0 4.4-.5 5.2-.5 1zm0-5.3c-.1-.5-.2-.2-.2.7 0 .9 0 1.3.1.9a7 7 0 0 0 0-1.6zm.3-4.6c0-1.8-.2-1.4-.4.8 0 1 0 1.6.1 1.2a9 9 0 0 0 .3-2zm1.1 4c.1-6.5 0-7.8-.3-8-.6-.2-.1-.5 1-.7.7-.1 1.4 0 2 .2 1 .4 1.3 1.1.3.8l-1.3-.3-.8-.1-.1 5.5A477.1 477.1 0 0 1 45 44c0 .7-.2 1.2-.3 1.2-.2 0-.2-2.8-.2-7.8zm62.6 7.6c0-1 0-26.9.2-27.5.2-1 .4-1 .9-.5.3.4.2 6.7-.3 12-.1 1.5-.3 5.8-.3 9.5 0 3.9 0 6.7-.2 6.7-.1 0-.3 0-.3-.2zm-68.3-7.5c0-8.2 0-9.6.4-9.4.3.2.3 16 0 16.6-.2.2-.3-2.3-.4-7.2zm66.4 2.3-.3-8.5c0-2-.2-3.4-.4-3.4-.4.1-.5-1.3-.6-7 0-4 0-5.4.2-5.6.6-.5.8.4.8 5.3v3c.1-1.5.2-2 .5-2 .4 0 .6 1 .4 1.7v7c.2 13.5.2 14.5-.1 14.6-.2 0-.4-1.6-.5-5zm-64.6-2.7c-.1-6.5 0-7.6.8-7.9.7-.2.8 0 .4.7-.3.4-.4 2.4-.5 7a59 59 0 0 1-.3 6.5 46 46 0 0 1-.4-6.3zm59 5.6v-1c.2-1.5.2-22.8 0-24-.2-1.4 0-2.5.4-2.3.2 0 .4 1.6.4 3.7 0 2 .3 4.2.4 4.8.2.8.2 2.1 0 4.7l-.4 8c-.2 4.6-.4 6.6-.7 6zm-73.1-2.5c0-.4 0-.5.1-.4v.7l-.1-.3zm0-4.6.2-5.7c0-1.7.1-2.7.3-2.7a109.8 109.8 0 0 0 0 7.3c0 2.5-.2 3.9-.4 4-.2.1-.2-.7 0-2.9zm28.7-4.2c0-3.7 0-6.7.4-7 .2-.1.2 1.4.2 4.6 0 5-.5 6.7-.6 2.4zm62.1-1.5a92.4 92.4 0 0 1 .2-10.4s-.4.5-.6 1.2a10 10 0 0 0-.5 3.8c0 2.9-.1 3.5-.7 3.5-.2 0-.3-.3-.2-1.3l.2-3.9c.2-3.3.4-5.1.7-5.1.2 0 .3.2.3.4 0 .5.7.5.9 0 .1-.5.4-.5 2.3-.5s6-.5 6.2-.8h-1.4c-5.2.3-5.6.3-5.8 0-.2-.6 0-.6 3.5-.8a1087.7 1087.7 0 0 0 19-1l.1.4-4 .4c-2 .2-3.9.4-4 .6-.3.2-1.2.3-2 .4-2 0-8.2 1.3-9.5 1.8-1.1.5-1.4.5-1.4 0s-.6-.5-1.6 0c-.6.3-.7.5-.5.7.3.1.3.7 0 2.9a55.4 55.4 0 0 0-.4 7.5c-.2.5-.5.5-.8.2zm-68.5-.7c-.4-.2-.4-.5-.3-.6.2-.2.5-.2.8 0 .4.3.4.5.3.7-.2.2-.5.2-.8 0zm16.8-.8a33 33 0 0 1 0-7.7c.1 0 .3 0 .4.2.2.5-.2 7.8-.4 7.5zm48-1.7c-.2-1.5-.1-10.2.1-10.6.2-.2.8-.3 1.6-.4 1.5 0 1.9.5.5.6-.5 0-1 .2-1.2.4-.3.4-.8 3.6-.7 4.3.2 1.2.4 6.7.2 6.7s-.3-.4-.4-1zm-14.7-2c-.3-.3-.3-7.2 0-7.4.1 0 .3 0 .3.3.2.8-.1 7.3-.3 7zm-46-1.8.3-.9c.2-.5.3-.6.5-.4.2.2.2.4 0 .8-.2.5-.8.8-.8.5zM75 17.7l.1-.3c.2 0 .3.1.3.3l-.1.2s-.2 0-.3-.2zm7.4-.6v-.5c.4-.3 13.5-.2 13.8.1.1.1 0 .3-.2.5-.5.3-13.4.2-13.6-.1zm-12.8-.2c0-.1.1-.3.3-.3l4.5-.3c4.1-.2 5.3-.2 4.8.3-.4.4-9.6.6-9.6.3zm73.8-1.6c.1-.3 1-.4 3.6-.6 1.9 0 4.9-.3 6.7-.4l7.2-.5c2 0 6.4-.3 9.6-.5 4-.3 5.9-.3 6-.1.5.4 0 .5-6.4.8a32589 32589 0 0 0-17.4 1 68.6 68.6 0 0 1-9.3.3zm-64.8-.4c0-.2 1.8-.4 9.2-.5h9.6c1 .6-.5.7-9.4.8-7.7 0-9.4 0-9.4-.3zm80.7 108c0-.2-.2-.4-.3-.3-.1 0-.3.3-.3.5s.2.4.3.4c.1 0 .3-.2.3-.5zM7.8 121c3.8-.6 8-1.1 11-1.4a51.7 51.7 0 0 0 8-1.3l5.7-.9c5.7-.8 9-1.4 10.9-1.9 2.2-.5 9.6-1.8 15-2.6l14-2.5c5.6-1 6.9-1.2 7.6-.8.6.3.8.3 1.2-.1a50 50 0 0 1 10.6-2.5c1-.2 2.1-.6 2.6-.8l1-.4-1.5-.2-4.6-.2c-3.7 0-8.6-.4-12.5-1-3.9-.6-7-.7-10-.5-2.2.2-2.5.2-2.2.6.4.5-.7 1.5-1.5 1.3-.4-.1-.7 0-.8 0 0 .2-.4.4-.6.4-.3 0-.6.2-.7.5-.4.9-2 1.1-3.5.6l-2-.4c-.6 0-1.2 0-1.4-.2-.3-.2-.6-.1-1.2.2-1.2.8-2.6.8-2.8 0-.1-.3-.5-.5-.9-.6l-2-.4c-.6-.2-2.1-.4-3.3-.4-1.2 0-2.4-.3-2.7-.4-.5-.3-.5-.5-.3-2l.2-1.5-4.8.2a87 87 0 0 0-6.8.5c-2 .3-2.1.3-2.2 1v.6h7.5c1.2.3 1.4 1 .4 1.1-.4.1-.5.3-.4.5.2.6-.6.8-1.4.4-.9-.4-8.5-.7-8.5-.3 0 .1.3.4.7.6.4.2.7.6.8 1 .1.7-.6 1.9-1.1 1.9-.4 0-.7.5-.7 1.4 0 .3-.2 1-.5 1.3l-.6.8H25c1.2-.1 1.4-.1 1.4.3 0 .2-.2.5-.5.6a2 2 0 0 0-.9.9c-.2.4-.6.7-1.4.8l-2.5.8c-.8.4-2.2.8-3.3 1a1997.5 1997.5 0 0 1-12.4 1.9c-1.4 0-1.4 0-1.6.8-.2 1.4 0 1.8 1.2 1.7l2.8-.4zm11-2.7c0-.1.4-.2 1-.2.5 0 .8 0 .7.2-.1.2-.5.3-1 .3-.4 0-.7-.1-.7-.3zm6-.7c-.4-.2-.5-.3-.3-.4.5-.3 3.5 0 3.7.4.1.2-2.4.2-3.3 0zm4.4-1.6a10 10 0 0 1-3.3-.3c0-.3 5.5-.4 6.9-.1.8.1.9.7 0 .5h-3.6zm7.8-1.7a1311.3 1311.3 0 0 1-5.7-.4c.2-.2 10.4-.1 11.7.1 1.3.2 1.1.6-.2.6l-5.8-.3zm7.2-1c-.4 0-.8-.2-.8-.3-.1-.1-2.3-.3-4.9-.4-2.6-.1-4.7-.3-4.8-.4-.2-.3 1.8-.3 7.4 0 3.2 0 4.1.2 4.1.5 0 .2.6.3 2.1.3 1.3 0 2.2.1 2.2.3 0 .3-4 .3-5.3 0zm-1-1.4c-4.1-.5-2.3-.8 3.7-.6h4.8l-1.3-.4a30 30 0 0 1 7.4 0c2 .2 1.3.6-1.3.5-3.2 0-3.3 0-3.3.4.1.4-6.6.4-10 0zm16.8-1.5c-1.5-.3-.3-.6 2.2-.5 1.2 0 2.2.2 2.2.4 0 .3-3 .4-4.4.1zm118.8 9.3c0-.7-.1-1.1-.4-1.2a.7.7 0 0 1-.3-.6c0-.2-.2-.4-.4-.4s-.4-.3-.5-.8c-.2-.5-.3-.8-.7-.8-1 0-1-.6 0-3.2.5-1.6.7-2.5.5-2.6-.3-.2 0-1.3 1-3.5.3-1 .3-1.6-.2-1-.3.2-1.8 4.3-2.6 7.1-.3.9-1 1.4-1.4 1-.3-.3-.1-.9.5-2.5.5-1.1.8-2.1.8-2.3 0-.4-.9.6-1.4 1.7-.5 1.1-1.5 1.8-1.5 1.1l2.3-4.8c1.2-2.5 2.3-5 2.4-5.6 0-1 0-1-.2-.4a105.4 105.4 0 0 1-5.6 10c-.7 0-.5-.7.7-2.9 1.5-2.6 3.4-6.4 3.2-6.5 0-.1-.2 0-.4.4-.1.3-.4.5-.7.5-.4 0-1.6 2.2-2.7 5-.7 1.6-1.4 2-1.6 1 0-.4.4-1.7 1-2.9.8-1.6 1-2.3.7-2.3-.4 0-1.2 1.3-1.2 2 0 .3-.5.7-1 .7s-.3-.7.4-1.7l.6-1h-.9c-.7 0-1 .2-1 .7-.1.4-.4.7-.6.7-.5 0-.5-.2 0-2.2l1.4-3.9 1-3.3c0-.3-1 1.8-2 4.6-.5 1.5-.7 1.9-1.2 1.9-.6 0-.5-.7.8-3.8l2.2-5.9c1-3.4 1.1-3.7 1.8-3.8.4 0 .4 0 .3.7-.2.7-.1.8.2.7.3-.1.5 0 .7.2.3.5.4.3.6-1l.2-1.2h-1.4l-1.4.2-.8 2.3c-1.5 4.2-3.2 7.7-3.8 7.8-.8.1-.7-.3.4-2.5 1-2.2 2.5-6 2.6-6.8 0-1.3-.5-.6-1 1.3l-1 2.3-.8 2c-.3.8-.8 1.8-1.1 2-.3.4-.5.8-.4.9l.6 3.4c.5 4 1.7 7.5 3 9.3 1.4 1.9 7.3 8.6 8.7 10l1.4 1 .2-1.1zm-15.7.1v.7-.7zm-31.4-1.7c0-.7.2-1.4.3-1.4.2 0 .4-1 .4-2a8 8 0 0 0-.4-3.6l-.6-1.4a112.3 112.3 0 0 0 0 9.7c.2 0 .3-.4.3-1.3zm-7.1 0c0-.5-.1-.8-.2-.7-.2.1-.1 1.5.1 1.5l.1-.9zm15.7-1.3c0-1.6 0-1.7-.5-1.7-1 0-1 .7-.4 2.3.7 1.7.7 1.7.9-.6zm-133.7.4c1.5-.2 1.9-.4 1.9-.8 0-.3.1-.5.4-.5.2 0 1-.5 1.6-1.1 1.2-1.3 1.7-1.5 1.7-.8 0 .2 0 .3.2.2.2 0 .3-.4.3-.6 0-.9.5-.9 1.4-.2.5.4 1 .7 1.2.6.3-.2.7.3.5.5l-1.3.4c-1.3.2-3.8 1-4 1.4-.4.3 1.3.2 3-.2 3.5-1 4.3-1.4 6.5-3.5 1.2-1.1 2.2-2 2.5-2 .2 0 .4-.2.5-.5 0-.2-.1-.3-.7-.1l-2.3.4-3.3.6C15 111.3 8 112 5 112c-.7 0-1.2.1-1.2.3L4 114c0 1.2 0 1.2.8 1 .7-.1.8 0 .8.3 0 .4-1 1-1.5.7-.2 0-.3.1-.3.5 0 1.2.1 1.2 2.9.7zm-.8-2.5.4-.9c.3-.6.6-.8 1.3-.8h1.1c.2 0 .3.1.3.4.2.7-.6 1.2-1.4 1-.4 0-.6 0-.6.2s-.3.3-.6.3-.5 0-.5-.2zm119.7 2.4-.1-.5c-.2 0-.3 0-.3.4 0 .6.2.7.4.1zm4.9-5c-.2-5.3-.2-5.6-1-7.4-1-2.6-1.2-2.7-1-.5.1 1 .3 3.9.3 6.5l.4 5.2.2.7v-3.3c.1-2.6.6-1.7.6 1 0 2 .2 3.2.5 3.2V112zm26.7 4.3c-.1-.2-.2-.1-.2.2 0 .3 0 .4.1.3v-.5zm21.4-.3c0-.1-.2 0-.3.3-.1.4-.1.4.1.1.2-.1.3-.4.2-.4zm-53.7-9.2a79 79 0 0 0-.2-5.5l-.3-6.3c0-3-.3-4.4-.6-2.8-.3 1.7-.4 8.3-.2 10.3.2 1.2.4 4 .4 6.4l.4 5.9c.2 1.6.2 1.5.3-1.9l.2-6zm36.3 7.9c-.2-.2-.2-.1-.2.3 0 .7.3 1 .4.4 0-.2 0-.5-.2-.7zm-24.4-.4c-.2-.8-4.2-8.3-4.3-8.2a36 36 0 0 0 3.1 7c.8 1.6 1.5 2.3 1.2 1.2zm1.4-1.6c.1-5.6 0-15.4-.1-20-.2-5.1-.3-5.6-.8-6-1.1-1-1.2-.7-1.2 2.7 0 3.6.4 6 .5 3.6 0-.8.2-1.7.3-2a268.6 268.6 0 0 0 .4 13.6c.2 5.2.2 5.3-.4 5.8l-.5.5.8 1.5.9 1.6v-1.3zm18.5 0c0-1-.4-4-.7-4.8 0-.2-.2-.3-.3-.1-.2.2-.1.7.1 1.6.3.8.4 1.8.3 2.5v1.4c.4.4.6.1.6-.7zm21.7-.1c.4-.5.5-1.3.5-2.2 0-1.6-.3-1.3-.8.9-.7 2.4-.6 2.8.3 1.3zm-37.7-6.5c-.3-.4-.4.4-.4 2.7 0 4 0 4.4.3.7V106zm17.9 4.2c0-.3-.8-2.2-1-2-.2.2.3 2.3.6 2.3.2 0 .4-.2.4-.3zm-3.7-1c0-.2-.1-.3-.3-.3-.1 0-.2.1 0 .4l.2.4v-.4zm-144.5 0c.8-.2 3.7-.4 6.5-.4 4.8-.1 5-.1 6.6-.8 1-.5 1.5-.8 1.3-1a154.7 154.7 0 0 0-21 .2c0 .2.7.3 2 .3 2 0 2.2.1 2.7.7.4.3.6.8.5 1-.3.3-.3.3 1.4 0zm150.1 0c.1-.1-.1-.6-.5-1-.5-.6-.6-.6-.5-.3l.3 1c.2.5.5.6.7.3zm-24.6-1.8c-.2-.8-.3-2.1 0-4.7 0-2.6 0-4.7-.2-8.1l-.6-7.3c0-2-.2-2.7-.5-3-.3-.4-.6-.5-.7-.4-.1.1 0 4.2.1 9 .2 6.7.2 9 0 9.2-.3.3-.3 0-.4-2.9-.2-5.2-.8-15.2-1-16-.2-1 0-1.2.6-.6.2.2.5.3.6.1.2-.2-2.2-2.3-3.2-2.8-.3-.1-.7-.1-.8 0l-.3 6.4c0 5.6-.3 7.5-.7 6.4 0-.2-.2-3.5-.2-7.2v-6.9l-.7-.4-.6-.4v5.6c.2 4 .1 5.7-.1 5.8a34 34 0 0 1-.6-9.2c0-1.9-.1-3.5-.3-3.5-.4-.3-.5.9-.6 5.9v4.9l2 4.8A102.4 102.4 0 0 0 133 104l1.2 2.8c.9 1.8 1.3 2.4 1.5 2.2.2-.2.2-.6 0-1.5zM131 96.1a539 539 0 0 0-.4-6.2c-.4-5-.4-9 .1-9 .3 0 .4.6.5 2.5.1 1.3.2 2.6.1 2.8l.2 6.6v6.1c-.2 0-.4-1.2-.5-2.8zm23 8.7a29 29 0 0 0-1.2-7.4c-.3-.7-.3 2 0 4l.4 2.8c.3 2.8.8 3.2.9.6zM11 104.6c.7-.6.8-.6 4-.5 3.6.2 7.5-.2 9-.8 1-.5 1-.5.4-.7-.3-.2-2.2-.3-4.2-.3H4.9l-1.2.1-.2 1.2v1.4c.2.2 1.4.3 3.4.3 3 0 3.2 0 4-.7zm-3.4-.2c-.3-.5.4-.8 1.5-.8 1.2.1 2 .5 1.3.7-1 .3-2.7.4-2.8.1zm49.4 0c0-.7.5-1 1.6-1.2 1-.2 1.1-.3 1-.7-.1-1.4 0-1.3-3.7-1.4-2 0-4.1 0-4.8-.2-1-.1-1.3 0-1.6.3-.7.7-.6 1.3.4 1.8.9.4 1 .4 1.6 0 1.3-.8 3.5-.2 4 1.3.2.5 1.5.6 1.5.1zm-3-.4h-.5c-.2.1-.2.2.1.2.3 0 .5 0 .4-.2zm-5.5-.3c0-.2-.1-.3-.3-.4L48 102c0-.8.2-1.3.7-1.8.3-.4.7-1 .8-1.5.1-.9 0-1-.9-1.2-1.5-.4-5.6-.4-5.8 0l-.2 3.2c-.2 2.4-.1 2.9.2 2.9.2 0 .5-.2.6-.5.3-.4.4-.4 1.6.1 1.3.6 3.5.8 3.5.4zm-4.1-1.9v-.8c-.2 0-.4-.5-.5-1l-.2-.8h1.2c1 0 1.3 0 1.5.6.1.3.5.7.8.8.7.2.4.7-.4.7-.5 0-.6.1-.5.4.1.3 0 .4-.8.4-.5 0-1-.1-1.1-.3zm95.6-13c.4-.4 0-1-.7-1-.4 0-.5.3-.6 1-.1.8.4 12 .6 13.7l.2-6.4c.1-5 .2-7 .5-7.3zm31 13c0-.4-.1-.3-.5.5-.3.7-.3.7.1.2l.4-.8zm7 .2v.5-.5zm-67.1-.9c-.1-.3-.2-.1-.2.3 0 .5 0 .7.2.5v-.8zM8.5 99.5c0-1.6.3-2.7.6-2l.2.9c.3.9.3-3.8 0-5.8-.2-1.2-.2-1.2-.5 1.1-.2 1.4-.6 3-.8 3.6-.4 1.2-.5 3.5-.2 3.8.4.4.7-.2.7-1.6zM11 101c.7-.2.7-.3.5-2.2l-.5-6c-.3-2.6-.4-5.8-.4-8.6.1-6 0-8.8-.3-8.3-.7 1.3-.9 11.8-.2 18.7.3 3.3.1 4.9-.4 4.8-.2 0-.3.2-.3.6.2 1.4.4 1.5 1.6 1zm3.1.1c.4-.1.6-.9.3-1.2-.1-.1-.3-1.4-.3-3-.1-4.7-.6-12.4-.9-13.3a4133.5 4133.5 0 0 0 0 17.7l1-.2zm3.3-9c0-5.8 0-9 .2-9 .1-.1.3.2.3.8 0 .5.2 1 .3 1 .2 0 .2 1.1.2 2.6 0 1.4 0 3.7.2 5.2V95c-.3-.1-.4.6-.4 2.4 0 3 .2 3.5.9 3.5.4 0 .5-.2.5-1.4a327.2 327.2 0 0 1-.1-26.9c.2-6.8.2-13.3.1-14.4-.1-1.4 0-21.4.2-23.3a110.8 110.8 0 0 0-.6-14.6c-.5-.1-.6 1-.1 1.5.4.4.5 3.4 0 10.2l-.6 13.7c0 4.5-.3 8.3-.5 8.4a183.3 183.3 0 0 1 .2-23.7c.1-2 .1-2.9-.1-3-.2 0-.3-1-.2-3.3.1-2.1 0-3.1-.1-3a6 6 0 0 0-.5 2.2 179 179 0 0 1-.5 5c-.5 4.3-.8 7.7-.5 8.1.2.4.6-.4.6-1.4 0-.4.1-.7.3-.7.3 0 .3 0-.1 4-.3 1.8-.5 3.9-.5 4.6 0 .6-.2 1.3-.4 1.4-.2.2-.3.9-.3 1.6 0 .7-.2 1.4-.3 1.5a137.7 137.7 0 0 1 1-24.7c0-2 0-2.3-.3-1.9-.8 1-1.4 8.2-1.6 20.9-.2 7-.3 8.6-.6 8.9-.3.2-.4 1-.4 3.3 0 3-.3 4-.6 2.1l-.1-3.8c0-2.3 0-3 .5-4 .3-.7.5-1.5.5-1.8-.1-.6-.2-.5-1 .5l-1 1.2-.1 5.5c-.1 5-.3 6.1-.7 5.7l-.3-5c0-2.8-.2-5-.4-5-.6 0-.8 1.3-.6 7 .1 5.2.1 5.8-.2 5-.3-.4-.5-2.2-.6-4.2-.2-2-.4-3.4-.6-3.5-.4-.1-.5 1.5-.4 5.3.1 2.2 0 3.4-.1 3.4-.4 0-.6-1.3-.8-6.7-.1-3.9-.2-5-.5-5s-.4 1.1-.4 5.5c0 3.3 0 5.4-.2 5.4-.6 0-.9-2.3-.8-6.2.1-3.8 0-4.7-.4-3.7-.2.5-.8 14.7-.6 14.8a66 66 0 0 0 11.1-.3c.7-.4 1.5-.6 1.8-.6.8 0 1.6.8 1.7 2 .2 1 .1 1.1-.7 1.9-1.2 1-2 3-2.2 5.5-.2 3 .4 23.8.8 25.3.5 2 .7.2.6-8.2zM9.8 64c0-.7.1-1 .2-.6v1.2c-.1.3-.2 0-.2-.6zm11.7 35.7.2-13.1.2-16c.4-5.8.5-10.7.4-13.9-.2-2.5-.2-2.8-.5-2.4-.3.5-.4 0-.4-2.8 0-1.9 0-3.4-.2-3.4a38 38 0 0 0-.5 10c0 3.3-.2 7.3-.3 9-.2 1.5-.3 6-.4 9.8 0 3.8-.1 7-.2 7.1-.1 0-.2 2.3-.2 5 0 4 0 4.8.4 5 .3.1.4.7.4 3.2l.1 3.4c.3.8.8.3 1-1zm0-43.5c0-.5 0-.6.1-.3v.7l-.1-.4zM172.7 99c.5-1 1-2.4 1-3.6l.6-2.2.4-1.5.2-1.2-.5.6c-.7 1-1.4 3-1.5 4.8-.1.8-.5 2.2-1 3.1-.9 2-.8 2-.3 1.8.2-.1.7-1 1.1-1.8zm3.3 0 .3-1.8c.1-.4 0-.2-.3.4-.3.6-.6 1.6-.7 2.3-.2 1-.2 1.1.2.6.2-.3.4-1 .5-1.6zm-5.6.3a5 5 0 0 0 .8-2.5v-1l-.7 1.7c-.8 2-1.2 3.2-1 3.2l.9-1.4zm-165-9.5c-.2-.4-.3-1.6-.4-3 0-2.5-.2-3-.3-.7 0 2.6 0 4 .4 4.3.2.1.3 1.4.2 3.8 0 2 0 4 .2 4.2 0 .3.2-1.3.2-3.7.1-3.2 0-4.3-.3-4.9zm173.1 8.4c0-.2-.2-.1-.2.2 0 .3 0 .4.2.3v-.5zM66.4 94l-.2-6c-.2-1.8-.2-1.8-.3 1.4-.2 4 0 9.1.3 9 0-.2.2-2 .2-4.4zm-61.7.5c0-1 0-1.8-.2-1.8-.3 0-.4 2.6-.1 3.2.3.8.3.5.3-1.4zm167 .4-.3.1-.2.7.2-.1c.2-.2.3-.5.3-.7zM7 93.6c.2-2.4.2-2.6-.3-2.5-.3.2-.4.7-.4 2.1 0 1.1.1 2 .3 2 0 0 .3-.7.4-1.6zm146.9-.2c-.2-1.6-.9-4-1.3-4.4-.1-.1-.2.6-.2 1.8 0 1.6 0 2 .4 2s.6.6.6 1.6c0 .6.1.8.3.7.2-.2.3-.7.2-1.7zM126.2 92c-.3-.6-.5-1-.5-.7 0 .7.8 2.5 1 2.1l-.5-1.4zm38.6.4c.3-.7.8-2.2 1-3.2l.6-2.5c.4-.6.3-1-.1-1-.5 0-.7.6-.7 2 0 1.7-.5 3.1-1.1 3.2-.5.1-.5 0-.4-.7l.4-3c.1-2 .1-2.1-.4-2-.3 0-.5.4-.6 1 0 1.1-.6 1.8-1 1.5-.3-.2-.3-.7-.2-1.7 0-1 0-1.5-.3-1.8-.6-.6-.8-.5-1.1.5-.4 1.2-.4 1.3.6 2.5.6.7 1.1 1.8 1.7 3.7l1 2.7.6-1.2zm-157-1.2v1-1zm165 .4c0-.1-.2 0-.3.2l-.3.6c0 .2.2.1.3-.1l.3-.7zM151 88.7c-.1-2.3-.2-2.5-.5-2-.2.3-.5.5-.7.4-.5-.2-.5.1-.2 1l.7 2.2c.2.8.5 1.4.6 1.3.1-.1.2-1.4 0-2.9zM9.2 87.1c0-1.6 0-3-.2-3-.3 0-1.2 2.8-1.4 4.2-.2.9-.1 1 .7 1.4l.9.4v-3zm165.9 2.5c-.1-.2-.2-.1-.2.2 0 .2 0 .4.1.3v-.5zM4 88.3c.2 0 .2-1.3.1-4.7-.3-6.8-.5-7.7-.8-2.7-.2 5.7-.2 9.4.2 8.3 0-.5.3-.9.5-.9zm120.9.5-1.3-3.1c-.6-1.4-.8-.3-.2 1.1l.7 1.7c.2.6.8.8.8.3zm18.4-4.9c.1-.9 0-1.4-.1-1.4-.2 0-.4.7-.5 1.7 0 .9-.2 2-.3 2.3 0 .5 0 .4.3-.3.2-.5.5-1.5.6-2.3zm3.3 2.5c0-.5 0-.5-.3-.2-.3.5-.3.8 0 .8.1 0 .3-.3.3-.6zm3.5-1.7c.2-.3 0-.3-.5-.3-.7 0-.8.1-.5 1.6l.2.9.2-1 .6-1.2zm-8.6-.3c0-1.1 0-1.6-.2-1.6s-.3.3-.3.6 0 1.2-.2 2c0 1 0 1.1.2.9.2-.2.4-1 .5-2zm-1.6-.6v-1.5c-.4.3-1 3.4-.8 3.7.3.5.6-.4.8-2.2zm32.5 1.6c-.2-.2-.3-.2-.5 0-.1.1-.2.4 0 .5 0 .3.2.3.4 0 .1 0 .2-.3 0-.5zm-27.4-.6h-.3l-.2.7c0 .6 0 .6.2 0l.3-.7zM7.4 83.6c.4-1.5.3-2.2-.3-2.2-.4 0-.5.2-.5 1.8 0 1.9.3 2 .8.4zM66 82.3c-.3-.3-.4.2-.2 1.4L66 85v-1.3a4 4 0 0 0 0-1.4zm72.2 1c.5-2 .5-1.9 0-1.9-.3 0-.4.3-.8 2.5-.2 1.6.3 1.1.8-.6zM125 76.2h-.5c-.3.2-.4.7-.5 2.4 0 3 0 4.7.4 5.5.3.5.3-.1.5-3.6v-4.3zm32 8c.1-.1-.2-.5-.7-.8-.8-.4-.8-.4-.7 0l.2.9c0 .4 1.1.4 1.3 0zm13.3-1.3c.2-1.4-1.4-7.3-2-7.3-.1 0-.3-.2-.4-.5-.1-.6-.7-.7-.7-.2 0 .7-.7 1.1-1.5.8-1-.5-1-.3-.3.5.3.4.8 1.3 1 2l1 2c.2.4.3 1 .3 1.4 0 .4.1.6.3.5.2-.1.3-.7.1-1.7-.2-2-.6-3.2-1-3.2-.3 0-.4-.2-.4-.5.1-.4 1.2-.5 1.6 0 .5.4 1 3.4 1.1 5.6 0 2 .1 2.3.4 1.9l.5-1.3zm-10.3.5c-.2-.4-1-.5-1-.1 0 .3.9.8 1 .7v-.6zm15.4-2c0-1.1-.2-2-.5-2.7-.4-1-.5-1-.3-.3l.1 3.3c0 2 .1 2.3.4 2 .2-.3.3-1.3.3-2.2zm-170-1.3.5-3.5c.2-1.8.9-3.6 1.6-4.1.4-.4.6-2 .2-1.8l-.2.8c0 .9-.3 1.2-.6.7-.1-.2-.4-.3-.7-.2-.3.1-.4 0-.6-.5l-.1-.6-.6.9-.6.8.3 5.7c.1 3.1.3 5.2.4 4.7l.4-2.9zm131.1 3.2c0-.2-.1-.2-.3-.1l-.2.4c0 .1.1.2.2.1.2 0 .3-.3.3-.4zm35.7-.5c0-1.5-1.3-6.6-1.7-7-.8-.8-.9-.4-.4 1 .7 1.5 1.6 5.4 1.6 6.4 0 .3.1.6.3.6l.2-1zm-23-.2-.2-.6c-.2 0-.5-.3-.9-.7-.6-.6-1.3-.9-1.3-.4 0 .6 1.9 2.7 2.2 2.5l.2-.8zM166 81c0-.8-.2-1.7-.8-3l-.9-2c0-.2-.1-.3-.4-.3-.5 0-.5.1-.3.7a16.1 16.1 0 0 1 1.2 7c.3.7 1.2-1 1.2-2.4zm-152.7-.1c0-1 0-1-.2-.4-.2.4-.3 1-.3 1.4 0 .6 0 .7.3.4l.2-1.4zm143.8 1c-.2-.3-.4-.4-.5-.3-.3.3.4 1 .7.8.2 0 .1-.3-.2-.5zm-151-1c0-.1-.2 0-.2.4 0 .3.1.5.2.3V81zm129.7-.5v-1.1c0-.4-.5 1-.5 1.7 0 1 .5.3.5-.6zm14.6.6c.3-.6 0-1.3-.7-1.3-.5 0-.6.9-.2 1.4.5.6.5.6.9-.1zm23-2c-.6-2.8-1-4-1.3-4-.4-.1-.4.2.2 2l.7 2.8c.4 1.4.5 1.7.6 1.1 0-.4 0-1.3-.2-2zm-13 0c-.2-1.5-.4-2.2-.9-2.8-.4-.4-.6-1-.5-1.1.1-.3-.5-.4-3.4-.3-5 0-5.6.5-2.9 2.1 1.4.8 1.7 1.1 2 2 .2 1 .3 1 .4.6v-2c0-1-.1-1.3-.5-1.4-.5-.2-.7-.8-.3-1 .3-.2 1.3.3 1.6.9.2.3.3 1.4.3 2.4 0 1.6 0 1.8.5 2 1.2.3 1.4-.6.7-2.6l-.8-1.6c-.6-.4-.5-.7.1-.7.8 0 1.5 1.2 2 3.3.4 1.6.6 2 1 2.2l.7.1v-2zm3.2 1.4c0-.9-.6-3-1-3.9-.2-.3-.6-.5-.9-.5-.5 0-.5.1-.3 2.3 0 1.3.3 2.4.4 2.6.2.2.2-.2.2-1 0-.9 0-1.4.2-1.5.4 0 .9 1 .9 2.1 0 .4 0 .8.2.8s.3-.4.3-.9zM9.3 78.7l.4-2.8c0-.6 0-1.1-.3-1.5-.4-.5-.4-.3-.4 2.3L8.8 80l.1.6c.2 0 .3-1 .4-2zm-1 1c.2-.6 0-4.5-.2-4.8-.3-.3-.7.3-.7 1.2 0 .5-.1 1.5-.3 2.1-.2.8-.2 1.3 0 1.7.4.7 1 .6 1.2-.1zm60.5-4c0-.4 0-.8-.2-.9a18 18 0 0 0-.4 5.5c.2.1.4-1.9.6-4.5zm52.4 3.3c-.5-1-.6-.8-.3.5.2.6.4.9.5.7 0-.2 0-.7-.2-1.2zm20.7.1.1-1.2c-.1-.2-2 .4-2 .6 0 .2.2.3.5.4.3 0 .5.3.5.8 0 1.1.6.7 1-.6zm1.5-.2c0-1 0-1-.3-.4-.3 1-.3 1.7 0 1.5.2-.1.3-.6.3-1.1zm-10.2.5c.3-.9.3-3.8.1-4l-.2.4-.5 2c-.4 1-.4 1.6-.2 1.8.4.4.6.3.8-.2zM13.7 76.7c.1-1.1.2-2.6 0-3.3a6 6 0 0 1 .1-2c.2-.5.1-1 0-1.3-.3-.4-.2-.6 0-1 .3-.1.5-.5.5-.7 0-.4-.4-.4-2.5-.4a18 18 0 0 1-3.4-.3c-1-.3-4 0-4.1.4 0 .2.3.3 1 .3l1-.1v1.2c.1 1 .1 1 .2.4.2-1 .6-1.4 1.3-1.4.3 0 .7.1.7.3.1.2.3.2.5-.1.4-.5.4-.5 1.4 0 .8.5 1.1.5 1.4.3.5-.4.9 0 .9.7 0 .6-.7 1-.9.3v1.8c-.1 1.5 0 2.3.4 3 .2.5.5 1.8.6 2.8.3 2.1.5 1.9.9-1zm109.6 1.8c0-.9-.7-2-1-1.8a134.5 134.5 0 0 1 .5 2.3c.3.6.5.3.5-.5zm21.5 0c.3-1.4.2-2.4-.2-2.3-.2 0-.3.7-.3 1.6 0 1.7.3 2 .5.7zm1.8-2.2c.1-.1.4 0 .7.4.7.7 1 .6.7-.4-.1-.6-.3-.7-.7-.5-.3.1-.9.2-1.2.1-.5 0-.5 0-.3.7l.3 1.5c0 .6 0 .5.2-.4 0-.7.2-1.3.3-1.4zm-15.1 1.3c.4-1.3.5-4.9.2-4.9s-.3.6-.3 2c.1 1.8 0 2-.6 2.7-.7.6-.7 1.1 0 1.1.2 0 .5-.4.7-.9zm-11-.3c0-.2-.2-.4-.3-.3v.6c.2.2.3.4.4.3v-.6zm9.9-2.6c.2-2.2.2-2.2-.4-2.2-.4 0-.5.1-.6 1-.2 2.5-.1 3.3 0 3.8.3.5.3.5.5.1.2-.2.4-1.5.5-2.7zm45.8 2.4c0-.7-.3-1.2-.8-1.2s-.5 0-.1.8.9 1 .9.4zm3.2-.7c0-.7-.2-1.4-.3-1.6-.2-.3-.2 0-.3 1.2 0 .8.2 1.5.3 1.5.2 0 .3-.5.3-1.1zm-1.8-.8c-.2-1.6-.2-1.8-.7-1.4-.2.3-.2.5 0 1l.4 1.2c0 .3 0 .5.2.5s.2-.4.1-1.3zm-42.6-1-.2-.6-.1.6c0 .3 0 .5.2.5.1 0 .2-.2.1-.5zm41-.9c.2-.3.5-.8.5-1.1 0-.3.2-.8.5-1 .5-.5.5-.6.1-1.3a3 3 0 0 0-.5-.8l-.9 1.4c-.4.7-1 1.3-1 1.3-.4 0-.4-.5 0-.7l.2-.4-.8.2-.8.5.4.9c.5.8.5.8-.1 1.4-.6.4-.6.5-.3.7.5.3 2.1-.3 2.7-1.1zm-31 .4c0-.7-.7-1.4-1.3-1.4l-1.3-.4c-.3-.3-.7-.4-.8-.3-.3.3.7 1.2 1.7 1.6.5.1.9.4.9.6 0 .2.2.4.4.4s.4-.2.4-.5zM120 74c0-.8.4-1 1.4-.8.9.2 1 .2 1.1-.2.1-.3.4-.5.7-.5.3 0 .8-.2 1-.4.4-.2.6-.2.9 0 .2.2.8.4 1.3.4.6 0 1.2.1 1.4.3.2.4.3.4.8 0 .3-.2.4-.4.4-.5l-2.2-.6c-2.7-.8-6.1-.6-6.9.3l-.4.6-.7-.8-.6-.7v1c0 1.1 0 1.1.8 1 .8-.2.8-.2.6.5l.1.7c.2 0 .3-.1.3-.3zm43.8-1.5-.7-2.4a22 22 0 0 1-1.5-5.8c0-.7-.2-.8-.6-.8-.2 0-.7-.4-1-.8l-.6-.7v1c0 2.5 1.4 6.3 3.1 8.7 1 1.4 1.1 1.8.4 1.8-.8 0-3.2-3.9-4-6.6-.5-1.4-.5-1.4-.5-.5 0 1.4 1 4.7 1.5 5.4.6.6.8 1.4.3 1.4-.2 0-.3.1-.1.3.3.3 2.9.5 3.5.3.3 0 .3-.4.2-1.3zm7.3 1.3c.8-.5.6-.8-.3-.5-.4.1-.8.4-.8.5 0 .3.5.3 1 0zm-54.3-.6c0-.1 0-.2-.2-.2s-.3.1-.3.2c0 .2.1.3.3.3.1 0 .2-.1.2-.3zm30.5 0c.6-.1.7-.4.7-1.4 0-1-.1-1.2-.6-1.6-.5-.3-.7-.7-.7-1.2 0-1-.5-2.4-1.2-3.1-.4-.4-.6-.8-.5-1.2l-.5-2.5c-.8-2.2-1-5.4-.3-5.4.4 0 1.4-1.1 2-2.3.2-.5.2-.6 0-.6-.3 0-.7.5-1 1-.2.6-.7 1.3-1 1.6-.5.3-1.1 1-1.5 1.6-.7 1-.8 1.2-.5 2 .2.5.2.9 0 1.1-.2.3 0 1.8.3 2.6.2.2.6 1.6 1 3 .6 2.8 1.6 5.2 2.5 6.1.6.7.5.7 1.3.4zm11.6-1a18.4 18.4 0 0 1-.9-13.7c.2-.4.4-.4.7-.1.5.4.9 0 1.5-2l.7-2c.3-.9-.3-.5-1 .6-.5 1-1.3 1.4-1.3.7 0-.2.6-1.3 1.4-2.4a23 23 0 0 0 1.4-2.6c.1-.3.4-.5.6-.4.5 0 .5.6.2 1.7-.2.7-.2.7.6.3.7-.4.8-.4 1.2 0 .4.4 1 .2 1.9-.7.5-.6.5-.6-.7-2-.6-.6-1-.4-.8.5.2 1-.7.8-1.4-.5a16 16 0 0 0-3.7-4.8l-1-.5-.7.8c-.5.4-.8.9-.8 1 0 .7.6.5 1.3-.4.4-.5.8-.7.9-.6.3.5-.5 1.5-1.6 2.3a11 11 0 0 0-3.8 6.9l-.2 1.2c-.4.6-1.1.1-1.1-.7 0-1.3 1-4.3 2-5.8.5-.8.9-1.8.9-2.2 0-.4.1-.9.3-1 .3-.2 0-.6-.5-.6-.2 0-.3.2-.3.5 0 .7-3 3.5-3.3 3.2-.2-.2-.7.5-1.3 1.8l-1.7 3c-.3.4-.5 1-.4 1.2 0 .2 0 .8-.3 1.5-.6 1.5-1.3 7-1 7.8.1.7.1.6.3-.4.3-1.4 1-3 1.3-3a35 35 0 0 0 0 8.9c.2.6.2.4.2-1.5 0-2 1-7.4 1.3-8 .2-.3.9-.2.9 0l-.4 2.2c-.6 3.2-1 6.7-.6 7.3.3.4.4-.1.6-2.7.4-3.7 1.3-7.5 1.9-7.5.5 0 .5 1 0 2.9-.6 2-1 6.6-.7 7.6.2.5.2.2.2-1.5 0-3.3 1.1-8.2 1.8-8.2.5 0 .5.7 0 3.3-1 5-.4 9.6 1 9.6.4 0 .4-.1 0-.6-1.4-1.8-.7-12.4.8-13.2l.6-.3.7-2.4c.7-2.6.5-2.7-.4-.2-.4 1.2-.7 1.7-1 1.6-.3 0-.4-.3-.4-.8s0-.7-.4-.8c-.7-.2-.7-1 .4-3.2 1.6-3.6 4-7 4.9-7 .3 0 .3.7 0 .9-.2 0-.3.4-.3.7 0 .3-.3 1-.7 1.3-.4.4-.6.8-.4.8l1.1-1.1c1-1.2 1.4-1.1 1.8.3 0 .6 0 1-.5 1.6a20 20 0 0 0-3.2 7.2l-.6 2c-.6 1.7-.8 7.2-.4 9.3.3 1.3.6 1.7 1.3 2.3.5.4.8.8.8 1.3 0 .4.2.6.6.6.4 0 .4 0-.3-1.3zm-9-14.6c0-.5.5-1.2.6-1 .2.2 0 1.3-.4 1.3l-.2-.3zm-12.8 15.2c0-.3 0-1.6-.2-3a119.9 119.9 0 0 1-.5-2.8c-.1.1-.2 1.5-.2 3.2 0 2.4 0 3 .3 3 .2 0 .5-.2.6-.4zm20.2.3-.6-.8c-.8-.7-1.5-3-1.5-5 0-.9 0-1.5-.2-1.4l-.1 2.7c0 2 .2 2.5.8 3.5.4.6.9 1.1 1.1 1.1l.5-.1zm12.7-.8c1.7-.7 4-2 4-2.3v-.7c.1-.7 1-.7 1.3 0l.2.6.3-.6c.4-.7.4-1.6 0-2.4l-.4-.6-.5.7a8.3 8.3 0 0 1-3 3l-2.2 1.3c-.6.3-1.8.2-1.8-.2l2-1.3c2.2-1.2 3.4-2.1 4.5-3.8.5-.7.6-1 .4-1.3-.2-.2-.3 0-.6.4-.2.4-.4.7-.6.7l-1.6 1.3c-1.4 1.3-4.4 2.9-4.9 2.6-.5-.3-.3-.6 1.4-1.5a8 8 0 0 0 3.3-2.5c.9-1.1.7-1.4-.3-.5-1.2 1.2-3.3 2.5-4 2.5-1 0-.8-.4.8-1.3 2.3-1.3 3.8-3.2 3.8-4.6 0-.4.2-.8.5-1 .3 0 .3 0 0-.3l-.6-.2-.5 1.1c-1.1 2.2-5.3 5.7-6.4 5.4-.7 0-.6-.8 0-1a12 12 0 0 0 3.8-2.7c1-1 2.3-3.3 2-3.3-.2 0-1 .6-1.8 1.5-2.3 2.2-3.8 3.2-4.8 3.2-.6 0-.9-.1-.9-.4 0-.2.2-.4.5-.4 1.4 0 6.7-5 6.6-6.4 0-.6-1.4-2.1-1.8-2-.4.4-.3.7.2.7.7 0 1 .4.7 1.4-.2 1-3 3.9-4.8 5-1 .5-1.2.6-1.6.2-.5-.6-.2-1.3.6-1.3.4 0 1.2-.5 2.2-1.3 1.8-1.5 2.4-2.3 2.4-3.2 0-.5-.1-.4-1.2.7-1.7 1.7-3.8 3.3-4.3 3.3-.8-.2-.6-.8.5-1.5 1.8-1 3.3-2.6 3.8-3.8.5-1 .5-1.1 0-1.5-.8-.6-1.7-.7-2.6-.4-.5.2-.9.2-1 0-.5-.3-1.5.8-2 2.5-.6 1.7-.7 2.3-.3 2.3a34.2 34.2 0 0 0 4.1 10.3c.2 0 .4.4.5.8.3.9.9 2.2 1.4 2.8.5.5 1.2.5 2.7 0zm-6.9-16c.3-.5 3-2.4 3.4-2.4.7 0 .2.8-1.1 1.8-1.6 1.2-2.8 1.5-2.3.7zm-28 15.6c.1-4.8.3-7.8.4-8a12 12 0 0 0-.7-3.7c-.2-.2-.5 11.4-.3 12 .2.5.6.3.6-.3zm16.6-.7-.1.5v.4-1zm-1.5.2c0-.8-.1-.9-.9-.6-.4.2-.4.3 0 .8.5.8.9.7.9-.2zm-16.7-3.2a32 32 0 0 0 0-7.2c-.5-1.7-.8-.5-.9 4 0 2.6-.2 5-.3 5.4-.2 1 0 1.6.6 1.5.4-.1.5-.5.6-3.7zm10 3.3c0-.3-1.8-2-2.2-2l-.1.7c0 .4.1.7.3.7.2 0 .7.2 1 .5.8.6 1 .6 1 .1zm-12-1.8c.3-2.4.2-10-.1-9.9-.2 0-.3 1.6-.4 4a64.3 64.3 0 0 1-.3 7c.3.7.6.3.8-1zm-13.7.5c-.1-.3-.2-.4-.3-.3v.5l.3.4v-.6zm12.1-2.8c.3-4.7.1-8-.3-8.1-.2-.1-.3.4-.3 2l-.3 5.4c-.2 3 0 4.2.5 4.2.1 0 .3-1.6.4-3.5zm-1.9 0c.3-5.2.3-8.9-.1-9a68.6 68.6 0 0 0-.5 11.8c.3.5.5-.1.6-2.8zm-7.4-3.2c-.1-5.2-.3-6.4-.8-6-.2.3-.6 4.7-.6 6.6 0 1 .1 1.8.4 2.2.2.3.4 1 .4 1.5 0 1 .2 1.3.6 1.3v-5.6zm3.7 5.2a61 61 0 0 0-.2-11c-.4.3-.4 1-.4 3v5.2c-.2 2.4-.1 3.2.3 3.2 0 0 .3-.2.3-.4zm1.9-2c.3-4.3.2-9.6-.2-9.4-.2 0-.3 1.5-.4 6 0 5.9.3 7.8.6 3.4zm-59.6.1c.3-1.6 0-15.3-.3-16-.2-.5-.2-.5-.3.2 0 .4 0 1-.2 1-.4.4 0 16.4.3 16.2.2 0 .4-.7.5-1.4zm110-2.3c-.3-.3-.3 0 0 .8.1.5.1.5.2 0 .1-.3 0-.6-.1-.8zm-37-1.5c.3-.4.5-.9.4-1.1-.3-.6-.7-.6-.7 0L139 64c-.5 1-.5 1.8 0 1l.8-1.2zm34.3-1.3-.2-.7-.4.7c-.3.6-.3.7.1 1.1.4.5.5.5.5 0v-1zm-35.6-.2c0-.4-.8-1.1-1.2-1.1-.2 0-.2.9.1 1.7.3.7.3.7.7.2l.4-.8zm36.5.9c0-.3-.1-.4-.3-.4-.1 0-.3.1-.3.4 0 .2.2.4.3.4.2 0 .3-.2.3-.4zm4.4-5.3V52l.4-8.4a109.4 109.4 0 0 0-.3-19.3c0-1.2-.4-2.7-.6-2V34c0 7.9-.2 12.2-.4 13.6-.4 2.6-.5 12.8 0 13.8.2.7.7 1.2.9 1v-4.7zm-33.5 1.5c0-.6-.1-1.1-.3-1.1-.1 0-.3.6-.3 1.3 0 .8.1 1.3.3 1.2.2-.1.3-.7.3-1.4zm31.5-.2c0-.3-.2-.4-.3-.3-.2.1-.3.3-.3.4 0 .2.1.3.3.3.1 0 .3-.2.3-.4zm-43.4-1.4c.5-.6.8-1.4.9-2 0-.2.4-.3 2.4-.3 1.4 0 2.5 0 2.5-.2l-1-.2c-1.1 0-1.7-.4-1-.7.3-.1.3-.2-.2-.6-1-.8-.3-1 1.4-.4 1.2.3 1.6.6 1.6 1 0 .7 1 .6 1.8-.2.6-.7.6-.7 0-1-.4-.2-.5-.1-1 .4-.2.4-.4.5-.5.2a4 4 0 0 0-.8-1l-.6-.9c0-.1-.3-.3-.6-.3-.5 0-.7-.1-.7-.4 0-.2-.2-.5-.5-.5-.3-.1-.6-.3-.6-.5 0-.4 1.4-1 2.2-1 .3 0 .5-.1.5-.3 0-.5.6-.7 1.6-.5.7 0 .8 0 .5-.2l-1.4-.3c-.8 0-1 0-1-.4.2-.4.4-.5 1.4-.4 1.1 0 1.1 0 .5-.4-.4-.2-1-.3-1.3-.3-.6 0-.8-.7-.4-1 .4-.1 2.2.4 3 .9.6.4.6.4 0 .8-.4.3-.4.4 0 .6.6.3.7 1 .2 1-.2 0-.5.2-.6.5 0 .2-.3.3-.6.2-.4 0-.6 0-.7.3-.2.6 0 .9.7.9.3 0 1 .2 1.5.6 1 .5 1.9.5 1.9 0 0-.2-.3-.3-.6-.3s-.5-.2-.5-.6c0-.3.2-.5.4-.5.3 0 .4-.3.4-1 0-.8-.1-1.1-.4-1.1-.4 0-.5-1.2-.1-1.5.4-.2.3-.6-.1-.6-.5 0-.6-1-.2-1.2.2-.2.2-.4-.1-.7-.4-.4-.4-.5.2-1.2l.5-.7-.7.4c-.4.4-.9.4-1.5.3-.6-.1-.7 0-.6.3 0 .2.4.3.6.3.3 0 .5 0 .5.2s-.2.3-.6.3c-1 0-1 .3-.1.6.4.2.8.4.7.6 0 .3-.7.3-2 .3-2.3-.1-2.5-.2-2.3-.8.1-.3 0-.3-.3-.2-1 .4-1.7.5-1.7.2 0-.5 1.1-1.1 2.8-1.7 1.5-.4 1.5-.4.7-.5-1.1 0-1.8-.3-1.5-.7.3-.6-.6-.7-1.6-.2-.5.3-1 .7-1.2 1-.2.4-.2.5.4.3 2-.5 2.3.3.2 1-.7.2-1.7.6-2 .9-1 .6-1.5.1-.7-.7.6-.6.5-.6-.7-.1-.7.3-1 .3-1.3.1l-.7-.3c-.4 0-.5 0-.4-.5.1-.5 0-.6-.6-.4l-.8-.1c0-.2-.2-.3-.5-.3s-.7-.2-1-.4c-.2-.2-.6-.4-.8-.3-.7.1-.7.9 0 1.6.5.3.7.7.6 1-.1.3 0 .5.5.6.4.1.7.4.7.6 0 .6-1.9.5-2.7-.2-.3-.3-.9-.5-1.2-.5-.3 0-.6-.2-.7-.4-.2-.4-.4-.4-1.1-.3-.7.1-1 .1-1-.1s-.1-.1-.5.1c-.3.3-.5.7-.5 1l-.6 2.3c-.5 1.2-.6 1.8-.4 2 .1 0 .2.2 0 .4 0 .2.1.3.6.2l1.3-.3c.4 0 1 0 1.2.2.4.2.7.2 1.3 0 .5-.2 1-.2 1.3 0 .5.2.7.2.8 0 .2-.3.4-.3.8 0h1c0-.1.4-.2.7-.1.3 0 .5 0 .5-.2s.3-.3.6-.3c.4 0 .7-.1.7-.3 0-.1.2-.2.5-.2s.7-.3.8-.6c.2-.2.5-.5.8-.5.5 0 .6-.1.5-.5-.1-.4 0-.7.6-1 1.4-.7 2.7-.2 1.6.7-.8.6-.4 1 .6.5h1c.4.4 0 .8-1 1.2-.5.2-1 .6-1 1-.2.6-1.3.9-4 1.2-1 0-2 .2-2.1.3-.4.3-3.8.1-5.7-.2-1.6-.3-2.9 0-4.6 1.1l-.8.5 1.3-.2c1-.1 1.2 0 1.1.2 0 .3-2.4 1.3-3 1.3-.3 0 .1-1.9.6-2.4.4-.5.7-3.2.3-3.6l-.9.5c-.6.6-1.4 1-1.4.6l.8-1.3c.5-.7.8-1.3.7-1.4 0 0-.6.5-1.1 1.3-1 1.5-2.6 3-4 3.9-.8.5-.9 1-.1 1 .3 0 .5 0 .5-.2l.8-.8c.7-.5.9-.5 1-.2.3.3.6 0 1.5-1 1.5-1.7 2-1.5.6.4-1.6 2.3-2.8 3.1-5 3.4-2 .2-2.2.2-2.5 1.1-.2 1 .8 1.3 3 1.3 1.4 0 2-.1 4.5-1.2 4.8-2.2 6.7-2.7 7.9-1.8.6.4.3 1-.7 1-.5 0-.7 0-.7.4 0 .6-1.3.8-1.6.2-.2-.6-.6-.5-.6 0s-.3.7-1.7 1c-.9.1-1.8.3-2.1.2a4 4 0 0 0-1.6.5l-1 .6h3c4.8 0 4.8 0 5.6-.2.4-.1.7-.3.7-.5 0-1 3.6-1.3 4.3-.5.4.4 1 0 .6-.4l.1-.4c.5-.4.3-.7-.7-1.1a74.6 74.6 0 0 1-2.5-1c-1-.3-.3-.9 1.2-1 1.2 0 1.8.1 3.2.8 2.4 1.2 4 2.6 3.7 3.4-.2.8-1 1.2-2 1-1-.1-2.2.5-1.5.9.2.1 1 .3 1.8.3 1.1 0 1.6-.2 1.9-.5zm-8-3.1c-.7-.6-.7-1 .2-1 .6 0 1.3.9 1 1.2-.3.3-.5.2-1.1-.2zm4.8-2.3c-.7-.5-.8-.6-.5-.7.5-.1 2 .6 2 1s-.5.3-1.5-.3zm-9.3-4.4.3-1.4c.8-2.4 1.1-2.6 2.2-1.3.4.4.8.8 1 .8.2 0 .8.2 1.2.5.8.5.9.6.6 1-.3.4-1.2.5-3.6.7-1.3 0-1.7 0-1.7-.3zm7.4-.2c-.5-.3-.7-.6-.6-1.2.2-.5.8-.7 3.4-.9 1.9 0 1.9.4 0 .8-2 .4-2.3.7-.8.5.9 0 1.2 0 1.2.3 0 .5-2.2.8-3.2.5zm48.3 3.8c1-6.8 1.3-13.9.9-19.1a167 167 0 0 1-.3-8.5c0-3-.2-4.2-.4-4.3-.2 0-.3.2-.3.5 0 16.3-.3 27-.6 30.3-.8 6.6-.8 7-.4 7.4.3.4.3.4.4-.5l.7-5.8zm-36.4 4.7c0-.1-.1-.2-.4-.2-.2 0-.3.2-.3.3 0 .1.1.2.3.1.3 0 .4-.2.4-.2zm34-.8c-.1-.6 0-1 .2-1.1.3-.2.5-1.3.7-4 .6-7.9.7-9.2.4-19-.2-8.8-.2-9.6-.4-6 0 2.1-.1 4-.2 4h-.3c-.1 0-.2-1.6-.2-4.2 0-3.6 0-4.2-.4-4-.3 0-.4.7-.4 3.6a265.3 265.3 0 0 0-.4 17.4c0 12 0 13.6.3 14 .6.6.7.4.7-.7zm-1.8-8.3a141.6 141.6 0 0 0-.6-18.6l-.3.3c-.2 0-.3-1.9-.3-5.2 0-4.2 0-5.1-.4-5.1-.6 0-.8 4.2-.7 19.3V52l.9 1.1 1 1c.1 0 .3-3 .4-7zM114 52c.4-.5 0-.5-.7 0-.4.4-.4.4 0 .4.2 0 .5-.1.7-.4zm33.4-1.1c.7-2.1.8-3 .5-3.4-.3-.3-.2-.5 0-1 .3-.4.5-1 .5-1.3l.3-1c.3-.1.3-.2 0-.2-.1 0-.3-.4-.2-1 0-1.2-.3-1.6-.8-.7l-.7 1.4c-.3.4-.4 1.4-.4 2.4s-.1 2.1-.3 2.6c-.2.7-.2 1 .1 1.3.5.5.5 1 0 1.5s-.5 1 0 .9c.3 0 .7-.7 1-1.5zM8.9 50.6l-.1.4c0 .5 0 .7.1.5v-1zm64.7-9.2c0-3.4-.2-5.7-.3-5.6-.3.2-.4 14.2 0 14.9.2.7.4-3 .3-9.3zm96 9a421.3 421.3 0 0 0-.5-30.3c0 1-.2 1.6-.4 1.8-.6.5-.6 4 0 8.2.3 2.4.4 3.3.1 3.5-.1.2-.3.3-.4.2l-.3-2.7a9.9 9.9 0 0 0-.4-2.7l-.3-2.9c0-2.1 0-2.4-.2-1.3 0 .8 0 4.7.2 8.8.3 5.6.4 8.4.2 11.3-.3 4.2-.3 4.4 1 5.8.7.7 1 .8 1 .3zM150.3 47c.2-.7 1.3-.7 1.3 0 0 .4.1.5.2.5.5-.3 2-3.5 2.3-4.4.2-1.4-.2-1-1 1-1.2 2.9-2 3-1.9.2 0-1.7 0-1.7-.4-1.3-.3.2-.5.7-.5 1a40.4 40.4 0 0 0-1.4 5.7c-.2.8-.1.7.5-.6l1-2zm-127.1.2.2-14V21.8l-.6-.6c-.7-.8-2.2-1.1-2.2-.6-.2 1.3-.1 4.5 0 4.5.2 0 .3-.8.4-1.7.2-2 .5-2.3 1.3-1.6a46.5 46.5 0 0 1 .7 11c-.4 1.8-.6 17.2-.3 17.2l.5-2.8zM6.7 39.8c0-8.6 0-9.2-.4-9.2-.8 0-1 1-1 5 0 2.5-.1 4-.3 4.2-.2.1-.3-1-.3-3.6 0-5.7.1-5.6-.4-5.6-.3 0-.4.4-.2 2.5l.2 6.4c0 2.2.2 5.1.3 6.5.2 2.8 0 2.6 1.9 2.9.1 0 .2-3.2.2-9.1zm127.2 9c0-.3-.5-.4-.7-.2 0 .2 0 .3.3.3l.4-.1zm-66-9.2c0-7.3 0-8.2-.3-7.8-.3.4-.3.9-.1 1.8v1.3a159 159 0 0 0 0 13.5l.3-8.8zm3 6c-.1-.5-.2-.1-.2.7 0 .8 0 1 .1.7v-1.5zm-63-.3c-.1-.4-.2-.1-.2.7 0 .8 0 1.1.1.7v-1.4zm1.7 1.3-.2-3c-.4-.3-.9.7-.8 1.5v1.6c.1.9.9.8 1-.1zm2-1.4c.1-2.2.5-2.9.5-.9 0 1 .1 1.7.3 1.7.2 0 1-1.4 1.2-2.3.1-.4.1-.5-.2 0-.7.9-1 .4-.4-.8.6-1.3 1-4.6.7-5.8v-1.3c.2-.3.2-.8.1-1.2 0-.5 0-1 .3-1.1.7-.7.5-12.6-.3-12.8-.2-.1-.5 1.7-.7 6.1l-.3 2.8c0 .4 0 1.2.2 1.8.1.8 0 1.6-.1 2.2-.2.8-.2 1.1 0 1.2.2.2.5 2.4.3 3.5 0 .7-.5 0-.5-1 0-.4-.1-.9-.3-1l-.2-1c.1-1.9 0-2.8-.6-3.3-.9-.8-1.1-.4-1.2 2.4-.2 2.3-.1 2.4.4 2.5.6.2.6.3.5 2.6 0 1.7-.3 2.8-.7 3.7-.5 1-.6 1.6-.5 2.5.3 2.3 1.5 2 1.6-.5zm.4-3.4v-.5 1-.5zm-.1-3c0-.6.1-1.3.3-1.4.1-.1.2.3.2 1.2l-.2 1.4c-.2.1-.3-.3-.3-1.1zm154.6 7.6.3-3.6c.2-3.7-.5-14.4-1-15-.2-.3-.3-1.5-.4-4.8 0-1.3-.1-1.5-.3-1a240.6 240.6 0 0 0 .4 24.4c.6.5.8.5 1 0zm-48-2.7c0-.5.2-1 .3-1l.2-.7c0-.5 2-2.9 2.5-2.9.3 0 1.8-1 1.8-1.3 0-.3-1.3 0-2 .4a7.4 7.4 0 0 0-3.3 4.3l-.5 2.5c0 .6 0 .6.4 0 .2-.2.4-.8.5-1.3zm45.6-6.8a71.8 71.8 0 0 0-.7-13c-.2-4-.4-2.7-.4 2.3 0 4.3 0 5-.5 5.2-.3.2-.4 1-.4 5.6a48.3 48.3 0 0 0 .3 6.8c0 1 .1 1.2.6 1.4h.9c.2-.2.3-3.3.2-8.3zm-156-6.4c-.3-.4-.5 0-.8 2.2-.2 2.1 0 10.5.3 11 .1.2.3-2.7.5-6.3.2-4.3.3-6.7 0-6.9zm153.5 12.7c0-.3 0-.6-.2-.7-.3-.1-.4-13-.1-18.4.1-3 0-4-.1-4-.2 0-.3.4-.3 1.3 0 .7-.1 1.5-.3 1.7-.2.3-.3.9-.1 2 .1 1.2 0 1.7-.2 2-.4.4-.5 2-.6 8l-.2 7.4.7.7c1 .8 1.4.9 1.4 0zm-36 .1c0-.1 0-.2-.2-.2s-.2.1-.1.2c0 .2.2.3.2.3.1 0 .2-.1.2-.3zm-116-5.5c.4-6 .3-6.9-.2-6.9-.3 0-.4.3-.4 1a476.4 476.4 0 0 1-.3 11c.4.7.8-1.4 1-5.1zm124.6 4c.5-.2.7-.4.5-.7 0-.3.1-.7.6-1 .3-.3.7-.9.7-1.3.1-.5 0-.6-.8-.7-.9 0-1.8-1-1.5-1.7.1-.3 0-.3-.7-.1-.7.3-.7.3-.2.5.5.2 1.3 1.6 1.3 2.3 0 .2-.3.4-.8.4-.8.2-1 .4-.5.9.3.2.3.4 0 .6a3 3 0 0 0-.3 1c-.2.5-.1.6.4.4l1.3-.5zm-10.2-.4c.7-.7 1.2-1.8 1-1.8-.2 0-.5.4-.7.7-.2.4-.6.8-1 1-.3 0-.5.3-.4.5.2.3.5.3 1-.4zm34.7-8.5c0-6.4 0-9.1-.2-9-.2 0-.3.6-.3 1.2 0 1.2-.2 1.8-.6 1.8-.2 0-.3 1.7-.3 6.2 0 6.7.4 9 1.1 9 .2 0 .3-4.2.3-9.2zm-133.6 1a1002.2 1002.2 0 0 1 .4-12c-.2-1.3-.2-1.5-.7-1.4-.6.2-.6.3 0 1.7.3 1 .3 1.2 0 1.6-.5.4-.5.8-.3 3.2.2 1.7.2 4 0 5.9-.2 4.3-.2 9 0 8.7.2-.1.4-3.6.6-7.6zm101 6.1s-.3.1-.4.5c-.3.6-.3.6.1.1.3-.2.4-.5.3-.6zm14.6.5c-.3-.2-.5-.4-.6-.3-.3.3.1.8.6.8.4 0 .4 0 0-.5zM124 39.4c.8-1.3 1.4-1.7 1.4-1 0 0 .1.2.3.2.3 0 .3-1 0-1.2-.6-.3-2.8 1.6-3.3 2.8-.1.4 0 .5.3.5s.8-.6 1.3-1.3zm21.6 0c.3-.3.5-.6.4-.7-.2-.2-1.8 1.2-1.8 1.5 0 .3.8-.1 1.4-.8zm-5.7 0c0-.2-.2-.3-.5-.3-.9 0-.6-.4.6-.9.8-.3 1.5-.8 2.2-1.7 1.4-1.8 1.4-2 0-1.3-.6.3-1.3.8-1.3 1-.1.3-.9.9-1.8 1.4l-1.6.8 1 1c.8.6 1 .8 1.2.5l.2-.6zm16.4-6c0-4.1-.3-11-.4-9 0 .8-.2 1-.6 1.1-.5.2-.6.3-.4 1.4l.4 7 .5 6c.3.8.5-2.3.5-6.5zm-1.7 4.4c0-1.1 0-1.7-.3-1.8-.2 0-.3.1-.3.6 0 .4-.2.7-.4.8-.6.2-.5 1.6 0 2 .8.4 1 .1 1-1.6zM127.3 39c0-.1-.2-.3-.5-.3-.2 0-.3.2-.2.3 0 .2.3.3.4.3.1 0 .3-.1.3-.3zm4-.1c.6-.4.6-.4 0-.9-.2-.3-1-.9-1.9-1.3a7 7 0 0 1-2-1.5c-.3-.4-.7-.7-1-.7-.5 0-.6.4-.2.7.1 0 .3.4.3.7 0 .3.2.6.7.8.7.2.8.4 1 1.3.1.9.2 1 .6.7.3-.3.4-.3.7.1.3.6 1.2.6 1.9.1zm-115-1.3c0-.3-.1-.1-.1.5s0 .8.1.6v-1zM36 34.6c0-2 0-3.8-.2-4l-.1 4c0 2.2 0 4 .2 4v-4zm108.2 3c.2.3.3.3.7-.1.3-.3.3-.5.1-.5-.1 0-.3-.2-.3-.4 0-.3-.1-.3-.8 0-1.2.4-1.5.6-1.9 1.2-.2.5-.2.5.8 0 1-.6 1.2-.6 1.4-.3zm7.8-.4-.1.3c0 .4 0 .5.1.4v-.7zm-117-.3V37.5c.2-.1.2-.4 0-.6zm116-6.8c0-2.2 0-4-.2-4-.6 0-.7.8-.5 3.8l.3 5.4v2.4l.2-1.9.2-5.7zm-74.3 3.5-.1-5.2-.3-2.4-.1 3c-.3 5.3-.3 8.5 0 7.9.2-.3.4-1.8.5-3.3zm72.3-.8c.2-4.7 0-7.6-.4-7.2a75 75 0 0 0-.3 11.2c.4.6.6-.3.7-4zm4.3-2.4c0-5.2-.2-6.1-.7-6.1-.2 0-.2.7-.1 2l.3 6.2c.1 3 .3 4.1.4 3.7.2-.4.2-3 .1-5.8zM131.8 36l-.4-1c-.2-.4-.7-.6-.7-.1 0 .4.8 1.6 1 1.6.2 0 .2-.2 0-.5zm-111-2.6c0-.1-.2.2-.1 1v1.1l.2-.9v-1.2zm120 1.3a5 5 0 0 1 1.3-.6c.1 0 .2-.1.2-.3h-.6c-1.8.7-2.5 1.1-2.5 1.3 0 .5.4.4 1.5-.4zm3.9-.4.2-1.4c0-1 0-1-.2-.4l-.7 1.4c-.3.6-.3.7 0 .7.2 0 .5-.1.7-.3zm-73.8-1.4c0-.4-.1-1-.3-1.3-.1-.4-.2 0-.2 1.2s0 1.6.2 1.3c.2-.2.3-.8.3-1.2zm51.7-.6c0-.6-.3-1.1-.4-1.1-.3 0-.3 2.2 0 2.4.3.4.6-.3.4-1.3zm-1.4-.1c0-.5-.1-.5-.3-.2-.1.2-.2.4-.1.6.2.3.4.2.4-.4zm4.2 0c-.3-.8-.8-.8-.8-.1 0 .3.4.6.9.6l-.1-.6zm18-4.1a116.2 116.2 0 0 1 0-7c-.2 0-.3 1.3-.3 3.4l-.2 4.8c-.2 1.7-.1 2.7.2 2.7.2 0 .3-1.7.3-4zm-1.9 3s0-.2-.2-.2-.3.1-.3.3c0 .1.1.2.3.2.1 0 .2 0 .2-.2zm-3.2-.8c-.1-.2-.2 0-.2.3 0 .4.1.6.2.4v-.7zm-126 0 .1-3.2a45.7 45.7 0 0 1 .4-6.7l-1.4-.3c-.8 0-1.4-.2-1.4-.3 0-.6-3 .1-3.3.8l-.5 4.2-.6 4.5c-.1.5 0 .6.5.5.6 0 .6-.2.8-3.8.2-3.5.4-4.4.7-3.6.2.5.6 0 .6-.8 0-.4.1-.7.3-.7.2 0 .2 1 .1 3 0 2.2 0 2.9.1 2.1l.3-2c0-.6.1-1 .3-1.2.2-.1.2.8 0 3.3 0 2.5 0 3.5.2 3.6l.4.1.2-3c0-3.6.3-5.3.6-5.2.4 0 .4 1.9.1 5.5-.2 2.8-.1 3.2.2 3.5.7.5 1 .4 1.3-.3zm22.6-1.5c0-1.5 0-1.6-.3-1-.3 1-.2 3.1 0 3 .2-.1.3-1 .3-2zm97.6 1.1c0-.5 0-1.1-.2-1.3-.2-.3-.2 0-.2 1 0 .7 0 1.3.2 1.3.1 0 .2-.4.2-1zm9.1-.5c0-.2-.2-.3-.4-.3-.1 0-.2.1 0 .4v.8c.1.4.2.4.3 0 .1-.3.2-.7.1-1zm4.6-1.2V29.9v-1.7zm16.2 1-.2-.1c-.2 0-.3.3-.3.7 0 .6 0 .7.3.2l.2-.7zM4.8 26.6c0-2.6.2-3 .5-3.3.3-.1.5-.4.5-.6 0-.3-.2-.4-.5-.3-.4.2-.4.2 0-.1.7-.4.7-1.9 0-1.9-.9 0-1.1 1-1.3 5.2-.1 3.6 0 4 .3 4s.4-.4.5-3zm3.7 2.1c0-.6-.1-.6-.4-.3-.3.1-.4.5-.4.7 0 .2.1.3.4.3.2 0 .4-.2.4-.7zm114.2-.5c0-.3 0-.7-.2-.9-.2-.3-.3-.1-.3.6 0 .6.1 1 .3.9.1-.1.3-.4.2-.6zM22.2 26.9c0-1-.1-1-.3.3v.7c.2-.1.3-.6.3-1zm13-1.7c0-1 .6-1.3.8-.6.1.2.3-.4.4-1.3a5 5 0 0 1 .4-1.8c.1 0 .2 0 .3.2v1.1c0 .7.2.8.8 1 .6 0 .7-.1.8-1l.3-1.5c.2-.4 0-.4-.7-.4-.6 0-1-.2-1.2-.3-.2-.4-2.5-.1-2.8.3l-.2 1.1v.8l.3-.8c.3-1 1-1.2.7-.3l-.3 2.9v1.8c.2-.2.4-.8.4-1.2zm38.3-2.4c0-.9-.3-1.2-.6-.5v2l.2 1.5.2-1.1.2-2zM44.8 24c.3-.2.4-.8.4-1.7 0-1.3-.2-1.6-.9-1.4-.5.2-.5 1 0 1.4.5.3.5.3 0 .8-.8 1-.4 1.8.5 1zm6.8 0c0-.2-.2-.3-.4-.3s-.4 0-.4.2.2.3.4.3.4-.1.4-.3zm-9.7-1.5c.1-.8 0-1.1-.2-1.4-.5-.5-1.2 0-1.2.9 0 .3-.2.7-.3.7-.2.1-.3-.2-.3-.9 0-.6 0-1-.2-1s-.3.6-.3 1.4v1.5h1.1c1-.2 1.1-.2 1.4-1.2zm52-.6c-.1-.4-.2-.2-.2.6 0 .7 0 1 .1.7V22zm-50.5 0c0-.6-.2-.9-.4-.9-.3 0-.4.3-.4.8s.1.8.4.8c.2 0 .4-.3.4-.8zm-28-.7c.2-.9.1-1.1-.3-.9-.4.3-.4 1.8 0 1.8l.3-.9zm77.4-.2c-.1-.2-.2-.2-.2.1 0 .3 0 .5.1.4V21zm86-.5c0-.6 0-1-.2-1-.3 0-.4 1.6-.1 1.9.3.3.3.2.3-1zm-11.7-.3c0-.2-.1-.2-.1.1 0 .3 0 .5.1.4v-.5zm-127.5-.1h-.5l.2.1c.2 0 .4 0 .3-.1zm133.7-1c-.2-.6-.2-.5-.3.3 0 .6.1.8.3.7.2-.2.2-.5 0-1zM43 20h-.8l.4.1c.4 0 .6 0 .4-.1zm132.7-.9c.1-.6 0-.6-.3-.3-.5.4-.6 1.2 0 1 0 0 .3-.4.3-.7zm-160.2.4c-.2-.1-.5-.1-.8 0h.8zm-3.6-1c1-.1 1-.1-.4-.1-.8 0-1.8-.2-2.1-.3-.5-.3-1.3-.3-2.6-.3-2 .2-2.6.4-2 .8.5.3 5.6.3 7 0zm32.8-1.1a4 4 0 0 0-1.9-.2c-.8.2-.8.2-.1.3a9 9 0 0 0 1.8.2h1.2l-1-.3zm-12.2-1.5c.1-.1-.4-.2-1.4-.2-.9 0-1.7 0-1.8.2 0 .2.5.3 1.4.3 1 0 1.7-.1 1.8-.3zm1.8.1h-.8c-.3 0-.1.1.3.1h.5zm-29-.6c0-.1-.1-.4-.3-.5-.5-.4-1.1 0-.8.5.2.3 1.2.4 1.2 0zm8.7-1 4.8-.3c1 0 1.1 0 .8-.6-.2-.5-.4-.5-1.5-.3l-4.3.2c-2.3 0-3 0-3.3.3-.2.4-1.2.5-3.8.6-.5 0-.6.1-.3.3a5 5 0 0 0 2.2.1l5.4-.3zm88.4-.5h-.5c-.2 0-.1.1.2.2.2 0 .4 0 .3-.2zm-60.8-.4c-.1-.2-.6-.3-1.5-.3-.7 0-2.1 0-3.2-.2h-7l-4.8.2h5l6.5.3c2.5.4 5 .4 5 0zm-35-.1H5.1h1.4zm65-1.2c2.4-.3 13.6-.4 17.5-.1 2.1.1 2.3.1 2.2-.3l-.2-.6c0-.1-3.5-.3-7.7-.3-5.4-.1-8-.3-8.3-.5a375.2 375.2 0 0 1 22.8.1 123.8 123.8 0 0 0 14.7-.8l.8-.4c.2 0 .5-.1.5-.3.2-.5 7.2-.7 7.7-.2.3.2 1.5.2 4.2 0l4.3-.2c6 0 16.9-.5 17.4-.6a385.1 385.1 0 0 0-25.4 0 16 16 0 0 0-4.8-.1c-3.9.2-4.2.2-4.2.7 0 .3-.2.5-1 .5-.6 0-1.3 0-1.7.2l-20 .1C72 9.3 71 9.3 70 8.8c-.5-.2-1-.5-.8-.6.2-.2 11.3-.3 12-.1.6.1.6.2-.3.3-1.2.3 25.4.3 28.6 0 2-.1.8-.2-4.7-.2-7.4 0-8.2 0-15.1-.6-4.3-.3-5-.4-5-.8a293.1 293.1 0 0 0 46.1-.3c2.4-.2 3.1-.2 3.3 0 .1.3 1.6.3 5.5.3 5-.1 5.2-.1 4.3-.5-.9-.4-3.1-.4-24-.3-16.5 0-23 0-23-.2s.3-.3.7-.3l28.4-.1a342.7 342.7 0 0 1 36.5.7l10.6.4c2 .1 2 .1 2-.3 0-.5-.4-.5-2.9-.6-5.4-.1-15.4-.6-15.6-.8-.8-.5 1-.5 7.8-.2 4.1.2 9 .4 11 .3 3.3 0 3.5 0 3.7.5.3.7.1.9-1 .9-.4 0-.8.1-.8.3 0 .2.3.2 1 0 .7 0 1.2-.1 1.3-.2l-.2-1c-.1-.9-.3-1-1-1a616.7 616.7 0 0 0-34.6-.6h-19a606 606 0 0 1-50 .1c-1.8.2-18.6.2-26.4 0L34 3.5C24.3 3.4 17.8 3 6.7 2.4L5 2.3l-.4 1c-.2.6-.2 1 0 1.2 0 .1 3.6.4 7.8.5l7.8.4c.3.3-.7.3-7.7 0H4.5c-.1 0-.3.3-.3.6 0 .6.1.6 10.1.6 9.6 0 13.3 0 15.7.3 1.6.2 10.9.7 15.9.9 5.9.1 13.4.6 13.6.8H56a614.6 614.6 0 0 0-26.3-1c-.9-.2-25-.4-25.3-.1v.7l.2.6h14c15 0 29 .4 47.3 1.4 2.9.1 3.2.1 3.2-.3 0-.3.3-.4 1.3-.4s1.1 0 1 .5c-.1.4 0 .5.6.6 1.4.2-3.1.2-8.4 0a1056 1056 0 0 0-38.7-1c-15.9-.3-22 0-19.8.7.7.3 16 .3 20 0 2.5 0 7 .2 11.7.8a94.1 94.1 0 0 1 16 0l13.2.2c.2 0 .4.1.4.4a133.6 133.6 0 0 1-22.9-.3c-3.6-.1-4 0-3.8.3.3.3 1 .4 2.8.4a264.5 264.5 0 0 0 29.2 0zm-5-3.9h1.3c.3.1 0 .1-.6.1h-.6zm16.4 0c.1-.2.3-.2.4-.2.4.3.3.4-.1.4-.2 0-.4-.1-.3-.2zm-30-1c-.2 0-.5-.3-.6-.5a350.4 350.4 0 0 0 16.8 0c9.4 0 15 0 14.5.1-1 .3-29.6.6-30.6.4zm-25.4-.9c-.6-.2-.5-.2.5-.2.6 0 1 0 1 .2 0 .3-.5.3-1.5 0zm2.6 0h1.2c.3.1 0 .2-.6.2-.7 0-1 0-.6-.1zm2.1 0 .5.1c.1.1 0 .2-.3.1-.3 0-.4 0-.2-.1zm14.5 0a649 649 0 0 1-23-1.3c-4.5-.3-7.8-.8-7.8-1.2h.6l5 .4 7.3.5 15.9 1.1c5 .3 8.3.7 5.3.7l-3.3-.1zm13.9-.2c-.4-.3 7.4-.6 8.4-.3a103.1 103.1 0 0 0-5.7.4L60.6 6zm9.5-.3a107 107 0 0 1 18.5-.4c.2.2-2.3.2-7 .2a179.4 179.4 0 0 0-11.5.2zm-48.6-.2h.8l-.5.1c-.4 0-.6 0-.3-.1zm115.7 6.3 6.8-.3c.7 0 1-.1 1-.4 0-.2.1-.4.3-.5H144a176.6 176.6 0 0 1-18.5.6c0 .2.2.3.5.3s.6.2.8.4c.2.2.8.3 2.5.2l8-.3zm-122.7-.3c.7-.2.2-.2-2.5-.3l-5.5-.1c-1.6-.1-2-.1-2 .2l.1.5c.2.2 9 0 10-.3zm22 .1c-1.8-.8-9-1.1-13.4-.5l-2.2.1c-1 0-1.3.1-1.2.3.1.2 2.2.3 7.1.2a87.8 87.8 0 0 1 9.8 0zm71.4-.1a1142.3 1142.3 0 0 0 9.8-1c2.4-.1 3.2-.4 2-.7a152.4 152.4 0 0 1-20.1 1.5c-3.2.1-6.2.3-6.7.5-1.2.3 12 0 15-.3zm14.7 0h-1.4c-.4.1-.1.2.6.2.8 0 1 0 .8-.1zm-104.2-.2H18c-.2.1-.1.2.2.2.3 0 .4 0 .3-.2zm131.4-1a1 1 0 0 0-.7 0l.4.1c.3 0 .5 0 .3-.1zm10-.4c8-.5 7.7-.9-.6-.7-4.5 0-6.1.1-6.2.4 0 .2-.3.3-.5.3s-.4.1-.4.3a141.5 141.5 0 0 1 7.6-.3zm11.4-.7a1 1 0 0 0-.6 0l.3.1c.4 0 .5 0 .3-.1zm-8.6-2.2 3-.1c-.3-.2-11.1-.4-11.1-.2 0 .5.6.6 2.8.4l5.3-.1z"/>
</svg>
