<?xml version="1.0" encoding="utf-8"?>
<svg xmlns="http://www.w3.org/2000/svg" xmlns:svg="http://www.w3.org/2000/svg" version="1.1" viewBox="0 0 443 337">
  <title>Alexander prances around the farmyard followed by chickens, while Aunt Pettitoes lectures a serious-looking Pigling Bland.</title>
  <path d="M171 336.3c-.3-.3-.1-.7.7-2l1.3-1.8c.4-.2 1.6-2.6 1.6-3.2 0-.2-.2-.4-.4-.4-.6 0-2.5.7-3.8 1.4-1.4.7-2 .6-2.4-.1-.5-1.4 1.1-2.7 3.6-3 .8 0 1.6-.2 1.7-.3.4-.2.6-2.4.3-3.2-.2-.4-.4-2.3-.4-4.2 0-3-.1-3.6-.8-5-.4-.8-.7-1.7-.7-2l-.3-1.2c-.3-.8-.2-1 .3-2 .3-.7.5-1.6.5-2 0-.6 1.2-1.8 2-2 .7-.2.8-.4.5-.8a3 3 0 0 1-.5-1.1c-.2-1 .7-2.2 1.5-2.2.7 0 .6-.8 0-1a7 7 0 0 1-1.8-1.2c-1.2-1.2-1.4-1.8-.7-3.3.5-1.3.5-1.7-.2-2.8l-.5-1 .5-.5c.3-.3.7-.6 1-.6.2 0 .6-.5.6-1h-.8l-2-.4-3-.6c-2.3-.2-3-.6-3-1.9 0-2-1.3-2-3.4 0L161 288l-1.8-.1c-1.3 0-1.9-.3-2.2-.6-.4-.5-.4-.6 0-1.9.3-.7.8-1.5 1.2-1.8l2-1.7c.8-.8 2.4-2 3.5-2.8 2-1.3 2.5-2 1.8-2.5a21.5 21.5 0 0 1-3.8-6.6 24.3 24.3 0 0 1-2.6-6.6c-.5-3 .5-5 2.4-5 .4 0 .6-.2.8-1 .2-.5.6-1.3 1-1.7 1.6-1.9 2.5-3.2 2.5-3.7 0-.8 1.2-2.5 2-2.7h1.7l1 .1-.1-1.8c-.2-2.2.3-4.9 1-5.6.4-.4.7-.5 1.5-.4 3.7.7 4 .7 4.8.1.8-.5.9-.5 1.6-.1.6.3.8.4 1 0 .2-.1.3-.5.2-.8-.4-1.4 1.2-2.8 2.6-2.2.5.3.9.3 1.7 0 1.4-.4 2-.1 3 1.4.4.7.8 1 1.2 1 .9 0 1.5.8 2.2 2.6.6 1.7 1.3 2.4 2.2 2.4.2 0 1.1.7 2 1.6 1.6 1.6 2 2.6 2.6 5.3a43 43 0 0 1-1.1 15.2 277.7 277.7 0 0 1-1.5 7.6c-.4 2.3-1.9 5.6-2.7 6-1.3.5-1.6-.3-.7-1.7.9-1.5 1-2.3 2.6-12.1.8-4.7 1-9.7.6-11.9-.7-3.6-1.9-6.2-2.3-5.2l-.4 2.6-.5 3.5c-.4 1.3-.4 1.6-.7 7.8 0 2.5-.3 4.7-.4 5-.3.5-.9.5-1.4 0-.5-.5-.5-1-.3-4.3 0-2 .3-4.3.4-4.9.4-2 .6-11.2.3-12-.3-.8-.4-.8-1-.5l-1.2.5c-.4.1-.4.4-.3 1.4.1 1.2.1 1.3-.5 1.6-.6.3-.7.2-1-.5-.3-.6-.3-.8 0-1.1.2-.3.2-.5 0-1l-.7-1.6c-.5-1.6-2-4.2-2.4-4.2-.3 0-.7 1.9-.4 2.6l.4 1c.1.3.2 1.3.1 2.2 0 1.5-.1 1.8-.5 1.8-.3 0-.6-.2-.8-.4a23 23 0 0 1-1.1-4c-.2-1.2-.8-1.6-1.4-1a40 40 0 0 0-.3 10.6c.2 2 .2 2.2-.3 2.6-.4.4-.6.7-.4 1.1 0 .5 0 .8-.4 1-.5.2-.7.1-1.3-.5-.5-.5-.8-1-.8-1.3 0-.3-.3-.7-.6-1-.3-.3-.8-1-1-1.5-1.5-3-3.4-4.7-4.7-4.3-1 .2-.8 1.6.5 4l1 2.5.8 1.3c.4.5.8 1.1.8 1.3 0 .4.2.7 2.2 3.7 1 1.6 1.2 2.2.5 2.6-.6.4-1.7-.2-2.4-1.3a38.9 38.9 0 0 0-2.3-3.3l-1.2-1.8a16 16 0 0 1-1.5-2.3c-.8-1.8-2-1.8-2 0 0 .3.5.8 1.2 1.2.5.4 1 .8 1 1l.8 1c.6.6.8 1 .8 1.8 0 .9 1 3.2 2.8 6 .4.7.4 1 .2 1.2-.4.4-1.6.1-2-.5a57.8 57.8 0 0 1-3.8-4.8c-1.4-2.1-3-4-3.5-4-.3 0-.3.2-.2.5l.4 1.4c.3 1.5 1.3 4.3 1.6 4.7.5.5 1.3 2 1.6 2.8a42 42 0 0 0 4.9 8.4c.4.3 1 1.3 1.4 2.2 1 2 2.6 4 4.6 5.6 1 .8 1.6 1.4 1.7 2 0 .4.5 1 1 1.4 1.1 1 .8 1.6-1 1.7h-1.7c-.2-.2-.4 0-.6.1-.3.4-.2.6.4 1.3.8 1 .8 1.4 0 2.2-1.4 1.3-.6 3 1.8 3.6 1.2.3 2 1 2 2 0 .5.9 1.1 1.7 1.1.6 0 2 1 2 1.3l-.4.8c-.5.5-.7.5-1.9.2-2.2-.4-2.2 0-.3 1.6 1.3 1 1.8 1.4 2 2.2.3 1.2 1.2 1.4 1.8.4.6-.8 1.9-1.5 2.6-1.3.3.1.9.4 1.2.7.4.4.8.5 1.3.4l2.1-.4c1.2 0 1.4 0 1.7.5.4.8-.7 1.8-2 1.8-1 0-1.4.4-1.4 1.3 0 .8.8 2.4 1.6 3.3.8.8 2.8 1.2 4 .7.7-.2 1.1-.2 2.5.3 1.5.5 1.7.5 3.4.2l2.5-.7c.4-.2 1-.5 1.4-.5.6-.2.9-.4 1-.9 0-.3.5-.8 1.2-1.2 1.2-.7 1.5-.7 2-.2.3.3.6.3 1.1.1 1-.4 3.1-.3 3.8.2.4.3.9.3 1.3.2.5 0 .9 0 1.3.5.6.5.6.5.6 0 0-.3.6-.8 1.5-1.5a9 9 0 0 1 1.7-1c.3 0 1-.7.7-1l-1.5.3a27 27 0 0 1-5.5 1c-.9 0-1.4-.6-1.2-1.4.1-.3 0-.4-.5-.4-.3 0-.8-.2-1-.4-.7-.5-.2-1 .9-1 1 0 2.7-1.2 8-6.3 3.5-3.2 3.8-3.6 3.7-4.2l-.4-1c-.3-.2-1.3.7-1.5 1.5-.2 1-2.6 3.5-4 4.2a5 5 0 0 0-1.3.8c0 .1-.6.4-1.2.5a5 5 0 0 0-2.1 1.5c-1.2 1.3-1.8 1.4-3.3.9-.6-.2-1.1-.3-1.7 0-1.2.2-1.8.1-2.8-.6-.7-.6-.8-.8-.7-2 0-.8.1-1.5.3-1.7.5-.5.3-.7-.9-.7-.8 0-1.3-.2-1.7-.5-.8-.8-.8-.7 1-3.6.9-1.5 1-2.2.8-3.3-.2-.9-.2-1.3.2-2s.5-1.5.2-1.5l-1.3.6c-1.1.6-1.3.6-2 .2-.8-.4-1-1.3-.4-2.2.2-.3.4-1.3.4-2.4 0-3 .4-3.9 2.7-6.2a19 19 0 0 1 3.4-2.8c.8-.4 2-1.3 2.7-2 1.5-1.5 3-2.5 4.9-3l1.3-.4c.2 0 .9.9.9 1.2 0 .2-.9 1.3-2 2.4-2 2-2.7 2.3-3 1.1-.2-.5-.2-.5-.3 0 0 .5-1.3 1.9-1.8 1.9-1 0-6.9 6.5-6.3 7 .2.2 1.1-.3 2.1-1.1 1.3-1 2-.6 1 .6l-3.3 3.2c-.8.7 0 .8.9.1 1.2-.8 3.8-2 4.3-2 .6.2.8 1 .4 1.8-.1.3-.9 1.3-1.6 2.1-.7.9-1.2 1.7-1 1.9 0 .1.3 0 .7-.5.4-.5.7-.7 1.1-.5.8.2.8 1.3 0 2.2-.8.8-2.8 4.2-2.8 4.7 0 .2.3.3.7.3.7 0 1-.1 1.4-1l1.2-2c.3-.6.6-1.2.6-1.5 0-1 1.9-1.8 2.5-1.1.7.6.5 1.6-.6 3-1.2 1.6-1.6 2.6-1.6 3.6 0 .5 0 .6.4.5l1.7-.4a26 26 0 0 0 7.3-3.2l1.5-.5c1.4-.6 2.5-.7 2.8-.1.3.5.7.3 1.3-.8l1.4-2.1c1.1-1.6 1.4-2.3 1.4-3.6 0-.5.3-1.4 1-2.9.7-1 1.3-2.3 1.4-2.7l.6-1c.5-.6 1.4-2.5 1.8-4 .8-2.3 0-5.6-2-8-.5-.8-.5-1-.4-2.5.1-1.5.1-1.7-.5-2.2-.4-.3-1-.5-1.2-.5-1.3 0-1.6-1.7-.6-3.8.3-.7.4-1.3.2-1.9-.6-3-.5-3.7.7-4 .5-.3.8-.5.8-1s-1.5-4.4-2-4.8c-.2-.4-.2-2 .2-2.1.1-.2.6-.2 1-.2.6 0 .8-.1.8-.6 0-.3-.3-1-.7-1.5a26 26 0 0 1-1.3-2.2c-1-1.8-1.5-2.4-1.8-2-.2.1-.6.3-1 .3-.3 0-.6-.2-.7-.8l-.5-2a51.1 51.1 0 0 1-1.6-8l-.5-2c-.2-2-.6-3.1-1.6-4.6a23 23 0 0 1-1.3-2.2l-.8-1.6c-.6-1-.3-2 .5-2.3 1-.2 1.6.4 3 3.5a26 26 0 0 1 2.6 7.3c.2 1 .7 2.4 1 3.2 1.1 2 1.3 2.8 1 3.8-.4.8-.3.9 1 2.3 1.8 2.1 3.9 6.1 5.2 10.3l1.3 3.7-.6.6c-.6.5-.6.7-.3 2.6.3 1.8.3 2.1-.1 2.7-.3.3-.7.7-1.1.8-.4.1-.7.3-.7.5 0 .5.8 2.6 1.9 4.8 2.3 5 2.6 6.1 2.8 11.6l.1 3.9c0 .3-.7 2.2-1.6 4a31 31 0 0 0-1.6 3.8c0 .4-1.7 4.8-2.2 5.6-.3.3-.4.9-.4 1.2 0 1.2-1.1 2.5-5.8 6.8-2 1.8-2.2 2-2.2 3 0 .8-.2 1.3-.9 2.2-1.3 1.5-1.2 1.8.5 1.6 1.2-.2 1.6-.4 2.5-1.2 1.1-1.2 2.4-1.6 4.5-1.6 1.6 0 2.7.6 4.6 2.7 1.6 1.7 3.8 5.2 4 6.3a4 4 0 0 0 1.2 2c1.7 1.6 1.8 3.5 0 3.5-1 0-3.3-2.3-3.7-3.7-.1-.6-.4-1.1-.5-1.2l-.7-1a24 24 0 0 0-4.7-4.4l-.1.6c0 .5.2.7.8.9 1.3.4 3 3.3 3.4 6 .4 2.6-1 4.3-2.5 3.2-.6-.3-.7-.6-.7-1.8 0-1.5-1-5.4-1.7-7l-.8.2c-.9.5-1.7 1.7-1.9 3.2-.3 2.4-1.4 3.4-2.5 2.5-.6-.6-.7-1.8-.1-3 .2-.5.3-1.1.2-1.4-.1-.4-.3-.4-1.6.3l-2 1.2a2 2 0 0 1-1.4.3l-.6.1c0 .4-1 .8-2.7 1-2 .4-3.5 0-4.5-1-.6-.7-.7-.8-1-.4-.3.3-.3.5 0 .8.5.9.1 1.8-1 2.3-.5.3-1.1.5-1.4.5-.7 0-1.5.4-2.6 1.3-.7.7-1 .7-2.6.6a9 9 0 0 0-4.7.8c-.8.3-1.2.3-2 0l-2-.4c-1.4 0-2.7-.6-3.5-1.5-.5-.7-.8-.8-2.4-1-1.7-.1-1.8-.2-2.7-1.2l-1-1.1h-2.3c-3-.2-3.3 0-3.3 2.1 0 .8.2 2.4.5 3.6.5 1.8.6 2.6.4 4.8 0 1.5-.3 3-.5 3.4-.7 1.3-1.2 3-1.4 4.6-.2 2-.6 2.4-2.2 2.1a9 9 0 0 0-3.3 0c-1.2.1-1.7 0-2-.2zm6.6-14.2c.7-.6.4-1.2-.6-1-.5 0-.7.2-.7.8-.1.8.4 1 1.3.2zm2.3-18.7c.2-.5.3-1 .2-1.1-.3-.3-2.6.2-2.6.6 0 .4 1.3 1.4 1.8 1.4.1 0 .4-.4.6-1zM167.4 282c1.8-.9 2.1-1.3 1-1.3-.6 0-3 1.5-3 1.9 0 .3.2.3 2-.6zm9.2-29.6c-.2-1.9-.4-4.4-.3-5.5v-2l-1.3-.4-1.5-.2v2.3c0 2.3.7 4.6 2.3 8 .4.8.7 1.6.7 2 0 .2 0 .5.2.7.4.3.3-1.6 0-5zm16.1 72.2c-8.2-.5-9.2-.7-8.5-1.9.3-.5 1.4-.6 2.8-.2l5.1.4c4.3.1 5.3.3 5.3 1s-1 .9-4.7.7zm-43.6-2.6a4 4 0 0 1-1.1-.6c-.6-.5-3-1-4.7-1-1.7 0-2.7-.6-2.3-1.4.4-.7 4.3-.7 6.7.1 1.3.5 2.3.6 4.6.6s3 .1 3.3.4c.5.8-.2 1.3-2.2 1.6-3.1.5-3.5.5-4.3.3zm13-.4-2.3-.5c-2.6-.4-3.7-1.3-2.4-2 .7-.4 5.9.3 6.8 1 .6.2.9.2 2.3-.1 2.4-.6 3-.5 2.7.6-.2.7-2.8 1.3-3.7.8-.5-.2-.8-.3-1.3 0-.7.3-1.2.3-2 .2zm117-1.7c-2.5-.4-3.5-1.3-2.5-2.1.3-.3 1-.3 3.2 0 3.9.5 4.7.8 4.8 1.3.3 1.3-1.5 1.6-5.4.8zm-148.8-1c-.5-.6-.3-1 1-1.6 1.2-.6 2.4-.3 2.5.6.2 1.1-2.6 2-3.5 1zm6.5-.6c-.6-.2-1-.8-.9-1.3.3-.7 1.4-.9 4-.7 2 .1 2.5.3 2.7.6.5.9-.9 1.5-3.3 1.5h-2.5zm149.6-1c-.2-.2-1.1-.5-2-.8a2232 2232 0 0 0-10-3 40.6 40.6 0 0 0-9.4-.1c-.8.2-1.6-.6-1.2-1.2.2-.4.7-.5 2.3-.7a33 33 0 0 0 3.8-.5c2.2-.5 2.9-.4 5.3.8 2.2 1.1 2.9 1.2 2.9.3 0-.4.2-.9.6-1.1 1-.8 5.2-.4 8.8.8l2.7.5 2.4.4c1.1.5 4.8 1 6.4 1 1.7 0 2.7.5 2.8 1.3.2 1-.7 1.2-3.3.9-2.4-.3-4.1-.7-4.9-1.1l-1.2-.2a7 7 0 0 1-1.6-.3l-2.7-.7-3.2-.7a10 10 0 0 0-5.3-.1c-.6.3-.6.3 1.5 1 1.2.4 2.4.8 2.8.8.4 0 1 .1 1.3.3.4.3 1.1.4 1.6.4 1 0 1.6.4 1.6 1.2 0 1.1-1 1.6-2 .8zm-36.2-2.2c0-.3 0-.8.4-1.1.4-.6.7-.6 3.9-.7 2.8 0 3.5 0 3.8.3.5.5.3 1.1-.4 1.4l-3.5.2-3.5.2c-.4.2-.6.1-.7-.3zm61.6-1.8c-.9-.2-1.7-.4-2-.8-.9-.8-2-1-10-1.6a13 13 0 0 1-3-.5l-2.8-.9a11 11 0 0 0-6.3 0c-1.5.4-2.7.2-2.7-.3s2.3-1.3 3.8-1.3c1 0 1.3 0 2-.8.6-.8.7-.8 2.3-.6 1 0 1.8.3 2 .6 1 1.2 1.3 1.4 2.4 1.4.7 0 2.1.2 3.3.5 1.8.5 2.5.6 6.1.4 3.3 0 4.2 0 4.9.3.4.2 1 .3 1.5.3 1-.3 1.6 0 1.6.7 0 .4.1 1 .3 1.2.2.4.2.6-.2 1-.5.6-.8.6-3.2.4zm20-.7-1-.5-.7-.2a10 10 0 0 1-2.2-.5c-.8-.3-1.9-.6-2.4-.6-1.1 0-2.5-.7-2.4-1.3 0-.2.4-.5.8-.7.6-.4.9-.4 2.2 0 1.8.3 5.1 1.4 5.3 1.6l1.1.2c1.2 0 2 .4 2 1.2 0 .6-.8 1.2-1.4 1.1a7 7 0 0 1-1.2-.3zm-15.7-1.6c-.8-.9.5-2 2.4-2 .7 0 1.5-.1 1.8-.3.6-.2 1.7.1 2.1.8.3.3.2.5-.3.9-.5.3-1.3.5-3.2.6h-2.8zm31-.7c-.3-.2-.9-.5-1.4-.6l-1.8-.8a4 4 0 0 0-1.5-.7c-.5 0-1.7-.4-2.8-.8a18 18 0 0 0-4-.8c-.9 0-3.3.8-5 1.6-1.5.7-2 .7-2 0 0-.6.6-1.1 2.3-2 3.1-1.5 4.3-1.6 7.5-1 .7.2 1.8.3 2.5.3s1.6.2 2 .4c1.4.8 3.2 1.5 4 1.7 2 .3 3 1.1 2.7 2-.1.5-1.4 1.2-1.9 1.2l-.7-.5zm-203.7-2c-1.5-.3-2-.7-1.6-1.5.4-.6 1.5-.6 3.2 0 1.4.4 1.6.8.9 1.5-.5.5-.6.5-2.5 0zm-10.9-.5h.5l-.3.1c-.3 0-.4 0-.2-.1zm-4.6-3c-.1-.6 0-.8.8-1.5a4 4 0 0 0 1-1c0-.3-4.5 0-8.5.8-2.4.4-3.2.3-3.4-.3-.1-.6.7-1.3 2-1.8 1.1-.3 2.2-.5 4-.5l4.5-.2c1.8-.2 2-.2 2.7.2.7.5.8.5 1.9 0 1.3-.5 2-.3 1.7.5-.2.6-2 2.2-2.5 2.2-.2 0-.6.3-1 .6-.9.7-2.3 1.5-2.7 1.5-.2 0-.4-.3-.5-.6zm5.6.3c-.8-.2-1-.5-.8-1.1.2-.6 1.6-1.2 2.1-.8l1.3.5c2.3.8 0 2-2.6 1.4zm-27.7-2c-.8-.4-1-1-.4-2 .5-.6.6-.6 2.5-.5 2.1.2 2.7.5 2.7 1.4 0 .8-.6 1-2.7 1.3-1 .1-1.6 0-2-.2zM276.6 291c-.4-1 0-1.3 1.6-1.4a7336.2 7336.2 0 0 1 14-.4c1 0 1.9.6 1.4 1 0 .1-2.1.2-4.5.2a43.8 43.8 0 0 0-7.7.5l-3.7.3c-.7.2-1 .1-1.1-.2zm19.3-1v-.5c.2-.5 2.2-1.6 2.8-1.6.5 0 1 .9.7 1.4-.5.7-3.1 1.3-3.5.8zm18.3-1.7a28 28 0 0 0-6.6-1l-5.5.2c-4 .2-4.2.2-4.1-.3 0-.6 1-.8 4.6-.8h3l-.2-1c-.1-.7 0-1 .3-1 .2 0 .5.2.6.4.3.5 4.1 1.4 7.7 2 3 .4 3.8.7 3.7 1.3-.1.6-1.8.7-3.5.2zm-116.2-.5c-.3-.5-.3-.8-.1-1.6l.3-2.5c0-.7 0-1.9.2-2.5a1033 1033 0 0 1 1.5-13c.6-5.4.7-9.8.4-12.4-.4-3.3-.7-4.4-1.5-4.7-.7-.2-.8-.8-.2-1.4.5-.5 1.6-.5 2.5 0 .6.3.7.3 2.1-1 1.3-1 1.8-1.3 3-1.5h2.2c.8.2 1 .1 1-.6.3-1 1.4-2.1 2.9-2.8 1-.5 1.2-.8 1.3-1.5l.6-2.2c.4-1.3.4-1.6 0-3.6s-.4-2.2 0-2.7c.4-.6.4-.7 0-1.3-.2-.4-.5-.7-.7-.7-.3 0-2.3-2.8-3-4.1-.5-1-.5-1.3-.3-3.7.3-2.5.7-3.7 1.9-5.7.3-.5.3-1.1.2-3-.2-2.5-.2-2.5.5-2.8 1-.5 2-.1 2.5.9l1 1.6a8 8 0 0 1 2 5.2c0 1 .1 2.3.3 3 .5 1.3.4 1.8-.5 1.8s-1.6-1-2-2.6c-.3-1.6-.7-2-1.6-1.8-1 .2-1.6 2-1.6 4 0 1.5.2 2 1.4 4.3l1.8 3c.3.4.5 1 .5 2.5 0 1.2.1 2.8.3 3.7.6 2.6.6 5 .1 6.7-.5 1.7-1.2 2.2-2.8 2-1.1 0-1.3 0-2 .7-.8.8-1.2.8-2.5.3-.2 0-.4 0-.5.4-.2.6-1.3 1.3-4 2.7-1 .5-2 1.2-2 1.4-.2.2 0 1 .1 2 .2.8.3 2.7.3 4.3a98 98 0 0 1-3.3 24.6l-.4 2.3c-.2 2-.4 2.4-1 2.7-.4.2-.5.2-.9-.4zm151-1.5c-.4-.1-.5-.4-.5-.7 0-.3.5-.5 1.8-.6 2.2-.3 2.7-.1 2.7.8 0 .7 0 .7-1.8.7l-2.3-.2zm-9.6-1.4-2.6-.6-2.9-.5c-.2-.1-.7-.2-1-.1-.3 0-1-.1-1.4-.4l-3.4-1a8.6 8.6 0 0 1-3-1c-.5-.5-.5-.5.1-.8.4-.1 1.2-.2 1.7 0 1.3 0 3.9.8 4.3 1.1.5.4 2 .8 3.8 1 7.1 1 8.8 1.4 8.3 2.1-.2.3-3.6.4-4 .2zm-129-1c-.4-.4-.1-1 .7-1.4.8-.4 1-.3 1 .4s-1.3 1.4-1.7 1zm103.4-.4c.1-.4 1-.8 4-1.5 2-.4 2.3-.4 2.3.4 0 .7-2.5 1.6-4.8 1.6-1.3 0-1.5-.1-1.5-.5zm-264.6-2.3-2.2-1c-1.1 0-2.6-.5-2.8-1-.5-1 0-1.9 1.2-1.9 1 0 4.4 1.1 6 2 1.2.5 1.6 1.5 1 2.2-.5.8-1.2.7-3.2-.3zm271.8-.3c-.4-.2-.4-1 0-1.6.5-.6 1.6-.3 1.5.5-.1.6-1 1.3-1.5 1zm11.7-3c-.3-.5.1-1.3.7-1.5a23 23 0 0 1 3.4-.2c2.9 0 3.4-.2 2.6-.9-.4-.4 0-1 .9-1.5a7 7 0 0 1 3-.5 9 9 0 0 0 2.6-.2c.7-.4 7.5-1.1 8.3-1 .6.2 1 .8.6 1.3-.2.2-1.5.4-5.2.6-2.7 0-5.2.3-5.5.4l-1.7.6-1.8.4c-.9.2-.7.6.2.7 1.6.1 1.2 1.4-.5 1.3l-3.6.3c-3.1.5-3.8.5-4 .2zm-4.8-.5c-.5-.2-.4-1.2.2-2 .6-.8 2.8-1.9 3.3-1.7.6.3.4 1-.3 1.1-1.3.3-1.4.4-1.8 1.5-.5 1-.8 1.3-1.4 1.1zM232 277l-.4-1-2-2.5c-.9-1.1-1.6-2.2-1.6-2.4 0-.6 1-1.4 1.7-1.4s1.1.5 2.7 3.6c.6 1.4.9 2.2.8 3 0 1-.7 1.4-1.2.7zm131.9-2.7c-.6-.4-.6-.9.1-1.2 1-.3 2 0 2 .8 0 .5-.2.7-.8.7-.5 0-1 0-1.3-.3zm-3.8-.3-1-.2c-.7-.2-.9-.5-.5-1.1.2-.3.6-.3 1.8 0 1.9.3 2.3.6 2 1 0 .4-1.5.6-2.3.3zM222 272.4c-.6-1.5-.6-2.1-.1-2.6s1-.5 1.5 0c.6.6.8 1.6.4 2.5-.4 1-1.4 1.1-1.8 0zm-181.7 0a64 64 0 0 0-2.1-.6c-1.6-.4-2.6-1.3-2.4-2 .2-.6.4-.7 1.8-.7.8 0 2.1.2 3 .5l2.3.7c1.5.4 2 1.5 1 2-.8.5-2.3.5-3.6.1zm346.4-.5a44 44 0 0 0-5.4-1.3c-1.6-.3-1.9-.4-2.3-.8-.7-.7-.2-1.2.9-.9 2.2.5 5.3 1 7 1.2 2 .2 3 .8 2.7 1.6-.2.4-1.1.4-3 .2zm-368.1-.6c-.6-.4-.8-1.5-.3-1.8l.2-.7c0-.4-.1-.5-.8-.4-1 .1-1.4-.6-.5-1.1.4-.2.6-.2.8.2.5.7.7.7.9 0 .1-.5 1.3-.8 2-.3s.7 1 0 1.3c-1 .3 0 .6 2.8.7l3.1.4c.6.2.7.8.2 1.4-.4.6-.7.6-4.1.7-3 0-3.8 0-4.3-.4zm30.4-.2c-.5-.5-.1-1.4.7-1.8.8-.4 3.3-.7 5.6-.8 1.4 0 1.5 0 1.5.7.2 1-.7 1.5-3 1.5-1 0-2.3.2-2.9.4-1.3.5-1.6.5-2 0zm369.3.3c-.1 0-1.3-.3-2.7-.4l-5.6-.7a122.8 122.8 0 0 0-13.4-.9c-1.6 0-3.8-.3-4.8-.8-1.4-.7-7.6-2-7.9-1.6l-2.2.5c-5.3.8-6.3 1-7 1.8l-.7.8h-4.2c-4 0-4.4 0-6-.8a5.3 5.3 0 0 0-3.5-.6l-6.1.2c-3.4 0-4.3 0-4.6-.4-.3-.3-.3-.4 0-.8.4-.4 3-.6 4.4-.4.7 0 2.7-.3 2.7-.5 0-.3-2.5-1.3-3.8-1.5-.8-.2-1-.3-1-.8 0-.8 1-1.4 2.1-1.4 1.2 0 1.9-.7 1.9-1.8s-.9-2-2.4-2.6l-1.7-.7c-.3-.2-1.5-.4-2.8-.5-2.4-.3-3-.5-3.3-1.3-.3-.8 0-1 1.2-1.4a15 15 0 0 0 2.5-1c1.2-.6 1.4-.6 4.7-.4 3 .1 3.4.1 4-.3 1-.7 3-1.4 3.7-1.4.4 0 1 .1 1.4.3.4.3 1.6.5 2.6.7 2 .3 2.8.8 2.3 1.6-.4.6-2.9.7-5.2.1-2-.4-2.5-.4-4.7.4-1 .4-2 .6-4 .6-1.8 0-2.6 0-2.8.4-.3.3 0 .4 1.5.9l3.5 1.3c1.9.9 2.8 1 3.5.4.4-.2.7-.3 1.2-.1 1 .3 3.2.7 3.8.6 1.5-.2 6.8-.2 7.3 0 .7.2 4.2 0 8-.7l5.2-.7 5.3-.7a85 85 0 0 1 13.6-.1c.1.3.1.6-.1 1-.3.3-1.1.4-6.4.5a88.2 88.2 0 0 0-14.4 1.3 18 18 0 0 1-6.4 1 53.7 53.7 0 0 0-11.2 1c-1.9.5-4.2 1.3-5.5 2-.9.5-2 .5-2.2 0-.1-.4-.3-.4-.8 0-.9.6-.8.8.2 1.3l2.3 1c1 .4 2 .6 3.3.6 2.3 0 6.3.7 7.6 1.3 1 .4 1.1.4 3.3 0a38 38 0 0 1 8-1.2c1.5 0 3-.2 3.2-.3.1-.2 1.3-.3 2.6-.3 2 0 2.8.1 5 .9 2.4.7 2.8.8 4.6.6 3.6-.3 4.4-.3 4.9 0 .3.1 1.8.4 3.4.5 1.6 0 3.9.3 5 .5l5 .4c2.7.2 4.2.7 4.2 1.4 0 1-1.1 1.7-1.6 1.2zm-59-9 2-.8 1.5-.4c.4 0 1-.2 1.3-.5l.6-.5-1-.2c-1-.2-1.7 0-1.8.7-.2.5-1.6.8-2.5.5-1-.4-1.7-.1-1.7.8 0 1 .1 1 1.7.4zm-15 8.7c-.6-.3-.4-1.1.6-2 .7-.6 1.2-.8 2-.8 2.2 0 2.9.9 1 1.4-.5.1-1.3.5-1.8.9-1 .7-1.2.7-1.8.5zM29 268.8l-2-.4c-2.2-.2-2.8-.8-1.7-1.7.8-.6 4.4-.7 5.6 0 .8.4 1 1.1.4 1.6-.5.4-2 .7-2.3.5zm179.6-.9c-1-1.3 2.6-3.6 3.8-2.4.7.7.3 1.5-1.1 2.2-1.5.8-2.2.8-2.7.2zm14.7-4.7c-1.3-1.4-.1-2.3 1.7-1.4 1.8.9 1.8 2 0 2-.7 0-1.2-.1-1.7-.6zM38.1 262c-.3-.3-.6-.8-.7-1.2-.2-1 0-3.3.6-4.4.2-.5.4-1.2.3-1.4-.2-.5-1.4-.5-3 0l-2.3.6-2.2.7c-.6.2-1.6.4-2.2.4-1 0-1.4.2-2.5 1.1a9 9 0 0 1-5.2 2.4 60.9 60.9 0 0 1-9.5 1H6.1l-1-.7c-1-.6-1.1-.8-1.1-1.7 0-.5.1-1.1.4-1.3.3-.3.3-.4-.2-1-.5-.5-.5-.7-.3-1.2.5-1.1 1.5-1.6 2.9-1.4 1.5.2 2.7.8 3.6 1.8l.7.8 1.9-.3c1-.1 2.6-.5 3.4-.7 1.2-.4 1.5-.4 2 0 .6.2.8.5.7 1 0 .8 0 .8.8.6.5 0 1.5-.4 2.4-.8 1.1-.6 1.5-1 1.8-1.6.2-.7.6-1 1.4-1.4l1.4-.6c.3 0 1.8-1.5 2.2-2.3.3-.7.4-2.2 0-2.2l-1 .8c-.9 1-1.3 1-2 .5-.5-.4-.5-.5-.1-1.4l.7-2.1c.2-.6.6-1.6 1-2.1l.6-1.2c0-.9.8-1.7 2.5-2.6 2-1 2.3-1.4 1.6-2.2-.6-.6-1.2-.6-1.8 0-1 1-2.3.7-1.9-.5a7 7 0 0 1 2.6-2.8c.7-.4.8-.5.6-1.4-.2-1 .4-2.3 1.2-2.7.4-.2.8-.2 1.6.2.8.3 1.2.4 1.5.2.7-.5 1.2-2.2 1.2-4.4 0-1.6 0-2.3-.6-3.3-.6-1.3-.6-1.4-.2-2 .7-1.2 1.6-1 2.8.6.8 1.1 1.6 1.6 1.6 1.1l.3-2.4c.1-1.7 0-2.5-.2-3-.8-2.1-1.2-3.6-1.2-5s0-1.7-.8-2.7a20 20 0 0 0-4-4.3c-5.7-3.3-6.5-4-6-5.4.2-.5.2-.9-.1-1.7-.2-.5-.6-1-.7-1-.2 0-.4-.2-.5-.5-.5-1.5.7-2.5 2-1.7 1 .6 1.2.5 1.2-.8 0-1.4.2-2 1.9-3.8A9 9 0 0 0 34 189l-.5-.7c-.3-.3-.5-.8-.5-1.2 0-.7-.2-.9-1.4-1.5-.8-.3-1.7-1-2-1.3-.4-.6-.6-.6-1-.4-.4.2-1 .3-1.4.3-.6 0-.8.1-.8.5 0 .8-.5 1.2-1.5 1.3-1 .2-1 .2-1.2 1.5-.1 1-.2 1.4-.8 1.6-.3.2-.8.7-1 1.2-.1.5-.6 1.2-1 1.6-.8 1-2 3.2-3.2 5.7l-1 2 .4 2c.5 2.9 1 2.5 1-.9 0-1.5.2-3 .3-3.3.3-.5 1.6-1.3 2.1-1.3s1.6 2.1 1.6 3.1c0 .6.3 1.6.8 2.3.7 1.3.7 1.4 2 1.4 1.2 0 1.3 0 1.8.9.6.9 2.1 2.5 5.5 5.5l1.8 2c0 .7-1 1.5-1.8 1.5-1 0-2-.5-2.3-1-.2-.6-2-2.4-2-2 0 .2.3.8.7 1.3 1.2 1.8 1.6 4.4.7 5.2-.9.8-1.7.6-3-.9a6.7 6.7 0 0 1-1.8-4c0-.3-.3-1-.7-1.3l-.7-.6.1.8.5 2.4c.5 2 .2 3.5-.8 4-.8.4-1.4 0-2-1.1-.5-1.1-.9-1.4-.9-.7 0 .2-.4 1-1 1.6l-.8 1.3c0 .2-.5.3-1 .3-1.2 0-1.4-.6-1.4-3.6l-.1-2.4c-.1-.1-2.6-.2-5.5-.2-5.8 0-6 0-5.2-1.4.5-.7 1.6-1.3 3-1.6 1.6-.3 1-.7-1-.6H5c-.6-.4-.5-1.7.1-2.4.4-.6.8-.7 3-.8l2.4-.1.3-1.9c0-1 .4-2.5.7-3.2l.5-2c0-.8 1.8-4 2.7-4.7.4-.4 1-1 1.4-1.2a8 8 0 0 1 1.5-1c.4-.3 1-.8 1.2-1.3.3-.7.4-1 .1-2.2l-.4-1.4-.8.4c-.7.5-2.2.2-2.5-.4-.4-.8 0-2 .8-2.8.6-.6.9-.7 1.9-.6 1 0 1.1.2 1.4.8.1.5.1.9-.1 1.3-.3.4-.3.5 0 .5s.5-.1.6-.3l1-.4c1-.2 1-1.2 0-2.2-.5-.4-1-1.2-1.1-1.9-.2-.8-.4-1-.6-.9-2.2 1.6-2.6 1.8-4.4 1.7-1.9 0-2.4.3-2 1.2 0 .2-.1.8-.4 1.4a4.3 4.3 0 0 0-.3 3.6c.3.5.2.8-.1 1.4-.4.8-.6.9-1.5.9-.8 0-1.1 0-1.2.4a36.3 36.3 0 0 1-1.2 3.2c-.1.4-.6 1-1.1 1.2L4.7 196c-1.5 1-2.4 1-2.5-.3 0-.6 0-1 .6-1.3.4-.2.9-.9 1-1.4l1-1.8c.4-.4 1-1.3 1.2-1.8.3-.6 1-1.6 1.6-2.2a7.3 7.3 0 0 0 1.9-5c0-.6.2-1.5.5-2.2l.6-1.2-1-.1c-.7 0-1.2.1-1.5.5-.6.6-1.3.7-2.1.2-.3-.2-1.5-.3-3-.3-2.2 0-2.3 0-2.6-.7-.5-.9 0-1.8 1-2 .7-.2 1-1 .3-1-.5 0-1-1-.8-1.6.2-.6 1.4-1 3-1h1.4l-.7-1.5a4 4 0 0 1-.6-2c.1-.6.1-.6-1.5-.6-1.8 0-2.6-.4-2.5-1.3a247 247 0 0 0 .4-7.8c.2-.3.8-.3 1.4 0 .4.3.7.2 1.3 0l.7-.5h-1a3 3 0 0 1-1.8-.5c-.5-.5-.5-.6-.2-1.3.3-.7 1.2-1.4 1.9-1.4l1-.5c1-1 4-.6 4.7.5.3.5.6.6 1.5.4 2.1-.4 3.3 0 3.3 1 0 .9-.8 1.3-2.9 1.2-1.7 0-2 0-2 .4-.1.3.1.6.7 1 1.4.7 1 2.4-.8 2.9-1.2.3-2.6 1.4-2.6 2 0 .2-.4.6-1 .9-.5.4-.6.5-.3.5s.8-.2 1.1-.4c.4-.3 1.2-.4 1.8-.4l3.3.1c2.3 0 2.9.3 2.6 1.2-.2.6-1 1-2 .9-.7-.1-3.4.5-3.4.7 0 .1.7.5 1.6.8 1.3.5 1.6.7 1.7 1.3 0 .4.3 1 .4 1.3.2.3.3.9.2 1.2-.2.8 0 .9.8.5.6-.3 3.7-1.3 4.8-1.5 2.1-.3 2.5 1.5.5 2-1.8.5-3.1 1.1-3.1 1.5 0 .2.2.3.5.3s.6.3.8.6c.2.3.5.5 1 .5s1.2-.2 1.5-.5c1-.8 1.3-.7 2.6.4 2.3 1.9 2.3 1.9 2.3 3 0 1 0 1 .7 1l1.2-.5c.8-.4 1.9-.2 2.9.5 1.3.9 1.7.6 1.9-1.4.1-1.6 1-3.4 1.7-3.7 1-.3 1.6.3 1.6 1.5 0 .9.1 1 .4.8l.7-1.2c1-2.4 1-2.5 2-2.5s1.3-.4 1.5-1.6l.6-1.7c.6-1.2.5-5-.1-6.3a5 5 0 0 1-.6-1.4c0-.2 0-.4-.2-.4s-.3-.3-.3-.7c0-.3-.1-1-.3-1.2a13.3 13.3 0 0 0-4-3.6l-.7-.7v1.1c0 1.7-.9 2.2-2 1.3-.3-.1-.4-.7-.4-1.2 0-1-.5-2.2-1.8-3.7-2.3-2.9-2.7-3.8-2.2-4.8.4-.8 1.1-5.2 1-6-.2-.4 0-.8.5-1.4l.6-1c0-.2.4-.7.7-1.1 1-1.1.6-1.6-.7-1-1.4.4-1.9.1-1.7-1 0-.6.2-1.4.3-1.7.2-.6.2-.6-1.1-.4-1.3.1-1.4.1-2.4-1-1-1-1.7-1.3-2-.8-.1.2-.7.4-1.4.5-.9 0-1.2.3-1.2.6 0 .7-.7 1.5-1.6 1.7-.4 0-1.2.4-1.6.8-1 .9-2 .9-2.5 0-.4-.6-1.4-3.2-1.4-3.6 0-.5 1.2-1.3 2-1.3.5 0 1-.3 1.7-1l.9-.9 2 .2c1 0 2.2.2 2.4.3.3 0 .5 0 .5-.3 0-1.1 1.7-1.6 2.5-.6 1 1 1.4 1 2.8.6 1.3-.5 1.4-.5 2.2.1.6.5 1 .6 1.5.4 1-.3 6-.2 6.6.1.3.2.5.6.5.8 0 .5-.5.8-4.2 2.5-.4.2-.7.6-.7.8-.1.4 0 .5.8.5 1.1 0 1.6.6 1.1 1.5-.1.3-.8 1.2-1.5 1.9l-1.1 1.3v2.2c0 1.8-.2 2.4-.7 3.3l-.6 1 1 1.5 1.8 2.8c.4.7 1 1.4 1.2 1.5.6.2.7.4.6 1.4 0 .4.2.6.8.9 1.4.5 1.7.6 2 1.3l.6 1a13 13 0 0 1 1.6 3.2l.7 1.6c1.3 2.7 1.6 5.2 1 6.7l-.9 2.3-.6 1.7-.3 1.3c0 .7 0 .8.7 1 .8.2 1.5 1 1.5 1.6 0 .6-.4.7-1.9.6-1-.2-1.2-.1-1.4.4-.4 1.1-1.7 1.9-1.7 1 0-.6-.6-.5-1 .1l-1.7 1.5c-1 .6-1.3 1-1.3 1.6 0 .8.2.7 2.6-.2 1.5-.5 4-.7 5-.4.6.3.5 2-.2 2.2-.3 0-.5.2-.5.3 0 .2-.3.3-.7.3-.7 0-1.5.5-1.2 1l.8.3c1 0 1.6.8 1.6 1.5 0 .8-1.7 2.5-2.4 2.5-.5 0-1.1.6-1.4 1.3 0 .3-.6.7-1 .9-1 .4-1.2.9-.7 1.4.2.2.3 1 .3 1.9 0 1.3-.1 1.5-1 2.2-.4.4-1 .7-1.1.7l-.4.2c0 .3 1.7 2 2.2 2.3.3 0 .7.5 1 1 .5.9.6 1 1 .4l.8-.4c.3 0 .6-.1 1.9-.8.3-.1 1.7-.3 3.1-.3 3.4 0 3.8-.3 2.7-2-.4-.8-.5-.9-1-.6-.4.3-.7.3-1.4 0a10 10 0 0 0-3.2 0c-2.6.2-3 .2-3.2-.6-.3-.8.8-1.6 1.8-1.4l2 .3c1.1.1 1.3 0 1.3-.3 0-.2 0-.4-.2-.4s-.3-.4-.2-.9c0-.8 0-.8 1.3-1 1.5 0 1.5 0 .6-2.9-.4-1.6-.5-5.2-.2-6.5.2-.6.1-1.6-.2-3.4-.6-2.7-.4-3.5.6-3.2.6.2.7-.2.3-2.7a8.2 8.2 0 0 1 0-3.2c.2-1 .2-1.4-.5-5.7-.2-1.4-.4-3.7-.4-5 0-2 0-2.4-.5-2.8-1-.9-1-2.4-1-13.2 0-7.4.1-10.7.4-11 .4-.7 0-3-.8-3.7-.3-.3-.5-.7-.5-.9 0-.5-.5-.6-2-.3-1.1.2-2.6.1-5.1 0l-5.7-.4c-1.2 0-2.4-.2-2.6-.3-.6-.5-2-.7-3.8-.4a103.2 103.2 0 0 1-16.1.3c-2.7.8-5.2-2-3-3.2.6-.3.9-.3 2.6.1 1.6.5 2.1.5 4.3.2 3.8-.5 8.5-.4 10.3 0 1.9.6 4.8.4 5.6-.3.3-.2.8-1 1.2-1.8.4-.8 1-1.7 1.3-2 .3-.2.8-1.1 1.1-2 .3-.8.7-1.8 1-2.1 1-1.8 1.2-2.7 1.3-4.6.1-2 0-2.5-.6-1.5-.4.6-1.4.7-1.5.2v-5.6c0-5.2 0-5.4-.8-7-.4-1-1-2.3-1.1-3-.2-.8-.5-1.5-.8-1.8l-.9-1.5c-1-2-2.3-3.6-5-6.4-3.3-3.3-5.5-4.8-7.1-4.8-1 0-1.5-.2-3.1-1.3-1.1-.8-2.2-1.4-2.5-1.4-.2 0-.8.3-1.2.7-1 .9-1.4.7-1.3-.5 0-.7-.1-1.2-.4-1.4a.9.9 0 0 1-.3-.8c0-.3.4-.5 1.2-.6 2-.1 8.5 2 9.8 3.3.1.2 1 .6 1.8 1s1.8 1.1 2.2 1.5c.4.5.8.8 1 .8.2 0 .5.2.7.5l1.4 1.1 2.8 2.8c2.7 3 4.6 7 5.9 12.3l.9 3.7c1.2 4.9 1.4 8.6.7 11.9-.6 2.8-1.8 6-3.1 8-.6.7-1 1.8-1.2 2.3-.3 1.6 0 1.6 7.4 1.5h6.6l.6.6c.4.6.5 1 .3 2l.1 2c.2.2.1.8-.1 1.4-.3 1-.3 1.2 0 1.6 1.4 2 1.3 1.1 1.5 12.3a383.8 383.8 0 0 0 .8 18.5l.4 1.9c.2.3.3.8.3 1.2 0 .4.2 1 .4 1.3l1 2.2.8 2.4c.2.4.5 1.4.6 2.3 0 .8.4 2 .7 2.7.3.6.5 1.3.5 1.6 0 .6 1 3.5 1.9 5.3l.5 1.4.5 1.2c1.5 2.9 2.7 5.5 2.7 6 0 .6.5 1.8.8 1.8l.2.4c0 .5 1.8 3 3 4.4 1.2 1.3 2.4 1.6 4.4 1.3.9-.2 2.3-.3 3.1-.2a19 19 0 0 0 6.8-1c1.5-.6 2.5-.4 2.9.5.2.5.2.7 0 1-.3.3-.3.6-.1 1 .2.3.2.6 0 .8-.5.6-2.3.8-3 .5-.3-.2-2.2-.4-4.4-.5-5.8-.1-6.4 0-7.3.4-1 .5-4.3.5-5 0-.8-.5-.8-1.4-.2-1.7 1-.3 1.1-.6.8-1.2l-.7-1c-.6-.5-1.4-1.7-2.2-3.1a9 9 0 0 0-.8-1.4l-1.5-2.5a60.4 60.4 0 0 1-2.9-6.8 17.2 17.2 0 0 1-1.9-5c-.2-.3-.4-1.3-.5-2.2-.2-.9-.4-2-.7-2.4l-.4-.8v.7c0 .8-.7 1.7-1.3 1.5-.5 0-.5-.2.6 3.9l.5 1.3.2.9c0 .3.2.6.3.7.1.1.3.5.3.8 0 .4 0 .7.2.8l.4 1.4c0 .8.3 1.4.8 1.9.4.4.7.8.7 1l.8 1.3.8 1.3c0 .1 1.8 4 2.4 4.9a4 4 0 0 0 1.8 1.7c.2 0 .6.5.8.8.5.9 0 1.6-1 1.7-1 .1-1.4.5-1.4 1.4 0 .7 0 .8-.8.7-.8 0-1-.2-1-1l-.4-1-2-.2c-1 0-2.2-.2-2.7-.3-.7-.1-1.3 0-1.7.2-.5.2-.9.2-1.7 0-.9-.3-1.5-.3-3 0l-1.8.5L39 205l1.6 2 1 1.3c.4.4 3.3 6 3.6 7.3a3 3 0 0 1-.3 2.5l-.7 2.9c-1 4.5-1.3 5.4-2.4 6.1-.3.3-.8 1-1 1.6l-1.3 3.8c-.2.6-.7 1.5-1.2 2a6 6 0 0 0-1.1 2l-.6 2.2c-.1.6-.7 1.6-1.2 2.3-1 1.4-1.3 3.2-.4 3.8.3.2.6.7.7 1 .1.7 0 .9-.6 1.4-1 .6-2 2.8-1.7 3.2.3.3 7.3-.9 8.2-1.4.5-.2 2 .5 2.8 1.3.3.4.8.6 1.5.6.8 0 1.1.1 1.6.8.6.7.9.8 1.9.9 1.6.1 2.2.3 2.6 1 .6 1.2-.7 2.3-3 2.3-.7 0-1.3 0-1.3.2 0 0 .4.7 1 1.3.7.9 1.1 1.2 1.6 1.2.9 0 1.5 1 1.2 1.8-.1.7-1.4 1.3-2.3 1.3-2 0-5.4-3-5.4-4.8 0-.3-.2-.8-.5-1l-.7-1c-.7-1.5-1.2-.9-1.4 1.8-.4 4.8-.5 5.1-1.3 5.5-1 .4-1 .4-1.7-.2zm-30.3-5c0-.2-.3-.3-.5-.3s-.5.1-.6.3c0 .1.2.2.6.2.4 0 .6 0 .5-.2zm22.1-11c0-.2-.1-.4-.3-.3l-.2.4c0 .2 0 .3.2.3s.3-.2.3-.4zm-9.8-33c0-1-.3-2.3-.6-2.3-.2 0-.3.9 0 2 .2 1 .6 1.2.6.3zm-.5-3.2c0-.3-.1-.8-.3-1-.2-.3-.2-.1-.2.6 0 .6 0 1 .2 1s.3-.3.3-.6zm-4-3.5c0-.3-.1-1-.3-1.3l-.2-.8-.7.7c-.8.7-.8 1.2 0 1.7 1 .5 1.2.5 1.2-.3zm-8.4-29.5c.3-.1 1.4-.8 2.3-1.6l1.7-1.3H10c-1 0-1.3.3-2 1-.7.8-.9.8-2.5.8-2.6 0-3 .3-1.2.9 1.6.5 2 .6 2.9.2zm205.1 84.8c-1-.7.5-2.2 2.1-2.2s1.8 1.6.3 2.2c-1.1.5-1.7.5-2.4 0zm-6.9-1.7c-.3-1 .6-1.8 2.4-2.4 2-.6 2.6-.5 2.5.5 0 .5-.3.8-1.2 1-.6.3-1.4.7-1.7 1-1 .6-1.7.5-2-.1zm1.2-6.1c-.7-.4-.6-1 .3-1.5.9-.4 1.7-.5 2 0 .3.4-.1 1.1-.8 1.5-.8.3-1 .3-1.5 0zM5.3 251.6c-1-.5-1.2-.8-1.3-1.5 0-1 .5-1.9 1.3-1.9.2 0 .6 0 .8-.2.6-.4-.2-1-1.4-1.1-1-.1-1.1-.2-1.2-.8-.1-.9.5-1.5 1.8-1.8 1.3-.4 1.4-1 .3-1-.6 0-1.1-.4-2-1.3l-1.4-1.9c-.4-.6-.3-.7.6-1.5 1-1 2.1-1.2 3.7-.6.6.2 1.2.2 2 0 1-.2 1.4-.1 2.4.2 1 .4 1.8.4 3.3.3a8 8 0 0 0 2.4-.4c.2-.1.4-.7.6-1.2.2-.8.6-1.2 2.3-2.4 1-.7 2.6-1.7 3.3-2 1.4-.8 1.7-1.6 1.4-3.5-.2-1.4.4-2 1.7-2 .5.1 1 1.6 1 3 0 2.3-1.8 5.8-4 7.4-.5.4-1 1-1 1.2-.3.9-1.7 1.9-3.2 2.3-.9.2-1.8.7-2.5 1.3-.7.6-1.4 1-1.5 1l-1.4.7c-.5.4-1.3.7-1.7.8-.4.1-.8.3-.8.5 0 .3.4.3 1.3.2 1.2-.1 1.4 0 1.7.5.5.7.3 1.4-.7 1.9-.8.3-.9.8-.2.6.8-.1 2 .6 2 1.3 0 .9-.8 1.4-2.7 1.7l-2.6.6c-1.3.4-3 .2-4.3-.4zm74-1.1c-.8-.7-.7-1.5.2-2 .9-.3 7.5-.4 7.7 0 .3.5-.2 1.3-.9 1.5l-2 .5-2.9.5c-1.4.1-1.6 0-2.2-.5zm266 .3c-.6-.5-.5-1.1.2-1.4l3.2-.4c3-.2 5.4-1 5.5-1.6 0-.2-.2-.6-.6-.9a33.8 33.8 0 0 0-10.6-2.2c-1.4 0-1.8-.7-1-1.3.6-.5 4-.2 7 .5l2.4.5 2.4 1c1.5.7 2.1 1.2 2.3 1.7.8 1.8-1.6 3.3-6.5 4-1.1 0-2.5.3-3 .4-.7 0-1 0-1.4-.3zm-305-3.2c-.4-.7 0-1.7 1-2l4.8-.1c3.6 0 4.2 0 4.1-.4 0-.4-.7-.4-3.8-.3-3.6 0-3.8 0-4-.5-.3-.4-.2-.6.3-1.2.6-.5 1-.6 3.4-.8 1.5 0 3.2-.3 3.8-.5 1.3-.5 5.7-1.3 9.2-1.6 1.4-.2 1.5-.1 2.1.5.6.6.9.7 1.6.6a562 562 0 0 1 4.7-1 13 13 0 0 1 3-.6c1.3 0 3-.3 3.8-.3 1.5-.2 3.8.4 6.2 1.5.6.2 1 .2 2 0 2.6-.6 2.9-.6 3.3-.2.3.3.4.7.3 1.1 0 .5 0 .6.4.6s.7-.3 1-.9c.4-1 .7-1.2 2.3-1.2 1 0 1.3.1 1.7.8.5.6.8.8 1.5.8 1 0 2.6-.4 3.8-1 .7-.3 1-.3 1.6-.1.9.3 5.9.7 9.4.6 1.7 0 3 .1 3.8.4 1.2.4 2.7.5 2.7.1l-1.2-.4c-1.4-.2-2-.5-2-1.2 0-.3-.2-.6-.4-.8-.5-.4-.5-1.1 0-2.2.3-.5.4-1 .3-1.7-.2-.8-.2-.9-1.2-.9-1.2 0-2.5-.5-2.9-1.2l-.2-2.2c0-1.2-.2-2-.6-2.9-.6-1.4-1.6-5-1.6-6 0-.3-.3-1.3-.8-2l-.8-2c0-.4-.2-1-.4-1.4-1.1-2.2-.8-4.3.7-4.7.4 0 1-.4 1.2-.7.4-.7 2.1-1.5 3.2-1.5.5 0 .6 0 .6-.6 0-.7-.5-1.2-2.2-2a5 5 0 0 1-1.7-1.2c-.2-.4-1-1-1.7-1.3-.7-.4-1.4-1-1.8-1.5-.7-1.2-1.6-2-2.5-2.2-1.2-.3-5.2-2-6-2.6-1.2-.8-4.2-3.6-5-4.6-1-1.5-2.7-5-2.7-5.9 0-.6-.3-1.1-.7-1.4-.3-.3-.6-.8-.6-1.3 0-.9 0-1-.7-.3-.3.3-.4.3-1 0L80 184l-2.4-2c-1-.8-1.6-1.2-2-1.2-.7 0-.8 0-.6 1 .1.6 0 1.3-.1 1.6-.4.7.3 3 1.1 3.9l.6.6 2-.4c3.2-.6 5.3-.2 5.3 1 0 .6-1.2 1-2 .7-.7-.2-4.3.3-5 .7-.2.2-.7 2-.7 3s-.7 2.2-1.2 2.2c-.8 0-1.8-2.4-1.8-4 0-.7-.2-1.3-.9-2.3-1.8-2.6-2.2-3.2-2.5-4.3-.1-.7-.5-1.6-.8-2-.5-.6-.6-1.2-.6-2.7v-1.9l1.1-1 2-1.5c1.3-.6 4.4-1.2 4.6-1 0 .2.3.3.6.3.2 0 1.3.4 2.3.9 1.9 1 2 1 3.8 4.5.6 1.2 1.3 2.4 1.6 2.6.5.5.5.5 1-.5.1-.6.6-1.6 1-2.4.6-1.1.7-1.7.8-4l.2-3.8c.1-.8 0-1.3-.1-1.3-.6 0-1.8.8-2 1.3-.2.9-1.1.8-3.1-.1-.7-.4-1.5-.7-1.7-.7-.2 0-.3 0-.3-.2 0-.5-4-1.7-7-2.1-2.7-.4-2.7-.4-3.7-1.5s-1-1.2-.6-2c.5-.8 2.4-2.6 3.5-3.2a20 20 0 0 0 2-1.3l1.6-1 1-.8a4 4 0 0 1 1.1-.8l2-1.2 3.3-2c.9-.6 2-1.2 2.7-1.3 1.4-.3 2.5-1.2 2.5-2l.4-2.3c.2-1 .4-2.5.3-3.5V144h-.8l-3 .5a12 12 0 0 1-2.7.3c-.9-.2-2.1 1.4-2.3 2.8 0 .6-.2 1.1-.4 1.2l-.2.7c0 .4-.2 1-.5 1.3a59.7 59.7 0 0 1-5.8 7c-1 .7-4.2 1.2-7.8 1-6.4-.2-6.8-.3-8.4-1.5a43.3 43.3 0 0 1-3.8-3.2c-.8-.4-2-2.5-2-3.5s-.3-1.5-2-3.4c-1.4-1.6-1.5-5.8-.2-8.9.2-.5.7-1 1.1-1.3.7-.4.8-.7 1-2 .4-3.6 1.6-5.4 4.8-7 4-2 8.4-2.3 11-1 .8.4 1.5 1 1.7 1.2.3.6 2.4 1.7 3.2 1.7.3 0 .6-.2.8-.4l1.3-.7 1.6-.7c.3-.2 1-.5 1.7-.6 1-.1 1.1-.3 2-1.8.8-1.8 2-2.9 5.5-5.1l1.2-.8a106.7 106.7 0 0 1 9.6-3.8c.4-.3-.8-1.2-1.6-1.2-.6 0-.7 0-.5-.8.1-.7 0-1-1.9-3.1-2.5-2.9-3-3.8-3.3-6.5-.2-1.8-.2-2.4.1-3l.8-2.7c.7-3 1-3.7 1.4-5.2l.5-1.2-1.2-1.2c-1.4-1.4-3.1-4.4-3.2-5.6 0-.4 0-2.2.2-4 0-1.9 0-3.5-.2-4-.3-1-.2-1.2.5-2.6a16 16 0 0 1 5.3-5c.8-.5 1.3-1.1 1.7-2 .7-1.5 1.8-2.6 2.5-2.6.8 0 1.7.9 1.7 1.7 0 .6 1.1 3.8 2 5.7l1.3 2c.6.7 1 1 1.7 1 .5 0 1.4.3 2.4.8 1.3.8 1.7 1 3.3 1 1 0 2.3-.2 2.8-.4a14 14 0 0 1 2.6-.7c2-.3 2.4-.6 3.2-3.1.6-1.6.6-1.7.2-2.5-.6-1-.6-3.2 0-4.6.2-.8 1-1.7 2.6-3.1a14 14 0 0 1 2.6-2c1 0 1.7.5 2.4 2l1 2 .9 1.8 1.3 2.2c2.1 3.1 3 8.7 1.6 11.4-.5 1-1.3 5.1-1 5.5l.7.2c1 0 1.3.9.6 1.7-.3.4-.7.7-.9.7-.5 0-.4.3.5 1.3.7.8.8.8 2 .6 1.6-.4 2.7-.9 3.3-1.6.7-.8 2.2-1.2 2.7-.8a38.9 38.9 0 0 1 3.7 7.5c.4.5-.1 3.4-.7 4-.3.3-.4.8-.4 1 0 .8-1 2.5-1.8 2.8-.4.2-1 .3-1.4.3-.4 0-1.1.3-1.6.7-1.2 1-1.7 1.2-4 2-1.6.6-2 .7-2.7.5-.5-.2-1.5-.3-2.3-.3-1.9 0-4-.8-4.5-1.6-.7-1.5 0-2.3 1.4-1.5 1 .5 7 .8 7.6.3.5-.5-.5-1-1.4-.7-1 .4-1.7-.2-2.8-2.2l-.7-1.5.6-.6c.4-.3 1-1.2 1.5-2 1.3-3 2.6-3.9 3.6-2.9l.5.6-.8.8-1 1.6c0 .5-.3 1.1-.5 1.4-.5.9-.2 1.3 1.7 1.8l2 .8c.5.5.9.5 1.8-.2l1.4-.8c.4 0 .9-.7 1.5-2l1-2-1.3-2.7-1.5-2.8-2 1c-2.2 1-3.4 1.1-4 .5-.5-.4-.5-.4-1.2 0-1 .6-1.4.5-2.3-.4-.7-.8-.7-.8-.3-1.6.3-.4.5-1 .5-1.2 0-.8-.9-3.3-1.2-3.3-.5 0-1.5-1.3-1.3-1.7.1-.7-.9-1.6-1.8-1.8-.8 0-1.1-1.2-.3-1.3.9 0 1.2 0 2.3.6l1.1.6 1-1c1.2-1 1.5-2 1.5-4.4 0-2-.6-3.8-1.9-5.7a48 48 0 0 1-3.8-7.2c-.3-.2-.6 0-1.8 1.2-1.6 1.6-2.3 2.8-2.3 4 0 1 .4 1 .8.1.5-1 1.5-1.1 1.6-.3.1.8-.2 2.2-.9 3.7-.3.6-.5 1.9-.6 3 0 1.6 0 2 .4 2.4.7.7.6 1.8 0 2-.3 0-.8-.2-1.2-.5-.8-.6-4-1-5.5-.6l-2 .5c-1 .3-4.5 2.4-5 3.2-.5.5-1.4.4-2.2-.4-.9-.8-1.3-.6-1.3.5s-1 3.2-1.6 3.3c-.7.2-.8-.7-.4-2.2.8-2.4.6-3.2-1.5-7.3a53.8 53.8 0 0 1-3.2-6.7c0-.1-.5.1-1 .5-.3.3-1.1 1-1.8 1.3-1.4 1-4 3-4.6 3.6-.4.4-.5 1-.6 3.3 0 1.5 0 3.3.2 4a15 15 0 0 0 2.5 5.1c.9 1 1.2 2 .8 2.4-.2.2-.2.3 0 .3s.7.5 1 1c.4.7.9 1.1 1 1.1 1 0 1 .9 0 3.4-.4 1.4-1 2.7-1.2 2.8l-.8.6c-.3.2-.5.8-.6 1.7 0 .8-.3 1.8-.5 2.2-.5 1-.5 1.9.1 3.1.3.6.6 1.3.6 1.7 0 .5.2.8.9 1 .4.2 1.2.9 1.6 1.5.8 1.1 1.4 1.5 1 .6a26 26 0 0 1-.3-3.5c-.1-2.9 0-3.1.4-3.4.3-.3.5-.7.6-1.3 0-1.7 2.4-3.2 2.4-1.5 0 .4-.4 1-1 1.5l-1 1 .1 1.8c.3 2.9 1.1 4.3 3.6 6.4l2.3 1.9.2.6c0 .8.4 1 3.3 1 2 0 2.5 0 2.6.3.3.6-.5 1.2-1.4 1.2-1 0-1 .4.3 1 1.3.8 2.3.8 2.5.1 0-.3.5-.6 1-.8.4-.1.7-.3.7-.5l1.5-1.9c1-1.1 1.6-2 2-3.3.6-2 .5-3.1-.8-5.6-.9-1.6-.8-2.8.2-3 .4 0 .7.3 1.4 1.4 1.5 2.4 1.8 3 2 5 .1 1.9-.2 2.8-1.8 5.2-1 1.3-1 1.4-.3 1.4 1 0 .8 1.3-.3 1.6-.1 0-.2.3-.1.6.2.5 1.8.6 4 .2l2.4-.5c1.1-.2 3-1.4 3-2l-.6-.5c-.7-.4-.7-.4-.3-.8.6-.6 1-.6 1.6 0l.6.3c.9 0 6.2-3 6.2-3.4 0-.5-1.1-.8-2.7-.8-2.3 0-5.6-1.4-5.1-2.1.2-.4 1.3-.3 2.3.1.6.4 1.2.4 3 .3 1.3 0 2.8-.3 3.4-.5 1.3-.5 1.7-.2 1.9 1.6.1 1.2 0 1.4-.8 2.4a5 5 0 0 1-2 1.3l-1.2.6c-.3.4 1.5 1 2.8 1 1.4 0 4.2 1.2 6.7 2.8a6 6 0 0 0 1.9 1c.2 0 .9-.5 1.4-1l2.2-1.8c1-.6 1.4-1.1 1.8-2.1.6-1.7 1-2.2 3-3.5.9-.6 1.8-1.4 2-1.7.2-.5.5-.6 1.3-.4.8.1 1 0 1.5-.4.5-.6 2.3-.7 3.4-.2.6.3.8.2 1.4-.1a7 7 0 0 1 2.1-.6c1.4-.2 1.4-.2 2.5 1s2.6 3.8 2.6 4.6c0 .8-.5 1-1.8 1.2-1.1 0-1.2.1-1.3.8 0 .4-.3.9-.7 1.1-.4.3-.5.5-.2 1.1a28 28 0 0 1 1.5 8.6c0 2 .2 4 .4 4.7.6 3 .9 4.8 1.6 10 0 .9.4 2 .6 2.5.2.5.5 1.7.6 2.7.1 1.7 0 1.8-.5 2-2.1 1-4.4-3.3-3.4-6.3.3-1 .3-1.5-.3-4.7-.4-2-.9-4.9-1-6.4a72.4 72.4 0 0 0-1.4-9.8c-.2-1.3-.5-2.6-.7-3l-.3-.8-.7 1c-.7.9-.7 1-.6 2.6.2 1.7.1 2.4-.8 4.3-.4.7-.8 1.8-.8 2.4a13 13 0 0 1-3 5.3c-.7.6-1.4 1-2.5 1.1l-2.4.7c-1.8.8-3.9 1.3-5.4 1.3-2.2 0-2.3.2-2.3 4.3 0 2.6 0 3.8.4 4.9.3 1 .4 1.7.3 3-.2 1.2-.1 1.6.3 2.2.3.4 1 1.5 1.4 2.4.4 1 1.3 2.3 1.8 3 1 1 1 1 1.6.7.8-.4 2.2 0 3.2.7a9 9 0 0 0 4.6 1.7c2.2 0 2.1 1.2-.2 2.2-1.3.6-1.4.6-3 .2-2.7-.7-5-1.8-7-3.4-1.8-1.4-3.8-2.6-4.1-2.3-.2.2.8 2.1 1.5 3 .3.2.7.9.9 1.4.2.5.7 1.2 1.2 1.6l2 1.6c2 1.8 3.4 2.6 4.8 2.9 1 .2 1.5.5 1.7 1 .5.8 1 1 2.6 1.1l1.4.1.4-1.7.5-2.3c0-.2.6-1.3 1.3-2.3l1.2-1.9-1.4-.1c-.8-.1-1.4-.2-1.3-.4v-.4c0-.4 2.3-1 3.5-1 2 0 2.6 1 1.6 2.7-.3.5-.8 1.8-1 2.9a8 8 0 0 0-.3 3.7c.3 2.4 0 3.6-1 4.3-1.1.7-2.7.8-3.8.3-.4-.2-1.3-.6-2.1-.7-1.9-.5-3.7-1.4-5.7-2.9s-2.4-1.5-2.2.1l.6 2.7c.2.8.4 2.1.4 2.9 0 .8.2 1.7.4 2.1.3.7.2 1-.3 2.6l-.6 2.6c0 1.4-1.4 4-2.8 5.7-1.5 1.7-1.8 2-1 1.8l4-.6c3.6-.3 4.8-.2 4.8.6 0 .6-.8.8-4.6 1.1-3.8.3-4 .3-4.4-.2-.6-.7-.7-.7-.9.3-.1.5-.8 1.5-2 2.6-1.8 2-3.1 3-4.3 3.3-1 .2-1 .7 0 .7.5 0 1.2.2 1.7.7.5.5 1 .8 1.2.8.8 0 2 .9 2 1.5a7 7 0 0 0 1.4 2c.6.7 1.4 1.8 1.7 2.4 1 2 2.4 3.4 3.8 4 1.5.7 2.4 1.7 2.7 2.8.2.8-.2 1.2-1.3 1.2-.6 0-1 .1-1.7.8l-.8 1h-2.6c-3 0-3.4-.2-5.4-2.2a11.3 11.3 0 0 1-3-4c-.1-.6-.7-1.4-1.3-1.9-.8-.6-1.3-.8-3.3-1-2.5-.3-4.7-.1-5.3.3-.2.2-.3.8-.3 1.3 0 1.8-1.1 3.4-3.9 6.1-2.4 2.3-2.7 2.5-4.8 3.2-3.1 1-3.4 1.4-4 4.5 0 .8.2 2 1.2 5a31 31 0 0 0 3.7 6.8c.9 1 1.6 3.3 2 6 .3 2.7.9 5 1.2 5.2.9.5 8.2-.9 12.2-2.3.8-.3 2.2-.6 3-.7.9-.1 1.5-.3 1.5-.4 0-.2-.6-.6-1.5-1-2.2-1-2.3-1-2.4-1.6-.1-1 .4-1.2 2.5-1.3 2.1 0 3.9-.5 5-1.3.7-.5 1.4-.5 2.6 0 .4.2 1.8.4 2.9.5 2 .2 2 .2 2.7-.6 1-1.2 2.6-1.9 4.2-2 .8-.1 2.2-.6 3.3-1.1 1-.5 2.2-1 2.6-1l3 .3c3.3.2 8.3-.3 10.9-1.1 2-.7 2.4-.7 5.1-.6l4.5.4c.9 0 2 0 2.6-.2 1.3-.4 1.8-.1 1.7.8 0 .4-.3.8-1 1.1-.8.4-1.3.5-3.5.3l-5.6-.2c-2.5 0-3.2.2-4.3.7-1.5.7-5.8 1.1-10.3 1-3 0-4.7.3-6 1.2-.3.2-1 .4-1.4.4-1.2 0-2.6.6-3.8 1.6-1.3 1-3.1 1.7-4.2 1.4a42 42 0 0 0-2.8-.3c-1.9-.3-2.3-.2-3.3.2-1.2.6-1.2.6-.8 1.8.3.6.3 1 0 1.5-.3.7-.4.7-5 1.7l-4 1c-1.3.5-2.4.6-6.9 1.1-3.9.5-4 .5-3.7 1 .2.2.6.4.9.4l4.1.5c3.9.7 4.4 1 4 2-.3.5-.5.6-1.6.6a43.8 43.8 0 0 0-7.3-.8c-2.9-.2-4.8-.4-5-.6-.3-.5 0-1.3.7-1.7.6-.3.6-.3-.6-.3-1 0-1.2 0-1.4.6-.2.8-.8 1-3.3 1.1-3 .1-4.7.4-6 1-1.1.5-1.3.5-2 .2-.5-.4-.6-.6-.6-1.4.1-1 0-1-.5-.9l-2.8.5-4.5.6c-1.8.3-2.3.3-2.7 0-.4-.3-.5-.6-.4-1.2l.2-.8-1 .1c-1.6.3-2.4.3-4.9 0l-3.6-.3a13 13 0 0 1-3.4-.7c-1.3-.4-2.5-.7-3.3-.6-.8 0-1.5-.1-2-.4-1-.6-3.5-.6-5 .1-.8.4-2 .7-5.1 1-5 .4-6.2.6-10.4 1.6-2.6.7-3.4 1-3.8 1.5-.5.6-.9.7-2.9 1H45l-2.2.1c-1.9.2-2.1.2-2.5-.3zm77.7-8.4s-.4-.4-.9-.6c-.9-.4-1-.4-1-2.2l-.2-2.8c0-.6-.3-1.7-.7-2.5l-.6-1.6a32.6 32.6 0 0 1-3.6-9.9v-1.5l.7-1.8c.4-1.8 3.7-4.9 7.3-7a35 35 0 0 1 3.1-1.5c.5 0 1.5-1.2 1.5-1.8 0-.7 0-.7-2.2-.5-2.4.2-3.7-.1-5-1.2-.5-.6-.5-.6-2.8-.2l-2.8.5c-.5 0-.4 0 .2.8.6.7.7 1 .5 1.8l-.3 2c-.2 1.4-.4 1.7-1.6 1.8-.7 0-1 .3-1.4 1l-1.5 1.9c-.8.8-.9 1-.8 1.7.1.4.3 1.5.3 2.4 0 .8.3 2 .6 2.6a34.9 34.9 0 0 1 2.8 8c.3.5.4 1.2.5 1.4 0 .6.8 1 2 1.3.8.1 1 .3 1 .8l.6 1.6c.3.6.4 1.3.2 2.5-.1 1.6-.1 1.7.6 2.2.3.3 1 .6 1.4.6l1.2.2c.7.4.9.4.9 0zm29.9-29.3c0-.3-1.3-1.3-1.6-1.3-.4 0-.3.5.2 1 .4.6 1.4.7 1.4.3zm-4.7-2c.1-.2.4-.4.7-.4 1 0 1-.7-.1-2.7a11.6 11.6 0 0 0-5.2-5 14 14 0 0 1-2.4-1.5c-.6-.6-.9-.6-3.4-.6h-3.5c-1 .2-1.2-.5-.4-1.6.6-1 2-1.7 3.5-2 .6 0 1.5-.5 2.3-1.2.8-.6 2.3-1.7 3.4-2.3 2.3-1.4 3.9-3.1 5-5.5.5-1 1.3-2.1 1.7-2.5.9-.7.9-.7.4-1.5-.8-1.3-.6-2.1.5-3.1 1-.9 1-1 1-2.3 0-.8-.2-1.8-.4-2.2l-1.5-3c-.9-1.6-1.3-2.2-1.8-2.3-.4-.1-.9-.6-1.2-1a6 6 0 0 0-1.4-1.6c-1.6-1-4.1-3.6-4.3-4.2-.2-.8-.8-1-1.3-.5-.2.2-1.2.3-2.3.4-1.8 0-2 0-2-.6-.1-.8 1.2-1.4 3.1-1.4 1.6 0 1.7-.2.6-2-.8-1.2-.9-1.8 0-2.2.6-.3 1 0 3 1.8 1.8 1.5 3.2 2.4 3.5 2 .3-.2-1-2-2-3l-1.1-1.1-.6-1c-.3-.4-.7-1.4-.9-2.3-.1-.9-.7-3-1.3-4.8a31.6 31.6 0 0 1-1.3-5.3c-.5-1-.5-1-1-.5-.8.8-1.1.3-1.7-2.9-.3-2-.6-3-1-3.6l-1.6-2.2a27.8 27.8 0 0 0-6.2-6.5c-.2 0-1 .6-1.5 1.4-1.4 1.9-2.1 2.3-3.4 2.3-1.4 0-2-.5-2-1.7 0-.8-.1-.9-1.3-1.4l-1.4-.6-.5 1c-.5 1.7-1 2.2-2 2.2s-1.2.3-2.2 3c-.5 1.4-.7 1.5-1.4 1.5-.5 0-.7.1-.7.4 0 .2.2.4.5.4.8 0 .9 1 .1 2.5l-.9 1.5c-.1 0-.3.4-.3.8 0 .6-.3 1-.6 1.1-.8.4-1.6 3.3-1.2 4.4.2.7.2.9-.1 1.2a1 1 0 0 0-.3 1 30.7 30.7 0 0 1 0 8.8c-.4 1.4-1.2 5.6-1.2 6.4 0 .8.5 1 3 1.5 1.1.2 1.4 1.3.3 1.8-.5.3-.9.2-1.6 0-.4-.2-1.4-.3-2.2-.3-1.2 0-1.4 0-2.7 1.3-1.9 1.8-2.7 2.2-3.9 2-1.4-.3-1.8 0-2 1.3-.3 1.7-1 2.8-1.6 2.8-.6-.1-1-1.2-.4-1.7.1-.1.3-.8.3-1.4 0-.9-.1-1-.4-1-.3.1-.4.5-.4 1 0 .6-.2 1-.3 1-.1 0-.2.7-.2 1.7 0 4.3-.5 8-1.3 8.9-.2.2-.6 1.1-.9 2-.5 1.7-.5 1.7 0 2.7.3.5.6 2 .8 3.2l.4 2.4c.4.6.7.2.7-1 0-1.3.5-2.4 1.2-2.4h.4l.2 2.6c.2 2.3.3 2.7 1 3.8a13 13 0 0 0 2.4 2.3l2 1.6c.4.7 4.5 2.1 5.7 2a5 5 0 0 1 2 .6c1 .5 1.6.5 5.3.5h4.2l2.2-1a14.1 14.1 0 0 1 3.6-1.4 13 13 0 0 1 2-.6c1.3-.4 1.5-.4 1.9 0 .6.6 0 1.2-1.4 1.7-1.5.5-1.7.7-1 1 .8.2.7.9-.3 1-1.3.3-.9.8 1 1 1.6.2 5-.1 5.7-.5.2 0 2.1-.2 4.4-.2 4 0 4.1 0 4.8.5l1 .7c.2 0 .7.4 1.1.9.5.5 1 1 1.3 1 .7 0 1.1.4 1.1 1.1 0 .4.2.7.5.8.3 0 .6.4.7.7.2.6.8.7 1 0zM128 192.8c-.5-.2-.5-1 0-1.6.2-.3.4-.8.4-1.2a36.8 36.8 0 0 0 .8-3.7c.3-1.3.3-1.5-.2-2.5l-.6-1.7c0-.4-.4-1.4-1-2.1l-1.3-2.4c-.2-.5-.7-1.4-1.2-2-.9-1.4-.9-2 .1-2.2.6 0 1 .1 1.5.8l1.8 2c3.6 4.2 4.6 6.2 4.6 10l-.1 2.6c-.3.7-1.2.5-1.5-.2-.3-.7-.3-.7-.8.7a9 9 0 0 1-1.5 3.2c-.4.5-.5.5-1 .3zm-17.7-29.4a14.5 14.5 0 0 0-5-2.9c-1.3-.4-2.3-1-2.3-1.4 0-.5 1-.4 3 .3l2.5.7a10 10 0 0 1 3.4 2.4c1.5 1.9.2 2.6-1.6.9zm11.3-1.2a102 102 0 0 1 0-13c.3-.6 1.2-.6 1.6.1.1.4.3 2.5.3 6.2 0 4.9 0 5.7-.5 6.3-.4.8-1 1-1.4.4zm5.5-.5c-.1-1.1.2-2 1.6-4l1.6-2.5-1-1.4-.9-1.3-1.6-2.4a17.7 17.7 0 0 1-2.2-3.7c-.9-1.4-1.4-3.5-1-4.5.5-1.1 1.2-.7 1.6 1 .5 1.7 2 4.5 3.6 7 2 3 3.6 5.5 3.7 6 0 .2-.3.6-.9.8-.8.4-1.6 1.4-2.6 3.4a9 9 0 0 1-.8 1.4c-.5.6-1 .6-1.1.2zm-19.7-15.9-1-1.9-.7-1.4c-.4-.2-.3-1.3.1-1.5.8-.3 3.2 3.3 3 4.6-.1.9-.9 1-1.4.2zm11-1.6c-.5-.4-.8-1.6-1-3.8 0-.7-.3-2.1-.6-3.2-.5-2-.4-3 .5-3 .4 0 .6.3.8 1.4a2057.6 2057.6 0 0 0 1 6.6c.3 1.3.3 1.6 0 2-.3.3-.4.3-.8 0zm-45.7 36.3.6-2.3c.3-1.2-1.2-.4-2.1 1-.5.7-.4 2.1.1 3.1s.9 1.2 1 .5l.4-2.3zm9.7 2.8c0-.4-1-1.5-1.3-1.5-.3 0-.2.2.2.8.5.7 1 1 1 .7zm-2.1-3c0-.7-1.1-2.4-1.5-2.4-.6 0-.6.4 0 1.4.4.5.7 1 .7 1.2 0 .1.2.3.4.3s.4-.3.4-.6zm5-12.8c.5-1.2 1.3-2 2.3-2.5.5-.2 1.1-.6 1.4-.9a2 2 0 0 1 1.4-.5l1.4-.1c.4-.1 1 0 1.6.3 1 .6 1.4.5 2.5-.2.3-.3.8-.5 1-.6.3-.1.7-.5.9-1 .2-.3.6-.8 1-1 .8-.3 1.4-2 .8-2.6-.2-.2-.2-.9 0-2.1l.5-6c.2-2.8.5-4.4.8-5.1a51.6 51.6 0 0 1 3.6-11.4c.2-.4.6-.7.9-.7.4 0 .5-.2.7-1.2.2-2.2.3-2.3 1.8-4l1.8-2.3v-3c-.1-2-.2-2.2-.8-2.3-.4-.1-1.6 0-2.8.2-1.3.3-2.9.5-3.6.5-1.2 0-1.5.1-2.3.8-1.1 1-1.6 1-2 .1-.3-.6-1.2-1.1-1.4-.8-.1 0 .1.8.5 1.6.7 1.4.8 1.6.6 3.8l-.3 3c0 1 .5.9 1.1-.2.4-.6.8-1 1.1-1 .8 0 .7.3-.4 2.5-1.4 2.8-1 3.1.7.7 1.8-2.5 2.1-2.9 2.4-2.7.4.2.3 1.1-.3 2.2-.3.5-.5 1.1-.5 1.4l-.4.8a33 33 0 0 0-3.9 4.8c-.3.7-2.9 2.8-3.4 2.8-.2 0-.4.5-.3 1.3l-.6 2.1c-.7 1.7-.8 2.7-.4 2.7.1 0 .4.4.5.8.3.7.3.9 0 1.5-.6.7-.5 1.3.4 2.4 1.3 1.4.6 2.1-1.3 1.4-.7-.3-.8-.2-.7 1 0 .3-.2.9-.7 1.4-.6.5-.8 1-.8 1.5s-.2 1.1-.3 1.4a711.3 711.3 0 0 0-2.4 5.6c-.5.6-1.3.6-1.3 0s1-3 2.4-5.7l.6-1.7c-.3-.3-2 0-2.9.5a4 4 0 0 1-1.4.5c-.2 0-.8.2-1.3.5l-1.2.5c-.3 0-.6.3-.7.6-.2.3-.4.5-.6.5-.6 0-1 .6-.7 1 .3.3 0 .7-1.5 2-1.4 1.5-1.7 1.8-1.5 2.2.5 1 1.4 1.4 2.4 1.4s1.2.1 1.4.7c.3.8 1.4 1.4 2.7 1.4 1 0 1.1 0 1.5-.8zm10.6-15.8c-.9-.3-1.3-1-1.3-1.8 0-.7 0-.9.7-1 1-.4 1.4-.2 1.5 1l.4 1.1c.3.2-.2 1-.6 1l-.7-.3zm2.4-8.7c-.6-.2-.8-.6-.8-1.3 0-.7.8-1.2 1.7-1 .9.3 2 1.4 1.8 1.8-.2.6-1.8.9-2.7.5zm-28.5 9.7c2-1.2 5-4.5 5.4-5.8.2-.7.2-1.2 0-1.5 0-.3 0-.8.2-1.4a3 3 0 0 0 .2-1.5c0-.4 0-1 .4-1.6.5-.8.5-1 .1-1.7-.5-1-.1-2.1.9-2.6.5-.2.8-.1 1.7.5.7.4 1.4 1.1 1.6 1.6.7 1 1.1 1 .9 0-.1-.6 0-.9.4-1.3 1-1 .2-2.6-1.9-4-1.2-.7-1.5-.8-2.1-.6-1 .4-1.6-.1-1.4-1 .2-.9-.3-1-1.2-.4-.9.7-.7 1.2.6 1.7 2.3 1 1.9 3.3-.5 2.7-.6-.2-.9-.2-1.3.3-.3.3-1 .5-1.3.5-.5 0-1 .2-1.4.6-.5.4-.7.5-1 .3-.4-.2-.5-.8-.5-2.5 0-2.5-.1-2.6-2.5-5.2-.8-.9-1-1-2.1-.8-.7 0-1.6.2-2 .3-.6.2-.9.1-1.2-.4-.4-.5-.6-.5-1.8-.2a9.5 9.5 0 0 0-6 4.8c-.5 1-.5 1.3 0 3.2.1.5 0 .8-.6 1.4-.5.4-1 1-1.1 1.3-.4.7-.4 3 0 3.1l.2.7c0 .6 1.3 3.4 2.1 4.5l.5 1c0 .8 1.2 2 2.1 2.2.9.2 1.3.2 2-.2a25.1 25.1 0 0 0 5.8-3c1.2-.6 2-1.1 5-3.8 2-1.6 2.9-1.8 2.9-.6 0 .7-3.1 3.3-5.8 4.7a2863.5 2863.5 0 0 0-5 2.7c-.2.2-.5.5-.6.8-.2 1 4.7 0 6.1-1.2l1.7-1c1.1-.7 1.4-.7 1.7-.4.3.3.1 1.2-.2 1.2l-.7.4c-.3.3-1.4.9-2.4 1.4-1.8.9-2 1.2-.5 1.4l1 .2c.2 0 1-.3 1.6-.8zM62 137.1c-.3-.6.2-1.3 1.4-1.8 2-.8 3.4-1 4-.4.5.6.3.7-2.2 1.7-2.2.8-2.9 1-3.2.5zM76.4 151l-.2.4c0 .4.1.6.2.4v-.8zm10.3-12c-.2-1.1-.5-1.4-1.2-1-1.2.6-.9 1.9.6 1.9.7 0 .7 0 .6-.9zm48.1-2c-.2-.7-.7-1.7-1-2.2l-.7-1.4-.4-.9a8 8 0 0 1-.7-2.5c-.3-2-.7-3-2-5.2-.7-1.1-.7-2 0-2.2.6-.3 1.2.3 1.7 1.3.3.8.5.9 1.4.9.8 0 1.1.1 1.7.8.4.4.7 1 .7 1.4 0 .4.5 1.1 1.4 2 1.3 1.2 1.6 1.3 2.5 1.3l1-.1-.5-1.2c-.3-.6-.5-1.6-.6-2.2 0-1 0-1 .6-1 .5 0 .8.1 1 1 .7 1.7 1.2 2 2.8 2a4 4 0 0 1 1.5.3c0 .1 0 .6-.3 1-.5 1-.2 1.3 1.7 1.5 1 .1 1.4 0 1.8-.3.4-.4 1-.5 2-.5 2 0 4.4-.9 4.8-1.9.2-.6.1-.8-.2-1-.8-.6-.6-1.5.8-3.1 1.7-2 2-2.8 1.5-4.7-.2-.8-.7-1.8-1-2.2-.8-.9-.7-1.1.2-2.7.8-1.2 1.9-2 2.7-2 .8 0 1.4-.3 1.4-.7 0-.2-.5-.9-1.1-1.6l-1.1-1.2-1.6.7c-1 .4-2 1-2.3 1.3-.6.5-.7.6-.4 1 .3.2.5.8.6 1.3.1.8 0 1-.4 1.1h-1c-.3-.2-1-.3-1.7-.3-1.2 0-1.4.2-1.7 2-.1 1-.4 1.6-1.4 2.6a1104.4 1104.4 0 0 0-2.3 2.4c-.6.5-.6 2.8.1 3.4.8.7.7 1.6-.4 2.2-1.1.7-2 .6-2.4-.3-.4-.8-.6-3.2-.3-4.5.2-.8.2-1-.2-1.1a3 3 0 0 0-1.4.1c-.8.2-1 .2-1.7-.5-.4-.5-.7-1-.7-1.5 0-.9-1.4-1.5-3.6-1.4-1.2 0-2-.1-3.4-.7-2.4-.9-4.5-.9-4.6 0 0 .5-.5.9-1.5 1.3-.7.4-1.5.7-1.7.7-.6 0-2.2.6-2.2.8 0 .2.3.2.6.2 1.3 0 1.7.6 1.6 2.5 0 2 .4 2.8 2.6 4.8 1 .7 1.8 1.7 2 2.1a34 34 0 0 0 3 4.2c.4.5.9 1.2 1 1.7.7 1.3 2 3.1 2.1 2.8 0-.2 0-.9-.3-1.6zm-47.4-1c.3 0 .9-.4 1.1-.7.3-.2 1-.6 1.5-.7.6-.2 1.5-.8 2-1.4.6-.5 1.3-1 1.6-1 .4 0 .6-.2.7-.7l.9-2.6c1.2-3.2.8-5.3-1.3-6.7-.7-.5-1.2-.6-1.8-.5l-3 .6c-1.8.3-4.7 2.3-7.8 5.3a29.8 29.8 0 0 0-2.7 3l.9.5c.5.2 1.4.7 2 1.2.6.5 1.4 1 2 1.2.5.2 1 .7 1.6 1.6.5.9.9 1.3 1.1 1.2l1.2-.3zm32.3-12.7c.2-.2 0-1.7-.3-2-.1-.1-.9 0-1.7.2a362 362 0 0 1-2.3.9c.4 0 .9.3 1.1.7.5.6.6.7 1.7.5l1.5-.3zm-15-6.4h-.5c-.2.1-.2.2.2.2.2 0 .4 0 .3-.2zm60-5.1c.2-.4.1-.6-.3-1-.8-1-1.3-1.1-1.8-.7-.5.3-.5.4.4 1.3 1 1 1.2 1 1.7.4zM107.4 80c.5-.5.1-1-.8-1-.6 0-.8.2-.8.6l.2.6c.3.3 1 .2 1.4-.2zM330 243.7c-.6-.6-.9-.8-2-.8-3.2 0-4.8-1.1-3.6-2.3.6-.7 1.3-.7 2.4-.1.5.2 1.9.5 3.5.6 2.3.1 2.6.2 3 .7.5.6.6.6 3.1.5 2.8-.2 4.1 0 4.1.8 0 .2-.1.4-.3.5-.5.4-3.6.7-6.5.8l-3 .1zm-10.5-2.2a36 36 0 0 0-3-.4c-3.3-.3-4.3-.6-4.3-1.5 0-1 1.5-1.2 3.9-.5.7.2 2.2.4 3.4.4 3.1.1 4.4.7 3.4 1.7-.4.4-2.7.6-3.4.3zm14-6.8c-1.1-.7 0-1.5 2-1.5 1.1 0 1.4 0 1.6.6v.8c-.4.4-3 .5-3.5.1zm-14.4-2a113.8 113.8 0 0 1-10.9-1.4c-1.3-.1-3.6-.6-5.1-1l-4-.9c-.7-.1-1.8-.6-2.5-1-.6-.4-1.7-.9-2.4-1a46 46 0 0 0-11.6.3l-2 .1c-1 .2-1.4.1-2.7-.3-2.1-.8-4-1.4-5.2-1.6l-1.8-.6c-.6-.3-1.2-.3-3 0-5.3.6-6.5.7-8.6.7-2.8 0-4.2-.3-4.2-1 0-.6.4-1 1.1-1.2.5 0 .4-.1-.1-.1-.4 0-1-.2-1.4-.4-.5-.2-1-.1-2.6.2-1 .3-3.5.6-5.5.7-2 0-4 .3-4.4.4-1 .3-1.7 0-1.7-.7 0-1 1.5-1.5 4.7-1.8a14 14 0 0 0 3.1-.5c2.1-.8 2.5-1 3-.6.7.3 5.3.3 6.2 0 .7-.3.8-.4.3-.6h-4.2c-3.4 0-3.7 0-4.1-.5-.2-.2-1.3-.7-2.4-1-3.6-1-4.2-1.1-6.6-.8-1.3.1-4.1.2-6.6.1l-5.6-.1c-1.1 0-1.3 0-1.4-.7-.3-1 .2-1.3 3.1-1.4 2.3-.2 3-.3 4-.9 1.4-.7 3.8-1.1 9.5-1.7.7 0 1.6-.3 2.1-.7l1-.6h-7.2c-7.7 0-8.5-.1-8.4-1.2.1-.5.3-.6 1.2-.5 2.1.1 14.9 0 16.8-.2 1.5-.1 2-.3 2-.6 0-.2-.3-.4-.8-.4-1.9 0-3.5-.5-4-1-.6-.5-1-.5-5.7-.5l-5.1-.1c-.4-.7.4-1 3.2-1.1 2.8-.2 3.5-.4 3.1-.8a22 22 0 0 0-4-.2 56 56 0 0 1-8.3-.4c-1.1.3-1.8 0-2-.7-.3-1 .2-1.2 2.8-1l8.5.3c6.6 0 7 0 5.9-1-.5-.5-1.4-.7-3.6-.8-1.4 0-1.4 0-1.4-1 .1-1.2-.6-1.6-3-1.9-1-.1-2.3-.2-2.7 0l-1.8-.3c-1-.4-1.4-.4-3.2 0a9 9 0 0 0-2.5.6c-.3.2-1 .3-2 .2l-2-.2c-4 .1-8 0-8.2-.3v-.7c0-.3.3-.4 1-.3h1.2c.2-.3 1.1-.3 3.3 0 3 .2 5.3 0 8.8-.7l2-.4-.2-.5c-.4-.3-.6-.4-.8-.2-.4.3-4.3 0-4.7-.3-.4-.4.8-.6 2.7-.6l8-.1c.4-.4.8-2.5 1-5.1 0-2.6 0-3.2-.3-3.4a7 7 0 0 0-2.3-.5 7.4 7.4 0 0 1-2.9-.7c-.7-.5-1.4-.6-4.9-.6-2.8-.1-4.6 0-5.9.3-1 .2-2.4.3-3 .2-.7-.1-1.3 0-2.2.4a7 7 0 0 1-2.4.5c-.6 0-1.5.2-2 .5a6 6 0 0 1-2.4.4c-1.2 0-1.6 0-1.6.3s.3.4.6.4c.6 0 1.1.9.7 1.3-.5.5-1.6.4-2.9-.2-1.7-.8-2.1-1.2-2-1.9.2-.3.1-.7 0-.9-.5-.5-3.9-.3-7 .3l-4.6.9c-1.1.2-2.4.5-2.7.7a91.3 91.3 0 0 1-12 .2c-1.6-.2-1.9-.3-2-.8-.2-.4-.5-.6-.7-.6-.5 0-.6-1-.1-1.2.6-.2 4.1.2 4.6.6.3.3 1.3.5 3.4.5 2.5.1 3.4 0 5.7-.6 3.4-.8 11.6-2 13.3-2 .7 0 1.5.1 1.8.3.3.2.7.2 1 .1a6 6 0 0 1 2 .2c1.5.3 1.7.2 3-.4.7-.4 1.5-1 1.7-1.4.7-1 2.3-1.3 4-1l2 .7c.5.2.8.2 1.4-.1l1.3-.6c.4-.1.5-.4.5-1.3 0-.6.1-1.3.3-1.5.2-.2.2-.5 0-1.3-.4-1-.3-1.3.4-3.7a28 28 0 0 0 1-4l.2-1.5-1.1-.2c-4-.5-4.1-.5-4.1-1 0-.9 1.1-1.3 2.9-1.2 1.5 0 1.6 0 1.8-.7 0-.4.4-1 .8-1.2.6-.5.6-.6.5-4a33.6 33.6 0 0 0-.7-6.2c-.1-.4-.3-.7-.4-.5-.2.4-.9.6-1.4.3-.6-.3-.6-.7 0-1.3.3-.4.5-.4 1-.2.8.3.7.4.7-3.1 0-2 0-3 .3-3.7.6-1.4.6-1.6-.5-2.8-1.1-1.3-1.1-2-.1-3.4s1-1.7.2-2c-.4-.1-.6-.5-.7-1 0-.6 0-.7.8-1 .8-.1.9-.3 1-1.1v-1l-.9.2c-.8.1-1 0-1.2-.6-.3-.6-.3-1 0-2 .6-1.7.6-2.2.3-8-.3-5.4-.2-11.4.3-13.3.4-2 .6-6.4.1-7-.2-.2-.3-1.2-.2-3.7l.1-8c0-4.4 0-5-.4-5.4-.4-.5-.5-.8-.3-1.8.3-2 .5-2.5 1.2-2.5.8 0 .5-.6-.9-1.3-.8-.4-1.4-.6-2.1-.4-.9 0-1 0-1.4-.5-1-1.5.3-2.4 2.4-1.8.9.2 1.3.2 2.3-.1.7-.3 1.3-.6 1.3-.8.3-.8-.1-7.8-.5-7.8-.1 0-.5-.2-.7-.5-.5-.5-.6-2.8-.2-7.2.1-1.7 0-3.2-.1-4.3l-.3-1.6-2-.2c-3-.3-4.2-.9-3.6-1.9.3-.5 1-.6 2.8-.1 1.7.3 2.2 0 2.2-1.5 0-.7.2-1.7.6-2.4.7-1.3.7-1.6.7-5.4l-.1-7.2c-.6-10-.7-13.8-.4-15.2.4-2.8.5-2.6-1-3-.9-.2-1.5-.6-2.3-1.4l-1-1.1-1.9.2a287.3 287.3 0 0 1-32.2-.3c-.3-.2-1.6-.4-3.5-.5l-9.7-.5c-6.8-.5-18.9-.6-28.8-.3-1.4 0-1.8 0-2-.4-.3-.4-.2-.6.2-1 .5-.5 1-.5 5.4-.6l8.6.1c11.3.6 21.4.7 24.4.4 2.5-.3 2.7-.4 2.7-1s.6-1.3 1-1.3c.2 0 .4.4.4.9 0 .8 0 1 1 1l1.8.5 1.5.2c.4 0 1 .2 1.4.5.6.3 1 .4 3 .2 1.3-.2 2.7-.2 3.2 0a184.6 184.6 0 0 0 20.2.3c2.5-.1 5.4 0 6.9.1 6.6.7 9.4.6 9.4-.1 0-.3-.8-.4-3.4-.5L220 13c-4-.3-13.3-.4-15-.1-1.3.2-2.2-.3-1.9-1 .3-.8-.1-.7 14.5-1.1a57.4 57.4 0 0 1 14.4 1c2 .2 2.5.1 3-.2.7-.4 1.5-.5 7.7-.3 3.8 0 8.5.3 10.5.4 2 .2 8.7.4 15 .4 10.9.1 16.7.2 23.5.5 2.6 0 3.2.2 3.8.6 1 .7 1.2.8 2.4.5.7-.1 1.3 0 2 .2 1.4.6 1.7 1 1.4 2.2a69.4 69.4 0 0 0-1.2 13.7c-.2.8-.2 2.5 0 4 .2 3.6-.3 5-1.5 4.2-.3-.2-.5-.8-.6-2.1v-7.4c0-1.3 0-1.6-.5-2-.7-.3-.8-1.1-.4-2.2l.4-3c.2-2 .2-2.4-.2-2.5-.7-.3-1.5.6-1.7 1.8-.3 1.8-1.1 2.1-1.1.4 0-.3-.2-.6-.4-.6-.4 0-1.5 1.3-1.5 1.7 0 .2-.2.8-.5 1.3-.5 1-.5 1.4-.4 6.8.1 5.6.3 7.4.6 7.4 1 0 2.2-1.2 2-2a132.2 132.2 0 0 1 .2-12.2c.7-.7.8.5 1.4 13.8l.2 2.8-.8.6c-.6.4-.8.8-.8 1.4 0 .5.1 1 .3 1 .8 0 4-1.9 5.3-3.1 1-1 1.8-1.5 2.6-1.7a10 10 0 0 0 2-.8c2.1-1.2 5.4-1.9 9.4-1.9 1.6 0 2.4-.1 3.1-.5 1.6-.8 1.8-1.8.7-4.1-.7-1.4-.7-1.5-.3-2.6l.6-2c.3-1.6 1.3-3.7 2.5-5 .5-.7 1-1.4 1-1.6 0-.1.6-.9 1.4-1.6 1-1.2 1.3-1.4 1.8-1.1.3.2.5.4.5.6 0 .5 1.8-.2 2.8-1.1 2.4-2.2 4.7-3.3 5-2.3.3.5.7.5 1.3 0 .7-.7 4.3-1.9 6-2.1.8-.1 1.5-.4 1.6-.6.5-.5 1.5-.4 2.1.4.6.7.6 1.5-.1 3.7-.3 1-.3 1.4-.1 2.4.2.6.2 1.8.1 2.7v1.6a43 43 0 0 1 6.2 6.3c0 .2.2.8.5 1.3l.5.8 1.7-.8c1.4-.7 2-.9 3.5-.9a32.4 32.4 0 0 0 13.5-2.3l2.3-.6c1.7-.5 2-.5 2.6.3.7.9.7 2 0 3l-1.2 2.4-2 4.3c-1.3 2.7-2 5-2 6 0 .6-1.4 3.6-2.4 5.1-.4.7-.4.7 0 1.2.6.6.6 1.8 0 2.8-.2.5-.3 1.1-.2 1.6.2.9-1 4.7-1.7 5.4-.3.2-.5.7-.5 1 0 .3-.3 1-.6 1.4-.6 1.1-.6 1.4.1 2.1.6.6 2.6 1.4 3.4 1.4.7 0 1.2.7.9 1.3-.3.4-1.3.7-3.8 1-.6 0-1.1.2-1.1.4 0 .6 1 2 1.5 2.2.4.1.6.4.7 1.5l.2 2.1c0 .8 1.2 2.6 1.7 2.6.2 0 .5.2.8.5.3.4.4.8.3 1.5l-.2 1 1.3-.2c1-.2 1.5 0 2.3.4l1.4.5c.4 0 1.4 1.4 1.4 2 0 .5-1.3 2.7-1.9 3.3l-2.3 2.7c-2 2.3-2.3 2.6-3.3 2.6s-3 1.5-3.7 2.5c-.8 1.3-1.2 1.5-3.3 1.2-1.8-.3-2.3-.5-3.7-2.1l-.8-1-1.3 1.3c-1.1 1.1-2.4 1.8-3.5 1.8-.6 0-.5.5.3 1.6 2 2.7 2.2 3.5 1 4.2l-.8.3.4 1.4c.3.7.5 1.5.7 1.6l.4 1.9c.1 1.3.3 1.7 1.1 2.6l2 1.7c.8.5 1 .7.9 1.3 0 .5-.3.8-.8 1-.4.2-.8.6-.9 1 0 .2-.4.6-.6.7-.4.2-.6 0-1.2-.5-.5-.7-.8-.8-1.2-.6-.8.5-1 1-1.5 2.6-.2.8-.6 1.8-1 2.2l-1 1.6c-.5.9-1.5 1-2 .4-.4-.4-.3-.6.1-1.5 1-2 2-4.7 2-5.6l-.3-1.8c-.3-.8-.3-1.1.3-2.4 1.1-2.3 1.1-2.5.1-6.7a41 41 0 0 1-1.2-5.6c-.3-.1-1.9-3.3-1.9-3.7a6 6 0 0 0-.8-1.3c-.6-.8-.7-1.3-.7-2.4 0-1.2-.1-1.4-.7-1.8-.4-.2-.8-.8-1-1.3-.4-.8-1.1-1.5-3.2-3.2-1.5-1.1-3-3.2-3.3-4.4-.2-1.4-1.1-1.8-4-1.8-2 0-2.3 0-4.2 1C326 77 325 77 325 76c-.2-1 .6-2 2.6-3 3-1.4 5.3-1.6 8.4-.7l.5-.1c0-.2-.1-.3-.4-.3-.2 0-.5-.3-.7-.7-.4-.9.4-1.7 1.5-1.7.8 0 1-.1 1.5-1.4l.5-1.6c0-.1-.5-.5-1.2-.8a9.8 9.8 0 0 1-3.5-3.3c-.2-.3-.7-.6-1.1-.7a19 19 0 0 1-2.8-1c-1.4-.6-2-1-2.4-1.7-.5-.8-.5-.8-3.8-1.1-4.4-.5-5.5-.8-7.5-2.8-1-1-1.7-1.8-1.7-2 0-.4-1-1.3-2.6-2.1l-3.2-1.8c-1.5-.8-1.8-.9-2.1-.5-.3.2-1.5.7-2.6 1-1.2.4-2.3 1-2.4 1.2 0 .3-.5.3-1.6.3s-1.9.1-2.7.6c-.8.4-1.4.5-2 .4-1-.2-3.1.5-3.5 1.1-.2.5-1.7 1.1-2.5 1.1-.6 0-1 .3-1.5 1.1l-1.3 1.7-1.2 1.5-.8 1c-.1 0-.2.1-.2.3 0 .2-.2.6-.5.9-.6.6-2 2.6-2.4 3.6a11 11 0 0 1-1.2 1.8c-.5.5-1 1.2-1 1.6l-1.1 2.4c-.8 1.4-.9 1.9-.8 3 .2 1 .1 1.2-.6 1.7l-1.1.6c-.6 0-2 .7-2.3 1 0 .2 0 .3.3.3l1 .4c.6.4.7.6.7 2.1 0 2 .2 1.9-4 2-2.1.2-2.8.1-3.3-.2-.9-.5-2.1 0-3.6 1.3-.6.5-1.4 1-1.6 1-.3 0-.7.2-1 .5-.3.4-2.4 1.8-3.6 2.5-.5.3-1.2-.6-1-1.2.3-1 1.3-2.3 1.8-2.5.3 0 .8-.4 1.2-.8l1.1-.8c.3 0 .5-.2.5-.3 0-.3 3-2.4 3.3-2.4.3 0 3.5-2.3 4.5-3.2l1.5-1.8c.6-1.3 1.2-1.8 2.2-2 .4 0 .9-.3 1-.5a103.2 103.2 0 0 1 7-10.5 104.8 104.8 0 0 0 6.1-8.3c1.1-1.6 1.6-3.7 1.8-8.2.1-1.9.3-3.4.4-3.5.1 0 .2-2 .2-4.1 0-3.9 0-4-.7-5.5l-.8-1.6-1.8.1H285l-.4 1.3c-.5 1.5-1 2-1.9 2-.5 0-.8.1-.8.4 0 .3-.3.9-.6 1.4-.6.7-.9.9-1.6.8-.7 0-1 .1-1.6.7-.3.4-.9.7-1.2.7-1 0-1.2-.6-1.4-5-.2-4.5-.4-5.2-1.2-4.5-.4.4-.3 2.3.3 8a34 34 0 0 1 .2 7.8c0 .8-.8 1.7-1.4 1.5-.8-.2-1.3.6-1.2 2 0 4 0 5.7-.4 6-.7.6-1-.8-.9-3.1V48c-.1 1-1.2 1.3-1.9.7-.3-.4-.4-1.4-.5-6.7a112.4 112.4 0 0 0-.6-12.6c0-2-.2-2.6-1-2-.3 0-.3.6-.2 2.2.2 1.1.3 6.9.3 12.8.1 11.5.2 14.7.6 19.7.2 2.6.2 3.3 0 3.5-1.1 1.1-1.7-1.5-1.2-5 .2-1.3.1-2 0-2.2-.2-.1-.3-.6-.3-1 0-1-.2-1.3-.9-1.6-.7-.3-1-2-.8-7 .2-6.8.2-11.5 0-16-.2-3.4-.3-4.1-.7-4.7-.6-.8-1.2-1-1.4-.4-.2.4.1 2 .5 2.6l.3 10.5c0 5.6 0 10.6.2 11 .2 1-.4 1.8-1.1 1.6-1-.3-1.2-1.2-1.2-4.4 0-5.5-.5-17-.8-18-.2-1-.9-1.4-1.1-.6-.3 1-.5 8.5-.2 9v14.5a7 7 0 0 1 0 2.5 10 10 0 0 0-.1 3.4v2.7c-.2.3-.3.6-.1.8l.2 1.5c0 1.2-.5 1.8-1.2 1.6-.3-.2-.4-.5-.3-1.7.1-.9.3-2.9.3-4.5.2-2.8.2-3-.4-3.7-.6-.8-.6-1-.6-9.3 0-8.7-.3-15.8-.8-16.4-.2-.3-.3-.3-.6 0-.4.3-.4 1-.2 4.6.1 2.3.2 6.7.1 9.6l-.1 11.2c0 5-.4 8.5-.8 8.9h-.5c-.5-.2-.8-4.3-.4-5.7a3 3 0 0 0 0-1.7 45 45 0 0 1-.4-5.7l-.3-5.2a87.4 87.4 0 0 1-.5-12.9c-.7 0-1 1-.8 3 .2 2.2.2 6.1-.1 14a298 298 0 0 0-.3 16c0 1.7 0 3.4-.2 3.8a4 4 0 0 0 0 1.8c.5 3 .5 3.2.2 3.6-.4.5-1.2.5-1.5.1a13.8 13.8 0 0 1-.9-28.4c.2-.8.2-1.3 0-1.5-.5-.7-.6-3.2-.2-4.8.4-1.2.4-1.8.2-2.7-.2-.7-.3-1.7-.2-2.3.2-1.4 0-3.4-.4-3.4-.2 0-.5.4-.7.9-.5 1-.4 6.3 0 7.8.2.6.2 1.8 0 4-.2 1.8-.3 3.3-.2 3.4l-.1 5.2-.2 8.6c0 2-.2 4-.3 4.6-.3 1-.4 1-1.1 1-.9-.1-.9-.2-1-1.6a392.5 392.5 0 0 0-.2-34.5c0-1.6-.5-2.2-1.1-1.6-.3.4-.4 1.1-.4 4a101.7 101.7 0 0 1 0 19.9l-.2 7.5c0 5.3 0 5.5-.6 5.8-.4.2-.6.2-1-.3-.5-.4-.6-.9-.6-2.3V53a204.5 204.5 0 0 0 0-15.5c.2-.4.2-.6-.2-.8-.3-.1-.4 0-.5.2 0 .3-.3.8-.5 1.2-.5.6-.5 1.4-.6 5.8a679.7 679.7 0 0 1-1 25c0 .3-.3.4-.7.3-1.2-.1-1.8-1.5-1.6-3.5l.3-2.8a587.8 587.8 0 0 0-.2-28.2c-.5-.4-.5-.4-.5.7a231.6 231.6 0 0 1-1.4 24.9c0 2-.2 2.5-.6 3-.5.4-.6.4-1.2.1l-.8-.6c0-.1-.2 0-.2.5 0 .4.3 1 .8 1.5.4.5.8 1 .8 1.3l.4.8c.3.3.4 1.3.5 3l.5 6.8c.4 6.5.5 10 0 12.8l-.4 5.8c0 3.5-.2 4.1-1 4.1a.7.7 0 0 1-.6-.4c-.4-1.3-.5-3-.2-4.2a6 6 0 0 0 .1-2c-.1-.8-.7-1-1-.3 0 .2-.4.3-.6.3-.4 0-.5-.4-.5-1.7 0-1.9 0-2.5.5-2.5.6 0 1 .8 1 1.7 0 .5 0 1 .2 1s.3-1 .3-2.3v-2.3l-.6.7c-.8 1-1.3.8-1.4-1 0-.8 0-2 .2-2.6.2-.7.2-1.5 0-2.6-.2-1-.4-3.8-.4-6.5-.1-2.6-.2-5.9-.4-7.3a44 44 0 0 1 0-4.7c.2-4 0-7.5-.3-7.7-.5-.3-.5-.3-.8 1.5-.2 1-.4 1.7-.9 2-.9.8-1 1.3-.7 3.4l.4 11.5a48.2 48.2 0 0 0 .8 12.5c-.5 1.3-.6 4-.3 5.4.6 2.1.6 3-.3 3.8-.6.5-.6.7-.3 1l.7.4c.5 0 .4.8-.1 1-.4.3-.4.3 0 .7.2.3.4.6.3.8-.1.2 0 .5.1.6.2 0 .3 1 .3 2 0 2.1-.2 2.5-1.1 2-.7-.3-1.5 0-1.5.6 0 .3.1.8.4 1.2l.4 1.3c0 .6.4.5.6-.1.2-.7 1.1-.7 1.4 0 .2.8-.6 1.5-1.2 1-.2-.2-.3 0-.3.7 0 1.2-.5 2.3-1.1 2.3-.7 0-1.3-1-1.3-2.5 0-1.2-.3-1.6-.7-1-.2.4-.4 5-.4 7.3 0 .7-.1 2-.3 2.7-.1.8-.2 1.7 0 2.1l.1.7.6-.8 1-1.2.5-.8c0-.1.3-.2.6 0 .7 0 1-.4 1-2 0-.6.1-1.2.3-1.3.7-.6 1.1.4 1.3 2.8 0 1.3.2 2 .2 1.6 0-1 .6-2 1.2-2.2l1.2-.7c.8-.7 1.3-.4 1.5.9.1.8 0 1.1-.2 1.3-.4.2-.3.3 0 .8.5.4.5.9.4 6.2a83.2 83.2 0 0 1-.7 14.5c.2 1-.5 1.9-1.3 1.4-.2-.1-.5-.3-.5-.5 0-.1-.1-.2-.3-.2-.3 0-.5-.2-.6-.4 0-.3 0-.4.4-.4.3 0 .5-.4.8-1.7.5-2.6.5-2.7-.4-2.7-.7 0-.8 0-.9-.9-.1-1.1.3-1.6 1.4-1.5.6 0 .8 0 .8-.4 0-.2-.3-.4-1-.5-.8 0-1-.2-1.1-.7-.1-.3-.4-.8-.7-1-.6-.6-.6-1.4 0-4.5.2-1.7.5-2.5.8-2.7.4-.3.6-.7.6-1.4 0-.9-.1-1-.7-1.2-.5 0-.9 0-1.2.4-.7.7-1.2.6-1.5 0-.3-.6-.3-.6-.5.4a37 37 0 0 0 .3 7.3c.2.6-.3 1.5-1 1.5-.3 0-.5.2-.5.6 0 .5.3.7.7.2.5-.4.9.2 1.2 2 .2 1.4.2 2 0 2.4-.3.5-.3.7.2 1.1.6.6.8 2.6 1 10 0 3.2 0 5-.2 5.4-.2.4-.1.8.1 1.4.3.7.3 1 0 1.9-.4 1.1-.2 2 .4 2 .2 0 .3-.3.3-1.5 0-1 .2-1.7.5-2.1.2-.4.3-.9.2-1.3-.2-.8 0-1.2.5-1 .3.1.3.3 0 1-.2.6-.1.8.5 1.5.6.6.7.9.6 1.5a7.8 7.8 0 0 0-.2 3.9 5 5 0 0 1 0 2c0 .7 0 1.1.2 1.4.8.8 1.3 3.4 1.3 8.2 0 4.5.2 5.5.9 5.1l.4-1.1.4-3c.4-2.2.2-8.3-.2-12.2a43.6 43.6 0 0 1-.1-14.4c0-1.7.8-7 1.3-10 .2-1.2.4-3 .3-3.9 0-2.3.4-5.1 1.2-8.3l.7-3.7c0-.7.2-1.3.6-1.7.2-.3.7-1.4 1-2.5.2-1 .8-2.7 1.2-3.6l1.3-3a118 118 0 0 1 11-18.6c.8-1.3 3.1-3.6 3.8-3.6 1.2 0 1 1-.4 2.8a86.2 86.2 0 0 0-8 12 8 8 0 0 1-1 1.6c-.4.4-.8 1-.8 1.2l-1 2.4a53.3 53.3 0 0 0-4.5 12c-.3 1.3-.3 1.4.2 1.8.7.5.7 1.2 0 2.3-.2.5-.5 1.4-.6 2.2a9 9 0 0 1-.5 2c-.7 1.6-1 2.7-1.1 4.8-.1 1.2-.4 2.6-.6 3.2a5 5 0 0 0-.3 1.7c0 .4 0 1.1-.2 1.6a59 59 0 0 0-1.5 15v5.1l.9 1c.4.5.8 1 .8 1.2l.4.2c.4 0 .4 0 0 .4-.8.8-1.1 4.1-.5 5.7.8 2.5 1.1 6.7.4 7.5-.4.4-.4.6.4 5a1343 1343 0 0 1 1.1 5.5c.2.5.2 1.9 0 3.3v4l.3 2.8c0 .9.2 1.5.6 2 .7 1 2.6 2.2 3.6 2.2.4 0 1.2.3 1.7.6.6.4 1.3.7 1.5.7.2 0 1 .6 1.7 1.3 1.8 1.8 5.5 4.3 6.3 4.2.5 0 .6-.3.8-1.4.1-1.3.9-3.8 2.2-7.2.4-1 .8-2.3.9-3a75.7 75.7 0 0 0 1.1-18.7 126.9 126.9 0 0 1 2.3-42.6l.4-1.6-.9-.8c-1-1-1-.7-.2-4.6a60.3 60.3 0 0 1 8-20.6 107.4 107.4 0 0 0 6.5-10c.7-1.4 1.4-2 2.2-1.8.8.2 1.1 1 .9 2.6-.2.9-.4 1.3-.8 1.5-.3.1-1.3 1.3-2.2 2.6a1066.4 1066.4 0 0 1-3.5 5.3l-.6.9h.7c1 0 1.3.2 1.6.9.4.7 0 1.6-1.2 3a36.5 36.5 0 0 0-5.2 10.4 81.1 81.1 0 0 0-3.5 13.8l-1.3 6.8c-.3 1.2-.6 3.3-.7 4.5a53.1 53.1 0 0 0-1 9.6l-.3 7.2c-.1 2.8 0 4.4.5 4.4.2 0 .4-.3.4-.5 0-1 1.4-4.6 2-5 .7-.5 1.6-.3 2 .5.3.6-.1 3.5-.7 4.7-.2.4-.4 1.3-.5 2.1l-.4 2.7c-.2.6-.4 2.9-.6 5-.1 2-.4 4-.6 4.5-.2.3-.5 1.8-.6 3.2a55.4 55.4 0 0 1-2.5 13.6c-.3.6-.2 1 .2 1.7.7 1.1.6 3.9-.3 5.4-1.4 2.5-2 4.9-2 7.8 0 1.5.1 1.6 1.3 1.6 1 0 1.1.1 1.6 1 .4 1 .7 1 1.6 1.2.6.1 1.5.5 1.9.8.6.4 1.2.6 2.3.6 2 0 1.9 0 3.4 1.2 1.9 1.3 6.4 3 10.5 4a70.6 70.6 0 0 0 15.6.4h5.5l.6-.8c.4-.4.7-1 .7-1.2 0-.4-1.2-2-2.4-3.2-1-1-1.4-3.5-.6-4.5a2 2 0 0 1 1.3-.8c.7 0 .9.1 1.2.8.2.5.6 1.4.7 2 .4 1.6 3.2 4.3 4.4 4.3.5 0 1.1.4 1.9 1.2 1.3 1.3 2 1.5 3.3.8 1-.5 5-.8 6-.4 1 .3 3.7-.3 5.4-1.3.8-.4 1.7-.8 2-.8 1.4 0 2.8-.7 3.5-1.7.6-1 1-1.2 2.4-1.6 3-.8 9.6-3.9 11.2-5.2 1-.9 1.3-2 .4-2.2-1.2-.4-1.3-1-1.2-5.8l.3-6.2c.2-1.6.1-1.7-.2-1.4-.3.2-.5.6-.5.8 0 .3-.2.8-.5 1.2-.4.5-.6 1.4-.9 3.8l-.5 3.5c-.1.2 0 .6.4 1 .7.7.5 1.7-.7 2.4-1 .7-2 .6-2.4 0-.2-.5.1-2.4.9-4.6l1.3-4.3c0-.2-.2-.3-.8-.3-2.1 0-2-.9 1-9.2a31 31 0 0 0 2-6.8 1683.9 1683.9 0 0 1 2.1-15.5l.4-4.4c0-1.5 0-1.8.5-2 .3 0 .8 0 1.2.2.3.3.7.3.8.2.2-.2.7-9.1.6-13.1 0-1.5-.2-3-.6-4.1l-.7-3.1c0-.8-.4-2-.8-2.7-.3-.7-1-2-1.3-3l-1.5-2.5-.7-1-1.2-2.7c-.7-1.3-1.2-2.5-1.2-2.7l-.4-.7c-.3-.2-.4-.8-.4-1.7 0-1-.2-1.5-.7-2.2l-.6-1.2c0-.4-2-2.3-3-2.9-.5-.3-.8-.7-.9-1.4 0-.6-.3-1.2-.4-1.5-.5-1-2-2.3-2.5-2.3-.7 0-1-.2-1.7-1.5a3 3 0 0 0-1.2-1.1c-1.2-.5-1.5-1-1-2a5 5 0 0 0 .4-1.6c0-.8-1-2-1.7-2-1.3 0-5.2-2.4-7.9-4.8a25.2 25.2 0 0 0-6.2-4c-1-.3-3-2.3-3-3 0-.1.3-.7.7-1.1.9-1.1.6-1.4-1.6-1.6a16 16 0 0 1-5.3-1.8 5 5 0 0 0-3.2-.6c-1.7.2-3-.2-3.5-.8-.1-.2-.2-.8-.1-1.2 0-.5 0-1-.2-1-.1-.1-3.3-.4-7-.6-3.9-.2-7.2-.6-7.6-.7-.7-.4-1.3-1.5-1.3-2.3 0-.3.2-.8.5-1 .9-.8 3.6-.8 4.6 0 .3.2 1 .4 1.4.4a62.3 62.3 0 0 0 6.3 1 232.9 232.9 0 0 1 9.4 1l2.3.2c.4.3.4 1.1 0 1.9-.2.4-.2.6.2.9.7.5 1.7.4 2.9-.3l1-.6-1.1-.9c-1.3-1-4-2.3-5.3-2.5l-3-.7c-1.2-.2-3.5-.6-5-.7-3.4-.4-4.7-.9-5-2-.4-1 .1-1.5 1.5-1.5s8.2 1 9.2 1.3c1.5.5 2.6.6 2.6.2 0-.7-.8-2.2-1.4-2.8-.6-.5-1.5-.9-4.4-1.6-1.4-.4-2-1.2-1.4-2.3.4-.6 1.7-.9 2-.4 0 .2.7.3 1.4.3 1 0 1.1 0 .7-.4-.3-.3-.9-.4-2.2-.4l-2-.2-2.4-.4c-2.3-.2-5.7-1-6.4-1.5-.5-.4-.4-1 0-1.8.6-.7 2-.8 3.4 0 .8.4 1.5.5 3.4.5 1.3 0 2.4.1 2.5.2.1.2 1.2.3 2.4.3 1.3 0 2.5.1 2.9.3 1.9 1 2.3 2.6 1 3.7-.8.6-.8 1 .3 1.4.2 0 .8.7 1.2 1.4 1 1.5 1.2 2 2 3 .4.5.7 1.4.8 2l.4 1c.2 0 1.3.7 5.3 3.7 2 1.4 2.5 2.3 2.2 3.4-.1.6 0 .8 1.1 1.3 1.5.6 1.4.6 1.4-.1 0-.3.2-1.3.5-2l.4-2.3c0-1 .8-2 1.7-2.2.7-.3 1.1-.1 1.3.8.1.7.2.7 1 .6.6-.1 1 0 1.5.4 1 .8 1.1 1.5.3 2.4-.7.7-.8.9-1 3.8-.1 3.8 0 4.6 1.1 7 1.4 2.9 2.5 4 2.5 2.4 0-.6 1.4-2 2-2 .2 0 .6.1 1 .4.5.4.5.7.5 2.8 0 1.2 0 3 .2 4 .3 1.6.4 1.8 1.1 2 .5.2 1 .7 1.3 1.3a7.6 7.6 0 0 0 2.9 3c1.3.9 2.6 2.3 4.4 4.9.8 1 1.8 2.2 2.3 2.5a26 26 0 0 1 2.7 2.2c1 1 2 1.7 2 1.7.2 0 .7-.3 1-.7.8-.7 1.4-.8 3.3-.5 1 .2 1.4.8 1 1.7-.3.5-.3.7.2 1.3.5.7.6.7 2.8.7l3 .2c.9.4 1.2-.4 1-2.2l-.3-4.6c-.2-2.6-.1-3 .4-4 1.1-2.2 1.5-2.5 3.8-3 3-.5 4.1-.4 6.4.5 2.7 1.1 3 1.3 5.4 3.7 1.7 1.7 2 2 2 3 0 .6.2 1.6.4 2.2.4 1.4 0 2.4-1 2.6l-1.9.4c-1.6.3-10 .2-10.8-.2-.5-.3-.6-.3-.6.4 0 1.5-1.4 2.8-4.6 4.2-1.8.8-2.2.9-8 1.4-2.1.2-2.3.4-1.4 2.4.3.8.5 2 .6 3.6 0 1.3.3 2.7.5 3.1a17 17 0 0 1 1 5.3c.1 1.4.4 2.8.5 3 .3.5.2 1.2 0 2.5-.5 3.4-.6 5.2-.2 6.1.2.5.3 1.3.3 2A1417.4 1417.4 0 0 0 349 171a93.2 93.2 0 0 0-.8 8.3c-.4 3.6-.3 4.4.5 4.7.7.3 1.8.2 3.6-.3.6-.1 2.7-.4 4.8-.5l5.2-.6c2-.4 8.8.2 10.5.8 1.3.5 3 .4 3.4-.1.2-.2.3-.7.3-1-.1-.5-.4-.6-1.7-.9-2.6-.4-4.5-1.6-7-4a14.8 14.8 0 0 1-2.4-2.8c-.6-1.6-.4-5.6.4-8.1.4-1.3.9-1.7 4-3.7 2.4-1.6 2.5-1.6 1.4-3.5-.5-1-1.4-2.3-2-3.1a161.5 161.5 0 0 1-5.4-7.2c-1.2-1.5-1.4-2.2-1.2-3.5.1-1 .4-1.4 1.1-2 .6-.5 1.1-.8 1.4-.7a41 41 0 0 1 2.7.8c.5 0 .8.5 1.4 1.7.4.9.8 1.6 1 1.6.3 0 .7 1 .6 1.5-.4 1-2.2.4-3.4-1-.5-.5-1.2-.7-1.2-.2a61 61 0 0 0 4.9 7.7c1.2 2.8 2.4 4.6 2.9 4.6s.6-.2 1.2-3.2c.2-.9.7-2.7 1.3-4.1a67.7 67.7 0 0 0 3.6-9.7 39.8 39.8 0 0 0 3.7-7.6c.8-1.4.8-1.6 0-2.6-1-1.4-1-1.9.1-3.3.7-.8.8-1.2.8-2.3 0-2-.4-3.3-1.3-4.5-1-1.4-1.3-2.9-1.2-5.5 0-1-.1-2.8-.3-4-.5-3 .1-4.8 2-5.8.8-.4 1.1-.7 1.5-1.8l.6-1.5c.6-.3.3-1.6-.6-2.3-.6-.4-1-1.1-1.3-2-.3-.6-.7-1.4-1-1.7-.3-.4-.4-1-.4-4.6 0-3.3.2-4.1.5-4.7.6-1 1.7-.9 2.7.1.4.4 2 1.4 3.4 2.2 1.5.7 3 1.6 3.4 2 .4.3 1 .6 1.3.6.2 0 .8.3 1.2.7 1.2.9 1.5.8 1.3-.3-.2-1.3.4-2.4 1.7-3l1.3-.6c.2 0 .9.6 1.7 1.3 3.3 3.2 5.2 4.8 5.6 4.8.3 0 .9.5 1.4 1 .5.6 1.1 1.1 1.4 1.1.8 0 2.2.7 3.3 1.6 1 1 2 2.7 2.5 4.6.2.8.5 1.8.8 2.3 1.5 2.7 2 5.8 1.2 8-.7 1.7-1 4.3-1 7 0 1.5-.2 2.9-.3 3.2-.2.5-.1.7.3 1 .7.6 2 3.6 2.6 6.2.4 1.7.6 2.1 1.7 3.2a37.6 37.6 0 0 1 4.6 8.3l1.6 4.6c1.1 3.1 1.2 3.4 1.2 6.1 0 1.6 0 3 .2 3.3.4.8.9 3.8 1 6 0 2.2-.9 5.5-1.8 6.5-.5.5-.5.7-.2 2.3.3 1.8.1 6.3-.3 7-.4.8-.3 3 .2 4.3.6 1.8 0 6.7-1 8-.6.8-.6 1.5 0 1.5.8 0 1 .5.6 1.6-.3 1-.3 1 .2 1.7l.6 1.2c0 .2.2.8.6 1.3.5.6.6 1.3.8 3 .1 2.3 0 3.4-.8 4.7l-.4 1.3c0 .7-.9 1-1.7.5-.3-.3-1-1.2-1.4-2.2-1-2-1-2.8-.3-5.2.3-1 .3-1.3 0-1.6-.3-.4-.5-.2-1.8 1.4a8 8 0 0 1-3.5 2.9c-1.6.8-2 1-2 1.6-.1.4 0 .8.3 1 .5.5.5 1.1-.3 2.8-.6 1.2-.7 1.6-.4 2 .4.8.4 1.2-.4 2l-.6 1-.5 1.6c-.6 1.4-1.1 5-1 5.7.3.6 1.4.6 2 0 .3-.4.8-.6 2-.7 2-.3 2.3-.5 2.1-1.4-.2-1.2.3-2 1.4-2.4l6.2-.2c5.9 0 6.2 0 5.1 1.6-.5.8-.7.9-1.7.8a39 39 0 0 0-7 .2c-.4.1-.9.7-1.2 1.4-.8 1.6-2.8 2.6-5.6 2.7-2 0-2.3.1-3.8.8l-1.3.5c-.3 0-.6.5-.7 1-.3.8-1.2 1.2-2.1.9-.9-.3-1-1.3-.2-3.3.7-1.7 1.5-5.7 1.5-7l.4-2 1-3.6c.4-1.9.6-2.5 1.3-3 .9-1 .9-1 .2-2.7-.7-1.7-.4-2.4 1-2.4 1.2 0 2.2-.8 2.8-2.1a7.3 7.3 0 0 1 2.9-3 4 4 0 0 0 2-3c.1-.7.4-1.6.6-2l1-1.8c.5-1 .6-1.3.4-3.8-.2-3.8-1.5-7.5-2.4-7.2-1.4.6-2 .5-2.5-.2a18.5 18.5 0 0 1-5-7.8c-.3-.9-.8-1.8-1.2-2.2-.4-.3-1-1.1-1.4-1.7-.9-1.6-3-3-4.4-3-.9 0-1.7-.8-2.4-2.2-.5-1.1-.6-1.8-.7-3.8 0-1.3.2-2.7.3-3.2l.6-4.3.4-4.9c.1-1 0-1.5-.6-2.8-.9-1.7-1.3-1.9-2.2-.9-.4.4-.8.7-1 .7-.6 0-.6.7-.2 2.1.4 1.3.4 1.4 0 1.7-1 .8-1.4.4-3-3.4-.4-1-.9-1.8-1-1.8-.4 0-1.7 3.7-1.7 4.7 0 .8-.8 1.7-1.6 2-.5.2-1.6 2.7-1.6 3.6l-.4 2.4a21 21 0 0 0-.5 3.5c0 2 0 2-.8 2.5-.7.4-.8.4-1.7 0-1.3-.6-1.8-.4-2.3.8-.2.5-.7 1.1-1.2 1.5a33 33 0 0 0-2.3 2c-1.3 1.3-1.4 1.4-1.2 2.2a17 17 0 0 1-.2 5.8c-.2.5-.3 2-.3 3.4 0 2 .2 2.8.9 4.5a11 11 0 0 0 1.6 2.8c.5.6.7 1 .7 1.8 0 1 .3 1.5 1.4 2.1.4.3.7.7.7.9 0 .2.9 1.2 2 2.3 1 1 2 2.3 2.3 2.8.5 1 2.8 2.8 5 4 1.1.7 1.2.8.8 1.6-.3.5-.3.5-1.6 0-.8-.1-1.4-.3-1.5-.2-.1.2.5 2.3 1.4 4.8.5 1.3.6 2 .5 2.6l-.3 4c-.2 7.3-.2 7.6-1.1 9.3-.5 1-1 1.9-1.4 2-.5.4-.5.5.4.6a6 6 0 0 0 1.9 0c1-.2 1.1-.4 1.1-2 0-.3.4-.9.7-1.3.6-.6.8-1.2 1.1-3l.6-3.8c.2-.8.3-2.2.3-3.1 0-2.4.8-4.1 2.6-5.8.8-.7 1.4-1.5 1.4-1.8 0-1 1.9-1.7 2.2-.8.4.9 0 1.7-1.5 3.4l-1 2-.7 2c-.2 0-.3 1.1-.4 2.2-.1 1.1-.4 2.5-.6 3.2-.4 1.4-1.3 6.5-1.1 6.7l2.3-.6 2.2-.7.5-1.3c.3-.8.8-1.6 1.3-2l.7-.7v-5.6c0-5 0-5.7-.5-6.8-.4-1-.5-1.4-.3-2 .2-.6.2-.8 0-.9-.3 0-1-1.1-2-2.4l-2.5-3.6c-1.1-1.4-1.6-2.5-1.3-3.8.2-1.4.5-1.8 1.3-1.7.6.1.8.3 1 1.2 0 .6.3 1.3.4 1.6.2.6.3.6.9.2.6-.4.7-.3 1.7.4a12 12 0 0 1 3.2 3.8c0 .4-.5 1-1 1l-1.1-.7-1-.6.6 1.8c.4.9.7 1.8.6 2-.1.5 0 .6.6.8.6 0 .9.5 1.8 2.4 1 2.1 1.1 2.3.8 3.3-.2.8-.2 2.2-.1 4 .2 3.4-.3 6-1.3 7-.4.4-.8 1.2-1 1.7-.4.7-.4 1 0 1.6.3.8.4 3.9 0 5.3-.3 1.2-.8 1.5-2.5 1.5-1.4 0-1.7-.2-1.7-1.4 0-.3-.2-.8-.4-1-.3-.2-.5-.2-1 .3-.8.7-2.3 1.4-3.5 1.4-1 0-3.5.6-4.6 1.1-.4.3-1 .4-1.2.4-.4 0-2.2-.8-2.3-1 0 0 0-.3-.2-.5-.2-.3-.4-.2-1.2.3-1 .6-1.3.7-3.6.7-2.1 0-2.8-.1-3.7-.5a22 22 0 0 0-6.9-1.4c-1.6-.2-2-.1-2.4.2-.6.8-3.3 1.8-6.2 2.2-1.5.3-4-.2-4.5-1-.5-.6 0-.8 1.7-.7 1.8.3 3.8 0 3.8-.5 0-.8-5-.7-7.1 0-1.4.6-2 .2-1.6-.8.5-1 1.5-1.3 5.3-1.1 2.9.1 3.5.2 3.8.6.3.3.3.5 0 .8-.7 1 2.4 0 3.2-.9.6-.6.6-.6 4.1-.5 3.7.1 7.4.7 9 1.4 1 .4 1 .4 2.1-.2.6-.3 2-1.4 3-2.3 1-1 2.2-2 2.6-2.2.8-.6 1.2-2.2 1.3-5.1 0-2 0-2.4-.3-2.3l-2 .1c-.9 0-1.9.2-2.3.4-.4.3-1.7.4-4.3.4-3.5 0-3.8 0-5-.6a9 9 0 0 0-5.7-.8c-1.3.3-8 0-8.5-.3-.6-.3 0-1.2.9-1.5.9-.3 2.8-.4 8.5-.3 3.3.1 3.6.2 4.4.8.8.6 1.2.6 4 .7 1.7 0 3.7 0 4.4-.2l3.5-.4 2.2-.2v-1.9c0-1 .2-2.4.4-3 .3-1 .3-1-.8-3-.6-1.1-1.6-2.8-2.4-3.8a55 55 0 0 1-2.2-3.4 7 7 0 0 0-2.2-2.2c-1.8-1.2-2.7-2.1-2.7-2.9 0-1.2-2-2.5-3.7-2.5-.9 0-1.2-.2-1.8-1.6-.4-.8-.6-1-2.2-1-6.1-.8-9-1-10.4-.6-1.5.3-5.6.6-11.4.7-4 0-6 .4-6 1 0 .3-.3.7-.6 1-.5.5-.7 1-.8 2.5-.2 1.7-.2 2 .3 2.4.7.5.8 1.2.2 1.7-.5.4-.5.8 0 1.3.3.3.4 1.1.4 2.5 0 2.3-.2 8-.4 8.4l.2 2.7c.2 2.1.2 2.7-.1 3.1-.2.4-1.7 1.3-3.3 2.1-1.6.8-2.9 1.6-3 1.8-.1.5 2 1.4 4.7 2.1 3.2.8 5.7.9 7.6 0 1-.4 1.7-.5 4.7-.4 2.3 0 3.9 0 4.7-.3 1.6-.5 7.3-.5 9.4 0 2.2.7 4 .6 5 0 .7-.6 1.1-.7 3.4-.7 2 0 3-.2 4-.6 1.4-.4 1.7-.5 3.2-.2 1.8.4 2.9 1 3.2 2 .3 1.2-1.6 1.4-2.7.4-1-.9-2.3-1.1-3.2-.5-1 .7-3 1.1-5.8 1.4-1.5.1-3 .4-3.3.6-.7.4-4.5.2-5.7-.3a27 27 0 0 0-8 .3c-.5.2-2.4.3-4.2.4h-3.7c-.7.1-1.7 1-1.7 1.5 0 .4.4.4 1.8.4 2.1 0 4 .6 4 1.5 0 .5-.3.5-5.6.5-4.1 0-5.8.1-6.2.4-.7.3-1.1.2-1.1-.4 0-.4 2-1.2 3.2-1.2.4 0 .8-.1 1-.4.3-.3.1-.4-1.1-.4-.8 0-1.8 0-2.1-.2-.5-.3-1-.2-2.1.2-1.5.6-1.5.6-1 1.1.7.7.6 1.5-.2 2-1 .9-2 1.1-5.5 1.3-2.6.1-3.2 0-3.8-.3-1-.7-5.3-.8-7.9-.2-2.2.5-2.3.7-1.4 2.1.7 1 .5 1.6-.7 3l-1.3 1.4c-.2.3-.6.5-.7.5l-2.6-.3zm1.6-3.7-.8-1.4c-.4-.7-.9-1.5-1-2-.1-.7-.2-.7-1.4-.5-3.5.4-4.2.5-5.5 0l-1.8-.4c-.2 0-1-.3-1.7-.7-1.8-.9-2.4-.8-2.4.2 0 1.4-.7 1.8-3.2 1.8-1.3 0-2.3.1-2.4.2-.3.3 2.2 1 4.7 1.4l4 .5c.9.2 2.8.3 4.2.3 1.8 0 2.9.1 3.3.4.7.4 4 .5 4 .2zm-57.2-4.8c0-.6-2.3-.7-4.8-.4-2.3.3-1.3.6 1.8.6 1.7 0 3 0 3-.2zm128.5-.8-.1-.3c-.2 0-.3.1-.3.3l.1.2s.2 0 .3-.2zm-143.7-7.9c0-.2-.1-.5-.3-.5a274.9 274.9 0 0 0-8.6.9c0 .1 2 .2 4.5.2 4.2 0 4.4 0 4.4-.6zm6.4-2c.3-.8-.3-1-1.4-.6-1.4.5-1.4 1 0 1 .9 0 1.3-.2 1.4-.5zm87.9-20.9c-.1-.3-.2-.1-.2.5s0 .8.2.6v-1zm80.7-16.1c.2-.2.3-1.1.3-2.2 0-2 .1-2.4 1.8-4.8.5-.7.8-1.6.8-2 0-.5.2-1.4.5-2 .4-1.2.3-3-.5-8a16 16 0 0 1-.3-3.2 41.1 41.1 0 0 0-6.4-16.8c-.8-1-2.7-4.8-3.7-7.3-.3-.7-.8-1.4-1.2-1.6-.8-.4-.8-.4-2.7 1.3l-1.8 1.8-.3 2a42 42 0 0 1-1.1 5.3 23 23 0 0 0-1 6.8l-.4 6.7c-.2 2.8-.1 3.2.3 3.7.5.5.5 1 0 4.8 0 .5.3.6 2.3 1a8 8 0 0 1 3 1c.2.3 1.3.9 2.3 1.3 1.4.7 1.8 1 2.3 1.8a10 10 0 0 1 .8 5.5c-.3 1.8 0 3.5.7 4.2.8.8 1.2.4 1.5-1.4.2-1.7 0-3.8-.5-4.6-1.2-1.8-2-6.6-2.1-12.1-.1-5.7-.6-8.2-1.8-9.2-.3-.2-.9-1.2-1.4-2.3-.8-1.8-.9-2.1-.9-4.6 0-2.8.3-3.5 1.4-3.4.5.1.6.3.6 1.8 0 2.6 0 2.5 1.3 4 .8 1 1.2 1.7 1.2 2.1l.4 1.7.7 2.7c.1 1 .5 2.3.7 2.8.4.9.4 1.2 0 2.4-.6 2.8-.6 2.7.3 3.3.6.5.8 1 1 2 .4 1.7.4 3.1 0 4.2-.3.8-.3 1 .5 3 .5 1.1.9 2.5.9 2.9 0 .4.1 1.2.3 1.6.3.7.2 1-.1 2-.7 1.7-.6 2.6.3 1.8zm-9.2-45.1c-.4-.2-.4-1.3.1-1.5.6-.2 1 .7.6 1.2-.2.2-.5.3-.7.3zm-187.5 43.9c-.2-.5-.2-2.5 0-3.6.2-.5 0-.7-.2-.7-.4 0-.4.4-.4 2.4s0 2.3.4 2.3c.3 0 .3 0 .2-.4zm151-.6 1-2c.7-1.8 2-8 1.8-8.8-.4-1.3-2.5-.6-4.9 1.6-1.3 1.2-2 1-2-.2 0-.7-.1-1.2-.6-1.6l-.7-.7-1 .9a17 17 0 0 1-2 1.5c-.7.5-1 1-1.3 2-.5 1.7-.5 2.8 0 2.8.2 0 .5-.4.6-.8l.6-.8c.2 0 1 .6 1.5 1.3 1.2 1.4 2 1.9 4 2.4 1 .3 1.1.4 1 .9 0 .3-.3.6-.6.7-1.4.2-.5 1.2 1.2 1.3.5 0 1-.2 1.3-.5zm-31-.9.4-4.1c.2-3.4.1-3.7-.3-4-.5-.5-.6-.5-.8.1-.2.4-.4 1.4-.4 2.1 0 .8 0 1.5-.2 1.6-.2.1-.3.6-.2 1 .1.6 0 1.3 0 1.6-.2.4-.3 1-.2 1.5.1.6.3.8.8.8.4 0 .7-.2.9-.6zm-119.9-4c0-.7 0-1-.4-1-.2 0-.3.3-.3 1 0 .6 0 1 .3 1s.4-.4.4-1zm-.4-9.5v-8c0-3.3 0-4.3.3-4.7a53.3 53.3 0 0 1-.8-12c.2-.6 0-1.1-.7-1.1-.4 0-.8 1.6-.7 3 0 .7 0 2-.2 2.8a6 6 0 0 0 0 2.3c.2.4.3 2.7.2 5.8-.2 4.9 0 11.3.4 14.4.1 1.4.2 1.6.8 1.6h.6zm2.6 2.5c0-.3 0-.6.2-.7.4-.2.1-2.4-.3-3a1 1 0 0 0-.6-.3c-.3 0-.4.5-.4 2.1 0 2.5.2 3 .7 2.6.2-.1.4-.5.4-.7zm117.4 0c-.1-.3-.2-.2-.2 0 0 .4 0 .5.1.4v-.5zm38-2.9 1-1.9c.4-.5.9-1.9 1.1-3.3.7-3.9 1.2-6 2-8.2.7-2.6 1-3 1.5-3 .7 0 .7.7 0 2.8a51 51 0 0 0-2.1 9.2c-.3 1-.4 1.9-.3 2 .3.5 1.4.3 1.8-.3.2-.4.4-1.4.5-2.4l.8-4a32.3 32.3 0 0 0 1.4-6.6c.7-4.1 1-6.1.7-7.3 0-.6-.2-1-.3-1a4 4 0 0 0-.9 1c-.6 1-1.1 1.2-1.8.8-.3-.3-.3-.5.2-1.5.4-.7.6-1.4.4-1.5l-1.1-.3c-1-.2-2.6.5-2.6 1.2 0 .3-2.8 5-3.5 6a8 8 0 0 0-1 3.2l-.4 3v1c.4.5 1.6 0 1.8-1 .6-2.6 2.6-6.5 3.5-6.8.5-.2 1.1 0 1.1.6l-1.4 3.4c-1.8 4-2 4.4-2.3 7.5a9.8 9.8 0 0 1-1 3.6c-.8 1.6-.8 5.3.1 5 .2-.2.6-.6.8-1.2zm-6-3c0-.5.2-1 .5-1.3.7-.6 1.1-1.7 1.1-3 0-.7 0-1.2-.2-1.2-.3 0-1.4 1.9-1.8 3.3-.2.7-.5 2-.5 2.8l-.2 1.4.6-.5c.4-.3.6-.8.6-1.4zm24.3-15.9.7-.7-.6-.7c-.5-.5-.9-.6-1.6-.6-1.2 0-1.3.1-1.4 2 0 1.1 0 1.3.7 1.7.8.4.8.4 1.2-.3l1-1.4zm4-2.7c.6-.5.8-1.2.3-1.2-.6 0-1.6 1-1.4 1.3.2.4.3.4 1-.1zm-1.2-5.5c.7-1.4.4-1.7-1.2-1.1-1.3.5-2.3 1.3-1.9 1.7.3.3 1.4.5 2.1.4.3 0 .7-.4 1-1zm-180.3-.5c0-.3-.1-.1-.1.5v.5-1zm166.7-.4c.2-.2.1-.3-.4-.6l-1.1-.5c-.6-.3-.8-1.2-.4-2 .5-1 .5-1-.3-1-.5 0-.8.3-1.2 1.1-.3.6-.8 1.2-1 1.3-.9.5-.3 1 1.5 1.3l1.8.5c.4.1.7 0 1-.1zm7-2c1-.3 2-.4 2.5-.3 1 .2 1.5-.4 1-1.3-.3-1 .2-1.5 1.9-1.8 2.3-.3 5-1.7 6.7-3.4l1.6-1.4c.2-.2.6-.9.7-1.4 0-.6.3-1.4.5-1.9l.4-1.6c0-.6.2-1 .8-1.6.7-.7.9-1 1-2.3 0-1.7-.2-2.4-1-2.6-.4-.1-.6-.7-1-2.4-.7-3.3-1.3-4.7-2.5-5.8-1-1-1-1-1.7-.8-.4.2-1 .3-1.4.2-.8-.2-.8-.1-.8.6 0 1.3-.6 2.8-1.3 3-.4.3-.8.2-1.4-.2-1.2-.7-2.9-.5-2.9.3 0 1.4-1.8 2-3.3 1.2-1-.7-1.2-1-1.7-3.6a9 9 0 0 0-1.4-3.2c-.5-.8-1-1.8-1-2.1 0-.3-.3-.9-.7-1.2l-1.4-1.3c-1-1-5.3-2.8-5.9-2.5-.3.3-.3 2.6 0 3.5.5 1.2 2.4 3 3 2.9 1-.2 1.3.2 1.5 1.7.3 1.6.1 2.3-.8 2.4-.4 0-.7.5-1 1.6-.4.8-1 1.8-1.7 2.5-1 1-1.1 1.2-1.3 2.7-.2 2 0 2.2 1.2 1.4.8-.6 1.8-.5 1.8.2l-.3 1.3c-.3.8-.3 1 .3 1.4.6.5 1 2.6 1 5.2 0 2 .6 3 1.7 3s2.3.7 2.3 1.4c0 .5-1 1-1.9 1-1.2 0-3 1.1-2.2 1.4.2 0 .5.4.6.8 0 .4.3.7.4.7l3.1 1.3c.2.1.6.5.8 1 .6 1.3.6 1.3 3.9 0zm-.2-11c-.2-.2-.4-.8-.4-1.3 0-.7-.3-1.5-.9-2.4-1.3-2-.8-3 1.4-3 .7.1 1.2 0 1.7-.4 1.4-1.1 3-.5 2.7 1-.3 1.5-1 2.7-1.6 2.8-.5 0-.7.5-1 1.7-.6 1.8-1.2 2.3-1.9 1.7zM224 121.4c.1-.2 0-.5-.3-.8-.7-.5-1-.4-1 .5 0 .6.2.8.6.8.3 0 .6-.2.7-.5zm162.3-2c.4 0 .5-.1.5-1.2 0-1 .1-1.4.5-1.5.6-.2.8-1 .2-1l-1.3-.5c-.5-.2-1.1-.4-1.2-.3-.2 0-.3 1-.3 2 0 2 .4 3.3.9 2.9.1-.2.5-.3.7-.3zM370 119c.6-.3 1.1-.9 1.4-1.5.5-1 .5-1 0-1.3a34 34 0 0 1-2-1.5 9 9 0 0 0-2.3-1.5c-.4 0-1-.3-1.3-.5-.5-.3-1.1-.4-3-.3-2.6.2-3.2.7-3 2.4 0 1 0 1.2 1.5 1.9.8.4 1.9 1.2 2.5 1.7 1 1 1 1 3.1 1 1.5 0 2.4 0 3-.4zm30.7-14.6c0-.3-.8-.7-1-.4-.2.2.2.7.6.7.2 0 .4-.2.4-.3zm3.9-3.4c.3-2 .3-2-.4-3-1.2-1.8-4.5-4.3-5-3.9a13.4 13.4 0 0 1 .4 3.8c0 1.9 0 2 1.1 3.3 1.2 1.5 1.8 1.9 2.9 1.8.6 0 .6-.2 1-2zm-180-4c0-3.6 0-4.8-.3-4.8-.4 0-.4.5-.5 3.3l-.2 3.6c-.2 1.3-.1 2 .1 2.3.8 1 .9.4.9-4.4zm2.2 2.8c.3-.2-.2-1.2-.5-1.2-.2 0-.2.7-.2 1.5 0 1.4 0 1.5.2.7l.5-1zm94.2-1.9c0-.4-.6-1.2-.9-1.2-.5 0-.5.3 0 .9.5.4 1 .6 1 .3zm-95.6-8.2c.5-.2.5-1.3 0-1.7-.4-.1-.5-.8-.6-3l-.2-3-.3 1.4c-.5 1.7-.5 5.7 0 6.1.3.4.5.4 1 .2zm139.5-2.1c3.8-2 4.3-2.4 5.6-4.2 1.1-1.6 1-2-.8-2-1.2 0-1.4 0-2.1-.8l-1-.8a7 7 0 0 1-1.5-1.5c-1-1.3-1.2-1.6-1.3-3.2-.1-1-.5-2.7-.9-3.9-1.1-3.5-1-3.5-.7-4.2l.4-.9c0-.2-1.2 0-2.6.4-1.6.4-2.5.2-2.4-.8 0-.5 1.6-2.5 2.8-3.4.3-.2.6-.7.7-1 .2-.7.1-.8-.5-.8l-.8.2c0 .2-.8.5-1.6.7-.7.2-2.2.9-3.2 1.5-1.2.8-2 1.1-2.7 1-.7 0-1 .2-1.3.8a6 6 0 0 0-.7 1.9c0 .5-.3 1.1-.6 1.3-.2.2-.4.8-.4 1.8a15 15 0 0 1-.8 4.7c-.1.2-.5.4-1 .5-.3.1-1 .4-1.3.8-1 .9-1.5 1-2.5.4-1.3-.7-2.1-.7-3 0-.6.6-.7.7-.3 1.4.2.4 1.7 2 3.4 3.5 1.6 1.5 3.2 3.1 3.5 3.6.4.4 1 .9 1.6 1a3 3 0 0 1 1.7 1.3c1.9 3 4.4 2 5.1-1.8.5-2.8 1.5-4.2 2.7-4.2 1.2 0 2 1.4 1.2 2.3-.5.6-2 4.2-2 4.8 0 .6 1 1 2.4 1 .6 0 1.1 0 1.2.2.2.2-.1.3 3.7-1.6zm-19.2-17.2a58 58 0 0 1 1.2-6.6c.2-.6.7-1.3 1.2-1.9.6-.4 1-.9 1-1l.4-2.1.6-4.3c.2-2.2.7-3.6 2.3-6 1-1.6 1.6-2 2.6-2 .4 0 1.2-.3 1.8-.6.9-.5 1.2-.6 2.3-.3 1.1.2 1.2.3 1.3 1 0 .7 0 1-.6 1.4-2.2 1.5-2.5 1.9-2.5 3.3 0 1.1.1 1.2.6 1 2-.5 7.6-6.4 8.2-8.5a73.6 73.6 0 0 1 2.2-6.1c.2-.7.8-2.1 1.3-3 1-2 1.3-3 1-3-.3 0-3.7 1.9-5.2 3-3.1 2.2-4.5 2.5-5 1.3-.2-.8-.8-.8-2.2-.2-1.8.7-3.7 2.1-5.6 4.2-2.2 2.5-2.7 3.6-2.5 6 .1 1.6 0 1.7-.5 2.1-.6.4-.7.4-1.1 0-.9-.7-1.5-2.4-1.7-4.7-.1-2.1 0-2.3.8-4.7l1.5-3.5c.8-1.7.6-2.2-.8-4.2-1-1.3-1.6-1.7-2.3-2-.9-.1-1-.3-1-1 0-1-.5-1.8-1.8-2.5-1-.6-1.4-.7-4.7-.7-4 0-3.5-.2-8.9 2.4a14 14 0 0 0-6 5.1c-.4.8-1.2 1.9-1.6 2.4-1.2 1.5-1 1.7 1.3 1.1l1.4-.3-.2-1.2c-.1-1.7.3-2.4 1.4-2.3.7 0 1 .2 1.6 1.5.4.8.7 1.7.7 2.1 0 1.3 1 2.4 2.6 3 2.2.7 2.7.8 3.6.4 1-.6 2.2-.1 3 1.3.6 1.1.5 1.5-1 2-1.1.6-4.3.1-6.9-.9-2.2-.9-2.7-1.2-3.1-2-.3-.5-.7-.6-2.9-.8a76.9 76.9 0 0 0-16.6.7c-.3 0-1 .4-1.7 1-1.1 1-1.6 1-2.6.8-.4-.2-.7 0-1.5.9-.5.5-1.4 1.2-2 1.5-1.5.6-1.7.9-1.3 1.3.2.2.9.3 2 .3l2.5.3c.5.2 2.2.3 3.8.3 2.4 0 3 0 4-.6.9-.5 1.3-.5 2.9-.4 3.2.3 3.6.5 4.7 2.2.8 1.2 1 1.7.8 2.3-.5 2.7-.5 3 .8 4 1 1 1.5 1.2 3.5 1.6 3.3.7 5.4.8 6.6.3.5-.2 1.7-.4 2.6-.4h1.7l1.3 1.5c4.2 4.7 4.2 4.7 3.3 5.6-.5.7-.3 1 1 1.4 1 .3 2.4 1.5 2.4 2.1l-.3.9v1.6c.3 1.2 2.3 4.3 3 4.4 1 .3 1.1 0 1.3-1.8zm1.1-15.8c-1.5-.7-2.5-2.7-2.5-4.9 0-1.1.1-1.5.7-2 .6-.7 1.5-.7 1.9 0 .3.3.8 2.5.8 3.1 0 .3.4 1 .9 1.4.9.8 1 1.7.3 2.3-.6.5-1 .5-2 0zM339 48c-1.2-.6-1.3-1.5-.4-2.4.9-.8 1.9-.6 2.5.6.3.8.3 1 0 1.4-.6.8-1.2.9-2 .4zM231.5 69c0-.7-.1-1-.4-1-.2 0-.4.2-.4.3l.7 1.6.1-1zm-.1-8.7c.1 0 0-.2-.2-.2-.3 0-.5.2-.5.5 0 .2.1.3.2.2l.5-.5zm123.3-.9c2.5-1.2 6.7-3 7.4-3 .6 0 1.4-2 1.4-3.4 0-.7 0-1.3-.2-1.3-.1 0-.9.5-1.7 1.2-2.1 1.8-3.8 2.2-7 1.5-.4 0-1.2 0-1.8.2l-1 .3v2.9c0 1.8.2 2.9.4 2.9l2.5-1.3zM232.7 46c0-8-.1-10.8-.4-12.5-.4-2.4-1-3-1-1v12.3c-.1 10 .2 13.7.9 12.3.3-.5.4-3 .4-11zm-7.5 6.8c.1-.3 0-.8-.2-1.1-.2-.3-.3-.6-.1-.7 0 0 .3-1.2.4-2.5.1-1.7.3-2.4.6-2.5.5-.2.7.6.3 1.4-.4.7-.4.8 0 1 .2 0 .3.7.3 2.9V54c.3-.2.5-9.4.3-10-.2-.7-.2-.6-.4.2-.2.9-.2 1-.6.5-.4-.4-.5-1-.4-4.6l-.1-4.9c-.2-.6-.2-.7-1.2-.4-.8.2-1 .4-1 .9 0 .4.1.6.5.6.5 0 .5.1.2.2-.6.1-.6.6-.1.6.6 0 .7.4.3.9-.6.5-.5.7.1.7.7 0 1 .6.5 1.9-.2.5-.3 2.5-.4 4.4l-.2 6.5-.2 3.2.6-.7c.4-.3.8-.9.8-1.2zm68.1-3.7c.5-.4.6-.6.3-.6-.2 0-.4.1-.5.3 0 .2-.3.2-.6.1-.4-.1-.5-.4-.3-3s.2-2.8-.3-2.7c-.4.1-.5.5-.7 3-.2 2.6-.2 2.9.3 3.2.7.5 1 .5 1.8-.3zm-21.6-5.6a8 8 0 0 1 .4-2.6c.3-.4.3-1.7.1-6.2-.2-6.7-.4-7.7-1.2-7.9-.4 0-.5.1-.7 1a103.9 103.9 0 0 1 .5 11.2c.1 5.6.2 7.1.5 6.9l.4-2.4zm82.2-8.4c1.7-1 3.3-1.8 5.3-2.4.6-.2 1-.2 1.5 0 .3.3.7.5 1 .6.5.3 3.5-1.5 3.1-1.9l-2.4.1-4 .5c-1.6.2-3.6.6-5.1 1-.2 0-.3.4-.3.8 0 .3-.3 1-.7 1.4-1.3 1.5-.9 1.5 1.6 0zM278.6 30v-3.3c-.8-.7-1.2 5.5-.5 6.3.2.3.4.4.5.4v-3.4zm-43 .7c.2-.7.1-.7-.2-.3-.5.7-.6 1.3-.1 1.2.2 0 .3-.5.4-.9zm16.5-1.3c0-1.4 0-1.5-.6-1.5-.7 0-.7.1-.6.8l.3 1.6c.1.5.3.7.6.6.2 0 .3-.5.3-1.5zm29.3-2.7c-.4-.3-.4-.2-.4 1.5 0 1.1.1 2 .3 2.2.3.3.4 0 .4-1.4s0-2-.3-2.3zm44.4-.8c1-.6 6.7-3 8.9-3.7.5-.2 2.2-.3 3.8-.3l3-.1-.2-2.1c-.1-1.2-.2-2.7-.1-3.8.2-2 .1-2-1.6-1.5-4.8 1.5-5 1.5-5.3 1-.4-.5-1-.6-1 0 0 .1-.6.8-1.4 1.4l-1.9 1.6c-.2.3-.7.6-1.1.7-.5 0-.8.3-.8.4l-.8.6a7 7 0 0 0-1.7 1.8c-1 1.2-1 1.3-1.9 1.2-1-.2-1.3.1-2.1 1.7-.4.7-.4 1.2-.3 2.5 0 1 .2 1.8.3 2 .1.2.9-.4 1.8-1.3l2.4-2.1zm-38 .2a1 1 0 0 0-.3-1c-.4-.4-.5-.4-.9 0-.3.3-.3.5 0 1 .3.7 1 .7 1.1 0zm-49.2-5.3c1 0 2-.1 2.5-.3.8-.3.8-.3.2-.5H237c-3.5 0-3.5 0-3 .6.4.4.6.5 1.6.3.7-.1 2-.2 3-.1zm44.5-.4.5-.7-3-.3c-2.2 0-3.1-.2-3.7-.5-.5-.4-1.2-.5-3.5-.5-2.4 0-2.9 0-3.5.6-.7.5-1 .5-5 .4-2.5 0-6.7-.3-9.4-.5-6.9-.4-10.7-.4-11.2.2-.4.3-.4.4 0 .8.5.5-.4.5 15 .6h7.4a200.8 200.8 0 0 1 13.5.5c1.8 0 2.5-.2 2.9-.6zm-53 0c.6-.3.6-.3-.3-.7-1.4-.7-3-.6-3.4.1-.3.3-.4.7-.4.8 0 .3 3.5.2 4.1-.2zm25.4-4.3c1.4-.4-2.1-.7-6.7-.5-3.3.2-4 .3-4 .6a49.7 49.7 0 0 0 10.7-.1zm3.6-.2c-.2-.1-.5-.1-.8 0h.8zm-24-1.8c-.3-.2-.6-.2-.8 0-.2.3 0 .3.5.3.7 0 .7 0 .3-.3zM8.4 225c-.3-.2-.2-1 .1-1.8.4-.8 3.5-2.5 4.7-2.5 1.6 0 1.6 1.8 0 2.7a5 5 0 0 1-1.3.5c-.2 0-.7.3-1.2.7-.8.6-2 .8-2.3.4zm337.8-8.5c-.3-.5.9-1.2 2.7-1.7 2-.5 2.5-.4 2.5.2 0 .6-.7 1-2.3 1.4-1.7.4-2.7.5-2.9.1zm9.7-3.5c-.3-.3-.2-.5.1-.8.2-.3.6-.5.8-.5.3 0 .4-.2.3-.6-.3-1.5 2-2 3.2-.8.6.6.7.6 1 .3.3-.7 1.9-.6 2.2 0 .4.7-.3 1-1.7.7-1.3-.2-3.2.4-3.5 1.1-.2.4-.5.7-.6.7l-1 .1c-.2 0-.6 0-.8-.2zm-167.8-5.1-2.8-.4c-2.2-.2-5-1-6.9-2-.4-.2-1.1-.4-1.6-.4-1.6 0-3-2-2-2.8.3-.3.7-.2 2 .4 1 .4 2.4.8 3.5 1 2.8.2 4 .6 5 1.6.3.5.9.9 1.2.9l.7.2c.2.2.5.2 1 0 .6-.3.8-.3 1.2.1.7.8-.1 1.7-1.3 1.4zm2.7-1.4c-.2-.2-.3-.3 0-.4l.2-.6c0-.3-.1-.4-.6-.3-.8.2-1.8-.2-1.8-.7 0-.5 2-1.3 3.1-1.3l2.4.3 2 .5a5 5 0 0 0 2.2-.6c1-.4 2.4-.8 3.6-1a90 90 0 0 1 11.4.5c.7 0 1.3 0 1.4-.2.1-.1 0-.2-.1-.2-.2 0-.3-.3-.3-.6 0-.5.1-.5 1.1-.4l2.5.3c.8.1 1.5.4 1.5.6.2.4 0 .5-1 .7-.8.2-.7.9.2.8 2-.2 7.4-.1 7.7.1.4.4 0 1-.8 1.4-.4.2-2 .4-3.4.4-2.6.2-4.7-.1-7.4-1a61.4 61.4 0 0 0-14.4.2l-1.5.3c-.7.4-3 .8-4.6 1l-1.4.2c-.2.2-.5 0-.7-.1-.3-.4-.4-.4-.7 0-.1.2-.4.2-.6 0zm112.8-.4c-.3-.4-.7-1-.8-1.4 0-.4-.3-1-.4-1.4-.2-.4-.4-1.4-.5-2.3-.3-2-.7-4-1-4.5a21.9 21.9 0 0 1-1.7-7.3c-.3-1.6-.3-1.9 0-2.2 1-1 2.4.5 2.4 2.6 0 .8.2 1.4.6 1.9.3.4.7 1.4.9 2.2a80 80 0 0 0 2.8 9.7c.8 1.7.5 2.8-.9 3.2-.5.1-.9 0-1.4-.5zm-142-2.3c-.8-.1-.5-.8.7-1.4 1-.5 1.4-.6 5-.5 4.2 0 5.6.3 5.9 1.1v.7c-.1.2-10.9.3-11.6.1zM253 199c-.3-.2-.6-.8-.7-1.4l-.6-1.7c-.2-.5-.4-1.2-.4-1.8a98.3 98.3 0 0 1-1.5-7.6 38 38 0 0 1-.7-8.7c0-4.7 0-4.7.6-4.8 1-.2 1.3.8 1.6 5a38.9 38.9 0 0 0 2 12 17 17 0 0 0 1.8 6.2c1 1.3.2 3.1-1.4 3.2l-.7-.4zm41.8-1.7c-.7-.3-1.5-1.6-1.9-3-.1-.4-.3-2.6-.3-4.8a52.7 52.7 0 0 0-1-11.3l-.8-5.4a207.2 207.2 0 0 1-2-12.2 73.8 73.8 0 0 1-1.2-7.1 80.5 80.5 0 0 1-1.3-18.1c.3-.5 1.1-.2 1.6.7.4.7.8 4 .9 7.9 0 .7.2 2 .5 2.9l.4 2.6.7 5a544.1 544.1 0 0 1 4.2 27.4 79 79 0 0 0 1 10.7c.2 1 .4 1.2.9 1.2 1.6 0 1.9 1.7.5 3-1 .8-1.2.8-2.2.5zM64 195.5c-.4-.6-.1-1.2.7-1.5.4-.1 1.9-.3 3.4-.3 2.3 0 2.7.1 3 .5.2.4.2.6-.2 1-.3.3-1 .4-2.5.3-1.2 0-2.6 0-3 .2-.8.1-1.1 0-1.4-.2zm-37-4.8c-.9-1.2-1-1.7-.2-2.5 1-1 2.6-1.7 3.5-1.5.3 0 .8.5 1 1 .4.6.4.7-.1 1.6-1.3 2-3.2 2.7-4.2 1.4zm38.6-1.4a15.2 15.2 0 0 0-5.3-.5c-2.6 0-3.2 0-3.6-.4-.4-.4-.4-.5 0-1 .3-.3.8-.5 1.6-.4l5 .2c5.5.3 5.5.3 5.5 1.4 0 1 .3 1-3.2.7zm88.7-.2c-.2-.1-.4-.8-.5-1.5-.1-.9-.3-1.4-.7-1.6-.7-.3-.5-1.7.2-1.7.3 0 .6.3.7.7 0 .3.3.7.6.8l7.3-.1a88 88 0 0 1 7.5 0c1 .2 1.4 1 .8 1.6-.3.3-.7.4-1.7.2l-2.8.1c-1 .2-2.3.2-3.5 0-1.8-.1-2-.1-2.8.4-.5.4-1.2.6-2 .6-.6 0-1.4.2-1.7.3-.7.4-.9.4-1.4.2zm91.4-.3c-.7-1-.8-1.3-1-4 0-1.6-.3-4-.6-5.5-1-6.1-1-8.5-.6-15.9 0-.4 0-2.3-.2-4.2-.3-4.4-.3-4 0-7.7a466 466 0 0 0 1.3-11.7 8 8 0 0 0 .1-3c-.1-.3-.1-.5.1-.7.4-.3 1-2.2 1.7-5.4.4-2.1 2.5-7.1 3.2-8 .5-.5 1.3-.5 1.6 0 .3.5 0 2.3-.7 3.9a25.6 25.6 0 0 0-2.7 9 82.1 82.1 0 0 0-1.7 10.6l-.4 3c0 .4 0 2.2-.3 4a146.8 146.8 0 0 0 1 27.4c.3.8.4 1.5.4 1.7 0 .2 0 .8.2 1.3.3.8.5 2.8.5 4.6 0 1-1.1 1.4-1.9.6zm76.7-.5c-.8-.8-.5-2 .7-3.5 1.7-2.2 3.2-2.7 4-1.6.2.3.6.9 1 1.2.6.8.4 1.4-.4 1.4-.5 0-.7.1-.7.6 0 .4-.3 1-1 1.5-.7.6-1 .8-2 .8-.7 0-1.3-.2-1.6-.4zM4.3 186.9c-.6 0-.8-.6-.3-1.4.2-.5.2-.5-1-.3-.6 0-1.3 0-1.6-.2-.7-.3-.8-1.4-.2-1.9.4-.3 4.5-1 5.1-.8.4.1.4 1.3 0 1.5-.4.3-.3.7.3.7.7 0 1.2.7.9 1.3-.2.5-2 1.4-2.5 1.3l-.7-.2zm379.2-7c-.2-1.1-.2-1.8-.2-5.3 0-2 .2-2.8.5-3.2.3-.5.4-.5.7-.2.1.3.2 1 0 1.6 0 1.2 0 2.4.7 5.8.4 1.9.3 2.2-1 2.2-.4 0-.6-.2-.7-1zm-167.1.2c-.3-.3-.3-1.4 0-1.6h.8c.8.3.7 1.6-.1 1.7l-.7-.1zm-192-5c-.2-.1-.3-.5-.3-.9 0-.5-.1-.6-.8-.4a4 4 0 0 0-.8.3c-.2.1-1-.5-1-.8 0-.6 1-1.7 1.5-1.9.7-.1 1.3.5 1.3 1.4 0 .6 0 .6.6.2.5-.5 1-1.5 1.4-2.6.2-.6 1.4-1.4 1.9-1.2.5.2.5 1.9-.2 3.1l-.5 1.4c0 1.1-2.3 2.2-3 1.5zm6-1.3c-.2-.3 0-2.8.5-5.1.1-.9 1-1.3 1.5-.8.5.6.8 3.2.4 4.4-.4 1.5-1.7 2.3-2.3 1.5zm309.3-.6c-.5-.7-.4-3.2.4-5.8a29 29 0 0 0 1-4.6c.3-3.4.5-3.7 1.5-2.6.5.6.5.7.3 3.3l-.5 4.2c-.2.8-.2 2.2-.1 3 .1 1.4 0 1.6-.6 2.3-.7.7-1.5.8-2 .2zM.3 172.5v-1c.3-.6.3-.6.9-.1.5.6.5 1.1-.1 1.4-.5.3-.6.2-.8-.3zm197.8-.2a12 12 0 0 0-2.5-.5c-2-.3-2.5-.6-2.3-1.2.2-.6.8-.6 3.4-.3 3 .4 3.5.6 3.7 1.2.2.9-1.3 1.4-2.3.8zm206.7-.4c0-.3.4-1 .9-1.5.7-.8 1-1 2.9-1.2 2.7-.4 3-.4 3.3.2.4.6-.2 1.3-1 1.3-1.2 0-3.5.8-4 1.3-.4.3-1 .6-1.4.6-.6 0-.7-.2-.7-.7zm-12.6-.4-2.1-.7c-1.4-.2-2-1-2-2.2 0-.9.1-1 .7-1.2.5-.1.8 0 1.5.8.5.5 1.3 1 1.7 1 2.6.6 3.8 1.5 3 2.5-.4.5-1.5.4-2.8-.2zm-187.1-.3c-.6-.7.3-1.3 1.9-1.6 1.8-.2 2.5 0 2.5.6 0 .7-.5 1-2.4 1.1-1.3.2-1.8.1-2-.1zm179-1.2c0-1.1.9-3.5 1.3-3.5.2 0 .4-.4.6-.8.4-1 1-1 1-.1 0 .4 0 .6-.4.6-.6 0-.8.5-.8 1.5 0 .3-.2.7-.3.8-.1 0-.3.4-.3.8 0 .9-.2 1.4-.7 1.4-.2 0-.3-.3-.3-.7zM15 168.2c-.4-.2-.6-.6-.6-1 0-.5 2-2.2 3-2.5 1.1-.3 1.5-.1 1.5.8 0 .7-.3 1-1.1 1.6-2 1.5-2.2 1.5-2.8 1zm385 0c-.2-.1-.4-.5-.4-.8 0-.4.5-1 1.6-2 1.8-1.4 2.6-1.8 3-1.3.4.7.2 1-1.6 2.6-1.7 1.6-2 1.7-2.7 1.5zm-58-10.7c-.6-.3-.8-1.3-.3-1.8.3-.2.3-.5 0-1l-.4-1.2a200.3 200.3 0 0 1-2-11.3c-.2-.1-.7-1.9-1.2-3.9l-1-3.8c-.1-.2-.6-.5-1-.7-1-.5-1-1.2-.2-2.4.5-.8.7-1 1.4-.8 1 0 2 1.6 2.6 3.7a88.4 88.4 0 0 1 3.1 17.9c0 1 0 1.8-.4 2.3-.4.6-.4.7.1 1 1.1.8.5 2.4-.7 2zm-326.6-1-1.9-.7c-2.7-.6-2.1-3.6.6-3.3 1.3.2 1.3.1.4-2l-.6-2.4c0-.8-1.9-3.2-2.8-3.4l-5-.4c-3.8-.3-4.3-.4-4.7-.9-.4-.4-.4-.6-.2-1 .4-.8 1.3-.9 7.3-.7 3 .1 4 .3 5 .7 1.5.7 1.9.5 1.4-.8l-.2-1.7c0-.7.1-1 1.4-1.8 1.8-1.2 3-1.5 3.6-.9.5.7 1.5.5 2.5-.4 1-1 1.8-1 2.6 0 .6 1 .5 1.5-.8 2.9-1.6 1.6-2.9 2-4 1.3-.5-.2-.6-.2-.9 0-.5.5-1 2.3-1 3.6a6 6 0 0 1-.4 2.1c-.5 1-.5 1 .2 2.4l.8 1.4-.5 1.2c-.3.6-.5 1.9-.5 2.7 0 2.2 0 2.2-.6 2.5-.4.2-.8.1-1.7-.3zm425.6-2.4-1.6-.8c-.6-.3-1.5-.5-2-.5-3.4 0-4.7-.5-4.3-1.6.1-.5.4-.6 4.3-.6 4.8-.2 5.4 0 5.6 1.3.1 1.4-.8 2.5-2 2.2zM230 144.9c-.1-1.2 0-1.7.6-1.7.5 0 .5 2.5 0 2.7-.3.1-.4-.1-.6-1zm-42 0c-.2-.2-.3-.6-.2-.8.1-.4.6-.4 4.4-.3h8.2c3.5-.3 4-.2 4.3.1.3.3.3.5 0 .8-.2.3-1 .4-3.2.3l-8 .1c-4.3.2-5.2.1-5.5-.2zm241-.7c-.4-.3-.5-3-.2-3.8 0-.2.4-.5.6-.7.5-.2.6 0 1.2.9l.7 1-.5 1.4c-.5 1.4-1.2 1.9-1.8 1.2zM215.4 142c-.9-.2-1.3-1-.8-1.5.2-.2.8-.4 1.7-.4 1.2 0 1.4.1 1.6.6.3 1-1.1 1.7-2.5 1.3zm-6.5-1.5v-.5c.3-.2 1 .2 1 .6 0 .4-.8.4-1 0zm.4-1.7a26 26 0 0 0-6.8-.6c-7.4-.2-8.7-.5-8-1.5.2-.3.5-.3 2.4 0 1.6.2 3.8.3 7.6.2 4.6-.1 5.5-.1 6.3.3.6.3.9.6.9 1 0 1-.8 1.2-2.4.6zm229.5-4.7c-.3-.6-.4-2.7-.2-3.2.5-.7 1.3-.9 1.8-.2.6.6.7 2.5.2 3.2-.4.4-1.5.6-1.8.2zm-16-10.4c-1-.7-1.1-1.5-.5-2 .5-.7 1.3-.5 2 .2.5.6.4 1.5-.3 2-.5.3-.7.3-1.3-.2zm-94-1.6c-.3-.4-1.1-2.3-1.9-4.3a36.8 36.8 0 0 0-4-7.5 17 17 0 0 1-2-2.9c-.3-.6-.8-1.4-1.2-1.7-1.2-1.1-.6-2.9 1-2.9.6 0 .9.2 1.3 1l2.3 3.8a38.7 38.7 0 0 1 5.6 14c0 1.2-.5 1.5-1.2.5zm99-2.5c-.2-.2-.2-.6 0-1.1l.2-3.1c0-2.7.3-5.3.7-6 .1-.3.5-.5.9-.5.7 0 1.2.9.9 1.8-.2.3-.5 1.7-.7 3.1-.2 1.5-.6 2.8-.7 3-.2.2-.2.4 0 .6.5.5.4 2.3-.1 2.5-.6.2-.8.2-1.2-.3zm-232.7-.3c-6.8 0-7.6-.2-7-1.1.2-.3 1.8-.4 8.3-.4l8.6.1c.7.3.8 1.2.2 1.4a518 518 0 0 0-10 0zm17.6-.8c-.5-.6.4-2.3 1.4-2.4.8 0 1.5.7 1.5 1.7s-2.2 1.6-2.9.7zm-4 0h.5c.1.1 0 .2-.3.2s-.4-.1-.2-.2zm214.2-4.8c-.3-.2-.7-.7-1-1.6-.5-1.6-.5-1.7 0-2.2.8-.9 2 .2 2.3 2.1.3 1-.5 2-1.3 1.7zm-300.7-1c0-.6.6-1 1-.6.6.3.2 1-.4 1-.4 0-.6-.1-.6-.5zm114.4-.5c-.3-.4-.3-.8-.2-1.5.2-1.8 1.3-2 1.6-.2.2 1.7-.5 2.5-1.4 1.7zm201.1 0c-.3-.7.1-3.1.6-3.5 1-.7 1.9.5 1.4 2.1-.4 1.6-1.6 2.4-2 1.4zm-210.8-.8c-.2-.4.4-.8.9-.5.3.2 0 1-.4 1-.2 0-.4-.3-.5-.5zm10-3.1c-.5-.5 0-.8.6-.5.3.2.3.3 0 .5-.3.3-.4.3-.7 0zm-5.3-.1c-.2 0-.4-.4-.4-.7 0-.7.5-1 1-.8.2 0 .4.4.4.7 0 .7-.4 1-1 .8zm-26.5-.4-1.9-.2h-4.7c-3.5 0-3.8 0-3.8-.5 0-.3.2-.6.3-.7a51 51 0 0 1 5.9-.2c4.2 0 5.7 0 6 .3.7.4.7 1 0 1.3-.6.3-.6.3-1.8 0zm-46-1.3c-.2-.4-.5-2-.7-3.8a58 58 0 0 0-1.5-8l-.6-4.4a81 81 0 0 1-1.4-14.5c-.2-1.2-.1-1.7.2-2.2.3-.4.6-.7.8-.7l1.8-.6c5-2.2 5.2-2.2 6.8-.6 1 1 1.1 1.3 1.1 2.2 0 1.1-.5 2.1-1.4 2.4-.4.2-1 0-2-.6-1.8-1-2.5-.8-3.3.7-.5.9-.5 1.2-.2 2.7.2.9.4 3.6.4 6a36.4 36.4 0 0 0 .7 7.2l.5 4.2.5 3.5v2.4c.3 1.9.3 2.2-.3 3.4-.6 1.4-1.1 1.6-1.5.7zm77.5-7c0-4.2 0-5.6-.3-6-.2-.4-.3-1.2-.1-3.8.2-3.6.4-4.3 1.4-3.8.7.4.9 1.3.7 3.5V93c.2 1.3.1 2-.2 3.1-.4 1.2-.4 1.5 0 2.5.7 2.2 0 6.2-1.2 6.2-.3 0-.3-1-.3-5.4zm-45.4 4.2c-.6-.5-.7-.6-.3-.9.3-.2.5-.2 1.2 0 .8.4 1 1 .4 1.2-.6.2-.4.2-1.3-.3zm-3.7-1.2c-.7-.4-1-.7-.8-1.2.2-.5.6-.4 1.6.2.8.5.9.6.6 1-.4.4-.7.4-1.4 0zm44-.7c.2-.7 1-.7 1 0 0 .3-.1.5-.5.5s-.5-.2-.4-.5zM134.4 99c-1-2.3-1.1-2.9-.4-3.1.3-.1.8-.2 1.1-.1.8.2 1.6 2 1.5 3.3-.1 1-.2 1.1-.8 1.2-.7 0-.8 0-1.4-1.3zM432 99c-.4-.3-.3-2.4.1-3.4.2-.5 1-.5 1.6 0 .8 1 0 3.8-1 3.8-.3 0-.6-.1-.7-.4zm-202.8-.5c-.2-.5.5-1.3 1-1 .3 0 .4.2.1.7-.3.8-.9 1-1 .3zM423.7 96c-1-.6-1-2.3 0-2.7.6-.4 1.6 0 1.9.8.3 1.1-1 2.5-1.9 2zm-312.4-1.2c-1-2.4-.7-3.8.7-3.5.5 0 1 0 1.4-.3a2 2 0 0 1 .9-.3c1 0 2.4.5 2.6 1 .3.4.2.6-.6 1-.6.2-1 .6-1.1 1-.2 1-1.6 2-2.6 2-.8 0-1-.2-1.3-.9zM96.5 92c-.8-1-1.8-3.4-2-5 0-.6-.3-1.3-.6-1.7-.5-.5-.5-.8-.5-3 0-1.4.2-2.7.4-2.8.1-.2.6-.4 1-.5.8-.2 1.5.5 1.5 1.6 0 .7 0 .7.5.4 1.5-1.4 2-.3.8 1.8-1 1.7-.8 2.3.4 1.7 1-.4 1.8-.1 1.6.6-.5 1.7-.4 1.9.5 2.7 1.2 1.1 1 1.8-.2 1.6-.8-.1-1 0-1 .8-.2.5-.2 1 0 1.2v.9c-.3 1-1.5.9-2.4-.3zM392 88.8c-.6-.5-.6.8-.6-25.4 0-12.2 0-12-.6-13.6a8 8 0 0 1-.6-3.2c0-1.9.1-2.2.9-2.4.8-.1.9-1.7 0-2-.8-.5-1-.9-.6-1.4.2-.5 1.9-.7 2.5-.3.3.2.4 2.5.2 14.3a275.8 275.8 0 0 0 .3 28.6c0 4.5-.2 5.4-.5 5.6-.3.1-.6 0-1-.2zm-150.8-1a5 5 0 0 1 0-2.2c.2-.8.4-2.2.4-3 0-2 0-2.1.6-2.1.8 0 1.2.9.9 2-.2.7-.2 1.1 0 1.5.3.6 0 3.6-.4 4.1-.4.5-1.2.4-1.5-.3zM52 87.3c-.2-.2-.3-.6-.3-.9.1-.4.6-.5 3-.8 3-.4 12.6-.6 14.4-.4 1 .1 1.1.2 1.1.7 0 .4-.2.8-.5 1-.3 0-2.8.3-5.6.3l-8.4.3c-2.9.2-3.4.1-3.7-.2zm347.3-1.8c-.9-.6-1-1.4-.6-2 .5-.7 1.5-.8 2-.3.6.8.8 2 .3 2.5s-1 .5-1.7-.2zm-211-.4c-.5-.2-.4-1.3.1-1.6l6-.2a67 67 0 0 0 8-.4c2.6-.1 3.3.2 2.6 1.2-.4.6-.5.6-7.6.6a87.2 87.2 0 0 0-9.1.4zm57.8-1.3c-.4-.4-.2-1.5.2-1.6.7-.3 1.2.6.9 1.2-.3.5-.8.7-1.1.4zM410 82.3c0-.3.7-1 1-1 .4 0 .4.5 0 1-.5.4-1 .4-1 0zm-13-3.2c-1.9-3-2.8-6.8-1.5-6.8.5 0 1 .8 1 1.6 0 .4.2 1 .5 1.3.6.8 1.5 3.6 1.3 4.1-.3.6-.8.5-1.3-.2zM59.5 76c-.8-.4-.6-1 .4-1.4a35 35 0 0 1 15.6-.4c.5.3.6 1.5.1 1.6h-7.3a97 97 0 0 0-8.8.2zm148.7-.5a9.9 9.9 0 0 0-4 0c-4 .5-7.7.3-8-.6v-.5l3-.1c1.7 0 4.4-.3 6-.4 2-.2 3.3-.2 4.6 0 1.2.2 2 .2 2.6 0 1.7-.5 3.3-.5 3.6 0 .6 1-.4 1.4-3.3 1.7-2 .2-3 .2-4.5-.1zm11.5-.2c-1-.7-.6-2.4.6-2.2.6.2 1.2 1.3.9 2-.3.7-.8.8-1.5.2zm187.6-1.8c-.1-.2 0-.6.1-.7.2-.3.4-.2.5.1l-.1.8c-.2.2-.4.1-.5-.2zm-7.5-2.6c-.1-.2-.2-1.3 0-3 .1-2.2.2-2.6.7-3l.6-.5-.5-.5a5 5 0 0 1-1-1.3l-1.4-2-1.1-1.9-.9-.7a2 2 0 0 1-.7-.4 35 35 0 0 1-.8-7.7c.2-.5.3-1 .2-1.1-.3-.6-.4-7.7-.1-11.3.3-3.6.4-4 1-4.6.9-1 1.2-.4 1 1.7l-.5 5.8c-.3 3.2-.3 4.8 0 8.5.3 5 .5 6.2 1.4 7.3a62 62 0 0 1 2.5 3.3c.3.3.8 1 1 1.7.3.6.8 1.7 1.3 2.4.8 1.3.8 2.3 0 1.8l-.8-.3c-.1 0-.3 1.3-.3 2.7 0 1.5-.2 2.9-.3 3-.4.5-1 .5-1.3.1zm-194.6-.1-.1-.8c0-.4-.3-.7-.7-.9-1-.4-1.3-.9-1-2 .2-.4.5-1 .7-1h-5c-4.1.2-5.6.1-6.2-.2-1.3-.5-.6-.7 3.4-.9 3.4 0 4-.2 3.7-.5-.2-.2-5-.3-9.4-.1-2.2 0-2.6 0-3-.5-.7-1 0-1.1 6-.8l10.2.4c3.5 0 4.5.2 4.6.5.2.6-.7 1.4-1.9 1.5-1.5.3-2 .5-1.8.7.2 0 .5.6.8 1.3.4.6.7 1 .9 1 .3 0 .6 1.1.4 1.8-.1.5-.4.7-.8.7l-.8-.2zm-4.3-6.2c.1-.1 0-.2-.2-.2s-.4 0-.4.2.1.3.2.3c.2 0 .4-.1.4-.3zm194.4 5c-.3-.5-.3-1 0-2 .4-1.8.6-2 1.1-1.5.5.4.7 3 .3 4-.3.6-1 .4-1.4-.4zm43-.6c-.3-.7.2-3.3.7-4 .4-.5.5-.5.8-.1.6.5.7 2.6.2 3.6-.4.8-1.4 1.2-1.7.5zm-34.5-.8c-.5-.5-.6-.8-.4-1 .4-.7.7-.6 1.2.3.4.6.4.8.1 1-.2.2-.5.1-1-.3zm27.5-1.2-2.7-.4c-1.1 0-1.2 0-1.2-.8 0-.7.1-.8.8-.7h1.6c1.5-.1 5.6 0 6.3.1.9.3 1.2 1.2.6 1.7-.5.6-3.4.6-5.4.1zm-6.5-.7c-.1-.2-2-.3-5.2-.3-.9 0-1-.1-1-.7 0-.3.2-.7.4-.8.7-.3 4.6-.2 4.7.1.1.2.6.3 1 .2 1.1-.2 1.8.4 1.4 1.1-.3.5-1 .7-1.3.4zm-378.4-1c-1.7-.2-2.5-.6-2.3-1.3 0-.3.3-.7.5-.8.1 0 2.6-.2 5.5-.1l9.4-.1c4.3-.2 4.8-.1 4.8.8 0 .3-.2.7-.5.8-.3.2-3.7.3-8.1.4a324.3 324.3 0 0 0-9.3.2zm33.8-.5c-.9-.8.2-1.7 2.5-2 1.4 0 1.6 0 1.8.4.2.6-.5 1.4-1.4 1.5-2.1.4-2.6.4-2.9.1zm191.3-1a4 4 0 0 1-.4-.9c-.3-.8-.2-8.4.1-9.3.3-.6.3-.7.7-.3.3.3.4 1.2.5 4.2 0 2.3.2 4.2.4 4.8.2.5.3 1.1.2 1.4-.2.5-1.1.5-1.5 0zm164.1-.5-1.4-.2c-.4 0-1-.3-1.3-.5-.4-.5-.5-.5-.9 0-.5.5-1.2.5-3.1.1-2.2-.4-3.1-.5-5.6-.2-7.1.8-7 .8-7 0-.2-1.1.8-1.6 3.4-1.8 4.7-.4 11.3 0 12.5.7.4.2 3 .2 3.2 0 .2-.3 2-.3 2.4.1.2.2.3.6.3.9 0 1-1.1 1.5-2.5.9zm-365.5-1c-.3-.2-.4-.5-.3-.8.2-.6.6-.9 1-.5.8.6 0 1.7-.7 1.2zm191.8-2c-.4-1.2.2-2.7 1-2.4.5.2.8 2.1.4 2.6-.5.6-1 .5-1.4-.3zm146.8-1.4c-.2-.4-.8-1.2-1.4-1.8-1-.9-1.2-1.2-1.2-2 0-1 0-1-.6-1-.4 0-.7-.3-.8-.7l-1-1.4c-.4-.5-1-1.3-1.3-2-.4-.5-.8-1-.9-.9-.1 0-.3 1.2-.4 2.5 0 1.4-.3 2.6-.5 2.7-.1.2-.3.6-.3 1s0 .4-.2 0c0-.3-.3-.7-.5-1-.3-.3-.4-.7-.2-2l.2-3.8a81 81 0 0 1 1.2-13.3c.3-1 1.2-1.4 1.4-.7a45.3 45.3 0 0 1-.6 10.2c0 1.1.1 1.4.6 1.7a23.1 23.1 0 0 1 4.6 7.5c.6.3 2.2 2.6 2.2 3.2 0 .3.3.7.6.9.6.4.6 1.4 0 1.5-.4.1-.7-.1-.9-.6zm-133.1-2v-5.5c0-5.1.3-6.7 1-6.1.3.3.4.9.2 3.3 0 1.6 0 4 .2 5.4v3c-.4.7-1.3.6-1.4-.1zm-148.2-2.1c-8-.6-7.7-.6-7.8-1.2 0-.4 0-.6.2-.6l5.7-.2c5.3 0 5.5 0 5.8.5.6.7 0 1.9-.7 1.8l-3.2-.3zm-58.8-1.2c-.4-.4-.7-.6-.8-.4-.4.6-1.7.7-7.3.7-11.2-.1-12.3-.2-12-1.2.2-.4 1.4-.4 9.5-.4 16.5.2 29.7 0 33.2-.3 1.3-.1 1.6 0 2 .3.8.8.5 1.3-1.1 1.5-.8.2-6.3.3-12.2.3l-10.7.1zM192 54c-3.2 0-3.8-.2-4-.6-.3-.3-.3-.5 0-.8.4-.3 1.4-.3 6.4-.2 3.2.2 8 .2 10.7.1 4.2 0 4.8 0 5.1.3.3.4.3.6.1.9-.2.4-1.2.4-7.3.4h-11zm90.4-4.3c-.2-.6.3-5.5.6-5.9.2-.2.5-.3.7-.3.5 0 .5 5.8 0 6.3-.4.4-1.1.4-1.3 0zM44.2 48.1c-.1-.1-.3-.5-.3-.8 0-.6.2-.6 4.5-1.2a182.5 182.5 0 0 1 8.1-1H60c1 .2 1.2.3 1.2.9 0 .4-.1.7-.3.8l-5 .2c-2.8 0-5.1.3-6 .5-1.6.5-5 .8-5.6.6zm22-1.3c0-.9 1.2-1.5 3-1.5 1.5 0 2 .2 2 .8 0 .6-1 .9-3.5 1.2-1.5.1-1.6.1-1.6-.5zm209.7-2.5c-.3-.6 0-3 .5-3 .4 0 .6 2.3.3 3-.3.6-.6.6-.8 0zm-59-.9-4.2-.3c-9.5-.4-10.6-.5-10.6-1 0-1 .7-1 5.7-.6 3.6.2 6 .2 8.1 0 2.6-.1 3.3-.1 4 .2 2.6 1.1-.1 2.6-3 1.7zM419 42.1c-2.6-.1-4.5-.4-7.6-1.2-.5 0-.6-.3-.6-.7.2-.8 1.4-1 3.6-.5 1.2.2 3.3.4 6.1.4 2.4 0 4.5.2 4.6.4.4.3 0 1-.6 1.3-1 .4-2.2.5-5.5.3zm-331-.1c-.4-.2-.3-.8.2-1 .3-.1 2-.3 4-.3a108.6 108.6 0 0 0 14.9-1c1.8 0 2 0 2 .5.2 1-.6 1.3-4.7 1.4-6.8.3-16 .5-16.3.4zm26-1c-1-1-.3-2 1.3-1.6 1 .2 1.4 1.1.7 1.7-.7.7-1.2.6-2-.1zm161.7-.5c-.2-.7.3-1.3.7-.8.3.3.1 1.4-.3 1.4l-.4-.6zm115-1.5c-.5-.3-.3-3.2.3-3.6.7-.4 1.1.2 1.1 1.6 0 1.3-.7 2.4-1.4 2zm37-5-2-.5c-2-.4-2.7-.9-2.2-1.5.4-.5 4.3-.6 5.4-.2.8.3.9 1.2.3 2-.3.4-1.2.6-1.5.2zm-36.2-.5c0-.3 0-.4.2-.1v.5c-.1 0-.2-.1-.2-.4zm15-.9c-1.6-.1-2.1-.5-2-1.3.1-.6 1.2-1 2.2-.8l6 .5c3.9.3 5 .4 5.2.7l-.1.6c-.3.3-9 .5-11.3.3zm13-.2c-.3-.2-.2-.4.4-.6.9-.3 2 0 2.1.4 0 .4-2 .5-2.5.2zm-28.3-1c-.2-1.2-.1-2.8 0-3.5.3-.7.5-.9 1-.9h.7l-.2 2c0 1-.2 2.1-.3 2.4-.2.5-1.2.6-1.2 0zm-342.9-4c-.6-.3-2.3-.3-9.8-.1-10.1.2-18 .1-18.4-.3-.2-.2-.4-.5-.4-.9 0-.5.3-.7 1.6-1.1 1.4-.6 2-.6 7-.6 13.7.1 14 .1 15 .6s3.6.5 11.5 0c3-.1 3.2-.1 3.4.3l-.1 1c-.3.4-.6.5-3.7.5-3 0-3.6 0-4.4.5l-1 .5-.7-.4zm57-.5c-.2-.3-2.5-.6-5-.8-4.3-.3-5.3-.5-5.4-1-.1-.7 1.1-.8 4.7-.5l4.7.3c2 0 3 .5 3 1.2 0 .4-.2.7-.4.8-.5.2-1.3.2-1.5 0zm69.4-.1c-1.2-.2-6.5-.6-10.1-.7l-5.8-.3-7.6-.6c-2.2-.1-4.5-.4-5-.5-.6-.2-2.2-.3-5-.1a903.2 903.2 0 0 1-8 .4c-1.9.4-3-.5-1.9-1.4.4-.3 2-.4 7.7-.4l8.5-.2c2 0 6.2.4 6.7.7.4.5 1.8.8 3.5.9l5 .3c4.8.4 9.8.4 10.5 0a95.1 95.1 0 0 1 12.8.2c.3.1.4.4.4.8-.1.7-.2.8-1.6 1-2 .2-8.9.1-10.1-.1zm253.8-.4c-1.8-.4-4-.7-5.2-.7-2 0-2.2 0-2.2-.5 0-.4.2-.6.7-.7l1.2-.3 3.5-.2c2.6-.1 3.2-.2 3.7-.6l1.4-.9c.7-.2 1-.2 1.6.2.5.3.6.6.6 1.8 0 2.6-.8 2.8-5.3 1.9zm-36.8-.5c-.3-.3-.4-1.2-.4-4.1 0-5.5-.3-8.1-1-8.7a23 23 0 0 1-.2-7.6 4 4 0 0 0 0-2.2c-.2-.9-.1-1.3.2-2 .5-1.3 1.1-1.6 2.3-1 1 .5 1-.2.4 7.4-.3 4-.3 4.9 0 6.1l.5 3.5.2 2.6c.1.3 0 .7-.1 1-.2.2-.4 1.3-.5 2.5-.2 2.4-.7 3.2-1.4 2.5zm-321-.1H68c-4.3 0-9.5-1-9.5-1.6 0-.6 1-.9 2-.6 2.2.5 6.2 1 9.3.8 3.7 0 4.5-.2 5.4-1 .7-.7 1.8-.8 2.3-.2.5.6 0 1.2-1.1 1.5-.6.2-1.3.5-1.5.8-.2.4-.6.5-2.2.4l-2-.1zM191 21c-1.1-.5-1.3-.8-.6-1.4.6-.4 4.4-.4 4.8 0 .7.7-.9 1.8-2.6 1.8L191 21zm-15.6-.7c-.8-.1-3-.3-5-.3-1.9 0-3.4 0-3.4-.2 0-.3 1.5-.9 1.8-.7l3-.1c3.2-.3 6.7-.4 7.4-.1.5.2.6 1 .1 1.4-.3.3-1.7.3-3.9 0zm-17.6-.2a5 5 0 0 1-1.4-.4l-1.4.1c-1.4.4-5 .1-5-.4s1.1-.7 2.9-.5c.8.1 4 .2 7 .1 5.2 0 6.8.1 6.8.6 0 .4-6.6.8-8.9.5zm150.5-3.4c-1-.3-1.4-.6-1.4-1.1 0-.5.2-.6 4.5-.6 5 0 6 .2 5.8 1.2-.1.6-.2.6-4 .6l-4.9-.1zM77.5 14c-1-.1-1.2-.3-1.2-.7 0-.5.2-.5 1.8-.4.9 0 3.6 0 5.9.2 4.7.1 5.3.2 4.5.7-.5.3-9.2.5-11 .2zm12.7-.3c-.6-.2-.6-.2 0-.3.7-.3 6-.3 6.4 0 .6.3-.6.5-3.2.5-1.4 0-2.8 0-3.2-.2zm8.3.1c-.5-.2-.4-.5.3-.8.9-.4 1.7-.4 1.7 0l.4.2c.3 0 .4-.2.4-.4 0-.3-.4-.4-1.9-.4l-4.7-.2a99 99 0 0 0-10.6 0c-2.7.2-3.1.2-3.5-.2-.5-.5-.5-.5 0-1a99 99 0 0 1 15-.2 112 112 0 0 0 20.4-.3c4-.3 4.7-.2 5 0 .3.3.4.7.3 1-.1.3-.6.4-2.3.4-2 0-2 0-1.7.4.3.3.7.4 1.4.2 2-.3 6.5-.7 6.9-.5.2 0 .3.4.3 1v.9h-3.1c-2 0-3.3 0-3.6-.2-.4-.2-1.7-.2-4-.1-4 .2-16.2.4-16.7.2zm-33.3-.6c-.2-.4.6-.6 1.4-.4.6.1.6.2.3.4-.5.3-1.5.3-1.7 0zm3.1 0c-.2-.1.4-.4 1.8-.7a7 7 0 0 0 2.1-.6c0-.3-.7-.6-1.8-.6-.5 0-1 0-1.2-.2a42 42 0 0 0-12.5.2v1.2h-8.4a86.7 86.7 0 0 1-12.6-.6c-2 0-3.7-.2-4-.3-.7-.4-.6-1.2.2-1.7a38.2 38.2 0 0 1 8.6.3 45.6 45.6 0 0 0 10-.2c.8-.6 1.3-.6 4-.7l9.3-.2L70 9l1.6.8c.8.5 1.7.8 1.8.8.2 0 .6.5.8 1 .8 1.6.4 1.8-2.8 1.9-1.5 0-2.9 0-3-.2zm-9.8-.4c-.4-.4-.3-.5.1-.8.7-.6 1.3-.4 1.3.4s-.9 1-1.4.4zM369 8c-.3-.3-5.7-1.3-8.7-1.6-1.5 0-2-.4-2-1.2 0-.6 1-.9 1.8-.6a168.7 168.7 0 0 1 7.3.5c3 .2 3.7.3 4.1.7 1 1 .3 2.4-1.3 2.4L369 8zM327.7 7c-1.8-.3-2-.4-2-1 0-.9 1.5-1.4 3.4-1.2 1.8.2 2.4.5 2.4 1.2 0 1-1.5 1.4-3.8 1zm-6-.1c-.1 0-3.1-.2-6.7-.2a56 56 0 0 1-11.5-.8c-.1-.1-.3-.4-.3-.7 0-1 .7-1.1 3.1-1l10 .5c5 .3 7.7.6 8 .8.4.3.5 1.3.1 1.3a259.8 259.8 0 0 0-2.7 0z"/>
</svg>
