<?xml version="1.0" encoding="utf-8"?>
<svg xmlns="http://www.w3.org/2000/svg" xmlns:svg="http://www.w3.org/2000/svg" version="1.1" viewBox="0 0 160 132">
  <title>Mr. Tod climbs up on to the window frame and peers in.</title>
  <path d="M104.6 131.2 55 131c-32.6 0-50.2-.1-51.5-.3-3-.4-3-.4-3-5.3A5576 5576 0 0 0 0 73.6c0-3 0-8.7.2-12.7.6-15 .6-14.7.5-37.1l.2-10c.2-.5.2-3.4.1-6.3a37 37 0 0 1 .3-6.2c0-.3.2-.7.5-1 .5-.4.8-.4 5-.1 2.6.2 9.5.4 15.5.5a98.7 98.7 0 0 1 12 .4c.6-.5 4.5-.4 17.5.1 8.5.4 32.3.5 49.2.2a3057.6 3057.6 0 0 1 43.2-.5c14-.3 14-.3 14.5.2s.5 1 .5 3.5v13.2a430.6 430.6 0 0 1-1 35.2l-.7 23c-.2 5.2-.2 33.4 0 37.4.1 1.9 0 5.8-.1 9.1-.3 5.5-.4 6-1 6.9-1 1.6-2 1.8-8.3 1.8h-43.5zm-39.1-3.5c1.5 0 1.6 0 1.5-.6-.2-.5-.1-.5.2-.2.4.3.5.3.7-.2.2-.3.5-.4 1.1-.3 1 .1 1 .5.1.6-.4 0-.8.2-.8.4-.1.2.3.3 1.3.3 1.2 0 1.6 0 1.8-.5.1-.3.5-.5.7-.5.2 0 .4-.1.4-.3l-.4-.2c-.3 0-.4-.3-.4-.6s-.2-.5-.3-.5c-.6 0-.2-.6.7-1 2.8-1.1 3.2-1.5 2.3-1.8-.2-.1-.7 0-1 .4-1 .7-1.2.7-2.2-.3-1-.9-1-1.3-.4-1.3l.7-.2c.1-.2.7-.6 1.3-.9 1-.5 1.6-.6 5.2-.7h4l1.3-1c1.3-.9 1.4-.9 4-.9 2.5 0 5.3-.4 5.3-.7l-.3-.5c-.2-.1-.2-.4 0-.6.2-.4.3-.3.8.2.6.8 1 .7 2.7-.4l1.6-1-1-.1c-1 0-1.2-.2-1.2-.8 0-.5.1-.6.4-.5l1.2.4c.3 0 .8.3 1 .5.2.3.4.3 1 0 .5-.3 1.2-.5 1.6-.5.4 0 1-.2 1.4-.5l.7-.5h-2.3c-1.8 0-2.6-.1-3.2-.5-1.2-.6-6.7-.6-9.5.1-1.2.3-2.2.4-2.3.3-.3-.4.7-.9 2-1 .8-.2 1.8-.5 2.3-.9 1-.7 4.2-1 5.4-.6.4.1 1.7.3 2.8.3 1.2 0 2.3 0 2.4.2a8 8 0 0 0 3.1.6c.1 0 .5-.6.7-1.2l.6-1h-.6l-1.5-.3c-.7-.3-1-.3-1.8 0s-1 .3-1.5-.4c-.6-.5-.6-.8-.4-1.2.2-.4.3-.4.7-.2l2 .5c1.5.2 3.3-.1 4.9-.9.5-.2.7-.2 1.3.6.9 1 1.4 1 2.2 0 .7-.8 1.3-.9 1.3 0 0 .4.7.4 2 0 .9-.5 1.7-1.3.7-1-1.1.5-2.1.6-2.5.1-.6-.6-1.1-.5-2 .3-1 .7-1.1.8-1.1.3 0-.2-.5-.8-1-1.2-1.4-1-2.7-1.1-5.8-.3l-4 .9a13 13 0 0 0-3.6 1.3c-1.8 1-5.5 2-8.6 2.2-1 0-1.8.1-1.9.2l-2.7-.2c-2.3-.2-2.6-.2-3 .2-.2.3-.4.3-1.4 0-2.2-.4-3.6-.3-4.7.6-1 .7-1 .7-4.5.7-2.7 0-3.5 0-3.5-.3 0-.2.4-.3 1.3-.3.7 0 1.3-.2 1.4-.3.1-.2.5-.2.8-.1.6 0 1.2-.3 1-.6-.4-.2-4.4-1.1-5.4-1.1-.6 0-1.7-.4-2.7-.8-1.4-.7-1.8-.8-2.2-.6-.3.2-1.5.4-2.5.6-1.8.2-2.2.2-4-.3-1.2-.4-2.6-.6-3-.6-1 0-1.6 0-6.2 1-2 .5-4.8.3-7.2-.4-1.1-.3-1.4-1-.3-.7 2.6.7 8.2.6 11-.1l1.3-.3-.7-.5c-.5-.4-.7-.5-1.2-.2-.5.2-1.6.2-3-.2-.2-.1-.6-.5-.7-.8-.2-.7-.3-.7-.6-.2-.3.3-.6.4-1.6.3-.8-.1-1.3 0-1.5.2-.2.2-1 .5-1.6.5-1 .2-1.3.1-1.3-.2 0-.3.4-.5 1.6-.6.9-.1 1.6-.3 1.6-.4 0-.1.2-.2.5-.2s.6-.2.7-.3c0-.2.4-.3.7-.2l.5-.1c0-.1 1.2-.2 2.9-.1 2.4 0 3 .1 3.5.5l.7.6s0 .3-.2.5c-.3.3-.3.4 0 .5.3.1.4.3.3.5-.1.2 0 .2.4.1a7 7 0 0 1 2.3.4c2.5.8 4.6.9 6.3.4 2-.6 2.1-.6 4 .4 1 .5 2 .7 2.3.7.3-.1 1.3 0 2.4.3 1 .3 2 .5 2.2.4.2 0 .4 0 .6.2.3.3 2.4.3 2.6 0h-.8c-.8 0-1-.2-.9-.5 0-.4.3-.5.8-.4.4 0 1 0 1.1-.2.6-.5 6.5-.6 7.8-.1 1 .3 1.8.4 6.2.1l5-.2 1.7-1c1.7-1.2 4.2-2 7-2.5 2-.4 2.4-.6 1.7-.9-.9-.3-3.8-.2-4 .1 0 .4-3 .3-3 0l.6-1.2c.4-.5.5-.8.2-.9-.1 0-.3-.3-.3-.5 0-.3-1-.9-1.7-.9-.2 0-.7.4-1.2.8-.4.5-.9.8-1 .8-.2 0-.3.3-.4.7l-.2.7-2.4-.2c-2-.1-2.6-.3-3-.7-.6-.5-.8-.6-1.3-.2-.9.5-3.5.7-6.6.4-2.1-.2-2.8-.4-2.8-.6 0-.4.5-.4 3.3-.2 2.7.1 3.4 0 3.8-.2a9 9 0 0 1 4.1-1l.4.7c0 .6 1 .9 2.8.9.6 0 .7-.1.6-.7-.2-.7.4-1.3 1-1 .3 0 .7-.2 1.2-.7.8-.9 1.2-1 3-.4 1.2.3 1.5.3 2.5 0 1.5-.5 4.8-2.5 4.7-2.9-.1-.4-1-.2-2 .7-1.2 1-3 1.6-3.8 1.5-.6-.1-.5-.1.2-.5 2.1-.8 4.6-2.5 4.6-3a13 13 0 0 0-3.4 1.8c-.2.2-1.7.6-3.3 1L89 98c-.8.4-2.4.5-2.4.1l1-.8c.5-.3.9-.6.8-.7 0 0-1 0-2.2.3-2 .5-2 .5-3.1 0a5 5 0 0 0-1.6-.6c-.3 0-.4-.2-.4-.5.1-.4.5-.5 1.4-.6l1-.2c-.4-.1-.6-1-.2-1.3l1.5-.8 1.2-.3h-1.3l-3 1c-1.6.9-1.7.9-3.5.6-1.2-.2-1.9-.5-2.2-.8-.3-.5-.7-.6-2-.6a12 12 0 0 1-2.9-.4c-1.4-.4-2-.5-2-.2 0 .5 3.5 1.6 5.2 1.8 1.3 0 2.2.3 3.2 1 1.8 1 2.2 1.5 2.2 2.6-.1 1-.7 1.3-1.7.7-.6-.3-.7-.3-1.1.2-.7.8-1.5 1-2.2.5-.5-.3-1.3-.4-3.3-.4-2.4 0-3 0-4.7-.7-1-.5-2.8-1-4-1.3a9.7 9.7 0 0 1-2.6-.8c-.3-.3-.7-.3-1.2-.2-1.5.4-3.3.1-4.3-.6-.5-.3-1.8-.9-2.8-1.2l-2.3-.9c-.8-.5-6.3-.5-7.3 0-.5.3-1 .4-1 .3l-.4.1c-.3.4 2.6.6 3.2.3.8-.4 1-.3 1.8 1.3l.8 1.5 2.9.3c1.6.2 4.2.4 5.8.4 2.8.1 4.6.5 5.4 1.2.7.5 3.3 1.1 6.5 1.6 3.7.4 4.7.7 4.8 1 .2.5 0 .5-4.5 0a24 24 0 0 0-7.7 0c-.3.1-.4.3-.3.7.2.4 0 .5-.7.5-.5 0-1.3-.2-1.8-.5-1.4-.7-3-1.2-3.8-1.2-.4 0-1.7.5-2.9.9-1.8.7-2.5.8-4.4.8-2 0-2.3-.1-2.8-.7-.6-.6-.7-.6-1.6-.3l-1 .4-.2.4c0 .4-.8.8-2.1 1.1l-1 .4c-.1.3-1.5.3-2.1 0-.4-.2-1.2 0-2.7.4-2 .7-2.2.7-2.5.3-.3-.4-.5-.5-1.8-.2-.9.2-1.7.3-2 .2-.3-.1-1 0-1.5.2-.7.3-1.1.3-1.6.1-.5-.2-.7-.2-1.5.4-.4.4-1 .7-1.2.7l-.7.2-1 .3c-1.5.1-2 .2-2.3.4-.5.4-1.1 0-1.1-.7 0-.6.1-.7.8-.7.4 0 1.2-.3 1.6-.5.5-.3 1-.6 1.3-.6.2 0 .8-.3 1.2-.7.7-.4 1.1-.6 1.5-.5.4.2.7 0 1.2-.5l.6-1c0-.3.3-.6.6-.8.3-.2.5-.5.4-1 0-.6-.1-.6-.8.5-.5.6-1 1.1-1.3 1.1-.2 0-.5.1-.6.3-.2.3-1 .3-1.8 0l-.7-.5.5-1c.7-1.3.7-1.7 0-1-.3.4-.7.6-.8.5-.3-.2.2-1.2 1.5-2.7l1.3-1.5c.5-.8.8-.3.3.7-.2.5-.5 1-.5 1.4-.1.8.5.7 1-.3.5-1.2.9-1 .6.5v1.2c.4 0 1.3-1.2 1.6-2 .3-1.3 1-1.5.8-.4-.2 1 .2 1.1.4.2.1-.5.3-.7.6-.6.2.1.4 0 .6-.5.2-.4.4-.6.6-.5.3.1.5-.1.7-1 .6-2.4 1.3-4 1.6-4.1.4-.1.4 0-.6 3.7-.8 2.9-.8 3.2-.4 3 .5-.3 1.5-2.8 1.5-3.6 0-1 .7-2.7 1-2.5.4.2 1-.6 1.4-1.8.2-.5.6-1.3 1-1.8l.7-1.4c.2-.4.3-.5.4-.2.3.4-.2 1.7-1 3-.8 1.4-.8 2.6 0 2.6.6 0 .7.3.2 1-.4.9 0 1 .6.4.3-.5.5-.9.3-1.3 0-.4 0-.7.3-.8.5-.2.6-.5 0-1-.4-.4-.4-.6 0-1.5.7-2 1.4-1.2.8 1-.2.7-.1.7.3.4l.8-1.2c.2-.4.6-.7.8-.7.5 0 1-1 1.3-2.2.1-.8.3-1 .8-1 .3 0 .7-.2.8-.4L41 83c-.5 0-.3-.6.5-3 .7-2 1.1-2.7 2.4-4 .9-.9 1.5-1.7 1.4-1.8-.2-.2.6-1.5 1-1.5.3 0 .3.7-.1 1-.3.3-.4 1-.2 2.7 0 .6 0 .7.4.2.2-.3.4-.8.4-1.2 0-.8 2.2-4 3.3-5L52 69c.6-.6.7-.9.5-1.3-.4-.7-.7-.7-1.7-.1-1.2.7-1.2.1 0-.9l1-1-1.5.3c-.7 0-1.5.3-1.7.5-.3.5-1.8 1-3.4 1.4-.6.2-2 .7-2.8 1.3-1.3.7-1.7.8-1.9.6-.1-.3-.4-.3-1.4 0-1 .3-1.2.4-.8.6.3.2.3.3.1.6-.2.2 0 .3.6.2 1.4-.2.7.5-1.2 1.3l-2.2.7c-.8 0-.3-.5 1-1.2 1-.4 1.2-.6.6-.5-1.7.4-3.6 1.5-4 2.4-.2.7-.6.9-2.2 1.4-1.7.6-2.2 1.1-1 1.1.8 0 .5.5-1 1.4-3 2-4.6 2.6-4.6 1.7 0-.1-.3-.7-.7-1.1-.3-.5-.6-1-.6-1.3l-.7-2c-.4-.7-.6-1.7-.6-2 0-.4-.2-.7-.3-.8-.4-.2-.9 1-1 2.3 0 .8-.2 1.7-.5 2.1l-.4 1.3c0 .5 1 1.7 1.4 1.7.1 0 .5.4.8.9.2.5.7 1 1 1 .2.1 1.2-.3 2.4-1a13 13 0 0 1 2.5-1c.8 0 .4.4-1 1.2-1.9 1-4.2 2.5-4 2.7l.6-.2c.3-.2.9-.3 1.2-.2.5 0 .4.1-.5.7-1.7 1-4.6 3.2-4.6 3.5 0 .2 2-1 3.4-1.9l2-1.7c1.1-1.2 2-1.5 1.5-.4a18 18 0 0 1-5.8 4.6c-.5.5-.5.5.1.3 1.1-.2.6.5-1 1.5-1.4 1-2.1 1.8-1.2 1.4.8-.3.4.6-.6 1.5-2.3 1.8-2.8 2.3-2.4 2.3.2 0 1.1-.6 2-1.5 1.7-1.6 2.3-1.5.9.3-.5.6-.7 1-.4.7 1-.5 1.6-1.2 2.4-2.3.8-1.3 1.4-1.8 1.6-1.6.3.3-1.3 2.6-2.7 3.9-.9.7-1.4 1.4-1.3 1.5l1-.6c.3-.5.9-.9 1-.9.3 0 .5-.1.6-.3 0-.2.2-.3.4-.2.3.1-1.2 3.5-2 4.3-.3.3-.8 1.1-1 1.8-.6 1.3-1.2 1.7-1.2.9 0-.5 1.3-3 1.6-3 .2 0 .9-1.4.7-1.6l-.4.5c-.2.3-.5.5-.8.5-.3 0-.7.3-1 .7l-1 1.4c-.4.4-.8 1.2-1 1.8-.4 1-.4 1 .1 1.2.5.1.5.3.3 2-.1 1.9-.3 2.4-.9 2-.2-.1-.2-.6-.1-1.7.2-1.4.1-1.5-.4-1.4-.3.1-.5 0-.5-.2 0-.6 1.3-3.8 1.6-4l1.4-1.6c.7-.8.9-1.3.6-1.4-.4-.3-2.4 2-2.7 3-.3 1-1 1.5-1 .7 0-.2-.1-.4-.5-.4s-.8 0-.9-.2c-.2-.2-.6-.2-1.2 0-1.1.3-2 .3-2 0s3-1.1 4.2-1.2c1 0 1.5-.4 1.5-1.2 0-.3 0-.3-.3 0l-.5.5c-.3 0-.2-1 0-1.2.2 0 .3-.4.3-.6 0-.4-.2-.5-1.4-.4-1.4.2-2.8.9-1.6.9.7 0 .8.5.2.7-.2 0-.6 0-.8-.3-.4-.3-.5-.3-1.5.1-1.2.6-3.3.7-3.8.3-.1-.2-.5-.2-.7-.1-.8.3-.9 1.2-.8 8.1v4l4-.1c3.9-.1 3.9-.1 4 .5.1.8 1.7.8 2.6-.1.8-.9 1.5-.8 3.9.5 2.8 1.6 2.7 1.6 4.6 1a100 100 0 0 1 3.4-1.2h3l4.1.3c1.3 0 1.5.1 1.8.8.3.5 1 1 2 1.5 1.6.7 1.6.7 2.5.2 1-.5 2.7-.4 7.5.6 3.8.8 5.3.8 5.4.2 0-.3.5-.4 1.4-.5l1.2.1c0 .2-.5.6-1.2 1-1.2.7-1.4.7-3.7.5-1.3 0-3.1-.3-4-.5-2.4-.6-6-.8-6.3-.4-.3.5-1.6.3-3.2-.6a8 8 0 0 1-2.2-1.4c-.4-.6-.7-.7-2.6-.7-1.1 0-2.5 0-3-.2-1-.3-3 .1-5.6 1.2-1 .5-2.9.4-4.7-.3-2.7-.9-3.4-1-4.2-.7-.4.2-1.4.3-2.2.3-1.2-.1-1.4-.2-1.7-.7-.2-.6-.4-.6-1.4-.5l-3.2.3-2 .2-.2 4.1c0 3.5 0 4.4.5 5.9 1.2 4.1 2.1 5 5.3 5.4 1 0 2.7.4 3.6.6 1.4.5 3 .6 8.3.8a54 54 0 0 0 8.1.1c.2.5.8-.3.6-.9-.1-.4.8-.8 2.9-1.2 1.2-.2 1.5-.6.5-.6-1.2 0-4.8-.5-7.1-1-1.2-.4-2.6-.6-3-.6-1 0-1.6-.2-1.6-.7 0-.3.2-.4 1.5-.2a69.8 69.8 0 0 0 10.3 1.7c5.5.6 6.3.8 6 1-.1.2-1 .3-1.8.4-1.6.1-6.8 1.2-7 1.4l.5.7c.6.4 1.2.5 4.6.5l10.2.2a393.7 393.7 0 0 0 19.8 0zm-5.9-.7a6 6 0 0 1-1.4-1.2c-.6-.8-1.3-.7-2 .4-.5.7-1 .9-1.6.8a95.7 95.7 0 0 0-6.2-.5c-.5-.3-.3-.9.3-.9.7 0 3.4-1 3.4-1.3l-.3-.4c-.4-.3-.3-.7.2-.7.4 0 1.8.6 3 1.3.8.4 1.6.4 1.6 0 0 0-.2-.2-.5-.2-.5 0-.1-.4.6-.6.4-.2.8 0 1 .3l1.6.9c.5.2 1 .6 1.1.8.3.6.8.5 1.4-.2.5-.5.9-.6 2.3-.6 1.6 0 1.6 0 1.7.8 0 1-.4 1.6-.6.9-.2-.3-.5-.4-1.3-.4-1 0-1.3 0-1.6.6-.5.8-1.5.9-2.7.2zM38 126c.4-.4 2.8-.8 3.2-.5.2.1.2.3 0 .5-.2.3-.8.4-1.9.4-1.3 0-1.5 0-1.3-.4zm-3.4-.1c0-.2.3-.3.7-.3.4 0 .6.1.5.3 0 .1-.4.3-.7.3-.3 0-.5-.2-.5-.3zm32-.2c-.3-.2 0-.6.3-.6.1 0 .3.2.3.4 0 .4-.4.5-.7.2zm-21.1-.6c0-.1.2-.4.6-.6l.8-.6c.3-.5.9-.5 1 0 .3.6 0 1-.6 1-.3 0-.6 0-.6.2-.3.3-1.2.3-1.2 0zm23.8-.5c-.2-.2-1.1-.3-2-.2-1.2 0-1.6-.1-2.1-.6-.4-.3-.8-.5-1-.4l-.7-.1c-1.3-.7-1.8-.9-2.7-.8-1.4.1-1.2-.4.6-1.2l1.9-.7c.3 0 .2.6-.3 1.1-.5.5-.4.6.5.4.7 0 1 0 1.8.7.8.6 1 .7 1.9.6.7-.1 1.3 0 2.2.4.7.3 1.2.7 1.2.8 0 .3-.8.3-1.3 0zm-60.9-.7a34.5 34.5 0 0 1 13.6-4.4l2.4-.2c2.3 0 2.7-.2 2.7-1 0-.4.2-.5 1.8-.6 1 0 2 0 2.2.3.2.1.6.2 1 .1.4 0 1 0 1.4.2.5.3 1 .4 1.1.4.5 0 .3-1-.4-1.8-.9-1-.7-1.7.4-1.5l1.8.4c1.3.2 2.6 1.4 3 2.5.1.7.2.8 1.7.8 1.9 0 5.6.8 6.1 1.3.6.4.5.6-1 1.3-.9.5-1.3.6-1.5.4-.2-.2-.4-.1-.7.3-.3.4-.6.5-2 .5a6 6 0 0 1-1.8-.3l-1.3-.4c-1.2-.2-1.2-.5-.3-.9.5-.1 1-.1 1.6.2l1.9.5c.8 0 1-.1 1.5-.7l.5-.6-.8-.4a6.8 6.8 0 0 0-4.5.2c-1.2.5-1.5.3-.8-.6.8-1 .7-1.8-.1-2.5-.7-.5-1.7-.9-1.9-.7l.5 1.3c.4.8.5 1.4.4 2.2l.1 1.2c.2 0 .3.2.3.4 0 .3-.2.4-.5.3l-1-.3c-.5-.1-1.2-1.2-1.2-2 0-.3-1.6-.8-2.8-.8-.5 0-1-.1-1-.3l-1-.2c-.9 0-1 0-1 .6 0 .7-.6 1-2.3 1-1.3 0-7.3.9-9.5 1.4l-3.3 1a29.6 29.6 0 0 1-5.2 1.8c-.4 0-.4 0 0-.4zm40.9.1-.7-.2c-.9 0-.3-.5.9-.7 1-.2 1.1 0 .8.8-.1.4-.7.5-1 .1zm9-.6c.1-.5 1-.5 1 0 0 .2-.3.4-.6.4-.4 0-.5-.2-.5-.4zm-3.6-.7c-.6-.4 0-.7 2-1.2 1-.2 2.5-.8 3.5-1.2 1.9-.8 2.6-1 2.4-.4-.2.5-2.5 1.7-4.4 2.3-2.6.7-3 .8-3.5.5zm-6-1.3c0-.1.2-.4.5-.5.4-.3.5-.2.5 0 0 .5-.7.8-1 .5zm1.8-.5c-.3-.2-.3-.3 0-.5.6-.2 1 .1.6.5h-.6zm2.3 0c-.2-.3 1-1.1 1.7-1.1l.8-.4c.4-.4.5-.4 1 0 .3.3.7.4 1.2.3.5-.2.7-.1.7.3 0 .7-.8 1-1.7.6-.6-.2-.9-.2-1.4.1-.4.4-.7.4-1.1.2-.4-.2-.6-.2-.8 0-.2.2-.3.2-.4 0zm-9.7-2.4c0-.3 1.3-.7 1.5-.4.2.2-.5.6-1 .6-.3 0-.5 0-.5-.2zm3.7 0c0-.2.2-.3.5-.3s.5.1.5.3c0 .1-.2.2-.5.2s-.5 0-.5-.2zm-30.2-.4c.2-.2 1.9-1 3.7-1.7a14 14 0 0 0 3-1.6 5 5 0 0 0-1.7-.3c-1 0-2-.1-2.5-.3-1-.3-3.6.3-4.4 1.1-.3.3-.8.5-1.4.5l-2.8.4c-2 .4-2.3.4-2.3-.2 0-.5.4-.6 3-1 2.5-.3 4.5-.9 5.2-1.5.4-.3.7-.3 2 0 3 .5 6.2.7 7.3.5 1.2-.4 1.4-.3 1 .5a1 1 0 0 1-1 .5c-.3 0-1.6.5-2.7 1-4.4 2-7.4 3-6.4 2.1zm46.7.1c-.2-.3.2-.4 1.9-.6 1.4-.2 2.2 0 1.8.6-.2.4-3.5.4-3.7 0zm-12.8-.2c0-.5 1.5-1.2 1.7-.8.1.2 0 .5-.3.7-.5.4-1.4.4-1.4 0zm22 0c0-.3 1.1-1.1 1.5-1.1v.6c-.3.7-1.5 1-1.5.5zm5 0c0-.2.3-.3.8-.3l.8.2c0 .2-.4.3-.8.3-.5 0-.8-.1-.8-.3zm2.5 0c-.4 0-.5-.7-.1-.6.9.2 1.3.4 1.3.6 0 .2-.3.2-1.2 0zm-31.5-.4c-.4-.3-.5-.5-.2-.7.3-.3.4-.3.8 0 .6.7.1 1.2-.6.7zm-2-.2.4-.2c.2 0 .4 0 .4.2s-.2.3-.4.3-.4-.1-.4-.3zm11 0c-.3-.5.2-.8 1.5-1 1 0 1.3 0 1.3.2s.4.3 1.4.1c1.3-.1 1.5 0 1.5.3 0 .5-2.3.9-3 .5-.2-.2-.6-.3-.8-.2-1 .3-1.8.4-2 .1zm18.5-.2c-.3-.3 0-.6.7-.6.5 0 .8.1.7.3 0 .3-1.1.5-1.4.3zm-43.9-.3c-.2-.4 0-.6.6-.5.4 0 .4.1 0 .4-.3.3-.5.3-.6 0zm19.6-.3-.4-.5c0-.4 1.4-.2 1.5.2.1.4-.5.6-1 .3zm28.8 0c-.2-.7 0-1 .5-.6.2.3.2.4 0 .7-.3.2-.4.2-.5-.2zm4.3.1c-.2-.2 0-.6.4-.6l.2.4c0 .4-.3.5-.6.2zm3.8 0c0-.2.1-.3.3-.3.1 0 .2 0 .2.2s-.1.3-.2.3a.3.3 0 0 1-.3-.3zm.8 0c0-.2.2-.4.3-.4.3 0 .3.4 0 .5-.2.1-.3 0-.3-.2zm-35.4-.3c-.6-.2-.4-.9.3-.8.3 0 .6.3.6.5 0 .4-.4.5-.9.3zm27.5 0c.2-.6.7-.7.7-.2 0 .2-.1.4-.4.4-.2 0-.3-.1-.3-.3zm1.3 0c0-.2 0-.3.2-.3s.3.1.3.3c0 .1-.1.2-.3.2a.3.3 0 0 1-.2-.2zm-40.2-.4c-1.4-.4-1.4-.8 0-.8 1 0 2 .5 2 1 0 .2-.5.2-2-.2zm14 .1c0-.1.2-.3.4-.3s.4.2.4.3c0 .1-.2.3-.4.3s-.4-.2-.4-.3zM91 116c0-.3 0-.4.2-.4s.3.1.3.4c0 .2-.1.4-.3.4l-.2-.4zm-4.8-.5c0-.4 1-.7 1.5-.5.8.2.3.8-.6.8-.6 0-.9 0-.9-.3zm3-.1c0-.3.2-.7.6-1 .6-.4.7-.4 1.1 0 .4.3.4.4-.3.5-.4.1-.7.4-.7.6 0 .2-.2.3-.4.3s-.4-.2-.4-.4zm-61.7-1c0-1 0-1 1.1-1 .7 0 1.3.2 1.4.3.1.2.9.3 2.3.2l2 .1c0 .4-.3.5-2.3.6-1 0-1.9.1-1.9.2 0 .4-.7.2-.9-.2-.2-.4-1-.2-1 .3 0 .2-.1.4-.3.4-.3 0-.4-.3-.4-1zm46.2.4c-1.3 0-1.8-.1-1.7-.4 0-.1.2-.3.4-.3l2.7.1c1.8 0 2.4.1 2.3.4-.1.3-1 .4-3.7.2zm8.1 0 .3-.3.1.3c0 .1 0 .2-.2.2s-.2 0-.2-.2zm2.6 0c0-.2 0-.3.2-.3s.3.1.3.3c0 .1-.1.2-.3.2a.3.3 0 0 1-.2-.2zm-22.3-.3.3-.3c.2 0 .2.2.1.3 0 .2-.2.3-.3.3v-.3zm-1.7-.2c0-.2 0-.4.2-.5.4-.2.6.1.3.5-.2.2-.4.2-.5 0zm3-.2c0-.2 0-.4-.2-.4s-.3-.2-.3-.4c0-.3.2-.4.7-.3l.6-.1.6-.2h.6l-.6.4c-.3.2-.6.6-.6 1 0 .2-.1.4-.3.4a.4.4 0 0 1-.4-.4zm28.1 0c0-.2.2-.4.4-.4.3 0 .7-.2 1-.4.2-.2.6-.4 1-.4s.6 0 .8.6c.3 1 0 1.3-.4.7-.4-.6-.8-.6-1.2 0-.2.1-.6.3-1 .3s-.6-.1-.6-.4zm-22.6-.3-1-.2c-.5 0-.9-.2-1-.4 0-.1-.3-.3-.7-.3-.4 0-.6-.1-.6-.3.2-.4 1.5-.3 2 .1.2.2.7.3 1.1.4h1.4c1.1.1 1 .9-.1.9-.5 0-1 0-1-.2zm-33.8-.3c0-.2.3-.3.7-.3.4 0 .7.1.7.3 0 .1-.3.2-.7.2-.4 0-.7-.1-.7-.2zm44.6 0v-.6c.2-.3 1.2.2 1.2.6 0 .3-1 .3-1.2 0zm1.8 0c0-.3.4-.5.7-.5.4-.1.6 0 .5.2 0 .2-.4.4-.7.5-.4 0-.6 0-.5-.3zm-10.1-.2c0-.4.4-.8 1-1.1.8-.5 1 0 .2.6-.7.6-1.2.8-1.2.5zm4.2-.5c0-.2.2-.4.4-.4s.4.2.4.4-.2.4-.4.4a.4.4 0 0 1-.4-.4zm-14.2-.4c-.6-.3-.1-.8.9-.8.5 0 1 .1 1 .3.3.3-.3.7-1 .7a2 2 0 0 1-1-.2zm15.5 0c0-.5 1-.8 1.7-.5.3.1.4.3.3.4-.2.3-2 .4-2 0zm-3.4-.4c0-.3.2-.4.5-.4.6.2.7.8 0 .8-.3 0-.5-.2-.5-.4zm-15-.2c0-.2-.4-.3-1-.3-.5.1-.7 0-.6-.2.2-.6 1.5-1 2-.6.3.2.8.3 1 .2.9-.2.8.5 0 1-.9.3-1.2.3-1.4-.1zm-4.3-.3c0-.3.3-.6.5-.6.2-.1.3 0 .2.3 0 .3-.2.5-.4.6-.2 0-.3 0-.3-.3zm1.5 0c-.2-.5 0-1 .4-1 .1 0 .2.3.2.7 0 .7-.4.9-.6.2zm-25.4-5.2c0-.1.7-.3 1.4-.3s1.4.2 1.5.3c0 .2-.5.3-1.5.3s-1.6-.1-1.4-.3zm34.2-2.1c0-.2.2-.3.4-.3s.4.1.4.3c0 .1-.2.3-.4.3s-.4-.2-.4-.3zm2 0c-.3-.4 0-.6 1-.7.8-.1 1 0 1 .2-.1.2-.4.4-.6.4-.2 0-.5 0-.6.2-.3.2-.6.2-.8-.1zm-5.4-.6c-.3-.3-.4-1 0-1 .3 0 1 .8 1 1-.3.4-.6.4-1 0zm11.7 0c0-.2.3-.4.6-.4s.4 0 .3.2c0 .2-.3.4-.6.5-.3 0-.4 0-.3-.3zm-3.7-.2c0-.2 0-.3.3-.4.5-.2.8 0 .5.4-.2.3-.5.3-.8 0zm1.7 0c-.4-.3-.2-.6.3-.5.3 0 .6.2.6.4 0 .3-.7.5-1 .2zm-60.1-.8c0-.1.2-.3.4-.3l.2.3c0 .1-.2.3-.4.3s-.3-.2-.2-.3zM6 101.3c-1.2-.2-2-.5-2-.6 0-.4.8-.4 2.5 0 1.6.3 1.8.3 3 0 1.3-.6 2-.6 3-.2.7.3.8.3.3.6h-1.2l-1.2.1c-1 .5-2.4.5-4.4.1zm87.2-3.2c0-.1 0-.3.3-.3.2 0 .4.2.4.3 0 .1-.1.3-.3.3l-.4-.3zm-68.4-3.6c0-.2.3-.7.7-1l.7-.8-.2.8c-.2 1.2-1.2 2-1.2 1zm-1.6-.8c-.1-.1 0-.8.3-1.4.3-.8.6-1.3 1.3-1.6.4-.2 1-.8 1.2-1.2.5-1 1.2-1.7 1.2-1.2 0 .7-1.3 3-1.8 3-.3 0-.8.4-1.2 1.2-.8 1.4-.8 1.5-1 1.2zm3.7-1.2.5-1 .6-2.3c.1-.8.4-1.7.6-2 .3-.2.5-.6.5-.9a9 9 0 0 1 2.5-3c.4 0 0 .8-1 1.8-.5.7-1 1.3-.9 1.4.1 0 0 .7-.4 1.3a6 6 0 0 0-.5 1.8c0 .7-1.2 3.2-1.6 3.2-.1 0-.3-.1-.3-.3zm-5-1.1c0-.3 5.4-5.6 6.2-6 .3-.2.4-.2.4 0 0 .4-1.2 1.7-3 3L24 90.4c-1.4 1.4-2 1.8-2 1.1zm9.5-3.8c-.2-.3 1.4-2.8 2-3.4.2-.1.4-.5.5-1 .2-.8.6-1.4.9-1.2.3.4-.5 2.5-1.3 3.4L32 87.1c-.4.5-.6.7-.7.5zm1.1 0c0-.3 1.3-2 1.3-1.7l-.6 1c-.4.6-.7.9-.7.7zm-8.2-1.2c0-.2.2-.7.5-1 .6-.8 3.9-3.2 4.3-3.2.6 0 0 .7-1.5 1.9-.9.6-1.9 1.5-2.2 1.9-.7.8-1.1 1-1.1.4zm13.8-1c0-.7.5-2.4 1.5-4.5.8-1.8.6 0-.3 2.7-.9 2.6-1.2 3.2-1.2 1.8zm-1.8-.5.4-2.1c.4-2 1.2-4.4 1.6-4.5.5-.1.3.8-.4 2.8a14.1 14.1 0 0 0-1 3.6c-.2 1.1-.8 1.3-.6.2zM30 83.4c-.3-.4-.1-.6 1.3-1.7 1.3-1 2.2-1.3 2-.8l-3 2.7-.3-.2zM28.8 79c0-.2 4.8-2.7 5.2-2.7v.4c0 .2-1 .8-2.1 1.4-2.3 1.1-3.1 1.3-3.1.9zm11.6-1 .4-.7c.4-.6.4-.7-.2-.5-1 .2-.8-.3.8-1.5 1.7-1.4 2.2-1.6 2.2-1 0 .2 0 .4-.2.4l-1 .8c-.7.6-.8.8-.5.8.6 0 .5.3-.4 1.1-.7.7-1 1-1 .6zm-5.4-.9c-.2-.3 0-.4 1.8-1.3 2.3-1 2.7-.6.7.6-1.5.8-2.3 1-2.5.7zm4.4-1.9c.2-.5 2-2 2.3-1.7 0 .1-.3.6-.8 1.1-1 1-1.7 1.2-1.5.6zm-5.4-.2c-.2-.3 2.6-1.8 4-2 1.4-.3.8.3-1.1 1.2-2.2 1-2.7 1.1-3 .8zm8.4-2.1c0-.2.2-.5.7-.7 1.4-.7 2.2-.3 1 .5-.7.5-1.4.6-1.7.2zm-1.7-1.2c0-.4 1-1 2.5-1.4 1.3-.3.8.6-.7 1.1l-1.6.6c-.1 0-.2 0-.2-.3zm6.5-1.5c-.1-.1.1-.3.4-.5a108.1 108.1 0 0 0 3-1c.4.3-.4 1-1.6 1.4-1.5.5-1.6.5-1.8.1zm-1.7-1c-.4-.3 0-.6 2-1.2 1.4-.5 2-.4 1.5.1-.4.5-3.2 1.3-3.5 1zm68.2 58.4c.7-.4 0-.6-1.6-.3-1.4.1-1.6.2-.9.4 1.2.2 2 .2 2.5 0zm3.7 0v-.2c-.2 0-.3 0-.4.2 0 .2 0 .3.2.3.1 0 .2-.1.2-.3zm-19.5-.2c0-.2-.2-.3-.5-.3-.2 0-.3.1-.2.3l.4.2c.1 0 .3 0 .3-.2zm48-1c1.4-.4 2.5-.8 2.5-1 0-.2.3-.2-3 .4l-3.7.9-.9.4h1c.4 0 .8.1.8.3a35 35 0 0 1 3.4-1zm-72.1.7c0-.2-.3-.2-.8 0-1 .2-1 .3 0 .3.4 0 .8-.1.8-.3zm5.2 0c1 0 1 0 1.5-1.3.2-.8.4-1.4.3-1.5l-2 .2c-1.5.2-2 .2-2.3-.1-.4-.5-2-.8-2.5-.6l-.2.5c0 .2-.4.5-.9.7l-.8.3.9.3c.5.2 1 .5 1 .7.3.9 1 1.1 2.5 1l2.5-.2zm22-.3c.6-.2 1.1-.6 1.2-.8.3-.4-.4-1-1.1-1-.8 0-3 .6-3.7 1-.4.3-.4.3 0 .3l1.5.5c1.1.7.9.7 2.1 0zm8.5.2-.6-.4c-.1 0-.1.2 0 .4l.7.4-.1-.4zm20.4.1c0-.1.4-.3 1-.3.5 0 1.8-.2 2.8-.5l1.9-.5h-2.4c-1.9 0-2.4-.1-2.8-.5-.3-.3-.9-.6-1.3-.6a37 37 0 0 0-6 1.4s0 .3.3.5c.7.6 6.5 1 6.5.5zm9.4-.6c2.8-.9 1.1-.8-2.2 0-2.6.8-2.7.9-1.3.7.9 0 2.4-.4 3.5-.7zm9.9.3 1-.4-1.3.1a8 8 0 0 0-2 .5l-.8.4 1.1-.1c.6 0 1.5-.3 2-.5zm-62.5-.1 1.5-.6c.5-.4 3.7-1 6.3-1 2.8-.1 4.3-.6 2-.6-1.6 0-1.6-.6 0-.9H96a28 28 0 0 0-8.1 1.3c-2.4 1-2.7 1.2-3 .7-.8-.9-3.5-.1-3.5 1 0 .5.2.5 2.1.5a12 12 0 0 0 3.2-.4zm26.3-.9c.4-.1.4-.2.1-.8-.2-.4-.6-.8-1-1-1-.5-.7-1 .4-.8l2.2.3a4 4 0 0 1 2 .6c.6.5 1.7.3 1.9-.4 0-.5.2-.5 1.2-.2l2.3.6c.8.3 1.3.3 1.8.1.4-.2 1-.2 1.2-.1h1.5c1-.2 1.1-.3.8-.5-.2-.1-.4-.4-.4-.6 0-.5 2-.5 2.8 0 .6.2.9.2 2.2-.5 1.3-.6 2.9-2 2.9-2.6 0-.4-.8-.2-3.6.6-1.5.4-3.2.8-3.8.8-.6 0-1.1 0-1.2.2l-1.4.4c-.8.1-1.4.3-1.5.5l-1 .2c-.5 0-.7-.2-1-.7-.3-.7-.3-.7-2-.5a45 45 0 0 0-11.8 2.8c0 .1-.3.4-.8.7l-.9.4 1.4-.2c1 0 1.5 0 2.2.4 1 .5 2.6.7 3.5.3zm1.8-.3a2 2 0 0 0-.4-.9c-.4-.5-.4-.5-.4.3 0 .6.1.9.4.9.2 0 .4-.2.4-.3zm5.2 0c.5-.2.6-.3.4-.6-.2-.2-.5-.2-1 0-.7.4-3 .6-3.2.3-.2-.3-.6 0-.6.3 0 .4 3.5.4 4.4 0zm25.5-.5c3.3-.6 4.8-.7 5.7-.1.3.2.8.3 1.1.2.7-.2 1.4-2 1.6-4.3.1-1.8 0-2-.3-1.7-.4.4-1.8 3.5-1.8 4.2 0 .2-.1.4-.3.4-.6 0-1-.7-.9-1.3.2-.7 2.1-4 2.9-5.2.5-.7.5-1 .3-4a159 159 0 0 1-.3-6c-.4 0-2.1 1.2-2.4 1.6-.2.3-.5.6-.8.6-.3 0-.9.4-1.4 1-.5.5-1.4 1.1-2 1.4-1.4.6-2.5 1.8-5.1 5.7-1.5 2.2-2.5 3.4-2.8 3.5-2 .2-2.2.6-.9 1 .5.1.9.4 1 .5.2.7-2.6 1.2-3.4.6-.4-.2-.4-.3 0-.6.6-.4.6-.7.1-.7-.2 0-.8.4-1.3.8-.5.5-1.4 1-2.2 1-.8.2-1.5.5-1.5.7a16.3 16.3 0 0 1 3-.3c1.8-.1 2.2 0 2.3.3.1.4.6.4 2.8.4 2.5 0 2.7 0 2.8.6.1.3.3.5.6.3l3.2-.6zm-2.1-1.5.6-1.4c.5-1 .4-1-1 0-1.1.8-2 1-2.2.4 0-.2.6-.8 1.4-1.3 1.2-.9 1.6-1 2-.8.5.4.8 0 2-2.6.8-1.7 1.3-2.3 1.6-2a26 26 0 0 1-4.3 8.4c-.3 0-.3-.2-.1-.7zm1.5.4.7-1.7c1.9-4 2.9-6.6 2.9-7.4 0-.1.2-.3.5-.3.5-.1.5 0 .4.8l-1.1 3.3c-.6 1.2-1.1 2.7-1.3 3.2-.4 1.6-1 2.4-1.5 2.4-.3 0-.6-.1-.6-.3zm2-.2c-.2-.3-.3 0 3.3-8.6.5-1.1 1-1.6 1.2-1.2.1.1-.5 2-1.4 4.2l-1.6 4.4c0 1-1 1.8-1.5 1.2zm1.9-.3c-.2-.3 2.4-7.4 3-8 .7-.7.6.6-.3 3.2l-1.2 3.7c-.2.6-.5 1.1-.7 1.2-.6.2-.6.2-.8 0zm-42.7.5c.5-.2.8-2.3.4-2.5-.1-.1-.7 0-1.3.3a3 3 0 0 0-1.7 1.4l-.6 1.2c0 .3 2.6 0 3.2-.4zm-23.9-1c0-.3 0-.3-.4 0-.2.2-.3.4-.2.5.2.4.6 0 .6-.4zm1 0c0-.3-.1-.1-.1.2 0 .4 0 .6.1.4v-.7zm4.3.1c0-.2-.1-.5-.4-.6-.2 0-.4-.3-.4-.5 0-.6.8-.4 1.6.4.4.5.9.8 1 .8.4 0 .4-.1 0-.9-.5-.6-.5-.7 0-.8.4-.2 1.1.3 1.1.8 0 .6.6.8.9.4.1-.3 0-.5-.2-.7-.7-.5-.3-.6 1.3-.5 1.1.2 1.5.3 1.6.7.2.5 1.2.7 1.2.3 0-.2 0-.4.2-.7.3-.9-7.5-1.7-16.4-1.7-3.9 0-4.3 0-5.2.6l-1 .7c0 .3 1.6.5 3.8.6 1.4 0 1.5 0 1.5.6-.1 1 1.2.8 2.7-.4 1.4-1.1 1.3-1.1 3.4-.7.3 0 .6.2.7.4.3.4 2 1.6 2.3 1.6.2 0 .3-.2.3-.4zm5.3-.4c0-.1 0-.3-.2-.3s-.3.2-.3.3c0 .2.1.3.3.3.1 0 .2-.1.2-.3zm10-.2c0-.2-4.4-.1-4.7.1l2.4.1c1.3 0 2.4-.1 2.4-.2zm-1-1.2a19 19 0 0 0 3.8-.6l1.6-.4c.4 0 .7-.2.8-.5.2-.8 1.2-.6 1.7.3.3.5.3.6.5.1 0-.3 0-.7-.4-1-.6-.7-.6-.7-.2-.9.4-.1.7 0 1 .4.4.5.5.5.5.2 0-.2-.3-.6-.6-.8-.5-.4-.5-.5-.2-.7.2-.1.6-.2.8 0 .4 0 .5 0 .5-.5s.5-.8 1.4-.8c.3 0 .5.2.5.6 0 .4 0 .5.2.3.3-.2.2-.5 0-1.1-.3-.5-.5-1-.4-1.1.3-.4 1.5-.3 2.3 0 .5.3 2.3.5 5.7.6 4.2.2 7.4.5 9 1 .2 0 .3 0 .4-.2 0-.1-.5-.4-1.1-.6-.6-.1-1.3-.5-1.6-.7-.7-.6-4-1.2-6.5-1.2a6 6 0 0 1-2.3-.3 4 4 0 0 0-1.4-.4c-1 0-2.5-.6-2.5-.9 0-.4 1.2-.3 1.6 0 .3.4.4.4.5 0 .1-.3.6-.3 1 .1l1.3.5c.6 0 .8 0 .9-.5 0-.9.6-1 3.4-1.2a35.6 35.6 0 0 0 6.2-1c.8-.2 1.6-.5 1.7-.7.1-.2.5-.4.9-.6.6-.2.5-.2-.9-.7-2.3-.6-2.4-1.4 0-.8 1.2.3 1.2.2 1.7-.4.4-.6.8-.8 1.6-.8h1l-.7-1c-.4-.6-.6-1.2-.5-1.7.1-1-.3-1-1.7-.7-1.4.4-2.6 1.5-2.6 2.4 0 .5-.4 1-1.3 1.9-1.4 1.4-2.1 1.8-3 1.8-.5 0-.8.1-.8.4 0 .3-.1.4-.6.3-1.6-.4-2-.7-2-1.3 0-.7 1-1.4 1.4-1 .4.3.7.3.7 0l-1-1c-1-.6-1.2-.6-2.1-.4-1.5.5-1.8 1-1.8 2.8 0 1.4 0 1.6-.7 2-.7.6-1.8.8-2.9.5-.5-.1-.8 0-1.6.6-.8.7-.8.8-.4 1 .6.4.3.9-.4.9-1.1 0-4.2 1-4.6 1.6-.3.5-.3.6 0 1 .3 0 .4.4.4.7-.1.5-2.8 2.5-3.5 2.5-.3 0-.5.1-.6.4-.2.4-1.7.5-2.5 0-.4-.1-.6 0-.7.2-.1.4-.6.4-2.3.4H98c-.6.2-2 0-2-.2s.4-.4 1-.5c.5-.2 1.3-.5 1.6-.8.6-.4.7-.4 1 0 .4.6.6.6.4-.2-.1-.9.4-1 1-.3.5.9.8.9.8 0s.5-1 1-.3c.2.4.6.8.8.9.3 0 .3 0 .2-.7-.1-.6 0-.8.2-.8.3 0 .5.1.6.3.1.2.3.1.5-.2.4-.5.4-.5 1 0 .4.5.5.5 1.7-.5l1.2-1a32.8 32.8 0 0 0-8.6 1c-1.4.2-1.7.3-1.9.8-.1.7-1 1-3.9 1.5-2 .4-2.3.8-.6.8 1 0 1.4.1 2 .7.6.7.8.8 1.9.7l3.9-.2zm26.7-12.2c0-.5.6-.4.8 0 0 .2-.1.4-.3.4a.4.4 0 0 1-.5-.4zm-9.3 11.2c1.4-.2 2.4-.5 2.4-.6 0-.2-.5-.5-1-.8-.7-.4-1-.7-1-1.1 0-.5-.3-.6-1.2-.8-.6 0-1.3-.2-1.6-.3-.7-.1-2.1 1-2.4 2 0 .2-.6.7-1.1 1-.7.5-.9.8-.6.8.5.1 2-.5 2.8-1.2.4-.3.8-.5 1-.4.4.3.1.9-.7 1.4l-.9.6 1-.1 3.3-.5zm7.6-.4c1.3-.2 1-.5-1-.7l-2-.4c-.4-.2-.4.5.2 1 .3.4.6.5 1.1.4l1.7-.3zm-36.3-.5 2.8-.7c1.7-.2 2.1-.4 2.3-.8.2-.3.6-.7 1-.8.5-.1 1-.4 1.3-.6.1-.2.7-.4 1.2-.4.9 0 2.3-.3 3.5-.7.3-.1.3-.2 0-.5-.4-.4-.6-.4-2 0l-2.4.4a2 2 0 0 0-1.2.6c-.3.4-1.4 1-2.4 1.5-1.8 1-2 1-5.6 1l-4 .4c-.7.5-.3.7 1.3.8l2.5.1c.5 0 1.2 0 1.7-.3zm41 0 2.6-.7c.4-.2 1.4-.2 2-.1 1.2.2 1.2.2 2-1.1 1-1.6.9-2-.3-2.1-.8-.1-.9-.1-.4.2.4.4.4.4 0 .9-.6.5-1.3.4-1.3-.3 0-.5 0-.5-1.4-.2-1 .2-2 .7-3 1.5a6 6 0 0 1-2.2 1.2c-.3 0-.8.3-1 .6-.6.5-.6.5.4.5l2.7-.4zm-6.7-1.9h-1c-.4 0-.2.1.4.1.6 0 .8 0 .6-.1zm8-2.6c0-.5-.3-.8-1-1.3-.7-.4-1.1-.8-1-.9h3.4c2.8 0 3.4 0 3.5-.4 0-.2.4-.5.7-.6 1.2-.4-.4-1.1-3-1.4-1.8-.3-2-.3-2.5.4-.5.5-.6.8-.4 1 .4.5 0 .7-.7.5-.5-.1-.6-.3-.5-.7.2-.5.1-.5-1-.4-3.3.4-6.2.8-6.8 1-.6 0-.6.1-.1.3l1.4.3a5 5 0 0 1 1.9.5l1.4.7 2 .9c1.7.9 2.5.9 2.6 0zm-24.8-.7c1-.5.9-1-.3-1-1.1 0-2.2-.6-2.2-1.3 0-.4 0-.4-.2 0-.6.8-.3 1.5.8 2l1.2.6.7-.3zm1.3-2.6c.7-.6 1.5-.7 2.7 0 .9.3 1 .3 1.7 0l.7-.7c0-.1-1.1-.2-2.6-.2-1.7 0-2.7.2-2.8.3-.1.4-1 .4-1 0h-.6c-1 .6-.6 1 1 1 .2.1.6-.1.9-.4zm-10.7-.4c0-.2-.7-.3-.9-.1 0 .1.1.2.4.2h.5zm7.3-1.6c.7-1 1-1.9.4-1.6a54.4 54.4 0 0 1-1.2 2.5l.8-1zm-35.1 0c0-.3 0-.4-.6-.2-1.2.2-1.5.7-.4.6.5 0 1-.3 1-.5zm47.6.1.6-.2c.6 0 .7-.6.2-1.4-.5-1-1.4-1.3-2.7-.7a12 12 0 0 1-5 .8c-1.2-.1-1.2 0-1.2.6 0 .8.9 1.2 1.5.7.3-.3.4-.3.6 0 .2.4 1.6.2 2.8-.5.9-.4 2.2 0 2.2.6 0 .5.7.6 1 .1zm23.6.2h-.5.1c.3.1.5 0 .4 0zm0-1.5c0-.7 1.3-.7 1.4 0 0 .5.2.4 1.7-.3 1-.4 1.7-1 1.7-1.2 0-.4 1.5-1.4 2.2-1.4.6 0 2.6-2 2.6-2.7 0-.5-.7-.5-2.5.2-.5.2-1.5.4-2.2.4-.6 0-1.2.1-1.2.3-.1.3-3.2.6-4.5.3-1.4-.2-.5-.5 1.6-.4 1.3 0 2.2 0 2.3-.2 0-.1 0-.3-.3-.4-.5-.3-.5-.9.1-1.2.3-.1.6-.5.6-.7 0-.3-.3-.3-1.4-.2-1.5.2-1.6-.2-.2-.5.6-.2.8-.4.8-.8s.1-.5.5-.4c.7.2.7.3.5-9.6 0-5.2 0-7.1.3-7.1s.4 3 .4 13.8c0 4.4 0 4.6-.6 5.4-.5.8-.6 1-.2 1 .2.2 1 .1 1.6 0 .9 0 1.2-.3 1.7-1.1a9.6 9.6 0 0 0 1.6-4.4l.5-2.3c.5-.7.6 0 .2 1.9a19 19 0 0 0-.4 2.6c0 1.8 1.4-1.6 2.1-5 .2-.8.4-1.6.6-1.8.2-.3.3-1.3.7-13.5a425.9 425.9 0 0 0 1.2-29.3c.3-12.5.4-40.4.2-42-.4-2.2-1-2.7-3.3-3-3.4-.6-6.2-.6-18.6-.6-17.4 0-20.8.1-21 .6-.2.3-.7.4-1.1.4-.5 0-1 .2-1.2.4-.2.3-.7.4-3 .2l-4.6-.3c-2.2 0-2.4-.5-.3-.5.9 0 1.8-.2 2.1-.3.3-.1-.8-.2-3.1-.2-2.4 0-3.6 0-3.5.2 0 .2.6.3 1.1.3.6 0 1.2 0 1.4.2.5.4 0 .9-.8.7-2.5-.5-2.9-.5-2.8 0 0 .4-.2.5-1.2.5-1.2 0-1.3 0-1.3.8 0 .4-.1.7-.4.7-.4 0-.9.7-.8 1.4 0 .4-.1.6-.5.5-.3 0-.4 0-.2.3.9.8-.2 1-1.2.1-.5-.3-1-.4-1.1-.4-.4.3-.3.7.2.8.3 0 .2.1-.2.2-.5 0-.8-.2-1-.9l-.4-.8-.1.8c-.2 1-.6 1.2-.8.2-.2-.8-.8-.8-1.5 0-.5.6-.6 1-.2 1 .1 0 .3.2.3.4.1.4.2.3.4-.2.2-1 .6-1 .6 0 0 .8.4 1.1.6.5.1-.2.3-.3.4-.1.3.3-.2.6-1.4.8-1 .1-1.1 0-1.2-.4-.1-.9-.6-.5-.6.5 0 2-1 .8-1-1.3 0-.4 0-.8-.2-.8V12c0 1.2 0 1.5-.3 1.3l-.4-1.4c-.2-1-.5-1.3-.5-.4 0 .3-.2.5-.5.4l-.4.2c0 .2-.2.3-.4.3s-.3-.2-.3-.4c0-.6-.5-.6-.6 0-.1.8-.8.8-.8.1 0-.3-.2-.5-.6-.5-.9 0-.5-.5.6-.8l1.4-.6c.4-.3 1.4-.3 1.6 0 0 .2 0 .2 0 0 0-.4-2-.4-3.5 0l-1.1.3.1 1.1v1c-.4 0-.7-.6-.7-1.3 0-.3-.1-.5-.4-.5a.4.4 0 0 1-.4-.4c0-.2-.2-.5-.5-.6-.5-.1-.8 0-1.6 1-1 1-1 1.7-.4 2.2.3.1 1-.4 1-.9 0-.1.1-.3.4-.3.4 0 .5.5 0 .6-.1.1.4.5 1.3.9 1.4.6 1.8.7 3.4.6 1.4-.1 1.8 0 2 .3.1.2.5.5.8.5 1.4 0 4.8.7 6.6 1.1 2.1.5 7.7 1.2 7.9 1 0-.1.6 0 1.2.3l1 .4 1.4-1.5c1-.9 1.8-1.5 2.5-1.7a56 56 0 0 0 6.8-3.4c1.6-1 2.1 0 1.3 2.3-.3.7-.8 1.5-1.2 1.8-.7.6-1 1.3-.6 1.3a8 8 0 0 0 2.4-1.3c.7-.7 1.4-.5 1.4.4 0 .7-.9 2.6-1.3 3-.4.2-.4.6 0 .6.2 0 .7.3 1.1.8.6.6 1 .7 2.5.9a61 61 0 0 1 11.1 2.1 200.9 200.9 0 0 1 20.7 5 12 12 0 0 0 4 1.4c.8.1 1 .3 1 .6 0 .2-.2.4-.4.4-2.3-.4-4.5-1-6-1.7-1.7-.8-2.9-1-3.5-.6-.7.5-1 2-1 6.4 0 5 .3 7.4.7 8 .3.3.5 16.5.2 17-.1.1-.3.2-.5 0-.2 0-.3-1.5-.1-5.3.1-5.5 0-9.8-.5-9l-.4 3.7c-.1 3-.1 3.4.3 3.4s.4.1.3 1c-.4 2.6-1 10.1-1 12.2 0 1.2.2 2.7.3 3.3.3 1.2 0 2.3-.4 2.2-.1 0-.3-.6-.4-1.3l-.1-1.2-.2 1.4V74c.3 2.3.5 2.9.9 3.3.4.4.5.7.5 2.6v2.6c.2.3.2 1 .2 1.7 0 1-.2 1.4-.6 1.4-.3 0-.4 0-.4-.7 0-1-.3-1-.8-.3-.3.6-.6.7-1.1.2a11 11 0 0 0-1.4-1c-.6-.3-1.2-.8-1.4-1l-2.2-.6-2.3-.5c-.1-.2-1.2-.5-2.3-.8-2.3-.6-3-1-3.2-1.7l-1-.8a6 6 0 0 1-1.7-1.2c-.8-.8-.9-.9-1.6-.5-.5.1-.9.4-.9.5 0 .4-.7.3-.8 0-.2-.5-1.8.8-2.7 2-1 1.4-2.7 6-3.7 9.4a5 5 0 0 1-.8 1.8c-.3.2-.4.5-.4.7l-.4.7c-.3.2-.3.4-.2.6.8 1 1.2 4.8.6 5.6-.5.5-1.2.5-1 0 .2-.5.3-2 .2-4.5 0-.5-.1-.7-.3-.5a27 27 0 0 0-2.6 5.5c.7.5 2.7 1.1 3 1 .7-.1 2-1.8 2-2.6l-.1-2.7c-.2-2.1 0-3.8.3-3.8.2 0 .3 1 .3 2.3 0 1.5 0 2.3.3 2.5.1 0 .2.4.1.8-.1.6 0 .6.7.6s.8 0 1.2-1.1l.6-1.8c.2-.4.4-1.6.5-2.7.1-2 .4-3 .7-2.6l-.1 2.9c-.4 3-1.6 6.4-2.2 5.8-.3-.4-1.3.3-1.3 1 0 .1-.1.4-.4.4-.3.2-.2.3.4.9l.7.6.5-.9c2.4-4 2.8-4.5 2.8-3.6 0 .4-2 3.8-2.6 4.5-.3.4-.3.6-.1.8.3.3 1-1 2.3-3.5.3-.7.7-1.3.9-1.3.5 0 .4.6-.3 1.6-.6 1-1.5 3-1.5 3.4 0 .7.6.1 1.2-1.1l1-1.8c.2-.2.8-1.1 1.2-2 .5-1 1-1.7 1.3-1.7.4 0-.3 1.5-2.1 4.3-1 1.6-1.2 2.4-.8 2.7.2.1.3-.1.3-.5s.1-.7.3-.7c.3 0 .3 0 .4 1.4 0 1 0 1-.7 1-.6 0-.7.1-.7.7 0 .5 0 .8-.5.8-.3.1-.9.5-1.4 1l-1.1.7c-.1 0-.3.1-.3.3 0 .1.2.2.5 0 1.3-.5 2.3-.6 2.8-.1.4.3.5.3.7-.3.2-.4.6-.7 1.6-1 1.7-.4 2-.8.4-.8-1.2 0-1.4-.2-1-1 .3-.4.4-.3.8 0 .8.7 1.5.5 1.1-.3-.2-.3-.2-1-.1-1.4 0-.5 0-.7-.3-.7-.5 0-.2-1.6.5-3.2.3-.6.6-2 .7-3.1.2-1.1.4-2.1.6-2.3.4-.5 0 3.8-.6 5.1l-.6 2.1c-.3 1.4.2.8.7-.7.5-1.3.9-1.8 1.2-1.5l-.5 1.9-.5 1.8c.3.3 1.3-.4 1.3-1l.1-1.4.3-3.3c.1-1.5.3-2.6.4-2.6.4 0 .6 2 .3 3.7a23 23 0 0 0-.3 3c0 1.1 0 1.2 1.4 2 1.3.8 1.9 1 1.1.2-.7-.7-.4-2.6.4-2.6.2 0 .7.3 1.1.7 1.3 1.2 1.5.6.3-.7-1.2-1.3-1.3-1.6-.9-1.6.3 0 1.1.8 2 1.8.5.6.9 2.5.5 2.5l-1-.4c-.6-.4-.8-.4-1.1-.1-.4.3-.3.4.2.8l.7.8v.3c.1.5 1.4-.8 1.9-1.8.7-1.4.7-2.1 0-2.6-.5-.4-.6-.5-.2-.6.5-.2.6-1 .2-1.7-.3-.5-.8-3.9-.8-5.4 0-2.2.5-1.3.8 1.6.2 1.6.5 3.2.7 3.7.4.9.6 4.5.3 5.2-.2.4-.1.4.8.4 1.5 0 1.8.6 2.7 3.7.5 1.7 1 1.4 1-.8 0-2.1.2-2.9.6-2.9.2 0 .3.7.2 2-.2 2.2 0 2.1.6 0 .2-.7.4-1.2.7-1.2.4 0 .4 0 0 1.3-.2.5-.5 1.4-.5 2-.2.9-.1 1 .4.7h1.1c.3.2 1.1.3 2 .2.9-.1 1.6 0 1.6 0 0 .3-1.3.6-2.6.6-.9 0-1.4.5-1.4 1.5 0 .4.2.5.7.4.4 0 .6-.3.6-.6zm-.9-3c-.1-.4 4.6-.8 4.8-.6.3.3 0 .4-2.3.6H141zm6.2-.7c0-.2 1.6-1 2.1-1 .6 0 .3.4-.5.8-.9.5-1.6.6-1.6.2zm-10.4-1.6c-.2-1-.2-1.2.3-1.7.3-.4.5-1 .5-2.4v-2c.1-.2.2-.2.4 0s.3 1.1.3 2.2c0 1.5 0 2-.4 2.2-.3.2-.5.7-.5 1.3 0 1-.3 1.3-.6.4zm4-.7c0-.3 2.2-.7 2.4-.4.3.2-.2.4-1.2.5H141zm7-.5c-.2-1.5 0-16 .1-16.3l.4-1.2c0-.5.2-.8.4-.8.2.1.2 3.1-.1 3.5-.3.4-.3.2-.3 8 0 4.1-.1 6.7-.3 6.8h-.3zm-27-1.6c0-1.4.3-2.5.6-2.2.2.3-.2 3.7-.4 3.7-.1 0-.2-.7-.2-1.5zm18.7 0 .1-1.3-.2-2.2c-.2-2.6.3-2.2.7.5.4 2.3.2 4-.4 4-.4 0-.4-.2-.2-1zm-4.8.4c-.4-1-.7-5.2-.8-9 0-6.5.5-5.8.7.7a115.3 115.3 0 0 0 .4 8.6c-.1 0-.3-.1-.3-.3zm1.5-1.3c0-2 .5-2.2.7-.3.2 1.4.1 2-.4 2-.2 0-.3-.5-.3-1.7zm4.7 1c.2-.5.8-.5.8 0 0 .2-.2.3-.4.3-.3 0-.4 0-.4-.3zm1.4-4.3c0-2.4 0-4 .2-4 .1 0 .2.4.2 1 0 .7.1 1.9.3 2.8.2 1.7 0 4.1-.4 4.2-.2 0-.3-1.4-.3-4zm1.7 2.7c-.2-.5 0-10.2.3-10 .2 0 .3 2 .3 4.5 0 4-.3 6-.6 5.5zm-34-.6c0-.2 0-.4.2-.6.2-.4.3-.4.5 0l.3.6c0 .2-.7.2-1 0zm17.4-1c0-.4 0-.6.2-.6.2.1.3.5.3.9 0 .3-.1.6-.3.6l-.2-.8zm8.6-.6-.1-1.7-.2-3.3c-.1-1.2 0-2 .1-2 .3-.2.5 1.5.7 5 0 1.7-.1 2.6-.5 2zm4.7-.1c.1-.5.7-.6.7-.1 0 .2-.2.4-.4.4s-.4-.2-.3-.3zm-12-.8c-.6-.8-.6-1.3-.3-1.3.2 0 1.4 1.7 1.4 2 0 .4-.8 0-1.2-.7zm1.5-1c-.4-3.5-.5-7.2-.3-7.9.2-.5.3.3.6 3.2.4 4.9.4 6.3.1 6.3-.1 0-.3-.7-.4-1.6zm7.4-.8c-.1-2 0-2.5.4-2.3.3.2.3 4.4 0 4.4l-.4-2zm-21.7-.3c.1-1.6 1.6-7.9 1.8-8.1 0-.1.2 0 .4 0 .2.1.2.5 0 1a28 28 0 0 0-1.4 6c-.2 1.6-.4 2.6-.6 2.6-.3.1-.4-.2-.2-1.5zm25.2 1.4c-.3-.5-.5-2.7-.2-2.7.4 0 .8 1 .8 2 0 .8-.4 1.2-.6.7zm-21.5-.5-.2-1.9c0-1 .1-1.4.4-1.3.2 0 .3.3.2.4l.2 1c.3.7.1 2.2-.2 2.2l-.4-.4zm7.4-.3c-.3-.3-.2-8 .1-8 .2 0 .3.5.3 1.1 0 .6 0 2.5.2 4.1.1 2.8 0 3.4-.6 2.8zm1.3-2.6c-.3-1.6-.2-3.2.1-3.4.3-.2.6 4.4.3 4.7 0 0-.3-.5-.4-1.3zm-6.6 1c-.2-.2-.2-3.2.1-3.4.2 0 .3.2.3.8 0 .4 0 1.3.2 1.8.1 1-.1 1.3-.6.8zm29.8-2.1c0-2.6.3-7 .5-6.8.4.3.2 7.8-.2 7.8-.2 0-.3-.4-.3-1zm-26.3.3v-.5l.1-2c0-1.2 0-1.6.4-1.6.3 0 .4.4.4 1.7l-.2 2.1c-.2.5-.6.6-.7.3zm14.8 0c-.3-.3-.2-1 .2-1.6.4-.5.4-.4.4.6s-.2 1.4-.6 1zm-20.4-3.2c0-1.6.2-2.9.2-3l.4.1c.2.1.3.7.2 1.5l-.3 2.7c0 .8-.3 1.5-.4 1.5-.2 0-.3-.9-.1-2.8zm4 2.3.3-.3c.2 0 .3.2.3.3 0 .1-.1.3-.3.3a.3.3 0 0 1-.2-.3zm18.6-1.2.3-.8c.1-.5.2-.8 0-1-.3-.3.1-2 .8-3.6.3-.6.3-.6.4-.1 0 .2.2.6.4.7.4.5.2 1.5-.4 2.9-.4.7-.7 1.5-.7 1.7 0 .2-.2.3-.4.3h-.4zm1.6-4-.3.2-.2.6c0 .2 0 .1.2-.1s.3-.5.3-.7zm6.2 3.5c-.2-.5 0-1.2.3-1.3.1 0 .3.3.3.8.1.9-.3 1.2-.6.5zm-23.5-3-.2-1.3c0-.8.1-1.1.4-1.1.3 0 .4.3.4 1.1 0 1.2-.2 1.7-.6 1.3zm23.6 0c-.3-.2 0-7.6.3-7.9.2-.1.3 1.4.3 4 0 3.7-.1 4.4-.6 4zm-1.3-2.9-.1-2.8-.1-6.4c-.1-3.5 0-5.7.4-5.7.3 0 .4 14.8 0 15h-.2zM146.7 70c0-.1-.2-1.8-.2-3.7 0-3 .1-3.5.4-3.5.6 0 .5-.7-.3-4.6-.6-3-.7-4-.2-3.6l.4 1.4c.4 2.3.7 1.8.6-1.1-.1-2.4 0-3 .3-3.2.4-.4.4-.2.4 1.7l.1 3.6c.2 1.4.2 1.5-.2 1.5-.3 0-.5 0-.5.2.8 3.8.8 5.2 0 4.5-.5-.3-.5 0-.4 3.3.2 3.3.1 4-.4 3.5zm2.6-14.1c-.2-.3 0-7.6.3-8l.6-.2c.3 0 .3.1.2.7-.1.4-.3 2.2-.3 4.1-.2 3.1-.4 4-.8 3.4zm2.4-7.4c-.1-.2.5-3.9.8-4.3.3-.5.6.3.4 1l-.4 1.9c-.2 1.3-.5 1.9-.8 1.4zm-1.4-3.6c0-.2.2-1.2.7-2.2l1-2.2c0-.3.2-.5.3-.5.5 0 .3.9-.5 2.6a9 9 0 0 0-.8 2.2c0 .6-.4.7-.7 0zm-1.3-1.5c0-.3.2-1.3.7-2.3l1-2.6c0-.5.2-.9.3-.9.6 0 .5.6 0 2l-1 2.6c-.6 1.5-.8 1.7-1 1.2zm-1.1-1 .7-2 1.4-4.1c.4-1.4.9-2.3 1.1-2.3.5-.1.4.3-1.2 4.6l-1.2 3.6c0 .3-.2.4-.4.4-.3 0-.4 0-.4-.2zm-.2-4c-.2-.3.7-3.4 1-3.6.3-.2.3 1 0 2.4-.4 1.3-.7 1.7-1 1.2zm4.4-15.2c-.3-.3-.3-.4 0-.6.7-.2 1.3.1 1.3.6s-.9.5-1.3 0zm-5.7-.2c-.3-.2-1.4-.5-2.4-.7-3.4-.6-3.7-.7-3.7-1 0-.3.4-.5.8-.6.4-.1-.8-.3-2.9-.4-3.7-.2-5.4-.5-5.6-1.1-.1-.3.2-.4.7-.4.5 0 1 0 1.3-.2.2-.1-1-.3-2.8-.5l-3.7-.5c-1-.2-.8-.9.2-1a5 5 0 0 0 1.4-.1c.4-.2-.3-.3-2-.6-4.8-.5-6.1-.9-5.3-1.4a74.5 74.5 0 0 0 11.4 2c0 .1-2 .4-3.7.5-1.5 0 3.6.7 8.2 1 4.9.4 6.3.6 6.2 1 0 .1-1.8.2-4.5.2-5.3 0-5 .4.4.6 5.3.2 6.7.3 6.7.7 0 .3-.7.4-2.4.6l-2.3.2 1.6.3 2.6.4c1 0 1.6.7 1 1-.5.4-.6.4-1.2 0zm6.1-.9c0-.1-.6-.3-1.1-.3-1.2-.2-1.3-.6-.3-.9 1-.2 2.3.4 2.3 1 0 .4-.5.5-.9.2zm-3.3-2.2c-.5-.3.2-.7 1.9-1 1.5-.4 2.3-.3 2.3.2 0 .1-.3.3-.7.3l-2 .3c-.7.2-1.3.3-1.5.2zm-2-1.3c-.2-.4.6-.7 2-1 .6 0 1.7-.3 2.3-.5.8-.4 1.2-.4 1.4-.2.4.4-1.7 1.4-3.7 1.7-1.8.3-1.8.3-2 0zm-9-1.3c-1.1-.2-.8-.6.6-.6.8 0 1.1.1 1 .3 0 .4-.5.5-1.5.3zm1.5-1.3a64 64 0 0 1-12.3-2.7c-1.3-.6-.4-.8 1.3-.3l3.5.9A2143.6 2143.6 0 0 1 142 16c0 .3-1.2.3-2.3-.2zm5.5 0c0-.2.1-.3.3-.3.1 0 .2 0 .2.2s0 .3-.2.3a.3.3 0 0 1-.3-.3zm6.9-1c-.3-.3-.3-.4 0-.6.7-.2 1.3.1 1.3.6s-.9.5-1.3 0zm-3.2-1 .9-.7c1-.7 1.7-.3.7.5-.6.5-1.6.7-1.6.3zm-4-.4c-1.4-.1-2.7-.3-3-.5a9 9 0 0 0-2-.6c-2.6-.5-6.1-1.3-6.3-1.5 0 0 0-.3.2-.5.5-.6-.5-.7-4.7-.4-2 .1-3.9.2-4 .1l-4.8-.6c-4.7-.6-6-1-6-1.5 0-.6-2.6-1-7.8-1.1-3.7-.1-4.9-.2-4.4-.4.8-.3 9.7 0 11.6.3.8.2 2 .6 2.8 1 1 .4 2.8.8 5.4 1.1 3.4.5 4.5.6 7.6.4 3.2-.2 3.9-.2 5.2.2.9.3 2 .5 2.4.5.6 0 .7 0 .6.4-.3.7.1 1 1 .5.8-.4 1.3-.3 1.1.3 0 .3.1.4.6.5l1.9.6c1.5.4 2.1.4 2.1 0 0-.2.4-.6.9-1l1.3-.8c1-.7.8.1-.1 1l-1 1c0 .3 1.1-.4 1.9-1.1.7-.7 1.3-.6 1 0 0 .4 0 .4.6.3.5-.1.7 0 .7.1 0 .3-2 2-2.3 1.9l-2.6-.2zm-54-.9.6-.2c.3 0 .5.1.4.2 0 .2-.3.3-.5.3-.3 0-.4-.1-.4-.3zm-14.3-.1c-.3-.4-.2-1 .2-1 .2 0 .4.3.4.6 0 .5-.3.7-.6.4zm16.2-.4c-.3-.2-.3-.2.1-.4.6-.2 1.3 0 1.1.4-.2.3-.7.3-1.2 0zm-3.4-.2c-.4-.3-.3-.3 0-.3s.5.1.5.3c0 .3 0 .3-.5 0zm2 0h.6c0 .1-.1.2-.4.2-.3 0-.4 0-.1-.2zm2.3-.6c-.4-.3.1-.5 1.4-.5.8 0 1.4.2 1.4.4-.1.2-2.5.4-2.8.1zm50.3 0c-.2-.3 2-2.2 2.3-2 .1.2 0 .7-.7 1.3-.9 1-1.3 1.2-1.6.8zm-43.5-1c-1.3-.2-1.3-.6 0-.5.7 0 1.2.2 1.1.3 0 .3-.3.4-1.1.2zm-3.2-.8c0-.2 2.8-1.6 3.2-1.6.6 0 .2.4-1.1 1.1-1.4.7-2 .9-2 .5zm7.7 0c-.5-.1-.8-.6-.4-.6h1c.5 0 .7.2.7.4-.2.4-.5.4-1.3.2zm29.8-.5c-.3-.4.1-.5 2.2-.6 1.3 0 2 0 2 .2.2.5-3.9.9-4.2.4zm-33-.2h1-1zm-8-.3c0-.1 4.5-2.2 4.9-2.2.1 0 .2.2.1.4 0 .2 0 .5.2.6.4.2-.5.8-1.3.8-.5 0-.5 0 .2-.5.9-.7.5-.6-1.4.3-1.6.7-2.6 1-2.6.6zm12.7-.4L104 8c-1 0-1.7-.1-1.7-.3 0-.2 5.8 0 6.6.2.2 0 .3.2.2.3-.2.3-1.5.3-2.6 0zm39.9-1-4.6-.4-3.8-.3c-.6-.4.7-.5 3.5-.4 1.7.2 4 .3 5.3.3 1.9 0 2.1 0 2 .5 0 .5-.8.6-2.4.3zM84.6 108.3l-.8-.1c-.4 0-.8 0-.8.2 0 .1.4.1.8 0l.8-.1zm-7-.3c.2-.3-.1-.4-.8-.4-.5 0-1 .1-1 .3 0 .6 1.7.6 1.9 0zm70.4-.2c.3-.4.7-.7 1-.7.6 0 1.2-.4 1.2-.8 0-.2-.2-.3-.4-.3-.6 0-3 1.8-3 2.2 0 .5.8.2 1.2-.4zm-74.5.2c0-.2-.5-.4-.6-.1-.1.1 0 .3.2.3s.4 0 .4-.2zm79.5-2c-.1-.2-.3-.4-.4-.3-.4.2-.3.9.1.9.3 0 .4-.2.3-.6zm-25.3 0c0-.1 0-.2-.2-.2s-.3.1-.3.2c0 .2.1.3.3.3.1 0 .2-.1.2-.3zm-.9-.5c.4-.2.7-.5.7-.7 0-.5-.5-.4-.7 0-.1.3-.3.4-.5.4s-.4.2-.4.3c0 .3 0 .3 1 0zm-31.6-.3c.4-.2.4-.2 0-.2l-1 .2-.4.3h.5a2 2 0 0 0 1-.3zm-50-1c0-.2-2.6-.6-3-.3l.1.3c.5.3 2.9.3 2.9 0zm80.2-.3c.3-.2.2-.2-.5-.2-.5 0-.9 0-.9.2 0 .4.8.4 1.4 0zm4 .1c.7-.2.5-.5-.6-1l-1-.6.3.6.5.9c.3.3.3.3.8.1zm-18.5-.5c.9-.2 1.9-.6 2.2-1l.8-.4c.2 0 .5-.3.6-.6.3-.4.2-.6-.2-.9l-.7-.4c-1.6 0-8.8 3-7.6 3.1.9.2 4.7-1 5.8-1.7 1-.7 1.1-.7 1.1-.2 0 .5-1 1.4-1.6 1.5-.4 0-2.6 1-2.2 1l1.8-.4zm-7.7-.6 1.7-1.1c1.2-.8 2.5-2.3 2.5-2.9l-1.6 1.4c-1 1-2.1 2-2.7 2.2l-1 .7c0 .3.3.2 1-.3zm-70.6-.3c-.4-.4 0-1 .7-1l1.5-.4.9-.4-.2.7c-.1.6-.1.6.3.5l2.5-.7c3-.9 3.6-1.4 2.3-2.3-.7-.4-.6-.4-4.9.6-.3 0-.6 0-.6-.2s2.8-1.1 4.5-1.4c.7-.1 1 0 1.7.6.5.4 1.4 1 2.1 1.3a6 6 0 0 1 1.4.9l1.1.3c.8.2 1.6 0 3.4-.6 2.3-.8 2.5-.8 5.7-.7 2.2 0 3.6 0 4.3-.2l1-.3-.6-.4c-.9-.6-2.6-1-3.4-.8-1.2.4-3 .3-4-.1-.7-.3-2-.4-3.6-.4-2.6 0-2.6 0-3.5-1l-.8-.8-1.7.5c-.9.3-2.3.5-3.2.5-1 0-2 .2-2.4.4-.4.2-1.3.4-2 .4-1 0-1.2 0-1.7.9-.5.7-.8 1-1.5 1-.5 0-1 .2-1.6.6-1 1-1 1.4.2 1.4 1.3 0 1.1.8-.2 1.2l1 .1c1.2 0 1.5 0 1.3-.2zm-1-1.6c-1.3-.2-1-.6.6-.7.7 0 1.4-.2 1.4-.4 0-.1.1-.2.4-.2.6 0 .4.7-.3 1.2-.7.4-.9.4-2.1.1zm13.7-1.6c.1-.5.7-.6.7-.1 0 .2-.2.4-.4.4-.3 0-.4-.1-.3-.3zm79 3.3a1 1 0 0 0-.6 0l.3.1c.4 0 .6 0 .4-.1zm-21.7-.6c1.3-.7 2.3-1.5 2-1.8-.2-.2-3 .4-4 1-.5.3-1 .4-1.6.3-1.2-.2-.6.2.9.6l1.5.4 1.2-.5zm-77-1.5c0-.4-.2-.3-.5.2-.8 1-.7 1.5.1.8.4-.4.6-.8.5-1zm71.7 1c0-.2-1.4-.6-1.8-.5-.6.3 0 .7 1 .7l.8-.1zm54-.1c.5-.5.3-1-.4-1-.6 0-1.2.6-1.2 1.2 0 .2 1.2.1 1.5-.2zm1.7-1.8c.5-1 .9-3.2.5-3.2S152 99 152 100c0 .8.4.7 1-.2zm-23.7.3c0-.2 0-.4-.2-.4-.2-.1-.3 0-.3.2s.1.4.3.4c.1 0 .2 0 .2-.2zM27.7 98.9c0-.2 0-.3-.2-.3s-.3.2-.3.4c0 .3.1.4.3.3l.2-.4zm73.7.3c.1-.2 0-.3-.2-.3s-.5.1-.6.3c0 .1 0 .2.3.2.2 0 .4 0 .5-.2zm-3.5-.4c.1-.3 0-.4-.2-.3-.4.2-.5.7-.1.7 0 0 .3-.2.3-.4zm2.5-.3c.7-.3 1-.5.7-.7-.4-.4-1.6 0-1.7.6-.2.6-.2.6 1 .1zm2.1.2h-.5c-.2.1-.1.2.2.2.3 0 .4 0 .3-.2zM27 97.1c0-.4 0-.3-.4 0-.2.3-.3.8-.3 1 0 .3 0 .3.4-.1.2-.3.3-.7.3-1zm3.7 0c0-.2 0-.3-.2-.2-.2.1-.3.3-.3.4 0 .2.1.3.3.3l.2-.4zm43.6-.2h-.5c-.2 0-.1.1.2.1.3 0 .4 0 .3-.1zm2.7-.4c0-.7-.9-1.1-1.5-.7-1 .6-.6 1.1 1 1.2.4 0 .5-.1.5-.5zm26.1.3c.1-.2 0-.3-.2-.3s-.5.1-.6.3c0 .1 0 .2.3.2.2 0 .4 0 .5-.2zm4.8-.9c-.5-.3-.6-3.7-.1-4.9.2-.4.3-2.3.4-4.8 0-4.8 0-4.5.4-3.9l.4 3c.1 2.2 0 3-.5 5a9.6 9.6 0 0 0-.4 3.7c.2 1.6.6 1.9.8.7.4-1.7 1-3.4 1.5-3.9.8-1 1.6-2.7 1.7-4.3a22.8 22.8 0 0 1 6.2-11.7c0-.2-1.5-.9-4.2-1.8-1-.4-2.1-1-2.6-1.4-.5-.4-1-.7-1.3-.7a7 7 0 0 1-2-.8 12 12 0 0 0-2.9-1.1c-.8-.2-1.6-.5-2-1-1-.9-3.8-2-4.2-1.7-.4.2-2 3.8-2.9 6.1-.2.7-.3 1.6-.2 2 .1.6-.5 1.5-.9 1.1-.3-.3.8-4 1.8-6.3.6-1.3 1-2.5 1-2.7 0-.4-.5-.7-1.4-.7-.5 0-.7.3-1.1 2a342 342 0 0 1-1 3.6c-.2.8-.4 2-.4 2.7 0 .7-.1 1.3-.3 1.3 0 0-.3.6-.3 1.5l-.4 2.7a27.2 27.2 0 0 0 1 8c0 .6.9 1.6 1.3 1.4.1-.1.4.1.6.6.3.8.2 1-.3.9l-.3.1c0 .4.6.9 1 .9.3 0 .8.3 1.2.7.6.6.8.6 1 .4.2-.2.6-.3 1-.3h.6l-.2-2.5c0-1.3-.3-3.2-.5-4-.5-2.1-.5-2 0-2 .4 0 1.2 4.4 1.2 7.3.1 3.6.9 4.6 2.5 3.1.7-.7.7-.7.6-2.5v-2c.3-.1.6 1 .7 3 0 1.1.1 1.4.9 1.8.4.3 1.1 1 1.5 1.6.7.9.8 1 1.1.5.3-.4.3-.5 0-.7zm-6.1-2.1.3-3c.2-2 .4-2.7.8-1.8 0 .2 0 1.5-.2 2.9-.2 1.9-.4 2.5-.7 2.5-.3 0-.4-.2-.2-.6zm3.7 0c-.3-.9-.3-2.3-.1-2.5.3-.1.8 1 .8 2 0 .6-.5 1-.7.5zM98 91.6c-.5-.1-.6-.5-.9-1.7-.4-1.7-.4-2.8 0-3 0 0 .3.7.5 1.8.1 1.1.4 2 .6 2 .2 0 .2-.3-.2-3.2l.2-.5c.3-.2.7 1.4.7 3.2 0 1.4 0 1.5-1 1.4zm8-.8c-.1-.1-.2-1.6-.2-3.3 0-1.7-.1-3.5-.3-4-.3-1.4-.3-3.1 0-3.1.6 0 1.5 10 .9 10.4h-.4zm-10.3-2.1c-.7-1.3-.8-2-.4-2s1.3 2.2 1 2.5c-.2.1-.4 0-.6-.5zm8.5-2.3c0-2.3-.5-6.4-.8-7.2-.4-1-.4-3.4 0-3.5.2 0 .3.2.3 1 0 .6.1 1.3.4 1.5.5.6.9 10.4.4 10.4-.2 0-.3-.7-.3-2.2zM102 86l-.6-3c-.3-1.6 0-2.4.4-1.2.3.8.8 3.8.8 4.9 0 1-.5.6-.6-.7zm-7.4-1.2c-.4-.8-.4-1.4-.3-2.4l.2-3.5a7 7 0 0 1 .1-2.3c.4-.2.6 2.5.4 5 0 1.5 0 2.3.3 3 .4 1 .3 1.3-.1 1.3l-.6-1zm2.5-1c0-.4 0-.8.2-1 .2 0 .3.3.3.9 0 .5-.1 1-.3 1-.1 0-.2-.4-.2-.9zm-.2-2.6.1-.4c.2-.1.4 0 .4 0v.5l-.5-.1zm2-.7c-.3-.2 0-.7.3-.7l.2.4c0 .5-.3.6-.6.3zm-2.1-1.2c-.4-.6-.3-1.6.2-1.8.3 0 .6 1.8.3 2.2-.1.1-.3 0-.5-.4zm3.8-3c.5-2 .7-2.9 1-2.6.3.3-.3 3.5-.8 3.5-.3 0-.3-.2-.2-.9zm-1.8-1.1c-.3-.3-.2-1.6.2-2.5l.5-1.4c.1-.3.3-.4.4-.3.2 0 0 .7-.2 1.6-.4 1-.4 1.6-.3 1.8.2.1.3.3.3.4 0 .3-.7.5-.9.4zm-1.7-1c0-1 2-6 2.4-6 .3 0 .2.4-.4 1.8l-1 2.8c-.4 1.5-1 2.3-1 1.4zm-5.4 22c.2-.2.7-.3 1-.3.5.1.7 0 .7-.3 0-.2 0-.4.3-.4.1 0 .4-.2.6-.5.3-.3.4-.4.7-.1.5.5.7.4.5-.2 0-.4-.2-.5-.6-.4-.3.1-.9 0-1.3-.1-.7-.3-1.1-.3-1.9 0-.9.4-1 .6-.8 1.1 0 .5 0 .8-.4 1-.8.4-.7.9.1.7l1.1-.5zm-3.4-.6c.8-.3 1.3-.6 1.3-.8 0-.3-.1-.4-.6-.3-.4.1-.7 0-1-.2-.1-.3-.7-.4-1.5-.4h-1.2l.6.5c.7.5.6 1.3 0 1.3-.3 0-.5.2-.6.3-.2.3.6.2 3-.4zm-24.8-.1c0-.2-.3-.3-.6-.4-.8-.3-.6-.7.4-.7.8 0 1 .1 1 .5 0 .5.4.8 1.3.8 1 0 .7-.5-.8-1.6l-1.5-1.2h-2.5c-1.4 0-2.7 0-2.8-.2-.3-.1-.6-.1-1.2.1-.9.4-1.6.2-1.4-.4.1-.3 0-.4-.8-.4-.6 0-1.3.2-1.7.4l-.6.3.9.4c.5.3 1.2.5 1.7.6.5.1.9.4 1 .6.2.4 1.9.5 3 0H60l1.8.9c1.3.6 1.6.6 1.6.3zm-20.2-.6c1.4-.2 1.3-.3-.3-.4l-3.5-.3c-1.8-.2-2.5-.2-3.1 0-.8.4-.7.4 1.6.6l2.6.4c0 .2.5.2.9.1a21 21 0 0 1 1.8-.4zm28.2.1c.2-.2-1.2-.8-1.5-.7v.5c.4.4 1.2.5 1.5.2zm-2.2-.5a1 1 0 0 0-.6 0l.3.1c.4 0 .5 0 .3-.1zm-55-.5c.3-.1.5-.3.5-.5h-.5c-1 .4-3.1.4-4.1 0-.9-.4-1.2-.4-2-.1-.7.3-.9.2-1.8-.4-1.2-.9-2-.9-2.6-.2-.6.7-.5.8 1.4 1.2 1.6.4 8.2.4 9.1 0zm83 0c0-.2 0-.4-.2-.6-.2-.3-.4-.3-.8 0l-.7.3.7.3c.6.3 1 .3 1 0zm-64.8-1.4c.3-.6.5-1.4.5-1.7 0-.3 0-.5-.1-.3s-.4.4-.7.4c-.6 0-.9.4-.5.9.2.2.2.6.1 1-.2 1 0 .9.7-.3zm49.2.3c.4-.4.3-.4-.5-.2l-2 .2c-1.2 0-1.3.4 0 .5 1.1.2 2 0 2.5-.5zm-41.8.2c.2-.2.7-.3 1.1-.4.4 0 .8-.3.8-.4 0-.4-.9-.4-1.8 0l-1.8.3c-.7 0-1.3.2-1.5.4-.2.2.1.3 1.3.3a6 6 0 0 0 1.9-.2zm28.2-.2-1.8-1.3c-1-.7-1.4-.9-1.6-.7-.2.2 0 .4.4.6.4.1.7.4.7.6 0 .3.3.4.6.4s.6.2.7.4c0 .3.4.4.8.4.7 0 .7 0 .2-.4zm-54.6-.2v-.8c-.1-.8-1.4-1.3-3.7-1.4-1.5 0-1.6 0-1.4.4L9.6 92c.8.6 1.4.8 2.4.8l1.5-.1zm81-.2c-.6-.4-1.7-.6-1.7-.2a46.1 46.1 0 0 1 2 .5l-.3-.3zm-42.1-.8c1-.4 1.4-.5 3.1-.4 1.8.1 2.2.1 2.7-.3l1.4-.7c.4-.1.7-.3.7-.4 0-.4-1-.8-1.7-.6l-2.8.2c-1.2 0-2.8.2-3.5.4-1 .3-1.4.3-1.8 0l-.8-.4a9 9 0 0 1-.8-.4c-.7-.3-7 0-8.5.4-.6.2-.6 1-.2 1.4l1.9.6c1.6.4 5 .1 4.8-.3-.2-.3-2.5-.2-3.4.2-.3 0-.4 0-.4-.2 0-.3.5-.5 1.7-.7 1.8-.4 2.7-.2 3.3.6.2.2.5.4.8.4l1 .4c1 .5 1.3.5 2.5-.2zm37.6-.1c.2-.8-.1-1.3-.7-1-.4 0-.6 1.2-.3 1.5.4.4.9.2 1-.5zm2 .4c0-.2 0-.4-.3-.5-.5-.4-.7-.3-.7.3 0 .5.6.7 1 .2zm-16.8-.4c.1-.3.4-.4 1-.2 1.6.2 4.6.3 5.2 0 .7-.2 1-1 .5-1.3-.5-.3-.6-.3-.8.3 0 .4-.5.5-1.8.6h-1.8c-.2-.6-3.5 0-3.5.7 0 .5 1 .4 1.2 0zM88.3 90c0-.6 0-.9-.4-.9-.2 0-.4.3-.4.9l.2 1c.3.4.6 0 .6-1zm-17.6.7c.1-.2-.2-.3-.8-.3-.8 0-1 .1-.6.3.5.3 1.2.3 1.4 0zm22.9 0c.3-.2.3-.3 0-.7l-.7-.7c-.2-.1-.3-.5-.3-.8 0-.3-.2-.5-.5-.3l-.6.1c-.4 0-.3 1.3 0 1.5.2 0 .4 0 .5-.2.1-.2.4-.2.7-.1.4.1.5.6.1.8-.3.2-.3.7 0 .7s.6-.2.8-.3zM76.2 90c.3-.2 1-.3 1.4-.2.6.1.7 0 .4-.1-.5-.3-3.5-.3-3.8 0-.3.3.1.7.7.7l1.3-.4zm-59.3-.8c0-.2-.4-.6-.8-.9-.7-.5-2-.6-3.1-.3-.6.2-.6.2-.3.5.2.2 1 .5 2 .7l1.6.6c.2.2.6-.2.6-.6zm47.3.5-.5-.8c-.4-.5-.7-.6-1.4-.5h-.8l.9.3c.6.2.9.5.8.8 0 .3.1.4.5.4.3 0 .5 0 .5-.2zm-52.4-.4c-.2-.6-1.5-1.4-1.8-1-.4.3 0 1 .5 1.2.9.2 1.4.1 1.3-.2zm55 0V89c-.2-.3-1.2.1-1.2.4 0 .2 1 0 1.3-.2zm17.8 0v-.2c-.2 0-.3.1-.4.3l.1.2c.2 0 .3 0 .3-.2zm2.4 0c0-.3-.2-.5-.5-.5-.6 0-1 .5-.5.7.6.2 1 .1 1-.3zm3.4-.3c0-.8-.5-.9-1.1-.3-.7.7-.5 1 .3 1 .7 0 .8-.2.8-.7zm-86 .1c0-.2-.6-1-1-1-.3 0-.4.8 0 1.1.2.3.7.2 1 0zm4.6-.8c0-.7-.2-1-.4-1-.6 0-1.7.5-1.9 1-.1.4.9 1 1.6 1 .6 0 .7 0 .7-1zm45 .3 2.8-.3c1.4 0 1.2-.4-.3-.6-.7 0-1.7-.4-2.2-.8-1.5-.9-2.4-1.2-2.8-1l-1.8-.5c-.7-.3-1.9-.6-2.6-.6-.8-.1-1.7-.4-2.1-.6-1.1-.5-1.3-.5-1.9.6-1 1.6-.9 1.8 2.2 2 1 .2 1.9.4 2 .6.2.2 1 .6 1.9.8l1.7.7c.1.1.5.2.9.1l2.3-.4zm21.1 0c1 0 2.1-.7 2.1-1.2l-1-.1c-.5 0-.8 0-.8.3s-.4.4-1.8.4c-1.1 0-1.7 0-1.7.2 0 .5.9 1 1.5.7l1.7-.2zm-7.8-.4c-.5-.4-1-.5-2-.2-1 .2-.5.6 1 .6 1.4 0 1.5 0 1-.4zm17.9.1c.3-.2.3-.3 0-.5-.4-.2-.4-.3 0-.7.3-.4.3-.5-.1-.3a3 3 0 0 1-.9.2c-.4 0-1.2.7-1.2 1.2 0 .4 1.5.5 2.2.1zM43.5 88c0-.2-.3-.4-.7-.7-.6-.3-.8-.3-1-.1-.6.5-.1 1.2.8 1 .5 0 .9-.1.9-.2zm38.7 0c0-.2-.6-.5-1-.5-.2 0-.3.2-.3.4 0 .3.3.4.7.4.3 0 .6 0 .6-.2zm-64.5-.2c-.3-.2-.3-.3 0-.7.3-.4.3-.5-.3-1-.7-.5-1.3-.6-1.3-.1 0 .6 1 2 1.5 2 .4 0 .4 0 .1-.2zm53-.1c.8-.7.5-1-.7-.8-1 .1-1.3 0-2.1-.5-1-.8-1.8-1-1.8-.4 0 .3.6.7 1.4 1 2.4 1.2 2.7 1.2 3.3.7zm-64.5 0c1-.5 0-1.2-2-1.6-.8-.2-1.3.2-.9.7.2.2 1.7.8 2.4 1l.5-.2zm56.2-.6c0-.3-.3-.4-1.2-.4-1.3 0-1.5.2-.6.5 1 .4 1.8.4 1.8 0zm-5.6-.1-.6-1.4c-.5-.7-.7-1.3-.6-1.8 0-.7 0-.8-.5-.7-.5.2-.9-.1-2-1.5-.9-1-1.6-2-1.6-2.3 0-.6-1-2.9-1.2-2.9a3 3 0 0 0-1 .7c-.7.8-.7 2 0 1.8.3-.1.4 0 .4.3 0 .6 3 4.5 5 6.7 1.2 1.3 2.1 1.7 2.1 1zm16.4 0c0-.2 0-.3-.2-.3s-.2.1-.2.3l.3.3.1-.3zm-58-1.1c-.5-.7-2.3-2.3-2.6-2.3-.1 0-.2.3-.2.8 0 1-.4.8-.7-.3-.2-1-1-1.6-2.2-1.5-.8 0-1 0-.9-.5 0-.4-.3-.8-1-1.3-3-2.2-3.3-2.4-3.5-3.3-.2-1-.7-.9-.7.2 0 .5.3 1 .7 1.4.8.7 2.6 3 2.8 3.7.1.3.6.7 1.2 1 2.3.8 3.2 1.4 3.4 2 .3.4.5.6.9.5.3-.1.5 0 .5.1 0 .3 2 .6 2.5.4 0 0 0-.5-.3-1zm49.8.8c0-.1 0-.2-.2-.2s-.3 0-.3.2.1.3.3.3c.1 0 .2-.1.2-.3zm13.4-.4c.3-.7.1-1.7-.2-1.7-.4 0-.8 1.7-.5 2 .2.2.5.1.7-.3zm1.7-1c0-1-.4-1.5-.8-1-.3.5-.3 2 0 2.2.3.4.8-.2.8-1.1zm33 .4c0-.6 0-.6-.2-.2-.3.8-.3 1.3 0 1 .2 0 .3-.4.3-.8zm-28.3.2c.6-.5.4-.8-.6-.8-.8 0-.9.1-.9.7s0 .7.6.5c.3 0 .7-.3 1-.4zm2.2-.1c0-.8-.4-.7-.6.1 0 .4 0 .6.2.6.3 0 .4-.3.4-.7zm5.7-.3a22.7 22.7 0 0 1 0-8.4v-1.3c.2-.3.5-1.6.7-2.8.1-1.3.4-2.7.6-3.2.5-1.2.5-1.3-.1-1.1-.6.1-.7-.4-.3-3.2v-1.7c-.5-.3-.9.9-.9 2.9a33 33 0 0 1-.5 4.6c-.5 2.3-.4 3.3.1 2.5.4-.7.7 0 .2.7-1.3 2.3-1.6-1-.6-5.4.2-.8-1-.8-1.3 0-.4 1.3-.5 4.4-.2 4.4.2 0 .3.2.3.5 0 .7-.4 1.6-.8 1.6s-.5-1-.3-3.8c.2-1.6.2-3.3 0-3.9l-.1-.9-.3 1.3c-.2.8-.4 3-.5 4.9-.2 3.2-.1 3.5.3 3.3.4-.1.4 0 .3.6l-.2 3.3c0 2.1 0 2.7.6 4l.6 1.4.3-2.4.3-3.2c-.1-.7 0-.9.2-.9.5 0 .5.8.1 3.2-.1 1-.2 2.2-.1 2.8.2 1 .2 1.2 1 1.2s.8 0 .6-1zM91 76.9c0-.7 0-1.3.2-1.3s.3.6.3 1.3c0 .8-.1 1.4-.3 1.4-.1 0-.2-.6-.2-1.4zM20 85.4c.7-.6 1-1 .8-1.3 0-.3-.2-.5-.3-.5-.1 0-.5-.6-.8-1.4-.5-.9-.9-1.4-1.4-1.5-1-.4-1-.4-.8 0 .2.5-.4.6-1 .2-.3-.2-.3-.3 0-.8.2-.4.2-.6-.5-1.2l-1.2-.6c-.4 0-.8-1-.6-1.3.2-.2 1.3.4 2 1.1.7.5.7.5.5 0a13 13 0 0 1-.4-2l-.5-2-.3-.7v.7c0 .4-.2.8-.3.9-.1 0-.3.3-.3.6s-.2.6-.5.9c-.5.3-.6.7-.7 2 0 1.4 0 2 .6 3.3.6 1.1.6 1.6.4 1.7-.2.2-.1.4.4.7l.7.4-.2-.9c-.3-1.3.2-1.2.8.1.5 1 2 2.4 2.5 2.4l1.1-.8zM18 82.1c-.1-.2-.2-.5-.1-.6.2-.2 1 .2 1 .6 0 .4-.5.4-.9 0zm41.3 4c-.1-.1-.4-.2-.6 0H59.2zm23-.4c0-.4-.1-.6-.6-.6s-.7.2-.7.6c0 .4.2.5.7.5.5 0 .6-.1.6-.5zm-19.9-.1c0-.2-.7-.4-1.4-.6-1-.1-1.4-.3-1.4-.6 0-.2.1-.3.4-.2l1.5.3 1.1.1-1-.5-1.5-.5c-.5 0-1-.5-.7-.7l1.7.4c1.9.6 2.5.6 2.5.3 0-.2-1-.5-2-.7-1.1-.2-2-.6-2.2-.7-.2-.4.7-.6 1-.3.5.4 3 .9 4.5.9s2.8-.8 4.7-2.5c1.3-1.2 2-2.4 2.3-3.4.2-1-.1-1-1.1 0-1.2 1.1-1.6 1.4-2 1.2-.3 0-.4-.3-.3-.5.2-.5 0-.5-1.2 0-.8.3-1.4.4-3.6.1-1.5-.1-3.1-.4-3.7-.5-1.6-.4-1.7 0-.2.7 2.5 1.1 6.3 1.5 7.3.8l.9-.3c1.1.4 1.2.4 1 .7-.2.1-1.7.3-3.5.3-3.2 0-4.2-.3-7-1.5-1.1-.5-1.1-.5-.8 0 .9 1 1.6 1.4 4 2 1.8.4 2.8.5 4.2.4 1.4-.2 1.9-.1 2.3.2.5.4.3.4-2.7.3a96.5 96.5 0 0 1-5-.1c.2.1 1.6.4 3 .5l2.8.5c.4.4-2.4.3-4.8-.1a10 10 0 0 0-2.5-.3l-.2.7c0 .3-.3 1-.6 1.5s-.5 1-.4 1.2c.3.8 4.9 1.6 4.6.9zm8.3-7.8c0-.3.1-.3.2-.1v.5c-.1 0-.2 0-.2-.4zm17.7 7.4c0-.5 0-.6-.3-.5-.2 0-.4.4-.4.7 0 .4 0 .6.2.5.2 0 .4-.4.5-.7zm-79.9 0c.3-.3.2-.4-.4-.6-1.8-.7-2.2-.9-2.4-1.3-.1-.5-2-2.7-2.3-2.7-.3 0-.2 1.6.1 2.2.2.3.8.8 1.5 1.1l2 1.2c.7.7 1 .7 1.5.2zm68.5-.1c-.1-.2-.2-.2-.2.2 0 .2 0 .4.1.3v-.5zm-24 0L51.3 83a28 28 0 0 1-1.8-2.6c-.2-.3-.5-.6-.7-.6-.2 0-.5-.1-.6-.4-.2-.2-.4-.3-.6-.2-.4.2-2.7 3.7-2.7 4 0 .4 1.3.8 3 1 1.2.1 1.5 0 1.5-.2s-.4-.6-1-.7c-1.6-.6-2.5-1-2.2-1.4.1-.1.5 0 1 .2l2 .9 2.3 1.5c1.4 1 1.4 1 1.4.7zm23 0 .1-1.3c-.3 0-2 1.2-2 1.4 0 .2 1.6 0 1.8-.2zm5.5-2.4c0-.9 0-1.5-.1-1.4-.3.2-.6 2.8-.5 3.1.4.6.6-.3.6-1.7zm4.2.4c0-.6.3-1.2.4-1.5l.5-6.3a259.4 259.4 0 0 1 .3-8.7c-.2 0-.3 1-.4 2 0 1.2-.3 3-.4 4-.2 1.1-.4 3.5-.4 5.3l-.3 3.6c-.5.7-.6-.5-.4-3.9a44.3 44.3 0 0 0-.2-8c-.3-2.8-.5-1-.4 2.7.1 3.4 0 3.8-.3 3.8-.5 0-.6.5-.1.6.2.1.2.5-.2 1.4-.3.8-.5 2-.6 2.7-.1 1.3 0 1.4.4 1.4.3 0 .6.2.6.4 0 .4.7 1.5 1 1.5.2 0 .4-.5.5-1zm1.7-.3.2-2c0-.8.2-1.2.3-1.2.2 0 .3.5.2 1.7V83c.5 0 .8-3.9.3-4.4l-.3-3.2c0-1.6-.1-3-.2-3-.6 0-.8 1-.8 4.8 0 2.7-.2 4.3-.4 4.8-.5 1-.5 1.8 0 1.8.2 0 .5-.4.7-1zm27 0c0-.5-.1-.6-.3-.3-.3.5-.3 1.4 0 1.2.1-.1.3-.5.3-.9zm25.5.2c.2-.4.4-1.6.5-2.8 0-1.7 0-2.1-.3-2.6-.4-.4-.5-1.1-.4-5.4 0-4.7 0-5-.6-5.3-.3-.2-1-.4-1.5-.4-.9 0-1 0-.6.4.6.7 0 .8-1 .2-.8-.5-3.7-1.5-4.3-1.5-1 0-.2.7 1.9 1.7 1.2.6 2.5 1.3 2.8 1.6.3.4.8.6 1.2.6.5 0 1 .7.8 1l-1.5-.5a13.7 13.7 0 0 0-4.1-1.8c-.3 0-1-.3-1.6-.7l-1.5-.6c-.2 0-1 .8-1.6 1.9-.6 1-2.1 2.9-3.3 4.1a20.6 20.6 0 0 0-2.2 2.5l1.1.7c.7.3 1.3.8 1.5 1 .2.4.4.6.6.6.7 0 2 .9 2.3 1.5.2.4.6.7 2 1l2.2.4c.2 0 .8.2 1.2.5.5.2 1.4.5 2.2.6.7.2 1.4.4 1.5.6.3.4 1.7 1.2 2 1.2.2 0 .4-.2.7-.5zm-4.2-6c-.2-.4 1.6-1.2 2.1-1 .7.2.4.6-.6 1-1.2.3-1.3.3-1.5 0zm-.7-1.1c.2-.4 2-1 2.3-.7.3.3-.3.7-1.4.9-.8 0-1 0-.9-.2zm-4.2-2.7c.1-.4 2.6-.8 2.8-.4.3.4-.3.7-1.6.7-.9 0-1.3-.1-1.2-.3zm4.3-.3c0-.2.3-.4.7-.4.4 0 .5 0 .5.2-.1.2-.4.4-.8.5-.4 0-.5 0-.4-.3zM21.9 82.5c0-.3-.1-.6-.4-.7-.5-.2-.6-.1-.5.8.2.8.7.8.9 0zm-8.3-.7c-.4-.8-.5-2-.6-6.3 0-6.5 0-6.5-.4-6.5-.2 0-.2 1.5-.2 4l-.1 5.8c-.3 2 .2 3.4 1 4 .7.3.8.1.3-1zm29-.5c0-.2.2-.5.5-.8.2-.2.4-.6.3-.9 0-.3.2-1 .5-1.6.3-.6.4-1 .3-1-.5 0-2.7 4.8-2.7 5.8 0 .2 1-1.2 1-1.5zm-31.9.2c-.5-.6-1.8-3.5-1.9-4 0-.2-.2-.5-.4-.5-.6-.1-.6 0 .2 2.1.5 1.3 1 2 1.6 2.3 1 .7 1 .7.5.1zm46.6-.2c-.2-.3-.8.1-.6.4.1.2.3.2.5 0 .1-.1.2-.3.1-.4zm22-6c0-4.7 0-5.6-.3-5.3-.2.2-.3 1.3-.3 4 0 2.2 0 3.7-.2 4-.2.1-.2.9-.1 2 .2 1.5.2 1.7.5 1.3.2-.3.3-2.7.4-6zm-58.5 5.5-.2-.7c0-.1-.3-.3-.6-.3-.4 0-.8-.2-1.1-.6-.5-.7-.5-.8 0-1.8.2-.6.5-1.7.5-2.3.1-1.1 0-1-.6.9-.4 1.1-1 2.2-1.3 2.4-.5.4-.5.4 0 .8.3.3 1 .7 1.7 1 .6.2 1.1.5 1.1.7l.3.3c.2 0 .2-.2.2-.4zm35.5-.4c0-.2-.3-.3-.6-.3-.5 0-.5 0-.2.3.5.3.8.3.8 0zm24.3-2.9-.1-1.9c-.5 0-.6.7-.6 2.9 0 1.6 0 2 .3 1.5l.4-2.5zm1.8 2-.1.3c0 .4 0 .6.1.4v-.7zm-7.6.3c0-.1 0-.2-.2-.2s-.3.1-.3.2c0 .2.1.3.3.3.1 0 .2-.1.2-.3zm3-.3c0-.5-.1-.5-.3-.2-.4.5-.4.8 0 .8l.2-.6zm-70 0c0-.1 0-.6-.3-1.1-.2-.6-.4-1.7-.4-2.6 0-1.6-.5-2.6-1.2-2.6-.3 0-1.7-1.3-1.4-1.3l1-.1c.6 0 .8 0 1 .4.1.6 1.7 2 1.9 1.6 0-.3-1-2-2-3.1-.8-1-1.4-1-1.4-.2 0 .2-.2.5-.5.8-1.2 1.1-.8 2.7.6 2.4.8-.2.8-.2.4.8-.2.6-.2 1 .4 2l1 2.2c.1.5.4.9.6.9.2 0 .4 0 .4-.2zm74.5-1c.5 0 .7-.4.9-2.2.2-1.8-.3-2-.6-.3 0 .7-.3 1.2-.4 1.1-.3 0-.3-3 0-5.4.1-1.5-.2-4.8-.4-4.8-.1 0-.2 1.3-.1 2.9 0 2.5 0 3-.4 3.3-.3.4-.4.7-.3 1.4l.2 2.8c0 1.5 0 1.8.3 1.5.2-.1.5-.3.8-.3zm-57.6-1.4-1-1.8c0-.3-.1-.5-.3-.5-.4 0-.4.2 0 1.1.5 1.4 1.6 3 2 2.7.1 0-.2-.7-.7-1.5zm-13.2.5c.2-1 0-1.5-.8-1.8h-1c-.1.2 1 2.5 1.4 2.5.1 0 .3-.3.4-.7zm43.2.4c0-.2-2.1-1.3-2.5-1.3l-.1.4c0 .2.4.5.8.7 1 .5 1.8.6 1.8.2zm-28-.4c-.2-.7.5-1.4 2.3-2.4l1.9-1-.5-.7c-.4-.3-.5-.9-.5-1.5 0-.7-.2-1.3-.6-1.6-.3-.3-.5-1-.5-1.3 0-1-.7-2-1.5-2-.6 0-.7 0-.5-.6 0-.4 0-1-.4-1.8a6 6 0 0 1-.5-1.6c0-.3-.4-1-.8-1.7-.5-.7-1.1-2-1.5-2.9l-1.5-3.4c-1-2-1.9-5.3-2.2-8-.1-1.5-.1-1.6.5-1.7.5 0 .6-.2.7-2 0-1 0-2-.3-2.4-.2-.4-.2-.7 0-1 .4-.7.7-3.6.4-4-.2-.2-.3-.3-.4-.2-.2.3-.7 5.7-.8 8 0 1.4-.1 1.5-.9 1.9l-1.7 1.1a4 4 0 0 1-1.3.8c-.5 0-.8 1.3-.7 3.4.1 2.2-.1 3-1 3-.5 0-.6.5-.8 3.9-.1 3.2.2 2.5.5-1.1.2-2 .7-2.3.6-.5 0 .8.1 1.2.5 1.7.3.3.9 1 1.3 1.7L17 61l-.6.9c-1 1.2-.5 2.2 1 2.2.5 0 1 .1 1.2.3 1.2 1.2.4-2.6-1.2-5.8a9.8 9.8 0 0 0-1.8-2.9l-.7-.4.6-.6c1.6-1.8 4.5-2 5-.3.3.5-.4.9-.9.4l-.5-.3c-.2 0 .2.5.8 1a8.3 8.3 0 0 1 2.8 4.8c.2.8.1 1.4 0 1.5-.2.1-.4.5-.4.8 0 .5-.2.8-.7 1-1 .4-1.3.1-1.4-1.6-.2-2.3-2.9-7.9-2.9-6l.4.7c.2.1.4.6.4 1 0 .5.3 1.4.7 2.1.8 1.7 1.4 4.4 1 5-.4.6-1 .7-2 .2l-1.4-.4c-1.1 0-1.5-.5-1.5-2.1 0-.9.2-1.6.3-1.7.2-.1.1-.5-.2-1-.6-1.2-.8-.6-1 2.4 0 2 0 2.5.3 2.6.5.2.5.7 0 1.1-.6.5-.5 1.5.1 2l.5.8.5 1 .5.6 2.4-2.1a49 49 0 0 0 4.6-4.2c.9-.5 1.2-1.1.8-1.7-.3-.6-.2-.9.4-.9.2 0 .4.2.4.4s.1.4.4.4c.4 0 .5 1 0 1.2-.1.2-.1.3.1.4.3.2.1.4-.4 1l-1.1.9c-.2 0-.4.3-.4.7 0 .4-.2 1.2-.6 1.7-.5.8-.6 1-.2 1.4l.3.9c0 .8 1.1 4 1.5 4 .1 0 .4.4.5.8 0 .5.5 1.3 1 1.9.8 1 1.4 1.3 1 .6zm-.6-2.9c0-.2.2-.4.5-.4.2 0 .3.1.3.3-.2.5-.8.6-.8.1zm1.9-.6c-.2 0-.5-.2-.5-.3l-1-.7c-1.3-.6-2.7-2-2.7-2.4 0-.6.6-.4 1.5.5a9 9 0 0 0 2 1.5l1.4.8c.2.4-.2.8-.7.6zm-4.2-5.4c0-.1 0-.2.2-.2s.3 0 .3.2-.1.3-.3.3a.3.3 0 0 1-.2-.3zm-7.7-.9c-.4-.4-.2-1 .4-1 .2 0 .6-.2.9-.6.6-1 1.3-.6.7.3-.6 1-1.3 1.7-1.5 1.7l-.5-.4zm.3-16.9c-.4-.4 0-.8.5-.5l1.1.1c1.1 0 .8.6-.4.7-.5 0-1 0-1.2-.3zm102.3 25.5 1-.6a10 10 0 0 0 2.1-1.7c1.4-1.3 1.5-1.4.7-1a23 23 0 0 0-4.8 3.6c0 .4.4.3 1-.3zm-114-.3-.2-.8c0-.2-.2-.5-.4-.6-.3 0-.4 0-.4.2 0 .4 1 1.8 1.2 1.7.1-.1 0-.3-.1-.5zM53 76c-1.6-.8-1.7-.9-1.5-.4 0 .3.4.4.7.4l1 .3c.2.1.5.3.7.2.2 0-.2-.3-.9-.6zm12.9.3c1.9-.4 3.3-1 4.3-1.7l1.3-.8a16.3 16.3 0 0 0 4.4-4.4c.3 0 .3-.7 0-1.3-.3-.6-.3-.6-1 .2-.5.6-.6.7-1 .4l-.4-.7c0-.5-1.8-3-2.9-4l-2.3-2a6 6 0 0 0-1.7-1.3 320.5 320.5 0 0 0-3-1.8c-.5-.3-.5-.3 0-.7.4-.4.5-.4 1 0 .3.4.9.7 1.2 1 .7.2 2.4 1.3 4.7 2.8a34 34 0 0 1 6.3 6.6c.3.3.5.1 1.2-.7l.8-1.3c0-.2-.4-.7-.8-1.1-.4-.5-1-1.2-1.1-1.6-1-1.8-1.4-2.6-1.8-2.9-.6-.5-2.9-1.6-3.3-1.6-.7 0-.5.4.5.9 1.3.6 4.6 4.1 4.8 5 0 .4.3.8.5 1 .6.4.5 1 0 1.3-.5.2-.8 0-1.7-1-.6-.7-1.7-2-2.3-3a9 9 0 0 0-2.3-2.3l-4.9-2.7c-1.7-.9-1.9-1-1.2-1.6.4-.4 3.5-.8 3.5-.5l.4.2c.4 0 .4 0 0-.7-.5-1-.5-1.3 0-1.6.8-.4.2-.9-.9-.8-.5 0-1.2 0-1.4-.2-.1-.2-.8-.4-1.4-.4-.8 0-1.1 0-1.6.5-.3.3-.8.6-1.1.6-.9 0-.7.4.4.7.8.3 1.1.2 1.7 0 .5-.3.5-.4.2-.4s-.5-.3-.5-.6c0-.7.7-.7 1.7 0 .5.3 1 .5 1.3.5.9 0 .4.5-1.6 1.7a57.3 57.3 0 0 0-6.6 4.4c-1.2.5-1 .7.3.7s2.4.6 2.6 1.7c.1.5.4.9 1 1.2 1.7.8 6.2 6.3 7.4 9 .5 1.1 0 1.4-1 .4l-.9-.8-.2 1c0 1-.1 1.1-.6 1.1-.3 0-.5-.1-.6-.3a1959.3 1959.3 0 0 1-2.2-6.5l.5 3.3c.3 1.7.5 3.2.4 3.4-.2.6-1.1.4-1.5-.3l-.4-.8v.9c-.1.6-.3.9-.7.9-.6 0-1-1-1.4-2.8a9.3 9.3 0 0 0-2.1-4.2c-.7-.7-.7-1.3 0-1.3.2 0 0-.6-.7-1.9a90 90 0 0 1-1.7-3.3c-.1-.1-1.7.9-1.7 1 0 .2.2.3.5.3.7 0 2.2 1.8 1.9 2.2-.2.2 0 .8.5 1.7 2 3.8 2.8 5.9 2.2 5.9-.2 0-.6-.5-.9-1-.8-1.4-.9-.9 0 .8.5 1.2.6 1.6.3 1.8-.3.3-.4.3-.5 0-.1-.3-.8-.4-.8 0a22 22 0 0 0 5 2c.3 0 1.1 0 1.9-.2zm5.2-4c-.3-.1-.8-.8-1.1-1.5a32.5 32.5 0 0 0-2.8-4.8c-1.3-1.9-2-2.5-6-5.2-.5-.3-.5-.3 0-.9.8-.9 1.8-1 2.9-.1l1.2.6c.2 0 2.2 1.7 4.2 3.7 2.3 2.3 5.4 6.7 4.7 6.7-1 0-2.7-1.8-4.7-4.8-1.4-2.2-2.4-3.2-3-3.2a62 62 0 0 1 4.9 6.7c.7 1 1 1.8 1 2.3 0 .7-.6 1-1.3.5zM8.3 75.6s0-.3-.3-.5c-.3-.3-.4-.2-.4.2 0 .6.4.8.7.3zm49-.1c-.6-.4-.9-.4-.6.1 0 .2.4.3.6.3.4 0 .4 0 0-.4zm20.1-.6c0-.3-.1-.1-.1.3v.5c.2-.2.2-.6.1-.8zm-23.5.5c0-.4-.5-.6-.8-.4-.2.1-.2.2 0 .4.5.3.8.3.8 0zm22-2h-.4c-.3.1-.4.5-.4 1.1v1l.4-1 .4-1zm-64 .8c0-.3-.3-.6-.6-.7-.4-.1-1-.6-1.5-1-.8-.6-.9-.6-1-.2-.3.7.2 1.2 1.5 1.7 1.5.6 1.6.6 1.6.2zm44-.5c-.5-.4-.7-.1-.5.4.1.4.3.4.5.2s.2-.4 0-.6zm-40-1.4 1-1.1c.5-.3.7-1.7.4-1.7-.3 0-3.3 4-3.3 4.4 0 .5 0 .4.5-.1.3-.4 1-1 1.3-1.5zm42 1.1a15 15 0 0 0-1.9-2.8l-.4.2c-.6.3.2 1.6 1.4 2.7 1.3 1 1.6 1 1 0zm62.2 0 1.7-1c1.9-1 2.3-1.5 3-3.4.4-.8 1-1.9 1.6-2.4l.9-1-.8-.4c-1.2-.6-8.1-3.3-8.5-3.3-.3 0 1.6 1.6 2.3 1.8l.6.5c0 .4-1 .3-2.3-.1-1.4-.5-2.7-.5-2.9 0 0 .3-.5.4-1.6.4l-2.6.2c-1.3.3-2.8-.1-4.2-1-.9-.6-1.1-.7-2.1-.4l-2.8.3c-.9 0-1.6 0-1.6.2 0 0 1 .2 2.2.2 1.2 0 2.3 0 2.4.2.2.3-.1.4-1.3.3-.4 0-.7 0-.7.2s.5.3 1.1.3c.6 0 1.5.1 2 .3l1.5.4c.4 0 .7.3.7.4 0 .4-2.9 0-3.4-.3-.1-.2-.5-.2-.8-.1-.7.2-1.9-.3-1.9-.8 0-.3-.3-.4-.8-.4-1 0-1.7-.3-1.5-.7.1-.2-.2-.3-1-.3-1.3 0-1.4.2-.1.7.4.2.8.5.8.7 0 .2.2.4.6.5 1.3.4 3.2 1.5 3.7 2l.8.5c.2 0 .7.3 1 .6l1 .5a104.9 104.9 0 0 1 12.3 5l.7-.5zM18.7 73l1-3.8c-.2-.3-1.5 1.2-1.5 1.7 0 .6-.3 1-1.1 1.3-1.1.5-1 1.1.3 1.1.6 0 1.1-.1 1.3-.3zm3.9-.5c-.2-1-.7-1.6-.7-1 0 .6.5 1.8.7 1.8v-.8zm8.7-.8c0-.6-.2-1.2-.4-1.4a9 9 0 0 1-.6-1.6l-1.1-2.3c-.4-.4-.7-1-.7-1.2 0-.4.5-.5.7-.1 0 .1.4.2.8.1.7-.1.9.4.4 1-.2.1-.2.4 0 1 .3.5.5 1 .5 1.4 0 .3.2 1 .5 1.6.3.6.6 1.3.6 1.6 0 .8.4.8 2.7-.1 1.7-.7 2-.9 1.5-1l-.6-.1.6-.6a5 5 0 0 1 2-.8c1-.2 1.3-.3 1.4-.8.1-.8 1-1.2 3-1.7 1.2-.3 1.5-.4 1.4-.8 0-.3.2-.5 1-.7 1-.3 1.2-.5 1-.7l-.3-.7c0-.2-.3-.6-.7-.8l-1.5-1.1c-.6-.6-1-.7-1.4-.6-.5.1-.9 0-1.5-.5l-1.5-.8-1-.6c0-.2-.5-.4-.9-.5-.7-.2-.7-.1-.7 1 0 .5 0 1 .2 1s.3.1.3.3c0 .1-.1.2-.2.1-.2 0-.4 0-.6.3-.3.3-.2.4.4.4.5 0 1 .2 1.1.5.2.3.9.6 1.7.8.7.1 1.7.4 2.1.7.7.3 1 .3 1.2 0 .3-.2.4-.2.4.3 0 .3-.2.6-.3.6-.4 0-2.8-.7-4.5-1.2-1.7-.6-2.5-.7-2.9-.3-.3.4-.5 1.7-.6 5 0 1.4-.1 2.7-.2 2.7-.4.2-.8-1.3-.7-2l-.1-1c-.3-.1-.3.5-.2 2.3 0 .8-.1 1-.4 1-.5 0-.8-1.9-.6-3.2.2-.8.1-1-.2-1a.4.4 0 0 1-.4-.3c0-.3 0-.4.2-.4.6 0 1.1-1.7 1.2-3.7 0-1.9 0-2-.8-2.6a224 224 0 0 1-2.2-1.7c-.1 0-.9.9-1.6 1.9-.8 1-1.6 1.8-1.7 1.8-.2 0-.5-.4-.8-1-.4-1-.4-1 .1-1.4.5-.3.6-.6.5-1.4-.1-1.3-.7-1.5-.9-.3 0 .5-.3 1-.4 1-.3 0-2.6-4.4-2.6-5a5 5 0 0 0-.6-1.7l-.8-1.7c-.1-.4-.2-.3-.2.4 0 1.1.7 3.2 1.6 4.7.4.6 1 1.7 1.2 2.5l1.5 3a19 19 0 0 1 1.6 3c.3.8 1 2 1.3 2.5l1 2 .7 1.5c.2.3.3.8.3 1.2 0 1 .3 1.6.6 1.4.2 0 .2-.6.1-1.2zM37 67l.4-.2.4.2c0 .2-.2.3-.4.3s-.4-.1-.4-.3zm1-.7c-.5-.1-.9-.4-.9-.6 0-.2.2-.3.4-.3l1.6.3c1.4.2 1.8.8.5.8l-1.7-.2zm3-3.4c-.9-.1-1-.2-1-.6 0-.7.2-.7 1.8-.1 1.3.4 1.7 1 .8.8L41 63zM53 69.4c0-.2-.8.4-1.7 1.3-1 .9-1.8 1.8-1.8 2 0 .2.8-.4 1.8-1.3l1.7-2zm-32.6 2.4c0-.4.1-.7.3-.8.1-.1.3-.5.3-.9 0-.5-.1-.6-.3-.4-.4.3-.8 3-.5 2.8l.2-.7zM12 68.2c0-.3-.4-.6-.9-.8-.4-.1-.7-.4-.7-.6 0-.6-1.6-2.8-2-2.8-.6 0-.5.6.3 1.3.5.5.6.9.5 1.4 0 .7 0 .8 1 1.2 1.1.4 1.3 1.1.5 2.4-.4.8-.4.8.4 1.4l.7.7.2-1.9v-2.3zm56.7 3.6-.4-.4c-.2 0-.1.2 0 .5.4.7.6.6.4 0zm-5.4-3.4c-1-2-1.2-2.3-2.4-3.9-.5-.7-1.2-1.5-1.4-2-.3-.4-.6-.6-.6-.5l1 2c1.2 1.7 1.6 2.7 1 3-.2.1.2.7.8 1.4.5.7 1.3 1.8 1.6 2.5L64 72v-1c0-.7-.1-1.5-.7-2.6zm20 .4v2-2zm42 2.3c.4-.4.7-1 .8-1.2l1.2-1.9c1.3-1.6 1.4-2.2.2-1.2-.5.4-1.2 1.3-1.5 2l-1.1 2.1c-.6.9-.3 1 .5.2zm-36.9-1.4c0-.2 0-.5-.2-.6-.2 0-.3.3-.3.9 0 .7 0 .9.3.6l.2-.9zm-84.6.5c0-.2.2-.7.6-1.1l1.5-3c.4-1.1 1-2.3 1.4-2.5.4-.3.5-.6.3-1.6-.1-1 0-1.2.4-1.3.3-.1.6-.7 1-2 .2-1 .3-2 .2-2.1-.2-.4 1.2-3 2.2-3.9.7-.6 1-.7 1.7-.6 1 .2 1 .2 1-1v-1.3c-.2-.1-.3.2-.3.8 0 .6-.1 1-.4 1-.2 0-.4-.2-.4-.3-.1-.3-1.8.2-2.5.7l-.4.8c0 .2-.4.7-.8 1.2-.6.6-.8 1-.7 1.4.1.3 0 1-.4 1.6-.4.8-.4 1.1-.2 1.6.3.5.2.7-.6 1.7-.5.6-1.6 2.3-2.3 3.8A34 34 0 0 1 3.4 67c-.4.3-.3 3.6 0 3.6.1 0 .3-.2.3-.4zm77.2-1.1-.2-.8c-.2 0-.3.4-.3 1.1 0 1 0 1.2.3.8l.2-1.1zm-25.4.5c0-.5-1.9-3-2.2-3-.2 0 .9 2.4 1.2 2.9.3.3 1 .4 1 0zm-48.1-1c0-.3-.2-.7-.4-1-.4-.5-.4-.5-.7 0-.2.5-.2.8.1 1.3.5.7 1 .6 1-.2zm50-.8-.6-.8c0-.1-.2-.6-.6-1-.7-1-1.5-2.6-1.5-3.2 0-.3-.1-.3-.6.2-1 1-1 1.7-.1 2.4l2.3 2c.8 1 1.5 1.5 1.6 1.3l-.5-.9zm-14.7 0H42c-1.4.3-2 .7-.6.5.5 0 1.1-.3 1.3-.4zm-20.5-.7c0-.4-.5-.2-.8.3-.3.6 0 1 .4.4l.4-.7zM91 66c-.4-.4-.6 0-.4.8l.2.7.2-.6c.2-.4.2-.7 0-.9zm-77.5-2.2v-2c-.1-.4-.8 3.9-.8 4.8 0 .7 0 .7.4-.1.4-.6.5-1.3.4-2.7zm50.6 2.6c-.2-.4-.5-.9-.8-1-.6-.6-.5.2.2 1 .7 1 1.1 1 .6 0zm-16.3-.2c.2 0 .3-.2.2-.3-.1-.1-2 .6-2 .8l.7-.1 1.1-.4zm38.1 0c0-.4 0-.4-.2-.1-.4.5-.4.8 0 .8l.2-.6zm6-1.4v1.5-1.5zm2.5 1.3c0-.3.2-.6.4-.7.6-.2.5-1.2-.1-1.2-.4 0-.6.2-.6 1l-.1 1.3c-.2.3-.1.4.1.3.2-.1.3-.4.3-.7zm-81.8-3.4c.5-5.6.7-9.8.4-9.8-1 0-2.7 2.5-3 4.7-.7 3.3-.8 5.2-.4 5.8l.6.6c.2 0 .4-1.1.6-2.5.4-3.9.8-6 1-6.6.4-.6 1-.3.7.3l-.4 2.2-.5 3.4c-.4 2.4-.3 5.1 0 5.5.5.5.7 0 1-3.6zm21.6 3c.1-.5 0-.9-.2-.6-.3.3-.4 1.3-.2 1.3l.4-.6zm105.7-1c0-.5-.2-1-.4-1.2a13 13 0 0 0-2.9-.9l-5-1.3c-2-.6-2.5-.7-3-.5-.8.5-.8.3-.6-1l.2-6 .2-5.3c.2-.5.1-.7-.2-.7-.5 0-.5.2-.5 4 .1 3-.4 8.2-.8 8.6-.1.1-.2-.1-.2-.8 0-.8 0-1-.4-.7-.4.4-1.5.3-3.2-.2l-1.8-.5c-6.2-1.7-8.6-2.7-8.6-3.4 0-.2-.2-.3-.5-.3-.4 0-.5-.2-.6-1.8-.1-1.5-.2-1.8-.6-2-.4 0-.4.2-.4 1.6 0 1.2-.1 1.6-.4 1.6-.2-.1-.4-1-.4-2.3-.2-1.9-.3-2.2-1-2.9l-.8-.8.1 3.2c0 2 .2 3.3.4 3.6.3.3.2.3-.6.2-.5 0-1.2-.2-1.4-.3-.5-.2-.5-.2-.2.2.1.2.9.5 1.5.6.7 0 2.1.5 3.1 1l5.7 2A459 459 0 0 1 133 64c.8.4 6.6 2 6.8 1.9l.2-1.1zm-59.2.5c.6-.6.3-.9-.6-.4-.5.3-.7 1-.3 1 .2 0 .6-.2.9-.6zm47.8-.5c0-.2-.3-.5-1-.7l-1.5-.5c-.8-.3-.3.7.6 1.2 1.1.7 1.8.7 1.9 0zm-78 0H50l-.6.2.6.1c.3 0 .5 0 .5-.2zm29-1.4c0-.2-.3-.4-.4-.4-.3 0-.4.9-.1 1.2.3.3.7-.3.5-.8zM5 60.5 6.9 57c.8-1.2.4-1.1-.8.1l-2 2c-1 1-1 1-1 2.9 0 1.1.1 1.7.3 1.6l1.6-3zm44 2.8c.2-.1.4-.4.4-.7 0-.2.4-.7.8-1 .4-.3.6-.6.4-.7-.2-.1-.4-1-.5-2-.1-1.8-1.3-5-1.9-5-.5 0-1.2 2.7-1.3 5.5-.2 3.4 0 4 1 4l1.1-.1zm.3-1.9-.1-.6c0-.3-.3-.7-.7-.9-.7-.5-.8-.7-.3-1.9l.4-.8.5 1.1c1 1.8 1 4 .2 3.1zm78.2 1.8c-.2-.2-.6-.3-.8-.3-.3 0-.2.1.1.3.8.3 1.2.3.7 0zM97 62.9l-.3-.2c-.2 0-.2 0-.1.2 0 .2.2.3.2.3.1 0 .2-.1.2-.3zm7-.1 1.2-.1c.3 0 .3-.1-.1-.4-.5-.4-2.8-.3-3.2.1-.2.1-1.2.3-2.3.3h-2l2.1.2a15.6 15.6 0 0 0 4.3-.1zm5.7-.8c0-.7-.2-1.2-.3-1.2-.2 0-.3.5-.3 1.2 0 .6.1 1.2.3 1.2.1 0 .3-.6.3-1.2zm-88.3-.5c-.1-1.1-.9-2.8-.9-2 0 .5.8 3.4 1 3.3v-1.3zm60.8.1c-.1-.2-1.1.8-1.1 1.2 0 .1.3 0 .6-.4.4-.4.6-.7.5-.8zm28.8.3c0-.7-.2-1.1-.4-1.2-.7-.2-.7.3-.3 1.9.3.7.7.3.7-.7zm13.9.5c-2.5-1-9-3.1-10-3.3-1-.1-1 0 .7.8 3 1.5 6.8 2.8 7.1 2.5.3-.2.7-.2 1.5.1 1.8.5 2.2.5.7-.1zm15.3-1.1a137.5 137.5 0 0 0 0-13.1c-.3-.1-.4.5-.4 2.4 0 3.3-.5 3.3-.6 0 0-1.8-.1-2.6-.4-2.7-.2 0-.3.6-.3 2.7 0 1.7-.1 2.8-.3 2.8-.1 0-.2-1.2-.2-3 0-2.6 0-2.9-.5-2.8-.4.1-.5.5-.5 3.5-.1 4.6-.6 4.4-.6-.2 0-2.2-.1-3.6-.3-3.6-.1 0-.2 1-.2 2.5 0 3-.3 5.7-.6 5.7-.1 0-.2-2-.2-4.4 0-4.3 0-4.5-.5-4.5-.5-.1-.5 0-.7 4.2-.2 4.4-.3 5.4-.6 5.7-.3.3-.3-.2 0-3.1l.2-5.2c0-2.2 0-2.2-.7-2.2h-.7v4.5c0 2.7 0 4.5-.2 4.6-.2.1-.3-1.5-.3-4.6 0-2.7 0-4.8-.2-4.8s-.5 2.1-.6 5.6c0 .7-.2 1.3-.4 1.2l-.2-.2.2-3.3c.2-2.9.2-3.3-.2-3.4h-.6l-.1 6.8V59l.6.6c.4.3 2 1 3.8 1.4 1.7.5 3.7 1 4.3 1.3 1.8.5 1.8.5 2-1zm-62 .6c-1.2-1.4-1.9-2-1.9-1.4 0 .5 1.4 1.9 1.8 1.9.3 0 .3 0 0-.5zm21.3 0c0-.2 1-.3 2.2-.3 2.1 0 2.5-.2 1.7-.8-.3-.3-.6-.3-1.4 0l-3.3.4c-1.6.2-2.3.3-2.3.6 0 .4 2.8.5 3 0zm-63.7-2.3c0-1-.8-4.4-1.4-5.8A6 6 0 0 1 34 52c0-.4-.3-.9-.5-1-.3-.2-.5-.5-.5-.7 0-.3-.1-.7-.3-.9-.5-.6-4.1-3.4-4.4-3.4-.3 0-.7 1.2-1 3.1-.1.9 0 1.1.2 1 .4-.3 2.7 1 2.4 1.2-.2.2-.6.2-1.2 0-1-.3-1-.2-.6.2a9 9 0 0 1 1 2.3c.4 1 .7 1.8.9 1.9.4 0 1.7-1.6 1.9-2.5 0-.7 0-1-1.1-2-1.3-1.4-1.5-1.8-.7-1.8.5 0 1.8 1.4 2.5 2.9.5.9.5.9-.3 1.8L31 55.9l-1.4 1.5a10 10 0 0 0-2.3 3.1c0 .2.1.3.3.3l.2-.2a27 27 0 0 1 3.6-4c.1 0 .2.1 0 .5 0 .4 0 .8.2 1 .5.5.7.4.4-.3-.3-.8-.1-1.7.7-2.7.6-.8.7-.8 1.2-.3 1 1 1.4 2 1.1 4.4v2.5c.5.2 1-1 1-2.1zm19.9 1.9c.3-.4.2-.5-.2-.8-1.1-.9-2.5-.7-3.2.4-.4.6 0 .7 1 .1.8-.3.9-.3 1.3.1.5.7.7.7 1 .2zm40 0s-.5-.2-1.1-.2c-.6 0-1 .1-1 .3 0 0 .4.2 1 .2s1-.2 1-.3zm16.3.1c0-.1 0-.3-.2-.4-.2 0-.3 0-.3.2 0 .3.1.5.3.5l.2-.3zM46 61c0-.2-.1-.1-.2.2 0 .3.1.4.2.3V61zm34 .3c-.5-1-2-2.7-2.8-3.2-1.5-.9-1.2-.2.7 1.6 1.8 1.8 2.6 2.3 2.2 1.6zm28.8-.3c0-.5 0-.5-.3-.2v.6c.2.4.3.2.3-.4zm-63.6-.5c.3-1 .1-2.3-.2-2.3-.2 0-.2.4-.2 1 .1 1.5-.3 1.6-1 .2-.6-1.4-1-1.8-2.2-1.8-1.2 0-2.2-1-2.7-2.5-.4-1.4-.7-1.7-1.4-1.7a3 3 0 0 1-1.5-.7c-.4-.4-.8-.6-1-.5-.2.2 1.1 4.4 1.6 5 .3.4 1 1 1.6 1.2 1.2.6 1.8 1 2.8 1.7.4.3.9.4 1.3.3.4-.1.8 0 1.3.4 1 .7 1.4.7 1.6-.3zm-4.8-1.7c-.3-.3-.1-.6.3-.6.2 0 .4.1.4.3 0 .5-.3.6-.7.3zM52 60.4c.5-.6.6-1 0-1-.2 0-.4-.6-.6-2.2-.3-1.8-.5-2.3-1.1-3-.4-.3-.8-.6-1-.5l.6 1.6c.6 1.2 1.1 3.6 1.2 5.3 0 .3.3.2.9-.2zm42.2.2c.5 0 .8-.2.7-.4-.2-.2-2.5 0-2.9.4-.3.2 1 .3 2.2 0zm6-.2-1.3-.1c-1.7 0-2-.4-.5-.7 1.7-.2 2.5-.2 2.5.3 0 .2.1.4.4.4.3 0 .3-.2-.2-.8l-1.3-1.8c-.8-1.1-.8-1.1-2.4-1.1-1.2 0-1.6 0-1.6.4 0 .3.4.4 1.5.4s1.6 0 2 .5c.7.7.3 1-1.4 1-.6 0-1.4.2-1.7.4-.5.4-.5.4.3.4h.8l-.6.5c-.7.5-.7.5 1.3.4l2.2-.2zm14.2.1c0-.1-.2-.2-.5-.2-.2 0-.3 0-.2.2 0 .2.3.3.4.3.1 0 .3-.1.3-.3zM57.5 60c0-.2-.2-.3-.5-.4-.3 0-.4.1-.4.4 0 .4.8.4.9 0zm25.5-.2c.5-.7.1-1-.8-.9h-1a9 9 0 0 0-1.6-1l-1.5-.7 1.2 1 1.4 1.1c.1 0 .5.2.7.5.7.7 1.2.7 1.6 0zm-6.8.1c0-.5-3-2.2-4-2.2-.6 0-.4.2 1 .8l1.9 1.2c.4.4 1 .5 1 .2zm31.3-.5c-.2-.2-1 .1-1 .4 0 .2.3.2.6 0l.4-.4zM70.6 59c0-.4-1-1.1-1.5-1.1-.3 0 0 .8.5 1.2.8.5 1 .5 1-.1zm41.2.2c-.1-.5-.7-.6-.7-.1 0 .2.2.4.4.4s.4-.2.3-.3zm-77.7-.5c.1-1.2-.2-2.7-.6-2.7l-.5.8c-.2.5-.2.9.2 1.6.5.9.9 1 1 .3zm19.7 0 1-.6-.6-1.4c-.7-2.1-1.7-3.2-4-4.4l-2-.9c0 .5.6 1.3 1.4 1.7 1.8 1 2.5 2 2.6 3.6.1 1.5.3 2.5.6 2.5l1-.5zm40.1 0a1 1 0 0 0-.6 0c-.2.1 0 .2.3.2.4 0 .5 0 .3-.1zM58.2 58c.1-.8 0-.8-.9 0-.5.4-.4.8.3.8.4 0 .5-.3.6-.8zm48.6-.4c0-.2-.1-.7-.4-1.1l-.4-.8-.2.8c-.2.4-.2.9-.1 1 0 .1 0 .5-.3.8l-.5.6.8-.5c.5-.2 1-.6 1-.8zm4.4.6c.4 0 .5 0 .1-.2-.6-.3-2.6-.6-2.6-.3 0 .4 1.4 1 1.7.8.1-.1.5-.3.8-.3zM19.7 57c-.5-.5-.6 0-.1.7.3.5.3.5.4.1 0-.2 0-.6-.3-.8zm27.6-2.7c.2-.4.2-.7 0-.9 0-.2-.2-.9-.1-1.6 0-1.1 0-1.6-.7-2.5-.6-1-1.5-3-2-4.3 0-.3-.4-.5-.8-.5-.7 0-.7 0-.2-.5.5-.4.5-.5.2-1.6-.3-.9-.6-1.2-1.2-1.4-.5-.3-.7-.5-.7-1l-.3-1.9c-.5-2.5-.7-4.4-.5-6V30l-.7.4c-.5.3-.6.5-.4.8.4.5.2.7-1.3 1.3-2 .8-5.3 4.3-5.3 5.6 0 .2-.2.5-.5.6-.3 0-.8.4-1 .8-.3.7-.3.8.3 1.3.8.8 1 .7 1.7-.2.6-.8.7-1.5.2-1.7-.5-.1.3-1.2 2.3-3.3 1-1 2-1.9 2.3-1.9.6 0 1.3 1.2 1.3 2.2 0 1.4-.6 3.4-1 3.4s-.7-1.2-.3-1.8c.4-.8.3-2.2-.1-2.2-.2 0-.6.2-.8.5-.5.5-.5.6 0 .6s.6 0 .6.4c-.1.6-1 .8-1 .2 0-.6-.4-.5-1 .3l-.7.6 1 .8c.5.5 1 1 1 1.2 0 .4.7 1 1.3 1 .3 0 .5-.3.5-.6.1-.7 1-1 1.4-.5.2.2.2.4 0 .4-.6.3-.4.6.5 1 1 .4 1.4 1.1 1 2v1.9c.6 2.4.6 2.6.3 2.8-.2 0-.6-.1-1-.4l-.5-.6-1.9 1.8c-2.6 2.6-2.6 2.6-1.9 3.3l1.2 1c.3 0 .7.8 1 1.6.4 1.5 1 2.1 1.7 2.1.4 0 .3 0 0-.4-.4-.2-.5-.5-.4-.8.1-.4.2-.4.6 0 .3.1.1-.1-.4-.6-.8-1-1-1.6-.6-1.6.2 0 1.3.5 2.5 1.2 1.3.6 2.4 1.1 2.5 1 .2 0 .4-.6.6-1.3.2-.6.4-1.2.6-1.2.3 0 .2.5 0 1.5-.2.4-.4 1.4-.4 2.2l-.2 1.5.5-1.7c.2-1 .6-2 .8-2.4zm-3.4-.4c-.4-.4-.8-.6-1-.5-.5.1-.7-.1-1.1-1-.7-1.2-.6-1.6.2-1 .3.3.5.4.9.2s.4-.2.4.2c0 .3.5 1 1 1.4.5.5.8 1 .7 1.1-.2.4-.5.3-1.1-.4zm.9-1v-1c.2-.3.2-.3.4.2s.2.8 0 1c-.2.1-.3 0-.4-.2zm-6.3-.6c-.1-.3 0-.4.1-.3.4 0 .6.7.3.7l-.4-.4zm1.6-.5c-.8-1-.9-1.2-.5-1.2.2 0 .3.2.3.4l.2.4c.2 0 .4.3.6.6.4 1 .2.9-.6-.2zm4.8-2c-.5-1.3-1-2.6-1-3 0-.7.3-.2 1.3 1.9 1.4 2.8 1.5 3.2 1 3.2a8 8 0 0 1-1.3-2.2zm-1.4.9c-.5-.5-.6-1.4-.2-1.4.2 0 .3.1.3.4 0 .2.2.5.5.7l.6.5c0 .4-.8.2-1.2-.2zM104 57c1-.9 1.2-1.1.7-1.3-.3-.3-2.9 1.7-2.9 2.1 0 .6 1 .2 2.2-.8zm22 .6 1-.5v-4.2a89.6 89.6 0 0 1 0-6.4c-.2 0-.3.5-.3 1 0 1.7-.5.6-.6-1.2 0-1.1-.2-1.8-.4-1.8-.2-.1-.3.4-.3 2 0 1.2-.1 2.1-.3 2.1-.2 0-.3-.9-.3-2.2 0-2.5-.1-2.7-1.7-3a4 4 0 0 1-1.3-.4h-.5l-.1 5c0 3.4 0 5-.3 5.2-.4.4-.3.9-.3-5.4 0-4.5 0-5.3-.4-5.3s-.6 1.3-.7 6.9c-.1 2.2-.3 4.2-.4 4.3-.2.2-.2-1.8-.1-5.6 0-4.4 0-5.8-.2-6-.6-.3-.8.5-.8 3.3 0 3.3-.3 7.5-.5 7.5s-.2-2.5-.1-5.6c.1-5.4 0-5.6-.4-5.6-.5 0-.6.3-.7 4.5l-.4 5.5c-.2 1.7-.7 1.5-.5-.2l.3-5.7c.2-4.2.2-4.4-.3-4.3-.4.1-.5.6-.8 5.5a27.1 27.1 0 0 1-.9 6.6c0 .5.4.8 2 1.5 1.7.8 6.7 2.6 8 2.9 1 .2 1.5.1 2.4-.4zm-4-8.6c0-2.7 0-4.9.2-4.9.3 0 .6 6.7.4 8.3-.4 2.7-.7 1.4-.7-3.4zm1.3-.6c0-2.3 0-4 .2-4 .3 0 .6 2.9.5 4.2l-.2 2.3c0 .8-.1 1.4-.3 1.4-.1 0-.2-1.5-.2-4zm-118 7.8c.7-1 1.5-1.8 1.6-1.8.4 0 1.5-1 1.5-1.4 0-.7 2.2-2.5 3-2.5 1.5 0 1.6-1.1.3-3.9-.4-1-.6-1.6-.4-1.7.2-.2.5.3 1 1.4l.9 2.1c0 .2 0 .2.2.1 0 0 .2-2 .2-4.1v-4l-.6.8-.6 1.2c0 .7-.6 1.5-1.1 1.5-.2 0-.5-.5-.7-1-.2-.7-.5-1.2-.6-1.3-.4-.2-.3 1 .2 2.1l.6 2.4.4 2c.5 1.7.5 1.8 0 2-.2.1-.6 0-.7-.1-.5-.4-2-.5-2-.1v.7c0 .4-.3.4-.7.3-.5 0-.7 0-.7.2l-.4.7c-.7.6-1.1-.1-1.1-1.8 0-1.5-1-5.3-1.4-5.3-.2 0-.3.6-.3 1.5a389.5 389.5 0 0 1-.2 11.7l1.5-1.7zm-.4-2c-.3-.4 0-.8.6-.8.4 0 .6.1.5.4-.1.6-.9.8-1.1.4zm23.9 3c.5-.5.5-.6.2-1.2l-.8-1.8c-.9-3.3-1.7-1.5-1 2.2.4 1.6.7 1.8 1.6.9zm55.1.4c.3-.3 0-.4-1.5-.6-1-.2-1.3-.1-1.2.1.2.6 2.5 1 2.7.5zm-26.8-1.5c-.4 0-.5-.3-.5-.8 0-.9.2-1.2.8-1.5.4 0 .5-.4.4-.8 0-.4.1-.8.3-.9.2 0 .3.5.4 1.7v1.8l1.5-1.2 1.4-1.3.1-3 .2-10.4c.1-6.7.2-7.8.6-7.4a165.6 165.6 0 0 1 0 15.3c.2 0 .4-.2.4-.4s0-.4.2-.4.3.7.3 1.6c0 1.2-.1 1.6-.3 1.5-.2 0-.3-.4-.3-.7 0-.3 0-.6-.2-.6-.1 0-.3.4-.3.8L62 51c-.3 1.2.2 1 2.3-.7 2-1.6 2.7-2.5 2.7-3.7l.6-19c0-5.9.5-10 1-10v1C68 22.3 67.4 46 68 46c.4 0 .5-1.2.4-3.5-.2-1.4-.1-2.3 0-2.4.3-.2.7.5.6 1-.1.7 0 2.8.2 2.8l1-1.4a87.7 87.7 0 0 1 2.5-4.1l1.4-2.6 1.4-2.4V29l-.2-8.6c0-4 0-4-.3-2-.3 3.2-1 7.2-1.3 7.2-.3 0-.2-.6.2-3.6.5-3 .5-5.7.1-5.7-.1 0-.2.4-.2 1 0 2.8-.5 4.6-1 4.6-.4 0-.4 0 0-2.2.3-1 .4-2.3.4-2.7 0-.7 0-.6-.3.4-.2.6-.5 1.2-.7 1.3-.6.2-.6-.7.1-2.3l.7-1.8-.7-.1c-.7 0-1.2.9-1.2 1.8l.4 6c.2.4-.4 4.4-.7 4.4l-.2-2a79.5 79.5 0 0 0-.5-10.2c-.4 0-2 1.8-2.3 2.6-.2.5-.5.8-.6.7-.5-.3-.3-1.2.5-2 .4-.5.8-1 .8-1.2 0-.1-.4-.6-1-1.1l-.8-1-.2 2.3a124.6 124.6 0 0 0-.3 5.4 233.2 233.2 0 0 0-.3 21.7c.3.4 0 1.7-.3 1.7l-.4-.8c-.2-1.4.2-17 .5-21.6.2-2.6 0-2.8-1.4-1.2-1.7 2-1.9 2.6-2 5.7-.2 3.8-.4 4.7-.8 4.6a.4.4 0 0 1-.2-.5c.2-.8.4-5.5.3-5.5-.3 0-.5 1-.8 4.5-.1 1.8-.4 3.7-.5 4.2-.1.5-.5 2.6-.7 4.6-.4 3.3-.7 4.3-1 3.7 0-.2.5-4.6 1.2-8.4l.2-4.2c0-2.1 0-2.9.4-3.7l.7-1 .3-.3c.1-.3 0-.4-.4-.3-.5.2-.3-.1.6-1.4a46 46 0 0 0 1.7-2.3c.2-.4 1-1 1.5-1.4 1-.6 1-.7 1-1.9 0-.7-.1-1.5-.3-1.7-.4-.5-.4-.5-.8.3-.3.5-.4 1-.3 1.7.2 1.2-.5 2.3-1.5 2.3-.9 0-1.3-.5-1.3-1.4 0-.4-.2-1-.5-1.4-.3-.4-.6-1-.6-1.3 0-.8-.4-1-.6-.4 0 .4-.3.5-.8.5a6 6 0 0 0-2 .7c-1.4.7-1.8.8-1.8.4 0-.2.9-.7 2-1.3 1.1-.5 2-1 1.7-1-.6-.3-4.2 1.7-5.8 3.3a8 8 0 0 0-1.7 1.8c0 .2-.2.5-.6.8-1.3.8-1 1.2.4.5.8-.4 1.5-.7 1.7-.6.1 0 .3.6.3 1.3 0 1-.1 1.1-.7 1.3-.5 0-.8.5-1.2 1.4-.4 1-.4 1.3-.1 1.9.4.8.6.8 1.5.1 1-.7 1.4-.7 2.2.4.5.8.6 1.1.4 3l-.2 2 .6-.9 1-1.6c.2-.4.4-.5.5-.3 0 .2-1 2.6-2 4.3 0 0-.2 0-.4-.3-.5-.4-.8 0-.6 1 .2.6 1 1 1.4.8.2-.1.5-1 .9-1.8.7-2 1-2.4 1.5-2.2.2 0 .3-.1.3-.6 0-.4.3-1.1.6-1.6.5-1 .7-1 .6-.4l-.4 2.2c-.4 2-.4 2.2-.9 1.8-.5-.4-1.8 2.6-2 4.5 0 1.2-.2 1.5-.7 1.8a3 3 0 0 0-1.5 1.9c-.2.5-.2.6.3.4.3 0 .6 0 .7.2.2.2 0 .3-1.2.6-.4 0-.8.3-.8.5 0 .1-.3 1-.8 1.8-.9 1.8-.9 2-.3 2.5.4.4.6 1 .7 3v2.8c-.4.2-.6-.5-.6-2.7 0-1.2-.2-2.3-.3-2.5-.3-.5-1 0-1.8 1.3-1 1.6-1 2.8-.1 3.6.4.4.8.7 1 .7l1.2.7 1 .4.1-.8c0-.3.3-.7.4-.9.3-.2.3 0 .3.7 0 .6.2 1 .4 1 .2.1.4.5.4.8 0 .4 0 .5-.4.4H54a915.3 915.3 0 0 0 1.4 3c0 .5.2.4 1.2-.2 1-.6 1-.7.5-.8zm-.9-3.6-.3-2.2c0-.8-.3-2-.6-2.5-.5-1.4-.2-2 .4-.6.5 1 1.1 4 1.1 5.5 0 1-.4.8-.6-.2zM51 51.2l-.4-.7c-.4-.4-.4-.4 0-.7.3-.2.4-.6.4-1.2 0-.5 0-.9.2-1 .3 0 .7 3.2.5 3.7-.3.4-.7.3-.7-.1zm9-.1c-.4-.3-.3-.9.1-.9.3 0 .4.2.4.4 0 .4-.3.7-.6.5zm-5.7-.6c0-.2-.3-.3-.6-.2-.3 0-.5-.2-.6-1.3-.3-2-.3-5.9 0-6 .2-.2.3.4.3 1.4 0 2.6.4 4.6 1 5.3.6.5.8 1 .3 1-.1 0-.3 0-.4-.2zm4.5-2.3c0-1.2-.2-2.4-.3-2.9l-.2-.8-.1.9c-.3 1.6-.6.8-.6-1.7-.1-2.5.3-3.5.6-1.4 0 .6.2.9.2.6.1-2.4 1 3 1 6.2 0 1.9-.4 1.2-.6-1zm1.9-3c-.2-.3-.1-8.6 0-9.4.1-.4.2-.4.4-.1.3.4.2 9.5 0 9.6-.2.1-.3 0-.4 0zM63 45c-.2-.2 0-2.4.2-3.7.3-1.3.6-.3.5 1.6-.1 1.9-.3 2.5-.7 2.1zm6.2-12.4c0-7.3.1-10.5.4-11.8a257.9 257.9 0 0 0 .2 19.2c0 1.8 0 2.4-.3 2.5-.3 0-.3-2-.3-10zM57.8 38l.5-2.5c.2-1.5.7-1.7.7-.2s-.6 3.2-1 3.2c-.3 0-.4-.2-.2-.5zm12.5-2c0-.9.3-1.5.6-1.3.4.2.3 2-.2 2-.2 0-.4-.3-.4-.7zm1.7-6.5c0-2.8.3-5.2.4-5.5.4-.6.4-.7.3 3.6v4.7c0 1.3-.2 2.2-.6 2.2-.2 0-.2-1.4-.1-5zM70.5 33a4 4 0 0 1-.2-1.6c0-1 .1-1.2.3-1 .2.1.3.8.2 1.5 0 .7-.2 1.2-.3 1zm2.7-5.7c0-.6.2-1.1.3-1.2.2 0 .3.3.3 1s-.1 1.3-.3 1.3c-.1 0-.3-.5-.3-1zM54.8 25c0-.4 0-.8.3-1.1.2-.3.4-.8.4-1.2 0-.8 0-.8-.4-.3l-.4.4-.1-1.8c0-1.2-.3-1.8-.6-2-.7-.6 0-1.4 1.7-2A9 9 0 0 0 58 16c.8-.6 1.8-.6 2 0l.6 1c.2.2.3.6.2 1l.1.9c.6.3.2 3.8-.4 3.8-.2 0-.4-.1-.4-.3 0-.1-.1-.2-.3 0l-.6.2c-.2 0-.3.4-.4.9 0 1-.4 1.6-.8 1.2a16.5 16.5 0 0 1 .7-6.7c0-.3-.1-.3-.6 0-.4.3-.5.8-.6 3-.2 3.4-.7 3.6-.7.3v-2.2c-.2.1-.9 4.7-.9 6 0 .7-.8.7-1-.2zm.9-4.5c0-.3-.1-.1-.1.3v.5c.2-.2.2-.6.1-.8zm3.8-.6c0-.5 0-.6-.3-.3l-.2 1.2c0 .7 0 .7.2.3l.3-1.2zm-3.5-1c0-.6-.3-.8-.6-.4-.2.4.1 1.1.4 1l.2-.7zm-4 5c-.2-.3.6-.8 1.3-.8.6 0 .4.5-.3.8-.8.3-.9.3-1 0zm-7.9 33c0-.9-.8-1.4-1.6-1.2-.4.2-.4.3-.2.6l.7.4c.1 0 .4.1.6.4.5.5.5.5.5-.3zm1.3-.2c-.3-.2-.5.2-.3.5s.2.3.3 0v-.5zm14.9-.2c0-.6 0-.6-.5-.2l-.6.7.6.2c.3 0 .5-.2.5-.7zm2.4 0 .6-.3-.6-.3c-.6-.2-.8-.1-1 .2-.7.9-.2 1.1 1 .4zm-36.3-2c-.1-2-.1-2-1.2-3.1l-1.1-1-.2 1c-.2 1.6 1.2 5.3 2 5.3.5 0 .6-.2.5-2.1zm48 2a9.2 9.2 0 0 0-3.9-1.3c-.8.3 0 .8 1.6 1.1 2 .4 2.6.4 2.3.1zm10.4-.1c-.1-.1-.3-.3-.5-.3-.1 0-.2.2 0 .3 0 .1.2.3.4.3v-.3zm4.5 0h-1c-.2.1 0 .2.6.2.5 0 .7 0 .4-.1zm13.6-.8c.6-.5 1-1 1-1.2-.2-.2-2.6 1.7-2.6 2 0 .5.4.3 1.6-.8zM98 56c0-.3-3.1-.3-5.3 0-1.2.2-.8.2 2 .3 2 0 3.3-.1 3.3-.3zm2.4 0c0-.1-.1-.2-.3-.2-.1 0-.2 0-.2.2s0 .3.2.3.3-.1.3-.3zm7.1 0c0-.1 0-.2-.2-.2s-.3 0-.3.2.1.3.3.3c.1 0 .2-.1.2-.3zM80.2 56c.5-.2.6-.7.1-.7L78 54.1a7 7 0 0 0-3-1.2c-1.4 0-4.6-.8-5.6-1.4-.9-.5-1.6-.5-1.6 0 0 .2.7.7 1.6 1.1l2.2 1.1c.3.3.5.3.8-.2.3-.3.5-.4 1.2-.3 2.2.4 3.5 1 4 1.6 1 1 1.8 1.4 2.7 1zm16.2-.7c.4-.4-1.3-.6-4-.4-1.7.1-2.8.3-3 .6-.3.3.1.3 3.2.2 2 0 3.6-.3 3.8-.4zm3.7-.7c.4-.5.4-.5-.3-.7-.7-.2-.8-.6-.3-1.2.2-.2.1-.3-.4-.3s-.7.1-.6.4l.4 1.3c.4 1.1.5 1.2 1.2.5zm2.3-.5c1-1 1.2-1.4.3-1l-1.3 1.2c-1 1.1-.2 1 1-.2zm-19.9.6s-.6-.5-1.4-.8L79 52.4c-.5-.4-1-.5-1-.4-.2.4 1.4 1.6 3 2.2 1.3.5 1.6.6 1.6.4zm15.1-.4c-.6-1.2-2.4-2-2.8-1.3-.1.2-.3 0-.5-.2-.3-.4-.3-.4-.5 0-.2.5.7 1 1.8 1 .3 0 .9.2 1.2.5.8.6 1.1.7.8 0zm-4.8 0c-.1-.3-.5-.4-.9-.4s-.8.1-.9.3c0 .2.2.3.9.3s1 0 .9-.3zm-6.1-.4c0-.2-.6-.4-1.5-.6-1.2-.2-1.5-.3-1.6-.8 0-.3-.4-.7-1.2-1l-2.7-1.5c-1.4-.9-2.5-1.1-2.5-.5 0 .6 3 2.8 5 3.5 2.9 1.2 4.3 1.4 4.5.9zm-22.8-1s0-.2-.3-.2c-.2 0-.4.1-.4.3l.2.2c.2 0 .4 0 .5-.2zm29.2 0s-.1-.2-.3-.2c-.1 0-.2.1-.2.3 0 .1 0 .2.2.2s.3 0 .3-.2zm9-.2c.8-.6 1-.7.5-1.3-.2-.3-.3-.3-1 .2-1.1.8-1.6 1.6-1 1.6.3 0 1-.2 1.4-.5zm-35.7-.2c.2-.1-.1-1-.4-1.3l-.8.2c-.9.3-.8.8.1 1 1 .3 1 .3 1.1.1zm21.3 0c0-.2-.2-.3-.7-.3-.4 0-.8 0-1 .2 0 .2.2.3.7.3.4 0 .9-.1 1-.3zm18.2-4c-.1-2-.3-3.7-.4-3.6-.3.2-.3 7.4 0 7.6.4.5.5-.5.4-4zm1.2.5V45c-.5-.8-.8-.2-.8 1.8 0 1.9.3 5.5.4 5.4l.4-3.4zm-14.8 2c.3-.3 0-.3-.7 0-.6.1-1 .5-1.1.8-.1.4 0 .4.7 0l1.1-.9zm12.4-2c0-3.4-.1-4-.5-4s-.3 6 0 6.6l.5.6v-3.3zm7.9 1.6-.1.5v.5c.2-.3.2-.7 0-1zM39 47.8c1.2-1.5 1.4-1.9 1.3-2.5-.3-1-.9-.7-1.8.6-.7 1-.7 1.2-.5 1.5.3.3.2.6-.4 1.5l-1.4 1.8c-.3.3-.5.6-.5.8 0 .2 1.2-1.1 3.3-3.7zm38.5 3.5c0-.2-.3-.3-.7-.3-.6 0-.7 0-.4.3.5.3 1 .3 1 0zm7.2-.2L83 50a277 277 0 0 1-2.9-1.8c-1.6-1-1.7-1-1.7-.7 0 .2.2.4.5.4l1.2.8c.8.8 4 2.8 4.2 2.7.2 0 .3-.1.3-.3zm16.2-.1c.9-.5 1-1 .5-1.2-.1 0-.7.3-1.3.8-.8.7-1 1-.6 1 .3 0 1-.3 1.4-.6zm-64.4-1.7c.7-1 1-1.6.8-1.7-.5-.3-.9-3.2-.7-5.3.1-1.7 0-2.1-.3-2.5l-.6-.4c-.2 0-1.6 3-2 4.1-.2 1-.6 1.1-1.3.3-.3-.3-.6-.4-.9-.4l-.7.2c-.5 0-.8.8-.4 1.2.2.2.4.1.5-.2.4-.6 1-.6 1.2 0 0 .1.3.3.6.3.4 0 .6.3.7 1.5.2 1.4.8 4.2 1.1 4.7.2.3.7-.2 2-1.8zm-1.3-1c-.6-.5-.8-1.3-.2-1.3.4 0 1.2.9 1.2 1.3s-.3.4-1 0zM23.3 50c.2-.8.4-1.1 1-1.4 1-.4 1.2-.2 1.2 1 0 .8 0 1 .5 1s.6-.2.8-1.5c.1-1.1 0-1.7-.1-1.9-.2-.2-.4-.2-.6.2-.3.5-.7.6-.7 0 0-.2-.3-.4-.7-.4-.5 0-.7.2-.7.6 0 .4 0 .5-.3.4-.5-.2-.9.2-1.1 1.2-.2.8 0 1.8.4 1.8l.3-1zm51 .9s-.5-.4-1.1-.6c-.8-.4-1.5-.5-2.4-.4-1.4.2-1.7.6-.7.9.7.2 4.2.3 4.2 0zm25.9-1.4c1-1 1-1.2 1-2.1 0-1.6-.3-1.9-1-1a345.7 345.7 0 0 1-2.3 2.7c-.3.6-.2.5.8-.3 1-.9 1.8-1.2 1.8-.8l-1.1 1.3c-1.4 1.5-.8 1.6.8.2zm-32 .2c.3-.3.8-.5 1-.5.7 0 .8-.7.2-1-.4-.3-.5-.4-.2-1l.4-1c0-.5.3-.6 1-.7.8 0 1.1.4.4.7-.6.2-.5.4.7 1 1.6.8 3.5 1.3 4.6 1 1.3-.2 1.1-1-.3-1.3-1.1-.3-3.7-1.5-4.3-2.1-1.1-1-1.4-.8-3.2 2a26 26 0 0 0-1.8 3c-.2.6.8.6 1.5-.1zm7.8 0c0-.2-.5-.3-1-.3-.6 0-.7 0-.4.3.5.3 1.6.3 1.4 0zm10.2-.1-1.5-1c-2.4-1.6-3.7-2.8-3.3-3.2.2-.2.6 0 1.8.8 1.7 1.2 2.4 1.4 1.5.5l-.6-.8c0-.4.9-.2 1.8.5.9.6 1 .6 1 .2.2-.6-2.7-3.3-4.3-4-.7-.4-1.5-.6-2-.6-2 .1-3.4 0-4.5-.3-.6-.3-1.5-.5-1.9-.6-.4-.1-.7-.3-.7-.7 0-.5.2-.5 2.5-1 .5 0 1-.2 1-.3 0-.1-.6-.5-1.4-.8-.7-.3-1.3-.7-1.3-.8 0-.5 1-.3 2.8.5 2 1 2.6 1 3.7.5.6-.2.8-.2 1.8.3l2 1.4c1 .7 1 .7.9.2-.1-.3 0-.5.3-.5.2 0 .4.1.4.3 0 .1.1.2.3 0 .4-.2 0-.6-.6-.6-.3 0-.5 0-.5-.2 0-.5-3.3-1.9-5.4-2.3a23 23 0 0 1-3.3-1c-.6-.2-1.3-.4-1.5-.3-.1 0-.8 1.1-1.4 2.4-1 2-1.1 2.3-.8 2.6.3.1.5.5.6.8.1 1.1 5.7 2.7 5.7 1.6 0-.3.3-.4 1.2-.4 1.4 0 3.2 1 3.3 1.8v.7l-.7-.6c-.8-.6-1.6-1-2.7-1.2-.6-.1-.8 0-.9.4 0 .4-.3.5-1.3.5-1.5 0-4.4-1.1-5.3-2l-.7-.7-.3.6c-.3.6-.2.8.3 1.4.8 1 3.9 2.1 5 1.9.3-.1.5 0 .6.2.2.4.3.4.7.2.3-.2.6-.1 1 .4 1 1.1 6.7 3.9 6.7 3.2zm17.2-1.2c0-.9 0-1.1-.3-.8-.4.6-.3 2 .2 2l.1-1.2zm-55 .2c.2-.9 2.3-5.3 3.4-7.2.4-.5.5-1.1.5-1.3-.2-.5-1.2-.6-2.2-.2-1 .5-.8.8.3.6.7-.1 1 0 .8.2 0 .2-.3.4-.6.5-.3 0-1.5.5-2.8 1.1l-2.3 1.1.7 1.3c.4.8.9 1.4 1 1.5.3 0 .3.4.2 1.1-.1 1 .2 2.1.7 2.1l.4-.8zm-41 .3c0-.3-.8-2.2-1-2-.2.2.3 2.3.6 2.3.2 0 .4-.1.4-.3zm106.5-1-.1.5c0 .5 0 .7.1.4V48zm-20.2-1.8c.9-1 1.2-1.2 1.7-1 .4 0 .6 0 .6-.5.1-.5.3-.6 1-.7 1-.2 1-.2 1.2-1.4.2-1.7.7-2.9 1.3-2.9.6 0 .6.4 0 1.2l-.5 2c-.2 1.1-.2 1.4 0 1.5.8.3 1.2-.5 1.4-2.1.1-1.9.7-3 1.5-3 .3-.1.2.8 0 1.1-.5.5-1 2.2-.7 2.8.2.8.5.6.7-.4 0-.5.5-1.6.9-2.4l.6-1.6a23 23 0 0 0-4.8.7c-1.6.4-2.3 1.3-2.3 2.7 0 .7-.2 1-.5 1.2-.7.2-4 3.9-4 4.3 0 .5 1-.3 2-1.5zm-2-.8c.8-1.1 1.4-2 1.3-2.1-.2-.2-3 2.3-3.3 3-.4.7-.2 1.4.3 1.2.3 0 1-1 1.8-2.1zm-68.6 1.3c.7-.7 1.5-.8 2-.2.4.3.6.3 1.2-.5l1.3-1.6c.2-.4.6-.7 1-.7.5 0 .9-.4 1.1-1.3.2-.7.2-.7-.5.1-.7.9-1 .5-.3-.7.5-.9.5-1.1-.2-1.4-.6-.3-.9-1-1-3 0-1.2 0-1.2-.4-.7-.5.7-.3 2.4.4 4 .6 1.2.7 1.4.3 1.4l-.8-1c-.3-.6-.6-1.1-.8-1.1l-1.3 1.3-1.7 2c-.4.3-.7.9-.7 1.3 0 .3-.2.8-.4 1-.4.3-.5 1.8 0 1.8 0 0 .5-.3.8-.7zm3-3.8c-.7-.6-.8-.8-.6-1 .3-.3.5-.2 1.2.5 1.3 1.4.9 1.9-.6.5zm5.7 4.2-.4-.2c-.1 0-.2 0 0 .2 0 .2.2.3.3.3.2 0 .2-.1.1-.3zm14.7 0c0-.2-1.1-2.4-1.2-2.3-.2.2.7 2.6 1 2.6l.2-.2zm56.8-1.5c-.3-.3-.4.2-.2 1l.2.7V45.5zm37.7.8c0-1-.8-1.5-2.4-1.8-.7 0-2.3-.5-3.7-1-2.4-.7-3.9-.9-3.6-.5 0 .2.5.4 1 .5.5 0 .7.2.5.3a13 13 0 0 1-2.8-.6c-1.7-.5-2.1-.6-1.5-.6h1l-.8-.8c-.4-.4-.7-1-.7-1.4 0-.3 0-.5-.2-.4l-.5-.1c-.2-.2-.3-.1-.5.2 0 .3 0 .6.3.8.9.6-.2.6-2 0-2.2-.8-8.3-2.2-10.7-2.5l-1.6-.2v-1.3c.1-.6 0-1.3-.1-1.4-.2 0-.3-.6-.3-1.3 0-1.2-.3-1.5-1.3-1.3-.6.2-.6.3-.5 2.4.2 2.2 0 3.2-.5 2.5-.2-.3-.3-.2-.5.2-.1.5 0 .7.3.9 1.3.7 1.8 1.5 2 2.9 0 .8.4 1.8.7 2.2l.5.8v-2c.1-2.3 0-2.6-.7-2.6-.3 0-.5-.2-.5-.3 0-.2.3-.2.8-.2 2.2.4 3.5.5 3.1.2l-1.3-.4c-1-.2-1.7-.7-.9-.7l4.6 1.1c3.7 1 6 1.5 8.3 2 .7.2 1.3.6.8.6l-4.2-.9a30 30 0 0 0-4-.8s.1.2.4.2a391.6 391.6 0 0 0 21 6c.2.2.5 0 .5-.7zm-5.4-1.7c-1.6-.5-1.9-.7-1.1-.6 1.6.2 4.1 1 4.1 1.2 0 .4-.8.2-3-.6zm-24-8.5c-.4-1.2-.2-2.8.3-2.8.1 0 .2.8.2 1.7 0 1.7-.3 2.3-.6 1.1zm-23 10.1c-.2-.2-.2-.2-.3.2 0 .2.1.4.2.3v-.5zm22.4-1.7c-.2-.2-1.8 1.2-1.8 1.5h.6c.4 0 .6 0 .9.4.2.4.3.3.3-.6v-1.3zm-78.7 1.1c-.5-.4-.7 0-.3.5.2.3.4.4.5.2 0-.2 0-.5-.2-.7zm-2.4-.3-1-.6c-.4 0-.2.2.4.8 1 .9 1.5.8.6-.2zm-23-1C6 42.1 4.6 39 4.3 39c-.2 0-.5 1.4-.3 2 0 .4.3.7.6.7.2 0 .9 1 1.4 2.2a8 8 0 0 0 1.2 2l-.5-1.8zm11.8.5c.6-.6.2-.7-.5-.1-.5.3-.5.5-.2.5.2 0 .6-.2.7-.4zm22.6-1c0-.6 0-1.1-.2-1.2-.2 0-.2.5-.2 1.3.1 1.6.3 1.6.4 0zm86.7.7c0-.4-.4-.7-.8-.5v.7c.4.5.8.4.8-.2zm-90-.7c.6-1.2.6-2 0-2-.3 0-.5.1-.6.4-.2.4-.2 2.7 0 2.7l.6-1.1zm50.6.9-.1-.3-.3.3c-.1.1 0 .2.1.2.2 0 .3-.1.3-.2zm52.7-1.4v-1.9c-.2-.2-.3-2.6-.3-5.3 0-3.8-.1-5-.4-5.3-.2-.3-.4-.8-.4-1.1 0-.4-.1-.7-.3-.7-.2 0-.2 2.1 0 6.8 0 4.5 0 6.7-.2 6.7-.4 0-.6-1.7-.6-7.1 0-6.2-.1-7.7-.8-7.7-.4 0-.4.3-.3 2 .2 2.7-.2 11.8-.5 11.8a45 45 0 0 1-.2-6.4c0-6.6 0-7.5-.7-7.7-.3-.2-.4.3-.4 2.8 0 4.7-.3 11-.6 11 0 0-.2-3.2-.2-7.2 0-6 0-7.3-.4-7.6-.3-.2-.3 0-.3 1.1 0 4.3-.4 13.7-.6 13.7-.3 0-.3 0-.3-7.6 0-5.6-.2-8-.8-8l-.3 4.4c0 2.5 0 5.7-.2 7.1-.3 4.8-.6 2.6-.5-4 0-3.5 0-6.7-.2-7-.4-1.7-.6-.4-.6 4.3 0 5.5-.2 8.6-.6 8.9a41 41 0 0 1-.1-6.5c0-4.5 0-6.7-.3-7-.2-.1-.3 1.5-.4 5.9-.1 5.8 0 9.3.5 9.8l5.1 1.5c2.7.6 5 1.3 5.2 1.4.4.5.6.3.7-1.1zm-51.1.6c.8-.6 3.5-4 3.3-4.2-.1-.1-2.5 1.4-3.5 2.4-.6.5-.9 1-.9 1.6 0 .8.1.9 1 .2zm19.5 0c.3-.4.6-.9.6-1.2 0-.5 0-.5-.8.2-.7.7-1 1.5-.6 1.5l.8-.6zm-24-.9c0-.6-1.1-2-2-2.7-1-.6-1.2-.6-2.1-.4-.6.2-1.5.2-2 .1-1.2-.1-3.3.3-3 .7.2.4 2.7.8 3.2.5.4-.3.9-.2 2.3.3 1 .3 2 .9 2.4 1.2.9.7 1.2.8 1.2.3zm2.4-.2c0-.3-.2-.5-.3-.5-.1 0-.3.2-.3.5s.2.5.3.5c.1 0 .3-.2.3-.5zm-71.2-.7c0-.4-1-1.4-1.3-1.4-.2 0-.3.5-.3 1.2V43l.8-.4.8-.6zm28.6.4c.7 0 3.4-1 3.4-1.4l-.4.1c-.3.3-.5.3-.7 0-.3-.3.4-1.7 1.5-2.6.5-.4.6-.7.5-1l-.3-1.6c-.1-.9 0-1.2.3-1.3.2 0 .6 0 .8.2.6.5 2.8-.7 2.8-1.5 0-.6-1-1.5-1.5-1.4-.5.1-1.5-.4-1.7-1-.3-.7 0-1.8.8-2.6.4-.4.4-.5-.1-.9-1.1-.9-1.2-1.7-.5-3.5l1-2.2c1.2-1.2-1.1-.4-3 1-.6.6-1 1.2-1 1.6 0 .6-3.6 4.4-4.2 4.4-.5 0-.6.2-.8 1.9-.2 1.4-.1 1.5.4 1.3.5 0 .5 0 .5.7 0 1-.4 1.3-.6.5l-.2-.6-.3.7a7 7 0 0 0 .2 3.8l.5 1.4a4 4 0 0 0 1 1.7c.6.6.8.8.5 1.1-.2.3-.2.6 0 1.1.2.5.4.7.5.5 0-.2.3-.4.6-.4zm-.1-2c-.3-.7-.6-1-.7-1-.4.3-.8-.8-1-2.7-.1-1.7-.1-1.9.4-2 .7-.2.8 0 .8.7l.6 2.9c.5 2 .7 2.3 1.1 2.3.6 0 .6 0 0 .4-.6.5-.7.5-1.2-.7zm.5-2.1c-.4-1.3-.5-2.8-.2-3.1.2-.3.2-.5-.2-.8-1.2-1.1-.2-1.7 1-.6.9.7 1.1 1.7.7 3.2-.4 1.6-1 2.3-1.3 1.3zm2.7-3.2-.2-.7c0-.6.6-.4.7.3.1.6-.2.8-.5.4zm1-1.1v-.6c.3-.3.4-.3.6 0 .3.4.1.8-.2.8-.2 0-.4 0-.4-.2zM46.8 33c0-.2-.3-.6-.6-1-.3-.5-.5-1.3-.5-1.8 0-.8.2-1.2 1-1.9 1-.9 2-1 2.8-.5.7.6.6.7-.9.8-1.6 0-2.5 1-2.2 2.1.2 1 .4 1 1.3-.3s1.9-1.5 1.6-.4c0 .4-.5 1-1 1.5-.4.4-.7 1-.7 1.2 0 .3-.2.6-.4.6s-.4-.1-.4-.3zm57.5 8.3v-1.8l-.8 1.4-.8 2h.8c.5 0 .6-.2.8-1.6zm4.5 1.2.9-.5c.2 0 .3-.1.3-.3 0-.4-1-.2-1.6.5l-.8.7c0 .4.8.1 1.2-.4zm-97-1.7-.6-2.2-.4-2.3c0-.6-.2-1-.5-1.2-.4-.2-.6-.5-.6-1.2 0-1.4-1-3.3-2.9-5.5A19 19 0 0 1 5 25.9c-.4-.7-.6-.7-.8.1-.2.8.2 1.5.8 1.5.2 0 .7.8 1.2 1.9.8 1.8.9 1.8 1 1l.2-.7.3.8c.3.8.7 2.2 1.4 5.4.1.8.4 1.7.6 2l.3 1c0 .2.3 1.2.7 2 .5 1.5.6 1.6 1 1.2.2-.3.2-.8.2-1.3zm11.4 0c0-1 0-1-.6-.5-.5.3-.7.7-.7 1.4v.9l.7-.5c.4-.3.6-.7.6-1.4zm82.5.5c.1-1 0-1.7-.3-1.4-.3.3-.5 2.6-.2 2.6.2 0 .4-.5.5-1.2zm-65.8.4-.2-.2-.5.2c0 .2 0 .3.3.3.2 0 .4-.1.4-.3zm-15.7-1.4c0-.1-.2 0-.3.3-.1.4-.1.4.2.2.1-.2.2-.4.1-.5zm6.4 0c0-.1-.2 0-.3.3-.2.4-.1.4.1.2s.3-.4.2-.5zm60.8-.4 2.6-1.3c.7-.2.8-.3.9-1.2v-1l-.7.4a18.8 18.8 0 0 0-5.3 4c0 .4.7.1 2.5-1zm16.2.7-.3-.8c-.4-1-.7-.9-.4.1.1.4.4.8.5.8l.2-.1zm-99.3-1c-.8-1.5-2.8-4-3.6-4.3l-.8-.4v1c0 .7 0 .8.5.7.9-.3 1.5.3 2.7 2.1 1.2 1.8 2 2.3 1.2.9zm10.8-.8c.8-1-1.5-2-3.1-1.4-.4.2-.4.2 0 .9l1.1 1.4.7.8.5-.7.8-1zm106.9-.5c0-1-.3-2.5-.5-3-.3-.8-.4-2.7-.4-6.2 0-4.6-.2-5.6-.8-5.6-.3 0 0 5.3.3 5.7a95.4 95.4 0 0 0 .4 8.8c.2 2 .3 2.4.6 2.4.4-.1.4-.5.4-2zm-95.6 1c.2-.3.2-.6 0-.7l-.6-.8c-.5-.6-.5-.6-.5-.1 0 .3.1.7.3.7.4.3.3.6-.3.8-.3 0-.5.3-.4.4.3.5 1.2.3 1.5-.3zm94-3.2c0-2-.2-4.4-.3-5.2l-.2-1.5-.2 1.6c-.1 1-.3 3.3-.3 5.3 0 3.5 0 3.6.5 3.5.5 0 .5-.2.5-3.7zm-1.5 3-.3-3.1-.3-2.3-.3 2.5c-.3 3.1-.8 3-.6 0 0-2.3 0-2.4-.5-2.4s-.6.1-.4.7l.2 1c0 .5-1.4.5-2.6 0l-1.4-.6v1.3c0 .7-.2 1.3-.3 1.3-.2 0-.3-.7-.3-1.6 0-1.2 0-1.6-.4-1.6-.3 0-.4.3-.2 1.6 0 .8.2 1.6.4 1.7 0 .1 1.4.6 3 1a25.4 25.4 0 0 1 3.6 1c.4 0 .5-.1.4-.6zm-3.5-.9c-.2-.5 0-1.7.3-1.8.3-.1.5 1.6.1 2-.2.2-.3.1-.4-.2zm-1.3-.7.1-.4c.2 0 .3 0 .3.3 0 .4-.2.5-.4.1zm10.1 1.1-.1.4v.4c.2-.1.2-.5.1-.8zm-114.9 0c.4-.7.4-1 .2-1.6-.2-.4-.4-1.5-.5-2.4-.2-1.8-.6-2.3-.6-.7 0 .6 0 .7-.3.5-.3-.3-.6-8.9-.2-10.1.3-1.4.6-6.9.3-6.9-.4 0-.9 2.7-.7 3.9 0 .6 0 1.5-.2 2.2-.2.9-.5 6.3-.6 10.2 0 .3.3.8.6 1.1.3.4.6 1 .6 1.4 0 1 .5 3.2.8 3.2.1 0 .4-.4.6-.9zm40.5-.6c.4-.8 1-1.6 1.2-1.8.7-.4.7-1.2 0-1.6-.7-.4-.8-.3-.8.2 0 .3-.4 1-.8 1.6-.7 1.1-1 2.4-.6 2.8.3.3.3.2 1-1.2zm-27.7.8c.5-.5.4-1.3-.2-1.3-.3 0-.5.2-.5.4l-.2.8c-.2.5.4.6.9 0zm61.1-.7.5-2.3c.1-1.1.3-1.4 1-2 .5-.3 1-.7 1-.9 0-.9 2.8-2.5 4.4-2.5 1.1 0 1.5-.4.6-.6-.3-.1-.6-.7-1-1.7-.2-.9-.6-1.9-1-2.3-.6-1-2.8-2.6-3-2.4-.2 0-.5 0-.7-.2-.4-.3-1.7-.1-1.7.2l1.2.9c.6.3 1.6 1.1 2 1.7 1.4 1.7 2.2 4.1 1.2 3.8a6 6 0 0 1-1-1.8c-.9-2.1-2.4-3.5-3.9-3.4h-1l.7.5c1.1.7 2.6 2.2 3 3 .5.7.5 2.3.2 2.3-.5 0-1-1-1-1.6.3-.7-.5-1.8-1.9-2.7-1.4-1-2.1-.9-.8.2.6.4 1 .8 1 1 0 .4-1 .1-1.9-.6-1-1-1.3-1-1.8-.4-.3.4-.3.5.5 1.2.7.6 1 .7 1.2.5.4-.3.6-.3 1.9.5 1 .6 2 2.1 1.7 2.5-.2.2-.6-.1-1.2-.8-.8-.9-1.1-1.1-1.6-1-.7.2-1.7-.2-2.8-1.2-1-.8-1-.8-1.4-.3-.3.3-.4.7-.3 1 .2.5 1.7 1.4 2.4 1.4.3 0 .9.2 1.3.5.5.3 1 .6 1.4.6.4 0 .7.3 1.1 1 .7 1.4.4 1.5-1 .4-1.1-1.1-2.3-1.8-2.8-1.6-.4.2-2-.6-2.8-1.3-.6-.6-.8-.7-1.2-.4-.5.5-.5 1.1 0 1.5.3.2 1.2.4 2 .6.8.2 1.8.7 2.2 1 .4.5 1 .7 1.5.7.6 0 .7.2 1 1.2.3.6.4 1.2.3 1.2-.1.1-1-.5-2-1.4-1.5-1.3-2.2-1.6-3.3-1.9-.8-.1-1.7-.4-2-.6-.9-.7-1.3-.5-2.2 1a8 8 0 0 0-.8 1.6c0 .8.9 1.2 3.6 2a18.2 18.2 0 0 1 4.6 1.6c.3 0 .7.3 1 .6 1 1 1.3.9 1.6-.3zm-1.8-1c-.8-1-2-1.5-5.2-2.6-2-.7-2.8-1.2-2.4-1.6.2-.2 5 1.4 5.3 1.8.6.5 2 1.2 2.4 1.2.4 0 1.2 1.1 1.2 1.7 0 .7-.6.5-1.3-.4zM23 38.6c1-.4 1-.7-.2-1l-.5-.5c0-.4 1.3-.6 1.9-.3.5.3.7.3 1 0 .3-.4.3-.6.1-.9a39.9 39.9 0 0 0 .4-12v-2.3c.2 0 .3-.5.3-1s0-.7-.4-.7c-.8 0-1.2 1.3-1 3.1a19 19 0 0 1-1.5 8l-.2 1.4c0 .5-.2 1-.3 1.2-.2.4-.3.4-.8-.1-.4-.5-.5-.6-.6-.2-.4.9-.2 1.4.4 1.2.5-.1.5-.1.4 2.1l-.1 2.3 1-.3zM9 38.2c0-.5-2-2.7-2.1-2.3-.1.3 1.5 2.7 1.8 2.7.2 0 .3-.2.3-.4zM93 36.4c.4-.3 1-.5 1.3-.5.3 0 .5-.1.5-.4 0-.3-.1-.4-.6-.3-1.1.3-4 2.2-4 2.7-.2.4 0 .3 1-.3l1.8-1.2zm15.6 1.1c0-1-.2-1-.6 0l-.2.7-.8-1c-.6-.7-.8-.8-1-.4-.2.7.1 1.2 1 1.3 1.6.3 1.6.2 1.6-.6zm-11.2.2.2-1.2c.1-.5.1-.8 0-.8-.3 0-.6 1.1-.6 2 0 .4.4.5.4 0zm1.1 0s0-.2-.2-.2-.3.1-.3.3c0 .1.1.2.3.2.1 0 .2 0 .2-.2zm-66.9-.3c0-.2-.2-.4-.5-.5-.4 0-.6-.4-.6-.9s0-.6-.2-.4c-.5.4.2 2.2.8 2.2.3 0 .5-.2.5-.4zm21-2c-.2-.2-2 .8-2 1.3-.4 1.1.1 1.2 1.2 0l.9-1.2zm48.2 2.1c.3-.4-.1-1.6-.5-1.6s-.6.7-.3 1.5c.2.4.6.5.8.1zm-80.7-2.3c0-1.1.3-2.6.4-3.4.7-3 .7-3.6.4-3.7-.2-.1-.4-.5-.4-.9v-.7l-.5.8c-.7 1-.7 1.2 0 1 .3 0 .5 0 .5.3s-.1.4-.3.4c-.1 0-.3.4-.4 1-.2 1.3-.6 6.8-.5 7 .4.6.6 0 .8-1.8zm83.5 1.3-.1-.8s-.2.3-.2.8c-.1.4 0 .8 0 .8.2 0 .3-.4.3-.8zm23.8-2.9c0-1.1 0-3.6.2-5.5.3-2.3.3-3.4 0-3.6-.2-.3-.2-.3-.4 3.4 0 3.5-.4 8.2-.5 8.8-.1.6-.1.6.3-.1.3-.6.4-1.4.4-3zm-37.1 2.7 2.3-1.4c.7-.3 1.6-1 2-1.3.5-.6.5-.7.2-1.4-.4-1-1-1.2-2.5-.4-1.3.8-3.5 3-3.2 3.2 0 .1.7-.2 1.3-.7 1.1-1 2.2-1.5 2.6-1 .2 0-.5.7-1.5 1.3-1 .7-2 1.5-2.2 1.8-.5.8-.3.7 1-.1zm24.6-1c0-1.2-.2-1.5-.5-1.4-.2 0-.4.3-.4.5l.1 1.5c0 .8.2 1 .4 1 .3 0 .4-.3.4-1.5zm-97.4.6c.3 0 .6-.1.6-.3 0-.4-2-.1-2 .3-.1.3 0 .3.3.2l1-.2zm-2.9-1.4c0-.6 0-1.4.2-1.7l.6-3.6c.7-5.5.8-6.3 1.2-6.9.7-1 .8-2.4.4-3.2l-.4-.7-.3 1.3-1.2 3c-.8 1.6-.8 1.7-1 7v5.6c.3.8.6.3.5-.8zm19.6-.4c.8-.9 1.3-1.6 1.2-1.7-.3-.3-2.5 1-3.9 2.2-.8.7-.6 1 .6 1 .6 0 1-.3 2.1-1.5zM8.2 35c0-.2-.2-.4-.3-.4-.2 0-.3.2-.3.4s.1.4.3.4c.1 0 .3-.2.3-.4zm93-.1c0-.2 0-.2-.3-.1-.2 0-.3.2-.3.4.2.2.7 0 .7-.3zm6.3-.8c-.3-.3-.4.2-.2.8l.2.6V35c.1-.3.1-.7 0-.8zm1.1 0c0-.4-.1-.2-.1.4 0 .6 0 .8.1.6v-1zm17.8-3-.3-2.7c-.2-.3-.5 3.5-.3 4.9.4 3.7 1 1.8.6-2.1zm-20.7 3c-.2-.4-.2-.4-.5 0-.3.6 0 1.2.4.8.1-.1.2-.5 0-.7zm.8.5c0-.3-.1-.2-.2.1 0 .3 0 .4.2.4v-.5zm-8.3.1c.6-.2.2-1.3-1.1-3.3-1.1-1.7-1.1-1.7-1-.7.1.6.4 1.4.7 1.9.3.4.5 1 .5 1.4 0 .8.3 1 .9.7zm-67.8-1.9c1.2-1 2.8-2.1 3.6-2.6.8-.5 1.4-1 1.4-1.2 0-.2 0-.6.2-1 0-.3 0-.5-.4-.7-.4 0-.5-.3-.4-.6 0-.3-.3-1.6-.8-2.8l-1.1-3c-.2-.4-.2-.4-.4.2-.2.5 0 3.7.4 5.8.1.6.2.6.5.1.3-.4.5-.4.7-.2.4.5.1 1.2-.4 1-.3 0-.4 0-.4.4 0 .3-.2.6-.4.6-.4 0-1.2-2-1.2-2.9 0-1-.4-.4-.6.7-.1 1.1-.4 1.7-1.6 3.5-.8 1.2-1.8 4.5-1.4 4.5l2.3-1.8zm1.1-3.1c-.2-.5.3-1 .7-.8.4.3.4.9-.1 1-.2.1-.5 0-.6-.2zm0 4.1c.6-.4 1.4-1 1.7-1.4l.5-.5-.8.5c-1.3.7-3.1 2.2-3 2.2l1.5-.8zm87.6.4c0-.2-.2-.4-.3-.4l-.8-.2c-.3 0-.6 0-.6.2 0 .3 1 .8 1.5.8.2 0 .3-.2.2-.4zm-17.8-.3c0-.2-.2-.4-.5-.4-.7 0-.7.5-.1.7l.5.1V34zm-95 0c-.2-.1-.3-.7-.5-1.3-.2-.9-.4-1.2-.8-1.2-.8 0-1 .7-.4 1.8.4.6.7.9 1.1.9.4 0 .6-.1.5-.2zm12.3-2.6c.4-.5.7-1 .7-1.6V29l-.7.8c-.3.4-.7 1-.8 1.4 0 .4-.4 1-.8 1.5-.4.4-.6 1-.6 1.1 0 .3.3 0 .7-.6l1.5-1.8zm82.2 1.2c0-.3 0-.6.2-.7.3-.1-.1-.9-1.4-2.6-.7-1-.8-1-1.3-.5-.4.4-.4.4.1.7.4.2.6.5.6 1-.1.3 0 .5.3.5.2 0 .4.2.4.5 0 .7.5 1.6.8 1.6.1 0 .3-.2.3-.5zm-1.8-.4c-.2-.4-.6-.6-.6-.2 0 .3.6.9.7.8V32zm21.5 0 .9-.7-1.7-1.5c-3.1-2.8-4.7-5-4.7-6.6l-.6-1.3c-.6-.7-.8-.9-1.3-.7-.5 0-.7 0-1-.5-.3-.3-.5-.5-.6-.4-.1 0 0 .3.4.6.5.5.5.5-.4 1.3-.5.5-1.1 1-1.3 1-.2 0-.4 0-.5.3-.2.4-1.5-.2-1.5-.8 0-.2-.2-.4-.4-.4a.4.4 0 0 1-.4-.4c0-.3.2-.4.6-.3.3 0 .6.3.6.5 0 .3.3.7.6.8.4 0 .1-1.5-.2-1.8-.4-.3-.4-.4 0-.6.2-.2.3-.3 0-.3-.2 0-.3-.2-.3-.4s-.2-.3-.5-.2c-.4.1-.6 0-.6-.4 0-.7-.6-1-1.2-.5-.8.6-1.6 1-1.8.8-.2-.4 1-1.6 2.5-2.3.8-.4 1.3-.8 1.1-.9-.2 0-.6 0-1 .3-.3.3-.7.4-.9.4-.3 0 0-1.2.4-1.8.2-.3.1-.3-.4 0-1 .6-1.4.6-1.2.1.2-.6-.4-.4-1.8.5-1.3.8-1.8 1.5-1.3 1.7.2 0 .5.3.8.5.4.2.4.4.2.7-.3.2-.5.2-1-.2-.7-.4-.8-.4-1 0-.4.5-2 .9-2 .4 0-.1-.2-.3-.4-.3-.1 0-.2.3-.2.7.1.6 0 .7-.7.8-.4 0-1 0-1.3-.2-.8-.4-.3.4.6 1 .6.4.9.8 1 1.7.2.6.3 1.3.2 1.4l.7.7.8.8c0 .5-.8.3-2-.6-1-.7-1.3-.8-1.7-.5-.3.2-.7.3-.8.2h-.7c-.9.3.2.6 1.5.5 1.2-.2 1.4-.1 3.3 1.3 2 1.5 2 1.5 2.5 1 .5-.4.5-.4 0-.8-1.2-.8-.2-1.6 2-1.6 1.4 0 1.5.2.5 1-.6.5-.6.7-.3 1 .4.5 0 .9-1 .9-.3 0-.9.2-1.2.5l-.6.5 1.4-.2h1.4l-.2.7c0 .4-.3 1-.5 1.2-.6.6-.5.8.2.7.3 0 .6-.3.6-.5s.6-.5 1.3-.8c1.4-.6 3.3-.7 3.3-.3 0 .2.4.3.9.3a29 29 0 0 1 7.3 2c1 .8 2.4.8 3.6 0zm-3.7-1.3c-1.4-.3-1.8-.5-1.7-.8.2-.5 3.3.3 3.2.8 0 .3-.3.3-1.5 0zm-6.7-1.3c0-.2 0-.5-.3-.6-.4-.3-.4-.4 0-.7.4-.6 1.5-.6 1.6-.1.1.2.3.2 1 0 .7-.3 1-.3 1.9.2 1.5.8 1.3 1.1-.6 1-1.1-.2-1.8 0-2.3.2-.9.4-1.5.4-1.3 0zm-5.1-.4c0-.3.4-.5 2-.7 1.2-.2 1.7.3.6.5-1.8.4-2.6.4-2.6.2zm7.8-3.5c0-.1-.5-.3-.8-.3-1 0-.8-.3.7-1.4 1-.7 1.4-1 1.6-.7.2.2.2.5 0 1-.2.4-.4 1-.3 1.2 0 .5-1 .7-1.2.2zm-8.3-1.1c-.4-.5-.4-.6.6-1.5.8-.8 1.7-1.1 1.7-.6 0 .4-1.4 2.4-1.7 2.4l-.6-.3zM99 22.1c-.7-.4-1-.8-.6-1 .2-.3 1.8.7 1.8 1.1 0 .3-.5.3-1.2 0zm1-.8c-.9-1.2-.3-2 .6-.8.5.6.7.6.7.3s.1-.5.3-.5c.4 0 .3.4-.3.9-.5.5-1 .6-1.3.1zm3.7-3.2c0-.2.2-.4.4-.4.5 0 .4.5-.1.7-.2 0-.3 0-.3-.3zm6.2 13.8c1.3-.3 1.3-.7 0-.8-1.2 0-2.5.3-2.5.7 0 .5.9.5 2.5.1zm3.1-.2c-.1-.2-.5-.3-.8-.2-.4.1-.4.2.2.4.7.3 1 .2.6-.2zm-74.3 0v-.3c-.2 0-.4.1-.5.3v.3c.2 0 .4-.2.5-.3zm-1.2-1.8c1.9-1.2 2.3-1.6 1.5-1.6-.6 0-.5-.4.5-1.2.7-.6.9-1 .8-1.3-.2-.5 0-.6 1.1-.2 1 .3 1.1.1 1.5-1.8.3-1.1 0-1-2.3.3-1.7 1-2.5 2-2.5 3 0 .2-.3.4-.6.4s-.5-.1-.5-.2c0-.5 1.7-3.6 2-3.7 1.2-.4 2.3-1 2-1.1-.6-.2-.3-1 1.4-3.5a403.5 403.5 0 0 0 2.6-3.7c.3 0 .5 2.6.2 3.2-.2.3-.8.9-1.3 1.2-1 .6-2.6 2.4-2.3 2.6.3.4 3-2 3-2.6l.6-.3c.6-.2 1.2-2 1-3-.2-.4 0-.8.2-1.2.4-.4.4-.5.1-.7-.3-.2-.3-.4 0-.9.2-.4.2-.7 0-.8-.1-.1-.3 0-.4.3-.3.6-.7.9-1.2.7-.3 0-.6.2-1 .8a3 3 0 0 1-1.1 1.2c-.5.2-.9.8-1.4 2-.5 1.1-1.3 2.4-2.2 3.4-1.1 1.3-1.4 1.8-1.4 2.6 0 .7-.2 1-.7 1.5-.5.5-.6.8-.6 2v1.3l.9-.2c1.1-.2 1.2.2.2.8a9 9 0 0 0-1.2 1l-1.2.8-.8.6c0 .2 1.4-.5 3.1-1.7zm16.7 1a8 8 0 0 0 .4-2.5c0-1.4 0-1.6-.7-2-.5-.2-.7-.2-1.2.3-.4.3-.6.8-.6 1 0 .2-.3.7-.6 1-.5.8-.7 2.2-.1 2.3l1 .4c1.3.4 1.4.4 1.8-.6zM53 29.2c-.4-.4-.4-1.2 0-1.4.3-.3.6.4.5 1.1-.1.5-.2.5-.5.3zM78 30l1.5-1.6V24c0-3.9 0-4.3-.3-3.8-.6.8-.8.3-.3-1 .4-1 .4-2.6 0-2.6-.6 0-1.2 3.6-1.1 6.6 0 3.4-.3 5.8-.7 6-.1.1-.2-.3 0-1.4a24 24 0 0 0 0-5.6l-.3-3c-.1-4.2-.5-4.1-.7.1-.2 3.2-.1 3.7.3 5 .7 1.6.7 2.8.2 2.5-.3 0-.5 0-.6.2-.2.3.1 4.7.4 4.6L78 30zm28.8 1.1c0-.3 0-.5-.3-.5l-.4.1-.2.6c-.1.3 0 .4.3.4.3-.1.5-.4.6-.6zM5 30.6c0-.4-.5-1-.9-1-.2 0-.2.9 0 1.1.3.3.9.2.9-.1zm118-.3c0-.4-.1-.8-.3-.9-.1 0-.3-1.3-.3-2.7 0-2.9-.2-4.3-.6-3.8l-.2 3.4c0 1.7 0 3-.2 3s-.4-1.6-.6-5.1l-.1 1.5c0 1.8-.2 2.8-.4 2.7l-.3-1.7c0-1.4 0-1.4-.3-.6-.4 1.4-.7 1-.7-1.3 0-1.3 0-2.1-.3-2.1-.1 0-.2.5-.2 1.3 0 1.7 0 2-.3 1.7l-.2-1.5c0-.8-.2-1.5-.3-1.6-.2-.1-.3.5-.3 1.7 0 1.6.1 2 .7 2.7.7.9 4.3 3.9 4.7 3.9l.2-.6zM22.4 30c0-.1 0-.3-.2-.3s-.3.2-.3.5c0 .2.1.3.3.2l.2-.4zm6.5-1.3a7 7 0 0 0 .7-2.1c0-.6-.1-.5-.6.5-1.4 3-1.5 4.5-.1 1.6zm-15.5.2c0-1.1 0-1.1-.2-.3-.2.4-.2.9-.2 1 .3.7.4.4.4-.7zm88.7.8-.4-.2-.4.2c0 .2.2.3.4.3s.4-.1.4-.3zm-83.2-1.7c.9-1.2 1-1.7.8-2-.2-.1-.3-.8-.3-1.5 0-1.3-.8-3-1.2-2.5-.4.4-1 5.1-.9 6.2.2 1.1.3 1.5.5 1.5 0 0 .6-.7 1.1-1.7zm104.8-1c-.3-3.4-.7-3.8-.7-.8 0 2.6 0 3.1.6 2.8.1 0 .2-.9 0-2zM23 28.3c.2-.5.2-1.2.1-1.6 0-.5 0-1.4.2-2.2.3-1.5 0-2.3-.6-1.2-.4.6-.6 5.7-.2 5.7l.5-.7zm75.4-.7c0-.1 0-.3-.2-.5-.3-.2-.5-.1-1 .3l-.5.7.8-.2.9-.3zM7 26.8c-.1-.4-.4-.7-.7-.8-.7-.3-.7.1 0 1 1 .8 1 .8.7-.2zm74.4-.3c1-1 1.2-1.4.7-1.4l-.2.4c0 .2-.1.4-.3.4 0 0-.2-.8 0-1.8 0-1 0-2.8-.2-4l-.1-2.3-.5 1.5-.6 1.7c-.2.3-.2 6.5 0 6.5l1.2-1zm-52.4-1.2c.9-2.3 1.2-5.2.6-5.2-.3 0-.4.3-.4 1 0 .5-.1 1.5-.3 2-.4 1.1-.9 4.1-.6 4.1l.7-2zm13 1c-.1-.3-.6.1-.6.4 0 .2.1.2.4 0l.3-.5zm-32.8-2c0-2.1-.4-3-1-2.1-.6.8-.6 2.9 0 3.8.6 1 1 .6 1-1.6zm87.4 2.1c.2 0 .4-.1.4-.3 0-.3-1.8-.3-2 0-.2.4.2.6.8.5l.8-.2zm-51.9-.6c1-.3 1.3-1 .5-1-.2 0-.4-.3-.5-.7-.2-.7.4-1.8 2.4-4.2 1-1.2 1.1-1.4.8-1.7-.3-.3-.4-.7-.4-1.7.1-1.7-.3-1.8-.6-.2l-.3 2.1c-.1.5-.7 1.4-1.3 2.1-1.2 1.3-2 3.4-1.7 4.2.1.2 0 .6-.1 1-.3.5 0 .6 1.2.1zM15 21.1c.3-.6.6-1.8.7-2.5l.2-1.3-.5.6c-.6.8-1.7 5-1.7 6.3 0 .6.1.5.4-.6l.9-2.5zm68.6 1.2c0-1.1 0-1.2-.4-.8l-.6.4c-.4-.1-.4-.1-.4 1.6V25l.7-.6c.5-.5.7-.9.7-2zm33.3 1.9c0-.4-.1-.7-.3-.7-.3 0-.3.9 0 1.1.2.3.3.2.3-.4zm-95.2-.3c0-.3-.2-.4-.3-.3-.2.1-.3.4-.3.6 0 .2.1.3.3.2.1 0 .3-.3.3-.5zm15-.8c0-.6.2-1.4.3-1.7.3-.6.2-.9-.5-1.6-.5-.5-1-.8-1.5-.8-.6 0-.7 0-.5.7l.5 2.1c.3 1.5.5 1.7.8 1 .2-.6.8-.4.6.2-.2.5 0 1.4.2 1.2l.2-1.1zm55.6.7c0-.3-.3-.6-.6-.4-.2.2 0 .6.3.6.2 0 .3 0 .3-.2zm2.6-.2c-.3-.4-1.8-.5-1.8-.1 0 .3.5.5 1.4.5.7 0 .7 0 .4-.4zm28.6-.4-.2-.2c-.2 0-.3 0-.3.2s.1.3.3.3c.1 0 .2-.1.2-.3zm-38.4-1.7c0-1.7-.1-1.7-.7-.2-.4 1.3-.4 1.7.2 1.7.4 0 .4-.3.5-1.5zm8 1c.9 0 1.3-.2 1.3-.5 0-.5.8-.5 1.4 0 .2.3.6.4.7.3l-.1-.3a4 4 0 0 1-1-.6c-.4-.4-.6-.5-1.3-.2-.5 0-1 .2-1.1.3-.2 0-.5.1-.7.3-.2.1-.6.2-.9.1a2 2 0 0 0-1 .3c-.4.2-.5.3-.2.5.2.2.6.2.9.1l2-.3zm-43.7-1.1c.2 0 .3-.2.3-.3 0-.3-.3-.2-1.4.6-.4.3-.7.7-.7.8 0 .2.3 0 .7-.4l1-.7zm-26-1a14 14 0 0 1 1.5-5.2c.4-.8.4-1 .1-1-.2 0-.6.7-1 1.4-.5 1.5-1.6 5.6-1.5 6.4 0 .5 0 .5.5-.1.3-.4.5-1 .4-1.5zm-15.8 1c0-.3.3-.6.5-.6s.3-.1.2-.5l-.4-2c0-.8-.3-1.3-.7-1.5l-.8-.6c-.4-.5-2-1.3-2.1-1.1-.1.1 0 .6.1 1.2.3 1 .4 1 1.4 1.2 1.3.2 1.5.7 1.3 2.2l-.2 1.7c0 .7.5.6.7 0zm103.7.1s0-.2-.2-.3c-.2 0-.3 0-.3.2 0 .1.1.2.3.2h.2zM82.8 20c0-.3-.1-.5-.3-.5-.1 0-.3.5-.2 1 0 .8 0 .9.2.5l.3-1zm3.4-.5c0-1 0-1.8-.2-1.7-.2.3-.1 3.6.1 3.6l.1-2zm2 .5v1-1zm-68.5.2c-.2-.5-.7-.5-.7 0 0 .4.6 1 .8.6l-.1-.6zm-1-2c0-.1 0-.3-.2-.3s-.3.2-.3.3c0 .1.1.3.3.3l.2-.3zm2.3-.4c.2-.6 0-1.2-.2-.9-.3.3-.4 1.6-.2 1.6.1 0 .3-.3.4-.7zm9.9-1.5c-.3-.8-.7-1.5-.8-1.5-.4 0-2.8 2.3-2.6 2.5.1 0 .7-.2 1.3-.7.5-.4 1.1-.8 1.3-.8.5 0 .3.5-.4 1-.3.2-.6.5-.6.7 0 .2 0 .2.3 0 .5-.5 1.3-.4 1.4.2.1.3.3.4.4.4.1-.1 0-.9-.3-1.8zm4.4 1.2c0-.3-.2-.7-.6-1.2a2 2 0 0 0-1.7-.7l-1 .1c0 .4 2.5 2.4 2.8 2.3.2 0 .4-.3.5-.5zm-17-.5c.5-.2.5-.2-.2-.3-.8-.1-.8-.2-1 .7-.3.6-.3.6.2.2l1-.6zm59.2-.2c-.2-.2-.3-.1-.3.2 0 .7.4 1.1.5.5 0-.2 0-.5-.2-.7zm33.1.8c-.2-.2-.4-.2-.6 0-.3.3-.2.3.3.3s.6 0 .3-.3zm-90.7-.3c.1-.3 0-.4-.2-.4-.3.2-.6.8-.2.8l.4-.4zm-9.9-.5c0-.4 0-.9.2-1.2.1-.4 0-.4-.3 0-.5.6-.6 1.8-.2 1.8.2 0 .3-.3.3-.6zm28 0c.6-.4.8-.6.6-.7-.5-.1-1-.8-1-1.3 0-.6.7-.3 1 .4.4 1 .5.8.5-.5 0-.9-.1-1.2-.7-1.6-.7-.6-1.7-.2-1.7.6 0 .2-.3.7-.6 1-.4.4-.7.8-.7 1 0 .1 1.3 1.4 1.5 1.4l1-.4zM52.6 13c.8-1.6 1-2.6.6-2.9-.3-.1-.6.5-.6 1.1 0 .2-.2.7-.5 1.1-.4.7-1 3.2-1 4.3 0 .4.1.2.4-.6l1.1-3zM22 15.8c.3.5.7.1 1-.9 0-.6 0-.7-.4-.5l-1.3.3c-.8.1-1.3.6-.6.6.1 0 .3.2.3.4 0 .4 0 .4.4.1.3-.3.4-.3.6 0zm-13-1c-.4-.3-.7-.1-.7.4s.6.6.8.2c.2-.3.2-.5 0-.7zm9.7-.8c1 0 2-1.3 1.5-2.2-.4-.6 0-2 .6-2.6.2-.2.4-.4.4-.6 0-.4-.6-.2-1 .4-.5.5-.6.6-1.1.3-.4-.3-.7-.3-1 0-.4.3-.4 1.1 0 1.4l.2-.1c0-.4 1-1 1.2-.8l-.1.7c-.2.4-.2.6 0 .6.1 0 .2.1.2.3 0 .2-.4.3-.6.3-.3 0-.5.2-.6.5-.1.9-.3 1.2-.7 1.2-.2 0-.5.4-.7.8l-.5.9h.5c.3 0 .5 0 .6.2l.1-.5c.1-.7.2-.8 1-.8zm-2.1-.7c.7-1.3.9-2.2.4-2.2-.3 0-1.3 2.2-1.3 2.9 0 .7.1.6.9-.7zm10.2.1c.3-.4.7-.7.9-.6.2 0 .4 0 .5-.3 0-.2 0-.4-.2-.4-.6 0-.5-.5.2-1 .7-.6.3-.7-.5-.2-.6.4-2 2.6-2 3.1s.5.2 1-.6zm6.9.3c0-.6.4-.7.6-.2 0 .3.2.3.4 0 .2-.1.5-.2.7-.1.7.2.4-.4-.5-1.1-1.5-1.2-2.6-1-3 .7-.2.8.2 1.2 1.2 1.2.4 0 .6-.1.6-.5zm30.3-.4c.4-1.1.3-1.3-.3-1-.5 0-1 1.3-.8 1.7.3.5.8.2 1.1-.7zm44.8.7c0-.2-.2-.3-.4-.3s-.4.1-.4.3l.4.2c.2 0 .4 0 .4-.2zm-46.4-1.3c.2-.5.3-1 .2-1.1-.3-.3-1.5 1.3-1.3 1.7.2.7.8.4 1.1-.6zm11.2-.1c0-.6 0-.6-.6 0-.8.7-.7 1.2.1.8.3-.1.5-.5.5-.8zM11 12.5s-.3.1-.5.5c-.3.5-.3.5.2.1.3-.2.4-.5.3-.6zm3.2 0c0-.5.2-1 .4-1.3.2-.3.4-.9.4-1.3s.3-1.4.7-2.2c.7-1.5.7-2 0-1.5-1.2.7-2.4 4.6-2 6.4.1 1 .5.9.5-.2zm-5-.7c-.1-.6-.1-.6-.6.2-.5 1-.3 1.4.3.8.2-.2.3-.6.3-1zm21 0-.3-.7c-.4-.6-1 0-1 1.1 0 1 0 1 .6.5.3-.2.6-.6.6-.8zm16.7-.4c.6-.2 1.6-2.2 1.3-2.5-.2-.2-.7.2-1.3 1-.5.6-1.1 1.2-1.3 1.2-.2 0-.4.2-.5.6l-.3 1c-.1.3 0 .2.7-.3.5-.5 1-.9 1.4-1zm-3.1 1c0-.3-.2-.2-.2 0 0 .4 0 .5.2.4v-.5zM72 12c.7-1.4 4-4.3 6.4-5.8a9.5 9.5 0 0 0 2.3-1.6c0-.4-2.2-.5-2.2-.2 0 .2.2.3.5.3.2 0 .3.2.3.5s-.4.5-1 .5a12.6 12.6 0 0 0-7.3 6.5c-.3 1 .5 1 1-.2zm-47.4-.2c0-.2-.2-.1-.4 0-.3.2-.4.5-.4.6 0 .2.1.2.4 0l.4-.6zm45.7-.1c.4-.5.6-1 .5-1.1-.3-.3-2.3.5-2.7 1-.6 1-.5 1 .6 1 1 0 1.1 0 1.6-.9zm-14.2-.1c0-.5-.2-.8-.2-.8l-.1.8c0 .4 0 .8.2.8.1 0 .2-.4.1-.8zm-48.3-.4c.1-.5 0-.7-.3-.7s-.4.3-.4.8c0 1 .6 1 .7 0zm14 .2c.7-1.1 2-2.2 2.3-2 .2.2.7.3 1 .4.8.2 1-.2.5-.8-.4-.4-2.3-.4-3.2 0-.9.2-1.9 1.9-1.7 2.6.3.7.5.7 1-.2zm1.3.3-.1-.4-.4.4v.4c.2 0 .4-.2.5-.4zm16.5 0c0-.2-.2-.4-.5-.4s-.5-.2-.5-.4c0-.3.2-.4.6-.3.8.1 1-.3.3-.8-.6-.6-1.7 0-2.1.9-.5 1.1-.5 1.1.5 1.2 1.6.2 1.7.2 1.7-.2zm15.3-.2c0-.2-.1-.1-.2.2 0 .3.1.4.2.3v-.5zm7-.7c0-.1.2-.4.6-.6.5-.4.5-.4.1-1a2 2 0 0 1-.5-1c0-.8-.3-.7-.7 0-.4 1-.4 1.3.2 1.3.3 0 .5.1.5.3l-.5 1c-.6.7-.7 1.3-.1.7l.4-.7zm4-1.2v-1c-.3-.3-.4-.3-.7.2-.2.3-.4.8-.4 1.1 0 .3-.1.7-.3.8-.1 0-.3.4-.3.7 0 .4.1.4.8-.3.5-.5.9-1.2 1-1.5zm-54.4.8c.3-.5.4-1 .3-1-.3-.4-1.3.7-1.3 1.3 0 1 .5.8 1-.3zm47.2 0 .4-1.5.2-.9-.8.8c-.8.7-1 1.4-.7 1.8.3.3.6.2.9-.3zm1.6-1.1c0-.6 0-.7-.3-.4-.3.6-.3 1.4 0 1.2.2 0 .3-.5.3-.8zm-27.1.2c0-.3.4-.9.8-1.3.6-.8 1.5-3 1.3-3.2-.3-.3-1.2 1-1.5 2.1-.2.7-.4 1.3-.6 1.3-.4 0-.7.6-.7 1.2s.5.5.7-.1zm52.6-.7.3-1.3c-.3-.5.3-.8 1.3-.6.8.2 1 .4 1.2 1 .3.7.4.8 1.9.8 1.2 0 1.6-.1 1.8-.6.3-.4.1-.6-1.2-1.1l-1.4-.7.6-.7a2 2 0 0 1 1.4-.6c1 0 1.2.4.3.5-.9.2-.7.7.2.7.6 0 .8-.2.8-.8.1-.8 0-.8-1.9-.7-.6 0-1.3.2-1.6.4-.8.5-1.2.5-1.2-.1 0-.5-.2-.6-1-.6s-.9.1-.8.7c.1.5 0 .7-.6 1-.5.3-1 .4-1.3.3-.7-.2-2 .6-2 1.2S83.3 9 84 9c.3 0 .5.2.6.4.3.7.6.5 1-.5zm-1.6-.5v-.7c.3-.5.7-.3.7.4s-.5 1-.7.3zM31 9.3l.3-1.8c.3-2-.2-2-1.1 0l-.8 1.8c-.2.2 1.4.2 1.6 0zm40-.8c.6-.5.9-.9.7-.9a4 4 0 0 0-1.1 1c-.5.5-.8.9-.6.9.1 0 .6-.4 1-1zm7.1.7c.1-.1 0-.3-.2-.3l-.6.3c0 .1 0 .3.3.3.2 0 .4-.2.5-.3zm-67.5-.6c.5-.6.6-1.5.2-1.5-.3 0-1 1.2-1 1.7 0 .6.2.5.8-.2zm29.2 0c.2-.2-.5-3.6-.7-3.6l-.5 1.2c-.2.7-.5 1.5-.7 1.7-.7.8-.5 1.1.8.9a8 8 0 0 0 1.1-.3zm7.8-.7c1.1-1.2 1.3-2 .3-2-.6-.2-1.5.9-1.8 2.2-.2 1.1.1 1 1.5-.2zm8.4.4c0-.2 0-.4-.2-.4l-.5.4c-.3.3-.3.4.2.4.3 0 .5-.2.5-.4zm1.3-.3s-.2 0-.3.3c-.2.4-.1.4.1.2s.3-.4.2-.5zm24.1 0c0-.4-.1-.4-1-.3-1.7.2-2 .8-.4.7.8 0 1.3-.3 1.4-.5zm-37.2-.7c-.2-.2-.3-.2-.3 0 0 .3.3.6.5.4l-.2-.4zm-1.5-.5c0-.5 0-.8-.3-.8-.4 0-.5.5-.2 1.2.2.7.5.5.5-.4zm10.8.2-.3-1.3c0-.5-.3-.7-.6-.7-.6 0-1 .4-.5.6.3.2.3 1.2 0 1.2l-.4-.2c-.2-.4-.7-.4-.7 0 0 .2 1.6 1 2.2 1 .4 0 .5-.1.3-.6zM26 6.5l1.6-1.2c1-.6.5-.7-.7-.2-1.1.5-2.6 2.3-1.9 2.3.2 0 .6-.4 1-.9zM7.4 6c-.2-.4-.6.4-.4.8.1.5.2.5.4 0 0-.3.1-.6 0-.8zm2.8.3c.1-.7 0-1.2-.5-1.2-.1 0-.2.4-.2.9 0 1 .4 1.2.7.3zm14.4-.8c0-.3-.5-.2-.8.2-.2.2-.3.5-.1.7 0 .3.2.2.5-.1l.4-.8zm13 .8c0-.3-.2-.4-.3-.4-.2 0-.3.1-.3.4 0 .2.1.4.3.4l.2-.4zm25.2 0s0-.2-.3-.3c-1.1-.4-2.7-1.2-3-1.6l-.7-.4c-.4 0-.4.1 0 .5.3.3.6.6.8.6.2 0 .8.3 1.5.8 1.3.8 1.5.9 1.7.5zm5.3.1c1.2-.2 1.1-.3-1-.4-1.5-.1-2.3 0-2.3.4 0 .3 1.8.3 3.3 0zm-47.4-.8c.7-.8.4-1-.4-.1-.3.3-.5.6-.3.6.1 0 .5-.2.7-.5zm25.8-.1c-.1-.1-.3 0-.4.3-.1.4 0 .4.2.1.2-.1.3-.4.2-.4zm49.1-.1c.4-.5 0-.8-1.1-.8-.5 0-.5 0-.3.7.3.8.9.8 1.4 0zM44.1 5c-.3-.6-.5-.7-.8-.4-.3.3.6 1.2.9 1V5zm6.6.3c.2-.5-.6-1.3-1-1-.4.2-.3 1.1 0 1.3.6.2.8.2 1-.3zm18.8 0c0-.2 0-.3-.2-.3s-.2 0-.2.2l.3.3.1-.3zm5.7-.2h1.2c.3-.1.5-.2.5-.4 0-.1-.7-.3-1.5-.3-1 0-1.6.1-1.6.3l-.6.5a62 62 0 0 1 2 0zm-57.7-.9c-.1-.2-.6.5-.6.9l.4-.2c.2-.3.3-.6.2-.7zm54.6.7c-.1-.5-1-.6-1 0 0 .2.3.3.6.3s.5-.1.4-.3zm37.8 0c-.4-.3-3.6-.6-3.6-.3 0 .5.4.6 2.1.6 1 0 1.6 0 1.5-.2zM25.6 4c0-.2-.1-.2-.2-.1-.2 0-.3.3-.3.6 0 .4 0 .4.3 0l.2-.6zm23 .1c0-.4-.9-.5-1.1-.1-.2.3 0 .5.7.5.2 0 .4-.1.4-.4zM27.8 4l.2-.4c0-.4-1.1-.2-1.3.3 0 .3 0 .3.4.2l.7-.2zM39 4c-.1-.2-.3-.4-.5-.4l-.6.3c0 .2.2.3.6.3.3 0 .6-.1.5-.3z"/>
</svg>
