<?xml version="1.0" encoding="utf-8"?>
<svg xmlns="http://www.w3.org/2000/svg" xmlns:svg="http://www.w3.org/2000/svg" version="1.1" viewBox="0 0 132 72">
  <title>A mouse, with big whiskers and a long tail curving off to the right.</title>
  <path d="M44.8 70.4a9.5 9.5 0 0 1-1.6-1.9c-.3-.6-.9-1.3-1.2-1.6-.5-.5-.6-.5-1.4 0l-1.8.6c-1.2.2-1.6-.2-1.2-1.2.3-.8.3-1.9 0-1.9l-1.1.4c-.5.2-1.9.4-3 .5-2.3.2-2.5.3-3.3 1.7-.7 1.3-1.7 1.3-2 .2-.7-2.5-1.2-2.7-4.5-1.5-2.7 1-3.2.8-3-.9l.2-1.1-1-.2c-1.1-.2-1.6-.7-1-1.2.5-.5 2.5-1.1 3.9-1.3.7-.1 1.4-.3 1.4-.5.1-.1-.5-1-1.3-1.9-.7-.8-1.9-2.6-2.5-3.8-1.1-2.3-1.2-2.3-1-4.2.4-4.2.4-7.6.2-10v-3c.2-.5.1-1-.3-1.6-.3-.6-.5-1.4-.5-2 0-1-.3-1.2-2.4-3.4a20.7 20.7 0 0 0-3.2-2.8c-.6-.5-3.7-2.7-4.7-3.2-.5-.2-1.4-.9-2-1.4-.7-.5-1.6-1-2-1l-2.5-1c-1.7-.8-2.3-1.4-1.9-2 .2-.4 2.2.2 3.6 1.1l2.8 1.5c.9.4 2.1 1.2 2.7 1.7a6 6 0 0 0 1.3 1c.2 0 .6.3 1 .7l1.7 1.4 1.3 1c1.2 1.2 2.5 2.1 3 2.1s.5 0 .4-1.3c-.2-1.5.4-4.9 1-6 2.4-4.8 2.3-4.6 2.3-6.5 0-1-.2-2.3-.3-2.7-.3-.8-.2-3.4.2-4.5L23 5.9c2.2-3 3.9-4.3 5.9-4.2 1 .1 1.4.3 1.8.8.7.9 1 3.6.5 3.4-.2-.1-.4-.3-.3-.5C31 5 30 3.5 29.3 3c-.7-.4-.9-.4-2 0-1.2.4-3.5 2.6-3.5 3.4l-.8 2a5.2 5.2 0 0 0-.8 3c.1 3.1 0 4-.2 4.4-.2.2-.2.5-.1.5.9.6.2 5-1 6.6-1.5 2-1.7 7.8-.4 9.8l.6 1.2c0 .2.3.5.6.7.5.5.5.5.7 0 .2-1 .7-.7 1.4.5a6 6 0 0 0 1.6 1.9c.7.5 1 1 1.3 1.7a9 9 0 0 0 1.5 2.5c.8.8 1.6 2 1.8 2.5l.5.9 1.7-.1c1.3 0 1.7-.2 2.6-1 1.5-1.3 1.6-1.5 1-2.6l-.6-1 .6-.9 1.9-2c1.3-1.2 1.7-2.2 1.7-4.3 0-1.3.3-1.8 1-1.4.3.2.4.6.3 1.7v1.5c.2 0 1.2-.6 2.7-1.8l1.6-1.2-.2-2-.2-5.6c0-2-.2-4.3-.4-5.3-.3-1-.4-3.2-.3-5.7V8.8L43 7.6c-1.4-2-2.1-2.5-3.5-2.7-1.1-.1-1.2 0-2.3 1-2 2.3-2.4 3-2.5 5.5 0 3.4 0 3.3-2.5 3.2-2.5 0-2.8-.4-2.2-2.2a16 16 0 0 0 1-4.6c0-.5 0-1.1.2-1.3.2-.4.3-.4.6 0s.4.9.4 1.2c0 1 .8 2.5 1.2 2.5.3 0 .4-.3.4-.5 0-.3.2-.7.5-1 .2-.4.3-.8.2-.9l.1-.4c.2-.1.2-.3.2-.4-.1-.2.5-1.1 1.3-2.1 2-2.3 3-2.8 4.5-2a13 13 0 0 1 4.6 5c.3.6.4 2.2.4 5.8 0 2.9.2 5.4.4 5.8a5 5 0 0 0 1.7 1.6c.8.5 1.7 1.3 2.2 1.8.8 1 2.5 1.6 4 1.6 1 0 2-.3 5.2-1.7l3.3-1.1 2-.5a90.4 90.4 0 0 0 4.6-1.3c2.8-.8 3.8-1 4.2-.4.4.5-.2.7-3.8 1.6A62 62 0 0 0 56 25.5c-1 .4-.7 1 .8 2 .8.6 1.5 1 1.5 1.2l.9 1.2c.8.8 1 .9 2.4.9 1.3 0 1.5 0 1.2.4-.2.2-.7.4-1.2.4-1 .2-1.1.7-.3 2.5 1.2 2.4.8 2.6-1.4.7-2.9-2.6-3.1-2.7-4.7-2.5-2 .2-4.6.9-5.7 1.4-.5.3-1.3.5-1.6.5-.7 0-1.8 1.1-1.8 1.7L45 37.4 43.5 39c-.4.6-3 2.6-3.6 2.8a9 9 0 0 0-2.1 1.7c-2.3 2.3-4.3 4-5 4.2-1.1.4-2.2-.4-2.6-2-.2-.6-.5-1.1-.6-1.1l-1.2-.8c-.5-.5-1.3-1-1.7-1-.8-.2-2.4-.8-3.6-1.4-1.4-.6-1.5-.2-1.6 3.6 0 1.8-.2 4.2-.4 5.3l-.3 2L22 54l1.7 2.7c.2.5 1 1.6 1.6 2.4 1.3 1.6 1.4 2.4.5 3-.4.3-.7.7-.7.8 0 .8 3.8.7 4.3-.1 0-.2.3-1 .3-2 .3-2.6.7-3.7 1.5-5 .8-1.2 1.6-2 2.3-2 .6 0 1.2.9 1 1.5-.1.6 0 .6 1.3.6 1.8 0 3.1.4 3.8 1.2.7.7 2 3.9 2 4.9l-.3 1.4c-.4 1-.3 1.2.7 1.4.5 0 1.4.7 2.1 1.3l1.3 1.2.2-.8.4-1c.4-.1 0-3-.4-3.5-.2-.2-.4-.6-.4-.9 0-.3.8-2 1.3-2.7.2-.1 1-1.6 1.8-3.3a31 31 0 0 1 2-3.5c.9-1 1.9-4.1 1.9-6 0-1.4-.1-2-.8-3.7a11 11 0 0 1-.9-2.9c0-.9.9-2 1.4-1.7.6.2 1.6 5.4 1.4 6.9l-.4 4.2c0 2-.3 3.1-.6 3.6-.2.3-.5 1.3-.6 2.2 0 .9-.2 1.8-.3 2.2 0 .3.1.8.6 1.4.4.4 1 1.6 1.4 2.6.7 1.6.8 1.7 1.5 1.7 1.5-.1 1.7-.1 2.2.4.8.8 1 .7 1-.2 0-.5.5-1.2 1.2-2.2A65.7 65.7 0 0 0 66 46.7c.5-1.5.1-3.7-1-5.2-.4-.7-1.2-1.6-1.6-2-1-.9-1.5-2-1.3-2.5 0-.3.3-.2.7.3l1.5 1.7c.6.5 1.5 1.6 2 2.4l1.2 1.4-.2 2c-.2 2.2 0 2.6.9 2.2.3-.2.6-.2.8 0 .4.4.7 0 1-.8l.2-1.4.2-.6-.5.5-.7 1-.1-.6c0-.4 0-1 .2-1.3L70 42a102.5 102.5 0 0 1 7.5-14.2c.5-1.2 1.1-2.2 1.2-2.3.3-.2 3-4.2 3-4.4 0-.1.5-.6 1.3-1.2l1.3-1c0-.2.3-.3.8-.3.6 0 .8-.1.8-.4 0-1 3.5-4.3 4-3.8.2.1.7 0 1.5-.3 1-.4 1-.6 1-1.1-.2-.5 0-.8.4-1.3 1.3-1.2 2-1.8 3.4-2.5L98.4 8c.4-.3 1.4-.9 2.2-1.2a32.9 32.9 0 0 1 10.6-4.6 9 9 0 0 1 2-.7l2.4-.5c1.6-.4 6-.9 8.2-.9 2 0 6.7 1 7.6 1.6.3.2.6.6.6.9 0 .8-.7 1.1-2.5 1a40.6 40.6 0 0 0-12 1l-3 .7c-1 .2-2.5.5-3.3.8l-2.7 1-2.4 1.2c-.5.4-1.3.8-1.8 1-1.5.4-5.2 2.2-6 3-.6.5-3.2 2.2-3.5 2.2l-2 1.4L92 17c-.2.5-.7 1-1 1.1-.3.1-1 .8-1.6 1.6l-2.8 3.2a27.3 27.3 0 0 0-4.2 5.7 47.6 47.6 0 0 0-6.6 11l-1.4 2.7-1.2 2.6-1.1 2.3-.8 1.6c0 .1-.4.7-1 1.3-.5.6-1 1.4-1 2-.2 1.3-2.8 6.6-3.7 7.4-1 1-.8 1.5 1 3 1.7 1.2 2 1.7 1.2 2.2-.5.4-2.8.2-3.7-.2-1-.5-1.2-.3-.6.4.2.2.4.8.4 1.2 0 .9-.8 1.1-1.9.5-1.3-.7-3.6-.9-7.4-.7L51 66l.2.7c.3 1.3-.5 1.6-3.1.9l-.8-.2V69c0 2.3-.9 2.9-2.5 1.4zm23.4-20.2c0-.7 0-.7-.6.6-.9 1.6-.8 2 0 1 .4-.4.6-1 .6-1.6zm.8-2s0-.2-.2-.2-.3.2-.3.4.1.3.3.3l.2-.5zm-29.9-9c.6-.4 1.3-1 1.5-1.4a36.7 36.7 0 0 1 1.7-2.3c0-.5-1-.1-2 .7l-1.4 1c-.4 0-1.7 2-1.5 2.3.3.4.6.4 1.7-.4zm10.6-6.8 3-1 1.7-.7c.4-.4.4-.5.1-1-.2-.3-.5-1-.5-1.5l-.2-1-1.4.1h-1.3l.3-.7c.4-1.2-.5-3-1-2.2-.1.2-.6.3-1 .3-1.1 0-1.6.5-2 2.2-.4 1.4 0 3.4.5 3.4s1-.8 1-1.4c0-.6.6-1.3 1.1-1.3.3 0 .3.1 0 .2-.1 0-.3.4-.3.8s.2.6.6.6c.6 0 .6 0 0 .2-.2 0-.6.4-.9.6-.2.3-.6.5-.7.5-.5 0-1.9 1.7-1.9 2.2 0 .7.5.6 2.9-.3zm28.9-3c0-.3-.1-.5-.3-.5-.2 0-.8 1.2-.8 1.7s1-.8 1-1.3zm2-2.4c1.8-2 1.9-3.4 0-1.5-1.2 1.4-1.6 2.1-.9 2.1.2 0 .6-.2.9-.6zM31 40.8c-.1-.4.3-1.6.7-1.9 1-.5 1.3.2.7 1.5-.3.7-1.2 1-1.4.4zM15.5 36c-.4-.4-.9-.8-1.2-.8-.2 0-1.2-.4-2.2-1l-4-2c-3.7-1.3-4.1-1.5-3.8-2 .3-.4 1.9-.2 2.7.4a25.7 25.7 0 0 1 7.4 3.6c.3.4.9.7 1.3.8 1.5.4 2.4 1.8 1.1 1.8-.4 0-.9-.3-1.3-.8zm20.2-5.5c-.4-.8-.3-1.2.4-2.2.4-.5.6-1.1.6-1.4 0-.5 0-.6.9-.6 1-.1 1.5.2 1.5 1.2.1 1.3 0 1.6-.8 2.5-1 1.1-2.1 1.3-2.6.5zm-11-1L24 29l.7-1.4c1-1.8 2.2-2.4 3.2-1.4.4.4.4.5 0 1a2 2 0 0 0-.2 1.4c.3 1.6-1.7 2.3-3 1zm12.9-14c-1.2-1-2-2.7-2-4 .1-2.2 1.3-2.5 2.6-.8.4.5 1.1 1 1.6 1.2.8.3 1 .4 1 1.3 0 2.7-1.5 3.7-3.2 2.3zM25 14.4c-1.7-2.3-1.4-3.3 1.5-4.2 2-.8 2.5-.7 2.5.2 0 2-1.6 5.3-2.6 5.3-.2 0-.8-.6-1.4-1.3z"/>
</svg>
