<?xml version="1.0" encoding="utf-8"?>
<svg xmlns="http://www.w3.org/2000/svg" xmlns:svg="http://www.w3.org/2000/svg" version="1.1" viewBox="0 0 442 239">
	<title>Pigling Bland ladles some porridge into a bowl from a cooking pot standing on a three-legged stool.</title>
	<path d="m163.4 238.3-1.7-1a13 13 0 0 1-2.8-2.1l-1.6-1.6-.6.4-2.2 1.7-2 1.5c-.5.2-2.1-.8-2.7-1.6-.3-.4-.4-1.3-.4-2.4 0-1-.1-1.8-.4-2l-3-.4-2.8-.2-1.4-.9c-1-.7-1.5-.9-2.5-.9-1.3 0-2.9-.8-2.9-1.4 0-.8.9-1 3.8-1.2 4-.1 6.5.7 5.4 1.8-.2.2 0 .3.8.3.5 0 1.4 0 2 .2l1 .1.2-1c.6-1.5 1.2-7.7 1.2-11 0-2.5-.1-3.8-.6-5.4a646 646 0 0 1-2-8.5c-.2-2-.4-2.8-1.5-5.3-.4-.8-.5-1.7-.5-3.5v-2.3l-.8-.7c-1.3-.9-2.4-1.4-3.6-1.7a55.2 55.2 0 0 1-10.1-10c0-.8-.4-1.5-1.7-3.2-1-1.4-1.8-1.8-2.2-1.1-.6 1-8.1 4.4-10.3 4.6-2 .2-3.4-1.4-1.5-1.8.6 0 1.3-.6 2-1.2l1-1.1 1 .4c.6.2 1 .3 1.3.1.6-.3 2.2-2 2.2-2.4l-1.3-1-1.9-1.1c-1-.8-1.3-.6-1.3.3 0 1.5-.3 1.6-3 1.7-1.4 0-2.6 0-2.8-.2-.5-.4-.7-2-.3-2.6a1 1 0 0 1 1-.5c.9 0 1.6-.5 1.6-1 0-1-1.6-2.3-4-3.6l-3-1.5c-1.2-.8-1.8-2.6-1.2-3.7.2-.3.4-1.4.4-2.3 0-1 .3-2.7.5-3.8l.7-4.5a73 73 0 0 1 2.3-12c.5-1.2.5-3 0-3.6a44.6 44.6 0 0 1-1.7-13.6c-.2-.1-.3-1-.3-2.2v-2l-.4.4c-.3.4-.4 1.2-.4 4.5 0 2.3 0 4.3-.2 4.5 0 .2-.4.3-1 .3l-.8-.1v3.5c0 4-.5 5.6-1.4 5.7-.7.1-.8-.7-.7-4.8a258.6 258.6 0 0 0-.1-21.2c.2-.7.2-2.7.1-5.6-.1-4 .1-9 .5-12 .2-.8.1-1-.2-1l-4.6.7a54.2 54.2 0 0 1-12.5 2.3H86v-.7c-.1-.6 0-.8.5-.9l6-1.2c.7-.1 2-.5 3-.9l3.9-1c1 0 2.3-.4 2.8-.6.4-.2 1.4-.4 2.2-.5l1.5-.2.9.8.9.7-.5 2c-.2 1-.4 2-.3 2.3.2.7 1 10.2 1 12.5 0 3.5.5 8.7 1 8.7.2 0 .3-.7.3-3.3 0-1.9-.1-3.3-.3-3.4a111.7 111.7 0 0 0 .7-16.5l.2-5.4.5-.2c.4-.2.6-.1 1.2.4l.7.7-.2 3.9a614.7 614.7 0 0 0 0 32.1c.2 1 .4 2.8.4 4.8 0 1.8 0 3.5.2 4l.2.7.6-1.1c.4-.6 1-1.5 1.5-1.8a16 16 0 0 0 3.4-3.9 213 213 0 0 1 2.4-9.5l1-4.1c.7-2.8 1.1-4.8 1.6-7.6a17.7 17.7 0 0 1 3.3-7.9l.8-1.4c.6-.8.8-1.5.8-2.3 0-1.3.8-3.8 2-5.8a245.2 245.2 0 0 0 3.7-6.9 7 7 0 0 0 1.4-1.5l1.5-1.9.4-.4-.4-.3c-.6-.5-.5-1 .2-1.4.5-.2.8-.6 1-1.7.2-.7.4-1.5.6-1.5l.2-.6a43 43 0 0 1 5.6-8c2.2-2.6 2.8-4.1 3.3-7.7.2-1.4.6-2.6 1.7-4.9.6-1.1 1-2.2 1-2.4 0-.2.4-.7.8-1.2s1.2-2 1.7-3.1c.6-1.3 1.5-3 2-3.7.7-.8 1.3-1.8 1.4-2.2.2-.4 1-1.3 2-2 1.9-1.6 4.2-4 4.4-4.7.2-.5 1.1-1.3 3.6-3l2.2-1.6a5 5 0 0 1 1.8-1l2.4-.9 2-.9c.5 0 1.3-.5 2-1 .8-.5 1.8-.9 2.9-1l3.3-.8a58.6 58.6 0 0 1 10.1-2.2c3-.7 3.5-.7 4.4-.3 1.5.7 1.5 1.7.2 3.8a25 25 0 0 0-1 2.1c-.9 2-.8 2.3 1.2 3l1.5.6H212l2.2-.5c1.2-.3 2.3-.7 2.3-1 0 0 .6-.5 1.2-.7.5-.3 1-.8 1.1-1 .1-.3.7-.8 1.3-1 .8-.4 1.3-1 2-1.9l1.7-2.3 1-1 1.4.1c2.1.3 2.8 1.3 3.4 5 .4 2.7-.6 7-2.2 9.9-.6 1-1 2.1-1 2.5a6 6 0 0 1-1.3 2.8c-.2 0-.8 1-1.4 2-1.1 2-4.5 5.6-6 6.6-1.2.8-1.7 2.6-1.5 5.2.3 3 .2 5.3-.3 7.5-.5 2.3-1.7 6-2.6 8-1 2-1.5 3.9-1.7 5.2l-.6 2.2c-.4 1.6-.1 3.1.8 3.7.4.2 1 .8 1.2 1.3.3.8.7 1 1.8 1.4 3.3 1 3.5 1.4 3.8 4.3.2 2-.1 3-1.4 4.4-.3.5-1 1.3-1.3 2l-1.2 1.6c-.3.3-.5.6-.5.8 0 .2.1.2.4-.1l1-.6c.3 0 .9-.4 1.3-.6.3-.3 1-.6 1.7-.8l1.3-.6c.3-.3 1.4-.3 1.6 0 .2.4 1.2.4 2 0a109.4 109.4 0 0 1 5.7-3.2c.6-.4 1.7-.9 2.4-1l1.8-.5c.3-.2 2.2-.6 4.2-1 4-.7 6-.7 8 .2 1.7 1 2 1.2 2 2.8 0 .8.2 1.9.5 2.5a24 24 0 0 1 1.4 13.2 25.5 25.5 0 0 1-1.3 5.4c-.3 1.3-1.3 3.7-2.1 5.7-1 2 1.2 1.7 3.8-.6l1.9-1.6c.7-.6 1.5-1.6 2.5-3l1.6-2a142.6 142.6 0 0 0 11-15.3c3.4-5.1 4-5.8 5-6.2 1-.5 1.3-.8.7-1.4-.2-.2-.2-2.1-.2-6.3 0-3.3 0-7.5-.2-9.2a621.3 621.3 0 0 1-1.6-30.3c-.2-3.7-.4-7.6-.6-8.7-.5-3.7-.7-18.1-.4-20 .2-1 1-1.5 1.6-1 .3.4.8 9.8 1.1 21a413.1 413.1 0 0 0 .5 13 96.2 96.2 0 0 1 .6 10.9l.3 12.2c.2 8 .2 16.3 0 17.5l-.2 1.1 1.1-.1h2.2c1 .4 2.8 1.7 2.8 2.2l-2.5.3c-2.6 0-4.2.5-4.4 1.4 0 .3.3.9.6 1.4.6.7.9.9 1.7.9 1.3 0 3-1 3.7-2.2.4-.6.8-.9 1-.8 1 .4-.4 4.6-2 6l-2.9 3.3a646.2 646.2 0 0 1-6.5 8.1l-1.6 1.4.7 1.1c.7 1.3.6 2.8-.3 4.6-1.3 2.6-2.9 3.5-5.5 3.3l-1.7-.2-.6 1.2-.6 1.1.6.6.6.6v3.9l.1 5.2a163.4 163.4 0 0 1-1 14.4l-.3 3c-.3 2.3-.1 4.2.5 4.8.3.3.5.8.5 1.2 0 1 .6 1.7 1.8 2 .7.3 1.5.9 2.5 2l1.5 1.5v1.1c0 1.6-1 4-1.9 4.5-.4.3-1 .7-1.1 1-.3.3-.6.6-.8.6l-2 .5a53.9 53.9 0 0 1-17.8 2.6c-2 0-2.6 0-2.8.3-.3.4.2 2.3.9 3.2l.4 1 .4 1.2c.2.4.4 1.3.4 1.9v1.1l1.2 1c1 1 1.2 1.4 1.3 2.4 0 .8.3 2 .5 2.7.3.7.7 2.5 1.1 4 .7 2.7 2 6 4 10.1 1.7 3.8 3.3 8.6 3.3 10.1 0 1.1.9 4.7 1.4 5.6l.6 2.7c.2 1.1.6 2.4.9 2.7.2.4.6 1.6.8 2.7.1 1.1.5 2.8.8 3.7l.6 1.8-.3 1.5c-.4 2.1-1.1 2.8-2.8 2.8-.7 0-1.7-.2-2.1-.4l-2.1-.5c-1.4 0-2.9-1.1-2.9-2 0-.2-.1-.3-.4-.1-1 .4-1.5.4-3 0-1-.2-1.8-.5-2.3-1l-.7-.7h-3.5c-2 0-3.8-.2-4.1-.3l-1.8-.5c-.9-.3-1.2-.5-1.4-1l-.3-.8h-2.9a16 16 0 0 1-3.6-.4c-1-.4-1.1-1.3-.3-1.5.5-.1.6-.3.4-.9-.3-1.5-.1-1.5 3.6-1.5a22 22 0 0 0 4-.3c1-.3 4.4 0 4.9.5l.4.4-.6.5-1 .5c-.3 0-.3 0 0 .3.2.4.8.4 3 .3 2.8-.2 3.6 0 3.6.9 0 .5-1.1.8-3.7 1l-2.3.2 1.7.2 4.7.4 3 .2v-.5l-.7-2.5-.6-2.5c0-.3-.3-.9-.5-1.3-.3-.5-.7-1.8-1-3a27.7 27.7 0 0 0-1.5-5.4c-.4-1-.6-.8-1 1-.1.7-.4 1.5-.6 1.6l-2.1 1c-1.5.6-2 .7-2.5.4a6 6 0 0 0-2-.3c-1.5 0-2.2-.7-2.4-2.5a18 18 0 0 0-.7-2.6l-.6-2.4a554.7 554.7 0 0 0-2.6-13.4 19.5 19.5 0 0 0-1-6.4c0-.2-.2-.5-.4-.5-.4 0-1 1.5-1 2.5 0 .4 0 1-.2 1.3a28 28 0 0 0-.7 2.2l-.8 2.4c-.8 1.8-2 5.2-2.6 8-.4 1.6-1.8 5.2-2.4 6.5-.6 1-.5 1.3.5 2.2.5.5 1 1 1 1.4 0 1.4-1.7 3-3.3 3-.5 0-.8.1-1.1.7-.5 1-.5 1.3 0 1.4.4 0 .3.1-.2.2-.7 0-.7 0-3.5 6.2-1.5 3.3-1.7 4.1-1.1 4.1.2 0 .4.2.4.4s-.2.4-.6.4c-.8 0-1.1.4-1.7 1.9l-1.5 2.8-1 1.6-2.4.2-2.5.2-1.6-.8c-1.6-.9-2-1.2-2-2.4 0-.3-.1-1-.4-1.5-.6-1.2-.6-1.5 1-3 1.2-1.3 1.8-2.5 4.3-8.7a91.2 91.2 0 0 1 3.1-7.3l.6-1.7c.3-.7.5-1.8.5-2.6a23 23 0 0 1 1.8-6.6l.5-1.3a47.7 47.7 0 0 1 2.4-7.6c0-.3.3-1 .6-1.3.5-.7.8-1.7 1.5-4.4l1-2.4.8-2.7c0-.5.3-1.4.7-1.9.3-.5 1-1.8 1.4-2.9l1.4-3.4c.7-1.7.7-2.3.1-2.5-.8-.2-5.5 0-6 .3-.4.2-.7.7-1 2-.3 2-2.8 8.1-3.5 8.7-.2.1-.5.9-.7 1.7a6.6 6.6 0 0 1-1.7 3c-2.2 2.6-3.3 3.7-3.8 3.7-.3 0-.6.2-.8.4-.2.2-.7.6-1.2.8l-2 1.4c-.8.7-1.4 1.1-1.9 1.1-1 0-4.2 1.6-6.2 3-.8.7-1.7 1.2-1.8 1.2-.4 0-2.5 3.2-2.9 4.4-.2.6-.5 3.2-.7 6-.6 8.4.3 13.7 2.7 15.7.4.4 1 .7 1.3.7.2 0 1.1.6 2 1.4.9.8 1.7 1.5 1.9 1.5.4 0 2 1.5 2 2 0 .2-.5.8-1 1.3l-.7 1h-1.3c-1.5 0-2.4.5-2.4 1.6 0 1-.9 1.8-1.9 1.8a5 5 0 0 1-2-.7c-.9-.6-1.7-.8-3.5-1-2.5-.2-2.8-.2-4.7-1.4-1.3-.9-1.6-1.4-1.6-2.7 0-.7-.2-.7-1-.2-.7.6-5.5.6-6 0-.3-.3-.4-.5-.4-.7 0-.4 1.4-3 1.7-3l2.5-.2h2.2v-.9c-.2-1.1-.5-1.4-1.6-1.2-.6 0-1 0-1.6-.3-1-.8-1.4-2-1.4-4.9 0-1.4 0-3.8-.2-5.3a113 113 0 0 1-.4-7.5c-.1-3.9-.2-5-.6-5.7-.7-1.3-1.3-1.6-1.9-1l-.5.4V223.7l.5.7c.4.5.5 1.2.4 3.5 0 1.6.1 3.2.3 3.6.1.4.3 1.4.2 2.2l.2 1.7c.2.4-.4 2.3-.9 2.8-.7.7-1.7.7-2.4.1zm-1-6.6c.7-.3.8-.5 1.1-2 .2-1-.1-1.7-.9-1.7l-1-.5-.4-.5.3-3.4c.2-1.8.4-3.5.6-3.6.4-.6.5-3 .2-4.5-.2-1-.3-2.3-.2-3.7a25 25 0 0 0-.7-9.6c-1-2.8-1-3-2.4-3.6-.7-.3-1.4-.9-1.6-1.2l-.4-.6.9-.8c1.2-1.1 2-1.3 2.8-.4l1 .7c1 0 3.6-3.2 3.6-4.4 0-.3.2-1 .5-1.6l.6-1.1-.5-.6c-.6-1-.5-2 .4-2.9 1-1 2.4-4 2.7-5.6.2-.6.3-3.2.4-5.7l.1-4.6-.6-1.5-1-2.2c-.3-.4-.5-.9-.5-1.1 0-.3-.1-.5-.3-.6-.4-.2-.3-1.3 0-1.7.6-.5 1.5-.3 2 .3.6.7 2 4 2.6 6.3l.7 2.4c.4 1.2.4 3.2 0 8.2-.1 2.9-.3 4.4-.6 4.8l-.7 1.6c-.2.5-.4 1-.6 1-.1 0-.2.2-.2.5s-.1.6-.3.7l-.2.7a8 8 0 0 1-1 2.2l-.9 2c0 .2.6.9 1.2 1.6 1.6 1.8 2 2.8 2.8 5.5a10 10 0 0 1-.2 6.3c-.5 1.3-.4 4.8.2 7.3l.4 1.6 1.2.1c1.5.1 1.9.5 1.8 1.5 0 .5 0 1 .2 1.2.9 1.1 1.5 3.3 1.8 6.1.3 3.4.9 4.4 2.6 4.7 1.2.2 1.5-.4.7-1.6-.8-1.3-.7-2.1.3-3l.8-.8-.4-1.8c-.3-1-.6-2.6-.7-3.6-.2-1.4-.4-1.8-1-2.4l-1-.7.4-.9c.2-.6.2-2 .1-4.3-.2-4.4-.2-5.2 0-7.3l.2-1.7-1.2-.4c-1-.3-1.3-.5-1.4-1-.1-1 .4-1.3 2-1.5 1.8-.2 3-1 3.6-2.3.5-.8.3-1-1-1.7l-1-.5v-1.9h1l2.7.3a24 24 0 0 0 11.7-3.5c2.7-1.4 6.6-5 6.6-6.2a5 5 0 0 1 1-2l.9-1.5.5-1.5c1.6-3.3 1.7-4.5.5-5.7l-.8-1c0-.7-1-1.4-2.5-1.7l-1.5-.4-1.7-1.7-2.5-2.6-.8-.9.2-1.6.2-1.6 1-.7a41.5 41.5 0 0 1 3.4-2.2c.5-.3 1.4-.5 2-.5.6 0 1.5-.3 2.2-.6.6-.3 1.4-.5 1.6-.5.7 0 .7-1 .2-2.7-.2-.6-.5-1.7-.5-2.3-.1-.6-.3-1.3-.5-1.4-.5-.3-3.6 0-5.4.3-1.9.5-4.3.4-7.2 0-2.6-.5-3.1-.7-3.4-1.6-.2-.5-1.4-1-2-.9-.2 0-.5.4-.7.7-.1.4-.8 1-1.5 1.3-1 .5-1.3.5-2.3.3h-1.8a5 5 0 0 1-3.6-.3 18 18 0 0 0-4.7-1.3c-.3 0-1-.3-1.5-.6-.6-.4-1.4-.6-2.8-.7-1.6 0-2.2-.2-4.3-1.3-2-1-2.4-1.3-2.4-1.8 0-.4-.3-.8-.8-1.2-.4-.3-.9-.9-1-1.3-.3-.4-.7-.9-1.2-1l-.7-.6c0-.3-2.4-1.3-3.1-1.3-.4 0-1.2.2-1.8.5-1.3.7-2 .7-2.7 0-.5-.5-.6-.5-2.4.3a4 4 0 0 1-2.5.3c-.7 0-1.3-.3-1.3-.4 0-.5-3.4 0-4 .5-.4.3-.9.4-2.2.4H136l-1.4 1.3c-.8.7-1.5 1.3-1.7 1.3-.5 0-.3 1.3.2 1.4.4 0 .6.4.6.7 0 .4-.2.6-.8.6-.4 0-.9-.2-1-.4-.2-.4-.3-.2-.7.5-.2.5-.8 1.3-1.2 1.6-1 .8-1.7 2.8-1.6 4.7l-.1 6c-.2 3.9-.2 4.8.2 6l.4 2.5c0 1.2.4 2.1 1.8 3.8.5.7.9 1.5.9 1.8 0 .4.3.9.7 1.2.5.4.7.7.6 1.3 0 1.2 1.8 3.6 6.2 8 1.3 1.3 3.1 2.7 4 3.1l1.9 1.2c.4.3 1.4 1 2.2 1.3.8.4 1.8 1 2.1 1.4l2 1.4c2.3 1 2.5 2.8.6 3.6l-.8.4.6.1a6 6 0 0 1 1.8 1.2l1.1 1-.3.6c-.2.5-.5.6-2 .6-1 0-1.7 0-1.7.3l.7 1.1c.5.7.7 1.3.7 2 0 .8.3 1.9.8 3l.8 2v2.7c.1 2.4.3 3.1 1.1 5.5.7 2.2 1 3.2 1 4.6v1.9l-.7.5c-1 .8-1.1 2-1.3 6.3-.2 4.4-.1 4.6 1.4 3 1.4-1.5 2-1.6 3.6-.6a8 8 0 0 1 1.6 1c.1.3.8.6 1.3.8l.8-.3zm14.9-34.3c-.7-.1-2.8-1.8-2.8-2.3l.5-1c.6-.6 1.6-.5 2.6.6.4.4 1 .9 1.5 1.1 1.6 1 .4 2-1.8 1.6zm-4.6-.5-.3-.6c0-.6 1-.7 1.2-.2.1.5-.4 1-.9.8zm6.2-7.2c-.3-.5.5-1.6 1.7-2.5.7-.5 1.9-1.6 2.6-2.5a12 12 0 0 1 2-2l.7-.4.4.4c.6.6 0 1.8-2 3.8-2.5 2.6-4.9 4-5.4 3.2zm6.4-1c-.3-.3-.2-.6 1-1.6 2.8-2.6 6-6.4 7-8.3a25 25 0 0 0 1.5-4.9c.2-.9.3-1 .9-1h.7v1.8c-.1 3.3-1.8 6.4-5.3 10.1-3.1 3.4-5 4.6-5.8 3.9zm4-9c-.2-.4 0-1 .5-1.7.4-.6 1-2 1.3-3 .5-2 1.2-2.7 1.7-2 .4.7 0 2.2-1 4.6-1 2-1.5 2.5-2.2 2.5-.1 0-.3-.2-.4-.5zM153 173c-2.8-.2-5.9-1.3-6.2-2.1-.2-.7.2-1.7.9-2.1.6-.4.8-.4 1.9-.1.7.2 1.6.5 2 .8l2.2.9c1.4.5 2.2 1.2 2.2 1.8 0 .5-.8 1-1.5 1l-1.5-.2zm-8.5-3.7c-.3-.3-.3-.5-.2-.7.4-.4 1.1 0 1.1.4 0 .7-.4.8-.9.3zm-.3-2.8a4 4 0 0 1-1.2-.7c-.5-.5.1-1.5 1.4-2.3 1-.7 1.3-.8 2.7-.7.9 0 1.9-.1 2.5-.3a5 5 0 0 1 3-.3c.8.3.6 1.8-.2 2.7-1.4 1.5-6 2.4-8.2 1.6zm21.8-6.7c-1-.6-.9-1.3.4-1.4.7 0 1 0 1.2.5.7 1.2-.2 1.6-1.6.9zm31.5-6.5a1 1 0 0 1-.4-1c0-.6.2-.7 1-.8 1.2 0 2.1.8 1.7 1.5-.4.6-1.7.7-2.3.3zm-30.5-3.7v-.6c.4-.3 1.3-.1 1.3.4 0 .4-1 .6-1.3.2zm-25.8-2.6c-1.3-.6-1.4-.8-.8-1.5l.5-.6-.4-.3-.4-.7-.4-1.2c-.6-1.1 0-1.9 1.4-1.8l1 .1v1.1c0 .7.2 1.3.5 1.7.3.3.4.7.4.8-.1.2 0 .7.4 1 .4.5.5.7.3 1-.4.6-1.6.7-2.5.4zm-6.2-2.5c-.6-.5-.6-1 0-1.6.3-.2.7-1 .9-1.5l.3-1h.9c.7 0 1 0 1 .5 0 .4-.3.6-.6.7-.5.1-.5.3-.4.7.4 1.3.4 1.8.1 2.2-.4.4-1.5.5-2.2 0zm11.4.2-.2-1c0-.9 1-1.2 2.1-.7.7.3.8.5.8 1l-.1.7-1.2.1-1.4-.1zm-2.8-4.2c0-.8.3-1.2 1-1.2 1.3 0 1 1-.4 1.4-.5.2-.6.1-.6-.2zm60 88.3c.8-.8 2.1-3.1 2.1-3.7l.7-1.4.7-1.6a59.7 59.7 0 0 0 3-7.1l2.1-5.3a57.9 57.9 0 0 0 3-8.4 112 112 0 0 0 1.9-5.5l.8-2.3a87.6 87.6 0 0 1 3.2-9c1.4-3.2 1.6-3.7 2.1-5.7.3-1.3 1-2.7 1.6-3.7a6 6 0 0 0 1.2-3.2c.2-1.4.1-1.6-.2-1.6-.3 0-.5 0-.5.2l-1 .6-1.1.3.4.4c.6.7.5 1.1-.5 2-1.4 1.4-1.9 2.2-1.8 3 0 .6-.3 1-1.6 2-.6.4-.7.7-.7 1.5 0 .5-.4 1.6-.8 2.5a7 7 0 0 0-.8 2.3c0 .9-.4 1.6-1 2.4-.8.8-1 1.8-.5 2.2.7.7.5 1.4-.6 2.1-1.2.7-1.5 1.6-1 3.1.3 1.3.1 1.8-1 2.2-1.6.7-2.3 2.7-1.1 3.5 1.4 1 .9 2.5-1 2.5-1 0-1.3.3-.8 1.3.4.7.3 1.8-.1 1.8l-.7.4-.4.3.5 1c.3.6.5 1.3.5 1.6 0 .5-1 1.2-1.7 1.2s-1 .5-1.8 3c-.4 1-1 2.8-1.6 4a32.3 32.3 0 0 0-2.5 7.3c0 .6-.3 1.2-.8 1.8-1 1.1-1.1 2.6-.2 3 .7.2 1.1 0 2-1zm-17.2-.6c0-.3-1.3-1.3-1.7-1.3-.3 0-.3.2.1.8.6.7 1.6 1 1.6.5zm66.6-3.5a15.6 15.6 0 0 0-1.2-5.3l-.3-1.5a57 57 0 0 0-2.6-10c-.4-2.2-.8-3.4-1.2-4.2a4 4 0 0 1-.4-1.5 8 8 0 0 0-.8-2.4 12 12 0 0 1-.8-1.8l-1-2.4a32.1 32.1 0 0 1-2.2-5l-.2-.2c-.2 0-.3-.3-.3-.5 0-.3-.4-1-.8-1.7l-.8-1.5-.5-1.3a34 34 0 0 1-1.1-2.6c-.8-2.2-1-2.3-2.2-1.7l-1 .5.6.3c1.6.6 1.6 1.9 0 2.4l-.8.6c0 .4.7.9 1.6 1.1 2 .4 2.3 1.2 1 2.5-.9 1-.8 1.4.3 1.9 1 .4 1.2 1.2.7 3l-.3 1.3.5.3c1.2.7 1.5 1.2 1.3 2.2l-.1 1 1.6 1.7c1 1 1.6 1.9 1.6 2.2 0 .4.3.9.6 1.2.8.6.9 1.5.3 2.1-.3.4-.3.6.1 1.5.3.6.6 1.5.6 2 0 .6.2 1.4.6 2 .5.7.7 1.3.7 2.4a5 5 0 0 0 .8 2.9l.9 1.5-.3.8c-.3.6-.3 1.2 0 2.5l.3 1.6 1.4 1.5c1.5 1.5 2.5 2.2 3.2 2.2.3 0 .3-.3.2-1.6zm-10.5-31.6h.5c0 .1 0 .2-.4.2-.3 0-.3-.1-.1-.2zm-5.6 15.2c0-.5 0-1.8-.3-2.9-.3-1.5-.3-2.2-.1-3 .4-1.5.3-2.7-.3-4.5l-1-3.2c-.6-3-1-3.5-1.8-2.2l-.4.7.4.3c.5.5.5 1-.1 1.7l-.5.6.6.8c.6.6.7 1 .5 2l-.2 2.2c-.2 1.5-.3 1.7-1 1.7-1 0-1.4-.6-1.2-2.2.4-2.3.4-2.4-.3-2.5h-.6l.1 1c.2 2 .6 3.8 1.2 6 .5 1.8.7 2.3 1.8 3.3 1 1.1 1.4 1.3 2.2 1.2h1zm-6.6-13c-.1-.2-.2-.1-.2.2 0 .3 0 .4.1.3v-.5zm3.2-5.1c0-.3 0-.4-.2-.2l-.4.4c-.1.1 0 .2.2.2s.4-.2.4-.4zm-1-2.9v-.6l-.7.3-.9.6c-.3.3-.2.4.7.4h1zm-.8-2.8a.9.9 0 0 0-.8 0c-.2 0-.3.2 0 .3.2.1.5.2.7 0 .3 0 .3-.1 0-.3zm-1.7-4.9c-.2-.3-.3-.3-.5 0-.2.4 0 .7.5.5.3 0 .3-.2 0-.5zm6.7-1.8-.2-1-.9-2.3c-.5-1.8-.7-2-1-1.7-.2.3-.3.6-.1 1.1l.3 2.8v2h1.9zm-9.8-11.5c13.6-.4 15-.5 15-1 0-.2 0-.3-.2-.3l-7.6-.2c-6.5 0-12.2.1-18.3.7-2.2.1-3.1.5-2.8 1 .2.3.8.3 2.4.2l11.5-.4zm-19-1.7.2-.7-1-.2c-1.9-.6-5-.2-5 .6 0 .4 2 .8 2.6.6h1.3c1.4.4 1.5.4 1.8-.3zm45.8-.3c1 0 2-.2 2.1-.3.2-.2.8-.4 1.4-.6 1.7-.5 3.3-1.4 3.3-1.8 0-.3-.2-.3-.6-.2l-1.9.4a31.7 31.7 0 0 0-8.4 2.7h.9l3.2-.2zm-138-3.4c0-1.4.5-1.8 2-1.7h1.1v-2c0-1.7.2-2.5.7-3.7l.7-1.6 1.6-.1c1.8-.1 1.7 0 3.1-2.3.4-.5 1-2.2 1.5-3.6a12.8 12.8 0 0 1 2-4.4c0-.3 1.2-1.7 2.6-3l2.7-3c.2-.3 1.2-.9 2.4-1.3l3.1-1.2c.6-.2 1.8-.5 2.8-.6l2.9-.5a24 24 0 0 1 4.4-.4c1.7 0 3.4-.2 3.6-.3.4-.2.8-.2 1.2 0l2.4-.2 1.8-.4 1.8.4 3.3 1c.8.2 2 .4 3.1.4 1.4 0 2 .2 2.7.6.8.4 1 .5 1.7.2l1.3-1c.2-.5.7-.9 1-1 1.5-.4 2.4-1.8 3-4.3a28.3 28.3 0 0 0 0-14l-.4-1.4-2.8.2c-2 .1-3.1.3-3.8.6-1.3.7-2.3.7-4 0-1-.5-2-.6-4.2-.7h-2.8l-1.3-.8-1.6-.9-1.6-.6a6 6 0 0 0-1.7-.7c-.2 0-1.2-.4-2.2-1-1.2-.5-2.5-1-3.5-1-1.1-.2-1.9-.5-2.3-.9-.3-.3-.7-.5-.9-.5-.3 0-.9 1.2-.9 2l-.3 2.2a22 22 0 0 0-.5 3.2c-.1 1.4-.3 1.7-.8 2-.7.6-.8.7-1.8 2.3-1 1.4-3.4 4-4.4 4.4l-2 1.2c-4 2.2-6.1 3.3-6.9 3.3-1 0-2 .7-3.4 2.2l-1.3 1.8c0 .4-1.6 2-2 2-.6 0-2 2-2 2.8 0 .5-.2 1.2-.4 1.6-.4.4-.6 1.2-.7 2.4 0 1-.3 2.3-.6 2.8-.6 1.1-.6 2 0 3.5l.5 1.2-.8 1.3c-.6.9-.8 1.5-.7 1.9.2.8-.8 2.8-2 4-1 1-1.1 1.2-1 1.8.2.4.3 1.5.4 2.3l.2 1.6 1.2.4a3 3 0 0 1 1.8 1.5l.9 1.2.2-1.2zm49.7-33-.6-.9v-1.8l.1-1.9.9-.7c1-.9 1.3-1 2.2-.2.4.3 1 .5 1.7.5 1.3 0 2.7.5 3.2 1 .5.6.4 1.9-.2 2l-1.5.7c-.6.3-1.7.5-2.3.5-1.9 0-2.2.2-2.1 1.1.2 1.1-.6 1-1.4-.2zm8-1.6.2-.2.1.2c0 .2-.1.3-.3.3-.1 0-.2-.1 0-.3zm-5.7-7.5c-1-.4-1.2-.8-1.2-1.8 0-.4 0-1-.2-1.3-.4-.7.3-1.7 1.2-2 .7-.1 1.7.3 1.7.9 0 .4 1 .7 1.9.5 1-.3 2.1.4 2.1 1.4 0 1-.2 1.1-1.8 2-1.6.8-2.4.8-3.7.3zM123 158c0-1.3 0-2.2-.2-2-.2 0-.2 1-.2 2 .1 2.3.1 2.3.3 2.3l.1-2.3zm105.7 1.9.8-.4.7.4c.5.6 2.2.5 3.6-.2 1-.4 1.5-.5 3-.3.8 0 1.9.3 2.3.4.6.3 3.6 0 7.3-1l2.2-.4c.5 0 1.3-.3 2-.7.6-.4 1.4-.9 1.8-1l1.5-1.4c1-1.2 1.4-4 1.2-8.5-.2-2.7.4-8.4 1-10 .3-1 .4-2 .4-4.5 0-3.6-.6-8-1.2-8.6-.2-.2-1 0-3.5.8a42 42 0 0 1-5.9 2c-.3.2-1.7.3-5.9.4l-8.2.2a80.9 80.9 0 0 1-18-1c-1-.6-1.6-.7-3.5-.7H208l-.3.7c-.8 1.7-.8 4.3 0 4.3.5 0 1 .7 1 1.4 0 .4.3.6.6.7l1 .3c1.4.5 8.2 1 14.2 1 4-.1 4.8 0 5.1.2.2.3.2.5 0 .9-.5.8-2 1-9.6.8h-7.6c-1 .8.3 1.5 3.3 1.8 1 0 2.6.3 3.5.5a7 7 0 0 0 3.2.1l3.6-.3c1.1 0 2.8-.1 3.7-.3 2.6-.4 4.2-.3 4.8.3.3.4.4.7.2 1.2l-.3.6-2.9.3c-2 .2-5.1.3-9.8.2-6.4-.1-8.7 0-6.2.5a7 7 0 0 1 1.7.5l1.6.4a27.5 27.5 0 0 0 5.4.8c2.9.2 6.7 0 14.5-.7l1.4-.1.3.7c.3.5.3.7 0 1-.4.4-5.3 1.1-12.8 1.8-2.9.2-9.2 1-9.4 1-.4.1 2.4.8 4.7 1 2.4.4 6.4.3 12.1 0 2-.2 2.2-.2 2.4.2.5 1.2-1.6 1.7-9.4 1.9-6.5.2-12.4-.7-13.6-2-1-1.3-.4-2.3 1.7-3l1.8-.5.7-.2h-.7c-.6 0-3-1-6-2.2-1.2-.5-1.9-1.2-1.7-1.8 0-.3-.1-.8-.4-1.1-.8-.9-1.1-1.7-1.1-2.6v-.8h-.8c-.4 0-.8.2-1 .4l.6 4.2.6 4.7c0 .5.4 1.8.8 2.7.5 1 .8 2.2.8 2.7 0 1 .4 1.8 1.5 2.9.4.4.6 1 .6 1.4 0 1.5 2 1.7 2.3.3.2-.8 1.1-1.6 2-1.6.5 0 .8.7.5 1.5-.5 1.3.7 1.5 10.1 1.6 4.7 0 7.8.2 8 .3.3.4 0 1.3-.6 1.7l-5.4.4c-6 .2-6.7.2-8 0-1.1-.3-2.6 0-2 .4.3 0 1 .4 1.6.6 1 .3 2 .5 5.8 1 1.5.2 2.1.2 2.5-.2zm-6.6-6.8c-1 0-2.3-.3-2.8-.5l-2-.2c-1 0-1.4-.2-2.3-1-.7-.8-1-1.3-1-2s0-.9.5-1c.4 0 .9.2 1.2.5 1.2 1.1 4.3 1.9 8.8 2.2 5.2.4 6 .4 9 0l2.4-.1.2.4c.2.6 0 1.2-.7 1.4-3 .6-8.9.8-13.3.3zm-8.7-21.1-1.2-.3c-1.5 0-3-1.2-2.5-1.9.4-.3 1-.3 3.2 0 1 .3 2.8.5 4 .6 2.4.1 3 .6 2.3 1.3-.5.5-5 .7-5.8.3zM198 146.7a92 92 0 0 1 3-1.7c1-.6 2-1.4 2.3-1.8.9-1.3.2-3.5-1.1-3.5-.7 0-1.3.2-3.7 1.5l-1.5.6-2.4.6c-2 .8-2.6.6-2.6-.5 0-.8.8-1.3 2.8-1.7 1.4-.3 2.7-.9 5.2-2.4 1.5-.9 3.2-4.6 2.4-5.1-.3-.2-.7 0-1.4 1-.3.5-1.3 1.4-2.3 2-1.4.9-1.8 1-2.2.9l-.5-.7c0-.2 1.2-1.6 2.8-3.1 1.5-1.5 3-3.2 3.2-3.8.4-.8.5-1.6.4-4.5 0-2-.2-3.9-.4-4.3-.2-.6-.2-1 0-1.4.5-.8 1.4-3.6 1.4-4.3v-.6l-1.6-.4-3.3-1.1a10 10 0 0 0-2.8-.8c-.6 0-1.4-.2-2-.7-1.4-1-1.7-.7-1.7 1.4 0 1.8.5 3.8 1.5 5.5.2.3.3 1 .3 1.4a20 20 0 0 0 .8 6.4l.4 1.9c.8 2.3.3 4.7-1.7 8.2l-1 2-1 1.7c-.6 1-1 1.8-1 2.8v1.3h1c1.3.2 1.6.4 2.3 1.9.9 1.9 2.7 2.4 4.4 1.3zm-1.2-20.8c-.3-.3 0-1.6.5-2.2l1-2.9c.7-2 .8-2.8.7-3.6-.4-2.2-.3-2.5.5-2.7 1.2-.4 2 .3 2 1.7a16 16 0 0 1-1.8 6.4l-1.1 2.5c0 .3-1 1-1.2 1-.2 0-.4 0-.6-.2zm-14.2 20.7 2.2-1.5 1.6-1 1.4-2.8a816 816 0 0 1 2.3-5.2c0-.4 1.3-3 1.6-3.2 1-.6 1.5-4.3.7-5.9-.5-1-.8-1-1-.2-.5 1.2-2.3 4.8-2.7 5.2-.3.3-.6.3-1 0-1-.4-1-1.9-.2-2.5.4-.2.6-.8.7-1.5 0-.6.3-1.1.5-1.2.5-.2.5-.9 0-1.3l-.6-.4.8-.5c.4-.3.6-.7.5-.8l-.3-1.7-.8-3.2c-.7-2.3-.7-3.6 0-4.2.4-.4.5-1 .8-4.5 0-.6 0-.8-.4-1-.6 0-4.4.8-4.5 1.1-.1.2-.6.3-1 .3-1.4 0-2.3.4-2.6 1.1-.1.4-.3 4.5-.3 9.1v8.5l-.8 1-.7 1.4-.6.7c-.3.3-.5.6-.5.8l-.8 1c-.4.5-.8 1-.8 1.2 0 .4-1.2.9-2 .7l-2.8-.2c-1.7 0-2.6 0-3.8-.5-.9-.3-3.1-.7-5.1-1l-3.6-.3-.9.4-.8.5.3.5c.4.8.7 1 1.8 1.6.5.2 1.8 1.1 2.9 2 1 .7 2.2 1.4 2.4 1.4.5 0 1.9.7 3.6 1.9 1.2.8 3.7 1.7 4.2 1.6.2 0 .8 0 1.3.3 1.1.4 2.7.5 2.9.1.2-.4 2-.8 2.7-.6.5.1.6.3.6 1.3 0 .9.1 1.1.7 1.5 1 .6 1.6.6 2.1 0zm-2.5-2.8c0-.3.2-.4.5-.4s.5.1.5.4c0 .2-.2.4-.5.4s-.5-.2-.5-.4zm-33.8-6.7c-.3 0-.6-.2-.6-.4l-1-.2h-1l.9.2c.4 0 .8.2.8.3 0 .2.3.3.7.2.7 0 .7 0 .2-.1zm-20.7-16.8c.4-.8 4.6-5.3 5.6-6 .5-.3 1-.6 1.4-.6.3 0 .9-.3 1.3-.8.8-.9 1.6-1 2-.2l.3.5-1.7 1.8a30 30 0 0 1-4.1 4c-1 1-1.4 1.4-1.3 1.7.3.7 1.2.4 3-.9 2.8-1.8 5-4.9 5.6-7.5l.6-1.9c.2-.4.6-2.4 1-4.4.3-2.1.7-3.9.9-4.1.3-.4.4-1.5.6-4.7.1-3.5.3-4.5.7-5.1.2-.5.6-.9.7-.9l1-1.2c.3-.8 1-1.5 1.4-1.7.5-.2 1.7-1.2 2.7-2.2 2.8-2.8 6-3.7 9.6-2.8l2.7.5c1.8.4 3.5 1.1 4.8 2.2l2 1.3c.5.3 1 .8 1.1 1.1.3 1 2.5 2.8 4.6 3.9l3.1 1.6 1.2.6 4.6-.3a51 51 0 0 0 4-.6c-1 0-2.4-.5-4.3-1.7a8 8 0 0 0-1.7-1 11.9 11.9 0 0 1-6.6-3.1c-.5-.3-1.2-.5-1.5-.5a8 8 0 0 1-3.9-2 41.6 41.6 0 0 0-3.6-3 78.2 78.2 0 0 0-4-3.6c-1.3-1.3-1.9-1.5-2.8-.8-.6.5-1.6.5-4.7 0a9.2 9.2 0 0 1-3-.7c-.6-.4-1.3-.5-2.6-.5h-1.8l-1-.8-1-.8-1 1.3c-.4.7-1.2 1.4-1.6 1.7-.5.3-.8.6-.8.7l-.5.7c-.7.7-2.2 3-2.2 3.2 0 .1-.3.6-.8 1.1l-.8 1.2-.5 1c-.2.3-.6 1-.7 1.6-.4 1.5.1 1.3 2.1-.7 2.7-2.5 5-4.5 6-4.7.6-.2 1-.1 1.7.2 2 1 1.4 2.3-1.5 4a21 21 0 0 0-4.9 3.8c-2.3 2.3-3 3-4 5.1-1.5 2.9-2 4-3 5.3a8 8 0 0 0-1 2.1l-1.6 5.4-.5 2.4c0 .4-.4 1.4-.8 2.3-.6 1.2-.8 2-.8 3 0 1.2-.1 1.7-.5 2-.4.4-.5.9-.5 2v1.6l.5-.3c.3-.1.6-.5.8-.8zm110.2.2 3.7-.1h2.6l-1-.5c-.8-.2-2.5-.3-6.5-.3-5.5 0-9 .3-8.5.9.2.2 7.3.3 9.7 0zM207 120c.4-.3 1-.4 1.2-.4.8 0 .8-.8 0-2l-.6-1-1 .6c-1.6 1-1.7 1.1-1.5 2.2.2 1 .6 1.2 1.9.6zm24.1-2.2c1.3-.5 3.8-.5 7.5-.2l2.3.2.5-.6c.2-.4.7-.9 1-1.2.7-.7 1.5-2.3 2-4l.5-1.6c1.3-3.3 1.9-6.2 1.9-9.4 0-4-.8-5.3-1.7-2.7l-.7 1.7a9 9 0 0 0-.8 1.7l-.8 1.9-2 4c-1.1 2.5-2.3 3.5-3 2.5-.4-.6-.4-1 .1-2.3.5-1.4.5-1.7 0-1-.3.2-1.1 1-1.9 1.5l-2 1.9-1.8 1.4-1.7 1.4a28 28 0 0 1-2.7 2c-2.5 1.8-2.6 2-1.8 2.8l.7.8 1.6-.2c1-.1 2.2-.4 2.8-.6zm-9.2-1.7c.3-.3.8-.5 1-.5l1.8-1 2.5-1.5c.5-.2 2.3-1.7 4-3.3a198.5 198.5 0 0 1 6.6-6.5c0-.2.4-.7.9-1.2a10 10 0 0 0 1.6-2.4c.4-.8 1-2 1.5-2.6.9-1.5 1.8-4.7 1.8-6.4v-1.2l-.8-.2c-1.8-.4-8 .7-9.8 1.7-.6.3-1.3.5-1.6.5-.3 0-.9.2-1.3.5l-1.5.8a9.2 9.2 0 0 0-3.8 3.3c-.3.6-1 1.3-1.3 1.6-1.3.8-3.1 2.3-5.3 4.6-.9 1-1.5 1.4-2 1.4-.3 0-.8.2-1 .5-.3.3-.8.5-1 .5-.5 0-4.7 4.7-4.7 5.2 0 .4 1 1.2 2.3 1.7.5.2 1.7 1 2.6 2 1 .8 1.8 1.5 2 1.5 0 0 .4.3.6.7.3.5.7 1 1 1 .7.4 3-.1 3.9-.7zm33.7-2c.2-.4.7-.7 1-.7.4-.1.8-.5 1-1 .1-.4 1-1.6 1.9-2.6a99.7 99.7 0 0 0 7.3-9.3c-.2 0-.7.4-1.1.9-.5.5-1.3 1.4-2 1.9l-3.4 3.6a129 129 0 0 1-3.2 3.8c-.5.6-1.3 1.6-1.6 2.2-.4.7-.8 1.3-1 1.4 0 .1 0 .2.2.2s.6-.2.9-.5zm6.7-4c3-3.4 3.7-4.6 2.9-4.6-.4 0-1.6 1.1-2.7 2.5l-1.2 1.5a15.2 15.2 0 0 0-2.9 4.2c-.1 0-.3.2-.3.4 0 .6 1.2-.5 4.2-4zm-59.5-.2-.3-.6c-.2 0-.2-.6 0-1.6v-1.4l-.8-.8a11.4 11.4 0 0 0-3.7-2.4c-.4-.1-1-.5-1.5-.9-1-.8-1.5-.8-2 .2l-.7.8-.5.7-.3.8.8 1c.5.6.8 1.2.8 1.4 0 .5 1.5 1.8 2.2 2l2.7.6c2.6.7 3.3.7 3.3.2zm-39.5-1c.2-.2.4-.5.4-.8 0-.5.4-1.3 1-2.1s1.6-.6 2.6.6l1 1 .8-.3 1.5-.7c.3-.3.8-.5 1-.6.5-.2 1.2-1.3 1.9-3.3.2-.6.5-1 1.2-1.2l1-.3.5.6c.7 1 .6 2.4-.4 4.2-1 1.8-.7 2.2 1 1.9l3-.5c2.2-.3 3.9-.8 4.7-1.3a6 6 0 0 1 2-.5c2.5-.2 2.5-.2 3.6-2.6 1-1.8 1.1-2.4 1-3.5v-1.2l-.8-.4c-.6-.3-2-.4-5.3-.5h-4.4l-1.4.7c-1.7 1-2.6 1-3.7.3a13 13 0 0 0-2.2-1c-.8-.2-1.5-.6-1.8-1-.2-.4-.7-.7-1-.7-.7 0-1.3-.3-1.8-1.2-.5-.7-3.6-2.9-4.4-3-.4-.1-.5-.4-.6-1.3l-.2-1.1-1.4-.8a7 7 0 0 0-3.2-1c-1 0-1.9-.3-2.1-.5-.7-.6-2.2-.7-3-.2a6 6 0 0 1-1.9.5c-2 .3-2.8 1-3.3 2.4a10 10 0 0 1-1 2c-.4.4-.9 1.7-1.2 2.7-.2 1-.7 2.1-1 2.3-.7.6-.6 1.2 0 1.8.3.2.5.7.5 1 0 .2.7 1 1.4 1.7l1.3 1.3.7-.3c.7-.3 1.4.1 1.4 1 0 .5 2.3 2.7 3.1 3 .5 0 .9-.1 1.6-.7 1-.9 2.3-1.4 2.6-1.2.2.3.1 1.1-.2 1.4-.7.5-.2 2 .9 2.5.7.5 1.4.6 3.8 1l.8-.2zm2.1-11.5c-.4-.4-.1-1.6.4-2 1-.5 1.6.8.7 1.9-.3.3-.8.4-1 .1zm43 8a4 4 0 0 0 1-2.2l.1-1.2-1.3-1a29.6 29.6 0 0 0-6.3-3.4c-.2 0-.7-.3-1-.6-1-1-5.8-3.4-7-3.4l-2.6.3-2 .3.7.4 1.2.3c2 0 4.3 1.3 6.6 3.6a5 5 0 0 0 1.5 1c.4.2.8.5 1 .9.3.4 1 1 1.7 1.4 2 1 3.6 2.6 4.3 3.8.3.7.7 1.1 1 1l1.1-1.1zm7.7-4.6 1.7-1.2 1.3-1.3c.7-.8.9-1.7.7-3.2 0-.2-1.7.6-1.9 1l-1.2.7c-2 1.1-3 2.3-3.3 3.5l-.2 1 .6.3c.9.3 1 .3 2.3-.8zm-5.7-4-1.3.3-.8.3.6.5.7.5.6-.7.7-.8zm61 .8c.8-.2 2.6-1.9 2.6-2.5 0-.3-1.5-1.2-2-1.2-.2 0-.5.4-.7.9l-1.1 2c-.8 1.2-.9 1.4-.2 1.2l1.4-.4zM210 93.8c2.1-1.2 4.1-3.1 4.5-4.5.4-1.1.2-1.2-1-.4-1.4 1-2.6 2.1-4.5 4.2l-1.3 1.3h.6c.3 0 1-.2 1.7-.6zm-8.7-2.6c.2 0 .4.2.5.3.2.4 2 .3 2 0v-1.3c0-1.4 1-2.4 3.3-3.2 1.8-.6 1.9-.6 3 .5.3.3.5.2 1.3-.6.9-1 1.1-1.7.5-1.7-.4 0-1.6-1.3-2.3-2.5-.3-.6-.5-1.5-.5-2.3 0-1.3-.5-2.9-1.2-3.4-.6-.5-.8-2.2-.3-3.1.2-.4.4-1.5.5-2.5.1-.9.4-2 .6-2.5.2-.4.4-1.1.4-1.6s.2-1.1.5-1.5c1.4-1.8 2.4-6 2.4-9.6l.1-5.7.2-3.4-.5-1.1c-1.1-2.5-1.4-3.2-1.4-3.8 0-.3-.2-1-.5-1.6-.7-1.4-.7-2.4.1-3 .8-.4 2-.3 2.6.4.8 1 1.8 3 2 4.2l.6 1.6c.3.2 1.8-.8 3-2 .8-.8 1.4-1.6 4-5.3 1.4-2 3.3-8.2 3.3-10.7V24l-2.2 2.1a20.7 20.7 0 0 1-3.5 2.8c-.7.4-1.8 1-2.4 1.5l-1.5 1c-1.1.1-4 .4-5.9.4-1.4 0-2.3.3-3.4.8-2 .9-3.1.9-5.2 0-2.4-.8-4.8-1.5-5.4-1.4-.3 0-.6.5-.7 1a51.7 51.7 0 0 0-1.2 9.8c-.1.7-2 3-3.2 3.7-.6.4-1.5 1.1-2 1.7l-1.2 1-2 .3c-2.4.3-2.9.1-2.8-1.3l.1-1 1.3-.5a119 119 0 0 0 5-2 3 3 0 0 0 1.2-1.3c.6-1.1 1.1-4.5 1.1-7.2l.4-6.1c.3-2.4.4-4.4.3-4.6 0-.3-.4-.2-1.1.1l-3.3 1.6c-1.3.6-2.7 1.4-3.2 1.8l-1.5 1a5.6 5.6 0 0 0-3 2.8c-.5.7-1 1.4-1.3 1.6-1 .5-1.8 2.1-1.8 3.7a12 12 0 0 1-1.7 5.5c-.4.8-1 2.4-1.3 3.5l-.5 2 .7 1c.8 1.2.8 1.8.2 2.4-.5.5-.5.5-2.8-.3-1.5-.5-2.8-.8-6.2-1l-4.2-.3-1.3-1c-1.6-1-2.2-2-2-3.2.1-1-.1-2.3-.5-2.3-.7 0-2.9 3.2-3.5 5-.1.5-.6 1.3-1 1.8-.8 1.1-.7 1.3.5 1.6 1.8.3 2.3 1.2 1.5 2.7-.3.6-.7.9-1.5 1-.7.2-1.3.2-1.4 0-.6-.5-.9-.1-1 1.6-.2 2.4.2 3.3 1.7 3.3a5 5 0 0 1 2 .5l1 .6.5-.4c.2-.2.7-1 1-1.8.7-1.6 2.6-3.8 3.6-4 .6-.3 1.6.1 1.6.7 0 .2-.4.9-.9 1.5-.5.7-1 1.7-1.2 2.4a16 16 0 0 1-.8 2 20 20 0 0 0 .1 8.8c.5 1.8.7 2 1.8 2.6.8.3 1.3 1.2 1.3 2.2 0 1.4 2.4 3.4 4.5 3.8.5.1 1.2.4 1.6.7l1.8.6c.6.1 1.4.5 2 1 .4.4 1.2.8 1.7 1 1 .2 2.3 0 2.6-.3 0-.1.5-.3 1-.3a4 4 0 0 0 1.7-.5 3 3 0 0 1 3-.1l1.3.4c1 0 1.4 1.8.5 2.8-.7.8-1 1.6-1 2.3 0 .4-.4 1-.8 1.3l-.8.6 1.2.6c.6.3 1.3.6 1.6.6l1.8.5c2.5 1 4.8.6 5.4-.8.5-1 1.4-1.5 2.1-1l1.6.2c.7 0 1.3.2 1.6.5l1.1.7 1.1 1.1.5.8.6-.5c.2-.2.6-.5.8-.5zm-13-2.3h-1.2l.2-1.2c.3-2.2 1-2.9 2.8-2.3 1.6.5 2.3 1.3 2.3 2.4 0 1.4-.2 1.4-4 1.1zM204 78l-1-.5v-1.6c0-1 0-2 .2-2.4l.4-.8-.8-.5-.7-.6.1-1.2c0-.8.5-1.8 1.4-3.2l1.6-2.5c.4-.6 1.6-1 2-.7.2.2.2.6 0 1.4-.2.8-.2 1 .1 1 .2 0 .4.3.5.5.2.6.2 1.4 0 1.4-.4 0-1.4 2.7-1.4 3.5 0 .3-.1.7-.3 1-.8 1.5-.9 2-.7 3.4.2 2-.1 2.4-1.4 1.7zm-16-8.3c-.3-.2-.4-.6-.3-1 .3-1.4.5-3.1.3-4-.2-1-1.4-2.3-2.4-2.7-.8-.3-1-1.5-.4-2.2.7-.6 1-.6 2.3.2 1.2.8 1.8.8 2.7.1a3 3 0 0 1 1.8-.5c.6 0 1.5-.2 2-.4 1.2-.5 2.9-.5 3.3 0 .2 0 .3.6.3 1.1 0 .5.3 1.2.6 1.6.8 1 .2 2.7-1 2.7-.3 0-1.4-1.4-2-2.7-.2-.2-.5-.5-.7-.5-.3 0-.3.4-.2 1.7l.2 1.7-.5.3c-.3.2-.8.3-1 .3-.7 0-2.1-1.2-2.3-2v1c0 1 0 2.1-.3 3.3-.6 2.3-1.4 3-2.4 2zM198 56.1l-1.3-1.2h-1.3c-.7 0-1.5 0-1.9-.3-.4-.3-1-.4-1.7-.3-1.3.2-1.6 0-1.4-.9.5-1.4 3-1.6 6.5-.7l2.2.6.9 1.1c1 1.4 1.3 2 .9 2.6-.6.7-1.4.4-2.9-.9zm-20.6-5.4c-1-.4-1.9-1.4-2-2.3 0-.4.4-1.3.9-1.9L178 44c2.8-4.1 4.5-5.5 7-5.9 1.3-.1 1.9.3 1.9 1.6 0 1-1 1.9-2.8 2.8l-2.2 1.3-1 .7.2 1.7.2 1.7-.7.7c-.5.4-1 1-1.1 1.3-.5.9-1.1 1.1-2.1.8zm19.8-2.6c.1-.9 1-1.3 3-1.3s3 .6 2.7 1.5l-.2.5h-5.5v-.7zm1-3.2v-.6l-.6-.8-.7-.5.4-.6c.3-.4.9-.7 1.7-.9 2-.4 2.6-.3 3.2.3.5.4.5.6.2 1-.3.6-.1.9.7 1.2.1 0 .2.3 0 .5 0 .4-.4.5-1.5.4-.8 0-1.8 0-2.4.2-.7.1-1 0-1-.2zm-42 29c.4-.4.3-1.2-.4-2.7-.4-.7-.7-1.6-.7-2 0-1-.4-1.5-1-1.5-1 0-2.1-.8-2.7-2-.7-1.3-1-1.4-3-1-1 .2-2.6 1.3-2.6 1.8 0 .2-1.6 2.6-1.9 2.8-.2.2 0 .4 1 1 .4.1.6.6.7 1.4.2 2 .5 2.2 4.6 2.2 2 0 3.6.1 3.8.2.3.3 1.8.2 2.1-.1zM170 47c.2 0 .8-1.2 1.2-2.5l1.4-3.7a47 47 0 0 0 2.8-9.5 32.6 32.6 0 0 0-10 9.3c-.7 1.2-1.6 2.3-2 2.6-.4.4-.6.8-.6 1.4 0 1 .4 1.5 1.4 1.5.6 0 1 .2 1.5.7.5.5.8.6 2.2.6a5 5 0 0 0 2.1-.3zm-8.6-5.3 1.6-2c.2-.4.6-.8.9-1 .2 0 1.2-1 2.2-2.1 2.2-2.5 5.4-5.2 7-6.2.8-.5 1.6-.7 2.4-.7.9 0 1.3-.2 1.8-.6l1.7-1.7c1.3-1.2 1.4-2.2 0-1.3a2 2 0 0 1-1 .4l-2 .8c-.8.4-2 .9-2.8 1-2 .3-3.5 1.2-7 4.6-5 5-6.6 7-6.6 8.9 0 .7.1 1.1.3 1.1.2 0 .8-.5 1.5-1.2zm-27.7 184.1c-.3 0-.8-.4-1.1-.9l-.6-.7H130c-2.3 0-3.8-.4-3.4-1 .2-.1 2.6-.2 7.8-.2 6.3 0 7.7 0 9 .5 1.1.3 1.5.5 1.5 1 0 .6-.7 1-1.5 1h-4a24.8 24.8 0 0 0-5.6.3zm305-2.6c-2-1-3.2-2-3-2.5 0-.5 1.4-.3 2.2.2l2.3 1.2c1.2.6 1.5.8 1.4 1.3-.1 1-1 .9-3-.2zm-316-.4c-.7-.6-.1-.8 1.2-.6.6 0 1 .3 1 .5 0 .5-1.5.5-2.2 0zm308.4-2-3-1.2c-.5-.3-1.3-.5-1.8-.5a3 3 0 0 1-1.6-.5 15 15 0 0 0-4.7-1.6c-1.2-.3-1.8-.8-1.3-1.3.3-.2.7-.2 1.5.1l2.8.7c1.6.3 2.5.6 7.1 2 3.9 1 5.2 2 4.4 2.9-.5.6-1.2.5-3.4-.6zm-302 .6a94 94 0 0 0-9-.4c-4.8-.1-9-.3-9.4-.4-.3-.1-.6-.5-.7-.8-.2-.8-.7-1-1.6-.6-1.1.4-4.8-.3-5-.9-.3-.7 0-1 1-1 1.7 0 2.4-.6 1.1-1-.7 0-.8-.5-.4-1.1.2-.3.8-.5 2.3-.5 2.9-.2 10.7 0 11.3.1.5.2.6 1.3 0 1.5l-2.6.2c-1.5 0-2.3 0-2.3.3 0 .2 1 .2 4 0 4.8-.2 8.2-.1 8.6.2.4.4-.2 1.2-1.2 1.5l-.9.3 1 .2 7 .1c6.4 0 7 0 7 1.1 0 1-.7 1.1-5.4 1.2h-4.8zm-6.3-2.7h-1c-.4 0-.2.1.4.1.6 0 .8 0 .6-.1zm-95.7 1.1c-.5-.6.1-1.2 1.1-1.2 1.1.1 3-.2 4.8-.8a32 32 0 0 0 6-2.5 311.8 311.8 0 0 0 10.6-4.6 234 234 0 0 1 11.6-5.2c.3 0 1.6-.7 2.9-1.4l6.5-2.9a72.6 72.6 0 0 0 7.8-3.3l3.1-1.4 2.3-1c.9-.2 1.8-.6 2-.8.2-.2.8-.5 1.4-.6.5 0 1.4-.5 1.9-.9a7 7 0 0 1 2.3-1c.8-.2 2.4-.8 3.5-1.4 1.2-.6 2.4-1 2.8-1 .6 0 3-.9 5-1.8l1-.3 2.4-1.1c1.2-.6 2.3-1 2.5-1 .5 0 1.8.8 1.8 1.1 0 .6.2.5 1-.1.4-.3 1-.5 1.4-.5.8 0 1-.7.4-1-.6-.1-.2-.8.6-1 .6-.2 1.2.2 1.4 1 .2.4 2-.7 2-1.1 0-.4.1-.4.3 0 .2.2.6.1 2.4-.7 3-1.3 4.8-1.2 4.8.5 0 1-.4 1.2-1.8 1.4-.7 0-2 .5-2.9.9l-1.8.8-1.6.9c-.8.5-2 1-2.5 1.2l-2.3.9-2.7 1-3.5 1.6c-1.3.6-2.6 1-3.5 1.1-.8.1-1.8.5-2.3.8-.7.5-1.2.6-1.9.5-.7-.1-1 0-1.5.5a2 2 0 0 1-1.4.7c-1 0-2.8.7-3.6 1.4-.8.7-1.5 1-3.9 1.7-1.8.5-2.6.8-7.7 3.3a45.2 45.2 0 0 1-5.7 2.5c-.6.5-4 2.2-4.3 2.2-.3 0-1.2.4-2.2 1l-2 .9c-.3 0-1.4.5-2.5 1l-2.4 1.1a20 20 0 0 1-7 2.4c-1.9 0-1.5-.9.8-2l1.9-1.1c.3-.3.2-.4-.3-.4-.4 0-.8.2-.9.3 0 .2-.3.3-.6.3-.2 0-1.4.4-2.6 1-1.2.6-2.4 1-2.6 1l-1.2.6-2 .8-2.2 1c-.7.5-1.9 1-2.6 1.3-.7.2-1.4.6-1.7.8l-1.4.7-2.5 1c-2.4 1.2-8 1.8-8.7.9zm33-10.8a9 9 0 0 0 1.7-.8 3 3 0 0 1 1-.4l.7-.3 1.2-.6c.6-.2.7-.4.3-.4a3 3 0 0 0-1.3.3A78.4 78.4 0 0 1 59 209c-.5.5 0 .5 1.2 0zm9.5-4.3c.6-.3.6-.4.2-.4-.7 0-2.3.6-2.3.9 0 .2 1.3 0 2.1-.5zm2.5-1c1-.8.2-1-1-.2l-.8.6h.7c.3 0 .8-.2 1.1-.4zm366.2 13c-1-.1-2.6-.2-3.5-.1-1 0-2.2 0-3-.3-.6-.2-2.8-.5-4.8-.7-2.7-.3-3.8-.5-4-.8l-.5-.4.4-.5.5-.4 1.2.3c1.4.3 4.8.5 5 .3 0-.1-.3-.3-1-.5s-1-.4-1-.8c0-.8.4-.8 2.3-.5 2.1.3 3 .8 3 1.6 0 .7 1 1 4.7 1.2 2.8.2 3.4.3 3.8.8.3.3.5.7.4.8-.2.4-.8.4-3.5 0zM149 213c-.1-.1 0-.2.4-.2.6 0 .7.1.1.3h-.5zm270.7-.2-5-.4c-1.3-.3-4.7-.7-8.6-1-2 0-4.4-.4-5.3-.6-.8-.2-3.5-.5-5.9-.7-8.6-.5-10.8-.8-10.8-1.6a119.1 119.1 0 0 1 22.3 1.3c.8-.2 4.3 0 8.6.7l4.7.5c5.2.4 7.5 1 7 1.7-.2.2-.8.3-1.5.3l-5.5-.2zM35.8 212c-.5-.5-.6-1.5-.1-1.9a113.4 113.4 0 0 0 15.6-5.1c.5 0 3.3-1 5.2-1.8a126.8 126.8 0 0 1 10-4.3l3.2-1.3 2.5-1c3.7-1.8 5.2-2 5.2-.4 0 1-.4 1.3-4 2.6-.6.3-2 .6-3.1.7-1.3.1-2.4.4-3.2.8-.7.4-2.3 1-3.6 1.5-1.3.4-3 1.1-3.8 1.6-.8.4-2 1-2.7 1l-2.2 1.1a9 9 0 0 1-2.4 1.1c-.7.2-1.4.4-1.6.6a1 1 0 0 1-.6.2l-1.4.5-1.4.6-1.4.7c-.6.5-1.7.9-2.4 1-.7.1-2 .6-3 1-2.4 1.2-4.2 1.5-4.8.8zm366.6-3.3c-.4-.5-.4-.8 0-.8.3 0 .5.3.5.6 0 .6 0 .6-.5.2zm-3.1-2.3c-1.5-.7-7.3-1.4-8.3-1-.7.2-1 .2-1.8-.2-.7-.3-1.6-.4-3.9-.5-1.6 0-3.5 0-4-.2a64 64 0 0 0-13.7.1c-.5.2-2-.4-2.2-1-.3-.5-2.7-1.2-4-1.2a26 26 0 0 0-9.6-1.5c-1.8 0-4-.2-4.8-.4-2.3-.4-2.7-1.5-1.2-3.4.6-.8.9-1.3.7-1.5-.2-.1-2-.3-4-.3-4.3-.1-4.9-.3-5.5-1.7l-.4-1h-2.4c-3.1.3-3.5.4-3.9 1.4-.3.8-1.4 2-2 2l-1.1.5c-1.7.9-4 1.2-8.6 1-5.8-.2-6-.3-6.4-1.4-.2-.5-.6-1-1-1-.7-.2-7.8 0-11 .3l-1.8.2-.3-.7c-.3-.9.3-1.7 1.9-2.2 2.2-.7 1.4-1.4-1.8-1.4-.8 0-2-.3-2.7-.5l-1.3-.5-6.5.1-6.6.1-.5-.4c-.3-.3-.5-.7-.5-1 0-1-.6-1-5.4-.9-3.8.2-4.8.1-5-.2-.4-.7-.2-1.5 1-2.4.8-.8 1.2-1 2.2-1a30 30 0 0 0 7.7-1.5 3319.5 3319.5 0 0 1 8-2.7c0-.1-2-.2-4.5-.2-5.8 0-13.9-.5-14.3-.7l-.6-1.2-.3-1h-2.4c-1.3 0-3 0-3.7.2-.7.2-2.4.3-3.7.3-2.5 0-2.9-.2-2.8-1.2.1-.4.4-.6 2-.8.9-.2 1.7-.3 1.8-.2l1.5-.6c1.1-.6 1.6-.7 2.6-.6l2.1.6c.8.4 1.4.4 4 .3l4-.3c1.8-.4 2.3 1.2.6 2l-1.3.3h-.5l.7.4a35.6 35.6 0 0 0 12.2.4l5.4-.2c1.8-.2 2.5 0 2.4 1 0 1.3-1 2-5.5 3.7-1.6.6-2.6 1-6 1.9-2.2.5-4.3 1.3-4.3 1.5 0 .3.8.5 2.6.6 1.7.2 2.5.6 2.8 1.5l.2.5h3.6l5.9-.4 2.3-.2.8.6c.5.4 1.4.6 2.2.7 2.5.2 5.5.9 6.2 1.3.7.5.8 1.2.2 1.7l-.4.7c0 .3.9.3 4.3.3 5.2 0 6.8.3 7.2 1.4.3.9.6 1 4.1 1.2 3 .2 6.3-.3 7.2-1l.6-.6c0-.1-.7-.2-1.6-.2-1.8-.1-2.5-.7-2-1.6.3-.5.7-.7 2.6-1l4-.2 5-.3 3.3-.4.5.5c.3.3.6.8.6 1.4v.8l1.5.2c5.3.5 6 .6 6.6 1.1l.8.9c0 .1-.4.8-1 1.5l-1.3 1.1.5.6.4.5 4.5.1a47.9 47.9 0 0 1 13.6 2c1.2.1 2.5.4 3 .7.7.4 1.5.5 4.8.5a105.5 105.5 0 0 1 11.7.6 61.5 61.5 0 0 0 9.4.8c5.8.4 6 .4 6.8 1 .5.4.6.7.5 1.3-.3.8-1.1.9-2.7.2zm-350.9-7.7c-.2-.4 1.3-1.9 1.9-1.9l2.4-1.1 3.6-1.6 1.8-.8c.2-.2 1-.5 1.7-.7a13 13 0 0 0 2.3-.9l1.2-.4c.7 0 2.7-1.2 2.7-1.5 0-.3.2-.4.9-.3.8.2 1.3 0 4-1 .4-.3 1.2-.6 1.8-.7a38 38 0 0 0 5.8-2.1c.6-.3 1.3-.5 1.6-.5.4 0 .8-.1 1-.3a23 23 0 0 1 4.8-1.8c.9 0 1 1.4.2 1.8-.7.4-3.8 1-4.8 1-.4 0-.7.2-.8.3l-1.2.4a44 44 0 0 0-9.3 3.2l-1.6.7-2 .7a129.8 129.8 0 0 1-10.2 4.6l-3.5 1.5c-3.2 1.6-4 1.9-4.3 1.4zM28.2 192l-.6-.5 1-1 1-1a9 9 0 0 0 3-1.6c.3-.3.7-.4 1.3-.4a6 6 0 0 0 1.9-.5l2.7-.6c2.1-.3 4.4-1.1 6.5-2.4.9-.6 1.7-1 1.9-1 .2 0 .6-.3.9-.6.4-.4 1-.7 2.3-.8l1.8-.2.4.5c.7.8.2 1.5-1.3 2l-1.8.6c-.3.2-1.1.5-2 .7l-2.2.8-6.5 2.5c-3.5 1.4-4.2 1.7-5 2.3-.3.3-.8.6-1 .6-.3 0-1 .3-1.6.6-1.3.6-2 .6-2.7 0zm26-14.5c-.3-.2-.3-.7-.2-1.5l.3-2 .2-10.4v-9.4l-.6-.7c-.3-.5-.6-1.2-.6-1.7 0-.6 0-1.4-.2-2-.2-.4-.3-1.9-.3-3 0-1.3-.2-2.7-.3-3.2-.2-.6-.2-1 .1-2 .3-.8.5-2 .5-2.6v-1.3l-.6.6c-.4.4-.6.4-.9.2-.3-.3-.4-1.3-.4-5.2 0-3 .1-4.8.3-4.8a157.2 157.2 0 0 1-.3-18c0-.8.2-1.1.6-1.1.7 0 .8-1 .6-3.6-.2-1.4-.2-3.3 0-4.7.3-3.2.3-3.5.8-3.7.7-.3 2.5.3 2.8.8.2.5.4 5.3.6 18.6.2 8.1.4 12.6.7 17.6a353.7 353.7 0 0 1 1 20.5l.3 4.2c.4 5.7.7 7.5 1 8.2.6 1 1 3.6.8 4.5-.2.9-1.3 2-1.8 1.7-.8-.2-1.3-1.7-1.3-3.7 0-1.2 0-2-.3-2-.2 0-.2.5-.1 1.3a4 4 0 0 1-.2 1.8c-.1.3 0 .9.2 1.8.6 1.7.6 2.5 0 3.8-.8 1.4-2 1.9-2.8 1zm3-16.8c-.1-7-.3-10.3-.7-10.3-.4 0-.5 2.1-.4 5l.3 7.2c.1 3.3.3 4.5.5 4.5.3 0 .3-1.4.3-6.4zM56 141.6c-.5-3.5-.9-3.2-.6.3.2 1.5.2 2.8.1 2.9 0 0 0 .6.3 1l.3.9.1-1.2c0-.7 0-2.4-.2-4zM53 131v-6.5l-.3.4c-.6.5-.8 4.9-.5 7.4a95.3 95.3 0 0 1 .8 5.2V131zm9.1 45.1c-.7-.9 2.2-2.7 3.4-2 .6.3.7 1.3.2 1.8-.6.5-3.2.7-3.6.2zm2.9-3.9c0-.3.2-.5.4-.5s.4.1.4.3c0 .3-.2.5-.4.6-.3 0-.4 0-.4-.4zm18.1-.9c-.4-.5-.5-1-.4-1 .6-.4.2-.7-.8-.7s-2.1-.7-2-1.4c0-.2.1-1.7.4-3.3.3-1.6.6-3.6.6-4.4 0-.8 0-1.8.2-2.1.5-1.2.9-8.6.6-9.6-.3-.7-.2-1 .2-1.8l.5-.9.2-5.5a461.5 461.5 0 0 0-.7-38.4c-.4-6.6-.4-6.8.2-7.2 1.2-.9 2 0 2 2.4v1.4h2L86 101l-.2 7.2c-.3 12.7-.3 45 0 56.2 0 3.8 0 6-.2 6.7l-.3 1.1h-.7c-.6 0-1-.2-1.5-.9zm.3-6.4c-.3-2.2-.6-2-.8.5-.1 1.2 0 2.1.2 2.7l.3.8.2-1.1c.2-.6.2-1.9 0-2.9zm-6.5 2.7c-.4-.5-.2-1.2.4-1.2.6 0 .8.8.3 1.2l-.4.4zm202.9-.7c-.6-.3-.7-1.7 0-2l1.5-.1 3-.4c3-.6 16-.9 27.5-.5 1.3 0 5.3 0 9 .2 5.6 0 7 .2 7.8.5l.9.5 2.5-.3 4-.5c1.6-.3 4.8-.2 7.1.1l1.6.2-.1.6v.5h-3.7c-2 0-4.3.2-5.2.4l-4.8.4c-2.5.2-3.2.2-3.7-.2-.8-.5-8.1-.7-19.7-.7h-10.1c-4.1 0-10.9.5-14 1-3 .7-3 .7-3.6.3zm105.6-11.1c-2.9-.6-4.5-.7-18.3-1l-12.5-.2a160 160 0 0 0-18 .7c-3 .4-3.8 0-3-1 .1-.4 1-.5 3.6-.7a403.9 403.9 0 0 1 37.3.2 166 166 0 0 1 16 .9c2.6.1 3.3.4 3 1.2-.2.6-4.6.5-8.1-.1zm-74.5-.7c-8.9-.4-11.3-.9-11.7-2.1-.2-1.2.3-1.3 2.5-.8 2.9.7 11 1.4 20.1 1.7 5.2.1 6 .3 5 1.1-.6.5-7.2.5-15.9.1zm-239.3-3.8c-.3-.2-.4-1.4-.4-6.7l-.3-16.3-.2-18c0-8.2.2-9.8 1-10.2.8-.2 1 .5.7 3.2-.2 3.4-.2 8.6.2 20.9.2 5.5.3 13.8.3 18.4v8.5l-.5.2c-.2.1-.6.1-.8 0zm322.1-4.4a77 77 0 0 0-10.8-1c-1.8-.1-2.5-.4-2.1-1a102.4 102.4 0 0 0 8 .2c3.3 0 6.9.5 7.3.9.2.2.2.4 0 .7-.4.6-.8.7-2.4.2zm-77.6-.5c-.1-.1-.3-.5-.3-.8 0-.5.2-.7.7-1a19 19 0 0 1 6.6-.9c4 0 3.8 0 3.8-.4s1.3-1.6 1.9-1.9l-.6-.1c-1 0-6 .9-6.6 1.2-.5.4-1.6.6-4 .9-1 0-3.7.5-5.8.9l-3.9.6h-7.7c-8.6 0-12.9 0-18.1-.4-2-.1-4.8-.2-6.4 0a44 44 0 0 1-7.9 0c-.5-.2-.5-1.2 0-1.6.4-.4 6.4-.4 11.8 0h6.6c1.4-.2 3.7-.3 5.1-.3l2.7.1.2-4c.2-3.5 0-9.8-.2-15.7l-.7-14.5.2-1.2c.5-.4 1.3 0 1.6.8.3.8 1 11.6 1 17.4 0 1.9.2 4 .3 4.5.2.7.3 2.3 0 5.5l-.2 4.5 1 1 1 1h1.1c.9 0 1.3 0 1.8.5.7.7 1.5.7 5.7.2a212.7 212.7 0 0 0 28.5-5.2c2-.6 4-1 6.6-1.5l4.6-1a165.5 165.5 0 0 1 11.3-2.3l2.9-.6A71.9 71.9 0 0 0 371 130a67.3 67.3 0 0 0 6.5-1.2l4-.9c.8-.2 3-.4 4.6-.5 2.6 0 3 0 3.3.3.7 1 .2 1.2-2 1.2-1.3 0-3 .1-4 .3-8 1-9.2 1.3-10.4 2.5-.5.5-1 .7-1.6.7-1.5 0-4.5.6-5.2 1.1-.4.3-.7.3-1.2.2a2 2 0 0 0-1.1-.2l-2.7.4c-3 .4-4.8.7-7.3 1.4l-5.2 1.3a368 368 0 0 0-18.8 4.4l3.8-.2c4-.4 4.4-.3 4.1.8-.1.4-.5.6-1.3.7-4.5.5-6.8 1-7.7 1.3l-1 .4.4.5c.2.3.2.7.1 1-.3.8-1.4 1-4.4.5l-3-.4-1.7.4c-2.5.6-2.8.6-3.2.5zm-239.8-.5c-.2-1.8-.5-40.8-.3-42.3.2-1.7.9-2.4 1.4-1.9.4.4.5 43 .2 44-.2.6-1.2.8-1.3.2zm297.9-.7-3.2-.5c-1.4 0-1.9-.2-1.9-.5 0-.5.3-.5 5.8 0 3.4.2 4.6.5 4.3 1-.2.3-3.3.3-5 0zm-307.8-2.4c-.2-.1-.2-2-.1-4.8 0-2.7 0-6.3-.3-8.6-.3-3.7-.4-27.3-.1-31 0-1.6.5-2.4 1-2.4.8 0 1 1 .7 2.7a715.3 715.3 0 0 0 .5 32.5l.3 7-.4 2.2c-.4 2.2-1 3-1.6 2.4zm24.9-2.7a26 26 0 0 1 .1-6.5c.5-3 .8-12 .8-26.9 0-11.7.1-12.1 1.4-12.1h.6v6a601.8 601.8 0 0 1-.8 33.9c.1 1.1-.5 5.1-1 5.6a1 1 0 0 1-.6.4.8.8 0 0 1-.5-.4zm6.2-.6c-.3-.3-.4-2.2-.4-8.8 0-7.6-.2-18.4-.5-29.4 0-4.2.1-5.3 1-5.3.7 0 .8.6 1 3.7v3.7l.1 15.4c0 6.4.5 18.8.7 19.4.4 1.3-1 2.3-1.9 1.3zm194.1-1.3c-.4-.4-.6-2.3-.6-5.8 0-2.9-.1-3.6-.5-4.6-.2-.4-.2-1.3 0-2.3v-4c-.3-4.5-.3-10-.1-12 .3-2.8.4-2.7-4.8-2.5-2.2 0-4.5.2-5 .3-2 .3-2-1.2-.2-1.9.9-.3 2.3-.4 6-.5h4.7l1 .7c1 .9 1 1.4 0 1.6-.4 0-.5.2-.4.8a352.4 352.4 0 0 1 .7 13 173.4 173.4 0 0 1 0 17.4c-.2.1-.6 0-.8-.2zm-203-7.6c-.2-.2-.3-1.4-.3-3.4l-.3-10.9c-.6-18.8-.6-16.3 0-18l.3-1.3.7.1.7.1v1c-.2 3.4 0 18.2.1 22.1.3 6.2.1 10-.5 10.4-.3.1-.5.1-.7-.1zM281 116.8c-.6-.6-.6-1.5 0-1.5.3 0 .6.3.7.7.2 1-.2 1.3-.7.8zm19-7.3a3 3 0 0 0-1.7-.5c-.9 0-1.1-.1-1.3-.6-.2-.9.4-1.3 3-1.7l3.2-.7 2.5-.2c1 0 2.5-.3 3.5-.6l3.5-.7a405.7 405.7 0 0 0 26.2-5.1c1-.4 2.5-.8 3.3-.8l3.4-.6 3-.4c1 .1 1.1.2 1.2.7v.6h-.8l-2.4.3-2 .4-3.4.7a51.3 51.3 0 0 1-8.3 1.9c-2 .6-3.2 1-4.8 1.2-2.3.5-2 1 .5.7a19 19 0 0 0 2.9-.4c.8-.3 3.5-.6 5-.5l2.1-.3 1.4-.4.8.9c1.1 1.1 1.2 1.6.5 1.8a76.9 76.9 0 0 1-12.9 1.4c-1.4.4-5.8.8-10.2 1a68 68 0 0 0-13.5 2c-2.5.6-3.9.5-4.7-.1zm26.3-5.3c0-.2-.4-.2-1.1 0-1.6.1-1.6.3-.1.3.6 0 1.2-.1 1.2-.3zm16.1-1.1c0-.7 1-1 2.7-1.2 3-.2 4.1-.3 5.5-.6 1.3-.3 3.7-.5 8.2-1l4.7-.5c3.7-.5 4.3-.4 4.3.7 0 .8-.4 1-3.3.8-1.5 0-3.7.2-5 .4-1.4.2-2.6.4-2.7.3a43 43 0 0 0-7 .6 70.1 70.1 0 0 1-7.4.5zm-315-.3c-.2-.7.3-1.1 1.5-1.3.6-.1 1.4-.5 1.8-.9 1-.8 1.7-1 3.8-1.4l3.7-1a103.3 103.3 0 0 1 10.5-2.6c1.9-.5 3.8-.4 4 .2 0 .6-.7 1.3-1.5 1.3-.7 0-3.3.7-3.6 1-.2.2-.3.7-.2 1.2.1 1.3-.4 1.6-3.8 1.8a72 72 0 0 0-14.1 2c-1.6.1-2 0-2-.3zM294 99.2c-.5-.1-.8-.5-.8-1s1.5-.8 3.3-.7a67.7 67.7 0 0 0 13.8-1.2 120 120 0 0 0 9.2-1.4 358.1 358.1 0 0 0 11.7-1.7 4 4 0 0 0 1.6 0c1-.2 2.9.3 3 .8.3.8.2 1-.8 1.3l-1 .5-1-.5c-1.3-.5-4.5-.4-7 .2a37.7 37.7 0 0 0-10.6 2c-.5.3-.7.3-1.3.1-.6-.2-1.3-.2-3.1.1a69.1 69.1 0 0 1-7.2 1c-2.3.4-9 .8-9.8.5zM2.3 95.5c-.5-.3.4-1.2 2.4-2.2 1.4-.8 2.4-1 5.6-1.6 5.5-1 8-1.5 12.6-2.9l3-.6a8 8 0 0 0 2.6-1c.7-.4 1.5-.7 1.8-.7.6 0 2.4-.7 2.7-1 .5-.5-1.3-.4-3.8.2l-6 1.2c-4.2.7-5.3 1-8 1.6l-2.5.3c-.8-.3-.9-1.2 0-1.5.7-.3 3.9-1 5.5-1.2 3.1-.4 5.1-1 5.8-1.7l.7-.8 2.6-.2c3-.2 3.6-.4 3.6-1.2 0-1.2.3-1.3 2.9-1.6 1.4 0 4-.4 5.8-.6 2.7-.3 3.5-.3 4.8 0l1.6.2 3.6-.6A1649 1649 0 0 1 67 76.7c5.2-.9 7.6-1.3 8.4-1.6.5-.2 2-.4 3.3-.5L82 74c.9-.4 5.5-1 8.8-1.4a125.5 125.5 0 0 0 9-1 18913.6 18913.6 0 0 0 10.7-1.2c4-.6 7.3-.5 7.5.2 0 .7-1 1-6 1.5-5.2.5-5.5.6-5.8 1.3-.1.5-1 .8-5 1.5-2.4.4-6.6.9-8.9 1-1.4 0-3.3.6-3.5 1l-1 .2c-.6 0-1 .1-1.2.3 0 .1-.7.3-1.4.3s-1.6.1-2 .3l-.7.4.4.3c.6.4.6 1 0 1.4-.3.3-1 .5-2.2.5-1 0-2.8 0-4.1.2a14195.4 14195.4 0 0 1-29.1 3.4h-1l.8-.1c.5 0 1-.3 1.2-.5.2-.2.9-.5 1.6-.7l1.3-.3-.7-.2h-1.7l-3.5.7c-4.3.7-5.6 1-6.7 1.3l-1.1.4 1.7-.1c3-.3 3.6-.3 4.3-.7.6-.3.8-.3 1.4.1l.8.5-.7.3-1.5.5c-5 1-9.6 2.3-10.6 3-.9.6-2.2 1-6.5 1.8l-5 1.1c-.7.3-2.3.5-3.5.5a13 13 0 0 0-2.8.4 104.1 104.1 0 0 1-12.9 3.2zm54.4-14h-1c-.4.1-.2.2.4.2.6 0 .9 0 .6-.2zm7.6-1.1c.1-.2.2-.3.1-.4-.2-.2-4 .5-4 .7 0 .3 3.6 0 4-.3zm14.6-3c0-.2-.3-.2-.5 0h.5zm214.8 13.4c-.4-1 .2-1.3 3-1.5a189.8 189.8 0 0 0 22.3-2.8c2.6-.3 6.3-1 8.4-1.5 1.6-.3 3-.6 8-1.1l10.8-1.4c2.5-.5 5.3 0 5.3 1s-.7 1.3-2 1c-.8-.3-2-.3-4.9 0a217.5 217.5 0 0 0-28.3 4.5c-1.3 0-4.9.6-7.8 1-4.2.8-6.2 1-10 1.1l-4.7.1zM261.6 84c-.3-.3-.3-.6 0-1.2 0-.4.4-1.5.7-2.4l.5-1.7V58.3a453.4 453.4 0 0 0-1.3-41.4 2264.6 2264.6 0 0 1-.6-16c.5-1.3 1.1-1.2 1.8.5.8 1.7 1.3 6.8 1.4 14.7a1080.2 1080.2 0 0 1 .6 56.6c-.2 5.1-.8 9.5-1.3 11-.3.8-1.3 1-1.8.3zM1.5 82c-.8-.2-1-.8-.5-1.4.3-.4.8-.5 2-.6 1.5-.1 4.7-.6 9.3-1.3L17 78c3-.3 3.6-.7 1.3-.9-1 0-2.6-.3-3.6-.4l-4.7-.5c-1.7-.2-4.1-.5-5.4-.8C3 75 2 75 1.6 75c-.4.2-.7.1-1 0l-.5-.4.5-.5c.5-.4.7-.4 1.7-.2a83.5 83.5 0 0 1 8.3.7l7.3.8c2.7.2 3.3.4 3.6.8.5.7.4 2.3-.2 2.5l-5.3.9c-4 .5-5 .8-5.9 1.3a20 20 0 0 1-8.7 1zm286.6-.8c-.2-.1-.3-2.1-.1-7.6.1-4.1.1-8 0-8.7V43.3c-.2-4.5 0-7.3.6-7.6.5-.4 1 .4 1.3 2.6a1747.8 1747.8 0 0 1-.1 40c-.1 2.2-.9 3.5-1.7 3zm-156-1c-.3-.5 0-.9.6-.9.4 0 .5.2.5.7 0 .5 0 .7-.5.7-.3 0-.6-.2-.7-.4zm150.6-4.1A85.1 85.1 0 0 0 282 62v-5.5l-.2-16.7V28l.4-.8c.6-.9 1-1 1.3-.3l.3 11.2c0 5.9.2 13 .3 15.8l.2 15.1c0 10.3 0 11.1-1 11.1-.4 0-.5-.6-.5-4zM31.5 77.2v-.6c.2-.3.6-.4 2.1-.5h2.7c.6 0 1-.3 1.5-.8s1-.7 2.2-.9c.9 0 2.5-.3 3.6-.5l2-.3-1.2-.3a62.6 62.6 0 0 0-15.2-.5c-2.3.4-3.1.4-4.8 0-2.2-.3-2.5-.5-2.5-1 0-.8 1-1 5.5-1l11.5.1a52 52 0 0 1 15.2.9c.5.4.8.4 2.5.3l3.4-.4a283.2 283.2 0 0 1 11.7-1.9l1.4-.3c.3 0 1 0 1.3-.3l.8-.3-1.7-.2-5.2-.4c-3.7-.2-4.4-.5-4.4-1.6v-.6l5.4.1a53.7 53.7 0 0 1 6.9.3 7 7 0 0 1 2 0c.8.2 2.6.2 5 0L87 66l1.7.5 1.7.6 4.1-.4 11.6-1c.3.1 2.3-.2 3.1-.4.3 0 .5-.3.5-.5s.1-.4.3-.4c.3 0 0 2-.2 2.4l-2.6.3c-2.2.2-7.4.7-11.7 1.3a870.2 870.2 0 0 1-18 2.3l-4.3.6A116.7 116.7 0 0 0 54 74.8c-1.7 0-6.1.5-10.3 1.2l-4.3.6c-1 0-2.4.3-3 .5-1.1.4-4.5.5-4.8.1zM240.2 75c-.2-.3-.4-4.5-.6-9.3l-.5-11.6c-.2-2.8 0-12.6.4-13.8.1-.7.7-1 1.1-.7.2.1.4 2.4.5 7.3.1 7.5.5 13.7.8 15.2 0 .5 0 1-.2 1.2-.2.3-.3 1.8-.1 6.1.2 4.8.1 5.8-.2 6-.6.4-1 .3-1.2-.4zm12.1-1.4a67.6 67.6 0 0 0 2-17.1 551.7 551.7 0 0 0 .4-15.3c0-3.5-.3-11.9-.7-19.7L254 14c0-6.1.2-7.4 1.1-7.3 1.1.2 1.3 1 1.2 6.7l.1 20.1a289.6 289.6 0 0 1-1.5 38.6c.3.4-.1 1.2-1 1.8-1.2.7-1.5.7-1.5-.2zM.2 71c-.4-.5-.1-1.7.6-2.1 1.2-.8 8-1.7 12.8-1.7 2.7 0 3.5-.3 3.5-1.1v-.5h2.5a235.9 235.9 0 0 0 24.9-2.2c2.2-.3 2.6-.4 2.8-.9.2-.5 0-19.8-.2-20.4 0-.2 0-1.4.2-2.7.2-2 .6-2.8 1-2.5.4.2.5 3.3.7 14.3 0 6 .2 11 .3 11.2.2.4 2.3.3 5-.2 2.5-.6 5.3-1 9.9-1.4l4.2-.5A660.7 660.7 0 0 0 87 58.7c2.5-.1 3 0 3.2.3.6 1-.3 1.3-3.2 1.6l-15.6 1.2a65.6 65.6 0 0 0-11 1.3c-.7.2-2 .4-3 .4s-1.7 0-1.7.2.8.2 2 .1c2.2-.2 3.3 0 3.3.6 0 .7-2.1 1.1-8.7 1.6-1.4 0-2.8.3-3 .4-.3.2-1.6.4-2.8.4l-5.7.4a43.6 43.6 0 0 1-11.2-.4l-1.4-.2V67.9l-1.1.2-5.6.4a119 119 0 0 0-17.8 2l-2.8.8c-.2 0-.5 0-.7-.3zM35 66.4c.3-.2.2-.3-.3-.3-.4 0-.8.1-.8.3 0 .3.6.3 1 0zM55.5 64c0-.1-.6-.2-1.4 0-2 .1-2 .3-.1.3.8 0 1.5-.2 1.5-.3zm177.8 5.4c-.6-.7-.8-2.1-.5-4.8.1-1.9.1-3.7-.2-6.8-.5-5.5-.5-9 0-9.2.6-.3 1.1.4 1.3 1.6.9 6.6 1 7.3 1 13.6 0 5-.2 6-1 6-.1 0-.5-.2-.6-.4zM117 63.3l-11.4-.3c-9.9 0-11.4-.2-11.8-.5l-.5-.5.4-.4c.3-.3 2.3-.4 15.4-.4a318.5 318.5 0 0 0 19-.4c.5.4.5.6 0 1.3-.4.5-1 .7-2.5.9-2 .3-8.4.5-8.6.3zm-64.9-3.4-.2-1.2c.2-10 .1-15.5-.2-21.8-.1-4.3-.2-8-.1-8.4.1-.6.3-.8.8-.8.6 0 .7.2 1 1.7a393.3 393.3 0 0 1 0 30c-.5.9-1 1.1-1.3.5zm57.5-1.1a27 27 0 0 1-.8-5.1 84 84 0 0 0-1.5-8.2l-.3-3-.3-3.6c-.2-1.3-.5-3.9-.5-5.8a72.6 72.6 0 0 0-1-9c-.7-4.4-1-8-1.2-9.3-.4-9.8-.4-11-.1-12.1.3-1.1.7-1.5 1.4-1.2.7.2.9 1.5.6 3.9a33 33 0 0 0 0 4.9l.7 6.4.3 3.6h.5l.9.2c.3.2.5 9 .4 13.9 0 1 0 2.5.2 3.5l1 8.1.9 5.1c.3 1.7.5 3 .3 3.6v2.4c0 1-.2 1.5-.4 1.6-.4.3-1 .3-1 0zm2.8-2V56c.3-.4 1 0 1 .4s-.8.7-1 .2zm4.2-.1c-.2-.2-.5-1.8-.7-3.6l-.6-4c-.2-.5-.3-1.3-.3-1.9l-.4-2.5c-.2-.8-.4-2-.4-2.7a74 74 0 0 1-2-10.7 100.2 100.2 0 0 1-2.3-26c.3-1.5 1-2 1.7-1.2l.5.6-.2 4a59.6 59.6 0 0 0 .6 11.2c0 1.2.4 3.2.6 4.4l1 4.5c.8 4.3.8 4.3.9.1 0-2.7-.1-4.3-.4-5l-.2-1.8c.1-.4.1-1.9 0-3.2-.4-5.7-.2-9.7.6-10.2 1.1-.7 1.5.7 1.4 4.5a428.5 428.5 0 0 0 2.7 36.3l.1 3.5-.5.5c-.3.3-.5.7-.5 1 0 .8-.6 2.3-1 2.4-.1.1-.5 0-.6-.2zm-56.7-.8c-.2-.3-.5-.3-1.4-.2l-1.2.2-.1-.8a13 13 0 0 1 0-2.8l.3-4.8.3-6c.3-4.4.4-12.5.2-16.8-.2-3.5.1-11.5.7-14.6.3-2 .9-2.9 1.7-2.6.8.2 1 .8.5 2.3a17 17 0 0 0-.8 8.1c.2 1.3.3 1.6.5 1.2.3-.6 1-3.8.8-4.2-.3-.8 1.1-2.6 2-2.3.4.1.4 1.5 0 2.4-1.3 2.3-2 18.9-1.8 36 0 3.9-.2 5.3-1.1 5.3-.3 0-.6-.2-.6-.4zm.6-33.6c0-.2-.1-.4-.3-.4l-.2.4c0 .2 0 .4.2.4s.3-.2.3-.4zM105 55.4c-.2-.2-.5-2.7-.7-6.1l-.7-10.4c-.3-4.9-.9-10-1.4-11.8-.1-.6-.3-2.1-.3-3.5l-.4-3.3-.3-1.8c0-.5-.1-1.5-.3-2.2-.4-1.4-.9-4.2-1.1-6.7l-.6-2.2c-.4-.6-.4-.9-.1-1.1.1-.2.3-1 .3-1.7 0-1.4.3-2 1-2s1.1.8 1.1 2l.4 3.3a215.6 215.6 0 0 1 3.2 24.6l.5 5.8c0 1.1.2 2.7.4 3.5.2.9.3 2.6.2 4l.1 4.4c.3 2.7 0 5-.6 5.3-.3.2-.5.2-.7 0zm-9.8-.2c-.5-.6-1-10.4-1.2-24.3l-.4-5.3c-.8-9-.9-11.3-.9-16.6V3.3l.6-.5c.7-.5.8-.5 1.3-.2.3.2.4 1.2.4 5.5 0 5.3.4 14 .6 14.4l.3 8.7c.2 4.7.4 10.2.6 12.2.2 3 .4 8.9.3 10.7 0 .6-.7 1.4-1.1 1.4l-.5-.3zm32.6-.8c-.4-.3-.4-.5-.1-1.3l.8-4.6c.4-3.4.6-6.2 1-20.4.2-10.5.5-16.6.9-17.4.6-1.4 2.6-1 2.2.5a336 336 0 0 0-1.2 26.2 1459 1459 0 0 0-1.2 15.8c-.3 1.4-1.4 2-2.4 1.2zm-6-1.4c-.2-.6-.1-2 0-3 .2-1 .5-6 .7-11a560 560 0 0 1 1.2-22.6v-3.3l1-1c.6-.6 1.3-1 1.5-1 .7 0 .8 1.2.3 2.8a50 50 0 0 0-1 7.4c-.4 3.6-1.2 18.6-1.4 23-.1 6-.4 8.8-.7 9.4-.1.3-.5.5-.9.5-.5 0-.6-.2-.8-1.2zm-53.3.5c-.3-.1-.3-1.5-.3-5.8 0-3.1-.2-6.5-.3-7.6-.1-1-.4-5.2-.5-9.1a75.8 75.8 0 0 0-.5-8.8l.3-8.9c0-8.8.2-9.6 1.4-9.6.8 0 1.2.8 1 2.2-.3 2.1-.7 8.3-.7 11 0 7 .1 13.2.5 17.6.5 7.6.8 18.3.4 18.8-.4.4-.7.4-1.3.2zm73-1.2c-.3-.6.4-35 1-38.1 0-.6.3-1.2.7-1.5l.6-.5-.5-.5c-.6-.5-.7-1.6-.2-1.8.5-.1 1.7.5 1.9 1 0 .3 0 .7-.4 1-.4.4-.5.6-.2 1 .2.4.2 1.5 0 3.8l-.3 5.4c0 4.4-.3 11.5-.5 16-.2 2.7-.3 6.7-.2 9 0 4.7 0 5.5-1 5.5-.4 0-.7-.1-.8-.3zm-66.7-3.2a1740.4 1740.4 0 0 0-.6-11.6l-.7-12.7a192.8 192.8 0 0 1-1-16.3l-.2-2.1.7-.5c.8-.5 1.9-.4 2.1.3a75.8 75.8 0 0 0 .2 15.7l.3 5L76 33c.4 4.7.5 15 .1 15.6-.3.7-1 .9-1.3.5zm11.3-3.4V41a70.5 70.5 0 0 0-.9-10.7c0-1.5-.4-5.1-.7-8.1a74 74 0 0 1 0-16.8c.4-3.4.8-4.2 1.6-4.3.8-.1 1.2 1 .9 2.3a67.2 67.2 0 0 0-.6 17.7 230.7 230.7 0 0 1 1 11.4c.2 1.7.6 11.9.4 12.6-.2.6-.4.8-1 .9-.4 0-.7 0-.7-.3z"/>
</svg>
