<?xml version="1.0" encoding="utf-8"?>
<svg xmlns="http://www.w3.org/2000/svg" xmlns:svg="http://www.w3.org/2000/svg" version="1.1" viewBox="0 0 230 98">
	<title>Mr. Tod pays the clothes line out of the bedroom window.</title>
	<path d="M1.6 97.2c-.8-.3-1-.7-.6-2.6.2-1.4 0-26.2-.2-41.5L.7 30A328 328 0 0 0 .2 1H3a977 977 0 0 0 46.7 0c.6-.5 2.2-.5 2.4-.1a43.4 43.4 0 0 1 7.3-.3c3 0 3 0 3 .4 0 .2 0 .4.2.4.1 0 .2-.2.2-.5 0-.4 0-.4.8-.4.6 0 1.2.3 1.4.5.4.4 1.2.3 1.7-.3.2-.2 2.4-.2 8.7 0a262 262 0 0 0 22.2.1c.1.2.6.2 1.1.1.5 0 1.4 0 2 .2.9.3 1.2.3 1.2 0 .2-.4 1.8-.6 3.8-.3l2.2.5c.4.2 4.2 0 4.6-.2.2-.2.4-.2.5 0 .2.4 3.8.6 4.2.3.2-.2.5-.2.7-.1.6.3 4.8.4 5.5 0 .4-.2.6-.2 1 0 .2.3.5.3.9 0a2 2 0 0 1 1.2 0c.4 0 .9 0 1-.2.3-.2.6-.3 1 0 .4 0 1.5.2 2.5 0a37.5 37.5 0 0 1 5.9.1c.6.2.9.1 1.3-.3.5-.7.8-.7.9-.2 0 .2 1 .3 4.1.3 11.1.2 25.9.2 47.7 0a462 462 0 0 1 30.5-.1c.1-.1 1.4-.2 2.9-.1 2.5.1 2.7.1 3.1-.5.5-.6 1-.5 1 .2 0 .2.3.6.5.8.4.2.4.4.2.5-.5.4-.6 1.4-.3 3 .2 1.4.6 14.4.5 18.1l-.3 31.3.3 13.9a333.4 333.4 0 0 1-1.3 27c-.2.2-8.4.3-18.2.4l-23.5.2-41 .3a3426.6 3426.6 0 0 0-48 .3c-3 0-17.2 0-19.4.2a864.4 864.4 0 0 1-48.3.6h-28zM93 93.5H118c24.5.1 25.6.1 25.4-.2a530.4 530.4 0 0 0-14.7-.8h-1.4l1.3-.3c.7 0 4.1 0 7.5.2l8 .4c1.1 0 1.7 0 2 .4.2.3.8.3 3.7.2 2-.1 3.5-.3 3.3-.4 0-.1-2.2-.3-4.8-.4-3-.1-4.8-.3-5-.5a53 53 0 0 0-12.8-.8c-9.8-.4-11.6-.6-4-.5a2606.6 2606.6 0 0 0 22.5.5l-2.3.1c-2.9 0-4 .4-1.8.7l5.7.3 4.3.1v-.7c0-.5-.1-.6-.6-.6-.4 0-.5 0-.2.2.2.2.4.3.3.4-.2.2-4.2-.2-4.2-.4 0-.1.2-.2.5-.2.4 0 .5-.1.4-.2-.1-.1-1.7-.4-3.5-.5l-3.4-.3h2.8c2.8 0 3.5-.2 1.6-.5l-1.2-.4a5 5 0 0 0-1.4-.4c-1-.1-1.2 0-1.5.3-.4.5-.4.5-.4 0s-.6-.6-5.8-1c-2.2-.1-4-.3-4-.4-.1-.1 4.3 0 8 .4 1.7.1 1.9 0 1.5-.3a59 59 0 0 0-13.1-1.1 32.1 32.1 0 0 0-10.6.9l5.5.3a63.7 63.7 0 0 1 11.8 1l-7.6-.5-9-.4c-1.8 0-18.5-.2-21.3-.1-.9 0-1.2.1-1.3.5-.1.6-1 .8-3 .5-1.5-.2-2-.6-1.3-1.2.3-.3 1.2-.5 3.4-.6a39 39 0 0 0 4.2-.5c.9-.2 1.7-.3 2.5 0l4.2.2 3.5.1c1 .1 5.1-.4 5.3-.6 0-.1-.1-.3-.4-.3-.3 0-.5 0-.5-.2.1-.1 1.5-.2 3 0 1.8 0 3.2 0 3.6-.3 1-.4.9-.5-1.1-.8-1.7-.2-1.7-.2 1-.2 2.6 0 4-.3 4.2-.7.2-.6-1.8-1-5.8-1.1-2.2 0-4.3-.3-4.6-.4a77.7 77.7 0 0 0 11.8.1c0-.3-1.2-.5-3.6-.7h-1.3l1.5-.1c1.4 0 1.6-.1 1.5-.5 0-.4-.5-.5-2.6-.7-2.7-.2-3.2-.1-3.2.5 0 .3.3.4.9.4.5 0 1 .1 1.4.3.9.4-6.2-.3-8.8-.8l-12.8-.3H89.4l-.6.7c-.3.5-.8 1-1 1-.3 0-.7.5-1 1-.2.5-.5.7-.8.6-.2 0-.8.1-1.3.4-1 .6-1.7.5-2-.3-.1-.7-.5-.7-.5 0 0 .8-.5.7-.7-.2 0-.4-.4-1.3-.7-2-.3-.8-.5-1.8-.5-2.4v-1.1l-1.9-.2h-8.2c-4.4 0-6.2 0-5.8-.1.3-.2 3.8-.3 8-.4 5 0 7.6-.1 7.7-.3.3-.5.2-.9-.3-1.4-.5-.5-.5-.5 0-2.7.4-1.5.5-2.3.3-2.6-.2-.3-.1-.7.3-1.5s.4-1 .1-1.2c-.3-.2-.3-.4 0-1.1.7-1.8.7-2 0-2s-.7 0-.7 1.2c0 1.6-.3 3.2-.6 3.2l-.2-.4c0-.2-.1-.4-.2-.3-.2.1-.3 1-.4 2l-.3 2.1a131.2 131.2 0 0 0-10.4 1c-.5-.4.8-.7 5-1 2.5-.1 4.7-.3 4.8-.4l.3-1 .2-1h-2c-2.6 0-2.7-.4-.1-.5 1.6 0 2-.2 2-.6 0-.5 0-.5-3.2-.3h-3.4c0-.4 2.3-.6 4.7-.6 1.2 0 2-.2 2-.3 0-.2 0-.2.4 0 .8.4.9.3.9-.3 0-.5-.2-.5-5-.4-2.8 0-5.2 0-5.2-.2-.2-.2 2.7-.4 6-.4 1.3 0 2.5-.1 2.5-.2.4-.3-.5-.4-4-.4-6.2.2-8.7.2-9.1 0-1-.3.4-.4 6.2-.4 3.5 0 6.6-.2 6.7-.2.7-.5-.3-.7-3.1-.7-2.1 0-3 0-2.7-.3a6 6 0 0 1 2-.2c1.6 0 2-.3 1.4-.7l-4.6-.1c-9.3.1-9 0-9 .6-.2.4.2.5 4.1.5 2.6 0 4 0 3.6.2l-4.3.2c-2.3 0-3.5.2-3.5.4 0 .1-.1.2-.3.1l-.4-1.5-.4-2.5-.1-1c0-.8-.2-1.1-.6-1.2-.2-.1-.3-.3-.2-.4.2-.1.2-.6 0-1.3a15 15 0 0 1-.1-2.2 45.7 45.7 0 0 1-.6-7.4l-.4-6.2c-.3-.3-.6.7-.5 1.8a430.6 430.6 0 0 1 .6 14.5c.2 1 .2 1.2-.2 1.2-.3 0-.4-.4-.4-2a384.2 384.2 0 0 0-.7-14.6c0-.7 0-.9-.4-.9s-.4.3-.2 3.2c.1 1.8.2 6 .1 9.2 0 5.2 0 5.9.4 5.9.2 0 .4 0 .4.2s-.2.3-.4.3-.4.2-.4.4-.1.3-.2.3c-.3-.2-.5-6.3-.4-10.7 0-1.4 0-2.5-.2-2.5-.3 0-.3.7-.3 9.6 0 3.8 0 6.2-.2 5.8l-.3-6.6c0-8.3-.6-7.7-1 1.2 0 2.1-.2 3.8-.4 3.8s-.2-1.7.1-5.8c.3-3.9.4-13.4 0-13.9-.3-.5-.5 1.1-.5 5 0 2-.1 3.6-.3 3.7-.4.2-.6-3.5-.3-6.2.2-2.5 0-3.3-.5-2.7-.3.3-.4 21.5-.1 22l2.6 1.1c2.8 1 3.6 1.6 5 4.1l1.1 1.6c.6.6 3 1.7 3.8 1.7.4 0 .9.1 1 .3.5.5-.1 2-1 3-.7.6-.8.8-.7 2.3 0 1.4.1 1.7.6 1.6 2.5-.2 12.4-.3 12.2-.2-.1.2-.8.3-1.6.3-.7 0-3.7 0-6.5.2l-5.2.2-.3 1.4c-.7 2.5-4.9 6.1-9 7.7l-1.5.6v1.7l.3 1.8 14.2.2a324 324 0 0 1 16 .2l10-.2zm41.4-3.4a1823.6 1823.6 0 0 0-7.7-.6c13.1.2 17.3.3 17.4.5l-1.5.1-2.7.1-5.5-.1zm-27-4.4h.5c0 .1-.1.2-.4.2-.3 0-.4-.1-.1-.2zm3.5 0h2.4-2.3zm.1-1.4c-1.9-.1-3.5-.3-3.6-.4-.2-.3 7.5.2 8 .4.4.3.6.3-4.4 0zm6 0h1.4c.4.1.1.2-.7.2-.8 0-1.1 0-.7-.1zm-19-.5c-.7-.2-.6-.2.5-.3.8 0 1.5.1 1.8.3.4.3-1 .3-2.3 0zm4.7 0h2.4l-1.3.1h-1zM93 82.2c-.8 0-1.5-.2-1.5-.3 0-.2 2.7-.3 6.9-.3 6.2 0 8 .2 6.7.7H93zm15 0zm-38.7-.6c0-.1 1.4-.2 3.7-.2 2.4 0 3.7 0 3.6.2-.1.2-1.7.3-3.7.3-2.2 0-3.6 0-3.6-.3zM65 76.7c0-.2 2-.3 5-.5a3974 3974 0 0 0 8.8-.1 1134.7 1134.7 0 0 0-10.6.7c-2 .1-3.2 0-3.2-.1zm3.2-2v-.2c2.6-.2 8.7-.3 9.1 0 .4.2 0 .3-2 .3a250 250 0 0 0-7 0zM58 61.1h1l-.5.1c-.6 0-.8 0-.5-.1zM38.5 93.3c.2-.1.3-.4.2-1-.3-1-.3-1 0-8.4.1-6.1 0-11-.4-11a2971.9 2971.9 0 0 1-1 16c-.1 2.5-.1 2.6.3 1.9.3-.8.3-.8.4.8 0 1-.1 1.7-.4 1.8-.2 0-.2.1.1.1.2 0 .6 0 .8-.2zm7.9-6.1c0-3.5 0-6-.2-5.8l-.2 1.3c0 .6-.2 1.2-.3 1.5-.3.6-.5 8.6-.2 9.1.1.2.3.2.5.2s.3-1.9.4-6.3zm-5.9 4.7c.3-1.9.2-3.2-.1-4.3-.2-.5-.3-1.1-.2-1.4l.3-2.4.3-3.9c.3-5.5.1-8.2-.7-7.4-.2.3-.4 12.7-.3 18.5 0 2.5.4 3 .7 1zm3.7-.4c.2-2.6.2-9.3-.1-8.8-.6 1-.9 10.6-.3 10.6.1 0 .3-.8.4-1.8zm121.9.9a29 29 0 0 0 0-5.4c0 1-.2 1.3-.5 1.2-.3 0-.5.1-.6.6 0 .4-.2.8-.3 1-.2.1-.2.6-.1 1v1c-.2.5-.2.5-.4.2-.5-.7-.3-3.4.2-4.9.6-1.6.7-1.8.6-14.4v-9.5l-.9-.2-1.6-.5h-1c0 .1-.3 4.2-.3 9-.2 9.2-.3 11-.7 15-.2 1.4-.2 3.3-.1 4.4.2 1.8.3 2 .8 2 .5.1.6 0 .7-1.5 0-1 .3-2.5.4-3.5.2-1.3.3-5.5.2-12.6 0-5.9 0-11 .2-11.3.4-1.2.6-.6.4 1.3v10.5c0 5.7 0 9.5-.2 11.1-.6 5.4-.7 5.9-.3 6.2.2 0 1 .2 1.8.1 1.4 0 1.5 0 1.7-.8zm3.6.5c.4-.2.4-4.3 0-4.5A323.4 323.4 0 0 0 170 72c0-5 0-6.9.3-6.9a192.6 192.6 0 0 1 0 20c.2.3.3 1.8.3 4 0 3.6 0 3.7.7 3.8.6 0 .6 0 .5-1.8l-.4-2.1a236.8 236.8 0 0 0 .2-14.9V65l-1.6-.4a6 6 0 0 0-1.7-.2v12.3c.1 11.5 0 14.7-.4 14.7 0 0-.2-6.1-.2-13.6 0-10.3-.2-13.8-.4-14-.5-.2-1.5-.2-1.6 0-.3.5-.4 11-.3 13.8.2 2.7.6 2.6.6-.1 0-.9.2-1.4.3-1.4.2 0 .3.5.2 1.8l-.4 4.7c-.1 2.7 0 3 .3 3 .4 0 .4.4.3 3.7 0 2.6 0 3.7.2 3.8.3.1 2.1 0 2.8-.2zM42 91.6v1.1-1zm-15.4 1c.1-.2 0-.4-.1-.5-.4-.3-14.3-.4-16-.2-1.3.1-1.3.5 0 .6 2 .3 16 .2 16.1 0zM32 92c.2-.8 0-1.4-.4-1.4-.1 0-.2.5-.2 1.1 0 1.2.4 1.4.6.3zm16.1-3.8a872.8 872.8 0 0 0 0-42.5c-.2.3-.6 16-.6 31.4 0 15 0 15.7.2 15.6.2-.1.3-2.1.4-4.5zm108.4 4h-.6l.1.3c.2.1.5.2.6 0l-.1-.3zm3.2.3c0-.1-.1-.3-.3-.3l-.4.3c0 .1 0 .3.3.3.2 0 .4-.2.4-.3zm14.6-1.7v-7a5708.7 5708.7 0 0 1-.4-19c-.1-.1-.3.2-.5.6-.1.5-.2 4.2-.1 11.3 0 12 0 13.9-.6 14.2-1 .4-.4 2 .7 1.8.7 0 .7-.2.9-2zm2.9-.9c0-2 0-2.8.2-3.1.3-.4.4-3.3.4-16 0-14.7.1-17.7.7-17.7a373.1 373.1 0 0 0-.2 18.6 133.7 133.7 0 0 1-.5 20c.2.8.3 1 .7 1 .5 0 .5-.2.5-3.2l.1-3.7c.5-1 .6-.3.5 2.6-.2 3.7 0 4.4.9 4.4.6 0 .6-.1.6-1.3a47 47 0 0 1 .4-6c.2-2.3.3-2.8.6-2.8s.4.2.2 1.1l-.3 5-.2 4h1.3l1.3-.2.1-5c0-2.7.2-4.9.3-4.9.1 0 .3-1.6.4-3.6a104 104 0 0 1 1.5-19 450.4 450.4 0 0 0-1.3 32.6h.8c.5-.2.5-.4.4-3l.1-2.8c.1 0 .3 1.3.4 2.8l.2 2.7 1 .2h1.1c.1-.2.3-2.3.4-4.7l.5-4.6c.2-.1.4-3.2.6-7.3.3-7.3.6-10 1.2-10.7.3-.5.4-11.8 0-24.5v-14a448.4 448.4 0 0 0 .8-21.9c0-1.2 0-1.2-1-1.3-.9 0-1 0-1.1 1.1l-.4 10.8a49 49 0 0 1-.5 10.3c-.4.7-.5 5.5-.3 30.5 0 10 0 11.6-.6 11.1v-6.2c.2-3.5.2-8 .1-10.5a353 353 0 0 1 .6-34.8c0-3 .2-7 .3-8.8l.2-3.2-.7-.1-2-.2H186l-.2 3a170 170 0 0 0-.2 8.5c0 3.5 0 5.8-.2 6.3a50 50 0 0 0-.5 6.9l-.2 8.6-.3 12c-.1 10.8-.5 19.6-1 23l-.3 10.8c0 7.6-.1 9.4-.5 9v-3.4c.2-1.9.1-6.5 0-10.2-.3-7.7 0-12.2.5-12 .5.2.6-2 .8-15.4a505.7 505.7 0 0 1 1.2-37.4c.1-4.7.3-8.8.4-9.1.2-.6 0-.6-.9-.6-1 0-1 0-1.2.7a63.2 63.2 0 0 0-.4 16.4c-.2 1.3-.3 7.3-.4 13.3a500 500 0 0 1-1.2 34.4c-.3 0-.3-4 0-8.3l.5-23.3c.3-21.8.4-28.3.7-31.3l.2-1.9h-1.9l-.2 2-.1 5.3a246 246 0 0 0-.8 29.5c0 9.5 0 17.7-.2 18.2-.1.5-.2-3.2-.2-9.5 0-5.8 0-12.6-.2-15.3 0-3.2 0-7.3.2-11.7a698.6 698.6 0 0 0 1-18.3c.2-.4.1-.5-.4-.5-1.3 0-1.3.4-1.6 7.3a175.6 175.6 0 0 0-.9 23.6c0 16.7-.3 25-.8 26-.3.4-.4 3.6-.4 12.3 0 11.4-.1 17.6-.4 17.6a6451 6451 0 0 0 0-22.3c0-6.2.2-9.2.4-9.5.4-.5.6-6 .6-14.5a370.9 370.9 0 0 1 1.3-40.4h-2.5v8.3c.1 4.5 0 8.8-.1 9.6-.2 1.1-.2 0-.3-4.5 0-3.9-.1-6-.3-6-.1 0-.2.3-.2.9 0 .5-.2 1-.5 1.1-.4.2-.4 1-.2 9l.3 10.2.4 56v4.8h1.3l1.2-.2zm10.4-3.6c-.4-7-.3-21.3.2-24.2.2-1.4.5-2.5.6-2.6.3-.4.3.2 0 2.3a94.8 94.8 0 0 0-.2 24.2c.3.3 0 4.6-.2 4.6-.1 0-.3-1.9-.4-4.3zm-7.2-3.7-.3-10c-.3-4.6-.4-11.6-.1-12.6.3-1.4.5-.3.4 4.3 0 2.6 0 6.3.2 8.2.6 9.8.6 16 0 16 0 0-.2-2.6-.2-5.9zm6.3 3.3c0-.5 0-.7.2-.5v1c-.1.2-.2 0-.2-.5zm0-2c0-.7 0-1.2.2-1.2.3 0 .3.6 0 1.6-.1.6-.2.5-.2-.5zm1.7-2.7.3-5.8c.1-5.2.3-7.5.6-7.5.4 0 0 12.9-.4 14-.3 1-.7.5-.5-.7zm-4.7.3.2-3.7a549.9 549.9 0 0 0 1.2-11.8l.2-1.2v1.6c0 1.5 0 3-.8 9.4l-.3 4.2c-.1 1.5-.3 1.9-.5 1.5zm7.1-16.4c-.3-1.3.3-12.3.7-12.3.2 0 .2 1.8 0 5.4a158 158 0 0 0-.3 7.2c-.2.3-.3.3-.4-.3zm-5.4-4.2.3-3.2c.3-1.8.4-4.8.4-13.2a127.5 127.5 0 0 1 1.5-24.8c-.3-4.3-.4-12.3-.2-13.5.3-2.2.5-1.4.5 2l.1 11c.1 7.2 0 8.6-.5 7.7-.2-.2-.3.2-.4 1.2-.4 3-.4 4.4-.4 16.1 0 8.7-.2 12.3-.5 14.3-.4 2.6-.9 4-.8 2.4zm6-11c0-.4.1-.5.2-.3v.6l-.1-.3zm.3 39.2c.2-4.1.2-3.9.5-3.6 0 0 .2 1.7.2 3.6v3.5h5l.2-1.2.2-4.2c0-1.8.2-3.3.3-3.5.1-.2.2 1.5.1 4.2v4.6c.2 0 .4-1.6.5-3.5.1-3.4 0-6-.6-6.7-.2-.1-.3-.6-.3-1v-7c0-6.6.3-12 .8-12.4.2-.2.3.2.1 1.4a82 82 0 0 0-.4 16.6c.2.1.3 0 .3-.2s0-.2.2 0c.3.4.4 3.7.4 9.2 0 3.4 0 3.7.5 3.7s.5-.4.5-7.2c0-4 0-8.7.2-10.3.2-2 .2-4 0-6-.4-4.6-.2-30.8.2-30.8.1 0 .2 1.2.2 2.8 0 1.6.2 3.1.3 3.4l-.1 3.2a208.7 208.7 0 0 0 1.8 38.6c.2-.1.3-.5.3-.8a139 139 0 0 0 .3-13.7c0-8.7 0-15 .2-18.7.3-6.6.4-7.2 1-7.2.3 0 .4-.4.2-3.7a871 871 0 0 1-.4-31.4c0-3.7 0-5.1.3-5 .2 0 .3 4.4.4 15.3a510.3 510.3 0 0 0 1.2 35.7c0-.8.4-1.5.5-1.2v3.6c-.2 1.8-.3 8.3-.2 14.5 0 6.2 0 13-.2 15l-.2 3.7.8.2h1.1a83354.4 83354.4 0 0 1 .7-25.4c.1-7-.2-21-.8-30.4l-.2-17.3-.1-15.5c-.1-.2-.5-.4-1-.4-.7 0-.7 0-.6.7.3 1.9.3 21-.1 20.5-.2-.3-.3-4.2-.3-9.6 0-5 0-9.6-.2-10.3-.2-1-.2-1.2-1-1.3-.8 0-.8 0-.8 1.1l-.3 3c-.7 4.4-.9 11-.8 25 0 9.5 0 14.6-.2 14.8-.2.2-.2-5.7-.2-17.5 0-15.8 0-18.3.5-21.9.4-3.4.4-4 0-4.3-.6-.4-.9-.2-1 1-.6 3.5-.7 5.7-.7 12.5a41 41 0 0 1-.3 7.3c-.2 0-.2-3.9-.2-10 0-8 .1-10 .4-10.3.5-.5.4-.7-.5-.8h-.6v3.7a108.7 108.7 0 0 0-.2 22.7c.3 4.9.3 7.9.2 12.9l-.3 7.6c0 .9-.1 1.2-.4 1.2-.2 0-.5.2-.6.5-.2.6-.9 7.3-1.2 12.6l-.5 4.5v-2.5c0-1.9 0-2.5-.2-2.3-.2.3-.3 4.3-.3 14 0 9.8 0 13.7-.3 13.8-.4.1-.6-1.7-.3-4.3.3-3.2 0-9.3-.4-8.9-.4.3-.7-1.7-.5-3.5.2-2 .6-1.5.7 1V64c0-10.2 0-18.4-.2-28.1a48 48 0 0 1 0-9.5c.3-.1.4 1.3.4 5.5 0 10.7.4 8.7.6-3.4a297.2 297.2 0 0 0-.5-25h-.5c-.6.3-.6 2 0 3 .3.7.4 1.4.2 3.9a299.6 299.6 0 0 0-.5 12.3l-.1-6.4c0-5.8-.4-12.5-.7-12.8-.3-.3-.4.4-.5 3.4a83.7 83.7 0 0 0-.6 12.2c0 3.7-.2 8.5-.4 10.6a108 108 0 0 0 0 11.1l.2 13.6c0 8-.4 18.9-.7 17.7-.5-2.6-.8-.8-1 8.5-.1 6.8-.2 8-.6 8-.3 0-.4.3-.4 1.4-.2 2 0 2.7.8 2.6.5 0 .6-.2.7-3.6zm2.6 3c-.2-.4 0-10 .3-10a75.7 75.7 0 0 1-.3 10zm-1.4-10a243 243 0 0 1 1-19.7c.2-2.5.3-3.7.5-3.4.3.4 0 7.3-.6 12.2l-.4 9.4a76 76 0 0 1-.4 7.5c-.1.3-.2-2.2 0-6zm10 10.6a2190.5 2190.5 0 0 0-2-15.2 56.6 56.6 0 0 0 .3 11.2l-.2 2.4v1.7h.9l1-.1zm2.7-.2c.2 0 .3-5.7.4-16.3 0-10.6 0-16.3-.2-16.2-.3.2-.6-6-.6-10.9 0-2.7-.4-3.7-.6-1.6-.4 4-.5 6.9-.5 22.8a86.8 86.8 0 0 1-.8 19.3c0 2.5.3 3.2 1.3 3h1zm4.7-.2c.4-.3.5-1 .5-3.2 0-4.3 0-9.5-.2-17.2v-7.4c.2-.3.3 1.4.4 4.6.1 3.4.2 5 .5 5 .8.3.8-14.8 0-26l-.4-13.5c-.2-11 .2-18.7.8-19.2.2-.2.3-1.6.3-6V3.7h-4l.1 1.6.2 16.6c0 8.2.2 17.5.4 20.7A558 558 0 0 1 209 91c0 .8.3 1.8.7 1.8.1 0 .4-.2.6-.5zm-.6-79.5c0-6.8 0-8.7.3-8.6.4.1.4 16.5 0 17-.2.1-.3-2.7-.3-8.4zm8.8 79.7.3-3.2.6-13.9c.1-3.1 0-3.2-.5-3.4-.5-.1-.5-.2-.3-2.2.3-2.8.1-11.5-.3-16.5a511.3 511.3 0 0 1-1.2-14.5c-.1-1.8-.3-8-.3-13.8 0-9.8-.2-11.8-.6-6.9l-.3 2.2a361.3 361.3 0 0 0 .6 48.2l.2 1.4.3-1c.2-.7.3-2.4.3-4 0-3 .3-4.5.6-4.3.3.2 0 8.4-.3 8.8-.4.5-.5 2.8 0 4.4.1.8.3 1.7.2 2-.1.4-.3 16-.2 16.8 0 .2.8.2 1 0zM218 57v-.4.9-.5zm-5.6 33.4v-7c-.1-4-.2-5-.5-5-.2 0-.4.2-.4.3v7c0 6.1 0 6.8.3 6.8.4 0 .5-.4.6-2zm1.4 1.1.1-6.9c0-3.7.1-5.9.3-5.9.3 0 .3-.3.3 7.5 0 4.3 0 6.3.2 6.3s.4-.2.5-.4c0-.2.2-.4.3-.4.2 0 .3.2.3.4 0 .7.7.4.9-.4a49.6 49.6 0 0 0-.2-8.8c-.3.2-.3-.8-.2-5.4 0-4.5 0-5.7-.3-5.5-.2.3-.4 5-.5 17.2 0 .5 0 .5-.3 0-.3-.6-.4-3.5-.1-11.3.2-6.8.3-8.4.7-8.7.2-.1 0-2.4-.1-5.3a311.5 311.5 0 0 1-.6-41.7c.2-2 .1-2.8 0-3-.3-.1-.3-1.6-.1-6.6.2-5.2.2-6.5 0-6.7-.3 0-.4-.6-.4-1.2 0-.9 0-1-.8-1l-.9-.1v19c-.2 0-.3-.5-.3-1.2 0-1.7-.4-3.9-.5-3l-.2 1.5a246.8 246.8 0 0 0 .4 30.5c.2 2.6.4 9.1.4 14.6.2 17 .5 27.5.7 27.5l.4-1zm.3-19c-.2-1.2-.3-17 0-17.2.2-.3.5 4.9.4 11.2l-.1 7.1-.3-1zm6.4 18.5c.2-1 .3-4.8.3-11 0-7 0-9.6.2-9.7.3 0 .5 11 .4 18.7l-.1 3.5h.6c.5-.1.7-.4.8-1.2v-2.2c0-.9 0-1.1.3-1.1.6 0 .6-.3.5-3.4l-.2-2.8-.2 2.5a8.9 8.9 0 0 1-.4 2.7 154.7 154.7 0 0 0 0-12.4 2998 2998 0 0 1 0-59.2c.1-4 .3-7.3.4-7.3.2 0 .2 1 .1 17.6-.2 28.9 0 51 .4 49.7.4-1 .6-.2.6 1.5 0 1.2.1 1.8.3 1.7.2 0 .3.1.3.5s-.1.7-.3.6c0-.1-.3 0-.3.2-.2.4 0 11 .2 11.2 0 .1.3 0 .6-.3.4-.4.4-1.3.5-8.3.1-7.8.1-7.8-.4-7.6-.4.1-.6 0-.6-.1 0-.2-.1-.3-.2-.2-.5.3-.6-.4-.3-1.4.3-.7.3-2.5.3-6.9 0-6.7.4-12.9 1-13.3.4-.1.4-1.1.3-6.2-.3-10.7-.2-36 .1-36.4.4-.4.1-4.8-.3-5.3-.3-.2-.4 1-.4 6.2l-.1 7c-.5 1.2-.6-.5-.5-5.5v-7c-.3-1.4-.4-1.5-1.3-1.9-.5-.2-1-.3-1.1-.2-.2.1-.3 2.1-.5 8.8a14 14 0 0 1-.4 3.7c-.1 0-.3-.2-.4-.6-.4-2.8 0 23.3.5 29.5.2 2.8.5 15.2.3 15 0 0-.3-2.8-.4-6.1l-.7-13c-.4-6.8-.6-31.6-.2-32.1 0-.2.3-.2.5 0 .3.3.4-.1.4-2.5V3.6h-1.9v2.6a212.7 212.7 0 0 1-.5 12.7c-.2 0-.3-2.7-.3-7.6V3.6h-1c-1 0-1 0-1.2.9-.2.8-.7 8.7-.6 10.6v1l.3-1c.1-.7.5-1.3.7-1.5.3-.1.4-.7.4-2.1 0-1.6 0-2 .4-2 .3 0 .3.5.2 3.5v14.5c0 11.5 0 11 1.6 30.6a92.3 92.3 0 0 1 .5 6.7c.1-.4.3-.7.4-.7.2.1.2.1 0 2.9a474.2 474.2 0 0 0-.5 23.2v2.1c.4.5.6 0 1-1.3zm-63.6.4c.2-.3-.3-1-.7-1l-.2.6c0 .7.6 1 1 .4zm2.6-2.4c-.2-1.2-.2-1.7.1-2 .6-1 .8-3.6 1-14.5l.2-10.3-1.8-.5c-2-.5-2.5-.4-2.5.5l-.2 3.9c-.3 3.4-.6 12-.6 18.3 0 4.3.2 5.6 1 5.6.4 0 .5-.3.6-2 .2-1.3.4-2 .6-2.3.4-.2.5-1.3.3-10.2a55 55 0 0 1 .3-12.8 330.3 330.3 0 0 1 0 23.5c-.3.2-.4.8-.4 2.3 0 1.1.1 1.8.2 1.5.2-.6.6-.5.6.2 0 .3 0 .7.2.8.4.4.5-.6.4-2zm-133 1.5A122.6 122.6 0 0 0 7.1 90v.4c.2.2 3.2.2 9.9.2 5.3 0 9.6 0 9.5-.1zm2.9-4.9c.1-3.3 0-7.3-.3-7-.3.2-.7 8.8-.5 10.3.3 2.9.7 1.3.8-3.3zm.8 4.5c0-.2-.1-.2-.1.1 0 .3 0 .5.1.4V90zm125 .4c0-.4-1-1-2-1-1.2 0-1.4.3-.9.8.3.3 2.9.5 2.9.2zM6.6 90a1 1 0 0 0-.7 0c-.2.1 0 .2.3.2.4 0 .5 0 .4-.2zm144.9-.3c0-.2-.3-.3-.5-.3-.6 0-.7.3-.4.6.2.2.9 0 .9-.3zm21.4-10.3c0-9-.2-14.2-.5-13.9-.3.3-.4 22.5-.1 23.7.2.9.2.8.4-.7l.2-9.1zM155 88.2l.3-10.1c.1-5 .3-10.8.5-13 .2-3.1.2-4-.1-4.1-.4-.2-2.1-.6-2.2-.5l-.3 9.8c0 5.3-.2 11.6-.3 14l-.1 4.2.8.4c1.3.6 1.3.6 1.4-.7zm-127.6.1c0-.2-.3-.8-.7-1.2-.5-.7-.7-.8-2.7-.8a2447 2447 0 0 1-14.6-.4H7.7l2 .3 8.8.6c7.7.5 8.2.5 8 1.2 0 .3-.3.4-1.4.4l-14.6-.8c-1.9-.2-2.2-.2-2.2.2 0 .3.2.5.4.6.4.1 18 .6 18.4.4.1 0 .3-.3.3-.5zm22.2-.4c0-.8 0-1-.3-.6-.2.4 0 1.8.2 1.8l.1-1.2zm101.7.8c0-.3-.5-.5-1-.5H149c-.2 0-.4 0-.4.2 0 .3.9.6 2 .6.7 0 .8 0 .7-.3zm-108.8-2c.7-4.5 1.3-20 .9-19.5-.2.1-.4 2.5-.6 5.3a559 559 0 0 1-.6 8.6c-.5 6.6-.5 7.2-.2 7 .2 0 .4-.6.5-1.3zm110-.2c0-1 0-1.7-.2-1.7s-.3.8-.3 1.7c0 1 .1 1.8.3 1.8.1 0 .2-.8.2-1.8zm-1 .6c0-1.9.3-2.5.7-2.5.3 0 .3-.6.3-3.3l.2-12.1v-9l-1.5-.4-1.3-.1v1.5l.4 5.4c.4 4.4.5 19.7.1 20-.1 0-.2-3-.2-8.2a92.7 92.7 0 0 0-1.4-19L147 59l-3.8-1c-3-.7-3.9-.8-4-.2-.3.7-.3 3.2.2 14.8.4 10.2.5 10.9 1 11.5.3.3.7.6 1 .6.5 0 .5-.2.4-12.9-.1-8 0-12.8 0-12.8.2 0 .3 1.2.3 2.8 0 7.1.4 23 .5 23.2l.7.2c.5.1.6 0 .8-2.1V70l.1-11c.3-.1.7 16.7.5 22.2-.2 4.5-.3 4.3 1.6 5l1.2.4.3-.9c.5-1.2.7-1.1.5.1-.1 1-.1 1 1.1 1.6 1.6.7 1.8.6 2-.3zm-4.6-12.5a422.1 422.1 0 0 0-.2-14.5c.7.7 1.3 25 .6 25-.1 0-.3-4.7-.4-10.5zm43.7 12.1c-.1-.2-.2 0-.2.4s0 .6.2.4v-.8zm-183.9.7c-.3-.3-1.5-.4-1.5-.2 0 .1.3.3.8.3s.8 0 .7-.1zM55 87l1.7-.8a8 8 0 0 1 1.4-.8 9.7 9.7 0 0 0 3.3-3.1c.2-.4.5-1.4.6-2.3l.1-1.5-.5.7c-.3.3-.8 1.1-1 1.7-.4.7-1 1.5-1.6 1.9l-2 1.6c-1.4 1.2-4 2.3-4.3 2-.1-.2 0-.5.4-.7.3-.3.5-.4.3-.4-.9 0-1.8 1.4-1.2 1.9.3.3 1.4.2 2.8-.2zm92.1.2c-.1-.4-2.2-1-2.4-.8l.2.6c.3.4 2.5.6 2.2.2zm-6.7-.7c-.6-.5-4-1-8.9-1.1-3.7-.2-5 0-4.5.5l4.8.5a115.7 115.7 0 0 1 7.4.4c1.3 0 1.5 0 1.2-.3zm3.3-.6c-.5-.4-1.2-.5-1.2-.2 0 0 .2.4.6.7.4.3.6.4.8.2.2-.2.2-.4-.2-.7zm-94-2.1.4-9.5a904.6 904.6 0 0 0 .1-32.6c0-4.5-.2-6.2-.7-5.6-.2.1-.2 4.6-.1 10l-.1 29a91 91 0 0 0 .2 11.4s.2-1.3.2-2.7zm-14.7 0-.1 1c0 .9 0 1.3.1.8V84zm106.5 1.2c-.2-.3-2.4-.7-2.2-.4.3.2 2.2.9 2.4.7 0 0 0-.2-.2-.3zm-4.2 0c-.4-.4-3.3-1.3-4.2-1.3-.6 0-1-.2-1-.4 0-.4-.5-.7-1.1-.7-.2 0-.3.2-.2.5 0 .3-.1.6-.3.8-.8.6-.5.8 1.5.8l3 .3c1.9.3 2.6.3 2.3 0zm-81.7-.5c2-1.4 3.7-3 4.4-4.3a125.2 125.2 0 0 1 2-4c0-.5-1.7 1.6-2.3 2.8-.5 1-2.3 3-4.3 4.5-.6.4-1 1-1 1.1 0 .5.2.5 1.2-.1zm-33.2 0a65.8 65.8 0 0 0-9.7 0c5.3.2 10.4.2 9.7 0zm106.8-.6c0-.2 0-.3-.2-.2-.2 0-.4.3-.5.5 0 .2 0 .3.2.2.2 0 .4-.3.5-.5zm9.6.3c0-.2-.2-.3-.5-.3-.4 0-.4 0 0 .3.5.3.5.3.5 0zm.4-1.4c.2-.7 0-5.5-.4-15.4l-.4-8.6c0-2 0-2-.8-2.2h-1c-.2.1-.2 2.4-.1 6.4.5 19.8.5 19.2.1 19-.2 0-.3-.4-.3-.7.2-1.6-.5-24.5-.7-24.8-.2-.2-.6-.4-1-.4l-1.5-.4c-.5-.1-.7 0-1 .7-.3.4-.6.8-.8.8-.8 0-1 1.9-.9 8.7.1 8 .4 14.6.7 14.7h.7c.3-.1.4-.4.2-1.1 0-.6 0-1.8.2-2.8a77 77 0 0 0 0-10c-.3-7.7-.2-10 .2-10 .3 0 .5 13 .4 19.9l-.1 4.7.7.3c2.3 1 4.8 1.8 5.2 1.8.2 0 .5-.3.6-.6zm-115.5 0c-.5-.2-1.3-.3-5.7-.2-2.3 0-3.5.1-3.2.3.7.3 9.4.3 8.9 0zM57 81.3c1-1 2-2.2 2.3-2.7.8-1.5 1.7-2.7 2.3-2.7.3 0 .5-.2.5-.5 0-.4-.2-.5-.8-.5-.6 0-.8-.2-.8-.4 0-.3-.3-.4-.6-.4-.4 0-.5 0-.3.3.3.2 0 .9-3.7 6-1.2 1.8-1.5 2.7-1 2.7.2 0 1.1-.8 2-1.8zm-3.7.9c.2-.2.2-.6.1-.8-.1-.4 1.2-2.4 2.4-3.9.3-.3.9-1 1.1-1.6l.6-1-.8-.8c-.6-.8-.8-.9-1.3-.6-.2.2-.7.3-.9.3-.3 0-.4.2-.3.8.2.6 0 1.3-.8 3-1 2.1-1.6 4.1-1.3 4.7.3.4.8.3 1.2-.1zm1.6-6c0-.5.5-1.2.7-1 .2.2-.1 1.5-.4 1.5-.2 0-.3-.2-.3-.4zM84 82l1 .3c.4.3.5.3 1-.3.3-.4.5-.9.5-1.2 0-.4 0-.4-.5 0-.6.6-.8.5-1-.4 0-.4-.3-.8-.5-.9a.6.6 0 0 1-.4-.5c0-.2-.1-.4-.3-.4-.2 0-.2.2-.1.6.2.7 0 1-.5.7-.4-.4-1.7 0-1.5.4 0 .2.2.4.4.4.4 0 .7.6.7 1.4 0 .4 0 .5.3.2.2-.1.5-.3.8-.3zm-60-.6-.1-.5c-.4-.3-16.5-.5-17.6-.1-1 .2-1 .6-.2.8.8.2 17.7 0 17.9-.2zm104 0-.6-.2c-.2 0-.4.1-.4.3 0 .1.2.2.5.2s.5 0 .4-.2zM30.4 80c0-.2-.2 0-.2.3 0 .4.1.5.2.4V80zm16-.3c0-.6-.1-.7-.3-.4-.4.5-.4 1.3 0 1.3.1 0 .2-.4.2-.9zm82.6-.6L129 73c-.3-8.7-.3-10.8.2-13.7.2-1.5.6-3 .7-3.1.4-.5.1-.8-1-1-.7-.1-1.4-.4-1.7-.6-.4-.2-1-.4-1.7-.4l-1-.1v1l-.2 12.4-.1 11.2 1 .5c.5.3 1 .5 1.2.3l.3-11.9c0-6.9.2-11.6.4-11.6.3 0 .2 19.8 0 22.3-.2 1.5-.2 1.5.7 2l1.2.3.2-1.4zm-15.9 1c-.1-.2-2.5-.3-6.3-.4-7.4-.2-12.6-.4-12.6-.7h10.9c0-.6-.4-1-.8-1-.3 0-.6-.2-.7-.3l.1-.3c.3 0 .5-.7.3-.8a116.6 116.6 0 0 0-10.2-.6c-1.2 0-1.3 0-1.4.7v.7h5.4c3 0 5.4 0 5.4.2l-5.8.1h-5.6l-.9.8c-1.6 1.4-1.4 1.5 3.5 1.6 15 .3 19 .3 18.7 0zm9.4-.8c-.9-.5-3.4-.8-3.4-.3 0 .4 1.2.8 2.8.8h1.6zM36.7 77v-2c-.3 0-.6 3.3-.4 4 .2.8.3.5.4-2zm75.4 2.4c.3-.2-.5-1.1-1.2-1.5-.5-.3-.5-.3-.2.1.4.6.2 1-.6 1h-1.6l.5.2c.6.3 2.8.4 3.1.2zM18 79c-3.3-.3-9.5-.3-10.6 0-.4 0 2.4.2 6.2.2 5.1 0 6.3 0 4.4-.2zm70-.1c0-.3-.1-.4-.3-.3l-.2.4c0 .2 0 .3.2.3s.3-.2.3-.4zm-60.4-1c-.1-.4-.5-.5-9.4-.8-4.9-.2-8.6-.2-9.8 0-1.5.1-.3.2 7.2.5 6.3.3 9.1.5 9.6.7.8.4 2.6 0 2.4-.4zm59.3-.4c0-.6.2-.9.8-1 .4-.1.7 0 .8.1.1.5 1.3.3 1.5-.3.3-1 .6-1.3 1-1 .3.2.4.2.5.1v-1.1c.1-.5.3-1 .5-1.1.4-.3.4-.5.7-2.6 0-1 .2-1.4.5-1.4.2 0 .2-.2 0-.8-.1-.7 0-1 .2-1.3l.4-.8.4-.4c.3-.1.4-.6.4-1.4 0-1.4.2-1.8 1-2 .3 0 .5-.3.6-1.1.2-1.5 1.2-3.4 1.7-3.2.6.2.9-.7 1.2-3.6.1-1.3.4-2.6.6-3 .6-.8.7-2.5.2-2.8-.5-.3-.2-.5.8-.6.8 0 1-.2 1-.8 0-.8-.5-1.2-1.2-.7l-.8.4c-.8 0-2.5.7-2.5 1 0 .1.2.3.5.4.3.1.3.3-.4.8-.9.7-1.2.8-1 .1 0-.5 0-.5-.8 0-.6.4-.8.7-.7 1l-.1.6c-.4 0-2.5 2.1-2.4 2.3l.8-.3c.8-.6 1-.6 1 .2 0 .5-.3 1-.8 1.4-.5.3-.8.8-.8 1 0 .5-2.4 2.4-2.6 2.1-.1 0 .3-.6.9-1 .9-1 1-1 .7-1.5-.3-.5-.3-.7 0-1 .4-.4.4-.6.2-.7-.4-.2-1.3.5-1.5 1.2 0 .2-.4.5-.8.7-.4.2-.6.5-.5.7.1.2-.3.7-1.1 1.3-1 .7-1.3 1.1-1.2 1.5 0 .3 0 .5-.5.7-.3 0-.5.3-.4.5.1.2-.4 1-1 2-.7.7-1.2 1.6-1.2 1.8 0 .2-.3.7-.6 1-.8.9-.4 1.1.5.3.8-.8 1-1 1.2-.4.1.2.5 0 1.1-.6 1.2-1.2 1.6-.9.4.4-1 1.3-1.6 1.6-1.8 1.2-.2-.3-.5 0-1.2 1-.5.6-1 1.4-1 1.6 0 .5.6.3 1.4-.4l.8-.7v.6c0 .4-.3 1-.6 1.2-.5.5-1.4 2.2-1.2 2.4l.6-.4c.8-1 1-.6.3.7-1 1.7-.9 2.3 0 1.1.8-.8.9-.8.9-.4l-.2.8c-.2.2-.8 2.4-.9 3l.7-1c.4-.6 1-1 1.1-1h.3l-.4 1.5c-.4 1.8-.4 1.9 0 1.9 0 0 .2-.4.2-.9 0-.6.2-1 .5-1.2.8-.5 1-.2.6 1.2-.2.6-.3 1.3-.2 1.4.3.5.8.1.9-.7zm3-3.6c.5-1.3.5-1.5 0-1.4-.4.2-.4-.3-.2-1.7.2-1 .7-1 .7-.1 0 .4.1.6.4.6.2 0 .4.2.4.4 0 .7-.9 2.5-1.2 2.5-.1 0-.2-.1 0-.3zm-2.2-3.7c0-1.1 0-1.6-.4-1.8-.5-.2-.5-.3 0-1.2.3-.5.7-1 1-1.2.2-.3.3-.3.2.2l-.4 1c-.1.3 0 .4.2.4s.5-.2.6-.5c0-.3.2-.5.4-.5s.3.1.1.4l-.3 1.4c0 .5-.3 1.1-.5 1.4-.2.2-.4.6-.3.8 0 .6 0 1-.3 1-.2 0-.3-.7-.3-1.4zm2.8-1.3c-.2-.5.3-1.8.7-1.8.3 0 .3.5-.2 1.5-.2.6-.3.7-.5.3zm-4.8-1.7c.2-.9 1.4-2.5 1.8-2.5.2 0 0 .3-.2.7l-.8 1.5c-.6 1-1 1.2-.8.3zm-1.2-3.3c0-.4 1.9-2.1 2.2-2.1.5 0 .2.4-.9 1.4-1.2 1-1.3 1.1-1.3.7zm8.7-1.5c-.3-.4 0-2.9.4-3.6.1-.2.3-.4.5-.3v.7c-.2.2-.3 1-.3 1.5 0 1.2-.4 2.1-.6 1.7zm-2.6-.4c0-.5 1-1.4 1.2-1 .1.1-.7 1.3-1 1.3-.1 0-.2-.1-.2-.3zM89 61c.4-.8 1.7-2 1.9-1.8 0 .1-.2.6-.7 1.1a4 4 0 0 0-.8 1.2c0 .2-.2.3-.4.3-.4 0-.4 0 0-.7zm6.1-1.4c.2-1.1.5-1.7.8-1.4.2.2-.4 2.5-.7 2.5-.1 0-.2-.5 0-1zm-8 .4c0-.3 1.5-1.7 1.7-1.6 0 .1-.2.5-.7 1-.8.8-1 1-1 .6zm8.2-4.3c.2-.8-.2-1.1-.5-.4-.2.5-.9.6-.9.2 0-.3 1-1.4 1.7-1.8l.8-1 .5-.8.3 1c.5 1.5.5 2.6 0 3.2-.5.7-.8.3-.4-.5.3-.7.1-1.7-.3-1.7-.1 0-.2.1-.2.3-.1 1.1-.6 2.3-.9 2.3-.1 0-.2-.3 0-.8zm2.7-1.3c-.2-.3.4-1.7.6-1.5.3.2.1 1.4-.2 1.6-.1.1-.3 0-.4 0zM96.6 51c0-.2.3-.3.5-.3.3 0 .4.1.3.3l-.6.2c-.2 0-.3-.1-.2-.2zm22.8 26.8c-.3-.2-.8-.4-1.2-.4-.3 0-.6 0-.6-.2 0-.3-1-.6-1.5-.4-1 .4.7 1.4 2.6 1.4 1 0 1.1 0 .7-.4zm4-2.4a84.8 84.8 0 0 0 0-14.3c.2 0 .3-1.1.3-3.7V54l-1.3-.7c-.6-.3-1.9-.7-2.7-.8-2-.2-2.3.2-2.6 3.4-.1 1.3-.3 2.7-.5 3l-.4 3.5c-.2 3.1-.3 11.1 0 11.3l.5.2.8.2-.5.2c-1 .2-1 .7 0 .8h.8l.2-1.6.1-10.7c0-5.8 0-9.2.2-9.3.2-.2.2 3.4.2 10.7 0 9.5.1 11 .4 11.2.4.2.4.2 0 .3-.3 0-.5.1-.5.4 0 .2.3.4.8.4.7 0 .8-.1 1-1.4.3-3.4.3-6.3.1-12.8-.2-7.2-.1-8.6.3-8.6.1 0 .2 4.6.1 12 0 13.4-.1 12.7 1.7 12.5h1zM29.3 77c-.1-.3-.2-.2-.2.3 0 .4 0 .6.2.5V77zm80-1c-.7-.8-1.8-1.4-2.1-1.1-.2.2 1.8 2 2.3 2 .2 0 .1-.3-.3-.8zm6.2.6c0-.4-1.3-1-1.5-.9 0 0 .1.4.4.7.5.5 1.3.7 1.1.2zM217 75.2l-.1.5c0 .6 0 .8.1.6v-1zM32 70.7a115 115 0 0 0-.5-10.7c-.2-.2-.2.1-.1 8.3 0 3.3 0 6.5.2 7.1l.1 1 .2-1c.1-.6.2-2.7.1-4.7zm85.8 5.4c.2-.4-.4-.8-1-.6-.5.1-.6.4-.3.7.3.3 1 .2 1.3-.1zm-65-2.7c0-.8.4-1.2.9-.8.1.2.4.3.7.3.6 0 0-.4-1.4-.9l-1.3-.2v2.3l.1 2.1.5-1c.3-.6.5-1.4.5-1.8zm50.2 2.4c0-.2 0-.5-.4-.8-.4-.4-1-.5-4.7-.6-4 0-5.2 0-5.2.6a9 9 0 0 0 2.8.6l3 .4c1.2.2 4.3 0 4.5-.2zm-90.4-.2c0-.2-.2-.3-.4-.3-.3 0-.4.1-.3.3l.4.2c.2 0 .3 0 .3-.2zm4 .1c0-.2-1.4-.3-1.7-.1-.2.1 0 .2.7.2h1zm2.8 0h-.5c-.2 0-.2 0 .1.1.3 0 .5 0 .4-.1zm25.5-1.2-.1-1.2c-.1-.1-.2.4-.2 1.2l.1 1.3.2-1.3zm-33.7.9h-1l.4.1c.6 0 .8 0 .6-.1zm23-9.8c-.3-1.6-.7-1.2-.7.6l-.1 4.9c-.2 3.1-.2 3.4.3 3.6.4.3.4 0 .5-3.9v-5.2zm81.1 8.3c.3-2 .3-12.2 0-12.3l-1 1c-.6 1-.7 1.3-.8 3.9-.2 2.4-.1 3 .2 3.3.3.2.5.7.5 1 0 .5 0 .6-.3.3-.2-.3-.2.1-.2 1.4 0 1.4 0 1.9.4 2.2.8.6 1 .4 1.2-.8zm-88.2.6c0-.4-2.2-.5-10.8-.6h-8c0 .2 1 .4 2.1.4s4.4 0 7.2.2c8.2.3 9.5.3 9.5 0zm36.5-1.1c0-.2-.1-.2-.4-.1l-.8.1c-.2 0-.3.2-.2.4.1.3.3.3.8.1.4-.1.6-.4.6-.5zm38 .4c.1-.1-.3-.9-1-1.7l-1-1.3h-4.1c-.7-.5 0-.8 1.2-.7 1.2 0 1.2 0 1.3-.9 0-1-.3-1.4-1.2-1.1-.7.1-1.2-.1-1-.6.2-.4 1.2-.6 1.2-.1 0 .1.2.2.5.2s.5-.2.6-1c.3-1.6.2-2.5-.2-3-.4-.6-.4-.6-.5 0-.2.4-.4.6-.8.6-.5 0-.7.2-.8 1a9 9 0 0 1-1.1 3.2c-.4.5-.4 1.6 0 1.6s.1.5-.4.6c-.4.1-.5.3-.4.8 0 .6.2.6 2 .6 3 .1 3 .1 3 .4 0 .2-.9.3-2.6.2h-2.6l-.1.6v.8h3.2c4.4.2 4.8.2 4.9-.2zm-6.2-4.4c0-.5.7-.6 1.6-.3.5.2.7.4.5.4h-2.1zm1-3.1c-.3-.3 0-1.3.3-1.3s.8 1 .6 1.4c-.1.3-.8.2-1-.1zm16.5 3.1-.1-4.3s-.3 0-.5.4c-.1.3-.4.5-.6.5-.3 0-.5.4-1.4 2.1-.5 1-.4 2.2.3 3.9.5 1 1 1.2.8.2-.1-.8.3-4.8.5-5 .3-.3.3 0 .2 3v3.5c.5 1.3.7 0 .8-4.3zM225.7 71c0-1.4.2-3.1.3-4v-2.2c-.2-.7-.2-.7-.6-.2-.3.4-.4 1.1-.3 3.6l.2 4.3c0 2.3.4 1 .4-1.5zM37 72a4 4 0 0 0-.2-1.4l-.1 1.4c0 .8 0 1.5.1 1.4L37 72zm9.6-8.2c0-2.4 0-2.4-.2-.8-.2 1.4-.3 9.3-.2 10 .1.5.4-6.7.4-9.2zm-17.4 8.5c-.1-.2-.2-.1-.2.2 0 .3 0 .4.1.3v-.5zm31.5.5-1.1-2c-1.9-3.1-2.8-4-4.9-4.9a40.8 40.8 0 0 1-2.9-1s-.2 1.3-.2 2.8l-.2 2.8H53.1L53 69v-1.5c.8 0 2 1.9 2 3.4 0 1 0 1 1 1.3l1.8.6c.7.2 3 .3 3 .1zM57 71.2c-.5-1.3-.6-2.6-.2-2.7.1 0 .4.1.4.4l1 1.5c1 1.3 1 1.7 0 1.7-.7 0-.9-.1-1.2-1zm-40 .7c0-.2-.3-.3-.6-.3s-.5.1-.4.3l.5.2.4-.2zm3.8 0c0-.3-.1-.3-.6-.2-1.2.3-1.6-.3-1.3-1.9 0-.7.3-1.3.5-1.5.3-.1.4-.3.2-.5s-.3-1.3-.4-2.4v-2.1h-.8c-1.4-.1-1.4 0-1.4 3 0 2.7.1 3 .6 3.3.5.3.6.7.6 1.5v1h1.2c.7 0 1.3-.1 1.4-.3zm7 0c0-.2-.6-.3-1.2-.3-.7 0-1.2-.1-1.3-.2-.2-.3.4-2.6.9-3.6.2-.4.2-1 0-1.7l-.1-1-.3 1.6c0 .9-.3 1.7-.5 1.8-.2 0-.4.8-.4 1.7-.2 1.4-.2 1.5-.9 1.5l-.9.2c-.1.1.9.2 2.2.2 1.5 0 2.5 0 2.5-.2zm10.7-.6-.1.3c0 .4 0 .5.1.3v-.6zm66.8.3c0-.7-.9-2.4-1-2-.2.5.4 2.5.7 2.5.2 0 .3-.2.3-.5zM10 69.5c0-5.3 0-5.1.6-5 .4.1.5 0 .5-.1-.1-.4-.7-.4-2 0-.7 0-.9.2-.9.8 0 .4-.2 1.2-.5 1.8-.9 1.9-.6 3.7.7 4.4 1.4.7 1.5.5 1.6-2zm3.8 1.2c.1-.7.4-1.3.5-1.4.2 0 .3-.4.3-.8 0-.3.1-.9.3-1.1v-.7c-.2 0-.3-.8-.3-1.6 0-1.4 0-1.4-.7-1.4-1.7 0-2 .2-1.8 1.4l.2 3.6c.2 2.3.1 2.6-.2 2.6-.3 0-.4.1-.3.3.1.1.5.3 1 .3.6 0 .7-.2 1-1.2zm-8.5.5c0-.2 0-.4-.2-.4s-.2.2-.1.4l.2.4.1-.4zm36-2.2c.2-1 .1-1.4-.2-1.5-.2 0-.3.3-.3 1.5 0 1.9.2 1.9.5 0zm-19.5.7c.4.3.5.3.6-.1l.5-1.3c.3-.6.4-1.4.3-2.6l-.2-2-1-.2-1-.2V65c0 1-.2 2.1-.3 2.6-.2.5-.3 1.3-.2 1.8.2.8.2.9.6.4.3-.4.4-.4.7 0zm5.4-.4c.4-1 .5-3.5.1-3.5-.1 0-.3.6-.4 1.4l-.3 2.2c-.2 1.2 0 1.1.6 0zm80.5-.4c.4-.7 1-1.3 1-1.3.2 0 .4-.2.4-.4 0-.8-.8-.2-2 1.5-.4.6-.6 1.6-.3 1.6l.9-1.4zM5.4 69c0-.3.3-.6.6-.7l.6-.3H6c-.7 0-.7-.6-.2-1.6.5-.8.5-1.9 0-1.9-.7 0-.9.7-.9 3.2 0 1.7.1 2.4.3 2.1l.2-.8zm96.6 0 1.2-2c.6-.8 1-2.1.4-1.8-.3.2-2.3 3.6-2.5 4.3-.3 1 .3.7 1-.5zm-63.4-5.6c.2-6.2 0-8.6-.5-7.4a75 75 0 0 0 .1 12.8c0 2.8.2.4.4-5.4zm62.7 4.4 1.3-2.2c.4-.6.7-1.2.6-1.3-.2-.2-.2-.2-1.7 2.3-.7 1.2-1.2 2.2-1 2.2.2 0 .6-.5.8-1zm-.2-1.5 1-2.1c0-.6-.5-.5-.9.3l-1 1.7c-.6 1-.8 1.8-.3 1.8.1 0 .7-.8 1.2-1.7zm-76.3-.9-.1-1.6c-.1 0-.2.9-.2 2 0 2.3.2 2.1.3-.4zM16 67c0-.2-.1-.3-.2-.2-.2 0-.3.3-.3.4 0 .1.1.3.3.3.1 0 .2-.2.2-.5zm20-11.5c0-5.7-.2-10.4-.2-10.4-.4-.4-.9 17.3-.5 20.2.1 1.3.1 1.4.5 1 .3-.5.3-2.2.2-10.8zm43.3 10.3c0-.5-.2-1-.4-1.1-.2-.1-.2-.2 0-.3.2 0 .4-.6.4-1.2 0-.7-.2-1.1-.6-1.4l-.9-.4c-.2 0 0 2.3.3 3.4l.2 1.3c0 .4.1.6.5.6.3 0 .5-.2.5-1zm27.6 0c1.5-1.5 3.4-4.2 3.2-4.4-.3-.3-1 .4-1.6 1.5-.2.5-1 1.5-1.6 2.2l-1.2 1.4c0 .4.5.1 1.2-.7zm-65.4-.5.5-3c.3-1.8.3-2-.2-2.4l-.5-.3A39 39 0 0 0 41 66c.1 0 .3-.3.4-.8zm68.7.4c.2-.2.2-.4 0-.4l-.5.4c-.2.3-.2.4 0 .4 0 0 .3-.1.5-.4zM7.5 65c-.1-.2-.2 0-.2.3 0 .4 0 .6.2.4v-.7zm99.3-1c.2-.5.2-.5-.2-.3-.6.3-.9.9-.9 1.5 0 .3.6-.4 1.1-1.3zm3.5.2c2-2.2 4.4-7.1 4.4-9 0-.7-.4-.5-.6.3a28 28 0 0 1-3.4 6.3c-1.4 2-1.8 3-1.3 3 .2 0 .6-.3 1-.6zM77 62.7c-.1-1.8-.6-2.7-1.2-2.3-.5.3-.3 2 .3 2.5s.6.5.1.8c-.5.3-.5.3 0 .5 1 .4 1 .3.8-1.5zm4.6.8c.1-.4.7-1.4 1.3-2.2l1-1.3v-2l-.3-2.5c-.3-.9-.6.4-.6 2.4 0 1.1-.1 2-.2 2.1-.1.1-.2-4.7-.2-10.7 0-6-.2-15-.4-20-.4-9.4-.3-12.2.4-12.2.3 0 .4-1 .3-6 0-3.2 0-6 .2-6.1.3-.6.7 0 .7 1.2 0 1 0 1.2.5 1a5 5 0 0 1 1-.2c.2 0 .3-.5.3-1.8 0-1-.1-1.9-.3-1.9l-.2.3c0 .1-.7.3-1.6.3-1.3 0-1.6 0-1.7.5-.1.3-.3 4-.4 8.2-.1 4.2-.3 7.7-.4 7.8 0 .1-.2-.4-.2-1.2 0-.8 0-1.6-.2-1.8-.4-.6-.6 8-.5 14.5.4 12.2.5 14.6.9 14.3.5-.4.6 0 .4 1.2 0 .8 0 1.3.2 1.4.3.2.4 1.6.4 5.4 0 4.2-.1 5.2-.5 6-.2.4-.4 1-.4 1.4 0 .5-.1.4-.4-.3-.4-1.2-.6-.8-.7 1.2 0 2 0 2 .8 1.9.5 0 .7-.3.8-.9zm19.2.2c.5-1 .5-1.1.2-1.1-.1 0-.4.4-.5 1-.4 1-.2 1.1.3 0zm-73.1 0c0-.2-.2-.3-.3-.3-.2 0-.2-.4-.1-1 .2-1-.3-2-1-2-.6 0-.6.2-.9 1.4-.1 1 0 1 .7 1.6 1 .6 1.6.7 1.6.3zm143.8-.2c0-.4-.6-.6-2.3-1l-2.8-.5h-1c-.3 0-.6 0-.7-.2-.1-.3-6.7-1.9-7.6-1.8-1.6 0 3.8 1.8 7.2 2.3l3.5 1c2.5.7 3.9.8 3.7.2zm1.4.3-.2-.3-.3.1c0 .2.1.3.3.3l.2-.1zm23.7-1.2c.3-.3 1-5.8 1-7.7 0-1.1.6-3.8 1-4.1a155.5 155.5 0 0 0 .3-22.7 221 221 0 0 1 .1-22.5c.2-1.7.1-2-.2-2-.3.1-.4 1-.4 4 0 2.2-.2 4-.3 4a16 16 0 0 1-.2-3.8c0-3.3 0-3.8-.4-4-.3-.2-.6-.2-.7-.1v5.8a1140 1140 0 0 1-.7 54c0-.3.3-.7.5-.9zm29-4.8-.1-3.8a40.5 40.5 0 0 0-.2 8.7l.3-5zM5.7 63c0-.2-.1-.5-.3-.6-.3-.3-.3-.7.2-1.3.3-.5.4-.5.9 0 .5.4.5.4.8-.2.3-.5 1.5-.8 1.2-.3l-.4 1c-.3.7-.5.9-.9.8-.4 0-.6.1-.7.4 0 .4.1.5 1.1.5 1.3 0 2.9-.5 2.9-1 0 0-.2-.2-.5-.2-.6 0-.7-.8-.2-1.6l.4-.8c0-.4-3.3.1-4.3.6s-1 .5-1 1.9c0 1 .1 1.4.4 1.4.2 0 .4-.3.4-.6zm94.4-1.4c-.1-.2-.3-.4-.5-.4-.3 0-.3 1.9 0 2.2.2.3.7-1.3.5-1.8zm13.3 0c2-2.6 2.6-3.8 2.6-5.2 0-1.3-.3-2.2-.6-1.4l-.3 1.4c-.3 1.3-1.5 3.9-2.6 5.5l-1 1.6c0 .4.6-.2 1.9-1.9zM64.2 63c1.1 0 1.4-.5.4-.6-.5-.1-.5-.2.2-.2.6 0 .7-.1.7-1 0-.4-.2-1.1-.4-1.5-.3-.6-.3-1.6-.2-4.8.1-3 0-4.2-.2-4.6-.2-.5-.3-2.2-.3-6.2 0-3.3 0-5.5-.2-5.6-.2-.1-.5-.1-.8 0-.7.2-.7 1.7 0 2.7.4.7.4 1.6.5 10 0 6.2 0 9.1-.2 9.1h-1.8c-.4 0-.4-.1.2-.6.8-.8 1-1.2.3-1.4-.3-.1-.3-.2 0-.5.7-.5.7-4.8 0-5.4-.5-.5-.8-3.1-1-8.6 0-1.2-.2-1.9-.4-2a99.4 99.4 0 0 0 .6 13.4c.1.2 0 .6-.2 1l-.4.5-.1-.6c-.2-.5-.3-.5-.5-.2 0 .2-.1.5 0 .8l.1 1.2c0 .6.2.8.5.8s.6.1.7.3c0 .1-.1.3-.4.3-.5 0-.6 0-.4 1.3l.2 1.8c0 .6.5.9 1.3.7l1.8-.1zm-1.4-.7h.5l-.3.1c-.3 0-.4 0-.2-.1zm9.3.3c0-.3-.6-.4-2.6-.4-1.4 0-2.6-.1-2.7-.2v-2.5c.4-3 .4-5.7 0-5.8-.3-.2-.4-10.8-.1-13.6.2-1.7.2-1.7-.4-1.7h-.6l.2 4.4v9.2c0 7 .1 10.8.4 11h3c2.1 0 2.8-.2 2.8-.4zm1.6-.3c0-.4-.1-.7-.3-.7-.1 0-.4-.2-.5-.6-.2-.4-.2-.3-.2.7s0 1.3.5 1.3c.4 0 .5-.2.5-.7zm1.5-.6c.1-1.1-.3-2-.7-1.8-.2.1-.3.8-.3 1.6 0 1.3 0 1.5.5 1.4.3 0 .5-.4.5-1.2zM174 55c-.4-3.9-.4-10.9 0-11.6.2-.4 0-12.2-.4-17.4l-.1-8.5c0-6.1-.1-6.8-.5-7-1-.4-1-.5-.8 14.6l.2 11.2-.3 7.2c-.3 4.7-.4 7.8-.2 10.9a51.5 51.5 0 0 1 .1 7.2c.2.6.3.7 1 .5.5 0 .7 0 .9.3.3.8.4-3.9 0-7.4zM106.7 62c.2-.1.3-.4.3-.5 0-.2-.2-.1-.5.1-.2.3-.6.4-.9.3-.3-.1-.4 0-.4.3s.1.4.6.3l.9-.5zm-93 0c.5-.2.6-.3.5-1-.1-1-.4-1.3-1.4-1.3-.8 0-1.3.6-1.3 1.6s.2 1 2.3.6zm9.8-.7c.2-1 .1-1-.7-.9-.6.1-.7.3-.7.9 0 1.3 1 1.3 1.4 0zm1 .8-.1-.3-.3.3c-.1.1 0 .2.1.2.2 0 .3 0 .3-.2zm81.1-2.4a18.4 18.4 0 0 1 2-3.6c.2-.5.2-.5-.3 0-.7.6-1 .3-.4-.4.3-.3.4-.5.2-.5-.4 0-2.2 2.6-2.2 3.4 0 .4-.2 1-.4 1.4-.4.7-.5 2.2-.1 2 .1-.1.7-1.1 1.2-2.3zM20 61.3c0-.3-.2-.3-1-.2-.6 0-.9 0-1-.2-.1-.5-1.3-.5-1.6-.1-.3.5.5.9 2.1 1 1.2 0 1.5-.1 1.5-.5zm150.7.2c.2-.2.3-2.7.2-6V50l-1-.2a129.6 129.6 0 0 0-9.3-1.6c-3.1-.6-3.3-.6-2.5.2 1 .7 1.1 1.6.7 2.5-.6 1-1.2 1.5-3.1 2.1-1.6.5-2.4.6-7 .7h-8.8c-2.7-.2-3.6-.1-4 .2-.5.4-.3.5 5 1.5l7.7 1.7a201.5 201.5 0 0 0 19.3 4.2c2.4.6 2.5.6 2.8.2zM68 59.5c.2-1.1.2-2.2.2-2.3L68 55c-.2-2-.5-2.3-.6-.5-.2 6.7-.2 7 0 7 .3 0 .5-.6.6-2zm1.7 1.3c0-.4 0-1.4-.2-2.2-.2-.8-.3-2.7-.4-4.3-.2-3.7-.2-3.2-.6-6.8-.4-3.6-.4-4-.1-4 .1 0 .3.6.4 1.4.4 2.5.7 1.3.7-2.7 0-2.4-.1-4-.3-4-.1 0-.3.2-.3.4 0 .3-.2.5-.4.7-.5.3-.8 3-.9 8.4 0 2.5 0 3 .4 3 .3 0 .4.3.4 1l.2 2.7c.2 2.2.1 4.3-.2 5.5-.3 1.1-.1 1.6.7 1.6.5 0 .6-.1.6-.7zm1.3-1c0-1.6 0-1.7-.5-1.7-.4 0-.5.2-.5 1.3 0 2.6.9 3 1 .3zm1 .5-.2-.7-.2.7c-.3.9-.1 1.4.3 1 .2-.1.2-.6 0-1zm37 .4c1-1.5 2.7-5.1 2.4-5.4a21.5 21.5 0 0 0-2.7 5c-.1 0-.4.2-.7.6-.4.5-.4.6 0 .6.2 0 .6-.3 1-.8zm-30-.4c-.3-.6-1.2-1-1.5-.6-.2.4.2 1 .8 1.2.7.4 1 0 .7-.6zm28-.6c.6-1 1.3-1.3 1-.4-.4.9.1.3 1-1.2.6-.9 1-1.7.9-2 0 0-.4.3-.7.9-.6 1-1.1 1.4-1.1.9l.7-1.5c.8-1.5.4-1.6-.5-.2-1.4 2.1-2.6 4.5-2.3 4.5.2 0 .7-.4 1-1zm4.7-.4c.3-.6.6-1.4.6-1.8 0-.3 0-1 .2-1.3v-.7c-.2 0-2.6 4.6-2.6 5 0 .6 1.2-.2 1.8-1.2zm-82-2.9L30 49c.1-4.2 0-5.2-.5-4.7-.1.2-.3 2.6-.3 6.6a96 96 0 0 1-.2 8.3c.1 1 .2 1.2.5 1 .1-.2.3-1.6.3-3.8zm73.4 3.3c0-.2-.2-.2-.3-.1-.1 0-.3.2-.3.4 0 .1.2.2.3 0l.3-.3zm53 .2a99 99 0 0 0-11.8-3.3 153 153 0 0 0-7-1.5c-1.7-.3-3.1-.4-3.2 0-.1.2.8.5 6.7 1.7l7.5 1.7c7.3 1.8 8 2 7.9 1.4zm-83.5-.5c-.1-.2-.2-.2-.2.1 0 .3 0 .5.1.4v-.5zm4.3.4c0-.4-.4-1-.8-1-.6 0-.7.8-.2 1 .4.1 1 .2 1 0zm3.7-.8-.1-.6-.3.6.1.7c.2 0 .3-.3.3-.7zm-1.3.1c.3-.1.5-.5.5-.9l.2-.8c.4-.2.4-7.4 0-12.7a406 406 0 0 1-.2-27.3c.2-1.8.4-3.5.6-3.7.2-.3.3-2 .4-5.1V3.9h-2.6c-2.2 0-2.6 0-2.8.4l.1 11a209.4 209.4 0 0 1 .2 29c.3 0 .4.7.4 5.2 0 3-.2 5.2-.3 5.2-.1 0-.3-1.4-.3-3.2 0-2 0-3.2-.2-3.2-.3 0-.3 3.8 0 7.2.2 2.2.4 2.8 1.1 2.9.1 0 .2-1.7.1-3.8L77 44c.3-4 .5-12 .6-19.5a128.3 128.3 0 0 1 1-18c0-1 .3-1.7.6-1.2.2.4-.3 8.8-.6 9.3-.2.3-.3 4.2-.4 10.5-.3 18.5-.5 24.2-.9 25.2-.5 1.3-.5 5 0 5 .4 0 .5-.3.5-1.8l.1-2.2c.4-1 .5 0 .5 2.6 0 2.3-.2 3-.5 3.1-.5.3-.5 1.5 0 2 .6.4.8.4 1.5 0zm-.4-2.9c-.3-4.5-.2-9.5.3-9.5.1 0 .2 2.7.2 6 0 3.2 0 6-.2 6l-.3-2.5zM76.5 8.8c.2-3.7.3-4.4.7-4.4.2 0 .2.8 0 2.6-.2 3.8-.3 5-.6 5-.2 0-.2-1-.1-3.2zm-1.5 50c0-.2-.1-.5-.3-.6-.3-.2-.9.3-.6.7.2.4 1 .3 1-.1zm10.4-3.3c.4-6 .5-11.4.2-11.6-.7-.4-.9.5-1 5.4l-.2 6.8c-.2 2 0 3.3.5 2.8.1-.1.4-1.6.5-3.4zM44.9 55l.4-4c.2-.4.1-5.6 0-5.8-.4-.3-.5.4-.7 3.1a68.8 68.8 0 0 0-.2 4.4l.3 6.1s.2-1.7.2-3.8zm36.5-1.3c0-4.5-.6-4-.6.6 0 2.2.1 4 .2 4.2.4.3.5-1.7.4-4.8zm-8.1.5c0-2.3-.2-4.8-.3-5.6 0-.8 0-1.6.2-1.7.1-.2.2-.8 0-1.5-.3-2.2-.6-.4-.6 4.4 0 4.9.2 8.6.6 8.6.1 0 .2-2 0-4.2zm29.3 3c.4-.7.7-1.3.6-1.4-.2-.2-.1-.2-1 1.3-1 1.6-.7 1.6.4 0zm1.2.6c.4 0 3-3 3-3.5s-.5 0-1.2 1c-.4.7-.9 1.2-1 1.2-.4 0-.2-.6.5-1.4.6-.7.8-1.2.5-1.2-.3 0-2.8 3.8-2.8 4.2 0 .3 0 .3.3 0l.7-.3zm-90.6-.6c0-.5 0-.7-.2-.6-.2 0-.3.4-.4.8 0 1 .4.7.6-.2zm59-.6v.9c.2-.3.2-.7 0-1zm2.6-1.8a501.8 501.8 0 0 0-.3-48c0-3.4 0-3.4-3-3-2 .1-2 .1-2.1 1a150.1 150.1 0 0 0-.1 17.7c.2.6.5 1 .6 1 .1-.1.2-4 .1-9l.1-9.5c.1-.3.3-.6.5-.6.3 0 .3 1.3.2 6.6A198.1 198.1 0 0 0 72 33.9c.3-.5.3-1.7 0-8.1a192 192 0 0 1 .2-21.1c.5-.8.6.4.4 3.5a329 329 0 0 0 0 25.9c-.5.7-1 9.3-.5 9.6.2 0 .3 0 .3-.2 0-.3.1-.5.3-.6.3 0 .4-.8.4-2.8 0-3.1.5-9 1-9.5v3.8a1814.5 1814.5 0 0 0-.5 13.1c0 2.1.5 10 .7 10.1.6.4.7-.2.5-2.8zm11.5 2.5s0-.4.2-.7c.4-.5.6-2.7.2-3.2-.2-.3-.3-.1-.5.5-.4 1-.4 3.7 0 3.7.1 0 .2-.1 0-.3zM70.5 55c0-1.3.1-2.4.3-2.4.3-.1.4-1.7 0-2a13 13 0 0 1-.2-2.8c0-2 0-3 .3-3.5.2-.6.4-2.2.5-4.5.2-3 .1-3.8-.2-4.1-.3-.3-.4-1-.4-2.8 0-1.3-.1-2.3-.2-2.2-.6.6-1 26.6-.4 26.6.2 0 .3-1 .3-2.3zm1 1-.5-2.3-.2-.8v1c0 1.4.3 3.4.5 3.4s.2-.6.1-1.4zm29.4.4.3-1.2c0-.6-1 .7-1 1.4s.4.5.7-.2zm2.2-1.4c.2-.5.4-.9.2-.9a10 10 0 0 0-2 2.7c-.4.8 1.3-1 1.8-1.8zm-31.4-7c-.4-.6-.4-.5-.3 1.1.2 1 .2 2 .2 2.4 0 .3 0 1.5.2 2.6.2 2 .2 1.8.3-1.8 0-3.1 0-3.8-.4-4.3zM34 52c.4-7.2.5-15.7.2-15.7-.2 0-.3 1-.3 3.2l-.1 6.6c-.2 5.6-.3 9 0 8.7l.2-2.8zm4.4-1.5c0-2.8 0-4.4-.3-4.4-.1 0-.2 1.4-.2 3.8 0 3.4.1 5 .4 5l.1-4.4zm66 3.6c.3-.4.3-.6.2-.5-.3.2-1 1.2-.7 1.2l.5-.7zm-85.2-.5c1.4 0 1.5 0 2.4-1l1.6-1.4c.8-.5 1.6-2 1.4-2.5-.2-.5-1-.4-2.5.4l-2 1c-1.2.5-4.8 3.4-5 4 0 .4.3.3 1.3 0 .9-.5 1.7-.6 2.8-.5zm41.7-.5c0-.7-.2-1.4-.4-1.6-.4-.4-.4-.3-.4.9 0 .7 0 1.5.2 1.7.2.8.6.2.6-1zm39.2.3c-.3-.5-.3-.5-.3.4 0 .6 0 .8.3.6.2-.3.2-.5 0-1zm-11.1-2.2c.1-2.7.5-4.2.8-3.6v1.5c-.4 2-.4 3.8 0 4 .6.4 1-.7 1-3l.1-2.7c.4-.7.6 0 .5 1.6-.1 1.3 0 1.9.2 1.9a14.2 14.2 0 0 0 4-3.2c.7-.8.8-.9.3-1.4-.3-.4-.6-.4-1.3-.3-1 .2-4.5-.5-6.5-1.2l-1.4-.3a26.5 26.5 0 0 0-.6 7.7c.1-.1.4-1.7.6-3.5l.7-3.4c.2 0 .2.4.1 1.1-.4 2-.6 5.5-.4 5.9.2.1.2-.2.3-.8 0-1.6.5-4 .8-3.6v2c-.3 1.6-.3 2.2 0 2.7.2.4.3 1 .3 1.3 0 .2 0 .4.1.3.2 0 .3-1.5.4-3zm42.3 2.8c0-.2-.3-.3-2.4-.8l-2.5-.6a35 35 0 0 0-6.2-1.4c-.1.2.7.5 3.3 1.2l6 1.8c.6.2 1.8 0 1.8-.2zm-91.5-2.4c.3-3.3.2-5 0-5-.2-.2-.3.2-.4.8a32 32 0 0 0 0 6.6c.2 0 .3-1 .4-2.4zm75.3.8 2-1.6 2.4-2.6c1.5-1.8 1.5-1.9 1-2.4-.2-.3-.7-.5-1-.5-.4 0-.7-.1-.7-.3 0-.1-.2-.5-.5-.7l-.9-1.2a11 11 0 0 0-4-2.3c-2-.8-3.5-1.3-3.9-1.3-.4 0-.4-.2-.3-.6.2-.5-.3-.7-.6-.2 0 .2-.4.2-.7.1h-1.1c-.4.2-.3.3.4.6l1.5.3c.3 0 .6.2.6.3 0 .2.2.3.4.3s.7.1 1 .3l1.5.6c1.4.3 3 1.3 4.3 2.7l2.1 1.7c1.3.7 1.6 1.4.6 1.2-.7-.2-.7-.2-.5.6.1 1-.2 1-1 .4-.2-.2-.6-.4-.8-.3-.2 0 0 .3.5.8 1 .9.7 1.2-.6.6-1-.5-1.4-.5-.8 0 .8.6.4.9-.5.5-1-.4-1.2-1-.4-1 .4 0-3.8-1.8-4.2-1.8l-.4.4c0 .3.5.7 2 1.5 2 1 2.9 1.8 2.9 2.3 0 .2-.1.3-.3.3l-.2.4c0 .5-1 .7-1.7.3a45 45 0 0 0-6.6-2.5c-.2-.2-.7-.6-1.2-.8-1-.7-.9-1.3.2-.7 1.1.6 1.5.5 1.7-.3 0-.5 0-.8-.7-1.1-.4-.2-.7-.5-.7-.6 0-.3.9-.3 1.2 0 .4.4.9.2.9-.4 0-.5-1.8-1.8-2.3-1.6-.5.2-2 2.5-2 3.2 0 1 1 2.3 2.2 2.8.7.3 2 .8 3 1l2 .9c0 .2-.6.1-2.8-.5a9 9 0 0 0-1.8-.3c-.5 0-.5 0 0 .4a7.2 7.2 0 0 0 5 1.5c1.1-.1 1.5 0 1.3.1-.4.7 1.5.3 2.5-.5zm21 .2c1.9-.4 3.9-.4 9-.3 6.4 0 8.2-.1 8-.7-.1-.3-2.2-.4-8.6-.4-5 0-9-.1-9.6-.3l-1.9-.4c-.7-.2-.7-.3-.6-1.3l.2-1-.9.1c-2.6.5-3.9.6-3.9.4a79.9 79.9 0 0 0 6.7-1.4h-1.9a31.6 31.6 0 0 0-5.5.6h-1l.7-.6c.4-.4 1-.7 1.4-.7.4 0 .7-.1.7-.4 0-.5.4-.6 4.1-.9a67.5 67.5 0 0 0 4.8-.8h-1.3c-.2 0-.4-.2-.3-.3l.6-.2c.5 0 .6-.2.6-1.2 0-.6-.2-1.2-.4-1.4-.4-.5-1.4-.4-1.7.2-.2.3-.6.6-.9.7-.7.2-.4.6.5.6.4 0 .9.1 1.1.3.6.3-.2.5-2 .2a16 16 0 0 0-3.4 0c-2 .3-2.8 0-4-1.3-.2-.3-.5-.5-.6-.5a70 70 0 0 0-5.1 6.7c-1.4 1.9-1.3 2.1.5 2.5a345.9 345.9 0 0 1 11.5 2.3l3.1-.5zm-4-8c0-.3.7-.4 1.9-.4 2.3 0 2.2.2-.1.4-1.3.2-1.8.1-1.8 0zm-126.5 7c0-.1.2-.2.5-.2s.6-.1.7-.3c.2-.3 2.3-.1 3 .3.3.1.7 0 1-.1 1-.5 4.1-1.8 4.4-1.8a9 9 0 0 0 1.7-1c.9-.5 1.7-1 1.9-.9.1 0 .3 0 .3-.2 0-.5-7.7-.3-13.3.4l-1.3.2v1.8l.2 2.4c.2.6.2.6.5.1l.4-.7zM84.3 48c0-3.1-.1-4.4-.3-4-.4 1-.6 4-.4 6.5.3 3.8.7 2.3.7-2.5zm70.9 4.4c.3-.3.2-.4-.2-.4a2 2 0 0 0-1 .4c-.5.4-.5.4.2.4.3 0 .8-.2 1-.4zm-111.7-2c-.1-.4-.2-.1-.2.6 0 .6 0 .9.2.6v-1.2zm114.2 1c.9-1 .2-1.6-.8-.9-.4.3-.4.5-.1.8.4.5.4.5.9 0zM31.7 46l-.3-6c-.5-.6-.6.5-.5 4l.2 5.4c0 1.2.1 2 .3 2 .1 0 .2-1.9.2-5.4zm88.3 5.2-.3-.4c-.1 0-.2 0-.2.3 0 .2 0 .4.2.4s.3-.1.3-.3zm-5.6-.4c0-.7-3.5-2.7-4-2.2-.7.5-.5 1.5.1 1.7 3.4 1 3.8 1 3.9.5zM60.5 50c0-.6 0-2.6-.2-4.6-.2-3.3-.3-3.6-.8-3.6-.4 0-.5.2-.6 2.7l.1 3.2c.1.6.2.6.6.3.4-.3.4-.2.3 1.1v1.7c.3.4.5.1.6-.8zm88.3-.1c1.7-.2 3.2-.4 3-.5l-7 .1c-.4.2-.4.3-.2.6.2.2.5.3.6.2l3.6-.4zm-47.3-.3c0-.3-.1-.5-.3-.4l-.3.6c0 .2.2.4.3.4.2 0 .3-.3.3-.6zm52.9.3c0-.1 0-.3-.2-.3l-.8-.1c-.4-.2-.6 0-.6.2 0 .3.2.5.8.5.4 0 .8-.2.8-.3zm-15.2-.6c.4-.3-.5-.5-2.4-.4-1 0-1.9.2-2 .4 0 .1.2.3.5.4.7.2 3.6-.1 3.9-.4zm-35-.2c-.4-.5-.9-.7-.9-.3 0 .3.6.8.9.8v-.5zm5.4-.8c-.2-1-1.8-1-1.8 0s1 1.5 1.6.8c.1-.2.3-.6.2-.8zm48.1.6c-.2-.4-1-.4-1.6-.1-.4.1-.3.2.5.3 1.3.2 1.4.1 1.1-.2zm13.1-.6.1-1.2c0-.4-.4-.5-1.8-.8l-3.2-.6-4.9-.7a76.9 76.9 0 0 1-9.6-1.6 54 54 0 0 1-4.4-.5c-.7-.2-.7-.2-.1.2l.4.5c-.2.1-4.8-.5-5.6-.7-.3-.1-.3-.2 0-.6.3-.3.7-.4 2.3-.3 2.7.2 4 0 4-.6 0-.3 0-.5-.2-.5l-.6-.1c-.3-.1-.5 0-.6.3-.1.3-.3.6-.6.6-.4 0-.4-.3-.3-2.6v-1.4l-1.1.2c-1.5.2-5 1.9-5 2.4 0 .2.3.3 1.4.3 1.4 0 1.5 0 1.5-.7.1-.8.6-.7.7.1 0 .3.1.8.3 1 .5.6.1.7-1.8.4h-2c-.4.4.2 1.7 1 2.6 1 1 2.3 1.3 2.6.9.1-.3.6-.3 1.6-.2a554.8 554.8 0 0 1 25 4.4c.8 0 .9 0 1-.8zm-27-4-2.1-.5c0-.5 5.2 0 5.7.5.3.4-.4.3-3.5 0zm-9.1 4.3c0-.2 0-.3-.2-.3-.3 0-.5.1-.6.3-.1.1 0 .2.2.2s.5 0 .6-.2zm20.2 0c.6-.4.3-.5-1.8-.7-2-.1-2 0-.2.6 1 .4 1.5.4 2 0zm-10.5-.4c1-.3.2-.6-1.1-.5-.8.1-1.5 0-1.7-.2-.4-.3-1-.1-1 .4 0 .3 3 .5 3.8.3zm5.8-.4c0-.2-.3-.3-.6-.3-.5 0-.6 0-.2.3.5.3.8.3.8 0zm-94.7-.6c.3.2.3-4.5 0-5 0-.3-.4-.5-.7-.5-.5 0-.5.1-.3 2l.1 3c0 .7.1.8.4.6.2-.2.4-.2.5-.1zm59.7.1c0-.2-3.6-2.4-4-2.4l-.2.6c0 .5.3.7 1.8 1.3 1.9.7 2.4.8 2.4.5zm21-.3c0-.2.4-.2 1-.2 1.2.1 2-.2 1.2-.5-.6-.2-2.9.2-3 .6 0 .2 0 .4.3.4s.4-.2.4-.3zm-115.6-.7c0-.3-.3-.6-.4-.5-.4.3-.6-.7-.2-2 .2-1.3.2-1.5-.2-1.9-.5-.5-.5-.5-1.6 0-.7.3-1 .6-.8.7.3 0 .2.2-.2.7-.4.4-.4.6-.1.8h1.2c.7 0 .7 0 .4.3-.2.2-.2.6-.2.8.1.2 0 .6-.5 1-.6.4-.6.5-.2.6l1.7.2c1.2 0 1.2 0 1-.7zm7.2-7.7c-.1-.4-9.4-.5-9.4 0 0 .4 1.1 1.3 1.6 1.1l2.9-.3c2.4-.2 2.5-.1 3 .5l.4.6.3-.7c.3-.9.8-.8.8.2 0 .4-.2.6-.5.6-.8 0-1.2.8-1.4 2.7 0 1.6-.1 1.7-.7 1.6-.4 0-.6.1-.6.4 0 .2-.1.4-.3.3-.2 0-.4-.8-.5-2l-.1-1.8h-1.1c-.9-.1-1.2 0-1.2.3 0 .5.6.9.8.4.2-.7.8-.2 1 1l.4 1.7c0 .4-.8.2-1-.4-.4-.7-.4-.2-.1.7.3.7.3.7 1.7.6 2.2-.3 2.6-.2 3.3.3l.7.5v-8.3zm82.1 8c0-.2-.1-.5-.4-.7-.5-.4-1 0-.8.7.2.5 1.2.5 1.2 0zM71.2 46c0-.2-.1-.2-.1.1 0 .3 0 .5.1.4v-.5zm46.2.3-1.2-1.6a10.6 10.6 0 0 0-5-3c-1.3-.3-.8.2 1.6 1.8 1.3.8 2.8 1.8 3.3 2.3.9.8 1.3 1 1.3.5zm14 0a1 1 0 0 0-.6 0c-.2.2 0 .2.3.2.4 0 .5 0 .3-.1zm-16.2-.2c0-.2-1-.9-2-1.6l-2.3-1.6a9.5 9.5 0 0 0-2.8-1.4c-.7 0 0 .7 1.5 1.5a40 40 0 0 1 3.5 2.1c1.7 1.2 2.1 1.4 2.1 1zm33.9 0c0-.2-.4-.3-1-.3-.5 0-.8 0-.7.2 0 .2.5.3 1 .3.4 0 .7-.1.7-.3zm-8.2-.3c0-.5-.6-.6-1.5-.4l-1 .2 1 .2a123.3 123.3 0 0 1 1.5 0zM5.4 45.4c-.5-.3-.8-.3-.8 0 0 .1.3.3.6.3.5 0 .6 0 .2-.3zm97.2 0v-.3c-.2-.2-.9 0-.9.3s.8.3 1 0zm19 0a250.5 250.5 0 0 1-3.7-3.6c-2.5-2.4-6.3-3.9-7.7-3-.2.1 0 .3 1 .6 1.4.4 4.1 1.6 5.8 2.5.5.3 1.7 1.3 2.6 2.2 1.5 1.5 2 1.8 2 1.3zm23.5 0-.6-.3c-.2 0-.1.2.1.3l.7.3c.1 0 0-.2-.2-.3zM38.7 44.1c.3-1.2.3-28.6 0-32.4-.3-3.7-.2-3.6-.5-2.2L38 21.1c0 8.9 0 10.3-.4 10.3-.5 0-.5.4 0 .7.4.2.4 1 .4 6.8 0 6.4.2 7.8.7 5.2zm58.2-.3a24.7 24.7 0 0 1 3-2.6c0-.3-2.8-.2-6.5 0-3.4.3-4 .5-4 .9s0 .4 3.4 1.2c1.8.4 2.6.7 2.6 1l-.2.3c-.8 0-6.2-1.5-6.5-1.8-.4-.4-1.4-.4-1.6 0l.1.6c.3.2 7.1 2 7.7 2a7 7 0 0 0 2-1.6zm13.5 1.2c.2-.6-.3-1-.7-.5-.3.4-.2.9.3.9l.4-.4zm60.4 0-.1-3A97.4 97.4 0 0 0 152 39c-.2.3 1 1.2 2.3 1.9 1.3.7 5 1.3 6.9 1.2.6 0 1.4 0 1.7.2.4.2 1 .4 1.5.4s1.1.1 1.4.3c.3.3.9.4 1.3.3 1-.1 2.3.2 2.5.6 0 .3-4.7.1-5-.2-.2-.1-.6-.1-.8 0-.3.2-.9.2-1.2.2h-.5c0 .2 1 .4 2 .6l3.4.5c2.2.4 3.2.3 3.2 0zM48.4 33.5c.2-10.6 0-16.5-.3-16.2-.3.3-.3 28-.1 28 .1 0 .3-5.3.4-11.8zm60.7 10.4c0-.5-1.6-1.4-2.2-1.2-.6.3-.5.6.5 1.2s1.6.6 1.7 0zm13.5.4-.5-.8a17 17 0 0 1-1-1l-1.2-1.2c-.4-.3-.7-.8-.7-1 0-.3-.2-.7-.5-1a8.4 8.4 0 0 0-3.2-1.5c-1.5-.1-3.2 0-3.2.3 0 .1.3.3.5.3.9 0 4.6 2 5.7 3.1 2.1 2 4.1 3.4 4.1 2.8zm-82-4.2c0-2.2 0-3.3-.2-3.3-.3 0-.5 3.2-.3 5.5.1 2.2.3 1.4.4-2.2zM196 41.8V43v-1.3zm-189.4 1 1.3.4c.5.1.6 0 .4-.3 0-.3-.3-.7-.5-.9-.2-.1-.4-.4-.3-.6.1-.2 0-.5-.3-.7-.4-.2-.7-.1-1.6.7-.7.7-1 1.2-.9 1.5.1.3.3.3.7 0h1.2zm116.7-.1c0-.3-2.1-2.3-2.5-2.3-.4 0 0 .8 1 1.8s1.5 1.2 1.5.5zm-38.8-5.1c.1-9.7-.1-28-.4-28-.6-.5-.7.8-.8 7v5.1l-.4-3-.1-1.5-.2 1.2c-.3 1.4-.1 8.8.3 15l.2 6.5c0 1.8.1 2.4.5 2.7.2.3.5.4.6.2l.3-5.2zm70.3 5.3-1-.7-2.5-2-1.5-1.5V40c0 2.2.2 2.4 2.1 2.8 1.9.3 3 .4 3 .2zm-52.7-.5v-.6c0-.3-.2-.3-1.1.3l-1 .7 1-.2c.6 0 1-.2 1.1-.2zm2.3-.2c.4-.2.4-.2-.4-.2-.6 0-1 0-1.2.2-.2.3.9.3 1.6 0zm27.8-.6c1.4-1 2.2-2 1.8-2.2l-.3.1c-.1.4-.8.5-.8 0l-.4-.2c-.3 0-.4.3-.4.8 0 .8-.6 1.4-1.6 1.7-.3.1-.5.3-.4.4.3.5.7.3 2.1-.6zm17-.6a2 2 0 0 0-.2-.9c-.2-.3-.3 0-.3 1 0 .9.1 1.1.3.9l.3-1zm-41.7-.2c.3-.4.2-.5-.1-.4l-1.4.4c-1.2.2-1.2.5.2.5.7 0 1.1-.1 1.3-.5zm22.7.3c.8-.2 1.1-1 .5-1a8 8 0 0 0-3 .3c-.3.3.4 1 1 1l1.5-.3zm-87.6-.9c0-.6 0-.9-.4-.9s-.5.4 0 .7l.2.7.1.5.1-1zm80.7.7c0-.6-1.3-1.9-1.9-1.9-.7 0-.6.4.6 1.3 1 1 1.3 1 1.3.6zm-70-.4c.1 0 .4-.4.4-.7.1-1 .6-1 .6 0 0 1.4 1 1.3 1.2-.1.2-1.2-.3-1.5-2.2-1.3-1.4.2-1.5.3-1.6 1-.1 1 .1 1.6.7 1.4l.8-.3zm117.6 0c.2 0 .3-.6.3-1 0-.6 0-.7-.7-.7-1.3 0-7-1.1-7.6-1.5-.8-.5-1-1.2-1.1-6.5-.1-4-.2-4.7-.7-5.5-.4-.7-.5-1-.2-1.6.2-.4.2-.9.1-1-.3-.6.3-.7 3.6-.6h4.8c1.6-.1 1.7-.2 1.8-.8 0-.4 0-.8-.2-.8 0 0-.2-1.7-.2-3.8 0-3.9-.4-5.8-1-6-.7-.3-1 0-.8.6.1.5 0 .5-3.4.5H162v2l-.2 3.8c-.2 1.5-.2 1.6.7 2 .6.3 1 .4 1.8.1a7 7 0 0 1 1.7-.2c.3 0 1.2 0 2-.2 1-.1 1.4 0 1.8.2l.4.7c0 .7-.8.8-4 .6h-3.6c-.4.3-2.7-.4-3-.9v-2c.2-1 .2-2.2 0-3-.3-1.3-.2-2 .4-2 .2 0 .4.7.5 2.6.3 3.7.7 2.9.6-1-.1-2.6-.1-3 .3-3.1l1-.4c.5-.2.4-.2-.2-.4h-1.7c-.8.1-1 .3-1 1v.7l-3.2-.2c-3.6 0-4-.2-3.7-.6.1-.2 1-.3 2.8-.1 2 0 2.6 0 2.4-.2-.7-.6-6.5-1-10.7-.6-1.7.2-1.8.2-1.4.8.6.8.5 2.3-.2 3-.4.3-.7.5-.8.4-.1-.1-.2-1.1-.2-2.3v-2h-3.2l.1 2 .2 3.3c0 1.3 0 1.3.8 1.3.9 0 2.8-1 3.6-1.9.5-.6 1.2-.6 1.6-.2.7.7.1 4.3-1 5.7-.7.9-.6 1.3.2 3.1.3.9.6 1.8.5 2L147 28c-.2 1.6-.2 2 .2 2.6l1.4 2c1 1.6 1.3 1.8 1.2.7v-4.8l.2-4.1h.7c5.6.4 8.2.4 8.1 0 0-.1-.7-.4-1.6-.5-.9-.2-1.5-.4-1.5-.6 0-.4-2-1-3.6-1-1.3 0-1.3.1-1.5.9-.2 1-.8.9-1-.2-.3-1.2-.3-3.3 0-3.3.1 0 .4.4.5.8.3.8.4.8 1.6.8 1.4 0 5.7.4 7.4.7.8.1.9.2.9 1.6 0 .9 0 1.5.3 1.7.3.2.4 1.3.5 4.8l.2 5.8.1 1.2H160c-1.1.1-7.1-.7-8.5-1.1-.7-.2-.5-.7.3-.7l4.2.6c1.8.3 3.5.4 3.6.3.1 0 .2-.6 0-1.3 0-.8 0-1.3.2-1.5.2-.3.3-1.4.1-4l-.2-3.6-.7-.2-4.2-.2h-3.3v5.2c-.4.5-.7-.3-.7-1.7 0-1.3 0-1.3-.3.4v4.2c.2 1.4.2 2.6.1 2.6 0 .1-.3 0-.5-.3-.4-.7-.7-.6-.6.3.1.6.2.7 3.5 1.3a529.2 529.2 0 0 0 8 1.4l2.8.7 4.2.9c2.8.6 2.7.6 3.1.2zm-15.2-7.4c0-.3 0-.6.3-.9.4-.4.4-.4.4.3 0 .8-.4 1.2-.7.6zM152 20.6c0-.5.8-.6 3.2-.6 1.8 0 2.4 0 2.4.4 0 .2-.6.3-2.8.4-1.5 0-2.8-.1-2.8-.2zm-1.4-2c-.3-1.8-.5-7.3-.3-7.3s.5.2.8.5c.4.4.4 1 .4 3.2 0 3-.2 4.5-.5 4.5-.2 0-.3-.4-.4-.9zm-121 21.8c.1-.1 0-.3 0-.4-.2-.1-.4 0-.4.2 0 .5.2.6.4.2zm27.4-.1c.2-.2.2-.4.1-.5 0-.1 0-.4.2-.7.2-.3.3-.4.3 0l.1.6v.6c.1.2.2.3.4.3.1 0 .3-.5.3-1.2v-1.2l-1 .1c-1 0-1 .1-1.1 1.2-.1 1.2.2 1.4.7.8zm3-.3c.3-1 .1-1.6-.4-1.7-.3 0-.5.2-.6.8v1.3c.3.5 1 .3 1-.4zm1.9.5c.3-.1.4-.5.4-1 0-1-.4-1.3-1.1-1-.5.3-.6 1.8-.1 2l.3.1.5-.1zm36.6-.3c1.8-.2 3-.4 3.4-.6a85.4 85.4 0 0 0 5.3-4.4 65 65 0 0 0 7.2-6.6c.2-.6.1-13.5-.1-16.5l-.2-1.9-1.7-.1L99 9.8H87.3v1.3l-.4 8.3c-.3 6-.3 7.3 0 9.7.3 1.7.4 4.3.3 7.1v4.5l4.1-.2 7.2-.3zm-7.7-1.3.1-4c.2-2.2.2-7.7.2-12.3v-8.4c.4 0 .6 8.4.4 16.6 0 7-.2 8.8-.7 8zm3.4-4.7c-.6-2.9-1-22.4-.5-22.6.2 0 .3 2 .3 7.7 0 7 .3 11.7.8 14.4.1 1-.4 1.5-.6.5zm10.6-7.2c-.2-8 0-13 .8-12.3l-.2 4c-.2 3-.2 5 0 8.6.4 4.5.3 6-.2 6-.1 0-.3-2.9-.4-6.3zm-3 4.2c-.2-2-.2-17.4.1-18 .6-.8.7.1.4 3-.1 1.4-.2 5.6 0 9.3 0 6.3 0 7.9-.4 5.7zm5.7-.5a81.2 81.2 0 0 1 .2-16.4 109.6 109.6 0 0 0 .2 13.5V31c-.2 0-.4 0-.4-.3zm-9.6-1.2a118 118 0 0 1 .6-17.6l-.1 4.2a104 104 0 0 0 0 8.7c0 4.2 0 5.5-.5 4.7zm15-8.2c0-7.1 0-8.2.5-8.2.3 0 0 14.9-.3 15.2-.1.2-.2-2.8-.2-7zm-1.4-2.1c0-4.3 0-7.8.2-7.9h.3c.2.3.1 13.5-.1 14.7-.4 2.1-.5.3-.4-6.8zm13.4 21c.2-.4-1-2-1.9-2.6l-2-1.2c-1.5-1-4.4-1.8-6.5-1.8-1.1 0-2.2.2-3.8.8-2.3.8-3.4 1.5-2 1.2a32 32 0 0 1 2-.4c.7 0 1.5-.3 1.8-.5.4-.3 1-.3 1.6-.2a28 28 0 0 1 5.8 1.8c.5.3 1.3.5 1.6.5.3 0 .9.4 1.6 1.4 1.2 1.5 1.6 1.7 1.8 1zM15.5 40c1-.4 1.1-.4 1.5 0 .4.6 1 .2.7-.6-.2-.7-1.3-1.4-2.3-1.4-1 0-2.1 1-2 1.8.3.7.6.7 2 .2zm-4.3 0h-.5.1c.3.1.5 0 .4 0zM136 38.3c.2-1 .8-1.2.8-.2 0 .7.1.7.6.3.4-.4.4-1.6 0-2-.3-.4-1.2 0-2 .6-.3.3-.7.7-1 .8-.4.4-.4 1 .1 1 .2-.1.4.1.5.4.2.8.8.2 1-1zM6.5 39l.7-.5h-1c-.9 0-1.6.4-1.6.9 0 .4 1.2.2 1.9-.4zm123.7.2c.4-.3-.1-.4-1.4-.3-1.8.3-1.8.8 0 .6.7 0 1.3-.2 1.4-.3zm18-.7-.1.3c0 .3 0 .5.1.3v-.6zM12 38.5c.2-.2.2-.3-.2-.1l-1.4.4c-.7.2-.7.2.3.1.5 0 1.1-.2 1.3-.4zm108.6.1c-1-1.2-6.9-3.1-6.9-2.3 0 .2.9.5 1.8.7l2.7 1a7.5 7.5 0 0 0 2.7 1l-.3-.4zm31-.6c-.4-.1-.6.2-.4.5.1.3.2.2.4 0V38zM30.2 25.3c0-7-.1-12.8-.2-12.9h-.4a413 413 0 0 0 .2 25.9c.3-.3.4-3.2.4-13zm94.7 12c-.4-1-1-1.4-1-.6 0 .4 1.1 1.9 1.3 1.7 0 0 0-.5-.3-1zm15.7 1h-.5c-.3.1-.2.2.1.2.3 0 .5 0 .4-.1zm6.7-.5c0-.3-.4-.5-.6-.2-.3.3 0 1 .3.8.1-.1.3-.3.3-.6zm-38.1 0c.9-.4 1.8-.6 2-.6.4 0 .4 0 0-.3s-1.6 0-3.2.7c-1.7.8-1 .8 1.2.1zm22.4 0c.3-.3.6-.8.7-1.2l.2-.8-1.9.2c-1 0-2 .2-2.2.3-1 .4-.4.6 1.3.6 2.1 0 2.2.4 0 .6-2.3.2-2.6.8-.4.8 1.3 0 1.9-.2 2.3-.5zm-119 0c.5-.2.8-.5.8-.6 0-.3-.7-.3-2.6-.1-1.4 0-3 .2-3.6.3-2.4.1-2.3.2.9.3l3.6.2c.2 0 .6 0 1-.2zm24.3-.3c.1-.4-.7-.7-1-.4-.2.2-.3.5-.2.6.3.4 1 .3 1.2-.2zm134.6-2a92.7 92.7 0 0 1-.5-9l-3-.2c-2.8 0-3.5-.2-3.2-.7h6.3c.1 0 .2-.6.2-1.3V23H168c-2.5 0-3.3 0-3.4.4 0 .1-.3.3-.5.3s-.6.3-.8.6c-.6.8-.6 9.5 0 11.3l.4 1.2 3 .5a230.3 230.3 0 0 0 4.9.7l-.1-2.6zM18 37.1c0-.2-.4-.3-.8-.3-.8 0-.8 0-.4.4.5.4 1.2.3 1.2-.1zm3.7 0s-.5-.2-1.2-.2c-.6 0-1.1 0-1.1.2 0 .1.5.3 1.1.3.7 0 1.2-.1 1.2-.3zm3.2 0c0-.1-.3-.2-.7-.2l-.8.2c0 .2.3.3.7.3.5 0 .8-.1.8-.3zm30.4 0c0-.1-.3-.3-.8-.3-.4 0-.7.2-.7.3 0 .1.3.3.7.3.5 0 .8-.2.8-.3zm83.7-.7c0-.4-.2-.6-.5-.6s-.3.1-.2.4l.1.8c0 .2.1.3.3.2l.2-.8zm-111.6-.2c.2-.4.3-.7.1-.8-.3-.2-1.8.7-1.8 1 0 1 1.2.8 1.7-.2zm25 .5c-.3-.3-.6-.4-.7-.3-.5.3-.1.7.5.7s.6 0 .2-.4zm8.2.1c.3-.2.2-.2-.5-.2a3 3 0 0 0-1.3.2c-.3.2-.2.3.5.3.5 0 1.1-.1 1.3-.3zm51.8.1h-.5c-.2.1-.1.2.2.2.3 0 .4 0 .3-.2zM62 36.8h-.5c-.2 0-.2.1.1.1.3 0 .5 0 .4-.1zm79.4-.6c0-.4-.2-.7-.4-.8-.2 0-.2.2-.2.7.2 1 .7 1.1.6.1zm-72-4c.4-5.9.4-7.2 0-7.2-.6 0-.6.4-.4 2.1.1 1.4 0 2.3-.6 2.7a6 6 0 0 0-.7 1.2c-.8 1.4-3.8 4.3-4.5 4.3l-1 .4c-.7.4-.5.4 2.5.3 2.6 0 3.2 0 3.4.3 0 .2.3.4.6.4.4 0 .5-.6.7-4.5zm-28.7 2-.1-2.6c-.3-.5-.3-.5-.4 2.4l.1 2.4c.2 0 .3-1 .4-2.2zm19.9 2c.5-.3.4-.3-.2-.3-.4 0-.7 0-.7.2 0 .4.2.4.9 0zm86.5-.3c.4-.2-.7-.8-1.5-.8h-.8l.6.6c.6.5 1 .6 1.7.2zm-97.2-.8c0-.5-.1-.8-.3-.8-.3 0-.3 1.1 0 1.4.2.3.3.2.3-.6zm72.7.2c.3-.5.3-.6 0-1-.7-.3-4-1.3-4.8-1.3-.4 0-.9-.2-1-.4-.3-.3-.6-.4-.8-.4a36 36 0 0 0-5.7 2c-1 .4-1.2 1-.4.7.8-.3 3-.8 4.2-1 1.4-.2 3.3.2 5.8 1.3 2 .8 2.3.8 2.7.1zm21.9.3-.1-.3c-.2 0-.4.2-.5.3l.1.3c.2 0 .4-.1.5-.3zm-121.1-.4c.8-.1 1.2-.4 1.3-.7.1-.5.8-.7 2.2-.7h1V8.3c.2-2.2.2-2.9-.1-3.6-.4-.8-.5-.8-1.7-.9-1.7 0-4.1 0-4.2.2l-.2 8a182 182 0 0 1-.7 18.5c-.1.3-.2-5-.1-12.9L21 4.3l-4.1-.1c-4.6-.1-10.5.5-11 1C5.1 6 4.4 13 5 13c.2 0 .3-.5.4-1.1 0-.6.3-1.3.5-1.4a303.4 303.4 0 0 0-.2 12.5c-.1 6.3-.3 10-.4 9.9-.2-.2-.2-4-.2-9.7v-9.5c-.2 0-.3.4-.4.8-.2 1-.3 20.5-.1 20.8.2.3 17 .4 18.7 0zm.2-.5c-.2-.4.2-13.1.7-20.7.3-3.2.4-6.6.4-7.6 0-1.6.4-2.3.7-1.4.2.4-.2 8-.6 15.1-.2 2-.4 5.8-.4 8.2-.2 4.7-.5 6.9-.8 6.4zm-11-2.2c-.2-1.4.1-16 .4-19.2.4-4.6.5-5.2 1-5.2 0 0 .3-.3.4-.7.4-.9 1-.8.7.1l-.8 7.2c-.3 3.6-.7 6.8-.9 7-.2.4-.3 2.4-.3 5.7 0 3 0 5-.3 5.2h-.2zm2-3.8.1-8.7c.3-7.8.9-12.7 1.6-12.7.3 0 .3-.1-.1 3.4-.6 4-1 11-1 16.4 0 5-.4 6.3-.6 1.6zm7.9-1.2c.2-6.6.3-21.9 0-22.5-.3-.8.5-.8 1 0 .3.6.2 11.2-.2 21.9-.2 4.1-.2 4.5-.7 4.5-.2 0-.2-1.1-.1-4zm-15 3.2c-.3-.7-.2-9.6 0-9.8.4-.2.5.6.5 5.4 0 4-.1 5.5-.6 4.4zm18.5.2c-.4-.4.2-22.9.8-25.4 0-.3.3-.6.5-.6.4 0 .4.2.3 1.1-.4 2.5-1 13.5-1 18.7 0 5.3-.2 6.7-.6 6.2zM9 29a390.8 390.8 0 0 0 .6-11.3l.2-6c.1-2.9.3-5.3.4-5.5.4-.3.3 8 0 11.5-.2 1.5-.4 5.1-.5 8-.1 3.6-.3 5.1-.5 5.2-.2 0-.3-.4-.2-1.8zm8.2-5.9.4-11.7c.2-3.6.3-4.1.8-4.6.7-.7 1-.6 1 .3l.2 1.4c.5 4.4.4 20.9-.2 20.9-.1 0-.2-3-.2-6.7 0-7.5-.3-13.3-.6-13l-.3 4.7a447.3 447.3 0 0 1-1 16.2c-.2.1-.2-2.3-.1-7.5zm-5.8-4c.1-9.1.4-12.8 1-12.8A229.6 229.6 0 0 0 12 18c-.1 7-.3 9.9-.5 10-.3.3-.3-1.7-.2-9zm-3.8-4.7c0-5.4.2-7 .6-6.7.2 0 .2.3.2.5L8 13.8c0 3-.2 5.5-.3 5.6-.2 0-.2-2.2-.2-5.1zM35 30.5c0-2 0-2.1-.3-1.8-.4.4-.5 2-.4 5.3v1.7l.3-1.5.4-3.7zm96 4.6c1.7-.1 1.8-.2 2-1v-1c-.4-.3-3.8-.3-4 0 0 .3.3.4 1.3.4 1.3 0 1.8.3 1 .6l-1.6.2c-.8 0-1.3.1-1.6.5-.5.6-.3.9.5.7l2.4-.4zm6.3 0c.7-.3 2.2-.6 3.3-.7 2-.2 2.4-.5 1.2-.8-.4 0-1-.3-1.4-.6-.4-.3-1.4-.6-2.4-.8-1.6-.3-1.6-.3-2.2.3-.6.8-1.5 2.6-1.3 2.9.2.4 1.3.2 2.8-.3zm-104.4-.3c-.1-.2-.2-.2-.2.1 0 .3 0 .5.1.4v-.5zm20 0c.1-.6-.2-.5 7.4-.6 2.8 0 3 0 4.6-1.5.8-.6 1.1-1 1.1-1.5 0-.4.3-1 .6-1.3l.5-.9h-5.5a51 51 0 0 1-9.6-.2l-.8-.1.1 2c.3 4 .4 4.6 1 4.6.2 0 .5-.2.6-.5zm-16.3-2.7-.1.9v.8-1.7zm88.2 1.2c0-.6-.7-1-3.2-1.7-1.5-.4-1.8-.4-2 0l-.6.3c-.9 0-.1.5 1.6 1 3.4 1.2 4.2 1.3 4.2.4zm22.7.3-.4-.5c-.4-.3-1.2-2.7-1.2-3.8 0-.4-.1-.6-.4-.6-.7 0-2.3-1.4-2.1-1.8 0-.1.4-.3.7-.3.2 0 .6-.2.7-.4l1-.5c.7-.2.8-.5.2-1.5-.3-.6-.3-.6-.2.4.2 1.1-.2 1.3-.6.2-.3-.6-.5-.7-1-.6-.6 0-.7 0-.6-.3.1-.3 0-.5-.1-.6-.2-.1-.3.2-.2 1 .1.6 0 1.4 0 1.6-.5.9-3.5.3-4.8-.8-.5-.4-.5-.4-.5.1 0 .4.4.7 1.4 1.1 1.5.6 3 1.8 2.7 2.1l-1.3.1c-.8 0-1.2 0-1.2.2s.2.3.4.3.5.2.5.4c.1.2.4.3 1.1.2.7-.1 1 0 1.2.3.3.6.7.5.6-.1-.2-.5 0-.6.3-.5l.8-.1c.5-.3.7.2.5 1-.1.4-.4.6-.7.6-.6 0-.6.2 0 1.2.3.5.9 1 1.4 1.3 1 .4 1.8.6 1.8.3zM33 31.6c0-1-.1-1.8-.2-1.8-.3 0-.4 3.1-.2 3.5.3.5.4.1.4-1.7zm17-1.8c-.1-2.2 0-3.6.1-3.8.2-.2.2-1.6 0-4.3a100.8 100.8 0 0 1-.2-6v-1.4l-.3 1.6a162.2 162.2 0 0 0 0 17.5c.3 0 .4-1 .3-3.6zm35.6-4c-.3-.4-.4 3.5 0 5.5.1 1 .2.6.2-2 0-2 0-3.4-.2-3.6zm30 6c1.7-.5 2.3-1 1.3-1-.8 0-4 1-4.2 1.4a114 114 0 0 1 2.9-.5zm10.4.4c.7-1.2-2.9-3-6-3-.6 0-1 0-1.1-.2-.1-.3-3.2.5-4.5 1.2-1.1.6-1 1 .2.5 1.2-.4 4.2-.9 5-.8.4 0 .8.2 1 .5.2.2 1 .6 1.9.8l2.1.9c.6.4 1.1.4 1.4 0zm7.2-.9-.1-.8-1.8-.1c-1.1 0-1.8 0-1.8.2 0 .1.7.2 1.7.2s1.8.2 1.8.3c0 .3-.3.4-2 .3-1.5 0-2.2.3-1 .5l2.1.2c1.2 0 1.2 0 1-.8zm-88.7-1.8.3-8.7.1-9.4c0-1.7 0-2.6-.4-3.3-.4-.9-.4-.6-.4 6.6l-.1 12c-.2 4.4 0 5.9.5 2.8zm83.1.2c.4-.6.8-1 1.1-1 1.3 0 .5-1.2-1.4-2-1.3-.5-1.6-.3-.3.3l1.1.7c.3.6-.2.5-1.5-.1-1.6-.8-4.4-1-6.4-.4l-1.4.3c-.2-.2-2 .7-2 1l1.5-.2c2.8-.7 3.7-.7 5.6-.1 1.8.5 3 1.2 2.7 1.4-.1.1-.8 0-1.5-.3-1.4-.6-2.5-.7-2.1-.4.2.2 3.6 1.6 3.9 1.7l.7-1zm6.3-.5c.4-.4-.5-1-1.3-1-1 0-2.2.8-2 1.2.2.3 3 .1 3.3-.2zm4.2 0c.5-.1.5-.2-.2-.2-.4 0-.7.1-.8.3-.2.3.3.3 1 0zM33 28.5c-.1-.2-.2-.1-.2.2 0 .3 0 .4.1.3v-.5zm34.6-.5c0-.2-.1-.2-.1.1 0 .3 0 .5.1.4v-.5zm-7.5-.4c.4-.3.8-.6 1-.6.8 0 1.5-3.2.7-3.6-.3 0-.4-.5-.4-1.3s-.2-1.3-.5-1.6c-.4-.5-.5-.4-.6 1.8-.1 1.3-.3 2.4-.4 2.5l-.1-2.5c0-1.8-.2-3-.4-3.7-.8-1.8-1-1-1 3.6a16 16 0 0 1-.2 4.5c-.2 0-.3-1.4-.3-3.8-.1-9.1-.1-10.3-.5-10.4-.2 0-.3.3-.3 1.2a414.6 414.6 0 0 1-.8 11.7v-4.5l-.1-4.5c-1 0-1.4 2.1-1.4 8.3 0 .5-.2 1-.3 1-.3 0-.3-.8-.2-2.5 0-2.2 0-2.4-.4-2.4-.6.1-.6 0 0-1l.3-1.2c-.2-.5-1 1.2-2.2 4.2-.6 1.6-.7 2-.6 3.4.2 1.3.3 1.6.7 1.6.4 0 .4-.2.3-.6-.1-.7.4-.6 1 .1.4.5.8.6 3 .8l2.8.2c.2 0 .6-.3 1-.7zm71.1-.1c0-.2-1-.7-2.1-1.3-1.6-.8-2.3-1-2.7-.8-.7.2-.5.3.8.6 1 .3 2.5 1.2 2.6 1.8.1.4.2.4.8.2l.6-.5zm7.7.4c-.2-.2-.6-.4-.9-.4-.4 0-.4 0-.2.4.2.2.6.4.9.4.4 0 .5 0 .2-.4zm-76.3 0H62c-.2 0-.1.1.2.1.2 0 .4 0 .3-.1zm-20.8-1-.1-.7s-.2.3-.2.8c-.1.4 0 .8 0 .8.2 0 .3-.4.3-.8zm74.6.4c.5-.4.5-.5.3-3.2a70 70 0 0 1-.3-12.3c.5-.3.3-1-.3-1-.4.1-.7.4-.8 1L115 20c0 8 0 8 1.3 7.1zm-48-2.5c-.2-3-.5-3.7-.8-1.9l-.2 1.3-.2-1.5c-.4-2.8-2.2-3.7-2.1-1 0 1 0 1 .2.6.4-1 .7-.5.6.6-.1.9-.4 1.2-.7.6l-.6-.2c-.6 0-1.3 1.2-1.5 2.8-.2.8-.2 1 .1.7.5-.4 2.8-.4 4 0l1.1.4c.2 0 .2-1 .1-2.4zM47 24c0-.6-.1-.2-.1 1s0 1.7.1 1.1v-2zm-13.4.5c.2-.3.4-1.5.1-1.5-.9 0-1.4 1.5-1 2.9l.2.7.2-.9c0-.5.3-1 .5-1.2zm86.8 1 3.3-1.6c.7-.2 1-.6 1-.7-.2-.1-1.4-.4-2.7-.5-1.3-.2-2.4-.4-2.4-.6 0-.2 1.4-.1 5.7.3 1.3.1 1.7 0 2.2-.4l.7-.6h-1.2c-.9 0-1.2-.1-1.7-.7-.7-.7-.7-.9-.7-5.3 0-3.3 0-4.6-.3-4.6-.2 0-.3 1-.2 3.4.2 3.4 0 5.4-.3 5.4-.1 0-.3-2-.4-4.3 0-2.4-.3-4.4-.4-4.5-.4-.2-3.3-.3-4 0-.5 0-.5.3-.5 4.4v4.3l.9.3 2.9.4c2 .2 2.6.5 2 .8l-3.4-.1c-1.8-.2-3.4-.2-3.5 0a3 3 0 0 0-.3.9c-.2.6-.1.7.3.6 1-.4 1.6 1.4 1 2.9-.5 1-.5 1.1-.3 1.1l2.3-1zm2.3.7c.6-.2.5-.2-.4-.3-.6 0-1.1.1-1.1.3 0 .3.6.3 1.5 0zm11-.2h-.4c-.2 0-.2.2.1.2.3 0 .5 0 .4-.2zm-9.2-.2h-.5l.2.1c.3 0 .4 0 .3-.1zm6-.4c.5 0 .7-.1.6-.3-.2-.3-2.8-.3-2.8 0s.8.5 1.3.4l1-.1zm-88.8-.9c0-.2-.1-.1-.2.2 0 .3 0 .4.2.4v-.6zm76-.6c-.2-.4-.2-.4-.2.3 0 .6 0 .7.2.5.3-.2.3-.5 0-.8zm-82.3-.2c0-.6 0-.7-.2-.4-.4.5-.4 1.3 0 1.3.1 0 .2-.4.2-.9zm103.7.2c-.1-.2-.3-.3-.4-.3-.2.2.2.7.5.7.2 0 .2-.1 0-.4zm-6 0c0-.6-.8-1.2-1.3-1-.4.1-.4.2.2.7.6.5 1 .6 1 .3zm-4-.5a1 1 0 0 0-.6 0l.3.1c.4 0 .5 0 .4-.1zm29.6-.3h-.5c-.3 0-.2.1.1.2.3 0 .4-.1.4-.2zm-96.3-1.4c0-.4 0-.4-.2 0-.2.2-.3.6-.3.8 0 .3 0 .3.3 0l.2-.8zM47 21.3c0-.5 0-.6-.3-.3-.1.3-.2.5 0 .6.1.4.3.3.3-.3zm16.4 0c0-.3.2-.5.5-.5s.5-.1.5-.3c0-.4-.4-.4-1 0-.6.5-.8 1.4-.3 1.4.2 0 .3-.3.3-.6zM34 19.7V18l-.3 1.3c-.2 1.3-.1 2 .2 2 0 0 .1-.7 0-1.6zm18.7-7.3c0-3.8.1-7 .2-7.2.1-.1.3-.3.5-.3s.2 1 .2 2.9c-.1 2.7-.1 2.8.5 2.9.5 0 .5 0 .5-1.2s.4-3.8.7-5c.2-.3 0-.4-1.8-.4h-2V5c-.2.6-.1 15.7 0 16.3l.6-.9c.5-1 .6-1.4.6-8zm84.1 8.1-.4-.2c-.2 0-.2 0-.1.2 0 .2.3.3.4.3.1 0 .2-.1.1-.3zm-6-1c.7-.7.8-.8 1-3.6.1-3 0-5.2-.5-5.5a23 23 0 0 0-5.1.2l-1 .2V15c0 2.5.2 4.2.4 4.3l.2.8c0 .5.1.5 2 .3 1.7-.1 2.2-.3 3-.9zm-62.3-7c0-3.7 0-6.8-.2-6.8-.5 0-.6 1.5-.8 7.3-.1 4.7 0 6.5.2 6.7.2.2.3.2.5 0l.3-7.2zm-1.7 1.7.2-7.8c.2-2.6 0-3-1-2.3a47 47 0 0 0-.8 11.4L65 19l.7.2.8.2c.1 0 .2-2.3.2-5.2zM64.3 19c.2-.7.6-14.4.4-14.6 0-.1-2.2-.2-4.6-.1-3 0-4.4.1-4 .3.8.4 1 .7 1 3.4 0 2.5.2 3.6.6 2l.1-2.5c0-1.7.2-2.5.6-2.5.1 0 .2 1.3.1 2.9 0 2.7 0 2.8.6 2.9.6 0 .6 0 .6-2.6 0-2.1 0-2.7.3-2.7.6 0 .7.5.5 3.1V12c.3.9.3 1 .6.5.2-.3.4-1.8.4-3.3.1-2.2.2-2.8.5-2.8s.4.8.4 4.3c0 2.7 0 4.1.2 3.7l.2-5c0-3.5.1-4.5.4-4.4.4.1.5 4.3.2 9.6-.1 2.3-.2 4.3-.1 4.4.2.3.9.2 1-.1zm-22.7-1.2-.1.4c0 .6 0 .8.1.5v-1zm19.4.1c0-1.4-.3-2.3-.6-2.1-.2.1-.3 2.2 0 2.8.3.8.6.4.6-.7zm56.7-2.8c0-1.9 0-3.5-.2-3.6l-.1 3.6v3.7l.3-3.7zM135 18c.1 0 .4-.4.6-1 .6-1.3 2.8-3.8 3.5-3.8.6 0 .9.6.9 1.8 0 .3.1.6.3.6.1 0 .2-1.1.2-2.6v-2.7H137c-4.2 0-4-.3-3.5 4.4.3 3.4.4 3.7 1 3.4l.6-.1zM54 15.3l.2-1.4c.2-.5-.2-1.2-.6-1-.2.2-.3.7-.2 1.8a64.8 64.8 0 0 1 .4 1.7l.2-1.1zm-12.4.2c0-.3-.1-.2-.2.1 0 .3 0 .4.2.4v-.5zM59 14c0-.2 0-.4-.2-.3-.4.1-.6.7-.2.7.1 0 .3-.1.4-.4zm161.7-2.4v2-2zM50 9.4c-.2-.7-.2-.3-.2 1.7 0 2.6 0 2.7.2 1V9.4zm-1.6 1.2c0-1.3-.1-2.2-.3-2.2-.1 0-.2.6-.2 1.4 0 1.4.2 3 .4 3l.1-2.2zm7.9-2.4c0-3.5-.4-3.5-.7.2-.3 2.5-.2 3 .3 2.8.2 0 .3-1.1.4-3zm112 2.6h-1.3c-.8 0-1.4 0-1.4.2s2.3 0 2.6-.2zm-17.3-1.3c-.2-.2-4-.1-4.1 0-.1.1.8.2 2 .2 1.3 0 2.2-.1 2-.2zm2.7-.1c-1-.2-1.5-.2-1.7 0-.2.2.2.3 1.5.2h1.7zm20-1.1c.2-.6.4-2 .4-3l.1-1.8h-1.5v2.3l-.1 2.7a117 117 0 0 0-10.7.1l-4.9.2h4.8a40.2 40.2 0 0 1 10 .6h1.6zm-34.3.6c.2 0 .3 0 .2-.1 0-.1-6.4-.3-14.1-.3-11.5-.2-14-.3-14.3-.6-.2-.3-1.7-.3-8.1-.3l-8-.1c-.2-.1 0-.4.2-.5.3-.2.5-.6.5-1.4 0-1.1-.1-1.2-.7-1.2s-.6 0-.5 1.3c0 1.3-.2 2.2-.6 1.8L93.6 6c0-2-.1-2-1.9-2h-1.5L90 5.7c-.2 1.8-.1 2.1.6 2.1.6 0 .8-.5.8-1.8 0-.5.1-1.1.3-1.3.4-.8.6 0 .4 1.5l-.3 1.6 2.8.2a93.5 93.5 0 0 0 15.6.8 604 604 0 0 0 29.1 0zm-44.6-.2a1 1 0 0 0-.7 0l.3.1h.4zm46.6-1.2.1-1.9c0-.6.1-1.2.3-1.2.4 0 .6 1.2.4 2.7l-.2 1.3 1-.2a68 68 0 0 1 7.7-.4h1V6c0-1.8 0-2-.6-2-.5 0-.6 0-.6.8a5 5 0 0 1-.1 1.4c-.3.8-.7.4-.7-.8 0-.8 0-1.2-.4-1.4-.6-.2-1 .5-.8 1.6.1.6 0 1-.1 1.2-.5.2-.8-.5-.8-1.7 0-1.7-.6-1.3-.8.4-.2 2-.8 2.2-.8.2 0-2.2-1-2.2-1 0-.2 1.5-.7 1.4-.7 0 0-.6 0-1.2-.2-1.4-.2-.3-5.2-.4-6.2 0-.4 0-.5.3-.4.6.2.5-.2 2.8-.5 2.8-.1 0-.2-.5-.2-1.2 0-1.5-.3-2.2-.8-2.4-.7-.3-1 .3-1 2.2l-.1 1.9h2c2.1 0 2.2 0 2.2-.6-.1-1.9 0-3.1.4-3.1.5 0 .6 1.1.2 2.7-.2.9-.2 1 .3 1 .9.2 1.2 0 1.4-.6zm-7.3-1c0-2-.1-2.7-.8-2.6-.6 0-.6.3-.8 1.8 0 .9-.2 1.6-.4 1.6-.1 0-.3-.7-.4-1.6 0-1.5-.2-1.7-.7-1.8-.5 0-.6 0-.6.7 0 1.1-.4 2.2-.8 2-.2 0-.2-.6-.1-1.4.2-1.3.2-1.3-.6-1.3-.7 0-.7 0-.7 1.6 0 1-.1 1.7-.4 1.7-.2.1-.3-.3-.3-1.6V3.9h-1.6v1.7c0 1.3 0 1.7-.3 1.6-.2 0-.4-.7-.4-1.7l-.1-1.6h-3.7l-.1.8-.1 1.8c0 .7.2 1 .6 1 .5 0 .6-.3.7-1.6.2-2.1.6-2 .7.1l.1 1.8h3.8l5.3.2h1.6zm19.6 1.3c.3-.1.4-.7.4-2 0-1.7 0-1.8-.6-1.9-.8-.1-1.2 1-1 2.6.3 1.7.4 1.8 1.2 1.3zM158 6c0-1.6-.1-2-.4-2-.3 0-.4.3-.5 1.3-.1 2.6-.6 2.7-.9.2 0-1.3-.2-1.5-.6-1.6-.5 0-.6.1-.8 1.8V8c.1.1.8.2 1.7.1h1.5zm17 .7c-.1-.3-.2-.1-.2.5 0 .5 0 .8.2.6v-1zm-15.2-.9c0-1.4 0-1.8-.4-1.8-.3 0-.4.4-.5 2 0 1.7 0 1.9.4 1.8.4-.1.5-.4.5-2zm2 1.8c.2 0 .5-2.6.3-3.2 0-.3-.3-.5-.7-.5-.5 0-.6.1-.7 1.6-.2 2 0 2.4.5 2.2l.6-.1zm2.9-1.8v-2l-.8.1h-1v4l.8-.1.9-.1zm2.2 1.8c.3-.4.7-3.6.5-3.8h-1l-.9.1v1.8c0 1 0 1.9.2 2 .2.2 1 .2 1.2-.1zm2.6-1.6c.3-2.3 0-3-.7-2.5-.4.3-1 3.4-.7 4 0 .2.4.3.7.3.5 0 .6-.3.7-1.8zm2.1 1.8.2-2.1c.2-1.9.2-2-.3-2.2-.8-.2-1.2.5-1.2 2.5 0 1.8 0 1.8.6 1.8h.7zM87.2 7V6c0-.7.2-1.7.5-1.7.2 0 .3.6.3 1.4 0 1.3 0 1.5.5 1.5.6 0 .8-.5.8-2V4h-2.9v1.4c0 .8 0 1.5.2 1.6.3.3.6.2.6-.1zM118 5.8c.2-1.7 0-2-.8-1.9-.6 0-.6.2-.7 1.4 0 1.8-.6 2-.7.1 0-1.4 0-1.4-1-1.5h-2l-1.2.3v1.4c0 1.4 0 1.5.6 1.4.5 0 .7-.3.8-1.1.1-1.4.6-1.4.7 0 0 1 .1 1.1 1 1.2l2 .1h1.2V5.8zm2.5-.2c0-1.7 0-1.7-.7-1.7-.8 0-1 .4-1 2 0 1.2 0 1.4 1 1.4.7 0 .7 0 .7-1.7zm-23 0c.1-1 0-1.2-.4-1.2-.5 0-.5.2-.5 1.1l.1 1.4c.5.4.8-.1.9-1.3zm1.4.2c0-.6 0-1.1-.2-1.1-.3 0-.4 1.9-.1 2.2.3.3.3.2.3-1zm7.2 0c0-1.1-.1-1.4-.5-1.5-1-.2-1.4.1-1.4 1.2 0 1.3-.6 1.3-.8 0 0-.9-.2-1-.9-1s-.8.1-1 .8c-.1 1.2-.7 1.2-.7 0 0-.8-.1-1-.5-.9-.3.1-.4.4-.5 1.4V7H106zm2.3.3c.2-1.3-.2-2-.8-2-.5.1-.6.4-.7 1.2 0 1.4.1 1.8.8 1.7.5 0 .6-.3.7-.9zm2.4-.6.2-1.4h-.9c-.8 0-.8 0-.8 1.3 0 1.4 0 1.7.9 1.6.4 0 .5-.3.6-1.5zM68.4 4c-.4-.3-.6 0-.4.6.1.4.2.4.4 0 .2-.2.1-.4 0-.6zm147.1.3c0-.4 0-.5-.2-.2-.2.2-.2.5-.1.6.2.4.3.2.3-.4z"/>
</svg>
