<?xml version="1.0" encoding="utf-8"?>
<svg xmlns="http://www.w3.org/2000/svg" xmlns:svg="http://www.w3.org/2000/svg" version="1.1" viewBox="0 0 594 185">
	<title>Tom Kitten lies on the floor, trussed up with string so that he cannot move.</title>
	<path d="M334.7 183.8c-3.9-.3-10-.5-20.8-.5-9.1 0-11.6-.2-11.6-.8 0-.3-.7-.3-1.3 0-.3.3-1.8.3-5 .1H291c-.7.1-6.3 0-13.8-.2l-15.1-.3c-5.7 0-10.4-.2-10.6-.3-.3-.1-.3-.3-.2-.5.2-.3 3.6-.4 19.8-.4a499.9 499.9 0 0 1 25 .4c3.5-.1 4 0 4.8.3.8.4 1 .4 1.4.1.4-.3 1.7-.3 6.9-.2h8.2c1.3-.2 2-.2 2.6 0 .5.2 3.7.3 10.3.4 6.9 0 9.7 0 10 .3.5.6 0 1.6-1 1.8-.8.2-.7.2-4.5-.2zm-90.7-1.7c-.1 0-6.7-.2-14.6-.2-15-.1-16.5-.2-15.7-1.1.3-.4 1.9-.4 11.6-.2l15.8.2c3.5 0 4.7.1 4.8.4 0 .4.8.4.8 0 0-.1.3-.2.7-.2.4 0 .6.1.6.3 0 .3-.4.4-1.4.5l-1.9.3h-.7zm-81.9-.3c-.5-.2-.4-.8.2-1.1a29 29 0 0 1 6.9-.1 262.4 262.4 0 0 0 20.1.2c0 .2-.2.4-.4.5-.8.3-26 .8-26.8.5zm37.1-.2c-3-.1-3.8-.3-3.8-.7a56 56 0 0 1 16.3-.1c.4.3.2.4-1.3.6-1.8.2-6.8.3-11.2.2zm-8.5-.3c-.5 0-.6-.2-.3-.5.2-.2.9-.4 2.1-.4 1.6 0 1.9 0 1.8.5 0 .4-.4.5-1.6.5h-2zm-72.9-5.5c-.2-.5-.2-.9.1-1.6.3-.5.5-1.1.5-1.3 0-.2.2-.5.5-.7.7-.3.7-.9 0-2-.4-.7-1-1.1-1-.6 0 .1 0 .3.2.3s0 .3-.4.7l-.6 1.1c0 .3-.2.7-.4.9l-.4.8c0 .2-.1.4-.3.4-.1 0-.3.5-.3 1-.1 1.1-.4 1.3-2.3 1-.9-.1-1.2-.3-1.6-1-.4-.6-.5-.7-1.2-.6-2.3.5-2.5.5-3.2-.1-.8-.6-.8-.6-6.6-.2-7 .4-8.5.4-21 0l-11.8-.1c-1.9 0-2.5 0-2.8-.3-.2-.4-.2-.5.7-.6h4.4a155.3 155.3 0 0 0 20 0c8.5 0 15.7-.1 16-.2.7 0 .8-.4.3-1.1-.4-.7-.4-.7 0-1.3l1.5-1.1a5.6 5.6 0 0 0 2.5-4c.1-1.3.7-3.3 1.3-5.1.1-.5.3-1.7.3-2.7l.2-2.8c.2-1 .1-1.1-.4-1.4-.3-.2-1-.3-1.6-.1l-2.2.2-3.2.5c-1.9.4-2.5.4-4 .2-1.1-.2-2.2-.3-2.6-.2-1 .3-2.5 0-2.5-.5 0-.3.8-.4 4-.3 2.3 0 5-.2 6-.3 1.1-.2 3-.4 4.2-.4 3.2-.1 3.8-.4 5.5-2.6l1.4-2-.8-.7-1.4-1.1c-.6-.4-3.7-.8-5.5-.7a36 36 0 0 1-7.1-.2c-1.4-.4-13-.3-18.5.1-4.7.4-11.7.7-12.5.5-.8-.3-.4-.6 1-.7.7-.1 3.4-.3 6-.3l6.5-.4a392.7 392.7 0 0 1 30.8.2c.6-.3 1.2-1.3.8-1.5-.4-.3-.5-1-.1-1.8.2-.4.3-1 .3-1.3 0-.5.2-.7 1.2-1 .9-.2 1.6-.6 2.7-1.6 1.5-1.5 4.3-3.4 5.4-3.7.4 0 1-.4 1.3-.7l.7-.5-1.4-.1c-1-.2-1.5-.1-2.4.3-1.3.7-1.7.5-1.5-.6.2-1 .2-1-.8-1-.7 0-1 0-.7-.2.2-.1.6-.2.8 0 .3 0 1-.3 1.5-.6l1.3-.7 2.5-1c1.5-.7 2.1-1.1 2.1-1.5 0-.2 0-.5-.2-.6-.8-.5.2-1.7 1.4-1.7l.8-.3c.4-.3.4-.5.2-1-.3-.4-.2-.6.3-1.3.8-1 1-2.3.2-2.5-.3-.1-.7-.1-.8 0l-2.6.2c-1.8.1-2.4 0-2.7-.2-.5-.6.2-.7 4.9-.7 2.4 0 4.5 0 4.7-.2.6-.4 5.8-.3 6.8.1 1.3.6 2.8.7 3.3.4 1.3-1-1-2-4-1.8a16 16 0 0 1-3.1 0c-1-.2-1.1-.4-1.2-1 0-.5 0-.7.8-1 .4 0 1.2-.6 1.8-1.1.5-.6 1.4-1.1 2-1.3 1.1-.3 7.6-.5 7.8-.2.4.5 2.1.4 2.1-.1 0-.3-.3-.4-1.8-.4-1.4 0-1.9-.1-2.3-.5-.5-.6-.3-1.4.3-1.4.2 0 .8-.2 1.2-.5.6-.5 1-.5 2.2-.4a8 8 0 0 0 2.1 0c.6-.1.7-.2.4-.8-.4-1 .1-1.5 1.5-1.5.6 0 1.3-.1 1.6-.4.3-.2 1-.4 1.7-.4l1.8-.1c.5-.1.5-.3.3-.7-.1-.3-.2-.7-.1-1 .2-.8 1.4-.7 2.6.3a5 5 0 0 0 1.3.8c.1 0 1 .4 1.8 1l2.4 1.4 1.7.8 1.1.5c.7 0 .2-.8-1.3-2-1.2-1-1.5-1.4-1.5-2 0-.6.2-1 .8-1.3l1.3-.9c.8-.6 1.7-.6 2.5.1.7.8 1.6 1.3 2 1.3.4 0 2.6 2.5 2.6 2.9 0 .4 1.6 1.3 2.4 1.3.5 0 .5 0 .3-.4l-.7-.4c-.3 0-1-.7-2.8-2.6-1.6-1.9-1.2-3.4.8-3.1.5 0 .8-.1 1.2-.7.4-.6.6-.7 1.2-.6l1.8.3c1 .2 1.4.4 2.5 1.5l1.4 1.4.1-1.6c.1-1.5.2-1.6.9-1.7.5 0 .8.2 1.7 1.3 1.1 1.5 1.7 1.7 3 1.3 1-.4 1.4 0 2.4 2 .4 1 1 1.7 1.2 1.7.2 0 .3.2.3.4 0 .8.8 1.2 1.6 1 1.4-.6 2.2-.3 2.8.9.3.6 1 1.8 1.7 2.7 1.1 1.8 1.3 2.3.8 3-.3.5.7 2.2 2 3 .5.4 1 1 1 1.2 0 .3.2.7.5.8.3.2.5.6.5 1 0 1.4 1.5 2.4 3.5 2.4 1 0 1.2 0 1.5-.6.3-.6.3-.7-.6-1.7-1-1.2-1.2-2-.5-2.7.4-.5.4-.5 0-.7-.3 0-.9 0-1.4.2-1 .3-1.7 0-1.3-.5.3-.5 4-2.3 6-3 2.3-.7 2.6-1 1.4-1.6-.8-.4-1-.6-.9-1.1 0-.4.4-.9.8-1.1.6-.4.8-.4 1.6 0l1.1.4 1 .6c.8.6 1.4.5 3.5-.4 2-1 10-4 12.3-4.7 3.2-.9 3.8-1.2 4.2-2 .4-.5.4-.6 0-1.1-.6-.7-.6-1.4.2-2.7.6-1 .7-1.5.7-3.6 0-1.3-.1-2.5-.3-2.6l-.7-2.4-.5-2.4c0-.1 0-.6.4-.9.4-.6.5-.6 1.4-.3 1.4.5 1.6.8 1.6 3.1v2l.5-.6c.3-.3.7-1.1 1-1.8.4-.6.8-1.2 1.2-1.2.3-.1.8-.5 1-1 .5-.8 1.3-1 1.7-.4.2.3.1 2.1 0 3-.2.2-.4.4-.7.3-.8-.2-1.6.6-2 2.1-.2.8-.3 1.4-.2 1.5 0 0 .9-.7 1.9-1.8 2.3-2.4 4.5-4.2 5-4 .4.2.3.6-1 3-.7 1.6-1.1 2-1.7 2.3-1 .3-1.8 1.2-2.4 2.5-.3.6-.6.8-1 .8-.7 0-1-.4-1-1.5 0-.4-.1-.6-.2-.3 0 .2-.4.6-.9.9-1.1.8-1.2 1.4-.3 2 .7.6.7.8.5 2.2-.2 2.3 0 2.5 2.2 2 2.4-.7 4.7-1.4 6.4-2.2l2.7-1c.7-.1 1.8-.6 2.3-1 .5-.5 1-.8 1.2-.8.5 0 3.2-2.2 4.3-3.4.5-.6 1-1.5 1-2 .2-.7.2-.8-.6-.7-1 .1-1.7-.4-1.6-1.4 0-.6 0-.9-.3-.9s-.4.4-.5 1.2v1.6c0 .5-1.3.3-1.9-.3-.9-1-1-2-.2-2.8 1-1 .9-1.2-.3-1.6-1-.3-2.4-1.6-2.4-2.3 0-.2.5-.9 1-1.6 1.2-1.4 1.2-1.6.8-1.8-.4-.3-1.7.6-2.2 1.5-.3.6-.6 1-.8 1-.4 0-2.4-1.7-3.3-2.8-.7-.8-1.2-1.2-1.6-1.2-1.1 0-1.3-.4-.9-1.9l.3-1.4c-.4-.4-1.3.6-2 2-.6 1.1-.8 1.4-1.2 1.4-1.6-.3-1.6-.3-2 1.5-.4 2.5-.6 2.9-1.5 2.6h-1.2c-.8 0-1-.2-1-.9-.1-1 .6-1.5 1.4-1.1.6.3 1-.2.8-1.2l-.1-1.2c0-.3-.1-.3-.4 0-.5.3-1.7-.7-1.7-1.5 0-.5 0-.5-.3 0a3 3 0 0 0-.3 1.3c0 1.8-1 1.3-3.1-1.4-.8-1-1.4-1-1.4-.3s-.6 1-1.5.5c-.6-.2-.9-.2-1.3 0-.5.4-.7.3-1 0-.6-.6-.9-2-.6-3 .3-.7 1.2-1.2 2-1 .7.2 2.5-.7 2.3-1.1-.2-.6-2.2-2.1-3.8-2.9-1.7-.9-2.1-1.6-1.3-2 .5-.2.9-.1 1.6.1a28 28 0 0 1 4.7 3c.8.9 3.4 2.4 4 2.5.4 0 .7-.2 1.1-1l2-2.7c2-2.7 2.3-3.2 2-5.8 0-2.2 0-2.2.6-2.2.4 0 .7.2.8.6.2 1 .2 4 0 4.8-.2.6-.1.7.6.8.6.2.8.3.8.8 0 .3-.2.7-.4 1-.6.4-2.2 3.3-2.2 3.9 0 .8.4.8 1 0 .6-.9 1.6-1 2.8-.5.5.3.8.2 1.4-.2l2-1.2c.9-.4 1.5-1 1.8-1.4.2-.5 1.5-2 2.9-3.2 2.7-2.5 4.6-3.7 6.3-3.6 7.6.2 7.5.2 9 2.3l1.8 2.2c.8.7 1.1 1.3 1.1 1.8l.2 1.8c.4 2.6.3 3.3-1.2 6-.8 1.3-1.8 2.9-2.3 3.4l-.8 1v4c0 3.1-.1 4.1-.4 4.3-.7.4-1.2-.3-1.6-2.1l-.5-1.8a4 4 0 0 0-.5 1.2c-.3 1-.3 1.1.2 1.6.7.7.7 1.4 0 2.4-.4.6-.5 1-.4 1.7.5 2.8.5 3-.2 4.6-.4 1-.7 1.9-.6 2.2 0 .4.2.4 1.2-.3 1.6-1 2.4-2 2.4-2.6 0-.8 1.3-2.7 1.4-2 0 .8 0 1.1-.7 2.6-1.4 3-1.9 4.5-1.8 5.8 0 .6 0 1.3-.2 1.4-.1 0-.3.5-.3 1 0 .7-.1 1-.6 1.4l-1.4 1c-.7.6-.8.5 1 1.9.7.6.8.8.7 1.8 0 .8.2 1.4.6 2 .7 1.3 3.2 4.3 3.5 4.4l1.7 2.1c2.5 3.4 3 3.6 3.7 1.5l1.2-3.3c.8-2.1 1-3.1 1.7-8.1.4-3.5.7-4.3 1.3-4.3.4 0 1.5 1 1.5 1.4l.6 1.2c.6.9.6 1 .3 2-.2 1.1-.2 1.3.5 2.7.7 1.4.7 2 0 2l-.7-.6-.5-.6-.6 1a16 16 0 0 0-1.3 2.8c-1 3-1.8 5-2.4 6.3-.2.7-.4 1.3-.3 1.5.1.5 2.2.5 5.2 0 2.3-.4 3-.2 2.3.5-.5.5-3.6 1.2-5.5 1.2-1.2 0-1.3.1-1.3.6 0 .6.5.7 4 .8 2.2 0 2.7.2 2.7.5 0 .4-.2.5-3.5 1-2.1.5-2.3.7-1.6 2 .3.7.5 1.5.4 2.2 0 1 0 1.3.5 1.5 2 1.2 2.6 2 1.3 2-.5 0-.7.2-.7.5 0 .6.6.9 1.1.6.6-.4 1.9-.3 2.4.1s.5.4.7-.2c.4-1 1.3-1.1 3.4-.5l2.8.7c1 .2 1.7.7 1.4 1.2 0 .1-.5.4-1 .5-.8.3-1 .5-1 1.2-.1.7-.3.9-1 1-.8.4-.8.4-.3.8.3.3.4.7.3.9-.2.6-1.4.4-3.4-.6-1.6-.8-2-.9-2.2-.6-.2.3 0 1 .8 1.9.2.3.7.5 1.2.5 1 0 1.1.1 1.9 2.7l.4 1.5.7-.4c.8-.6 2.2-1.6 4.4-3.5.8-.8 2.3-1.8 3-2.4 2-1.2 2.6-2.5 1.8-3.6-.3-.5-.7-2-1.1-4.6l-.2-.9-.4.7c-.2.4-.3 1-.3 1.4l-.5 1.9a22 22 0 0 0-.9 2.5c-.4 1.9-1.6 4.4-2 4.4-.4 0-.4-.6 0-1l.4-1.3a158.7 158.7 0 0 1 1.4-5.6l.5-3.1c.6-3 .2-10.4-.5-10.9-.2 0-.3-.4-.3-.9 0-.8.7-1 1.3-.4.2.2.3.2.4-.2l.3-.8c0-.3-.3-2.2-.8-4.3-1-4-1-4.6.1-4.8.7-.1 1.6 1.3 1.6 2.4l.8 3.6 1 3.9a64.7 64.7 0 0 0 5 14.1c.4 0 1.6-1.2 3.5-3.2 1-1.1 1.1-1.4 1.1-2.6 0-.8-.1-2.3-.3-3.3-.2-1.5-.4-2-1-2.4-2-1.5-3.3-3-3.9-4.3-.5-1.2-.6-1.5-.3-2.5s.2-1.3-.3-2.5c-.9-1.9-1-2.2-1.3-3.6-.4-1.5-.2-3.5.4-4.2.4-.4.5-1 .5-2.4 0-1.7 0-2 .6-2s1.6 1.2 1.6 2.1c0 1 .7 2.4 1.6 3.3.5.5.9 1.3 1 1.9a75.2 75.2 0 0 1 3.6 17.8c.2 3.1.6 3.9 1.4 2.9a57.9 57.9 0 0 1 2.4-3l.2-1c.3-.8.3-1-.2-1.6l-.4-1.2c0-.4.3-.5 1.5-.5l1.4-.1c1.5-2 3.2-5.6 4.7-10 .5-1.3.5-1.7.3-2.5-.2-.5-.4-1-.6-1.1-.3-.4-.3-2 0-2.5.3-.4 0-1-1.2-2.9l-2.4-3.8a27.5 27.5 0 0 0-3.7-4.6c-1.2-1.2-1.4-2-.6-2 .8 0 4.3 3.7 5.1 5.4l1.4 2.2 1 1.4c0 .1 0 .3.2.3l.9 1.4 1 1.6c.3.2.7 1 1.1 1.7.7 1.3 1.2 2 1.2 1.4 0-.5 1.5-.9 2.2-.6.6.2.8.5.9 1.3 0 .5.4 2.2.8 3.6.6 2.7.6 3 0 3-1 0 .1 2 1.9 3.3 1 .8 1.6 1.5 2.2 2.8.5.9 1 1.7 1.2 1.7.3 0 1.2-.9 1.2-1.2l.8-2c.6-1.2.9-2.1.9-3.2 0-1 .1-1.5.6-1.8.7-.7.8-2.3.1-2-.6.2-1 .2-2-.1-1-.4-.9-1 .1-1.6.8-.4.8-.5.6-1.7-.1-1.1 0-1.2.6-1.6.5-.2.9-.7 1.2-1.9.4-1 .7-1.6 1.2-1.7.7-.3.8-.7 1.2-3.7l.2-2.5-.6-.6c-.9-.7-.9-1 0-1.9.8-.9.9-2.9 0-3.6-.3-.4-.4-.8-.4-1.8 0-1.4-.3-1.6-1.3-1-1 .7-1.9-.5-1-1.4.3-.3.3-.5 0-.9-.2-.3-.6-.5-1-.5-.5 0-.6 0-.5-1.1 0-.6 0-1.1-.2-1.1l-.7-.5c-.3-.3-.3-.5-.1-.9.4-.7.3-2.3 0-2.5-.3 0-.8 0-1.2.3-1.7.9-2 .3-.8-1.5.5-.7 1-1.8 1-2.3.3-1.6 1.4-2.4 3.1-2.4 1 0 1.5.1 2.1.7.8.6.9.8.7 2-.2 1.4.2 1.7.9.7.2-.3.6-.5 1-.5 1 0 1.3.7 1 2.3l-.1 1 .6-.8c.6-.7.6-.8.3-1.7-.8-2.2-.8-3.2.1-3 .3 0 .8.5 1 1l1.1 1.3c.3.3.6.9.7 1.4.1.6.5 1 1.2 1.5s1 .6 1 .3c0-.2.4-.6.7-.9.4-.3.7-.7.7-.8 0-.5 1-.3 1.4.2.5.8.9.9 2.2.5 1.4-.3 1.8 0 1.5 1.3 0 .5 0 1 .3 1.3l.4 1c0 .9.7 1 .9.3.2-.8 1.4-2 2-2 .3 0 .8.4 1.2 1a5 5 0 0 0 2.2 1.4c1.3.5 1.4.5 1.4 0 0-1.4.7-1.7 1.7-.7l.6.7 1.8-.7 2.3-.6c.4 0 1.3-.3 2.2-.6 3.8-1.3 10-1.6 12.5-.7l2.4.8c.6.2 1.6.7 2.2 1.2 1 .8 1.1.9 3.6.9 5.3 0 7.4 0 9-.4 6.2-1.5 10.4-1.2 11.3 1 .4 1.1.3 1.8-.5 3-.8 1-2.1 3.8-2.7 5.6a23 23 0 0 1-2.3 4.2l-2.2 3.4c-.5 1.1-.8 4.7-.4 6.6l.5 4.7c0 1.8.2 3.3.4 3.4.4.2 12.6.2 16.7 0 2.9-.3 39.2-.7 49.3-.6 11.4 0 26-.3 27.6-.8 1.7-.4 3.8-.2 3.9.4 0 .3 0 .6-.2.8-.2.2-8 .3-29 .3a1663.2 1663.2 0 0 0-44.2.8c-10.7.3-24.3 1-24.5 1l-.7 1c-.3.7-.4 1.7-.4 6.1 0 4.6 0 5.3.5 6 .3.4.4 1.1.4 2.2 0 1.5 0 1.6 1.2 2.8.7.8 2.3 2 3.9 3 4.2 2.4 6 4.7 4.9 6-.2.3-1.2 1-2.2 1.6a17 17 0 0 1-7.6 2 10 10 0 0 0-2.9.5c-.6.4-1.3.4-4 .2a35.6 35.6 0 0 0-6.8.1 41 41 0 0 0-5.2.5c-1 .3-2.7.4-3.7.4a6 6 0 0 0-3.2.8c-1.4.6-1.5.6-3 .3-1.2-.2-2-.2-2.6 0-.9.2-2.9 0-3.1-.3l-.8-.2a30.5 30.5 0 0 0-8 2.4c-.4 0-1.2 1-1 1.3h3c3.7-.4 6-.3 6.4 0 .2.3.4.3.5 0 .3-.4 1-.6 1.8-.4.5.1.6.3.4.5a37.8 37.8 0 0 1-13.6.5c-1-.4-1.5-.4-2.4-.1-1.3.4-6.1.1-7.7-.4a74.9 74.9 0 0 0-7-1.6c0 .2.1.4.3.4l.9.5c.4.6.4 1.5 0 3.5-.2.6 0 .8 1 1.6 1.4 1.1 3.7 1.6 5.2 1 2.7-.7 4.3-.5 3.7.6-.6 1-2 1.4-5.2 1.4-2.7 0-3 0-4.1-.7l-2-1.5c-.9-1-1.1-1-2-.1-.7.8-3 2.5-3.7 2.8h-.6c-.2-.4.6-1.3 2.2-2.5 1.2-.8 1.6-1.3 1.6-1.7-.1-.5-.4-.5-2.2-.7-3.7-.3-5-.5-6.3-1.2l-1.4-.8a7 7 0 0 0-1.5-1l-1.3-.7-1.1.6c-.6.3-1 .5-.7.5.2 0 .7.2 1 .5l.6.5-.5.5c-.5.5-1 .6-2 .6-1.4 0-1.5 0-1.6.8l-.2.8h-3.4c-3 0-3.6 0-4.4-.5-1.1-.7-1.9-.7-2-.1-.4.7-1.4.9-4.4.6l-4.6-.5c-2.1-.3-6.1.2-7.4 1a4 4 0 0 1-1.7.6c-.5 0-1.2.1-1.6.4-.4.2-1 .4-1.4.4-.4 0-1 .1-1.4.4-.8.3-1.4.3-6-.7l-2.4-.4c-.7-.1-1.7-.5-2.4-.8-1-.5-1.6-.6-4-.5-2.9 0-3 0-3.5.7-.4.6-.7.7-1.8.7-1 0-1.7.2-2.3.7-3.5 2.2-4.7 2.8-6.2 2.8-.9 0-1.8 0-2 .2-.5.3-4.9.6-5.7.4-.7-.2-.2-.8.8-1 1-.2 1.2-.8.4-1.1-.2-.1-1.3 0-2.5.2-1.8.4-2.2.6-3.6 1.8-1.9 1.7-2.2 1.7-3.3.1-.4-.5-.4-.5-1.4 0-1.4.6-2 .4-1.9-.6v-1c-.3-.1-1.3.3-2 1-1.3 1-5.6.8-6.7-.5-.6-.6-.7-.7-1.5-.3-1.5.6-3 .8-4.1.7a3 3 0 0 0-1.9.2c-.5.3-.7.3-1.6-.2-1-.5-2.4-.6-3.9-.3-.6.1-1 0-1.3-.2-.3-.2-1.2-.4-2.7-.4-2.2 0-5-.7-8-2a30.3 30.3 0 0 0-7.8-2.6l-1.8-.7a18 18 0 0 0-5.1-1.4c-3-.6-4.7-1.2-5.5-1.9-.7-.6-1.2-.7-4-1-2.5-.2-3.4-.2-3.8 0-.8.4-6.5.1-8.5-.4-1-.3-3-.4-6.1-.4-2.6 0-4.7-.1-4.8-.2-.1-.2 0-.4.2-.6a199.1 199.1 0 0 1 12.5.4c1 .1 1.4.1 1.4-.2 0-.6-1.6-1.4-3.3-1.7-.8-.2-1.7-.5-1.9-.7-.3-.2-3.1-.3-10-.4-10.9-.1-10.3-.1-13.6.1l-2.4.2-1 1.2-1.6 2.5c-.4 1-.6 1.3-1.3 1.4-.6.1-1 .4-1.2.8l-.7 1.4c-.3.4-.6 1.2-.8 1.8-.3 1.2-.7 1.6-3.5 3.3-2.2 1.4-2.8 2-3.4 3.2-.6 1.2-.5 1.8.3 1.8a301 301 0 0 0 21 .2c6.7 0 7.3.3 1.3 1a98 98 0 0 1-24.4-.8l-1.4-.5-1.6 1.4c-1.5 1.3-1.7 1.3-2.7 1.2-1.2-.2-2.4.2-3 1-.3.3-.8.4-1.3.4a2 2 0 0 0-1.4.7c-.7.7-1.9 1.5-2.4 1.5-.2 0-.4-.3-.6-.7zm-4.8-4.3c0-.3-.3-.5-.9-.5-.7-.1-.9 0-.9.4 0 .5.2.6 1 .6.7 0 1-.1.8-.5zm1-2.5c.5 0 .5 0 0-.2-.4-.3-1.2 0-1.2.6 0 .2.1.2.4 0 .1-.2.5-.3.8-.4zm136.7-5.7c0-.4-.4-.4-.8 0-.4.6 0 1.1.4.7l.4-.7zm-116-.5c.3-.1.6-1.2.2-1.2-.2 0-1.1 1-1 1.2.2.2.2.2.7 0zM242 162h-.8l.4.1c.4 0 .6 0 .4-.1zm-10-.7c1-.5 1.5-1 1.2-1.4a40 40 0 0 0-6.7-.1l1.5.8c1 .3 1.9.7 2.2 1 .6.4.4.4 1.7-.3zm93.5-.3h-.5c-.2 0-.2 0 .1.1.3 0 .5 0 .4-.1zM135 159.8l.3-1c.5-.6 1.4-.2 1.8.9.5 1.3 1 1.2 1-.3 0-.7.2-1.3.4-1.4l.5-1c0-.4.2-.5.7-.4 1 .1.6-.5-.4-.8-1.3-.3-1.4-.3-1.4 0 0 .2-.3.6-.6.9-.3.3-.5.7-.5 1 0 .2-.1.2-.5 0-.7-.4-2.3-.2-2.5.3v.6c.2.1.4.7.5 1.3.1.7.3.9.4.7l.3-.8zm188.3.8c0-.3-.7-.9-1-.7-.2 0-.2.2.1.5.5.5 1 .6 1 .2zm-54.6-.3c.8-.4.9-.7.3-1-.6-.2-1.7.4-1.7.9s.5.5 1.4 0zM291 159c.2-1.7 1-3 2-3a1 1 0 0 0 1-.6c0-.4.8-1 1.5-1.4l1.6-1.1c.2-.2.5-.3.6-.2.2.1 0 1-.3 1l-1.6 1.1a7 7 0 0 1-2.1 1.4c-1 .2-1.2 1-.5 2 .6 1 1.4 1.2 2.4.7.4-.2.5-.5.3-1.3-.1-1 0-1 .4-1 .3 0 .9.3 1.3.9a6 6 0 0 0 1.9 1.4c1 .5 1.3.6 2.7.3 1.8-.4 1.8-.8.1-.8-1.9 0-2.8-.3-2.8-.9 0-.5 1-.6 2.3-.2.5.1 1.2.1 1.6 0l.8-.2-1-.4c-1.3-.7-1.5-1-1.4-1.4.2-.4 1.3-.7 1.9-.4l2.5.4c1.8.2 2 .2 2.2-.2.2-.5-.7-1.6-1.7-2.1-.6-.3-.7-.5-.6-1.5a5 5 0 0 0-1.5-4c-1-1-1.6-.9-2.6.9-.9 1.5-2.3 3.1-2.7 3.1-.2 0-.2-.1 0-.5 1.8-3 2.1-3.8 1.6-4.1-.1 0-1.1.7-2.2 1.7l-3.7 3.3c-1 .8-2.1 2-2.5 2.6-1.3 1.8-2.6 1.6-2.5-.3 0-1 0-1.1-.7-1.1-.9 0-4-1.7-4.9-2.6-1.1-1.2-2-3-2-4.1 0-.6 0-1 .2-1l.7-.4c.3-.4.3-.5 0-1l-2.5-4.4c-.6-1.3-.6-1.7-.5-3.5.2-2 .2-2-.7-3.2-.6-.7-1-1.3-1-1.5l-.3-.5c-.3-.3-1-.1-1 .3 0 .2-.4.9-1 1.5a8.8 8.8 0 0 0-1.9 4.2c-.2.8-.5 2-.8 2.4-2 3.9-2.1 4.3-1.9 5.2.3 1.2 2.2 3 4 3.9 6 2.9 6.1 2.9 5.6 3.2-.5.3-4.7-1.1-6.5-2.3-2.2-1.4-3-2-3.6-2.5-.4-.3-.8-.5-1-.4-.2.2 0 .7.8 1.8a19.9 19.9 0 0 0 4.5 4.8c.8.6 1.5 1.1 1.5 1.3 0 .4-.5.9-1 .9a16.8 16.8 0 0 1-5.5-3h-1.7c-3-.1-6.1-2.5-5.7-4.3.2-.8 1-.9 2.3-.2.4.3.8.4.9.4l1.1-1.6c1.9-2.5 4.6-8.3 5-10.6 0-.5.8-2.8 1.5-5 1-3.3 1.3-4.3 1.2-5.1-.2-1-.6-1.5-5.5-7a20.3 20.3 0 0 1-2.7-3.6c-.3-.7-.7-1.3-.9-1.4-.4-.2-1 1.2-1.7 3.6-.7 2.7-.2 6.2 1 8l.4 1.2c0 .2.2.7.5 1 .7.6 1.2 1.9.9 2.2-.4.4-1.5-1-3-3.6L263 124V121c0-4-.4-4.1-1.3-.1-.3 1.6-.4 1.7-1 1.8-.9.1-1 .3-.2 1.5.5 1 .5 2-.1 2l-1.9-.7c-1.6-.7-2.5-.8-3-.3s-.4 1 .4 2a6.6 6.6 0 0 1 1.4 3.8c0 1.3-.4 1.5-1.1.6-1.3-1.5-3-3-3.5-3a3 3 0 0 0-1.2.4l-1.3.4c-.8 0-1 .6-.5 2.2l.4 1.3.3-.8c.3-.5.6-.8 1.2-.8.9-.1 1.4.2 1.7 1.5l.6 1.5.2 1.4c-.1 1.2-.7 1.3-2 .4-.4-.4-1-.6-1.3-.6-1.2.2-.4 2.7 1 3 .6.1.7.2.4.6-.1.2-.4.3-.6.3-1.1 0-1 2.5 0 2.8.9.2.9.9 0 1.2-.5.2-.7.4-.7 1 0 1-.6 3.5-.8 4l-.7.3c-.3 0-.6.2-.7.4-.1.4.6 1 1.4 1 .7 0 .8.7.2 1.2-.7.6-.5 1.6.4 2 .9.5 1.2 1.2.8 2-.4.7-.4 1 0 1 .7 0 1.4-1 1.5-2 .2-.8.3-1 .8-1 1.1-.2 1.7.5 2.5 3 .5 1.9.8 2.4 1.4 2.7.6.4.7.4 1 0 .2-.3.4-1.2.4-2.2 0-.9.2-2.1.4-2.7.3-1 .3-1 2-1.2a7 7 0 0 1 2 0c.3.1.2 1.2-.2 2-.4.7-.4.9 0 1.3.3.6.5.6 2.1.3.6-.1 1.1 0 1.5.2 1 .7 1.8.6 1.8-.2 0-1.4 2-1.6 3.6-.4a6 6 0 0 0 2 .9 3 3 0 0 1 1.4.7c.6.7.8.6 1-.3.2-.5.5-.9.8-1 .7-.3 1-.2 1.2.6.3.8 1 .9 3 .2l1.3-.4 1.3.7c.8.4 2 .8 2.6.9.7 0 1.4.3 1.5.5.5.6 1.7 1.4 2.2 1.4l.5-1.2zm-34.9-19.2a7.2 7.2 0 0 1-1.5-3c0-.6.9-1 1.5-.7.8.5 1.6 4 1 4.2l-1-.5zm58.5 20.2c0-.4-1.2-1.2-1.6-1-.3.3-.3.9 0 1 .7.3 1.6.2 1.6 0zm-73-1.1c.8-.4 1.6-.8 1.7-1 .4-.3.1-.9-.5-.9-.7 0-3 .5-4 1l-1.6.5c-1.2.3-1.3.8-.2 1 1.5.2 3.1 0 4.7-.6zm-18.3-.7c.4-.8-.2-1.1-1.7-1.1-1.7 0-2 .4-.5 1 1.3.7 1.9.6 2.2 0zm96.6-.6c0-.5-.2-1.1-.4-1.5-.4-.5-.4-.8-.1-1.5.3-1.1 1.1-1.4 2.2-.6.5.3 1 .4 1.5.3 1-.3 1-1 0-2.1-.8-.9-2.1-3.2-2.1-3.8 0-.8.6-1.6 1.5-2 2-.9 4.5-1.3 4.5-.8 0 .4-.5.8-1.3 1-.6.1-.8.3-.8 1 0 .5.2.7.9 1l2 .2c1.3 0 1.7.5.9 1.1l-.6.6c0 .3 2.4 2.5 3.6 3.3l2.5 2.2c1.5 1.3 2.1 1.6 2.1 1 0-1 1-1.6 2.1-1.6 1 0 1.2-.2 1.3-.5.1-.6-.7-.7-1.6-.2-.6.3-3.4-.4-3.6-.9-.2-.6-1.9-2-2.4-2-.8 0-1.9-.8-1.9-1.4 0-.3.3-.6.7-.8 1-.5 3.2.3 4.6 1.8 1.5 1.5 3.6 2.3 4.2 1.5.4-.6.2-.9-.7-.7-.6.1-.8 0-1-.6a13 13 0 0 0-2-2.5c-1.2-1.3-2-2.6-3.3-5.2-1.8-3.8-2-4.7-.4-3.4.5.4 1 .7 1.4.6.5 0 .6-.2.6-1-.1-1.2-.9-2.6-1.4-2.6-.2 0-.7.2-1 .5-.7.5-1.7.7-1.7.4 0-.2 1.3-2 1.6-2.3.4-.4 2.4-3.1 2.7-3.8.6-1 .6-1.4 0-3.1-.5-2-1.3-3.6-2-4.6a43 43 0 0 1-2.4-4.4c-1-2-2-3.9-2.3-4.2-.5-.7-.6-.7-1.3-.3-.5.2-1 .7-1 1a80 80 0 0 1-3.5 7c-1.1 1.7-2 3.8-1.9 4.3 0 .3.5.8.9 1 1 .8 1 1.6 0 1.6-.5 0-.9-.1-1-.3l-.9-.4c-.6-.1-.9 0-1.6.7-.4.5-.8 1-.8 1.2 0 .2-.3.8-.8 1.3-.4.6-.8 1.2-.8 1.5 0 .3.4.8.8 1.2 1.1 1 1.1 1.5 0 1.3-1.8-.4-2-.4-2.3-.2-.3.2-.5 1.8-.7 7.4 0 1.9-.2 2.6-.5 3-.6.6-1 .6-1.8 0-.5-.6-.5-.8-.4-3.1.2-2.2.2-2.5-.2-2.3-.2 0-.8.9-1.2 1.8l-.9 1.7.7 1 1.5 3c.9 2 2 4 2.5 4.3l.8.2c.3 0 .8.2 1.2.6.7.6.7.7 0-1.3-.1-.7-.1-1 .2-1.2.6-.5 1-.1 2.2 1.9 1.7 2.7 1.8 3 2 3.7.2 1 .9 1 .9 0zm-2.5-11.8c-.2-.5.3-.8 1.7-1.2 1.2-.2 3.2-.3 2.4 0-.9.2-2.7 1.1-2.8 1.4-.2.3-1.1.2-1.3-.2zm11.2-1c0-.3.3-.4.6-.4s.5.1.5.3c0 .3-.2.4-.5.4s-.6-.1-.6-.4zm-10.4-1.8c-.8 0-1.6-.3-1.9-.4-.5-.3-.5-.3 0-.5a13 13 0 0 1 5.2 0c.8.8-1 1.3-3.3 1zm-68 13.6c.2-.8.2-1.1 0-1.3-.5-.5-.9 0-1 1.2v1.5c0 .4.5-.3 1-1.4zm-18.2.3c.5-.3.6-.4.2-.4l-1.5-.5c-1.1-.6-3.1-.7-3.1-.2 0 .2.2.6.5.9.7.7 2.7.8 3.9.2zm-95.8-1.5c.2-.1.4-.6.5-1 .2-1.1.8-1.7 1.5-1.3.2.1.5.5.5.8 0 .5 0 .5.4.2.4-.4.5-1 0-2.2-.2-.7-.2-1 0-1.5s.1-.9-.4-1.9l-.8-1.2-.7 1c-.2.6-.7 1.3-1.1 1.5-1.4 1-2.5 2-2.5 2.4l.4.6c.2.2.5 1 .6 1.8.2 2.5.3 2.6.9 1.7l.7-1zm218.6.2c0-1.2-1-1.6-1.5-.6-.3.8 0 1.3 1 1.3.4 0 .5-.2.5-.7zm-228.6-.7c.5-.3.8-.8.8-1 0-.4-.2-.4-.9.1a2 2 0 0 1-1 .4c-.5 0-1 .6-.8.9.3.3 1.2.2 2-.4zm110.8.4c.6-.1.8-.3.7-.5-.2-.6-3.3-.5-3.3 0 0 .6 1.2.8 2.6.5zm107-1c.6-1 .7-1 2.1-1.2.8-.1 1.8-.3 2.2-.5a4 4 0 0 1 1.2-.3c.3 0 .3.1-.2.6-.7.8-.7 1.1.2 1.5 1.7.7 2.1.6 2.9-.2l1.4-2c.5-1 .6-1.3.2-1.5-.5-.3-1.2 0-2 .7-.6.6-2 .9-2 .4 0-.1.4-.6.9-1 .8-.6.8-.6.3-1.1-.4-.3-1.1-.6-2.2-.7-2.5-.3-3.9-2-2.5-3.2.6-.7 1.2-.8 1.2-.4 0 .3 1.2.8 1.8.8.8 0 .7-.4 0-.9-.5-.3-1.3-.4-2.2-.4-1.2 0-1.7-.2-3-1s-1.9-1-2.1-.8c-.2.2-.3 1-.3 2.7l-.2 2.6-.2 2.4c0 1.2-.1 2.5-.3 2.8-.1.6 0 .8.7 1.3 1.3.7 1.4.7 2.1-.6zm1.6-4c-1.2-.3-1.6-.6-1.6-1.3 0-.9.8-1 1.8-.5.5.3.8.6.8.7l.4.2c.6 0 .8.6.3 1-.6.3-.5.3-1.7 0zM223.2 154c-.3-.3-2.3-1-3-1-.4 0-.5 0-.2.4.7.6 1.5 1 2.5 1 .8 0 1-.1.7-.4zm3.7-.4c0-.2.4-.3.8-.4.9-.1.9-.1-.1-.1-.5 0-1 0-1 .2 0 .1-.3.3-.6.3-.5.1-.5.1.1.2l.8-.2zm21.3-1.4c.3-.6.3-.8-.2-1.4-.4-.6-.7-1.5-.7-3 0-.7-.8-.6-2.5.4s-4.5 2.2-5.4 2.2l-1.3-.3c-.9-.5-3-.1-3 .5 0 .8 1.4 1.4 2.6 1.2 1-.2 1-.1 1.4.6.1.4.4.8.6 1 .5.3 3.2.2 4.5-.3 1.4-.4 2.5-.3 2.5.3s1-.3 1.5-1.2zm-15.4.7c.8-.3.3-1.2-.6-1.2-.3 0-.6 1-.4 1.2.2.2.5.2 1 0zm125.8-.3c0-.8-.8-2-1.5-2.4l-.8-.4-.3 1.1c-.4 1.3-.4 1.2.7 1.7 1 .5 2 .5 2 0zm-139.2 0h-.5c-.2 0-.2.1.1.1.3 0 .5 0 .4-.1zm-65.9-.7 2.9-.3a72.2 72.2 0 0 1 19-1.4c3 0 6.4-.2 7.5-.4h2.7c.8.4 11-.1 11.7-.5.7-.4 3-.3 3.3 0 .3.3.5.3 1 0a6 6 0 0 1 1-.3c.4-.1-.8-.2-2.5-.2a11 11 0 0 1-3.3-.3l-1.2-.2-2-.3-11-.4c-5.9 0-10.5-.2-11.4-.4-1-.2-2.8-.3-5-.2-2.7.2-3.5.1-5-.3l-1.7-.5 1.2-.1c1.5-.2 9.6-.6 14.6-.6 5.5-.1 5.2 0 4.6-.6-.6-.7-.5-1.4.2-1.5 1.7-.4 2.4-.5 4.7-.7a95.5 95.5 0 0 0 9.8-1.4c1.3-.1 3.2-.5 4.2-.8l1.7-.6.1-1c0-.7 0-1.5-.2-1.8-.3-.5-.4-.5-2.2-.3-3.4.3-6.6 0-8.5-.9-.7-.3-1-.3-2.1 0-.8.3-2 .4-2.6.4-1.1 0-1.3 0-1.4-.6-.2-.6-.3-.7-.9-.5-.4 0-1 .4-1.6.7-1.1.7-4.7 1.2-5.2.7-.6-.6-.4-1 .7-2 .8-1 1-1.2.5-1.2-1.3 0-4.5 2.5-4.5 3.4 0 .6-.5 1.1-1 1.1s-.8-.5-.8-1.3c0-.2-.2-.6-.4-.7-.8-.7-4.2 2.8-3.7 3.8.2.3.4.3.5.1.1-.2 1.5-.3 4.1-.3 4 0 4.8.1 4.8.6 0 .3-1.4.4-4.6.4-3.2 0-5 .2-5.7.5-1.3.4-1.7.2-2.2-1.5-.1-.6-.3-1-.4-1-.7 0-3.3 2.5-3.3 3.3l-1 1.6c-.6.7-1 1.5-1 1.7 0 .6.4 1 1 1 .4 0 .1.2-.5.3-.7.2-1.4.4-1.6.7-.6.5-1.3.5-2 0-.6-.7-1.5-.4-2.1.7-.5.7-1.8 1.8-2.5 2-.2.1-.3.6-.4 1-.2.8-.1.9.5 1.1 1 .4 1.3.4 3.2 0zm65.2.2-1.6-1.2c-1.2-.8-1.7-1-2.6-1-1 0-1.1 0-.8.4.6.7 1.8 1.4 3 1.6 1.2.3 2 .4 2 .2zm10.8-1c.5-.5.6-.8.4-1.5 0-.9 0-1 1.2-2.2 1.4-1.4 1.8-1.5 1.9-.8 0 .4.7-.1 4.4-3.6 1.7-1.6 2.4-1.8 2.4-.6 0 .6-.5 1.3-2.6 3.3-2.5 2.5-3.1 3.3-2.3 3.3 1 0 4.5-1 5.6-1.8 1-.6 1.6-.8 2.5-.8 1 0 1.3-.2 2.2-1l1.4-1.1c.2-.1.4-1.7.4-4l.1-4-.8-.3c-1.2-.4-1.4-.7-1.4-2 0-1 .2-1.6.8-2.5.7-1.2.7-1.4.5-2.3-.2-.6-.3-2.3-.3-3.8.1-4.9-1.2-9.3-3.5-11.7-1-1-.9-1.8.2-1.8.7 0 .7 0 .6-1.5V109h.7c.7 0 1 .1 1.3.9.6 1.4 1.5 4.4 2 7.1a237.2 237.2 0 0 0 1.5 9.6l.2.7 1-.5c1.4-.7 1.6-1 1.6-1.9 0-1 .6-1.4 1.7-1 1.2.4 1.7 0 1.7-1.2 0-1-.4-1.4-1.5-1.4-1 0-1.4-.6-.8-1.3l.6-1.2c.2-.8.4-.8 1.6-1 1.5 0 2.6.5 2.7 1.2.2 1.1.3 1.2.8 1 .3-.2.6-.7.7-1.3.2-1.4 1.3-2.6 2.2-2.3.5 0 1-.1 2.3-1.4 1.9-1.6 2.3-2.3 1.7-3-.4-.3-.5-.2-1.3.8-1.3 1.5-2 1.9-3.3 1.6a11 11 0 0 0-2.7-.2c-1.5 0-1.8 0-1.9-.4 0-.6.9-1 2.3-1 .5 0 1.1 0 1.3-.2.6-.5 1.7-2.2 1.7-2.8 0-.3.2-.8.5-1.1.4-.3.4-.5.2-.7-.4-.2-1.8.2-2.4.8-1 .8-1.2.9-1.6.4-.4-.3-.4-.5 0-1.1.5-1 .5-3.1-.1-3.7a3 3 0 0 1-.7-1c-.3-1-1.3-1-3.4-.3-4 1.4-6.8 2.3-8.4 2.7-2.6.7-4 1.4-4 1.8l-.6 2.3c-.4 1-.8 2.6-1 3.7-.1 1.1-.4 2.4-.6 3-.2.4-.7 1.9-1 3.2-1.8 6.2-1.8 6.6-.5 8.4 1 1.2 1 2.2 0 2.1l-1.1-.1c-.7 0-1 .9-.4 1.4.7.5.6 1-.5 2.2-.5.7-1 1.7-1.2 2.4-.6 2.2-.6 2.3-1.8 2.3-1.2 0-1.4.2-2 3.1l-.7 2.8c-.4 1.2-.3 1.1-4.2 2.2-2.7.7-2.7.9.2.7 2.5 0 2.8 0 3.3.5l.5.5-1.5.6c-2.4 1-3.8 1.3-5.1 1-.7-.2-1.7-.3-2.3-.3-1 0-1.4-.2-2.2-1-1-.8-2.5-1.4-3.8-1.4-1 0 0 1.5 1.4 1.8.3 0 1.2.5 1.9.9.7.5 1.5.7 2.2.7a4 4 0 0 1 1.5.3c1 .6 2.2.8 4.6.7 2 0 2.5-.1 3-.6zm3.5-5.3c0-.2.1-.5.4-.7.3-.3.3-.2.3.3s-.1.7-.3.7c-.3 0-.4-.1-.4-.3zm4.7-4.9.4-.6c.4-.3.5-.3.4.1-.1.6-.8 1-.8.5zm1.6-2 .8-.7c.3 0 .3 0 0 .5l-.8.8c-.3 0-.3 0 0-.5zm124 12.1c0-.6 0-.6-.3-.3l-.4.7c0 .2.2.3.4.3s.4-.3.4-.7zm-229-2.5c0-.3.2-1 .5-1.5 1-1.6.4-2-1.4-1.3-2.1 1-3.3 3-2 3.6.3.2.6.6.8 1l.2.7 1-.9c.5-.6.9-1.1.9-1.6zm227.4 1.3c.8-1 .5-1.5-1.2-1.5-.8 0-1.5-.3-2.3-.7-1.8-1-1.5-2 1.1-2.9l2.6-.4h1.2l-.1-1c-.2-1.2.4-2 2.2-2.4 1.6-.5 1.9-.7 1.9-1.8 0-.5.2-1.2.7-1.7l1-1.6c.8-3 1.1-4.5 1-5.7-.1-1.3-.2-1.3-1.2-1.6-1.3-.5-1.5-.3-1.5 1.8 0 1.9-.3 2.2-1.7 1.7-.6-.2-1.2-.3-1.3-.2-.2.2-.7.4-1.3.5-1.4.2-1.5.8-.1 1.4 1 .4 1.2.4 2.1.1 1-.4 1.8-.2 1.8.6s-3.3 3-4.4 3c-1 0-1.4-.4-.9-1.2.3-.6.3-.7-.3-1.1-.3-.3-1.2-.7-2-1-1.8-.6-2.4-1.2-2-2 .2-.3.6-.5 1-.5.3 0 .6-.2.7-.4.1-.2 0-.4-.2-.4s-.5-.3-.8-.6c-.4-.4-.4-.6-.2-1 .4-.6 3.2-1.5 5-1.6h1.4l1-1.4c.4-.7 1-1.5 1.4-1.7.3-.2.5-.5.5-.7 0-.2.8-1 1.8-2a9 9 0 0 0 1.7-2c0-.2 0-.4.2-.4.4 0 .4-.6 0-1-.6-.6-1.7.3-2.2 1.9-.2.5-1.3.6-1.7 0-.6-.7-.8-.4-.8 1.4 0 2.6-.7 3-2.5 1.8-1-.6-1-.6-2.1-.2-1 .4-1.3.4-1.6.1-.4-.4.2-1 2-1.5 1.3-.5 1.4-.6 1.5-1.3 0-.5-.1-1-.5-1.5l-.5-.6-.5.5c-.6.7-1.3 1-2.2 1-1-.1-1.2-.5-.8-1.2.2-.5.2-.7-.2-1.1-.8-.7-.7-1 .5-2.4s1.5-2.1 1-2.6c-.5-.6-1.1-.5-1.8.4-.6.9-1 1-1.7.3-.5-.5-.4-1.5.4-3 .7-1.3.8-2.4.2-2.4-.2 0-.7.7-1.1 1.6-.8 1.9-1.1 2-1.7 1.5-.9-.8-2.7-6-2.7-7.8 0-.8-.2-1.2-.6-1.5-1.8-1.5-1.9-1.6-1.7-2 .2-.7.9-.8 1.8-.4.5.2 1.3.4 2 .4 1.1 0 1.4.3 1.4 1.5s.4.9 1.7-1.6c1-1.7 1-1.3-1.3-6.3-1-2-1.1-2.3-1.8-2.3-.4 0-.7-.1-.8-.3v.7c.3 1.8.2 2.4-.2 2.4-.5 0-1.5-2-1.7-3.4-.3-1.8-1.4-1.8-1.9.1-.4 1.8-1.4 2.6-2.2 1.7-.3-.4-.3-.7.1-1.7.6-1.6.5-2-.7-2.3-.6-.1-.9 0-1.2.3-.3.4-.2.6.2 1.4.4.6.5 1 .3 1.2-.3.3-.4 2.3 0 2.3.8 0 1.5 5.3 1 8l-.4 4.2c0 1.6-.3 4-.5 5.1-.3 2-.3 2.2.2 3.3l.6 2.6c.1.8.4 1.5.5 1.6.5.1 2-.6 4.2-2 1.9-1.2 2.6-1.4 2.6-.6 0 .3-.6.7-1.5 1.2a5 5 0 0 0-1.4 1c0 .1-.2.2-.5.2-.4 0-.4 0 0 .2.2 0 .5.3.5.6.2.5-.5 1-3 2.3-.6.3-.6.3.5.3 1.6 0 1.4.4-.5 1.4-1 .5-1.6 1-1.7 1.4-.1.6-.3.7-1.6.7-.7 0-1.4-.1-1.5-.3-.3-.5-.8-.3-1.1.5l-.8 2-1 2.8-.8 1.7.7 1.3c.3.8.7 1.4.8 1.5l.2 1c0 1.3.6 2 2.1 2.8.6.2 1.1.6 1.2.7.2.4 2.4 1.4 4.2 2 1.3.4 1.8.4 2.8.2 1.5-.4 4.3-1.6 5.6-2.4l1-.7 1.3.7c1 .5 1.2.7 1.2 1.2 0 .9-.6 1-2 .6-1-.3-1.2-.3-2.3.3-2.3 1-2.5 2.6-.3 2.2 1.5-.3 2.2-.3 2.3 0 .1.4-1.2 2-1.7 2-.6 0-1.7.8-1.7 1.3 0 .4 2.5 2 5 3.4l1.1.7c.5.5.8.4 1.5-.7zm-15-11.7c-2.2-.7-3.3-1.2-5-2.3-1.2-.9-1.3-1.3-.6-2 .7-.5 1.6-.5 3.1.3s3.3 1 4 .4a5 5 0 0 1 3.8-1.2c.7.1 1.4.4 1.4.5.2.4-.8 1.4-2.1 2.1-.9.5-1 .7-1 1.6 0 1 0 1.1-.8 1.2a11 11 0 0 1-2.8-.6zm3-2.4.4-.6c-.3-.2-1.3.2-1.3.6 0 .5.4.5 1 0zm-4.7-3c-.2-.4 0-.4 2-1 1.8-.6 2.8-.6 2.6 0-.2.5-4.3 1.4-4.6 1zm-3-5.6c-.3-.6.5-.9 2.4-1 2.2-.1 3.4.2 2.8.9-.3.4-4.8.5-5.1 0zm-74.4 22.7c0-.5-.1-.8-.4-.8-.6 0-.8.8-.2 1.2.6.5.6.6.6-.4zm-140.1-.3c.3-.4.4-.6.1-.9-.1-.2-.4-.3-.6-.3-.4 0-1.5 1.2-1.5 1.7s1.4.2 2-.5zm213.2-1c.7-2.7.4-7.3-.6-9a4 4 0 0 1-.5-1.6c0-.6-.2-.9-.8-1.2l-.8-.7-1.1-1.6c-1.2-1.7-1.7-1.7-2.5 0-.5 1.2-.3 2 .9 2.6 1 .5 1.3 1.3 1.5 3.4.3 3 .3 3-.4 3-.5.1-.6.2-.4 1 0 .5.5 1.7 1 2.5.6 1.3 1 1.7 1.6 1.9 1.5.4 2 .3 2.1-.3zm40.8.4a1 1 0 0 0-.7 0l.3.1c.4 0 .5 0 .4-.1zm21.3-.2c.4-.2 1.2-1 1.9-1.7.6-.8 1.4-1.4 1.6-1.4.7 0 .8.8.2 1.7-.6.8-.5 1.6.2 1.4l2.6-.6c1.2-.3 2.5-.7 3-1 .3-.2 1-.5 1.6-.6.4 0 .8-.3.8-.5s-.8-.8-1.9-1.4a26.7 26.7 0 0 1-5.6-4l-1.1-1-.3.6c-.5 1-.4 1.2.3 1.2.6 0 .7.1.7.7 0 .5-.6 1.2-2.2 2.8a33.5 33.5 0 0 1-3.2 2.8c-1.3.9-1.4 1.3-.3 1.3.5 0 1.3-.1 1.7-.3zm-3.4-1.3c2.1-1.3 4.1-3 4.9-4.3.8-1.4.8-1.5 0-1.5-.4 0-1.6.9-3.4 2.5l-3.4 3c-1 .6-1 .9.3 1.1l1.6-.8zm-4.1-1.3c3.6-1.7 6.9-4.6 7.9-6.9l.6-1.1c.5-.3.4-.7 0-.7-.3 0-.6.3-.7.6-.2.7-4 4.6-5.1 5.3-1 .6-1.6.6-1.7 0-.2-.9-1.3-.2-2.1 1.3-.4.7-1 1.5-1.4 1.7-.5.4-.6.9 0 .9l2.5-1zm-264.1-1.3c.8-1 1.5-1.7 1.5-1.9l-.5-.3a4 4 0 0 1-.9-.5c-.8-.6-1.6 0-2.2 1.9-.8 2.9 0 3.2 2.1.8zm258.5 1c.7-.5 1.7-1 2-1.4.7-.7.8-.8.4-1.5s-.5-.7-2-.6c-1.5.2-2.7 1-1.5 1 .7 0 1.3.6 1 1.2 0 .2-.5.6-1 .9-1.1.5-1.5 1-.7 1l1.8-.7zm-5.3-.8c2.3-1.2 2.5-1.4 1.4-1.6-2.5-.5-2.6-.5-3.2.2-.5.6-.9.8-2.3 1-1.9.3-2 .3-1.6.9.8.9 3.6.7 5.7-.5zm-229-.5-.3-.6c-.4-.3-.4-.3-.5.2-.3.8 0 1.3.5 1l.3-.6zm135.4 0c-.3-1.2-.6-1.5-1.7-1.7a3 3 0 0 1-1.3-.5c-.2-.3-.3-.3-.3-.1 0 1 2 3.1 2.8 3.1.6 0 .6 0 .5-.8zm13.9.1c0-.5-.1-.6-.3-.4-.2.2-.3.5-.2.7.3.7.5.5.5-.3zm-178.7-.9c.3-.3.6-1 .7-1.6.1-.6.3-1.3.5-1.5.3-.5.2-.7-.4-1.2-.5-.5-.8-.7-1.2-.5-.9.2-1.3 1-.9 1.8.2.4.3 1 .2 1.5-.5 2.6-.5 2.7 0 2.4a5 5 0 0 0 1-.9zm60 1h-.5l.2.1.4-.1zm38.9-.2c0-.1.3-.2.4 0h2l1.6-.3.5-1.9.5-2.2c0-.3.5-1.5 1-2.7 1.7-4.6 2.6-8 2.7-10 0-.7.3-1.6.5-2 .3-.5.5-1.4.6-2.6 0-1 .5-3.6 1-5.6.5-2 .9-3.8.8-4-.1-.3-.4-.4-1.6-.2l-1.4.1-.7-1.2c-.6-.9-1-1.2-1.4-1.2-.4 0-.6.1-.6.7 0 .3.2 1 .5 1.3.6 1 .3 1.5-1 1.3-.9-.1-1 0-1.3.5a4 4 0 0 0-.3 1.4c0 1-.3 1.4-1.3 1.5-.9 0-1 .1-1 1.4-.2 1-.3 1.3-.9 1.6-.8.5-1.5.3-3.7-1.1-1.5-1-2-1.2-1.7-.5.6 1.4.5 1.7-.5 2-.6.3-1.2.4-1.8.3-1-.2-3.1-1.4-4.4-2.5a4 4 0 0 0-1-.8c-.7 0-.4.6 1.3 2.2 1.6 1.6 1.8 1.9 1.5 2.3-.1.3-.4.6-.5.6-.5 0-.2 1 .5 1.7.8.8 1 1.3.6 1.6-.4.2-2.7-.7-3.3-1.3-.5-.5-1-.4-1 .3 0 .5 1 1.6 2.5 2.4.9.5 1.5 1.5 1.1 1.8H214c-.8-.2-1.4-.6-2.3-1.7a6.5 6.5 0 0 0-1.7-1.4c-.5 0-.6-.7 0-.9.3 0 .4-.3.3-.4-.1-.3-2.5-.4-4.3 0l-1.2.1 1 .9c.4.5 1.5 1.2 2.2 1.5l1.4.9h-2c-2.9-.3-3.5-.3-3.5.1 0 .8 5 2.6 7.4 2.6.7 0 1.3 0 1.4.2.1.2.4.3.8.3.6 0 4.2 2.8 4 3.2-.2.3-.8.3-1.4 0-.8-.5-2.8-1.4-3-1.4-.1 0-.2.2 0 .4.2.7 3 2.4 4.6 3 1.9.5 2.5 1 2.1 1.4-.3.3-3 .2-4.8-.2-1-.2-1-.2-1 .2 0 .7 1.4 2.3 3.2 3.5 1.4.9 1.7 1 3.2 1 1.1 0 1.7-.1 1.6-.3l-.8-.2c-.6 0-1.7-1-1.7-1.5 0-.2.2-.5.5-.8.4-.4.6-.4 1.3-.1 2.1.7 3.3-.2 3.2-2.3 0-.7.1-1.2.4-1.4.2-.2.4-.7.4-1.2s.2-1 .5-1.3c.5-.4.6-.7.4-1.5l-.2-1.7c0-.5-.4-1.2-.8-1.7-.6-.7-.7-1-.4-1.4.4-.8 1-.8 2.4-.1 2.1 1 3.8.5 2.5-.8-.4-.5-.5-.7-.2-.9.4-.2 3.5 2.6 3.3 3 0 .2-.5.5-1 .5-.6.2-.7.3-.6.7l.4 1.3c.1 1.1-.4 1.6-1.9 1.6-1.2 0-1.9.7-1.5 1.4l.3.7a26 26 0 0 1-3 4c-1.3 1.5-1.6 3.3-.8 4.1 1 1.1.6 1.5-2.3 1.8l-1.7.1h2c1.1.1 2 0 2.2-.2zM221 133c-2.4-.9-3.2-1.7-2.9-2.7.3-.7 1.5-.4 4 1 1.9 1 2.3 1.4 2.2 1.9 0 .8-.8.7-3.3-.2zm10.2-10.5c-1.3-1.3-1.5-2.1-.7-2.1.6 0 2.6 2.4 2.6 3 0 .7-.7.4-2-1zm.2-4.8c-.4-.7-.5-1.3-.2-1.3s1.4 1.2 1.4 1.5c0 .6-.7.4-1.2-.2zm140.6 26.7c.9-1-.2-1.7-2.8-1.9-1.8-.2-1.9-.1-2.2.5-.5.9-.2 1 .8.7.8-.3 1-.2 2 .3 1.5.8 1.7.8 2.2.4zm-158.5-.6c0-.1-.4-.6-1-1-.9-.7-2-1-2.6-.5-.5.3.3 1 1.8 1.6 1.2.5 1.8.4 1.8 0zm95.3-1.7c0-.2.2-.7.5-1.1.8-1 1.2-2.4.7-2.4-.2 0-1 .7-1.7 1.5-1 1-1.4 1.6-1.4 2.2 0 1.1.5 1.5 1.3.8.3-.3.6-.8.6-1zm-156.5.5c.6-.8 1.2-3 .7-3-1.2 0-4 2.6-3.5 3.2.3.2 2.5 0 2.8-.2zm151.2-.6c.8-.8.8-2.2 0-3.3-.4-.7-1.4-3.5-1.8-5l-.6-1.2c-.1-.2-.3-.7-.3-1.1 0-.7 0-.8-.2-.4-.3.6 0 7.4.5 8.9.4 1.3 1.2 2.7 1.5 2.7.2 0 .6-.3.9-.6zm96.7-5.7.8-1.3c.2-.7 1-1 1.8-.8.5.2.8 0 1.7-1.7l1.1-2 .2-4c.2-3.8.1-4.3-.3-5-.3-.5-.4-1-.3-1.6l-.1-2-.4-3.5c-.2-2.1-.1-2.5.2-2.5.2 0 .5-.2.6-.4l-.1-.4c-.4 0-.8-.9-1-1.8 0-.4-.2-1-.4-1.4-.3-.3-.5-1-.5-1.3 0-1.1 1.3-3.3 2.3-4 .5-.2 1-.8 1.3-1.3l1.2-2c.4-.5 1-1.7 1.3-2.5.3-.8.8-1.6 1-1.8.4-.5.4-1.6 0-1.6a7 7 0 0 0-1.4 1 12.4 12.4 0 0 1-6.2 3.2l-2.6.6c-1.1.4-4.3.7-5 .4-1-.3-2.6.2-3.3 1-.7 1-.6 2 .3 2.8.7.5.8.9.7 1.5 0 1.1-1 1.2-1.7 0l-1-1.3c-.2-.3-.3-.9-.3-2.2 0-1-.2-2.3-.4-2.9-.3-.9-.3-1 .2-2 .4-.6.7-1 1.3-1l.8-.2-.8-.6c-1-.8-1.7-.7-3 .2-2.3 1.7-4.5 2.4-4.9 1.5 0-.2-.6-.6-1-.8l-1-.7c0-.1-.3-.2-.7-.2h-.7l.2 1.6c.2 2 0 2.3-1.2 1.7-.8-.5-1.2-1.4-1-2.6.2-.5.1-.7-.2-.8-.4-.2-.5-.2-.9 2-.3 1.5-.8 2.2-1.3 1.9-.2 0-.5-.8-.7-1.7-.7-2-.9-2.2-1.7-1.2-.8.9-1.3 1.8-1.3 2.2 0 .2.3.4.8.6 1 .4 1.3 1 1.1 2.7-.2 1.6-.7 2-1.5 1s-1.2-.7-1.2.6c0 1 0 1.2.8 1.5.4.2.8.5.9.8.1.3.5.7 1 .9l2.3 1.4c1.1 1 1.6 1.1 2.5 1.1.7 0 1.8.2 2.6.5 1.1.5 2 .6 5.3.6h4l.6.7c1 1 2.7 1.6 4.6 1.6 1.6 0 2-.3 2-1.2 0-.8 1.6-1.9 3-2 1.4-.3 2.1 0 2.1 1 0 .6-1.4 2-2 2-.5 0-.6.2-.6.7 0 .4-.2 1-.5 1.4-.3.5-.5.6-2 .4-1.4-.2-1.7-.1-2.1.3-.8.8-.1 1 1.5.5 1.3-.4 1.6-.4 1.8-.1.3.5.2.8-.8 1.5-.7.4-1.3.6-2.5.6-1.5 0-1.8 0-3 1-1.3 1.1-1.8 1.3-2 .8 0-.2-.8-.3-2-.3-2.4 0-3.4-.9-2.3-1.8.5-.4 3-1 4.3-1 .5 0 .8-.2.8-.3 0-.1.4-.3.9-.3.5-.1 0-.2-1-.2a9 9 0 0 0-3.4.5c-1.6.6-1.9.6-5 0-.7-.2-2.9-.4-4.7-.4-2.7 0-3.6-.1-5-.6-1-.4-1.8-.6-2-.5-.4.2-1 2.2-.8 2.6h3c2-.3 3-.3 3.6 0 1 .3 1.1 1 .4 1.7l-.6.6h1.2c1.5 0 2.6.8 2 1.5-.1.2-.5.4-.8.4l-1.3.4c-1.6.7-2.6.1-3.2-2-.1-.3-.4-.5-.7-.5-.4 0-.7.3-1.2 1.5-1.2 2.5-1 2.8 2 2.5 1.2 0 2.5 0 3.1.2 1.7.4 4-.1 4.3-1.1.3-1 .7-1 1.2 0 .4 1 1 1 2.6.4 1.3-.4 1.3-.4 1.1 0-.4 1.2 2.7.6 6.6-1.3 4.8-2.3 6.4-2.9 7.3-2.6.7.2.6 1-.2 1.3-.6.3-.8.8-.4 1 .1 0 .3.6.3 1.2l.1 1.1-1.5.6c-1 .3-1.8.7-2 1-.3.2 0 .3 2 .2 2.2 0 2.6 0 2.8.4.2.4.2.5 0 .6-.7.3-1.3 1.1-1.4 2 0 1.1.3 1.4 1 1 .4-.3.6-.3.9 0 .4.3-.5 2-1.2 2.5l-1.3 1a25 25 0 0 1-2.1 1.6 7 7 0 0 0-1.8 1.9c-.4.6-.7 1-1 .9-.7-.1-.7-.7 0-1.4 1.2-1 1-1.5-.4-.9-.8.5-4.2 3.4-4.2 3.7 0 .5-1.9 2.6-2.8 3.2-1.1.7-1.1 1.3 0 1.3.6 0 1-.3 2-1.3.7-.8 1.1-1.5 1.1-2 0-.7.6-1.3 1.2-1.1.5.1.5 1.3.1 2-.3.6 0 2.1.4 2.1.5 0 1.4-1 2.1-2.7.6-1.3 1-1.8 1.8-1.8.4 0 .3 1.4-.2 2.2l-.4 1.2c0 .2 0 .3-.2.3s-.3.3-.3.7c0 .6.2.5 2.2-1.5a47 47 0 0 0 2.7-3zm.8-16.9c-.2-.3.7-1.1 1.3-1.1l.9-.3c.1-.2.5-.3.8-.2.4.2.3.3-.4 1-.8.7-2.1 1-2.6.6zm-22.8-19.2c-.5-.4-.4-1.2 0-1.3.6-.2 1.2.3 1.2 1s-.7.9-1.2.3zm-227.7 39.4 1.4-.7c.1 0 .3-.1.3-.3l1-.5c1.7-.4 2-2.2.7-3-.6-.2-.7-.4-.6-1.7 0-1.1 0-1.5-.5-1.8-.8-.6-1.2-.5-2.5.6-1.3 1-2 1.1-2.5.3-.4-.6-.4-.6.4-1.3.4-.4 1.3-.8 1.8-1 1.5-.5 1.4-1.2-.1-1.6l-2-.3c-1 0-2-.4-2-.9 0-.2.1-.6.4-.9.4-.4.5-.8.4-1.3-.1-.5 0-1.2.5-2.1l.7-1.4-.6-.1a20 20 0 0 0-4.8-.6c-1.8 0-2.3.1-2.7.5-.3.3-1 .6-1.7.6-1.6.2-2.6.6-2.6 1 0 .6 1 1.5 1.5 1.5.3 0 .8.2 1.1.5 1 .8.3 1.1-2.8 1.4-2.2.2-3 .4-3.4.8-.5.5-.5.5 2.1.5 3 0 3.7.3 3.6 1.5-.1.7 0 .7.8.9.5 0 1 .3 1.2.6.2.3 0 .6-.6 1.2l-.8 1h6.2c.7 0 1 0 1 .3 0 .4-.6.8-2.2 1.4l-.9.3.6.3c.7.4 1.3.2 2-.5.3-.3 3.2-.8 3.4-.6.4.3-.3 1-1.5 1.6a15 15 0 0 0-4.5 3.3c-.2.3 0 .4.5.2a23 23 0 0 1 2-.4c.8 0 1.9-.5 2.5-.9 1.2-.7 2-.8 2-.2l-.4.7c-.8.4-1.1.7-1.5 1.4-.2.5-.2.6.6.6 1 .1 1 .1 2.5-.9zm62.8.5a4 4 0 0 0-.7-1.4c-.7-1-.8-1.7-.4-2.4.3-.4 0-.8-1.5-2.4-1.8-1.8-2-2-3-2-1.1 0-1.2 0-1.3.9 0 .5.1 1.2.3 1.6.4 1 1.7 2.1 2.3 2.1.3 0 .6.2.8.4.3.3.2.4-.4.7-.4.2-.7.5-.7.6 0 .4 4.1 2.5 4.4 2.4l.2-.5zm157.2 0c0-.3-.5-.4-1-.4-.7 0-.9 0-.7.4 0 .2.5.4 1 .4.7 0 .9-.1.7-.4zm-212-1.3.8-.8c1.3-1 3.4-3.6 3.4-4v-.7l-1 .6c-1.4.7-1.8 1-2.2 2.5-.3 1-.8 1.7-1.2 1.7-.2 0-.4.2-.5.5 0 .3-.2.6-.4.6-.1 0-.2.1-.2.4 0 .3 0 .3.4 0l.9-.8zm228 .6c1.3-1.3 1.3-1.3-.2-1.3-1.6 0-3.2.7-3.2 1.5 0 .6 2.7.5 3.4-.2zm-5-2.6c.9-1 .4-1.2-1.2-.7l-1.8.4c-.5 0-.5.7 0 1 .6.2 2.3-.2 3-.7zm-224-1.3c0-.5-.1-.6-.4-.3-.3.2-.4.6-.4 1 0 .5 0 .6.4.3.2-.2.3-.6.3-1zm35.7-.4.9-.6h-.8c-.4-.1-1 0-1.5.2-.6.2-.7.4-.5.7.5.5.8.4 1.9-.3zm54.2-.6c.4-.5.1-2.7-.4-2.7-.7 0-1 1-1 2.7 0 .5 1 .6 1.4 0zm132.3-.5c2.5-.7 4.3-.9 6-.5 1.4.2 5-.6 6-1.3l3-2 3-2.4c1.4-1.4 1.4-2.4 0-1.6-.4.3-.6.2-1.4-.2l-.8-.6-1.5.8a43.3 43.3 0 0 0-3.5 1.8c-.2 0-.8.4-1.3.9-.7.6-1.1.7-2 .7l-4.3.6c-3 .6-3.2.6-3.5-.4-.2-.3-1.2-.3-4.8.1-3.5.4-3.7.5-4 2.4-.2 1-.2 1 1.1 1.4l2.4.5c.5 0 1.3 0 1.6.2 1 .3 1.3.3 4-.4zm-174 .2c.3-.3-1-2.1-1.5-2.3-.3 0-1.2 0-2 .2l-1.2.4h1c.8 0 1.2.2 1.9 1s1.4 1.1 1.8.7zm-7.4-.6c.1-.1 0-.3-.4-.3-.3 0-.5.2-.4.3l.4.3c.2 0 .3-.2.4-.3zm-32-.2h-.4c-.2.1-.2.2.1.2.3 0 .5 0 .4-.2zm13.6-1c1-.5 1-.5.3-.6-.7-.1-1.8.4-1.8 1 0 .4.5.4 1.5-.3zm-20.9-.8c0-.3 0-.3-.5-.1-.3.1-.5.4-.4.5.2.4 1 0 1-.4zm25.6-1 .8-.2c.3 0 .7 0 .8-.2 0-.2.5-.3 1-.3.4 0 1-.1 1.1-.3.2-.2.8-.2 1.7-.1 2.3.2 2.4.2 4.3 0 1.7-.2 1.7-.2 2 .6.3.5.7.8 1.2.8.7 0 .7 0 .5-1-.1-.8 0-1 .6-1.8.7-.8.7-1 .5-1.8-.3-.8-.2-1 .4-1.9.5-.5.8-1 .8-1.1 0-.2-.3-.6-.7-1-.8-.8-.8-2 0-2.9l.7-.7-.5-1-.5-1.4c0-.3-.7-1.1-2.4-2.7-.8-.7-.7-1.2.2-1.2.7 0 .7 0 0-.2-.8-.1-1.3-.6-2.1-2.4a6.2 6.2 0 0 0-3.5-3.3c-1.4-.5-2-.4-1.5.4.2.5.2.7 0 1-.4.3-.6.3-1.3-.3a3 3 0 0 0-1.5-.7 3 3 0 0 1-1.3-.5c-.6-.3-.9-.3-1.7 0-.6.1-1.2.2-1.4 0v.3c.1.5 3.4 3 4.2 3.2l1.4.8c.6.6.8 1 1 2.1.2 1.8-.1 2.2-1.5 2.4-.5.1-1.1.4-1.3.6-.4.4-.3.4.6.2 2.9-.5 3.7-.5 4.3 0 .6.5.6.6.2 1.1-.5.7-1.6.8-2.2.2-.3-.2-.8-.3-1.6-.2-1.5.2-1.8.8-.9 2 .6.8.6 1 .3 1.4-.2.3-.6.4-1.5.2-1.1-.1-1.4 0-2.1.6-.5.4-.9.9-.9 1 0 .3-.3.5-.7.5l-.7.1h.8c.4.1 2.7-.5 5.1-1.3 4.6-1.6 5.5-1.7 5.7-1.1.2.5 0 .7-4.5 3-2.2 1-4.1 2-4.3 2.3-.5.6 0 1.1.8.7 2-.9 6.8-1.9 6.8-1.4 0 .2-.2.4-.4.5-.3 0-.9.3-1.4.6l-1.6.5c-.4 0-.7.3-.7.6 0 .4.5.4 4.8 0 2.4-.3 3.1-.3 3.4 0 .5.5-.5 1-2 1a7 7 0 0 0-2.2.4c-.6.2-1.5.4-2.2.4a12 12 0 0 0-3.7.7l-1.8.3c-1.3.1-2 .5-1.8.9.2.3 2 0 2.4-.3zm-21.2-.6c.4-.3.4-.4 0-.4l-.7.4c-.2.3-.2.4 0 .4l.7-.4zm6.3-1.2c.8-.2 1-.5 1.5-1.4.3-.7.7-1.2.8-1.2.2 0 .3-.2.3-.4 0-.9-1.6-.4-3.6 1l-2.2 1.2c-.4 0-.9.7-.7 1 .3.2 2.8.1 3.9-.2zm10.3-1c.2-.3.2-.6.1-.7-.2-.2-1.6.4-2 .9-.3.3-.2.3.6.3.6 0 1.2-.3 1.3-.6zm-18.6-1c1.1-.7 2.3-1.1 2.6-1 .3 0 .5-.2.5-.8.2-1 .5-1.4 1.7-2 1.8-1 2.2-.5.6.7-2 1.5-.6 2 1.9.6.7-.4 1.8-.8 2.2-.8.7 0 3.1-.4 3.4-.6.3-.2-.5-2-1-2.4-1.3-1.2-1-2.2.7-2.2.5 0 1-.2 1.2-.4.5-.7-.8-1-4.3-1-2.9 0-3.1 0-3.4-.5-.2-.4-.2-.7 0-.9.4-.3 2.5-1 4-1.1l1.4-.4c.4-.4-.2-1-1.5-1.5-1.5-.4-2.3-1-2.3-1.6 0-.5-1.6-1.4-2.6-1.4-.7 0-1 .2-1 .5-.2.5-.4.6-2.9.5-3.2-.2-4.6 0-4.5.5.2.3 1 .8 2.3 1 .6.1.8.3.7.6 0 .4-.4.5-1.5.6-.8.1-1.7.3-2 .5-.4.2-.3.3.8.4 1.8.3 2.2.7 1.4 1.5a3 3 0 0 1-1.3.7l-.8.4c0 .1-.3.3-.6.3h.5l3-.4c1.5-.3 2-.4 2.3-.1.7.5.3 1.2-1.5 2.2-2.2 1.2-3.7 2.4-3.5 2.9 0 .2.5.4 1 .5.7.1 1 0 1.8-.5 1.3-1 2.2-1.3 2.9-1.2 1 .2.9 1-.2 2-.6.6-1 1.2-1 2-.3 1.2-.5 1.4-2.3 1.8-1.6.3-2.2.7-2 1.2.3.6 1 .5 3.3-.7zM372 126c-.2 0-.4-.2-.4-.4 0 0-.2-.2-.5-.2-.4 0-.6.2-.6.6 0 .6 0 .6 1 .4.5-.2.7-.4.5-.4zm-62-2.8a31.9 31.9 0 0 0-2.6-8.3c-.3-.4-.4-.2-.2 2.3l.2 4.2c.1 1.7.6 3 1.7 3.7l.7.5.2-.6v-1.8zm59.7.4c0-.4-.1-.4-1.2 0-1 .4-1 .5-.4 1.1.4.4.4.4 1-.2.4-.4.6-.8.6-1zm-188.4-.2h-.5c-.2 0-.2.1.1.1.3 0 .5 0 .4-.1zm-44.2-2.5c.3-.1.3-.2 0-.4-.5-.4-2.6 0-2.6.6 0 .3.2.4 1.1.2.6 0 1.3-.2 1.5-.4zm210-1.5c.3-.2.3-.3.2-.3-.2 0-.5.1-.7.3-.3.3-.3.4-.1.4.1 0 .4-.1.7-.4zm19.2-2.4c1.1-1.1 2.7-4 2.5-4.6 0-.2-.5-.6-.9-.8-.6-.4-.8-.6-1-1.8a7 7 0 0 0-1-3c-1-1.6-1.2-2.4-.3-3 .7-.4.7-.4 1.6.3l1 .6.3-1.3c.4-1.2.4-1.2-.3-2.3-.8-1.1-.8-1.1-1-.5a6 6 0 0 0-.2 1c-.1.8-.5 1-1.7 1.2-.8.1-1.2 0-1.5-.3-1.2-1.2-1.5-1.7-1.5-2.5 0-.4 0-1-.2-1.3l-.6-1.5a5 5 0 0 0-.8-1.7c-.3-.3-.5-1-.5-2l-.1-1.6v1.6c-.1 1.2 0 2.2.6 3.7 2 5.6 2.2 6.2 2 8 0 1.3-.1 1.8-.8 2.6-1.2 1.6-1.2 1.6-.8 2.6.4.8.6 1 1.7 1 .6.1 1.3.3 1.4.5.4.7.3 1.8-.4 2.4-.4.3-.7.7-.7.9 0 .5 1.6 2.8 2 2.8l1.2-1zm-212.4.3c1.7-.2 2.1-.5 1.5-1-.4-.3-.9-.3-2.6.1-1.2.2-2.4.7-2.6 1-.5.4-.8.4 3.7 0zm207 0c.4-.3.2-.6-.2-.6l-.5.5c-.2.4-.2.5.1.5.2 0 .5-.1.7-.3zm-141.8-1.7c0-.1 0-.3-.2-.4-.1 0-.2 0-.2.3 0 .4.1.5.4.1zm-33.8-1c.3-.3.2-.3-1-.3-1 0-1.4 0-1.4.4 0 .3.3.4 1 .4s1.2-.2 1.4-.4zm14.6-1c0-.2-.2-.4-.4-.4-.4 0-.4.1 0 .4.3.5.4.5.4 0zm-13.3-1.3h-.5c-.2 0-.2.1.1.1.3 0 .5 0 .4-.1zm-31.8-.6h-.5c-.2.1-.1.2.2.2.3 0 .4 0 .3-.2zm222.7-.2c0-.2 0-.4-.4-.4-1-.2-1.8 0-1.8.4 0 .5 2 .6 2.2 0zm-34.8-1.1c0-.3-.2-.1-.2.3 0 .5 0 .7.2.5v-.8zm45.6.6c0-.2-.2-.4-.4-.4-.4 0-.4 0-.1.4.4.5.5.5.5 0zm-151.1-1 .3-1c0-.4-.2-.5-1-.5-.4 0-1 .1-1.1.3-.5.5-.4 1.4.3 1.7.7.3 1.1.2 1.5-.5zm-73.5-1.2c-.2-.5-1.2-.9-2.7-.8h-1.2l1.7.6c2.1.7 2.4.8 2.2.2zm208.2 0c.3-.4.8-.6 1-.6.3 0 .5-.2.5-.4 0-.5-.3-.5-1-.1-.4.2-.8.1-1.6-.3l-1.2-.5c-.2.3.4 2 .8 2.2.5.2.8.2 1.5-.4zm-196.4 0c.3-.2.3-.3 0-.6l-1.3-1c-2.1-1.8-3-1.1-1 .7 1.3 1.1 1.7 1.3 2.3.9zm88.5-.2c.3-.1.4-.5.4-1v-.9l-.4.8c-.2.5-.6 1-.7 1-.4.3.1.3.7 0zm95.8-3.6c.1-.8.3-1.1.8-1.3.4-.1.7-.4.7-.6L360 100a66.3 66.3 0 0 1-2.3-6.2c-.3-.7-.3-.9.4-1.6 1-1.1.9-1.5-.2-1.9-.5-.1-1.1-.5-1.4-.8-.2-.3-.5-.5-.7-.5-.2 0-.2 1.7 0 2.4l.9 2.6c.3 1.1.8 2.3 1 2.7.4.4.6 1 .6 1.3 0 .3.2 1 .5 1.6.7 1.4.7 1.5-.2 2.4-.5.6-.7 1-.8 2.3-.1 1.4 0 1.6.5 2 .8.5 1.2.2 1.4-1.2zm-95.2-1.5c.8-.3.3-1.6-.7-1.6-.1 0-.3.4-.3.9 0 1 .2 1 1 .7zm-85-.3-.4-.4c-.1-.2-.2 0-.2.2s.2.4.4.4c.3 0 .4 0 .2-.2zm185.5-3.4c-.3-2-.7-3-1-3-.2 0-.5.2-.6.5-.2.5.6 3.3 1 3.5.6.4.8 0 .6-1zm33.8-2.7c.8-.5.6-1-.5-1-.5 0-1.2-.2-1.5-.4-.5-.3-1.8 0-1.8.6 0 1 2.5 1.5 3.8.8zM372 92.7c0-1.4-1.2-.8-1.8.8l-.2 1 1-.6c.7-.4 1-.8 1-1.2zm34 0c1.3-.9 1.5-1 1.5-1.9 0-.9 0-1-.7-.7-3.4.8-6.3 1.2-8.2 1-2.2 0-2.6 0-2.8 1-.2.5 2.3 1 4.6.9 1.5-.2 2.1-.1 2.7.2 1.1.6 1.2.6 2.9-.5zm-41.5-1c-.2-1-.6-1.6-1-1.3-.3.2-.3.8.2 1.8.5 1.3 1 1 .8-.5zm2.6-.8c-.2-.6-.4-.5-.4.1 0 .3.1.5.3.4.1 0 .2-.3 0-.5zm42.2-.6c0-.4-.7-.8-1-.5-.1.2.5 1 .8 1 .1 0 .2-.2.2-.5zM352 88.6c.4 0 .3-2-.1-2.4-.5-.4-1.1 1.3-.7 2l.3 1v.6l.2-.6c0-.3.2-.6.3-.6zm-9.8-2.2c0-.5 0-.5-.3-.2-.5.4-.6 1-.1.8l.4-.6zm-79-2.5c.5-.3 1.7-.8 2.7-1 1.7-.6 2.1-.8 3.8-2.4 1-1 2-2.1 2-2.5.1-.3.4-.9.7-1.1.5-.7.9-2.3.6-2.8-.2-.2-.4-.1-.9.4-.4.4-1 .9-1.4 1-.6.4-.7.4-.7 0 0-.2.2-.7.5-1.1.7-1 1-2.4 1-4 0-1.2 0-1.4-.9-2.1-1-1-1.4-.9-1.4 0s-1 2.9-1.7 3.3c-.3.2-.7.2-1 .1-.2-.2-.2-.5.2-2.1.4-1.4.4-2 .2-2.3-.3-.6-1.5-.8-2.3-.3-.3.2-1.1.6-1.8.8-1 .4-2.2 1.4-5.8 5a62.1 62.1 0 0 0-4.5 4.6c0 .2.3.5.5.7.4.4.7.4 1.2.3a2 2 0 0 1 1-.2c.6.3 1.3 1.2 1.3 2 0 .9.6 1.2 1.2.8.2-.2.4-.9.4-1.5.1-.8.2-1 .6-1.1.3-.1.4 0 .4.3s.5 1.2 1 2.2c.5.9.9 2 .9 2.3 0 1.2.9 1.5 2.2.7zm77-.6c0-.3-.2-.5-.4-.5-.1 0-.2.2-.2.5l.2.6c.2 0 .3-.3.3-.6zm-89.9-3v-.9c-.2-.2-1 .7-1 1.2 0 .6.8.4 1-.3zm-11-3.2c-.6-.7-.8-.4-.3.4.3.6.5.7.5.4 0-.2 0-.6-.2-.8zm2.8-2c0-.2-.1-.2-.1.1 0 .3 0 .5.1.4V75zm-182 98.8c-.7-.1-1-.7-.8-1.2.2-.3 2.7-.2 4.2.2l1.3.3-.9.2-1.6.2c-.4 0-.8 0-1 .2 0 .3-.3.3-1.3.1zm172.3-3.3c-.5-.4-1-.5-2.8-.5-1.5 0-2 0-1.6-.3.3-.1.7-.2 1 0 .2 0 1.3 0 2.2-.2 1.6-.3 1.9-.3 2.7.1.8.5 1 .5 1.8.2 1.5-.6 1.8-.7 1.8-.2 0 .2-.3.4-.5.5-.3.2-4 1-4 1l-.6-.6zm-64.8 0c0-.6 8.5-.7 8.7 0 0 .2-1 .3-4.3.3-2.5 0-4.4-.1-4.4-.2zm11.5 0c-.5-.1-.5-.2 0-.3.5-.3 1.7-.1 1.7.2 0 .4-1 .4-1.7.2zm7.3 0c-1.2-.1-1.2-.1-.2-.2.5 0 1-.1 1.1-.3.3-.4 3-.3 3.3.1.2.3.2.4-.1.5-.5.2-2.5.2-4.1 0zm8.7 0-1.4-.1 1.7-.1h2.4c.3.1.4.2.2.2l-.9.1h-2zm13.5 0c-.8-.2 3.7-.4 4.6-.2.3.1-.1.2-1.1.2l-2.3.2-1.2-.1zm-4.5-.1a7 7 0 0 1 1.5 0h-1.5zm20.4-.3c-.7-.3-.6-.3.5-.3 1.2 0 1.3 0 .6.4-.3.2-.7.2-1.1 0zm203.1-4.8a46 46 0 0 0-5.7-.2c-5.4 0-6.6-.2-6.1-.9.2-.4 10.7-.5 20-.1l7.1.2c7-.2 10.1-.4 12.4-.6 2.7-.3 3.3-.2 3.3.7 0 .4.5.3-3.3.5a170 170 0 0 0-9.9.5 44 44 0 0 0-17.8 0zm-41.4-2.3c-.2-.1-.3-.4-.3-.7 0-.7 1-.8 3.6-.7h3.2c.5-.2 5-.4 9.7-.4a794.6 794.6 0 0 0 18-.4c.2.2-1 .7-1.7.7-.3 0-.6 0-.7-.2-.2-.3-1.6-.4-1.7 0-.2.5-11.2 1.3-21.4 1.4a133.4 133.4 0 0 0-8.7.3zm37.6-2.4c.4-.4 1-.5 4.4-.6a335.6 335.6 0 0 0 8.3-.1c-.3 0-.6.2-.6.3 0 .1-1.9.3-4.2.4-2.3 0-5.1.2-6.3.3-2 .2-2 .2-1.6-.3zm14.7-.7c-.4-.2-.3-.3 1.8-.3l3.5-.4c3.4-.4 5.5-.5 5.9-.3.2.1.2.3.1.4-.2.2-.8.3-6.4.5a64.2 64.2 0 0 0-4.9.1zm-60.4-1.3c-.5-.4-.5-.4 0-.7a26 26 0 0 1 8.6 0c0 .3-.8.4-3.5.6-2 0-3.8.2-4 .3-.4 0-.8 0-1.1-.2zm10.2-.7c-.3-.2-.2-.3.5-.3.5 0 1.4-.2 1.8-.4.8-.4 1.9-.5 8.5-.4a532.4 532.4 0 0 0 18.8-.3c3.4-.5 5.3-.3 4.8.6-.2.3-1.1.4-4.7.4l-10 .2c-14.8.4-19.4.4-19.7.2zm-335-12c-1.3-.5-.1-.7 4-.7 2.4 0 6.2 0 8.5-.2 3.6-.1 4.2-.1 4.2.2 0 .6-1.6.7-9.3.9-4.2 0-7 0-7.3-.2zm374.2-3.9c-.5-.1-.4-.7 0-1 .8-.2 1-.1 1 .4s-.5.8-1 .6zm45.4-.1-2.7-.3a896.2 896.2 0 0 1-18.9-1.3 807.7 807.7 0 0 0 23.1.4c.3.3-.2 1.1-.8 1.2h-.7zm-41-1.4c-.2-.2 0-.5.2-.6.3-.1 3-.2 6.2-.1a261.8 261.8 0 0 0 10.3.2c2.6.3 1.4.7-1.9.6-1.5 0-5.4 0-8.7.2-5.3.1-6 0-6.2-.3zm-384.6-1.2c-.4-.2-.4-.2.3-.2.4 0 .6 0 .5.2 0 .2-.1.3-.2.3l-.6-.3zm26.3 0c-.8 0-1-.4-.3-.6.7-.3 4-.2 4.6.1 1 .5.3.8-1.7.7l-2.6-.1zm7.2 0c-.8 0-1.2-.2-.8-.2.3 0 .6-.2.6-.4s0-.2.2 0c.2.4.3.4.6.2.4-.5 1.5-.5 1.5 0s-.4.6-2 .4zm-27.4-.2c.1-.2.4-.2.6-.1.5.2.5.3-.2.3-.3 0-.5 0-.4-.2zm7.8 0h.6c.2.1 0 .2-.3.2-.4 0-.5 0-.3-.2zm7 0c0-.2 1.3-.6 1.8-.4 1 .3.5.6-.7.6l-1.2-.1zm2.6 0c0-.2.1-.3.4-.3.2 0 .4.1.4.3l-.4.2c-.3 0-.4 0-.4-.2zm1.3-.2c0-.2.1-.4.3-.4l.2.4-.2.4c-.2 0-.3-.2-.3-.4zm11.6 0c0-.3.3-.4 1.2-.4.7 0 1.3.2 1.5.4.3.4.1.4-1.2.4-1.1 0-1.5 0-1.5-.4zm7.3 0 .5-.4.6.4c.4.4.3.4-.6.4-.8 0-.9 0-.5-.4zm5 0c.9-.4 1.5-.5 1.9-.1.1.1 1.1.3 2.2.3 1.3 0 .9.1-1.4.2-3.2 0-3.4 0-2.7-.4zm11.9.2h.8c.2.1 0 .2-.5.2-.4 0-.6 0-.3-.2zm440.6-1.1a307.3 307.3 0 0 0-28-1.6c-2.8-.1-4-.2-4.3-.5-.3-.2-.9-.3-2.5-.2l-19 .2c-21.2 0-22 0-22-.3 0-.4.7-.5 3-.5h14.7a643.1 643.1 0 0 1 56.5 1.8c1.7.1 6.3.2 10.1.1 7 0 8.2 0 8 .8-.2.4-7.6.4-16.5.2zm-440.8-1.5-6.2-.3c-8.6-.4-10-.9-1.9-.7 3.6.1 7.2.2 8.2.1 1.8 0 3.8.2 3.6.5-.2.2-3 .5-3.7.4zm319 0c-2-.2-5.9-.3-8.6-.3-3.9 0-5-.1-5.2-.4-.3-.3-.2-.5.2-.7.4-.2 1.5-.2 4 0 2.4.2 5.2.3 8.3.1a184.3 184.3 0 0 1 16.7 0c5.9 0 10.8.2 10.9.2.5.5-.8.7-6.3.7-6 0-11.3.2-14.6.4h-5.3zm31-.5c-1.3-.3-.5-.6 1.3-.6 1.2 0 2 0 2 .2s-.2.3-.4.3l-1.4.1a6 6 0 0 1-1.5 0zm-377.9-.3c-1.7 0-1.9-.2-1.5-.5.4-.4 1-.5 1-.1 0 .1.2.3.4.3.3 0 .6-.2.7-.3.3-.4 2.8-.3 3.6.1l.7.4h-1l-1.4.1h-2.5zm6.9 0c-.5-.3.2-.6 1.4-.6.5 0 1 0 1.3.2.7.2 0 .6-1.3.6l-1.4-.2zm378.8 0c0-.2.2-.3.4-.3s.4 0 .4.2-.2.3-.4.3-.4-.1-.4-.3zm-394-.3c-.5-.4 0-.6 2.4-.6 2.1 0 2.7.2 2.7.4 0 .3-.5.4-2.5.4-1.3 0-2.5 0-2.6-.2zm26-4.7c.8 0 1.6-.2 1.6-.4 0-.1.8-.2 1.8-.2s1.5 0 1.2.2c-.4 0-.6.2-.6.3 0 .2-1.3.2-2.9.2-1.9 0-2.3 0-1.2-.1zm7.4-.2c0-.4.4-.4 2.3-.4h2.3l-1.3.4c-1.8.5-3.3.5-3.3 0zm7.7 0-1-.4 1-.1c2.3-.4 5.5-.5 6-.2.4.2.5.4.4.5-.4.4-5.4.5-6.4.2zm302.4-1.9c-2.1-.1-3.8-.3-3.8-.5v-.5a241 241 0 0 0 17.9.4c3.1 0 6 .2 6.3.3a71.8 71.8 0 0 1 16.9-.6l7.8.2c.8 0 1 .1.7.4-.3.3-2.3.3-10.6 0l-2.8.2c-1.2.4-28 .5-32.4.1zm48.4-.3c0-.4.4-.4 3.6-.3 5 .3 5.2.7.3.7-3.4 0-3.9 0-3.9-.4zm10.6.2c0-.2.2-.3.4-.3s.4.1.4.3l-.4.2c-.2 0-.4 0-.4-.2zm2 0c-.8-.2-.4-.6.8-.6.6 0 1.2.2 1.2.3 0 .2-.2.3-.4.3l-.8.1h-.9zm3.3-.3c0-.3 1.3-.5 3-.5 1.8 0 3.1.2 3 .5-.3.3-6 .3-6 0zm-441-.5c-.4-.7 2.8-1.1 3.3-.4.3.2.2.4-.3.5-1 .2-2.8.2-3-.1zm7.2 0-.8-.2.7-.3c1-.4 2-.4 2.3 0 .5.7-.5.9-2.2.5zm77.2 0c-1 0-1.4-.2-1.4-.4 0-.6 2.7-.6 3.2 0 .4.4 0 .5-1.8.4zm-70.2-.2c-.5 0-1-.2-1.2-.4-.1-.1 1-.2 3-.2 1.8 0 2.9.1 2.6.2-.7.3-3.2.5-4.4.4zm47.9-.1a95 95 0 0 0-7.7-.1c-6.8 0-8 0-8-.6 0-.3 1-.4 6-.2l12.6.2c8.3.2 7.7.1 7.7.6 0 .4-.2.4-1.7.3a23.2 23.2 0 0 0-5-.1l-3.9-.1zm-24-.2c-2.1-.3-.5-.6 3.3-.8 3 0 3.4 0 3.6.3 0 .3 0 .5-.2.5h-6.8zm-18.8-.2c.2-.2 2-.2 2.3 0 0 .1-.5.2-1.2.2s-1.2-.1-1-.2zm8.5-.1c.5-.2 1.2-.2 1.6 0 .7.2.6.2-.8.2-1.3 0-1.4 0-.8-.2zm5.3 0c.1-.2.4-.3.6-.3.2 0 .4.1.5.3 0 .1-.1.3-.5.3s-.7-.2-.6-.3zm-40-1.7c0-.5.5-.7 1.9-.5.8 0 1.2.3 1.2.5 0 .3-.4.4-1.6.4-1.2 0-1.6-.1-1.6-.4zm77-1.2c-.3-.2-1-.3-1.8-.3-1.6 0-2.2-.2-2.2-.7 0-.5.6-.5 5.7-.3 5.8.3 6.3.3 8 0 1 0 1.3 0 1.6.3.3.4.2.5-.3.6-.8.2-2.1.2-3.7 0-.7-.1-2.1 0-3.4.2-2.6.5-3.4.5-4 .2zm-31.8-.4c-.2-.4-.2-.4.4-.4.4 0 .6.1.6.4 0 .5-.5.5-1 0zm9.2-.1c-.6-.2-.6-.2.3-.4a11 11 0 0 1 3.8 0c1.4.5-2.4.8-4 .4zm6 0c-.5-.2-.5-.3 0-.4.2-.1.6-.1.8 0 .6.4 0 .6-.8.3zm5.2 0c-1.7-.2-1.7-.2-1-.5 1-.5 6.5-.5 6.5 0s-2.7.7-5.5.4zm25.2 0c-.4-.4.5-.5 2.1-.4 1.3.1 2 0 2.1-.1.3-.5 3-.4 3.2 0 0 .3 0 .5-.2.5h-7.2zm464.7.1-4.8-.5c-6.3-.5-19.7-.6-30-.2-6.7.3-10.1.3-18.5 0a1731.1 1731.1 0 0 1-19.4-.8c0-.2 4.3-.2 14.8-.1 9.9.1 17.7 0 24-.1 12.9-.5 30.5-.4 31.4.1.2.1 1 .4 2 .5 1.3.2 1.8.4 1.8.7 0 .4-1 .7-1.3.4zm-504.8-.3h1-1zm510.5-.4c-.2-.4.1-.7.5-.3.2.2.2.3 0 .4h-.5zm-125.7-.6v-.4c.3-.3 11.6-.4 11.6 0 0 0-.2.3-.5.4-.6.2-10.9.3-11 0zm17.3 0-1.2-.3c-.6-.2-.6-.2-.1-.4s24.4 0 24.6.1v.3a370.9 370.9 0 0 1-20.7.2h-2.6zm-4.4-.4c0-.2.4-.3 1-.3.5 0 .8.1.7.3l-1 .2c-.3 0-.7 0-.7-.2zm28 0c0-.2.5-.3 1-.3.6 0 .9.1.8.3l-1 .2c-.4 0-.7 0-.7-.2zm-489.7-1.2-2.4-.2-3.8-.1c-1.4-.2-1.5-.2-1-.5.9-.3 26-.3 27.2 0 .7.3.7.3-.8.5-2.1.2-19 .5-19.2.3zm65.8 0-1.2-.3c-.6-.2-.6-.2-.2-.4.3-.2 1.6-.3 3.6-.1 3.5.2 4 0 5.5-1.5.9-.9 4-2.3 4-1.7 0 .2-.2.7-.5 1-.4.5-.7 1.3-.8 1.9l-.1 1-2.6.1c-1.8.1-2.6 0-2.6-.2s-.3-.2-.8-.1c-1.2.2-3.7.4-4.3.2zm252.4-.2c-.5-.8 1.4-1.5 2.1-.8.4.4.4.4 0 .8-.6.4-1.9.4-2.1 0zM1 120.4c-.7-.1-1.1-.2-1-.4.4-.2 9.3 0 9.6.2.2.2-7 .3-8.6.2zm73.1 0c-.4-.1-.6-.3-.5-.5.2-.2 1-.3 3.5-.2 3.4 0 4.6.3 4 .7-.5.3-5.9.3-7 0zm24.2 0c-.4-.3 4.8-.5 7.3-.3l1.8.2H106l-4.4.2h-3.3zm-43.8-.3c.3-.6 1.6-.8 3-.7 1.4.2 1.4.2.7.6-.9.4-4 .5-3.7 0zm6.2 0-.7-.3 1-.2c1.1-.3 2 0 2 .4s-1.3.5-2.3 0zm7.4 0-.6-.3.6-.2c1-.3 3.5 0 3.5.4 0 .5-2.5.5-3.5 0zm4 .2.5-.5c.4-.3.4-.3 0 .1-.3.5-.5.6-.5.4zm42.9-.3-1.8-.3 2.7-.3c4.5-.6 8.3-.6 8.3 0 0 .2-.8.4-2.4.7-3 .3-4.5.3-6.8-.1zm-5.1-.3h.5l-.4.1c-.3 0-.3 0-.1-.1zm164.6-1.5c-.5-.8-.7-6.6-.3-7.7.3-.6 1-1 1.4-.6.1.1 0 1-.2 1.8-.3 1.1-.4 2.3-.3 3.6v2.8l-.2.7zm175.1-1.4c-.3-.4-.2-.6.2-1.4a49 49 0 0 1 5.1-6.3l4.3-5a144.9 144.9 0 0 0 8-9.5l1.7-2.1 2.4-2.7c.8-.7 1.8-1.9 2.4-2.6.5-.8 1.4-1.8 2-2.4l2.1-2.3a403.2 403.2 0 0 1 23-24A307 307 0 0 1 515 44.7c1.4-1.2 2.7-2.1 3-2.1.1 0 .3.2.4.5.4.6-.5 1.5-3.6 3.8a291.7 291.7 0 0 0-14 14.5 79 79 0 0 0-8.3 8.3 142.6 142.6 0 0 0-9.5 9.5c-.7.6-1.7 1.7-2.3 2.5-.6.8-2 2.5-3.2 3.6a65 65 0 0 0-5.5 6.2 53.8 53.8 0 0 1-4.1 4.8 230.8 230.8 0 0 1-8.3 9.7l-2 2.3c-.7.8-2.2 2.5-3.3 4-3.7 4.9-4 5.2-4.7 4.5zm-409.5-.2c0-.4.8-1 1.2-.8.3.1.3.2 0 .5-.5.3-1.2.5-1.2.3zm470.6-.4c-.3-.4 1.3-2.5 4.2-5.6a49.6 49.6 0 0 0 3.7-4.2l2.8-3.2c6.8-8.1 17-18.5 18.2-18.5 1 0 .4 1.3-1.3 2.7a187.3 187.3 0 0 0-13.7 14.4c-1.5 1.5-1.8 2-1.3 2.4.2.2 5.2.3 15.8.4 16.6 0 16.7 0 17 1.4.4 1.5-.6 2-1.3.6a3 3 0 0 0-.9-1c-.2 0-6.4-.2-13.8-.2a311 311 0 0 1-17.6-.3c-1 .2-1.3.4-2.5 2-.7.8-1.5 1.7-1.8 1.8a6 6 0 0 0-1.5 1.7c-.5.9-1.9 2.6-3 3.7-1.8 2-2.7 2.5-3 1.9zm-389-1c0-.3.6-1.7 1.2-2.3.3-.2.5-.5.5-.7 0-.9 3-4.7 3.5-4.4.2.2-.6 2-1.3 2.7a9.2 9.2 0 0 0-2 2.5l-.5 1.4c-.6 1.2-1.1 1.5-1.3.9zm-24.7-1c0-.5 1.2-2 1.8-2.3.5-.2.5-.2.5.7 0 .5-.2 1-.5 1.4-.6.6-1.8.7-1.8.2zm-52.3-.6c.1-.2.4-.4.6-.4.2 0 .3.2.2.4-.1.2-.4.4-.6.4-.2 0-.2-.1-.2-.4zM206 112a71.3 71.3 0 0 0-5.1-3.3c-.5-.2-1.1-.7-1.2-1-.2-.3-.5-.3-1.6-.2-1.6.2-1.8 0-2-1.6-.2-1-.1-1.2 1-2.4.7-.8 1.4-1.4 1.6-1.4.4 0 1 .8 1.9 2.4.5 1 1 1.6 1.9 2l1.1.7-.3-.7c-.4-1 0-1.7.8-2 1.1-.1 1-.7-.3-1.4-1.7-.8-3.3-2-3.5-2.5-.1-.2 0-.6.2-.8.4-.4.5-.4 1.4 0l.9.7c0 .4 2 2.1 2.4 2.1.6 0 1-.8.8-1.2l-1-.7c-1-.5-2.6-2.5-2.4-3 .1-.2.4-.3.7-.3.8 0 1.3-.3 1.2-.7-.2-.5 1.3-2 2.2-2.1.7-.2.7-.2.6-1.6 0-1.3 0-1.5.6-1.7.3-.1.8-.6 1-1 .7-1 1.7-1.5 2.5-1.3.5.2.9.7 1.7 2.3 1.4 2.9 1.4 3.4-.3 3.8-.9.2-1 .4-.2 1.4 1 1.3.3 1.7-1.5 1-.9-.2-1-.2-1.4.3-.3.5-.7.6-1.1.6-.5 0-.6 0-.5.3l.2 1.4c0 .6.3 1.3.6 1.6 1 1.1 1.4 3.1.6 3.4-.3.2-.7-.1-1.4-.9-.9-.9-1-1-1.3-.6-.6.6-.2 2.3.8 3.6.7.9.8 1.1.5 1.5-1 1.4-1 2.7 0 3.2.3.2.5.5.5.7 0 .6-1.1.4-2.6-.6zm-.1-13.2c-.3-.2-.5-.3-.5-.1 0 .4.7 1 .8.7l-.3-.6zm338.4 13.7c-.6 0-1-.2-1-.5 0-.5 5.4-.5 5.8 0 .2.3.2.4-.3.5-.6.2-2.8.2-4.5 0zm-24-.6c-.2-.1-.1-.3 0-.5a195 195 0 0 1 21 .4c-.2.3-20.7.3-21 0zM99.6 111c0-.2.3-.6.7-1 .7-.7.8-.5.3.6-.3.7-1 1-1 .4zm-51.8-1c0-.2.3-.5.5-.5.4 0 .5 0 .4.3-.3.6-1 .8-.9.2zm166.7-1a7.3 7.3 0 0 0-1.6-1.3c-1.1-.6-1.4-1.2-1-2 .2-.5.3-1.2.3-1.6-.1-.6 0-1 .2-1.4.4-.5.4-.5 1.2 0l1.8 1.8c1 1 1.1 1.3.8 1.9-.2.5-.2.8 0 1.4.5 1 .2 2.2-.4 2.2-.3 0-.9-.5-1.3-1zm83.2.2a87.3 87.3 0 0 0-2.4-4.4c-.4-.8-.4-.8-.4-.1 0 1-.3 1.8-.7 1.8-.3 0-.7-1-1-2-.8-2.1-1-4.4-.3-5 .3-.3.4-.7.2-1.2-.3-1.4-.8-2-2.3-2.8l-1.6-.8-.8-2.1c-.7-2-.8-2.2-1.5-2.2-.4 0-.9.2-1.1.5-.6.8-1.3.5-1.3-.5 0-.8-1-2-2-2.3-.5-.1-1.8-1.8-2-2.5 0-.7.4-1.8 1-2.4.4-.3.7-.8.7-1 0-.8.5-1.6.9-1.6.7 0 1 1 .8 3-.1 1.9.1 2.8.8 2.8.4 0 .4-.2.1-1.8-.1-.9-.1-1.2.2-1.3.5-.3 2.1.4 3 1.1.3.3.6.3 1.6 0 1.1-.3 1.2-.3 1.3-1.5.2-1.5.7-2.1 1.3-1.8.4.2.6.6.6 1.2 0 .8.3 1.5.8 1.5s1.8-1.5 2-2.4c.3-.8.5-1.1 1-1.2.8-.2 1 0 1.7 1 .5.7.5.7.7.2.2-.9 1.2-.8 2.3.1.4.4 1 .7 1.5.7 1.3 0 1.8.3 2.3 1.4.2.6.7 1.4 1 1.8.8 1 .9 2 .2 2-.2 0-1-.5-1.6-1.1-.6-.7-1.4-1.2-1.6-1.2-.3.1-.6.8-1 2-.6 2.3-1.1 2.8-2 2-.4-.5-.5-.9-.4-1.7 0-1 0-1.1-.8-1.4l-1.2-.6c-.8-.8-1.8.2-1.8 2 0 .3-.5 1.2-1.2 2-2 2.1-2.2 2.8-1.4 4.9.3 1 .7 2 1 2.3l.5 2c.5 2.2 1.9 6 2.9 7.7 1 1.5 1.3 3.1.7 3.3-.1 0-.5-.1-.7-.4zm-12.2-.4c-.4-.6-1-3.2-1-4.6 0-.8 0-.9 1-.8h.8v3c.1 3.1 0 3.6-.8 2.4zm149.4.2c0-.2 0-.6.2-1 .5-.9 4.7-5 5.1-5 .6 0 .6.7 0 1.3-.4.2-.6.6-.6.7l-1.7 2.2c-1.7 1.9-2.7 2.5-3 1.8zm-333.7-.3c0-.6 1.3-2.2 1.3-1.6.1.7 0 1.4-.3 1.7-.4.5-1 .4-1-.1zm-51.9-.3c0-.3.5-.7.7-.5 0 0 0 .2-.3.4-.2.2-.4.2-.4 0zm432.8-.3c-.1-.1.1-.4.4-.7a233 233 0 0 0 3.8-3.3c.5 0-.1 1-1.6 2.5-1.7 1.7-2.3 2-2.6 1.5zm-192.5-.7c-.5-.2-.8-.7-1-1.5l-.6-1.5a10 10 0 0 1-.6-3l.7-.2c.7 0 1 .7 1.3 2.3.4 2 .7 2.8 1.3 2.8.6 0 .9.6.5 1.1-.4.5-.7.5-1.6 0zm-239.2 0 .8-1.2c.6-.6 1-.8 1-.5 0 .2-.2.7-.7 1-.7.9-1.1 1-1.1.7zm227.8-.3c-.3-.2-1-1.4-1.5-2.5-1-1.8-1.1-2-.7-2.4.5-.5 1.3-.2 2 .7a9 9 0 0 1 1.5 3.9c-.1.8-.8 1-1.3.3zm201.2-.4c-.1-.3 0-.7.1-1 .6-1.1 1.9-2.5 2-2.3.2.1 0 .4-.2.7l-.5 1c-.1.5-.4 1-.7 1.4-.5.6-.5.6-.7.2zm-351.3-.7c-.2-.3.5-1.5 1.5-2.5a11 11 0 0 0 1.4-1.7c.5-.8 1.2-1.1 1.1-.5 0 .6-2.9 4.5-3.5 4.8h-.5zm198.1-.8V104c0-.4-.2-1-.4-1.4-.2-.3-.5-1-.6-1.6-.1-.8-.5-1.4-1.2-2.1-.6-.7-1.5-2-2.3-3.8-1-2.4-1.3-2.8-1.4-2.2-.1.3-.4.7-.7.7-.8.1-2.7-1.3-3-2.1-.2-.5-.5-.7-1-.8-1-.1-1.1-1-.4-2.1.3-.5.6-1.3.6-1.8 0-1-1.1-3.9-2-5.3-.8-1.1-1-3-.4-3.2.2 0 .6-.4 1-.8l1.8-2c1.2-1.4 2.2-1.8 2.2-1 0 .2 0 .4-.2.4-.5 0-3 3.5-3.1 4.4-.1.6 0 1.2.5 2.2.4.8 1 1.9 1 2.5.4 1 .4 1 1.4 1 .8.1 1 .2 1 .5l-.3.9c0 .4 0 .4.4.2l2.3-.2h1.8V85c0-1.3 0-1.5 1-2.5.6-.6 1.2-1.5 1.4-2 .4-.7.6-.8 2-1 2-.2 2.3 0 2.7 1.5.3 1.1.8 1.4.8.4a9 9 0 0 1 1-3l.8-.8a6 6 0 0 0 1-.7c.7-.5 1.2-.7 1.8-.4.5.3.5 1.1-.4 3.1l-.6 2.5c-.2 1.5-1 2-1.7 1.3-.5-.5-.5-.5-.8.1-.2.4-.5.7-.7.8-.3.1-.4.5-.4 1.4 0 .7-.1 1.4-.3 1.5-.5.4-1.5 0-1.7-.6l-.7-1.6c-.4-1-.5-1.2-.9-.8-.6.4-.3 2.7.6 4.8.7 1.5.7 1.5.2 2-.4.3-.3.3 1.2.1 2.3-.3 4-.2 4.4.2.6.5.2.8-1.1.8-.7 0-1.8.1-2.3.4-.6.2-1.5.3-2 .3-1.2 0-1.5.4-1.4 1.6 0 1-.1 1-1.2.5-.7-.3-1.1 0-1.1 1 0 .6 1.2 3.2 2 4.3 1.8 2.4 2.4 4.6 1.4 4.6-.3 0-.7.2-.9.5-.4.7-.9.7-1 0zm1.5-14c0-.3-1.3-1-1.5-.7v.5c.2.5 1.5.6 1.5.2zm5.6 13c-1.4-1.7-1.6-2.2-1-2.7.6-.5 1.5.2 2.7 2l1 2c-.4.6-1.4 0-2.7-1.4zm-229.8 1c-.2-.5 1.2-3.2 2.3-4.4l1.3-1.8a33 33 0 0 1 1.9-2.4c3-3.6 3.9-5 4.1-5.9.4-1.2 2.4-3.8 8.3-10.3A175.8 175.8 0 0 0 134 65c0-.2.5-.6 1-.9a12 12 0 0 0 2.5-2 163 163 0 0 1 5.2-5.7 26 26 0 0 1 2.2-2.5l1.5-1.7a45.4 45.4 0 0 0 3.4-4.5 41 41 0 0 1 2.5-3c1.5-1.7 3.1-4.2 3.1-4.9 0-.6.8-1.7 2-3.2 1-1 1.3-1.1 2.2-1.2 1 0 1.4-.3 2.3-1.1 1.5-1.5 2-1.7 4.4-1.7 1.8 0 2.1.1 2.4.5.3.7 0 1.4-.5 1.4-.3 0-.4 0-.1.2.5.2 2.7-.5 2.7-.9l.4-.7c.3-.2 1.3-.2 5.4.2 3.6.3 7.7.5 15.4.5 10.8 0 11.3.1 11.3 1.1 0 .3-.4.4-1.6.4a1010.8 1010.8 0 0 0-36 .6c-1.3-.1-1.7 0-3.1.7-1.8.8-5.8 4.5-5.8 5.2a77.5 77.5 0 0 0-7.3 9l-1.5 1.8-2 2.4-1.9 2.3c-.6.8-1.5 1.6-2 1.8-.3.2-.7.5-.7.7 0 1-2 3.5-4.5 5.8a9 9 0 0 0-1.3 1.5l-2 2c-.9.7-1.7 1.6-2 2.3l-1.5 2.2-2 2.3a93.6 93.6 0 0 1-9 10.6l-3.1 4a46.6 46.6 0 0 1-4 5.4l-2 2.5a92.5 92.5 0 0 1-4.3 5.9c0 .4-1.2 1.4-1.7 1.4-.2 0-.4-.2-.5-.4zm236.2-.7c-.3-.6 0-1.5.8-2.3.7-.7 1-.9 1.7-.5.3.2.3.4 0 1.1-.5 1.7-2.1 2.8-2.5 1.7zm-243.3-.5c0-.2.3-.4.6-.5l.9-.6c.6-.6.5 0-.2.8-.6.8-1.3 1-1.3.3zm121.1-.5c-2.4-1-2.9-1.5-2.2-2.9l.7-1.6c.3-.6.4-.7 1-.6l2 .4c1.2.2 1.4.3 2 1.2 1.5 2.5 1.6 3.5.4 3.3-.4-.1-.6 0-.7.4 0 .8-.8.8-3.2-.2zm269.2.2 1.8-2.1a46.8 46.8 0 0 0 4.7-5.6 245.6 245.6 0 0 1 11.7-12.6c2.2-2.5 2.7-2.9 2.7-2.3 0 .4-2.3 3-4.2 5-.9.8-1.8 2-2.2 2.4l-1.7 2-3.7 4.3a80.2 80.2 0 0 1-8.8 9l-.3-.1zm-461.4-.5c-.3-.3-.3-1-.2-2.6l.3-4c0-3.4.3-2.4.5 2.1.2 4.4 0 5.4-.6 4.5zm124.6-.2c0-.4.4-1 .9-1.5s1-1 1-1.2c0-.1.4-1 1-1.8a161.3 161.3 0 0 0 3.8-5l1.7-2.2a182.5 182.5 0 0 1 9.4-10.4c.7 0-.3 1.8-2 3.7-2.2 2.5-6.5 8.7-5 7.2.6-.6 1-.4 1 .4 0 .6-.3 1.1-1.3 2.2-2 2-2.7 2-1.4 0 .9-1.2.9-1.9 0-1.2-.8.7-3 3.1-3 3.4a47.2 47.2 0 0 0-4.4 5.6c-1 1.5-1.7 1.8-1.7.8zm159.2.1c-.3-.4-.2-6 .2-8 .4-2.5.5-4.3.1-5l-.7-2-.9-2.4c-.8-2 .7-2.3 2.2-.5a4 4 0 0 1 1 2.4c.2 1 .4 1.4 1 2 1.6 1.5 2.1 3.5 1 3.8-.3 0-.7.4-.8.6l-1.5 6c-.5 2.6-.8 3.3-1.1 3.3-.2 0-.5 0-.5-.2zm-263-.8c-.2-.1.3-.8 1-1.5l2.2-2.4c1.7-2 3.3-3.6 3.4-3.4.1.1-.2.5-.7 1a30.7 30.7 0 0 1-5.7 6.6l-.3-.3zm52.4 0c-.3-.2.5-1.5 1-1.7.6-.2.5.9-.2 1.5-.6.5-.6.5-.8.3zm343-.4c0-.2.1-.4.3-.5.3-.1.4 0 .4.4 0 .2-.1.5-.4.5-.2 0-.4-.2-.4-.4zm40.6.1.4-.2c.1 0 .2 0 .2.2s-.2.3-.4.3-.3-.1-.2-.3zm-270.6-.8c-1-1.3-.6-2.2.7-1.7.5.2 1.3 1.7 1 2.1-.2.7-1 .5-1.7-.4zm237.2.3c-.8-.5-.6-1.1 1-3a13.8 13.8 0 0 1 3-2.7c.5-.5 1-1 1.2-1a215 215 0 0 1 6.2-6.2 372.4 372.4 0 0 0 14-14.6 28029 28029 0 0 0 11.8-12.8c.3-.2 1.6-1.3 2.8-2.6a635.8 635.8 0 0 0 18-17.6 135.2 135.2 0 0 0 4.5-3.8l.8-.5c.5-.6 1.4-.7 1.4-.2 0 .4-5.5 5.7-6.7 6.5-.9.6-2.8 2.4-2.8 2.6l-2 2-2.4 2.7a210.6 210.6 0 0 0-10.2 10 790.4 790.4 0 0 0-27.7 29.1l-1.9 1.9-5.4 5.3c-5.1 5-5.3 5.2-5.6 5zm56.8 0c0-.4 3.5-4.2 3.8-4.2.5 0 0 .6-2.4 3.6-.7.9-1.4 1.1-1.4.5zM222.6 100l-1.9-1.8a4.8 4.8 0 0 1-1.5-3.1c0-.3.2-.7.5-1 .6-.4 2.1-.4 2.8.1l.8.4c.5 0 1-1.7.8-2.5-.2-1 0-1.5 1.2-1.5 1 0 1.4.5 3.4 3.5l1.7 2c1.4 1.8 1.2 3.1-.4 2-.6-.5-.8-.5-.9-.2l-.2.8c-.2.5-1 .5-2.3 0l-1-.3-.3 1.3c-.6 1.9-1.1 2-2.7.3zm25.7.8c-.4-.5 0-1.1 1.5-2.6 1.4-1.4 2.5-1.6 2.5-.5 0 .3-.3.8-.6 1l-1.6 1.5c-1 1.1-1.3 1.2-1.8.6zm-191.7 0 .1-.5.4.1c.1.1 0 .3 0 .4h-.5zm75.8-.4c0-.5 1.1-2.5 2.2-3.8l1-1.6 1-1.7c.8-1 1.2-1.5 1.5-1.4.3.1.3.3-.2 1.2l-1 1.5c-.3.2-.7 1-1 1.6-1 2-3.5 5-3.5 4.2zm147.7-1-2.1-1.6c-1-.8-1.4-1.3-1.4-1.7 0-1.3 1-1.2 3 .5 1.9 1.5 2.6 2.3 2.5 2.7-.1.7-1.3.7-2 0zm161.8.3c-.5-.5 0-1.4 2-3.5a1501.3 1501.3 0 0 1 17.1-18 160.2 160.2 0 0 1 10.8-11.2l3-3c4-4.1 4.5-4.6 7.2-7 3.7-3.5 4.7-4.4 6-6a141.5 141.5 0 0 1 14-13.8c1.6-1.6 2.2-1.8 2.4-1 0 .4-3.6 4.3-10 10.6a13830.8 13830.8 0 0 0-25 24.7 24 24 0 0 0-3.6 4c-.3.6-1 1.2-1.3 1.5a35 35 0 0 0-4.1 4.2 192.5 192.5 0 0 1-7.8 8.4c-1.6 1.6-3.3 3.5-4 4l-3.4 3.7c-2 2.4-2.8 3-3.3 2.4zM162 98.1c0-.4 3.3-3.8 3.8-3.9.5 0 2-1.6 1.7-1.8-.2-.2.6-1.3 1.6-2.4a4111.2 4111.2 0 0 1 3-3.5 27.3 27.3 0 0 1 2.3-3L178 79l1.9-2.4c.4-.9.7-1.3 4.4-5.7l5-6c1.4-1.8 3.8-4.4 5.4-6 1.6-1.5 3.1-3.2 3.4-3.7.2-.6.9-1.2 1.5-1.6l1.6-1.2c.7-.7 1.2-.7 1.2 0s-2.3 3.4-3 3.5c-.3 0-.7.4-1 .9-.2.4-.8 1.3-1.4 1.8a553.2 553.2 0 0 0-4.8 5 45 45 0 0 1-5.6 7l-1.4 1.6-2 2.4-1.7 2.2-2.1 2.4a170.8 170.8 0 0 1-6.7 8.2c-6.2 7.8-9.2 11-10.2 11-.3 0-.6-.1-.6-.3zm-102.6-.5.7-.7c.2 0 .3-.3.3-.4 0-.2.5-.8 1-1.3s.9-.7.9-.5c0 .1-.1.3-.3.3-.1 0-.2.1-.2.3 0 .3-2.2 2.8-2.5 2.8l.1-.5zm173.4-.4c-.4-.4-1-1.2-1.2-1.8a23 23 0 0 0-1-1.7c-.5-.9-1-2.4-1-3.1 0-.8.8-1.3 1.5-1 .6.4 1.3 1.7 1.3 2.4l.7 2.3c.9 2.3 1 3.2.7 3.4-.2.1-.6-.1-1-.5zm-201-.5c.1-.3.2-.4.3-.2v.5c-.2.1-.2 0-.2-.3zm203.4-.2a52 52 0 0 1-1.9-5.2c-.3-1.2 1.3-1.9 2-.8.4.6 1.2 5.4 1 6-.2.4-.9.4-1.1 0zm-131.5-.4.1-.6c.2-.2.3-.2.5 0 .3.4.3.5 0 .6h-.6zm146.5 0c0-.2.2-.3.5-.3s.5 0 .4.2c-.1.2-.4.3-.6.3-.2 0-.3-.1-.3-.3zm21.5-.9.9-3.8c.5-2.2.6-2.7.3-3.4-.6-1.9-.2-3.6 1-3.6.7 0 1 .8.8 2 0 .4 0 1.2.2 1.7.3 1 .1 2.1-.4 2.1-.4 0-1 1.5-1 2.6-.1 1.4-.6 2.7-1.4 3.2l-.6.4zm273.1.9c-.6-.1-.5-.9.2-1h3l7.3-.2c4.2-.2 4.7-.2 4.8.2v.7c-.2.2-14.3.5-15.3.3zm-376-1.4.3-.3v.3c0 .2 0 .3-.2.3-.1 0-.2-.1-.1-.3zm110-1c-1.2-1.2-1.4-1.8-.7-2 1-.5 2.7 1.3 2.7 2.7 0 1-.8.7-2-.6zm232.9 1 .3-.3v.3c0 .2 0 .3-.2.3-.1 0-.2-.1-.1-.3zM53 94.4c0-.6 2.2-2.8 2.4-2.4 0 .2-.5 1-1.1 1.6-.9.9-1.3 1.1-1.3.8zM63.3 93c.3-.5.8-1 1-1 .3 0 .3.1-.3.9-.9 1.2-1.4 1.2-.7 0zm-38-.3c-.1-1 .3-1.6.6-.8v1c-.3.5-.4.4-.5-.2zm80.7.2c0-.2.2-.4.4-.4.3 0 .4 0 .2.2l-.4.4c-.2.2-.2 0-.2-.2zm-67.2-2c0-.4.1-.9.3-1 .4-.3.4-.2.4.7 0 .8 0 1.1-.4 1.1-.2 0-.3-.3-.3-.8zm69-.3.7-1c.3-.3.4-.2.4.2 0 .7-.6 1.4-1 1.4-.3 0-.3-.2 0-.6zm-51.6 0 .2-.2c.2 0 .3-.3.4-.6l.4-.5c.5 0 .4.4-.3 1-.4.4-.7.6-.7.4zm161 0c-.4-.3-.9-.6-1.1-.9l-1.6-.7c-1.2-.3-2.4-1.4-2.4-2.2 0-.8.8-1.4 1.7-1.5.6 0 .9-.1 1.3-1 .5-1 .6-1.2 1.5-1.3.6 0 1.2 0 1.4.2.6.3 2.5 3 2.5 3.5-.2.7-1 .6-2.2-.3-1.3-1-1.7-1-1.7-.1 0 1 .4 1.8 1.3 2.3.7.4.8.6.7 1.3 0 1-.5 1.2-1.5.6zM66.8 89.1l.6-.5c.2.2-.6 1-.9 1 0 0 0-.3.3-.5zm449.7-.2c0-.3 0-.4.2-.2v.5c-.1.1-.2 0-.2-.3zm-407.3 0 .4-.5c.1-.2.2 0 .2.2s-.2.5-.4.5c-.3 0-.4-.1-.2-.2zm167-1a10 10 0 0 1-.7-4c0-1.3 0-1.5.6-1.8.6-.2.8-.2 1 0 .5.5 1.1 5.7.9 6.2-.4.5-1.5.2-1.7-.4zm-250.9-.4c-.4-2-.4-2.3 0-2.8.3-.5.3-.5.5.3v2c-.3 1.4-.3 1.4-.5.5zm116 0c0-.2.1-.3.2 0v.4c-.1.1-.2 0-.2-.3zm-82-.6c0-.4.6-1.3.9-1.3.3 0 .1.8-.4 1.2-.4.4-.5.4-.5.1zm51.8-.2c0-.7 1.1-2.4 2-3 .8-.8.8-.8 1-.3 0 .4-.1.8-.3 1l-1 1.2c-.7 1-1.7 1.5-1.7 1zm407 0 .2-.4c.2-.1.6-.7.8-1.2.6-1.1 1-1.4 1-.6 0 .3-.4 1-1 1.5-.5.6-1 1-1 .7zm-297.6-2.2c-.9-.8-1.1-1.2-1.1-2 0-1 .3-1.2 1.4-1 .8.1 1 .3 1 .8 0 .3-.2.7-.4.7-.1 0 0 .5.5 1 .7.8.7 1.6.1 1.6l-1.5-1zM61 85c0-.1.1-.2.3-.2.1 0 .2 0 0 .2 0 .2-.1.3-.2.3l-.1-.3zm31.7.2c-.3-.3.1-1.8.5-1.8.2 0 .3.3.3.9-.1.7-.5 1.2-.8.9zm185.7 0c-.3-.4-.2-2.4.1-2.9.5-.5 1.2-.7 1.5-.4.4.4.4 1-.2 2.2-.6 1.1-1 1.4-1.4 1zm-231.6-.5-.4-2.5c-.2-1.7-.2-2.9.2-6l.5-5.8c.1-1.2.3-2.4.5-2.8l.4-.7v1l-.2 2c-.2.5-.4 3.6-.5 7-.1 6.1 0 7 .9 5.8.5-.8.9-.7.9 0 0 .8-.5 1.8-1 2.1-.4.3-1.2.3-1.3-.1zm392.9.1a50.8 50.8 0 0 1 .6-14c0-1.1.3-3.4.5-5a104 104 0 0 0 1.3-13.3l.3-2.7a86.5 86.5 0 0 1 1-9.2 55 55 0 0 1-.6 12.8c0 1-.1 2-.3 2.1-.1.2-.3 2-.3 4.1-.3 7.5-.5 10.8-.8 12.8a70 70 0 0 0-.3 6.6c0 5.4-.3 6.6-1.4 5.8zM225 83c-1.4-1.4-1.8-2.2-1.5-3 .2-.5 1.4-.5 1.4 0 0 .7 1 2.3 1.8 3 .4.3.6.7.5 1-.3.7-.8.4-2.2-1zm94.6 1c0-.2.2-.4.3-.4.1 0 .3-.2.3-.5s.2-1 .5-1.6c.7-1.3.7-2.2 0-5-.3-1.2-.5-2.3-.4-2.4.3-.3 1 .3 1.5 1.5.5 1 .5 1.5.3 3.3a14 14 0 0 1-.5 3c-.4 1-2 2.7-2 2.1zm-92-.8c-.2-.1-.3-.4-.3-.7 0-.2-.5-1-1-1.5-1-1-2-2.9-2-3.9 0-.2.3-.4.5-.5.4-.1 1.2.5 1.2 1s.7 1 .9.7c.3-.5 1.4-.3 1.8.3.3.4.5.9.5 1.2 0 .4.2 1.1.5 1.7.5.8.5 1 .3 1.4-.4.4-1.7.5-2.4.3zM39.4 80.6v-1.3V82v-1.4zm16.6 0c-.3-.4-.6-5-.3-5.4.2-.5.6.8.3 1.4-.2.6.7 1.5 1.2 1.1.3-.2.3 0 .3.8 0 1.9-.8 3-1.5 2.1zm452-.2.3-.2v.2c0 .2 0 .3-.2.3-.1 0-.2-.1-.1-.3zM93.3 79c0-.8 0-1.5.2-1.5s.3.6.3 1.3c0 .7-.1 1.4-.3 1.5-.1 0-.2-.4-.2-1.3zm75.5.8c0-.2.3-.8.8-1.3l1.2-1.5 1.1-1.5a49 49 0 0 0 4.7-6.1c.6-.6 1-1.4 1.2-1.7 0-.3.3-.5.4-.5.2 0 .7-.6 3.4-4.4l1.7-2.2 1.3-1.6 2-2.2 1.9-2.2c.3-.6 1.4-1.9 4.8-5.5 1-1 1.8-2 1.8-2.2 0-.4 1.8-2 2.3-2 .3 0 1.4-1.4 1.4-1.8 0-.2 1.9-1.8 2.2-1.8.1 0 .2.2.2.6 0 .4-.4 1-1.4 1.7-.8.6-1.7 1.5-2 2a7 7 0 0 1-1.3 1.8L195 49c-.2.4-.6.7-.8.7-.1 0-.5.4-.7.8l-2.2 2.5c-1 1-1.7 1.8-1.7 2l-1.3 1.5-1.8 2.2a119 119 0 0 1-8 10.4c-.5.4-1.8 2-2.9 3.5a49.5 49.5 0 0 1-5.2 6.3c-.6 1-1.4 1.4-1.6.9zm281.4-.4c-.2-.6-.2-1.2 0-2.6.3-1.7.3-1.7.7-1.1.4.8.4 3.8 0 4.2-.3.2-.5.1-.7-.5zm-285.5-2c0-.6 0-.7.4-.4.3.2.3.4 0 .7-.3.5-.4.4-.4-.4zm360.6.1c0-.2 1-1.5 2-2.8l2.9-3.2c1-1.3 2-2.2 2.4-2.2.7 0 0 1-2 3-1 1-2.4 2.7-3 3.6-1 1.5-1.6 2.1-2.2 2.1v-.5zM33 77.2c-.4-1.3-.1-3.8.3-3 .3.3.3 2.1 0 3l-.2.7-.1-.7zm86.1.2c-.2-.5.2-1 .6-.7.3.1.3.3 0 .7-.4.5-.4.5-.6 0zm-61.7-.7c0-.3 0-.5.2-.5s.3.2.3.4-.1.4-.3.5c-.1.1-.2 0-.2-.4zm334.4-.4c0-.4.6-1.1 2.2-2.5l3-2.6 4-4c.6-.6 1.4-1.3 2-1.5.4-.3 1.4-1 2-1.7l4-3.7a127.5 127.5 0 0 0 10-9.8A414 414 0 0 1 435 35c2-1 .2-1.8-2.6-1.3-.8.2-3.1.2-5.3.1a227.8 227.8 0 0 0-26 .7c-.4 0-.5.5-.6 3l.1 4.4c.3 1.3-.1 2.4-.6 1.9-.2-.2-.4-2-.5-5 0-2.5-.2-4.6-.3-4.7-.7-.7-26.2-1-29-.4-2.3.5-3 .4-3.9-.7l-.8-.9-5.1-.2-5.2-.1-.2.6-.3.6h-6.5c-3.6 0-7.3 0-8.3-.2-3.7-.4-8-.4-9.4-.1-1.4.3-1.6.3-2.5-.4a4 4 0 0 0-1.8-.7c-.8 0-1.5-.3-1.5-.6 0-.4 2.3-.5 11-.5l11.2-.2c2.8-.2 4.5-.1 4.5.3 0 .5.8 1 1.8 1s1 0 1-.6c-.3-.7.7-1 3.7-1 2 0 2.5 0 3 .5l.8.6.4-.6c.3-.5.6-.5 3-.5l3-.1c.3-.3 2.3 0 2.3.4 0 .1-.2.3-.5.4-.6.2-.5.3.3.4.6.1 1.6.2 2.3 0a40.3 40.3 0 0 0 10.9.2c0-.1.3-.3.6-.3.7-.2-2.7-.3-8-.3-4.2 0-4.2 0-4.2-.5 0-.6 2-.7 9.3-.8 4.3 0 6.4 0 6.6.3.4.4 0 1.6-.6 1.6-.3 0-.5-.1-.5-.3 0-.3-.5-.3-1 .1a150 150 0 0 0 20.9.5c2-.2 11.7-.5 16.6-.4 2.3 0 3 .2 4 .7 1.1.6 2 .7 6.9.8 2.5 0 3.2 0 3.7-.4 1-.6 1.6-.6 2.7.2 1 .7 4 1 6.5.9 1-.1 1.2-.2 1.2-.8 0-1.4 0-1.4 1.4-1.2.7 0 8.6.2 17.5.2h16.3l1-.5c1-.7 2.1-.7 10.8 0l10 .3a34.9 34.9 0 0 1 8.5.7c1.9 0 8 .7 8.8 1l5.4.2c4.3 0 5 0 5.2.4.2.3.2.6 0 .8a133.4 133.4 0 0 1-23.7-1.5 934.4 934.4 0 0 0-52.3.7 2 2 0 0 0-1.4.6l-.6.7-4.6-.4c-6.8-.6-9.8-.6-10.8-.2-.4.2-1.3.7-2 1.3l-1.4 1.1a85.3 85.3 0 0 0-11.4 10.6l-1.8 1.8c-.8.7-2.1 1.7-3 2.2-1 .6-1.8 1.2-2 1.7-.1.3-1.5 1.8-3 3.3a246.9 246.9 0 0 0-9.3 8.8l-4 3.6c-1.9 1.7-4 3.6-4.9 4.2-.8.6-2 1.7-2.7 2.6-.9 1-1.4 1.5-1.9 1.5s-.6-.2-.6-.7zM63 75.5l-.6-2.1c-.4-1.3-.4-1.5.1-3.5.4-1.5.5-2.5.4-4v-2.8c.2-.8.3-1 .6-.6.4.3.4.7.3 2.3-.4 4.1-.5 8.2 0 8.8.3.5.2 2-.3 2.3-.3.3-.4.2-.5-.4zm30.3-1.6c0-.6 0-1.2.2-1.2.4 0 .6 1.2.4 1.9-.3 1-.6.6-.6-.7zm-37.7.2.1-1.2c.2-.7.2-.6.2.4 0 1.3 0 1.7-.3.8zm457.8.2c0-.3 2.5-3.7 3.1-4.1l.8-.4c.5 0 0 1-1.5 2.6s-2.4 2.3-2.4 2zm-391.7-.2v-.5l3.2-3.6c.7-.7 1.3-1.6 1.6-2 .6-1.2 2-1.8 1.8-.9l-.1.7-1.3 1.5-2.6 2.9c-1.6 1.8-2.3 2.3-2.6 1.9zm329 0c-.5-.7-.2-10.2.4-10.8.4-.4.5.8.5 5-.1 5-.3 6.3-.8 5.7zM81 73.7c-.1-.1 0-.3 0-.4.2 0 .3 0 .3.3 0 .4-.1.5-.3.1zm117-3c0-.7.2-1.7.4-2 .4-.6.4-.6.4 1 0 1.1-.1 1.8-.4 2-.3.4-.4.3-.4-1zm-164.6 1c-.3-.5 0-3.3.4-3.1.2.1.2 2.1 0 2.8-.2.4-.3.5-.4.2zm22.4-.8v-.4 1-.6zm-16.9.2c-1-.2-1.7-.8-.8-.8.2 0 .7-.2 1-.5.6-.3.7-.6.7-1.4 0-.8.1-1 .4-1 .5 0 .5.6.1.9-.2.1-.2.6 0 1.2.1 1.4-.1 1.7-1.4 1.6zm70.3-2.2V68l.2.9c.2.6.2 1 0 1.1-.2.2-.3 0-.2-.9zm188.8.8v-2.6c0-1.9.2-2.1.4-1.6.4 1 .4 4.5 0 4.5a.5.5 0 0 1-.4-.3zm21.7-.1a.6.6 0 0 1-.2-.4c0-.3 2.4-3.1 4.3-5.1a62.3 62.3 0 0 0 5.3-5.9 121.6 121.6 0 0 1 6.4-6.8l4.9-5.3c2.8-3.6 7.3-7.6 8.5-7.6.4 0 .7.2.7.3 0 .2-1 1.3-2.2 2.5l-6 6.2a965.2 965.2 0 0 1-9.8 10.6 96 96 0 0 1-4.1 4.4 124 124 0 0 0-4.2 4.5c-.9 1.1-2.9 2.7-3.3 2.7l-.3-.1zm61.2-.5c-.6-.6-.5-.8 3.3-4.7a170 170 0 0 1 8.3-7.9l6.5-6c7.2-7 8.2-8 9.8-8.8.5-.2.7-.2 1 .1.5.6.3 1.1-.9 1.9l-3.8 3.4a195 195 0 0 1-12.4 11.5l-2.4 2.4-4.8 4.6c-3.7 3.7-4.1 4-4.6 3.5zm-306.8-.1c-.2-.3.6-1 .8-.7.1 0 0 .3-.2.5-.3.3-.5.4-.6.2zm302.5 0c-.2-.2-.2-.5 0-1.2.4-1.2 1-1 1 .2 0 1-.4 1.3-1 1zm142.6-1.6c1.1-1.2 2.6-2.7 2.8-2.7.4 0 0 .6-1.5 2-1.7 1.9-2.6 2.3-1.3.7zm-362.6 0v-1.3c.2-1 1-1.2 1-.1 0 1-.7 1.9-1 1.4zm177.7 0c-.6-.4.2-1.7 3.2-4.7 2.7-2.8 4.8-5 8.7-9.4 3.3-3.6 13.2-13.5 14.1-14.1 1-.6 1.5-.2 1 .7a58 58 0 0 1-7.7 8.3c-.6.5-1.6 1.5-2 2.2l-1.8 2a303.7 303.7 0 0 0-12 12.8c-1.6 2-2.7 2.7-3.5 2.2zm200 0c0-.1.5-.7 1.2-1.3l1.3-1.8c.2-.8 1.2-1.4 1.2-.7l-.4.8-1.5 1.8c-1 1.3-1.8 1.8-1.8 1.2zM208 67c-.1-.3-.3-1.3-.3-2.3-.1-1.3 0-1.7.2-1.7.3 0 1 2.6 1 4 0 .6-.7.6-1 0zM55.7 65.3c0-1.4 0-2 .2-2 .4.2.4 2 0 3.2-.1.6-.2.3-.2-1.2zM199 66c-.3-.3 0-3.2.5-3.4l.3-1.9.1 1.1c0 2.9-.3 4.8-.9 4.2zM40.3 66v-3.3c0-.7 0-.7.3 0 .3.6 0 3.8-.3 3.3zm36.6-1c0-1.2 1.9-3.4 3.7-4.3.6-.2 1-.6 1-.8 0-.4.5-.8.7-.6.2.2-.5 1.1-2.9 4-2 2.2-2.5 2.6-2.5 1.8zm299.8-.3a52.7 52.7 0 0 0 .2-7.7c0-3.6.1-6.7.3-7.4a4 4 0 0 0 0-2.1c-.2-.7-.2-2.3-.1-4.2.1-2.5.2-3.2.6-3.7.5-.6.5-.5.4 3.7a148.1 148.1 0 0 1-.7 18c.2 0 .3.3.3.5s-.2.4-.3.4c-.2 0-.2.2-.1.6.2.7.2 1.7-.1 2.2-.2.3-.3.2-.5-.3zM173.2 64c0-1 0-1.2.4-1 .2 0 .4.5.4 1s-.2 1-.4 1c-.4.1-.4 0-.4-1zm41 1c-.4-.2-.5-12.5 0-12.5l.3-.6.2 1.4c0 1.3-.1 2-.3 2-.3 0-.3 1 0 1.7.2.3.2.5 0 .6-.3.2-.3 1.7 0 1.8.3 0 .5 5.4.3 5.6h-.5zm152.2-3.6.1-3a101.9 101.9 0 0 1 1-18.2l.1.8c.1 1 0 5.2-.1 9.4l-.3 10.5c.1 2.8 0 3-.4 3-.5 0-.5-.2-.4-2.5zm156.8 2.1c0-.4 1.8-2.2 2-2 .2.3-.9 2-1.4 2.2-.5.2-.6.2-.6-.2zm-453.9-.2v-1.5l.2-1.3.2 1.4c.2 1.2 0 2-.4 1.4zM451 61.7l.3-5.4c.2-3.3.4-4.2.7-4.2.3 0 .3.5.2 3.1-.4 7-.5 7.8-.9 7.8-.2 0-.3-.4-.3-1.3zm87.5.8c0-.2 2.3-3 3-3.6.3-.3 1-1.2 1.4-2a10 10 0 0 1 1.9-2l2-1.8c.6-.6 1.1-1 1.2-.9.1.2-1.3 1.9-3.5 4.4a57.5 57.5 0 0 0-4.8 5.6c-.5.5-1.2.6-1.2.3zM91 62l1.1-1.6 1.7-2.4c.6-1 3.3-4 3.6-4 .3 0-.3 1.3-1 2l-1 2c-.2 1-.4 1.3-.8 1.3-.7 0-1.4.5-2.4 2-.7.8-1.2 1.1-1.2.7zm-50.4-2.4c0-1 .3-2 .6-2.3.2-.2.3-.6.2-.8l.1-.6c.2-.1.4 1.1.3 2.4-.1 1.4-.6 3-1 3-.3 0-.3-.3-.2-1.7zm139.8.2c-.3-1.8-.3-2 .1-2.4.3-.2.4-.1.5.6.3 1.1.2 2.4 0 2.8-.2.3-.4 0-.6-1zM462 61a16 16 0 0 1 0-4.8l.3-1.2.2 1c.5 2.4.2 5.7-.5 5zm-406-.8c-.3-.7-.3-1.3.4-6.8.2-2.2.5-4 .6-3.7.3 1.4-.3 11.2-.7 11.2l-.4-.7zm470.7-.1c.1-.4 1-.9 1.2-.7.2.3-.4 1-1 1-.1 0-.3-.1-.2-.3zm-369.3-1.3.4-3.5c.1-1.1.4-2.2.5-2.4.3-.2.3 0 .2 1.3l-.4 3.3a8 8 0 0 1-.5 2.3c-.3.4-.3.2-.2-1zm-82 .2c-.3-.7 0-2 .3-1.8.4.3.6 2 .2 2-.2.1-.4 0-.5-.2zm43.7 0c-.2-.6-.2-3.3 0-4.4.2-.9.2-1 .4-.3.5 1.7.1 6-.4 4.7zm267.8-.4.4-1.8.4-1.3v1.8c0 1.4 0 1.8-.4 1.8-.2 0-.4-.2-.4-.5zM63.7 55.8c0-3 .3-6 .9-7.3.5-1.2.7-.2.4 2.6a16 16 0 0 1-.9 4.6l-.3 1.8-.1-1.7zM471 58.2c-.3-.8 0-5.5.5-7l.3-1.3.1 2.5c.3 4.2.2 6.2-.3 6.3-.3 0-.5-.2-.6-.5zm-401.6-.5c-.3-.9 0-2 .5-2.3.5-.1.5 1.4 0 2.2l-.4.7-.1-.6zm229 .2c-.4-.1-.4-.5-.1-1.7a12.2 12.2 0 0 0 .2-3.6v-.9l.4.7c.3.5.3 1.3.2 3.1 0 1.3-.2 2.5-.3 2.5h-.5zm-132.6-.6c0-.4.2-.8.4-.9.5-.1.4.5 0 1.2-.4.4-.5.4-.4-.3zm56-.1c-.3-1.1 0-2.7.5-2.7.2 0 .3.4.3 1.7 0 1.3 0 1.7-.3 1.7-.2 0-.5-.3-.5-.7zM49.2 55.8c-.2-1.2 0-2.3.5-2.4.6-.3.7 1.2.2 2.4l-.5 1zm158.4-.4c0-.7 0-1 .2-.7.2.3 0 1.6-.1 1.6l-.1-1zm99.3.6c-.4-1 0-2.6.6-2.6.4 0 .4 1.5 0 2.4-.3.5-.4.5-.6.2zm7.3 0c-.2-.3-.3-.7-.1-1.2l.3-3.7c0-2.5.1-3 .5-3s.4.3.2 2l-.2 4c0 2.1-.2 2.5-.7 1.9zM80.9 55c-.2-.3.4-1 .8-1 .2 0 .3.2.2.6 0 .7-.6 1-1 .4zm-11-.8c-.2-1.2 0-4.1.4-4.4l.2-1.8c0-1.2.1-1.7.4-2 .4-.3.5-.3.3.6a60.3 60.3 0 0 0-1 7.4l-.1 1.2zm176.4 0c-.1-.5.3-1 2.3-3.1l4.4-4.7c2.6-2.9 7.5-7.5 8-7.5.6 0 .5.8-.2 1.7-.4.6-2.7 3-5.1 5.3a109.9 109.9 0 0 0-7 7.3c-1.3 1.6-2 2-2.4 1zm141.2-.9c0-.2.1-.4.3-.5.2 0 .2-.5 0-1.5v-2.2a46.8 46.8 0 0 0 .7-9.2l.4-.2c.3 0 .4.3.4 1.1 0 .7 0 1.2-.2 1.3 0 .1-.2 2.1-.2 4.5a28.6 28.6 0 0 1-.6 5.8c0 .3-.2.7-.4 1-.4.3-.4.3-.4 0zm-200.3-1c-.5-1.6-.3-2 .4-1.1l.8 1.5c.1.6 0 .7-.4.7s-.6-.2-.8-1zm275.2.3c-.2-.4-.2-.7 0-.9l.3-.8.1.9c0 1.5 0 1.7-.4.8zm-240.6-.4a25 25 0 0 1 .5-6.7c.3-.3.3.4.3 3.5 0 3.2 0 4-.3 4s-.5-.4-.5-.8zm-102.6-.5v-1.3c.2-.5.2-.5.3 0v1.3l-.2.8zm88.4 0c0-.3 0-.4.1-.2v.5l-.1-.3zm-79.6-.3c0-.5.6-.6.7 0 0 .3-.1.4-.4.4-.2 0-.4-.1-.3-.4zm75.2-.3c-.3-.5.1-1.3 1-2 .6-.4 1-.8 1-1l.6-1.2 1-2c.2-.8.3-.9 1-.8.9 0 1 0 2.5-2 1-1 1.9-2.3 2.2-2.8.7-1 2.6-2.3 3.3-2.3.3 0 .5-.1.5-.3 0-.6-2.4-1.3-4.7-1.3-1.2 0-2.5 0-3-.2s-.9-.2-1.3 0c-.6.3-2.8.1-3.5-.3-.3-.2-.3-.3 0-.7.5-.8 1.8-1 7.4-.6a38.6 38.6 0 0 0 8.3-.2c2 0 2.4 0 2.5.4.1.2 0 .6-.3.8a34579.3 34579.3 0 0 0-5.4 4.3c-1.1 1.2-1.3 1.5-1.2 2.2.1.7.1.8-.1.2-.4-.7-.3-.7-3 1.8a34.8 34.8 0 0 1-2.5 2.2l-.4.5c0 .2-.7 1-1.6 2-1 .8-2 2-2.5 2.5-.8 1-1.5 1.3-1.8.8zm248.4-.4a3845 3845 0 0 0 .4-7c.4-4.5.4-4.8.9-4.3.2.2.3 1 .2 2.5a82 82 0 0 1-.7 9c-.2.6-.6.5-.8-.2zm-159.7 0c-.4-1 0-6.6.6-8.2.2-.5.4-.6.6-.4.3.1.3.6.2 1.5-.2.7-.3 2.4-.3 4 0 2.8-.1 3.5-.6 3.5-.2 0-.5-.2-.5-.5zm15.6-.2c-.3-1-.1-5.7.2-5.6.3 0 .4 2.9.1 4.8-.1 1.2-.2 1.4-.3.8zm-257.2 0c-.3-.3 0-2.8.5-3.9.4-1 1-1 1.1-.1.1.6-1.4 4.4-1.6 4zm49.8 0 .3-.2c.2 0 .2 0 .1.2 0 .2-.2.3-.2.3-.1 0-.2-.1-.2-.3zm114.4-.6c0-.5 0-.6.1-.4v.8l-.1-.4zm-127.6-.1c-.5-.5-.5-.5-.3-6.2.3-5.7.5-7.3.8-7.5.5-.3.6.8.3 2.8-.2 1.2-.3 2.5-.2 3l-.1 3.3v2.7c.2.6.2.6 1.3-.8l.6-.7v.6c0 .7-.9 2.5-1.4 3-.3.2-.5.2-1-.2zm159.1 0V49c.3-.5 2-2.5 3.5-4a75.3 75.3 0 0 0 6.3-7.1c.7-.9 1.4-1.6 1.6-1.6.5 0 1.6-1.2 1.4-1.7 0-.2-.5-.4-.9-.4-.6 0-.6 0-.2-.2.3 0 .6-.2.8-.3.1-.2.5-.3.8-.3 1 0 2.4-.7 2.6-1.3.1-.3.3-.5.5-.5l.6-.4c.3-.3.3-.4-.2-.6-1-.2 1.7-.7 3.3-.5 1.2.2 1.8.7.7.7-.3 0-.5 0-.5.2s-.3.3-.6.4a101.5 101.5 0 0 0 13.2-.1c-2.2-.3-2.5-.4-2.2-.7.2-.2 7-.2 16.4 0 3 .2 6.2.2 7.2.2 2.4 0 2.7.2 2 1.4-.5.6-1 1-1.6 1.2-.6.2-3.7.3-7.3.3a65 65 0 0 0-9.3.2l-9-.4c-7-.3-7.4-.3-8.4.2-.5.3-1.5.5-2.2.5-1.6 0-2.5.6-4.6 2.8l-3.1 3c-2 1.7-7.6 7.6-8.7 9-1 1.1-1.9 1.6-2.1 1zm216.6-2.7c0-2.1.1-3 .4-3.2.8-.6.8 2.7 0 5-.3 1-.4.8-.4-1.8zm-405.8.4c.2-2 .4-2.6.8-2.5.2.1.3.6.3 1.3-.2 2.2-.4 2.9-.8 2.9s-.4-.2-.3-1.7zm71.5 0v-.9 1.9-1zm343.3.6c0-.6.1-1.3.3-1.5.4-.8.5-.1.1 1.3l-.3 1.4v-1.2zM214.4 46c0-2.2.1-2.6.4-2.6.6 0 .6 2.6 0 4-.3 1.1-.3 1.1-.4-1.4zm-132.7.4.4-2.7c.1-1 .1-1 .4-.3.3 1 0 4.4-.6 4.6-.3.1-.3-.1-.2-1.6zm217.3 1v-1.2l.3-.8.1.9c.3 1-.1 2-.4 1.2zM65.2 46.2c0-.8.2-2.2.4-3l.7-3.3c.1-1 .4-2.1.6-2.4.3-.4.4-.9.4-1.2 0-1 .4-.4.4.7.1 1 0 1.5-.9 5a54.4 54.4 0 0 0-1.3 5.2c-.2.5-.3.4-.3-1zm109.5 1.2c-.2-.4 0-2.5.2-3.6 0-.3.3-.6.4-.6.2 0 .3.4.1 1.4a16 16 0 0 0-.1 2.1c0 .8-.4 1.2-.6.7zm140.3-.6c0-.4 0-.6.2-.3v.8c-.1.1-.2 0-.2-.5zm-84.1-1c0-1.3 0-1.4.2-.5.2.5.2 1 0 1.3-.2.3-.2.1-.2-.9zm-50.4-.1c-.2-.3.1-2 .3-2 .3 0 .3 1.9 0 2h-.3zm298.9-1c-.1-.4 0-1.2.1-1.8l1-3.9c0-.7.3-1 .5-.7l-.1 1.3c-.2.6-.4 1.8-.4 2.7l-.1 2.3c0 1-.8 1-1 0zm-368.8-.4c-.2-1 0-2.1.4-1.6.3.5.3 1.6 0 2-.2.3-.3.2-.4-.4zm361.4.4c-.2-.6-.2-2.1 0-2.7.1-.2.4-.4.6-.4.3 0 .4.3.2 1.4 0 .7-.2 1.5-.3 1.7-.3.4-.3.4-.5 0zm-333.9-.4v-.5c.2-.2.5.1.3.5 0 .3-.1.3-.3 0zm29.2-1.4c0-.4.2-.8.5-1 .3-.3.4-.3.3.5-.1 1-.8 1.5-.8.5zm64-.6c-.2-1.5 0-2.8.5-2.8.4 0 .4.2 0 2.3l-.3 1.5-.2-1zm83.8-.3v-.6 1.4-.8zm7.8.8c0-.3.1-.4.2-.2v.5c-.1.1-.2 0-.2-.3zm6.3 0c-.3-1-.5-3-.3-3.5 0-.3.3-.6.5-.6.4 0 .4.4.3 2.1-.1 2.2-.3 2.8-.5 2zm-236.3 0c-.3-.5-.4-1.7-.3-2 .1-.4.3-.4.5-.2.6.4 1.3 0 1.8-1 .3-.6.8-1 1.5-1.3 1.8-.8 2.3-1.6 1.6-3.1-.2-.4-.2-.9-.1-1.1.1-.4.2-.4.9.2.4.4 1 .7 1.4.7 1 0 1 .4-.2 1.6-.8 1-1 1.2-.8 2 .3 1.2-.2 1.8-1.3 1.6-.8-.2-1 0-2.3 1.3-1.4 1.3-2.4 1.8-2.7 1.3zm102-.8c0-.6 0-.9.4-.9.2 0 .3.3.3 1 0 .6 0 .9-.3.9s-.4-.3-.4-1zm-19.6 0c0-.3 0-.4.2-.2v.6c-.2 0-.2-.1-.2-.4zm-65.5-2.3c.3-1 1-1.8 1.5-1.8.6 0 .6.3 0 1.5-.2.7-.4 1-1 1s-.7-.2-.5-.7zm333.5-.5c0-.5.1-1 .3-1l.2 1c0 .6 0 1.1-.2 1.1s-.3-.5-.3-1zm-306.1-.4c0-.3 0-.3.2-.1v.5c-.2 0-.2 0-.2-.4zm240.4-.5h.5l-.3.1c-.3 0-.4 0-.2-.1zM82.7 33.8c0-1 0-1.2-.7-1.5l-.8-.4 1.2-.2c.6-.2 1.6-.2 2-.1l1 .2-1 .6c-.6.5-1 .9-1 1.3 0 .3-.1.8-.4 1-.3.3-.4.2-.3-.9zm157.5.3a152.6 152.6 0 0 0 9.3-.7c1.5-.1 1.7 0 1.7.3s-.3.4-1 .4a710.4 710.4 0 0 0-10 0zm-7.2-.2h.8c.2.1 0 .2-.4.2-.5 0-.6-.1-.4-.2zm4.1 0h.5c.1.1 0 .2-.3.2s-.4 0-.2-.2zm68.4-.6c-.8-.2-1.2-.5-1.3-1 0-.3-.4-.6-.6-.7-1.3-.4-.3-.7 2.4-.7 3 0 3.7.2 3.7.7 0 .2.2.4.5.4.6 0 .7 1 .1 1.2-.8.3-3.7.3-4.8 0zm8.5 0c-1.6-.4-2.9-1.5-2.3-2.1.4-.4 4.5-.8 5.6-.7 1 .2 1 .5.5 1.9-.4.7-.6 1-1.2 1H314zM103 33c0-.3-.3-.7-.4-1-.2-.3-.2-.6 0-.7l2.8-.5c2.4-.3 2.6-.3 3 .1.4.6.1 1.2-.7 1.4-.4 0-1.4.4-2.3.6-2 .6-2.2.6-2.4 0zm-40.9 0c-1.9-.3-1.2-.6 1.4-.7a24 24 0 0 1 6 .2 40.4 40.4 0 0 1-7.4.5zm35-.5c-.5-.4-.8-.4-1.9-.2-1.6.4-3.1 0-2.6-.7.6-.7 2-1 4.3-1h2.7c.6.2.6.3-.4 1.3-1 1.1-1.2 1.2-2 .6zM71 32.3c0-.2.3-.3.5-.3s.5.1.6.3c0 .1-.2.2-.6.2-.4 0-.6 0-.5-.2zm66.6-.5c-.2-.4-2.2-.8-4.5-.8-1.3 0-1.4-.1-1.1-.5.2-.3 1-.3 3.4-.3l3.6.1c.4.2.6 1 .2 1-.1 0-.5.1-.8.4-.4.4-.5.5-.8.1zm-50.6 0h.5c0 .1-.1.2-.4.2-.3 0-.4 0-.1-.2zm233.7-.5c-1.4-.3-.4-.6 1.7-.6 1.8 0 2.2 0 2.2.4 0 .3-.3.4-1.7.3l-2.2-.1zm-192.5-.4c-1-.7 0-1.3 1.6-.8.7.1.8.8 0 .8a3 3 0 0 0-.8.2c-.2 0-.6 0-.8-.2zm140-.2c0-.5.2-.5 1.2-.5.7 0 1.2 0 1.2.2s-.2.3-.5.3-.5.1-.5.2c0 .2-.3.3-.7.3-.5 0-.7-.1-.7-.5zm4.6.1-.3-.5 2-.1c1.1 0 2 0 2 .2s-.4.3-.8.3l-1 .2c-.2.4-1.5.3-1.9 0zm-127 0c.3-.1.6-.1.8 0h-.8zm5-.1c0-.2.1-.3.4-.3.2 0 .4.1.4.3l-.4.2c-.3 0-.4 0-.4-.2zm12.9-.5h.5c0 .1 0 .2-.4.2-.3 0-.3 0-.1-.2zm350.7 0c0-.3-.7-.3-1.8-.2h-3c-1.2-.2-1.2-.2-.6-.5 1-.6 2.8-.8 3.5-.4.4.2 1.6.4 3 .4 2.3 0 3 .2 2.8.5l-2 .3c-1.1.1-1.7 0-1.9-.1zm6.3 0c0-.4.9-.4 1.8 0 .5.1.4.2-.6.2-.7 0-1.2-.1-1.2-.2zm3.5 0h.8c.1.1 0 .2-.5.2-.4 0-.6-.1-.3-.2zm2 0h.5c0 .1-.1.2-.4.2-.3 0-.3 0-.1-.2zM188.5 29c-1-1.1-.9-1.2 2.8-1h15.2c11.3.1 13.7.2 13.2.7 0 0-2.9.2-6.2.2a1644.5 1644.5 0 0 0-23.5.8c-.4.2-.8 0-1.5-.7zm312.5.6c0-.3.2-.3 2.8-.3 3.3.1 3.3.6 0 .6-1.7 0-2.8-.1-2.8-.3zm-12-.2c-.1-.1 0-.3.1-.4.6-.2 4.7.1 4.7.4 0 .3-4.7.3-4.8 0zm-51-.4-.6-.4h.6c.9-.2 14.9 0 15 0 .4.5-2.3.7-5 .6a92.6 92.6 0 0 0-10-.2zm18.9.2c-.6-.3-.4-.6.4-.6 1.3 0 3.2.3 3.2.5 0 .3-3 .3-3.6 0zm5-.1c0-.2.6-.3 1.4-.3.8 0 1.4.1 1.4.3 0 .1-.6.3-1.4.3-.8 0-1.5-.2-1.5-.3zm5.3 0c.3-.3 1.7-.6 2.3-.4 1 .3.5.7-1 .7-.8 0-1.4-.1-1.3-.3zm9.8 0c.7-.2 1.2-.2 1.6 0 .4.2.3.2-1 .2-1.6 0-1.6 0-.6-.3zm7.1 0h1.3c.4.1 0 .2-.7.2s-1 0-.6-.1zm-48.6-.3c-.1-.1.1-.2.6-.2.6 0 .6 0 .3.2-.5.4-.7.4-1 0zm-214.6-.1c-.7-.3-.4-.7.5-.7 1 0 1.3.4.6.7h-1.1zm4.6-.2-.9-.3.8-.2c1-.3 5-.3 8.3 0l2.6.1-1.6.3c-2.8.3-8.2.4-9.2.1zM183 28c0-.3 1-.3 2.6 0 1 .2.9.2-.8.3-1 0-1.8-.1-1.8-.3zm56.4 0c.5-.3 1.6-.3 1.6 0 0 .2-.5.3-1 .3-.7 0-.9 0-.6-.3zm-65.2-.2-3.6-.5-1-.2 1.4-.2c.8 0 2.1 0 3.1.2 1.3.3 2 .3 2.7.1.6-.2 1.1-.2 1.5 0 .2.2 1 .3 1.4.3.5 0 1 .1 1 .3 0 .3-2.4.3-6.5 0zm71.8 0c0-.2.7-.3 1.5-.3s1.4.1 1.4.3c0 .1-.6.2-1.4.2-.8 0-1.5 0-1.5-.2zm7.7 0c-.5-.3 1.7-.6 3-.4 1 .1 1.4 0 2.2-.4.7-.4 1.5-.6 4-.7 3.4-.2 4.6 0 4.6 1 0 .4-.3.4-2.4.6-3.2.2-11 .1-11.4-.1zM165 26.4c0-.3.8-.3 2 0 .6.2.5.3-.7.3-.7 0-1.3-.1-1.3-.3zm-2.2-.2c-.5-.2-.5-.2.4-.3.5 0 1 .1 1 .3 0 .3-.4.3-1.4 0zm-8.7-1c-.4-.4-.3-.4 2.7 0l2.2.4h-2.3c-1.7 0-2.3 0-2.6-.3zm-4-.6c-.2-.2-.2-.2 0-.3.6-.2 1.9 0 1.7.3-.1.3-1.2.3-1.6 0zm115.7-1.4c-.3-.3-.1-.4 1-.6a357.2 357.2 0 0 0 3.7-.2c0 .3-1.7.8-3.3 1-.8.1-1.2 0-1.4-.2zm7-.4c-.9 0-1.5-.2-1.5-.3 0-.4 4.4-.6 8.7-.4 4 .1 5.6.3 3 .4a264.8 264.8 0 0 0-10.3.3zm13.6-.6c0-.1.8-.3 1.9-.3 1 0 1.8.2 1.8.3 0 .2-.8.3-1.8.3-1.1 0-1.9-.1-1.9-.3zm4-.1c0-.5.3-.5 1.5-.2 1.2.2 1 .6-.3.6-1 0-1.2-.1-1.2-.4zm2.6-.2.4-.2.4.2c0 .2-.2.3-.4.3s-.4-.1-.4-.3zm6.3-.1h1-1zm3 0c.3-.1.7-.1.8 0l-.4.1c-.5 0-.6 0-.4-.1zm59.5-.1-4.8-.3c-2.3 0-4.2 0-4.2-.2 0-.3 3-.6 4-.3.4.1 2.2.2 4 .1 3.1 0 3.9.1 3.5.7-.2.3-1.5.3-2.5 0zm-48.4-.2c-.5-.4.8-.6 1.9-.4.8.2.8.2.2.3-1 .3-1.7.3-2 0zm62.1 0-1.2-.5-1-.4h1.8c1.1 0 1.8.1 2 .4.2.2.2.4.1.5-.2.2-1.5.2-1.7 0zm-57.8-.3h.8c.2.1 0 .2-.5.2-.4 0-.6-.1-.3-.2zm2 0c.2-.4 1.6-.5 5.3-.5 4 0 4.9 0 4.6.2-.2.3-1.8.4-5.3.5-4.2 0-4.9 0-4.6-.3zm12.8 0c-.5 0-.9-.2-.9-.3 0-.4 3.3-.6 4.3-.3l.9.2-1 .3c-1.1.3-1.6.3-3.3.1zm16.6 0h-5.3c-2.9 0-5.3-.2-5.5-.3a51 51 0 0 1 14.2.2c0 .2-.4.3-1.6.3l-1.8-.1zm69-4.2c-.8-.1-1.3-.3-1.3-.5.1-.1 1.8-.2 4.4-.2 3.8 0 4.7.1 4.3.5-.2.2-5.8.3-7.3.2zm11.2 0c.3-.2 2-.2 4.2-.1l3.8.2h-4.2c-2.7 0-4 0-3.8-.2zm11 0h1.9c.5 0 .1.1-.9.1s-1.5 0-1-.1zm3.5 0h1l-.6.1c-.6 0-.8 0-.4-.1zm5.1 0h2c.6 0 .1.1-1 .1-1 0-1.5 0-1-.1zm5.8-.1c.1-.3.8-.4 2.8-.4 3.2-.1 2.8.3-.6.6-1.9.1-2.3.1-2.2-.2zm-58.5-.8.4-.2c.2 0 .4 0 .4.2s-.2.3-.4.3-.4-.1-.4-.3zm-19-.4c0-.3.3-.4 1.1-.4 1.2 0 1.6.4.8.7-.8.3-2 .1-2-.3zm9.5.2c0-.3 2-.3 2.9 0 .5.1.2.2-1.1.2-1 0-1.8 0-1.8-.2zm-43.9-.2c-.8-.2-.7-.6.2-.8 1.6-.4 14.1-.1 14.6.4.3.2-.2.3-2 .3a615.3 615.3 0 0 0-12.8 0zm18.5 0c-1.3-.4.2-.6 4.2-.6 3.7 0 5.1.2 4.1.6-.6.2-7.5.2-8.3 0zm10.7 0c0-.2 0-.4.3-.5.6-.2 3 .1 3 .4 0 .3-3.1.3-3.3 0zm120.2-.2-3-.2c-1.3 0-2.3 0-2.4-.2-.1-.3 3.4-.5 6.2-.4 6 .2 7.2.3 7.5.6.4.3.3.3-4.4.4-1.8 0-3.5 0-3.9-.2zm-166.8-.1c-1 0-1.7-.2-1.7-.3 0-.1 1.2-.3 2.6-.4 2.8-.2 6 0 5.3.4-.4.2-4 .4-6.2.3zm8.6 0-1.2-.4c-.2-.3 2.9-.5 5.7-.4 2.6.1 3.2.3 2.8.7-.2.2-6 .3-7.3 0zm147-.4c-1-.1-1.7-.4-1.7-.5 0-.3 4.3-.2 4.7.1.3.2.3.3 0 .5-.4.3-.5.3-3-.1zm-11.8-.5c-.6-.1-.6-.1-.1-.3.8-.2 5-.2 5.4 0 .3.2.3.3-.1.4-.7.2-4.3.1-5.2 0zm7 0c0-.1.3-.2.8-.2l1 .2c0 .2-.4.3-.8.3s-.9-.1-1-.3zm-15.2-.4c-1.4-.3-1.4-.3 2-.3 3 0 4 .2 2.9.6-.7.2-3.3.1-4.9-.3zm-5.4-.4c.2-.2.7-.2 1.6 0l1.3.3H457c-1 0-1.5 0-1.3-.3zm-7.4-.2c-.2-.3 1.1-.5 2-.4.4.1.7.3.6.4-.2.3-2.4.3-2.6 0zm-16-.3c0-.1.6-.2 1.4-.2.8 0 1.5 0 1.5.2s-.7.3-1.5.3-1.4-.1-1.4-.3zm11 0h2.8c.8.1 0 .2-1.5.2-1.6 0-2.2 0-1.4-.1zM163 12c-1.4 0-1.7-.1-1.7-.4 0-.4.6-.4 4.5-.4l12.5-.1a1008.5 1008.5 0 0 1 61.4.8c-.3.3-16.4.3-24.5 0a698.3 698.3 0 0 0-37.5 0c-8 .2-12.7.2-14.7.1zm82 0c-1.4 0-1.8-.3-1.2-.7l12-.3c13.8-.2 13.5-.2 15 0 1.7 0 7.7-.3 8.3-.6.6-.2 4.8-.7 9.5-1 3.6-.3 7.4-.8 9.1-1.1 1.4-.3 2.5-.3 2.5 0s-.7.5-3 .6a92 92 0 0 0-7.5 1 70.3 70.3 0 0 1-12.7 1.4c-1 .3-2.6.4-8.2.4a454.3 454.3 0 0 0-20.6.3H245zm-91.2-.3c-2.7-.2-4.1-.5-2.4-.5h7.9l.8.2-.8.3c-.8.3-1.1.3-5.5 0zM301.7 8c.5-.5 10.8-1.3 10.5-.8l-.6.3c-.3 0-1.8 0-3.5.2-6.3.7-6.8.7-6.4.3zm12.4-.7c-.3-.5.8-.9 2-.8.8 0 1.1.2 1.1.5s-.4.4-1.5.4l-1.6-.1zm87-3.4c-.4-.5 0-.6 2.2-.6 1.5 0 2.2 0 1.9.2-.6.4-3.8.7-4 .4zm6.2-.3c-.5-.2-.4-.3.6-.4l2.5-.2c1.2 0 1.7.4 1 .6-.6.2-3.2.2-4 0zm6.4 0c-.3 0-.6-.2-.6-.3 0-.6 2.4-.8 8.7-.8 7 0 9.3.4 3.6.6a232.8 232.8 0 0 0-11.7.5zm15.8-1c0-.3.4-.4 1.3-.4A14182 14182 0 0 0 443 2c0 .2-9.2.8-12 .8-1.1 0-1.5 0-1.5-.4zm58.2.2a54 54 0 0 1-3.5-.8l-.8-.1.8-.2 2.5-.3c1.9 0 2.8.4 2.6 1.2-.2.4-.3.4-1.6.2zm-136.1-.5c-.5 0-1-.2-1-.3 0-.4 3.3-.7 6.1-.4 2.7.2 2.8.2 1.5.4-1.7.3-5.5.4-6.6.3zm91.7 0c0-.4 2.1-.4 2.6 0 .3 0 0 .2-1 .2s-1.6-.1-1.6-.3zm4.8-.2c0-.3.2-.4.9-.4 1 0 1.2.3.5.6s-1.4.2-1.4-.2zm-128-.2c-1.8-.2-.9-.6 1.4-.5H336c1.4 0 5.8.4 5 .5-1.2.2-19.5.2-20.9 0zm23.2 0c0-.1.4-.2 1-.2l.8.2c0 .2-.4.3-.9.3s-1-.1-1-.3zm2.1 0c0-.1.3-.2.7-.2.4 0 .6 0 .5.2-.1.2-.4.3-.7.3-.3 0-.5-.1-.5-.3zm18.8 0c-.3-.1-.2-.2.3-.4.9-.2 1.5.1 1 .5-.5.3-.8.3-1.3 0zm30 0-1.6-.6c-.3-.3 1.1-.4 3.2-.4 2 .1 2.1.2 2.1.6 0 .5-.2.6-1 .6-.6 0-1.8-.1-2.6-.3zM348 1.6h1-1zm13.2 0h1-1zm10.7-.3c0-.4.2-.4.9-.2.6.3.5.6-.3.6-.4 0-.6-.1-.6-.4zm91.6.2c.1-.2.3-.2.5-.1.3.2.3.3-.2.3-.2 0-.3 0-.3-.2zm11.5 0h1c.3.1 0 .2-.6.2-.5 0-.7 0-.4-.1zm5.4 0h1.3c.4.1 0 .2-.7.2s-1 0-.6-.1zM275 1.5c-.8-.2-.6-.9.3-.9.7 0 2.3.5 2 .6-.1.2-1.9.4-2.3.3zm23.8 0c-2.3-.2-1.6-.6.8-.6 2.3 0 3.4.2 2.9.5-.4.3-.7.3-3.7 0zm5-.1c-.2-.2.4-.2 1.8-.2 1.1 0 2 0 1.9.1-.3.3-3.2.4-3.7.1zm78.6 0c0-.1 1-.2 2.6-.2 2.5 0 2.5 0 1 .2-2.3.3-3.6.3-3.6 0zM251.3 1c-.7-.1-1-.4-1-.5.3-.2 2.8-.2 3.4.1.5.2.5.2-.2.5l-1 .3-1.2-.4zm17.4 0c0-.3.3-.4 1.2-.4.8 0 1.2.1 1.2.4 0 .3-.4.4-1.2.4-1 0-1.2 0-1.2-.4zm12.7 0c0-.4.2-.4 1.5-.3 2.2.3 2.4.7.2.7-1.4 0-1.7 0-1.7-.4zm9.6.1c.2-.3 4.3-.3 5 0 .4.2-.4.3-2.3.3-1.8 0-2.8 0-2.7-.3zM277.8.8c0-.2 0-.3.3-.3.2 0 .3.1.2.3l-.2.2s-.2 0-.3-.2zm-34-.5c0-.3.2-.4 1.8-.2 2.6.2 2.7.7.2.7-1.7 0-2 0-2-.5z"/>
</svg>
