<?xml version="1.0" encoding="utf-8"?>
<svg xmlns="http://www.w3.org/2000/svg" xmlns:svg="http://www.w3.org/2000/svg" version="1.1" viewBox="0 0 157 133">
  <title>Mr. Bouncer is crouching to the side of his wicker chair, while Flopsy walks off with his pipe and tobacco.</title>
  <path d="M52.2 132.8c0-.1-9.5-.3-20.9-.3a1499.5 1499.5 0 0 1-26.7-.4c-1.6 0-2.2 0-2.9-.6-.8-.5-1-.7-1-2.3-.8-6.4-1-47-.3-55 .2-3.3.3-11.1.4-26.5 0-12 .1-22 .2-22.1a43.8 43.8 0 0 1-.5-14.2 48 48 0 0 1 1-9.7c0-1.6 3.2-2 16-1.6 5.4.2 21.3.4 35.4.4a8571.7 8571.7 0 0 1 43.7 0c2.7-.1 6.3 0 9.1.1 2.6.2 10 .4 16.7.4l14.5.3c1.4.2 5 .2 8.1.2h7.6c2 .3 2 .3 2.5 1.2 1 2.3 1.2 5.6 1 15.9 0 5.8 0 10.3.2 11 .3 1.3.3.9 0 10-.2 5.5-.2 9.6 0 15.4a285.5 285.5 0 0 1 .1 20.1 69407.6 69407.6 0 0 0 .4 46.2c0 6.4 0 7.1-.6 8.1l-.5 1.5c0 .5-.7.8-1.1.5a568.4 568.4 0 0 0-38.4.3 14242.1 14242.1 0 0 0-47.2 1h-5.7a29 29 0 0 0-7.3 0c-2 .2-3.7.2-3.8 0zm-16-3.5c1-.3 1.6-.3 3.5 0l5.7.2h3.3L47 129a74.4 74.4 0 0 0-9.7-1.4l-.8.1c-.2.1-1.5.3-2.9.3a38.6 38.6 0 0 0-8.8 1.4c-.1.2 1.7.3 5 .3 3.9 0 5.4-.1 6.3-.5zm25.9-.2c2.1 0 2.2-.4.1-.5H60c-.4 0-.7.1-.7.5-.1.4 0 .4.6.3l2.3-.3zm-39.6-.7a64 64 0 0 1 12-2.1c1.1 0 2.8 0 3.8.2 2 .2 2.2 0 1.5-1-.3-.4-.7-.5-2.7-.3l-6.5.6c-5.5.3-9.2.7-15.5 1.4l-5.2.5-.5-.6c-.3-.3-.5-.8-.5-1 0-.3-.4-.8-.8-1-.7-.6-.7-.7-.2-1 .4-.3 1.1-.4 2.1-.4 1.6 0 1.6 0 .9-.4-.5-.2-1-.5-1.2-.8-.2-.2-.5-.4-.8-.4-.2 0-1.2-.4-2.2-1-1.8-.9-4-1.5-4-1.1l.5 3c.3 2.3.6 3.1 1 3.8.8 1 1.3 1.2 4.3 1.9s11.6.5 14-.3zm83.3.4c.8-.3.4-.6-.6-.5-1.4.3-2 .6-.8.6l1.4-.1zm-15.5-.3c-.8-.7-5.4-1.5-10.3-1.8-1.8 0-4.9-.3-6.9-.4-4.6-.3-5.6 0-1.9.6A93.7 93.7 0 0 0 84 128c-.1-.4 0-.4 1.2-.3.8 0 2.2.3 3.1.5 2.1.5 2.3.5 2 .3zm8.3-.5c2-.4 4-1.2 4-1.7 0-.4-.1-.4-4.1.7l-4.6 1a3 3 0 0 0-1.6.3c-.4.4-.3.4 1.9.3a42 42 0 0 0 4.4-.6zm18 .3c.5-.5-3.2-.8-4.2-.4-.5.2-.9.5-.9.6 0 .2 4.8 0 5-.2zm-59-.4c0-.5 2.3-1 5.4-1.2 1.8-.1 3.3-.3 3.3-.4 0-.4-.9-.5-3.6-.4a18 18 0 0 0-7.3 1.2c-1 .7-1 .7-2.6-.1-.8-.4-1.8-.7-2.3-.7l-2-.4c-1-.4-1.2-.4-2.8 0l-2.8.4c-1.1 0-1.5.4-.6.6l4.6.5 6.2.5c3.2.3 4.5.3 4.5 0zm93.5-.5c.7-.2 0-.2-2.5-.3-2.8 0-3.5 0-3.5.4 0 .3.5.3 2.5.2 1.3 0 2.9-.2 3.5-.3zm-18.7 0c0-.1-.2-.3-.6-.4a20 20 0 0 0-5.7 0c0 .4 1 .5 4.1.6 1.3 0 2.2 0 2.2-.2zm-11.6-.6c0-.1-.3-.2-.7-.2l-.6.2c0 .2.3.3.6.3.4 0 .7-.1.7-.3zm21.7-.4c0-.6 0-.6 1-.4 1.8.3 9.5.2 9.8 0 .3-.3.8-4.9.6-5.1l-.6.4c-.4.4-1.1.5-9 .5-8.5 0-10-.1-11-1-.4-.2-1.6-.3-4.9-.3-5.9 0-7.1-.3-7.7-2 0-.2-2.4.5-3 1-.3.3-.1.4.9.6l2 .3 3.8.5a123.7 123.7 0 0 0 9.8 1.2 89 89 0 0 0 15.8.4c3.2-.2 3.3-.2 3.3.3s-.3.5-3 .7a92 92 0 0 1-6 .2c-2.2 0-2.6 0-2 .3.5.1 3 .3 5.7.3 4.3 0 5 .1 5 .5 0 .2-.1.5-.4.5-.6.2-7.8 0-9.7-.2-1.2-.2-1.6-.1-2 .3-.3.3-.5.8-.5 1.1 0 .6 0 .6 1 .6 1-.1 1.2-.2 1.1-.7zm-45.7-.1.8-.3-.6-.2c-.9-.3-2.6-.3-3.4-.1-.4 0-.6.3-.6.7 0 .5.1.5 1.5.4.9-.1 2-.3 2.3-.5zm-79.2-.4 2-.4.4-.2c0-.4-.7-.4-1.4 0-.3.1-2.2.4-4.1.4-2.5.2-3.6.3-3.7.5-.1.5 4.7.2 6.8-.3zm69.9-.2c-.2-.2-.9-.5-1.6-.6-1.9-.3-12.6-.3-13 0a74.7 74.7 0 0 1 13.9 1c.8 0 1-.1.7-.4zm20.3 0 3.8.2c3.4.1 3.8 0 1.1-.6l-4.6-1.3c-4-1.2-6.4-1.6-8-1.2-4.3 1.2-5.2 1.5-5.2 1.7 0 .1 1.7.2 3.8.2 3.7 0 5.3.3 5.8 1.1.2.2.6.2 1.4.1l2-.2zm21.4.2c-.2-.2-4-.9-6.7-1.2a120 120 0 0 1-7-.7H114l2.4.5c1.3.2 2.4.6 2.6.7.7.4 4 .8 7 .8h3.2zm9-.4c0-.6-.8-1.3-1.6-1.3a3 3 0 0 1-1.3-.4c-.4-.2-1.6-.4-3.4-.5-3.5-.2-3 .3.7.7 1.8.2 2.5.4 2.5.6 0 .2-.2.5-.4.6-.9.3 0 .6 1.7.6 1.2 0 1.9-.1 1.9-.3zm-117-.4a1 1 0 0 0-.8 0l.4.1c.3 0 .5 0 .3-.1zm1.4 0H22c-.3 0-.2.1.1.1l.4-.1zm29-.6a8 8 0 0 0-1.7-.7l-1.7-.6c-.6-.3-5.3-1.9-5.5-1.7 0 0 0 .3.3.6.5 1 0 1.3-1.8 1.1-1 0-1.6 0-1.8.2 0 .2-.1.3 0 .4l2.6.2c2.4.2 2.6.2 2.6-.3 0-1 .7-.9 3.8.5 1 .5 3.6.7 3.2.3zm-20.4-.4c4.2-.6 5.2-.8 5-.9 0-.1-3.2-.8-3.8-.8-.3 0-.5.2-.6.5-.1.6-1.2.7-1.2.1 0-.7-.5-.7-1.1 0l-1.3 1c-.8.6-.7.6 3 0zm58.7-1.3c1.8-1.6 2.2-2.6 2-5.2-.4-3 .2-2.7-5.5-2.6l-5.8-.1c-1-.1-1 0-1 1v3.7l.2 2.7 1.1.5c1.1.5 1.7.7 4.3 1.1 2.9.5 3.1.4 4.7-1zm-6.1-.8c-.3-.3-.3-.5 0-.6.4-.3 1.6.1 1.5.5-.2.5-1.2.5-1.5 0zm-.5-1.7c-.5 0-.9-.3-.9-.5 0-.3.4-.4 2-.3 1.8 0 2.6.5 1.4.8-.6.2-1 .2-2.5 0zm-.5-1.6c-.4 0-.6-.3-.6-.5s.4-.3 2.1-.2c1.7 0 2.2.2 2.2.4 0 .4-2.5.6-3.7.3zm2-1.6c-2.2 0-2.9-.2-2.9-.7 0-.3.4-.4 2.3-.3 2.6.2 3 .3 3 .7 0 .3-.5.4-2.4.3zm-58.4 6c1 0 .3-.6-.9-.8a155 155 0 0 0-13-.3l7.6 1.4a26.3 26.3 0 0 0 6.3-.2zm27 .3c.1-.1 1.3-.2 3 0 2.8 0 3 0 4.7-.7 1-.5 1.7-1 1.7-1.1 0-.5-2-.4-2.7 0-.4.3-1.6.5-3.5.7-2.8.1-3 0-3.3-.4-.3-.5-.8-.6-2.2-.8l-3-.3c-1-.3-1.5-.2-1.3.3 0 .3 5.3 2.5 6 2.5.3 0 .6 0 .7-.2zm58.1.1-.2-.2h-.3c0 .2.1.4.3.4.1 0 .2 0 .2-.2zm10-1.2h1.7a64 64 0 0 0-10-1c-.5 0-.8.2-.8.4 0 .1 1.1.3 2.7.3 1.5 0 2.9.1 3.2.3.3.2.7.2 1 .1h2.3zm-55-2.8c.3 0 .2-.2 0-.5s-.2-.5.2-1c.5-.4.5-.5 0-.7-.5-.3-.5-1 0-1.2.4-.1.4-.2 0-.6-.3-.4-.4-.6-.1-.7.2-.1.2-.6.1-1.5-.1-1 0-1.2.2-1.4.6-.2.6-1.1 0-1.3-.2 0-1.9-.2-3.7-.1-3 0-3.3 0-2.4.3 1.3.4 1.8 1 1.3 1.6l-.8.4c-.3 0-.2.1.2.3.3.1.7.2 1 0l.6.3c.4.5-.3 1.3-1.2 1.3-.4 0-.6 0-.6.2s.2.3.4.3c.8 0 1 .5 1 1.8-.2 1.3-.1 1.4.6 1.7.5.3.9.7 1 1 0 .4.4.8.7.9.3 0 .5.3.5.6s.2 0 .4-.6.5-1 .7-1.1zm45.5 1.9h-.5c-.2 0-.2.1.1.1.3 0 .5 0 .4-.1zm-5.3-1.7c1.1-.6.8-.7-.8-.2-.9.2-2.6.3-6.2.4-1.1 0-.6.6.5.6l2.2.2c1.2.2 2.6-.1 4.3-1zm40.3.9a82.6 82.6 0 0 0-10.6.2c.9.1 10.3 0 10.6-.2zm-111.7-.2c1.2-.1 1.4-.8 1.4-5a22 22 0 0 0-.3-4.5 1 1 0 0 1 0-1c.3-.6 0-1.2-.5-.7-.5.6-7.7.6-8.4 0l-.4-.6c0-.5-.7-.3-1 .3-.2.3-.6.6-1 .8l-.7.2.7.6c.8.8 1 1.5.7 3.3-.3 1-.3 1.6 0 2 .5 1.2.7.8 1-1.6.2-2 .3-2.3.7-2.3.3 0 .6.2.6.5.2 1 .6 1 .6 0 0-.6.2-1 .5-1 .5-.3 1.1.5 1.1 1.6 0 .7.1.9.5.9.3 0 .6.1.7.3.3.4.6 3.4.5 3.8-.2.5-.9.5-1.5 0-.4-.5-.5-.5-.5 0 0 .6-.7.8-1.2.3-.5-.4-.6-.4-1.1.2-.6.6-.6.6-.1 1 1.2 1 4 1.4 7.7 1zm37.3 0s0-.2-.2-.2-.3.1-.3.3c0 .1.1.3.3.3l.2-.3zm76 .2h-.8l.4.1c.4 0 .6 0 .4-.1zM19 120c1.5 0 2-.4.5-.4-.8 0-1.1-.1-1.1-.4 0-.5.2-.6 2-.8l1.3-.2-1.2-.2c-2.2-.4-1.9-1.4.6-1.7 1.5-.2 1.6-.2 1.5-.9 0-.5-.3-.7-1-1-1.3-.2-5.3 0-6.2.5l-.7.3v2.5l.2 2.6h1.4c.8-.2 2-.3 2.7-.3zm24.5-.4.4-1.2c.4-.7.7-.9 2.1-1.2 1.7-.3 1.8-.4 1.8-1.2v-.8L44 115c-4.6-.2-4.6-.2-4.4 2.4.2 2.2.4 2.6.9 2.2.2-.2.7-.1 1.5.1 1.5.5 1.5.5 1.5 0zm19.3.2c.4-.5-3.4-1.5-5.4-1.5-5.9 0-9.7.1-9.8.4-.2.5 1.8 1 5 1l3.3.3c.1.1 6.7-.1 6.9-.2zm31 0s-.1-.2-.3-.2c-.1 0-.2.1-.2.3 0 .1 0 .2.2.2s.3 0 .3-.2zm1.7-.4c0-.5-.2-3.8-.6-6.2-.2-.8-.3-2.5-.3-3.9V107l-.9.2-4 .5-5.9.7c-5.8 1-6.8 1-7 .4-.1-.2 0-.4.7-.5l10.6-1.5c1.2-.2 2.2-.5 2.3-.7.1-.1 1.1-.6 2.2-.9 3.5-1.1 3-1.3-1.6-.5-5.8 1.1-8.7 1.6-10.6 1.8-2 .2-4 .9-4.2 1.5v1c.2.4.2 1.7 0 3.7v3.5c.2.7 1 .2.8-.5-.2-.7.9-2.6 1.8-3.2.6-.3 1.3-.4 3.3-.4 1.4 0 4.2 0 6.2-.2 4.2-.4 4.4-.3 4.4 1.2 0 1.8.4 3.8.7 3.8.1 0 .2-.9 0-2.4-.1-2.4.1-3.6.7-3.3l.2 1.3c0 .6.2 1.6.4 2.2.3.8.3 1.3.1 2.2-.3 1.3 0 3.2.3 3.2l.4-.5zm-18.3-8.3c.1-.4 1.8-.5 1.9-.1 0 .1-.4.3-1 .3-.8.1-1 0-1-.2zm7.9-.5c0-.2-.8-.2-2.4 0-2.1 0-2.4 0-2.4-.4v-.4a89 89 0 0 0 11.9-2c1.3-.2 1.4-.1 1.3.3 0 .3-.4.6-.7.6-.5 0-.6.2-.4.6.1.6.1.6-2.3 1-3 .5-5 .6-5 .3zm68.4 8.9c.3-.3 0-.4-1.6-.5-1.1-.1-1.5 0-1.5.2s.2.4.5.5c.5.2 2.4 0 2.6-.2zm-76.6-2c0-.4-.2-.6-.4-.5-.2 0-.3.7-.3 1.4l-.1 1.3.4-.8c.2-.4.4-1 .4-1.4zm69.6 2c3.7-.4 1.2-.7-7.8-.8l-12.8-.3c-3.4-.1-4.6.1-3 .5 1.3.4 20.7.8 23.6.5zM9.4 116.7c-.1-1.6 0-2 .3-2s.4.4.4 1.5c0 .9.2 1.5.4 1.5l.5.6c.1.5.2.2.4-1.2.1-1.2.3-1.7.5-1.7.3 0 .4.3.4 1.2 0 1 0 1.2.3.9.3-.5.3-3 0-3.3a23 23 0 0 0-8.8-3l-1.5-.1v.8c0 .4.2 1 .5 1.4.3.4.5 1.1.5 1.7 0 1.3.3 2.2.6 2.2.1 0 .2-.9.2-2 0-1.2.1-2 .4-2.2.5-.5.7 0 .7 2.3 0 1.4 0 2.2.2 2 .2 0 .3-.9.3-1.8 0-1.6.3-2.3.7-1.9l.2 2.4c0 1.7.1 2.1.4 2.1.3 0 .4-.3.3-1.8 0-2 .1-3 .6-3 .3 0 .4.6.4 2.6 0 1.9.1 2.8.4 3 .6.3.7-.2.7-2.2zm61.2-3.6c0-3.8 0-5.5-.2-5.6-.2 0-.5.8-.7 2.3-.3 2-.3 2.7 0 3.7.2.7.3 2.1.3 3.1 0 2.4 0 2.6.2 2.3.2-.1.3-2.7.4-5.8zm28.3 5c1-.3 1-.4 1-1.7.2-4.1.1-4.5-.2-4.8-.2-.2-.3-1.2-.3-3.7 0-2.8-.1-3.4-.4-3.4-.3 0-.5.5-.6 1.5a25.7 25.7 0 0 0 1 9c.3 1.5.2 1.8-.1 2.1-.6.6-1.2.3-1.4-.7-.1-.5-.3-1.2-.6-1.5-.3-.5-.3-.7 0-1.2.4-.5.4-1 .2-3.5a30 30 0 0 0-.4-3.4c-.3-.9-.8 1.8-.7 4 0 1.5 0 2-.3 2-.6.3-.6.6 0 1.4.4.4.6 1 .6 1.3 0 .4.3.8.5 1 .4.2.6.6.6 1.2 0 1-.1 1 1.1.4zm13.6.3h-.5c-.2 0-.1.1.2.1.2 0 .4 0 .3-.1zm3-.1c.3-.2.1-.3-.6-.3-.5 0-1 .1-1.1.3-.2.3 1.2.3 1.7 0zm38.4-.6-.4-.2a861.4 861.4 0 0 1-4.8 0c.4.3 1.1.4 3.2.5 1.2 0 2-.1 2-.3zm-79.4-1.3c0-1-.1-1.3-.3-.9-.2.5 0 2.2.2 2.2v-1.3zm58 1.1c0-.1-1.6-.3-3.5-.3-2.7-.2-3.6-.3-4.5-.7-.9-.5-1.4-.5-4.1-.4-1.7 0-3.2.1-3.3.2l.7.1a25.2 25.2 0 0 0 8.2 1 376.6 376.6 0 0 1 6.4.1zm-59.8-.2.3-4.7c.2-4.5 0-5.2-.7-5.2-.3 0-.4 1.3-.4 5 0 4.3 0 5 .3 5l.5-.1zm74.7-.1c.4 0 .4 0-.2-.2-1-.4-2-.3-2.5.1s-.4.4.8.3l1.9-.2zm-90.5-3.8c0-1.5.1-3.7.3-5a8 8 0 0 0-.1-3c-.3-.5-.6 1.9-.8 7.6 0 3 0 4 .2 3.6.2-.3.3-1.7.4-3.2zm96.2 2.8c.5 0 .8-.2.8-.4 0-.4-.4-.4-2-.4l-5.6-.4c-5-.6-6.9-.8-6.7-.6.2.2 3 .8 6.3 1.3a21.3 21.3 0 0 0 7.2.5zm-13.8-.5-.6-.6c-.5-.4-.5-.6-.2-.8.7-.4-.9-.7-4.3-.6a53 53 0 0 0-3.5.4c1.7 0 3 0 3.3.2.5.3.2 1-.6 1.1-1 0 2 .4 4 .5 1 0 2 0 2-.2zm-84.3-4-.1-3c-.2 0-.3.9-.3 1.9a52 52 0 0 1 0 4.6l.4-3.5zm56.3 3.2h-1.2l.6.1h.6zm-58.1-3.3c.2-2.6 0-6.5-.3-6.2-.2.2-.7 8.6-.5 9 .3 1 .6 0 .8-2.8zm100.7 1c0-1.5 0-1.6-.8-2-.9-.4-1.4-.4-1.4.1 0 .2-.2.4-.6.5-.8.2-5.3 0-7-.4a81.4 81.4 0 0 0-13.6.7c-.6.4 0 .7 1.7.7 1.3 0 1.9-.1 2-.4.2-.4.6-.4 2.7-.1 3.5.3 4.3.3 4.3-.1 0-.5 1.8-.4 4.9 0 1.2.3 5.4.6 7 .6.2 0 .2.1.2.3-.1.3-2 .7-3.8.8l-10.3-.7c-1.4-.2-1.7.3-.4.5a68 68 0 0 0 12 1.2h3v-1.6zm-111.4.4c1.7 0 3.8 0 4.7-.2l1.6-.2V110c0-2 0-3-.3-3.1-.2-.2-.4-.3-.5-.2l-3.1.3c-2.5 0-3.2 0-3.7-.3-.6-.4-.6-.4-1.2.3l-.6.7 1 .4c.5.2 1.8.3 3 .3 2 0 2.5.3 2 1-.5.6-4 .4-5-.3-.5-.4-.8-.4-1.4-.2-.8.2-1 .4-1 1.2-.3 1.4-.3 3.2-.1 3.7.1.4.2.4.9 0 .6-.5 1.1-.6 3.7-.6zm-1.8-2c-.7-.5-.2-.8 1.6-1 1.3-.2 1.7-.1 2.2.2.5.4.5.4 0 .8-.7.5-3 .5-3.8 0zm49.2 2.3c.5 0 1-.2 1-.3 0-.2-4.4 0-6.2.2-1.2.2-1 .3 1.4.3 1.6 0 3.3 0 3.8-.2zm29.7 0c1.6-.4-.2-.6-5.5-.6-5 0-6.5.1-5.3.6.6.2 9.7.2 10.8 0zm-98.4-.9-.2-1.7v-.8l-2.5-.2a135.6 135.6 0 0 0-14.4-.5c0 .3 2 .9 4.9 1.5 2 .5 3.7 1 4.7 1.6 1.6.8 1.8.9 4.7 1h3zm104.3.4h-.5c-.2 0-.2.1.1.2.3 0 .5 0 .4-.2zm-102.8-1.5v-1c-.2 0-.3.5-.3 1.1 0 1.3.1 1.3.3 0zm78.4 0-.1.4c0 .3 0 .5.1.3v-.7zm21.5-.2c0-.1 0-.2-.2-.2s-.3 0-.3.2.1.3.3.3c.1 0 .2-.1.2-.3zm-13.2-.5h-1l-.7.1.7.2c.7.2 1.5 0 1-.3zm2.3.3c0-.2-.1-.3-.4-.3-.3 0-.5.1-.4.3l.4.2s.3 0 .4-.2zm6.4-.2h-.5c-.2 0-.2.1.1.1h.4zm-16.8-4.4c.2-3.7.2-4-.3-3.9-.4.1-.4.4-.4 3.8.1 3.3.2 4.4.5 4l.2-4zm48.5 3.9-1.2-.3-2.1-.3c-1.6-.3-5.3-.3-5.3 0a24.9 24.9 0 0 0 8.7.5zm-12-.7c.4-.3-.8-.3-5.1 0-3.3.2-3.3.2-1.3.3 2.6.2 6.1 0 6.4-.3zM154 107v-3.2c-.3-.3-4.9-.9-5-.7l1 .3c2.2.3 3.3.7 3.3 1 0 .7-.4.8-1.4.3-.6-.2-1.4-.3-2.6-.2-2.5.2-2.7.5-.6.7 1.7.1 2.5.6 2 1-.1.2-1.4.2-3 0-2-.1-2.8-.1-3 .1-.4.2-.2.3.6.5l2.6.2c1.1 0 1.8.1 2 .4.1.2 1 .4 1.9.5 1.7.2 2 .4 1.4 1-.3.2-.5.2-1 0-.4-.2-1.5-.4-2.5-.4-1.5 0-1.8 0-1.9.4 0 .4.2.5 1.5.5l2.6.2c2 .4 1.9.6 2-2.6zm-88 2c0-.3-.4-.4-2.5-.4l-2.6.2c-.2.3.8.5 3.3.5 1.5 0 1.8 0 1.8-.3zm-42.5-.6c.3-.4 0-.4-2-.3-3.3.3-4 .8-.8.7 1.6 0 2.5-.2 2.8-.4zm45.2-.3c0-1.1-.3-1.6-.9-1.6-.5 0-.6 1-.2 1.8.4.8 1 .7 1-.2zm27-.4c0-.4 0-.8-.2-.9-.3 0-.4.2-.4 1 0 1.3.5 1.2.6-.1zm-79.4.4c0-.5.1-.6.6-.4.3 0 2 0 3.8-.2 1.7-.2 5.7-.3 9-.4h5.7l.4-1.2c.5-1.8.6-1.9 4.1-1.8 2.5.1 3.2 0 3.3-.2.1-.3-.4-.4-2.4-.3-2.5.1-2.6.1-2.5-.4.2-.4 0-.5-.9-.3-.8.1-1 0-1-.2 0-.6 1-.7 6-1 4 0 4.5-.2 4.2-.7 0 0-3.6-.2-8-.1-6.8 0-8 0-8-.4s2-.5 9.5-.4c4.5 0 4.8 0 5.4-.5.8-.6 1.9-.7 3-.2.7.3.8.3.9-.6 0-.6 0-.7-.9-.6-.8 0-1 0-1.3-.5-.2-.4-.5-.5-1.3-.5-1 0-1.6-.3-1.1-.6H48a107.1 107.1 0 0 0 13 .1c-3.8-.2-5.7-.4-6-.6a46 46 0 0 0-9.7 0c-2 .2-3.3.2-3.4 0-.6-.5 2.6-.8 9.4-.8 3.8 0 5.2 0 5.1-.3-.2-.5-1.5-.6-6.2-.4-4.1.3-4.6.3-5-.1-.8-.8 0-1 4.2-1l7.1-.2c14-.3 19.3-.3 19.3 0 0 .7-.3.7-3.7.8l-3.6.1c-.2 0-.4.4-.4.7 0 .5.2.6 2 .6 1.5 0 1.9 0 1.9.4 0 .3-.7.4-3.6.5-2.6 0-3.7 0-3.8-.3-.1-.1 0-.4.1-.5.3-.2.1-.2-.5-.2s-.8 0-.8.4c0 .3-.2.6-.3.8-.2.2-.3.4-.2.5.4.4 14.6-.8 15.8-1.2.4-.2.6-.5.6-1.1l.3-2.6c.8-3.3 1-6.8.6-9.4a10 10 0 0 1-.1-3v-1c-.5-.3-.3-1.4.3-2.1l.8-1.3c.5-1.6 3.2-2.5 6.8-2.5 2.1 0 2.3 0 3.5.8 4.5 3 4.3 3 5.3 2.7 1.7-.3 1.8-.4 1.8-5.3a70.8 70.8 0 0 1 1.2-16.9c.5-3.8 1.5-6.5 3.2-8.3a34 34 0 0 0 1.7-2c1-1.3 2.8-2.4 4.2-2.6.6 0 2.2-.4 3.4-.6 3.4-.6 7-.6 8.4 0a9 9 0 0 0 2 .8l1.9.6a7 7 0 0 1 2.4 3.7c.1.5.3.9.4.9l1.4-1.4c.9-1 1.4-1.3 2-1.3 1 0 1.7.6 2.3 2l.5 1.3.4-.6c.5-.8 2.3-2.4 3-2.8.7-.4 1.7-.1 2.2.6 1 1.3 2 5 2 7.9 0 2.2-.7 6-1.4 8.4-.3 1-.5 1.8-.4 1.9l2.2-.4c2.3-.6 3.4-.7 3.7-.3.2.4-.4.8-1.1.8-.8 0-4.4 1.5-4.7 2-.5.8-.2 1 1.1.8 1.6-.2 4.2.3 4.4.8.3.6.1.6-1.8.3-1.8-.3-4 0-4.3.8-.2.4 1.4 2.3 2.8 3.4a6 6 0 0 1 1.3 1.3l.5 1c.9 1.3 1.3 2.7 1.5 4.4.1 1.5.3 2 1 2.8.8 1 1 1.7 1.7 4.2 1 4 1 4.6.5 5.6-.5 1.1-.5 1.6 0 2.3.4.8.9 3.3.9 5.1V99l1.6.2c1 0 2 .3 2.2.4.9.5 0 .7-1.8.4-1.5-.2-1.8-.2-2 .1-.5.7-.1 1 1.7 1.2 2.4.2 2.7.3 2.3.7-.2.2-.7.2-2.1 0-1.3-.2-2-.3-2.3 0-.5.2-.5.2.1.3l3 .3 2.3.2.2-2c0-1.2 0-5.4-.2-9.3l-.7-18.8c0-.5-.2-.6-1-.6-2 0-3.8-.4-3.7-.7 0-.1 1-.3 2.4-.3h2.3l.1-1a1588.4 1588.4 0 0 0 .4-59.8c.3-3.8 0-4.5-1.8-5.4-1.3-.6-1.4-.6-12.3-.5a430.3 430.3 0 0 1-20.6-.4A2125.5 2125.5 0 0 1 79 3.8a59 59 0 0 0-15 0c.4.3 9.6 1 17.6 1.3 3.5.2 7.3.4 8.5.6 2.8.4 7.6.7 15.2 1 3.7.2 6.9.5 8.7.8l16.4 3c10.1 1.7 10.7 1.8 10 2.7-.2.3-.1.4.7.5 2.4.4 6 1.3 6.7 1.7.8.4 1 1.3.4 1.5-.2.1-.7 0-1.1-.3a27 27 0 0 0-7.8-2c-4.5-.8-6.4-1.4-6.3-1.9.2-.3 1-.3 3.1 0h1.3c-.3-.5-3-1-5-1-1 0-3.3-.2-5.3-.6-5.6-1.1-5.5-1.1-5.3-.4l.1.6-2.3-.2a9.8 9.8 0 0 0-2.2 0l3.7.8c2 .3 4 .8 4.7 1 1.2.3 1.5.9.3.6l-1.6.1c-.6.3-1 .2-1.4 0-.7-.5-3.4-1.1-7.9-1.7-7-1-7-1-7-1.7l-.4-.6a278 278 0 0 1-12.5-1.2c-2.1-.1-2.6-.2-3.2-.8-.7-.6-1.5-.8-5.6-1l-2.3.1a1289 1289 0 0 1 24 4.6c3.8.6 12.4 2.3 17.5 3.5 5.5 1.3 13 4.4 13 5.4 0 .6-1.4 1.3-1.8.9-.8-.7-7.7-.8-18.8-.5-6.3.2-7 .2-7.3-.2-.2-.3-.3-.7-.2-1 .1-.7 0-.7-3.1-1-2.7-.2-3.8-.7-3.2-1.4.3-.2 1-.2 3 0 3.6.4 5.9.5 11 .7 5.7.2 6.5.3 6.7 1 0 .4.3.5 2.9.5l5 .1h2.2c0-.5-3-1.7-5.1-2.1l-2.7-.7-1.7-.5-3.4-.8c-6.6-1.5-8.3-1.8-8.8-1.5-.4.2-.7.1-1.6-.2-1.4-.6-1.7-.5-1.5 0v.7c-.5.3-15.3-1.1-16-1.5-.3-.3-.3-.9.1-1 .2 0 2.7.1 5.5.5 5 .6 10.2 1 9.1.7-.3 0-.9-.3-1.4-.5-.4-.2-1.4-.4-2-.4-.8 0-2-.1-2.8-.3-1.4-.4-4-1-8.2-1.6a222.2 222.2 0 0 1-16.8-3.3l-2.5-.6c-.3-.2-3.2-.5-6.5-.7-6.7-.4-7.3-.5-7.3-1.2s-1-.8-6.3-.7l-7.6-.1c-4.4-.4-5.9-.4-19.1-.6C16 2.7 4.9 3 4.2 3.6a41.2 41.2 0 0 0-.5 13.2c.2.2.4.6.4 1v.8h2.1a83.2 83.2 0 0 1 22-1.2c5.4.2 10.7.2 12 .2 4 0 21 1 22.6 1.4a113.6 113.6 0 0 0 14 2.6 66.9 66.9 0 0 0 7.7 1.3l3 .5c2.6.3 4.2.8 5 1.4.7.5 2 .6 2.4 0 .5-.6 1.9-.7 7.6-.3 3 .1 5.7.2 5.8.1.3-.3-.1-.5-1.7-.8a81.3 81.3 0 0 1-7.2-2 84.9 84.9 0 0 0-16-4.8c-4.8-1-11.1-2-13-2.2l-1.9-.1 1.6.3c.8.2 1.6.5 1.7.7.1.1 1.9.5 4 .8 4.6.7 6.7 1.1 6.8 1.5.2.5-1.4.6-4.1.1l-4.5-.6L60.3 16a297.8 297.8 0 0 0-20-2 255 255 0 0 0-24.5-.7c-3.6 0-4.3 0-4.3-.4 0-.2.3-.4.7-.5 1-.3 22.4.1 26.3.4 4.5.4 4.7.4 4.6-.2 0-.3 0-.6.2-.6.2-.1 2.6 0 5.4.2 3.5.3 5 .3 5.1.1.1-.1.8-.3 1.5-.3 1.3-.1 1.2-.1-1-.4-4.5-.7-6.3-.8-20.8-1.8a139 139 0 0 1-13-1.4c-.3 0-.5-.3-.5-.4 0-.3.7-.3 6.3.4l9.5.8a200 200 0 0 1 22.5 2.3c.3.1.6.4.6.6 0 .4.4.5 6.6 1a163.4 163.4 0 0 1 40.3 8.8l2.6.6c1.4.4 1.7.4 2.9 0 .9-.3 2.3-.4 4-.4 3 0 11.9.4 14.2.7 1.6.2 2.2.8.8.9-.6 0-.8 0-.5.2.6.3 7.8.8 9.7.6 1.6-.1 6.3.3 8 .8.8.2 1 .4 1 .8 0 .7-.6.9-1.5.5-.4-.2-2-.4-3.7-.5a140.8 140.8 0 0 1-13.4-.9l-5.4-.4-5.5-.2-4.3-.1-.8 1c-.8 1-1 1-2.2 1L105 26c-5.1-.3-5.2-.3-6.1.3l-1.5.5c-.2-.1-.9 0-1.5.3-1.2.6-2.1.7-2.7.2-.6-.5-6-1-11-1-2.4 0-3.9.5-1.7.6a100 100 0 0 1 3 .2c.3 0 .4.1.4.3 0 .2-3.8.3-6.6 0-1.3-.1-1.7-.3-1.8-.6 0-.4.2-.5 1-.7.5 0 1.1-.2 1.3-.4.4-.2-2.6 0-4.2.2-.7.2-.9.1-1-.4-.1-.5-.3-.5-2-.5-1.2 0-2 0-2 .2s.3.3.6.3c.4 0 .7.1.7.3 0 .3-7.1.3-9 0-1.8-.3-1.1-.7 1-.6 1.4 0 2.3 0 2.8-.3l.8-.4-1.5-.2a14 14 0 0 0-6 .8c-.2.2-1 .5-1.5.6-1.2.1-6.4-.4-6.8-.7-.3-.2-5.6-.8-8.9-.9h-2v2.4c0 3.2 0 3 .5 3.7.4.4.4.4.3-.2V29c.3-.1 1.9 4 2.5 6.3 0 .5.5 1 1 1.4 1 .6 1.1.6 6.5.6l5.7.1c.4.5-1 .7-5 .7-2.4 0-4.4 0-4.5.2l.4.8.6 1.2c0 .2.4.5.7.6l6.1-.1c7-.4 7-.4 7 0 0 .3-1 .4-4.3.6-4.6.2-7.8.6-8.2 1-.2 0 .3 1.3 1.2 3.1.1.3.5.4 1.7.3 1.4 0 9-.7 14.6-1.2 1.3-.2 2-.1 2 0 0 .5-.7.6-4.3.9l-12.7 1.2c-.5.2-.4.5.6 1.7.5.5 1 1.2 1 1.4L53 52c.5 1 1 2.4 1.3 3.4l1.1 3.3c.5.9 1 2.5 1 3.7L57 65c.2.2.4 1.8.4 3.5 0 1.8.2 3.2.4 3.4.2.2.3.2.3 0 0-.3.6-.4 3-.2 3 .2 3 .2 3-.4 0-.5.2-.5 2.8-.4 3.4.2 4 .6 1.3 1-1 0-1 .6 0 .8H73c3.8-.2 3.8-.2 4 .4.1.3 0 .7 0 .8h-8.8c-9.3-.3-9.5-.3-8.6 1 .4.7 1 7.1.8 10.5 0 1.9-.1 2.1-.7 2.6a9 9 0 0 1-2.6.9c-1.7.3-2 .3-2.8 0a14 14 0 0 0-4.9-1.4c-1 0-2-.3-2.2-.5-.2-.2-.7-.4-1.3-.4-.6 0-1.3-.1-1.7-.3-.4-.2-1-.2-2 0-.8.1-1.8.1-3-.1-2.8-.5-2.9-.5-2.5.2.2.3.3.6 0 .8-.3.3-8.5.6-9.8.3-.9-.2-1-.3-1-1.3l-.1-1-2.5-.3c-2.7-.2-4.4-.5-4.6-.9l-.9-.4c-.4-.1-.8-.4-1-.6-.2-.2-.7-.3-1.3-.3-1.6 0-5.6-.6-5.6-.9l.8-.2c.5 0 .9-.2 1-.4.1-.3.6-.4 2.5-.4 1.3 0 2.4-.1 2.5-.2.3-.5-3-1-5-.6-2.3.3-2.6.2-2.6-.4 0-.4.2-.5 1.9-.4.6 0 1.5 0 2-.2.7-.2.6-.3-.9-.3-2 0-2.5-.5-.7-.6.7 0 1.3-.2 1.4-.4 0-.2-.7-.3-3-.2-2.7 0-3.3 0-3.7-.4a3 3 0 0 0-1.4-.6c-.5 0-1-.2-1-.4-.1-.3.5-.3 3.1-.2h4c.5-.3.5-.4-.5-.4-.6 0-1.3-.1-1.7-.3a2 2 0 0 0-1.3-.2c-1.2.3-3 .3-3.8-.1-.6-.3-.8-.3-.8-.1-.2.4-.6 9.8-.5 11.7V101l.1 6.6c.2.1 3 .2 6.3.2 3.7 0 6.2.2 6.6.4 1 .4 1 .4 1-.2zm-5.3-1.6c0-.4.8-.5 6-.7 2.8 0 6.2-.3 7.6-.4 3.6-.3 10.7-.3 10.7 0a220 220 0 0 0-13.5.8c-8.4.6-10.8.7-10.8.3zm.3-1c0-.5.3-.6 4-.9l8-.6a95 95 0 0 1 9.8-.5c.4 0 .6.2.6.5s-.2.4-2 .2c-2-.2-13.7.6-17.5 1.2-2.2.3-3 .3-3 0zm3-2.2c-.3-.4.2-.5 4-.8 8.6-.6 14.8-.9 15.5-.6.7.3.7.4.5.7-.2.3-.5.3-.7.2-.7-.6-3.4-.5-12.3.2-6.6.6-6.8.6-7 .3zm21-4.3c0-.5.6-.7 1.6-.7.4 0 .8-.1 1-.3.1-.3-1.8-.6-3-.4a98.2 98.2 0 0 1-12.3 0c0-.8.9-.9 7.5-1 7-.1 9.4 0 9.9.7.2.4.9.4 3.1.4s2.8.1 2.8.4c0 .8-.7 1-3 1a54 54 0 0 0-5 0c-2.2.3-2.6.2-2.6-.1zm114.5-1.3c-.1-.1 0-.3.2-.4.6-.2 2.4 0 2.5.4.1.4-2.5.4-2.7 0zm1.5-4.6c-.7-.3-.3-.7.7-.7 1.2 0 2 .3 1.7.6-.1.3-1.8.3-2.4 0zm-.8-2.4c-1-.1-1.4-.2-1.4-.5 0-.4.3-.4 2-.3 2.2.2 2.5.3 2.5.7 0 .3-.3.3-3.1 0zm-1-2.8c-.3-.4.4-.5 2.1-.4 1 0 1.6.2 1.7.4.1.4-3.5.5-3.8 0zM66.9 81c-2.3-.2-2.6-.3-3.3-1-1.2-1.2-.8-1.4 1.6-1 2.2.3 2.4.4 2.4.9 0 .2.6.4 1.9.5 2 .2 2.4.3 2.2.7-.2.3-1.4.3-4.8 0zm82.2-6c-1.1-.1-1.5-.3-1.5-.7-.1-.4 0-.4 1.5-.3 2 .2 2.7.4 2.6.8-.1.4-.7.4-2.6.2zm-70.6-.5c-.6-.2-.3-.6.6-.5.4 0 .8.2.8.3 0 .3-.9.5-1.4.2zm6.6-4c0-.2.3-.3.7-.3l2.4-.1c1.4-.2 1.6-.2 1.6.2s-.3.4-2.3.4c-1.5 0-2.4 0-2.4-.2zm-23.8-1.2c-1.7-.3-2.6-.8-1.8-1 .2-.2 1.2-.1 2.1 0 1 .2 2.4.3 3.2.3 1.6 0 2.7.4 2.4.8-.2.4-3.8.3-5.9 0zm13.5-.7c-5.9-.3-7.8-.5-8-1 0-.4 2.1-.3 10 .3 4.5.3 5.4.4 5.4.7 0 .3-.8.3-7.4 0zm-1.5-1.7c-.5-.2-.4-.6.2-1 .6-.4 1.9.3 1.5.8-.3.3-.8.4-1.7.2zM59 66v-.5a34.9 34.9 0 0 1 5.6.6c.1.2-.5.3-2.7.3-2.3 0-2.8 0-3-.4zm30.4-.4c-1.6-.4-1.3-.9.5-.9 1.2 0 1.4 0 1.4.5 0 .6-.4.7-2 .4zm-8.8-.6c0-.3.4-.5 1-.6 1.2-.2 5.1.2 5.3.6 0 .3-.7.4-3.1.4-2.6 0-3.2-.1-3.2-.4zm-8.9-1.5-4-.2c-2 0-2.7-.2-3.4-.6a9 9 0 0 0-2.6-.8c-2-.3-3-.7-3-1.2 0-.4.2-.3 2.8.2 1.5.3 6 .7 9.7 1 1.7 0 3 .2 3 .3 0 .1-.1.2-.3.2-.2 0-.2.1 0 .3 0 .1 1 .3 2 .3s1.8.2 1.8.4c.1.3-4.1.4-6 .1zm-7.5-4.1.4-.3c.2.2-.2.7-.5.7-.2 0-.1-.2 0-.4zm5.5-2.8c0-.3 1-.5 4.6-.6 8.5-.3 11-.2 10 .5a88.8 88.8 0 0 1-14.6 0zm-8.1-.1c-.7-.3-.3-.9.5-1 1.8-.2 4 .1 4 .5 0 .3-.5.4-1.8.4h-2.7zm8.4-2.4c0-.6.3-.6 2.3-.5 1.4.1 2 .3 2 .6 0 .2-.6.3-2.2.3-1.7 0-2.1 0-2.1-.4zm9.6-.4c-.2-.4.4-.8 1.6-.8l2.5-.1c1.1-.2 1.4-.1 1.4.2 0 .4-.4.5-3.8.9-1 0-1.5 0-1.7-.2zm-20.3-.2c-.3-.5.4-.6 3.6-.8 2.5 0 3.4 0 3.5.2v.5c-.2.2-7 .3-7.1 0zM55.7 52c0-.4.5-.5 3-.8 3.7-.5 6.8-.5 7-.1.5.5.2.5-3.5.7-1.8 0-4 .2-4.8.3h-1.7zm-2.6-1.6c.1-.3.9-.5 3-.6 3-.2 6.8-.6 8.7-.9.8-.1 1-.1 1 .2 0 .3-.4.5-1.3.6l-3 .4c-1 .2-3.4.4-5.2.5-2.8.1-3.3 0-3.2-.2zm-.8-2.2c0-.3.2-.5.6-.5l3.7-.3c10.2-.8 12-1 12.2-.7.5.4-.1.6-3.5.8L59 48c-6.7.6-6.7.6-6.7.2zm30.5 0c-.2-.6.3-1 1.4-1 .8 0 .9 0 .8.6 0 .5-.3.6-1 .7-.8 0-1 0-1.2-.4zm-6.9-.6c-3.1-1.2-3.8-1.5-3.8-1.9 0-.5.5-.4 1.6.1l2.6 1.1c1.5.6 2 1.1 1.4 1.3a8 8 0 0 1-1.8-.6zm-25.3-2.5c-.5-.4 0-.7 1.9-1 6.3-1 12.8-1.7 13.1-1.4.4.4-.1.5-4.6 1A81.2 81.2 0 0 0 50.6 45zm31.3-4c-1-.2-.6-.6.6-.6.8 0 1.1 0 1.1.4s-.7.5-1.7.3zM78.4 37c-.1-.1 0-.3.1-.5.5-.4 3.7-.9 4-.6.4.4 0 .7-1.5.9-.7 0-1.6.2-2 .3h-.6zm-27.9-1-3.7-.3c-.4 0-.6-.2-.6-.5 0-.4.2-.4 1.8-.2l5 .1c2.6 0 3.2.1 3.2.4 0 .4-.8.7-1.8.6-.4 0-2.1 0-3.9-.2zm24.3-.1c.3-1 11-3 11.3-2.2 0 .2-1.2.5-3.1.7l-5.2 1.1c-2.2.7-3.1.9-3 .4zm30-.5c-.2-.2-.4-.4-.3-.6.2-.3 4.4-.3 4.4 0 0 .8-3 1.1-4 .6zm-7.6-.8-2.8-.4c-.8-.1-1.1-.3-1.1-.6s.2-.3 1.6-.2l3.7.4c1.5.1 2 .2 2 .5 0 .5-1 .6-3.4.3zm21.3-.4c-.4-.1-.6-.3-.6-.5 0-.4.8-.4 4.9-.4 5 0 5.7 0 5.7.7 0 .3-.9.3-4.7.3l-5.3-.1zm-49.2-.7c-.3-.4 0-.6 2.5-.8 1.2 0 3-.2 4-.4l1.6.1c0 .3-.3.4-4.4 1-3.1.5-3.5.5-3.7.1zm41-.5c-1-.4-.5-.7.8-.6 1.3.2 1.5.3 1 .6s-1 .3-1.8 0zm-67.7-.5c-.3-.5.6-.6 6-.7 5.3-.2 6.7 0 6.2.4-.4.3-12 .6-12.2.3zm75.3-.5c0-.6.1-.6 2.3-.5 1.8 0 2.3.1 2.3.5 0 .3-.5.4-2.3.4-2.2.1-2.3 0-2.3-.4zm-32.3-1.3-3.4-.5c-1.2-.2-1-.6.2-.6 1.7 0 7.2 1 7.2 1.2.1.4-1.2.4-4 0zm-18.7-.4a42 42 0 0 0-7.9-1.8c-3-.4-6.9-.8-11.6-1l-4.6-.4c-.4-.5.7-.7 4.6-1a18 18 0 0 1 4.4 0c.2.2 0 .3-.5.5l-.8.2.7.2 2 .2c2 0 9.2 1 12.3 1.7 2.4.6 3.6.7 7.1.7 2.5 0 4.3 0 4.4.2.2.4-.6.5-5.3.7-3.4.1-4.3 0-4.8-.2zm41.8 0c-.2-.2-.3-.4 0-.6.2-.3 1.4-.4 5-.4 4.8 0 5.5 0 5.5.7 0 .6-.7.6-5.5.6-3.3 0-4.8 0-5-.3zm-61.4-1c-2.3 0-3.4-.2-3.4-.5-.1-.2.8-.3 3.8-.3 2.1 0 4 .1 4.3.3 1 .6-.4.7-4.7.5zm55.9-1.2c-.3-.3-.3-.5-.2-.7.3-.3 12.6-.3 14 0 1 .1 1.2.7.5 1a88.9 88.9 0 0 1-14.3-.3zm-12.7-.5c.1-.2.3-.3.4-.3.4.3.3.7-.1.7-.3 0-.4-.2-.3-.4zm49.7-6.5c-1.3-.4-1-1 .6-1 1.5 0 2.1.2 1.9.8-.2.5-1.2.6-2.5.2zm-25.6-4a13 13 0 0 1-3.2-.4c-.3-.2-2.1-.4-4.1-.5-4.3-.2-9-.8-9.9-1.2-.4-.2-.7-.5-.7-.8 0-.6-.2-.6 4.4.1 3.5.6 8.4 1 13 1 2.8 0 4.1.1 4.6.4.5.2 1.6.5 2.6.5 2.8.3 3.5.4 3.5.8s-.6.4-3.8.3c-2 0-5 0-6.4-.2zm-107-1.4v-.7c.4-.5.7-.3.7.4s-.4 1-.7.3zm133.1-5.4a1798 1798 0 0 1-23-2.8c.1-.4 3.1-.2 7.6.3a2310 2310 0 0 0 17.2 1.9c2.2.2 2.5.8.3.8l-2-.2zm6.9-.2-1-.7a90.7 90.7 0 0 0-17.3-2V7c.3-.4 3-.3 7.4.1 3.4.4 3.7.4 4.1 0 .4-.3.8-.4 2.8-.3 2.6.2 2.9.3 2.9.9 0 .2-.4.4-1 .4-.7 0-.1.2 1.6.5 3 .6 4.2 1 4 1.4 0 .2-.7.3-1.5.4-1.2 0-1.6 0-2-.4zM144 7.9h-.7.3c.4.1.6 0 .4 0zM35 108.3c-.1-.2-4-.1-4.3.2h2.2c1.5 0 2.2 0 2.1-.2zm20.3-1c0-1.4-.2-1.4-.4.2-.1.7 0 1 .1 1 .2 0 .3-.5.3-1.1zm91.3.7c-.3-.3-5.4-.5-6.7-.2-.7.1 2 .4 5.2.5 1.4 0 1.8 0 1.5-.3zm-36.9-.2c.3 0 .3 0 0-.4-.3-.5 0-1.2.5-1.2.3 0 .3-.2.2-.6-.1-.6 0-.7.9-.8 1.7-.1 1.1-.6-.8-.7-1.5 0-2 0-2.1.4-.2.3-.6.4-2 .4-1 0-1.8 0-2 .2-.4.3-.6.3-1.1 0-.5-.2-.7-.1-.7.2 0 .5 1.4.7 3.7.4h2c.2.1-.2 1.7-.5 2-.2.4-.1.4.6.3l1.3-.2zm-50.4-2c0-.8-.2-1.4-.4-1.4s-.3 2.3 0 3c.3.8.6-.2.4-1.7zm2.3 1.6c.5-.6.2-1.6-.5-1.7-.5 0-.6 0-.4.5l.1 1.1c0 .6.4.6.8.1zm51.6.1-.2-.2c-.2 0-.3 0-.3.2s.1.3.3.3c.1 0 .2-.1.2-.3zm23.5-.5c1-.7 2.2-2.7 2.2-4 0-1.3-.3-1.5-.7-.5-.3 1-.7 1-.8.2-.1-.7-.4-1.3-1.5-3.3-.7-1.3-.8-1.4-1.4-1-.5.2-.7 0-1.4-.5-1-.9-1.4-.9-2 0-.2.3-.7.6-1 .6-.3 0-.5.2-.5.7 0 .4-.2.9-.4 1-.2.3-.4.8-.4 1.2 0 .4-.2 1-.4 1.1-.5.4-.5 1.2 0 1.5l2.3.4c1.2 0 2 .2 2 .4.1.3-.4.3-2.2.3-1.7 0-2.2.1-2.1.4 0 .2.8.3 2 .4l2.3.2c.6.2.2.6-.5.6-.5 0-.5.1-.2.3.2.1.7.2 1.2 0 .7 0 1 0 1 .4.3.5 1.2.3 2.5-.4zm-6.9-3.6c-.4-.4-.1-.6.9-.6.7 0 1 0 1 .3-.1.4-1.6.6-1.9.3zm-78.2 2c0-1.4-.1-1.8-.3-1.4-.3.7-.3 3.6 0 3.4.2-.1.3-1 .3-2zm12.6 1.1c0-.5 0-.8-.3-1-.5-.1-.8.5-.6 1.4.3.9.8.7 1-.4zm2 .4c0-.3 0-.6-.3-.6-.2-.1-.3.1-.3.6 0 .4.1.6.3.6.2-.1.4-.4.4-.6zm-27.7-.4c0-.2-.1-.3-.4-.3-.3 0-.5.1-.4.3l.4.2c.1 0 .3 0 .4-.2zm41.7-.8c4.4-.5 13.9-2 13.6-2.3-.2-.2-5.2.4-7.8.8l-5.6.9c-3.4.5-4 .7-3.8 1.1.1.2.3.2.5 0 .2-.1 1.6-.4 3-.5zm13 .5 1.2-.5c0-.3-.9 0-2 .5-1 .3-.6.3.9 0zm33.5-.5c0-.5-.8-.9-1.5-.8l-.7.1.8.5c.8.5 1.4.6 1.4.2zm-85-.3c0-.1-.1-.3-.3-.3-.2 0-.4.2-.4.3 0 .2.2.3.4.3s.4-.1.4-.3zm3.7 0c-.1-.1-.8-.3-1.6-.3-1 0-1.2.1-1 .3.6.4 2.8.4 2.6 0zm51.6-.4h-.5c-.2 0-.1.1.2.1.2 0 .4 0 .3-.1zm44 0h-.6c-.2 0-.1.1.2.1.3 0 .4 0 .3-.1zm2.9-.6c.4-.5.9-.8 1-.8a6 6 0 0 0 1.4-1.7c1.2-1.6 1.2-1.7 1.3-4.4 0-2.2 0-2.9-.5-3.9-.3-.6-.6-1.2-.7-1.1l-1 1c-.3.5-1 1.2-1.6 1.6-3 2-3.7 2.4-4.6 2.5-2.9.5-3 .5-1.5 1.9.8.8 1 .8 1.7.6.9-.3 1.7-.2 1.5.3l-.7.2c-.7 0-1 .5-.5 1 .2.2.6.3 1 .2 1-.2 1.3.4.3.7-.7.3-1.2 1.2-.8 1.5l1-.2c.8-.3 1.2 0 1 .5v.6c.3.4.9.3 1.7-.5zm-5.2-5.7 1-.4c.6 0 .8 0 .7.3 0 .2-.5.4-1 .4-.6 0-.8 0-.7-.3zm-30.8 4.8c.2-.2.6-.5.8-.5.3 0 .6-.1.7-.3.1-.2-.7-.2-3 0-1.7 0-3.2.2-3.3.2-.5.3 0 .7 1.5 1 1.9.5 2.8.4 3.3-.4zm18.4.2c.7-.4.4-.6-1.6-.8-1.6-.1-2 .2-1.1.8.7.5 2 .5 2.7 0zm-55-.5c0-.2-.5-.3-1-.4-.5 0-1-.2-1.1-.3-.2-.2-.8-.3-1.3-.3-.6 0-1.5 0-2-.2l-3.9-.7a217.7 217.7 0 0 1-4.5-.4c.3.3 3.5 1 5.7 1.3l3 .5c4 .8 5.3 1 5.1.5zm41.8-.4c0-.2.5-.3.9-.3s.1-.2-.6-.3h-1.8c-.3.2-.7.3-1 .3-.3 0-.5.1-.4.3l1.4.2c.7 0 1.4 0 1.5-.2zm-13.4-.2H99c-.2 0-.1.1.2.1l.4-.1zm-19.2-.8 2.6-.4c.5-.2-4.5-.8-8.4-1-5.2-.3-6.3-.4-6.8-1-.4-.5 0-.7 1-.4.7.2 3.4.4 6.3.6 2.8.1 6 .4 7.3.7 4.5.8 9.8 1 10.4.4.2-.2.1-.3-.6-.3-2.5 0-6.4-.5-7.2-.9-.4-.2-1.7-.5-2.7-.6-2.6-.2-3-.3-3.1-1-.1-.8 0-.8-14.4.4l-5.3.4c-5 .4-5.3.7-.9 1l5.6.7a191.5 191.5 0 0 0 10.4 1.4c2.5.5 3 .5 5.8 0zm46.3.2c.4-.2 0-.3-1.2-.4-1.5-.2-1.9-.3-2-.8-.3-.7-.8-1-1.6-1.3-1.3-.3-.1 1.2 2 2.4.5.4 2 .4 2.8 0zm-19-.5c1.5 0 2-.2 2-.5s-.3-.4-1.3-.2l-3.2.2c-1.3 0-2 .2-2 .4-.2.4 1.2.4 4.5.1zm8.6-.8c.5-.2.1-.3-1.9-.3-2.7 0-3.7.2-3.5.6.2.3 4.4 0 5.4-.3zm-67.5 0h-1c-.2.1 0 .2.5.2s.7-.1.5-.2zm48-.8H96c-.3.1-.1.2.3.2.5 0 .7 0 .5-.2zm4.3-.1c-.1-.5-2.3-.8-2.3-.3 0 .2.4.4.9.4l1.2.2c.2 0 .3-.1.2-.3zm8.3-.2 4-.3c1.1 0 2.1-.2 2.1-.3l.6-.5c.5-.2.3-.2-.9-.2h-1.7c-2 .5-4 .8-7.1 1-3.4 0-3.7.1-3 .5 1 .3 3 .3 6-.2zm16-.2h-.8l.4.1h.5zm-74-.6c0-.2 0-.3-.2-.3-.1 0-.3.1-.3.3l.3.3c.2 0 .3-.2.3-.3zm57.3-.8c1-.3 0-.6-1.5-.4-2.1.3-2.5.7-.6.6 1 0 1.9 0 2.1-.2zm-56-.3c0-.1-.2-.2-.7-.2-.4 0-.8 0-.8.2s.3.3.7.3c.3 0 .7-.1.8-.3zm1.2 0c-.6-.3-.8-.3-.8 0 0 .2.2.3.6.3.4 0 .5 0 .2-.3zm43.7-.1c-.4-.2-1-.4-1.4-.4l-1.7-.3c-1.3-.3-1.9-.1-.8.3 1 .5 2.4.7 3.7.7h1l-.8-.3zm5 .2c-.3-.4-3.5-.7-3.5-.4 0 .3.8.5 2.6.6.7 0 1.1 0 1-.2zm11.3-.4-.3-.3c-.1-.1-.2-.5-.1-.7.1-.5 0-.6-.7-.4a9 9 0 0 1-1.5.1c-.3 0-.5.2-.4.3 0 .1 0 .3-.2.4-.4.3-.3.6.2.7.8.2 3 .1 3 0zm-21.5-1.2c0-.4.2-.4 1.4-.4 1.5 0 1.6-.1.2-.6-.4-.1-.9-.4-1-.6 0-.3.4-.3 1.9-.2 2.2.2 2 0-.2-.6-1.6-.4-2.3-1-1.5-1.3.2 0 1 0 1.6.2l2.2.3c.7 0 1.2.1 1.5.5.4.4 1 .5 3.9.7H109.3c0 .2.4.4.6.4.3 0 .6.1.8.3.2.3 1 .4 2.8.3 3.1 0 3.2 0 3-.3-.1-.1-.6-.2-1.1-.1-1 0-1.2-.1-1-1.2.3-.7.5-.9 1.2-1 1.5-.3 1.1-.6-.6-.6-.9 0-1.6 0-1.6-.2s-.5-.7-.9-.7v.7c.1.5 0 .8-.2 1-.3.2-.3.2 0 .3.5.3.4 1.2-.2 1.2-.9 0-1.5 0-2-.4-.2-.3-1.4-.4-4-.5-3.5-.2-6-.5-8.3-1.2-.5-.2-1.6-.3-2.3-.3-1 0-1.6-.1-2-.5-.7-.6-.4-1.2.5-1 .7.2.7.2.1-.1-.6-.4-.8-1-.2-1.2.6-.2 3.2.6 3.3 1 0 .4-.1.5-.8.5a29 29 0 0 0 6.5.8c1 0 1.8.1 1.8.3 0 .1-.5.2-1.1.2-1.3 0-1.4.5-.2.7 1.1.2 7.2 0 7.1-.3 0-.2-.3-.3-.7-.3-1.5-.2-2-.3-1.8-.7.1-.3.6-.4 2-.4 1.5 0 2 0 2.1-.4.2-.3.7-.4 2.4-.4a7 7 0 0 0 3-.5c.6-.3.9-.3 1.2-.1.4.3.5.2.5-.3 0-.4-.1-.5-.7-.3-1.7.4-3.5.6-5.2.6-1.8 0-2-.1-2-1.4 0-.6-.1-.7-1.4-.6-.9 0-1.4 0-1.5-.3-.1-.4 1.2-.7 2-.4 1 .3 6.2.1 6-.3 0-.2-.8-.3-2.2-.4-2.2 0-3-.3-2.8-.8.1-.2 1.8-.3 3.8-.3 3.6 0 4.8-.2 4-.7-.2-.2-.7-.1-1.4.1-.8.4-1 .4-1.4 0-.3-.2-1.2-.2-3-.2-2.2 0-2.7 0-2.7-.3 0-.2.2-.5.4-.6.1-.1 2.2-.2 4.5-.2 3.1 0 4.1 0 4-.3-.4-.5-.3-3.1 0-3.3.3 0 .4-.3.3-.6l.1-1c.2-.1.2-.4 0-.8-.4-.5-.3-.6 0-1 .7-.4.6-.6 0-.6-.4 0-.8 0-.9-.2-.3-.3.4-.8 1.1-.8.6 0 .7 0 .2-.4-.3-.2-.4-.5-.2-.7l.2-1c0-.5.2-.7.6-.8.7-.1.8-.7.2-1-.2 0-.4-.3-.4-.6 0-.6.8-2.2 1.2-2.5.2 0 .3-.7.3-1.3 0-.6.2-1.2.3-1.4.2-.2.2-.5.2-.7-.1-.3 0-.6.4-.8.3-.3.4-.5.3-.6-.5-.3-.3-.9.3-1 .8-.2 1-.9.3-1.1-.6-.2-.5-1 .1-1 .7 0 1-.7.6-1-.5-.6-.4-1 .3-1.2.5-.2.6-.5.6-1.4 0-.6.1-1.2.3-1.4l.3-1.2c.3-3 .3-4.7.2-5-.1-.4-.2-.4-.7 0-.8.7-1 .3-.4-.8.5-1 .5-1 0-1.2-.2-.2-.4-.6-.4-1.3 0-1.3-.2-1.5-.8-.7-.8 1-1 .9-.9-.2.2-.8.1-1-.3-1.1-.3-.2-.5-.1-.6 0-.2.7-.8.4-1.2-.4-.4-.7-.5-.8-1.2-.7-.5.2-1 0-1.2-.1-.3-.2-.4-.2-.5.1-.3.5-1.2.6-1.4 0-.2-.6-2.1-.5-2.5.2-.3.6-1.3.7-2 0-.6-.6-1.8-.1-1.9.8 0 1-1 1-1.4.2-.3-.7-.7-.6-.9.1 0 .4-.3.8-.5.8-.2.1-.4.3-.4.5 0 .6-.8 1.2-1.1.8-.4-.4-1.3.3-1.3 1 0 .3-.2.6-.4.7-.2.1-.3.4-.2 1 .2.7.1.8-.5.6-.7-.2-.7-.1-.7.5s-.1.7-.6.6c-.4-.1-.5 0-.5.6 0 .5-.2 1-.4 1.2-.3.3-.4.7-.3 1.2.1.5 0 1-.2 1.4-.4.5-.4.6.1 1 .4.4.5.6.2 1l-.6.3c-.5 0-.5.5 0 1 .2.2.1.4-.2.8-.5.5-.5.6-.2 1.2.3.5.3.7 0 1-.4.6-.1 1.3.5 1.3.5 0 2.2 1 2.2 1.4 0 .4-.9.5-1.2 0-.4-.5-1.6-.8-1.9-.4-.3.5.3 1 1.7 1.3 1.5.4 1.8.7 1.4 1.1-.2.2-.5.2-1.1-.1-.9-.4-1.8-.6-1.8-.3l.6.7c.9.7.8 1-.2 1l-.8.2.8.4.9.5v.4l-.8.2c-.9 0-1 1 0 1.2.5 0 .8.8.2.8-.8 0-1 .5-.8 1 .3.5.3.7 0 1.2-.5.4-.5.5-.1 1.1.5.8.5 1.3 0 1.7-.2.2-.4.8-.4 1.6 0 1.3-.3 2.2-.9 2.2-.2 0-.4.1-.5.3-.2.5-1.1.6-1.4.2 0-.2-.3-.3-.6-.3-1.6.2-2.6-.4-2-1 .5-.5 2.5 0 2.5.4 0 .2.2.2.5-.2l.6-.6-1.8-.3c-1-.1-1.8-.3-1.8-.6-.1-.1-1-.9-2.2-1.5-1.8-1.2-2.1-1.3-3.9-1.4h-2.3c-.8.3-.2.8.6.6l1 .1c0 .2.4.3.7.3.4 0 .7.2.8.5 0 .5.2.5.7.4.3-.1.7 0 1.2.4.4.3 1 .5 1.3.5 1 0 2 .5 2 1 0 .1-.3.4-.7.6-.8.4-2 .2-3.4-.7-.6-.4-1.3-.7-1.5-.7-.3 0-1-.1-1.6-.4-1.8-.8-2.3-1-1.9-.5 1 1-.1 1.3-1.6.6-.4-.2-.8-.4-.9-.3-.2.2.5 1 .9 1 .2 0 .8.1 1.3.4 1 .3 1 .4.6.8s-.6.4-1.7.1l-1.8-.7c-.7-.7-1-.1-.4 1.1.5 1.2 1 1.5 1 .6 0-.7.6-.6 2.4.3 1.7.8 1.9 1.1 1.2 1.6-.4.2-.4.2 0 .4.7.2.9.9.3 1-.2.1-.7 0-1.1-.1-1.2-.5-2.5-.7-2.5-.5 0 .4.7.8 2.1 1.3 1.5.5 2 1.1.9 1.3-.8 0-1.1.8-.6 1.1.5.3 0 1-.5 1-.8 0-.7.8 0 1.1 1 .4 1.2.3 1.4-.3 0-.5.2-.5 1-.4.7.2.7.1.3-.2-.5-.6-.2-1 .9-1h1l-1-.4c-1-.4-1.3-1-.6-1.3.4-.2.4-.2-.2-.6-.8-.7-.4-1.2 1-1h.6l-1.2-.5-1-.4.8-.8c.8-1 .8-1.2.2-1.4-.2-.1-.4-.4-.3-.7.1-.4 0-.5-.6-.8-.8-.2-1-.8-.2-1 .3 0 1 0 1.5.2.9.3 1.1.4 1.1 1 0 .4.2.7 1.2 1 1 .4 1.2.6 1.1 1 0 .3.1.5.7.7 1 .4.8 1-.4.9-.8 0-1 0-1 .5 0 .2.3.8.7 1.1 1.3 1.4.5 1.9-1.8 1.1l-1.2-.3 1.2.6c1.7.6 2.2 1 1.6 1.5a2 2 0 0 0-.6.8c-.1.4-.4.5-1.4.3-1.4-.1-1 .1 1 .7 1.5.5 1.6 1.2 0 1.1-.8 0-1 0-1.2.5 0 .3-.4.5-.7.5-.4 0 0 .2.8.5 1 .3 1.5.6 1.5.9.1.4-.1.4-2.3.3-1.4 0-2.8-.3-3.2-.4h-1c-.5.6-.3.9.6.7 1.2-.2 6 1.4 6 2 0 .2-.2.5-.4.6-.5.2-.2 1.7.4 1.8.6.2 1.6-.4 1.5-.8zm10.9-6.1c-2.2-.4-3.7-.8-3.7-1.1 0-.6 1-.7 2.7-.4 1 .2 3 .5 4.7.5 3.4.2 4 .3 4 .8-.2.3-1.7.3-4 .2H103.3zm-8.8-1.5c-1.2-.4-1.6-1-.9-1.3a110 110 0 0 0 4.1.9l-.2.4c-.4.5-1.3.5-3 0zm7.3-.4c-1-.3-1.2-.6-1.3-1.9v-1h2c1.4 0 1.9 0 1.8.3 0 .2-.5.4-1 .4-1.5.2-2 .4-2 .7 0 .5.5.7 1.5.7.8 0 1.4.4 1.2.8-.2.3-1 .3-2.2 0zm-6.3-1.9c-1.1-.4-1.5-.7-1.2-1.1.2-.3.6-.3 1.4 0 1.9.3 2.3.6 2.2 1-.2.5-1.2.5-2.4.1zm4.5-1.4a.6.6 0 0 1-.4-.5c0-.3.5-.3 1.8-.3s1.8.2 1.8.4c0 .3-.4.4-1.5.5l-1.7-.1zm-6.5-1s.3-.5.7-.8l.6-.7 1.7.5c2.5.7 2.2 1.2-.6 1.2l-2.4-.1zm14.7-.3c-.2-.6 0-.8.6-.6.2.1.3.3.3.5-.2.5-.7.5-.9 0zm-6.9-.8c-.3-.7 1-1.3 1.4-.7.2.4-.4 1-.9 1-.2 0-.4-.1-.5-.3zm10.9-.8v-.6s1.4-.2 3-.2c2.7-.1 3 0 2.7.3-.4.3-3.2.9-4.7.9-.6 0-1-.2-1-.4zm-3-.3c-.5-.2-.4-.8.1-1 .5-.2 1 0 1 .5 0 .4-.6.6-1 .5zM96 81.4c-1.5-.2-2.2-.7-1.8-1.1.2-.2.5-.2 1 0l1.9.4c.8 0 1.2.3 1.1.5-.1.3-.5.4-2.2.2zm3.3-.8c-.4-.4-.2-.9.4-.9.3 0 .7 0 .9-.2.4-.4 2.2-.4 2.5 0l.7.2c.4 0 .4.8 0 1-.3 0-.8 0-1.2-.3-.7-.3-.9-.3-1.6 0-.8.4-1.4.5-1.7.2zm12.6-.2V80l2.6-.2c2-.1 2.6-.1 2.6.2 0 .5-.5.6-3 .8-1.8.2-2 .1-2.2-.3zm-4.7-1.4c-.2-.3.3-.7 1-.7.4 0 .9-.3 1.2-.7.8-.7 1.7-.7 1.6 0-.1.5-.3.7-.7.8-.3 0-.7.2-.9.4-.4.5-2 .6-2.2.2zm5.6-.5c-.3-.5.8-.9 2.7-.9 1.5 0 2.2.4 1.7.8l-2.3.4c-1.6.1-2 0-2.1-.3zm-11.7 0c-.2 0-.4-.3-.4-.5 0-.3.2-.4 1-.2 1.4.2 1.6.3 1.6.6s-1.3.3-2.2.1zm12-1.8c0-.5.2-.6 2.6-.8 1.7 0 2 0 1.9.3-.1.6-1 .8-3 .9-1.2 0-1.5 0-1.5-.4zm-10.8-.3c0-.3.2-.4 1.3-.3 1.8.1 1.8.6 0 .7-1 0-1.3 0-1.3-.4zm4.4 0a.9.9 0 0 1-.2-.5c0-.3.4-.4 1.3-.4 1.3 0 2 .4 1.3.8-.4.3-2.2.3-2.4 0zM114 75c-.3-.5.3-.8 2-.8 1.2 0 1.7 0 1.8.2 0 .2 0 .5-.2.6-.5.3-3.4.3-3.6 0zm-12.5-.7c0-.3.3-.4 1.2-.4.8 0 1.2.1 1.2.4 0 .3-.4.4-1.2.4-1 0-1.2 0-1.2-.4zm5-.8c0-.3.4-.4 2-.4s2 .1 2 .4c0 .3-.4.4-2 .4s-2 0-2-.4zm-3.7-.3c-1.2-.4-1-.9.5-.9 1.4 0 2 .4 1.1.8-.6.3-.6.3-1.6 0zm12-.4c0-.6.2-.7 1.6-.9 1-.1 1.2 0 1.2.3 0 .5-.2.6-1.7.8-1 .2-1.2.1-1.2-.2zm-7.8-1.2c-.3-.7-.1-.8 1.6-.7 1 .2 1.4.3 1.3.6 0 .3-.4.5-1.3.5-1 0-1.3 0-1.6-.4zm-5-.2c-.1-.2-.2-.4 0-.5.3-.2 1.9.2 2 .5 0 .4-1.6.5-2 0zm.3-1a.6.6 0 0 1-.3-.6c0-.3.2-.3.7-.2 1 .2 1.2.3 1 .6-.1.3-.8.3-1.4.1zm13.3-.6-.6-.8c-.3-.6-.2-.7.4-1 .5-.2.6-.3.2-.5-.8-.5-.4-1 1.1-1.1 1.7-.2 2 0 1.5.6-.2.3-.2.6 0 .8.2.2 0 1.5-.3 1.7-.4.3-2 .4-2.3.3zM107 69c-.9-.7-.2-1 1.6-.8 1.1.1 1.6.3 1.6.6 0 .6-2.5.7-3.2.2zm-4.7-2.5c-.3-.3 0-.6.8-.6.4 0 .6.1.5.3 0 .4-1 .6-1.3.3zm6.3-.8c-1.3-.3-1.5-1-.2-1 1.1-.2 2.6.2 2.6.7 0 .4-.8.5-2.4.3zm7.9-1c-.7-.5-.3-.8 1.7-1 1.3 0 1.7 0 1.8.3.2.5-.2.8-1.7.9-.9 0-1.5 0-1.8-.2zm-5.7-2.2c-1-.1-1.6-.5-1.4-.9.2-.3 2.3-.3 3 .1 1.3.7.5 1-1.6.8zm5.1-.3c0-.3.4-.4 2-.5 2.4 0 3 0 2.5.6-.3.3-1 .4-2.5.4-1.8 0-2 0-2-.5zm1-1.4c-1-.4-.4-.9 1.4-.9 1.5 0 1.7 0 1.7.6 0 .4-.2.5-1.2.5-.7 0-1.5 0-1.8-.2zm-15-1.1v-.6c.3-.3 1.3.2 1.3.6 0 .5-1 .5-1.3 0zm8-.6c-.2-.6.4-.7 2.5-.7 1.3 0 2 .1 2.1.4.4.6 0 .7-2.2.7-1.7 0-2.2 0-2.3-.4zm7.4-.9c-.4-.6.4-1 2.5-1 1.8 0 2.1 0 2.1.4 0 .5-.2.5-2.5.7-1.2.1-2 0-2-.1zm-6.8-.8c-1-.4-.9-1.2.2-1 .4 0 1.5 0 2.4.2 1.1.1 1.6.3 1.6.6s-.4.4-1.7.4c-1 0-2.1 0-2.5-.2zm-8.3-1.3a.5.5 0 0 1 .1-.6c.3-.3 1.1 0 1.1.5 0 .4-1 .5-1.2 0zm16.4-.4c0-.2-.4-.4-1-.3-.4 0-2.1 0-3.7-.2-2.6-.2-2.8-.3-2.7-.7 0-.4 0-.6-.5-.8-.7-.3-1-.7-.7-1 .1-.2.7-.2 1.6 0 1 .2 1.4.4 1.6 1 .3.5.4.5 2.7.5 1.9 0 2.4.1 2.5.4.1.3.6.4 1.9.4 1.5 0 1.6 0 1.6.6 0 .4-.1.5-1.5.5-1.2 0-1.7-.1-1.8-.4zm-16-2.2c0-.3.2-.6.3-.6.1 0 .3.2.3.4s-.2.5-.3.5c-.1.1-.3 0-.3-.3zm18-.5c-.6-.5-.1-.8 1.3-1 1.6-.1 2.2.1 1.6.8-.3.4-2.6.6-3 .2zm-16.3-2.3c-.2-.6.1-.9.5-.5.2.3.2.4 0 .6-.2.3-.3.3-.5 0zm15 .2c-.6-.5-.1-.8 1.2-1 1.8-.2 2.5.2 1.6.8-.5.4-2.6.5-2.9.2zm-7.3-.5c-.3-.2-.4-.5-.3-.8.2-.4.4-.4 1.2-.3 1.1.2 1.8.8 1.5 1.2-.2.4-1.8.4-2.4 0zm2.3-1.7c-1-.2-1-1.2 0-1.3.8 0 1.7.5 1.5 1.1-.2.5-.5.5-1.5.2zm4.6 48c.5-.4-3-.2-3.7.2-.3.1.1.2 1.3.1 1 0 2.1-.2 2.4-.3zm-10.2-.3c.2-.4.5-.5 1.1-.4.6 0 .8 0 .6-.2 0-.2-.4-.3-.6-.2-.3 0-.8 0-1.1-.2-.4-.3-1.7-.4-3.6-.4l-4.3-.2c-1.3-.2-1.4-.2-1.6.4-.2.4-.5.6-1.1.6H97l.8.3c1 .3 4.2.6 7.6.7 2.5 0 2.8 0 3-.4zM101 96c-.2-.2-.3-.4-.2-.5h2.2c1.7 0 2 0 2.1.4.1.3-.2.4-1.9.4-1.3 0-2-.1-2.2-.3zm38.1 0 2.2-1c2-.8 4.1-3.5 5-6.3.8-3.2 0-5.4-3.4-9-1.5-1.6-2.3-2.6-2.2-2.8.2-.5.6-.6.9-.2.2.4 1 .4 1.3 0 .3-.4-1-2.5-2-3.4a9.2 9.2 0 0 1-1.8-2.3c-1.1-2.1-2.1-2.9-3.5-2.6l-1.6-.1c-.4-.2-1-.1-3 .5l-3.1.8c-.5 0-1.1.2-1.5.5l-1.4 1c-.3.3-.5.7-.4.8l.5-.1c.5-.5 1.2-.4 1.2.1s-1.3 1.2-3 1.8c-.2 0-.3.3-.2.4 0 .2.6.3 1.6.2 1.1-.2 1.4-.1 1.4.2 0 .5-.8.9-2.2 1.1-.9.2-1.1.3-1.1.7 0 .5.2.6 1 .6.7.1 1.2 0 2.2-.7.8-.6 1.3-.8 1.5-.6.1.2 0 .5-.4 1-1.1 1-1.6 1.3-2 1.5-.8.4 1.9-.1 2.9-.5s2-.3 1.7.2l-1.4.6c-1 .2-1.1.3-1 .7.2.6-.3.8-3 1-2 0-2.8.4-2.3.9.5.4 2.3.4 2.8 0 .7-.7 8.6-2 9-1.6.5.5-.1.7-2.6 1-4.2.6-6.3 1-6.7 1.7-.4.4-.8.6-1.6.6l-1.4.1c-.4.1 2.2.8 3 .8.5 0 .6.1.5.7-.1.5 0 .6.5.6.4 0 .8.2 1 .4.2.3.6.3 2.1.1 2.6-.3 5.7.4 4.6 1a31 31 0 0 1-8.8-.4H123l1.2.5c1 .5 1.5 1 .8 1l-.2.3c0 .1.5.3 1.3.4.7.1 1.3.3 1.4.5 0 .2 1 .3 3.1.3 2.9 0 3 0 3.1.6 0 .6 0 .6-2.1.5-1.9 0-2.4 0-2.8.5-.5.4-.9.5-2.5.3l-2-.1 1.3.4c.8.3 1.3.6 1.6 1.2l.4.9h3c2.1.1 2.9.2 2.8.4 0 .3-1 .4-3.1.5-4 .2-3 .6 1.2.5 3.5 0 3.5 0 3 .4-.1.2-.6.4-1 .4-.6 0-.8.1-.7.4 0 .1.4.3.9.3s1 0 1 .2c.4.4 3 .2 4.4-.4zM128 92.2c0-.4.3-.5 1.8-.6 2.2-.1 2.8 0 2.7.5 0 .4-.5.5-2.3.5-2 0-2.2 0-2.2-.4zm2.6-4c-1 0-1.4-.2-1.5-.6 0-.4.2-.4 1.8-.4 1 0 2 0 2 .2.3.4-.1 1-.6 1-.2 0-1 0-1.7-.2zm-3.9-4.6c0-.5 2.1-1 5-1 2.2 0 2.4 0 2.4-.4-.1-.4-.4-.5-1.7-.4-.8 0-2.5.3-3.6.6-2.4.6-3.2.7-3 .2.1-.6 3.5-1.5 6.7-2 2.4-.2 3.8.6 2.8 1.6-.3.3-.3.7-.2 1.1l.1.7-1.2-.2a17 17 0 0 0-5.4 0c-1.6.2-1.9.2-1.9-.2zM87.8 96.2H87c-.3.1-.1.2.3.2.5 0 .7 0 .5-.2zm43.5-.2h-.5c-.2 0-.2.1.2.1.2 0 .4 0 .3-.1zm-69.4-.6H61c-.3.1-.1.2.3.2s.6 0 .5-.2zm27.5-.3a12 12 0 0 0-5-1.2c-2 0-2.4.3-.7.5l1.4.4c.3.2.8.2 1.2.1l1.8.1c1.4.4 1.6.4 1.3.1zm8.3-.4h-.5l.2.1c.2 0 .4 0 .3-.1zm-35-.6a1 1 0 0 0-.7 0c-.2.1 0 .2.3.2.4 0 .5-.1.3-.2zm55.9-.7c.4-.4.4-.4-.3-.4-.5 0-1 0-1 .2a2 2 0 0 1-.9.4l.6.1a3 3 0 0 0 1.6-.3zm.3-1.7c0-.2 0-.3-.2-.3s-.3.1-.3.3c0 .1.1.2.3.2l.2-.2zm-35.6-.8-.9-.4c-.6-.2-.6-.2-.1.2s1.5.6 1 .2zm3-.2c.2-.4.1-.6-.3-1-.9-.7-1.6-.4-1.2.4.6 1 1.2 1.3 1.6.6zm33.4.2c0-.3-.6-.6-1.2-.6-.4 0-.4.1 0 .4.6.5 1.2.5 1.2.2zm-31.3-1.6c-.1-.2-.4-.3-.8-.3s-.5 0-.1.3c.5.3 1 .3.9 0zm26.8-1c0-.2-.5-.4-1.2-.4-.6 0-1.1.2-1.1.3 0 .2.5.3 1.1.3.7 0 1.2-.1 1.2-.3zm-57.1-.9c1.2-.6 1.7-2.9 1.3-5.7a188.8 188.8 0 0 1-1-7.3c-.4-1-.8-1.1-.8 0 0 .3-.2.6-.4.6-.3 0-.7-1.8-1.2-4.8 0-.7-.2-1-.5-1-.2 0-.3-.6-.3-2.5 0-2-.1-2.5-.4-2.7-.2 0-.5-.6-.7-1.3-.2-.7-.5-1.3-.7-1.5-.2-.2-.5-.7-.6-1.3-.3-1-.7-1.6-1.4-2a5 5 0 0 1-1.2-1.6l-1.7-3c-1-1.4-1.3-3-.8-3 .2 0 .7.8 1.3 1.7.9 1.5 2.2 3.2 3.2 4.3.4.5.5.5.5-.1 0-.3 0-.8-.2-1l-1-1.6-1.3-3c-.8-1.3-1-1.6-1.4-1.5-.4.1-.8 0-1-.2-.5-.4-.6-.4-1.5.3-1 .7-1.4 1-2.7 1.7l-1.1.4c-1 .2-2.1 1.4-2.1 2 0 .3-.5 1.6-1.1 3-2 4.2-2.9 8.5-3.1 13.5-.1 3.5-.4 4.3-.7 2.9l-.5-1c-.4-.2-.6-3.3-.2-5.4a40 40 0 0 1 2.8-8.6c1.2-2.9 1.7-5.3 1.1-5.6-.6-.4-1.5.2-2.6 1.8l-1.5 2.3c-.7 1.5-3 9.6-3.3 11.9-.7 4.3-.3 11.4.8 13.5.5.8 3.6 2.7 4.8 2.8h1l-1-.7c-1-.5-3-2.5-3.3-3.4-.3-.9.1-1 .6-.3.8 1.3 2.8 3 4.2 3.6.7.3 1.4.8 1.5 1 .2.6 1.8.6 5.5 0 5-.6 7.9-1.8 8.2-3.1.1-.4.6-1.2 1-1.6.8-.8 1-.8 1.5-.6.8.4.9.8.6 2-.2.6-.1 1 .2 1.8.2.6.3 1.3.2 1.7 0 .6 0 .8.6 1 .6 0 .7.3.6.8l-1.1.2c-.8 0-1.1 0-1.2.4 0 .4.1.5.8.5.4 0 1-.1 1.3-.3zM38.5 82A6 6 0 0 1 36 79c-1.2-2.6-.7-3 .5-.5A7.8 7.8 0 0 0 40 82c.5.3.4.4-.2.4-.3 0-1-.2-1.3-.5zm4.1-5.1c-.5-2.7-.7-3.8-.7-6.5a55.3 55.3 0 0 1 1.8-12c.3 0 .3.2.2 1-.1 1 0 1.1.2 1.1.4 0 .5.7.6 4.2 0 2.3.2 4.6.3 5.2.2 1 .1 1-.2.7-.5-.5-1-5-.8-7.5 0-1 0-1.8-.2-1.9-.3-.2-.4.2-1 4.6-.3 3.5-.2 6.6.4 10.5.1 1.2-.3 1.7-.6.6zM32 72.6c-.2-2 .5-6.2 1.5-8.6.8-2 .8-2.1 1-2 .1.2-.2 1.3-.7 2.7a38 38 0 0 0-1.3 5.5l-.5 2.4zm87 13.9.6-.4c0-.3-1.2 0-1.9.3-.3.2-.3.2.1.2l1.2-.1zm-85.3-.6c1.5-.8 1.6-.9.8-1.5l-.7-.6-1.8 1c-1 .6-1.8 1.2-1.7 1.3.2.4 2.5.3 3.4-.2zm20.6-1c1.7-.3 2.1-.8 1-1.2-1-.4-1.7-.3-3.6.6l-1.8.8.9.2c.5.1 1.1.2 1.4 0l2-.3zM31.5 83c-.6-.4-2.8-.5-2.8 0l1.3.3h1.6c.3.1.3 0 0-.3zm51-1.1c0-.3-1.1-1.2-1.3-1-.2.2.4 1.2.8 1.2.3 0 .4 0 .4-.2zm-64.3-.2h-.8c-.2 0-.1.1.3.1.5 0 .7 0 .5-.1zm12.4-.1-.4-1.7c-.2-.7-.5-2.5-.5-4l-.4-2.8c-.3-.2-4 0-4 .3 0 .1.4.2.8 0 .7 0 .8 0 .7.4-.1.3 0 .4.4.4.9 0 1 .2.5 1-.2.3-.6.6-1 .6-1 0-.8.5.2.6.5 0 .9.2 1 .4 0 .2-.6.3-2.5.2-1.8 0-2.6 0-2.8.3-.3.3 0 .4 1.7.2 1.5 0 2.2 0 2.8.3 1 .5.8.8-.5 1-2 .4-.8 1.2 1.8 1.2.4 0 .9.1 1 .3.2.4-.9.8-2.4.8-1.9 0-1.7.4.3.6 2.7.2 3.3.2 3.3-.1zm24.6-.7c.3-.4.3-.5 0-.1l-.6.4c0 .3.3.1.6-.3zm29 .2c-.1-.2-.5-.3-.7-.3-.3 0-.2.1.1.3.7.3 1.2.3.7 0zm39.9-2.4c.4-.2.3-.3-.7-.4-1.4-.2-1.7-.1-1.4.4.2.3 1.3.3 2.1 0zM19.7 77.5c0-.3-.4-.4-1.8-.4-1 0-2.2 0-2.7.2l-.9.2 1.2.2c2.5.3 4.2.2 4.2-.2zm3-1.8a54 54 0 0 0-8-.2c.6.2 8.1.4 8 .2zm61.7-1.2c-.5-.1-1.2.1-1.2.5l.8-.1c.6-.2.7-.3.4-.4zM4.8 74a12 12 0 0 1 3 0c2.6 0 3.6 0 3-.5-.2-.3-7.8-.6-8.1-.3-.7.6 1.3 1.3 2 .8zm18.8-.6c0-.1-.1-.3-.4-.3-.6-.2-2.1.7-1.6.9.4.1 1.8-.3 2-.6zm-17.8-1c.3-.5-.1-1.4-.6-1.4-.6 0-.7.3-.3 1 .3.7.7.7 1 .3zm9.8-.3c1-.2 2.1-.2 5 .1 4.2.4 4.8.5 4 .2A75.6 75.6 0 0 0 6.4 72c.2.6 6.7.7 9.2.1zM4 71.3c-.1-.8-.4-.8 5.3-.6h7a22.6 22.6 0 0 0-8.1-.8c-2.7 0-3.3 0-3.7-.4-.2-.2-.8-.3-1.2-.3-.7 0-.8.2-.8 1.1-.1 1.1.3 1.8 1 1.8.4 0 .5-.2.5-.8zm25.5-.5 1.7-9.1.1-.8-1.6.2c-1.5.2-1.8 0-3-.6l-.4-1.7c0-1.4 0-1.5 1-2.5l1-1c-.1-.1-.7-.3-1.3-.3-2.1-.2-2.9-.6-3.3-1.6-.2-.5-.6-1-.8-1l-1-.5c-.3-.1-.6 0-1 .4-.7.7-.5 1.1.5 1.2 1.1.1 1 .7-.1.8-.7 0-1 .3-1.4 1.1-.8 1.5-1.4 1.8-4.5 2.1l-7.3 1-4.5.5-.4 2.8c-.3 1.5-.5 3.5-.5 4.4 0 1.9.3 2.3 1.7 2l1.4.1c.6.4 11.1 0 11.5-.4.2-.2-1.7-.3-6.2-.3-4.1 0-6.4 0-6.5-.2-.1-.5.6-.6 5-.9 4.3-.2 9-.8 10.4-1.3.6-.2-.5-.2-3.6-.1-4 .1-4.5 0-4.5-.3s.3-.4 1.2-.4c2.6 0 13.2-.5 14.2-.7.9-.1 1.1-.1 1 .2 0 .2-1 .5-2.6.8-7.7 1.5-8 1.6-4.3 2 1.2 0 2.5 0 3.5-.2 1.4-.3 1.6-.3 2 .1.2.3.8.4 1.4.4.5 0 .8.2.7.3 0 .2-1.4.3-3 .3a41 41 0 0 0-9 1.2h5c4.2 0 5.3 0 5.3.3 0 .2-.1.3-.3.3l-.2.3c0 .2.4.3 1 .2.7 0 1 0 1 .3 0 .5-1 .7-3.6.8-2.7 0-2 .5 1.4.8l2.6.2.3-1.2zM4 65l-.1-.3c.2-.3 6.8-.4 6.8-.2 0 .4-.3.5-3.4.7-2.3.1-3.2 0-3.3-.2zm9.6-1.4c0-.3 1.1-.4 5.3-.5a55.6 55.6 0 0 0 7.5-.5c.5.5-.4.7-4.4 1-5.6.5-8.4.5-8.4 0zm-7.5-1-1-.2c-.7 0-.7 0-.5-.4.2-.2.8-.4 1.4-.4l3.2-.4a94 94 0 0 1 4.7-.6c1.3-.2 2.6-.5 2.8-.7a171.2 171.2 0 0 0 7.3-1.4c.7-.1 1 0 1 .2 0 .4-1 .7-4.4 1.2-1.7.2-3.3.6-3.5.8-.2.2-.8.4-1.2.4-.5 0 .7.2 2.6.2 1.8 0 3.3.1 3.3.3 0 .3-1.3.5-3.2.5a48.4 48.4 0 0 1-12.5.6zm6.2-.7c0-.3-1-.3-2.2 0-.7.1-.6.2.7.2.8 0 1.5-.1 1.5-.2zM4.7 60v-.4c.3-.2 9.2-1 11.4-1.1 1 0 1.8 0 1.8.2 0 .3-2 .6-4 .6-.7 0-2.6.1-4 .4-3.7.5-5 .6-5.2.3zm16.4-2.9c.1-.3 3.4-1.5 4.2-1.5 1 0 .3.6-1 1-2.3.8-3.3 1-3.2.5zm2.5 12.5c-.2-.3-5-.3-5.5 0-.2.2 1 .2 2.6.3 2 0 3-.1 2.9-.3zm-8.4-.5c0-.2-.1-.3-.2-.3-.2 0-.3.1-.3.3 0 .1.1.2.3.2.1 0 .2 0 .2-.2zm-.3-2.3h-.5c-.2 0-.2.1.1.1.3 0 .5 0 .4-.1zm112.2-.4c.4-.3.6-.5.4-.5l-1 .5c-.7.7-.2.7.6 0zm6.3.2c1.6 0 3-.2 3.2-.3.4-.5.6-3.3.2-3.3l-.5.2c-.3.4-1.1.4-1.5 0-.2-.4-.1-.7.8-1.7a27.5 27.5 0 0 0 4-7.1c.3-.2.3-4.3 0-6-.2-.7-.6-1.6-1.1-2.1l-.8-1-1.3 1.5c-1.5 1.6-1.7 2.3-2 6.3-.2 1.8-.6 3.6-1 4.8l-.7 2 .6 1c1 2-.2 4.3-1.5 3-.4-.4-.6-.4-1.3-.2-1.5.7-1.8.7-2 .2 0-.3.2-.7.7-1.3a16 16 0 0 0 3.6-11.8c-.1-3.2-.6-4.5-1.8-4.9-.5-.2-.8-.1-1 .3-1.3 1.6-1.4 1.8-1.4 4.2 0 2.3-.2 2.7-1.9 7.4-1.9 5.3-2.4 7.8-1.4 7.3.3-.2.5-.2.6 0 0 .3.4.3 1.3 0l1.6-.3c.6 0 .6 1.5 0 1.9a32 32 0 0 1 4.6-.1zm-6.3-4c-.6-.6.9-4.5 1.8-4.8.3-.2.4-.5.2-1.6-.1-1.2 0-1.4.2-1.4.8 0 1.1.8 1.1 3 0 1.8 0 2.3-.6 3.1-.9 1.3-2.3 2.1-2.7 1.6zm10.5-13.3-.1-1.2c0-.7 0-1 .4-1s1 1.2.8 1.8c0 .5-.7.7-1 .4zm-126.3 8c4.8-.5 7-.9 7.2-1.3.2-.4.2-1.8 0-1.8l-5.8.7c-7.2.9-6.8.8-7 .5 0-.4.3-.4 7.1-1.2l5.8-.6c.6-.2 1.8-1.8 1.5-2.3 0-.1.2-1 .7-2l.7-1.9c-.2-.1-12 1.2-14.3 1.7-1.9.3-2.6.2-2-.4.4-.3 8.6-1.4 13.6-1.8 2.6-.2 3.6-.4 3.6-.9 0-.2-.8-.2-2.5 0-3.3.2-3.5-.3-.3-.7 2.8-.4 3.5-.7 2.2-1-2-.4-12 1-16.8 2.5l-1.6.5v1.9c-.1 2.3-.9 2.2 7 .8 2.8-.5 3.8-.6 3.8-.3s.1.3-5 1.2c-5.7 1-5.7 1-5.8 1.6v.7c.2.1 2.1 0 4.3-.3a56 56 0 0 1 8-.3c0 .1-1.1.3-2.5.4-3.2.3-9.1 1-9.6 1.3-.3.3-.4 2.5-.1 3.3.2.5.6.5 7.8-.3zM29.8 56a.5.5 0 0 0-.5 0c-.3 0-.2.3.1.7.5.5.5.5.6 0 0-.2 0-.5-.2-.7zm3.3-.6c.5-1 .3-1.5-.2-.8-.2.2-.6.5-1 .6-.9.1-1 .3-.4.8.8.6 1.2.4 1.6-.6zM30.8 53a6 6 0 0 1 1.9-.5c.4 0 1 0 1.2-.2.7-.2.4-.6-.5-.6-1 0-.7-.3 1.4-1 .9-.4 1.8-.9 2-1.2.1-.2.7-.6 1.2-.7.9-.3 1-.4 1.2-1.7.2-1.3.7-1.8.9-.8 0 .3.2.6.4.7.2.1.2.4 0 1-.2.4-.3.9-.1 1 .3.5 2 0 3.5-1 1.6-1 1.2-1-.6-.1-1.6.8-1.6.8-1.6.1 0-.7 2-1.9 3.2-2 .7 0 .9.1.8.5 0 .5.6.6.9.2.3-.5 1-.3 1 .2.2.3.3.6.5.6.5 0 0-2.7-.8-4L46 41.3c-.8-1.4-2.4-3-2.7-2.8-.1 0-.6 0-1.1-.2-1-.3-1.2-.6-1.3-2.6 0-1.1-.1-1.2-.9-1.4-.5 0-1-.3-1.3-.5-.6-.5-1-2.4-1-5.4 0-1.5 0-2.8-.2-2.8l-.2.6c0 .3-.1.8-.3 1-.4.6-.3-1.4 0-2.2.3-.6.3-1 0-1.8-.1-.6-.4-1-.5-1-.5 0-1.1 1.7-1.3 3.8a7 7 0 0 0 .5 3.7c.3.8.8 1.9 1.2 2.4.7.8.8 1.4.4 1.4-.1 0-.4-.1-.5-.3-.2-.3-.6-.4-1-.4s-.5-.2-1-1.4c-.2-.8-.7-2-1-2.5-.4-.5-.8-1.1-.8-1.3 0-.2-.3-.4-.7-.5-.5 0-.8-.3-1.2-1.1-.6-1.2-1.2-2-1.5-2-.5 0-.6 3.3-.1 4.5l.4 1.8c0 1.2 1 3 2.8 4.9.5.5.5.8 0 1.3-.4.2-.6.2-1.2-.4-.5-.5-.9-.7-1-.7l-.7 1.4c-.8 1.6-1 3-.2 4.5.6 1.2 3 3.9 3.6 3.9 1 0 3.5-2.1 3.5-2.9 0-.5 2.2-2.7 3.3-3.2 1-.5 2-.5 1.7 0l-2 1.8-1.9 2c0 .3.3.8.7 1.1.7.7.8 1.4.2 1.6-.2 0-.4-.1-.4-.4-.1-.4-.4-.5-1.3-.5-1 0-1.4.1-2.2.9-1 .9-2 1.6-5.4 3.7-.8.5-1.6 1.3-2 1.7-.7 1-1 1-.9 0 .3-1.1-.5-1.4-1.3-.4-.6.7-.8 2-.3 2.4.7.4 2.8.9 3.8.8l2.2-.7zm-.2-11.8c0-.6-.2-1.2-.3-1.3-.3-.4-.1-1.7.2-1.7.1 0 .4.3.6.7.2.3.7.7 1.2.8l.9.7c0 .6-1.2 1.8-2 1.8-.6 0-.6-.1-.6-1zm8.4-3.4c-.2-.2 0-2.5.3-2.5.4 0 .6 1.2.4 2-.1.6-.4.8-.7.5zM23.8 50.4c.5-.5.5-1.3.2-1.3l-1.2.5c-.8.5-1 .6-.7 1 .4.4 1.3.4 1.7-.2zm5.1-2.3c2.9-2 3-2.3 1.3-4.2-2.4-2.6-2.7-4.4-1.5-7.4 1-2.3 1-3 .4-4.1-1-2-1.5-7.8-.8-9.3.7-1.3 1.5-1 3.5 1l1.6 1.6.3-1.3c.2-.7.7-1.7 1.1-2.2 1.2-1.3 1-1.7-.5-1.7a145 145 0 0 0-13.1 0c-3.6 0-11 .6-11.3 1-.2.2.6.2 9.5-.2 7.4-.4 10.9-.4 10.9 0a271.9 271.9 0 0 0-18.2 1.3A50.6 50.6 0 0 1 3.4 24c0 .2.3.3.6.3l5.1-.6a46.8 46.8 0 0 1 14.3-.6c1.7-.2 2.3-.1 1.7.3l-6.5 1c-7.7 1.1-8.6 1.4-3 1.2 5.9-.3 9.5-.3 9.6 0 0 .2-1.7.4-4.5.5-4.2.1-10.2.5-15.1 1l-2.2.1v1.2l.1 1.4A501.8 501.8 0 0 1 21 28.6c.6 0 1 0 1.1.2 0 .3-1.3.5-7.1 1a165.3 165.3 0 0 0-9.1.8c-2.3 0-2.3 0-2.3 1.6 0 .8 0 1.2.3 1.2l5.4-.6c6.8-.9 12.5-1.4 12.7-1.1.4.4-.6.6-3.6.8-2.7.1-7.1.7-12.7 1.6l-2 .3v2c-.1 2-.1 2 .4 2l6.2-.7c4.5-.6 9.6-1.2 13-1.4.2 0 .5 0 .6.2.1.4-.5.5-5.5 1a133.6 133.6 0 0 0-14.1 1.8c-.6 0-.7 0-.7.8 0 .9.2.9 2 .5 2-.5 12-1.9 13.3-1.9.5 0 .6.1.4.3-.2.2-1.8.5-3.5.7-3.8.4-11.1 1.7-11.7 2-.3.1-.5.7-.6 2.3v2.2c.2.1 1.5 0 3-.4 3.2-.8 11.6-2.3 13-2.3 1 0 1.5-.4 1.5-1 0-.3-.2-.3-1.2-.2l-4.7.5a170 170 0 0 0-10.7 1.7c-.4 0-.6 0-.6-.3 0-.5 4.1-1.3 11-2l4.9-.6c1.2 0 2.4-.3 2.6-.5.3-.3.5-.2 1 .2.5.3.8.8.9 1.1 0 .6 0 .6 2 .6.8 0 1.5 0 1.5.2 0 .3-1 .6-2 .6-.4 0-.7.1-.7.4 0 .3.3.4 1.5.3 1.8-.1 2 .4 0 .6-2.3.4-2.5.5-3.2 1.6a5 5 0 0 0-.7 1.3c0 .1.6.3 1.3.3.7 0 1.4 0 1.6.2.8.5 2.3.3 3.4-.4zM6.2 35.9c0-.4.5-.5 5.3-.9 2.3-.1 4.2-.4 4.4-.5.3-.3 4-.3 4.2 0v.4l-5 .5c-8 .8-8.9.8-8.9.5zM9 25a200.2 200.2 0 0 1 7.6-1.2c0-.2-2.6 0-5.6.3l-4.1.5c-2.4.3-3.2.5-3.2.8 0 .4.3.3 5.3-.4zm71.7.2a1 1 0 0 0-.6 0c-.2.1 0 .2.3.2.4 0 .5-.1.3-.2zm-22.4-2c-1-.3-4.4 0-5.5.5-.3.1-.5 0-.6-.4-.2-.6-.7-.7-8.4-.8-4.2 0-5.5 0-5.3.3l5.2.7 8.7.7c3.6.3 3.9.3 5.3-.2l1.6-.6zm10.9.6c.5-.2.5-.2 0-.3-.7-.2-1.5 0-1.5.3s.7.3 1.5 0zM6 22.7c1.2 0 1.7-.3 1.7-.5 0-.3-.4-.4-1.6-.4-2 0-2.9.3-2.9 1 0 .5.1.6.5.4a10 10 0 0 1 2.2-.5zM63 23c-.5-.2-1.1-.2-1.5-.2-.6 0-.6 0 .2.2l1.4.2c.6 0 .6 0-.1-.2zm-16.7-1.3c-.1-.2-1-.3-1.8-.4-2 0-2.3-.1-2.1-.8 0-.3 0-.5-.4-.5-.3 0-.6 0-.7-.2a4 4 0 0 0-1.5-.4c-1.2-.2-1.3-.2-1.5.5-.2.3-.4.7-.6.7-.3.1-.3.3.1.7.5.6.8.6 4.6.6 2.6 0 4 0 3.9-.2zm13.2-.6c.3-.3-1-.3-2.9 0l-1.3.1 1 .2c1 .2 2.9 0 3.2-.3zM4 20.5c-.1-.2-.3-.2-.4-.1-.2 0-.2.2-.1.4 0 .1.2.1.4 0v-.3zm45.8.2c0-.3-1-.4-3.5-.4h-3.4l3 .3c4.2.5 4 .4 4 0zm66.3-1.7h-2.3 2.2zm5 0h-1.3H121.1zm-67-5.1c-1.1-.3-6.7-1-7.3-.8a67 67 0 0 0 7.2.7zm62.6-3.2a4 4 0 0 0-1.3-.2c-.7 0-.7 0-.3.2l1.3.2c.7 0 .7 0 .3-.2zm-.3-1.5-2-.4c-1 0-.2.5 1 .6 2 .2 2.3.2 1-.2z"/>
</svg>
