<?xml version="1.0" encoding="utf-8"?>
<svg xmlns="http://www.w3.org/2000/svg" xmlns:svg="http://www.w3.org/2000/svg" version="1.1" viewBox="0 0 223 134">
  <title>Seven mice stand around a candle in a candlestick, which has drooped over so much that it is in danger of going out.</title>
  <path d="M66.1 133.5c-1.6 0-2.5-.7-2.2-1.5 0-.3.7-.4 4-.4 2.5 0 3.8-.1 3.9-.3 0-.2 1-.2 3.3-.1 2.8.2 3.2.3 3.2.7 0 .2-.1.5-.3.7l-4.4.4a38.6 38.6 0 0 0-6 .7l-1.5-.2zm70.9-2.1c-2-.3-2.5-1-2.4-3.4 0-.7-.4-.9-2.2-.8a5 5 0 0 1-2.2-.5c-.7-.3-1.8-.5-4.5-.5l-5-.4c-.9-.2-3.5-.3-5.9-.4-3.2 0-4.6-.2-5.3-.5-1.1-.5-1.3-.7-1-1.2.2-.3.9-.4 3.7-.2 2 0 4.4.2 5.4.3 1.3.2 1.8.1 1.6 0 0-.2-1-.4-2-.5a42.7 42.7 0 0 1-5.3-.8c-.7-.1-1-.3-1-.6 0-.5 1.1-.4 6.2.1a93.6 93.6 0 0 0 14 1.1c1.9.3 3.3 0 4-.7.4-.4.4-.5-.3-1-.8-.6-.8-1-.2-1.5 1.1-1 1.1-6.8 0-7.4l-3.9-.4c-3.7-.1-5-.5-5.2-1.5-.3-1.4.2-1.8 4.4-3.7l1.6-.7.5-.6c0-.4 0-.5-1.2-.3-.7 0-1.6.3-1.9.4l-1.6.3c-1 0-1 0-.2.2.5 0 .9.3 1 .6 0 .4-.3.5-2.7.5-3.4 0-4.8-.3-4.8-.7 0-.2 0-.4-.2-.4-.6 0-.4.5.7 1.6l1.5 1.7c.2.4.3 2.3.1 3.2 0 .5 0 .5 1.8.5l3.3-.2 1.5-.3.7 1.2c.4.7 1 1.5 1.4 1.8 1.3 1.2.7 1.6-2.5 1.6-1.7 0-2 0-2.5.7-1.3 1.5-1.4 1.6-3.3 1.8-1.3.1-2.3 0-3.8-.3a10 10 0 0 0-3.5-.2c-2.1.2-2.1.2-4.3 0-1.8-.2-2-.2-3.8.8a17 17 0 0 0-4.6 3.2 12.1 12.1 0 0 1-5.1 3c-2 .7-2.9.9-6.9 1-4.6.3-9.2.8-10.4 1.1-.6.2-.5.2.7.5l2 .3c.6 0 .9.5.4 1a43.9 43.9 0 0 1-9.6-.2c-1.4-.4-6.2-.3-8.4 0-1.6.3-1.8.3-2.2 0-.7-.8-.2-1 2.7-1.2 1.4 0 3-.2 3.5-.3l1 .1 1 .5c.6.1.7 0 1-.5.2-.6.3-.7 1.4-.5 1 .1 3-.2 5.6-1h.5l-.5-.3h-3.9c-3.4 0-4.1 0-3.8-.9.1-.3.4-.4 2-.3 1.2 0 2 0 2.3-.2.8-.6 2.1-.7 5.5-.8 2.6 0 3.3-.1 4-.5.5-.4.6-.5.3-.9-.5-.6-4.4-.3-9.9.6a92.2 92.2 0 0 1-19.2 1.4c-1.6-.4-2.4-1.6-1.9-3 .2-.6 1.8-1.3 3.5-1.7l2.9-.8c1.1-.5 1.5-.5 1.7-.3.5.5-1.4 2-2.9 2.4-1.5.4-1.6 1-.1 1 2.2 0 6.4-.4 9.4-1a508.4 508.4 0 0 1 9.8-1.7c1.5-.6 6-.8 6.7-.4.4.2.6.2.6 0 0-.3 2-.4 2.2 0 .1.1.6.3 1.1.3 1.4 0 1.4-.6.2-2.1-1.3-1.5-1.7-2.2-1.7-3 0-1.1-.8-1.8-2.2-1.8-1.2 0-1.2 0-1 .8 0 .6 0 .8-.3 1-.3 0-.6 0-.8-.2-.1-.2-.6-.3-1-.3-.6 0-.8.1-.8.7 0 .7.1.7-1.5.2-1.2-.4-1.4-.4-2.6 0l-2.9.7a62 62 0 0 1-16.1 2.1 85.3 85.3 0 0 0-10.3 1 155.6 155.6 0 0 1-24.3 1.8c-2.5-.2-4.7-1-4.7-1.8l.2-.6 3.1-.1 3.9-.2 1-.2L27 117c-1.5-1.4-1.5-2.2-.2-3.3 1.3-1.1 4-1.9 6.6-1.8 1.9 0 2 .1 2 .6 0 .4-.1.6-1.1.7-1.4.2-4.7 1.2-5.3 1.6-.3.1-.3.3 0 .5.4.5 2 .7 3.9.5a62 62 0 0 0 10.7-2.3l2.4-.6a17.2 17.2 0 0 1 7.1-1.3c8.7-.6 10.9-.8 11-.9 0 0-.2-.7-.7-1.4-.5-.6-1-1.7-1-2.2 0-.6-.3-1.2-.4-1.3l-3.8-.2c-1.9 0-4 0-4.6-.2-1.7-.3-2.4.3-2.4 2.1 0 1.5-.4 1.7-1.7 1-.6-.4-1.1-.5-2-.4-.9.1-1.1.3-1.4 1-.3.7-.5 1-1 .9-.5-.1-.6-.3-.8-1-.1-1-.3-1.1-2.8-.7-1.1.2-1.4 0-.8-.6.2-.2-.1-.3-1.1-.4-3.4-.4-8.5-.8-11-.9-3.7-.2-7.5-.6-8-1-.4 0-.8-.5-1-.8-.3-.4-1-1-1.5-1.2-1.1-.6-1.2-1-.5-1.3a180.3 180.3 0 0 1 22.1 0c.9-.3-.3-2.2-2.8-4.7l-2.8-2.8c-1.8-1.8-2.6-2.1-7.9-3.4a16.7 16.7 0 0 0-11.2 4c-1.3 1-3.5 2.3-5.6 3.3l-2.9 1.4c-2.2 1.2-3.6 1.5-4.2 1-.3-.2-.9-.4-1.4-.4-.9 0-1-.1-1-.7 0-.4.1-.6.5-.7 3 0 5.6-.8 7.7-2.3A205.2 205.2 0 0 1 18.5 90c2.3-1.2 4.2-1.6 6.8-1.6 3.6 0 7.8 1.4 9.8 3.2.6.5.6.5.8 0 0-.2 0-1-.3-1.8-.4-1.3-.4-2.1-.3-5.2a94 94 0 0 1 1.3-12c.2-.9.2-1.3 0-1.5-.6-.6-.3-2.5.7-4.2.6-1 2.7-6.6 2.7-7.5 0-.3-.2-.6-1.2-.8-1.5-.5-2.4-1.6-2.8-3.6-.3-1.9 0-3 1.3-3.9 1-.7.8-.7 6-.1 1.4.1 1.6 0 2.4-.6.5-.4.9-.9.9-1 0-.6 3.6-3.8 5-4.6.8-.3 1.4-.8 1.5-1 0-.2-.2-.9-.6-1.6-.7-1.4-.8-2.2-.4-4.5.5-2.3 2.4-5.5 3-5 .2.2 0 .7-.5 1.4a9.3 9.3 0 0 0-1.7 5.4c0 2.4.9 3.9 2.4 3.9.9 0 1-.1.4-1.4-.4-1-.3-2.8.4-5 .2-1 2-3.7 2.7-3.9.5-.2.2.5-.7 1.7-.5.7-1.1 1.8-1.3 2.6-.4 1.3-.6 3.8-.3 4.9.2.6.8.8 1 .2.1-.2.2-.2.4 0 .2.3.5.4 1.3.3 3.1-.6 3.8-.6 3.8 0 .1 1 0 1.5-.7 2.2a6 6 0 0 0-1 2.2c-.1.9-.6 2-.9 2.5-.5.7-.5.9-.2 1 .6.2.5 1-.6 3.2a87 87 0 0 0-1.7 3.5c-.5 1-1 1.7-1.7 2.2-.7.5-1.4 1.3-2.2 2.8-1.5 2.9-1.4 4 .2 5 .7.3.8.3 1.5-.5.3-.4.8-.8 1-.8.4 0 .2.7-.3 1.2-.6.5-.8 1.2-.3 1.2l1 .8c.7.6 1.1.8 2 .8 1.2 0 1.7.3 2 2 .7 2.8.6 3.1-.2 4.2-.7.9-.8 1-.5 1.8l.5 1.7c.8 2.9 3.5 8.8 4 8.8.2 0 .8-1 1.3-2.6.3-1 .3-1.1-.1-1.4-.2 0-.9-1-1.4-1.9-.9-1.6-1-1.9-1-3.8 0-1.7 0-2.4-.5-3.2-.7-1.5-.6-2.4.4-3.6 1-1 1-1 2.2-.8l1.3.1.8-2.3c.6-2.2.7-2.7.7-6.2 0-4.1-.2-4.8-1.6-7.2-1.7-3-1.8-3.7-1-6.5.6-1.7 2-3 3-2.6 2 .8 3.2 2 3.2 3.3 0 .9.3.8 1.5-.4 1-1 1-1.2.6-1.4-1.3-.8-1.8-1.4-2.2-2.5-.5-1.6-.5-4.2 0-5.7.5-1.3 1.6-2.9 2.1-2.9.6 0 .5.3-.3 1.1-.9 1-1.4 3-1.2 5.1 0 2 .3 2.6 1.2 3.6.6.6 1.3.7 2 .3.6-.3.6-.3 0-1.3a10 10 0 0 1-.9-5c.2-1 .7-1.6.7-.6 0 1.7.5 4.4.9 5 .6.9 1.4.7 3-.6 2.6-2 4.5-2.7 5-2l.2 3.2c0 1.6 0 3 .2 3 .1.2.9.2 1.6.2 1.1 0 1.9-.3 3.1-1 1.8-1 2.1-1 2.1-.5 0 .9-3 2.3-5.2 2.5h-1.7v1.7c0 1-.2 2.2-.5 3.2-.4 1-.6 2.2-.6 3.3 0 2.1-.5 4.3-1.4 5.6-.6.9-.7 1.3-.7 3 0 1 .2 2.5.5 3l.4 2c0 .8-.2.8 2.6.3.6-.2.8 0 1.4.7l1.2 1.4c.6.6.8 1.9.3 2.1l-.3.6c0 .6 3 4.3 3.5 4.3.3 0 .5-.4.7-1.6.6-2.7.3-3.4-1.8-5-1-.7-2-1.6-2.2-2-.9-1.1-.3-3 1.8-5 1.3-1.4 2.4-2 3.4-1.8.6.1.8 0 1.2-.7.8-1.2.7-1.3-.3-1.2-1.5.3-3.1-.4-4-1.7-1.2-1.5-2-5-1-4.4.2.1.3.5.3.8 0 1.3 2.1 4.5 2.8 4.3.2-.1.7 0 1.1.1.5.2 1 .2 1.3.1.4-.1.3-.3-.6-1a7.5 7.5 0 0 1-1.8-2.3c-.9-1.7-1.4-4.9-1-5.3.5-.5.9 0 .9.9 0 1.1.9 4.1 1.4 5 .5.8 1.7 1.5 2.4 1.5.2 0 .7-.6 1.2-1.2.8-1.3 2.7-3 3.4-3 .6 0 1.3 1 1.5 2 .1 1 .3 1.2.8 1.3.8.2 2.5-.6 4.2-1.8 1.4-1.1 1.5-1.2 1.5-.5s-2.7 2.6-4.3 3c-.8.2-1.4.5-1.5.7 0 .1.5.5 1.3.7 1.3.4 1.3.4 3.3-.5 1-.5 2.5-1.4 3.1-2 1.2-1 1.8-1.3 1.8-.8s-2.6 2.7-4.1 3.4c-.9.5-2.2 1-3 1.2-.8.1-1.4.4-1.4.6 0 .4 1.2 1.3 2.2 1.8 1 .4 3.1 3 3.5 4 .3.9-.3 2-1.2 2.7-.4.3-.8.7-.8 1l-1 1c-1 .8-1.1 1-1 1.8 0 .5.6 1.7 1 2.6 1 1.8 1.5 3.6 1.6 5.4 0 .5.1 1 .3 1 .4 0 2 1.7 2 2 0 1.6 2 2.2 3.3 1 .7-.5.8-.7 1-4.5.4-4 .6-4.6 1.7-6l.6-.8-1-1.2-1.2-2c-.7-1.6-1.9-3.1-2.6-3.5l-1.3-1-.8-.4-.4-.7c0-.5 0-.9.5-1.3.5-.6.8-.7 3-.7 2.9 0 2.8 0 2.8-2.6 0-1.7-.1-2.2-.8-4.7-.3-1-.3-1.5.4-3.7.5-1.7.6-2.8.5-3.4-.2-1.1-.6-1-.7.4 0 .8-.1.9-.9.9-1-.1-2-1.4-2.4-2.9-.7-2.8-1.2-6.3-1.3-8.2V41l-.9-.2c-.4-.1-1-.5-1.2-1l-1.6-2.4c-1-1.4-1.3-2.3-2-5l-.9-4.6c0-.8-.5-1.8-.8-2.4-.6-1-.7-1-2-1s-1.5.1-1.7.6v1c.1.4 0 2.6-.3 5.1-.4 4.3-.4 4.6 0 6.3.6 2.1.4 6.3-.2 7.3-1 1.5-2.2 1-2.8-1.2-.4-1.5-.2-8 .4-10.2.5-2.4.5-2.7-.3-2.9-.5-.1-.7-.4-1-1.5-.8-3-1-4.5-.9-5.8.2-1.4-.2-2.6-.7-2.6 0 0-.9.7-1.6 1.5-1.8 2-3.2 2.6-4.8 2.2-1.3-.4-2-.9-3-2.2-1-1.4-1-2.3 0-3l.8-.4.5 1.2.6 1.5c0 .6 1.3.9 2.3.5 1.1-.4 1.6-.9 3.5-3.4.9-1 1.3-1.4 3.5-2.2a23 23 0 0 1 7.9-2c3.9-.2 7.6.8 11 3.2l2 1.2a21.3 21.3 0 0 1 8 11.9 30 30 0 0 0 1 3.4c.3.4.6 1.6.7 2.6l.5 2.9c.2.6.3 1.8.3 2.7 0 1.8.3 2.2 1.6 2.2a14 14 0 0 1 4.7 1c.5 0 .4-1-.4-2.2-.9-1.5-.7-2.8.5-4.7 1-1.7 1.6-2.2 3-2.9 1.6-.7 2.6-.3 3 1 .5 1.7 1.3 2.8 2 2.8 1 0 2.3-1.3 2.3-2s.7-2 1.7-3c.6-.5 1.7-.4 3.4.3 1.6.7 2 1.3 2.5 3.5.3 1 .3 2 0 4.2v3.5c.1.6.2.6 1.6.5h2.1c1 .6.6.9-.9.9a6 6 0 0 0-2 .3c-.4.2-.4.3 0 1.6l.3 2c0 1 2 2 3.6 1.5.6-.1 2.4-2.4 2.8-3.6.3-.7.9-.4.8.3 0 .4-.4 1.2-.9 2-1 1.5-1 1.7-.1 1.7.4 0 .9-.3 1.4-1 1.2-1.4 2-1 .8.6l-.5.7.7.3a60 60 0 0 1 3.3 1.1l.4-1c0-.6.3-1.3.5-1.5.2-.5.2-.6 0-.7-.3 0-.7-.4-1-.7-.3-.3-1.4-1-2.3-1.3-2-1-2.3-1.1-1.9-1.6.6-.5.4-.9-.7-1.3-1-.4-3.2-2.3-3.2-2.7 0-.6.5-1 2.3-1.6 1.7-.8 1.8-.9 2.6-2.3l.7-1.6-.4-1.5c-.5-2-.5-2.1 0-2.1.9 0 1.6 4 .9 5.3-.4.7.2 1 .8.2 1-1.3 1.2-3.9.4-6.5-.2-.5-.1-.6.2-.6 1.1 0 1.6 2.3 1 4.9l-.3 2c0 .3 5.1 0 5.7-.4.3-.2.7-1 1-2 .6-1.8 1.4-2.8 2.7-3 1.7-.4 3.3.6 4.6 2.7l.6 1.1-.4 1.8c-.7 2.6-.5 3.6 1.7 8.1a60 60 0 0 1 2.9 6.2l1.6 1.3c.6.6 1.4 1.2 1.7 1.3.6.1 2.7 1.8 3.3 2.5.3.3 1 2 1.5 3.7l1.1 3.2-.2 3.5c-.1 1.9-.2 3.5-.1 3.6 0 .1 1.1.2 2.3.2 1.2 0 2.4 0 2.7.2.3.2 1 .2 1.6.2 1.2-.2 3.4.3 4 .8.3.2 1.8.3 3.8.3 2.2 0 3.5 0 3.7.3.5.5 0 .9-1.2.9-.7 0-1.2 0-1.2.2s.7.3 2 .2c1.6 0 2 0 2.7.5 1.2 1 1 1.5-1 2.5-1.7.8-2.1.9-4.8 1-1.6 0-3 .2-3 .4a57.8 57.8 0 0 1 6.4 2c6.3 2 8.3 2.3 10.1 1.4.9-.5 1.2-.5 1.5-.3 1 .8.1 2-1.8 2.6a13 13 0 0 1-5.3 0l-8.2-2c-.7-.2-2-.3-2.8-.3a37 37 0 0 1-4.2-.4 28 28 0 0 0-4.9-.3 91.5 91.5 0 0 0-10.5 1h-1l-.2 2-.5 3-.2 1 2.2.1a9 9 0 0 1 2.4.4c.2.2 1 .3 1.7.4 2.7.4 4.1.8 4.3 1.3 0 .2.3.5.6.5.8 0 3 .5 4 1 .4.3 1.5.6 2.2.7.7.1 1.7.3 2.1.5l2.2.6c.6 0 1.6.4 2.1.7l2.2.9c.7.2 1.4.5 1.6.7.4.5 1.3.5 2.5 0 1-.4 1-.4.8-1.6-.2-1.1-.2-1.2.6-1.2.6 0 1 .3 1.3.8.8 1.1.7 2.2-.2 3.2-2 2-3.7 2.4-13.4 2.5l-9-.1c-5-1.1-4.9-1.1-10-.9l-7.4.2h-2.4l-.6 1.3c-.6 1.2-.6 1.4-.3 1.7.5.5 2 .9 3.6.9.6 0 2 .3 3.3.6 2.8.8 4.2 1.1 6.1 1.5 1 .2 2.3.7 3 1.1l2.8 1.4c1.6.7 3.8 2.2 4.5 3.1 1.2 1.6 1 5-.4 6.5-1.8 2-6.7 3.5-9.2 3-1-.2-2.2-.2-4.5 0s-3.3.2-3.7 0c-1.3-.8 0-2 3-2.6l5-.2c4 0 4.1 0 5.6-.8 2-1 2.7-1.9 2.3-2.8-.5-1.3-.3-1.3-14.8-1.7a55.3 55.3 0 0 1-16.8-2.6c-2.2-.6-11-1.3-11.4-1a62 62 0 0 0 0 7c0 .6.1 1.4.3 1.5.2.2.3.5.3.8l.4 1.1c.3.5.4 1 .4 1.3 0 .3.2.5.3.5.2 0 .3.2.3.4l.4 1.1c.7 1.4.2 2.3-1.2 2.5-.6.1-1.5.4-1.8.7-.6.3-.7.3-.8 0l-1.2-1.4a8.4 8.4 0 0 1-1.3-1.8c-.2-.4-.5-.7-.7-.7-.3 0-.8-.3-1.3-.6-1.1-.6-1.3-.5-.8.6s.4 1.5-1 2.2c-1.4.7-1.4.6-.6 1.4.5.5.5.8.3 1.6-.4 1.7-2 2.4-5 2zm2.1-3.5c0-.5-1-.7-1.8-.2l-.6.3.7.3c1 .4 1.8.2 1.7-.4zm-6.5-2.1-.7-.3c-.2 0 0 .1.1.3l.7.2-.1-.2zm5.5-1.2c0-.2-.2-.4-.4-.4-.4 0-.5.3-.2.6s.6.2.6-.2zm-9-.5c-.2-.2-.2-.1-.2.2 0 .3 0 .4.1.3v-.5zm-.8.1c0-.3-2-.5-2.3-.2l1 .3 1.1.1c.1 0 .2 0 .2-.2zm-61.1-.6 3.4-.2c.7 0 1.5-.2 2.1-.6.9-.5 1.2-.5 1.6-.3.5.3.7.3 4.4-.5l4.3-.4c2.7-.1 3 0 4 .4.4.4 1 .6 1 .5.2 0 1.5 0 2.9.3 1.4.2 3 .3 3.3.2l1 .1c.2.5 1 0 1.9-.8.7-.8.7-.9 1.4-.4.8.5 1.5.6 1.5.2 0-.2.3-.3.6-.3.4 0 1.5-.4 2.5-1l2-.8c.4 0 3-2.8 3.9-4.2.9-1.5 1.4-3.5 1-4.5-.1-.4 0-.9.2-1.5.4-1 .4-1.2 0-3-.3-1.1-.9-2.8-1.4-3.8-1-1.7-1-1.7-1-5 0-2.6 0-3.2-.5-3.6-.9-1-.2-3.3 1-3.3.4 0 .8.2 1 .4.8 1 1 .2.3-1.5-.4-1-.5-1-1-.9-1.9.5-2.2.5-2.3.1l-.3-5c0-1.5-.3-2.5-1-3.9l-.8-2.2a1 1 0 0 0-.2-.6c-.2-.2-.3-.9-.4-1.5-.1-1 0-1.3.4-1.6.3-.1.5-.4.4-.5 0-.3.6-.7 3-1.8l1-.7-1.1-2c-1-1.3-1.3-1.5-2.1-1.6-2-.3-3.4 1.3-2.9 3.2.4 1.2 0 1.6-.7 1-.4-.4-.5-.9-.5-2 0-1.2 0-1.6.8-2.3 1-1.1 1-1.7 0-3.4-.3-.8-.6-1.8-.6-2.4 0-1-.6-2.8-1-2.8l-.7.7c-.2.3-.6.6-.9.6-.3 0-.7.6-1.4 1.8L96 64.8c-.7 1.3-.8 2.5-.4 3 .6.6.7 2 .3 2-.2.1-.5-.1-.7-.6-1.3-2.4-2.6-2.8-4.5-1-1 1-1.3 1.3-1.2 2.1 0 1.3.5 1.7 1.6 1.3 1.2-.4 1.8-.4 2 .1.3 1.2.7 2 .9 2 .1 0 .2.2.2.6 0 .4.1.7.3.8.4.3.3 1-.2 1.1-.7.3-.9.6-.9 1.7 0 .6-.2 1.8-.5 2.7a57.7 57.7 0 0 0-2 12.7c0 4.1.2 4.8.9 2.4.5-1.6.5-1.6.8-1.2.5.4-.3 2.6-1.4 4.4-1.2 1.8-3.5 7-3.9 8.8-.5 2-.4 2.3 2.2 6.1.4.6.7 1.5.7 1.9 0 .4.3 1 .7 1.3.4.4.6.8.6 1 0 .5 1.2 1.2 2.2 1.3 1 .2 1.2.3.8.9-.1.3-.5.4-1 .3a97.3 97.3 0 0 0-24.2 2c-6.4 1-10.5 1.2-11.6.5-.3-.3-.5-.6-.4-.8 0-.3 0-.4-.5-.3-.6 0-1 1.1-.5 1.6.7.6 5.8.7 10.9.1zm28.9-4.8c-.2-.2-.3-.4 0-.6.4-.3 3.8-.4 4.2-.1.7.4 0 .8-2 1-1.5.1-2 0-2.2-.3zm-1.3-1.9c-.3-.2-.6-.6-.6-1 0-.2-.3-.5-.6-.6-.8-.2-2-1.4-2-1.9 0-.4.7-.4 1.9 0 1.1.6 1.3.2.2-.5-1.9-1.2-2.7-2.5-1.8-2.8.5-.2 1.8.3 1.8.6 0 .2 1.4 1.3 2.8 2.3l-.2.6c-.3.6 0 .8 1.8.8 1.7 0 2 .2 1.8 1.3-.2.9-.8 1.2-3.2 1.5-1 0-1.5 0-2-.3zm2.7-.6c.1-.3-1.7-.6-2.2-.4-.3.1-.3.2.1.4.7.3 2 .3 2 0zm-.6-1.5c-.2-.1-.5-.1-.8 0h.8zm-1.4-.2-.5-.3-.5.1c0 .2.2.3.5.3l.5-.1zm-.7-17.2c-.2-.2-.2-.4 0-.7.3-.8.7-3.8.4-4.1-.4-.5-.2-1 .8-2.7a8 8 0 0 0 1.1-2.1c0-1.2.6-2.4 1.5-2.8.5-.3 1-.5 1.3-.5.3 0 1.2 1.8 1.2 2.5 0 .6-1.2.5-1.5 0-.2-.6-.6-.3-1 .9-.1.5-.5 1.3-.8 1.6-.3.5-.4 1-.3 1.6.1.6 0 1.1-.2 1.5-.3.3-.4 1-.5 1.6 0 .8-.2 1.6-.6 2.4-.8 1.2-1 1.3-1.4.8zM125 124c-.3-.3-3.5-.7-3.2-.4.2.3 1.8.6 2.8.7.4 0 .6-.1.4-.3zm15.2-3h-1 1zm49.8 0a1 1 0 0 0-.6 0h.6zm-47.5-1c.3-.4 0-.5-.8-.3-.7.2-.7.2-.3.4.8.3.9.3 1 0zm-5.2-1c.2-.4.2-.7 0-.7l-.2-.5c0-.3.3-.4 1-.4h1l-1-.2c-1-.2-1-.4-.4-1.7.2-.5.3-.8.1-.9-.1 0-.2-.3-.1-.5 0-.2 0-.4-.2-.5-.2 0-.2-.2 0-.6.4-.8.4-.9 0-.9l-.7-.4-.5-.4c-.2 0-.2 7.2 0 8.4h.4c.2 0 .5-.2.6-.6zm-13.9-1c.3.1.7.1.8 0a4 4 0 0 0 1.2-2.1c0-.6 1.5-1.6 2.7-1.8.5-.1.7-.3.5-.5h-1.4l-3 .6c-1 .2-1.9.4-2 .7-.4.5-3.3.8-3.5.4-.1-.2-.5-.1-1 .2-1.2.6-3.1 2.5-3 2.8a7 7 0 0 0 2.5 0l2.9.1c.4.2 1 .1 1.7-.1l1.6-.3zm18.7.3c0-.3-.3-.6-.5-.8-.4-.2-.6-.2-.6 0 0 0 .1.2.3.2.1 0 .3.2.3.5s0 .5.2.5.3-.2.3-.4zm-30.4 0c0-.4-1.6-1-2-.8-.7.3-.4.7.6.8l1.2.1.2-.1zm36.9-.4c.2-.3 0-.3-.9 0-.3 0-.6.2-.6.3 0 .3 1.3 0 1.5-.3zm-111.9-1.1c9.3-2 14.4-2.4 19.7-1.1 3.7 1 6.4 1.2 8.5 1 3-.2 5.4-1.5 6-3.2.3-.8 1-1 1.5-.5.3.4.8.5 4.2.4 2.2 0 4.3 0 4.7.2l1.6-.1c.7-.3.9-.5.8-.9-.1-.3-.3-.5-.6-.3-1 .4-1.6.4-1.6 0s.2-.7.5-1c.3 0 .6-.4.6-.7l.6-2.1c.8-2 .8-2.8-.3-4.4-.6-.9-.7-1.4-.7-2.6 0-2.2 0-2.2.7-2 .8.1.8 0 .3-1.8-.4-1.3-.4-1.6 0-4.2.7-4 .8-5.5.3-5.5-.3 0-.4-.2-.4-1 0-.9-.4-1.6-.8-1.6-.1 0-.2.4-.2 1 0 1.1-.4 1.6-1 1.1-.5-.4-.5-1.2.2-3a7 7 0 0 0 .4-3.6c-.2-2-.2-2 .5-3 1.2-1.6 2.2-2.6 2.7-2.5.3 0 .5.6.6 3 .2 3.8.6 5.8 1.7 8.7 1 2.6 1 2.8.7 2.8-.1 0-.6-.8-1.1-1.9l-1-1.8-.2 2.4a32.8 32.8 0 0 1-.8 5.7l.6-.9c.5-1.1 1.3-1.6 1-.6-.4 1.3-.6 2.6-.4 2.5l1-1.3c.3-.7.7-1.1.9-1 .2.1 0 .5-1.2 2.8a6 6 0 0 0-.9 2c.4.3 1-.3 1.6-1.5.3-.8.7-1.4.9-1.4.4 0 .4.3-.1 1.6-.3.7-.3 1.2-.2 1.4.3.3 0 1.2-1.2 3.7-.5 1-.8 1.9-.7 2 .1 0 .3 0 .4-.2.4-.7.6 0 .3.8-.2.4-.3 1-.2 1.2.1.7 1.6-3 2.4-6.1.6-2 .7-3.2.7-5.8 0-1.8.2-4.3.4-5.6.8-4.5.8-4.8.2-5.4-.4-.4-.6-.8-.6-1l-1.7-2c-1-.9-1.7-1.7-1.7-1.9l.5-1c.4-.4.5-.9.4-1.2-.1-.3-.3-.3-.3-.1-.2.4-1 .4-1 0l.4-.3c.2 0 .1-.3-.3-.8-.7-.8-1.8-1-3-.3-1 .5-1.7.5-1.9 0-.4-1.4-1.2-6.7-1-7 0-.3-.2-.7-.5-1-.7-.6-.7-1.4.1-1.4.8 0 2.1-1.4 2.7-2.7.5-1.3.6-5 0-5.8-.2-.4-.1-.7.6-1.7l1-1.3-.2-4.4-.1-4.7c-.2-.4-1.7.3-3.2 1.4-.6.5-1.2 1-1.4 1-.1 0-.4.2-.7.6-.2.4-.7.7-1 .7-.4 0-1.3.7-2.5 2-2 2-2 2-1.4 2.4.7.4.7.8.1 1-.9.1-1.6-.5-2-1.6 0-.6-.3-1.4-.4-1.7-.2-.9-2.6-2.2-3.2-1.9-.2.2-.7.8-1 1.4-.3.9-.4 1 0 1.3.2.2.2.3 0 .6-.3.4-.3.6 0 1.4.3.5.6.9.8.9l.5.6c.2.5.8.9 2.1 1.3.7.2.6.9 0 1.3-.5.4-.5.5-.3 1.2.2.4.3 2.4.3 4.8-.1 4.4-.3 5.1-2.3 9.8l-.7 2c-.3.7-1.5.3-2.2-.6l-.5-.6-.3.8c-.3.8-.3 1 0 1.8.3.6.4 1.5.4 2.7v2c0 .5 1.5 1.5 2 1.3.2 0 .4-.4.5-.8.3-1 .9-.8 1 .4.4 2.2.3 3.2-.8 5.3a48.2 48.2 0 0 0-3 7.7c-.3.8-.5 3.6-.6 6.7l-.2 5.4 1.2 1.9a149.4 149.4 0 0 0 2.8 4.9c0 .2-.5.7-1 1.1-1 .7-1.4.7-3.3.7-1.2 0-3-.2-4.1-.4-4.7-1.1-6.3-1.3-10.9-1-3.6.3-4.9.5-7.5 1.2a26.1 26.1 0 0 1-11.3 1.6c-2.4-.7-2.2-2.1.4-3 1.5-.4 1.6-1 0-.6-1.3.3-2.2.9-2.7 1.7-.5.9-.3 1.4 1.2 2.2 1 .6 1.2.6 3.7.5 1.5 0 3.6-.3 4.5-.5zm32-14.8c-.3-.6 0-1 .4-.5.3.2.3.4 0 .6-.2.2-.3.2-.5-.1zM72 84c-.2-.6.3-1.7.8-1.7.6 0 .7.5.3 1.2-.4.9-.8 1-1 .5zm-.9-2.8c-.1-.2-.3-.6-.3-1l-.4-1.4c-.3-.4-.5-1.4-.6-2.1-.1-1 0-1.3.3-1.3s.4.2.4.6c0 1 .3 1.5.7 1.5.2 0 .4.6.5 1.8.2 1.8 0 2.5-.6 1.9zm1.8-1.9c-.6-.4-.8-1.6-.6-3 .1-.9.3-1.2.6-1.2.4 0 .5.3.6 2 .1 2.3 0 2.7-.6 2.2zm4-18.6c-.6-.4-.7-1.4-.3-1.9.2-.1.1-.4-.2-1-.3-.3-.6-.8-.6-1 0-.6.8-.9 1.4-.5.3.2.5.2.6-.3 0-.4.3-.5.8-.3.7.2.7.1.6-.7-.2-1-1.7-3.3-2.5-3.9-.9-.6-1.3-.3-1.6 1.4-.3 1.4-.7 2-1 1.6-.3-.2.5-3.3 1-3.7.8-.8 2.2-.6 3.1.4.7.7.9.8 1.2.5.7-.5 1.6-.2 1.7.6 0 .9-.7 1.4-1 .7-.3-.5-.8-.6-.8-.2l.4.6c.2.3.3.6.2.7 0 .2.1.8.4 1.5.9 2 .7 2.7-.8 3.5-.7.4-.9.6-.9 1.4 0 1-.7 1.3-1.6.6zm65 52.9.1-2.5-.8.3c-.6.2-.8.4-.6.6.4.4.4.7 0 .7-.3 0-.6.3-.7.5-.3.5-.2.6.4.6.4 0 .6.1.6.5 0 .3-.2.5-.4.6-.4.1-.4.1 0 .2.8 0 .9.5.2.7-.4.2-.3.2.1.4h.7l.4-2.6zm-28.3 1.7c0-.1 0-.4-.2-.5-.3-.2-.3-.3.2-.8l1-.5c.2 0 .4-.1.4-.3 0-.1.2-.2.5-.2.4 0 .7-.2.7-.6.1-.3.3-.5.7-.4l2-.5c.8-.3 1.9-.6 2.3-.6.6 0 .7-.1.6-.5l-.2-.7c0-.1-1-1.2-2.3-2.4-2-2-2.3-2.4-2.7-3.9-.5-1.8-1.4-3.8-1.9-4l-2-2.6c-2.3-3.5-3-4.2-3.3-3.3-.2.3.5 4 1.2 6.2.4 1.5 1 6.2 1 8 0 1.3-.3 5-.5 6.2-.2 1.1.2 1.5 1.2 1.3.3-.1.6 0 .6.1 0 .4.4.4.7 0zm.9-3.9c0-.4 2-1.9 2.5-1.9.9 0 .8.5 0 .8l-1.5.8c-.8.6-1 .7-1 .3zm-.8-1.8c0-.6 2.5-2.7 3.2-2.7.2 0 .5.2.5.4l-.2.4-1.5 1c-1.2 1-2 1.4-2 1zm-.3-2.7s.3-.5.7-.8c.3-.3.6-.8.6-1 0-.7.5-1 1-.6.5.5.5.8-.5 1.8-.9.8-1.8 1.1-1.8.6zm-.4-2 .3-1.7c0-1.2.3-1.6.8-1.4.9.3 0 4-1 4-.2 0-.2-.2 0-.8zm30.4 10c-.1-.5 0-.6.9-.7 1.7-.3 1.8-.4.8-.4s-1.6-.6-1-1.2c.2-.2.2-.3 0-.6-.2-.2-.2-.5 0-.8.4-1 .3-1.3-.3-.7-.6.5-1 1.8-1.2 3.8-.1 1.2 0 1.3.4 1.3.5 0 .5 0 .4-.6zm5-.8c0-1-.1-1.1-.5-.8-.2.3-.3.7-.2 1.4.2 1.3.6 1 .6-.6zm45.7 1c0-.6-.8-1.9-1.7-2.5-2.9-2.2-7.2-3-16.7-3.2-2.8 0-5-.2-5.2-.3-.2-.2-.8-.4-1.4-.4-1-.2-2-1-2-1.9 0-.6.6-1.6 1.9-3.5.9-1.3 1.8-3.6 1.8-4.4 0-.4-.5-.2-1.3.6-.5.4-1 .8-1.3.8-.7 0-.2-.9 1.3-2.3l1.6-1.6.3-2.3c.1-1.3.3-2.9.5-3.5.8-3.2-.4-6.2-3.4-8.8-1.6-1.3-2-1.6-3.2-1.7-1.2-.2-1.4-.3-1.5-.9-.1-.4 0-1 .1-1.3.3-.5.3-.8.1-1.4a11 11 0 0 1-.4-1.6c-.1-.5-.5-1.2-.9-1.6-.5-.5-.7-1.2-.8-2.2-.2-1-.3-1.4-.7-1.4-.2 0-.5-.1-.7-.3-.5-.4.6-2.4 1.6-2.9.4-.2 1-.7 1.2-1 .4-.6.4-.8.1-1.8l-.9-1.9c-.4-.6-.6-.7-1.3-.6-.5.1-1.2.6-1.7 1.1-.7 1-.8 1-.7 2.6l.4 2.4c.4 1 .1 2-.7 2.2-.3 0-.8.5-1.1.9-.7 1-1.9 1-2.1.2-.1-.3-.4-.5-.9-.5-.9 0-1.1-.5-.7-1.6l.4-1.2c0-.5.9-.7 1.3-.4.3.1.5.6.6 1.1l.1 1 .7-1.5c1-2 1-2.3.9-3.2-.2-1-1-1.4-2.3-1-1.3.3-1.8 1-2 2.7l-.4 1.7c-.4.3-.8-.6-.8-1.8 0-1 .1-1.5.7-2.3.5-.6.6-1.1.5-1.3-.4-.5-3.2-1.2-6-1.5-3.8-.4-3.9-.4-4.2 0-.4.8 0 1.9 1.5 3.4.9 1 1.3 1.5 1.1 1.8 0 .3-.3.4-.5.3-.6-.2-.5 0 .2 1 .4.5 1 1.8 1.3 2.9.4 1.6.7 2.2 1.4 2.7.5.4 1 .7 1.3.7.6 0 1.7.7 1.7 1.2 0 .3-.2.4-1 .2L149 75l.2 1.4.2 2.2c0 1.3.3 1.5 1.3 1 .7-.5.8-.5 1.2 0 .6.5.3 1.3-.5 1.1-.5-.1-.7.1-1.7 1.7-1.2 1.9-2.4 2.9-3.7 3-1.2.1-2.2.5-2.2.9 0 .2.2.3.3.3.1 0 .3.2.3.4 0 .4 0 .4.3.2.9-.7 3.7-.5 5 .3.1.2.8.4 1.3.5 1 .1 1.1.1 2.3-1.3 1-1 1.4-1.4 2-1.4.6 0 .7.1.7.7 0 .8.3.8 1.3-.1.4-.5 1-.9 1.3-1 .3 0 .6-.3.6-.4 0-.1.2-.3.5-.4.3 0 .7-.6 1-1.2.3-1 1-1.4 1.3-.7.2.5-1.2 2.9-2 3.2a15 15 0 0 0-3 2.1c-.3.5-1.2.6-1.3.1-.1-.2-1.5.6-3.9 2.3-.5.4-1.1.7-1.4.7a1 1 0 0 0-.7.3c-.4.5-.8 2.7-1 5.2-.2 2-.1 2.1.7 3.6.5 1 .8 2 .8 2.6 0 1 1.4 4.2 1.8 4.2l1.5 1.1c1.2 1 1.2 1.2.8 1.6-.4.4-.4.5 0 .6.4.2.8 0 .8-.5s2-.5 3.8 0c.9.2 2.6.3 4 .3 2.2 0 2.8.1 4.1.8 1.6.7 1.7.7 8 .7a92 92 0 0 1 10.1.5c3 .2 4.1.4 5.6 1.3.5.4 1.2.7 1.5.8.3.1.8.6 1 1 .5.8.9 1 .9.5zm-31.3-9.8c-.3-.3 0-1 .6-1.3 1-.6 1.5.4.6 1.1-.6.5-1 .6-1.2.2zm2.8-1.2c-.2-.9.3-1.4.9-1 .5.5.4 1.5-.2 1.6-.3 0-.5-.1-.7-.6zm1.4-1.3c-.3-1.2-.1-1.9.4-1.9.3 0 .4.4.5 1.4 0 1.1 0 1.4-.4 1.4-.2 0-.4-.3-.5-.9zm.5-5 .6-1.6 1-2c0-.8.9-1 1.4-.4.6.9.4 1.8-.8 3.1-1 1.2-1.8 1.6-2.2 1zm-4.9-1.4c0-.7 1-1.6 1.2-1.2.2.4-.5 1.6-1 1.6l-.2-.4zm3 .2c-.1-.3.6-1.8 1.4-2.6.5-.6.7-.7 1.1-.4.7.4.6.7-.5 2-1 1.2-1.6 1.5-2 1zm-6-.3c-.2-.3.6-1.6 1-1.6s.5.9 0 1.4c-.5.5-.8.6-1 .2zm-2.2-.4c-.2-.5.1-1.2.6-1.2s.7.4.5.9c-.2.6-.9.8-1 .3zm1.8-9c0-.3.3-.5.7-.6.8-.1.8.6 0 1-.6.4-.8.4-.7-.3zM149 67.2c-.6-1.4-.3-2 .9-2 1.5 0 2.3 1.8 1.2 2.7-1 .9-1.5.7-2-.7zm-.2 43.2c0-1.7 0-2.3-.3-2.2-.2 0-.4.4-.4.6 0 .3-.2.6-.6.7l-.7.1.6.4c.5.2.6.5.5.9 0 .3 0 .7.2 1 .2.2.2.3 0 .4-.4.1-.4.2 0 .4.6.4.7 0 .7-2.3zm-62.3.7c-.1-.2-.3-1-.3-1.8-.1-.9-.4-1.5-.7-1.8-.2-.3-.5-.4-.6-.4a17 17 0 0 0-1 3.8l.7.2c.3 0 .7 0 1 .2.6.5 1.1.3.9-.2zm47.6-.5c0-.3 0-.6.2-.8.4-.3 4-.9 5.4-.9 1.1 0 1.7-.7 1.1-1.7-.4-.8 0-1.2 1.3-1.2l1.2-.1c.4-.2.4-.2 0-.7-1.1-1.2-1.4-5.3-.5-6.3.6-.6.6-.7-.5-2a5 5 0 0 1-1-1.4c0-.6.8-.3 1.3.3.2.4.5.7.7.7.2 0 .6.4.7.8.5 1.2 1 1.4 1.5.8.4-.4.4-.6.2-.7-.6-.2-.4-1 .5-2.2.5-.7.7-1.3.6-1.5-.1-.4-.3-.3-.8.3s-.7.7-1 .5c-.2-.3-.1-.5.3-1.2l1.1-1.4c.4-.3.5-.7.4-1-.3-.9-.4-1-1-.2-.6.9-.9.5-.3-.5.5-1.1.5-1.2-.4-1-.7.2-1 0-1.4-.4-.3-.4-.5-.5-.6-.3-.2.4-1.2.5-1.2 0l.5-1.1c.5-1 .3-1.4-.6-1-.5.2-.8.8-1.3 2.5-.4 1.2-1 2.6-1.4 3.1l-1.1 2.8c-.4 1.1-1.1 2.6-1.9 3.8a20.6 20.6 0 0 0-3 7c-.3 1.4-.6 1.8-1.4 1.8-.8 0-4.5 1.5-5 2-1.2 1.2 0 1.6 4.3 1.6 3 0 3.3 0 3.1-.4zm.4-4.3c0-.1.5-.4 1.1-.5l2-.6c1-.3 1.7-.3 1.6 0-.1.4-3 1.4-4 1.4-.4 0-.7-.2-.7-.3zm1.6-2c.1-.1 1-.6 2-.9 1.3-.5 1.8-.5 2-.3.4.4.1.6-1.6 1.2-1.8.5-2.9.6-2.4 0zm2.1-2.2c0-.6 1.4-2.2 2-2.2.7 0 .4.7-.7 1.7-1.2 1.1-1.3 1.2-1.3.5zm3.8 8c.7-.2.6-.2-.7-.4-2-.2-5.5 0-5.3.3.1.2 5 .3 6 0zm3.1-.5c-.2-.2-.3-.5-.2-.7 0-.9-.4-1.3-1.5-1.3-1.2 0-1.5.3-1.3 1 0 .2.5.3.9.3s1 .3 1.2.6c.6.6 1.4.7 1 .1zm6.2-.7c.5 0 .5 0 0-.5l-1-.5c-.3 0-.5.7-.3 1.2.1.4.2.4.4.2s.6-.4.9-.4zm-102-2c.8-.2.9-.9.2-1.6-.3-.3-.5-.6-.4-.7l4.2-.3c4.2-.1 4.5-.2 4.8-1.3 0-.2.3-.2.9 0l2 .5 1.3.2v-1c0-.9-.3-1.5-1.6-3.3l-2.2-2.9c-.7-.6-1.8-.8-2.6-.4-.3.1-.7 0-1.2-.5-.6-.7-.7-.8-.5-2.1 0-.8.3-1.9.6-2.4.2-.5.3-1.2.2-1.5a9.7 9.7 0 0 0-3-3.7c-.6-.4-1.1-1-1.2-1.3-.1-.3-.8-.7-1.8-1-1.9-.8-2.7-1.8-2.5-3 .2-1 1-2 3.5-5.2 1-1.3 2-2.5 2-2.7 0-.4-1.2-.3-2.3.2a3 3 0 0 0-1.3 1.3c-.2.5-.5.9-.7.9l-.5.8c-.4.9-1.3 1.6-2.2 1.6-1 0-.9-.7 0-1 .6-.3 1.2-1 2.2-2.4 2-3.1 3.2-3.5 6.1-2 .8.3.8.3.8-.4 0-1-.6-1.8-1.2-1.6-.2.1-1 0-1.7-.2-1.1-.3-1.4-.3-2.2 0-.5.2-1.7.4-2.8.5-1.6.2-1.9.2-2-.2-.2-.5-.2-.5 2.6-1 3-.4 6-.3 6.4.4.2.3.9-.3.9-.9 0-.2-.4-.7-.9-1-.5-.3-1-1-1.2-1.7l-.5-1.2 1.1-1.8c1.2-2 1.4-2.4 1-3-.5-.3-.2-.8.5-.8 1.2 0 2.4-.8 2.9-1.9.3-.6.5-1.4.5-1.8 0-.3.3-.9.6-1.2.8-.6 1.2-2.2.6-2.4-.6-.2-.5-1 .4-1.8.9-.9 2-3.8 1.8-4.8-.1-.5 0-.7.5-1 .3 0 .6-.3.7-.4.2-.3-.7-.7-1.1-.5l-2.3.5-3.6.5c-1.7.2-3.2 1.2-5.7 3.6a45.4 45.4 0 0 0-4.3 5s.3.3.8.4c.4.2.8.5.8.7 0 .4-.4.4-1.7 0-.9-.2-1.1-.1-2 .4l-1.3 1.3c-.3.8-.3 1 0 2.3.9 2.6 2.7 3.6 4.2 2.4.7-.5 1.6-.7 1.6-.3 0 .4-1.4 1.6-1.8 1.6l-1 .4-1.9.7c-1.3.3-3 1.5-3.2 2.4 0 .3-.6 1.3-1.2 2.3-1.1 1.9-1.1 1.9-.6 2.5.3.3.4.6.1 1.7-.2 1-.2 1.8 0 3 .5 2.8.5 2.8-.1 2.9-.5 0-.7.3-1 1.8-.1.9-.2 2 0 2.3 0 .3 0 1.8-.2 3.4-.3 2.6-.3 3 0 4.2.3.7.5 1.5.5 1.8 0 1.3 1.7 5.5 3 7.3l1.3 2.4c0 .3.8 1.4 1.8 2.4 2 2 2.1 2.3 1.6 2.6-.2.2-.1.4.4.8.6.5 1 .6 2.2.5a9 9 0 0 0 2-.2zm-3.9-49a.6.6 0 0 1-.3-.4c0-.2-.4-.7-1-1-.5-.4-.9-.9-.9-1 0-.4 1.7-.3 2.4.1l1.3.7c.7.3.7.9 0 1.4-.8.5-1 .5-1.5.3zm6.6-7.5c-.2-.2-.4-.7-.5-1.2-.2-1 .5-1.3 1.4-.7.9.5.8 2 0 2.2-.3 0-.7-.1-.9-.3zm94.2 56.2h-2.4c-.7 0-.2.1 1.2.1h1.2zm-21-.2c0-.3-3-.3-3.3 0-.1 0 .6.2 1.6.2s1.7-.1 1.7-.2zm24.1-2.2c0-.9 0-1.6-.2-1.7l-1.2.2c-1 .3-1.1.4-1.2 1-.1 1.4.4 2 1.6 2h1zm-1.5-.3c.1-.4.7-.5.7-.1 0 .1-.1.3-.4.3-.3.1-.4 0-.3-.2zm1-2.4c0-.3-.7-.3-1.5.1-.6.3-.7.3-.8 0-.2-.4-.9-.4-.9 0 0 .8.6 1 1.9.5.7-.2 1.3-.5 1.3-.6zm-64.8 0c0-.3-.1-.5-.3-.5v.5l.2.6v-.6zm46.3 0c.6-.2.5-.2-.4-.2-.5 0-1 0-1 .2 0 .3.4.3 1.4 0zm-43.4-1.7c0-.1-.2 0-.4.3l-.4.8c0 .1.2 0 .4-.3l.4-.8zm59.3.2c.7-.7 1-1.2.9-1.5-.3-.6-.5-.5-1.2.5-.3.5-.8 1-1 1-.4 0-.4 0-.2.6.3.6.4.5 1.5-.6zm1.5.6c.6-.5.8-1 .2-1-.2 0-.6.4-.8.7-.5.8-.3.9.6.3zm61.4-.1c-.2-.2-.9-.3-1.4-.3-1 0-1 0-.3.3l1.5.2c.5 0 .5 0 .2-.2zm-90-.3c0-.1-.4-.2-1-.2-.7 0-.8 0-.4.2.7.3 1.5.3 1.5 0zm84.6-.3c-1.6-.3-3-.5-3.3-.4-.7.1 3.5 1 4.9 1 1 0 .6-.2-1.6-.6zm7.9.4h-.8c-.3 0-.1.1.3.1h.5zm-76.2-1.9c1-1.5 1.8-3 1.8-3.8 0-.4-3.2 0-5 .6-2.5 1-5.6 1.8-6.6 1.9l1.8.2c2 .1 2.5.2 2.5.5 0 .2-.3.5-.7.6l1.3.1c1.6 0 2 0 2 .4 0 .3-.4.5-1.4.6l-1.5.3 2.3.2c1.2 0 2.2.1 2.3.2l1.2-1.8zm78.6.8c.5-.5.5-1.6.1-1.6-.1 0-.2.2-.2.5s-.1.8-.3 1c-.3.7 0 .7.4.1zm-15.5-.3-1.7-.4-1.3-.1 1 .4c1.3.4 2.7.5 2 .1zm-79.5-.3c.1-.1 0-.2-.2-.2s-.5 0-.6.2c0 .2 0 .3.3.3.2 0 .4-.1.5-.3zm55.7-1c.8-.4 1.2-.9 1.6-1.8l.9-1.7c.4-.5 1.7-3.8 1.8-4.7 0-.6.2-.7 1-.7l.8-.1-.6-2.2c-.7-2.2-.6-2.7.4-3 .5 0 .7-.3.7-.7V80c0-1.8 0-2-1-3.4a6.7 6.7 0 0 0-2.8-2.4 25.7 25.7 0 0 1-4.5-2.7c-1-.8-1-.9-.8-2 .2-1.9.1-4.4-.2-4.8-.4-.5-1.1-.4-2 .3-1.5 1.3-3 1.6-4.1.8-.6-.3-.7-.3-1 .3l-.5.8-.5.9c-.8 1-.8 3.4 0 4.5.4.5.9 1.5 1 2.2.6 2.7 1.3 3.7 3.3 5.2 2.6 2 3.3 2.7 4.5 5.3l1.1 2.3v2.9a22 22 0 0 1-.6 5c-.8 2.9-.5 3.3 1.5 2.3zm13.3.1 4.2.2c2 .2 2.2.2 1.4-.2-1-.5-5-1-8.3-1-2.9 0-7 .8-6.7 1.2h3.8l5.6-.2zm-72.6-.4c-.3-.2-.5-.5-.5-.6 0-.1.8-.2 1.7-.2 1 0 1.8-.1 1.8-.3 0-.2-.4-.3-1.2-.2a3 3 0 0 1-1.3-.5c-.8-.5-1-.5-1-.2-.2.4-.4.4-1 .3-.7-.2-.7 0 .4 1.4.4.4.9.8 1.1.8.4 0 .3 0 0-.5zm-104-.8c.4-.3.5-.5.3-.5s-.8.4-1.3.8c-.7.6-.8.7-.2.5l1.2-.8zm51.5-1.6c.4-1.9.4-1.9-.2-3.1a34.8 34.8 0 0 1-2.8-7.5c-.3-1.8-1.4-6.2-1.7-7-.2-.3-.1-.3.2-.2.2 0 .5.4.6.8.3.7.3.7.5-.3 0-.6.4-1.5.6-2l.5-1-.6.2c-.5 0-.7 0-.8-.8 0-.4-.3-.8-.4-1l-.2-.7c0-.8.5-.6 1.1.3l.4.8v-.8c0-1.1-.3-1.5-1.4-1.3-.8.1-1 0-2-1-1.2-1-1.9-1.3-2-.4-.1.2.1.5.5.7 1 .4 1.2 1.6.6 3.2l-.7 2-1.6 3.5-1.3 2.8c0 .2.3.4.6.4 1 0 1.3.3 1.8 1.7.3 1 .6 1.3 1 1.3.2 0 .4.3.5.7 0 .3.2.8.4 1 .2.2.2.9.2 1.6-.2 2 .1 1.9.5 0 .2-1.2.3-3 .1-5.2-.1-3 0-3.4.3-3.7.4-.3.5-.3.7.4l.6 1.2v2.8l-.1 2.4.7-.2c.7-.1.8 0 .6 3.1V92c0 1.2-.3 1.6-1.2 1.6-.7 0-.7 0-.5-1.4.5-4 .5-4 0-2.3L58 92c0 .6-.2.7-.7.7-.6 0-.8-.4-.7-1.1 0-.2-.1-.2-.3-.2-.2.1-.4.8-.5 1.6l-.1 1.3 1-.1c.6-.1 1.3 0 2.7.8a11.3 11.3 0 0 1 2.8 1.7l.6-2zm58.2 1.1c1.1 0 1.6-.1 1.7-.4.2-.7-.2-.8-.6-.3-.2.3-.4.4-.7.3-.5-.4-2.1-.2-2.6.2-.3.4-.3.4.2.3l2-.1zm-36.1-1c-.1-.3-.2-.1-.2.3 0 .5 0 .7.1.5.1-.2.1-.5 0-.8zM14.7 94l.5-.6-.8.4-1.3 1-.5.6.8-.4 1.3-1zm21.2-.2a5 5 0 0 1-1-1.1c0-.2-.4-.4-.8-.7-.9-.4-.9-.4.3.9 1.4 1.5 2.2 2.2 2.3 2l-.8-1zm-18.4-1.6.5-.5c-.4 0-1.8.8-2.3 1.3l-.5.6.8-.5c.4-.2 1.1-.6 1.5-1zm105.8.6a731.7 731.7 0 0 1 14.2-.6c.6-.3 1.1-1.5.8-1.8-.2-.1-10.8.7-16.3 1.3-2.1.2-3.6.2-6.7 0-3.8-.4-4-.4-4.3 0-.5.7-.4.7 1.4 1.1 1.5.4 3.7.4 10.9 0zm-59-2c.2-.5.2-.8 0-1.4a55.6 55.6 0 0 1-4.3-8.7c-.1 0 .1 2.2.6 4.1.3 1.3 1.5 4.6 2.1 5.8.9 1.6 1 1.6 1.6.3zm55.6-.1-.5-.5c-.4-.3-.4-.4.2-1.2l.6-.9-.6-.4c-1-.7-.6-1.3 1-1.1.3 0 .6 0 .7-.2.1-.2-.1-.3-.5-.3-1.2 0-1.7-.4-1.8-1.6-.1-.6-.3-1-.5-1-.6 0-.1-.8.7-1.1 1-.3 1.3-.8.5-.8a.4.4 0 0 1-.4-.4c0-.3.4-.4 1.4-.4h1.4l-1.5-.3c-1.7-.2-2-.4-2-1 0-.3.2-.3 1-.2l1.2.2-1-.5c-.7-.3-1-.3-1.5 0-1.2.6-1.6 2-1.8 5.3 0 1.6-.3 3.6-.5 4.4-.2.8-.3 1.5-.2 1.6.2.2 1.2.4 3.3.5l.8-.1zm-89.7-.2-.4-.3c-.3 0-.4 0-.3.1.2.3.7.4.7.2zm98.7-.3c1.2-.2 1.3-.3 1-.6-.6-.6-1-1.7-1.5-4.3-.7-3.7-2.5-6.9-3.8-6.9-.6 0-.9.4-.5.7.4.3.3 1.1-.3 1.3-.4.1-.4.2.1.8.4.4.8.7 1 .7.3 0 .5.6.3 1.3 0 .3 0 .5.3.5.6 0 .8.6.4.8-.2.2-1 .3-1.6.3-.8 0-1.2 0-1.1.2 0 .2.8.3 1.6.3 1.6 0 1.9.5.7 1.2l-1.2 1c-.4.5-.4.6.4 1.3.9.8.8 1-.6 1.5-.8.2-.7.3 1.3.2l3.5-.3zm9.8-1c.2 0 .5-.6.6-1 .2-1 0-1.6-1.3-4.8a9 9 0 0 1-.4-6.6c1-4.3 1.1-4.6.9-6.9-.3-2.1-.3-2.1-1.2-2.4-1.2-.4-1.4-1.1-.3-.9.7.2.8.1.8-.3 0-.5-.9-2.9-1.2-3.2 0 0-.2 0-.3.2-.2.2-.4.3-.7.2-.4-.1-.4-.4-.3-1 .2-1.4-.3-1.5-1.2-.5-.4.4-1 .8-1.2.8-.5 0-.8-.8-.4-1.3.5-.8.4-1.1-.4-1-1.2.1-1-.7.4-1.9 1.2-1 1.8-1.2 3-1.3.3 0 1.3-2 1.3-2.7 0-.3.1-.6.3-.7.5-.3.2-1.3-1-2.5a8.7 8.7 0 0 1-1.2-1.6c-.2-.6-4.8-.7-5.6-.1-.9.5-1.2.5-1.2 0 0-1 1.5-1.4 4.2-1.4 1.3 0 2.4-.1 2.4-.2 0-.5-.9-1.5-1.7-1.8a11 11 0 0 0-3-.6c-2.4-.2-2.4-.2-2.6.5a4965.1 4965.1 0 0 1-.5 17.7v2.5h2.9c1.6 0 3 0 3.2.2.2.1.4.6.5 1.1.2 1.2-.5 2.1-2 2.4-.7.1-1 .3-1.2 1.1a48.6 48.6 0 0 1-2.8 5.7l-.8.6.7 1c.9 1.3 2.1 4.7 2.6 7.3.7 3.5 1.5 4.1 5.6 3.9l3-.4zm2.7-3.7c.6-.4 1.2-.6 2.5-.6 1 0 1.8-.1 1.8-.3l-.7-2c-.6-1.6-.7-1.8-1.3-1.7-.3.1-.6 0-.8-.3-.1-.3-.8-.5-2.2-.6h-2.1c-.3.3.2 2.8 1 4.4.4 1 .8 1.7.9 1.7l.9-.6zm-18.8-.6c-.2-.1-.6-.1-.8 0h.8zm88.8 0a52 52 0 0 0-10.7-3.2c-2.2-.3-1.3 0 1.6.7l5.5 1.5c2.7 1 3.9 1.3 3.6 1zM84.8 82.1c-.6-3.6-.6-3.6-1-3.2-.6.6.6 5.6 1.5 5.9l-.5-2.7zm-31 1.6c0-.2-1-.8-1.3-.8-.1 0 0 .3.3.5.5.6 1 .7 1 .3zm94.3-.5c1-1 .7-2.5-.4-2.2-.5 0-.6 0-.8-.5-.4-1-.8-1.1-1.4-.5-.3.4-.4.5-.1.5.4 0 .7.6.7 1.3 0 .5 1 2 1.3 2l.7-.6zm38.7-.2c2.2-.6 4.3-.9 7.4-1 1.5-.1 2.9-.3 3-.5.4-.3-6.9 0-8.7.3-3 .6-3.6.7-3.6.3 0-.6.8-1.5 2-2.2 1.1-.8 1.9-2 2.5-3.8.4-1.3.4-1.6-.3-1.7-.6 0-1.3-1.2-1.3-2.2 0-1.3.7-4.8 1-5.4.6-.8.7-2.4.4-4.2-.2-1-.5-1.6-1.1-2.2-1.5-1.4-2.2-1.8-2.8-1.8-.4 0-.8-.4-1.2-1-.4-.7-1.1-1.3-1.6-1.5-1.3-.6-1.8-1.3-2.5-4l-1.2-3.7-.6-1.3-.2.8c-.1.5-.8 1.4-1.4 2-1.1 1.1-1.4 1.3-2.2 1.2-1.3 0-1.4-.8-.4-1.4 1.4-.7 2.3-3.5 1.6-4.9-.3-.5-.5-.6-1.4-.6-1.1.1-1.8.8-2 2-.3 1.2-1 1-1-.4 0-.8.1-1.2.8-1.8.7-.7 1-.8 2.4-.8 1.5 0 1.6 0 1.5-.6-.1-.3.1-1.3.5-2.2.7-2 .7-2.7-.3-3.7-.8-.7-2.1-.8-3-.2-.3.2-.7 1-1 2-.6 2.1-1.2 2.5-4.5 2.7-1.4 0-3.5.4-4.6.7-2.4.7-5 1.9-5 2.3 0 .2 1 .8 2.1 1.4 2.2 1 3.3 2 2.6 2.4-.5.3 0 .7 1 .9.4 0 1.2.6 1.8 1 .7.7 1.2 1 2.3 1.1 3 .4 4.4 1.9 4 4l-.2 3c0 1.7.2 2.5 1 5 .9 2.1 1.2 3.3 1.2 4.5 0 1 .1 1.9.3 2.2.5 1 2 2.3 3.6 3a14 14 0 0 1 4.3 3.6 18.3 18.3 0 0 1 1 7c.3.3 2.4.1 3.8-.3zm-12.5-27c-.3-.3-.3-.4.1-.8.5-.5 1.3-.3 1.1.3-.2.5-.7.7-1.2.4zm-1.4-6.8-.2-1.7c0-1 0-1.2.4-1.2.3 0 .7.4 1 1 .6.8.6 1 .1 1.6-.5.7-1.1.9-1.3.3zm-5.6-3.3c-.4-.6-.4-.6.3-1.4.4-.4 1-.7 1.2-.7.8 0 1 1.5.4 2.2-.6.6-1.3.5-1.9-.1zM51.8 80.6c.7-1.4 1.3-3.2 1.5-4.4l.6-2.4c.1-.3-.6-1-1.2-1l-.5.7a29 29 0 0 1-2.3 3c-2.4 3-3 4-2.5 5 .4.7 2.4 1.7 3 1.5.1 0 .8-1.1 1.4-2.4zm96.7-1.9c0-.6-.3-1.7-.5-2.3-.2-.6-.4-1.4-.3-1.6 0-.3-.4-1-1-1.8a9.7 9.7 0 0 1-1.3-2.5c-.4-1.5-1.3-3.4-1.8-4-.3-.5-.4-.5-2.1.3l-1.7.9V70c.2 2.4 0 3.7-1 7-.5 1.9-.6 1.7 2.3 2 1.9 0 2.1 0 2.5-.4.3-.3.9-.6 1.4-.7.8-.1 1.1 0 2.2 1l1.4 1v-1.3zM126.2 76c.4-.1 1.9-2.6 1.9-3.2l.6-1.2.7-1.1c0-.3-.5-.2-1 .3a10 10 0 0 1-4.4 1.5c-1 .1-1.2.3-1.1.5 0 .2 0 .8-.3 1.2-.4.8-.5.9-1.4.7l-1.5-.1c-.6 0-1.2-.5-2.7-1.8-.7-.7-2-1.1-2-.7 0 .2.2.4.3.5.2 0 .7 1 1.2 1.9l1 1.8h4l4.7-.3zm-1.6-6.9c4.7-.1 6.4-.3 6.8-.5.8-.6.1-.9-2.5-1-1.8 0-2.8 0-3.2.4-.5.3-2 .3-7 .3-5.7 0-7.7.2-6.5.5 1.8.5 2.8.7 4.3.6l8.1-.3zm.4-2.1c.4-.4.7-6.2.8-13.7a52.4 52.4 0 0 0-4-26.6c-1.1-1.9-3.4-5-3.8-5a7 7 0 0 1-1.3-1.2 15.5 15.5 0 0 0-6.6-4c-2-.8-5.1-1.5-6.3-1.4a19.9 19.9 0 0 0-5.7 1.2 15 15 0 0 0-4.4 2.2s.3.3.7.4c1 .4 1.2 1.3 1 4 0 1.2.2 2.5.6 3.9.9 3.1.8 3 1.4 2.2.4-.5.5-.9.4-1.8 0-.7-.2-1.4-.3-1.6 0-.3.2-.8.8-1.4l1-1.2c0-.1.3-.4.7-.6 1.2-.8 2.1-.4 3.6 1.3 1 1.2 1.3 1.6 1.5 3.2.3 2.1 1.5 7.6 1.8 8.5.2.4.5 1 .8 1.2.3.3.9 1 1.2 1.8.7 1.3 1.3 1.8 1.7 1.2.4-.5.3-.6-.5-1.7-.8-1-.8-1.1-.7-2.2.4-2.6 1.2-2 2 1.6.4 1.8.5 3 .4 4.3 0 1.1 0 2.7.3 3.8l.6 3.7c.3 1.9 1.2 4 1.6 4 .1 0 .3-.8.4-1.8.1-1.4 0-2-.2-2.6-.4-.8-.4-.8 0-1.3.5-.4.6-.4 1 .3l.7 1c0 .2 0 .2.2 0a34.5 34.5 0 0 0-1-11.2c-.2-1.5-2.1-5-3.4-6.4-.6-.6-1.1-1.4-1.1-1.6 0-1.3 2-.4 3.5 1.5 1.2 1.6 1.4 2 1.8 3.9a36.2 36.2 0 0 1 1.5 11.5c.1 6.9-.2 10.4-1 11.2a2 2 0 0 0-.2 2.6c.3.3.5 1.5.6 3.3.2 4.3-.2 3.9 4 3.9 2.5 0 3.6-.2 3.9-.4zm16.5-1c2-1 2.3-1.2 1.9-1.7-.2-.2-.6-.1-2 .5-1.5.7-2.2.8-2.2.2l1.6-.9 1.5-.6-.4-1.2-.6-1.4c-.4-.4 0-1.2 1-1.8.9-.7 1.6-.6 2.4.3 1 .8 3.6.9 3 0l-.2-2.5c0-1.6-.2-2.6-.5-3.3-.4-.7-.4-1.1-.2-1.3.8-.9 1.8 2 1.6 4.7v2c.1 0 .6-1 1-2.3.6-1.9.6-2.4.4-3.3-.2-.5-.5-1.2-.7-1.3l-.4-.7c0-.5.7-.5 1-.1l.5.2c.6 0 .5-1.9-.2-2.6l-.5-.6-1.5.6c-.8.3-1.4.7-1.4.8l-.6.4c-.4.1-.5.3-.3.7.2.6-.4 1.3-2 2.2-1.3.8-3.6 1.5-4.4 1.3-.5-.1-.7 0-1 .6-.3.5-.5 1-.5 1.3 0 .3-.1.7-.3.9-.6.5-.5 1 .3 1.6l1 1c.1.9-.6 1-1.2.2-.3-.4-.7-.7-.9-.7l-1-.4c-1-.5-1.3-.3-1.1.7.1.8 1.5 1.5 2 1 .4-.2.5-.2.6.2 0 .3.3.7.4 1l.2.8.6 1.6.8 2c.3.7.6.7 2.3-.2zm28-2.6c.7-.7.7-.8.4-1.8-.5-1.5-1.4-2.4-2.3-2.4-1 0-1.3.2-1.8 1.3-.3.4-.6.8-.8.8-.7 0-.5-1.1.3-2 .6-.8 1-1 2-1.1 1.2-.2 1.4-.3 1.9-1 .5-1 1-3.3.7-4-.1-.5-1.4-1.1-2.2-1.1-1.2 0-1.7.9-1.7 2.9l-.1 2-1 .2c-.7.2-.8.1-.9-.4-.1-.9-1.4-1.5-4.4-2.2a19 19 0 0 0-5-.7c-1.8 0-2.2.1-1.7.3.9.4.9.3.4 1.2-.3.6-.3.8 0 1.5l1.6 1.5c1.3 1 1.9 1.7 1.6 2.3-.1.4-.2.3-.8-.2l-.7-.4c0 .3 1 2 1.2 2l1 .3c.7.2.9.1 1.9-.9 1-.9 1-1 .7-1.5-.4-.7-.1-1.6.7-1.9 1.3-.5 3.2.9 2.5 1.8-.2.2 0 .7.7 1.8 1 1.6 1.4 1.7 2.4 1 .8-.5 1.3 0 .6.6-.9.8-.7 1 .8.9 1-.1 1.5-.3 2-.8zm2 .2c0-.2-.2-.4-.3-.4-.2 0-.3.2-.3.4s.2.4.4.4.3-.2.2-.4zm-17.2-2.1c0-.7-1-3-1.4-3.4-.4-.2-.8-1.2-1.1-2.1-.6-2-.6-2.3-.4-3.1.2-.7.2-.7-.2-.2-.2.3-.4 1-.4 1.9 0 1-.2 1.8-1 3.5l-1 2.2h.9c.5 0 1.7.3 2.6.6 1.6.6 2 .7 2 .6zM40.4 56.1c.3-1.2 2-3 2.8-3.1.3 0 .6-.2.6-.4 0-.3-4.1-1-5-.8-1 .3-1.6 1.2-1.4 2.6.3 1.8 1 2.9 2 2.9.7 0 .8-.2 1-1.2zm102.2-4.3 1.3-1.6c.2-.4.5-.5.7-.5.2.1.6 0 .8-.4.3-.3.6-.5.8-.5l2-.8 1.8-.9v-1.3a5 5 0 0 0-.2-1.2l-.6.3c-.5.3-.6.2-1-.2-.5-.7-.4-1 .6-2.3 1.4-1.6 1.5-1.9 1.3-3.6-.2-2-1-3-2.8-3.2-1-.1-1.2 0-1.7.6-.4.6-.5 1.2-.4 2.7 0 1.6 0 2-.3 2a.7.7 0 0 1-.6-.4c0-.3-.5-.4-.9-.4a14 14 0 0 0-4.4 1.6c-.7.6-1-.2-.6-1.5.5-1.4.2-3.5-.6-3.7-.9-.3-2.4.8-3.3 2.3-1 1.7-1 2.4-.1 4.3.4.9.7 1.7.6 2.1 0 .5.3 1.6 1.2 3.4 1.4 2.7 1.4 2.8 2.4 2.9.6 0 1.1 0 1.4-.3.7-.6 1.3-.2 1.1.8-.2 1 .2 1 1.5-.2zm-5.1-6.2c-.8-.7-.9-1.3-.2-2 1-1.1 1.8-.7 2 .8 0 1.8-.6 2.2-1.8 1.2zm5.6 0c-.6-.3-.8-1.5-.5-2.1.3-.6 1.6-.7 2-.2.5.4.5 1.3 0 2-.5.6-.8.7-1.5.3zm-7.2-3c-.4-.4-.1-1.7.4-2 .3-.3.5-.8.5-1 0-.9.9-.6 1 .2.1 1-.7 2.9-1.3 2.9-.2 0-.5 0-.6-.2zm11-1.3c-.2-1.5-.2-3.4.1-3.6.2 0 .4.1.4.3 0 .3.3.9.6 1.4.7 1 .7 1.5 0 2.3-.6.7-.8.6-1-.4zm30.1 3.4c-.2-.2-.3-.2-.1.2 0 .3.2.4.3.3.1 0 0-.3-.2-.5zm-78.6-1c.2-.2.3-.7.3-1 0-.6-1-2.4-1.4-2.4-.1 0-.2.7-.2 1.5 0 1.5.3 2.5.8 2.5.1 0 .4-.2.5-.5zm-1.1-7.2c-.1-.1-.2 0-.2.4 0 .3.1.5.2.3v-.7zm1-3.7c.4-2.5.5-3.8.2-3.5-.1.1-.7 3-1 5.1v.9c.2 0 .5-1.1.7-2.5zm122.3 32.5c-.2-.3-.3-1.7-.4-5.2l-.3-8.3c-.3-4.2-.4-8.3 0-8.3l.4.3c.3.3.5.2 1-.3.2-.3.5-.5.6-.4a208.8 208.8 0 0 0 .5 10.6c.2 2.8.2 2.4.1 7.6 0 3.5 0 4.1-.4 4.3-.7.2-1 .1-1.5-.3zm-135-17.6c-.2-.3-.3-.3 1-1l2.1-1.3c1.2-1 1.5-1 1.5-.4 0 .3-.5.9-1.4 1.5-2.3 1.5-2.9 1.8-3.2 1.2zm-10.2-9a9 9 0 0 1 1.4-3c.4-.5.6-.6.8-.4.2.2 0 .6-.6 1.6l-.8 1.7c0 .2-.2.4-.4.4s-.4-.1-.4-.3zm2.7-13.4c-.5-.2-1-.7-1.1-1.2-.2-.5-.6-1.2-1-1.6-.5-.4-1-1.1-1.1-1.5-.4-.8-.4-.9-2-.8-1.3 0-1.2-.4.2-.6.8-.1 1.5-.5 2-1 .9-.7 1.5-1 5.3-2.7 1-.4 1.1-.5 1-1.4 0-.8-.2-1.1-.7-1.4-.7-.4-.8-.4-2 .7-1.4 1.1-3.4 2.3-3.9 2.1l.9-.8C77 14.2 79 12.3 79 12c0-.1-.2-.3-.5-.4-.7-.2-.7-.7 0-.7.2 0 .6 0 .6-.2.2-.3-.6-2.2-1-2.3-.2 0-.6.4-1 1.1-1.8 3.5-5.4 4.5-7.6 2.1-.8-1-1.2-2.4-.4-1.7l.4.7.8 1c.6.5 1.1.7 2 .7 1.2 0 1.5-.2 2.6-1.1 1.2-1.1 2-2.3 2-3 0-.5-1.7-1-2.5-.8-.3 0-1 .5-1.6 1-.5.5-1.2 1-1.6 1-.5 0-.4-.1.4-.9.5-.5 1-1 1-1.2 0-.2.2-.5.6-.6.8-.2 1-1.2.3-1.5a27 27 0 0 0-6.2-1c-2.2-.2-2.3-.2-3.5.6-1.3.8-1.5 1.3-.9 2.6.4.9 0 1.2-.6.4-.3-.4-.5-1-.5-1.6 0-.6 0-1-.2-1-.3 0-3 2-5.1 4-2 1.8-2.7 2.8-2.6 3.8.1.6.1.6 1.2-.1.5-.4 1.4-.9 1.8-1 4.6-1.8 5.3-2 6.7-2 1 0 1.7.2 2.1.5.7.6.8 1.2.1 1-1.7-.8-2.4-.8-4.4-.2-2.7.7-6.4 2.5-6.9 3.3-.6 1-1 .8-1.5-.6-.7-2-.5-2.8 1.6-5 1-.9 1.8-1.7 2-1.7l2-1.4c2.3-1.7 3-2 6.5-2.8 2-.4 3-.7 3.7-1.3C70.3.7 72.7 0 74.7 0a42.2 42.2 0 0 1 12.9 2c2.2.4 3.7 2.1 3.7 4.3 0 2.6-2 4.6-7.4 7.6-1.2.6-1.4 1.2-.5 1.3.3 0 .6.3.7.5 0 .2-.1.3-.6.1-.5-.1-1 0-1.9 1a12 12 0 0 1-2.4 1.6c-2.4 1-2.6 1.2-2.7 1.8-.1.8.7 1.6 1.7 1.6 1.1 0 1.7-.2 1.7-.7 0-.5-.5-.5-1.1 0-.5.6-.7.2-.2-.4.5-.6 1-.7 1.6-.4 1 .5.2 2-1.4 2.5-.6.3-.8.5-.7 1 0 .6.3.8 1 1 .8.3 1.1 1 .3 1-.2 0-.8-.2-1.3-.5zm.5-7.4c.8-.4 1.3-.7 1.1-.8-.4-.1-3 .8-3.2 1.2-.1.5.7.4 2.1-.4zm6.7-5.5c3.5-2.1 5.6-5 5-6.9 0-.6-1.7-2.2-2.2-2.2-.2 0 0 .4.3 1 .8 1.2.8 2.9-.1 4.4-.8 1.3-2.2 2.4-4.6 3.6-1.6.8-1.9 1-1.5 1.4.3.2.7 0 3-1.3zm-.8-1.4C86.7 9.5 88 7.8 88 6.5c0-1.6-1.9-3.7-3.7-4.1-1-.2-1.3.2-.7.8.8 1 1.3 2.5 1.1 3.7-.2 1.2-1.3 3-2.7 4.2-1 .9-1 1.6 0 1.3a16 16 0 0 0 2.4-1.4zm-2.6-.8c1.3-1.3 2.3-3.5 2-4.5A6 6 0 0 0 82 3c-.6-.4-.8-.4-2.8 0-2.5.7-3 1-2.3 1.6.3.1.7.9.9 1.6.3.7.9 1.6 1.5 2.2.5.5 1 1.2 1 1.5 0 .7.2 1.4.5 1.4l1.2-1zM77 6.3c-.3-1.8-3.6-3.4-6.5-3h-1.2l2.2.6C74 4.5 75 5.1 75 6.1c0 .6.6.9 1.7.8.4 0 .5-.2.4-.6zM77 3c.5-.2 1.4-.6 2-.7 1.7-.3 1.4-.7-.9-1a8 8 0 0 0-3 .2c-1.7.5-2.3.4-1.4-.2.6-.5.5-.5-1.6 0-1 .3-1.8.6-2 .8-.3.3 0 .4 1.1.4.8 0 2 .2 2.9.5 1.9.6 1.7.6 2.9 0zm2.6 21.3-.2-.7c0-.5.5-.6 1-.2.2.2.5.2 1.2-.2 1.1-.7 1.2-.7 1.2-.3 0 .8-2.7 2-3.2 1.4zm8.2-6.7.8-1.4c.5-.6.8-1.3.8-1.4 0-.5-.8-1-1.5-1-.3 0-.6 0-.6-.2 0-.5 1.8-.3 2.4.2.4.5.5.7.2 1.3-.3.9-2 3-2 2.5zm1.6-6.1c0-.2.3-.3.7-.3.4 0 .7.1.7.3 0 .1-.3.2-.7.2-.4 0-.7 0-.7-.2zm5-.5c0-.3 1.2-.6 1.4-.4.1.1-.6.6-1 .6-.2 0-.3 0-.3-.2zm3-.8c.2-.2 1.6-.7 3-1.2 4.3-1.6 6.5-3.1 6.5-4.7 0-.5-.2-1.1-.5-1.5-.7-.8-2.2-1.6-3-1.6-.4 0-.8-.2-.9-.3-.5-1 1.8-.8 3.3.1 2 1.3 2.8 3.5 1.6 5a16 16 0 0 1-6.5 3.5c-2.7.9-4.5 1.2-3.5.7zm0-2.1c0-.2.4-.6.9-1 1.2-1.2 1.4-1.7 1.4-3.5 0-1.6.3-2 .8-1.3 1 1.2.4 3.3-1.1 4.9-1 1-2 1.4-2 .9z"/>
</svg>
