<?xml version="1.0" encoding="utf-8"?>
<svg xmlns="http://www.w3.org/2000/svg" xmlns:svg="http://www.w3.org/2000/svg" version="1.1" viewBox="0 0 160 133">
	<title>A dark kitchen, with a fireplace and wooden countertops. Pots and pans are hanging from the wall, and a jug in a bowl is on the table.</title>
	<path d="M141.2 132.1c-9.5-.6-73.4-.8-96.2-.4-16.7.3-17 .3-25.8 0-10-.2-11.7-.4-14.1-1.4-1.1-.5-2.6-1.4-3.3-2L.4 127l-.2-8.9c-.2-6.8-.2-9.4 0-11a9 9 0 0 0 .2-3.3 1230.2 1230.2 0 0 0 .2-50l.1-15.5C1 38 1 24.8.5 19.8-.1 12.6-.2 7 .4 4.4.8 2 1 1.3 1.9 1 3.1.2 9.5 0 26.1 0h107c17 0 24.7.1 25.4.6.4.2.7 1.9.6 3.2l-.1 11.9a677 677 0 0 1-.7 31 906.1 906.1 0 0 0 0 54.5v6.4c0 3 0 7.9.2 11a40.1 40.1 0 0 1-.3 11.3c-.3 1.2-2 2-3.8 1.8l-2.7.1c-2.3.4-6.7.5-10.5.3zm-104.7-3.5c-.4-.1-.7-.3-.7-.5 0-.4 1.3-.6 4.4-.4 2.6 0 3 0 3-.3-.2-.5.5-.7 2.6-1 .8 0 1.6-.2 1.8-.3.4-.2.3-.3-.2-.6-1-.5-.3-.8 1.8-.8 1.7 0 2 0 1.9-.5-.1-.3 0-.4.5-.5 1.5-.2 2-.3 1.7-.6-.2-.2-3-.3-8.3-.3-6.7 0-8.2 0-9.1.4-.6.2-1 .5-1 .7 0 .2 0 1.4.2 2.6.2 1.9.3 2.2.8 2.4.3.1.7.2 1 0 .2 0 0-.1-.4-.3zm34.5 0c2.8 0 5.1-.3 6-.5 2.9-.9 3.3-2.3 1.1-3.8-1.5-1-6-3.3-6.6-3.3l-1.6-.4c-1.8-.5-4-.9-8.5-1.4-5.4-.6-26.6-.7-27 0-.1.2 0 2 .2 2.3l5-.2c7.9-.4 18.2.3 22.2 1.3 2.4.7 3.4 1.4 4 3 .5 1.4.4 2.1-.7 2.5-.4.2-.9.5-1 .8-.4.3-.3.4.9.2l6-.4zm75.9.1c6.6-.4 6.5-.4 7.3-1.6.7-1 .7-1.1.5-4.6l-.1-4.5c0-.9-.1-1-.3-.6-.2.3-.7.4-1.8.4-1 0-1.8.2-2.7.7l-1.2.6h1c1 0 1.5.3 1.5.9 0 .2 0 .2-3.4.8-2.9.6-3.5.6-3.4 0 0-.3.7-.6 2-1l2-.5-1.5-.2c-1.3 0-1.6-.2-1.7-.5 0-.4.2-.6 1.3-.9 5.9-1.5 6.8-1.7 7.6-1.2.6.3.6.2.6-2.3l-.2-2.9c-.2-.2-.6-.2-1.4 0a206.5 206.5 0 0 1-20.4 2.8 103.8 103.8 0 0 0-14 1.6l-4 .5-6 .6a49.5 49.5 0 0 0-7.9 1c-1.8.3-3 .5-9.1 1a68 68 0 0 0-14.2 2.1c0 .2.6.7 1.5 1.1 2 1 3.4 2.3 3.7 3.3.1.6.3.8.7.8l1.7-.3a8 8 0 0 0 2-.5c1.5-.7 2.9.3 2.9 2.1 0 .6.1 1.1.3 1.2.2 0 .3-.4.3-1.6 0-1.5.1-1.8.5-2l1-.3c.6-.4 1-.3 1.5.1.4.4.4.4.7 0 .2-.2.6-.4 1-.4.2 0 .7-.2 1-.5.6-.6.7-.6 1.1-.2.5.4 1.4.4 2.3 0 .3 0 .5 0 .7.4.4.5.4.5.8 0 .4-.3 1.1-.5 2.8-.6 1.3 0 2.7-.3 3-.4.6-.2 2.3-.3 3.5-.3.7 0 .6 1-.2 1.7-.4.4-.6.8-.6 1.4 0 1.6-1.4 1.5-1.9-.2-.2-.7-.4-1-.7-1-.7 0-.8.5-.6 1.9.3 1.3.2 1.5-.6 1.5-.3 0-.6-.2-.8-.8-.2-.5-.5-.7-.9-.7-.5 0-.6 0-.6 1.2v1.2l1.5-.2h9.3c10.8.3 26.7.3 32.6-.1zM142 126c-.8-.5 1-1.5 2-1.1.5.2.5 1 0 1.2-.6.3-1.5.2-2 0zm-30.3-1.8c-.4-.5-.4-.6-.1-1 .2-.2.4-.4.6-.4l.6-.3c.2-.3.7-.4 1.1-.4.4 0 1.5-.3 2.3-.7a5 5 0 0 1 3-.5 4 4 0 0 0 1.9-.1c.3-.2 1.6-.5 3-.6l3.9-.5c.8-.2 2-.2 2.7-.1 1.1.1 1.3.2 1.2.7 0 .7-1.9 1.1-2.8.7-.5-.2-1-.2-2 .2-.8.3-1.9.6-2.5.6-.5 0-1.7.2-2.7.5-1 .2-2.2.3-3.1.2-1.2-.1-1.6 0-2.2.3a5 5 0 0 1-1.6.7c-.6.1-1.3.4-1.7.7-.8.6-1 .6-1.6 0zm31.7-1a.6.6 0 0 1-.3-.5c0-.4.1-.4 2.8-1 .8 0 2-.3 2.4-.5.8-.2 1-.2 1.4.2.8.8 0 1.3-2.5 1.6-2.7.4-3.3.4-3.8.2zm-10.4-3c0-.5.2-.6 2-.9 1-.1 1.7.2 1.7.8 0 .3-.2.4-.8.4l-1.9.1c-.9.2-1 .1-1-.4zm6.4-.2a.6.6 0 0 1-.3-.5c0-1 2.7-1.2 2.9-.3 0 .3 0 .6-.3.8-.4.2-1.7.2-2.3 0zm-45.4 8.5.1-1c0-.6 0-.7-.5-.5-.3 0-.7 0-1-.2-.3-.3-.3-.1-.3.8 0 .6.1 1 .3 1.2.7.2 1.2.1 1.4-.3zm2-.8c0-.8 0-1-.3-.5-.3.8-.3 1.8 0 1.6.2 0 .3-.6.3-1.1zm3.2 1c0-.6-.6-1.9-1-2-.3-.1-.4.1-.4.9l.2 1.2c.3.2 1.2.2 1.2 0zm2.6-1c0-.8-.6-2.2-1.1-2.2-.4 0-.2 3.1.1 3.3.6.2.9 0 1-1zm-70 .7c.5 0 .6-1.3.1-3.2-.3-1.3-.4-2.3-.6-8.1-.2-3.7-.2-3.8-.8-3.6a36 36 0 0 1-4.4 1l-3 .8c-.8.4-.9.6-1 1.8-.1.7-.2 1.3-.1 1.4l3-.3c3-.4 3.5-.4 3.5.3 0 .6-1.2 1-4.1 1-2.6 0-2.8 0-2.8.5s.1.5 2 .4l2.9-.4c.6-.1.7 0 .7.4-.2.6-1.6 1-4 1.3-1.7.1-2.6.4-2.3.8.2.1 4.1-.3 4.9-.6.3-.2.8.6.5.8 0 .1-1.3.5-2.7.8-1.4.4-2.7.8-2.9 1-.2.2 0 .2.5.1 1.8-.4 4.3-.5 4.5-.2.5.7 0 1-3.3 2-1.2.4 1.8 0 3.7-.4l2.4-.5c.5 0 .3.8-.3 1.1-.4.4-.4.4 0 .6.5.2.4.8-.3 1.1-.5.3.2.3 3.9.1zM23 117.2c-.2-.2-.2-.4-.1-.5.4-.3 4.1-.3 4.2 0 .3.7-3.5 1.2-4.1.5zm28.5 11.3c0-.4-.6-1-1-1.2-.8-.3-.9.1-.2.8.5.5 1.2.8 1.2.4zm35.7-.2c0-.3 0-.6-.2-.8-.3-.3-1.2.4-1 .9.3.4 1 .3 1.2-.1zM19 128c.4-.4-.4-.6-1.7-.5-1.8 0-2.6.4-1.8.7.5.1 3.3 0 3.5-.2zm-6.2 0c1.3-.3.8-.5-1-.4-.9 0-1.9 0-2.2-.2-.6-.3-3-.1-3 .2 0 .4 5 .7 6.2.4zm34.1 0a1 1 0 0 0-.6 0l.3.1c.4 0 .5 0 .3-.1zm-19.7-.7.5-.2h-.5a5 5 0 0 0-1.2.2l-.7.3h.7c.3 0 .9-.1 1.2-.3zM14.3 126c.4-.2.6-.4.4-.5-.1-.2-1 0-2 .2-1.4.3-1.7.5-1.4.6.6.2 2 0 3-.3zm-3.2-.4c2.6-.6 2.8-.7 2.5-1-.2-.1-1 0-2.5.3l-2.8.6a2 2 0 0 0-.8.3c-.7.4 1.5.3 3.6-.2zm10.4-.3h-.7c-.3 0-.6 0-.6.2h.6c.4 0 .7-.1.7-.2zm1-.2H22c-.3 0-.2.1.1.1.3 0 .5 0 .4-.1zm-9.2-1.1c.4-.2.3-.9 0-.9l-1.3.3c-.6 0-1.3.3-1.7.4-.4 0-.7.2-.6.4.2.3 3.1 0 3.6-.2zm-3-.7c3.2-.7 3-.6 2.7-1.2-.3-.6-1-.5-3 .3-.5.2-1.8.5-3.2.5-1.2 0-2.3.1-2.3.2l.4.5c.4.4 2 .3 5.3-.3zm8-.1c.2 0 .3-.3.3-.5 0-.3-.3-.3-2.9 0-.9.2-1.1.5-.5.8.3.1 2.8 0 3.2-.3zm-3-1.1c.4-.2.4-.4.2-.6-.4-.4-1.2-.1-1 .4.2.5.3.5.9.2zm3.6-.5c.2-.3 1-3.5 1.2-5.2l.1-1.5H19c-.9 0-1.3-.1-1.8-.6-.3-.4-.7-.7-.8-.7-.3 0 .4 2.5.8 2.7.2.1.3.6.3 1.1 0 1.2-.6 1.5-1.3.6l-.5-.6.3.9c.2.7.4.8 1 .8 1 0 1 .5.1.7-1 .2-.5.7.4.5 1-.2 1 .3 0 .7-.4.1-.8.4-.8.7 0 .3.2.3 1 .2.6 0 1-.2 1.2-.3zm-6.4-.5-.2-.4c-.2-.2-.7-.1-1.5 0-1.1.4-1.2.4-.7.6.6.1 2.1 0 2.4-.2zm-2.9-.6 2.5-.6c.3-.4-.2-.8-.8-.6l-3.3.6-3 .8c-.5.5 2 .3 4.6-.2zm5.3-.2c0-.4-.6-.3-.8.1 0 .2 0 .3.3.3s.5-.2.5-.4zm-.3-1c0-.2-.2-.4-.5-.4s-.6.2-.6.4.3.4.6.4.5-.2.5-.4zm59.3-.7c0-.5-.2-.8-.6-.9-.6-.1-1 .2-1 1 0 .5.2.7 1 .7.5 0 .6-.1.6-.8zm1.8 0c0-.7 0-.8-.4-.7-.3 0-.5.3-.6.8 0 .6 0 .7.4.7.3 0 .5-.4.6-.9zm2.2.5c.7-.2 1-.4 1-.7-.2-.6-1-.7-1.5-.1-.3.4-.3.4-.5 0-.3-.7-.7-.6-.7.3 0 .9.2 1 1.7.5zm-66.3-.5c.3-.5-.3-.8-1.2-.6l-.9.2.6.3c.8.4 1.2.5 1.5 0zm60.1-.8c0-.9 0-1-.5-1-.4 0-.5.1-.5 1 0 1 0 1.1.5 1 .3 0 .4-.4.5-1zm8.5.7c0-.2-.2-.4-.4-.4s-.4.2-.4.4.2.4.4.4.4-.2.4-.4zm-70.2-1c.5 0 1 0 1-.2.2-.4.3-.4-4.2.2-2.2.3-3 .6-2.5.8.1.2 1.3 0 2.6-.2 1.2-.3 2.7-.5 3.1-.5zm59.9.2v-1h-4.4a1 1 0 0 0-1 .2c-.5.5-.5.5-.7 0-.2-.3-.7-.4-3-.4-1.5 0-2.5.1-2.5.3 0 .3.5.4 4.6.9a195 195 0 0 1 6.7.9c.2 0 .3-.3.3-1zm-55.8.4c0-.2-.2-.3-.4-.3s-.4.1-.4.3c0 .1.2.3.4.3s.4-.2.4-.3zm75.4-.5a1 1 0 0 0-.6 0c-.2.1 0 .2.3.2.4 0 .5 0 .3-.2zm-4.2-1.3c0-.5.1-1.7.4-2.6.2-.9.4-3 .5-4.8l.1-3.2h-.8a3 3 0 0 0-1.6.5c-.5.4-.6.6-.4 1 .2.4.3 1.5.3 2.4 0 1 0 1.9.2 2 .2.3.1.4-.2.5-.4.2-.4 1.8 0 2 .3 0 .3.2.2.4-.4.6-.3 2.1.2 2.5.7.5 1 .3 1-.7zm-71.8.5c0-.2 0-.3-.2-.3l-.4.3c-.1.1 0 .2.2.2.3 0 .4 0 .4-.2zm66.7 0c0-.2-.1-.3-.3-.3-.1 0-.2.1-.2.3l.2.2c.2 0 .3 0 .3-.2zm10.1-.5c.3-.9-1.7-1.3-2-.4-.3.7-.2.9.9.9.8 0 1-.2 1.1-.5zm2 .2c.1-.2.2-.2.4 0 .5.4 1.5.3 1.5-.1 0-.5 0-.5-.8-.2-.4.3-.5.2-.5 0 0-.4-.3-.5-1-.5s-.8.1-.8.5c0 .6.9.8 1.2.3zm4.8-.1c0-.3-.1-.4-.3-.4-.5 0-.6.3-.3.6s.6.2.6-.2zm-86.5-.2c0-.1-.4-.2-.9-.2s-1 0-1 .2.5.3 1 .3 1-.1 1-.3zm4.6-.7c-.3-.4-.3-.4-.3 0 0 .7.3 1.2.4.8l-.1-.8zm-2.2.2c0-.1-.1-.3-.3-.3l-.2.3c0 .2.1.3.2.3.2 0 .3-.1.3-.3zm-5.3-.3.7-.2h-.7l-1.7.2-1 .2h1a7 7 0 0 0 1.7-.2zm2-.1c0-.1-.3-.1-.4 0-.3 0-.2.1.1.1.3 0 .5 0 .4-.1zm3.3-1c.3-.9.6-.9 1.2-.2.5.6.5.6.7.1.4-1.1.3-1.2-1.4-1l-1.8.2v.8c.3.9 1 1 1.3 0zm80 .3-.7-.2-.8.2c-.1.2.1.3.6.3s.8-.1.8-.3zm2.6 0-.8-.2c-.5 0-.8.1-.8.2 0 .2.3.3.8.3.4 0 .8-.1.8-.3zm1.5 0c0-.1-.2-.2-.5-.2s-.5.1-.5.2c0 .2.2.3.5.3s.5-.1.5-.3zm2.4 0c0-.1 0-.2-.2-.2s-.3.1-.3.2c0 .2.1.3.3.3.1 0 .2-.1.2-.3zm4-.6c0-.6-.1-1-.3-.8l-.2 1c0 .4 0 .7.2.7s.3-.4.3-1zm14.2-1.2c0-1-.1-1.4-.5-1.5-.8-.2-1 .2-.9 1.6.2 1 .3 1.2.8 1.2.6 0 .6-.1.6-1.3zm-110.8.8H5.7c-.1.2.2.2 1 .2h1.2zm109 0c0-.1 0-.3-.2-.4-.2-.1-.3 0-.3.2 0 .3.1.5.3.5l.2-.3zm3.7-.5c0-1-.2-1.6-.7-1.6-.2 0-.3.3-.3 1.2 0 1 0 1.2.5 1.2.4 0 .5-.2.5-.8zm1.8-.2c0-.6 0-.9-.3-1-.7-.3-.9 0-.7 1.1.1 1.2 1 1 1-.1zm-18.1-3.4c.3-2 .2-2.3-.3-2.9-.4-.6-.5-.6-.7-.2-.2.5-.4 6.3-.2 6.9.2.6.8-1.4 1.2-3.8zM24.6 113l1.6-.1c0-.2.5-.4 1.2-.5 1.8-.2 2.6-.4 3.3-.8.9-.6.7-1-.2-.5-.5.2-2.3.6-4 .8-3.4.4-4.5.7-4.5 1.2 0 .1.2.2.5 0 .2-.2 1.2-.2 2.1-.1zm24.3 0s0-.2-.2-.2c-.1 0-.2.1-.2.3v.2l.4-.2zm1.4 0-.2-.2c-.2 0-.3.1-.3.3 0 .1.1.2.3.2l.2-.2zm41.5 0c.8-.1 1.4-.4 1.4-.5 0-.1-1.2-.2-2.5-.2-1.5 0-2.5 0-2.5.2s.2.3.5.4a714.5 714.5 0 0 0 1.8.4l1.3-.3zm9.5-1c0-.4-.1-.2-.1.4 0 .6 0 .8.1.6v-1zm4-1.5c.1-2.2-.2-4.8-.5-4.3-.3.4-.3 3.9 0 5.7.2 1.7.5 1 .6-1.4zm17.7.8c.1-1.5-.2-2.3-.7-1.8-.4.4 0 3.6.3 3.5.2 0 .4-.8.4-1.7zm1.4.5c0-.3-.2-.6-.4-.7-.3-.1-.4 0-.4.7 0 .5 0 1 .2 1 .2.3.6-.3.6-1zm1.3-.6c0-1 0-1.8-.2-1.8-.3 0-.7 3-.4 3.4.4.7.6.1.6-1.6zm2 1.4c.1-.2 0-1.3-.2-2.4-.6-2.6-.6-3 0-2.9.5.2.3-3-.6-7.8-.2-.6.4-1.5 1.1-1.8.2 0 .4-1.2.5-2.5.1-2 0-2.2-.3-1.9-.2.3-.6.4-.9.4-.7 0-.7.4-1 5.3-.2 3.6-.2 3.8-.3 1.7v-2.5h-.7l-.8.2.1 4.6c0 2.5.2 5 .3 5.3.3 1 .8 1 .8-.1 0-.5.1-1 .3-1 .1 0 .3 1.1.3 2.8l.1 2.9c.4.3 1.2.2 1.4-.3zm-1.6-7.6v-.5 1-.5zm3.5 7.6c1.2-.3.5-1.1-.9-1.1-.3 0-.5.8-.2 1.1.3.2.4.2 1.1 0zm-86.2-.6c0-.3-.7-.5-1.9-.5h-1.1l1.2.4c1.5.4 1.8.4 1.8.1zm71.9-.5.4-1.8c.3-1.4.3-5.1 0-5.1s-.9 2.6-.7 3.3c0 .4 0 .7-.2.8-.3.2-.3.7-.3 2 .2 1.6.5 2 .8.8zm-102.4.3c1-.2.9-.2-1-.4l-3.9-.3c-1.3-.2-1.7-.1-1.9.1-.2.3.2.4 1.8.6 3.4.2 3.9.2 5 0zm126.1-.1 2-.3V105h-1c-1.5.2-2.1 1-1 1.3 1 .3 1 .7 0 1.5-.7.7-.7.7-1.3.3-.3-.3-.9-1-1.2-1.7-.7-1.3-.7-1.3-.3-1.8a3 3 0 0 1 1.1-.7c.6-.1.6-.3.5-2v-1.7H136l-1.7-.1.2 2.7-.1 3c-.2 0-.3-.2-.4-.6 0-.6-.1-.6-.1.3 0 .7 0 1 .4 1s.4 0 0 .1c-.3.1-.4.5-.3 2.4.2 2.4.4 2.8 1.4 2.6.3 0 .6 0 .7.2.2.3.4.3 2.8-.1zM138 110c0-.4.1-.7.3-.7.1 0 .2.3.2.7 0 .5-.1.8-.2.8-.2 0-.3-.3-.3-.8zm-121.7 1.4c0-.2-.4-.3-.9-.3-.6 0-.7 0-.4.3.5.3 1.3.3 1.3 0zm19.8 0c0-.3-.5-.7-.7-.5-.2.2.2.7.5.7.1 0 .2 0 .2-.2zm53.5-.3c0-.1-.1-.3-.3-.3l-.3.3c0 .2.2.3.3.3.2 0 .3-.1.3-.3zm1.8 0c0-.1-.2-.3-.5-.3s-.5.2-.5.3c0 .2.2.3.5.3s.5-.1.5-.3zm2 0c0-.1-.4-.3-.7-.3-.2 0-.5.2-.5.3 0 .2.3.3.7.3.4 0 .6-.1.5-.3zm2.5 0c0-.1-.3-.3-.8-.3-.4 0-.8.2-.8.3 0 .2.4.3.8.3.5 0 .8-.1.8-.3zm2.7-1.6c0-.7 0-1.6.2-2 .4-.8 0-5.5-.3-5.2-.4.4-1 4-1 6.1 0 1.6-.2 2.3-.4 2.4-.7.2 0 .5.7.3.7-.3.8-.4.8-1.6zm44.5.7-.3-2.4c-.2-.7-.3-2.4-.3-3.6 0-1.7-.1-2.4-.4-2.6l-.5-.3a73.3 73.3 0 0 0 .6 9.7c.6.6 1 .3 1-.8zM4 110.9l-.1-.2c-.2 0-.3.1-.3.2l.1.3.3-.3zm67.4 0c.2-.3-1-.6-1.4-.4-.1.1-.2.3-.1.5.2.3 1.3.3 1.5 0zm62-5.6a36 36 0 0 0-.5-5.5c-.1 0-.2 1.3-.2 2.7 0 2.4-.1 2.6-.3 1.4a23 23 0 0 1-.2-2.5c0-1-.1-1.3-.6-1.4-.2-.1-.6-.1-.8 0-.3.2-.2 9.6.1 10 .5.8.7 0 .7-1.7 0-1.9.2-2.6.6-2.6.1 0 .2 1 0 2.4 0 1.9 0 2.4.2 2.2.2-.1.3-.4.2-.6l.1-.5c.2 0 .3.3.3.8 0 1 .2 1.3.5 1v-5.7zm11.6 5.3c-.2-1-.7-6.6-.5-6.7.3-.4.5.3.8 2.5l.3 2.3v-3.5l-.1-3.6-1.2-.3-1-.2v2.6a31.3 31.3 0 0 0 .7 6.5c.1.8.3 1 .7 1 .4 0 .5-.1.3-.6zm-75.8.1c0-.3-.8-.6-1-.4-.2 0-.3.3-.2.4.2.3 1.2.3 1.2 0zm52.4-.6c0-.9-.7-1.3-1.2-.7-.6.5 0 1.5.7 1.5.4 0 .5-.1.5-.8zm-71.7.3c0-.1-.1-.3-.3-.3l-.2.3c0 .2 0 .3.2.3s.3-.1.3-.3zm1.6 0c0-.1-.1-.3-.3-.3l-.3.3c0 .2.2.3.3.3.2 0 .3-.1.3-.3zm15.8-.2c0-.2-.2-.3-.6-.3-.4 0-.7.1-.7.4 0 .5 1.1.4 1.3 0zm50.7 0c0-.2.1-1.6 0-3.2s-.2-2.9-.3-2.8c-.3.3-1.1 4.1-1.1 5.2 0 1.2 0 1.3.6 1.1.3 0 .6-.2.8-.3zm1.7 0c0-.3-.1-.8-.3-1-.2-.4-.2-.8 0-1 .2-.6.1-4.7 0-5.5-.2-.3-.4-.5-.6-.5-.3 0-.4.6-.4 2.9 0 4.1.2 5.6.8 5.6.4 0 .5-.2.5-.6zm26.4-.4c-.2-.6-.3-.7-.4-.4-.1.6.1 1.3.5 1.3v-.9zm1.3-.6c-.2-.6-.4-2-.4-3.3 0-2.5-.2-4-.6-4-.2 0 0 6.2.3 7.2l.4 1.2c.1.3.3.4.4.2.2-.1.1-.6-.1-1.3zm-120.6.7c2-.4 3.8-1.1 4.8-1.9l.8-.6-.6-.6c-1.3-1.4-2.8-2.2-4.1-2.2a37.6 37.6 0 0 0-8.4-.7c-8.3-.2-8.5-.2-9.9.1-.6.2-2.1.4-3.2.5-2.6.2-2.8.5-2.7 3 .1 1.4.2 1.5.8 1.7l1.4.2c1.7.4 6.7.8 7.3.6 1.2-.3.7-.7-.8-.5-1.8.2-2-.3-.3-.5 1.1-.2 2-.6 1.7-.8l-1.2.1c-2.5.6-6.3 1-6.5.8-.2-.2 0-.4.4-.5.7-.3.5-.4-1-.3-1.1 0-1.2-.3-.2-.7.5-.2.5-.3.1-.2-.4.1-.6 0-.8-.6l-.2-.7a47 47 0 0 1 8-1c.2.2 1 .2 2.2.1 1.5 0 1.9 0 2 .3.3.4.6.4 2.8.2 1.6-.2 2.5-.2 2.6 0h.5c.5-.3 3.4-.1 4.6.3 2.6 1 3 2 1 3-.9.5-1.6.6-3.1.6-1.2 0-2 .1-1.8.3.4.3 1.3.5 1.9.3l1.9-.3zm38.2 0c0-.6 0-.6-.3-.3-.3.5-.3.8 0 .8.1 0 .3-.3.3-.6zm84.5.3c.2-.1.3-.8.2-2.2-.1-1.1-.2-1.7-.3-1.3-.3 1.3-.7.4-.8-2-.1-1.7-.3-2.6-.5-2.7-.5-.2-.4 5.1.1 7 .5 1.4.7 1.6 1.3 1.2zm-130-.6.2-.6-1.3.1-2 .4c-1 .1-1.1.2-.1.4 2 .3 2.8.2 3.1-.3zm110.3-5c-.5-.6-.7 0-.5 1.4l.3 2.6c0 2.4.3 1.6.4-1 0-1.6 0-3-.2-3zm-41 4.2v-1.2l-.4 1c-.5 1.2-.5 1.3 0 1.3.3 0 .4-.3.4-1.1zm1.1.7.3-2.8.1-2.5-.3 2.1-.5 2.9c-.2.7.2 1 .4.3zm1.4.1-.6-.2c-.2 0-.3 0-.3.2s.2.3.5.3.5-.1.4-.3zm2.5-.1c0-.2-.1-.5-.3-.5l-.2-.7c0-.3-.1-.5-.3-.4-.3.2-.3 1.5 0 1.8.2.3.8.2.8-.2zm7.6-2.4c0-1.3-.3-4.3-.4-3.8-.8 3-.8 4.7-.1 6.3.2.7.5-.7.5-2.5zm50.7.6c.1-1.2.2-2.8.1-3.5 0-1.2-.1-1.3-.8-1.6-.4-.1-.7-.2-.8-.1v3.7c.2 3.6.2 3.7.8 3.7.5 0 .6-.2.7-2.2zm-93.2 1.1c0-.1-.1-.2-.3-.2-.1 0-.2.1-.2.4 0 .2 0 .3.2.2.2 0 .3-.3.3-.4zm2 .2c0-.3 0-.4-.4-.4-.3 0-.6.1-.6.4 0 .2.2.4.4.4s.4-.2.5-.4zm-3.5-.2c.1-.1 0-.2-.4-.2-.3 0-.5 0-.5.2s.2.3.4.3.4-.1.5-.3zm38.3-.2c.3-.6 0-.7-.5-.3-.2.1-.3.3-.2.5.2.4.3.4.7-.2zm-73.1 0H22c-.3.1-.2.2.1.2.3 0 .5 0 .4-.1zm69.2-.8c.2-1 .5-7.2.3-7.2-.4 0-.7 1.8-.8 4.7 0 3.1.1 4.1.5 2.5zm32.4-2c0-2.3 0-2.5-.5-2.8-.3-.2-.8-.3-1.1-.2-.6 0-.6.2-.6 2.5 0 1.4 0 2.5-.2 2.5-.1 0-.2-1-.2-2.3 0-2.6-.1-3-1-3-.5 0-.6 0-.6 1.2 0 .8.1 1.2.5 1.4.4.2.4.3 0 .8-.4.3-.5.8-.5 1.4.1.8.2.9 1.1.8.6 0 1 .1 1 .2 0 .2.5.2 1 .2h1.1v-2.6zM9.1 108c.3-.3-.6-.3-1.1 0-.3.2-.3.3.3.3.4 0 .8-.1.9-.3zm10.6-.4a14 14 0 0 0 2.6-.5c.2-.3-3.8 0-5.8.4-.9.2-1.6.4-1.6.6 0 .2.9.2 4.8-.5zm2.4.3a1 1 0 0 0-.7 0h.7zm-8.9-.6c0-.2 0-.3-.3-.3-.2 0-.4.2-.4.4 0 .5.6.4.7-.1zm63 .2c0-.1 0-.3-.2-.3l-.4.3c-.1.1 0 .3.2.3.3 0 .4-.2.4-.3zm2.3-.2.1-1.1c0-.6 0-.8-.5-.8-.3 0-.5.2-.5.4s0 .4.2.4.3.2.3.4-.1.4-.3.4l-.2.4c0 .5.7.5.9 0zm1 0c0-.2-.2-.3-.3-.2-.2.1-.3.3-.3.4 0 .2.1.3.3.3l.2-.4zM7.5 107c-.4 0-.8 0-1 .2-.1.1.2.1.8 0 .9 0 1 0 .2-.2zm7.7 0h-.5c-.2.1-.1.2.2.2.3 0 .4 0 .3-.1zm73.2-1.8c-.2-.3-.4.1-.5 1.1l-.1 1 .4-1c.2-.5.3-1 .2-1.1zm-71 1.5c0-.1-.1-.3-.3-.3l-.2.3c0 .2.1.3.2.3.2 0 .3-.1.3-.3zm78.7-1.2c.1-1.8-.2-4-.4-3.2-.6 1.7-.5 4.7 0 4.7.1 0 .3-.7.4-1.5zm-87.8.8c.9-.2 1.3-.7.6-.6-.9 0-4.2.7-4.4.9-.2.2 2 0 3.8-.3zm31.3 0c1.1 0 2.6-.2 3.2-.4l2.4-.2 6.3-.5a943 943 0 0 1 24.1-2.3l4.2-.7c1.5-.3 7.2-.9 8.6-.8.6 0 1-.1 1.1-.5l.4-4 .4-4c.2-.5.1-.5-1.2-.4a41 41 0 0 0-6.3.8l-3.2.5c-.5 0-1 .2-1.3.3h-.7c-.3-.3-.4-.3-.5 0-.1.1-.5.2-1 0l-.9.1-1.5.3a263 263 0 0 1-12.2 1.3 114.5 114.5 0 0 0-9.1 1.3c-.3.4-.4.4-.8.2-.8-.5-1.6-.5-1.7.1-.2.6-1 .8-1 .3 0-.1-.2-.2-.5-.2-.5 0-1 1-1 2 0 1.2-.8.5-.8-.8-.1-1.2-.1-1.2-.8-.9-.7.4-1 1.5-.6 2.3.4.7.3 1-.1 1-.5 0-.7-.5-.7-2 0-.8-.1-1.4-.2-1.4-.6 0-.9.9-.8 2.4 0 1.4 0 1.7-.3 1.7s-.5-.5-.6-1.8c0-1-.2-1.8-.4-1.8-.3 0-.7 2.1-.5 3.4v1.3c-.4.1-.5-.3-.8-2.4-.2-1.6-.3-2.3-.6-2.3-.1 0-.2 1.4 0 3 0 2.5 0 2.9-.4 2.9s-.4-.4-.4-2-.1-2.2-.5-2.7c-.3-.3-.6-.5-.7-.4 0 0-.2 1.3-.2 2.8 0 2.7-.3 3.8-.6 2.2l-.2-2.8c0-2.3-.2-2.8-1-2.6-.5.2-.5.4-.6 2.4v3c0 .8-.3 1.2-.6.6l-.1-2.9c0-2.5-.3-3.3-.7-2.6-.3.5-.2 5.4.2 6 .2.5.2.7-.2 1-.7.5 0 .7 1.7.5l3.7-.3zm24.7.1c.5-.2.7-.7.2-.7-.6 0-1.6.5-1.5.7.3.4.6.4 1.3 0zm25-1.1v-.6l-.2.6-.2 1v.5l.2-.5.2-1zm-22.7.7c.1-.5-1-.4-1.1 0-.2.4 0 .5.4.4.3 0 .6-.2.7-.4zm2.3 0c.1-.2-.1-.3-.7-.3-.8 0-1.2.3-.9.6.3.3 1.5 0 1.6-.3zm2 .2c.2-.1.6-.2 1.1-.1.8.1 1 0 1-.3 0-.7-3-.5-3.2.2 0 .3.1.4.5.4.3 0 .6 0 .7-.2zm4.4-.3c.5-.6.4-.8-.6-.8-.6 0-1 .1-1 .4 0 .7 1 1 1.6.4zm1.5-.1v-.7c-.3-.4-.6-.3-.7.4-.2.8.4 1 .7.3zm-66-.1c0-.2-.1-.3-.3-.3-.1 0-.2.1-.2.3 0 .1 0 .2.2.2s.3-.1.3-.2zm22.6-1.2c-.2-2-.4-2.6-.7-2.4-.2.2 0 3.1.2 3.6.4.6.6 0 .5-1.2zm82-3.2c.2-2.5 0-2.3-.8.4-.5 1.9-.5 2.7-.2 3.4.3.7 1-1.4 1-3.8zm2 1.4c0-.5 0-.8-.2-.8-.4 0-.4-.6 0-1 .5-.4.6-2.3.3-2.5-.3-.2-1 1.7-1.3 3.2v2.4l.2 1.3.4-1 .5-1.6zm-14.8-1.1-.2-2.8-.2-1.2-.3 1c-.4 1.2-.5 5.1-.2 5.9.3.8.9-1.1.9-3zm2.1 0c0-1.4.1-2.6.3-2.8.2-.2.2-.5 0-1l-.2-.7-.3.7c-.4 1-.4 7.4 0 6.8l.2-3zm-72.8 2-.4-2.2c0-.8-.2-1-.4-.7-.3.5-.2 3.2.1 3.6.6.6.8.3.7-.8zm68.5-1.3c.4-1.6.4-5.1.1-6.2-.2-.6-.2-.6-.6.4-.4.9-.4 1.6-.3 4.3.1 1.8.3 3.2.4 3l.4-1.5zm49.1 1v-.7c-.2 0-.3.1-.3.5 0 .8.1.9.3.2zm-8.7-.5c.2-1-.2-2.2-.8-2.2l-1-.1c-.7-.2-.7-.1-.7 1.4v1.6h1.2c1 0 1.2 0 1.3-.7zm-111-.2-.1-1c-.3-.8-.5-.5-.4.6 0 1.1.5 1.5.5.4zm-1.6 0-.3-.8c-.4-.5-.4-.5-.7.1-.2.3-.2.7-.1.9.2.3 1 .2 1-.2zm-10.7 0 .2-3.2c0-2.5 0-3-.6-4.4l-.7-1.5-1 .4c-1.1.4-1.4.6-.7.6.3 0 .6.2.6.3 0 .1.2.3.5.3.7 0 .7.4 0 .8-.2.2-.3.3 0 .4.1 0 .3.3.3.5s-.2.4-.3.4c-.2 0-.2.2.1.4.3.2.4.5.3.9-.3 1-.3 2.2 0 2.6.1.2.1.4-.1.7-.2.3-.2.4.2.6.6.4 1 .4 1.2.1zM98.4 98a19 19 0 0 0-.9-6.2c-.1 0-.3.6-.4 1.3-.2 1.3 0 1.8.3 1.2.4-.7.5.1.1 1.2-.4 1-.5 6.5-.1 7.1.3.5 1-3 1-4.6zm8.3 2.6c0-.9-.1-1-.3-.6-.3.7-.3 2.7 0 2.2.1-.2.3-1 .3-1.6zm17.3-.6c-.2-1.7-.4-2-1.4-2-.6 0-.8.3-.3.6l.2 1.6c0 1.5 0 1.5.9 1.5h.8zm30-8.3-.1-10c-.1-.2-.4-.4-.7-.4-.5 0-.6.1-.4 5.2l.3 7c.1 1 0 3-.1 4.4-.3 2.5-.3 2.5.3 3.1l.7.5v-9.8zm-38.9 7.1c.5-1.3.8-2.7.8-3 0-.3.3-.8.7-1 .8-.6.8-.6.3.6-.4.8-.8 4-.5 3.8.5-.5 1.1-3.2 1.1-4.7 0-1 .1-2.7.3-3.9.2-2 .2-2.3-.2-2.7-.4-.5-.3-1 .3-1 .4 0 .8-1.7.5-2.2-.3-.4.4-.7 2-.7 1 0 1.3-.1 1.5-.6.2-.7.6-.6.9.1.2.5.4.6.8.5.3 0 .5 0 .5.2l.8.4c.5 0 .8.2.8.4 0 .4-1 .6-1.4.3l-.4-.2-.4 2.2-.5 3.6c-.2 1.4-.1 1.5.3 1.5.6 0 .8-.5.8-2 0-1.7.3-3 .6-3 .2 0 .2 1 0 2.7l-.1 2.6h.7c.8-.1.8-.2 1.2-2.1.3-1.8.5-3.8.3-5.2 0-.9.4-2.6.6-2.6.2 0 .3.5.2 1 0 .7 0 .7.7.6.6 0 .8-.3 1-1.2.3-.6.5-1 .7-1v.7c-1 1.8 1 2.9 2.2 1.2.5-.8 1-.7 1 .3 0 .7.6 1.1 1.8 1.1 1 0 1 0 1.2-2 .2-1.5.5-2.2.8-1.9l-.2 2c-.3 1.8-.2 2.2.8 2 .3 0 .5-.4.6-2 .4-3 .9-3 .6 0l-.2 2.5h.9c.8 0 .8 0 .8-1.5 0-.8 0-1.4.2-1.4s.3.7.3 1.5c0 1.3 0 1.6.4 1.6.7 0 .8 0 .7-1.5-.1-1.7.4-1.6.5 0 .1 1 .2 1.1 1 1.3l.8.2v-1.7c0-1.1.1-1.7.3-1.6.2.1.3.9.3 1.7v1.5l.4-.8c.3-.5.4-1.1.3-2.3-.1-.8 0-1.6 0-1.6.2-.1.3 1 .4 2.3.1 2.5.3 3.3.8 3.3.2 0 .3-5 0-6-.1-.5-.3-.6-.8-.5h-.6c0-.2-2.2-.4-5-.6a626 626 0 0 1-14.4-1c-2 0-4.3-.2-5.3-.4-2-.3-6.8-.7-7-.6-.2.1-.2 2.6 0 5 0 .2.3.4 1 .6 1.3.2 1.8.7 1.3 1.3-.1.2-.6.4-1 .4-1 0-1.6.8-1.6 2.5 0 1.8.3 4.5.8 5 .3.4.3.6 0 1.4a4 4 0 0 0-.2 1.8v1c-.4.3-.4 3.2 0 4l.3.4.9-2.6zm0-6.3c0-2.2.5-6.7.7-7 .3-.2.3.3.1 2.3l-.3 4c0 2.9-.4 3.5-.4.7zm6.1 7c0-1.7 0-1.8-.6-1.8-.7 0-.7 0-.7 1.7 0 1.8 0 2 .8 2 .5 0 .5-.2.5-1.8zm28.3 1.1c0-.3-.2-.6-.7-.7-1-.3-1.1-.2-1.1.6 0 .6.1.7 1 .7.6 0 .8-.2.8-.6zm-119.8-.3s-.1-.2-.3-.2c-.1 0-.3.2-.3.4s.2.3.3.3c.2-.1.3-.3.3-.5zm66.1-3c0-1.8 0-2.7-.2-2.6-.2 0-.3 1.4-.3 3.2 0 2 .1 3 .3 2.6l.2-3.3zm23.3 2c0-.9-.1-1.6-.2-1.6-.4 0-.6.7-.6 2 0 .9.1 1.2.4 1.2.3 0 .4-.4.4-1.6zm-108.4 1c.6-.5.6-.7 0-.7H10c0 .1 0 .4-.2.6-.2.5.2.5.8 0zm134.9-1c0-.6-.1-1-.3-1l-.6-.2c-.4-.1-.5 0-.5.5 0 1 .5 1.8 1 1.8.3 0 .4-.3.4-1.1zm6.2-.1c-.3-.3-.4-.8-.4-2.2 0-1 .1-1.4.2-.7.2 2.1.4 2.4.6.8.3-2.4.3-6.1 0-6.4a2 2 0 0 1-.3-1c-.1-.5-.3-.6-1.2-.7h-1.2V90c0 .7.2 1.3.3 1.4l.3-.1c0-.2 0-.3.2-.3s.2 1.3.1 4l-.2 3.9.8.7c.7.5.8.6 1 .2.2-.3.1-.5-.2-.7zm-.6-7.8c0-.7 0-1 .1-.6V92l-.1-.6zm-58 8.4c0-.1-.1-.2-.3-.2-.1 0-.3 0-.3.2s.2.3.3.3c.2 0 .3-.1.3-.3zM92 97c0-1 0-1.7-.2-1.7s-.3 1-.3 2.2c0 2.6.5 2.1.5-.5zm37.8 2c-.1-.2-.2-.2-.2.1 0 .3 0 .5.2.4V99zm13.5-1c-.2-.4-.6-.7-1-.8-.8 0-.8 0-.8.8.1.7.2.9.7.8.3 0 .7.2 1 .4.3.4.3.4.4 0l-.3-1.1zm-11.6.8c.2 0 .3-.2.3-.3 0-.4-1.2-.2-1.3.2 0 .3 0 .4.3.2l.7-.1zm9-.6c0-.6-.1-.8-.6-.8-.7 0-1.2.7-1.2 1.4 0 .1.4.2.9.2.8 0 .9 0 .9-.8zm-129.6.2c0-.2-.2-.4-.4-.4-.5 0-.8.4-.5.6.3.3.9.2.9-.2zm122 .1-.3-.3c-.2 0-.3.2-.3.3 0 .2.1.3.3.3.1 0 .2-.1.2-.3zm4.6-.2c.2-.7-.2-.8-1.6-.7-1.3.2-2 .5-2 .9s3.4.2 3.6-.2zm.8-.5c-.3-.3-.5.2-.3.6.2.5.2.5.3 0v-.6zm11-.5c0-2.3-.6-8.2-.9-8.4-.1-.2-.2 0-.2.6 0 .4-.1.8-.3.8-.1 0-.3-.4-.3-.8s0-.8-.3-.8c-.1 0-.2.4-.1 1l.6 4.4c.6 4.6.6 4.7 1 4.7.3 0 .4-.4.4-1.5zM6.6 97.1c.4-1.4.1-1.8-.9-1.7-.8 0-.9.1-1 1.5v1.4l.8-.1c.8 0 1-.2 1.1-1zm-2.4.5v-1c0-.7-.1-1-.3-.9-.2.1-.2.5-.1.9v1c-.2.1-.3 0-.4-.5l-.2-.8v.8c0 .8 0 .9.5.8.3 0 .6-.2.5-.3zM93.2 95c0-2.1-.1-2.9-.3-2.7-.2.2-.2 1.2-.1 3L93 98v-3zm-82.3 2.2c0-.2-.2-.3-.4-.3s-.4.1-.4.3l.4.2c.2 0 .4 0 .4-.2zm92.6-2.1c0-.9.1-1.7.3-1.8.2-.2.5-.9.7-1.6.6-1.7 1.1-1.8 1.1-.3 0 .7.2 1.6.4 2.2.2.5.4 1.6.4 2.5 0 1.3 0 1.4.3.8.3-.8 0-9-.3-9-.2 0-.3.2-.3.4 0 .3 0 .4-.2.3-.2-.1-.1-.5.1-1.2.4-.7.4-1.8.4-4.8 0-3.7.1-5.2.6-5.6.2 0 .3-1.7.2-4.1 0-4.9.2-7.3.7-7 .3 0 .4-.8.4-4.6a57076.3 57076.3 0 0 1 .3-14.6c-.2-1.4-.5-5.6-.6-9.3l-.5-8.2c-.2-1.5-.2-1.5-.5 1.5-.3 2-.3 3-.1 3.4.2.3.3 2.4.3 5l.3 7.7c.3 3.6.2 4.4-.4 3.8-.2-.2-.4-2.6-.6-7.6-.7-14.2-.7-14.7-1-14.8-.5-.1-.5.9-.1 7.4.2 4.1.2 5 0 5.2-.4.2-.4 1 0 5.1.5 7.4.6 9.5.3 9.5a19 19 0 0 1-.6-4.2c-.4-5.4-.5-6.1-1-6a68 68 0 0 1-.7-13.5c0-2.3-.1-4.1-.2-4.2-.5-.5-.8.2-.7 1.3.3 1.5.3 1.4 0 3.6l-.2 7.8-.1 6c-.3 0-.6-6-.6-11.1 0-3.8-.1-5.1-.6-4.4-.4.7-.3 15 .3 32.8.1 4 0 5.4-.1 5.4-.2 0-.3-.7-.4-2 0-1 0-2.6-.2-3.6-.2-1.3-.6-25.2-.5-34.6 0-1-.1-1.4-.4-1.4-.2 0-.5.3-.6.7 0 .4-.3.7-.5.7s-.4-.3-.4-.7c0-.8-.9-1-1.2-.2-.3.8-.1 1.2.7 1.4.6.2.8.5.8 1s0 .8.2.9c.3.1.6 15 .4 17.2-.1 1.2-.3 1.8-.5 1.8-.3 0-.4.5-.3 2.4v9l.1 23.4c0 .2.4.4.7.4.6 0 .7-.1.7-1.8v-1.8c-.3-.2-.3-8.6-.1-10.6 0-.8.3-1.4.4-1.4.2 0 .2 1.8.1 5.7-.1 4.8-.1 5.7.2 6 .3.3.4.8.3 1.9-.2 1.8 0 2.2.8 2 .6 0 .7-.2.7-1.7.1-2.2.6-2 .7.1 0 1.7.1 1.8.8 2 .7.1 1 .7 1.2 2.4.2 1 .2 1.3-.4 1.9-1 1-1.8 4.1-1.6 6.3.2 1.7.6.9.6-1.2zM102 78.7c-.1-.5.2-1.3.4-1l.3.8c.1.5 0 .7-.2.7s-.4-.2-.5-.5zm2.4-12c0-10.9 0-12.8.3-11.2.3 1.3.3 22.4 0 22.4-.1 0-.3-4.3-.3-11.2zm-1.8 4.1c-.2-.5-.4-3.8-.4-10.7a208.2 208.2 0 0 0-.2-13.2c.4 0 .6 3.6.9 13.8 0 5.1.3 9.6.4 10 .2.8-.4 1-.7.1zm3.6-6c.4-3 .6-5.9.7-8.8 0-2.4 0-3 .2-2.5.3.7.2 10.3-.2 11.7 0 .4-.3.8-.5.8-.3 0-.4-.3-.2-1.2zM99 30.2c0-.8 0-.8.4-.4.3.2.4.6.3.8-.3.7-.7.5-.7-.4zm48.1 66.2c0-.5.2-1 .4-1.2.3-.5-.2-4.6-.6-4.2-.2.2-.7 5.8-.6 6.2.2.6.7 0 .8-.8zm-45 .4c.2-.7.1-1.7-.2-1.9-.1 0-.3-1-.3-2.1 0-1.3 0-2-.3-2-.2 0-.2.5 0 1.4v3.2c0 1.7.4 2.3.7 1.4zm21.8-1.5c0-1.6 0-1.8-.5-1.8-.4.1-.5.4-.5 1.6-.1 1.5-.5 2-.7 1 0-.3-.1-.2-.2.2 0 .6.4.8 1.4.9.4 0 .5-.3.5-1.9zm2 1.7.1-1.7.1-1.4h-.8c-.8 0-.8 0-.8 1.6-.1 1.6-.1 1.7.5 1.7l.8-.2zm4.3-1.4c0-.7 0-1.3-.2-1.3s-.5 2.6-.3 2.8c.3.3.5-.4.5-1.5zm-8.6-.2c.1-.8.3-1.4.4-1.4.2 0 .3-.1.3-.3l-.8-.2c-.8 0-.8 0-.8 1.2 0 .6-.2 1.3-.4 1.5-.4.4-.3.4 0 .5.9.2 1 0 1.3-1.3zm9.7.3c0-.6-.1-1.2-.3-1.2-.1 0-.3.6-.3 1.2 0 .7.2 1.2.3 1.2.2 0 .3-.5.3-1.2zm-12 .5v-1.1c0-1.1.3-1.6.8-1.4.4.1.5-.3 0-.7-.2-.2-.2-.4 0-.6.1-.2.4-1.1.5-2l.1-1.6-.8-.3-1-.2c-.5.3-1 6.6-.7 7.8.2.6.8.8 1 .1zm26.2-.5c-.3-1.7-1-6-1.1-7.6l-.2-1.6-.8.8c-.7.8-.7 1-.6 2.1.2 1.8.3 2 1 2 .8.1 1 1 .2 1-.5 0-.5.2-.5 1.1 0 .7 0 1.6.2 2.2.3.8.4 1 1.1 1 .8 0 .8 0 .7-1zM10.9 96v-.3c-.3-.2-1.6.1-1.6.4 0 .3 1.3.1 1.6-.1zm15.2-.1a77.5 77.5 0 0 0 7.7-.7A235.3 235.3 0 0 0 60 93.1c8.9-.6 10.9-.8 11.1-1 .3-.2 2.9-.5 13-1.4a30 30 0 0 0 5-.7 117.3 117.3 0 0 0 9-.7c4.3-.3 4.8-.4 5.2-1 .5-.6.3-1.1-.5-1.3a183.1 183.1 0 0 1-23.6 2.3l-4.5.3-6.4.6c-1.8 0-4 .2-4.8.4-.8.2-2 .3-2.7.3-1.2 0-2.7.4-2.9 1 0 .2-1.6.3-5.5.3l-6.2-.1c-2.4-.1-15 .4-19.6.9-7.7.7-7.5.7-7.5 1.4 0 .4.1 1 .3 1.3.2.6.3.7 1.2.6l5.5-.4zm107.3-2c0-.7.3-1.4.5-1.4.2-.1.3.3.1 1.9l-.1 2 1.4-.2c.8 0 1.7-.2 2.1-.4.7-.2.8-.4.8-1.8 0-2-.2-2.4-1.1-2.4-.8 0-.8 0-.8 1.3 0 .8-.1 1.4-.3 1.5-.1.1-.2-.4-.2-1.4 0-1.8-.2-1.9-2.5-1.9H132v4c-.3 1 0 1.4.6.7.4-.3.7-1 .8-1.9zm1.2 1.5c-.2-.2.1-.6.7-.6.2 0 .5.2.5.4 0 .4-.8.6-1.2.2zm-29.6-1-.2-1.2c0-1-.5.7-.5 1.9 0 1 0 1.1.4.6.3-.3.4-.8.3-1.3zm38 .6v-1.9c0-.5-.2-.7-.6-.7-.6 0-.8.5-.8 2.1 0 1 .1 1.3.5 1.4 1 .3 1.1.3 1-.9zm-43-.3c.6-1.5.3-4.2-.4-3.5-.2.3-.5 4.4-.2 4.4l.5-1zm40.6-.6c-.1-1.8-.3-2.1-1-2.3-.9-.1-1 .2-1 2.6v1.2h1l1-.1zm-128.4.7 1.8-.4-5 .3c-.2.2.7.6 1 .5l2.2-.4zm-7.7-.9c.4-.4.1-.7-.3-.5-.3 0-.3 0-.3-.6.1-.4 0-.6-.1-.6-.2 0-.3.4-.3.8 0 1.3.4 1.6 1 1zm2.1 0c.2-.2.4-.9.6-1.6l.4-2c.1-.4 0-.5-.4-.5s-.6.3-1 1.8c-.4 1-.7 2-.9 2l-.2.4c0 .4 1.2.3 1.5 0zm6.3-.2 2.5-.5c0-.2-4.5 0-5.2.2-.4 0-.5.6 0 .6l2.7-.3zm83-1c-.1-.7-.2-.8-.3-.4-.4.7-.4 1.4 0 1.4.1 0 .2-.4.2-1zm35.6-.8c0-.7 0-1-.2-1-.2.2-.3.8-.3 1.6 0 1 .1 1.3.3 1l.2-1.6zm-1.2 0c.2-2.6.5-3.7.9-3.7.2 0 .3.2.2.5l.1.8c.3.4.4 0 .7-1.7l.2-1.1-1.2-.3c-1.8-.5-2-.4-2.1.7l-.4 1.5c0 .3.1.5.7.7.8.2.8.3.7 1.4l-.3 1.7c-.1.5 0 1.2.3 1l.2-1.5zM10 90.5c.4-1.2.4-1.2.3-.4l-.1 1 1.1-.2c.6 0 1.2-.2 1.3-.3l.3-1.4v-1.1L12 88c-.8 0-1 0-1.1.5l-.2.6-.2-.6c0-.6-1.2-.8-1.5-.2-.3.4-1.2 3.6-1.2 4.3v.7l.9-.7c.6-.5 1-1.2 1.3-2zm93.3.3c0-.3 0-.2-.4.2-.2.2-.4.8-.3 1.3v.8l.3-1 .4-1.3zm24.7 1.3a58.6 58.6 0 0 0 .6-5c.2-1.3.2-1.3-.4-1.2-.6 0-.7.1-.7 3 0 1.7-.2 3.2-.4 3.4-.2.3 0 .7.5.7.2 0 .4-.4.4-1zm-99-.3 11.4-.6c6.5-.3 7.4-.5 5.6-1.3-.7-.4-1-.8-1.3-1.4l-.2-.9-2.7.2c-7 .5-8.6.6-10.5 1-1.6.2-2.6.2-5 0-1.7-.3-3.3-.6-3.6-.8-.3-.2-.9-.3-1.2-.3-.6 0-.7 0-.8 1 0 1.2-.8 1.4-.9 0 0-1-.1-1.1-.9-.8-.4.2-.8.7-1.1 1.6-.6 1.6-1 1.5-.6-.1.4-1.4.3-1.6-1-1.4-.5 0-.6.2-.7 1 0 1.4-.5 1.3-.5 0 0-1-.1-1-.7-1-.7 0-1 .4-1 1.8 0 1 0 1 1.3 1.1.7.1 1.8.5 2.3.9 1 .6 1.3.6 3.9.5l8.2-.5zm93.6-1c0-1.6-.2-2.2-.9-2-.4.2-.8 3-.5 3.4l.7.2c.5-.1.6-.3.7-1.7zm7-.1c0-.4-.2-.7-.5-.7-.2 0-.4.3-.4 1 0 .8 0 1 .4.6.2-.2.4-.6.4-1zm16.5.3c.2-1 0-2.2-.7-3l-.6-.7.2 1.8.3 2.2c.2.5.6.4.8-.3zm-3.6-1.3c0-1.3-.5-2-1.3-2-.2 0-.3.4-.2 1.6 0 1.5 0 1.7.7 1.8.4.1.7.1.8 0v-1.4zM5 90.7c.2-.2.3-.4.2-.5-.3-.3-1.4-.2-1.6.1-.4.7.9 1.1 1.4.4zm1-.3-.1-.4c-.2 0-.3.2-.3.4l.1.4s.2-.1.3-.4zm134.3.2v-1.7c0-1.3-.2-1.5-.7-1.7h-.9c-.4.3-.4 3 0 3.3.4.4 1.5.4 1.6 0zM50 90c.2 0 .3-.2.3-.4-.3-.3-1.1-.2-1.5.2-.2.3-.2.4.2.4.3 0 .8 0 1-.2zm9-.8 1.6-1.1c0-.1-.8-.4-2-.5-1.7-.3-2.4-.3-4.2 0l-2.3.6c-.2.2.6.6 1.9 1a8 8 0 0 1 1.6.8c.5.5 1.8.2 3.3-.8zm77 0 .1-1.8c0-1-.2-1-2-1-1 .2-1.1.4-1.3 2l-.2 1.5 1 .1c2.2.3 2.2.3 2.4-.8zm1.5-.8c.7-.2.7-1.3 0-1.6-.7-.4-.8-.2-.8 1.6-.1 1.7 0 2.3.2 1 0-.6.2-.9.6-1zm9.4 0c-.3-.3-.5.2-.3 1l.2.7.1-.8v-.9zm-78.2.6a530.5 530.5 0 0 0 19.8-1.6c6-.4 6.6-.5 6.6-.9 0-.3-4.2-.3-6 0l-4.2.4-3 .2c-.6.3-8.5.4-8.5.2 0-.3 3.4-.7 11.4-1.2 1.4-.1 2.3-.3 2.1-.4-.5-.3-9.8-.7-15.7-.6-5.3 0-7 .2-7.6.8-.1.2-.8.3-1.4.3-.5 0-1 .1-.8.2l1.5.2c1.3 0 1.4 0 1.4.7 0 .5-.3.8-1.6 1.5-.9.5-1.3.9-1 .8l7-.6zm1.7-1.1c-.4-.4 0-.6 1.2-.6.7 0 1.3.1 1.2.2-.2.3-2.2.6-2.4.4zm-64.7.4c0-.1-.1-.2-.3-.2l-.2.4c0 .2 0 .3.2.2.2 0 .3-.2.3-.4zm2.3.3c.2-.4 0-.6-.6-.4-.2 0-.3.3-.2.4.2.4.5.4.8 0zm-5.5-.2c0-.2 0-.3-.2-.3s-.3.1-.3.3c0 .1.1.2.3.2l.2-.2zm2.1-.2c0-.2-.1-.4-.4-.4-.2 0-.4.2-.4.4s.2.4.4.4c.3 0 .4-.2.4-.4zm47.2-.6c.7-.3 2.3-.8 3.7-1l3.4-1 .9-.4-1.1-.1h-1.4l-2 .5c-1.3.2-5 1.1-6.7 1.6-.1 0-.2.3-.1.5.2.6 2 .5 3.3-.1zm99.5-.6v-1.2l.2 1c0 .6.2 1 .4 1.1.1 0 .3-1.2.3-3.3l.1-3.4-1-.2c-.6-.2-1.7-.3-2.5-.4h-1.4v2c-.2 2.6.1 4.3.7 4.3l.5.2c.1.2.3 0 .4-.4.2-.6.2-.6.4.2 0 .7.5 1 1.6 1.2l.3-1.1zm-2.4-2.5c0-.8 0-1.5.2-1.6.2 0 .3.5.3 1.3 0 2-.4 2.2-.5.3zm2.3-.3c0-.6.1-1.2.3-1.3.3-.2.3 1.5 0 2-.2.3-.3.1-.3-.7zm-3-.9c0-.4 0-.9.2-1 0 0 .2.4.2.9 0 1.1-.2 1.2-.3.1zM34.7 87a226.7 226.7 0 0 0 6.4-1.9l-1.2.2-2.3.2c-.7 0-2.2.3-3.4.6-4.4 1.1-4 1.9.5 1zm88.3.2c.2-.6.2-1.9 0-2-.5-.3-1.4 1-1.4 2 0 .6 1.2.6 1.4 0zm-1.7-1c.2-.9.2-1-.7-1-1-.3-1.3-.1-1.5 1-.2 1 .1 1.2 1.4 1.1.6 0 .7-.2.8-1zm-110.4.4c-.1-.1-.4-.2-.7 0-.7.1-.7.3.1.3.4 0 .7-.1.6-.3zm2.5-.2c0-.3-.2-.3-.6-.2a5 5 0 0 1-1 .1l-.3.3c0 .1.4.3 1 .3s.9-.1.9-.5zm2 .3c.6-.3.4-.6-.4-.6s-1.2.3-1 .6c.3.2.8.2 1.3 0zm13.5-.5a8 8 0 0 0 1.6-.5c.3-.3-1.4-.5-2.4-.2l-2.1.3c-1 0-1.7.5-1.3 1 .2.1 2.3-.1 4.2-.6zm-10.8 0c0-.3-.1-.4-.6-.3-.4 0-.8.2-.9.4 0 .2.1.3.6.3.4 0 .8-.3.9-.5zm2.1 0c.2-.2.3-.4 0-.5-.3-.2-1.3.3-1.3.6 0 .4 1 .3 1.3 0zm73.5-2.8c0-1.3-.1-2-.4-2-.2-.1-.3-1.2-.3-4.2 0-4.2-.2-5.4-1-5.4-.4 0-.4-.4 0-.6.5-.2 1.5.2 1.7.6.1.5.7 8.5.7 11.1v2.2l1.2.1c1 .1 1 0 1.2-.7v-2.4c-.2-1-.3-3-.3-4.6 0-4.3-.3-5.7-1-6.1-.3-.2-1.5-.5-2.8-.6-1.9-.1-2.2-.1-1.9.2.5.6 1 6.4 1.1 13.5 0 .5.5.7 1.4.7.3 0 .4-.3.4-1.8zm-53.5.8 4.4-.8c0-.1-.4-.3-1-.4-.4 0-1-.3-1-.4l-1 .2c-.4.3-1.7.5-2.8.6-2 .2-4.5 1-4.5 1.4a165.5 165.5 0 0 1 5.9-.7zm50.3.4c-.1-.2-.4-.4-.7-.5-.7-.3-.6-.7.2-.7.5 0 .6-.1.6-.5 0-.5 0-.6-.8-.4-1 .1-1 0-1-3.2-.1-1.7-.2-2.1-.6-2.2-.4 0-.5.2-.5 2.3 0 3 .4 5 .8 5.4l1.3.2c.6 0 .8 0 .7-.4zm-28-.1c0-.2 0-.3-.2-.3l-.4.3c0 .1 0 .2.3.2.2 0 .4 0 .4-.2zm22-.4V76.4h-1l-.8-.2V78c0 1 .1 1.7.3 1.7.2 0 .2.7 0 2.2 0 2 0 2.3.4 2.6.7.4 1.3.2 1.2-.4zM87 81c0-2.1-.3-4-.4-4.1-.1-.2-.5-.4-.8-.4-.5 0-.5.2-.4 4l.2 4.2H87zm-7.6-1.1c0-3.4 0-4-.4-4-.3 0-.4.5-.4 2.5-.1 5.3-.1 5.3-.5 5.3l-.5-.2c0-.2-.4-.3-.8-.4-.7-.2-.7-.2-.7.4.1.5.3.6 1.4.7h1.7c.2-.2.3-1.4.2-4.3zm2.9 4c.4-1-.6-2.5-1.5-2-.4.3-.3.7.3.7.7 0 .7.8 0 .9-.4 0-.7.3-.7.5-.2.7 1.7.7 1.9 0zm-58.6-.3 2-1c3.4-1.2 4.7-2.3 5.3-4.6l.3-1.2h-5.9c-8.4.3-13.6.5-14 .7 0 0 0 .3.3.5.4.3.4.4.1.6-.2.2-.2.3 0 .4 0 .1.3 0 .4 0 0-.2.6-.2 1.1-.1.7 0 1.1 0 1.2-.2.3-.4 1.2-.4 1.4.1.1.2 0 .6-.1.8-.3.3-.1.4 1.3.4 1.3.1 1.7.2 2 .6.1.3.3.7.5.8.4.3 0 .5-.8.3-.4 0-.7-.3-.7-.5 0-.5-1.2-.5-3-.2-1.2.2-.7.6.7.6 1.2 0 1.3.6.1.7-.4 0-.7.3-.7.4 0 .3.6.4 2.2.5 1.6.1 2.2.2 2.4.6.2.4.5.4 1.9.3.9-.1 1.8-.4 2-.5zM21 81.9c-.8-.2-.8-.3-.8-1.5s0-1.3.7-1.5c1-.4 1.1-.2.5 1-.6 1.1-.4 1.7.6 1.7.2 0 .4 0 .4.2 0 .3-.2.3-1.4 0zm3.8-.6c0-.1-.2-.3-.5-.3-1.3 0-1.9-1.6-.7-2 1-.2 1.2 0 1.2.6 0 .9.7 1.4 1.4 1 .6-.4.7-.4.7 0 0 .2-1.3 1-1.8 1a.3.3 0 0 1-.3-.3zm3.2-1.2c0-.3-.3-.7-.5-.9-.8-.4-.4-.8.5-.5.6.3.7.5.6.9-.2.8-.6 1.1-.6.5zm-3-1.4c-.3-.4 0-.8.5-.8.2 0 .4.2.4.5 0 .5-.7.7-1 .3zm-9.2-.3c0-.5 1.3-1 2-.6.5.1.7.3.7.5-.2.3-2.7.4-2.7.1zm37.6 5.2a85.6 85.6 0 0 1 6.3-1c0-.7-2-.5-9.9.8-1.8.4-2.8.8-1.7.8l5.3-.6zm21.7.1c0-.4-.4-.5-.9-.2-.4.2-.4.3-.2.5.4.2 1 0 1-.3zm-7.4-.4 3.4-.7c2.7-.4 4.5-1.1 4-1.6-.3-.3-6.1.7-8 1.5-3.2 1.2-2.9 1.6.6.8zm-61.5-.7c.2-.6.6-.7.5 0 0 .3.2.5.7.5.8.1 1-.3.3-.6-.2 0-.3-.3-.3-.5.1-.2 0-.5-.1-.6-.2-.1-.5-.4-.6-.7 0-.2-.3-.4-.5-.4-.4 0-.4 0-.1.4.4.7 0 2-.5 2-.2 0-.4 0-.4.2 0 .5.9.3 1-.3zm3.8.3c0-.1-.2-.3-.4-.3s-.4.2-.4.3c0 .1.2.3.4.3s.4-.2.4-.3zm2.4 0c0-.4-.4-.5-1-.4-.9.3-.7.7.2.7.4 0 .8-.2.8-.3zm2-.1c0-.5-1.1-.5-1.5 0-.3.4-.3.4.6.3.5 0 .9-.2.9-.3zm34.7-.3 2.3-.4c.6 0 3.4-.5 3.6-.7l.2-1c.2-1.3.7-1.3.8-.1l.4.8h.4c.2 0 .3-.5.2-1.1 0-1.2 0-1.2-3.1-1.6-3.2-.4-3.6-.4-3.1.1.2.3.6.4 1.3.3.7-.1 1 0 1.4.3.6.5.5.8-.1 1.4-.6.6-1.8 1-4.5 1.4-1 .2-2 .5-2 .7-.2.4 0 .4 2.2 0zm28.4-3.9c-.1-2.6-.4-3.3-1.2-3-.4.1-.4.5-.3 2 0 1 .2 2 .4 2.2.2.2.3.8.3 1.4 0 1.3.5 1.7.8.7v-3.3zm-67 3c0-.3-.3-.6-.5-.4-.3.2 0 .6.3.6.1 0 .2 0 .2-.2zm2.4-.3c0-.1-.3-.3-.6-.3-.4 0-.8.2-.8.3-.1.2.1.3.6.3.4 0 .8-.1.8-.3zm33 0c0-.3-.5-.3-1 0-.3.2-.2.3.4.3.4 0 .7-.1.7-.3zm13.6-.8c0-.1-.1-.2-.3-.2-.1 0-.3 0-.3.2s.2.3.3.3c.2 0 .3-.1.3-.3zm22-.8c.2-.7.2-1.7.2-2.4-.1-1-.2-1.2-.9-1.2l-.7-.1v2c0 2.1.3 2.8 1 2.8.2 0 .4-.5.5-1.1zm9-.6c0-1.4-.3-2-1-2-.2 0-.2 3.3 0 3.5.2.1.4.2.7.1.3 0 .4-.4.3-1.6zm-86 1.2c0-.2-.2-.3-.3-.3l-.4.3c-.1.1 0 .2.2.2.3 0 .4-.1.4-.2zm29.9-.7c-.2-.2-.3-.1-.3.2 0 .5.3.8.5.4 0-.1 0-.4-.2-.6zm33 0c-.1-.1-.2 0-.2.4s0 .5.1.3v-.6zm2 .5c.4-.4.4-.8.3-2l-.8-8.7.3-2.7c.1-2 0-2.3-.3-2.4-.2-.1-.4 0-.4 0l-.2 5.9c-.1 6 0 10.3.4 10.3l.7-.4zm-60-.1c0-.2-.1-.3-.4-.3-.3 0-.6.1-.6.3 0 .1.2.3.4.3s.4-.2.5-.3zm1.6 0h-.5c-.2.2-.2.2.1.2.3 0 .5 0 .4-.1zm47.3-.3c-.3-.4-.7-.3-.5.2 0 .2.3.3.4.2.1 0 .2-.3 0-.4zm-12.7-.2-.1-1.3c0-.8-.1-.9-.3-.5-.4.9-.3 2.3 0 2.2.2 0 .4-.2.4-.4zm108 0c0-.4-.1-.6-.4-.6-.3 0-.6-.2-.7-.4 0-.3-.1-.3-.1.2 0 .7.4 1.3 1 1.3.1 0 .3-.3.3-.5zm-106-.2c0-.3.2-.7.5-1l.6-.7h-.5c-.3 0-.8 0-1-.2-.3 0-.4.1-.4 1.1s0 1.2.4 1.2c.2 0 .4-.2.4-.4zm23.6-.5-.1-1.6-.4-4c0-1.7-.2-3.6-.3-4l-.1-1-.4.8c-.4.9 0 5.6.5 7.3.1.6.2 1.5.1 2.2-.1 1 0 1.2.2 1.2s.4-.4.5-1zm81-.4c.2-1.5-.1-2-1-1.6-.3.2-.4.5-.3 1 .2.5 0 .6-.4.6s-.6-.2-.7-.5c-.2-.7-1.2-.7-1.2-.1 0 .4 0 .3-.5-.2-.4-.5-.5-.6-.9-.3-.8.7-.4 2.3.6 2 .3 0 .6 0 .7.2l1.8.2h1.7zM43.3 74a8.3 8.3 0 0 0-.4-2.7c-.4 0-.5 7 0 7.9.3.8.6-2.5.4-5.2zm103.3 4.7c0-1.5-.7-2.2-.8-.7 0 .5 0 .5-.2-.1-.1-.5-.4-.7-.7-.6a21 21 0 0 1-5.3-.2c-8-.6-18-.6-19.3.2-.1 0 0 .3.4.5.5.2 1.2.3 2.4.2 1-.1 3.5 0 5.7.2a340.2 340.2 0 0 0 17 1.2c.7 0 .8 0 .8-.7zM5.2 79c0-.2-.4-.2-.7-.1-.7.1-.6.3.2.3.4 0 .6-.1.5-.2zm1.3 0c0-.2-.3-.2-.5-.2-.6.2-.5.4.1.4.3 0 .5-.1.4-.3zm1.4-.1.4-.8c.2-.4 0-.5-1-.5-.8 0-1 0-.6.3.3.2.5.4.4.8-.2.6.4.7.8.2zm2.4-.5c.4-.5.4-.7 0-1l-.6.3c-.2.3-.5.4-.6.4-.4 0-.9.7-.7 1 .3.2 1.5-.2 1.9-.7zm28.3-1.8c-.3-.3-.4 0-.2 1.4l.1 1.3.1-1.3a4 4 0 0 0 0-1.4zm34.7 1.2c0-1.6.7-1.6.8 0 0 1 .2 1.1.6 1.1.4 0 .5-.2.5-1.7s0-1.7-.6-1.8c-.3-.2-.7 0-1 .3-.5.3-.6.4-.7.1 0-.2-.2-.3-.4-.3-.3 0-.3 3.2 0 3.5.4.4.7 0 .8-1.2zM67 63.6a452.5 452.5 0 0 0-.6-26.1c0-3.4-.1-5.4-.3-5.4-.3 0-.4 1.3-.3 4.1l.5 15.2c.2 6.6.2 16.2 0 17.2-.2.5-.2 2 0 3.8a2243.4 2243.4 0 0 1 .7 5.7V63.6zm-4.9 14c.3-.2.6-.5.6-.8 0-.4-.3-.4-1.7-.4-1 0-2.3-.1-3-.3-1.7-.4-1.7-.4-1.7-.1l.8.4 2 .8c1.3.7 2.2.8 3 .4zm-20.9-4c0-2.2 0-3.9-.2-3.7a48 48 0 0 0 .1 7.7l.1-4zm23.8 3c0-1.1-.7-1-.8 0-.2.9 0 1 .5.8.2 0 .3-.5.3-.9zm-10-.4c0-.7 0-.7-6.3-1.7-2.2-.3-2.8-.3-3.1 0-.6.5-.5.7.6.8a196.4 196.4 0 0 1 8.4 1.5c.2 0 .4-.3.4-.6zm-49 0s0-.2-.2-.2-.3.1-.3.3c0 .1.1.2.3.2.1 0 .2 0 .2-.2zm2.5.1c.1-.1 0-.3 0-.4-.2-.2-.9.1-.9.4 0 .3.7.3 1 0zm2.6 0c.3-.2.1-.3-.5-.3-.5 0-.9.1-.9.3 0 .3.8.3 1.4 0zm97.5-3c0-1 .3-1.3.6-1.4.4-.1.5-.7.7-4l.2-8.7c0-2.6.1-4.8.3-4.9a201.7 201.7 0 0 1-.5-13.9c-.1-9-.3-11-.7-11-.5 0-.5 3.6-.2 11.3a320 320 0 0 1 .1 19c0 6.8-.2 8.5-.5 8.5-.2 0-.4-.4-.4-1-.2-1-.2-.8-.4 1-.2 2.7-.2 7.4 0 8 .2.5.4-.3.8-3zM15.9 76h-2 2zm74.6 0c0-.2 0-.4-.2-.5-.4-.2-1.2 0-1 .4.2.4 1.2.4 1.2 0zm51.4-.2c.2-.3.2-.4-.3-.4-.3 0-.5.2-.5.4s0 .4.2.4l.6-.4zM25 75.9h-.5l.2.1c.2 0 .4 0 .3-.1zm63.3-.3c0-.5-.5-.8-.9-.4-.2.2-.2.4.1.6.6.3.8.3.8-.2zm51.3 0c.2-.2-.4-.3-1.8-.3-2.1 0-3-.4-2.8-1 0-.1 1-.2 2.5-.2l2.5-.1c.2-.3-.3-3.7-.6-4.3-.1-.3-.5-.5-1-.5l-.7-.1.2 1.5c.1 1.2 0 1.4-.2 1.4-.3 0-.5-.3-.6-1-.2-1.6-.6-2.2-1.2-2-.5 0-.6.1-.5 1 .2 1.5.2 2-.1 2-.2 0-.5-.7-.7-1.6-.3-1.3-.5-1.7-1-1.7-.3 0-.5.3-.5 1-.1 1.4-.4 1.3-.8-.2-.2-.8-.5-1.2-.7-1.1-.4 0-.5.6-.6 2.6v2.6l.7.1 1.6.2c.9 0 1.3.4.8.9-.3.2-2.8 0-5.6-.5-.4-.1-.8 0-.8 0 0 .4 1.3 1 1.7.8.2 0 1.4 0 2.6.3 2.6.5 7.2.6 7.6.2zm-107-.4c.6-.4.5-1-.3-1.2-1.3-.3-4.6-.4-4.6-.1 0 .2 1.7.8 2.5.8.3 0 .4.2.4.5 0 .5.2.5.8.4l1.2-.4zm53.9.1c0-.2-.2-.4-.5-.5-.4-.2-1 .3-.7.7.2.4 1.2.3 1.2-.2zm-2.2-.3c0-.5-.3-.7-1.3-.6-.5.1-.6.2-.4.7 0 .2.5.4 1 .4.6 0 .7-.1.7-.5zm-44.6-1.6c-.1-.2-.2 0-.2.5 0 1.3.2 1.5.3.6v-1.1zm21 1.6c0-.1-.1-.4-.4-.6-.5-.5-3.2-1.4-3.4-1.2-.1.1 0 .3.4.3.3.1.8.5 1 1 .3.6.6.7 1.3.7.5 0 1 0 1-.2zm21-.3c0-.6-1.2-1-1.6-.6-.5.5 0 1.1.8 1.1.6 0 .8 0 .8-.5zm-2.6-.5c0-.3-.2-.6-.4-.6-.4 0-.6.8-.3 1.2.3.3.7-.1.7-.6zm69.3.5c0-.2-.1-.3-.3-.3l-.4.3c0 .1 0 .3.3.3.2 0 .4-.2.4-.3zm-110-3a17 17 0 0 0-.3-3.1c-.4-1.1-.6 1.5-.3 3.6a34.1 34.1 0 0 1 .4 2.4l.2-2.8zm39 2.5c0-.3-.2-.6-.5-.6-.3-.1-.5-.3-.5-.5 0-.1.2-.3.5-.3.7 0 .7-.4 0-.6-.7-.3-1 0-1 1.1 0 1.2.1 1.4 1 1.4.4 0 .6-.2.6-.5zm67 0c0-.4-.6-.3-.7.2 0 .2 0 .3.3.3.2 0 .4-.2.4-.4zm6.4.1.1-.8c.1-.3 0-.4-.2-.2-.5.1-.6 1.4-.2 1.4.1 0 .3-.2.3-.4zM18 74c.3-.5.3-.5.7 0 .4.5 1 .6 1.4.1.3-.3.4-.3.5 0 .2.5 1.3.4 1.5-.1.2-.5.2-.5.5 0 .3.6 1 .5 1.3-.2l.2-.6.2.6c.2.9 1.2.7 1.4-.1V73h-4.6l-4.8.3c-.3.3.4 1 1 1 .2 0 .6-.2.7-.4zm37.3.2c0-.4-1.3-.9-1.8-.7-.5.2 0 .6.8.7l.8.2c.2 0 .2 0 .2-.2zm17.5-2.5c-.1-2-.4-2.5-1.1-2.6-.3 0-.3 5 0 5.1h.6c.5-.3.5-.6.5-2.5zm17.5.9c0-2-.1-2.1-.9-2.1-.5 0-.5 0-.3 1.7.2 2.1.3 2.3.8 2.2.4 0 .5-.4.4-1.8zm52.3 1.4c.1-.4-.5-4.8-.8-5 0 0-.2.1-.3.5-.2.7-.2 4.4 0 4.7.2.4.9.3 1-.2zm-127-.1c0-.1-.6-.3-1.5-.4-2.6-.3-7.9 0-6.9.4.7.2 8.5.2 8.5 0zm11.4-.3c0-.4 0-.5-.3-.3-.1.2-.2.4 0 .6.2.4.3.3.3-.3zm35.2-.4a1 1 0 0 0-1-.2c-.6.2-.5.6.3.9.8.3 1.2-.1.7-.7zm12.9 0c-.1-.6-.4-1.2-.7-1.4-.3-.2-.3-.4-.1-.8.4-.6 1-.6 1.8 0s1.5.4 1.5-.3c0-.5-.4-.6-2.7-.9l-1.5-.2.1 2c.2 2.5.2 2.6 1 2.6.7 0 .7 0 .6-1zm13.2.7-.6-.3c-.2 0-.3.2-.2.3 0 .1.3.3.6.3.2 0 .3-.2.2-.3zM52 73.2c.4-.6.4-.6-1-.6-1 0-1.6.1-1.8.4-.4.4-.3.5.9.7 1 .2 1.5 0 1.9-.5zm34.2.4-.4-.2c-.2 0-.4 0-.4.2s.2.3.4.3.4-.1.4-.3zm-2.1-.2c0-.2-.3-.3-.7-.3-.7 0-.7 0-.2.3.7.3.9.3.9 0zm69.3-1.3v-1.5l-.4 1.3c-.3 1.4-.3 1.7.2 1.7 0 0 .2-.6.2-1.5zm-72 1c0-.1-.2-.2-.6-.2-.5 0-.5 0 0 .2l.6.3V73zm-35.2-.4c0-.2-.2-.4-.7-.4-.7 0-.7 0-.2.4.7.5 1 .5 1 0zm82.3-1.1c-.1-.3-.2 0-.2.4 0 .6 0 .8.2.5v-1zm15.7-.9c.2-1.5.1-2.3-.1-2.5-.3-.4-.4-.4-.8.1-.6.7-.6 1.4-.2 3.2.4 2 1 1.7 1.1-.8zm7.6 1c0-.2-.2 0-.4.2l-.4.8.4-.2.4-.8zm-64-.3c0-.7 0-1-.4-1-.5 0-.8.7-.6 1.5.3 1 .8.7 1-.5zm-3.5.1c0-.5.2-.8.4-.8.3 0 .4.3.4.8 0 1 .5 1 .6.2.2-1 0-1.1-1.7-1.4-1.7-.2-2 0-1.5 1.3.2.6.4.7 1 .7.8 0 .8 0 .8-.8zm-3-.4c.2-.7 0-.9-.3-.9-.6 0-1 .8-.7 1.5.3.7 1 .3 1-.6zm36.4-5.4c0-6.5-.1-7.1-.6-7.1-.2 0-.2 2 0 6.2 0 6 .2 7.2.5 7.2v-6.3zM64 71.6c-.5-.9-5-1.6-11.8-2-2.3 0-4.4-.2-4.7-.3-.5-.2-.6-.1-.6.2 0 .8 1.6 1.2 7.6 1.6l6.1.6c.2.2 3.5 0 3.4-.1zm15.4-1c0-.5-.1-.7-.5-.7-.7 0-.9.4-.5 1.2.2.6.3.7.6.4.2-.2.4-.6.4-1zm-49.2.3c0-.4-.1-.7-.3-.7-.3 0-.3.9 0 1.1.2.3.3.3.3-.4zm120.4 0c0-.3-.1-.4-.3-.4-.1 0-.2.2-.2.5s0 .5.2.4c.2-.1.3-.3.3-.6zm-37-1.1c.1-2.6 0-9-.3-8.7-.2.2-.5 9-.3 10 0 .6.5-.3.6-1.3zm16.7-1c-.1-.6-.2-.7-1-.7-.7 0-1 .1-1 .4 0 .2.2.4.4.4.3 0 .5.4.6 1.2l.2 1.2.5-.9c.4-.5.5-1 .3-1.6zm-2 1.3c-.1-.2-.2-.1-.2.2 0 .3 0 .4.2.4V70zM45.8 70c0-.3-.2-.5-.5-.5-.6 0-.7.7-.2.9.6.2.7.2.7-.4zm69.1-6-.2-1v1.4l.1 3.8.2 2.5V64zm7.1 2.6c0-3.4.2-4.3.7-3.4v-1.8c-.7-7.9-.8-9.6-1-9.8a149.5 149.5 0 0 0 .2 18.9l.1-3.9zm-90 .7c0-1.2 0-2.3-.2-2.4-.1-.1-.2 1-.2 2.7 0 2 0 2.7.2 2.4.1-.2.3-1.4.3-2.7zm121.7.7v-1l-.4 1.2c-.2.7-.3 1.5-.2 1.7.2.5.2.5.4-.1l.2-1.8zm-60.5 1.5c.4-.4.5-.9.5-2.1 0-1.1 0-1.6-.3-1.5-.2.2-.2.6-.1 1.2.3 1.9-.4 2.8-1.3 1.6-.3-.5-.7-.6-2.5-.6-1.1 0-2.2-.2-2.4-.3-.1 0-1.8-.4-3.7-.6-2.7-.3-3.5-.5-3.4-.8 0-.3.7-.4 3.4-.4 1.8 0 3.4.2 3.7.3l2.5.4c1.2.1 2.2.4 2.4.6.3.3.4.3.4-.1 0-1.1-1.2-1.4-8.6-1.7a3971.7 3971.7 0 0 1-7.7-.3c-.8 0-.1.5.8.5.7 0 .8 0 .8.9 0 .8.1 1 .7 1l2.2.6c.9.3 2.5.5 3.6.6l2.5.4c.5.3 3.6.7 5 .8.6 0 1.1-.2 1.5-.5zm-3.3-.2c-.3-.3-.2-.6.4-.5.3 0 .5.2.5.3 0 .3-.6.5-.9.2zm-11.5-2.7c.2-.5.7-.5.8-.1 0 .1-.2.3-.5.3-.2 0-.4 0-.3-.2zM96 69.7a127.8 127.8 0 0 0-.4-22.3A25 25 0 0 0 95 43l-.3-3.5c0-2-.2-3-.3-3a134.8 134.8 0 0 0 .4 21.6c0 1.7.1 3 .3 3 .3 0 .3.7 0 .8-.2 0-.4 1.4-.5 3-.2 2.6-.1 3 .3 3.2.3.3.4.6.3 1-.2.8-.1.9.7.5zm51.4-3.6a117 117 0 0 1-.7-5.8c-.3-3.6-.4-4-.8-3.7v3.7c.3 3.2.4 4.2 1.1 6.4.2.5.2 1.2.1 1.6-.2 1 .1 1.6.5 1 .2-.3.1-1.3-.2-3.2zm1.4-2.6c-.1-1.8-.4-3.4-.5-3.5-.1 0-.2-.6 0-1.2l-.1-1.5c-.2-.4-.2-.4-.5 0-.3.3-.3 1.2 0 4.3a25.8 25.8 0 0 0 .9 5.9c0 .6 0 1.1.2 1.2.3.4.4-1.8 0-5.2zM30 65.8c0-1.4 0-2.7.2-2.8.2-.4 0-6.1-.5-13l-1-14.6-.2-3.2-.2 4.3a66.1 66.1 0 0 0 .5 13c.4 1 .6 4.5.6 11.3 0 5.7.2 8 .5 7.7v-2.7zm33.8 2.4c0-.5-1-1.6-1.2-1.4-.2.2.7 1.8 1 1.8l.2-.4zm81.8-3.6-.5-5.4-.1-1.6-.4 1c-.3.8-.3 1.4 0 2.2l.2 3.4c0 1.5.1 2.7.4 3.4l.6 1-.2-4zm4.7.4a462 462 0 0 1-.4-4.7c-.1-1.7-.5-2.2-.8-1.3-.2.4.1 4.1.6 8.4.1 1.1.2 1.2.5.9.4-.3.4-.9.1-3.3zm-90 3.2c.5-.2.4-.6-.2-1.7-.5-.8-.6-.8-.8-.5-.2.3-.5.5-.7.5-.2 0-.3.3-.3.8 0 .6 0 .8.5.9a121.4 121.4 0 0 1 1.4 0zm79-.1c.3-.5-.3-1-1-1-.5 0-.7 0-.7.4l.2.7c.3.2 1.4.2 1.6-.1zm-74.2-.5c0-.3-.8-.6-1-.5-.2.3.5 1 .8.8l.2-.3zm76 0s-.1-.2-.4-.3c-.3 0-.4.1-.4.4 0 .4.8.4.8 0zM34 66.2c-.3-.3-.4.6 0 1.4.1.4.2.3.2-.3 0-.4 0-.9-.2-1zm28 1.5a5 5 0 0 0-.5-1.1c-.7-1.1-1-.7-.4.5.4.7 1 1.1 1 .6zm72.3-.2c0-.2-.3-.4-.7-.4-.6 0-.8.3-.5.6.4.4 1.2.2 1.2-.2zm-14.3-5c0-3.3-.1-5.2-.3-5.2a70.2 70.2 0 0 0 .2 10.3l.1-5.1zm16.7 4.9c0-.2-.4-.3-.8-.3-.5 0-.8.1-.7.3.1.1.5.3.8.3.4 0 .7-.2.7-.3zm15-4.7-.5-2.2c-.3 0-.2 4.2.2 6.2l.2 1 .1-1.4v-3.6zm-123 3.7c-.2-.2-.2-1.7-.2-3.5 0-4-.3-7-.6-6.6-.2.3-.1 6 .2 9.2.1 1.5.2 1.9.4 1.5.1-.2.2-.5.1-.6zm24.9.8-.6-1.4c-.5-1-1.3-1.9-2-1.9-.2 0 0 .7.5 1.4l1.1 1.4c.5.7 1 1 1 .5zm2.5 0c0-.2-.3-.3-.4-.3-.2 0-.2 0-.1.2 0 .2.3.3.4.3.1 0 .2-.1.1-.3zm17.1-.6c-.1-.6-.7-.7-1-.1-.1.5-.6.2-.9-.6-.2-.7-.8-.9-.8-.3 0 .6 1 1.5 1.6 1.6 1 .1 1.3 0 1.1-.6zm3.7.3c0-.7-.5-1-.7-.4-.2.6-.1.9.3.9.2 0 .4-.2.4-.5zm-27.3 0c0-.1-.1-.4-.4-.6-.2-.2-.4-.2-.5 0-.1.2 0 .5.2.6.4.3.7.3.7 0zm25.7 0-.4-.6c-.4-.3-.5-.3-.7 0-.4.7-.3.8.4.8.4 0 .7 0 .7-.2zM45 66.6c0-.5-.4-.9-1-.9s-.7.3-.2.7c.3.3 1.2.5 1.2.2zm3 0c0-.2-.2-.4-.3-.5-.2 0-.3 0-.3.2 0 .3.1.5.3.5l.2-.3zm-5.9-.3c0-.3-.7-.6-.9-.4-.3.3-.1.6.4.6.3 0 .5-.1.5-.2zm14.5-1.5c-.4-1.2-.8-1.3-1-.4l-.3 1c-.3.3-.3.4 0 .2.3 0 .7 0 .9.3.5.7.8 0 .4-1.1zm-3 .3c-.3-.3-.4-.2-.2.1 0 .3.2.5.3.4 0-.1 0-.3-.2-.5zm69.4-.3-.1.4v.3c.2-.2.2-.5 0-.7zm14.8.4-.2-2c0-2-.5-2.2-.5-.2 0 1.7.2 2.7.6 2.7.1 0 .2-.2 0-.5zm1.3-1.9c-.2-2-.4-2.5-.8-1.8-.2.2.2 2.7.6 4 .2.8.3-.2.2-2.2zm1 1.8v.5c.2 0 .2-.3 0-.5zm2.5-.7-.1.5v.5-1zm11.1-1c0-2-.6-2.4-.6-.4-.1 1.6.1 2.8.4 2.5.2-.1.3-1 .2-2zM58 65.1l-.4-.7c-.3-.3-.4-.3-.4.2 0 .2 0 .6.2.7.3.3.6.2.6-.2zm77-.5c-.2-.6-.2-.6-.3 0l.2.7c.3.3.4 0 .1-.7zm1.3-1.3c-.1-1.1-.2-1.7-.5-1.8-.3 0-.3.2-.2 1.5.3 3 .8 3.2.7.3zm-63.1 1.6c.2-.4-.6-.8-1.3-.6l-.7.1.6.4c.7.4 1.2.4 1.4.1zm60 0-.4-1.7c-.4-1.4-.6-.8-.3 1 .2.9.6 1.4.6.6zm8.4-.9c0-1.4-.3-2.3-.7-2.5-.4-.1-.5 1 0 2.5.3 1.5.7 1.5.7 0zm-52.3.6c-.2-.2-.3-1.3-.2-3.6.2-2.9.1-3.3-.2-3.5-.3-.2-.5-.5-.5-.7 0-.3 0-.4-.2-.2v3.7l-.1 3.9c-.2.4.1.6 1.1.7.3 0 .3 0 0-.3zm1.6 0c.5-.4.9-.4 1.3-.2.3.2.6.2.9-.1.2-.3.5-.5.7-.5a503.2 503.2 0 0 0-1-29.3l-.3 8.5c0 4.4-.1 8-.2 8-1 .4-1.1.6-1.2 3.5 0 1.9 0 3 .2 3 .4 0 .8-1.8.8-3.2 0-1.3.4-2 .6-1.2.3.7.2 10.7 0 10.9h-.3A147.3 147.3 0 0 1 92 59s-.3 0-.6.3-.3.7-.1 2.4c.2 1.2.2 2 0 2.2l-.3.1-.5-2.6-.4-2.5-.1 1.8v4.1l.9-.4zm33.6-5.9c-.5-6.4-.8-8.6-1-8.9-.5-.4 0 12 .4 14l.3 1.2.4-.7c.3-.6.3-1.4 0-5.6zm-84.8 4.6c0-1 0-1.3-.2-1-.4.5-.4 2.3 0 2.3.1 0 .2-.6.2-1.3zm2.2-1.4c-.2-1.2-.4-5.3-.5-9.2 0-4-.3-7-.4-7-.1.1-.2 2.7-.2 5.8a226.6 226.6 0 0 1-.1 9.5c-.3 1.4 0 3.3.6 3.4.8.2 1-.2.6-2.5zm45.5 1.8c-.2-.5-.2-2.2-.1-3.8.1-2.8.1-3-.4-3-1.4 0-.6-1.3 1-1.6.7-.2.8-.3.7-1 0-.4-.2-.7-.6-.7-1-.2-1.2-.6-1.2-2.5v-1.8l-1.2-.5c-2-.9-2.2-.8-2.2.8 0 2.3.3 3.4.8 3.4.6 0 .8-1.2.6-2.8-.1-1 0-1.2.2-1.2.5 0 .8 1 .8 2.7 0 .6.1 1 .4 1.1.6.3.4 1-.2 1.1l-2.2.3c-1.4 0-1.6.1-1.7.6 0 .5.1.6 1.6.8 1.2.1 1.7.3 1.7.6 0 .4.2.4-4.9.1l-3.2-.2v4l.1 4 1.5.1h1.7v-1.8c0-1.2 0-1.6-.4-1.6-.3 0-.4.4-.5 1.5 0 1.5-.4 2-.6 1-.1-.3-.3-.4-.7-.3-.5 0-.6 0-.5-.2l.6-.3c.2 0 .3-.6.2-2.6 0-2.3.2-3.6.6-3.1.1 0 .3.8.3 1.6.1 1.3.2 1.5.7 1.5.4 0 .5-.1.4-.8-.2-1 .1-1.6.6-1.1a1 1 0 0 0 1.6-.1c.4-.5.6-.3 1.1 1 .4 1 .4 1.7.2 3.3a8.6 8.6 0 0 0-.1 2.2l1.8.2h1.7zm-2-.6c-.3-1.6-.2-4.8.1-5 .6-.3.8.6.7 3.2 0 2.7-.5 3.7-.8 1.8zm-2.2.4v-1.7c0-.7-.2-.9-.7-.9-.7 0-.7.1-.7 1.8s0 1.7.7 1.7.8-.1.7-.9zm48.5-.2c-.3-1.6-.4-1.9-.7-1.7-.3.2-.1 2 .2 2.6.3.6.6 0 .5-1zm-93.5-.1c.1-.7 0-1.3-.4-2.2-.6-1.2-1.2-1.6-.9-.5l.3 1.5c.4 2.4.8 2.8 1 1.2zm-4.3.1c0-.3-.1-.5-.2-.4-.2.1-.2.3-.1.6.2.5.3.4.3-.2zm42.6-3.9-.1-4.4h.8c1 0 1.3-.3.9-.8s-1.3-.5-2 0c-.3.2-.9.3-1.3.3s-.8.1-.9.3c0 .3 0 .4.4.3.3-.1.8 0 1 .2.5.3.5.3 0 .8-.3.4-.4 1-.4 3.3 0 3.8.2 4.4 1 4.4h.7l-.1-4.4zm-41.1 2.3a304 304 0 0 1-.7-8.7c-.3 0 0 8.7.3 9.7.4 1.4.5 1 .4-1zM46.8 63l-.3-4.6c-.2-3.1-.3-4.1-.7-4.9l-.5-.9.1 4.4c.3 6.6.3 6.6 1.1 6.6.3 0 .4-.2.3-.6zM74 60c0-3 0-3.8-.4-4.1-.2-.2-.5-.3-.5-.2-.3.3-.3 6.9 0 7.4 0 .3.3.5.5.5.4 0 .4-.6.4-3.7zm-26 .7c-.2-2.8-.3-3.6-.7-3.3-.5.3.2 6 .7 6v-2.7zm85.3 1.2c-.3-.2-.3-.2-.2.2l.2 1c0 .2.1 0 .2-.3 0-.3 0-.7-.2-.9zm-64.7.3v.7-.7zm3.3-4c.2-5.2 0-8.6-.3-8.6-.2 0-.2 1.1-.2 2.8 0 3.7 0 4-.3 4l-.3-1.6a6 6 0 0 0-.2-2c-.4-.6-.4 1.9 0 3.1l.4 4c.1 2.1.3 3.1.5 3 .2 0 .3-1.6.4-4.6zm71.9 3.6c0-.3-.1-.1-.1.3v.5c.2-.2.2-.5.1-.8zm-99-.2c-.5-4.2-.6-4.8-1-4.7-.5.2-.7-.5-.7-3.1 0-3-.4-4-.7-2-.2 1.6 0 8.5.4 9.5.2.7.2.4.3-1.5 0-2.1.2-2.8.6-2 .1.1.3 1.2.3 2.4l.1 2.3h.4c.1-.1.3-.5.2-1zm-12.5-.2c-.1-.5-.2-.5-.4 0-.3.4 0 1 .3.7.1 0 .2-.4 0-.7zm94.3-1c-.3-3.2-.8-6.5-1-6.8-.2-.2-.3-1-.2-2v-1.8l-.4-.1c-.3-.2-.4.1-.3 1.9a99.5 99.5 0 0 0 .8 8c.1 1.5.6 2.8 1 2.4.1-.1.2-.9.1-1.6zm8.1 1.4c.1-.2 0-.3 0-.2-.2 0-.3.3-.3.4 0 .4.1.3.3-.2zm-84.1-.3-.3-.6v.6c0 .3 0 .5.2.5v-.5zm3-.3c-.1-.3-.2-.2-.2.1 0 .3 0 .4.2.4v-.5zm98.4-.5-.1.4v.4c.2-.1.2-.5.1-.8zM38.4 60c-.2-1.4-1.2-3-1.4-2.4-.2.5 1 3.4 1.4 3.4v-1zm115 .5-.1-.3c-.2 0-.3.2-.3.3v.3c.2 0 .3-.1.4-.3zm-99.6-2c-.4-.3-.4.6-.1 1.4.2.4.2.3.3-.3 0-.4 0-.9-.2-1zM83 60v-.5c0-.2-1-.1-1.3 0l.1.5c.2.3 1.2.3 1.2 0zm59.4-1c-.2-.1-.4-.4-.4-.6-.1-.2-.2 0-.2.4 0 1 .6 1.8.7.9l-.1-.8zm-103-1c-.3-.3-.4.9-.1 1.6.2.4.2.3.3-.4 0-.5 0-1-.2-1.2zm96.5.7c-.1-1.4-.8-1.4-.8 0 0 .7.2 1 .5 1s.4-.2.3-1zm1.6.2c-.1-1.2-.8-1.3-.8-.1 0 .6.2 1 .4 1 .4 0 .4-.3.4-1zm2.7 0c0-.7-.4-1.3-.7-1-.2.2.2 1.8.4 1.8s.3-.3.3-.8zm-1.7-.4c0-.3-.1-.1-.1.3s0 .6.1.5v-.8zM17 58.7c0-.2-.1-.4-.3-.4-.1 0-.3.2-.3.4s.2.4.3.4c.2 0 .3-.2.3-.4zm115.8-1c0-.3-.1-.1-.1.5v.6c.1-.3.2-.8 0-1.1zm11.4-.4c0-.5 0-.9-.2-.9s-.3.7-.3 1.4c0 1 .1 1.3.3.9l.2-1.4zm-93.6-.7c0-1-.1-1.7-.2-1.7s-.2.7-.1 1.7c0 1 .1 1.7.2 1.7v-1.7zm18-5.5-.7-7.9-.3-4V44a77.1 77.1 0 0 0 .7 12.8v1.6l.3-1.7v-5.6zm1 6c-.1-.1-.2 0-.2.4s0 .5.1.3v-.6zm45.5 0c-.1-.1-.2 0-.2.4s0 .5.2.3v-.6zm-1.3-5.2c-.4-9.4-.6-11.2-1-11.9-.3-.6-.3-.3-.2 2 .1 3.9.7 13.9.9 15 0 .7.2.8.3.5.2-.3.2-2.7 0-5.6zm16 4v1.4V56zm-17.4-2c0-2.2 0-2.3-.3-1.6a12 12 0 0 0-.2 5c.3.4.5-.9.5-3.4zm-74.2 1.9c0-.3-.3-.9-.6-1.2l-.5-.7v.9c0 .5.2 1.3.4 1.7.4.8.5.8.6.4.1-.3.2-.8.1-1.1zm89.1-1.3-.2-.8v1.2l.1 1.8c.2.6.2.6.3-.3 0-.5 0-1.4-.2-1.9zm-75.2 1-.1.5v.6c.2-.2.2-.7 0-1zm66.8.7c-.2-1-.3-1-.3 0l.2.8c.2 0 .2-.3.1-.8zm13.3.5-.1-.3c-.2 0-.3.2-.3.3l.1.3.3-.3zm-92.5-1.2c0-.6 0-1.2-.2-1.2-.3 0-.4 2-.1 2.2.3.3.3.2.3-1zm108.2.8c0-.2-.1-.4-.3-.4-.7 0-.5.5.3.8v-.4zm-32.6-4.5-.4-6.1a31.3 31.3 0 0 0-.8-7.5c0-2-.3-5.8-.5-6.5-.2-.4-.3 0-.4 1V35c.2.4.4 2 .5 3.7a85.2 85.2 0 0 1 .8 11c.2 5.7.4 6.8.7 4.5v-2.4zm38 2c-.1-1.5-.3-2.1-.9-2.1-.1 0 0 3.1.2 3.6 0 .2.3.3.4.3.3-.1.3-.6.3-1.8zm1.2-1.5c0-.7 0-.8-.3-.7-.5.1-.6 1.7-.2 3.3.1.9.2.9.3-.4l.2-2.2zm-73.3 2.5c0-.5-.3-.6-1-.7-.7 0-1 0-1.1.4-.3.6 0 .9 1.1.9 1 0 1.1 0 1-.6zm-49-.7v.8c.1-.2.1-.5 0-.8zm97.7.3c-.3-.3-.5.1-.3.5.1.3.2.3.3 0v-.5zm-11-.9c0-.7-.1-1.3-.3-1.3v1.3c0 1.7.2 1.7.2 0zm-103.1.8-.2-1-.3-.7-.2.8v1c.1.3.5.2.7 0zm122.8-.2h-1.4c-.4 0-.1.1.7.1h.7zm-64.3-2.6c.1-1.7 0-2-.4-2.5-.3-.3-.7-.4-.8-.4a14 14 0 0 0-.1 4.8c.1.5.2.6.6.3.4-.2.5-.8.7-2.2zM73 49.7c0-.2.2-.4.4-.4.5 0 .4.6-.1.7-.2 0-.3 0-.3-.3zm63.2 4.3-.5-.3-.6.1c0 .1.3.3.6.3l.5-.1zm-97.9-1.2c0-.9-1-3-1.5-3-.3 0 0 2.4.4 3.1.7 1.2 1.1 1.1 1.1-.1zm102.3.7-.1-.2c-.2 0-.4 0-.5.2l.1.3c.2 0 .4-.1.5-.3zM17.5 51.3c-.3-.3-.4 1.1 0 1.9 0 .3.2.2.2-.6 0-.5 0-1.1-.2-1.3zm134.2 0c-.4-.3-.5.2-.4 1.3l.2 1 .2-1v-1.3zm-130-1c0-1.6 0-1.6-.2-.6-.2.6-.2 1.6-.2 2.4 0 1.1 0 1.2.2.5l.2-2.4zm10.1-3.7c-.5-8-.8-11.2-.6-6a150.5 150.5 0 0 0 .8 12.1l-.2-6zm51 4.2-.5-2.6c0-.2-.7-.3-1.3-.4-1.7 0-2.1.4-2.1 2.6 0 2 .4 2.7 1.5 2.5.7 0 .7 0 .7-2 0-1.1.2-2 .3-2 .2-.1.4.8.6 2l.3 2.3h.3c.2 0 .2-.7.1-2.4zm-6.9 0c.1-2.9.9-2.6.9.4 0 1.2.3 1.6 1 1.3.2 0 .3-.8.3-2.3 0-2.6-.2-2.8-1.8-2.1-1 .4-1 .5-1.2 2-.3 2.6-.2 3 .3 2.8.4 0 .5-.4.5-2zm12.8 0c0-1.3 0-1.5-.5-1.5-.4 0-.6.3-.7 1.3-.2 1.5.2 2.6.8 2.1.3-.2.4-.8.4-1.9zm49.2 2a1 1 0 0 0-.7-.1c-.6.2-.4.3.4.3.5 0 .6 0 .3-.2zm-98-1c-.3-.9-.7-.6-.5.3 0 .4.2.6.4.4 0 0 .1-.4 0-.8zm110.6-.3c-.2-1.7-.7-2.1-.7-.7 0 1.3.2 2 .6 2 .2 0 .2-.5 0-1.3zM127 49.2c-.2-.2-.3.3-.3 1.6v1.8l.3-1.6c.2-1 .2-1.6 0-1.8zm13.7 2c0-.6 0-.6-.8 0-1 .8-1 1.4 0 .9.5-.3.8-.6.8-1zm-21.2-.6c-.1-.4-.2-.1-.2.5 0 .7.1 1 .2.6v-1.1zm-1-.6c0-2.3-.3-2.2-.3 0 0 1.2 0 2 .2 1.9l.1-1.9zm-83.4 1c0-.8-.4-1.7-.6-1.4v1c.2 1.2.6 1.4.6.3zm114 .2c-.2-.2-.4-3-.6-6-.5-6.4-.8-7.5-1-4.7-.2 1.5-.2 2 .2 2.3.2.3.3.7.2 1.4-.1 1 .3 6.3.6 7 .1.3.3.5.5.5v-.5zm-59-1.2c0-1.1-.6-.7-.7.5 0 .9 0 1 .4.7.2-.2.4-.7.4-1.2zm53.8 0c.3-1 .1-1.3-.3-.3l-.4 1 .1.2c.1 0 .4-.4.6-.9zm-105.3-.7c0-.2-.4-1.2-.9-2.1l-.8-1.7-.1 1c-.1 1.4 1.1 4.2 1.5 3.6.2-.2.3-.6.3-.8zm103.7.2-.4-.2c-.2 0-.4.2-.4.6 0 .4 0 .5.4.2.2-.2.4-.4.4-.6zm-50.8-.7a105.7 105.7 0 0 0-.5-10.8c0 .2-.2.4-.3.4-.2 0-.3-.6-.3-1.6 0-2.4 0-3-.1-2.8-.1.1-.2 1.4-.2 3 0 2.6-.1 3.5-.6 2.7a14 14 0 0 1-.4-3c-.1-2-.2-2.6-.5-2.6s-.4.5-.4 2.8c0 2.8-.3 4-.7 3l-.2-2.8c0-2.4-.4-3.8-.8-3.6a16 16 0 0 0-.1 4.4c.2 5.4.1 6.7-.2 7.5-.2.7-.2.9.2 1.2.7.5 1.7.9 2 .7.3-.3.2-2.2-.2-2.6-1.1-.9-1.2-1-1.2-1.8.1-1 1.4-1.9 1.9-1.4.2.2.2.5 0 .9-.5.6-.3 1 .5.7.4-.2.5-.3.4-.8-.2-.8.1-.9.7-.3.9.9.2 2.5-1 2.5-.3 0-.4.2-.3.5l.2 1.6c0 1.3 0 1.3.8 1.3.9 0 .9 0 .8 1 0 .7 0 1.2.2 1.2s.3-.6.3-1.3zm-1.1-2-.2-1c0-.7 0-.8.3-.4.3.5.2 1.7-.1 1.4zm49.2 2.6a38 38 0 0 0-.2-11.3c-.4-.4-.7.5-.4 1.4.6 1.4 0 2.2-1 1.6-.5-.4-.8 0-.3.5.3.4.4 1 .3 2.2v1.7l-1.2-.1c-1-.1-1.3 0-1.7.5-.3.3-.7.5-1 .4-.4-.2-.4.7 0 1.4.4.8 1.4.7 3-.4l1.5-1v-1.5c0-1.5.4-2.3.7-1.5l.2 2.7c0 2.2 0 2.3-.8 3-.7.5-2 .8-2 .3l1-.5c.5-.2.9-.5.9-.7 0-.2 0-.4-.2-.4s-2 1-2.5 1.6c-.5.4-.5.4 0 .6l2.1.2c1.3 0 1.4 0 1.6-.7zm14.9.4-.3-.2c-.2 0-.2 0-.1.2 0 .2.2.3.2.3.1 0 .2-.1.2-.3zM39.9 48.7l-.5-1.3c-.1-.3-.2-.3-.2 0 0 1 .3 2.2.6 2.2.1 0 .2-.4 0-.9zm112.7.7-.7-.5c-.8-.4-.8-.8 0-.9.8 0 .8-.1.6-1.2a7 7 0 0 0-.2-1.2l-.8.4c-1.2 1-.6 3.6.7 3.6.3 0 .5-.1.4-.2zM14 49c.1 0 0-.3 0-.4-.2 0-.4 0-.4.3 0 .4.2.5.4.1zm98.2-.7v.8c.1-.2.1-.5 0-.8zm18.7-1c-.2-1.4-.2-2.3 0-4.7v-1.2c-.2.2-.3.7-.3 1 0 .5-.1.8-.3 1-.4.2.2 5.4.6 5.4.1 0 .2-.6 0-1.4zm19.1 0c-.3-2-.6-2.3-.6-.5 0 1.6.1 2 .6 1.8v-1.4zm-114.7-.1c0-.9 0-1.3-.2-1.2-.3.2-.4 2.5 0 2.5l.2-1.3zm97.4 1.2-.4-.4c-.3-.3-.4-.3-.4 0s.2.5.4.5l.4-.1zm22-.5c.3-1.6.2-2-.6-2-.7 0-.8.1-.8.8 0 1.5 1.2 2.5 1.5 1.2zM47.4 47v1-1zm23.4.7c.3-.5.3-1 0-1.6-.4-1.3-.6-4.6-.3-4.8.3-.2.4-7.8 0-7.8-.7 0-.8.5-.8 5.8 0 3 0 5.3-.2 5.3-.1 0-.3-2.2-.4-5 0-2.8-.2-5.2-.4-5.3-.4-.5-.5 1.9-.3 4.6l.5 5.4c0 2.3.1 2.8.6 3 .3.1.5.4.5.6 0 .7.5.5.8-.2zm-52-2.5c-.3-.3-.4.3-.2 1.6l.2 1.4v-1.4c.1-.8 0-1.5 0-1.6zm30.2 2-.1.3c0 .4 0 .6.1.4V47zm26.6-.1c0-.6.6-1 2.7-1.4 2.5-.5 2.3-.3 2.3-3.1 0-2.4.2-3.6.6-3.2.1 0 .2 1.4.2 3 0 1.5.2 2.8.3 3 .5.5.9-.7 1-3.6 0-2.3.2-3.1.5-3.2.3-.1.3.4.2 2.9a23 23 0 0 1-.3 3.4c-.1.4 0 .5 1 .8.7.1 1.4.2 1.5.1l.1-2.2a3086.3 3086.3 0 0 1-.3-9.1c-.4.3-.8 5.7-.7 8 0 1.5 0 2.1-.3 2.2-.2.1-.4.1-.4 0-.2-.1 0-5.3.2-7 .1-1.5-.1-4-.5-4-.1 0-.2.6-.2 1.3 0 .6 0 1.3-.2 1.6-.3.8-3.5 1.8-3.5 1.1 0-.2-.2 0-.3.3l-.2 3.4c0 2-.1 2.7-.4 3-.6.4-.8-.1-.7-2.9 0-1.4 0-3.3-.2-4.3-.1-1-.2-2 0-2.4.2-.8-.2-1.3-.5-.6v4.6a21.7 21.7 0 0 1-.4 5.7c0 .9 0 1.2-.3 1.1-.4-.1-.6-6.3-.2-6.3.2 0 .3-1 .2-2.8 0-1.8 0-2.6-.2-2.2a7 7 0 0 0-.2 1.6c0 1.2-.6 3.7-.9 3.7-.1 0-.2-1.2-.2-2.7 0-3 0-3.4-.7-3.2-.3.1-.3.7-.2 3.3.1 2.3 0 3.1-.1 3.1-.2 0-.3-.4-.3-1.1 0-.7-.2-1.3-.3-1.4-.2 0-.4-.4-.5-.7-.2-.4-.3.2-.3 1.8 0 1.4.1 2.5.3 2.6l.2.8c0 .5 0 .5.7-.2.4-.5.8-.7 1-.6.6.2.5 1.2-.1 2-.4.3-.6.9-.6 1.2 0 .8-.5.9-.7 0 0-.3-.4-.6-.6-.6-.5-.1-.5 0-.4 1 .1.8 0 1-.2 1-.3 0-.4-.2-.4-.8 0-1-.4-1.8-.7-1.4-.3.3-.2 2.4.2 3 .2.5.5.6 1.4.6.8 0 1.2.1 1.3.4.3.6 1.4 0 1.3-.6zm66.5.3c.3-.9.1-4-.4-5.5l-.5-1.6v3.5l.1 3.8c.2.3.6.2.8-.2zm-56.8-.1c-.2-.2-.7-.3-1-.3-.6 0-.6 0-.1.3l1 .2c.4 0 .5 0 .1-.2zm-6.2-.3c1.3 0 2 0 2-.3 0-.4-4.2-.1-4.6.3-.2.3-.2.3.2.2l2.4-.2zm53.6-5 .6-1.5c.3-.3.3-.6 0-.6-.4 0-1 1.3-1.3 2.6-.3 2-.3 2.5-.1 3.5.1.8.1.6.3-1 0-1 .3-2.4.5-3zm-111 3.5c-.3-.6-.7-.4-.7.4 0 .6 0 .7.5.3.2-.3.3-.6.2-.7zm16.1-2c-.4-.8-.4-.8-.7-.2-.2.4-.1.8.4 1.8l.6 1.3v-1c.1-.6 0-1.4-.3-1.9zm-23.4 2.2c0-.4-.3-1-.5-1-.3 0-.3.8 0 1 .2.3.5.3.5 0zm119.1.1s-.1-.2-.3-.2c-.1-.1-.2 0-.2 0 0 .2 0 .4.2.4s.3-.1.3-.2zM6.6 44.1c0-.3-.1-.1-.2.3 0 .4.1.6.2.5V44zm28.5-.7v.7-.7zm26.3.6c0-.3-.7-.7-1-.4-.2.2.2.7.6.7.3 0 .4-.2.4-.3zm-3.5-.5c0-.6-1-.7-1 0 0 .3.2.5.6.5.4 0 .5-.1.4-.5zm1.7.1c0-.2-.3-.4-.6-.4-.2 0-.5.2-.5.4s.3.4.5.4c.3 0 .6-.2.6-.4zm-38.1-.3c0-.2-.1-.4-.3-.4-.1 0-.3.2-.3.4 0 .3.2.4.3.4.2 0 .3-.1.3-.4zm31 .2c.3-.3 0-.5-1.1-.6-1.2-.1-1.4.5-.2.6l1 .2c.1 0 .3 0 .4-.2zm1.8 0c0-.2-.1-.3-.3-.3-.1 0-.2.1-.2.3 0 .1 0 .2.2.2s.3 0 .3-.2zm1.8-.2c0-.2-.1-.4-.5-.4-.3 0-.5.2-.5.5 0 .4.8.4 1-.1zm80.3-.1a1 1 0 0 0-1-1.3c-.4 0-.4.1-.3.6l.1 1c0 .5 1 .3 1.2-.3zm-89.4 0c-.1-.2-.8-.3-1.7-.3-1 0-1.3.1-1 .3.4.3 2.8.2 2.7 0zm103.3-1.4c0-.1-.1-.3-.4-.3-.5-.2-.5-.9 0-2.1.6-1.4.3-2-.4-1-.8.9-.8 1.1-.6 3.3l.2 1.8.6-.7.6-1zm-131.9 0c0-.7-.2-1.4-.3-1.5l.1 2.5c.3.8.4.4.2-1zm25 1.1c-.8-.3-2.9-.3-2.9 0 0 .2.7.3 1.7.3 1.1 0 1.5 0 1.1-.3zm111.2-1c0-1-.1-1.3-.4-1.3-.5 0-.6 1.3-.1 2l.4.6V42zm-36 .5c0-.3-.1-.5-.3-.4l-.3.6c0 .2.2.3.3.3.2 0 .3-.2.3-.5zm15.7-.5c-.1-.4-.3-.5-.4-.3-.2.1-.2.5-.1.8.1.4.3.5.4.3.2-.1.2-.5.1-.8zm17.6-.7c0-1.6-.3-2.4-.6-1.5a6 6 0 0 0 0 2.6c.3 1.2.6.6.6-1zm-90.5 1c0-.4-.1-.6-.5-.6-.6 0-.7.3-.2.8.5.4.7.4.7-.2zm43-1.7v1.6a7 7 0 0 0 0-1.6zm-90.3 1.3c0-.3-.2-.8-.4-1.1-.4-.5-.4-.5-.4.2 0 .8.2 1.5.5 1.5.2 0 .3-.3.3-.6zm24-1.2c-.2-1.1-.3-1.9-.6-2.1-.4-.4-.5-.4-.3.6l.2 1.6c0 .9.2 1.7.5 1.7.2 0 .2-.7.1-1.8zm21.5 1.2c0-.3-.3-.4-.6-.4-.2 0-.5.1-.5.4 0 .2.3.4.5.4.3 0 .6-.2.6-.4zm93.6-.6c0-.6 0-1.2-.2-1.4-.2-.3-.3 0-.3 1 0 .7.1 1.4.3 1.4l.2-1zM6.7 41c0-.5-.2-1-.3-1.1-.2-.1-.3.3-.3 1 0 .5.2 1 .3 1 .1 0 .3-.4.3-1zm51.2.6c-.1-.5-1-.6-1-.1 0 .2.3.4.6.4s.5-.2.4-.3zM50.6 34c-.2-.3-.3.5-.2 3 0 4.7.3 5.5.4 1.1 0-2.2 0-3.8-.2-4zm1.8 7c0-.2 0-.4-.2-.4s-.3.2-.3.5.1.5.3.5c.1 0 .2-.2.2-.5zm3.7.3c0-.2-.3-.3-.5-.3s-.4.1-.5.3c0 .2.2.3.5.3s.5-.1.5-.3zm-1.8-.2c0-.2-.1-.3-.3-.3-.1 0-.2.1-.2.3 0 .1 0 .3.2.3s.3-.2.3-.3zm44-1.1v1c.2-.2.2-.7 0-1zm-26.3.8c.1-.2.3-2 .3-3.9.1-3 0-3.5-.3-3.4-.4 0-.7 2-.7 5.7 0 1.8.1 2.2.7 1.6zm70.8-1.7c-.1-.8-.3-1.5-.5-1.6a26.9 26.9 0 0 1 .2 2.2c.3 1.6.5 1.2.3-.6zM40 39.6v-1h-.3l-.1 1.1v.9c.2 0 .4-.5.4-1zm4.4.1-.1.3c0 .4 0 .5.1.4v-.7zm16.2-.4c-.1-.2-.2-.1-.2.3 0 .5 0 .7.1.5.1-.2.1-.5 0-.8zm-27-1c0-.7 0-1.8-.2-2.4-.2-.8-.2-.5-.3 1.6 0 1.6.1 2.5.3 2.4l.2-1.5zm24.3 0c.2-2 0-2.6-.6-2.6-.5 0-.5.1-.4 2l.2 2.1c.3.6.6 0 .8-1.4zm1.7.6v-2.2c.1-.8 0-1.2-.2-1.2s-.3.7-.4 1.8c0 1-.2 2-.3 2.3-.2.3-.1.4.3.4.5 0 .6-.1.6-1zm-5.8-.7c0-.7 0-1.3.2-1.3s.3-.3.3-.7c0-.4-.2-.6-.7-.7-.6-.2-.6-.1-.6 1.5 0 1.9.2 2.8.6 2.7.2 0 .3-.7.2-1.5zm2-.6c0-1.6 0-2-.3-2-.2 0-.3.7-.4 1.8 0 1.8 0 2.4.5 2.4.2 0 .3-.9.3-2.2zm82.3 1.7h-.5c-.2.1-.2.2.1.2.3 0 .5 0 .4-.2zm16.2-.2c0-.2-.1-.4-.3-.4l-.2.4c0 .2 0 .4.2.4s.3-.2.3-.4zm-37-.4c0-.2-.2-.2-.3-.1-.2 0-.3.3-.3.4 0 .2.1.2.3.1l.3-.4zM18.2 38c-.3-.3-.4.1-.2.6.1.5.2.5.3 0l-.1-.6zm77 0c0-.3-.1-.1-.1.3 0 .5 0 .7.1.5V38zm16.8-.3c0-.6 0-1.1.2-1.1s.9-6.9.7-7.2c-.5-.7-.7.4-.7 3.2 0 1.6 0 3-.2 2.8-.4-.4-.8-2.3-.8-4 0-1-.1-2-.3-2-.2-.2-.3.8-.3 2.8 0 1.7.1 3.1.3 3.2l.4 1.7c.2 1.8.7 2.2.7.6zm3.8-1.7c0-1.4-.2-2.7-.3-2.8-.4-.4-.5.7-.4 4.1 0 1.1.1 1.4.5 1.4s.4-.3.2-2.7zm3.6 1.9c0-.7-.1-.8-.3-.5-.3.5-.3 1.3 0 1.3.2 0 .3-.4.3-.8zm-75-.3-.1.3c0 .4 0 .5.1.3v-.6zm-37.8-.7c-.3-.3-.5.1-.3.6s.2.5.3 0V37zm88.6-.9c0-.3-.1-.1-.1.5 0 .5 0 .8.1.6V36zm-81.7.1c-.1-.2-.2 0-.2.4s0 .6.1.4c.1-.1.1-.5 0-.8zm24.3 0c0-.5-.2-1-.4-1-.4-.2-.4.8 0 1.5.3.7.4.7.4-.4zm79.8-4.8c-.1-2.8-.2-3.4-.5-3.6-.4 0-.4.4-.2 4.5 0 2.5.2 4.6.3 4.8.3.4.5-2.2.4-5.7zM62.9 36l-.1.3c0 .4 0 .5.1.4V36zm56.8-2.1c.2-3-.1-7.4-.6-8.8a323.6 323.6 0 0 1 .3 11.8l.3-3zm-58.9 1.6-.1.3c0 .4 0 .5.1.3v-.6zm21.3.5c0-.5-.3-.7-.7-.5-.6.2-.5.8.1.8.3 0 .6-.1.6-.3zm39.2-6c-.2-4-.7-8.5-.9-8.6a155.4 155.4 0 0 1 0 8.7c0 3 .1 5.7.2 5.8.4.6.9-3.4.7-6zm-29 4.3c-.3-.3-.5.2-.3.9l.2.7.1-.7v-1zM52 35c0-.3 0-.8-.2-1.3-.2-.7-.2-.6-.2.5 0 .7 0 1.2.2 1.2.1 0 .3-.2.2-.4zm27.8-.7c0-.4 0-.7-.2-.6-.2.1-.3.5-.3 1 0 .4.1.7.3.6l.2-1zm-39.5 0c-.3-.6-.4-.5-.4 0 0 .4.1.6.3.5v-.6zm38.4-.4-.1.3c0 .5 0 .7.1.5V34zm16-1.6c-.2-.8-.3-1-.9-1-.6-.1-.7 0-.7.4 0 .3.2.6.4.8.2.2.5.9.6 1.4l.1 1.1.3-.8c0-.5.2-1.4.1-1.9zm-40.8 2c.2 0 .3-.3.3-.7 0-.5-.1-.8-.4-.8-.4 0-.5.1-.8 1.1-.1.7 0 .8.3.6l.6-.1zm8.3-1.2v-1.4c-.2 0-.3.7-.3 1.5 0 1.8 0 1.8.3 0zm20 1c0-.6-1-1-1.4-.5-.3.2-.4.4-.1.7.4.5 1.4.3 1.5-.2zm-26.4-.7c0-.7-.5-.8-.7-.2-.2.5 0 1.3.4 1 .2 0 .3-.4.3-.8zm2.3.1c0-.6 0-.7-.6-.7-.7 0-1 .5-.8 1.2.2.7 1.3.4 1.4-.5zm1.5 0c0-.4-.2-.4-.4-.3-.2.2-.2.5 0 .8 0 .3.2.3.3.1.2-.1.2-.4.1-.7zm90 .5-.3-.4-.1.4c0 .2 0 .4.2.4s.2-.2.1-.4zm-138.5-.8c0-.3-.2-.4-.3-.3-.2.1-.3.3-.3.4 0 .2.1.3.3.3.1 0 .3-.2.3-.4zm20-.4c0-.3 0-.5-.2-.4-.1 0-.3.3-.3.5s.2.4.3.4c.1 0 .3-.2.3-.5zm-11 .1-.3-.2h-.3c0 .2.1.4.3.4l.3-.2zM69 32c.5 0 .4-.1-.3-.1-.5 0-1 0-1.3.3-.4.5 0 .8.5.3l1.1-.5zm-18.4.2c0-.2 0-.3-.1-.2-.2 0-.3.2-.3.4 0 .4.2.3.4-.2zm33-.7c0-.3-.2-.5-.3-.5-.3 0-.4 1.2 0 1.5.2.2.5-.6.4-1zm-13 .7c.1 0 .2-.3 0-.5 0-.3-.2-.3-.4-.1l-.3.5c.2.3.5.3.8.1zm2.4-.4c0-.4-.2-.5-.7-.5-.7 0-1 .4-.8.8.1.1.5.3.8.3.5 0 .7-.2.7-.6zm2.6 0c0-.4-.2-.5-.8-.5-.4 0-.8.1-.9.3-.3.4.1.8 1 .8.5 0 .7-.2.7-.6zm1.9 0c.2.4.2.4.2 0s-.2-.5-.6-.5c-.5 0-.7.1-.7.6s0 .6.4 0c.3-.4.4-.4.7 0zm1.4 0-.1-.5c-.2 0-.3.2-.3.5l.1.6.3-.6zm3.3-.2c0-.4 0-.6-.3-.6-.8 0-1.3.4-1.3.9 0 .8 1.5.5 1.6-.3zm8.4 0c0-.4-.2-.7-.5-.8-.6 0-.9.7-.5 1.2.5.5 1 .3 1-.5zm1.8.1c0-.3-.2-.6-.6-.6-.6-.1-.7.1-.4.9.2.5 1 .3 1-.3zm23.2.4-.4-.2c-.4-.2-.6-.6-.7-1.3-.2-1-.2-1-.2.3s0 1.4.5 1.3l.8-.1zm-61.5-.3c0-.1 0-.2-.3-.2-.2 0-.4 0-.4.2s.1.3.2.3c.2 0 .4-.1.5-.3zm1.5 0c.1-.1 0-.2 0-.2-.2 0-.4 0-.4.2s.1.3.2.3c0 0 .2-.1.2-.3zm2.6-.1-.4-.4c-.7 0-1.3.2-1 .5.1.4 1.4.3 1.4-.1zm2.6.2c0-.4-1-.7-1.3-.5-.5.4-.3.7.5.7l.8-.2zm18.8-.4c-.2-.2-.3-.2-.3 0 0 .3.3.6.5.5 0-.1 0-.3-.2-.5zm7.4-.2c0-.2-.2-.3-.4-.3s-.4.3-.4.6c0 .5 0 .5.4.2l.4-.5zm1.8.2c0-.4-.1-.5-.5-.4-.3 0-.7.2-.7.4-.1.3 0 .4.3.3h.6c.2.4.3.3.3-.3zm15.6-.2c-.1-.3-.2-.2-.2.1 0 .3 0 .4.2.4v-.5zm7.4-1.4c-.1-.2-.2-.1-.2.2 0 .3 0 .4.2.3V30zm-101.5-.7c0-.5-.1-.6-.3-.3-.3.5-.3 1.4 0 1.2.1 0 .3-.5.3-.9zm8 .8v-.3c-.2 0-.4.1-.4.3 0 .1 0 .2.2.2l.2-.2zM37 30c0-.2 0-.3-.2-.3-.1 0-.2.1-.2.3v.2c.1 0 .3 0 .4-.2zm1.2-2.2c-.2-.2-.3 0-.3.8 0 1.3.4 1.7.5.4 0-.5 0-1-.2-1.2zm1.8 1.1c0-.6-.1-1-.3-1-.1 0-.2.4-.2 1s0 1 .2 1 .3-.4.3-1zm61.6-.5c0-1 0-1.3-.4-1.3-.2 0-.3.3-.3 1.2l.1 1.5c.4.4.6-.2.6-1.4zM43 29c0-.5 0-.5-.3-.2-.3.5-.3.8 0 .8.2 0 .3-.3.3-.6zm2-.2-.1.3c0 .4 0 .5.1.3V29zm1.7.1c0-.3-.1-.6-.3-.5l-.2.7c0 .3.1.5.2.5.2 0 .3-.3.3-.7zm3.6.1-.2-1c0-.3 0-.3-.2 0-.3.5 0 1.6.3 1.6.2 0 .2-.3.1-.6zm1.7-1c0-.7-.2-1.3-.3-1.3-.3 0-.3 1.4 0 2.3.2 1 .4.5.3-1zm1.8.4-.1.4v.5-1zm1.7-.3c-.1-1.6-.2-1.8-.5-1.6-.2.3.2 3.1.5 3.1v-1.5zm3-.2c0-1.8-.4-2-.4-.3 0 1-.1 1.2-.4 1.2-.3 0-.4-.2-.4-.6 0-.4-.1-.7-.3-.7-.3 0-.3 1 0 1.6.2.3.5.4 1 .3.6-.1.6-.2.6-1.5zm10 .5c0-1.1-.1-1.2-.7-1.1-1 .1-1 2.3 0 2.3.5 0 .6-.2.6-1.2zm2.2 0c0-1-.1-1-.7-1-.5 0-.7.1-.8.7 0 1.1.2 1.6.9 1.5.5-.1.6-.3.6-1.2zm2.2.8c.2-.2.3-.7.2-1-.2-.6-.4-.7-1-.7-.7 0-.8 0-.7.4l.2 1c0 .8.8 1 1.3.3zm3-.2v-.7a3 3 0 0 1 0-.8c0-.4-.3-.5-.6-.5s-.8-.3-1-.6l-.6-.5v1.4c0 1.8.3 2.4 1.3 2.1.4 0 .8-.3.9-.4zm5.8.5c.3-.2.5-.5.5-1.2 0-1-.3-1.5-.8-1.5-.6 0-.8 2.8-.2 2.8l.5-.1zm3-1.1c.1-1 0-1-.7-1.4-.7-.3-.9-.3-1 0-.2.2-.3.6-.2.9l.2 1c0 .2.2.5.4.5 1 .2 1.3 0 1.4-1zm-23.8 0c0-.6-.1-.8-.7-.8-.5 0-.7.2-.7 1-.1.7 0 .8.6.7.7 0 .8-.2.8-.9zm2.2.4-.1-1.5h-.7c-.3.2-.5.5-.5 1 0 .8.2 1 .8 1 .3 0 .5-.2.5-.5zm1.8-.4c0-.7-.2-1-.5-1-.2 0-.4.3-.4 1-.1.8 0 1 .4 1 .5 0 .6-.2.5-1zm1.4-.1c0-.4-.2-.8-.3-.8-.3 0-.3.8 0 1.4.2.7.5.3.3-.6zm11.5.5-.1-1.1c0-.3-.2-.5-.6-.5-.4 0-.5.2-.5 1 0 1 .2 1.2.9 1.2.4 0 .5-.2.3-.6zm2.2-.6c0-.9 0-1.2-.4-1.3-.9-.2-1.1 0-1.1 1.3 0 1.1 0 1.2.8 1.2.7 0 .7-.1.7-1.2zm6.2-.5c-.2-2.2-.2-2.4-.5-2.5-.2 0-.4 3.5-.1 4 0 0 .2.1.4 0 .2 0 .2-.5.2-1.5zm3 1.4.1-.7c0-.3.1-.6.3-.6l.2.6c0 .4.2.7.3.7.3 0 .4-2.6 0-2.8-.5-.3-1 .2-1.1 1.2-.1 1.2-.6 1.1-.7-.1 0-.8-.2-1-.7-1-.6.2-.8 1.2-.6 2.3.2.6.6.6 2.1.4zm3.4-.6c.2-.8 0-1-.8-1-.6 0-.7 0-.4.3.1.2.3.5.3.8 0 .7.7.6.9 0zm2-.2c0-.6-.1-.8-.5-.8s-.6.2-.6.8c0 .6.2.8.6.8.4 0 .5-.2.5-.8zm1.5 0c0-1-.5-1.2-.6-.3 0 .8 0 1 .5 1 .1 0 .2-.3.1-.8zm17-.7-.2-.4c-.2 0-.3.2-.3.3 0 .2-.1.2-.4 0-.2-.2-.4-.2-.4 0l.3.4c.7.2 1 .1 1-.3zm2.1 0c0-.4-.4-.7-.8-.5-.1.1-.2.3 0 .4.1.3.8.3.8 0zm-9.5-1c0-.2-.1-.4-.3-.4l-.2.4.2.4c.2 0 .3-.2.3-.4zm-13.2-.2-.5-.2-.6.2c0 .2.3.3.6.3.2 0 .5-.1.5-.3zm1.8 0c0-.1-.1-.2-.4-.2-.2 0-.3.1-.2.2 0 .2.3.3.4.3.1 0 .2-.1.2-.3zm-22.2 0-.1-.6c-.3-.6-.7-.5-.7.1 0 .3.2.5.4.5h.4zm24 0c0-.4-.4-.5-.6-.2 0 .1 0 .2.3.2h.4zm2-.2c0-.2-.2-.3-.3-.3-.2 0-.3.1-.3.3 0 .1.1.2.3.2.1 0 .2 0 .2-.2zM77.3 26c.1-.1-.1-.3-.5-.3s-.6.2-.5.3c0 .2.3.3.5.3s.4-.1.5-.3zm2.2-.2c0-.2-.1-.3-.6-.3-.6 0-.8.2-.5.6.3.3 1 .1 1.1-.3zm-4.1 0c0-.2-.2-.3-.3-.3-.2 0-.3.1-.3.2 0 .2.1.3.3.3.1 0 .3-.1.3-.3zm6.3 0c0-.2-.2-.3-.5-.3l-.6.2c0 .2.3.3.6.3s.5-.1.5-.3zm2.1-.2c0-.3-.2-.4-.6-.3-.8 0-.9.7 0 .7.4 0 .6-.1.6-.4zm23.6.2c0-.2-.2-.4-.3-.4-.1-.1-.3 0-.3.2s.2.4.3.4l.3-.2zm-19.6-.6-.4-.2c-.2 0-.4 0-.4.2s.2.3.4.3.4-.1.4-.3zm2.1 0c0-.1-.2-.2-.5-.2s-.6 0-.6.2.3.3.6.3.5-.1.5-.3zm2.4 0c0-.3-.8-.6-1.1-.4-.1.1-.2.3 0 .4.1.4 1 .4 1 0zm1.8-.1c0-.5-.5-.4-.7 0 0 .2 0 .4.3.4.2 0 .4-.2.4-.4zm1.9 0c0-.5-.6-.4-.7 0-.1.2 0 .4.3.4.2 0 .4-.2.4-.4zm2 .1c0-.1-.1-.2-.4-.2-.3 0-.5 0-.4.2 0 .2.2.3.4.3l.4-.3zm1.7-.3c0-.3-.4-.3-.5 0 0 .2 0 .3.2.3s.3-.2.3-.3zm1.6-.5-.1-.2c-.1 0-.2 0-.3.2-.1.2 0 .3.1.3.2 0 .3-.1.3-.3zm7.7-.2c0-.2-.2-.3-.3-.3-.2 0-.3.1-.3.3 0 .1.1.2.3.2.1 0 .3 0 .3-.2zm7.8-2.8v1.8-1.8zm11.5.6c0-1.2-.1-1.6-.4-1.7-.6-.2-.6-.2-.8 1.7-.1 1.4 0 1.6.3 1.7.8.2.9 0 .9-1.7zm.8-1.6c-.2-.2-.3.2-.3 1.5v1.9l.3-1.6c.2-1 .2-1.6 0-1.8zm-4.8 1.7v-1.3c-.2 0-.3.5-.3 1.2 0 1.7.2 1.7.3.1zm2.2.6v-1.3c-.1-1.5-.6-1-.6.5 0 1.1 0 1.5.3 1.4.2 0 .3-.3.3-.6zm9-.2c.3-1.2.1-2.7-.2-2.7-.4.1-.6 1.4-.5 2.6.2 1.2.5 1.3.8 0zM137 21c0-.8-.2-1.4-.3-1.4-.3 0-.5 2.7-.3 3.4.4.8.7-.4.6-2zm-5.1-1c-.1-.1-.2-.2-.3-.1a8 8 0 0 0-.4 3c.2.3.8-2.5.7-2.9zm9.4 2.5c.8-.4.8-.5.8-2 0-.8 0-1.5-.2-1.5-.3 0-.6 1-.6 1.8 0 1-.4.5-.6-.6-.2-.5-.4-.9-.6-.9-.3 0-.4.1-.3.4l.2 1.9c0 .8.1 1.4.2 1.3l1-.4zm-10.6-1.8c0-.6 0-.8-.2-.7-.2 0-.3.7-.3 1.5 0 1 .1 1.2.3.7l.2-1.5zm3.2.6c0-1.3 0-1.5-.4-1.4-.3 0-.6.5-.7 1.1-.2.9-.2 1 .2 1.4.8.6 1 .4 1-1.1zm5.3-.2c-.1-1.3-.2-1.7-.6-1.8-.4 0-.4.2-.4 1.4 0 1.3.3 2 .8 2 .1 0 .2-.7.2-1.6zm5 1c.5-.5.1-3-.4-3.3-.6-.2-.9.5-.8 1.9.2 1.8.6 2.2 1.2 1.4zm-123 0h-.6.5zm129.5-1.8c-.1-.8-.3-1.5-.4-1.5-.3 0-.3 3 0 3.2.3.4.5-.3.4-1.7zm3.1 1.6c.2-.6 0-4-.3-4-.2 0-.3 1-.3 2.2 0 1.9.3 2.7.6 1.8zm-6.2-1c-.3-1.8-.5-2.2-.8-2-.5.1-.5 2 0 2.5.8.8 1 .6.8-.6zm-122.2.4c0-.5-.2-.5-1 0l-.7.4h.9c.6 0 .8-.1.8-.4zm2.8 0c.3-.5.2-.6-.6-.6s-1.4.4-1.4.7c0 .3 1.7.2 2 0zm1.6 0c.3-.8-.3-1-.7-.3-.5.6-.5.7 0 .7.3 0 .6-.2.7-.5zm2.6-.4c.4-.7.4-.7-.2-.7-.4 0-.9.2-1 .5-.6.8-.6 1 .1 1 .4 0 .8-.3 1-.8zm1.7.4c.8-.5 1-1.5.3-1.5-.5 0-1.6 1.3-1.4 1.6.2.4.4.3 1-.1zM154.8 19c-.1-.5-.2-.1-.2.8 0 1 .1 1.4.2.9V19zM36.5 20.5c.4-.6.4-.6 0-.5-.3 0-.7.3-1 .7-.3.6-.3.6.1.5.3 0 .7-.4 1-.7zm1.5 0c.3-.3.4-.7.3-.8-.2-.2-1.2.9-1.2 1.3 0 .5.5.2 1-.4zm114.3-.4c.1-1.3 0-1.6-.5-1.2-.5.4-.5 2.3 0 2.3.2 0 .4-.4.5-1zm-112.4.6c.5-.5.4-1 0-1s-1 .7-1 1.1c0 .3.7.2 1-.1zm2.6-.2c.3-.4 0-.8-.6-.8s-1.1.5-1.1 1c0 .2.2.3.7.2l1-.4zm102.7-1.6c-.3-.3-.4.2-.2 1.2l.2 1V19zM44.3 20.1c.4-.5.2-.8-.4-.5-.3 0-.5.4-.5.6 0 .6.5.6 1 0zm104.7-.3c0-.8 0-1-.6-1-.4 0-.5.2-.4.7l.2.9c0 .2.2.3.4.3.3 0 .4-.3.4-1zm-128.5.4s-.5-.4-1.4-.7c-1.5-.6-1.5-.6-2 0-.4.5-.3.6 1 .8 1.1.2 2.3.2 2.4 0zm26 0c.6-.6.4-.8-.3-.8a1 1 0 0 0-1 .5c-.2.5-.1.6.4.6.4 0 .8-.2 1-.4zm2.2-.5c0-.2-.2-.3-.5-.3s-.6.1-.7.3c0 .1.2.2.6.2.3 0 .6 0 .6-.2zm-34.6-.3c.4 0 .3-1-.2-1.2-.7-.2-.8-.2-1 .5-.1.8 0 1 .6.8l.6-.1zm37.5 0c0-.1-.3-.3-.7-.3-.5 0-.9.2-1 .3 0 .2.2.3.8.3.5 0 1-.2 1-.3zm11 0 5.2-.1 3.7-.3c4.8-.2 6-.4 6.5-1l.4-.8c0-.3-1.2 0-1.8.6-.7.7-1 .7-.7 0 .1-.6 0-.6-.7-.4-.5 0-1 .3-1.2.5-.3.5-1 .6-.8.2.3-.4-.4-.6-1-.3-.3.2-1.6.4-2.8.5a17 17 0 0 0-5 .4c-.2.1-.6 0-.9-.3-.5-.6-1.2-.5-1.7.2-.3.3-.4.3-.7 0-.3-.3-1.8-.4-2.2 0a4 4 0 0 1-1.5.2c-.7 0-1.4.1-1.6.3-.1.1-.8.2-1.6.1-1 0-1.3 0-1 .2.3.2 1.6.2 4.1 0h5.3zM11.8 19c.7-.2.5-.9-.3-1-1.2-.4-5.3 0-6 .5-.7.4-.7.5-.3.6l2.4-.3c2-.5 2.8-.3 1.6.3-.8.3-.7.3.6.2l2-.3zm4.6-.1c0-.2-.1-.3-.3-.3h-.6c-.1 0-.3 0-.3.2s.2.3.6.3c.3 0 .6 0 .6-.2zm21-1c.2-.9 0-1.7-.3-1.7-.2 0-.3.6-.3 1.3 0 1.5.4 1.8.7.5zm-1.9 0c0-.4 0-1.4-.2-2.2-.1-1.2-.2-1.3-.3-.8-.3.9 0 3.7.3 3.7.1 0 .2-.3.2-.7zm10.2 0a488.3 488.3 0 0 1-.3-4c0 .7-.2 1.8-.4 2.7-.1.8-.2 1.6-.1 1.8.3.4.8.1.8-.4zm35.4-.4.7-.7h-1a2 2 0 0 0-1.5.6c-.4.4-.6.8-.5 1 .2.4 1.5-.1 2.3-.9zm-40.8-.4c-.3-.4-.3-.4-.3.2 0 .4 0 .8.2.9.3.3.4-.6 0-1.1zm43.6.2.6-.8h-1c-.6 0-1 .2-1.4.8l-.6.8h.9c.5 0 1-.4 1.5-.8zm-36.6-1c.3-1.9.2-4-.1-4.4-.2-.1-.2.9-.2 2.2 0 1.4 0 2.8-.2 3.2-.1.5 0 .8 0 .8.2 0 .4-.8.5-1.8zm1.3 1.4c-.1-.2-.3-.4-.4-.3-.4.3-.3.7.1.7.3 0 .4-.2.3-.4zm37.3-.3c1-.9.8-1.2-.3-1.2-.6 0-.9.1-.8.4l-.3.9c-.3.5-.3.6.2.6.3 0 .9-.3 1.2-.7zm2.6-.2c.6-1 .6-1.2-.2-1.2-.7 0-1 .3-1.3 1.2-.2.5-.1.6.4.6.4 0 .9-.2 1.1-.6zm3.5-.4c.5-.3 1-.6 1.1-.5.2.1.4 0 .6-.2.3-.4.2-.4-.9-.4-1 0-1.3.1-2 .8-.5.5-1 .7-1.2.6-.2 0-.4 0-.4.3 0 .6 1.7.3 2.8-.6zm-73.4-2.2-.3-.9v1.1c0 .6 0 1.5.2 2l.2.9v-1.1c.1-.6 0-1.5-.1-2zm10 1.8-.4.2-.4.7c0 .4.8-.5.8-.9zm66.5 0c.3-.4.3-.8.1-.9-.3-.2-1.2.9-1.2 1.4 0 .7.6.4 1-.4zm2.4.6.5-.8.4-1.1c0-.1-.3-.2-.8-.2-.6.1-1 .4-1.4 1-.7 1-.6 1.4.4 1.3l.9-.2zM8 15.8c.2-1.3 0-1.9-.6-1.6-.3.2-.4 2.3-.1 2.6.3.4.5.2.7-1zm31-2.5c0-1.9-.2-3.4-.3-3.4-.3 0-.4 5.2-.2 6.4 0 .4.2.7.4.6v-3.6zm2.7 2c0-.5-.1-.2-.1.5v.8-1.4zm58.1 1c.5-1 .5-1.4 0-1.4s-1.4 1.2-1.4 1.8c0 .6 1 .3 1.4-.5zM56.2 15c-.1-2.2-.3-2.1-.3 0 0 1 0 1.8.2 1.7V15zm46 1.7.4-1.1c.4-1 .4-1-.3-1-.5 0-.8.3-1.2.9-.7 1.1-.7 1.3.3 1.3l.8-.1zm2.3-1c.4-.9.2-1.5-.4-1.1-.4.2-1.1 1.8-1 2 .3.3 1-.2 1.4-1zm29-1.5V16v-1.8zm-74.4 2c.2-.5-.3-2-.6-2l-.8-1c-.4-.7-.5-.7-.7-.3-.2.6.4 2.2 1 3 .8.6 1 .7 1.1.3zm84.3-.1c0-.3 0-.4-.2-.3-.2.1-.2.3-.1.4.2.4.3.3.3-.1zM13 15.6c0-.2-.1-.1-.1.2l.1.4v-.6zm2.7-1.2c0-.4-.1-.1-.1.6v.8-1.4zm15.6 1.2c-.1-.2-.2-.1-.2.2 0 .3 0 .4.2.4v-.6zm76.7.5c1.3-.2 1.4-.3 1.4-1 0-.6 0-.7-.6-.7-.4 0-.7.2-.8.5 0 .3-.3.5-.5.5-.3 0-.5-.2-.5-.5 0-.8-.9-.7-1.4.2-.4.5-.4.7-.1.9.4.3.7.3 2.5 0zm31.3-.9c0-.7-.6-.8-.9-.1-.3.7-.2.9.3.8.3 0 .5-.3.6-.7zm11.7-.5c0-.8-.1-.9-.4-.6-.3.2-.4.7-.4 1 0 .6 0 .8.4.7.2-.1.4-.5.4-1zm-86.6.5c.1-.2.3-.8.3-1.3.1-.8 0-1-.5-1-.5-.1-.6 0-.6 1.3 0 1.5.3 1.9.8 1zm1.8-1.8c0-1.4 0-2.2-.2-2.2-.1 0-.2.7-.2 1.6l-.2 2.3c-.1.4 0 .6.2.6.3 0 .4-.6.4-2.3zm2 0c0-2.2-.2-2.6-.8-2.2-.2.2-.3 1-.3 2.2 0 2 0 2.3.7 2.3.3 0 .3-.6.3-2.2zm1.6-.6c0-2.9-.2-3.7-.6-3.7-.3 0-.3 2.8 0 5 0 .8.2 1.3.4 1.2.2 0 .2-1 .2-2.5zm2 .7c-.3-2.1-.6-3.2-1-3-.2.1-.2 1-.1 2.2.2 2.5.2 2.7.8 2.7.4 0 .4-.2.2-1.9zm2.4 1.7c0-.2 0-.3-.2-.4-.2-.1-.3-.4-.3-.7 0-.5 0-.5-.4-.3-.2.2-.4.7-.4 1 0 .5.1.6.7.6.3 0 .6 0 .6-.2zm37.8-.5c.3-.5.3-.6 0-.8-.6-.2-1.8.6-1.8 1.2s1.3.3 1.8-.4zm25.2.2c0-.2-.1-.2-.3-.1l-.2.4c0 .1 0 .2.2.1.2 0 .3-.3.3-.4zm5-.5c0-.4 0-.4-.2 0-.2.2-.3.5-.3.8 0 .3 0 .3.3 0l.2-.8zM5.8 14.2c0-.8 0-.9-.2-.5-.2.5 0 1.5.2 1.5v-1zM76 15h-.5c-.2 0-.1.1.2.1.2 0 .4 0 .3-.1zm38-.2V14c.3-.5-.2-.5-.7 0-.6.6-.5 1.2 0 1.2.4 0 .6-.2.6-.4zm-35.5 0a1 1 0 0 0-.6 0h.6zm37.1-.6c-.2-1-.2-1-.7-.7-.6.2-.3 1.4.4 1.4.4 0 .4-.1.3-.7zm3.8.3c.3-.1.3-.2.1-.5-.2-.2-.2-.4 0-.7.2-.3.3-.3.5 0 .1.2.2.5.1.6 0 .1 0 .2.2.2.1 0 .2-.3.2-.7 0-.7 0-.8-.7-.7-.5 0-1 .4-1.2 1l-.6.8v-.7c-.3-1.2-1.3-1.2-1.4 0 0 .6.1.8.6.9a6 6 0 0 0 2.2-.2zm-36-.1c.2-.4-.2-.4-.7 0-.3.2-.3.2 0 .2s.6 0 .7-.2zm-46.6-.9-.1.3c0 .4 0 .6.1.4v-.7zm52.8.5c.4 0 .8 0 .8-.2s-1.6-1.1-1.7-1l-.7 1.4h.5l1.1-.2zm-48-.9-.1.3v.5c.2-.2.2-.5.1-.8zm82.1.5c0-.6-.4-1-.7-.5-.2.3 0 1 .4 1 .2 0 .3-.2.3-.5zm3.3.2c.1-.1 0-.2-.1-.2-.2 0-.3.1-.3.2l.1.3.3-.3zm17.2-.4v-.8c-.2-.3-.2-.3-.5.1-.5.6-.5 1.4 0 1.2.2 0 .4-.3.5-.5zm8.3-.4c-.1-.2-.2 0-.2.3 0 .4 0 .5.2.3V13zm-67.5-.8-.4-1.7c0-.4 0-.6.2-.6s.4.3.5.8c0 .4.2.8.3 1 .2 0 .3.3.3.7 0 .4 0 .6.2.6s.3-.3.3-.8c0-.7 0-.8.5-.7.7.2.6-.3-.1-.7-.3-.1-.8-.6-1.1-1-.6-.7-.7-.7-1-.3-.4.6-.2 4.2.2 4 .1-.2.2-.7 0-1.3zm54 .7s-.2 0-.3.3c-.2.4-.1.4.1.2s.3-.4.2-.5zm9 .1c0-.1 0-.2-.2-.2s-.3.2-.3.4.1.3.3.2l.2-.4zm3-.7c0-.5-.1-.6-.4-.3-.3.2-.4.6-.4 1 0 .5 0 .6.4.3.2-.2.4-.6.4-1zm-68 0c0-.2-.5-.3-1.1-.4-.8-.1-1.2 0-1.4.1-.3.6-.2 1 .3.9l1.1.1c.6.2 1 0 1-.8zm-74.5.3c.2-.6.1-.9-.3-.9-.2 0-.4.1-.4.3l-.1.6c-.1.3 0 .4.2.4s.5-.1.6-.4zm72-2.2-.6.5a2 2 0 0 0-.6 1.5c0 .7 0 .7.6-.5l.7-1.5zM6 11.7c0-.6-.2-1-.3-1-.3 0-.4 1.6 0 2 .2.2.3.1.3-1zm9.7.5c-.1-.2-.2-.1-.2.2 0 .2 0 .4.2.3v-.5zm7-.2-.1-1c-.1 0-.2.3-.2.8 0 1.2.1 1.3.3.2zm52.6-3c-.2-1.7-.2-1.6-.2 1 0 1.8 0 2.5.2 1.9v-3zm33.2 3.5-.4-.2c-.2 0-.3 0-.3.2s.2.3.4.3c.3 0 .4-.1.3-.3zm3-.2c0-.4-.6-.4-1.6 0-.5.1-.4.2.5.2.6 0 1.1-.1 1.1-.2zm24.9-.7c-.1-.1-.3 0-.4.3-.1.4 0 .4.2.2s.2-.4.2-.5zM7.7 11.3l-.2-.4c-.2 0-.3.3-.3.6s.1.4.3.4l.2-.6zm66-1.2c-.3-.3-.4 0-.3.8v1.2l.3-.9c.2-.6.2-.9 0-1.1zm58-.3V7.6l-.2 1.8c-.2 1.7-.2 2.6.2 2.6V9.8zm7.2 1.6c-.1-.2-.2-.1-.2.2 0 .2 0 .4.1.3v-.5zm15.7 0c0-.5-.1-.5-.3-.2-.1.2-.2.5-.1.6.2.3.4.2.4-.4zM20 10.7c0-.2-.2 0-.2.4s0 .6.2.4v-.8zm79.2.5c2.3-.2 2.4-.2 1.7-.5-.5-.2-1.3-.3-2.7 0l-2 .1-.1-.6c-.3-1.2-.3-1.4-.6-1.4-.2 0-.3.6-.3 1.5 0 1.4 0 1.4.7 1.3l3.3-.4zm26.2.1c0-.2-.2-.4-.4-.4-.3 0-.4.2-.4.4s.1.4.4.4c.2 0 .4-.2.4-.4zm27.2-.4c0-.3-.1-.5-.3-.4l-.2.6.2.4c.2 0 .3-.3.3-.6zm-59.3-.3c-.1-.2-.2-.1-.2.2 0 .3 0 .4.1.3v-.5zm41.2-1.8a6.3 6.3 0 0 0-.5-2.3c-.3-.2 0 4 .3 4.5s.4-.2.2-2.2zm16 2.1c0-.1-.1-.2-.3-.2-.1 0-.2 0-.2.2s0 .3.2.3.3-.1.3-.3zm-95.9-.8-.1.3c0 .4 0 .5.1.3v-.6zm1.7-2.6c-.2-.6-.2-.4-.2.8 0 2.1.3 3.2.4 1.3 0-.8 0-1.8-.2-2.1zm7.4 2c0-1.6-.1-1.5-.3.2-.2.8-.1 1.2 0 1.1.2 0 .3-.7.3-1.4zm53.7.8c0-.3-5.7-.3-6.3.1-.3.2.9.2 3 .2 1.8 0 3.3-.2 3.3-.3zm11-.5c-.3-.2-.4-.2-.4.3s0 .6.3.4c.3-.3.3-.4 0-.7zm-7.8.3-.4-.2c-.2 0-.4 0-.4.2s.2.3.4.3.4-.1.4-.3zM20.2 10c0-.2-.2-.3-.3-.3-.2 0-.2.1-.1.3l.2.2c.1 0 .2 0 .2-.2zm74.3-.6c0-.8 0-.8-.5-.4-.3.3-.6.7-.6.9 0 .2.3.3.6.3.4 0 .5-.1.5-.8zm-28.4-.2c-.3-.2-.5.2-.3.5s.2.3.3 0v-.5zm1.8.2c0-.2-.1-.4-.3-.4-.2 0-.4.1-.4.4 0 .4.2.6.4.5.2 0 .3-.3.3-.5zm3.8-2c-.3-1.4-.3-1.5-.5-.9-.3.9-.1 2.6.3 3.1.3.4.4.4.5-.2a8 8 0 0 0-.3-2zm16.6 2c0-.2-.1-.2-.1.2 0 .2 0 .4.1.3v-.5zm26.6-.6c0-.2-2.6 0-4 .3-1.3.3-.4.5 1.7.2 1.3-.1 2.3-.3 2.3-.5zm10.4.7c.2-.2-.1-.9-.4-.9l-.2.6c0 .5.2.7.6.3zm-109.7-1c-.1-.1-.2 0-.2.4s0 .5.2.3v-.6zm107.7.5c.1-.4-1-1-1.3-.7-.5.5 0 1.2.6 1.1.3 0 .6-.2.7-.4zM6 7.3c0-1.5-.6-.9-.7.6 0 1.2 0 1.3.3.8.3-.3.4-1 .4-1.4zm100.1 1.6a1 1 0 0 0-.7 0l.4.1c.3 0 .5 0 .3-.1zM13 7.1c-.3-2-.9-2.3-.7-.3 0 .7.6 2 .7 1.9.1 0 0-.8 0-1.6zm95.8 1.4c.2-.3-1-.3-1.5 0-.3.2-.2.3.4.3.5 0 1-.1 1-.3zm12.1 0c.1 0 0-.4-.3-.6-.5-.5-1-.2-.8.5.2.5.9.6 1.1.2zM103 8c1.8-.2 2-.4.5-.6-.9-.2-3.3.1-5.5.7l.7.2c.8.2 1.3.2 4.3-.3zm25.7-.2c0-1-.2-1.6-.5-1.6s-.3 1.3-.1 2c.3.6.6.4.6-.4zm-112-1.4v1.2-1.2zm66.2.8c-.1-.2-.2-.2-.2.1 0 .3 0 .5.2.4v-.5zm30.4.3c-.1-.2-.5-.3-.9-.3-.3 0-.6.1-.6.3 0 .1.4.3.8.3.5 0 .8-.2.7-.3zm4.3-.9c-.3-.3-.3 0 0 .8.1.5.1.5.2 0 0-.3 0-.6-.2-.8zm7.7.9c0-.2-.1-.3-.3-.3-.1 0-.2.1-.1.3l.3.3v-.3zm-44-.3c0-.1 0-.2-.2-.2-.1 0-.3 0-.3.2s.1.3.2.3c0 0 .2-.1.2-.3zm71.8-.4c0-.8-.6-.7-.8.1 0 .4 0 .6.4.6.2 0 .4-.2.4-.7zm-84-.2c0-.2-.1-.1-.1.2l.1.4v-.6zm25.6.4c.1-.2-.4-.3-1.3-.3-1.2 0-1.4.1-1 .3 1 .3 2.1.3 2.3 0zm56-.3c0-.2 0-.3-.3-.2-.2 0-.4.3-.5.4 0 .2 0 .3.3.3.2 0 .4-.3.4-.5zm-77.4-.6v.7V6zm24.5.6c.5-.2.5-.2-.5-.2-.6 0-1.2 0-1.2.2-.2.3.7.3 1.7 0zm11 0a6 6 0 0 0-3-.6c-.7.2-.8.5-.2.7 1 .2 3.4.2 3.1 0zm14.2 0c.1-.5-.3-1.6-.6-1.6s-.6 1-.4 1.5c.2.5.8.5 1 0zm-7.5-.7c0-.4-.1-.6-.5-.6-.5 0-.8.7-.4 1.1.4.4.9.2.9-.5zm5.4-.3c0-.3-.3-.6-.4-.6-.4 0-.6.8-.2 1.2.4.5.9.1.6-.6zm-21 .6a1 1 0 0 0-.6 0h.7zm13.2-.6c-.4-.4-1.7-.5-1.5 0 .1.3 1.3.7 1.6.5l-.1-.5zm5.7-.3c-.3-.2-.5.2-.2.7.2.4.2.4.3 0v-.7zm-16 .5c.6-.2.5-.2-.4-.2-.7 0-1.2 0-1.3.2-.2.3.7.3 1.7 0zm7.7-.3c0-.3-.2-.5-.6-.5-.6 0-.6.3-.2.8.5.4.8.3.8-.3zm-15.6 0c1.3-.1 1.2-.2-1.2-.2l-3 .2c-.5.3 2 .4 4.2 0zm3.5-.5c.1-.1 0-.3-.5-.3-.3 0-.7.2-.8.3 0 .2.1.3.5.3s.7-.1.8-.3zm-17-.3c-.2-.2-.5-.2-1 0-.7.3-.7.3.3.3.8 0 1 0 .7-.3zm6.8-.2 3.5-.5a55.4 55.4 0 0 0-8.7.8h1.3l4-.3zm5.7-.6c-.5-.2-.8-.2-1.2 0-.5.2-.5.3.6.3 1 0 1.1 0 .6-.3zM84 3.3c.5-.2-.2-.3-2.7-.2l-5.8.2c-1.6 0-2.3 0-2 .2.5.3 9.4.1 10.5-.2zm2.6-.3c-.2-.2-.6-.2-1 0-.8.2-.8.2.2.2.7 0 1 0 .8-.2z"/>
</svg>
