<?xml version="1.0" encoding="utf-8"?>
<svg xmlns="http://www.w3.org/2000/svg" xmlns:svg="http://www.w3.org/2000/svg" version="1.1" viewBox="0 0 224 147">
	<title>Pigling Bland runs along a hillside road holding out a piece of paper.</title>
	<path d="M160.2 146.3a.7.7 0 0 1-.2-.4c0-.2.2-.2.4 0 .1.2.2.4.1.5h-.3zm1-.5c0-.6-.2-.6-2-.6-1 0-2.7.2-3.6.4-1.3.3-1.8.4-2 .1-.5-.5.4-.9 2.9-1.4 2.7-.6 5-.5 5.7.3.2.4.6.5 1 .4 1-.2 1-.5.2-.7-.4-.1-.7-.3-.7-.5 0-.3 2.2 0 3.6.3.4.2 1.4.4 2.2.4 1.5.2 2.3.6 1.9 1-.1.2-1.7.3-3.5.3s-3.8.2-4.5.3c-1.2.2-1.3.2-1.3-.3zm10.9 0c-1-.3-1.1-1-.1-1 2 .1 3.1.4 3.1 1 0 .2-1.8.2-3 0zm30.2-.3c-.3-.3-.6-.6-.8-.6-.4 0-2.3-2-2.3-2.3 0-.2-.3-.5-.7-.6-.4-.2-1-.4-1.1-.6l-2.1-1.2c-1-.5-1.7-1-1.7-1.2 0-.6 1.5-.5 1.9 0 .2.2.4.4.6.4l1 .5c.3.3 1 .5 1.3.5.6 0 .8.2.8.5 0 .5 1 1.6 1.5 1.6.2 0 .4.2.4.4 0 .3.2.4.5.4s.6.3.8.8c.2.6.5.8 1 .8.4 0 .6.1.5.5-.1.7-1 .7-1.6 0zm-60.2-1c-.6-.2-.7-.8-.1-.7.6.2.3-.5-1.1-2.2-1.4-1.6-1.7-2.2-.8-2.2.2 0 1 .7 1.7 1.6l1.6 1.8c.3.3 1 1.5 1 1.7 0 .2-1.4.2-2.3 0zm66.1-2.5c-.5-.3-1.2-.5-1.5-.5-.5 0-1.4-.6-1.4-.9 0-.4 2-.5 3.6-.2 1.8.4 2.3.8 2 1.6-.1.7-1.4.7-2.7 0zm-69.8-.1c-.4-.5-.2-1.2.3-1.2s.8.9.6 1.3c-.3.4-.6.3-1-.1zm-2.1-.2-.4-1a12.3 12.3 0 0 0-3.9-3.7c0-.2.4-.3 1-.3.9 0 3.2 1.4 3.2 2l.6 1.3c.3.4.5 1 .5 1.4 0 .7-.6.8-1 .3zm-7-5.5c-1.2-.5-2.5-1.7-2.2-2 .2-.3 4.4 1.8 4.4 2.2 0 .5-1 .4-2.3-.2zm60 0c-.7-.3-1-.9-.4-1.2.4-.2 1.5.3 1.8 1 .3.4.2.5-.2.4l-1.2-.3zm-98.5-.6c-.5-.4-.4-1 .1-1.2a76 76 0 0 1 9.8-1c1.8 0 2.5-.3 1.9-.7a1 1 0 0 0-.8 0c-.2 0-.5 0-.8-.2-.3-.2-.1-.3.6-.3l1.4-.1c.3-.2.4 0 .4.4 0 .3.2.5.6.5.4 0 .5-.1.4-.5-.2-.5-.1-.5.6-.5.5 0 .8 0 .7.2-.1.2 0 .3.2.3.3 0 .4-.1.4-.3 0 0 0-.2.2-.1.1 0 .2 0 .2.2 0 .1.7.1 1.6 0 1.2 0 1.9 0 2.1.2.2.1.4.2.5 0 0-.3 5.1-.4 6.7-.1 1 .1 1.2.2 1.2.8 0 .8-1 1-2.2.5-.7-.4-1.3-.4-3.2-.3-1.5.2-2.3.1-2.4 0a68.2 68.2 0 0 1-17 1.7c-.9 0-1.5.1-1.8.4-.5.5-1 .5-1.4.1zm95.3-.3c-1-.2-1.6-.4-1.6-.7 0-.5 2.1-.6 2.6-.1.4.3.5.3.7 0 .3-.4.1-.5-1-1-.6-.3-1.9-.6-2.6-.7-1.7-.1-3-.6-2.5-.8.5-.1 4.6.4 6 .9 1 .3 1 .4 1 1.2-.1.9-.5 1.6-.8 1.5l-1.8-.3zm-45.3-1.5c.1-.5 1-1 1.1-.7.3.2-.4 1-.8 1-.2 0-.4-.2-.3-.3zm72.3-.4c-.4-.2-1-.4-1.5-.4-.9 0-2.3-.5-3.2-1-.4-.4-1.1-.6-1.6-.6-.9 0-1 .1-1 .7 0 .7-.1.8-1.7.4-1-.2-2.5-1.5-2.5-2.1 0-.3.2-.3.8-.2 2.4.5 2.6.5 2.6 0s.8-.5 1.5 0c.2.3.8.4 1.3.4l2.8.6 2.8.7c1 .1 1.6 1 1.1 1.5-.4.5-.4.5-1.4 0zm-67.4 0a.9.9 0 0 1-.2-.6c0-.2.4-.3 1.6-.3 1.2 0 1.6 0 1.6.4 0 .2-.2.4-.5.4l-1.4.1h-1.1zm18.5-1.6c-.2-.4-.2-3 0-3 .4 0 .6.7.6 2 0 1-.3 1.5-.6 1zm-6.6-.8c-.1-.3-.5-.7-.8-.8-.5-.2-.6-.6 0-.6.1 0 .6 0 1 .2.5.2.7.5.7 1 0 1-.5 1.1-.9.2zm10.3-.3c1.2-1.1 2.8-2 3.3-1.9.2.1-.4.5-1.2 1a6 6 0 0 0-1.7 1.4 1 1 0 0 1-1 .5c-.4 0-.4-.2.6-1zm-29.5.2-2.2-.8c-2.9-1-2.1-1.5.8-.6.8.2 1.8.6 2 .8 1 .6.3 1.2-.6.6zm17 0c-.4-.7-5-2.6-6.3-2.6-.5 0-.6-.4-.2-.7.7-.4 7.4 2.5 7.4 3.2 0 .4-.6.5-.9 0zm25.2-.5c-2.4 0-3.1-.3-2.1-.7a23 23 0 0 1 5.5 0c1.4.3 1.6 1 .2.9l-3.6-.2zm-8.5-1.8c.5-.5 3.6-1.1 4.1-.9.8.5.6.8-.6.8l-2.5.1c-.8.2-1.2.2-1 0zm-44.9-.6c0-.8.8-.9 4.6-.8 1.8 0 2.3 0 2.3.3-.1.3-.7.3-2.3.3-1.5 0-2.3 0-2.8.3-1.1.6-1.8.5-1.8-.1zm64.7-.7c-.4-.2-.6-.7-.6-1 0-.6 0-.6 1 .2 1.3 1 .9 1.7-.4.8zm-69-.5c-.9-.9-.8-1 0-.8.8.2 1.2.6 1.2 1.1 0 .5-.6.4-1.3-.3zm66.5-.6-2-.8c-.5-.2-1.7-.6-2.8-.8-2-.5-2.7-1.1-1.3-1.1l2.3.4 2.4.6c1 .3 3 1.3 3 1.6 0 .5-.4.5-1.6.1zm-121-.8a17 17 0 0 0-3.5-.2c-2.3 0-3.3-.1-3.6-.4-1-.7-.5-.9 2.2-.7 1.6.1 2.7 0 2.8-.1 0-.2.7-.2 1.4-.1 1.2.1 1.3 0 1.3-.4 0-.7.5-.7.7 0 .1.6.1.6.6.2.4-.4.4-.5 0-2-.5-1.6-.5-2.3.7-5.7.4-1 .4-1.5.2-1.8a2 2 0 0 1-.3-.9c0-.2-.5-.5-1.5-.7-1.6-.3-3.6-1-3.8-1.3 0-.1-1.6-1-3.3-1.8a32.6 32.6 0 0 1-4.9-3c-.3-.1-.7-.6-.9-1-.1-.5-.5-1-.7-1-.3-.2-.5-.6-.5-.8 0-.3-.2-.7-.4-.8-.2-.2-.4-.7-.4-1.1 0-1.2-.7-2.4-1.3-2.2-.3.1-.4 0-.2-.5.1-.6 0-.7-.2-.7-.6 0-3.8-2.9-4.4-4l-1-1.2c-.2 0-.3-.5-.3-1 0-.4-.2-.8-.4-1l-1.3-1.1c-.6-.5-1.4-1-1.8-1.1-.5-.1-.8-.4-.8-.7 0-.3-.3-1.2-.8-2l-.8-1.5c0-.4.8-.2 1.1.2.2.2.5.4.7.3l.5.1c.1.2.3.2.6 0 .3-.3.5-.2 1.3.6 1 1.1 1.4 1 .8-.3-.3-.5-.5-1-.5-1.3 0-.3.1-.3.5 0a4 4 0 0 1 1.1 2.3l.4.8c.4.3.5.3.8-.2.7-.8.5-1.5-.8-3-1-1-1.3-1.3-1.8-1.1-.3 0-.6 0-1-.5-.4-.4-.6-.5-.6-.3-.1.2-.4.3-.7.3-.4 0-.5.2-.4.5.4.9.5 1.7.2 1.7a4 4 0 0 1-1.1-.7c-2.5-1.8-3.2-2-3.9-1.4-.2.2-.5.1-1-.2l-1.4-.4c-.4 0-.9-.1-1.1-.3-.5-.2-.7-.2-1 .1-.3.4-.3.5.1 1.4.5 1 .5 1 2.2 1.2l1.9-.1c.1-.2.4 0 .6.2.4.5.4.6.8 0 .4-.5 1-.3 1 .4 0 .3.3.9.7 1.3.5.4.8 1 .8 1 0 .6-1.6.7-2.4.3-2-1-3.8-1.6-4.8-1.7-.5 0-1-.2-1.1-.4l-1.2-.2c-.8 0-1 .1-1.1.5-.1.5-.3.6-2 .5h-2l-.5-1.5-.5-2.2L26 80l-.7-3.4c-.1-1.4 0-1.5.5-1.9.5-.3 1-.3 2.5-.1 1.1 0 2 .2 2 .3v2a9 9 0 0 0 0 2.4c.2.6 2.1 1.3 4.3 1.6 6 .9 6 .9 7.2.4.6-.2 1-.5 1-.7 0 0-.7-.5-1.5-.8-.8-.4-1.6-1-1.8-1.4-.4-.7-.4-.8.5-1.5.5-.4 1.2-.8 1.5-.8.4 0 .6-.1.6-.3 0-.4-1.8-2.3-2.2-2.3-.4 0-1.3-1-1.5-1.7-.1-.2-.5-.6-1-.9l-1-.8c-.4-.5-.5-2.2-.1-2.2.1 0 .5-.8.8-1.8.5-1.5.7-2 1.3-2.2 1-.5 1.7-.3 2.2.6.7 1.2 3.5 1.5 4.8.5.7-.6.7-.7.4-1.8-.4-2 .1-3 2.6-4.8 2.6-2 3.9-2 3.8 0 0 .8 0 2 .4 3.6 0 .3.4 1 .7 1.4l.5.9 1.1-1c2-1.9 4-3.3 4.6-3.3.7 0 .8.4 1.2 4.5.2 2.8.3 3.5 1 4.9 1.1 2.2 4.8 6.4 5.2 5.9l.2-1.1c.1-1 .1-1-.6-1-.6.1-.7 0-.8-.5 0-.4-.2-.8-.3-1-.2-.2 0-.6.8-2.2.6-.9 1.7-1.8 2.2-1.8.5 0 .9-1 .5-1.4-.3-.4-1 .2-1 .7 0 .5-1.1.5-1.3 0-.4-1 1.4-2.4 2.6-2.1.8.2 1.7 1.6 1.3 2l-.3.6c0 .6.6-.1 2-2 1.8-2.9 2.2-3.2 5-3.4 3-.2 6.2.4 6.2 1.2 0 .2.5 1 1 1.6 2 2.6 2.5 4.7 1.7 7.2a15 15 0 0 1-3 5.5c-1 1.2-1.9 1.5-5.1 1.9-.8 0-1.5.2-1.5.2 0 .3 3.1 3.1 3.4 3 .4 0 1 1 .7 1.2-.1.2 0 .2.1 0 .2 0 .6 0 .9.3.2.2.6.4.8.3.4-.3 4-.8 5.3-.7 1.1 0 2.9.5 4 1.1.8.4 2 1.6 2 2 0 .3-1.4 1.2-2.4 1.5-.4.2-2.5 2-2.2 2l1-.2c.6-.2 1.2-.2 2.1 0l1.5.5.5-1c.4-1 1.2-1.2 1.6-.1.4.8.1 1.8-.7 2.5-.4.4-.9.4-2.8.4-2.1 0-2.3 0-3 .6-.5.5-.6.8-.4 1 .2.3.4 1 .5 1.7.1 1 .2 1.2.7 1 1.4-.4 2.5 1.9 3.2 7 .2.9.4 1.3 1 1.6 2.2 1.4 4.4 4.5 4 5.8 0 .6-.2.7-.6.6-.3-.1-1 0-1.5.3-1 .6-1.7.6-1.7 0 0-.5-1.2-1.8-1.7-1.8-.7 0-2.5-2-3.3-3.5l-1-1.6a4 4 0 0 0-1.2.9 31.3 31.3 0 0 1-4 3.5l-2.3 1.6-1.7 1v1.4c0 1.1-.1 1.5-.7 2.1-.3.4-1 1.2-1.2 1.7-.3.6-.8 1-1 1.1-.5.1-.5.4-.5 1 .1.7 0 1-.3 1.3-.7.6-.4.8 1 .8 1.2 0 1.6-.1 2.5-.8.9-.7 1.1-.7 3-.7 1.6 0 2.2-.2 2.7-.5.8-.6 2.7-1.2 3.2-1 .3.1.4 0 .4-.1 0-.4 1.4-1 2.2-1 .3 0 .5 0 .4.2 0 .2.1.5.3.7.4.3.3.3-.7.4h-1.6c-.1 0-.3.1-.3.4 0 .7-.7.9-2 .6h-1.4c-.3.2-.3.2.2.2.3 0 .6.2.6.3 0 .3-1.4.5-3.6.5-2 0-2.6.4-1.3.7 1.5.4.1 1-2.6 1-1 0-1.6 0-1.7.3a6 6 0 0 1-3 1.8c-.9 0-1-.5-.4-1.3.4-.5.4-.8.2-1.3-.5-.9-.4-1.8 0-2.2.3-.2.5-.4.5-.6 0-.1.4-.9 1-1.7l1.2-2.1c0-.4.3-.6.4-.6.2 0 .4-.4.5-.7.4-1 0-1.4-1.6-1.4-1.3 0-1.3 0-1.1.9 0 .5 0 .6-.1.4-.3-.4-.7 0-.5.5v.3c-.2 0-.6.5-.9 1.2a9 9 0 0 1-1 1.6c-.4.5-.7 3.5-.3 4.4l.2 1.5c0 .5.2.8.4.8.3 0 .4.1.4.2 0 .4-2 1-2.9.7-.4 0-.8 0-1 .2 0 .1-.3.1-.4 0zm8-14.1 1-.2c.8 0 1.4-.2 1.4-.6 0-.2-.5-.3-1.1-.2-1.1 0-3-.4-3.6-.9-.2-.1-.3-.5-.3-.8 0-.4.1-.5.8-.4 1 .2 3.4-.2 4.9-.7 1.1-.5 3-2.4 3-3-.1-.6 1-.7 1.2-.2l-.1.8c-.2.1-.3.5-.3.7 0 .3 0 .5-.2.5s-.5.4-.8.8l-.6.8h.8c.7 0 1.2-.3 2.3-1.5.9-1 1.4-1.8 1.5-2.3 0-.5.4-1.5.7-2.4.4-1 .6-2.2.6-3.7 0-3.4-.8-4.8-2-3.6-.3.3-.7.5-.9.5l-.6.4c-.3.4-.8.7-3.6 1.9a5 5 0 0 1-1.7.4c-.6 0-.7 0-.6.4 0 .4-.5 1.2-2 2.7l-2.1 2.2-1.1-.2c-.6 0-1.2-.2-1.4-.3-.5-.3-.1-.6.7-.6 1 0 2-.3 2-.6l.5-.7c2.2-2.3 2.4-3 1.2-3-.4 0-.7.3-.9.7-.3.9-1.3 1.6-1.6 1.3-.3-.3-.2-.5.2-1.1.8-1 .8-1.4 0-1.4-.9 0-1.6-.3-3-1.5-1-.9-1.6-1-1.7-.6 0 .2-.8.4-1.7.6-.9.1-2.2.4-3 .7-1.5.4-2.1.2-2.1-.8 0-.3-.2-.5-.3-.5-.5 0-.6-.9 0-1.3l1.2-1.4.7-1-.6-.5c-.8-.5-2.6-2.3-2.6-2.6l-.8-.2c-.7 0-.8 0-1 1 0 .4-.3 1-.4 1.2-.2.2-.1.3 0 .4.2.1.3.5.3 1 0 .3.2 1.3.5 2l.6 2c0 .4.2 1 .5 1.2.4.3.4.5.2.9-.2.3-.2.7.3 1.6l.4 1.2c-.2.2-1.2-.2-1.2-.5l-.7-1.8c-.4-.8-.7-1.8-.6-2.2 0-.4-.3-1.1-.6-1.7-.4-.6-.7-1.3-.7-1.7 0-1.4-3.7-4-4.5-3.3-.3.4.2 3 .6 3.6.6.7 1 1.7 1.3 3.6.2 1.6.8 3.2 1.5 4.3l.6 1.5c.3 1.3.8 1.6 1.3 1 .3-.4 1-.2 1 .3s.6.7 2.1.7l1.8.1c.7.2.8 1 .2 1.5-.6.5-3.4.4-4.3-.2l-.7-.4.7.7c1 1.1 1.3 1.4 2.2 1.9l1.6.9a8 8 0 0 0 1.7.8l2.6 1.1a8 8 0 0 0 4 .9l2.4.2c.2.2 2.5-.1 2.8-.4zm-13.9-10 .1-1.7.4-1.9c0-.6.2-.8.8-1l.9.1c.3.5-.2 3.5-.6 4.3-.6.8-1.3 1-1.6.1zm32.9 7.6h.8l-1-.8c-.5-.5-1.2-1-1.5-1.1-.3-.1-.7-.6-1-1l-1-2c-.4-.6-.7-1.6-.8-2.7-.2-1.3-.3-2-.7-2.3-.3-.3-.6-.4-.8-.2-.1.1-.3 1.3-.3 2.7-.1 2 0 2.5.3 3l.7 1.3c.2.8 2.3 3 3.4 3.5.7.4.8.4 1 0 .1-.4.3-.5.9-.4zm-13.7 0c0-.3-.2-.5-.6-.6-.9-.1-1 0-.5.6s1 .6 1 0zm-2.4-13c1.5-.4 3.7-2 5-3.5l1-1 .4-.7 1-1c.7-.3 1.3-1 1.4-1.3.2-.3.6-.6.8-.6.6 0 1.8-1.3 1.8-1.8 0-.2-.3-.3-.6-.3-.4 0-.7-.2-.8-.4-.2-.6-1.6-.6-3.2 0-2.5.8-4.9 3.4-4.9 5.2 0 1.1 0 1.1-1 .5-.4-.3-.6-.6-.6-1.3 0-.5-.1-1.2-.3-1.5-.2-.4-.2-.6.2-.9.4-.3.4-.4.1-1.5a4 4 0 0 0-.7-1.5l-.3-.6c0-.5-2-2.7-3.1-3.3-.8-.6-2.9-1.4-4.2-1.8-.4-.1-.4 0 .1.9l1.3 1.7c.8.9 1.4 2.4 1.5 3.6 0 .5.2 1 .3 1.2.2.2.4.4.4.6 0 .5.3.5.7-.1.3-.6 1.1-.8 1.1-.4l-.4 1.4c-.3 1-.4 1.3-.1 1.8.2.3.2 1 .1 2-.1 1.3-.2 1.5-.7 1.5-.6 0-.6.1 0-2.3 0-.5 0-.6-.3-.5-.2.1-.5.4-.6.7 0 .3-.7 1-1.3 1.6-.8.8-1.2 1-1.7.9h-.6c0 .5.7 1 1.5 1 .4 0 1 .1 1.4.3.5.4.8.4 1.4.2.6-.2 1-.2 1.1 0 .4.3 0 .7-.7.7-.4 0-.7.2-.8.3-.1.1.5.3 1.4.3l1.6.2 1.3-.3zm-26-1.3-.5-1c-.3 0-.3.6.2 1.7.3 1 .5.5.2-.7zm-2.4-.5c-.3-.8-.4-1.7-.3-2.3.2-1.2 1-3.1 2-4.1.6-.8.8-1.4.3-1.1l-1.5.2h-1.2v2.1c0 3.4 0 5 .5 6 .5 1.4.7.8.2-.8zm13.4-1c.1-.3 0-.5-.1-.5-.4.1-1 1.3-.8 1.6.2.3.8-.3 1-1zm4.5.2c.1-.3.5-.6.9-.8.6-.2.6-.3.5-1.6 0-1-.2-1.5-.6-1.9-.9-.6-1.2-.6-2.1.5-1 1-1 1.5-.3 2 .3.1.6.7.7 1.3.1 1.1.7 1.4 1 .5zM48 90.1c-.1-.5-.3-1-.5-1.2-.7-1-1 .4-.2 1.4.6.9.9.8.7-.2zM72 88c.1-1.6 0-2-.4-2.5-.6-.6-.4-1.1.2-.8.4.3.4-1 0-2.2l-1-2c-.7-1.2-1.7-1.3-2.7-.2-.6.7-1 2.2-2.5 9.3l.1.6c.2 0 .4-.4.5-.9.2-1.1 2.2-2.4 3.5-2.2 1 .2 1.9.8 1.9 1.3 0 .1-.3.2-.7 0h-.6l.4 1.2c.5 1.3.5 1.3.9.8.2-.3.4-1.2.4-2.4zM64.8 89a85.4 85.4 0 0 1 1.6-9.5c-.1 0-.5.7-.8 1.6-1 2.6-1.6 1.4-.8-1.8.2-.8.3-1.6.1-2l-.2-.9-.3 1c-.5 1.4-1.7 3.1-2.1 3.1-.7 0-.5-.8.5-2.3a6 6 0 0 0 1-2c0-.2 0-.4.2-.5.5-.1 0-.8-1-1.5-.4-.3-.9-.6-1-.5-.1.2-1 3.5-.8 3.6l.7-1c.8-1.2 1.5-1.5 1.2-.3-.1.4-.3.9-.5 1l-.5 1c-.1.2-.5.5-.8.6-.4.1-.5.3-.4.7.5 2 .5 2.6 0 3.2-.9 1.5-.2 3.7 1.8 5.8 1.3 1.3 1.7 1.5 2 .7zM45.6 88c-.5-1-1-1.2-1-.5 0 .5.8 1.4 1.2 1.4l-.2-.9zm11-.7c1 0 1.5-.6 1.2-1.5-.3-.7-.6-.8-2.2-.4-.7.1-1 1.4-.6 2.2.3.6.4.6.7.2.1-.3.6-.5 1-.5zm-3.4-1.8c0-.4-.2-.5-1-.5-.7 0-1.2.1-1.2.3-.3.6 0 .7 1.1.7.9 0 1 0 1-.5zM30 85l-.1-1.2c0-.5-.4-1.1-1-1.9-1.1-1.1-1.2-1.5-.4-1.5.4 0 .5-.3.5-2.2.1-2.4 0-2.6-1.5-2.6-.7 0-1 .1-1.2.4-.2.6.3 4.1.7 4.5l.2 1.5c0 1.8 1 3.4 2.2 3.4.6 0 .8-.1.6-.4zm2.3-2.3c-.7-1.2-.9-1.4-1.7-1.5h-.9l.9.7c.4.4.9 1 1 1.4 0 .6.3.8.8.8h.6zm20.7 0 1.1-.5c.9 0 2.6-1.2 2.5-1.7l.4-1c.6-.5.6-2.6.1-4-.3-1-.2-1.4.4-1.1.3 0 1 2.3 1 3.5 0 .3 0 .6.2.6.5 0 1.7-2.1 1.8-3.3.1-1 0-1.2-.5-1.8-.5-.5-.9-.6-1.3-.5-.8.2-.7-.3.4-1.9 1-1.3 1-1.4.8-3.3l-.3-3.9c-.2-2.6-.4-2.8-1.5-1.9-.5.4-1 .7-1.2.7-.4 0-2 2.1-2.2 3-.5 1.9 0 4.4.7 4.4.5 0 .5-1.8.1-2.3-.4-.3.4-1.9 1-1.9.4 0 .5.6 0 1-.1.2 0 .4.5.8.4.3.8.6 1 .6l.2 1.2c0 1 0 1.3-.7 2-.4.4-.8.8-1 .8L55 70.8l-1.3-1.3v-1.9c0-2.7 0-2.7-3.7-2.6-2.9 0-3.1 0-3.6.7-.7.7-2.4 1.2-3.8 1.1-1 0-1.4.2-2.3 1.8l-.5.5-.7.3c-1 .4-1.6-.9-1-2 .3-.7 1-.7 1.3 0 .2.6.2.6.3-.2.4-1.6-.6-3-1.4-2.3-.3.3-1 3-1 3.8 0 .5 2.5 3.5 3 3.5A14 14 0 0 1 44 74c.3.3.6.7.6.9l.4 1c.5.8.2 1-1.7 1.3l-1.7.4-.8.3c-.5.1-.4.2.4.6.5.2 1 .5 1.1.7l1.3.4c.8.1 1.3.4 1.9 1 .4.6.9 1 1 1 .2 0 .6.2.7.4l.6.4c.3 0 0-1.6-.3-2-.6-.6-.3-2 .6-2.9l1-1c.4 0 .3 1.5-.3 2.2-.5.7-.4 1.2.6 2.3.5.5.5.6.1.7-.4.2-.3.3.4.8 1.1.8 2 .8 3 .1zM47.7 72c-.2-.5.2-.8 1-.8.5 0 .7-.1.6-.4-.1-.2 0-.6.2-.8l.3-.9c0-.7.6-.6 1.3.3l.6.8-.6.5-1 .5c-.5 0-.5 0 0 .4l.4.5c0 .3-2.6.2-2.8-.1zm4.4-2c0-.2.2-.4.4-.4.5 0 .4.6 0 .7-.3.1-.4 0-.4-.3zM59 80.7c0-.5-.1-.9-.2-.9-.4 0-1.1 1.6-1.1 2.4v.6l.6-.6c.5-.4.7-.9.7-1.5zM69 78c0-.2-.2 0-.4.2l-.4.8c0 .1.2 0 .4-.3l.4-.7zm8.4.7-1.8-.3c-.6 0-.6 0-.2.3.3.2 1 .4 1.8.4h1.2l-1-.4zm-10.5-1c0-.1-.2-.5-.5-.7-.5-.5-.5-.5-.5.1l.1.8c.3.3 1 .2 1-.2zm4.2-.5-.7-.6c-.9-.4-1.1-.9-.4-.9.4 0 .5-.7 0-1.8-.4-1.5-.9-1-1 1 0 1.7 0 1.8.7 2 .9.4 1.4.5 1.4.3zm10.6-.4c.4 0 .8-.5 1-1a4 4 0 0 1 1-1.4c.5-.5 1.5-4 1.5-5.4 0-1.6-.5-2.7-1.8-4-1.6-1.4-2.5-1.7-5.2-1.7-1.9 0-2.3 0-3 .6l-1 .8c-.1.3-.5.8-2 2.6-.7 1-1 1.5-.9 2 .1.3 0 1-.2 1.4-.2.6-.2.9 0 1.1.2.2.3.7.3 1.3 0 1.2.2 1.8.7 1.8.3 0 .4-.1.3-.4-.2-.5.3-.8.7-.4.2.2.1.4-.1.7-.3.3-.2.5.4 1.2.5.5 1.3 1 1.7 1 1 .3 5.4.1 6.6-.2zm-6.4-.6c-.6-.2-1-.5-1-.8-.3-1 0-1 1.2-.5.7.3 2 .6 2.7.7 1.7.1 1.8.2 1.6.6-.3.4-3.1.3-4.5 0zm-8.1-5c0-.2-.1-.2-.3-.1l-.3.4c0 .1.2.2.3.1.2 0 .3-.3.3-.4zm-18.4-7.6c1-.4 1-.3 2.9.3.5.2.5.2 0-.4-.6-.6-.7-1-.7-3s0-2.3-.5-2.3c-.3 0-.5.1-.5.3l-1.1 1c-1.3.9-1.8 1.8-1.8 3.4 0 1.3.1 1.4 1.7.7zm55.2 59.8c0-.2.2-.5.4-.5.3-.1.4 0 .3.3 0 .3-.2.5-.4.6-.3 0-.4 0-.3-.4zm33 0a4 4 0 0 1-1.3-.6c0-.2 3.1-1 4.5-1.2l1.7-.4 1.3-.3c.5 0 .1-.2-.7-.2-1 0-1.9-.1-2.2-.3-.4-.1-.4-.2.4-.4 1-.2 5.3-.4 5.8-.2s.4.8-.3 1.2c-.9.5-2.2.8-4.3 1-2.4.1-3.4.5-1.5.5.7 0 1.4.2 1.5.3.1.1 0 .3-.2.3s-.5.1-.7.4c-.4.5-2.4.4-4-.1zm-24.3 0c0-.2.3-.3.7-.4.6 0 .7-.2.7-.9s0-.8 1.2-.8c.7 0 1.2-.1 1.3-.3.2-.3.4-.3.6-.1.5.3 1.7.2 2.2-.2l2.5-.8a11 11 0 0 0 3-1c.3-.3.9-.6 1.2-.7.4-.1.6-.4.6-.7 0-.3.2-.5.3-.6a52.4 52.4 0 0 0 1.5-.1c.2 0 .3-.3.3-.5s.2-.4.5-.4c1.9 0 5.2-.5 5.6-.9l.8-.4c.3 0 .5-.1.7-.3l1.4-.5 1.8-.4c.4-.1.6 0 .6.1 0 .4-2.5 1.5-5.3 2.3a31.5 31.5 0 0 0-7.7 3.1 39.6 39.6 0 0 1-7.5 3c-.9.1-2.2.6-3 1-1.5.7-4 1-4 .4zm3.8-1c-.2-.1-.6-.1-.8 0h.8zm-43.8.2c-.3 0-.5-.2-.5-.4 0-.3.7-.2 1 .2.4.4.3.4-.5.2zm37.3 0c0-.5.5-.8 1.4-1 .8-.2 1-.1 1 .2 0 .3-.2.5-.5.5s-.5 0-.5.2-.3.3-.7.3c-.4 0-.7 0-.7-.2zm48-.4c0-.2.4-.7 1-1l1-1c0-.2.2-.3.4-.3l2-1.7c1.5-1.4 1.7-1.5 1.5-.9l.1.7c.2 0 .4-.3.5-.8.1-.8.8-1 .8-.3 0 1.1-1.3 2.5-2.6 2.8-.7.2-4 2.3-4.2 2.6-.1.4-.6.3-.6-.1zm-53.8-.7c0-.2.3-.3.5-.3.3 0 .6.1.6.3l-.6.2c-.2 0-.5 0-.5-.2zm-51.4-.4c-1.7-.5-2-.7-2.2-1-.2-.7.1-.9 1-.6l2 .5c.8.2 1 .1.7-.2-.6-.6 0-.8.9-.3.7.5.8.9.1 1.1l-.8.5c-.4.4-.6.4-1.7 0zm79.2 0 1.6-.8c1.5-.5 5.2-1 5.4-.9.1.1 0 .4-.3.7-.4.4-.9.5-1.8.5l-1.2.1c0 .2-.4.2-.8.1-.5-.1-1 0-1.6.3a4 4 0 0 1-1.3.4c-.3 0-.3 0 0-.4zm38-.3c.1-.3 0-.4-.7-.4-1 0-1-.4 0-.6 1.3-.3 1.5-.2 1.6.2.1.2 1 0 3-1 3-1.5 4.1-1.8 4.1-1.1 0 .2-.4.4-1 .5-.6.1-1.2.4-1.3.6l-1.2.5c-.5 0-1.6.5-2.5 1-1.9.8-2.2.9-2 .3zm-19.6-.1c-.1-.2 0-.3.2-.4l1.6-.5c2.5-.9 2.5-.9 2-.2-.4.3-1 .7-1.7.8l-1.5.4c-.2.1-.5 0-.6-.1zm4.7-.3c.3-.4 2-1.3 2-1l-.8.8c-1 .5-1.4.6-1.2.2zm-97.4-.2c-.5-.3-.2-1.1.5-1.1.6 0 1 .8.5 1l-.5.3-.5-.2zm3.7-.4c-.7-.7-.2-1.2 1.4-1.2 1.2 0 1.4.6.4 1.1-1 .5-1.4.6-1.8.1zm31-1c0-.1 0-.2.3-.2.2 0 .4 0 .4.2s-.1.3-.2.3c-.2 0-.4-.1-.5-.3zm0-.8c-.7-.1-.7-.2.2-.3 1-.2 1.6-.1 1.6.4 0 .2-1 .2-1.9 0zm2.8-.3c-1-.2-1.6-.7-1-1 .8-.5 5.3-1.2 5.3-.8 0 .4-1.2.7-3 .8-.2 0 0 .2.5.4s.9.5.8.6c-.3.2-1.5.3-2.6 0zm45.3-4.5.3-.7c.3-.4.3-.7 0-1-.6-1-.4-1.1 1-1.1.7 0 1.3 0 1.3.2l-1.3 1.5c-.7.7-1.3 1.2-1.3 1zm-.4-3.7-.5-1c-.2-.8-.2-.8 1.2-.7 1.8 0 3-.3 4-1 .3-.2 1.7-.7 3-1l3.8-1.3c1.2-.5 2-.5 6.9-.5 6 0 10 .5 16.4 2.1 3.1.8 5.7 1.3 10.2 2 3.3.5 3.5.6 3.5 1a56 56 0 0 1-14.2-2.5 32 32 0 0 0-7.7-1.3 117 117 0 0 1-5.5-.5 22 22 0 0 0-7.5.6 77.8 77.8 0 0 1-6.6 1l-.7.2.8.2c.5.1.7.3.6.6l-.2.6c0 .5-1 .3-1-.2 0-.4-.1-.4-.4 0-.2.2-.8.4-1.8.4-.8 0-1.8.2-2.3.3-.9.2-.8.2.6.3 1.7 0 2.8.4 2 .6-1 .3-4.2.4-4.6 0zm-104.3-.2.4-.3c.2 0 .3.2.3.3 0 .1-.2.3-.4.3-.3 0-.4-.2-.3-.3zm2.3-.2c0-.6 1.4-.8 6.8-1a88.7 88.7 0 0 0 6.7-.2c1.3.3.7.7-1.1.8a191.6 191.6 0 0 0-12.4.4zm68.3-5.3h1.3l-.7.1h-.6zm4-.6c-.2-.4.6-.6 1.5-.4.4 0 1 0 1.2-.2a4 4 0 0 1 1.9-.4c1.2 0 1.4 0 1.4.5 0 .3-.3.5-1 .6-1.6.3-4.8.2-5 0zm39.1 0c-.6-.3.1-1.4.8-1.2.5.2 6.3.6 8.5.7.2 0 .5.1.5.3a72.5 72.5 0 0 0-6.6.4l-3.2-.1zm-138.4-.3c.1-.2.6-.4 1-.5.7 0 1-.3 1-.7.1-.4.4-.6 2.3-.8 1.9-.3 2.2-.4 2.1-.8-.1-.3 0-.4 1.3-.2.8 0 2.1.4 3 .7 1.9.6 2.6.5.9-.1-1.6-.6-2.2-1.2-1.2-1.2.3 0 1 0 1.5.2.6.3 1 .3 1.1 0 .2-.1.5-.1.9.2.5.3 1 .3 3.6 0a107.4 107.4 0 0 1 8.2-.6c0 .2.3.6.8.8.8.3.5.3-2.6.2-3.4 0-3.5 0-3.5.5 0 .4-.2.5-1 .5-.6 0-1.6-.2-2.3-.4-2.8-.8-3.4-.1-.8 1 .8.4 1.4.9 1.4 1 0 .3 0 .3-1.6-.3-1-.3-1.6-.4-1.6-.2-.1.3-4-.5-4.2-.9-.2-.2-4.1.2-5 .5-.6.1-.6.2-.1.5.6.5.3.6-2.8.8-2 .1-2.4 0-2.4-.2zm108 .1c-.3-.3 0-.6 1-.8l1.2-.2-.8-.3c-.4-.2-1.2-.3-1.7-.2-1.1.2-1.1-.3 0-.8 1-.4 3.1-.2 3.1.3l-.3.6c-.3.3-.1.3.7.2 1.6-.3 1.6-.3 1.7 0 .2.3-4.5 1.5-4.8 1.2zm5.5-1.3c0-.4 1.2-1.1 2-1.1l2-.4 1.2-.3c.3.2-1.5 1.1-2.7 1.4l-2 .5-.5-.1zm25.4-.1-.1-.6-.3-1.3c-.2-.6-.1-.7.1-.6.2.1 1 .3 1.9.3 1.8.1 4 .6 4 1 0 .2-.4.2-1.8-.1-.8-.2-1.5-.2-2.4 0-1.2.3-1.6.8-.6.8.3 0 .5.1.5.3 0 .2-1.3.4-1.3.2zm-110.2-1.3c-.4-.2-.3-.2.5-.2.6 0 1 0 .8.2-.2.3-.6.3-1.3 0zm-.6-1.5c-2-.1-1.7-.9.3-.9.5 0 1-.1 1.2-.4.2-.2.7-.3 1.4-.2l3 .1c1.9 0 2.8.3 2.3.6-.5.4-3 .4-3.6.2-.3-.2-.4-.2-.4 0s-2.6.9-2.8.7l-1.4-.1zm91.5-.1c0-.2.4-.6.8-1l1.7-2c.7-.8 1-1 1.8-1.1 1.3-.1 1.2.5 0 1.4l-1.5 1c-1 .9-2.5 2-2.7 2l-.1-.3zm21.6-1c-.4-.4-.1-.8.8-1l1.8-.3c1.2-.3.6.5-.8 1-1.5.6-1.6.6-1.8.4zM0 96.9c.1-.6.2-.7 1.2-.8 1 0 5.6-1 7.6-1.7.5-.1 1.2-.5 1.4-.7.4-.5.8-.5 4-.4 3.4.2 5 0 8.5-.7 1.8-.4 2.8-.4 2.7 0 0 .2.2.3.6.3.4 0 .7-.2.7-.4s.2-.3.5-.2c.3 0 .5.2.4.4-.2.3.7.6 2.9 1l2 .5-5.6.3h-6.6l-4.7-.1c-3.5-.2-4-.2-5.8.3a3564.4 3564.4 0 0 1-8.5 2.5c-1.2.6-1.4.6-1.3-.3zm99.6.3c-.2-.4.4-1.3 1-1.6.5-.2 8.1-.3 8.1 0s-.8.5-3.3.6c-1.3.1-2.7.4-3 .6-1 .5-2.6.7-2.8.4zM13 96.2c.4-.4 8.2-.7 8.2-.3 0 .2-1.1.3-3 .3l-4.2.2c-1.1.1-1.3.1-1-.2zM147 96c-.2-.1-.4-.4-.4-.6 0-.3.2-.4 1.4-.2.9 0 2.7 0 4.1-.2 2-.2 2.7-.3 3 0 .4.4.2.5-1.8.8-2.4.5-5.7.6-6.3.2zm-37-.4h.5c0 .1 0 .2-.3.2-.4 0-.4 0-.2-.2zm1.2-.3c-.1-.3 3-1.9 3.7-1.9.7 0 .5.5-.2.7-.4.1-1 .5-1.2.8-.7.7-2 .9-2.3.4zM34 94.7c-.3 0-.6-.2-.5-.4 0-.2 1-.3 2.8-.3 1.6 0 3.3-.2 3.9-.3 1.4-.4 6-.9 6.3-.6.3.3-1.2 1-2.3 1.2-.5.1-1 .2-1.1.4h-1.2a34.5 34.5 0 0 0-8 0zm115.4 0c-.3-.4 0-.6 1-.6 1.6 0 2.8-.3 2.4-.6a.8.8 0 0 1-.3-.6c0-.3.4-.4 1.6-.4 1.4 0 1.5.1 1.5.5 0 .3-.1.7-.3.8-.4.2-5.7 1-5.9.9zm-42.6-.3c0-.2 0-.6.2-1s.7-.6 3.2-1c2-.3 3.2-.6 3.5-1l1.5-.8c.6-.2 1.1-.6 1.2-.9.2-.4 1.1-.9 2.4-1 1.1-.2 1 .2-.1.9l-1.6 1.1c-.8 1-2.7 1.7-6 2.5a19 19 0 0 0-3.5 1c-.4.3-.7.4-.8.2zM218.3 91l-6.1-2a196.3 196.3 0 0 1-18-5.6l-2.7-.9c-1.2-.3-5.4-1.7-9.2-3.1l-3.2-1a21 21 0 0 1-3.6-1.3c-.9-.4-2.4-1-3.4-1.2-7-1.5-10.5-2.5-10.5-3 0-.3 4.2.6 7.4 1.5l2.7.7 4 1.2 5.4 1.9c4.9 1.6 7.6 2.5 8.7 3a94 94 0 0 0 9.5 3.3c3.3.9 4.7 1.3 5.3 1.6a47 47 0 0 0 5.6 1.5 51.7 51.7 0 0 1 9.4 2.6c1.5.3 2.8.8 3 1 .3.2.3 1.3 0 1.2l-4.3-1.4zm-63.6.5c-.1-.1-1.2-.2-2.5-.2-1.6 0-2.5 0-3-.4-.6-.2-.8-.4-.5-.6.1 0 .5-.1.8 0 .2 0 .5 0 .6-.2.3-.4 1.5-.4 1.4 0 0 .2.4.4 1.4.4 2 .1 2.6.3 2.6.8 0 .3-.5.5-.8.2zm-2-2c0-.3.7-.5 1-.4.5.3.3.7-.4.7-.4 0-.7-.1-.7-.2zm31.6-.7c-.5-.2-.7-.5-.5-.5.4-.2 1.6.4 1.6.7 0 .4-.2.3-1.1-.2zm-64.5-1.4c0-.6.2-1.1.6-1.4.8-.8.6-2-.5-3.3-.6-.7-1.2-1.6-1.3-2-.3-.6-.5-.7-1.3-.7-.6 0-1.4-.2-1.8-.5-.5-.3-1-.6-1.4-.6-.3 0-1-.1-1.5-.4l-2.3-.6c-1.4-.3-3.2-1.2-3.2-1.7h.5l6.8 1.8c3.1.7 5.4 1.9 5.4 2.7 0 .2.4.9.9 1.5 1.3 1.6 1.6 2.8 1.2 4l-.5 1c-.2 0-.2.1-.2.3 0 .4-.8 1-1.2 1l-.2-1zm30.8.7c-2-.4-3-.8-3-1.2 0-.4-.1-.4 2.4.2l3 .6c.4 0 .7.1.7.4 0 .4-.5.4-3 0zm31.6-.3h.5l-.3.1c-.3 0-.4 0-.2-.1zm-3.6-1-6.4-2c-1.5-.4-1.8-1-.4-.7a81 81 0 0 1 9 3c.5.3.5.3 0 .3l-2.2-.6zm-29.3-.6c-1.2-.3-2.4-.7-2.5-.9-.2-.1-.8-.3-1.4-.3-.5 0-1.2 0-1.4-.2a9 9 0 0 0-1.2-.6c-.9-.3-1-.7-.1-.8.5 0 .5 0-.2-.3-.9-.4-1-.7 0-.7.9 0 3.6.6 4 .8.5.4.1.8-.5.5-.2-.1-1-.3-1.5-.2h-1l1.2.4 2.7.6 2.2.7c.3.2 1.1.5 1.7.6.8.1 1.2.3 1.3.6.1.6-.5.6-3.3-.2zm-52-1.7c-.2-.1-.9-.2-1.5 0-1 0-1.1 0-1.1-.6s0-.7 1.3-.5c.6 0 1.4.2 1.5.4.3.2.5.1.8-.2l1.3-.5c.5-.2 1-.4 1-.7.1-.5.4-.5 1.6-.5.7 0 2-.2 3-.5 1.6-.4 2.2-.3 2.2.3 0 .4-.7.6-3.6 1.1a5 5 0 0 0-1.6.5c-.2.2-.8.4-1.2.4-.4 0-.8.2-1 .4-.2.5-2.1.8-2.7.4zm42.9-3.3c-1.6-.3-3.4-1.4-2.9-1.7.2-.2.2-.3 0-.4-.1-.1-.2-.3-.1-.5 0-.3-.4-.4-1.9-.7a6.8 6.8 0 0 1-3-1c-.5-.3-1.5-.7-2.2-.8-1.5-.2-1.7-.6-.4-.6.8 0 .8 0 .2-.3h-1.4c-.4 0-1 0-1.3-.3-.3-.2-1.6-.6-2.7-.8-3.3-.7-5.8-1.5-6.1-1.8-.3-.4-1.2-.8-3.3-1.5a79.3 79.3 0 0 1-3.9-1.1c-1.6-.3-3.3-1-4-1.6a12 12 0 0 0-1-.9c-.6-.4-.3-1.2.6-1.2.4 0 .7.2 1 .9.5 1.3 1.5 1.7 4 1.7 2 0 6.3.9 6.8 1.3.1.2 0 .3 0 .4-.7.4-.3.7 1.8 1.3 2 .6 3.2.8 8 1.5 1.1.1 1.4.3 1.4.7 0 .4.3.6 1.8 1 2.2.4 2.5.6 2.3 1.1 0 .2 0 .4.3.4.2 0 .4.1.5.3.1.3 2 1 2.7 1 .7 0 1.6.6 1.6 1.1 0 .2.5.4 1 .6 1.3.2 3.1 1 3.1 1.3 0 .1-.3.2-.7.2-.7 0-.7 0-.2.4.5.4.5.4 0 .4l-2-.4zm-.5-1.2c0-.1-.1-.3-.3-.3l-.3.3.3.3c.2 0 .3-.2.3-.3zM103.9 79c-.5-.3-1.1-.8-1.3-1.2-.2-.3-.5-.7-.8-.8-.3 0-.8-.5-1.2-1-1.4-1.6 0-1 2.2 1.1.7.7 1.5 1.4 1.9 1.6.5.4.8.9.4.8l-1.2-.5zm109.6-1-6.4-2a57.5 57.5 0 0 0-11-2.9c-.5 0-1-.2-1-.3-.4-.3.2-.3 2 0l3.3.7c3.3.6 5 1 7.4 2a74.3 74.3 0 0 0 9 3c-.2.4-.4.3-3.3-.5zM102 75.4l-2.4-1.2c-.7-.7-3.3-2-4.4-2.3-1-.2-1.3-.6-2.3-1.9a15.8 15.8 0 0 1-2.5-4.2c0-.2-.3-.7-.7-1-.4-.4-.7-1-.7-1.3 0-.3-.3-1-.6-1.3-.4-.3-.7-.8-.7-1 0-.4-3.6-4-4.4-4.4L75.8 54c-1.2-.4-2.8-1.2-3.3-1.6l-1.5-.6c-.6-.1-1.9-.7-2.8-1.2a33 33 0 0 0-4-1.9c-1.4-.4-3.1-1.2-3.9-1.6-.8-.5-1.7-.9-1.9-.9a46 46 0 0 0-5-2.2l-6.3-2.9a63 63 0 0 0-8-3.5l-2.3-.9c-.3 0-.7-.1-1-.3-.6-.4-1.7-.9-5.2-2a7 7 0 0 1-2.4-1c0-.2-1-.6-2-1-2-.5-3-1-2.6-1.4a33.3 33.3 0 0 1 9 3.3c.3 0 1.7.6 3.2 1.2 2.3 1 3 1.2 3.8 1 .9 0 1.4 0 2.6.7l3 1.5c1 .4 2.2 1 2.9 1.6 1.8 1.2 4.4 2.4 6.6 2.9 1 .2 2.4.7 3.1 1.2 1 .6 2 .8 4.2 1.2C72 47 75 47.6 75 48.2h-1l-5.4-.8c-.7 0-2.7-.4-4.5-.7-3.3-.5-4.4-.5-2.2 0l4.5 2a90.4 90.4 0 0 0 17.5 7c.7.4 1.5.7 1.8.6.3 0 .7.1.9.3.3.2.3.2 0 .5-.3.2-.2.4.8 1.2l2 2.3c.8 1.3 1 1.4 2.6 1.9a6 6 0 0 0 2 .3s.5 0 1 .3c1 .6 2.1 1 4.4 1.6 1.6.4 2 .5 2.1.1.2-.3.3-.2.8.3.6.7 1.8 1 1.8.5s1 0 1.3.7c.4.9.4.9-1.1.7-2.2-.3-5-1-6.8-2-1.4-.5-7-2.4-7.2-2.2L91 64c.5.7 1 1.6 1 2 .2.9 1.9 2.9 2.4 2.9.2 0 .5.2.6.5.4 1.1 1.3 1.8 3.8 3.1 2.7 1.4 4.7 2.3 5.6 2.6.5.1.6.8.1 1a7 7 0 0 1-2.3-.8zm3.7.7c0-.1.1-.2.3-.2.1 0 .2 0 .2.2s0 .3-.2.3a.3.3 0 0 1-.3-.3zm51.2-3.6a234.4 234.4 0 0 1-8.2-2.5l-.8-.3.8-.2c.5-.1.6-.2.3-.2l-1.6-.2c-.7-.1-1-.1-.8.1.2.4-.1.4-.6 0-.2-.3-.6-.5-.8-.5-.4 0-.4 0 0 .3.3.2.3.2-.1.2-.3 0-.5 0-.5-.2 0-.3-2.2-.6-2.5-.3-.2.2-.4.2-.5.1l-.7-.2a87.7 87.7 0 0 1-8.1-1.9 184.1 184.1 0 0 0-7-1.2l-4.2-.9c-1-.4-6-1.2-7.7-1.2-.6 0-2.7-.4-4.8-.9l-5.6-1.2A77.5 77.5 0 0 1 93 58.6l-1.5-.5c-.7-.4 1.5-.3 2.5.2a74 74 0 0 0 11 2.4 32.6 32.6 0 0 0 8.8 1.6c.3.3 1.5.5 6.3 1.1l4.1.7c3.6.8 4.5 1 6.4 1.2l4.9 1c1.6.5 4.2 1 5.8 1.2 3 .4 7.7 1 8.8 1 1 .1 1.4.6 1 1-.2.4 0 .5 1 .8l3.8 1c1.4.5 3 .9 3.8 1 .8 0 1.4.3 1.4.4 0 .4-2.6.3-4.1-.2zm36.3.2-1.8-.3c-.8 0-1.3 0-1.3-.3 0-.2.3-.2.8-.1l2 .3c.8.1 1.4.3 1.3.4-.2.3-.3.3-1 0zm-6.8-.6c-.1-.2-7.2-.8-9.8-.9a169.2 169.2 0 0 1-16.2-1.6c-1 0-1.2-.2-1-.4.2-.2 1.5-.2 4.7.3 4.2.5 6.7.7 11.2 1l6.5.5c6.4.6 9.5 1.2 6.1 1.2l-1.5-.1zM91 70.5c-.6-.2-.8-.4-.9-1.2-.1-1-2.9-6.1-3.6-6.5-.2-.2-.8-.2-1.2-.2a3 3 0 0 1-1.9-.6c-.5-.4-1.9-1.2-3-1.7a7 7 0 0 0-3.5-1h-1.5v-.9c-.2-1.2-.2-1.3.5-.7.3.3.6.4.8.3.3-.2 3 1 5.5 2.3 2 1.1 3 1.6 4.1 1.7.7 0 1.9 1.3 2.6 2.8.3.7.7 1.3.8 1.3.1 0 .4.2.5.6l.5 1c.5.8 1.4 2.8 1.3 3 0 .2-.2.2-1-.2zm58.4-2.5c-.4-.4.1-.5 1.2-.3 1.5.4 1.6.5.1.5-.6 0-1.2 0-1.3-.2zm73-8c-.4-.3-5.2-1.4-9.6-2.1l-2.5-.6c-1.8-.5-25.2-1-33-.8a34 34 0 0 1-9.2-.6c0-.1.4-.3 1-.4.7 0 .8-.1.6-.8 0-.3-.2-1-.1-1.2 0-.6-1.8-2-3.7-3a21.6 21.6 0 0 1-4.6-3.2 19.4 19.4 0 0 0-7-3 31.5 31.5 0 0 1-5.5-1.7l-3.2-1-8.7-2-4.6-1.1a116.8 116.8 0 0 0-14.4-3.6c-.6 0-1.2-.3-2-1-.6-.5-1.4-1-1.9-1-.4-.2-1-.4-1-.6l-.6-.4-2-1-2-1-.5-.7c-.2-.3-.6-.8-1-1l-1.7-1.4c-.8-.8-1-1-.8-1.7.2-1-1.4-2.7-3.4-3.4l-2.1-.6c-.3 0-1-.4-1.5-1-1-1-1.5-1-.5.2.8 1 .9 1.2.4 1.5-.3.2-2.3-1.5-2.3-2l-.6-1.1c-.3-.5-.5-1.1-.5-1.4 0-.6-2.4-2-4.8-3-1.8-.8-5.9-1.4-8.7-1.4-.9 0-2.9-1.4-2.9-2 0-.6 1.6-.5 1.8.1.1.6 1 .8 4.8.9 2.4 0 2.5 0 2.8-.6.2-.4.3-.7.1-.9a1 1 0 0 1-.2-.7c0-.2-.7-.8-1.6-1.2-1.3-.7-1.8-.9-4.4-1-4.3-.3-4.8-.4-5.5-.8L73.1 6l-3.3-.7c-3-.7-4.5-.8-11.6-1a102.4 102.4 0 0 1-10.1-.7c-2.8-.2-7.8 0-8.8.6a26 26 0 0 1-6.4 1.3 48.3 48.3 0 0 0-7.1.6c-.4 0-.6-.1-.6-.5-.1-.5 0-.6 1.5-.8l5-.2c3.2-.1 3.5-.2 4.3-.8.7-.5 1.3-.7 2.9-.8 1 0 2.5-.3 3.3-.4a29 29 0 0 1 7.3.4l3.2.1 8.2.3 5.2.3 1.3-1c1.2-1 1.3-1 3-.9 1.5 0 2.1 0 2.9-.4A9.3 9.3 0 0 1 77.6 0c1.3 0 1.7 0 3 .8.8.4 1.5 1 1.6 1.1 0 .2.4.3.7.3h.7l-.7-.8c-1-1.2-.3-1.2 1 0a28.3 28.3 0 0 1 5 5.1c.6 0 1.8 1.5 1.8 2.2 0 1 .4 1.7.7 1.3 0-.2 0-.5-.2-.7-.5-.7 0-.7.8 0 1 .7 1.7.7 3.3-.3.5-.3 1.2-.6 1.6-.6a11 11 0 0 0 5.4-2c.7-.8.9-.8 2.6-.9 2 0 2.7.2 4.5 1.3l1.6 1c.4 0 1.2.4 1.9.8l1.2.7-1.2.2c-1 .2-1.4.2-1.8-.1l-1.2-.8-1.6-1.2c-.7-.7-1.1-.9-2.1-.9-1.2 0-2.6.6-2.8 1.1-.2.4-2.5 1.3-3.5 1.3-.3 0-.7.2-.8.4-.1.3-.5.4-1.4.4-.6 0-1.2.1-1.2.3 0 .1-.1.3-.3.3-.5 0-1.7.6-1.9 1 0 .1 0 .3.2.3s.5-.2.6-.4c.1-.5 1.2-.6 1.2-.1l-.4.6c-.5.3-.3 1.5.2 1.5v-.6c0-.3.1-.8.8-1.4.5-.5 1-1 1.2-1 .2 0 .6 3 .4 3.2 0 0-.4-.1-.6-.5-.3-.4-.6-.6-.7-.5-.2.2.5 1.6 1 2 .3.3.5.6.5.8 0 .2.5.9 1.2 1.6 1.3 1.4 1.5 1.4.5 0-.5-.5-.7-1.2-.7-1.9 0-1 0-1 .7-.8.6.1.7 0 .6-.7 0-1.1.5-3 1-3.4l1.2-.4c.6 0 1.5-.2 2-.4 1-.3 2.2 0 2.6.5.2.4-.4.7-.7.3-.5-.5-2.1-.3-3.3.4-.9.5-1 .7-1 1.3.1.5 0 .7-.4.9-.7.1-.7.4.1 1 .8.7.9 1.3.2 1-.8-.2-2 .1-2 .7 0 .7 1.6 2.5 2.5 3 1 .6 1 0 0-1.2-.9-1-1-1.4-.5-1.7.2-.2 1.7 1.3 2.8 3a16 16 0 0 0 2.5 3.2c.3 0-.3-1.5-.8-1.8-.2-.2-.3-.6-.3-.8 0-.3-.3-.8-.6-1.2-.5-.6-.5-.9-.3-1.4.5-1.4 1-1 1.6 1.4.4 1.3 1.3 2.8 1.7 2.6l.2-1.2c0-.8.1-1 .5-1s.7.3.9.6c.2.6.1 1-.5 2.7-.5 1.4-.6 2-.4 2.3.2.2.4-.2.7-1 .2-.8.7-1.7 1-2 .7-1 1.4-3.2 1.3-4.2-.2-1.4-.7-1.5-1.8-.2l-1.5 1.5-.5.7c0 .5-.6.5-1 0l-.1-1c-.1-1 1-2 1.7-2 .3 0 .6-.3.8-.7.1-.4.5-.8.8-1 .5-.2.5-.3.1-.7-1-1-.1-1.5.9-.5.7.8 1.6 2.8 1.6 3.6 0 .7 0 .7.3.1.3-.7 1-.8 1.3 0 .2.3.4.4.7.2.4-.2.5-.6.5-2.3a8 8 0 0 1 .2-2.4l1 .6c.6.6.8 1 .8 2s.1 1.5.5 1.8c1.1 1.1.5 4.1-1 5.3-1.3.9-1 1.3.8 1.5 2.3.2 2.4.3 3.2 1.4.7 1 1.7 3.7 1.4 4l.1 1c.2 1 .2 1-1.6 2.8-2 1.9-2 2.1-.5 2.4l5.1 1.5 3.5 1a159.1 159.1 0 0 1 19.6 5c.2 0 .4-.3.6-.7.3-.6.2-.9-.3-1.8-.7-1.2-.7-2.2-.1-2.7.4-.3 3.5-1 4.4-1 .4 0 1 0 1.2.3.2.2.7.3 1 .2.2 0 .6 0 .8.2.3.2.8.3 1.5.2 1.5-.3 6 .7 7 1.6 1.2.8 2 2.5 2.2 4.5.1 1.7.5 2.2 2 2.5.4.1.7.3.7.5l.7 1c.6.6.9 1.3 1.4 4 .2 1.1.2 1.5-.1 2.2-.3.4-.7.8-1 .9-.3 0-.5.3-.4.6.1.7 1.3 1 3.7 1h2.2l.3-1c.6-1.8 1-4.1 1.5-7 .6-3.9 1-5.7 1.4-6.5.5-1.1.4-1.8-.2-1.9-.4 0-.7-.3-.7-.6-.1-.3 0-.4.6-.3.5.2.6.1.6-.3 0-.3.3-.7.6-.9.9-.4 1.1-.3 1 .7-.2.8-.1 1 .5 1 1.2.4.5 1.7-.8 1.5-.2 0-.4.3-.6 1a47 47 0 0 0-2.4 10.8c-.4 1.7-.6 3.2-.5 3.3l15.4.6a220.5 220.5 0 0 1 23.3 1.5c1.3.1 2.6.4 2.8.5.2.2 1 .4 1.7.5 1.3.1 1.4.2 1.4.9 0 .8-.5 1-1 .5zm-50.2-7.7c0-.3-.2-.6-.4-.7-.3-.2-.3-.4-.1-1 .2-.6.1-1.5-.3-1.5l-.6.9-.8 1.3c-.2.4-.2.6.2.9.2.2.4.5.4.8l.2.7c.3.3 1.4-.9 1.4-1.4zm-3-1c.3 0 .9-1.1 1.2-2.3.2-.5.1-.9-.1-1.2-.2-.2-.5-.6-.5-1 0-.2-.2-.4-.4-.3-.1 0-.2.3-.1.5.3 1.6.3 2-.1 2.8-.2.5-.6 1-.7 1-.4.3-.3.8.2.6l.6-.1zm-.5-2.3c0-.9 0-1.3-.7-2.1-.5-.6-.8-1.2-.7-1.4l-.1-.3c-.2 0-.3.2-.3.5 0 .6-1.2 1.8-1.8 1.7-.2 0-.6 0-1 .3-.3.3-.4.4 0 .8.4.5.9.5 1.3-.1.9-1.2 1.9-.8 1 .4-.4.7-.2 1 .7 1.2 1.2.3 1.5.1 1.6-1zm-6-2.2-.2-.4c-.2 0-.3-1.4-.4-2.9-.1-2.6-.2-2.7-.9-3.2l-1.4-1.3c-.7-.7-.8-.8-2.2-.4-1.6.3-2.3.1-3-1-.5-.7-1-.6-1.7.2-.3.5-.4.5-1 .1-.8-.5-1.4-.5-1.4 0 0 .7 1.2 2 1.8 2 .3 0 .7.1.8.3l.8.9.7.5-.3-.6c-.7-1.2-.2-1.5.7-.6l.6.6.3-.6c.2-.4.6-.7 1-.7 1-.2 2.1 1.1 3.4 4 1 2.5 1.6 3.3 2.2 3.3.1 0 .2 0 .2-.2zm1.6-1c.3-.8.4-4 .1-5-.2-.5-.1-.7.3-.7s.7.4 1 1.1c.5 1.1.5 1.1.8.4.2-.5 0-.8-.6-1.7-.9-1-1.5-1.3-2.6-1.3-.9 0-1 .5-.5 2.3.2 1 .4 2.6.4 3.6 0 1.6.1 2 .4 2 .2 0 .5-.3.7-.7zm1.3-.4c0-.3 0-.5-.2-.4-.2.3-.3 1.2 0 1l.2-.6zm-6.2-.2c.3-.5-.3-1.2-2-2-2.2-1-2.1-1-2.1-.5 0 .6-.7.4-1.2-.3-.5-.8-1.5-.9-1.5-.2 0 .8.6 1.1 3 2 1.2.3 2.4.8 2.7 1 .7.3.9.3 1 0zm7-1.5c-.1-.8-.6-.7-.8.2-.2.6-.1.6.4.5.5 0 .6-.2.5-.7zm-7.5-1.4c-.6-1-1.7-1.8-2-1.4-.5.4-.1 1 1 1.6 1.3.7 1.4.7 1-.2zm-2.2-4.2c.2-.4-.5-1-.9-.7-.2.1-.2.3 0 .5.4.5.7.5 1 .2zm-36.4-6.6c-.3 0-.8.2-1.2.6l-.7.7 1.2-.6c.9-.5 1-.6.7-.7zm.7-.8c.4-.3.7-.7.7-1l.1-1c.1-.4 0-.7-.4-.9-.9-.3-1-1-.2-1.2.7 0 .9-.9.2-1h-.7c-.3 0-.4-.2-.3-.7v-.6c-.2 0-.3.2-.3.4 0 .5-1 .3-1.7-.4-.4-.4-1-.5-2.4-.4h-2c-.2.1-.8 1.5-.7 1.6l.8.2c.5.1.7 0 .8-.4.2-.4.4-.5.8-.4.8 0 .8.8 0 1.2-.8.3-2.5 2.7-2.5 3.4 0 .6.7.2 1-.7.6-1 2.6-3.2 3-3.2.1 0 .4.3.6.7.1.3.5.6.7.6.3 0 .5.2.5.4 0 .4-.3.8-2 2.2-.6.5-1.1 1-1.1 1.3 0 .5 0 .5 1.7-.5l1.4-.6.5-.2c.4-.5.6-.6 1.1-.2.4.2.3.3-.1.7-.3.2-.7.3-1 .3-.2-.1-.7.1-1 .5l-.6.6 1.2-.2c.6 0 1.5-.3 1.9-.5zm-4.6-1.6c1-1 1.3-1.7.6-1.7-.5 0-2.7 2.3-2.7 2.8 0 .6.7.2 2.1-1zm-3.6-.7c.3-.5.5-2.3.2-2.3a9 9 0 0 0-1.1 2.6c0 .5.5.4.9-.3zm-1.3-4c.7-1.7.6-2.2-.1-1.2-.7.9-2.2 3.6-2.2 4 0 .7 1.6-1.3 2.3-2.8zm1.4-1.2c0-.5-1 1.6-1 2.1 0 .2.2 0 .5-.6l.5-1.5zm-7.2-.1c-.3-.4-.5-.7-.6-.6 0 .1 0 .5.3.9.2.3.5.6.6.5 0 0 0-.5-.3-.8zm1.7.2c-.7-1.8-1.6-3.5-2-3.6-.5-.2-.5-.2.4 1.7 1.1 2.2 2.2 3.5 1.6 1.9zM115 22c1.5-.5 3.2-1.9 3.2-2.7 0-.2-.2 0-.6.4-1 1-2.2 1.7-2.9 1.4-.4-.2-.4-.4-.1-.7.1-.2.5-.4.8-.4.5 0 2-1.5 2-2 0-.4.1-.4-1 0-1.4.5-4 3.5-3.6 4.2.2.3.5.3 2.2-.2zm-11.7-1.1c-.1-.5-.9-1-1.1-.8 0 0 .1.4.5.8.6.8.9.8.6 0zm-2-1.3c0-.2-.1-.4-.3-.4l-.2.4c0 .3.1.4.2.4.2 0 .3-.1.3-.4zm1.6-.1c-.2-.3-.4-.5-.5-.4 0 0 0 .3.2.5.5.6.6.5.3-.1zm-3.3-.5c-.1-.3-.3-.5-.4-.5-.4 0-.3 1 0 1 .5.3.6.1.4-.5zm-1.7-1.1c-.2-.3-.3-.1-.3.6 0 .8 0 .8.3.3.2-.5.2-.7 0-1zm-1 .4c0-.6-2-3-2.3-2.7-.2.1 1.7 2.9 2 2.9l.2-.2zm21.7-1.4c-.1-.8-.6-1.8-.6-1.2l.7 2.2v-1zm-20.2-.1c0-.5-1.8-2.5-2-2.3 0 .1.3.8.8 1.4 1.2 1.4 1.2 1.4 1.2.9zM94.8 13c-.2-.8-.8-1.4-1.7-1.7-.6 0-.8 0-1.1.5-.6.9-.6 1.1 0 .9.1 0 .5 0 .6.3.2.3.7.7 1.2 1 .6.3.8.3 1 0v-1zm-2-.6c0-.2.2-.4.3-.4.2 0 .3.2.3.4s-.1.4-.3.4c-.1 0-.3-.2-.3-.4zm-3.5-.9.2-1.5c.2-1 0-1-.7-.8-.3.2-.3.4-.2 1.4.4 1.7.7 2.2.7 1zm-1-3.3c0-.5-1-1.2-1.7-1.2-.5 0-.6-.2-.7-1.1 0-1-.1-1.2-.7-1.1-.4 0-.6-.1-.8-.6-.2-.4-.6-.7-1-.8l-2-1C79.4 1 76 .8 75 2c-.3.3-.7.4-1 .3-.2 0-.5 0-.7.3-.3.3-.8.3-2.4.2-1.7-.1-2.1 0-2.5.3-.3.3-.4.6-.2.7.2.2 2 .7 4.1 1l2.3.5c.8.1.9.1.6-.2-1-1 .1-2.7 2.2-3.4.9-.3 1-.3 1.3.1.3.4.5.4.7.2.2-.2.5-.2.7 0 .3.1.2.3-.5 1s-.8 1-.6 1.6l-.1.8c-.5 0-.9-.7-.9-1.8 0-1.3 0-1.3-1-.7-1.1.5-1.4 1-1.1 1.7.2.3.2.5 0 .6-.2 0 0 .3.4.5.6.3 2.2.6 4.4.7 4.1.4 4.7.5 5.4 1 1.5 1.3 2.2 1.6 2.2.8zm-7.8-2.8c-.5-.8-.4-1.5.2-1.9.7-.4.8-.3.6.5 0 .5 0 .9.2 1l.2.5c0 .6-.8.5-1.2-.1zm7.3.5c-.4-.4-.7-.5-.7-.2-.2.3.4.7 1 .7.3 0 .2-.1-.3-.5zM66.6 59.4l-1.9-1.6c-1.4-1.2-1.4-1.7 0-1 3.9 1.5 5.5 2.6 3.5 2.3-.5 0-.7 0-.5.2.8.8-.1 1-1 0zm6-.1a8 8 0 0 0-2.2-.4c-1 0-1.1-.1-1.1-.7 0-.4.1-.6.6-.6 1 0 4.3 1.2 4.3 1.6 0 .5-.4.5-1.6 0zm16.5-1.4c-.9 0-2-.6-2-.9 0-.3.5-.2 2 .4 2 .7 2 .8 0 .5zm59.7-1.9c-5.4 0-10-.2-10.1-.3-.2-.1-.3-.4-.3-.5 0-.2 1.4-.3 5-.1l13.2.2c9.1 0 11 .1 10.8.6-.1.3-3.5.3-18.6.1zm-17-.8a452.3 452.3 0 0 0-14-.8 523 523 0 0 0-7.1-.8l-1.6-.2-5.2-.7-7.5-.9a137.5 137.5 0 0 1-17.8-3c0-.4 4.5 0 7.9.7a68.3 68.3 0 0 0 8 1.2 139.2 139.2 0 0 0 12.5 1.7 103.9 103.9 0 0 0 13 1.1 217.1 217.1 0 0 0 9.2.7l4 .2c1.5 0 1.6 0 1-.4l-1.2-1c-1-.7-.3-.7 1 0 .8.4 1.6.9 1.7 1.2.2.3.5.5.8.5l1 .4c.4.3.3.4-1 .3-.8 0-2.9 0-4.6-.2zm6.8-1.7-1.8-1c-.8-.4-1-.7-1-1 .1-.5 0-.6-3-1.8-2.1-1-2.7-1-1.8-.3l.5.6c-.2.2-3.6-1-4.7-1.6a17 17 0 0 0-2-.7c-1-.3-1.8-.6-2-.8-.4-.3-3.4-1.5-3.8-1.5-.2 0 2.2 1.4 2.5 1.4l1 .5.6.5-1.2-.3a45.2 45.2 0 0 1-6.1-2.4c-1.1-.5-1.5-.8-1.5-1.2 0-.7-.8-1.2-2.7-1.7l-2.6-.8c-.7-.3-1.5-.5-1.9-.5-.9 0-2.5-.6-3.1-1.1-.3-.3-2-.7-4.6-1.2a59 59 0 0 1-8.1-2c-5-1.1-5.8-1.3-6.2-1.7-.4-.3-.6-.4-.7-.1 0 .2-.2.3-.3.3-.2 0-.2-.2-.2-.4.2-.3-.2-.5-1.3-.8l-2.3-.7c-.5-.2-1.4-.3-2.1-.3-2.8-.1-5.2-.5-5.7-1-.3-.3-1-.5-1.4-.5-.4 0-1-.1-1.3-.3-.6-.3-.7-1.3-.2-1.3 1.2 0 3.4.1 4.4.3 1.6.4 2 0 1-1.2-.7-.9-.8-1-1.6-.8-.6.1-1 0-1-.2-.3-.7-6.9-1.5-8.2-1-.5.2-2.2 0-5.8-.4a94 94 0 0 0-8.4-.7c-3.2 0-4-.2-4-.8 0-.5 14 .1 20.5.9s8.2 1.4 10.6 3.8c.6.6 1.7 1.4 2.3 1.7l1.3.8c.2.4 1.2.8 3 1.3l4.6 1.5c2.7.9 3.9 1.2 8.5 2.1l3.2.8 2.6.5c.8.1 1.7.4 2 .6.6.4 1.8.2 1.6-.2-.2-.2.4-.3 1.8-.1l4.2.3c1.7.1 2.3.3 2.7.7.6.6 2.5.7 2 0l-.7-.4c-.4 0-.4 0 0-.3a61.5 61.5 0 0 1 17 3c.6.5 0 .9-.7.6-1.1-.5-6.8-1.8-10.7-2.4-1.9-.4-4-.4-4 0 0 0 .2.1.4 0 .4 0 .6 0 .6.3 0 .6-.6.7-2.5.3-2.5-.5-5.3-.7-5-.4 0 .2.3.3.5.3.3 0 .8 0 1.3.2l2.6.8c1.2.4 1.7.7 1.8 1 0 .3.2.8.5 1.2.6.7 1.9 1 6.2 1.8a62.3 62.3 0 0 0 8.4 3.2c5.1 1.7 6.3 2.2 6.3 2.8 0 .2.2.6.5.9 1 1 .4 1.6-.8 1zm-21.8-9-1-.6c-.6-.3-.8-.3-.7 0 0 .2.5.4 1 .5a48.9 48.9 0 0 1 .7 0zm-3.4-2.7h-.5c-.2.1-.1.2.2.2.2 0 .4 0 .3-.2zM77 31.1a.5.5 0 0 0-.6 0c-.2 0-.2.2.2.3.6.3.8.1.4-.3zm58.1 21.5-1.3-.8c-.7-.4-1-.8-.5-.8l1 .5 1.3.7c.5.3.8 1 .4 1l-.9-.6zm-5.9-.5-1.8-1.3c-.4-.3-1-.6-1.3-.6a.8.8 0 0 1-.6-.5l-.9-1.2-.4-.7c.2 0 .5.3.8.6.3.2.6.5.8.5l1 .6 2.4 1.6c.8.5 1.5 1.1 1.5 1.3 0 .6-.3.5-1.5-.3zm-53.7-3.7c0-.2 0-.3.3-.3.2 0 .3.1.2.3l-.2.2-.3-.2zm47.9-.6.1-.2c.2 0 .3 0 .3.2l-.1.3-.3-.3zm18.4-2.3a80 80 0 0 1-9-1.7c-1.9-.6-3.3-1.2-3.1-1.4 0-.1 9.4 2 12.8 2.9 1.2.3.8.5-.7.2zM204 31.7c0-.2.3-.3.4-.3.1 0 .3.1.3.3 0 .1-.2.2-.5.2-.2 0-.3 0-.2-.2zm2.6 0c0-.2.1-.3.4-.3l.6-.2c0-.2 1-.3 2.3-.3 1.3 0 3-.1 4-.3 1-.2 1.8-.2 2 0 .1.1.9.2 1.7.1.7 0 1.3 0 1.3.2s-2.9.5-8.3.7l-3.6.2-.4-.1zm-32.6-.6c-.7-.1-1.3-.4-1.5-.5-.2-.2 0-.3.4-.1l2 .3c.8 0 1.5.3 1.6.4.2.3-1 .2-2.5-.1zm30.6-.2c-.5-.4.2-.5 1.5-.4.7.1 1.2.3 1.2.4 0 .2-2.3.2-2.7 0zm-2-.3a24 24 0 0 0-3-.3c-1 0-2.2-.3-2.6-.4-1.3-.5-2.6-.9-3.5-1-.5 0-1.1-.2-1.5-.4l-1.1-.2c-.3 0-.7 0-.7-.3-.1-.2.1-.3 1-.1 3.3.4 5.5.9 6.9 1.4.8.3 2.4.6 3.5.8l2.2.3c.3.3-.4.4-1.3.2zm18 0 1-.2c.5 0 .8-.2.8-.4v-1c.1-.3.3-.6.5-.7.2 0 .3.3.3 1 0 1.4-.3 1.6-2.1 1.6-.7 0-.9 0-.6-.3zm-3.6-.4h.6l-.4.1c-.3 0-.4 0-.2-.1zm-29.7-.6c-.7-.2-1.1-.4-1-.5.4-.1 3 .4 3.5.8.7.3-1 .2-2.5-.3zm19 .2c-.2 0-.3-.2-.2-.3.4-.2 2.3-.2 3 0 .3.2 0 .3-1 .4a7 7 0 0 1-1.8 0zm13.7-.3c0-.1.1-.2.3-.2 0 0 .4 0 .6-.2l.4.1c0 .2-.3.4-.6.4h-.7zm-57.1-1c-3.8-.7-6.1-1-7-1-1.2 0-3-1-2.7-1.4h.9c.4.2 2.8.5 5.5.8 5.2.6 6.2.8 6 1.5-.2.4-.9.4-2.7 0zm12.5 0-4.6-1.2c-2-.5-4-1-4.2-1.3-.4-.4-.4-.4.2-.4l1.1.2c.7.3 2 .6 4 1.1a16 16 0 0 1 5 1.6c0 .3-.4.3-1.5 0zm8.6-.1-.9-.2c-1-.2-1.7-.5-1.7-.8 0-.3 0-.3 1.6 0 .8.3 1.3.5 1.3.7 0 .4-.1.5-.3.3zm3.5-.6-2.2-.4c-.5 0-1.1-.1-1.5-.3-.6-.3-2.2-.7-3-.8l-.9-.4c-1.1-.6 0-.5 3.5.3l4.8 1.2c.7 0 1.3.3 1.3.5.1.4-.2.4-2-.1zm-8.6-1a1310.7 1310.7 0 0 1 1.7.3c0 .5-.6.4-1.7-.2zm-5-1.1a47 47 0 0 0-7-1.6c-.6 0-1.6-.3-2.2-.6-1.3-.5-3-1-5.1-1.4-.8 0-1.6-.3-1.9-.4l-1.7-.6c-.6-.2-1-.4-1-.7 0-.5.7-.5 1.8 0l2.2.7 3 .8a809.8 809.8 0 0 0 14.5 4c1 .4 1.2.4.5.4l-3-.6zm-18.8-.6-1.6-.4-2.3-.6c-.7 0-1.4-.2-1.4-.4l-1.3-.2-2.9-.4a21 21 0 0 0-9.6.4c-1.6.4-2.2.4-2.7 0-.6-.5-.4-.7.8-1 4.6-.7 10.4-.5 15.8.5 2.3.4 8 1.8 8.5 2 .4.3-2.3.4-3.3.1zm3.8-1c0-.2 0-.4.2-.4s.3.2.4.4c.1.3 0 .4-.2.4a.4.4 0 0 1-.4-.4zm-43.4-12.8c-1.1-.3-1.4-.6-1.3-1.4.1-.6.2-.7.7-.4.7.4 1.9 1.7 1.6 1.9l-1-.1z"/>
</svg>
